<?xml version="1.0" encoding="UTF-8" standalone="no"?>
<svg
   version="1.1"
   viewBox="-10 0 642 1000"
   id="svg4"
   sodipodi:docname="dzsmall_622_mod.svg"
   inkscape:version="1.2.1 (9c6d41e410, 2022-07-14)"
   xmlns:inkscape="http://www.inkscape.org/namespaces/inkscape"
   xmlns:sodipodi="http://sodipodi.sourceforge.net/DTD/sodipodi-0.dtd"
   xmlns="http://www.w3.org/2000/svg"
   xmlns:svg="http://www.w3.org/2000/svg">
  <defs
     id="defs8" />
  <sodipodi:namedview
     id="namedview6"
     pagecolor="#ffffff"
     bordercolor="#666666"
     borderopacity="1.0"
     inkscape:showpageshadow="2"
     inkscape:pageopacity="0.0"
     inkscape:pagecheckerboard="0"
     inkscape:deskcolor="#d1d1d1"
     showgrid="false"
     inkscape:zoom="0.944"
     inkscape:cx="402.54237"
     inkscape:cy="926.90678"
     inkscape:window-width="1680"
     inkscape:window-height="998"
     inkscape:window-x="-8"
     inkscape:window-y="-8"
     inkscape:window-maximized="1"
     inkscape:current-layer="svg4" />
  <path
     fill="currentColor"
     d="m 503.66234,1164.259 c -47.72289,0 -83.98293,-7.4859 -108.78012,-22.4578 -24.79719,-14.9719 -37.19578,-34.1546 -37.19578,-57.5482 0,-15.9076 6.31627,-29.242 18.9488,-40.003 12.63253,-10.761 31.11345,-16.1416 55.44277,-16.1416 0,23.3936 5.84839,41.8745 17.54518,55.4428 11.69678,13.5683 30.64558,20.3524 56.84638,20.3524 47.72289,0 71.58434,-21.0542 71.58434,-63.1626 0,-21.5221 -7.48594,-36.9619 -22.45783,-46.31931 -14.97189,-9.35743 -34.62249,-14.03615 -58.95181,-14.03615 h -44.91566 v -63.16265 h 44.91566 c 22.45783,0 40.23695,-3.74297 53.33735,-11.22891 13.1004,-7.48595 19.6506,-20.58635 19.6506,-39.30121 C 569.63222,834.87751 534.66667,800 504,800 H 170 c -32,0 -55.5,10.33333 -70.5,31 -15,20.66667 -23.833333,56 -26.5,106 l -5,73 H 13 V 751 h 69 c 10,-16 20.33333,-37.83333 31,-65.5 10.66667,-27.66667 21.33333,-61.16667 32,-100.5 6,-20 11.83333,-43.5 17.5,-70.5 5.66667,-27 10.5,-53.66667 14.5,-80 4,-26.33333 6,-47.83333 6,-64.5 0,-26 -8,-42.66667 -24,-50 -16,-7.33333 -35.33333,-11 -58,-11 H 90 v -45 h 476 v 45 h -12 c -14,0 -27,1.5 -39,4.5 -12,3 -21.66667,9.16667 -29,18.5 -7.33333,9.33333 -11,23.66667 -11,43 v 313 c 0,20.66667 4.33333,36.16667 13,46.5 8.66667,10.33333 24.20761,15.69277 44.79395,18.5 39.30121,0 69.82321,8.65562 93.68466,25.96687 23.86144,17.31124 35.79217,43.27811 35.79217,77.9006 0,26.2008 -6.78414,46.55321 -20.35241,61.05723 -13.56828,14.50401 -30.64558,25.49899 -51.23193,32.98494 24.32932,5.61446 43.74598,16.60944 58.25,32.98494 14.50402,16.37552 21.75602,36.26002 21.75602,59.65362 0,40.2369 -14.50401,70.4147 -43.51204,90.5331 -29.00804,20.1185 -70.18073,30.1777 -123.51808,30.1777 z M 144,751 H 366 V 313 H 243 c -6,62 -14,121.33333 -24,178 -10,56.66667 -21,105.66667 -33,147 -8.66667,29.33333 -16.16667,52.66667 -22.5,70 -6.33333,17.33333 -12.83333,31.66667 -19.5,43 z"
     id="path2"
     sodipodi:nodetypes="sssscsssssccsssssscccccscsssssccccsssssscssscssssccccscsc" />
</svg>
