<?xml version="1.0" standalone="no"?>
<!DOCTYPE svg PUBLIC "-//W3C//DTD SVG 1.1//EN" "http://www.w3.org/Graphics/SVG/1.1/DTD/svg11.dtd" >
<svg xmlns="http://www.w3.org/2000/svg" xmlns:xlink="http://www.w3.org/1999/xlink" version="1.1" viewBox="-10 0 509 1000">
   <path fill="currentColor"
d="M220 810q-73 0 -112 -17t-54.5 -42.5t-15.5 -50.5q0 -68 81 -68q0 54 24 90.5t76 36.5q55 0 82.5 -50t30.5 -154h-208v-57h208q-3 -105 -31.5 -149t-78.5 -44q-43 0 -67 32.5t-24 78.5q-80 0 -80 -61q0 -24 17.5 -47t56.5 -39t104 -16q101 0 159 63.5t58 209.5
q0 103 -29 165.5t-80 90.5t-117 28z" />
</svg>
