<?xml version="1.0" encoding="UTF-8" standalone="no"?>
<!-- Generator: Adobe Illustrator 26.3.1, SVG Export Plug-In . SVG Version: 6.00 Build 0)  -->

<svg
   version="1.1"
   id="Layer_2_00000152242106451696351830000010420094997322261926_"
   x="0px"
   y="0px"
   viewBox="0 0 128 128"
   style="enable-background:new 0 0 128 128;"
   xml:space="preserve"
   sodipodi:docname="emoji_u1f91c.svg"
   inkscape:version="1.4-beta3 (01c8a1c, 2024-08-28, custom)"
   xmlns:inkscape="http://www.inkscape.org/namespaces/inkscape"
   xmlns:sodipodi="http://sodipodi.sourceforge.net/DTD/sodipodi-0.dtd"
   xmlns="http://www.w3.org/2000/svg"
   xmlns:svg="http://www.w3.org/2000/svg"><defs
   id="defs9">
			
			
			
		
			
			
		</defs><sodipodi:namedview
   id="namedview9"
   pagecolor="#ffffff"
   bordercolor="#666666"
   borderopacity="1.0"
   inkscape:showpageshadow="2"
   inkscape:pageopacity="0.0"
   inkscape:pagecheckerboard="0"
   inkscape:deskcolor="#d1d1d1"
   inkscape:zoom="6.0703125"
   inkscape:cx="64"
   inkscape:cy="64"
   inkscape:window-width="1680"
   inkscape:window-height="998"
   inkscape:window-x="-8"
   inkscape:window-y="-8"
   inkscape:window-maximized="1"
   inkscape:current-layer="g8" />
<path
   style="fill:#FFCA28;"
   d="M102.7,92.7c2-0.1,6.1-0.3,8-0.3c3.6-0.1,6.4-3.3,6.4-6.7c0-15.4-1.6-31.9-1.9-34.4  c-0.5-5.3,2.2-17.6-12.5-20.3c-21.8-4-70.8-1.7-90.1,0.5c-1.5,0.2-2.2,0.6-2.9,2.4C5.3,45.2,7.1,64.5,9.4,73.3c0.5,2,1.8,3.1,4,3.4  s10.4,1.5,12.6,1.8c4.4,0.6,8.6,2.6,11.2,5.4c10.2,10.7,13.9,16.1,32.7,17.3c16.3,1.1,14.6,4.6,21,5.9  C94.5,107.9,106.1,106.6,102.7,92.7z"
   id="path1" />
<g
   id="g6">
	<g
   id="g5">
		<defs
   id="defs1">
			<path
   id="SVGID_1_"
   d="M102.7,92.7c2-0.1,6.1-0.3,8-0.3c3.6-0.1,6.4-3.3,6.4-6.7c0-15.4-1.6-31.9-1.9-34.4     c-0.5-5.3,2.2-17.6-12.5-20.3c-21.8-4-70.8-1.7-90.1,0.5c-1.5,0.2-2.2,0.6-2.9,2.4C5.3,45.2,7.1,64.5,9.4,73.3     c0.5,2,1.8,3.1,4,3.4s10.4,1.5,12.6,1.8c4.4,0.6,8.6,2.6,11.2,5.4c10.2,10.7,13.9,16.1,32.7,17.3c16.3,1.1,14.6,4.6,21,5.9     C94.5,107.9,106.1,106.6,102.7,92.7z" />
		</defs>
		
		<path
   id="path4"
   style="fill:#faa700"
   d="M 69.701172 28.820312 C 48.327148 28.710938 24.662109 30.125 12.599609 31.5 C 11.099609 31.7 10.399219 32.100391 9.6992188 33.900391 C 9.6622218 33.995406 9.6337799 34.101131 9.5976562 34.197266 C 46.148402 31.687537 75.880105 30.943178 101.5 33.800781 C 107 34.400781 112.09961 37.9 112.59961 43.5 C 112.86782 46.092724 113.97549 47.058807 115.10938 47.066406 C 115.05171 41.142889 114.25613 33.122698 102.69922 31 C 94.524219 29.5 82.525586 28.885938 69.701172 28.820312 z M 99.800781 52.300781 C 99.000781 53.400781 93.599609 57.000391 91.099609 58.900391 C 88.599609 60.800391 75.500391 63.000391 72.400391 63.900391 C 69.300391 64.900391 68.899609 68.900391 71.099609 70.900391 C 73.499609 73.100391 79.299219 75.400781 81.199219 73.800781 C 83.799219 71.500781 90.8 71.600781 93 79.800781 C 93.3 80.800781 93.800391 82.699219 94.900391 81.199219 C 97.400391 77.799219 101.50039 78.600391 103.40039 79.900391 C 106.30039 81.900391 110.50039 80.599219 108.90039 77.199219 C 108.30039 75.999219 102.09922 66.3 100.19922 64 C 98.299219 61.7 98.300781 57.900781 101.30078 53.300781 C 101.30078 53.300781 100.70078 53.000781 99.800781 52.300781 z M 18.373047 68.998047 C 15.322405 68.959089 12.015662 69.048901 8.5234375 69.232422 C 8.7992426 70.738554 9.0931554 72.125272 9.4003906 73.300781 C 9.9003906 75.300781 11.200391 76.399219 13.400391 76.699219 C 15.600391 76.999219 23.8 78.2 26 78.5 C 30.4 79.1 34.599219 81.100391 37.199219 83.900391 C 47.399219 94.600391 51.100391 99.999219 69.900391 101.19922 C 86.200391 102.29922 84.500391 105.79961 90.900391 107.09961 C 94.423076 107.88243 105.59558 106.64695 102.88867 93.570312 C 100.91649 91.705031 99.018254 89.916691 98.800781 89.699219 C 98.300781 89.199219 97.499219 88.500781 96.699219 89.300781 C 99.499219 91.800781 96.999609 94.6 94.099609 99 C 91.199609 103.4 85.8 100.60078 82.5 97.800781 C 76.9 92.900781 65 98.400781 59 86.800781 C 53.6625 76.563281 42.889453 69.311133 18.373047 68.998047 z " />
			
		
	</g>
</g>
<g
   id="g9">
	<g
   id="g8">
		<defs
   id="defs6">
			<path
   id="SVGID_00000090979743416714594730000004757118460105001404_"
   d="M102.7,92.7c2-0.1,6.1-0.3,8-0.3     c3.6-0.1,6.4-3.3,6.4-6.7c0-15.4-1.6-31.9-1.9-34.4c-0.5-5.3,2.2-17.6-12.5-20.3c-21.8-4-70.8-1.7-90.1,0.5     c-1.5,0.2-2.2,0.6-2.9,2.4C5.3,45.2,7.1,64.5,9.4,73.3c0.5,2,1.8,3.1,4,3.4s10.4,1.5,12.6,1.8c4.4,0.6,8.6,2.6,11.2,5.4     c10.2,10.7,13.9,16.1,32.7,17.3c16.3,1.1,14.6,4.6,21,5.9C94.5,107.9,106.1,106.6,102.7,92.7z" />
		</defs>
		
		<path
   id="path7"
   style="fill:#b55e19"
   d="M 114.00391 39.427734 C 113.13172 40.317133 112.53337 41.675251 112.59961 43 C 112.69961 44.9 114.3 71.399609 114.5 86.099609 C 114.6 88.899609 111.29922 90.099609 110.19922 90.099609 L 101.40039 90.099609 C 100.90039 90.199609 100.49922 89.9 100.19922 89.5 C 95.699219 82.9 87.399219 86.400781 81.199219 76.300781 C 80.899219 75.800781 80.800781 75.299219 81.300781 74.699219 C 82.900781 72.699219 85.100781 70.2 86.800781 69 C 87.400781 68.6 87.900781 68.200391 88.800781 68.400391 C 91.300781 69.100391 92.3 71.200391 93 72.400391 C 93.4 73.300391 93.399219 73.999609 93.199219 74.599609 C 92.399219 77.299609 92.999219 80.999609 93.699219 82.099609 C 94.399219 83.299609 95.8 83.1 95.5 81.5 C 95 78.6 95.500391 75.699609 96.400391 74.599609 C 96.900391 73.899609 97.600391 74.3 97.900391 74.5 C 98.300391 74.8 105.7 80.4 106.5 81 C 107.3 81.6 108.10039 80.399219 107.40039 79.699219 C 105.60039 77.799219 94.800391 66.500391 93.900391 65.400391 C 93.100391 64.300391 93.4 62.800391 94.5 61.900391 C 98.6 58.400391 102.20078 53.1 103.30078 49.5 C 103.60078 48.7 102.50078 47.900781 101.80078 48.800781 C 91.200781 62.600781 86.899219 58.099219 77.199219 72.199219 C 74.599219 69.999219 72.199609 69.199219 71.099609 69.199219 C 70.299609 69.199219 69.599609 70.000391 70.599609 70.900391 C 79.199609 78.400391 80.300781 85.5 90.300781 87 C 102.00078 88.8 105.09922 101.49922 94.199219 106.69922 C 93.719947 106.89093 93.426566 107.08239 93.232422 107.26758 C 97.918985 107.1225 105.54056 104.31527 102.69922 92.699219 C 104.69922 92.599219 108.79922 92.400391 110.69922 92.400391 C 114.29922 92.300391 117.09961 89.099219 117.09961 85.699219 C 117.09961 70.299219 115.49922 53.800781 115.19922 51.300781 C 114.93374 48.486687 115.54868 43.703877 114.00391 39.427734 z M 24.150391 76.541016 C 22.419141 76.575391 20.800391 76.700781 19.400391 76.800781 C 18.841964 76.800781 18.465974 77.058354 18.242188 77.390625 C 21.345007 77.837576 24.645405 78.315282 26 78.5 C 30.4 79.1 34.599219 81.100391 37.199219 83.900391 C 47.399219 94.600391 51.100391 99.999219 69.900391 101.19922 C 74.875908 101.53499 78.161866 102.09782 80.525391 102.75 C 80.377665 102.36723 80.110186 101.93999 79.599609 101.59961 C 69.199609 95.099609 62.100391 105.40078 39.900391 81.800781 C 35.550391 77.150781 29.344141 76.437891 24.150391 76.541016 z " />
			
		
	</g>
</g>
</svg>
