<?xml version="1.0" encoding="UTF-8" standalone="no"?>
<!-- Generator: Adobe Illustrator 26.3.1, SVG Export Plug-In . SVG Version: 6.00 Build 0)  -->

<svg
   version="1.1"
   id="Layer_2_00000064341971650122593530000005941462963777279392_"
   x="0px"
   y="0px"
   viewBox="0 0 128 128"
   style="enable-background:new 0 0 128 128;"
   xml:space="preserve"
   sodipodi:docname="emoji_u1f590.svg"
   inkscape:version="1.4-beta3 (01c8a1c, 2024-08-28, custom)"
   xmlns:inkscape="http://www.inkscape.org/namespaces/inkscape"
   xmlns:sodipodi="http://sodipodi.sourceforge.net/DTD/sodipodi-0.dtd"
   xmlns="http://www.w3.org/2000/svg"
   xmlns:svg="http://www.w3.org/2000/svg"><defs
   id="defs14">
			
			
			
			
			
		
			
			
			
			
			
		</defs><sodipodi:namedview
   id="namedview14"
   pagecolor="#ffffff"
   bordercolor="#666666"
   borderopacity="1.0"
   inkscape:showpageshadow="2"
   inkscape:pageopacity="0.0"
   inkscape:pagecheckerboard="0"
   inkscape:deskcolor="#d1d1d1"
   inkscape:zoom="6.0703125"
   inkscape:cx="64"
   inkscape:cy="64"
   inkscape:window-width="1680"
   inkscape:window-height="998"
   inkscape:window-x="-8"
   inkscape:window-y="-8"
   inkscape:window-maximized="1"
   inkscape:current-layer="g13" />
<path
   style="fill:#FFCA28;"
   d="M89.7,75.1c0.1,0.4,0.5,0.5,0.8,0.2c3.7-4.5,13.6-17,25-13.7c3.6,1,5.3,5.1,3.9,8.2  c-2.3,4.9-14.7,13.2-21.1,24c-1,1.7-9.6,21.6-24.1,27.4s-39.5,5.1-46.9-23c-3.8-14.5-1.7-17.9-5.6-37.1c-0.8-3.8-3.6-20-4.1-24.7  c-0.7-6.3,8.2-8.5,10.4-3.1c1,2.6,8.7,27.2,9,28.2c0.6,1.9,3,1.3,2.9-0.4c-1.7-19.9-3.8-38.4-3.5-44.7s9.9-7.3,11.2-0.8  c0.8,4.4,5.8,39.2,6,40.7s2.6,1.3,2.8-0.3s2-38.8,3.2-46.8c1.1-7,12.4-6.9,12.6,1.1c0.2,6.4-0.9,45.7-1,47c-0.1,2,2.2,2.2,2.5,0.1  c0.2-1.4,8.1-36.8,9.2-40.3c1.8-6.1,12.1-5.7,11.8,2.5C94.1,30.9,87.6,61.8,89.7,75.1z"
   id="path1" />
<g
   id="g8">
	<g
   id="g7">
		<defs
   id="defs1">
			<path
   id="SVGID_1_"
   d="M89.7,75.1c0.1,0.4,0.5,0.5,0.8,0.2c3.7-4.5,13.6-17,25-13.7c3.6,1,5.3,5.1,3.9,8.2     c-2.3,4.9-14.7,13.2-21.1,24c-1,1.7-9.6,21.6-24.1,27.4s-39.5,5.1-46.9-23c-3.8-14.5-1.7-17.9-5.6-37.1c-0.8-3.8-3.6-20-4.1-24.7     c-0.7-6.3,8.2-8.5,10.4-3.1c1,2.6,8.7,27.2,9,28.2c0.6,1.9,3,1.3,2.9-0.4c-1.7-19.9-3.8-38.4-3.5-44.7s9.9-7.3,11.2-0.8     c0.8,4.4,5.8,39.2,6,40.7s2.6,1.3,2.8-0.3s2-38.8,3.2-46.8c1.1-7,12.4-6.9,12.6,1.1c0.2,6.4-0.9,45.7-1,47     c-0.1,2,2.2,2.2,2.5,0.1c0.2-1.4,8.1-36.8,9.2-40.3c1.8-6.1,12.1-5.7,11.8,2.5C94.1,30.9,87.6,61.8,89.7,75.1z" />
		</defs>
		
		<path
   id="path6"
   style="fill:#faa700"
   d="M 66.238281 4.125 C 63.250781 3.975 60.149609 5.6992188 59.599609 9.1992188 C 58.399609 17.199219 56.600391 54.4 56.400391 56 C 56.309468 56.727377 55.760701 57.149019 55.173828 57.269531 C 57.240731 57.081194 58.900391 56.867946 58.900391 54 C 58.900391 52 61.399609 14.799219 61.599609 11.199219 C 61.799609 5.8992188 68.699219 5.5 69.699219 9.5 C 69.993354 10.558886 71.248551 10.566606 72.177734 10.119141 C 71.991955 6.2463148 69.177595 4.2725806 66.238281 4.125 z M 42.601562 11.191406 C 39.680078 10.989697 36.569141 12.856641 36.400391 16.400391 C 36.100391 22.700391 38.200391 41.199609 39.900391 61.099609 C 39.92992 61.601608 39.729334 61.991511 39.433594 62.265625 C 41.174135 61.52693 42.180938 61.003765 42 58.199219 C 41.8 55.199219 38.899219 19.900391 38.699219 17.900391 C 38.299219 13.000391 43.9 12.499609 45 14.599609 C 45.614262 15.772292 46.711172 15.585514 47.400391 14.929688 C 46.643284 12.547844 44.681513 11.335013 42.601562 11.191406 z M 88.542969 12.935547 C 86.101001 13.007153 83.687891 14.430859 82.900391 17.099609 C 81.800391 20.599609 73.899219 56.000391 73.699219 57.400391 C 73.541094 58.507265 72.83212 58.95724 72.207031 58.859375 C 72.207016 58.859461 72.199219 58.900391 72.199219 58.900391 C 73.799219 59.100391 75.500391 58.799609 75.900391 57.099609 C 76.300391 55.399609 83.700781 21.900391 84.300781 19.400391 C 85.500781 14.800391 90.500391 13.900391 92.400391 16.900391 C 92.961131 17.766989 93.804537 17.668566 94.433594 17.248047 C 93.635045 14.269958 91.083974 12.861036 88.542969 12.935547 z M 23.558594 30.246094 C 20.475586 30.125977 17.162109 32.462891 17.599609 36.400391 C 18.099609 41.100391 20.899219 57.299609 21.699219 61.099609 C 25.599219 80.299609 23.500781 83.699219 27.300781 98.199219 C 32.403657 117.57635 45.873075 123.91978 58.5 124.0918 L 58.5 122.90039 C 39.5 120.50039 32.1 108.20078 29.5 96.800781 C 26.6 83.900781 27.299219 74.399609 25.199219 66.099609 C 24.499219 63.199609 20 39.100391 20 35.400391 C 20 32.400391 25.099219 30.400781 26.699219 34.300781 C 27.160648 35.408211 27.977877 35.554423 28.652344 35.259766 C 28.459925 34.689856 28.091349 33.538288 28 33.300781 C 27.175 31.275781 25.408398 30.318164 23.558594 30.246094 z M 111.30469 61.056641 C 101.72207 61.3 93.7375 71.363281 90.5 75.300781 C 90.2 75.600781 89.799219 75.499609 89.699219 75.099609 C 89.565447 74.252387 89.470069 73.330051 89.402344 72.349609 L 87.800781 74 C 70.900781 75.9 57.700781 85.700391 58.300781 104.90039 C 58.300781 106.50039 60.700781 106.50078 60.800781 104.80078 C 61.300781 95.700781 66.300391 81.8 87.400391 77.5 C 88.500391 79.2 91.199219 78.799609 92.199219 77.599609 C 98.599219 69.799609 104.00039 63.5 112.90039 63.5 C 116.30039 63.5 118.79961 66.600391 116.59961 70.400391 C 116.59961 70.400391 117.49357 71.087512 118.20898 71.638672 C 118.71999 70.982691 119.13449 70.367267 119.40039 69.800781 C 120.80039 66.700781 119.1 62.599609 115.5 61.599609 C 114.075 61.187109 112.67363 61.021875 111.30469 61.056641 z " />
			
		
	</g>
</g>
<g
   id="g14">
	<g
   id="g13">
		<defs
   id="defs8">
			<path
   id="SVGID_00000157991505800920888020000004127415671767356568_"
   d="M89.7,75.1c0.1,0.4,0.5,0.5,0.8,0.2     c3.7-4.5,13.6-17,25-13.7c3.6,1,5.3,5.1,3.9,8.2c-2.3,4.9-14.7,13.2-21.1,24c-1,1.7-9.6,21.6-24.1,27.4s-39.5,5.1-46.9-23     c-3.8-14.5-1.7-17.9-5.6-37.1c-0.8-3.8-3.6-20-4.1-24.7c-0.7-6.3,8.2-8.5,10.4-3.1c1,2.6,8.7,27.2,9,28.2c0.6,1.9,3,1.3,2.9-0.4     c-1.7-19.9-3.8-38.4-3.5-44.7s9.9-7.3,11.2-0.8c0.8,4.4,5.8,39.2,6,40.7s2.6,1.3,2.8-0.3s2-38.8,3.2-46.8     c1.1-7,12.4-6.9,12.6,1.1c0.2,6.4-0.9,45.7-1,47c-0.1,2,2.2,2.2,2.5,0.1c0.2-1.4,8.1-36.8,9.2-40.3c1.8-6.1,12.1-5.7,11.8,2.5     C94.1,30.9,87.6,61.8,89.7,75.1z" />
		</defs>
		
		<path
   id="path12"
   style="fill:#b55e19"
   d="M 66.238281 4.125 C 66.188839 4.1225175 66.139336 4.1303621 66.089844 4.1289062 C 68.134679 4.5842782 69.400391 7.0288459 69.400391 8.9003906 C 69.200391 33.300391 68.300781 53.799219 68.300781 55.699219 C 68.300781 58.499219 69.899219 58.600391 72.199219 58.900391 C 72.199219 58.900391 72.20117 58.857485 72.201172 58.857422 C 71.642871 58.766648 71.152098 58.243193 71.199219 57.300781 C 71.299219 56.000781 72.399219 16.700781 72.199219 10.300781 C 72.099219 6.3007812 69.225781 4.275 66.238281 4.125 z M 42.601562 11.191406 C 42.046977 11.153116 41.488246 11.20439 40.941406 11.3125 C 41.053027 11.353067 41.160818 11.400391 41.300781 11.400391 C 43.700781 11.400391 45.200391 13.9 45.400391 16 C 45.700391 18 50.000391 51.599219 50.400391 54.699219 C 50.796749 57.870083 52.959715 57.410658 54.847656 57.304688 C 54.252578 57.305239 53.691653 56.991107 53.599609 56.300781 C 53.399609 54.800781 48.399609 19.999609 47.599609 15.599609 C 47.030859 12.755859 44.873828 11.348291 42.601562 11.191406 z M 90.285156 13.138672 C 91.290767 14.376212 92.530198 16.793352 92.199219 20.599609 C 91.799219 25.199609 87.600391 51.000391 87.400391 53.900391 C 87.100391 56.900391 85.200391 70.399609 86.900391 76.099609 C 87.400391 77.699609 89.400781 77.299609 89.800781 76.099609 C 89.861623 75.917083 89.954616 75.742477 90.074219 75.460938 C 89.903622 75.439648 89.754382 75.320261 89.699219 75.099609 C 87.599219 61.799609 94.099219 30.899609 94.699219 19.599609 C 94.836393 15.850193 92.754423 13.750815 90.285156 13.138672 z M 23.558594 30.246094 C 23.139446 30.229763 22.718413 30.275341 22.300781 30.347656 C 24.400781 30.957031 25.600391 32.999219 25.900391 34.199219 C 26.300391 35.799219 33.400781 58.299609 34.300781 60.599609 C 35.077557 62.584703 36.533436 62.894711 38.136719 62.630859 C 37.659421 62.526052 37.214172 62.178211 37 61.5 C 36.7 60.5 29 35.900781 28 33.300781 C 27.175 31.275781 25.408398 30.318164 23.558594 30.246094 z M 119.47852 65.369141 C 119.04224 66.76542 118.19878 68.527066 116.40039 70.400391 C 107.60039 79.500391 100.39922 83.400781 94.199219 95.300781 C 82.708355 117.50347 65.334937 128.88573 38.576172 117.18555 C 49.336631 126.0996 64.24246 125.18192 74.199219 121.19922 C 88.699219 115.39922 97.300781 95.500781 98.300781 93.800781 C 104.70078 83.000781 117.10039 74.700781 119.40039 69.800781 C 120.03352 68.398841 120.00241 66.800904 119.47852 65.369141 z " />
			
		
	</g>
</g>
</svg>
