<?xml version="1.0" encoding="UTF-8" standalone="no"?>
<!-- Generator: Adobe Illustrator 26.3.1, SVG Export Plug-In . SVG Version: 6.00 Build 0)  -->

<svg
   version="1.1"
   id="Layer_2_00000002375086634763235660000013208553674508160907_"
   x="0px"
   y="0px"
   viewBox="0 0 128 128"
   style="enable-background:new 0 0 128 128;"
   xml:space="preserve"
   sodipodi:docname="emoji_u1f90f.svg"
   inkscape:version="1.4-beta3 (01c8a1c, 2024-08-28, custom)"
   xmlns:inkscape="http://www.inkscape.org/namespaces/inkscape"
   xmlns:sodipodi="http://sodipodi.sourceforge.net/DTD/sodipodi-0.dtd"
   xmlns="http://www.w3.org/2000/svg"
   xmlns:svg="http://www.w3.org/2000/svg"><defs
   id="defs12">
			
			
			
			
		
			
			
			
			
		</defs><sodipodi:namedview
   id="namedview12"
   pagecolor="#ffffff"
   bordercolor="#666666"
   borderopacity="1.0"
   inkscape:showpageshadow="2"
   inkscape:pageopacity="0.0"
   inkscape:pagecheckerboard="0"
   inkscape:deskcolor="#d1d1d1"
   inkscape:zoom="6.0703125"
   inkscape:cx="64"
   inkscape:cy="64"
   inkscape:window-width="1680"
   inkscape:window-height="998"
   inkscape:window-x="-8"
   inkscape:window-y="-8"
   inkscape:window-maximized="1"
   inkscape:current-layer="g11" />
<path
   style="fill:#FFCA28;"
   d="M47.3,65.5c-0.7-1.2-1.4-3-1.8-4.8c-0.4-1.4-1.6-7.3-2-8.9c-0.4-1.7-1.3-7,5.1-10.9  c-1.2-2.1-6.5-1.6-9.1-0.7C33,42.5,25.1,46.5,16.7,45c-4.5-0.8-8.2-5.8-3.5-10.3c2.3-2.2,6.1-3.6,9.8-5.5c4-2,7-3.9,10.7-5.2  c4.1-1.4,9.6-3.4,17.9-4.7c2-0.3,4,0.4,4.9,0.7c0.9,0.3,12.7,4.9,12.7,4.9s7.8-3.7,14.2,1.2c2.7,2,4.9,2.1,6,2.2  c2.9,0.1,6.1,1.4,8,3.4c2,2,3.8,2.9,6.1,3.6c2.3,0.7,8.4,1.4,9.9,9.7c0.7,3.6,0.3,4.5,0.5,7.4c0.3,2.9,1,11.1,2,22.6  c0.2,1.9,0.5,4.3,1.7,6.9s2.7,5.6,3.2,6.4s0.6,2.1-0.3,3.2c-4.5,6.4-20.7,20.8-31.6,23.5c-1.7,0.4-2.5-0.7-2.9-1.1  c-0.5-0.4-2.4-3-6.8-4.5c-8.3-0.8-22.1-2.1-35.6-18c-3.9-4.6-7.4-12.2-15.2-17c-8.9-5.4-13.8-9.6-15.2-11.1  c-2.9-3.1-2.7-9.8,2.4-11.8c2-0.8,13.5-1.6,23,6.8C43.5,62.4,42.7,63.3,47.3,65.5z"
   id="path1" />
<g
   id="g7">
	<g
   id="g6">
		<defs
   id="defs1">
			<path
   id="SVGID_1_"
   d="M47.3,65.5c-0.7-1.2-1.4-3-1.8-4.8c-0.4-1.4-1.6-7.3-2-8.9c-0.4-1.7-1.3-7,5.1-10.9     c-1.2-2.1-6.5-1.6-9.1-0.7C33,42.5,25.1,46.5,16.7,45c-4.5-0.8-8.2-5.8-3.5-10.3c2.3-2.2,6.1-3.6,9.8-5.5c4-2,7-3.9,10.7-5.2     c4.1-1.4,9.6-3.4,17.9-4.7c2-0.3,4,0.4,4.9,0.7c0.9,0.3,12.7,4.9,12.7,4.9s7.8-3.7,14.2,1.2c2.7,2,4.9,2.1,6,2.2     c2.9,0.1,6.1,1.4,8,3.4c2,2,3.8,2.9,6.1,3.6c2.3,0.7,8.4,1.4,9.9,9.7c0.7,3.6,0.3,4.5,0.5,7.4c0.3,2.9,1,11.1,2,22.6     c0.2,1.9,0.5,4.3,1.7,6.9s2.7,5.6,3.2,6.4s0.6,2.1-0.3,3.2c-4.5,6.4-20.7,20.8-31.6,23.5c-1.7,0.4-2.5-0.7-2.9-1.1     c-0.5-0.4-2.4-3-6.8-4.5c-8.3-0.8-22.1-2.1-35.6-18c-3.9-4.6-7.4-12.2-15.2-17c-8.9-5.4-13.8-9.6-15.2-11.1     c-2.9-3.1-2.7-9.8,2.4-11.8c2-0.8,13.5-1.6,23,6.8C43.5,62.4,42.7,63.3,47.3,65.5z" />
		</defs>
		
		<path
   id="path5"
   style="fill:#faa700"
   d="M 52.347656 19.232422 C 52.099805 19.241406 51.849609 19.263281 51.599609 19.300781 C 43.299609 20.600781 37.799219 22.6 33.699219 24 C 29.999219 25.3 27 27.199219 23 29.199219 C 19.3 31.099219 15.499219 32.499219 13.199219 34.699219 C 8.4992187 39.199219 12.199219 44.2 16.699219 45 C 17.045316 45.061803 17.390038 45.100898 17.734375 45.144531 C 18.197712 44.394586 18.077 43.404875 17.400391 43.300781 C 15.400391 43.000781 12.300391 39.799219 14.900391 36.699219 C 16.700391 34.599219 21.900781 32.900781 25.300781 31.300781 C 29.500781 29.300781 31.699609 27.199609 35.599609 26.099609 C 38.399609 25.299609 47.099219 22.9 48.699219 22.5 C 51.199219 21.9 53 21.3 56 22.5 C 57.9 23.2 60.399609 24.399219 61.099609 24.699219 C 61.799609 24.999219 62.500781 25.799609 61.800781 26.599609 C 59.900781 28.699609 59.200781 30.400391 54.300781 30.400391 C 49.400781 30.400391 42.299219 31.600781 34.699219 37.300781 C 30.999219 40.100781 24.199609 43.800781 23.099609 44.300781 C 22.643451 44.549595 22.423015 44.914686 22.392578 45.240234 C 28.651282 44.742969 34.49185 41.971333 39.5 40.199219 C 41.663842 39.450197 45.689572 38.985333 47.673828 40.058594 C 54.641318 36.068794 65.090522 30.00677 66.5 29 C 71.2 25.7 76.200391 24.299219 80.900391 27.199219 C 83.200391 28.599219 85.700781 30.499609 89.800781 30.599609 C 96.500781 30.699609 96.000391 35.199609 100.40039 36.599609 C 104.40039 37.799609 109.29961 38.500781 111.09961 43.800781 C 112.09961 46.600781 113.10078 51.699609 113.80078 63.099609 L 114.84766 63.099609 C 114.53693 59.563086 114.04242 53.773328 113.90039 52.400391 C 113.70039 49.500391 114.10039 48.6 113.40039 45 C 111.90039 36.7 105.8 36.000781 103.5 35.300781 C 101.2 34.600781 99.400391 33.699219 97.400391 31.699219 C 95.500391 29.699219 92.300391 28.400781 89.400391 28.300781 C 88.300391 28.200781 86.100391 28.099609 83.400391 26.099609 C 77.000391 21.199609 69.199219 24.900391 69.199219 24.900391 C 69.199219 24.900391 57.4 20.3 56.5 20 C 55.7125 19.7375 54.082617 19.169531 52.347656 19.232422 z M 45.886719 46.376953 C 44.574219 46.456641 43.150781 47.225391 43.300781 49.400391 C 43.352386 50.12286 43.438337 51.021537 43.519531 51.890625 C 43.931126 53.558383 45.103969 59.313111 45.5 60.699219 C 45.9 62.499219 46.600781 64.3 47.300781 65.5 C 47.110014 65.408764 46.977672 65.331226 46.804688 65.244141 C 47.599214 66.755775 48.439521 68.115417 50.099609 68.599609 C 52.499609 69.299609 57.700391 68.799219 59.400391 69.699219 C 61.100391 70.699219 65.899219 77.500391 70.699219 77.900391 C 75.499219 78.300391 79.800391 76.799609 81.900391 75.599609 C 84.000391 74.399609 86.6 75.200391 87.5 75.400391 C 88.3 75.400391 88 74.199219 88 74.199219 C 87 73.599219 86.199219 72.800781 86.199219 70.800781 C 86.199219 68.800781 86.299219 63.199219 86.199219 61.699219 C 86.099219 60.099219 85.999609 58.399609 84.099609 57.599609 C 82.199609 56.799609 81.100781 56.399219 80.300781 56.199219 C 79.500781 55.999219 77.600781 55.700781 77.300781 57.800781 C 77.000781 59.900781 74.699609 59.100391 74.599609 57.900391 C 74.399609 56.600391 73.900781 53.800781 70.800781 52.800781 C 67.700781 51.800781 66.100391 51.4 64.900391 51 C 63.600391 50.6 59.800781 50.500391 59.800781 53.900391 C 59.800781 57.000391 57.299219 55.499609 57.199219 54.099609 C 57.099219 52.699609 56.4 49.4 54 48.5 C 50.9 47.4 48.499609 46.8 47.099609 46.5 C 46.749609 46.4 46.324219 46.350391 45.886719 46.376953 z M 18.701172 51.042969 C 17.193359 51.099219 16.099609 51.3 15.599609 51.5 C 10.499609 53.5 10.299219 60.200781 13.199219 63.300781 C 13.422469 63.539978 13.889688 63.955741 14.292969 64.326172 C 15.021528 63.72084 15.599609 63.099609 15.599609 63.099609 C 13.699609 61.099609 13.100781 56.899219 15.300781 55.699219 C 19.300781 59.099219 32.099609 58.900781 36.599609 57.800781 C 36.98773 57.705907 37.303257 57.593248 37.587891 57.474609 C 30.706187 51.923306 23.012839 50.882119 18.701172 51.042969 z M 101.00781 57.257812 C 100.56133 57.247266 100.12539 57.3875 99.900391 57.5 C 99.300391 57.8 98.900391 58.099609 97.900391 59.099609 C 97.900391 59.099609 94.5 62.199219 96.5 63.199219 C 98.5 64.199219 98.300391 67.299609 98.400391 70.099609 C 101.40039 71.199609 101.90039 68.599609 101.90039 67.599609 C 101.90039 66.599609 102.20039 62.000391 102.40039 59.400391 C 102.52539 57.712891 101.75195 57.275391 101.00781 57.257812 z " />
			
		
	</g>
</g>
<g
   id="g12">
	<g
   id="g11">
		<defs
   id="defs7">
			<path
   id="SVGID_00000142149535480127109190000014965850731012666527_"
   d="M47.3,65.5c-0.7-1.2-1.4-3-1.8-4.8     c-0.4-1.4-1.6-7.3-2-8.9c-0.4-1.7-1.3-7,5.1-10.9c-1.2-2.1-6.5-1.6-9.1-0.7C33,42.5,25.1,46.5,16.7,45c-4.5-0.8-8.2-5.8-3.5-10.3     c2.3-2.2,6.1-3.6,9.8-5.5c4-2,7-3.9,10.7-5.2c4.1-1.4,9.6-3.4,17.9-4.7c2-0.3,4,0.4,4.9,0.7c0.9,0.3,12.7,4.9,12.7,4.9     s7.8-3.7,14.2,1.2c2.7,2,4.9,2.1,6,2.2c2.9,0.1,6.1,1.4,8,3.4c2,2,3.8,2.9,6.1,3.6c2.3,0.7,8.4,1.4,9.9,9.7     c0.7,3.6,0.3,4.5,0.5,7.4c0.3,2.9,1,11.1,2,22.6c0.2,1.9,0.5,4.3,1.7,6.9s2.7,5.6,3.2,6.4s0.6,2.1-0.3,3.2     c-4.5,6.4-20.7,20.8-31.6,23.5c-1.7,0.4-2.5-0.7-2.9-1.1c-0.5-0.4-2.4-3-6.8-4.5c-8.3-0.8-22.1-2.1-35.6-18     c-3.9-4.6-7.4-12.2-15.2-17c-8.9-5.4-13.8-9.6-15.2-11.1c-2.9-3.1-2.7-9.8,2.4-11.8c2-0.8,13.5-1.6,23,6.8     C43.5,62.4,42.7,63.3,47.3,65.5z" />
		</defs>
		
		<path
   id="path10"
   style="fill:#b55e19"
   d="M 66.310547 26.714844 C 66.146094 26.740625 65.975781 26.800391 65.800781 26.900391 C 64.700781 27.500391 51.899219 35.399219 49.199219 37.199219 C 36.799219 35.299219 33.400781 42.2 21.300781 43.5 C 19.800781 43.7 18.700391 43.499219 17.900391 43.199219 C 17.129567 43.006513 15.43776 42.740107 14.509766 44.240234 C 15.192858 44.597553 15.931936 44.863594 16.699219 45 C 25.099219 46.5 33 42.499219 39.5 40.199219 C 42.1 39.299219 47.399609 38.800391 48.599609 40.900391 C 48.547127 40.932372 48.50463 40.96588 48.453125 40.998047 C 48.507636 40.971665 48.659761 40.923234 48.699219 40.900391 C 49.999219 40.200391 66.399219 29.199219 67.199219 28.699219 C 68.249219 27.999219 67.461719 26.534375 66.310547 26.714844 z M 83.3125 30.267578 C 83.176758 30.282617 83.037891 30.325391 82.900391 30.400391 C 78.300391 32.500391 66.800781 39.100391 60.300781 44.400391 C 58.900781 45.500391 56.9 47.699609 57 51.599609 C 57.1 55.199609 57.200391 61.400391 57.400391 63.900391 C 57.500391 65.300391 56.8 66.499219 56 66.699219 C 54.5 66.999219 52.200391 66.9 50.400391 66 C 48.89417 65.24689 46.87716 62.958606 45.076172 58.84375 C 45.217678 59.461386 45.415181 60.402353 45.5 60.699219 C 45.9 62.499219 46.600781 64.3 47.300781 65.5 C 42.700781 63.3 43.499609 62.400781 38.599609 58.300781 C 29.099609 49.900781 17.599609 50.7 15.599609 51.5 C 15.305203 51.615454 15.031627 51.74935 14.769531 51.894531 C 15.376913 52.714559 16.404421 53.599609 19.099609 53.599609 C 24.399609 53.599609 33.399609 54.799609 40.099609 63.599609 C 43.099609 67.599609 48.299219 70.3 52.699219 70.5 C 57.199219 70.8 59.900781 70.299219 62.300781 73.699219 C 67.000781 80.299219 74.299609 80.699609 81.599609 76.599609 C 81.999609 76.399609 82.400391 76.300781 82.900391 76.300781 C 86.700391 76.500781 98.899219 76.599219 99.699219 68.699219 C 99.899219 66.499219 99.799609 64.8 98.099609 63 C 97.799609 62.6 97.799219 62.099219 98.199219 61.699219 C 98.899219 60.999219 99.500781 60.499609 99.800781 60.099609 C 100.20078 59.499609 100.2 57.500781 98 58.300781 C 96.8 58.700781 93.699609 60.3 91.599609 59 C 91.199609 58.8 90.699219 58.599219 90.699219 59.199219 C 90.699219 59.799219 90.599609 61.000781 90.599609 61.300781 C 90.599609 61.600781 90.399219 62.100781 91.199219 62.300781 C 92.899219 62.800781 97.399219 63.699609 97.199219 68.099609 C 96.999219 71.599609 94.2 73.099609 84.5 73.099609 C 83.3 73.099609 82.000391 72.900781 80.900391 71.800781 C 80.300391 71.200781 79.300391 70.300391 78.900391 69.900391 C 78.500391 69.500391 77.900781 68.599609 77.800781 67.099609 C 77.700781 65.599609 77.5 59.200781 77.5 57.800781 C 77.4 55.800781 77.799609 54.000781 79.099609 52.800781 C 84.899609 47.100781 89.800391 44.500391 95.900391 40.900391 C 97.600391 39.900391 96.300391 37.900781 94.400391 38.800781 C 92.000391 40.000781 83.000391 44.499609 76.400391 51.099609 C 74.900391 52.599609 74.400781 54.400391 74.300781 55.900391 C 74.100781 57.300391 74.400391 65.800781 74.400391 66.800781 C 74.400391 67.800781 74.900781 69.999609 76.300781 71.599609 C 77.000781 72.399609 77.500391 72.8 77.900391 73 C 78.800391 73.6 79.1 74.799219 78 75.199219 C 76.1 75.999219 70.199609 78 65.099609 73.5 C 63.299609 72 62.199219 69.700391 61.699219 67.400391 C 61.199219 65.100391 60.299609 58.5 60.099609 52.5 C 59.999609 50.3 60.800781 47.899219 62.300781 46.699219 C 69.700781 40.599219 80.5 34.1 84 32 C 85.05 31.3875 84.262695 30.162305 83.3125 30.267578 z M 113.78516 47.988281 C 113.18277 48.519 112.69922 49.465897 112.69922 51.900391 C 112.69922 55.900391 113.70039 72.7 113.90039 74.5 C 114.10039 76.3 114.39922 79.899219 115.69922 82.699219 C 116.597 84.794049 118.86576 89.294317 120.19141 91.908203 C 120.28942 91.775528 120.41101 91.626569 120.5 91.5 C 121.4 90.4 121.30078 89.100781 120.80078 88.300781 C 120.30078 87.500781 118.79961 84.500391 117.59961 81.900391 C 116.39961 79.300391 116.10039 76.9 115.90039 75 C 114.90039 63.5 114.20039 55.300391 113.90039 52.400391 C 113.77165 50.5336 113.87011 49.451257 113.78516 47.988281 z M 11.332031 58.283203 C 11.363678 60.178435 12.018656 62.038801 13.199219 63.300781 C 14.599219 64.800781 19.500391 69.000391 28.400391 74.400391 C 36.200391 79.200391 39.699609 86.800391 43.599609 91.400391 C 57.099609 107.30039 70.899219 108.60039 79.199219 109.40039 C 81.282696 110.11067 82.789969 111.06478 83.869141 111.91797 C 85.477736 112.00927 87.033491 112.05703 87.699219 111.90039 C 89.399219 111.50039 89.799219 109.60078 88.699219 108.30078 C 87.399219 106.80078 85.099609 106.7 74.599609 106 C 56.599609 104.8 47.500391 97 40.900391 84.5 C 38.800391 80.4 36.299219 76.6 33.199219 74.5 C 21.699219 66.3 15.199609 63.4 13.599609 60 C 13.108432 58.87731 12.270674 58.402148 11.332031 58.283203 z " />
			
		
	</g>
</g>
</svg>
