<?xml version="1.0" encoding="UTF-8" standalone="no"?>
<!-- Generator: Adobe Illustrator 26.3.1, SVG Export Plug-In . SVG Version: 6.00 Build 0)  -->

<svg
   version="1.1"
   id="Layer_2_00000054252161435012103740000001089164808707664553_"
   x="0px"
   y="0px"
   viewBox="0 0 128 128"
   style="enable-background:new 0 0 128 128;"
   xml:space="preserve"
   sodipodi:docname="emoji_u1faf3.svg"
   inkscape:version="1.4-beta3 (01c8a1c, 2024-08-28, custom)"
   xmlns:inkscape="http://www.inkscape.org/namespaces/inkscape"
   xmlns:sodipodi="http://sodipodi.sourceforge.net/DTD/sodipodi-0.dtd"
   xmlns="http://www.w3.org/2000/svg"
   xmlns:svg="http://www.w3.org/2000/svg"><defs
   id="defs12" /><sodipodi:namedview
   id="namedview12"
   pagecolor="#ffffff"
   bordercolor="#666666"
   borderopacity="1.0"
   inkscape:showpageshadow="2"
   inkscape:pageopacity="0.0"
   inkscape:pagecheckerboard="0"
   inkscape:deskcolor="#d1d1d1"
   inkscape:zoom="6.0703125"
   inkscape:cx="64"
   inkscape:cy="64"
   inkscape:window-width="1680"
   inkscape:window-height="998"
   inkscape:window-x="-8"
   inkscape:window-y="-8"
   inkscape:window-maximized="1"
   inkscape:current-layer="g6" />
<path
   style="fill:#FFCA28;"
   d="M88.4,30.4c3.7-2,3.5-7-0.6-6.4c-3.4,0.5-15.6,3.8-30.5,6.9c-1.4,0.3-2.8,0.7-5.6,0.8  c-2.8,0-37.5,0.2-38.6,0.2c-1.7,0-5.6,0.9-6.9,6.8c-1.3,5.6-3,20,0.3,22.8c3.4,2.8,3.6,4.4,5.3,6.1c5.9,6,12.4,10.1,14.5,11.9  s6.3,6.4,8.5,11c1.5,3.2,4.3,9,8.8,13c2.1,1.9,5.5,1.4,6.7,0.6c1.1-0.7,4.5-2.3,3.2-11c-1.1-7.6-8.5-14.9-8.4-20.3  c0.1-3.6,2.5-5.1,12-6.8c13.5-2.4,53.2-0.9,60.1-1.9c6.8-0.9,8.4-8.5,2-9.5c-1.6-0.2-32.6-4.2-32.6-4.2s23.7-2.2,25.3-2.5  c8.7-1.6,7.6-9.1,3.2-9.2c-4.9-0.1-16.9,0.1-16.9,0.1s4.8-1.2,6.8-2.2c4.7-2.3,4-7.7,0.1-7.5C101,29.1,88.4,30.4,88.4,30.4z"
   id="path1" />
<g
   id="g7">
	<g
   id="g6">
		<defs
   id="defs1" />
		
		<path
   id="path5"
   style="fill:#faa700"
   d="M 88.523438 23.951172 C 88.297656 23.947021 88.057031 23.9625 87.800781 24 C 84.400781 24.5 72.200781 27.800391 57.300781 30.900391 C 55.900781 31.200391 54.499219 31.599219 51.699219 31.699219 C 48.899219 31.699219 14.199609 31.900391 13.099609 31.900391 C 12.07881 31.900391 10.269215 32.248458 8.7011719 33.785156 C 13.1028 33.755894 50.966285 33.505126 53.800781 33.599609 C 56.500781 33.699609 59.700391 32.999609 62.900391 32.099609 C 63.900391 32.799609 65.100391 33.1 65.900391 33 C 66.800391 32.9 70.6 32.5 73 32.5 C 81.5 33.5 102.69961 30.2 105.09961 31 C 107.09961 31.6 106.09961 34.099609 105.09961 34.599609 L 107.17383 34.923828 C 109.28498 32.369394 108.22284 28.939444 105.09961 29.099609 C 100.99961 29.099609 88.400391 30.400391 88.400391 30.400391 C 91.869141 28.525391 91.910156 24.013428 88.523438 23.951172 z M 71.599609 36.199219 C 68.699609 36.199219 69.100781 39.599609 71.300781 39.599609 C 73.200781 39.599609 93.400391 38.199219 93.400391 38.199219 L 93 37.400391 C 93 37.400391 72.399609 36.199219 71.599609 36.199219 z M 110.39258 38.673828 C 108.1917 38.679515 106.20313 38.698722 104.10742 38.722656 C 104.27894 39.044795 104.63674 39.228129 105 39.300781 C 105.6 39.400781 111.30078 39.999609 114.30078 40.599609 C 118.10078 41.299609 116.00078 47.599219 109.80078 47.199219 C 108.20078 47.099219 77.299219 44.999219 75.199219 44.699219 C 72.799219 44.399219 72.299219 48 74.699219 48.5 C 75.130475 48.586251 88.235024 48.972104 91.779297 49.910156 C 98.116128 49.316434 110.64425 48.135916 111.90039 47.900391 C 120.60039 46.300391 119.49961 38.799219 115.09961 38.699219 C 113.87461 38.674219 112.20664 38.669141 110.39258 38.673828 z M 92.857422 51.207031 C 93.143935 51.700723 93.744681 51.829405 94.099609 51.900391 C 105.69961 54.000391 118.49922 56.299219 119.69922 56.699219 C 121.89922 57.299219 121.09922 60.300781 119.69922 61.300781 L 120.83203 62.703125 C 124.30143 60.215182 124.21767 55.383742 119.19922 54.599609 C 117.90636 54.438002 100.67595 52.215681 92.857422 51.207031 z M 4.6210938 52.162109 C 4.5422788 56.402578 4.9734401 60.204737 6.5 61.5 C 9.9 64.3 10.100781 65.899609 11.800781 67.599609 C 17.700781 73.599609 24.200781 77.7 26.300781 79.5 C 28.400781 81.3 32.600781 85.9 34.800781 90.5 C 36.300781 93.7 39.099609 99.5 43.599609 103.5 C 45.699609 105.4 49.100781 104.89961 50.300781 104.09961 C 51.400781 103.39961 54.8 101.79961 53.5 93.099609 C 53.257444 91.423765 52.699433 89.764282 51.992188 88.134766 C 51.046281 88.49516 50.462243 89.743012 51.199219 92 C 53.099219 98.1 50.700781 100.9 48.800781 101.5 C 44.900781 102.8 42.899609 100.3 36.599609 88.5 C 29.899609 76 20.999609 74.200781 14.099609 63.300781 C 11.976237 59.850301 8.6772284 54.916625 4.6210938 52.162109 z " />
			
		
	</g>
</g>
<g
   id="g12">
	<g
   id="g11">
		<defs
   id="defs7" />
		
		<path
   id="path10"
   style="fill:#b55e19"
   d="M 91.017578 26.716797 C 90.845419 26.741442 90.659239 26.820941 90.5 27.099609 C 89.9 28.299609 87.899219 28.999219 86.699219 29.199219 C 85.499219 29.499219 67.8 32 66 32.5 C 65.6 32.6 65.599219 33.299219 66.199219 33.199219 C 66.399219 33.199219 86.900391 30.600391 88.400391 30.400391 C 90.043001 29.512493 90.912274 28.034754 91.017578 26.716797 z M 108.22266 31.509766 C 107.94056 31.629802 107.69639 31.837756 107.5 32.099609 C 106.6 33.499609 105.5 34.199609 103 35.099609 C 100.7 35.899609 92.999219 37.699609 71.699219 39.099609 C 71.099219 39.099609 71.100781 39.900391 71.800781 39.900391 C 72.200781 39.900391 98.199219 38.699219 98.199219 38.699219 C 98.199219 38.699219 98.570837 38.662837 98.759766 38.646484 C 99.591781 38.433478 103.21156 37.493831 105 36.599609 C 107.55099 35.351252 108.5015 33.193517 108.22266 31.509766 z M 118.42188 41.886719 C 117.91996 41.932327 117.55591 42.158731 117.19922 42.800781 C 116.99922 43.200781 115.2 44.899609 111.5 45.599609 C 99.8 47.799609 75.7 47.9 75 48 C 74.3 48.1 74.5 48.800781 75 48.800781 C 75.5 48.800781 86.599609 50.300781 86.599609 50.300781 L 86.599609 50.199219 L 88.728516 50.199219 C 92.219779 49.874058 110.44172 48.173891 111.90039 47.900391 C 116.85349 46.989476 118.62221 44.16805 118.42188 41.886719 z M 123.02148 57.464844 C 122.70215 57.488281 122.38672 57.625 122.19922 58 C 121.09922 60.1 117.60078 62.000391 114.80078 61.900391 C 92.500781 61.000391 68.400391 61.899609 55.900391 63.099609 C 39.000391 64.799609 41.500391 73.8 43.400391 77 C 44.800391 79.4 48.200781 85.5 50.800781 91.5 C 53.400781 97.5 52.200391 100.19922 51.900391 101.19922 C 51.613762 101.91579 51.794769 102.32173 52.064453 102.67969 C 53.244061 101.29957 54.329796 98.652858 53.5 93.099609 C 52.4 85.499609 44.999609 78.200781 45.099609 72.800781 C 45.199609 69.200781 47.599609 67.7 57.099609 66 C 70.599609 63.6 110.29922 65.099609 117.19922 64.099609 C 121.64437 63.511281 123.84755 60.06602 123.06641 57.466797 C 123.05128 57.467416 123.0366 57.463734 123.02148 57.464844 z " />
			
		
	</g>
</g>
</svg>
