<?xml version="1.0" encoding="UTF-8" standalone="no"?>
<!-- Generator: Adobe Illustrator 26.3.1, SVG Export Plug-In . SVG Version: 6.00 Build 0)  -->

<svg
   version="1.1"
   id="Layer_2_copy"
   x="0px"
   y="0px"
   viewBox="0 0 128 128"
   style="enable-background:new 0 0 128 128;"
   xml:space="preserve"
   sodipodi:docname="emoji_u261d.svg"
   inkscape:version="1.4-beta3 (01c8a1c, 2024-08-28, custom)"
   xmlns:inkscape="http://www.inkscape.org/namespaces/inkscape"
   xmlns:sodipodi="http://sodipodi.sourceforge.net/DTD/sodipodi-0.dtd"
   xmlns="http://www.w3.org/2000/svg"
   xmlns:svg="http://www.w3.org/2000/svg"><defs
   id="defs7" /><sodipodi:namedview
   id="namedview7"
   pagecolor="#ffffff"
   bordercolor="#666666"
   borderopacity="1.0"
   inkscape:showpageshadow="2"
   inkscape:pageopacity="0.0"
   inkscape:pagecheckerboard="0"
   inkscape:deskcolor="#d1d1d1"
   inkscape:zoom="6.0703125"
   inkscape:cx="64"
   inkscape:cy="64"
   inkscape:window-width="1680"
   inkscape:window-height="998"
   inkscape:window-x="-8"
   inkscape:window-y="-8"
   inkscape:window-maximized="1"
   inkscape:current-layer="g2" />
<path
   style="fill:#FFCA28;"
   d="M94,75.7c3,3.4,5.8,8.8,4.1,16.8c-0.7,3.3-6.7,21.7-20.2,27.7c-15.1,6.8-41.8,6.2-50-24  c-4-14.5-2.2-18.3-2.1-30.9c0-9,7.8-14.8,15.3-8.2c-0.8-5,1.7-9.5,5.9-10.8c3.8-1.2,7.3-0.8,10.3,4.3c0.3-6.2,3.7-8.6,7.3-9.3  c5.2-1.1,9,1.4,11.1,9.8c0.4-8.1,1.7-35.6,2-39.5c0.8-9.8,12.8-9,13.9-0.1C93.6,29.9,93,64.1,94,75.7z"
   id="path1" />
<g
   id="g4">
	<g
   id="g3">
		<g
   id="g2">
			<defs
   id="defs1" />
			
			<path
   id="path2"
   style="fill:#FAA700"
   d="M 84.537109 4.5371094 C 81.299609 4.4496094 78.099219 6.6996094 77.699219 11.599609 C 77.399219 15.499609 76.099219 42.999609 75.699219 51.099609 C 75.2916 49.469135 74.818681 48.067948 74.285156 46.865234 C 74.347225 49.217061 74.400391 52.19884 74.400391 55.5 C 71.900391 62.8 62.4 62.700781 60.5 60.300781 C 59.6 58.100781 58.900781 56.300781 58.800781 54.300781 C 58.200781 43.800781 67.000391 40.6 71.900391 45.5 C 72.084948 45.684558 72.282859 44.932531 72.410156 43.755859 C 70.358305 41.295984 67.735674 40.637383 64.599609 41.300781 C 60.999609 42.000781 57.600781 44.399609 57.300781 50.599609 C 54.300781 45.499609 50.8 45.100781 47 46.300781 C 42.8 47.600781 40.299609 52.099609 41.099609 57.099609 C 33.599609 50.499609 25.800781 56.300781 25.800781 65.300781 C 25.700781 77.900781 23.900391 81.699219 27.900391 96.199219 C 33.500854 116.82531 47.729806 123.64064 61 123.72461 L 61 122.69922 C 40.8 120.19922 32.900391 106.69922 29.900391 95.199219 C 26.300391 81.299219 27.599219 81.8 27.699219 73.5 C 27.699219 70.4 27.599219 65.300781 28.699219 61.300781 C 29.599219 58.300781 35.000781 54.000781 39.800781 58.800781 C 40.700781 59.600781 43.699609 61.899609 43.599609 61.599609 C 40.199609 49.299609 51.000781 44.500391 55.800781 50.400391 C 57.100781 54.300391 58.1 57.8 59 60.5 C 58.8 65.7 50.999219 68.599219 46.199219 66.199219 C 45.199219 65.599219 44.999609 66.600781 45.099609 68.300781 C 45.199609 70.900781 43.499219 71.899219 41.699219 72.699219 C 38.599219 74.099219 34.3 73.299609 32 69.599609 C 31.3 67.799609 30.199219 67.599609 30.199219 69.099609 C 29.699219 91.099609 50.199219 88.200781 58.199219 101.30078 C 58.999219 96.300781 63.600391 85.300781 67.400391 84.300781 C 69.300391 83.900781 70.1 83.999219 71 85.199219 C 71.8 86.399219 78.799219 90.699609 80.199219 91.099609 C 85.299219 92.499609 87.000781 88.399609 85.800781 86.599609 C 84.800781 85.099609 77.899219 77.7 77.199219 77 C 76.499219 76.3 73.799609 73.5 70.099609 75.5 C 67.799609 76.7 61.499609 79.900391 55.599609 80.400391 C 54.699609 80.500391 54.4 81.399609 55.5 82.099609 C 56.6 82.699609 55.999609 83.799609 55.599609 83.599609 C 47.099609 81.299609 47.899219 73.699609 51.699219 70.599609 C 53.999219 68.699609 62.199609 66.700391 69.099609 63.900391 C 72.399609 62.500391 76.8 63.700781 77.5 63.800781 C 77.6 61.900781 80.3 14.299609 80.5 11.599609 C 80.9 6.4996094 86.8 4.7 89 9 C 89.477182 9.9066449 90.179276 9.4116091 90.720703 8.5507812 C 89.416301 5.9849001 86.966419 4.6027664 84.537109 4.5371094 z " />
				
			
		</g>
	</g>
</g>
<g
   id="g7">
	<g
   id="g6">
		<g
   id="g5">
			<defs
   id="defs4" />
			
			<path
   id="path4"
   clip-path="none"
   style="fill:#B55E19"
   d="M 86.384766 4.8730469 C 88.242114 6.6071482 89.721225 8.8883465 89.800781 13.900391 C 89.900781 26.400391 90.599609 62.000391 90.599609 72.900391 C 88.199609 70.800391 84.300391 68.000781 79.900391 64.300781 C 78.800391 63.400781 77.7 62.700781 76.5 62.300781 C 76.5 60.900781 76.399219 54.599609 75.699219 51.099609 C 73.912088 43.951088 70.890771 41.086617 66.826172 41.066406 C 73.02096 44.730925 73.61301 56.579275 74 61.900391 C 70.1 61.500391 65.999219 63.100391 62.199219 64.900391 C 60.799219 57.400391 59.000781 53.699609 57.300781 50.599609 C 54.873062 46.472487 52.113318 45.450124 49.136719 45.835938 C 54.785863 48.659206 58.745469 58.926277 59.5 66 C 57.8 66.7 55.500781 67.400391 52.800781 68.400391 C 50.900781 69.100391 49.600781 70.299609 48.800781 71.599609 C 47.300781 66.299609 43.999609 59.699609 41.099609 57.099609 C 38.804556 55.079962 36.48437 54.232473 34.365234 54.271484 C 38.843323 56.533717 46.144194 66.049362 47.199219 76.599609 C 47.499219 80.099609 44 84.300391 39 80.400391 C 36.6 78.500391 34.099219 74.100391 31.699219 68.400391 C 31.299219 67.500391 30.699219 67.300391 30.699219 68.400391 C 30.699219 69.500391 31.199219 71.400391 31.699219 72.900391 C 30.999219 72.700391 30.200781 72.299609 29.300781 71.599609 C 28.500781 70.899609 28.099609 71.499219 28.599609 72.199219 C 30.799609 75.299219 32.800391 75.3 32.900391 75.5 C 37.600391 85.9 45.700781 86.799219 48.800781 80.199219 C 51.500781 84.799219 56.599219 85.700391 62.699219 85.400391 C 61.199219 87.400391 55.8 100.30078 58.5 105.30078 C 58.9 106.00078 59.199219 105.49922 59.199219 105.19922 C 59.699219 92.799219 66.8 85.199219 67.5 84.699219 C 68 84.299219 68.700391 84.300781 68.900391 84.800781 C 70.100391 87.300781 78.3 93.899219 82.5 90.199219 C 83.1 89.699219 82.6 89.199219 82 89.199219 C 81.7 89.199219 79.200781 89.599219 76.300781 87.699219 C 74.700781 86.599219 72.999219 84.9 71.199219 83 C 71.199219 83 73.699219 81.499219 74.199219 79.199219 C 74.399219 78.499219 73.600781 78.299609 73.300781 78.599609 C 70.100781 82.099609 62.400781 83.000781 55.300781 81.800781 C 50.600781 81.000781 49.400781 72.899219 53.300781 71.199219 C 55.500781 70.199219 66.499219 66.299219 69.199219 65.199219 C 71.899219 64.099219 75.199609 64.099219 77.099609 65.699219 C 80.599609 68.499219 91.200391 76.700391 93.900391 81.400391 C 96.600391 86.100391 96.099219 94.200781 91.199219 102.80078 C 88.299219 107.70078 84.5 113.10078 77.5 117.30078 C 67.17583 122.56214 54.383416 122.59094 38.544922 115.15625 C 50.206625 126.15136 67.049155 125.08587 77.900391 120.19922 C 91.400391 114.19922 97.399609 95.8 98.099609 92.5 C 99.799609 84.5 97 79.099219 94 75.699219 C 93 64.099219 93.599609 29.9 91.599609 11.5 C 91.155417 7.9060812 88.928525 5.6607215 86.384766 4.8730469 z " />
				
			
		</g>
	</g>
</g>
</svg>
