<?xml version="1.0" encoding="UTF-8" standalone="no"?>
<!-- Generator: Adobe Illustrator 26.3.1, SVG Export Plug-In . SVG Version: 6.00 Build 0)  -->

<svg
   version="1.1"
   id="Layer_2_00000008135492125453554550000002290502765984859545_"
   x="0px"
   y="0px"
   viewBox="0 0 128 128"
   style="enable-background:new 0 0 128 128;"
   xml:space="preserve"
   sodipodi:docname="emoji_u1f595.svg"
   inkscape:version="1.4-beta3 (01c8a1c, 2024-08-28, custom)"
   xmlns:inkscape="http://www.inkscape.org/namespaces/inkscape"
   xmlns:sodipodi="http://sodipodi.sourceforge.net/DTD/sodipodi-0.dtd"
   xmlns="http://www.w3.org/2000/svg"
   xmlns:svg="http://www.w3.org/2000/svg"><defs
   id="defs11">
			
			
			
			
			
		
			
			
		</defs><sodipodi:namedview
   id="namedview11"
   pagecolor="#ffffff"
   bordercolor="#666666"
   borderopacity="1.0"
   inkscape:showpageshadow="2"
   inkscape:pageopacity="0.0"
   inkscape:pagecheckerboard="0"
   inkscape:deskcolor="#d1d1d1"
   inkscape:zoom="6.0703125"
   inkscape:cx="64"
   inkscape:cy="64"
   inkscape:window-width="1680"
   inkscape:window-height="998"
   inkscape:window-x="-8"
   inkscape:window-y="-8"
   inkscape:window-maximized="1"
   inkscape:current-layer="g4" />
<path
   style="fill:#FFCA28;"
   d="M36.6,59.5c-2.2,0.9-5.4,2.4-8.1,5.2s-1.7,9.4-1.4,11.1c1,5.5,1.1,12.5,3,15.5  c3.1,5,10.2,10.8,13.6,14.5c0.7,0.7,1.5,1.2,1.7,3.4c0.2,2.2,0.6,7.2,0.8,8.1c0.1,0.9,0.5,2.6,2.1,3c10.1,2.3,35.6,0.6,39.4-0.3  c1-0.2,1.6-0.8,1.6-1.9c0-1.7,0.2-6.2,0.2-7.5c0-1.2,0.7-3.7,2-5.1c3.6-3.9,7.4-12.6,8.6-16.3s2.3-6.7,1.4-13.6  c-1.3-10-2.7-22.3-5.3-26.8c-3.2-5.4-9.7-2.8-10.8,0.8c-0.6-8.9-10.7-11.4-14.6-4.7C70.2,34,70.2,14.3,68.5,10  c-2.1-5.3-9.6-5.8-12.3,0.8c-0.8,1.9-1.4,19.3-2,33.9c-1.1-5-10.4-6.1-13.4,0C39.6,47.2,38.2,51.8,36.6,59.5z"
   id="path1" />
<g
   id="g5">
	<g
   id="g4">
		<defs
   id="defs1">
			<path
   id="SVGID_1_"
   d="M36.6,59.5c-2.2,0.9-5.4,2.4-8.1,5.2s-1.7,9.4-1.4,11.1c1,5.5,1.1,12.5,3,15.5c3.1,5,10.2,10.8,13.6,14.5     c0.7,0.7,1.5,1.2,1.7,3.4c0.2,2.2,0.6,7.2,0.8,8.1c0.1,0.9,0.5,2.6,2.1,3c10.1,2.3,35.6,0.6,39.4-0.3c1-0.2,1.6-0.8,1.6-1.9     c0-1.7,0.2-6.2,0.2-7.5c0-1.2,0.7-3.7,2-5.1c3.6-3.9,7.4-12.6,8.6-16.3s2.3-6.7,1.4-13.6c-1.3-10-2.7-22.3-5.3-26.8     c-3.2-5.4-9.7-2.8-10.8,0.8c-0.6-8.9-10.7-11.4-14.6-4.7C70.2,34,70.2,14.3,68.5,10c-2.1-5.3-9.6-5.8-12.3,0.8     c-0.8,1.9-1.4,19.3-2,33.9c-1.1-5-10.4-6.1-13.4,0C39.6,47.2,38.2,51.8,36.6,59.5z" />
		</defs>
		
		<path
   id="path3"
   style="fill:#faa700"
   d="M 62.574219 5.9375 C 60.099219 5.975 57.549219 7.5007812 56.199219 10.800781 C 55.399219 12.700781 54.799219 30.099219 54.199219 44.699219 C 53.099219 39.699219 43.800781 38.599219 40.800781 44.699219 C 39.600781 47.199219 38.199609 51.8 36.599609 59.5 C 34.399609 60.4 31.2 61.899219 28.5 64.699219 C 25.8 67.499219 26.799609 74.100781 27.099609 75.800781 C 28.099609 81.300781 28.199609 88.300781 30.099609 91.300781 C 33.199609 96.300781 40.299219 102.10078 43.699219 105.80078 C 44.399219 106.50078 45.200391 106.99922 45.400391 109.19922 C 45.600391 111.39922 45.999219 116.40078 46.199219 117.30078 C 46.299219 118.20078 46.700781 119.90078 48.300781 120.30078 C 58.400781 122.60078 83.899219 120.9 87.699219 120 C 88.699219 119.8 89.300781 119.19961 89.300781 118.09961 C 89.300781 116.39961 89.5 111.89961 89.5 110.59961 C 89.5 109.39961 90.2 106.9 91.5 105.5 C 95.1 101.6 98.899609 92.899219 100.09961 89.199219 C 101.06109 86.234666 101.94109 83.685785 101.79688 79.253906 C 100.97788 79.266406 100.1149 79.692301 99.699219 80.800781 C 98.799219 83.200781 96.000781 84.800391 93.300781 84.900391 C 90.600781 84.900391 89.800391 83.100781 86.400391 83.300781 C 83.100391 83.500781 82.300391 86 77.900391 86 C 74.600391 86 72.700391 83.299219 68.400391 83.199219 C 64.200391 83.099219 63.300391 85.699609 58.400391 85.599609 C 54.300391 85.499609 53.900391 82.300781 49.900391 81.800781 C 46.600391 81.400781 44.999609 83.199609 42.099609 83.099609 C 39.199609 82.999609 37.099219 80.600781 37.199219 78.800781 C 38.099219 60.400781 41.199219 50.000391 42.199219 46.900391 C 43.799219 41.700391 51.199609 42.599219 51.599609 45.699219 C 51.799609 47.299219 52.399219 51.5 52.699219 58.5 C 56.199219 57.3 55.999609 54.9 56.099609 53.5 C 57.299609 27.6 57.500781 14.700781 58.300781 11.800781 C 59.700781 6.8007813 66.099219 7.8003906 66.699219 10.900391 L 69.212891 13.492188 C 69.011823 12.006436 68.786786 10.7254 68.5 10 C 67.45 7.35 65.049219 5.9 62.574219 5.9375 z M 70.619141 40.322266 C 67.765023 43.602388 68 50.012401 68 51.099609 C 68 52.299609 69.800781 53 70.300781 51 C 73.200781 40.3 82.000391 43.400391 82.900391 48.900391 C 83.100391 50.400391 83.700391 53.2 83.900391 55 C 84.100391 56.8 85.499219 57.1 85.699219 55 C 86.699219 46.5 94.399609 45.9 96.599609 53.5 C 96.599609 53.5 97.285582 53.843028 98.03125 53.861328 C 97.490061 51.759514 96.888649 49.994026 96.199219 48.800781 C 92.999219 43.400781 86.500391 45.999609 85.400391 49.599609 C 84.800391 40.699609 74.700781 38.200391 70.800781 44.900391 C 70.728092 43.579862 70.678307 41.858081 70.619141 40.322266 z " />
			
		
	</g>
</g>
<g
   id="g11">
	<g
   id="g10">
		<defs
   id="defs5">
			<path
   id="SVGID_00000057139159277096308190000000180097271184364425_"
   d="M36.6,59.5c-2.2,0.9-5.4,2.4-8.1,5.2s-1.7,9.4-1.4,11.1     c1,5.5,1.1,12.5,3,15.5c3.1,5,10.2,10.8,13.6,14.5c0.7,0.7,1.5,1.2,1.7,3.4c0.2,2.2,0.6,7.2,0.8,8.1c0.1,0.9,0.5,2.6,2.1,3     c10.1,2.3,35.6,0.6,39.4-0.3c1-0.2,1.6-0.8,1.6-1.9c0-1.7,0.2-6.2,0.2-7.5c0-1.2,0.7-3.7,2-5.1c3.6-3.9,7.4-12.6,8.6-16.3     s2.3-6.7,1.4-13.6c-1.3-10-2.7-22.3-5.3-26.8c-3.2-5.4-9.7-2.8-10.8,0.8c-0.6-8.9-10.7-11.4-14.6-4.7C70.2,34,70.2,14.3,68.5,10     c-2.1-5.3-9.6-5.8-12.3,0.8c-0.8,1.9-1.4,19.3-2,33.9c-1.1-5-10.4-6.1-13.4,0C39.6,47.2,38.2,51.8,36.6,59.5z" />
		</defs>
		
		<path
   id="path9"
   style="fill:#b55e19"
   d="M 64.335938 6.1699219 C 64.25105 6.4983962 64.25841 6.8294003 64.599609 7 C 65.599609 7.7 66.4 9.4992188 66.5 12.199219 C 66.6 14.999219 67.300391 60.4 67.400391 61.5 C 67.500391 63.7 70.900391 63.7 70.900391 61.5 C 70.900391 59.4 70.800781 47 70.800781 45 C 70.800781 44.983132 70.810039 44.904766 70.810547 44.884766 C 70.807335 44.890256 70.803984 44.894888 70.800781 44.900391 C 70.200781 34.000391 70.2 14.3 68.5 10 C 67.703632 7.9901186 66.129186 6.6737942 64.335938 6.1699219 z M 50.617188 41.029297 C 51.030356 41.85508 51.300781 43.01849 51.300781 45.199219 C 51.300781 48.099219 50.400781 61.100781 50.300781 61.800781 C 50.100781 64.000781 53.100781 64.400781 53.300781 61.800781 C 53.500781 59.200781 54.399219 46.700781 54.199219 44.800781 C 54.192618 44.738073 54.175177 44.664806 54.166016 44.599609 C 53.747489 42.894496 52.366936 41.666394 50.617188 41.029297 z M 80.904297 42.072266 C 81.519862 42.83766 81.940424 43.726515 82.099609 45 C 82.499609 48.1 83.399609 60.600781 83.599609 62.300781 C 83.699609 64.000781 86.500781 64.1 86.300781 62 C 86.100781 59.9 85.500781 52.099609 85.300781 49.599609 C 85.260551 49.096728 85.232985 48.645342 85.199219 48.15625 C 84.62074 45.251992 82.954799 43.191151 80.904297 42.072266 z M 94.332031 46.730469 C 95.118002 48.437143 96.143715 51.734418 96.599609 55.199219 C 96.999609 58.199219 98.599609 75.799219 98.599609 80.199219 C 98.599609 82.499219 98.500781 84.300781 97.800781 86.300781 C 97.100781 88.300781 93.800391 97.6 88.900391 104 C 87.500391 105.8 86.599219 107.30078 86.699219 109.80078 C 86.799219 112.20078 86.599219 115.29922 86.699219 116.69922 C 86.789052 118.04672 88.087512 119.85264 89.148438 118.90625 C 89.240374 118.67245 89.300781 118.41154 89.300781 118.09961 C 89.300781 116.39961 89.5 111.89961 89.5 110.59961 C 89.5 109.39961 90.2 106.9 91.5 105.5 C 95.1 101.6 98.899609 92.899219 100.09961 89.199219 C 101.29961 85.499219 102.4 82.499609 101.5 75.599609 C 100.2 65.599609 98.799219 53.300781 96.199219 48.800781 C 95.658255 47.887905 95.01958 47.219911 94.332031 46.730469 z M 36.599609 59.5 C 36.047538 59.725848 35.431656 59.990259 34.777344 60.302734 C 32.422095 63.126315 31.925892 67.150366 32.199219 68.699219 C 32.699219 71.899219 35.699219 70.5 35.699219 69 C 35.699219 68.1 36.399609 61.4 36.599609 59.5 z " />
			
		
	</g>
</g>
</svg>
