<?xml version="1.0" encoding="UTF-8" standalone="no"?>
<svg
   viewBox="0 0 36 36"
   version="1.1"
   id="svg11"
   sodipodi:docname="1f1f0-1f1ee.svg"
   inkscape:version="1.4 (86a8ad7, 2024-10-11)"
   xmlns:inkscape="http://www.inkscape.org/namespaces/inkscape"
   xmlns:sodipodi="http://sodipodi.sourceforge.net/DTD/sodipodi-0.dtd"
   xmlns="http://www.w3.org/2000/svg"
   xmlns:svg="http://www.w3.org/2000/svg">
  <defs
     id="defs11" />
  <sodipodi:namedview
     id="namedview11"
     pagecolor="#ffffff"
     bordercolor="#666666"
     borderopacity="1.0"
     inkscape:showpageshadow="2"
     inkscape:pageopacity="0.0"
     inkscape:pagecheckerboard="0"
     inkscape:deskcolor="#d1d1d1"
     inkscape:zoom="16"
     inkscape:cx="13.65625"
     inkscape:cy="28.09375"
     inkscape:window-width="1680"
     inkscape:window-height="998"
     inkscape:window-x="-8"
     inkscape:window-y="-8"
     inkscape:window-maximized="1"
     inkscape:current-layer="svg11" />
  <path
     fill="#ce1126"
     d="M 32,5 H 4 C 1.791,5 0,6.791 0,9 v 7.917 L 2,18 H 35 L 36.003511,17.146014 36.037,9 C 36.037,6.791 34.209,5 32,5 Z"
     id="path2"
     sodipodi:nodetypes="ssscccccs" />
  <path
     fill="#FFAC33"
     d="M20.878 17.737c.277-.377.663-.375 1.124-.135-.064-.611-.793-.997-1.122-1.049.134-.45.565-.675 1.078-.608-.266-.553-1.146-.571-1.475-.504-.025-.471.306-.832.808-.948-.434-.427-1.267-.137-1.555.038-.18-.433.007-.887.442-1.171-.552-.251-1.239.311-1.449.576-.317-.344-.292-.836.021-1.253-.604-.045-1.059.725-1.167 1.046-.414-.212-.557-.681-.406-1.182-.58.169-.749 1.049-.741 1.388-.459-.055-.753-.447-.78-.971-.488.361-.351 1.246-.229 1.562-.451.109-.859-.159-1.06-.641-.337.509.09 1.293.311 1.547-.388.258-.86.15-1.212-.235-.146.596.52 1.185.814 1.347-.277.377-.444.654-.904.417.063.611.575.715.905.766l6.597.01z"
     id="path3" />
  <path
     fill="#FFF100"
     d="M19.922 17.142l2.266-.823-2.404.012 1.85-1.563-2.257.848 1.213-2.112-1.836 1.581.429-2.406-1.193 2.123-.407-2.409-.407 2.409-1.192-2.123.429 2.406-1.835-1.581 1.212 2.112-2.257-.848 1.851 1.563-2.407-.012 2.268.823z"
     id="path4" />
  <path
     fill="#FFF100"
     d="M17.583 19.521c1.292 0 2.339-1.064 2.339-2.377 0-1.313-1.047-2.377-2.339-2.377s-2.339 1.063-2.339 2.377c0 1.312 1.047 2.377 2.339 2.377z"
     id="path5" />
  <path
     fill="#F15A29"
     d="M17.583 19.551c-1.307 0-2.369-1.08-2.369-2.407s1.062-2.406 2.369-2.406c1.306 0 2.369 1.079 2.369 2.406s-1.063 2.407-2.369 2.407zm0-4.754c-1.273 0-2.31 1.053-2.31 2.347s1.036 2.347 2.31 2.347c1.273 0 2.309-1.053 2.309-2.347s-1.036-2.347-2.309-2.347z"
     id="path6" />
  <path
     fill="#FFAC33"
     d="M17.438 9.504c-.188-.253-.421-.522-.702-.649-.281-.126-.783-.205-1.325-.063-.607.158-1.331.403-1.901.237-.109-.031-.187.08.031.206.218.127.772.159 1.324.087.39-.05.905-.032 1.107.047.242.095.678.42.865.752l.601-.617zm1.231 1.378c.169-.067.553-.099.708-.073.204.034.486-.067.579-.109.168-.075-.011-.203-.663-.166-.429.023-.595.212-.624.348z"
     id="path7" />
  <path
     fill="#FCD116"
     d="M21.094 8.491c-1.349-.063-1.692.214-2.346.269-.598.05-.974.232-1.278.586-.273.317-.544.605-.694.705-.018.012-.029.025-.044.038-.222-.016-.445-.105-.572-.228-.211-.205-.494-.229-.701-.02-.039.04-.086.104-.215.104-.222 0-.576.004-.581.376.117-.147.199-.171.577-.171.058 0 .129.028.187.127.086.146.276.261.468.265.19.004.271.133.397.269.367.396 1.185.657 1.949.364.395-.151.765-.666 1.435-.649.639.016.973-.19.421-.333-.554-.142-.976-.087-1.349-.015-.132.025-.265.006-.404-.026.054-.014.094-.045.107-.097.097.036.245-.023.277-.127.096.04.24-.016.277-.11.128.047.26.012.318-.103.085.051.233-.004.257-.123.086.056.219.048.25-.079.109.075.241.016.234-.111.05.024.154 0 .163-.079.202.008.459 0 .459-.15.172.008.413-.07.408-.256.12-.008.273-.102.309-.234.034-.111-.091-.182-.309-.192z"
     id="path8" />
  <path
     id="path1"
     d="M 1.6367188,16.513672 C 0.84571875,16.513672 0.402,16.703969 0,16.917969 l 0.00195313,2.033203 0.99804687,1 -1,1 v 2.259766 L 1,24 0,25.210938 V 27 c 0,0.151115 0.00906727,0.300503 0.02539063,0.447266 L 2,29 h 32 l 1.933594,-1.267578 C 35.977604,27.494791 36,27.250369 36,27 V 25.383 L 35,24 36,23.439 V 21.126 L 35,20 36,19.181641 v -2.035157 c -0.402,0.228 -0.845719,0.429688 -1.636719,0.429688 -1.817,0 -1.817718,-1.0625 -3.636719,-1.0625 -1.818,0 -1.818359,1 -3.693359,1 -1.762,0 -1.761422,-1 -3.607422,-1 -1.789,0 -1.789422,1 -3.607422,1 -1.818,0 -1.817718,-1 -3.636718,-1 -1.818,0 -1.816766,1 -3.634766,1 -1.818,0 -1.818719,-1 -3.6367188,-1 -1.8179999,0 -1.8187187,1 -3.6367187,1 -1.818,0 -1.8177188,-1 -3.6367187,-1 z"
     style="fill:#ffffff"
     sodipodi:nodetypes="scccccccsccccscccccccssssssssss" />
  <path
     fill="#00247d"
     d="m 35.932977,27.733 c -0.384,0.211 -0.824977,0.313 -1.568977,0.313 -1.817,0 -1.817,-0.984 -3.636,-0.984 -1.818,0 -1.818,1 -3.693,1 -1.762,0 -1.762,-1 -3.608,-1 -1.789,0 -1.789,1 -3.607,1 -1.818,0 -1.818,-1 -3.637,-1 -1.818,0 -1.818,1 -3.636,1 -1.818,0 -1.818,-1 -3.636,-1 -1.818,0 -1.818,1 -3.636,1 -1.818,0 -1.818,-1 -3.637,-1 -0.762,0 -1.22329519,0.180037 -1.61329519,0.385037 C 0.24670481,29.443037 1.943,31 4,31 h 28 c 1.958,0 3.587977,-1.408 3.932977,-3.267 z M 36,25.383 v -1.944 c -0.402,0.228 -0.846,0.374 -1.637,0.374 -1.817,0 -1.817,-1.007 -3.636,-1.007 -1.818,0 -1.818,1 -3.693,1 -1.762,0 -1.762,-1 -3.608,-1 -1.789,0 -1.789,1 -3.607,1 -1.818,0 -1.818,-1 -3.637,-1 -1.818,0 -1.818,1 -3.636,1 -1.818,0 -1.818,-1 -3.636,-1 -1.818,0 -1.818,1 -3.636,1 -1.818,0 -1.818,-1 -3.637,-1 -0.791,0 -1.234,0.19 -1.636,0.404 v 2 c 0.402,-0.214 0.846,-0.404 1.636,-0.404 1.818,0 1.818,1 3.637,1 1.818,0 1.818,-1 3.636,-1 1.818,0 1.818,1 3.636,1 1.818,0 1.818,-1 3.636,-1 1.818,0 1.818,1 3.637,1 1.818,0 1.818,-1 3.629,-1 1.825,0 1.825,1 3.64,1 1.822,0 1.822,-1 3.639,-1 2.378,0 2.323,0.991 3.638,0.991 0.789,0 1.233,-0.207 1.635,-0.414 z m 0,-4.257 v -1.944 c -0.402,0.228 -0.846,0.365 -1.637,0.365 -1.817,0 -1.817,-0.999 -3.636,-0.999 -1.818,0 -1.818,1 -3.693,1 -1.762,0 -1.762,-1 -3.608,-1 -1.789,0 -1.789,1 -3.607,1 -1.818,0 -1.818,-1 -3.637,-1 -1.818,0 -1.818,1 -3.636,1 -1.818,0 -1.818,-1 -3.636,-1 -1.818,0 -1.818,1 -3.636,1 -1.818,0 -1.818,-1 -3.637,-1 -0.791,0 -1.234,0.191 -1.636,0.404 v 2 c 0.402,-0.214 0.846,-0.404 1.636,-0.404 1.818,0 1.818,1 3.637,1 1.818,0 1.818,-1 3.636,-1 1.818,0 1.818,1 3.636,1 1.818,0 1.818,-1 3.636,-1 1.818,0 1.818,1 3.637,1 1.818,0 1.818,-1 3.629,-1 1.825,0 1.825,1 3.64,1 1.822,0 1.822,-1 3.639,-1 1.82,0 1.82,0.969 3.638,0.969 0.789,0.001 1.233,-0.184 1.635,-0.391 z"
     id="path10"
     sodipodi:nodetypes="csssssssssscsscccssssssssssccsssssssssscccssssssssssccssssssssscc" />
</svg>
