<?xml version="1.0" encoding="UTF-8" standalone="no"?>
<svg
   viewBox="0 0 36 36"
   version="1.1"
   id="svg4"
   sodipodi:docname="1f1f0-1f1f5.svg"
   inkscape:version="1.4 (86a8ad7, 2024-10-11)"
   xmlns:inkscape="http://www.inkscape.org/namespaces/inkscape"
   xmlns:sodipodi="http://sodipodi.sourceforge.net/DTD/sodipodi-0.dtd"
   xmlns="http://www.w3.org/2000/svg"
   xmlns:svg="http://www.w3.org/2000/svg">
  <defs
     id="defs4" />
  <sodipodi:namedview
     id="namedview4"
     pagecolor="#ffffff"
     bordercolor="#666666"
     borderopacity="1.0"
     inkscape:showpageshadow="2"
     inkscape:pageopacity="0.0"
     inkscape:pagecheckerboard="0"
     inkscape:deskcolor="#d1d1d1"
     inkscape:zoom="21.583333"
     inkscape:cx="23.142858"
     inkscape:cy="24.208495"
     inkscape:window-width="1680"
     inkscape:window-height="998"
     inkscape:window-x="-8"
     inkscape:window-y="-8"
     inkscape:window-maximized="1"
     inkscape:current-layer="svg4"
     showgrid="true"
     showguides="false">
    <inkscape:grid
       id="grid1"
       units="px"
       originx="0"
       originy="0"
       spacingx="1"
       spacingy="1"
       empcolor="#3f3fff"
       empopacity="0.25098039"
       color="#3f3fff"
       opacity="0.1254902"
       empspacing="5"
       enabled="true"
       visible="true" />
  </sodipodi:namedview>
  <path
     fill="#024fa2"
     d="M 32,5 H 4 C 1.791,5 0,6.791 0,9 l 7,9 -7,9 c 0,2.209 1.791,4 4,4 h 28 c 2.209,0 4,-1.791 4,-4 L 29,18 36,9 C 36,6.791 34.209,5 32,5 Z"
     id="path1"
     sodipodi:nodetypes="sscccsscccs" />
  <path
     fill="#ffffff"
     d="m 0,9 h 36 v 1 l -3,3 H 3 L 0,10 Z m 0,17 3,-3 h 30 l 3,3 v 1 H 0 Z"
     id="path2"
     sodipodi:nodetypes="cccccccccccccc" />
  <path
     fill="#ed1c27"
     d="M 0,10 H 36 V 26 H 0 Z"
     id="path3"
     sodipodi:nodetypes="ccccc" />
  <path
     fill="#FFF"
     d="M13.278 23.778c3.191 0 5.778-2.587 5.778-5.778s-2.587-5.778-5.778-5.778S7.5 14.809 7.5 18s2.587 5.778 5.778 5.778zm-1.257-7.508l1.257-3.868 1.257 3.868h4.067l-3.29 2.39 1.257 3.868-3.29-2.39-3.29 2.39 1.257-3.868-3.29-2.39h4.065z"
     id="path4" />
</svg>
