<?xml version="1.0" encoding="UTF-8" standalone="no"?>
<svg
   width="1800"
   height="1800"
   id="svg2265"
   sodipodi:version="0.32"
   inkscape:version="1.4.2 (f4327f4, 2025-05-13)"
   sodipodi:docname="A17.svg"
   inkscape:output_extension="org.inkscape.output.svg.inkscape"
   version="1.0"
   xmlns:inkscape="http://www.inkscape.org/namespaces/inkscape"
   xmlns:sodipodi="http://sodipodi.sourceforge.net/DTD/sodipodi-0.dtd"
   xmlns="http://www.w3.org/2000/svg"
   xmlns:svg="http://www.w3.org/2000/svg"
   xmlns:rdf="http://www.w3.org/1999/02/22-rdf-syntax-ns#"
   xmlns:cc="http://creativecommons.org/ns#"
   xmlns:dc="http://purl.org/dc/elements/1.1/">
  <metadata
     id="metadata2272">
    <rdf:RDF>
      <cc:Work
         rdf:about="">
        <dc:format>image/svg+xml</dc:format>
        <dc:type
           rdf:resource="http://purl.org/dc/dcmitype/StillImage" />
        <dc:title>A17</dc:title>
        <dc:creator>
          <cc:Agent>
            <dc:title>S. Thomas, mod. S. Romorduc</dc:title>
          </cc:Agent>
        </dc:creator>
        <dc:description>A17 sign based on S. Thomas A17A, with added &quot;areas&quot; for ligatures.
</dc:description>
      </cc:Work>
    </rdf:RDF>
  </metadata>
  <defs
     id="defs2270" />
  <sodipodi:namedview
     inkscape:window-height="998"
     inkscape:window-width="1680"
     inkscape:pageshadow="2"
     inkscape:pageopacity="0.0"
     guidetolerance="10.0"
     gridtolerance="10.0"
     objecttolerance="10.0"
     borderopacity="1.0"
     bordercolor="#666666"
     pagecolor="#ffffff"
     id="base"
     width="1800px"
     height="1800px"
     inkscape:zoom="9.7600001"
     inkscape:cx="1110.0922"
     inkscape:cy="214.39549"
     inkscape:window-x="-8"
     inkscape:window-y="-8"
     inkscape:current-layer="svg2265"
     inkscape:showpageshadow="2"
     inkscape:pagecheckerboard="0"
     inkscape:deskcolor="#d1d1d1"
     inkscape:window-maximized="1" />
  <path
     style="fill:#000000;stroke:none"
     d="m 1280.9375,0.375 c -17.8234,-0.008902 -35.9914,1.7080226 -54.5,5.125 -53.8434,9.940297 -102.3003,48.855876 -145.375,116.78125 -9.9401,24.8508 -33.958,61.29896 -72.0625,109.34375 -6.6269,21.53729 -4.1282,31.89088 7.4688,31.0625 11.5971,-0.82833 19.8737,1.24861 24.8437,6.21875 -5.5184,4.13894 -8.464,8.56788 -8.8125,13.28125 L 971.03125,282 c -46.76811,1.6703 -98.78353,22.63184 -150.5625,62.71875 -130.2825,111.90933 -193.01402,243.40685 -191.34375,392.0625 10e-6,23.38406 15.51136,31.59053 43.90625,28.25 95.9973,-41.80521 292.50127,-122.04864 359.28125,-160.15625 37.4844,64.10148 56.2187,164.1876 56.2187,300.21875 l -104.37495,19.875 C 732.33533,949.81957 586.5424,989.57839 546.78125,1044.25 492.10961,1075.7277 451.50748,1185.9156 425,1374.7812 385.23882,1573.5871 310.68703,1677.1226 201.34375,1685.4062 L 17.46875,1755 0.0625,1787.2812 c 13.25373,11.5971 25.684236,17.4063 37.28125,17.4063 l 337.96875,-17.4063 c 23.19401,-76.209 69.15249,-171.0459 137.90625,-284.5312 68.75375,-113.485 95.69178,-214.1316 80.78125,-301.9375 31.47768,112.6568 60.46137,258.4497 86.96875,437.375 4.97022,43.0745 -47.21913,82.0215 -156.5625,116.8125 -49.70149,3.3134 -74.56251,19.0547 -74.5625,47.2188 L 705.8125,1792.25 c 56.32835,0 84.49998,-22.3624 84.5,-67.0938 -18.22388,-39.761 -20.30085,-120.9344 -6.21875,-243.5312 14.08211,-122.5971 -1.2374,-222.0098 -45.96875,-298.2188 l 437.375,-17.375 c 142.4776,0 213.7187,-36.4481 213.7188,-109.3437 l -12.4376,-243.53125 c 0,-92.77608 24.8611,-172.32506 74.5626,-238.59375 l 52.1874,221.1875 -74.5624,342.9375 c -14.9104,23.1941 -25.2639,45.1348 -31.0626,65.8437 -5.7983,20.709 -9.5309,39.3704 -11.1874,55.9376 -1e-4,13.2539 3.7324,31.0404 11.1874,53.4062 7.4556,22.3657 12.0309,43.4945 13.6876,63.375 3.3134,4.9702 6.624,8.2808 9.9374,9.9375 3.3136,1.6568 5.7809,-0.8106 7.4376,-7.4375 8.2837,8.2837 13.2496,7.4404 14.9062,-2.5 8.2837,8.2835 13.2806,7.4716 14.9375,-2.4688 3.3133,3.3135 6.6243,4.5472 9.9375,3.7188 3.3136,-0.8282 4.9688,-5.3725 4.9688,-13.6562 -8.2836,-26.5075 -14.5144,-47.6363 -18.6563,-63.375 -4.1415,-15.7387 -4.532,-39.3659 -1.2187,-70.8438 1.6568,-8.2837 3.3118,-12.4063 4.9687,-12.4062 3.3133,0 6.6243,2.4674 9.9375,7.4374 0,8.2836 -0.8433,19.9023 -2.5,34.8126 -1.6567,14.9107 -0.423,26.4975 3.7188,34.7812 4.1418,8.2835 9.5294,9.9389 16.1562,4.9688 4.9702,-1.6567 6.2349,-9.1215 3.75,-22.375 -2.4852,-13.2539 -0.8298,-32.3055 4.9688,-57.1563 5.7985,-24.8507 -0.4325,-51.3359 -18.6563,-79.5 76.2089,-101.0597 115.1559,-228.64401 116.8125,-382.71875 -8.2835,-109.34326 -29.8338,-201.29147 -64.625,-275.84375 -48.0447,-46.38805 -106.0121,-77.02704 -173.9375,-91.9375 -43.0746,-36.44776 -36.4532,-73.31764 19.875,-110.59375 56.3285,-37.2761 83.2352,-85.31154 80.75,-144.125 C 1452.5777,77.155292 1427.326,38.208452 1379.2812,19.15625 1347.7519,6.6531976 1314.9641,0.39199561 1280.9375,0.375 Z m -23.3125,33 c 18.761,-0.294454 40.2706,2.435389 64.5,8.15625 59.6418,14.082054 89.8591,44.721066 90.6875,91.9375 0.8284,47.21645 -23.1893,89.4739 -72.0625,126.75 -48.873,37.27614 -55.4943,33.12224 -19.875,-12.4375 35.6195,-45.55967 48.0498,-82.81993 37.2812,-111.8125 -10.7686,-28.99257 -45.9831,-36.035451 -105.625,-21.125 -66.2686,-18.223891 -86.1326,-38.509367 -59.625,-60.875 15.7388,-13.279637 37.2989,-20.163394 64.7188,-20.59375 z m -114.1875,82.65625 c 0.3373,0.006 0.6635,0.0366 1,0.0625 10.7686,0.82832 41.0173,11.18193 90.7187,31.0625 4.9702,13.2538 15.7141,14.48746 32.2813,3.71875 16.5671,-10.76868 32.7301,-12.8456 48.4687,-6.21875 15.7389,6.62693 17.8159,21.55597 6.2188,44.75 -11.597,23.19403 -26.9166,42.63623 -45.9688,58.375 -19.0524,15.73884 -27.3602,32.71362 -24.875,50.9375 2.4852,18.22388 13.682,31.49767 33.5626,39.78125 4.9701,29.82088 18.6343,54.68189 41,74.5625 22.3656,19.88059 60.8908,42.243 115.5624,67.09375 -86.1494,145.79108 -129.2187,250.98184 -129.2187,315.59375 0,0 4.5161,22.33013 10.323,53.47833 9.1636,49.154 21.5415,120.26765 24.4583,160.24047 1.4457,19.8119 -2.9939,35.8111 -9.9376,47.2187 -16.2502,26.697 -104.3614,38.938 -263.4062,37.2813 -130.88054,13.2536 -283.29482,14.9089 -457.25,4.9687 18.2238,-54.6717 113.48274,-91.9632 285.78125,-111.84375 170.64175,0 255.93755,-50.534 255.93755,-151.59375 0,-69.58204 -37.2604,-181.39408 -111.8126,-335.46875 96.0897,-26.50746 135.8485,-55.49115 119.2813,-86.96875 6.6269,-46.38806 -4.9602,-71.24907 -34.7813,-74.5625 -33.1343,3.31343 -52.186,-6.61847 -57.1562,-29.8125 24.8508,-9.9403 33.9393,-18.24815 27.3125,-24.875 -6.6269,-6.62687 -18.2141,-10.74952 -34.7813,-12.40625 11.5971,-11.59702 7.4431,-22.37221 -12.4374,-32.3125 l 44.75,-69.59375 c 19.8807,-14.91045 53.83,-10.7566 101.875,12.4375 16.5669,-1.65671 12.0227,-8.69959 -13.6563,-21.125 -25.6792,-12.4254 -50.9617,-17.81297 -75.8125,-16.15625 11.2346,-19.25932 22.1052,-28.80057 32.5625,-28.625 z m 159.1875,32.625 c -3.5723,-0.0777 -7.8423,0.66557 -12.8125,2.21875 -13.2536,4.14177 -24.841,13.652 -34.7813,28.5625 -9.9401,14.91045 -12.4389,25.68562 -7.4687,32.3125 -9.9403,4.97015 -16.1398,11.20104 -18.625,18.65625 -2.4849,7.45525 0.8257,13.23324 9.9375,17.375 9.1121,4.14182 22.3545,-2.05785 39.75,-18.625 17.3956,-16.56717 28.5923,-31.07461 33.5625,-43.5 4.9703,-12.42534 5.7823,-22.35725 2.4687,-29.8125 -2.0708,-4.65953 -6.0773,-7.05807 -12.0312,-7.1875 z m -8.9375,17.0625 c 6.7304,-0.0647 9.598,3.26961 8.5625,10 -1.6566,10.76869 -6.6226,20.70061 -14.9062,29.8125 -8.2836,9.11196 -16.1697,15.34282 -23.625,18.65625 -7.4551,3.31343 -7.4551,0.39321 0,-8.71875 7.4553,-9.11192 7.4553,-12.42255 0,-9.9375 -7.4551,2.48509 -8.689,-0.82556 -3.7188,-9.9375 4.9701,-9.11191 10.7481,-17.81011 17.375,-26.09375 6.834,-2.48505 12.2743,-3.74243 16.3125,-3.78125 z m -165.5625,3.5625 c -1.6551,-0.005 -3.2593,0.0634 -4.8125,0.21875 -16.5672,1.65677 -29.8096,12.4319 -39.75,32.3125 16.5672,14.91045 33.542,21.53171 50.9375,19.875 17.3956,-1.65672 36.0256,-8.27799 55.9062,-19.875 h 32.3126 v -9.9375 h -32.3126 c -25.5237,-15.01399 -46.2819,-22.54678 -62.2812,-22.59375 z m -11.6875,12.3125 c 0.6472,0.0259 1.285,0.13666 1.9063,0.34375 -8.2836,13.25373 -4.9729,20.71828 9.9374,22.375 18.2239,-4.97015 21.5347,-12.4347 9.9376,-22.375 11.5971,4.97015 23.2153,9.9361 34.8124,14.90625 -14.9105,4.97015 -30.2108,7.75051 -44.7628,7.75051 -11.4513,0 -20.7041,-1.93568 -27.3309,-10.21926 5.7985,-8.69776 10.9699,-12.96245 15.5,-12.78125 z m 128.6563,42.59375 c 8.2835,4.97015 9.9389,9.51449 4.9687,13.65625 -4.97,4.14183 -8.7023,3.72015 -11.1875,-1.25 -2.4848,-4.97013 -0.4082,-9.09282 6.2188,-12.40625 z M 1039.375,310.875 c 0.1673,2.34165 0.8085,4.92748 1.9375,7.75 3.3136,8.28358 4.9687,18.63708 4.9687,31.0625 0,12.42533 7.8552,19.85865 23.5938,22.34375 15.739,2.48504 35.2123,2.09468 58.4062,-1.21875 8.2836,34.79104 2.8961,50.92254 -16.1562,48.4375 -19.0522,-2.48511 -51.5289,1.78973 -93.1875,21.125 L 729.5,652.09375 c 40.08692,-93.53619 75.10503,-173.23372 103.5,-238.375 45.09775,-15.03259 88.29169,-37.35584 131.75,-43.90625 17.33313,-2.6126 9.13111,-34.01181 12.53125,-53.5625 4.44868,-0.0541 39.23595,-3.45207 62.09375,-5.375 z M 105.3125,1884.7812 c -0.13541,0.9832 0.0915,2.1184 0,3.125 2.83532,0.063 3.50295,-0.056 6.28125,0 -1.76098,-1.3459 -4.5429,-1.7765 -6.28125,-3.125 z"
     id="path2267"
     sodipodi:nodetypes="csccscccccccccccccccccccccccscccccccscccscccscscscsscssccccccsccssscscsccscssssscsccssscccsccccsccccscccsscsssssccsssssscccscsccccccccccscccssccssscscccscccccc" />
</svg>
