<?xml version="1.0" encoding="UTF-8" standalone="no"?>
<svg
   width="4.827502"
   height="17.983217"
   version="1.1"
   id="svg1"
   sodipodi:docname="A341.svg"
   inkscape:version="1.4.2 (f4327f4, 2025-05-13)"
   xmlns:inkscape="http://www.inkscape.org/namespaces/inkscape"
   xmlns:sodipodi="http://sodipodi.sourceforge.net/DTD/sodipodi-0.dtd"
   xmlns="http://www.w3.org/2000/svg"
   xmlns:svg="http://www.w3.org/2000/svg">
  <defs
     id="defs1" />
  <sodipodi:namedview
     id="namedview1"
     pagecolor="#ffffff"
     bordercolor="#666666"
     borderopacity="1.0"
     inkscape:showpageshadow="2"
     inkscape:pageopacity="0.0"
     inkscape:pagecheckerboard="0"
     inkscape:deskcolor="#d1d1d1"
     inkscape:zoom="32"
     inkscape:cx="2.8125"
     inkscape:cy="8.234375"
     inkscape:window-width="1680"
     inkscape:window-height="998"
     inkscape:window-x="-8"
     inkscape:window-y="-8"
     inkscape:window-maximized="1"
     inkscape:current-layer="svg1" />
  <path
     id="path1"
     style="fill:#000000;stroke:none"
     d="M 4.296875,0 C 4.1758143,0.00860351 4.0214705,0.06938341 3.8984375,0.390625 3.7782656,0.70439616 3.6179557,0.95214483 3.3652344,1.1171875 3.1125124,1.2822302 2.8627984,1.486109 2.6152344,1.7285156 2.0808183,2.2517987 1.9028036,2.7094208 1.8105469,3.484375 V 3.4707031 C 1.7177102,3.5944851 1.6134667,3.7691598 1.5,3.9960938 1.448424,4.1301911 1.451079,4.2078856 1.50781,4.2285156 c 0.056733,0.020631 0.1071762,0.045227 0.1484375,0.076172 -0.051576,0.030945 -0.07016,0.060149 -0.054687,0.085937 0.015473,0.025788 0.044677,0.039063 0.085937,0.039063 h 0.00195 v 0.00195 0.00195 0.00195 c -0.00435,0.00762 -0.015796,0.021656 -0.033203,0.039063 -0.00967,0.00967 -0.015463,0.020634 -0.017578,0.029297 l -0.00195,0.00195 v 0.00195 c 1.51e-5,8.361e-4 -9.07e-5,0.00503 0,0.00586 v 0.00195 l 0.00195,0.00195 c 0.00476,0.011937 0.019257,0.025486 0.041016,0.035156 0.046418,0.020631 0.079649,0.1019781 0.044922,0.2324218 C 1.563187,5.3915078 1.352958,5.7954584 1.1503906,6.0117188 0.94782855,6.2279735 0.77879772,6.3001237 0.64257812,6.2304688 0.50635905,6.1608138 0.41920317,6.1576637 0.38085938,6.21875 0.3425166,6.2798354 0.37920225,6.3497539 0.4921875,6.4296875 0.60517342,6.5096207 0.7997197,6.5047687 1.0742188,6.4160156 1.3487181,6.3272628 1.6984537,5.8396204 2.125,4.953125 l 0.041016,-0.00586 c 0.00148,-6.21e-5 0.00242,6.53e-5 0.00391,0 0.033127,-0.00145 0.068645,-0.00483 0.1054687,-0.00781 v 0.29492 C 1.9246746,5.7707637 1.6809723,6.497965 1.546875,7.4160156 1.4127777,8.3340663 1.423397,9.3621265 1.578125,10.501953 c 0.1547273,1.139827 0.3154261,2.26682 0.4804688,3.380859 0.1650426,1.114039 0.2268068,1.867789 0.1855468,2.259766 C 2.0790973,16.627392 1.531881,17.049126 0.60351562,17.410156 0.21153896,17.420471 0.01031533,17.611075 0,17.982422 h 3.5429688 c 0.2681946,-0.154728 0.2894333,-0.546556 0.0625,-1.175781 V 11.980469 C 3.5951534,11.351243 3.646299,10.968081 3.7597656,10.833984 3.966069,10.235704 3.9361634,9.6286763 3.6679688,9.0097656 4.0083701,7.276817 3.9977501,5.9599207 3.6367188,5.0625 3.5438821,4.9593487 3.5226428,4.8411286 3.5742188,4.7070312 4.2491375,3.1804285 4.4494927,2.562894 4.3945312,1.6972656 4.3739013,1.3723376 4.4697593,1.0821419 4.6582031,0.80859375 4.7897071,0.61770046 4.8429822,0.46721878 4.828125,0.375 4.8087661,0.25483936 4.6316003,-0.02378816 4.296875,0 Z M 4.457031,0.25195308 C 4.5689976,0.31651988 4.5809832,0.46797062 4.441406,0.68554684 4.2296835,1.0155849 4.1102294,1.3088309 4.1308594,1.5976562 4.2032072,2.6105123 3.9497311,3.2838379 3.3730469,4.5058594 L 3.203125,4.2734375 C 3.5332103,3.7473635 3.6002849,3.4252653 3.4042969,3.3066406 3.2083082,3.188016 3.0070846,3.2225298 2.8007812,3.4082031 2.6254233,3.2637905 2.3870306,3.2073359 2.0878906,3.2382812 2.2147607,2.5827827 2.3739404,2.3153055 2.8476562,1.8613281 3.0952203,1.6240788 3.3316598,1.43082 3.5585938,1.28125 3.7855278,1.13168 3.9709986,0.86721208 4.1308594,0.49804688 4.1711822,0.40492972 4.3036019,0.16347644 4.457031,0.25195308 Z M 2.0273438,3.3613281 c 0.5673346,-0.020631 0.7844879,0.1135191 0.6503906,0.4023438 l 0.091797,0.03125 0.1542969,-0.3105469 c 0.092837,-0.1134673 0.2137113,-0.1274432 0.3632813,-0.044922 0.14957,0.082521 0.034005,0.3860354 -0.3476563,0.9121094 0.051576,0.1340973 0.1239609,0.2330305 0.2167969,0.2949219 0.030946,0.247564 0.09271,0.4009999 0.1855469,0.4628906 -0.088411,0.1326155 -0.752611,0.1197565 -0.7734375,0.015625 0,-0.3094547 -0.1182201,-0.4329844 -0.3554688,-0.3710938 C 1.9756413,4.8157976 1.8767081,4.7434134 1.9179688,4.5371094 2.0520661,4.4442727 2.0971993,4.3825078 2.0507812,4.3515625 2.0043626,4.3206172 1.9187039,4.2993778 1.7949219,4.2890625 1.8052372,4.2271718 1.748782,4.1760263 1.625,4.1347656 1.728152,3.866571 1.8251328,3.681277 1.9179688,3.578125 2.0314361,3.5162343 2.1516086,3.5109247 2.2753906,3.5625 2.3991726,3.614076 2.5227024,3.651244 2.6464844,3.671875 l -0.015625,-0.09375 c -0.072206,0 -0.1711399,-0.029204 -0.2949219,-0.085937 C 2.2121555,3.435455 2.0886258,3.429443 1.9648438,3.470704 Z m 1.0820312,0.09375 c -0.103152,0 -0.1622617,0.040526 -0.1777344,0.1230469 -0.015473,0.082521 -0.00751,0.1708352 0.023437,0.2636719 l 0.109375,-0.0625 c -0.051576,-0.051576 -0.078125,-0.097411 -0.078125,-0.1386719 0,-0.041261 0.00796,-0.07312 0.023437,-0.09375 0.015473,-0.020631 0.048033,-0.03125 0.099609,-0.03125 0.082521,0 0.125,0.026549 0.125,0.078125 0,0.072206 -0.00796,0.126006 -0.023437,0.1621094 -0.015473,0.036103 -0.079893,0.1111427 -0.1933594,0.2246094 H 3.0019531 C 3.1051045,3.8566868 3.1668693,3.7683729 3.1875,3.7167969 3.20813,3.6652209 3.200165,3.6220399 3.164063,3.5859375 c -0.036103,-0.036103 -0.071319,-0.036103 -0.1074219,0 -0.036103,0.036103 -0.033448,0.076628 0.00781,0.1230469 0.030945,0.034814 0.046894,0.061666 0.048828,0.076172 v 0.00195 0.00195 l -0.00195,0.00195 v 0.00195 l -0.00195,0.00195 -0.1386719,0.1074219 -0.1074219,0.125 c -0.030945,0.041261 -0.03891,0.071166 -0.023437,0.091797 0.015473,0.02063 0.037414,0.03125 0.068359,0.03125 0.030945,0 0.0874,-0.040525 0.1699219,-0.1230468 C 3.1606463,3.9345071 3.2190547,3.8568125 3.25,3.7949219 3.280945,3.7330309 3.294922,3.6606463 3.294922,3.578125 3.294922,3.495604 3.233157,3.4550781 3.109375,3.4550781 Z M 2.1230469,3.5859375 C 2.0703427,3.5840033 2.023019,3.5979228 1.9804688,3.625 l -0.09375,0.091797 v 0.09375 l 0.0625,-0.015625 C 2.0936314,3.867128 2.2543295,3.861818 2.4296875,3.779297 L 2.5996094,3.794922 V 3.7167969 H 2.4296875 C 2.3136417,3.632986 2.2108872,3.5891611 2.1230469,3.5859375 Z M 2.0878906,3.65625 c -0.030945,0.030945 -0.030945,0.066161 0,0.1074219 -0.041261,-0.010315 -0.076476,-0.020935 -0.1074218,-0.03125 0.020631,-0.041261 0.055846,-0.065857 0.1074218,-0.076172 z m 0.125,0.015625 0.1542969,0.076172 c -0.061891,0.010315 -0.1183459,0.020935 -0.1699219,0.03125 0.041261,-0.030945 0.04657,-0.066161 0.015625,-0.107422 z m -0.2792968,0.4238318 -0.00195,0.00195 -0.00195,0.00195 -0.00195,0.00195 -0.00195,0.00195 c -0.00403,0.00685 -0.00781,0.018356 -0.00781,0.03125 -1e-7,0.02063 -0.00796,0.03656 -0.023438,0.046875 -0.00101,4.836e-4 -0.00481,0.00163 -0.00586,0.00195 -0.00326,4.835e-4 -0.010046,9.67e-4 -0.013672,0 -0.011242,-0.00435 -0.02651,-0.015796 -0.041016,-0.033203 -0.020953,-0.025143 -0.03809,-0.040207 -0.048828,-0.044922 h -0.00195 l -0.00195,-0.00195 h -0.00195 l -0.046875,0.023437 -0.00195,0.00195 -0.00195,0.00195 -0.00195,0.00195 v 0.00195 0.00195 l -0.00195,0.00195 v 0.00195 c 5.641e-4,0.00606 0.0033,0.016365 0.00781,0.025391 0.020631,-0.02063 0.049834,-0.010011 0.085937,0.03125 0.036103,0.041261 0.071318,0.051881 0.1074218,0.03125 0.036103,-0.02063 0.049377,-0.049834 0.039063,-0.085937 -0.00516,-0.018052 -0.010467,-0.031326 -0.015625,-0.039063 l -0.00195,-0.00195 -0.00195,-0.00195 -0.00195,-0.00195 -0.00195,-0.00195 h -0.002 -0.00195 -0.00195 z M 1.8105469,4.3359375 c 0.041261,0.010315 0.087096,0.01828 0.1386719,0.023437 0.032235,0.00322 0.050658,0.00465 0.054687,0.00586 v 0.00195 c -0.00145,8.06e-5 -0.00523,0 -0.00781,0 l -0.2324219,0.015625 c -0.00516,0 -0.010126,-9.861e-4 -0.013672,-0.00195 h -0.00195 l -0.00195,-0.00195 h -0.00195 l -0.00195,-0.00195 V 4.375 h -0.00195 V 4.37305 4.3711 L 1.7383019,4.36915 V 4.3672 c 1.21e-4,-8.462e-4 0.00173,-0.00495 0.00195,-0.00586 V 4.35939 c 4.633e-4,-9.066e-4 0.0033,-0.00501 0.00391,-0.00586 l 0.00195,-0.00195 0.00195,-0.00195 c 0.011302,-0.00731 0.034133,-0.013672 0.0625,-0.013672 z m 0.1855469,0.0625 c -0.010315,0.020631 -0.03421,0.039215 -0.070313,0.054687 -0.036103,0.015473 -0.073974,0.026794 -0.1152343,0.037109 -0.010315,0 -0.020935,-0.00265 -0.03125,-0.00781 h -0.00195 l -0.00195,-0.00195 v -0.00195 l -0.00195,-0.00195 v -0.00195 c 2.015e-4,-7.454e-4 0.00163,-0.00505 0.00195,-0.00586 l 0.00195,-0.00195 c 0.00338,-0.00556 0.00984,-0.013748 0.017578,-0.021484 z M 3.3417969,5.4199219 C 3.7028275,6.0800932 3.6676123,7.276817 3.234375,9.0097656 3.5747757,9.669937 3.5993715,10.22582 3.3105469,10.679688 3.2073949,11.42238 3.2090801,12.562125 3.21875,14.099609 3.229715,15.842962 3.19281,16.75006 3.203125,16.822266 3.3578523,17.379285 3.3419233,17.674132 3.15625,17.705078 H 0.61914062 C 1.7228646,17.302787 2.40423,16.868481 2.6621094,16.404297 2.7136854,16.105157 2.6738619,15.541309 2.5449219,14.710938 2.4159825,13.880566 2.2536688,12.606308 1.9648438,10.574219 1.6760188,8.5421294 1.8303677,6.7336104 2.5214844,5.4648438 2.810309,5.5473651 3.0839169,5.5333885 3.3417969,5.4199219 Z"
     sodipodi:nodetypes="sssscccscssccccsccccccssssssscccccsssccccccccccsssssssccsccssssccccsccccscscccsccsccssccsssssccssssccccccccsscssssccccccccsccccccccccscccscccccccccccccsssccccccccccsccccccccccccccccccccccsccccccccccccccccccssscccscc" />
</svg>
