<?xml version="1.0" encoding="UTF-8" standalone="no"?>
<svg
   width="700"
   height="1000"
   id="svg2"
   sodipodi:version="0.32"
   inkscape:version="1.4.2 (f4327f4, 2025-05-13)"
   sodipodi:docname="C12.svg"
   inkscape:output_extension="org.inkscape.output.svg.inkscape"
   version="1.0"
   xmlns:inkscape="http://www.inkscape.org/namespaces/inkscape"
   xmlns:sodipodi="http://sodipodi.sourceforge.net/DTD/sodipodi-0.dtd"
   xmlns="http://www.w3.org/2000/svg"
   xmlns:svg="http://www.w3.org/2000/svg"
   xmlns:rdf="http://www.w3.org/1999/02/22-rdf-syntax-ns#"
   xmlns:cc="http://creativecommons.org/ns#"
   xmlns:dc="http://purl.org/dc/elements/1.1/">
  <metadata
     id="metadata9">
    <rdf:RDF>
      <cc:Work
         rdf:about="">
        <dc:format>image/svg+xml</dc:format>
        <dc:type
           rdf:resource="http://purl.org/dc/dcmitype/StillImage" />
      </cc:Work>
    </rdf:RDF>
  </metadata>
  <defs
     id="defs7" />
  <sodipodi:namedview
     inkscape:window-height="998"
     inkscape:window-width="1680"
     inkscape:pageshadow="2"
     inkscape:pageopacity="0.0"
     guidetolerance="10.0"
     gridtolerance="10.0"
     objecttolerance="10.0"
     borderopacity="1.0"
     bordercolor="#666666"
     pagecolor="#ffffff"
     id="base"
     height="18px"
     width="12.014286px"
     inkscape:zoom="0.53386562"
     inkscape:cx="598.46521"
     inkscape:cy="718.34556"
     inkscape:window-x="-8"
     inkscape:window-y="-8"
     inkscape:current-layer="svg2"
     inkscape:showpageshadow="2"
     inkscape:pagecheckerboard="0"
     inkscape:deskcolor="#d1d1d1"
     inkscape:window-maximized="1" />
  <path
     style="fill:#000000;stroke:none;stroke-width:1"
     d="m 313.46412,266.9761 c 3.21504,10.93105 5.46551,23.79112 6.75153,38.5802 16.71809,-1.28602 36.32969,4.8225 58.8348,18.32559 21.86215,-9.64501 35.36522,-8.19825 40.50922,4.3403 5.14406,12.53856 3.21504,23.30886 -5.78704,32.31094 -9.00205,9.00205 -14.14606,15.75358 -15.43207,20.25461 l 21.21911,13.50302 c 5.14406,4.501 10.93108,2.25053 17.36109,-6.75149 L 502.50709,266.9761 Z m -12.53857,99.34406 0.96451,-4.82251 8.68055,-4.82255 c 6.43003,-12.86004 23.14812,-12.86004 50.15426,0 h 22.18361 v 6.75154 h -21.21911 c -23.14812,10.28803 -40.50921,11.89553 -52.08327,4.82252 z m 12.53857,-3.85807 c 2.57203,1.28601 6.43003,2.57203 11.57405,3.85805 -3.21501,-4.50104 -3.85801,-8.68056 -1.929,-12.53855 -5.78703,2.57201 -9.00205,5.46551 -9.64505,8.6805 z m 24.11262,2.89359 c 5.14401,-1.28602 10.93106,-3.21504 17.36109,-5.78708 l -17.36109,-5.78701 c 3.85805,4.501 3.85805,8.35904 0,11.57409 z M 309.6061,345.10105 V 335.456 c 14.14607,-3.858 25.39863,-4.17955 33.75767,-0.96457 8.35904,3.21504 19.61162,7.39453 33.75772,12.53856 l 4.8225,4.82251 c -15.43208,-1.28597 -27.8099,-3.85798 -37.13344,-7.716 -9.32356,-3.85799 -21.05838,-3.53647 -35.20445,0.96455 z m -217.978128,296.103 c 7.716039,-14.14607 23.148118,-21.5406 46.296238,-22.18361 -16.71809,-18.64712 -35.04368,-24.59488 -54.976783,-17.84336 -19.9331,6.75153 -25.077129,11.09183 -15.432078,13.02086 9.645051,1.9288 17.682594,10.93102 24.112623,27.00611 z M 375.19243,536.07303 C 359.11735,606.8034 344.00677,714.18494 329.8607,858.21765 l -23.14812,1.9288 -130.20817,-185.18493 c -18.6471,-27.64912 -37.61569,-35.04371 -56.9058,-22.18361 -19.29009,12.8601 -14.46757,41.31298 14.46758,85.35869 28.93515,44.04576 53.04777,113.32936 72.33788,207.85085 l -66.55085,27.00627 h 320.21565 l -11.57401,-17.36104 c 10.28805,-62.37127 19.29009,-141.13923 27.00609,-236.30368 6.43002,-82.94751 5.14405,-144.03276 -3.85802,-183.25597 -6.43003,-28.29216 -22.18361,-42.43822 -47.26074,-42.43822 -25.07709,0 -41.47368,14.14606 -49.18976,42.43822 z m 11.57411,-142.74674 c -0.64303,14.78905 -9.32359,28.29212 -26.04168,40.50922 9.00205,12.21703 17.03959,28.61361 24.11263,49.18975 7.07303,-6.43002 14.46758,-10.12732 22.18366,-11.09183 7.716,-0.96451 16.39655,-0.80375 26.04163,0.48223 -10.28805,-11.57403 -16.3966,-32.15014 -18.32564,-61.72832 z m -8.68059,-4.82252 c -0.64297,-6.43006 4.34029,-14.30686 14.9498,-23.6304 10.60957,-9.32353 15.7536,-16.87882 15.43209,-22.66588 -0.32149,-5.78704 -3.37575,-8.68055 -9.16278,-8.68055 -5.78703,0 -11.57405,3.21504 -17.36104,9.6451 -27.64918,-14.78911 -49.8328,-21.86214 -66.55089,-21.21911 -7.71604,18.00406 -18.6471,38.90166 -32.79317,62.69277 12.86006,0.64301 18.00409,5.78704 15.43208,15.43208 3.85805,-3.21504 10.44881,-1.44676 19.77237,5.30482 9.32353,6.75152 2.73273,9.80577 -19.77237,9.16277 3.21504,3.85805 4.17955,8.5198 2.89353,13.98534 -1.28601,5.46552 4.17956,7.87677 16.39659,7.23377 18.64708,-0.64298 33.43615,-4.98325 44.36721,-13.0208 10.93105,-8.03756 17.3611,-19.12938 19.29014,-33.27545 z M 356.86684,248.65055 h 37.6157 L 471.64293,48.997973 c 4.50106,-14.789077 1.44679,-23.630364 -9.16277,-26.523863 -10.60957,-2.893531 -18.48637,2.089736 -23.6304,14.949803 z m 69.44436,0 h 37.61574 L 534.33575,66.359063 c 7.71609,-14.789079 5.46557,-23.951867 -6.75153,-27.488369 -12.21705,-3.536534 -21.21906,1.768236 -27.00614,15.914309 z m 44.36723,112.84708 c 45.65325,31.50716 68.47985,75.23137 68.47985,131.17263 V 1000 H 517.93917 V 492.67026 c 0,-46.93921 -18.96858,-84.23339 -56.90579,-111.88253 l -24.11262,43.40273 c -3.21499,18.00406 2.89353,34.72214 18.32559,50.15425 21.8621,5.78704 35.84744,36.49043 41.95599,92.11023 6.1085,55.61979 -1.12526,183.41672 -21.70139,383.39077 L 514.30998,1000 H 106.09555 l -4.82253,-37.6158 73.30238,-31.82867 C 155.9283,855.96712 135.19144,799.38282 112.3648,760.80268 89.538202,722.22248 76.195894,686.21426 72.337875,652.77813 l 2.893535,9.64507 C 65.586337,643.77608 52.56553,630.91603 36.16896,623.843 19.77236,616.76991 30.221156,603.26686 67.515349,583.33378 h -0.964512 0.964512 V 372.10714 c 0,-14.14605 -5.465511,-21.21907 -16.396585,-21.21907 -12.860067,5.787 -21.540612,15.11053 -26.041635,27.9706 -4.501023,12.8601 -8.037541,23.46966 -10.609555,31.82867 C 5.465528,425.47644 0.64300343,423.54744 0,404.90031 c 9.6450498,-34.07915 15.592838,-55.1375 17.843366,-63.17505 2.250496,-8.03753 11.413285,-20.41534 27.488368,-37.13342 7.71604,-7.71608 21.862111,-19.93315 42.438219,-36.65124 21.219107,-10.28805 27.327637,-7.39452 18.325597,8.68059 -19.290104,16.07506 -35.043685,33.43613 -47.260746,52.08322 19.9331,0.64304 29.899655,15.11062 29.899655,43.40273 v 207.3686 c 25.077131,-5.14385 45.331731,1.9288 60.763811,21.21914 10.93106,7.07303 19.9331,16.07503 27.00614,27.00611 l 130.20817,183.25597 c 14.78908,-144.03277 33.75768,-253.34333 56.9058,-327.9317 -4.50103,-14.78909 -10.93106,-26.04167 -19.2901,-33.75768 h -27.00614 c -15.43208,48.22525 -32.63243,76.99964 -51.60104,86.32318 -18.96858,9.32357 -33.11464,11.41334 -42.43818,6.2693 -9.32356,-5.14404 -12.69933,-10.12728 -10.12732,-14.9498 2.57201,-4.82253 9.00205,-5.3048 19.2901,-1.44678 10.28805,3.85802 22.02287,-3.05428 35.20446,-20.73688 13.18155,-17.68256 20.73683,-40.66996 22.66584,-68.96213 0.643,-9.64505 -0.96451,-15.91432 -4.82253,-18.80783 -3.85802,-2.8935 -3.21501,-5.62625 1.92901,-8.19826 -5.78703,-1.28601 -6.43003,-5.14403 -1.92901,-11.57407 -18.6471,0.64301 -21.70135,-8.03754 -9.16277,-26.04163 12.53855,-18.00412 21.05834,-36.00821 25.55936,-54.01227 0,-19.93311 -3.85802,-42.75973 -11.57406,-68.47986 h 41.47371 L 414.73714,32.601388 C 421.81018,8.8102656 436.11701,-1.9600324 457.65763,0.29049507 479.19826,2.540991 492.21906,10.739275 496.72006,24.885348 c 13.50307,-7.716039 29.41743,-8.037541 47.74302,-0.964505 18.32562,7.073037 22.66592,22.826618 13.0208,47.260745 L 489.00407,248.65055 h 44.36718 z"
     id="path4"
     sodipodi:nodetypes="cccssccccccccccccccccccccccccsccscccsccccccssccccccsccccsccccsssccccscscscccccscccccscccsccscccscccccsccscccscsccsccccscccccccssssscsccsccccscscccc" />
</svg>
