<?xml version="1.0" encoding="UTF-8" standalone="no"?>
<svg
   width="1600"
   height="1000"
   id="svg2456"
   sodipodi:version="0.32"
   inkscape:version="1.4.2 (f4327f4, 2025-05-13)"
   sodipodi:docname="E1A.svg"
   inkscape:output_extension="org.inkscape.output.svg.inkscape"
   version="1.1"
   xmlns:inkscape="http://www.inkscape.org/namespaces/inkscape"
   xmlns:sodipodi="http://sodipodi.sourceforge.net/DTD/sodipodi-0.dtd"
   xmlns="http://www.w3.org/2000/svg"
   xmlns:svg="http://www.w3.org/2000/svg"
   xmlns:rdf="http://www.w3.org/1999/02/22-rdf-syntax-ns#"
   xmlns:cc="http://creativecommons.org/ns#"
   xmlns:dc="http://purl.org/dc/elements/1.1/">
  <metadata
     id="metadata2463">
    <rdf:RDF>
      <cc:Work
         rdf:about="">
        <dc:format>image/svg+xml</dc:format>
        <dc:type
           rdf:resource="http://purl.org/dc/dcmitype/StillImage" />
      </cc:Work>
    </rdf:RDF>
  </metadata>
  <defs
     id="defs2461">
    <inkscape:perspective
       sodipodi:type="inkscape:persp3d"
       inkscape:vp_x="0 : 992.44 : 1"
       inkscape:vp_y="0 : 1000 : 0"
       inkscape:vp_z="24.326464 : 992.44 : 1"
       inkscape:persp3d-origin="12.163232 : 989.92 : 1"
       id="perspective2465" />
  </defs>
  <sodipodi:namedview
     inkscape:window-height="998"
     inkscape:window-width="1680"
     inkscape:pageshadow="2"
     inkscape:pageopacity="0.0"
     guidetolerance="10.0"
     gridtolerance="10.0"
     objecttolerance="10.0"
     borderopacity="1.0"
     bordercolor="#666666"
     pagecolor="#ffffff"
     id="base"
     showgrid="false"
     inkscape:zoom="0.365"
     inkscape:cx="1149.3151"
     inkscape:cy="97.260274"
     inkscape:window-x="-8"
     inkscape:window-y="-8"
     inkscape:current-layer="svg2456"
     inkscape:showpageshadow="2"
     inkscape:pagecheckerboard="0"
     inkscape:deskcolor="#d1d1d1"
     inkscape:window-maximized="1" />
  <path
     style="fill:#000000;stroke:none;stroke-width:0.999998"
     d="M 338.54929,58.367001 C 321.18779,40.091759 288.29231,31.639465 239.86285,33.010119 143.21237,35.74544 116.37908,51.667123 98.686439,111.82218 c 27.412861,-6.39635 57.567031,-2.7413 90.462511,10.96515 v 8.22386 c -34.72295,-11.87893 -69.44594,-13.24956 -104.168942,-4.1119 -0.913784,31.9817 -11.422084,77.21298 -31.524892,135.69384 17.361502,10.05136 24.443184,20.78807 21.245052,32.21013 -3.198179,11.42202 -9.366078,17.81835 -18.503699,19.189 -20.9765,3.1465 -17.745378,-19.92653 -13.021127,-23.30096 3.198134,-2.2844 3.655004,-4.79725 1.37061,-7.53856 -2.284394,-2.74126 -7.538532,0.91379 -15.762413,10.96515 0,16.44776 12.3358,27.86982 37.007399,34.26618 16.447764,-6.39636 29.240451,-6.39636 38.378072,0 19.18903,0 29.69731,-17.8184 31.52483,-53.45519 l 13.70643,-2.74128 c 21.01655,38.37805 44.54595,60.53682 70.5882,66.47631 26.04226,5.93946 39.06338,19.41743 39.06338,40.43399 l 47.97261,38.37807 c 0,63.04965 26.04224,124.72865 78.1267,185.03699 56.65334,30.15422 112.84978,38.37812 168.58934,24.67171 -92.68252,-60.8603 -150.54581,-43.22083 -148.71497,-230.26838 2.28444,-33.80922 15.76246,-63.04965 40.43406,-87.72129 24.67159,-24.6716 42.94686,-63.50653 54.82579,-116.50477 18.27524,0 27.41286,3.19818 27.41286,9.59453 -11.87888,52.99825 -30.83947,93.43226 -56.88177,121.30204 -26.04225,27.86977 -38.83495,65.79096 -38.37808,113.76355 4.66175,139.33188 215.81908,233.40175 217.24726,59.62299 l -67.16161,-95.94509 21.93029,-8.22392 42.49003,56.19647 c 21.01658,11.87893 31.52483,25.58538 31.52483,41.11936 l 15.07704,115.13415 c 132.49573,11.87893 275.49964,-9.59451 429.01177,-64.42032 -6.3963,-10.05141 -17.3614,-18.27527 -32.8954,-24.67158 l 6.8533,-21.93036 c 91.0588,18.63777 193.3482,76.02579 336.6062,157.91531 -29.2405,-36.55048 -23.6424,-66.53894 -36.435,-119.53723 100.9828,-142.56399 52.6722,-350.82502 -31.5248,-371.44473 v -20.55968 c 23.7578,-3.65507 46.6018,2.74129 68.5322,19.18901 -13.7065,-18.27524 -44.0891,-29.01196 -91.1479,-32.21013 -175.5121,-11.92804 -227.8288,-1.94053 -289.8913,14.39173 C 897.29144,185.78273 740.87724,165.12754 588.69191,120.04604 475.8422,85.323038 400.22831,67.504664 361.85026,66.590926 c -7.31015,37.464274 -17.81844,60.993674 -31.5249,70.588204 -13.70641,9.59449 -30.38256,12.56422 -50.02845,8.90917 -19.64595,-3.65506 -34.49462,-2.28442 -44.54602,4.11189 -10.05136,6.39636 -20.57871,3.49433 -30.03307,-7.679 -24.6716,17.3615 -48.55054,28.23868 -71.39466,33.72125 14.62024,24.67165 21.01659,47.97261 19.18907,69.9029 h -5.48257 c 0,-17.3615 -5.02568,-31.75325 -15.07711,-43.17527 -10.05141,-11.42206 -18.04683,-22.15879 -23.98627,-32.2102 -5.93948,-10.05136 -9.822995,-21.93027 -11.650517,-35.63672 24.671597,-3.65505 60.186717,-2.48887 107.702437,5.73497 l -10.38667,-24.92404 130.21133,-65.790938 7.89935,5.322762 -118.92161,57.726886 9.59453,26.04226 c 4.56879,-7.3101 12.33576,-10.96515 23.3009,-10.96515 14.62024,0.91379 31.52487,1.14222 50.7139,0.68531 19.18902,-0.45688 32.89548,-23.98628 41.11936,-70.588209 z m -220.67385,90.462579 9.59454,15.07711 35.63672,-13.7065 z M 1281.5529,631.29657 c -35.6367,26.49912 -61.2221,61.67897 -76.7561,105.53962 -6.3961,21.93036 -21.0166,37.00746 -43.8606,45.23132 -28.3267,63.96337 -42.0332,106.91023 -41.1194,128.84059 0.9139,21.93029 -5.0259,33.12392 -17.8184,33.58081 -12.7927,0.4563 -23.7578,-0.68511 -32.8955,-3.42686 l -17.8184,57.56708 H 919.70265 c 6.39609,-36.55057 23.30096,-66.24789 50.71383,-89.09197 61.95132,-61.95132 93.36652,-120.88389 113.76362,-197.37288 l -5.4828,-116.50477 C 1006.51,613.9348 970.41628,626.2706 970.41628,632.66691 l -16.44772,79.49737 h -19.1888 c -10.05143,-37.46422 -15.07711,-65.79085 -15.07711,-84.97987 -51.17072,9.13762 -123.81491,12.79264 -217.93256,10.96508 6.39609,26.49914 13.47808,47.05882 21.24505,61.67904 7.76697,14.62021 10.73673,29.24043 8.90923,43.86064 -1.82783,14.62022 -1.82783,31.29642 0,50.02853 1.82783,18.73211 15.07704,52.31292 39.74869,100.74235 16.44771,29.24043 6.39609,47.05883 -30.15422,53.45519 V 1000 H 609.93696 c 10.05141,-37.46428 27.86978,-68.07539 53.45512,-91.83318 L 649.68565,784.80873 c -18.27529,-16.44772 -29.69732,-37.46422 -34.26611,-63.04958 l -45.23133,-69.9029 c -21.93029,5.48257 -44.31747,20.55968 -67.16154,45.23125 -37.46431,25.58537 -58.48089,47.74414 -63.04972,66.47631 -4.56879,18.73212 -17.36146,33.12385 -38.37801,43.17528 -40.20558,51.17079 -59.62304,86.5791 -58.25238,106.22493 1.37061,19.64596 -3.19825,28.32671 -13.7065,26.04232 -10.50827,-2.28413 -16.21929,2.51294 -17.13302,14.39173 L 287.83539,1000 h -126.0993 c 15.53398,-42.03307 36.09366,-74.01479 61.67904,-95.94508 9.13763,-28.32671 26.4991,-48.8864 52.08444,-61.67911 29.24043,-42.03308 44.31754,-71.04503 45.23133,-87.03586 0.91371,-15.99089 5.02568,-27.86982 12.33582,-35.63678 7.31009,-7.76704 20.55966,-30.38263 39.74868,-67.84692 v -17.8184 c -63.04965,-67.61848 -94.57448,-133.40944 -94.57448,-197.37288 -22.84407,-16.44771 -37.46429,-32.43856 -43.86064,-47.97254 -6.39636,-15.53398 -19.18905,-26.27071 -38.37808,-32.2102 -19.18902,-5.93944 -34.723,-16.67615 -46.60193,-32.21013 -10.05141,19.18903 -21.93031,29.24044 -35.63672,30.15422 -69.446011,0 -104.1690149,-7.31012 -104.1690149,-21.93036 C 3.1981784,327.01339 0,316.04824 0,299.60053 0,284.06655 8.2238589,269.44633 24.671577,255.73988 45.688171,197.25902 55.511142,162.99289 54.140487,152.94148 52.769833,142.89012 53.45516,129.64056 56.196469,113.19279 81.327038,35.008731 111.14594,3.7459858 246.71603,0.11461728 297.8868,-1.2560371 334.89422,9.4806733 357.73829,32.324748 c 70.3598,11.878929 169.73156,35.636788 298.1153,71.273572 128.3837,35.63675 237.1215,42.03308 326.2134,19.18901 89.09191,-22.844076 189.60581,-33.123916 301.54191,-30.839522 111.936,2.284394 185.037,35.179872 219.3032,98.686442 34.2661,63.50652 45.4597,171.10214 33.5807,322.78687 -0.9139,19.18903 16.9047,71.73041 53.4551,157.62413 18.2754,87.7213 23.301,151.91314 15.0772,192.57561 -15.1627,74.9707 -68.2092,81.47459 -86.3506,8.90917 -18.7509,-75.00424 -8.8025,-212.76674 -15.0769,-324.15749 -1.8278,-32.43861 -2.2849,-78.81209 -1.3709,-139.12043 0.8994,-59.34612 -6.8265,-114.03515 -24.5088,-159.22387 l -1.5334,0.22907 c 32.1463,88.87556 7.8477,236.61174 -41.1194,289.20607 10.0514,39.29179 29.2404,80.41113 57.5671,123.35801 -16.9755,141.46379 10.5072,238.48885 19.189,264.53443 4.5689,13.70643 -5.4828,20.55968 -30.1542,20.55968 V 1000 H 1339.12 c 3.655,-34.723 21.0166,-66.24782 52.0844,-94.57447 5.4829,-100.51394 -5.711,-168.81775 -33.5807,-204.91143 -27.8698,-36.09368 -53.2267,-59.16617 -76.0708,-69.21753 z M 331.69604,67.961536 c -26.70676,6.283938 -53.21607,18.324352 -94.57448,49.343224 1.82751,2.74128 9.82295,4.11189 23.98628,4.11189 14.16332,0 25.35692,-0.22815 33.5808,-0.6853 13.38491,-0.28954 20.38749,-10.84444 25.35688,-21.930293 1.37066,-3.198179 -1.14217,-1.142217 -7.53848,6.167873 -6.39636,7.3101 -15.534,10.50828 -27.41293,9.59454 -11.87893,-0.91378 -14.16333,-4.56884 -6.85319,-10.96515 7.3101,-6.396353 25.12847,-18.275282 53.45512,-35.636784 z"
     id="path2458"
     sodipodi:nodetypes="cscccccsssscccccscccccsccscccccccccccccccssscsssccccsscccccccssccccccccsscccccccccccssscccccccccscsscccccsscccsscccscscscssssccssssccccsccccscccssssssc" />
</svg>
