<?xml version="1.0" encoding="UTF-8" standalone="no"?>
<svg
   width="1000"
   height="1000"
   version="1.1"
   id="svg1"
   sodipodi:docname="E20A.svg"
   inkscape:version="1.4.2 (f4327f4, 2025-05-13)"
   xmlns:inkscape="http://www.inkscape.org/namespaces/inkscape"
   xmlns:sodipodi="http://sodipodi.sourceforge.net/DTD/sodipodi-0.dtd"
   xmlns="http://www.w3.org/2000/svg"
   xmlns:svg="http://www.w3.org/2000/svg">
  <defs
     id="defs1" />
  <sodipodi:namedview
     id="namedview1"
     pagecolor="#ffffff"
     bordercolor="#666666"
     borderopacity="1.0"
     inkscape:showpageshadow="2"
     inkscape:pageopacity="0.0"
     inkscape:pagecheckerboard="0"
     inkscape:deskcolor="#d1d1d1"
     showguides="true"
     inkscape:zoom="0.755"
     inkscape:cx="187.41722"
     inkscape:cy="437.74834"
     inkscape:window-width="1680"
     inkscape:window-height="998"
     inkscape:window-x="-8"
     inkscape:window-y="-8"
     inkscape:window-maximized="1"
     inkscape:current-layer="svg1" />
  <path
     style="fill:#000000;stroke:none;stroke-width:0.999999"
     d="m 305.29151,139.15481 h 31.42233 c 32.17049,-1.49631 69.20398,-39.277942 111.10043,-113.344894 -38.90383,26.93343 -66.95949,46.759435 -84.16695,59.478014 -17.20752,12.718582 -36.65946,30.67421 -58.35581,53.86688 z m -95.38923,76.31137 c 2.99261,20.94822 -9.35189,32.91865 -37.03349,35.91126 l -6.73334,7.85555 -5.61113,-4.48887 c 6.73338,-7.48152 9.35191,-14.21488 7.8556,-20.20008 8.22965,-14.21486 22.07043,-20.57414 41.52236,-19.07786 z M 74.112894,329.93327 c 5.985202,-5.9852 11.596337,-8.79076 16.833404,-8.41667 5.237029,0.37408 7.855543,4.30186 7.855543,11.78334 0,7.48151 -6.733358,12.34449 -20.200072,14.58893 l -1.122205,-6.73333 c 8.977823,-1.49632 12.718579,-4.30187 11.222268,-8.41668 -1.496309,-4.11484 -4.862997,-3.92782 -10.100063,0.56108 z m 46.011276,22.44454 c 0,6.73338 -5.05002,13.84081 -15.15007,21.32228 -10.100041,7.4815 -14.02784,16.8334 -11.783393,28.05566 l 20.200073,-26.93341 2.24447,13.46668 c 7.48151,-0.74814 10.10004,-9.35186 7.85559,-25.81115 l -2.24447,-10.10006 z M 196.43553,157.11042 C 168.75398,141.39926 144.81314,129.80292 124.61305,122.32141 104.413,114.83989 72.242516,103.61763 28.101613,88.6546 87.953675,147.01039 133.59087,173.19568 165.0132,167.21048 Z M 232.3468,147.01041 C 201.67263,125.31401 169.12805,109.97689 134.71311,100.99908 100.29817,92.021287 61.020247,83.043483 16.879345,74.065661 l -5.611135,4.48893 c 95.76332,20.948225 165.34136,46.385349 208.73412,76.311359 z m -5.61113,198.63406 c 23.94082,3.74075 37.22048,16.27227 39.83902,37.59455 2.61853,21.32232 11.03525,56.11135 25.25013,104.3671 14.21485,48.2557 22.4445,74.628 24.68895,79.11689 0.74817,-7.48147 7.48152,-25.81117 20.20007,-54.98908 l 16.83341,14.58899 c -17.20748,43.39272 -25.06306,70.32616 -23.56675,80.8003 -8.22965,98.00775 -15.15004,172.63582 -20.7612,223.88419 -5.61112,51.2483 -11.9704,82.48357 -19.07787,98.19476 -7.10738,15.71117 -20.38706,22.81859 -39.83902,21.32228 -23.19266,-1.4963 -36.28529,7.10741 -39.27789,25.81115 h 3.36667 c 8.97779,-12.71853 19.82598,-19.0778 32.54456,-19.0778 v 4.48903 c -6.73334,1.49635 -12.34448,6.35933 -16.8334,14.58894 h 8.9778 c 0,-6.7333 7.10742,-11.97032 21.32228,-15.71108 v 5.61113 l -10.10002,10.09995 c 45.63722,8.22972 68.45583,-1.87029 68.45583,-30.30002 9.72595,-74.81512 22.07044,-128.86903 37.03347,-166.65064 14.96303,-37.78161 33.66678,-76.12434 56.11129,-115.02818 l 24.689,12.34447 -31.42233,56.11129 c 44.1409,22.44454 76.49844,33.47979 97.07261,33.10573 20.57414,-0.37408 39.09086,2.05741 55.55016,7.29447 0,-20.20009 9.72598,-45.26317 29.17793,-75.18921 l 19.07781,13.46674 c -15.71116,20.94822 -23.56674,51.24835 -23.56674,90.90035 0,38.90384 23.94082,83.04476 71.82243,132.42276 l -5.61107,17.95555 c -38.90384,3.74076 -101.7485,0.74814 -188.534,-8.97785 -10.47413,0 -16.45935,11.59634 -17.95566,34.78901 h 6.73339 c 0,-18.70375 7.4815,-28.05562 22.44449,-28.05562 -5.98521,5.9852 -8.9778,15.33707 -8.9778,28.05562 h 4.48892 c 0,-12.71855 9.72595,-19.07781 29.17782,-19.07781 -10.47409,8.97782 -15.71113,15.33709 -15.71113,19.07781 h 222.20084 c 2.9927,-11.2222 11.03533,-14.02774 24.12788,-8.41662 13.09259,5.61108 24.68893,5.98516 34.78901,1.12227 10.10004,-4.86302 13.8408,-49.00392 11.22227,-132.42271 -2.61861,-83.41883 -26.7465,-145.88945 -72.38367,-187.41186 -45.63717,-41.52252 -86.78547,-70.8875 -123.4449,-88.09498 -36.65935,-17.20743 -66.2113,-32.35748 -88.65585,-45.45015 -22.44453,-13.09263 -38.52978,-24.87601 -48.25574,-35.35014 -9.72595,-10.4741 -30.86122,-45.07606 -63.40581,-103.8059 -32.54456,-58.72988 -51.62238,-102.12265 -57.2335,-130.17829 -5.61115,-28.05567 -18.14269,-48.81685 -37.5946,-62.28357 -5.98521,0.74818 -9.35188,-3.74072 -10.10002,-13.46668 14.21486,-7.48154 33.66679,-13.46676 58.35576,-17.95566 H 270.50249 C 310.1545,105.48799 373.37327,58.354481 460.1588,13.465442 l -4.48893,-3.366669 c -40.40014,20.200054 -76.12435,39.277904 -107.17263,57.23355 -31.04827,17.955606 -59.66506,43.766817 -85.85035,77.433627 -12.71854,11.97041 -25.62414,22.63154 -38.71681,31.98341 -13.09264,9.35191 -23.75377,15.52415 -31.98342,18.51674 -8.22968,2.99262 -15.15008,11.22229 -20.7612,24.689 -5.61112,13.46671 -13.27966,23.56675 -23.00561,30.30008 -9.72596,6.73338 -28.80381,26.55939 -57.233552,59.47802 -14.963025,5.9852 -20.948248,20.20008 -17.955664,42.64461 -3.740757,8.22965 -3.740757,16.4593 0,24.68895 0.748173,4.48892 3.740793,5.23708 8.97786,2.24447 13.466719,-6.73334 20.385726,-16.47577 22.630176,-30.69067 l -21.507972,21.71286 -2.244465,-3.36667 c 8.977823,-11.22227 18.703784,-20.57416 29.177887,-28.05568 l 2.24446,3.36667 -6.4114,5.28919 c 11.9704,-2.24444 21.74848,2.56641 29.97813,13.78868 44.1409,-20.20005 77.2466,-31.98343 99.31709,-35.35014 22.07041,-3.36667 37.96863,-17.76856 47.69462,-43.20568 3.74072,15.71116 1.87033,28.99083 -5.61114,39.83901 -7.48151,10.84818 -24.31492,18.51674 -50.50021,23.00567 z M 797.9489,781.06832 850.69353,458.9893 847.32674,425.3225 c -2.24451,-23.94081 -2.6186,-51.99646 -1.12225,-84.16696 2.99269,-20.94822 16.83347,-29.17787 41.52235,-24.68895 2.24452,-15.71119 11.59641,-22.07049 28.05566,-19.07786 14.96303,2.99257 21.3223,12.71853 19.07781,29.17786 23.94083,4.4889 33.66679,16.83339 29.17789,37.03349 -8.22965,35.16308 -16.64634,62.65762 -25.25007,82.48363 -8.60371,19.826 -25.81118,105.67633 -51.62242,257.551 -25.81121,151.87462 -43.39274,233.79712 -52.74462,245.76748 -9.35191,11.97044 -20.01307,22.07049 -31.98348,30.30014 -0.74816,12.71855 -8.22967,19.07782 -22.44448,19.07782 -13.46671,0 -124.19306,0.37408 -332.17903,1.12227 -20.94822,0 -31.42234,-7.10746 -31.42234,-21.32235 0,-25.43707 10.10003,-42.64451 30.30008,-51.62229 4.4889,-2.24453 25.43715,-1.12227 62.84474,3.36677 37.40753,4.48889 64.71503,7.10743 81.9225,7.85559 17.20747,0.74818 25.43712,-2.99256 24.68895,-11.22221 -38.90373,-34.41508 -58.35559,-75.56347 -58.35559,-123.44512 -20.20008,-8.22965 -40.77426,-12.15743 -61.72248,-11.78334 -20.94819,0.37408 -55.7372,-9.53892 -104.36704,-29.73901 -8.97778,17.95561 -19.07781,46.38534 -30.30007,85.28917 -11.22228,38.90387 -16.08526,72.57066 -14.58894,105.48928 1.49627,32.91867 -7.10746,48.62979 -25.81121,47.13351 H 177.35772 c 7.48151,-50.12607 25.06306,-75.18911 52.74463,-75.18911 22.44453,0 35.1631,-5.23707 38.15568,-15.71121 2.99261,-10.47412 6.54635,-27.49457 10.66119,-51.06133 4.11481,-23.56677 8.41668,-62.09652 12.9056,-120.07818 4.4889,-57.98171 5.98518,-96.32443 4.48888,-115.02818 -1.49631,-18.70378 -10.28708,-52.74465 -26.37228,-102.12262 -16.08526,-49.37797 -25.62419,-87.90775 -28.61681,-115.58931 -2.99258,-27.68159 -24.31487,-39.27796 -63.96689,-34.78906 l -28.05566,7.8556 c -8.97783,1.4963 -13.09265,5.61112 -12.34448,12.34447 1.49627,9.726 -7.48156,16.08529 -26.93346,19.07787 1.49631,9.72596 -3.36667,15.3371 -14.588948,16.8334 -12.718542,1.49627 -20.948192,-9.35193 -24.688947,-32.5446 -13.466715,2.24449 -20.948229,-2.61849 -22.444539,-14.58893 -3.740756,-8.22965 -4.114842,-16.8334 -1.12226,-25.81122 -4.488893,-31.42231 7.107463,-52.74461 34.789068,-63.96689 11.222231,-12.71857 20.012986,-23.37973 26.372276,-31.98348 6.3593,-8.60369 15.52414,-17.2074 27.49454,-25.81113 11.97045,-8.60379 20.01307,-18.89087 24.12788,-30.86127 4.11484,-11.97041 12.53153,-18.70377 25.25008,-20.20008 -13.46672,4.48893 -29.92603,5.42413 -49.37796,2.8056 C 116.3834,180.86423 92.068504,166.27527 62.890626,139.71588 33.712749,113.15654 13.138588,95.387957 1.1681458,86.410135 -2.5726104,72.94342 2.664456,65.461926 16.879345,63.965652 c 44.140902,6.73334 84.915125,13.840766 122.322635,21.322278 37.40757,7.481513 73.31883,23.19268 107.73377,47.13348 27.68156,-35.911212 58.72982,-62.470554 93.14476,-79.678027 34.41494,-17.207472 71.82251,-34.414943 112.22269,-51.6224146 14.21486,-3.7407562 20.9482,1.8703784 20.20002,16.8334046 -8.22962,11.222231 -23.0056,33.66675 -44.32795,67.333557 -21.32228,33.6668 -40.4001,56.11133 -57.23349,67.33356 -16.83342,11.22227 -37.22054,20.57416 -61.16135,28.05567 20.20005,14.96302 31.98343,35.1631 35.35014,60.60022 3.36667,25.43715 21.50933,66.21139 54.42796,122.3227 32.91866,56.11131 54.05393,89.02994 63.40581,98.75589 9.35187,9.72596 23.19266,20.01303 41.52236,30.86122 18.32969,10.84822 49.00388,26.5594 92.02255,47.13354 43.01872,20.57415 89.21705,52.93167 138.59498,97.07257 33.66676,30.67418 54.615,78.55586 62.84467,143.64502 z m 3.36678,160.47839 c 5.23708,0.74816 10.8482,-4.11481 16.83341,-14.58893 11.9704,-51.62246 26.55935,-123.44497 43.76681,-215.46753 17.20741,-92.02256 32.17038,-173.19694 44.88892,-243.52314 29.92605,-77.05954 40.21316,-116.5245 30.86132,-118.39489 -9.35195,-1.87036 -20.38719,30.86124 -33.10574,98.19482 l -8.97781,-1.12221 c 21.69634,-77.05954 26.9334,-116.71154 15.71122,-118.95602 v 0 c -11.97048,-2.24445 -19.45202,36.65941 -22.4446,116.71156 l -8.97775,-1.12221 c 8.22968,-68.82993 7.66856,-104.18006 -1.68339,-106.05042 -9.35188,-1.87035 -11.03526,38.71683 -5.05017,121.76156 -11.22227,74.8151 -35.1631,235.66756 -71.82249,482.55741 z"
     id="path1"
     sodipodi:nodetypes="cccsccccccccssccscccscccccccsccccccccccssccccsscccccccccccscccscccscccccccccccsssssssssccccccscsssscccccccccccscscccccccccssscscscssccscssccssssssscccccccccssscssccscsccsscsssssccscscsccssccsccs" />
</svg>
