<?xml version="1.0" encoding="UTF-8" standalone="no"?>
<svg
   width="1600"
   height="1000"
   version="1.1"
   id="svg1"
   sodipodi:docname="E214A.svg"
   inkscape:version="1.4.2 (f4327f4, 2025-05-13)"
   xmlns:inkscape="http://www.inkscape.org/namespaces/inkscape"
   xmlns:sodipodi="http://sodipodi.sourceforge.net/DTD/sodipodi-0.dtd"
   xmlns="http://www.w3.org/2000/svg"
   xmlns:svg="http://www.w3.org/2000/svg">
  <defs
     id="defs1" />
  <sodipodi:namedview
     id="namedview1"
     pagecolor="#ffffff"
     bordercolor="#666666"
     borderopacity="1.0"
     inkscape:showpageshadow="2"
     inkscape:pageopacity="0.0"
     inkscape:pagecheckerboard="0"
     inkscape:deskcolor="#d1d1d1"
     inkscape:zoom="0.49544615"
     inkscape:cx="634.7814"
     inkscape:cy="802.30717"
     inkscape:window-width="1680"
     inkscape:window-height="998"
     inkscape:window-x="-8"
     inkscape:window-y="-8"
     inkscape:window-maximized="1"
     inkscape:current-layer="svg1" />
  <path
     id="path1"
     style="fill:#000000;stroke:none;stroke-width:0.999997"
     d="m 705.4043,0 c -2.18466,-1.7412695e-6 -4.54303,0.18137261 -7.07422,0.54296875 C 492.6324,64.82355 447.83786,89.054712 380.12305,161.0918 306.22371,99.257678 261.5624,83.502116 51.792969,29.470703 c -20.249496,0 -28.446882,10.123551 -24.589844,30.373047 15.428189,14.46392 42.668078,43.15088 81.720705,86.06055 35.66888,39.19175 82.65401,86.59926 160.16992,78.33008 -11.91664,3.71482 -20.70844,11.59499 -26.37695,23.64062 -7.71408,16.39246 -20.97422,29.89312 -39.77735,40.5 -18.80309,10.60689 -33.26587,21.93694 -43.39062,33.99023 -10.12475,12.05328 -24.82998,26.27555 -44.11524,42.66797 -41.463257,12.53542 -61.231231,41.46287 -59.302731,86.78321 -3.857037,13.49965 -4.338118,26.03627 -1.445312,37.60742 0.964231,18.32096 11.570779,26.51639 31.820312,24.58789 0.964231,34.71345 11.087784,51.58736 30.373051,50.62305 16.39246,-0.96423 24.58984,-8.19567 24.58984,-21.69532 27.96357,-1.92853 41.46228,-10.12397 40.49805,-24.58789 0,-9.64265 6.75035,-14.94588 20.25,-15.91015 l 47.73047,-20.25 c 25.07083,2.89277 45.56232,7.95552 61.47265,15.1875 15.91032,7.23198 29.65151,34.95489 41.22266,83.16797 54.96291,92.56917 69.9087,142.70971 44.83789,150.42382 -25.0708,7.71411 -73.04275,15.4285 -143.91602,23.14258 -70.87327,7.71407 -128.24716,23.14285 -172.121091,46.28516 -43.873895,23.1423 -69.426224,47.49004 -76.6582028,73.04297 -7.2319786,25.55297 -6.2679379,51.1053 2.8925782,76.6582 9.1604796,25.55297 18.5605116,40.01767 28.2031246,43.39258 9.642614,3.3749 38.572052,5.30301 86.785161,5.78515 48.21311,0.48213 153.31647,-5.54466 315.3125,-18.08007 22.17803,8.67838 54.48067,14.46277 96.9082,17.35546 38.57049,0.96427 61.71365,-13.98155 69.42773,-44.83789 7.71407,-30.85657 -4.09903,-47.4899 -35.4375,-49.90039 -36.03657,-2.77185 -59.10285,-4.28574 -74.68554,-4.59765 56.09412,-3.7881 91.25946,-7.7762 107.23047,-12.03516 8.67837,-5.78557 15.90973,-12.53592 21.69531,-20.25 24.10653,0.96431 66.53468,2.89243 127.2832,5.78516 60.74853,2.89281 103.17472,-0.23988 127.28125,-9.40039 24.10653,-9.16048 46.28563,-18.07947 66.53516,-26.75782 13.49969,20.2495 29.40955,42.42668 47.73047,66.53321 6.74981,14.46377 -16.15085,20.49056 -68.70313,18.08008 -52.55224,-2.41063 -110.40725,-7.23284 -173.56641,-14.46485 -63.15919,-7.23201 -98.59646,-8.91953 -106.31054,-5.0625 -25.07084,9.64265 -37.60742,35.19687 -37.60742,76.66016 0,14.46388 13.01762,21.69531 39.05273,21.69531 h 584.3437 c 95.462,0 121.9783,-72.31971 79.5508,-216.95898 -0.9643,-14.46395 2.1705,-30.61622 9.4024,-48.45508 7.232,-17.83883 15.9104,-39.29248 26.0351,-64.36328 16.4331,-40.6914 50.6631,-66.90784 77.3809,4.33984 -26.0352,9.64261 -39.534,33.26682 -40.4981,70.87305 l -14.4648,108.47851 c -0.9642,17.35687 9.1613,26.5183 30.375,27.48242 22.1783,0.96427 33.7488,-6.26907 34.7129,-21.69726 l 14.4648,-109.92578 c 3.8571,-23.14227 8.6773,-23.14227 14.4629,0 l 21.6973,107.0332 c 1.9285,16.39253 13.9821,23.62588 36.1601,21.69727 20.2494,-4.82131 29.8919,-14.94681 28.9278,-30.375 l -26.0352,-108.48047 c -2.8927,-40.49907 -17.3575,-62.19321 -43.3926,-65.08594 -17.3567,-67.49833 -48.4547,-101.24805 -93.2929,-101.24805 -44.8382,0 -74.7297,16.8739 -89.6758,50.62305 -14.946,33.74918 -30.6153,53.9982 -47.0078,60.74805 -22.1781,-24.10657 -59.5434,-50.38242 -112.0957,-78.82813 C 1083.311,577.41168 1002.0723,569.9398 892.14648,583.43945 662.05911,611.69582 631.55468,598.1467 549.35156,459.77148 520.42368,411.07624 505.23546,368.16706 503.78906,331.04297 502.34269,293.91888 487.63939,263.30384 459.67578,239.19727 553.22029,223.22632 590.97565,194.78096 651.32227,119.14648 687.48212,73.826189 712.3109,42.970583 725.81055,26.578125 727.49798,8.8598164 720.69689,1.2188887e-5 705.4043,0 Z m -4.18164,13.560547 7.23242,5.785156 C 575.38692,71.415845 476.06788,130.71785 410.49805,197.25195 l 86.7832,8.67774 c -36.64195,2.89277 -65.56943,8.67907 -86.7832,17.35742 0,13.49969 3.8562,20.25 11.57031,20.25 26.99934,23.1423 42.66868,55.20246 47.00781,96.18359 4.33921,40.98113 20.73203,85.82039 49.17774,134.51563 75.03558,128.45073 109.63902,185.79881 362.32226,149.70117 101.24748,-14.46392 178.38743,-10.12472 231.42183,13.01758 53.0344,23.14227 87.9887,47.73055 104.8633,73.76562 16.8746,26.03507 32.0628,31.82131 45.5625,17.35742 22.1779,-21.2138 40.7395,-48.69616 55.6856,-82.44531 14.9461,-33.74929 38.8108,-50.38264 71.5957,-49.90039 32.7848,0.48213 54.481,31.58022 65.0879,93.29297 28.9277,5.78558 44.3565,24.10652 46.2851,54.96289 l 20.25,91.12305 c 1.9285,12.53531 -0.9656,19.7667 -8.6797,21.69531 -5.7855,0.96427 -9.6417,-4.82005 -11.5703,-17.35547 l -21.6953,-92.57031 c -0.9643,-14.46388 -5.7864,-24.58744 -14.4648,-30.37305 -8.6783,-5.78561 -17.8379,-5.06401 -27.4805,2.16797 -9.6428,7.23194 -14.948,16.63397 -15.9121,28.20508 l -11.5703,86.7832 c 0,10.60673 -3.8562,15.42897 -11.5703,14.46485 -5.7854,0 -8.1966,-5.78631 -7.2325,-17.35743 l 11.5704,-83.89062 c 0,-27.96357 13.9816,-47.24858 41.9453,-57.85547 -10.6069,-56.89133 -29.8919,-85.5783 -57.8555,-86.06055 -27.9636,-0.48213 -49.1767,15.42769 -63.6406,47.73047 -14.464,32.30278 -33.2679,72.0793 -56.4102,119.32813 36.642,103.17602 39.2936,163.9251 7.9551,182.24609 -75.4722,44.12218 -121.388,-14.12477 -143.1914,-56.41015 -15.9103,-30.85639 -35.4378,-54.96163 -58.5801,-72.31836 8.6783,37.60626 34.7137,88.71088 78.1055,153.3164 H 699.77539 c 0,-5.78557 8.67843,-15.90912 26.03516,-30.37304 -31.82065,-10e-6 -47.73047,10.60651 -47.73047,31.82031 h -10.125 c 0,-21.2138 5.78627,-37.1255 17.35742,-47.73242 -25.07081,0 -37.60547,15.9117 -37.60547,47.73242 h -13.01758 c 3.85704,-38.57053 14.46359,-57.85547 31.82032,-57.85547 l 180.79882,17.35547 C 990.9837,950.34007 1064.2675,947.929 1067.1602,930.57227 890.87751,740.55354 933.91821,670.17444 1007.8574,672.39258 c 48.2131,1.4464 115.2296,48.93534 201.0488,142.46875 V 790.27344 C 1135.6223,689.99031 1060.1699,639.60725 982.54688,639.125 c -77.62307,-0.48213 -96.18649,54.7212 -55.6875,165.61133 -19.28524,4.82134 -39.05126,12.53569 -59.30079,23.14258 -49.60886,25.98553 -218.15166,-0.65901 -238.65625,-5.78516 l -2.89257,-63.64063 -20.25,-30.375 c -1.9285,76.17669 -12.05206,119.32838 -30.37305,129.45313 -18.32096,10.12456 -75.93541,16.39187 -172.84375,18.80273 -96.90831,2.41067 -172.12209,-1.44751 -225.63867,-11.57226 -53.51655,-10.12479 -80.273441,0.72427 -80.273441,32.54492 0,26.03503 26.756891,36.15859 80.273441,30.37305 53.51658,-5.78543 166.09576,-8.19459 337.73437,-7.23047 l -18.80469,23.14062 -1.44531,8.67969 c 22.17799,-4.82131 33.74858,-14.94681 34.71289,-30.375 l 15.91016,1.44727 c -7.71408,16.39246 -16.87359,26.035 -27.48047,28.92773 l -1.44727,5.78516 c 20.24949,0 39.05339,-11.57062 56.41016,-34.71289 h 4.33789 c -1.9285,32.78481 -23.6246,47.73062 -65.08789,44.83789 -30.85634,-4.82134 -54.96163,-11.08866 -72.31836,-18.80274 -161.99604,11.57108 -266.37783,18.31944 -313.14453,20.24805 -46.766741,1.92858 -74.489624,-6.99037 -83.167969,-26.75781 -8.678344,-19.76736 -9.401863,-39.2929 -2.169922,-58.57813 7.231979,-19.28523 29.411068,-38.81268 66.535161,-58.58008 37.12409,-19.76736 102.21236,-34.47262 195.26367,-44.11523 93.05127,-9.64261 140.05721,-26.75699 141.02148,-51.3457 0.96427,-24.58867 -20.24883,-81.23904 -63.64062,-169.95117 -15.42819,-49.17738 -25.07071,-76.17678 -28.92774,-80.99805 -3.85708,-4.82135 -11.57147,-8.67946 -23.14258,-11.57227 33.74915,-3.85703 56.89232,-13.01655 69.42774,-27.48047 12.53542,-14.46392 17.3557,-33.7489 14.46289,-57.85547 -18.32095,35.67773 -43.87328,54.47971 -76.6582,56.40821 -32.78491,1.92854 -82.92742,14.46512 -150.42578,37.60742 -10.60689,-17.35673 -23.82886,-26.1342 -41.18555,-25.16992 l 7.91992,-5.20508 -1.44727,-4.33984 c -16.39245,8.67838 -32.30227,20.25092 -47.73046,34.71484 l 4.33984,5.78516 35.26758,-29.75 c -5.78557,20.24949 -18.39365,34.08922 -39.60742,42.76757 -7.714116,3.85703 -11.57227,2.40997 -11.57227,-4.33984 -3.857038,-12.53542 -2.410001,-24.58905 4.339844,-36.16016 -1.928537,-32.78491 8.678016,-52.55093 31.820316,-59.30078 45.3203,-43.39179 75.69485,-69.42712 91.12304,-78.10547 15.42819,-8.67838 28.20533,-22.41956 38.33008,-41.22265 10.12479,-18.80313 21.45485,-29.40968 33.99024,-31.82031 12.53541,-2.41067 28.92823,-9.64207 49.17773,-21.69532 20.24949,-12.05329 40.49856,-25.31339 60.74805,-39.77734 C 469.66584,107.33505 508.54384,88.825633 701.22266,13.560547 Z M 688.20508,36.703125 C 615.88544,136.98638 556.5834,186.16291 510.29883,184.23438 l -47.73047,-5.78516 C 521.88391,127.1493 536.74498,118.44354 688.20508,36.703125 Z M 50.345703,45.380859 C 251.0488,103.15897 297.53764,129.98963 355.53516,179.89453 l -18.80274,10.125 C 277.91243,139.87789 180.03848,93.1125 43.113281,49.720703 Z M 66.255859,67.076172 C 202.44563,125.74251 233.35122,141.95308 302.01758,190.01953 l -46.2832,10.125 C 208.4855,204.96584 145.32534,160.60957 66.255859,67.076172 Z M 249.94727,298.5 c 1.92853,7.71411 -2.89175,16.87362 -14.46289,27.48047 l 8.67773,5.78515 10.125,-10.12304 c 41.46329,0 61.23126,-15.42879 59.30273,-46.28516 -24.34334,-4.34704 -46.83139,1.07791 -63.64257,23.14258 z M 122.62109,413.13672 c -6.96077,-0.36914 -14.66037,2.40056 -23.097652,8.30664 l 4.337892,7.23047 c 9.64265,-5.78557 15.1884,-5.78557 16.63476,0 1.44641,5.78558 -4.58042,9.16077 -18.08007,10.125 v 8.67969 c 20.2495,-0.96423 31.09656,-6.50998 32.54296,-16.63477 1.53024,-10.71183 -2.02676,-17.16026 -12.33789,-17.70703 z m 40.54297,48.80469 h 2.89258 l 1.44727,14.46484 c 0.96427,24.10657 -4.33901,36.16016 -15.91016,36.16016 l -1.44727,-20.25 -33.26757,36.16015 c -1.92853,-17.35673 5.06233,-30.37438 20.97265,-39.05273 15.91033,-8.67835 24.34823,-17.83977 25.3125,-27.48242 z m -9.76367,425.7832 c 26.74194,-0.63654 52.94497,5.56835 79.24609,9.54297 -7.25541,0.8611 -14.50623,1.83795 -21.75195,2.93164 -51.10587,7.71404 -76.6582,6.75007 -76.6582,-2.89258 0,-5.78548 6.38759,-8.97941 19.16406,-9.58203 z"
     sodipodi:nodetypes="sccccscssscccccccccscsssssssccsscccssccsscssscssccccccccccccsscsssscscsccccccssssscssccccccssccccccsscssccccccccccccsccscscccssssscccccccccccsssssscscscscccccccccccsssscccccccccccccccccccccsccsccssccccccscscsss" />
</svg>
