<?xml version="1.0" encoding="UTF-8" standalone="no"?>
<svg
   width="17.281361"
   height="16.799999"
   id="svg1071"
   sodipodi:version="0.32"
   inkscape:version="1.4.2 (f4327f4, 2025-05-13)"
   sodipodi:docname="E6.svg"
   inkscape:output_extension="org.inkscape.output.svg.inkscape"
   version="1.1"
   xmlns:inkscape="http://www.inkscape.org/namespaces/inkscape"
   xmlns:sodipodi="http://sodipodi.sourceforge.net/DTD/sodipodi-0.dtd"
   xmlns="http://www.w3.org/2000/svg"
   xmlns:svg="http://www.w3.org/2000/svg"
   xmlns:rdf="http://www.w3.org/1999/02/22-rdf-syntax-ns#"
   xmlns:cc="http://creativecommons.org/ns#"
   xmlns:dc="http://purl.org/dc/elements/1.1/">
  <defs
     id="defs1075" />
  <metadata
     id="metadata1074">
    <rdf:RDF>
      <cc:Work
         rdf:about="">
        <dc:format>image/svg+xml</dc:format>
        <dc:type
           rdf:resource="http://purl.org/dc/dcmitype/StillImage" />
      </cc:Work>
    </rdf:RDF>
  </metadata>
  <sodipodi:namedview
     id="base"
     pagecolor="#ffffff"
     bordercolor="#666666"
     borderopacity="1.0"
     inkscape:pageopacity="0.0"
     inkscape:pageshadow="2"
     inkscape:zoom="21.255295"
     inkscape:cx="7.5510597"
     inkscape:cy="9.9034148"
     inkscape:window-width="1024"
     inkscape:window-height="708"
     inkscape:window-x="106"
     inkscape:window-y="22"
     inkscape:current-layer="svg1071"
     inkscape:showpageshadow="2"
     inkscape:pagecheckerboard="0"
     inkscape:deskcolor="#d1d1d1"
     inkscape:window-maximized="0" />
  <path
     style="fill:#000000; stroke:none"
     d="M 3.7642770,0.00000000 C 4.2617383,0.34111667 4.8693523,0.65380700 5.5871190,0.93807100 C 6.3048850,1.2223350 6.7277277,1.8761423 6.8556470,2.8994930 L 6.7490480,5.1167510 C 6.9196060,6.0263957 7.4526010,6.4812180 8.3480330,6.4812180 C 9.2434650,6.4812180 10.188642,6.3177660 11.183565,5.9908620 C 12.178489,5.6639587 12.985088,5.4934007 13.603363,5.4791880 C 14.221636,5.4649747 14.921635,5.4187817 15.703361,5.3406090 C 16.485088,5.2624363 16.975445,5.7208120 17.174431,6.7157360 C 17.373413,7.7106600 17.295239,8.6700507 16.939909,9.5939080 C 16.584582,10.517765 16.456664,11.484262 16.556156,12.493401 C 16.655647,13.502538 16.499301,13.968019 16.087118,13.889846 C 15.674935,13.811675 15.369351,12.926904 15.170366,11.235533 L 15.170366,11.192894 C 15.170366,10.695431 15.419097,9.8497463 15.916560,8.6558390 L 16.023157,7.6751270 C 15.952092,6.9786797 15.852601,6.6304560 15.724683,6.6304560 L 15.682043,6.6730960 L 15.724683,7.5258870 C 15.724683,7.9522837 15.220114,9.0538070 14.210977,10.830457 L 14.210977,10.873096 L 14.786611,12.557358 L 12.825189,16.096445 C 12.839402,16.565481 12.725697,16.799999 12.484072,16.799999 L 11.119606,16.799999 C 11.176459,16.245684 11.602855,15.542130 12.398794,14.689339 C 13.052600,13.680202 13.450569,12.955328 13.592700,12.514718 C 13.351078,12.074110 13.066815,11.853806 12.739910,11.853806 C 12.668845,11.882233 12.569352,12.194923 12.441433,12.791877 C 10.892196,14.838580 10.117577,16.018276 10.117577,16.330963 C 10.032298,16.643654 9.8404190,16.799999 9.5419410,16.799999 L 8.3267130,16.799999 C 8.3835663,16.259898 8.8383890,15.613197 9.6911810,14.859896 C 10.799810,13.324871 11.354124,12.429439 11.354124,12.173602 C 10.842450,11.491369 10.522653,11.107613 10.394733,11.022335 C 9.7124990,11.306598 9.3145293,11.391877 9.2008240,11.278172 C 9.0871187,11.164466 9.1723980,11.015228 9.4566620,10.830457 C 8.4333113,10.830457 7.4028543,10.681218 6.3652910,10.382740 C 5.3987937,10.425380 4.5246823,12.095430 3.7429570,15.392891 C 3.7429570,15.932995 3.6079313,16.195940 3.3378800,16.181726 L 2.1652920,16.330963 C 2.1084393,16.018276 2.2434647,15.655840 2.5703680,15.243655 C 2.9825507,13.950254 3.3663070,12.798985 3.7216370,11.789847 C 4.0769670,10.780710 3.9490480,10.510658 3.3378800,10.979693 C 2.4993020,12.727918 1.9307743,14.184772 1.6322970,15.350253 C 1.5043783,15.705584 1.3977793,15.954314 1.3125000,16.096445 L 0.033312000,16.288324 C -0.051967333,16.004063 0.026205333,15.705585 0.26783000,15.392891 C 0.68001267,14.653806 1.3486610,13.286623 1.9456150,11.225710 C 2.1446003,10.657181 2.6688163,10.100777 3.5510790,8.9329940 L 3.6363580,8.7411170 C 3.6363580,8.2720810 3.4800127,7.6609133 3.1673220,6.9076140 L 3.0820430,5.9695430 C 3.0820430,5.4720810 3.1744287,4.7543143 3.3592000,3.8162430 L 3.1673220,3.8162430 C 2.5703680,4.2142130 2.2221447,4.4131980 2.1226520,4.4131980 C 1.4972713,4.1147213 1.1845810,3.7522847 1.1845810,3.3258880 C 1.2414343,3.0416247 1.8099623,2.3380717 2.8901650,1.2152290 C 3.1033630,0.85989833 3.2597080,0.53299467 3.3592000,0.23451800 L 3.7642770,0.00000000 z M 3.3378800,1.6842640 L 3.5723980,1.4923860 C 3.9845807,1.4781727 4.2190987,1.5563450 4.2759520,1.7269030 C 4.2048860,1.8406090 4.0201143,1.9365483 3.7216370,2.0147210 C 3.4231597,2.0928930 3.2952407,1.9827407 3.3378800,1.6842640 z M 3.7429570,0.66091400 C 3.3592003,1.4142133 2.7267130,2.2598983 1.8454950,3.1979690 L 1.8454950,3.3685280 C 1.9023477,3.5106593 1.9947333,3.6101517 2.1226520,3.6670050 L 2.2718910,3.6670050 C 2.3571703,3.6670050 2.7338200,3.4467003 3.4018400,3.0060910 L 3.5084390,3.0060910 C 3.8495557,3.0060910 4.0201140,3.2903550 4.0201140,3.8588830 L 4.0201140,3.9015220 C 3.8069160,4.6121820 3.7003170,5.3939080 3.7003170,6.2467000 C 3.8566623,7.0568520 3.9987943,7.6324867 4.1267130,7.9736040 C 4.2546317,8.3147213 3.7885172,9.2546771 4.1722739,9.8089911 L 4.5857130,9.8645860 C 4.0171850,11.030068 4.8946586,10.591931 4.7098872,10.847769 C 4.7098872,10.847769 5.1322967,10.251268 5.6937180,10.073603 C 6.2551393,9.8959377 7.0155453,9.9350247 7.9749360,10.190864 C 8.9343267,10.446701 9.9683367,10.375634 11.076966,9.9776640 L 11.034328,9.2101520 C 11.162247,8.0162433 11.347019,7.4192890 11.588642,7.4192890 C 11.716560,7.4477150 11.734327,7.6289333 11.641942,7.9629440 C 11.549556,8.2969533 11.503363,8.8548210 11.503363,9.6365470 C 11.503363,10.261928 12.292196,11.029441 13.869861,11.939085 C 13.969352,12.095430 13.983565,12.344161 13.912499,12.685278 C 13.841434,13.026395 14.466813,12.308629 14.210977,11.939085 C 13.955138,11.569542 13.827218,11.256852 13.827218,11.001015 L 13.827218,10.958376 C 13.827218,10.489340 14.175442,9.7502537 14.871890,8.7411170 C 15.127727,8.1583750 15.255645,7.7177657 15.255645,7.4192890 L 15.255645,7.0568520 C 15.255645,6.4598973 14.701330,6.0832477 13.592700,5.9269030 C 12.413007,6.2538070 10.991688,6.5771570 9.3287430,6.8969530 C 7.6657990,7.2167503 6.6282357,6.7868013 6.2160530,5.6071060 L 6.1094530,4.7969540 L 6.3226510,3.1979690 C 6.3226510,2.1746190 5.8749357,1.4852790 4.9795050,1.1299490 C 4.5104697,1.0020303 4.0982870,0.84568533 3.7429570,0.66091400 z M 15.213008,5.9269030 C 16.008948,6.1827397 16.414023,6.6908613 16.428232,7.4512680 C 16.442448,8.2116747 16.193718,9.2101520 15.682043,10.446700 C 15.596763,11.228425 15.646508,11.917764 15.831279,12.514718 C 16.016051,13.111673 16.097777,12.951775 16.076458,12.035025 C 16.055139,11.118274 16.172397,10.379188 16.428232,9.8177670 C 16.684073,9.2563450 16.815546,8.4959387 16.822653,7.5365480 C 16.829760,6.5771573 16.570368,6.0228423 16.044479,5.8736030 C 15.518590,5.7243650 15.241433,5.7421317 15.213008,5.9269030 z "
     id="path1072"
     sodipodi:nodetypes="cccccccccccccccccccccccccccccccccccccccccccccccccccccccccccccccccccccccccccccccccccccccccccccccccccccccccccccc" />
</svg>
