<?xml version="1.0" encoding="UTF-8" standalone="no"?>
<svg
   width="800"
   height="1000"
   id="svg2410"
   sodipodi:version="0.32"
   inkscape:version="1.4.2 (f4327f4, 2025-05-13)"
   sodipodi:docname="E86A.svg"
   inkscape:output_extension="org.inkscape.output.svg.inkscape"
   version="1.0"
   sodipodi:modified="true"
   xmlns:inkscape="http://www.inkscape.org/namespaces/inkscape"
   xmlns:sodipodi="http://sodipodi.sourceforge.net/DTD/sodipodi-0.dtd"
   xmlns="http://www.w3.org/2000/svg"
   xmlns:svg="http://www.w3.org/2000/svg"
   xmlns:rdf="http://www.w3.org/1999/02/22-rdf-syntax-ns#"
   xmlns:cc="http://creativecommons.org/ns#"
   xmlns:dc="http://purl.org/dc/elements/1.1/">
  <metadata
     id="metadata2417">
    <rdf:RDF>
      <cc:Work
         rdf:about="">
        <dc:format>image/svg+xml</dc:format>
        <dc:type
           rdf:resource="http://purl.org/dc/dcmitype/StillImage" />
      </cc:Work>
    </rdf:RDF>
  </metadata>
  <defs
     id="defs2415" />
  <sodipodi:namedview
     inkscape:window-height="998"
     inkscape:window-width="1680"
     inkscape:pageshadow="2"
     inkscape:pageopacity="0.0"
     guidetolerance="10.0"
     gridtolerance="10.0"
     objecttolerance="10.0"
     borderopacity="1.0"
     bordercolor="#666666"
     pagecolor="#ffffff"
     id="base"
     inkscape:zoom="0.53386562"
     inkscape:cx="-10.302218"
     inkscape:cy="671.5173"
     inkscape:window-x="-8"
     inkscape:window-y="-8"
     inkscape:current-layer="svg2410"
     inkscape:showpageshadow="2"
     inkscape:pagecheckerboard="0"
     inkscape:deskcolor="#d1d1d1"
     inkscape:window-maximized="1" />
  <path
     style="fill:#000000;stroke:none;stroke-width:1"
     d="m 187.90856,0 c -34.3218,0 -62.23902,11.407276 -83.43784,34.892187 -21.198743,23.484905 -31.858081,50.137914 -31.858081,78.886683 0,24.2947 5.381552,43.0711 16.687567,57.64796 1.130172,14.17196 -3.316911,18.51397 -9.777497,17.29919 C 66.517829,187.72344 70.754816,170.86853 67.449862,156.23231 70.841805,107.37346 63.377989,95.682332 46.82276,87.988992 33.094021,80.063925 14.204083,83.637554 7.7435105,86.471941 c -6.86437449,2.834435 -8.7966322,7.174901 -7.58525799,13.653469 2.01892139,4.45406 9.87477849,10.35062 19.96920049,11.65191 -9.690867,6.88352 -9.771574,26.68792 -0.484485,47.74334 6.460804,21.12105 13.82652,39.06787 18.752678,52.43699 11.306002,20.65051 29.700092,24.28529 47.870457,15.78214 18.331077,-14.15795 16.589457,-27.27831 18.204617,-36.59129 10.26367,10.8537 20.69663,18.78117 33.37514,24.27283 -23.42412,1.55661 -38.464717,10.39379 -45.511551,28.82398 -21.906584,7.69691 -33.375135,16.31677 -33.375135,25.78987 0,26.64315 4.4395,41.95914 12.136413,45.51155 -3.552425,30.78765 8.914884,43.58785 37.926293,39.44334 16.57795,11.84142 24.27282,35.77724 24.27282,71.30143 -24.86692,75.78495 -28.04854,139.26864 -9.10231,188.1144 18.94624,48.84576 41.29125,80.18042 66.75027,95.57425 40.26076,123.15051 39.92786,195.03176 -1.51705,216.93837 -29.01143,-2.96031 -49.43274,5.58576 -60.68206,22.75578 -11.24933,17.16996 -13.50595,32.89264 -7.58526,50.0627 h 43.9945 c 22.49864,0 45.17658,0.5918 68.26732,0 l 50.0627,-80.40373 c 20.72242,8.28897 24.5699,-10.28241 12.13641,-57.64796 5.92073,-46.7735 11.28518,-83.4358 13.65347,-107.71067 55.65454,42.62905 103.93289,72.92814 147.154,89.50605 7.10482,43.81317 19.83126,73.85313 36.40924,91.02309 -39.07663,-1.77628 -75.47975,-4.03269 -109.22771,-7.58526 -39.6687,-3.55257 -56.57549,20.12426 -50.06271,72.81848 H 726.46189 C 738.30329,820.33985 702.49223,701.84477 617.23418,643.22988 641.50899,631.98054 677.3201,623.95279 726.46189,617.44 c 24.27486,-1.18403 35.15137,-11.06181 33.37514,-28.82398 -0.59226,-17.76208 -13.05942,-25.71614 -37.92629,-22.75578 -53.87835,6.51279 -104.67249,20.83002 -153.22222,40.9604 -42.62905,-36.70833 -91.16654,-67.67322 -145.63696,-92.54015 -9.19452,-36.77799 -28.37431,-67.22969 -57.64796,-89.50604 1.18412,0.14806 2.47888,0.59206 4.55115,0 l -25.78988,-24.27283 18.20462,1.51705 h 6.06821 L 345.68193,379.2629 c 4.14448,0 8.91689,0.59206 13.65346,0 -17.17001,-14.20967 -27.38065,-23.16244 -30.34103,-27.30693 h 12.13641 l 10.61936,-1.51705 -31.85808,-22.75578 c 6.51279,-1.77623 15.13262,-2.3683 25.78988,0 -5.92073,-7.69687 -15.79847,-13.80098 -28.82398,-19.72167 l 16.68756,3.03411 -4.55115,-7.58526 -15.17052,-12.13641 c 2.36829,-1.18413 8.39858,-0.59207 16.68757,0 -10.0652,-14.20967 -25.04827,-27.60196 -43.9945,-39.44335 9.53233,-8.51101 13.51729,-18.99161 13.65347,-30.34103 27.25026,15.38145 65.9076,29.65759 118.33002,43.9945 2.42277,-10.12275 -7.11764,-19.10604 -27.30693,-28.82398 -19.38177,-4.04915 -42.02129,-15.55899 -68.26732,-33.37514 -20.18932,-11.33753 -28.92211,-27.38758 -27.30693,-50.0627 4.84544,-12.95717 7.58526,-26.48617 7.58526,-39.44334 0,-28.343855 -12.07822,-55.199323 -34.89219,-78.886683 C 245.49833,11.204817 219.00005,-4.8545651e-6 187.90856,0 Z m 0,33.375135 c 20.18929,0 38.96998,8.278776 56.13091,24.272826 17.16091,15.99402 25.78987,35.782664 25.78988,57.647959 0,10.36621 -2.04504,20.85908 -6.06821,30.34103 -4.21017,-6.03338 -9.08333,-12.32872 -13.65346,-18.20462 h -9.10231 c -10.65727,33.748 -22.11278,54.16931 -26.84934,60.68207 -36.26534,7.65357 -29.69594,3.35304 -49.00324,3.0341 -14.01858,-3.82375 -26.06269,-11.0152 -36.40924,-22.75577 -15.34388,-17.41124 -22.75578,-35.58298 -22.75578,-54.61386 0,-19.840695 7.4119,-38.012449 22.75578,-54.613858 15.34387,-16.601413 35.34161,-25.789877 59.16501,-25.789877 z m 0,57.647961 c -12.1136,1.619628 -19.62359,9.393644 -21.23872,22.755774 0.80755,11.33753 8.31755,18.80926 21.23872,21.23872 12.11357,-1.21471 18.10654,-8.68646 19.72167,-21.23872 -1.61513,-12.55231 -7.6081,-20.326317 -19.72167,-22.755774 z M 18.864654,97.639363 c 1.211359,-0.607355 10.454376,-4.100069 19.276729,-0.96902 9.418204,3.342517 13.740115,10.624397 14.749583,23.176707 0.961621,11.95732 0.918187,27.5468 1.43548,48.42401 0.02574,1.03873 0.05287,2.09062 0.08156,3.15576 0.605696,22.4726 12.683956,33.07282 34.892203,31.85809 -26.851721,32.36053 -44.705107,-4.60721 -53.581304,-42.12007 -5.652994,-14.57686 -7.095051,-30.48773 -4.066658,-39.80071 3.028391,-9.31299 4.435692,-14.42151 -3.034104,-19.72167 -2.58778,-1.83615 -10.964844,-3.395733 -9.753486,-4.003097 z M 247.07357,151.70516 h 1.51705 c 29.60347,47.3656 39.5181,75.11201 30.34104,81.92079 -9.17707,6.80881 -13.65346,14.46679 -13.65347,22.75577 2.96036,0 9.39734,4.51324 21.23872,15.17052 l -16.68756,-1.51706 25.78987,27.30693 -10.61936,-1.51705 16.68757,19.72167 h -10.61936 l -1.51705,7.58526 15.17051,12.13641 c -4.14449,0 -6.06819,3.51451 -6.0682,10.61936 l 13.65346,12.13642 c -4.73655,0 -7.58527,3.51451 -7.58526,10.61936 l 16.68757,12.13641 c -5.32863,0 -7.58526,3.7737 -7.58526,9.10231 7.69691,8.28898 13.72721,13.13515 16.68757,16.68757 l -9.10231,-1.51705 c -2.96036,0 -4.88404,3.18163 -6.06821,9.10231 44.99732,33.15593 75.62931,74.07231 91.0231,124.39823 55.65458,21.90656 101.93544,48.76483 138.05171,81.92078 -26.64321,17.76208 -49.32107,44.25062 -68.26734,78.88668 -18.9462,34.63611 -27.82521,74.51685 -24.27282,118.33003 -36.70832,-13.61759 -83.655,-44.91541 -141.0858,-94.0572 7.10485,-42.03699 8.39963,-67.23073 4.55115,-74.33553 -3.84845,-7.10485 -9.02751,-14.50369 -18.20462,-24.27282 -9.17707,-9.76918 -12.65475,-4.92297 -9.10231,16.68756 3.55243,21.61054 3.84846,51.90958 0,89.50605 -3.84845,37.59642 -7.65902,81.99045 -10.61936,133.50054 12.43345,29.60348 9.25182,41.14579 -9.10231,36.40924 l -51.57975,84.95489 h -75.85258 c 5.32863,-0.59226 5.32863,-4.99467 0,-10.61937 -5.32863,-5.62459 -4.44064,-11.69191 0,-18.20461 6.20937,-9.10673 25.50702,-10.57107 37.92629,-9.10231 6.01589,0.71147 12.28823,1.38209 19.72167,3.0341 17.76211,-14.80176 30.56231,-30.78353 39.44334,-48.54565 8.88107,-17.76208 0.59415,-91.82624 -24.27282,-221.48953 -14.20967,-1.18403 -25.71512,-21.3463 -34.89219,-62.19912 -9.1771,-40.85282 2.25461,-77.25594 31.85808,-109.22771 29.6035,-31.97178 53.28015,-48.54565 72.81848,-48.54566 20.13036,0 37.70301,8.28694 53.09681,24.27283 l 7.58525,-6.06821 c -15.39379,-19.53832 -34.55722,-28.82398 -57.64796,-28.82398 -23.0907,0 -51.79895,13.76205 -84.95489,42.47745 -33.1559,28.71538 -48.21272,61.90002 -47.0286,98.60835 0.86305,26.75472 3.83603,46.19352 9.10231,60.68207 -34.9724,-72.23215 -37.68538,-147.04367 -7.58525,-224.52364 0.59206,-14.20967 -1.29476,-28.26777 -4.55116,-42.47745 -3.25639,-14.2097 -12.50516,-30.85732 -27.30693,-51.57975 -23.6828,4.14449 -35.484281,0.0379 -34.892184,-10.61936 10.657256,-3.55243 22.088954,-2.33141 31.858084,1.51705 9.76917,3.84846 14.24553,1.03664 13.65346,-6.06821 -0.59211,-7.10481 -4.73558,-7.80752 -12.13641,-4.55115 -7.40088,3.25639 -19.16547,3.29329 -33.375134,1.51705 -7.10485,-5.3286 -10.619361,-16.53801 -10.619361,-34.89219 1.776237,-2.36829 3.034103,-2.3314 3.034103,1.51706 0,3.84845 5.697415,5.7353 15.170516,4.55115 0,-17.76208 -7.288226,-25.38319 -19.721671,-21.23872 18.946232,-7.10485 31.672707,-13.80098 36.409237,-19.72167 5.32863,-11.24933 27.08158,-16.35468 66.75027,-15.17052 29.01143,-0.59211 51.94854,-26.78455 66.75027,-78.88668 z m -70.39899,797.18378 c -7.02527,0.12136 -12.52914,1.44995 -17.59,2.30241 -9.62861,9.65505 -13.86852,18.6425 -10.61936,27.30693 l 10.61936,4.55115 c -2.3683,-10.06516 -3.58927,-16.46527 -1.51705,-19.72167 1.88313,-2.95934 8.66769,-8.79054 19.10705,-14.43882 z m 76.4672,-769.87685 c -8.28898,7.69691 -12.06266,27.19326 -9.10231,59.16501 h 10.61936 c -1.77619,-26.05105 -0.77743,-42.95785 4.55115,-50.0627 z m -91.0231,27.30693 c 0,1.82177 -0.33982,1.77288 -1.51705,3.0341 0.73532,-0.98863 1.51705,-1.55395 1.51705,-3.0341 z m -16.68756,39.44334 c -12.13742,2.66431 -16.61382,11.9131 -13.65347,27.30693 -13.02554,7.69691 -11.76766,10.5456 3.0341,7.58525 24.27487,-3.55243 40.92253,-10.24856 51.57976,-19.72167 -15.39379,-12.43347 -28.82295,-17.83482 -40.96039,-15.17051 z m 577.99667,335.2684 c 13.02557,-2.36854 20.05459,0.4806 21.23872,7.58526 0,5.92072 -5.77116,9.76816 -18.20462,12.13641 -14.20965,1.18403 -43.21398,7.21447 -84.95489,16.68757 -41.74096,9.47315 -79.43884,33.14978 -113.77887,72.81848 -17.76212,0.59225 -28.93461,17.83178 -33.37513,51.57975 -4.44052,33.74801 -4.14449,68.85633 0,104.67656 4.14434,35.82023 19.12752,63.60349 43.99449,83.43784 24.86698,19.83434 48.21074,22.05409 71.30143,6.0682 l -19.72167,-15.17051 c -14.20966,13.02552 -28.9336,11.73076 -45.51155,-4.55116 -16.578,-16.28192 -25.78988,-54.90479 -25.78988,-115.29592 0,-59.79907 9.21188,-89.50604 25.78988,-89.50604 20.13038,-0.59226 43.14126,23.67668 69.78437,72.81847 26.64317,49.1418 46.73155,79.77376 59.16501,91.0231 12.43347,11.24934 21.09023,32.29961 27.30693,62.19911 6.21671,29.89956 -7.80449,43.9945 -40.96039,43.9945 -49.73385,-3.55257 -90.31734,-14.72496 -122.88118,-33.37513 -32.56384,-18.65022 -52.39305,-54.75731 -60.68208,-109.22772 -8.28894,-54.4704 -1.88886,-100.7513 19.72169,-138.05169 21.61053,-37.30044 51.61359,-64.45474 89.50604,-81.92079 37.8925,-17.46605 83.58129,-30.22938 138.0517,-37.92629 z m -133.50054,77.36963 c 65.71974,49.14184 101.78994,119.35851 107.71066,209.35312 -20.13038,-25.45899 -42.14248,-61.86211 -65.23322,-109.22771 -23.09074,-47.36556 -48.61735,-71.89349 -75.85258,-71.30143 8.28898,-11.24934 19.7575,-20.535 33.37514,-28.82398 z M 376.02296,948.15725 c 1.73638,-0.27671 4.14444,0.10194 6.0682,0 4.32853,-0.22817 8.37608,-0.66605 13.65347,0 30.49162,3.84821 65.59996,6.40113 104.67657,7.58525 l 48.54565,25.78988 H 351.75013 c -0.88809,-19.53836 7.34333,-30.65532 24.27283,-33.37513 z m 6.0682,0 c -13.02553,6.51278 -20.97955,11.32206 -22.75577,15.17051 -1.77619,3.8487 -1.77619,8.91692 0,13.65347 h 9.10231 c -2.96036,-6.51279 1.81206,-16.39052 13.65346,-28.82398 z m 18.20462,1.51705 c -13.02554,7.10485 -19.46253,11.61814 -21.23872,15.17051 -1.77624,3.55257 -1.77624,7.39987 0,12.13642 h 9.10231 c -2.96031,-7.1049 0.29516,-15.46558 12.13641,-27.30693 z m -209.35312,3.0341 c -13.02551,6.51279 -20.97955,11.32211 -22.75577,15.17052 -1.77624,3.8487 -1.77624,8.91691 0,13.65346 h 9.10231 c -2.96036,-7.1048 1.81206,-16.98258 13.65346,-28.82398 z"
     id="path2462"
     sodipodi:nodetypes="cssccccsscccccccscccsccscsccccccsccccssccsccccccccccccccccccccccssccsscccccssscccccccssssccsscccscccccccccccccccccccsccssssccccssssscsssccsssccsccsssccscssccccccscccccccccccsccccsscsssccsssssscsssscccsccccscccccccccccccccscccs" />
</svg>
