<?xml version="1.0" encoding="UTF-8" standalone="no"?>
<!-- Created with Inkscape (http://www.inkscape.org/) -->

<svg
   width="1802.8578"
   height="1806.3315"
   id="svg2451"
   sodipodi:version="0.32"
   inkscape:version="1.4.2 (f4327f4, 2025-05-13)"
   version="1.0"
   sodipodi:docname="NL11.svg"
   inkscape:output_extension="org.inkscape.output.svg.inkscape"
   xmlns:inkscape="http://www.inkscape.org/namespaces/inkscape"
   xmlns:sodipodi="http://sodipodi.sourceforge.net/DTD/sodipodi-0.dtd"
   xmlns="http://www.w3.org/2000/svg"
   xmlns:svg="http://www.w3.org/2000/svg"
   xmlns:rdf="http://www.w3.org/1999/02/22-rdf-syntax-ns#"
   xmlns:cc="http://creativecommons.org/ns#"
   xmlns:dc="http://purl.org/dc/elements/1.1/">
  <defs
     id="defs2453">
    <inkscape:perspective
       sodipodi:type="inkscape:persp3d"
       inkscape:vp_x="0 : 526.18109 : 1"
       inkscape:vp_y="0 : 1000 : 0"
       inkscape:vp_z="744.09448 : 526.18109 : 1"
       inkscape:persp3d-origin="372.04724 : 350.78739 : 1"
       id="perspective2459" />
  </defs>
  <sodipodi:namedview
     id="base"
     pagecolor="#ffffff"
     bordercolor="#666666"
     borderopacity="1.0"
     inkscape:pageopacity="0.0"
     inkscape:pageshadow="2"
     inkscape:zoom="0.19759706"
     inkscape:cx="1414.4947"
     inkscape:cy="1480.2852"
     inkscape:document-units="px"
     inkscape:current-layer="layer1"
     showgrid="true"
     inkscape:window-width="1680"
     inkscape:window-height="998"
     inkscape:window-x="-8"
     inkscape:window-y="-8"
     showborder="true"
     inkscape:showpageshadow="2"
     inkscape:pagecheckerboard="0"
     inkscape:deskcolor="#d1d1d1"
     inkscape:window-maximized="1" />
  <metadata
     id="metadata2456">
    <rdf:RDF>
      <cc:Work
         rdf:about="">
        <dc:format>image/svg+xml</dc:format>
        <dc:type
           rdf:resource="http://purl.org/dc/dcmitype/StillImage" />
      </cc:Work>
    </rdf:RDF>
  </metadata>
  <g
     inkscape:label="Calque 1"
     inkscape:groupmode="layer"
     id="layer1"
     transform="translate(-7.9540755e-6,0.253987)">
    <path
       style="fill:#000000;stroke:none;stroke-width:1"
       d="m 951.21032,86.140913 v 14.961297 c 0,24.88764 -3.28326,44.75946 -11.96521,59.82605 -11.16115,25.53855 -45.27732,47.45882 -101.70429,65.80866 -5.72416,-1.3401 -10.73423,0 -14.95652,0 -6.30806,-0.01 -11.98531,0.0479 -14.95651,2.96737 -2.66106,2.58449 -4.97753,2.96738 -8.96912,2.96738 -3.45555,0 -7.51415,-1.05294 -11.96521,-2.96738 -4.6425,-2.10587 -8.69153,-2.96737 -11.96521,-2.96737 -3.50342,0 -7.05469,3.63743 -8.96912,5.93475 -75.02857,-28.17089 -111.9178,-72.01143 -110.6782,-131.61732 -2.3739,-6.509073 -5.51357,-11.965209 -8.96912,-11.965209 -1.06251,0 -1.82829,2.393042 -2.98652,2.967372 -9.92155,8.519227 -14.95651,22.226577 -14.95651,41.878237 0,20.30257 6.05918,44.65417 20.93912,74.78735 14.88185,30.13319 45.09352,55.77703 89.73907,74.77778 -1.857,11.79291 -0.95721,19.71867 0,26.92651 0.95722,7.17913 -7.29399,32.85168 -20.93911,74.77778 -11.16115,9.18928 -14.95652,18.12012 -14.95652,29.91303 0,11.13243 1.64642,19.99626 5.98261,23.93042 0,11.13243 22.29454,17.94781 68.79996,17.94781 9.92155,-1.3401 17.72957,-10.82612 23.93042,-23.93042 8.05977,11.13243 19.88235,19.99626 32.90433,23.93042 13.02198,3.92459 22.58074,12.46297 26.92172,23.93042 4.33619,11.46746 14.4109,21.11621 29.91303,32.90912 0,45.85069 20.03263,92.76388 62.81735,140.58644 v 14.9613 c -13.02197,26.19902 -21.96142,41.96438 -26.92172,47.86084 -4.95838,5.93474 -8.3565,12.78841 -8.96912,23.93042 -0.57433,11.13243 -10.07088,32.02847 -29.91303,62.81257 -17.362,9.18928 -29.69478,24.56218 -35.89563,44.87432 -16.25067,14.71243 -28.61217,35.47446 -38.88693,62.81257 H 305.11288 C 259.15881,764.75022 205.94904,693.31313 143.58254,693.31313 56.050797,693.30355 32.110804,764.75022 74.782573,911.67343 H 7.9540702e-6 v 74.78735 H 56.834757 l 59.826053,116.65602 h 191.44337 l 59.82606,-116.65602 h 128.62601 l 370.92152,364.93892 v 50.8474 H 7.9540702e-6 v 71.7912 H 224.34771 V 1569.76 H 7.9540702e-6 v 71.7913 H 224.34771 v 92.7351 H 7.9540702e-6 v 71.7913 H 1803.7555 v -71.7913 h -224.3477 v -92.7351 h 224.3477 V 1569.76 h -224.3477 v -95.7217 h 224.3477 v -71.7912 H 936.27773 v -32.8996 c 108.32157,0 150.50897,-33.8185 128.62597,-104.7004 123.639,-36.087 151.5945,-95.2909 83.7565,-176.482 l -83.7565,-101.70432 h 735.8605 v -74.78735 h -92.7304 v -32.89954 c 16.7417,-0.01 24.0396,-2.48876 20.9391,-11.96521 -3.1014,-9.47645 -9.3711,-32.07634 -14.9565,-65.80866 -5.5806,-33.74189 -5.5806,-76.51034 0,-125.63471 -18.6025,-30.79366 -32.0658,-57.93076 -38.8869,-86.75256 16.1224,-18.34028 29.6948,-51.50784 35.8956,-95.72169 6.2028,-44.21384 1.5698,-82.22492 -8.9691,-113.66949 13.022,32.75596 21.8695,70.10656 20.9391,113.66949 -0.9572,43.56294 -1.2444,78.4535 0,101.70429 1.2444,23.2508 -0.2872,62.62113 0,116.66559 0.2872,54.03489 3.3886,93.0702 8.9691,116.65602 5.5806,23.58582 15.7606,35.89563 26.9218,35.89563 15.5413,0 27.4462,-16.35884 32.9043,-44.86475 5.5806,-29.15683 0.4786,-75.37126 -11.9652,-137.59992 -24.8025,-61.57776 -36.5159,-96.92778 -35.8957,-110.68299 8.0598,-108.73983 2.3165,-187.79637 -20.9391,-233.3216 -23.2527,-45.52523 -73.6061,-67.15834 -149.5651,-68.79518 -6.9111,0 -14.1592,0 -20.9391,0 -67.7691,0 -130.5022,6.03047 -185.4608,20.93434 -23.6164,6.41335 -47.0998,8.99783 -74.7826,8.99783 -43.1848,0 -93.4846,-8.32778 -146.5738,-23.93042 -87.1201,-25.54811 -152.16013,-41.31348 -197.42596,-47.86084 v -2.96737 l -11.96521,2.96737 c 27.90383,-34.72783 41.87824,-65.87566 41.87824,-92.73517 -4.33619,-32.09548 -9.37115,-47.860838 -14.95651,-47.860838 z M 191.41945,187.8452 c -125.01731,16.07167 -206.301293,172.94994 -74.78257,284.17854 -32.445822,45.06577 -28.997927,81.29642 11.96521,110.67341 40.55728,28.97495 79.19534,19.75695 113.6695,-26.91694 101.39416,50.69421 175.27311,49.31581 224.3477,-2.96737 43.39638,-57.13627 32.24098,-131.22486 -35.89563,-221.3564 40.15237,-41.84952 42.07925,-79.06611 5.98261,-113.66949 -36.50155,-34.60339 -75.13961,-33.45473 -113.6695,5.93474 -45.46206,-32.45922 -89.94488,-41.25605 -131.61732,-35.89563 z m 41.87824,38.89172 c 15.50021,2.10588 31.27419,6.70052 47.86084,14.95173 49.68338,39.0353 96.43385,87.48005 137.59992,140.59601 41.16607,53.10639 48.67065,102.0776 23.93042,149.56513 -42.99148,32.99526 -95.52258,33.97163 -155.54774,2.96737 C 227.11598,503.83205 176.05421,468.77877 128.60209,427.13027 52.949414,336.04151 124.80194,211.73733 233.29769,226.71778 Z m 149.56513,5.93475 c 9.42858,-0.95722 18.20148,3.73314 26.92172,11.96521 17.43954,17.29691 15.10775,37.68562 -5.9826,59.82605 -16.62877,-19.31664 -33.41261,-37.3506 -50.85215,-53.84345 10.1398,-10.06035 20.48348,-17.04803 29.91303,-17.94781 z m 547.40838,11.96521 c -4.95838,33.40687 -13.58961,47.52581 -26.92173,47.86084 -4.39362,0 -7.9449,2.96737 -11.96521,2.96737 -8.19377,0 -14.28454,-2.58448 -20.93911,-2.96737 -7.43758,0 -14.84739,3.73315 -17.94782,8.99784 l -5.98261,-11.96521 5.98261,-2.96737 c 1.857,-13.1043 27.54774,-26.16074 77.77387,-41.87824 z m -107.6869,2.96737 c 8.68196,6.50907 14.33624,17.18204 14.95652,32.90911 l -5.98261,2.96738 8.96912,17.94781 c 4.54678,6.12619 10.41357,8.99784 14.95652,8.99784 2.2686,0 3.70443,1.53155 5.9826,0 4.33619,-2.96737 10.97832,-5.93474 17.94782,-5.93474 3.99159,0 7.11212,2.01015 11.96521,2.96737 3.68528,0.95722 8.58623,0 11.96521,0 8.84468,0 14.20701,-4.02031 20.93912,-8.99784 9.30414,-6.89196 18.97012,-8.99784 23.93042,-35.89563 26.66327,0.95722 76.28727,10.99842 152.55647,35.89563 69.246,22.59989 126.7412,32.89954 173.4955,32.89954 4.7382,0 10.4461,0 14.9565,0 48.9856,-2.29732 93.2818,-11.11328 128.626,-20.93433 35.3443,-9.83062 66.7793,-14.9613 98.713,-14.9613 31.9337,0 60.7967,0.95722 92.7304,2.96737 2.6515,0 3.8672,2.96738 5.9826,2.96738 4.049,0 6.7484,-2.96738 8.9691,-2.96738 5.0063,-0.01 5.9444,3.73315 2.9866,17.94782 30.3839,8.51923 47.3324,43.77353 53.8434,104.69081 6.5091,60.91728 -2.2112,105.26513 -32.9043,143.58252 -18.9998,23.71983 -47.1516,35.89563 -80.7652,35.89563 -20.6883,0 -42.577,-5.93474 -68.8,-14.95172 -4.9583,-14.41569 -24.0797,-23.73898 -53.8434,-32.90912 l -2.9865,14.9613 c 9.9215,4.59464 16.5991,10.73997 20.9391,17.94782 -78.3903,29.56842 -151.0469,41.87823 -221.3564,41.87823 -23.1244,-0.01 -46.5475,-3.73314 -68.8,-5.93474 l -11.9652,-68.80475 c 0,-11.13243 -6.6813,-21.39379 -20.9391,-29.91302 l -26.9217,-38.88215 -14.9565,5.93474 c 29.7637,62.87958 29.9647,99.20596 2.9865,110.67341 -10.7256,4.59464 -20.0661,5.93475 -29.913,5.93475 -14.9154,0 -28.9922,-4.49892 -41.8783,-14.95173 -21.3928,-17.36391 -32.28403,-43.39064 -32.9043,-77.77387 -0.57433,-34.3928 8.9404,-61.11829 26.9217,-80.76995 17.9823,-19.65167 30.8262,-48.10015 38.887,-86.74299 -0.5744,-4.59465 -8.5384,-8.99784 -20.9392,-8.99784 -8.0597,38.65241 -19.464,69.06319 -35.8956,86.75256 -16.43158,17.67979 -25.06185,38.57584 -26.92172,62.81257 -1.857,24.23673 -1.14866,49.938 5.98261,77.77387 7.13126,27.83586 26.25071,44.99876 53.84341,53.84344 27.5928,8.8064 14.9565,11.48661 14.9565,23.93042 -11.1391,2.87166 -19.1539,2.96738 -26.9217,2.96738 -19.0419,0 -29.96948,-8.13635 -56.83473,-23.93042 -35.96455,-42.58658 -47.86084,-80.43494 -47.86084,-125.63471 L 885.3873,462.8536 c 0,-15.7175 -6.2602,-25.97886 -23.93042,-29.91303 -17.67214,-3.92458 -36.59057,-14.36782 -50.85214,-41.87823 l -14.95652,5.93474 c -1.857,25.54812 -10.90844,38.23124 -23.93042,38.89172 -3.33111,-2.48876 -7.19827,-2.96737 -11.96521,-2.96737 -4.09689,0 -9.79616,1.14866 -14.95651,2.96737 -16.12241,-4.59464 -23.31015,-12.14708 -23.93042,-23.93042 4.28833,-5.07325 7.06426,-8.99784 8.96912,-8.99784 0.57433,0 2.63234,0 2.98651,0 1.5507,1.91444 1.85701,4.69037 0,5.93475 -1.857,1.3401 -3.6087,6.41335 -2.98651,11.96521 0.57433,4.69036 1.42625,5.93474 5.9826,5.93474 0.76578,0 2.05802,0 2.98652,0 6.20277,-0.95721 12.7865,-6.79624 14.95651,-14.95172 2.17289,-8.23207 -3.17796,-16.73216 -14.95651,-23.93043 13.6413,-41.92609 20.31884,-72.79634 20.93912,-95.72168 10.70647,-2.96737 22.1969,-5.93474 32.90433,-5.93474 12.85638,0 23.03925,4.69036 35.89563,8.99783 v -5.93474 c -14.78804,-6.70052 -28.23598,-11.96521 -41.87824,-11.96521 -6.37506,0 -11.82354,1.53155 -17.94781,2.96737 4.95838,-7.17912 8.24163,-16.15782 11.96521,-29.91302 5.61886,1.91443 12.32512,0 17.94781,0 8.02148,0 15.91182,0.95721 23.93042,-2.96738 z m 101.70429,8.99784 c -7.43757,0.95721 -16.69003,1.05294 -26.92172,5.93474 -10.23073,4.88181 -21.1229,11.7642 -32.90433,20.93433 0.57433,2.29733 4.30748,5.93475 11.96521,5.93475 0.95722,0 1.92401,0.0383 2.98652,0 9.61141,0 15.35854,-2.96737 20.93912,-2.96737 5.58057,0 12.16622,-2.10588 14.95651,-5.93475 2.7855,-3.92459 2.3739,-6.31763 2.98652,-8.99784 -0.67006,0 -3.09181,-0.95721 -5.98261,2.96738 -3.85758,4.69036 -8.15549,8.99783 -14.95651,8.99783 -0.8615,0 -2.09631,0.0766 -2.98652,0 -8.05977,-0.95721 -7.95447,-4.69036 -2.98652,-8.99783 4.95839,-4.21176 16.16261,-8.8064 32.90433,-17.94782 z m -143.58252,38.88215 c -5.20726,0 -7.63859,2.48876 -11.96521,2.96737 1.24438,10.47195 1.95272,16.72258 5.9826,23.93042 4.02988,7.17913 11.12669,15.73664 17.94782,23.93042 6.82495,8.23207 8.96912,20.45572 8.96912,32.89954 h 5.9826 c 0.57433,-15.7175 -5.03496,-33.16756 -14.95651,-50.84736 15.77972,-3.82886 32.08112,-11.30473 47.86084,-23.93042 -23.28238,-4.30747 -44.34977,-8.99783 -59.82605,-8.99783 z M 146.54991,492.91021 c 19.87374,14.08066 40.91623,29.00367 62.81736,41.87824 -18.25126,24.94507 -36.96102,29.04195 -56.83475,14.9613 -20.27864,-14.49227 -22.61138,-33.50259 -5.98261,-56.83954 z m 1286.26009,134.6134 5.9826,83.75648 c -7.4375,29.4727 -17.8214,55.82488 -29.913,77.77387 -12.0915,21.93941 -28.638,42.51 -47.8608,62.81256 -18.0598,16.00467 -30.9717,35.73291 -35.8957,59.82606 H 1205.471 v -32.89955 c 25.4228,-3.92459 32.7206,-14.28167 20.9392,-35.89563 -16.7418,-34.06734 -25.9914,-58.37108 -26.9218,-71.79126 -0.9572,-13.42975 -1.2443,-25.42368 0,-35.89563 1.2348,-10.48153 -0.3829,-22.10214 -5.9826,-32.90912 -5.5805,-10.80698 -10.6165,-23.53796 -14.9565,-41.87823 10.605,0 20.1121,0 29.913,0 49.2268,0 87.7022,-3.54171 116.6608,-8.99784 0,13.7552 5.1403,32.96655 11.9653,59.82605 h 11.9652 l 11.9652,-56.83954 c 0,-4.59464 23.4259,-13.82221 71.7912,-26.91693 z m 137.6,26.91694 c 16.1214,7.17913 35.2409,21.98727 53.8434,47.86084 18.6026,25.87357 24.6598,77.50585 20.9391,149.56513 -19.71,18.98161 -29.4535,37.40804 -32.9043,59.82606 h -194.4347 l 8.9691,-35.89563 c 4.6234,1.43582 8.95,2.96737 14.9566,2.96737 2.0388,-0.01 6.7675,0 8.9691,0 8.6819,-0.95722 12.2753,-8.51923 11.9652,-23.93042 -0.2872,-15.40162 8.3182,-46.88448 26.9217,-92.73517 15.5012,-6.50908 25.5721,-17.84252 29.913,-32.89954 11.1612,-31.44458 27.2893,-55.7866 50.8522,-74.78736 z m -481.5998,14.9613 29.9131,50.84736 c 3.1013,18.34027 11.5287,33.08141 23.9304,44.87432 l 8.9691,86.74299 c -15.5701,15.84194 -25.9147,34.91927 -32.9043,59.82606 H 900.35339 l 14.95651,-26.91694 c 0,-7.37057 0.67005,-11.96521 5.9826,-11.96521 0.8615,0 2.03888,0 2.98652,0 0.57433,0 2.43133,2.96737 2.98652,2.96737 5.87731,0 6.83453,-8.42351 5.9826,-20.93433 -0.95721,-13.76478 14.59469,-38.1068 41.87824,-74.78735 14.88185,-7.17913 23.8213,-19.14434 26.92172,-32.89955 3.1014,-13.76477 17.0758,-29.52056 41.8782,-47.86084 16.1215,-17.68937 30.608,-26.63934 44.8696,-29.91302 z m -945.25159,83.75647 c 38.29537,-0.01 71.0676,52.85752 101.70429,158.53426 H 134.5847 C 95.195222,806.01584 98.698641,753.15832 143.55382,753.15832 Z m -26.92173,233.32161 h 191.44337 l -26.92172,56.82997 H 143.55861 Z m 475.61712,0 h 275.19984 v 266.22117 z m 379.89544,0 h 26.92172 L 1115.732,1124.0798 c 30.6366,39.9447 9.3998,72.1072 -62.8174,92.7256 z m -35.89564,38.88217 80.7652,236.3177 c 13.1301,42.5291 -14.0213,62.8125 -80.7652,62.8125 z m -643.13006,448.6954 h 254.26072 v 95.7217 H 293.12374 Z m 320.06938,0 h 254.26072 v 95.7217 H 613.19312 Z m 323.06068,0 h 254.2607 v 95.7217 H 936.2538 Z m 320.0694,0 h 254.2607 v 95.7217 h -254.2607 z m -963.19946,167.5129 h 254.26072 v 92.7352 H 293.12374 Z m 320.06938,0 h 254.26072 v 92.7352 H 613.19312 Z m 323.06068,0 h 254.2607 v 92.7352 H 936.2538 Z m 320.0694,0 h 254.2607 v 92.7352 h -254.2607 z"
       id="path2516" />
  </g>
</svg>
