<?xml version="1.0" encoding="UTF-8" standalone="no"?>
<svg
   width="1100"
   height="620"
   version="1.1"
   id="svg1"
   sodipodi:docname="P26.svg"
   inkscape:version="1.4.2 (f4327f4, 2025-05-13)"
   xmlns:inkscape="http://www.inkscape.org/namespaces/inkscape"
   xmlns:sodipodi="http://sodipodi.sourceforge.net/DTD/sodipodi-0.dtd"
   xmlns="http://www.w3.org/2000/svg"
   xmlns:svg="http://www.w3.org/2000/svg">
  <defs
     id="defs1" />
  <sodipodi:namedview
     id="namedview1"
     pagecolor="#ffffff"
     bordercolor="#666666"
     borderopacity="1.0"
     inkscape:showpageshadow="2"
     inkscape:pageopacity="0.0"
     inkscape:pagecheckerboard="0"
     inkscape:deskcolor="#d1d1d1"
     showguides="true"
     inkscape:zoom="0.70260701"
     inkscape:cx="557.2105"
     inkscape:cy="407.76707"
     inkscape:window-width="1680"
     inkscape:window-height="998"
     inkscape:window-x="-8"
     inkscape:window-y="-8"
     inkscape:window-maximized="1"
     inkscape:current-layer="svg1">
    <sodipodi:guide
       position="985.85112,258.337"
       orientation="0.80588167,0.59207663"
       id="guide1"
       inkscape:locked="false" />
  </sodipodi:namedview>
  <path
     id="path1"
     style="fill:#000000;stroke:none;stroke-width:0.999998"
     d="M 824.82422 17.599609 C 812.46727 17.599609 806.28906 21.07461 806.28906 28.025391 L 806.28906 88.265625 L 771.53516 40.769531 C 768.44591 33.046444 761.88181 32.660578 751.8418 39.611328 C 742.57411 46.562109 740.6427 53.51211 746.04883 60.462891 L 806.28906 141.55469 L 806.28906 354.71289 C 800.88292 357.80214 787.36879 363.59445 765.74414 372.08984 C 707.82103 394.48677 630.20336 406.07145 532.89258 406.84375 C 469.56331 406.84375 416.27466 401.8232 373.02539 391.7832 L 373.02539 263.19336 C 402.59727 263.19336 419.90105 246.20768 424.93945 212.23828 L 425.15625 212.2207 L 538.68555 202.95312 L 534.05078 179.78516 L 426.49023 189.03711 C 426.48142 174.25931 424.8789 157.27535 421.67969 138.08008 L 395.03516 136.92188 C 399.47009 158.111 401.06874 175.76408 400.08008 190.19336 L 399.66992 190.21094 L 315.20117 198.20117 C 313.00279 182.79854 314.50896 162.7649 319.73633 138.08008 L 293.0918 138.08008 C 289.11063 161.96707 287.56876 182.43235 288.46484 199.47852 L 288.45703 199.47852 L 119.32227 214.53906 C 98.469955 182.87444 74.526881 141.16846 47.496094 89.423828 C 40.545313 70.888433 30.506178 64.904137 17.376953 71.46875 C 4.2477273 78.033363 2.3162866 89.809998 11.583984 106.80078 C 56.377831 296.78854 154.46163 430.39814 305.83398 507.62891 L 0 506.4707 L 0 620 L 1095.9043 620 L 1095.9043 506.4707 L 757.63477 506.4707 C 851.08402 457.81533 914.79965 401.82341 948.78125 338.49414 L 955.73047 347.76172 C 944.91816 391.78326 954.18745 429.24046 983.53516 460.13281 C 1012.8828 491.0251 1047.0368 502.75977 1089.5137 502.75977 C 1103.4152 462.59979 1102.4697 426.924 1083.1621 388.30859 C 1063.8544 349.69319 1029.8723 329.61297 981.2168 328.06836 L 968.47461 309.53125 C 993.9608 270.91584 1025.2397 200.25015 1062.3105 97.533203 C 1070.8059 82.859366 1068.8745 71.660587 1056.5176 63.9375 C 1044.1607 56.214413 1033.7337 62.006752 1025.2383 81.314453 C 989.7121 148.50526 954.95807 203.72538 920.97656 246.97461 L 844.51953 141.55469 L 844.51953 28.025391 C 844.51953 21.07461 837.95338 17.599609 824.82422 17.599609 z M 44.021484 141.55469 L 53.289062 141.55469 C 116.61833 276.7086 187.86384 359.92467 267.02539 391.20312 C 346.18698 422.48161 435.00341 438.12109 533.47266 438.12109 C 631.94191 438.12109 720.5625 422.28965 799.33789 390.625 C 851.08258 369.77272 899.73854 327.29494 945.30469 263.19336 C 968.47392 229.21183 991.64329 189.43924 1014.8125 143.87305 L 1024.0801 142.71289 C 963.06775 290.22372 891.82219 386.95588 810.34375 432.9082 C 728.86525 478.86052 632.90684 501.83594 522.4668 501.83594 C 412.02677 501.83594 319.54335 478.86052 245.01562 432.9082 C 170.48791 386.95588 103.4892 289.83782 44.021484 141.55469 z M 844.51953 194.84375 L 901.2832 273.61914 C 880.43086 300.64993 861.51032 318.80067 844.51953 328.06836 L 844.51953 194.84375 z M 394.53516 214.58594 C 387.77775 229.1593 375.25663 236.54883 356.80664 236.54883 C 341.63995 236.54883 330.52818 231.48027 323.46289 221.35352 L 394.53516 214.58594 z M 291.98242 223.80273 C 298.8289 250.05512 315.02443 263.19336 340.58789 263.19336 L 340.58789 383.67383 C 324.36944 379.8123 303.13154 372.86227 276.87305 362.82227 C 228.21768 343.51457 181.1072 301.42268 135.54102 236.54883 L 291.93164 223.80664 L 291.98242 223.80273 z M 998.57812 360.54297 C 1016.5207 361.07241 1032.5512 370.90614 1046.6699 390.04492 C 1064.0469 413.60029 1068.8501 438.27124 1066.5332 471.48047 C 1034.8685 464.52972 1013.0741 452.79509 995.69727 428.85352 C 978.32032 404.91199 975.03922 382.51442 985.85156 361.66211 C 990.1958 360.79326 994.43753 360.42079 998.57812 360.54297 z M 30.119141 536.58984 L 1065.7852 536.58984 L 1065.7852 589.88086 L 30.119141 589.88086 L 30.119141 536.58984 z " />
</svg>
