<?xml version="1.0" encoding="UTF-8" standalone="no"?>
<svg
   width="1500"
   height="1000"
   version="1.1"
   id="svg1"
   sodipodi:docname="P51.svg"
   inkscape:version="1.4.2 (f4327f4, 2025-05-13)"
   xmlns:inkscape="http://www.inkscape.org/namespaces/inkscape"
   xmlns:sodipodi="http://sodipodi.sourceforge.net/DTD/sodipodi-0.dtd"
   xmlns="http://www.w3.org/2000/svg"
   xmlns:svg="http://www.w3.org/2000/svg">
  <defs
     id="defs1" />
  <sodipodi:namedview
     id="namedview1"
     pagecolor="#ffffff"
     bordercolor="#666666"
     borderopacity="1.0"
     inkscape:showpageshadow="2"
     inkscape:pageopacity="0.0"
     inkscape:pagecheckerboard="0"
     inkscape:deskcolor="#d1d1d1"
     inkscape:zoom="1.051"
     inkscape:cx="356.32731"
     inkscape:cy="175.5471"
     inkscape:window-width="1680"
     inkscape:window-height="998"
     inkscape:window-x="-8"
     inkscape:window-y="-8"
     inkscape:window-maximized="1"
     inkscape:current-layer="svg1" />
  <path
     id="path1"
     style="fill:#000000;stroke:none;stroke-width:1"
     d="m 571.09375,0 c -25.06855,0 -39.17112,4.7008552 -42.30469,14.101562 -6.26714,-0.783383 -9.40039,3.132714 -9.40039,11.75 -14.10104,2.350187 -21.15039,11.359498 -21.15039,27.027344 5.48371,-2.350186 9.00741,-3.133029 10.57422,-2.349609 3.91695,0 7.05215,4.112276 9.40234,12.337891 2.35015,8.225615 7.83385,17.431143 16.45118,27.615234 -7.05052,10.184098 -10.57618,19.976238 -10.57618,29.376958 0,8.61732 7.83412,21.54273 23.50196,38.77734 16.45123,54.83744 24.67578,95.18321 24.67578,121.03516 0,3.13356 3.13326,4.69921 9.40039,4.69921 l -16.45117,57.58008 c -3.12184,2.49748 -6.86457,4.24736 -11.23047,5.25195 l -33.42188,-47.55664 c 21.15156,14.88447 36.81978,25.06902 47.00391,30.55274 -5.48375,-6.26711 -14.10267,-14.49169 -25.85352,-24.67578 l 9.40235,3.52539 c 3.13357,0 5.87446,-3.13521 8.22461,-9.40235 C 507.63793,256.55993 474.93203,219.54554 461.22266,188.60156 447.51333,157.65754 430.08324,130.63152 408.93164,107.52148 387.78003,84.411407 371.32702,60.909085 359.57617,37.015625 347.82528,13.122165 329.02382,1.1757812 303.17188,1.1757812 c -25.06855,0 -39.16917,4.308457 -42.30274,12.9257808 -6.26714,-0.783383 -9.40039,3.525075 -9.40039,12.925782 -14.10104,2.350149 -21.15234,11.359499 -21.15234,27.027344 5.48372,-2.35015 9.00937,-3.134946 10.57617,-2.351563 3.91695,0 7.0502,4.114229 9.40039,12.339844 2.35019,8.225615 7.83385,17.038746 16.45117,26.439453 v 1.173828 c -7.05055,9.40071 -10.57422,18.80241 -10.57422,28.20313 0,9.4007 7.83411,22.32611 23.50196,38.77734 16.45123,54.83744 24.67578,95.18321 24.67578,121.03516 0,3.13356 3.13325,5.09161 9.40039,5.875 L 297.29688,343.125 c -3.91699,2.35019 -8.81208,3.91778 -14.6875,4.70117 -5.87543,0.78342 -10.14511,3.74159 -12.92579,8.8125 l -9.98828,18.21485 c -3.878,7.07202 -2.3513,17.62548 4.69922,31.72656 3.13357,-9.40075 6.65922,-13.7092 10.57617,-12.92578 17.23461,0 28.98479,10.18455 35.25196,30.55273 6.26714,20.36818 14.49364,30.55274 24.67773,30.55274 0.78338,4.70037 -3.52507,34.8596 -12.92578,90.48046 -3.91695,23.50175 -6.65976,44.26326 -8.22656,62.28125 -44.65335,-25.85193 -86.95523,-62.67206 -126.90821,-110.45898 -7.05052,-14.88447 -9.79333,-38.77724 -8.22656,-71.67969 -28.20213,-5.48372 -55.22815,5.09125 -81.080077,31.72657 -25.851937,26.63532 -35.646045,54.05373 -29.378906,82.25585 32.902483,-3.13357 56.797213,-1.17555 71.681643,5.875 38.38621,23.50175 64.23703,44.26326 77.55468,62.28125 -42.30317,6.26718 -102.62369,26.2419 -180.962886,59.92774 0,64.23815 32.705938,110.65422 98.119146,139.24805 65.41325,28.59379 118.4882,47.59147 159.2246,56.99218 H 0 V 1000 H 1254.9941 V 863.68945 H 958.87109 c 40.73641,-9.40071 93.81131,-28.39839 159.22461,-56.99218 65.4132,-28.59383 98.1211,-75.0099 98.1211,-139.24805 -78.3392,-33.68584 -138.2693,-53.66056 -179.7891,-59.92774 13.3177,-18.01799 39.1705,-38.7795 77.5567,-62.28125 14.8845,-7.05055 38.3848,-9.00857 70.5039,-5.875 7.0505,-28.20212 -2.3493,-55.62054 -28.2012,-82.25585 -25.8519,-26.63532 -53.2703,-37.21029 -82.2559,-31.72657 2.3502,32.90245 -0.3926,56.79522 -8.2265,71.67969 -39.1697,47.78692 -81.86385,85.7803 -128.084,113.98242 -0.78331,-19.5848 -3.13379,-40.34432 -7.05078,-62.2793 -8.61732,-55.62083 -12.92578,-85.78009 -12.92578,-90.48046 10.96747,0 19.7806,-10.38074 26.43945,-31.14063 6.65881,-20.75989 17.03955,-31.14062 31.14063,-31.14062 3.91699,-3.13353 5.875,-7.44204 5.875,-12.92579 0,-12.41129 -11.13734,-20.5983 -33.41211,-24.56054 5.64904,-7.236 12.45376,-1.49298 18.13477,3.41015 3.91699,-10.96747 -1.17432,-18.80158 -15.2754,-23.50195 -10.96747,2.35019 -20.75966,4.70059 -29.37695,7.05078 l -2.34961,-51.70508 c 13.31765,18.80141 26.24311,24.28509 38.77735,16.45118 -2.35033,-21.93498 -3.91799,-37.99361 -4.70118,-48.17774 l 17.62696,10.57617 c 9.40074,7.83391 22.12989,25.06781 38.18945,51.70313 16.0595,26.63535 25.6575,39.17031 28.791,37.60351 l 56.4043,-8.22656 c 4.7003,-1.56677 5.4831,-3.91721 2.3496,-7.05078 l -32.9023,-47.00391 c 21.1516,14.88447 36.8198,25.06902 47.0039,30.55274 -5.4837,-6.26711 -14.1026,-14.49169 -25.8535,-24.67578 l 9.4023,3.52539 c 3.1333,0 5.8742,-3.13521 8.2246,-9.40235 -51.7039,-43.08655 -84.4098,-80.10094 -98.1191,-111.04492 C 990.4039,157.65754 972.97383,130.63152 951.82227,107.52148 930.6707,84.411407 914.21769,60.909085 902.4668,37.015625 890.71591,13.122165 871.91444,1.1757812 846.0625,1.1757812 c -25.06859,0 -39.1692,4.308457 -42.30273,12.9257808 -6.26714,-0.783383 -9.40039,3.525075 -9.40039,12.925782 -14.10105,2.350149 -21.15235,11.359499 -21.15235,27.027344 5.48375,-2.35015 9.0094,-3.134946 10.57617,-2.351563 3.91695,0 7.0502,4.114229 9.40039,12.339844 2.35019,8.225615 7.83389,17.038746 16.45118,26.439453 v 1.173828 c -19.86336,26.48452 -8.83241,44.13234 12.92773,66.98047 16.45123,54.83744 24.67578,95.18321 24.67578,121.03516 0,3.13357 3.13325,5.09161 9.40039,5.875 L 840.1875,343.125 c -3.91695,2.35019 -8.81211,3.91778 -14.6875,4.70117 -0.85286,0.11372 -1.6741,0.27206 -2.46094,0.47656 -0.28414,-0.8624 -0.83428,-1.80358 -1.65234,-2.82617 l -32.90234,-45.83008 c 21.15157,14.88447 36.81977,24.67854 47.0039,29.37891 -5.48375,-6.26714 -14.10262,-14.4936 -25.85351,-24.67773 l 9.40234,4.70117 c 3.13339,-0.78338 5.87428,-3.91859 8.22461,-9.40235 C 775.55785,256.55993 742.65577,219.34936 728.55469,188.01367 714.45365,156.67798 697.02356,129.45574 676.26367,106.3457 655.50378,83.235624 639.2489,59.733305 627.49805,35.839844 615.74716,11.946384 596.94569,0 571.09375,0 Z M 297.29688,21.152344 c 14.10103,0 22.32754,5.874106 24.67773,17.625 2.35019,11.750893 -5.09348,19.977399 -22.32813,24.677734 3.13357,4.700372 8.22683,6.266022 15.27735,4.699219 22.71841,-9.400708 26.24402,-24.676561 10.57617,-45.828125 3.13353,0 9.79243,9.40171 19.97656,28.203125 10.18409,18.801378 26.04658,39.560933 47.58985,62.279293 21.54328,22.71841 37.99433,47.39593 49.35351,74.03125 11.35922,26.63532 33.49012,56.01179 66.39258,88.13086 -55.62086,-32.11907 -92.04859,-52.48818 -109.2832,-61.10547 -17.23461,-8.61733 -45.04348,-27.02639 -83.42969,-55.22851 -22.71837,-15.66785 -34.07813,-28.59326 -34.07813,-38.77734 -3.13357,-21.934987 16.05835,-32.902349 57.57813,-32.902349 -1.56681,-4.700335 -14.88458,-6.267938 -39.95313,-4.701172 -16.16129,0 -21.59435,-3.490017 -30.55078,-24.089843 -3.91695,-9.009035 -9.79301,-13.511719 -17.62695,-13.511719 h 8.22656 c -3.13357,-4.700335 -4.30878,-8.618384 -3.52539,-11.751953 3.13357,0.783383 5.48398,-0.391822 7.05078,-3.525391 5.48372,-5.483755 16.84153,-8.224609 34.07618,-8.224609 z m 267.91992,0 c 14.10108,0 22.13137,5.874106 24.08984,17.625 1.95848,11.750893 -5.28705,19.585001 -21.73828,23.501953 3.13357,5.483755 8.22487,7.051358 15.27539,4.701172 22.71841,-9.400707 26.24406,-24.286116 10.57617,-44.654297 3.13357,0 9.79247,9.40171 19.97656,28.203125 10.18413,18.801378 26.04658,39.364709 47.58985,61.691403 21.54327,22.32665 37.99432,47.00422 49.35351,74.03125 11.35922,27.02703 33.49016,56.20728 66.39258,87.54297 -55.62083,-31.33569 -92.04859,-51.3124 -109.2832,-59.92969 -17.23461,-8.61733 -45.04348,-27.02639 -83.42969,-55.22851 -22.71837,-16.45123 -34.07812,-29.37663 -34.07812,-38.77734 -3.13357,-22.71837 16.06032,-34.07813 57.58007,-34.07813 -1.5668,-4.700372 -14.8846,-5.875577 -39.95312,-3.525391 -15.33981,0 -20.8551,-3.340936 -30.55274,-24.675781 -3.91695,-8.617325 -9.79301,-12.925781 -17.62695,-12.925781 h 8.22656 c -3.13353,-5.483718 -4.30878,-9.401766 -3.52539,-11.751953 3.13357,0 5.48399,-1.175205 7.05078,-3.525391 5.48372,-5.483755 16.84157,-8.224609 34.07618,-8.224609 z m 274.9707,0 c 14.10093,0 22.3274,5.874106 24.67773,17.625 2.35015,11.750893 -5.09156,19.977399 -22.32617,24.677734 3.13357,4.700372 8.22483,6.266022 15.27539,4.699219 22.71833,-9.400708 26.24403,-24.676561 10.57617,-45.828125 3.13357,0 9.79244,9.40171 19.97657,28.203125 10.18413,18.801378 26.04657,39.560933 47.58984,62.279293 21.54327,22.71841 37.99433,47.39593 49.35352,74.03125 11.35911,26.63532 33.49005,56.01179 66.39255,88.13086 -55.62075,-32.11907 -92.04853,-52.48818 -109.28318,-61.10547 -17.23465,-8.61733 -45.04351,-27.02639 -83.42969,-55.22851 -22.71837,-15.66785 -34.07812,-28.59326 -34.07812,-38.77734 -3.13361,-21.934987 16.0583,-32.902349 57.57812,-32.902349 h 0.002 c -1.5668,-4.700335 -14.88458,-6.267938 -39.95313,-4.701172 -16.15106,0 -21.59283,-3.482046 -30.55273,-24.089843 -3.91695,-9.009035 -9.79302,-13.511719 -17.62695,-13.511719 h 8.22656 c -3.13353,-4.700335 -4.30859,-8.618384 -3.52539,-11.751953 3.13361,0.783383 5.48401,-0.391822 7.05078,-3.525391 5.48371,-5.483755 16.84156,-8.224609 34.07617,-8.224609 z m -21.15039,7.048828 c -5.48375,0 -8.22656,2.350446 -8.22656,7.050781 0,6.267139 2.74281,9.402344 8.22656,9.402344 6.2671,-0.783383 9.79083,-3.918589 10.57422,-9.402344 -0.7832,-4.700335 -4.30693,-7.050781 -10.57422,-7.050781 z m -542.89063,1.175781 c -6.26711,0 -9.40234,2.350408 -9.40234,7.050781 0,5.483718 3.13523,8.226563 9.40234,8.226563 6.26713,0 9.40039,-2.742845 9.4004,-8.226563 0,-4.700373 -3.13327,-7.050781 -9.4004,-7.050781 z m 267.91993,0 c -6.26713,0 -9.40039,2.350408 -9.40039,7.050781 0,5.483718 3.13326,8.226563 9.40039,8.226563 6.26714,0 9.40039,-2.742845 9.40039,-8.226563 0,-4.700373 -3.13325,-7.050781 -9.40039,-7.050781 z M 306.69727,178.61328 h 2.35156 c 6.26714,32.11907 22.3258,67.3716 48.17773,105.75781 -7.8339,6.26714 -18.4089,1.56629 -31.72656,-14.10156 0,-17.23461 -6.26845,-47.78628 -18.80273,-91.65625 z m 267.91992,0 h 1.17578 c 7.05052,31.33569 23.50158,66.58821 49.35351,105.75781 -7.83394,6.26714 -18.8013,1.56629 -32.90234,-14.10156 0,-18.01799 -5.87606,-48.56966 -17.62695,-91.65625 z m 274.9707,0 h 2.35156 c 6.2671,32.11907 22.32584,67.3716 48.17774,105.75781 -7.83387,6.26714 -18.40887,1.56629 -31.72657,-14.10156 0,-17.23461 -6.26849,-47.78628 -18.80273,-91.65625 z m -252.64258,19.97656 c 18.80141,14.10108 39.56093,28.59409 62.2793,43.47852 v 49.35352 c -3.91695,-7.8339 -10.18345,-12.1424 -18.80078,-12.92579 -25.06852,-37.60283 -39.56153,-64.2384 -43.47852,-79.90625 z m 18.80078,0 143.36133,79.90625 c 13.31766,22.71837 26.63547,42.69508 39.95313,59.92969 l -30.55274,7.05078 -47.0039,-71.68164 c -21.1516,-17.23461 -56.40413,-42.30259 -105.75782,-75.20508 z m -286.7207,1.17578 c 18.80137,14.10108 39.56089,28.20169 62.2793,42.30274 v 49.35352 c -3.91699,-7.05048 -10.18541,-10.96659 -18.80274,-11.75 -25.06851,-38.38621 -39.55961,-65.02179 -43.47656,-79.90626 z m 18.80078,0 143.36133,79.90626 c 13.31769,22.71836 26.63546,42.69308 39.95312,59.92773 l -30.55273,5.87695 -47.00391,-70.50586 c -21.1516,-17.23461 -56.40409,-42.30258 -105.75781,-75.20508 z m 524.08985,0 c 18.80134,14.10108 39.56088,28.20169 62.27929,42.30274 v 49.35352 c -3.91692,-7.05048 -10.18346,-10.96659 -18.80078,-11.75 -25.06855,-38.38621 -39.56156,-65.02179 -43.47851,-79.90626 z m 18.80078,0 143.3613,79.90626 c 13.3177,22.71836 26.6354,42.69308 39.9531,59.92773 l -30.5527,5.87695 -47.00389,-70.50586 C 975.32304,257.73609 940.07049,232.66812 890.7168,199.76562 Z m -480.61133,62.2793 17.62695,10.57617 c 9.40071,7.83391 22.1299,25.06781 38.18946,51.70313 16.05951,26.63535 25.65744,39.17031 28.79101,37.60351 l 43.14063,-6.29101 -10.23829,18.04101 c -3.98082,7.01465 -2.35137,17.62747 4.69922,31.72852 3.13357,-8.61733 6.65922,-12.92773 10.57617,-12.92773 18.80142,0.78342 31.33638,11.75272 37.60352,32.90429 6.26713,21.1516 14.49173,31.72657 24.67578,31.72657 0.78342,4.70036 -3.3289,36.62346 -12.33789,95.76953 -9.00903,59.14614 -11.55562,124.36371 -7.63867,195.65234 5.45624,38.87545 16.5531,61.73828 33.29102,67.00391 -107.61783,0.19007 -194.01276,-5.7583 -263.85743,-16.49219 18.19064,0.1606 33.99605,-15.84341 40.20313,-64.61328 4.70034,-70.50529 2.54611,-133.56863 -6.46289,-189.18946 -9.00899,-55.62086 -13.51367,-85.78009 -13.51367,-90.48046 10.96751,0 19.78064,-10.38078 26.43945,-31.14063 6.65885,-20.75993 17.03763,-31.14062 31.13867,-31.14062 3.91695,-3.13353 5.87695,-7.04963 5.87695,-11.75 0,-12.53427 -10.18455,-20.76079 -30.55273,-24.67774 5.48372,-3.91695 11.35981,-2.34935 17.62695,4.70117 1.5668,-10.96747 -4.30929,-18.40918 -17.62695,-22.32617 -10.96747,4.70037 -20.75962,7.05078 -29.37695,7.05078 l -2.35157,-51.70508 c 13.31766,18.80141 26.24503,24.28509 38.7793,16.45118 -2.35015,-21.93498 -3.91775,-37.99361 -4.70117,-48.17774 z m 267.91992,0 17.62695,9.40039 c 9.40067,7.83394 22.12991,25.26399 38.18946,52.29102 16.05955,27.02703 25.65748,39.7582 28.79101,38.1914 l 51.31641,-7.48437 c -4.01575,6.65831 -7.58764,13.60624 -11.36328,20.41016 -3.91695,7.05052 -2.35126,17.62548 4.69922,31.72656 3.91703,-8.61733 6.26743,-12.53338 7.05078,-11.75 19.58484,0 32.51017,10.57495 38.77734,31.72656 6.26714,21.15156 14.49361,31.72852 24.67774,31.72852 0.78335,4.70037 -3.32893,34.85963 -12.3379,90.48046 -9.009,55.62083 -11.55562,118.29178 -7.63867,188.01368 5.22,36.54021 15.33123,57.86364 30.33399,63.96875 -67.79762,9.58409 -152.33543,14.50282 -253.61524,14.7539 17.18097,-5.32847 28.15189,-28.17709 32.91602,-66.9707 4.70034,-71.28863 2.54611,-136.5062 -6.46289,-195.65234 -9.009,-59.14607 -13.51367,-91.06916 -13.51367,-95.76953 10.96747,0 19.78255,-10.57497 26.4414,-31.72657 6.65881,-21.15157 17.82043,-31.72851 33.48828,-31.72851 3.13353,-3.91695 4.70118,-8.22541 4.70118,-12.92578 0,-12.53427 -12.14261,-21.15124 -36.42774,-25.85157 3.13357,-4.70037 9.00966,-3.52516 17.62695,3.52539 3.91695,-11.75089 -1.95914,-18.40976 -17.62695,-19.97656 -10.96751,1.5668 -20.75956,3.91721 -29.37695,7.05078 l -2.35156,-51.70508 c 13.31769,18.01803 26.24501,23.11129 38.77929,15.27735 -2.35033,-21.15156 -3.91797,-36.81978 -4.70117,-47.00391 z m -343.125,35.25196 c 7.05052,11.75085 14.49227,12.53369 22.32617,2.3496 l 2.34961,45.83008 c -6.26714,-2.35019 -12.53364,-1.56734 -18.80078,2.34961 -6.26713,-2.35015 -12.92603,-3.133 -19.97656,-2.34961 z m 267.91992,0 c 7.05049,11.75085 14.49223,12.14325 22.32617,1.17578 l 2.35157,47.0039 c -6.26718,-2.35019 -12.53564,-1.95974 -18.80274,1.17383 -6.26717,-2.35019 -12.92607,-2.74064 -19.97656,-1.17383 z m 274.97071,0 c 7.05052,11.75085 14.4923,12.53369 22.32617,2.3496 l 2.34961,45.83008 c -6.26717,-2.35019 -12.53367,-1.56734 -18.80078,2.34961 -6.26713,-2.35015 -12.92604,-3.133 -19.97657,-2.34961 z m -522.91407,69.33007 c 25.06851,0 45.04523,3.52565 59.92969,10.57617 -15.66781,10.96752 -25.26573,23.50248 -28.79102,37.60352 -3.52528,14.10108 -9.39938,22.32563 -17.625,24.67578 -8.2256,2.35019 -16.64829,2.35019 -25.26562,0 -8.61732,-2.35015 -14.49147,-10.5747 -17.625,-24.67578 -3.13357,-14.10104 -12.92572,-26.636 -29.37695,-37.60352 14.88443,-7.05052 34.46873,-10.57617 58.7539,-10.57617 z m 272.6211,0 c 25.06851,0 45.04326,3.13325 59.92773,9.40039 -16.45127,10.96747 -26.24342,23.69862 -29.37695,38.19141 -3.13357,14.49275 -9.00767,22.91352 -17.625,25.26367 -8.61729,2.35019 -17.23619,2.35019 -25.85352,0 -8.61743,-2.35015 -14.68776,-10.77092 -18.21289,-25.26367 -3.52528,-14.49279 -13.51357,-27.22394 -29.96484,-38.19141 14.8845,-6.26714 35.25353,-9.40039 61.10547,-9.40039 z m 270.26953,3.52539 c 25.06855,0 45.0453,3.52566 59.92969,10.57618 -15.66796,10.18409 -25.26589,22.52283 -28.79102,37.01562 -3.52521,14.49272 -9.39935,22.71731 -17.625,24.67578 -8.22561,1.95851 -16.64829,1.95851 -25.26563,0 -8.61735,-1.95847 -14.49147,-10.18306 -17.625,-24.67578 -3.13352,-14.49279 -12.92572,-26.83153 -29.37695,-37.01562 14.88443,-7.05052 34.46874,-10.57618 58.75391,-10.57618 z m -741.48047,78.73047 c -1.56681,18.01803 1.17408,36.42905 8.22461,55.23047 41.51978,45.43673 86.56446,84.99772 135.13476,118.6836 -80.68937,14.101 -150.01922,34.07771 -207.99023,59.92968 0,39.95298 45.04663,77.35978 135.13672,112.22071 90.09009,34.86079 223.26608,51.89843 399.5293,51.11523 176.26325,0.78339 309.63541,-16.25426 400.11723,-51.11523 90.4817,-34.86093 135.7226,-72.26773 135.7226,-112.22071 -58.7543,-25.85197 -128.0842,-45.82868 -207.99022,-59.92968 48.57022,-33.68588 93.22272,-73.24687 133.95902,-118.6836 7.8339,-18.80142 10.969,-37.21244 9.4023,-55.23047 12.5343,0 26.6348,7.83408 42.3027,23.50196 16.4512,16.45119 23.893,30.94424 22.3262,43.47851 -18.018,-1.5668 -36.4272,1.176 -55.2285,8.22656 -50.1372,33.68584 -85.7821,64.23751 -106.9336,91.65625 53.2707,9.40071 116.7245,28.98502 190.3633,58.75391 0,49.35369 -50.3322,94.00793 -150.9981,133.96094 C 938.69939,848.41392 801.01872,867.60583 626.32227,866.03906 451.62585,867.60583 314.1394,848.41392 213.86523,808.46094 113.59102,768.50793 63.455078,723.85369 63.455078,674.5 137.09393,644.73111 200.54768,625.1468 253.81836,615.74609 c -21.1516,-27.41874 -56.79457,-57.97041 -106.93164,-91.65625 -18.80141,-7.05056 -37.21244,-9.79336 -55.23047,-8.22656 -1.566767,-12.53427 5.876899,-27.02732 22.32813,-43.47851 15.66785,-15.66788 29.76845,-23.50196 42.30273,-23.50196 z m 198.58984,11.75196 c 13.31766,103.40775 19.97657,170.77954 19.97657,202.11523 0,72.85547 -6.65891,109.2832 -19.97657,109.2832 -11.7509,0 -18.0174,-36.42773 -18.80078,-109.2832 0.78338,-31.33569 7.04988,-98.70748 18.80078,-202.11523 z m 271.44532,0 c 13.31766,110.45827 19.97656,181.74616 19.97656,213.86523 0,74.42228 -6.6589,111.63477 -19.97656,111.63477 -12.53447,0 -19.19338,-37.21249 -19.97657,-111.63477 0.78338,-32.11907 7.44229,-103.40696 19.97657,-213.86523 z m 271.44531,2.34961 c 13.31766,103.40774 19.97656,171.1719 19.97656,203.29101 0,72.07205 -6.6589,108.10742 -19.97656,108.10742 -11.75075,0 -18.01721,-36.03537 -18.80078,-108.10742 0.78343,-32.11911 7.04989,-99.88327 18.80078,-203.29101 z M 313.74805,638.07227 c -1.56677,24.28517 -1.17437,56.40441 1.17578,96.35742 5.36822,36.9065 15.92634,57.95442 31.64062,63.24804 C 301.38293,790.29353 261.92702,781.25469 233.25586,769.0957 158.44191,737.36834 121.0332,711.31939 121.0332,690.95117 186.83815,664.31585 251.0767,646.6896 313.74805,638.07227 Z m 626.32226,0 c 61.88799,8.61733 125.73419,26.24358 191.53909,52.8789 0,20.36822 -37.4067,46.22099 -112.2207,77.55664 -27.35734,11.45857 -62.22997,20.82135 -104.61917,28.08985 11.47118,-9.2412 19.12151,-29.18092 22.95117,-59.81836 2.34997,-39.95301 3.13281,-72.85509 2.34961,-98.70703 z M 30.552734,894.24219 H 1224.4414 v 75.20508 H 30.552734 Z"
     sodipodi:nodetypes="sccccscscsccccccccssssccccsccscsccsssccscccccsccccsccccccsccccscccccscsccccccccsccccccccssssccccscccsccscccccccsssssscccssscsccccsccccssscccssscsccccsccccssccccssscsccsccsccccsssccssssssscsssccccccccccccccccccccccccccccccccccccccccccccccccccscccscscsccccscscscccccccccsccsccscsccccscscsccccccccccccccccccccsccccsssssscssssssscsscsssscsccccscsccccsccccscsccccscccsccccsccccscccccsccccsccccccccc" />
</svg>
