<?xml version="1.0" standalone="no"?>
<!DOCTYPE svg PUBLIC "-//W3C//DTD SVG 1.1//EN" "http://www.w3.org/Graphics/SVG/1.1/DTD/svg11.dtd" >
<svg xmlns="http://www.w3.org/2000/svg" xmlns:xlink="http://www.w3.org/1999/xlink" version="1.1" viewBox="-10 0 424 1000">
   <path fill="currentColor"
d="M211 996q-44 -33 -72 -65q51 -51 70 -73q16 17 32.5 33.5t33.5 31.5q-23 33 -64 73zM156 800q-122 0 -122 -63q0 -34 18 -53q25 20 57 30t79 10q67 0 136 -21q-8 -22 -18.5 -45t-23.5 -46q-27 -48 -40 -73t-17 -40t-4 -31q0 -50 52 -66q9 22 20.5 49t23.5 53t20 45
q15 32 25 59.5t10 50.5q0 15 -9.5 42.5t-26.5 59.5q-72 39 -180 39z" />
</svg>
