<?xml version="1.0" encoding="UTF-8" standalone="no"?>
<svg
   version="1.1"
   viewBox="-10 0 484 1000"
   id="svg1"
   sodipodi:docname="2E60.svg"
   inkscape:version="1.4.3 (0d15f75, 2025-12-25)"
   xmlns:inkscape="http://www.inkscape.org/namespaces/inkscape"
   xmlns:sodipodi="http://sodipodi.sourceforge.net/DTD/sodipodi-0.dtd"
   xmlns="http://www.w3.org/2000/svg"
   xmlns:svg="http://www.w3.org/2000/svg">
  <defs
     id="defs1" />
  <sodipodi:namedview
     id="namedview1"
     pagecolor="#ffffff"
     bordercolor="#000000"
     borderopacity="0.25"
     inkscape:showpageshadow="2"
     inkscape:pageopacity="0.0"
     inkscape:pagecheckerboard="0"
     inkscape:deskcolor="#d1d1d1"
     inkscape:zoom="2.1863742"
     inkscape:cx="190.49804"
     inkscape:cy="720.59944"
     inkscape:window-width="1680"
     inkscape:window-height="998"
     inkscape:window-x="-8"
     inkscape:window-y="-8"
     inkscape:window-maximized="1"
     inkscape:current-layer="svg1"
     showguides="true">
    <sodipodi:guide
       position="255.89258,369.53906"
       orientation="1,0"
       id="guide1"
       inkscape:locked="false" />
    <sodipodi:guide
       position="255.89258,368.51953"
       orientation="0,-1"
       id="guide2"
       inkscape:locked="false" />
  </sodipodi:namedview>
  <path
     d="m 259,671 c -34.86324,0 -63,16.08229 -63,68 0,29.92472 10.34565,68 63,68 52.65505,0 63,-38.0763 63,-68 0,-51.91736 -28.13637,-68 -63,-68 z"
     style="opacity:1;fill:currentColor"
     id="path11"
     sodipodi:nodetypes="sssss" />
  <path
     id="path10"
     style="opacity:1;fill:currentColor"
     d="M 227.76197,76 C 132.95139,76 33,102.26011 33,179.35705 c 0,51.81789 51.269199,63 83,63 C 116,159.36815 162.54901,125 235.76197,125 c 80.98665,0 97.95287,33.29669 97.95287,58.54211 0,34.32581 -31.33647,50.71581 -105.95783,67.3196 -42.87004,9.5389 -90.60463,32.00316 -90.60463,69.8064 0,32.0042 17.92136,54.87131 60.02917,61.2608 59.70097,9.0591 79.78138,16.74991 79.78138,32.70404 0,17.40535 -23.55702,25.91497 -73.91211,35.61524 -32.66176,6.29187 -48.68359,34.10471 -48.68359,57.3125 0,34.67754 28.48868,48.22431 56.61523,60.36328 29.80334,12.86265 35.45314,31.03701 34.91016,63.55664 h 25.42187 c 1.78578,-8.76141 2.35352,-18.68784 2.35352,-27.37891 0,-18.92059 -4.88397,-37.66934 -20.60156,-52.42578 -12.76249,-11.73719 -25.36133,-22.13201 -25.36133,-36.93519 0,-11.70638 13.09544,-31.95844 71.58398,-41.23278 41.76716,-6.62288 55.74024,-29.09847 55.74024,-60.39453 0,-31.29606 -30.57991,-47.40894 -66.98552,-55.3628 -53.50742,-11.69025 -62.8387,-20.3283 -62.8387,-37.30838 0,-16.85239 27.688,-30.6558 105.11247,-46.82547 51.53547,-10.7629 88.67768,-48.78475 88.51848,-91.59222 C 418.59915,118.32036 342.29876,76 227.76197,76 Z"
     sodipodi:nodetypes="sscsssssssssccscsszsssss" />
</svg>
