<?xml version="1.0" encoding="UTF-8" standalone="no"?>
<svg
   version="1.1"
   viewBox="-10 0 484 1000"
   id="svg1"
   sodipodi:docname="2E61.svg"
   xml:space="preserve"
   inkscape:version="1.4.3 (0d15f75, 2025-12-25)"
   xmlns:inkscape="http://www.inkscape.org/namespaces/inkscape"
   xmlns:sodipodi="http://sodipodi.sourceforge.net/DTD/sodipodi-0.dtd"
   xmlns="http://www.w3.org/2000/svg"
   xmlns:svg="http://www.w3.org/2000/svg"><defs
     id="defs1" /><sodipodi:namedview
     id="namedview1"
     pagecolor="#ffffff"
     bordercolor="#000000"
     borderopacity="0.25"
     inkscape:showpageshadow="2"
     inkscape:pageopacity="0.0"
     inkscape:pagecheckerboard="0"
     inkscape:deskcolor="#d1d1d1"
     inkscape:zoom="0.54659354"
     inkscape:cx="101.53797"
     inkscape:cy="895.54663"
     inkscape:window-width="1680"
     inkscape:window-height="998"
     inkscape:window-x="-8"
     inkscape:window-y="-8"
     inkscape:window-maximized="1"
     inkscape:current-layer="svg1" /><path
     d="m 197.86288,397 c 34.86324,0 63,-16.08229 63,-68 0,-29.92472 -10.34565,-68 -63,-68 -52.65505,0 -63,38.0763 -63,68 0,51.91736 28.13637,68 63,68 z"
     style="fill:currentColor"
     id="path11-7"
     sodipodi:nodetypes="sssss" /><path
     id="path10-1"
     style="fill:currentColor"
     d="m 219.03859,992 c 52.11582,0 96.13543,-9.02421 118.6494,-19.04866 40.07705,-17.8445 48.08304,-71.63741 -2.94917,-94.45844 C 307.78548,921.33897 273.37605,943 211.03859,943 c -80.98665,0 -97.95287,-33.29669 -97.95287,-58.54211 0,-81.15377 217.01826,-75.12544 217.01826,-140.46716 0,-65.34172 -183.25444,-66.79553 -183.25444,-107.76713 0,-43.93507 100.82432,-38.11725 100.82432,-105.4593 0,-20.21937 -4.99996,-37.9533 -17.63634,-61.7643 h -54 c 8.99919,23.17515 11.47848,42.23975 11.47848,57.44557 0,56.50859 -112.78696,52.90649 -112.78696,115.87134 0,57.84935 167.3222,53.2574 167.3222,99.63578 0,46.37838 -214.524949,26.19453 -214.086749,144.02276 C 28.201411,949.67964 104.5018,992 219.03859,992 Z"
     sodipodi:nodetypes="sscsszssccsszss" /></svg>
