<?xml version="1.0" encoding="UTF-8" standalone="no"?>
<svg
   version="1.1"
   viewBox="-10 0 1046 1000"
   id="svg4"
   sodipodi:docname="43.svg"
   inkscape:version="1.1.1 (3bf5ae0d25, 2021-09-20)"
   xmlns:inkscape="http://www.inkscape.org/namespaces/inkscape"
   xmlns:sodipodi="http://sodipodi.sourceforge.net/DTD/sodipodi-0.dtd"
   xmlns="http://www.w3.org/2000/svg"
   xmlns:svg="http://www.w3.org/2000/svg">
  <defs
     id="defs8" />
  <sodipodi:namedview
     id="namedview6"
     pagecolor="#ffffff"
     bordercolor="#666666"
     borderopacity="1.0"
     inkscape:pageshadow="2"
     inkscape:pageopacity="0.0"
     inkscape:pagecheckerboard="0"
     showgrid="false"
     inkscape:zoom="0.3595"
     inkscape:cx="-76.495132"
     inkscape:cy="559.10987"
     inkscape:window-width="1680"
     inkscape:window-height="998"
     inkscape:window-x="-8"
     inkscape:window-y="-8"
     inkscape:window-maximized="1"
     inkscape:current-layer="svg4" />
  <path
     id="path2"
     d="m 402,240 c -35.33333,0 -74.85703,10.75716 -108.63867,33.42383 -31.88952,21.39711 -55.919,40.87707 -77.19531,74.77539 C 170.16644,421.48768 144,512.88225 144,596 c 0,39.33333 6.16667,75.5 18.5,108.5 12.33333,33 31.33333,59.16667 57,78.5 25.66667,19.33333 58.5,29 98.5,29 40.66667,0 78.16667,-10.16667 112.5,-30.5 34.19173,-20.24947 63.58286,-47.61721 88.1875,-82.08203 L 516.74023,727 c -2.4419,34.58056 5,57.16667 15,67.5 10,10.33333 20.33333,15.5 31,15.5 14,0 24.66667,-2.5 32,-7.5 7.33333,-5 12.33333,-10.16667 15,-15.5 18,-33.33333 42.83333,-59.66667 74.5,-79 31.66667,-19.33333 70.83333,-29 117.5,-29 22,0 43.16667,4.33333 63.5,13 20.33333,8.66667 37.16667,22.83333 50.5,42.5 13.33333,19.66667 20,46.16667 20,79.5 0,45.33333 -5.83333,79.66667 -17.5,103 -11.66667,23.33333 -25.66667,39 -42,47 -16.33333,8 -31.5,12 -45.5,12 -18,0 -29.66667,-5.33333 -35,-16 -5.33333,-10.66667 -9.33333,-22.33333 -12,-35 -2.66667,-14 -8.16667,-27.33333 -16.5,-40 -8.33333,-12.66667 -22.16667,-19 -41.5,-19 -18.66667,0 -33.5,6 -44.5,18 -11,12 -16.5,27.66667 -16.5,47 0,26 8,47 24,63 16,16 36.16667,27.6667 60.5,35 24.33333,7.3333 48.5,11 72.5,11 22.66667,0 46,-4.3333 70,-13 24,-8.6667 46.5,-22.1667 67.5,-40.5 21,-18.33333 38.00001,-41.83333 50.99997,-70.5 13,-28.66667 19.5,-62.66667 19.5,-102 0,-46 -10.1667,-85.16667 -30.49997,-117.5 -20.33333,-32.33333 -47.33333,-57 -81,-74 -33.66667,-17 -70.16667,-25.5 -109.5,-25.5 -42.66667,0 -81.16667,9.66667 -115.5,29 -34.33333,19.33333 -63.16667,42 -86.5,68 V 476 c 0,-28 -2.66667,-52 -8,-72 -5.33333,-20 -12.66667,-39 -22,-57 h 11 c 21.33333,0 42.5,-1.33333 63.5,-4 21,-2.66667 41.5,-5.33333 61.5,-8 16,-2.66667 31.33333,-4.83333 46,-6.5 14.66667,-1.66667 28,-2.5 40,-2.5 15.33333,0 28.5,3.33333 39.5,10 11,6.66667 21.83333,14 32.5,22 10,8 20.33333,15.33333 31,22 10.66667,6.66667 23.33333,10 38,10 8.66667,0 18.16667,-2.33333 28.5,-7 10.33333,-4.66667 19.5,-12 27.5,-22 7.99997,-10 11.99997,-23 11.99997,-39 0,-22.66667 -6.8333,-40.33333 -20.49997,-53 -13.66667,-12.66667 -32.5,-19 -56.5,-19 -20.66667,0 -43,1.83333 -67,5.5 -24,3.66667 -48.66667,8.16667 -74,13.5 -28.66667,6 -57.66667,11.33333 -87,16 -29.33333,4.66667 -58.66667,7 -88,7 -14,0 -28,-0.66667 -42,-2 -14,-1.33333 -28.13623,-2.16138 -41,-7 -17.6052,-6.62207 -32.53063,-14.99202 -45.45312,-22.12695 C 463.32709,248.19607 435.97112,240 402,240 Z m -17,75 c 44,0 76.16667,14 96.5,42 20.33333,28 30.5,67.66667 30.5,119 0,28.66667 -2.33333,58.16667 -7,88.5 -4.66667,30.33333 -12.83333,58.33333 -24.5,84 -11.66667,25.66667 -28.33333,46.5 -50,62.5 -21.66667,16 -49.5,24 -83.5,24 -34.66667,0 -61.66667,-13.83333 -81,-41.5 C 246.66667,665.83333 237,626.66667 237,576 237,494.66667 248.17616,430.09422 274.5,384.5 294.35765,350.10555 336.33333,315 385,315 Z"
     transform="translate(-10)"
     sodipodi:nodetypes="ssssssssccssscssssssssscssssssssssssssscsscsscssscsssssssscsssssssssssssssss" />
  <circle
     style="fill:#000000;stroke-width:80;stroke-linecap:round;stroke-linejoin:round;stop-color:#000000"
     id="path853"
     cx="366.91235"
     cy="509.04031"
     r="55.632824" />
</svg>
