<?xml version="1.0" standalone="no"?>
<!DOCTYPE svg PUBLIC "-//W3C//DTD SVG 1.1//EN" "http://www.w3.org/Graphics/SVG/1.1/DTD/svg11.dtd" >
<svg xmlns="http://www.w3.org/2000/svg" xmlns:xlink="http://www.w3.org/1999/xlink" version="1.1" viewBox="-10 0 737 1000">
   <path fill="currentColor"
d="M439 1040q-36 0 -72.5 -11t-60.5 -35t-24 -63q0 -29 16.5 -47t44.5 -18q29 0 41.5 19t16.5 40q4 19 12 35t35 16q21 0 45.5 -12t42 -47t17.5 -103q0 -50 -20 -79.5t-50.5 -42.5t-63.5 -13q-70 0 -117.5 29t-74.5 79q-4 8 -15 15.5t-32 7.5q-16 0 -31 -15.5t-15 -67.5
v-263q0 -5 -2.5 -22t-12 -39t-29.5 -43.5t-54 -36.5q-16 -6 -16 -22q0 -12 7 -26.5t18 -24.5t21 -10q23 0 44 12t39 31q20 5 41 7t42 2q44 0 88 -7t87 -16q38 -8 74 -13.5t67 -5.5q36 0 56.5 19t20.5 53q0 24 -12 39t-27.5 22t-28.5 7q-22 0 -38 -10t-31 -22
q-16 -12 -32.5 -22t-39.5 -10q-18 0 -40 2.5t-46 6.5q-30 4 -61.5 8t-63.5 4h-11q14 27 22 57t8 72v218q35 -39 86.5 -68t115.5 -29q59 0 109.5 25.5t81 74t30.5 117.5q0 59 -19.5 102t-51 70.5t-67.5 40.5t-70 13z" />
</svg>
