<?xml version="1.0" standalone="no"?>
<!DOCTYPE svg PUBLIC "-//W3C//DTD SVG 1.1//EN" "http://www.w3.org/Graphics/SVG/1.1/DTD/svg11.dtd" >
<svg xmlns="http://www.w3.org/2000/svg" xmlns:xlink="http://www.w3.org/1999/xlink" version="1.1" viewBox="-10 0 658 1000">
   <path fill="currentColor"
d="M481 824q-19 0 -31 -6t-12 -19v-155l-177 112q-14 9 -36 21.5t-43 22.5t-34 10q-16 0 -22 -8t-6 -21v-506q0 -14 15 -19.5t31 -5.5q18 0 31 6t13 19v100q38 -32 83.5 -63t88.5 -51.5t74 -20.5q47 0 69.5 23t22.5 61q0 41 -17.5 59t-43.5 18q-25 0 -36.5 -12t-15.5 -25
q-4 -14 -11 -24.5t-32 -10.5q-17 0 -49.5 16.5t-68 41.5t-64.5 51v281l214 -133q20 -13 40.5 -23.5t33.5 -10.5q15 0 22.5 11.5t7.5 23.5v212q0 13 -12.5 19t-34.5 6z" />
</svg>
