<?xml version="1.0" encoding="UTF-8" standalone="no"?>
<svg
   version="1.1"
   viewBox="-10 0 700 1000"
   id="svg4"
   sodipodi:docname="Nakaara.svg"
   width="700"
   height="1000"
   inkscape:version="1.1.1 (3bf5ae0d25, 2021-09-20)"
   xmlns:inkscape="http://www.inkscape.org/namespaces/inkscape"
   xmlns:sodipodi="http://sodipodi.sourceforge.net/DTD/sodipodi-0.dtd"
   xmlns="http://www.w3.org/2000/svg"
   xmlns:svg="http://www.w3.org/2000/svg">
  <defs
     id="defs8" />
  <sodipodi:namedview
     id="namedview6"
     pagecolor="#ffffff"
     bordercolor="#666666"
     borderopacity="1.0"
     inkscape:pageshadow="2"
     inkscape:pageopacity="0.0"
     inkscape:pagecheckerboard="0"
     showgrid="false"
     width="700px"
     showguides="true"
     inkscape:guide-bbox="true"
     inkscape:snap-smooth-nodes="true"
     inkscape:snap-global="false"
     inkscape:zoom="1.0168196"
     inkscape:cx="432.23008"
     inkscape:cy="613.67821"
     inkscape:window-width="1680"
     inkscape:window-height="998"
     inkscape:window-x="-8"
     inkscape:window-y="-8"
     inkscape:window-maximized="1"
     inkscape:current-layer="svg4"
     inkscape:snap-bbox="false"
     inkscape:bbox-paths="true"
     inkscape:snap-nodes="true">
    <sodipodi:guide
       position="249,747"
       orientation="0,-1"
       id="guide825" />
    <sodipodi:guide
       position="226,200"
       orientation="0,-1"
       id="guide846" />
    <sodipodi:guide
       position="110.5,706"
       orientation="0,-1"
       id="guide1373" />
    <sodipodi:guide
       position="235.04868,248"
       orientation="0,1"
       id="guide1375"
       inkscape:label=""
       inkscape:locked="false"
       inkscape:color="rgb(0,0,255)" />
    <sodipodi:guide
       position="-45.98331,660"
       orientation="0,-1"
       id="guide1847" />
    <sodipodi:guide
       position="-199.98331,353"
       orientation="0,1"
       id="guide1851"
       inkscape:label=""
       inkscape:locked="false"
       inkscape:color="rgb(0,0,255)" />
    <sodipodi:guide
       position="-500.78164,507"
       orientation="0,1"
       id="guide2464"
       inkscape:label=""
       inkscape:locked="false"
       inkscape:color="rgb(0,0,255)" />
    <sodipodi:guide
       position="60,661.21152"
       orientation="1,0"
       id="guide5358" />
    <sodipodi:guide
       position="348,545.2573"
       orientation="1,0"
       id="guide5930" />
    <sodipodi:guide
       position="128.83309,580.06315"
       orientation="1,0"
       id="guide8745" />
    <sodipodi:guide
       position="88.51128,349.93382"
       orientation="1,0"
       id="guide9678" />
  </sodipodi:namedview>
  <path
     id="path2"
     style="stroke-width:1"
     d="m 249,253 c -130.9885,0 -189,65.36393 -189,115.94364 0,36.38119 29.329044,72.05331 68.83309,82.63839 C 88.51128,462.99521 60,496.47705 60,528.4471 c 0,33.6778 28.51128,63.90315 68.83309,77.41813 C 88.51128,614.43176 60,657.64585 60,696.8552 60,737.13446 73.91609,800 227,800 h 121.34766 v -71 h -138 C 183.8202,728.84239 115,721.5098 115,689.54523 115,658.27608 176.56713,647 211.00556,647 H 348 V 576 H 210 C 183.47254,575.84239 115,562.88686 115,531.68761 115,504.69043 165.87346,494.10386 203.53711,493 H 348 V 422 H 210 C 183.47254,421.84239 115,408.99416 115,379.11583 115,352.64465 182.82583,340 227,340 h 425.9043 l 7,-87 z"
     transform="translate(-10)"
     sodipodi:nodetypes="sscscsscccsscccsccccssccs" />
  <path
     fill="currentColor"
     d="m -810.78164,914.7427 q -34,0 -66.5,-13.5 -32.5,-13.5 -54,-42.5 -21.5,-29 -21.5,-76 0,-42 20.5,-73.5 20.5,-31.5 58.5,-47.5 -37,-19 -58,-53.5 -21,-34.5 -21,-83.5 0,-75 50.5,-116 50.5,-41 138.5,-41 h 260 l -7,87 h -275 q -59,0 -85.5,20 -26.5,20 -26.5,55 0,37 27,56.5 27,19.5 68,19.5 h 138 v 82 h -146 q -41,0 -64,18.5 -23,18.5 -23,52.5 0,31 21,50.5 21,19.5 61,19.5 h 29 v 86 z"
     id="path2285" />
</svg>
