<?xml version="1.0" encoding="UTF-8" standalone="no"?>
<svg
   version="1.1"
   viewBox="0 0 36 36"
   id="svg3"
   sodipodi:docname="1f1f8-1f1ec.svg"
   inkscape:version="1.4-beta3 (01c8a1c, 2024-08-28, custom)"
   xmlns:inkscape="http://www.inkscape.org/namespaces/inkscape"
   xmlns:sodipodi="http://sodipodi.sourceforge.net/DTD/sodipodi-0.dtd"
   xmlns="http://www.w3.org/2000/svg"
   xmlns:svg="http://www.w3.org/2000/svg">
  <defs
     id="defs3" />
  <sodipodi:namedview
     id="namedview3"
     pagecolor="#ffffff"
     bordercolor="#666666"
     borderopacity="1.0"
     inkscape:showpageshadow="2"
     inkscape:pageopacity="0.0"
     inkscape:pagecheckerboard="0"
     inkscape:deskcolor="#d1d1d1"
     showguides="true"
     inkscape:zoom="29.659201"
     inkscape:cx="23.753168"
     inkscape:cy="25.000673"
     inkscape:window-width="1680"
     inkscape:window-height="998"
     inkscape:window-x="-8"
     inkscape:window-y="-8"
     inkscape:window-maximized="1"
     inkscape:current-layer="svg3">
    <sodipodi:guide
       position="0,5"
       orientation="0,1"
       id="guide3"
       inkscape:locked="false"
       inkscape:label=""
       inkscape:color="rgb(0,134,229)" />
  </sodipodi:namedview>
  <rect
     x=".1"
     y="14.1"
     width="35.8"
     height="16.8"
     ry="3.9"
     fill="#fff"
     stroke-width=".2"
     id="rect1"
     style="stroke:#77767b" />
  <path
     d="m36 18v-9c0-2.21-1.79-4-4-4h-28c-2.21 0-4 1.79-4 4v9h36z"
     fill="#ED2939"
     id="path1" />
  <path
     d="M6 11.5c0-2.585 1.624-4.748 3.81-5.336C9.389 6.061 8.952 6 8.5 6 5.462 6 3 8.462 3 11.5S5.462 17 8.5 17c.452 0 .889-.06 1.31-.164C7.624 16.248 6 14.085 6 11.5z"
     fill="#FFF"
     id="path2" />
  <path
     d="M12 7l.225.691h.726l-.588.427.225.691L12 8.382l-.588.427.225-.691-.588-.427h.726zm-2 7l.225.691h.726l-.588.427.225.691-.588-.427-.588.427.225-.691-.588-.427h.726zm4 0l.225.691h.726l-.588.427.225.691-.588-.427-.588.427.225-.691-.588-.427h.726zm-5-4l.225.691h.726l-.588.427.225.691L9 11.382l-.588.427.225-.691-.588-.427h.726zm6 0l.225.691h.726l-.588.427.225.691-.588-.427-.588.427.225-.691-.588-.427h.726z"
     fill="#FFF"
     id="path3" />
</svg>
