<svg version="1.1" viewBox="0 0 36 36" xmlns="http://www.w3.org/2000/svg">
<rect x=".15" y="14" width="35.7" height="16.8" ry="3.85" fill="#fff" stroke="#9a9996" stroke-width=".3"/>
<path d="m36 18v-9c0-2.21-1.79-4-4-4h-28c-2.21 0-4 1.79-4 4v9h36z" fill="#ED2939"/>
<path d="M6 11.5c0-2.585 1.624-4.748 3.81-5.336C9.389 6.061 8.952 6 8.5 6 5.462 6 3 8.462 3 11.5S5.462 17 8.5 17c.452 0 .889-.06 1.31-.164C7.624 16.248 6 14.085 6 11.5z" fill="#FFF"/>
<path d="M12 7l.225.691h.726l-.588.427.225.691L12 8.382l-.588.427.225-.691-.588-.427h.726zm-2 7l.225.691h.726l-.588.427.225.691-.588-.427-.588.427.225-.691-.588-.427h.726zm4 0l.225.691h.726l-.588.427.225.691-.588-.427-.588.427.225-.691-.588-.427h.726zm-5-4l.225.691h.726l-.588.427.225.691L9 11.382l-.588.427.225-.691-.588-.427h.726zm6 0l.225.691h.726l-.588.427.225.691-.588-.427-.588.427.225-.691-.588-.427h.726z" fill="#FFF"/>
</svg>
