<svg version="1.1" viewBox="0 0 36 36" xmlns="http://www.w3.org/2000/svg">
<path d="m10 13h25l1 1v8l-1 1h-25z" fill="#da121a"/>
<path d="m2 11h34v3h-34zm0 11h34v3h-34z" fill="#fff"/>
<path d="m0 27c0 2.21 1.79 4 4 4h28c2.21 0 4-1.79 4-4v-3h-36v3z" fill="#078930"/>
<path d="m32 5h-28c-2.21 0-4 1.79-4 4v3h36v-3c0-2.21-1.79-4-4-4z" fill="#141414"/>
<path d="m1.35 6h-1e-3c-0.828 0.733-1.35 1.8-1.35 3.26v18c0 0.926 0.522 2 1.35 2.73l16.1-12-16.1-12z" fill="#0F47AF"/>
<path d="m8.25 17.9 1.78-2.45-2.88 0.934-1.78-2.44v3.02l-2.88 0.934 2.88 0.934v3.02l1.78-2.44 2.88 0.934z" fill="#FCDD09"/>
</svg>
