<?xml version="1.0" encoding="UTF-8" standalone="no"?>
<svg
   version="1.1"
   viewBox="0 0 36 36"
   id="svg4"
   sodipodi:docname="1f1f8-1f1e9.svg"
   inkscape:version="1.4-beta3 (01c8a1c, 2024-08-28, custom)"
   xmlns:inkscape="http://www.inkscape.org/namespaces/inkscape"
   xmlns:sodipodi="http://sodipodi.sourceforge.net/DTD/sodipodi-0.dtd"
   xmlns="http://www.w3.org/2000/svg"
   xmlns:svg="http://www.w3.org/2000/svg">
  <defs
     id="defs4" />
  <sodipodi:namedview
     id="namedview4"
     pagecolor="#ffffff"
     bordercolor="#666666"
     borderopacity="1.0"
     inkscape:showpageshadow="2"
     inkscape:pageopacity="0.0"
     inkscape:pagecheckerboard="0"
     inkscape:deskcolor="#d1d1d1"
     inkscape:zoom="20.972222"
     inkscape:cx="18"
     inkscape:cy="18"
     inkscape:window-width="1680"
     inkscape:window-height="998"
     inkscape:window-x="-8"
     inkscape:window-y="-8"
     inkscape:window-maximized="1"
     inkscape:current-layer="svg4" />
  <path
     d="m32 5h-28c-2.21 0-4 1.79-4 4l5 4.5h31v-4.5c0-2.21-1.79-4-4-4z"
     fill="#d21034"
     id="path1" />
  <path
     d="m0 27c0 2.21 1.79 4 4 4h28c2.21 0 4-1.79 4-4v-4.5h-31z"
     fill="#141414"
     id="path2" />
  <path
     d="m8 13.5h28v9h-28z"
     fill="#fff"
     id="path3" />
  <path
     d="m1.35 6h-1e-3c-0.828 0.733-1.35 1.8-1.35 3v18c0 1.19 0.522 2.26 1.35 3l16.1-12-16.1-12z"
     fill="#007229"
     id="path4" />
  <rect
     x="35.8"
     y="13.5"
     width=".2"
     height="9"
     id="rect4"
     style="fill:#77767b" />
</svg>
