<?xml version="1.0" encoding="UTF-8" standalone="no"?>
<svg
   width="900"
   height="1000"
   version="1.1"
   id="svg1"
   sodipodi:docname="1303C.svg"
   inkscape:version="1.4.2 (f4327f4, 2025-05-13)"
   xmlns:inkscape="http://www.inkscape.org/namespaces/inkscape"
   xmlns:sodipodi="http://sodipodi.sourceforge.net/DTD/sodipodi-0.dtd"
   xmlns="http://www.w3.org/2000/svg"
   xmlns:svg="http://www.w3.org/2000/svg">
  <defs
     id="defs1" />
  <sodipodi:namedview
     id="namedview1"
     pagecolor="#ffffff"
     bordercolor="#666666"
     borderopacity="1.0"
     inkscape:showpageshadow="2"
     inkscape:pageopacity="0.0"
     inkscape:pagecheckerboard="0"
     inkscape:deskcolor="#d1d1d1"
     showguides="true"
     inkscape:zoom="1.0677312"
     inkscape:cx="454.70244"
     inkscape:cy="554.91492"
     inkscape:window-width="1680"
     inkscape:window-height="998"
     inkscape:window-x="-8"
     inkscape:window-y="-8"
     inkscape:window-maximized="1"
     inkscape:current-layer="svg1">
    <sodipodi:guide
       position="615.27734,342.24219"
       orientation="0,-1"
       id="guide1"
       inkscape:locked="false" />
    <sodipodi:guide
       position="366.37891,363.05859"
       orientation="0,-1"
       id="guide2"
       inkscape:locked="false" />
  </sodipodi:namedview>
  <path
     id="path1"
     style="fill:#000000;stroke:none;stroke-width:1"
     d="m 598.32422,0.13671875 c -6.2234,0.3035776 -12.23938,1.10714705 -18.05078,2.40820315 -23.24563,5.2042612 -38.16577,14.0508541 -44.75782,26.5410161 -6.59204,12.490197 -11.6223,24.633418 -15.09179,36.429687 -6.2451,9.020666 -13.53065,21.163921 -21.85742,36.429685 -4.16339,9.7146 -4.16339,15.26652 0,16.6543 4.16338,1.38782 8.67397,3.46853 13.53125,6.24414 -5.55118,2.08167 -7.98101,3.98984 -7.28711,5.72461 0.66348,1.65871 3.86467,2.84173 9.60351,3.54883 -0.82787,0.32409 -2.29347,1.22378 -4.39844,2.69726 -3.46949,2.42862 -3.64403,4.50938 -0.52148,6.24414 3.12255,1.73474 4.68555,5.72561 4.68555,11.97071 -0.6939,7.63288 1.73398,12.49056 7.28515,14.57226 l -13.53125,38.50977 h 29.14453 l 8.32618,-36.42969 h 9.36718 c 4.85732,7.63288 4.5102,17.69535 -1.04101,30.18555 -13.87798,18.73526 -26.7135,51.69574 -38.50977,98.88086 -36.77663,3.46949 -81.88033,8.67233 -135.31054,15.61133 -26.36814,-12.49021 -44.75753,-19.77575 -55.16602,-21.85743 L 248.76367,88.414062 C 239.74297,53.71911 222.39496,57.88257 196.7207,100.9043 l 1.04102,1.04101 L 0,377.76953 l 17.695312,9.36914 20.816407,-31.22656 22.898437,11.44922 -16.654297,32.26758 16.654297,8.32617 16.654297,-32.26563 22.898437,11.44922 -13.531249,33.30664 18.734379,9.36719 L 230.02734,93.619141 302.88672,294.50195 H 274.7832 c 0,8.32678 5.89901,14.22582 17.69532,17.69532 -4.16339,0 -6.2461,7.63267 -6.2461,22.89843 0,15.26577 10.75675,22.89844 32.26758,22.89844 l 7.28516,15.61328 h -36.42969 c 0,7.63288 6.59329,13.18285 19.77734,16.65235 -8.32677,15.95969 -7.63451,31.05245 2.08008,45.27734 9.71456,14.22493 31.92028,13.01097 66.61523,-3.64258 54.12407,2.7756 95.75857,5.20348 124.90235,7.28516 v 78.06445 c -45.1034,4.16343 -85.69656,9.36822 -121.7793,15.61328 -36.08274,6.2451 -69.04322,14.91715 -98.88086,26.01953 -32.61324,12.4902 -49.61413,40.24784 -51.00195,83.26953 -11.79627,61.75699 -20.8174,119.34909 -27.0625,172.7793 -6.24506,53.43021 -18.21378,88.64596 -35.9082,105.64649 -17.69443,17.00046 -44.93041,31.74612 -81.707035,44.23632 -20.816972,5.55121 -30.879439,16.6531 -30.185547,33.30664 H 240.43555 c 20.12308,-1.38778 31.22496,-7.28487 33.30664,-17.69335 2.0817,-10.40848 0.52066,-21.68488 -4.6836,-33.82813 -5.20411,-12.14321 -7.97911,-25.1533 -8.32617,-39.03125 -0.34694,-13.87798 8.84677,-46.14421 27.58203,-96.79883 20.81694,-40.94001 32.44048,-75.11446 34.86914,-102.52344 1.89354,-21.36985 6.42376,-36.09672 13.58985,-44.17968 -3.61803,12.79844 -4.85163,30.12581 -3.70117,51.98437 l 3.12109,38.51172 c -2.08168,20.81694 -1.04034,35.21549 3.12305,43.19531 4.16338,7.97987 6.24609,34.52157 6.24609,79.625 0,29.8376 -7.2875,50.30778 -21.85938,61.41016 -19.42914,12.4902 -29.14257,26.369 -29.14257,41.63477 v 16.65234 h 81.18554 c 9.02067,-16.65355 10.40917,-33.30739 4.16407,-49.96094 0,-11.10256 4.51054,-17.51936 13.53125,-19.2539 9.0207,-1.73477 11.96825,-6.24532 8.8457,-13.53126 -3.12255,-7.28589 -4.68359,-19.60369 -4.68359,-36.95117 0,-26.36817 3.12208,-49.44065 9.36718,-69.21679 6.24506,-19.7761 7.98065,-48.0515 5.20508,-84.82813 0,-15.95985 5.55192,-24.28673 16.6543,-24.98047 h 249.80273 c 4.85732,46.49122 26.71595,87.77859 65.57422,123.86133 v 55.16406 c -1.38782,29.8376 -9.36761,50.30778 -23.93945,61.41016 -19.42915,12.4902 -29.14453,26.36901 -29.14453,41.63477 v 17.69335 h 80.14453 c 9.71456,-17.34748 11.79727,-34.3484 6.24609,-51.00195 0,-11.10256 4.33601,-17.51936 13.00977,-19.2539 8.67356,-1.73477 11.45052,-6.24532 8.32812,-13.53126 -3.1224,-7.28589 -4.68359,-20.64503 -4.68359,-40.07421 0,-19.42916 1.90817,-34.1728 5.72461,-44.23438 3.81659,-10.06139 7.2858,-16.48014 10.4082,-19.25586 3.1224,-2.77545 4.6836,-5.55241 4.6836,-8.32812 0,-2.77564 -1.73562,-5.89773 -5.20508,-9.36719 -27.75596,-18.73526 -41.63282,-44.41016 -41.63282,-77.02344 0,-29.14374 13.18265,-55.51098 39.55079,-79.10351 V 466.24219 c 0,-11.79628 -4.16347,-17.34819 -12.49024,-16.6543 H 715.0625 c -9.71459,0 -14.57227,5.89905 -14.57227,17.69531 l -16.65234,169.65821 h -37.01367 c 15.58948,-19.97007 26.19222,-53.6248 31.80859,-100.96289 v -67.6543 -186.3125 h 17.69531 c 5.55117,-63.83866 8.32618,-122.29955 8.32618,-175.38281 0,-53.083233 -14.91823,-85.002384 -44.75586,-95.757816 C 637.52021,2.8045199 616.99442,-0.77401406 598.32422,0.13671875 Z m 3.31836,17.04492225 c 15.41757,-0.390314 31.71273,2.536142 48.88672,8.78125 22.89868,8.326774 34.34961,34.00171 34.34961,77.023439 0,43.02168 -1.73562,96.10518 -5.20508,159.25 h -53.08399 c -5.55124,-73.55326 -6.24541,-116.22909 -2.08203,-128.02539 9.71374,-13.18406 14.74595,-27.40803 15.09375,-42.673831 0.34695,-15.265764 -3.2968,-24.63402 -10.92968,-28.103515 -7.63288,-3.469496 -16.3069,-3.469496 -26.02149,0 -2.77561,-11.79627 -20.81591,-18.387608 -54.12305,-19.775391 5.55121,-13.184089 18.21414,-21.510973 37.99024,-24.980469 4.94403,-0.867373 9.98581,-1.365989 15.125,-1.496093 z m -47.8457,40.884765 c 29.44731,1.062546 42.95596,12.220077 40.52734,33.470703 h 9.36719 c 0,-11.10234 3.12208,-16.654297 9.36718,-16.654297 8.32678,0 12.49024,5.899044 12.49024,17.695313 0,11.796275 -5.89709,24.980865 -17.69336,39.552735 -1.38786,28.44985 -2.08203,50.3065 -2.08203,65.57226 -11.10238,4.1634 -21.1629,2.08264 -30.1836,-6.24414 0.69375,-2.7756 0.69375,-9.36885 0,-19.77734 -0.69389,-10.40849 -9.71502,-14.39741 -27.0625,-11.96875 -17.34748,2.42865 -24.63302,-3.29585 -21.85742,-17.17383 10.40849,-6.2451 14.05025,-10.58306 10.92774,-13.01172 -3.12259,-2.42862 -8.49994,-3.9897 -16.13282,-4.68359 0,-4.85731 -4.16345,-9.36786 -12.49023,-13.53125 8.32678,-18.041365 15.95945,-30.531712 22.89844,-37.470703 7.63288,-4.163387 15.44006,-4.335973 23.41992,-0.519531 7.97983,3.816441 16.47933,6.765944 25.5,8.847656 v -6.246094 c -5.55117,0 -12.48959,-2.602379 -20.81641,-7.80664 -8.32677,-5.204225 -16.65369,-6.071058 -24.98047,-2.601563 l 5.20313,-7.285156 c 4.85729,-0.26021 9.3909,-0.315855 13.59766,-0.164063 z m -7.10743,16.914063 c -3.54539,-0.06505 -6.74899,0.943702 -9.61133,3.02539 L 528.75,84.251953 v 5.203125 h 3.12305 c 10.40848,4.857279 21.85749,4.857279 34.34765,0 l 12.49024,3.123047 v -8.326172 h -11.44922 c -7.80637,-6.071598 -14.66328,-9.163061 -20.57227,-9.271484 z m -4.4082,4.066406 c -1.38779,2.775603 -1.38779,5.550568 0,8.326172 -2.77561,-1.387821 -5.20348,-2.427203 -7.28516,-3.121094 1.38778,-2.081675 3.81566,-3.817258 7.28516,-5.205078 z m 9.36914,1.041016 10.4082,7.285156 c -4.16338,0.693891 -7.97972,1.041016 -11.44921,1.041015 2.77556,-2.081711 3.12268,-4.856676 1.04101,-8.326171 z m -21.59766,30.640629 c -0.0867,0 -0.17498,0.0211 -0.26171,0.0644 -0.69394,0.34694 -0.86652,1.38828 -0.51954,3.12305 0.34695,1.73473 -0.17468,2.77414 -1.5625,3.12109 -1.38778,0.34695 -2.94886,-0.51988 -4.68359,-2.60156 -1.73477,-2.08172 -3.29581,-3.12305 -4.68359,-3.12305 -0.69393,0 -1.38814,0.34712 -2.08203,1.04102 -0.69389,0.69393 -0.69389,1.73526 0,3.12304 1.38782,-1.38778 3.29594,-0.69353 5.72461,2.08203 2.42861,2.7756 4.85844,3.46982 7.2871,2.08203 2.42862,-1.38782 3.29546,-3.29598 2.60157,-5.7246 -0.60716,-2.12508 -1.21316,-3.1875 -1.82032,-3.1875 z m -11.27148,16.82421 c 0.74811,0.0163 1.64274,0.15386 2.68359,0.41407 2.7756,0.69389 5.72511,1.21371 8.84766,1.56054 l 4.68359,0.52149 -17.69531,1.04101 c -1.38778,-0.69392 -1.7349,-1.56267 -1.04101,-2.60351 0.43368,-0.65053 1.27463,-0.9607 2.52148,-0.9336 z m 15.17383,5.61915 c -1.38779,0.69389 -3.29599,1.56068 -5.72461,2.60156 -2.42866,1.04084 -4.33679,1.90767 -5.72461,2.60156 -2.77557,0 -4.33665,-0.17258 -4.68359,-0.51953 -0.34698,-0.34695 0.17272,-1.2157 1.56054,-2.60352 z m -386.1543,72.85937 -78.064452,142.5957 -17.693359,-9.36718 z m 421.54297,1.03906 c 11.79627,12.49016 24.28662,16.65362 37.4707,12.49024 0,4.16338 1.04145,20.47006 3.12305,48.91992 -29.83771,-2.08171 -48.57415,-8.32589 -56.20703,-18.73438 z m -404.89063,6.2461 -57.24609,154.04492 -18.734374,-10.40821 z m 380.95118,61.41015 c 14.57186,8.32678 30.53146,12.83733 47.8789,13.53125 -2.77556,2.77557 -5.55057,8.67266 -8.32617,17.69336 -2.77561,9.02067 -8.50011,18.56151 -17.17383,28.62305 -8.67375,10.06151 -22.37802,27.58409 -41.11328,52.56445 1.38778,-36.77659 7.63196,-74.24766 18.73438,-112.41211 z m 111.37109,34.34766 V 431.89453 C 660.02901,559.43615 640.09288,627.785 596.96875,636.94141 H 345.5625 c -22.89865,2.77561 -36.43036,16.30696 -40.59375,38.51171 -5.55121,39.55224 -14.74492,75.28769 -27.58203,107.20704 -12.83714,31.91935 -25.50203,68.34905 -37.99219,109.28906 v 36.42969 c 16.65355,29.14374 12.83722,45.79732 -11.44922,49.96093 l -133.228513,1.04102 -1.041016,-2.08203 c 39.552239,-11.10234 69.563179,-24.45952 90.033199,-40.07227 20.47,-15.61271 33.82912,-52.73662 40.07422,-111.37109 6.2451,-58.6344 15.95853,-119.52512 29.14258,-182.66992 0.69393,-36.0827 14.57273,-57.24514 41.63477,-63.49024 22.20475,-8.32677 51.3489,-15.95944 87.43164,-22.89843 36.08274,-6.93899 83.96144,-12.83804 143.63672,-17.69532 V 440.2207 c 18.73526,-2.77556 62.4505,-46.49081 131.14648,-131.14648 z m -289.35547,41.63476 c 57.5936,0.6939 104.08385,2.08044 139.47266,4.16211 l -3.12305,33.3086 c -23.59257,1.38778 -62.10302,4.85699 -115.5332,10.4082 -21.51086,-14.57187 -34.00121,-22.89876 -37.47071,-24.98047 l -8.32617,-15.61328 z m 362.21485,118.65625 h 49.96093 c 4.85732,0 7.28516,3.81634 7.28516,11.44922 v 148.8418 c -24.98036,27.75593 -37.4707,56.55104 -37.4707,86.38867 0,36.08278 15.26534,64.87976 45.79687,86.39063 -11.79627,18.04136 -17.69336,32.26729 -17.69336,42.67578 2.08168,44.40947 -1.04041,72.1652 -9.36719,83.26758 -8.32666,11.10241 -9.88785,20.29609 -4.68359,27.58203 5.20423,7.2859 3.2961,15.44024 -5.72461,24.46094 h -22.90039 l 6.24609,-14.57227 h -11.44921 l -10.40821,14.57227 h -7.28711 c 0,-9.0207 8.15434,-18.38897 24.46094,-28.10352 16.3066,-9.71463 24.45898,-34.69535 24.45899,-74.94141 l 3.12304,-68.69531 C 721.65463,776.76229 700.49023,735.12783 700.49023,683.7793 l 18.73633,-201.92383 c 0,-8.32677 3.46921,-12.49024 10.40821,-12.49024 z m -47.87891,188.39258 -2.08203,19.77735 H 413.2168 c -11.79631,0 -17.69532,12.49034 -17.69532,37.4707 2.08172,41.63394 9.6e-4,72.51168 -6.24414,92.63476 -6.2451,20.12305 -9.0201,43.36816 -8.32617,69.73633 4.85728,23.59254 2.2549,40.76609 -7.80664,51.52149 -10.06154,10.75547 -12.14425,19.77656 -6.24609,27.0625 5.89815,7.2859 3.98998,15.44024 -5.72461,24.46094 h -21.85742 l 6.24609,-14.57227 h -12.49023 l -10.41016,14.57227 h -7.28516 c 0,-9.0207 8.32689,-18.38897 24.98047,-28.10352 16.65359,-9.71463 24.98047,-34.69535 24.98047,-74.94141 0,-45.10343 -2.25529,-71.47063 -6.76562,-79.10351 -4.51038,-7.63288 -5.7243,-21.85881 -3.64258,-42.67578 l -3.12305,-39.55274 c 1.80353,-33.66566 10.89816,-53.78836 27.28516,-58.28711 z"
     sodipodi:nodetypes="sssccscscsscccccccccccccccccccccccccccsccccscccsccsscccssscscccsscsccccsssccccccsccccssssscscscscccccccssssssccccsccsssccssccccscscccsccsccssccccccccsccccccccssssssscsssssccccsscccscccccccccccccccccsscccccccscccccssccsccccscccccscscsccssccccccsccccsccscscssccccccsssccccc" />
</svg>
