<?xml version="1.0" encoding="UTF-8" standalone="no"?>
<svg
   width="900"
   height="1000"
   version="1.1"
   id="svg1"
   sodipodi:docname="1303D.svg"
   inkscape:version="1.4.2 (f4327f4, 2025-05-13)"
   xmlns:inkscape="http://www.inkscape.org/namespaces/inkscape"
   xmlns:sodipodi="http://sodipodi.sourceforge.net/DTD/sodipodi-0.dtd"
   xmlns="http://www.w3.org/2000/svg"
   xmlns:svg="http://www.w3.org/2000/svg">
  <defs
     id="defs1" />
  <sodipodi:namedview
     id="namedview1"
     pagecolor="#ffffff"
     bordercolor="#666666"
     borderopacity="1.0"
     inkscape:showpageshadow="2"
     inkscape:pageopacity="0.0"
     inkscape:pagecheckerboard="0"
     inkscape:deskcolor="#d1d1d1"
     showguides="true"
     inkscape:zoom="0.53386562"
     inkscape:cx="205.10779"
     inkscape:cy="516.04747"
     inkscape:window-width="1680"
     inkscape:window-height="998"
     inkscape:window-x="-8"
     inkscape:window-y="-8"
     inkscape:window-maximized="1"
     inkscape:current-layer="svg1" />
  <path
     style="fill:#000000;stroke:none;stroke-width:1"
     d="m 501.77342,127.40377 v -8.56685 l 11.01458,-8.56691 c 12.23837,-8.15892 27.74032,-5.71123 46.50584,7.34305 h 18.35757 l 1.2238,9.79071 -19.58137,-3.67152 c -18.76552,8.15892 -36.3072,8.97481 -52.62503,2.44766 z m 8.56686,-8.56685 12.23837,4.89533 c -3.26355,-4.07944 -3.26355,-8.15892 0,-12.23838 -6.5271,2.44766 -10.60656,4.89538 -12.23837,7.34305 z m 24.47681,4.89533 c 5.71123,0 11.83042,-0.81589 18.35756,-2.44767 l -17.13376,-8.56685 c 4.07944,4.07944 3.67153,7.75096 -1.2238,11.01452 z m -51.40123,40.38665 c 0,-5.20214 3.91287,-9.54926 11.6265,-1.83579 6.72909,6.72923 9.15673,1.72584 8.56685,-1.2238 -0.7529,-3.76286 3.69646,-6.63131 5.50726,0.61187 1.45282,5.81137 -6.83836,13.6717 -15.9099,5.50732 -4.07946,-3.67154 -7.34303,-4.69141 -9.79071,-3.0596 z m 29.37214,23.2529 -23.87295,3.67152 c -3.21642,0.49467 -6.69203,8.22663 5.51533,4.89533 6.54895,-1.78716 13.40739,-3.96209 18.35762,-8.56685 z m 0,-3.67153 c 0.81589,0 -1.22386,-0.20406 -6.11919,-0.61187 -4.89537,-0.40795 -9.58676,-0.8159 -14.07417,-1.22386 -4.48741,-0.40795 -8.15892,0.20396 -11.01452,1.83573 -2.85563,1.63178 -1.42783,2.44767 4.2834,2.44767 z m 95.4593,-96.683155 c 9.79071,-4.079441 21.41721,-3.263553 34.8794,2.447664 13.46218,5.711234 20.60127,18.765501 21.41716,39.162801 0.81572,20.39729 -5.09951,41.81445 -17.7457,64.25148 -12.64629,22.43702 -7.54695,49.97337 15.29798,82.60905 22.84498,32.63567 38.75488,58.94818 47.7297,78.93752 8.97477,19.98934 13.46218,63.84353 13.46218,131.56256 h 25.70062 c 0,-274.95551 -23.45691,-422.019996 -70.37067,-441.193467 C 631.70421,25.62125 597.23278,19.094108 575.20369,25.213297 c -22.02907,6.119189 -37.53102,18.561543 -46.50585,37.327062 48.13763,0 74.65413,8.158921 79.54946,24.476756 z m 13.46224,86.892505 c -14.68605,0.81589 -21.21321,-8.56689 -19.58143,-28.14828 h 7.34305 c 0.81572,12.23838 5.50709,17.94961 14.07411,17.1337 8.56685,-0.81588 14.68604,-11.42249 18.35757,-31.81974 3.67158,-20.3973 -4.28324,-30.18801 -23.86483,-29.37214 -8.97477,0 -13.05426,7.75098 -12.23838,23.25295 l -8.56685,1.2238 C 599.68044,91.91246 573.164,78.042306 517.68333,84.56945 l -8.56686,9.790713 c 13.87016,-4.895384 27.1284,-4.283454 39.77473,1.835735 12.64635,6.119192 23.04894,9.178782 31.20782,9.178782 l 1.22386,7.34305 c -13.87016,-1.63182 -27.1284,-4.89538 -39.77473,-9.79071 -12.64633,-4.895371 -24.68073,-4.079483 -36.1032,2.44766 -10.60656,10.6066 -21.21315,28.96417 -31.81975,55.0727 12.23834,4.07944 18.35751,9.38276 18.35751,15.9099 13.05428,0.81589 22.02909,2.85558 26.92442,6.11919 4.89538,3.26355 -0.40814,9.38274 -15.90985,18.35757 -4.07944,19.58138 7.13906,27.12837 33.65554,22.64096 26.51651,-4.48741 40.38666,4.48741 41.61046,26.92442 1.22386,22.43703 0.61166,33.65554 -1.83551,33.65554 20.39726,11.42251 39.97863,11.83046 58.74417,1.22386 -28.55642,-33.45154 -33.04383,-70.57461 -13.4624,-111.3692 z m 66.08721,588.66587 c -52.21706,4.07972 -112.79702,12.64635 -181.73993,25.70061 -68.94281,13.05427 -150.73594,41.20249 -245.37937,84.44479 -15.50197,15.50198 -23.25295,36.30721 -23.25295,62.41569 70.16668,-30.18797 144.00488,-34.47137 221.5146,-12.85025 77.50973,21.62106 143.59698,16.92969 198.26171,-14.07417 36.71519,-46.50585 46.91382,-95.05138 30.59594,-145.63667 z M 176.23261,200.83404 35.491273,478.64514 102.80235,500.67429 177.45647,200.83404 Z m 397.74722,115.04072 v 0 c -23.66085,57.11243 -38.75484,134.62214 -45.28199,232.52912 26.10857,-49.76938 45.28205,-83.4249 57.52042,-100.96656 12.23838,-17.54169 21.21321,-37.32708 26.92442,-59.35615 5.71122,-22.02908 21.21315,-40.79457 46.50579,-56.2965 l -17.1337,-19.58143 c -19.58137,17.13374 -42.42635,18.35758 -68.53494,3.67152 z m -51.40118,436.91002 c 52.21712,-12.23838 107.28982,-20.39726 165.2181,-24.4767 2.44772,-162.36252 2.03958,-261.9013 -1.22386,-298.61639 -81.5892,127.2791 -135.43802,192.55043 -161.54652,195.81404 -1.63183,23.66086 -2.44772,66.08721 -2.44772,127.27905 z M 340.22685,612.04349 c -44.05814,20.39731 -72.2064,21.82508 -84.44478,4.2834 -12.23838,-17.54168 -13.46222,-36.1032 -3.67153,-55.68458 -15.50193,-4.07944 -23.25289,-11.01455 -23.25289,-20.80528 h 40.38666 l -1.22386,-13.46218 c -26.10854,0 -39.1628,-10.19865 -39.1628,-30.59595 0,-19.58138 2.85564,-29.37208 8.56685,-29.37208 -14.68606,-4.89537 -22.02909,-12.64635 -22.02909,-23.25295 h 35.49133 l -51.40123,-249.66288 -83.22092,342.67457 -20.805234,-3.67152 4.895324,-19.58143 -28.148275,-7.34299 -6.119188,18.35756 -17.133707,-6.11919 6.119189,-17.1337 -26.92442,-8.56691 -8.566853,18.35756 L 0,501.89809 179.90414,150.65667 c 4.07946,-8.15892 10.19865,-12.23838 18.35757,-12.23838 8.15892,0 13.05426,4.07944 14.68604,12.23838 l 63.63955,292.4972 c 12.23838,3.26359 34.6754,13.0543 67.31108,29.37214 63.63956,-11.42251 116.26458,-17.13376 157.87504,-17.13376 7.34305,-53.03297 19.98939,-99.13087 37.939,-138.29368 14.68606,-29.37209 16.72579,-55.88855 6.11913,-79.5494 -7.34298,1.63178 -15.90983,2.8556 -25.70056,3.67147 l -10.60896,39.78358 h -35.12187 l 22.47794,-42.23125 c -8.97483,-2.44764 -13.46224,-9.38272 -13.46224,-20.80523 -0.81587,-7.34301 -3.46751,-12.23836 -7.95493,-14.68604 -4.48741,-2.44768 -5.09932,-5.3033 -1.83573,-8.56685 l 3.67147,-3.67153 c -4.89533,-0.8159 -7.75095,-2.4477 -8.56685,-4.89538 -0.81591,-2.44765 1.22382,-5.30326 6.11918,-8.56685 -4.89536,-3.26356 -10.60661,-5.71122 -17.13376,-7.343 -6.52714,-1.63181 -6.93507,-9.38279 -1.2238,-23.25295 12.23838,-21.21316 23.66087,-38.34689 34.26747,-51.401172 l 3.67147,-11.014518 c 1.63183,-8.974825 7.13909,-22.437046 16.52183,-40.386657 9.38278,-17.949613 29.57609,-31.411832 60.57996,-40.3866569 31.00391,-8.9747878 73.2263,-2.0396925 126.66722,20.8052859 53.44087,22.844942 80.16133,186.839178 80.16133,491.982708 h -52.62498 v 199.48551 c 11.42249,66.08728 7.343,122.79175 -12.23843,170.11348 29.37214,-22.84497 50.38133,-14.89005 63.02768,23.86477 12.64635,38.75488 36.71513,54.25681 72.20646,46.50585 35.49122,-7.75097 63.02757,6.73112 82.60899,43.44625 h -735.5264 c -17.94965,-16.31782 -26.92447,-39.57071 -26.92447,-69.75874 -0.81588,-34.26747 36.10324,-68.73889 110.75732,-103.41428 74.65409,-34.67538 143.80092,-58.94812 207.44049,-72.81833 V 625.50573 c -40.79459,0 -89.7481,-4.4873 -146.86053,-13.46224 z m 151.75586,-50.17737 1.22386,-36.71513 c -42.42637,-0.81587 -97.49906,-3.67149 -165.2181,-8.56686 l -34.26746,9.79072 2.44772,13.46218 c 11.42247,2.44766 30.59592,12.64635 57.52036,30.596 65.27134,-4.89544 111.36922,-7.75102 138.29362,-8.56691 z"
     id="path1"
     sodipodi:nodetypes="ccccccccccccccccccssssccssccssscccsssssccsscccccsscccccsccscccscssccccsccscccccccsscssccsccccccsccccscccccccccccccccscccccccccccsscscscccsssccccsscccscccccccccc" />
</svg>
