<?xml version="1.0" encoding="UTF-8" standalone="no"?>
<svg
   width="800"
   height="1000"
   version="1.1"
   id="svg1"
   sodipodi:docname="13149.svg"
   inkscape:version="1.4.2 (f4327f4, 2025-05-13)"
   xmlns:inkscape="http://www.inkscape.org/namespaces/inkscape"
   xmlns:sodipodi="http://sodipodi.sourceforge.net/DTD/sodipodi-0.dtd"
   xmlns="http://www.w3.org/2000/svg"
   xmlns:svg="http://www.w3.org/2000/svg">
  <defs
     id="defs1" />
  <sodipodi:namedview
     id="namedview1"
     pagecolor="#ffffff"
     bordercolor="#666666"
     borderopacity="1.0"
     inkscape:showpageshadow="2"
     inkscape:pageopacity="0.0"
     inkscape:pagecheckerboard="0"
     inkscape:deskcolor="#d1d1d1"
     inkscape:zoom="0.755"
     inkscape:cx="399.33775"
     inkscape:cy="500"
     inkscape:window-width="1680"
     inkscape:window-height="998"
     inkscape:window-x="-8"
     inkscape:window-y="-8"
     inkscape:window-maximized="1"
     inkscape:current-layer="svg1" />
  <path
     id="path1"
     style="fill:#000000;stroke:none;stroke-width:0.999999"
     d="M 203.67773 0.060546875 C 181.64475 0.060546875 162.17273 7.7453309 145.26367 23.117188 C 122.71826 36.951877 111.44531 50.531216 111.44531 63.853516 L 112.21484 101.51367 C 122.46277 96.902137 130.14752 92.803594 135.27148 89.216797 C 140.90784 88.704408 145.26352 91.010801 148.33789 96.134766 C 147.31307 110.48184 148.33774 148.39925 151.41211 209.88672 C 154.99891 232.94452 170.37234 259.07666 197.5293 288.2832 C 227.24823 388.20032 241.85028 461.47161 241.33789 508.09961 C 241.33789 513.73592 245.18124 517.06698 252.86719 518.0918 L 222.12305 622.62109 C 216.48669 622.10863 207.64871 623.38848 195.60742 626.46289 C 183.5661 629.5373 169.34586 629.5373 152.94922 626.46289 C 136.55255 623.38848 120.54016 623.64555 104.91211 627.23242 C 93.298646 629.8978 85.151766 636.38232 80.470703 646.6875 C 79.539067 646.591 78.592776 646.51153 77.628906 646.44727 C 62.257013 647.47208 51.496399 652.59525 45.347656 661.81836 C 15.116332 661.81836 0 682.82733 0 724.84375 L 0 1000 L 73.785156 1000 L 73.785156 743.28906 C 73.785156 736.62797 75.579256 733.04176 79.166016 732.5293 L 178.31445 806.31445 C 189.24323 812.41749 199.80252 818.09479 209.99414 823.34766 L 199.83398 828.60352 C 160.37951 851.66136 140.90949 869.85156 141.42188 883.17383 C 141.93427 903.15729 151.6683 911.61156 170.62695 908.53711 C 183.94921 906.48752 198.81036 883.94155 215.20703 840.90039 L 218.97656 827.91602 C 227.79913 832.33972 236.33248 836.43113 244.57812 840.18945 L 235.18945 847.05078 C 200.34655 876.76971 184.20563 898.03388 186.76758 910.84375 C 190.86676 930.31479 201.88452 936.71972 219.81836 930.05859 C 232.62823 925.95941 243.3869 901.36427 252.09766 856.27344 L 253.65039 844.24023 C 262.00693 847.89351 270.05127 851.18623 277.7832 854.11914 L 271.3125 860.88477 C 241.59357 896.24005 229.5531 920.06579 235.18945 932.36328 C 242.36297 950.29715 254.14829 954.65284 270.54492 945.42969 C 276.01483 942.69476 280.26778 936.00544 283.30469 925.36328 C 280.96365 935.47309 281.32153 942.93188 284.37891 947.73633 C 294.6268 964.13304 307.18155 966.43744 322.04102 954.65234 C 332.80134 946.45397 334.33826 919.55435 326.65234 873.95117 L 325.41797 868.48633 C 332.98371 870.04844 340.10268 871.09314 346.77344 871.62305 L 345.09766 875.48828 C 330.23823 918.52951 327.16431 945.17398 335.875 955.42188 C 348.68491 969.76899 361.49481 969.76899 374.30469 955.42188 C 383.52783 945.17398 380.45392 918.52951 365.08203 875.48828 L 363.49805 871.83398 C 370.28219 871.45083 377.52906 870.50961 385.23828 869.00977 L 384.29688 873.18164 C 376.61093 918.78486 377.89075 945.68647 388.13867 953.88477 C 403.51053 966.18229 416.06528 964.13304 425.80078 947.73633 C 432.9743 935.95127 425.54471 910.07429 403.51172 870.10742 L 400.43359 865.49023 C 407.45103 863.62337 414.79898 861.35752 422.47852 858.69141 L 421.95703 867.0332 C 422.46942 912.63638 428.6192 938.76856 440.4043 945.42969 C 457.31336 954.14041 469.35382 949.52958 476.52734 931.5957 C 481.65131 919.29829 469.61084 895.47056 440.4043 860.11523 L 434.74609 854.20117 C 442.27141 851.31052 450.08768 848.0682 458.19531 844.47461 L 459.61914 855.50391 C 467.81751 901.10709 478.32099 925.95941 491.13086 930.05859 C 509.57709 936.20729 520.59293 929.54519 524.17969 910.07422 C 527.25409 897.26431 511.37028 876.00018 476.52734 846.28125 L 467.97852 840.0332 C 475.43246 836.57166 483.1198 832.82988 491.03906 828.80664 L 494.20508 839.36328 C 510.60175 882.40463 525.4609 904.95052 538.7832 907 C 557.74175 909.56195 567.47777 901.10776 567.99023 881.63672 C 568.50266 868.31445 549.0326 850.12417 509.57812 827.06641 L 501.73047 823.27734 C 511.68302 818.04413 521.9842 812.39028 532.63477 806.31445 C 561.84131 785.30621 595.14785 760.71106 632.55273 732.5293 C 636.1396 732.5293 637.93164 735.86032 637.93164 742.52148 L 637.93164 999.23242 L 710.94922 999.23242 L 710.94922 724.84375 C 710.94922 682.31486 696.34522 661.30589 667.13867 661.81836 C 664.18479 657.25337 659.68273 653.74512 653.63281 651.29102 L 738.61719 630.30664 L 651.76758 537.30664 C 694.80878 568.05039 727.34592 588.0347 749.37891 597.25781 C 738.61863 583.42313 721.19586 566.51273 697.11328 546.5293 L 718.63477 556.52148 C 732.98195 558.57108 734.77595 553.19074 724.01562 540.38086 C 616.92494 458.39758 554.28378 402.03473 536.09375 371.29102 C 517.90372 340.54726 493.05335 301.09289 461.54102 252.92773 C 430.02868 204.76253 401.8453 169.91904 376.99414 148.39844 C 352.14293 126.87784 336.64288 104.84424 330.49414 82.298828 C 313.07269 25.935293 270.80155 -1.4766573 203.67773 0.060546875 z M 219.02539 19.923828 C 230.6984 20.452222 244.02805 22.926292 259.01562 27.345703 C 278.99906 33.238251 294.24396 53.861508 304.74805 89.216797 C 315.25217 124.57208 337.28381 157.10918 370.8457 186.82812 C 404.40763 216.54709 437.07327 260.99801 468.8418 320.17969 C 500.61028 379.36136 541.34642 430.72762 591.04883 474.28125 C 491.13171 431.7524 434.51175 406.90204 421.18945 399.72852 C 370.46227 377.6955 322.29654 350.79392 276.69336 319.02539 C 213.66869 256.51314 183.43801 217.31588 186 201.43164 C 188.56198 185.54735 199.57779 177.22171 219.04883 176.45312 C 238.51987 175.68454 273.10623 178.11755 322.80859 183.75391 C 300.77557 165.30764 271.82666 153.26717 235.95898 147.63086 C 271.31428 139.94491 288.99023 120.34437 288.99023 88.832031 C 288.99023 57.319698 277.84586 38.233398 255.55664 31.572266 C 233.26745 24.911134 217.25507 23.374177 207.51953 26.960938 C 205.98236 26.960938 217.38388 29.52252 241.72266 34.646484 C 266.06143 39.770449 277.2058 57.576935 275.15625 88.064453 C 273.10666 118.55197 250.81791 136.3565 208.28906 141.48047 C 208.80145 147.62921 216.4862 153.26666 231.3457 158.39062 C 202.13916 158.39062 181.89966 159.67044 170.62695 162.23242 C 167.04019 131.48871 166.01557 105.35657 167.55273 83.835938 L 157.5625 73.076172 C 161.14926 71.538968 165.50299 73.588256 170.62695 79.224609 L 173.70117 76.919922 C 170.11437 70.258791 166.27297 66.670592 162.17383 66.158203 C 159.09945 60.00946 155.7684 52.579865 152.18164 43.869141 C 160.37994 36.183194 168.19329 30.547698 175.62305 26.960938 C 183.05276 23.374178 193.81341 21.067747 207.9043 20.042969 C 211.42702 19.786765 215.13439 19.747697 219.02539 19.923828 z M 186.76758 26.191406 C 171.90811 26.191406 164.73562 34.390438 165.24805 50.787109 C 162.17367 53.861481 160.63672 56.935394 160.63672 60.009766 L 162.94141 63.083984 L 167.55273 62.316406 C 170.11471 71.53952 176.51968 76.150391 186.76758 76.150391 C 202.13947 76.150391 209.82617 67.696133 209.82617 50.787109 C 209.82617 34.390438 202.13947 26.191406 186.76758 26.191406 z M 186.76758 34.646484 C 198.55271 34.134095 204.44531 39.514402 204.44531 50.787109 C 204.44531 62.059779 198.55271 67.697266 186.76758 67.697266 C 176.0073 67.697266 170.62695 62.059779 170.62695 50.787109 C 170.62695 40.026791 176.0073 34.646484 186.76758 34.646484 z M 186.76758 39.257812 C 179.59406 39.257813 176.00781 42.846011 176.00781 50.019531 C 176.00781 57.193089 179.59406 60.779297 186.76758 60.779297 C 194.45352 60.779297 198.29688 57.448241 198.29688 50.787109 C 198.29687 43.101163 194.45352 39.257812 186.76758 39.257812 z M 146.80078 46.175781 C 150.38758 51.812135 152.94916 58.472256 154.48633 66.158203 C 146.28799 61.546628 139.11554 63.853021 132.9668 73.076172 C 131.94202 61.291076 136.55289 52.324561 146.80078 46.175781 z M 229.80859 325.17578 L 232.11523 325.17578 C 244.41272 382.5641 274.38824 445.84421 322.04102 515.01758 C 307.18155 527.31506 287.45435 519.37313 262.85938 491.19141 C 262.85938 459.42287 251.84162 404.08469 229.80859 325.17578 z M 263.62695 355.91797 C 301.54422 385.12451 343.56213 412.79555 389.67773 438.92773 L 389.67773 528.85156 C 373.79345 516.04165 357.90768 508.61209 342.02344 506.5625 C 296.42026 433.28995 270.28812 383.33207 263.62695 356.6875 L 263.62695 355.91797 z M 325.11523 374.36523 L 586.4375 499.64648 L 510.3457 512.71094 L 479.60156 478.89453 C 452.957 457.88632 401.46216 423.04283 325.11523 374.36523 z M 408.12305 455.83594 L 435.02344 471.97656 C 450.10786 479.01596 507.87348 539.838 608.31836 654.44141 C 605.67696 656.48099 603.76185 658.93892 602.57617 661.81836 L 442.77344 661.81836 C 442.50358 641.56671 432.2357 629.2691 411.9668 624.92578 C 390.95859 632.09911 373.53587 632.86874 359.70117 627.23242 L 355.08984 533.46289 C 379.68481 567.28101 399.66916 577.017 415.04102 562.66992 C 410.94186 523.72787 408.63543 488.11685 408.12305 455.83594 z M 595.66016 508.86914 L 692.50195 614.93555 L 686.35352 616.47266 L 587.97461 510.40625 L 595.66016 508.86914 z M 581.82422 511.94336 L 679.43555 618.77734 L 672.51953 620.31445 L 574.13867 512.71289 L 581.82422 511.94336 z M 567.22266 514.25 L 666.37109 621.85156 L 659.45312 624.1582 L 559.53516 515.01758 L 567.22266 514.25 z M 552.61914 516.55469 L 652.53516 624.92578 L 646.38672 627.23242 L 545.70117 517.32422 L 552.61914 516.55469 z M 538.7832 518.86133 L 640.23828 628.76953 L 634.08984 630.30664 L 533.4043 519.62891 L 538.7832 518.86133 z M 526.48633 521.16602 L 627.94141 631.84375 L 621.02344 633.38086 L 518.80078 522.70312 L 526.48633 521.16602 z M 275.15625 541.15039 C 291.55288 561.64625 308.9737 562.67088 327.41992 544.22461 L 332.80078 627.23242 C 316.91649 623.6457 303.08197 625.18262 291.29688 631.84375 C 276.94979 627.23232 263.11524 625.6954 249.79297 627.23242 L 275.15625 541.15039 z M 102.85156 652.08984 C 105.6157 652.15323 107.84102 652.70532 109.52539 653.74805 C 114.90555 657.07876 131.43027 659.76888 159.09961 661.81836 L 111.44531 661.81836 C 108.35831 657.8494 104.51342 654.64024 99.908203 652.18945 C 100.94956 652.10177 101.93018 652.06872 102.85156 652.08984 z M 416.12109 652.64844 C 422.63585 652.46779 429.96027 655.52412 438.09375 661.81836 L 377.52539 661.81836 C 389.91211 661.39916 399.98231 659.09472 407.73828 654.90234 C 410.36509 653.48245 413.15984 652.73055 416.12109 652.64844 z M 77.628906 659.51367 C 96.075133 660.02606 106.06635 669.24777 107.60352 687.18164 C 105.55396 704.60317 95.562746 714.33919 77.628906 716.38867 C 60.719846 714.33908 51.496188 704.60305 49.958984 687.18164 C 52.008578 670.2724 61.232235 661.05069 77.628906 659.51367 z M 633.32031 659.51367 C 651.76673 660.53849 661.75986 669.76214 663.29688 687.18359 C 661.24728 705.11751 651.25415 715.10872 633.32031 717.1582 C 616.92353 715.10864 607.70182 705.11743 605.65234 687.18359 C 607.70197 670.78681 616.92367 661.56315 633.32031 659.51367 z M 78.396484 669.50391 C 68.660981 669.50391 63.025485 675.14135 61.488281 686.41406 C 63.025485 696.66184 68.660981 702.29734 78.396484 703.32227 C 88.131987 702.29745 93.767483 696.66195 95.304688 686.41406 C 93.767484 675.14135 88.131987 669.50391 78.396484 669.50391 z M 634.08984 670.27344 C 624.35419 670.27344 618.7167 675.91089 617.17969 687.18359 C 618.71685 696.91895 624.35434 702.29734 634.08984 703.32227 C 644.33762 702.29745 649.97312 696.91905 650.99805 687.18359 C 649.97327 675.91089 644.33777 670.27344 634.08984 670.27344 z M 494.97461 675.6543 L 595.66016 675.6543 L 593.35352 687.18164 C 594.37833 708.70224 603.60198 721.51217 621.02344 725.61133 L 524.94922 794.78516 C 487.54434 765.06626 477.55316 725.3567 494.97461 675.6543 z M 674.05664 675.6543 C 687.37905 675.6543 694.80868 690.25631 696.3457 719.46289 L 696.3457 983.85938 L 652.53516 983.85938 L 652.53516 743.28906 C 652.53516 736.11551 650.99823 730.48001 647.92383 726.38086 C 665.34542 719.71973 674.82431 706.65459 676.36133 687.18359 L 674.05664 675.6543 z M 39.966797 676.42188 L 37.660156 687.18164 C 38.684934 706.65265 47.653439 719.46258 64.5625 725.61133 C 60.975703 729.71047 59.181641 735.34792 59.181641 742.52148 L 59.181641 983.85938 L 14.603516 983.85938 L 14.603516 719.46289 C 17.165498 690.76874 25.619719 676.42188 39.966797 676.42188 z M 119.13281 676.42188 L 216.74414 676.42188 C 234.16559 725.61185 224.17246 765.06626 186.76758 794.78516 L 88.388672 725.61133 C 108.3721 722.02457 119.13276 709.21463 120.66992 687.18164 L 119.13281 676.42188 z M 231.3457 676.42188 L 479.60156 676.42188 C 462.6925 730.73581 473.19797 772.49662 511.11523 801.70312 C 481.93803 820.62499 452.7394 834.21288 423.52148 842.4668 L 423.49414 842.4375 L 423.49219 842.47461 C 412.28172 845.64014 401.06803 848.02017 389.85156 849.61523 L 389.84961 849.61523 L 389.67773 849.35547 L 389.61133 849.65039 C 326.44768 858.56914 263.18772 842.5866 199.83398 801.70312 C 236.72644 771.98423 247.22995 730.22343 231.3457 676.42188 z M 78.396484 677.19141 C 83.520448 677.70383 86.339173 681.0329 86.851562 687.18164 C 86.339173 692.30549 83.520448 695.12425 78.396484 695.63672 C 72.76013 695.12437 69.686217 692.30561 69.173828 687.18164 C 69.686217 681.03294 72.76013 677.70387 78.396484 677.19141 z M 634.08984 677.95898 C 639.21366 677.95898 642.28757 681.03485 643.3125 687.18359 C 642.28776 692.30737 639.21384 695.38132 634.08984 696.40625 C 628.4536 695.38151 625.37965 692.30755 624.86719 687.18359 C 625.37954 681.03485 628.45349 677.95898 634.08984 677.95898 z M 506.50391 837.82617 L 517.26367 845.51367 C 535.70991 856.78638 546.85428 865.75127 550.69727 872.41211 C 554.54019 879.07324 554.15646 884.45358 549.54492 888.55273 C 544.421 893.16461 539.04068 893.03766 533.4043 888.16992 C 527.76798 883.30219 520.59354 870.36372 511.88281 849.35547 L 506.50391 837.82617 z M 202.9082 840.13281 L 197.5293 850.89258 C 188.81857 871.38836 181.64417 884.1983 176.00781 889.32227 C 170.37146 894.44637 164.99115 894.95856 159.86719 890.85938 C 155.25565 886.24784 154.87188 880.74091 158.71484 874.33594 C 162.5578 867.93096 173.70217 858.83583 192.14844 847.05078 L 202.9082 840.13281 z M 471.91602 856.27344 L 481.13867 865.49609 C 497.02292 879.84317 506.37518 890.60386 509.19336 897.77734 C 512.01153 904.95082 510.6012 910.3311 504.96484 913.91797 C 498.8161 916.9923 493.56436 915.7105 489.20898 910.07422 C 484.85364 904.43783 480.1142 890.86044 474.99023 869.33984 L 471.91602 856.27344 z M 239.80078 857.04102 L 236.72656 870.10742 C 231.6026 891.62806 226.73459 905.20743 222.12305 910.84375 C 217.51147 916.4801 212.38831 917.75995 206.75195 914.68555 C 201.1156 911.09879 199.57864 905.71848 202.14062 898.54492 C 204.70261 891.3714 214.18149 880.61271 230.57812 866.26562 L 239.80078 857.04102 z M 288.70312 858.0957 C 296.46247 860.79673 303.88046 863.10371 310.95898 865.01953 L 307.4375 870.10742 C 295.80414 890.99463 288.12685 907.99463 284.40625 921.10547 C 287.46273 908.04844 288.99023 890.02378 288.99023 867.0332 L 288.70312 858.0957 z M 277.46289 870.10742 L 275.92578 883.17383 C 275.41339 905.20681 273.36219 919.42514 269.77539 925.83008 C 266.18863 932.23494 261.06543 934.41276 254.4043 932.36328 C 248.76794 930.31369 246.59012 925.44568 247.87109 917.75977 C 249.1521 910.07382 256.45312 897.77621 269.77539 880.86719 L 277.46289 870.10742 z M 434.25586 870.10742 L 441.17188 880.86719 C 454.49414 897.77621 461.92377 909.94723 463.46094 917.37695 C 464.99814 924.80677 462.69367 929.54622 456.54492 931.5957 C 450.39618 934.15772 445.52817 932.1084 441.94141 925.44727 C 438.35461 918.78613 436.04821 904.43732 435.02344 882.4043 L 434.25586 870.10742 z M 395.05664 878.5625 L 400.4375 890.0918 C 410.68543 909.56284 415.93717 923.14023 416.19336 930.82617 C 416.44955 938.51208 413.50226 942.86776 407.35352 943.89258 C 400.17996 944.91735 395.44052 941.84348 393.13477 934.66992 C 390.82898 927.4964 391.21469 913.14951 394.28906 891.62891 L 395.05664 878.5625 z M 315.89258 879.33008 L 316.66016 891.62891 C 319.73453 913.66189 319.99167 928.13729 317.42969 935.05469 C 314.86771 941.97213 310.25488 944.9175 303.59375 943.89258 C 297.44501 942.86776 294.37109 938.51208 294.37109 930.82617 C 294.37109 923.14023 299.75141 909.81799 310.51172 890.85938 L 315.89258 879.33008 z M 355.85938 882.4043 L 358.93359 894.70312 C 366.10711 915.7113 369.05246 929.92959 367.77148 937.35938 C 366.49048 944.78909 362.52051 948.50391 355.85938 948.50391 C 349.19824 948.50391 345.35489 944.78909 344.33008 937.35938 C 343.3053 929.92959 346.12402 915.7113 352.78516 894.70312 L 355.85938 882.4043 z " />
</svg>
