<?xml version="1.0" encoding="UTF-8" standalone="no"?>
<svg
   xmlns:dc="http://purl.org/dc/elements/1.1/"
   xmlns:cc="http://web.resource.org/cc/"
   xmlns:rdf="http://www.w3.org/1999/02/22-rdf-syntax-ns#"
   xmlns:svg="http://www.w3.org/2000/svg"
   xmlns="http://www.w3.org/2000/svg"
   xmlns:sodipodi="http://sodipodi.sourceforge.net/DTD/sodipodi-0.dtd"
   xmlns:inkscape="http://www.inkscape.org/namespaces/inkscape"
   width="20.018841"
   height="17.977446"
   id="svg2241"
   sodipodi:version="0.32"
   inkscape:version="0.45"
   sodipodi:docname="US22G32VERK.svg"
   inkscape:output_extension="org.inkscape.output.svg.inkscape"
   sodipodi:docbase="C:\Documents and Settings\Mr THOMAS\Mes documents\envois 38\signes envoi n°38"
   sodipodi:modified="true">
  <metadata
     id="metadata2248">
    <rdf:RDF>
      <cc:Work
         rdf:about="">
        <dc:format>image/svg+xml</dc:format>
        <dc:type
           rdf:resource="http://purl.org/dc/dcmitype/StillImage" />
        <cc:license
           rdf:resource="http://creativecommons.org/licenses/GPL/2.0/" />
        <dc:publisher>
          <cc:Agent>
            <dc:title>Serge ROSMORDUC</dc:title>
          </cc:Agent>
        </dc:publisher>
        <dc:creator>
          <cc:Agent>
            <dc:title>Serge THOMAS</dc:title>
          </cc:Agent>
        </dc:creator>
        <dc:title>US22G32VERK</dc:title>
        <dc:description>TT192
phon :baHi.</dc:description>
      </cc:Work>
      <cc:License
         rdf:about="http://creativecommons.org/licenses/GPL/2.0/">
        <cc:permits
           rdf:resource="http://web.resource.org/cc/Reproduction" />
        <cc:permits
           rdf:resource="http://web.resource.org/cc/Distribution" />
        <cc:requires
           rdf:resource="http://web.resource.org/cc/Notice" />
        <cc:permits
           rdf:resource="http://web.resource.org/cc/DerivativeWorks" />
        <cc:requires
           rdf:resource="http://web.resource.org/cc/ShareAlike" />
        <cc:requires
           rdf:resource="http://web.resource.org/cc/SourceCode" />
      </cc:License>
    </rdf:RDF>
  </metadata>
  <defs
     id="defs2246" />
  <sodipodi:namedview
     inkscape:window-height="480"
     inkscape:window-width="640"
     inkscape:pageshadow="2"
     inkscape:pageopacity="0.0"
     guidetolerance="10.0"
     gridtolerance="10.0"
     objecttolerance="10.0"
     borderopacity="1.0"
     bordercolor="#666666"
     pagecolor="#ffffff"
     id="base" />
  <path
     style="fill:#000000; stroke:none"
     d="M 10.580132,10.667934 L 10.580132,10.93134 L 9.438707,10.93134 C 8.516787,10.858173 7.763154,10.682569 7.177808,10.404529 C 6.5924613,10.12649 6.182719,9.98747 5.948581,9.98747 C 5.772977,9.98747 5.754685,10.07893 5.893705,10.26185 L 6.694897,10.645985 L 10.821589,11.282548 C 10.792321,11.019143 10.711835,10.814271 10.580132,10.667934 z M 10.294777,10.228925 L 15.101933,10.404529 C 14.69219,9.906985 14.399517,9.658213 14.223913,9.658213 C 12.819082,9.4387083 11.242306,8.9448223 9.493584,8.176555 C 7.744862,7.4082883 6.870501,6.7278233 6.870501,6.13516 C 6.870501,5.5424967 7.0607387,5.2242147 7.441214,5.180314 C 7.8216893,5.1364127 8.180214,5.0120267 8.516788,4.807156 C 8.414352,4.646186 7.433897,4.5291167 5.575423,4.455948 C 5.224215,4.455948 5.0339773,4.2949777 5.00471,3.973037 C 5.00471,3.6657303 5.260799,3.512077 5.772977,3.512077 L 6.277838,3.555978 C 7.199758,3.5120773 7.711936,3.340132 7.814372,3.040142 C 7.9168073,2.740152 7.905832,2.440162 7.781446,2.140172 C 7.65706,1.840182 7.2290257,1.4267813 6.497343,0.89997 C 5.897363,0.57802933 5.3559177,0.417059 4.873007,0.417059 L 3.358424,0.526812 L 3.358424,0.680465 C 3.7388993,0.70973233 4.1852257,0.90728667 4.697403,1.273128 C 4.946175,1.5804347 5.5095707,1.734088 6.38759,1.734088 C 7.0168373,1.9389593 7.331461,2.209682 7.331461,2.546256 C 7.331461,3.0145333 6.8778177,3.248672 5.970531,3.248672 C 4.6827697,3.1169687 4.038889,3.263305 4.038889,3.687681 C 4.038889,4.1705917 4.4339977,4.6900863 5.224215,5.246165 C 5.9558977,6.2558877 7.0241547,7.4558477 8.428986,8.846045 L 10.294777,10.228925 z M 4.631552,0.680465 C 5.0998287,0.680465 5.333967,0.75363333 5.333967,0.89997 C 5.333967,1.075574 5.209581,1.156059 4.960809,1.141425 C 4.712037,1.1267917 4.587651,1.0097223 4.587651,0.790217 L 4.631552,0.680465 z M 9.285054,2.304801 C 10.075272,2.4511377 10.843539,2.5462563 11.589855,2.590157 L 11.589855,2.370652 C 11.004509,2.370652 10.236242,2.3487017 9.285054,2.304801 z M 8.999698,4.938859 C 8.92653,5.1437297 8.6338567,5.3010413 8.121678,5.410794 C 7.6095007,5.5205467 7.353412,5.718101 7.353412,6.003457 C 7.353412,6.288813 7.7887633,6.6839217 8.659466,7.188783 C 9.530168,7.6936443 10.620375,8.158263 11.930087,8.582639 C 13.2398,9.007015 14.033676,9.219203 14.311715,9.219203 C 14.619022,9.219203 14.875111,9.0728663 15.079982,8.780193 C 14.904378,8.780193 14.059284,8.1582627 12.544701,6.914402 C 11.030118,5.6705413 9.84845,5.012027 8.999698,4.938859 z M 15.343388,8.955797 C 15.270219,9.2045697 15.087298,9.3655397 14.794625,9.438707 L 15.343388,9.526509 C 15.548259,9.4387077 15.679962,9.307005 15.738497,9.131401 L 15.343388,8.955797 z M 16.067753,9.328956 C 16.082388,9.460658 15.987269,9.5630933 15.782397,9.636262 L 16.199457,9.789915 C 16.448229,9.7606483 16.550664,9.658213 16.506763,9.482609 L 16.067753,9.328956 z M 16.945772,9.658213 C 16.901871,9.731381 16.81407,9.811866 16.682367,9.899668 L 17.121376,10.053321 C 17.267713,9.9947863 17.370149,9.9143013 17.428684,9.811866 C 17.326248,9.7533313 17.165277,9.7021137 16.945772,9.658213 z M 17.845743,9.943569 L 17.582336,10.163074 L 17.977446,10.272826 C 18.123783,10.228925 18.196951,10.155757 18.196951,10.053321 L 17.845743,9.943569 z M 18.592058,10.206975 L 18.394505,10.360628 L 19.031069,10.536232 L 18.592058,10.206975 z M 15.497041,10.206975 L 15.848248,10.777687 L 15.101933,10.777687 C 16.579932,11.62644 17.582337,12.050816 18.109148,12.050816 C 18.63596,12.050816 19.07497,11.867895 19.426178,11.502053 L 15.497041,10.206975 z M 6.738798,11.238647 L 6.738798,12.511775 L 8.670441,16.989674 L 9.10945,16.989674 L 9.10945,15.497041 L 10.053321,15.497041 L 10.053321,17.977446 L 1.756039,17.977446 L 1.756039,15.497041 L 2.72186,15.497041 L 2.72186,16.989674 L 3.819384,16.989674 L 5.772977,12.511775 L 5.772977,11.128895 L 5.794928,11.128895 L 3.555978,11.238647 C 3.058434,11.238647 2.7364937,11.304499 2.590157,11.436202 L 2.107246,12.050816 C 2.107246,11.275232 2.2096817,10.86549 2.414553,10.821589 C 2.1950483,10.689886 1.997494,10.697202 1.82189,10.843538 L 1.492633,11.282548 C 1.492633,10.653301 1.7194547,10.280143 2.173098,10.163074 L 2.809662,10.097222 L 4.499849,10.097222 C 5.172997,9.7899153 5.6924917,9.636262 6.058333,9.636262 C 6.5119763,9.636262 7.082689,9.84845 7.770471,10.272826 C 8.4143517,10.477697 9.0143317,10.580132 9.570411,10.580132 L 9.855767,10.580132 C 9.270421,10.082589 8.5789807,9.489926 7.781446,8.802144 C 6.983912,8.114362 6.2339373,7.3168277 5.531522,6.409541 C 5.00471,5.648591 4.6388687,5.216898 4.433998,5.114462 C 3.907186,4.6461853 3.64378,4.163275 3.64378,3.665731 C 3.658414,3.1242857 4.0059633,2.8499043 4.686428,2.842587 C 5.3668933,2.8352703 5.8973633,2.8535627 6.277838,2.897464 C 6.702214,2.897464 6.921719,2.7803947 6.936353,2.546256 C 6.936353,2.4438207 6.7095313,2.304801 6.255888,2.129197 C 5.2754327,2.129197 4.536433,1.9038407 4.038889,1.333128 C 3.6291463,1.0989893 2.3413847,0.83558367 0.175604,0.542911 C 0.043901333,0.48437633 -0.014633333,0.32925733 0,0.197554 C 0.014633333,0.065851333 0.10243533,-0.03 0.263406,-0.03 C 1.4779993,0.13097 2.509672,0.211455 3.358424,0.211455 L 4.829106,0.035851 C 5.7071253,-0.081217667 6.5851447,0.27803967 7.463164,1.053623 C 8.0485107,1.7121377 9.5411437,2.034078 11.941063,2.019444 L 11.941063,2.919414 C 10.492331,2.9047807 9.255787,2.6999097 8.231431,2.304801 C 8.5241043,3.3876917 7.8729067,3.92182 6.277838,3.907186 C 6.1754027,3.907186 6.010774,3.8962107 5.783952,3.87426 C 5.5571307,3.85231 5.44372,3.8852357 5.44372,3.973037 C 5.44372,4.075473 5.8973633,4.126691 6.80465,4.126691 C 7.975342,4.126691 9.255787,4.455948 10.645985,5.114462 C 11.275232,5.4071353 12.43129,6.2558873 14.114161,7.660718 C 14.860477,8.3192327 15.906783,8.8899453 17.25308,9.372856 C 17.999397,9.5777273 18.723763,9.9216183 19.426178,10.404529 C 19.689583,10.682569 19.667632,10.858173 19.360327,10.93134 C 19.21399,10.93134 18.694495,10.814271 17.801842,10.580132 L 17.801842,10.602083 L 20.018841,11.3484 C 19.960306,11.802043 19.726167,12.120325 19.316425,12.303246 C 18.906682,12.486167 18.40548,12.577627 17.812817,12.577627 C 17.220154,12.577627 16.477496,12.27032 15.584843,11.655706 C 14.69219,11.041093 13.572716,10.741103 12.226419,10.755736 L 11.128895,10.755736 C 11.172796,10.858172 11.187429,11.026459 11.172796,11.260598 C 11.158163,11.494737 11.063044,11.611806 10.88744,11.611806 L 8.341184,11.282548 C 8.5314213,11.399617 8.619223,11.706924 8.604589,12.204469 L 8.121678,11.677657 C 7.6826687,11.355716 7.2217087,11.20938 6.738798,11.238647 L 6.738798,11.238647 z M 5.772977,16.989674 L 5.772977,14.201962 L 4.565701,16.989674 L 5.772977,16.989674 z M 7.924124,16.989674 L 6.716848,14.201962 L 6.716848,16.989674 L 7.924124,16.989674 z "
     id="path2243"
     sodipodi:nodetypes="cccsscccccccsssccsccssccccccscsccccsscccccccssssscsccccccccccccccccccccccccccccsccccccccccccccccccccccccccscccsccsscscccscccccccssssscccccccsssccscccccccccccccc" />
</svg>
