<?xml version="1.0" encoding ="US-ASCII" standalone="yes"?>
<svg width="18.436209" height="15.84">
<path style="fill:#000000; stroke:none" d=" M 4.994746 1.376448  Q 5.052601 0.875045 5.49615 0.884687  Q 5.939699 0.89433 5.804707 1.289667  Q 5.669712 1.685004 4.994746 1.376448  Z  M 17.35626 9.919587  L 15.75563 8.588939  L 15.447075 8.588939  L 17.201982 10.112432  L 17.35626 9.919587  Z  M 16.141325 8.299666  L 14.598548 7.296862  Q 11.956535 5.850507 10.596961 5.368389  Q 9.237387 4.88627 6.171115 4.751276  Q 6.576094 3.189213 6.990716 2.668525  Q 7.405339 2.147837 7.453551 1.569295  Q 7.501762 0.990753 6.846081 0.585774  Q 7.251061 1.202885 5.804707 1.935705  Q 6.749657 1.048607 6.402533 0.585774  Q 6.151831 0.373642 5.544361 0.537562  Q 4.936892 0.701482 4.474058 1.646434  Q 3.721954 1.858566 3.779808 1.945348  Q 3.837663 2.032129 4.454773 2.012844  Q 5.071886 1.993559 5.814348 2.070698  Q 6.55681 2.147837 6.72073 2.408181  Q 6.884651 2.668525 6.113261 3.083147  Q 5.341872 3.497769 4.628336 4.606641  Q 3.914801 5.715515 8.697413 8.588939  Q 9.526659 9.225334 9.420592 9.447107  Q 9.314527 9.668883 8.196012 9.418182  Q 7.154638 9.283189 7.752463 9.553174  Q 10.838021 10.266711 11.995106 10.054578  Q 11.474417 9.398896 11.532271 9.071056  Q 11.590125 8.743216 12.535077 9.022843  Q 13.48003 9.302474 14.868531 8.955347  L 16.854856 10.59455  L 17.028421 10.343849  L 15.042097 8.588939  Q 10.645173 8.396091 8.629917 7.769337  Q 6.614664 7.142585 6.72073 6.419407  Q 6.826797 5.696229 7.98388 5.21411  L 8.311719 5.310534  Q 7.61747 5.734798 7.357127 6.207275  Q 7.096783 6.67975 9.160249 7.316147  Q 11.223716 7.952542 16.141325 8.299666  Z  M 16.199177 8.588939  L 17.529823 9.6496  L 17.876947 9.263904  L 16.912712 8.588939  L 16.199177 8.588939  Z  M 17.394827 8.608224  L 18.243359 9.283189  L 16.893427 10.941676  L 15.042097 9.418182  Q 13.402891 9.900301 12.149384 9.418182  L 12.766496 10.266711  Q 11.223716 10.845253 7.154638 9.919587  Q 8.003165 10.440274 7.887457 10.845253  Q 7.771749 11.250231 7.665682 11.009174  Q 7.559616 10.768114 7.193207 10.536697  Q 6.826797 10.30528 6.074692 10.035295  Q 5.322587 9.765306 4.339065 10.170288  Q 3.355544 10.575267 3.143412 10.922392  Q 2.93128 11.269518 2.89271 10.575267  Q 4.628336 8.415375 8.408144 9.090343  Q 3.625531 6.043355 4.011225 4.722349  Q 4.396918 3.401345 6.132546 2.591386  L 6.036122 2.417824  Q 2.699863 2.263545 0.694251 3.131359  Q 0.154278 2.996366 0.231417 2.736022  Q 0.308556 2.475678 1.330647 2.099625  Q 2.352737 1.723573 4.011225 1.395733  Q 4.724759 0.277218 5.515433 0.045801  Q 6.306108 -0.185616 7.61747 0.701482  Q 8.909547 1.839281 10.375187 1.993559  Q 11.069439 2.051414 11.464775 2.263545  Q 11.860113 2.475678 10.62589 2.475678  Q 9.044539 2.379254 7.848887 1.723573  L 7.752463 2.012844  Q 9.063826 2.668525 10.683743 2.668525  Q 10.953731 2.668525 11.416564 2.861372  Q 11.879397 3.05422 10.490895 3.150644  Q 9.314527 3.304922 7.598185 2.610671  Q 7.000359 3.401345 6.884651 4.365582  Q 11.686548 4.365582 16.700579 8.280382  L 18.436209 8.280382  L 18.185503 8.627507  L 17.394827 8.608224  Z  M 6.460386 14.991473  L 5.399726 14.046518  L 4.31978 14.991473  L 6.460386 14.991473  Z  M 9.950924 14.991473  L 9.950924 12.812297  L 10.799452 12.812297  L 10.799452 15.84  L 0 15.84  L 0 12.812297  L 0.848528 12.812297  L 0.848528 14.991473  L 3.374829 14.991473  L 4.975462 13.506548  L 4.975462 10.13172  L 5.804707 10.13172  L 5.804707 13.506548  L 7.424625 14.991473  L 9.950924 14.991473  Z "/></svg>
