<?xml version="1.0" encoding ="US-ASCII" standalone="yes"?>
<svg width="10.011764" height="11.28">
<path style="fill:#000000; stroke:none" d=" M 8.136084 11.28  L 3.656395 11.28  Q 3.511108 8.640616 4.637083 7.345137  Q 5.763059 6.049661 6.223135 5.56537  Q 6.683212 5.081079 6.658997 4.548359  Q 5.375627 3.894567 3.390035 3.894567  Q 2.058235 3.894567 0.314789 4.064069  Q 0 4.257786 0 3.313418  Q 0.508505 2.659626 1.803983 2.429588  Q 3.09946 2.199549 3.172104 2.175335  Q 4.092257 1.521543 5.012408 0.674034  Q 6.102062 -0.076616 7.772864 0.008135  Q 9.443668 0.092885 9.843208 1.642616  Q 10.242748 3.192347 9.710027 4.23357  Q 9.177307 5.274796 8.269263 6.691345  Q 7.361217 8.107897 8.136084 11.28  Z  M 6.586355 10.384063  L 6.586355 9.560767  Q 6.683212 7.429888 8.051334 5.444298  Q 9.419455 3.458706 9.128879 2.223764  Q 8.693018 1.327827 8.19662 1.097789  Q 7.70022 0.86775 6.913249 0.86775  Q 6.126276 0.86775 5.302982 1.618401  Q 5.375627 2.514339 4.528117 2.635412  L 4.213328 2.998629  Q 4.213328 3.313418 5.533021 3.434491  Q 6.852713 3.555564 7.179609 3.870353  Q 7.506505 4.185142 7.506505 4.911578  Q 7.506505 5.638013 6.19892 6.872954  Q 4.891336 8.107897 4.867122 10.408276  Q 5.036623 10.408276 6.586355 10.384063  Z  M 6.925356 2.102692  Q 6.489495 2.102692 6.489495 1.642616  Q 6.489495 1.182539 6.925356 1.182539  Q 7.385431 1.182539 7.385431 1.642616  Q 7.385431 2.102692 6.925356 2.102692  Z "/></svg>
