<?xml version="1.0" encoding="UTF-8" standalone="no"?>
<svg
   xmlns:dc="http://purl.org/dc/elements/1.1/"
   xmlns:cc="http://web.resource.org/cc/"
   xmlns:rdf="http://www.w3.org/1999/02/22-rdf-syntax-ns#"
   xmlns:svg="http://www.w3.org/2000/svg"
   xmlns="http://www.w3.org/2000/svg"
   xmlns:sodipodi="http://sodipodi.sourceforge.net/DTD/sodipodi-0.dtd"
   xmlns:inkscape="http://www.inkscape.org/namespaces/inkscape"
   width="4.529314"
   height="17.977583"
   id="svg2214"
   sodipodi:version="0.32"
   inkscape:version="0.45"
   sodipodi:docname="H6.svg"
   inkscape:output_extension="org.inkscape.output.svg.inkscape"
   sodipodi:docbase="C:\Program Files\JSesh\GroupeG"
   sodipodi:modified="true">
  <metadata
     id="metadata2221">
    <rdf:RDF>
      <cc:Work
         rdf:about="">
        <dc:format>image/svg+xml</dc:format>
        <dc:type
           rdf:resource="http://purl.org/dc/dcmitype/StillImage" />
      </cc:Work>
    </rdf:RDF>
  </metadata>
  <defs
     id="defs2219" />
  <sodipodi:namedview
     inkscape:window-height="480"
     inkscape:window-width="640"
     inkscape:pageshadow="2"
     inkscape:pageopacity="0.0"
     guidetolerance="10.0"
     gridtolerance="10.0"
     objecttolerance="10.0"
     borderopacity="1.0"
     bordercolor="#666666"
     pagecolor="#ffffff"
     id="base" />
  <path
     style="fill:#000000; stroke:none"
     d="M 4.529314,1.676045 C 4.529314,2.5007663 4.1635103,3.159213 3.431903,3.651385 C 3.2589777,3.8376123 3.8499088,6.9160078 4.7278375,12.409712 C 3.3311328,12.635845 2.1039044,13.374227 1.6183831,14.052626 C 1.1328618,14.731025 0.977693,15.689648 1.057505,17.977583 L 0,17.977583 L 0.019953,2.693645 C 0.19287833,1.7758103 0.48884667,1.0940853 0.907858,0.64847 C 1.3268693,0.20285467 1.9420843,-0.013302 2.753503,0 C 3.937377,-0.013302 4.529314,0.54537967 4.529314,1.676045 z M 3.671338,11.47293 L 2.73355,4.808654 C 2.6138327,3.771102 2.6337857,3.2257223 2.793409,3.172515 C 3.4851103,2.6936443 3.830961,2.1748683 3.830961,1.616187 C 3.830961,1.057505 3.4784593,0.778164 2.773456,0.778164 C 1.749206,0.778164 1.0641557,1.4499123 0.718305,2.793409 L 0.718305,12.989352 C 1.729253,12.257745 2.7135973,11.752271 3.671338,11.47293 z "
     id="path2216"
     sodipodi:nodetypes="cccscccscccccssccc" />
</svg>
