<?xml version="1.0" encoding="UTF-8" standalone="no"?>
<!-- Created with Inkscape (http://www.inkscape.org/) -->
<svg
   xmlns:dc="http://purl.org/dc/elements/1.1/"
   xmlns:cc="http://web.resource.org/cc/"
   xmlns:rdf="http://www.w3.org/1999/02/22-rdf-syntax-ns#"
   xmlns:svg="http://www.w3.org/2000/svg"
   xmlns="http://www.w3.org/2000/svg"
   xmlns:sodipodi="http://sodipodi.sourceforge.net/DTD/sodipodi-0.dtd"
   xmlns:inkscape="http://www.inkscape.org/namespaces/inkscape"
   width="1800"
   height="1800"
   id="svg2"
   sodipodi:version="0.32"
   inkscape:version="0.44"
   version="1.0"
   sodipodi:docbase="/home/rosmord/Travail/Gsigns/Distribution"
   sodipodi:docname="M1E.svg">
  <defs
     id="defs4" />
  <sodipodi:namedview
     id="base"
     pagecolor="#ffffff"
     bordercolor="#666666"
     borderopacity="1.0"
     inkscape:pageopacity="0.0"
     inkscape:pageshadow="2"
     inkscape:zoom="0.105"
     inkscape:cx="3016.2041"
     inkscape:cy="632.30143"
     inkscape:document-units="px"
     inkscape:current-layer="layer2"
     width="1800px"
     height="1800px"
     inkscape:window-width="1010"
     inkscape:window-height="583"
     inkscape:window-x="141"
     inkscape:window-y="300" />
  <metadata
     id="metadata7">
    <rdf:RDF>
      <cc:Work
         rdf:about="">
        <dc:format>image/svg+xml</dc:format>
        <dc:type
           rdf:resource="http://purl.org/dc/dcmitype/StillImage" />
        <dc:creator>
          <cc:Agent>
            <dc:title>Serge Rosmorduc</dc:title>
          </cc:Agent>
        </dc:creator>
        <cc:license
           rdf:resource="http://creativecommons.org/licenses/by-sa/2.5/" />
        <dc:title>M1</dc:title>
        <dc:description>M1 sign from Karnak hypostyle hall.
</dc:description>
      </cc:Work>
      <cc:License
         rdf:about="http://creativecommons.org/licenses/by-sa/2.5/">
        <cc:permits
           rdf:resource="http://web.resource.org/cc/Reproduction" />
        <cc:permits
           rdf:resource="http://web.resource.org/cc/Distribution" />
        <cc:requires
           rdf:resource="http://web.resource.org/cc/Notice" />
        <cc:requires
           rdf:resource="http://web.resource.org/cc/Attribution" />
        <cc:permits
           rdf:resource="http://web.resource.org/cc/DerivativeWorks" />
        <cc:requires
           rdf:resource="http://web.resource.org/cc/ShareAlike" />
      </cc:License>
    </rdf:RDF>
  </metadata>
  <g
     inkscape:label="Calque 1"
     inkscape:groupmode="layer"
     id="layer1" />
  <g
     inkscape:groupmode="layer"
     id="layer2"
     inkscape:label="gfhfg">
    <path
       style="fill:black;fill-opacity:1;stroke:none;stroke-width:60;stroke-linecap:round;stroke-linejoin:miter;stroke-miterlimit:4;stroke-dasharray:none;stroke-opacity:1"
       d="M 891.71875,3.6875 C 842.31909,3.6875003 800.40646,33.887093 764.90625,74.6875 C 653.88777,214.74846 598.74559,393.81432 537.03125,559.3125 C 478.01721,733.13411 401.86504,925.52171 399.125,1111 C 434.74683,1267.8911 620.26887,1258.7495 702.625,1377.9062 C 709.74244,1399.5961 714.25896,1422.9494 716.84375,1447.375 C 598.83629,1464.5237 600.45229,1485.9958 464.3125,1478.875 C 369.03508,1406.8171 309.3125,1376.7188 309.3125,1376.7188 C 289.27928,1364.4472 228.78418,1347.0935 208.75,1334.8125 C 234.89157,1291.2652 280.33706,1282.5613 290.1875,1226.25 C 293.38703,1207.9562 272.65259,1163.2188 242.4375,1163.2188 C 223.68729,1163.2187 201.27543,1180.4525 178.65625,1231.9062 C 174.78255,1240.7217 149.96875,1325.6875 149.96875,1325.6875 C 149.96875,1325.6875 133.02311,1247.086 126.6875,1234.625 C 105.3182,1192.5928 76.954255,1176.4375 52.75,1176.4375 C 15.965429,1176.4375 -6.1258914,1236.5377 15.53125,1277.1875 C 15.53125,1277.1875 92.5625,1362.2188 92.5625,1362.2188 C 96.200435,1365.2961 88.144158,1364.5065 90.53125,1362.5938 C 90.531247,1362.5938 64.70622,1375.5014 51.78125,1381.9688 C -33.088012,1445.1353 2.6158551,1524.8077 16.8125,1544.2188 C 35.619516,1553.6971 67.594339,1574.2188 105.65625,1574.2188 C 138.22055,1574.2188 173.00599,1560.4555 218.4375,1550.4375 C 293.35688,1533.9142 344.07286,1586.5425 375.09375,1617.5625 C 375.09374,1617.5625 477.91963,1685.9062 700.5625,1685.9062 C 706.08102,1690.7719 690.75524,1785.8958 688.96875,1803.75 L 1094.4375,1803.75 C 1090.4928,1751.7735 1080.7732,1692.706 1073.3438,1632.4062 C 1209.0833,1630.7504 1344.8162,1628.5951 1480.5625,1627.5625 C 1530.9699,1624.9774 1707.4523,1613.8426 1746.1875,1612.0625 C 1837.3375,1607.8772 1810.8125,1576.3125 1810.8125,1576.3125 C 1810.8125,1576.3125 1761.1409,1511.6281 1558.875,1514.1562 C 1466.3322,1515.3209 1349.6541,1482.611 1314.75,1473.625 C 1226.1331,1450.809 1136.5132,1439.4626 1068.2188,1434.1562 C 1070.9127,1414.6846 1074.9945,1395.8456 1080.7812,1377.9062 C 1154.5837,1263.9574 1360.2791,1260.5472 1384.2812,1111 C 1376.528,924.84151 1310.6807,733.17569 1246.375,559.3125 C 1181.9431,393.46345 1131.4386,215.64089 1018.5,74.6875 C 982.99977,33.887095 941.11839,3.6874997 891.71875,3.6875 z M 891.71875,63.6875 C 915.79915,63.6875 943.57921,79.993095 973.25,114.09375 C 1078.4827,249.31823 1131.039,422.04081 1190.3438,580.8125 C 1246.2486,746.34692 1319.9486,931.40775 1324.375,1107.8438 C 1263.8337,1228.0648 1099.7843,1236.4613 1025.9062,1353.7188 C 1016.6202,1379.067 1010.6839,1404.7328 1007.25,1430.625 C 930.27558,1428.6853 853.15562,1433.596 776.5,1440.2812 C 773.31308,1411.8031 767.3398,1383.0363 757.53125,1353.7188 C 704.38533,1222.7545 508.67703,1236.2339 459.03125,1107.8438 C 469.44922,929.49972 531.4039,747.57383 593.0625,580.8125 C 656.12785,422.21457 701.94951,249.66116 810.15625,114.09375 C 839.82702,79.993093 867.63833,63.6875 891.71875,63.6875 z M 151.0625,1406.6562 C 153.9183,1406.6562 156.79192,1406.8617 159.6875,1407.25 C 170.53218,1404.9869 324.60543,1417.9056 422.84375,1526.4375 C 445.02453,1550.9524 644.62403,1557.4071 729.75,1514.125 C 962.88144,1468.8922 1030.2393,1498.1789 1121.6562,1498.0938 C 1252.7665,1496.5031 1386.6968,1563.4215 1541.4062,1554.9375 C 1679.7262,1547.3435 1707.3199,1575.7188 1641.875,1575.7188 C 1635.1227,1575.7188 1536.8068,1577.3125 1495.5312,1577.3125 C 1386.9586,1577.3125 1123.8963,1553.7729 1002.4062,1577.625 C 865.96026,1605.1887 725.39269,1623.8764 711.5,1619.9375 C 591.54301,1614.2561 615.36875,1635.4363 451.21875,1579.75 C 376.20089,1557.7728 368.69102,1493.9534 239.46875,1481.3125 C 232.5366,1480.6306 114.56472,1507.9688 107.8125,1507.9688 C 31.93675,1507.9688 84.780573,1406.6562 151.0625,1406.6562 z M 1017.0938,1637.5 C 1021.9033,1669.0348 1027.1624,1700.4635 1031.4375,1731.5625 L 751.96875,1731.5625 C 754.17973,1715.399 756.61236,1699.4096 759.0625,1683.5625 C 861.05582,1675.5106 943.91929,1648.7977 1017.0938,1637.5 z "
       id="path1911"
       sodipodi:nodetypes="ccccccccccscccsccsccscscccccccccccccccccccccccccccccccccssccccscccccc" />
  </g>
</svg>
