<?xml version="1.0" encoding="UTF-8" standalone="no"?>
<svg
   xmlns:dc="http://purl.org/dc/elements/1.1/"
   xmlns:cc="http://creativecommons.org/ns#"
   xmlns:rdf="http://www.w3.org/1999/02/22-rdf-syntax-ns#"
   xmlns:svg="http://www.w3.org/2000/svg"
   xmlns="http://www.w3.org/2000/svg"
   xmlns:sodipodi="http://sodipodi.sourceforge.net/DTD/sodipodi-0.dtd"
   xmlns:inkscape="http://www.inkscape.org/namespaces/inkscape"
   width="13.512596"
   height="17.96875"
   id="svg2434"
   sodipodi:version="0.32"
   inkscape:version="0.46"
   sodipodi:docname="M19.svg"
   inkscape:output_extension="org.inkscape.output.svg.inkscape"
   version="1.0">
  <metadata
     id="metadata2441">
    <rdf:RDF>
      <cc:Work
         rdf:about="">
        <dc:format>image/svg+xml</dc:format>
        <dc:type
           rdf:resource="http://purl.org/dc/dcmitype/StillImage" />
      </cc:Work>
    </rdf:RDF>
  </metadata>
  <defs
     id="defs2439">
    <inkscape:perspective
       sodipodi:type="inkscape:persp3d"
       inkscape:vp_x="0 : 8.9887085 : 1"
       inkscape:vp_y="0 : 1000 : 0"
       inkscape:vp_z="13.042072 : 8.9887085 : 1"
       inkscape:persp3d-origin="6.5210361 : 5.9924723 : 1"
       id="perspective2443" />
  </defs>
  <sodipodi:namedview
     inkscape:window-height="712"
     inkscape:window-width="1024"
     inkscape:pageshadow="2"
     inkscape:pageopacity="0.0"
     guidetolerance="10.0"
     gridtolerance="10.0"
     objecttolerance="10.0"
     borderopacity="1.0"
     bordercolor="#666666"
     pagecolor="#ffffff"
     id="base"
     showgrid="false"
     inkscape:zoom="28.439541"
     inkscape:cx="9.0092928"
     inkscape:cy="9.8952594"
     inkscape:window-x="0"
     inkscape:window-y="22"
     inkscape:current-layer="svg2434" />
  <path
     style="fill:#000000;stroke:none"
     d="M 1.5,0 L 0,13.1875 C 2.3,13.440833 3.3812499,14.235833 3.92125,15.5625 L 3.92125,17.96875 L 4.92125,17.96875 L 4.92125,13.5625 L 10.89,13.5625 C 10.87749,14.725966 10.696531,15.998859 10.35875,17.375 C 10.321219,17.67525 10.464751,17.812501 10.765,17.8125 L 13.015,17.8125 C 13.315249,17.799989 13.427531,17.662739 13.39,17.375 C 13.039709,15.998859 12.896229,14.619913 12.92125,13.21875 C 12.90874,12.23043 13.077189,9.1979333 13.4525,4.15625 C 13.540073,3.242992 13.533843,2.31956 13.42125,1.34375 C 13.321167,0.45551333 12.815769,0 11.89,0 C 11.014274,0 10.490135,0.45551331 10.3275,1.34375 L 10.265,1.75 L 4.64,1.75 C 4.1493675,0.80052661 3.3449591,0.22022059 1.5,0 z M 11.89,0.71875 C 12.452967,0.8813853 12.72124,1.1434287 12.73375,1.53125 C 12.833833,2.369446 12.871312,3.242992 12.79625,4.15625 C 12.433449,9.1979333 12.24626,12.23043 12.23375,13.21875 C 12.221239,14.619913 12.352261,15.911494 12.64,17.125 L 11.14,17.125 C 11.427739,15.911493 11.55876,14.619913 11.54625,13.21875 C 11.521229,12.23043 11.309072,9.1979333 10.92125,4.15625 C 10.871208,3.242992 10.902406,2.369446 11.015,1.53125 C 11.027511,1.1434287 11.327033,0.88138528 11.89,0.71875 z M 2.0625,1.125 C 3.4958333,1.3183333 3.8812499,1.9174999 3.92125,2.9375 L 3.92125,13.96875 C 3.32125,13.22875 2.5258333,12.70625 0.8125,12.40625 L 2.0625,1.125 z M 10.23375,2.46875 C 10.196219,3.4070287 10.208677,4.4365661 10.29625,5.5625 L 5.515,5.03125 L 10.23375,2.46875 z M 4.89,2.5 L 9.04625,2.5 L 4.92125,4.53125 L 4.92125,2.9375 C 4.92125,2.7857557 4.9111716,2.6403442 4.89,2.5 z M 4.92125,5.59375 L 9.515,6.09375 L 4.92125,8.6875 L 4.92125,5.59375 z M 10.42125,6.375 L 10.5775,9.21875 L 5.29625,9.21875 L 10.42125,6.375 z M 4.92125,9.96875 L 9.265,9.96875 L 4.92125,12.1875 L 4.92125,9.96875 z M 10.7025,10.03125 L 10.85875,12.84375 L 5.3275,12.84375 L 10.7025,10.03125 z"
     id="path2436"
     sodipodi:nodetypes="cccccccccccccsscccccccscccccccccccccccccccccccccccccccccccc" />
</svg>
