<?xml version="1.0" encoding="UTF-8" standalone="no"?>
<svg
   xmlns:dc="http://purl.org/dc/elements/1.1/"
   xmlns:cc="http://creativecommons.org/ns#"
   xmlns:rdf="http://www.w3.org/1999/02/22-rdf-syntax-ns#"
   xmlns:svg="http://www.w3.org/2000/svg"
   xmlns="http://www.w3.org/2000/svg"
   xmlns:sodipodi="http://sodipodi.sourceforge.net/DTD/sodipodi-0.dtd"
   xmlns:inkscape="http://www.inkscape.org/namespaces/inkscape"
   width="17.130013"
   height="17.988379"
   id="svg2631"
   sodipodi:version="0.32"
   inkscape:version="0.46"
   sodipodi:docname="M21.svg"
   inkscape:output_extension="org.inkscape.output.svg.inkscape"
   version="1.0">
  <metadata
     id="metadata2638">
    <rdf:RDF>
      <cc:Work
         rdf:about="">
        <dc:format>image/svg+xml</dc:format>
        <dc:type
           rdf:resource="http://purl.org/dc/dcmitype/StillImage" />
      </cc:Work>
    </rdf:RDF>
  </metadata>
  <defs
     id="defs2636">
    <inkscape:perspective
       sodipodi:type="inkscape:persp3d"
       inkscape:vp_x="0 : 8.9863586 : 1"
       inkscape:vp_y="0 : 1000 : 0"
       inkscape:vp_z="15.50599 : 8.9863586 : 1"
       inkscape:persp3d-origin="7.752995 : 5.9909058 : 1"
       id="perspective2640" />
  </defs>
  <sodipodi:namedview
     inkscape:window-height="712"
     inkscape:window-width="1024"
     inkscape:pageshadow="2"
     inkscape:pageopacity="0.0"
     guidetolerance="10.0"
     gridtolerance="10.0"
     objecttolerance="10.0"
     borderopacity="1.0"
     bordercolor="#666666"
     pagecolor="#ffffff"
     id="base"
     showgrid="false"
     showguides="true"
     inkscape:guide-bbox="true"
     inkscape:zoom="25.705629"
     inkscape:cx="7.752995"
     inkscape:cy="8.4448502"
     inkscape:window-x="-4"
     inkscape:window-y="-4"
     inkscape:current-layer="svg2631" />
  <path
     style="fill:#000000;stroke:none"
     d="M 1.25,0 L 0.09375,10.4375 C 1.8737981,10.637622 2.9570756,11.264492 3.375,12.3125 L 3.375,13.5 L 0,13.5 L 0,14.4375 L 14.34375,14.4375 C 14.179093,15.260781 14.252186,16.028045 14.5625,16.75 C 14.872814,17.471954 15.269112,17.892755 15.71875,17.96875 C 16.168389,18.044745 16.539769,17.898145 16.84375,17.5625 C 17.14773,17.226854 17.208572,16.672535 17.03125,15.90625 C 16.853926,15.139965 16.348613,14.464378 15.5,13.84375 C 15.180366,13.704422 14.802336,13.631547 14.40625,13.59375 L 14.40625,2.3125 C 14.40625,1.0064402 13.445154,0.2369867 11.5,0 L 10.34375,10.4375 C 12.123798,10.637622 13.238325,11.264492 13.65625,12.3125 L 13.65625,13.5625 L 9.1875,13.5625 L 9.1875,2.3125 C 9.1875,1.0064402 8.2264038,0.2369867 6.28125,0 L 5.125,10.4375 C 6.9050481,10.637622 7.9883251,11.264492 8.40625,12.3125 L 8.40625,13.53125 L 4.15625,13.53125 L 4.15625,2.3125 C 4.15625,1.0064402 3.195154,0.2369867 1.25,0 z M 1.65625,0.875 C 2.7655554,1.0277248 3.3440426,1.5067454 3.375,2.3125 L 3.375,11.03125 C 2.9106396,10.446683 2.0135069,10.049487 0.6875,9.8125 L 1.65625,0.875 z M 6.71875,0.875 C 7.8280554,1.0277248 8.3752921,1.5067454 8.40625,2.3125 L 8.40625,11.03125 C 7.9418896,10.446683 7.0760067,10.049487 5.75,9.8125 L 6.71875,0.875 z M 11.9375,0.875 C 13.046805,1.0277248 13.625292,1.5067454 13.65625,2.3125 L 13.65625,11.03125 C 13.191889,10.446683 12.294757,10.049487 10.96875,9.8125 L 11.9375,0.875 z M 15.25,14.71875 C 15.68064,15.212719 15.960759,15.651689 16.09375,16 C 16.22674,16.348311 16.257162,16.640682 16.1875,16.875 C 16.117837,17.109319 16.002489,17.145658 15.8125,17 C 15.622513,16.854343 15.45141,16.604645 15.34375,16.25 C 15.23609,15.895355 15.212003,15.377375 15.25,14.71875 z"
     id="path2633" />
</svg>
