<?xml version="1.0" encoding="UTF-8" standalone="no"?>
<svg
   xmlns:dc="http://purl.org/dc/elements/1.1/"
   xmlns:cc="http://web.resource.org/cc/"
   xmlns:rdf="http://www.w3.org/1999/02/22-rdf-syntax-ns#"
   xmlns:svg="http://www.w3.org/2000/svg"
   xmlns="http://www.w3.org/2000/svg"
   xmlns:sodipodi="http://sodipodi.sourceforge.net/DTD/sodipodi-0.dtd"
   xmlns:inkscape="http://www.inkscape.org/namespaces/inkscape"
   width="13.853866"
   height="17.972717"
   id="svg1904"
   sodipodi:version="0.32"
   inkscape:version="0.44"
   sodipodi:docname="S5.svg"
   sodipodi:docbase="C:\Program Files\JSesh\fonts">
  <metadata
     id="metadata1911">
    <rdf:RDF>
      <cc:Work
         rdf:about="">
        <dc:format>image/svg+xml</dc:format>
        <dc:type
           rdf:resource="http://purl.org/dc/dcmitype/StillImage" />
      </cc:Work>
    </rdf:RDF>
  </metadata>
  <defs
     id="defs1909" />
  <sodipodi:namedview
     inkscape:window-height="708"
     inkscape:window-width="1024"
     inkscape:pageshadow="2"
     inkscape:pageopacity="0.0"
     guidetolerance="10.0"
     gridtolerance="10.0"
     objecttolerance="10.0"
     borderopacity="1.0"
     bordercolor="#666666"
     pagecolor="#ffffff"
     id="base"
     inkscape:zoom="59.329762"
     inkscape:cx="1.8783035"
     inkscape:cy="13.753658"
     inkscape:window-x="-4"
     inkscape:window-y="-4"
     inkscape:current-layer="svg1904" />
  <path
     style="fill:#000000; stroke:none"
     d="M 13.853866,0.578478 L 6.592968,17.972717 L 4.31895,16.556444 C 4.7444973,15.971316 5.04371,15.549093 5.216588,15.289776 C 5.3894667,15.030458 5.40609,14.830983 5.266458,14.69135 C 5.1268247,14.551717 4.970569,14.53177 4.797691,14.631507 C 4.6248123,14.731245 4.3654943,14.89415 4.019737,15.120222 C 3.5808917,14.375514 2.6832533,14.023108 1.326822,14.063003 L 0.548869,8.8567 L 2.30425,8.8567 C 2.7962893,7.9657107 3.155345,7.3606357 3.381417,7.041475 C 2.1845657,6.1371877 1.3068747,5.3193393 0.748344,4.58793 C 0.18981333,3.8565207 -0.056206333,3.13841 0.010285,2.433598 C 0.076777,1.7287853 0.31282267,1.2699923 0.718422,1.057219 C 1.124022,0.844445 1.552894,0.771304 2.005038,0.837796 C 2.4571813,0.904288 2.796289,1.1121131 3.022361,1.815225 C 3.1296761,2.564417 3.0066665,2.8484752 2.653332,3.071918 C 2.3709423,3.2504966 2.0615553,3.3212623 1.735746,3.301315 C 1.4099367,3.2813677 1.286927,3.1517087 1.366717,2.912338 C 1.4199103,2.752758 1.5861397,2.7261613 1.865405,2.832548 C 2.251057,2.766056 2.483778,2.5599317 2.563568,2.214175 C 2.425397,1.3100173 2.1068973,1.2306879 1.396638,1.32651 C 0.63943745,1.428665 0.53750326,2.1695238 0.538895,2.822574 C 0.53984957,3.2704925 0.858055,3.7933533 1.356743,4.398428 C 1.855431,5.0035033 2.6566567,5.7116407 3.76042,6.52284 C 4.9084737,5.1365723 5.7056285,4.2386414 7.470659,3.311289 C 8.0485853,3.0076448 8.4381137,2.5832043 8.737327,2.204201 C 9.0365397,1.8251983 9.23269,1.4960643 9.325778,1.216799 C 9.71143,0.51198633 10.053863,0.12300967 10.353076,0.049869 C 10.652289,-0.023272333 10.948177,0.039894667 11.240741,0.23937 C 11.546602,0.452144 11.719481,0.70813733 11.759376,1.00735 C 11.799271,1.3065627 11.559901,1.762031 11.041265,2.373755 C 10.815193,2.5599317 10.572498,2.85582 10.313181,3.26142 C 10.053863,3.6670193 9.9930158,4.2650575 9.7935405,5.5948928 L 12.756752,0 L 13.853866,0.578478 z M 10.981422,0.638321 C 10.635665,0.412249 10.223417,0.69816333 9.744677,1.496064 C 9.3324277,2.267368 8.9534243,2.8026267 8.607667,3.10184 C 8.2619103,3.4010527 7.789819,3.7501343 7.191393,4.149085 C 5.3589474,5.3476086 4.1172741,6.9528865 3.122099,8.8567 L 7.949399,8.8567 C 8.5877197,7.3007933 8.9833457,6.1704337 9.136277,5.465621 C 9.2892077,4.7608083 9.4321647,4.192304 9.565148,3.760108 C 9.698132,3.3279113 10.057188,2.7727053 10.642315,2.09449 C 11.214144,1.3630807 11.327179,0.877691 10.981422,0.638321 z M 12.896384,0.698163 L 8.47814,9.655126 L 1.607137,9.655126 L 2.12551,13.284525 C 3.2292727,13.284525 3.6939277,13.523895 4.119475,14.002636 C 4.571619,13.723371 4.933999,13.600361 5.206615,13.633607 C 5.479231,13.666852 5.7152767,13.826432 5.914752,14.112347 C 6.1142273,14.398262 6.134175,14.887501 5.974595,15.180064 C 5.8150143,15.472628 5.575644,15.871578 5.256484,16.376915 L 6.2524683,16.927869 L 13.25544,0.817848 L 12.896384,0.698163 z "
     id="path1906"
     sodipodi:nodetypes="cccssscccccsssscsssccssscsscssscscccccssccsscccccccssscccc" />
</svg>
