<?xml version="1.0" encoding ="US-ASCII" standalone="yes"?>
<svg width="20.155142" height="13.92">
<path style="fill:#000000; stroke:none" d=" M 18.105364 8.298825  Q 20.123772 5.86805 19.25564 4.120926  Q 18.387505 2.373806 16.043537 3.263645  L 18.105364 8.298825  Z  M 14.741336 2.981501  L 11.876491 1.136714  Q 11.051764 0.65924 11.507536 1.375451  L 13.742981 3.849635  Q 14.046828 3.372162 14.741336 2.981501  Z  M 17.258926 7.951572  L 15.479247 3.458975  Q 15.088591 3.458975 14.70878 3.708562  Q 14.328972 3.958151 14.24216 4.500737  Q 14.328972 4.696068 16.130352 7.908164  Q 16.672935 7.799647 17.258926 7.951572  Z  M 15.631174 8.038384  L 14.459192 6.128489  Q 13.938313 5.108431 13.938313 6.432337  L 13.938313 9.470809  Q 14.567707 8.407343 15.631174 8.038384  Z  M 13.374025 6.258711  Q 13.460835 5.260354 13.048475 6.128489  L 11.724568 8.255417  Q 13.070182 9.101852 13.39573 9.622734  L 13.374025 6.258711  Z  M 16.260569 11.185374  L 14.198754 11.185374  Q 14.43749 12.227139 14.914959 12.650352  Q 15.392434 13.073571 16.260569 13.268897  L 16.260569 11.185374  Z  M 16.868263 13.268897  Q 17.410856 13.182089 18.018549 12.726315  Q 18.62624 12.270542 18.908386 11.185374  L 16.868263 11.185374  L 16.868263 13.268897  Z  M 16.260569 8.559265  Q 15.435842 8.7546 14.882405 9.242923  Q 14.328972 9.73125 14.220455 10.599384  L 16.260569 10.599384  L 16.260569 8.559265  Z  M 16.868263 10.056799  L 17.736404 8.884819  Q 17.475962 8.602672 16.868263 8.559265  L 16.868263 10.056799  Z  M 18.908386 10.577681  Q 18.843273 9.709546 18.300694 9.232073  L 17.324036 10.599384  L 18.908386 10.577681  Z  M 3.130033 3.914744  L 11.073468 7.821352  Q 11.247095 7.908164 11.399018 7.582614  L 13.308916 4.630958  L 10.444069 1.136714  Q 10.096816 0.680943 10.563438 0.236024  Q 11.030061 -0.208895 11.594347 0.181766  L 15.587765 2.699357  Q 18.691355 1.657595 19.798222 3.762821  Q 20.905096 5.86805 18.582836 8.711192  Q 19.602892 9.557623 19.516079 11.185374  Q 19.45097 12.227139 18.637093 13.051867  Q 17.823217 13.876595 16.564417 13.92  Q 15.327323 13.854891 14.546003 13.116982  Q 13.764685 12.379062 13.591058 11.185374  Q 12.267154 9.492514 10.292146 8.255417  L 2.847889 4.457331  Q 2.544042 4.305406 2.305305 4.782881  Q 1.806127 5.564202 1.37206 5.607609  Q 0.937992 5.651015 0.775217 5.271206  Q 0.612442 4.891397 0.438815 4.522441  Q 0.265188 4.153482 0.004748 3.936449  Q -0.038659 3.524085 0.308595 3.404716  Q 0.655849 3.285349 0.872882 3.676008  Q 0.786069 4.001559 1.263543 4.739474  Q 1.480577 4.847991 2.055716 3.719414  Q 2.630855 2.59084 2.413822 2.482323  Q 1.545687 2.52573 1.328653 2.78617  Q 0.894586 2.829577 0.786069 2.482323  Q 0.677552 2.135069 1.024806 1.918035  Q 1.350357 2.004848 1.751869 1.928886  Q 2.153381 1.852925 2.565745 1.75526  Q 2.97811 1.657595 3.195144 2.037404  Q 3.412177 2.417213 3.064923 3.285349  Q 2.826186 3.762821 3.130033 3.914744  Z "/></svg>
