<?xml version="1.0" encoding ="US-ASCII" standalone="yes"?>
<svg width="6.34025" height="17.977417">
<path style="fill:#000000; stroke:none" d=" M 3.170125 15.248702  Q 2.186985 15.248702 1.725511 14.125113  Q 1.264037 13.001525 1.264037 10.533643  Q 1.404486 8.025633 1.725511 5.296917  L 2.447818 0.381218  Q 2.568202 0 3.170125 0  Q 3.772047 0 3.892432 0.381218  L 4.614739 5.296917  Q 4.935764 8.025633 5.076212 10.533643  Q 5.076212 13.001525 4.614739 14.125113  Q 4.153265 15.248702 3.170125 15.248702  Z  M 6.34025 15.128318  L 6.34025 17.977417  L 0 17.977417  L 0 15.128318  Q 0.381218 14.827356 1.233941 15.429278  Q 2.086664 16.0312 3.170125 16.111458  Q 4.253585 16.0312 5.136405 15.429278  Q 6.019225 14.827356 6.34025 15.128318  Z  M 3.109933 14.30569  Q 3.731919 14.30569 4.022848 13.282422  Q 4.313777 12.259153 4.313777 10.533643  Q 4.253585 8.025633 3.912496 5.296917  L 3.471086 1.284101  Q 3.430958 0.98314 3.170125 0.98314  Q 2.909292 0.98314 2.869164 1.284101  L 2.427754 5.296917  Q 2.086664 8.025633 2.046536 10.533643  Q 2.026472 12.259153 2.257209 13.282422  Q 2.487946 14.30569 3.109933 14.30569  Z  M 5.638007 17.375494  L 5.638007 15.910816  Q 4.47429 16.733444 3.170125 16.733444  Q 1.86596 16.733444 0.702243 15.910816  L 0.702243 17.375494  L 5.638007 17.375494  Z "/></svg>
