<?xml version="1.0" encoding ="US-ASCII" standalone="yes"?>
<svg width="19.229977" height="14.16">
<path style="fill:#000000; stroke:none" d=" M 19.229977 13.524018  Q 17.444197 14.22091 17.422417 14.155577  Q 15.854418 9.75646 13.741969 7.622233  Q 10.997964 4.834674 6.598846 4.747561  Q 1.633506 4.68223 0.751505 3.691339  Q -0.130497 2.700449 0.021948 1.851114  Q 0.130837 0.239556 1.938395 0  Q 2.765952 0 3.070842 0.348445  Q 3.745953 0.936446 3.58262 1.39378  Q 3.419286 1.851114 3.419286 2.243114  Q 7.25218 1.350224 9.310184 1.470002  Q 11.368188 1.58978 14.090411 2.863782  Q 16.812639 4.137784 17.901533 6.315565  L 16.398863 7.317345  Q 17.509527 8.798237 19.229977 13.524018  Z  M 17.008636 5.988898  Q 15.789083 4.246672 13.262857 3.190449  Q 10.736631 2.134225 9.016184 2.101558  Q 7.295737 2.068892 3.745953 2.765782  Q 8.319294 2.852893 9.636852 3.038004  Q 10.954408 3.223115 12.620411 3.909117  Q 14.286412 4.595119 16.115749 6.772898  L 17.008636 5.988898  Z  M 17.792643 13.284465  L 18.358864 13.066686  Q 16.681974 8.319124 14.580414 6.315565  Q 12.478856 4.312007 10.366409 3.930895  Q 8.253961 3.549783 6.707736 3.517116  Q 5.161511 3.484449 3.549954 3.266671  Q 2.48284 3.005338 2.48284 2.526226  Q 2.48284 2.09067 2.667952 1.807558  Q 2.853063 1.524447 2.667952 1.19778  Q 2.48284 0.871112 2.003728 0.784001  Q 1.089061 0.936446 0.903949 1.764002  Q 0.718838 2.59156 1.437506 3.157782  Q 2.678841 3.941784 5.335733 4.028894  Q 7.992624 4.116006 10.213964 4.671341  Q 12.4353 5.226675 14.264636 7.05601  Q 15.723748 8.66757 16.40975 9.974236  Q 17.095751 11.280906 17.792643 13.284465  Z "/></svg>
