<?xml version="1.0" encoding="UTF-8" standalone="no"?>
<svg
   xmlns:dc="http://purl.org/dc/elements/1.1/"
   xmlns:cc="http://web.resource.org/cc/"
   xmlns:rdf="http://www.w3.org/1999/02/22-rdf-syntax-ns#"
   xmlns:svg="http://www.w3.org/2000/svg"
   xmlns="http://www.w3.org/2000/svg"
   xmlns:sodipodi="http://inkscape.sourceforge.net/DTD/sodipodi-0.dtd"
   xmlns:inkscape="http://www.inkscape.org/namespaces/inkscape"
   width="9.981223"
   height="9.84"
   id="svg1394"
   sodipodi:version="0.32"
   inkscape:version="0.43"
   sodipodi:docname="US22Aa2.svg"
   sodipodi:docbase="C:\Program Files\JSesh\fonts\envoi26_SR">
  <metadata
     id="metadata1401">
    <rdf:RDF>
      <cc:Work
         rdf:about="">
        <dc:format>image/svg+xml</dc:format>
        <dc:type
           rdf:resource="http://purl.org/dc/dcmitype/StillImage" />
        <dc:description>variante optimisée de signes combinés de Jsesh inspiré de signe fonte Holzhausen</dc:description>
        <dc:creator>
          <cc:Agent>
            <dc:title>Serge Thomas</dc:title>
          </cc:Agent>
        </dc:creator>
        <dc:publisher>
          <cc:Agent>
            <dc:title>Serge Rosmorduc</dc:title>
          </cc:Agent>
        </dc:publisher>
        <dc:title>US22Aa2</dc:title>
        <dc:date>17/04/06</dc:date>
        <cc:license
           rdf:resource="http://creativecommons.org/licenses/GPL/2.0/" />
      </cc:Work>
      <cc:License
         rdf:about="http://creativecommons.org/licenses/GPL/2.0/">
        <cc:permits
           rdf:resource="http://web.resource.org/cc/Reproduction" />
        <cc:permits
           rdf:resource="http://web.resource.org/cc/Distribution" />
        <cc:requires
           rdf:resource="http://web.resource.org/cc/Notice" />
        <cc:permits
           rdf:resource="http://web.resource.org/cc/DerivativeWorks" />
        <cc:requires
           rdf:resource="http://web.resource.org/cc/ShareAlike" />
        <cc:requires
           rdf:resource="http://web.resource.org/cc/SourceCode" />
      </cc:License>
    </rdf:RDF>
  </metadata>
  <defs
     id="defs1399" />
  <sodipodi:namedview
     inkscape:window-height="542"
     inkscape:window-width="811"
     inkscape:pageshadow="2"
     inkscape:pageopacity="0.0"
     borderopacity="1.0"
     bordercolor="#666666"
     pagecolor="#ffffff"
     id="base"
     inkscape:zoom="37.906503"
     inkscape:cx="4.9906116"
     inkscape:cy="4.9200001"
     inkscape:window-x="44"
     inkscape:window-y="58"
     inkscape:current-layer="svg1394" />
  <path
     style="fill:#000000; stroke:none"
     d=" M 7.592205 0.890403  C 7.819361 0.890403 8.044002 0.970823 8.21921 1.179352  C 8.681659 1.49992 8.797298 2.724932 8.126063 2.97306  C 7.835855 2.823682 6.962012 2.05259 6.695685 1.75577  C 6.254714 1.565577 6.934016 0.890403 7.592205 0.890403  Z  M 1.760877 6.783656  C 1.801097 6.836811 3.020192 8.031579 3.06182 8.035145  L 3.06182 8.035145  C 3.085452 8.353422 2.797535 8.727391 2.309616 8.727391  C 2.049808 8.727391 1.733291 8.621356 1.376908 8.34442  C 1.152458 8.162115 1.087034 7.285743 1.760877 6.783656  Z  M 2.783549 0.648541  C 3.550809 0.648541 4.629738 0.976441 6.148666 2.068518  C 6.549938 2.406261 7.541769 3.224968 7.965833 3.655939  C 8.870032 4.520491 10.271496 7.176077 8.811531 8.592793  C 8.189899 9.152921 7.556728 9.350697 6.969942 9.350697  C 5.704249 9.350697 4.654377 8.430532 4.401713 8.241838  C 3.510213 7.545337 2.240153 6.364083 1.678957 5.674016  C 1.237043 5.62033 -0.145318 2.721086 1.246881 1.229733  C 1.513506 1.011942 1.975821 0.648541 2.783549 0.648541  Z  M 2.640349 0  C 1.937404 0 1.248781 0.219641 0.734371 0.850549  C -0.607387 2.144539 0.20271 4.796279 0.669456 5.394667  C 1.170707 6.133404 1.363912 6.013385 1.076646 6.592668  C 0.124829 7.557993 0.604091 8.681665 1.047764 8.984735  C 1.319264 9.240688 1.783859 9.410457 2.287625 9.410457  C 2.805585 9.410457 3.364953 9.230989 3.798423 8.781206  C 3.835334 8.738221 3.877381 8.718902 3.926767 8.718902  C 4.094535 8.718902 4.347021 8.941838 4.770773 9.217218  C 5.035327 9.477631 6.000831 9.84 7.021099 9.84  C 7.737854 9.84 8.481641 9.66116 9.028414 9.142488  C 10.850784 7.491991 9.61505 4.890251 8.976891 4.012181  C 8.869095 3.736102 8.416323 3.502129 8.844893 2.921553  C 9.110719 2.67871 9.423443 1.708272 8.576081 0.84139  C 8.212552 0.492409 7.843706 0.367079 7.508229 0.367079  C 7.02314 0.367079 6.607817 0.629116 6.379184 0.855944  C 6.1978 1.123469 6.082269 1.21054 5.983485 1.21054  C 5.860948 1.21054 5.764187 1.076555 5.599471 0.986836  C 5.133554 0.666877 3.86521 0 2.640349 0  Z "
     id="path1396" />
</svg>
