<?xml version='1.0' encoding='UTF-8'?>
<svg xmlns:inkscape="http://www.inkscape.org/namespaces/inkscape" width="12.085317" height="17.977446" xmlns="http://www.w3.org/2000/svg" viewBox="0 0 12.085317 17.977446" version="1.1">
  <path style="fill:#000000; stroke:none" d="M 11.655234 8.279087  L 11.655234 5.591072  Q 11.655234 2.860048 11.139135 1.645065  Q 10.623036 0.430082 8.945715 0.41933  Q 7.268393 0.408578 7.117864 1.376264  Q 7.8275 1.35476 8.203822 1.473032  Q 8.580145 1.591305 8.580145 2.021387  Q 8.644657 1.612809 9.010227 1.612809  Q 9.504822 1.612809 9.515574 2.010635  Q 9.526326 2.408462 9.279029 2.784784  Q 9.031731 3.161106 8.902706 3.376147  L 8.902706 8.279087  L 11.655234 8.279087  Z  M 8.386607 5.354526  L 8.451119 5.354526  L 8.451119 3.311635  L 9.096244 2.365453  Q 9.160756 1.978379 8.988723 1.978379  Q 8.773682 1.978379 8.773682 2.365453  L 8.429616 2.365453  Q 8.429616 1.935371 7.999533 1.795594  Q 7.569451 1.655817 7.053352 1.741834  Q 6.902823 2.042892 6.902823 2.429966  Q 6.601765 2.989073 6.580261 3.139602  Q 6.945831 3.247122 6.816806 3.483668  L 7.203881 3.483668  Q 7.311401 3.505172 7.311401 3.655701  Q 7.010344 3.698709 7.010344 3.999767  Q 7.010344 4.214808 7.332905 4.214808  L 7.913517 4.214808  Q 8.064046 4.90294 8.386607 5.354526  Z  M 8.300591 2.064396  L 8.300591 2.19342  L 8.128558 2.19342  Q 7.418922 1.935371 7.010344 2.257933  L 7.010344 2.064396  Q 7.35441 1.741834 8.128558 2.042892  L 8.300591 2.064396  Z  M 8.300591 2.322445  L 8.322095 2.429966  L 8.107054 2.408462  Q 7.569451 2.645007 7.418922 2.645007  Q 7.246889 2.645007 7.139369 2.55899  L 7.010344 2.580495  L 6.98884 2.494478  Q 7.09636 2.171916 7.504939 2.171916  Q 7.655467 2.171916 8.107054 2.343949  L 8.300591 2.322445  Z  M 7.892013 2.386957  Q 7.71998 2.322445 7.547946 2.300941  Q 7.590955 2.343949 7.590955 2.408462  Q 7.590955 2.45147 7.526443 2.515982  Q 7.784492 2.45147 7.892013 2.386957  Z  M 7.332905 2.322445  Q 7.246889 2.343949 7.117864 2.472974  Q 7.268393 2.537486 7.397418 2.515982  Q 7.311401 2.472974 7.311401 2.408462  Q 7.311401 2.343949 7.332905 2.322445  Z  M 6.257699 13.504588  L 3.54818 9.590838  Q 3.376147 9.268276 2.752527 9.268276  Q 2.128908 9.268276 2.257933 9.655351  L 3.870742 14.536786  Q 4.429849 15.870042 4.354585 16.418396  Q 4.27932 16.966751 4.042775 17.203297  L 10.407995 17.203297  Q 9.612342 16.386141 9.945656 15.095893  Q 10.27897 13.805646 10.504764 11.924035  Q 10.730556 10.042425 10.752061 8.730674  L 8.451119 8.730674  L 8.451119 6.279203  Q 6.945831 7.913517 7.698475 8.730674  Q 7.870509 11.26816 7.117864 13.053001  Q 6.902823 13.93467 6.257699 13.504588  Z  M 1.698826 8.128558  Q 1.698826 8.859698 2.322445 8.859698  L 3.204114 8.859698  Q 2.903056 8.128558 2.515982 8.128558  L 1.698826 8.128558  Z  M 2.537486 7.698475  Q 3.354643 7.698475 3.741717 8.859698  L 6.494245 12.83796  Q 7.289897 11.01011 7.139369 8.838194  Q 6.601765 8.150062 6.98884 7.46193  Q 7.375914 6.773798 7.77374 6.268451  Q 8.171566 5.763104 8.171566 5.741601  Q 7.784492 5.053469 7.633963 4.451353  L 7.225385 4.451353  Q 6.62327 4.451353 6.752294 3.870742  L 6.644773 3.849238  Q 6.601765 3.741717 6.666278 3.612692  Q 6.580261 3.612692 6.515749 3.526676  L 6.601765 3.376147  Q 6.322212 3.354643 6.322212 3.247122  Q 6.322212 3.010577 6.62327 2.45147  Q 6.62327 1.806346 6.752294 1.376264  Q 6.967335 0.043008 8.902706 0.043008  Q 10.773565 0.043008 11.42944 1.300999  Q 12.085317 2.55899 12.085317 5.591072  L 12.085317 8.730674  L 11.289664 8.730674  Q 10.988606 13.504588 10.59078 14.762579  Q 10.192954 16.020571 11.332672 17.37533  Q 11.74125 17.762403 11.332672 17.977446  L 2.774032 17.977446  Q 2.494478 17.654884 3.064337 17.321569  Q 3.634197 16.988256 3.698709 16.515165  Q 3.763221 16.06358 1.634313 9.719863  L 1.612809 9.268276  Q 1.247239 8.988723 1.247239 8.300591  Q 0.516099 7.698475 1.913867 7.698475  L 1.913867 2.967569  Q 1.82785 2.386957 1.612809 2.526734  Q 1.397768 2.666511 1.053702 3.118098  Q 0.688132 4.214808 0 3.999767  Q 0.73114 2.666511 0.956933 2.171916  Q 1.182727 1.677321 1.741834 1.225735  Q 2.300941 0.774148 2.688015 0  Q 3.161106 0.301058 2.76328 0.817157  Q 2.365453 1.333256 2.107404 1.806346  Q 2.537486 2.365453 2.537486 2.989073  L 2.537486 7.698475  L 2.537486 7.698475  Z"/>
</svg>
