<?xml version="1.0" encoding="UTF-8" standalone="no"?>
<svg
   width="2300"
   height="1000"
   version="1.1"
   id="svg1"
   sodipodi:docname="13B1B.svg"
   inkscape:version="1.4.2 (f4327f4, 2025-05-13)"
   xmlns:inkscape="http://www.inkscape.org/namespaces/inkscape"
   xmlns:sodipodi="http://sodipodi.sourceforge.net/DTD/sodipodi-0.dtd"
   xmlns="http://www.w3.org/2000/svg"
   xmlns:svg="http://www.w3.org/2000/svg">
  <defs
     id="defs1" />
  <sodipodi:namedview
     id="namedview1"
     pagecolor="#ffffff"
     bordercolor="#666666"
     borderopacity="1.0"
     inkscape:showpageshadow="2"
     inkscape:pageopacity="0.0"
     inkscape:pagecheckerboard="0"
     inkscape:deskcolor="#d1d1d1"
     inkscape:zoom="0.45695652"
     inkscape:cx="1150"
     inkscape:cy="500.04757"
     inkscape:window-width="1680"
     inkscape:window-height="998"
     inkscape:window-x="-8"
     inkscape:window-y="-8"
     inkscape:window-maximized="1"
     inkscape:current-layer="svg1" />
  <path
     style="fill:#000000;stroke:none;stroke-width:1"
     d="m 202.11523,44.869141 c -137.128601,0 -150.841526,109.703599 -41.13867,329.109379 H 0 v 57.23632 h 160.97656 v 330.89649 h 82.27735 V 431.21484 H 406.01953 V 373.97852 H 243.25391 C 352.95677,154.57274 339.24378,44.869141 202.11523,44.869141 Z m 0,48.292968 c 91.8165,0 91.8165,87.643601 0,262.929691 -90.62414,-175.28609 -90.62414,-262.929691 0,-262.929691 z"
     id="path2" />
  <path
     style="fill:#000000;stroke:none;stroke-width:1"
     d="M 774.47852,0.15429688 C 739.89832,-1.0381125 709.19287,4.6260773 682.36328,17.146484 655.5338,29.666946 635.56193,48.447412 622.44531,73.488281 609.32865,98.529148 600.98158,115.81804 597.4043,125.35742 c 1.19241,-15.50148 3.57701,-32.195672 7.15429,-50.082029 5.9621,-21.463587 3.87577,-37.561176 -6.25976,-48.292969 -10.13564,-10.731847 -25.34015,-14.307751 -45.61133,-10.730469 -20.27117,3.577283 -30.40625,10.134444 -30.40625,19.673828 0,10.731794 13.71299,14.906303 41.13867,12.521485 -22.656,69.160504 -11.32767,106.721494 33.98438,112.683594 v 1.78906 c -14.30902,15.50149 -19.67489,29.80912 -16.09766,42.92578 -16.69395,15.50149 -29.21558,39.35144 -37.5625,71.54688 2.38487,5.9621 10.73194,10.73131 25.04102,14.30859 4.76969,4.76969 2.98179,9.5389 -5.36524,14.3086 1.19246,7.15451 5.36497,11.32907 12.51953,12.52148 -8.34702,11.92426 -7.15372,19.07807 3.57813,21.46289 -10.73185,17.88635 -7.75059,36.36849 8.94336,55.44727 l -60.81446,177.07421 c 19.07872,13.11662 43.52338,17.88779 73.33399,14.31055 l 37.5625,-180.65234 c 40.54235,-4.7697 64.98701,4.76873 73.33398,28.61719 8.34692,23.84846 3.57576,48.88976 -14.31054,75.12304 -53.65902,79.89236 -79.89164,169.92051 -78.69922,270.08399 -200.32701,59.62112 -318.6741,84.66243 -355.04297,75.12304 C 227.45535,845.58171 197.34651,840.8125 173.49805,840.8125 124.60872,842.00491 91.220342,868.83411 73.333984,921.30078 55.447626,973.76734 66.77595,1000 107.31836,1000 h 645.69726 c 44.1197,0 73.93021,-26.23266 89.43165,-78.69922 128.7817,35.77267 228.04993,47.39742 297.80663,34.87695 69.7567,-12.5204 117.7511,-24.14516 143.9844,-34.87695 -10.7318,52.46656 4.771,78.69922 46.5058,78.69922 h 624.2325 c 127.5892,0 191.0864,-54.5535 190.4902,-163.66016 -0.5963,-109.1067 -37.8589,-206.587 -111.7891,-292.4414 -66.4203,-77.13336 -172.5446,-99.64656 -318.3691,-67.53906 33.0396,-50.36798 81.3308,-75.55274 144.8711,-75.55274 56.0439,4.76969 92.7099,17.29127 110,37.5625 17.2901,20.27118 38.4571,31.59956 63.498,33.98438 25.0409,2.38487 49.4837,-2.98121 73.3321,-16.09766 0,-77.50748 -82.2758,-116.26172 -246.8301,-116.26172 -113.7319,0 -190.3149,52.92522 -229.7481,158.77539 -156.2148,41.97289 -279.9583,54.33307 -371.2324,37.08008 -97.7786,-18.48256 -165.1521,-39.05103 -202.1172,-61.70703 -36.9651,-22.65605 -59.61983,-45.3127 -67.96677,-67.96875 22.65607,-87.04687 27.42537,-163.66042 14.30857,-229.83985 C 990.30716,110.1545 962.88119,65.736074 921.14648,43.080078 879.41166,20.424028 830.52241,6.1163982 774.47852,0.15429688 Z M 760.16992,38.609375 c 59.62118,0.596205 108.21217,15.204114 145.77344,43.822266 37.56133,28.618149 56.3418,87.045879 56.3418,175.285159 0,87.04686 -15.50088,130.27198 -46.50391,129.67578 -31.00297,-0.59621 -57.23759,-5.66375 -78.70117,-15.20313 -21.46359,-9.53938 -32.79192,-27.42487 -33.98438,-53.6582 -1.19241,-26.23328 4.47172,-48.88998 16.99219,-67.96875 12.52029,-19.07877 19.07946,-39.94557 19.67578,-62.60156 0.5962,-22.65606 -8.04919,-37.56223 -25.93555,-44.7168 -17.8863,-7.15451 -35.17524,-6.55791 -51.86914,1.78906 C 732.14842,124.76202 692.79753,114.03035 643.9082,112.83789 661.79451,62.756151 700.5488,38.01317 760.16992,38.609375 Z M 626.02148,139.66797 c 50.08174,-2.38487 93.60519,9.53815 130.57032,35.77148 32.19543,-4.76969 48.29297,-0.59518 48.29297,12.52149 0,13.11661 -6.85544,27.4243 -20.56836,42.92578 -13.71282,15.50154 -20.27199,47.40028 -19.67579,95.69336 0.59627,48.29312 34.87962,81.97787 102.84766,101.05664 h 73.33399 c 23.84846,38.15753 55.4469,67.96805 94.79683,89.43164 39.35,21.46364 111.4907,43.22536 216.4239,65.28516 96.5713,20.30194 217.3827,10.55775 362.4316,-29.23243 -10.2902,45.63955 -15.4355,98.60863 -15.4355,158.90821 0,42.92723 19.0788,97.18436 57.2363,162.76758 -96.5863,1.1924 -156.2073,-2.68384 -178.8633,-11.62696 -22.656,-8.94334 -39.9468,-14.60748 -51.8711,-16.99219 -11.9241,-2.38525 -31.003,-2.98168 -57.2363,-1.78906 -26.2333,1.19241 -54.2558,13.11739 -84.0664,35.77344 -35.7727,8.34697 -88.5363,19.0787 -158.293,32.19531 -69.7567,13.11667 -159.48651,-1.78957 -269.18944,-44.7168 l 26.83008,-80.48828 -33.98438,-5.36523 c -5.96216,23.84846 -20.86839,60.51447 -44.71679,110 -23.84852,49.48559 -59.6215,74.22851 -107.31836,74.22851 H 205.69336 c -2.38481,-15.50154 2.38439,-32.79037 14.30859,-51.86914 -21.46358,2.38488 -32.19531,19.67371 -32.19531,51.86914 h -8.94336 c -4.76969,-20.27122 0.59612,-42.33122 16.09766,-66.17968 -26.23334,2.38487 -39.34961,24.44487 -39.34961,66.17968 h -12.52149 c 0,-38.15753 14.90619,-63.19878 44.7168,-75.12304 -39.34995,-2.38482 -60.21669,22.65644 -62.60156,75.12304 h -17.88672 c 0,-58.42871 30.40717,-87.64257 91.2207,-87.64257 32.19544,9.53938 59.91772,17.58817 83.16992,24.14648 23.25226,6.55831 86.45115,-4.77001 189.59571,-33.98437 103.14456,-29.21436 161.87256,-44.11864 176.18164,-44.71485 14.30907,-0.5962 19.07828,-16.99206 14.30859,-49.1875 -3.57728,-78.69988 20.86737,-163.36223 73.33399,-253.98633 20.27123,-34.58025 22.95416,-69.15998 8.04882,-103.74023 -14.90528,-34.58025 -42.33119,-49.78476 -82.27734,-45.61133 -39.94615,4.17349 -58.72662,0.8939 -56.3418,-9.83789 2.38488,-10.73179 1.78822,-20.27021 -1.78906,-28.61719 l 32.19531,-5.36718 -1.78906,-16.09766 -44.71484,-3.57617 c 7.15451,-3.57729 8.94246,-9.53975 5.36523,-17.88672 16.6939,-2.38482 23.25307,-9.24037 19.67578,-20.56836 -3.57722,-11.32805 -7.15514,-15.20423 -10.73242,-11.62695 -3.57729,3.57728 -4.17393,7.75179 -1.78906,12.52148 2.38482,4.76969 -8.34691,5.36439 -32.19531,1.78711 4.76969,-21.46359 20.86728,-50.08079 48.29296,-85.85351 21.46359,-11.9242 57.83327,-6.5584 109.10743,16.09765 v -16.09765 c -50.08174,-26.23329 -84.06682,-34.58041 -101.95313,-25.04102 -1.1924,-9.53939 -0.59576,-16.6932 1.78906,-21.46289 z m 12.52149,55.44726 c -11.92426,7.15452 -17.88672,14.90498 -17.88672,23.25196 0,8.34692 5.36581,14.30943 16.09766,17.88672 l 60.8125,-12.52149 V 209.42383 Z M 1894.1641,373.97852 c 41.7348,-1.19241 80.1907,5.66307 115.3671,20.56836 35.1765,14.90528 49.1859,27.12858 42.0313,36.66796 -7.1544,9.53938 -23.5504,4.47185 -49.1875,-15.20312 -25.6371,-19.67497 -61.7065,-33.68623 -108.2109,-42.0332 z m -62.7813,139.04492 c 69.4604,1.69483 122.2843,23.91159 158.4727,66.64844 62.6021,73.93019 93.9023,162.16844 93.9023,264.71679 -1.1925,73.93031 -44.1193,112.08795 -128.7812,114.47266 -85.8544,-5.9621 -149.648,-31.00342 -191.3828,-75.12305 -41.7347,-44.11964 -69.7573,-80.48731 -84.0665,-109.10547 11.9243,-29.81056 29.8098,-51.87066 53.6582,-66.17969 23.8484,-14.30913 48.2932,-16.39535 73.334,-6.25976 25.0409,10.13564 42.9284,18.48076 53.6602,25.03906 10.732,6.55836 11.0302,0.5978 0.8945,-17.88476 -10.1355,-18.48262 -38.1581,-32.1955 -84.0664,-41.13868 -45.9083,-8.94312 -84.3642,9.24063 -115.3672,54.55274 0.4309,-77.55292 9.3466,-141.09567 26.7461,-190.62695 53.6542,-13.75823 101.3199,-20.12823 142.9961,-19.11133 z M 1377.0176,885.2207 c 2.3895,-0.0186 4.8508,0.0831 7.3847,0.30664 34.5803,5.96216 63.1994,13.11591 85.8555,21.46289 22.6561,8.3467 60.5154,11.62629 113.5781,9.83789 53.0628,-1.78866 88.2391,1.19259 105.5293,8.94336 17.2901,7.75077 43.8211,21.76208 79.5938,42.03321 h -352.3613 c -3.5773,-15.50149 0.5972,-32.79233 12.5214,-51.8711 -20.2712,1.19246 -30.4082,18.4833 -30.4082,51.8711 h -10.7304 c -4.7698,-20.27113 1.1928,-42.92783 17.8867,-67.96875 -27.4258,3.57728 -41.1387,26.23398 -41.1387,67.96875 h -10.7324 c -1.1925,-38.15754 13.1173,-63.1989 42.9277,-75.12305 -38.1574,-2.38487 -59.0262,22.65649 -62.6035,75.12305 h -16.0976 c 3.3536,-54.77698 22.9523,-82.30457 58.7949,-82.58399 z"
     id="path1" />
</svg>
