<?xml version="1.0" encoding="UTF-8" standalone="no"?>
<svg
   width="2220.8574"
   height="1573.7887"
   version="1.1"
   id="svg2"
   sodipodi:docname="G23A.svg"
   inkscape:version="1.4 (e7c3feb1, 2024-10-09)"
   xmlns:inkscape="http://www.inkscape.org/namespaces/inkscape"
   xmlns:sodipodi="http://sodipodi.sourceforge.net/DTD/sodipodi-0.dtd"
   xmlns="http://www.w3.org/2000/svg"
   xmlns:svg="http://www.w3.org/2000/svg"
   xmlns:rdf="http://www.w3.org/1999/02/22-rdf-syntax-ns#"
   xmlns:cc="http://creativecommons.org/ns#"
   xmlns:dc="http://purl.org/dc/elements/1.1/">
  <title
     id="title2">G23A</title>
  <defs
     id="defs2" />
  <sodipodi:namedview
     id="namedview2"
     pagecolor="#ffffff"
     bordercolor="#000000"
     borderopacity="0.25"
     inkscape:showpageshadow="2"
     inkscape:pageopacity="0.0"
     inkscape:pagecheckerboard="0"
     inkscape:deskcolor="#d1d1d1"
     inkscape:zoom="0.14573644"
     inkscape:cx="651.86168"
     inkscape:cy="1389.4946"
     inkscape:window-width="2200"
     inkscape:window-height="1186"
     inkscape:window-x="1488"
     inkscape:window-y="25"
     inkscape:window-maximized="0"
     inkscape:current-layer="svg2" />
  <path
     id="path1"
     style="fill:#000000;stroke:none;stroke-width:100"
     d="m 677.41602,0 c -27.24336,0 -45.84262,25.409229 -55.79688,76.228516 -9.75323,49.792704 -54.96474,74.689454 -135.63476,74.689454 -1.66335,0 -3.34177,-0.0102 -5.03516,-0.0312 -26.19553,-12.57385 -54.48623,-18.86133 -84.87305,-18.86133 -49.24758,0 -107.92483,26.19489 -176.0332,78.58594 -18.8608,22.00424 -41.39042,44.00942 -67.58594,66.01367 C 69.67917,299.67704 18.860778,322.72919 0,345.78125 v 39.29297 c 68.108367,-14.6695 110.54541,-22.00391 127.31055,-22.00391 102.68646,12.57386 154.02929,37.72181 154.02929,75.44336 0,95.35172 11.00162,200.13321 33.00586,314.34571 16.05314,83.32343 91.39701,175.23935 222.9961,275.30862 -0.48375,0.022 -0.96759,0.047 -1.45118,0.066 222.99316,179.698 539.06928,338.9538 548.98048,363.7344 -67.8285,2.3422 -154.07404,-6.2841 -262.08399,-34.7461 -32.1016,-8.4592 -64.70203,-12.6895 -97.79883,-12.6895 -67.8909,0 -137.87462,17.7984 -209.95312,53.3926 H 358.17969 c -135.0137,21.1788 -202.51953,45.666 -202.51953,73.4629 -1.7847,26.7707 -1.0123,40.1562 2.3164,40.1562 5.70307,0 8.64922,-27.9336 29.02539,-27.9336 15.63844,0 12.78164,10.3516 43.20899,10.3516 28.4442,0 75.73318,-8.8492 141.86718,-26.5469 38.98791,5.776 76.05216,8.6641 111.18946,8.6641 61.4902,0 117.08365,-8.8443 166.78125,-26.5332 58.2412,6.618 111.84862,28.789 160.82422,66.5136 18.91271,14.568 73.96829,56.291 95.30468,43.6817 5.4079,-3.1953 10.54195,-4.793 15.40235,-4.793 8.225,0 15.66606,4.5763 22.32226,13.7285 2.4781,3.4076 4.44871,5.1114 5.91211,5.1114 4.7886,0 4.1412,-18.2488 -1.9414,-54.7481 -43.681,-41.0337 -86.03867,-70.1558 -127.07227,-87.3633 66.1832,15.8838 163.4736,32.4311 291.86912,49.6387 24.1095,1.702 45.6348,2.5527 64.5781,2.5527 69.4586,0 104.1895,-11.44 104.1895,-34.3203 -13.4173,-82.2495 -96.6998,-147.5389 -160.4434,-197.2343 105.6133,-14.127 323.1194,3.2878 410.6582,31.0039 167.1275,52.915 288.4124,79.373 363.8555,79.373 127.8342,0 191.752,-42.4371 191.752,-127.3105 0,-30.5418 -1.3601,-51.0684 -4.0801,-61.5801 89.7851,-3.932 135.6779,-48.8945 137.6777,-134.8867 C 1823.733,1004.3358 1525.3657,892.22005 1325.7559,702.56445 1199.8695,582.95587 1079.7128,523.15039 965.28711,523.15039 c -67.01169,0 -132.05766,20.51121 -195.13867,61.5332 C 693.6575,523.90998 645.98187,425.93844 627.12109,290.76953 697.32511,242.56976 732.42773,158.22012 732.42773,37.720703 732.42773,12.572999 714.08975,0 677.41602,0 Z M 396.07617,179.17773 c 45.05632,0 81.73033,23.3134 110.02149,69.94141 28.29116,46.62807 60.77353,123.90452 97.44726,231.83008 36.67374,107.92557 93.25516,170.27197 169.7461,187.03711 63.10294,-49.1271 128.94492,-73.69141 197.52539,-73.69141 101.09709,0 208.14609,53.37947 321.14649,160.13672 189.6556,179.17738 429.0826,286.05466 718.2812,320.63286 123.6429,5.2393 130.4548,15.194 20.4336,29.8632 -71.677,6.0747 -141.3295,9.1114 -208.957,9.1114 -165.6873,0 -319.2216,-18.2302 -460.6016,-54.6914 C 1162.0331,1008.0041 990.71554,956.9229 847.16406,906.10352 703.61259,855.28426 681.08297,812.58591 779.57812,778.00781 l 1.57227,-62.86914 c -102.68644,10.47821 -147.48061,52.65199 -134.38281,126.52344 13.09772,73.87131 173.67698,151.67223 481.73632,233.40239 260.9075,66.0126 458.1587,101.3765 591.7559,106.0917 44.532,1.572 84.0288,2.3575 118.4902,2.3575 68.9238,0 117.7071,-3.143 146.3477,-9.4297 29.339,18.8608 40.865,39.2945 34.5781,61.2988 0,42.0081 -36.7574,63.0117 -110.2715,63.0117 -3.5007,0 -7.0846,-0.047 -10.752,-0.1406 -80.6822,-2.0953 -202.7547,-27.2433 -366.2148,-75.4434 -184.6487,-51.4543 -629.21209,-51.3152 -556.76758,-5.5605 84.71468,35.7389 167.44408,102.5841 248.18748,200.5352 25.1897,30.7874 -48.8184,37.1898 -75.4492,15.8847 -48.7173,-38.9739 84.811,-21.6049 -287.89648,-274.9922 C 440.84885,873.3672 426.13059,847.28595 390.57617,760.71875 354.42638,672.70179 341.59015,564.77557 352.06836,436.94141 c 0,-35.62592 -26.19684,-61.82081 -78.58789,-78.58594 -32.48245,-22.00425 -48.72266,-39.29334 -48.72266,-51.86719 0,-19.9086 4.19165,-35.10187 12.57422,-45.58008 59.7258,-54.4867 112.64002,-81.73047 158.74414,-81.73047 z m -66.01172,53.43946 c -29.33898,0 -49.77278,6.80996 -61.29883,20.43164 -11.52602,13.62167 -15.45451,27.768 -11.7871,42.4375 3.66733,14.6695 11.78746,22.0039 24.36132,22.0039 47.15195,0 70.72852,-17.81353 70.72852,-53.43945 0,-15.71731 -7.33441,-26.19449 -22.00391,-31.43359 z"
     sodipodi:nodetypes="ssscscccccsscccsscccssscscscssscccsscsssccssccssssscssccsssccscssccsccccsssccscscssssc" />
  <metadata
     id="metadata2">
    <rdf:RDF>
      <cc:Work
         rdf:about="">
        <dc:title>G23A</dc:title>
        <dc:creator>
          <cc:Agent>
            <dc:title>S. J. P. Thomas</dc:title>
          </cc:Agent>
        </dc:creator>
        <dc:description>Mixing two signs of S. Thomas (S. Rosmorduc)</dc:description>
      </cc:Work>
    </rdf:RDF>
  </metadata>
</svg>
