<?xml version="1.0" encoding="UTF-8" standalone="no"?>
<svg
   xmlns:dc="http://purl.org/dc/elements/1.1/"
   xmlns:cc="http://creativecommons.org/ns#"
   xmlns:rdf="http://www.w3.org/1999/02/22-rdf-syntax-ns#"
   xmlns:svg="http://www.w3.org/2000/svg"
   xmlns="http://www.w3.org/2000/svg"
   xmlns:sodipodi="http://sodipodi.sourceforge.net/DTD/sodipodi-0.dtd"
   xmlns:inkscape="http://www.inkscape.org/namespaces/inkscape"
   width="19.51474952697754"
   height="18.0"
   id="svg3040"
   version="1.1"
   inkscape:version="0.48.0 r9654"
   sodipodi:docname="N36C.svg">
  <metadata
     id="metadata3050">
    <rdf:RDF>
      <cc:Work
         rdf:about="">
        <dc:format>image/svg+xml</dc:format>
        <dc:type
           rdf:resource="http://purl.org/dc/dcmitype/StillImage" />
      </cc:Work>
    </rdf:RDF>
  </metadata>
  <defs
     id="defs3048" />
  <sodipodi:namedview
     pagecolor="#ffffff"
     bordercolor="#666666"
     borderopacity="1"
     objecttolerance="10"
     gridtolerance="10"
     guidetolerance="10"
     inkscape:pageopacity="0"
     inkscape:pageshadow="2"
     inkscape:window-width="640"
     inkscape:window-height="480"
     id="namedview3046"
     showgrid="false"
     inkscape:zoom="17.277778"
     inkscape:cx="9.7573748"
     inkscape:cy="9"
     inkscape:window-x="1946"
     inkscape:window-y="401"
     inkscape:window-maximized="0"
     inkscape:current-layer="svg3040" />
  <path
     style="fill:black cmyk(0, 0, 0, 100);stroke:none"
     d="M 0.59375 13.375 C 0.20717265 13.375 0.016381641 13.497239 0.03125 13.75 C 0.016381641 14.047367 0.20717265 14.21875 0.59375 14.21875 L 2.03125 14.21875 C 2.388094 14.486382 2.5625 14.97382 2.5625 15.6875 C 2.5625 16.416047 2.388094 16.919869 2.03125 17.1875 L 0.59375 17.1875 C 0.19230362 17.1875 0 17.309737 0 17.5625 C 0 17.859867 0.20717265 18 0.59375 18 L 18.96875 18 C 19.340487 18 19.5 17.859867 19.5 17.5625 C 19.5 17.309737 19.324107 17.1875 18.9375 17.1875 L 17.5 17.1875 C 17.143157 16.919869 16.96875 16.416047 16.96875 15.6875 C 16.96875 14.97382 17.143157 14.486382 17.5 14.21875 L 18.96875 14.21875 C 19.340487 14.21875 19.5 14.047367 19.5 13.75 C 19.5 13.497239 19.340487 13.375 18.96875 13.375 L 0.59375 13.375 z M 3.15625 14.21875 L 16.40625 14.21875 C 16.138617 14.486382 16 14.97382 16 15.6875 C 16 16.416047 16.138617 16.919869 16.40625 17.1875 L 3.15625 17.1875 C 3.4238805 16.919869 3.53125 16.416047 3.53125 15.6875 C 3.53125 14.97382 3.4238805 14.486382 3.15625 14.21875 z M 5.5625 14.5625 L 5.34375 15.0625 L 4.625 16.65625 L 4.5 16.90625 L 4.96875 17.125 L 5.09375 16.875 L 5.59375 15.75 L 5.8125 16.1875 L 6.0625 16.65625 L 6.28125 16.1875 L 6.5625 15.71875 L 6.78125 16.1875 L 7.03125 16.65625 L 7.25 16.1875 L 7.5 15.71875 L 7.75 16.1875 L 8 16.65625 L 8.21875 16.1875 L 8.46875 15.71875 L 8.71875 16.1875 L 8.96875 16.65625 L 9.1875 16.1875 L 9.4375 15.71875 L 9.6875 16.1875 L 9.9375 16.65625 L 10.15625 16.1875 L 10.40625 15.71875 L 10.65625 16.1875 L 10.90625 16.65625 L 11.125 16.1875 L 11.375 15.71875 L 11.625 16.1875 L 11.84375 16.65625 L 12.09375 16.1875 L 12.34375 15.71875 L 12.59375 16.1875 L 12.8125 16.65625 L 13.0625 16.1875 L 13.3125 15.71875 L 13.5625 16.21875 L 13.8125 16.625 L 14.03125 16.21875 L 14.3125 15.6875 L 14.96875 16.90625 L 15.125 17.125 L 15.5625 16.875 L 15.4375 16.65625 L 14.53125 15 L 14.3125 14.625 L 14.09375 15.03125 L 13.8125 15.53125 L 13.53125 15.03125 L 13.28125 14.59375 L 13.09375 15.03125 L 12.8125 15.5 L 12.5625 15.03125 L 12.34375 14.5625 L 12.125 15.03125 L 11.875 15.5 L 11.59375 15.03125 L 11.375 14.5625 L 11.15625 15.03125 L 10.875 15.5 L 10.625 15.03125 L 10.40625 14.5625 L 10.1875 15.03125 L 9.9375 15.5 L 9.65625 15.03125 L 9.4375 14.5625 L 9.21875 15.03125 L 8.96875 15.5 L 8.71875 15.03125 L 8.46875 14.5625 L 8.25 15.03125 L 8 15.5 L 7.75 15.03125 L 7.5 14.5625 L 7.28125 15.03125 L 7.03125 15.5 L 6.78125 15.03125 L 6.5625 14.5625 L 6.3125 15.03125 L 6.0625 15.5 L 5.8125 15.03125 L 5.5625 14.5625 z "
     id="path3042" />
</svg>
