<?xml version="1.0" encoding="UTF-8" standalone="no"?>
<svg
   width="1433.4532"
   height="1800"
   version="1.1"
   id="svg2"
   sodipodi:docname="N97C.svg"
   inkscape:version="1.4 (e7c3feb1, 2024-10-09)"
   xmlns:inkscape="http://www.inkscape.org/namespaces/inkscape"
   xmlns:sodipodi="http://sodipodi.sourceforge.net/DTD/sodipodi-0.dtd"
   xmlns="http://www.w3.org/2000/svg"
   xmlns:svg="http://www.w3.org/2000/svg">
  <defs
     id="defs2" />
  <sodipodi:namedview
     id="namedview2"
     pagecolor="#ffffff"
     bordercolor="#000000"
     borderopacity="0.25"
     inkscape:showpageshadow="2"
     inkscape:pageopacity="0.0"
     inkscape:pagecheckerboard="0"
     inkscape:deskcolor="#d1d1d1"
     inkscape:zoom="0.30966612"
     inkscape:cx="716.90115"
     inkscape:cy="9.6878534"
     inkscape:window-width="2560"
     inkscape:window-height="1387"
     inkscape:window-x="1440"
     inkscape:window-y="25"
     inkscape:window-maximized="1"
     inkscape:current-layer="svg2" />
  <path
     id="path1"
     style="fill:#000000;stroke:none;stroke-width:100"
     d="M 242.70117 0 C 82.585872 3.3708407 1.68542 85.11327 0 245.22852 C 6.74168 400.28756 87.642132 482.03194 242.70117 490.45898 L 694.82812 490.45898 L 434.63867 1800 L 982.03711 1800 L 723.99805 490.45898 L 1190.752 490.45898 C 1347.4964 482.03194 1428.397 400.28756 1433.4531 245.22852 C 1431.7675 85.11327 1350.8669 3.3708407 1190.752 0 L 242.70117 0 z M 242.70117 32.865234 L 1190.752 32.865234 C 1328.9562 36.236074 1399.7446 107.02378 1403.1152 245.22852 C 1394.6882 376.69168 1323.8997 447.47934 1190.752 457.5918 L 242.70117 457.5918 C 109.55265 447.47934 39.606914 376.69168 32.865234 245.22852 C 36.236074 107.02379 106.18181 36.236075 242.70117 32.865234 z M 242.70117 68.259766 C 124.72148 68.259766 65.732422 127.24888 65.732422 245.22852 C 69.103262 358.15195 128.09232 417.14297 242.70117 422.19922 L 1190.752 422.19922 C 1305.3603 417.14295 1364.3514 358.15194 1367.7227 245.22852 C 1367.7227 127.24888 1309.574 68.259766 1193.2793 68.259766 L 242.70117 68.259766 z M 242.70117 98.597656 L 1193.2793 98.597656 C 1287.6633 100.28308 1335.6981 149.1594 1337.3828 245.22852 C 1337.3828 339.61227 1288.5056 387.64666 1190.752 389.33203 L 242.70117 389.33203 C 146.632 387.64666 98.597656 339.61227 98.597656 245.22852 C 98.597656 149.1594 146.632 100.28308 242.70117 98.597656 z M 846.92578 149.16016 L 778.66602 235.11719 L 710.40625 151.6875 L 642.14648 237.64453 L 573.88672 151.6875 L 503.09961 237.64453 L 434.83984 151.6875 L 366.58008 235.11719 L 295.79102 151.6875 L 176.96875 283.15039 L 227.53125 338.76953 L 295.79102 252.81445 L 366.58008 341.29883 L 434.83984 252.81445 L 505.62695 341.29883 L 573.88672 252.81445 L 642.14648 341.29883 L 710.40625 252.81445 L 778.66602 341.29883 L 846.92578 252.81445 L 915.18555 341.29883 L 985.97266 252.81445 L 1054.2324 341.29883 L 1119.9648 252.81445 L 1190.752 341.29883 L 1238.7871 285.67969 L 1119.9648 151.6875 L 1054.2324 237.64453 L 983.44531 151.6875 L 915.18555 237.64453 L 846.92578 149.16016 z M 710.52734 681.11914 L 894.45312 1729.9336 L 776.21484 1729.9336 L 719.28516 1270.1191 L 699.58008 1270.1191 L 642.65039 1729.9336 L 520.0332 1729.9336 L 710.52734 681.11914 z M 708.33789 1410.252 L 736.80273 1729.9336 L 679.87305 1729.9336 L 708.33789 1410.252 z " />
</svg>
