<?xml version="1.0" encoding="UTF-8" standalone="no"?>
<svg
   width="2162.8"
   height="1800"
   version="1.1"
   id="svg1"
   sodipodi:docname="S60A.svg"
   inkscape:version="1.4 (e7c3feb1, 2024-10-09)"
   xmlns:inkscape="http://www.inkscape.org/namespaces/inkscape"
   xmlns:sodipodi="http://sodipodi.sourceforge.net/DTD/sodipodi-0.dtd"
   xmlns="http://www.w3.org/2000/svg"
   xmlns:svg="http://www.w3.org/2000/svg"
   xmlns:rdf="http://www.w3.org/1999/02/22-rdf-syntax-ns#"
   xmlns:cc="http://creativecommons.org/ns#"
   xmlns:dc="http://purl.org/dc/elements/1.1/">
  <title
     id="title1">S60A</title>
  <defs
     id="defs1" />
  <sodipodi:namedview
     id="namedview1"
     pagecolor="#ffffff"
     bordercolor="#000000"
     borderopacity="0.25"
     inkscape:showpageshadow="2"
     inkscape:pageopacity="0.0"
     inkscape:pagecheckerboard="0"
     inkscape:deskcolor="#d1d1d1"
     inkscape:zoom="1.0213765"
     inkscape:cx="865.4987"
     inkscape:cy="405.8249"
     inkscape:window-width="1320"
     inkscape:window-height="594"
     inkscape:window-x="0"
     inkscape:window-y="25"
     inkscape:window-maximized="0"
     inkscape:current-layer="svg1" />
  <path
     id="path1"
     style="fill:#000000;stroke:none;stroke-width:99.9933"
     d="m 1080.9844,0 c -51.387,46.715435 -77.0801,98.10163 -77.0801,154.16016 -26.69452,-24.69244 -61.3981,-37.03711 -104.10938,-37.03711 -42.7112,0 -85.42152,29.36382 -128.13281,88.09179 56.72591,0 100.77068,10.01035 132.13672,30.03125 31.3661,19.35355 47.04883,34.70171 47.04883,46.04688 -24.02506,-12.67991 -51.05258,-19.01953 -81.08399,-19.01953 -28.69658,0 -58.06044,12.3466 -88.09179,37.03906 -29.36402,24.02507 -44.04688,60.73033 -44.04688,110.11523 0,42.71124 18.35359,76.41303 55.05859,101.10547 -215.7284,249.28619 -316.30834,525.4761 -301.73828,828.5703 -30.55468,50.9161 -60.77845,76.375 -90.67187,76.375 -32.70081,0 -45.04745,-12.0138 -37.03906,-36.039 8.6757,-24.6924 32.03451,-70.0717 70.07421,-136.1407 37.37235,-66.0689 50.38621,-123.7967 39.04102,-173.1816 -11.34515,-48.7175 -28.02973,-78.74859 -50.05273,-90.09376 -22.02297,-11.34518 -45.7144,-18.35203 -71.07422,-21.02149 15.34936,-3.33683 31.0321,-12.67997 47.04882,-28.02929 22.69036,-24.02513 34.03516,-53.38895 34.03516,-88.0918 0,-35.37028 -11.67939,-64.73604 -35.03711,-88.09375 -24.02509,-23.35772 -53.72154,-35.03516 -89.0918,-35.03516 -34.03554,0 -62.73213,11.67744 -86.08984,35.03516 -24.02509,23.35771 -36.03711,52.72347 -36.03711,88.09375 0,34.70285 12.34466,64.06667 37.03711,88.0918 16.68409,16.68408 35.0377,26.69441 55.05859,30.03125 -34.03552,1.3347 -56.05985,4.67088 -66.07031,10.00976 -17.35144,14.68202 -26.02539,28.36319 -26.02539,41.04293 0,12.68 8.34131,25.0266 25.02539,37.0391 12.5131,9.0095 25.02597,13.5137 37.53906,13.5137 4.17099,0 8.34268,-0.5007 12.51368,-1.502 -28.69662,55.3912 -38.03975,113.4516 -28.0293,174.1817 10.01045,60.0627 15.01562,123.7955 15.01562,191.1992 0,55.3911 31.70009,85.4222 95.09961,90.0937 4.4885,0.38 8.9468,0.5703 13.375,0.5703 51.88051,0 99.62783,-25.9395 143.24414,-77.8203 0.17865,1.392 0.36094,2.7846 0.54493,4.1778 36.705,0 76.07917,13.3465 118.12304,40.041 42.0439,27.3618 63.06641,65.7361 63.06641,115.1211 -3.57823,0.6959 -7.56462,1.0429 -11.95703,1.0429 -25.09942,0 -63.49069,-11.3593 -115.17578,-34.0781 -23.19255,-10.0501 -49.12174,-15.0742 -77.78711,-15.0742 -45.57055,0 -98.05707,12.7001 -157.45899,38.0996 -66.324,27.9017 -119.32383,41.8516 -159,41.8516 -18.21193,0 -33.61745,-2.9395 -46.21484,-8.8184 -40.041805,-19.3536 -67.736579,-31.033 -83.085938,-35.0371 -4.986357,-1.5239 -9.369472,-2.2852 -13.148438,-2.2852 -14.4286969,0 -20.0559327,11.1065 -16.88281212,33.3184 30.03135212,88.7593 87.75717512,134.8076 173.17968812,138.1445 12.94261,0.5067 25.52548,0.7598 37.74805,0.7598 68.44758,0 125.60453,-7.9281 171.4707,-23.7832 24.11748,-8.6347 50.22733,-12.9531 78.33008,-12.9531 34.88609,0 72.84364,6.6547 113.87109,19.9609 36.20227,11.848 72.48504,17.7715 108.84961,17.7715 37.3745,0 74.83489,-6.2582 112.38086,-18.7734 20.30274,-6.7676 39.32816,-10.1504 57.07422,-10.1504 47.00297,0 85.03809,23.7381 114.10547,71.2148 h 226.23441 c 29.0673,-47.4767 67.1024,-71.2148 114.1054,-71.2148 17.7461,0 36.7717,3.3828 57.0742,10.1504 37.5462,12.5152 75.1772,18.7734 112.8946,18.7734 36.6982,0 73.4773,-5.9235 110.3379,-17.7715 41.0274,-13.3062 78.9849,-19.9609 113.8711,-19.9609 28.1026,0 54.2125,4.3184 78.33,12.9531 46.4324,15.8551 103.4353,23.7832 171.0079,23.7832 12.0662,0 24.4685,-0.2531 37.2089,-0.7598 84.7551,-3.337 142.1483,-49.3854 172.1797,-138.1445 4.7597,-22.2119 -0.5378,-33.3184 -15.8945,-33.3184 -4.0218,0 -8.7347,0.7613 -14.1367,2.2852 -15.3496,4.0044 -42.7115,15.6838 -82.086,35.0371 -12.3874,5.8789 -27.6137,8.8184 -45.6816,8.8184 -39.3627,0 -92.2073,-13.9499 -158.5313,-41.8516 -59.4018,-25.3995 -111.7628,-38.0996 -157.082,-38.0996 -28.507,0 -54.2272,5.0241 -77.1621,15.0742 -49.0306,21.7915 -86.4991,32.6875 -112.4043,32.6875 -5.8289,0 -11.0708,-0.551 -15.7285,-1.6543 0,-48.0501 21.0205,-85.7572 63.0645,-113.1191 42.0437,-26.6945 80.7507,-40.041 116.121,-40.041 0.2,-1.5186 0.3966,-3.0362 0.5899,-4.5528 44.6484,52.1308 92.758,78.1953 144.3262,78.1953 4.391,0 8.8068,-0.1883 13.248,-0.5683 62.7322,-4.6717 94.0977,-34.7049 94.0977,-90.0957 0,-66.069 5.0052,-129.4672 15.0156,-190.1973 10.0105,-61.3974 1.3346,-119.1252 -26.0274,-173.1816 4.3377,1.0012 8.6341,1.5019 12.8887,1.5019 12.7633,0 25.1515,-4.5042 37.1641,-13.5136 16.6841,-12.0126 25.0254,-24.3592 25.0254,-37.0391 0,-12.68 -8.674,-27.02822 -26.0254,-43.04493 -10.0105,-5.3389 -32.702,-8.00781 -68.0723,-8.00781 20.021,-4.67156 39.0418,-15.34915 57.0606,-32.0332 24.6924,-24.02513 37.0371,-53.38894 37.0371,-88.0918 0,-34.03555 -12.3447,-63.06674 -37.0371,-87.0918 -24.025,-24.02509 -53.0563,-36.03711 -87.0918,-36.03711 -34.0357,0 -63.0648,12.01202 -87.0899,36.03711 -24.6923,24.02506 -37.039,53.05625 -37.039,87.0918 0,34.70286 12.3467,64.06667 37.039,88.0918 15.3494,15.34932 30.0303,25.35966 44.0449,30.03125 -24.0251,1.3347 -47.0492,8.00697 -69.0722,20.01953 -22.023,12.01249 -39.0402,42.37806 -51.0528,91.09566 -12.0125,48.0502 1.0013,105.1107 39.0411,171.1797 38.707,66.069 62.064,111.4483 70.0722,136.1407 7.3411,24.0251 -4.671,36.039 -36.0371,36.039 -29.3639,0 -59.7296,-25.0259 -91.0957,-75.0781 l -1.9473,5.916 c 16.5255,-305.9264 -83.9307,-584.52109 -301.3691,-835.7832 36.7049,-24.69243 55.0586,-58.39421 55.0586,-101.10547 0,-49.3849 -14.6829,-86.09016 -44.0469,-110.11523 -30.0314,-24.69245 -59.3952,-37.03906 -88.0918,-37.03906 -28.6966,0 -55.7242,6.34157 -81.084,19.02148 0,-11.34516 15.6829,-26.69527 47.0489,-46.04883 31.3661,-20.02088 76.08,-30.03125 134.1406,-30.03125 -42.7113,-58.72798 -85.4236,-88.09179 -128.1348,-88.09179 -44.046,0 -79.4167,12.34662 -106.1113,37.03906 0,-56.058714 -25.6921,-107.446675 -77.0781,-154.16211 z m 0,68.070312 c 25.3598,28.69663 38.039,81.419238 38.039,158.166018 -19.3535,34.03553 -32.0328,65.40103 -38.039,94.09765 -7.3411,-30.03134 -20.0204,-61.39684 -38.0391,-94.09765 1.3347,-76.74678 14.0139,-129.469386 38.0391,-158.166018 z M 916.8125,156.16211 c 30.03134,0 67.73849,23.35878 113.1191,70.07422 30.0314,50.05225 45.0469,98.4369 45.0469,145.15234 h -62.0644 c 0,-79.41624 -18.68633,-131.80426 -56.05863,-157.16406 -36.705,-24.69245 -73.74482,-37.03906 -111.11719,-37.03906 16.0167,-14.01463 39.70812,-21.02344 71.07422,-21.02344 z m 328.3437,0 c 32.7011,0 57.0596,7.00881 73.0762,21.02344 -38.707,0 -76.4142,12.34661 -113.1191,37.03906 -37.3724,25.3598 -56.0586,77.74782 -56.0586,157.16406 h -59.0606 c 0,-46.71544 14.681,-95.10009 44.045,-145.15234 44.046,-46.71544 81.0858,-70.07422 111.1171,-70.07422 z M 877.77148,309.32227 c 28.69658,0 52.72264,9.34312 72.07618,28.02929 19.35354,18.6862 24.02409,45.71571 14.01367,81.08594 -209.55212,379.72977 -302.98333,725.4233 -280.29297,1037.082 -46.71541,-45.3808 -87.75668,-68.0703 -123.12695,-68.0703 -40.0418,-302.9829 64.39966,-605.96625 313.32617,-908.9492 -41.37652,0 -67.73689,-14.68287 -79.08203,-44.04688 -11.34519,-29.36399 -7.00721,-57.39335 13.01367,-84.08789 20.02092,-27.36191 43.3777,-41.04296 70.07226,-41.04296 z m 406.42582,0 c 26.6944,0 50.0513,13.68105 70.0722,41.04296 20.0209,26.69454 24.3589,54.72392 13.0137,84.08789 -11.3451,29.364 -37.7054,44.04688 -79.082,44.04688 248.9266,302.98295 353.368,605.9663 313.3261,908.9492 -34.0354,0 -74.4114,22.6895 -121.1269,68.0703 21.3556,-311.6587 -72.0737,-657.35223 -280.291,-1037.082 -9.3431,-35.37023 -4.6726,-62.39974 14.0136,-81.08594 19.3536,-18.68617 42.7123,-28.02929 70.0743,-28.02929 z M 1014.916,418.4375 h 134.1387 l 15.0156,28.0293 H 997.89844 Z m -28.02928,75.07812 H 1177.084 c 186.1944,333.01437 263.6083,698.72858 232.2422,1097.14458 -189.9687,-78.4387 -242.783,40.4714 -328.3418,40.4714 -85.55879,0 -138.2709,-118.9453 -328.34378,-40.4714 -30.03134,-398.416 48.05175,-764.13023 234.2461,-1097.14458 z M 308.17773,759.79297 c 22.69036,0 42.37647,8.34326 59.06055,25.02734 16.01673,16.0167 24.02539,35.37018 24.02539,58.06055 0,21.35561 -8.00866,40.37451 -24.02539,57.05859 -16.68408,16.0167 -36.37019,24.02539 -59.06055,24.02539 -21.35562,0 -40.04186,-8.00869 -56.05859,-24.02539 -16.68407,-16.68408 -25.02734,-35.70298 -25.02734,-57.05859 0,-22.69037 8.34327,-42.04385 25.02734,-58.06055 16.01673,-16.68408 34.70297,-25.02734 56.05859,-25.02734 z m 1545.61327,0 c 21.3556,0 40.7091,8.67591 58.0606,26.02734 16.684,16.68411 25.0254,35.70493 25.0254,57.06055 0,22.69036 -8.3414,42.04384 -25.0254,58.06055 -17.3515,15.34932 -36.705,23.02343 -58.0606,23.02343 -22.6903,0 -42.3784,-7.67411 -59.0625,-23.02343 -16.0167,-16.01671 -24.0234,-35.37019 -24.0234,-58.06055 0,-21.35562 8.0067,-40.37644 24.0234,-57.06055 16.6841,-17.35143 36.3722,-26.02734 59.0625,-26.02734 z M 260.63477,985.4668 c 10.38067,0 18.55495,2.52331 24.51953,7.57031 12.76336,-2.25239 24.91566,-3.37891 36.45898,-3.37891 19.2388,0 36.78295,3.12826 52.63281,9.38477 26.02719,10.01053 43.37896,36.70543 52.05469,80.08403 9.34308,43.3786 1.669,86.4235 -23.02344,129.1347 -24.69245,42.7114 -45.71496,81.0836 -63.0664,115.1192 -17.35145,34.0354 -26.02735,58.3941 -26.02735,73.0761 0,39.3744 25.6931,59.0625 77.08008,59.0625 32.90482,0 63.58526,-17.8039 92.03906,-53.4121 -19.78211,47.1798 -55.80034,72.3252 -108.05468,75.4356 -2.73455,0.1333 -5.4024,0.1992 -8.00196,0.1992 -50.69182,0 -75.72074,-24.7564 -75.08593,-74.2715 0.66735,-52.0543 -3.00336,-108.113 -11.01172,-168.1758 -7.34098,-60.73 -3.33568,-107.4456 12.01367,-140.1465 16.01673,-32.7008 46.04778,-54.056 90.09375,-64.0664 5.33891,-1.3345 5.33891,-5.0052 0,-11.0117 -11.56761,-3.3371 -23.17269,-5.0058 -34.81445,-5.0058 -23.2836,0 -46.71473,6.6722 -70.29493,20.0195 -3.47022,0.5333 -7.47563,0.8008 -12.01367,0.8008 -6.80712,0 -14.81377,-0.6015 -24.02343,-1.8028 -16.01673,-2.0018 -24.0254,-9.3413 -24.0254,-22.0215 0,-12.6797 9.00853,-21.02308 27.02735,-25.0273 5.63082,-1.04272 10.80499,-1.56445 15.52344,-1.56445 z m 1644.13473,0.17382 c 4.387,10e-6 9.0844,0.46376 14.0899,1.39063 18.0188,4.0042 27.0273,13.01265 27.0273,27.02735 0,12.6799 -8.3412,19.6867 -25.0254,21.0215 -16.0166,1.3345 -28.3633,2.0019 -37.039,2.0019 -24.074,-13.689 -48.315,-20.5332 -72.7227,-20.5332 -10.0998,0 -20.2278,1.1718 -30.3848,3.5157 -5.3389,6.0062 -5.3389,9.6769 0,11.0117 44.7133,10.0104 74.4117,31.3656 89.0938,64.0664 14.682,32.7008 18.6854,79.751 12.0117,141.1484 -7.3409,60.7301 -11.0117,117.1215 -11.0117,169.1758 0,48.9185 -24.7538,73.3789 -74.2617,73.3789 -3.1738,0 -6.4491,-0.1008 -9.8262,-0.3008 -54.1409,-3.867 -90.8531,-30.1438 -110.1348,-78.8301 28.9902,37.204 61.03,55.8067 96.1192,55.8067 50.0522,0 75.0781,-19.6881 75.0781,-59.0625 0,-14.6821 -8.6741,-38.706 -26.0254,-72.0742 -17.3515,-33.3682 -38.0413,-71.7426 -62.0664,-115.1211 -24.0251,-43.3787 -31.3646,-86.4235 -22.0215,-129.1348 9.343,-42.7113 26.3602,-69.4062 51.0528,-80.084 14.6326,-6.32756 30.9048,-9.49021 48.8183,-9.49021 12.3155,0 25.4072,1.49553 39.2735,4.48633 7.2298,-6.26578 16.548,-9.39844 27.955,-9.39844 z m -1650.09177,6.72852 c -1.48304,0 -3.00332,0.22334 -4.56054,0.66797 -8.00835,2.66942 -11.34644,6.67289 -10.01172,12.01169 0,7.341 4.00532,11.0117 12.01367,11.0117 7.34101,0 12.01159,-2.6707 14.01367,-8.0097 2.66949,-6.0063 1.6696,-10.34232 -3.00195,-13.01174 -2.66943,-1.77961 -5.48707,-2.66992 -8.45313,-2.66992 z m 1657.17387,0.66797 c -3.3371,0 -7.3405,0.99989 -12.0118,3.00195 -5.339,2.00207 -6.3411,6.34004 -3.0039,13.01364 2.4025,5.4057 6.6964,8.1094 12.8829,8.1094 0.6872,0 1.3982,-0.035 2.1328,-0.1016 6.6736,-0.6673 10.0117,-3.6688 10.0117,-9.0078 1.3346,-6.0062 -2.0035,-11.01148 -10.0117,-15.01559 z M 466.96289,1609.2344 c 38.52693,0 74.69179,7.156 108.49414,21.4687 39.65824,16.9449 79.41261,25.416 119.26563,25.416 33.91748,0 67.90628,-6.1367 101.96484,-18.4101 33.01277,-12.1939 63.8377,-18.291 92.47656,-18.291 13.62418,0 26.75443,1.3808 39.38867,4.1406 24.12792,17.4629 50.35226,30.1803 78.67187,38.1504 39.4717,25.3777 64.0579,38.0664 73.7598,38.0664 9.5889,0 33.7185,-12.395 72.3886,-37.1856 29.0028,-7.9347 56.0634,-21.0268 81.1817,-39.2753 12.2841,-2.5966 25.0328,-3.8946 38.248,-3.8946 28.639,0 59.4661,6.0971 92.4785,18.291 34.0589,12.2734 68.1872,18.4102 102.3868,18.4102 40.1845,0 80.4663,-8.4732 120.8457,-25.418 33.8022,-14.3127 69.9671,-21.4687 108.4941,-21.4687 45.9043,0 95.1619,10.1577 147.7734,30.4765 62.6144,23.7504 118.3836,35.627 167.3067,35.627 26.6853,0 51.3334,-3.5333 73.9453,-10.5996 -37.5655,27.8713 -81.6095,41.8066 -132.1328,41.8066 -32.9498,0 -68.6561,-5.9268 -107.1172,-17.7812 -51.9366,-15.899 -100.5058,-23.8496 -145.709,-23.8496 -40.1802,0 -77.7007,6.2816 -112.5605,18.8437 -34.2946,11.9419 -68.5197,17.9121 -102.6739,17.9121 -40.2843,0 -80.4694,-8.3066 -120.5586,-24.9199 -21.9839,-9.1107 -43.8504,-13.666 -65.5996,-13.666 -51.536,0 -102.413,25.5781 -152.6289,76.7324 H 1014.916 c -50.21579,-51.1543 -101.09289,-76.7324 -152.62889,-76.7324 -21.74913,0 -43.61538,4.5553 -65.59961,13.666 -40.08889,16.6133 -80.08114,24.9199 -119.97461,24.9199 -33.82273,0 -67.57364,-5.9702 -101.25586,-17.9121 -34.85988,-12.5621 -72.38026,-18.8437 -112.56055,-18.8437 -45.20294,0 -93.77235,7.9506 -145.70898,23.8496 -38.988,11.8544 -75.01345,17.7812 -108.07422,17.7812 -50.69337,0 -94.41806,-13.9353 -131.17578,-41.8066 22.61186,7.0663 47.25997,10.5996 73.94531,10.5996 48.92302,0 104.69229,-11.8766 167.30664,-35.627 52.61147,-20.3188 101.86917,-30.4765 147.77344,-30.4765 z"
     sodipodi:nodetypes="ccscccscsccscccsccscscscccsssccscsccccscscsccsccscscsssccssscscsccsccscscsccccscsccscscccscscsccscccscccscscccscccccccscccccsscccccsssccccscsscscccccscccccccczccssscssscsssscscscsccsccssssccssccccscscscccccsccsccscssccssssssscccsccsccscccscccscscsccsccscscscscscscsssccssscscscscs" />
  <metadata
     id="metadata1">
    <rdf:RDF>
      <cc:Work
         rdf:about="">
        <dc:title>S60A</dc:title>
        <dc:creator>
          <cc:Agent>
            <dc:title>S. J. P. THOMAS</dc:title>
          </cc:Agent>
        </dc:creator>
        <dc:description>Fixed by S. Rosmorduc to match Hieroglyphica. In fact, S60 without the sun disk.
----</dc:description>
      </cc:Work>
    </rdf:RDF>
  </metadata>
</svg>
