<?xml version="1.0" encoding ="US-ASCII" standalone="yes"?>
<svg width="23.413958" height="18.24">
<path style="fill:#000000; stroke:none" d=" M 4.650424 9.972577  L 7.406232 9.972577  L 7.360302 9.857753  L 4.650424 9.857753  L 4.650424 9.972577  Z  M 4.650424 10.845249  L 8.141113 10.845249  L 7.980359 10.730424  L 4.650424 10.730424  L 4.650424 10.845249  Z  M 4.696355 1.039169  Q 4.466704 0.809518 4.62746 1.153994  Q 4.696355 1.337715 4.937488 1.705156  Q 5.17862 2.072597 5.546062 2.646724  Q 5.936468 3.22085 6.131671 3.519396  Q 6.326874 3.817941 6.349839 3.863872  Q 6.395769 3.932766 6.303909 4.024627  Q 6.280944 4.047592 6.212049 4.105004  Q 6.143154 4.162417 6.074258 4.231312  Q 6.005363 4.300207 5.94795 4.380585  Q 5.890538 4.460963 5.890538 4.552823  Q 5.867572 4.621718 5.902021 4.725061  Q 5.936468 4.828403 5.993881 4.920264  Q 6.051293 5.012125 6.143154 5.092503  Q 6.235014 5.17288 6.326874 5.21881  Q 6.510595 5.333636 6.923965 5.528838  Q 7.337337 5.724042 7.980359 5.907762  Q 8.646345 6.091482 8.57745 5.781454  Q 8.508555 5.471426 7.819603 4.713579  Q 7.153616 3.955732 6.94693 3.840906  Q 6.786175 3.703116 6.648385 3.772011  Q 6.53356 3.794976 6.028328 2.991199  Q 5.523098 2.164457 4.696355 1.039169  Z  M 5.086761 0.970274  Q 4.903041 0.832483 4.994901 1.039169  Q 5.040831 1.131029 5.213069 1.40661  Q 5.385306 1.682191 5.660887 2.095562  Q 6.257979 2.968234 6.487629 3.197885  Q 6.62542 3.289745 6.269461 2.738583  Q 5.913504 2.187422 5.086761 0.970274  Z  M 4.81118 3.31271  Q 5.201586 3.772011 5.660887 3.932766  Q 6.120189 4.116488 5.982399 3.817941  Q 5.867572 3.542361 4.81118 3.31271  Z  M 0.585609 3.863872  L 0.976015 4.093522  L 4.374844 4.851369  L 4.420774 4.736544  L 0.99898 4.001662  L 0.585609 3.863872  Z  M 6.901001 4.231312  Q 7.337337 4.415033 7.222512 4.552823  Q 7.107687 4.644684 6.878036 4.598753  Q 6.67135 4.552823 6.901001 4.231312  Z  M 0.86119 4.805439  Q 0.264098 4.575788 0.838225 5.012125  L 4.237054 5.540321  L 4.260018 5.494391  L 0.86119 4.805439  Z  M 4.71932 4.828403  L 4.466704 5.907762  Q 4.834146 6.275202 5.017866 5.976656  Q 5.17862 5.701077 5.913504 6.298168  Q 6.051293 5.379565 4.71932 4.828403  Z  M 6.189084 5.471426  L 6.189084 6.160378  L 6.349839 7.056015  L 6.786175 8.365024  L 7.773673 9.926646  L 9.128612 11.442341  L 9.955353 12.039433  L 11.723663 12.820245  L 13.101567 13.187685  L 15.375108 13.256581  Q 16.293711 13.187685 16.959698 13.084343  Q 17.625683 12.981 18.016088 12.866175  Q 18.842834 12.613561 20.105911 11.465305  Q 21.368988 10.317054 22.05794 9.490311  L 22.517242 8.663569  L 22.563171 8.502814  L 22.448347 8.548742  Q 19.23324 11.465305 18.682077 11.442341  Q 18.10795 11.603097 11.884419 11.580132  Q 11.448084 11.580132 10.885439 11.316034  Q 10.322795 11.051935 9.564947 10.500774  Q 9.197506 10.408914 8.864513 10.098886  Q 8.531521 9.788857 8.232975 9.467345  Q 7.658848 8.824325 6.992861 7.699037  Q 6.878036 7.400491 6.786175 7.12491  Q 6.694315 6.849329 6.62542 6.596713  Q 6.53356 6.298168 6.499112 6.12593  Q 6.464664 5.953692 6.4417 5.884797  Q 6.4417 5.747006 6.189084 5.471426  Z  M 0.95305 5.747006  Q 0.424854 5.540321 0.930085 5.953692  L 4.237054 6.298168  L 4.214089 6.206308  L 0.95305 5.747006  Z  M 5.132691 6.160378  L 5.086761 6.390028  L 5.683853 6.458923  Q 5.477167 6.229273 5.132691 6.160378  Z  M 4.696355 6.619679  L 4.67339 6.734504  L 6.028328 6.780434  L 5.982399 6.711539  L 4.696355 6.619679  Z  M 1.412351 6.734504  Q 1.067875 6.642644 1.067875 6.688574  Q 1.067875 6.734504 1.366421 6.895259  L 4.260018 7.07898  L 4.260018 6.987119  L 1.412351 6.734504  Z  M 4.604495 7.03305  L 4.581529 7.12491  L 6.120189 7.12491  L 6.051293 7.056015  L 4.604495 7.03305  Z  M 4.5356 7.377525  L 4.5356 7.469386  L 6.212049 7.469386  L 6.166119 7.423456  L 4.5356 7.377525  Z  M 1.412351 7.584211  Q 1.09084 7.469386 1.021945 7.492351  Q 0.95305 7.515316 1.13677 7.630142  Q 1.504211 7.836827 2.537639 7.836827  L 4.214089 7.836827  L 4.214089 7.744967  L 1.412351 7.584211  Z  M 4.512634 7.744967  L 4.512634 7.836827  L 6.349839 7.836827  L 6.280944 7.767932  L 4.512634 7.744967  Z  M 4.5356 8.135373  L 4.558564 8.250197  L 6.487629 8.250197  L 6.418735 8.135373  L 4.5356 8.135373  Z  M 1.159735 8.502814  L 1.573107 8.709498  L 4.305949 8.709498  L 4.305949 8.525778  L 1.527176 8.525778  L 1.159735 8.502814  Z  M 4.604495 8.525778  L 4.604495 8.709498  L 6.694315 8.709498  L 6.556524 8.525778  L 4.604495 8.525778  Z  M 4.604495 9.008044  L 4.604495 9.168799  L 6.992861 9.168799  L 6.878036 9.008044  L 4.604495 9.008044  Z  M 1.802757 9.467345  Q 1.159735 9.421417 1.825722 9.582172  L 4.351879 9.582172  L 4.351879 9.467345  L 1.802757 9.467345  Z  M 4.62746 9.467345  L 4.62746 9.559207  L 7.222512 9.559207  L 7.153616 9.467345  L 4.62746 9.467345  Z  M 7.612917 10.271123  L 4.650424 10.271123  L 4.650424 10.431879  L 7.750708 10.431879  L 7.612917 10.271123  Z  M 4.374844 10.294088  L 2.353919 10.294088  Q 1.894618 10.225193 1.894618 10.271123  Q 1.894618 10.317054 2.353919 10.454844  L 4.374844 10.454844  L 4.374844 10.294088  Z  M 8.370766 11.143795  L 4.650424 11.143795  L 4.650424 11.281586  L 8.508555 11.281586  L 8.370766 11.143795  Z  M 21.323059 10.730424  L 21.208233 10.845249  Q 21.598642 11.419377 21.989046 11.740887  Q 22.356487 12.062398 22.379452 11.717922  Q 22.379452 11.373446 21.323059 10.730424  Z  M 4.351879 11.281586  L 4.351879 11.166759  L 2.583569 11.166759  Q 2.67543 11.327516 2.85915 11.281586  L 4.351879 11.281586  Z  M 8.761169 11.580132  L 4.67339 11.580132  L 4.67339 11.717922  L 8.944891 11.717922  L 8.761169 11.580132  Z  M 9.266402 11.993504  L 4.696355 11.993504  L 4.696355 12.154259  L 9.473087 12.154259  L 9.266402 11.993504  Z  M 4.397809 12.016469  L 3.203626 12.016469  Q 3.295486 12.062398 3.364381 12.108328  Q 3.433276 12.154259 3.525137 12.177223  L 4.397809 12.177223  L 4.397809 12.016469  Z  M 18.590216 12.912106  L 18.199812 13.118791  L 18.199812 13.738847  L 18.590216 13.738847  L 18.590216 12.912106  Z  M 10.988783 12.820245  L 10.988783 13.738847  L 11.333257 13.738847  L 11.333257 13.003965  L 10.988783 12.820245  Z  M 17.924231 13.210651  L 16.500395 13.486232  L 16.500395 13.738847  L 17.924231 13.738847  L 17.924231 13.210651  Z  M 11.608839 13.095826  L 11.608839 13.738847  L 13.147497 13.738847  L 13.147497 13.509197  L 11.608839 13.095826  Z  M 15.83441 13.555127  L 15.811443 13.738847  L 16.201849 13.738847  L 16.201849 13.509197  L 15.83441 13.555127  Z  M 13.423079 13.532163  L 13.423079 13.738847  L 13.767553 13.738847  L 13.767553 13.555127  L 13.423079 13.532163  Z  M 15.535864 13.555127  L 14.02017 13.555127  L 14.02017 13.738847  L 15.535864 13.738847  L 15.535864 13.555127  Z  M 21.024513 13.486232  Q 20.427422 13.715882 20.037018 13.84219  Q 19.64661 13.968498 19.416956 13.991464  Q 19.210274 14.014429 18.096468 14.025911  Q 16.98266 14.037394 14.961737 14.037394  Q 10.919886 14.014429 10.368725 14.060359  Q 9.840528 14.083323 9.289368 14.381868  Q 8.761169 14.680414 8.57745 15.047856  Q 8.393731 15.415297 8.301868 15.874598  Q 8.210009 16.333899 8.210009 16.999886  L 8.416695 16.999886  Q 8.531521 15.438262 8.875996 15.001925  Q 9.243437 14.565589 9.702738 14.404834  Q 10.162039 14.244079 11.218431 14.244079  Q 11.769593 14.267044 12.550405 14.267044  Q 13.354182 14.267044 14.456506 14.267044  L 18.10795 14.267044  Q 19.577713 14.267044 20.473352 13.991464  Q 21.346024 13.669952 21.024513 13.486232  Z  M 15.535864 14.542624  L 14.0661 14.542624  L 14.0661 15.966458  L 14.29575 16.356863  L 14.29575 16.999886  L 15.352142 16.999886  L 15.352142 16.356863  L 15.535864 15.966458  L 15.535864 14.542624  Z  M 16.201849 14.542624  L 15.811443 14.542624  L 15.811443 16.058319  L 15.650688 16.356863  L 15.650688 16.999886  L 16.33964 16.999886  L 16.33964 16.356863  L 16.201849 16.058319  L 16.201849 14.542624  Z  M 16.500395 14.542624  L 16.500395 15.966458  L 16.638187 16.356863  L 16.638187 16.999886  L 17.763475 16.999886  L 17.763475 16.333899  L 17.924231 15.966458  L 17.924231 14.542624  L 16.500395 14.542624  Z  M 10.713201 14.542624  Q 10.001284 14.519658 9.610879 14.74931  Q 9.266402 14.955995 9.036751 15.392331  Q 8.807101 15.828669 8.71524 16.999886  L 10.506516 16.999886  L 10.506516 16.356863  L 10.713201 15.966458  L 10.713201 14.542624  Z  M 10.988783 14.519658  L 10.988783 16.058319  L 10.805061 16.356863  L 10.805061 16.999886  L 11.562908 16.999886  L 11.562908 16.356863  L 11.333257 16.058319  L 11.333257 14.542624  L 10.988783 14.519658  Z  M 13.446043 14.542624  L 13.446043 16.058319  L 13.216393 16.356863  L 13.216393 16.999886  L 14.02017 16.999886  L 14.02017 16.356863  L 13.767553 16.058319  L 13.767553 14.542624  L 13.446043 14.542624  Z  M 11.631804 14.542624  L 11.631804 15.966458  L 11.838489 16.356863  L 11.838489 16.999886  L 12.917847 16.999886  L 12.917847 16.356863  L 13.170462 15.966458  L 13.170462 14.542624  L 11.631804 14.542624  Z  M 18.222775 14.542624  L 18.222775 16.058319  L 18.062019 16.356863  L 18.062019 16.999886  L 18.773935 16.999886  L 18.773935 16.356863  L 18.590216 16.058319  L 18.590216 14.542624  L 18.222775 14.542624  Z  M 5.913504 15.599016  Q 5.614957 15.805703 6.189084 16.678375  Q 6.740245 17.528084 8.072218 17.941452  L 21.024513 17.941452  L 21.024513 17.298431  L 7.888498 17.298431  Q 7.475127 17.02285 6.981379 16.597998  Q 6.487629 16.173143 5.913504 15.599016  Z  M 21.989046 9.949612  L 21.828291 10.133332  Q 22.379452 10.66153 22.723927 10.89118  Q 23.091366 11.097866 23.091366 10.799321  Q 23.114334 10.500774 21.989046 9.949612  Z  M 11.608839 2.348178  Q 11.700698 2.463003 11.700698 2.577828  Q 11.677732 2.761549 11.471047 2.761549  Q 11.333257 2.692653 11.333257 2.531898  L 11.379187 2.417073  L 11.080642 2.577828  Q 11.172502 2.577828 11.379187 3.40457  L 11.379187 3.4505  Q 11.310292 3.772011 11.310292 4.001662  L 11.333257 4.483928  L 11.356221 4.483928  Q 11.425118 4.185383 11.838489 3.749046  Q 12.114068 3.473465 12.34372 3.40457  L 11.861454 4.116488  Q 11.608839 4.460963 11.608839 4.690614  Q 11.792559 5.333636 12.848951 6.137412  Q 13.859414 6.826364 14.984702 7.308631  Q 15.283248 7.469386 17.051556 8.342059  L 17.051556 8.319094  Q 16.385571 7.469386 15.076563 5.609216  L 13.83645 4.024627  Q 13.377148 3.542361 13.124533 3.519396  Q 13.055636 3.473465 12.917847 2.968234  Q 12.711161 3.17492 12.366685 3.22085  L 11.861454 3.17492  Q 11.861454 3.128989 12.34372 3.014164  Q 12.596335 2.853409 12.596335 2.577828  Q 12.205931 2.325212 11.769593 2.325212  L 11.608839 2.348178  Z  M 12.137033 6.229273  Q 12.619301 7.951653 12.596335 8.80136  L 12.619301 8.80136  Q 12.780056 8.80136 13.216393 9.237696  Q 13.331218 9.076941 13.514937 9.008044  Q 12.43558 7.469386 12.29779 6.573749  Q 12.205931 6.229273 12.137033 6.229273  Z  M 12.642266 6.665609  L 12.642266 6.688574  Q 12.780056 7.285665 13.101567 7.813862  L 13.790519 8.870254  L 14.502436 9.237696  L 14.525401 9.237696  L 14.502436 9.191766  L 14.502436 7.882757  Q 13.469007 7.308631 12.642266 6.665609  Z  M 13.560868 6.94119  L 13.560868 6.964154  Q 15.260283 8.020548 15.857375 8.502814  L 17.970161 10.753389  L 19.026552 10.569668  L 19.026552 10.546703  Q 18.268705 9.765891 17.464928 8.847289  Q 17.418997 8.847289 14.134995 7.239736  L 13.560868 6.94119  Z  M 12.825987 9.283626  L 12.412616 10.799321  Q 12.894881 10.799321 13.652728 10.822285  L 13.583834 9.329555  L 13.193426 9.605137  L 12.848951 9.283626  L 12.825987 9.283626  Z  M 11.402153 11.258621  Q 10.805061 10.89118 11.241397 10.914145  L 11.976278 10.776355  L 12.481511 9.053975  Q 12.29779 9.008044 12.29779 8.893219  Q 12.320755 7.882757 11.654767 5.701077  Q 11.011747 4.897299 11.011747 4.024627  Q 11.011747 3.703116 11.080642 3.4505  Q 10.942851 2.830444 10.805061 2.830444  L 10.48355 2.830444  L 10.48355 2.807479  L 10.48355 2.807479  Q 10.48355 2.600793 10.828027 2.325212  Q 11.011747 2.233352 11.103607 2.187422  Q 11.516977 1.957771 12.033691 1.980736  Q 12.550405 2.003702 12.871917 2.417073  Q 13.032671 2.485968 13.216393 2.876374  Q 13.308252 3.289745 13.377148 3.289745  Q 13.767553 3.40457 14.20389 3.978697  Q 14.640227 4.552823 14.869876 4.851369  Q 15.650688 5.838866 16.867836 7.584211  L 19.485853 9.513276  Q 19.485853 9.628101 19.3251 9.651067  L 19.049517 9.559207  Q 19.623644 9.949612 19.899223 10.225193  L 19.876261 10.225193  Q 19.371027 10.018509 18.360569 9.398452  L 19.485853 10.569668  L 19.485853 10.66153  Q 19.485853 10.845249 19.049517 10.868215  L 17.855331 11.051935  Q 17.832369 11.051935 16.247782 9.35252  Q 15.535864 8.548742 14.892841 8.112408  Q 14.778016 8.847289 14.892841 9.880718  L 14.318715 9.421417  L 13.997204 9.260661  L 14.02017 10.776355  L 14.525401 10.845249  Q 14.892841 10.914145 15.15694 10.856733  Q 15.421039 10.799321 15.466969 11.258621  Q 17.671614 11.258621 18.314636 11.166759  Q 19.049517 11.258621 20.404457 10.018509  L 19.187309 9.008044  L 19.393993 8.80136  L 20.634108 9.834787  L 21.093407 9.444381  L 19.853292 8.387988  L 20.037018 8.204268  L 21.300093 9.237696  L 22.402418 8.319094  Q 22.838755 8.066478 22.884682 8.433918  Q 22.700962 8.778396 22.574656 9.03101  Q 22.448347 9.283626 22.379452 9.421417  L 22.149801 9.719962  Q 23.711428 10.408914 23.343985 11.051935  Q 22.953579 11.694958 21.644569 10.362983  L 21.529741 10.500774  Q 23.022472 11.419377 22.563171 12.039433  Q 22.126835 12.636525 21.024513 11.074901  Q 20.082947 11.993504 18.842834 12.843209  L 18.842834 13.761811  Q 19.876261 13.738847 20.611139 13.417337  Q 21.391954 13.072862 21.460848 13.486232  Q 21.506779 13.876638 20.703001 14.198148  Q 20.289629 14.358904 19.84181 14.439282  Q 19.393993 14.519658 18.888762 14.542624  L 18.888762 15.966458  L 19.072483 16.379829  L 19.072483 16.999886  L 21.323059 16.999886  L 21.323059 18.24  Q 8.531521 18.24 8.095183 18.194069  Q 7.704777 18.194069 6.94693 17.73477  Q 6.189084 17.298431 5.729783 16.42576  Q 5.293447 15.576052 5.660887 15.392331  Q 6.028328 15.231577 6.71728 15.966458  Q 7.452162 16.701342 7.911464 16.976923  Q 7.911464 15.920527 8.164079 15.208611  Q 8.393731 14.496695 9.128612 14.129253  Q 9.519016 13.945533 9.909424 13.84219  Q 10.299829 13.738847 10.75913 13.738847  L 10.75913 12.70542  L 10.162039 12.544663  L 8.89896 12.452805  L 4.696355 12.452805  L 4.5356 14.014429  L 4.237054 14.014429  L 4.374844 12.47577  L 3.341416 12.47577  Q 1.825722 11.740887 3.019906 11.740887  L 4.374844 11.740887  L 4.374844 11.580132  L 2.629499 11.580132  Q 1.527176 10.845249 2.032408 10.868215  Q 2.285023 10.868215 2.514674 10.879698  Q 2.744324 10.89118 2.95101 10.868215  L 4.374844 10.868215  L 4.374844 10.753389  L 2.698395 10.753389  Q 2.009443 10.707458 1.458281 10.340019  Q 0.884155 9.972577 1.917583 10.018509  L 4.374844 10.018509  L 4.374844 9.880718  L 1.733862 9.880718  Q 0.172238 8.985081 1.619037 9.168799  L 4.328913 9.168799  L 4.328913 9.008044  L 1.550142 9.008044  Q 0.034448 8.043512 1.458281 8.250197  L 4.282984 8.250197  L 4.260018 8.135373  L 1.963513 8.135373  Q 1.619037 8.135373 1.182701 7.997582  Q 0.057413 7.07898 1.343456 7.308631  L 4.237054 7.469386  L 4.260018 7.377525  L 1.550142 7.21677  Q 1.205666 7.17084 0.677469 6.734504  Q 0.149273 6.275202 1.205666 6.435958  L 4.260018 6.711539  L 4.260018 6.619679  L 0.930085 6.252238  Q -0.310028 5.21881 0.95305 5.471426  L 4.191123 5.930727  L 4.214089 5.861832  L 0.746364 5.31067  Q -0.378924 4.277243 0.838225 4.506893  L 4.328913 5.21881  L 4.351879 5.149915  L 0.838225 4.392068  Q -0.90712 3.197885 0.976015 3.703116  Q 2.99694 4.139452 3.984438 4.35762  Q 4.971935 4.575788 4.94897 4.552823  Q 4.926006 4.529858 5.040831 4.346138  Q 5.17862 4.162417 5.316411 4.483928  Q 5.454202 4.805439 5.523098 4.713579  Q 5.569027 4.667648 5.660887 4.437998  Q 5.729783 4.231312 5.362342 4.070557  Q 4.994901 3.909802 4.67339 3.565326  Q 4.374844 3.22085 4.386327 3.140472  Q 4.397809 3.060094 4.71932 3.060094  Q 5.017866 3.060094 5.408271 3.243814  Q 5.821643 3.40457 4.81118 1.934806  Q 3.800717 0.442077 3.823683 0.350217  Q 3.846648 0.258357 4.282984 0.533938  Q 4.742285 0.786553 4.558564 0.510973  Q 4.374844 0.212427 4.351879 0.074636  Q 4.328913 -0.086119 4.558564 0.097602  Q 4.788215 0.281322 5.408271 0.993239  Q 6.005363 1.705156 6.510595 2.554863  Q 6.786175 2.968234 6.94693 3.22085  Q 7.107687 3.473465 7.176581 3.565326  Q 7.245476 3.634221 7.452162 3.875354  Q 7.658848 4.116488 7.980359 4.506893  Q 8.669311 5.31067 8.784136 5.609216  Q 8.875996 5.930727 8.784136 6.045552  Q 8.692276 6.183342 8.508555 6.229273  Q 8.301868 6.275202 7.635882 6.091482  Q 7.291407 5.999622 7.084721 5.930727  Q 6.878036 5.861832 6.809141 5.815902  Q 6.67135 5.724042 6.94693 6.711539  Q 7.245476 7.676071 7.658848 8.273163  Q 8.049253 8.847289 8.62338 9.467345  Q 8.921926 9.742927 9.243437 9.93813  Q 9.564947 10.133332 9.909424 10.408914  Q 10.690236 10.914145 11.402153 11.258621  Z "/></svg>
