<?xml version="1.0" standalone="no"?>
<!DOCTYPE svg PUBLIC "-//W3C//DTD SVG 1.1//EN" "http://www.w3.org/Graphics/SVG/1.1/DTD/svg11.dtd" >
<svg xmlns="http://www.w3.org/2000/svg" xmlns:xlink="http://www.w3.org/1999/xlink" version="1.1" viewBox="-76 0 708 1000">
   <path fill="currentColor"
d="M0 363q84 -58 175 -58q70 0 121.5 30t75 68.5t23.5 96.5t-34 110l126 124v-494h-553v-65h688v65h-70v601h-49l-185 -181q-84 78 -169 78q-58 0 -101 -36t-43 -88.5t41 -85t99 -32.5q85 0 167 69q18 -33 18 -73.5t-27 -70.5q-47 -50 -123.5 -50t-142.5 46zM271 615
q-65 -54 -117.5 -54t-73.5 25q-10 12 -10 30.5t22 37.5t57 19q58 0 122 -58z" />
</svg>
