<?xml version="1.0" standalone="no"?>
<!DOCTYPE svg PUBLIC "-//W3C//DTD SVG 1.1//EN" "http://www.w3.org/Graphics/SVG/1.1/DTD/svg11.dtd" >
<svg xmlns="http://www.w3.org/2000/svg" xmlns:xlink="http://www.w3.org/1999/xlink" version="1.1" viewBox="-605 0 1210 1000">
   <path fill="currentColor"
d="M-69 148q13 -49 34.5 -106.5t43.5 -106.5h61q-13 53 -25 114t-19 108h-88zM-320 323q-25 -44 -50.5 -99t-45.5 -106l43 -44q29 46 63.5 98t62.5 90l-62 63zM282 297l-62 -62l1 -10q44 -26 99.5 -52t105.5 -45l45 43q-47 29 -99 63.5t-90 62.5zM-382 600
q-49 -13 -106 -34.5t-107 -43.5v-61q53 13 114.5 25t107.5 19v89zM595 600q-53 -13 -114 -25t-108 -19v-88l9 -7q49 13 106.5 34t106.5 44v61zM372 1015q-29 -47 -63.5 -99t-62.5 -90l62 -62l10 1q26 44 52 99.5t45 106.5zM-471 916q47 -29 99 -63.5t90 -62.5l62 62l-1 11
q-43 25 -99 50.5t-106 45.5zM-69 1125q13 -53 25 -114.5t19 -107.5h89l6 9q-13 49 -34 106t-44 107h-61z" />
</svg>
