<?xml version="1.0" standalone="no"?>
<!DOCTYPE svg PUBLIC "-//W3C//DTD SVG 1.1//EN" "http://www.w3.org/Graphics/SVG/1.1/DTD/svg11.dtd" >
<svg xmlns="http://www.w3.org/2000/svg" xmlns:xlink="http://www.w3.org/1999/xlink" version="1.1" viewBox="-10 0 567 1000">
   <path fill="currentColor"
d="M278 809c-14 0 -35 -7 -35 -20c0 -4 3 -18 5 -31c2 -11 4 -21 4 -23c0 -6 -2 -13 -5 -22c-4 -11 -9 -24 -9 -38c0 -7 6 -16 11 -24c4 -6 7 -11 7 -15c0 -9 -3 -18 -8 -28s-10 -21 -10 -33c0 -9 7 -18 14 -27c5 -7 9 -13 9 -17c0 -3 -7 -22 -11 -42l-3 -12h-6
c-19 0 -29 6 -29 17c0 7 2 15 2 23c0 6 1 12 1 16c0 18 -17 27 -30 34c-8 4 -15 8 -17 13c-3 8 -4 21 -6 32c-4 22 -9 34 -21 51c-7 10 -14 19 -14 28c0 12 3 22 5 33c3 14 7 29 7 50c0 23 -28 36 -49 36s-40 -9 -40 -24c0 -14 11 -21 19 -24c6 -2 10 -5 10 -8
c0 -6 -2 -18 -5 -31c-3 -15 -6 -31 -6 -40c0 -11 6 -17 14 -25c11 -11 24 -23 24 -59c0 -45 19 -56 34 -63c9 -4 16 -8 16 -17c0 -6 -1 -12 -2 -18c-1 -7 -2 -13 -2 -20c0 -19 24 -35 53 -35v-2c-30 0 -53 -23 -53 -41c0 -7 1 -15 2 -23c1 -6 2 -11 2 -15
c0 -9 -12 -13 -25 -18c-18 -7 -38 -15 -38 -35c0 -5 3 -24 6 -40c2 -12 4 -22 4 -24c0 -7 -4 -11 -13 -17c-11 -7 -19 -17 -19 -28c0 -12 9 -39 17 -55c4 -8 6 -14 6 -15c0 -3 -4 -4 -10 -8c-9 -6 -22 -13 -22 -26c0 -14 19 -24 40 -24c22 0 49 13 49 36c0 20 -6 36 -12 50
c-5 11 -9 22 -9 33c0 8 7 18 14 27c8 11 16 21 16 31c0 2 -1 9 -3 16c-3 12 -6 28 -6 37c0 5 10 9 22 13c18 6 42 13 42 34c0 8 -2 16 -2 23s-1 13 -1 20c0 9 10 14 27 14h9c5 -20 9 -43 9 -50c0 -6 -4 -14 -8 -22c-6 -11 -12 -23 -12 -34c0 -12 6 -20 10 -29s9 -17 9 -28
c0 -9 -3 -14 -6 -18c-3 -5 -7 -11 -7 -24c0 -14 6 -26 11 -36c4 -8 7 -14 7 -18c0 -3 -3 -11 -7 -21c-5 -12 -11 -27 -11 -36c0 -13 11 -26 26 -26c23 0 49 37 49 62c0 15 -5 27 -9 38c-3 9 -6 16 -6 24c0 10 3 18 6 26c3 9 7 20 7 38c0 13 -10 22 -17 31c-4 5 -8 9 -8 13
c0 5 3 13 7 23c5 13 12 30 12 43c0 12 -1 29 -3 44h9c25 0 27 -11 27 -25c0 -7 -2 -24 -2 -32c0 -20 19 -28 34 -34c10 -4 18 -7 18 -13c0 -66 9 -77 18 -84c6 -5 10 -9 10 -27c0 -12 -4 -23 -7 -35c-4 -14 -8 -29 -8 -48c0 -23 28 -36 49 -36c22 0 40 10 40 24
c0 13 -10 17 -18 22c-5 3 -10 5 -10 10c0 4 1 12 4 22c4 15 9 34 9 50c0 9 -4 20 -20 34c-7 6 -8 16 -8 33v34c0 27 -17 35 -31 42c-11 6 -21 10 -21 22c0 6 3 28 3 35c0 20 -27 41 -54 41v2c29 0 53 16 53 35c0 7 -1 17 -2 24c-1 6 -2 11 -2 14c0 11 10 15 22 18
c18 5 40 12 40 49c0 6 0 12 -1 18c-1 4 -1 8 -1 11c0 16 10 29 19 40c7 9 14 17 14 27c0 14 -6 31 -9 45c-2 10 -5 19 -5 25c0 3 4 5 9 8c9 5 21 13 21 26c0 15 -19 24 -40 24s-47 -13 -47 -36c0 -19 4 -35 8 -50c3 -12 6 -23 6 -33c0 -9 -4 -17 -19 -30
c-10 -9 -17 -18 -17 -28s2 -20 2 -29c0 -7 1 -13 1 -18c0 -12 -12 -15 -26 -20c-17 -6 -35 -12 -35 -33c0 -4 0 -10 1 -16c1 -8 2 -16 2 -23c0 -13 -10 -17 -31 -17h-4c0 3 1 6 1 9c2 18 5 35 5 39c0 15 -6 23 -12 31c-5 7 -10 14 -10 23c0 4 5 9 9 15c6 9 15 20 15 33
c0 17 -4 27 -10 37c-4 7 -8 15 -8 24c0 11 4 19 7 28c4 11 8 23 8 40c0 23 -20 53 -35 53z" />
</svg>
