<?xml version="1.0" standalone="no"?>
<!DOCTYPE svg PUBLIC "-//W3C//DTD SVG 1.1//EN" "http://www.w3.org/Graphics/SVG/1.1/DTD/svg11.dtd" >
<svg xmlns="http://www.w3.org/2000/svg" xmlns:xlink="http://www.w3.org/1999/xlink" version="1.1" viewBox="-10 0 585 1000">
   <path fill="currentColor"
d="M38 993q68 0 111.5 -26t70.5 -70.5t43 -100.5l-185 -437q-13 -31 -27.5 -42t-43.5 -11h-3v-42h240v42h-3q-60 0 -60 48q0 17 8 37l73 178q10 23 19.5 50.5t17.5 52.5t11 42q7 -29 18.5 -60t21.5 -61l67 -195q9 -24 9 -43q0 -49 -66 -49h-3v-42h208v42h-3q-29 0 -44 15
t-32 63l-152 420q-26 73 -50 119t-53.5 71.5t-73.5 35.5t-110 10h-9v-47z" />
</svg>
