<?xml version="1.0" standalone="no"?>
<!DOCTYPE svg PUBLIC "-//W3C//DTD SVG 1.1//EN" "http://www.w3.org/Graphics/SVG/1.1/DTD/svg11.dtd" >
<svg xmlns="http://www.w3.org/2000/svg" xmlns:xlink="http://www.w3.org/1999/xlink" version="1.1" viewBox="-10 0 640 1000">
   <path fill="currentColor"
d="M513 893q-40 -138 -77 -232.5t-72 -155.5q-38 44 -72.5 60.5t-67.5 16.5q-37 0 -66.5 -19.5t-46 -52t-16.5 -70.5t16.5 -70.5t46 -52t66.5 -19.5q33 0 67.5 16.5t72.5 60.5q35 -61 72 -155.5t77 -232.5l22 21q-18 154 -51 259.5t-73 172.5q40 67 73 172.5t51 259.5z
M224 508q17 0 44 -17t53 -51q-24 -32 -50.5 -50t-45.5 -18t-31 11.5t-18 27.5t-6 29q0 12 5.5 28t17.5 28t31 12z" />
</svg>
