<?xml version="1.0" standalone="no"?>
<!DOCTYPE svg PUBLIC "-//W3C//DTD SVG 1.1//EN" "http://www.w3.org/Graphics/SVG/1.1/DTD/svg11.dtd" >
<svg xmlns="http://www.w3.org/2000/svg" xmlns:xlink="http://www.w3.org/1999/xlink" version="1.1" viewBox="-10 0 640 1000">
   <path fill="currentColor"
d="M125 237q77 -1 136 16.5t99 43t60 50.5q33 39 42 83.5t-4 83.5t-45 64t-82 25q-53 0 -82 -19.5t-42 -51t-18 -69.5t-9.5 -75.5t-16 -69.5t-38.5 -50v-31zM197 284q25 23 35.5 54.5t16 64.5t12 61.5t22.5 46t48 17.5q29 0 45 -22t14.5 -54.5t-25.5 -63.5q-11 -15 -30 -33
t-51.5 -37t-86.5 -34z" />
</svg>
