<?xml version="1.0" encoding="UTF-8" standalone="no"?>
<svg
   viewBox="0 0 36 36"
   version="1.1"
   id="svg3"
   sodipodi:docname="1f1fc-1f1f8.svg"
   inkscape:version="1.3.2 (091e20e, 2023-11-25, custom)"
   xmlns:inkscape="http://www.inkscape.org/namespaces/inkscape"
   xmlns:sodipodi="http://sodipodi.sourceforge.net/DTD/sodipodi-0.dtd"
   xmlns="http://www.w3.org/2000/svg"
   xmlns:svg="http://www.w3.org/2000/svg">
  <defs
     id="defs3" />
  <sodipodi:namedview
     id="namedview3"
     pagecolor="#ffffff"
     bordercolor="#666666"
     borderopacity="1.0"
     inkscape:showpageshadow="2"
     inkscape:pageopacity="0.0"
     inkscape:pagecheckerboard="0"
     inkscape:deskcolor="#d1d1d1"
     inkscape:zoom="21.694444"
     inkscape:cx="18"
     inkscape:cy="18"
     inkscape:window-width="1680"
     inkscape:window-height="998"
     inkscape:window-x="-8"
     inkscape:window-y="-8"
     inkscape:window-maximized="1"
     inkscape:current-layer="svg3" />
  <path
     d="M 32,5 H 19 L 0,18 v 9 c 0,2.21 1.79,4 4,4 h 28 c 2.21,0 4,-1.79 4,-4 V 9 C 36,6.79 34.21,5 32,5 Z"
     fill="#ce1126"
     id="path1"
     sodipodi:nodetypes="sccssssss" />
  <path
     d="m19 5h-15c-2.21 0-4 1.79-4 4v9h19zm-9.92 1.59.34-1.05.34 1.05h1.1l-.89.65.34 1.05-.89-.65-.89.65.34-1.05-.89-.65zm-2.74 4.95-.89-.65-.89.65.34-1.05-.89-.65h1.1l.34-1.05.34 1.05h1.1l-.89.65zm4.2 5.92-1.12-.81-1.12.81.43-1.31-1.12-.81h1.38l.43-1.31.43 1.31h1.38l-1.12.81zm1.43-4.15-.56-.41-.56.41.21-.66-.56-.41h.69l.21-.66.21.66h.69l-.56.41zm2.36-2.48-.84-.61-.84.61.32-.98-.84-.61h1.03l.32-.98.32.98h1.03l-.84.61z"
     fill="#002b7f"
     id="path2" />
  <path
     d="m8.52 8.29.89-.65.89.65-.34-1.05.89-.65h-1.1l-.34-1.05-.34 1.05h-1.1l.89.65zm-2.74 1.55-.34-1.05-.34 1.05h-1.1l.89.65-.34 1.05.89-.65.89.65-.34-1.05.89-.65zm8.01-.61-.32-.98-.32.98h-1.03l.84.61-.32.98.84-.61.84.61-.32-.98.84-.61zm-2.18 3.01-.21-.66-.21.66h-.69l.56.41-.21.66.56-.41.56.41-.21-.66.56-.41zm-1.77 3.09-.43-1.31-.43 1.31h-1.38l1.12.81-.43 1.31 1.12-.81 1.12.81-.43-1.31 1.12-.81z"
     fill="#fff"
     id="path3" />
</svg>
