<?xml version="1.0" encoding="UTF-8" standalone="no"?>
<svg
   width="1250"
   height="1000"
   version="1.1"
   id="svg1"
   sodipodi:docname="13A66.svg"
   inkscape:version="1.4.2 (f4327f4, 2025-05-13)"
   xmlns:inkscape="http://www.inkscape.org/namespaces/inkscape"
   xmlns:sodipodi="http://sodipodi.sourceforge.net/DTD/sodipodi-0.dtd"
   xmlns="http://www.w3.org/2000/svg"
   xmlns:svg="http://www.w3.org/2000/svg">
  <defs
     id="defs1" />
  <sodipodi:namedview
     id="namedview1"
     pagecolor="#ffffff"
     bordercolor="#666666"
     borderopacity="1.0"
     inkscape:showpageshadow="2"
     inkscape:pageopacity="0.0"
     inkscape:pagecheckerboard="0"
     inkscape:deskcolor="#d1d1d1"
     inkscape:zoom="0.3775"
     inkscape:cx="427.81457"
     inkscape:cy="700.66225"
     inkscape:window-width="1680"
     inkscape:window-height="998"
     inkscape:window-x="-8"
     inkscape:window-y="-8"
     inkscape:window-maximized="1"
     inkscape:current-layer="svg1" />
  <path
     style="fill:#000000;stroke:none;stroke-width:1"
     d="m 198.39059,338.56603 q 5.7767,6.73946 2.88838,18.29293 -2.88838,11.55341 -12.51622,12.03479 -9.6279,0.48143 -3.85114,-8.18365 5.7767,-8.66509 -0.48144,-7.2209 -6.25808,1.44419 -9.62784,11.55341 -3.36976,10.10928 0.48138,18.77437 l 7.70227,2.88832 q 32.73473,-22.14407 32.73473,-17.33012 0,5.77671 -5.29528,6.25809 -5.29532,0.48138 -20.69993,15.88598 l 9.62785,3.85114 29.84639,-16.36736 37.54867,6.73951 q 14.4418,3.85114 36.58586,-27.92082 l 10.59066,8.66508 q -1.92557,7.70228 -19.25574,32.73472 20.2185,70.2834 51.02765,136.23422 30.80915,65.95088 110.72039,121.79243 -66.4322,-80.874 -51.99041,-130.93889 l 17.33012,4.81395 q -10.59065,42.36262 29.84634,86.65075 7.70233,1.92541 40.43706,54.87874 32.73472,52.95328 30.32777,36.10454 -2.407,-16.8488 -2.407,-71.72759 l 10.59065,1.9254 13.47899,33.69748 q 84.72518,9.6279 148.75044,-3.8508 64.02531,-13.47904 137.19703,-20.21856 l -0.96298,-25.03239 h 17.33017 q 3.85136,73.17172 20.69994,103.98088 16.84873,30.80915 55.84154,50.54621 38.99286,19.73712 15.88598,-4.81378 -23.10687,-24.55101 -21.66268,-56.32292 1.44391,-31.77197 18.29293,-54.87885 16.84879,-23.10688 28.4022,-66.4322 11.55364,-43.32566 -27.9206,-73.17205 -39.4743,-29.84629 -109.75764,-30.32772 -70.28339,-0.48138 -214.70127,22.6255 -144.41792,23.10688 -192.55719,-66.91364 -48.13933,-90.02051 -61.13693,-116.97853 -12.99761,-26.95796 -36.58586,-39.47419 -23.58826,-12.51628 -46.21376,-4.81395 -22.62545,7.70228 -28.40221,27.92078 -22.14407,4.81395 -48.13927,24.06969 z M 303.33427,326.0498 q -20.21849,-4.81394 -30.80915,-3.36975 -10.59065,1.44419 -14.44179,-5.29533 -3.85114,-6.73952 7.70227,-17.33018 8.66509,0.96282 18.77431,3.8512 10.10928,2.88832 18.77436,22.14406 z m 496.79755,341.78902 q 0.96298,80.87405 27.92083,130.45752 26.95802,49.58351 15.88598,-12.99761 Q 832.8666,722.71767 828.05265,664.9505 Z m -61.61825,305.20316 -13.47904,15.40461 q 42.36262,0.96298 42.36262,-6.73952 z m -451.54666,14.4418 h 26.95802 q 15.40455,-3.85136 15.40455,-14.4418 l -27.92077,-7.70233 q -4.81395,0 -14.4418,22.14413 z m 620.03422,1.9254 q 48.13927,1.9254 51.02765,-16.36742 h -36.58591 q -8.66503,8.66509 -14.44174,16.36742 z m -323.49614,-19.25552 -10.59066,18.29293 q 36.58586,0.96298 39.47424,-15.40461 z M 360.13863,293.31503 q 31.77191,-22.14407 54.39741,-30.32772 22.62545,-8.18366 34.17892,-51.50909 -30.80916,8.66509 -45.25095,30.32778 -14.44179,21.66268 -36.58586,27.92082 -22.14407,6.25809 -6.73952,23.58821 z m 15.40461,10.59071 q 16.3673,37.54861 60.17412,123.23661 43.80675,85.68795 183.41073,64.50664 139.60392,-21.18126 227.21749,-19.25575 73.17172,1.92563 94.35303,16.36737 55.8416,7.70233 103.01819,-58.72993 1.9254,37.54867 -15.4047,58.72993 -17.3301,21.18131 -63.5438,28.88358 25.03239,35.62311 24.06958,68.83921 -0.96298,33.21615 -26.95796,69.80201 -25.9952,36.58586 -25.9952,66.43226 2.88838,32.73472 25.9952,39.95556 23.10688,7.2209 20.69988,19.25575 -2.40689,12.03479 -5.29527,76.0601 -2.88838,64.02525 8.66508,90.02046 11.55347,25.99526 -13.47898,21.18136 Q 982.09848,1000 953.21495,1000 h -76.06016 q 23.10688,-30.8091 50.0649,-51.99046 15.40454,-18.29293 14.44179,-78.94843 -0.96298,-60.6555 -29.8464,-70.28339 -28.88353,-9.62785 -50.0649,-25.99521 0,25.03239 14.44185,74.13453 -14.44185,20.2185 -48.13932,58.2485 -33.69754,38.0301 -30.80916,59.69279 2.88838,21.66269 -19.25574,14.92317 V 1000 h -76.06016 q 12.51623,-28.88353 46.21376,-59.69274 40.437,-37.54867 74.13453,-96.2786 -48.13927,-89.53908 -41.39981,-171.37594 -17.33011,1.9254 -80.87399,17.33017 -63.54388,15.40461 -153.08301,7.70233 10.59065,54.87874 21.66269,68.35777 11.07203,13.47904 12.03479,28.88359 0.96281,15.40455 24.55107,76.0601 23.58825,60.65555 38.51142,76.06004 14.92323,15.40466 -11.07203,16.36748 Q 629.71874,1000 610.463,1000 h -61.61831 q 14.4418,-31.77191 38.51143,-59.69274 -9.62784,-50.06489 -25.03239,-87.13213 -15.4046,-37.06724 -25.99526,-44.28814 -10.5906,-7.22089 -10.5906,-22.6255 0,-15.40455 -58.72998,-103.98087 l -22.14407,-7.70228 q -26.95802,68.35777 -28.40221,84.24376 -1.44419,15.88598 -10.10927,30.80915 -8.66503,14.92317 -24.55102,71.24621 -15.88598,56.32298 -13.96041,87.13208 1.92557,30.80915 -22.14407,20.21855 Q 343.77127,1000 325.47834,1000 H 260.0089 q 28.88358,-46.21376 41.39981,-51.02765 27.92077,-26.95802 48.13927,-91.46465 20.2185,-64.50669 18.29293,-76.54148 -1.92557,-12.03485 6.73952,-26.47664 8.66508,-14.44179 4.81395,-113.60877 -27.92083,-36.58586 -60.17412,-103.98088 -32.25335,-67.39501 -54.39741,-133.82727 -29.8464,-10.59065 -45.73238,-0.48138 -15.88593,10.10928 -22.62545,7.70228 -6.73952,-2.40695 -14.44179,-2.88833 -7.70228,-0.48143 -17.33018,-10.10927 -14.44179,-5.77671 -12.03479,-14.4418 2.40695,-8.66508 6.25809,-29.36496 3.85114,-20.69988 25.03245,-27.4394 l 49.10208,-29.84639 q 4.81395,-19.25569 25.03245,-25.03245 -15.40461,-114.57153 51.99041,-173.782836 67.39507,-59.211361 64.50669,-82.31824 -0.96276,-10.5906555 4.33257,-12.5162242 5.29527,-1.92556863 6.25808,9.6278992 5.77671,32.734722 -54.87879,94.834411 -60.65555,62.09968 -46.21376,156.45271 h 24.06964 Q 292.74362,154.67386 360.62001,95.462556 428.49646,36.251195 424.64532,13.144315 423.68251,1.5909033 428.97784,0.14671291 q 5.29533,-1.44419041 6.25808,11.07203409 4.81395,32.734722 -54.87879,94.353033 -59.69274,61.61831 -46.2137,161.74804 h 0.96276 q 42.36262,-14.44179 59.69273,-42.84394 17.33018,-28.40221 71.24616,-29.36497 l -6.73947,27.92078 q -11.55341,46.21376 -35.6231,52.95322 -24.06964,6.73952 -48.13927,27.92083 z"
     id="path1" />
</svg>
