<?xml version="1.0" encoding="UTF-8" standalone="no"?>
<!-- Generator: Adobe Illustrator 24.1.2, SVG Export Plug-In . SVG Version: 6.00 Build 0)  -->

<svg
   version="1.1"
   id="Layer_1"
   x="0px"
   y="0px"
   viewBox="0 0 128 128"
   style="enable-background:new 0 0 128 128;"
   xml:space="preserve"
   sodipodi:docname="emoji_u1faeb.svg"
   inkscape:version="1.4.3 (0d15f75, 2025-12-25)"
   xmlns:inkscape="http://www.inkscape.org/namespaces/inkscape"
   xmlns:sodipodi="http://sodipodi.sourceforge.net/DTD/sodipodi-0.dtd"
   xmlns="http://www.w3.org/2000/svg"
   xmlns:svg="http://www.w3.org/2000/svg"><defs
   id="defs7"><radialGradient
     id="face_1_-1"
     cx="63.599998"
     cy="808.90002"
     r="56.959702"
     gradientTransform="translate(0,-746)"
     gradientUnits="userSpaceOnUse">
		<stop
   offset="0.5"
   style="stop-color:#FDE030"
   id="stop1-4" />
		<stop
   offset="0.92"
   style="stop-color:#F7C02B"
   id="stop2-2" />
		<stop
   offset="1"
   style="stop-color:#F4A223"
   id="stop3-3" />
	</radialGradient></defs><sodipodi:namedview
   id="namedview7"
   pagecolor="#ffffff"
   bordercolor="#666666"
   borderopacity="1.0"
   inkscape:showpageshadow="2"
   inkscape:pageopacity="0.0"
   inkscape:pagecheckerboard="0"
   inkscape:deskcolor="#d1d1d1"
   inkscape:zoom="2.9492188"
   inkscape:cx="11.35894"
   inkscape:cy="73.409271"
   inkscape:window-width="1680"
   inkscape:window-height="998"
   inkscape:window-x="-8"
   inkscape:window-y="-8"
   inkscape:window-maximized="1"
   inkscape:current-layer="Layer_1" />
<path
   style="fill:#986a44;stroke:none;stroke-width:1px;stroke-linecap:butt;stroke-linejoin:miter;stroke-opacity:1"
   d="m 37.507812,12.351562 0.298811,4.263008 7.678795,9.874248 18.446311,7.08068 -0.998604,36.417462 5.305286,-8.953847 V 27.125828 Z"
   id="path15"
   sodipodi:nodetypes="cccccccc" /><path
   style="fill:#986a44;stroke:none;stroke-width:1px;stroke-linecap:butt;stroke-linejoin:miter;stroke-opacity:1"
   d="m 38.140625,113.71875 3.098592,-0.51631 6.739591,-11.39582 L 47.712891,99.021484 44.925054,94.131926 57.642384,65.483444 54.166887,64 34.415894,78.495364 Z"
   id="path14"
   sodipodi:nodetypes="ccccccccc" /><path
   style="fill:#986a44;stroke:none;stroke-width:1px;stroke-linecap:butt;stroke-linejoin:miter;stroke-opacity:1"
   d="m 117.50586,40.599609 -1.03434,2.208338 -13.63435,4.406485 -1.36312,14.473494 -24.154904,6.470813 22.453039,-26.198474 z"
   id="path16"
   sodipodi:nodetypes="ccccccc" /><path
   style="fill:#986a44;stroke:none;stroke-width:1px;stroke-linecap:butt;stroke-linejoin:miter;stroke-opacity:1"
   d="m 51.384766,92.654297 0.262214,3.004941 6.207325,10.682482 2.966887,-7.120528 z"
   id="path17"
   sodipodi:nodetypes="ccccc" /><g
   id="gold">
	
		<radialGradient
   id="face_1_"
   cx="63.6"
   cy="808.9"
   r="56.9597"
   gradientTransform="matrix(1 0 0 1 0 -746)"
   gradientUnits="userSpaceOnUse">
		<stop
   offset="0.5"
   style="stop-color:#FDE030"
   id="stop1" />
		<stop
   offset="0.92"
   style="stop-color:#F7C02B"
   id="stop2" />
		<stop
   offset="1"
   style="stop-color:#F4A223"
   id="stop3" />
	</radialGradient>
	<path
   id="face"
   style="fill:url(#face_1_);"
   d="M 63.599609 7 C 54.781829 7 45.745408 8.7481726 37.507812 12.351562 L 46.753906 24.455078 L 65.214844 31.648438 L 64 64 L 58.501953 37.402344 L 41.238281 31.408203 L 24.822266 19.988281 C 13.437825 29.150628 5.5996094 43.304672 5.5996094 62.900391 C 5.5996094 89.474268 20.015353 106.03816 38.140625 113.7207 L 47.712891 99.021484 L 44.546875 91.751953 L 56.583984 65.933594 L 51.384766 92.654297 L 57.0625 101.89844 L 48.582031 117.0957 C 53.53474 118.23804 58.602463 118.80078 63.599609 118.80078 C 78.999609 118.80078 93.4 113.60078 104 104.30078 C 115.5 94.100781 121.59961 79.800391 121.59961 62.900391 C 121.59961 59.054485 121.28371 55.338418 120.66016 51.771484 L 110.70703 53.234375 L 100.70508 65.949219 L 79.681641 66.289062 L 99.857422 60.015625 L 101.38281 45.435547 L 117.50781 40.597656 C 114.54749 33.212361 110.01205 26.732814 104 21.400391 C 93.4 12.100391 79.099609 7 63.599609 7 z " />
</g>
<g
   id="facial_expressions">
	<path
   style="fill:#422B0D;"
   d="M44,40.94L44,40.94c-4.19,0-8,3.54-8,9.42s3.81,9.41,8,9.41l0,0c4.2,0,8-3.54,8-9.41   S48.24,40.94,44,40.94z"
   id="path3" />
	<g
   id="peepers">
		<path
   style="fill:#896024;"
   d="M43.65,44.87L43.65,44.87c-1.42-0.68-3.13-0.08-3.82,1.34c-0.53,1.11-0.29,2.44,0.6,3.3l0,0    c1.42,0.68,3.13,0.08,3.82-1.34C44.78,47.06,44.54,45.73,43.65,44.87z"
   id="path4" />
	</g>
	<path
   style="fill:#422B0D;"
   d="M82.4,40.94L82.4,40.94c-4.19,0-8,3.54-8,9.42s3.81,9.41,8,9.41l0,0c4.19,0,8-3.54,8-9.41   S86.59,40.94,82.4,40.94z"
   id="path5" />
	<g
   id="peepers-2">
		<path
   style="fill:#896024;"
   d="M82,44.87L82,44.87c-1.42-0.68-3.13-0.08-3.82,1.34c-0.53,1.11-0.29,2.44,0.6,3.3l0,0    c1.42,0.68,3.13,0.08,3.82-1.34C83.13,47.06,82.89,45.73,82,44.87z"
   id="path6" />
	</g>
	<path
   id="mouth"
   style="fill:#422B0D;"
   d="M 40.560547 78.130859 C 39.850547 78.140859 39.209922 78.560937 38.919922 79.210938 C 38.629922 79.850937 38.739219 80.600859 39.199219 81.130859 C 41.383754 83.556522 43.904365 85.602224 46.658203 87.224609 L 49.121094 81.939453 C 46.129965 80.840175 43.516143 79.550739 41.480469 78.380859 C 41.200469 78.220859 40.880547 78.130859 40.560547 78.130859 z M 85.570312 78.130859 C 85.250313 78.130859 84.930391 78.220859 84.650391 78.380859 C 79.840391 81.150859 71.770625 84.589844 63.140625 84.589844 L 63 84.589844 C 59.594692 84.589844 56.279052 84.055391 53.216797 83.238281 L 51.957031 89.716797 C 55.458387 90.984328 59.192964 91.638757 63 91.609375 L 63.109375 91.609375 C 72.179375 91.689375 80.859688 87.870859 86.929688 81.130859 C 87.399687 80.600859 87.510937 79.850938 87.210938 79.210938 C 86.920938 78.560938 86.280312 78.140859 85.570312 78.130859 z " />
	<path
   id="path7"
   style="fill:#EB8F00;"
   d="M 111.49023 29.669922 C 113.6404 33.139239 115.37459 36.874771 116.67969 40.845703 L 117.50586 40.599609 C 115.93772 36.691043 113.92717 33.035387 111.49023 29.669922 z M 120.66016 51.771484 L 119.13477 51.994141 C 119.13484 51.994787 119.13469 51.995447 119.13477 51.996094 C 119.44455 54.561944 119.59961 57.198584 119.59961 59.900391 C 119.59961 76.800391 113.5 91.100781 102 101.30078 C 91.4 110.60078 76.999609 115.80078 61.599609 115.80078 C 57.705873 115.80078 53.771771 115.45785 49.882812 114.76562 L 48.582031 117.0957 C 53.53545 118.23866 58.603762 118.80078 63.599609 118.80078 C 78.999609 118.80078 93.4 113.60078 104 104.30078 C 115.5 94.100781 121.59961 79.800391 121.59961 62.900391 C 121.59961 59.054585 121.28431 55.338415 120.66016 51.771484 z M 13.419922 92.859375 C 19.361371 102.61086 28.192756 109.50203 38.140625 113.71875 L 39.296875 111.94531 C 29.16773 108.28784 19.964185 101.98505 13.419922 92.859375 z " />
</g>
<path
   id="face-2"
   style="fill:#422b0d;fill-opacity:1"
   d="M 87.537109 11.425781 L 84.996094 24.335938 L 74.804688 39.441406 L 88.832031 26.134766 L 91.978516 13.394531 C 90.533395 12.681108 89.050925 12.023587 87.537109 11.425781 z M 29.371094 39.441406 L 21.458984 46.632812 L 25.894531 69.650391 L 10.208984 86.650391 C 10.905735 88.262218 11.673238 89.811059 12.505859 91.296875 L 29.130859 72.648438 L 44.476562 66.892578 L 29.25 69.650391 L 23.617188 47.232422 L 29.371094 39.441406 z M 93.386719 74.205078 L 119.32617 79.84375 C 119.70732 78.507733 120.04201 77.145289 120.32812 75.759766 L 93.386719 74.205078 z M 91.71875 80.445312 L 93.753906 89.769531 L 91.380859 103.92578 L 95.214844 110.58594 C 96.011109 110.12557 96.794596 109.64686 97.564453 109.15039 L 94.091797 102.99414 L 95.619141 90.701172 L 91.71875 80.445312 z " /></svg>
