<?xml version="1.0" encoding="UTF-8" standalone="no"?>
<!-- Generator: Adobe Illustrator 24.1.2, SVG Export Plug-In . SVG Version: 6.00 Build 0)  -->

<svg
   version="1.1"
   id="Layer_1"
   x="0px"
   y="0px"
   viewBox="0 0 128 128"
   style="enable-background:new 0 0 128 128;"
   xml:space="preserve"
   sodipodi:docname="u1fac8.svg"
   inkscape:version="1.4 (86a8ad7, 2024-10-11)"
   xmlns:inkscape="http://www.inkscape.org/namespaces/inkscape"
   xmlns:sodipodi="http://sodipodi.sourceforge.net/DTD/sodipodi-0.dtd"
   xmlns="http://www.w3.org/2000/svg"
   xmlns:svg="http://www.w3.org/2000/svg"><defs
     id="defs12">
				
				
			
				
				
				
				
			</defs><sodipodi:namedview
     id="namedview12"
     pagecolor="#ffffff"
     bordercolor="#666666"
     borderopacity="1.0"
     inkscape:showpageshadow="2"
     inkscape:pageopacity="0.0"
     inkscape:pagecheckerboard="0"
     inkscape:deskcolor="#d1d1d1"
     inkscape:zoom="1.4746094"
     inkscape:cx="-64.762914"
     inkscape:cy="-24.752318"
     inkscape:window-width="1680"
     inkscape:window-height="998"
     inkscape:window-x="-8"
     inkscape:window-y="-8"
     inkscape:window-maximized="1"
     inkscape:current-layer="Layer_1" /><path
     style="fill:#b1895e;fill-opacity:1;stroke-width:0.999997"
     d="m 35.007812,111.76367 c -1.073726,1.48479 -2.492454,2.50906 -4.363281,2.56836 -1.045709,0.0328 -2.085221,-0.2751 -3.121093,-0.41015 -0.555047,-0.17141 -1.118936,-0.3093 -1.69336,-0.4004 -0.693959,-0.11003 -1.426795,-0.14796 -2.078125,0.11524 -0.587243,0.2373 -1.08273,0.77658 -1.150391,1.39453 -0.739267,-0.01 -1.428082,0.23216 -1.771484,0.95117 -0.325218,0.68024 -0.143949,1.49836 0.378906,2.04297 1.162858,1.20692 2.776482,1.11833 4.28125,1.2793 1.536367,0.16424 3.042408,0.61458 4.416016,1.32226 1.303558,0.67131 2.498698,1.57441 3.892578,2.0293 2.429748,0.79246 5.13452,0.121 7.597656,0.80273 1.089825,0.30166 2.095621,0.86101 3.191407,1.14063 0.01104,0.002 0.02212,0.005 0.0332,0.008 1.55485,0.38603 2.905346,-1.15134 2.361328,-2.6582 -0.225953,-0.6257 -0.454424,-1.27387 -0.691406,-1.92578 0.617944,-1.11577 0.939615,-2.39664 0.884765,-3.67188 -2.044312,-5.18075 -3.63817,-7.70809 -12.167966,-4.58808 z"
     id="path4"
     sodipodi:nodetypes="ccccsccccccscccccc" /><path
     style="fill:#b1895e;fill-opacity:1;stroke-width:0.999997"
     d="m 29.345703,62.935547 c 0.03666,0.108504 0.08138,0.214926 0.130859,0.318359 -0.550277,1.038553 -1.021257,2.129187 -1.386718,3.289063 -1.018881,3.23907 -0.937789,7.183663 1.482422,9.554687 0.111189,0.200616 0.238342,0.400425 0.433593,0.517578 0.214626,0.128784 0.533129,0.117027 0.673829,-0.08984 0.07482,-0.109996 0.0871,-0.250161 0.0957,-0.382813 0.03638,-0.558029 0.07105,-1.1158 0.107421,-1.673828 0.08794,0.759837 0.420774,1.489935 0.939454,2.052734 0.162161,0.175869 0.423419,0.254358 0.634765,0.142578 0.234606,-0.123709 0.226476,-0.371179 0.197266,-0.58789 -0.126093,-0.936905 -0.504556,-1.829349 -0.603516,-2.769531 -0.18124,-1.720887 0.583655,-3.383905 1.330078,-4.945313 -0.344586,0.765502 -0.455411,1.631645 -0.328125,2.460938 0.05783,0.375596 0.547649,0.479835 0.775391,0.175781 0.763712,-1.018879 1.055314,-2.382165 1.246094,-3.669922 0.04411,-0.297795 0.100236,-0.580958 0.160156,-0.859375 0.257807,-2.440109 -2.195275,-7.5547 -5.888669,-3.533206 z"
     id="path12"
     sodipodi:nodetypes="ccccsscccccccccscc" /><path
     style="fill:#b1895e;fill-opacity:1;stroke-width:0.999997"
     d="m 96.15234,72.707032 c 0.01664,0.08425 0.136278,0.10408 0.205078,0.15625 0.0131,0.02147 0.02566,0.04328 0.03906,0.06445 0.703181,1.113374 1.64322,2.055706 2.548828,3.007813 0.197942,0.20777 0.466857,0.349156 0.753907,0.347656 0.760447,-0.0039 0.917067,-0.892891 0.804687,-1.550781 -0.005,-0.02742 -0.0126,-0.05295 -0.0176,-0.08008 0.9363,0.137122 1.88495,0.09955 2.78906,-0.169922 0.88414,0.02802 1.84746,-0.232735 2.66602,-0.458984 0.39139,-0.10821 1.34727,-0.289103 1.38867,-0.837891 0.0411,-0.546697 -0.51683,-0.585288 -0.94727,-0.486328 -0.37351,0.08585 -0.90976,0.0766 -0.97656,-0.300781 0.35264,-0.117747 0.704,-0.235765 1.05664,-0.353516 0.14875,-0.04978 0.31465,-0.113834 0.37695,-0.257813 0.10135,-0.234301 -0.1637,-0.485126 -0.41796,-0.503906 -0.25459,-0.01908 -0.49677,0.09846 -0.74805,0.142578 -0.2513,0.04382 -0.56629,-0.02477 -0.65039,-0.265625 0.36546,0.03577 0.75079,0.06937 1.07422,-0.142578 0.19017,-0.124305 0.31751,-0.345253 0.28711,-0.570312 -0.0569,-0.422398 -0.56461,-0.560212 -0.97657,-0.613282 -0.98759,-0.12788 -1.97531,-0.255226 -2.96289,-0.382812 0.14547,-0.980425 -0.55735,-1.889639 -1.33984,-2.498047 -3.153195,0.427626 -5.511934,2.923886 -4.9531,5.753911 z"
     id="path14"
     sodipodi:nodetypes="scccccccccscccccccccccs" /><path
     style="fill:#b1895e;fill-opacity:1;stroke-width:0.999997"
     d="m 41.960945,15.177747 c 0.11983,1.376292 0.775396,3.008306 1.638671,3.763672 0.274542,0.469495 0.57479,0.927266 0.871094,1.375 0.04948,0.07512 0.112817,0.154298 0.185547,0.210938 0.04382,0.193163 0.08971,0.385465 0.166016,0.566406 0.155008,0.368443 0.567905,0.68283 0.923828,0.625 0.08645,0.09181 0.177121,0.181464 0.269531,0.271484 0.190779,0.988175 1.17259,1.765393 2.199219,1.886719 0.408385,0.04829 0.822123,0.0045 1.216797,-0.109375 6.239273,-4.258107 -1.246279,-15.117117 -7.470703,-8.589844 z"
     id="path16"
     sodipodi:nodetypes="cccccccccc" /><path
     style="fill:#b1895e;fill-opacity:1;stroke-width:0.999997"
     d="m 53.058594,24.013672 c -0.02221,0.05979 -0.04431,0.119182 -0.06445,0.179687 -0.01685,0.05063 0.04637,-0.0965 0.05859,-0.148437 0.0024,-0.01034 0.0035,-0.02091 0.0059,-0.03125 z"
     id="path18"
     sodipodi:nodetypes="csccc" /><path
     style="fill:#b1895e;fill-opacity:1;stroke-width:0.999997"
     d="m 90.322266,113.4043 c -0.296303,0.91304 -0.678349,1.79943 -1.205078,2.60547 -1.05167,1.6091 -2.755606,2.88924 -4.673829,3.01562 -0.686211,0.0453 -1.381625,-0.0547 -2.058593,0.0644 -0.676968,0.11923 -1.372305,0.53633 -1.523438,1.20704 -0.829593,-0.5461 -2.075426,0.0613 -2.357422,1.01367 -0.282293,0.9527 0.239344,2.01153 1.046875,2.58984 1.213237,0.86893 2.930635,0.82911 4.267578,0.69141 0.633445,-0.0653 1.262977,-0.16427 1.888672,-0.28321 0.443264,-0.0841 0.894063,-0.16461 1.341797,-0.25781 0.593799,0.0127 1.187153,0.0261 1.78125,0.0391 0.955386,0.0206 1.926118,0.038 2.84961,-0.20703 1.08386,-0.28765 2.036968,-0.91994 2.99414,-1.5039 2.505467,-1.52891 5.176242,-2.78532 7.951172,-3.74219 0.85792,-0.29572 1.75109,-0.57711 2.375,-1.27344 0.1878,-0.20957 0.33458,-0.45723 0.42188,-0.72461 0.35291,-1.0794 -0.32694,-1.70767 -0.96876,-2.25586 -0.56127,-0.47935 -1.11626,-0.96754 -1.67578,-1.41797 -4.963392,-4.35055 -11.351214,-9.61633 -12.455074,0.43947 z"
     id="path10"
     sodipodi:nodetypes="ccccccccccccccscccc" /><path
     style="fill:#694e43;fill-opacity:1;stroke-width:0.999997"
     d="m 35.007653,111.76417 c -0.08942,-0.37948 -0.133247,-0.77028 -0.128773,-1.15393 0.0173,-1.55484 0.655803,-3.02741 1.290441,-4.44693 0.63464,-1.41951 1.288356,-2.88165 1.339628,-4.43591 -0.714231,0.9083 -1.283884,1.92955 -1.681836,3.01431 -0.513614,-2.36536 0.44654,-4.786472 1.525932,-6.952715 1.079394,-2.166531 2.327505,-7.10979 2.436905,-9.527914 -0.374404,0.513018 -0.748807,1.026033 -1.123509,1.539056 0.42955,-2.261631 1.073727,-4.48212 1.920905,-6.622422 -0.668024,0.41405 -1.283882,0.911863 -1.829093,1.477941 0.402723,-1.832075 1.856219,-3.199126 3.311805,-4.412958 0.466812,-2.027921 1.427861,-3.943462 2.804749,-5.504571 -0.620329,0.152623 -1.192667,0.494833 -1.620728,0.9688 0.885633,-3.78905 3.772059,-7.049284 7.426073,-8.387422 -0.887719,0.06827 -1.775438,0.136528 -2.663155,0.20479 1.297595,-1.460354 2.378179,-3.112977 3.20598,-4.881856 0.456678,-0.975655 0.706479,-2.18889 1.099663,-3.284976 -0.221184,-0.96105 -0.453994,-2.461347 -0.580386,-4.083267 -0.02623,-0.0033 -0.02534,-0.0033 -0.02176,-0.0028 -0.003,-2.98e-4 -0.0072,-8.95e-4 -0.02027,-0.0028 -0.318066,0.871025 -2.018681,2.858107 -2.049684,3.854331 0.01847,-0.593501 0.03666,-1.187002 0.05515,-1.780504 -0.876986,1.443065 -1.790043,2.926074 -3.158286,3.916038 -0.854033,0.617945 -1.935811,0.991752 -2.974961,0.969395 -0.290937,0.475755 -0.67488,0.907096 -1.057333,1.270767 -0.788752,0.749403 -1.798688,1.282095 -2.877484,1.424583 0.168124,-0.319256 0.287362,-0.658783 0.3908,-1.004571 -0.725558,0.535672 -1.531599,0.942865 -2.418124,1.157791 0.281697,-0.403618 0.506458,-0.844198 0.682929,-1.303259 -0.167827,0.08973 -0.334459,0.180941 -0.500497,0.273051 -0.711844,0.941377 -1.580188,1.76262 -2.558525,2.422597 -0.05992,0.278417 -0.115068,0.562202 -0.159182,0.859997 -4.464593,-0.07393 -4.493997,-1.090699 -5.599373,-4.074931 -0.04948,-0.103433 -0.0942,-0.208963 -0.130863,-0.317467 -0.346681,-1.027525 -0.140996,-2.191873 0.400637,-3.131459 -0.504373,0.132054 -0.972078,0.40153 -1.339329,0.771462 0.6093,-1.98891 1.629373,-3.889547 3.166932,-5.290281 0.712738,-0.649246 1.664547,-1.212044 2.723669,-1.637719 0.726153,-0.421801 1.518482,-0.73897 2.328397,-0.965819 1.231121,-0.345192 2.408288,-0.688891 3.067072,-1.784678 -0.619436,0.05634 -1.224564,0.261128 -1.750993,0.592309 1.121124,-1.503876 2.929947,-2.28279 4.660373,-3.027126 0.357711,-0.497218 0.791734,-0.939586 1.286864,-1.29998 -0.386626,-0.02803 -0.782194,0.09091 -1.088931,0.327304 1.190582,-2.358505 4.881856,-2.57313 5.983902,-4.973966 -0.44505,0.139805 -0.905305,0.231915 -1.369733,0.27484 1.008743,-0.749105 1.59986,-1.891096 2.02494,-3.094494 -0.309717,0.05038 -0.624503,0.06707 -0.938096,0.04233 0.22506,-0.397059 -0.07005,-5.886727 0.15471,-6.283784 -0.40928,0.279015 -0.890997,0.450715 -1.384339,0.493342 0.805147,-0.866853 1.174183,-2.569258 1.786464,-3.914548 -0.01461,-0.172894 -0.01878,-0.347575 -0.0065,-0.524343 -0.336248,0.202703 -0.56399,0.546999 -0.64686,0.92826 0.03487,-1.415045 0.478438,-3.507354 1.556936,-4.755466 0.08943,-0.360393 0.154709,-0.726749 0.19227,-1.095489 0.0049,-0.05992 0.009,-0.125499 -0.02175,-0.180048 -0.149644,-0.263215 -0.55952,0.250994 -0.81737,0.09658 0.05545,-0.242945 0.09151,-0.488871 0.117753,-0.73569 1.108721,-3.200674 0.761526,-8.805421 -2.812278,-7.531388 -0.268705,-1.779318 -2.555034,-2.972187 -4.659403,-1.059037 -0.419714,0.229829 -0.852247,0.456677 -1.141097,0.743741 -0.02057,-1.254074 0.150834,-2.653022 0.569654,-3.962242 -0.149643,0.156499 -0.299284,0.312699 -0.448927,0.466217 0.08317,-1.217111 0.564288,-2.402624 1.352445,-3.3305836 -0.362779,-0.08138 -0.764608,0.128773 -0.909778,0.472177 0.100755,-1.096084 1.150933,-2.0189779 2.252385,-1.9721775 -0.713335,-0.029809 -0.121326,-2.1277819 0.08286,-2.3951712 -0.10672,0.9607512 0.135037,1.6004575 0.530605,2.1450725 -0.01878,-2.2634145 1.672297,-4.449921 4.447237,-3.9360106 -0.672198,0.05098 -1.302066,0.485592 -1.588533,1.0954886 1.176569,-0.5619035 2.623807,-0.5177851 3.764009,0.1144662 -0.50467,-0.014308 -1.00934,-0.028913 -1.51401,-0.04322 1.484797,0.8292925 3.281101,0.9360094 4.792131,1.7158184 1.744136,0.8999408 2.917131,2.5835656 4.310414,3.9655202 1.393282,1.382253 3.35771,2.548987 5.238373,1.987679 -0.281101,0.201212 -0.561903,0.402722 -0.843004,0.603934 1.419516,0.225656 2.878677,0.198529 4.288653,-0.08018 -0.228935,0.214626 -0.45787,0.428953 -0.687103,0.643581 1.764707,0.397059 3.518084,0.843899 5.25775,1.339328 0.958665,0.273351 1.959957,0.594097 2.744833,1.178657 1.201908,0.156796 2.630069,0.641494 3.226253,-0.05931 -0.372914,0.438196 -0.753577,0.878478 -1.186109,1.25497 0.905902,0.09598 2.223172,0.98579 2.846184,1.333365 1.147954,0.640601 2.230625,1.398351 3.224166,2.25954 1.043621,0.904709 2.023747,1.982014 2.375795,3.317765 -0.386923,-0.541931 -0.869536,-1.015004 -1.418621,-1.391196 0.114167,2.121522 2.113474,3.586646 3.108506,5.463732 0.58903,1.111288 0.822137,2.377286 0.928259,3.630466 0.105222,1.240958 0.08257,2.51411 -0.117153,3.746721 1.134539,2.379669 2.284578,4.656797 3.346681,5.826809 -0.443262,-0.177067 -0.886526,-0.354433 -1.32979,-0.531498 2.244039,2.766594 3.8749,6.028019 4.741461,9.483506 -0.22983,-0.260533 -0.459659,-0.521067 -0.689489,-0.781301 0.118041,1.874702 1.588531,3.333566 2.847081,4.72804 1.879481,2.082175 3.473081,4.4222 4.722071,6.933626 -0.56905,-0.531499 -1.13811,-1.062997 -1.70716,-1.594495 0.8418,1.850855 1.39237,3.833763 1.62518,5.853339 -0.59229,-0.960453 -1.18462,-1.921205 -1.77692,-2.881657 0.0477,0.938392 -0.0343,1.88275 -0.23609,2.800577 0.60006,0.650435 1.41296,1.082671 2.11705,1.630264 0.52819,3.236223 -2.56589,6.367199 -4.710131,5.974355 -0.0134,-0.02117 -0.0256,-0.04321 -0.0387,-0.06468 -0.0688,-0.05217 -0.13891,-0.102851 -0.205975,-0.156499 -0.405114,-0.324026 -0.779223,-0.679352 -1.139904,-1.048091 0.02207,0.736584 0.21283,1.507154 0.313585,2.297991 -0.860886,-1.007849 -1.545003,-2.166234 -2.012115,-3.406597 -0.138619,0.3595 -0.277526,0.718998 -0.416135,1.078498 -0.859109,-1.829691 -1.517894,-3.752385 -1.9698,-5.722476 -0.06648,-0.109694 -0.132652,-0.219098 -0.198829,-0.328795 0.0086,0.06438 0.0173,0.128773 0.02623,0.193161 -0.969693,-0.937796 -1.777226,-2.043123 -2.375795,-3.251886 0.05187,0.593799 0.103433,1.187598 0.155009,1.781697 -1.091913,-1.484798 -1.834162,-3.224762 -2.149842,-5.040739 -0.245031,0.882948 -0.378576,1.796899 -0.396164,2.713234 -0.352048,-2.421701 -0.825119,-4.825815 -1.416536,-7.200119 -0.25427,0.417924 -0.508246,0.835851 -0.762518,1.253776 0.281994,-2.488474 -0.102851,-5.035672 -1.046603,-7.354531 -0.528218,-0.391991 -1.164945,-0.647456 -1.78259,-0.888018 -0.260533,-0.101644 -0.521066,-0.203298 -0.781598,-0.305246 0.284379,0.9375 0.562202,1.836249 0.891295,2.611288 -1.285672,-0.576808 -2.512321,-1.393879 -3.649246,-2.34062 0.07482,1.846086 0.384242,3.68293 0.923194,5.450319 -0.408984,-0.370827 -0.761925,-0.803956 -1.042131,-1.28001 0.0028,1.149146 0.441771,2.254473 0.541335,3.399444 0.09539,1.096087 -0.118939,2.145968 -0.520469,3.150239 0.410772,1.199821 0.712142,2.417231 0.725258,3.681141 l -1.303854,-1.695548 c 0.162459,1.948629 1.460949,3.760731 3.253675,4.541137 -0.509141,0.187203 -1.088035,0.177365 -1.590322,-0.02743 1.339032,1.163752 2.413355,2.630365 3.119237,4.25765 -0.528219,-0.584857 -1.144971,-1.089528 -1.822238,-1.492249 0.45787,1.449026 1.587639,2.564488 2.527525,3.758644 1.745927,2.218701 2.88583,4.892589 3.347874,7.676769 0.869535,1.181937 1.950118,2.204988 3.203895,2.975558 -0.700219,-0.18452 -1.373013,-0.473073 -1.989468,-0.853142 0.945847,1.049882 2.059817,1.948034 3.286467,2.649742 -0.551769,0.01937 -1.108307,-0.126986 -1.579292,-0.415241 2.62798,2.086346 6.760429,7.304448 7.826415,11.264307 0.507651,1.885735 2.756451,2.856915 3.430441,4.689581 -0.327,-0.2957 -0.65401,-0.5911 -0.98132,-0.88683 0.24892,1.790362 1.02454,3.504082 2.20529,4.872622 0.65193,0.75567 1.42189,1.40611 2.03835,2.19099 0.61645,0.78458 1.08237,1.75816 0.97774,2.7508 -0.47456,-0.60157 -0.94912,-1.2031 -1.42369,-1.80466 0.45221,0.95539 0.76878,1.97457 0.9375,3.01819 0.16246,1.00487 0.16634,2.11078 -0.40838,2.95081 -0.56919,0.67262 -4.434344,4.16775 -5.043389,-0.47044 -0.489562,1.67989 -3.157725,4.3977 -3.929625,0.4261 -0.231149,2.94879 -6.105265,7.22643 -3.82826,0.87796 -1.195945,-1.35246 -2.111089,-2.93712 -1.825516,-4.65829 -0.304055,0.90649 -0.501392,1.84876 -0.587539,2.80086 -1.921503,-2.68999 -1.289847,-6.50884 -2.860494,-9.41793 -0.464726,-0.86058 -1.112779,-1.61983 -1.501491,-2.517392 0.188394,0.882362 0.37649,1.764722 0.564886,2.647072 -1.799285,-1.72268 -3.072438,-3.987592 -3.608706,-6.420316 -0.122512,0.75387 -0.245031,1.507451 -0.367547,2.261314 -0.315083,-1.477331 -1.804053,-4.344982 -2.73291,-6.958348 0.205087,1.294312 0.402426,2.478033 0.54074,2.789245 -2.210354,-1.678857 -4.233803,-8.580586 -5.178757,-11.190085 -0.02774,0.648648 -0.05514,1.297297 -0.08286,1.945945 -0.812898,-2.155504 -2.032989,-4.156895 -3.576511,-5.867051 0.216415,0.768481 0.432532,1.536963 0.648947,2.305146 -0.854332,-0.998608 -3.083167,-3.845685 -3.834063,-6.111783 -0.182729,-0.06349 -0.371719,-0.109693 -0.56846,-0.132055 -1.409977,-0.158882 -2.63901,0.883844 -3.671006,1.855623 -0.934221,0.881459 -1.868145,1.762919 -2.802366,2.641694 -0.496918,2.507552 -2.192765,5.000497 -3.792328,6.603637 0.284081,-0.861783 0.622714,-1.709559 0.945846,-2.560315 -1.773351,1.361387 -3.224166,3.1407 -4.200118,5.151928 0.218799,-0.504371 -0.776532,-0.53418 -1.125001,-0.108805 -2.096185,2.558224 0.9688,9.184218 0.08555,12.371426 -0.343403,-0.851362 -0.686505,-1.703002 -1.029908,-2.554662 0.541336,2.965132 -0.165441,6.137732 -1.913752,8.592812 -0.190182,-0.69903 -0.136824,-1.46184 0.149047,-2.12747 -1.590024,1.84994 -1.282692,4.64337 -0.594397,6.98339 0.688296,2.34032 1.676769,4.75577 1.150934,7.13782 -0.130522,-0.23827 -1.066891,-3.15343 -2.880153,-3.56376 -2.182893,4.78168 -5.827256,-0.17805 -5.370307,-1.53614 -3.267748,1.8549 -5.30168,0.0141 -5.295883,-2.00438 z"
     id="path2-8"
     sodipodi:nodetypes="ccsccccccccccccccccccccccccccccccccccccccccccccccccccccccccccccccccccccccccccccccccccccccccccccccccccccccccccccccccccccccccccccccccccccccsccccccscccccccccccccccccccccccccccccccccc" /><path
     id="path2-4"
     style="fill:#7e5c52;fill-opacity:1;stroke-width:0.999997"
     d="m 47.707031,3.3378906 c -2.182419,0.1051763 -3.475417,2.0253717 -3.458984,4.0058594 2.732367,-0.1321942 7.040899,2.258202 8.985942,4.523926 7.355681,8.568417 14.354737,8.380711 19.835478,10.850199 5.022131,2.262851 8.048242,7.249079 15.580924,15.151266 -0.400776,-0.771893 -0.801649,-1.540725 -1.203125,-2.382813 0.199723,-1.232611 0.220456,-2.507089 0.115234,-3.748047 -0.106122,-1.25318 -0.338704,-2.517618 -0.927734,-3.628906 -0.995032,-1.877086 -2.993255,-3.343322 -3.107422,-5.464844 0.549085,0.376192 1.031046,0.848694 1.417968,1.390625 -0.352048,-1.335751 -1.331378,-2.411697 -2.375,-3.316406 -0.99354,-0.861189 -2.076655,-1.619165 -3.224609,-2.259766 C 78.722691,18.111409 77.405902,17.22098 76.5,17.125 c 0.432532,-0.376492 0.812633,-0.81571 1.185547,-1.253906 -0.596184,0.700804 -2.024655,0.215389 -3.226563,0.05859 -0.784876,-0.58456 -1.785475,-0.906337 -2.74414,-1.179688 -1.739666,-0.495429 -3.493106,-0.940832 -5.257813,-1.337891 0.229233,-0.214628 0.456612,-0.429905 0.685547,-0.644531 -1.409976,0.278709 -2.867593,0.305734 -4.287109,0.08008 0.281101,-0.201212 0.560696,-0.402303 0.841797,-0.603515 -1.880663,0.561308 -3.845,-0.606029 -5.238282,-1.988282 -1.393283,-1.3819542 -2.566411,-3.0649026 -4.310546,-3.9648434 -1.51103,-0.779809 -3.306219,-0.8855512 -4.791016,-1.7148437 0.50467,0.014307 1.009002,0.028661 1.513672,0.042969 C 49.730892,3.9868893 48.283991,3.9420027 47.107422,4.5039062 47.393889,3.8940096 48.023114,3.4591831 48.695312,3.4082031 48.348445,3.3439643 48.018805,3.3228654 47.707031,3.3378906 Z M 44.248047,7.34375 C 43.852479,6.799135 43.610077,6.1599699 43.716797,5.1992188 43.512611,5.4666081 42.921431,7.563941 43.634766,7.59375 c -0.0066,-2.805e-4 -0.01293,0.00216 -0.01953,0.00195 0.804374,0.3767214 1.172725,0.3399334 0.632813,-0.2519531 z"
     sodipodi:nodetypes="scssccccccccccccccccccccccsccccc" /><path
     id="path2-9"
     style="fill:#4d3630;fill-opacity:1;stroke-width:0.999997"
     d="M 80.482422 40.900391 C 78.755273 40.934567 77.52006 42.718616 77.021484 44.470703 C 76.324315 45.710887 75.105469 47.687006 75.105469 47.978516 C 75.105469 48.289371 76.150695 50.035249 77.585938 52.300781 C 77.815758 52.624407 78.069389 52.932745 78.363281 53.199219 C 77.824329 51.43183 77.514273 49.594133 77.439453 47.748047 C 78.576378 48.694788 79.804172 49.513036 81.089844 50.089844 C 80.760751 49.314805 80.481645 48.416016 80.197266 47.478516 C 80.457798 47.580464 80.719936 47.681559 80.980469 47.783203 C 81.598114 48.023765 82.233501 48.279884 82.761719 48.671875 C 83.705471 50.990734 84.090588 53.536917 83.808594 56.025391 C 84.062866 55.607466 84.316042 55.189408 84.570312 54.771484 C 85.161729 57.145788 85.636233 59.550955 85.988281 61.972656 C 86.005869 61.056321 86.139735 60.142714 86.384766 59.259766 C 86.700446 61.075743 87.44129 62.81403 88.533203 64.298828 C 88.481627 63.704729 88.430776 63.111377 88.378906 62.517578 C 88.977475 63.726341 89.784213 64.831735 90.753906 65.769531 C 90.744976 65.705143 90.737116 65.640552 90.728516 65.576172 C 90.794693 65.685869 90.861254 65.796556 90.927734 65.90625 C 91.37964 67.876341 92.037375 69.797262 92.896484 71.626953 C 93.035093 71.267453 93.173881 70.908328 93.3125 70.548828 C 93.572786 71.239988 93.906838 71.90286 94.294922 72.53125 C 94.585552 72.466661 94.848517 72.377664 95.080078 72.261719 C 95.05501 72.060216 95.017619 71.855111 95.011719 71.658203 C 95.146524 71.79602 95.298025 71.917645 95.4375 72.050781 C 98.504853 69.888224 95.232901 62.444044 93.414062 59.845703 C 90.949621 56.325072 90.203672 52.494375 87.480469 49.166016 C 85.775159 47.081749 84.608455 43.013058 82.394531 41.537109 C 81.707094 41.078818 81.067106 40.888821 80.482422 40.900391 z " /><path
     id="path2-0"
     style="fill:#4d3630;fill-opacity:1;stroke-width:0.999997"
     d="M 63.429688 69.876953 C 62.914563 69.869317 62.3983 69.91409 61.880859 70.017578 C 58.884948 70.61676 54.565177 77.000459 52.556641 79.34375 C 50.000013 82.326483 47.987107 87.278396 46.960938 91.041016 C 44.915194 98.54208 42.163199 104.44164 47.402344 111.73047 C 46.714049 109.39045 46.408023 106.59799 47.998047 104.74805 C 47.712176 105.41368 47.657474 106.17597 47.847656 106.875 C 49.595967 104.41992 50.303055 101.24638 49.761719 98.28125 C 50.105122 99.13291 50.449566 99.984576 50.792969 100.83594 C 51.676219 97.648729 48.610846 91.023068 50.707031 88.464844 C 51.0555 88.039469 52.05083 88.069848 51.832031 88.574219 C 52.807983 86.562991 54.257899 84.783262 56.03125 83.421875 C 55.708118 84.272631 55.370019 85.120639 55.085938 85.982422 C 56.685501 84.379282 58.381988 81.886458 58.878906 79.378906 C 59.813127 78.500131 60.745466 77.617787 61.679688 76.736328 C 62.711683 75.764549 63.941586 74.721977 65.351562 74.880859 C 65.548303 74.903221 65.737193 74.950182 65.919922 75.013672 C 66.670818 77.27977 68.899574 80.126392 69.753906 81.125 C 69.537491 80.356817 69.321884 79.588793 69.105469 78.820312 C 70.648991 80.530468 71.868743 82.531996 72.681641 84.6875 C 72.709361 84.038852 72.735932 83.388882 72.763672 82.740234 C 73.708626 85.349733 75.733005 92.252784 77.943359 93.931641 C 77.805045 93.620429 77.607431 92.43689 77.402344 91.142578 C 78.331201 93.755944 79.819683 96.622278 80.134766 98.099609 C 80.257282 97.345746 80.379441 96.593714 80.501953 95.839844 C 81.038221 98.272568 82.312043 100.53709 84.111328 102.25977 C 83.922932 101.37742 83.735269 100.49369 83.546875 99.611328 C 83.935587 100.50889 84.584102 101.26833 85.048828 102.12891 C 86.413086 104.65573 86.119829 107.86801 87.277344 110.43164 C 87.558165 110.37307 87.838507 110.27971 88.119141 110.14844 C 88.21778 109.67463 88.34219 109.20493 88.496094 108.74609 C 88.427822 109.15757 88.431871 109.56051 88.488281 109.95508 C 88.887282 109.72068 89.286813 109.41045 89.685547 109.01172 C 92.006365 106.6909 88.701751 102.13006 87.650391 100.02734 C 83.767638 92.261839 73.903885 70.032231 63.429688 69.876953 z " /><path
     id="path2"
     style="fill:#4d3630;fill-opacity:1;stroke-width:0.999997"
     d="M 51.175781 49.044922 C 50.975425 49.032736 50.757141 49.071753 50.521484 49.166016 C 45.605018 51.132602 43.005918 57.416963 38.484375 59.677734 C 35.838172 61.000836 35.433173 63.615451 35.234375 66.46875 C 36.212712 65.808773 37.081125 64.988252 37.792969 64.046875 C 37.959007 63.954765 38.125142 63.863168 38.292969 63.773438 C 38.116498 64.232498 37.891072 64.672554 37.609375 65.076172 C 38.4959 64.861246 39.303739 64.453641 40.029297 63.917969 C 39.925859 64.263757 39.804843 64.604572 39.636719 64.923828 C 40.715515 64.78134 41.726873 64.24745 42.515625 63.498047 C 42.898078 63.134376 43.281329 62.704271 43.572266 62.228516 C 44.611416 62.250873 45.692842 61.875757 46.546875 61.257812 C 47.915118 60.267849 48.828092 58.784862 49.705078 57.341797 C 49.686588 57.935299 49.668861 58.529546 49.650391 59.123047 C 49.681394 58.126823 51.383106 56.140556 51.701172 55.269531 C 51.714242 55.271436 51.717703 55.271186 51.720703 55.271484 C 51.717123 55.270984 51.715958 55.270137 51.742188 55.273438 C 51.790027 55.88733 51.861665 56.451413 51.933594 57.007812 C 53.283124 52.940388 52.88777 49.149047 51.175781 49.044922 z " /></svg>
