<?xml version="1.0" encoding="UTF-8" standalone="no"?>
<!-- Generator: Adobe Illustrator 24.1.2, SVG Export Plug-In . SVG Version: 6.00 Build 0)  -->

<svg
   version="1.1"
   id="Layer_1"
   x="0px"
   y="0px"
   viewBox="0 0 128 128"
   style="enable-background:new 0 0 128 128;"
   xml:space="preserve"
   sodipodi:docname="u1facd.svg"
   inkscape:version="1.4 (86a8ad7, 2024-10-11)"
   xmlns:inkscape="http://www.inkscape.org/namespaces/inkscape"
   xmlns:sodipodi="http://sodipodi.sourceforge.net/DTD/sodipodi-0.dtd"
   xmlns="http://www.w3.org/2000/svg"
   xmlns:svg="http://www.w3.org/2000/svg"><defs
     id="defs12"><inkscape:path-effect
   effect="bend_path"
   id="path-effect7"
   is_visible="true"
   lpeversion="1"
   bendpath="M 6.2262805,37.163773 C 75.521623,20.855145 127.1669,52.752227 117.369,113.40768"
   prop_scale="1"
   scale_y_rel="false"
   vertical="false"
   hide_knot="false"
   bendpath-nodetypes="cc" />
				
				
			
				
				
				
				
			</defs><sodipodi:namedview
     id="namedview12"
     pagecolor="#ffffff"
     bordercolor="#666666"
     borderopacity="1.0"
     inkscape:showpageshadow="2"
     inkscape:pageopacity="0.0"
     inkscape:pagecheckerboard="0"
     inkscape:deskcolor="#d1d1d1"
     inkscape:zoom="5.8984375"
     inkscape:cx="60.609272"
     inkscape:cy="47.554967"
     inkscape:window-width="1680"
     inkscape:window-height="998"
     inkscape:window-x="-8"
     inkscape:window-y="-8"
     inkscape:window-maximized="1"
     inkscape:current-layer="g8" /><g
     id="g7"><g
       id="g8"
       transform="matrix(1.0933307,0,0,1.0933307,-4.4715952,-9.9413486)"
       style="stroke-width:0.914636"><path
         style="fill:#4b4a56;stroke-width:1.42913;fill-opacity:1"
         d="m 51.913236,53.871298 -0.01117,-0.0021 c -0.289087,-0.05111 -6.102332,-1.095543 -13.075046,-1.365883 -7.829233,-0.30355 -14.21499,0.243797 -19.055354,0.599769 -5.380731,0.395657 -7.856244,0.02316 -9.188161,-0.63435 C 9.3156458,51.842876 9.4003356,51.046436 9.4003356,51.046436 9.0039024,49.366074 13.698776,37.848801 24.456679,31.886534 c 7.079018,-3.923816 17.996188,-7.510889 30.810636,-7.549688 2.914523,-0.01597 5.887737,0.168471 8.877914,0.585392 6.701663,0.934278 10.550034,-1.305138 14.980526,-4.336279 4.164626,-2.849248 9.039186,-6.62986 16.545567,-6.548732 3.020861,0.03273 6.442518,0.93055 8.769168,2.146956 2.31621,1.210949 3.23092,2.553438 1.34195,3.314765 -2.18854,0.881833 -6.859125,2.656355 -10.237753,6.034814 -3.257203,3.25704 -4.43355,7.143451 -0.467068,11.192868 0.513988,0.524736 1.080694,1.082515 1.699808,1.689475 5.649513,5.574732 17.154853,17.231361 17.892433,34.877696 0.36231,8.967777 -2.22229,18.182778 -8.3693,26.373293 5.59732,4.242376 6.86889,11.847536 6.08924,19.959986 -2.08182,-2.95597 -10.21988,-3.92871 -13.103289,-10.66533 -4.49502,1.60078 -9.08432,0.42669 -18.184475,0.91221 2.307939,-6.31752 10.765524,-10.711085 16.943674,-12.240697 1.615211,-0.399904 5.50012,-8.109728 1.78562,-18.350601 l -10e-7,-3e-6 C 98.19101,74.254417 94.8138,69.600388 90.361332,66.653707 87.103024,64.497365 83.972248,62.910427 81.272297,61.756458 72.465699,57.754844 66.489159,56.929675 66.489159,56.929675"
         id="path1"
         sodipodi:nodetypes="ccsccccccscscssccccccsssccc" /><g
         id="g3"
         transform="matrix(-0.25388975,0,0,0.25388975,134.22543,-27.831955)"
         style="stroke-width:5.62892">
	<path
   style="fill:#f0ebe1;stroke-width:5.62892"
   d="m 407.75005,272.97514 c -5.40015,-10.80702 -30.48917,-29.3725 -81.35359,-23.76099 0,0 11.19574,16.08914 31.69927,22.21912 20.19816,6.04002 49.65432,1.54187 49.65432,1.54187 z"
   id="path2" />
	<path
   style="fill:#f0ebe1;stroke-width:5.62892"
   d="m 324.48815,321.67452 c 0.45802,-1.0304 0.92101,-2.05968 1.38892,-3.08785 0,0 18.37298,-3.24705 40.57836,-4.60973 25.26677,-1.55054 44.96417,-0.6291 60.72001,-0.14388 26.6732,0.81957 31.24056,-4.50148 31.92476,-6.98181 -16.95523,-2.11836 -37.14498,-8.6762 -57.94755,-12.60431 -20.90571,-3.94758 -42.02797,-5.19463 -58.88395,1.73704 -10.83644,4.45699 -9.47134,14.32519 -17.78055,25.69054 z"
   id="path3" />
</g><path
         style="fill:#6b676e;stroke-width:1.42913"
         d="m 66.847228,52.903339 c 0,0 -0.568717,3.692016 -1.421699,7.475635 -0.852081,3.779622 -1.968834,7.667088 -2.63633,8.167935 -0.533748,0.400481 -2.021641,-1.615056 -4.122778,-4.524253 -1.739796,-2.408892 -5.203177,-7.204772 -6.789137,-9.935942 -0.99852,-1.693186 -1.709974,-3.247481 -1.796065,-4.495816 -0.07681,-1.113166 0.927434,-1.82854 2.550675,-2.126405 4.410637,-0.79411 11.983363,1.557558 14.215334,5.438846 z"
         id="path4" /><path
         style="fill:#f0ebe1;stroke-width:1.42913"
         d="m 73.265095,58.776998 c 3.47625,-1.73788 7.417682,-2.400772 11.317174,-2.003142 5.793683,0.49332 10.893919,3.373391 13.710242,6.744322 2.121109,2.538807 3.580209,5.664791 4.241039,8.560329 0.65245,2.858829 0.46096,5.201816 -0.23168,6.207038 -0.30119,0.45126 -0.70451,0.629281 -1.20498,0.486333 0,0 0,0 0,0 -0.42111,-0.121199 -0.89847,-0.472599 -1.468547,-1.083696 -1.250693,-1.34069 -2.783438,-4.311494 -4.830836,-6.973353 -2.079374,-2.703433 -4.501518,-4.951139 -6.415579,-5.317507 -2.532977,-1.530144 -4.94953,-2.721106 -7.108261,-3.642926 -2.983038,-1.354304 -5.821465,-2.310333 -8.008572,-2.977398 z"
         id="path5" /><path
         style="fill:#5f5b62;stroke-width:1.42913;fill-opacity:1"
         d="M 91.832937,44.400018 C 79.441307,34.730237 65.13868,31.72535 54.44953,31.513434 36.337971,31.143101 23.979449,37.847882 17.921582,42.416586 11.373351,47.355111 9.4548828,51.370496 9.4548828,51.370496 9.390174,51.177254 9.4005791,51.046123 9.4005791,51.046123 9.0041408,49.365725 13.699356,37.848461 24.456928,31.885736 c 7.079135,-3.92318 17.996146,-7.510228 30.810427,-7.54924 2.914548,-0.01602 5.887783,0.168371 8.877975,0.585242 6.701849,0.934445 10.550225,-1.304941 14.980691,-4.336092 4.164596,-2.849253 9.03907,-6.629893 16.545414,-6.548646 3.020819,0.03285 6.442465,0.930666 8.769135,2.147049 2.31624,1.210923 3.23098,2.553361 1.34201,3.314687 -2.18855,0.88183 -6.859105,2.656294 -10.237708,6.034694 -3.257179,3.256982 -4.433495,7.143335 -0.466982,11.192772 0.514001,0.524723 1.080716,1.082492 1.699842,1.689444 5.649638,5.574689 17.155048,17.231419 17.892658,34.877945 0.36231,8.967865 -2.22231,18.182931 -8.36932,26.373507 -1.26779,-3.042833 -0.77546,-5.235083 0.33646,-8.743291 0.96832,-3.055129 2.9334,-8.42984 2.58519,-15.43153 -0.31942,-7.88034 -3.57537,-19.969273 -16.754674,-30.589128 -0.209421,-0.168422 -0.421119,-0.336144 -0.635106,-0.503129 -10e-7,0 -2e-6,-10e-7 -3e-6,-2e-6 z"
         id="path6" /><path
         id="path7"
         d="m 32.069791,41.74806 c 0.07416,1.124569 -0.980767,2.11039 -2.345754,2.217262 -1.365117,0.106888 -2.560933,-0.703012 -2.659325,-1.826504 -0.09839,-1.123433 0.947331,-2.135343 2.346535,-2.244354 1.399333,-0.109022 2.584376,0.728969 2.658544,1.853596 z"
         style="fill:#000000;stroke:none;stroke-width:1.37195;stroke-linecap:round;stroke-linejoin:round" /></g></g></svg>
