<?xml version="1.0" encoding="UTF-8" standalone="no"?>
<!-- Generator: Adobe Illustrator 24.1.2, SVG Export Plug-In . SVG Version: 6.00 Build 0)  -->

<svg
   version="1.1"
   id="Layer_1"
   x="0px"
   y="0px"
   viewBox="0 0 128 128"
   style="enable-background:new 0 0 128 128;"
   xml:space="preserve"
   sodipodi:docname="u1fa8a.svg"
   inkscape:version="1.4 (86a8ad7, 2024-10-11)"
   xmlns:inkscape="http://www.inkscape.org/namespaces/inkscape"
   xmlns:sodipodi="http://sodipodi.sourceforge.net/DTD/sodipodi-0.dtd"
   xmlns="http://www.w3.org/2000/svg"
   xmlns:svg="http://www.w3.org/2000/svg"><defs
     id="defs12"><inkscape:path-effect
   effect="bend_path"
   id="path-effect7"
   is_visible="true"
   lpeversion="1"
   bendpath="M 6.2262805,37.163773 C 75.521623,20.855145 127.1669,52.752227 117.369,113.40768"
   prop_scale="1"
   scale_y_rel="false"
   vertical="false"
   hide_knot="false"
   bendpath-nodetypes="cc" />
				
				
			
				
				
				
				
			</defs><sodipodi:namedview
     id="namedview12"
     pagecolor="#ffffff"
     bordercolor="#666666"
     borderopacity="1.0"
     inkscape:showpageshadow="2"
     inkscape:pageopacity="0.0"
     inkscape:pagecheckerboard="0"
     inkscape:deskcolor="#d1d1d1"
     inkscape:zoom="5.8984375"
     inkscape:cx="42.468874"
     inkscape:cy="64.847682"
     inkscape:window-width="1680"
     inkscape:window-height="998"
     inkscape:window-x="-8"
     inkscape:window-y="-8"
     inkscape:window-maximized="1"
     inkscape:current-layer="g8" /><g
     id="g7"><g
       id="g8"
       transform="matrix(1.0933307,0,0,1.0933307,-4.4715952,-9.9413486)"
       style="stroke-width:0.914636"><g
         id="g11"
         transform="matrix(0.26578025,-0.38645432,0.38645432,0.26578025,-41.119334,79.62316)"
         style="stroke-width:1.7836">
	<rect
   x="77.713997"
   y="118.52"
   style="fill:#b7836c;stroke-width:1.7836"
   width="11.15"
   height="54.061001"
   id="rect1" />
	<rect
   x="38.519001"
   y="118.52"
   style="fill:#b7836c;stroke-width:1.7836"
   width="11.15"
   height="54.061001"
   id="rect2" />
	<rect
   x="123.159"
   y="182.364"
   style="fill:#f86e51;stroke-width:1.7836"
   width="11.15"
   height="30.763"
   id="rect3" />
	<rect
   x="155.258"
   y="182.364"
   style="fill:#f86e51;stroke-width:1.7836"
   width="11.15"
   height="30.763"
   id="rect4" />
	<path
   style="fill:#f86e51;stroke-width:1.7836"
   d="M 84.049,202.315 H 66.901 l -3.107,-2.711 c -0.601,-0.524 -1.539,-0.097 -1.539,0.699 v 8.799 h 21.794 z"
   id="path4" />
	<path
   style="fill:#e8563f;stroke-width:1.7836"
   d="m 62.255,209.103 v 11.443 c 0,0.797 0.939,1.224 1.539,0.7 l 3.107,-2.711 h 17.148 v -9.431 H 62.255 Z"
   id="path5" />
	<path
   style="fill:#ffca28;fill-opacity:1;stroke-width:1.7836"
   d="M 272.672,169.879 H 41.39 c -13.902,0 -25.172,-11.27 -25.172,-25.173 0.001,-13.903 11.271,-25.173 25.173,-25.173 h 41.728 c 32.438,0 54.341,17.559 63.802,27.039 1.954,1.958 5.295,0.593 5.295,-2.174 V 78.62 c 0,-2.767 -3.341,-4.132 -5.295,-2.174 -9.461,9.479 -31.364,27.038 -63.802,27.038 H 41.306 C 18.493,103.484 0,121.978 0,144.791 v 0 c 0,22.813 18.493,41.306 41.306,41.306 h 230.691 c 4.479,0 8.109,3.631 8.109,8.109 0,4.478 -3.631,8.109 -8.109,8.109 H 84.049 v 16.218 h 188.623 c 13.436,0 24.328,-10.892 24.328,-24.328 v 0 c 0,-13.435 -10.892,-24.326 -24.328,-24.326 z"
   id="path6" />
	<g
   style="opacity:0.8;stroke-width:1.7836"
   id="g9">
		<path
   style="fill:#eeba00;fill-opacity:1;stroke-width:1.7836"
   d="M 41.392,119.534 H 83.12 c 32.438,0 54.341,17.559 63.802,27.039 1.954,1.958 5.295,0.593 5.295,-2.174 v -9.431 c 0,2.767 -3.341,4.132 -5.295,2.174 -9.461,-9.48 -31.364,-27.039 -63.802,-27.039 H 41.392 c -13.903,0 -25.173,11.27 -25.173,25.173 0,1.613 0.158,3.188 0.448,4.716 2.207,-11.649 12.434,-20.458 24.725,-20.458 z"
   id="path7" />
		<path
   style="fill:#f1bd08;fill-opacity:1;stroke-width:1.7836"
   d="M 272.672,209.103 H 84.049 v 9.431 h 188.623 c 13.436,0 24.328,-10.892 24.328,-24.328 0,-1.614 -0.161,-3.19 -0.461,-4.716 -2.196,11.179 -12.045,19.613 -23.867,19.613 z"
   id="path8" />
		<path
   style="fill:#f1bd08;fill-opacity:1;stroke-width:1.7836"
   d="m 278.585,189.491 c 0.953,-1.33 1.521,-2.955 1.521,-4.715 0,-4.479 -3.631,-8.109 -8.109,-8.109 H 41.306 c -21.217,0 -38.689,-16 -41.03,-36.591 C 0.1,141.624 0,143.195 0,144.791 c 0,22.813 18.493,41.306 41.306,41.306 h 230.691 c 2.718,0 5.117,1.342 6.588,3.394 z"
   id="path9" />
	<path
   style="fill:#fff9c4;fill-opacity:1;stroke:none;stroke-width:1.95007px;stroke-linecap:butt;stroke-linejoin:miter;stroke-opacity:1"
   d="m 146.96921,86.527253 -0.33901,17.589817 c -0.0191,0.98928 -0.61111,1.37237 -1.57444,1.55572 -11.26065,2.14331 -29.3348,2.86273 -37.54998,1.34279 -0.85965,-0.15905 -1.33181,-1.62314 -0.26855,-1.8654 10.52803,-2.39882 27.16218,-11.388358 37.55976,-19.602222 0.57856,-0.457049 2.20966,-0.96349 2.17222,0.979295 z"
   id="path3"
   sodipodi:nodetypes="sssssss" /></g>
	<circle
   style="fill:#f86e51;stroke-width:1.7836"
   cx="44.094002"
   cy="145.55099"
   r="10.305"
   id="circle9" />
	
</g></g></g></svg>
