<?xml version="1.0" standalone="no"?>
<!DOCTYPE svg PUBLIC "-//W3C//DTD SVG 1.1//EN" "http://www.w3.org/Graphics/SVG/1.1/DTD/svg11.dtd" >
<svg xmlns="http://www.w3.org/2000/svg" xmlns:xlink="http://www.w3.org/1999/xlink" version="1.1" viewBox="-10 0 667 1000">
   <path fill="currentColor"
d="M49 867v-73q115 -55 173 -102q-48 -12 -72 -26t-31.5 -29.5t-7.5 -31.5q0 -38 40 -68.5t116 -30.5q110 0 110 70q0 17 -6 33t-23 32q79 -7 113.5 -37.5t34.5 -71.5q0 -92 -142 -92q-145 0 -313 117v-80l342 -186l-282 2v-69h389v73l-155 93q33 -3 61 -3q176 0 176 139
q0 76 -57.5 126.5t-171.5 50.5q-10 0 -20 -0.5t-20 -1.5q-22 18 -48 36t-57 35q20 -5 37 -7.5t30 -2.5q22 0 46.5 12t52.5 12q47 0 96 -26l2 66q-64 30 -106 30q-31 0 -59.5 -12.5t-58.5 -23.5t-64 -6zM275 639q28 -32 28 -48q0 -34 -58 -34q-65 0 -65 43q0 30 95 39z
M596 871h-83q-34 -116 -76 -170l90 -1q45 70 69 171z" />
</svg>
