<?xml version="1.0" encoding="UTF-8" standalone="no"?>
<svg
   version="1.1"
   viewBox="-10 0 569 1000"
   id="svg1"
   sodipodi:docname="C1.svg"
   inkscape:version="1.4 (86a8ad7, 2024-10-11)"
   xmlns:inkscape="http://www.inkscape.org/namespaces/inkscape"
   xmlns:sodipodi="http://sodipodi.sourceforge.net/DTD/sodipodi-0.dtd"
   xmlns="http://www.w3.org/2000/svg"
   xmlns:svg="http://www.w3.org/2000/svg">
  <defs
     id="defs1" />
  <sodipodi:namedview
     id="namedview1"
     pagecolor="#ffffff"
     bordercolor="#666666"
     borderopacity="1.0"
     inkscape:showpageshadow="2"
     inkscape:pageopacity="0.0"
     inkscape:pagecheckerboard="0"
     inkscape:deskcolor="#d1d1d1"
     showguides="true"
     inkscape:zoom="0.26693281"
     inkscape:cx="670.58074"
     inkscape:cy="200.42497"
     inkscape:window-width="1680"
     inkscape:window-height="998"
     inkscape:window-x="-8"
     inkscape:window-y="-8"
     inkscape:window-maximized="1"
     inkscape:current-layer="svg1">
    <sodipodi:guide
       position="289.5,924"
       orientation="0,-1"
       id="guide1"
       inkscape:locked="false" />
    <sodipodi:guide
       position="290,190"
       orientation="0,-1"
       id="guide2"
       inkscape:locked="false" />
  </sodipodi:namedview>
  <path
     class="cls-1"
     d="m 437.42067,726.24131 v 0 c -11.71933,25.98581 -19.466,54.1858 -22.4338,83.75869 l 248.00447,-52.71943 c 11.71932,-25.97998 19.46015,-54.1858 22.4338,-83.75869 z"
     id="path1"
     style="fill:#231f20;stroke-width:0.999998" />
  <path
     class="cls-1"
     d="m 662.99134,599.33845 c 11.71932,-25.97998 19.46599,-54.1858 22.4338,-83.75869 l -193.18772,41.08773 v -78.98566 l 170.74808,-36.2855 c 11.71932,-25.97998 19.46599,-54.1858 22.4338,-83.75869 L 492.23158,398.69032 V 114.63403 c -29.6021,16.62088 -55.89171,38.74504 -77.26224,64.84186 v 235.64252 l -77.26223,16.42224 V 75.999996 c -29.6021,16.615032 -55.89171,38.745044 -77.26224,64.841854 v 307.1152 L 87.570254,484.69239 c -11.719323,25.97998 -19.471836,54.1858 -22.445483,83.75869 L 260.44487,526.94271 V 626.4109 L 51.121174,670.89292 C 39.401851,696.87289 31.65518,725.07872 28.687375,754.65161 L 247.79081,708.08979 c 17.83603,-3.70975 33.1658,-14.25481 43.13248,-28.76667 l 40.1822,-59.57225 v -0.0117 c 4.17129,-6.16345 6.60162,-13.59464 6.60162,-21.59837 v -87.62034 l 77.26223,-16.42224 v 157.97133 l 248.01616,-52.7428 z"
     id="path2"
     style="fill:#231f20;stroke-width:0.999998" />
</svg>
