<?xml version="1.0" encoding="UTF-8" standalone="no"?>
<svg
   version="1.1"
   viewBox="-10 0 1000 1000"
   id="svg1"
   sodipodi:docname="C4.svg"
   width="1000"
   height="1000"
   inkscape:version="1.4.3 (0d15f75, 2025-12-25)"
   xmlns:inkscape="http://www.inkscape.org/namespaces/inkscape"
   xmlns:sodipodi="http://sodipodi.sourceforge.net/DTD/sodipodi-0.dtd"
   xmlns="http://www.w3.org/2000/svg"
   xmlns:svg="http://www.w3.org/2000/svg">
  <defs
     id="defs1" />
  <sodipodi:namedview
     id="namedview1"
     pagecolor="#ffffff"
     bordercolor="#666666"
     borderopacity="1.0"
     inkscape:showpageshadow="2"
     inkscape:pageopacity="0.0"
     inkscape:pagecheckerboard="0"
     inkscape:deskcolor="#d1d1d1"
     showguides="true"
     inkscape:zoom="0.53386562"
     inkscape:cx="516.04747"
     inkscape:cy="780.15887"
     inkscape:window-width="1680"
     inkscape:window-height="998"
     inkscape:window-x="-8"
     inkscape:window-y="-8"
     inkscape:window-maximized="1"
     inkscape:current-layer="RHhDp6-3">
    <sodipodi:guide
       position="288.5,924"
       orientation="0,-1"
       id="guide1"
       inkscape:locked="false" />
    <sodipodi:guide
       position="71,200"
       orientation="0,-1"
       id="guide2"
       inkscape:locked="false" />
  </sodipodi:namedview>
  <g
     id="RHhDp6"
     transform="matrix(1.9055676,0,0,1.9055676,-29.112843,42.536871)"
     style="stroke-width:0.524778">
    <g
       id="RHhDp6-3"
       style="fill:#000000;stroke-width:0.248653"
       transform="matrix(1.1075356,0,0,1.1075356,-4.7777505,4.8897164)">
      <path
         class="cls-1"
         d="m 241.67,213.77 c -0.63,-49.2 11.44,-95.41 35.76,-137.75 36.04,-62.74 75.59,-82.5 144.12,-47.15 10.67,5.5 53.6,35.43 57.81,44.54 5.03,10.87 -27.48,103.87 -29.11,122.3 -34.69,-37.51 -99.37,-98.66 -154.85,-69.62 -45.05,23.58 -12.02,62.54 11.46,87.68 h 409.36 l -26.41,47.64 h -332.5 c -0.31,1.8 0.87,3.3 2.53,4.6 12.44,9.72 80.97,39.54 94.75,39.54 H 665.3 l -26.89,48.94 H 13.37 L 40.28,305.55 H 293.66 L 256.55,261.42 H 64.75 l 26.41,-47.64 h 150.51 z"
         id="path1"
         style="fill:#000000;stroke-width:0.248653" />
    </g>
  </g>
</svg>
