<svg height="24" viewBox="0 0 24 24" width="24" xmlns="http://www.w3.org/2000/svg"><path d="m16.83 4.76-.99-.92c-.25.06-.95.11-1.29.11-.89 0-7.87 0-8.72 0-.62 0-1.26-.06-1.84-.14v1.73c.67-.05 1.22-.09 1.84-.09h8.55c-.45.89-1.81 2.43-3.18 3.23l1.29 1.04c1.67-1.19 3.15-3.17 3.82-4.31.13-.18.38-.48.52-.65zm-6.3 2.07h-1.78c.08.45.09.83.09 1.25 0 2.59-.36 4.55-2.59 5.99-.5.36-1.04.61-1.5.76l1.43 1.17c4.1-2.11 4.33-5.1 4.33-9.17z" fill="#c00"/><path d="m12.3 10.7v1.23c.4-.02.84-.04 1.21-.04h5.59c-.08.62-.21 1.26-.38 1.85h-5.08c-.36 0-.73-.02-1.05-.04v1.14c.37-.03.69-.04 1.08-.04h4.68c-.12.28-.26.53-.4.75-.98 1.44-2.61 2.48-4.54 2.94l.92.98c2.32-.8 3.71-1.94 4.74-3.54.65-1.02 1.07-2.79 1.34-4.19.04-.18.1-.33.16-.45l-.89-.56c-.24.07-.54.08-.83.08-.6 0-4.59 0-5.33 0-.47 0-.94-.06-1.21-.09z" fill="#3465a4" transform="scale(.9729 1.0279)"/></svg>