<?xml version="1.0" encoding="UTF-8" standalone="no"?>
<svg
   version="1.1"
   viewBox="-10 0 642 1000"
   id="svg4"
   sodipodi:docname="1DF17.svg"
   inkscape:version="1.1.1 (3bf5ae0d25, 2021-09-20)"
   xmlns:inkscape="http://www.inkscape.org/namespaces/inkscape"
   xmlns:sodipodi="http://sodipodi.sourceforge.net/DTD/sodipodi-0.dtd"
   xmlns="http://www.w3.org/2000/svg"
   xmlns:svg="http://www.w3.org/2000/svg">
  <defs
     id="defs8" />
  <sodipodi:namedview
     id="namedview6"
     pagecolor="#ffffff"
     bordercolor="#666666"
     borderopacity="1.0"
     inkscape:pageshadow="2"
     inkscape:pageopacity="0.0"
     inkscape:pagecheckerboard="0"
     showgrid="false"
     inkscape:zoom="0.719"
     inkscape:cx="320.58414"
     inkscape:cy="499.30459"
     inkscape:window-width="1680"
     inkscape:window-height="998"
     inkscape:window-x="-8"
     inkscape:window-y="-8"
     inkscape:window-maximized="1"
     inkscape:current-layer="svg4"
     inkscape:object-paths="true" />
  <path
     fill="currentColor"
     d="M296 1040q-64 0 -97 -22.5t-33 -56.5q0 -27 18.5 -46.5t58.5 -20.5q0 100 52 100q21 0 35 -15.5t21.5 -55.5t7.5 -114v-15q-14 6 -43.5 11t-56.5 5q-85 0 -124.5 -34.5t-39.5 -120.5v-334h-76v-40q18 0 40 -7.5t38 -24.5q17 -18 28 -44t18 -64h46v123h170v-41 q2 -101 38.5 -144.5t116.5 -43.5q55 0 81.5 24t26.5 55q0 25 -18.5 41t-58.5 16q0 -20 -3.5 -41t-12.5 -35t-26 -14q-29 0 -39.5 24.5t-10.5 87.5v615q0 124 -43 178t-114 54zM281 757q22 0 40.5 -2t37.5 -5v-429h-170v337q0 51 25 75t67 24z"
     id="path2" />
  <path
     fill="currentColor"
     d="m 453,754.26912 h 222.99996 v 171 c 0,46.66667 -8.00004,82.99998 -24.00004,108.99998 -16,26 -42.6666,39 -79.99992,39 -23.33333,0 -41.83333,-4.6666 -55.5,-14 -13.66667,-9.3333 -20.5,-23 -20.5,-41 0,-14.6666 5,-26.99998 15,-36.99998 8,5.33333 16,9.33333 24,12 8,2.66667 17.33333,4 28,4 16.66663,0 30.33332,-5.16667 40.99992,-15.5 10.6667,-10.33333 16,-29.16667 16,-56.5 v -119 H 453 Z"
     id="path2-0"
     sodipodi:nodetypes="ccssssscssssccc" />
</svg>
