<?xml version="1.0" encoding="UTF-8" standalone="no"?>
<svg
   version="1.1"
   viewBox="-10 0 961 1000"
   id="svg4"
   sodipodi:docname="1DF12.svg"
   inkscape:version="1.1.1 (3bf5ae0d25, 2021-09-20)"
   xmlns:inkscape="http://www.inkscape.org/namespaces/inkscape"
   xmlns:sodipodi="http://sodipodi.sourceforge.net/DTD/sodipodi-0.dtd"
   xmlns="http://www.w3.org/2000/svg"
   xmlns:svg="http://www.w3.org/2000/svg">
  <defs
     id="defs8" />
  <sodipodi:namedview
     id="namedview6"
     pagecolor="#ffffff"
     bordercolor="#666666"
     borderopacity="1.0"
     inkscape:pageshadow="2"
     inkscape:pageopacity="0.0"
     inkscape:pagecheckerboard="0"
     showgrid="false"
     inkscape:zoom="0.719"
     inkscape:cx="800.41725"
     inkscape:cy="721.83588"
     inkscape:window-width="1680"
     inkscape:window-height="998"
     inkscape:window-x="-8"
     inkscape:window-y="-8"
     inkscape:window-maximized="1"
     inkscape:current-layer="svg4"
     inkscape:object-paths="true" />
  <path
     fill="currentColor"
     d="M641 1040q-76 0 -119 -15t-60.5 -37.5t-17.5 -45.5q0 -29 17 -46.5t57 -17.5q0 27 13 53.5t40 43.5t69 17q44 0 80 -19.5t57.5 -62t21.5 -110.5q0 -174 -200 -174h-23v-41l197 -241h-267v346q0 44 24.5 56t57.5 12h8v42h-169l-11 -90h-4q-22 46 -58 73t-95 27 q-99 0 -151.5 -66.5t-52.5 -210.5q0 -145 52.5 -212t151.5 -67q58 0 94.5 24.5t58.5 63.5h6l-1 -13.5t-2 -32.5t-2 -37t-1 -27v-82q0 -44 -24.5 -56t-57.5 -12h-8v-42h184v224h364v49l-216 260q69 4 123.5 26t86.5 68.5t32 124.5q0 87 -36 141.5t-94 80.5t-125 26zM276 746 q78 0 107 -52.5t29 -160.5q0 -104 -29 -159.5t-108 -55.5q-66 0 -94.5 55.5t-28.5 160.5q0 106 28.5 159t95.5 53z"
     id="path2" />
  <path
     fill="currentColor"
     d="m 870.58938,678 h 222.99992 v 171 c 0,46.66667 -8,83 -24,109 -16,26 -42.6666,39 -79.99992,39 -23.33333,0 -41.83333,-4.66667 -55.5,-14 -13.66667,-9.33333 -20.5,-23 -20.5,-41 0,-14.66667 5,-27 15,-37 8,5.33333 16,9.33333 24,12 8,2.66667 17.33333,4 28,4 16.66663,0 30.33332,-5.16667 40.99992,-15.5 10.6667,-10.33333 16,-29.16667 16,-56.5 V 730 H 870.58938 Z"
     id="path2-0"
     sodipodi:nodetypes="ccssssscssssccc" />
</svg>
