<?xml version="1.0" encoding="UTF-8" standalone="no"?>
<svg
   version="1.1"
   viewBox="-10 0 362 1000"
   id="svg1375"
   sodipodi:docname="1DF2A.svg"
   inkscape:version="1.2.1 (9c6d41e410, 2022-07-14)"
   xmlns:inkscape="http://www.inkscape.org/namespaces/inkscape"
   xmlns:sodipodi="http://sodipodi.sourceforge.net/DTD/sodipodi-0.dtd"
   xmlns="http://www.w3.org/2000/svg"
   xmlns:svg="http://www.w3.org/2000/svg">
  <defs
     id="defs1379" />
  <sodipodi:namedview
     id="namedview1377"
     pagecolor="#ffffff"
     bordercolor="#666666"
     borderopacity="1.0"
     inkscape:showpageshadow="2"
     inkscape:pageopacity="0.0"
     inkscape:pagecheckerboard="0"
     inkscape:deskcolor="#d1d1d1"
     showgrid="false"
     inkscape:zoom="1.888"
     inkscape:cx="144.86229"
     inkscape:cy="277.01271"
     inkscape:window-width="1680"
     inkscape:window-height="998"
     inkscape:window-x="-8"
     inkscape:window-y="-8"
     inkscape:window-maximized="1"
     inkscape:current-layer="svg1375" />
  <path
     id="path1373"
     d="m 143,141 c -4.66666,25.33328 -10.66668,46.6667 -18,64 -7.33332,17.3333 -16.66669,32.00002 -28,44 -0.651412,0.69213 -1.333669,1.3354 -2,2.00391 V 363 h -8.851562 c -8.666662,-19.99998 -18.000011,-38.33335 -28,-55 -9.99999,-16.66665 -23.333347,-29.83334 -40,-39.5 -16.6666538,-9.66666 -39.6667,-14.5 -69,-14.5 -36.666634,0 -63.833348,6.33334 -81.499998,19 -17.66665,12.66666 -26.5,30.66669 -26.5,54 0,20.66665 7.16668,37.66668 21.5,51 14.33331,13.33332 38.166701,20 71.499998,20 0,-27.3333 4.000008,-47.16668 12,-59.5 7.999991,-12.33332 19.723135,-18.5 41,-18.5 20.5431865,0 37.784589,7.33334 51.724609,22 13.940021,14.66666 24.945092,33.33335 33.015625,56 8.070532,22.66665 13.940954,46.16669 17.609375,70.5 C 93.166469,492.83331 95,514.66669 95,534 v 121 c 0,57.33322 11.50004,97.50004 34.5,120.5 22.99996,22.99996 59.83343,34.5 110.5,34.5 15.99996,0 32.6667,-1.66667 50,-5 17.3333,-3.33333 30.33335,-7 39,-11 v -44 c -10.66665,2 -21.00002,3.66667 -31,5 -9.99998,1.33333 -21.00002,2 -33,2 -22.66662,0 -41.00002,-8.00004 -55,-24 -13.99998,-15.99996 -21,-41.00006 -21,-75 V 321 H 320 V 264 H 189 V 141 Z"
     sodipodi:nodetypes="csccccsssssscssssssssssccsssscccccc" />
</svg>
