<?xml version="1.0" standalone="no"?>
<!DOCTYPE svg PUBLIC "-//W3C//DTD SVG 1.1//EN" "http://www.w3.org/Graphics/SVG/1.1/DTD/svg11.dtd" >
<svg xmlns="http://www.w3.org/2000/svg" xmlns:xlink="http://www.w3.org/1999/xlink" version="1.1" viewBox="-561 0 1123 1000">
   <path fill="currentColor"
d="M-31 234v-126h-139v-54h139v-122h62v122h140v54h-140v126h-62zM-551 299v-54h316v54h-316zM235 299v-54h317v54h-317zM-551 552v-53h316v53h-316zM235 552v-53h317v53h-317zM-551 806v-54h316v54h-316zM235 806v-54h317v54h-317zM-221 1136v-303h62v303h-62zM-31 1136
v-303h62v303h-62zM160 1136v-303h62v303h-62z" />
</svg>
