<?xml version="1.0" encoding="UTF-8" standalone="no"?>
<svg
   width="900"
   height="1000"
   id="svg1333"
   sodipodi:version="0.32"
   inkscape:version="1.4.2 (f4327f4, 2025-05-13)"
   sodipodi:docname="1300E.svg"
   version="1.1"
   xmlns:inkscape="http://www.inkscape.org/namespaces/inkscape"
   xmlns:sodipodi="http://sodipodi.sourceforge.net/DTD/sodipodi-0.dtd"
   xmlns="http://www.w3.org/2000/svg"
   xmlns:svg="http://www.w3.org/2000/svg"
   xmlns:rdf="http://www.w3.org/1999/02/22-rdf-syntax-ns#"
   xmlns:cc="http://creativecommons.org/ns#"
   xmlns:dc="http://purl.org/dc/elements/1.1/">
  <metadata
     id="metadata1340">
    <rdf:RDF>
      <cc:Work
         rdf:about="">
        <dc:format>image/svg+xml</dc:format>
        <dc:type
           rdf:resource="http://purl.org/dc/dcmitype/StillImage" />
        <dc:creator>
          <cc:Agent>
            <dc:title>Serge Thomas</dc:title>
          </cc:Agent>
        </dc:creator>
        <dc:publisher>
          <cc:Agent>
            <dc:title>Serge Rosmorduc</dc:title>
          </cc:Agent>
        </dc:publisher>
        <dc:date>03/04/06</dc:date>
        <dc:description>variante optimisée du signe de Jsesh</dc:description>
        <cc:license
           rdf:resource="http://creativecommons.org/licenses/GPL/2.0/" />
      </cc:Work>
      <cc:License
         rdf:about="http://creativecommons.org/licenses/GPL/2.0/">
        <cc:permits
           rdf:resource="http://web.resource.org/cc/Reproduction" />
        <cc:permits
           rdf:resource="http://web.resource.org/cc/Distribution" />
        <cc:requires
           rdf:resource="http://web.resource.org/cc/Notice" />
        <cc:permits
           rdf:resource="http://web.resource.org/cc/DerivativeWorks" />
        <cc:requires
           rdf:resource="http://web.resource.org/cc/ShareAlike" />
        <cc:requires
           rdf:resource="http://web.resource.org/cc/SourceCode" />
      </cc:License>
    </rdf:RDF>
  </metadata>
  <defs
     id="defs1338" />
  <sodipodi:namedview
     inkscape:window-height="998"
     inkscape:window-width="1680"
     inkscape:pageshadow="2"
     inkscape:pageopacity="0.0"
     borderopacity="1.0"
     bordercolor="#666666"
     pagecolor="#ffffff"
     id="base"
     inkscape:zoom="0.26693281"
     inkscape:cx="342.78289"
     inkscape:cy="252.87262"
     inkscape:window-x="-8"
     inkscape:window-y="-8"
     inkscape:current-layer="svg1333"
     inkscape:showpageshadow="2"
     inkscape:pagecheckerboard="0"
     inkscape:deskcolor="#d1d1d1"
     showguides="true"
     inkscape:window-maximized="1">
    <sodipodi:guide
       position="800,1000"
       orientation="0,-1"
       id="guide1"
       inkscape:locked="false" />
    <sodipodi:guide
       position="800,0"
       orientation="0,-1"
       id="guide2"
       inkscape:locked="false" />
    <sodipodi:guide
       position="1428.9261,881.99354"
       orientation="0,-1"
       id="guide6"
       inkscape:locked="false" />
    <sodipodi:guide
       position="1102.4141,937.39052"
       orientation="0,-1"
       id="guide7"
       inkscape:locked="false" />
    <sodipodi:guide
       position="1102.453,364.72076"
       orientation="0,-1"
       id="guide8"
       inkscape:locked="false" />
  </sodipodi:namedview>
  <path
     id="path13"
     style="fill:#000000;stroke:none;stroke-width:1"
     d="M 726.81445 0 C 715.32981 -0.04519091 703.5374 5.728645 689.65625 17.976562 L 588.4082 125.75977 C 570.4345 120.20119 551.34741 117.63089 531.14648 118.05078 C 523.10686 118.21788 514.89251 118.85862 506.5 119.97266 C 472.93014 124.42885 448.71727 150.42252 433.86328 197.95508 C 425.54513 208.64994 416.03861 223.20808 405.34375 241.62695 C 399.40203 254.10428 399.10383 261.08495 404.45117 262.57031 C 409.7986 264.05571 414.25547 266.28507 417.82031 269.25586 C 408.48945 274.58805 412.53937 279.81119 418.71094 280.83984 C 420.49309 280.24567 419.90033 281.43547 416.92969 284.40625 C 413.95861 287.37702 414.40365 289.90093 418.26562 291.98047 C 422.1277 294.05999 424.05859 300.44772 424.05859 311.14258 C 424.05859 321.24323 429.70322 326.29297 440.99219 326.29297 C 454.06367 326.29297 463.57018 325.70002 469.51172 324.51172 L 473.07617 352.14062 C 416.03702 352.73476 376.22833 366.69609 353.65039 394.02734 C 314.37563 438.48861 272.79447 477.54433 243.84375 522.79883 C 212.88087 494.16883 160.93486 459.00489 110.0918 425.09375 C 107.51708 416.34071 104.15554 407.21837 99.861328 398.5332 L 99.861328 62.609375 C 30.689348 97.931207 -3.8964844 146.25344 -3.8964844 207.57617 C -3.8964844 252.70979 10.331308 293.67396 38.785156 330.4668 L 38.785156 378.12109 C 24.381116 391.98036 15.639079 412.72415 29.378906 423.38672 C 32.468712 425.59363 35.605127 427.74005 38.785156 429.81836 L 38.785156 479.84961 C 10.331308 511.73679 -3.8964844 552.94515 -3.8964844 603.47461 C -3.8964844 663.81719 30.689348 712.87585 99.861328 750.65039 L 99.861328 466.70898 C 152.00204 521.40634 204.45989 565.91583 258.47266 597.17578 C 313.10196 549.70958 343.55072 505.13616 375.04102 468.89258 C 373.2586 494.44135 376.67572 522.21771 385.29102 552.22266 C 392.38146 576.91668 407.61907 630.6883 431.00781 713.53516 L 328.94727 635.08008 C 305.25599 614.00547 284.40908 603.46875 266.48047 603.46875 C 216.21634 604.09768 194.02808 624.48801 199.79102 664.75 L 225.39648 882.22852 C 199.15703 904.71279 187.5526 926.39683 190.50586 947.28711 L 196.60156 957.79297 L 190.69336 957.60938 C 173.40507 961.06925 157.54362 965.87905 143.13672 972.16992 C 129.04989 978.14643 114.86979 980.52384 100.46289 979.26562 C 86.055936 978.32192 75.928796 985.21632 70.166016 1000 L 305.9668 1000 L 305.6875 990.87891 C 332.67118 984.80111 365.59332 975.70438 404.45117 963.50586 C 496.07907 924.20011 546.04115 904.52932 554.42969 904.5293 C 567.98027 921.01245 567.98027 943.54987 554.42969 972.07812 C 532.49049 979.68582 524.80897 987.89795 531.26172 996.77344 C 545.45756 997.40755 560.23628 996.59551 575.72266 994.37891 C 591.20912 992.15993 602.87018 972.48708 610.61328 935.40039 C 618.35656 898.31326 622.68249 872.19371 623.65039 856.97852 C 624.61846 841.76337 618.0553 833.83907 603.85938 833.20508 C 616.76468 811.65025 617.35332 777.08059 605.73828 729.5332 C 603.74035 714.08492 602.83777 698.93952 602.83789 683.98438 C 605.03239 656.45602 608.08317 629.39294 612.04297 602.33594 C 645.67995 617.56666 681.19893 631.59546 708.24805 637.15039 C 740.23862 643.72017 763.81255 631.90131 755.6543 607.01758 C 742.65699 567.37489 716.44354 488.17254 666.47656 382.44141 C 654.02376 367.42484 637.71498 358.52169 621.23828 353.36523 L 713.40234 209.88281 L 683.95312 190.9668 L 583.73047 346.99609 C 579.5648 346.79018 575.62569 346.74071 572.00391 346.79102 L 572.00391 303.12109 C 588.0462 296.58535 603.49562 284.40479 618.34961 266.58008 C 633.20351 248.75536 640.62891 224.09774 640.62891 192.60742 C 640.62891 168.43391 632.4012 150.3878 615.94531 138.46875 L 626.51367 126.84766 C 638.12627 126.84766 649.73896 142.81642 661.35156 174.75195 L 722.31836 72.412109 C 739.01116 79.670679 752.98347 75.315436 764.23438 59.347656 C 775.48538 43.379885 777.04353 27.023789 753.89062 10.355469 C 744.49391 3.5906068 735.74696 0.035148485 726.81445 0 z M 726.45312 20.902344 C 730.45638 20.794459 734.6312 22.480452 742.00977 25.849609 C 757.07787 32.724276 752.65945 43.348979 746.12695 49.880859 C 739.59445 56.413309 733.59656 59.348412 714.72266 50.638672 L 664.64453 131.03125 C 661.01653 112.88563 657.70063 109.42757 635.92773 107.25195 L 705.41992 30.457031 C 716.44346 24.145904 721.30608 21.041053 726.45312 20.902344 z M 73.371094 115.5918 L 73.371094 326.78711 C 40.502207 279.69163 24.066406 238.97382 24.066406 204.63281 C 24.066406 170.78289 40.502207 141.10208 73.371094 115.5918 z M 536.57617 134.00977 C 548.90491 134.75246 562.49766 137.05595 577.35156 140.91797 C 607.05953 148.64202 621.91211 166.46522 621.91211 194.39062 C 621.91211 221.72185 611.96091 244.89322 592.05664 263.90625 C 572.15236 282.9193 559.52508 287.97097 554.17773 279.05859 C 547.64199 270.74037 552.5455 258.55982 568.88477 242.51758 C 585.22385 226.47534 589.23418 210.72933 580.91602 195.28125 C 572.59777 179.83313 555.07105 178.64532 528.33398 191.7168 C 519.42162 181.61611 498.03106 173.89234 464.16406 168.54492 C 470.6998 151.90852 483.77169 141.21421 503.37891 136.46094 C 513.18252 134.08433 524.24739 133.26707 536.57617 134.00977 z M 455.25195 183.69531 C 482.58313 185.47779 505.16153 192.60865 522.98633 205.08594 C 521.79802 215.78079 525.95828 216.22549 535.46484 206.42188 C 554.77315 186.51012 579.37108 196.76302 565.76562 223.35547 C 559.22988 236.12984 551.06142 246.97435 541.25781 255.88672 C 531.4542 264.79906 529.22484 273.71069 534.57227 282.62305 C 539.9197 291.53542 543.48507 299.26113 545.26758 305.79688 C 544.67338 353.32946 548.53332 377.39021 556.85156 377.98438 C 559.10957 378.11868 561.37268 378.21288 563.63672 378.2793 L 497.125 481.82617 L 497.12305 481.82617 C 496.07484 481.34128 495.01729 480.88058 493.94727 480.44531 C 470.18973 470.94306 442.79103 523.64153 458.04688 542.66211 L 436.70117 575.89453 L 466.14844 594.81055 L 491.28125 555.68359 C 504.59534 557.88373 519.09851 558.4522 532.34961 558.48242 C 545.33143 567.58005 558.14992 576.77827 586.55078 590.42773 C 580.45291 621.9119 575.44062 654.68306 571.51562 688.74219 C 545.45983 697.50009 507.0205 711.34281 466.88281 729.41602 C 433.12869 607.15672 414.5449 538.28754 411.13477 522.81055 C 407.27085 505.28291 405.93652 467.11063 407.125 408.28906 C 405.93669 389.27603 420.19837 379.76758 449.90625 379.76758 C 479.61413 379.76758 494.76322 369.36972 495.35742 348.57422 C 495.35742 322.43127 484.36664 310.54913 462.38281 312.92578 C 440.39897 315.30242 431.18908 308.17351 434.75391 291.53711 C 447.82548 283.81304 452.43034 278.31477 448.56836 275.04688 C 444.70629 271.77898 437.72373 269.85 427.62305 269.25586 C 427.62305 263.3143 422.57332 258.26264 412.47266 254.10352 C 422.57332 231.52553 432.37635 215.78152 441.88281 206.86914 C 451.38928 202.11589 461.34242 202.11589 471.74023 206.86914 C 482.13795 211.62241 492.38752 214.8894 502.48828 216.67188 L 502.48828 210.43164 C 495.95254 209.83748 487.48561 206.71872 477.08789 201.07422 C 466.69008 195.42973 456.144 194.39018 445.44922 197.95508 C 449.01415 192.01353 452.28131 187.26026 455.25195 183.69531 z M 555.47656 200.93164 C 553.61309 200.82457 551.39907 201.14807 548.83203 201.96484 C 535.18823 206.30605 520.90111 228.25094 525.66016 235.38867 C 514.81915 240.20707 512.38099 251.35382 522.09375 254.99609 C 532.344 258.83994 554.81442 235.58382 560.41797 221.57422 C 565.06555 209.9547 563.55164 201.39562 555.47656 200.93164 z M 456.97461 208.36523 C 453.22631 208.48127 449.68197 209.46748 446.33984 211.32422 L 437.42578 219.3457 L 437.42578 226.47461 L 441.88281 226.47461 C 454.36009 232.41616 468.32339 232.41616 483.77148 226.47461 L 499.81445 229.14844 L 499.81445 221.12891 L 484.66406 220.23633 C 474.452 212.06666 465.22088 208.10993 456.97461 208.36523 z M 551.5625 210.46289 C 554.23617 210.53599 555.40459 212.16091 555.07031 215.33594 C 554.47622 220.98045 551.95032 226.3286 547.49414 231.37891 C 543.03796 236.42926 538.87956 239.99273 535.01758 242.07227 C 531.1556 244.15182 531.1556 242.51735 535.01758 237.16992 C 538.87956 231.8223 538.87956 229.8935 535.01758 231.37891 C 531.1556 232.86431 530.41414 231.22786 532.79102 226.47461 C 535.16764 221.72134 538.43471 217.26654 542.59375 213.10742 C 546.49295 211.28781 549.48294 210.40603 551.5625 210.46289 z M 454.35938 213.99805 C 451.9825 216.96884 451.98249 220.23778 454.35938 223.80273 C 450.79437 222.61443 447.82557 221.42463 445.44922 220.23633 C 446.63753 217.85969 449.60606 215.78052 454.35938 213.99805 z M 465.94727 215.78125 L 478.42383 222.91211 C 473.67051 224.10041 468.91738 224.69336 464.16406 224.69336 C 468.32362 222.31672 468.9179 219.3462 465.94727 215.78125 z M 524.76758 242.51758 C 528.92662 245.48835 529.67163 248.01421 526.99805 250.09375 C 524.32446 252.17348 522.39152 252.02508 521.20312 249.64844 C 520.01464 247.27179 521.20275 244.89423 524.76758 242.51758 z M 439.61719 252.07617 C 438.56806 252.04797 437.54433 253.92414 437.87305 255.88672 C 438.3831 258.94628 434.53776 262.13251 429.85156 256.77734 C 424.13475 250.24341 421.38486 253.54308 421.38477 257.66992 C 423.7613 256.48192 426.28557 257.52135 428.95898 260.78906 C 434.84813 267.98689 441.98107 261.29443 441.4375 255.88672 C 441.16196 253.13129 440.38285 252.09674 439.61719 252.07617 z M 424.74023 273.43945 C 426.76301 273.49885 429.03869 274.19719 438.76562 275.49414 C 443.22197 276.08827 445.15093 276.38477 444.55664 276.38477 L 423.16797 277.27539 C 419.26039 276.29781 419.70749 273.29203 424.74023 273.43945 z M 443.66602 279.05859 C 441.75545 280.9688 433.92752 284.6276 428.51562 285.29688 C 423.05962 285.97159 422.88066 283.80067 424.94922 281.73242 L 443.66602 279.05859 z M 604.44531 379.50781 C 605.76215 379.64541 607.07798 379.80219 608.39062 379.98047 C 630.30561 382.95692 630.31731 422.67254 608.54492 498.30273 C 604.65295 511.82232 600.99932 525.62441 597.58398 539.70898 C 576.50798 532.43583 569.90393 532.64668 543.25977 523.5957 C 537.99185 516.31755 532.0711 509.04134 525.48633 502.43164 L 604.44531 379.50781 z M 636.78711 476.53125 C 656.46471 523.46969 661.59779 536.17982 691.74023 580.8418 C 666.36364 568.30457 644.24463 557.69911 621.11914 548.4707 C 625.62012 524.81823 630.83075 500.93776 636.78711 476.53125 z M 73.371094 487.20703 L 73.371094 693.98828 C 40.011572 668.478 23.453792 637.32564 23.699219 600.53125 C 23.945311 563.73775 40.503093 525.9624 73.371094 487.20703 z M 263.10352 659.58984 L 302.02734 659.58984 L 428.74414 749.90039 C 376.95064 777.20648 329.035 810.08278 281.20508 843.0625 C 283.68807 762.20209 278.22896 686.45313 263.10352 659.58984 z M 579.81055 710.18555 L 581.53516 732.38867 C 594.44048 775.49831 593.18 810.06791 577.69336 836.06055 C 535.10566 860.1512 483.78332 875.33808 423.77344 881.67773 C 363.76356 888.0174 312.82908 909.88304 270.88672 947.28711 C 294.76164 890.23012 315.51488 853.17759 333.25977 836.06055 C 361.11618 809.18957 470.90919 738.03322 579.81055 710.18555 z " />
</svg>
