<?xml version="1.0" encoding="UTF-8" standalone="no"?>
<svg
   width="600"
   height="1000"
   id="svg2214"
   sodipodi:version="0.32"
   inkscape:version="1.4.2 (f4327f4, 2025-05-13)"
   sodipodi:docname="1301C.svg"
   inkscape:output_extension="org.inkscape.output.svg.inkscape"
   sodipodi:modified="true"
   version="1.1"
   xmlns:inkscape="http://www.inkscape.org/namespaces/inkscape"
   xmlns:sodipodi="http://sodipodi.sourceforge.net/DTD/sodipodi-0.dtd"
   xmlns="http://www.w3.org/2000/svg"
   xmlns:svg="http://www.w3.org/2000/svg"
   xmlns:rdf="http://www.w3.org/1999/02/22-rdf-syntax-ns#"
   xmlns:cc="http://creativecommons.org/ns#"
   xmlns:dc="http://purl.org/dc/elements/1.1/">
  <metadata
     id="metadata2221">
    <rdf:RDF>
      <cc:Work
         rdf:about="">
        <dc:format>image/svg+xml</dc:format>
        <dc:type
           rdf:resource="http://purl.org/dc/dcmitype/StillImage" />
      </cc:Work>
    </rdf:RDF>
  </metadata>
  <defs
     id="defs2219" />
  <sodipodi:namedview
     inkscape:window-height="998"
     inkscape:window-width="1680"
     inkscape:pageshadow="2"
     inkscape:pageopacity="0.0"
     guidetolerance="10.0"
     gridtolerance="10.0"
     objecttolerance="10.0"
     borderopacity="1.0"
     bordercolor="#666666"
     pagecolor="#ffffff"
     id="base"
     inkscape:showpageshadow="2"
     inkscape:pagecheckerboard="0"
     inkscape:deskcolor="#d1d1d1"
     inkscape:zoom="0.75499997"
     inkscape:cx="301.32451"
     inkscape:cy="306.62253"
     inkscape:window-x="-8"
     inkscape:window-y="-8"
     inkscape:window-maximized="1"
     inkscape:current-layer="svg2214" />
  <path
     id="path2216"
     style="fill:#000000;stroke:none;stroke-width:1"
     d="M 128.50391 -0.0859375 C 83.622185 21.485802 49.06245 79.250368 54.591797 136.04492 L 68.162109 301.49805 C 56.229803 300.629 43.580974 300.99741 32.15625 303.95312 C 32.820365 311.9708 39.531519 315.97485 51.400391 315.94141 C 51.983015 346.10024 59.864745 361.48753 72.998047 360.44922 L 73.988281 372.51367 C 62.255485 371.74258 50.49291 372.28175 38.824219 374.99805 C 39.411557 382.56031 45.335859 387.9603 57.552734 388.24219 C 58.128272 418.92943 65.390185 433.24686 78.828125 431.51953 L 81.744141 467.07812 L 106.66016 465.03516 L 103.19922 422.85156 C 111.32662 419.55121 118.75157 416.34398 119.96289 415.49023 C 162.48123 421.56695 194.94503 421.62678 224.18555 420.86328 C 253.78627 420.09041 270.20738 420.70581 274.65234 411.54688 C 317.01498 353.60868 341.81264 308.23417 359.39648 279.9082 C 385.09218 319.06936 409.00585 364.12251 409.00586 438.26953 L 358.43164 692.87891 C 339.56965 801.49777 325.68388 869.59672 316.57812 896.91406 C 306.17151 924.23136 295.15471 940.21167 283.44727 945.74023 C 271.73985 951.26879 250.14168 960.19298 218.92188 971.90039 C 199.4095 971.90039 188.27066 975.76991 184.04297 985.85156 C 179.81528 995.93293 187.64578 1001.1035 208.45898 999.80273 L 309.60547 999.80273 C 348.6302 999.80273 362.27783 984.82317 347.96875 956.20508 C 350.57042 936.69268 362.59589 902.86391 386.33594 855.05859 C 410.07599 807.25321 421.74519 772.09646 419.46875 748.68164 C 417.19231 725.26677 423.48573 706.53759 440.39648 692.87891 L 518.87305 692.87891 C 535.13336 800.84737 543.5214 869.83104 546.77344 900.40039 C 548.07425 926.41693 543.22887 943.04961 532.82227 949.22852 C 522.41568 955.40748 503.24314 963.44504 475.27539 971.90039 C 457.06387 971.90039 447.01875 976.09525 442.14062 985.85156 C 437.26252 995.6077 443.99734 999.80273 464.81055 999.80273 L 560.72461 999.80273 C 600.39977 1000.4534 610.97717 985.47363 592.11523 956.20508 C 590.16429 918.48113 592.91115 876.70573 599.08984 828.90039 C 605.2688 781.09505 601.19166 735.15573 586.88281 692.87891 L 562.46875 535.92578 C 576.77788 496.90105 575.68415 460.85954 560.72461 426.0625 C 545.76516 391.26541 534.03717 341.15722 538.62891 290.64062 C 543.22066 240.12399 534.2739 208.87497 510.10547 197.73242 C 485.93704 186.58987 470.9878 169.03897 467.29297 141.97266 L 467.05859 140.24609 C 479.33151 133.97561 491.35224 123.53743 501.29492 107.41016 C 511.23762 91.282843 511.61398 70.495767 507.09961 46.777344 C 502.51005 22.663888 492.45747 -10.618209 411.70508 3.2792969 C 388.41853 7.2869173 354.20931 15.257834 348.05859 80.806641 C 343.95878 89.243634 339.47939 102.08129 333.76953 117.95898 C 331.13453 127.50892 331.29146 131.06418 335.65625 131.78125 C 340.02104 132.49828 342.80669 134.11775 345.00391 135.78711 C 338.26111 143.70488 343.17741 143.46628 349.63867 143.95508 C 350.84635 144.05248 350.33027 145.08308 348.38281 147.64648 C 346.4352 150.20989 347.37626 151.42252 350.81836 152.59375 C 354.26048 153.76499 356.40646 157.2579 357.65234 163.98047 C 358.89841 170.70303 360.9714 175.19214 366.21484 175.13281 C 371.45827 175.07341 381.70501 173.67529 393.86133 171.35938 L 396.45703 190.36523 C 370.82691 199.77201 351.45855 207.75301 339.83008 213.93555 C 328.20163 220.11805 319.74961 230.39962 307.63086 250.70703 C 295.51211 271.01442 276.48527 300.99248 252.88281 340.29883 C 229.34663 330.16963 180.18533 319.68405 114.16797 310.31641 C 110.90911 309.30322 103.3601 307.09189 93.541016 305.08789 L 79.496094 133.85938 L 79.486328 133.75586 C 75.102435 89.366398 106.54187 38.208312 139.33398 22.447266 L 128.50391 -0.0859375 z M 437.95703 17.056641 C 478.12579 16.752099 486.79909 34.634189 490.05664 50.863281 C 493.51618 71.397262 490.66586 91.346181 478.59961 108.74805 C 466.53335 126.14986 457.58618 132.26223 452.83984 126.3457 C 446.1602 120.69313 447.58437 109.94296 457.46875 95.792969 C 476.00406 69.258858 458.69934 33.430895 421.17773 62.027344 C 412.4768 55.994199 394.75647 54.83615 369.18359 55.044922 C 375.26528 25.197023 410.68377 19.314596 418.73828 18.357422 C 425.83826 17.513691 432.21864 17.100147 437.95703 17.056641 z M 443.85547 61.404297 C 450.71251 61.558757 455.15706 69.710269 452.12695 82.441406 C 449.6239 92.957991 446.32222 100.65345 439.87891 108.75391 C 433.43559 116.8544 432.13463 124.36872 437.52539 130.19727 C 442.91615 136.02579 449.69804 149.88861 457.24414 171.50586 C 464.79021 193.1231 477.73853 207.36951 494.71484 213.91406 C 511.69109 220.45865 517.59478 246.45874 515.93164 291.98047 C 514.26849 337.50217 524.13069 380.24112 529.33398 412.11133 L 433.41992 433.03711 C 430.16772 352.38596 404.2712 305.50184 383.35156 274.87891 C 362.43186 244.25599 363.87928 224.70544 387.66406 216.20703 C 412.79708 212.77611 423.32351 200.33457 417.97461 180.38672 C 412.62572 160.43891 402.2442 153.62655 387.02734 159.9707 C 371.8105 166.31486 365.5508 163.71132 366.36914 150.4707 C 374.51149 142.79475 376.65116 137.28443 373.12109 135.46875 C 369.59106 133.65309 363.10434 133.31542 355.37109 134.37109 C 354.89101 130.85429 353.40136 127.54344 343.58789 125.41992 C 347.65695 107.14042 352.16592 94.507594 357.64258 86.539062 C 364.84798 81.616806 373.42258 79.343251 381.5957 81.509766 C 389.76877 83.676285 398.17684 84.971978 406.73047 85.117188 L 404.29492 80.169922 C 399.1394 80.873704 392.84112 80.392959 384.58008 77.582031 C 376.31899 74.771076 368.09205 74.790442 360.1543 79.15625 C 362.76063 74.20536 364.56503 69.51727 365.41406 66.119141 C 386.68042 63.216062 403.2898 65.836933 417.41016 73.099609 C 418.5538 81.477268 422.71439 81.8391 428.01367 73.412109 C 433.34349 64.936536 439.16381 61.298613 443.85547 61.404297 z M 442.99219 67.021484 C 442.79066 67.029492 442.58186 67.046867 442.36719 67.076172 C 433.33813 68.308733 419.89368 84.356137 425.06836 95.4375 C 419.57752 99.203345 416.46615 108.79341 424.32617 110.87695 C 432.91203 113.1529 447.2594 88.947508 448.43555 81.185547 C 449.2555 76.515339 449.23942 66.773261 442.99219 67.021484 z M 441.16602 72.550781 C 444.38838 72.484985 445.80758 80.04772 440.73828 89.275391 C 438.1893 93.915324 433.90857 97.367103 431.55078 99.330078 C 429.19297 101.29306 429.03015 100.09344 431.08008 95.875 C 433.13001 91.6565 433.33142 90.735141 430.60742 92.419922 C 427.88343 94.104644 427.31132 93.28208 428.4082 89.199219 C 430.16013 82.67813 434.45892 73.663472 440.84961 72.582031 C 440.95715 72.563833 441.06207 72.552904 441.16602 72.550781 z M 373.58594 84.244141 C 372.73834 84.269761 371.88888 84.3587 371.03711 84.521484 C 367.93976 85.113428 364.80507 86.663492 361.56836 89.523438 L 357.09375 95.414062 L 357.80078 100.59766 L 361.25586 100.12695 C 371.62616 103.96289 381.46328 102.61988 392.35938 95.880859 L 404.45312 94.228516 L 403.74609 89.044922 L 391.65039 90.697266 C 385.38312 87.064059 379.51909 84.064801 373.58594 84.244141 z M 377.35547 89.128906 L 388.43164 92.896484 C 384.74098 94.713223 381.66938 96.683291 378.53516 97.767578 C 380.76102 94.837932 380.28513 91.354751 377.35547 89.128906 z M 368.7168 90.306641 C 367.77979 93.060347 368.45902 94.756555 371.38867 96.982422 C 368.63499 96.04542 364.94305 94.99959 362.27734 94.707031 C 362.65785 92.685783 365.67057 92.035409 368.7168 90.306641 z M 424.875 102.00195 C 429.00553 103.40742 429.34613 105.03023 427.31055 106.94922 C 425.27497 108.86821 425.08604 109.22322 423.85547 107.42188 C 422.6249 105.6205 422.47317 103.64269 424.875 102.00195 z M 355.8418 137.82617 C 359.15194 138.03073 363.22311 138.57853 366.44531 138.13867 L 354.58594 141.51953 C 351.77965 141.90261 351.72572 138.38806 355.8418 137.82617 z M 370.13672 139.39648 C 367.67302 141.07953 363.59437 146.11502 358.98633 147.95898 C 354.76459 147.71532 354.97498 146.13681 356.55078 143.00977 L 370.13672 139.39648 z M 113.97656 343.85938 C 156.2859 356.28402 203.27921 369.5669 241.12891 378.80664 C 221.61023 378.3868 182.31815 377.65289 119.9375 380.39648 C 113.13249 378.78262 106.26105 377.22829 99.349609 375.91406 L 97.464844 352.93555 C 103.16887 350.29417 108.72925 347.17473 113.97656 343.85938 z M 532.82227 436.52539 C 554.93628 464.49311 557.1218 496.90105 536.30859 535.92578 L 560.72461 670.20703 L 389.82227 670.20703 L 431.67578 460.93945 L 532.82227 436.52539 z " />
</svg>
