<?xml version="1.0" encoding="UTF-8" standalone="no"?>
<svg
   width="700"
   height="1000"
   version="1.1"
   id="svg1"
   sodipodi:docname="1310D.svg"
   inkscape:version="1.4.2 (f4327f4, 2025-05-13)"
   xmlns:inkscape="http://www.inkscape.org/namespaces/inkscape"
   xmlns:sodipodi="http://sodipodi.sourceforge.net/DTD/sodipodi-0.dtd"
   xmlns="http://www.w3.org/2000/svg"
   xmlns:svg="http://www.w3.org/2000/svg">
  <defs
     id="defs1" />
  <sodipodi:namedview
     id="namedview1"
     pagecolor="#ffffff"
     bordercolor="#666666"
     borderopacity="1.0"
     inkscape:showpageshadow="2"
     inkscape:pageopacity="0.0"
     inkscape:pagecheckerboard="0"
     inkscape:deskcolor="#d1d1d1"
     inkscape:zoom="0.75499997"
     inkscape:cx="49.668876"
     inkscape:cy="293.3775"
     inkscape:window-width="1680"
     inkscape:window-height="998"
     inkscape:window-x="-8"
     inkscape:window-y="-8"
     inkscape:window-maximized="1"
     inkscape:current-layer="svg1"
     showguides="true">
    <sodipodi:guide
       position="72.36148,800.93768"
       orientation="0,-1"
       id="guide5"
       inkscape:locked="false" />
  </sodipodi:namedview>
  <path
     id="path1"
     style="fill:#000000;stroke:none;stroke-width:1"
     d="M 57.353516 0 C 13.392696 23.371089 -18.789663 82.47084 -10.976562 138.98438 L -10.988281 138.90039 L 14.316406 356.1582 C 3.521978 355.51054 -7.3025016 356.03148 -18.070312 358.4043 C -17.573975 365.94855 -11.733827 371.39937 0.43945312 371.82422 C 0.65198312 402.46174 7.7412354 416.81533 21.193359 415.20312 L 25.654297 453.51172 L 50.486328 450.61914 L 45.396484 406.91016 C 53.587595 403.69822 61.098278 400.55995 62.322266 399.71875 C 116.52316 407.22831 180.36237 407.05658 227.86719 404.14844 C 284.80543 357.35427 314.79082 326.34057 344.62305 286.15234 C 385.39481 328.14738 419.70703 355.40446 419.70703 429.76758 L 368.625 688.30078 C 349.86045 798.10798 335.61257 866.90966 325.88281 894.70898 C 315.45807 921.81328 303.99212 937.27723 291.48242 941.09961 C 278.97275 944.92206 257.77484 953.784 227.89062 967.68359 C 207.04116 971.15852 194.53317 977.58645 190.36328 986.96875 C 186.1934 996.35091 194.87939 1000.3469 216.42383 998.95703 C 242.83315 998.95703 262.46705 997.56911 275.32422 994.78906 C 288.18141 992.00904 304.86132 992.7032 325.36328 996.87305 C 345.86526 1001.0429 355.76918 994.4409 355.07422 977.06641 C 358.54911 942.31727 372.2731 900.96356 396.25 853.00977 C 420.2269 805.05597 430.99889 769.09213 428.56641 745.11523 C 426.13399 721.13837 433.95389 701.85246 452.02344 687.25781 L 530.20898 688.30078 C 546.19361 797.41303 555.92355 867.60669 559.39844 898.88086 C 560.78839 925.29021 556.44445 943.0121 546.36719 952.04688 C 536.28995 961.0815 516.30805 966.98752 486.42383 969.76758 C 469.04928 979.49729 459.84131 986.96921 458.79883 992.18164 C 457.75632 997.39396 463.84022 1000 477.04492 1000 C 489.55454 1000 504.84251 999.47802 522.91211 998.43555 C 540.98164 997.39307 562.69957 997.39307 588.06641 998.43555 C 613.43327 999.47802 621.9472 991.66003 613.60742 974.98047 C 605.26752 923.55179 604.39769 873.51402 611 824.86523 C 617.60231 776.2165 613.26026 730.69469 597.9707 688.30078 L 573.99219 529.84375 C 585.11199 488.83978 583.8978 451.13794 570.3457 416.73633 C 568.57382 379.30549 549.6816 325.74333 548.23633 247.33984 L 548.96289 247.06445 C 562.23971 283.73978 585.46301 315.55446 613.32031 357.19727 C 612.21649 382.80318 615.69528 412.05413 628.91211 448.41016 C 642.12919 484.76624 643.84531 511.31446 634.05859 528.05469 C 624.27186 544.79492 624.65537 566.93855 635.20898 594.48828 C 642.88464 594.3881 645.62749 588.86218 643.43945 577.91016 C 641.25139 566.9581 642.18123 557.42769 646.22852 549.32031 C 657.40278 567.623 663.9551 584.28278 651.27734 617.9707 C 645.71063 626.26691 649.3931 635.41068 664.30078 632.33594 C 683.71786 598.14937 683.81865 583.06359 666.9043 506.29297 C 665.7148 434.44689 659.1893 386.41312 651.72852 358.85352 C 642.72243 327.98287 623.73705 272.13444 591.99414 203.56445 C 579.38906 176.33537 557.34614 165.24545 529.70703 166.52344 C 489.78175 173.07044 467.27607 172.68736 462.19336 165.37305 C 457.11061 158.05879 452.61464 149.52035 448.70312 139.75781 C 460.1345 131.12072 469.78082 118.27501 477.64258 101.22266 C 485.5042 84.170314 485.76982 64.026171 478.43945 40.791016 C 471.09874 14.690422 455.28975 1.1364251 431.01367 0.12695312 C 418.87562 -0.37778481 406.66944 0.61388391 394.39453 3.1015625 C 382.11962 5.5892375 369.777 9.5726439 357.36523 15.052734 C 332.54165 26.012887 320.96048 51.717722 322.62109 92.166016 C 318.6098 101.78812 314.7799 114.9501 311.13086 131.65039 C 309.98509 141.26232 311.43361 146.27068 315.48047 146.67773 C 319.52735 147.08476 323.15592 147.95783 326.36328 149.29492 C 319.85651 155.84802 326.02099 157.98553 330.43555 156.86523 C 331.40598 158.31179 323.6421 163.64713 331.98242 165.07617 C 335.35562 165.65414 338.1065 169.43617 340.23828 176.42383 C 342.37006 183.41146 346.17392 186.39018 351.64844 185.35938 C 357.12294 184.32862 365.50049 182.02511 376.78125 178.44531 L 384.92578 193.58594 C 368.1163 194.89623 350.35619 204.47 331.14648 221.75781 C 323.90301 228.27658 313.52537 236.80648 302.9375 248.56055 C 271.32852 283.65111 237.74871 329.2355 211.36523 362.35352 C 163.47777 361.00745 87.752052 361.98233 62.710938 364.74023 C 55.172981 362.8582 47.551683 361.04732 39.880859 359.56055 L 13.828125 135.86328 L 13.806641 135.7207 C 7.6247148 91.545756 36.964438 39.153193 69.089844 22.074219 L 57.353516 0 z M 417.29883 18.126953 C 440.47394 17.623286 455.29966 27.304914 461.77539 47.171875 C 467.74849 67.883453 465.71062 87.402244 455.66211 105.72656 C 445.61362 124.05086 437.46292 130.78006 431.20898 125.91406 C 424.28136 121.21901 424.91939 111.0176 433.12305 95.3125 C 448.77776 65.342967 428.98655 33.326596 392.31055 65.876953 C 383.19115 61.021099 365.8268 60.406454 340.21875 64.037109 C 341.83105 35.954228 370.3885 25.424544 386.08594 21.746094 C 395.30687 19.585313 405.71131 18.378762 417.29883 18.126953 z M 416.08203 63.509766 C 422.91568 63.390671 428.46806 69.739188 426.62891 82.439453 C 425.06591 93.232781 421.60188 102.89646 416.23828 111.42773 C 410.87463 119.959 411.19463 126.86989 417.19727 132.1582 C 423.19988 137.44649 427.55859 142.61302 430.27344 147.66016 C 444.40131 186.3786 464.93766 202.32042 491.88281 195.48242 C 518.82801 188.64443 523.79578 211.27009 524.14648 265.72852 C 524.49181 319.35375 538.96447 364.63146 542.14648 403.86523 L 443.68359 425.5957 C 440.9037 344.28274 408.11397 316.04632 390.83984 293.18359 C 373.56567 270.32089 360.82962 254.73253 352.625 246.41797 C 344.42035 238.10342 352.77885 230.78219 377.70312 224.45703 C 401.9538 218.30284 410.37728 205.58823 402.97656 186.31445 C 395.57581 167.04074 384.64161 161.39356 370.17383 169.36719 C 355.70605 177.34082 348.1112 174.24624 347.38672 160.08984 C 354.60536 151.80483 356.44261 147.03872 352.89844 145.78711 C 349.35425 144.53551 343.45567 144.5988 335.20117 145.97656 C 334.84912 141.76383 330.28886 139.33449 321.52148 138.69141 C 323.81308 119.4675 327.05022 105.38205 331.23242 96.433594 C 337.7876 91.184975 345.53436 89.218388 354.47266 90.535156 C 363.41094 91.851893 372.09209 92.159208 380.51758 91.455078 L 377.96875 85.648438 C 373.25332 86.845089 366.38313 86.616462 357.35938 84.962891 C 348.3356 83.309319 340.54739 85.10688 333.99219 90.355469 C 334.64548 84.4536 335.64143 79.898782 336.97852 76.691406 C 357.86104 71.391953 376.23566 71.747944 392.10156 77.759766 C 393.30836 85.340625 396.17045 84.613998 400.68945 75.580078 C 404.67751 67.607538 410.76697 63.602395 416.08203 63.509766 z M 416.32617 67.001953 C 414.50831 67.032525 412.33468 67.916726 409.89648 69.480469 C 400.06053 75.788895 395.50216 93.619893 399.76367 99.476562 C 396.90839 102.35219 395.56887 105.56048 395.75 109.09961 C 395.9311 112.63868 398.04494 114.61056 402.0918 115.01758 C 406.13864 115.42464 410.50919 111.44823 415.19922 103.08789 C 419.93459 93.927153 427.31868 78.422439 419.87891 68.560547 C 418.93786 67.470512 417.74006 66.978175 416.32617 67.001953 z M 414.4375 75.107422 C 419.07933 74.881413 418.33604 84.156468 414.90234 91.333984 C 412.55994 96.230489 410.42449 99.819153 408.49414 102.10156 C 406.56381 104.38399 406.26563 103.20455 407.59766 98.564453 C 408.92968 93.924353 408.41708 92.621299 406.06445 94.652344 C 403.71183 96.683396 402.73945 95.673781 403.14648 91.626953 C 404.26073 80.549365 408.24367 76.776315 413.4375 75.283203 C 413.79562 75.180251 414.12804 75.122489 414.4375 75.107422 z M 349.64648 94.134766 C 348.00044 94.146468 346.45331 94.307828 345.00586 94.619141 C 341.53199 95.366271 338.62881 96.975771 336.29883 99.449219 L 331.77539 107.05078 L 333.3125 113.11328 L 336.84375 110.06641 C 347.64217 113.06212 358.08195 110.41235 368.16602 102.11719 L 379.53906 100.30859 L 378.25586 95.253906 L 367.14062 98.076172 C 360.41516 95.41364 354.58462 94.099659 349.64648 94.134766 z M 352.22461 98.634766 L 363.61133 101.12109 C 359.74052 102.82042 356.20696 104.4345 353.00977 105.96289 C 355.19145 103.25818 354.92933 100.8164 352.22461 98.634766 z M 343.88672 99.675781 C 342.3787 102.20951 342.97696 104.56637 345.68164 106.74805 C 342.81617 106.75825 340.28558 106.68235 338.09375 106.52148 C 338.7572 103.48508 340.68952 101.20417 343.88672 99.675781 z M 401.30078 105.54102 C 405.85541 106.5362 407.12322 108.00555 405.10742 109.95117 C 403.09166 111.89673 401.53461 112.11079 400.43359 110.59766 C 399.33259 109.08456 399.62181 107.40116 401.30078 105.54102 z M 349.24414 147.39453 C 349.66417 147.42326 349.68711 147.54566 349.61914 147.69336 L 334.71875 152.55078 C 332.48347 153.11805 330.8092 150.31612 336.98047 148.75 C 339.84595 148.7398 343.02685 148.17823 346.48047 147.66016 C 348.00516 147.43145 348.82411 147.3658 349.24414 147.39453 z M 350.13086 149.71484 C 349.43534 152.89733 344.17453 156.36522 339.54492 158.85547 C 336.45408 159.54126 336.74702 157.49128 337.50977 155.07031 L 350.13086 149.71484 z M 547.84766 427.00977 C 558.55608 458.48962 565.30616 488.49375 547.93164 528.80273 L 571.9082 664.32422 L 399.89844 664.32422 L 442.64062 452.70117 L 547.84766 427.00977 z " />
</svg>
