<?xml version="1.0" encoding="UTF-8" standalone="no"?>
<svg
   width="800"
   height="1000"
   version="1.1"
   id="svg1"
   sodipodi:docname="13014.svg"
   inkscape:version="1.4.2 (f4327f4, 2025-05-13)"
   xmlns:inkscape="http://www.inkscape.org/namespaces/inkscape"
   xmlns:sodipodi="http://sodipodi.sourceforge.net/DTD/sodipodi-0.dtd"
   xmlns="http://www.w3.org/2000/svg"
   xmlns:svg="http://www.w3.org/2000/svg">
  <defs
     id="defs1" />
  <sodipodi:namedview
     id="namedview1"
     pagecolor="#ffffff"
     bordercolor="#666666"
     borderopacity="1.0"
     inkscape:showpageshadow="2"
     inkscape:pageopacity="0.0"
     inkscape:pagecheckerboard="0"
     inkscape:deskcolor="#d1d1d1"
     inkscape:zoom="0.26693281"
     inkscape:cx="1459.1687"
     inkscape:cy="-234.14132"
     inkscape:window-width="1680"
     inkscape:window-height="998"
     inkscape:window-x="-8"
     inkscape:window-y="-8"
     inkscape:window-maximized="1"
     inkscape:current-layer="svg1"
     showguides="true">
    <sodipodi:guide
       position="800,1000"
       orientation="0,-1"
       id="guide1"
       inkscape:locked="false" />
    <sodipodi:guide
       position="800,0"
       orientation="0,-1"
       id="guide2"
       inkscape:locked="false" />
  </sodipodi:namedview>
  <path
     id="path1"
     style="fill:#000000;stroke:none;stroke-width:55.602"
     d="M 607.83789 0 C 554.75333 0 521.6844 9.7907265 508.63086 29.371094 C 495.57732 48.951425 489.05078 63.092536 489.05078 71.794922 C 489.92099 81.367553 482.08922 99.641776 465.55469 126.61914 C 461.2035 135.32153 465.98829 142.28442 479.91211 147.50586 L 478.60742 159.25391 C 476.86697 167.08604 480.78288 171.00195 490.35547 171.00195 C 482.52332 179.70434 484.26304 184.92557 495.57617 186.66602 C 493.83565 195.3684 496.44823 201.02403 503.41016 203.63477 C 510.37205 206.24548 517.55027 206.46466 524.94727 204.28906 C 532.34434 202.11347 537.34829 203.85323 539.95898 209.50977 C 542.56972 215.16632 540.83 218.21138 534.73828 218.64648 C 528.64663 219.08162 516.89696 219.08162 499.49219 218.64648 C 485.16259 219.08071 473.87179 224.50996 465.62109 234.93164 C 434.36516 274.05882 402.31891 312.55852 368.57227 349.56836 C 381.59927 300.93397 389.75263 270.66457 395.83203 233.32031 C 418.41223 234.18878 433.39514 231.14893 440.77734 224.20117 C 448.15764 217.25339 448.80772 203.79125 442.72852 183.81641 L 474.12695 181.21094 C 482.19794 180.54121 483.60174 167.48645 472.52344 166.88477 C 423.89088 164.24347 403.20026 167.31921 391.91016 176.00391 C 374.54076 189.89948 359.34155 218.99314 346.31445 263.28516 C 321.12915 327.55203 312.32126 355.21781 317.09766 371.71875 C 321.87296 388.21971 325.13064 401.46373 326.86914 411.45117 C 328.60604 421.43857 337.50762 423.39182 353.57422 417.3125 C 402.77775 395.7554 446.23301 358.89192 473.98242 312.85352 C 497.13152 366.1364 508.89872 405.65839 509.2832 431.41992 C 509.71835 460.57285 507.32497 494.29546 502.10352 532.58594 C 421.17139 550.86096 358.94939 579.57758 315.4375 618.73828 C 298.03273 686.61687 287.59033 744.92296 284.10938 793.65625 C 280.62842 842.38958 271.27409 881.76778 256.04492 911.79102 C 240.81574 941.8142 207.964 960.30765 157.49023 967.26953 C 133.12356 968.13982 125.50899 974.01464 134.64648 984.89258 C 143.78397 995.77062 151.39854 1000.7728 157.49023 999.90234 L 237.11719 999.90234 C 257.13267 992.94045 273.44797 991.8543 286.06641 996.64062 C 298.68487 1001.4271 310.43455 1000.3389 321.3125 993.37695 C 332.19048 986.41506 331.97325 970.53228 320.66016 945.73047 C 309.34708 920.9287 315.43716 888.73062 338.93359 849.13477 C 362.43 809.53897 374.17969 771.03153 374.17969 733.61133 C 374.17969 696.19104 378.09559 677.48047 385.92773 677.48047 C 405.07295 732.30546 422.47631 778.64462 438.14062 816.5 C 453.8049 854.35535 460.76783 887.20708 459.02734 915.05469 C 445.97376 947.2535 421.60748 963.35352 385.92773 963.35352 C 365.042 963.35352 357.64464 969.44554 363.73633 981.62891 C 369.82802 993.81222 377.22538 999.9043 385.92773 999.9043 L 436.83594 999.9043 C 472.51569 978.14831 501.66871 965.09338 524.29492 960.74219 C 546.92109 956.39104 548.66085 939.42208 529.51562 909.83398 C 510.37036 880.24587 501.66966 843.04381 503.41016 798.22656 C 505.15061 753.40929 493.83732 717.07613 469.4707 689.22852 L 475.99609 677.48047 C 509.93534 661.81619 551.27253 653.98438 600.00586 653.98438 C 653.09027 653.98438 680.06715 640.0605 680.9375 612.21289 C 681.80771 584.36528 670.93086 526.05919 648.30469 437.29492 C 648.30469 410.31751 660.48685 370.28565 684.85352 317.20117 L 752.73242 407.27148 C 744.03004 464.7072 741.85389 520.83714 746.20508 575.66211 C 720.96828 602.63947 709.2206 630.48719 710.96094 659.20508 C 719.66337 663.55629 725.31899 658.98678 727.92969 645.49805 C 730.54039 632.00948 737.93776 623.52597 750.12109 620.04492 C 756.21278 644.41159 750.55711 668.77786 733.15234 693.14453 C 748.81661 700.97666 761.86966 694.45016 772.3125 673.56445 C 782.75538 652.67872 785.36593 616.12833 780.14453 563.91406 C 794.93841 530.84501 801.46495 474.71509 799.72461 395.52344 C 781.44959 353.75201 759.91115 314.80822 735.10938 278.69336 C 710.30758 242.57847 690.94527 224.52148 677.02148 224.52148 C 649.17376 224.52148 634.37902 216.68967 632.63867 201.02539 C 630.89818 187.97181 634.81604 179.26916 644.38867 174.91797 C 695.7327 146.20011 715.96391 109.86691 705.08594 65.919922 C 694.20795 21.972889 661.79262 0 607.83789 0 z M 596.74219 19.580078 C 640.68919 19.580078 667.88329 31.546993 678.32617 55.478516 C 688.76905 79.410077 687.46375 101.16577 674.41016 120.74609 C 661.35658 140.32646 647.2155 152.94501 631.98633 158.60156 C 616.75715 164.25811 613.05849 163.17003 620.89062 155.33789 C 628.7228 147.50575 632.63867 135.75802 632.63867 120.09375 C 632.63867 104.42947 627.41749 96.595703 616.97461 96.595703 C 607.40213 96.595703 603.48621 92.897035 605.22656 85.5 C 606.96705 78.103001 597.39549 70.271187 576.50977 62.003906 C 555.62405 53.736662 535.60811 51.779666 516.46289 56.130859 C 526.03552 31.764194 552.7952 19.580078 596.74219 19.580078 z M 528.04688 73.263672 C 537.07556 73.807571 546.48528 75.711214 556.27539 78.974609 C 575.85558 85.50136 584.77551 92.898733 583.03516 101.16602 C 581.2947 109.43327 586.0814 113.56641 597.39453 113.56641 C 609.57782 113.56641 615.66992 117.48232 615.66992 125.31445 C 615.66992 133.14659 611.10038 139.6731 601.96289 144.89453 C 592.82544 150.11598 594.34987 166.65044 606.5332 194.49805 C 609.14394 226.69686 616.75852 242.57963 629.37695 242.14453 C 641.99539 241.70938 652.65504 248.45312 661.35742 262.37695 C 670.05992 276.30074 669.18893 289.79018 658.74609 302.84375 C 636.99013 357.66877 626.11328 401.18014 626.11328 433.37891 C 643.51805 519.53249 652.2207 574.79151 652.2207 599.1582 C 648.73972 610.47125 638.7318 620.47925 622.19727 629.18164 C 539.52468 629.18164 492.09544 634.83922 479.91211 646.15234 C 479.91211 628.74753 439.4458 618.73962 358.51367 616.12891 C 395.06366 590.89204 443.79818 573.05224 504.71484 562.60938 C 523.86007 562.60937 533.86807 548.24911 534.73828 519.53125 C 535.60857 490.81342 536.04297 461.22592 536.04297 430.76758 C 536.04297 400.30926 520.81382 349.83499 490.35547 279.3457 C 496.44712 253.23854 506.02063 240.18555 519.07422 240.18555 L 563.45508 240.18555 L 563.45508 185.36133 L 516.46289 189.27734 C 509.50096 185.79639 505.58505 181.00966 504.71484 174.91797 L 516.46289 174.91797 L 516.46289 167.08594 L 492.9668 161.86523 C 488.61564 156.64382 488.17921 152.29154 491.66016 148.81055 C 496.88156 140.97841 492.96566 134.45187 479.91211 129.23047 C 493.8359 103.12331 501.23327 85.283531 502.10352 75.710938 C 510.37078 73.535341 519.01819 72.719773 528.04688 73.263672 z M 519.14258 84.861328 C 515.20781 84.988805 512.35557 86.071707 510.58789 88.111328 C 504.93135 94.638117 504.93135 101.16462 510.58789 107.69141 C 516.24445 114.2182 532.99809 110.95592 560.8457 97.902344 C 541.70047 88.928008 527.79907 84.58088 519.14258 84.861328 z " />
</svg>
