<?xml version="1.0" encoding="UTF-8" standalone="no"?>
<svg
   width="500"
   height="1000"
   id="svg2241"
   sodipodi:version="0.32"
   inkscape:version="1.4.2 (f4327f4, 2025-05-13)"
   sodipodi:docname="13025.svg"
   inkscape:output_extension="org.inkscape.output.svg.inkscape"
   sodipodi:modified="true"
   version="1.1"
   xmlns:inkscape="http://www.inkscape.org/namespaces/inkscape"
   xmlns:sodipodi="http://sodipodi.sourceforge.net/DTD/sodipodi-0.dtd"
   xmlns="http://www.w3.org/2000/svg"
   xmlns:svg="http://www.w3.org/2000/svg"
   xmlns:rdf="http://www.w3.org/1999/02/22-rdf-syntax-ns#"
   xmlns:cc="http://creativecommons.org/ns#"
   xmlns:dc="http://purl.org/dc/elements/1.1/">
  <metadata
     id="metadata2248">
    <rdf:RDF>
      <cc:Work
         rdf:about="">
        <dc:format>image/svg+xml</dc:format>
        <dc:type
           rdf:resource="http://purl.org/dc/dcmitype/StillImage" />
      </cc:Work>
    </rdf:RDF>
  </metadata>
  <defs
     id="defs2246" />
  <sodipodi:namedview
     inkscape:window-height="998"
     inkscape:window-width="1680"
     inkscape:pageshadow="2"
     inkscape:pageopacity="0.0"
     guidetolerance="10.0"
     gridtolerance="10.0"
     objecttolerance="10.0"
     borderopacity="1.0"
     bordercolor="#666666"
     pagecolor="#ffffff"
     id="base"
     inkscape:showpageshadow="2"
     inkscape:pagecheckerboard="0"
     inkscape:deskcolor="#d1d1d1"
     showguides="true"
     inkscape:zoom="0.35355339"
     inkscape:cx="442.64885"
     inkscape:cy="-15.556349"
     inkscape:window-x="-8"
     inkscape:window-y="-8"
     inkscape:window-maximized="1"
     inkscape:current-layer="svg2241">
    <sodipodi:guide
       position="0,1000"
       orientation="0,-1"
       id="guide1"
       inkscape:locked="false" />
    <sodipodi:guide
       position="500,0"
       orientation="0,-1"
       id="guide2"
       inkscape:locked="false" />
  </sodipodi:namedview>
  <path
     id="path6"
     style="fill:#000000;stroke:none;stroke-width:1"
     d="M 291.18945,-1.34375 C 284.61807,-1.274965 277.88531,-0.82717038 270.99219,0 c -27.57247,3.3086783 -47.60786,22.977828 -60.10742,59.005859 -7.35266,8.823205 -15.44245,20.221351 -24.26563,34.191407 -4.41162,9.558424 -4.41162,15.072404 0,16.542964 4.41159,1.47051 7.72192,3.30785 9.92774,5.51368 -3.17404,1.90443 -11.62755,7.92106 4.41015,9.92578 -0.62632,1.25141 -11.73631,4.38425 -5.51367,8.27343 2.94106,1.83815 4.41211,7.16707 4.41211,15.99024 0,8.82323 3.3084,13.96893 9.92578,15.43945 6.61742,1.47055 14.15383,1.2874 22.60937,-0.55078 8.45556,-1.83816 12.1322,1.47214 11.0293,9.92774 -0.16927,9.89865 -8.38718,13.19907 -28.31445,13.78515 -25.73431,0.73531 -43.56411,4.78015 -53.49024,12.13281 -9.92608,7.35267 -47.3643,30.97514 -99.210933,61.75782 -25.018336,-27.15726 -55.1634628,-63.96791 -93.121094,-109.125 3.596866,-21.35417 -0.29665,-44.51165 -11.679687,-69.470706 -0.277162,-12.04969 -5.657383,-20.031135 -16.140625,-23.947266 -10.483289,-3.916227 -12.917948,4.729838 -7.302735,25.941406 -23.999105,10.945229 -32.824802,23.379326 -26.476562,37.298826 6.129313,13.43945 16.932286,28.22478 32.408203,44.35938 20.075635,43.59516 36.336917,75.8075 48.787109,96.63672 12.4503158,20.82923 26.880574,35.89625 54.275391,64.22851 29.783373,-8.70533 48.679741,-18.31754 118.095703,-64.77344 7.35265,0 32.87538,30.31419 40.5957,65.97461 7.72025,35.6604 14.18447,99.41857 13.44922,121.47657 -31.61645,88.96719 -54.04258,168.74453 -67.27734,239.33007 -11.76428,55.14495 -1.46893,86.75972 30.88281,94.84766 32.3517,8.08794 72.77873,18.06954 118.36523,44.53906 16.83446,53.00492 11.50805,106.04335 -3.19726,113.76367 -14.70533,7.72029 -41.64179,16.52047 -60.02344,20.56446 -18.38169,4.04396 -30.88068,4.03148 -37.49804,10.28125 -6.61742,6.24971 -7.90527,11.39545 -3.86133,15.43945 4.04399,4.04393 8.64027,7.17143 13.78711,9.37695 h 88.23046 c 13.23476,-4.41154 23.34504,-5.1483 30.33008,-2.20703 6.98503,2.94177 15.80933,4.0439 26.47071,3.3086 10.66131,-0.73531 15.99023,-8.82306 15.99023,-24.26368 -11.02896,-33.08695 -17.82659,-87.2484 -4.5918,-115.92382 15.44059,13.23487 44.33026,40.64514 35.86914,76.89648 -4.06834,45.10401 -23.9922,15.71765 -28.51757,50.5918 -0.66444,18.91812 13.31887,12.91613 34.74023,5.11914 22.79326,-8.29632 34.18945,-34.94321 34.18945,-45.35938 0,-33.08691 3.12524,-54.77654 9.375,-65.07031 6.24977,-10.29373 8.82359,-22.05816 7.72071,-35.29297 -1.1029,-13.23506 -15.62433,-13.6575 -43.56446,-15.86328 -16.17587,-1.47049 -39.80392,-28.55749 -50.09765,-35.91016 5.14688,-24.99904 2.75075,-33.9501 -7.54297,-75.125 1.95706,-14.28296 -3.38552,-28.56589 14.62695,-29.71289 V 532.15039 c 6.35095,-40.22273 -0.16608,-78.07652 -19.55078,-113.55859 0.95397,-16.97965 2.99572,-34.63834 6.12695,-52.97852 39.70438,13.23478 70.21638,21.68892 91.53907,25.36524 23.52853,4.41163 46.69119,2.94054 69.48437,-4.41211 C 499.65441,342.4504 480.27506,309.97005 461.1582,283.13281 442.04124,256.2956 420.50118,228.6922 406.53125,210.31055 392.56108,191.9289 379.43762,185.10459 355.17383,185.83984 c -21.32254,0.73527 -35.62085,-1.09368 -35.6211,-23.90429 h 0.002 c -0.25363,-4.93597 0.28566,-10.57029 1.61914,-16.9043 13.23482,-4.41163 25.91888,-13.60221 38.05078,-27.57227 C 371.3565,103.48895 377.79013,84.004946 378.52543,59.005859 379.26058,34.006853 368.41589,17.096652 345.99023,8.2734375 329.17102,1.6560564 310.90356,-1.5500995 291.18945,-1.34375 Z m -8.41015,13.029297 c 13.09693,-0.620391 28.46882,1.550621 46.11523,6.513672 23.52852,6.6174 35.29297,20.587447 35.29297,41.910156 -0.73529,21.322744 -9.19137,39.520836 -25.36719,54.593745 -16.17586,15.07297 -26.47121,18.93273 -30.88281,11.58008 -5.14684,-6.61741 -1.10198,-16.17627 12.13281,-28.675778 25.66159,-24.236034 14.42126,-61.327357 -29.77734,-40.806641 -7.35268,-8.087909 -24.63107,-14.338405 -51.83594,-18.75 5.88215,-13.234806 16.54378,-21.505774 31.98438,-24.814453 3.86014,-0.827181 7.97225,-1.343983 12.33789,-1.550781 z m -49.83789,37.394531 c 21.32268,2.205772 38.23483,8.088004 50.73437,17.646484 0,8.823162 3.85982,9.374574 11.58008,1.654297 15.77181,-15.771759 34.36946,-6.214035 23.71289,14.337891 -5.14684,9.926092 -11.94875,18.38217 -20.4043,25.36719 -8.45556,6.98505 -10.47803,13.9681 -6.0664,20.95312 4.41158,6.98506 6.98542,13.0524 7.7207,18.19922 -1.06857,12.24553 -2.25296,52.07334 27.37681,53.2891 31.55013,1.2946 45.42364,6.32829 54.73828,17.50586 l -35.98242,106.77149 -13.23633,-1.10157 c -15.24339,-15.38096 -36.32074,-25.73005 -63.23242,-31.04882 -9.94758,-6.80571 -19.56999,-7.09394 -28.86719,-0.86524 -9.2973,6.22868 -3.69424,13.25005 16.8086,21.06641 -5.11421,25.87662 -0.16665,40.29939 14.8418,43.26562 14.49087,2.86395 32.80228,2.71854 54.93554,-0.43554 7.35267,2.20576 10.66107,3.30859 9.92578,3.30859 -2.60359,21.34922 -4.65324,40.3025 -6.15039,56.85742 l -4.68945,0.49414 -91.54102,18.74805 c 3.70183,-87.13202 -27.35681,-180.46522 -42.78125,-187.32031 -18.17503,-8.64138 -27.2704,-18.55446 -18.61718,-31.60547 10.66135,-7.72025 29.23738,-11.60649 55.69531,-12.68359 21.25935,-0.86547 31.6149,-15.14317 31.07031,-27.57032 -0.90362,-20.62008 -10.47605,-29.59492 -27.01953,-27.02148 -16.5435,2.57342 -23.34535,-2.38917 -20.4043,-14.88867 11.02899,-5.88215 15.07388,-10.11014 12.13282,-12.6836 -2.94107,-2.57345 -8.82528,-4.59592 -17.64844,-6.0664 0.73524,-3.67634 -2.93942,-7.72122 -11.02734,-12.13282 8.08793,-16.911124 16.17574,-29.041871 24.26367,-36.394528 8.08794,-3.676355 15.99261,-3.493194 23.71289,0.550782 7.7203,4.043954 15.623,7.169196 23.71094,9.375 v -5.515625 c -5.14684,-0.735264 -11.76361,-3.492245 -19.85157,-8.271485 -8.08792,-4.77923 -16.17578,-5.696928 -24.26367,-2.755859 2.94102,-4.411598 5.88116,-8.088217 8.82227,-11.029297 z m 76.10351,15.560547 c -1.16952,0.0096 -2.45843,0.150677 -3.86328,0.431641 -12.08088,2.416195 -22.01697,21.587019 -19.30078,27.019531 -6.52639,2.610545 -11.7115,10.819843 -2.75586,14.890623 9.22329,4.19238 27.84204,-17.596516 31.98242,-26.468748 4.47388,-9.58693 2.12409,-15.940532 -6.0625,-15.873047 z m -76.33203,3.933594 c -2.97265,0.100546 -5.83651,0.954114 -8.59375,2.5625 l -7.7207,5.515625 v 5.515625 h 3.30859 c 10.29374,5.882126 21.68994,6.248445 34.18945,1.101562 l 12.13282,3.310547 V 79.962891 L 253.89648,78.857422 C 246.31404,71.780491 239.25273,68.35306 232.71289,68.574219 Z m 74.93555,3.007812 c 2.09369,0.0605 2.92692,1.381879 2.49609,3.966797 -0.73525,4.411597 -2.75573,8.82472 -6.06445,13.236328 -3.30868,4.411555 -6.61902,7.168588 -9.92774,8.271485 -3.30866,1.102886 -3.30866,-0.183042 0,-3.859375 3.30872,-3.676322 3.30872,-5.147406 0,-4.41211 -3.30866,0.735265 -3.86012,-0.735765 -1.65429,-4.412109 2.20578,-3.676322 5.14594,-7.352985 8.82226,-11.029297 2.48152,-1.102907 4.44698,-1.688879 5.89453,-1.757812 0.15079,-0.0075 0.29403,-0.0081 0.4336,-0.0039 z m -76.91211,0.658203 c -2.2058,2.941047 -2.2058,5.516895 0,7.722657 -3.67631,-0.735275 -6.24826,-1.47371 -7.71875,-2.208985 1.47051,-1.47054 4.04245,-3.307847 7.71875,-5.513672 z m 9.92578,2.207032 8.82422,5.515625 c -4.41159,0.735222 -8.45648,1.101562 -12.13281,1.101562 3.67644,-1.470551 4.77908,-3.676129 3.30859,-6.617187 z m 45.21875,23.160156 c 2.94108,2.205772 3.30932,4.043118 1.10352,5.513668 -2.20579,1.4705 -3.49165,1.10421 -3.85938,-1.10156 -0.36761,-2.205829 0.55009,-3.676833 2.75586,-4.412108 z M 205.44922,118.9707 c 4.09917,0 8.03042,1.00848 12.05273,1.79883 1.15499,0.23096 4.47244,0.89866 4.58789,1.06641 v 0.002 l 0.002,0.002 v 0.002 0.002 l -0.002,0.002 v 0.002 l -0.002,0.002 -0.002,0.002 -0.002,0.002 h -0.002 c -0.0211,0.0115 -0.0763,0.0176 -0.16992,0.0176 h -17.64453 c -0.70963,0 -2.87113,-2.78215 1.18164,-2.90039 z m 15.35937,5.10547 c -4.15136,4.15136 -12.22392,4.42542 -13.23437,4.41211 -1.98079,-0.0261 -4.41923,0.008 -1.10156,-3.30859 z m 162.72852,145.41602 c 16.91112,16.91115 41.07694,47.91042 56.51758,67.02734 -10.29372,-1.47052 -42.23511,-7.67027 -73.85157,-10.61133 z m -53.6875,165.02929 c -0.0138,0.191 -0.0274,0.38209 -0.041,0.57227 l 5.0586,3.71484 c 13.44519,25.67329 18.43921,57.52209 14.98242,95.54688 V 668.91016 H 177.79688 c 10.29373,-58.82129 29.04318,-129.77429 56.24804,-212.85938 z m -88.57227,255.34375 h 35.83985 c -2.20583,18.38165 6.48986,46.20552 11.63672,58.70508 -2.94106,-2.94108 -32.48524,-16.79687 -39.83789,-16.79687 -32.98846,0 -29.69672,-13.96805 -7.63868,-41.90821 z"
     sodipodi:nodetypes="ssccsccssssccscccccsccccsccscsssscccsccccsssscccccccccscccccscsssscsccccssscsssscsccccscscccccccssscscccsccsccsscssssccccccccsccssssscccccccccsccscccccccccccccccssccscccccccccccccccccsccss" />
</svg>
