<?xml version="1.0" encoding="UTF-8" standalone="no"?>
<svg
   width="600"
   height="1000"
   version="1.1"
   id="svg1"
   sodipodi:docname="13020.svg"
   inkscape:version="1.4.2 (f4327f4, 2025-05-13)"
   xmlns:inkscape="http://www.inkscape.org/namespaces/inkscape"
   xmlns:sodipodi="http://sodipodi.sourceforge.net/DTD/sodipodi-0.dtd"
   xmlns="http://www.w3.org/2000/svg"
   xmlns:svg="http://www.w3.org/2000/svg">
  <defs
     id="defs1" />
  <sodipodi:namedview
     id="namedview1"
     pagecolor="#ffffff"
     bordercolor="#666666"
     borderopacity="1.0"
     inkscape:showpageshadow="2"
     inkscape:pageopacity="0.0"
     inkscape:pagecheckerboard="0"
     inkscape:deskcolor="#d1d1d1"
     inkscape:zoom="32"
     inkscape:cx="216.14062"
     inkscape:cy="163.98437"
     inkscape:window-width="1680"
     inkscape:window-height="998"
     inkscape:window-x="-8"
     inkscape:window-y="-8"
     inkscape:window-maximized="1"
     inkscape:current-layer="svg1"
     showguides="true">
    <sodipodi:guide
       position="600,1000"
       orientation="0,-1"
       id="guide1"
       inkscape:locked="false" />
  </sodipodi:namedview>
  <path
     id="path1"
     style="fill:#000000;stroke:none;stroke-width:1"
     d="m -38.21394,0.3541091 c -2.416259,0.6955898 -5.156714,2.504742 -8.222482,5.4274973 -2.135283,37.0414366 5.576702,51.3114856 49.4950118,104.5523536 6.4778253,68.41279 11.5392392,117.43502 27.8479392,145.68252 53.25887,2.81645 118.010681,12.59112 168.865601,2.68434 2.84658,8.4779 5.50321,16.70147 7.96998,24.67205 13.71631,47.42753 24.81731,103.94126 24.81731,174.60964 l -48.54429,245.68872 c -17.8322,104.35153 -31.37134,169.73599 -40.61768,196.15407 -9.90678,26.41814 -20.80482,41.44272 -32.69297,45.07521 -11.888132,3.63246 -32.03092,11.72359 -60.430416,24.27214 -19.813556,3.96282 -31.537303,10.23651 -35.169799,18.82237 -3.632496,8.58578 4.45855,12.54838 24.272142,11.88802 25.0972,0 43.754513,-1.48555 55.972876,-4.45754 12.218357,-2.97213 28.068697,-2.31223 47.552057,1.98071 19.48335,4.29299 29.22578,-2.1467 29.22578,-19.3185 2.64183,-32.36218 15.35525,-71.49409 38.14086,-117.39552 22.78562,-45.9015 33.18785,-80.07919 31.2065,-102.53457 -1.98138,-22.45533 5.28399,-40.61686 21.79532,-54.48639 h 74.30102 c 15.19041,104.35152 24.43705,171.38731 27.73932,201.10772 1.32088,25.09713 -2.8076,41.93719 -12.38414,50.5231 -9.57659,8.58608 -28.23385,14.20006 -55.97287,16.84166 -17.17174,9.24635 -26.08849,16.34768 -26.74897,21.30109 -0.66044,4.95335 4.95354,7.0987 16.84166,6.43824 11.88817,0 26.41886,-0.32994 43.59063,-0.99035 17.17178,-0.6604 37.81037,-0.6604 61.91688,0 24.10654,0.66045 32.19758,-6.93478 24.27215,-22.78568 -7.92543,-48.21297 -8.7511,-95.43596 -2.47682,-141.66767 6.27431,-46.23169 2.14584,-89.82006 -12.38414,-130.76811 L 379.17884,553.08661 c 10.56726,-38.96671 9.41166,-74.79583 -3.46717,-107.48822 -12.87879,-32.69241 -4.12796,-94.28017 26.25285,-184.76219 50.85487,9.90678 109.7268,0.13212 162.98574,-2.68432 16.21224,-28.08043 21.76315,-79.43251 28.24097,-147.84531 43.91826,-53.240876 51.63029,-67.510915 49.49499,-104.5523534 -5.45039,-5.19604807 -9.87417,-6.8735394 -13.27169,-5.03060298 -3.39755,1.84294148 -4.70543,5.37772308 -3.92505,10.60338138 -2.24918,31.883361 -13.80112,44.313913 -32.5645,56.949506 -0.61495,-8.589282 2.29715,-17.03687 8.73602,-25.343949 6.43889,-8.307125 6.75368,-14.030662 0.94271,-17.169505 -20.61885,18.438005 -30.44643,37.60211 -29.47945,57.491013 0.96684,19.88893 -4.37901,42.22304 -16.0374,67.00237 -11.65837,24.77932 -19.3178,50.73347 -24.5636,70.31107 -30.13026,-6.32653 -63.7877,-6.50603 -109.28972,-1.81471 -25.56386,-9.47163 -45.40633,-10.85579 -62.87706,-7.44934 -16.51133,0.66044 -26.25377,-2.97222 -29.22579,-10.89766 -2.97206,-7.92542 -5.11733,-16.84218 -6.43824,-26.74896 12.54863,-5.28364 24.43634,-14.86017 35.66403,-28.72968 18.67169,-23.06511 29.21789,-89.304244 -19.31849,-104.517161 -22.12517,-6.934756 -45.90066,-8.09035 -71.32807,-3.467179 -25.42744,4.623169 -42.10532,25.757554 -50.03075,63.40336 -5.94408,7.92542 -12.54774,19.15334 -19.81272,33.68332 -3.30226,8.58588 -2.97234,13.37416 0.99036,14.36484 3.96272,0.99068 6.93558,2.47804 8.91694,4.45941 -8.86337,5.31803 0.33833,8.50448 1.9807,8.91507 0.40034,0.11142 -0.62036,0.89057 -1.98024,2.47706 -1.98138,2.31156 -1.48747,4.12886 1.48459,5.44978 2.97202,1.32091 4.6234,5.2835 4.95364,11.88802 0.33021,6.60452 3.13719,10.23533 8.42084,10.89577 5.2836,0.66047 13.54056,0.66047 24.76826,0 l 3.96142,14.86095 c -4.80057,0.35559 -9.52867,0.83119 -14.18564,1.42611 -16.93604,-2.87479 -36.17853,-1.22458 -60.67376,7.85114 C 133.00157,211.92636 93.464312,212.10587 63.334081,218.4324 57.684134,197.34651 50.819941,175.06371 39.161539,150.28439 27.503136,125.50506 22.159105,103.17047 23.125958,83.281537 24.09292,63.392638 14.265402,44.228518 -6.3534914,25.790524 -12.16448,28.929369 -11.849648,34.652896 -5.4107772,42.960026 1.0280814,51.267109 3.940248,59.714677 3.325233,68.303978 -15.438553,55.668295 -26.990438,43.23773 -29.239678,11.354385 -28.459211,6.1287022 -29.767194,2.5939509 -33.164723,0.75100236 -34.65114,-0.05528136 -36.334606,-0.18690384 -38.21394,0.3541091 Z M 294.6008,50.194679 c 8.99867,0.247668 18.86317,1.609209 29.59553,4.085914 48.51962,11.196864 38.53859,63.172407 14.86096,89.160077 -13.53927,14.8602 -22.62193,19.31857 -27.24509,13.37449 -5.28365,-6.60453 -2.14485,-16.01519 9.41307,-28.23355 22.17486,-23.44204 10.17385,-58.99073 -31.2065,-36.160158 -7.265,-6.604519 -23.11717,-11.226895 -47.55394,-13.868716 3.96274,-13.209074 13.20938,-21.79592 27.73933,-25.758616 7.26498,-1.981366 15.39798,-2.84711 24.39664,-2.599441 z m -58.07996,39.255713 c 20.47402,0 37.31595,4.622413 50.52498,13.868718 -0.66043,7.265 2.14656,7.265 8.42084,0 12.6381,-14.633516 31.79,-8.694794 22.78566,11.3919 -4.29293,9.57653 -9.90691,17.66757 -16.84167,24.27213 -6.93475,6.60451 -8.25622,13.2101 -3.96329,19.81462 4.29293,6.60452 7.09992,12.21849 8.42083,16.84166 3.96274,38.96671 19.15323,58.44971 45.57133,58.44971 26.41812,0 31.37231,24.10536 14.86097,72.31841 -16.51131,48.21306 -22.45519,90.48182 -17.83202,126.80672 l -93.12339,20.80495 c -2.64182,-76.6125 -9.24734,-127.63211 -19.8146,-153.05955 -1.53438,-3.69212 -3.01627,-7.21718 -4.44621,-10.57508 -8.84696,-31.50445 -6.34965,-50.26865 7.49084,-56.29357 0.30362,-0.002 0.61026,-0.002 0.91866,-0.002 24.43677,0 35.33481,-9.74245 32.69298,-29.22581 -2.64183,-19.48335 -11.55854,-27.24263 -26.74896,-23.27989 -15.19039,3.9627 -21.4642,-0.33165 -18.82238,-12.88026 8.58587,-5.94408 11.3929,-10.07066 8.42084,-12.38224 -2.97202,-2.31155 -8.422,-3.46719 -16.34743,-3.46719 0.66047,-4.62316 -2.97224,-8.25582 -10.89767,-10.89765 6.60452,-16.51133 13.2101,-28.40096 19.81461,-35.66592 7.26497,-3.30226 14.69433,-3.30226 22.28955,0 7.5952,3.30226 15.35633,5.28546 23.28179,5.9459 l -0.99035,-4.95366 c -4.62317,-0.66043 -10.89883,-2.64174 -18.82425,-5.944 -7.92543,-3.302262 -15.52068,-3.634029 -22.78568,-0.99225 2.64183,-4.623168 4.6231,-8.253976 5.94402,-10.89577 z m 73.72943,9.448918 c -12.5729,0.139794 -24.77027,18.65062 -20.2315,26.21511 -8.14013,2.71339 -9.90034,12.34028 -2.47683,14.36484 8.00865,2.18417 23.68313,-16.75932 27.2432,-26.25284 3.75385,-10.0103 0.45683,-14.382567 -4.53487,-14.32711 z m -2.02787,6.52501 c 1.56857,0.0825 2.27033,1.19621 2.10522,3.34267 -0.79599,10.34838 -9.79626,18.5199 -13.37449,20.30885 -2.64179,1.32091 -2.64179,0.16532 0,-3.46718 2.642,-3.63246 2.4759,-4.78805 -0.49612,-3.46718 -2.97206,1.32091 -3.63185,0.001 -1.9807,-3.96141 1.65111,-3.96274 3.79829,-7.26552 6.44012,-9.90731 3.30225,-1.98136 5.73739,-2.931 7.30597,-2.84844 z m -68.10988,2.27498 c -3.2197,-0.031 -6.06864,0.82048 -8.54535,2.55417 l -6.93435,5.94401 v 4.95365 l 3.9633,-0.99036 c 9.24635,4.62317 19.48269,4.2933 30.71037,-0.99035 l 10.89767,1.98071 v -4.95365 l -10.89767,-0.99036 c -7.43007,-4.95341 -13.8278,-7.45621 -19.19397,-7.50782 z m -2.60133,3.54452 c -1.98136,2.64183 -1.64955,5.28482 0.99223,7.9266 -2.64178,-1.32091 -4.95489,-2.31251 -6.93625,-2.97294 0.66045,-1.98135 2.64176,-3.63274 5.94402,-4.95366 z m 7.9266,0.99225 9.90729,4.95176 c -3.96272,1.32091 -7.26547,1.98259 -9.90729,1.98259 1.98138,-1.98135 1.98138,-4.29254 0,-6.93435 z m 43.58874,17.83201 c 3.96273,1.98135 4.78841,3.79673 2.47682,5.44788 -2.31158,1.65112 -3.79705,1.65112 -4.45753,0 -0.66043,-1.65115 -6.5e-4,-3.46653 1.98071,-5.44788 z m -71.83174,25.36247 c 2.26744,0.0528 4.5139,1.38461 11.40133,1.38461 3.30227,0 4.29194,0.32989 2.97105,0.99035 l -14.85905,0.99225 c -2.36117,-1.18058 -2.12418,-3.42795 0.48667,-3.36721 z m 14.37238,3.36721 c -2.31162,3.91882 -6.80647,4.95796 -10.89576,5.944 -2.71742,0.76118 -4.83396,-0.12156 -1.98259,-2.97295 z m 119.87235,298.1944 c 19.15313,25.0972 20.14474,57.12774 2.97296,96.09445 L 377.19814,681.8759 H 213.73516 l 40.61769,-201.10771 z"
     sodipodi:nodetypes="cccccccccscscsscsscccscscsscsccsccccsccsccscccscsssccsccsssscccccscccccscssscsccsscccssscssccsccssscscccsccscccscsssssccsccssccccccccscccccccccsscssccscscccccccc" />
</svg>
