<?xml version="1.0" encoding="UTF-8" standalone="no"?>
<svg
   width="600"
   height="1000"
   id="svg1333"
   sodipodi:version="0.32"
   inkscape:version="1.4.2 (f4327f4, 2025-05-13)"
   sodipodi:docname="13031.svg"
   version="1.1"
   xmlns:inkscape="http://www.inkscape.org/namespaces/inkscape"
   xmlns:sodipodi="http://sodipodi.sourceforge.net/DTD/sodipodi-0.dtd"
   xmlns="http://www.w3.org/2000/svg"
   xmlns:svg="http://www.w3.org/2000/svg"
   xmlns:rdf="http://www.w3.org/1999/02/22-rdf-syntax-ns#"
   xmlns:cc="http://creativecommons.org/ns#"
   xmlns:dc="http://purl.org/dc/elements/1.1/">
  <metadata
     id="metadata1340">
    <rdf:RDF>
      <cc:Work
         rdf:about="">
        <dc:format>image/svg+xml</dc:format>
        <dc:type
           rdf:resource="http://purl.org/dc/dcmitype/StillImage" />
        <dc:date>5/02/2006</dc:date>
        <dc:creator>
          <cc:Agent>
            <dc:title>Serge Thomas</dc:title>
          </cc:Agent>
        </dc:creator>
        <dc:publisher>
          <cc:Agent>
            <dc:title>Serge Rosmorduc</dc:title>
          </cc:Agent>
        </dc:publisher>
        <dc:description>addition sur le signe A40 extrait de KV57</dc:description>
        <cc:license
           rdf:resource="http://creativecommons.org/licenses/GPL/2.0/" />
      </cc:Work>
      <cc:License
         rdf:about="http://creativecommons.org/licenses/GPL/2.0/">
        <cc:permits
           rdf:resource="http://web.resource.org/cc/Reproduction" />
        <cc:permits
           rdf:resource="http://web.resource.org/cc/Distribution" />
        <cc:requires
           rdf:resource="http://web.resource.org/cc/Notice" />
        <cc:permits
           rdf:resource="http://web.resource.org/cc/DerivativeWorks" />
        <cc:requires
           rdf:resource="http://web.resource.org/cc/ShareAlike" />
        <cc:requires
           rdf:resource="http://web.resource.org/cc/SourceCode" />
      </cc:License>
    </rdf:RDF>
  </metadata>
  <defs
     id="defs1338" />
  <sodipodi:namedview
     inkscape:window-height="998"
     inkscape:window-width="1680"
     inkscape:pageshadow="2"
     inkscape:pageopacity="0.0"
     borderopacity="1.0"
     bordercolor="#666666"
     pagecolor="#ffffff"
     id="base"
     inkscape:zoom="0.53386562"
     inkscape:cx="589.09956"
     inkscape:cy="604.0846"
     inkscape:window-x="-8"
     inkscape:window-y="-8"
     inkscape:current-layer="svg1333"
     inkscape:showpageshadow="2"
     inkscape:pagecheckerboard="0"
     inkscape:deskcolor="#d1d1d1"
     inkscape:window-maximized="1"
     showguides="true">
    <sodipodi:guide
       position="0,1000"
       orientation="0,-1"
       id="guide1"
       inkscape:locked="false" />
    <sodipodi:guide
       position="0,0"
       orientation="0,-1"
       id="guide2"
       inkscape:locked="false" />
    <sodipodi:guide
       position="57.893816,519.96404"
       orientation="0,-1"
       id="guide3"
       inkscape:locked="false" />
  </sodipodi:namedview>
  <path
     id="path1335"
     style="fill:#000000;stroke:none;stroke-width:1"
     d="M 43.152344 0 C 10.58038 0 -50.449219 8.9939738 -50.449219 76.416016 C -50.449219 109.09018 -27.854581 138.38711 17.3125 164.33398 L 17.3125 376.93945 L -129.10156 42.972656 L -178.31055 128.08984 L -356.52344 449.93945 C -367.16608 472.99252 -368.93895 486.29265 -361.8457 489.83789 C -344.11257 496.04449 -327.70987 488.95295 -312.63672 468.56055 C -315.2939 475.65379 -316.62695 483.6315 -316.62695 492.49805 C -316.62695 501.36461 -312.63616 507.13186 -304.65625 509.78906 C -298.44965 512.44624 -292.01755 510.44724 -285.37109 503.80078 C -278.72118 497.15087 -273.62336 490.28075 -270.07812 483.1875 C -273.62476 508.01318 -266.53126 523.97314 -248.79883 531.06641 C -242.59223 533.72638 -235.05601 523.0855 -226.18945 499.14648 L -123.78125 133.4082 L -2.7558594 410.03906 L -2.7519531 410.04102 C -51.517374 410.04102 -60.383843 421.12529 -29.351562 443.29102 C -38.658073 466.98201 -26.587799 498.31151 3.9804688 520.59375 C -9.030627 554.73606 11.566255 596.64761 41.054688 651.25586 C 77.270353 718.32195 108.34319 804.16793 134.27539 908.79102 L 9.5332031 951.71289 L 16.240234 1000 L 567.52344 1000 L 508.50586 934.27539 C 531.75545 859.16132 543.37891 725.47679 543.37891 533.2207 L 591.66602 526.51367 C 591.66602 452.29386 568.41714 378.96845 521.91797 306.53711 C 565.73449 238.57678 578.25308 182.0172 559.47461 136.85938 C 540.6961 91.701543 514.09331 62.639949 479.66602 49.673828 C 445.23877 36.707745 409.47123 31.117826 372.36133 32.90625 C 335.25143 34.694674 306.41263 54.368765 285.8457 91.925781 C 277.79777 79.406776 278.91576 68.228929 289.19922 58.392578 C 299.48269 48.55619 301.49388 36.930777 295.23438 23.517578 C 298.96073 8.6120246 284.50962 -0.15566481 275.36719 0.001953125 C 270.08432 0.093030745 259.74984 3.7533109 252.3125 8.0917969 C 242.29508 13.935277 243.8249 25.47005 262.37305 23.517578 C 270.86806 22.623347 270.42049 24.8593 261.03125 30.224609 C 251.64198 35.589881 248.28804 49.003681 250.9707 70.464844 C 253.65335 91.925967 261.70203 105.78541 275.11523 112.04492 C 267.96153 141.55401 255.66572 168.82722 238.22852 193.86523 C 220.79136 218.90324 225.48607 230.97626 252.3125 230.08203 C 246.053 239.02418 246.94816 244.3893 254.99609 246.17773 C 247.84239 250.64881 246.94723 254.67315 252.3125 258.25 C 257.67777 261.82685 262.12695 292.16406 262.12695 292.16406 L 208.60156 398.21484 L 253.21484 408.62305 L 293.10742 297.67969 L 323.40234 289.09961 C 342.18085 303.40704 353.80626 325.76274 358.27734 356.16602 C 331.45087 448.2701 310.8836 584.63818 296.57617 765.26953 L 114.15625 509.07617 C 108.59449 501.26517 101.54676 494.98986 93.783203 490.29883 L 95.054688 489.80078 C 95.054688 448.55994 85.961547 418.27329 48.974609 411.47852 L 48.974609 149.98828 C 3.8075294 123.08037 -18.787109 98.519354 -18.787109 76.416016 C -18.787109 33.858629 22.555973 28.810547 44.839844 28.810547 C 69.482289 28.810547 97.941406 37.78702 97.941406 77.900391 C 97.941406 103.01967 92.25 108.20318 92.25 125.38281 C 92.25 148.79273 106.49277 156.48954 128.22852 155.67773 C 119.76022 88.020584 132.55273 76.728092 132.55273 61.949219 C 132.55273 44.865887 124.78277 1.2452964e-15 43.152344 0 z M 388.75 58.644531 C 411.46863 57.806197 435.06772 61.746235 459.54688 70.464844 C 492.1857 82.089619 516.32978 105.11572 531.97852 139.54297 C 547.62729 173.97025 545.3913 210.63292 525.27148 249.53125 C 505.15163 288.42957 485.4795 300.72345 466.25391 286.41602 C 447.02829 272.10859 437.41406 254.6724 437.41406 234.10547 C 455.29833 218.00962 466.47619 202.35986 470.94727 187.1582 C 475.41835 171.95654 475.19549 158.09715 470.27734 145.57812 C 465.35914 133.05911 455.96968 125.68277 442.10938 123.44727 C 428.24903 121.21173 414.16485 125.45887 399.85742 136.18945 C 377.50207 123.67045 347.99287 112.94021 311.33008 103.99805 C 321.49144 70.973527 353.64817 59.939815 388.75 58.644531 z M 292.55273 125.45898 C 327.4271 131.71849 363.19464 144.23711 399.85742 163.01562 L 410.58789 160.33203 C 422.2127 149.60145 431.60216 147.14269 438.75586 152.95508 C 445.90963 158.76747 447.69797 167.48652 444.12109 179.11133 C 440.5442 190.7361 426.6848 206.3839 402.54102 226.05664 C 410.58895 273.44997 432.94463 305.64272 469.60742 322.63281 C 453.5116 359.29563 424.89562 369.57831 383.76172 353.48242 C 381.0791 320.39648 368.03945 292.60185 347.48242 273.8125 C 333.89062 263.43243 314.26669 276.9231 297.38672 279.08203 C 281.20069 281.15221 274.63478 279.24777 274.76758 272.85547 C 274.93882 264.613 274.22108 259.58992 269.75 254.22461 C 300.15332 256.01307 308.87237 251.98873 295.90625 242.15234 C 282.94013 232.31599 273.77347 229.63439 268.4082 234.10547 C 271.98505 220.69224 264.83159 213.98633 246.94727 213.98633 C 267.51424 180.90039 282.71638 151.39119 292.55273 125.45898 z M 310.49219 140.88281 C 305.01513 141.10637 300.15377 142.44911 295.90625 144.9082 C 287.41121 149.82636 283.16211 154.52111 283.16211 158.99219 C 304.62327 151.83849 321.8386 150.94332 334.80469 156.30859 C 347.77081 161.67386 364.98415 165.25063 386.44531 167.03906 L 378.39648 160.33203 C 358.72378 153.1783 342.18082 147.59037 328.76758 143.56641 C 322.06098 141.55442 315.96925 140.65926 310.49219 140.88281 z M -153.04102 141.38867 L -244.80859 465.89844 L -317.95703 437.96875 L -153.04102 141.38867 z M 310.99609 160.66797 C 299.14775 160.44441 290.76388 164.80396 285.8457 173.74609 L 273.77344 181.79297 L 273.77344 188.5 L 284.50391 189.8418 C 300.5998 199.67815 325.19141 197.4422 358.27734 183.13477 L 386.44531 187.1582 L 387.78516 176.42773 L 356.93555 175.08789 C 338.15704 165.69864 322.84443 160.89153 310.99609 160.66797 z M 304.625 169.72266 C 301.04815 175.98216 301.49376 181.79293 305.96484 187.1582 C 299.7053 185.36977 294.34018 183.58139 289.86914 181.79297 C 291.65756 177.32189 296.57707 173.29951 304.625 169.72266 z M 324.74414 169.72266 L 347.54688 179.11133 C 339.49894 182.68818 331.45027 184.92417 323.40234 185.81836 C 329.66185 181.34732 330.10945 175.98216 324.74414 169.72266 z M 515.21094 348.11719 C 541.14314 394.61632 557.68614 444.69283 564.83984 498.3457 L 538.01367 503.71094 C 536.22528 451.84649 528.62417 399.98163 515.21094 348.11719 z M 485.70312 350.80078 C 505.37586 392.82887 515.21094 480.46127 515.21094 613.69922 C 515.21094 746.93716 502.24471 857.82039 476.3125 946.34766 L 509.8457 973.17383 L 39.042969 973.17383 L 39.042969 970.49023 L 166.46875 927.56836 C 136.06546 793.43615 102.08436 695.07351 64.527344 632.47852 C 26.970329 569.88349 18.698844 531.43239 39.712891 517.125 C 60.726902 502.81753 84.200575 517.12454 110.13281 560.04688 L 296.57617 809.5332 L 320.7207 809.5332 C 337.71075 603.86392 356.93532 461.2355 378.39648 381.65039 C 424.89565 400.4289 460.66515 390.14622 485.70312 350.80078 z M 2.5664062 441.95703 L 51.775391 441.95703 C 70.395191 448.16364 73.053106 460.1328 59.753906 477.86523 L 15.865234 483.1875 C -4.5271648 475.20759 -8.9594941 461.46347 2.5664062 441.95703 z " />
</svg>
