<?xml version="1.0" encoding="UTF-8" standalone="no"?>
<svg
   width="1000"
   height="1000"
   version="1.1"
   id="svg1"
   sodipodi:docname="13041.svg"
   inkscape:version="1.4.2 (f4327f4, 2025-05-13)"
   xmlns:inkscape="http://www.inkscape.org/namespaces/inkscape"
   xmlns:sodipodi="http://sodipodi.sourceforge.net/DTD/sodipodi-0.dtd"
   xmlns="http://www.w3.org/2000/svg"
   xmlns:svg="http://www.w3.org/2000/svg">
  <defs
     id="defs1" />
  <sodipodi:namedview
     id="namedview1"
     pagecolor="#ffffff"
     bordercolor="#666666"
     borderopacity="1.0"
     inkscape:showpageshadow="2"
     inkscape:pageopacity="0.0"
     inkscape:pagecheckerboard="0"
     inkscape:deskcolor="#d1d1d1"
     inkscape:zoom="0.18875"
     inkscape:cx="627.81458"
     inkscape:cy="712.58279"
     inkscape:window-width="1680"
     inkscape:window-height="998"
     inkscape:window-x="-8"
     inkscape:window-y="-8"
     inkscape:window-maximized="1"
     inkscape:current-layer="svg1"
     showguides="true">
    <sodipodi:guide
       position="1000,1000"
       orientation="0,-1"
       id="guide1"
       inkscape:locked="false" />
    <sodipodi:guide
       position="1000,0"
       orientation="0,-1"
       id="guide2"
       inkscape:locked="false" />
  </sodipodi:namedview>
  <path
     id="path1"
     style="fill:#000000;stroke:none;stroke-width:0.999999"
     d="M 716.21289 0.048828125 C 707.09752 0.23829351 697.78293 0.9654131 688.26758 2.2285156 C 650.20613 7.2809258 622.75344 36.752266 605.91211 90.644531 C 596.48097 102.77032 585.70392 119.27494 573.57812 140.1582 C 566.84146 154.30495 566.50352 162.2202 572.56641 163.9043 C 578.6293 165.58844 583.68279 168.11612 587.72461 171.48438 C 577.14531 177.52999 581.73706 183.45286 588.73438 184.61914 C 590.755 183.94547 590.08098 185.29385 586.71289 188.66211 C 583.34425 192.03036 583.84984 194.89222 588.22852 197.25 C 592.60732 199.60775 594.79688 206.85077 594.79688 218.97656 C 594.79688 230.42865 601.19669 236.1543 613.99609 236.1543 C 628.81651 236.1543 639.59552 235.4801 646.33203 234.13281 L 650.37305 265.45898 C 585.70226 266.1326 540.56756 281.96309 514.96875 312.95117 C 466.46565 356.73869 417.93513 398.70198 381.33594 447.39062 C 344.76549 412.73645 297.98154 378.07091 241.80664 337.50391 C 223.94203 276.87829 202.67677 239.07614 145.39648 211.1582 C 129.75343 203.90536 120.36376 203.90194 117.22656 211.14648 C 114.08764 218.38794 123.76837 230.59907 146.26758 247.7832 C 168.76684 264.96741 184.75589 291.39707 194.23633 327.07227 C 161.79626 311.59728 148.23142 294.3444 143.54883 283.47656 C 138.86623 272.60875 132.09122 270.5575 123.22461 277.32227 C 142.29848 319.17532 168.96442 344.27936 195.85156 355.59766 C 256.6682 426.27268 327.22139 493.70342 391.51758 532.73047 C 457.33722 483.7364 503.51708 438.92489 539.2207 397.83203 C 537.19978 426.79914 541.07385 458.29102 550.8418 492.31055 C 560.60982 526.33003 584.01745 609.02233 621.06836 740.38477 L 447.26758 585.78125 C 420.99509 562.20335 397.75257 550.41406 377.54297 550.41406 C 322.30336 551.08768 298.38863 574.32822 305.79883 620.13672 L 334.09375 855.57812 C 292.32723 866.35655 273.12784 898.01944 276.49609 950.56445 C 256.96014 953.93271 239.2762 959.15324 223.44531 966.22656 C 207.61446 973.29971 191.61494 976.3309 175.44727 975.32031 C 159.27955 974.30988 148.50055 981.88898 143.11133 998.05664 L 984.84375 998.05664 C 967.32875 964.37397 942.73983 951.06926 911.07812 958.14258 C 879.41637 965.21601 858.02736 951.23709 846.91211 916.20703 C 835.79687 881.17708 816.76646 873.76698 789.82031 893.97656 C 815.419 844.79986 816.42946 793.26529 792.85156 739.37305 C 794.00146 673.0642 798.86636 611.08602 807.93359 549.13086 C 846.0711 566.3994 886.34161 582.30339 917.00977 588.60156 C 953.28061 596.05035 980.00761 582.65059 970.75781 554.4375 C 956.02203 509.49156 926.30082 419.69205 869.64844 299.81445 C 852.80316 279.50103 829.03385 266.83948 798.3418 261.83008 C 843.95638 208.9872 896.45477 168.72019 949.46289 151.50977 L 938.6543 118.2207 C 873.0942 139.50645 812.98327 188.26284 762.53711 249.93359 L 762.53711 209.88086 C 780.72578 202.47066 798.2407 188.66077 815.08203 168.45117 C 831.92336 148.24157 840.34375 120.28566 840.34375 84.582031 C 840.34375 48.878369 824.51332 24.963638 792.85156 12.837891 C 769.10525 3.743552 743.559 -0.51956802 716.21289 0.048828125 z M 722.36914 18.142578 C 736.34745 18.984647 751.75828 21.595872 768.59961 25.974609 C 802.28233 34.73212 819.12305 54.941782 819.12305 86.603516 C 819.12305 117.59156 807.8389 143.86301 785.27148 165.41992 C 762.70407 186.97685 748.38901 192.70443 742.32617 182.59961 C 734.91599 173.16844 740.47452 159.35856 759 141.16992 C 777.52521 122.98128 782.07179 105.12827 772.64062 87.613281 C 763.20947 70.098261 743.33785 68.751861 713.02344 83.572266 C 702.91868 72.120138 678.66584 63.36172 640.26758 57.298828 C 647.67776 38.436534 662.49986 26.311111 684.73047 20.921875 C 695.84574 18.227275 708.39083 17.30051 722.36914 18.142578 z M 630.16406 74.476562 C 661.15208 76.497528 686.7513 84.581806 706.96094 98.728516 C 705.61365 110.8543 710.32892 111.35944 721.10742 100.24414 C 742.99917 77.668264 770.88865 89.292936 755.46289 119.44336 C 748.05271 133.9269 738.79103 146.22135 727.67578 156.32617 C 716.56042 166.43095 714.03281 176.5358 720.0957 186.64062 C 726.15859 196.74541 730.2017 205.50386 732.22266 212.91406 C 731.7956 247.07785 733.39798 270.54744 737.03125 283.32422 C 736.65938 283.84493 736.28853 284.36666 735.91797 284.88867 C 705.95841 327.09258 680.28811 373.61959 660.42969 421.12305 C 620.99482 412.68395 604.72602 486.05399 634.61914 494.70117 C 630.14049 510.52249 626.38915 526.26235 623.42188 541.79688 L 657.80078 548.36523 C 660.82895 532.51187 664.77458 516.32239 669.55859 499.97852 C 683.21701 501.12476 698.23014 501.30085 712.79688 499.42773 C 728.63333 507.92731 746.82848 520.1532 779.0293 535.62891 C 767.2792 596.2959 759.08788 661.17929 754.45312 730.2793 L 659.46875 751.5 C 610.96567 576.35002 584.52321 478.83762 580.14453 458.96484 C 575.76363 439.09206 574.2502 395.81084 575.59766 329.11914 C 574.25037 307.56223 590.41884 296.7832 624.10156 296.7832 C 657.78422 296.7832 674.96104 284.99389 675.63477 261.41602 C 675.63477 231.77524 663.17324 218.30341 638.24805 220.99805 C 613.32286 223.69267 602.88005 215.60838 606.92188 196.74609 C 621.74239 187.98857 626.96462 181.7559 622.58594 178.05078 C 618.2072 174.34566 610.29 172.15804 598.83789 171.48438 C 598.83789 164.74785 593.11227 159.02029 581.66016 154.30469 C 593.11227 128.70584 604.22742 110.85482 615.00586 100.75 C 625.7843 95.360784 637.06844 95.360784 648.85742 100.75 C 660.64639 106.13924 672.26658 109.84426 683.71875 111.86523 L 683.71875 104.79102 C 676.30856 104.11736 666.7089 100.58136 654.91992 94.181641 C 643.131 87.78194 631.17461 86.602658 619.04883 90.644531 C 623.09075 83.908021 626.79597 78.51849 630.16406 74.476562 z M 743.79688 94.019531 C 741.68407 93.898132 739.17415 94.26535 736.26367 95.191406 C 720.79439 100.11345 704.59637 124.9932 709.99219 133.08594 C 697.70071 138.54902 694.93696 151.18682 705.94922 155.31641 C 717.57095 159.67456 743.0471 133.30787 749.40039 117.42383 C 754.66977 104.24966 752.95235 94.545595 743.79688 94.019531 z M 632.11719 102.44727 C 627.86739 102.57884 623.84788 103.69756 620.05859 105.80273 L 609.95312 114.89648 L 609.95312 122.98047 L 615.00586 122.98047 C 629.15261 129.71698 644.98305 129.71698 662.49805 122.98047 L 680.6875 126.01172 L 680.6875 116.91797 L 663.50977 115.90625 C 651.93135 106.64351 641.46675 102.15781 632.11719 102.44727 z M 739.35938 104.82617 C 742.39081 104.90907 743.71686 106.74977 743.33789 110.34961 C 742.66422 116.74933 739.80046 122.81304 734.74805 128.53906 C 729.69564 134.26513 724.98025 138.30629 720.60156 140.66406 C 716.22288 143.02185 716.22288 141.16836 720.60156 135.10547 C 724.98025 129.04235 724.98025 126.85491 720.60156 128.53906 C 716.22288 130.2232 715.38125 128.36969 718.07617 122.98047 C 720.77075 117.59123 724.47586 112.53982 729.19141 107.82422 C 733.61231 105.76115 737.00157 104.7617 739.35938 104.82617 z M 629.15234 108.83398 C 626.45743 112.20225 626.45743 115.90729 629.15234 119.94922 C 625.11041 118.60193 621.74319 117.25354 619.04883 115.90625 C 620.39612 113.21162 623.76307 110.85494 629.15234 108.83398 z M 642.28906 110.85547 L 656.43555 118.93945 C 651.04627 120.28674 645.65685 120.95898 640.26758 120.95898 C 644.98368 118.26436 645.65715 114.8974 642.28906 110.85547 z M 708.98047 141.16797 C 713.69601 144.53622 714.53904 147.40004 711.50781 149.75781 C 708.47648 152.11581 706.28691 151.94854 704.93945 149.25391 C 703.59199 146.55927 704.93865 143.86456 708.98047 141.16992 L 708.98047 141.16797 z M 612.4375 152.00586 C 611.24796 151.97386 610.08625 154.101 610.45898 156.32617 C 611.03722 159.79509 606.67848 163.40761 601.36523 157.33594 C 594.88352 149.92779 591.76572 153.66867 591.76562 158.34766 C 594.46014 157.00071 597.32246 158.17985 600.35352 161.88477 C 607.03068 170.04564 615.11623 162.45741 614.5 156.32617 C 614.18756 153.20207 613.30555 152.02918 612.4375 152.00586 z M 595.56836 176.22852 C 596.38351 176.25242 597.30587 176.34821 598.33398 176.53516 C 602.0391 177.20884 606.41829 177.88297 611.4707 178.55664 C 616.52322 179.23026 618.71084 179.56836 618.03711 179.56836 L 593.78711 180.57812 C 589.35669 179.46971 589.86231 176.06138 595.56836 176.22852 z M 617.02734 182.59961 C 614.86114 184.7654 605.98552 188.91307 599.84961 189.67188 C 593.66356 190.43687 593.46138 187.97583 595.80664 185.63086 L 617.02734 182.59961 z M 771.125 295.93945 C 779.48012 296.22048 789.41757 296.50228 800.93555 296.7832 C 828.55516 297.45686 829.56566 342.25546 803.9668 431.17773 C 799.55405 446.5062 795.41133 462.15401 791.53906 478.12305 C 767.6432 469.87677 746.13478 464.14083 720.39648 458.6875 C 711.32351 449.27905 702.99084 441.38921 692.71484 434.86719 C 711.59246 389.68788 736.04329 345.17751 764.45898 305.14844 C 766.65779 302.051 768.87954 298.9803 771.125 295.93945 z M 835.98828 406.49219 C 858.29867 459.71084 864.11759 474.12216 898.29297 524.75977 C 869.52103 510.5451 844.44231 498.51978 818.22266 488.05664 C 823.32588 461.23955 829.235 434.16421 835.98828 406.49219 z M 374.51172 614.07422 L 417.96289 614.07422 L 609.95312 770.69922 C 551.34528 775.41482 481.95971 797.64509 401.79492 837.39062 C 401.79492 721.52224 392.70035 647.08326 374.51172 614.07422 z M 766.57812 764.63477 C 781.3985 821.89533 772.3039 871.74731 739.29492 914.1875 C 690.11822 943.15456 630.66846 947.53185 560.94531 927.32227 C 491.22216 907.11263 425.03649 911.49193 362.38672 940.45898 C 359.69206 883.87216 494.42204 825.26364 766.57812 764.63477 z " />
</svg>
