<?xml version="1.0" encoding="UTF-8" standalone="no"?>
<svg
   width="1000"
   height="800"
   version="1.1"
   id="svg1"
   sodipodi:docname="13040.svg"
   inkscape:version="1.4.2 (f4327f4, 2025-05-13)"
   xmlns:inkscape="http://www.inkscape.org/namespaces/inkscape"
   xmlns:sodipodi="http://sodipodi.sourceforge.net/DTD/sodipodi-0.dtd"
   xmlns="http://www.w3.org/2000/svg"
   xmlns:svg="http://www.w3.org/2000/svg">
  <defs
     id="defs1" />
  <sodipodi:namedview
     id="namedview1"
     pagecolor="#ffffff"
     bordercolor="#666666"
     borderopacity="1.0"
     inkscape:showpageshadow="2"
     inkscape:pageopacity="0.0"
     inkscape:pagecheckerboard="0"
     inkscape:deskcolor="#d1d1d1"
     showguides="true"
     inkscape:zoom="0.33366601"
     inkscape:cx="996.50545"
     inkscape:cy="657.84345"
     inkscape:window-width="1680"
     inkscape:window-height="998"
     inkscape:window-x="-8"
     inkscape:window-y="-8"
     inkscape:window-maximized="1"
     inkscape:current-layer="svg1">
    <sodipodi:guide
       position="50.405901,512.86453"
       orientation="1,0"
       id="guide3"
       inkscape:locked="false" />
    <sodipodi:guide
       position="985.30367,519.51073"
       orientation="0,-1"
       id="guide4"
       inkscape:locked="false" />
    <sodipodi:guide
       position="149.54492,474.0957"
       orientation="0,-1"
       id="guide5"
       inkscape:locked="false" />
    <sodipodi:guide
       position="985.30367,519.51073"
       orientation="1,0"
       id="guide6"
       inkscape:locked="false" />
  </sodipodi:namedview>
  <path
     id="path1"
     style="fill:#000000;stroke:none;stroke-width:1"
     d="M 292.96094 35.087891 C 282.0637 35.087891 272.01371 42.858842 281.51758 58.662109 C 262.69699 100.11347 179.99245 109.73514 168.70508 107.31641 C 164.67387 101.67273 160.03939 99.254313 154.79883 100.06055 C 149.15514 101.67304 145.72889 100.66519 144.51953 97.037109 C 143.31017 93.409024 140.28667 93.609412 135.44922 97.640625 C 134.64297 95.221901 133.43279 93.81132 131.82031 93.408203 C 130.20783 93.005076 129.40234 94.415657 129.40234 97.640625 C 124.96801 100.05934 122.34726 98.246028 121.54102 92.199219 C 120.73477 86.15241 117.50893 83.531657 111.86523 84.337891 C 102.19034 87.562859 93.322181 92.399682 85.259766 98.849609 C 77.600478 105.29954 68.529957 109.33088 58.048828 110.94336 C 19.349262 118.60265 -2.3684758e-14 144.40362 0 188.34375 C 0 231.88075 11.69128 263.72679 35.072266 283.88281 C 39.539285 287.73369 44.673785 291.20411 50.40625 294.33398 L 50.40625 350.27344 L 54.835938 479.875 C 52.620539 505.7213 53.912863 523.07591 58.712891 531.9375 C 63.512919 540.79909 65.914062 567.75241 65.914062 612.79883 C 65.914062 657.84524 57.236762 686.4618 39.882812 698.64648 C 16.62114 713.78504 4.9902344 730.76873 4.9902344 749.59961 L 4.9902344 769.53906 L 23.267578 769.53906 L 23.267578 800 L 93.052734 800 L 93.052734 769.53906 L 106.34375 769.53906 C 118.52844 752.92358 122.95982 738.15362 119.63672 725.23047 C 115.94439 711.93808 121.29913 703.07728 135.69922 698.64648 C 150.0993 694.21569 152.68395 683.69165 143.45312 667.07617 C 134.59153 650.46069 130.52911 631.63026 131.26758 610.58398 C 132.00604 589.53771 136.06849 567.19927 143.45312 543.56836 C 151.20702 519.93745 153.60621 464.92198 150.65234 378.52148 C 150.65234 363.75216 154.71476 354.335 162.83789 350.27344 L 830.7793 350.27344 C 803.08683 465.47411 825.97968 542.45906 899.45703 581.22852 C 902.78012 653.59817 893.17946 696.06131 870.65625 708.61523 C 848.13304 721.53839 836.87109 736.30638 836.87109 752.92188 L 836.87109 771.75391 L 859.02539 771.75391 L 859.02539 800 L 938.22656 800 L 938.22656 771.75391 L 954.8418 771.75391 C 966.28802 749.96917 965.18115 731.69119 951.51953 716.92188 C 951.51953 704.73717 957.24128 698.64648 968.6875 698.64648 C 979.76449 698.64648 981.42575 687.75349 973.67188 665.96875 C 965.54876 644.18401 965.73421 624.06126 974.22656 605.59961 C 982.34969 587.13796 989.54921 575.50706 995.82617 570.70703 C 1002.4724 565.907 1001.18 559.07643 991.94922 550.21484 C 959.08749 529.90703 942.6582 503.13721 942.6582 469.90625 C 942.6582 437.04452 956.8718 407.3211 985.30273 380.73633 L 985.30273 280.49023 L 965.60742 280.49023 C 973.63283 277.28692 980.19668 270.15297 985.30273 259.08984 L 985.30273 80.265625 C 985.30273 64.120665 971.63235 68.329766 964.82422 77.835938 C 934.02707 120.83781 915.76556 158.10959 909.71875 176.25 C 903.67195 194.39042 846.83238 191.97201 739.19922 168.99414 C 696.3426 159.81058 543.95535 109.62808 389.70898 108.47852 C 337.96997 108.09292 295.99128 113.22397 274.52539 127.26953 C 261.22242 132.10698 245.49979 140.77474 227.35938 153.27148 C 205.18774 163.75261 187.6518 162.94711 174.75195 150.85352 L 174.75195 134.52734 C 233.36864 124.7579 297.37182 99.777827 306.58008 59.65625 C 309.0742 48.78902 308.17357 35.087891 292.96094 35.087891 z M 110.65625 97.640625 C 114.68745 97.640625 116.70312 101.26922 116.70312 108.52539 C 119.12184 113.76596 123.75828 114.1687 130.61133 109.73438 L 134.23828 127.26953 C 137.46324 129.68825 139.47891 128.88276 140.28516 124.85156 L 146.33203 113.36328 C 151.16947 112.55704 155.20081 113.56487 158.42578 116.38672 C 162.05387 118.80544 163.26405 125.86029 162.05469 137.55078 C 160.44221 149.64439 159.63477 157.30237 159.63477 160.52734 C 154.79733 173.42719 144.72091 182.90046 129.40234 188.94727 C 121.74305 188.14103 112.26979 187.33554 100.98242 186.5293 L 96.144531 192.57617 C 103.4007 191.76992 107.43203 193.38286 108.23828 197.41406 C 109.04452 201.44527 105.81867 203.05625 98.5625 202.25 C 90.096968 208.69993 82.84173 212.12812 76.794922 212.53125 C 70.748113 212.93435 67.724609 210.514 67.724609 205.27344 C 67.724609 200.03287 74.174366 196.60662 87.074219 194.99414 L 81.027344 184.71484 C 59.661959 163.75258 52.40476 145.41116 59.257812 129.68945 L 64.095703 127.26953 C 60.0645 133.71947 61.677424 143.19272 68.933594 155.68945 C 72.158562 161.33313 74.576974 166.9774 76.189453 172.62109 L 81.027344 171.41211 C 78.60862 164.96217 75.787468 157.70693 72.5625 149.64453 C 69.337532 141.98524 68.73244 135.13079 70.748047 129.08398 C 72.763653 123.03718 78.205569 116.99017 87.074219 110.94336 C 95.539751 103.68719 103.40008 99.253104 110.65625 97.640625 z M 85.865234 122.43359 L 81.027344 123.64258 C 81.833578 125.25506 81.028099 127.27073 78.609375 129.68945 C 76.190652 132.10818 75.785958 136.13952 77.398438 141.7832 C 77.398438 146.62065 80.221552 153.2708 85.865234 161.73633 L 87.074219 170.20312 L 92.515625 170.20312 L 92.515625 160.52734 C 97.353072 143.9994 95.137011 132.91322 85.865234 127.26953 L 85.865234 122.43359 z M 961.7207 123.64258 L 961.7207 216.76367 C 962.52695 249.01331 954.26387 261.30772 936.92969 253.64844 C 919.19238 246.39228 871.59967 242.16052 739.7793 240.95117 C 608.36203 239.7418 577.88446 244.1759 551.68164 254.25391 C 525.47882 264.73504 485.97284 260.09861 433.16406 240.3457 C 399.70507 245.18314 378.9332 246.99648 344.66797 245.78711 C 309.99962 244.57775 283.19274 243.97461 264.24609 243.97461 C 245.70254 243.97461 232.6007 239.13582 224.94141 229.46094 C 217.68524 219.38293 219.29816 204.46774 229.7793 184.71484 C 239.05106 175.03995 252.35332 165.76905 269.6875 156.90039 C 295.03078 142.00795 336.91507 135.89639 387.66992 135.64062 C 551.16077 139.01685 623.09358 175.61571 783.33984 205.27344 C 875.25128 222.20449 923.62544 218.57784 928.46289 194.39062 C 933.70345 170.2034 944.78965 146.62045 961.7207 123.64258 z M 42.931641 140.57422 C 46.156609 165.97081 55.62987 182.09422 71.351562 188.94727 C 60.064189 190.55975 54.017173 196.80911 53.210938 207.69336 C 52.80782 218.98073 58.654439 224.62305 70.748047 224.62305 C 82.438537 224.62305 92.919639 220.39131 102.19141 211.92578 C 112.67254 212.73202 117.91211 211.11908 117.91211 207.08789 C 150.16175 210.31285 173.94703 230.87233 189.26562 268.76562 C 226.35269 269.57187 278.1531 269.57187 344.66797 268.76562 L 344.66797 288.11523 C 278.1531 288.92147 221.91861 289.52657 175.96289 289.92969 C 130.00715 290.33282 93.119997 284.8909 65.304688 273.60352 C 37.489377 261.91303 23.582031 231.88032 23.582031 183.50586 C 23.582031 162.54361 30.031789 148.23351 42.931641 140.57422 z M 166.28711 167.7832 C 183.21818 175.84561 198.33569 178.66872 211.63867 176.25 C 197.52946 189.55297 194.70635 213.33633 203.17188 247.60156 C 185.8377 218.98001 164.47276 200.63857 139.07617 192.57617 C 151.16978 187.3356 160.2403 179.07058 166.28711 167.7832 z M 430.74609 266.34766 C 445.8835 272.37986 460.13583 277.09302 473.50586 280.49023 L 366.43555 280.49023 L 366.43555 272.39453 C 391.83213 272.39453 404.54326 270.37888 430.74609 266.34766 z M 747.64062 266.34766 C 874.22043 267.96015 920.40062 272.39424 940.55664 279.65039 C 941.4042 279.95551 942.24324 280.23501 943.07227 280.49023 L 559.36719 280.49023 C 590.465 269.46659 622.05045 264.75288 747.64062 266.34766 z M 952.62695 300.98242 L 952.62695 378.52148 C 927.88835 404.73702 915.51953 435.75081 915.51953 471.56641 C 915.51953 507.38201 932.50323 538.76866 966.47266 565.72266 C 946.16485 607.81521 940.44115 639.01445 949.30273 659.32227 C 958.16433 679.63007 954.84177 686.27714 939.33398 679.26172 C 937.11859 687.75407 933.42708 696.06047 928.25781 704.18359 C 923.45779 712.67595 925.48802 721.35325 934.34961 730.21484 C 942.84196 739.07643 940.25732 746.64489 926.5957 752.92188 L 901.11914 752.92188 L 907.76562 736.86133 L 893.91797 736.86133 L 886.16406 752.92188 L 863.45703 752.92188 C 863.45703 739.99873 873.61016 729.10769 893.91797 720.24609 C 914.22578 711.01527 925.48773 659.87678 927.70312 566.83008 C 849.795 538.39914 828.74886 458.08969 864.56445 325.9043 L 149.54492 325.9043 C 135.13838 325.9043 127.42377 340.12768 127.94531 368.55078 C 129.63929 460.87005 126.6527 527.50538 117.42188 568.49023 C 107.82182 609.47509 106.713 637.72269 114.09766 653.23047 C 121.85155 668.36902 119.82131 680.36888 108.00586 689.23047 C 96.559635 697.72283 92.868125 707.13804 96.929688 717.47656 C 100.99125 727.44586 97.483235 738.15339 86.40625 749.59961 L 60.375 749.59961 L 68.128906 731.32227 L 52.621094 731.32227 L 40.990234 749.59961 L 32.128906 749.59961 C 32.128906 738.15339 41.913077 725.78457 61.482422 712.49219 C 81.051767 699.56903 91.021392 668.73679 91.390625 619.99805 C 91.759858 570.89007 89.360667 541.72105 84.191406 532.49023 C 78.652912 523.25941 76.991634 506.09026 79.207031 480.98242 L 75.882812 369.6582 C 76.416566 338.16682 80.905066 317.67101 89.347656 308.16992 C 108.45654 312.35605 131.0794 314.53919 157.2168 314.7207 C 215.66926 315.12381 285.40834 315.32617 366.43555 315.32617 L 366.43555 301.74414 L 952.62695 300.98242 z " />
</svg>
