<?xml version="1.0" encoding="UTF-8" standalone="no"?>
<svg
   width="600"
   height="1000"
   version="1.1"
   id="svg1"
   sodipodi:docname="13050.svg"
   inkscape:version="1.4.2 (f4327f4, 2025-05-13)"
   xmlns:inkscape="http://www.inkscape.org/namespaces/inkscape"
   xmlns:sodipodi="http://sodipodi.sourceforge.net/DTD/sodipodi-0.dtd"
   xmlns="http://www.w3.org/2000/svg"
   xmlns:svg="http://www.w3.org/2000/svg">
  <defs
     id="defs1" />
  <sodipodi:namedview
     id="namedview1"
     pagecolor="#ffffff"
     bordercolor="#666666"
     borderopacity="1.0"
     inkscape:showpageshadow="2"
     inkscape:pageopacity="0.0"
     inkscape:pagecheckerboard="0"
     inkscape:deskcolor="#d1d1d1"
     inkscape:zoom="0.3775"
     inkscape:cx="-67.549669"
     inkscape:cy="509.93377"
     inkscape:window-width="1680"
     inkscape:window-height="998"
     inkscape:window-x="-8"
     inkscape:window-y="-8"
     inkscape:window-maximized="1"
     inkscape:current-layer="svg1" />
  <path
     id="path1"
     style="fill:#000000;stroke:none;stroke-width:0.999998"
     d="M 437.29883 0.03515625 C 387.245 -0.70638192 351.65141 9.8609529 330.51758 31.736328 C 310.12528 53.240934 300.29948 76.600205 301.04102 101.8125 C 302.89487 117.38481 299.1872 131.84372 289.91797 145.19141 C 284.7272 152.97756 281.01953 158.7259 278.79492 162.43359 C 276.57031 166.14128 275.45898 169.84895 275.45898 173.55664 C 275.45898 177.6351 276.94205 180.22949 279.9082 181.3418 C 283.24512 182.82487 287.87824 184.86359 293.81055 187.45898 L 293.81055 192.46484 C 286.76594 197.65561 287.50747 202.66047 296.03516 207.48047 C 288.61977 215.26662 290.28871 220.8291 301.04102 224.16602 C 298.44563 232.69371 298.63151 239.73729 301.59766 245.29883 C 304.56381 250.86036 310.3102 254.38412 318.83789 255.86719 C 332.55635 259.57488 342.75194 260.87208 349.42578 259.75977 C 351.27963 266.80438 354.9873 274.5895 360.54883 283.11719 C 366.11037 291.27411 372.60024 300.17251 380.01562 309.8125 L 380.01562 309.81445 C 352.64117 350.47317 324.47595 390.82796 304.08398 434.80664 C 287.60279 467.73345 292.5429 497.55222 320.18359 524.26562 C 315.61266 593.29387 300.33301 656.76984 274.3457 714.69336 L 116.39844 484.44531 L 115.28516 484.44531 C 100.08363 462.19916 75.243243 458.12171 40.761719 472.21094 C 6.2801952 486.30017 -6.3258671 508.91595 2.9433594 540.06055 C 81.917171 775.49891 120.66276 901.7454 119.17969 918.80078 C 116.5843 936.59769 104.90369 951.8001 84.140625 964.40625 C 63.377557 977.38317 57.631164 989.2477 66.900391 1000 L 543.52344 1000 C 559.46651 991.47231 559.46651 979.97757 543.52344 965.51758 C 501.62653 915.46375 488.09501 867.08018 502.92578 820.36328 C 517.75654 773.64637 531.28806 662.04467 543.52344 485.55859 L 585.23633 485.55859 L 585.23633 276.44336 C 585.23633 184.8634 573.55572 115.90082 550.19727 69.554688 C 526.83882 23.208554 489.2065 0.03515625 437.29883 0.03515625 z M 421.13477 25.966797 C 428.66601 25.827759 436.64899 26.081623 445.08398 26.730469 C 479.19473 29.325852 503.29554 42.489529 517.38477 66.21875 C 531.10323 89.947968 541.29882 114.23269 547.97266 139.07422 C 554.27573 163.54497 557.42773 203.03211 557.42773 257.53516 L 558.54102 459.97461 L 418.38867 459.97461 L 418.38867 244.74414 C 418.38867 219.16107 425.80401 199.88121 440.63477 186.9043 C 455.46554 173.55661 463.80826 155.2022 465.66211 131.84375 C 467.14518 108.4853 458.98832 96.620769 441.19141 96.25 C 423.39449 95.879231 413.1989 101.25584 410.60352 112.37891 C 409.86198 104.59276 402.0749 96.805684 387.24414 89.019531 C 372.41337 81.60415 353.87505 80.306955 331.62891 85.126953 C 334.96583 63.251578 346.2747 47.493512 365.55469 37.853516 C 380.01468 30.345442 398.54103 26.383912 421.13477 25.966797 z M 347.48047 101.67383 C 357.67662 101.58113 367.22263 102.73844 376.12109 105.14844 C 394.28877 109.96843 403.37305 121.2773 403.37305 139.07422 L 419.50195 139.07422 C 421.35579 122.76038 426.91632 114.60352 436.18555 114.60352 C 447.30862 114.60352 450.27475 123.31604 445.08398 140.74219 C 439.89321 158.16834 430.43915 172.25747 416.7207 183.00977 C 402.63147 193.3913 395.58789 205.81345 395.58789 220.27344 C 387.80174 231.39651 375.93721 237.88443 359.99414 239.73828 C 325.14185 249.00751 309.38378 242.51959 312.7207 220.27344 C 316.79916 216.19498 321.06249 212.8571 325.51172 210.26172 L 331.62891 209.15039 C 318.28122 201.36424 308.08563 196.72916 301.04102 195.24609 C 302.89487 190.79686 302.89487 186.53354 301.04102 182.45508 L 309.93945 184.67969 C 313.27637 178.74738 312.72071 174.66797 308.27148 172.44336 C 303.45149 170.58951 299.37208 170.96125 296.03516 173.55664 C 292.69823 174.29818 291.03125 172.99904 291.03125 169.66211 C 291.03125 166.32519 295.29458 159.09573 303.82227 147.97266 C 312.34996 136.84959 316.05762 122.76046 314.94531 105.70508 C 326.43915 103.10969 337.28432 101.76652 347.48047 101.67383 z M 346.42773 107.57422 C 343.56007 107.48732 340.66785 107.79113 337.74805 108.48633 C 329.59113 109.9694 324.02865 111.82226 321.0625 114.04688 C 318.09635 116.27148 317.35482 119.23762 318.83789 122.94531 C 320.69174 126.653 324.95506 126.46713 331.62891 122.38867 C 338.67352 117.93944 346.83038 117.56965 356.09961 121.27734 C 365.36884 124.61426 376.86358 125.91145 390.58203 125.16992 L 390.58203 117.38477 C 377.60511 117.38477 367.59344 115.34409 360.54883 111.26562 C 355.91422 108.94832 351.20718 107.71905 346.42773 107.57422 z M 345.5332 126.2832 C 333.66859 126.2832 325.32586 130.91632 320.50586 140.18555 L 314.94531 141.29883 L 314.94531 147.97266 L 322.73047 147.97266 C 329.77508 150.56805 336.26497 151.30958 342.19727 150.19727 C 348.87112 150.19727 361.10543 146.4896 378.90234 139.07422 L 390.58203 140.18555 L 390.58203 134.06836 L 378.90234 135.18164 C 362.95927 129.24933 351.83627 126.2832 345.5332 126.2832 z M 335.52344 132.40039 C 334.04037 134.25424 333.29883 136.47883 333.29883 139.07422 C 333.29883 141.6696 335.33756 143.70833 339.41602 145.19141 C 335.33756 145.19141 330.3327 144.44988 324.40039 142.9668 C 328.47885 137.77603 332.18652 134.25424 335.52344 132.40039 z M 348.31445 132.40039 C 354.24676 133.5127 360.17902 135.18163 366.11133 137.40625 C 362.77441 139.26009 356.4704 141.48469 347.20117 144.08008 C 349.79655 142.22623 351.0957 140.55729 351.0957 139.07422 C 351.0957 136.47883 350.1683 134.25424 348.31445 132.40039 z M 395.58789 236.95703 L 395.58789 295.35352 C 379.27405 279.41045 370.37565 265.87698 368.89258 254.75391 C 379.64488 250.67545 388.54328 244.74318 395.58789 236.95703 z M 395.58789 349.74609 L 395.58789 484.44531 L 512.93555 485.55859 C 511.82324 533.75857 507.00425 592.89534 498.47656 662.9707 C 489.94887 733.04605 479.38154 791.99892 466.77539 839.82812 C 454.16924 887.28657 463.06763 926.77369 493.4707 958.28906 L 138.08789 958.28906 C 146.61558 949.01983 152.36199 933.81742 155.32812 912.68359 C 158.29429 891.92052 149.21195 856.8826 128.07812 807.57031 L 37.423828 536.16797 C 33.345368 518.37106 39.649376 506.32065 56.333984 500.01758 C 73.389361 493.71451 85.809552 497.79392 93.595703 512.25391 L 215.94922 693.00391 L 261.55469 750.28711 C 285.28391 767.34249 301.04198 758.81389 308.82812 724.70312 C 336.72429 665.54984 352.28013 594.51518 355.49805 511.59766 C 318.53382 482.07627 334.52253 434.22447 395.58789 349.74609 z " />
</svg>
