<?xml version="1.0" encoding="UTF-8" standalone="no"?>
<svg
   width="600"
   height="1000"
   version="1.1"
   id="svg1"
   sodipodi:docname="1306E.svg"
   inkscape:version="1.4.2 (f4327f4, 2025-05-13)"
   xmlns:inkscape="http://www.inkscape.org/namespaces/inkscape"
   xmlns:sodipodi="http://sodipodi.sourceforge.net/DTD/sodipodi-0.dtd"
   xmlns="http://www.w3.org/2000/svg"
   xmlns:svg="http://www.w3.org/2000/svg">
  <defs
     id="defs1" />
  <sodipodi:namedview
     id="namedview1"
     pagecolor="#ffffff"
     bordercolor="#666666"
     borderopacity="1.0"
     inkscape:showpageshadow="2"
     inkscape:pageopacity="0.0"
     inkscape:pagecheckerboard="0"
     inkscape:deskcolor="#d1d1d1"
     inkscape:zoom="0.755"
     inkscape:cx="338.4106"
     inkscape:cy="337.08609"
     inkscape:window-width="1680"
     inkscape:window-height="998"
     inkscape:window-x="-8"
     inkscape:window-y="-8"
     inkscape:window-maximized="1"
     inkscape:current-layer="svg1"
     showguides="true">
    <sodipodi:guide
       position="600,1000"
       orientation="0,-1"
       id="guide1"
       inkscape:locked="false" />
    <sodipodi:guide
       position="600,0"
       orientation="0,-1"
       id="guide2"
       inkscape:locked="false" />
  </sodipodi:namedview>
  <path
     id="path1"
     style="fill:#000000;stroke:none;stroke-width:0.999997"
     d="M 404.29102 0.0625 C 402.04192 0.16585108 399.71612 0.39565477 397.31445 0.75 C 378.10109 3.5847619 367.23459 18.860557 364.71484 46.578125 L 350.54102 297.92578 L 350.54102 296.98047 C 336.68221 307.68954 330.38266 314.6198 331.64258 317.76953 C 329.12279 314.6198 325.8173 314.14678 321.72266 316.35156 C 317.62802 318.55639 315.89545 322.49454 316.52539 328.16406 C 298.25698 334.46349 289.12109 353.9909 289.12109 386.74805 C 299.20018 381.07856 305.81511 378.87489 308.96484 380.13477 C 321.56377 380.13477 338.88747 405.64628 360.93555 456.67188 C 356.52594 459.82161 350.38408 466.75187 342.50977 477.46094 C 334.63542 488.17001 330.69922 506.75325 330.69922 533.21094 L 330.69922 595.57617 L 354.32227 594.63086 C 354.32227 629.9078 352.11664 700.46018 347.70703 806.29102 L 217.30859 627.70312 C 203.40205 598.68078 183.04115 583.74041 156.36719 582.57422 L 108.88672 461.37109 C 137.34332 451.32782 167.47333 446.30469 199.27734 446.30469 C 200.11443 427.05475 194.67451 409.06137 182.95703 392.32227 C 155.33754 409.898 128.55466 422.45193 102.60938 429.98438 C 126.04384 358.0068 121.65031 313.02162 89.427734 295.02734 C 57.205164 277.03306 32.095822 284.14656 14.101562 316.36914 C -3.8932072 348.5917 16.403834 388.97446 74.990234 437.51758 C 45.697034 448.39943 16.402575 452.58065 -12.890625 450.07227 C -14.564835 470.15931 -9.1229294 488.99069 3.4316406 506.56641 C 25.19239 488.15359 52.810842 475.1809 86.289062 467.64844 L 115.16406 583.14453 L 115.20117 583.1543 C 84.199602 586.63391 80.424351 601.47769 103.91797 627.70312 C 104.54794 649.12126 108.79952 666.91607 116.67383 681.08984 C 124.54814 695.26361 138.40671 721.09245 158.25 758.57422 C 178.09326 796.05595 195.89005 848.81356 211.63867 916.84766 L 142.66016 955.58984 L 147.38477 1000 L 551.80859 1000 L 518.73633 919.68164 C 537.63468 836.52886 547.39933 728.49265 548.0293 595.57422 L 600 595.57422 C 600 484.07386 566.29865 382.96798 498.89453 292.25586 L 513.06836 52.248047 C 512.43839 23.270564 502.67374 6.8909982 483.77539 3.1113281 C 464.877 -0.66834194 450.38768 3.7409186 440.30859 16.339844 C 432.04055 4.7645877 420.03472 -0.66095753 404.29102 0.0625 z M 408.18164 20.119141 C 422.04045 20.749117 428.9707 30.513759 428.9707 49.412109 L 420.46484 181.70117 C 409.12583 181.70117 398.41702 186.89887 388.33789 197.29297 C 380.89195 204.97159 376.19722 213.59458 374.25195 223.16406 L 384.55859 46.578125 C 386.44844 28.939652 394.32284 20.119141 408.18164 20.119141 z M 468.85547 23.363281 C 469.70688 23.347286 470.58469 23.368678 471.49023 23.427734 C 485.97894 24.372643 493.22461 33.664261 493.22461 51.302734 L 483.65039 222.94336 C 481.68211 213.38724 476.99881 204.67988 469.60156 196.82031 C 460.15237 186.74118 450.70306 181.70117 441.25391 181.70117 L 448.8125 49.412109 C 449.4031 32.285474 456.08431 23.60321 468.85547 23.363281 z M 429.91406 200.59961 C 440.62313 200.59961 448.97059 204.06474 454.95508 210.99414 C 460.93954 217.92354 463.93164 225.79797 463.93164 234.61719 C 463.93164 243.43644 460.78189 251.31087 454.48242 258.24023 C 448.18299 265.16967 439.99319 268.63281 429.91406 268.63281 C 419.83493 268.63281 411.33175 265.32537 404.40234 258.71094 C 397.47294 252.09651 394.00781 244.06638 394.00781 234.61719 C 394.00781 225.16803 397.15756 217.13591 403.45703 210.52148 C 409.75649 203.90705 418.57505 200.59961 429.91406 200.59961 z M 373.37695 238.16797 C 374.30906 252.51326 379.75979 264.40517 389.75586 273.83008 C 400.7799 284.22415 414.16541 289.1065 429.91406 288.47656 C 446.92256 288.47656 460.31002 283.43655 470.07422 273.35742 C 475.60165 267.65167 479.56452 260.93739 481.96289 253.21289 L 479.99609 288.47656 L 370.38477 289.42188 L 373.37695 238.16797 z M 409.12695 307.375 C 433.69482 307.375 447.5534 322.49311 450.70312 352.73047 C 453.85281 382.96783 429.28544 403.12595 377 413.20508 C 385.81925 417.61473 393.06293 424.86036 398.73242 434.93945 C 404.40194 445.01858 407.5517 455.41202 408.18164 466.12109 C 399.99236 468.64088 392.74868 467.22366 386.44922 461.86914 C 380.14976 456.51459 372.5907 442.81371 363.77148 420.76562 C 349.91268 383.59886 333.21774 365.33101 313.68945 365.96094 L 305.18555 365.96094 C 307.07536 358.4016 310.85586 356.82672 316.52539 361.23633 C 319.67512 356.19674 326.28806 355.56603 336.36719 359.3457 C 327.54794 349.89655 323.13867 340.76258 323.13867 331.94336 C 328.17822 332.57327 331.64335 330.36768 333.5332 325.32812 C 335.42305 325.95806 342.50905 323.12365 354.79297 316.82422 C 367.07689 310.52476 385.18902 307.375 409.12695 307.375 z M 462.98633 314.93359 C 485.03441 316.1935 509.28836 338.55721 535.74609 382.02344 C 562.20378 425.48967 575.43164 489.42915 575.43164 573.8418 L 547.08398 573.8418 C 546.45407 507.06762 517.47737 473.68164 460.15234 473.68164 L 460.15234 574.78711 L 441.25391 573.8418 L 441.25391 433.99414 C 477.16079 406.90651 484.40447 367.21907 462.98633 314.93359 z M 58.933594 315.45703 C 63.935652 315.28048 69.496977 316.83922 75.617188 320.13477 C 91.937737 328.92238 94.657714 360.93682 83.777344 416.17578 C 45.277494 375.16512 30.212471 346.70865 38.582031 330.80664 C 43.813 320.86789 50.596831 315.75128 58.933594 315.45703 z M 382.75 317.24414 C 378.28624 317.19985 373.53371 317.37581 368.49414 317.76953 C 374.16367 321.5492 375.42512 325.9585 372.27539 330.99805 C 369.12566 325.9585 364.71636 323.43945 359.04688 323.43945 C 348.33781 323.43945 342.98242 330.05239 342.98242 343.28125 C 349.28188 347.06088 352.11627 350.84138 351.48633 354.62109 C 350.85636 358.40072 349.91222 361.23515 348.65234 363.125 C 353.06195 366.90467 357.15588 377.92886 360.93555 396.19727 C 363.45534 396.19727 365.03022 395.2531 365.66016 393.36328 C 365.03022 374.46493 365.66097 361.5505 367.55078 354.62109 C 373.22031 343.28204 381.0947 337.4556 391.17383 337.14062 C 401.25292 336.82565 409.28309 340.13309 415.26758 347.0625 C 421.25207 353.9919 423.30001 361.86634 421.41016 370.68555 C 419.52034 379.50481 405.97711 389.26749 380.7793 399.97656 L 380.7793 402.8125 C 419.83591 392.73337 437.63072 375.25199 434.16602 350.36914 C 431.1344 328.59666 413.9963 317.55419 382.75 317.24414 z M 359.04688 328.16406 C 365.3463 328.16406 368.49414 330.99848 368.49414 336.66797 C 368.49414 341.70756 365.3463 345.17268 359.04688 347.0625 C 355.2672 346.43256 351.4867 344.85768 347.70703 342.33789 C 349.59685 332.88873 353.37736 328.16406 359.04688 328.16406 z M 359.04688 330.05273 C 355.2672 330.68267 353.06158 332.8883 352.43164 336.66797 C 352.43164 340.44764 354.63727 342.65128 359.04688 343.28125 C 362.82655 342.65128 365.03022 340.44764 365.66016 336.66797 C 365.03022 332.8883 362.82655 330.68267 359.04688 330.05273 z M 374.90234 483.26758 C 378.89856 483.01781 383.37707 484.5463 388.33789 487.85352 C 371.95933 499.19253 364.40028 527.85579 365.66016 573.8418 L 354.32227 573.8418 C 353.06239 531.00551 355.58143 504.07482 361.88086 493.05078 C 365.42431 486.84976 369.76435 483.5887 374.90234 483.26758 z M 417.7793 496.91211 C 419.25573 496.89734 420.7806 497.02713 422.35547 497.30273 L 422.35547 595.57422 L 480.93945 595.57422 L 480.93945 497.30273 C 503.61751 493.52306 514.95703 526.28021 514.95703 595.57422 C 508.02763 766.91933 496.37469 874.95554 479.99609 919.68164 L 500.7832 966.92773 L 188.96094 966.92773 L 253.21484 937.63477 C 231.79669 843.77292 206.28515 774.00699 176.67773 728.33594 C 147.07031 682.66489 140.45543 654.47469 156.83398 643.76562 C 173.21258 633.05655 192.11116 645.02486 213.5293 679.67188 L 343.92773 855.42773 L 377 855.42773 L 384.55859 595.57422 C 384.55859 530.02052 395.63275 497.13358 417.7793 496.91211 z M 138.88086 603.13477 C 159.66907 603.13477 176.36205 609.1189 188.96094 621.08789 C 158.09364 611.63869 138.25089 621.40337 129.43164 650.38086 C 114.31296 618.88359 117.46272 603.13477 138.88086 603.13477 z " />
</svg>
