<?xml version="1.0" encoding="UTF-8" standalone="no"?>
<svg
   width="1100"
   height="1000"
   version="1.1"
   id="svg1"
   sodipodi:docname="1309A.svg"
   inkscape:version="1.4.2 (f4327f4, 2025-05-13)"
   xmlns:inkscape="http://www.inkscape.org/namespaces/inkscape"
   xmlns:sodipodi="http://sodipodi.sourceforge.net/DTD/sodipodi-0.dtd"
   xmlns="http://www.w3.org/2000/svg"
   xmlns:svg="http://www.w3.org/2000/svg">
  <defs
     id="defs1" />
  <sodipodi:namedview
     id="namedview1"
     pagecolor="#ffffff"
     bordercolor="#666666"
     borderopacity="1.0"
     inkscape:showpageshadow="2"
     inkscape:pageopacity="0.0"
     inkscape:pagecheckerboard="0"
     inkscape:deskcolor="#d1d1d1"
     inkscape:zoom="0.18875"
     inkscape:cx="1162.9139"
     inkscape:cy="1602.649"
     inkscape:window-width="1680"
     inkscape:window-height="998"
     inkscape:window-x="-8"
     inkscape:window-y="-8"
     inkscape:window-maximized="1"
     inkscape:current-layer="svg1"
     showguides="true">
    <sodipodi:guide
       position="0,1000"
       orientation="0,-1"
       id="guide1"
       inkscape:locked="false" />
    <sodipodi:guide
       position="1100,0"
       orientation="0,-1"
       id="guide2"
       inkscape:locked="false" />
  </sodipodi:namedview>
  <path
     id="path1"
     style="fill:#000000;stroke:none;stroke-width:1"
     d="M 813.42188 48 C 790.80425 48 772.61292 57.343262 758.8457 76.027344 C 745.07852 94.71147 736.96436 114.13185 734.50586 134.29102 C 732.04741 154.45016 719.26359 181.98473 696.1543 216.89453 C 673.04502 251.80428 654.8537 294.08962 641.57812 343.75 C 628.3026 393.41041 606.42209 418.24023 575.9375 418.24023 C 544.46951 418.24023 494.07196 423.40309 424.74414 433.72852 C 355.41628 444.05393 290.26807 448.23432 229.29883 446.26758 L 229.29883 537.7207 C 232.24898 537.7207 248.47341 532.55785 277.97461 522.23242 C 307.47586 511.90697 358.36657 507.48194 430.64453 508.95703 C 502.92254 510.43205 559.46538 506.98953 600.27539 498.63086 C 641.0854 490.2722 670.83344 478.22617 689.51758 462.49219 C 705.25155 434.95771 748.02814 330.22887 817.84766 148.30469 C 824.73126 148.30469 835.057 154.6966 848.82422 167.48047 C 862.59153 180.26434 878.07812 205.34077 895.28711 242.70898 C 912.49609 280.07719 938.80171 316.95304 974.20312 353.33789 C 1009.6046 389.7227 1019.4392 421.68231 1003.7051 449.2168 C 987.97107 476.75125 967.07512 525.18191 941.01562 594.50977 C 914.95633 663.83766 872.42427 729.97034 813.42188 792.90625 L 568.5625 798.80664 C 546.92831 798.80664 529.71942 794.38161 516.93555 785.53125 C 501.20154 757.01341 468.25751 742.75391 418.10547 742.75391 C 368.93675 742.75391 336.97714 759.96277 322.22656 794.38086 L 291.25 794.38086 L 291.25 854.85938 L 323.70117 854.85938 C 337.46839 888.29407 368.93675 905.01172 418.10547 905.01172 C 468.25751 905.01172 501.20154 891.24343 516.93555 863.70898 C 529.71942 855.84198 546.92831 851.9082 568.5625 851.9082 L 780.9707 853.38281 L 761.79492 885.83398 C 770.64529 889.76774 780.97096 890.75203 792.77148 888.78516 C 804.57212 886.81844 812.43971 883.37589 816.37305 878.45898 C 821.28995 881.4091 838.00568 882.39339 866.52344 881.41016 C 895.04137 880.42676 911.75891 872.06792 916.67578 856.33398 L 984.5293 857.80859 L 984.5293 791.43164 L 931.42773 791.43164 C 939.29491 764.88055 943.96462 745.21355 945.43945 732.42969 C 946.9145 719.64582 966.82806 682.27677 1005.1797 620.32422 C 1043.5313 558.37167 1069.8368 507.48291 1084.0957 467.65625 C 1098.3546 427.82959 1103.0263 396.60586 1098.1094 373.98828 C 1084.3422 345.47043 1018.456 254.01664 900.45117 99.626953 C 868.98317 65.208853 839.97293 48 813.42188 48 z M 245.28711 59.296875 C 178.41686 58.172949 128.96786 68.288361 96.935547 89.642578 C 64.906656 110.99644 41.022195 136.84616 25.285156 167.19141 C 9.5445892 197.53668 1.1164736 238.55674 0 290.25586 L 1.7265625 930.88086 C 1.7265625 976.96044 15.774778 1000 43.871094 1000 L 161.88281 1000 C 205.72322 1000 228.20373 987.07424 229.32031 961.22461 L 229.27734 290.25586 C 229.27734 258.78667 248.66368 238.27584 287.4375 228.72266 C 326.21133 219.16982 345.59766 189.67038 345.59766 140.21875 C 345.59766 87.395358 312.16078 60.420449 245.28711 59.296875 z M 248.67578 97.113281 C 285.34343 98.780315 303.88896 112.30524 304.31641 137.68945 C 304.87818 170.84435 285.77139 192.47877 246.99414 202.59375 C 208.21326 212.70871 188.26502 241.92816 187.14844 290.25586 L 187.14844 932.56445 C 190.51914 951.67048 182.09113 961.22266 161.86328 961.22266 L 67.455078 961.22266 C 51.718147 961.22266 43.849609 951.10885 43.849609 930.87891 L 43.849609 290.25586 C 41.602331 241.92816 53.122669 199.78289 78.410156 163.81836 C 103.69764 127.85382 147.5284 106.21939 209.9043 98.914062 C 217.70208 98.000895 225.01979 97.405976 231.85156 97.125 C 237.82944 96.879146 243.43755 96.875134 248.67578 97.113281 z M 416.63086 769.30469 C 449.0822 769.30469 471.70051 775.20534 484.48438 787.00586 C 497.2682 798.80633 503.66016 811.5902 503.66016 825.35742 C 503.66016 838.14129 497.26821 850.4339 484.48438 862.23438 C 471.70051 874.03485 449.0822 879.93555 416.63086 879.93555 C 368.44554 876.98549 344.35352 861.25031 344.35352 832.73242 L 314.85156 832.73242 L 314.85156 816.50781 L 344.35352 816.50781 C 344.35352 788.97315 368.44554 773.23802 416.63086 769.30469 z " />
</svg>
