<?xml version="1.0" encoding="UTF-8" standalone="no"?>
<svg
   width="10.719323"
   height="17.977417"
   version="1.1"
   id="svg1"
   sodipodi:docname="13097.svg"
   inkscape:version="1.4.2 (f4327f4, 2025-05-13)"
   xmlns:inkscape="http://www.inkscape.org/namespaces/inkscape"
   xmlns:sodipodi="http://sodipodi.sourceforge.net/DTD/sodipodi-0.dtd"
   xmlns="http://www.w3.org/2000/svg"
   xmlns:svg="http://www.w3.org/2000/svg">
  <defs
     id="defs1" />
  <sodipodi:namedview
     id="namedview1"
     pagecolor="#ffffff"
     bordercolor="#666666"
     borderopacity="1.0"
     inkscape:showpageshadow="2"
     inkscape:pageopacity="0.0"
     inkscape:pagecheckerboard="0"
     inkscape:deskcolor="#d1d1d1"
     inkscape:zoom="41.997135"
     inkscape:cx="5.3694139"
     inkscape:cy="8.9887085"
     inkscape:window-width="1680"
     inkscape:window-height="998"
     inkscape:window-x="-8"
     inkscape:window-y="-8"
     inkscape:window-maximized="1"
     inkscape:current-layer="svg1" />
  <path
     style="fill:#000000; stroke:none"
     d="m 6.670733,3.60807 q -0.482474,6.544871 -0.461497,7.824477 -0.020977,1.825012 0.398566,3.608069 0.062931,0.377588 -0.314657,0.377588 H 4.405201 q -0.398565,0 -0.356611,-0.377588 Q 4.468133,13.257559 4.468133,11.432547 4.426178,10.152941 3.964681,3.60807 3.880773,2.412372 4.027613,1.153743 4.216407,0 5.391128,0 6.565848,0 6.628779,1.153743 6.775619,2.433349 6.670733,3.60807 Z M 6.062396,1.342538 Q 6.041419,0.839086 5.328196,0.629314 4.614973,0.839086 4.614973,1.342538 4.468133,2.433349 4.552042,3.60807 q 0.461497,6.544871 0.503451,7.824477 0,1.825012 -0.356611,3.398298 H 5.978487 Q 5.600899,13.257559 5.621876,11.432547 5.642853,10.152941 6.083374,3.60807 6.188259,2.433349 6.062396,1.342538 Z"
     id="path2" />
  <path
     style="fill:#000000;stroke:none;stroke-width:1"
     d="m 5.3474527,16.390274 q 2.4173417,-0.07325 4.0777377,-0.341846 0,-2.759189 0.2197579,-5.518376 Q 9.0345094,8.5766448 9.132179,7.5022703 9.1565976,6.7941605 9.2298499,6.2081379 9.5472786,5.8174569 9.791454,6.2325553 9.6449483,7.0383359 9.6449483,7.59994 q 0,1.5871437 0.6104397,1.5383088 0.341848,0 0.451725,-0.5249785 0.109881,-0.5249785 0.158715,-1.3551753 0.04883,-0.5127693 -0.146505,-1.098792 -0.146506,-0.4639344 -0.317429,-0.9522862 0.122088,-0.4883518 0.512769,-0.1465057 0.634858,0.8546155 0.683693,2.4417592 -0.195341,1.2452976 -0.879033,3.5161327 0.244176,1.83132 0.366263,5.030025 0.09767,1.074373 -0.610439,1.391803 -2.0022429,0.537186 -5.1276943,0.537186 v 0 q -3.1010341,0 -5.12769364,-0.537186 Q -0.46393326,17.122801 -0.3662636,16.048428 -0.24417535,12.849723 -1.5407e-8,11.018403 -0.68369234,8.7475679 -0.87903284,7.5022703 -0.83019801,5.9151266 -0.19534051,5.0605111 0.19534165,4.718665 0.31742873,5.2070168 0.14650565,5.6953686 -1.5407e-8,6.159303 -0.19534051,6.7453257 -0.14650568,7.258095 q 0.048836,0.8301968 0.15871495,1.3551753 0.10987896,0.5249785 0.45172513,0.5249785 0.6104401,0.04883 0.6104401,-1.5383088 0,-0.5616041 -0.14650569,-1.3673847 0.24417649,-0.4150984 0.56160519,-0.024417 0.073252,0.5860226 0.09767,1.2941324 0.097671,1.0743745 -0.5127692,3.0277813 0.2197579,2.759187 0.2197579,5.518376 1.660396,0.268591 4.05332,0.341846 z"
     id="path1" />
</svg>
