<?xml version="1.0" encoding="UTF-8" standalone="no"?>
<svg
   width="270"
   height="1000"
   id="svg2440"
   sodipodi:version="0.32"
   inkscape:version="1.4.2 (f4327f4, 2025-05-13)"
   sodipodi:docname="130AD.svg"
   inkscape:output_extension="org.inkscape.output.svg.inkscape"
   version="1.1"
   xml:space="preserve"
   xmlns:inkscape="http://www.inkscape.org/namespaces/inkscape"
   xmlns:sodipodi="http://sodipodi.sourceforge.net/DTD/sodipodi-0.dtd"
   xmlns="http://www.w3.org/2000/svg"
   xmlns:svg="http://www.w3.org/2000/svg"
   xmlns:rdf="http://www.w3.org/1999/02/22-rdf-syntax-ns#"
   xmlns:cc="http://creativecommons.org/ns#"
   xmlns:dc="http://purl.org/dc/elements/1.1/"><metadata
     id="metadata2447"><rdf:RDF><cc:Work
         rdf:about=""><dc:format>image/svg+xml</dc:format><dc:type
           rdf:resource="http://purl.org/dc/dcmitype/StillImage" /></cc:Work></rdf:RDF></metadata><defs
     id="defs2445"><inkscape:perspective
       sodipodi:type="inkscape:persp3d"
       inkscape:vp_x="0 : 991.01121 : 1"
       inkscape:vp_y="0 : 1000 : 0"
       inkscape:vp_z="13.952616 : 991.01121 : 1"
       inkscape:persp3d-origin="6.9763079 : 988.01494 : 1"
       id="perspective2449" /></defs><sodipodi:namedview
     inkscape:window-height="998"
     inkscape:window-width="1680"
     inkscape:pageshadow="2"
     inkscape:pageopacity="0.0"
     guidetolerance="10.0"
     gridtolerance="10.0"
     objecttolerance="10.0"
     borderopacity="1.0"
     bordercolor="#666666"
     pagecolor="#ffffff"
     id="base"
     showgrid="false"
     inkscape:showpageshadow="2"
     inkscape:pagecheckerboard="0"
     inkscape:deskcolor="#d1d1d1"
     inkscape:zoom="0.26693281"
     inkscape:cx="915.96084"
     inkscape:cy="443.93194"
     inkscape:window-x="-8"
     inkscape:window-y="-8"
     inkscape:window-maximized="1"
     inkscape:current-layer="svg2440" /><path
     id="path1"
     style="baseline-shift:baseline;display:inline;overflow:visible;opacity:1;vector-effect:none;fill:#000000;enable-background:accumulate;stop-color:#000000;stop-opacity:1"
     d="m 138.67383,0.12304688 c -67.312135,0 -126.607424,57.52386812 -126.607424,169.93359312 0,95.73106 29.167969,213.37406 29.167969,361.94141 0,147.51469 -41.09960938,265.07359 -41.09960938,468.00585 H 231.79883 c 0,-118.49259 11.25,-441.11074 11.25,-575.35937 0,-68.67928 -52.75392,-141.18559 -50.84375,-210.3418 1.7648,-63.89344 16.41459,-123.028895 43.20117,-187.335933 C 221.57674,21.135051 207.34848,15.688496 192.09375,16.072266 179.30412,2.292934 147.66944,0.12304688 138.67383,0.12304688 Z m 8.56055,40.53125012 c -3.91981,4.956133 -42.03747,55.280153 -38.04102,133.394533 1.85196,36.19892 33.71869,39.39524 42.98633,39.55665 -2.28157,77.34778 50.86914,155.21871 50.86914,211.03906 0,123.72937 -9.88501,414.73398 -11.12305,550.35547 H 40.355469 c 3.234174,-182.47287 40.878906,-294.88396 40.878906,-443.00195 0,-153.71364 -29.167969,-274.71291 -29.167969,-361.94141 0,-85.192292 39.963386,-136.054373 95.167974,-129.402353 z m 47.16015,0.02344 c 2.51719,0.03103 5.21682,0.413213 8.0957,1.048828 -22.49852,57.488372 -30.03488,102.015105 -33.47461,147.167965 l -19.54296,-0.33984 c -12.71533,-0.22107 -15.02496,-10.16265 -15.3125,-15.78321 -4.36017,-85.223286 41.54976,-125.787455 44.81836,-127.769524 4.85152,-2.94195 9.75529,-4.394006 15.41601,-4.324219 z"
     sodipodi:nodetypes="sssccssccscscsccsscsccccss" /></svg>
