<?xml version="1.0" encoding="UTF-8" standalone="no"?>
<svg
   width="1100"
   height="1000"
   version="1.1"
   id="svg1"
   sodipodi:docname="130BC.svg"
   inkscape:version="1.4.2 (f4327f4, 2025-05-13)"
   xmlns:inkscape="http://www.inkscape.org/namespaces/inkscape"
   xmlns:sodipodi="http://sodipodi.sourceforge.net/DTD/sodipodi-0.dtd"
   xmlns="http://www.w3.org/2000/svg"
   xmlns:svg="http://www.w3.org/2000/svg">
  <defs
     id="defs1" />
  <sodipodi:namedview
     id="namedview1"
     pagecolor="#ffffff"
     bordercolor="#666666"
     borderopacity="1.0"
     inkscape:showpageshadow="2"
     inkscape:pageopacity="0.0"
     inkscape:pagecheckerboard="0"
     inkscape:deskcolor="#d1d1d1"
     inkscape:zoom="0.53386562"
     inkscape:cx="10.302218"
     inkscape:cy="480.45799"
     inkscape:window-width="1680"
     inkscape:window-height="998"
     inkscape:window-x="-8"
     inkscape:window-y="-8"
     inkscape:window-maximized="1"
     inkscape:current-layer="svg1" />
  <path
     id="path1"
     style="fill:#000000;stroke:none;stroke-width:1"
     d="M 307.27539 222.29102 C 272.62608 222.67911 227.47848 237.2258 186.80273 294.59766 C 186.80073 294.60066 186.79888 294.60247 186.79688 294.60547 L 186.79688 294.60742 L 186.79492 294.60938 L 186.79297 294.61133 C 175.95412 309.79065 138.8045 364.72612 160.3457 376.06445 C 181.21154 387.04728 221.83062 332.10485 229.29297 321.66406 C 269.58388 265.29191 297.91568 262.26295 353.63086 283.41602 C 377.52862 295.00005 391.33406 314.21014 388.39844 349.13281 C 386.14589 375.92946 374.71253 404.45027 370.6875 425.51367 L 370.6582 425.66211 L 370.63867 425.8125 C 363.3804 482.10236 404.35751 509.55887 411.82422 514.0625 L 411.82812 514.06641 L 411.83008 514.06836 L 411.83203 514.07031 L 411.83398 514.07031 L 411.83594 514.07031 C 451.96349 539.75003 473.95668 563.54568 494.92578 583.24219 C 419.29184 679.40662 355.4193 765.01158 303.30469 840.05664 C 252.00227 868.22271 214.78288 890.60533 191.64648 907.20312 C 168.51009 923.80097 133.80399 936.1225 87.53125 944.16992 C 29.187331 948.19363 0.015625 957.75087 0.015625 972.83984 L 0.015625 974.34961 L 0.015625 993.96484 C -0.99029041 1000.0004 44.780644 1001.508 137.32617 998.49023 C 186.61671 985.41314 223.83615 982.14505 248.98438 988.68359 C 274.13265 995.22214 294.75282 998.49023 310.84766 998.49023 C 326.94254 998.49023 339.76787 994.2164 349.32422 985.66602 C 358.88056 977.11559 366.1735 950.71013 371.20312 906.44922 C 371.20313 894.37809 412.94927 847.3505 496.44141 765.36719 C 579.9336 683.38396 627.71598 621.26665 639.78711 579.01758 C 639.78711 567.95236 655.37869 553.87033 686.5625 536.76953 C 697.62771 536.76953 722.77653 558.39735 762.00781 601.65234 C 838.45845 694.19787 890.51467 760.08517 918.17773 799.31641 C 945.84079 838.54764 949.61274 863.9474 929.49414 875.51562 C 909.37554 887.0838 889.25727 902.67537 869.13867 922.29102 C 849.02013 941.90666 827.89611 950.70915 805.76562 948.69727 C 761.50472 955.73877 739.375 967.30746 739.375 983.40234 L 739.375 998.49023 L 894.79102 998.49023 C 938.04596 975.35384 973.50493 969.57045 1001.168 981.13867 C 1028.831 992.70685 1050.206 998.49023 1065.2949 998.49023 C 1088.4313 995.47244 1100 985.91716 1100 969.82227 C 1100 952.72147 1091.9523 933.10504 1075.8574 910.97461 C 1050.7092 870.73741 1019.0222 800.07052 980.79688 698.97461 C 942.57156 597.87866 878.6957 524.69846 789.16797 479.43164 C 736.85964 444.22411 696.62305 426.61914 668.45703 426.61914 L 639.78711 426.61914 L 603.57422 447.74414 C 577.18641 480.09048 551.90063 511.44699 527.71875 541.8125 C 502.06047 517.6093 473.38683 496.63675 444.84961 475.8418 C 423.3736 460.10792 417.30002 451.84692 420.14258 432.86133 C 427.18692 406.63567 438.95925 371.79167 437.69922 336.43945 C 436.43477 300.96309 421.22582 264.82275 375.83984 238.61914 C 354.45237 227.84877 331.10635 222.79541 307.27539 222.29102 z " />
</svg>
