<?xml version="1.0" encoding="UTF-8" standalone="no"?>
<svg
   width="850"
   height="1000"
   id="svg2241"
   sodipodi:version="0.32"
   inkscape:version="1.4.2 (f4327f4, 2025-05-13)"
   sodipodi:docname="130F1.svg"
   inkscape:output_extension="org.inkscape.output.svg.inkscape"
   sodipodi:modified="true"
   version="1.1"
   xmlns:inkscape="http://www.inkscape.org/namespaces/inkscape"
   xmlns:sodipodi="http://sodipodi.sourceforge.net/DTD/sodipodi-0.dtd"
   xmlns="http://www.w3.org/2000/svg"
   xmlns:svg="http://www.w3.org/2000/svg"
   xmlns:rdf="http://www.w3.org/1999/02/22-rdf-syntax-ns#"
   xmlns:cc="http://creativecommons.org/ns#"
   xmlns:dc="http://purl.org/dc/elements/1.1/">
  <metadata
     id="metadata2248">
    <rdf:RDF>
      <cc:Work
         rdf:about="">
        <dc:format>image/svg+xml</dc:format>
        <dc:type
           rdf:resource="http://purl.org/dc/dcmitype/StillImage" />
      </cc:Work>
    </rdf:RDF>
  </metadata>
  <defs
     id="defs2246" />
  <sodipodi:namedview
     inkscape:window-height="998"
     inkscape:window-width="1680"
     inkscape:pageshadow="2"
     inkscape:pageopacity="0.0"
     guidetolerance="10.0"
     gridtolerance="10.0"
     objecttolerance="10.0"
     borderopacity="1.0"
     bordercolor="#666666"
     pagecolor="#ffffff"
     id="base"
     inkscape:showpageshadow="2"
     inkscape:pagecheckerboard="0"
     inkscape:deskcolor="#d1d1d1"
     inkscape:zoom="0.26693281"
     inkscape:cx="-1043.3337"
     inkscape:cy="252.87262"
     inkscape:window-x="-8"
     inkscape:window-y="-8"
     inkscape:window-maximized="1"
     inkscape:current-layer="svg2241"
     showguides="true">
    <sodipodi:guide
       position="0,1000"
       orientation="0,-1"
       id="guide1"
       inkscape:locked="false" />
    <sodipodi:guide
       position="0,-1.576286e-06"
       orientation="0,-1"
       id="guide2"
       inkscape:locked="false" />
  </sodipodi:namedview>
  <path
     id="path4"
     style="fill:#000000;stroke:none;stroke-width:1"
     d="M 55.389494,0.06202411 C 46.747047,0.84769234 42.032929,5.1702393 41.247266,13.026983 42.032929,27.954852 48.711424,41.701314 61.282266,54.27211 46.354398,73.914043 38.890586,88.450086 38.890586,97.878204 7.4635712,145.80441 -3.1415847,176.0535 7.0721854,188.62433 14.92893,197.26678 27.106858,199.2312 43.606092,194.5171 56.96255,181.9463 73.067137,175.65937 91.9234,175.65937 c -6.2854,131.20792 -6.2854,213.70384 0,247.48789 -16.499232,48.71196 -24.74836,84.46049 -24.74836,107.24504 0.785704,22.78462 5.108212,53.81899 12.964959,93.10281 -6.28542,96.63817 -12.375481,150.65252 -18.268026,162.04482 -5.892592,11.39231 -8.053846,27.30433 -6.482479,47.73189 3.222838,41.8965 -6.605276,77.96354 -17.676176,100.60291 -4.714055,8.87887 -11.786301,16.57315 -21.214411,23.08431 C 7.0707961,963.47024 1.5713659,973.53338 0,987.14772 v 7.99212 c 0,4.73554 5.1078692,5.91886 15.321638,3.55111 8.642448,5.32745 29.461154,1.47915 62.459536,-11.54323 l -7.072186,-18.64544 c 14.927864,-4.7354 22.393824,-9.76482 22.393824,-15.0922 l -2.35668,-19.53535 c -1.792014,-15.75113 6.187979,-32.65017 14.412418,-63.34419 10.9995,-18.07058 19.76481,-41.97367 19.76481,-74.97203 0,23.57023 1.96221,38.6948 5.89062,45.37307 8.6534,14.71102 7.78672,65.18923 3.53611,92.94315 -4.71406,9.4708 -11.78417,17.46309 -21.21227,23.97423 -9.42819,6.51124 -14.927615,16.2764 -16.498916,29.29876 v 7.99212 c 0,5.32716 5.105696,6.80656 15.319496,4.43887 8.64244,4.73549 29.46329,0.88729 62.46168,-11.54322 l -7.07219,-18.64543 c 14.92783,-4.73542 22.39169,-9.76697 22.39169,-15.09434 l -2.35669,-20.42099 c -2.17358,-6.55031 -22.39435,-63.62071 -1.17727,-104.72869 6.28541,-12.17799 7.46231,-24.16122 3.53396,-35.94635 -3.92841,-11.78511 1.57107,-45.5671 16.4989,-101.35013 29.85568,17.28489 60.89222,20.42624 93.10495,9.42674 -0.78567,33.7841 3.5347,74.24672 12.96281,121.38725 -3.92838,18.85619 -3.53463,32.8038 1.17942,41.83913 4.7141,9.03524 7.07004,8.99496 7.07004,56.94104 -5.49976,13.02234 -12.56982,24.86068 -21.21227,35.51532 -8.64245,10.65467 -12.96495,16.86959 -12.96495,18.64544 l -3.53395,10.65545 c -1.57137,8.87899 3.53436,11.24784 15.31949,7.10436 12.5708,7.10311 31.81889,5.32589 57.74619,-5.3288 l -9.42674,-24.85987 c 6.28538,-8.287 11.39109,-13.76246 15.31949,-16.42599 3.92843,-2.66368 3.14304,-13.17065 -2.35667,-31.52034 -2.35706,-5.32733 -1.57173,15.85925 2.35667,-31.28133 23.5703,55.78298 38.10633,41.93666 43.60611,59.69445 -7.85678,8.87889 -14.92903,18.64412 -21.21442,29.29874 l -3.53395,15.98426 c 0,2.96038 5.10783,3.84738 15.32163,2.66333 7.85675,1.77579 25.53416,-2.36827 53.03283,-12.43101 l -7.0722,-14.20655 c 7.85676,-2.95965 10.40961,-6.95573 7.65975,-11.98713 -22.41487,-36.17042 -29.05969,-25.81995 -31.22869,-69.01609 l -24.75051,-133.1728 c 24.35597,-37.71246 38.88992,-72.28184 43.60396,-103.70895 -8.64245,157.13523 4.32084,235.70239 38.89058,235.70233 10.9995,-9.42813 15.32201,-21.21224 12.96496,-35.35448 -2.35702,-14.14217 -7.26803,-27.10758 -14.73194,-38.89274 -7.46395,-11.78509 -11.19369,-47.53364 -11.19369,-107.24502 0,-40.85513 -8.64506,-75.0309 -25.92991,-102.52955 C 431.07404,585.67078 405.29658,564.8803 358.90376,538.05848 301.60663,504.93237 257.9481,468.35074 222.14983,413.13083 197.40102,374.23989 184.43559,312.95643 183.25709,229.28189 182.95687,207.96786 177.40058,93.543883 174.42008,86.09265 c 35.35545,-14.927841 54.99723,-29.068028 58.92558,-42.424531 3.9284,-13.356481 -4.1e-4,-22.001568 -11.78554,-25.929919 -11.78513,-3.928395 -23.76618,-3.534641 -35.9442,1.179412 -12.17798,4.714051 -23.76745,12.177916 -34.76694,22.391676 0,-21.998889 -4.7141,-32.606207 -14.14223,-31.8205421 -8.64239,0 -12.56905,8.2491441 -11.78339,24.7483671 h -5.89277 c 0,-18.856246 -4.32257,-28.2823154 -12.96496,-28.2823154 -8.642453,0 -12.962818,4.7141144 -12.962818,14.1422264 C 82.103334,5.9548604 69.531657,-0.7236517 55.389494,0.06202411 Z M 60.370902,14.525909 c 4.388717,0.07981 11.370942,5.864009 20.946364,17.354515 l -8.249454,9.428864 C 60.497014,27.167154 55.391287,18.524184 57.748318,15.381519 c 0.736566,-0.589254 1.609803,-0.874025 2.622584,-0.85561 z M 196.81176,36.595932 c 9.42809,0 13.16004,2.946562 11.19584,8.839155 -1.9642,5.892549 -19.05311,13.944839 -51.26584,24.158654 18.07057,-21.998947 31.42753,-32.997809 40.07,-32.997809 z m -74.24723,9.426723 c 7.07109,8.642444 16.49933,10.215264 28.28445,4.715498 -8.6424,16.499202 -12.42618,30.525084 -1.42673,39.167527 4.71409,10.21377 7.92751,59.10026 9.89168,151.02436 1.96417,91.92412 19.50294,163.12789 54.07268,206.34006 34.56976,43.21218 70.70402,74.44131 103.30958,93.69037 32.60553,19.24908 62.39251,35.1971 82.8201,53.66048 20.42758,18.46333 22.32169,39.56947 13.67927,65.49683 -8.64245,25.92728 -20.15369,51.79568 -37.43854,76.15159 -17.28485,24.35599 -25.17048,55.81212 -24.38481,95.09595 l 0.12322,25.11076 c 0.0653,13.31809 -21.43998,16.976 -23.61767,1.49394 -1.62578,-11.55852 1.73674,-21.2127 4.56292,-31.95214 -10.99951,-51.85462 -14.7036,-94.45752 -13.13223,-133.74133 6.01001,-18.08794 13.83297,-37.11042 14.18416,-57.38423 l -17.65026,-1.96834 c -1.58067,17.33929 -5.81055,32.76387 -12.68963,46.27374 -35.35542,8.64237 -67.44837,6.65781 -95.73269,-9.8414 0,-49.07699 -0.61279,-56.72748 -2.35882,-77.6796 l -16.78651,2.99502 c 1.7671,47.71103 1.3146,71.66988 -12.41323,132.75847 -7.85674,34.96259 -8.73053,59.36875 -4.80211,69.5825 3.92835,10.21375 3.36906,17.66391 -2.35453,28.54859 -6.62856,12.60567 -18.42204,13.37496 -21.25131,0.86 -4.86779,-21.53216 -6.8585,-45.56282 -7.41136,-70.99461 L 111.78252,629.02434 C 96.142082,609.16611 76.044118,504.50884 118.6777,430.21946 106.84689,330.11623 105.15222,232.22941 117.76507,134.92624 l -12.87671,-0.51413 -12.96496,25.92776 c -27.498666,0 -45.176026,6.67853 -53.032814,20.035 h -2.356679 v -5.89276 H 21.214412 L 20.035,167.40992 h 22.39168 v -11.7834 H 27.107185 c 1.571323,-9.42812 9.820493,-23.96422 24.74836,-43.6061 3.142689,-22.784606 17.285038,-43.999219 42.42668,-63.641076 7.856785,4.714016 17.282885,3.928731 28.282305,-2.356689 z m -28.546065,45.42453 c -2.034781,-0.08275 -4.304083,0.09627 -6.808426,0.538242 -13.3565,2.357024 -19.641289,9.820823 -18.855587,22.391673 l 38.890588,-7.07003 c 0,-10.213773 -4.4092,-15.500819 -13.226575,-15.859885 z M 97.816173,662.3857 c 10.213817,31.42705 15.321617,62.85523 15.321647,94.28222 1.15028,36.81045 0.22067,52.02606 -5.10287,68.66852 -5.07535,15.86653 -33.646032,15.2974 -34.589267,-8.01897 -0.437965,-10.8263 0.517772,-14.60331 5.743104,-25.59943 6.400649,-19.86721 14.699037,-63.33557 18.627386,-129.33234 z M 380.56554,768.45346 c 6.53384,32.62451 10.61853,55.51889 13.47232,74.60557 1.08942,7.28622 -0.47584,26.35595 -9.6372,26.35595 -11.96425,0 -15.60995,-11.0487 -16.34138,-26.31017 -1.27242,-26.54967 3.9628,-55.74667 12.50626,-74.65135 z"
     sodipodi:nodetypes="ccccccccccsscscscccccccscscscccccsscccscscccccscccccccccccccssscscsccssccccsccscccssscscccsssssscssccccccccssssccccccccccccccccccscccccsscccsssc" />
</svg>
