<?xml version="1.0" encoding="UTF-8" standalone="no"?>
<svg
   width="400"
   height="1000"
   version="1.1"
   id="svg1"
   sodipodi:docname="13108.svg"
   inkscape:version="1.4.2 (f4327f4, 2025-05-13)"
   xmlns:inkscape="http://www.inkscape.org/namespaces/inkscape"
   xmlns:sodipodi="http://sodipodi.sourceforge.net/DTD/sodipodi-0.dtd"
   xmlns="http://www.w3.org/2000/svg"
   xmlns:svg="http://www.w3.org/2000/svg">
  <defs
     id="defs1" />
  <sodipodi:namedview
     id="namedview1"
     pagecolor="#ffffff"
     bordercolor="#666666"
     borderopacity="1.0"
     inkscape:showpageshadow="2"
     inkscape:pageopacity="0.0"
     inkscape:pagecheckerboard="0"
     inkscape:deskcolor="#d1d1d1"
     inkscape:zoom="0.3775"
     inkscape:cx="-345.69536"
     inkscape:cy="849.00662"
     inkscape:window-width="1680"
     inkscape:window-height="998"
     inkscape:window-x="-8"
     inkscape:window-y="-8"
     inkscape:window-maximized="1"
     inkscape:current-layer="svg1"
     showguides="true">
    <sodipodi:guide
       position="209.35412,209.35412"
       orientation="1,0"
       id="guide1"
       inkscape:locked="false" />
    <sodipodi:guide
       position="246.10244,667.03783"
       orientation="1,0"
       id="guide2"
       inkscape:locked="false" />
    <sodipodi:guide
       position="0,1000"
       orientation="0,-1"
       id="guide3"
       inkscape:locked="false" />
  </sodipodi:namedview>
  <path
     id="path1"
     style="fill:#000000;stroke:none;stroke-width:1"
     d="M 482.50586 0 C 426.80487 0.58018342 378.79198 26.254331 338.4668 77.023438 C 298.14163 127.79252 266.37476 154.04834 243.16602 155.78906 L 170.05859 155.78906 C 145.68943 155.78906 113.48625 130.40387 73.451172 79.634766 C 33.416091 28.865354 -14.451372 3.1911834 -70.152344 2.6113281 C -87.558902 4.9320739 -89.00937 9.863339 -74.503906 17.40625 C -20.543575 39.454479 18.766504 74.267797 43.425781 121.8457 C 68.085065 169.42376 100.72259 201.04508 141.33789 216.71094 C 122.77091 234.69769 111.02168 257.18196 106.08984 284.16211 C 101.15797 311.14224 91.439063 334.49518 76.933594 354.22266 C 60.687482 357.70395 52.564453 369.88949 52.564453 390.77734 C 65.909475 425.01031 82.15552 442.12695 101.30273 442.12695 C 108.26535 440.96724 113.63286 440.96724 117.4043 442.12695 C 121.17569 443.28732 128.71696 442.41672 140.03125 439.51562 C 151.34551 436.61453 159.90486 431.39236 165.70703 423.84961 C 165.70703 417.46674 174.70071 413.98612 192.6875 413.40625 C 198.45059 411.90284 204.00523 410.31252 209.35352 408.63477 L 209.35352 790.64648 C 169.26444 808.46385 149.2207 838.52944 149.2207 880.8457 L 86.859375 880.8457 L 86.859375 922.04883 L 149.2207 922.04883 C 161.09894 974.01618 181.14268 1000 209.35352 1000 L 188.19531 922.04883 L 270.60156 922.04883 L 247.2168 1000 C 275.42763 1000 296.95686 974.01618 311.80469 922.04883 L 373.05078 922.04883 L 373.05078 880.8457 L 310.69141 880.8457 C 310.69141 837.78707 289.16022 807.72149 246.10156 790.64648 L 246.10156 394.1582 C 290.56144 372.2029 312.79297 340.90498 312.79297 300.26367 C 312.79297 291.56039 310.76075 281.1162 306.69922 268.93164 C 327.58705 268.93164 344.55831 259.93811 357.61328 241.95117 C 370.66819 223.9644 383.86982 205.68802 397.21484 187.12109 C 373.42588 171.45523 336.29151 178.99653 285.8125 209.74805 C 313.66297 189.44037 340.64211 157.38449 366.75195 113.57812 C 392.86177 69.771598 432.89706 36.843324 486.85742 14.794922 C 501.36288 7.2521749 499.91243 2.3209103 482.50586 0 z M 241.42578 174.06641 C 247.8082 209.45973 259.12301 234.40858 275.36914 248.91406 C 305.5405 214.68026 335.71145 198.14332 365.88281 199.30469 C 349.63669 223.67382 339.19251 237.01893 334.55078 239.33984 C 334.55078 244.56184 317.14319 249.78384 282.33008 255.00586 C 290.45313 274.73317 294.51562 290.39953 294.51562 302.00391 C 294.51563 329.27414 279.57462 351.9019 249.69336 369.88867 C 219.81211 387.87541 190.65532 397.73975 162.22461 399.48047 C 150.62024 413.40609 142.20829 420.65841 136.98633 421.23828 L 152.65234 397.74023 L 139.59766 389.03711 C 126.83283 407.60407 116.09777 419.2078 107.39453 423.84961 C 98.691233 423.84961 90.568243 419.20746 83.025391 409.92383 C 92.889126 409.92383 99.127319 405.71789 101.73828 397.30469 C 104.34927 388.89167 103.04421 383.37858 97.822266 380.76758 C 92.600286 378.15574 88.246942 376.27103 84.765625 375.11133 C 80.704107 375.11133 76.643561 377.14148 72.582031 381.20312 L 72.582031 375.11133 C 92.309452 375.11133 107.25046 352.91779 117.4043 308.53125 C 127.55811 264.14436 141.91738 236.72899 160.48438 226.28516 L 176.15039 174.93555 C 197.61847 177.25678 219.37749 176.96748 241.42578 174.06641 z M 192.6875 248.91211 C 165.4172 257.03504 151.78125 269.80044 151.78125 287.20703 C 177.31088 295.91114 199.64966 295.33062 218.79688 285.4668 C 218.79688 263.41856 210.09405 251.23496 192.6875 248.91406 L 192.6875 248.91211 z M 83.025391 387.29492 L 83.025391 387.29688 C 90.56824 389.0376 92.743946 392.08401 89.552734 396.43555 C 86.361531 400.78696 83.460603 401.07624 80.849609 397.30469 C 78.238725 393.53332 78.96387 390.19601 83.025391 387.29492 z M 230.51172 830.73438 C 257.98019 830.73438 271.71484 847.80901 271.71484 881.95898 L 188.19531 881.95898 C 188.19531 847.80901 202.30089 830.73438 230.51172 830.73438 z " />
</svg>
