<?xml version="1.0" encoding="UTF-8" standalone="no"?>
<svg
   width="1100"
   height="1000"
   version="1.1"
   id="svg1"
   sodipodi:docname="13113.svg"
   inkscape:version="1.4.2 (f4327f4, 2025-05-13)"
   xmlns:inkscape="http://www.inkscape.org/namespaces/inkscape"
   xmlns:sodipodi="http://sodipodi.sourceforge.net/DTD/sodipodi-0.dtd"
   xmlns="http://www.w3.org/2000/svg"
   xmlns:svg="http://www.w3.org/2000/svg">
  <defs
     id="defs1" />
  <sodipodi:namedview
     id="namedview1"
     pagecolor="#ffffff"
     bordercolor="#666666"
     borderopacity="1.0"
     inkscape:showpageshadow="2"
     inkscape:pageopacity="0.0"
     inkscape:pagecheckerboard="0"
     inkscape:deskcolor="#d1d1d1"
     inkscape:zoom="0.3775"
     inkscape:cx="245.03311"
     inkscape:cy="382.78146"
     inkscape:window-width="1680"
     inkscape:window-height="998"
     inkscape:window-x="-8"
     inkscape:window-y="-8"
     inkscape:window-maximized="1"
     inkscape:current-layer="svg1" />
  <path
     id="path1"
     style="fill:#000000;stroke:none;stroke-width:1"
     d="M 69.480469,16.443359 5.0742188,249.92188 c -9.8400591,35.78201 -5.36948137,53.67187 13.4160152,53.67187 H 524.35938 c 132.39321,0 232.13533,13.64205 299.22656,40.92578 67.09118,27.28374 113.74765,57.474 135.21679,90.57227 21.46915,33.09833 29.82618,105.11106 29.82618,216.03515 0,110.92406 21.46979,227.21441 64.40819,348.87305 H 1100 c -25.0474,-96.6113 -38.9122,-165.71405 -41.5957,-207.31055 -2.6836,-41.59657 -1.5641,-99.29737 3.3555,-173.09765 4.92,-73.80022 6.7152,-122.79511 4.6953,-146.92969 -1.9964,-23.85171 -17.1808,-110.05587 -90.86721,-164.17578 49.39441,-15.27639 79.06031,-26.86673 101.98491,-43.77333 10.1709,-7.50092 16.2384,-13.04838 7.8711,-12.1543 -96.65829,10.32843 -190.133,-6.46608 -294.70887,-21.14701 -99.3457,-13.9467 -170.81925,-20.40388 -265.03386,-20.40388 h -371.6875 c -18.78555,0 -25.94152,-8.94696 -21.46875,-26.83789 L 174.14258,16.443359 Z M 93.632812,51.332031 H 131.20312 L 92.291016,215.0332 c -6.261851,16.99647 1.341411,25.49414 22.810544,25.49414 h 410.59961 c 72.92423,0 171.23969,6.29636 255.13867,18.08789 66.3604,9.32659 140.59239,21.5914 187.70878,21.55117 21.20239,-0.0181 -56.02122,22.78708 -41.86698,28.82969 41.16324,17.57309 71.27099,45.88296 105.18166,133.20703 10.7643,27.71943 9.3205,102.69504 1.7168,214.96094 -7.6038,112.2659 5.5912,216.70316 39.584,313.31446 h -12.0762 c -10.7345,-38.46557 -21.0233,-82.52047 -30.8633,-132.16797 -9.8402,-49.64744 -14.7598,-138.65574 -14.7598,-267.02344 0,-149.23896 -43.75882,-207.61106 -146.92964,-245.55469 -97.73143,-35.94314 -212.2299,-53 -342.83399,-53 l -461.587889,1.33985 c -19.680063,0 -27.730556,-8.94495 -24.152343,-26.83594 z"
     sodipodi:nodetypes="ccsssssccscscsssssccccccsssssssccssscccc" />
</svg>
