<?xml version="1.0" encoding="UTF-8" standalone="no"?>
<svg
   width="1100"
   height="1000"
   id="svg2440"
   sodipodi:version="0.32"
   inkscape:version="1.4.2 (f4327f4, 2025-05-13)"
   sodipodi:docname="1312E.svg"
   inkscape:output_extension="org.inkscape.output.svg.inkscape"
   version="1.1"
   xmlns:inkscape="http://www.inkscape.org/namespaces/inkscape"
   xmlns:sodipodi="http://sodipodi.sourceforge.net/DTD/sodipodi-0.dtd"
   xmlns="http://www.w3.org/2000/svg"
   xmlns:svg="http://www.w3.org/2000/svg"
   xmlns:rdf="http://www.w3.org/1999/02/22-rdf-syntax-ns#"
   xmlns:cc="http://creativecommons.org/ns#"
   xmlns:dc="http://purl.org/dc/elements/1.1/">
  <metadata
     id="metadata2447">
    <rdf:RDF>
      <cc:Work
         rdf:about="">
        <dc:format>image/svg+xml</dc:format>
        <dc:type
           rdf:resource="http://purl.org/dc/dcmitype/StillImage" />
      </cc:Work>
    </rdf:RDF>
  </metadata>
  <defs
     id="defs2445">
    <inkscape:perspective
       sodipodi:type="inkscape:persp3d"
       inkscape:vp_x="0 : 991.01121 : 1"
       inkscape:vp_y="0 : 1000 : 0"
       inkscape:vp_z="13.952616 : 991.01121 : 1"
       inkscape:persp3d-origin="6.9763079 : 988.01494 : 1"
       id="perspective2449" />
  </defs>
  <sodipodi:namedview
     inkscape:window-height="998"
     inkscape:window-width="1680"
     inkscape:pageshadow="2"
     inkscape:pageopacity="0.0"
     guidetolerance="10.0"
     gridtolerance="10.0"
     objecttolerance="10.0"
     borderopacity="1.0"
     bordercolor="#666666"
     pagecolor="#ffffff"
     id="base"
     showgrid="false"
     inkscape:showpageshadow="2"
     inkscape:pagecheckerboard="0"
     inkscape:deskcolor="#d1d1d1"
     inkscape:zoom="0.75499997"
     inkscape:cx="669.53645"
     inkscape:cy="346.35763"
     inkscape:window-x="-8"
     inkscape:window-y="-8"
     inkscape:window-maximized="1"
     inkscape:current-layer="svg2440"
     showguides="true">
    <sodipodi:guide
       position="550,500"
       orientation="1,0"
       id="guide2"
       inkscape:locked="false" />
  </sodipodi:namedview>
  <path
     id="path2"
     style="baseline-shift:baseline;display:inline;overflow:visible;opacity:1;vector-effect:none;fill:#000000;enable-background:accumulate;stop-color:#000000;stop-opacity:1"
     d="m 549.63867,0.046875 c -209.51664,0 -329.09605,59.133236 -437.76758,142.914065 -32.270974,24.87946 -51.377517,50.52582 -59.708981,75.67578 -16.262492,49.09112 11.120171,92.47523 50.777341,105.80273 -31.426597,37.78668 -34.738394,81.38277 -17.947262,113.52344 17.363842,33.23692 47.244262,43.11463 61.476562,45.42383 -25.4851,38.5763 -26.78362,82.00691 -11.58789,114.98633 25.02956,54.32186 85.34036,71.96626 134.10352,30.94922 35.1484,115.23024 124.12674,370.73793 280.65429,371.15043 0.12044,0 0.24092,3e-4 0.36133,0 156.45636,-0.4123 245.42978,-255.67069 280.6543,-371.15043 48.76316,41.01704 109.07395,23.37264 134.10351,-30.94922 15.19573,-32.97942 13.89721,-76.41003 -11.58789,-114.98633 14.2323,-2.3092 44.11275,-12.18691 61.47658,-45.42383 16.7912,-32.14067 13.4793,-75.73676 -17.94728,-113.52344 39.65708,-13.3275 67.03988,-56.71161 50.77738,-105.80273 -8.3315,-25.14996 -27.4381,-50.79632 -59.70902,-75.67578 C 879.09605,59.180111 759.51664,0.046875 550,0.046875 v 35 c 136.42656,0 234.74584,24.896364 323.77344,74.076175 -5.51821,42.49862 -11.36676,83.34563 -17.51758,122.54492 C 761.81818,183.35979 648.55434,142.66179 550,142.5625 c -0.12046,-1.2e-4 -0.24092,0 -0.36133,0 -98.55433,0.0993 -211.81818,40.79729 -306.25586,89.10547 -6.15082,-39.19929 -11.99937,-80.0463 -17.51758,-122.54492 89.0276,-49.179811 187.34688,-74.076175 323.77344,-74.076175 z M 169.94336,143.86133 c 5.54478,41.02315 11.39283,80.51202 17.53125,118.47851 -14.6188,8.27334 -28.54839,17.67323 -42.82227,26.50391 -27.75612,15.70922 -74.70806,-12.58553 -59.265621,-59.20117 9.707816,-29.30472 37.195171,-53.15618 84.556641,-85.78125 z m 759.75195,0 c 47.36147,32.62507 74.84889,56.47653 84.55669,85.78125 15.4424,46.61564 -31.50955,74.91039 -59.26567,59.20117 -14.27388,-8.83068 -28.20347,-18.23057 -42.82227,-26.50391 6.13842,-37.96649 11.98647,-77.45536 17.53125,-118.47851 z m -379.875,33.70117 c 91.94603,0.0551 206.77597,42.15382 300.50586,90.82422 -6.74135,40.57446 -13.81564,79.2867 -21.18945,116.14258 C 748.6411,335.61459 683.87453,309.20532 550,309.14648 416.12547,309.08764 312.0096,359.30638 270.50195,384.5293 263.12814,347.67342 256.05385,308.96118 249.3125,268.38672 343.04239,219.71632 457.87429,177.61759 549.82031,177.5625 Z M 193.6543,299.47461 c 7.25417,42.37107 14.88148,82.75 22.86328,121.16016 -9.51163,7.30724 -19.3901,14.07753 -29.14649,21.0332 -30.79168,17.87456 -59.45273,2.8752 -71.35742,-19.91211 -13.72371,-26.26921 -10.95222,-66.91158 46.3418,-102.70898 0.8878,-0.55471 21.4958,-13.6806 31.29883,-19.57227 z m 712.33008,0 c 9.80303,5.89167 30.41102,19.01756 31.29882,19.57227 57.29402,35.7974 60.06551,76.43977 46.3418,102.70898 -11.90469,22.78731 -40.56574,37.78667 -71.35742,19.91211 -9.75639,-6.95567 -19.63486,-13.72596 -29.14649,-21.0332 7.9818,-38.41016 15.60911,-78.78909 22.86329,-121.16016 z m -356.16407,44.67187 c 116.13195,0 192.35661,25.6922 271.83399,76.66993 -10.22088,48.08654 -20.96811,92.79246 -32.16211,134.12695 C 718.08585,508.4194 640.38317,481.39079 550,481.24219 c -90.38317,-0.1486 -164.26291,26.93671 -239.85352,73.70117 -11.194,-41.33449 -21.94123,-86.04041 -32.1621,-134.12695 79.47737,-50.97773 155.70398,-76.66993 271.83593,-76.66993 z M 224.56641,458.1582 c 10.66272,48.17413 21.90724,93.04244 33.68945,134.6543 -4.14646,3.34607 -8.27759,6.75529 -12.39648,10.22656 -38.09772,32.10755 -69.03806,3.52543 -79.19141,-19.3125 -22.88054,-51.46524 8.46612,-93.00144 57.89844,-125.56836 z m 650.50586,0 c 49.43232,32.56692 80.77897,74.10312 57.89843,125.56836 -10.15335,22.83793 -41.09369,51.42005 -79.1914,19.3125 -4.11889,-3.47127 -8.25003,-6.88049 -12.39649,-10.22656 11.78221,-41.61186 23.02674,-86.48017 33.68946,-134.6543 z m -325.25196,58.08399 c 87.80823,0 160.38985,26.48575 229.76172,74.01758 C 747.16918,701.72945 664.43459,940.22491 549.82031,940.47266 435.1695,940.22483 352.42874,701.58932 320.05664,590.25977 389.42851,542.72794 462.01208,516.24219 549.82031,516.24219 Z"
     sodipodi:nodetypes="csscscsccccscscssccccsccccccccsccscccccczccccccsscccsccczcczcczccssccsscczcccz" />
</svg>
