<?xml version="1.0" encoding="UTF-8" standalone="no"?>
<svg
   width="1100"
   height="300"
   version="1.1"
   id="svg1"
   sodipodi:docname="13121.svg"
   inkscape:version="1.4.2 (f4327f4, 2025-05-13)"
   xmlns:inkscape="http://www.inkscape.org/namespaces/inkscape"
   xmlns:sodipodi="http://sodipodi.sourceforge.net/DTD/sodipodi-0.dtd"
   xmlns="http://www.w3.org/2000/svg"
   xmlns:svg="http://www.w3.org/2000/svg">
  <defs
     id="defs1" />
  <sodipodi:namedview
     id="namedview1"
     pagecolor="#ffffff"
     bordercolor="#666666"
     borderopacity="1.0"
     inkscape:showpageshadow="2"
     inkscape:pageopacity="0.0"
     inkscape:pagecheckerboard="0"
     inkscape:deskcolor="#d1d1d1"
     inkscape:zoom="0.3513035"
     inkscape:cx="-172.21576"
     inkscape:cy="559.3454"
     inkscape:window-width="1680"
     inkscape:window-height="998"
     inkscape:window-x="-8"
     inkscape:window-y="-8"
     inkscape:window-maximized="1"
     inkscape:current-layer="svg1"
     showguides="true">
    <sodipodi:guide
       position="584.21775,138.7237"
       orientation="1,0"
       id="guide1"
       inkscape:locked="false" />
    <sodipodi:guide
       position="394.8532,138.93998"
       orientation="0,-1"
       id="guide2"
       inkscape:locked="false" />
    <sodipodi:guide
       position="394.8532,138.93998"
       orientation="1,0"
       id="guide3"
       inkscape:locked="false" />
  </sodipodi:namedview>
  <path
     id="path1"
     style="fill:#000000;stroke:none;stroke-width:1"
     d="M 205.38867 23.21875 C 194.03916 23.21875 183.97227 29.990918 175.18555 43.537109 C 166.39883 56.717186 157.42822 65.137695 148.27539 68.798828 C 139.12256 72.093847 128.32285 70.264747 115.875 63.308594 C 103.06103 55.620215 91.528515 54.887402 81.277344 61.111328 C 71.392285 66.603027 66.08379 77.770117 65.351562 94.611328 C 64.619336 101.20137 63.15371 107.24072 60.957031 112.73242 C 20.318458 114.9291 0 131.03926 0 161.06055 C 0 191.08184 20.318458 207.19199 60.957031 209.38867 C 63.15371 214.88037 64.619336 220.91973 65.351562 227.50977 C 66.08379 244.35098 71.392285 255.51807 81.277344 261.00977 C 91.528515 267.2337 103.06103 266.50088 115.875 258.8125 C 128.32285 251.85634 139.12256 250.02725 148.27539 253.32227 C 157.42822 256.9834 166.39883 265.4039 175.18555 278.58398 C 183.97227 292.13017 194.03916 298.90234 205.38867 298.90234 C 217.83652 298.90234 227.72265 292.4956 235.04492 279.68164 C 242.36719 267.23379 253.53427 259.5461 268.54492 256.61719 C 278.79609 254.78663 289.23037 258.6295 299.84766 268.14844 C 311.9294 278.76573 323.46191 282.42783 334.44531 279.13281 C 345.79482 276.2039 353.29981 267.7834 356.96094 253.87109 C 360.98819 218.72422 373.61895 198.95391 394.85352 194.56055 C 582.66963 199.68614 747.41964 216.52715 889.10547 245.08398 C 1030.7913 273.2747 1101.0846 245.2666 1099.9863 161.06055 C 1101.0846 76.854493 1030.7913 48.846387 889.10547 77.037109 C 747.41964 105.59394 582.66963 122.43496 394.85352 127.56055 C 373.61895 123.16719 360.98819 103.39687 356.96094 68.25 C 353.29981 54.337695 345.79482 45.917187 334.44531 42.988281 C 323.46191 39.693262 311.9294 43.355371 299.84766 53.972656 C 289.23037 63.491601 278.79609 67.334473 268.54492 65.503906 C 253.53427 62.575 242.36719 54.887304 235.04492 42.439453 C 227.72265 29.625488 217.83652 23.21875 205.38867 23.21875 z M 211.42969 79.234375 C 285.01846 79.234375 328.2212 102.29942 341.03516 148.42969 L 82.923828 148.42969 C 98.666699 102.29942 141.50205 79.234375 211.42969 79.234375 z M 978.38867 111.01367 C 1026.8699 112.71468 1051.1113 129.48328 1051.1113 161.06055 C 1051.1113 211.58418 989.05573 224.19999 864.94336 197.83984 C 740.83096 171.47969 584.21807 177.45774 394.85352 170.7832 L 394.85352 161.06055 L 394.85352 151.33789 C 584.21807 144.66335 740.83096 150.6414 864.94336 124.28125 C 911.4855 114.39619 949.29994 109.99307 978.38867 111.01367 z M 82.923828 173.69141 L 341.03516 173.69141 C 328.2212 219.82168 285.01846 242.88672 211.42969 242.88672 C 141.50205 242.88672 98.666699 219.82168 82.923828 173.69141 z " />
</svg>
