<?xml version="1.0" encoding="UTF-8" standalone="no"?>
<svg
   width="600"
   height="1000"
   version="1.1"
   id="svg1"
   sodipodi:docname="13130.svg"
   inkscape:version="1.4.2 (f4327f4, 2025-05-13)"
   xml:space="preserve"
   xmlns:inkscape="http://www.inkscape.org/namespaces/inkscape"
   xmlns:sodipodi="http://sodipodi.sourceforge.net/DTD/sodipodi-0.dtd"
   xmlns="http://www.w3.org/2000/svg"
   xmlns:svg="http://www.w3.org/2000/svg"><defs
     id="defs1" /><sodipodi:namedview
     id="namedview1"
     pagecolor="#ffffff"
     bordercolor="#666666"
     borderopacity="1.0"
     inkscape:showpageshadow="2"
     inkscape:pageopacity="0.0"
     inkscape:pagecheckerboard="0"
     inkscape:deskcolor="#d1d1d1"
     inkscape:zoom="0.26693281"
     inkscape:cx="-848.52814"
     inkscape:cy="518.85716"
     inkscape:window-width="1680"
     inkscape:window-height="998"
     inkscape:window-x="-8"
     inkscape:window-y="-8"
     inkscape:window-maximized="1"
     inkscape:current-layer="svg1"
     showguides="true"><sodipodi:guide
       position="273.5485,921.66543"
       orientation="1,0"
       id="guide1"
       inkscape:locked="false" /><sodipodi:guide
       position="273.5485,0"
       orientation="0,-1"
       id="guide2"
       inkscape:locked="false" /></sodipodi:namedview><path
     id="path1"
     style="fill:#000000;stroke:none;stroke-width:1"
     d="M 100.51758 0.015625 C 29.495949 0.015625 -17.803415 50.638553 -17.421875 123.12891 C -16.9986 203.54869 24.347696 248.6582 96.035156 248.6582 C 146.32463 248.6582 181.73438 211.18848 181.73438 161.15039 C 181.73438 112.07765 138.42841 77.967366 96.035156 78.470703 L 96.035156 117.09375 C 120.17512 119.50775 132.24414 132.03377 132.24414 156.92383 C 132.24414 180.35748 118.62317 199.17188 96.035156 199.17188 C 53.220455 199.17188 30.857422 171.72657 30.857422 124.33594 C 30.857422 84.102694 58.847833 48.294922 103.00781 48.294922 C 196.22754 48.294922 240.875 140.13699 240.875 265.55469 L 242.28516 1000 L 272.22461 1000 L 274.87305 1000 L 304.8125 1000 L 306.22266 265.55469 C 306.22266 140.13699 350.87011 48.294922 444.08984 48.294922 C 488.24982 48.294922 516.24023 84.102694 516.24023 124.33594 C 516.24023 171.72657 493.8772 199.17188 451.0625 199.17188 C 428.47449 199.17188 414.85352 180.35748 414.85352 156.92383 C 414.85352 132.03377 426.92254 119.50775 451.0625 117.09375 L 451.0625 78.470703 C 408.66925 77.967366 365.36328 112.07765 365.36328 161.15039 C 365.36328 211.18848 400.77303 248.6582 451.0625 248.6582 C 522.74996 248.6582 564.09625 203.54869 564.51953 123.12891 C 564.90107 50.638553 517.60171 0.015625 446.58008 0.015625 C 368.967 0.015625 292.32974 39.078517 273.63281 151.78711 L 273.54883 202.37305 L 273.46484 151.78711 C 254.76791 39.078517 178.13066 0.015625 100.51758 0.015625 z " /></svg>
