<?xml version="1.0" encoding="UTF-8" standalone="no"?>
<svg
   width="900"
   height="1000"
   version="1.1"
   id="svg1"
   sodipodi:docname="13139.svg"
   inkscape:version="1.4.2 (f4327f4, 2025-05-13)"
   xml:space="preserve"
   xmlns:inkscape="http://www.inkscape.org/namespaces/inkscape"
   xmlns:sodipodi="http://sodipodi.sourceforge.net/DTD/sodipodi-0.dtd"
   xmlns="http://www.w3.org/2000/svg"
   xmlns:svg="http://www.w3.org/2000/svg"><defs
     id="defs1"><inkscape:path-effect
       effect="powerstroke"
       message=""
       id="path-effect2"
       is_visible="true"
       lpeversion="1.3"
       scale_width="1"
       interpolator_type="CentripetalCatmullRom"
       interpolator_beta="0.2"
       start_linecap_type="zerowidth"
       end_linecap_type="zerowidth"
       offset_points="2.5,15"
       linejoin_type="round"
       miter_limit="6"
       not_jump="false"
       sort_points="true" /></defs><sodipodi:namedview
     id="namedview1"
     pagecolor="#ffffff"
     bordercolor="#666666"
     borderopacity="1.0"
     inkscape:showpageshadow="2"
     inkscape:pageopacity="0.0"
     inkscape:pagecheckerboard="0"
     inkscape:deskcolor="#d1d1d1"
     inkscape:zoom="0.26693281"
     inkscape:cx="-590.03612"
     inkscape:cy="590.03612"
     inkscape:window-width="1680"
     inkscape:window-height="998"
     inkscape:window-x="-8"
     inkscape:window-y="-8"
     inkscape:window-maximized="1"
     inkscape:current-layer="svg1"
     showguides="true"><sodipodi:guide
       position="0,500"
       orientation="0,1"
       id="guide3"
       inkscape:locked="false"
       inkscape:label=""
       inkscape:color="rgb(0,134,229)" /></sodipodi:namedview><path
     style="baseline-shift:baseline;display:inline;overflow:visible;opacity:1;vector-effect:none;fill:#000000;stroke-width:1;stroke-linejoin:round;enable-background:accumulate;stop-color:#000000;stop-opacity:1"
     d="M 147.29646,500.00001 C 61.312234,500.00001 0,564.6052 0,639.12609 c 0,117.37096 104.05886,168.79918 186.39175,191.12328 56.3167,15.26995 89.11597,37.61634 108.3614,62.07075 43.55999,55.35003 16.3391,107.68188 50.80177,107.68188 26.82997,0 58.1369,-75.18432 58.1369,-179.5527 0,-187.0981 -116.79045,-320.44929 -256.39536,-320.44929 z m 0,49.49749 c 169.69777,0 251.66893,247.11337 202.63229,373.71146 C 346.08416,854.38775 262.50619,799.60092 199.34618,782.47545 123.52434,761.9168 52.899839,727.20351 49.497494,639.12609 c 0,-48.64218 35.277458,-89.62859 97.798966,-89.62859 z"
     id="path1"
     sodipodi:nodetypes="sssssssscsss" /></svg>
