<?xml version="1.0" encoding="UTF-8" standalone="no"?>
<svg
   width="1500"
   height="1000"
   version="1.1"
   id="svg1"
   sodipodi:docname="131C0.svg"
   inkscape:version="1.4.2 (f4327f4, 2025-05-13)"
   xmlns:inkscape="http://www.inkscape.org/namespaces/inkscape"
   xmlns:sodipodi="http://sodipodi.sourceforge.net/DTD/sodipodi-0.dtd"
   xmlns:xlink="http://www.w3.org/1999/xlink"
   xmlns="http://www.w3.org/2000/svg"
   xmlns:svg="http://www.w3.org/2000/svg">
  <defs
     id="defs1" />
  <sodipodi:namedview
     id="namedview1"
     pagecolor="#ffffff"
     bordercolor="#666666"
     borderopacity="1.0"
     inkscape:showpageshadow="2"
     inkscape:pageopacity="0.0"
     inkscape:pagecheckerboard="0"
     inkscape:deskcolor="#d1d1d1"
     inkscape:zoom="0.53386562"
     inkscape:cx="229.45849"
     inkscape:cy="444.8685"
     inkscape:window-width="1680"
     inkscape:window-height="998"
     inkscape:window-x="-8"
     inkscape:window-y="-8"
     inkscape:window-maximized="1"
     inkscape:current-layer="g2"
     showguides="true">
    <sodipodi:guide
       position="291.4961,954.56055"
       orientation="1,0"
       id="guide1"
       inkscape:locked="false" />
  </sodipodi:namedview>
  <g
     id="g1"
     transform="matrix(0.88637431,0,0,1,-15.3773,0.85377464)"
     style="stroke-width:1.06216">
    <g
       id="g2">
      <path
         id="path7"
         style="baseline-shift:baseline;display:inline;overflow:visible;opacity:1;vector-effect:none;fill:#000000;enable-background:accumulate;stop-color:#000000;stop-opacity:1"
         d="M 197.32594,-0.85182152 C 160.39348,-0.73926879 17.255993,6.7300933 17.255993,115.75755 c 1e-6,53.14193 41.106339,108.28709 154.399187,115.75782 l 0.0242,576.10742 -92.593232,-85.54492 -28.830583,31.20703 103.181045,95.32617 c -49.17562,20.0487 -83.472949,72.08235 -83.472949,131.32812 v 21.24221 H 326.50828 v -21.24221 c 0,-59.24689 -34.29858,-111.2822 -83.47516,-131.33007 l 103.17885,-95.32422 -28.83058,-31.20703 -92.59544,85.54687 -0.0242,-576.12109 c 45.69046,-3.95159 81.08064,-20.40399 120.63276,-44.01953 L 273.97686,115.75755 345.39447,44.030991 C 300.29802,14.004406 254.25369,0.24595908 197.32594,-0.85182152 Z m 0.13001,42.48632852 c 27.15361,-0.08275 54.22225,4.535879 77.36926,13.05664 l -60.80336,61.066403 60.80336,61.06641 c -23.0703,8.49297 -50.03422,13.1116 -77.09823,13.05859 -37.19197,-0.0729 -137.985318,-6.50795 -137.985321,-74.125 0,-67.295477 99.723021,-74.007264 137.714291,-74.123043 z m 0.78003,840.687503 c 40.20805,0 75.15552,31.84633 83.73517,76.37304 H 114.50082 c 8.57965,-44.52671 43.5271,-76.37304 83.73516,-76.37304 z"
         sodipodi:nodetypes="cscccccsccscccccccccsccccsssccs" />
    </g>
    <use
       x="0"
       y="0"
       xlink:href="#g2"
       id="use2"
       transform="translate(1363.4242)" />
    <use
       x="0"
       y="0"
       xlink:href="#g2"
       id="use3"
       transform="translate(1022.5681)" />
    <use
       x="0"
       y="0"
       xlink:href="#g2"
       id="use4"
       transform="translate(681.7121,-1.018087)" />
    <use
       x="0"
       y="0"
       xlink:href="#g2"
       id="use5"
       transform="translate(340.85605,-1.018087)" />
  </g>
</svg>
