<?xml version="1.0" encoding="UTF-8" standalone="no"?>
<svg
   width="1100"
   height="1000"
   version="1.1"
   id="svg1"
   sodipodi:docname="131E8.svg"
   inkscape:version="1.4.2 (f4327f4, 2025-05-13)"
   xmlns:inkscape="http://www.inkscape.org/namespaces/inkscape"
   xmlns:sodipodi="http://sodipodi.sourceforge.net/DTD/sodipodi-0.dtd"
   xmlns="http://www.w3.org/2000/svg"
   xmlns:svg="http://www.w3.org/2000/svg">
  <defs
     id="defs1" />
  <sodipodi:namedview
     id="namedview1"
     pagecolor="#ffffff"
     bordercolor="#666666"
     borderopacity="1.0"
     inkscape:showpageshadow="2"
     inkscape:pageopacity="0.0"
     inkscape:pagecheckerboard="0"
     inkscape:deskcolor="#d1d1d1"
     inkscape:zoom="0.53386563"
     inkscape:cx="188.24961"
     inkscape:cy="590.97267"
     inkscape:window-width="1680"
     inkscape:window-height="998"
     inkscape:window-x="-8"
     inkscape:window-y="-8"
     inkscape:window-maximized="1"
     inkscape:current-layer="svg1"
     showguides="true">
    <sodipodi:guide
       position="503.87212,498.00101"
       orientation="1,0"
       id="guide1"
       inkscape:locked="false" />
    <sodipodi:guide
       position="0,600"
       orientation="0,1"
       id="guide2"
       inkscape:locked="false"
       inkscape:label=""
       inkscape:color="rgb(0,134,229)" />
    <sodipodi:guide
       position="315.9098,27.51808"
       orientation="0,-1"
       id="guide3"
       inkscape:locked="false" />
    <sodipodi:guide
       position="70.186406,600.08421"
       orientation="1,0"
       id="guide4"
       inkscape:locked="false" />
    <sodipodi:guide
       position="937.55789,600.08421"
       orientation="1,0"
       id="guide5"
       inkscape:locked="false" />
    <sodipodi:guide
       position="166.43654,629.34322"
       orientation="0,-1"
       id="guide6"
       inkscape:locked="false" />
    <sodipodi:guide
       position="263.70343,726.10172"
       orientation="1,0"
       id="guide7"
       inkscape:locked="false" />
  </sodipodi:namedview>
  <path
     id="path2"
     style="baseline-shift:baseline;display:inline;overflow:visible;opacity:1;vector-effect:none;fill:#000000;enable-background:accumulate;stop-color:#000000;stop-opacity:1"
     d="m 166.94531,177.14062 c -53.20136,0 -96.759763,43.55646 -96.759763,96.75782 0,53.20136 43.558403,96.75781 96.759763,96.75781 53.20136,0 96.75781,-43.55645 96.75781,-96.75781 0,-53.20136 -43.55645,-96.75782 -96.75781,-96.75782 z m 224.61719,0 c -53.20136,0 -96.75781,43.55646 -96.75781,96.75782 0,53.20136 43.55645,96.75781 96.75781,96.75781 53.20136,0 96.75977,-43.55645 96.75977,-96.75781 0,-53.20136 -43.55841,-96.75782 -96.75977,-96.75782 z m 224.61914,0 c -53.20136,0 -96.75976,43.55646 -96.75976,96.75782 0,53.20136 43.5584,96.75781 96.75976,96.75781 53.20136,0 96.75781,-43.55645 96.75781,-96.75781 0,-53.20136 -43.55645,-96.75782 -96.75781,-96.75782 z m 224.61719,0 c -53.20136,0 -96.75781,43.55646 -96.75781,96.75782 0,53.20136 43.55645,96.75781 96.75781,96.75781 53.20136,0 96.75976,-43.55645 96.75976,-96.75781 0,-53.20136 -43.5584,-96.75782 -96.75976,-96.75782 z m -673.85352,40 c 31.58376,0 56.75781,25.17406 56.75781,56.75782 0,31.58375 -25.17405,56.75781 -56.75781,56.75781 -31.58375,0 -56.75976,-25.17406 -56.75976,-56.75781 0,-31.58376 25.17601,-56.7578 56.75976,-56.75782 z m 224.61719,0 c 31.58375,0 56.75977,25.17406 56.75977,56.75782 0,31.58375 -25.17602,56.75781 -56.75977,56.75781 -31.58375,0 -56.75781,-25.17406 -56.75781,-56.75781 0,-31.58376 25.17406,-56.75782 56.75781,-56.75782 z m 224.61914,0 c 31.58376,0 56.75781,25.17406 56.75781,56.75782 0,31.58375 -25.17405,56.75781 -56.75781,56.75781 -31.58375,0 -56.75976,-25.17406 -56.75976,-56.75781 0,-31.58376 25.17601,-56.7578 56.75976,-56.75782 z m 224.61719,0 c 31.58375,0 56.75976,25.17406 56.75976,56.75782 0,31.58375 -25.17601,56.75781 -56.75976,56.75781 -31.58376,0 -56.75781,-25.17406 -56.75781,-56.75781 0,-31.58376 25.17405,-56.7578 56.75781,-56.75782 z M 70.332031,400.03516 296.89844,999.98242 711.06641,1000 937.63281,400.05469 Z m 79.562499,55 708.17578,0.0195 L 673.04492,945 l -338.125,-0.0176 z"
     sodipodi:nodetypes="sssssssssssssssssssssssssssssssssssssssscccccccccc" />
</svg>
