<?xml version="1.0" encoding="UTF-8" standalone="no"?>
<svg
   width="1250"
   height="1000"
   version="1.1"
   id="svg1"
   sodipodi:docname="131F4.svg"
   inkscape:version="1.4.2 (f4327f4, 2025-05-13)"
   xmlns:inkscape="http://www.inkscape.org/namespaces/inkscape"
   xmlns:sodipodi="http://sodipodi.sourceforge.net/DTD/sodipodi-0.dtd"
   xmlns="http://www.w3.org/2000/svg"
   xmlns:svg="http://www.w3.org/2000/svg">
  <defs
     id="defs1" />
  <sodipodi:namedview
     id="namedview1"
     pagecolor="#ffffff"
     bordercolor="#666666"
     borderopacity="1.0"
     inkscape:showpageshadow="2"
     inkscape:pageopacity="0.0"
     inkscape:pagecheckerboard="0"
     inkscape:deskcolor="#d1d1d1"
     inkscape:zoom="4.270925"
     inkscape:cx="40.155236"
     inkscape:cy="310.8226"
     inkscape:window-width="1680"
     inkscape:window-height="998"
     inkscape:window-x="-8"
     inkscape:window-y="-8"
     inkscape:window-maximized="1"
     inkscape:current-layer="svg1"
     showguides="true">
    <sodipodi:guide
       position="9.3746891,5.1962688"
       orientation="0,-1"
       id="guide2"
       inkscape:locked="false" />
    <sodipodi:guide
       position="332.03341,365.20239"
       orientation="1,0"
       id="guide1"
       inkscape:locked="false" />
    <sodipodi:guide
       position="989.78783,366.46483"
       orientation="1,0"
       id="guide3"
       inkscape:locked="false" />
    <sodipodi:guide
       position="590.03612,-165.0872"
       orientation="0,-1"
       id="guide4"
       inkscape:locked="false" />
    <sodipodi:guide
       position="660.91069,365.83357"
       orientation="0,-1"
       id="guide5"
       inkscape:locked="false" />
    <sodipodi:guide
       position="660.91064,664.71075"
       orientation="1,0"
       id="guide12"
       inkscape:locked="false" />
    <sodipodi:guide
       position="601.08147,365.83357"
       orientation="1,0"
       id="guide13"
       inkscape:locked="false" />
  </sodipodi:namedview>
  <path
     id="path5"
     style="baseline-shift:baseline;display:inline;overflow:visible;opacity:1;vector-effect:none;fill:#000000;fill-rule:evenodd;stroke-miterlimit:2;enable-background:accumulate;stop-color:#000000;stop-opacity:1"
     d="m 116.14844,219.43945 c -25.249696,0 -51.762452,2.94628 -79.537112,8.83789 C 15.56995,234.1689 3.3666411,250.58064 0,277.51367 c 0,22.72473 21.042198,37.45427 63.125,44.1875 -39.557833,40.39951 -59.3378906,83.746 -59.3378906,130.03711 0,106.0487 4.2084212,209.99164 12.6249996,311.83203 15.149814,113.62366 71.119698,170.43555 167.910161,170.43555 92.06228,0 160.75478,-48.24884 193.21679,-133.11524 57.28264,96.95351 162.88759,162.15235 283.3711,162.15235 107.08605,0 202.41843,-51.50489 262.51562,-131.0332 85.04362,71.4952 155.98132,116.43442 212.81052,134.82031 49.4282,22.11265 81.518,33.16992 96.2696,33.16992 4.3386,0 7.1765,-0.9561 8.5156,-2.86914 13.4665,-10.94136 11.7843,-21.46262 -5.0488,-31.5625 C 1123.2012,903.2916 1033.9912,831.7584 968.34375,750.96875 c 13.85214,-36.31633 21.44336,-75.69388 21.44336,-116.80273 0,-181.27853 -147.59843,-328.87696 -328.87695,-328.87696 -181.27853,0 -328.87696,147.59843 -328.87696,328.87696 0,0.21099 -4e-4,0.4219 0,0.63281 -4.7e-4,59.75657 -21.04072,103.10247 -63.12304,130.03515 -28.65209,18.33735 -49.50294,27.50586 -62.54883,27.50586 -6.11528,0 -10.51504,-2.01571 -13.20117,-6.04492 -8.41657,-12.62484 -7.57448,-34.71716 2.52539,-66.2793 10.09987,-31.56204 28.61577,-71.96226 55.54883,-121.19921 26.93299,-49.2369 40.40039,-110.04531 40.40039,-182.42774 0,-78.27404 -22.93638,-130.66751 -68.80665,-157.17969 -45.87029,-26.51217 -81.42999,-39.76953 -106.67968,-39.76953 z m -31.562502,30.30078 -1.076059,1.17591 c -10.206493,3.60845 -16.59777,8.73054 -16.59777,20.28503 0,12.26444 7.153218,18.93792 23.986329,21.46289 43.766152,0 80.377992,10.94117 109.835942,32.82422 l 3.78906,-3.78711 c -26.93299,-26.09137 -58.07426,-39.13672 -93.42383,-39.13672 5.04994,-13.46647 4.20789,-23.56551 -2.52539,-30.29883 90.89889,26.09137 136.34766,80.79907 136.34766,164.12305 0,57.23261 -17.88586,120.56726 -53.65626,190.00391 -35.77036,69.43665 -53.65429,127.29873 -53.65429,173.58984 0,43.76615 15.99168,65.65039 47.97461,65.65039 36.19124,0 79.95586,-22.72439 131.29687,-68.17383 -37.87454,71.54076 -81.63916,107.31055 -131.29687,107.31055 -42.08281,0 -75.32827,-20.2001 -99.736331,-60.59961 C 61.44159,783.77041 49.236328,665.51802 49.236328,469.41211 c 0,-67.33249 29.459034,-117.83178 88.375002,-151.49805 L 121.19922,301.50195 H 94.685547 c -30.299629,0 -48.815593,-10.94117 -55.548828,-32.82422 6.733235,-12.62485 21.882823,-18.9375 45.449219,-18.9375 z M 660.91016,365.28906 c 148.85211,0 268.87695,120.02484 268.87695,268.87696 0,148.85211 -120.02484,268.87695 -268.87695,268.87695 -148.85212,0 -268.87696,-120.02484 -268.87696,-268.87695 0,-148.85212 120.02484,-268.87696 268.87696,-268.87696 z m 0,209.04883 c -33.04192,5.8e-4 -59.82755,26.78621 -59.82813,59.82813 -4.9e-4,33.04268 26.78545,59.82949 59.82813,59.83007 33.04344,4.9e-4 59.83056,-26.78663 59.83007,-59.83007 -5.8e-4,-33.04268 -26.78739,-59.82862 -59.83007,-59.82813 z m 292.10742,210.79688 58.23242,71.85937 -67.58203,-55.06641 v -0.002 c 3.27478,-5.49668 6.3923,-11.09461 9.34961,-16.79101 z"
     sodipodi:nodetypes="scccscscsccscccssscssssssssccscccccsssscsssccsccsssssssssscccccc" />
</svg>
