<?xml version="1.0" encoding="UTF-8" standalone="no"?>
<svg
   width="17.716623"
   height="6"
   version="1.1"
   id="svg1"
   sodipodi:docname="131FE.svg"
   inkscape:version="1.4.2 (f4327f4, 2025-05-13)"
   xmlns:inkscape="http://www.inkscape.org/namespaces/inkscape"
   xmlns:sodipodi="http://sodipodi.sourceforge.net/DTD/sodipodi-0.dtd"
   xmlns="http://www.w3.org/2000/svg"
   xmlns:svg="http://www.w3.org/2000/svg">
  <defs
     id="defs1" />
  <sodipodi:namedview
     id="namedview1"
     pagecolor="#ffffff"
     bordercolor="#666666"
     borderopacity="1.0"
     inkscape:showpageshadow="2"
     inkscape:pageopacity="0.0"
     inkscape:pagecheckerboard="0"
     inkscape:deskcolor="#d1d1d1"
     inkscape:zoom="44.534446"
     inkscape:cx="8.3867664"
     inkscape:cy="6.2760408"
     inkscape:window-width="1680"
     inkscape:window-height="998"
     inkscape:window-x="-8"
     inkscape:window-y="-8"
     inkscape:window-maximized="1"
     inkscape:current-layer="svg1"
     showguides="true">
    <sodipodi:guide
       position="8.8583105,6"
       orientation="1,0"
       id="guide3"
       inkscape:locked="false" />
  </sodipodi:namedview>
  <path
     style="fill:#000000;stroke:none"
     d="m 1.68153,1.812137 h 14.353561 c 0.754267,-0.011258 1.1314,0.4446787 1.1314,1.36781 0,0.821812 -0.377133,1.232718 -1.1314,1.232718 H 1.68153 c -0.82181133,0 -1.232717,-0.4334213 -1.232717,-1.300264 0,-0.8781007 0.41090567,-1.311522 1.232717,-1.300264 z M 1.158047,3.112401 c 0,0.3827613 0.2476693,0.574142 0.743008,0.574142 L 15.663589,3.70343 c 0.517853,0 0.77678,-0.185752 0.77678,-0.557256 0,-0.4165347 -0.253298,-0.624802 -0.759894,-0.624802 H 1.917942 c -0.5065967,0 -0.759895,0.1970097 -0.759895,0.591029 z"
     id="path1"
     sodipodi:nodetypes="ccsssscsccssss" />
  <path
     style="fill:#000000;stroke:none"
     d="m 10.20079,5.459631 c 0,0.14635 0.05629,0.272999 0.168866,0.379947 C 10.482233,5.946526 10.622954,6 10.79182,6 c 0.168865,0 0.312399,-0.053474 0.430605,-0.160422 0.118206,-0.106948 0.177309,-0.233597 0.177309,-0.379947 0,-0.14635 -0.0591,-0.2701847 -0.177309,-0.371504 -0.118206,-0.1013193 -0.26174,-0.151979 -0.430605,-0.151979 -0.168866,0 -0.309587,0.05066 -0.422164,0.151979 -0.112577,0.1013193 -0.168866,0.225154 -0.168866,0.371504 z"
     id="path3" />
  <path
     style="fill:#000000;stroke:none"
     d="m 8.258838,5.476517 c 0,0.14635 0.056288,0.2701847 0.168865,0.371504 C 8.5402796,5.9493403 8.681001,6 8.8498669,6 9.0187323,6 9.1622681,5.94934 9.280474,5.848021 9.39868,5.7467017 9.457783,5.622867 9.457783,5.476517 9.457783,5.330167 9.39868,5.203518 9.280474,5.09657 9.1622681,4.989622 9.0187323,4.936148 8.8498669,4.936148 c -0.168866,0 -0.3095873,0.053474 -0.422164,0.160422 C 8.3151262,5.203518 8.258838,5.330167 8.258838,5.476517 Z"
     id="path2" />
  <path
     style="fill:#000000;stroke:none"
     d="m 6.3337719,5.459631 c 0,0.14635 0.056288,0.272999 0.168865,0.379947 C 6.6152142,5.946526 6.7559356,6 6.9248009,6 7.0936662,6 7.2343872,5.946526 7.3469639,5.839578 7.4595412,5.73263 7.51583,5.605981 7.51583,5.459631 7.51583,5.313281 7.459541,5.1894463 7.3469639,5.088127 7.2343872,4.9868077 7.0936662,4.936148 6.9248009,4.936148 c -0.1688653,0 -0.3095867,0.05066 -0.422164,0.151979 -0.1125767,0.1013193 -0.168865,0.225154 -0.168865,0.371504 z"
     id="path1-5" />
</svg>
