<?xml version="1.0" encoding="UTF-8" standalone="no"?>
<svg
   width="1100"
   height="300"
   version="1.1"
   id="svg1"
   sodipodi:docname="13201.svg"
   inkscape:version="1.4.2 (f4327f4, 2025-05-13)"
   xmlns:inkscape="http://www.inkscape.org/namespaces/inkscape"
   xmlns:sodipodi="http://sodipodi.sourceforge.net/DTD/sodipodi-0.dtd"
   xmlns="http://www.w3.org/2000/svg"
   xmlns:svg="http://www.w3.org/2000/svg">
  <defs
     id="defs1" />
  <sodipodi:namedview
     id="namedview1"
     pagecolor="#ffffff"
     bordercolor="#666666"
     borderopacity="1.0"
     inkscape:showpageshadow="2"
     inkscape:pageopacity="0.0"
     inkscape:pagecheckerboard="0"
     inkscape:deskcolor="#d1d1d1"
     inkscape:zoom="0.47772727"
     inkscape:cx="702.28354"
     inkscape:cy="99.429115"
     inkscape:window-width="1680"
     inkscape:window-height="998"
     inkscape:window-x="-8"
     inkscape:window-y="-8"
     inkscape:window-maximized="1"
     inkscape:current-layer="svg1"
     showguides="true">
    <sodipodi:guide
       position="550,150"
       orientation="1,0"
       id="guide1"
       inkscape:locked="false" />
  </sodipodi:namedview>
  <path
     id="path1"
     style="fill:#000000;stroke:none;stroke-width:0.999998"
     d="M 118.67773 63.919922 C 79.543864 63.919922 49.767261 76.681112 29.349609 102.20312 C 9.782692 126.87445 0 154.09916 0 183.875 C 0.85073387 213.65065 10.208769 240.02222 28.074219 262.99219 C 49.342604 287.66355 79.968514 300 119.95312 300 L 550 300 L 980.04688 300 C 1020.0309 300 1050.2328 287.66355 1070.6504 262.99219 C 1089.3663 240.02222 1099.1492 213.65065 1100 183.875 C 1099.1492 154.09916 1089.3663 126.87445 1070.6504 102.20312 C 1050.2328 76.681112 1020.4574 63.919922 981.32422 63.919922 L 550 63.919922 L 118.67773 63.919922 z M 114.84961 100.92773 L 985.15039 100.92773 C 1005.5682 100.92773 1023.0084 110.28577 1037.4707 129.00195 C 1051.9331 147.71817 1059.1641 166.00951 1059.1641 183.875 C 1059.1641 202.59099 1053.6356 219.60464 1042.5762 234.91797 C 1029.2386 248.89094 1014.9512 257.64824 999.7168 261.18945 L 990.6875 247.30664 L 916.59766 145.25 L 898.07422 120.32812 L 879.55078 146.43555 L 856.39844 177.29102 L 834.78906 146.43555 L 814.72266 119.14062 L 797.74219 146.43555 L 776.13281 176.10352 L 756.06641 146.43555 L 737.54297 117.95508 L 719.02148 146.43555 L 698.95508 176.10352 L 677.34375 146.43555 L 658.82227 117.95508 L 640.29883 146.43555 L 618.68945 176.10352 L 598.62305 146.43555 L 580.09961 117.95508 L 561.57617 146.43555 L 541.50977 176.10352 L 519.90039 146.43555 L 501.37695 117.95508 L 482.85547 146.43555 L 462.78906 174.91602 L 442.72266 146.43555 L 422.65625 117.95508 L 404.13281 146.43555 L 384.06641 176.10352 L 364 146.43555 L 343.93359 117.95508 L 325.41016 146.43555 L 305.34375 176.10352 L 285.27734 146.43555 L 266.75586 117.95508 L 246.68945 146.43555 L 226.62305 176.10352 L 206.55664 146.43555 L 186.49023 116.76758 L 167.9668 147.62305 L 109.3125 248.49414 L 100.86328 261.48633 L 100.86133 261.48633 C 85.628959 258.15444 71.149644 249.29751 57.423828 234.91797 C 45.513515 219.60464 39.558594 202.59099 39.558594 183.875 C 40.409328 166.00951 48.066821 147.71817 62.529297 129.00195 C 76.991811 110.28577 94.431882 100.92773 114.84961 100.92773 z M 898.07422 187.9707 L 952.09961 262.73438 L 952.29492 262.99219 L 147.0332 262.99219 L 147.90039 261.54688 L 188.0332 191.53125 L 208.09961 218.82617 L 226.62305 247.30664 L 245.14648 218.82617 L 266.75586 189.1582 L 286.82227 218.82617 L 305.34375 247.30664 L 323.86719 218.82617 L 343.93359 189.1582 L 365.54297 218.82617 L 384.06641 247.30664 L 402.58984 218.82617 L 422.65625 190.34375 L 442.72266 218.82617 L 462.78906 247.30664 L 481.31055 218.82617 L 501.37695 189.1582 L 521.44336 218.82617 L 541.50977 247.30664 L 560.0332 218.82617 L 580.09961 189.1582 L 600.16602 218.82617 L 620.23242 247.30664 L 638.75586 218.82617 L 658.82227 189.1582 L 678.88867 218.82617 L 697.41016 247.30664 L 717.47656 218.82617 L 737.54297 189.1582 L 757.60938 218.82617 L 776.13281 247.30664 L 796.19922 218.82617 L 816.26562 189.1582 L 837.875 220.01172 L 856.39844 246.11914 L 876.46484 220.01172 L 898.07422 187.9707 z " />
</svg>
