<?xml version="1.0" encoding="UTF-8" standalone="no"?>
<!-- Created with Inkscape (http://www.inkscape.org/) -->

<svg
   width="1100"
   height="1000"
   viewBox="0 0 1100 1000"
   version="1.1"
   id="svg1"
   inkscape:version="1.4.2 (f4327f4, 2025-05-13)"
   sodipodi:docname="1325F.svg"
   xmlns:inkscape="http://www.inkscape.org/namespaces/inkscape"
   xmlns:sodipodi="http://sodipodi.sourceforge.net/DTD/sodipodi-0.dtd"
   xmlns="http://www.w3.org/2000/svg"
   xmlns:svg="http://www.w3.org/2000/svg">
  <sodipodi:namedview
     id="namedview1"
     pagecolor="#ffffff"
     bordercolor="#666666"
     borderopacity="1.0"
     inkscape:showpageshadow="2"
     inkscape:pageopacity="0.0"
     inkscape:pagecheckerboard="0"
     inkscape:deskcolor="#d1d1d1"
     inkscape:document-units="px"
     inkscape:zoom="0.755"
     inkscape:cx="515.89404"
     inkscape:cy="480.13245"
     inkscape:window-width="1680"
     inkscape:window-height="998"
     inkscape:window-x="-8"
     inkscape:window-y="-8"
     inkscape:window-maximized="1"
     inkscape:current-layer="layer1"
     showguides="true"
     showgrid="false">
    <inkscape:grid
       id="grid2"
       units="px"
       originx="0"
       originy="0"
       spacingx="1"
       spacingy="1"
       empcolor="#3f3fff"
       empopacity="0.25098039"
       color="#3f3fff"
       opacity="0.1254902"
       empspacing="5"
       enabled="true"
       visible="false" />
    <sodipodi:guide
       position="203.33301,675.49669"
       orientation="0,-1"
       id="guide4"
       inkscape:locked="false" />
    <sodipodi:guide
       position="550,500"
       orientation="1,0"
       id="guide5"
       inkscape:locked="false" />
  </sodipodi:namedview>
  <defs
     id="defs1" />
  <g
     inkscape:label="Layer 1"
     inkscape:groupmode="layer"
     id="layer1">
    <path
       id="path7"
       style="baseline-shift:baseline;display:inline;overflow:visible;opacity:1;vector-effect:none;fill:#000000;fill-rule:evenodd;stroke-linecap:round;enable-background:accumulate;stop-color:#000000;stop-opacity:1"
       d="M 346.66602 0 L 346.66602 395.23633 C 281.35405 393.114 209.71791 384.52243 158.65039 361.34375 A 15.0015 15.0015 0 0 0 152.25586 360.00391 A 15.0015 15.0015 0 0 0 145.89648 361.50977 C 126.54186 370.91072 105.35616 377.83743 85.330078 386.16797 C 76.572919 389.81079 58.071088 390.69965 40.519531 393.73633 C 31.743753 395.25467 22.783122 397.3245 14.519531 403.13867 C 6.2559411 408.95284 0 420.08403 0 431.79883 C 0 443.51364 6.2559373 454.64285 14.519531 460.45703 C 22.783125 466.27121 31.743754 468.34299 40.519531 469.86133 C 58.071086 472.89801 76.572944 473.78488 85.330078 477.42773 C 105.35616 485.75828 126.54184 492.68503 145.89648 502.08594 A 15.0015 15.0015 0 0 0 158.65039 502.25195 C 209.71792 479.07331 281.35408 470.48327 346.66602 468.36133 L 346.66602 1000 L 753.33398 1000 L 753.33398 494.80469 C 783.51655 496.33931 813.80879 497.04819 844.23047 496.44336 C 886.14047 495.61011 946.62782 489.40101 997.51953 480.67578 C 1022.9654 476.31317 1045.8773 471.37013 1063.3066 465.84961 C 1072.0213 463.08935 1079.3201 460.29263 1085.5547 456.64453 C 1088.672 454.82048 1091.5884 452.81632 1094.3516 449.73633 C 1097.1148 446.65634 1100 441.80919 1100 435.75391 C 1100 429.69863 1097.2169 425.00991 1094.5625 421.92188 C 1091.9081 418.83384 1089.0694 416.7384 1086.002 414.79688 C 1079.8671 410.91384 1072.589 407.77216 1063.8887 404.61914 C 1046.488 398.3131 1023.5568 392.35776 998.08203 386.98438 C 947.13245 376.23762 886.62624 367.99522 844.23047 367.15234 C 813.80881 366.54751 783.51653 367.25629 753.33398 368.79102 L 753.33398 0 L 346.66602 0 z M 406.66602 60 L 693.33398 60 L 693.33398 372.79883 C 597.00186 380.55033 501.66263 393.4726 406.66602 395.51953 L 406.66602 60 z M 551.68945 195.87305 C 480.8261 195.87305 423.05859 253.64055 423.05859 324.50391 L 423.05859 339.50391 L 551.68945 339.50391 L 680.32031 339.50391 L 680.32031 324.50391 C 680.32031 253.64055 622.55281 195.87305 551.68945 195.87305 z M 551.68945 225.87305 C 601.224 225.87305 641.87375 262.04436 649.07227 309.50391 L 551.68945 309.50391 L 454.30664 309.50391 C 461.50522 262.04443 502.15496 225.87305 551.68945 225.87305 z M 162.99219 395.53125 C 225.581 419.22024 303.28479 425.04761 370.10156 425.73828 C 530.78529 427.39903 687.66529 394.04556 843.63477 397.14648 C 882.62258 397.92161 942.65056 405.95213 991.88867 416.33789 C 1016.5077 421.53077 1038.5848 427.35804 1053.668 432.82422 C 1055.9888 433.66527 1057.7861 434.4648 1059.748 435.28125 C 1057.9412 435.9405 1056.3504 436.5841 1054.248 437.25 C 1039.1935 442.01833 1017.0992 446.87965 992.45117 451.10547 C 943.15518 459.55711 883.10836 465.66441 843.63477 466.44922 C 795.37094 467.40878 747.02003 464.87854 698.49609 460.97461 C 700.54077 458.61721 700.7791 458.37044 700.11914 459.06055 C 699.73985 459.45716 699.06421 460.16294 698.26367 460.95508 C 590.05397 452.23951 480.98313 436.71325 370.10156 437.85938 C 303.22109 438.5506 225.432 444.3871 162.8125 468.13281 A 15 15 0 0 0 162.99219 467.46484 L 162.99219 395.53125 z M 132.99219 399.73828 L 132.99219 463.85742 C 120.23217 458.79921 107.88957 454.31935 96.853516 449.72852 C 79.024246 442.31178 59.480665 442.69471 45.632812 440.29883 C 38.708887 439.10089 33.630783 437.2232 31.78125 435.92188 C 29.931717 434.62056 30 435.46936 30 431.79883 C 30 428.12833 29.93171 428.97514 31.78125 427.67383 C 33.630787 426.37251 38.708889 424.49483 45.632812 423.29688 C 59.480663 420.901 79.024271 421.28384 96.853516 413.86719 C 107.88965 409.27633 120.23207 404.79655 132.99219 399.73828 z M 406.66602 468.07812 C 501.66263 470.12482 597.00185 483.04586 693.33398 490.79688 L 693.33398 551.76562 L 520 551.76562 L 520 940 L 406.66602 940 L 406.66602 468.07812 z M 580 611.76562 L 693.33398 611.76562 L 693.33398 940 L 580 940 L 580 611.76562 z " />
  </g>
</svg>
