<?xml version="1.0" encoding="UTF-8" standalone="no"?>
<!-- Created with Inkscape (http://www.inkscape.org/) -->

<svg
   id="svg1359"
   sodipodi:version="0.32"
   inkscape:version="1.4.2 (f4327f4, 2025-05-13)"
   width="1100pt"
   height="1000pt"
   version="1.0"
   sodipodi:docname="13251.svg"
   viewBox="0 0 1100 1000"
   xmlns:inkscape="http://www.inkscape.org/namespaces/inkscape"
   xmlns:sodipodi="http://sodipodi.sourceforge.net/DTD/sodipodi-0.dtd"
   xmlns="http://www.w3.org/2000/svg"
   xmlns:svg="http://www.w3.org/2000/svg"
   xmlns:rdf="http://www.w3.org/1999/02/22-rdf-syntax-ns#"
   xmlns:cc="http://creativecommons.org/ns#"
   xmlns:dc="http://purl.org/dc/elements/1.1/">
  <metadata
     id="metadata1364">
    <rdf:RDF>
      <cc:Work
         rdf:about="">
        <dc:format>image/svg+xml</dc:format>
        <dc:type
           rdf:resource="http://purl.org/dc/dcmitype/StillImage" />
      </cc:Work>
    </rdf:RDF>
  </metadata>
  <defs
     id="defs1362" />
  <sodipodi:namedview
     inkscape:window-height="998"
     inkscape:window-width="1680"
     inkscape:pageshadow="2"
     inkscape:pageopacity="0.0"
     borderopacity="1.0"
     bordercolor="#666666"
     pagecolor="#ffffff"
     id="base"
     showgrid="false"
     gridspacingx="0px"
     gridspacingy="0px"
     inkscape:zoom="0.40039921"
     inkscape:cx="188.56181"
     inkscape:cy="540.71036"
     inkscape:window-x="-8"
     inkscape:window-y="-8"
     inkscape:current-layer="g1369"
     inkscape:showpageshadow="2"
     inkscape:pagecheckerboard="0"
     inkscape:deskcolor="#d1d1d1"
     inkscape:document-units="pt"
     showguides="true"
     inkscape:window-maximized="1">
    <sodipodi:guide
       position="0,591.11169"
       orientation="0,-1"
       id="guide1"
       inkscape:locked="false" />
    <sodipodi:guide
       position="766.52336,591.11169"
       orientation="1,0"
       id="guide2"
       inkscape:locked="false" />
    <sodipodi:guide
       position="0,591.11167"
       orientation="1,0"
       id="guide3"
       inkscape:locked="false" />
    <sodipodi:guide
       position="383.2617,999.99997"
       orientation="1,0"
       id="guide6"
       inkscape:locked="false" />
    <sodipodi:guide
       position="30.000001,621.11167"
       orientation="0,-1"
       id="guide8"
       inkscape:locked="false" />
  </sodipodi:namedview>
  <path
     id="rect5"
     style="fill:none;fill-rule:evenodd;stroke:#613583;stroke-width:60;stroke-miterlimit:2"
     d="M 189.18616,378.88831 H 30 V 30 h 706.52338 v 348.88831 l -158.53294,0"
     sodipodi:nodetypes="cccccc" />
  <g
     id="g1369"
     transform="scale(50.108859)"
     style="stroke-width:0.0199566">
    <path
       id="path1321"
       style="color:#000000;display:inline;overflow:visible;visibility:visible;fill:#000000;fill-opacity:1;fill-rule:evenodd;stroke:none;stroke-width:0.115249;stroke-linecap:butt;stroke-linejoin:miter;stroke-miterlimit:4;stroke-dashoffset:0;stroke-opacity:1;marker:none;marker-start:none;marker-mid:none;marker-end:none"
       d="m 7.648582,3.7292538 c -1.8421259,0 -2.3488607,1.3879753 -2.3488607,2.5220384 0,1.4681641 0.52401,3.2615651 1.7109917,5.6415458 -1.0317998,-0.149678 -2.0635755,-0.299534 -3.0953897,-0.44911 -0.020389,0.549516 -0.041468,1.099032 -0.061857,1.648549 1.1430303,-0.09542 2.2860568,-0.190859 3.429087,-0.286281 -0.2282593,2.38352 -0.4567784,4.767031 -0.6848761,7.150565 H 8.6994874 C 8.4713897,17.573027 8.2428706,15.189516 8.0146113,12.805996 c 1.1430302,0.09542 2.2860557,0.190861 3.4290867,0.286281 -0.02039,-0.549517 -0.04147,-1.099033 -0.06186,-1.648549 -1.031815,0.149576 -2.0635901,0.299432 -3.0953899,0.44911 1.1869817,-2.3799807 1.7109917,-4.1733817 1.7109917,-5.6415458 0,-1.1340631 -0.5067349,-2.5220384 -2.3488608,-2.5220384 z m 0,1.1477843 c 0.5134267,0 1.1351263,0.3503369 1.1351263,1.4310835 C 8.758916,7.9578741 8.3515628,9.1707339 7.648582,11.060246 6.9456012,9.1707339 6.5382481,7.9578741 6.5134558,6.3081216 c 0,-1.0807466 0.6216995,-1.4310835 1.1351262,-1.4310835 z"
       sodipodi:nodetypes="ssccccccccccssscccs" />
  </g>
</svg>
