<?xml version="1.0" encoding="UTF-8" standalone="no"?>
<svg
   width="900"
   height="1000"
   version="1.1"
   id="svg1"
   sodipodi:docname="13260.svg"
   inkscape:version="1.4.2 (f4327f4, 2025-05-13)"
   xmlns:inkscape="http://www.inkscape.org/namespaces/inkscape"
   xmlns:sodipodi="http://sodipodi.sourceforge.net/DTD/sodipodi-0.dtd"
   xmlns="http://www.w3.org/2000/svg"
   xmlns:svg="http://www.w3.org/2000/svg">
  <defs
     id="defs1" />
  <sodipodi:namedview
     id="namedview1"
     pagecolor="#ffffff"
     bordercolor="#666666"
     borderopacity="1.0"
     inkscape:showpageshadow="2"
     inkscape:pageopacity="0.0"
     inkscape:pagecheckerboard="0"
     inkscape:deskcolor="#d1d1d1"
     inkscape:zoom="0.3775"
     inkscape:cx="86.092715"
     inkscape:cy="311.25828"
     inkscape:window-width="1680"
     inkscape:window-height="998"
     inkscape:window-x="-8"
     inkscape:window-y="-8"
     inkscape:window-maximized="1"
     inkscape:current-layer="svg1"
     showguides="true">
    <sodipodi:guide
       position="215.85438,0"
       orientation="1,0"
       id="guide1"
       inkscape:locked="false" />
    <sodipodi:guide
       position="653.64232,0"
       orientation="1,0"
       id="guide2"
       inkscape:locked="false" />
    <sodipodi:guide
       position="482.66299,339.5684"
       orientation="0,-1"
       id="guide3"
       inkscape:locked="false" />
    <sodipodi:guide
       position="434.1335,1000"
       orientation="1,0"
       id="guide4"
       inkscape:locked="false" />
    <sodipodi:guide
       position="464.13477,388.23438"
       orientation="0,-1"
       id="guide7"
       inkscape:locked="false" />
  </sodipodi:namedview>
  <path
     id="path1"
     style="fill:#000000;stroke:none;stroke-width:1"
     d="M 0,0 C 51.830132,103.66027 127.8086,179.00091 230.80078,220.07031 V 1000 H 637.4668 V 220.06836 C 740.45833,178.99884 816.4357,103.65984 868.26562,0 Z M 77.019531,40.337891 H 791.24609 C 690.21476,177.02737 552.79792,213.60352 434.13281,213.60352 315.4677,213.60352 178.05086,177.02737 77.019531,40.337891 Z M 290.80078,239.31836 c 43.62414,10.86842 91.34667,16.47393 143.33203,16.47461 51.98587,-6.8e-4 99.7095,-5.60598 143.33399,-16.47461 V 551.76562 H 404.13477 V 940 H 290.80078 Z M 464.13477,611.76562 H 577.4668 V 940 H 464.13477 Z"
     sodipodi:nodetypes="cccccccccscccccccccccccc" />
  <path
     style="baseline-shift:baseline;display:inline;overflow:visible;opacity:1;vector-effect:none;fill:#613583;fill-rule:evenodd;stroke-linecap:round;enable-background:accumulate;stop-color:#000000;stop-opacity:1"
     d="m 434.1335,306.38672 c -70.86336,0 -128.63086,57.7675 -128.63086,128.63086 v 15 h 257.26171 v -15 c 0,-70.86336 -57.7675,-128.63086 -128.63085,-128.63086 z m 0,30 c 49.53388,0 90.18349,36.17225 97.38281,83.63086 H 336.75068 c 7.19932,-47.45861 47.84894,-83.63086 97.38282,-83.63086 z"
     id="path4"
     sodipodi:nodetypes="ssccsssccs" />
</svg>
