<?xml version="1.0" encoding="UTF-8" standalone="no"?>
<svg
   width="1100"
   height="1000"
   version="1.1"
   id="svg1"
   sodipodi:docname="1326B.svg"
   inkscape:version="1.4.2 (f4327f4, 2025-05-13)"
   xmlns:inkscape="http://www.inkscape.org/namespaces/inkscape"
   xmlns:sodipodi="http://sodipodi.sourceforge.net/DTD/sodipodi-0.dtd"
   xmlns="http://www.w3.org/2000/svg"
   xmlns:svg="http://www.w3.org/2000/svg">
  <defs
     id="defs1" />
  <sodipodi:namedview
     id="namedview1"
     pagecolor="#ffffff"
     bordercolor="#666666"
     borderopacity="1.0"
     inkscape:showpageshadow="2"
     inkscape:pageopacity="0.0"
     inkscape:pagecheckerboard="0"
     inkscape:deskcolor="#d1d1d1"
     showguides="true"
     inkscape:zoom="0.3775"
     inkscape:cx="54.304636"
     inkscape:cy="454.30464"
     inkscape:window-width="1680"
     inkscape:window-height="998"
     inkscape:window-x="-8"
     inkscape:window-y="-8"
     inkscape:window-maximized="1"
     inkscape:current-layer="svg1">
    <sodipodi:guide
       position="1061.9112,705.24896"
       orientation="1,0"
       id="guide1"
       inkscape:locked="false" />
    <sodipodi:guide
       position="0,705.24896"
       orientation="0,-1"
       id="guide2"
       inkscape:locked="false" />
    <sodipodi:guide
       position="1072.6777,904.44141"
       orientation="1,0"
       id="guide3"
       inkscape:locked="false" />
    <sodipodi:guide
       position="83.399677,711.49878"
       orientation="0,-1"
       id="guide4"
       inkscape:locked="false" />
    <sodipodi:guide
       position="31.34577,30"
       orientation="0,-1"
       id="guide16"
       inkscape:locked="false" />
  </sodipodi:namedview>
  <path
     id="path1"
     style="fill:#000000;stroke:none;stroke-width:1"
     d="M 75.369141 0 C 34.992303 3.5890523 10.318334 21.086027 1.3457031 52.490234 C 10.318334 79.408126 26.469988 92.418706 49.798828 91.521484 C 32.750829 120.2339 24.226563 150.73954 24.226562 183.04102 C 24.226564 208.16438 35.88991 245.40245 59.21875 294.75195 L 1.3457031 294.75195 L 1.3457031 1000 L 312.24805 1000 L 312.24805 940 L 61.345703 940 L 61.345703 354.75195 L 1001.9121 354.75195 L 1001.9121 940 L 749.66406 940 L 749.66406 1000 L 1061.9121 1000 L 1061.9121 294.75195 L 1034.9941 294.75195 C 1028.7132 286.67655 1024.227 272.31869 1021.5352 251.68164 C 1020.6379 229.25007 1027.5916 207.04351 1042.3965 185.06055 C 1057.2013 163.07762 1067.2941 133.24368 1072.6777 95.558594 C 1072.6777 31.852916 1046.2081 0 993.26953 0 C 952.89269 3.5890523 928.21872 21.086027 919.24609 52.490234 C 928.21872 79.408126 944.37038 92.418706 967.69922 91.521484 C 950.65122 120.2339 942.12695 150.73954 942.12695 183.04102 C 942.12695 208.16438 953.7903 245.40245 977.11914 294.75195 L 882.00977 294.75195 C 875.72889 286.67655 871.24252 272.31869 868.55078 251.68164 C 867.65347 229.25007 874.60725 207.04351 889.41211 185.06055 C 904.21697 163.07762 914.30978 133.24368 919.69336 95.558594 C 919.69336 31.852916 893.22372 0 840.28516 0 C 799.90832 3.5890523 775.23435 21.086027 766.26172 52.490234 C 775.23435 79.408126 791.386 92.418706 814.71484 91.521484 C 797.66684 120.2339 789.14258 150.73954 789.14258 183.04102 C 789.14258 208.16438 800.80593 245.40245 824.13477 294.75195 L 729.02734 294.75195 C 722.74646 286.67655 718.2601 272.31869 715.56836 251.68164 C 714.67105 229.25007 721.62483 207.04351 736.42969 185.06055 C 751.23455 163.07762 761.32736 133.24368 766.71094 95.558594 C 766.71094 31.852916 740.24129 0 687.30273 0 C 646.92589 3.5890523 622.25193 21.086027 613.2793 52.490234 C 622.25193 79.408126 638.40358 92.418706 661.73242 91.521484 C 644.68442 120.2339 636.16016 150.73954 636.16016 183.04102 C 636.16016 208.16438 647.8235 245.40245 671.15234 294.75195 L 576.04297 294.75195 C 569.76209 286.67655 565.27572 272.31869 562.58398 251.68164 C 561.68667 229.25007 568.64045 207.04351 583.44531 185.06055 C 598.25017 163.07762 608.34298 133.24368 613.72656 95.558594 C 613.72656 31.852916 587.25692 0 534.31836 0 C 493.94152 3.5890523 469.26755 21.086027 460.29492 52.490234 C 469.26755 79.408126 485.41921 92.418706 508.74805 91.521484 C 491.70005 120.2339 483.17578 150.73954 483.17578 183.04102 C 483.17578 208.16438 494.83913 245.40245 518.16797 294.75195 L 423.06055 294.75195 C 416.77967 286.67655 412.2933 272.31869 409.60156 251.68164 C 408.70425 229.25007 415.65803 207.04351 430.46289 185.06055 C 445.26775 163.07762 455.36056 133.24368 460.74414 95.558594 C 460.74414 31.852916 434.2745 0 381.33594 0 C 340.9591 3.5890523 316.28513 21.086027 307.3125 52.490234 C 316.28513 79.408126 332.43679 92.418706 355.76562 91.521484 C 338.71762 120.2339 330.19336 150.73954 330.19336 183.04102 C 330.19336 208.16438 341.85671 245.40245 365.18555 294.75195 L 270.07617 294.75195 C 263.79529 286.67655 259.30893 272.31869 256.61719 251.68164 C 255.71988 229.25007 262.67366 207.04351 277.47852 185.06055 C 292.28338 163.07762 302.37619 133.24368 307.75977 95.558594 C 307.75977 31.852916 281.29012 0 228.35156 0 C 187.97472 3.5890523 163.30075 21.086027 154.32812 52.490234 C 163.30076 79.408126 179.45241 92.418706 202.78125 91.521484 C 185.73325 120.2339 177.20898 150.73954 177.20898 183.04102 C 177.20898 208.16438 188.87233 245.40245 212.20117 294.75195 L 117.09375 294.75195 C 110.81287 286.67655 106.32651 272.31869 103.63477 251.68164 C 102.73746 229.25007 109.69123 207.04351 124.49609 185.06055 C 139.30095 163.07762 149.39376 133.24368 154.77734 95.558594 C 154.77734 31.852916 128.3077 0 75.369141 0 z M 75.369141 24.226562 C 111.2597 24.226562 130.10391 48.003651 131.89844 95.558594 C 131.00118 119.78474 121.80329 144.01022 104.30664 168.23633 C 86.809994 192.46243 78.51094 220.27743 79.408203 251.68164 C 80.717724 268.70542 82.504412 281.03413 84.769531 288.50195 L 82.404297 288.50195 C 60.451631 245.66052 51.144531 202.80165 51.144531 183.04102 C 50.247269 140.86965 65.948489 109.91561 98.25 90.175781 L 111.70898 72.677734 C 86.585584 68.191419 65.501124 65.949219 48.453125 65.949219 C 35.891442 67.743745 29.609375 63.257391 29.609375 52.490234 C 30.506638 33.64771 45.759459 24.226562 75.369141 24.226562 z M 228.35156 24.226562 C 264.24212 24.226562 283.08633 48.003651 284.88086 95.558594 C 283.9836 119.78474 274.78571 144.01022 257.28906 168.23633 C 239.79241 192.46243 231.49336 220.27743 232.39062 251.68164 C 233.70014 268.70542 235.48683 281.03413 237.75195 288.50195 L 235.38867 288.50195 C 213.436 245.66052 204.12695 202.80165 204.12695 183.04102 C 203.22969 140.86965 218.93091 109.91561 251.23242 90.175781 L 264.69141 72.677734 C 239.56801 68.191419 218.48354 65.949219 201.43555 65.949219 C 188.87386 67.743745 182.5918 63.257391 182.5918 52.490234 C 183.48906 33.64771 198.74188 24.226563 228.35156 24.226562 z M 381.33594 24.226562 C 417.2265 24.226562 436.0707 48.003651 437.86523 95.558594 C 436.96797 119.78474 427.77009 144.01022 410.27344 168.23633 C 392.77679 192.46243 384.47774 220.27743 385.375 251.68164 C 386.68452 268.70542 388.47121 281.03413 390.73633 288.50195 L 388.37109 288.50195 C 366.41842 245.66052 357.11133 202.80165 357.11133 183.04102 C 356.21407 140.86965 371.91529 109.91561 404.2168 90.175781 L 417.67578 72.677734 C 392.55238 68.191419 371.46792 65.949219 354.41992 65.949219 C 341.85824 67.743745 335.57617 63.257391 335.57617 52.490234 C 336.47344 33.64771 351.72626 24.226563 381.33594 24.226562 z M 534.31836 24.226562 C 570.20892 24.226562 589.05313 48.003651 590.84766 95.558594 C 589.9504 119.78474 580.75251 144.01022 563.25586 168.23633 C 545.75921 192.46243 537.46016 220.27743 538.35742 251.68164 C 539.66694 268.70542 541.45363 281.03413 543.71875 288.50195 L 541.35547 288.50195 C 519.4028 245.66052 510.09375 202.80165 510.09375 183.04102 C 509.19649 140.86965 524.89771 109.91561 557.19922 90.175781 L 570.6582 72.677734 C 545.5348 68.191419 524.45034 65.949219 507.40234 65.949219 C 494.84066 67.743745 488.55859 63.257391 488.55859 52.490234 C 489.45586 33.64771 504.70868 24.226562 534.31836 24.226562 z M 687.30273 24.226562 C 723.19329 24.226562 742.0375 48.003651 743.83203 95.558594 C 742.93477 119.78474 733.73688 144.01022 716.24023 168.23633 C 698.74358 192.46243 690.44454 220.27743 691.3418 251.68164 C 692.65132 268.70542 694.438 281.03413 696.70312 288.50195 L 694.33789 288.50195 C 672.38522 245.66052 663.07813 202.80165 663.07812 183.04102 C 662.18087 140.86965 677.88208 109.91561 710.18359 90.175781 L 723.64258 72.677734 C 698.51918 68.191419 677.43471 65.949219 660.38672 65.949219 C 647.82503 67.743745 641.54297 63.257391 641.54297 52.490234 C 642.44023 33.64771 657.69305 24.226563 687.30273 24.226562 z M 840.28516 24.226562 C 876.17572 24.226562 895.01992 48.003651 896.81445 95.558594 C 895.91719 119.78474 886.71931 144.01022 869.22266 168.23633 C 851.72601 192.46243 843.42696 220.27743 844.32422 251.68164 C 845.63374 268.70542 847.42043 281.03413 849.68555 288.50195 L 847.32227 288.50195 C 825.3696 245.66052 816.06055 202.80165 816.06055 183.04102 C 815.16329 140.86965 830.86451 109.91561 863.16602 90.175781 L 876.625 72.677734 C 851.5016 68.191419 830.41714 65.949219 813.36914 65.949219 C 800.80746 67.743745 794.52539 63.257391 794.52539 52.490234 C 795.42266 33.64771 810.67548 24.226563 840.28516 24.226562 z M 993.26953 24.226562 C 1029.1601 24.226562 1048.0043 48.003651 1049.7988 95.558594 C 1048.9015 119.78474 1039.7037 144.01022 1022.207 168.23633 C 1004.7104 192.46243 996.41133 220.27743 997.30859 251.68164 C 998.61811 268.70542 1000.4048 281.03413 1002.6699 288.50195 L 1000.3047 288.50195 C 978.35206 245.66052 969.04492 202.80165 969.04492 183.04102 C 968.14766 140.86965 983.84884 109.91561 1016.1504 90.175781 L 1029.6094 72.677734 C 1004.486 68.191419 983.40152 65.949219 966.35352 65.949219 C 953.79184 67.743745 947.50977 63.257391 947.50977 52.490234 C 948.40704 33.64771 963.65985 24.226562 993.26953 24.226562 z M 60.564453 32.300781 C 53.386338 32.300781 49.350388 37.685968 48.453125 48.453125 L 91.521484 48.453125 C 78.062518 37.685968 67.742568 32.300781 60.564453 32.300781 z M 213.54688 32.300781 C 206.36876 32.300781 202.33281 37.685968 201.43555 48.453125 L 244.50391 48.453125 C 231.04495 37.685968 220.725 32.300781 213.54688 32.300781 z M 366.53125 32.300781 C 359.35314 32.300781 355.31719 37.685968 354.41992 48.453125 L 397.48828 48.453125 C 384.02932 37.685968 373.70937 32.300781 366.53125 32.300781 z M 519.51367 32.300781 C 512.33556 32.300781 508.29961 37.685968 507.40234 48.453125 L 550.4707 48.453125 C 537.01174 37.685968 526.69179 32.300781 519.51367 32.300781 z M 672.49805 32.300781 C 665.31994 32.300781 661.28398 37.685968 660.38672 48.453125 L 703.45508 48.453125 C 689.99612 37.685968 679.67617 32.300781 672.49805 32.300781 z M 825.48047 32.300781 C 818.30236 32.300781 814.26641 37.685968 813.36914 48.453125 L 856.4375 48.453125 C 842.97854 37.685968 832.65859 32.300781 825.48047 32.300781 z M 978.46484 32.300781 C 971.28673 32.300781 967.25079 37.685968 966.35352 48.453125 L 1009.4219 48.453125 C 995.96296 37.685968 985.64296 32.300781 978.46484 32.300781 z " />
</svg>
