<?xml version="1.0" encoding="UTF-8" standalone="no"?>
<svg
   width="1100"
   height="1000"
   version="1.1"
   id="svg1"
   sodipodi:docname="13282.svg"
   inkscape:version="1.4.2 (f4327f4, 2025-05-13)"
   xml:space="preserve"
   xmlns:inkscape="http://www.inkscape.org/namespaces/inkscape"
   xmlns:sodipodi="http://sodipodi.sourceforge.net/DTD/sodipodi-0.dtd"
   xmlns="http://www.w3.org/2000/svg"
   xmlns:svg="http://www.w3.org/2000/svg"><defs
     id="defs1" /><sodipodi:namedview
     id="namedview1"
     pagecolor="#ffffff"
     bordercolor="#666666"
     borderopacity="1.0"
     inkscape:showpageshadow="2"
     inkscape:pageopacity="0.0"
     inkscape:pagecheckerboard="0"
     inkscape:deskcolor="#d1d1d1"
     inkscape:zoom="0.26693281"
     inkscape:cx="309.06654"
     inkscape:cy="747.37909"
     inkscape:window-width="1680"
     inkscape:window-height="998"
     inkscape:window-x="-8"
     inkscape:window-y="-8"
     inkscape:window-maximized="1"
     inkscape:current-layer="svg1"
     showguides="true"><sodipodi:guide
       position="0,850"
       orientation="0,1"
       id="guide1"
       inkscape:locked="false"
       inkscape:label=""
       inkscape:color="rgb(0,134,229)" /><sodipodi:guide
       position="1080.7963,898.85095"
       orientation="1,0"
       id="guide3"
       inkscape:locked="false" /><sodipodi:guide
       position="0,900"
       orientation="1,0"
       id="guide2"
       inkscape:locked="false" /></sodipodi:namedview><path
     id="path2"
     style="baseline-shift:baseline;display:inline;overflow:visible;vector-effect:none;fill:#000000;enable-background:accumulate;stop-color:#000000;stop-opacity:1;opacity:1"
     d="M 0 150 L 0 180 L 59.226562 180 L 59.226562 970.84766 L 0 970.84766 L 0 1000.8477 L 1019.7363 1000.8477 L 1019.7363 970.84766 L 479.80078 970.84766 L 479.80078 864.10938 L 1019.7363 864.10938 L 1019.7363 834.10938 L 479.80078 834.10938 L 479.80078 727.36914 L 1019.7363 727.36914 L 1019.7363 697.36914 L 479.80078 697.36914 L 479.80078 590.63086 L 1019.7363 590.63086 L 1019.7363 560.63086 L 479.80078 560.63086 L 479.80078 453.89258 L 1019.7363 453.89258 L 1019.7363 423.89258 L 479.80078 423.89258 L 479.80078 317.15234 L 1019.7363 317.15234 L 1019.7363 287.15234 L 479.80078 287.15234 L 479.80078 180 L 1019.7363 180 L 1019.7363 150 L 0 150 z M 89.226562 180 L 189.41797 180 L 189.41797 970.84766 L 89.226562 970.84766 L 89.226562 180 z M 219.41797 180 L 319.60938 180 L 319.60938 423.89258 L 219.41797 423.89258 L 219.41797 180 z M 349.60938 180 L 449.80078 180 L 449.80078 423.89258 L 349.60938 423.89258 L 349.60938 180 z M 219.41797 453.89258 L 319.60938 453.89258 L 319.60938 697.36914 L 219.41797 697.36914 L 219.41797 453.89258 z M 349.60938 453.89258 L 449.80078 453.89258 L 449.80078 697.36914 L 349.60938 697.36914 L 349.60938 453.89258 z M 219.41797 727.36914 L 319.60938 727.36914 L 319.60938 970.84766 L 219.41797 970.84766 L 219.41797 727.36914 z M 349.60938 727.36914 L 449.80078 727.36914 L 449.80078 970.84766 L 349.60938 970.84766 L 349.60938 727.36914 z " /></svg>
