<?xml version="1.0" encoding="UTF-8" standalone="no"?>
<svg
   width="1100"
   height="1000"
   id="svg2383"
   sodipodi:version="0.32"
   inkscape:version="1.4.2 (f4327f4, 2025-05-13)"
   sodipodi:docname="13290.svg"
   inkscape:output_extension="org.inkscape.output.svg.inkscape"
   version="1.1"
   xmlns:inkscape="http://www.inkscape.org/namespaces/inkscape"
   xmlns:sodipodi="http://sodipodi.sourceforge.net/DTD/sodipodi-0.dtd"
   xmlns="http://www.w3.org/2000/svg"
   xmlns:svg="http://www.w3.org/2000/svg"
   xmlns:rdf="http://www.w3.org/1999/02/22-rdf-syntax-ns#"
   xmlns:cc="http://creativecommons.org/ns#"
   xmlns:dc="http://purl.org/dc/elements/1.1/">
  <metadata
     id="metadata2390">
    <rdf:RDF>
      <cc:Work
         rdf:about="">
        <dc:format>image/svg+xml</dc:format>
        <dc:type
           rdf:resource="http://purl.org/dc/dcmitype/StillImage" />
      </cc:Work>
    </rdf:RDF>
  </metadata>
  <defs
     id="defs2388">
    <inkscape:perspective
       sodipodi:type="inkscape:persp3d"
       inkscape:vp_x="0 : 991.0084 : 1"
       inkscape:vp_y="0 : 1000 : 0"
       inkscape:vp_z="13.999863 : 991.0084 : 1"
       inkscape:persp3d-origin="6.9999313 : 988.0112 : 1"
       id="perspective2392" />
  </defs>
  <sodipodi:namedview
     inkscape:window-height="998"
     inkscape:window-width="1680"
     inkscape:pageshadow="2"
     inkscape:pageopacity="0.0"
     guidetolerance="10.0"
     gridtolerance="10.0"
     objecttolerance="10.0"
     borderopacity="1.0"
     bordercolor="#666666"
     pagecolor="#ffffff"
     id="base"
     showgrid="false"
     inkscape:showpageshadow="2"
     inkscape:pagecheckerboard="0"
     inkscape:deskcolor="#d1d1d1"
     inkscape:zoom="0.37749998"
     inkscape:cx="154.9669"
     inkscape:cy="907.28482"
     inkscape:window-x="-8"
     inkscape:window-y="-8"
     inkscape:window-maximized="1"
     inkscape:current-layer="svg2383"
     showguides="true">
    <sodipodi:guide
       position="123.0646,484.30981"
       orientation="0,-1"
       id="guide6"
       inkscape:locked="false" />
  </sodipodi:namedview>
  <path
     id="path1"
     style="baseline-shift:baseline;display:inline;overflow:visible;vector-effect:none;fill:#000000;enable-background:accumulate;stop-color:#000000;stop-opacity:1;opacity:1"
     d="M 123.06445 420.74023 C 103.16716 420.74023 87.018722 434.18894 76.783203 451.5332 C 69.414937 464.01886 64.414307 479.09457 62.191406 495.68945 L 0 495.68945 L 0 535.68945 L 62.191406 535.68945 C 64.414282 552.28506 69.41488 567.3619 76.783203 579.84766 C 83.319925 590.92424 92.268229 600.41155 103.06445 605.82227 L 103.06445 940 L 0 940 L 0 1000 L 1100 1000 L 1100 940 L 996.93555 940 L 996.93555 605.82227 C 1007.7318 600.41155 1016.6801 590.92424 1023.2168 579.84766 C 1030.5851 567.3619 1035.5838 552.28506 1037.8066 535.68945 L 1100 535.68945 L 1100 495.68945 L 1037.8066 495.68945 C 1035.5837 479.09457 1030.585 464.01886 1023.2168 451.5332 C 1012.9813 434.18894 996.83284 420.74023 976.93555 420.74023 C 957.03826 420.74023 940.88982 434.18894 930.6543 451.5332 C 923.28603 464.01886 918.2854 479.09457 916.0625 495.68945 L 824.33984 495.68945 C 822.11694 479.09457 817.11631 464.01886 809.74805 451.5332 C 799.51253 434.18894 783.36409 420.74023 763.4668 420.74023 C 743.56951 420.74023 727.42107 434.18894 717.18555 451.5332 C 709.81728 464.01886 704.8186 479.09457 702.5957 495.68945 L 610.87109 495.68945 C 608.64819 479.09457 603.64952 464.01886 596.28125 451.5332 C 586.04573 434.18894 569.89729 420.74023 550 420.74023 C 530.10271 420.74023 513.95427 434.18894 503.71875 451.5332 C 496.35048 464.01886 491.34985 479.09457 489.12695 495.68945 L 397.4043 495.68945 C 395.1814 479.09457 390.18077 464.01886 382.8125 451.5332 C 372.57698 434.18894 356.42854 420.74023 336.53125 420.74023 C 316.63396 420.74023 300.48552 434.18894 290.25 451.5332 C 282.88173 464.01886 277.88306 479.09457 275.66016 495.68945 L 183.93555 495.68945 C 181.71265 479.09457 176.71397 464.01886 169.3457 451.5332 C 159.11018 434.18894 142.96174 420.74023 123.06445 420.74023 z M 123.06445 450.74023 C 129.22496 450.74023 136.66883 455.1872 143.50977 466.7793 C 147.92354 474.2585 151.52761 484.25217 153.5293 495.68945 L 92.599609 495.68945 C 94.601878 484.25217 98.207324 474.2585 102.62109 466.7793 C 109.46203 455.1872 116.90394 450.74023 123.06445 450.74023 z M 336.53125 450.74023 C 342.69176 450.74023 350.13562 455.1872 356.97656 466.7793 C 361.39034 474.2585 364.9944 484.25217 366.99609 495.68945 L 306.06836 495.68945 C 308.07063 484.25217 311.67412 474.2585 316.08789 466.7793 C 322.92883 455.1872 330.37074 450.74023 336.53125 450.74023 z M 550 450.74023 C 556.16051 450.74023 563.60437 455.1872 570.44531 466.7793 C 574.85909 474.2585 578.46315 484.25217 580.46484 495.68945 L 519.53516 495.68945 C 521.53742 484.25217 525.14287 474.2585 529.55664 466.7793 C 536.39758 455.1872 543.83949 450.74023 550 450.74023 z M 763.4668 450.74023 C 769.62731 450.74023 777.07117 455.1872 783.91211 466.7793 C 788.32588 474.2585 791.92995 484.25217 793.93164 495.68945 L 733.00391 495.68945 C 735.00617 484.25217 738.60967 474.2585 743.02344 466.7793 C 749.86438 455.1872 757.30629 450.74023 763.4668 450.74023 z M 976.93555 450.74023 C 983.09606 450.74023 990.53992 455.1872 997.38086 466.7793 C 1001.7946 474.2585 1005.3987 484.25217 1007.4004 495.68945 L 946.4707 495.68945 C 948.47297 484.25217 952.07842 474.2585 956.49219 466.7793 C 963.33313 455.1872 970.77504 450.74023 976.93555 450.74023 z M 92.599609 535.68945 L 153.5293 535.68945 C 151.52761 547.12674 147.92354 557.1204 143.50977 564.59961 C 136.66883 576.1917 129.22496 580.64064 123.06445 580.64062 C 116.90394 580.64062 109.46203 576.1917 102.62109 564.59961 C 98.207324 557.1204 94.601878 547.12674 92.599609 535.68945 z M 183.93555 535.68945 L 275.66016 535.68945 C 277.88303 552.28506 282.88168 567.3619 290.25 579.84766 C 296.78672 590.92424 305.73503 600.41155 316.53125 605.82227 L 316.53125 940 L 143.06445 940 L 143.06445 605.82227 C 153.86068 600.41155 162.80898 590.92424 169.3457 579.84766 C 176.71403 567.3619 181.71267 552.28506 183.93555 535.68945 z M 306.06836 535.68945 L 366.99609 535.68945 C 364.9944 547.12674 361.39034 557.1204 356.97656 564.59961 C 350.13562 576.1917 342.69176 580.64064 336.53125 580.64062 C 330.37074 580.64062 322.92883 576.1917 316.08789 564.59961 C 311.67412 557.1204 308.07063 547.12674 306.06836 535.68945 z M 397.4043 535.68945 L 489.12695 535.68945 C 491.34983 552.28506 496.35043 567.3619 503.71875 579.84766 C 510.25547 590.92424 519.20378 600.41155 530 605.82227 L 530 940 L 356.53125 940 L 356.53125 605.82227 C 367.32747 600.41155 376.27578 590.92424 382.8125 579.84766 C 390.18082 567.3619 395.18142 552.28506 397.4043 535.68945 z M 519.53516 535.68945 L 580.46484 535.68945 C 578.46315 547.12674 574.85909 557.1204 570.44531 564.59961 C 563.60437 576.1917 556.16051 580.64064 550 580.64062 C 543.83949 580.64062 536.39758 576.1917 529.55664 564.59961 C 525.14287 557.1204 521.53742 547.12674 519.53516 535.68945 z M 610.87109 535.68945 L 702.5957 535.68945 C 704.81858 552.28506 709.81722 567.3619 717.18555 579.84766 C 723.72227 590.92424 732.67057 600.41155 743.4668 605.82227 L 743.4668 940 L 570 940 L 570 605.82227 C 580.79622 600.41155 589.74453 590.92424 596.28125 579.84766 C 603.64957 567.3619 608.64822 552.28506 610.87109 535.68945 z M 733.00391 535.68945 L 793.93164 535.68945 C 791.92995 547.12674 788.32588 557.1204 783.91211 564.59961 C 777.07117 576.1917 769.62731 580.64064 763.4668 580.64062 C 757.30629 580.64062 749.86438 576.1917 743.02344 564.59961 C 738.60967 557.1204 735.00617 547.12674 733.00391 535.68945 z M 824.33984 535.68945 L 916.0625 535.68945 C 918.28538 552.28506 923.28597 567.3619 930.6543 579.84766 C 937.19102 590.92424 946.13932 600.41155 956.93555 605.82227 L 956.93555 940 L 783.4668 940 L 783.4668 605.82227 C 794.26302 600.41155 803.21132 590.92424 809.74805 579.84766 C 817.11637 567.3619 822.11697 552.28506 824.33984 535.68945 z M 946.4707 535.68945 L 1007.4004 535.68945 C 1005.3987 547.12674 1001.7946 557.1204 997.38086 564.59961 C 990.53992 576.1917 983.09606 580.64064 976.93555 580.64062 C 970.77504 580.64062 963.33313 576.1917 956.49219 564.59961 C 952.07842 557.1204 948.47297 547.12674 946.4707 535.68945 z " />
</svg>
