<?xml version="1.0" encoding="UTF-8" standalone="no"?>
<svg
   width="650"
   height="650"
   id="svg1333"
   sodipodi:version="0.32"
   inkscape:version="1.4.2 (f4327f4, 2025-05-13)"
   sodipodi:docname="13296.svg"
   inkscape:output_extension="org.inkscape.output.svg.inkscape"
   version="1.1"
   xmlns:inkscape="http://www.inkscape.org/namespaces/inkscape"
   xmlns:sodipodi="http://sodipodi.sourceforge.net/DTD/sodipodi-0.dtd"
   xmlns="http://www.w3.org/2000/svg"
   xmlns:svg="http://www.w3.org/2000/svg"
   xmlns:rdf="http://www.w3.org/1999/02/22-rdf-syntax-ns#"
   xmlns:cc="http://creativecommons.org/ns#"
   xmlns:dc="http://purl.org/dc/elements/1.1/">
  <metadata
     id="metadata1340">
    <rdf:RDF>
      <cc:Work
         rdf:about="">
        <dc:format>image/svg+xml</dc:format>
        <dc:type
           rdf:resource="http://purl.org/dc/dcmitype/StillImage" />
      </cc:Work>
    </rdf:RDF>
  </metadata>
  <defs
     id="defs1338">
    <inkscape:perspective
       sodipodi:type="inkscape:persp3d"
       inkscape:vp_x="0 : 641.01129 : 1"
       inkscape:vp_y="0 : 1000 : 0"
       inkscape:vp_z="4.882184 : 641.01129 : 1"
       inkscape:persp3d-origin="2.441092 : 638.01506 : 1"
       id="perspective2464" />
  </defs>
  <sodipodi:namedview
     inkscape:window-height="998"
     inkscape:window-width="1680"
     inkscape:pageshadow="2"
     inkscape:pageopacity="0.0"
     borderopacity="1.0"
     bordercolor="#666666"
     pagecolor="#ffffff"
     id="base"
     inkscape:zoom="0.5338656"
     inkscape:cx="373.68956"
     inkscape:cy="349.33886"
     inkscape:window-x="-8"
     inkscape:window-y="-8"
     inkscape:current-layer="svg1333"
     showgrid="false"
     inkscape:showpageshadow="2"
     inkscape:pagecheckerboard="0"
     inkscape:deskcolor="#d1d1d1"
     inkscape:window-maximized="1"
     showguides="true">
    <sodipodi:guide
       position="325,325"
       orientation="1,0"
       id="guide1"
       inkscape:locked="false" />
    <sodipodi:guide
       position="325,325"
       orientation="0,-1"
       id="guide2"
       inkscape:locked="false" />
    <sodipodi:guide
       position="338.41061,390.42414"
       orientation="-0.70710678,-0.70710678"
       id="guide3"
       inkscape:locked="false" />
    <sodipodi:guide
       position="295.36425,373.84105"
       orientation="0.70710678,-0.70710678"
       id="guide4"
       inkscape:locked="false" />
  </sodipodi:namedview>
  <path
     id="path1"
     style="baseline-shift:baseline;display:inline;overflow:visible;vector-effect:none;fill:#000000;fill-rule:evenodd;stroke-miterlimit:2;enable-background:accumulate;stop-color:#000000;stop-opacity:1;opacity:1"
     d="M 325 0 C 145.74435 0 0 145.74435 0 325 C 0 504.25565 145.74435 650 325 650 C 504.25565 650 650 504.25565 650 325 C 650 145.74435 504.25565 0 325 0 z M 325 40 C 376.33802 40 424.465 53.509018 466.02734 77.171875 L 325.01562 217.89453 L 184.17969 77.054688 C 225.69473 53.464874 273.74732 40 325 40 z M 150.25 99.693359 L 324.98438 274.43555 L 499.9375 99.839844 C 518.75861 114.47256 535.68924 131.41637 550.30664 150.25 L 375.56445 324.98438 L 550.16016 499.9375 C 535.52744 518.7586 518.58363 535.68924 499.75 550.30664 L 325.01562 375.56445 L 150.0625 550.16016 C 131.2414 535.52744 114.31076 518.58362 99.693359 499.75 L 274.43555 325.01562 L 99.839844 150.0625 C 114.47256 131.2414 131.41638 114.31076 150.25 99.693359 z M 77.171875 183.97266 L 217.89453 324.98438 L 77.054688 465.82031 C 53.464875 424.30527 40 376.25268 40 325 C 40 273.66198 53.509018 225.535 77.171875 183.97266 z M 572.94531 184.17969 C 596.53513 225.69473 610 273.74732 610 325 C 610 376.33802 596.49098 424.46499 572.82812 466.02734 L 432.10547 325.01562 L 572.94531 184.17969 z M 324.98438 432.10547 L 465.82031 572.94531 C 424.30527 596.53513 376.25268 610 325 610 C 273.66198 610 225.53501 596.49098 183.97266 572.82812 L 324.98438 432.10547 z " />
</svg>
