<?xml version="1.0" encoding="UTF-8" standalone="no"?>
<svg
   width="1250"
   height="1000"
   version="1.1"
   id="svg1"
   sodipodi:docname="1329F.svg"
   xml:space="preserve"
   inkscape:version="1.4.2 (f4327f4, 2025-05-13)"
   xmlns:inkscape="http://www.inkscape.org/namespaces/inkscape"
   xmlns:sodipodi="http://sodipodi.sourceforge.net/DTD/sodipodi-0.dtd"
   xmlns="http://www.w3.org/2000/svg"
   xmlns:svg="http://www.w3.org/2000/svg"><defs
     id="defs1" /><sodipodi:namedview
     id="namedview1"
     pagecolor="#ffffff"
     bordercolor="#666666"
     borderopacity="1.0"
     inkscape:showpageshadow="2"
     inkscape:pageopacity="0.0"
     inkscape:pagecheckerboard="0"
     inkscape:deskcolor="#d1d1d1"
     inkscape:zoom="0.3775"
     inkscape:cx="486.09272"
     inkscape:cy="724.50331"
     inkscape:window-width="1680"
     inkscape:window-height="998"
     inkscape:window-x="-8"
     inkscape:window-y="-8"
     inkscape:window-maximized="1"
     inkscape:current-layer="svg1"
     showguides="true"><sodipodi:guide
       position="590.71475,225.27764"
       orientation="1,0"
       id="guide2"
       inkscape:locked="false" /><sodipodi:guide
       position="1102.4457,253.30714"
       orientation="0.81163231,0.58416863"
       id="guide12"
       inkscape:locked="false" /><sodipodi:guide
       position="1102.4457,773.4654"
       orientation="0,-1"
       id="guide13"
       inkscape:locked="false" /><sodipodi:guide
       position="1102.4457,563.29215"
       orientation="1,0"
       id="guide14"
       inkscape:locked="false" /><sodipodi:guide
       position="1040.5972,773.4654"
       orientation="1,0"
       id="guide15"
       inkscape:locked="false" /></sodipodi:namedview><path
     id="rect2"
     style="baseline-shift:baseline;display:inline;overflow:visible;opacity:1;vector-effect:none;fill:#000000;fill-rule:evenodd;stroke-miterlimit:2;enable-background:accumulate;stop-color:#000000;stop-opacity:1"
     d="M 1026.9375,230.21875 V 484.9668 l 114.7539,107.49414 c -65.2951,75.26403 -182.76902,144.06891 -358.8457,173.44141 v -261.9375 l -6.0332,-5.23242 c -82.45275,-71.51514 -153.72734,-97.76326 -211.5332,-98.53125 -8.25798,-0.10972 -16.24183,0.30128 -23.94336,1.17382 -61.61223,6.98036 -102.78119,42.49254 -122.60742,71.71875 l -3.01954,4.44922 V 765.02149 C 242.43464,733.21876 130.78928,663.63632 110.36133,650.17383 L 73.396484,358.58985 1.1464844,356.46485 V 734.9043 l 5.9609375,4.5 C 72.799857,789.02275 184.2332,844.09017 298.80469,882.28711 H 166.44336 V 1000 H 1014.9863 V 882.28711 H 925.33789 C 1050.0292,833.19876 1178.7448,740.71455 1245.916,582.02344 l 4.0801,-9.63867 -130.9785,-122.68945 V 230.21875 Z m 30,30 h 32.0801 v 202.48243 l 125.0312,117.11914 C 1132.9765,760.8481 965.32646,848.55724 826.04297,882.28711 H 408.5 C 270.04661,850.06739 112.40763,778.90608 31.146484,719.74024 V 387.35938 l 15.714844,0.46289 35.441406,279.56836 5.439454,3.81055 c 0,0 199.573452,139.71289 502.972652,139.71289 302.01444,0 492.71576,-96.45238 583.45706,-210.21289 l 8.6386,-10.83008 -125.873,-117.90821 z M 564.45898,435.17579 c 46.79026,0.44114 107.7858,21.02936 183.38672,84.94335 v 250.99024 c -48.26428,6.33673 -100.6024,9.80469 -157.13086,9.80469 -49.81732,0 -96.62118,-3.80626 -140.00586,-10.13086 v -282.0293 c 15.7065,-20.88844 47.57175,-47.2773 94.56641,-52.60156 6.10572,-0.69175 12.49927,-1.03959 19.18359,-0.97656 z M 196.44336,912.28711 H 984.98633 V 970 H 196.44336 Z"
     sodipodi:nodetypes="ccccccssccccccccccccccscccccccccccccccsscccsccsccssccccc" /></svg>
