<?xml version="1.0" encoding="UTF-8" standalone="no"?>
<svg
   width="800"
   height="800"
   version="1.1"
   id="svg1"
   sodipodi:docname="13299.svg"
   inkscape:version="1.4.2 (f4327f4, 2025-05-13)"
   xmlns:inkscape="http://www.inkscape.org/namespaces/inkscape"
   xmlns:sodipodi="http://sodipodi.sourceforge.net/DTD/sodipodi-0.dtd"
   xmlns="http://www.w3.org/2000/svg"
   xmlns:svg="http://www.w3.org/2000/svg">
  <defs
     id="defs1" />
  <sodipodi:namedview
     id="namedview1"
     pagecolor="#ffffff"
     bordercolor="#666666"
     borderopacity="1.0"
     inkscape:showpageshadow="2"
     inkscape:pageopacity="0.0"
     inkscape:pagecheckerboard="0"
     inkscape:deskcolor="#d1d1d1"
     inkscape:zoom="0.53386562"
     inkscape:cx="73.988657"
     inkscape:cy="609.70399"
     inkscape:window-width="1680"
     inkscape:window-height="998"
     inkscape:window-x="-8"
     inkscape:window-y="-8"
     inkscape:window-maximized="1"
     inkscape:current-layer="svg1"
     showguides="true">
    <sodipodi:guide
       position="0,800"
       orientation="1,0"
       id="guide2"
       inkscape:locked="false" />
    <sodipodi:guide
       position="0,550"
       orientation="0,1"
       id="guide3"
       inkscape:locked="false"
       inkscape:label=""
       inkscape:color="rgb(0,134,229)" />
    <sodipodi:guide
       position="0,0"
       orientation="-0.70710678,0.70710678"
       id="guide4"
       inkscape:locked="false" />
    <sodipodi:guide
       position="275,275"
       orientation="-0.8660254,0.5"
       id="guide5"
       inkscape:locked="false" />
    <sodipodi:guide
       position="275,275"
       orientation="-0.5,0.8660254"
       id="guide6"
       inkscape:label=""
       inkscape:locked="false"
       inkscape:color="rgb(0,134,229)" />
    <sodipodi:guide
       position="-572.85718,-572.85718"
       orientation="-0.73837508,0.67439027"
       id="guide7"
       inkscape:locked="false" />
    <sodipodi:guide
       position="-572.85718,-572.85718"
       orientation="-0.67439027,0.73837508"
       id="guide8"
       inkscape:locked="false" />
  </sodipodi:namedview>
  <path
     id="path3"
     style="baseline-shift:baseline;display:inline;overflow:visible;opacity:1;vector-effect:none;fill:#000000;fill-rule:evenodd;stroke-linecap:round;stroke-miterlimit:2;enable-background:accumulate;stop-color:#000000;stop-opacity:1"
     d="M 150.70704,96.765625 313.41016,274.9082 C 348.2431,258.91884 386.96555,250 427.72852,250 c 151.6118,0 275,123.3882 275,275 0,151.6118 -123.3882,275 -275,275 -151.6118,0 -275,-123.3882 -275,-275 0,-40.88926 8.97576,-79.72592 25.05859,-114.64258 L 0,248.4375 40.4004,204.07812 209.39649,357.99414 c 14.84576,-19.3605 32.20555,-36.69998 51.58398,-51.52344 L 106.4043,137.23047 Z M 427.72852,295 c -127.292,0 -230,102.708 -230,230 0,127.292 102.708,230 230,230 127.292,0 230,-102.708 230,-230 0,-127.292 -102.708,-230 -230,-230 z" />
</svg>
