<?xml version="1.0" encoding="UTF-8" standalone="no"?>
<svg
   width="600"
   height="1000"
   version="1.1"
   id="svg1"
   sodipodi:docname="132AE.svg"
   inkscape:version="1.4.2 (f4327f4, 2025-05-13)"
   xmlns:inkscape="http://www.inkscape.org/namespaces/inkscape"
   xmlns:sodipodi="http://sodipodi.sourceforge.net/DTD/sodipodi-0.dtd"
   xmlns="http://www.w3.org/2000/svg"
   xmlns:svg="http://www.w3.org/2000/svg">
  <defs
     id="defs1" />
  <sodipodi:namedview
     id="namedview1"
     pagecolor="#ffffff"
     bordercolor="#666666"
     borderopacity="1.0"
     inkscape:showpageshadow="2"
     inkscape:pageopacity="0.0"
     inkscape:pagecheckerboard="0"
     inkscape:deskcolor="#d1d1d1"
     inkscape:zoom="0.18875"
     inkscape:cx="-262.25166"
     inkscape:cy="622.51656"
     inkscape:window-width="1680"
     inkscape:window-height="998"
     inkscape:window-x="-8"
     inkscape:window-y="-8"
     inkscape:window-maximized="1"
     inkscape:current-layer="svg1"
     showguides="true">
    <sodipodi:guide
       position="600,1000"
       orientation="0,-1"
       id="guide1"
       inkscape:locked="false" />
    <sodipodi:guide
       position="600,0"
       orientation="0,-1"
       id="guide2"
       inkscape:locked="false" />
    <sodipodi:guide
       position="263.78796,847.55488"
       orientation="0,-1"
       id="guide11"
       inkscape:locked="false" />
    <sodipodi:guide
       position="263.78796,847.55488"
       orientation="0.99466871,-0.10312204"
       id="guide12"
       inkscape:locked="false" />
    <sodipodi:guide
       position="328.07482,847.55488"
       orientation="0.99220886,0.12458562"
       id="guide13"
       inkscape:locked="false" />
  </sodipodi:namedview>
  <path
     id="path1"
     style="fill:#000000;stroke:none;stroke-width:1"
     d="M 162.99023,0 C 122.49282,0 31.223439,14.520796 -0.86914062,140.10156 -20.685861,225.18836 -10.378882,313.75877 -4.6386719,399.92383 1.1270581,504.7053 12.119464,609.28569 14.933594,714.22656 c 1.8686,81.97414 -1.982193,147.91364 -54.189453,251.71094 -4.19936,8.3491 5.425781,17.00391 5.425781,17.00391 0,0 12.687465,2.81057 16.984375,-5.73243 C 34.492457,875.13938 57.574351,823.7652 55.056641,713.3125 51.009741,607.82806 42.506263,502.55546 35.408203,397.24219 26.547003,264.83276 22.866398,209.32674 38.017578,150.03906 61.779578,57.056445 122.17475,40.136719 162.99023,40.136719 c 76.46591,0 105.83045,59.716602 100.79688,112.308591 -3.76618,39.35002 -12.11742,113.15461 -26.30078,221.30274 -17.42677,135.70634 -26.14063,225.80689 -26.14063,270.30078 0,37.07823 9.8251,65.62814 29.47657,85.65039 -15.94364,8.15721 -27.80732,22.80291 -35.59375,43.9375 -13.34816,-5.56173 -25.95528,-15.94245 -37.82032,-31.14453 -12.23581,-15.57286 -22.61848,-23.35938 -31.14648,-23.35938 h -26.13867 v 190.21094 h 26.13867 c 8.528,0 18.91067,-7.60066 31.14648,-22.80273 11.86504,-15.20208 24.47216,-25.58476 37.82032,-31.14649 8.52799,25.2132 24.65664,41.71357 48.38671,49.5 -4.82017,12.6066 -15.01699,25.02785 -30.58984,37.26367 -15.57286,12.6066 -23.35937,23.17318 -23.35937,31.70118 V 1000 h 191.32421 v -26.14062 c 0,-8.52799 -7.97237,-19.09458 -23.91601,-31.70118 -15.57286,-12.23582 -25.58381,-25.02879 -30.0332,-38.37695 23.35929,-8.52799 38.93232,-24.65665 46.71875,-48.38672 12.6066,5.56173 25.21371,15.94441 37.82031,31.14649 12.23581,15.20207 22.61654,22.80273 31.14453,22.80273 h 26.14062 V 719.13281 h -26.14062 c -8.52799,0 -18.90872,7.78652 -31.14453,23.35938 -12.6066,15.20208 -25.21371,25.02717 -37.82031,29.47656 -8.528,-21.13459 -20.20778,-35.22466 -35.03907,-42.26953 20.39303,-17.79755 30.58985,-46.34746 30.58985,-85.65039 0,-44.49389 -8.15823,-134.77835 -24.47266,-270.85547 C 342.17346,265.10388 332.79871,191.57815 328.07422,152.44531 316.61539,57.532149 262.94255,0 162.99023,0 Z m 131.78125,165.74023 c 0.74157,15.57286 8.52809,88.43157 23.35938,218.57618 14.83129,130.14461 22.24805,215.98019 22.24805,257.50781 0,42.26919 -9.82705,68.59466 -29.47852,78.97656 -10.75269,-3.33704 -21.69098,-3.33704 -32.81445,0 -18.90991,-10.3819 -28.36328,-36.70737 -28.36328,-78.97656 0,-41.52762 7.60065,-127.3632 22.80273,-257.50781 14.83129,-130.14461 22.24609,-203.00332 22.24609,-218.57618 z m 0,582.86915 c 41.15684,0 63.03343,21.87658 65.62891,65.6289 -2.59548,43.01075 -24.47207,64.51563 -65.62891,64.51563 -41.52762,0 -63.58811,-21.50488 -66.18359,-64.51563 2.59548,-43.75232 24.65597,-65.6289 66.18359,-65.6289 z m 157.95313,3.89257 V 876.5293 c -3.70782,0 -11.30848,-7.2309 -22.80273,-21.69141 -11.12348,-14.46051 -23.73059,-24.09975 -37.82032,-28.91992 l 1.11328,-11.67969 -1.11328,-11.67969 c 14.08973,-4.44939 26.69685,-13.90472 37.82032,-28.36523 11.49424,-14.46051 19.09491,-21.69141 22.80273,-21.69141 z m -317.57422,1.11328 c 3.70782,0 11.49434,7.04504 23.35938,21.13477 11.86503,14.08973 24.65605,23.3592 38.375,27.80859 l -1.11133,11.67969 1.11133,13.34766 c -13.71895,3.70783 -26.50997,12.79144 -38.375,27.25195 -11.86504,14.46051 -19.65156,21.69141 -23.35938,21.69141 z M 284.20508,912.125 h 10.5664 11.67969 c 4.44939,14.83129 13.90473,27.80817 28.36524,38.93164 14.46051,11.49425 21.6914,19.09492 21.6914,22.80274 H 233.59375 c 0,-3.70782 7.22894,-11.30849 21.68945,-22.80274 14.46051,-11.12347 24.10171,-24.10035 28.92188,-38.93164 z"
     sodipodi:nodetypes="scccscccccsscscccsccsccccsccsccccsccscccscsscssccsccscscscccccccccscccscccccccccc" />
</svg>
