<?xml version="1.0" encoding="UTF-8" standalone="no"?>
<svg
   width="1100"
   height="850"
   version="1.1"
   id="svg1"
   sodipodi:docname="132AB.svg"
   inkscape:version="1.4.2 (f4327f4, 2025-05-13)"
   xmlns:inkscape="http://www.inkscape.org/namespaces/inkscape"
   xmlns:sodipodi="http://sodipodi.sourceforge.net/DTD/sodipodi-0.dtd"
   xmlns="http://www.w3.org/2000/svg"
   xmlns:svg="http://www.w3.org/2000/svg">
  <defs
     id="defs1" />
  <sodipodi:namedview
     id="namedview1"
     pagecolor="#ffffff"
     bordercolor="#666666"
     borderopacity="1.0"
     inkscape:showpageshadow="2"
     inkscape:pageopacity="0.0"
     inkscape:pagecheckerboard="0"
     inkscape:deskcolor="#d1d1d1"
     showguides="true"
     inkscape:zoom="0.44411765"
     inkscape:cx="834.2384"
     inkscape:cy="546.02649"
     inkscape:window-width="1680"
     inkscape:window-height="998"
     inkscape:window-x="-8"
     inkscape:window-y="-8"
     inkscape:window-maximized="1"
     inkscape:current-layer="svg1">
    <sodipodi:guide
       position="550,425"
       orientation="1,0"
       id="guide1"
       inkscape:locked="false" />
    <sodipodi:guide
       position="0,0"
       orientation="0,-1"
       id="guide2"
       inkscape:locked="false" />
  </sodipodi:namedview>
  <path
     id="path2"
     style="baseline-shift:baseline;display:inline;overflow:visible;opacity:1;vector-effect:none;fill:#000000;enable-background:accumulate;stop-color:#000000;stop-opacity:1"
     d="m 98.337891,121.86523 c -13.026934,23.63729 -5.669862,56.32677 19.957029,72.0625 73.78563,45.30669 134.69254,78.60095 189.46485,101.79102 86.10144,36.45457 150.46093,111.00701 150.46093,203.46094 0,48.94498 -16.80179,198.67383 -222.38281,198.67383 -129.46298,0 -235.81054625,17.20224 -235.81054625,132.14062 v 20 H 1099.9727 v -20 c 0,-114.94451 -106.36182,-132.14062 -235.81059,-132.14062 -205.58231,0 -222.38281,-149.73073 -222.38281,-198.67383 0,-92.45393 64.35949,-167.00637 150.46093,-203.46094 C 847.01254,272.52868 907.91945,239.23442 981.70508,193.92773 1007.332,178.192 1014.689,145.50252 1001.6621,121.86523 987.38287,95.955636 954.72964,86.03532 929.11523,100.82031 838.49973,153.12484 676.60315,219.18359 550,219.18359 c -126.60315,0 -288.49973,-66.05875 -379.11523,-118.36328 -25.61495,-14.785309 -58.26794,-4.864086 -72.546879,21.04492 z m 52.550779,13.59766 c 95.56497,55.16144 259.04628,123.7207 399.11133,123.7207 140.06505,0 303.54635,-68.55927 399.11133,-123.7207 5.02501,-2.90051 14.65044,0.50306 17.51953,5.70899 3.73217,6.77199 3.77278,12.75591 -5.85547,18.66796 -72.85989,44.73826 -132.22868,77.07004 -184.13086,99.04493 -97.71974,41.37365 -174.86523,129.29425 -174.86523,240.29492 0,106.97736 62.63567,238.67383 262.38281,238.67383 170.51179,0 190.44419,39.82041 194.65039,72.14062 H 41.1875 c 4.208201,-32.33533 24.165584,-72.14062 194.65039,-72.14062 199.75127,0 262.38281,-131.70117 262.38281,-238.67383 0,-111.00067 -77.14549,-198.92127 -174.86523,-240.29492 -51.90218,-21.97489 -111.27097,-54.30667 -184.13086,-99.04493 -9.62825,-5.91205 -9.58764,-11.89597 -5.85547,-18.66796 2.95523,-5.36223 12.64992,-8.5198 17.51953,-5.70899 z"
     sodipodi:nodetypes="ssssssccssssssszssszssssssccssssss" />
</svg>
