<?xml version="1.0" encoding="UTF-8" standalone="no"?>
<svg
   width="1100"
   height="1000"
   version="1.1"
   id="svg1"
   sodipodi:docname="132CD.svg"
   inkscape:version="1.4.2 (f4327f4, 2025-05-13)"
   xmlns:inkscape="http://www.inkscape.org/namespaces/inkscape"
   xmlns:sodipodi="http://sodipodi.sourceforge.net/DTD/sodipodi-0.dtd"
   xmlns="http://www.w3.org/2000/svg"
   xmlns:svg="http://www.w3.org/2000/svg">
  <defs
     id="defs1" />
  <sodipodi:namedview
     id="namedview1"
     pagecolor="#ffffff"
     bordercolor="#666666"
     borderopacity="1.0"
     inkscape:showpageshadow="2"
     inkscape:pageopacity="0.0"
     inkscape:pagecheckerboard="0"
     inkscape:deskcolor="#d1d1d1"
     inkscape:zoom="0.18875"
     inkscape:cx="1909.9338"
     inkscape:cy="1501.9868"
     inkscape:window-width="1680"
     inkscape:window-height="998"
     inkscape:window-x="-8"
     inkscape:window-y="-8"
     inkscape:window-maximized="1"
     inkscape:current-layer="svg1"
     showguides="true">
    <sodipodi:guide
       position="529.12231,941.48937"
       orientation="1,0"
       id="guide2"
       inkscape:locked="false" />
    <sodipodi:guide
       position="228.05859,225.53125"
       orientation="0,-1"
       id="guide6"
       inkscape:locked="false" />
    <sodipodi:guide
       position="206.71921,679.14633"
       orientation="1,0"
       id="guide7"
       inkscape:locked="false" />
  </sodipodi:namedview>
  <path
     id="path6"
     style="fill:#000000;stroke:none;stroke-width:0.999999"
     d="M 349.33594 0 L 349.33594 58.509766 L 433.37695 58.509766 C 451.10745 167.72964 464.22963 256.38366 472.74023 324.46875 C 405.43988 324.46875 342.14163 203.62849 315.29297 140.42578 C 279.66969 56.567318 239.84979 7.4413347 184.44141 7.4472656 C 101.22438 6.9860281 86.201766 89.530214 84.441406 157.44727 C 84.110633 170.20892 81.605389 205.31882 75.931641 262.76562 L 74.867188 262.76562 C 64.228876 297.51743 43.66051 323.04927 13.164062 339.36133 C 3.2349771 345.7443 2.8817004 351.77348 12.101562 357.44727 C 65.293039 391.48979 119.19281 392.55357 173.80273 360.63867 C 183.02259 354.96492 183.02259 348.9357 173.80273 342.55273 C 144.72473 324.82223 124.5116 298.22666 113.16406 262.76562 C 107.49032 205.31884 107.30315 170.37792 107.8457 157.44727 C 111.5632 68.847199 132.89065 29.787109 186.56836 29.787109 C 250.50308 32.396071 270.46813 103.19549 294.01562 151.06445 C 332.35523 226.24811 366.40331 307.46992 447.20703 345.74414 L 447.20703 375.53125 C 273.74041 426.48946 263.17591 629.09748 243.95312 774.46875 L 232.25 804.25586 L 218.42188 774.46875 L 218.42188 320.85352 C 218.11338 306.96223 220.85684 292.78378 228.1582 285.48242 C 244.7645 268.87612 255.64786 249.44674 259.47852 225.82422 C 263.02442 213.7675 270.47261 201.35578 281.82031 188.58984 C 289.62171 180.78839 290.33017 175.46966 283.94727 172.63281 C 270.47197 170.50514 256.99658 170.86038 243.52148 173.69727 C 230.04628 138.23626 217.98986 121.21436 207.35156 122.63281 C 207.1415 122.56821 206.93066 122.514 206.71875 122.4707 C 206.50684 122.514 206.296 122.5682 206.08594 122.63281 C 195.44764 121.21436 183.39122 138.23626 169.91602 173.69727 C 156.44092 170.86038 142.96553 170.50514 129.49023 172.63281 C 123.10733 175.46966 123.81579 180.78839 131.61719 188.58984 C 142.96489 201.35578 150.41308 213.7675 153.95898 225.82422 C 157.78964 249.44674 168.673 268.87612 185.2793 285.48242 C 192.58066 292.78378 195.32606 306.96223 195.01758 320.85352 L 195.01758 774.46875 L 183.31445 804.25586 L 169.48438 774.46875 C 165.37231 720.04904 141.48577 667.73742 137.23047 649.65234 C 132.97513 631.56723 130.18555 626.95073 130.18555 610.63867 C 128.05787 575.88693 137.98681 545.0363 159.97266 518.08594 C 167.06485 509.5753 165.29261 504.25463 154.6543 502.12695 C 146.94153 500.70852 139.407 499.76619 132.04883 499.30078 C 80.541617 496.0429 37.721045 516.13449 3.5898438 559.57422 C -2.7931646 568.79408 -0.6656536 574.46807 9.9726562 576.5957 C 44.724442 581.56026 73.449503 598.58216 96.144531 627.66016 C 125.10864 668.52611 138.14352 724.95106 146.08008 775.53125 C 124.09427 797.5171 106.36384 871.9852 92.888672 998.93555 L 323.74023 998.93555 C 309.55585 871.9852 290.76167 797.16382 267.35742 774.46875 C 297.2097 475.94707 355.24936 447.09052 447.20703 398.93555 L 479.12305 397.87305 L 492.95117 630.85156 C 497.20647 655.67426 495.78946 668.08594 488.69727 668.08594 C 445.43484 648.93699 408.55504 653.90052 378.05859 682.97852 C 358.90968 706.38277 359.97341 750.35552 381.25 814.89453 C 402.52662 879.43354 422.56115 926.41893 441.35547 955.85156 C 460.14975 985.28419 489.05147 1000 528.05859 1000 C 528.41417 1000 528.76928 1000 529.12305 999.99805 C 529.47682 1000 529.83192 1000 530.1875 1000 C 569.19462 1000 598.09634 985.28419 616.89062 955.85156 C 635.68494 926.41893 655.71947 879.43354 676.99609 814.89453 C 698.27268 750.35552 699.33641 706.38277 680.1875 682.97852 C 649.69105 653.90052 612.81126 648.93699 569.54883 668.08594 C 562.45664 668.08594 561.03962 655.67426 565.29492 630.85156 L 579.12305 397.87305 L 611.03906 398.93555 C 702.99673 447.09052 761.03639 475.94707 790.88867 774.46875 C 767.48442 797.16382 748.69024 871.9852 734.50586 998.93555 L 965.35742 998.93555 C 951.88225 871.9852 934.15183 797.5171 912.16602 775.53125 C 920.10258 724.95106 933.13745 668.52611 962.10156 627.66016 C 984.79659 598.58216 1013.5217 581.56026 1048.2734 576.5957 C 1058.9118 574.46807 1061.0393 568.79408 1054.6562 559.57422 C 1020.525 516.13449 977.70448 496.0429 926.19727 499.30078 C 918.8391 499.76619 911.30457 500.70852 903.5918 502.12695 C 892.95349 504.25463 891.18125 509.5753 898.27344 518.08594 C 920.25929 545.0363 930.18823 575.88693 928.06055 610.63867 C 928.06055 626.95073 925.27097 631.56723 921.01562 649.65234 C 916.76032 667.73742 892.87378 720.04904 888.76172 774.46875 L 874.93164 804.25586 L 863.22852 774.46875 L 863.22852 320.85352 C 862.92004 306.96223 865.66544 292.78378 872.9668 285.48242 C 889.5731 268.87612 900.45645 249.44674 904.28711 225.82422 C 907.83301 213.7675 915.28121 201.35578 926.62891 188.58984 C 934.43031 180.78839 935.13876 175.46966 928.75586 172.63281 C 915.28056 170.50514 901.80518 170.86038 888.33008 173.69727 C 874.85488 138.23626 862.79846 121.21436 852.16016 122.63281 C 851.9501 122.5682 851.73925 122.514 851.52734 122.4707 C 851.31543 122.514 851.10459 122.56821 850.89453 122.63281 C 840.25623 121.21436 828.19981 138.23626 814.72461 173.69727 C 801.24951 170.86038 787.77413 170.50514 774.29883 172.63281 C 767.91593 175.46966 768.62438 180.78839 776.42578 188.58984 C 787.77348 201.35578 795.22168 213.7675 798.76758 225.82422 C 802.59824 249.44674 813.48159 268.87612 830.08789 285.48242 C 837.38925 292.78378 840.13271 306.96223 839.82422 320.85352 L 839.82422 774.46875 L 825.99609 804.25586 L 814.29297 774.46875 C 795.07018 629.09748 784.50568 426.48946 611.03906 375.53125 L 611.03906 345.74414 C 691.84278 307.46992 725.89086 226.24811 764.23047 151.06445 C 787.77796 103.19549 807.74301 32.396071 871.67773 29.787109 C 925.35544 29.787109 946.68289 68.847199 950.40039 157.44727 C 950.94294 170.37792 950.75577 205.31884 945.08203 262.76562 C 933.73449 298.22666 913.52136 324.82223 884.44336 342.55273 C 875.2235 348.9357 875.2235 354.96492 884.44336 360.63867 C 939.05328 392.55357 992.95309 391.48979 1046.1445 357.44727 C 1055.3644 351.77348 1055.0111 345.7443 1045.082 339.36133 C 1014.5856 323.04927 994.01722 297.51743 983.37891 262.76562 L 982.31445 262.76562 C 976.6407 205.31882 974.13547 170.20892 973.80469 157.44727 C 972.04433 89.530214 957.02172 6.9860281 873.80469 7.4472656 C 818.39631 7.4413347 778.57641 56.567318 742.95312 140.42578 C 716.10446 203.62849 652.80621 324.46875 585.50586 324.46875 C 594.01646 256.38366 607.13864 167.72964 624.86914 58.509766 L 708.91016 58.509766 L 708.91016 0 L 529.12305 0 L 349.33594 0 z M 484.44141 58.509766 L 529.12305 58.509766 L 573.80469 58.509766 C 565.04015 206.88091 551.3726 310.55664 529.12305 310.55664 C 506.8735 310.55664 493.20595 206.88091 484.44141 58.509766 z M 206.08594 141.78125 C 206.29824 141.97425 206.50908 142.17254 206.71875 142.375 C 206.92842 142.17254 207.13926 141.97425 207.35156 141.78125 C 217.98986 152.41956 224.3723 165.89498 226.5 182.20703 C 220.8262 188.59 214.44386 196.74669 207.35156 206.67578 C 207.19602 205.58692 206.98518 204.51887 206.71875 203.47266 C 206.45232 204.51887 206.24148 205.58692 206.08594 206.67578 C 198.99364 196.74669 192.6113 188.59 186.9375 182.20703 C 189.0652 165.89498 195.44764 152.41956 206.08594 141.78125 z M 850.89453 141.78125 C 851.10683 141.97425 851.31767 142.17254 851.52734 142.375 C 851.73701 142.17254 851.94786 141.97425 852.16016 141.78125 C 862.79846 152.41956 869.18089 165.89498 871.30859 182.20703 C 865.63479 188.59 859.25246 196.74669 852.16016 206.67578 C 852.00462 205.58692 851.79377 204.51887 851.52734 203.47266 C 851.26091 204.51887 851.05007 205.58692 850.89453 206.67578 C 843.80223 196.74669 837.41989 188.59 831.74609 182.20703 C 833.87379 165.89498 840.25623 152.41956 850.89453 141.78125 z M 155.02148 190.7168 C 169.91497 193.55373 181.26309 201.71045 189.06445 215.18555 C 192.61055 230.07916 197.22073 237.52539 202.89453 237.52539 C 204.26213 237.69634 205.53658 237.63107 206.71875 237.32812 C 207.90092 237.63107 209.17537 237.69634 210.54297 237.52539 C 216.21677 237.52539 220.82695 230.07916 224.37305 215.18555 C 232.17441 201.71045 243.52253 193.55373 258.41602 190.7168 C 247.06852 206.31964 240.68402 221.56928 239.26562 236.46289 C 232.94438 253.31969 220.72985 276.05837 206.71875 276.05859 C 192.70765 276.05837 180.49313 253.31969 174.17188 236.46289 C 172.75348 221.56928 166.36898 206.31964 155.02148 190.7168 z M 799.83008 190.7168 C 814.72357 193.55373 826.07169 201.71045 833.87305 215.18555 C 837.41915 230.07916 842.02932 237.52539 847.70312 237.52539 C 849.07072 237.69634 850.34517 237.63107 851.52734 237.32812 C 852.70951 237.63107 853.98396 237.69634 855.35156 237.52539 C 861.02536 237.52539 865.63554 230.07916 869.18164 215.18555 C 876.983 201.71045 888.33112 193.55373 903.22461 190.7168 C 891.87711 206.31964 885.49262 221.56928 884.07422 236.46289 C 877.75297 253.31969 865.53844 276.05837 851.52734 276.05859 C 837.51624 276.05837 825.30172 253.31969 818.98047 236.46289 C 817.56207 221.56928 811.17758 206.31964 799.83008 190.7168 z M 91.888672 275.53125 L 99.335938 276.5957 C 109.26499 307.80138 126.28496 331.91427 150.39844 348.93555 C 153.94455 350.35399 154.29978 351.41773 151.46289 352.12695 C 112.4558 370.56665 73.803723 370.21337 35.505859 351.06445 C 32.668967 349.64601 32.668967 348.22704 35.505859 346.80859 C 61.037781 330.49653 79.831953 306.73692 91.888672 275.53125 z M 966.35742 275.53125 C 978.41414 306.73692 997.20835 330.49653 1022.7402 346.80859 C 1025.5771 348.22704 1025.5771 349.64601 1022.7402 351.06445 C 984.44241 370.21337 945.79029 370.56665 906.7832 352.12695 C 903.94631 351.41773 904.30155 350.35399 907.84766 348.93555 C 931.96114 331.91427 948.98111 307.80138 958.91016 276.5957 L 966.35742 275.53125 z M 515.29297 324.46875 L 529.12305 324.99219 L 542.95312 324.46875 L 542.95312 332.97852 C 538.77926 340.36308 534.16902 346.0042 529.12305 349.90039 C 524.07708 346.0042 519.46684 340.36308 515.29297 332.97852 L 515.29297 324.46875 z M 509.97266 360.63867 C 517.03804 360.63867 523.4225 362.88076 529.12305 367.36523 C 534.8236 362.88076 541.20806 360.63867 548.27344 360.63867 C 548.27344 379.0647 541.88898 389.51183 529.12305 391.98047 C 516.35712 389.51183 509.97266 379.0647 509.97266 360.63867 z M 512.10156 421.27734 L 529.12305 421.27734 L 546.14453 421.27734 L 538.69727 668.08594 L 529.12305 668.08594 L 519.54883 668.08594 L 512.10156 421.27734 z M 119.86328 516.50586 C 124.97188 516.40616 130.18671 516.57826 135.50586 517.02148 C 139.05194 517.02148 139.76049 518.08522 137.63281 520.21289 C 120.61157 545.03559 112.10156 573.75874 112.10156 606.38281 L 104.6543 609.57422 C 84.086925 584.04233 58.910308 568.0861 29.123047 561.70312 C 25.576968 561.70313 25.221701 560.63762 28.058594 558.50977 C 53.501844 531.20477 84.103082 517.20399 119.86328 516.50586 z M 938.38281 516.50586 C 974.14301 517.20399 1004.7443 531.20477 1030.1875 558.50977 C 1033.0244 560.63762 1032.669 561.70313 1029.123 561.70312 C 999.33574 568.08611 974.15917 584.04233 953.5918 609.57422 L 946.14453 606.38281 C 946.14453 573.75874 937.63452 545.03559 920.61328 520.21289 C 918.4856 518.08522 919.19415 517.02148 922.74023 517.02148 C 928.05938 516.57826 933.27421 516.40616 938.38281 516.50586 z M 465.42578 698.60352 C 478.45769 697.76132 493.66123 697.87171 511.03711 698.93555 L 511.03711 945.74414 C 511.74634 955.67315 507.84658 960.63867 499.33594 960.63867 C 479.00326 960.63867 406.78125 858.64956 406.78125 731.91406 C 406.78125 712.23321 426.33004 701.1301 465.42578 698.60352 z M 592.82031 698.60352 C 631.91605 701.1301 651.46484 712.23321 651.46484 731.91406 C 651.46484 858.64956 579.24284 960.63867 558.91016 960.63867 C 550.39952 960.63867 546.49975 955.67315 547.20898 945.74414 L 547.20898 698.93555 C 564.58486 697.87171 579.7884 697.76132 592.82031 698.60352 z M 175.86719 824.46875 C 197.14377 824.46875 207.7832 836.52519 207.7832 860.63867 C 207.7832 836.52519 218.42069 824.46875 239.69727 824.46875 C 270.90298 824.46875 286.50586 870.21187 286.50586 961.70117 L 130.12305 961.70117 C 130.12305 870.21187 145.3707 824.46875 175.86719 824.46875 z M 818.54883 824.46875 C 839.82541 824.46875 850.46289 836.52519 850.46289 860.63867 C 850.46289 836.52519 861.10233 824.46875 882.37891 824.46875 C 912.8754 824.46875 928.12305 870.21187 928.12305 961.70117 L 771.74023 961.70117 C 771.74023 870.21187 787.34312 824.46875 818.54883 824.46875 z " />
</svg>
