<?xml version="1.0" encoding="UTF-8" standalone="no"?>
<svg
   width="1100"
   height="1000"
   id="svg2673"
   sodipodi:version="0.32"
   inkscape:version="1.4.2 (f4327f4, 2025-05-13)"
   sodipodi:docname="132E2.svg"
   inkscape:output_extension="org.inkscape.output.svg.inkscape"
   sodipodi:modified="true"
   version="1.1"
   xmlns:inkscape="http://www.inkscape.org/namespaces/inkscape"
   xmlns:sodipodi="http://sodipodi.sourceforge.net/DTD/sodipodi-0.dtd"
   xmlns="http://www.w3.org/2000/svg"
   xmlns:svg="http://www.w3.org/2000/svg"
   xmlns:rdf="http://www.w3.org/1999/02/22-rdf-syntax-ns#"
   xmlns:cc="http://creativecommons.org/ns#"
   xmlns:dc="http://purl.org/dc/elements/1.1/">
  <metadata
     id="metadata2680">
    <rdf:RDF>
      <cc:Work
         rdf:about="">
        <dc:format>image/svg+xml</dc:format>
        <dc:type
           rdf:resource="http://purl.org/dc/dcmitype/StillImage" />
        <cc:license
           rdf:resource="http://creativecommons.org/licenses/GPL/2.0/" />
        <dc:creator>
          <cc:Agent>
            <dc:title>Serge THOMAS</dc:title>
          </cc:Agent>
        </dc:creator>
        <dc:publisher>
          <cc:Agent>
            <dc:title>Serge ROSMORDUC</dc:title>
          </cc:Agent>
        </dc:publisher>
        <dc:description>création du signe S14A à partir d'éléments de signes VERK
phon : Dam.</dc:description>
      </cc:Work>
      <cc:License
         rdf:about="http://creativecommons.org/licenses/GPL/2.0/">
        <cc:permits
           rdf:resource="http://web.resource.org/cc/Reproduction" />
        <cc:permits
           rdf:resource="http://web.resource.org/cc/Distribution" />
        <cc:requires
           rdf:resource="http://web.resource.org/cc/Notice" />
        <cc:permits
           rdf:resource="http://web.resource.org/cc/DerivativeWorks" />
        <cc:requires
           rdf:resource="http://web.resource.org/cc/ShareAlike" />
        <cc:requires
           rdf:resource="http://web.resource.org/cc/SourceCode" />
      </cc:License>
    </rdf:RDF>
  </metadata>
  <defs
     id="defs2678" />
  <sodipodi:namedview
     inkscape:window-height="998"
     inkscape:window-width="1680"
     inkscape:pageshadow="2"
     inkscape:pageopacity="0.0"
     guidetolerance="10.0"
     gridtolerance="10.0"
     objecttolerance="10.0"
     borderopacity="1.0"
     bordercolor="#666666"
     pagecolor="#ffffff"
     id="base"
     inkscape:showpageshadow="2"
     inkscape:pagecheckerboard="0"
     inkscape:deskcolor="#d1d1d1"
     showguides="true"
     inkscape:zoom="1.51"
     inkscape:cx="228.1457"
     inkscape:cy="408.9404"
     inkscape:window-x="-8"
     inkscape:window-y="-8"
     inkscape:window-maximized="1"
     inkscape:current-layer="svg2673">
    <sodipodi:guide
       position="750,850.33113"
       orientation="-1,0"
       id="guide1"
       inkscape:locked="false"
       inkscape:label=""
       inkscape:color="rgb(0,134,229)" />
    <sodipodi:guide
       position="1345.7031,603.17188"
       orientation="0,-1"
       id="guide5"
       inkscape:locked="false" />
    <sodipodi:guide
       position="1398.1504,801.58594"
       orientation="1,0"
       id="guide6"
       inkscape:locked="false" />
    <sodipodi:guide
       position="375,205.40245"
       orientation="1,0"
       id="guide7"
       inkscape:locked="false" />
  </sodipodi:namedview>
  <path
     id="path5"
     style="fill:#000000;stroke:none;stroke-width:1"
     d="m 408.52148,0 c -39.864,26.576059 -62.81556,44.997578 -68.85546,55.265625 -6.0401,10.268014 -14.04377,20.234409 -24.00977,29.898437 -9.9659,9.664035 -23.85768,36.089298 -41.67578,79.275388 -17.818,43.1861 -32.16306,79.57776 -43.03516,109.17383 0,8.45603 5.73885,12.6836 17.21485,12.6836 11.4761,0 19.93118,-7.39925 25.36718,-22.19727 5.436,-14.79805 13.59089,-32.9173 24.46289,-54.35938 10.872,-21.44203 23.55469,-32.16406 38.05079,-32.16406 13.8919,0 20.53759,7.24811 19.93359,21.74414 v 236.59571 c -21.744,16.30804 -33.97536,35.63637 -36.69336,57.98437 -2.718,22.34808 1.05537,42.23314 8.51367,62.93555 7.69063,21.34727 14.8433,31.28906 20.2793,31.28906 11.61181,0 16.24609,-5.76963 16.24609,-13.56055 -9.83712,-24.25847 -12.94213,-45.02632 -12.87695,-62.54297 0.0944,-25.36332 7.85264,-38.05273 23.55664,-38.05273 15.704,0 23.46224,12.68941 23.55664,38.05273 0.0652,17.51665 -3.03983,38.2845 -12.87695,62.54297 0,7.79092 4.63428,13.56055 16.24609,13.56055 5.436,0 12.58867,-9.94179 20.2793,-31.28906 7.4583,-20.70241 11.23167,-40.58747 8.51367,-62.93555 -2.718,-22.348 -14.94936,-41.67633 -36.69336,-57.98437 V 198.41406 c 0,-38.65612 -12.68268,-57.98437 -38.05078,-57.98437 -4.228,-4.22802 -7.5508,-11.17389 -9.9668,-20.83789 1.812,-27.180087 27.48167,-61.004554 77.00977,-101.472659 C 426.03758,8.4551094 421.20558,2.4159996 408.52148,0 Z"
     sodipodi:nodetypes="cccccssssccssscssscssscscccc" />
  <path
     style="fill:#000000;stroke:none;stroke-width:1"
     d="m 1344.7617,689.875 c -0.1679,0.006 -0.4212,0.0243 -0.7773,0.0547 0.1812,0.10572 0.353,0.20322 0.4765,0.2539 0.3165,-0.13444 0.5372,-0.22264 0.5664,-0.26953 2e-4,-4e-4 0,-0.003 0,-0.004 h 0 v -0.002 -0.002 -0.002 -0.002 -0.002 -0.002 h -0 v -0.002 l -0,-0.002 -0,-0.002 c -0.026,-0.0159 -0.1115,-0.023 -0.2637,-0.0176 z"
     id="path4" />
  <path
     id="path2675-4"
     style="fill:#000000;stroke:none;stroke-width:1"
     d="M 177.33265,589.20721 C 59.11119,589.94957 9.9999997e-7,640.06067 9.9999997e-7,739.53746 V 1000 H 79.751422 L 61.933597,752.26296 c -1.696813,-38.46159 11.029847,-60.0969 38.179153,-64.90457 27.14929,-4.8077 57.97465,6.08095 92.47692,32.6647 -33.93665,23.19 -55.14601,44.96605 -63.63015,65.32803 -6.78735,19.79635 -1.97933,34.78437 14.42338,44.96537 28.85598,18.55024 49.74197,-9.67165 53.79039,-15.7697 -0.86907,2.7678 -1.54828,5.47832 -2.03746,8.13387 -2.82806,20.36197 4.52396,34.21929 22.05789,41.57227 30.2605,10.40199 44.7955,-14.32587 47.8591,-20.43723 -0.83828,7.90545 -1.63458,36.10427 28.49921,42.49644 30.82725,6.53911 41.40555,-20.27739 43.93333,-28.69628 0.38914,8.20072 4.06058,39.72523 37.51464,39.72523 33.45407,0 37.1255,-31.52451 37.51464,-39.72523 2.52779,8.41889 13.10609,35.23539 43.93334,28.69628 30.13379,-6.39217 29.33749,-34.59099 28.4992,-42.49644 3.0636,6.11136 17.59861,30.83922 47.85911,20.43723 17.53393,-7.35298 24.88594,-21.2103 22.05789,-41.57227 -0.48918,-2.65555 -1.16839,-5.36607 -2.03747,-8.13387 4.04842,6.09805 24.93441,34.31994 53.79039,15.7697 16.40271,-10.181 21.21074,-25.16902 14.42339,-44.96537 -8.48414,-20.36198 -29.69351,-42.13803 -63.63015,-65.32803 34.50226,-26.58375 65.32762,-37.4724 92.47691,-32.6647 27.14931,4.80767 39.87602,26.44298 38.17918,64.90457 L 670.24858,1000 H 750 V 739.53746 c 0,-99.47679 -59.11117,-149.58789 -177.33265,-150.33025 -16.88877,-0.10605 -35.01925,0.45909 -54.28445,2.70463 -20.36106,2.37327 -95.50101,6.78622 -143.3829,6.78622 -47.88189,0 -123.02184,-4.41295 -143.3829,-6.78622 -19.2652,-2.24554 -37.39567,-2.81068 -54.28445,-2.70463 z m -10.24725,23.01402 c 13.75141,-0.24746 28.47468,0.33448 44.17037,1.7485 l -29.69371,75.51003 c -30.54298,-15.27153 -54.30032,-22.90616 -71.26864,-22.90616 -65.985771,0 -69.569428,71.09291 -69.569428,86.53763 7.918555,113.68777 12.726552,188.34781 14.42338,223.98128 H 22.907497 L 21.210942,739.53746 C 22.200751,656.3927 70.825542,613.95344 167.0854,612.22123 Z m 415.8292,0 c 96.25986,1.73221 144.88465,44.17147 145.87445,127.31623 l -1.69657,237.55505 h -32.23984 c 1.69684,-35.63347 6.50482,-110.29351 14.42338,-223.98128 0,-15.44472 -3.58369,-86.53763 -69.56943,-86.53763 -16.96833,0 -40.72566,7.63463 -71.26864,22.90616 l -29.69372,-75.51003 c 15.6957,-1.41402 30.41897,-1.99596 44.17037,-1.7485 z m -352.99406,2.5981 c 48.43065,7.93016 96.79064,11.89018 145.07946,11.87855 48.28883,0.0116 96.64882,-3.94839 145.07946,-11.87855 l 30.54332,83.14453 C 499.71781,729.63806 441.17648,748.30341 375,753.95951 308.82353,748.30341 250.28219,729.63806 199.37722,697.96386 Z m -8.4841,121.32235 c 7.91852,4.52487 15.55452,8.20221 22.90749,11.03028 -15.20115,15.20117 -26.94745,29.38117 -35.23749,42.5404 5.14552,-14.4735 9.25582,-32.33085 12.33,-53.57068 z m 307.12713,0 c 3.07417,21.23983 7.18447,39.09718 12.32999,53.57068 -8.29004,-13.15923 -20.03633,-27.33923 -35.23748,-42.5404 7.35297,-2.82807 14.98897,-6.50541 22.90749,-11.03028 z m -329.18635,5.93928 c -6.22171,29.97732 -12.72574,50.05736 -19.51305,60.23837 -7.91855,12.4435 -16.40255,15.83673 -25.45232,10.18067 -8.48415,-6.22173 -9.0495,-14.98839 -1.69656,-26.30061 6.78733,-11.31221 22.34069,-26.0189 46.66193,-44.11843 z m 351.24556,0 c 24.32125,18.09953 39.8746,32.80622 46.66194,44.11843 7.35293,11.31222 6.78759,20.07888 -1.69656,26.30061 -9.04977,5.65606 -17.53377,2.26283 -25.45233,-10.18067 -6.78731,-10.18101 -13.29133,-30.26105 -19.51305,-60.23837 z m -274.03897,16.96955 24.60405,6.78622 c -11.74466,16.7781 -20.65433,32.03578 -26.73074,45.77238 2.24212,-14.72052 2.95043,-32.23953 2.12669,-52.5586 z m 196.83239,0 c -0.82375,20.31907 -0.11544,37.83808 2.12668,52.5586 -6.0764,-13.7366 -14.98607,-28.99428 -26.73073,-45.77238 z m -218.042,7.6345 c 0,29.97742 -2.54663,51.18806 -7.63715,63.63148 -5.09048,13.00922 -12.4425,17.81713 -22.0579,14.42339 -10.18096,-4.52487 -12.44363,-13.2929 -6.78754,-26.30194 4.52487,-11.8778 16.6862,-29.12846 36.48259,-51.75293 z m 239.2516,0 c 19.7964,22.62447 31.95772,39.87513 36.48259,51.75293 5.6561,13.00904 3.39342,21.77707 -6.78754,26.30194 -9.6154,3.39374 -16.96742,-1.41417 -22.05789,-14.42339 -5.09053,-12.44342 -7.63716,-33.65406 -7.63716,-63.63148 z m -159.50151,6.78889 22.90616,4.24138 c -7.64356,17.07061 -13.16235,32.47756 -16.55939,46.21982 -0.20683,-14.59372 -2.32274,-31.41407 -6.34677,-50.4612 z m 79.75143,0 c -4.02404,19.04713 -6.13995,35.86748 -6.34677,50.4612 -3.39705,-13.74226 -8.91584,-29.14921 -16.5594,-46.21982 z m -100.11409,10.17934 c 4.52491,29.97739 5.37424,51.18806 2.54617,63.63147 -2.26244,14.14047 -8.76643,20.08032 -19.51305,17.81782 -10.18099,-2.26246 -13.5757,-10.4638 -10.182,-24.60405 2.26245,-11.87782 11.3118,-30.82712 27.14888,-56.84524 z m 120.47674,0 c 15.83708,26.01812 24.88644,44.96742 27.14888,56.84524 3.3937,14.14025 -6.8e-4,22.34159 -10.18199,24.60405 -10.74663,2.2625 -17.25062,-3.67735 -19.51306,-17.81782 -2.82807,-12.44341 -1.97873,-33.65408 2.54617,-63.63147 z M 375,792.13867 c 10.74663,28.28054 16.11995,48.92456 16.11995,61.9336 0,14.14029 -5.37332,21.21093 -16.11995,21.21093 -10.74663,0 -16.11994,-7.07064 -16.11994,-21.21093 0,-13.00904 5.37331,-33.65306 16.11994,-61.9336 z" />
</svg>
