<?xml version="1.0" encoding="UTF-8" standalone="no"?>
<svg
   width="1100"
   height="1000"
   version="1.1"
   id="svg1"
   sodipodi:docname="132F5.svg"
   inkscape:version="1.4.2 (f4327f4, 2025-05-13)"
   xml:space="preserve"
   xmlns:inkscape="http://www.inkscape.org/namespaces/inkscape"
   xmlns:sodipodi="http://sodipodi.sourceforge.net/DTD/sodipodi-0.dtd"
   xmlns="http://www.w3.org/2000/svg"
   xmlns:svg="http://www.w3.org/2000/svg"><defs
     id="defs1" /><sodipodi:namedview
     id="namedview1"
     pagecolor="#ffffff"
     bordercolor="#666666"
     borderopacity="1.0"
     inkscape:showpageshadow="2"
     inkscape:pageopacity="0.0"
     inkscape:pagecheckerboard="0"
     inkscape:deskcolor="#d1d1d1"
     showguides="true"
     inkscape:zoom="0.3775"
     inkscape:cx="862.25166"
     inkscape:cy="790.72848"
     inkscape:window-width="1680"
     inkscape:window-height="998"
     inkscape:window-x="-8"
     inkscape:window-y="-8"
     inkscape:window-maximized="1"
     inkscape:current-layer="svg1"><sodipodi:guide
       position="170,1000"
       orientation="-1,0"
       id="guide1"
       inkscape:locked="false"
       inkscape:label=""
       inkscape:color="rgb(0,134,229)" /><sodipodi:guide
       position="889.4702,1000"
       orientation="-1,0"
       id="guide2"
       inkscape:locked="false"
       inkscape:label=""
       inkscape:color="rgb(0,134,229)" /><sodipodi:guide
       position="0,0"
       orientation="1,0"
       id="guide3"
       inkscape:locked="false" /><sodipodi:guide
       position="890.18514,339.86952"
       orientation="0,-1"
       id="guide4"
       inkscape:locked="false" /><sodipodi:guide
       position="24.960556,182.5636"
       orientation="0,-1"
       id="guide5"
       inkscape:locked="false" /><sodipodi:guide
       position="1000,597.35099"
       orientation="1,0"
       id="guide6"
       inkscape:locked="false" /><sodipodi:guide
       position="975.09475,261.22922"
       orientation="0,-1"
       id="guide7"
       inkscape:locked="false" /><sodipodi:guide
       position="975.09475,261.22922"
       orientation="1,0"
       id="guide8"
       inkscape:locked="false" /><sodipodi:guide
       position="550,1000"
       orientation="-1,0"
       id="guide9"
       inkscape:locked="false"
       inkscape:label=""
       inkscape:color="rgb(0,134,229)" /></sodipodi:namedview><path
     id="path1"
     style="baseline-shift:baseline;display:inline;overflow:visible;opacity:1;vector-effect:none;fill:#000000;fill-rule:evenodd;stroke-miterlimit:2;enable-background:accumulate;stop-color:#000000;stop-opacity:1"
     d="M 550 0 C 479.47308 0 419.72461 55.022896 419.72461 124.5 L 419.72461 541.79492 C 356.64288 547.50516 301.69941 538.33381 254.89453 514.28125 C 215.81948 490.65464 174.47358 471.11794 130.85547 455.66992 C 167.20333 427.49941 184.2416 404.09924 181.9707 385.4707 C 179.69854 366.84091 168.56571 357.07353 148.57422 356.16602 C 128.58231 355.25723 109.95503 385.24481 92.689453 446.12891 C 76.332668 385.24481 54.523039 359.34621 27.261719 368.43359 C 0.00039875 385.69917 9.0877622 418.86713 54.523438 467.9375 C 18.174727 488.83819 1.036651e-15 515.19129 0 546.99609 C -9.4739031e-15 578.80132 26.807599 596.5196 80.421875 600.1543 C 135.8533 585.61465 186.96852 595.38397 233.76758 629.46094 C 269.35223 655.37231 331.33761 664.8654 419.72461 657.93945 L 419.72461 1000 L 484.72461 1000 L 484.72461 650.58008 C 493.33971 649.3406 502.14923 647.98077 511.15234 646.5 C 546.37493 636.58288 581.08233 629.24026 615.27539 624.4707 L 615.27539 738.77148 L 680.27539 738.77148 L 680.27539 618.47656 C 714.39661 616.97468 747.98567 618.13742 781.04102 621.96484 C 867.3693 631.96102 935.06833 634.68648 984.13867 630.14258 C 1061.3796 628.32544 1100 621.05608 1100 608.33398 C 1079.0993 589.25085 1049.5663 576.52901 1011.4004 570.16797 C 930.52484 569.2596 856.69094 555.17384 789.90039 527.91211 C 759.58381 515.53805 723.04225 508.78138 680.27539 507.64062 L 680.27539 124.5 C 680.27539 55.022896 620.52692 0 550 0 z M 550 65 C 587.47378 65 615.27539 92.357291 615.27539 124.5 L 615.27539 509.80273 C 579.78836 512.85289 540.99156 518.88926 498.88477 527.91211 C 494.12667 529.11275 489.40654 530.24331 484.72461 531.30469 L 484.72461 124.5 C 484.72461 92.357291 512.52622 65 550 65 z M 109.04492 495.19922 C 141.75893 494.29044 193.1012 513.82714 263.07227 553.81055 C 313.96021 580.16351 372.11929 586.97795 437.54688 574.25586 C 491.16073 563.35133 547.49987 553.81142 606.56641 545.63281 C 665.63295 537.45463 719.24814 541.31656 767.41016 557.21875 C 815.57217 573.12136 855.55457 583.34323 887.35938 587.88672 C 919.16459 592.43105 969.59981 596.52002 1038.6621 600.1543 C 994.13479 604.69778 950.51597 606.9707 907.80664 606.9707 C 865.09689 606.9707 814.66363 602.19976 756.50586 592.6582 C 698.3481 583.11663 644.50544 583.11663 594.98047 592.6582 C 545.4555 602.19976 489.11636 611.05967 425.96094 619.23828 C 362.8051 627.41646 303.96447 619.2381 249.44141 594.70312 C 192.19243 555.62807 131.76432 544.72271 68.154297 561.98828 C 50.887031 561.0795 43.163169 551.53917 44.982422 533.36523 C 54.978167 508.82857 76.331345 496.10673 109.04492 495.19922 z M 99.164062 508.95703 C 95.074865 508.98544 91.09833 509.62548 87.236328 510.875 C 71.790431 515.87266 64.975986 523.36907 66.791016 533.36523 C 68.608577 543.36267 77.922983 547.45207 94.734375 545.63281 C 111.54534 543.81568 126.31112 536.99886 139.0332 525.18555 C 124.72085 514.28081 111.43165 508.87179 99.164062 508.95703 z " /></svg>
