<?xml version="1.0" encoding="UTF-8" standalone="no"?>
<svg
   width="700"
   height="1000"
   id="svg3378"
   sodipodi:version="0.32"
   inkscape:version="1.4.2 (f4327f4, 2025-05-13)"
   sodipodi:docname="13304.svg"
   inkscape:output_extension="org.inkscape.output.svg.inkscape"
   version="1.0"
   xmlns:inkscape="http://www.inkscape.org/namespaces/inkscape"
   xmlns:sodipodi="http://sodipodi.sourceforge.net/DTD/sodipodi-0.dtd"
   xmlns="http://www.w3.org/2000/svg"
   xmlns:svg="http://www.w3.org/2000/svg"
   xmlns:rdf="http://www.w3.org/1999/02/22-rdf-syntax-ns#"
   xmlns:cc="http://creativecommons.org/ns#"
   xmlns:dc="http://purl.org/dc/elements/1.1/">
  <metadata
     id="metadata3385">
    <rdf:RDF>
      <cc:Work
         rdf:about="">
        <dc:format>image/svg+xml</dc:format>
        <dc:type
           rdf:resource="http://purl.org/dc/dcmitype/StillImage" />
      </cc:Work>
    </rdf:RDF>
  </metadata>
  <defs
     id="defs3383">
    <inkscape:perspective
       sodipodi:type="inkscape:persp3d"
       inkscape:vp_x="0 : 988.67911 : 1"
       inkscape:vp_y="0 : 1000 : 0"
       inkscape:vp_z="20.727343 : 988.67911 : 1"
       inkscape:persp3d-origin="10.363671 : 985.68191 : 1"
       id="perspective3387" />
  </defs>
  <sodipodi:namedview
     inkscape:window-height="998"
     inkscape:window-width="1680"
     inkscape:pageshadow="2"
     inkscape:pageopacity="0.0"
     guidetolerance="10.0"
     gridtolerance="10.0"
     objecttolerance="10.0"
     borderopacity="1.0"
     bordercolor="#666666"
     pagecolor="#ffffff"
     id="base"
     showgrid="false"
     inkscape:zoom="0.13346641"
     inkscape:cx="191.05932"
     inkscape:cy="-333.41724"
     inkscape:window-x="-8"
     inkscape:window-y="-8"
     inkscape:current-layer="svg3378"
     inkscape:showpageshadow="2"
     inkscape:pagecheckerboard="0"
     inkscape:deskcolor="#d1d1d1"
     showguides="true"
     inkscape:window-maximized="1">
    <sodipodi:guide
       position="110.5147,941.93295"
       orientation="1,0"
       id="guide2"
       inkscape:locked="false" />
    <sodipodi:guide
       position="140.5147,0"
       orientation="1,0"
       id="guide3"
       inkscape:locked="false" />
  </sodipodi:namedview>
  <path
     id="path2"
     style="baseline-shift:baseline;display:inline;overflow:visible;vector-effect:none;fill:#000000;enable-background:accumulate;stop-color:#000000;stop-opacity:1;opacity:1"
     d="M 110.51562 0 C 78.623745 0 52.447266 26.174531 52.447266 58.066406 C 52.447266 79.008483 63.734583 97.485552 80.515625 107.70508 L 80.515625 1000 L 140.51562 1000 L 140.51562 408.88477 L 254.23828 145.56445 L 370.32812 478.11133 C 378.66481 499.73473 390.76637 506.36792 406.6582 498.03125 C 422.81054 489.43404 427.11372 476.89333 419.55859 460.48047 C 427.63476 476.37219 438.44897 481.23493 451.99609 474.98242 C 465.2827 468.99041 468.10007 458.05392 460.54492 442.16211 C 469.40266 458.05392 481.14127 462.8404 495.73047 456.58789 C 510.31969 450.59589 512.2888 437.69027 501.60742 417.89062 L 292.55469 86.107422 C 283.2736 83.013742 274.96852 81.517016 267.67188 81.603516 C 251.61925 81.793816 240.38348 89.683174 233.93555 105.26562 L 140.51562 325.81641 L 140.51562 107.70508 C 157.2958 97.485487 168.58203 79.008265 168.58203 58.066406 C 168.58203 26.174531 142.40749 0 110.51562 0 z M 110.51562 30 C 126.19429 30 138.58203 42.387735 138.58203 58.066406 C 138.58203 73.745078 126.19429 86.134766 110.51562 86.134766 C 94.836948 86.134766 82.447266 73.745078 82.447266 58.066406 C 82.447266 42.387735 94.836948 30 110.51562 30 z M 277.25195 111.58398 C 277.41496 111.58308 277.57818 111.58731 277.74609 111.59961 C 279.53717 111.72987 281.585 112.64322 283.92969 114.27148 L 357.42969 228.75781 L 310.87109 249.06055 L 269.12109 130.68164 C 269.49966 117.99952 272.19871 111.61538 277.25195 111.58398 z M 367.19922 243.64062 L 484.43555 424.91211 C 490.16703 432.98828 490.52803 438.65303 485.57812 441.7793 C 480.62821 445.16608 475.16191 441.47045 469.16992 430.78906 L 355.44531 247.91602 L 367.19922 243.64062 z M 348.80469 251.42773 L 447.64648 440.55859 C 452.07535 450.45841 451.02866 456.97141 444.51562 460.09766 C 437.74206 463.48445 432.03315 459.86498 427.34375 449.18359 L 337.05078 256.1582 L 348.80469 251.42773 z M 327.73828 260.43164 L 406.27734 458.95312 C 410.96674 471.19765 409.92201 478.87764 403.14844 482.00391 C 396.63541 485.39069 391.04681 480.2854 386.35742 466.73828 L 317.13086 265.4707 L 327.73828 260.43164 z " />
</svg>
