<?xml version="1.0" encoding="UTF-8" standalone="no"?>
<svg
   width="1100"
   height="1000"
   version="1.1"
   id="svg1"
   sodipodi:docname="13316.svg"
   inkscape:version="1.4.2 (f4327f4, 2025-05-13)"
   xmlns:inkscape="http://www.inkscape.org/namespaces/inkscape"
   xmlns:sodipodi="http://sodipodi.sourceforge.net/DTD/sodipodi-0.dtd"
   xmlns="http://www.w3.org/2000/svg"
   xmlns:svg="http://www.w3.org/2000/svg">
  <defs
     id="defs1" />
  <sodipodi:namedview
     id="namedview1"
     pagecolor="#ffffff"
     bordercolor="#666666"
     borderopacity="1.0"
     inkscape:showpageshadow="2"
     inkscape:pageopacity="0.0"
     inkscape:pagecheckerboard="0"
     inkscape:deskcolor="#d1d1d1"
     inkscape:zoom="0.26693281"
     inkscape:cx="331.54411"
     inkscape:cy="530.09594"
     inkscape:window-width="1680"
     inkscape:window-height="998"
     inkscape:window-x="-8"
     inkscape:window-y="-8"
     inkscape:window-maximized="1"
     inkscape:current-layer="svg1"
     showguides="true" />
  <path
     id="path3"
     style="fill:#000000;stroke:none;stroke-width:55.6248"
     d="M 56.164062 196.51367 C 52.680401 196.47549 49.866494 197.68071 47.722656 200.13086 C 38.902126 207.97119 41.105268 218.50565 54.335938 231.73633 C 67.566618 244.967 71.894563 253.87302 64.626953 261.14062 C 57.359343 268.40824 48.455279 264.07834 35.224609 250.84766 C 21.993929 237.61699 11.459471 235.41385 3.6191406 244.23438 C -4.2213494 251.09466 0.67738937 264.81341 18.318359 285.39453 C 35.959259 305.97558 45.025675 324.84334 45.515625 341.99414 C 46.005645 359.14509 57.519407 378.99011 80.060547 401.53125 C 102.11172 423.58242 127.22586 435.95526 155.40234 438.65039 C 183.57881 441.34552 209.42996 450.53596 232.95117 466.2168 L 364.99023 598.25586 L 43.367188 919.88086 L 42.630859 919.14453 L 29.402344 833.88086 L 0 1000 L 166.11914 970.59766 L 80.855469 957.36914 L 80.119141 956.63281 L 401.74414 635.00977 L 723.36719 956.63281 L 722.63086 957.36914 L 637.36914 970.59766 L 803.48828 1000 L 774.08594 833.88086 L 760.85742 919.14453 L 760.12109 919.88086 L 438.49609 598.25586 L 570.53711 466.2168 C 594.05832 450.53596 619.90947 441.34552 648.08594 438.65039 C 676.26242 435.95526 701.37656 423.58242 723.42773 401.53125 C 745.96887 378.99011 757.48264 359.14509 757.97266 341.99414 C 758.46261 324.84334 767.52707 305.97558 785.16797 285.39453 C 802.80894 264.81341 807.70963 251.09466 799.86914 244.23438 C 792.02881 235.41385 781.49435 237.61699 768.26367 250.84766 C 755.033 264.07834 746.12698 268.40824 738.85938 261.14062 C 731.59177 253.87302 735.92166 244.967 749.15234 231.73633 C 762.38301 218.50565 764.58616 207.97119 755.76562 200.13086 C 748.90535 192.29038 735.18659 197.19106 714.60547 214.83203 C 694.02442 232.47293 675.15666 241.53739 658.00586 242.02734 C 640.85491 242.51736 621.00989 254.03112 598.46875 276.57227 C 576.41758 298.62343 564.04474 323.73758 561.34961 351.91406 C 558.65448 380.09053 549.46404 405.94168 533.7832 429.46289 L 401.74414 561.50391 L 269.70312 429.46289 C 254.02228 405.94168 244.8338 380.09053 242.13867 351.91406 C 239.44354 323.73758 227.0707 298.62343 205.01953 276.57227 C 182.47839 254.03112 162.63337 242.51736 145.48242 242.02734 C 128.33162 241.53739 109.46386 232.47293 88.882812 214.83203 C 74.733293 202.70386 63.828117 196.59768 56.164062 196.51367 z M 105.05469 282.45508 C 133.78244 280.31124 156.27223 286.84275 172.52539 302.05078 C 192.99094 321.20033 203.56709 354.10632 204.25391 400.76758 C 157.59264 400.08076 124.68861 389.50461 105.53906 369.03906 C 90.331033 352.7859 83.799519 330.29416 85.943359 301.56641 L 105.05469 282.45508 z M 698.43359 282.45508 L 717.54492 301.56641 C 719.68876 330.29416 713.15725 352.7859 697.94922 369.03906 C 678.79967 389.50461 645.89369 400.08076 599.23242 400.76758 C 599.91924 354.10632 610.49539 321.20033 630.96094 302.05078 C 647.2141 286.84275 669.70584 280.31124 698.43359 282.45508 z " />
</svg>
