<?xml version="1.0" encoding="UTF-8" standalone="no"?>
<svg
   width="1100"
   height="300"
   version="1.1"
   id="svg1"
   sodipodi:docname="13315.svg"
   inkscape:version="1.4.2 (f4327f4, 2025-05-13)"
   xmlns:inkscape="http://www.inkscape.org/namespaces/inkscape"
   xmlns:sodipodi="http://sodipodi.sourceforge.net/DTD/sodipodi-0.dtd"
   xmlns="http://www.w3.org/2000/svg"
   xmlns:svg="http://www.w3.org/2000/svg">
  <defs
     id="defs1" />
  <sodipodi:namedview
     id="namedview1"
     pagecolor="#ffffff"
     bordercolor="#666666"
     borderopacity="1.0"
     inkscape:showpageshadow="2"
     inkscape:pageopacity="0.0"
     inkscape:pagecheckerboard="0"
     inkscape:deskcolor="#d1d1d1"
     inkscape:zoom="1.51"
     inkscape:cx="196.35762"
     inkscape:cy="237.41722"
     inkscape:window-width="1680"
     inkscape:window-height="998"
     inkscape:window-x="-8"
     inkscape:window-y="-8"
     inkscape:window-maximized="1"
     inkscape:current-layer="svg1"
     showguides="true" />
  <path
     id="path3"
     style="fill:#000000;stroke:none;stroke-width:55.6248"
     d="M 138.25391,106.65234 0,203.32617 138.25391,300 87.318359,230.35547 v -1.04102 H 780.87305 c 27.72004,5.54398 52.49665,17.32572 74.32617,35.34375 21.82952,18.01804 48.33642,27.02735 79.52148,27.02735 31.87799,0 54.05325,-5.89083 66.5273,-17.67188 12.4739,-11.781 32.225,-18.71201 59.252,-20.79101 27.0271,-2.079 40.1931,-8.31592 39.5,-18.71094 0.6931,-11.781 -8.3144,-17.67188 -27.0254,-17.67188 -18.711,0 -28.0684,-3.23572 -28.0684,-13.51367 0,-10.27795 9.3574,-13.51367 28.0684,-13.51367 18.711,0 27.7185,-5.89088 27.0254,-17.67188 0.6931,-10.39501 -12.4729,-16.63193 -39.5,-18.71093 -27.027,-2.079 -46.7781,-9.01002 -59.252,-20.79102 -12.47405,-11.78105 -34.64931,-17.67187 -66.5273,-17.67187 -31.18506,0 -57.69196,9.0093 -79.52148,27.02734 -21.82952,18.01803 -46.60613,29.79977 -74.32617,35.34375 H 87.318359 v -1.04101 z m 801.42773,49.30664 c 22.24642,0.73902 42.7687,12.02401 61.56636,33.85352 v 27.02734 c -18.79766,21.82951 -39.31994,33.1145 -61.56636,33.85352 -28.0121,0.93055 -58.75812,-14.85835 -92.23828,-47.36719 33.48016,-32.50884 64.22618,-48.29774 92.23828,-47.36719 z"
     sodipodi:nodetypes="ccccccsssscszscssssccccsccscs" />
</svg>
