<?xml version="1.0" encoding="UTF-8" standalone="no"?>
<svg
   width="1100"
   height="1000"
   id="svg1320"
   sodipodi:version="0.32"
   inkscape:version="1.4.2 (f4327f4, 2025-05-13)"
   sodipodi:docname="13317.svg"
   version="1.1"
   xmlns:inkscape="http://www.inkscape.org/namespaces/inkscape"
   xmlns:sodipodi="http://sodipodi.sourceforge.net/DTD/sodipodi-0.dtd"
   xmlns="http://www.w3.org/2000/svg"
   xmlns:svg="http://www.w3.org/2000/svg"
   xmlns:rdf="http://www.w3.org/1999/02/22-rdf-syntax-ns#"
   xmlns:cc="http://creativecommons.org/ns#"
   xmlns:dc="http://purl.org/dc/elements/1.1/">
  <metadata
     id="metadata1327">
    <rdf:RDF>
      <cc:Work
         rdf:about="">
        <dc:format>image/svg+xml</dc:format>
        <dc:type
           rdf:resource="http://purl.org/dc/dcmitype/StillImage" />
      </cc:Work>
    </rdf:RDF>
  </metadata>
  <defs
     id="defs1325" />
  <sodipodi:namedview
     inkscape:window-height="998"
     inkscape:window-width="1680"
     inkscape:pageshadow="2"
     inkscape:pageopacity="0.0"
     borderopacity="1.0"
     bordercolor="#666666"
     pagecolor="#ffffff"
     id="base"
     inkscape:zoom="0.45847595"
     inkscape:cx="249.74047"
     inkscape:cy="777.57623"
     inkscape:window-x="-8"
     inkscape:window-y="-8"
     inkscape:current-layer="svg1320"
     inkscape:showpageshadow="2"
     inkscape:pagecheckerboard="0"
     inkscape:deskcolor="#d1d1d1"
     inkscape:window-maximized="1"
     showguides="true">
    <sodipodi:guide
       position="550,850"
       orientation="-1,0"
       id="guide1"
       inkscape:locked="false"
       inkscape:label=""
       inkscape:color="rgb(0,134,229)" />
    <sodipodi:guide
       position="-213.75167,474.34538"
       orientation="1,0"
       id="guide3"
       inkscape:locked="false" />
    <sodipodi:guide
       position="433.2975,664.83689"
       orientation="-0.70504256,0.70916499"
       id="guide2"
       inkscape:locked="false" />
    <sodipodi:guide
       position="433.2975,664.83689"
       orientation="0.70416918,0.71003223"
       id="guide4"
       inkscape:locked="false"
       inkscape:label=""
       inkscape:color="rgb(0,134,229)" />
  </sodipodi:namedview>
  <path
     id="path1"
     style="baseline-shift:baseline;display:inline;overflow:visible;opacity:1;vector-effect:none;fill:#000000;stroke-linecap:round;enable-background:accumulate;stop-color:#000000;stop-opacity:1"
     d="m 225.48438,129.06641 c -32.21081,32.47898 -36.35031,88.00174 15.02148,142.54492 38.12915,40.48299 100.19009,72.9547 175.88867,81.99805 36.13403,35.86775 70.27943,72.26233 102.47656,113.38476 -38.54554,53.53911 -74.50121,115.31621 -107.1914,191.46289 -35.36164,82.36938 -39.86813,165.00477 -16.0293,229.89649 C 419.48922,953.24524 475.80169,1000 550,1000 624.19831,1000 680.51078,953.24524 704.34961,888.35352 728.18844,823.4618 723.68195,740.82641 688.32031,658.45703 655.65878,582.37713 619.68065,520.53739 581.12695,466.95117 635.76402,397.09916 695.94954,340.93486 761.58594,278.53125 l 78.52148,125.36719 c 0.24695,0.39449 0.50486,0.78201 0.77344,1.16211 -16.38579,50.24566 -15.09838,95.23965 7.63281,130.8789 23.2511,36.45441 65.6154,59.91558 123.49024,73.81446 l 82.29689,129.67382 c 7.3981,11.65788 22.8461,15.11107 34.5039,7.71289 11.6579,-7.3981 15.1111,-22.84606 7.7129,-34.5039 l -82.2949,-129.67578 c 12.0647,-58.28524 8.873,-106.60653 -14.2129,-143.16602 -22.95212,-36.34741 -64.09907,-56.74725 -117.84964,-62.95117 L 771.4043,200.01172 C 694.76568,272.64572 617.44373,344.589 550.02734,426.07617 518.57829,386.91331 485.64965,351.9041 451.60352,318.10742 441.9331,242.48603 408.9483,180.69662 368.15039,142.9043 312.84126,91.669777 257.42207,96.86281 225.48438,129.06641 Z m 115.48242,43.18164 c 30.75769,28.49176 59.04407,78.23271 69.34961,140.12304 -61.97395,-9.79151 -111.9474,-37.66304 -140.69336,-68.18359 -11.24609,-11.94035 -47.35707,-55.06991 -15.73633,-86.95508 31.60759,-31.87078 74.99505,3.82091 87.08008,15.01563 z m 538.14453,244.47656 c 44.9864,5.26475 72.04751,20.628 87.07617,44.42773 14.75792,23.37099 19.29896,58.95096 9.9082,108.39063 -48.73373,-12.55205 -78.99376,-31.80919 -93.85742,-55.11328 -15.13623,-23.73145 -17.51676,-54.75816 -3.12695,-97.70508 z m -329.11524,92.50977 c 32.9806,47.66423 63.75851,102.28053 92.37891,168.94726 31.12205,72.49392 33.3109,143.19916 15.04102,192.93164 C 639.14613,920.84577 604.54456,950 550,950 495.45544,950 460.85387,920.84577 442.58398,871.11328 424.3141,821.3808 426.50295,750.67557 457.625,678.18164 486.19797,611.6254 516.99601,556.96054 549.99609,509.23438 Z"
     sodipodi:nodetypes="ssccsssssccccsccsccsccccssscscscscsccsssssc" />
</svg>
