<?xml version="1.0" encoding="UTF-8" standalone="no"?>
<svg
   width="1100"
   height="800"
   version="1.1"
   id="svg1"
   sodipodi:docname="1332A.svg"
   inkscape:version="1.4.2 (f4327f4, 2025-05-13)"
   xmlns:inkscape="http://www.inkscape.org/namespaces/inkscape"
   xmlns:sodipodi="http://sodipodi.sourceforge.net/DTD/sodipodi-0.dtd"
   xmlns="http://www.w3.org/2000/svg"
   xmlns:svg="http://www.w3.org/2000/svg">
  <defs
     id="defs1" />
  <sodipodi:namedview
     id="namedview1"
     pagecolor="#ffffff"
     bordercolor="#666666"
     borderopacity="1.0"
     inkscape:showpageshadow="2"
     inkscape:pageopacity="0.0"
     inkscape:pagecheckerboard="0"
     inkscape:deskcolor="#d1d1d1"
     inkscape:zoom="0.33366601"
     inkscape:cx="687.81354"
     inkscape:cy="945.55631"
     inkscape:window-width="1680"
     inkscape:window-height="998"
     inkscape:window-x="-8"
     inkscape:window-y="-8"
     inkscape:window-maximized="1"
     inkscape:current-layer="svg1"
     showguides="true" />
  <path
     style="baseline-shift:baseline;display:inline;overflow:visible;opacity:1;vector-effect:none;fill:#000000;enable-background:accumulate;stop-color:#000000;stop-opacity:1"
     d="M 0.08984375,259.48437 C 48.440879,416.06047 181.61255,506.36635 327.88281,564.18945 c 148.93086,53.91215 329.67567,71.27515 506.07422,43.0293 60.00716,6.79021 116.58057,50.18699 133.5957,126.02344 9.76261,43.51195 41.62317,68.83986 73.57227,66.62304 C 1073.0741,797.64842 1100,767.95663 1100,728.36719 1100,588.28 931.69345,516.11113 865.66992,493.1875 l -0.66797,-0.23047 z M 68.314453,319.33398 853.06836,531.16797 C 907.39956,550.07816 1060,613.42308 1060,728.36719 c 0,23.42927 -11.2637,30.8736 -21.6426,31.59375 -10.3789,0.72014 -24.985,-5.21184 -31.7754,-35.47657 -20.74908,-92.47877 -93.29199,-149.70876 -170.79294,-157.36132 -1.79004,-0.40138 -3.41646,-0.12365 -5.18554,0.16406 C 660.05544,595.11922 484.06632,578.18706 341.49805,526.57812 215.93655,481.12555 117.31657,409.06741 68.314453,319.33398 Z"
     id="path1"
     sodipodi:nodetypes="cscssscccccsssccsc" />
</svg>
