<?xml version="1.0" encoding="UTF-8" standalone="no"?>
<svg
   width="1100"
   height="1000"
   version="1.1"
   id="svg1"
   sodipodi:docname="1332D.svg"
   inkscape:version="1.4.2 (f4327f4, 2025-05-13)"
   xml:space="preserve"
   xmlns:inkscape="http://www.inkscape.org/namespaces/inkscape"
   xmlns:sodipodi="http://sodipodi.sourceforge.net/DTD/sodipodi-0.dtd"
   xmlns="http://www.w3.org/2000/svg"
   xmlns:svg="http://www.w3.org/2000/svg"><defs
     id="defs1" /><sodipodi:namedview
     id="namedview1"
     pagecolor="#ffffff"
     bordercolor="#666666"
     borderopacity="1.0"
     inkscape:showpageshadow="2"
     inkscape:pageopacity="0.0"
     inkscape:pagecheckerboard="0"
     inkscape:deskcolor="#d1d1d1"
     showguides="true"
     inkscape:zoom="0.26693281"
     inkscape:cx="103.02218"
     inkscape:cy="1009.6174"
     inkscape:window-width="1680"
     inkscape:window-height="998"
     inkscape:window-x="-8"
     inkscape:window-y="-8"
     inkscape:window-maximized="1"
     inkscape:current-layer="svg1"><sodipodi:guide
       position="170,1000"
       orientation="-1,0"
       id="guide1"
       inkscape:locked="false"
       inkscape:label=""
       inkscape:color="rgb(0,134,229)" /><sodipodi:guide
       position="889.4702,1000"
       orientation="-1,0"
       id="guide2"
       inkscape:locked="false"
       inkscape:label=""
       inkscape:color="rgb(0,134,229)" /><sodipodi:guide
       position="0,0"
       orientation="1,0"
       id="guide3"
       inkscape:locked="false" /><sodipodi:guide
       position="890.18514,339.86952"
       orientation="0,-1"
       id="guide4"
       inkscape:locked="false" /><sodipodi:guide
       position="24.960556,182.5636"
       orientation="0,-1"
       id="guide5"
       inkscape:locked="false" /><sodipodi:guide
       position="1000,597.35099"
       orientation="1,0"
       id="guide6"
       inkscape:locked="false" /><sodipodi:guide
       position="975.09475,261.22922"
       orientation="0,-1"
       id="guide7"
       inkscape:locked="false" /><sodipodi:guide
       position="975.09475,261.22922"
       orientation="1,0"
       id="guide8"
       inkscape:locked="false" /><sodipodi:guide
       position="550,1000"
       orientation="-1,0"
       id="guide9"
       inkscape:locked="false"
       inkscape:label=""
       inkscape:color="rgb(0,134,229)" /></sodipodi:namedview><path
     id="path1"
     style="baseline-shift:baseline;display:inline;overflow:visible;opacity:1;vector-effect:none;fill:#000000;fill-rule:evenodd;stroke-miterlimit:2;enable-background:accumulate;stop-color:#000000;stop-opacity:1"
     d="M 550 0 C 479.47308 0 419.72461 55.022896 419.72461 124.5 L 419.72461 316.81055 L 0 152.05859 C 81.921746 299.36019 196.73033 421.65152 344.42578 518.93359 C 370.49437 536.09721 395.59399 551.69642 419.72461 565.73047 L 419.72461 1000 L 484.72461 1000 L 484.72461 600.91992 C 532.72114 624.81774 576.23807 641.48025 615.27539 650.91016 L 615.27539 738.77148 L 680.27539 738.77148 L 680.27539 660.0625 C 682.16355 660.10792 684.0384 660.13086 685.89844 660.13086 L 693.57812 660.13086 C 778.65071 657.37389 846.59121 636.49942 897.39844 597.50781 C 928.51294 725.90439 968.88217 790.10156 1018.5078 790.10156 C 1033.0805 790.10156 1048.6378 784.19453 1065.1797 772.37891 C 1136.8612 721.96551 1097.8698 639.25552 948.20508 524.25 L 680.27539 419.08203 L 680.27539 124.5 C 680.27539 55.022896 620.52692 0 550 0 z M 550 65 C 587.47378 65 615.27539 92.357291 615.27539 124.5 L 615.27539 393.56836 L 484.72461 342.32422 L 484.72461 124.5 C 484.72461 92.357291 512.52622 65 550 65 z M 117.56641 240.08398 L 882.03711 548.47266 C 822.17122 583.13186 762.30534 600.46094 702.43945 600.46094 C 677.62662 600.46094 652.61685 597.50743 627.41016 591.59961 C 542.33758 571.51302 452.73672 527.00852 358.60547 458.08398 C 264.08039 389.15944 183.73397 316.49177 117.56641 240.08398 z M 937.57031 571.51367 C 1034.8524 659.34324 1066.755 714.08801 1033.2773 735.75 C 1028.5511 738.90084 1023.8239 740.47656 1019.0977 740.47656 C 990.74016 740.47656 963.56472 684.15607 937.57031 571.51367 z " /></svg>
