<?xml version="1.0" encoding="UTF-8" standalone="no"?>
<svg
   width="1100"
   height="1000"
   version="1.1"
   id="svg1"
   sodipodi:docname="13329.svg"
   inkscape:version="1.4.2 (f4327f4, 2025-05-13)"
   xmlns:inkscape="http://www.inkscape.org/namespaces/inkscape"
   xmlns:sodipodi="http://sodipodi.sourceforge.net/DTD/sodipodi-0.dtd"
   xmlns="http://www.w3.org/2000/svg"
   xmlns:svg="http://www.w3.org/2000/svg">
  <defs
     id="defs1" />
  <sodipodi:namedview
     id="namedview1"
     pagecolor="#ffffff"
     bordercolor="#666666"
     borderopacity="1.0"
     inkscape:showpageshadow="2"
     inkscape:pageopacity="0.0"
     inkscape:pagecheckerboard="0"
     inkscape:deskcolor="#d1d1d1"
     inkscape:zoom="0.2359375"
     inkscape:cx="-481.05961"
     inkscape:cy="-222.51656"
     inkscape:window-width="1680"
     inkscape:window-height="998"
     inkscape:window-x="-8"
     inkscape:window-y="-8"
     inkscape:window-maximized="1"
     inkscape:current-layer="svg1"
     showguides="true">
    <sodipodi:guide
       position="0,770"
       orientation="0,1"
       id="guide2"
       inkscape:locked="false"
       inkscape:label=""
       inkscape:color="rgb(0,134,229)" />
    <sodipodi:guide
       position="917.46821,30"
       orientation="0,1"
       id="guide3"
       inkscape:locked="false"
       inkscape:label=""
       inkscape:color="rgb(0,134,229)" />
    <sodipodi:guide
       position="294.22382,770"
       orientation="0.96436583,-0.26457237"
       id="guide4"
       inkscape:locked="false" />
    <sodipodi:guide
       position="504.33708,770"
       orientation="1,0"
       id="guide5"
       inkscape:locked="false" />
    <sodipodi:guide
       position="437.6159,502.25166"
       orientation="0.96436583,-0.26457237"
       id="guide6"
       inkscape:label=""
       inkscape:locked="false"
       inkscape:color="rgb(0,134,229)" />
  </sodipodi:namedview>
  <path
     id="path3"
     style="baseline-shift:baseline;display:inline;overflow:visible;opacity:1;vector-effect:none;fill:#000000;enable-background:accumulate;stop-color:#000000;stop-opacity:1"
     d="M 0.08984375,0 C 41.891421,137.01653 150.84605,224.13951 276.2832,283.99023 L 81.111328,1000 H 927.5625 L 752.44531,357.55859 c 27.18599,-2.21938 54.39978,-5.48291 81.51172,-9.82421 60.00716,6.79021 116.58057,50.18502 133.5957,126.02148 9.76261,43.51196 41.62317,68.84181 73.57227,66.625 C 1073.0741,538.16404 1100,508.47226 1100,468.88281 1100,328.82696 931.77973,256.6567 865.66992,233.70312 l -0.66797,-0.23046 z M 68.3125,59.845703 853.06836,271.68359 C 907.43177,290.60502 1060,353.94629 1060,468.88281 c 0,23.42928 -11.2637,30.87361 -21.6426,31.59375 -10.3789,0.72015 -24.985,-5.21184 -31.7754,-35.47656 -20.74905,-92.47879 -93.292,-149.70876 -170.79294,-157.36133 -1.79083,-0.40371 -3.41579,-0.12509 -5.18554,0.16406 C 660.05544,335.63484 484.06632,318.70268 341.49805,267.09375 215.93475,221.64053 117.31389,149.58091 68.3125,59.845703 Z M 333.63477,307.80469 h 2.96093 c 93.25754,32.60013 198.51665,51.03429 307.11328,53.13086 L 545.63867,527.24219 660.11719,940 H 348.55859 L 463.03516,527.24219 Z M 319.6582,353.00977 425.33594,532.21484 312.23633,940 H 159.65625 Z M 691.14258,360.81055 849.01758,940 H 696.4375 L 583.33984,532.21484 684.33008,360.95508 c 2.26962,-0.0415 4.54101,-0.0887 6.8125,-0.14453 z"
     sodipodi:nodetypes="ccccccssscccccsssccscccccccccccccccccccc" />
</svg>
