<?xml version="1.0" encoding="UTF-8" standalone="no"?>
<svg
   width="1100"
   height="1000"
   id="svg1708"
   sodipodi:version="0.32"
   inkscape:version="1.4.2 (f4327f4, 2025-05-13)"
   sodipodi:docname="13338.svg"
   version="1.1"
   xmlns:inkscape="http://www.inkscape.org/namespaces/inkscape"
   xmlns:sodipodi="http://sodipodi.sourceforge.net/DTD/sodipodi-0.dtd"
   xmlns="http://www.w3.org/2000/svg"
   xmlns:svg="http://www.w3.org/2000/svg"
   xmlns:rdf="http://www.w3.org/1999/02/22-rdf-syntax-ns#"
   xmlns:cc="http://creativecommons.org/ns#"
   xmlns:dc="http://purl.org/dc/elements/1.1/">
  <metadata
     id="metadata1715">
    <rdf:RDF>
      <cc:Work
         rdf:about="">
        <dc:format>image/svg+xml</dc:format>
        <dc:type
           rdf:resource="http://purl.org/dc/dcmitype/StillImage" />
        <dc:date>05/02/2006</dc:date>
        <dc:creator>
          <cc:Agent>
            <dc:title>Serge Thomas</dc:title>
          </cc:Agent>
        </dc:creator>
        <dc:publisher>
          <cc:Agent>
            <dc:title>Serge Rosmorduc</dc:title>
          </cc:Agent>
        </dc:publisher>
        <dc:description>optimisation du signe de Jsesh en s'inspirant de la chapelle blanche et d'esquisses ramessides de KV 17 - valeur : mr</dc:description>
        <cc:license
           rdf:resource="http://creativecommons.org/licenses/GPL/2.0/" />
      </cc:Work>
      <cc:License
         rdf:about="http://creativecommons.org/licenses/GPL/2.0/">
        <cc:permits
           rdf:resource="http://web.resource.org/cc/Reproduction" />
        <cc:permits
           rdf:resource="http://web.resource.org/cc/Distribution" />
        <cc:requires
           rdf:resource="http://web.resource.org/cc/Notice" />
        <cc:permits
           rdf:resource="http://web.resource.org/cc/DerivativeWorks" />
        <cc:requires
           rdf:resource="http://web.resource.org/cc/ShareAlike" />
        <cc:requires
           rdf:resource="http://web.resource.org/cc/SourceCode" />
      </cc:License>
    </rdf:RDF>
  </metadata>
  <defs
     id="defs1713" />
  <sodipodi:namedview
     inkscape:window-height="998"
     inkscape:window-width="1680"
     inkscape:pageshadow="2"
     inkscape:pageopacity="0.0"
     borderopacity="1.0"
     bordercolor="#666666"
     pagecolor="#ffffff"
     id="base"
     inkscape:zoom="0.53386562"
     inkscape:cx="326.86128"
     inkscape:cy="562.87573"
     inkscape:window-x="-8"
     inkscape:window-y="-8"
     inkscape:current-layer="svg1708"
     inkscape:showpageshadow="2"
     inkscape:pagecheckerboard="0"
     inkscape:deskcolor="#d1d1d1"
     inkscape:window-maximized="1"
     showguides="true" />
  <path
     id="path2"
     style="fill:#000000;stroke:none;stroke-width:0.903092px;stroke-linecap:butt;stroke-linejoin:miter;stroke-opacity:1"
     d="M 114.19113,26.593987 C 95.14354,25.192396 78.22802,36.10457 75.51571,50.66133 72.6265,66.167418 71.94079,79.748216 70.90004,92.158292 L 39.65705,60.915663 C 30.230559,51.489122 18.521919,50.369734 8.9387693,58.493531 c -9.58312004,8.123799 -13.06144,23.574881 -2.346,35.178507 L 59.90685,151.40784 c -4.82211,13.65125 -8.45241,85.99271 -4.50587,118.85177 3.94649,32.85902 23.39014,111.97935 60.34181,236.77471 3.0702,10.36881 7.46479,24.13445 13.3996,40.9023 -10.37702,13.20668 -13.69235,31.51628 -5.0926,43.22885 6.53739,8.90369 15.21674,14.29982 26.76345,13.32862 38.67875,94.25423 108.89375,235.79681 227.17754,394.41646 l 26.43845,2.17895 -0.52609,-74.35366 c -51.8983,-57.2221 -140.9482,-184.16682 -208.78368,-349.6399 10.63477,-13.56728 16.29316,-29.68333 15.56677,-41.68797 l 100.02959,-92.96823 9.8e-4,1.6e-4 c 6.07977,-0.26748 13.00487,-2.03968 19.93717,-4.60802 l 174.7734,185.612 c 30.98062,32.90198 88.33976,-8.41967 53.47625,-43.28306 L 377.63698,398.89273 c 3.4175,-10.20347 2.97865,-20.93949 -2.7532,-28.74607 -8.34286,-11.36269 -20.17356,-17.01372 -37.00083,-11.00684 L 111.38646,132.64366 c 7.63132,-26.97422 18.8387,-44.568786 23.1223,-58.032684 4.04172,-12.703667 4.07996,-44.281676 -16.48352,-47.569176 -1.28522,-0.205473 -2.56425,-0.354371 -3.83411,-0.447817 z m -9.56235,171.193923 190.27111,202.07064 c -3.99229,9.4009 -5.5326,18.79255 -4.43402,26.36213 l -98.56382,91.60562 c -5.49284,0.0932 -11.7866,1.46961 -18.21753,3.58937 -35.46036,-98.46933 -62.03331,-208.2446 -69.05574,-323.62776 z"
     inkscape:transform-center-x="-173.50638"
     inkscape:transform-center-y="381.13741" />
</svg>
