<?xml version="1.0" encoding="UTF-8" standalone="no"?>
<svg
   width="800"
   height="1000"
   version="1.1"
   id="svg1"
   sodipodi:docname="13461.svg"
   inkscape:version="1.4.2 (f4327f4, 2025-05-13)"
   xmlns:inkscape="http://www.inkscape.org/namespaces/inkscape"
   xmlns:sodipodi="http://sodipodi.sourceforge.net/DTD/sodipodi-0.dtd"
   xmlns="http://www.w3.org/2000/svg"
   xmlns:svg="http://www.w3.org/2000/svg">
  <defs
     id="defs1" />
  <sodipodi:namedview
     id="namedview1"
     pagecolor="#ffffff"
     bordercolor="#666666"
     borderopacity="1.0"
     inkscape:showpageshadow="2"
     inkscape:pageopacity="0.0"
     inkscape:pagecheckerboard="0"
     inkscape:deskcolor="#d1d1d1"
     showguides="true"
     inkscape:zoom="0.755"
     inkscape:cx="496.02649"
     inkscape:cy="390.06623"
     inkscape:window-width="1680"
     inkscape:window-height="998"
     inkscape:window-x="-8"
     inkscape:window-y="-8"
     inkscape:window-maximized="1"
     inkscape:current-layer="svg1">
    <sodipodi:guide
       position="0,6.8664551e-07"
       orientation="0,-1"
       id="guide1"
       inkscape:locked="false" />
  </sodipodi:namedview>
  <path
     id="path6"
     style="fill:#000000;stroke:none;stroke-width:0.999998"
     d="M 574.06055 0.09765625 C 564.27546 0.3792414 554.4375 1.3458685 544.58203 2.8476562 C 502.53198 7.7284657 471.70879 36.585409 452.18555 89.523438 C 449.55742 103.79042 443.18394 117.17081 433.04688 129.56055 C 422.90981 141.57488 416.36099 154.84585 413.35742 169.48828 C 413.35742 177.74811 418.57536 182.09135 429.08789 182.4668 C 439.60041 182.84243 440.93143 186.37868 433.04688 193.13672 C 425.74322 194.75972 429.28585 202.00211 433.04688 203.25586 C 428.16606 208.5121 428.16606 212.15793 433.04688 214.03516 C 438.30311 216.28784 440.15819 219.9996 438.65625 225.25586 C 437.52991 230.88756 438.51414 237.78509 441.51758 246.04492 C 444.52114 254.6802 459.47174 259.02344 486.50391 259.02344 L 521.48242 253.96289 C 519.98061 259.59459 520.8534 266.31875 524.23242 274.20312 C 456.65199 274.954 414.58802 289.66721 398.06836 318.20117 C 341.60601 365.31545 287.98527 415.21766 237.10938 467.91797 C 226.86948 446.67966 203.54524 417.66671 167.13672 380.87891 C 131.10744 344.47039 106.036 316.52423 103.99219 301.38867 C 95.437749 238.03818 79.979154 196.98493 27 160.2832 C 12.47457 150.63142 3.0880909 149.18434 -1.1601562 155.94531 C -5.4096429 162.70295 2.3946405 176.39671 22.25 197.0293 C 42.105383 217.66197 54.033013 246.53991 58.035156 283.66016 C 27.979428 263.21045 17.065957 243.88035 14.052734 232.29688 C 11.039503 220.71341 4.5820912 217.62146 -5.3203125 223.02344 C 7.3243403 267.79224 25.967013 298.64404 51.109375 314.08594 C 65.568275 322.96627 82.60807 355.38505 104.35156 386.95508 C 149.01439 451.80237 199.65294 532.83717 219.54883 538.95898 C 241.70019 542.338 276.86663 522.58221 324.92383 479.78125 C 384.61987 427.59415 411.44659 410.67733 405.43945 429.07422 C 405.43945 453.47827 410.48012 474.39154 420.61719 491.66211 C 428.84421 505.67848 451.98017 595.78171 479.73438 690.80273 C 459.84791 667.66911 387.12395 571.78961 355.39062 544.12891 C 349.82394 535.01096 342.23424 528.75195 332.95312 525.42969 C 317.4846 519.8926 278.29475 534.84558 268.49609 560.95703 C 266.80017 594.37924 265.91639 624.08556 265.9668 650.38281 C 269.0252 719.26146 363.04467 852.90664 358.91016 894.78906 C 354.77564 936.67163 330.13233 928.21774 300.06445 938.23828 C 269.9962 948.25775 240.76795 956.43793 212.17969 962.54688 C 183.59143 968.65593 168.51533 974.88779 167.19141 981.02539 C 165.86751 987.16304 168.78791 991.66535 175.88086 994.55469 C 182.97378 997.44376 198.83443 998.91521 223.50781 999.06445 C 248.18131 999.21088 271.62347 997.08655 293.79492 992.57422 C 315.96638 988.06209 334.89477 989.7475 350.33203 997.85547 C 398.63112 1009.1078 448.77145 974.62073 414.78906 928.88867 C 416.34077 865.94374 413.74311 840.23848 409.58398 800.51758 C 458.05351 863.21797 544.91253 978.594 587.30859 985.69727 C 625.6223 992.11657 688.17297 971.17737 698.73242 927.17969 C 715.39392 871.28633 713.17066 815.65467 703.24219 758.99805 C 700.22811 746.21627 697.92626 731.31251 695.98242 715.44141 C 697.31939 681.87089 683.50163 587.82409 685.92383 559.19727 C 774.1538 586.98034 832.50118 600.88477 861.03516 600.88477 C 883.1865 598.63209 894.25195 589.07285 894.25195 572.17773 C 874.72824 496.3397 829.65431 411.68745 759.07031 318.20117 C 744.8033 289.66722 708.2401 274.08125 649.29492 271.45312 C 639.15786 257.93703 633.76834 246.0609 633.01758 235.92383 C 657.42155 230.29213 677.87294 217.54517 694.39258 197.64648 C 711.28769 177.7478 719.51806 145.42036 719.14258 100.74219 C 718.76718 56.439453 699.4713 27.582493 661.17578 14.066406 C 632.45409 3.9293414 603.41591 -0.74709975 574.06055 0.09765625 z M 569.2207 25.945312 C 587.3184 25.56399 608.61138 28.124157 633.01562 33.755859 C 671.68678 42.391135 691.15774 66.838901 691.5332 107.01172 C 691.91053 146.80908 680.66786 175.83943 657.76562 194.23633 C 635.23883 213.00867 616.4651 214.34165 601.44727 198.19727 C 594.68922 191.43921 593.3572 186.04788 597.48828 181.91797 C 608.37622 178.53895 613.4189 170.02585 612.66797 156.50977 C 624.30684 142.2428 630.15625 130.1273 630.15625 119.99023 C 630.90701 101.59347 622.04536 92.731547 603.64844 93.482422 C 596.13952 94.23332 589.76606 96.612268 584.50977 100.74219 C 547.71614 76.33814 515.84662 65.555464 488.81445 68.183594 C 511.27883 28.677277 554.67001 26.251889 569.2207 25.945312 z M 499.92383 87.103516 C 522.89158 87.807479 547.38308 97.970661 573.28906 117.68164 L 569.33008 128.90039 C 573.83544 131.52854 578.17869 132.33728 582.30859 131.21094 C 588.31576 115.44218 595.03991 107.56252 602.54883 107.5625 C 611.55955 106.43616 615.7294 110.95471 614.97852 121.0918 C 614.97852 130.47797 609.82674 141.01934 599.68945 152.6582 C 599.68945 164.6725 596.32629 169.7151 589.56836 167.83789 C 582.81032 166.33608 579.9735 162.51693 581.09961 156.50977 C 576.59425 173.40488 580.58664 194.84026 592.97852 220.74609 C 604.9928 247.02737 614.20531 267.12995 620.58789 281.02148 C 626.97052 294.91301 637.05376 302.27058 650.94531 303.02148 C 664.83686 303.77235 680.8809 305.80262 698.90234 309.18164 C 716.9238 312.56066 721.79304 324.78357 713.5332 345.80859 C 705.27334 366.83361 688.00591 413.9402 661.72461 487.15234 L 635.2168 474.72266 C 616.81988 437.55342 584.95056 406.03278 539.52148 380.12695 C 530.88624 388.38678 532.56773 399.27884 544.58203 412.79492 L 524.23242 457.23242 C 516.13792 511.58116 602.20503 514.21094 618.9375 514.21094 L 654.35547 542.91797 L 663.75391 716.65039 C 663.02629 730.11691 664.81044 750.01241 668.92383 765.37891 C 680.34127 808.03225 679.41236 857.26807 664.41406 913.43164 C 664.41406 913.43164 645.16531 953.68792 593.24805 948.4082 C 542.24446 943.2214 387.55257 703.70314 381.78906 697.67969 C 354.88422 669.56133 322.96793 636.32834 304.9043 582.07617 C 299.2459 565.08178 323.34731 559.2059 333.0625 562.05664 C 359.21469 569.73046 391.20666 639.60565 477.75391 723.14062 C 494.77049 735.0951 523.99961 738.71911 516.47266 706.42188 C 506.66023 681.60409 457.6324 488.8577 448.22656 475.27148 C 438.0895 460.62905 435.2505 418.85175 439.75586 349.76953 C 437.87864 326.11638 457.28571 314.24023 497.83398 314.24023 C 539.88402 314.24023 559.1798 304.67904 555.80078 285.53125 L 547.88086 262.43359 C 543.75093 248.16661 542.07137 239.30285 542.82227 235.92383 C 534.56244 233.67115 522.971 234.30653 507.95312 237.68555 C 482.42273 239.93823 467.36084 238.78076 462.85547 234.27539 C 458.35011 229.77003 456.84387 223.56994 458.3457 215.68555 L 476.38477 209.52539 C 480.51466 207.2727 481.3234 203.45353 478.69531 198.19727 L 453.28516 195.99609 C 459.29231 183.2309 458.59488 174.7178 451.08594 170.58789 C 440.94884 171.33878 435.90625 168.78645 435.90625 162.7793 C 438.53438 157.8985 443.75234 148.86134 451.63672 135.7207 C 459.5211 122.58007 469.08034 114.17634 480.34375 110.42188 C 491.9826 106.66737 503.39871 107.19144 514.66211 112.07227 C 525.92552 116.57763 536.64418 120.11211 546.78125 122.74023 L 549.64062 116.03125 C 540.25445 113.77857 530.51987 109.95743 520.38281 104.70117 C 500.85957 94.564118 483.94276 94.564118 469.67578 104.70117 C 471.553 97.94314 474.10535 92.902453 477.48438 89.523438 C 484.80557 87.646221 492.26794 86.868888 499.92383 87.103516 z M 730.91211 404.32617 C 745.55454 434.36191 774.34554 478.10546 817.14648 535.54883 C 801.00292 524.66088 761.31921 513.24477 698.24414 501.23047 L 730.91211 404.32617 z " />
  <path
     style="fill:#000000;stroke:none;stroke-width:0.999998"
     d="m 500.98744,116.03107 c -9.38618,0 -15.58545,1.5062 -18.58902,4.50976 -2.62815,3.00356 -6.16408,4.50975 -10.66944,4.50975 v 5.05975 l 7.80959,1.09993 c 10.13706,10.13706 26.18155,11.46873 47.95746,3.95976 l 14.07926,3.95977 1.09993,-10.22946 -12.42934,-1.09993 c -12.01429,-6.75799 -21.7495,-10.64299 -29.25844,-11.76933 z"
     id="path12" />
  <path
     style="fill:#000000;stroke:none;stroke-width:0.999998"
     d="m 530.0259,734.08845 c -0.18303,0.025 -0.33733,0.0957 -0.43983,0.11264 l -0.10982,0.11263 c 0.45673,-0.0203 0.98413,-0.0227 1.42995,-0.11263 0.2033,-0.0399 -0.02,-0.10138 -0.33003,-0.11264 -0.15486,-0.004 -0.36661,-0.025 -0.55021,0 z"
     id="path15" />
</svg>
