<?xml version="1.0" encoding="UTF-8" standalone="no"?>
<svg
   width="16.1"
   height="17.78"
   version="1.1"
   id="svg1"
   sodipodi:docname="13469.svg"
   inkscape:version="1.4.2 (f4327f4, 2025-05-13)"
   xmlns:inkscape="http://www.inkscape.org/namespaces/inkscape"
   xmlns:sodipodi="http://sodipodi.sourceforge.net/DTD/sodipodi-0.dtd"
   xmlns="http://www.w3.org/2000/svg"
   xmlns:svg="http://www.w3.org/2000/svg">
  <defs
     id="defs1" />
  <sodipodi:namedview
     id="namedview1"
     pagecolor="#ffffff"
     bordercolor="#666666"
     borderopacity="1.0"
     inkscape:showpageshadow="2"
     inkscape:pageopacity="0.0"
     inkscape:pagecheckerboard="0"
     inkscape:deskcolor="#d1d1d1"
     showguides="true"
     inkscape:zoom="45.254834"
     inkscape:cx="5.4469319"
     inkscape:cy="8.8277862"
     inkscape:window-width="1680"
     inkscape:window-height="998"
     inkscape:window-x="-8"
     inkscape:window-y="-8"
     inkscape:window-maximized="1"
     inkscape:current-layer="svg1">
    <sodipodi:guide
       position="11.774835,0"
       orientation="0,-1"
       id="guide6"
       inkscape:locked="false" />
  </sodipodi:namedview>
  <path
     id="path3"
     style="fill:#000000;stroke:none"
     d="m 10.414062,0.00195313 c -0.17375,0.005 -0.348437,0.02216145 -0.523437,0.04882812 C 9.1439583,0.13744792 8.5966667,0.64984345 8.25,1.5898438 8.2033333,1.843177 8.0901562,2.0807814 7.9101562,2.3007812 7.7301563,2.5141152 7.6138802,2.7497656 7.5605469,3.0097656 c 0,0.1466667 0.09263,0.2238021 0.2792969,0.2304688 0.093333,0.00334 0.1464583,0.023161 0.1582031,0.054687 0.00891,0.031402 -0.020078,0.076641 -0.087891,0.1347656 -0.06,0.013333 -0.083649,0.043177 -0.070312,0.089844 0.00667,0.046667 0.030312,0.07651 0.070312,0.089844 -0.086667,0.093333 -0.086667,0.1580731 0,0.1914062 0.093333,0.04 0.1262785,0.1058855 0.099609,0.1992188 -0.02,0.1 -0.00255,0.222474 0.050781,0.3691406 0.053333,0.1533334 0.3188281,0.2304688 0.7988281,0.2304688 l 0.6210938,-0.089844 c -0.026667,0.1 -0.011172,0.219375 0.048828,0.359375 -1.2,0.013333 -1.9469011,0.2745834 -2.2402344,0.78125 -1.0066667,0.84 -1.962474,1.7299219 -2.8691406,2.6699219 C 4.2399208,7.946979 3.8452915,7.4196591 3.189452,6.7890623 2.7523553,6.3687891 2.4102609,5.8778306 2.0800781,5.3808594 1.9647336,3.9544685 1.6377073,3.2133049 1.0976562,3.15625 0.97302887,3.1430832 0.8828338,3.1981202 0.828125,3.3183594 l 0.0390625,0.00391 -0.005859,0.0625 c 0.2492532,0.026333 0.4456213,0.500822 0.5859371,1.4257775 L 1.4433594,4.8535156 1.359375,4.84375 C 1.0577624,4.5178383 0.85669747,4.3500845 0.75976562,4.3398438 L 0.56835938,4.3828125 C 0.56104438,4.4520495 0.704036,4.7596638 0.99609375,5.3085938 1.3730592,5.8194412 1.3745953,5.8421255 1.6601562,6.3496094 c 1.1184025,1.9875664 1.9389844,3.0607031 2.4589844,3.2207031 0.3933334,0.06 1.0177604,-0.290781 1.8710938,-1.0507813 0.8364062,-0.7311977 1.3119404,-1.0705337 1.421875,-1.0214843 0.00102,5.621e-4 0.00491,0.00327 0.00586,0.00391 l 0.00195,0.00195 v 0.00195 h 0.00195 0.00195 c 7.326e-4,8.682e-4 0.00324,0.00491 0.00391,0.00586 0.011804,0.020427 0.00885,0.05638 -0.00781,0.1074218 0,0.4333334 0.089531,0.8046614 0.2695312,1.1113282 0.1618526,0.2757486 0.5421108,1.4670091 1.125,3.5019531 -1.7115191,0.832126 -3.5085438,1.994315 -4.4609375,2.857422 -1.0249824,0.687647 -1.2787446,1.414195 -0.7597656,2.179687 0.311387,0.687647 1.7644805,0.617475 4.359375,-0.21289 1.9461697,-0.84334 3.0051605,-1.265625 3.1738285,-1.265625 0.285438,0.363285 0.285438,0.849184 0,1.458984 -0.454106,0.168668 -0.624582,0.343749 -0.507812,0.525391 0.311388,0.01298 0.633994,-0.0034 0.964843,-0.04883 0.330849,-0.04541 0.576102,-0.465741 0.738282,-1.263671 0.162181,-0.797929 0.253975,-1.362511 0.273437,-1.69336 0.01945,-0.330909 -0.119556,-0.502651 -0.417969,-0.515625 0.316763,-0.92725 0.09353,-1.925858 0.13086,-2.904297 -0.04448,-1.4668886 0.42964,-2.8024868 0.890625,-4.1699214 h 0.03906 l 0.300781,0.421875 c 0.427945,1.1768467 0.748919,1.9578785 0.962891,2.3457031 l -0.28125,1.9453123 c -0.08024,1.524553 -0.166156,2.366864 -0.259765,2.527344 l 0.27539,0.863281 0.546875,0.08008 c 0.414571,-0.347705 0.621094,-0.674838 0.621094,-0.982422 l -0.33984,-1.164061 V 12.835938 C 15.452278,11.217769 15.64453,10.199728 15.644531,9.7851562 15.62031,8.8645354 13.93992,5.9691926 13.699219,5.6503906 13.445885,5.143724 12.796667,4.8669792 11.75,4.8203125 c -0.18,-0.24 -0.275731,-0.4508594 -0.289062,-0.6308594 0.433332,-0.1 0.79651,-0.3263541 1.089843,-0.6796875 0.3,-0.3533333 0.44612,-0.9273698 0.439453,-1.7207031 C 12.983568,1.0023958 12.640937,0.49 11.960938,0.25 c -0.51,-0.18 -1.025624,-0.26304688 -1.546876,-0.24804687 z m -0.08594,0.45898437 c 0.321354,-0.006771 0.699476,0.0386719 1.132813,0.13867188 0.686669,0.15333331 1.032395,0.58744792 1.039062,1.30078122 0.0067,0.7066667 -0.192943,1.2221615 -0.599609,1.5488282 -0.4,0.3333333 -0.733334,0.3569819 -1,0.070312 -0.12,-0.12 -0.143664,-0.2157291 -0.07031,-0.2890624 0.193333,-0.06 0.282865,-0.2111719 0.269531,-0.4511719 C 11.306276,2.5259635 11.410156,2.310859 11.410156,2.130859 11.423487,1.8041947 11.26612,1.6468232 10.939453,1.6601562 10.80612,1.6734896 10.692943,1.7157292 10.599609,1.7890625 9.9462784,1.3557292 9.3803906,1.1642708 8.9003906,1.2109375 9.093724,0.8709375 9.3972135,0.64263021 9.8105469,0.52929688 9.9630469,0.48679688 10.135312,0.465 10.328125,0.4609375 Z M 9.0976562,1.546875 c 0.4078296,0.0125 0.8427322,0.1929685 1.3027348,0.5429688 l -0.07031,0.1992187 c 0.08,0.046667 0.157136,0.061016 0.230469,0.041016 0.106667,-0.28 0.226042,-0.4199216 0.359375,-0.4199219 0.16,-0.02 0.234036,0.060234 0.220703,0.2402344 0,0.1666667 -0.09148,0.3538802 -0.271484,0.5605469 0,0.2133333 -0.05969,0.3028643 -0.179688,0.2695313 -0.12,-0.026667 -0.170386,-0.094505 -0.150391,-0.2011719 -0.08,0.3 -0.0091,0.680625 0.210938,1.140625 0.213333,0.4666666 0.376901,0.8236458 0.490234,1.0703125 0.113334,0.2466666 0.292396,0.3772916 0.539063,0.390625 0.246667,0.013333 0.531562,0.049375 0.851562,0.109375 0.32,0.06 0.408502,0.2778769 0.259766,0.6503906 -0.710156,1.7786014 -1.038637,3.2786833 -1.136719,5.0664056 -0.0066,7.21e-4 -0.0088,0.0012 -0.01563,0.002 -0.634049,0.07845 -1.45044,0.354321 -2.3203122,0.740235 C 8.74613,9.8443095 8.3289554,8.6550624 8.1796875,8.4394531 c -0.18,-0.26 -0.2303906,-1.0018489 -0.1503906,-2.2285156 -0.033333,-0.42 0.31125,-0.6308594 1.03125,-0.6308594 0.7466666,0 1.0892971,-0.1697656 1.0292971,-0.5097656 L 9.9492188,4.6601562 C 9.8758852,4.4068229 9.8460417,4.2494531 9.859375,4.1894531 c -0.1466667,-0.04 -0.352474,-0.02875 -0.6191406,0.03125 -0.4533334,0.04 -0.7207813,0.019453 -0.8007813,-0.060547 -0.08,-0.08 -0.1067454,-0.1900781 -0.080078,-0.3300781 L 8.6796876,3.720703 c 0.073333,-0.04 0.087682,-0.1078384 0.041016,-0.2011719 L 8.2695312,3.4804688 C 8.3761979,3.2538021 8.3638021,3.1026302 8.2304688,3.0292969 8.0504681,3.0426302 7.9609375,2.9972917 7.9609375,2.890625 8.0076042,2.8039583 8.1002344,2.6434896 8.2402344,2.4101562 8.3802344,2.1768232 8.55,2.0276042 8.75,1.9609375 c 0.2066667,-0.066667 0.409375,-0.05737 0.609375,0.029297 0.2,0.08 0.3903125,0.1427864 0.5703125,0.1894531 L 9.9804688,2.0605469 C 9.813802,2.0205469 9.6409375,1.9527083 9.4609375,1.859375 c -0.3466667,-0.18 -0.6470573,-0.18 -0.9003906,0 0.033333,-0.12 0.078672,-0.2095313 0.1386719,-0.2695312 0.1299998,-0.033333 0.2624944,-0.047135 0.3984374,-0.042969 z M 9.0800781,2.0605469 C 8.9134115,2.0605469 8.8033333,2.087292 8.75,2.140625 8.703333,2.193958 8.6405469,2.2207031 8.5605469,2.2207031 v 0.089844 l 0.1386719,0.019531 c 0.1799999,0.18 0.4648959,0.2036464 0.8515624,0.070312 l 0.25,0.070312 0.019531,-0.1816406 -0.2207031,-0.019531 C 9.3862763,2.1495322 9.2134115,2.0805469 9.0800781,2.0605469 Z m 2.6640629,9.5742191 c -0.08326,1.099041 0.315165,1.78702 -0.111329,2.677734 -0.908212,0.531953 -1.9980328,0.86244 -3.2695308,0.992188 -1.2714984,0.129744 -2.3501578,0.595973 -3.2324218,1.40039 0.506005,-1.232574 0.9479587,-2.029292 1.3242187,-2.392578 0.376259,-0.363284 1.1093638,-0.838023 2.1992188,-1.421875 1.089855,-0.583851 2.5111821,-1.151783 3.0898441,-1.255859 z"
     sodipodi:nodetypes="scccccccccccccccccscscccccccccsccccccccccsccccccccsccccccccccccccccccccssscccccccccccsscccccccccsssscccscsccccsccccccscccccccsccccccccccccccsscc" />
</svg>
