<?xml version="1.0" encoding="UTF-8" standalone="no"?>
<svg
   width="1000"
   height="1000"
   version="1.1"
   id="svg1"
   sodipodi:docname="13461.svg"
   inkscape:version="1.4.2 (f4327f4, 2025-05-13)"
   xmlns:inkscape="http://www.inkscape.org/namespaces/inkscape"
   xmlns:sodipodi="http://sodipodi.sourceforge.net/DTD/sodipodi-0.dtd"
   xmlns="http://www.w3.org/2000/svg"
   xmlns:svg="http://www.w3.org/2000/svg">
  <defs
     id="defs1" />
  <sodipodi:namedview
     id="namedview1"
     pagecolor="#ffffff"
     bordercolor="#666666"
     borderopacity="1.0"
     inkscape:showpageshadow="2"
     inkscape:pageopacity="0.0"
     inkscape:pagecheckerboard="0"
     inkscape:deskcolor="#d1d1d1"
     inkscape:zoom="2.1354625"
     inkscape:cx="568.72926"
     inkscape:cy="222.20011"
     inkscape:window-width="1680"
     inkscape:window-height="998"
     inkscape:window-x="-8"
     inkscape:window-y="-8"
     inkscape:window-maximized="1"
     inkscape:current-layer="svg1"
     showguides="true">
    <sodipodi:guide
       position="1000,1000"
       orientation="0,-1"
       id="guide1"
       inkscape:locked="false" />
    <sodipodi:guide
       position="1000,0"
       orientation="0,-1"
       id="guide2"
       inkscape:locked="false" />
    <sodipodi:guide
       position="566.36523,716.50391"
       orientation="0,-1"
       id="guide13"
       inkscape:locked="false" />
  </sodipodi:namedview>
  <path
     id="path4"
     style="fill:#000000;stroke:none;stroke-width:0.999999"
     d="m 610.37109,0.0546875 c -9.88526,0.20546721 -19.9877,0.9934999 -30.30664,2.3632813 -41.27609,5.4791258 -71.04687,37.4389242 -89.31054,95.8828122 -10.22775,13.149919 -21.91454,31.050249 -35.06446,53.697269 -7.30567,15.34156 -7.67261,23.92367 -1.09765,25.75 6.57496,1.82639 12.05629,4.56797 16.43945,8.2207 -11.4728,6.55623 -6.49465,12.97936 1.09375,14.24414 2.19124,-0.73056 1.46115,0.73204 -2.19141,4.38477 -3.65321,3.65273 -3.10593,6.75559 1.64258,9.3125 4.74863,2.55688 7.12305,10.41258 7.12305,23.5625 0,12.41931 6.94184,18.6289 20.82226,18.6289 16.07208,0 27.76096,-0.7323 35.06641,-2.19336 l 4.18359,32.4336 c -81.34623,1.28658 -138.51222,26.02161 -171.49804,74.20312 -23.996,18.37192 -56.23929,53.6162 -96.73242,105.73242 -19.87167,-22.12127 -60.92844,-56.80287 -123.16797,-104.04492 -14.24767,-33.36938 -26.24588,-60.92749 -35.99414,-82.67383 -10.12333,-22.12127 -41.618245,-43.11857 -94.484379,-62.99023 -7.4987316,0.74987 -12.7466935,5.99969 -15.7460935,15.74805 -2.6246467,9.37342 -0.7509333,14.06054 5.6230469,14.06054 16.4972006,4.1243 31.4964076,11.2478 44.9941406,21.3711 13.122667,9.74836 24.745741,27.18392 34.869141,52.30468 -23.995934,-8.62354 -40.493588,-20.05903 -49.492188,-34.30664 -8.6234,-14.62253 -17.434994,-19.49722 -26.433594,-14.62304 12.373,38.24356 45.555939,73.48784 99.546876,105.73242 l 90.54687,110.79297 c 37.49367,47.99192 71.80013,58.48959 102.91993,31.49414 30.74486,-26.62053 70.67621,-60.3643 119.79296,-101.23242 -4.12432,38.99344 1.12357,73.8626 15.7461,104.60742 12.51719,27.01092 32.41484,83.10569 59.6914,168.28515 -19.8865,-23.13362 -94.93155,-116.55665 -124.34374,-146.67382 -25.00555,-32.15311 -71.68613,-19.3995 -86.89454,16.82812 -9.3197,31.26577 -4.52089,62.56883 -2.52929,89.42578 5.0987,68.75773 97.07786,202.52383 92.94336,244.40625 -4.1346,41.88257 -28.77791,33.42868 -58.84571,43.44922 -30.0683,10.01947 -59.29646,18.19959 -87.88476,24.3086 -28.5883,6.109 -43.66438,12.34091 -44.98828,18.47851 -1.3239,6.1376 1.59645,10.64 8.68945,13.5293 7.0929,2.8891 22.95355,4.36046 47.62695,4.50976 24.6735,0.1464 48.11571,-1.97783 70.28711,-6.49023 22.1715,-4.5121 41.09991,-2.82675 56.53711,5.28125 48.2991,11.25223 98.43943,-23.23478 64.45703,-68.9668 1.5517,-62.94493 -16.0323,-111.12871 -20.1914,-150.84961 48.4695,62.70039 150.31483,200.55491 192.71093,207.65821 38.3137,6.4193 100.86443,-14.51988 111.42383,-58.51758 16.6615,-55.89336 14.43827,-111.52502 4.50977,-168.18164 -6.7869,-60.48603 -10.59846,-126.22324 -8.64453,-186.42578 28.67629,19.01707 58.79339,35.21437 92.13281,43.30468 35.24407,7.49875 51.74165,-6.56068 49.49219,-42.17968 -1.8748,-35.99395 -21.184,-97.85853 -57.92774,-185.59375 -7.12373,-71.9879 -52.17038,-104.92414 -136.90625,-106.79883 v -53.69727 c 19.72488,-8.03606 38.71875,-23.01127 56.98242,-44.92773 18.26368,-21.91646 27.3945,-52.23406 27.39454,-90.953128 0,-38.719115 -17.16608,-64.652872 -51.50196,-77.802734 C 667.7306,4.0614711 640.02679,-0.56171422 610.37109,0.0546875 Z m 6.67579,19.6210935 c 15.15889,0.91319 31.87109,3.745586 50.13476,8.494141 36.52747,9.497151 54.79102,31.414184 54.79102,65.75 0,33.605238 -12.23755,62.095098 -36.71094,85.472658 -24.47351,23.37757 -39.99731,29.58911 -46.57227,18.63086 -8.03595,-10.22772 -2.0081,-25.20488 18.08203,-44.92969 20.08978,-19.72482 25.02071,-39.08581 14.79297,-58.080078 -10.22774,-18.9943 -31.77765,-20.45296 -64.65234,-4.38086 -10.95811,-12.419351 -37.25917,-21.91919 -78.90039,-28.49414 8.03593,-20.455361 24.10866,-33.604819 48.2168,-39.449219 12.05408,-2.922179 25.65945,-3.926858 40.81836,-3.013672 z m -99.99219,61.091797 c 33.60531,2.191653 61.36674,10.959264 83.2832,26.300782 -1.46111,13.1499 3.65102,13.6986 15.33984,1.64453 23.74064,-24.482583 53.98634,-11.876528 37.25782,20.82031 -8.03605,15.7068 -18.08079,29.0398 -30.13477,39.99805 -12.05418,10.95821 -14.79371,21.91675 -8.21875,32.875 6.57496,10.95822 10.95881,20.45614 13.15039,28.49219 -0.7305,58.44394 4.01694,88.02326 14.24414,88.75976 11.01989,0.79359 16.43602,-0.91941 53.17969,2.08008 36.74393,2.99949 39.36778,39.18159 7.87305,108.54492 -6.86535,18.19352 -12.18154,40.58199 -16.04883,65.90625 l -2.50977,-1.23047 -29.80664,-13.49609 c -8.99846,-23.99596 -19.12302,-46.67937 -30.37109,-68.05078 -11.24807,-20.99647 -43.86649,-40.12009 -97.85742,-57.36719 -7.12394,1.49976 -11.62338,7.31226 -13.49805,17.43555 -1.4996,9.74837 0.18641,14.24792 5.06055,13.49805 16.4972,2.62456 31.86965,8.4351 46.11718,17.43359 13.87274,8.99847 26.62104,26.05891 38.24415,51.17969 -24.74582,-6.74886 -41.80623,-17.24654 -51.17969,-31.49414 -9.7484,-13.87268 -18.74561,-18.37222 -26.99414,-13.49805 14.24753,37.11876 49.11669,70.67498 104.60742,100.66992 17.46766,12.20639 34.78678,25.44067 52.4082,38.36133 -4.60519,65.86603 -1.89005,142.88149 6.94141,215.74805 11.4175,42.65334 10.48853,91.88916 -4.50977,148.05273 0,0 -19.24881,40.25625 -71.16601,34.97656 -51.0036,-5.1868 -205.69549,-244.70506 -211.45899,-250.72851 -25.0379,-26.16715 -54.41694,-56.76342 -72.93164,-104.60742 -9.825,-20.52577 -0.52392,-40.07769 24.20508,-31.01563 25.5907,9.37781 58.14421,77.54901 144.69141,161.08398 17.0166,11.95448 52.07182,15.14684 44.54492,-17.15039 C 501.94405,596.58978 476.85803,528.30934 466.25781,501.14648 454.25995,470.7766 450.69813,426.53319 455.57227,368.41797 c 7.49873,-34.86914 28.86921,-51.92762 64.11328,-51.17774 35.24406,0.74988 48.43272,-10.2002 46.67968,-33.74414 -2.3868,-32.05545 -13.51459,-46.75426 -40.54492,-43.83203 -27.03033,2.9222 -38.35396,-5.84347 -33.9707,-26.29883 16.07221,-9.49716 21.73483,-16.25735 16.98633,-20.27539 -4.74853,-4.01804 -13.33459,-6.39054 -25.75391,-7.12109 0,-7.30547 -6.20959,-13.51699 -18.62891,-18.63086 12.41934,-27.76087 24.47338,-47.11987 36.16211,-58.07812 11.68882,-5.84438 23.92626,-5.84438 36.71094,0 12.78467,5.8444 25.38732,9.86301 37.80664,12.05468 v -7.67187 c -8.03606,-0.73055 -18.44773,-4.56563 -31.23242,-11.50586 C 531.11583,95.196502 518.14992,93.91754 505,98.300781 c 4.38326,-7.30546 8.40214,-13.149903 12.05469,-17.533203 z M 640.2832,101.96094 c -2.29134,-0.13166 -5.01166,0.26721 -8.16797,1.27148 -16.7757,5.33774 -34.34185,32.31946 -28.49023,41.0957 -13.32962,5.92448 -16.32715,19.62906 -4.38477,24.10743 12.60324,4.72622 40.23122,-23.86818 47.1211,-41.09375 5.71434,-14.28684 3.85052,-24.81037 -6.07813,-25.38086 z m -121.11132,9.14062 c -4.60875,0.14268 -8.96683,1.35572 -13.07618,3.63867 l -10.95898,9.86133 v 8.76758 h 5.47851 c 15.3416,7.30547 32.50963,7.30547 51.50391,0 l 19.72461,3.28711 v -9.86133 L 553.2168,125.69727 C 540.66051,115.65222 529.311,110.78766 519.17188,111.10156 Z m 116.30078,2.58008 c 3.28743,0.09 4.72536,2.08635 4.31445,5.99024 -0.73059,6.94021 -3.8373,13.51497 -9.31641,19.7246 -5.47912,6.20967 -10.59329,10.59154 -15.34179,13.14844 -4.74841,2.55693 -4.74841,0.54761 0,-6.02734 4.7485,-6.5752 4.7485,-8.9475 0,-7.1211 -4.74841,1.82636 -5.66079,-0.18295 -2.73829,-6.02734 2.9222,-5.84439 6.94083,-11.32362 12.05469,-16.4375 4.79428,-2.23731 8.47042,-3.31991 11.02735,-3.25 z m -119.51563,4.3457 c -2.92251,3.65276 -2.92251,7.67139 0,12.05469 -4.38328,-1.46107 -8.03508,-2.92367 -10.95703,-4.38476 1.4611,-2.92221 5.11255,-5.47828 10.95703,-7.66993 z m 14.24609,2.19141 15.3418,8.76758 c -5.84446,1.46109 -11.68885,2.18945 -17.5332,2.18945 5.1144,-2.92221 5.84399,-6.57372 2.1914,-10.95703 z m 72.32422,32.87305 c 5.11387,3.65272 6.02745,6.7595 2.74024,9.3164 -3.28731,2.55716 -5.66175,2.37536 -7.12305,-0.54687 -1.4612,-2.92222 -3.6e-4,-5.84537 4.38281,-8.76758 z m -104.69726,11.7539 c -1.29007,-0.0347 -2.54882,2.27245 -2.14453,4.68555 0.62704,3.76189 -4.10123,7.67821 -9.86328,1.09375 -7.02914,-8.03382 -10.41005,-3.97649 -10.41016,1.09766 2.92207,-1.4607 6.02735,-0.1819 9.31445,3.83593 7.24115,8.85011 16.0081,0.62173 15.33985,-6.02734 -0.3389,-3.38796 -1.29502,-4.66026 -2.23633,-4.68555 z m -18.29297,26.26758 c 2.4724,0.0724 5.245,0.92546 17.24414,2.52539 5.47922,0.73051 7.85168,1.09766 7.12109,1.09766 l -26.29687,1.09375 c -4.80458,-1.202 -4.25627,-4.89805 1.93164,-4.7168 z m 23.27148,6.91016 c -2.34915,2.34871 -11.97477,6.84701 -18.6289,7.66992 -6.70857,0.8296 -6.92804,-1.83978 -4.38477,-4.38281 z m 231.7168,235.07226 c 13.87273,43.86762 30.36861,79.11197 49.49023,105.73242 -4.6764,-3.95706 -26.60786,-13.26522 -65.79882,-27.92187 3.39816,-29.10689 8.69516,-55.5793 16.30859,-77.81055 z"
     sodipodi:nodetypes="ssccscccssscccccccccccccccccccccsscssscccccsccccccccssssssssccsccssccsscscssccccccccccccccccsscsccccssscscccsccsccsscssssccccccccsssssssccsccccccccccsccscccccsssccscscccccc" />
</svg>
