<?xml version="1.0" encoding="UTF-8" standalone="no"?>
<svg
   width="1000"
   height="1000"
   version="1.1"
   id="svg1"
   sodipodi:docname="13465.svg"
   inkscape:version="1.4.2 (f4327f4, 2025-05-13)"
   xmlns:inkscape="http://www.inkscape.org/namespaces/inkscape"
   xmlns:sodipodi="http://sodipodi.sourceforge.net/DTD/sodipodi-0.dtd"
   xmlns="http://www.w3.org/2000/svg"
   xmlns:svg="http://www.w3.org/2000/svg">
  <defs
     id="defs1" />
  <sodipodi:namedview
     id="namedview1"
     pagecolor="#ffffff"
     bordercolor="#666666"
     borderopacity="1.0"
     inkscape:showpageshadow="2"
     inkscape:pageopacity="0.0"
     inkscape:pagecheckerboard="0"
     inkscape:deskcolor="#d1d1d1"
     inkscape:zoom="0.53386562"
     inkscape:cx="429.88346"
     inkscape:cy="349.33885"
     inkscape:window-width="1680"
     inkscape:window-height="998"
     inkscape:window-x="-8"
     inkscape:window-y="-8"
     inkscape:window-maximized="1"
     inkscape:current-layer="svg1"
     showguides="true">
    <sodipodi:guide
       position="1000,1000"
       orientation="0,-1"
       id="guide1"
       inkscape:locked="false" />
    <sodipodi:guide
       position="1000,0"
       orientation="0,-1"
       id="guide2"
       inkscape:locked="false" />
    <sodipodi:guide
       position="566.36523,716.50391"
       orientation="0,-1"
       id="guide13"
       inkscape:locked="false" />
  </sodipodi:namedview>
  <path
     id="path4"
     style="fill:#000000;stroke:none;stroke-width:0.999999"
     d="M 610.37109 0.0546875 C 600.48583 0.26015471 590.38339 1.0481874 580.06445 2.4179688 C 538.78836 7.8970946 509.01758 39.856893 490.75391 98.300781 C 480.52616 111.4507 468.83937 129.35103 455.68945 151.99805 C 448.38378 167.33961 448.01684 175.92172 454.5918 177.74805 C 461.16676 179.57444 466.64809 182.31602 471.03125 185.96875 C 459.55845 192.52498 464.5366 198.94811 472.125 200.21289 C 474.31624 199.48233 473.58615 200.94493 469.93359 204.59766 C 466.28038 208.25039 466.82766 211.35325 471.57617 213.91016 C 476.3248 216.46704 478.69922 224.32274 478.69922 237.47266 C 478.69922 249.89197 485.64106 256.10156 499.52148 256.10156 C 515.59356 256.10156 527.28244 255.36926 534.58789 253.9082 L 538.77148 286.3418 C 457.42525 287.62838 400.25926 312.36341 367.27344 360.54492 C 343.27744 378.91684 311.03415 414.16112 270.54102 466.27734 C 250.66935 444.15607 209.61258 409.47447 147.37305 362.23242 C 133.12538 328.86304 121.12717 301.30493 111.37891 279.55859 C 101.25558 257.43732 69.760665 236.44002 16.894531 216.56836 C 9.3957994 217.31823 4.1478375 222.56805 1.1484375 232.31641 C -1.4762092 241.68983 0.3975042 246.37695 6.7714844 246.37695 C 23.268685 250.50125 38.267892 257.62475 51.765625 267.74805 C 64.888292 277.49641 76.511366 294.93197 86.634766 320.05273 C 62.638832 311.42919 46.141178 299.9937 37.142578 285.74609 C 28.519178 271.12356 19.707584 266.24887 10.708984 271.12305 C 23.081984 309.36661 56.264923 344.61089 110.25586 376.85547 L 200.80273 487.64844 C 238.2964 535.64036 272.60286 546.13803 303.72266 519.14258 C 334.46752 492.52205 374.39887 458.77828 423.51562 417.91016 C 419.3913 456.9036 424.63919 491.77276 439.26172 522.51758 C 451.77891 549.5285 471.67656 605.62327 498.95312 690.80273 C 479.06662 667.66911 404.02157 574.24608 374.60938 544.12891 C 349.60383 511.9758 302.92325 524.72941 287.71484 560.95703 C 278.39514 592.2228 283.19395 623.52586 285.18555 650.38281 C 290.28425 719.14054 382.26341 852.90664 378.12891 894.78906 C 373.99431 936.67163 349.351 928.21774 319.2832 938.23828 C 289.2149 948.25775 259.98674 956.43787 231.39844 962.54688 C 202.81014 968.65588 187.73406 974.88779 186.41016 981.02539 C 185.08626 987.16299 188.00661 991.66539 195.09961 994.55469 C 202.19251 997.44379 218.05316 998.91515 242.72656 999.06445 C 267.40006 999.21085 290.84227 997.08662 313.01367 992.57422 C 335.18517 988.06212 354.11358 989.74747 369.55078 997.85547 C 417.84988 1009.1077 467.99021 974.62069 434.00781 928.88867 C 435.55951 865.94374 417.97551 817.75996 413.81641 778.03906 C 462.28591 840.73945 564.13124 978.59397 606.52734 985.69727 C 644.84104 992.11657 707.39177 971.17739 717.95117 927.17969 C 734.61267 871.28633 732.38944 815.65467 722.46094 758.99805 C 709.66125 644.92487 707.44319 512.17581 734.52539 433.0957 C 751.31479 454.33347 779.40692 501.50713 823.51172 570.91797 C 817.72752 615.02282 814.82227 680.38289 814.82227 767.14648 C 798.19257 791.72954 789.85362 822.82434 789.85352 860.42188 C 789.85352 898.01945 793.70117 916.66038 801.29297 916.29883 C 808.88477 915.9384 814.77313 900.95672 819.11133 871.3125 C 855.26273 871.3125 873.33789 860.82137 873.33789 839.85352 C 873.33789 819.60868 868.65907 794.96803 859.25977 766.04688 C 878.78157 687.9596 888.25034 617.54233 887.52734 554.63867 C 870.16924 509.08773 844.67622 432.92928 779.60352 331.70508 L 779.60156 331.70898 C 758.27466 298.53192 718.80225 282.59219 660.60742 281.30469 L 660.60742 227.60742 C 680.3323 219.57136 699.32617 204.59615 717.58984 182.67969 C 735.85352 160.76323 744.98434 130.44563 744.98438 91.726562 C 744.98438 53.007447 727.8183 27.07369 693.48242 13.923828 C 667.7306 4.0614711 640.02679 -0.56171422 610.37109 0.0546875 z M 617.04688 19.675781 C 632.20577 20.588971 648.91797 23.421367 667.18164 28.169922 C 703.70911 37.667073 721.97266 59.584106 721.97266 93.919922 C 721.97266 127.52516 709.73511 156.01502 685.26172 179.39258 C 660.78821 202.77015 645.26441 208.98169 638.68945 198.02344 C 630.6535 187.79572 636.68135 172.81856 656.77148 153.09375 C 676.86126 133.36893 681.79219 114.00794 671.56445 95.013672 C 661.33671 76.019372 639.7868 74.560712 606.91211 90.632812 C 595.954 78.213461 569.65294 68.713622 528.01172 62.138672 C 536.04765 41.683311 552.12038 28.533853 576.22852 22.689453 C 588.2826 19.767274 601.88797 18.762595 617.04688 19.675781 z M 517.05469 80.767578 C 550.66 82.959231 578.42143 91.726842 600.33789 107.06836 C 598.87678 120.21826 603.98891 120.76696 615.67773 108.71289 C 639.41837 84.230307 669.66407 96.836362 652.93555 129.5332 C 644.8995 145.24 634.85476 158.573 622.80078 169.53125 C 610.7466 180.48946 608.00707 191.448 614.58203 202.40625 C 621.15699 213.36447 625.54084 222.86239 627.73242 230.89844 C 627.00192 289.34238 631.74936 318.9217 641.97656 319.6582 C 652.99645 320.45179 658.41258 318.73879 695.15625 321.73828 C 731.90018 324.73777 734.52403 360.91987 703.0293 430.2832 C 675.8599 502.28343 672.94359 639.97509 688.14258 765.37891 C 699.56008 808.03225 698.63111 857.26807 683.63281 913.43164 C 683.63281 913.43164 664.384 953.68789 612.4668 948.4082 C 561.4632 943.2214 406.77131 703.70314 401.00781 697.67969 C 375.96991 671.51254 346.59087 640.91627 328.07617 593.07227 C 318.25117 572.5465 327.55225 552.99458 352.28125 562.05664 C 377.87195 571.43445 410.42546 639.60565 496.97266 723.14062 C 513.98926 735.0951 549.04448 738.28746 541.51758 705.99023 C 501.94405 596.58978 476.85803 528.30934 466.25781 501.14648 C 454.25995 470.7766 450.69813 426.53319 455.57227 368.41797 C 463.071 333.54883 484.44148 316.49035 519.68555 317.24023 C 554.92961 317.99011 568.11827 307.04003 566.36523 283.49609 C 563.97843 251.44064 552.85064 236.74183 525.82031 239.66406 C 498.78998 242.58626 487.46635 233.82059 491.84961 213.36523 C 507.92182 203.86807 513.58444 197.10788 508.83594 193.08984 C 504.08741 189.0718 495.50135 186.6993 483.08203 185.96875 C 483.08203 178.66328 476.87244 172.45176 464.45312 167.33789 C 476.87246 139.57702 488.9265 120.21802 500.61523 109.25977 C 512.30405 103.41539 524.54149 103.41539 537.32617 109.25977 C 550.11084 115.10417 562.71349 119.12278 575.13281 121.31445 L 575.13281 113.64258 C 567.09675 112.91203 556.68508 109.07695 543.90039 102.13672 C 531.11583 95.196502 518.14992 93.91754 505 98.300781 C 509.38326 90.995321 513.40214 85.150878 517.05469 80.767578 z M 640.2832 101.96094 C 637.99186 101.82928 635.27154 102.22815 632.11523 103.23242 C 615.33953 108.57016 597.77338 135.55188 603.625 144.32812 C 590.29538 150.2526 587.29785 163.95718 599.24023 168.43555 C 611.84347 173.16177 639.47145 144.56737 646.36133 127.3418 C 652.07567 113.05496 650.21185 102.53143 640.2832 101.96094 z M 519.17188 111.10156 C 514.56313 111.24424 510.20505 112.45728 506.0957 114.74023 L 495.13672 124.60156 L 495.13672 133.36914 L 500.61523 133.36914 C 515.95683 140.67461 533.12486 140.67461 552.11914 133.36914 L 571.84375 136.65625 L 571.84375 126.79492 L 553.2168 125.69727 C 540.66051 115.65222 529.311 110.78766 519.17188 111.10156 z M 635.47266 113.68164 C 638.76009 113.77164 640.19802 115.76799 639.78711 119.67188 C 639.05652 126.61209 635.94981 133.18685 630.4707 139.39648 C 624.99158 145.60615 619.87741 149.98802 615.12891 152.54492 C 610.3805 155.10185 610.3805 153.09253 615.12891 146.51758 C 619.87741 139.94238 619.87741 137.57008 615.12891 139.39648 C 610.3805 141.22284 609.46812 139.21353 612.39062 133.36914 C 615.31282 127.52475 619.33145 122.04552 624.44531 116.93164 C 629.23959 114.69433 632.91573 113.61173 635.47266 113.68164 z M 515.95703 118.02734 C 513.03452 121.6801 513.03452 125.69873 515.95703 130.08203 C 511.57375 128.62096 507.92195 127.15836 505 125.69727 C 506.4611 122.77506 510.11255 120.21899 515.95703 118.02734 z M 530.20312 120.21875 L 545.54492 128.98633 C 539.70046 130.44742 533.85607 131.17578 528.01172 131.17578 C 533.12612 128.25357 533.85571 124.60206 530.20312 120.21875 z M 602.52734 153.0918 C 607.64121 156.74452 608.55479 159.8513 605.26758 162.4082 C 601.98027 164.96536 599.60583 164.78356 598.14453 161.86133 C 596.68333 158.93911 598.14417 156.01596 602.52734 153.09375 L 602.52734 153.0918 z M 497.83008 164.8457 C 496.54001 164.811 495.28126 167.11815 495.68555 169.53125 C 496.31259 173.29314 491.58432 177.20946 485.82227 170.625 C 478.79313 162.59118 475.41222 166.64851 475.41211 171.72266 C 478.33418 170.26196 481.43946 171.54076 484.72656 175.55859 C 491.96771 184.4087 500.73466 176.18032 500.06641 169.53125 C 499.72751 166.14329 498.77139 164.87099 497.83008 164.8457 z M 479.53711 191.11328 C 482.00951 191.18568 484.78211 192.03874 496.78125 193.63867 C 502.26047 194.36918 504.63293 194.73633 503.90234 194.73633 L 477.60547 195.83008 C 472.80089 194.62808 473.3492 190.93203 479.53711 191.11328 z M 502.80859 198.02344 C 500.45944 200.37215 490.83382 204.87045 484.17969 205.69336 C 477.47112 206.52296 477.25165 203.85358 479.79492 201.31055 L 502.80859 198.02344 z " />
</svg>
