<?xml version="1.0" encoding="UTF-8" standalone="no"?>
<svg
   width="16.1"
   height="17.78"
   version="1.1"
   id="svg1"
   sodipodi:docname="13464.svg"
   inkscape:version="1.4 (86a8ad7, 2024-10-11)"
   xmlns:inkscape="http://www.inkscape.org/namespaces/inkscape"
   xmlns:sodipodi="http://sodipodi.sourceforge.net/DTD/sodipodi-0.dtd"
   xmlns="http://www.w3.org/2000/svg"
   xmlns:svg="http://www.w3.org/2000/svg">
  <defs
     id="defs1" />
  <sodipodi:namedview
     id="namedview1"
     pagecolor="#ffffff"
     bordercolor="#666666"
     borderopacity="1.0"
     inkscape:showpageshadow="2"
     inkscape:pageopacity="0.0"
     inkscape:pagecheckerboard="0"
     inkscape:deskcolor="#d1d1d1"
     showguides="true"
     inkscape:zoom="30.026187"
     inkscape:cx="14.404094"
     inkscape:cy="11.240189"
     inkscape:window-width="1680"
     inkscape:window-height="998"
     inkscape:window-x="-8"
     inkscape:window-y="-8"
     inkscape:window-maximized="1"
     inkscape:current-layer="svg1">
    <sodipodi:guide
       position="11.774835,0"
       orientation="0,-1"
       id="guide6"
       inkscape:locked="false" />
  </sodipodi:namedview>
  <path
     style="fill:#000000; stroke:none"
     d="m 9.0800781,2.0605469 c -0.1666666,0 -0.2767448,0.026745 -0.3300781,0.080078 -0.046667,0.053333 -0.1094531,0.080078 -0.1894531,0.080078 v 0.089844 l 0.1386719,0.019531 c 0.18,0.18 0.4648958,0.2036459 0.8515624,0.070312 l 0.25,0.070312 0.019531,-0.1816406 -0.2207031,-0.019531 C 9.386276,2.1495312 9.2134115,2.0805469 9.0800781,2.0605469 Z"
     id="path3" />
  <path
     id="path1"
     style="fill:#000000;stroke:none"
     d="m 10.414062,0.00195313 c -0.17375,0.005 -0.348437,0.02216145 -0.523437,0.04882812 C 9.1439583,0.13744792 8.5966667,0.64984365 8.25,1.5898438 8.2033333,1.843177 8.0901562,2.0807814 7.9101562,2.3007812 7.7301563,2.5141148 7.6138802,2.7497656 7.5605469,3.0097656 c 0,0.1466667 0.09263,0.2238021 0.2792969,0.2304688 0.1866666,0.00667 0.2103132,0.069453 0.070312,0.1894531 -0.06,0.013333 -0.083648,0.043177 -0.070312,0.089844 0.00667,0.046667 0.030312,0.07651 0.070312,0.089844 -0.086667,0.093333 -0.086667,0.158073 0,0.1914062 0.093333,0.04 0.1262769,0.1058855 0.099609,0.1992188 -0.02,0.1 -0.00255,0.222474 0.050781,0.3691406 0.053333,0.1533334 0.3188281,0.2304688 0.7988281,0.2304688 l 0.6210938,-0.089844 c -0.026667,0.1 -0.011172,0.219375 0.048828,0.359375 -1.2,0.013333 -1.833619,0.3600382 -2.2402344,0.78125 C 6.3784632,6.5936771 5.4376504,8.2451007 4.9817877,9.5271629 4.5966881,9.3739439 3.9485536,9.2750351 3.039766,9.2316433 2.140398,9.1886524 1.5516475,9.0936529 1.270163,8.9448434 0.66620905,8.6124518 -0.1003441,8.4728399 -1.0274702,8.5277522 c -0.036676,0.1966084 0.0941478,0.3390619 0.3923671,0.4272456 l 0.15662336,0.8346725 c 0.14810709,0.2894017 0.38697051,0.4262967 0.71785757,0.4120677 0.44261955,-0.08969 0.90137887,-0.175772 1.37676647,-0.2593445 1.2361841,0.4725395 2.9193852,0.8163765 3.452497,0.8243515 0.3978388,0.006 0.6686262,-0.181172 0.8267615,-0.532522 C 6.1574137,9.6520785 6.9817365,8.274894 7.1047232,7.9415272 7.1936337,7.700527 7.5446952,7.6082373 7.5553325,7.7957631 c 0.042608,0.7511346 0.3766248,2.0804511 0.4841553,3.3484169 0.018114,0.2136 -0.1827801,0.312473 -0.2647316,0.328054 -1.7600964,0.334627 -3.1785091,0.936818 -4.2819685,1.475948 -1.1757727,0.375507 -1.6215593,1.002836 -1.3359106,1.882451 0.1078905,0.747114 1.5231872,1.083774 4.2466409,1.007726 2.1039225,-0.268903 3.971942,-0.04734 4.14061,-0.04734 0.285438,0.363285 0.285438,0.849184 0,1.458984 -0.454106,0.168668 -0.6245816,0.343749 -0.507812,0.525391 0.311388,0.01298 0.633994,-0.0034 0.964843,-0.04883 0.330849,-0.04541 0.576102,-0.465741 0.738282,-1.263671 0.162181,-0.797929 0.253975,-1.362511 0.273437,-1.69336 0.01945,-0.330909 -0.119556,-0.502651 -0.417969,-0.515625 0.316763,-0.92725 0.271331,-1.756891 0.579265,-2.68636 0.15882,-0.479395 0.18886,-1.196278 0.22622,-1.6378585 1.566666,0.4933335 2.602708,0.7402345 3.109375,0.7402345 0.393333,-0.04 0.589843,-0.209766 0.589843,-0.509766 C 15.752802,8.8135822 14.952552,7.3103906 13.699219,5.6503906 13.445885,5.143724 12.796667,4.8669792 11.75,4.8203125 c -0.18,-0.24 -0.275731,-0.4508594 -0.289062,-0.6308594 0.433332,-0.1 0.79651,-0.3263541 1.089843,-0.6796875 0.3,-0.3533333 0.44612,-0.9273698 0.439453,-1.7207031 C 12.983568,1.0023958 12.640937,0.49 11.960938,0.25 c -0.51,-0.18 -1.025624,-0.26304688 -1.546876,-0.24804687 z m -0.08594,0.45898437 c 0.321354,-0.006771 0.699478,0.0386719 1.132813,0.13867188 0.686669,0.15333331 1.032395,0.58744792 1.039062,1.30078122 0.0067,0.7066667 -0.192943,1.2221615 -0.599609,1.5488282 -0.4,0.3333333 -0.733334,0.35698 -1,0.070312 -0.12,-0.12 -0.143652,-0.2157291 -0.07031,-0.2890624 0.193333,-0.06 0.282865,-0.2111719 0.269531,-0.4511719 C 11.306276,2.5259635 11.410156,2.310859 11.410156,2.130859 11.423487,1.8041931 11.26612,1.646823 10.939453,1.6601562 10.80612,1.6734896 10.692943,1.7157292 10.599609,1.7890625 9.9462768,1.3557292 9.3803906,1.1642708 8.9003906,1.2109375 9.093724,0.8709375 9.3972135,0.64263021 9.8105469,0.52929688 9.9630469,0.48679688 10.135312,0.465 10.328125,0.4609375 Z M 9.0976562,1.546875 c 0.4078295,0.0125 0.8427338,0.1929685 1.3027348,0.5429688 l -0.07031,0.1992187 c 0.08,0.046667 0.157136,0.061016 0.230469,0.041016 0.106667,-0.28 0.226042,-0.4199216 0.359375,-0.4199219 0.16,-0.02 0.234036,0.060234 0.220703,0.2402344 0,0.1666667 -0.09148,0.3538802 -0.271484,0.5605469 0,0.2133333 -0.05969,0.3028644 -0.179688,0.2695313 -0.12,-0.026667 -0.170389,-0.094505 -0.150391,-0.2011719 -0.08,0.3 -0.0091,0.680625 0.210938,1.140625 0.213333,0.4666666 0.376901,0.8236458 0.490234,1.0703125 0.113334,0.2466666 0.292396,0.3772916 0.539063,0.390625 0.246667,0.013333 0.531562,0.049375 0.851562,0.109375 0.32,0.06 0.406433,0.2770573 0.259766,0.6503906 C 12.743961,6.5139587 12.437373,7.350391 11.970706,8.650391 L 11.5,8.4296875 C 11.173333,7.7696875 10.607448,7.21 9.8007812,6.75 9.6474481,6.8966667 9.6772917,7.0900781 9.890625,7.3300781 L 9.5292969,8.1191406 C 9.4826302,8.432474 9.6039583,8.679375 9.890625,8.859375 c 0.4,0.18 0.840311,0.2714844 1.320313,0.2714844 l 0.628906,0.5097656 -0.167162,1.535809 c 0,0 0.03439,-0.343768 -0.01557,-0.0024 -0.449608,-0.07493 -2.0329559,0.02028 -2.9758321,0.149093 -0.087454,-2.1910865 -0.5485595,-2.4211939 -0.651983,-5.1121895 -0.016181,-0.4210098 0.31125,-0.6308594 1.03125,-0.6308594 0.7466666,0 1.0892971,-0.1697656 1.0292971,-0.5097656 L 9.9492188,4.6601562 C 9.8758852,4.4068229 9.8460417,4.2494531 9.859375,4.1894531 c -0.1466667,-0.04 -0.352474,-0.02875 -0.6191406,0.03125 -0.4533334,0.04 -0.7207813,0.019453 -0.8007813,-0.060547 -0.08,-0.08 -0.106745,-0.1900781 -0.080078,-0.3300781 L 8.6796876,3.720703 c 0.073333,-0.04 0.087682,-0.1078384 0.041016,-0.2011719 L 8.2695312,3.4804688 C 8.3761979,3.2538021 8.3638021,3.1026302 8.2304688,3.0292969 8.0504685,3.0426302 7.9609375,2.9972917 7.9609375,2.890625 8.0076042,2.8039583 8.1002344,2.6434896 8.2402344,2.4101562 8.3802344,2.1768231 8.55,2.0276042 8.75,1.9609375 c 0.2066667,-0.066667 0.409375,-0.05737 0.609375,0.029297 0.2,0.08 0.3903125,0.1427864 0.5703125,0.1894531 L 9.9804688,2.0605469 C 9.813802,2.0205469 9.6409375,1.9527083 9.4609375,1.859375 c -0.3466667,-0.18 -0.6470573,-0.18 -0.9003906,0 0.033333,-0.12 0.078672,-0.2095313 0.1386719,-0.2695312 0.1299999,-0.033333 0.2624943,-0.047135 0.3984374,-0.042969 z m 4.1015628,5.6328125 c 0.26,0.5333333 0.77125,1.3100781 1.53125,2.3300781 C 14.443808,9.3164323 13.739141,9.113724 12.619141,8.9003906 Z m -1.64653,4.5048105 c -0.23572,0.957607 -0.251057,1.637375 -0.502702,2.628002 -0.908212,0.531953 -2.507891,0.185995 -3.7653201,-0.04294 -1.257429,-0.228941 -2.4231915,-0.08104 -3.4943451,0.446313 0.8287926,-1.043256 1.4748608,-1.685657 1.9373009,-1.929987 0.4624385,-0.244329 1.2986415,-0.496489 2.5078657,-0.754256 1.209224,-0.257765 2.7324196,-0.408067 3.3172006,-0.347128 z"
     sodipodi:nodetypes="sccccccccccccccsccccccccsssssscccccccsccsccccccccssscccccccccccsscccccccccssssccccccccccccsccccsccccccscccccccsccccccccssccc" />
</svg>
