<?xml version="1.0" encoding="UTF-8" standalone="no"?>
<svg
   width="1000"
   height="1000"
   version="1.1"
   id="svg1"
   sodipodi:docname="13463.svg"
   inkscape:version="1.4.2 (f4327f4, 2025-05-13)"
   xmlns:inkscape="http://www.inkscape.org/namespaces/inkscape"
   xmlns:sodipodi="http://sodipodi.sourceforge.net/DTD/sodipodi-0.dtd"
   xmlns="http://www.w3.org/2000/svg"
   xmlns:svg="http://www.w3.org/2000/svg">
  <path
     id="path8"
     style="fill:#000000;stroke:none;stroke-width:1"
     d="M 605.28853,0.05317323 C 595.6785,0.25291979 585.85733,1.019012 575.82569,2.3506557 535.69882,7.6772309 506.75692,38.7472 489.00175,95.563884 c -9.94299,12.783796 -21.30439,30.185746 -34.08819,52.202226 -7.10227,14.91441 -7.45899,23.25758 -1.06709,25.03306 6.3919,1.77554 11.72062,4.44079 15.98174,7.99182 -11.15337,6.37369 -6.31383,12.61799 1.0633,13.84755 2.13023,-0.71022 1.42047,0.71166 -2.1304,4.26269 -3.5515,3.55103 -3.01945,6.5675 1.59685,9.05322 4.61642,2.48569 6.92473,10.12267 6.92473,22.90647 0,12.07353 6.74856,18.11023 20.24252,18.11023 15.6246,0 26.98804,-0.71191 34.09009,-2.13229 l 4.06711,31.53058 c -79.08138,1.25076 -134.65575,25.29711 -166.72317,72.13714 -23.3279,17.86041 -54.67347,52.12341 -94.03918,102.7886 -19.3184,-21.50536 -59.23206,-55.22135 -119.73871,-101.14808 -13.85098,-32.44031 -25.51514,-59.23114 -34.99199,-80.37201 -9.84147,-21.50537 -40.4595,-41.91806 -91.853727,-61.23645 -7.289951,0.72899 -12.391798,5.83265 -15.307688,15.30959 -2.551571,9.11244 -0.730026,13.66906 5.466489,13.66906 16.037883,4.00947 30.61948,10.93464 43.741407,20.77609 12.757303,9.47694 24.056766,26.42706 33.898309,50.8484 -23.327836,-8.38344 -39.36616,-19.50054 -48.114219,-33.35147 -8.383306,-14.2154 -16.949567,-18.95437 -25.697626,-14.2159 12.028509,37.17878 44.287565,71.44178 96.775275,102.7886 l 88.02585,107.70826 c 36.44977,46.65572 69.80106,56.86111 100.05442,30.61727 29.88886,-25.87935 68.70842,-58.68363 116.45767,-98.41389 -4.00949,37.90778 1.09228,71.80611 15.30769,101.69493 13.12657,28.32589 34.60162,89.55275 64.42445,183.68086 -71.31161,30.83805 -155.47397,86.08898 -252.48383,165.75291 -50.11089,29.55366 -64.56616,68.73936 -43.36546,117.56842 14.13401,36.61783 95.72662,32.76553 244.77492,-11.56523 109.21635,-45.61484 168.64218,-68.41941 178.27894,-68.41941 16.06121,19.27216 16.06121,43.05348 0,76.4606 -26.33953,0 -35.65715,9.31431 -27.94764,27.94766 16.70374,1.29691 34.21134,0.51145 52.52121,-2.39627 18.30984,-2.8912 32.28377,-23.30117 41.92051,-66.34405 9.63669,-43.04297 14.93527,-73.39935 15.90009,-91.06765 0.96364,-17.6683 -7.2276,-26.82446 -24.57356,-27.46346 34.04965,-48.18366 34.04965,-110.50322 0,-186.9562 1.68464,-27.99364 3.76592,-54.60013 6.97409,-78.37833 32.44033,27.33733 65.79168,44.65023 100.05441,51.94019 34.2628,7.28997 50.30105,-6.37802 48.11422,-41.00531 -1.8226,-34.9918 -20.59419,-95.13394 -56.3149,-180.42642 -6.92539,-69.9836 -50.71785,-102.00282 -133.09449,-103.82532 v -52.20222 c 19.1757,-7.81232 37.64074,-22.37059 55.39591,-43.67685 17.75518,-21.30626 26.6318,-50.77975 26.63182,-88.420794 0,-37.641092 -16.68814,-62.852797 -50.06804,-75.636539 C 661.05021,3.9482826 634.11855,-0.54606655 605.28853,0.05317323 Z m 6.48992,19.07479977 c 14.73683,0.887765 30.98373,3.641301 48.7389,8.257646 35.51047,9.23273 53.26552,30.539546 53.26552,63.919379 0,32.669592 -11.89683,60.366232 -35.68883,83.092912 -23.79211,22.72669 -38.8837,28.76529 -45.2756,18.11214 -7.81221,-9.94296 -1.95219,-24.50312 17.57859,-43.67875 19.53044,-19.17564 24.32408,-37.99758 14.3811,-56.463005 -9.94297,-18.465457 -30.89289,-19.883506 -62.85228,-4.258887 -10.65301,-12.07357 -36.22179,-21.308913 -76.70363,-27.700802 7.81219,-19.88584 23.43742,-32.669188 46.87434,-38.350868 11.71847,-2.840819 24.94505,-3.817526 39.68189,-2.929765 z m -97.20819,59.39087 c 32.66966,2.130633 59.65816,10.654136 80.96441,25.568517 -1.42043,12.78377 3.54937,13.3172 14.91275,1.59874 23.07965,-23.800938 52.48324,-11.545865 36.22048,20.24063 -7.81231,15.26948 -17.57738,28.23127 -29.29575,38.88441 -11.71857,10.65311 -14.38182,21.30654 -7.98992,31.95969 6.3919,10.65312 10.65369,19.8866 12.78425,27.69891 -0.71016,56.81673 3.9051,85.5725 13.84755,86.2885 10.71308,0.77149 15.97841,-0.89381 51.69906,2.02216 35.7209,2.91598 38.27169,38.09069 7.65384,105.5228 -7.28982,19.31839 -13.30326,40.27621 -18.04188,62.87507 l -28.97676,-13.12033 c -8.74793,-23.32786 -18.5906,-45.37972 -29.5255,-66.1561 -10.9349,-20.41189 -42.64515,-39.00306 -95.13286,-55.76997 -6.92559,1.45801 -11.29976,7.10867 -13.12223,16.95011 -1.45785,9.47695 0.18122,13.85123 4.91965,13.12223 16.03789,2.55149 30.98233,8.20025 44.83318,16.94821 13.48649,8.74793 25.87987,25.33337 37.17935,49.75473 -24.05684,-6.56095 -40.64225,-16.76636 -49.75474,-30.61727 -9.47698,-13.48644 -18.22369,-17.8607 -26.24256,-13.12224 13.85085,36.0853 47.74918,68.70724 101.69492,97.86706 l 43.19268,32.80463 c -5.00594,31.17354 -8.73436,66.11066 -11.18362,104.81266 l -0.54304,0.1557 -122.07607,47.04143 C 490.02524,563.02352 476.29989,515.66834 465.18767,487.19349 453.52386,457.66918 450.06121,414.6576 454.79964,358.16043 c 7.28995,-33.89831 28.06543,-50.48184 62.32823,-49.75284 34.26279,0.729 47.08425,-9.91621 45.38002,-32.80463 -2.32035,-31.16296 -13.13832,-45.45252 -39.41607,-42.61165 -26.27774,2.84084 -37.2861,-5.68078 -33.02488,-25.56662 15.62473,-9.23274 21.12969,-15.80471 16.5134,-19.71088 -4.61633,-3.90617 -12.96333,-6.21261 -25.03687,-6.92282 0,-7.10207 -6.0367,-13.14065 -18.11024,-18.11214 12.07356,-26.98795 23.79199,-45.80795 35.15528,-56.4611 11.36338,-5.68166 23.2601,-5.68166 35.68883,0 12.42871,5.68168 24.68048,9.5884 36.75402,11.71905 v -7.45827 c -7.81232,-0.71021 -17.93411,-4.43851 -30.36284,-11.185508 -12.42861,-6.746986 -25.03353,-7.99034 -37.81732,-3.729138 4.26122,-7.10206 8.1682,-12.783781 11.71906,-17.045041 z m 119.79756,20.603294 c -2.22754,-0.127995 -4.87212,0.25977 -7.94056,1.236083 -16.30862,5.18912 -33.38569,31.41961 -27.697,39.9515 -12.95849,5.75953 -15.87256,19.08255 -4.26268,23.43623 12.25233,4.59463 39.11109,-23.20364 45.80914,-39.94961 5.55524,-13.88906 3.74332,-24.119597 -5.9089,-24.674203 z M 516.6285,108.00826 c -4.48043,0.13871 -8.71717,1.31798 -12.71211,3.53736 l -10.65386,9.58677 v 8.52347 h 5.32598 c 14.91445,7.10207 31.60449,7.10207 50.06993,0 l 19.17543,3.19559 v -9.58676 l -18.10833,-1.06709 c -12.2067,-9.76538 -23.24022,-14.4945 -33.09704,-14.18934 z m 113.06272,2.50825 c 3.1959,0.0875 4.59379,2.02825 4.19432,5.82346 -0.71025,6.74698 -3.73046,13.13868 -9.05702,19.17542 -5.32657,6.03678 -10.29835,10.29665 -14.91464,12.78236 -4.6162,2.48574 -4.6162,0.53236 0,-5.85953 4.61629,-6.39213 4.61629,-8.69838 0,-6.92283 -4.6162,1.77551 -5.50318,-0.17786 -2.66205,-5.85953 2.84084,-5.68166 6.74758,-11.00834 11.71906,-15.97984 4.6608,-2.17502 8.23459,-3.22748 10.72033,-3.15951 z m -116.18806,4.2247 c -2.84114,3.55106 -2.84114,7.45781 0,11.71906 -4.26124,-1.42039 -7.81137,-2.84226 -10.65196,-4.26267 1.42042,-2.84085 4.9702,-5.32576 10.65196,-7.45639 z m 13.84945,2.1304 14.91465,8.52347 c -5.68174,1.42041 -11.36341,2.12849 -17.04504,2.12849 4.972,-2.84085 5.68129,-6.39069 2.13039,-10.65196 z m 70.31056,31.95779 c 4.97148,3.55102 5.85963,6.5713 2.66394,9.05701 -3.19578,2.48597 -5.50411,2.30923 -6.92473,-0.53164 -1.42051,-2.84086 -3.5e-4,-5.68262 4.26079,-8.52347 z M 495.8809,160.25605 c -1.25415,-0.0337 -2.47785,2.20918 -2.08482,4.55509 0.60958,3.65715 -3.98704,7.46444 -9.58866,1.0633 -6.83344,-7.81014 -10.12022,-3.86577 -10.12032,1.0671 2.84071,-1.42003 5.85953,-0.17684 9.05511,3.72913 7.03954,8.6037 15.5624,0.60442 14.91276,-5.85953 -0.32947,-3.29363 -1.25897,-4.5305 -2.17407,-4.55509 z m -17.78365,25.53623 c 0.85944,0.0252 1.83058,0.12759 2.91458,0.32469 3.90616,0.71024 8.52288,1.42016 13.84944,2.13039 5.32667,0.71017 7.63308,1.0671 6.92283,1.0671 l -25.56471,1.0633 c -4.67081,-1.16854 -4.13777,-4.76168 1.87786,-4.58548 z m 22.62355,6.71777 c -2.28374,2.28332 -11.64137,6.65637 -18.11023,7.45637 -6.52179,0.80651 -6.73515,-1.78855 -4.26269,-4.26078 z m 225.26531,228.52734 c 13.48648,42.64625 29.52309,76.90932 48.11231,102.78861 -4.73834,-4.00949 -27.70014,-13.66976 -68.88839,-28.97866 4.73843,-22.59887 11.66365,-47.2016 20.77608,-73.80995 z M 668.156,660.82431 c 27.62519,46.8993 15.09718,102.47449 -37.58377,166.71937 -32.765,19.9144 -84.64369,33.56594 -155.6345,40.95595 -70.99049,7.38683 -131.21974,32.92542 -180.68844,76.61059 28.26768,-66.81372 53.00229,-110.02111 74.20298,-129.61598 21.20099,-19.5949 61.19393,-43.3627 119.97796,-71.30929 58.78434,-27.94661 118.69313,-55.73352 179.72577,-83.36064 z" />
  <defs
     id="defs1" />
  <sodipodi:namedview
     id="namedview1"
     pagecolor="#ffffff"
     bordercolor="#666666"
     borderopacity="1.0"
     inkscape:showpageshadow="2"
     inkscape:pageopacity="0.0"
     inkscape:pagecheckerboard="0"
     inkscape:deskcolor="#d1d1d1"
     inkscape:zoom="0.3775"
     inkscape:cx="-22.516556"
     inkscape:cy="1015.894"
     inkscape:window-width="1680"
     inkscape:window-height="998"
     inkscape:window-x="-8"
     inkscape:window-y="-8"
     inkscape:window-maximized="1"
     inkscape:current-layer="svg1"
     showguides="true">
    <sodipodi:guide
       position="1000,1000"
       orientation="0,-1"
       id="guide1"
       inkscape:locked="false" />
    <sodipodi:guide
       position="1000,0"
       orientation="0,-1"
       id="guide2"
       inkscape:locked="false" />
    <sodipodi:guide
       position="566.36523,716.50391"
       orientation="0,-1"
       id="guide13"
       inkscape:locked="false" />
    <sodipodi:guide
       position="658.59961,271.08008"
       orientation="0,-1"
       id="guide8"
       inkscape:locked="false" />
  </sodipodi:namedview>
</svg>
