<?xml version="1.0" encoding="UTF-8" standalone="no"?>
<svg
   width="16.1"
   height="17.78"
   version="1.1"
   id="svg1"
   sodipodi:docname="13461.svg"
   inkscape:version="1.4 (86a8ad7, 2024-10-11)"
   xmlns:inkscape="http://www.inkscape.org/namespaces/inkscape"
   xmlns:sodipodi="http://sodipodi.sourceforge.net/DTD/sodipodi-0.dtd"
   xmlns="http://www.w3.org/2000/svg"
   xmlns:svg="http://www.w3.org/2000/svg">
  <defs
     id="defs1" />
  <sodipodi:namedview
     id="namedview1"
     pagecolor="#ffffff"
     bordercolor="#666666"
     borderopacity="1.0"
     inkscape:showpageshadow="2"
     inkscape:pageopacity="0.0"
     inkscape:pagecheckerboard="0"
     inkscape:deskcolor="#d1d1d1"
     showguides="true"
     inkscape:zoom="22.627417"
     inkscape:cx="-6.1650872"
     inkscape:cy="6.0766989"
     inkscape:window-width="1680"
     inkscape:window-height="998"
     inkscape:window-x="-8"
     inkscape:window-y="-8"
     inkscape:window-maximized="1"
     inkscape:current-layer="svg1">
    <sodipodi:guide
       position="0,6.8664551e-07"
       orientation="0,-1"
       id="guide1"
       inkscape:locked="false" />
  </sodipodi:namedview>
  <path
     id="path6"
     style="fill:#000000;stroke:none"
     d="m 10.414062,0.00195313 c -0.17375,0.005 -0.348437,0.02216145 -0.523437,0.04882812 C 9.1439583,0.13744792 8.5966667,0.64984345 8.25,1.5898438 8.2033333,1.843177 8.0901562,2.0807814 7.9101562,2.3007812 7.7301563,2.5141152 7.6138802,2.7497656 7.5605469,3.0097656 c 0,0.1466667 0.09263,0.2238021 0.2792969,0.2304688 0.1866666,0.00667 0.210315,0.069453 0.070312,0.1894531 -0.06,0.013333 -0.083648,0.043177 -0.070312,0.089844 0.00667,0.046667 0.030312,0.07651 0.070312,0.089844 -0.086667,0.093333 -0.086667,0.158073 0,0.1914062 0.093333,0.04 0.1262785,0.1058855 0.099609,0.1992188 -0.02,0.1 -0.00255,0.222474 0.050781,0.3691406 0.053333,0.1533334 0.3188281,0.2304688 0.7988281,0.2304688 l 0.6210938,-0.089844 c -0.026667,0.1 -0.011172,0.219375 0.048828,0.359375 -1.2,0.013333 -1.9469011,0.2745834 -2.2402344,0.78125 -1.0066667,0.84 -1.962474,1.7299219 -2.8691406,2.6699219 -0.18,-0.3733333 -0.5904688,-0.8845833 -1.2304688,-1.53125 -0.6333333,-0.64 -1.0027083,-1.1082031 -1.109375,-1.4082031 -0.22,-0.6533334 -0.6901562,-1.2746611 -1.41015622,-1.8613282 -0.16000001,0.1200001 -0.16000002,0.3134115 0,0.5800782 L 0.22070312,4.8203125 c -0.0866667,0.3133333 -0.003333,0.5757292 0.25,0.7890625 0.38666669,0.2333333 0.78278648,0.4802344 1.18945308,0.7402344 1.1200001,1.9866666 1.9389844,3.0607031 2.4589844,3.2207031 0.3933334,0.06 1.0177604,-0.290781 1.8710938,-1.0507813 1.06,-0.9266664 1.5363541,-1.2270572 1.4296875,-0.9003906 0,0.4333334 0.089531,0.8046614 0.2695312,1.1113282 0.1460841,0.2488835 0.556888,1.8488222 1.0497087,3.5360742 C 8.3860454,11.855768 7.0947266,10.15327 6.53125,9.6621094 6.4324043,9.5002054 6.2976135,9.3890701 6.1328125,9.3300781 5.8581437,9.2317581 5.1622721,9.4972865 4.9882812,9.9609375 c -0.030114,0.5934655 -0.045817,1.1209405 -0.044922,1.5878905 0.054307,1.223052 1.7238055,3.596154 1.6503906,4.339844 -0.073415,0.743693 -0.5110182,0.593553 -1.0449219,0.771484 -0.5339106,0.177912 -1.0529162,0.323167 -1.5605469,0.431641 -0.5076308,0.108476 -0.7753198,0.219142 -0.7988281,0.328125 -0.023508,0.108984 0.02835,0.188929 0.1542969,0.240234 0.1259463,0.0513 0.4075872,0.07743 0.8457031,0.08008 0.4381178,0.0026 0.8543571,-0.03511 1.2480469,-0.115234 0.3936902,-0.08012 0.7297927,-0.05022 1.0039062,0.09375 0.8576286,0.199804 1.7479436,-0.412562 1.1445313,-1.224609 0.027553,-1.117689 -0.018557,-1.574123 -0.092409,-2.279432 0.8606549,1.113347 2.4029792,3.162032 3.1557898,3.288162 0.680322,0.113985 1.791016,-0.257812 1.978516,-1.039062 0.295852,-0.992477 0.256376,-1.980299 0.08008,-2.986329 -0.05352,-0.226961 -0.09439,-0.49162 -0.128906,-0.773437 0.02374,-0.596099 -0.221628,-2.26604 -0.178618,-2.7743555 1.566666,0.4933335 2.602708,0.7402345 3.109375,0.7402345 0.393333,-0.04 0.589843,-0.209766 0.589843,-0.509766 C 15.752933,8.8135309 14.952552,7.3103906 13.699219,5.6503906 13.445885,5.143724 12.796667,4.8669792 11.75,4.8203125 c -0.18,-0.24 -0.275731,-0.4508594 -0.289062,-0.6308594 0.433332,-0.1 0.79651,-0.3263541 1.089843,-0.6796875 0.3,-0.3533333 0.44612,-0.9273698 0.439453,-1.7207031 C 12.983568,1.0023958 12.640937,0.49 11.960938,0.25 c -0.51,-0.18 -1.025624,-0.26304688 -1.546876,-0.24804687 z m -0.08594,0.45898437 c 0.321354,-0.006771 0.699476,0.0386719 1.132813,0.13867188 0.686669,0.15333331 1.032395,0.58744792 1.039062,1.30078122 0.0067,0.7066667 -0.192943,1.2221615 -0.599609,1.5488282 -0.4,0.3333333 -0.733334,0.3569819 -1,0.070312 -0.12,-0.12 -0.143664,-0.2157291 -0.07031,-0.2890624 0.193333,-0.06 0.282865,-0.2111719 0.269531,-0.4511719 C 11.306276,2.5259635 11.410156,2.310859 11.410156,2.130859 11.423487,1.8041947 11.26612,1.6468232 10.939453,1.6601562 10.80612,1.6734896 10.692943,1.7157292 10.599609,1.7890625 9.9462784,1.3557292 9.3803906,1.1642708 8.9003906,1.2109375 9.093724,0.8709375 9.3972135,0.64263021 9.8105469,0.52929688 9.9630469,0.48679688 10.135312,0.465 10.328125,0.4609375 Z M 9.0976562,1.546875 c 0.4078296,0.0125 0.8427322,0.1929685 1.3027348,0.5429688 l -0.07031,0.1992187 c 0.08,0.046667 0.157136,0.061016 0.230469,0.041016 0.106667,-0.28 0.226042,-0.4199216 0.359375,-0.4199219 0.16,-0.02 0.234036,0.060234 0.220703,0.2402344 0,0.1666667 -0.09148,0.3538802 -0.271484,0.5605469 0,0.2133333 -0.05969,0.3028643 -0.179688,0.2695313 -0.12,-0.026667 -0.170387,-0.094505 -0.150391,-0.2011719 -0.08,0.3 -0.0091,0.680625 0.210938,1.140625 0.213333,0.4666666 0.376901,0.8236458 0.490234,1.0703125 0.113334,0.2466666 0.292396,0.3772916 0.539063,0.390625 0.246667,0.013333 0.531562,0.049375 0.851562,0.109375 0.32,0.06 0.406433,0.2770573 0.259766,0.6503906 C 12.743961,6.5139587 12.437373,7.350391 11.970706,8.650391 L 11.5,8.4296875 C 11.173333,7.7696875 10.607448,7.21 9.8007812,6.75 9.6474485,6.8966667 9.6772917,7.0900781 9.890625,7.3300781 L 9.5292969,8.1191406 C 9.4826302,8.432474 9.6039583,8.679375 9.890625,8.859375 c 0.4,0.18 0.840311,0.2714844 1.320313,0.2714844 l 0.628906,0.5097656 0.166898,3.084902 c -0.01292,0.23912 0.01876,0.592378 0.0918,0.865235 0.202735,0.757379 0.186239,1.631631 -0.08008,2.628906 0,0 -0.341797,0.714844 -1.263672,0.621094 -0.9056512,-0.0921 -3.6524467,-4.345134 -3.754787,-4.45209 -0.4777392,-0.499287 -1.0444855,-1.089405 -1.3652344,-2.05274 -0.1004742,-0.301763 0.327491,-0.4060876 0.5,-0.3554683 0.4643744,0.1362613 1.0324537,1.3769943 2.5692399,2.8602933 0.3021571,0.212271 0.8211532,0.276615 0.6875,-0.296875 -0.1742356,-0.44068 -1.0448051,-3.8631836 -1.211821,-4.1044289 -0.18,-0.26 -0.2303906,-1.0018489 -0.1503906,-2.2285156 -0.033333,-0.42 0.31125,-0.6308594 1.03125,-0.6308594 0.7466666,0 1.0892971,-0.1697656 1.0292971,-0.5097656 L 9.9492188,4.6601562 C 9.8758852,4.4068229 9.8460417,4.2494531 9.859375,4.1894531 c -0.1466667,-0.04 -0.352474,-0.02875 -0.6191406,0.03125 -0.4533334,0.04 -0.7207813,0.019453 -0.8007813,-0.060547 -0.08,-0.08 -0.1067454,-0.1900781 -0.080078,-0.3300781 L 8.6796876,3.720703 c 0.073333,-0.04 0.087682,-0.1078384 0.041016,-0.2011719 L 8.2695312,3.4804688 C 8.3761979,3.2538021 8.3638021,3.1026302 8.2304688,3.0292969 8.0504681,3.0426302 7.9609375,2.9972917 7.9609375,2.890625 8.0076042,2.8039583 8.1002344,2.6434896 8.2402344,2.4101562 8.3802344,2.1768232 8.55,2.0276042 8.75,1.9609375 c 0.2066667,-0.066667 0.409375,-0.05737 0.609375,0.029297 0.2,0.08 0.3903125,0.1427864 0.5703125,0.1894531 L 9.9804688,2.0605469 C 9.813802,2.0205469 9.6409375,1.9527083 9.4609375,1.859375 c -0.3466667,-0.18 -0.6470573,-0.18 -0.9003906,0 0.033333,-0.12 0.078672,-0.2095313 0.1386719,-0.2695312 0.1299998,-0.033333 0.2624946,-0.047135 0.3984374,-0.042969 z m 4.1015628,5.6328125 c 0.26,0.5333333 0.77125,1.3100781 1.53125,2.3300781 C 14.443814,9.3164323 13.739141,9.113724 12.619141,8.9003906 Z"
     sodipodi:nodetypes="sccccccccccccccccccccccccccsccsccscssccscccscscccccccccssccccccccccccsccccccccccsssscccccccccccssssscscsccccsccccccsccccccccccccc" />
  <path
     style="fill:#000000; stroke:none"
     d="m 9.0800781,2.0605469 c -0.1666666,0 -0.2767448,0.026745 -0.3300781,0.080078 -0.046667,0.053333 -0.1094531,0.080078 -0.1894531,0.080078 v 0.089844 l 0.1386719,0.019531 c 0.18,0.18 0.4648958,0.2036459 0.8515624,0.070312 l 0.25,0.070312 0.019531,-0.1816406 -0.2207031,-0.019531 C 9.386276,2.1495312 9.2134115,2.0805469 9.0800781,2.0605469 Z"
     id="path12" />
  <path
     style="fill:#000000; stroke:none"
     d="m 9.5957031,13.035156 c -0.00325,4.45e-4 -0.00599,0.0017 -0.00781,0.002 l -0.00195,0.002 c 0.00811,-3.6e-4 0.017475,-4.03e-4 0.025391,-0.002 0.00361,-7.08e-4 -3.549e-4,-0.0018 -0.00586,-0.002 -0.00275,-7.4e-5 -0.00651,-4.44e-4 -0.00977,0 z"
     id="path15" />
</svg>
