<?xml version="1.0" encoding="UTF-8" standalone="no"?>
<svg
   width="16.1"
   height="17.78"
   version="1.1"
   id="svg1"
   sodipodi:docname="13460.svg"
   inkscape:version="1.4 (86a8ad7, 2024-10-11)"
   xmlns:inkscape="http://www.inkscape.org/namespaces/inkscape"
   xmlns:sodipodi="http://sodipodi.sourceforge.net/DTD/sodipodi-0.dtd"
   xmlns="http://www.w3.org/2000/svg"
   xmlns:svg="http://www.w3.org/2000/svg">
  <defs
     id="defs1" />
  <sodipodi:namedview
     id="namedview1"
     pagecolor="#ffffff"
     bordercolor="#666666"
     borderopacity="1.0"
     inkscape:showpageshadow="2"
     inkscape:pageopacity="0.0"
     inkscape:pagecheckerboard="0"
     inkscape:deskcolor="#d1d1d1"
     inkscape:zoom="84.926881"
     inkscape:cx="12.522537"
     inkscape:cy="10.096921"
     inkscape:window-width="1680"
     inkscape:window-height="998"
     inkscape:window-x="-8"
     inkscape:window-y="-8"
     inkscape:window-maximized="1"
     inkscape:current-layer="svg1" />
  <path
     style="fill:#000000;stroke:none"
     d="m 11.75,4.82 c 1.046667,0.046667 1.696667,0.3233333 1.95,0.83 1.253333,1.66 2.053333,3.1633333 2.4,4.51 0,0.3 -0.196667,0.47 -0.59,0.51 -0.506667,0 -1.543333,-0.246667 -3.11,-0.74 -0.07333,0.866667 -0.12,1.853333 -0.14,2.96 0.453333,1.02 0.44,1.993333 -0.04,2.92 0.493333,-0.373333 0.843333,-0.233333 1.05,0.42 0.213333,0.66 0.62,0.923333 1.22,0.79 0.606667,-0.133333 1.073333,0.12 1.4,0.76 H 0 c 0.12,-0.313333 0.33,-0.46 0.63,-0.44 0.3,0.02667 0.5966667,-0.02333 0.89,-0.15 0.3,-0.133333 0.63,-0.236667 0.99,-0.31 -0.06,-1 0.3066667,-1.596667 1.1,-1.79 L 3.05,11.1 C 2.93,10.246667 3.3933333,9.8133333 4.44,9.8 c 0.3733333,0 0.8066667,0.223333 1.3,0.67 l 3.27,2.44 C 8.31,10.43 7.87,9.0366667 7.69,8.73 7.51,8.4233333 7.42,8.0533333 7.42,7.62 7.5266667,7.2933333 7.05,7.5933333 5.99,8.52 5.1366667,9.28 4.5133333,9.63 4.12,9.57 3.6,9.41 2.78,8.3366667 1.66,6.35 1.2533333,6.09 0.85666667,5.8433333 0.47,5.61 0.21666667,5.3966667 0.13333333,5.1333333 0.22,4.82 L 0.67,4.1 C 0.51,3.8333333 0.51,3.64 0.67,3.52 1.39,4.1066667 1.86,4.7266667 2.08,5.38 2.1866667,5.68 2.5566667,6.15 3.19,6.79 3.83,7.4366667 4.24,7.9466667 4.42,8.32 5.3266667,7.38 6.2833333,6.49 7.29,5.65 7.5833333,5.1433333 8.33,4.8833333 9.53,4.87 9.47,4.73 9.4533333,4.61 9.48,4.51 L 8.86,4.6 C 8.38,4.6 8.1133333,4.5233333 8.06,4.37 8.0066667,4.2233333 7.99,4.1 8.01,4 8.0366667,3.9066667 8.0033333,3.84 7.91,3.8 7.8233333,3.7666667 7.8233333,3.7033333 7.91,3.61 7.87,3.5966667 7.8466667,3.5666667 7.84,3.52 7.8266667,3.4733333 7.85,3.4433333 7.91,3.43 8.05,3.31 8.0266667,3.2466667 7.84,3.24 7.6533333,3.2333333 7.56,3.1566667 7.56,3.01 7.6133333,2.75 7.73,2.5133333 7.91,2.3 8.09,2.08 8.2033333,1.8433333 8.25,1.59 8.5966667,0.65 9.1433333,0.13666667 9.89,0.05 c 0.7,-0.10666667 1.39,-0.04 2.07,0.2 0.68,0.24 1.023333,0.7533333 1.03,1.54 0.0067,0.7933333 -0.14,1.3666667 -0.44,1.72 -0.293333,0.3533333 -0.656667,0.58 -1.09,0.68 0.01333,0.18 0.11,0.39 0.29,0.63 z M 9.95,4.66 10.09,5.07 C 10.15,5.41 9.8066667,5.58 9.06,5.58 8.34,5.58 7.9966667,5.79 8.03,6.21 7.95,7.4366667 8,8.18 8.18,8.44 c 0.18,0.26 0.74,1.893333 1.68,4.9 l 1.8,-0.4 0.18,-3.3 c 0.0096,-0.1767518 0.0064,-0.6305714 0.13,-0.99 C 12.419211,7.3438655 12.743333,6.5133333 12.89,6.14 13.036667,5.7666667 12.95,5.55 12.63,5.49 12.31,5.43 12.026667,5.3933333 11.78,5.38 11.533333,5.3666667 11.353333,5.2366667 11.24,4.99 11.126667,4.7433333 10.963333,4.3866667 10.75,3.92 10.53,3.46 10.46,3.08 10.54,2.78 c -0.02,0.1066667 0.03,0.1733333 0.15,0.2 0.12,0.033333 0.18,-0.056667 0.18,-0.27 0.18,-0.2066667 0.27,-0.3933333 0.27,-0.56 0.01333,-0.18 -0.06,-0.26 -0.22,-0.24 -0.133333,0 -0.253333,0.14 -0.36,0.42 -0.07333,0.02 -0.15,0.00667 -0.23,-0.04 L 10.4,2.09 C 9.7866667,1.6233333 9.22,1.4566667 8.7,1.59 8.64,1.65 8.5933333,1.74 8.56,1.86 c 0.2533333,-0.18 0.5533333,-0.18 0.9,0 0.18,0.093333 0.3533333,0.16 0.52,0.2 L 9.93,2.18 C 9.75,2.1333333 9.56,2.07 9.36,1.99 9.16,1.9033333 8.9566667,1.8933333 8.75,1.96 8.55,2.0266667 8.38,2.1766667 8.24,2.41 8.1,2.6433333 8.0066667,2.8033333 7.96,2.89 c 0,0.1066667 0.09,0.1533333 0.27,0.14 0.1333333,0.073333 0.1466667,0.2233333 0.04,0.45 L 8.72,3.52 C 8.766667,3.613333 8.753333,3.68 8.68,3.72 L 8.36,3.83 c -0.026667,0.14 0,0.25 0.08,0.33 0.08,0.08 0.3466667,0.1 0.8,0.06 C 9.5066667,4.16 9.7133333,4.15 9.86,4.19 9.846667,4.25 9.876667,4.4066667 9.95,4.66 Z m 1.8,8.73 -4.69,1.23 c -1.84,0.953333 -2.82,1.64 -2.94,2.06 1.1866667,-0.54 2.44,-0.616667 3.76,-0.23 1.32,0.38 2.443333,0.293333 3.37,-0.26 0.613333,-0.793333 0.78,-1.726667 0.5,-2.8 z M 8.86,13.54 5.18,10.99 H 4.37 c 0.3466667,0.626667 0.4733333,1.89 0.38,3.79 z M 10.94,1.66 c 0.326667,-0.013333 0.483333,0.1433333 0.47,0.47 0,0.18 -0.103333,0.3966667 -0.31,0.65 0.01333,0.24 -0.07667,0.39 -0.27,0.45 -0.07333,0.073333 -0.05,0.17 0.07,0.29 0.266667,0.2866667 0.6,0.2633333 1,-0.07 C 12.306667,3.1233333 12.506667,2.6066667 12.5,1.9 12.493333,1.1866667 12.146667,0.75333333 11.46,0.6 10.766667,0.44 10.216667,0.41666667 9.81,0.53 9.3966667,0.64333333 9.0933333,0.87 8.9,1.21 9.38,1.163333 9.9466667,1.3566667 10.6,1.79 10.69333,1.716667 10.806667,1.6733333 10.94,1.66 Z M 13.2,7.18 12.62,8.9 c 1.12,0.2133333 1.823333,0.4166667 2.11,0.61 C 13.97,8.49 13.46,7.7133333 13.2,7.18 Z M 8.7,2.33 8.56,2.31 V 2.22 C 8.64,2.22 8.7033333,2.1933333 8.75,2.14 8.8033333,2.0866667 8.9133333,2.06 9.08,2.06 9.2133333,2.08 9.3866667,2.15 9.6,2.27 L 9.82,2.29 9.8,2.47 9.55,2.4 C 9.1633333,2.5333333 8.88,2.51 8.7,2.33 Z"
     id="path1"
     sodipodi:nodetypes="cccccccccccccccccccscccccccccccccccccccccsccccsccccccscsccssssssccccccccccccccccsccccccscccccccccccccccccccccccccccccccccccccccc" />
</svg>
