<?xml version="1.0" encoding="UTF-8" standalone="no"?>
<svg
   width="1100"
   height="1000"
   id="svg2277"
   sodipodi:version="0.32"
   inkscape:version="1.4.2 (f4327f4, 2025-05-13)"
   sodipodi:docname="13478.svg"
   inkscape:output_extension="org.inkscape.output.svg.inkscape"
   version="1.0"
   sodipodi:modified="true"
   xmlns:inkscape="http://www.inkscape.org/namespaces/inkscape"
   xmlns:sodipodi="http://sodipodi.sourceforge.net/DTD/sodipodi-0.dtd"
   xmlns="http://www.w3.org/2000/svg"
   xmlns:svg="http://www.w3.org/2000/svg"
   xmlns:rdf="http://www.w3.org/1999/02/22-rdf-syntax-ns#"
   xmlns:cc="http://creativecommons.org/ns#"
   xmlns:dc="http://purl.org/dc/elements/1.1/">
  <metadata
     id="metadata2284">
    <rdf:RDF>
      <cc:Work
         rdf:about="">
        <dc:format>image/svg+xml</dc:format>
        <dc:type
           rdf:resource="http://purl.org/dc/dcmitype/StillImage" />
      </cc:Work>
    </rdf:RDF>
  </metadata>
  <defs
     id="defs2282">
    <inkscape:perspective
       sodipodi:type="inkscape:persp3d"
       inkscape:vp_x="0 : -789.77562 : 1"
       inkscape:vp_y="0 : 1000 : 0"
       inkscape:vp_z="11.321417 : -789.77562 : 1"
       inkscape:persp3d-origin="5.6607084 : -793.18375 : 1"
       id="perspective7" />
  </defs>
  <sodipodi:namedview
     inkscape:window-height="998"
     inkscape:window-width="1680"
     inkscape:pageshadow="2"
     inkscape:pageopacity="0.0"
     guidetolerance="10.0"
     gridtolerance="10.0"
     objecttolerance="10.0"
     borderopacity="1.0"
     bordercolor="#666666"
     pagecolor="#ffffff"
     id="base"
     showgrid="false"
     inkscape:zoom="0.3775"
     inkscape:cx="1017.2185"
     inkscape:cy="54.304636"
     inkscape:window-x="-8"
     inkscape:window-y="-8"
     inkscape:current-layer="svg2277"
     inkscape:showpageshadow="2"
     inkscape:pagecheckerboard="0"
     inkscape:deskcolor="#d1d1d1"
     inkscape:window-maximized="1"
     showguides="true" />
  <path
     id="path1-0"
     style="fill:#000000;stroke:none;stroke-width:1"
     d="M 600.25214,0.09299388 C 590.20898,0.36085316 579.8752,1.2081714 569.25181,2.6366106 526.75789,8.3499783 496.94094,39.774684 479.80057,96.909407 c -10.71279,12.855343 -22.13901,30.353073 -34.28002,52.492573 -7.14086,14.28556 -7.67764,22.31955 -1.60719,24.10338 6.07056,1.78539 11.24871,4.82226 15.53391,9.10736 -9.28268,6.18537 -5.81278,12.60197 2.14292,13.92673 2.1445,-0.71355 1.25184,0.53745 -2.67645,3.75228 -3.92874,3.21247 -3.57309,6.24711 1.06927,9.10519 4.64222,2.85686 6.96446,10.71231 6.96446,23.56766 0,12.14063 7.14113,17.85465 21.42474,17.1411 14.99789,0.71355 26.06866,-1.3e-4 33.21075,-2.14072 v 29.99636 c -49.99315,0 -80.59499,17.0125 -99.92625,23.71791 -21.51423,10.7154 -45.32493,27.8645 -71.43468,51.44727 -4.63075,-5.40226 -17.94505,-20.45275 -39.94219,-45.15137 -21.99713,-24.69862 -41.10108,-53.25628 -57.30977,-85.67284 0,-54.0286 -19.2932,-96.09283 -57.88469,-126.194306 -16.20812,-18.523668 -25.85617,-27.78596 -28.94453,-27.78596 -3.8556,0 -6.55924,2.703956 -8.10343,8.105603 -0.98566,-1.209268 -2.03915,-2.257311 -3.47351,-2.314959 -3.08601,-0.124028 -4.63426,2.703925 -4.63426,8.105604 -5.40067,0 -8.10124,2.701771 -8.10124,8.103418 -6.54121,-0.5744 -10.16213,5.67666 -8.1056,10.42056 44.76653,43.22288 67.14886,72.93777 67.14886,89.14635 0,7.10511 -3.07549,10.4838 -5.78629,5.78846 -16.23144,-28.11366 -26.15486,-44.90638 -32.41586,-48.6227 -5.24925,-3.1158 -13.68498,5.23691 -10.42492,10.41838 14.02928,22.29861 19.67951,43.74323 27.78596,60.20183 7.89729,16.03376 19.76576,23.33971 33.36319,29.79167 25.66819,49.37105 53.49382,98.92972 75.0454,150.26067 l -49.36314,38.75967 c -10.03353,-17.75218 -49.01355,-68.30573 -116.9345,-151.66314 -3.08779,-32.41715 -7.33189,-57.50231 -12.73333,-75.25448 -3.85871,-17.75217 -28.945091,-47.46765 -75.254464,-89.14635 -6.173928,-3.09019 -9.26199,-1.15798 -9.26199,5.78847 -5.40044,-0.77208 -8.103418,1.54319 -8.103418,6.94486 -5.40044,0 -8.103428,2.70176 -8.103428,8.10342 -6.171357,0 -9.045586,1.54589 -8.68488,4.63426 0.384344,3.08716 1.739382,6.17362 4.052805,9.26199 41.678514,40.9072 62.516784,69.07778 62.516784,84.51427 1.54351,8.49063 -1.15898,10.80233 -8.10561,6.94486 -11.57713,-27.0137 -19.872449,-42.06302 -24.889543,-45.15137 -5.016543,-3.08841 -10.228188,-2.31764 -15.629741,2.31495 0,7.71856 3.474041,14.2787 10.420542,19.68035 17.751652,47.08216 33.186992,72.1661 46.307772,75.25448 75.036391,135.06515 113.322151,182.81922 169.030731,224.60046 10.80578,0 43.22164,-16.20831 97.24978,-48.62487 l 48.62706,37.04794 c 16.95622,-5.27041 33.02332,-10.34428 48.4289,-15.31179 4.31666,13.8878 8.96441,28.19612 13.94415,42.92789 17.14016,50.70704 30.70991,114.62789 40.70876,191.75994 -89.27306,27.85285 -197.11655,66.77584 -323.52713,116.76899 -42.84683,18.56871 -64.09346,48.38542 -63.74067,89.45123 0.35724,41.06448 15.53452,61.23981 45.53029,60.52632 L 886.89029,1000 c -19.28298,-35.7092 -45.70801,-49.9932 -79.2746,-42.85167 -33.56659,7.14208 -56.24045,-7.85453 -68.02432,-44.99239 -11.78421,-37.13742 -31.96138,-44.63618 -60.52851,-22.4962 27.1369,-52.13575 28.20849,-107.12931 3.2122,-164.97793 l -0.004,-0.004 c 0.71317,-45.70806 2.67821,-94.45147 5.89301,-146.22965 3.21401,-51.77855 9.28338,-100.16488 18.21037,-145.15818 8.92744,-44.99371 1.07163,-79.09555 -23.56765,-102.30653 -24.64082,-23.21095 -35.53094,-59.45644 -32.67284,-108.73525 19.28299,-7.14161 37.85045,-21.60248 55.70478,-43.38521 17.85475,-21.78272 26.78202,-51.24239 26.78202,-88.37979 0,-38.566029 -16.6045,-64.276342 -49.81396,-77.131694 C 657.89881,3.7093633 630.38137,-0.71088164 600.25187,0.09271703 Z m 7.43703,19.96564812 c 14.9086,0.8929 31.37789,3.659329 49.41106,8.301596 36.06634,9.284152 54.09976,30.352267 54.09976,63.204951 0,32.852271 -11.962,60.885171 -35.88721,84.096141 -23.92532,23.21098 -39.45805,29.4589 -46.59958,18.7461 -7.14208,-9.99846 -1.0726,-24.81649 18.21038,-44.45666 36.7767,-37.45783 21.28624,-94.029983 -48.20675,-61.59994 -11.42662,-11.427079 -37.49459,-20.354338 -78.20315,-26.782027 7.85591,-19.996946 23.56723,-32.852097 47.1353,-38.565843 11.78411,-2.856478 25.13159,-3.837218 40.04019,-2.944318 z m -97.89222,59.718363 c 33.5667,2.142556 60.70586,10.712686 81.41751,25.710575 -0.71439,12.14025 4.4618,12.49813 15.53174,1.07145 22.34146,-23.063101 52.10856,-11.218726 36.42728,20.88901 -7.49877,15.35505 -17.31963,28.38878 -29.46065,39.10158 -12.14134,10.71276 -14.99933,21.24792 -8.57162,31.60357 6.42567,10.35559 10.71075,19.46182 12.85526,27.31774 -1.83028,43.92574 6.24326,77.68858 24.21664,101.28951 -84.35784,33.70223 -134.97422,55.84403 -194.17509,78.92615 -1.3079,-6.89482 -2.50364,-13.76226 -3.58893,-20.59937 -0.71428,-46.42193 18.03167,-69.6315 56.24048,-69.6315 38.20895,0 57.31415,-12.49802 57.31415,-37.4944 0,-32.13952 -13.21268,-46.60222 -39.6373,-43.38739 -26.42497,3.21404 -37.49367,-5.53501 -33.20857,-26.24628 16.42611,-8.57021 22.13795,-14.81815 17.13892,-18.7461 -4.99937,-3.92953 -13.56955,-6.60885 -25.71057,-8.03592 0,-6.42767 -6.06937,-12.13989 -18.21037,-17.13892 12.141,-27.13935 23.92485,-46.06563 35.35147,-56.7784 11.42719,-6.42377 23.38895,-6.60011 35.88721,-0.5292 12.49815,6.06856 24.81939,10.17504 36.96085,12.31956 v -7.50019 c -7.85626,-0.71393 -18.03386,-4.46327 -30.53212,-11.2481 -12.49815,-6.786402 -25.17483,-8.037374 -38.03012,-3.752272 4.99781,-7.141978 8.92584,-12.855981 11.78383,-17.141103 z M 630.7799,100.433 c -2.22625,-0.0665 -4.87764,0.37086 -7.95752,1.30884 -17.45775,5.31312 -32.89703,31.80274 -27.31991,40.17085 -14.85242,5.94136 -16.65393,18.08997 -5.35292,23.02974 12.41105,5.4301 40.60795,-24.20047 46.59956,-40.17302 3.2109,-8.57024 3.74561,-15.17529 1.60501,-19.81756 -1.33906,-2.90119 -3.86384,-4.40797 -7.57422,-4.51885 z m -118.29777,8.53898 c -4.42187,0.2232 -8.52975,1.56298 -12.32392,4.01796 l -11.78383,9.64091 v 8.56945 l 5.35511,-1.07362 c 15.71227,7.85631 32.85241,7.85631 51.42111,0 l 18.21256,4.288 v -9.6431 l -17.1411,-1.06928 C 533.45607,113.39151 522.2102,108.48095 512.48213,108.97198 Z m 112.52018,2.60241 c 4.21241,-0.0831 5.98265,1.9944 5.31373,6.23491 -1.07098,6.78483 -4.2843,13.2135 -9.64092,19.28402 -5.35618,6.07246 -10.35597,10.17892 -14.99819,12.31955 -4.64223,2.14256 -4.64223,0.17753 0,-5.893 4.64222,-6.06893 4.64222,-8.21037 0,-6.42655 -4.64191,1.78541 -5.53239,-0.17966 -2.67428,-5.89302 2.85687,-5.71336 6.7849,-11.42515 11.78382,-17.1389 l -0.004,-0.004 c 4.28474,-1.60633 7.69276,-2.43279 10.2202,-2.48263 z m -115.20318,4.62989 c -2.8581,3.57079 -2.8581,7.49871 0,11.78384 -4.99767,-1.4309 -8.92588,-3.21683 -11.78382,-5.35727 1.42856,-2.85764 5.35675,-4.99963 11.78382,-6.42657 z m 13.92673,1.07147 14.99819,9.64309 c -6.42496,1.42649 -12.49257,2.14015 -18.20383,2.14074 4.99517,-2.85667 6.06285,-6.78577 3.20564,-11.78383 z m 69.62934,33.20205 c 5.7161,2.85528 6.96489,5.7114 3.75008,8.56945 -3.21558,2.86198 -5.7141,2.68562 -7.498,-0.5292 -1.7838,-3.21167 -0.53283,-5.88922 3.75227,-8.03373 z m -102.11707,11.10436 c -0.98915,0.001 -1.79229,1.99359 -1.79229,4.43826 0,4.13923 -4.48129,8.39498 -10.18099,1.06927 -7.47258,-9.60582 -10.71175,-3.22133 -9.10302,1.60502 l -0.004,0.009 c 2.14138,-2.14412 4.81894,-1.25365 8.03375,2.67429 6.9794,8.522 16.89059,1.95594 15.53608,-4.82374 -0.72178,-3.60887 -1.66959,-4.9729 -2.48916,-4.97181 z m -17.52874,25.76283 c 0.84809,-0.0228 1.80771,0.0104 2.87899,0.098 4.2851,0.35675 8.9277,0.89145 13.92673,1.605 4.99871,0.71352 7.14224,1.42719 6.42874,2.14072 H 471.2311 c -2.14059,0 -2.85423,-0.71364 -2.14073,-2.14072 0.53579,-1.06736 2.07471,-1.63464 4.61902,-1.70301 z m 22.163,7.06027 -0.002,0.002 c -2.84658,2.84327 -12.85164,7.49515 -18.01003,8.14262 -5.53089,0.69422 -8.03659,-1.84989 -3.41253,-4.9326 z M 679.12385,406.0677 c -0.47522,7.33691 -1.74655,14.98447 -3.81325,22.94481 -9.64126,37.13778 -18.74756,136.76617 -27.31774,298.88584 l -114.62826,-0.002 c -18.5687,-88.5587 -36.24506,-156.58379 -53.02829,-204.07722 -4.41705,-12.49921 -8.50064,-24.91133 -12.24987,-37.23743 73.32338,-24.37748 133.95672,-47.52819 211.03741,-80.51373 z m -264.8127,4.73008 c 0.56022,2.35936 1.13252,4.73596 1.71825,7.1278 -4.11486,1.54199 -8.29634,3.09746 -12.55693,4.66909 v -4.6299 z m 124.4129,350.31349 109.27099,1.07145 c 19.99693,54.27825 12.49862,103.91497 -22.49621,148.90829 -52.13529,29.99579 -124.44759,34.45945 -216.93477,13.39101 -92.48662,-21.06846 -171.93844,-16.60476 -238.35735,13.39101 60.70561,-92.12949 183.54388,-151.05108 368.51734,-176.76176 z" />
</svg>
