<?xml version="1.0" encoding="UTF-8" standalone="no"?>
<svg
   width="1000"
   height="1000"
   version="1.1"
   id="svg1"
   sodipodi:docname="1347E.svg"
   inkscape:version="1.4.2 (f4327f4, 2025-05-13)"
   xmlns:inkscape="http://www.inkscape.org/namespaces/inkscape"
   xmlns:sodipodi="http://sodipodi.sourceforge.net/DTD/sodipodi-0.dtd"
   xmlns="http://www.w3.org/2000/svg"
   xmlns:svg="http://www.w3.org/2000/svg">
  <defs
     id="defs1" />
  <sodipodi:namedview
     id="namedview1"
     pagecolor="#ffffff"
     bordercolor="#666666"
     borderopacity="1.0"
     inkscape:showpageshadow="2"
     inkscape:pageopacity="0.0"
     inkscape:pagecheckerboard="0"
     inkscape:deskcolor="#d1d1d1"
     inkscape:zoom="0.3775"
     inkscape:cx="793.37748"
     inkscape:cy="9.2715232"
     inkscape:window-width="1680"
     inkscape:window-height="998"
     inkscape:window-x="-8"
     inkscape:window-y="-8"
     inkscape:window-maximized="1"
     inkscape:current-layer="svg1" />
  <path
     id="path1"
     style="fill:#000000;stroke:none;stroke-width:57.7769"
     d="m 901.63086,0.00585938 c -0.4137,-0.03143068 -1.0277,0.0922727 -1.4668,0.11132812 -8.5952,42.4113385 -7.17262,78.5520085 4.28711,108.5585925 2.07315,5.42841 5.49234,14.15522 4.42188,22.56836 -12.95655,101.83063 -17.37696,156.15445 -17.37696,183.93945 -54.89242,0 -94.8808,-4.84355 -119.95507,-14.66992 -25.07426,-9.82625 -49.40607,-9.7138 -73.125,0.45117 -8.80989,-8.13219 -14.21683,-26.719 -16.25,-55.85937 16.94204,-6.09917 33.16328,-18.60303 48.75,-37.57813 15.58671,-18.97513 23.35931,-45.10797 23.35937,-78.31445 0,-33.206484 -14.53149,-55.621971 -43.67187,-67.142578 -29.14037,-11.520606 -61.69413,-14.674433 -97.61133,-9.591796 -35.9175,5.082793 -61.60074,32.341647 -77.1875,81.812504 -8.80986,11.5206 -18.72155,27.06592 -29.56446,46.71875 -6.09917,12.87597 -6.43711,20.19839 -1.01562,21.89257 5.4215,1.69419 9.81474,4.28346 13.20312,7.67188 -4.06611,2.71072 -5.75584,5.19062 -5.07812,7.5625 0.67767,2.37192 3.04327,3.94734 7.10937,4.625 -3.43675,3.61347 -6.4687,7.10014 -1.01562,10.60742 4.06611,2.37192 6.09375,9.35635 6.09375,20.87695 0,10.84292 6.19429,15.91206 18.39258,15.23438 26.42963,-0.67767 38.25759,4.72939 35.54687,16.25 -2.71078,11.52066 -22.76065,17.26562 -60.0332,17.26562 -37.95024,0 -64.9856,7.54605 -81.25,22.45508 -16.26439,14.90903 -65.03742,52.7566 -146.35938,113.74805 -28.46269,35.91719 -32.40568,59.34844 -11.73632,70.1914 3.31183,1.73735 8.08666,3.09075 14.33007,4.0625 -19.85033,7.11965 -33.63728,17.59237 -41.30078,31.48243 -30.49575,67.76827 -56.17738,181.65078 -77.18554,341.58398 -8.13222,32.52876 -23.79082,50.77741 -46.83203,54.84375 -23.04122,4.06634 -55.143765,11.6122 -96.482427,22.45508 -39.3056479,-1.35545 -43.13627,10.47255 -11.285156,35.54687 H 239.92383 c 10.84293,-9.48645 12.75827,-23.34124 5.64258,-41.63867 -7.11565,-18.29744 -3.96187,-50.85314 9.59179,-97.61328 23.38004,-51.165 39.03867,-95.43254 46.83203,-132.70508 v 132.70508 c -35.2395,27.78499 -51.23608,54.48233 -47.84765,80.23438 l 30.58203,52.92382 c 16.94209,15.58682 85.65364,4.09846 206.28125,-34.52929 101.65246,-44.04937 156.84831,-66.12891 165.6582,-66.12891 14.90905,18.29743 14.90905,43.41649 0,75.26758 -23.71911,8.80971 -32.16745,17.93427 -25.39062,27.42187 15.58671,1.35545 32.03159,0.67964 49.3125,-2.03125 17.2809,-2.7109 30.12273,-24.90067 38.59375,-66.57812 8.47102,-41.67756 13.31579,-70.96604 14.33203,-87.9082 1.01687,-16.94199 -6.30587,-25.83985 -21.89258,-26.51758 14.23144,-24.3966 14.90684,-63.70913 2.03125,-117.92383 19.65282,-169.42064 28.77732,-275.41725 27.42188,-318.11133 68.44596,-0.67767 122.2881,-1.35358 161.59375,-2.03125 39.30565,-0.67766 56.65421,-30.18991 51.91015,-88.4707 -2.5341,-41.71181 -5.00064,-83.43032 -7.44726,-125.14649 -0.21911,-3.73472 -0.22069,-16.43817 1.10742,-29.33984 6.9636,-21.38425 13.95688,-41.893918 20.98828,-61.726562 2.8186,-15.170544 -2.06086,-27.160212 -14.44336,-35.884766 L 917.42969,20.880859 C 915.44379,7.4426635 909.72027,2.834119 901.85547,0.1171875 901.79187,0.09453895 901.69986,0.0188823 901.63086,0.00585938 Z M 639.73633,67.712891 c 14.2872,0.504393 30.2333,3.099426 47.95898,7.673828 31.51229,8.132179 47.28321,26.379111 47.28321,54.841801 0,29.14038 -10.47617,53.92147 -31.48438,74.25195 -21.00816,20.33049 -34.52584,25.73755 -40.625,16.25 -6.77683,-8.80987 -1.59541,-21.763 15.68555,-38.70508 17.28114,-16.94209 21.67414,-33.50122 13.20312,-49.76562 -8.47103,-16.2644 -26.94354,-17.61616 -55.40625,-4.0625 -10.16527,-10.16524 -33.14532,-18.27583 -69.0625,-24.375 12.58497,-29.746127 42.65008,-37.161321 72.44727,-36.109379 z m -80.57227,52.359379 c 29.14029,2.03299 52.79631,9.46773 71.09375,22.34375 -0.25422,4.06611 0.28873,6.74092 1.4668,7.90039 l 0.11523,0.11132 c 0.0539,0.0382 0.28402,0.19306 0.3418,0.22657 0.11555,0.0563 0.43734,0.19016 0.56445,0.22656 2.18917,0.42871 5.82868,-1.81804 10.72071,-6.88477 9.48755,-9.82643 18.83764,-12.75556 27.98632,-8.68945 9.14875,4.06611 10.5007,12.85259 4.0625,26.40625 -6.43803,13.55366 -14.88654,25.15698 -25.39062,34.64453 -10.50408,9.48755 -13.09527,18.72433 -7.67383,27.87305 5.42121,9.14873 9.13883,17.14507 11.17188,23.92187 4.06634,37.27261 16.00727,64.41928 35.66015,81.36133 19.65277,16.94209 27.87575,48.37066 24.82618,94.45313 -3.04948,46.08242 -10.59666,119.63853 -22.79493,220.61328 -29.14038,8.13222 -70.81857,24.6894 -125.0332,49.76367 2.01931,-52.8596 -3.26757,-106.02554 -15.80469,-159.5625 -3.57529,-15.26747 -6.93455,-29.87559 -10.04492,-43.78516 3.31738,-0.51075 5.97194,-0.93899 7.44922,-1.1289 21.3843,6.96357 41.89393,13.9589 61.72656,20.99023 15.17055,2.81865 27.16022,-2.06285 35.88477,-14.44531 l 12.75,-37.35156 c 13.43816,-1.98591 18.047,-7.7075 20.76367,-15.57227 0.0924,-0.47146 0.0222,-1.18325 0,-1.69336 -42.41133,-8.59531 -78.5217,-7.09617 -108.55664,4.28906 -10.28549,3.70241 -26.76441,5.10978 -38.59375,5.5293 -4.00635,-19.02831 -7.45482,-36.5257 -10.38086,-52.47266 -6.77682,-36.93371 3.13481,-59.80145 29.56445,-68.61132 26.42964,-8.8099 41.29912,-24.12862 44.6875,-45.81446 3.38845,-21.68588 -6.41192,-31.14821 -29.45312,-28.4375 -23.0412,2.71074 -32.84157,-4.72398 -29.45313,-22.34375 14.23133,-8.13218 19.30049,-13.87718 15.23438,-17.26562 -4.06607,-3.38844 -11.95011,-5.75399 -23.47071,-7.10938 0.67765,-5.42144 -4.39148,-10.60193 -15.23437,-15.3457 10.16524,-23.7189 20.75277,-40.27803 31.5957,-49.76562 10.16523,-5.42144 20.41584,-5.53382 30.91992,-0.45118 10.50414,5.08259 21.54391,8.91231 33.06446,11.62305 v -7.10937 c -7.45455,-0.67768 -16.57894,-4.05713 -27.42188,-10.15625 -10.84291,-6.09917 -21.99502,-7.11298 -33.51562,-3.04688 4.06611,-6.77684 7.78344,-11.84599 11.17187,-15.23437 z m 104.57813,18.3164 c -2.01075,0.0434 -4.13407,0.45399 -6.06446,0.98047 -7.45449,2.03308 -13.98573,7.44013 -19.74609,16.25 -5.76036,8.80986 -7.33773,15.23077 -4.62695,19.29688 -6.09939,2.71072 -9.59112,6.31579 -10.60742,10.7207 -1.01629,4.40497 1.01123,7.55874 6.09375,9.5918 5.08264,2.03305 12.51544,-1.4587 22.34179,-10.60743 9.82641,-9.14874 16.13482,-17.48496 18.84571,-24.93945 2.71089,-7.45454 3.16081,-13.19957 1.46679,-17.26562 -1.31266,-3.14987 -4.35188,-4.09972 -7.70312,-4.02735 z m -102.88477,7.1875 c -3.8517,0.0529 -7.44554,1.02766 -10.83398,2.9336 l -10.15625,9.14062 v 7.10938 h 5.07812 c 12.87598,6.77685 27.74551,6.77685 44.6875,0 l 16.25,3.04687 v -8.125 l -16.25,-1.01562 c -10.71583,-8.85223 -20.30169,-13.20632 -28.77539,-13.08985 z m 99.19141,2.59571 c 3.46777,-0.1589 4.92208,1.60406 4.28711,5.41601 -1.01629,6.09916 -3.94396,11.84419 -8.6875,17.26563 -4.74406,5.4215 -9.13674,9.02662 -13.20313,10.7207 -1.74593,0.75819 -3.05426,1.03403 -3.0664,0 -0.0109,-0.93176 1.0137,-2.93186 3.04687,-5.64258 2.14889,-3.29846 5.52885,-7.47935 -0.0137,-5.52734 -5.09296,2.12145 -3.85454,-1.68544 -2.04492,-5.07618 2.7109,-5.08262 6.42781,-10.03942 11.17187,-14.7832 3.55791,-1.52479 6.38223,-2.27575 8.46289,-2.37109 z m -101.90039,3.38476 c -2.71072,3.38844 -2.71072,7.10577 0,11.17188 -4.06611,-1.35544 -7.10764,-3.04507 -9.14063,-5.07813 0.67766,-2.03305 3.71912,-4.06073 9.14063,-6.09375 z m 12.1875,2.03125 13.20312,8.125 c -5.42121,0.67795 -10.49059,1.01563 -15.23437,1.01563 4.06611,-2.03305 4.74202,-5.07452 2.03125,-9.14063 z m 61.95312,28.4375 c 4.74407,2.71072 5.64518,5.30195 2.59571,7.67383 -3.04947,2.37175 -5.30253,2.14674 -6.65821,-0.56445 -1.35487,-2.71072 -0.004,-5.07639 4.0625,-7.10938 z m -89.98242,9.91211 c -1.18343,0.051 -2.33228,2.34036 -1.98633,4.41797 0.33915,2.03305 -0.44931,3.38489 -2.48242,4.0625 -2.03306,0.67767 -4.17404,-0.33633 -6.20703,-3.04688 -2.03305,-2.71072 -3.72274,-4.17382 -5.07813,-4.17382 -2.15815,0 -4.54196,0.70424 -3.04687,5.18945 2.03305,-2.03306 4.39866,-1.24483 7.10937,2.48242 2.71072,3.72724 5.86549,4.74114 9.25391,3.04688 3.38845,-1.69419 4.85224,-4.17209 4.51367,-7.56055 -0.33045,-3.30044 -1.21259,-4.45521 -2.07617,-4.41797 z m -16.6582,22.24805 h 0.002 c 7.14867,1.16731 14.429,1.91474 21.55273,3.27343 v 0.22461 c -7.56091,0.31863 -15.12134,0.67353 -22.68164,1.01563 -3.8353,-1.27744 -2.30068,-4.48882 1.12696,-4.51367 z m 20.3125,6.54492 c -0.78218,1.56435 -2.32942,2.77067 -15.34571,7.10937 -6.34466,0 -6.35277,-1.77041 -3.04687,-5.07617 z m -60.03321,152.45508 c 4.74376,30.4957 8.79906,55.6148 12.1875,75.26757 -73.57312,-4.1533 -122.74624,-1.29644 -147.48828,8.57618 52.3662,-27.02457 97.48403,-55.00053 135.30078,-83.84375 z m 27.42188,124.01757 c -0.67772,2.03306 4.72939,22.53325 16.25,61.5 11.5206,38.96676 13.99748,88.98119 7.2207,149.97266 -91.4046,-106.54517 -156.16444,-171.19774 -194.20703,-193.75586 39.63376,-1.41079 96.50962,-7.27283 170.73633,-17.7168 z M 334.05078,549.6582 c 19.84257,0.55831 77.56047,60.05116 173.20508,178.31446 -70.47901,31.17343 -129.0543,69.81009 -175.81445,115.89257 V 550.01367 c 0.52924,-0.16755 1.08254,-0.29362 1.69336,-0.33984 v 0.002 c 0.29587,-0.0208 0.60105,-0.0264 0.91601,-0.0176 z m 357.25586,125.38868 -4.0625,23.47265 c 14.23109,48.11548 12.87937,86.63893 -4.0625,115.7793 -47.43781,27.78499 -104.2091,45.24564 -170.2832,52.36133 -66.07412,7.11563 -122.50748,31.67113 -169.26758,73.6875 26.42959,-64.37991 49.52101,-106.05799 69.17383,-125.03321 19.65283,-18.97504 57.83829,-43.86856 114.76367,-74.70312 56.92511,-30.83445 111.55679,-52.68845 163.73828,-65.56445 z"
     sodipodi:nodetypes="ccsscsccssssccscsccscssscscccscccscccccccccssccccscsccccccsssscssccsccccccsscsccssccscccccccccsssscscccsccsccssscsssscssccccccccsccccscccccccccccccccsccscssscsscscccccscccccccccscccscccccscccscsscsc" />
</svg>
