<?xml version="1.0" encoding="UTF-8" standalone="no"?>
<svg
   width="14.066528"
   height="17.977417"
   version="1.1"
   id="svg1"
   sodipodi:docname="13476.svg"
   inkscape:version="1.4.2 (f4327f4, 2025-05-13)"
   xmlns:inkscape="http://www.inkscape.org/namespaces/inkscape"
   xmlns:sodipodi="http://sodipodi.sourceforge.net/DTD/sodipodi-0.dtd"
   xmlns="http://www.w3.org/2000/svg"
   xmlns:svg="http://www.w3.org/2000/svg">
  <defs
     id="defs1" />
  <sodipodi:namedview
     id="namedview1"
     pagecolor="#ffffff"
     bordercolor="#666666"
     borderopacity="1.0"
     inkscape:showpageshadow="2"
     inkscape:pageopacity="0.0"
     inkscape:pagecheckerboard="0"
     inkscape:deskcolor="#d1d1d1"
     inkscape:zoom="16"
     inkscape:cx="0.65625"
     inkscape:cy="5.21875"
     inkscape:window-width="1680"
     inkscape:window-height="998"
     inkscape:window-x="-8"
     inkscape:window-y="-8"
     inkscape:window-maximized="1"
     inkscape:current-layer="svg1" />
  <path
     id="path7"
     style="fill:#000000;stroke:none;stroke-width:0.980045"
     inkscape:transform-center-x="6.6993973"
     inkscape:transform-center-y="-10.801065"
     d="M 6.1220476,0.00269472 C 4.9505315,0.05202591 4.2167313,0.40549515 3.918861,1.0612196 3.6209907,1.7169448 3.4957814,2.1347984 3.547516,2.3130736 3.1658487,3.2731726 3.1310026,3.8016704 3.4422377,3.9018181 3.6679867,3.8532375 3.8151208,3.9339406 3.880578,4.1449151 3.9460351,4.3558906 4.0425853,4.5547704 4.1734429,4.7383016 4.3043005,4.9218328 4.4759854,4.983433 4.6864352,4.9258883 4.8968855,4.8683437 5.1564178,4.7875 5.4654941,4.6808771 5.9677321,5.0162339 6.1496848,5.329856 6.0110268,5.6226389 5.8723692,5.9154218 5.7273175,6.1806656 5.5765149,6.4170111 5.4257122,6.6533564 4.6152263,7.0240951 3.2814491,8.1282612 3.1177882,7.8387083 2.4828108,7.0148203 1.3749558,5.6551795 1.3245991,5.1264302 1.2544384,4.7177623 1.1663135,4.4282094 1.1033671,4.1386563 0.69469913,3.6532758 -0.06065667,2.9734554 c -0.03462047,-0.017311 -0.06341712,-0.024998 -0.08613675,-0.02297 -0.0433739,0.00387 -0.0650811,0.042408 -0.0650811,0.1167633 -0.0881249,-0.012589 -0.13207635,0.026725 -0.13207635,0.114849 -0.0881249,1e-7 -0.13207635,0.043951 -0.13207635,0.1320763 -0.0723882,0 -0.12070616,0.014439 -0.13781879,0.040197 -0.0109747,0.020079 -0.004128,0.095944 0.0631672,0.1856728 0.6798205,0.6672315 1.01832776,1.1264034 1.01832776,1.378188 C 0.49282704,5.056714 0.44887593,5.0941129 0.33557236,5.0311665 0.14673343,4.5905416 0.0116024,4.3464896 -0.07022742,4.296133 -0.15205792,4.245775 -0.23668438,4.256966 -0.32480936,4.332502 c 10e-9,0.1258927 0.0570558,0.2334523 0.17035934,0.3215772 C 0.13510329,5.422024 0.38570748,5.8306926 0.59972506,5.8810493 1.1662419,6.9007798 1.6417943,7.6728011 2.0257667,8.1952564 2.4097392,8.7177098 2.680257,8.9603267 3.1838274,9.3380039 3.4172765,9.2270206 4.2168647,8.9055543 4.5160758,8.7733297 4.1135836,9.0275797 3.0585443,9.4140714 2.5866126,9.7801725 2.4229517,9.4906196 1.7879744,8.6667316 0.68011935,7.3070909 0.62976269,6.7783416 0.55960195,6.3696736 0.47147701,6.0801207 0.40853069,5.7905677 -1.3731211e-4,5.3051873 -0.75549309,4.6253668 c -0.0346201,-0.017311 -0.0634167,-0.024998 -0.0861367,-0.02297 -0.0433738,0.00387 -0.0650811,0.042408 -0.0650811,0.1167632 -0.0881247,-0.012589 -0.13207641,0.026725 -0.13207641,0.1148489 -0.088125,2e-7 -0.1320763,0.043951 -0.1320764,0.1320764 -0.069241,0 -0.1153225,0.014742 -0.1339904,0.038283 -0.021772,0.032753 0.00525,0.1154732 0.059335,0.1875867 0.67982048,0.6672315 1.01832773,1.1264034 1.01832773,1.378188 0.0251783,0.1384823 -0.0187728,0.1758812 -0.13207635,0.1129348 C -0.548103,6.2424531 -0.68323402,5.998401 -0.76506384,5.9480444 c -0.0818308,-0.050358 -0.166457,-0.039167 -0.25458196,0.036369 0,0.1258927 0.0570563,0.2334523 0.17035936,0.3215772 0.28955295,0.7679448 0.5401575,1.1766135 0.75417507,1.2269701 0.56651684,1.0197307 1.04206928,1.7917519 1.42604167,2.3142072 0.3839724,0.5224531 0.6966016,0.8894891 1.200172,1.2671671 0.5044017,-0.22899 3.5705645,-1.4908997 4.9136229,-2.7391483 0.5998877,0.4661537 1.491319,2.9788373 2.1400196,4.8294003 L 6.5087059,11.035855 C 5.9756863,10.659983 5.5174569,10.46161 5.1515735,10.46161 4.1257933,10.474674 3.6730079,10.898215 3.7906129,11.73452 l 0.5015074,3.606258 C 3.5146181,15.530253 3.1556511,16.116009 3.2144538,17.096054 2.8616377,17.16792 2.5379934,17.267817 2.2439798,17.398489 1.9565,17.522632 1.6670551,17.572016 1.3730416,17.545878 1.0790282,17.526277 0.87237657,17.669482 0.7547712,17.976562 H 16.328295 c -0.320148,-0.627229 -0.777885,-0.875276 -1.372446,-0.744604 -0.588027,0.130673 -0.987268,-0.126487 -1.196343,-0.773317 -0.202543,-0.640295 -0.54441,-0.777425 -1.027899,-0.411542 0.470422,-0.908175 0.482579,-1.862008 0.03828,-2.861653 C 12.650903,11.447083 11.521936,7.4703204 10.677724,6.4208394 9.8335119,5.3713585 9.179271,4.7753328 8.7118924,4.6330234 8.2445142,4.4907153 7.8890665,4.3100295 7.6495392,4.0874907 8.5356029,3.6695188 8.795472,2.871519 8.4285982,1.6948032 8.1075831,0.665177 7.4783154,0.10511322 6.5412464,0.01417962 6.4073795,0.0011891 6.2684871,-0.00347178 6.1220476,0.00269472 Z m -0.040197,0.42685543 c 0.1251441,3.6607e-4 0.2443701,0.009216 0.3579459,0.0229698 0.795031,0.0962747 1.3069692,0.51873455 1.5351483,1.27099555 0.2607764,0.859727 0.1573625,1.4733182 -0.3120065,1.839498 C 7.3211617,3.6833591 6.995048,3.5652021 6.6848076,3.2108099 6.9072908,2.732863 6.9919878,2.3980671 6.9413037,2.2039671 6.8515561,1.8801172 6.6778648,1.7259131 6.4225691,1.7407428 6.1672734,1.7555723 5.993658,1.8547112 5.9019203,2.0393503 5.7246407,1.83684 5.1380392,1.7198105 4.1389883,1.6852325 4.4331234,0.84647432 5.0806982,0.42662111 6.0818506,0.42955015 Z M 4.429939,2.1101738 c 0.3396518,-0.00708 0.8298438,0.1199646 1.4681531,0.3809158 0.1413699,0.025285 0.2719792,-0.043845 0.3943148,-0.2105565 0.057344,-0.078147 0.1073565,-0.1203377 0.1493037,-0.1244197 0.047541,-0.00464 0.083257,0.039656 0.1110207,0.1301622 0.05226,0.1703632 -0.046389,0.4908013 -0.3005215,0.9666457 0.5076629,0.9714939 1.0887689,1.5245528 1.7476188,1.6557396 0.6588506,0.1311866 1.4082576,0.7606616 2.2472124,1.889266 0.838955,1.128604 1.775921,4.7149851 1.935205,6.4353721 l -1.764846,0.3924 C 9.9074151,11.833277 8.6509464,8.5038652 7.9136919,7.9387603 8.1688752,7.4470911 8.2668246,6.8156983 7.9481467,6.4686932 7.629468,6.1216874 7.3906606,6.0201681 7.2303404,6.160515 7.0700201,6.3008621 6.8521326,6.5762993 6.5546455,6.9682863 6.4681081,6.8353821 6.5509477,6.9787837 6.4263974,6.7003053 6.3018472,6.4218261 6.3595003,6.051169 6.5967568,5.5900983 6.5259872,5.2198251 6.3590672,4.8689009 6.0952495,4.5334876 5.8314318,4.1980742 5.3729834,4.1671661 4.7189757,4.4416084 4.5691961,4.5429194 4.4246497,4.4350388 4.2863778,4.1238595 4.1712878,3.7029599 4.0010481,3.5182613 3.7752997,3.5668419 3.5326746,3.6301965 3.600549,3.1974983 3.9801138,2.2690483 4.076223,2.1681455 4.2261481,2.1144201 4.429939,2.1101738 Z M 4.5352173,2.3417859 C 4.1934619,2.3372097 4.0147433,2.479779 3.995427,2.7705555 4.2001509,3.0384658 4.6037595,2.9385762 5.207084,2.470034 5.0124304,2.4094201 4.8400074,2.3691241 4.6921776,2.3513566 4.6367413,2.344698 4.5840396,2.3424367 4.5352173,2.3417859 Z m 1.4011578,9.1802631 3.5009801,2.298894 -4.0273714,1.215485 c 0.09147,-1.862085 0.012428,-2.794939 -0.3273197,-3.409101 z m 6.3339219,2.153419 c 0.274413,1.051914 0.111072,1.965475 -0.490022,2.742977 -0.908175,0.542291 -2.0082502,0.626998 -3.3019088,0.254581 -1.2936591,-0.378951 -2.5236664,-0.303354 -3.6866528,0.22587 0.1176053,-0.41162 1.0794273,-1.085119 2.8827098,-2.019428 z"
     sodipodi:nodetypes="ssccssscssccccccccccccscccsccccccccccccccscccsccccccccccccccccsscsssscscccsccsccscscsscccsscscsccccccccccccccccccccc" />
</svg>
