<?xml version="1.0" encoding="UTF-8" standalone="no"?>
<svg
   width="14.066528"
   height="17.977417"
   version="1.1"
   id="svg1"
   sodipodi:docname="13477.svg"
   inkscape:version="1.4.2 (f4327f4, 2025-05-13)"
   xmlns:inkscape="http://www.inkscape.org/namespaces/inkscape"
   xmlns:sodipodi="http://sodipodi.sourceforge.net/DTD/sodipodi-0.dtd"
   xmlns="http://www.w3.org/2000/svg"
   xmlns:svg="http://www.w3.org/2000/svg">
  <defs
     id="defs1" />
  <sodipodi:namedview
     id="namedview1"
     pagecolor="#ffffff"
     bordercolor="#666666"
     borderopacity="1.0"
     inkscape:showpageshadow="2"
     inkscape:pageopacity="0.0"
     inkscape:pagecheckerboard="0"
     inkscape:deskcolor="#d1d1d1"
     inkscape:zoom="32"
     inkscape:cx="8.703125"
     inkscape:cy="11.671875"
     inkscape:window-width="1680"
     inkscape:window-height="998"
     inkscape:window-x="-8"
     inkscape:window-y="-8"
     inkscape:window-maximized="1"
     inkscape:current-layer="svg1" />
  <path
     id="path11"
     style="fill:#000000;stroke:none;stroke-width:0.980045"
     d="M 6.1210938,0.00195313 C 4.9495777,0.05128429 4.215839,0.40482239 3.9179688,1.0605469 3.6200982,1.7162721 3.4951404,2.1342248 3.546875,2.3125 3.1652077,3.272599 3.1301712,3.802196 3.4414062,3.9023438 c 0.225749,-0.048581 0.373996,0.031213 0.4394532,0.2421874 0.065457,0.2109755 0.1621111,0.4102188 0.2929687,0.59375 0.1308576,0.1835314 0.301269,0.2450448 0.5117188,0.1875 C 4.8959972,4.8682367 5.1557674,4.7882635 5.4648438,4.6816406 5.9670818,5.0169974 6.1503766,5.330264 6.0117188,5.6230469 5.8730611,5.9158298 5.7269745,6.1816233 5.5761719,6.4179688 5.4253692,6.654314 4.6150272,7.0247402 3.28125,8.1289062 3.1175891,7.8393535 2.482855,7.0139377 1.375,5.6542969 1.3246433,5.1255476 1.2541405,4.7172873 1.1660156,4.4277344 1.1030692,4.1381813 0.69480892,3.6524767 -0.06054687,2.9726562 c -0.03462047,-0.017311 -0.06321785,-0.023512 -0.08593751,-0.021484 -0.0433739,0.00387 -0.0644531,0.040879 -0.0644531,0.1152343 -0.0881249,-0.012589 -0.1328125,0.02711 -0.1328125,0.1152344 -0.0881249,10e-8 -0.1328125,0.044687 -0.1328125,0.1328125 -0.0723882,0 -0.11960612,0.013302 -0.13671875,0.039063 l -0.001953,0.00195 c -0.009512,0.02279 -7.3903e-4,0.098622 0.0644531,0.1855468 C 0.12903937,4.2082447 0.466797,4.6661817 0.466797,4.9179664 0.49197472,5.0564557 0.44924107,5.0941964 0.3359375,5.03125 0.14709857,4.5906251 0.01151732,4.3472316 -0.0703125,4.296875 -0.152143,4.246517 -0.23609377,4.256495 -0.32421875,4.332031 c 10e-9,0.1258927 0.0566183,0.2341408 0.16992187,0.3222657 0.28955333,0.767945 0.53988866,1.1762058 0.75390626,1.2265625 C 1.1661262,6.9005901 1.6414182,7.6728572 2.0253906,8.1953125 2.4093631,8.7177659 2.6800234,8.9602134 3.1835938,9.3378906 3.4170426,9.2269073 4.2164139,8.9056621 4.515625,8.7734375 4.1131328,9.0276875 3.0578692,9.4131958 2.5859375,9.7792969 2.4222766,9.489744 1.7875425,8.6662813 0.6796875,7.3066406 0.62933084,6.7778913 0.55882809,6.369631 0.47070312,6.0800781 0.4077568,5.7905251 -5.0358711e-4,5.3048205 -0.75585938,4.625 -0.79047948,4.607689 -0.81907688,4.5995335 -0.84179688,4.6015625 -0.88517068,4.6054325 -0.90625,4.6443945 -0.90625,4.71875 -0.9943747,4.706161 -1.0390625,4.745861 -1.0390625,4.8339844 c -0.088125,2e-7 -0.1308593,0.044687 -0.1308594,0.1328125 -0.069241,0 -0.1160977,0.013568 -0.1347656,0.037109 -6.804e-4,0.00102 -0.00332,0.00474 -0.00391,0.00586 -0.014854,0.03633 0.011796,0.1140343 0.0625,0.1816406 0.67982063,0.6672315 1.0195313,1.1271217 1.0195313,1.3789063 0.0251783,0.1384823 -0.0195089,0.1762276 -0.1328125,0.1132813 -0.18883528,-0.4406247 -0.32442018,-0.6859716 -0.40625,-0.7363282 -0.0818308,-0.050358 -0.16578139,-0.038427 -0.2539062,0.037109 0,0.1258927 0.0566188,0.2341407 0.16992182,0.3222656 0.28955298,0.7679448 0.53988867,1.1762059 0.75390626,1.2265625 C 0.4708171,8.5529341 0.94610577,9.3252009 1.3300781,9.8476562 1.7140505,10.370109 2.0276796,10.737556 2.53125,11.115234 3.0356517,10.886244 6.1022541,9.6232486 7.4453125,8.375 8.0452002,8.8411537 8.7223932,10.323265 9.3710938,12.173828 L 7.0839844,10.75 C 6.5190197,10.398284 6.1252864,10.173828 5.7519531,10.173828 4.7052864,10.187158 4.2432815,10.619322 4.3632812,11.472656 l 0.3828126,4.007813 c -0.5463901,0.476543 -0.7880569,0.936147 -0.7265626,1.378906 l 0.1269532,0.222656 -0.1230469,-0.0039 c -0.36,0.07333 -0.6902343,0.175261 -0.9902344,0.308594 -0.2933333,0.12667 -0.5886719,0.17706 -0.8886719,0.15039 -0.3000004,-0.02 -0.5108591,0.12612 -0.6308593,0.439453 h 4.9101562 l -0.00586,-0.193359 c 0.5618888,-0.128815 1.2474927,-0.321536 2.0566406,-0.580078 1.9079973,-0.83307 2.9483693,-1.25 3.1230463,-1.25 0.282168,0.349352 0.282168,0.826994 0,1.431641 -0.456846,0.16124 -0.616789,0.335325 -0.482422,0.523437 0.295605,0.01344 0.603303,-0.0038 0.925782,-0.05078 0.322479,-0.04703 0.565327,-0.463962 0.726562,-1.25 0.161242,-0.786043 0.25133,-1.339631 0.271484,-1.66211 0.02016,-0.322478 -0.116504,-0.490469 -0.412109,-0.503906 0.268729,-0.456845 0.280926,-1.18952 0.03906,-2.197265 -0.02402,-0.322493 -0.01754,-0.676948 0.02148,-1.064453 C 12.568517,9.4413135 11.521946,7.4694029 10.677734,6.4199219 9.8335231,5.370441 9.1783161,4.7751219 8.7109375,4.6328125 8.2435593,4.4905044 7.8899179,4.3104294 7.6503906,4.0878906 8.5364543,3.6699187 8.7946082,2.8720283 8.4277344,1.6953125 8.1067193,0.6656863 7.4780846,0.10460545 6.5410156,0.01367188 6.4071487,6.81345e-4 6.2675331,-0.00421337 6.1210938,0.00195313 Z M 6.0820312,0.4296875 c 0.1251441,3.6607e-4 0.2438461,0.009684 0.3574219,0.0234375 0.795031,0.0962747 1.3069772,0.51727035 1.5351563,1.2695312 0.2607764,0.859727 0.156869,1.473664 -0.3125,1.8398438 C 7.3203328,3.6828456 6.9957873,3.5653297 6.6855469,3.2109375 6.9080301,2.7329906 6.9920904,2.397225 6.9414062,2.203125 6.8516587,1.8792751 6.6771707,1.7254047 6.421875,1.7402344 6.1665793,1.7550639 5.9940814,1.8544234 5.9023438,2.0390625 5.7250642,1.8365522 5.1377228,1.7201249 4.1386719,1.6855469 4.432807,0.84678864 5.0808788,0.42675846 6.0820312,0.4296875 Z M 4.4296875,2.109375 C 4.7693393,2.102295 5.2601282,2.2292832 5.8984375,2.4902344 6.0398074,2.5155194 6.1706331,2.4479614 6.2929688,2.28125 6.3503128,2.203103 6.3994591,2.160332 6.4414062,2.15625 6.4889472,2.15161 6.5249702,2.196603 6.5527344,2.2871094 6.6049944,2.4574726 6.5060854,2.7761087 6.2519531,3.2519531 6.759616,4.223447 7.3411501,4.7770163 8,4.9082031 c 0.6588506,0.1311866 1.4071385,0.7620206 2.246094,1.890625 0.838955,1.128604 1.778944,2.7367019 1.982422,4.4902349 -0.564337,0.174676 -1.213195,0.424249 -2.2343754,0.894531 C 9.4841553,10.391181 8.651317,8.504558 7.9140625,7.9394531 8.1692458,7.4477839 8.2659435,6.8157551 7.9472656,6.46875 7.6285869,6.1217442 7.390789,6.0198095 7.2304688,6.1601562 7.0701484,6.3005033 6.8521746,6.576763 6.5546875,6.96875 6.4681501,6.8358458 6.5503315,6.9796503 6.4257812,6.7011719 6.3012311,6.4226927 6.3604,6.0509145 6.5976562,5.5898438 6.5268868,5.2195706 6.3595208,4.8686164 6.0957031,4.5332031 5.8318854,4.1977897 5.3727577,4.1669641 4.71875,4.4414062 4.5689704,4.5427172 4.4253813,4.4342262 4.2871094,4.1230469 4.1720194,3.7021473 4.001139,3.5178257 3.7753906,3.5664062 3.5327655,3.629761 3.6009038,3.1979814 3.9804688,2.2695312 4.0765778,2.1686284 4.2258966,2.1136213 4.4296875,2.109375 Z M 4.5351562,2.3417969 C 4.1934008,2.3372207 4.01541,2.4807079 3.9960938,2.7714844 4.2008176,3.0393947 4.6037067,2.9392453 5.2070312,2.4707031 5.0123777,2.4100892 4.8392361,2.36933 4.6914062,2.3515625 c -0.055436,-0.00666 -0.1074276,-0.00911 -0.15625,-0.00977 z m 1.1464844,9.0214841 0.9042969,-0.15625 2.3945313,1.46875 c -1.0785107,0.57874 -2.0762886,1.27562 -3.0722657,1.97461 0.051704,-1.713799 0.088399,-2.717755 -0.2265625,-3.28711 z m 6.5312504,0.490235 -0.05078,0.451172 c 0.268732,0.913688 0.242404,1.646363 -0.08008,2.197265 -0.886816,0.51059 -1.955473,0.832431 -3.2050779,0.966797 -1.249604,0.134366 -2.3102146,0.597865 -3.1835937,1.390625 0.4971538,-1.209295 0.9293214,-1.994634 1.2988281,-2.357422 0.3695066,-0.362789 1.0930407,-0.829335 2.1679687,-1.400391 1.0749298,-0.571054 2.0718638,-0.992751 3.0527348,-1.248046 z"
     sodipodi:nodetypes="ssccssscsscccccccccccccscccscccccccccccccccscccscccscccccccccccccccccccccsscsssssscccsccsccccscsscccsscscsccccccccccccccccccscsscc" />
</svg>
