<?xml version="1.0" encoding="UTF-8" standalone="no"?>
<svg
   width="2000"
   height="2000"
   version="1.1"
   id="svg1"
   sodipodi:docname="1348E.svg"
   inkscape:version="1.4.2 (f4327f4, 2025-05-13)"
   xmlns:inkscape="http://www.inkscape.org/namespaces/inkscape"
   xmlns:sodipodi="http://sodipodi.sourceforge.net/DTD/sodipodi-0.dtd"
   xmlns="http://www.w3.org/2000/svg"
   xmlns:svg="http://www.w3.org/2000/svg">
  <defs
     id="defs1" />
  <sodipodi:namedview
     id="namedview1"
     pagecolor="#ffffff"
     bordercolor="#666666"
     borderopacity="1.0"
     inkscape:showpageshadow="2"
     inkscape:pageopacity="0.0"
     inkscape:pagecheckerboard="0"
     inkscape:deskcolor="#d1d1d1"
     inkscape:zoom="0.18875"
     inkscape:cx="463.57616"
     inkscape:cy="325.82781"
     inkscape:window-width="1680"
     inkscape:window-height="998"
     inkscape:window-x="-8"
     inkscape:window-y="-8"
     inkscape:window-maximized="1"
     inkscape:current-layer="svg1" />
  <path
     id="path1"
     style="fill:#000000;stroke:none;stroke-width:111.312"
     d="M 183.39648 0.29296875 C 156.74354 1.4738039 130.86788 6.1099174 105.56445 14.207031 C 54.957665 30.401188 29.689453 64.843496 29.689453 117.47461 C 29.689453 168.75618 38.64683 205.43224 56.865234 227.69922 C 75.083716 249.96627 104.42862 269.33516 144.91406 285.5293 C 135.46744 338.16035 103.47567 375.66263 48.820312 397.92969 C -5.8350534 420.19666 -14.596039 478.88847 22.515625 574.0293 C 59.627359 669.17013 83.680461 747.01203 94.476562 807.74023 C 44.544474 894.1092 34.349705 987.24524 64.039062 1087.1094 L 41.646484 1461.4824 C 13.306672 1515.4631 3.5250229 1578.6447 12.296875 1650.8438 C 21.068728 1723.0428 28.205465 1775.4241 33.603516 1807.8125 C 39.001572 1842.8998 37.786531 1877.9497 29.689453 1913.0371 C 21.592375 1948.1247 28.923467 1977.0582 51.865234 2000 C 212.45753 2000 304.15978 1998.7853 327.10156 1996.0859 C 350.04332 1993.3866 358.80625 1985.8389 353.4082 1973.6934 C 348.01016 1961.549 318.46895 1950.1398 264.48828 1939.3438 C 211.85725 1928.5477 173.33624 1913.0613 149.04492 1892.8184 C 124.75369 1872.5758 118.03006 1826.9199 128.82617 1756.0703 C 139.62227 1685.2208 150.4246 1586.9874 161.2207 1461.4824 C 184.16246 1416.9484 197.60961 1383.9379 201.6582 1362.3457 L 333.18945 1362.3457 C 344.15716 1375.8409 358.82951 1396.8359 377.27344 1425.1758 C 395.71737 1453.5157 403.25822 1479.1969 399.90625 1502.1387 C 379.93271 1576.3619 391.64676 1654.617 435.06836 1736.9375 C 478.49009 1819.2578 495.79549 1877.9497 486.66016 1913.0371 C 477.52475 1948.1247 483.34977 1977.0582 504.28906 2000 C 664.88134 2000 756.68983 1998.7853 779.86719 1996.0859 C 803.04455 1993.3866 812.46493 1985.8389 808.12695 1973.6934 C 803.78892 1961.549 775.24533 1950.1399 722.20703 1939.3438 C 671.69614 1915.0524 633.80953 1896.0948 608.67188 1882.5996 C 583.53421 1869.1045 568.3202 1835.6809 562.85156 1782.375 C 557.38291 1729.069 541.13896 1646.541 514.47852 1534.5312 C 525.93767 1480.5506 522.12027 1423.8985 503.01172 1364.5195 L 503.20117 1362.3457 C 445.9354 1209.295 415.90157 1045.3467 354.71094 893.83398 C 435.52534 940.29507 518.17592 968.91613 602.55664 979.70898 C 621.25098 1005.047 645.05474 1025.5758 670.38672 1043.4102 C 688.2063 1055.9556 709.34393 1034.7022 728 989.92773 C 746.89325 996.67525 759.73295 994.63595 766.48047 983.83984 C 740.59013 962.96055 694.56083 931.36211 641.90625 920.14062 C 600.74602 911.36878 554.89585 894.86359 504.28906 870.57227 C 454.64934 846.74528 396.22701 818.26366 329.05859 785.34766 C 329.26563 778.86695 330.01455 772.90432 331.23242 767.30273 L 389.93164 546.63477 C 379.13557 711.27566 383.21416 797.68802 402.10742 805.78516 C 524.91329 821.97934 618.65493 817.90068 683.43164 793.60938 C 715.38616 808.38057 762.78562 826.99067 804.71484 830.25195 C 815.88749 831.12097 824.16282 819.77924 829.5918 798.24023 L 833.02148 798.24023 C 838.45046 819.77924 846.72579 831.12097 857.89844 830.25195 C 899.82774 826.99067 947.22714 808.38057 979.18164 793.60938 C 1043.9584 817.90069 1137.7001 821.97934 1260.5059 805.78516 C 1279.3992 797.68802 1283.4758 711.27566 1272.6797 546.63477 L 1331.3809 767.30273 C 1332.5987 772.90432 1333.3477 778.86695 1333.5547 785.34766 C 1266.3863 818.26366 1207.964 846.74528 1158.3242 870.57227 C 1107.7174 894.86359 1061.8672 911.36878 1020.707 920.14062 C 968.05244 931.36211 922.02311 962.96055 896.13281 983.83984 C 902.88031 994.63595 915.71998 996.67525 934.61328 989.92773 C 953.26928 1034.7022 974.40696 1055.9556 992.22656 1043.4102 C 1017.5585 1025.5758 1041.3623 1005.047 1060.0566 979.70898 C 1144.4373 968.91613 1227.086 940.29507 1307.9004 893.83398 C 1246.7097 1045.3467 1216.6779 1209.295 1159.4121 1362.3457 L 1159.6016 1364.5195 C 1140.4931 1423.8985 1136.6757 1480.5506 1148.1348 1534.5312 C 1121.4744 1646.541 1105.2303 1729.069 1099.7617 1782.375 C 1094.2931 1835.6809 1079.0772 1869.1045 1053.9395 1882.5996 C 1028.8019 1896.0948 990.91705 1915.0524 940.40625 1939.3438 C 887.36795 1950.1399 858.82248 1961.549 854.48438 1973.6934 C 850.14637 1985.8389 859.56879 1993.3866 882.74609 1996.0859 C 905.92349 1998.7853 997.73203 2000 1158.3242 2000 C 1179.2635 1977.0582 1185.0885 1948.1247 1175.9531 1913.0371 C 1166.8178 1877.9497 1184.1231 1819.2578 1227.5449 1736.9375 C 1270.9665 1654.617 1282.6805 1576.3619 1262.707 1502.1387 C 1259.355 1479.1969 1266.8958 1453.5157 1285.3398 1425.1758 C 1303.7837 1396.8359 1318.4561 1375.8409 1329.4238 1362.3457 L 1460.9551 1362.3457 C 1465.0037 1383.9379 1478.4508 1416.9484 1501.3926 1461.4824 C 1512.1887 1586.9874 1522.9891 1685.2208 1533.7852 1756.0703 C 1544.5813 1826.9199 1537.8577 1872.5758 1513.5664 1892.8184 C 1489.2751 1913.0613 1450.7561 1928.5477 1398.125 1939.3438 C 1344.1444 1950.1398 1314.6031 1961.549 1309.2051 1973.6934 C 1303.807 1985.8389 1312.5699 1993.3866 1335.5117 1996.0859 C 1358.4535 1998.7853 1450.1557 2000 1610.748 2000 C 1633.6897 1977.0582 1641.0208 1948.1247 1632.9238 1913.0371 C 1624.8267 1877.9497 1623.6118 1842.8998 1629.0098 1807.8125 C 1634.4079 1775.4241 1641.5446 1723.0428 1650.3164 1650.8438 C 1659.0883 1578.6447 1649.3066 1515.4631 1620.9668 1461.4824 L 1598.5742 1087.1094 C 1628.2636 987.24524 1618.0688 894.1092 1568.1367 807.74023 C 1578.9328 747.01203 1602.986 669.17013 1640.0977 574.0293 C 1677.2094 478.88847 1668.4463 420.19666 1613.791 397.92969 C 1559.1356 375.66263 1527.1439 338.16035 1517.6973 285.5293 C 1558.1827 269.33516 1587.5295 249.96627 1605.748 227.69922 C 1623.9664 205.43224 1632.9238 168.75618 1632.9238 117.47461 C 1632.9238 64.843496 1607.6556 30.401188 1557.0488 14.207031 C 1531.7454 6.1099174 1505.8697 1.4738039 1479.2168 0.29296875 C 1452.5638 -0.88787194 1425.2563 1.5145638 1397.2539 7.25 C 1341.249 18.720881 1305.1805 64.159812 1288.9863 143.78125 C 1276.8407 158.62586 1263.1747 180.83604 1248.3301 210.52539 C 1242.932 229.41866 1243.9532 239.61107 1251.375 240.96094 C 1258.7974 242.31049 1266.5396 245.56483 1274.6367 250.96289 C 1256.372 260.09524 1268.4711 267.14169 1276.8105 269.22656 C 1277.3425 269.07457 1282.1947 267.70508 1283.9844 267.70508 L 1283.9844 268.13867 C 1283.4367 268.38013 1283.509 268.71086 1277.6816 271.40039 C 1274.118 273.04513 1271.8319 274.76158 1270.9414 276.18359 C 1270.8891 276.29157 1270.7616 276.72919 1270.7246 276.83594 L 1270.7246 277.05273 L 1270.7246 277.26953 L 1270.7246 277.48633 L 1270.7246 277.70312 C 1270.7502 277.80443 1270.8994 278.25532 1270.9414 278.35547 C 1270.9993 278.45454 1271.303 278.91031 1271.377 279.00781 L 1271.5938 279.22461 C 1272.4371 279.98365 1273.869 280.72389 1275.7246 281.39844 C 1283.1469 284.09744 1287.6368 293.88107 1288.9863 310.75 C 1290.3359 327.61895 1298.2745 336.38013 1313.1191 337.05469 C 1327.9638 337.72946 1348.3514 336.71071 1373.9922 334.01172 C 1384.7883 348.85633 1379.2797 357.61934 1357.6875 360.31836 C 1302.3573 368.41552 1258.5447 382.27384 1226.1562 401.8418 C 1193.7679 421.40975 1179.3001 453.40151 1182.6738 497.93555 C 1186.0476 542.46953 1188.2814 618.90397 1189.6309 726.86523 C 1120.8057 730.91373 1052.7453 734.77368 985.26953 738.82227 C 935.52366 723.51593 886.27785 706.14137 831.30664 716.76953 C 776.33545 706.14138 727.08965 723.51593 677.34375 738.82227 C 609.86795 734.77368 541.80768 730.91373 472.98242 726.86523 C 474.33197 618.90397 476.56564 542.46953 479.93945 497.93555 C 483.31317 453.40151 468.84534 421.40975 436.45703 401.8418 C 404.06864 382.27384 360.25595 368.41552 304.92578 360.31836 C 283.33359 357.61934 277.82498 348.85633 288.62109 334.01172 C 314.26187 336.71071 334.64945 337.72946 349.49414 337.05469 C 364.33875 336.38013 372.27739 327.61895 373.62695 310.75 C 374.9765 293.88107 379.46641 284.09744 386.88867 281.39844 C 388.74425 280.72389 390.17612 279.98365 391.01953 279.22461 L 391.23633 279.00781 C 391.31013 278.91031 391.614 278.45454 391.67188 278.35547 C 391.71407 278.25532 391.86307 277.80443 391.88867 277.70312 L 391.88867 277.48633 L 391.88867 277.26953 L 391.88867 277.05273 L 391.88867 276.83594 C 391.85177 276.72919 391.7242 276.29157 391.67188 276.18359 C 390.78138 274.76158 388.49519 273.04513 384.93164 271.40039 C 379.10421 268.71086 379.17456 268.38013 378.62695 268.13867 L 378.62695 267.70508 C 380.41661 267.70508 385.26877 269.07457 385.80078 269.22656 C 394.14015 267.14169 406.2412 260.09524 387.97656 250.96289 C 396.07364 245.56483 403.81597 242.31049 411.23828 240.96094 C 418.66012 239.61107 419.67931 229.41866 414.28125 210.52539 C 399.43659 180.83604 385.77258 158.62586 373.62695 143.78125 C 357.43278 64.159812 321.36234 18.720881 265.35742 7.25 C 237.355 1.5145638 210.0494 -0.88787194 183.39648 0.29296875 z M 209.26758 35.511719 C 241.69662 35.511719 298.50288 42.845914 306.88281 93.125 C 260.99928 98.523127 230.63375 107.28607 215.78906 119.43164 C 173.95405 97.839445 145.62788 97.644996 130.7832 118.5625 C 115.93859 139.47992 120.42845 163.12 144.04492 189.43555 C 167.66144 215.75111 173.97383 234.90319 163.17773 247.04883 C 152.38161 259.19448 133.42393 251.64659 106.43359 224.65625 C 79.443268 197.66593 65.996094 162.61613 65.996094 119.43164 C 65.996092 77.596711 91.264234 51.915376 141.87109 42.46875 C 167.17449 37.745436 189.69963 35.511719 209.26758 35.511719 z M 1453.3457 35.511719 C 1472.9136 35.511719 1495.4388 37.745436 1520.7422 42.46875 C 1571.349 51.915376 1596.6172 77.596711 1596.6172 119.43164 C 1596.6172 162.61613 1583.17 197.66593 1556.1797 224.65625 C 1529.1893 251.64659 1510.2316 259.19448 1499.4355 247.04883 C 1488.6394 234.90319 1494.9519 215.75111 1518.5684 189.43555 C 1542.1849 163.12 1546.6747 139.47992 1531.8301 118.5625 C 1516.9854 97.644996 1488.6592 97.839445 1446.8242 119.43164 C 1431.9795 107.28607 1401.614 98.523127 1355.7305 93.125 C 1364.1104 42.845914 1420.9166 35.511719 1453.3457 35.511719 z M 331.23242 119.43164 C 335.28091 124.82969 339.96515 132.3776 345.36328 141.82422 C 329.16904 133.72715 312.66385 133.31403 295.79492 140.73633 C 278.92599 148.1587 264.4601 151.82422 252.31445 151.82422 L 252.31445 162.04297 C 268.50869 160.69354 285.42512 157.22231 302.96875 151.82422 C 320.51246 146.42613 335.99893 147.25052 349.49414 153.99805 C 364.33875 168.84273 377.78599 193.6997 389.93164 228.78711 C 373.73748 234.1852 364.97642 240.90879 363.62695 249.00586 C 346.08317 249.00586 334.2622 251.45636 328.18945 256.17969 C 322.11658 260.903 328.42673 268.64726 347.32031 279.44336 C 352.71841 306.43369 339.27114 315.19467 306.88281 305.74805 C 274.49442 296.30154 256.36303 309.33743 252.31445 345.09961 C 248.26595 380.86172 265.1824 400.23059 302.96875 402.92969 C 340.75519 405.62872 365.61216 413.97854 377.75781 428.14844 C 389.90348 442.31834 387.45291 469.4315 370.58398 509.24219 C 353.71505 549.05287 336.6023 600.00039 319.05859 662.07812 C 311.25674 689.68462 305.00865 714.59846 300.14258 736.86719 C 255.32362 656.75354 196.7619 567.6394 124.69531 469.67383 C 101.75356 453.47968 80.97529 453.06656 62.082031 468.58594 C 49.496461 478.92412 43.990692 494.99924 45.777344 516.41602 C 24.353052 470.55549 38.621758 436.34889 88.388672 414.01758 C 141.0198 390.40104 174.44337 354.93807 188.61328 307.70508 C 202.78317 260.47201 201.95891 229.50092 186.43945 214.65625 C 170.92007 199.81157 159.09902 182.28571 151.00195 162.04297 C 142.9048 141.80024 145.96284 129.37172 160.13281 124.64844 C 174.30272 119.92517 188.16306 125.21696 201.6582 140.73633 C 215.15332 156.25578 222.48443 155.84455 223.83398 139.65039 C 252.17379 124.80572 288.04793 118.08217 331.23242 119.43164 z M 1331.3809 119.43164 C 1374.5654 118.08217 1410.4395 124.80572 1438.7793 139.65039 C 1440.1289 155.84455 1447.46 156.25578 1460.9551 140.73633 C 1474.4502 125.21696 1488.3106 119.92517 1502.4805 124.64844 C 1516.6505 129.37172 1519.7084 141.80024 1511.6113 162.04297 C 1503.5142 182.28571 1491.6932 199.81157 1476.1738 214.65625 C 1460.6543 229.50092 1459.8301 260.47201 1474 307.70508 C 1488.1699 354.93807 1521.5935 390.40104 1574.2246 414.01758 C 1623.9915 436.34889 1638.2602 470.55549 1616.8359 516.41602 C 1618.6225 494.99924 1613.1148 478.92412 1600.5293 468.58594 C 1581.636 453.06656 1560.8577 453.47968 1537.916 469.67383 C 1465.8494 567.6394 1407.2877 656.75354 1362.4688 736.86719 C 1357.6027 714.59846 1351.3566 689.68462 1343.5547 662.07812 C 1326.011 600.00039 1308.8982 549.05287 1292.0293 509.24219 C 1275.1604 469.4315 1272.7098 442.31834 1284.8555 428.14844 C 1297.0012 413.97854 1321.8562 405.62872 1359.6426 402.92969 C 1397.429 400.23059 1414.3473 380.86172 1410.2988 345.09961 C 1406.2502 309.33743 1388.1189 296.30154 1355.7305 305.74805 C 1323.3422 315.19467 1309.8949 306.43369 1315.293 279.44336 C 1334.1865 268.64726 1340.4967 260.903 1334.4238 256.17969 C 1328.3511 251.45636 1316.5301 249.00586 1298.9863 249.00586 C 1297.6369 240.90879 1288.8739 234.1852 1272.6797 228.78711 C 1284.8254 193.6997 1298.2745 168.84273 1313.1191 153.99805 C 1326.6143 147.25052 1342.0989 146.42613 1359.6426 151.82422 C 1377.1863 157.22231 1394.1046 160.69354 1410.2988 162.04297 L 1410.2988 151.82422 C 1398.1532 151.82422 1383.6873 148.1587 1366.8184 140.73633 C 1349.9494 133.31403 1333.4422 133.72715 1317.248 141.82422 C 1322.6461 132.3776 1327.3325 124.82969 1331.3809 119.43164 z M 171.20898 130.7168 C 170.92795 130.71175 170.65054 130.71263 170.35156 130.73633 C 166.1659 131.06856 162.71586 132.78423 160.13281 135.73633 C 155.40946 141.13438 154.99829 149.07303 159.04688 159.86914 C 163.09537 170.66524 171.662 183.31056 184.48242 197.48047 C 197.30278 211.65038 208.10511 217.76644 216.87695 215.74219 C 225.64881 213.71794 229.72549 209.22807 229.05078 202.48047 C 228.37601 195.73287 223.27865 190.44109 213.83203 186.39258 C 217.88059 180.99453 216.25441 171.4073 208.83203 157.91211 C 201.40974 144.41698 192.64679 136.06718 182.52539 132.69336 C 178.72986 131.42818 175.12621 130.76793 172.08984 130.73633 C 171.77372 130.73283 171.49002 130.72185 171.20898 130.7168 z M 1491.4043 130.7168 C 1491.1233 130.72185 1490.8376 130.73283 1490.5215 130.73633 C 1487.4851 130.76793 1483.8814 131.42818 1480.0859 132.69336 C 1469.9645 136.06718 1461.2035 144.41698 1453.7812 157.91211 C 1446.3588 171.4073 1444.7307 180.99453 1448.7793 186.39258 C 1439.3327 190.44109 1434.2353 195.73287 1433.5605 202.48047 C 1432.8858 209.22807 1436.9645 213.71794 1445.7363 215.74219 C 1454.5082 217.76644 1465.3106 211.65038 1478.1309 197.48047 C 1490.9514 183.31056 1499.5179 170.66524 1503.5664 159.86914 C 1507.615 149.07303 1507.2038 141.13438 1502.4805 135.73633 C 1499.8974 132.78423 1496.4473 131.06856 1492.2617 130.73633 C 1491.9627 130.71263 1491.6853 130.71175 1491.4043 130.7168 z M 176.36523 143.54297 C 180.9155 143.7163 186.28753 146.32469 189.48242 149.86914 C 194.88052 157.96621 198.95959 165.70834 201.6582 173.13086 C 205.03911 182.43005 201.23795 181.5329 197.5293 179.21484 C 190.50654 174.82532 194.57654 182.45942 197.5293 187.25781 C 199.58304 190.95079 205.84656 200.19548 197.53125 194.43164 C 192.12726 190.38688 186.23393 184.26707 179.48633 176.16992 C 172.7387 168.07284 168.85442 159.91742 168.17969 151.82031 C 168.0863 145.63082 171.81496 143.36964 176.36523 143.54297 z M 1486.248 143.54297 C 1490.7983 143.36964 1494.525 145.63082 1494.4316 151.82031 C 1493.7569 159.91742 1489.8747 168.07284 1483.127 176.16992 C 1476.3794 184.26707 1470.486 190.38688 1465.082 194.43164 C 1456.7667 200.19548 1463.0302 190.95079 1465.084 187.25781 C 1468.0367 182.45942 1472.1047 174.82532 1465.082 179.21484 C 1461.3733 181.5329 1457.5742 182.43005 1460.9551 173.13086 C 1463.6537 165.70834 1467.7308 157.96621 1473.1289 149.86914 C 1476.3238 146.32469 1481.6978 143.7163 1486.248 143.54297 z M 316.88281 153.56445 C 305.29517 154.35143 292.64145 159.27471 278.61914 168.13086 L 256.22656 168.13086 L 256.22656 180.30469 L 280.57617 178.13086 C 304.86742 187.57738 327.07759 189.61697 347.32031 184.21875 L 355.58203 184.21875 L 357.53906 174.2168 L 343.4082 159.86914 C 336.82931 155.8206 329.6023 153.81748 321.88477 153.56445 C 320.27697 153.51175 318.53819 153.45201 316.88281 153.56445 z M 1340.7285 153.56445 C 1333.011 153.81748 1325.784 155.8206 1319.2051 159.86914 L 1305.0742 174.2168 L 1307.0312 184.21875 L 1315.293 184.21875 C 1335.5357 189.61697 1357.744 187.57738 1382.0352 178.13086 L 1406.3848 180.30469 L 1406.3848 168.13086 L 1383.9922 168.13086 C 1369.9698 159.27471 1357.3161 154.35143 1345.7285 153.56445 C 1344.0731 153.45201 1342.3363 153.51175 1340.7285 153.56445 z M 329.27539 162.04297 C 337.37259 166.09151 342.05871 170.16827 343.4082 174.2168 C 339.35966 175.56624 333.84913 176.78131 327.10156 178.13086 C 331.1501 172.73277 331.97447 167.44106 329.27539 162.04297 z M 1333.3379 162.04297 C 1330.6388 167.44106 1331.4632 172.73277 1335.5117 178.13086 C 1328.7642 176.78131 1323.2537 175.56624 1319.2051 174.2168 C 1320.5546 170.16827 1325.2407 166.09151 1333.3379 162.04297 z M 309.05664 164 C 305.00809 169.39809 306.22317 174.0823 312.9707 178.13086 C 306.22306 176.78131 298.06764 174.74173 288.62109 172.04297 L 309.05664 164 z M 1353.5566 164 L 1373.9922 172.04297 C 1364.5456 174.74173 1356.3902 176.78131 1349.6426 178.13086 C 1356.3901 174.0823 1357.6051 169.39809 1353.5566 164 z M 211.87695 198.34961 C 217.27505 199.69905 219.31277 202.56268 217.96289 206.61133 C 217.28509 208.64472 215.22523 212.13103 209.70508 206.61133 C 204.30909 201.21542 208.82673 199.11402 211.87695 198.35156 L 211.87695 198.34961 z M 1450.7363 198.34961 L 1450.7363 198.35156 C 1453.7866 199.11402 1458.3042 201.21542 1452.9082 206.61133 C 1447.388 212.13103 1445.3262 208.64472 1444.6484 206.61133 C 1443.2986 202.56268 1445.3382 199.69905 1450.7363 198.34961 z M 348.62891 221.61328 C 346.10102 221.61328 344.69895 224.74721 344.27734 227.69922 C 343.60275 232.42253 345.44755 236.30486 349.49609 239.00391 C 353.54464 241.70289 357.62137 240.68437 361.66992 235.96094 C 365.71845 231.23763 369.57843 230.21704 373.62695 232.91602 C 376.7626 226.79918 374.49738 224.81595 367.75781 224.65625 C 365.31054 225.45984 363.31977 227.86432 361.67188 229.87305 C 358.97289 233.24681 355.91461 234.26795 352.54102 232.91797 C 349.03703 231.5158 348.42913 228.96777 349.49805 226.83008 C 350.8381 224.06094 350.12803 221.61328 348.62891 221.61328 z M 1313.9824 221.61328 C 1312.4833 221.61328 1311.7752 224.06094 1313.1152 226.83008 C 1314.1841 228.96777 1313.5763 231.5158 1310.0723 232.91797 C 1306.6987 234.26795 1303.6403 233.24681 1300.9414 229.87305 C 1299.2935 227.86432 1297.3008 225.45984 1294.8535 224.65625 C 1288.114 224.81595 1285.8487 226.79918 1288.9844 232.91602 C 1293.0329 230.21704 1296.8948 231.23763 1300.9434 235.96094 C 1304.9919 240.68437 1309.0687 241.70289 1313.1172 239.00391 C 1317.1658 236.30486 1319.0105 232.42253 1318.3359 227.69922 C 1317.9143 224.74721 1316.5103 221.61328 1313.9824 221.61328 z M 368.19141 253.78906 C 376.1318 253.70566 374.98963 260.63548 369.71289 261.17773 L 335.36328 257.04883 C 345.01582 256.70274 357.53542 254.32377 368.19141 253.78906 z M 1294.4219 253.78906 C 1305.0779 254.32377 1317.5975 256.70274 1327.25 257.04883 L 1292.8984 261.17773 C 1287.6217 260.63548 1286.4815 253.70566 1294.4219 253.78906 z M 337.32422 261.18164 L 363.62695 267.26758 C 372.18111 272.96868 364.23158 275.91139 361.67383 273.35352 L 346.45508 268.35352 C 340.38748 266.33106 337.32927 263.87788 337.32422 261.18164 z M 1325.2891 261.18164 C 1325.2841 263.87787 1322.2238 266.33106 1316.1562 268.35352 L 1300.9395 273.35352 C 1298.3817 275.91139 1290.4322 272.96868 1298.9863 267.26758 L 1325.2891 261.18164 z M 71.865234 578.8125 C 101.05321 621.19282 127.42036 659.96943 151.00195 695.3418 C 173.31705 728.81443 201.54503 764.66558 235.57422 802.74023 L 138.82812 793.60938 C 130.86742 743.57056 108.57695 671.97783 71.865234 578.8125 z M 1590.7461 578.8125 C 1554.0344 671.97783 1531.7459 743.57056 1523.7852 793.60938 L 1427.0391 802.74023 C 1461.0683 764.66558 1489.2962 728.81443 1511.6113 695.3418 C 1535.1929 659.96943 1561.5582 621.19282 1590.7461 578.8125 z M 141.00195 852.30859 L 302.96875 866.44141 L 426.45703 1309.7344 L 98.390625 1309.7344 L 110.56445 1089.0664 C 83.574127 974.3577 93.768897 895.49308 141.00195 852.30859 z M 1521.6113 852.30859 C 1568.8444 895.49308 1579.0392 974.3577 1552.0488 1089.0664 L 1564.2227 1309.7344 L 1236.1562 1309.7344 L 1359.6426 866.44141 L 1521.6113 852.30859 z " />
</svg>
