<?xml version="1.0" encoding="UTF-8" standalone="no"?>
<svg
   width="1000"
   height="1000"
   version="1.1"
   id="svg1"
   sodipodi:docname="13487.svg"
   inkscape:version="1.4.2 (f4327f4, 2025-05-13)"
   xmlns:inkscape="http://www.inkscape.org/namespaces/inkscape"
   xmlns:sodipodi="http://sodipodi.sourceforge.net/DTD/sodipodi-0.dtd"
   xmlns="http://www.w3.org/2000/svg"
   xmlns:svg="http://www.w3.org/2000/svg">
  <defs
     id="defs1" />
  <sodipodi:namedview
     id="namedview1"
     pagecolor="#ffffff"
     bordercolor="#666666"
     borderopacity="1.0"
     inkscape:showpageshadow="2"
     inkscape:pageopacity="0.0"
     inkscape:pagecheckerboard="0"
     inkscape:deskcolor="#d1d1d1"
     inkscape:zoom="0.3775"
     inkscape:cx="345.69536"
     inkscape:cy="430.46358"
     inkscape:window-width="1680"
     inkscape:window-height="998"
     inkscape:window-x="-8"
     inkscape:window-y="-8"
     inkscape:window-maximized="1"
     inkscape:current-layer="svg1"
     showguides="true">
    <sodipodi:guide
       position="0,1000"
       orientation="0,-1"
       id="guide1"
       inkscape:locked="false" />
  </sodipodi:namedview>
  <path
     style="fill:#000000;stroke:none;stroke-width:0.999996"
     d="M 450.39182,785.0182 263.62025,653.69446 h -41.82902 c 17.50983,32.42565 23.99496,96.95263 19.45537,193.58096 z m 148.83357,-9.72771 -239.30104,63.22999 C 265.89003,887.15891 215.9546,922.50283 210.118,944.55229 c 60.31167,-27.88608 124.02799,-32.10143 191.14898,-12.64604 67.12106,19.45539 124.35228,15.24004 171.6937,-12.64603 31.77708,-40.85628 40.53199,-88.84618 26.26471,-143.96973 z M 545.72315,221.78524 c -5.12327,-8.96588 9.09894,-32.86776 24.80564,-36.9652 18.1832,-4.74342 16.80388,10.31281 12.64584,21.40092 -5.43877,14.50338 -31.0456,41.40939 -42.31542,36.47882 -10.26689,-4.4918 -8.61896,-15.52137 4.86394,-20.91454 z m 17.50977,-25.29198 c -4.53957,4.53958 -8.10635,9.56556 -10.70039,15.07793 -2.594,5.51236 -1.78344,7.29577 2.43168,5.35021 4.21534,-1.94552 4.21534,2e-5 0,5.83661 -4.21533,5.83663 -4.21533,7.78216 0,5.83662 4.21534,-1.94553 8.75492,-5.8366 13.61877,-11.67323 4.86385,-5.83658 7.78215,-11.83533 8.75489,-17.99621 0.97288,-6.16088 -3.72885,-6.97153 -14.10516,-2.43193 z m -14.59149,-23.34643 c 63.20976,-30.9026 77.12753,22.09481 43.77457,55.4478 -17.50984,17.50984 -23.02219,31.12859 -16.53705,40.85628 6.48515,9.72771 20.59028,4.05321 42.31542,-17.02347 21.72517,-21.07665 32.58776,-46.53074 32.58776,-76.36228 0,-29.83157 -16.37495,-48.96269 -49.12486,-57.39335 -32.74983,-8.43066 -59.8252,-10.21407 -81.2261,-5.35022 -21.40092,4.86381 -35.66818,16.3749 -42.8018,34.53325 36.96519,5.83663 60.63587,14.26729 71.01206,25.29199 z m -4.86389,56.42058 c -3.89107,1.94554 -5.18807,4.21533 -3.89101,6.80937 1.29718,2.59404 3.56695,2.75618 6.80935,0.48643 3.24258,-2.2698 2.26987,-4.70172 -2.91814,-7.29576 z M 448.44628,211.0848 v -7.78216 l 10.70049,-8.75488 c 11.02469,-6.48515 24.96768,-3.24259 41.82897,9.72765 l 15.56432,1.94555 v 8.75489 l -16.53705,-3.89105 c -17.50984,7.13362 -33.07414,7.13362 -46.69291,0 z m 8.75493,-6.80939 c 2.59404,1.29703 5.83659,2.9183 9.72767,4.86384 -1.94556,-4.5396 -1.94556,-8.43067 0,-11.67322 -5.18807,1.94556 -8.43064,4.21535 -9.72767,6.80938 z m 20.42816,4.86384 c 5.18807,0 10.70041,-0.6485 16.53704,-1.94552 l -13.61877,-7.78215 c 2.59404,4.53959 1.62128,7.78213 -2.91827,9.72767 z m -45.72013,36.96525 c -1.4633,-4.38989 1.48958,-10.17497 8.26848,-1.45917 5.16935,6.64617 9.24133,2.78902 9.24133,-0.97278 0,-4.17233 2.68942,-7.8678 3.40466,0 0.61342,6.74683 -7.29938,12.58749 -13.6187,4.86383 -2.91835,-3.56681 -5.35026,-4.37744 -7.29577,-2.43188 z m 23.34637,22.37365 -19.45533,2.91832 c -3.93863,0.59079 -3.7942,5.33077 2.91828,4.86383 3.46629,-0.24112 14.05591,-5.30098 16.53705,-7.78215 z m 0.97282,-1.94556 c 0.64852,-0.64852 -1.29701,-1.29701 -5.83661,-1.9455 -4.53958,-0.64852 -8.75491,-1.29704 -12.64599,-1.94555 -8.92986,-1.48833 -8.23123,3.89105 -4.86388,3.89105 z m 85.6036,-77.82145 c -18.80687,-13.61876 -43.45032,-21.40093 -73.93038,-23.34647 -2.59407,3.24258 -6.16088,8.43069 -10.70044,15.56431 11.67322,-4.53958 23.18431,-3.72896 34.53326,2.4319 11.34898,6.16088 20.59028,9.56559 27.72387,10.21411 v 7.78215 c -11.0247,-1.94556 -22.21152,-5.67451 -33.56049,-11.18689 -11.34894,-5.51233 -22.21153,-5.67446 -32.58775,-0.48638 -10.37618,9.72769 -21.07663,26.91327 -32.10137,51.55673 11.02474,4.53961 16.5371,10.05196 16.5371,16.5371 11.02471,0.64849 18.64471,2.91829 22.86005,6.80939 4.21534,3.89107 -0.81065,9.72768 -15.07793,17.50983 -3.89107,18.15835 6.16088,25.94049 30.15585,23.34641 23.99495,-2.59404 35.99244,10.37622 35.99244,38.91075 0,23.34644 -17.50983,34.85753 -52.52947,34.53331 -35.01968,-0.32426 -51.88102,10.21405 -50.58401,31.61493 -3.89109,62.90572 -1.13489,100.68157 8.26854,113.32753 9.40343,12.64598 37.77586,95.8177 85.11726,249.51514 l 91.44022,-20.42816 c 3.24257,-113.48965 17.18557,-204.11925 41.82908,-271.88879 24.64345,-67.76954 23.83279,-101.81643 -2.43199,-102.14065 -26.26472,-0.32426 -43.93668,-0.97278 -53.01585,-1.94555 -9.07918,-0.97278 -13.61877,-27.39966 -13.61877,-79.28066 -1.94556,-7.13363 -5.83662,-15.56428 -11.67317,-25.29198 -5.83663,-9.72766 -3.24259,-19.29322 7.78211,-28.69665 11.0247,-9.40344 19.94173,-21.23878 26.75109,-35.50603 14.29616,-29.9538 -12.91992,-39.28686 -33.07408,-18.48265 -10.05195,10.3762 -14.75367,10.05197 -14.10517,-0.97273 z m 146.21124,186.8555 c 66.69823,-0.97868 121.67943,0.0999 164.94358,3.23587 14.01383,-22.88065 56.40631,-69.62782 81.76153,-104.51892 25.35525,-34.89113 42.49158,-73.36596 48.18354,-89.56532 4.52589,-11.62438 2.59801,-23.44595 -5.78363,-35.46474 -8.38161,-12.01872 -9.73786,-24.82069 -4.06876,-38.40591 5.66922,-13.585214 10.08789,-35.969586 13.25605,-67.153105 8.44913,-0.328441 12.76856,7.069649 12.95825,22.194251 0.18964,15.124585 1.12567,27.681583 2.80817,37.670984 13.493,11.6209 18.3099,-3.39963 14.4507,-45.061598 -3.8593,-41.661998 0.5133,-61.0704398 13.1177,-58.22534383 2.759,24.88038783 7.9798,46.50431383 15.6623,64.87176083 7.6826,18.367459 2.2159,52.527321 -16.4,102.479521 -22.4375,82.25619 -45.95262,151.04407 -101.71152,259.25339 -40.6634,15.96955 -88.26182,23.84684 -142.79526,23.63187 -54.53344,-0.21505 -110.29734,14.79226 -120.02504,23.22292 v 0.97278 c -24.64348,71.98487 -37.93799,164.07361 -39.88352,276.26624 22.69791,51.88103 21.72521,101.81649 -2.91812,149.80639 25.94049,-20.10392 44.26098,-13.29453 54.96146,20.42814 10.70043,33.72264 31.2907,47.34138 61.77079,40.8562 30.48008,-6.48507 54.47504,6.16093 71.98488,37.93798 H 0 c 4.5395888,-15.56428 14.591526,-22.86005 30.155812,-21.88727 15.564319,0.97278 30.966493,-1.94553 46.20652,-8.75493 15.240028,-6.80937 32.263478,-11.51106 51.070338,-14.10506 -2.59406,-51.23248 16.21279,-82.03683 56.42058,-92.41304 L 155.64294,659.53108 c -7.13362,-43.45031 16.21283,-65.49973 70.03933,-66.14829 18.80688,0 40.8563,11.34898 66.14829,34.04693 L 460.11949,751.94411 C 423.80278,625.48417 400.94272,554.30994 391.53932,538.4214 382.13588,522.53285 377.1099,501.29405 376.46139,474.70505 366.73368,465.62587 314.42551,455.87977 260.15192,459.56792 205.87836,463.256 157.70003,458.12994 115.61695,444.18976 61.85787,322.17369 44.524579,251.18948 28.310297,168.12196 12.44485,116.67039 9.2170636,82.133067 18.626942,64.509958 28.036822,46.886883 34.864161,25.474496 39.108928,0.27280817 51.884464,-1.6639653 54.858454,18.007381 48.030832,59.286924 41.203204,100.56646 44.934023,115.8929 59.223283,105.26626 c 2.392225,-9.84355 4.149441,-22.084527 5.27164,-36.722914 1.122149,-14.638367 6.03347,-21.925737 14.733943,-21.862104 1.216749,31.912346 4.095426,54.700828 8.63599,68.365488 4.540549,13.6647 2.055641,26.26288 -7.454724,37.79458 -9.510331,11.53168 -12.423873,23.25666 -8.740652,35.17488 4.51935,16.56482 13.20735,49.61341 36.27718,86.05601 23.0698,36.44255 62.0006,84.35409 80.39074,117.48443 43.02159,-5.54655 96.60059,-8.48037 160.73696,-8.80145 45.68055,-11.4615 75.37699,-33.53726 134.39161,-33.53726 l -4.86388,-31.12858 c -6.48511,1.29702 -16.53704,1.94554 -30.15581,1.94554 -12.97025,0.64849 -19.45538,-4.86389 -19.45538,-16.53709 0,-11.67322 -2.10766,-18.64471 -6.32299,-20.91449 -4.21533,-2.26982 -4.70172,-4.86386 -1.45918,-7.78216 3.24261,-2.9183 5.83665,-4.12476 7.78217,-4.37745 -18.37309,0 -11.12005,-9.05377 -6.80938,-12.64599 -3.89107,-3.24255 -8.59278,-5.67447 -14.10511,-7.29577 -5.51237,-1.62129 -5.02599,-9.24133 1.45913,-22.86008 11.02471,-20.10389 21.07666,-35.99243 30.15579,-47.66563 16.2128,-51.23249 43.61248,-79.44278 82.19899,-84.630887 38.58646,-5.188074 72.9576,-1.945503 103.11343,9.727707 30.15583,11.67322 45.23374,34.69541 45.23374,69.06656 0,34.37117 -8.10639,61.28442 -24.3192,80.73977 -16.21283,19.4554 -33.07415,32.7499 -50.58396,39.88353 l 0.97287,47.66563 c 46.04439,0 62.92702,11.74767 91.73621,33.15804 z"
     id="path1"
     sodipodi:nodetypes="ccccccccscccsssccsssssccccsssssscccssscccccccccccccccccccssssccssccsssccccsccscccscssscsccssscsssscccscsscscscsccsccccssccssccccccscsccscscscsscscccccsssccsccsssscccc" />
</svg>
