<?xml version="1.0" encoding="UTF-8" standalone="no"?>
<svg
   width="1000"
   height="1000"
   version="1.1"
   id="svg1"
   sodipodi:docname="13486.svg"
   inkscape:version="1.4.2 (f4327f4, 2025-05-13)"
   xmlns:inkscape="http://www.inkscape.org/namespaces/inkscape"
   xmlns:sodipodi="http://sodipodi.sourceforge.net/DTD/sodipodi-0.dtd"
   xmlns="http://www.w3.org/2000/svg"
   xmlns:svg="http://www.w3.org/2000/svg">
  <defs
     id="defs1" />
  <sodipodi:namedview
     id="namedview1"
     pagecolor="#ffffff"
     bordercolor="#666666"
     borderopacity="1.0"
     inkscape:showpageshadow="2"
     inkscape:pageopacity="0.0"
     inkscape:pagecheckerboard="0"
     inkscape:deskcolor="#d1d1d1"
     inkscape:zoom="0.3775"
     inkscape:cx="846.35762"
     inkscape:cy="411.92053"
     inkscape:window-width="1680"
     inkscape:window-height="998"
     inkscape:window-x="-8"
     inkscape:window-y="-8"
     inkscape:window-maximized="1"
     inkscape:current-layer="svg1"
     showguides="true" />
  <path
     style="fill:#000000;stroke:none;stroke-width:55.4022"
     d="M 470.69877,764.2089 265.84861,620.17366 h -45.87787 c 19.2047,35.5643 26.31755,106.33717 21.33855,212.31867 z m 163.23994,-10.66931 -262.46424,69.35036 c -103.13635,53.34638 -157.90531,92.11143 -164.30686,116.29518 66.14953,-30.5853 136.03329,-35.20868 209.65126,-13.87012 73.61807,21.33856 136.38902,16.71519 188.31283,-13.87011 34.85294,-44.81095 44.45531,-97.44606 28.80701,-157.90531 z M 575.2577,146.4577 c -2.84489,-4.979 -1.06704,-12.44748 5.33469,-22.40544 6.40156,-9.958 13.69227,-16.00393 21.87203,-18.13781 8.17975,-2.13381 13.33659,-0.88909 15.47047,3.73428 2.13409,4.62337 1.60057,11.20274 -1.60058,19.73815 -3.20059,8.53542 -10.31363,17.95996 -21.3385,28.2736 -11.02493,10.31364 -19.38253,14.2257 -25.07285,11.73618 -5.69025,-2.48949 -8.0019,-6.22372 -6.93496,-11.20271 1.06704,-4.979 5.15683,-8.89108 12.26965,-11.73625 z m 19.20464,-27.74012 c -4.979,4.97901 -8.89101,10.49146 -11.73614,16.5374 -2.84491,6.04593 -1.95624,8.00196 2.66706,5.86809 4.62333,-2.13381 4.62333,3e-5 0,6.40156 -4.6233,6.40159 -4.6233,8.53544 0,6.40156 4.62333,-2.1338 9.60238,-6.40153 14.93701,-12.80312 5.33468,-6.40154 8.53543,-12.98092 9.60231,-19.73816 1.06706,-6.75722 -4.0898,-7.64634 -15.47046,-2.66733 z M 578.45846,93.111328 c 32.00782,-15.648287 52.81291,-14.225728 62.41527,4.267691 9.60237,18.493421 4.80116,37.342481 -14.40352,56.547171 -19.20469,19.20472 -25.25063,34.14171 -18.13776,44.811 7.11287,10.6693 22.58334,4.44553 46.41135,-18.67127 23.82805,-23.11677 35.74209,-51.0347 35.74209,-83.753778 0,-32.719122 -17.95997,-53.702036 -53.8799,-62.948749 -35.91988,-9.246705 -65.61598,-11.202736 -89.08841,-5.868093 -23.47243,5.334626 -39.12068,17.95991 -46.9448,37.87591 40.54324,6.401574 66.50511,15.648286 77.88568,27.740118 z m -5.33468,61.881802 c -4.26763,2.13388 -5.69025,4.62338 -4.26763,7.46851 1.42273,2.84513 3.91195,3.02296 7.46843,0.53353 3.55628,-2.48951 2.48979,-5.15686 -3.20059,-8.00198 z M 468.56491,134.72151 v -8.53542 l 11.73624,-9.60234 c 12.09183,-7.11286 27.38444,-3.55642 45.87782,10.66926 l 17.07088,2.13387 v 9.60233 l -18.13776,-4.2677 c -19.20471,7.82413 -36.27556,7.82413 -51.21255,0 z m 9.60236,-7.4685 10.66926,5.33463 c -2.13387,-4.979 -2.13387,-9.24671 0,-12.80312 -5.69025,2.13387 -9.24668,4.62337 -10.66926,7.46849 z m 22.40551,5.33463 c 5.69024,0 11.73616,-0.71125 18.13775,-2.13382 l -14.937,-8.53543 c 2.84512,4.979 1.77818,8.53542 -3.20075,10.66925 z m -50.14562,40.5433 c -0.71132,-2.13387 -0.71132,-3.73428 0,-4.80121 0.71125,-1.06693 1.77818,-1.6004 3.20074,-1.6004 1.42257,0 3.37859,1.6004 5.86809,4.80121 2.48951,3.20074 4.80121,4.44553 6.93509,3.73422 2.13383,-0.7113 3.20075,-2.31166 3.20075,-4.80116 0,-2.4895 0.53353,-4.08989 1.60042,-4.80115 1.06687,-0.71131 1.77819,0.88909 2.13381,4.80115 0.35568,3.91207 -1.24472,6.7572 -4.80115,8.53544 -3.55645,1.77819 -6.93502,0.71125 -10.13579,-3.20082 -3.20081,-3.91205 -5.86813,-4.80115 -8.00196,-2.66728 z m 25.60618,24.53931 -21.3385,3.20081 c -2.13387,2.13382 -2.84513,3.55639 -2.13382,4.2677 0.71125,0.7113 2.48945,1.06693 5.33458,1.06693 2.84518,-0.7113 6.22377,-1.95603 10.13584,-3.73428 3.91206,-1.77818 6.57936,-3.37859 8.0019,-4.80116 z m 1.067,-2.13387 c 0.7113,-0.71129 -1.42256,-1.42256 -6.40157,-2.13381 -4.97899,-0.7113 -9.60235,-1.42258 -13.87005,-2.13388 -4.2677,-0.7113 -6.7572,-0.35567 -7.4685,1.06694 -0.71132,1.42257 -3e-5,2.48944 2.13381,3.20075 z m 93.88962,-85.35417 c -20.6273,-14.937006 -47.65612,-23.472445 -81.08649,-25.606322 -2.84519,3.556446 -6.75723,9.246745 -11.7362,17.070872 12.80313,-4.978996 25.42843,-4.089904 37.87591,2.6673 12.4475,6.75722 22.58334,10.49147 30.40741,11.20277 v 8.53543 c -12.09182,-2.13387 -24.36147,-6.22377 -36.80897,-12.26971 -12.44747,-6.04589 -24.36151,-6.22372 -35.74208,-0.53347 -11.38055,10.66929 -23.11677,29.51834 -35.20864,56.54718 12.09187,4.979 18.13782,11.02494 18.13782,18.1378 12.09183,0.71126 20.44943,3.20077 25.07278,7.46851 4.62337,4.26768 -0.8891,10.66927 -16.53741,19.20468 -4.26768,19.916 6.75723,28.45142 33.07481,25.60625 26.31756,-2.84512 39.47631,11.38059 39.47631,42.67712 0,25.60626 -19.20468,38.23158 -57.61406,37.87596 -38.40941,-0.35567 -56.90285,11.20273 -55.4803,34.67511 -4.26769,68.99469 -1.24473,110.42704 9.0689,124.2971 10.31364,13.87006 41.43239,105.09237 93.35621,273.66699 l 100.29118,-22.40551 c 3.55627,-124.47491 18.84906,-223.87701 45.87793,-298.20631 27.02881,-74.32931 26.13972,-111.67176 -2.66762,-112.02738 -28.807,-0.35567 -48.18953,-1.06693 -58.14753,-2.13386 -9.958,-1.06694 -14.93699,-30.05182 -14.93699,-86.95465 -2.1341,-7.82412 -6.40157,-17.07084 -12.80307,-27.74012 -6.40157,-10.66926 -3.55627,-21.16071 8.53538,-31.47435 12.09181,-10.31364 21.87197,-23.29459 29.34046,-38.94284 7.46851,-15.64829 6.04595,-25.7841 -4.26763,-30.40747 -10.31362,-4.623372 -20.98288,-1.244772 -32.00782,10.13579 -11.02493,11.38058 -16.18176,11.02496 -15.47046,-1.06687 z m 354.00961,212.77005 c -18.46623,-35.92901 -24.66611,-48.5574 -27.89749,-82.77342 -4.44779,-47.09626 -12.69422,-77.88267 -24.73931,-92.35922 -8.39496,-10.80358 -20.60823,-15.64308 -36.63973,-14.51853 -16.0316,1.12466 -28.84596,-4.8048 -38.44313,-17.78834 -9.59718,-12.98358 -28.18113,-29.743037 -55.75179,-50.278391 4.44678,-8.138339 13.84223,-8.040014 28.18631,0.294949 14.34407,8.334997 26.69128,14.522097 37.04171,18.561277 18.53433,-6.16012 7.10634,-19.149389 -34.28383,-38.967792 C 731.08204,25.304439 715.2735,10.263496 725.04663,0 c 24.97381,11.407851 48.26787,18.665302 69.88226,21.772332 21.61439,3.107063 50.69308,27.4814 87.23605,73.122993 C 946.96562,162.31796 997.4977,278.79473 1000,384.46996 c -77.1837,12.02467 -182.45074,26.74882 -287.56745,28.50856 -18.27314,49.06766 -48.45054,181.06863 -50.75373,313.88794 24.89495,56.90287 23.82801,111.67186 -3.20058,164.30693 28.45143,-22.04987 48.54521,-14.58137 60.28146,22.40548 11.73619,36.98682 34.31947,51.92382 67.7499,44.81089 33.43044,-7.11283 59.748,6.7573 78.95268,41.61024 H -23.2888 c 4.979,-17.07087 16.003916,-25.07284 33.074748,-24.00591 17.07087,1.06706 33.9639,-2.13408 50.679089,-9.60243 16.715193,-7.46848 35.386423,-12.62528 56.013703,-15.47034 -2.84518,-56.19155 17.7821,-89.97761 61.8818,-101.35818 L 147.41961,626.57522 c -7.82412,-47.65605 17.78214,-71.83981 76.81882,-72.55111 20.62728,0 44.81099,12.44749 72.55111,37.3425 L 481.36803,727.9334 C 441.53603,589.23273 416.46323,511.16915 406.14962,493.74272 395.83599,476.31623 388.92159,434.79651 388.21029,405.6338 339.2552,402.04712 189.96589,389.94021 87.74237,360.58523 108.32803,219.65124 184.84818,116.20091 261.0937,63.252246 305.7495,24.610186 339.0015,6.1233788 360.84961,7.791803 382.69775,9.4602577 407.21044,6.8629944 434.3877,1.0111817e-6 441.97189,11.972184 423.53387,23.641801 379.07367,35.008847 c -44.46023,11.367025 -58.20168,21.878534 -41.22432,31.534538 10.93932,-1.943398 24.00545,-5.582681 39.19834,-10.917843 15.19285,-5.335191 24.67767,-3.620952 28.45446,5.142749 -31.50409,15.308899 -53.1139,28.258841 -64.82938,38.849808 -11.71553,10.590961 -25.46156,13.657311 -41.23802,9.199001 -15.77645,-4.45825 -28.83492,-2.20767 -39.17539,6.75147 -14.63674,11.8499 -28.72808,40.43733 -42.27404,85.76224 -13.54592,45.3249 -20.76415,74.26561 -44.4619,107.28469 85.03174,-6.78557 134.62103,-10.32442 203.78956,-7.84237 36.0872,-20.0639 133.6734,-22.64965 131.00066,-30.09586 l -6.67399,-18.59371 c -2.45054,-6.82722 -18.13775,2.13387 -33.07474,2.13387 -14.22571,0.71126 -21.33856,-5.33468 -21.33856,-18.1378 0,-12.80313 -2.31167,-20.44942 -6.93503,-22.93891 -9.79617,-5.27484 1.49376,-11.68478 6.93503,-13.33659 -7.73655,-0.48191 -12.09188,-1.42256 -12.80313,-4.26775 -0.71129,-2.84512 1.06691,-6.04589 5.33462,-9.60232 -4.26771,-3.5564 -9.42451,-6.22373 -15.47041,-8.00196 -6.04593,-1.77824 -5.51248,-10.13584 1.60035,-25.07284 12.09187,-22.04983 23.1168,-39.47631 33.07475,-52.27944 17.78213,-56.191524 47.83395,-87.132439 90.15546,-92.8227318 42.32144,-5.6902533 80.01955,-2.1338166 113.0943,10.6693078 33.07475,12.803125 49.61215,38.053744 49.61215,75.75187 0,37.698124 -8.89106,67.216454 -26.67318,88.554994 -17.78218,21.33858 -36.27555,35.91993 -55.48025,43.74406 l 1.06705,52.27943 c 38.00844,0 68.96608,9.4682 92.87296,28.40461 54.8226,6.22411 153.16573,5.52044 201.38855,15.7909 z"
     id="path1"
     sodipodi:nodetypes="ccccccccscccsssssssccssssssccssssssscccsccccccccccccccccccscssssssssscccsssccsscccccccccscccscssscsccssscssssscccscccscscsccsccccccssccccccscscccccscsscsccccccsscscccsssscccscccc" />
</svg>
