<?xml version="1.0" encoding="UTF-8" standalone="no"?>
<svg
   width="1000"
   height="1000"
   version="1.1"
   id="svg1"
   sodipodi:docname="13487.svg"
   inkscape:version="1.4.2 (f4327f4, 2025-05-13)"
   xmlns:inkscape="http://www.inkscape.org/namespaces/inkscape"
   xmlns:sodipodi="http://sodipodi.sourceforge.net/DTD/sodipodi-0.dtd"
   xmlns="http://www.w3.org/2000/svg"
   xmlns:svg="http://www.w3.org/2000/svg">
  <defs
     id="defs1" />
  <sodipodi:namedview
     id="namedview1"
     pagecolor="#ffffff"
     bordercolor="#666666"
     borderopacity="1.0"
     inkscape:showpageshadow="2"
     inkscape:pageopacity="0.0"
     inkscape:pagecheckerboard="0"
     inkscape:deskcolor="#d1d1d1"
     inkscape:zoom="0.755"
     inkscape:cx="500"
     inkscape:cy="500"
     inkscape:window-width="1680"
     inkscape:window-height="998"
     inkscape:window-x="-8"
     inkscape:window-y="-8"
     inkscape:window-maximized="1"
     inkscape:current-layer="svg1"
     showguides="true" />
  <path
     style="fill:#000000;stroke:none;stroke-width:51.248"
     d="M 501.98109,781.8893 312.49127,648.65429 h -42.4378 c 17.76467,32.89758 24.34418,98.36366 19.73852,196.39832 z M 652.98076,772.02 410.19696,836.17025 C 314.7941,885.51654 264.1319,921.37486 258.21037,943.74523 319.39979,915.45331 384.04343,911.17661 452.14129,930.91514 520.23922,950.65366 578.30341,946.37696 626.3338,918.08505 658.57334,876.63418 667.4557,827.94582 652.98076,772.02 Z M 598.69985,210.45912 c -2.63158,-4.60566 -0.98704,-11.51413 4.93467,-20.72541 5.92155,-9.21131 12.66558,-14.8039 20.23199,-16.77777 7.56641,-1.97381 12.33657,-0.82243 14.31044,3.45427 1.97408,4.27669 1.48056,10.36271 -1.48055,18.25812 -2.9606,7.8954 -9.54028,16.61325 -19.73847,26.15354 -10.19825,9.5403 -17.92917,13.15902 -23.1928,10.85617 -5.26358,-2.30282 -7.4019,-5.75704 -6.41497,-10.3627 0.98704,-4.60566 4.77016,-8.22439 11.34964,-10.85622 z m 17.7646,-25.66008 c -4.60565,4.60567 -8.22433,9.70478 -10.85612,15.29738 -2.63158,5.59258 -1.80956,7.40195 2.46708,5.42808 4.27665,-1.97381 4.27665,2e-5 0,5.92155 -4.27664,5.92157 -4.27664,7.89542 0,5.92155 4.27665,-1.97381 8.88236,-5.92153 13.81698,-11.8431 4.93466,-5.92154 7.89542,-12.00758 8.8823,-18.25812 0.98704,-6.25055 -3.78313,-7.073 -14.31044,-2.46734 z M 601.6606,161.11283 c 29.60777,-14.47492 48.85282,-13.15903 57.73517,3.94768 8.88236,17.10673 4.44116,34.54243 -13.3235,52.30709 -17.76466,17.76468 -23.35725,31.58165 -16.77773,41.45092 6.57953,9.86928 20.88997,4.11219 42.93127,-17.27123 22.04136,-21.38341 33.06203,-47.20796 33.06203,-77.47365 0,-30.26574 -16.61327,-49.67528 -49.8398,-58.22864 -33.22649,-8.553361 -60.69588,-10.362723 -82.40827,-5.42809 -21.71239,4.93462 -36.18728,16.61322 -43.42473,35.03585 37.50318,5.92156 61.51835,14.47493 72.04556,25.66007 z m -4.93466,57.24171 c -3.94764,1.97387 -5.26359,4.2767 -3.94764,6.90849 1.31605,2.63179 3.61862,2.7963 6.90843,0.49352 3.28962,-2.30284 2.30309,-4.77017 -2.9606,-7.40196 z m -96.71871,-18.75159 v -7.89542 l 10.85622,-8.88231 c 11.18515,-6.57952 25.33107,-3.28976 42.43775,9.86925 l 15.79084,1.97386 v 8.88231 l -16.77772,-3.94769 c -17.76468,7.23745 -33.55551,7.23745 -47.37247,0 z m 8.88235,-6.90848 9.86923,4.93461 c -1.97386,-4.60566 -1.97386,-8.55336 0,-11.8431 -5.26357,1.97387 -8.55332,4.2767 -9.86923,6.90849 z m 20.72546,4.93461 c 5.26358,0 10.85615,-0.65792 16.77773,-1.97382 l -13.81698,-7.89541 c 2.63179,4.60565 1.64486,7.8954 -2.96075,9.86923 z m -46.38553,37.50323 c -0.65798,-1.97386 -0.65798,-3.45427 0,-4.4412 0.65792,-0.98693 1.64485,-1.4804 2.96075,-1.4804 1.31589,0 3.12525,1.4804 5.42808,4.4412 2.30283,2.96075 4.4412,4.11219 6.41507,3.45422 1.97382,-0.65797 2.96075,-2.13833 2.96075,-4.44115 0,-2.30283 0.49352,-3.78323 1.4804,-4.44115 0.98688,-0.65798 1.64486,0.82243 1.97382,4.44115 0.32901,3.61872 -1.15139,6.25053 -4.44115,7.89542 -3.28977,1.64486 -6.415,0.65792 -9.37577,-2.96081 -2.96081,-3.61871 -5.42812,-4.44114 -7.40195,-2.46728 z m 23.68615,22.69928 -19.73847,2.9608 c -1.97387,1.97381 -2.63179,3.28971 -1.97382,3.94768 0.65792,0.65797 2.30278,0.98694 4.93457,0.98694 2.63184,-0.65797 5.75709,-1.80936 9.37582,-3.45427 3.61873,-1.64486 6.08602,-3.12525 7.4019,-4.44115 z m 0.98698,-1.97386 c 0.65796,-0.65796 -1.31589,-1.31591 -5.92155,-1.97383 -4.60565,-0.65796 -8.88234,-1.31591 -12.83003,-1.97387 -3.94769,-0.65797 -6.25053,-0.329 -6.90849,0.98694 -0.65798,1.3159 -2e-5,2.30278 1.97381,2.96076 z m 86.84947,-78.95405 c -19.08059,-13.81698 -44.08271,-21.7124 -75.00636,-23.68627 -2.63184,3.28977 -6.25055,8.55339 -10.85617,15.79085 11.84311,-4.60567 23.52172,-3.78324 35.03584,2.46728 11.51415,6.25055 20.88997,9.7048 28.12737,10.36276 v 7.89541 c -11.18514,-1.97386 -22.53477,-5.75709 -34.04892,-11.34968 -11.51412,-5.59256 -22.5348,-5.75705 -33.06202,-0.49347 -10.5272,9.86927 -21.38339,27.30496 -32.56857,52.30708 11.18518,4.60567 16.77778,10.19825 16.77778,16.77778 11.18515,0.65792 18.91606,2.96075 23.19274,6.90848 4.2767,3.94769 -0.82243,9.86926 -15.29737,17.76466 -3.94769,18.42263 6.25054,26.31803 30.59474,23.68621 24.34418,-2.63179 36.51625,10.52723 36.51625,39.47705 0,23.68621 -17.76465,35.36484 -53.29397,35.03589 -35.52935,-0.329 -52.63608,10.36271 -51.3202,32.07505 -3.94769,63.82125 -1.1514,102.14686 8.38888,114.97691 9.54029,12.83003 38.32565,97.21219 86.35605,253.14652 l 92.77102,-20.72546 c 3.28961,-115.14138 17.4357,-207.08998 42.43786,-275.84582 25.0021,-68.75585 24.17967,-103.29825 -2.4676,-103.6272 -26.64696,-0.329 -44.57612,-0.98692 -53.78744,-1.97386 -9.21131,-0.98693 -13.81697,-27.79844 -13.81697,-80.4345 -1.97407,-7.23744 -5.92155,-15.79081 -11.84305,-25.66007 -5.92155,-9.86925 -3.28961,-19.57401 7.89537,-29.1143 11.18513,-9.54029 20.23194,-21.54789 27.14042,-36.02278 6.90849,-14.47493 5.5926,-23.85073 -3.94763,-28.12742 -9.54028,-4.27669 -19.40951,-1.15143 -29.60776,9.37578 -10.19825,10.52722 -14.96841,10.19826 -14.31044,-0.98688 z m 160.86895,202.31981 c 70.28176,2.23359 123.33481,14.45003 166.59586,22.52886 5.53673,-32.66935 12.62392,-73.57564 24.26382,-115.75777 11.63991,-42.18214 13.71575,-74.72116 10.81242,-91.19816 -2.19621,-12.46392 -9.5691,-25.91564 -21.68371,-34.53132 -12.11473,-8.61565 -17.78631,-20.38095 -17.01477,-35.29589 0.77153,-14.91497 -2.65915,-37.807724 -10.29201,-68.678261 7.95864,-3.201874 14.61355,2.38856 19.96472,16.771263 5.35115,14.382717 10.5376,26.057627 15.55941,35.024748 16.86134,6.48845 16.3282,-9.506246 -1.59939,-47.984042 C 924.29971,21.625098 921.84226,1.5908083 934.85498,3.231006e-5 945.99523,22.823564 958.37391,41.694892 971.99104,56.614025 c 13.61714,14.919166 20.07187,49.418525 19.36419,103.498065 6.68418,86.24373 15.43057,200.7938 0.23826,298.54517 -42.81058,11.47827 -91.69307,14.00998 -146.64748,7.5951 C 789.9916,459.83742 728.9741,457.5196 719.10481,466.073 v 0.98693 c -25.00215,73.0325 -38.49016,166.46154 -40.46398,280.28699 23.02824,52.6361 22.0413,103.29833 -2.96059,151.98664 26.31805,-20.39649 44.90512,-13.48801 55.76135,20.72546 10.85617,34.21341 31.74609,48.03039 62.66979,41.45081 30.92371,-6.57947 55.26789,6.25061 73.03255,38.49017 H 45.034327 c 4.605657,-15.79084 14.80389,-23.1928 30.594695,-22.20586 15.790839,0.98704 31.417178,-1.97407 46.878998,-8.88241 15.46184,-6.90848 32.73305,-11.6786 51.81362,-14.31033 -2.63184,-51.97812 16.44875,-83.23079 57.24171,-93.75801 L 202.94247,654.57585 c -7.23744,-44.08266 16.44878,-66.45302 71.05868,-67.11099 19.08059,0 41.45092,11.51414 67.11099,34.54243 l 170.7382,126.32656 C 475.00507,620.03342 451.81231,547.8233 442.27205,531.70357 432.73176,515.58376 427.63264,494.03588 426.97468,467.05989 417.1054,457.84858 357.91069,453.7961 302.91023,458.37155 247.90975,462.94691 197.01187,463.67448 154.10698,450.17976 154.33929,318.43033 153.33085,238.6564 169.11526,154.25268 173.40113,99.795328 183.27751,66.016905 198.74442,52.917419 214.21133,39.817966 228.66029,22.178828 242.09131,0 c 12.77269,2.9528105 8.2183,22.616725 -13.6632,58.991746 -21.88154,36.375024 -24.09676,52.224534 -6.64566,47.548534 5.93849,-8.388171 12.175,-19.274814 18.70951,-32.659934 6.53448,-13.385112 13.89235,-18.420246 22.07365,-15.1054 -10.79091,30.550561 -16.6013,53.118464 -17.4312,67.703734 -0.82992,14.58529 -7.88632,25.53659 -21.1692,32.85388 -13.28285,7.31732 -21.00292,20.63168 -23.60562,33.79162 -3.5355,17.87637 -4.78355,45.63379 4.88707,88.31049 9.67063,42.67668 16.31451,82.58017 21.82183,114.23454 43.55749,-6.28777 103.18745,-15.00482 162.40301,-11.51111 37.50322,-29.60777 86.19158,-44.41166 146.0651,-44.41166 l -4.93468,-31.58164 c -6.57948,1.3159 -16.77772,1.97387 -30.59469,1.97387 -13.15901,0.65793 -19.73853,-4.93466 -19.73853,-16.77777 0,-11.8431 -2.13832,-18.91606 -6.41501,-21.21888 -9.06161,-4.8793 1.38175,-10.80861 6.41501,-12.33656 -7.15643,-0.44578 -11.18518,-1.31589 -11.8431,-3.94773 -0.65796,-2.6318 0.98691,-5.59256 4.93461,-8.88231 -3.9477,-3.28975 -8.71783,-5.75706 -14.31039,-7.40195 -5.59258,-1.6449 -5.09913,-9.37583 1.48035,-23.1928 11.18519,-20.39646 21.38343,-36.51624 30.5947,-48.35935 16.44877,-51.97811 44.2472,-80.598969 83.3953,-85.862584 39.14804,-5.26358 74.01943,-1.973816 104.61413,9.869288 30.59469,11.843106 45.89206,35.200346 45.89206,70.071746 0,34.87139 -8.22438,62.17634 -24.67313,81.91485 -16.44882,19.73854 -33.5555,33.22653 -51.32016,40.46398 l 0.98704,48.35935 c 46.7145,0 81.91485,15.46184 105.60111,46.38554 z"
     id="path1"
     sodipodi:nodetypes="ccccccccscccsssssssccssssssccssssssscccsccccccccccccccccccscssssssssscccsssccsscccccccccscccscssscsccssscssssscccscsscscscsccsccccssccssccccccscsccscccscsscsccsccssscscccsssscccscccs" />
</svg>
