<?xml version="1.0" encoding="UTF-8" standalone="no"?>
<svg
   width="1000"
   height="1000"
   version="1.1"
   id="svg1"
   sodipodi:docname="13482.svg"
   inkscape:version="1.4.2 (f4327f4, 2025-05-13)"
   xmlns:inkscape="http://www.inkscape.org/namespaces/inkscape"
   xmlns:sodipodi="http://sodipodi.sourceforge.net/DTD/sodipodi-0.dtd"
   xmlns="http://www.w3.org/2000/svg"
   xmlns:svg="http://www.w3.org/2000/svg">
  <defs
     id="defs1" />
  <sodipodi:namedview
     id="namedview1"
     pagecolor="#ffffff"
     bordercolor="#666666"
     borderopacity="1.0"
     inkscape:showpageshadow="2"
     inkscape:pageopacity="0.0"
     inkscape:pagecheckerboard="0"
     inkscape:deskcolor="#d1d1d1"
     inkscape:zoom="0.75499946"
     inkscape:cx="1032.4511"
     inkscape:cy="307.94724"
     inkscape:window-width="1680"
     inkscape:window-height="998"
     inkscape:window-x="-8"
     inkscape:window-y="-8"
     inkscape:window-maximized="1"
     inkscape:current-layer="svg1" />
  <path
     id="path7"
     style="fill:#000000;stroke:none;stroke-width:63.4791"
     d="m 823.54688,0.04101562 c -0.324,-0.0057263 -0.65233,0.01943531 -0.98633,0.09375 -9.8672,48.68775038 -4.89442,91.87958238 8.17578,126.35937438 -2.74611,51.72866 -19.51772,159.58802 -19.51758,231.27539 -60.31,0 -104.246,-5.32102 -131.79492,-16.11719 -27.549,-10.79623 -54.28001,-10.67193 -80.33985,0.4961 -9.67936,-8.93479 -15.61987,-29.35476 -17.85351,-61.3711 18.61412,-6.70111 36.43555,-20.43928 53.56055,-41.28711 17.12503,-20.84784 25.664,-49.56117 25.66406,-86.04492 0,-36.48374 -15.96416,-61.109962 -47.98047,-73.767576 -32.01633,-12.65761 -67.78409,-16.123322 -107.24609,-10.539062 -39.46193,5.584258 -67.67769,35.531478 -84.80274,89.884768 -9.67935,12.65761 -20.56939,29.73765 -32.48242,51.33008 -6.70112,14.14674 -7.07377,22.19136 -1.11719,24.05273 5.95658,1.86141 10.78306,4.70882 14.50586,8.43164 -4.46741,2.97825 -6.32469,5.70066 -5.58008,8.30664 1.23125,4.3095 6.2011,4.83594 8.55469,4.83594 v 0.12305 c -3.89388,4.08583 -8.49431,7.51186 -1.85937,11.77929 4.4674,2.60601 6.69531,10.27794 6.69531,22.93555 0,11.91304 6.8068,17.48284 20.20898,16.73828 29.03807,-0.74455 42.03294,5.1959 39.05469,17.85352 -2.97832,12.65765 -25.00787,18.9707 -65.95898,18.9707 -41.69568,0 -71.39799,8.28947 -89.26758,24.66992 -17.86844,16.38047 -71.45678,57.96371 -160.80469,124.97461 -31.27176,39.46198 -35.60381,65.20605 -12.89453,77.11914 29.30497,15.37308 170.98908,-1.39107 256.27148,-13.39062 21.52393,67.4253 31.52694,124.50938 52.07227,195.76953 L 283.42383,639.08594 c -24.3607,-22.05608 -45.78785,-33.10352 -64.22266,-33.10352 -51.68355,0.65828 -74.488,21.96273 -68.5625,64.09961 l 27.52539,197.00977 c -39.17412,9.54663 -57.2694,39.14233 -54.30664,88.52148 -17.77651,3.62085 -34.033897,8.66621 -48.847654,15.25 -14.484562,6.25461 -29.076874,8.75639 -43.890625,7.43945 C 16.305396,977.31501 5.9254981,984.5281 0,1000 h 784.68555 c -16.13055,-31.60265 -39.22482,-44.15034 -69.18164,-37.56641 -29.62749,6.5838 -49.72168,-6.34139 -60.25586,-38.93164 -10.20509,-32.26098 -27.46372,-39.26491 -51.82422,-20.83007 23.7021,-45.75805 24.24421,-93.82466 1.85937,-144.19141 17.11048,-153.19516 41.99925,-291.70276 40.66797,-333.63672 l 177.54297,-2.23047 c 43.18788,-0.54255 54.55636,-34.12942 57.0293,-97.20312 1.92304,-49.04822 0.61894,-107.33538 -2.77735,-174.74414 7.994,-24.54888 16.02185,-48.09173 24.09375,-70.859379 3.2358,-17.415623 -2.36517,-31.181574 -16.58007,-41.197266 L 842.37891,23.972656 C 840.09911,8.5457601 833.53065,3.2537735 824.50195,0.13476562 c -0.3123,-0.05140968 -0.63108,-0.0880237 -0.95507,-0.09375 z M 534.61328,85.875 c 15.69847,0.518689 33.21828,3.405771 52.69336,8.431641 34.62229,8.934769 51.94922,28.982159 51.94922,60.253909 0,32.01635 -11.51021,59.24508 -34.5918,81.58203 -23.08151,22.337 -37.93364,28.27742 -44.63476,17.85351 -7.44566,-9.67934 -1.75211,-23.91318 17.23437,-42.52734 18.98636,-18.61415 23.81097,-36.80619 14.50391,-54.67578 -9.30705,-17.8696 -29.6032,-19.35225 -60.875,-4.46094 -11.16852,-11.16848 -36.41492,-20.08014 -75.87696,-26.78125 8.19025,-19.35868 23.66182,-31.735276 46.3711,-36.947264 14.31441,-3.285067 23.26235,-3.057745 33.22656,-2.728516 z m -88.52344,57.5293 c 32.01631,2.23364 58.00416,10.40009 78.10743,24.54687 -0.27931,4.46741 0.31895,7.40578 1.61328,8.67969 l 0.12695,0.12305 c 0.0592,0.042 0.30958,0.21122 0.37305,0.24804 0.12697,0.0618 0.48339,0.20805 0.62304,0.24805 2.40522,0.47102 6.40446,-1.99377 11.7793,-7.56055 10.42392,-10.79624 20.69638,-14.01427 30.74805,-9.54687 10.05166,4.46741 11.53662,14.12041 4.46289,29.01172 -7.07336,14.89132 -16.35768,27.63662 -27.89844,38.06054 -11.54076,10.42391 -14.38619,20.57335 -8.42969,30.625 5.95625,10.05164 10.04168,18.83758 12.27539,26.28321 4.46766,40.95117 17.58519,70.77845 39.17774,89.39257 21.59237,18.61415 30.62595,53.14295 27.27539,103.77344 -3.35043,50.63046 -27.13886,172.73154 -40.54102,283.67188 l -89.01953,19.71289 c -21.4436,-75.70846 -42.64085,-115.69766 -82.08398,-330.66211 -7.44563,-40.57883 3.44436,-65.70152 32.48242,-75.38086 29.03807,-9.67938 45.37486,-26.50986 49.09766,-50.33594 3.72286,-23.82613 -7.04221,-34.22241 -32.35743,-31.24414 -25.3152,2.97828 -36.08416,-5.19011 -32.36132,-24.54883 15.63584,-8.93478 21.20569,-15.24592 16.73828,-18.96875 -4.46737,-3.72285 -13.13146,-6.3214 -25.78907,-7.81054 0.74453,-5.9565 -4.82527,-11.65131 -16.73828,-16.86328 11.16848,-26.05979 22.80181,-44.25184 34.71485,-54.67579 11.16849,-5.95651 22.4319,-6.0784 33.97265,-0.49414 11.54084,5.58421 23.66869,9.79125 36.32617,12.76953 v -7.8125 c -8.19008,-0.74457 -18.21388,-4.45713 -30.12695,-11.1582 -11.91302,-6.70112 -24.16464,-7.81507 -36.82226,-3.34766 4.46741,-7.44568 8.55058,-13.01352 12.27343,-16.73632 z m 115.08008,20.10937 c -2.20442,0.0293 -4.57805,0.47438 -6.8418,1.0918 -8.19007,2.23371 -15.36851,8.17416 -21.69726,17.85351 -6.32887,9.67934 -8.06198,16.73181 -5.08398,21.19922 -6.70111,2.97824 -10.5394,6.93965 -11.65626,11.7793 -1.11658,4.83971 1.11119,8.30535 6.69532,10.53906 5.58427,2.23371 13.75268,-1.60264 24.54883,-11.65429 10.79628,-10.05166 17.72682,-19.21019 20.70507,-27.40039 2.97844,-8.19024 3.47449,-14.50334 1.61328,-18.97071 -1.40972,-3.38282 -4.60914,-4.48637 -8.2832,-4.4375 z m -113.2207,7.91016 c -4.23184,0.0582 -8.17948,1.12861 -11.90234,3.22265 l -11.15821,10.04297 V 192.5 h 5.57813 c 14.14675,7.44568 30.48556,7.44568 49.09961,0 l 17.85351,3.34961 v -8.92773 l -17.85351,-1.11719 c -11.77342,-9.72585 -22.3072,-14.50882 -31.61719,-14.38086 z m 108.75781,2.84961 c 3.42422,-0.18732 5.71714,1.24918 4.93359,5.95312 -1.11659,6.70111 -4.33259,13.01225 -9.54492,18.96875 -5.21163,5.95656 -10.04041,9.91789 -14.50781,11.7793 -1.99406,0.89476 -3.36559,0.88907 -3.36719,0.002 -0.002,-1.02379 1.11382,-3.22097 3.34766,-6.19922 1.95452,-2.60601 3.16355,-4.45888 3.34766,-5.58007 0.23774,-1.44775 -1.20394,-1.39507 -3.36133,-0.4961 -5.59593,2.33177 -4.23505,-1.85171 -2.24805,-5.57617 2.97903,-5.58394 7.06337,-11.03215 12.27539,-16.24414 3.11568,-1.33527 6.46173,-2.46171 9.125,-2.60742 z m -111.73242,3.72265 c -2.97826,3.72286 -2.97826,7.80604 0,12.27344 -4.46741,-1.48918 -7.8093,-3.34638 -10.04297,-5.58008 0.74454,-2.2337 4.08644,-4.45971 10.04297,-6.69336 z m 13.38867,2.23047 14.50781,8.92774 c -5.95624,0.74456 -11.52829,1.11523 -16.74023,1.11523 4.46742,-2.2337 5.21071,-5.57557 2.23242,-10.04297 z m 68.06641,31.24219 c 5.21228,2.97825 6.202,5.82761 2.85156,8.43359 -3.35043,2.60601 -5.82561,2.35799 -7.31445,-0.62109 -1.48922,-2.97825 -0.005,-5.57886 4.46289,-7.8125 z m -98.86133,10.89063 c -1.30031,0.0563 -2.56198,2.57328 -2.18164,4.85546 0.37199,2.23371 -0.49476,3.71841 -2.72852,4.46289 -2.2337,0.74454 -4.58667,-0.36764 -6.82031,-3.3457 -2.2337,-2.97826 -4.09093,-4.58789 -5.58008,-4.58789 -1.48916,0 -2.60122,0.37076 -3.3457,1.11524 l -0.125,0.12304 v 0.125 l -0.12305,0.12305 c -0.37833,0.83184 -0.35691,2.39997 0.24805,4.21484 2.2337,-2.23371 4.83231,-1.36664 7.81055,2.72852 2.97824,4.09511 6.44513,5.20912 10.16796,3.34765 3.72287,-1.86139 5.32935,-4.58383 4.95704,-8.30664 -0.36305,-3.62639 -1.33043,-4.89654 -2.2793,-4.85546 z m -18.30078,24.44531 c 7.85412,1.28246 15.85294,2.10278 23.67969,3.5957 v 0.24805 c -8.30699,0.35012 -16.61556,0.73937 -24.92188,1.11523 -4.178,-1.39156 -2.57648,-4.93641 1.24219,-4.95898 z m 22.3164,7.1914 c -0.85949,1.71899 -2.56422,3.04433 -16.86328,7.81055 -7.04883,-3e-5 -6.92583,-1.99814 -3.3457,-5.57812 z m -65.95898,167.5 c 5.21194,33.50543 9.66776,61.10489 13.39062,82.69727 -80.83429,-4.5632 -134.86101,-1.42511 -162.04492,9.42187 57.5344,-29.69172 107.10529,-60.42927 148.6543,-92.11914 z M 215.72852,664.75 h 40.04687 L 437.41016,790.59375 234.57617,851.8418 C 239.18495,758.02134 232.84662,695.69437 215.72852,664.75 Z m 364.38671,118.52734 c 13.82614,53.00019 5.61214,98.94301 -24.67382,138.11719 -45.75805,27.32307 -101.20432,31.65864 -166.38477,12.89453 -65.1805,-19.09325 -127.12798,-15.25848 -185.72461,11.40625 5.92553,-20.73921 54.45091,-54.71621 145.30859,-101.79101 z"
     sodipodi:nodetypes="scccsccssssccscccccscssccsccccccccccccccccsscccccssssscsscccsccccccsscscccsccsssscscccsccsccsssccssccssccccccccssccccsssscscccccccccsccscssscccccsscscccccccccccccccccccccccc" />
</svg>
