<?xml version="1.0" encoding="UTF-8" standalone="no"?>
<svg
   width="1000"
   height="600"
   version="1.1"
   id="svg1"
   sodipodi:docname="134BB.svg"
   inkscape:version="1.4.2 (f4327f4, 2025-05-13)"
   xmlns:inkscape="http://www.inkscape.org/namespaces/inkscape"
   xmlns:sodipodi="http://sodipodi.sourceforge.net/DTD/sodipodi-0.dtd"
   xmlns="http://www.w3.org/2000/svg"
   xmlns:svg="http://www.w3.org/2000/svg">
  <defs
     id="defs1" />
  <sodipodi:namedview
     id="namedview1"
     pagecolor="#ffffff"
     bordercolor="#666666"
     borderopacity="1.0"
     inkscape:showpageshadow="2"
     inkscape:pageopacity="0.0"
     inkscape:pagecheckerboard="0"
     inkscape:deskcolor="#d1d1d1"
     inkscape:zoom="0.755"
     inkscape:cx="1004.6358"
     inkscape:cy="191.39073"
     inkscape:window-width="1680"
     inkscape:window-height="998"
     inkscape:window-x="-8"
     inkscape:window-y="-8"
     inkscape:window-maximized="1"
     inkscape:current-layer="svg1"
     showguides="true" />
  <path
     id="path1"
     style="fill:#000000;stroke:none;stroke-width:55.5908"
     d="m 409.38798,0 c -2.46168,4.3323122 0.0999,9.2611553 7.68284,14.789906 7.58306,5.52876 13.34059,9.977721 17.27123,13.346024 -0.0861,12.434695 -10.12171,10.294628 -30.10211,-6.420777 C 384.25953,4.9997759 373.11659,0.47015332 370.80981,8.1249073 c 10.12795,7.7408367 18.25701,16.6274137 24.38543,26.6635457 6.12835,10.036095 22.96374,17.631753 50.50706,22.784685 18.68354,48.407432 44.48414,92.375422 77.40413,131.905912 53.76686,1.0444 94.94554,-1.31844 123.53322,-7.09103 -36.58302,22.73951 -86.51964,38.63895 -149.80816,47.69598 L 399.32365,224.91635 286.19701,168.3058 c -16.61881,-8.15802 -33.50164,-6.98186 -45.97758,2.4635 -46.2354,35.00412 -103.41366,72.32022 -120.03406,81.27941 -22.731121,11.61255 -30.691688,16.72887 -38.697605,8.8308 C 73.482079,252.98135 58.376901,240.43247 36.17151,223.23005 24.493054,209.16664 14.45633,202.53531 6.0604986,203.33846 c -8.3959992,0.80326 -8.068134,8.9475 0.98219,24.43177 10.7979864,19.9733 20.0077384,34.1829 27.6296884,42.62815 7.622414,8.44498 16.032556,25.27189 20.998562,42.62459 4.966135,17.35262 25.512505,20.32021 35.984545,8.84507 21.501186,-20.01512 53.862706,-38.41153 97.081816,-55.18986 26.08315,-10.12588 48.41885,-19.36841 66.1829,-38.55856 22.50469,22.50468 52.93344,45.96151 117.96451,67.64282 l 4.42253,30.39443 -108.33155,-63.32189 c -8.11408,-4.74264 -25.19525,-6.18823 -32.08252,-0.46882 -38.99491,32.38275 -88.72409,96.85548 -98.88398,104.95004 -17.78278,14.16783 -32.96541,18.95242 -44.236017,16.05908 -11.270628,-2.89336 -24.866277,-14.11285 -40.78677,-33.6583 -15.582457,-8.27663 -25.404894,-11.41908 -29.463942,-9.42796 -4.058797,1.99096 -2.853046,7.29403 3.615033,15.90757 5.97121,8.94526 13.518321,19.71256 22.6403,32.30178 9.121987,12.58921 19.487206,28.1183 31.098554,46.58899 11.611227,18.47051 21.391162,20.74339 29.337382,6.81829 32.29713,-30.18001 67.4143,-54.52055 105.35288,-73.0208 37.9386,-18.50023 43.46348,-26.24553 61.05805,-40.15752 28.64231,22.09551 80.93329,49.05533 137.86858,51.80834 36.25172,4.46964 84.1495,-8.11259 111.77724,-23.8364 27.62773,-15.72379 80.39292,-16.48352 165.31952,-0.87177 -38.66252,16.24704 -80.71384,43.78802 -133.17461,81.21889 26.65559,36.14158 52.33797,59.6884 77.04404,70.64109 24.7061,10.95269 38.63682,24.22118 41.79213,39.80459 3.1553,15.58341 15.03197,28.50466 35.62982,38.76177 4.48138,-4.55718 3.13659,-9.32762 -4.03215,-14.30861 -7.16879,-4.98095 -11.71954,-10.90285 -13.65441,-17.77035 14.33225,4.23457 31.02448,11.32244 39.95788,38.77426 1.07496,3.81523 3.16327,6.11063 6.26391,6.88425 3.10065,0.77364 6.26463,-1.14685 9.49392,-5.76302 v -0.002 c -8.22552,-40.87984 -35.35754,-54.23451 -66.3576,-77.6679 -35.732,-40.58508 -61.06911,-64.74175 -76.01373,-72.47356 21.28681,-7.43659 69.6589,-37.13447 111.23313,-61.84181 12.53423,-5.83703 16.62052,-16.93136 18.99255,-29.92918 2.80789,-16.13956 1.12216,-29.24229 -4.63538,-39.23651 -2.70758,-14.7024 -1.21079,-25.03383 6.01437,-27.57087 l 19.08765,-6.70242 c 4.22748,9.25541 7.72269,15.85483 10.48859,19.7989 2.76584,3.94415 6.8586,4.65105 12.27827,2.11769 5.41967,-2.53332 9.28616,-2.89132 11.60091,-1.07489 3.76983,3.40853 5.34317,-2.23177 6.12666,-3.7523 2.96688,4.69239 6.86663,4.79707 7.96804,-2.19432 2.42315,0.74473 4.87021,2.49065 7.34059,5.23894 1.54397,1.71767 3.67315,1.67399 6.38691,-0.13369 1.62825,-1.0846 3.46762,-2.80328 5.51703,-5.15694 8.53853,-11.96196 14.71511,-21.99704 18.53328,-30.10567 26.73807,-22.28055 36.57165,-44.56595 29.49781,-66.85137 -6.38943,-20.12906 -16.73604,-39.4827 -32.9845,-55.55172 -8.38958,-8.29697 -17.7206,-12.61805 -27.99511,-12.96277 -7.99129,-0.26813 -16.55385,1.86813 -25.68492,6.41009 -47.56937,21.82422 -46.87509,65.28048 -45.91697,76.05472 l -18.42277,6.10705 c -3.46838,-15.80069 -8.28828,-30.50104 -14.46013,-44.10411 -6.17183,-13.60304 -16.29218,-22.11458 -30.36235,-25.5334 -35.14689,-6.74594 -93.1881,-1.29437 -137.96127,1.72908 l -0.37612,-0.9804 C 533.53523,129.83821 521.21746,113.26391 503.85656,97.980221 486.49575,82.696511 475.34105,67.179992 470.38898,51.428653 465.24759,45.897018 461.43698,39.193468 458.96099,31.317802 456.48498,23.442155 450.70415,18.439294 441.6149,16.310425 432.52556,14.18152 421.78246,8.7449851 409.38798,0 Z m 399.35059,145.13429 c 10.55506,-0.23128 20.31833,4.83094 29.29104,15.18564 12.33705,14.23723 20.92076,28.56843 24.05743,42.53189 2.98617,13.29401 0.0397,24.32355 -8.8415,33.0861 -12.46207,-18.41638 -22.87179,-29.13267 -31.22867,-32.14313 0.72473,-42.75286 -32.77904,-37.28076 -42.12547,-9.62939 -4.87231,14.41474 -11.0655,20.90813 -18.5832,19.4816 -6.70997,-1.17827 -6.99354,-10.3267 -0.8485,-27.4443 6.14504,-17.11762 17.27533,-29.60893 33.3945,-37.47298 5.12464,-2.29251 10.08662,-3.4903 14.88437,-3.59543 z M 686.54405,182.1046 c 7.7045,-0.0517 10.58551,17.78856 11.68825,25.49418 3.13187,21.88481 13.49738,31.18295 30.36413,25.53339 l 20.18037,-6.75947 c 4.25533,-0.90216 9.93251,-1.03562 17.03059,-0.40107 7.09806,0.63453 11.81806,-3.22054 14.16066,-11.56169 2.34261,-8.34115 6.43368,-16.2557 12.27114,-23.7437 12.24427,-15.70632 25.10273,-2.91068 18.75789,13.38881 -3.15034,8.09287 -1.96119,10.33776 3.5669,6.73273 12.98638,6.64335 23.81361,18.15009 32.48538,34.5175 -1.55245,2.17489 -3.61565,5.29549 -6.19261,9.36557 -0.96516,-6.92674 -4.44732,-12.85641 -10.44402,-17.79352 -5.99671,-4.9371 -10.23767,-9.11714 -12.72392,-12.53318 l -4.37975,1.3084 c 3.88477,6.05607 8.7566,11.41984 14.61343,16.09295 5.85685,4.67312 9.00508,10.61206 9.44222,17.81848 -3.01044,8.35687 -9.71933,18.67389 -20.12154,30.94703 -5.46871,-5.21681 -9.91039,-6.58257 -13.32642,-4.09632 -3.3568,-6.33577 -6.59041,-10.20407 -9.69713,-11.6009 -3.10673,-1.3969 -5.21466,2.5955 -6.32987,11.97702 -8.9127,7.42687 -15.00347,4.22999 -18.26947,-9.59196 -3.26598,-13.82197 -14.84261,-16.9361 -23.92017,-13.59737 -24.98925,9.16843 -36.0297,23.91957 -33.11998,44.25207 3.3858,23.65926 -17.56773,31.18587 -62.862,22.57791 -45.29425,-8.60791 -83.90965,-8.51421 -115.8486,0.28164 l -20.91479,5.70776 c -18.82069,8.35378 -40.97934,18.6808 -66.89949,17.69191 -30.06421,-1.14698 -43.39291,-18.86805 -47.71915,-49.09884 -3.55051,-24.81017 6.93334,-62.24248 50.60155,-55.59272 18.03075,2.74571 36.33835,2.46063 54.36453,0.55972 68.27325,-12.18476 113.11747,-24.63813 134.53519,-37.36068 21.41769,-12.72251 36.05458,-22.21255 43.91159,-28.46749 1.777,-1.41467 3.36833,-2.03859 4.79509,-2.04816 z m 108.0196,95.99623 h 0.002 c 0.003,-4e-5 0.005,6e-5 0.007,0 0.61603,-0.0193 5.21413,6.23226 7.20689,9.9449 0.65457,1.28275 0.8719,2.54553 0.27094,2.92518 -0.36059,0.2278 -1.01564,0.13699 -2.04637,-0.45633 l -5.4992,-12.29789 c -0.002,-0.0722 0.018,-0.11028 0.0588,-0.11586 z m -0.85385,0.53655 3.08027,11.55277 c -0.31031,1.00965 -0.68197,1.65597 -1.1141,1.93765 -0.25928,0.16904 -0.54026,0.20716 -0.84315,0.11408 -1.80544,-0.55491 -3.71406,-9.9746 -1.12302,-13.6045 z"
     sodipodi:nodetypes="cscscsccccccsccccccccsccccssscscsscsccsccsscsccsccccsscscsscccssccssscccscccscsscsssccscscsssscsssscccsccscccscscssccssscssscsccscccccsscc" />
  <path
     style="fill:#000000;stroke:none;stroke-width:55.5908"
     d="m 792.8783,226.33485 c -2.62417,2.06655 -5.10141,1.85615 -7.43192,-0.62817 -2.3305,-2.48429 -2.18423,-7.63237 0.43811,-15.44551 2.62234,-7.81316 5.62473,-13.63106 9.00938,-17.45287 3.38466,-3.82181 6.48233,-5.6317 9.29356,-5.43069 1.75705,0.12564 3.11839,1.12144 4.08121,2.98855 0.57771,1.12027 1.0119,2.55374 1.30368,4.30094 0.77803,4.65917 -0.44019,9.69934 -3.6535,15.12085 -3.2133,5.42151 -6.55934,8.03924 -10.03845,7.85395 0.62245,3.72737 -0.37793,6.62648 -3.00207,8.69295 z m -2.67975,-2.39931 c 0.91598,-0.60132 1.63081,-1.73553 2.14283,-3.40146 -3.26237,-2.32869 -5.06327,-2.21973 -5.4042,0.32753 -0.34087,2.54726 0.28706,3.73462 1.88673,3.56328 0.49991,-0.0536 0.95828,-0.21602 1.37464,-0.48935 z m 7.35574,-10.85089 c 0.54996,-0.35754 1.21072,-1.00459 1.98206,-1.94153 2.46857,-2.99836 4.19938,-6.11534 5.19232,-9.34619 0.18529,-3.4791 -0.0867,-5.82654 -0.81703,-7.04553 -0.73037,-1.21897 -1.91784,-1.30832 -3.56383,-0.26719 -7.93439,5.01856 -10.65661,15.67241 -10.57106,19.29338 0.063,2.67137 0.98656,2.18142 2.77153,-1.469 1.78463,-3.65056 2.7791,-4.00631 2.98198,-1.07096 0.13946,2.01809 0.81407,2.63356 2.02403,1.84702 z"
     id="path7"
     sodipodi:nodetypes="sssssssscsscssssscssscss" />
  <path
     style="fill:#000000;stroke:none;stroke-width:55.5908"
     d="m 830.70375,266.13684 -3.96027,2.0986 -0.88769,-3.5873 c -7.61214,-5.43359 -11.68351,-13.75714 -12.21511,-24.97068 l -6.20025,-7.87327 3.96132,-2.09716 5.40705,8.29205 c 7.0249,3.79747 16.8926,10.53393 15.70792,20.0769 z m -2.93799,-5.54309 c 1.30421,-1.36718 1.78519,-3.65019 1.44249,-6.84956 -1.27273,2.70288 -3.52671,3.55617 -6.75753,2.5632 2.17488,1.55241 3.94788,2.98214 5.31504,4.28636 z m -2.70746,-12.76705 -8.15498,-5.82153 c 0.62245,3.72736 1.49296,6.64758 2.6119,8.75952 0.74475,-2.42316 2.59193,-3.40299 5.54308,-2.93799 z"
     id="path6"
     sodipodi:nodetypes="ccccccccccccccccc" />
  <path
     style="fill:#000000;stroke:none;stroke-width:55.5908"
     d="m 813.66853,285.80408 c -0.40704,0.2632 -0.98637,0.40306 -1.73769,0.42075 0.21677,-2.14339 -1.01784,-3.51737 -3.70506,-4.12239 -2.68712,-0.6049 -4.12289,-2.04066 -4.30998,-4.30816 -0.18702,-2.26733 0.91391,-3.69685 3.30558,-4.2878 2.1674,-0.53554 3.35905,-0.55468 3.57519,-0.0564 0.0224,0.0515 0.0328,0.10871 0.0343,0.17128 0.0157,0.66782 -0.70429,1.21976 -2.16413,1.65514 -1.45982,0.43532 -2.17342,1.32202 -2.14193,2.65772 0.0315,1.3357 1.18772,2.24212 3.47098,2.72285 2.2833,0.48077 3.56382,0.98644 3.84355,1.51443 0.55946,1.05597 0.71469,1.98601 0.46643,2.79372 -0.1086,0.35339 -0.32066,0.63415 -0.63725,0.83886 z"
     id="path5"
     sodipodi:nodetypes="scsssscsssssss" />
</svg>
