<?xml version="1.0" encoding="UTF-8" standalone="no"?>
<svg
   width="700"
   height="1000"
   version="1.1"
   id="svg1"
   sodipodi:docname="134CA.svg"
   inkscape:version="1.4.2 (f4327f4, 2025-05-13)"
   xmlns:inkscape="http://www.inkscape.org/namespaces/inkscape"
   xmlns:sodipodi="http://sodipodi.sourceforge.net/DTD/sodipodi-0.dtd"
   xmlns="http://www.w3.org/2000/svg"
   xmlns:svg="http://www.w3.org/2000/svg">
  <defs
     id="defs1" />
  <sodipodi:namedview
     id="namedview1"
     pagecolor="#ffffff"
     bordercolor="#666666"
     borderopacity="1.0"
     inkscape:showpageshadow="2"
     inkscape:pageopacity="0.0"
     inkscape:pagecheckerboard="0"
     inkscape:deskcolor="#d1d1d1"
     inkscape:zoom="0.3775"
     inkscape:cx="229.13907"
     inkscape:cy="878.14569"
     inkscape:window-width="1680"
     inkscape:window-height="998"
     inkscape:window-x="-8"
     inkscape:window-y="-8"
     inkscape:window-maximized="1"
     inkscape:current-layer="svg1" />
  <path
     style="fill:#000000;stroke:none;stroke-width:0.999999"
     d="m 443.42383,2.6621094 c -27.05199,5.2148066 -45.793,27.0522916 -56.22266,65.5117186 -6.51853,8.474144 -13.68943,20.206576 -21.51172,35.199222 -4.56297,9.77779 -4.88767,15.31931 -0.97656,16.62304 3.91116,1.3037 7.16991,3.25976 9.77734,5.86719 -3.2593,2.60743 -4.39965,4.8882 -3.42187,6.84375 0.97778,1.95556 2.44484,2.93359 4.40039,2.93359 -2.60742,3.2593 -2.60742,5.86671 0,7.82227 2.60743,1.95555 3.91016,6.51904 3.91016,13.68945 0,7.17041 2.77173,11.24488 8.3125,12.22266 5.54076,0.97778 14.17676,1.14015 25.91015,0.48828 l 0.97852,16.62305 c -29.98529,5.21484 -52.80081,14.66651 -68.44531,28.35547 -29.98533,43.02237 -57.03765,86.69533 -81.15625,131.02148 -13.03709,-9.77784 -36.82865,-21.02125 -71.37696,-33.73242 -34.54826,-12.71117 -56.06105,-23.3052 -64.53515,-31.7793 -9.91944,-10.62795 -22.6299,-19.7143 -38.132816,-27.26172 V 70.128906 H 66.488281 V 243.22266 c -6.489619,-2.15982 -13.333872,-4.12433 -20.533203,-5.89258 -4.562983,6.51854 -1.628921,12.71145 8.800781,18.57812 l -9.777343,31.28907 c 0.651822,11.73339 7.820815,19.55567 21.509765,23.46679 V 1000 H 90.933594 V 314.05078 c 10.988376,1.47832 22.396116,2.95723 34.222656,4.43555 73.00769,50.84464 121.2442,75.28954 144.71094,73.33398 16.94824,-3.25928 48.88874,-43.02403 95.82226,-119.29101 18.25194,30.63719 27.37891,92.56411 27.37891,185.77929 -28.02976,70.40031 -51.33426,139.82288 -69.91211,208.26758 -18.57785,68.44471 -36.9922,141.77938 -55.24414,220.00195 44.32611,0 70.40038,0.65139 78.22266,1.95508 l -12.71094,52.80078 c 0,11.96028 -39.51238,22.70437 -118.53767,32.233 -15.09833,0.72736 -19.24338,12.60279 -21.2846,26.43302 h 161.54102 c 13.44962,-1.10318 19.89919,-8.27407 19.34765,-21.51172 l -3.91015,-20.5332 29.33203,-67.4668 c 26.07417,0 70.72713,4.23684 133.95703,12.71094 l 3.91016,29.33398 c 0,14.99265 -11.89479,24.93337 -35.6875,29.82227 -21.43808,4.40508 -47.77283,8.67777 -79.00174,12.81824 -15.31742,2.03085 -15.3557,17.65588 -15.35568,24.82629 h 169.15624 c 18.25194,-1.95556 23.14208,-12.87428 14.66797,-32.75586 -8.4741,-19.88154 -9.77879,-43.51078 -3.91211,-70.88867 L 545.60156,523.82031 c 13.03713,-37.80755 11.4077,-71.05278 -4.88867,-99.73437 1.95555,-68.44471 8.14847,-117.65921 18.57813,-147.64453 15.64451,29.33346 32.91846,70.72566 51.82226,124.17773 -5.21481,31.94089 -7.49558,76.26716 -6.84375,132.97852 0.65187,5.86668 -3.91161,16.29638 -13.68945,31.28906 -9.77779,14.99265 -13.03659,36.17878 -9.77735,63.55664 7.17041,1.30368 10.91823,-3.4222 11.24415,-14.17774 0.32595,-10.75561 3.42238,-19.39356 9.28906,-25.9121 4.56294,14.99264 5.54097,27.37841 2.93359,37.15625 -2.60743,9.77778 -7.4976,19.22954 -14.66797,28.35546 -3.25929,3.91116 -4.23533,7.65894 -2.93164,11.24415 1.30374,3.58519 5.54057,5.3789 12.71094,5.3789 14.99264,-16.94824 23.62864,-33.40849 25.91016,-49.3789 2.28151,-15.97042 4.72661,-41.88233 7.33398,-77.73438 13.03714,-62.57799 20.20804,-113.7486 21.51172,-153.51172 -1.95556,-11.08157 -13.52763,-44.97814 -34.71289,-101.68945 -21.18528,-56.71136 -41.22901,-86.69583 -60.13281,-89.95508 -17.60007,-7.17041 -39.11086,-11.73389 -64.53321,-13.68945 v -26.40039 c 37.80761,-15.64456 56.71094,-44.3243 56.71094,-86.042972 0,-31.289018 -11.24342,-51.986098 -33.73242,-62.0898442 C 493.32019,-0.97348563 467.92785,-2.061578 443.42383,2.6621094 Z M 499.1582,22.21875 c 22.48896,5.866675 33.73243,23.14063 33.73242,51.822266 10e-6,22.163048 -7.49564,39.437044 -22.48828,51.822264 -14.99268,12.38526 -24.44435,14.99268 -28.35546,7.82227 -4.56298,-6.51854 -0.81521,-16.29686 11.24414,-29.33399 23.0865,-24.958372 12.78652,-63.135581 -30.80079,-42.044919 -7.17041,-7.170409 -23.46637,-13.036626 -48.88867,-17.59961 5.21481,-13.68895 15.15549,-22.326904 29.82227,-25.912109 15.43385,-3.772689 34.51786,-2.110894 55.73437,3.423828 z m -91.42382,34.222656 c 20.85935,1.955559 37.80861,7.821776 50.8457,17.59961 -0.65183,8.4741 2.44461,8.798839 9.28906,0.976562 13.87081,-15.852247 33.69198,-6.954065 23.4668,14.177734 -4.8889,10.103747 -11.24414,18.741708 -19.06641,25.912108 -7.82223,7.17042 -9.61596,14.17699 -5.37891,21.02149 4.23704,6.84445 7.00686,13.20168 8.31055,19.06836 v 29.33203 c -13.6889,3.91112 -26.07272,5.21585 -37.15429,3.91211 -1.95558,-22.81487 -10.75593,-32.59323 -26.4004,-29.33399 -15.64455,3.2593 -23.1421,-3.25831 -22.49023,-19.55469 h 15.64453 v -6.8457 h -17.59961 l -0.97656,-6.84375 c 0,-4.56299 -3.58545,-8.79982 -10.75586,-12.71094 7.17041,-17.600056 14.33936,-30.312485 21.50977,-38.134762 7.17036,-3.259248 14.66795,-3.094968 22.49023,0.490234 7.82227,3.585206 15.64456,6.35499 23.4668,8.310547 v -5.867187 c -5.21486,0 -11.73441,-2.443136 -19.55664,-7.332031 -7.82224,-4.888895 -15.64453,-5.704562 -23.4668,-2.445313 3.25929,-4.562984 5.86675,-8.473173 7.82227,-11.732422 z m 69.9121,15.154297 c -10.2407,3.413597 -21.02201,21.674396 -17.11132,26.888672 -4.56299,1.955555 -7.1704,4.727285 -7.82227,8.312505 -0.69037,3.79697 4.33113,16.9948 21.02149,-0.49024 6.84444,-7.170405 11.40793,-13.525643 13.68945,-19.066406 4.60407,-11.181471 0.14216,-18.951018 -9.77735,-15.644531 z m -76.75586,7.333985 -7.82226,6.84375 v 5.867187 h 3.91016 c 9.77783,4.562984 20.53422,4.562984 32.26757,0 l 11.73438,1.955078 v -5.867187 l -11.73438,-0.976563 c -6.14106,-5.77984 -17.70341,-14.923627 -28.35547,-7.822265 z M 480.41211,77.875 c 2.10834,0.09166 2.978,1.421603 2.61133,3.988281 -0.65187,4.562984 -2.60599,8.962146 -5.86524,13.199219 -3.25929,4.237025 -6.35572,7.17113 -9.28906,8.80078 -2.93333,1.62965 -2.93333,0.32496 0,-3.912108 2.93334,-4.237027 2.93334,-5.704081 0,-4.400391 -2.93333,1.303736 -3.58668,0.001 -1.95703,-3.910156 1.62965,-3.911115 4.07474,-7.821306 7.33398,-11.732422 3.13706,-1.425941 5.5262,-2.104495 7.16602,-2.033203 z m -73.6543,3.009766 c -1.30369,2.60738 -1.30369,5.21484 0,7.822265 -3.25929,-0.651867 -5.54201,-1.629903 -6.8457,-2.933593 0.65182,-1.955559 2.93454,-3.584982 6.8457,-4.888672 z m 8.79883,0.978515 9.7793,6.84375 c -4.56294,0.651868 -8.47508,0.978516 -11.73438,0.978516 3.2593,-1.303735 3.91068,-3.91115 1.95508,-7.822266 z m -21.02148,32.755869 c 0.55441,2.77224 -2.18851,6.12675 -5.86719,0.97656 -1.62965,-2.28151 -2.77001,-3.42187 -3.42188,-3.42187 -3.28529,-0.12621 -3.6424,1.71712 -3.59017,4.42039 2.60743,-1.30374 4.56821,-0.18407 6.52377,2.42336 4.31113,5.74807 8.79883,0.79285 8.79883,-3.91016 0,-5.74447 -3.08104,-3.67639 -2.44336,-0.48828 z m 100.22265,86.53319 c 28.68164,1.95556 51.17047,8.79987 67.4668,20.53321 l -18.57813,47.91211 c -14.99264,39.76311 -22.48828,89.95559 -22.48828,150.57812 l -105.60156,25.42188 c 0.65187,-86.04482 -13.03669,-157.42345 -41.06641,-214.13477 13.6889,-13.68895 26.39942,-22.16258 38.13282,-25.42187 28.02977,0 55.40878,-1.62944 82.13476,-4.88868 z m 25.42188,240.53321 c 13.68895,18.9038 15.31833,46.93415 4.88867,84.08984 l 35.20117,353.95703 c -67.14101,-10.42948 -153.18618,-15.96909 -258.13476,-16.62109 13.03708,-60.62248 28.03026,-122.2227 44.97851,-184.80078 16.94819,-62.57799 39.76177,-132.0006 68.44336,-208.26758 z"
     id="path1"
     sodipodi:nodetypes="sccscscsssccccsccccccccccccccccscccscccccccssccsccccccscscscscsccscccsssssscsccssccsssscccscccccccsccsccscsssscccccccccssssssscsccccccccssscsssccccccccccccscc" />
</svg>
