<?xml version="1.0" encoding="UTF-8" standalone="no"?>
<svg
   width="700"
   height="1000"
   version="1.1"
   id="svg1"
   sodipodi:docname="134CB.svg"
   inkscape:version="1.4.2 (f4327f4, 2025-05-13)"
   xmlns:inkscape="http://www.inkscape.org/namespaces/inkscape"
   xmlns:sodipodi="http://sodipodi.sourceforge.net/DTD/sodipodi-0.dtd"
   xmlns="http://www.w3.org/2000/svg"
   xmlns:svg="http://www.w3.org/2000/svg">
  <defs
     id="defs1" />
  <sodipodi:namedview
     id="namedview1"
     pagecolor="#ffffff"
     bordercolor="#666666"
     borderopacity="1.0"
     inkscape:showpageshadow="2"
     inkscape:pageopacity="0.0"
     inkscape:pagecheckerboard="0"
     inkscape:deskcolor="#d1d1d1"
     inkscape:zoom="0.3775"
     inkscape:cx="-141.72185"
     inkscape:cy="456.95364"
     inkscape:window-width="1680"
     inkscape:window-height="998"
     inkscape:window-x="-8"
     inkscape:window-y="-8"
     inkscape:window-maximized="1"
     inkscape:current-layer="svg1" />
  <path
     id="path1"
     style="fill:#000000;stroke:none;stroke-width:1"
     d="M 319.15625 0 C 316.73819 0.032240747 313.98183 1.0791703 310.88672 3.1425781 C 305.3843 6.8108586 303.0927 9.5623443 304.00977 11.396484 C 304.92684 13.230625 307.37175 13.690508 311.3457 12.773438 C 315.3197 11.856366 315.3197 12.925497 311.3457 15.982422 C 307.37175 19.03931 306.76051 25.45814 309.51172 35.240234 C 312.26293 45.022327 317.91721 51.443112 326.47656 54.5 L 320.97461 67.337891 C 315.47219 75.285844 309.35798 85.985172 302.63281 99.435547 C 298.96453 107.99489 299.27111 112.58002 303.55078 113.19141 C 307.83041 113.80276 311.19314 115.02523 313.63867 116.85938 C 311.80453 118.69351 311.04003 120.5291 311.3457 122.36328 C 311.65142 124.19742 313.33178 125.11328 316.38867 125.11328 C 320.66834 124.50189 320.97492 125.26643 317.30664 127.40625 C 313.63836 129.5461 313.33178 131.22842 316.38867 132.45117 C 319.44556 133.67396 321.43445 137.03664 322.35156 142.53906 C 323.26863 148.04148 325.2211 150.43209 327.39453 151.70898 C 337.65513 157.73709 350.71045 154.08631 362.24414 150.79102 C 371.41484 176.46902 358.87993 189.30859 324.64258 189.30859 C 290.40527 189.30859 266.25708 203.98184 252.19531 233.32812 C 240.57908 274.29064 227.7395 320.45064 213.67773 371.80664 C 192.2794 381.58873 169.65831 392.89926 145.81445 405.73828 C 121.97059 418.5773 99.654159 427.441 78.867188 432.33203 C 72.753375 428.05236 66.64112 425.60744 60.527344 424.99609 C 54.413531 424.3847 49.521834 425.30252 45.853516 427.74805 L 45.853516 134.28516 L 14.673828 134.28516 L 14.673828 436.91797 C 11.005547 438.75211 7.6428626 440.58578 4.5859375 442.41992 C -1.5278386 446.08824 -1.5278386 449.45092 4.5859375 452.50781 C 8.8656108 453.7306 12.228295 454.95303 14.673828 456.17578 C 6.1144819 461.06681 1.8339844 466.72309 1.8339844 473.14258 C 1.8339844 479.56211 3.0564204 485.52297 5.5019531 491.02539 C 7.9474858 496.52785 11.310171 501.72424 15.589844 506.61523 L 14.673828 999.08203 L 45.853516 999.08203 L 45.853516 489.19141 C 51.967329 486.13448 61.444184 479.71568 74.283203 469.93359 C 133.58715 462.59703 186.47061 447.00597 232.93555 423.16211 C 245.77457 411.54588 257.2384 392.59212 267.32617 366.30273 C 277.41398 340.01337 284.59728 314.64275 288.87695 290.1875 C 307.21835 315.8655 318.52892 371.80702 322.80859 458.01172 L 277.87305 712.95703 C 266.25682 783.26586 252.1948 850.51794 235.6875 914.71289 C 221.62577 944.67064 195.03075 963.01128 155.90234 969.73633 C 132.05848 973.40458 120.13672 983.18612 120.13672 999.08203 L 258.61328 999.08203 C 270.22951 994.8024 276.49699 979.97783 277.41406 954.60547 C 278.33113 929.23318 289.18377 893.61918 309.9707 847.76562 C 330.75767 801.91205 342.37283 756.97647 344.81836 712.95703 L 421.85352 712.03906 C 434.08119 784.18203 442.64022 852.3519 447.53125 916.54688 C 440.80604 948.94998 417.26714 966.98587 376.91602 970.6543 C 357.35183 974.32255 348.79279 984.10409 351.23828 1000 L 486.96484 1000 C 497.96968 991.44065 501.63898 974.16923 497.9707 948.18555 C 494.30242 922.20187 494.60705 885.67207 498.88672 838.5957 C 502.5391 798.41926 502.40594 748.66804 498.48828 689.34375 L 538.32227 689.34375 L 538.32227 800.63086 L 567.49414 800.63086 L 567.49414 689.34375 L 622.59766 689.34375 L 622.59766 669.89648 L 567.49414 669.89648 C 597.26099 610.3628 599.59828 574.94796 574.50391 563.6543 C 574.40499 562.99653 574.26473 562.32598 574.08594 561.64062 C 568.58351 545.13332 563.08253 533.21156 557.58008 525.875 C 552.6889 501.41979 550.39534 478.79869 550.70117 458.01172 C 551.00688 437.22479 547.79747 411.54563 541.07227 380.97656 C 552.6885 266.03697 543.51819 202.75885 513.56055 191.14258 C 459.14762 186.86295 434.0797 174.63652 438.35938 154.46094 C 464.03737 151.40401 476.87695 125.72485 476.87695 77.425781 L 480.54492 118.69531 L 499.80469 115.02539 L 484.21289 80.177734 C 492.16084 75.286669 492.46743 70.701548 485.13086 66.421875 C 496.13574 60.919454 501.63867 55.109907 501.63867 48.996094 C 501.02728 43.493673 497.05339 40.744141 489.7168 40.744141 C 482.38023 40.744141 477.18189 48.996606 474.125 65.503906 C 469.84533 31.877951 447.22423 12.926157 406.26172 8.6464844 C 365.29921 4.3668115 339.31738 15.370763 328.3125 41.660156 C 323.42143 37.380483 323.11486 32.642055 327.39453 27.445312 C 331.6742 22.24857 331.98078 16.594282 328.3125 10.480469 C 328.92389 7.4235805 327.54816 4.5187884 324.18555 1.7675781 C 322.71441 0.56392358 321.03696 -0.025076137 319.15625 0 z M 385.74414 21.513672 C 391.93437 21.265297 398.7723 21.71499 406.26172 22.861328 C 436.21939 27.446679 453.03289 40.437609 456.70117 61.835938 C 408.40206 49.60831 372.02552 43.18948 347.57031 42.578125 C 354.44834 29.28059 367.17344 22.258796 385.74414 21.513672 z M 340.23438 56.333984 C 361.02135 57.556731 379.05533 60.001641 394.33984 63.669922 C 387.61463 117.47145 394.95128 147.73573 416.34961 154.46094 C 414.51547 180.75029 426.13257 196.18609 451.19922 200.77148 C 476.26583 205.35683 486.65858 214.68046 482.37891 228.74219 C 468.31714 254.42022 452.11679 311.89075 433.77539 401.15234 C 417.87944 409.71169 387.61516 418.27073 342.98438 426.83008 C 332.59088 340.62534 324.03181 287.74188 317.30664 268.17773 C 297.74245 227.82657 316.38963 203.06527 373.24805 193.89453 C 384.86428 190.83764 388.6849 180.29158 384.71094 162.25586 C 380.73695 144.22009 370.95546 137.34142 355.36523 141.62109 C 339.77504 145.90076 332.28513 142.23342 332.89648 130.61719 C 342.67861 124.50338 346.04131 120.52945 342.98438 118.69531 C 339.92749 116.86117 334.42451 115.94336 326.47656 115.94336 C 325.86517 111.66369 321.58662 108.60562 313.63867 106.77148 C 319.75248 90.875577 325.86666 79.56505 331.98047 72.839844 C 338.70564 68.560171 346.1936 67.797581 354.44727 70.548828 C 362.7009 73.300038 371.10862 74.980442 379.66797 75.591797 L 378.75 71.005859 C 373.24758 71.005859 366.52217 69.4788 358.57422 66.421875 C 350.62627 63.364987 342.3738 63.364987 333.81445 66.421875 C 336.87138 62.142239 339.01162 58.779517 340.23438 56.333984 z M 411.76562 68.255859 L 458.53516 76.509766 C 458.53516 119.30642 449.51818 139.63395 431.48242 137.49414 C 413.44665 135.35432 406.87455 112.2753 411.76562 68.255859 z M 345.36328 72.539062 C 341.86695 72.73967 338.62892 73.757661 335.64844 75.591797 L 330.14648 82.011719 L 331.0625 86.597656 L 333.81445 85.679688 C 344.20794 89.347968 354.60065 88.736732 364.99414 83.845703 L 378.75 83.845703 L 377.83398 78.34375 L 364.99414 78.34375 C 357.734 74.140519 351.19051 72.204716 345.36328 72.539062 z M 342.06836 76.509766 C 340.84561 78.955299 341.15024 81.40017 342.98438 83.845703 C 339.92748 83.234311 337.48258 82.316535 335.64844 81.09375 C 336.87119 79.871002 339.01147 78.343906 342.06836 76.509766 z M 352.15625 77.425781 L 361.32617 81.09375 C 357.65789 82.927927 354.29521 83.845703 351.23828 83.845703 C 353.68381 82.011526 353.99039 79.871276 352.15625 77.425781 z M 326.47656 118.69531 L 335.64844 118.69531 C 338.70533 118.69531 339.9278 118.99998 339.31641 119.61133 L 322.80859 121.44531 C 318.52892 121.44531 317.45976 120.98738 319.59961 120.07031 C 321.73943 119.15324 324.03103 118.69531 326.47656 118.69531 z M 338.39844 121.44531 C 338.39844 122.66806 337.176 123.73918 334.73047 124.65625 C 332.28494 125.57332 330.14664 126.33588 328.3125 126.94727 C 326.47836 127.55866 325.25397 127.55866 324.64258 126.94727 C 324.03123 126.33588 324.3378 125.72463 325.56055 125.11328 L 338.39844 121.44531 z M 497.05273 259.92383 C 496.44134 285.60183 499.19283 326.8701 505.30664 383.72852 C 501.027 415.52033 501.79151 440.89287 507.59961 459.8457 C 513.40774 478.79849 518.75741 501.11302 523.64844 526.79102 C 520.22888 543.54685 518.81712 558.96475 519.41406 573.04297 C 508.32202 589.71535 514.98447 621.99983 539.40234 669.89648 L 497.0957 669.89648 C 496.7914 665.94824 496.47039 661.9591 496.13477 657.93164 C 491.24374 502.64089 478.7107 420.71755 458.53516 412.1582 C 468.92861 338.18109 481.76822 287.43597 497.05273 259.92383 z M 433.77539 429.58203 C 453.95097 430.80478 465.87274 515.48156 469.54102 683.61133 L 305.38477 683.61133 L 346.65234 451.5918 L 433.77539 429.58203 z M 565.71875 579.12109 C 583.66237 586.82573 579.57307 615.28412 553.44922 664.49414 C 538.73177 637.40063 530.84764 616.59808 529.79883 602.08594 C 533.47442 599.5488 535.09229 594.31942 534.65234 586.40039 C 548.70984 585.25286 559.06538 582.8264 565.71875 579.12109 z " />
</svg>
