<?xml version="1.0" encoding="UTF-8" standalone="no"?>
<svg
   width="10.535172"
   height="17.977417"
   version="1.1"
   id="svg1"
   sodipodi:docname="134CC.svg"
   inkscape:version="1.4.2 (f4327f4, 2025-05-13)"
   xmlns:inkscape="http://www.inkscape.org/namespaces/inkscape"
   xmlns:sodipodi="http://sodipodi.sourceforge.net/DTD/sodipodi-0.dtd"
   xmlns="http://www.w3.org/2000/svg"
   xmlns:svg="http://www.w3.org/2000/svg">
  <defs
     id="defs1" />
  <sodipodi:namedview
     id="namedview1"
     pagecolor="#ffffff"
     bordercolor="#666666"
     borderopacity="1.0"
     inkscape:showpageshadow="2"
     inkscape:pageopacity="0.0"
     inkscape:pagecheckerboard="0"
     inkscape:deskcolor="#d1d1d1"
     inkscape:zoom="22.627417"
     inkscape:cx="15.291184"
     inkscape:cy="4.6624853"
     inkscape:window-width="1680"
     inkscape:window-height="998"
     inkscape:window-x="-8"
     inkscape:window-y="-8"
     inkscape:window-maximized="1"
     inkscape:current-layer="svg1"
     showguides="true">
    <sodipodi:guide
       position="1.1191406,7.647346"
       orientation="0,-1"
       id="guide3"
       inkscape:locked="false" />
    <sodipodi:guide
       position="0.57031246,7.6911322"
       orientation="1,0"
       id="guide4"
       inkscape:locked="false" />
  </sodipodi:namedview>
  <path
     style="fill:#000000;stroke:none;stroke-width:0.999999"
     d="M 0,3.5644462 V 17.976555 H 0.54882814 V 3.5644462 Z"
     id="path3"
     sodipodi:nodetypes="ccccc" />
  <path
     style="fill:#000000;stroke:none"
     d="M 4.6071868,0.82979218 C 4.5029231,0.84376957 4.395635,0.87039714 4.2826762,0.91018757 3.8308397,1.0693495 3.4538588,1.3433725 3.152243,1.7322785 2.8506271,2.1211846 2.7625633,2.6588538 2.8875184,3.3446151 2.9788606,3.5626685 3.0498528,3.936094 3.1039566,4.4649885 3.18895,4.6328224 3.2694812,4.686047 3.3447396,4.6255116 c 0.075259,-0.060536 0.1446946,-0.09507 0.2074689,-0.1030069 -0.017175,0.065949 -0.00351,0.1191991 0.039707,0.15838 0.04322,0.039181 0.08157,0.044729 0.1160608,0.014859 0.014204,-0.013757 0.024541,-0.02411 0.031939,-0.027661 l 0.00194,-2.458e-4 0.00194,-2.458e-4 0.00194,-2.459e-4 0.00194,-2.458e-4 0.00194,-2.458e-4 2.458e-4,0.00194 0.00194,-2.459e-4 2.458e-4,0.00194 2.458e-4,0.00194 2.459e-4,0.00194 2.458e-4,0.00194 c -7.671e-4,0.0087 -0.00472,0.024001 -0.012296,0.042896 -0.024245,0.060465 0.011969,0.1039335 0.1108907,0.129695 0.098923,0.025762 0.1901183,0.081104 0.2710731,0.1665373 0.080956,0.085434 0.1823316,0.087977 0.3062231,0.00854 C 4.5525873,4.944549 4.6818845,4.8271505 4.8150859,4.6700001 L 5.0777911,4.941911 c 0.01459,0.3160062 -0.06688,0.5035319 0.023671,0.813553 C 4.4112328,6.2709323 3.5541898,6.9228346 2.994864,7.575272 2.3643781,7.3928487 1.7653248,7.1872805 1.1993465,6.9574811 1.0218871,6.6955668 0.81187871,6.4379601 0.57031242,6.1834055 L 0.11142366,6.5487753 C -0.2393519,6.4091823 -0.3894851,6.5649404 -0.33796506,7.0136846 -0.1908889,7.5114123 0.07619158,7.7186117 0.46123145,7.6344364 L 1.0063746,7.5367651 C 1.5237704,7.8221026 2.0074169,8.052459 2.4558898,8.2270509 2.904363,8.4016423 3.2330681,8.4619798 3.4417152,8.4080482 4.2369748,7.8078435 4.9351552,7.2666519 5.5268908,6.6417348 5.8723687,6.9191599 6.2650882,7.0653613 6.7638852,7.3785964 7.2626828,7.6918321 7.4936903,7.9989516 7.4548637,8.2972382 7.23681,8.3885799 7.1435013,8.5202549 7.1782754,8.6944372 7.2130491,8.8686196 7.3485546,8.9218254 7.5823373,8.8540066 l -0.5691596,0.5213851 0.4683454,0.096643 -0.999674,1.8267223 c -0.9956028,1.56017 -1.2814055,3.178846 -1.5091929,4.115305 -0.075929,0.54416 -0.2680809,1.010513 -0.578125,1.396485 -0.3100446,0.385974 -0.6963011,0.607116 -1.1582031,0.664062 -0.4619026,0.05695 -0.7051587,0.223547 -0.7304687,0.501953 0.582124,10e-7 1.0057324,-0.01868 1.2714844,-0.05664 0.2657519,-0.03796 0.5940274,-0.05664 0.9863281,-0.05664 0.177168,-0.151858 0.2469484,-0.442781 0.2089843,-0.873047 0.7466367,-1.265485 1.2469034,-2.366274 1.5,-3.302734 0.037965,-0.873185 0.3624603,-1.19938 0.7065764,-1.189802 l 1.5817926,0.535324 c -0.1192945,0.707783 0.2880004,1.33116 0.6549904,3.178769 0,0.404956 -0.1533146,0.733231 -0.4570312,0.986328 -0.5568134,0.139203 -0.910642,0.253213 -1.0625,0.341797 -0.1518587,0.08858 -0.2285157,0.190793 -0.2285156,0.304687 0,0.113894 0.1837899,0.158123 0.5507812,0.132813 0.620088,-0.06327 1.1645825,-0.107502 1.6328125,-0.132813 C 10.231208,17.667437 10.289189,17.362761 10.023438,16.932495 10.086708,14.958337 9.7654003,14.689904 9.7535828,14.211627 9.7417668,13.73335 9.5955248,13.46734 9.6604318,13.275549 10.015383,11.792483 10.285319,10.671396 10.46888,9.911883 10.652441,9.1523698 10.576213,8.4225527 10.239269,7.7206845 10.195899,6.7040132 8.7365295,5.3793407 8.6070986,4.8599679 9.7243198,5.726428 10.563666,6.9666385 11.124701,8.579452 c 0.01514,0.7251551 0.180799,1.424431 0.495666,2.09894 0.09568,-0.05035 0.16318,-0.166876 0.203734,-0.350584 0.101601,-0.306223 0.1597,-0.5126819 0.172114,-0.6162956 0.01242,-0.1036123 -4.1e-4,-0.2991395 -0.03691,-0.5879031 C 11.846025,8.9338388 11.72839,8.7634585 11.607317,8.6129418 11.267797,7.1379465 10.910801,6.2260918 10.535172,5.878153 9.3573578,4.3305516 8.4887584,3.6190803 7.9301345,3.7407191 7.4543502,3.6095307 7.0374724,3.5953583 6.6805205,3.6978812 6.3235694,3.8004046 6.0598211,3.6262019 5.8881038,3.1759527 6.0256413,2.7503875 6.0611156,2.3531071 5.9954636,1.9851174 5.9298115,1.617127 5.7414547,1.3065845 5.4287431,1.0527367 5.1942089,0.86235128 4.9199779,0.78786003 4.6071868,0.82979218 Z M 4.5484,1.2368633 C 4.8154405,1.2050993 5.0460948,1.2816093 5.241088,1.4682235 5.5530772,1.7668072 5.6632956,2.1763882 5.569843,2.6984249 5.526036,2.9431297 5.486633,3.0764847 5.4509655,3.0973428 l -0.00194,2.459e-4 -0.00169,0.00218 -0.00194,2.458e-4 -0.00194,2.459e-4 -0.00194,2.458e-4 -0.00194,2.458e-4 -0.00194,2.459e-4 -2.459e-4,-0.00194 -0.00194,2.459e-4 -0.00194,2.458e-4 -0.00218,-0.00169 -0.00218,-0.00169 C 5.3987693,3.0679263 5.3681556,2.9463237 5.3443564,2.7367724 5.2879434,2.2400583 5.1336638,1.9286731 4.8815589,1.8010979 4.629454,1.6735221 4.3478794,1.8324617 4.0345727,2.2802455 3.4557418,2.5447506 3.186488,2.5307413 3.2261081,2.2387322 3.2657283,1.9467238 3.5325735,1.6712643 4.0290036,1.4107979 4.2151649,1.3131233 4.3881758,1.2559217 4.5484,1.2368633 Z m 0.1249938,0.864194 c 0.1444946,-0.02761 0.2471617,0.058722 0.3085108,0.2602382 0.06544,0.2149509 0.082324,0.4307563 0.052013,0.6450544 -0.03031,0.2142987 0.02257,0.3740419 0.1569194,0.4782366 0.1343489,0.1041949 0.2736511,0.1207689 0.4179624,0.051504 0.2769178,0.4752167 0.5772982,0.6532162 0.900482,0.5358289 C 6.8324639,3.9545321 7.282802,3.9629771 7.8606137,4.0940243 8.0453106,4.848766 8.9582978,6.4240305 9.6759146,7.7619396 9.1280607,8.054682 8.5519534,8.1530117 8.2631895,8.1895148 8.1501954,8.2037987 7.943351,8.0371068 7.8222788,7.8865889 7.3913861,7.3032806 6.6783041,6.7485026 5.6808515,6.2240583 5.4641012,6.1239024 5.3750217,5.8815427 5.4152934,5.4937845 L 5.4763192,4.6060753 C 5.1571171,4.1999814 4.8835716,4.1246066 4.6547628,4.3831309 4.4259541,4.6416551 4.2374489,4.6981717 4.0912672,4.5508281 4.1553455,4.3513946 4.1429581,4.2534025 4.05428,4.2582348 3.9656017,4.2630664 3.8638129,4.3120866 3.7477861,4.4032874 3.7538504,4.2494543 3.6582027,4.1981402 3.4604982,4.2486432 L 3.333562,3.5559687 C 3.369357,3.3345991 3.6279109,3.1543113 4.108031,3.0170849 c 0.023307,-0.030052 0.035197,-0.05266 0.034546,-0.069333 -1.213e-4,-9.345e-4 -5.334e-4,-0.00492 -7.333e-4,-0.00581 -2.87e-4,-8.42e-4 -0.00231,-0.00477 -0.00267,-0.00557 l -2.458e-4,-0.00194 -0.00218,-0.00169 -0.00218,-0.00169 -0.00218,-0.00169 -0.00218,-0.00169 -0.00218,-0.00169 C 4.0938234,2.9090074 4.0047065,2.9203989 3.8630574,2.9634213 3.6112365,3.0398989 3.4048383,3.158616 3.2465266,3.3189404 3.1960239,3.1212351 3.2117425,2.9870036 3.2924842,2.919397 3.373227,2.8517904 3.6529157,2.7446011 4.1314484,2.5948194 c 0.097408,0.06422 0.1679121,0.010727 0.210055,-0.1604223 0.042142,-0.1711492 0.1413579,-0.2797835 0.3013981,-0.325526 0.010003,-0.00286 0.020878,-0.00596 0.030511,-0.0078 z m -0.02704,0.066416 c -0.045548,0.00823 -0.088985,0.047848 -0.1325907,0.1191315 -0.063426,0.1036854 -0.082987,0.2349366 -0.056871,0.3910795 0.026119,0.156143 0.078109,0.2421977 0.1566135,0.2577845 C 4.5618396,3.0312898 4.5560916,3.1073145 4.5954146,3.166121 4.6347336,3.22493 4.6965077,3.239409 4.7820115,3.209467 4.8675155,3.179525 4.9198985,3.0649176 4.9392409,2.8647611 4.9585829,2.6646054 4.9421509,2.5071854 4.8894109,2.392674 4.8366643,2.2781644 4.7781002,2.2068034 4.7105646,2.177074 4.6894596,2.167784 4.6670576,2.163735 4.6463538,2.1674733 Z m 0.023025,0.1821441 c 0.026941,-0.00899 0.051756,0.00329 0.075146,0.033812 0.053465,0.069775 0.082228,0.1602629 0.08396,0.2748435 0.00173,0.1145812 -0.0093,0.2036398 -0.033548,0.2641051 -0.00455,0.011334 -0.00864,0.019559 -0.012563,0.025212 -6.357e-4,7.841e-4 -0.0047,0.00398 -0.00532,0.00462 l -0.00169,0.00218 -0.00194,2.459e-4 -0.00194,2.458e-4 -0.00194,2.458e-4 -0.00194,2.459e-4 -2.458e-4,-0.00194 -0.00195,2.45e-4 -2.439e-4,-0.00194 c -0.00693,-0.011921 -0.014321,-0.042883 -0.017327,-0.090337 -0.00301,-0.047453 -0.00965,-0.079076 -0.019506,-0.09203 l -0.00219,-0.00169 -0.00218,-0.00169 -2.458e-4,-0.00194 -0.00194,2.458e-4 -0.00218,-0.00169 -0.00194,2.458e-4 -0.00194,2.458e-4 -0.00194,2.459e-4 c -8.704e-4,2.096e-4 -0.00298,1.221e-4 -0.00387,4.918e-4 -9.283e-4,5.15e-4 -0.00461,0.002 -0.00557,0.00267 -0.00596,0.00494 -0.015203,0.015976 -0.022251,0.026437 -0.011748,0.01743 -0.023077,0.027613 -0.033386,0.031782 -0.00101,2.816e-4 -0.00482,5.838e-4 -0.00581,7.332e-4 -9.877e-4,1.92e-5 -0.00484,8.519e-4 -0.00581,7.333e-4 -9.591e-4,-2.462e-4 -0.00512,-8.284e-4 -0.00606,-0.0012 l -0.00218,-0.00169 C 4.6160299,2.8142846 4.6007341,2.7902887 4.590732,2.7552767 4.5678608,2.675256 4.5563355,2.5840871 4.5561939,2.4820607 4.5967022,2.405189 4.6347466,2.3611856 4.6693854,2.3496316 Z M 4.3107116,2.9540589 4.0878715,3.1535027 C 3.8006952,3.2025606 3.6032566,3.2824966 3.4958877,3.3917361 3.3885188,3.5009762 3.3591626,3.6488248 3.4080791,3.8339745 3.6262745,3.8446591 3.7904714,3.7877522 3.9025304,3.6651619 4.0145897,3.5425742 4.0914811,3.3906844 4.1320363,3.2069798 L 4.3764581,3.0225259 Z m 0.3901435,0.080613 c 0.031887,-0.00552 0.056822,-0.00375 0.073165,0.00256 0.00375,0.00182 0.01006,0.00565 0.012853,0.00822 0.00165,0.00187 0.00583,0.00675 0.00704,0.00896 0.00399,0.00946 0.00588,0.024282 0.00296,0.038998 -0.011692,0.058878 -0.041521,0.081473 -0.087844,0.068197 -0.046329,-0.013286 -0.05974,-0.052705 -0.042565,-0.1186545 0.012357,-0.00316 0.023761,-0.00644 0.03439,-0.00828 z M 4.0073759,3.2798298 c -0.061046,0.1225166 -0.1436708,0.2290537 -0.2471422,0.3186674 -0.078362,0.086439 -0.1706,0.116924 -0.2758013,0.091956 -1.413e-4,-0.1020264 0.017937,-0.1627542 0.054015,-0.180071 0.028426,0.1239625 0.1025851,0.1542056 0.2217864,0.088115 C 3.8448021,3.4602508 3.817522,3.393363 3.6778307,3.3982663 3.7860635,3.3463176 3.8959682,3.3066684 4.0073759,3.2798298 Z M 9.6446607,8.4435507 C 10.064206,8.5855366 10.233891,8.8618156 10.183562,9.3658194 L 9.1003927,12.566405 6.7685338,11.816416 C 7.2974024,10.806365 7.8006938,9.8342916 8.2771902,8.9000383 8.374552,8.6123501 8.8400649,8.4918909 9.6446607,8.4435507 Z"
     id="path1"
     sodipodi:nodetypes="sssccscsccccccccccccccsscccccccccccsccscscccccsccscccccccsscccscscccccsccccscsssssscccccccccccccsscssscscscsccsccccscscccccccccccccccscsccccsccssscscccscccccccccccscccccccccccccccccscccccsccccccccccccccccccccccccccc" />
</svg>
