<?xml version="1.0" encoding="UTF-8" standalone="no"?>
<svg
   width="1200"
   height="2000"
   version="1.1"
   id="svg1"
   sodipodi:docname="134DA.svg"
   inkscape:version="1.4.2 (f4327f4, 2025-05-13)"
   xmlns:inkscape="http://www.inkscape.org/namespaces/inkscape"
   xmlns:sodipodi="http://sodipodi.sourceforge.net/DTD/sodipodi-0.dtd"
   xmlns="http://www.w3.org/2000/svg"
   xmlns:svg="http://www.w3.org/2000/svg">
  <defs
     id="defs1" />
  <sodipodi:namedview
     id="namedview1"
     pagecolor="#ffffff"
     bordercolor="#666666"
     borderopacity="1.0"
     inkscape:showpageshadow="2"
     inkscape:pageopacity="0.0"
     inkscape:pagecheckerboard="0"
     inkscape:deskcolor="#d1d1d1"
     inkscape:zoom="0.18875"
     inkscape:cx="13.245033"
     inkscape:cy="421.19205"
     inkscape:window-width="1680"
     inkscape:window-height="998"
     inkscape:window-x="-8"
     inkscape:window-y="-8"
     inkscape:window-maximized="1"
     inkscape:current-layer="svg1"
     showguides="true">
    <sodipodi:guide
       position="0,0"
       orientation="0,-1"
       id="guide4"
       inkscape:locked="false" />
    <sodipodi:guide
       position="0,2000"
       orientation="0,-1"
       id="guide6"
       inkscape:locked="false" />
  </sodipodi:namedview>
  <path
     id="path5"
     style="fill:#000000;stroke:none;stroke-width:111.215"
     d="M 766.79305,0.00189391 C 761.03103,-0.03431223 755.6968,0.44876374 750.79943,1.4569996 731.2081,5.4903731 721.41424,21.913919 721.41424,50.72379 V 92.211057 H 674.7442 l 46.67004,32.840363 v 68.55533 c -36.78849,19.15642 -60.94336,53.41917 -72.4629,102.78847 -11.0923,14.78985 -22.80051,35.74133 -35.12543,62.85603 -8.62731,16.02231 -9.24356,25.2656 -1.8487,27.7306 7.39493,2.46492 13.55713,6.16404 18.48707,11.09403 -6.16241,3.69739 -8.62729,7.08661 -7.39483,10.1679 1.23247,3.08118 3.69736,5.23799 7.39483,6.47046 -4.92994,6.16246 -5.23808,10.7841 -0.92435,13.8653 4.31369,3.08127 6.47046,10.78398 6.47046,23.10883 0,18.85161 8.16198,25.6952 57.30993,22.1845 l 5.54612,33.27673 c -11.09239,0 -35.74119,3.38922 -73.94828,10.16787 -38.20703,6.77867 -53.4065,19.69652 -74.34367,52.6276 -31.01841,48.78739 -63.51379,103.36943 -91.41482,161.03876 -42.20266,-15.08424 -72.36429,-24.92768 -90.81639,-35.17887 -3.48846,-10.43578 -7.66901,-20.2076 -12.54735,-29.30859 L 522.44316,390.0185 442.6442,341.92007 281.28842,609.62103 254.08144,595.53843 c -7.10424,8.23637 -6.43525,16.99283 2.04283,26.41622 -21.81494,22.40235 -28.07454,42.57582 -18.84683,60.67961 v 0.002 l -27.1963,45.12055 79.79895,48.09844 27.5347,-45.68158 36.84769,5.92191 c 21.86537,20.79879 45.36922,39.80818 76.38294,59.37413 -8.20001,20.59238 -15.58516,41.43427 -21.90486,62.41613 -69.47435,10.14638 -128.56915,22.52403 -226.26,77.74364 -15.97608,-13.17014 -32.78228,-23.04388 -50.4316,-29.57753 l 19.42568,-259.94102 -50.01483,-3.73837 -19.740907,264.14602 -15.044343,1.88611 -34.233138,2.78375 c -1.657265,10.74995 3.550988,17.82161 15.735381,21.31712 -7.704617,35.56438 0.854238,57.39846 25.716263,65.77692 0.321587,0.0315 0.641972,0.063 0.961755,0.0946 L 67.413687,1097.9363 8.6005831,1094.253 59.95118,1197.8073 0,2000 h 50.292666 l 59.855014,-800.9122 62.63339,-94.5511 -55.30803,-3.4642 7.60142,-101.7091 c 21.15254,-2.13993 41.14287,-8.55933 66.82595,-22.10616 131.71954,-25.44292 217.74776,-54.07908 277.88132,-82.35116 11.57251,-18.67249 23.98626,-38.28143 36.4986,-57.96 27.70646,13.49652 59.98383,27.84981 98.30205,43.64765 10.98351,-5.74137 24.08932,-13.30335 39.31975,-22.68495 5.10428,54.91243 7.40397,118.55226 6.89792,190.91902 -19.71978,40.672 -38.51451,95.2093 -56.38555,163.6124 -17.87106,68.4028 -28.04048,105.0698 -30.50545,109.9998 l -29.57931,20.3376 c -28.34716,-19.7196 -46.83382,-24.6492 -55.46122,-14.7896 -8.62738,9.8597 -7.70304,19.1031 2.77307,27.7305 10.47611,8.6279 9.85994,14.1729 -1.84872,16.6383 -11.70857,2.4649 -16.63834,9.5514 -14.78964,21.2602 1.84872,11.7088 7.70284,16.6384 17.56271,14.7897 9.85989,-1.8488 9.85989,0.6163 0,7.3949 -9.85987,6.7786 -12.63287,13.8667 -8.31919,21.2618 4.31367,7.3932 12.6327,7.7011 24.95756,0.9226 12.32488,-6.7785 13.86534,-4.9299 4.62176,5.5461 -9.24406,10.4761 -8.93555,19.1033 0.92436,25.8819 9.85991,6.7775 19.7194,5.8544 29.57931,-2.7731 -14.78987,29.5797 -19.71964,65.3223 -14.78966,107.2268 -32.04462,102.2964 -52.68799,177.7852 -61.93168,226.4684 -9.24366,48.6832 -25.88337,79.1879 -49.91686,91.5128 -24.03346,12.3248 -60.08235,29.5792 -108.14937,51.7638 -49.2994,9.8599 -76.41499,20.3355 -81.34488,31.428 -4.93,11.0926 2.77279,17.5627 23.10883,19.4114 20.33606,1.8499 104.45378,2.7731 252.35207,2.7731 20.95226,-19.7198 28.65492,-45.6012 23.10883,-77.6456 -5.5462,-32.0447 14.78912,-85.6578 61.00732,-160.8395 46.21825,-75.1814 63.16609,-146.6668 50.84124,-214.4534 -1.23248,-22.1849 7.39464,-45.9093 25.88189,-71.1753 18.48731,-25.2659 35.12522,-48.3759 49.91508,-69.3282 17.25479,-3.6975 28.34851,18.4882 33.27851,66.5551 h 1.84871 c -8.62739,87.5066 -6.77873,168.2332 5.54612,242.1825 12.32486,73.9492 48.06567,126.9458 107.22501,158.9905 20.95227,2.4649 30.19559,-4.9295 27.73059,-22.1844 -56.69433,-52.9969 -88.12166,-106.3017 -94.28405,-159.915 -6.1625,-53.613 -6.7786,-126.0207 -1.8487,-217.2248 14.78985,-40.6718 26.49804,-57.312 35.12543,-49.9168 6.16246,32.0445 15.40575,60.3926 27.7306,85.0422 22.1847,115.8538 39.13257,206.1336 50.84122,270.8391 11.70866,64.7055 8.31942,106.6104 -10.16788,125.714 -18.48732,19.1034 -51.14878,34.817 -97.98325,47.1419 -49.29941,8.6275 -75.79873,18.487 -79.49619,29.5793 -3.69747,11.0923 4.62227,17.2547 24.95933,18.4888 20.33598,1.2322 103.83746,1.2322 250.50334,0 29.57976,-18.4873 37.89866,-40.9792 24.95766,-67.4777 -12.94119,-26.4984 -20.33587,-58.8518 -22.18462,-97.0589 -1.84866,-38.207 0.92437,-91.2038 8.3192,-158.9905 6.16242,-61.6243 1.2326,-112.1563 -14.78966,-151.5958 9.85994,13.5571 18.48708,16.9464 25.88198,10.1679 7.3944,-6.7787 7.703,-13.5572 0.9243,-20.3358 -6.7789,-6.7791 -8.93538,-11.0923 -6.4705,-12.941 2.4651,-1.8499 7.0867,-1.5428 13.8653,0.9226 6.7787,2.465 12.6328,-1.2327 17.5627,-11.0922 4.9301,-9.8599 2.7733,-17.5625 -6.4704,-23.1089 -9.2442,-5.5458 -8.9355,-10.4755 0.9243,-14.7896 9.86,-4.3139 11.7069,-13.8652 5.5444,-28.6551 -6.1624,-14.7904 -22.8004,-17.2561 -49.91516,-7.3964 -22.18473,-27.1147 -36.35781,-52.9961 -42.52025,-77.6458 -6.16244,-24.6498 -6.7786,-77.6467 -1.84867,-158.9906 4.93002,-81.3441 -3.69715,-163.9212 -25.88189,-247.73028 11.09238,1.23248 17.25454,-17.25417 18.48704,-55.4612 l 18.48704,-1.84871 c -3.69734,-48.06693 -9.85959,-77.64732 -18.48704,-88.73971 17.2549,4.92999 25.88188,-36.35858 25.88188,-123.86514 25.88226,-72.71665 23.72555,-116.47012 -6.47046,-131.25998 -30.19584,-14.78984 -69.32772,-24.64941 -117.39467,-29.57931 l -3.69741,-48.06639 c 62.85679,-27.11469 94.2858,-77.03039 94.2858,-149.74704 -0.70415,-47.18051 -16.14797,-81.23823 -46.22298,-102.26662 l 0.12644,0.004 V 56.113183 C 882.92526,36.522082 906.54951,27.87658 949.18818,30.181418 V 21.539863 C 924.12388,12.034069 902.94814,7.2292126 885.66242,7.1206612 879.90039,7.0844551 874.56616,7.5675321 869.66879,8.5757679 850.07745,12.609141 840.28362,29.032686 840.28362,57.842558 V 99.32982 h -46.67006 l 46.67006,32.84037 v 51.746 c -15.91763,-4.57361 -34.09228,-7.13644 -54.52618,-7.68871 -9.21176,0.76766 -17.97911,2.06668 -26.31111,3.88621 V 48.994416 c 4.60958,-19.591101 28.23381,-28.236614 70.87243,-25.931767 V 14.421096 C 805.25447,4.9153014 784.07878,0.11044524 766.79305,0.00189391 Z M 779.59687,209.42228 c 16.85502,0.6713 35.85518,3.77929 57.00001,9.32547 37.59083,9.85991 56.38734,39.4403 56.38734,88.73971 0,39.43955 -12.32621,69.63611 -36.97591,90.58842 -24.64978,20.95225 -40.67147,25.2658 -48.06638,12.94095 -8.62739,-11.09239 -2.46524,-28.04025 18.48707,-50.84122 40.30393,-43.86032 22.49393,-110.15285 -51.76379,-73.02393 -11.0924,-12.32484 -38.20788,-22.80055 -81.34489,-31.42802 9.85991,-23.41718 26.80778,-37.9002 50.84121,-43.44639 6.00838,-1.38655 12.43996,-2.29062 19.29566,-2.71429 5.14179,-0.31775 10.52134,-0.36446 16.13968,-0.1407 z m -95.52009,66.63716 c 34.50962,4.92993 62.85754,15.40571 85.0423,31.42802 -1.23252,14.78986 4.00535,15.40608 15.71401,1.8487 23.79342,-27.55027 55.52244,-11.93513 38.82285,24.03319 -8.01113,17.25479 -18.48692,32.35221 -31.42802,45.29332 -12.94112,12.94113 -16.02225,25.26734 -9.24354,36.97591 6.77867,11.70867 11.4003,22.49254 13.8653,32.35239 -1.23253,34.50962 1.23237,57.61793 7.39483,69.3265 6.16239,11.70867 40.05634,23.72671 101.68067,36.05156 -22.18479,2.465 -59.15979,24.03275 -110.9242,64.70475 -8.99392,7.06667 -18.45303,14.5793 -28.37711,22.53891 -37.74711,-19.62563 -65.26303,-51.78887 -82.54709,-96.48897 38.20709,-1.23247 55.46304,-17.87046 51.76557,-49.91508 -3.69747,-32.04466 -18.48858,-45.29339 -44.37074,-39.74721 -25.88224,5.54613 -38.82285,-5.23773 -38.82285,-32.35237 h 25.88189 v -12.94093 h -29.57931 v -12.94274 c 0,-7.39492 -6.16221,-14.17339 -18.48706,-20.33578 12.32485,-32.04463 24.03304,-54.22854 35.12543,-66.55345 12.32485,-6.1624 24.95738,-5.8543 37.89848,0.92436 12.94112,6.77866 25.57543,11.4003 37.90029,13.86529 v -9.24353 c -7.39493,0 -17.56434,-4.31355 -30.50545,-12.94094 -12.94105,-8.62739 -26.1898,-9.85989 -39.7472,-3.69742 4.93,-8.62747 9.24355,-16.02209 12.94095,-22.18448 z m 124.61853,26.52485 c -2.05464,-0.03 -4.45373,0.3534 -7.22386,1.20575 -16.31617,5.02023 -36.27394,36.05907 -28.65496,46.21768 -7.39492,3.69748 -11.70848,8.62719 -12.94094,14.78966 -1.2877,6.43853 5.41759,27.85913 34.20108,-0.92436 11.70858,-11.70859 19.10328,-22.80061 22.18447,-33.27672 4.59576,-15.62537 3.52923,-27.84991 -7.56579,-28.01201 z m -123.07261,8.00036 c -4.57367,0.16851 -8.78665,1.60158 -12.63817,4.29763 l -12.94094,12.94095 v 9.24354 h 5.54612 c 17.25485,8.62739 35.12519,8.62739 53.6125,0 l 20.33756,5.54612 v -11.09224 l -18.48885,-3.69742 C 707.49357,315.96053 695.6848,310.21397 685.6227,310.58465 Z m 120.39749,3.97527 c 3.2064,0.0217 4.4637,2.28654 3.77044,6.79284 -2.89214,18.79842 -18.36813,34.14161 -25.88189,37.89849 -4.9299,2.465 -4.9299,6e-5 0,-7.39482 4.92999,-7.39492 4.92999,-9.85974 0,-7.39484 -4.9299,2.465 -5.85436,0.30822 -2.77307,-6.47046 3.08119,-6.77867 7.70292,-13.24893 13.86531,-19.41143 4.85292,-2.69608 8.52535,-4.03663 11.01921,-4.01978 z m -123.79212,4.01978 c -2.46489,4.92989 -2.46489,9.85966 0,14.78965 -4.92989,-1.23249 -8.01103,-3.08121 -9.24354,-5.54612 0,-3.69749 3.08114,-6.77853 9.24354,-9.24353 z m 16.63837,1.8487 14.78965,12.94095 c -7.39492,1.2321 -14.17329,1.84872 -20.33577,1.84872 6.16279,-2.46501 8.0111,-7.39477 5.54612,-14.78967 z m -249.32253,49.3327 45.05822,27.15889 -150.88868,250.33238 c -3.53357,-4.83317 -7.31642,-9.42686 -11.3505,-13.77982 l -32.6498,-15.1334 z m 201.25614,179.90874 c 15.17609,47.86307 44.72727,85.49957 88.65245,112.9065 -23.96871,19.51153 -50.2549,41.24581 -78.85679,65.2052 C 648.8166,675.00751 631.37855,619.33583 608.27979,560.76387 Z M 604.58238,675.3837 c 9.57953,21.73819 17.67154,48.10337 24.27719,79.09367 -11.45807,9.67536 -23.24737,19.66903 -35.36943,29.98183 -14.79499,-6.60687 -28.9108,-12.65886 -42.34928,-18.22883 22.72422,-36.19935 42.37729,-68.6311 53.44152,-90.84667 z m 317.98118,20.33578 c 4.92993,51.7644 2.465,77.64746 -7.39486,77.64746 h -25.88189 c -19.71978,-1.23246 -28.9649,42.52101 -27.73239,131.25998 2e-5,18.48727 4.92976,27.7306 14.78966,27.7306 22.1847,103.52888 31.12171,189.80338 26.80803,258.82258 -4.31373,69.0192 -0.61643,124.4808 11.09222,166.3854 11.70861,41.9047 33.58449,67.7858 65.6291,77.6421 23.41727,-9.8597 36.35797,-11.3986 38.82297,-4.62 2.465,6.7787 -0.3081,12.9407 -8.3193,18.487 -8.011,5.5462 -7.395,11.7086 1.8487,18.4872 9.2438,6.7789 12.3248,12.3241 9.2437,16.6384 -3.0813,4.3151 -8.9353,4.007 -17.5628,-0.9226 -8.62733,-4.9299 -14.48155,-5.8543 -17.56281,-2.7732 -3.08118,3.0811 -1.84876,9.2431 3.69742,18.4871 5.54619,9.2438 6.77856,15.0972 3.69743,17.5627 -3.08117,2.4646 -8.93521,-0.6161 -17.56266,-9.2435 -8.62744,-8.6273 -11.09237,-7.395 -7.39485,3.6974 3.69743,11.0923 1.54072,18.7946 -6.47047,23.1089 -8.01119,4.3136 -12.94094,-0.6161 -14.78969,-14.7897 -1.84868,-14.1738 -5.54602,-16.9466 -11.09219,-8.3192 -5.54628,8.6274 -11.09229,9.5516 -16.63837,2.773 -5.54618,-6.7787 -1.54072,-15.0979 12.01656,-24.9575 -2.46501,-52.9967 -27.11564,-85.3501 -73.95005,-97.0588 -46.83447,-11.7087 -72.71582,-2.1574 -77.6457,28.6549 -4.93,30.8121 -10.16791,46.8359 -15.71401,48.0682 -5.54626,1.2325 -10.78411,-14.4829 -15.71401,-47.1438 -4.92991,-32.6608 -35.4347,-49.915 -91.51277,-51.7638 -56.07813,-1.8486 -87.81529,15.0973 -95.21018,50.8394 7.39489,16.0223 8.31925,26.5 2.77305,31.4298 -5.54618,4.9301 -9.85964,2.1569 -12.94095,-8.3191 -3.08119,-10.4753 -8.62726,-10.7839 -16.63836,-0.9244 -8.01118,9.86 -13.86522,14.1749 -17.56272,12.9427 -3.6975,-1.2324 -2.15693,-6.4718 4.62177,-15.7158 6.77868,-9.2437 8.31925,-16.0217 4.62177,-20.3357 -3.69747,-4.3132 -10.16774,-3.0811 -19.41143,3.6974 -9.24369,6.7745 -14.78966,8.9358 -16.63835,6.4705 -1.84873,-2.465 1.23235,-6.779 9.24353,-12.9409 8.01099,-6.1626 10.78407,-12.0163 8.31917,-17.5628 -2.46499,-5.5463 -8.01097,-7.3949 -16.63835,-5.5461 -8.62739,1.8488 -13.2487,0.9246 -13.86531,-2.773 -0.61619,-3.6977 4.3136,-6.4704 14.78966,-8.3193 10.47618,-1.8486 15.714,-6.1623 15.714,-12.941 0,-6.7788 -2.77296,-12.3242 -8.31917,-16.6383 -5.54578,-4.3138 -7.08666,-8.6278 -4.62176,-12.941 2.465,-4.3136 14.78935,2.773 36.97413,21.2603 33.27708,-1.2326 59.16015,-11.0921 77.64746,-29.5794 18.48725,-18.4873 33.89278,-47.4515 46.21769,-86.8909 12.32485,-39.4396 20.64384,-104.1446 24.95754,-194.1162 3.69309,-77.0268 2.41816,-148.4087 -3.82565,-214.14361 49.4205,-32.32253 114.69984,-78.23716 195.83826,-137.74648 15.7759,0.0883 32.19189,-0.93502 49.24723,-3.06693 z m -670.87583,2.29574 35.38902,27.28356 8.74664,1.40524 -12.843,21.30822 -45.05822,-27.1589 z m 646.84261,95.6875 c 8.62741,0 12.01663,18.48844 10.1679,55.463 -1.84873,36.97455 -8.62719,55.4612 -20.33578,55.4612 -11.70869,0 -15.09957,-18.48665 -10.16967,-55.4612 4.92993,-36.97456 11.71008,-55.46299 20.33755,-55.463 z" />
</svg>
