<?xml version="1.0" encoding="UTF-8" standalone="no"?>
<svg
   width="900"
   height="1000"
   id="svg3902"
   version="1.1"
   inkscape:version="1.4.2 (f4327f4, 2025-05-13)"
   sodipodi:docname="134E1.svg"
   xmlns:inkscape="http://www.inkscape.org/namespaces/inkscape"
   xmlns:sodipodi="http://sodipodi.sourceforge.net/DTD/sodipodi-0.dtd"
   xmlns="http://www.w3.org/2000/svg"
   xmlns:svg="http://www.w3.org/2000/svg"
   xmlns:rdf="http://www.w3.org/1999/02/22-rdf-syntax-ns#"
   xmlns:cc="http://creativecommons.org/ns#"
   xmlns:dc="http://purl.org/dc/elements/1.1/">
  <metadata
     id="metadata3912">
    <rdf:RDF>
      <cc:Work
         rdf:about="">
        <dc:format>image/svg+xml</dc:format>
        <dc:type
           rdf:resource="http://purl.org/dc/dcmitype/StillImage" />
      </cc:Work>
    </rdf:RDF>
  </metadata>
  <defs
     id="defs3910" />
  <sodipodi:namedview
     pagecolor="#ffffff"
     bordercolor="#666666"
     borderopacity="1"
     objecttolerance="10"
     gridtolerance="10"
     guidetolerance="10"
     inkscape:pageopacity="0"
     inkscape:pageshadow="2"
     inkscape:window-width="1680"
     inkscape:window-height="998"
     id="namedview3908"
     showgrid="false"
     fit-margin-top="0"
     fit-margin-left="0"
     fit-margin-right="0"
     fit-margin-bottom="0"
     inkscape:zoom="0.53386562"
     inkscape:cx="482.33112"
     inkscape:cy="502.93555"
     inkscape:window-x="-8"
     inkscape:window-y="-8"
     inkscape:window-maximized="1"
     inkscape:current-layer="svg3902"
     inkscape:showpageshadow="2"
     inkscape:pagecheckerboard="0"
     inkscape:deskcolor="#d1d1d1"
     showguides="true">
    <sodipodi:guide
       position="303.91543,66.244422"
       orientation="1,0"
       id="guide1"
       inkscape:locked="false" />
    <sodipodi:guide
       position="200,768.21192"
       orientation="0,-1"
       id="guide7"
       inkscape:locked="false" />
  </sodipodi:namedview>
  <path
     id="path5"
     style="fill:#000000;stroke:none;stroke-width:0.999996"
     d="M 623.91016 2.6168095e-07 C 620.44084 2.6168095e-07 616.67704 0.91504802 612.61133 2.6933596 C 603.74071 6.5941609 599.6575 10.320092 600.36719 13.865235 C 600.95856 16.848202 603.88878 18.289063 609.16211 18.289063 C 610.21651 18.289063 611.36938 18.231713 612.61133 18.289063 L 615.20898 18.289063 C 620.02655 18.289063 619.52285 20.2944 613.67969 24.28125 C 606.93797 28.870439 604.79931 40.414878 607.2832 58.869141 C 609.71028 76.898895 616.70699 86.803477 628.28125 88.570313 C 628.19515 89.143965 628.12332 89.368696 628.04297 89.712891 L 624.85156 97.16211 C 616.33575 107.80902 606.39339 122.7093 595.03906 141.86914 C 588.65211 153.93296 588.29372 161.03584 593.9707 163.16406 C 599.6481 165.28657 603.9094 168.1537 606.74805 171.68164 C 601.78079 173.11575 600.00069 175.23248 601.41992 178.06055 C 602.83926 180.87143 605.33853 182.66244 608.88672 183.4082 L 609.40234 183.4082 C 609.82689 183.4082 608.58097 184.71741 605.67773 187.29883 C 602.1297 190.51126 602.48979 193.15301 606.74805 195.28125 C 611.00622 197.40373 613.14453 203.09215 613.14453 212.31641 L 543.48047 260.64648 L 561.45312 287.01563 L 638.53125 229.11328 L 645.66797 229.11328 C 650.00472 229.11328 654.7687 229.11501 659.97266 228.54102 L 659.97266 228.87305 L 663.16406 259.73438 C 610.95832 269.88691 558.25356 286.83559 535.9707 315.00977 C 530.3965 322.05415 522.99506 330.3671 513.77344 339.93555 C 507.3541 335.69055 500.73207 331.46057 493.91602 327.25 C 470.65192 301.40115 451.63712 283.65499 436.87305 274.02344 L 527.98633 274.02344 L 527.98633 244.14453 L 481.09766 244.14453 C 476.52578 115.24824 380.32756 11.232422 261.34766 11.232422 C 142.36774 11.232422 46.171392 115.24824 41.599609 244.14453 L 0 244.14453 L 0 274.02344 L 79.904297 274.02344 C 75.706855 283.89019 77.456582 291.87477 85.158203 297.97266 C 93.674042 304.71302 103.95739 311.97585 116.02148 319.7832 C 128.08553 327.59055 147.60935 331.84923 174.57617 332.56055 C 220.70352 334.68306 259.91199 358.1102 292.20117 402.82031 C 324.49037 447.5247 364.76126 487.27623 413.01758 522.05078 C 452.15303 500.40704 489.05429 472.19421 523.70898 437.4082 C 547.5157 469.99139 575.58544 499.92825 607.91016 527.21094 C 617.70242 571.11794 625.37437 608.05383 614.10742 679.21484 L 475.19727 572.43164 C 447.43879 547.73914 423.01231 535.39648 402.00586 535.39648 C 343.11281 536.13338 317.11698 560.02349 323.86914 607.19727 L 353.86914 862.01172 C 323.12523 888.35588 309.52996 913.76176 312.99023 938.23828 L 320.13086 950.54883 L 313.20898 950.33203 C 292.95275 954.38586 274.37038 960.01983 257.49023 967.39063 C 240.98514 974.3932 224.36848 977.18122 207.48828 975.70703 C 190.60809 974.60138 178.74428 982.67836 171.99219 1000 L 448.27148 1000 L 447.94336 989.3125 C 479.55936 982.19128 518.13552 971.53291 563.66406 957.24023 C 671.02176 911.18685 729.56001 888.14063 739.38867 888.14063 C 755.26548 907.45343 755.26548 933.85939 739.38867 967.28516 C 713.68321 976.19882 704.68367 985.81955 712.24414 996.21875 C 728.87704 996.9617 746.19094 996.01125 764.33594 993.41406 C 782.48094 990.81412 796.14445 967.76393 805.2168 924.31055 C 814.28944 880.85666 819.35809 850.25297 820.49219 832.42578 C 821.62647 814.59864 813.9376 805.31315 797.30469 804.57031 C 812.4254 779.31516 813.11293 738.81144 799.50391 683.10156 C 796.72852 661.64156 795.75946 640.68246 796.21484 620 C 800.93022 566.48052 808.32744 525.23812 814.85937 495.96289 C 824.43965 453.0311 833.1392 421.99966 840.94531 402.83984 C 864.36401 355.29016 868.96836 315.90528 854.77539 284.68164 L 854.77539 168.64063 C 854.77539 67.156577 815.7453 16.427735 737.68359 16.427735 C 681.39102 16.427735 646.23883 35.866434 632.22656 74.759766 L 633.36914 69.673828 C 629.11091 63.994718 629.99154 56.532854 636.02344 47.308594 C 642.05548 38.078598 644.89785 29.742708 644.54297 22.291016 C 644.18733 14.839332 640.98731 8.8152586 634.95508 4.2031253 C 631.68759 1.7364392 628.01045 0.46289089 623.91016 0.46289089 L 623.91016 2.6168095e-07 z M 261.34766 31.232422 C 368.43218 31.232422 456.56681 125.12282 461.08594 244.14453 L 61.611328 244.14453 C 66.130362 125.12282 154.26312 31.232422 261.34766 31.232422 z M 737.68359 37.279297 C 802.26194 37.279297 834.54883 80.911018 834.54883 168.19727 L 834.54883 269.32227 L 774.94336 269.32227 L 774.94336 348.10156 L 740.87305 348.10156 L 740.87305 185.23438 C 759.32407 173.87615 768.38601 155.6165 768.03125 130.42188 C 767.79031 113.39027 761.13883 104.86719 748.08203 104.86719 C 741.82947 104.86719 734.09975 106.80636 724.9082 110.71289 C 715.68271 96.52083 690.49567 84.814107 649.33594 75.589844 C 661.40002 50.039568 690.84652 37.279297 737.68359 37.279297 z M 650.81055 101.91797 C 656.37431 101.91797 662.09056 103.41279 667.95703 106.45313 C 678.95667 112.13224 690.13775 115.66915 701.49219 117.0918 L 701.49219 112.85156 C 709.29834 116.40818 716.04154 121.72233 721.71875 128.81836 C 729.95066 124.86019 736.5413 122.86328 741.48047 122.86328 C 748.8892 122.86328 752.58008 127.32819 752.58008 136.26563 C 752.58008 151.16901 742.29861 162.17156 721.71875 169.26758 L 721.71875 369.39648 L 722.78711 369.39648 C 697.2394 389.26765 667.07378 415.50995 632.30078 448.15625 C 624.81624 437.38315 616.20934 426.71662 606.4707 416.13281 C 604.93908 395.87157 605.02533 374.97017 606.74805 353.42969 C 583.32952 313.68738 610.65498 287.78257 688.7168 275.71875 L 689.78516 275.71875 C 688.48928 234.89798 678.61044 214.49219 660.1582 214.49219 C 658.40056 214.49219 656.5571 214.48849 654.64453 215.0625 C 650.51999 215.8656 646.84777 216.26172 643.62109 216.26172 C 629.63863 216.26172 624.0896 208.78227 626.97266 193.78711 C 641.16556 186.69109 646.30736 181.18791 642.4043 177.28711 C 638.50124 173.3863 631.23675 171.42383 620.5918 171.42383 C 621.30148 165.03913 616.33996 159.71351 605.69531 155.45703 C 616.34008 132.04073 626.62332 115.37503 636.55859 105.43945 C 641.19482 103.08749 645.94229 101.93749 650.81055 101.9375 L 650.81055 101.91797 z M 652.37891 107.92969 L 652.37891 107.98438 C 648.30953 107.98438 644.45181 108.91505 640.81836 110.69336 L 631.23047 119.20898 L 631.23047 126.66016 L 636.55859 125.57227 C 642.9455 128.78469 649.7691 130.32813 657.04297 130.32813 C 664.31688 130.32813 672.03817 128.72734 680.19922 125.57227 L 697.23242 130.90039 L 697.23242 121.3125 L 681.26758 120.22461 C 670.65125 112.02147 661.02663 107.92969 652.37891 107.92969 z M 650.40625 112.83203 L 650.40625 112.84961 C 648.27742 117.09461 648.27742 120.64872 650.40625 123.48828 L 640.81836 120.2793 C 642.2376 116.72267 645.43866 114.24894 650.40625 112.83203 z M 662.11133 114.9707 L 675.93945 123.49023 C 670.97166 124.1786 665.64999 124.57617 659.97266 124.57617 C 664.23088 122.45366 664.95027 119.2528 662.11133 115.00781 L 662.11133 114.9707 z M 633.73828 152.35938 L 633.73828 152.36133 L 633.73828 152.71094 C 633.61781 152.71094 633.49538 152.73487 633.36914 152.76367 C 631.94995 153.33733 631.23047 154.36772 631.23047 156.49023 C 631.23047 158.61272 630.35044 160.04014 628.57617 160.72852 L 627.50781 160.72852 C 626.08858 160.72852 624.66786 159.5927 623.24805 157.35547 C 621.82881 155.06087 620.53257 153.96289 619.33984 153.96289 L 618.45312 153.96289 C 616.32432 153.96289 614.90546 154.53578 614.19531 155.56836 C 613.48569 156.60092 613.48569 157.87643 614.19531 159.31055 C 615.09188 158.1059 616.06748 157.52148 617.08984 157.52148 C 618.49526 157.52148 620.01863 158.67683 621.66211 160.91406 C 623.74388 163.78231 626.00141 165.21094 628.46484 165.21094 C 629.3603 165.21094 630.28451 165.21264 631.23047 164.63867 C 634.77842 163.20455 636.37849 160.74031 636.02344 157.18945 C 635.70215 153.97701 634.94063 152.35938 633.73828 152.35938 z M 615.66992 174.57813 C 616.82296 174.57813 618.46307 175.16536 620.5918 175.68164 C 623.43021 176.37003 627.33323 176.94292 632.30078 177.28711 C 637.2686 177.86075 639.3874 178.14489 638.67773 178.89063 L 615.26562 179.97852 C 613.84638 178.5444 613.32517 177.11307 613.67969 175.73633 C 613.85749 175.04795 614.51688 174.65039 615.66992 174.65039 L 615.66992 174.57813 z M 636.55859 182.04297 C 635.84892 183.47709 633.7283 184.67763 630.17969 185.76758 C 626.6318 186.85749 623.43044 187.71593 620.5918 188.4043 C 619.74001 188.4043 619.00557 188.97461 618.38086 188.97461 C 617.44411 188.97461 616.75964 188.40153 616.33398 188 C 615.62437 186.91002 615.98394 185.70756 617.4043 184.27344 L 636.55859 182.04297 z M 333.70312 273.08203 L 358.79492 273.59961 C 363.91852 284.63052 379.02227 284.90735 389.25 284.7168 C 394.92716 284.7168 399.6429 285.29382 403.42773 286.1543 C 408.64032 288.78785 407.92171 292.39973 401.84375 292.81055 C 368.649 295.05419 360.53011 294.03342 333.70312 273.08203 z M 142.45898 273.59961 C 151.05973 279.11483 160.97687 277.2735 170.57617 277.26953 C 174.23875 277.30483 185.47499 276.15736 184.16211 282.65234 C 165.74834 299.07713 133.51676 285.24608 117.01758 273.61719 L 142.45898 273.59961 z M 304.74609 273.59961 C 304.64556 273.63231 304.54537 274.15536 304.44531 274.17188 L 304.44336 274.17188 C 298.05652 285.17445 298.93667 294.21258 307.09766 301.30859 C 315.25866 308.40461 325.19891 316.02644 336.9082 324.18945 C 348.61745 332.34673 367.96293 337.49286 394.92969 339.62109 C 425.41876 342.89089 452.40871 355.19191 475.92187 376.45703 C 459.23904 392.00289 439.69179 409.54114 417.27539 429.05664 C 385.34103 389.31431 337.4488 350.9887 273.58008 314.08594 C 256.13848 296.6413 241.02137 283.15927 228.26367 273.63672 L 304.74609 273.59961 z M 833.48047 348.10156 C 834.19015 348.78994 826.38645 367.07828 810.06445 402.91406 C 794.30297 437.52479 773.63095 516.8407 765.81055 633.17188 C 735.03942 643.36298 686.11694 660.65489 635.03906 683.76563 C 643.85083 620.67302 644.35784 577.8175 632.41016 535.39844 C 692.65058 503.97974 759.67128 441.5488 833.48047 348.10156 z M 578.00391 374.70703 C 577.84328 379.12411 577.80043 383.64604 577.875 388.18359 C 575.84888 386.40527 573.79257 384.57911 571.69922 382.80078 C 573.81264 380.16202 575.90948 377.45479 578.00391 374.70703 z M 398.04883 601.15234 L 443.65625 601.15234 L 592.12695 706.96484 C 531.44209 738.95859 475.30069 777.47971 419.25977 816.12109 C 422.16899 721.37932 415.77088 632.62726 398.04883 601.15234 z M 769.125 660.43359 L 771.14844 686.44922 C 786.26926 736.95952 784.78974 777.4612 766.64453 807.91602 C 716.74579 836.14232 656.61454 853.93529 586.30273 861.36328 C 515.99092 868.79127 456.31265 894.41306 407.16992 938.23828 C 435.14346 871.3863 459.46086 827.97155 480.25195 807.91602 C 512.89048 776.43209 641.52848 693.06189 769.125 660.43359 z " />
</svg>
