<?xml version="1.0" encoding="UTF-8" standalone="no"?>
<svg
   width="15.193479"
   height="17.983217"
   version="1.1"
   id="svg1"
   sodipodi:docname="134EE.svg"
   inkscape:version="1.4.2 (f4327f4, 2025-05-13)"
   xmlns:inkscape="http://www.inkscape.org/namespaces/inkscape"
   xmlns:sodipodi="http://sodipodi.sourceforge.net/DTD/sodipodi-0.dtd"
   xmlns="http://www.w3.org/2000/svg"
   xmlns:svg="http://www.w3.org/2000/svg">
  <defs
     id="defs1" />
  <sodipodi:namedview
     id="namedview1"
     pagecolor="#ffffff"
     bordercolor="#666666"
     borderopacity="1.0"
     inkscape:showpageshadow="2"
     inkscape:pageopacity="0.0"
     inkscape:pagecheckerboard="0"
     inkscape:deskcolor="#d1d1d1"
     inkscape:zoom="20.991794"
     inkscape:cx="0.11909416"
     inkscape:cy="9.5989889"
     inkscape:window-width="1680"
     inkscape:window-height="998"
     inkscape:window-x="-8"
     inkscape:window-y="-8"
     inkscape:window-maximized="1"
     inkscape:current-layer="svg1" />
  <path
     id="path1"
     style="fill:#000000;stroke:none"
     d="M 1.1289062,0 V 3.043 H 1.5097656 L 2.6386719,1.7089844 H 13.865234 l 0.960938,1.3342265 h 0.365234 V 0 Z M 15.054688,3.1425781 C 14.830979,3.6001661 14.546905,3.926712 14.201172,4.125 13.855439,4.3232887 13.625527,4.2663992 13.513672,3.9511719 13.442491,3.6766186 13.310391,3.5191906 13.117188,3.4785156 13.218874,4.0174536 13.331102,4.4698675 13.453125,4.8359375 13.229415,6.0256668 13.077444,6.9702397 12.996094,7.671875 11.91822,7.732887 11.069506,7.8396582 10.449219,7.9921875 10.22551,7.7888148 9.792967,7.5951447 9.1523438,7.4121094 V 6.9101562 C 9.406559,6.818639 9.6508876,6.6304251 9.8847656,6.3457031 10.118645,6.0609818 10.234375,5.6681846 10.234375,5.1699219 c 0,-0.4982627 -0.218999,-0.8329927 -0.65625,-1.0058594 C 9.1408743,3.9911955 8.6459876,3.9432663 8.0917969,4.0195312 7.5376069,4.095796 7.1494912,4.5037838 6.9257812,5.2460938 6.7834206,5.4189598 6.6294949,5.6543281 6.4667969,5.9492188 c -0.091518,0.1932039 -0.096974,0.3027037 -0.015625,0.328125 0.081349,0.025421 0.148376,0.062438 0.1992187,0.1132812 -0.061012,0.040675 -0.083613,0.079644 -0.068359,0.1152344 0.015253,0.03559 0.048766,0.05819 0.099609,0.068359 0.00254,-0.00127 0.00435,-0.00148 0.00586,-0.00195 v -0.00195 h 0.00195 v 0.00195 0.00195 c -0.00483,0.00679 -0.021136,0.022042 -0.046875,0.044922 -0.022879,0.020337 -0.03311,0.041481 -0.029297,0.060547 0.00514,0.0178 0.024135,0.038005 0.052734,0.054687 0.061012,0.035591 0.091797,0.1396333 0.091797,0.3125 0,0.162698 0.1067718,0.2386843 0.3203125,0.2285156 0.1728673,0.010169 0.3049671,0.00121 0.3964844,-0.029297 l 0.029297,0.1972656 C 7.0361496,7.5145401 6.5747762,7.6918412 6.1171875,7.9765625 5.5579128,7.8240332 4.6675003,7.7028461 3.4472656,7.6113281 3.3557476,6.9096928 3.1983187,5.9596636 2.9746094,4.7597656 3.1068014,4.3936956 3.2190296,3.9447843 3.3105469,3.4160156 3.1173429,3.4465216 2.9852425,3.6039506 2.9140625,3.8886719 2.8022072,4.2038992 2.5722958,4.2627411 2.2265625,4.0644531 1.8808292,3.8661644 1.5967562,3.5649478 1.3730469,3.1582031 1.2306862,3.1887091 1.1971728,3.3098968 1.2734375,3.5234375 c 0.076265,0.2135413 0.2029087,0.4216273 0.3808594,0.625 0.1779513,0.2033727 0.4359197,0.4367879 0.7714843,0.7011719 -0.091518,1.2202353 -0.035404,2.3658877 0.1679688,3.4335937 0.5186,0.2033727 1.2188449,0.3697612 2.1035156,0.5019531 0.88467,0.1321921 1.3787821,0.3313185 1.4804688,0.5957032 L 6.1621094,9.3652344 C 6.2231214,10.036363 6.3154767,10.496963 6.4375,10.746094 6.5595233,10.995225 6.818267,12.110867 7.2148438,14.09375 L 4.5761719,12.140625 c -0.396576,-0.355902 -0.7422187,-0.533203 -1.0371094,-0.533203 -0.843996,0.01017 -1.2095109,0.355811 -1.0976563,1.037109 l 0.4414063,3.171875 C 2.2523578,15.979103 1.9573729,16.462303 1.9980469,17.265625 1.7133256,17.316468 1.4491254,17.395182 1.2050781,17.501953 0.96103146,17.608723 0.71670358,17.655878 0.47265625,17.640625 0.22860958,17.625372 0.07118067,17.738375 0,17.982422 h 12.705078 c -0.264385,-0.508431 -0.635356,-0.708334 -1.113281,-0.601563 -0.477925,0.106771 -0.803696,-0.104043 -0.976563,-0.632812 -0.172867,-0.528768 -0.462395,-0.640997 -0.8691402,-0.335938 0.3864082,-0.742311 0.4082332,-1.520495 0.0625,-2.333984 0.020337,-1.769341 0.2030952,-3.351039 0.5488282,-4.7441406 V 9.3203124 C 10.448942,9.0762651 10.921226,8.9024672 11.775391,8.8007811 12.629556,8.6990944 13.315385,8.5272497 13.833984,8.283203 14.037357,7.2663403 14.093473,6.1425133 14.001953,4.9121093 14.337518,4.6578933 14.595486,4.4252535 14.773438,4.2167968 14.951388,4.0083401 15.078027,3.7885661 15.154297,3.5546874 15.230557,3.3208094 15.197047,3.183675 15.054687,3.143 Z M 1.5097656,0.36523438 H 14.826172 V 2.4101562 L 14.0625,1.3417969 H 2.4414062 L 1.5097656,2.4101562 Z m 7.734375,3.98242182 c 0.477926,0.1220233 0.7167969,0.4006394 0.7167969,0.8378907 0,0.4372513 -0.1601568,0.8082225 -0.4804687,1.1132812 C 9.1601568,6.6038868 8.9528454,6.6853301 8.8613281,6.5429688 8.7698101,6.4107768 8.8512527,6.2190591 9.1054688,5.9648438 9.359684,5.7106278 9.423983,5.4608436 9.296875,5.2167969 9.1697677,4.9727496 8.8919258,4.9528773 8.4648438,5.15625 8.3224824,4.993552 7.9822967,4.8704118 7.4433594,4.7890625 7.5450454,4.5246785 7.7504036,4.3555616 8.0605469,4.2792969 8.4142738,4.1923148 8.8280792,4.241428 9.2441406,4.3476562 Z m -1.9375,0.6855469 c 0.4372507,0.030505 0.7918536,0.1427335 1.0664063,0.3359375 -0.00381,0.061012 0.00385,0.09979 0.021484,0.1171875 l 0.00195,0.00195 c 8.093e-4,5.735e-4 0.00501,0.00341 0.00586,0.00391 l 0.00195,0.00195 c 9.21e-4,3.463e-4 0.0049,0.00168 0.00586,0.00195 0.032852,0.00643 0.088704,-0.027489 0.1621094,-0.1035157 C 8.7146263,5.2451334 8.8576393,5.2007068 9,5.2617188 9.1423607,5.3227301 9.1622336,5.4548304 9.0605469,5.6582031 8.9588616,5.8615758 8.829489,6.0353737 8.671875,6.1777344 8.514261,6.3200951 8.4752913,6.4603795 8.5566406,6.5976562 8.6379899,6.7349329 8.6995604,6.8533921 8.7402344,6.9550781 V 7.703125 C 9.3503517,7.8861603 9.7267799,8.0272203 9.8691406,8.1289062 10.011502,8.2305929 9.9807165,8.7952343 9.7773438,9.8222656 9.5739711,10.849297 9.4219985,12.279022 9.3203125,14.109375 L 7.8867188,14.429688 C 7.3071074,12.019722 6.9587362,10.713139 6.8417969,10.509766 6.7248576,10.306393 6.6270463,9.8321531 6.5507812,9.0898438 6.4745165,8.3475338 6.9351153,7.8861603 7.9316406,7.703125 c 0,-0.457588 -0.1737979,-0.665674 -0.5195312,-0.625 C 7.0663764,7.1187997 6.9198601,7.0011152 6.9707031,6.7265625 7.1842444,6.6147072 7.2602307,6.5305361 7.1992188,6.4746094 7.1382074,6.4186814 7.0259799,6.3851687 6.8632812,6.375 c 0,-0.091517 -0.081443,-0.1675036 -0.2441406,-0.2285156 0.162698,-0.3660707 0.3201263,-0.6139018 0.4726563,-0.7460938 0.1525293,-0.081349 0.3119114,-0.084077 0.4746093,-0.00781 0.162698,0.076265 0.3236302,0.1296496 0.4863282,0.1601563 V 5.4453125 C 7.9408791,5.4351438 7.8052761,5.3872145 7.6425781,5.3007812 7.4798801,5.2143479 7.3115386,5.2007068 7.1386719,5.2617188 7.2098526,5.160032 7.2659659,5.0840458 7.3066406,5.0332031 Z m 1.5605469,0.2753907 c -0.021926,0.00191 -0.047526,0.008 -0.074219,0.015625 -0.1067713,0.030505 -0.2053578,0.1092201 -0.296875,0.2363281 -0.091518,0.127108 -0.1168466,0.225695 -0.076172,0.296875 -0.081349,0.040675 -0.129278,0.09406 -0.1445313,0.1601562 -0.015253,0.066096 0.012804,0.1140253 0.083984,0.1445313 C 8.4305563,6.1926154 8.5400553,6.1392298 8.6875,6.0019531 8.8349453,5.8646764 8.9308038,5.740761 8.9765625,5.6289062 9.0223212,5.5170515 9.030506,5.4301526 9,5.3691406 8.9771205,5.3233816 8.9329655,5.3028735 8.8671875,5.3085938 Z M 7.3339844,5.4140625 C 7.275197,5.41585 7.2188119,5.4323383 7.1679688,5.4609375 L 7.015625,5.5976562 v 0.1074219 h 0.076172 c 0.203372,0.101686 0.4278277,0.101686 0.671875,0 L 8.0078125,5.75 V 5.6289062 L 7.7792969,5.5976562 C 7.6115144,5.4718199 7.4633167,5.4101301 7.3339844,5.4140625 Z m 1.4863281,0.039063 c 0.052035,-0.00357 0.073986,0.022151 0.064453,0.076172 -0.015253,0.086433 -0.054998,0.1733326 -0.1210937,0.2597656 -0.066096,0.086433 -0.1331228,0.1425468 -0.1992188,0.1679687 -0.016524,0.00636 -0.028847,0.00813 -0.037109,0.00781 -9.037e-4,-1.441e-4 -0.00508,2.482e-4 -0.00586,0 l -0.00195,-0.00195 h -0.00195 v -0.00195 l -0.00195,-0.00195 v -0.00195 -0.00195 c 0,-8.739e-4 -1.291e-4,-0.00293 0,-0.00391 0.00361,-0.015154 0.019911,-0.042535 0.048828,-0.078125 0.030983,-0.038133 0.046892,-0.065406 0.048828,-0.080078 v -0.00195 -0.00195 -0.00195 -0.00195 -0.00195 H 8.61134 L 8.609375,5.78125 H 8.607425 C 8.605615,5.7809621 8.599985,5.77917 8.597655,5.7793 8.589905,5.78031 8.576845,5.7843 8.564452,5.78907 8.543797,5.79701 8.527805,5.79887 8.517577,5.79688 8.5166585,5.7965821 8.512527,5.79532 8.511717,5.79493 H 8.509767 V 5.79298 H 8.507817 V 5.79103 H 8.505867 V 5.78908 c -3.972e-4,-7.944e-4 -0.00166,-0.00301 -0.00195,-0.00391 -1.886e-4,-9.93e-4 8.45e-5,-0.00477 0,-0.00586 C 8.5041553,5.76501 8.512097,5.741503 8.527355,5.712904 8.56803,5.636639 8.62219,5.5614278 8.6933706,5.4902478 c 0.053385,-0.02288 0.095732,-0.034964 0.1269531,-0.037109 z m -1.5292969,0.052734 c -0.030506,0.050843 -0.030506,0.1015004 0,0.1523437 -0.061012,-0.010169 -0.1062127,-0.030041 -0.1367187,-0.060547 0.020337,-0.040674 0.065538,-0.071459 0.1367187,-0.091797 z m 0.1835938,0.03125 0.1972656,0.1074218 c -0.07118,0.020337 -0.1471666,0.029297 -0.2285156,0.029297 0.061012,-0.030506 0.071925,-0.075708 0.03125,-0.1367188 z m 0.9296875,0.4277344 c 0.037815,0.021608 0.059642,0.042326 0.064453,0.0625 6.753e-4,0.00473 0.00115,0.01293 0,0.017578 -0.00362,0.010412 -0.012521,0.023192 -0.025391,0.033203 -0.045759,0.035586 -0.079272,0.032862 -0.099609,-0.00781 -0.020337,-0.040675 -4.641e-4,-0.074963 0.060547,-0.1054687 z m -1.34375,0.1484374 -0.00195,0.00195 h -0.00195 l -0.00195,0.00195 c -9.531e-4,6.356e-4 -0.00301,0.00124 -0.00391,0.00195 l -0.00195,0.00195 -0.00195,0.00195 c -0.00858,0.01144 -0.015625,0.031808 -0.015625,0.054687 0,0.013346 -0.00295,0.024722 -0.00781,0.033203 -0.00636,0.0089 -0.016586,0.016991 -0.029297,0.019531 -0.025422,0.00509 -0.056207,-0.00933 -0.091797,-0.044922 -0.035591,-0.035591 -0.063647,-0.054687 -0.083984,-0.054687 -0.020337,0 -0.036706,0.00546 -0.046875,0.015625 v 0.00195 c -4.767e-4,7.944e-4 -0.00351,0.00499 -0.00391,0.00586 -3.178e-4,9.533e-4 -0.00171,0.00483 -0.00195,0.00586 -0.00159,0.011122 -4.963e-4,0.027809 0.00586,0.046875 0.030506,-0.030506 0.069476,-0.016865 0.1152344,0.039063 0.045759,0.055927 0.09096,0.069568 0.1367187,0.039062 0.045759,-0.030506 0.06758,-0.069475 0.0625,-0.1152343 C 7.083732,6.149886 7.080362,6.134297 7.076182,6.124982 7.0755464,6.123872 7.072952,6.120012 7.072272,6.119122 L 7.070322,6.117172 7.068372,6.115222 H 7.066422 L 7.064472,6.113272 H 7.0625 Z M 6.7890625,6.4472656 c 0.016524,-0.00254 0.038443,-0.00118 0.066406,0.00391 0.055927,0.010169 0.1202252,0.021081 0.1914062,0.03125 0.07118,0.010173 0.1019659,0.015625 0.091797,0.015625 H 6.7871094 c -0.00763,0 -0.014447,-6.82e-4 -0.019531,-0.00195 -0.00111,-3.973e-4 -0.00491,-0.00148 -0.00586,-0.00195 l -0.00195,-0.00195 -0.00195,-0.00195 -0.00195,-0.00195 -0.00195,-0.00195 v -0.00195 -0.00195 -0.00195 c 4.767e-4,-0.0031 0.002,-0.00986 0.00391,-0.013672 6.356e-4,-0.00127 0.00114,-0.00275 0.00195,-0.00391 0.00596,-0.0062 0.016904,-0.013718 0.029297,-0.015625 z m 0.3339844,0.095703 c -0.020337,0.020338 -0.059306,0.042163 -0.1152344,0.0625 -0.055927,0.020337 -0.0984,0.034753 -0.1289063,0.044922 -0.030505,0 -0.05306,-0.00509 -0.066406,-0.013672 -9.93e-4,-7.746e-4 -0.00499,-0.00307 -0.00586,-0.00391 -7.547e-4,-8.937e-4 -0.00327,-0.00491 -0.00391,-0.00586 -4.767e-4,-9.731e-4 -0.00164,-0.00487 -0.00195,-0.00586 -1.588e-4,-0.00101 -0.00195,-0.00483 -0.00195,-0.00586 3.178e-4,-0.00211 9.999e-4,-0.00758 0.00195,-0.00977 0.00508,-0.0089 0.017951,-0.021082 0.033203,-0.03125 z M 3.4921875,12.552734 h 0.65625 l 2.9296875,2.044922 -3.2949219,0.990235 c 0.071181,-1.525294 -0.026631,-2.536894 -0.2910156,-3.035157 z m 5.9042969,1.90625 c 0.2237107,0.864333 0.086154,1.61719 -0.4121094,2.257813 -0.7321413,0.427083 -1.6280102,0.491381 -2.6855469,0.191406 -1.0575373,-0.299974 -2.0582235,-0.237629 -3.0039062,0.189453 0.091518,-0.335565 0.8751586,-0.889293 2.3496093,-1.662109 z"
     sodipodi:nodetypes="ccccccccccscccccccssssccscsccccccscssccccccccscssccsccsccccccssccssccccsccscccscccccscscssccsscscccccsssssccssccsscscscccsccsccssscsssssssscccccccsscsscccccccscsccccccccccsccccccccccscsccccccccccccsccccccccsccsscccccsscccccccccssccscccccccccscscsccccccccccccccccscccsccc" />
</svg>
