<?xml version="1.0" encoding="UTF-8" standalone="no"?>
<svg
   width="1000"
   height="1000"
   version="1.1"
   id="svg1"
   sodipodi:docname="134E6.svg"
   inkscape:version="1.4.2 (f4327f4, 2025-05-13)"
   xmlns:inkscape="http://www.inkscape.org/namespaces/inkscape"
   xmlns:sodipodi="http://sodipodi.sourceforge.net/DTD/sodipodi-0.dtd"
   xmlns="http://www.w3.org/2000/svg"
   xmlns:svg="http://www.w3.org/2000/svg">
  <defs
     id="defs1" />
  <sodipodi:namedview
     id="namedview1"
     pagecolor="#ffffff"
     bordercolor="#666666"
     borderopacity="1.0"
     inkscape:showpageshadow="2"
     inkscape:pageopacity="0.0"
     inkscape:pagecheckerboard="0"
     inkscape:deskcolor="#d1d1d1"
     inkscape:zoom="8.5418499"
     inkscape:cx="533.54953"
     inkscape:cy="261.47732"
     inkscape:window-width="1680"
     inkscape:window-height="998"
     inkscape:window-x="-8"
     inkscape:window-y="-8"
     inkscape:window-maximized="1"
     inkscape:current-layer="svg1"
     showguides="true">
    <sodipodi:guide
       position="531.18778,993.3665"
       orientation="1,0"
       id="guide1"
       inkscape:locked="false" />
  </sodipodi:namedview>
  <path
     id="path4"
     style="baseline-shift:baseline;display:inline;overflow:visible;opacity:1;vector-effect:none;fill:#000000;enable-background:accumulate;stop-color:#000000;stop-opacity:1"
     d="m 419.60938,0 3.15624,11.894531 C 418.6714,9.0396611 414.48399,8.2876596 410.20312,9.6386719 377.0271,46.127177 361.08366,74.501482 362.37305,94.759766 c 1.2894,20.258284 1.77145,42.887914 1.44531,67.888674 -60.16559,29.07169 -132.14147,79.76738 -189.5918,126.125 0,0 20.92319,38.93008 53.08789,61.30273 32.16474,22.37265 59.85017,41.03887 83.05469,56 23.2045,14.96112 31.95187,29.13888 44.66406,58.19531 -1.21067,55.08613 2.57214,90.04605 11.34961,104.87696 8.77743,14.83087 29.81361,81.26687 63.10742,199.30859 L 273.3125,652.23047 c -23.60834,-21.18697 -44.49405,-31.7793 -62.6543,-31.7793 -49.63808,0.60535 -71.12754,21.18622 -64.46875,61.74414 l 25.42578,188.86719 c -37.53123,10.29086 -54.78453,39.04505 -51.75781,86.26172 -17.55493,3.02668 -33.444402,7.71812 -47.66992,14.07422 -14.225555,6.35613 -28.602646,9.07988 -43.130859,8.17187 C 14.528429,978.6623 4.8427375,985.47183 0,1000 h 756.375 c -15.73891,-30.26713 -37.83405,-42.22328 -66.28516,-35.86719 -28.45104,6.35614 -47.67003,-6.20385 -57.6582,-37.68164 -9.98813,-31.47779 -27.089,-38.13677 -51.30273,-19.97656 23.00291,-44.18995 23.90962,-90.49845 2.72265,-138.92578 0.60535,-39.34725 3.02824,-74.76049 7.26563,-106.23828 36.92589,10.29064 70.52197,13.92305 100.78906,10.89648 30.26713,-3.02668 42.82703,-17.25139 37.68164,-42.67578 -5.14547,-25.42435 -31.02345,-90.19756 -77.63477,-194.31641 -15.73887,-32.68846 -47.51977,-49.03125 -95.34179,-49.03125 v -44.49414 c 16.34419,-6.65875 32.08323,-19.06822 47.21679,-37.22851 15.13358,-18.16025 22.70118,-43.28014 22.70118,-75.36328 0,-32.08315 -14.22667,-53.57457 -42.67774,-64.47071 -7.21167,-2.76192 -14.69032,-4.80408 -22.27148,-6.57422 h 39.24804 L 642.76562,0 H 531.1875 Z m 32.5,25 h 79.07812 79.08008 L 581.59766,133.05273 H 531.1875 480.7793 Z m -24.61524,4.714844 5.13672,19.357422 c -6.75536,0.822763 -10.66893,7.841902 -11.74024,21.05664 -1.17034,14.43662 -9.12764,29.458382 -23.87109,45.066404 -2.42111,-22.266385 -0.52428,-39.825843 5.68945,-52.679685 5.98532,-12.381367 14.2478,-23.31425 24.78516,-32.800781 z m 8.31641,31.34375 25.73633,96.994136 h 15.23828 c -27.48043,8.98184 -47.78699,34.4793 -60.91602,76.49219 -8.47477,10.89617 -18.15851,25.72659 -29.05469,44.49219 -5.44805,12.71219 -5.60047,19.82453 -0.45507,21.33789 5.14539,1.51337 9.53394,3.78387 13.16601,6.81055 -4.23739,3.02672 -6.05259,5.60004 -5.44727,7.71875 0.60536,2.11867 2.72343,3.48058 6.35547,4.08593 1.81605,-0.60535 1.21032,0.6061 -1.8164,3.63282 -3.02672,3.02672 -2.57145,5.59808 1.36328,7.71679 3.93473,2.11867 5.90234,8.62726 5.90234,19.52344 0,10.29079 5.75047,15.43555 17.25196,15.43555 13.31755,0 23.00323,-0.60574 29.05664,-1.81641 l 3.63086,28.14844 c -17.55493,-6.65875 -43.28251,-10.59398 -77.18165,-11.80469 -38.8195,-30.47407 -72.98463,-54.75836 -124.05859,-89.27539 37.34433,-23.10759 67.33453,-48.45162 146.32422,-122.80273 24.63824,-40.29744 36.27158,-75.859917 34.9043,-106.689456 z m 66.83203,109.017576 c 16.91173,-1.13502 36.71762,1.13545 59.41797,6.81055 30.26709,7.56676 45.40039,25.57428 45.40039,54.02539 0,27.84572 -10.13902,51.45522 -30.41797,70.82617 -20.27896,19.37095 -33.14371,24.81856 -38.5918,16.34375 -6.65871,-9.08013 -1.66447,-21.79249 14.98242,-38.13672 16.64689,-16.34423 20.73259,-32.38609 12.25782,-48.125 -8.47481,-15.73888 -26.3319,-16.94837 -53.57227,-3.63086 -9.08012,-10.29083 -30.87243,-18.16132 -65.37695,-23.60937 6.65876,-16.94958 19.97682,-27.6943 39.95312,-32.23438 4.99407,-1.13502 10.31002,-1.89119 15.94727,-2.26953 z m -64.98047,49.93945 c 28.45111,1.81606 51.45487,9.08078 69.00977,21.79297 -0.60531,10.89614 3.78323,11.50188 13.16601,1.81641 9.38282,-9.68547 18.46281,-12.56168 27.24023,-8.62695 8.77752,3.93469 9.83653,12.41089 3.17774,25.42578 -6.65875,13.01485 -14.98257,24.06246 -24.9707,33.14258 -9.98817,9.08013 -12.25864,18.16007 -6.81055,27.24023 5.44809,9.08013 9.08046,16.94867 10.89648,23.60742 -0.60531,48.42737 3.32992,73.0959 11.80469,74.00391 8.47481,0.90801 25.12241,1.51372 49.94141,1.81641 24.81904,0.30264 25.72567,31.93112 2.72265,94.88671 -11.50149,30.87247 -19.06715,59.32396 -22.69922,85.35352 l -23.60937,-4.54102 c -15.73891,-31.47779 -42.67595,-58.41483 -80.8125,-80.8125 -7.26411,7.2641 -5.74981,16.64695 4.54102,28.14844 l -17.25391,37.22852 c -1.81602,14.52821 3.9364,26.02913 17.25391,34.5039 19.37095,8.47481 40.25467,13.62148 62.65234,15.4375 l 29.05664,18.16016 c -4.23738,26.02967 -6.96117,66.28481 -8.17187,120.76562 l -85.35352,19.06836 c -44.18999,-143.46611 -70.6737,-221.25252 -79.45117,-233.35937 -8.77747,-12.10685 -11.35082,-47.52012 -7.71875,-106.23828 0,-33.29385 15.88947,-46.4595 47.66992,-39.49805 31.78045,6.96141 47.97473,-0.15092 48.58008,-21.33789 0,-26.63506 -11.20003,-38.74364 -33.59766,-36.32227 -22.39767,2.42137 -31.78047,-4.84143 -28.14844,-21.79101 13.31755,-7.86946 18.00899,-13.46945 14.07422,-16.79883 -3.93469,-3.32937 -11.04706,-5.29699 -21.33789,-5.90234 0,-6.05341 -5.14472,-11.19817 -15.43555,-15.43555 10.29083,-23.00303 20.27938,-39.04488 29.96485,-48.125 9.68547,-4.84274 19.82448,-4.84274 30.41797,0 10.59352,4.84273 21.03538,8.47511 31.32617,10.89648 v -7.26367 c -6.65875,-0.60535 -15.28539,-3.7844 -25.87891,-9.53515 -10.59349,-5.75074 -21.33823,-6.50692 -32.23437,-2.26954 3.63207,-6.65875 6.9616,-11.80543 9.98828,-15.4375 z m 102.54101,17.57227 c -1.88695,-0.0993 -4.13556,0.24845 -6.74609,1.04297 -6.96149,2.11871 -13.31762,7.41585 -19.06836,15.89062 -5.75071,8.47477 -7.41551,14.83094 -4.99414,19.06836 -11.14011,3.71335 -13.49924,15.36772 -3.63086,19.06836 4.8427,1.81601 11.80461,-1.51351 20.88477,-9.98828 9.08013,-8.47477 15.13343,-16.34526 18.16015,-23.60937 3.02668,-7.26411 3.63047,-13.01457 1.81446,-17.25196 -1.13502,-2.64839 -3.27499,-4.05518 -6.41993,-4.2207 z m -100.35546,7.5625 c -3.68882,0.11824 -7.14153,1.12393 -10.35743,3.01563 l -9.98828,8.17187 v 7.26367 h 4.54102 c 12.71219,6.65879 27.23975,6.65879 43.58398,0 l 15.43555,3.63086 v -9.08008 l -15.43555,-0.90625 c -10.4043,-8.32345 -19.66391,-12.35582 -27.77929,-12.0957 z m 95.9375,2.13672 c 2.72403,0.0745 3.91472,1.73005 3.57422,4.96484 -0.60535,5.75075 -3.17676,11.19836 -7.7168,16.34375 -4.54005,5.14543 -8.77813,8.77782 -12.71289,10.89649 -3.93473,2.11871 -3.93473,0.45395 0,-4.99414 3.93476,-5.44809 3.93476,-7.41571 0,-5.90235 -3.93473,1.51339 -4.6909,-0.15137 -2.26953,-4.99414 2.42137,-4.8427 5.75086,-9.38367 9.98828,-13.62109 3.97255,-1.85386 7.01802,-2.75129 9.13672,-2.69336 z m -99.03125,3.60156 c -2.42137,3.02672 -2.42137,6.35624 0,9.98828 -3.63207,-1.21067 -6.65871,-2.42015 -9.08008,-3.63086 1.21067,-2.42137 4.23731,-4.5414 9.08008,-6.35742 z m 11.80468,1.81641 12.71289,7.26367 c -4.84274,1.2107 -9.68655,1.81641 -14.52929,1.81641 4.23739,-2.42137 4.84312,-5.44801 1.8164,-9.08008 z m 59.92969,27.24023 c 4.23739,3.02672 4.99356,5.60008 2.26953,7.71875 -2.72407,2.11871 -4.69167,1.96629 -5.90234,-0.45508 -1.2107,-2.42137 7.4e-4,-4.8423 3.63281,-7.26367 z m -86.63672,9.84961 c -0.167,-0.001 -0.34403,0.0441 -0.5332,0.13867 -1.2107,0.60535 -1.66402,1.81681 -1.36133,3.63282 0.30266,1.81602 -0.45546,3.17792 -2.27148,4.08593 -1.81605,0.90805 -3.78368,-5.5e-4 -5.90235,-2.72461 -2.11871,-2.72403 -3.78347,-4.08593 -4.99414,-4.08593 -1.2107,0 -2.1173,0.30285 -2.72265,0.9082 -0.60531,0.60531 -0.60531,1.81485 0,3.63086 1.81605,-1.21067 4.08651,-0.14969 6.81054,3.17969 2.72403,3.32938 5.59828,4.23598 8.625,2.72265 3.02672,-1.51336 4.3886,-3.93426 4.08594,-7.26367 -0.25539,-2.80916 -0.83453,-4.21663 -1.73633,-4.22461 z m -16.02734,21.63281 c 0.90802,-0.0284 1.9878,0.0718 3.23633,0.29883 3.32938,0.60535 7.26265,1.21106 11.80273,1.81641 4.54004,0.60535 6.50769,0.90625 5.90234,0.90625 l -21.79101,0.9082 c -2.42137,-0.60531 -3.17949,-1.51195 -2.27149,-2.72265 0.56751,-0.7567 1.60773,-1.15974 3.1211,-1.20704 z m 20.0332,5.7461 c -1.2107,1.21067 -3.47921,2.57258 -6.80859,4.08594 -3.32937,1.51336 -6.20558,2.57242 -8.62695,3.17773 -2.42137,0 -3.93372,-0.45332 -4.53907,-1.36133 -0.60535,-0.90801 -0.30445,-1.96706 0.90625,-3.17773 z m 193.4082,207.93555 c 13.31756,32.08314 30.56889,62.65259 51.75586,91.70898 l -72.64062,-7.26367 c 4.23739,-23.00303 11.19929,-51.1515 20.88476,-84.44531 z M 207.93555,676.74805 h 39.04492 L 421.31836,798.42188 226.0957,857.44141 c 4.23739,-90.80135 -1.81592,-151.03162 -18.16015,-180.69336 z m 351.40039,122.58007 c 13.92286,45.40062 6.05435,87.17003 -23.60742,125.30665 -44.18995,26.02967 -97.6127,29.96493 -160.26563,11.80468 -62.65293,-18.16028 -122.12704,-14.5279 -178.42383,10.89649 5.44805,-19.97626 52.05936,-52.66572 139.83399,-98.06641 z"
     sodipodi:nodetypes="cccsccsscsccccccssccsscccsscccsssccccccccccccccscsccccccscscssssccccccsssscssccssccssssscsscccccccccccscscscscccsccsccssscssssssccccccccsssssssscscccccccccsscssssssscsssssssccsscscscccccccccccccsccc" />
</svg>
