<?xml version="1.0" encoding="UTF-8" standalone="no"?>
<svg
   width="900"
   height="1000"
   version="1.1"
   id="svg1"
   sodipodi:docname="134F0.svg"
   inkscape:version="1.4.2 (f4327f4, 2025-05-13)"
   xmlns:inkscape="http://www.inkscape.org/namespaces/inkscape"
   xmlns:sodipodi="http://sodipodi.sourceforge.net/DTD/sodipodi-0.dtd"
   xmlns="http://www.w3.org/2000/svg"
   xmlns:svg="http://www.w3.org/2000/svg">
  <defs
     id="defs1" />
  <sodipodi:namedview
     id="namedview1"
     pagecolor="#ffffff"
     bordercolor="#666666"
     borderopacity="1.0"
     inkscape:showpageshadow="2"
     inkscape:pageopacity="0.0"
     inkscape:pagecheckerboard="0"
     inkscape:deskcolor="#d1d1d1"
     inkscape:zoom="0.755"
     inkscape:cx="118.54305"
     inkscape:cy="375.49669"
     inkscape:window-width="1680"
     inkscape:window-height="998"
     inkscape:window-x="-8"
     inkscape:window-y="-8"
     inkscape:window-maximized="1"
     inkscape:current-layer="svg1"
     showguides="true">
    <sodipodi:guide
       position="900,1000"
       orientation="0,-1"
       id="guide1"
       inkscape:locked="false" />
    <sodipodi:guide
       position="900,0"
       orientation="0,-1"
       id="guide2"
       inkscape:locked="false" />
  </sodipodi:namedview>
  <path
     id="path1"
     style="fill:#000000;stroke:none;stroke-width:0.999997"
     d="M 585.68945,0.09765625 C 575.91682,0.37888306 566.11052,1.2696549 556.26758,2.7695312 514.27104,7.6441294 483.52183,36.516081 464.02344,89.386719 c -2.62479,14.248821 -8.99889,27.561571 -19.12305,39.935551 -10.12417,11.99901 -16.6858,25.30979 -19.68555,39.93359 0,8.24932 5.24892,12.56253 15.74805,12.9375 10.49914,0.37497 11.81185,3.93611 3.9375,10.68555 -3.37472,0.74993 -4.68743,2.43772 -3.9375,5.0625 0.37497,2.62479 1.68768,4.31257 3.9375,5.0625 -4.8746,5.24957 -4.8746,8.8107 0,10.68554 5.24956,2.24982 7.12488,6.00044 5.625,11.25 -1.1249,5.62454 -0.18725,12.56123 2.8125,20.81055 2.99975,8.62428 17.99832,12.93555 44.99609,12.93555 l 34.8711,-5.06055 c -1.49988,5.62453 -0.56222,12.3737 2.8125,20.24805 -67.49443,0.74993 -109.48964,15.37344 -125.98828,43.87109 -56.62033,47.2461 -110.42998,97.30319 -161.42578,150.17383 C 238.47936,446.9197 215.4189,418.23528 179.42188,381.86328 143.79982,345.86625 119.01094,318.23598 116.99023,303.27148 108.53248,240.637 93.249507,200.0467 40.869141,163.75977 26.507882,154.21708 17.227576,152.78614 13.027344,159.4707 c -4.2014575,6.68126 3.513584,20.22171 23.144531,40.6211 19.630972,20.39947 31.423949,48.94969 35.380859,85.65039 C 41.836705,265.52362 31.047526,246.41154 28.068359,234.95898 25.089185,223.50644 18.704546,220.4501 8.9140625,225.79102 c 12.5017385,44.26281 30.9328205,74.76584 55.7910155,90.0332 14.29548,8.77997 31.142881,40.83366 52.640622,72.04687 44.15804,64.11437 94.71376,144.30285 114.38477,150.35547 22.12318,3.37472 57.18365,-16.31212 105.17969,-59.05859 59.62008,-52.1207 86.42919,-68.9946 80.42968,-50.62109 0,24.37297 5.06333,45.18501 15.1875,62.43359 10.12416,17.24858 34.87239,95.61698 74.24414,235.10547 L 322.84766,588.8457 c -27.74771,-25.12294 -52.12088,-37.68359 -73.11914,-37.68359 -58.87015,0.74994 -84.92914,25.12312 -78.17969,73.11914 l 31.49609,224.41797 c -44.62132,10.87408 -65.24386,44.43433 -61.86914,100.67969 -20.24833,4.12464 -38.80998,9.93618 -55.683592,17.43554 -16.498638,7.1246 -33.183033,9.93756 -50.056641,8.4375 C 18.561939,974.12704 6.7494432,982.37648 0,1000 h 893.73828 c -18.3735,-35.99703 -44.61999,-50.24545 -78.74219,-42.74609 -33.74722,7.49936 -56.6221,-7.31167 -68.62109,-44.4336 -11.62406,-36.74695 -31.30895,-44.62129 -59.05664,-23.62304 26.99777,-52.12072 27.74788,-106.86606 2.25,-164.23633 1.12491,-62.24488 3.75053,-117.74033 7.875,-166.48633 88.11775,27.74769 146.42421,41.62109 174.92187,41.62109 22.12316,-2.24981 33.18555,-11.81193 33.18555,-28.68554 C 886.05237,495.66641 841.05472,411.11144 770.56055,317.74414 763.7649,304.15283 751.89426,293.50313 734.94922,285.79688 l 87.6914,-152.65626 -34.68554,-19.92382 -92.63086,161.25781 h -0.002 c -10.47691,-1.71994 -21.95612,-2.85748 -34.43946,-3.41406 -10.12416,-13.49889 -15.56079,-25.31138 -16.31054,-35.43555 24.37297,-5.62453 44.80802,-18.37273 61.30664,-38.24609 16.87361,-19.87336 25.12488,-52.12087 24.74804,-96.74219 C 730.25196,56.390363 710.94215,27.518417 672.69531,14.019531 644.01017,3.8953666 615.00735,-0.74602418 585.68945,0.09765625 Z m 6.4336,25.87304675 c 15.46747,0.656196 32.95083,3.234746 52.44922,7.734375 38.62183,8.624288 58.11915,32.997448 58.49414,73.119142 0.37499,39.74672 -10.87296,68.8062 -33.7461,87.17969 -22.49814,18.74845 -41.2473,20.06117 -56.24609,3.9375 -6.74944,-6.74944 -8.06197,-12.18591 -3.9375,-16.31055 10.87391,-3.37473 15.93725,-11.81166 15.1875,-25.31055 11.62406,-14.24882 17.43555,-26.43637 17.43555,-36.56054 0.74992,-18.37349 -8.06205,-27.18547 -26.43555,-26.435551 -7.49936,0.749937 -13.87367,3.187855 -19.12305,7.312501 -36.74697,-24.372992 -68.61941,-35.24785 -95.61719,-32.623048 10.87411,-19.123422 27.93552,-31.87162 51.1836,-38.246094 11.43656,-3.187236 24.88799,-4.453071 40.35547,-3.796875 z m -80.36133,60.957031 c 22.91998,0.703068 47.31659,10.896144 73.18945,30.582036 l -3.9375,11.25 c 4.49963,2.62497 8.81303,3.37491 12.9375,2.25 5.99953,-15.7487 12.74869,-23.62305 20.24805,-23.62305 8.99926,-1.12491 13.12475,3.37388 12.375,13.49805 0,9.37423 -5.06333,19.874 -15.1875,31.49804 0,11.99899 -3.37361,17.06037 -10.12305,15.18555 -6.74944,-1.49988 -9.5624,-5.24854 -8.4375,-11.24805 -4.49962,16.87361 -0.56343,38.24628 11.81055,64.11914 11.99899,26.24784 21.18609,46.30778 27.56055,60.18164 6.37445,13.87386 16.49917,21.18561 30.37304,21.93555 13.87388,0.74994 29.81008,2.81278 47.8086,6.1875 17.99851,3.37472 22.87238,15.56229 14.62304,36.56055 -8.24934,20.99827 -26.47811,67.71177 -51.74414,141.17578 -6.95193,20.21619 -6.77254,45.74018 -7.3125,55.68164 l -10.125,185.60937 -101.24023,22.5 C 501.70944,581.16041 470.21206,489.29177 460.08789,474.66797 c -10.12416,-14.62379 -12.93713,-56.43343 -8.4375,-125.42774 -1.87484,-23.62305 17.43498,-35.43359 57.93164,-35.43359 41.99654,0 61.30834,-9.56213 57.93359,-28.68555 l -7.875,-23.06054 c -4.12463,-14.24882 -5.81046,-23.06083 -5.06054,-26.43555 -8.24932,-2.24981 -19.87429,-1.68722 -34.87305,1.6875 -25.4979,2.24982 -40.49646,1.12463 -44.99609,-3.375 -4.49963,-4.49963 -5.9999,-10.6862 -4.5,-18.56055 l 17.99804,-6.1875 c 4.12465,-2.24981 4.8748,-5.99849 2.25,-11.24804 l -25.31054,-2.25 c 5.9995,-12.74895 5.24938,-21.1859 -2.25,-25.31055 -10.12416,0.74994 -15.18555,-1.87549 -15.18555,-7.875 2.62478,-4.8746 7.8737,-13.87217 15.74805,-26.99609 7.87435,-13.12391 17.43647,-21.56086 28.68554,-25.31055 11.62404,-3.74969 23.06148,-3.1871 34.31055,1.6875 11.24907,4.49963 21.93444,8.06076 32.05859,10.68555 l 2.8125,-6.75 c -9.37423,-2.24982 -19.12193,-5.9985 -29.24609,-11.24805 -19.4984,-10.124165 -36.37227,-10.124165 -50.62109,0 1.87485,-6.749443 4.49832,-11.812779 7.87304,-15.187501 7.3119,-1.874845 14.78774,-2.69334 22.42774,-2.458985 z m -1.05469,28.894536 c -9.37423,0 -15.5608,1.50025 -18.56055,4.5 -2.62479,2.99975 -6.18591,4.5 -10.68554,4.5 v 5.0625 l 7.87304,1.125 c 10.12417,10.12417 26.06039,11.43688 47.8086,3.9375 l 14.0625,3.93554 1.125,-10.12304 -12.375,-1.125 c -11.99901,-6.74944 -21.74867,-10.6876 -29.24805,-11.8125 z m 231.73242,287.97656 c 14.6238,29.99752 43.30822,73.68246 86.05469,131.05273 -16.12369,-10.8741 -55.68292,-22.31153 -118.67773,-34.31054 z M 245.79297,618.09375 h 45.55859 l 206.98242,143.42578 -231.16796,69.74414 c 5.24957,-106.86618 -1.87465,-177.92281 -21.37305,-213.16992 z m 415.08984,134.98828 c 15.7487,60.37001 6.3741,112.86698 -28.12304,157.48828 -52.12072,31.12242 -115.30301,35.99628 -189.54688,14.62305 -74.24388,-21.74823 -144.73792,-17.435 -211.48242,12.9375 6.74945,-23.62305 61.86987,-62.24469 165.36133,-115.86524 z"
     sodipodi:nodetypes="sccccsccccccccccccsccscscsscccscccccccccccccccccccccccccccssscccccccccccsscccccccccssssccccscsccccsccccccscccccccsccccccccccccccccccccccccc" />
</svg>
