<?xml version="1.0" encoding="UTF-8" standalone="no"?>
<svg
   width="500"
   height="1000"
   version="1.1"
   id="svg1"
   sodipodi:docname="134FE.svg"
   inkscape:version="1.4.2 (f4327f4, 2025-05-13)"
   xmlns:inkscape="http://www.inkscape.org/namespaces/inkscape"
   xmlns:sodipodi="http://sodipodi.sourceforge.net/DTD/sodipodi-0.dtd"
   xmlns="http://www.w3.org/2000/svg"
   xmlns:svg="http://www.w3.org/2000/svg">
  <defs
     id="defs1" />
  <sodipodi:namedview
     id="namedview1"
     pagecolor="#ffffff"
     bordercolor="#666666"
     borderopacity="1.0"
     inkscape:showpageshadow="2"
     inkscape:pageopacity="0.0"
     inkscape:pagecheckerboard="0"
     inkscape:deskcolor="#d1d1d1"
     inkscape:zoom="0.755"
     inkscape:cx="252.31788"
     inkscape:cy="358.27815"
     inkscape:window-width="1680"
     inkscape:window-height="998"
     inkscape:window-x="-8"
     inkscape:window-y="-8"
     inkscape:window-maximized="1"
     inkscape:current-layer="svg1" />
  <path
     id="path1"
     style="fill:#000000;stroke:none;stroke-width:1"
     d="M 209.48242 -0.048828125 C 180.73025 -0.048828125 158.46802 25.88898 155.08398 58.054688 C 154.97477 56.977785 154.85417 55.892779 154.72461 54.798828 C 149.25737 54.790428 146.24523 58.975109 145.68555 67.357422 C 145.12587 75.739714 140.64365 86.487179 132.24023 99.595703 C 131.12529 69.996534 133.82246 54.517357 152.01367 41.125 C 156.45755 37.853427 149.74099 30.273002 143.08984 30.054688 C 142.13969 30.023498 141.19012 30.141972 140.27539 30.445312 C 114.21167 59.484933 107.46691 74.59844 117.44922 118.16211 C 60.688225 172.20051 36.89333 216.94659 20.333984 261.69727 C 31.28373 295.69906 82.862066 323.65133 175.07031 345.55078 C 195.24087 393.38383 205.32617 448.99746 205.32617 512.39062 L 162.96875 733.68945 L 162.96875 732.82422 C 146.83227 827.33766 135.0173 886.40875 127.52539 910.03711 C 118.30457 933.66553 108.3647 947.06478 97.703125 950.23438 C 87.041547 953.40404 69.318059 960.75329 44.537109 972.2793 C 27.248043 975.73713 16.875761 981.35468 13.417969 989.13477 C 9.9601412 996.9147 17.163931 1000.5156 35.029297 999.93945 C 57.505052 999.93945 74.072797 998.64418 84.734375 996.05078 C 95.395954 993.45738 109.37309 993.88981 126.66211 997.34766 C 143.95118 1000.8054 152.30681 995.04247 151.73047 980.05859 C 154.0357 950.66728 165.27475 915.3677 185.44531 874.16211 C 205.61587 832.95656 214.83439 802.26821 213.10547 782.09766 C 211.37657 761.92709 218.00639 745.50282 232.99023 732.82422 L 297.82227 733.6875 C 311.65351 827.04835 320.01105 887.27321 322.89258 914.35938 C 325.06669 956.75455 313.3635 970.12867 262.38086 974.87109 C 247.39703 982.93931 239.47188 989.13481 238.60742 993.45703 C 237.74295 997.77929 242.78657 999.93945 253.73633 999.93945 C 264.10978 999.93945 276.93311 999.65236 292.20508 999.07617 C 307.47708 998.49997 325.63099 998.49997 346.66602 999.07617 C 367.70101 999.65246 374.75937 992.73763 367.84375 978.33008 C 360.92814 934.53121 360.20874 891.88242 365.68359 850.38867 C 371.15844 808.89495 367.8445 769.99645 355.74219 733.68945 L 355.74219 732.82422 L 334.99414 597.9707 C 347.67266 564.5452 347.52931 532.84853 334.5625 502.88086 C 321.59572 472.91319 325.77254 427.6738 347.0957 367.16211 C 365.53733 406.35064 385.42099 437.18244 406.74414 459.6582 C 402.13375 497.69409 404.1504 536.01862 412.79492 574.63086 C 413.94752 579.81754 411.20952 589.46848 404.58203 603.58789 C 397.95458 617.70727 397.5241 636.58249 403.28711 660.21094 C 409.62643 660.78721 412.36447 656.31951 411.5 646.81055 C 410.63557 637.30158 412.5068 629.66732 417.11719 623.9043 C 423.71532 639.2999 429.12717 658.13856 414.52539 681.82227 C 408.30046 691.91894 412.78075 696.67509 424.0332 695.65234 C 439.33688 673.46184 448.63404 652.34226 435.27148 600.5625 C 445.6449 556.76358 446.79864 510.08342 438.73047 460.52148 C 430.66221 434.0116 412.5083 392.22963 384.26953 335.17578 C 372.16718 305.78439 352.28353 291.08984 324.62109 291.08984 C 306.17943 291.08984 295.66172 287.63045 293.06836 280.71484 C 290.475 273.79921 288.60376 265.73255 287.45117 256.51172 C 297.82462 251.9013 308.05148 243.40218 318.13672 231.01172 C 328.22202 218.62124 332.68975 202.05155 331.53711 181.30469 C 330.96082 158.25264 320.87552 143.55808 301.28125 137.21875 C 296.01519 135.51502 290.65464 134.18496 285.20117 133.23047 L 337.80273 133.23047 C 369.06017 133.23047 392.64844 102.57733 392.64844 66.591797 C 392.64844 30.606264 369.06017 -0.048828125 337.80273 -0.048828125 L 209.48242 -0.048828125 z M 209.48242 14.951172 L 337.80273 14.951172 C 359.00433 14.951172 377.64844 37.051402 377.64844 66.591797 C 377.64844 96.132192 359.00433 118.23047 337.80273 118.23047 L 209.48242 118.23047 C 188.28082 118.23047 169.63672 96.132192 169.63672 66.591797 C 169.63672 37.051402 188.28082 14.951172 209.48242 14.951172 z M 155.83789 80.53125 C 161.01069 110.14884 182.35922 133.23047 209.48242 133.23047 L 241.69531 133.23047 C 240.669 133.39565 239.63934 133.57215 238.60742 133.75977 C 216.41984 137.7939 201.57985 156.81069 194.08789 190.8125 C 188.90121 197.72812 183.13815 207.81341 176.79883 221.06836 C 173.91733 228.56029 174.06276 232.88451 177.23242 234.03711 C 180.40204 235.1897 182.85114 236.62852 184.58008 238.35742 C 178.77006 242.71486 184.54976 245.48265 187.17383 246.13867 C 185.14472 248.27921 182.76948 251.45637 186.74023 253.05469 C 189.3336 254.20728 190.77433 257.80822 191.0625 263.85938 C 191.35063 269.91053 193.80168 273.22444 198.41211 273.80078 C 203.02254 274.37705 210.5133 274.37705 220.88672 273.80078 L 224.34375 287.63086 C 213.39404 293.39388 204.31707 294.83464 197.11328 291.95312 C 189.90953 289.07164 179.53722 288.35224 165.99414 289.79297 C 152.45103 291.23373 140.78149 289.79335 130.98438 285.4707 C 121.18722 281.14844 96.287726 270.38579 67.472656 257.13086 C 92.05785 220.93995 116.35167 179.84869 133.54102 141.96875 C 138.10412 137.41973 143.45119 127.45062 149.58008 112.06055 C 153.24022 102.86973 155.32627 92.359042 155.83789 80.53125 z M 262.55273 145.49414 C 270.65133 145.81659 278.83617 147.12585 286.58398 148.88672 C 305.60195 153.20897 315.68723 164.30261 316.83984 182.16797 C 317.41614 200.6096 311.65507 216.45795 299.55273 229.71289 C 287.45041 242.96784 279.3818 247.00314 275.34766 241.81641 C 271.31358 236.05341 274.19507 227.6978 283.99219 216.74805 C 302.71734 195.81994 292.46539 163.95869 256.32812 183.89648 C 249.98881 177.55715 235.87018 173.23489 213.9707 170.92969 C 218.00482 159.40364 226.36236 151.7694 239.04102 148.02344 C 246.44347 145.83635 254.45414 145.17169 262.55273 145.49414 z M 208.78516 181.30469 C 227.22683 181.30469 242.21031 185.33803 253.73633 193.40625 C 253.16003 200.32188 255.60914 200.46538 261.08398 193.83789 C 272.20844 180.37156 288.78254 186.77587 280.9668 204.21094 C 277.22084 212.56732 272.32264 219.77306 266.27148 225.82422 C 260.2203 231.87541 259.21197 237.78193 263.24609 243.54492 C 267.28022 249.30794 269.58585 254.49503 270.16211 259.10547 C 273.61994 293.68355 287.16072 310.9707 310.78906 310.9707 C 340.18044 311.547 346.08889 333.44729 328.51172 376.66992 C 310.93453 419.89253 303.87424 457.92815 307.33203 490.77734 L 226.07227 508.93164 C 223.46846 430.81687 219.26636 381.33663 186.74023 323.9375 C 181.84169 315.29297 190.05576 310.9707 211.37891 310.9707 C 232.70207 310.9707 242.353 302.32809 240.33594 285.03906 C 238.31888 267.74999 230.53916 260.83514 216.99609 264.29297 C 203.45301 267.75076 197.83543 263.7155 200.14062 252.18945 C 208.20883 247.00277 210.80142 243.39988 207.91992 241.38281 C 205.03839 239.36575 200.42722 238.35742 194.08789 238.35742 C 194.08789 234.32333 190.63043 231.15484 183.71484 228.84961 C 189.47783 213.28948 195.24089 202.62631 201.00391 196.86328 C 207.34323 193.40549 213.82759 193.11851 220.45508 196 C 227.08253 198.8815 234.14285 200.89816 241.63477 202.05078 L 240.76953 197.72852 C 236.15909 197.15222 230.54151 195.27903 223.91406 192.10938 C 217.28657 188.93972 210.51328 188.7962 203.59766 191.67773 C 205.90289 187.0673 207.63256 183.60989 208.78516 181.30469 z M 273.83984 189.5957 C 272.64002 189.6107 271.26319 189.8693 269.72852 190.38086 C 260.32709 193.51469 254.18128 207.92208 256.32812 213.28906 C 252.87031 215.01795 250.85363 217.32162 250.27734 220.20312 C 249.70104 223.08465 251.00026 225.10327 254.16992 226.25586 C 261.19261 228.80955 274.87646 211.16648 277.94141 202.48242 C 280.91768 194.04979 279.0391 189.5307 273.83984 189.5957 z M 271.47656 195.18555 C 273.4828 195.16475 274.73746 196.50233 274.48242 198.16016 C 273.19658 206.51812 266.4163 214.73021 262.38086 216.74805 C 260.07566 217.90065 260.07566 216.74686 262.38086 213.28906 C 264.68592 209.83123 264.54254 208.8229 261.94922 210.26367 C 259.35585 211.70443 258.77998 210.6961 260.2207 207.23828 C 264.00735 198.15046 268.54436 195.21585 271.47656 195.18555 z M 211.55273 197.90625 C 207.12235 198.07944 202.96016 200.07191 199.27539 204.64453 L 199.27539 209.83203 L 201.86719 208.96484 C 209.93541 213.57527 219.1578 213.28829 229.53125 208.10156 L 239.04102 209.83203 L 239.04102 204.64453 L 229.53125 204.64453 C 223.38886 200.4684 217.24895 197.68358 211.55273 197.90625 z M 209.65039 201.18555 C 208.49779 202.91445 208.78477 204.93308 210.51367 207.23828 C 208.20847 206.66198 206.1918 206.08607 204.46289 205.50977 C 205.0392 203.20457 206.7689 201.76184 209.65039 201.18555 z M 217.42969 202.05078 L 226.07227 206.37305 C 222.61448 206.94935 219.44595 207.52527 216.56445 208.10156 C 218.86964 206.37267 219.15858 204.35598 217.42969 202.05078 z M 255.46484 217.61133 C 258.92269 219.34023 259.64206 220.92446 257.625 222.36523 C 255.60794 223.80599 254.31262 223.80599 253.73633 222.36523 C 253.16003 220.92446 253.73596 219.34023 255.46484 217.61133 z M 191.7168 240.61914 C 192.31536 240.60874 193.09408 240.70273 194.08789 240.95117 C 200.3369 242.51339 206.75861 241.24726 205.32617 242.67969 L 191.49609 242.67969 C 189.93423 242.67969 189.123 240.66442 191.7168 240.61914 z M 204.46289 243.54492 C 203.37333 245.72401 198.65779 248.53685 194.95312 248.73047 C 194.46983 248.75567 190.02144 250.94344 193.22461 246.13867 L 204.46289 243.54492 z M 310.78906 511.52344 C 329.80703 535.72812 330.67183 564.5452 313.38281 597.9707 L 333.26562 713.80664 L 188.90234 713.80664 L 225.20898 533.13672 L 310.78906 511.52344 z " />
</svg>
