<?xml version="1.0" encoding="UTF-8" standalone="no"?>
<svg
   width="1000"
   height="1000"
   version="1.1"
   id="svg1"
   sodipodi:docname="134F6.svg"
   inkscape:version="1.4.2 (f4327f4, 2025-05-13)"
   xmlns:inkscape="http://www.inkscape.org/namespaces/inkscape"
   xmlns:sodipodi="http://sodipodi.sourceforge.net/DTD/sodipodi-0.dtd"
   xmlns="http://www.w3.org/2000/svg"
   xmlns:svg="http://www.w3.org/2000/svg">
  <defs
     id="defs1" />
  <sodipodi:namedview
     id="namedview1"
     pagecolor="#ffffff"
     bordercolor="#666666"
     borderopacity="1.0"
     inkscape:showpageshadow="2"
     inkscape:pageopacity="0.0"
     inkscape:pagecheckerboard="0"
     inkscape:deskcolor="#d1d1d1"
     inkscape:zoom="1.4142136"
     inkscape:cx="301.93459"
     inkscape:cy="223.79929"
     inkscape:window-width="1680"
     inkscape:window-height="998"
     inkscape:window-x="-8"
     inkscape:window-y="-8"
     inkscape:window-maximized="1"
     inkscape:current-layer="svg1"
     showguides="true" />
  <path
     id="path1"
     style="fill:#000000;stroke:none;stroke-width:0.999999"
     d="M 716.21289,0.04882812 C 675.92427,0.8862378 632.03663,7.0460419 605.91211,90.644531 c -9.43114,12.125789 -20.20819,28.630409 -32.33399,49.513669 -6.73666,14.14675 -7.0746,22.062 -1.01171,23.7461 6.06289,1.68414 11.11638,4.21183 15.1582,7.58008 -10.5793,6.04561 -5.98754,11.96848 1.00977,13.13476 2.02063,-0.67367 1.3466,0.67471 -2.02149,4.04297 -3.36864,3.36825 -2.86305,6.23011 1.51563,8.58789 4.3788,2.35775 6.56836,9.60077 6.56836,21.72656 0,11.45209 6.39981,17.17774 19.19921,17.17774 14.82042,0 25.59943,-0.6742 32.33594,-2.02149 l 4.04102,31.32617 c -64.67079,0.67362 -109.80549,16.50411 -135.4043,47.49219 -48.5031,43.78752 -95.65835,84.20687 -141.4668,121.25781 -49.17671,-25.59885 -104.75435,-53.89279 -166.73047,-84.88086 6.73651,-9.43113 9.6003,-17.17733 8.58985,-23.24023 -1.01048,-6.06289 9.26339,-16.50581 30.82031,-31.32617 -12.79944,-7.4102 -23.07332,-8.58952 -30.82031,-3.53711 -7.74703,5.05241 -17.68281,14.82115 -29.8086,29.30469 -12.12574,14.48358 -57.59852,5.55804 -136.416011,-26.77735 -19.535949,-7.41019 -34.187085,-7.41019 -43.9550784,0 -9.7679561,7.41017 -5.72681211,13.13582 12.1250004,17.17774 17.851813,4.04193 35.030616,10.77782 51.535156,20.20898 16.504504,9.43117 32.504023,15.6639 47.998043,18.69531 15.49406,3.03144 31.32452,11.28276 47.49219,24.75586 71.40729,59.95515 142.14119,108.4588 212.20117,145.50977 72.7546,-40.41924 126.98388,-81.17472 162.6875,-122.26758 -2.02092,28.96711 1.85315,60.45899 11.6211,94.47852 9.76802,34.01948 33.17565,116.71178 70.22656,248.07422 L 447.26758,585.78125 c -26.27249,-23.5779 -49.51501,-35.36719 -69.72461,-35.36719 -55.23961,0.67362 -79.15434,23.91416 -71.74414,69.72266 l 28.29492,235.4414 c -41.76652,10.77843 -60.96591,42.44132 -57.59766,94.98633 -19.53595,3.36826 -37.21989,8.58879 -53.05078,15.66211 -15.83085,7.07315 -31.83037,10.10434 -47.99804,9.09375 -16.16772,-1.01043 -26.94672,6.56867 -32.33594,22.73633 h 841.73242 c -17.515,-33.68267 -42.10393,-46.98738 -73.76563,-39.91406 -31.66176,7.07343 -53.05076,-6.90549 -64.16601,-41.93555 -11.11524,-35.02995 -30.14565,-42.44005 -57.0918,-22.23047 25.59869,-49.1767 26.60915,-100.71127 3.03125,-154.60351 1.1499,-66.30885 6.0148,-128.28703 15.08203,-190.24219 38.13751,17.26854 78.40802,33.17253 109.07618,39.4707 36.27084,7.44879 62.99784,-5.95097 53.74804,-34.16406 C 956.02203,509.49156 926.30082,419.69205 869.64844,299.81445 846.74421,272.19464 811.04019,258.72086 762.53711,259.39453 v -49.51367 c 18.18867,-7.4102 35.70359,-21.22009 52.54492,-41.42969 16.84133,-20.2096 25.26172,-48.16551 25.26172,-83.869139 0,-35.703662 -15.83043,-59.618393 -47.49219,-71.74414 C 769.10525,3.7435524 743.559,-0.51956803 716.21289,0.04882812 Z m 6.15625,18.09374988 c 13.97831,0.842069 29.38914,3.453294 46.23047,7.832031 33.68272,8.757511 50.52344,28.967173 50.52344,60.628907 0,30.988044 -11.28415,57.259494 -33.85157,78.816404 -22.56741,21.55693 -36.88247,27.28451 -42.94531,17.17969 -7.41018,-9.43117 -1.85165,-23.24105 16.67383,-41.42969 18.52521,-18.18864 23.07178,-36.04165 13.64062,-53.556639 -9.43115,-17.51502 -29.30277,-18.86142 -59.61718,-4.041015 -10.10476,-11.452128 -34.3576,-20.210546 -72.75586,-26.273438 14.16689,-36.061199 53.56456,-40.875349 82.10156,-39.15625 z m -92.20508,56.333984 c 30.98802,2.020965 56.58724,10.105244 76.79688,24.251954 -1.34729,12.125784 3.36798,12.630924 14.14648,1.515624 21.89175,-22.575877 49.78123,-10.951203 34.35547,19.19922 -7.41018,14.48354 -16.67186,26.77799 -27.78711,36.88281 -11.11536,10.10478 -13.64297,20.20963 -7.58008,30.31445 6.06289,10.10478 10.106,18.86324 12.12696,26.27344 -0.67367,53.8923 3.70362,81.174 13.13476,81.84766 9.43121,0.67365 27.95792,1.34782 55.57813,2.02148 27.61961,0.67366 28.63011,45.47226 3.03125,134.39453 -4.41275,15.32847 -8.55547,30.97628 -12.42774,46.94532 -23.89586,-8.24628 -49.86461,-15.471 -81.07617,-22.08399 -19.19527,-19.90501 -45.92801,-33.4872 -80.19727,-40.74804 -12.58279,-8.8634 -24.86396,-9.40023 -36.84374,-1.60938 -11.97988,7.79084 -4.94882,16.85533 21.09374,27.19336 -6.98157,32.95122 -0.91639,51.45264 18.19532,55.50195 18.45265,3.90966 41.83655,4.04343 70.15234,0.40235 15.83646,8.49958 43.9652,23.3739 76.16602,38.84961 -11.7501,60.66699 -19.94142,125.55038 -24.57618,194.65039 L 659.46875,751.5 C 610.96567,576.35002 584.52321,478.83762 580.14453,458.96484 c -4.3809,-19.87278 -5.89433,-63.154 -4.54687,-129.8457 -1.34729,-21.55691 14.82118,-32.33594 48.5039,-32.33594 33.68266,0 50.85948,-11.78931 51.53321,-35.36718 0,-29.64078 -12.46153,-43.11261 -37.38672,-40.41797 -24.92519,2.69462 -35.368,-5.38967 -31.32617,-24.25196 14.82052,-8.75752 20.04274,-14.99019 15.66406,-18.69531 -4.37874,-3.70512 -12.29594,-5.89273 -23.74805,-6.5664 0,-6.73652 -5.72562,-12.46409 -17.17773,-17.17969 11.45211,-25.59885 22.56726,-43.44987 33.3457,-53.55469 10.77844,-5.389216 22.06258,-5.389216 33.85156,0 11.78897,5.38924 23.40916,9.09426 34.86133,11.11523 v -7.07421 c -7.41019,-0.67366 -17.00985,-4.20966 -28.79883,-10.609379 -11.78892,-6.399701 -23.74531,-7.578983 -35.87109,-3.53711 4.04192,-6.73651 7.74714,-12.126041 11.11523,-16.167969 z m 113.63282,19.542969 c -2.11281,-0.121399 -4.62273,0.245819 -7.53321,1.171875 -15.46928,4.922044 -31.6673,29.801794 -26.27148,37.894534 -12.29148,5.46308 -15.05523,18.10088 -4.04297,22.23047 11.62173,4.35815 37.09788,-22.00854 43.45117,-37.89258 5.26938,-13.17417 3.55197,-22.878235 -5.60351,-23.404299 z m -111.67969,8.427739 c -4.2498,0.13157 -8.26931,1.25029 -12.0586,3.35546 l -10.10547,9.09375 v 8.08399 h 5.05274 c 14.14675,6.73651 29.97719,6.73651 47.49219,0 l 18.18945,3.03125 v -9.09375 l -17.17773,-1.01172 c -11.57842,-9.26274 -22.04302,-13.74844 -31.39258,-13.45898 z m 107.24219,2.3789 c 3.03144,0.0829 4.35748,1.9236 3.97851,5.52344 -0.67367,6.39972 -3.53743,12.46343 -8.58984,18.18945 -5.05241,5.72607 -9.7678,9.76723 -14.14649,12.125 -4.37868,2.35779 -4.37868,0.5043 0,-5.55859 4.37869,-6.06312 4.37869,-8.25056 0,-6.56641 -4.37868,1.68414 -5.22031,-0.16937 -2.52539,-5.55859 2.69458,-5.38924 6.39969,-10.44065 11.11524,-15.15625 4.4209,-2.06307 7.81017,-3.06252 10.16797,-2.99805 z m -110.20704,4.00781 c -2.69491,3.36827 -2.69491,7.07331 0,11.11524 -4.04193,-1.34729 -7.40915,-2.69568 -10.10351,-4.04297 1.34729,-2.69463 4.71424,-5.05131 10.10351,-7.07227 z m 13.13672,2.02149 14.14649,8.08398 c -5.38928,1.34729 -10.7787,2.01953 -16.16797,2.01953 4.7161,-2.69462 5.38957,-6.06158 2.02148,-10.10351 z m 66.69141,30.3125 c 4.71554,3.36825 5.55857,6.23207 2.52734,8.58984 -3.03133,2.358 -5.2209,2.19073 -6.56836,-0.5039 -1.34746,-2.69464 -8e-4,-5.38935 4.04102,-8.08399 z m -96.54297,10.83789 c -1.18954,-0.032 -2.35125,2.09514 -1.97852,4.32031 0.57824,3.46892 -3.7805,7.08144 -9.09375,1.00977 -6.48171,-7.40815 -9.59951,-3.66727 -9.59961,1.01172 2.69451,-1.34695 5.55684,-0.16781 8.5879,3.53711 6.67716,8.16087 14.76271,0.57264 14.14648,-5.5586 -0.31244,-3.1241 -1.19445,-4.29699 -2.0625,-4.32031 z m -16.86914,24.22266 c 0.81515,0.0239 1.73751,0.11969 2.76562,0.30664 3.70512,0.67368 8.08431,1.34781 13.13672,2.02148 5.05252,0.67362 7.24014,1.01172 6.56641,1.01172 l -24.25,1.00976 c -4.43042,-1.10842 -3.9248,-4.51674 1.78125,-4.3496 z m 21.45898,6.37109 c -2.1662,2.16579 -11.04182,6.31347 -17.17773,7.07227 -6.18605,0.76499 -6.38823,-1.69605 -4.04297,-4.04102 z m 218.96094,223.89258 c 22.31039,53.21865 28.12931,67.62997 62.30469,118.26758 -28.77194,-14.21467 -53.85066,-26.23999 -80.07031,-36.70313 5.10322,-26.81709 11.01234,-53.89243 17.76562,-81.56445 z M 374.51172,614.07422 h 43.45117 l 191.99023,156.625 c -58.60785,4.7156 -127.99341,26.94586 -208.1582,66.6914 0,-115.86839 -9.09457,-190.30736 -27.2832,-223.3164 z m 392.0664,150.56055 c 14.82037,57.26056 5.72578,107.11254 -27.2832,149.55273 -49.1767,28.96706 -108.62646,33.34435 -178.34961,13.13477 -69.72315,-20.20964 -135.90882,-15.83034 -198.55859,13.13671 -2.69466,-56.58682 132.03531,-115.19534 404.1914,-175.82421 z"
     sodipodi:nodetypes="sccscccssscccccscsscsssscccsccccccssccsscccsscccssssssssccsccsccsssscssscccscsccccccscscscccsccsccsscssssccccccccsssssssccscccccccccssccscccccssssccscscccccccccccccscc" />
  <path
     style="fill:#000000;stroke:none;stroke-width:1"
     d="m 137.26777,189.58133 c -22.6591,0 -39.275816,26.43565 -49.850065,80.06223 8.308349,12.0849 25.680345,18.88264 49.850065,18.88264 23.41442,0 39.27584,-6.79774 46.82888,-18.88264 -9.06364,-53.62658 -25.68036,-80.06223 -46.82888,-80.06223 z m 0,-135.199411 c -50.605382,0 -80.062234,19.637914 -89.881136,56.647811 6.797724,92.14706 14.350742,138.22062 23.414369,141.99715 10.574275,-54.38189 32.478107,-80.06226 66.466767,-80.06226 33.23339,0 55.13719,25.68037 63.44556,80.06226 9.81894,-3.77653 17.37202,-49.85009 23.41444,-141.99715 -8.30834,-37.009897 -37.00992,-56.647811 -86.86,-56.647811 z m 0,37.765184 c 37.76524,0 62.69026,15.861427 77.79636,43.052367 0,10.57425 -4.53186,18.12726 -14.3508,21.1485 -17.37199,-26.43564 -37.7652,-40.03114 -63.44556,-40.03114 -27.19096,0 -51.36069,13.5955 -68.732688,40.03114 -8.308313,-3.02124 -12.08486,-10.57425 -12.08486,-21.1485 15.106113,-27.19094 42.29704,-43.052367 80.817548,-43.052367 z M 273.97782,95.1683 c -15.1061,4.531841 -22.65911,9.819 -25.68035,15.86143 v 9.81893 l 25.68035,-18.8826 z m -276.4413061,0 v 6.79776 l 26.4356961,18.8826 v -9.81893 C 20.195663,104.9873 11.887313,99.700141 -2.4634861,95.1683 Z M 212.79818,24.169714 H 59.471493 l 13.595467,16.6167 c 21.903817,-6.042392 42.29703,-8.308313 63.44549,-8.308313 20.39323,0 41.54176,2.265921 61.93496,8.308313 z M 243.01039,-4.9999999e-6 V 24.169714 l -21.14852,27.946284 c 7.55305,2.265921 15.86139,12.084822 21.14852,30.967479 6.04245,-5.287153 21.90378,-6.797742 52.11597,-6.797742 v 40.031095 c -30.21219,20.39324 -44.5629,39.27582 -46.8288,54.38189 l -14.35082,77.79631 c -7.55304,42.29703 -39.27582,63.44558 -96.67894,63.44558 -58.913723,0 -92.90238,-21.14855 -99.700105,-63.44558 L 23.97221,170.69872 C 22.461565,155.59265 5.8448642,136.71007 -25.877891,116.31683 V 76.285735 c 30.2121477,0 49.094769,1.510589 54.381885,6.797742 C 33.791129,64.20082 39.83356,54.381919 47.386634,52.115998 L 28.503994,24.169714 V -4.9999999e-6 Z"
     id="path1-9" />
</svg>
