<?xml version="1.0" encoding="UTF-8" standalone="no"?>
<svg
   width="1100"
   height="1000"
   id="svg2277"
   sodipodi:version="0.32"
   inkscape:version="1.4.2 (f4327f4, 2025-05-13)"
   sodipodi:docname="13511.svg"
   inkscape:output_extension="org.inkscape.output.svg.inkscape"
   version="1.0"
   sodipodi:modified="true"
   xmlns:inkscape="http://www.inkscape.org/namespaces/inkscape"
   xmlns:sodipodi="http://sodipodi.sourceforge.net/DTD/sodipodi-0.dtd"
   xmlns="http://www.w3.org/2000/svg"
   xmlns:svg="http://www.w3.org/2000/svg"
   xmlns:rdf="http://www.w3.org/1999/02/22-rdf-syntax-ns#"
   xmlns:cc="http://creativecommons.org/ns#"
   xmlns:dc="http://purl.org/dc/elements/1.1/">
  <metadata
     id="metadata2284">
    <rdf:RDF>
      <cc:Work
         rdf:about="">
        <dc:format>image/svg+xml</dc:format>
        <dc:type
           rdf:resource="http://purl.org/dc/dcmitype/StillImage" />
      </cc:Work>
    </rdf:RDF>
  </metadata>
  <defs
     id="defs2282">
    <inkscape:perspective
       sodipodi:type="inkscape:persp3d"
       inkscape:vp_x="0 : -789.77562 : 1"
       inkscape:vp_y="0 : 1000 : 0"
       inkscape:vp_z="11.321417 : -789.77562 : 1"
       inkscape:persp3d-origin="5.6607084 : -793.18375 : 1"
       id="perspective7" />
  </defs>
  <sodipodi:namedview
     inkscape:window-height="998"
     inkscape:window-width="1680"
     inkscape:pageshadow="2"
     inkscape:pageopacity="0.0"
     guidetolerance="10.0"
     gridtolerance="10.0"
     objecttolerance="10.0"
     borderopacity="1.0"
     bordercolor="#666666"
     pagecolor="#ffffff"
     id="base"
     showgrid="false"
     inkscape:zoom="0.53386562"
     inkscape:cx="529.15938"
     inkscape:cy="332.48067"
     inkscape:window-x="-8"
     inkscape:window-y="-8"
     inkscape:current-layer="svg2277"
     inkscape:showpageshadow="2"
     inkscape:pagecheckerboard="0"
     inkscape:deskcolor="#d1d1d1"
     inkscape:window-maximized="1"
     showguides="true">
    <sodipodi:guide
       position="0,0"
       orientation="0,-1"
       id="guide2"
       inkscape:locked="false" />
    <sodipodi:guide
       position="1100,1000"
       orientation="0,-1"
       id="guide4"
       inkscape:locked="false" />
    <sodipodi:guide
       position="681.24417,821.62203"
       orientation="0,-1"
       id="guide1"
       inkscape:locked="false" />
  </sodipodi:namedview>
  <path
     id="path11"
     style="fill:#000000;stroke:none;stroke-width:1"
     d="M 665.10547 178.37695 C 657.10091 178.59044 648.86545 179.26582 640.39844 180.4043 C 606.53009 184.95795 582.76272 210.00178 569.10156 255.53906 C 560.56329 265.78499 551.45783 279.7314 541.78125 297.37695 C 536.08988 308.76277 535.66567 315.16615 540.50391 316.58789 C 545.34224 318.01088 549.46549 320.42844 552.88086 323.84375 C 545.48241 328.77358 548.24706 333.88944 554.58789 334.94531 C 556.29708 334.37659 555.58601 335.37522 552.45508 337.9375 C 549.32381 340.49788 549.61052 342.91738 553.31055 345.19531 C 557.01048 347.47227 558.85938 353.7326 558.85938 363.97852 C 558.85938 373.65482 564.55322 378.20738 575.9375 377.63867 C 587.89105 378.20738 596.71195 377.63772 602.4043 375.93164 L 602.4043 399.8418 C 562.55897 399.8418 538.171 413.40177 522.76367 418.74609 L 522.76367 418.74219 C 505.61649 427.28255 486.63802 440.95024 465.82812 459.74609 C 435.93806 427.81938 408.42692 394.52105 388.31836 355.48047 C 388.33136 312.41882 372.96173 278.88541 342.21094 254.88477 C 329.29724 240.11721 313.92149 234.88659 312.68945 239.19141 C 311.90415 238.22737 311.06508 237.39199 309.92188 237.3457 C 307.46231 237.2461 306.22787 239.49948 306.22656 243.80469 C 301.92215 243.80369 299.76692 245.95846 299.76562 250.26367 C 294.55232 249.80428 291.66674 254.78299 293.30469 258.56445 C 328.97396 293.02454 346.80661 316.71237 346.80273 329.63086 C 346.80073 335.29374 344.34693 337.98704 342.1875 334.24414 C 329.25755 311.83317 321.35444 298.44785 316.36523 295.48438 C 312.18225 292.99975 305.45565 299.65468 308.05273 303.78516 C 319.22893 321.56091 323.72852 338.65374 330.18555 351.77344 C 336.47595 364.5545 345.93175 370.37981 356.76758 375.52539 C 377.22555 414.87493 399.41092 454.38528 416.58789 495.29688 L 377.24219 526.1875 C 369.2453 512.03878 338.18486 471.75558 284.05078 405.31836 C 284.06378 362.25671 268.69415 328.72525 237.94336 304.72461 C 225.02966 289.95705 209.65392 284.72643 208.42188 289.03125 C 207.63657 288.06721 206.7975 287.23184 205.6543 287.18555 C 203.19473 287.08595 201.96029 289.33932 201.95898 293.64453 C 197.65457 293.64353 195.49935 295.79635 195.49805 300.10156 C 190.28475 299.64217 187.39916 304.62088 189.03711 308.40234 C 224.70638 342.86243 242.53904 366.55026 242.53516 379.46875 C 242.53316 385.13163 240.07935 387.82688 237.91992 384.08398 C 224.98997 361.67301 217.08687 348.28574 212.09766 345.32227 C 207.91468 342.83765 201.18808 349.49257 203.78516 353.62305 C 214.96136 371.3988 219.46094 388.49358 225.91797 401.61328 C 232.20837 414.39434 241.66417 420.21965 252.5 425.36523 C 312.3052 533.01434 336.53101 562.0903 380.93164 595.39062 C 389.54403 595.39062 415.38008 582.47325 458.44141 556.63672 L 497.19727 586.16406 C 510.71165 581.96348 523.51449 577.91621 535.79297 573.95703 C 539.23344 585.02582 542.94123 596.43435 546.91016 608.17578 C 560.12321 647.26497 575.06272 702.70424 582.95117 761.49609 C 492.21276 656.90471 434.0288 602.18465 408.40039 597.33594 L 408.39844 597.33594 C 379.30678 602.18465 360.25847 612.57291 351.25391 628.50391 C 326.31828 683.91675 305.19349 776.73494 287.87695 906.95508 C 280.95027 933.96873 268.13541 949.20639 249.43359 952.66992 C 230.73187 956.13308 204.41108 962.36839 170.4707 971.37305 C 138.60839 969.98758 135.49082 979.33651 161.11914 999.42383 L 340.86523 999.42383 C 349.1757 992.49714 350.38728 981.41628 344.5 966.17773 C 338.61234 950.93918 341.2084 923.92542 352.29102 885.13672 C 371.96889 842.20329 384.99327 805.27671 391.36523 774.35547 L 390.73242 885.13672 C 362.33222 907.99442 349.51728 930.15841 352.28906 951.63086 L 377.22461 994.23047 C 391.0777 1007.3907 447.18323 998.04016 545.54102 966.17773 C 628.66024 930.15944 674.02925 909.57422 681.64844 909.57422 C 693.42347 924.81279 693.42347 950.84287 681.64844 977.16406 C 661.56106 984.09043 654.28857 991.36309 659.83008 998.98242 C 672.29789 1000.3666 685.80586 999.84699 700.35156 997.42383 C 714.89734 994.99922 725.63386 971.5673 732.56055 937.62695 C 739.48592 903.68661 743.29455 879.79054 743.98828 865.9375 C 744.68105 852.08546 738.79398 844.81096 726.32617 844.11719 C 738.10253 824.72268 738.44991 795.43762 727.36719 751.10742 C 726.48518 737.17047 726.79372 722.19936 728.29297 706.19531 C 729.09745 685.17268 733.77964 661.78908 735.17383 639.33398 C 737.73546 598.06563 742.57255 559.50101 749.6875 523.64062 C 756.80282 487.77992 750.54024 460.59913 730.90234 442.09961 C 711.2632 423.6001 702.58339 394.71156 704.86133 355.43555 C 720.23018 349.7436 735.03155 338.21863 749.26172 320.85742 C 763.49225 303.49624 770.60547 280.01511 770.60547 250.41602 C 770.60547 219.67828 757.37082 199.18733 730.90234 188.94141 C 711.0505 181.25721 689.11916 177.73647 665.10547 178.37695 z M 671.0332 194.28906 C 682.91561 195.00072 696.04329 197.20629 710.41602 200.90625 C 739.16147 208.30587 753.5332 225.09714 753.5332 251.28125 C 753.5332 277.46505 743.99652 299.80517 724.92773 318.30469 C 705.85885 336.80424 693.48098 341.78635 687.78906 333.24805 C 682.09672 325.27912 686.93387 313.46798 702.30273 297.81445 C 731.61436 267.95996 719.26789 222.86952 663.88086 248.7168 L 663.88086 248.7207 C 654.77365 239.61309 633.99811 232.49602 601.55273 227.37305 C 607.81401 211.43515 620.33694 201.18871 639.12109 196.63477 C 648.5132 194.3581 659.15083 193.5774 671.0332 194.28906 z M 593.01172 241.88672 C 619.76493 243.59438 641.39482 250.42338 657.90234 262.37695 C 657.33294 272.05292 661.46029 272.33773 670.2832 263.23047 C 688.08971 244.8488 711.81465 254.28851 699.31641 279.87891 C 693.33978 292.11712 685.51058 302.5047 675.83398 311.04297 C 666.15714 319.58123 663.87897 327.9788 669.00195 336.23242 C 674.12333 344.486 677.53885 351.74459 679.24805 358.00586 C 677.78928 393.01541 684.22376 419.92603 698.54883 438.73633 C 631.31428 465.59757 590.9731 483.24185 543.78906 501.63867 C 542.74661 496.14339 541.79273 490.67195 540.92773 485.22266 C 540.35845 448.22363 555.30086 429.72266 585.75391 429.72266 C 616.20706 429.72266 631.43359 419.76235 631.43359 399.83984 C 631.43359 374.22409 620.90267 362.69947 599.8418 365.26172 C 578.78068 367.82337 569.95973 360.84899 573.375 344.3418 C 586.46685 337.51118 591.01947 332.53105 587.03516 329.40039 C 583.05058 326.26849 576.21955 324.13348 566.54297 322.99609 C 566.54297 317.87313 561.70394 313.31828 552.02734 309.33398 C 561.70394 287.70349 571.09593 272.62026 580.20312 264.08203 C 589.31076 258.96218 598.84727 258.82349 608.80859 263.66211 C 618.76983 268.49884 628.5887 271.77124 638.26562 273.48047 L 638.26562 267.50391 C 632.00406 266.9349 623.88904 263.94475 613.92773 258.53711 C 603.96651 253.12825 593.86499 252.1316 583.61914 255.54688 C 587.60245 249.8546 590.73386 245.30203 593.01172 241.88672 z M 689.4375 258.34961 C 687.66314 258.29661 685.54849 258.64107 683.09375 259.38867 C 669.17965 263.62332 656.87524 284.73871 661.32031 291.4082 C 649.4827 296.14355 648.04567 305.82659 657.05273 309.76367 C 666.94455 314.09155 689.41987 290.47452 694.19531 277.74414 C 696.75443 270.9135 697.18071 265.6492 695.47461 261.94922 C 694.40736 259.63694 692.39475 258.43799 689.4375 258.34961 z M 595.15039 265.1543 C 591.6261 265.33217 588.35213 266.39883 585.32812 268.35547 L 575.9375 276.03906 L 575.9375 282.87109 L 580.20508 282.01367 C 592.72801 288.27528 606.38793 288.27528 621.1875 282.01367 L 635.70508 285.42969 L 635.70508 277.74609 L 622.04492 276.89453 C 611.87022 268.67666 602.90384 264.76294 595.15039 265.1543 z M 684.83008 267.22852 C 688.18744 267.16242 689.59957 268.81752 689.06641 272.19727 C 688.21284 277.60489 685.65211 282.7281 681.38281 287.56641 C 677.11385 292.40626 673.12768 295.68063 669.42773 297.38672 C 665.72782 299.09438 665.72782 297.52778 669.42773 292.68945 C 673.12768 287.85243 673.12768 286.14469 669.42773 287.56641 C 665.72807 288.98941 665.01892 287.42471 667.29688 282.87109 C 669.57384 278.31745 672.70524 273.76294 676.68945 269.20898 L 676.68555 269.20703 C 680.10054 267.92675 682.81566 267.26823 684.83008 267.22852 z M 593.01367 270.91797 C 590.73571 273.76395 590.73571 276.89522 593.01367 280.31055 C 589.03044 279.17009 585.89892 277.74503 583.62109 276.03906 C 584.75968 273.76149 587.8912 272.05525 593.01367 270.91797 z M 604.11328 271.77344 L 616.06836 279.45508 C 610.94757 280.592 606.10861 281.16163 601.55664 281.16211 C 605.53786 278.8853 606.39053 275.75698 604.11328 271.77344 z M 659.60742 298.23242 C 664.16324 300.50813 665.15991 302.78653 662.59766 305.06445 C 660.03478 307.34548 658.04289 307.20484 656.62109 304.64258 C 655.1994 302.08282 656.19605 299.94751 659.61133 298.23828 L 659.60742 298.23242 z M 578.2207 307.08398 C 577.43232 307.08476 576.79102 308.67264 576.79102 310.62109 C 576.79102 313.92012 573.21856 317.31135 568.67578 311.47266 C 562.72003 303.81666 560.13968 308.90723 561.42188 312.75391 L 561.41797 312.75977 C 563.12469 311.05086 565.25808 311.76195 567.82031 314.89258 C 573.38303 321.68475 581.2827 316.45038 580.20312 311.04688 C 579.62785 308.17055 578.87392 307.08313 578.2207 307.08398 z M 564.25 327.61719 C 564.92599 327.59909 565.6911 327.62561 566.54492 327.69531 C 569.96021 327.97967 573.66021 328.40785 577.64453 328.97656 C 581.62858 329.54526 583.33623 330.11294 582.76758 330.68164 L 562.27344 330.68164 C 560.56735 330.68164 559.99969 330.11398 560.56836 328.97656 C 560.9954 328.12587 562.22215 327.67167 564.25 327.61719 z M 581.91016 333.24609 C 579.6414 335.51223 571.66989 339.22029 567.55859 339.73633 C 563.15037 340.28963 561.15245 338.26362 564.83789 335.80664 L 581.91016 333.24609 z M 727.9668 501.94336 C 727.58804 507.79101 726.57492 513.88595 724.92773 520.23047 C 718.54666 544.81016 710.54749 616.0071 704.4707 711.10352 C 680.61616 718.44718 648.07386 731.78477 606.84375 751.11133 L 605.88281 751.5293 C 597.76397 687.22003 583.05592 625.32359 559.76758 566.11328 C 618.2075 546.68402 666.53224 528.23337 727.9668 501.94336 z M 516.90625 505.71484 C 517.35275 507.59532 517.80854 509.48817 518.27539 511.39453 C 514.99579 512.62353 511.66529 513.8626 508.26953 515.11523 L 508.26953 511.42578 L 516.90625 505.71484 z M 416.80469 632.42773 C 433.07246 633.17044 480.48804 681.73522 559.05078 778.12305 C 500.86728 803.75148 452.72717 835.26803 414.63086 872.67188 L 414.63086 632.66406 C 415.28021 632.46925 416.00465 632.39119 416.80469 632.42773 z M 703.04492 734.48242 L 702.50391 754.22266 C 714.27904 793.70413 716.2847 825.22102 702.43164 848.77148 C 663.64265 871.62917 617.23431 885.82766 563.20703 891.36914 C 509.17946 896.91029 463.1178 916.99781 425.02148 951.63086 C 446.49395 898.98883 465.36694 864.87615 481.64453 849.29102 C 509.33506 822.77845 623.72196 755.63529 703.04492 734.48242 z M 760.75781 812.62695 C 755.50286 814.22598 749.1403 816.17594 760.8125 812.91211 C 760.7948 812.81691 760.77581 812.72222 760.75781 812.62695 z " />
  <path
     style="fill:#000000;fill-opacity:1;stroke:none;stroke-width:1"
     d="m 711.4969,-0.03506295 c -45.783,0 -80.0537,9.17231555 -102.8086,27.52272495 -17.0661,13.76309 -30.8868,20.642044 -41.4761,20.642044 -3.8122,0 -7.2086,-0.887489 -10.1813,-2.671939 -11.2306,-6.73838 -16.8525,-11.991129 -16.8525,-15.734756 0,-4.492134 -8.2395,-6.740972 -24.711,-6.740972 l 1.1351,37.075346 c -4.3474,7.825099 -9.5197,11.735578 -15.5077,11.735578 -4.3249,0 -9.0698,-2.048272 -14.2504,-6.129744 -8.9221,-7.029567 -18.0529,-10.54805 -27.3656,-10.54805 -3.5817,0 -7.1879,0.530175 -10.8274,1.57173 -13.1024,3.743252 -21.342,12.536397 -24.7111,26.387587 -3.3692,13.851196 -11.5913,22.644334 -24.6936,26.387584 -3.7435,1.06769 -7.407,1.60666 -10.9672,1.60666 -8.9004,0 -17.2186,-3.33952 -24.973,-10.02414 -6.462,-5.570638 -13.136,-8.365092 -19.9959,-8.365092 -4.6648,0 -9.419,1.30104 -14.2678,3.876932 -11.9793,6.36394 -18.3391,16.65049 -19.0878,30.87575 -0.7487,14.22563 -7.4949,24.14302 -20.2229,29.75807 -6.8185,3.00896 -13.5144,4.52309 -20.1181,4.52309 -5.7233,0 -11.3779,-1.12936 -16.9398,-3.38795 -4.5803,-1.8591 -9.0984,-2.79419 -13.5693,-2.79419 -7.2221,0 -14.2992,2.42659 -21.2358,7.28235 -11.2305,7.86129 -16.2815,18.90291 -15.1584,33.12856 1.123,14.22526 -4.1298,24.89808 -15.7348,32.01088 -10.4997,6.43524 -20.8397,9.65741 -31.0329,9.65741 -1.073,0 -2.1438,-0.0476 -3.2133,-0.12225 -0.7745,-0.0373 -1.5396,-0.0524 -2.3052,-0.0524 -10.336,0 -19.8746,4.70005 -28.588,14.11063 -9.359,10.1072 -11.4056,22.08902 -6.1647,35.94021 5.2409,13.8512 3.3612,25.83301 -5.6233,35.94021 -8.9844,10.10756 -19.472699,16.28267 -31.451999,18.52894 -11.9794,2.24736 -20.9568,9.36234 -26.9465,21.34059 -5.9896,11.97902 -4.8653,23.77646 3.3705,35.38137 8.2358,11.60496 9.1757,23.58641 2.8116,35.94021 -6.3639,12.35348 -14.9725,20.77744 -25.8287,25.26992 -10.8562,4.49211 -17.7869,13.46965 -20.7817,26.94642 -2.9948001,13.47677 1.5026,25.27381 13.4819,35.38137 11.9793,10.10756 17.7681,22.08939 17.3938,35.94018 -0.3743,13.85123 -6.7341,24.32182 -19.0878,31.43464 -12.3536,7.11249 -18.5289001,17.41649 -18.5289001,30.89324 0,13.47669 6.5617001,23.76287 19.6641001,30.87575 13.1023,7.11277 19.4621,17.41683 19.0877,30.89318 -0.3743,13.47675 -6.936,23.76293 -19.6641,30.87575 -12.7279,7.11282 -19.0877001,17.6013 -19.0877001,31.45202 0,13.85128 6.5617001,24.13751 19.6641001,30.87575 21.2013,13.76125 26.0473,55.2549 4.069,69.19107 -11.6049,7.11265 -17.4113,17.60113 -17.4113,31.45196 0,10.59801 3.6131,19.2136 10.8449,25.86365 1.5823,1.78034 3.3802,3.51777 5.3789,5.20423 11.9792,10.10754 17.7681,22.0894 17.3938,35.94012 -0.3744,13.85117 -6.7341,24.32165 -19.0878,31.43459 -11.8187,6.80456 -17.9824001,12.82788 -18.4940001,25.45821 H 42.778501 c 0.5116,-12.63033 6.6752,-18.6537 18.494,-25.45816 12.3536,-7.11299 18.2618,-17.5861 18.5289,-31.43458 0.3066,-15.89109 -7.2718,-30.55878 -14.5297,-35.57342 -24.7914,-17.12919 -20.6977,-50.9252 -1.694,-67.37479 10.6307,-8.96967 15.3758,-19.26971 14.2154,-30.89324 -5e-4,-0.006 6e-4,-0.0117 0,-0.0173 0.1242,-1.12869 0.2118,-2.28017 0.2445,-3.45781 0.3744,-13.47675 -5.8009,-23.59594 -18.5289,-30.3344 -12.728,-6.73835 -19.0878,-17.02447 -19.0878,-30.87575 0,-13.85077 6.1753,-24.3392 18.5289,-31.45202 12.3537,-7.11282 18.7135,-17.399 19.0878,-30.87575 0.3744,-13.47635 -5.8009,-23.78041 -18.5289,-30.89318 -12.728,-7.11288 -19.0878,-17.39906 -19.0878,-30.87575 0,-13.4768 6.1753,-23.78075 18.5289,-30.89324 12.3537,-7.11282 18.529,-17.58341 18.529,-31.43458 0,-13.85084 -5.8063,-24.33927 -17.4113,-31.45208 -11.6049,-7.1128 -16.085,-17.60121 -13.4645,-31.45205 2.6205,-13.85119 8.9803,-21.88853 19.0878,-24.13477 10.1076,-2.24739 18.3471,-9.36273 24.7111,-21.34059 6.364,-11.97938 5.4241,-23.592 -2.8117,-34.82254 -8.2357,-11.23086 -9.5445,-23.01043 -3.9293,-35.3639 5.6153,-12.3538 13.6704,-18.54641 24.152199,-18.54641 10.4819,0 20.2148,-5.05089 29.1993,-15.15845 8.9845,-10.1072 10.6623,-21.51798 5.047,-34.24624 -5.6153,-12.72789 -3.753,-24.34055 5.6058,-34.82253 7.4871,-8.38548 14.8615,-12.57383 22.109,-12.57383 1.8119,0 3.6168,0.26319 5.4137,0.78586 2.3294,0.67942 4.7518,1.01289 7.2824,1.01289 7.2303,0 15.2962,-2.76672 24.1697,-8.3127 11.9793,-7.48726 17.3992,-18.34447 16.2761,-32.56972 -1.1231,-14.22525 3.9279,-25.26687 15.1585,-33.12856 6.5512,-4.58583 12.9187,-6.88068 19.0878,-6.88068 4.4064,0 8.7116,1.16952 12.9231,3.51019 5.228,2.90444 10.801,4.36592 16.7302,4.36592 5.5338,0 11.3714,-1.27598 17.516,-3.80708 12.728,-5.24063 19.6587,-14.97362 20.7818,-29.19924 1.123,-14.22529 7.8692,-24.51182 20.2229,-30.87574 4.884,-2.51616 9.4337,-3.77215 13.6741,-3.77215 6.4852,0 12.2218,2.9338 17.2016,8.81914 5.9481,7.0292 13.2701,10.54805 21.9519,10.54805 3.3391,0 6.8743,-0.51644 10.6179,-1.55426 13.4767,-3.74364 21.7162,-12.35201 24.711,-25.82875 2.9949,-13.47676 9.7236,-21.900727 20.2055,-25.269917 2.5496,-0.817573 5.1505,-1.239919 7.7888,-1.239919 8.2079,0 16.8507,3.977964 25.9161,11.910216 5.9896,5.241 11.4095,7.85864 16.2761,7.85864 4.8666,0 9.1795,-2.61764 12.9231,-7.85864 l -1.1351,41.54604 c 16.4715,0 24.711,-2.24886 24.711,-6.74097 0,-3.74363 5.6218,-9.16369 16.8525,-16.27613 3.0481,-1.93005 6.5297,-2.89897 10.4607,-2.89897 10.5513,0 24.2868,6.95929 41.1967,20.86907 23.21,19.09223 58.5838,28.6404 106.1267,28.6404 47.5429,0 71.1371,-27.88991 70.7628,-83.668383 C 785.2033,28.448393 761.4244,0.37444167 714.2562,4.0686476e-6 713.3315,-0.00709316 712.4127,-0.01743165 711.4969,-0.01743165 Z M 703.0271,22.999502 c 38.9326,0 58.3984,20.203553 58.3985,60.633821 0,39.681387 -19.6504,59.718027 -58.9574,60.092447 -0.7146,0.007 -1.4216,0 -2.1306,0 -38.2782,0 -68.0787,-9.91064 -89.3964,-29.75807 -13.6334,-12.69317 -28.0084,-19.052854 -43.1178,-19.052854 -8.9536,0 -18.173,2.231168 -27.645,6.688584 V 65.663219 c 9.472,4.457407 18.6914,6.688581 27.645,6.688581 15.1094,0 29.4844,-6.342225 43.1178,-19.035387 21.7125,-20.215137 52.4043,-30.316911 92.0859,-30.316911 z"
     id="path2989" />
</svg>
