<?xml version="1.0" encoding="UTF-8" standalone="no"?>
<svg
   width="1100"
   height="1000"
   id="svg2277"
   sodipodi:version="0.32"
   inkscape:version="1.4.2 (f4327f4, 2025-05-13)"
   sodipodi:docname="13513.svg"
   inkscape:output_extension="org.inkscape.output.svg.inkscape"
   version="1.0"
   sodipodi:modified="true"
   xmlns:inkscape="http://www.inkscape.org/namespaces/inkscape"
   xmlns:sodipodi="http://sodipodi.sourceforge.net/DTD/sodipodi-0.dtd"
   xmlns="http://www.w3.org/2000/svg"
   xmlns:svg="http://www.w3.org/2000/svg"
   xmlns:rdf="http://www.w3.org/1999/02/22-rdf-syntax-ns#"
   xmlns:cc="http://creativecommons.org/ns#"
   xmlns:dc="http://purl.org/dc/elements/1.1/">
  <metadata
     id="metadata2284">
    <rdf:RDF>
      <cc:Work
         rdf:about="">
        <dc:format>image/svg+xml</dc:format>
        <dc:type
           rdf:resource="http://purl.org/dc/dcmitype/StillImage" />
      </cc:Work>
    </rdf:RDF>
  </metadata>
  <defs
     id="defs2282">
    <inkscape:perspective
       sodipodi:type="inkscape:persp3d"
       inkscape:vp_x="0 : -789.77562 : 1"
       inkscape:vp_y="0 : 1000 : 0"
       inkscape:vp_z="11.321417 : -789.77562 : 1"
       inkscape:persp3d-origin="5.6607084 : -793.18375 : 1"
       id="perspective7" />
  </defs>
  <sodipodi:namedview
     inkscape:window-height="998"
     inkscape:window-width="1680"
     inkscape:pageshadow="2"
     inkscape:pageopacity="0.0"
     guidetolerance="10.0"
     gridtolerance="10.0"
     objecttolerance="10.0"
     borderopacity="1.0"
     bordercolor="#666666"
     pagecolor="#ffffff"
     id="base"
     showgrid="false"
     inkscape:zoom="0.53386562"
     inkscape:cx="491.69677"
     inkscape:cy="429.88346"
     inkscape:window-x="-8"
     inkscape:window-y="-8"
     inkscape:current-layer="svg2277"
     inkscape:showpageshadow="2"
     inkscape:pagecheckerboard="0"
     inkscape:deskcolor="#d1d1d1"
     inkscape:window-maximized="1"
     showguides="true">
    <sodipodi:guide
       position="0,0"
       orientation="0,-1"
       id="guide2"
       inkscape:locked="false" />
    <sodipodi:guide
       position="1100,1000"
       orientation="0,-1"
       id="guide4"
       inkscape:locked="false" />
    <sodipodi:guide
       position="655.77148,819.53125"
       orientation="0,-1"
       id="guide3"
       inkscape:locked="false" />
    <sodipodi:guide
       position="790.01172,747.34961"
       orientation="1,0"
       id="guide5"
       inkscape:locked="false" />
  </sodipodi:namedview>
  <path
     id="path2989"
     style="fill:#000000;fill-opacity:1;stroke:none;stroke-width:1"
     d="M 711.49609 -0.03515625 C 665.71309 -0.03515625 631.4424 9.1378718 608.6875 27.488281 C 591.6214 41.251371 577.80219 48.128906 567.21289 48.128906 C 563.40069 48.128906 560.00395 47.241481 557.03125 45.457031 C 545.80065 38.718651 540.17773 33.466283 540.17773 29.722656 C 540.17773 25.230522 531.9383 22.982422 515.4668 22.982422 L 516.60156 60.056641 C 512.25416 67.88174 507.0837 71.792969 501.0957 71.792969 C 496.7708 71.792969 492.02435 69.745534 486.84375 65.664062 C 477.92165 58.634495 468.79122 55.115234 459.47852 55.115234 C 455.89682 55.115234 452.29184 55.645945 448.65234 56.6875 C 435.54994 60.430752 427.30855 69.223029 423.93945 83.074219 C 420.57025 96.925415 412.34839 105.71964 399.24609 109.46289 C 395.50259 110.53058 391.8395 111.06836 388.2793 111.06836 C 379.3789 111.06836 371.06104 107.72954 363.30664 101.04492 C 356.84464 95.474284 350.17045 92.679688 343.31055 92.679688 C 338.64575 92.679688 333.89177 93.980749 329.04297 96.556641 C 317.06367 102.92058 310.70378 113.20638 309.95508 127.43164 C 309.20638 141.65727 302.46042 151.5744 289.73242 157.18945 C 282.91392 160.19841 276.21698 161.71289 269.61328 161.71289 C 263.88998 161.71289 258.23573 160.58476 252.67383 158.32617 C 248.09353 156.46707 243.57637 155.53125 239.10547 155.53125 C 231.88337 155.53125 224.80574 157.95869 217.86914 162.81445 C 206.63864 170.67574 201.58784 181.71576 202.71094 195.94141 C 203.83394 210.16667 198.58156 220.84033 186.97656 227.95312 C 176.47686 234.38836 166.13656 237.61133 155.94336 237.61133 C 154.87036 237.61133 153.79997 237.56293 152.73047 237.48828 C 151.95597 237.45098 151.18943 237.43555 150.42383 237.43555 C 140.08783 237.43555 130.54934 242.13629 121.83594 251.54688 C 112.47694 261.65407 110.43098 273.63514 115.67188 287.48633 C 120.91277 301.33753 119.03333 313.32053 110.04883 323.42773 C 101.06443 333.53529 90.575003 339.70881 78.595703 341.95508 C 68.123906 343.91961 59.946194 349.60516 54.052734 359.00586 C 49.330685 358.14523 46.009692 358.73361 44.089844 360.77344 C 40.314981 364.78445 41.576957 370.41045 47.875 377.65234 C 47.713026 384.72781 50.094271 391.73764 55.019531 398.67773 C 63.255331 410.28269 64.196131 422.26339 57.832031 434.61719 C 51.468131 446.97067 42.860106 455.39619 32.003906 459.88867 C 21.147706 464.38078 14.217456 473.35721 11.222656 486.83398 C 8.2278562 500.31075 12.723825 512.10728 24.703125 522.21484 C 36.682425 532.3224 42.471956 544.30546 42.097656 558.15625 C 41.723356 572.00748 35.363466 582.47702 23.009766 589.58984 C 10.656166 596.70233 4.4804688 607.00762 4.4804688 620.48438 C 4.4804688 633.96106 11.042131 644.2465 24.144531 651.35938 C 37.246831 658.47214 43.606822 668.7756 43.232422 682.25195 C 42.858122 695.7287 36.296459 706.01609 23.568359 713.12891 C 10.840459 720.24173 4.4804688 730.72936 4.4804688 744.58008 C 4.4804688 758.43136 11.042131 768.71879 24.144531 775.45703 C 45.345831 789.21828 50.191191 830.71031 28.212891 844.64648 C 16.607991 851.75913 10.802734 862.24878 10.802734 876.09961 C 10.802734 886.69762 14.414684 895.31284 21.646484 901.96289 C 23.228784 903.74323 25.026691 905.48151 27.025391 907.16797 C 39.004591 917.27551 44.794222 929.2567 44.419922 943.10742 C 44.045522 956.95859 37.685731 967.42808 25.332031 974.54102 C 13.513331 981.34558 7.3494906 987.36967 6.8378906 1000 L 42.779297 1000 C 43.290897 987.36967 49.454637 981.34548 61.273438 974.54102 C 73.627038 967.42803 79.533681 956.9559 79.800781 943.10742 C 80.107381 927.21633 72.529384 912.54784 65.271484 907.5332 C 40.480084 890.40401 44.574425 856.60779 63.578125 840.1582 C 74.208825 831.18853 78.953369 820.88916 77.792969 809.26562 C 77.792469 809.25963 77.793569 809.25365 77.792969 809.24805 C 77.917169 808.11936 78.004409 806.96866 78.037109 805.79102 C 78.411509 792.31427 72.235813 782.19549 59.507812 775.45703 C 46.779812 768.71868 40.421875 758.43136 40.421875 744.58008 C 40.421875 730.72931 46.595619 720.24173 58.949219 713.12891 C 71.302919 706.01609 77.662809 695.7287 78.037109 682.25195 C 78.411509 668.7756 72.235813 658.47215 59.507812 651.35938 C 46.779812 644.24649 40.421875 633.96107 40.421875 620.48438 C 40.421875 607.00757 46.595619 596.70233 58.949219 589.58984 C 71.302919 582.47702 77.478516 572.00742 77.478516 558.15625 C 77.478516 544.30541 71.673359 533.81594 60.068359 526.70312 C 48.463459 519.59033 43.983016 509.10279 46.603516 495.25195 C 49.224016 481.40076 55.583906 473.36343 65.691406 471.11719 C 75.799006 468.8698 84.038344 461.7552 90.402344 449.77734 C 96.766344 437.79796 95.825644 426.18366 87.589844 414.95312 C 84.772626 411.11134 82.76655 407.20558 81.570312 403.23438 C 86.815048 406.2437 92.481433 409.22454 98.568359 412.17578 C 117.89865 421.54792 147.47986 423.01189 187.3125 416.56836 C 274.59276 495.64671 330.82556 535.77265 356.01367 536.94531 C 374.17283 535.18814 430.40759 520.25013 524.7168 492.13281 C 532.33178 540.16615 540.387 571.35927 548.88086 585.71094 C 557.37441 600.06231 573.9227 663.47304 598.52539 775.94141 L 447.41797 646.7793 C 424.57305 626.27695 404.36446 616.02539 386.79102 616.02539 C 338.75768 616.61141 317.96272 636.52682 324.40625 675.77344 L 349.00977 875.23047 C 312.69206 885.18863 295.99717 913.01223 298.92578 958.70117 C 281.93836 961.62977 266.56057 966.16842 252.79492 972.32031 C 239.02927 978.4722 225.11906 981.10953 211.06055 980.22852 C 197.00204 979.35055 187.62778 985.94026 182.94141 1000 L 914.86328 1000 C 899.63333 970.71092 878.25199 959.14021 850.7207 965.28906 C 823.1894 971.44095 804.59108 959.28877 794.92578 928.83008 C 785.26048 898.36897 768.71415 891.92492 745.2832 909.49805 C 767.54119 866.7365 768.41806 821.92409 747.91602 775.0625 C 749.08746 694.81149 760.5098 616.61129 782.18359 540.46094 C 816.74414 577.95039 842.51845 608.11796 859.50586 630.96289 C 855.40551 676.06762 853.35547 733.76605 853.35547 804.05859 C 839.88268 823.97492 833.14648 849.16285 833.14648 879.62305 C 833.14648 910.09419 836.22238 925.17879 842.37305 924.875 C 848.52342 924.58213 853.6477 912.42683 857.74805 888.41016 C 887.03682 888.41016 901.68164 879.9171 901.68164 862.92969 C 901.68164 846.528 897.87475 826.61064 890.25977 803.17969 C 901.38938 734.64431 908.70998 677.53195 912.22461 631.8418 C 898.1661 594.93807 865.07118 535.48278 812.9375 453.47461 L 813.81641 453.47461 C 798.58616 421.84266 767.83251 406.02539 721.55664 406.02539 L 721.55664 362.9707 C 737.37231 356.52717 752.60352 344.5204 767.24805 326.94727 C 781.89228 309.37413 789.21484 285.0635 789.21484 254.01758 C 789.21484 222.97135 775.44927 202.1767 747.91797 191.63281 C 720.38668 181.08893 690.07281 178.01469 656.97656 182.4082 C 623.88031 186.80141 600.00946 212.42716 585.36523 259.28906 C 577.16453 269.83294 567.79193 284.1849 557.24805 302.34375 C 551.96502 314.6451 551.81374 321.52788 556.79297 322.99219 C 561.7719 324.45679 566.01857 326.65342 569.5332 329.58203 C 559.25903 336.91909 565.99846 340.26955 570.41211 341.00586 C 572.16806 340.41953 571.58094 341.59092 568.65234 344.51953 C 565.72282 347.44813 566.16126 349.93765 569.96875 351.98828 C 573.77624 354.03831 575.68164 360.33503 575.68164 370.87891 C 575.68164 380.83707 581.2451 385.81641 592.375 385.81641 C 605.26177 385.81641 614.63438 385.23124 620.49219 384.05859 L 624.00586 411.29688 C 596.47457 410.71054 571.87106 411.00313 550.19727 412.17578 C 528.52378 413.34722 505.09436 420.52319 479.90625 433.70312 C 454.71784 446.88306 415.76433 461.08841 363.04492 476.31836 C 337.27078 457.57379 306.81033 439.41328 271.66406 421.83984 C 236.51748 404.2667 209.13292 386.84082 189.50977 369.56055 C 176.70228 358.28237 159.58977 349.93594 138.17383 344.52148 C 146.13244 334.75482 147.42282 323.79781 142.05859 311.63867 C 136.44329 298.91078 138.30722 287.29839 147.66602 276.81641 C 155.15312 268.43093 162.52594 264.24219 169.77344 264.24219 C 171.58534 264.24219 173.3906 264.50663 175.1875 265.0293 C 177.5169 265.70872 179.9401 266.04102 182.4707 266.04102 C 189.701 266.04102 197.76713 263.2745 206.64062 257.72852 C 218.61992 250.24126 224.03912 239.38345 222.91602 225.1582 C 221.79292 210.93295 226.84362 199.89294 238.07422 192.03125 C 244.62542 187.44542 250.99301 185.15039 257.16211 185.15039 C 261.56851 185.15039 265.87444 186.31949 270.08594 188.66016 C 275.31394 191.5646 280.88721 193.02539 286.81641 193.02539 C 292.35021 193.02539 298.18743 191.74985 304.33203 189.21875 C 317.06003 183.97812 323.99018 174.24515 325.11328 160.01953 C 326.23628 145.79424 332.98224 135.50845 345.33594 129.14453 C 350.21994 126.62837 354.76937 125.37109 359.00977 125.37109 C 365.49497 125.37109 371.23309 128.30607 376.21289 134.19141 C 382.16099 141.22061 389.48226 144.73828 398.16406 144.73828 C 401.50316 144.73828 405.03765 144.22141 408.78125 143.18359 C 422.25795 139.43995 430.49739 130.83221 433.49219 117.35547 C 436.48709 103.87871 443.21732 95.455128 453.69922 92.085938 C 456.24882 91.268365 458.84803 90.845703 461.48633 90.845703 C 469.69423 90.845703 478.33694 94.823607 487.40234 102.75586 C 493.39194 107.99686 498.81309 110.61523 503.67969 110.61523 C 508.54629 110.61523 512.85796 107.99686 516.60156 102.75586 L 515.4668 144.30273 C 531.9383 144.30273 540.17773 142.05266 540.17773 137.56055 C 540.17773 133.81692 545.80055 128.3976 557.03125 121.28516 C 560.07935 119.35511 563.56119 118.38672 567.49219 118.38672 C 578.04349 118.38672 591.7776 125.34608 608.6875 139.25586 C 631.8975 158.34809 667.27155 167.89648 714.81445 167.89648 C 762.35735 167.89648 785.95242 140.00504 785.57812 84.226562 C 785.20363 28.447749 761.42406 0.3744376 714.25586 0 C 713.33116 -0.0070972286 712.41189 -0.017578125 711.49609 -0.017578125 L 711.49609 -0.03515625 z M 703.02734 23 C 741.95994 23 761.42568 43.202545 761.42578 83.632812 C 761.42578 123.3142 741.77575 143.35214 702.46875 143.72656 C 701.75415 143.73356 701.04689 143.72656 700.33789 143.72656 C 662.05969 143.72656 632.25911 133.81423 610.94141 113.9668 C 597.30801 101.27363 582.93362 94.914063 567.82422 94.914062 C 558.87062 94.914062 549.64973 97.1461 540.17773 101.60352 L 540.17773 65.664062 C 549.64973 70.12147 558.87062 72.351562 567.82422 72.351562 C 582.93362 72.351562 597.30801 66.009568 610.94141 53.316406 C 632.65391 33.101269 663.34574 23 703.02734 23 z M 669.30859 196.90234 C 685.6737 195.80389 704.84007 198.00061 726.80664 203.49219 C 756.09541 210.8143 770.74023 228.24215 770.74023 255.77344 C 770.74023 282.71902 760.92816 305.56402 741.30469 324.30859 C 721.68123 343.05347 709.23303 348.32404 703.96094 340.12305 C 697.51741 331.33663 702.35015 319.03667 718.45898 303.2207 C 749.30621 272.93488 735.45779 225.28174 678.48047 253.13672 C 669.69406 243.17887 648.60591 235.56311 615.2168 230.29102 C 621.66033 213.88933 634.54665 203.49282 653.87695 199.09961 C 658.7096 198.00123 663.85356 197.26849 669.30859 196.90234 z M 606.42969 245.22852 C 633.96098 246.98568 656.21961 254.01506 673.20703 266.31641 C 672.6213 276.86151 676.86964 277.44667 685.94922 268.07422 C 704.2481 249.18574 728.88053 257.95195 715.38477 284.33008 C 708.94124 296.92399 700.886 307.61562 691.2207 316.40234 C 681.5554 325.18875 679.35877 333.975 684.63086 342.76172 C 689.90113 351.54844 693.41679 359.16224 695.17578 365.60547 C 694.58975 412.46798 698.39666 436.33883 706.59766 437.2168 C 714.79836 438.08566 730.90716 438.67276 754.92383 438.97656 C 778.94202 439.26942 779.8217 470.0211 757.5625 531.23438 C 735.30269 592.44765 722.70791 674.3101 719.7793 776.82031 L 637.18359 795.26953 C 602.03732 658.19846 580.21621 583.80516 571.72266 572.08984 C 563.2288 560.37421 556.93238 525.22761 552.83203 466.65039 C 552.83203 434.43302 568.20787 421.69133 598.96094 428.42773 C 629.71339 435.16412 645.38242 428.28135 645.96875 407.7793 C 645.96875 382.00608 635.13246 370.29054 613.45898 372.63281 C 591.78519 374.976 582.70607 367.94856 586.2207 351.54688 C 599.10777 343.9316 603.64733 338.51279 599.83984 335.29102 C 596.03235 332.06986 589.14958 330.16641 579.19141 329.58008 C 579.19141 323.72257 574.21207 318.74323 564.25391 314.64258 C 574.21207 292.38337 583.87756 276.85899 593.25 268.07227 C 602.62214 263.3862 612.43422 263.3862 622.68555 268.07227 C 632.93657 272.75925 643.0402 276.27492 652.99805 278.61719 L 652.99805 271.58789 C 646.55482 271.00217 638.20805 267.92628 627.95703 262.36133 C 617.7057 256.79668 607.30755 256.06567 596.76367 260.16602 C 600.2786 253.72249 603.50108 248.74315 606.42969 245.22852 z M 705.23633 262.25586 C 703.5319 262.21218 701.50716 262.51822 699.12891 263.24219 C 685.15426 267.49496 671.13391 288.82532 675.84375 297.07031 L 675.8418 297.07227 C 665.0595 300.66617 662.77892 311.94543 672.32812 315.52344 C 682.55539 319.35841 704.71992 295.95416 710.11133 283.01367 C 714.30824 272.9402 714.44022 262.49171 705.23633 262.25586 z M 608.54688 269.55078 C 604.97733 269.66519 601.63536 270.63818 598.52344 272.46875 L 588.85938 280.37695 L 588.85938 287.40625 L 593.25195 287.4082 C 605.55299 293.85173 619.61176 293.85173 635.42773 287.4082 L 650.36523 290.92188 L 650.36523 282.13477 L 635.42773 281.25586 C 625.35983 273.20137 616.39988 269.29908 608.54688 269.55078 z M 701.38086 271.61914 C 704.01684 271.69117 705.16965 273.29159 704.83984 276.42188 C 704.25412 281.98683 701.7643 287.25935 697.37109 292.23828 C 692.97758 297.2169 688.8778 300.73062 685.07031 302.78125 C 681.26282 304.83158 681.26282 303.22131 685.07031 297.94922 C 688.8778 292.67743 688.8778 290.77397 685.07031 292.23828 C 681.26374 293.70258 680.53078 292.09232 682.87305 287.40625 C 685.21624 282.72018 688.43871 278.32691 692.53906 274.22656 C 696.38339 272.43253 699.33066 271.56312 701.38086 271.61914 z M 605.55273 275.10352 C 603.21046 278.03243 603.21046 281.25295 605.55273 284.76758 C 602.03719 283.59796 599.10789 282.42852 596.76562 281.25586 L 596.76562 281.25391 C 597.93737 278.90951 600.86666 276.85947 605.55273 275.10352 z M 616.97461 276.85938 L 629.27734 283.88867 C 624.59097 285.06133 619.90482 285.64844 615.21875 285.64844 L 615.2168 285.64648 C 619.31806 283.30329 619.90322 280.37401 616.97461 276.85938 z M 674.9668 303.2207 L 674.96875 303.23828 C 679.07001 306.16689 679.80102 308.6564 677.16406 310.70703 C 674.52893 312.74551 672.62577 312.59227 671.45312 310.25 C 670.28077 307.9059 671.45217 305.56297 674.9668 303.2207 z M 590.93359 312.63477 C 589.93102 312.67889 588.98759 314.58819 589.30078 316.39844 C 589.77897 319.25285 586.06659 323.73111 581.39258 317.7207 C 575.70924 310.4069 572.59 314.16949 573.92188 318.1582 C 575.67775 316.98947 577.87395 318.01594 580.50977 321.23633 C 586.2216 328.2132 593.38824 322.92694 592.81445 316.8418 C 592.52981 313.6959 591.71338 312.60045 590.93359 312.63477 z M 576.34961 333.70508 C 577.0585 333.72583 577.85971 333.80992 578.75391 333.97266 C 581.97568 334.55899 585.78452 335.14609 590.17773 335.73242 C 594.57154 336.31875 596.475 336.61133 595.88867 336.61133 L 574.80078 337.48633 C 570.94951 336.52727 571.38738 333.55979 576.34961 333.70508 z M 595.00781 339.24609 C 592.42872 341.82758 584.2814 345.22319 580.07031 346.27734 C 574.80723 346.27734 574.523 343.91842 576.55664 341.88477 L 595.00781 339.24609 z M 125.09961 356.06445 C 134.79908 360.6903 147.33563 369.72803 162.70898 383.17969 C 132.8325 387.60574 107.52837 384.45477 86.796875 373.72656 C 92.138129 365.27712 99.145798 361.04297 107.8125 361.04297 C 113.82094 361.04297 119.58327 359.3848 125.09961 356.06445 z M 384.12891 670.5 L 421.91211 670.5 L 590.61523 804.93555 L 401.70312 862.04883 C 405.80348 763.63897 399.94458 699.78877 384.12891 670.5 z M 724.16992 805.81445 C 737.64271 849.74744 730.02891 890.16463 701.32617 927.06836 C 658.56462 952.25708 606.86974 956.06488 546.24219 938.49023 C 485.61495 920.918 428.06281 924.43307 373.58594 949.03516 C 378.85773 929.70517 423.96137 898.07362 508.89844 854.14062 L 724.16992 805.81445 z " />
</svg>
