<?xml version="1.0" encoding="UTF-8" standalone="no"?>
<svg
   width="1250"
   height="1000"
   id="svg2277"
   sodipodi:version="0.32"
   inkscape:version="1.4.2 (f4327f4, 2025-05-13)"
   sodipodi:docname="13516.svg"
   inkscape:output_extension="org.inkscape.output.svg.inkscape"
   version="1.0"
   sodipodi:modified="true"
   xmlns:inkscape="http://www.inkscape.org/namespaces/inkscape"
   xmlns:sodipodi="http://sodipodi.sourceforge.net/DTD/sodipodi-0.dtd"
   xmlns="http://www.w3.org/2000/svg"
   xmlns:svg="http://www.w3.org/2000/svg"
   xmlns:rdf="http://www.w3.org/1999/02/22-rdf-syntax-ns#"
   xmlns:cc="http://creativecommons.org/ns#"
   xmlns:dc="http://purl.org/dc/elements/1.1/">
  <metadata
     id="metadata2284">
    <rdf:RDF>
      <cc:Work
         rdf:about="">
        <dc:format>image/svg+xml</dc:format>
        <dc:type
           rdf:resource="http://purl.org/dc/dcmitype/StillImage" />
      </cc:Work>
    </rdf:RDF>
  </metadata>
  <defs
     id="defs2282">
    <inkscape:perspective
       sodipodi:type="inkscape:persp3d"
       inkscape:vp_x="0 : -789.77562 : 1"
       inkscape:vp_y="0 : 1000 : 0"
       inkscape:vp_z="11.321417 : -789.77562 : 1"
       inkscape:persp3d-origin="5.6607084 : -793.18375 : 1"
       id="perspective7" />
  </defs>
  <sodipodi:namedview
     inkscape:window-height="998"
     inkscape:window-width="1680"
     inkscape:pageshadow="2"
     inkscape:pageopacity="0.0"
     guidetolerance="10.0"
     gridtolerance="10.0"
     objecttolerance="10.0"
     borderopacity="1.0"
     bordercolor="#666666"
     pagecolor="#ffffff"
     id="base"
     showgrid="false"
     inkscape:zoom="0.3775"
     inkscape:cx="819.86755"
     inkscape:cy="986.75497"
     inkscape:window-x="-8"
     inkscape:window-y="-8"
     inkscape:current-layer="svg2277"
     inkscape:showpageshadow="2"
     inkscape:pagecheckerboard="0"
     inkscape:deskcolor="#d1d1d1"
     inkscape:window-maximized="1"
     showguides="true">
    <sodipodi:guide
       position="0,0"
       orientation="0,-1"
       id="guide2"
       inkscape:locked="false" />
    <sodipodi:guide
       position="1100,1000"
       orientation="0,-1"
       id="guide4"
       inkscape:locked="false" />
  </sodipodi:namedview>
  <path
     id="path2989"
     style="fill:#000000;fill-opacity:1;stroke:none;stroke-width:1"
     d="M 391.77148 0.029296875 C 370.51485 -0.62028838 352.14957 9.833081 336.67578 31.386719 C 336.13668 32.138047 335.59849 32.882707 335.07031 33.630859 L 335.05664 33.621094 C 308.65246 71.022994 296.38019 104.30994 298.24805 133.48242 C 299.6492 155.36188 297.29853 170.61678 291.19141 179.26758 C 288.99283 182.38191 286.30894 184.64553 283.13672 186.04492 C 271.15491 191.33343 263.62082 192.89733 260.5625 190.73828 C 256.8927 188.14755 250.30421 193.58285 240.80469 207.03906 L 273.46289 230.0957 C 266.47979 233.7284 260.92417 239.67784 256.79102 247.94336 C 250.80142 259.92238 251.92631 271.71931 260.16211 283.32422 C 268.39791 294.92918 269.33676 306.90987 262.97266 319.26367 C 256.60876 331.61715 248.00073 340.04268 237.14453 344.53516 C 226.28833 349.02727 219.35808 358.0037 216.36328 371.48047 C 213.36848 384.95724 217.8664 396.75377 229.8457 406.86133 C 241.825 416.96889 247.61258 428.95194 247.23828 442.80273 C 246.86398 456.65396 240.50409 467.12351 228.15039 474.23633 C 215.79679 481.34882 209.62305 491.65411 209.62305 505.13086 C 209.62305 518.60755 216.18471 528.89298 229.28711 536.00586 C 242.38941 543.11863 248.74745 553.42209 248.37305 566.89844 C 247.99875 580.37519 241.43708 590.66257 228.70898 597.77539 C 215.98108 604.88821 209.62305 615.37584 209.62305 629.22656 C 209.62305 643.07784 216.18471 653.36528 229.28711 660.10352 C 250.48841 673.86477 255.33377 715.3568 233.35547 729.29297 C 221.75057 736.40562 215.94336 746.89526 215.94336 760.74609 C 215.94336 771.3441 219.55726 779.95932 226.78906 786.60938 C 228.37136 788.38972 230.16927 790.12799 232.16797 791.81445 C 244.14717 801.92199 249.9368 813.90319 249.5625 827.75391 C 249.23247 839.96341 244.25047 849.54584 234.61328 856.51758 L 143.00977 856.51758 L 143.00977 1000 L 578.96094 1000 L 578.96094 856.51758 L 270.53516 856.51758 C 280.08784 849.54535 284.70792 839.96108 284.94336 827.75391 C 285.24996 811.86282 277.67196 797.19433 270.41406 792.17969 C 245.62266 775.0505 249.71505 741.25428 268.71875 724.80469 C 279.34945 715.83502 284.09399 705.53564 282.93359 693.91211 C 282.93309 693.90611 282.93419 693.90013 282.93359 693.89453 C 283.05779 692.76584 283.14699 691.61514 283.17969 690.4375 C 283.55409 676.96075 277.37839 666.84198 264.65039 660.10352 C 251.92239 653.36517 245.5625 643.07784 245.5625 629.22656 C 245.5625 615.37579 251.7382 604.88821 264.0918 597.77539 C 276.4455 590.66257 282.80539 580.37519 283.17969 566.89844 C 283.55409 553.42209 277.37839 543.11863 264.65039 536.00586 C 251.92239 528.89298 245.5625 518.60755 245.5625 505.13086 C 245.5625 491.65406 251.7382 481.34882 264.0918 474.23633 C 276.4455 467.12351 282.62109 456.6539 282.62109 442.80273 C 282.62109 428.95189 276.81398 418.46242 265.20898 411.34961 C 253.60408 404.23681 249.12364 393.74928 251.74414 379.89844 C 254.36464 366.04725 260.72453 358.00991 270.83203 355.76367 C 280.93963 353.51628 289.17897 346.40169 295.54297 334.42383 C 301.90697 322.44445 300.96822 310.83015 292.73242 299.59961 C 284.49672 288.36875 283.18753 276.5898 288.80273 264.23633 C 291.96088 257.28833 295.89054 252.28881 300.58984 249.24414 L 339.91602 277.00781 C 349.41555 263.55159 352.32994 255.52235 348.66016 252.93164 C 345.60184 250.7726 344.41738 243.05405 345.08398 229.77734 C 345.26516 226.17412 346.48093 222.77194 348.74805 219.56055 C 354.83324 210.9408 368.44085 203.73364 389.55664 197.94141 C 418.5396 189.99122 446.741 166.59941 474.16016 127.75977 C 501.57932 88.920128 492.40064 53.558355 446.61719 21.695312 C 426.58675 7.7552198 408.30442 0.53452985 391.77148 0.029296875 z M 391.89258 26.310547 C 404.31626 25.959498 417.75289 30.882777 432.20312 41.083984 C 464.62038 63.969217 469.65836 91.5789 447.29492 123.90625 C 446.88851 124.49408 446.47334 125.06728 446.06445 125.64648 C 423.98847 156.91741 398.70389 175.54686 370.19531 181.51562 C 351.96306 185.33281 338.47764 193.40851 329.76367 205.75195 C 324.59991 213.06648 321.10646 221.88656 319.28516 232.19531 L 289.92383 211.4668 C 299.02801 206.29945 306.16827 200.05476 311.33203 192.74023 C 320.04599 180.39678 323.15525 164.99522 320.64844 146.53711 C 316.65604 117.14076 326.10487 86.241652 348.99023 53.824219 C 361.62026 35.933599 375.91928 26.761896 391.89258 26.310547 z M 575.60156 72.960938 C 561.01856 73.289997 547.47813 78.389645 534.97852 88.257812 C 509.97929 107.99383 491.9959 134.52695 481.03125 167.85938 C 470.06662 201.1918 481.68897 235.40144 515.89844 270.48828 C 521.16167 282.76882 529.4953 297.6812 540.89844 315.22461 C 547.91574 325.7504 553.61804 329.04074 558.00391 325.09375 C 562.38977 321.14812 566.33689 318.29715 569.8457 316.54102 C 570.72171 321.80289 572.4769 324.65386 575.10938 325.09375 C 577.73909 325.53365 579.93137 324.43718 581.6875 321.80469 C 583.44191 327.06941 586.0732 328.82254 589.58203 327.06641 C 593.0905 325.312 599.01056 326.40847 607.34375 330.35547 C 615.67696 334.30212 621.81863 333.64375 625.76562 328.38086 C 629.71295 323.11763 635.19364 313.46819 642.21094 299.43359 L 661.53711 305.87695 C 652.27492 332.752 651.53387 362.1826 659.31445 394.16992 C 667.20913 426.62531 673.78756 479.69478 679.05078 553.37695 C 653.61269 588.46379 638.26289 612.36493 633 625.08398 C 627.73677 637.80269 600.98235 664.7768 552.73828 706.00391 C 543.96657 712.14417 533.00132 720.47618 519.84375 731.00195 C 512.82611 736.26519 506.68672 742.40653 501.42383 749.42383 C 496.16094 756.44112 491.33702 766.74766 486.95117 780.34375 C 482.56496 793.93983 479.27461 805.78154 477.08203 815.86914 C 474.88911 825.95778 478.61689 832.53654 488.26562 835.60547 C 497.91369 838.67542 504.05503 834.50862 506.6875 823.10547 C 509.31895 811.70231 512.38801 800.95674 515.89648 790.86914 C 519.4053 780.78187 528.61537 770.91436 543.52734 761.26562 C 547.03549 757.7568 549.44743 756.44006 550.76367 757.31641 C 552.0799 758.19276 551.8616 759.94761 550.10547 762.58008 C 547.47402 766.96592 542.64851 772.66825 535.63086 779.68555 C 530.3673 784.94846 527.29823 790.21139 526.42188 795.47461 C 525.54449 800.73854 527.29772 803.80724 531.68359 804.68359 C 535.19241 805.56063 538.70051 801.61353 542.20898 792.8418 C 547.47222 786.70154 555.80583 779.02664 567.20898 769.81641 C 578.61214 760.60618 587.82254 743.72087 594.83984 719.16016 C 659.75029 670.03873 705.80163 616.53183 732.99414 558.63867 C 735.62662 475.30742 735.62662 420.04567 732.99414 392.85352 L 750.09961 392.85352 C 756.23918 448.99225 756.67728 509.51727 751.41406 574.42773 C 729.48477 598.98879 715.23111 619.16216 708.65234 634.95117 C 702.07354 650.74018 677.73108 678.37105 635.62695 717.84375 C 626.85559 723.984 615.89194 732.757 602.73438 744.16016 C 595.71672 748.54601 589.57539 754.46605 584.3125 761.92188 C 579.04961 769.37769 574.22568 779.90358 569.83984 793.5 C 565.45363 807.09609 562.16524 818.71845 559.97266 828.36719 C 557.77974 838.01594 561.50752 844.5947 571.15625 848.10352 C 580.80431 851.61235 586.94369 847.66523 589.57617 836.26172 C 592.20762 824.85859 595.27864 814.11462 598.78711 804.02734 C 602.29593 793.93975 611.506 783.6316 626.41797 773.10547 C 629.92612 770.47328 632.33807 769.59632 633.6543 770.47266 C 634.9671 771.34901 634.74683 772.66379 632.99414 774.41992 C 630.36235 779.68315 625.53878 785.38513 618.52148 791.52539 C 613.25791 797.66532 610.18689 803.14795 609.31055 807.97266 C 608.43316 812.79498 610.18835 816.08371 614.57422 817.83984 C 618.08304 818.71721 621.59113 814.76976 625.09961 805.99805 C 630.36284 799.85778 638.69647 792.18287 650.09961 782.97266 C 661.50278 773.76243 670.71317 756.4381 677.73047 731 C 742.64093 682.75593 786.93742 632.75714 810.62109 581.00391 C 816.76239 543.28598 821.36662 503.815 824.43555 462.58789 C 827.50414 421.36078 827.28387 397.67704 823.77539 391.53711 L 823.7832 391.53711 C 886.06221 392.41415 934.66785 396.79904 971.25195 404.69336 C 965.54407 421.35976 946.11129 453.15742 912.95703 500.08594 C 879.8031 547.01444 854.49206 593.28548 837.02344 638.89844 C 826.09005 678.37115 823.10254 707.31783 828.05859 725.73828 C 806.98105 792.40313 792.04998 842.40193 783.26562 875.73438 C 774.27454 906.43535 762.10705 924.63648 746.76562 930.33789 C 731.42458 936.03964 705.81751 945.03036 669.94141 957.31055 C 646.94688 966.08226 631.62646 974.85329 623.98242 983.625 C 616.3386 992.39499 619.82251 997.65989 634.43359 999.41602 C 649.0449 1001.1704 668.61013 998.97621 693.12695 992.83594 C 717.6438 986.69601 744.44913 987.35438 773.54297 994.81055 C 802.63578 1002.2663 815.91706 995.46822 813.38672 974.41602 C 814.22637 951.60972 822.22084 930.55726 837.37109 911.25977 C 888.25369 833.19141 911.62711 767.8428 907.49219 715.21289 C 907.17878 688.89775 918.8113 663.89852 942.38867 640.21484 L 1069.8301 640.21484 C 1141.1811 763.01845 1177.0671 844.74138 1178.1152 878.95117 C 1188.1066 911.40623 1183.5968 932.89576 1164.5879 943.42188 C 1145.5792 953.94696 1117.9648 960.52573 1081.7441 963.1582 C 1058.6161 975.43873 1046.3152 984.64915 1044.8398 990.78906 C 1043.3634 996.92933 1050.5196 1000 1066.3086 1000 C 1081.2206 1000 1099.704 999.34163 1121.7617 998.02539 C 1143.8194 996.70887 1172.8095 996.27105 1208.7305 996.71094 C 1244.6516 997.14947 1258.4082 982.01901 1250 951.31836 C 1244.6942 933.77494 1240.8651 910.09153 1238.5117 880.26758 C 1230.0174 778.51622 1215.0873 711.2663 1193.0938 684.95117 C 1181.3909 670.03918 1176.266 655.12681 1177.7207 640.21484 L 1188.248 640.21484 C 1184.7392 585.83051 1183.863 533.85914 1185.6191 484.29883 C 1187.3732 434.73888 1183.6438 392.41496 1174.4336 357.32812 C 1165.2233 322.24162 1145.4871 297.68142 1115.2246 283.64648 C 1084.9625 269.61188 1042.6405 250.75204 988.25586 227.06836 C 933.87153 203.38503 876.41718 188.91168 815.89258 183.64844 C 755.36764 178.38555 718.52475 187.15658 705.36719 209.96289 L 679.05273 200.75391 C 686.07002 149.00102 667.21213 110.84393 622.47656 86.283203 C 605.81018 77.073155 590.18457 72.631878 575.60156 72.960938 z M 575.85742 96.955078 C 587.35827 97.075003 599.82418 100.97124 613.25586 108.64648 C 636.93921 120.92668 650.97352 139.34749 655.35938 163.9082 C 659.74524 188.46892 656.67616 200.75 646.15039 200.75 C 635.62427 202.50441 627.07098 192.63529 620.49219 171.14453 C 613.91341 149.65548 602.0717 138.69184 584.9668 138.25195 C 567.86121 137.8131 558.87048 152.06711 557.99414 181.01367 C 544.83657 184.5225 527.73159 199.43485 506.67969 225.75 C 496.15357 211.71505 493.30258 195.26718 498.12695 176.4082 C 502.95133 157.54924 515.67144 137.15585 536.28516 115.22656 C 547.88018 102.89134 561.07062 96.800889 575.85742 96.955078 z M 586.50977 152.58008 C 592.03157 152.42922 597.65766 156.42526 603.38672 164.56641 C 611.71889 176.40843 617.20149 188.68915 619.83398 201.4082 C 622.46541 214.12827 628.82484 220.26801 638.91211 219.82812 C 648.99971 219.39168 657.55106 219.61194 664.56836 220.48828 C 690.00647 238.03171 708.8663 240.22398 721.14648 227.06641 C 732.54964 213.90781 765.88284 208.64487 821.14453 211.27734 C 876.40624 213.90914 961.92857 243.73423 1077.7148 300.75 L 985.61328 381.00977 C 932.98376 371.36115 879.47762 368.2922 825.09375 371.80078 C 829.47659 365.66059 827.50131 356.66966 819.16992 344.83008 C 810.83673 332.98807 797.6792 329.69967 779.69727 334.96289 C 761.71705 340.22579 751.84988 352.5049 750.09375 371.80273 C 698.34086 372.67976 676.41036 345.0489 684.30469 288.91016 C 653.6037 273.12115 635.18322 275.31537 629.04297 295.49023 C 622.90304 315.6651 611.50038 320.04964 594.83398 308.64648 L 604.04492 291.54297 L 597.46484 287.59375 L 585.62305 307.33008 L 577.72852 303.38086 C 572.46563 300.74943 565.88687 302.94364 557.99219 309.96094 C 543.08022 290.66311 533.86981 274.87393 530.36133 262.59375 C 531.23836 252.06763 536.06424 243.51435 544.83594 236.93555 C 553.60766 230.35678 561.06286 223.1209 567.20312 215.22656 L 561.93945 212.5918 C 558.43098 217.85471 551.63254 223.55701 541.54492 229.69727 C 531.45939 235.83754 525.53932 244.60857 523.7832 256.01172 C 521.15346 249.87146 518.96121 244.60852 517.20508 240.22266 C 531.23969 217.41635 547.46593 201.18781 565.88672 191.53906 C 575.53547 197.67899 578.16712 194.61026 573.78125 182.33008 C 569.39541 170.04954 571.15061 161.05883 579.04492 155.35742 C 581.51201 153.57563 583.99985 152.64865 586.50977 152.58008 z M 586.45117 159.26172 C 586.17534 159.2635 585.90107 159.27915 585.62695 159.30664 C 581.23972 159.74515 578.16871 163.03356 576.41602 169.17383 C 574.66059 175.31408 576.19517 182.76929 581.01953 191.54102 C 585.8439 200.31238 590.44812 204.69922 594.83398 204.69922 L 594.83594 204.70117 C 593.9596 210.8404 595.05607 215.2269 598.125 217.85938 C 601.1953 220.48842 604.92274 220.26815 609.30859 217.19922 C 613.69376 214.12927 614.35214 206.67371 611.2832 194.83203 C 608.21325 182.99002 604.26578 173.99768 599.44141 167.85742 C 594.91822 162.09995 590.58862 159.23494 586.45117 159.26172 z M 587.59961 167.77539 C 588.55555 167.72148 589.65129 168.18701 590.88477 169.17383 C 595.26958 172.68231 598.77767 177.50621 601.41016 183.64648 C 604.04263 189.78674 605.35938 195.04969 605.35938 199.43555 C 605.35938 203.82312 603.82479 202.9469 600.75586 196.80664 C 597.68693 190.66465 595.93208 189.78796 595.49219 194.17383 C 595.05264 198.55967 593.2994 198.55967 590.23047 194.17383 C 587.15879 189.78796 584.74683 184.5247 582.99414 178.38477 L 582.99023 178.38477 C 583.62067 171.45009 585.15664 167.91317 587.59961 167.77539 z M 569.83789 220.48438 L 561.94336 232.32617 C 544.40098 239.34346 536.06896 248.55386 536.94531 259.95703 L 539.57422 273.11328 L 544.83594 275.74805 L 546.1543 271.79883 C 558.43277 263.90414 565.4509 251.62503 567.20703 234.95898 L 577.73242 224.43164 L 569.83789 220.48438 z M 561.94141 237.58984 C 560.18802 243.73011 557.99575 248.55563 555.36328 252.06445 C 556.24066 247.67859 554.04839 245.48633 548.78516 245.48633 L 561.94141 237.58984 z M 542.20508 254.69531 C 543.95949 258.20378 547.03016 259.95898 551.41602 259.95898 C 547.90583 262.59146 545.27417 264.34632 543.52148 265.22266 L 543.51953 265.22266 C 541.76684 263.46825 541.32873 259.95819 542.20508 254.69531 z M 569.50391 284.62695 C 568.84579 284.62695 568.51758 284.95712 568.51758 285.61523 C 568.51758 286.93148 569.39621 288.02796 571.15234 288.9043 C 572.90847 289.78064 573.56489 291.09543 573.125 292.85156 C 572.68511 294.60425 570.93221 295.70074 567.86328 296.14062 C 564.79435 296.58051 563.25977 297.23889 563.25977 298.11523 C 561.50364 299.87135 560.84526 301.1881 561.28516 302.06445 C 561.72161 302.9408 562.8181 303.37891 564.57422 303.37891 L 564.57227 303.37695 C 564.57227 300.74482 566.54681 298.99158 570.49414 298.11523 C 574.44149 297.23888 576.41406 295.48404 576.41406 292.85156 C 576.41406 289.34344 575.09928 286.93148 572.4668 285.61523 C 571.15056 284.95712 570.16202 284.62695 569.50391 284.62695 z M 1100.082 319.16992 C 1136.9225 336.71334 1154.9057 380.35306 1154.0293 450.08789 C 1153.153 519.8227 1152.7148 572.67249 1152.7148 608.63672 L 882.00586 608.63672 C 899.42407 573.54988 922.00101 537.14602 949.73828 499.42773 C 977.47589 461.70944 994.69808 429.69404 1001.4023 403.37891 L 1100.082 319.16992 z M 173.00977 886.51758 L 548.96094 886.51758 L 548.96094 970 L 173.00977 970 L 173.00977 886.51758 z " />
</svg>
