<?xml version="1.0" encoding="UTF-8" standalone="no"?>
<svg
   width="800"
   height="1000"
   version="1.1"
   id="svg1"
   sodipodi:docname="13549.svg"
   inkscape:version="1.4.2 (f4327f4, 2025-05-13)"
   xmlns:inkscape="http://www.inkscape.org/namespaces/inkscape"
   xmlns:sodipodi="http://sodipodi.sourceforge.net/DTD/sodipodi-0.dtd"
   xmlns="http://www.w3.org/2000/svg"
   xmlns:svg="http://www.w3.org/2000/svg">
  <defs
     id="defs1" />
  <sodipodi:namedview
     id="namedview1"
     pagecolor="#ffffff"
     bordercolor="#666666"
     borderopacity="1.0"
     inkscape:showpageshadow="2"
     inkscape:pageopacity="0.0"
     inkscape:pagecheckerboard="0"
     inkscape:deskcolor="#d1d1d1"
     inkscape:zoom="0.53386562"
     inkscape:cx="935.62871"
     inkscape:cy="420.51781"
     inkscape:window-width="1680"
     inkscape:window-height="998"
     inkscape:window-x="-8"
     inkscape:window-y="-8"
     inkscape:window-maximized="1"
     inkscape:current-layer="svg1"
     showguides="true">
    <sodipodi:guide
       position="800,1000"
       orientation="0,-1"
       id="guide1"
       inkscape:locked="false" />
    <sodipodi:guide
       position="800,0"
       orientation="0,-1"
       id="guide2"
       inkscape:locked="false" />
  </sodipodi:namedview>
  <path
     id="path11"
     style="fill:#000000;stroke:none;stroke-width:1"
     d="m 243.6604,0.0017767 c -4.36416,0.07724181 -9.94559,2.1256211 -16.74287,6.1421968 L 69.964373,284.21204 c -14.830472,-6.59129 -27.6031,-9.06051 -38.313969,-7.41268 -10.710868,1.64783 -18.742151,14.41683 -24.0975652,38.31034 -5.3554534,23.89349 0.6169486,38.72322 17.9191212,44.49061 L 1.9906075,396.67822 c -4.9434774,19.77392 5.3545473,25.54023 30.8958475,17.3011 L 56.36962,371.95901 c 14.006558,6.59131 35.426828,14.00798 64.2638,22.24711 L 231.86355,538.8042 c 9.88698,16.47826 29.24843,7.00273 58.08535,-28.42556 33.78046,-41.19564 58.49787,-72.91763 74.15221,-95.16327 37.80491,83.16927 53.11759,194.86673 73.7698,285.41188 L 310.50323,600.97106 c -25.45185,-23.04427 -47.84836,-34.56232 -67.10925,-34.56232 -53.99924,0.68772 -77.83492,22.98285 -71.64386,67.00776 l 27.50849,237.80578 c -28.1892,24.58568 -40.65663,48.29733 -37.48389,71.14 l 6.54998,11.48694 -6.3488,-0.20118 c -18.573,3.78323 -35.61024,9.04125 -51.08771,15.9201 -15.133576,6.53514 -30.370578,9.13654 -45.848086,7.76068 C 49.562588,976.29695 38.684163,983.83464 32.493166,1000 H 285.81665 l -0.30267,-9.97541 c 28.98881,-6.64585 64.35942,-16.58943 106.10468,-29.92807 98.43666,-42.97933 152.11154,-64.48851 161.12347,-64.48851 14.5575,18.02366 14.5575,42.66575 0,73.86038 -23.56943,8.31865 -31.81998,17.29958 -24.88777,27.00467 15.25077,0.69336 31.12475,-0.19514 47.76197,-2.61894 16.63721,-2.42639 29.16542,-23.93744 37.48389,-64.4903 8.31874,-40.55335 12.96631,-69.1143 14.00616,-85.75152 1.04004,-16.63718 -6.01039,-25.3037 -21.26117,-25.99695 13.86424,-23.56937 14.49355,-61.36846 2.01539,-113.35969 -7.06699,-55.6179 -1.35152,-107.63527 9.5948,-160.50907 l 116.17071,40.78426 c 36.25217,4.11953 49.43331,-13.18301 39.5464,-51.90691 C 729.50509,410.68482 698.19707,341.06427 679.2471,323.76206 654.52968,312.22727 630.8426,302.75172 608.18502,295.3365 c -22.65763,-7.41521 -39.75229,-16.89076 -51.28708,-28.42555 17.30218,0.82392 36.66361,-7.41344 58.08536,-24.7156 21.42172,-17.30218 28.01229,-57.26148 19.7732,-119.87886 -2.47178,-33.780452 -18.95004,-56.43898 -49.43481,-67.973761 -30.48478,-11.534781 -63.85345,-14.83189 -100.10567,-9.888412 -36.25217,4.943478 -61.79206,32.957967 -76.62249,84.040623 -9.88696,11.53477 -20.18681,27.18879 -30.89767,46.9627 -6.59131,12.3587 -7.00527,19.35961 -1.23786,21.00744 5.76738,1.64782 10.29911,4.53279 13.59476,8.65236 -9.08758,5.45255 -4.89899,10.88412 2.47391,12.3587 -2.9845,2.08917 -9.49795,7.65993 -1.85408,11.12446 4.5315,2.47174 6.79647,8.4441 6.79647,17.91912 0,9.47499 2.05887,14.62492 6.17845,15.44884 l 19.775,3.70634 c 8.23914,0.82391 16.06614,0.41177 23.48136,-1.23605 7.41521,6.5913 9.06376,14.42007 4.94421,23.48316 -38.72392,4.11953 -75.80007,21.00814 -111.22832,50.66904 L 252.8728,465.88803 C 235.57063,444.46631 207.55608,414.39285 168.83217,375.66897 130.10827,336.94502 106.21693,310.57906 97.15388,296.57255 L 255.34309,16.02876 C 254.82814,5.214902 250.93401,-0.12695969 243.6604,0.0017767 Z M 513.937,59.172754 c 14.68542,0.564717 31.06479,3.278645 49.13939,8.14489 32.13259,8.651065 49.02125,27.396091 50.66905,56.233086 9.88697,59.32173 2.88422,96.60394 -21.00926,111.84634 -23.89347,15.24237 -42.43245,8.44572 -55.61506,-20.39122 -6.59131,-9.06304 -1.23528,-22.24604 16.06686,-39.54821 32.95133,-32.95124 19.20282,-84.716342 -43.25636,-54.37901 -9.88696,-10.71088 -32.95404,-18.94998 -69.2062,-24.717403 11.88395,-32.680875 46.53665,-38.214238 73.21158,-37.188473 z m -83.09999,53.255326 c 29.66088,2.47173 53.96613,10.29694 72.91616,23.47954 -0.82391,11.53478 3.91566,11.94691 14.21459,1.23605 20.89257,-21.7284 46.71471,-10.62474 32.1319,18.54078 -7.00324,14.00652 -15.86241,25.74705 -26.57329,35.22202 -10.7109,9.47502 -12.97583,19.15482 -6.79647,29.04177 6.17938,9.88695 11.32931,23.89422 15.44883,42.02032 4.1196,18.12608 21.00999,34.19219 50.67086,48.19875 32.95651,9.8869 57.2618,20.18498 72.91615,30.89585 -25.5413,27.18916 -46.96344,74.97726 -64.26561,143.36203 -30.48478,-42.01956 -62.82314,-66.94491 -97.01554,-74.77205 -34.1924,-7.82719 -40.98904,-2.26513 -20.39122,16.68488 -6.31136,30.50484 -5.58739,70.00542 36.45809,79.09641 15.24236,3.29562 39.7519,11.12262 73.53236,23.48136 -6.20191,38.76199 -10.80739,88.96891 -7.11726,128.74326 -28.21417,9.51084 -65.76138,25.02669 -112.59486,46.59479 -25.0914,-160.17663 -35.06079,-264.10227 -100.27059,-354.53833 22.24565,-17.30221 46.137,-28.63237 71.67829,-33.98778 25.54131,-5.35546 38.31397,-18.74272 38.31397,-40.16442 0,-19.77395 -11.74233,-28.21915 -35.22384,-25.33543 -23.48153,2.88367 -33.57164,-4.73725 -30.276,-22.86333 14.83043,-7.41521 20.18461,-12.77303 16.06504,-16.06867 -4.11956,-3.29564 -11.94656,-5.35453 -23.48135,-6.17844 0,-6.59131 -5.35601,-12.35762 -16.06687,-17.3011 10.71086,-23.89347 21.00891,-40.78572 30.89586,-50.67267 10.71087,-4.94348 21.42284,-4.73557 32.13371,0.61984 10.71085,5.35545 22.24707,8.85679 34.60581,10.50463 v -7.4145 c -8.23914,0 -17.92255,-3.08921 -29.04539,-9.26858 -11.12284,-6.17932 -22.45119,-7.20968 -33.98598,-3.09012 4.94349,-6.5913 8.65092,-11.94729 11.12265,-16.06686 z m 106.82239,19.4216 c -1.60755,0.0876 -3.43028,0.4019 -5.48067,0.97144 -16.08052,4.46686 -29.39576,28.98414 -24.7174,35.22203 -5.76738,2.47174 -9.26879,6.17735 -10.50463,11.12083 -1.2359,4.94348 0.8248,8.44665 6.18026,10.50644 12.17266,4.68179 36.02108,-24.3543 41.40047,-36.45807 5.11108,-11.49981 4.37485,-21.97573 -6.87803,-21.36267 z m -102.20804,7.47611 c -4.82761,-0.11586 -9.24651,1.21743 -13.26308,3.99814 l -9.88841,8.65055 v 6.18026 h 3.70634 c 14.00653,6.59129 29.2502,6.59129 45.72846,0 l 17.3011,3.70815 v -8.65054 l -16.06686,-1.23787 c -10.29892,-8.23913 -19.47151,-12.45559 -27.51755,-12.64869 z m 99.21397,1.93927 c 2.92553,-0.0434 4.1553,1.67494 3.69184,5.15082 -2.0939,15.70445 -16.73309,26.28568 -21.00925,28.42374 -4.1196,2.05981 -4.11957,0.41125 0,-4.94421 4.11955,-5.35542 4.11955,-7.21006 0,-5.56223 -4.1196,1.64783 -5.14993,9.3e-4 -3.09012,-4.94239 2.05979,-4.94348 5.56114,-9.88732 10.50462,-14.8308 4.32554,-2.16277 7.62749,-3.26114 9.90291,-3.29493 z m -103.82832,4.53098 c -2.47173,2.47173 -2.47173,5.76883 0,9.88841 -4.11955,-0.82392 -7.82699,-2.06215 -11.12265,-3.70997 1.64784,-3.29566 5.35526,-5.35452 11.12265,-6.17844 z m 11.12446,1.23605 14.829,8.65236 c -5.76743,0.82391 -11.12157,1.23424 -16.06505,1.23424 4.11956,-2.47174 4.53171,-5.76704 1.23605,-9.8866 z m 64.26381,29.65979 c 4.94347,2.47174 5.97381,4.94457 3.09012,7.41631 -2.88368,2.47174 -5.14864,2.47174 -6.79646,0 -1.64788,-2.47174 -0.41327,-4.94457 3.70634,-7.41631 z m -92.41932,9.1997 c -0.013,0 -0.0252,8.8e-4 -0.0381,0.002 -0.0774,0.006 -0.15475,0.0286 -0.23198,0.0671 -0.82392,0.41197 -1.23605,1.85445 -1.23605,4.32618 0,4.32301 -3.42296,7.07333 -8.03252,0.61984 -5.65822,-7.92139 -11.83955,-3.28963 -9.26858,1.85226 1.64782,-1.64783 4.11704,-0.82355 7.41269,2.4721 7.14067,7.14068 15.15988,1.31628 13.59475,-4.9442 -0.72091,-2.88368 -1.43945,-4.34816 -2.16038,-4.39324 -0.0128,-9.3e-4 -0.0269,-0.002 -0.0399,-0.002 z m -15.1661,23.41611 c 0.75997,-0.0209 1.60696,0.0197 2.53736,0.13593 3.29565,0.41193 7.20732,0.82404 11.73886,1.23605 4.5315,0.41191 6.79828,1.03017 6.79828,1.85408 h -23.48135 c -3.99714,0 -2.91294,-3.07992 2.40685,-3.22606 z m 19.83845,5.69816 c -2.68326,2.68324 -10.39973,7.4145 -16.06685,7.4145 -8.13239,0 -5.85017,-2.63624 -3.70634,-3.70816 z m 236.05138,186.61476 61.79352,119.87887 -90.21907,-28.42556 c 8.23913,-50.25872 17.71469,-80.74243 28.42555,-91.45331 z m -414.7623,226.15391 h 41.81732 l 136.1324,98.75 c -55.64217,29.85815 -107.11865,65.81069 -158.50276,101.87275 2.66747,-88.41773 -3.19754,-171.24879 -19.44696,-200.62275 z m 340.24052,55.32484 1.85574,24.27905 c 13.86433,47.13873 12.50695,84.93774 -4.13045,113.35969 -45.75232,26.34219 -100.88626,42.94667 -165.3554,49.87884 -64.46915,6.93216 -119.18889,30.84551 -164.24803,71.74534 25.64904,-62.38955 47.94615,-102.90735 67.00957,-121.62418 29.9264,-29.38236 147.87487,-107.18839 264.86857,-137.63874 z"
     sodipodi:nodetypes="sccssccccccccccccccccccccccccccssccccccscscssccscccsccccccsccssscscsccscccsssscccscsccccssscscccsccsccsccsssssccccccccssssssscscccccccccssccccsccsscccscccsscsccccccccccccccscsc" />
</svg>
