<?xml version="1.0" encoding="UTF-8" standalone="no"?>
<svg
   width="800"
   height="1000"
   version="1.1"
   id="svg1"
   sodipodi:docname="13556.svg"
   inkscape:version="1.4.2 (f4327f4, 2025-05-13)"
   xmlns:inkscape="http://www.inkscape.org/namespaces/inkscape"
   xmlns:sodipodi="http://sodipodi.sourceforge.net/DTD/sodipodi-0.dtd"
   xmlns="http://www.w3.org/2000/svg"
   xmlns:svg="http://www.w3.org/2000/svg">
  <defs
     id="defs1" />
  <sodipodi:namedview
     id="namedview1"
     pagecolor="#ffffff"
     bordercolor="#666666"
     borderopacity="1.0"
     inkscape:showpageshadow="2"
     inkscape:pageopacity="0.0"
     inkscape:pagecheckerboard="0"
     inkscape:deskcolor="#d1d1d1"
     inkscape:zoom="0.26693279"
     inkscape:cx="-726.7747"
     inkscape:cy="-282.84273"
     inkscape:window-width="1680"
     inkscape:window-height="998"
     inkscape:window-x="-8"
     inkscape:window-y="-8"
     inkscape:window-maximized="1"
     inkscape:current-layer="svg1"
     showguides="true">
    <sodipodi:guide
       position="0,914.77256"
       orientation="1,0"
       id="guide2"
       inkscape:locked="false" />
    <sodipodi:guide
       position="0,850.79558"
       orientation="0,-1"
       id="guide3"
       inkscape:locked="false" />
    <sodipodi:guide
       position="190.94225,558.99483"
       orientation="1,0"
       id="guide4"
       inkscape:locked="false" />
    <sodipodi:guide
       position="379.2355,747.01986"
       orientation="0,-1"
       id="guide5"
       inkscape:locked="false" />
    <sodipodi:guide
       position="181.04728,63.30321"
       orientation="0.99483416,0.10151351"
       id="guide1"
       inkscape:locked="false" />
  </sodipodi:namedview>
  <path
     id="path2"
     style="baseline-shift:baseline;display:inline;overflow:visible;vector-effect:none;fill:#000000;enable-background:accumulate;stop-color:#000000;stop-opacity:1;opacity:1"
     d="M 591.5293 0.005859375 C 580.89963 0.084992825 570.04486 0.86471642 558.9668 2.3417969 C 514.65452 8.250082 486.16846 42.854968 473.50781 106.1582 C 462.53524 119.66289 450.29766 138.23202 436.79297 161.86523 C 430.0406 177.05804 429.82981 185.71021 436.16016 187.82031 C 442.49046 189.93042 448.18767 193.09425 453.25195 197.31445 C 437.38405 206.38179 452.13624 212.36984 452.61914 212.50781 C 455.57329 213.35185 455.14975 215.04015 451.35156 217.57227 C 447.55334 220.10443 448.18767 222.84663 453.25195 225.80078 C 458.31624 228.75492 460.42607 235.08646 459.58203 244.79297 C 457.96292 263.41191 467.53808 269.48047 498.83008 269.48047 C 530.90374 269.48047 542.29816 282.56318 533.01367 308.72852 C 491.65556 407.48157 471.81972 553.92274 473.50781 748.05273 L 289.92969 510.0332 C 288.32061 466.58786 262.55227 443.46605 212.62891 440.66602 L 212.62891 131.70508 L -26.558594 131.70508 L -26.558594 252.98047 L 8.4414062 252.98047 L 8.4414062 166.70508 L 41.503906 166.70508 L 41.503906 252.98047 L 76.503906 252.98047 L 76.503906 166.70508 L 109.56641 166.70508 L 109.56641 252.98047 L 144.56641 252.98047 L 144.56641 166.70508 L 177.62891 166.70508 L 177.62891 440.39844 L 177.25 440.39844 C 133.35973 440.39844 126.18506 450.94969 155.72656 472.05078 C 143.90995 487.24355 150.23951 512.5658 174.7168 548.01562 C 165.43231 575.86901 177.24832 617.43777 210.16602 672.72266 C 243.08368 728.00747 273.47081 805.02625 301.32422 903.7793 L 181.04688 936.69727 L 187.50586 1000 L 752.04297 1000 L 701.40039 908.84375 C 714.905 792.36577 722.07972 670.82324 722.92383 544.2168 C 722.92383 444.61967 701.39971 361.48213 658.35352 294.80273 C 725.877 294.80273 755.84055 252.81043 748.24414 168.82812 C 740.64777 84.84582 718.28051 34.624883 681.14258 18.166016 C 653.28915 5.821893 623.41829 -0.23154098 591.5293 0.005859375 z M 595.87109 25.269531 C 614.10374 25.863006 633.24305 30.247161 653.28906 38.423828 C 685.36272 51.506495 704.77694 86.745712 711.5293 144.14062 C 718.28163 201.53558 716.16984 236.35121 705.19727 248.58984 C 694.22474 260.82847 682.4087 266.94922 669.74805 266.94922 L 636.83008 266.94922 C 627.54545 266.94922 622.69335 250.27917 622.27148 216.93945 C 621.84946 183.59977 628.60063 162.07565 642.52734 152.36914 C 656.45409 142.66264 660.25225 127.89167 653.92188 108.05664 C 647.59156 88.22165 628.39003 85.900979 596.31641 101.09375 C 589.56405 85.900979 561.28878 75.349728 511.49023 69.441406 C 519.08663 48.340352 536.59985 34.625264 564.03125 28.294922 C 574.31802 25.921058 584.93151 24.913446 595.87109 25.269531 z M 503.89453 88.433594 C 542.72055 90.965753 571.83894 104.04847 591.25195 127.68164 L 605.17969 128.94727 C 619.52857 113.75446 627.96803 110.37791 630.5 118.81836 C 633.03216 127.2588 627.7565 136.75414 614.67383 147.30469 C 601.59116 157.8552 595.05078 185.07653 595.05078 228.9668 C 595.05078 272.85706 605.17854 294.80273 625.43555 294.80273 C 608.5547 309.9955 589.1424 311.68184 567.19727 299.86523 C 567.19727 261.03924 552.00468 244.15841 521.61914 249.22266 C 491.23357 254.28694 478.15089 246.26906 482.37109 225.16797 C 499.25194 215.88348 505.15995 209.13232 500.0957 204.91211 C 495.03146 200.69187 485.74688 198.15849 472.24219 197.31445 C 473.08623 189.71808 466.75664 182.96691 453.25195 177.05859 C 465.9126 148.36113 478.57177 128.52529 491.23242 117.55273 C 503.89307 111.64444 516.76499 111.85524 529.84766 118.18555 C 542.93033 124.51585 555.80224 128.52477 568.46289 130.21289 L 568.46289 122.61719 C 560.02245 121.77315 549.26036 117.76419 536.17773 110.58984 C 523.09502 103.41546 509.80156 101.938 496.29688 106.1582 C 496.29688 97.717797 498.83028 91.809794 503.89453 88.433594 z M 510.54492 118.83398 C 505.84663 118.98235 501.52091 120.24332 497.56445 122.61719 L 486.16797 134.01172 L 486.16797 142.875 L 491.23242 141.60742 C 507.26923 150.04787 525.41678 150.04787 545.67383 141.60742 L 565.93164 146.67188 L 565.93164 136.54297 L 546.93945 134.01172 C 533.01273 123.56669 520.88116 118.50758 510.54492 118.83398 z M 507.69141 126.41602 C 504.31525 130.63626 504.31525 134.85596 507.69141 139.07617 C 503.4712 137.38809 499.67304 135.69981 496.29688 134.01172 C 497.14092 130.63556 500.93908 128.10414 507.69141 126.41602 z M 522.88477 128.94727 L 538.07812 137.81055 C 532.16981 139.49863 526.26181 140.3418 520.35352 140.3418 C 525.41777 137.80968 526.26094 134.01152 522.88477 128.94727 z M 488.30273 174.94141 C 487.18091 174.94166 486.3789 177.04685 486.80273 179.58984 C 487.55306 184.09183 481.68262 188.3777 476.04102 180.85547 C 468.22073 170.42842 463.95215 178.20314 465.91211 182.12305 C 468.44423 180.43497 471.39727 181.69968 474.77344 185.91992 C 482.10453 195.0838 492.83688 187.44282 491.23242 180.22266 C 490.37986 176.38611 489.23224 174.9412 488.30273 174.94141 z M 470.38281 202.85352 C 471.41149 202.85351 472.45276 202.90621 473.50781 203.01172 C 477.72801 203.43377 482.58206 204.06807 488.06836 204.91211 C 493.55463 205.75616 495.87529 206.59932 495.03125 207.44336 L 467.17773 207.44336 C 459.58133 206.59932 457.68225 205.54341 461.48047 204.27734 C 464.3291 203.32778 467.29679 202.85352 470.38281 202.85352 z M 493.76562 209.97461 C 487.66071 213.02707 481.64368 216.62328 474.77344 217.57227 C 468.9815 218.57502 465.22862 218.25575 470.97656 212.50781 L 493.76562 209.97461 z M 565.93164 331.51758 L 565.93164 332.7832 C 590.40889 342.06765 614.04091 341.64607 636.83008 331.51758 C 669.74778 366.96736 686.20703 442.93217 686.20703 559.41016 C 686.20703 675.88811 676.92249 797.42869 658.35352 924.03516 L 674.8125 962.01758 L 220.29492 962.01758 L 341.83789 924.03516 C 310.60828 798.27273 276.84659 706.27215 240.55273 648.0332 C 204.25887 589.79421 196.241 553.71187 216.49805 539.78516 C 236.7551 525.85845 259.96553 539.15195 286.13086 579.66602 L 470.97656 812.62305 L 515.28906 812.62305 C 513.60098 576.29092 530.48182 415.92187 565.93164 331.51758 z M 184.8457 470.78516 L 232.95508 470.78516 C 249.83593 476.69345 252.36934 488.0879 240.55273 504.96875 L 198.77148 510.0332 C 179.35847 503.28087 174.71718 490.19813 184.8457 470.78516 z " />
</svg>
