<?xml version="1.0" encoding="UTF-8" standalone="no"?>
<svg
   width="700"
   height="1000"
   version="1.1"
   id="svg1"
   sodipodi:docname="13561.svg"
   inkscape:version="1.4.2 (f4327f4, 2025-05-13)"
   xmlns:inkscape="http://www.inkscape.org/namespaces/inkscape"
   xmlns:sodipodi="http://sodipodi.sourceforge.net/DTD/sodipodi-0.dtd"
   xmlns="http://www.w3.org/2000/svg"
   xmlns:svg="http://www.w3.org/2000/svg">
  <defs
     id="defs1" />
  <sodipodi:namedview
     id="namedview1"
     pagecolor="#ffffff"
     bordercolor="#666666"
     borderopacity="1.0"
     inkscape:showpageshadow="2"
     inkscape:pageopacity="0.0"
     inkscape:pagecheckerboard="0"
     inkscape:deskcolor="#d1d1d1"
     inkscape:zoom="0.3775"
     inkscape:cx="-547.01987"
     inkscape:cy="-70.198675"
     inkscape:window-width="1680"
     inkscape:window-height="998"
     inkscape:window-x="-8"
     inkscape:window-y="-8"
     inkscape:window-maximized="1"
     inkscape:current-layer="svg1"
     showguides="true">
    <sodipodi:guide
       position="476.14318,928.70923"
       orientation="-0.8660254,0.5"
       id="guide6"
       inkscape:locked="false" />
  </sodipodi:namedview>
  <path
     id="path7"
     style="fill:#000000;stroke:none;stroke-width:0.999999"
     d="M 453.74023,0.10742188 C 415.95883,1.4152611 381.77407,13.414306 353.24023,61.921875 l 2.96485,3.111328 c -23.04388,30.057175 -33.57804,49.053117 -31.57422,57.068357 -27.05146,36.06866 -39.02522,59.53957 -36.01953,70.56055 l 22.53125,12.1543 c 2.00385,12.02289 3.83314,21.20638 5.33594,27.71875 1.50286,6.51238 3.90546,13.05397 7.4121,19.5664 3.50674,6.51237 -11.73984,26.71054 -45.80468,60.77539 4.00762,12.02283 11.51033,16.64241 22.53125,13.63672 19.03627,-7.01335 49.67583,-29.66976 91.75586,-67.74219 l 5.30664,45.81641 c -40.75747,99.34631 -60.72217,247.10472 -59.87305,443.25 L 154.36719,507.14648 c 0,-46.70125 -19.50133,-70.03125 -58.560549,-70.03125 H 80.294922 L 65.660156,399.11914 c -2.454094,-4.90818 -2.454094,-13.89564 0,-26.98828 4.908199,-21.27435 20.79425,-42.49841 47.796874,-63.77344 L 26.322266,186.71484 c -7.14773,-9.97843 -5.143233,-22.7424 6.171875,-39.20312 C 48.178906,124.69422 45.294788,104.39841 23.902344,87.361328 11.132056,77.190985 -1.2341405,73.263672 -12.882812,73.263672 h -0.0039 c -14.976516,0 -29.265642,10.183684 -41.751953,28.867188 -15.134375,22.64585 -9.372248,67.76123 18.394531,133.72461 l 84.71875,201.25976 h -4.892578 c -46.7012476,0 -55.176019,10.56513 -25.457031,31.79297 -11.8876097,16.13315 -5.61258,41.66485 19.011719,76.47852 -9.340267,28.02075 2.840821,69.81078 36.380859,125.42773 C 107.05756,726.43141 137.35765,803.855 164.5293,903.20117 L 43.582031,936.41406 49.919922,998.79688 619.25,1000 567.02734,908.33398 c 13.58583,-116.32855 20.78366,-238.20126 21.63282,-365.56836 0,-101.04457 -21.24162,-185.08213 -63.69727,-252.1621 l -3.38867,-21.31446 43.49023,-2.95703 C 639.2055,251.30342 664.50187,222.49505 640.95703,179.91406 617.4123,137.33303 602.64819,101.73987 596.63672,73.185547 581.61065,1.8122109 467.05934,-0.35363137 453.74023,0.10742188 Z M 366.73047,73.925781 c 17.03239,0 47.04301,6.063088 90.125,18.085938 l 13.63476,48.175781 c -14.02669,14.02671 -17.05434,26.96149 -9.03906,38.98438 -6.97237,22.66007 1.17959,48.79359 24.52344,78.29296 l 4.68164,33.13868 c -16.98226,15.28403 -36.59296,17.02233 -58.66992,5.13476 l -12.63477,-65.42773 c 17.03245,-21.04004 24.05456,-44.17503 21.04883,-69.22266 -7.01333,-11.02098 -17.06504,-15.01161 -30.08984,-12.00586 l -10.52539,48.17578 c -1.00191,24.04578 -18.55822,44.00274 -52.62305,60.03321 L 339.75,243.80273 c 20.03812,-8.01524 28.02329,-19.51244 24.01562,-34.54101 l -25.49609,2.96484 -9.04297,-7.41015 c 14.02666,-10.01906 19.45886,-18.63121 16.45313,-25.64453 -3.00568,-7.01339 -9.5454,-8.93542 -19.56446,-5.92969 l -1.48437,13.49023 -16.45313,-2.9668 c 5.00951,-16.03048 13.47322,-31.66278 25.4961,-46.6914 5.00955,-13.02474 11.07066,-21.48846 18.08398,-25.4961 32.06102,-9.01716 61.11061,-4.06355 87.16016,14.97266 l -4.59375,-7.41406 C 418.29374,95.090945 390.35164,89.029862 350.27539,101.05273 Z m 130.6543,15.994141 c 12.41745,0.07842 18.10298,11.416628 21.13476,27.585938 8.01521,25.04763 -1.40951,43.71345 -28.46094,55.73633 -11.02098,3.0061 -17.56453,0.9372 -19.56836,-6.07617 -2.0038,-7.01333 1.98875,-11.00591 12.00782,-12.00782 10.01908,-1.00192 12.57003,-8.02407 7.56054,-21.04882 -9.01717,-15.02863 -12.52917,-26.52189 -10.52539,-34.537114 5.40118,-6.17275 11.26442,-9.69382 17.85157,-9.652344 z M 16.164883,120.70043 c 0.597258,7.11045 -3.377804,15.19919 -11.8641018,24.39332 -14.9333522,16.17893 -14.1938454,33.94568 0,53.97461 L 79.085938,304.59766 C 61.90245,314.4168 49.663178,329.91247 42.298828,351.1875 L -16.642578,207.66016 c -19.799238,-48.21283 -24.957312,-78.99604 -15.978516,-92.10352 6.925537,-10.11008 14.199549,-15.47935 21.882813,-15.976562 11.8778426,-0.768656 25.792167,7.893752 26.903164,21.120352 z m 355.979647,-6.91527 c -16.15456,1.01663 -22.38243,9.29442 -32.39258,27.88476 25.20168,13.74626 55.52672,2.98197 75.15235,-22.53125 -19.80019,-3.96005 -33.06703,-5.96349 -42.75977,-5.35351 z m 16.375,7.13086 c 5.00949,0.25061 10.35085,1.16713 15.86133,2.66992 -8.01525,7.01334 -17.10789,11.96501 -27.12695,14.9707 6.01147,-9.01716 5.05047,-14.4493 -2.96485,-16.45312 4.50861,-1.00188 9.2209,-1.43796 14.23047,-1.1875 z m -24.75391,1.1875 c -7.01335,8.01529 -5.09323,14.07639 5.92774,18.08398 -8.01524,2.00384 -14.88892,1.37487 -20.90039,-1.63086 2.00385,-6.0114 6.95744,-11.44355 14.97265,-16.45312 z m -16.60351,99.16601 7.56055,6.07617 -30.0918,5.93164 -2.96484,-9.04296 z m 154.9668,106.26172 c 33.11544,35.66279 49.60156,112.1504 49.60156,229.32813 0,118.02683 -9.28824,240.2535 -27.96875,366.77148 l 16.49609,38.24023 H 83.023438 L 205.28125,923.63086 C 174.71314,797.11293 140.93644,704.6006 104,646.01172 67.063542,587.42289 58.820499,551.09436 79.199219,537.08398 99.577939,523.0736 122.90989,536.8856 149.23242,578.49219 l 185.95313,233.04297 h 44.57617 c -0.8491,-237.75189 16.20977,-398.63109 51.02344,-482.69336 24.6243,9.34022 48.41769,8.87879 71.34375,-1.31055 z M 48.607422,467.59766 h 47.199219 c 17.831379,5.9438 20.383179,17.43375 7.646479,34.41601 l -42.062495,5.13281 C 41.860979,500.35356 37.568929,487.12726 48.607422,467.59766 Z"
     sodipodi:nodetypes="scccccscccccccsccccssssssscsccscccccccccsssccccccccccccccccsccccccccccccsscccsssccsssssccscccccccccccccccsccccsscccccccccc" />
</svg>
