<?xml version="1.0" encoding="UTF-8" standalone="no"?>
<svg
   width="12.429983"
   height="17.983217"
   version="1.1"
   id="svg1"
   sodipodi:docname="13560.svg"
   inkscape:version="1.4.2 (f4327f4, 2025-05-13)"
   xmlns:inkscape="http://www.inkscape.org/namespaces/inkscape"
   xmlns:sodipodi="http://sodipodi.sourceforge.net/DTD/sodipodi-0.dtd"
   xmlns="http://www.w3.org/2000/svg"
   xmlns:svg="http://www.w3.org/2000/svg">
  <defs
     id="defs1" />
  <sodipodi:namedview
     id="namedview1"
     pagecolor="#ffffff"
     bordercolor="#666666"
     borderopacity="1.0"
     inkscape:showpageshadow="2"
     inkscape:pageopacity="0.0"
     inkscape:pagecheckerboard="0"
     inkscape:deskcolor="#d1d1d1"
     inkscape:zoom="59.373761"
     inkscape:cx="10.922333"
     inkscape:cy="7.486472"
     inkscape:window-width="1680"
     inkscape:window-height="998"
     inkscape:window-x="-8"
     inkscape:window-y="-8"
     inkscape:window-maximized="1"
     inkscape:current-layer="svg1" />
  <path
     id="path1"
     style="fill:#000000;stroke:none"
     d="M 11.664062 -0.00390625 C 11.28743 -0.011578513 10.763318 0.34243437 10.09375 1.0566406 L 8.0234375 3.2519531 C 7.1544868 3.3114704 6.5766983 3.8172559 6.2910156 4.7695312 C 6.1362709 4.97189 5.9582181 5.2409228 5.7558594 5.5742188 C 5.6368247 5.7884807 5.6273363 5.9096944 5.7285156 5.9394531 C 5.8296949 5.9692118 5.9168605 6.0147014 5.9882812 6.0742188 C 5.9049572 6.1218328 5.8689561 6.1653693 5.8808594 6.2070312 C 5.8927627 6.2486932 5.9344387 6.2695312 6.0058594 6.2695312 C 6.0103232 6.2695312 6.0126491 6.2707404 6.015625 6.2714844 L 6.0175781 6.2714844 L 6.0195312 6.2734375 L 6.0214844 6.2734375 L 6.0234375 6.2753906 L 6.0234375 6.2773438 L 6.0253906 6.2773438 L 6.0253906 6.2792969 L 6.0253906 6.28125 L 6.0253906 6.2832031 C 6.0206479 6.29506 6.0003686 6.3165023 5.96875 6.3417969 C 5.9092327 6.3894109 5.9168605 6.4329474 5.9882812 6.4746094 C 6.059702 6.5162714 6.0975643 6.6186002 6.1035156 6.7792969 C 6.1055594 6.8344772 6.1107809 6.8803328 6.1191406 6.9179688 C 5.9366537 7.2476717 5.5788913 7.3424394 5.1933594 7.3847656 L 5.34375 8.2246094 C 5.9486535 8.1043628 6.3622638 7.70862 6.5585938 7.0917969 C 6.7252424 7.1037009 6.8672941 7.0980261 6.9863281 7.0742188 L 7.0585938 7.4667969 C 6.2253524 9.1570856 5.8085938 11.477635 5.8085938 14.429688 L 3.2382812 11.091797 C 3.0359225 10.401397 2.6475366 10.054688 2.0761719 10.054688 L 1.8632812 9.5019531 C 1.8275702 9.4305324 1.8275702 9.2998303 1.8632812 9.109375 C 1.934702 8.7998857 2.1657805 8.4911299 2.5585938 8.1816406 L 1.2910156 6.4121094 C 1.1838849 6.2692681 1.2142114 6.0798656 1.3808594 5.8417969 C 1.6070247 5.5085009 1.5653487 5.2167696 1.2558594 4.9667969 C 0.82733538 4.6335002 0.44657725 4.7055026 0.11328125 5.1816406 C -0.10098075 5.5149366 -0.011953955 6.1627738 0.38085938 7.1269531 L 1.6132812 10.054688 C 0.95859192 10.054688 0.83923871 10.204367 1.2558594 10.501953 C 1.0535007 10.763829 1.0951767 11.252591 1.3808594 11.966797 C 2.2617141 13.716603 2.8755031 15.281309 3.2207031 16.662109 L 1.6835938 17.089844 L 1.7734375 17.964844 L 9.7539062 17.982422 L 8.9160156 16.839844 C 9.1897949 15.090038 9.3640342 13.379464 9.4414062 11.707031 C 9.5187789 10.034598 9.4752424 8.9358614 9.3085938 8.4121094 C 9.1419458 7.8883581 9.0112426 7.5322522 8.9160156 7.3417969 L 8.9160156 6.734375 C 9.2493116 6.5796303 9.5580673 6.3390634 9.84375 6.0117188 C 10.129433 5.684374 10.273438 5.2941276 10.273438 4.8417969 C 10.273438 4.1513969 10.004405 3.7119391 9.46875 3.5214844 C 9.1116473 3.4024494 8.8028909 3.3304476 8.5410156 3.3066406 C 8.5886289 3.2709299 8.7363561 3.2311151 8.9863281 3.1894531 C 9.2363001 3.1477911 9.5830095 3.2406316 10.023438 3.4667969 L 11.111328 1.5917969 C 11.194651 1.4251489 11.380333 1.3721233 11.666016 1.4316406 C 12.070733 1.5030613 12.313154 1.3420327 12.396484 0.94921875 C 12.527421 0.42546742 12.307693 0.11103692 11.736328 0.00390625 C 11.712521 0.00018641688 11.689171 -0.0033947658 11.664062 -0.00390625 z M 11.654297 0.390625 C 11.670246 0.39127594 11.686293 0.39350854 11.701172 0.39648438 C 12.010665 0.44409837 12.130014 0.597499 12.058594 0.859375 C 12.01098 1.08554 11.830973 1.1461938 11.521484 1.0390625 C 11.211995 0.94383517 10.975242 1.0555604 10.808594 1.3769531 L 9.8613281 2.984375 C 9.6232594 2.817727 9.3448302 2.7533525 9.0234375 2.7890625 L 10.576172 1.1464844 C 11.056028 0.63314875 11.415065 0.38086084 11.654297 0.390625 z M 7.9335938 3.6210938 C 8.2549866 3.5998908 8.6300698 3.6414737 9.0585938 3.7441406 C 9.6299591 3.8810306 9.9160156 4.199274 9.9160156 4.6992188 C 9.9160156 5.1991635 9.72466 5.6254112 9.34375 5.9765625 C 8.9628393 6.3277138 8.7184588 6.4186011 8.6113281 6.2519531 C 8.4922941 6.0972078 8.5889482 5.8736653 8.8984375 5.5820312 C 9.2079262 5.2903972 9.2817897 5.0062932 9.1210938 4.7265625 C 8.9603971 4.4468312 8.6231754 4.418366 8.1113281 4.6445312 C 7.9327761 4.4778832 7.5236454 4.3471811 6.8808594 4.2519531 C 6.9998941 3.9424638 7.2499494 3.7473865 7.6308594 3.6640625 C 7.7260869 3.6432315 7.8264628 3.6281614 7.9335938 3.6210938 z M 6.7011719 4.5195312 C 7.2368266 4.5552412 7.6725627 4.6878965 8.0058594 4.9140625 C 8.0010234 4.9914347 8.0114949 5.0382157 8.0371094 5.0546875 C 8.0381396 5.0552309 8.0418935 5.0561873 8.0429688 5.0566406 C 8.0821795 5.0693548 8.1517027 5.0292859 8.2460938 4.9316406 C 8.4186931 4.7530886 8.5910719 4.7019242 8.7636719 4.7792969 C 8.9362719 4.8566689 8.9609235 5.0120233 8.8359375 5.2441406 C 8.7109515 5.4762573 8.5517834 5.6713345 8.3613281 5.8320312 C 8.1708728 5.9927279 8.1273363 6.1537564 8.2285156 6.3144531 C 8.3296949 6.4751491 8.3978831 6.6153403 8.4335938 6.734375 C 8.4812071 7.1748023 8.5532095 7.5858869 8.6484375 7.9667969 L 7.2910156 7.9667969 C 7.5171809 7.1930736 7.3921536 6.8274786 6.9160156 6.8691406 C 6.4398783 6.9108026 6.237173 6.7762862 6.3085938 6.4667969 C 6.5585665 6.3358589 6.6475926 6.2411579 6.5761719 6.1816406 C 6.5047512 6.1221233 6.3683743 6.0804473 6.1660156 6.0566406 C 6.1779189 5.9495093 6.0832181 5.8604832 5.8808594 5.7890625 C 6.0713147 5.3843458 6.2550425 5.0982886 6.4335938 4.9316406 C 6.6240491 4.8483166 6.8172652 4.8501778 7.0136719 4.9394531 C 7.2100786 5.0287291 7.4089694 5.0912424 7.6113281 5.1269531 L 7.6113281 5.0019531 C 7.4803901 4.9900498 7.3175005 4.9332106 7.1210938 4.8320312 C 6.9246871 4.7308519 6.7201214 4.7100139 6.5058594 4.7695312 C 6.5891834 4.6624006 6.6535579 4.5790485 6.7011719 4.5195312 z M 8.59375 4.8242188 C 8.5669672 4.8264507 8.5385939 4.8328692 8.5058594 4.8417969 C 8.3749214 4.8775069 8.2574293 4.9722078 8.15625 5.1269531 C 8.0550713 5.2816978 8.0228838 5.3953762 8.0585938 5.4667969 C 7.9633665 5.5025069 7.9046667 5.5593461 7.8808594 5.6367188 C 7.8570527 5.7140908 7.8911008 5.7709306 7.9863281 5.8066406 C 8.0815554 5.8423513 8.2160712 5.7816978 8.3886719 5.6269531 C 8.5612719 5.4722084 8.6749503 5.3301567 8.7285156 5.1992188 C 8.7820809 5.0682808 8.7915694 4.965952 8.7558594 4.8945312 C 8.7290763 4.8409657 8.6740984 4.8175229 8.59375 4.8242188 z M 6.734375 4.9589844 C 6.6643957 4.9624718 6.6005329 4.9823329 6.5410156 5.0195312 L 6.3613281 5.1640625 L 6.3613281 5.2890625 L 6.4335938 5.2890625 C 6.6835665 5.4080972 6.9582741 5.4080972 7.2558594 5.2890625 L 7.5585938 5.3417969 L 7.5585938 5.1992188 L 7.2734375 5.1816406 C 7.0688471 5.026152 6.8883294 4.9513121 6.734375 4.9589844 z M 8.5410156 4.9941406 C 8.6079725 4.9899557 8.6382994 5.0187946 8.6308594 5.0820312 C 8.6189561 5.1832112 8.5677916 5.2817258 8.4785156 5.3769531 C 8.3892396 5.4721804 8.3077488 5.5385088 8.2363281 5.5742188 C 8.216241 5.5842624 8.2021475 5.5882044 8.1933594 5.5878906 L 8.1914062 5.5878906 L 8.1894531 5.5878906 L 8.1875 5.5878906 L 8.1875 5.5859375 L 8.1855469 5.5859375 L 8.1855469 5.5839844 L 8.1835938 5.5839844 L 8.1835938 5.5820312 L 8.1835938 5.5800781 L 8.1835938 5.578125 C 8.1856862 5.5622577 8.2028495 5.5290127 8.2363281 5.484375 C 8.2675748 5.4427145 8.2851567 5.4122705 8.2890625 5.3945312 C 8.289202 5.3933862 8.2910156 5.3896949 8.2910156 5.3886719 L 8.2910156 5.3867188 L 8.2910156 5.3847656 L 8.2890625 5.3828125 L 8.2890625 5.3808594 L 8.2871094 5.3789062 L 8.2851562 5.3769531 L 8.2832031 5.3769531 L 8.28125 5.3769531 C 8.2724619 5.3754357 8.2564153 5.3783493 8.2363281 5.3867188 C 8.2162411 5.3950884 8.2005951 5.3975306 8.1894531 5.3964844 C 8.187198 5.3960194 8.1815009 5.3954612 8.1796875 5.3945312 L 8.1777344 5.3925781 L 8.1757812 5.390625 L 8.1738281 5.3886719 C 8.1733632 5.3877419 8.1722295 5.3838587 8.171875 5.3828125 C 8.1684576 5.3665382 8.1751319 5.3359333 8.1933594 5.296875 C 8.2350214 5.2075997 8.2975354 5.1223865 8.3808594 5.0390625 C 8.4478164 5.0122797 8.5008415 4.9966516 8.5410156 4.9941406 z M 6.6835938 5.0742188 C 6.6478827 5.1218327 6.6478827 5.1805321 6.6835938 5.2519531 C 6.6240765 5.2281461 6.5710515 5.1997725 6.5234375 5.1640625 C 6.5472442 5.1283515 6.6002687 5.0980257 6.6835938 5.0742188 z M 6.9160156 5.0917969 L 7.1660156 5.2167969 C 7.0588843 5.2525079 6.9641834 5.2695312 6.8808594 5.2695312 C 6.9522804 5.2219173 6.9636296 5.1632179 6.9160156 5.0917969 z M 0.75195312 5.1445312 C 0.83885751 5.1383471 0.92969788 5.1738366 1.0234375 5.2519531 C 1.2019888 5.3947944 1.1849651 5.5804759 0.97070312 5.8066406 C 0.7564418 6.0447099 0.75644179 6.3061142 0.97070312 6.5917969 L 2.0585938 8.1269531 C 1.8086217 8.2697944 1.6305682 8.4951982 1.5234375 8.8046875 L 0.66601562 6.7167969 C 0.38033296 6.0144936 0.30265575 5.5674078 0.43359375 5.3769531 C 0.53402887 5.2296479 0.64021892 5.1524823 0.75195312 5.1445312 z M 8.0410156 5.5917969 C 8.1243396 5.6394109 8.1395028 5.6810862 8.0859375 5.7167969 C 8.0323722 5.7525069 7.9925573 5.7486933 7.96875 5.7070312 C 7.9449433 5.6653693 7.9695949 5.6275076 8.0410156 5.5917969 z M 6.4101562 5.7597656 L 6.4082031 5.7617188 L 6.40625 5.7617188 C 6.405204 5.7622069 6.401367 5.7630674 6.4003906 5.7636719 C 6.399484 5.7643926 6.3953682 5.7686943 6.3945312 5.7695312 L 6.3925781 5.7714844 C 6.3856035 5.7821787 6.3808594 5.8018994 6.3808594 5.8242188 C 6.3808594 5.8599288 6.3618829 5.8826282 6.3261719 5.8945312 C 6.2904619 5.9064342 6.254461 5.8894099 6.21875 5.8417969 C 6.18304 5.7941829 6.1546664 5.7695312 6.1308594 5.7695312 C 6.1085406 5.7695312 6.0907728 5.7742752 6.0800781 5.78125 C 6.0791249 5.7820172 6.0750557 5.7843193 6.0742188 5.7851562 C 6.0734981 5.786063 6.0709169 5.7900392 6.0703125 5.7910156 C 6.0698244 5.7920618 6.0687312 5.7957591 6.0683594 5.796875 C 6.0624094 5.81473 6.0585938 5.835568 6.0585938 5.859375 C 6.1062071 5.8355683 6.1535579 5.8545458 6.2011719 5.9140625 C 6.2487859 5.9735798 6.3018078 5.9867892 6.3613281 5.9570312 C 6.4208451 5.9272722 6.4493094 5.8855962 6.4433594 5.8320312 C 6.4392674 5.7952053 6.4315932 5.7723669 6.421875 5.7636719 L 6.4199219 5.7636719 L 6.4199219 5.7617188 L 6.4179688 5.7617188 L 6.4160156 5.7617188 L 6.4140625 5.7617188 L 6.4140625 5.7597656 L 6.4121094 5.7597656 L 6.4101562 5.7597656 z M 6.09375 6.1386719 C 6.1107681 6.138114 6.1316992 6.1400672 6.15625 6.1445312 C 6.2217193 6.1564345 6.2993966 6.1697373 6.3886719 6.1816406 C 6.4500491 6.1898241 6.4883989 6.1968946 6.5019531 6.2050781 L 6.5039062 6.2070312 L 6.5058594 6.2089844 L 6.5058594 6.2109375 L 6.5078125 6.2109375 L 6.5078125 6.2128906 L 6.5078125 6.2148438 L 6.5058594 6.2148438 L 6.5058594 6.2167969 L 6.0761719 6.2167969 C 6.0605484 6.2115893 6.0494784 6.2047517 6.0429688 6.1972656 C 6.0370171 6.1883381 6.0350636 6.175966 6.0410156 6.1640625 C 6.0484552 6.1491829 6.0653865 6.1396017 6.09375 6.1386719 z M 6.4863281 6.2519531 C 6.4506174 6.2638561 6.403267 6.2846941 6.34375 6.3144531 C 6.2842333 6.3442121 6.2312078 6.359375 6.1835938 6.359375 C 6.1478828 6.371278 6.1213706 6.371278 6.1035156 6.359375 C 6.1023997 6.358631 6.1005161 6.3582589 6.0996094 6.3574219 L 6.0996094 6.3554688 L 6.0976562 6.3535156 L 6.0957031 6.3515625 L 6.0957031 6.3496094 L 6.0957031 6.3476562 L 6.09375 6.3457031 L 6.09375 6.34375 C 6.0951451 6.3307305 6.1085406 6.3113813 6.1308594 6.2890625 L 6.4863281 6.2519531 z M 7.2734375 8.4316406 L 8.7558594 8.4316406 C 8.9701214 8.6459026 9.0344966 9.6896611 8.9511719 11.564453 C 8.8678479 13.439245 8.6234667 15.293823 8.21875 17.126953 L 8.6660156 17.447266 L 2.2558594 17.447266 L 3.96875 16.912109 C 3.5283227 15.1504 3.0528636 13.856586 2.5410156 13.029297 C 2.0291676 12.202008 1.9154892 11.692408 2.2011719 11.501953 C 2.4868546 11.311498 2.8145871 11.500901 3.1835938 12.072266 L 5.7382812 15.339844 L 6.3613281 15.339844 C 6.3375208 11.959267 6.6425548 9.6576953 7.2734375 8.4316406 z M 1.6660156 10.466797 L 2.3261719 10.466797 C 2.6475646 10.585832 2.7252418 10.769559 2.5585938 11.019531 L 1.8632812 11.019531 C 1.506178 10.960014 1.4398503 10.776287 1.6660156 10.466797 z " />
</svg>
