<?xml version="1.0" encoding="UTF-8" standalone="no"?>
<svg
   width="800"
   height="1000"
   version="1.1"
   id="svg1"
   sodipodi:docname="13566.svg"
   inkscape:version="1.4.2 (f4327f4, 2025-05-13)"
   xmlns:inkscape="http://www.inkscape.org/namespaces/inkscape"
   xmlns:sodipodi="http://sodipodi.sourceforge.net/DTD/sodipodi-0.dtd"
   xmlns="http://www.w3.org/2000/svg"
   xmlns:svg="http://www.w3.org/2000/svg">
  <defs
     id="defs1" />
  <sodipodi:namedview
     id="namedview1"
     pagecolor="#ffffff"
     bordercolor="#666666"
     borderopacity="1.0"
     inkscape:showpageshadow="2"
     inkscape:pageopacity="0.0"
     inkscape:pagecheckerboard="0"
     inkscape:deskcolor="#d1d1d1"
     showguides="true"
     inkscape:zoom="1.0677312"
     inkscape:cx="322.64674"
     inkscape:cy="212.13203"
     inkscape:window-width="1680"
     inkscape:window-height="998"
     inkscape:window-x="-8"
     inkscape:window-y="-8"
     inkscape:window-maximized="1"
     inkscape:current-layer="svg1">
    <sodipodi:guide
       position="706.49609,685.31445"
       orientation="1,0"
       id="guide1"
       inkscape:locked="false" />
  </sodipodi:namedview>
  <path
     id="path1"
     style="fill:#000000;stroke:none;stroke-width:0.999999"
     d="M 474.97266,0.12890625 C 461.51371,-0.41672689 447.78192,0.7657379 433.77734,3.6757812 405.76819,9.4958679 387.76236,32.048435 379.75977,71.333984 c -6.5476,8.002584 -13.45927,19.277906 -20.73438,33.828126 -2.91004,9.45764 -2.36266,14.54986 1.63867,15.27734 4.00129,0.72754 7.81948,2.54702 11.45703,5.45703 -9.72875,3.24291 -4.02787,8.73047 1.0918,8.73047 5.09258,-0.72751 5.45687,-8.9e-4 1.0918,2.18164 -4.36506,2.18254 -4.91245,3.82083 -1.63867,4.91211 3.27382,1.09125 5.45757,5.81919 6.54882,14.18555 1.09128,8.36639 5.27375,12.73196 12.54883,13.0957 7.27511,0.36374 17.46145,-0.54601 30.55664,-2.72851 5.82009,8.00259 -4.36625,13.09481 -30.55664,15.27734 H 284.82031 c -4.36507,-23.28031 -11.27673,-23.64264 -20.73437,-1.08984 -2.18254,-21.09778 -12.5501,-27.82831 -31.10156,-20.18946 -18.55152,7.63885 -27.82618,14.73171 -27.82618,21.2793 h -49.10742 c -4.36506,-23.28031 -11.27672,-23.28031 -20.73437,0 -1.45502,-21.09762 -11.63944,-28.00948 -30.55469,-20.73437 -18.915279,7.27507 -28.373048,14.18678 -28.373048,20.73437 H 0 v 18.55274 h 80.753906 c 5.820085,11.64014 16.733043,26.91675 32.738284,45.83203 13.09516,35.64799 31.101,69.47787 54.01758,101.48828 22.91658,32.01044 43.46852,50.56169 61.65625,55.65429 26.36413,-20.43962 48.80799,-38.88839 67.33203,-55.34765 22.82834,31.82253 43.30784,50.27131 61.4375,55.34765 5.48944,-4.3666 10.90004,-8.72315 16.23437,-13.06835 1.54343,13.81256 1.95164,26.89834 1.22461,39.25781 l -61.10937,253.17383 c -12.36765,29.82792 -17.09751,58.20128 -14.1875,85.11914 -18.18774,56.01826 -29.82735,97.48648 -34.91993,124.40429 -5.09254,26.91792 -14.18605,43.83281 -27.28125,50.74414 -13.09519,6.91139 -33.10166,16.18599 -60.01953,27.82618 -27.64538,5.09254 -42.74279,10.73215 -45.28906,16.91601 -2.5463,6.18386 2.0024,9.82068 13.64258,10.91211 11.64013,1.09199 58.2005,1.63672 139.68164,1.63672 11.64014,-10.18519 15.82263,-24.18972 12.54883,-42.01367 -3.27379,-17.82405 7.82036,-48.74348 33.2832,-92.75781 25.46286,-44.01434 34.92065,-82.02665 28.37305,-114.03711 -1.65414,-26.46629 32.70447,-62.16926 39.28515,-68.75 h 66.56836 c 2.18253,10.18519 9.45657,26.55468 21.82422,49.10742 2.91008,84.39119 7.45681,138.95412 13.64063,163.68945 9.02288,36.09154 4.13675,59.89175 -67.11133,75.29688 -26.91786,5.09254 -41.83215,10.73215 -44.74219,16.91601 -2.91005,6.1838 1.45556,9.82079 13.0957,10.91211 11.64017,1.09199 58.20053,1.63672 139.68165,1.63672 11.64019,-10.18519 15.27716,-24.18972 10.9121,-42.01367 -4.36501,-17.82405 -5.0936,-35.82979 -2.18359,-54.01758 -3.63756,-15.27767 -0.72718,-41.10495 8.73047,-77.48047 9.45766,-36.37552 5.09398,-68.02158 -13.09375,-94.93945 L 535.81055,543.85156 c 16.5044,-24.00651 13.91696,-77.26048 -2.72852,-104.76172 -8.36634,-13.82271 -12.54883,-25.46231 -12.54883,-34.91992 1.45498,-17.46026 6.9115,-52.74525 16.36914,-105.85351 9.45765,-53.10822 10.54855,-85.84524 3.27344,-98.21289 l 97.75084,0 c -29.1004,33.46546 -43.65234,71.65897 -43.65234,114.58203 0,47.28818 21.82597,70.93164 65.47656,70.93164 43.6506,0 65.47656,-23.64346 65.47656,-70.93164 0,-43.65057 -14.54993,-81.84408 -43.65039,-114.58203 h 43.65039 v -18.55274 h -43.65039 l 16.36914,-21.82422 c 4.36501,-13.09519 0.72607,-16.73414 -10.91406,-10.91406 l -27.28125,30.55664 -27.28125,-30.55664 c -11.64258,-5.82008 -15.64128,-2.18113 -12.0039,10.91406 l 17.46093,21.82422 -133.76256,0 c -5.82007,-9.45764 -8.73047,-21.82582 -8.73047,-37.10351 48.19492,-20.655 57.83789,-43.0222 57.83789,-85.117192 0,-26.917865 -12.91365,-44.37824 -38.74023,-52.3808592 C 501.61794,2.9479092 488.4316,0.67453939 474.97266,0.12890625 Z M 462.69727,18.134766 c 9.82137,0 21.0967,1.182474 33.82812,3.546875 25.46288,4.728839 38.19531,17.27817 38.19531,37.648437 0,21.825287 -6.73052,39.647995 -20.18945,53.470702 -13.45893,13.82267 -23.09788,17.46166 -28.91797,10.91406 -5.09258,-5.82005 -1.81983,-15.27784 9.82031,-28.373043 22.12588,-24.891597 8.15385,-58.582081 -36.01171,-34.921875 -8.00266,-6.547597 -23.27924,-10.911218 -45.83204,-13.09375 5.08375,-28.807884 40.83162,-29.191406 49.10743,-29.191406 z m -62.20313,41.195312 c 22.55283,0 40.73983,3.636998 54.5625,10.91211 0.72752,8.002583 4.36646,8.183769 10.91406,0.544921 13.26116,-15.471338 35.31596,-9.620741 26.18946,10.914063 -4.36507,9.82138 -10.36701,18.550608 -18.00586,26.189448 -7.63888,7.63889 -8.91094,14.36941 -3.81836,20.18946 5.09258,5.82009 6.9101,9.45709 5.45508,10.91211 -2.18253,18.91524 -1.0916,33.10095 3.27343,42.55859 h -36.01172 c -2.91004,-23.28032 -12.73014,-32.73812 -29.46289,-28.37305 -16.73273,4.36506 -23.64437,0.001 -20.73437,-13.09375 9.45761,-5.82008 12.54919,-9.82136 9.27539,-12.0039 -3.27381,-2.18253 -9.27577,-3.27539 -18.00586,-3.27539 -0.72752,-4.36506 -5.09308,-8.00211 -13.0957,-10.91211 6.5476,-16.732753 13.45929,-28.73661 20.73437,-36.011721 7.27511,-4.365026 15.09649,-5.091647 23.46289,-2.18164 8.36635,2.910045 16.55015,4.727565 24.55274,5.455078 v -5.455078 c -5.09254,0.727529 -12.00425,-0.727699 -20.73438,-4.365235 -8.73013,-3.637536 -17.45932,-3.637536 -26.18945,0 3.63754,-5.092578 6.18366,-9.093844 7.63867,-12.003906 z m 81.73633,6.080078 c -1.60701,-0.07437 -3.55625,0.232957 -5.89258,1.011719 -11.58873,3.862958 -20.08306,21.057895 -15.82422,26.736328 -4.36503,2.182533 -6.72994,4.911761 -7.09375,8.185547 -0.36374,3.27381 1.45574,5.45562 5.45703,6.54687 8.81364,2.40376 25.09522,-17.447866 28.37305,-27.281245 2.46118,-7.383661 1.94416,-14.876943 -5.01953,-15.199219 z m -2.35742,7.361328 c 2.21236,0.06395 3.21634,1.221931 3.01172,3.472657 -0.36378,4.001289 -2.18326,8.002578 -5.45704,12.003906 -3.2738,4.001272 -6.18397,7.092859 -8.73046,9.275391 -2.54633,2.182533 -2.54633,0.910442 0,-3.81836 2.54649,-4.728691 2.36513,-6.18403 -0.54493,-4.365234 -2.91006,1.81874 -3.63665,0.909019 -2.18164,-2.728516 1.455,-3.637553 3.63682,-7.63884 6.54688,-12.003906 3.18286,-1.273128 5.63474,-1.885676 7.35547,-1.835938 z m -74.2461,4.326172 c -3.78532,0.0682 -7.31606,1.057095 -10.58984,2.966797 l -6.54688,7.638672 v 4.365234 h 4.36524 c 10.18515,3.637552 21.46239,2.544695 33.83008,-3.27539 l 12.0039,1.091797 v -5.457032 h -12.0039 c -7.72981,-5.001615 -14.74973,-7.443746 -21.0586,-7.330078 z m -4.04101,4.056641 c -0.72751,2.910045 -0.36323,5.45614 1.09179,7.638672 -2.91006,-0.727529 -5.45814,-1.454112 -7.64062,-2.181641 0.72747,-1.45502 2.91128,-3.274498 6.54883,-5.457031 z m 9.82031,1.091797 10.91406,4.365234 c -4.36506,1.455003 -8.36636,2.181641 -12.0039,2.181641 3.63754,-1.455003 3.9999,-3.636813 1.08984,-6.546875 z m 49.10742,16.36914 c 2.91006,1.455006 3.45551,3.091416 1.63672,4.910156 -1.81874,1.81879 -3.09083,1.81879 -3.81836,0 -0.72753,-1.81874 -9e-4,-3.45515 2.18164,-4.910156 z m -77.55273,28.826176 c 0.35924,0.0108 0.74721,0.0397 1.16406,0.0918 2.91004,0.36363 6.18474,0.54688 9.82227,0.54688 3.63754,0 5.09276,0.36231 4.36523,1.08984 l -17.46094,1.0918 c -2.34961,1.17475 -3.27924,-2.98263 2.10938,-2.82031 z m 15.35156,3.91211 c -0.72753,1.455 -2.54697,2.5459 -5.45703,3.27343 -2.91,0.72753 -5.45613,1.45411 -7.63867,2.18164 -1.29994,1.29994 -6.60298,-0.53086 0,-2.18164 z m -238.98828,68.75 h 50.19922 c 5.09258,10.91263 16.00553,25.82495 32.73828,44.74023 7.10093,19.72487 15.64591,38.80866 25.63476,57.25 -10.74952,10.94325 -23.66006,23.5075 -38.73046,37.69141 -13.82267,-25.46285 -32.19281,-48.01542 -55.10938,-67.65821 -22.91658,-19.64276 -30.738,-34.74018 -23.46289,-45.28906 7.27511,-10.54893 10.18549,-19.4593 8.73047,-26.73437 z m 127.67773,0 h 85.11914 c -24.00782,2.91005 -41.10391,13.82108 -51.28906,32.73632 -6.85614,12.73284 -14.37212,24.47756 -22.54687,35.23243 -19.46443,-17.58903 -25.95297,-31.33443 -19.4668,-41.23438 6.91138,-10.54893 9.63861,-19.4593 8.18359,-26.73437 z m 145.13867,0 h 67.65821 c -23.28032,2.91005 -40.01212,13.82108 -50.19727,32.73632 -10.18511,18.91529 -22.00786,35.46786 -35.46679,49.6543 -8.35575,8.80739 -18.74437,19.3672 -31.16602,31.67969 -4.29776,-20.94027 -7.54937,-39.68579 -9.75586,-56.23438 -7.27511,-26.19039 -1.27316,-41.6501 18.00586,-46.3789 19.27902,-4.7288 32.91926,-8.54698 40.92187,-11.45703 z m 227.61022,18.55078 c 29.1004,26.19039 43.83353,56.38129 44.19727,90.57422 0.36373,34.19298 -14.3694,51.29101 -44.19727,51.29101 -30.5554,0 -45.64851,-17.09803 -45.28711,-51.29101 0.36379,-34.19293 15.45919,-64.38383 45.28711,-90.57422 z M 518.35156,254.66602 C 503.80135,336.14716 496.1611,383.4361 495.43359,396.53125 l -93.84765,12.00391 c -1.56766,-10.58168 -3.66384,-22.58962 -6.28711,-36.02149 47.74812,-40.2111 88.76634,-79.49334 123.05273,-117.84765 z m -165.87304,33.83007 c 1.24446,6.84456 4.75144,21.93691 10.51953,45.2793 l -5.0625,4.91797 c -6.1877,-10.82847 -13.09941,-21.09847 -20.73438,-30.80859 6.27707,-7.06481 11.36931,-13.52661 15.27735,-19.38868 z m 144.04687,137.49805 c 3.63755,10.91267 10.36807,23.28081 20.18945,37.10352 9.82138,13.82267 8.18304,41.10513 -4.91211,81.8457 l 6.54883,110.2168 h -163.6914 l 49.10742,-216.07032 z"
     sodipodi:nodetypes="ssccsccssssccccscccccccccscccccccsscsccssccccscsccscsccscsccsssccccccccccccssssssscsccsccsssscccscscccsccsccsccsssssssccsscssccccccccscccccccccssccssccsccccccccccsscccscscccssccscccscccccccccccccscccccs" />
</svg>
