<?xml version="1.0" encoding="UTF-8" standalone="no"?>
<svg
   width="600"
   height="1000"
   id="svg2214"
   sodipodi:version="0.32"
   inkscape:version="1.4.2 (f4327f4, 2025-05-13)"
   sodipodi:docname="13578.svg"
   inkscape:output_extension="org.inkscape.output.svg.inkscape"
   sodipodi:modified="true"
   version="1.1"
   xmlns:inkscape="http://www.inkscape.org/namespaces/inkscape"
   xmlns:sodipodi="http://sodipodi.sourceforge.net/DTD/sodipodi-0.dtd"
   xmlns="http://www.w3.org/2000/svg"
   xmlns:svg="http://www.w3.org/2000/svg"
   xmlns:rdf="http://www.w3.org/1999/02/22-rdf-syntax-ns#"
   xmlns:cc="http://creativecommons.org/ns#"
   xmlns:dc="http://purl.org/dc/elements/1.1/">
  <metadata
     id="metadata2221">
    <rdf:RDF>
      <cc:Work
         rdf:about="">
        <dc:format>image/svg+xml</dc:format>
        <dc:type
           rdf:resource="http://purl.org/dc/dcmitype/StillImage" />
      </cc:Work>
    </rdf:RDF>
  </metadata>
  <defs
     id="defs2219" />
  <sodipodi:namedview
     inkscape:window-height="998"
     inkscape:window-width="1680"
     inkscape:pageshadow="2"
     inkscape:pageopacity="0.0"
     guidetolerance="10.0"
     gridtolerance="10.0"
     objecttolerance="10.0"
     borderopacity="1.0"
     bordercolor="#666666"
     pagecolor="#ffffff"
     id="base"
     inkscape:showpageshadow="2"
     inkscape:pagecheckerboard="0"
     inkscape:deskcolor="#d1d1d1"
     inkscape:zoom="0.53386562"
     inkscape:cx="328.73441"
     inkscape:cy="519.79373"
     inkscape:window-x="-8"
     inkscape:window-y="-8"
     inkscape:window-maximized="1"
     inkscape:current-layer="svg2214" />
  <path
     id="path2216"
     style="fill:#000000;stroke:none;stroke-width:1"
     d="M 467.15039 0.10546875 C 443.61198 0.92396778 408.75163 4.18416 393.83984 68.091797 C 388.65334 75.871549 382.49851 87.946207 374.71875 102.85742 C 370.82888 111.93382 370.5047 115.46703 374.71875 116.76367 C 378.93281 118.06028 381.46522 120.03361 383.41016 121.97852 C 375.68341 128.88915 380.57139 129.31607 386.88672 130.66992 C 388.06631 130.92892 387.41737 131.87739 385.14844 134.14648 C 382.87935 136.41557 383.64515 137.74054 386.88672 139.36133 C 390.12829 140.98212 391.77744 144.72203 392.10156 151.5293 C 392.42586 158.33658 393.8682 163.04895 399.05469 163.69727 C 404.24117 164.34558 414.54922 164.34558 426.86719 163.69727 L 426.86719 182.81836 C 400.28632 188.65319 380.08358 193.92467 367.76562 198.46289 C 355.4477 203.00107 343.5797 214.86907 331.26172 234.9668 C 318.94375 255.06452 299.62625 284.71839 275.63867 323.61719 C 252.29938 313.24418 208.53706 304.14163 142.84766 294.02734 C 137.92249 292.43204 123.12329 287.95301 105.49609 285.61328 C 99.961441 268.27335 90.045244 248.83004 75.746094 227.2832 C 54.775978 195.68416 24.222645 153.20845 -15.914062 99.853516 C -24.826585 77.779662 -35.173546 67.232243 -46.953125 68.212891 C -79.479769 76.249225 -105.666 87.483086 -125.51172 101.91406 C -148.85775 118.8911 -165.28019 138.64181 -174.7793 161.16406 C -178.4676 171.43103 -170.8292 184.39252 -151.86133 200.04688 C -112.14943 252.81838 -65.100735 300.03091 -10.716797 341.6875 C 5.0678485 352.96421 26.661826 366.70999 54.066406 382.92188 C 54.01058 420.88677 60.509553 452.52313 73.560547 477.83398 C 78.361896 485.05064 95.246124 491.40015 124.2168 496.88086 C 153.18735 502.36139 200.07978 510.09211 264.89258 520.07227 C 303.06914 525.32819 333.04828 526.05976 354.83008 522.26758 L 355.70508 521.63086 L 305.72656 452.90039 L 284.71289 468.18164 L 269.11523 446.73047 C 220.37815 457.63076 184.1244 461.46112 160.35352 458.22266 C 136.58264 454.98419 123.84772 449.74476 122.15039 442.50195 C 118.14525 430.74169 115.22531 419.48508 113.38867 408.73242 C 124.58606 404.63526 140.44309 398.25268 142.27148 396.99609 C 184.57808 403.55354 216.93477 403.99472 246.08789 403.57812 C 275.60012 403.15641 291.95987 403.96311 296.49805 394.88672 C 334.74857 335.24187 361.98748 293.485 378.19531 266.25586 C 398.29304 308.39623 407.74608 366.17429 407.74609 440.08203 L 357.33594 693.86914 C 338.53482 802.13748 324.69355 870.0169 315.61719 897.24609 C 305.24415 924.47523 294.26146 940.4053 282.5918 945.91602 C 270.92216 951.42674 249.39444 960.3206 218.27539 971.99023 C 198.82599 971.99023 187.72381 975.84736 183.50977 985.89648 C 179.29572 995.94532 187.09966 1001.0993 207.8457 999.80273 L 308.66602 999.80273 C 347.56482 999.80273 361.16915 984.87144 346.90625 956.3457 C 349.49952 936.89627 361.485 903.17839 385.14844 855.52734 C 408.81188 807.87623 420.44488 772.83145 418.17578 749.49219 C 415.90669 726.15288 422.17898 707.48374 439.03516 693.86914 L 517.25781 693.86914 C 533.46564 801.48918 541.82681 870.25196 545.06836 900.72266 C 546.36497 926.65524 541.53513 943.23361 531.16211 949.39258 C 520.7891 955.5516 501.67827 963.56217 473.80078 971.99023 C 455.64803 971.99023 445.63583 976.17165 440.77344 985.89648 C 435.91108 995.62114 442.62505 999.80273 463.37109 999.80273 L 558.97461 999.80273 C 598.52173 1000.4513 609.06474 985.5198 590.26367 956.3457 C 588.31903 918.74349 591.05805 877.1042 597.2168 829.45312 C 603.37582 781.80206 599.31151 736.00953 585.04883 693.86914 L 560.71289 537.42383 C 574.97584 498.52503 573.88587 462.59881 558.97461 427.91406 C 544.06343 393.22926 542.41429 350.29133 553.75977 301.01953 C 565.10527 251.74769 560.48206 219.67892 538.11523 205.41602 C 515.7484 191.15312 503.35156 171.80535 503.35156 144.57617 L 503.35156 142.83789 C 516.31785 138.29971 529.598 129.61243 541.5918 115.02539 C 553.58561 100.43831 556.7588 79.959036 555.49805 55.925781 C 554.2163 31.492249 548.77618 -2.7328983 467.15039 0.10546875 z M 472.0625 15.945312 C 529.06881 16.936799 536.93899 38.844349 538.11523 57.664062 C 538.76353 78.410107 533.25899 97.727564 518.99609 113.28711 C 504.73319 128.84661 495.07347 133.6765 491.18359 127.19336 C 485.34876 120.71026 488.20535 110.28469 499.875 97.642578 C 521.75803 73.936057 509.49814 36.218754 468.58594 59.402344 C 460.80618 52.270876 443.46005 48.73763 418.17578 45.496094 C 428.20621 16.837841 463.97871 15.804724 472.0625 15.945312 z M 412.96094 55.925781 C 434.35527 55.925781 450.40479 60.753664 463.37109 69.830078 C 463.37109 78.258151 467.43102 79.176521 473.80078 71.568359 C 489.57057 52.732604 504.32936 63.248038 496.39844 83.736328 C 492.50855 93.785186 488.20951 100.94083 480.75391 108.07227 C 473.29831 115.20373 471.00087 122.4485 475.53906 128.93164 C 480.07724 135.41474 484.90711 150.02183 489.44531 172.38867 C 493.98349 194.7555 504.85068 210.57005 520.73438 219.32227 C 536.61802 228.07452 538.94186 254.54761 531.16211 299.28125 C 523.38235 344.01486 522.49905 382.24045 527.68555 414.00781 L 432.08203 434.86719 C 428.84033 354.4763 419.0632 297.58157 402.53125 264.51758 C 385.99924 231.4536 390.06331 212.3408 414.69922 207.1543 C 439.98349 207.1543 452.05811 196.28713 449.46484 175.86523 C 446.87155 155.44337 437.53602 147.31526 421.65234 151.5293 C 405.76866 155.74334 399.93795 152.32762 402.53125 139.36133 C 411.60761 132.87822 414.46422 127.72419 411.22266 125.45508 C 407.98114 123.18599 401.61963 121.97852 393.83984 121.97852 C 393.83984 118.44056 392.81578 114.96909 383.41016 111.54883 C 389.89325 94.044349 396.04811 82.176388 402.53125 75.044922 C 410.311 71.155063 419.0874 70.065068 426.86719 73.306641 C 434.64694 76.548214 442.77502 78.963159 451.20312 80.259766 L 449.46484 75.044922 C 444.2783 75.044922 438.1235 73.719938 430.34375 69.830078 C 422.56396 65.940186 414.43583 64.85023 406.00781 68.091797 C 409.24934 63.553618 411.6643 59.167354 412.96094 55.925781 z M 488.83203 67.246094 C 479.74864 67.246094 464.30723 81.282079 467.92383 92.923828 C 461.99329 95.902753 457.6276 104.95486 465.10938 108.07227 C 473.28204 111.47758 490.71383 89.505296 492.92188 81.998047 C 494.40774 77.351012 495.74293 67.246094 488.83203 67.246094 z M 486.58984 72.478516 C 490.06705 72.367342 490.68267 80.249309 484.23047 88.951172 C 481.08751 93.18998 476.39401 96.021792 473.80078 97.642578 C 471.20751 99.263364 471.20751 98.055837 473.80078 94.166016 C 476.39405 90.27614 476.71818 89.39279 473.80078 90.689453 C 470.88339 91.98606 470.42876 91.097299 472.0625 87.212891 C 474.67189 81.008769 480.13251 72.684972 486.58984 72.478516 z M 417.31836 74.84375 C 416.89272 74.832098 416.46479 74.836409 416.0332 74.859375 C 412.8944 75.026402 409.59001 76.133336 406.00781 78.521484 L 400.79297 83.736328 L 400.79297 88.951172 L 404.26953 88.951172 C 413.99421 94.137711 423.8889 94.137711 435.55859 88.951172 L 447.72656 88.951172 L 447.72656 83.736328 L 435.55859 83.736328 C 429.45165 78.986522 423.70288 75.01853 417.31836 74.84375 z M 412.96094 80.259766 C 411.66428 82.853035 412.10595 84.619622 414.69922 87.212891 C 412.10597 85.916245 408.60106 84.384653 406.00781 83.736328 C 406.65611 81.791417 409.71937 81.556429 412.96094 80.259766 z M 421.65234 80.259766 L 432.08203 85.474609 C 428.19215 86.771271 424.89393 88.302869 421.65234 88.951172 C 424.24561 86.357903 424.24561 82.853013 421.65234 80.259766 z M -56.902344 89.503906 C -60.936116 113.40822 -72.66398 132.86712 -92.085938 147.88086 C -115.35406 164.35445 -135.42444 167.12509 -152.29688 156.19336 C -150.06771 146.98743 -137.42511 134.00167 -114.36914 117.23633 C -94.523419 102.80535 -75.367776 93.561568 -56.902344 89.503906 z M 466.84766 99.380859 C 470.73754 101.32579 470.85503 102.97492 468.58594 104.5957 C 466.31686 106.21649 466.08184 106.54063 465.10938 104.5957 C 464.13691 102.65074 464.25438 100.67746 466.84766 99.380859 z M -36.041016 118.63672 C -27.704296 118.75995 -15.691086 129.61081 0 151.18945 C 19.311995 177.74761 46.237175 219.07064 80.775391 275.1582 C 82.375912 277.97772 83.827434 280.97606 85.130859 284.15039 C 76.998094 284.11971 68.824082 284.83957 61.181641 286.7207 C 61.749138 294.71977 68.390564 298.78808 80.220703 298.89453 C 80.398392 322.58545 85.200188 337.18925 93.638672 341.88672 C 93.548585 345.61081 93.371119 349.43771 93.107422 353.36914 C 82.696663 352.82601 72.262051 353.39359 61.878906 355.68164 C 62.375243 363.22589 68.215392 368.67671 80.388672 369.10156 C 80.567732 394.91421 85.627325 409.16767 95.261719 412.05273 C 97.612562 428.30756 101.46819 442.17052 106.82812 453.64258 C 113.32724 463.19403 131.35368 469.27087 160.9082 471.87305 C 190.46273 474.47523 225.57651 472.14328 266.24805 464.87695 L 297.44336 507.7793 C 289.11263 509.82142 253.07178 505.35578 189.32031 494.38086 C 125.56846 483.40621 91.79674 474.3897 88.003906 467.33203 C 78.746598 444.17026 74.523151 422.25485 75.333984 401.58789 C 76.144492 380.92088 67.663317 366.34258 49.888672 357.85156 C -3.7262835 322.77447 -48.161752 288.05022 -83.417969 253.67773 C -118.674 219.30511 -133.69014 196.20314 -128.46289 184.37109 C -112.30519 175.29889 -97.01015 173.32203 -82.578125 178.44336 C -72.788687 180.24821 -66.65961 175.79233 -64.191406 165.07422 C -63.739216 149.12973 -56.084488 134.19299 -41.226562 120.26562 C -39.694357 119.15147 -37.964874 118.60828 -36.041016 118.63672 z M 393.83984 125.45508 C 397.08141 126.10338 401.02795 127.19336 404.26953 127.19336 L 392.10156 128.93164 C 389.27839 128.93164 389.69899 125.45508 393.83984 125.45508 z M 407.74609 128.93164 C 405.086 130.26169 400.37769 134.68491 395.57812 135.88477 C 391.44153 135.07496 391.86196 133.54578 393.83984 130.66992 L 407.74609 128.93164 z M 142.26172 327.45898 C 184.28525 340.34097 225.85459 352.20432 263.4707 361.85938 C 244.02131 361.21105 204.86748 360.01773 142.66016 362.01758 C 132.62243 359.51141 122.4382 357.13183 112.18359 355.47461 C 112.28088 350.79266 112.29186 346.06532 112.21484 341.29297 C 122.56512 338.3457 132.90171 333.21921 142.26172 327.45898 z M 531.16211 438.34375 C 553.20476 466.22122 555.38471 498.52503 534.63867 537.42383 L 558.97461 671.27148 L 388.625 671.27148 L 430.34375 462.67969 L 531.16211 438.34375 z " />
</svg>
