<?xml version="1.0" encoding="UTF-8" standalone="no"?>
<svg
   width="1100"
   height="1000"
   version="1.1"
   id="svg1"
   sodipodi:docname="13572.svg"
   inkscape:version="1.4.2 (f4327f4, 2025-05-13)"
   xmlns:inkscape="http://www.inkscape.org/namespaces/inkscape"
   xmlns:sodipodi="http://sodipodi.sourceforge.net/DTD/sodipodi-0.dtd"
   xmlns="http://www.w3.org/2000/svg"
   xmlns:svg="http://www.w3.org/2000/svg">
  <defs
     id="defs1" />
  <sodipodi:namedview
     id="namedview1"
     pagecolor="#ffffff"
     bordercolor="#666666"
     borderopacity="1.0"
     inkscape:showpageshadow="2"
     inkscape:pageopacity="0.0"
     inkscape:pagecheckerboard="0"
     inkscape:deskcolor="#d1d1d1"
     inkscape:zoom="0.3775"
     inkscape:cx="1148.3444"
     inkscape:cy="703.31125"
     inkscape:window-width="1680"
     inkscape:window-height="998"
     inkscape:window-x="-8"
     inkscape:window-y="-8"
     inkscape:window-maximized="1"
     inkscape:current-layer="svg1"
     showguides="true">
    <sodipodi:guide
       position="0,1000"
       orientation="0,-1"
       id="guide1"
       inkscape:locked="false" />
    <sodipodi:guide
       position="1249.9897,0"
       orientation="0,-1"
       id="guide2"
       inkscape:locked="false" />
    <sodipodi:guide
       position="1328.4911,765.01927"
       orientation="1,0"
       id="guide3"
       inkscape:locked="false" />
    <sodipodi:guide
       position="1252.2362,27.799618"
       orientation="0,-1"
       id="guide4"
       inkscape:locked="false" />
    <sodipodi:guide
       position="1322.8248,699.80473"
       orientation="0,-1"
       id="guide5"
       inkscape:locked="false" />
    <sodipodi:guide
       position="725.10609,0.00090490123"
       orientation="1,0"
       id="guide6"
       inkscape:locked="false" />
    <sodipodi:guide
       position="1320.4538,762.7218"
       orientation="0,-1"
       id="guide7"
       inkscape:locked="false" />
  </sodipodi:namedview>
  <path
     id="path1"
     style="fill:#000000;stroke:none;stroke-width:1"
     d="M 579.125 0.021484375 C 556.64463 0.34765696 532.4321 4.4207709 506.48828 12.242188 C 437.30475 33.0993 393.11401 69.358816 373.91406 121.02148 C 386.5602 126.37639 399.08173 132.83128 411.47656 140.38281 C 407.44404 147.01474 402.66787 153.22164 397.14844 159.00391 C 390.31898 166.15857 385.92783 172.01151 383.97656 176.56445 C 380.72447 183.71911 378.4493 192.01223 377.14844 201.44336 C 375.84761 210.87449 373.89466 221.11858 371.29297 232.17578 C 332.26758 267.94905 306.90096 298.19411 295.19336 322.91016 C 271.77815 311.85295 252.10337 305.18662 236.16797 302.91016 C 220.23264 300.63365 206.41073 294.45459 194.70312 284.37305 C 182.99553 274.29149 162.83344 269.57418 134.21484 270.22461 C 124.45847 266.9725 122.18141 262.09603 127.38477 255.5918 C 138.44198 256.89265 147.3854 257.37987 154.21484 257.05469 C 161.0443 256.72957 164.78512 252.82764 165.43555 245.34766 C 166.08593 237.8678 168.03694 233.63967 171.28906 232.66406 C 174.54118 231.68839 174.21504 230.22471 170.3125 228.27344 C 166.40999 226.32216 166.73613 225.67185 171.28906 226.32227 C 175.67677 226.32227 179.62942 222.93706 172.26367 218.51758 C 175.51578 215.91592 178.93051 214.28912 182.50781 213.63867 C 186.08513 212.98828 186.24822 208.43597 182.99609 199.98047 C 176.4919 186.97199 170.63893 176.889 165.43555 169.73438 C 158.28089 134.61154 142.18192 114.44949 117.14062 109.24609 C 92.099367 104.04271 68.033384 105.01721 44.943359 112.17188 C 21.853336 119.32654 10.308594 134.93827 10.308594 159.00391 C 10.308594 181.76871 14.373593 198.19189 22.503906 208.27344 C 30.634151 218.355 43.805715 227.29843 62.017578 235.10352 C 62.017578 252.0145 54.700923 270.54975 40.066406 290.71289 C 25.431889 310.876 21.366857 341.4472 27.871094 382.42383 C 34.375297 423.40048 38.277277 451.69257 39.578125 467.30273 C 39.578125 476.40863 35.676144 486.9789 27.871094 499.01172 C 20.06601 511.04454 15.837923 526.98045 15.1875 546.81836 C 14.537075 566.65623 18.11484 581.77878 25.919922 592.18555 L 15.1875 759.99414 C -0.42263553 784.05978 -4.0004296 812.35385 4.4550781 844.875 C 12.910586 877.39616 15.511884 900.8098 12.259766 915.11914 C 14.861427 930.72925 14.211135 946.50212 10.308594 962.4375 C 6.4060847 978.37281 9.6577073 990.89403 20.064453 1000 C 92.911841 1000 134.37747 999.51273 144.45898 998.53711 C 154.54057 997.56149 158.44253 994.3079 156.16602 988.7793 C 153.88956 983.25067 140.39379 978.21113 115.67773 973.6582 C 92.262523 968.45477 75.189005 961.46232 64.457031 952.68164 C 53.725057 943.90091 50.960673 928.45421 56.164062 906.33984 C 61.367419 884.22547 65.595538 835.44322 68.847656 759.99414 C 79.254434 739.83107 85.433494 725.19581 87.384766 716.08984 L 147.87305 716.08984 C 153.07645 721.94369 160.23196 731.05018 169.33789 743.4082 C 178.44378 755.7662 182.6719 767.14792 182.02148 777.55469 C 176.16769 806.17331 184.78501 840.1592 207.875 879.50977 C 230.96504 918.86036 241.04603 946.50212 238.11914 962.4375 C 235.19221 978.37281 238.9331 990.89403 249.33984 1000 C 322.18722 1000 363.81393 999.51273 374.2207 998.53711 C 384.62744 997.56149 388.52942 994.3079 385.92773 988.7793 C 383.32606 983.25067 369.9934 978.21113 345.92773 973.6582 C 321.86209 963.25142 303.81212 954.95833 291.7793 948.7793 C 279.74649 942.60029 271.45334 927.47779 266.90039 903.41211 C 262.34746 879.3465 252.26641 842.27201 236.65625 792.18945 C 239.25794 768.12382 235.02987 742.75721 223.97266 716.08984 L 168.36133 489.74414 C 167.7109 467.62978 171.28871 443.0746 179.09375 416.08203 C 186.89883 389.0895 190.80078 363.56173 190.80078 339.49609 C 260.39605 359.65918 294.49242 370.75565 329.61523 374.6582 C 373.55759 359.28136 403.02595 344.00346 457.55469 315.86523 C 471.60632 315.13116 482.37627 310.36915 489.86523 301.57812 C 497.35419 292.78713 503.79877 287.34632 509.19922 285.25781 C 514.59967 283.16927 516.51241 280.90189 514.93945 278.45508 C 514.81711 276.11315 513.05746 275.25764 509.6582 275.88672 C 506.2589 276.51588 502.53126 278.65093 498.47656 282.29492 C 494.42185 285.93892 490.55886 288.94139 486.88867 291.30078 C 484.54673 291.42313 482.81774 291.1524 481.69922 290.48828 C 480.58068 289.82414 481.57658 288.14653 484.6875 285.45508 C 494.68441 276.26207 502.96764 270.59111 509.53906 268.44141 C 516.02825 266.3187 524.74226 262.9342 535.67969 258.28906 C 539.14124 262.84109 542.59238 267.492 546.03125 272.24219 C 589.98898 529.3046 600.72607 587.68948 723.86914 1000 L 871.2793 955.55859 C 746.01264 543.88828 722.69151 489.29766 617.24219 250.77344 C 621.05284 157.87496 641.00529 84.157612 677.09766 29.621094 C 649.2504 9.3448726 616.59229 -0.5221366 579.125 0.021484375 z M 580.54688 26.578125 C 600.79673 27.308186 619.82868 31.543108 640.07812 37.990234 C 608.80508 84.095885 592.71855 159.26582 590.03125 236.97852 L 561.08398 245.70703 C 515.89145 182.42891 460.93593 128.67508 409.39062 107.53711 C 436.01432 74.40707 463.47202 51.341095 513.71094 36.195312 C 538.8304 28.622421 560.29702 25.848064 580.54688 26.578125 z M 90.554688 122.17383 C 99.3354 122.17383 106.89666 123.22988 113.23828 125.34375 C 125.92152 129.57151 133.23818 137.2143 135.18945 148.27148 C 115.02635 150.22275 101.04337 154.12471 93.238281 159.97852 C 53.856562 138.88112 41.002124 168.8059 61.529297 191.19922 C 72.26127 202.90684 75.025656 211.36307 69.822266 216.56641 C 65.269301 222.42024 56.976181 219.16661 44.943359 206.80859 C 32.910538 194.45055 26.894531 178.84077 26.894531 159.97852 C 26.894531 141.11627 38.115119 129.57151 60.554688 125.34375 C 71.774487 123.22988 81.773975 122.17383 90.554688 122.17383 z M 431.29492 153.46875 C 461.75562 175.15534 491.44036 203.62134 520.34961 238.86719 C 514.22357 241.75849 507.65752 244.18436 500.65234 246.14453 C 491.12732 248.80978 484.3636 251.60084 480.36133 254.51953 C 473.91225 259.01117 467.63859 265.12078 461.53906 272.8457 C 455.43955 280.5706 448.61459 288.24325 441.06445 295.86328 C 389.24468 306.69916 366.18811 318.90255 341.69336 331.16992 C 343.78251 328.14121 362.83816 293.96548 396.66016 241.93164 L 396.66016 240.95703 C 407.71737 233.15194 414.22256 223.71928 416.17383 212.66211 C 418.1251 201.6049 421.05061 193.63792 424.95312 188.75977 C 428.85566 183.88157 429.50599 180.79305 426.9043 179.49219 C 424.95302 177.54092 422.67784 177.70215 420.07617 179.97852 C 417.47448 182.25499 415.19736 186.32002 413.24609 192.17383 C 411.29481 198.02763 409.34385 202.25572 407.39258 204.85742 C 405.44131 206.80869 404.14066 207.78516 403.49023 207.78516 C 402.18939 207.78516 402.18939 205.83418 403.49023 201.93164 C 407.39278 188.27275 411.45781 178.8401 415.68555 173.63672 C 419.46169 168.9892 424.66495 162.26737 431.29492 153.46875 z M 145.92188 159.97852 C 147.87313 161.92978 150.15026 165.18141 152.75195 169.73438 C 145.5973 166.48226 138.11754 166.48226 130.3125 169.73438 C 122.50741 172.98646 116.00222 174.28713 110.79883 173.63672 L 110.79883 178.51562 C 117.9535 177.86519 125.4332 176.23841 133.23828 173.63672 C 141.04333 171.03506 148.19888 171.68734 154.70312 175.58984 C 161.20736 182.09407 167.06027 192.82541 172.26367 207.78516 C 165.10901 210.38682 161.5332 213.63848 161.5332 217.54102 C 153.07769 217.54102 147.54897 218.51747 144.94727 220.46875 C 142.34558 222.42002 145.27106 225.99583 153.72656 231.19922 C 155.67782 242.90685 149.33765 246.81075 134.70312 242.9082 C 120.06861 239.00565 110.79903 245.83508 106.89648 263.39648 L 117.62891 284.85938 C 138.44243 284.20895 152.42738 285.99882 159.58203 290.22656 C 166.73666 294.45429 170.15136 309.25067 169.82617 334.61719 C 169.50107 359.98365 164.78378 386.0006 155.67773 412.66797 C 146.57181 439.33532 142.99599 458.84899 144.94727 471.20703 L 61.042969 460.47461 C 60.392512 448.76704 56.488645 422.75007 49.333984 382.42383 C 42.179357 342.09765 45.43098 314.94111 59.089844 300.95703 C 72.748743 286.97292 79.580078 263.39619 79.580078 230.22461 C 78.279231 228.92375 79.904065 225.67214 84.457031 220.46875 C 89.009963 215.2654 87.872399 209.24744 81.042969 202.41797 C 74.213537 195.58854 68.847855 187.78461 64.945312 179.00391 C 56.832296 160.74965 76.404002 155.12217 88.359375 169.73438 C 94.213187 176.889 97.140625 176.56482 97.140625 168.75977 C 110.1491 162.25554 126.40919 159.32809 145.92188 159.97852 z M 74.041016 164.44141 C 67.734193 164.52164 65.760745 170.31009 68.847656 178.02734 C 72.137118 186.25096 86.639274 204.61671 94.701172 202.41797 C 101.89782 200.45526 101.25448 193.25601 93.238281 189.24805 C 97.045838 184.1713 89.452522 168.79935 79.091797 165.3457 C 77.18396 164.70976 75.496436 164.42289 74.041016 164.44141 z M 75.310547 171.32031 C 76.855307 171.23901 79.253741 172.01067 82.505859 173.63672 C 85.10752 176.88884 86.895442 180.14242 87.871094 183.39453 C 88.846712 186.64665 88.196388 187.46002 85.919922 185.83398 C 83.643457 184.2079 83.643457 185.50857 85.919922 189.73633 C 88.196388 193.96408 88.035157 195.10166 85.433594 193.15039 C 82.831767 191.19911 80.228615 188.43472 77.626953 184.85742 C 75.025225 181.28007 73.563476 177.70232 73.238281 174.125 C 73.075683 172.33634 73.765786 171.40162 75.310547 171.32031 z M 141.79102 174.88867 C 136.25226 174.78705 129.82506 176.97171 122.50781 181.44336 L 112.75 181.44336 L 111.77539 187.29688 L 123.48242 185.3457 C 133.88916 190.54909 143.9702 191.5236 153.72656 188.27148 L 156.6543 188.27148 L 157.62891 184.36914 L 150.80078 177.54102 C 148.11778 175.83367 145.11427 174.94965 141.79102 174.88867 z M 144.94727 178.51562 C 148.84982 180.4669 150.80078 182.09368 150.80078 183.39453 C 149.49993 184.04496 147.22281 184.69528 143.9707 185.3457 C 145.92197 183.39443 146.24811 181.11734 144.94727 178.51562 z M 136.16602 179.49219 C 134.21478 182.09388 134.53897 184.04486 137.14062 185.3457 C 134.53896 185.3457 131.28734 184.69538 127.38477 183.39453 L 136.16602 179.49219 z M 93.238281 194.12695 C 95.18955 195.4278 95.676788 196.88958 94.701172 198.51562 C 93.725512 200.14171 92.424864 200.14171 90.798828 198.51562 C 89.172751 196.88959 89.986167 195.4278 93.238281 194.12695 z M 163.10742 219.83594 C 167.23173 219.91213 166.64145 222.61723 163.48438 222.41992 L 147.87305 221.44336 C 152.27005 221.01414 156.66733 220.57999 161.04492 219.98047 C 161.83282 219.86795 162.51824 219.82505 163.10742 219.83594 z M 148.84961 223.39453 L 160.55664 226.32227 C 165.05512 227.44689 163.8665 229.67602 159.53906 228.81055 C 155.67043 228.03684 151.15135 226.98531 148.84961 223.39453 z M 594.02539 282.80859 C 680.26855 454.7296 780.90009 766.04025 831.77734 938.1875 L 747.18555 963.68945 C 694.4367 792.10645 606.23489 477.04916 583.08398 286.10742 L 594.02539 282.80859 z M 60.066406 486.81641 L 143.9707 498.52344 L 187.875 691.69922 L 41.529297 691.69922 L 47.382812 593.16016 C 35.024797 556.73646 33.236875 532.3463 42.017578 519.98828 C 50.798281 507.63022 56.814288 496.57276 60.066406 486.81641 z " />
</svg>
