<?xml version="1.0" encoding="UTF-8" standalone="no"?>
<svg
   width="1200"
   height="2000"
   version="1.1"
   id="svg1"
   sodipodi:docname="13577.svg"
   inkscape:version="1.4.2 (f4327f4, 2025-05-13)"
   xmlns:inkscape="http://www.inkscape.org/namespaces/inkscape"
   xmlns:sodipodi="http://sodipodi.sourceforge.net/DTD/sodipodi-0.dtd"
   xmlns="http://www.w3.org/2000/svg"
   xmlns:svg="http://www.w3.org/2000/svg">
  <defs
     id="defs1" />
  <sodipodi:namedview
     id="namedview1"
     pagecolor="#ffffff"
     bordercolor="#666666"
     borderopacity="1.0"
     inkscape:showpageshadow="2"
     inkscape:pageopacity="0.0"
     inkscape:pagecheckerboard="0"
     inkscape:deskcolor="#d1d1d1"
     inkscape:zoom="0.13346641"
     inkscape:cx="2101.6525"
     inkscape:cy="1637.1161"
     inkscape:window-width="1680"
     inkscape:window-height="998"
     inkscape:window-x="-8"
     inkscape:window-y="-8"
     inkscape:window-maximized="1"
     inkscape:current-layer="svg1" />
  <path
     id="path1"
     style="fill:#000000;stroke:none;stroke-width:111.268"
     d="M 762.61914 0 C 681.4855 6.7611674 631.5992 50.780502 612.66797 131.91406 C 600.49799 148.14081 587.50671 171.05569 573.98438 200.80469 C 564.51888 218.38363 563.916 228.52404 572.0293 231.22852 C 580.14267 233.93293 586.83135 237.98947 592.24023 243.39844 C 585.47914 247.45505 582.84701 251.1018 584.19922 254.48242 C 585.55146 257.86297 588.1835 260.30206 592.24023 261.6543 C 586.83137 268.41551 586.63797 273.48665 591.37109 276.86719 C 596.10388 280.24785 598.32422 288.77071 598.32422 302.29297 C 598.32422 321.92427 608.30625 330.42163 661.34766 326.63281 L 667.43359 363.14258 C 655.26353 363.14258 628.07335 366.78941 586.1543 374.22656 C 544.23531 381.66383 515.6463 405.39835 500.0957 445.28906 C 484.54502 485.17978 475.41729 520.86913 472.71289 552.64648 C 471.44098 567.59089 468.22978 592.57163 463.36914 627.4043 C 446.41354 620.25844 429.34186 613.33826 411.86328 606.54102 C 363.18306 587.60987 326.67401 571.38359 302.33398 557.86133 L 302.33398 559.81836 C 292.86801 549.00051 276.23233 532.36256 252.56836 510.05078 C 228.9044 487.73853 205.57768 480.03568 182.58984 486.79688 C 159.602 493.55809 126.54665 493.55809 83.275391 486.79688 C 81.923186 500.31914 92.256662 508.84407 114.56836 512.22461 C 136.88013 515.60524 155.54546 519.85478 170.41992 525.26367 C 183.94219 546.8993 158.59012 549.94124 94.359375 534.39062 C 30.128622 518.84003 -1.3111884 520.67628 0.041015625 539.60742 C 36.551109 547.72079 69.415345 559.4787 98.488281 575.0293 C 127.56115 590.57989 178.46021 598.2832 251.48047 598.2832 L 249.52539 598.2832 C 289.94856 636.73455 356.56109 678.17089 449.46094 722.37305 C 446.61014 741.15391 443.47808 761.38753 440.11523 783.00586 C 418.4796 854.67385 405.70708 952.03133 401.65039 1075.084 C 386.21314 1089.3374 373.73798 1104.7474 364.25781 1121.3809 C 331.63265 1123.2161 300.92222 1126.3241 274.26172 1130.7676 C 161.27028 1149.5996 78.021484 1274.9209 78.021484 1357.2148 C 78.021484 1428.8825 140.86489 1429.1428 150.17188 1383.293 C 165.76168 1306.4916 209.78229 1188.4766 299.6875 1178.1426 C 315.39322 1176.3375 334.69783 1174.8317 356.46289 1173.6973 L 356.69727 1182.1094 L 354.63672 1219.7363 C 366.0762 1223.1349 374.53646 1218.5226 380.14648 1205.7969 C 417.662 1219.4559 442.67121 1213.3967 455.47266 1187.6152 L 459.96484 1171.3145 C 487.19697 1171.3702 515.34184 1171.9269 543.1582 1173.0625 C 529.42994 1224.9288 521.45125 1253.1718 519.2207 1257.6328 L 486.83984 1279.8008 C 455.73863 1258.1654 435.45581 1252.9012 425.99023 1263.7188 C 416.52466 1274.5363 417.53726 1284.677 429.03125 1294.1426 C 440.52516 1303.6093 439.92229 1309.6934 427.07617 1312.3984 C 414.23005 1315.1033 408.74905 1322.806 410.77734 1335.6523 C 412.80565 1348.4987 419.3013 1353.9796 430.11914 1351.9512 C 442.57557 1349.6143 438.90249 1353.9916 430.11914 1360.0293 C 419.30132 1367.4664 416.25936 1375.1677 420.99219 1383.2812 C 425.72497 1391.3927 434.85078 1391.8057 448.37305 1384.373 C 453.86646 1381.352 457.43554 1379.922 459.02344 1380.0254 L 459.24023 1380.0254 L 459.45703 1380.0254 L 459.45703 1380.248 L 459.67383 1380.248 L 459.67383 1380.4707 L 459.89062 1380.4707 L 459.89062 1380.6934 L 459.89062 1380.916 C 459.67588 1382.4615 457.49113 1385.8085 453.37109 1390.4785 C 443.2289 1401.9723 443.63877 1411.5101 454.45703 1418.9473 C 465.27485 1426.3833 476.02007 1425.3719 486.83789 1415.9062 C 470.61114 1448.3598 465.1301 1487.5009 470.53906 1533.4766 C 435.38117 1645.7115 412.87808 1728.46 402.73633 1781.873 C 392.59458 1835.2859 374.33915 1868.7531 347.9707 1882.2754 C 321.60232 1895.7977 282.05137 1914.8729 229.31445 1939.2129 C 175.22541 1950.0303 145.40494 1961.3806 139.99609 1973.5508 C 134.58713 1985.7211 143.11012 1992.8193 165.42188 1994.8477 C 187.73364 1996.8772 280.01991 1997.8887 442.28711 1997.8887 C 465.27498 1976.253 473.58297 1947.8571 467.49805 1912.6992 C 461.41302 1877.5413 483.72314 1818.7221 534.43164 1736.2363 C 585.14017 1653.7505 603.80546 1575.4682 590.2832 1501.0957 C 588.93096 1476.7556 598.46863 1450.5801 618.75195 1422.8594 C 639.03537 1395.1388 657.29084 1369.7847 673.51758 1346.7969 C 692.44873 1342.74 704.35011 1344.2294 711.33008 1396.7812 C 714.90212 1423.6753 754.93601 1413.3488 761.9668 1398.9531 C 783.14484 1355.5911 789.66334 1359.1109 799.12891 1367.2246 C 805.89011 1402.3825 816.03047 1433.4106 829.55273 1460.4551 C 853.89277 1587.5645 872.55812 1686.5394 885.4043 1757.5312 C 898.2505 1828.5232 894.6037 1874.5697 874.32031 1895.5293 C 854.03738 1916.4274 818.13268 1933.6691 766.74805 1947.1914 C 712.65901 1956.6569 683.65825 1967.4023 679.60156 1979.5723 C 675.54484 1991.7423 684.67148 1998.646 706.98438 2000 C 729.29606 2001.3519 820.76266 2001.3519 981.67773 2000 C 1014.1311 1979.7166 1023.2589 1954.9674 1009.0605 1925.8945 C 994.86216 1896.8216 986.749 1861.3253 984.7207 1819.4062 C 982.69239 1777.4872 985.73388 1719.2709 993.84766 1644.8984 C 1000.6087 1577.287 995.34455 1521.9198 977.76562 1478.6484 C 988.58344 1493.5229 997.9042 1497.1695 1006.0176 1489.7324 C 1014.1303 1482.2952 1014.5424 1475.0017 1007.1055 1467.5645 C 990.12481 1450.5813 1002.7583 1449.7668 1015.1445 1454.2773 C 1022.5818 1456.9822 1029.0774 1452.9253 1034.4863 1442.1074 C 1039.8952 1431.2899 1037.4562 1422.7669 1027.3145 1416.6816 C 1017.1722 1410.5975 1017.5821 1405.333 1028.4004 1400.5996 C 1039.219 1395.8986 1041.2475 1385.3458 1034.4863 1369.1191 C 1027.7252 1352.8917 1009.4717 1350.2606 979.72266 1361.0781 C 955.38255 1331.3291 939.75914 1302.9332 932.99805 1275.8887 C 926.23684 1248.8441 925.63411 1190.6279 931.04297 1101.3809 C 936.45193 1012.1339 926.91239 921.46313 902.57227 829.51172 C 914.74233 830.86393 921.64974 810.58109 923.00195 768.66211 L 943.21289 766.70703 C 939.15628 713.9702 932.46764 681.51771 923.00195 669.34766 C 941.93321 674.75662 951.25391 629.52966 951.25391 533.52148 C 979.65071 453.74013 977.42845 405.66425 944.29883 389.4375 C 911.16929 373.21076 868.16456 362.46549 815.42773 357.05664 L 811.29883 304.24805 C 880.26241 274.49905 914.74414 219.73643 914.74414 139.95508 C 913.39193 49.355866 862.68392 2.7044816 762.61914 0 z M 755.97852 36.376953 C 774.45582 37.151996 795.27155 40.639609 818.4707 46.724609 C 859.71362 57.542458 880.40625 89.994941 880.40625 144.08398 C 880.40625 187.35524 866.81209 220.41053 839.76758 243.39844 C 812.72299 266.38627 795.07235 271.04766 786.95898 257.52539 C 777.4934 245.35534 784.39876 226.9068 807.38672 201.89062 C 830.37455 176.87437 836.04861 152.53506 824.55469 128.87109 C 813.06079 105.20712 788.3116 102.76799 750.44922 121.69922 C 738.27917 108.17696 708.67561 96.610181 661.34766 87.144531 C 672.16547 61.45229 690.61404 45.637762 716.98242 39.552734 C 723.5745 38.031477 730.75753 36.974593 738.2793 36.509766 C 743.92062 36.161143 749.81942 36.118606 755.97852 36.376953 z M 651.13281 109.5293 C 688.99519 114.93819 720.02317 126.50504 744.36328 144.08398 C 743.8559 150.169 744.39521 153.89019 745.88477 155.60156 L 746.10156 155.81836 L 746.31836 156.03516 L 746.53711 156.25195 L 746.75391 156.46875 L 746.9707 156.46875 L 747.1875 156.68555 C 747.2738 156.70375 747.74971 156.67495 747.83984 156.68555 L 748.05664 156.68555 C 750.95851 156.54647 755.72634 153.0095 761.74805 146.03711 C 774.59417 131.16265 786.95689 127.10602 799.12695 133.86719 C 811.297 140.62828 813.13131 153.40276 804.3418 172.33398 C 795.55471 191.26686 783.98941 207.90315 769.79102 222.10156 C 755.59263 236.29994 752.13887 249.89411 759.57617 262.74023 C 767.0134 275.58643 772.08458 287.34628 774.78906 298.16406 C 773.43679 336.02643 776.28571 361.38045 783.04688 374.22656 C 789.80796 387.07277 826.92183 400.25508 894.5332 413.77734 C 859.30821 417.69128 799.69483 462.92854 741.75586 509.39844 C 700.34148 487.86609 670.09609 452.60734 651.13281 403.56445 C 693.05187 402.21224 711.91021 383.95672 707.85352 348.79883 C 703.79683 313.6409 687.57055 299.25091 659.17383 305.33594 C 630.77703 311.42089 616.58008 299.44424 616.58008 269.69531 L 645.04883 269.69531 L 645.04883 255.56836 L 612.66797 255.56836 L 612.66797 241.44336 C 612.66797 229.41368 597.41638 221.64665 592.24023 219.05859 C 605.76249 183.90069 618.75182 159.56139 630.92188 146.03906 C 644.44413 139.27797 658.23325 139.68776 672.43164 147.125 C 686.63003 154.56223 700.41719 159.63341 713.93945 162.33789 L 713.93945 152.125 C 705.82612 152.125 694.67105 147.46364 680.47266 137.99805 C 666.27433 128.53248 651.88235 127.10793 637.00781 133.86914 C 642.41677 124.40345 647.07619 116.29043 651.13281 109.5293 z M 787.83984 138.57227 C 787.2097 138.56137 786.55444 138.587 785.87305 138.65039 C 773.10373 139.83898 762.65703 150.41544 754.57812 163.20703 C 746.46479 176.05315 744.43547 185.18095 748.49219 190.58984 C 740.37886 194.64656 735.71939 200.12753 734.36719 206.88867 C 733.01495 213.64976 735.64711 218.31115 742.4082 221.01562 C 749.16941 223.7201 758.89989 218.64892 771.74609 205.80273 C 784.59221 192.95661 792.70539 180.78689 796.08594 169.29297 C 799.46659 157.79898 799.87786 149.49287 797.17383 144.08398 C 795.39845 140.53437 792.25082 138.64851 787.83984 138.57227 z M 652.87109 147.34375 C 647.85312 147.52845 643.18863 149.16694 638.96289 152.125 L 624.83789 166.25 L 624.83789 176.46484 L 630.92188 176.46484 C 649.85311 185.93042 669.31619 185.93042 689.59961 176.46484 L 711.98242 182.54883 L 711.98242 170.37891 L 691.77148 166.25 C 676.89699 153.23478 663.91075 146.93703 652.87109 147.34375 z M 785.00195 151.68945 L 785.00977 151.68945 C 789.33963 151.72434 789.51449 156.81278 789.13281 159.29688 C 787.78057 168.08639 783.917 176.39256 777.83203 184.50586 C 771.747 192.61919 766.07302 198.10021 760.66406 200.80469 C 758.13199 202.08707 756.42599 202.0291 756.53711 200.80469 C 756.66683 199.37572 758.13067 196.56682 760.66602 192.76367 C 763.1051 189.10517 768.13479 180.77657 760.66602 184.50586 C 758.17691 185.75113 752.85219 188.05923 757.62695 177.55078 C 761.00749 170.11351 766.07878 163.01511 772.83984 156.25391 C 778.15949 153.29849 782.26575 151.67393 785.00195 151.68945 z M 649.17773 156.25391 C 646.47336 161.66276 646.47336 166.92695 649.17773 172.33594 C 643.76888 170.9837 640.31513 168.95437 638.96289 166.25 C 638.96289 162.19328 642.41664 158.95841 649.17773 156.25391 z M 667.43164 158.20898 L 683.51367 172.33594 C 675.40033 173.68773 668.10886 174.50781 661.34766 174.50781 C 668.1092 171.80333 670.13607 166.32233 667.43164 158.20898 z M 628.24023 215.76562 C 626.61919 215.81754 624.99201 218.51865 625.70898 222.10156 C 626.70066 227.05714 624.03073 227.84611 622.66602 228.1875 C 619.96154 228.86401 617.33132 227.2465 614.62695 223.18945 L 610.49609 217.10352 C 603.76478 216.94039 602.5593 218.11859 602.45703 224.74805 C 607.35075 223.49113 611.21446 224.17804 614.62305 230.14258 C 617.32742 234.87537 620.78173 235.89003 624.83789 233.18555 C 628.89462 230.48107 630.92187 226.83434 630.92188 222.10156 C 630.92188 217.49851 629.58339 215.72261 628.24023 215.76562 z M 614.62305 409.64844 C 631.27355 462.1616 663.78973 503.45187 711.98242 533.52148 C 685.68506 554.92865 656.65216 578.95113 625.27148 605.23828 C 612.34799 547.33704 593.24328 486.08082 567.90039 421.81836 L 614.62305 409.64844 z M 563.98828 547.64844 C 574.4985 571.49858 583.25452 600.35629 590.50195 634.35742 C 577.93068 644.97278 565.11812 656.07591 551.81836 667.39062 C 549.4546 666.24455 547.02163 665.05253 544.64648 663.91406 C 554.40042 617.40082 560.88993 578.63201 563.98828 547.64844 z M 912.78711 570.03125 C 918.19596 626.82477 915.56391 655.2207 904.74609 655.2207 L 876.27734 655.2207 C 854.64171 653.86846 844.50125 701.72758 845.85352 799.08789 C 845.85352 819.37128 851.33448 829.51172 862.15234 829.51172 C 886.49237 943.09876 896.22298 1037.8261 891.49023 1113.5508 C 886.75744 1189.2755 890.81371 1250.1238 903.66016 1296.0996 C 916.50627 1342.0753 940.43586 1370.4752 975.59375 1381.2891 C 1001.286 1370.4716 1015.483 1368.8538 1018.1875 1376.291 C 1020.8919 1383.7282 1017.8497 1390.4167 1009.0605 1396.502 C 1000.2711 1402.5872 1001.0926 1409.2757 1011.2344 1416.7129 C 1021.376 1424.1501 1024.6111 1430.2334 1021.2305 1434.9668 C 1017.85 1439.7012 1011.5712 1439.5072 1002.1055 1434.0996 C 992.63993 1428.6908 986.14421 1427.6763 982.76367 1431.0566 C 979.38312 1434.4369 980.80756 1441.1254 986.89258 1451.2676 C 998.96226 1471.3852 991.25199 1479.979 971.68164 1460.4102 C 969.27185 1458.3027 964.63728 1452.6523 961.9043 1454.7695 C 961.32015 1456.1426 961.77779 1459.6051 963.42578 1464.5488 C 967.48261 1476.7187 965.26021 1485.0244 956.4707 1489.7578 C 947.68119 1494.4911 942.20017 1489.2234 940.17188 1473.6758 C 938.00348 1457.0431 933.63388 1455.7863 928.00391 1464.543 C 921.91877 1474.0086 915.83492 1475.0231 909.75 1467.5859 C 903.66497 1460.1488 908.13135 1451.0206 923.00586 1440.2031 C 920.30138 1382.0574 893.11308 1346.5631 841.72852 1333.7168 C 790.34389 1320.8706 761.948 1331.2043 756.53906 1365.0098 C 753.03913 1386.884 724.94155 1384.2342 722.20312 1366.0898 C 716.79427 1330.2558 683.32705 1311.3975 621.80078 1309.3691 C 560.27443 1307.3407 525.38286 1325.7874 517.26953 1365.002 C 525.38286 1382.5809 526.39753 1394.1478 520.3125 1399.5566 C 514.22747 1404.9653 509.56621 1401.9237 506.18555 1390.4297 C 502.805 1378.9368 496.72109 1378.5261 487.93164 1389.3398 C 468.02809 1413.8357 459.78548 1405.093 473.58789 1386.2715 C 481.02516 1376.1294 482.86141 1368.8389 478.80469 1364.1055 C 474.74796 1359.3733 467.64956 1360.5804 457.50781 1368.0176 C 435.04083 1384.484 432.55182 1373.8625 449.25195 1361.0176 C 458.04124 1354.2569 461.0833 1347.761 458.37891 1341.6758 C 455.67443 1335.5905 449.59052 1333.5634 440.125 1335.5918 C 421.42205 1339.5987 416.39872 1327.7724 441.21094 1323.3945 C 452.70493 1321.3661 458.37891 1316.707 458.37891 1309.2695 C 458.37891 1301.8323 455.33698 1295.7471 449.25195 1291.0137 C 443.16737 1286.2804 441.54954 1281.4038 444.25391 1276.6719 C 446.27455 1274.5998 452.14323 1272.9403 484.88281 1300.2227 C 521.3929 1298.8708 549.78885 1287.9084 570.07227 1267.625 C 590.35632 1247.3468 607.18665 1215.7146 620.70898 1172.4434 C 634.23125 1129.1721 643.35902 1058.1832 648.0918 959.4707 C 652.14369 874.96038 650.81331 796.66822 643.96289 724.54688 C 698.18479 689.08408 769.65249 638.5819 858.67383 573.29102 C 875.98242 573.38782 894.07479 572.37028 912.78711 570.03125 z M 886.49219 677.38867 C 895.95776 677.38867 899.60259 697.6715 897.57422 738.23828 C 895.54591 778.80506 888.03751 799.08789 875.19141 799.08789 C 862.34518 799.08789 858.69852 778.80506 864.10742 738.23828 C 869.51627 697.6715 877.02651 677.38867 886.49219 677.38867 z M 607.01758 748.01758 C 612.61776 808.26499 615.17827 877.89936 614.62305 957.29688 C 594.20695 999.40505 574.63087 1055.0578 556.01367 1124.2578 C 525.77819 1121.6557 493.6659 1120.0711 461.44141 1119.5566 L 448.37305 1070.9551 C 499.75768 933.02798 522.67256 836.27335 517.26367 780.83203 C 519.42759 772.29027 521.54638 764.04587 523.56641 755.83984 C 536.6262 761.46557 550.1308 767.07786 563.98828 772.79102 C 576.03888 766.49184 590.30745 758.31064 607.01758 748.01758 z " />
</svg>
