<?xml version="1.0" encoding="UTF-8" standalone="no"?>
<svg
   width="16.1"
   height="17.78"
   version="1.1"
   id="svg1"
   sodipodi:docname="135B2.svg"
   inkscape:version="1.4.2 (f4327f4, 2025-05-13)"
   xmlns:inkscape="http://www.inkscape.org/namespaces/inkscape"
   xmlns:sodipodi="http://sodipodi.sourceforge.net/DTD/sodipodi-0.dtd"
   xmlns="http://www.w3.org/2000/svg"
   xmlns:svg="http://www.w3.org/2000/svg">
  <defs
     id="defs1" />
  <sodipodi:namedview
     id="namedview1"
     pagecolor="#ffffff"
     bordercolor="#666666"
     borderopacity="1.0"
     inkscape:showpageshadow="2"
     inkscape:pageopacity="0.0"
     inkscape:pagecheckerboard="0"
     inkscape:deskcolor="#d1d1d1"
     showguides="true"
     inkscape:zoom="22.627417"
     inkscape:cx="6.0766989"
     inkscape:cy="8.0654367"
     inkscape:window-width="1680"
     inkscape:window-height="998"
     inkscape:window-x="-8"
     inkscape:window-y="-8"
     inkscape:window-maximized="1"
     inkscape:current-layer="svg1">
    <sodipodi:guide
       position="11.774835,0"
       orientation="0,-1"
       id="guide6"
       inkscape:locked="false" />
  </sodipodi:namedview>
  <path
     id="path3"
     style="fill:#000000;stroke:none"
     d="M 10.414062 0.001953125 C 10.240312 0.006953125 10.065625 0.02411458 9.890625 0.05078125 C 9.1439583 0.13744792 8.5966667 0.6498434 8.25 1.5898438 C 8.2033333 1.843177 8.0901562 2.0807814 7.9101562 2.3007812 C 7.7301563 2.5141153 7.6138802 2.7497656 7.5605469 3.0097656 C 7.5605469 3.1564323 7.6531768 3.2335677 7.8398438 3.2402344 C 7.9331768 3.2435744 7.9863021 3.2633959 7.9980469 3.2949219 C 8.0069569 3.3263239 7.9779693 3.3715629 7.9101562 3.4296875 C 7.8501563 3.4430205 7.8265067 3.4728643 7.8398438 3.5195312 C 7.8465137 3.5661982 7.8701563 3.596041 7.9101562 3.609375 C 7.8234892 3.702708 7.8234892 3.7674481 7.9101562 3.8007812 C 8.0034893 3.8407813 8.0364351 3.9066667 8.0097656 4 C 7.9897656 4.1 8.0072159 4.222474 8.0605469 4.3691406 C 8.1138799 4.522474 8.379375 4.5996094 8.859375 4.5996094 L 9.4804688 4.5097656 C 9.4538018 4.6097656 9.4692969 4.7291406 9.5292969 4.8691406 C 8.3292969 4.8824736 7.5823958 5.143724 7.2890625 5.6503906 C 6.2823958 6.4903906 5.3265885 7.3803125 4.4199219 8.3203125 C 4.2399219 7.9469792 3.8452926 7.4196593 3.1894531 6.7890625 C 2.7523564 6.3687893 2.4102609 5.8778306 2.0800781 5.3808594 C 1.9647336 3.9544685 1.6377073 3.2133049 1.0976562 3.15625 C 0.97302892 3.1430832 0.8828338 3.1981202 0.828125 3.3183594 L 0.8671875 3.3222656 L 0.86132812 3.3847656 C 1.1105813 3.4110986 1.3069498 3.8855914 1.4472656 4.8105469 L 1.4433594 4.8535156 L 1.359375 4.84375 C 1.0577624 4.5178383 0.85669747 4.3500845 0.75976562 4.3398438 L 0.56835938 4.3828125 C 0.56104438 4.4520495 0.704036 4.7596638 0.99609375 5.3085938 C 1.3730592 5.8194412 1.3745954 5.8421255 1.6601562 6.3496094 C 2.7785588 8.3371758 3.5991406 9.4103125 4.1191406 9.5703125 C 4.512474 9.6303125 5.136901 9.2795315 5.9902344 8.5195312 C 6.8266406 7.7883335 7.3021748 7.4489975 7.4121094 7.4980469 C 7.4131294 7.498609 7.4170188 7.5013131 7.4179688 7.5019531 L 7.4199219 7.5039062 L 7.4199219 7.5058594 L 7.421875 7.5058594 L 7.4238281 7.5058594 C 7.4245607 7.5067276 7.4270644 7.5107687 7.4277344 7.5117188 C 7.4395384 7.5321457 7.4365819 7.5680988 7.4199219 7.6191406 C 7.4199219 8.052474 7.5094529 8.423802 7.6894531 8.7304688 C 7.8513057 9.0062174 8.2315639 10.197478 8.8144531 12.232422 C 7.102934 13.064548 5.3059093 14.226737 4.3535156 15.089844 C 3.3285332 15.777491 3.074771 16.504039 3.59375 17.269531 C 3.905137 17.957178 5.3582305 17.887006 7.953125 17.056641 C 9.8992947 16.213301 10.958285 15.791016 11.126953 15.791016 C 11.412391 16.154301 11.412391 16.6402 11.126953 17.25 C 10.672847 17.418668 10.502371 17.593749 10.619141 17.775391 C 10.930529 17.788371 11.253135 17.771992 11.583984 17.726562 C 11.914833 17.681152 12.160086 17.260821 12.322266 16.462891 C 12.484447 15.664962 12.576241 15.10038 12.595703 14.769531 C 12.615153 14.438622 12.476147 14.26688 12.177734 14.253906 C 12.494497 13.326656 12.271264 12.328048 12.308594 11.349609 C 12.264114 9.8827208 12.738234 8.5471221 13.199219 7.1796875 L 13.238281 7.1796875 L 13.539062 7.6015625 C 13.967007 8.7784092 14.287981 9.559441 14.501953 9.9472656 L 14.220703 11.892578 C 14.140463 13.417131 14.054547 14.259442 13.960938 14.419922 L 14.236328 15.283203 L 14.783203 15.363281 C 15.197774 15.015576 15.404297 14.688443 15.404297 14.380859 L 15.064453 13.216797 L 15.064453 12.835938 C 15.452278 11.217769 15.64453 10.199728 15.644531 9.7851562 C 15.62031 8.8645354 13.93992 5.9691926 13.699219 5.6503906 C 13.445885 5.143724 12.796667 4.8669792 11.75 4.8203125 C 11.716749 4.775978 11.685715 4.731788 11.658203 4.6894531 C 12.255702 4.6496019 12.804191 4.6633362 13.302734 4.7363281 C 14.285871 4.8802696 15.076226 5.2502352 15.728516 5.9199219 C 17.033094 7.2592953 17.782611 9.8777823 17.980469 14.351562 L 18.480469 14.330078 C 18.280579 9.810349 17.54959 7.0709969 16.087891 5.5703125 C 15.357041 4.8199703 14.443266 4.3985928 13.375 4.2421875 C 12.786253 4.1559888 12.150358 4.1474905 11.462891 4.203125 C 11.462442 4.1984865 11.461278 4.1940514 11.460938 4.1894531 C 11.89427 4.0894531 12.257448 3.863099 12.550781 3.5097656 C 12.850781 3.1564323 12.996901 2.5823958 12.990234 1.7890625 C 12.983568 1.0023958 12.640937 0.49 11.960938 0.25 C 11.450938 0.07 10.935314 -0.013046885 10.414062 0.001953125 z M 10.328125 0.4609375 C 10.649479 0.4541665 11.027601 0.49960939 11.460938 0.59960938 C 12.147607 0.75294269 12.493333 1.1870573 12.5 1.9003906 C 12.5067 2.6070573 12.307057 3.1225521 11.900391 3.4492188 C 11.500391 3.7825521 11.167057 3.8062011 10.900391 3.5195312 C 10.780391 3.3995312 10.756724 3.3038021 10.830078 3.2304688 C 11.023411 3.1704687 11.112943 3.0192969 11.099609 2.7792969 C 11.306276 2.5259639 11.410156 2.3108594 11.410156 2.1308594 C 11.423487 1.8041951 11.26612 1.6468232 10.939453 1.6601562 C 10.80612 1.6734896 10.692943 1.7157292 10.599609 1.7890625 C 9.9462788 1.3557292 9.3803906 1.1642708 8.9003906 1.2109375 C 9.093724 0.8709375 9.3972135 0.64263021 9.8105469 0.52929688 C 9.9630469 0.48679688 10.135312 0.465 10.328125 0.4609375 z M 9.0976562 1.546875 C 9.5054858 1.559375 9.940388 1.7398435 10.400391 2.0898438 L 10.330078 2.2890625 C 10.410078 2.3357295 10.487214 2.3500781 10.560547 2.3300781 C 10.667214 2.0500781 10.786589 1.9101565 10.919922 1.9101562 C 11.079922 1.8901562 11.153958 1.9703902 11.140625 2.1503906 C 11.140625 2.3170573 11.049145 2.5042708 10.869141 2.7109375 C 10.869141 2.9242708 10.809451 3.0138018 10.689453 2.9804688 C 10.569453 2.9538017 10.519067 2.8859638 10.539062 2.7792969 C 10.459062 3.0792969 10.529962 3.4599219 10.75 3.9199219 C 10.805286 4.0408605 10.857657 4.1535713 10.90625 4.2597656 C 10.577319 4.3005021 10.237786 4.355004 9.8867188 4.4199219 C 9.8605298 4.3044315 9.8509421 4.2274011 9.859375 4.1894531 C 9.7127083 4.1494531 9.506901 4.1607031 9.2402344 4.2207031 C 8.786901 4.2607031 8.5194531 4.2401563 8.4394531 4.1601562 C 8.3594531 4.0801562 8.3327076 3.9700781 8.359375 3.8300781 L 8.6796875 3.7207031 C 8.7530205 3.6807031 8.7673691 3.6128647 8.7207031 3.5195312 L 8.2695312 3.4804688 C 8.3761979 3.2538021 8.3638021 3.1026302 8.2304688 3.0292969 C 8.050468 3.0426302 7.9609375 2.9972917 7.9609375 2.890625 C 8.0076042 2.8039583 8.1002344 2.6434896 8.2402344 2.4101562 C 8.3802344 2.1768232 8.55 2.0276042 8.75 1.9609375 C 8.9566667 1.8942705 9.159375 1.9035674 9.359375 1.9902344 C 9.559375 2.0702344 9.7496875 2.1330208 9.9296875 2.1796875 L 9.9804688 2.0605469 C 9.813802 2.0205469 9.6409375 1.9527083 9.4609375 1.859375 C 9.1142708 1.679375 8.8138802 1.679375 8.5605469 1.859375 C 8.5938799 1.739375 8.6392189 1.6498437 8.6992188 1.5898438 C 8.8292186 1.5565107 8.9617132 1.5427088 9.0976562 1.546875 z M 9.0800781 2.0605469 C 8.9134115 2.0605469 8.8033333 2.087292 8.75 2.140625 C 8.703333 2.193958 8.6405469 2.2207031 8.5605469 2.2207031 L 8.5605469 2.3105469 L 8.6992188 2.3300781 C 8.8792187 2.5100781 9.1641148 2.533725 9.5507812 2.4003906 L 9.8007812 2.4707031 L 9.8203125 2.2890625 L 9.5996094 2.2695312 C 9.3862766 2.149533 9.2134115 2.0805469 9.0800781 2.0605469 z M 11.125 4.7382812 C 11.168059 4.8321845 11.206215 4.9161928 11.240234 4.9902344 C 11.353568 5.236901 11.53263 5.367526 11.779297 5.3808594 C 12.025964 5.3941924 12.310859 5.4302344 12.630859 5.4902344 C 12.950859 5.5502344 13.039361 5.7681113 12.890625 6.140625 C 12.180469 7.9192264 11.851988 9.4193089 11.753906 11.207031 C 11.747306 11.207752 11.745111 11.208184 11.738281 11.208984 C 11.104232 11.287434 10.287841 11.563305 9.4179688 11.949219 C 8.746132 9.8442622 8.3289554 8.6550624 8.1796875 8.4394531 C 7.9996875 8.1794531 7.9492969 7.4376042 8.0292969 6.2109375 C 7.9959639 5.7909375 8.3405469 5.5800781 9.0605469 5.5800781 C 9.8072135 5.5800781 10.149844 5.4103125 10.089844 5.0703125 L 10.03125 4.9003906 C 10.411014 4.8313556 10.776172 4.7772154 11.125 4.7382812 z M 11.744141 11.634766 C 11.660881 12.733807 12.059306 13.421786 11.632812 14.3125 C 10.7246 14.844453 9.6347792 15.17494 8.3632812 15.304688 C 7.0917828 15.434432 6.0131234 15.900661 5.1308594 16.705078 C 5.6368644 15.472504 6.0788181 14.675786 6.4550781 14.3125 C 6.8313371 13.949216 7.5644419 13.474477 8.6542969 12.890625 C 9.7441519 12.306774 11.165479 11.738842 11.744141 11.634766 z " />
</svg>
