<?xml version="1.0" encoding="UTF-8" standalone="no"?>
<svg
   width="11.550015"
   height="17.983217"
   version="1.1"
   id="svg1"
   sodipodi:docname="135CB.svg"
   inkscape:version="1.4.2 (f4327f4, 2025-05-13)"
   xmlns:inkscape="http://www.inkscape.org/namespaces/inkscape"
   xmlns:sodipodi="http://sodipodi.sourceforge.net/DTD/sodipodi-0.dtd"
   xmlns="http://www.w3.org/2000/svg"
   xmlns:svg="http://www.w3.org/2000/svg">
  <defs
     id="defs1" />
  <sodipodi:namedview
     id="namedview1"
     pagecolor="#ffffff"
     bordercolor="#666666"
     borderopacity="1.0"
     inkscape:showpageshadow="2"
     inkscape:pageopacity="0.0"
     inkscape:pagecheckerboard="0"
     inkscape:deskcolor="#d1d1d1"
     inkscape:zoom="14.84344"
     inkscape:cx="-1.9200401"
     inkscape:cy="15.596115"
     inkscape:window-width="1680"
     inkscape:window-height="998"
     inkscape:window-x="-8"
     inkscape:window-y="-8"
     inkscape:window-maximized="1"
     inkscape:current-layer="svg1"
     showguides="true">
    <sodipodi:guide
       position="11.052945,17.983217"
       orientation="0,-1"
       id="guide1"
       inkscape:locked="false" />
    <sodipodi:guide
       position="10.273648,0.000689"
       orientation="0,-1"
       id="guide2"
       inkscape:locked="false" />
  </sodipodi:namedview>
  <path
     id="path1"
     style="fill:#000000;stroke:none;stroke-width:1.05153"
     d="M 5.9355469 0 C 5.7085245 0 5.4780423 0.02652914 5.2441406 0.078125 C 4.7763373 0.18131673 4.473527 0.60272092 4.3359375 1.3457031 C 4.225866 1.4970515 4.1082048 1.7111499 3.984375 1.9863281 C 3.9155803 2.1514354 3.9184668 2.2449862 3.9941406 2.265625 C 4.0698144 2.2862631 4.1363703 2.3161457 4.1914062 2.3574219 C 4.1226122 2.3986987 4.0985016 2.4363061 4.1191406 2.4707031 C 4.1397794 2.5051011 4.1773859 2.5234375 4.2324219 2.5234375 L 4.1914062 2.5644531 C 4.173348 2.5825117 4.1636862 2.599173 4.1640625 2.6132812 C 4.1641834 2.6142688 4.1638475 2.6181732 4.1640625 2.6191406 C 4.1643715 2.6200879 4.1656125 2.6240729 4.1660156 2.625 L 4.1679688 2.6269531 C 4.1750631 2.6375947 4.1902994 2.6485107 4.2109375 2.65625 C 4.2659733 2.6768887 4.30358 2.754056 4.3242188 2.8847656 C 4.3448568 3.0154752 4.4065732 3.0829639 4.5097656 3.0898438 C 4.6129573 3.0967228 4.7759513 3.0803393 4.9960938 3.0390625 C 5.0924064 3.2454466 5.044187 3.3823772 4.8515625 3.4511719 C 4.5213479 3.4649308 4.2638704 3.6230852 4.078125 3.9257812 C 3.8923795 4.228478 3.7911027 4.6730585 3.7773438 5.2578125 C 3.7635848 5.8425673 3.8706339 6.3440245 4.0976562 6.7636719 C 4.3246784 7.1833186 4.4317278 7.6201735 4.4179688 8.0742188 L 2.7460938 13.751953 C 2.4846737 14.660043 2.299524 15.383325 2.1894531 15.919922 C 2.1206584 16.387728 1.9412816 16.682812 1.6523438 16.806641 C 1.3634068 16.930471 0.90244194 17.136843 0.26953125 17.425781 C -0.06068339 17.522093 -0.24583257 17.615648 -0.28710938 17.705078 C -0.32838549 17.794513 -0.25028557 17.869731 -0.05078125 17.931641 C 0.14872307 17.993553 0.43514985 17.977169 0.80664062 17.880859 C 1.1781321 17.784541 1.583152 17.798047 2.0234375 17.921875 C 2.463723 18.045706 2.6778215 17.938657 2.6640625 17.601562 C 2.6503035 17.264468 2.8865579 16.672346 3.375 15.826172 C 3.8634415 14.979998 4.1074219 14.288552 4.1074219 13.751953 L 6.171875 13.751953 C 6.3232233 14.728838 6.4273858 15.48684 6.4824219 16.023438 C 6.5099397 16.532517 6.4028907 16.875818 6.1621094 17.054688 C 5.9213283 17.233552 5.5461903 17.35121 5.0371094 17.40625 C 4.7481723 17.585115 4.5957903 17.724927 4.5820312 17.828125 C 4.5682723 17.931311 4.6647096 17.982422 4.8710938 17.982422 C 5.0912362 17.982422 5.3882748 17.973765 5.7597656 17.953125 C 6.131257 17.932482 6.5305047 17.924841 6.9570312 17.931641 C 7.3835577 17.93852 7.5311002 17.745647 7.4003906 17.353516 C 7.2696812 16.961387 7.2831788 16.360606 7.4414062 15.548828 C 7.5996334 14.737052 7.6449659 14.193147 7.5761719 13.917969 L 7.203125 10.242188 C 7.4232681 9.3203398 7.2651136 8.4389043 6.7285156 7.5996094 C 7.1963189 5.8797436 7.5126279 4.9549284 7.6777344 4.8242188 C 7.8428418 4.6935092 8.0810491 4.7658374 8.390625 5.0410156 C 8.7002009 5.3161944 9.0193948 5.5630607 9.3496094 5.7832031 C 9.1982608 6.1959714 9.1230469 6.9327503 9.1230469 7.9921875 C 8.9854575 8.4462319 8.8755216 8.8184848 8.7929688 9.1074219 C 8.7104143 9.3963597 8.7856294 9.7956106 9.0195312 10.304688 C 9.1158431 10.345968 9.2171201 10.317013 9.3203125 10.220703 C 9.4235045 10.124387 9.4476141 10.062676 9.3925781 10.035156 C 9.2962667 9.8975668 9.2297105 9.7394132 9.1953125 9.5605469 C 9.1609155 9.3816821 9.1985222 9.134815 9.3085938 8.8183594 C 9.4186646 9.0797786 9.4476139 9.3054217 9.3925781 9.4980469 C 9.337543 9.6906721 9.3645386 9.7948347 9.4746094 9.8085938 C 9.6809936 9.3270315 9.7157145 8.742634 9.578125 8.0546875 C 9.7157152 7.5456065 9.7832031 7.1598567 9.7832031 6.8984375 L 10.298828 8.1582031 C 10.436417 8.6260065 10.543466 9.004031 10.619141 9.2929688 C 10.694814 9.5819052 10.973519 9.8769906 11.455078 10.179688 C 11.565149 10.15217 11.640361 10.074069 11.681641 9.9433594 C 11.722918 9.8126495 11.703654 9.7403215 11.621094 9.7265625 C 11.469746 9.6852857 11.327976 9.59462 11.197266 9.4570312 C 11.066557 9.3194418 10.980723 9.0783487 10.939453 8.734375 C 11.159596 8.8857241 11.304257 9.0622145 11.373047 9.2617188 C 11.441842 9.4612225 11.517049 9.5335506 11.599609 9.4785156 C 11.544573 8.9419175 11.255262 8.4327342 10.732422 7.9511719 C 10.634788 7.4434756 10.541596 6.9337811 10.417969 6.4316406 L 12.302734 6.4316406 L 12.302734 17.982422 L 13.199219 17.982422 L 13.199219 4.1503906 L 15.751953 0 L 14.972656 0 L 12.751953 3.4492188 L 10.529297 0 L 9.75 0 L 12.302734 4.1503906 L 12.302734 5.7871094 L 10.240234 5.7871094 C 10.213586 5.7028251 10.185698 5.620627 10.15625 5.5371094 C 9.6746874 5.0417882 9.1442811 4.5702116 8.5664062 4.1230469 C 7.9885314 3.6758817 7.3906362 3.4511719 6.7714844 3.4511719 C 6.4412705 3.4511719 6.2753906 3.2043056 6.2753906 2.7089844 C 6.6468814 2.5438771 6.9255821 2.3268928 7.1113281 2.0585938 C 7.2970738 1.7902947 7.3694019 1.4363793 7.328125 0.99609375 C 7.2868482 0.48701284 7.0457543 0.18131673 6.6054688 0.078125 C 6.3853257 0.02652914 6.1625693 0 5.9355469 0 z M 5.6972656 0.33007812 C 5.872692 0.32319865 6.0684531 0.33622971 6.2851562 0.3671875 C 6.7185618 0.4291024 6.9490446 0.65958438 6.9765625 1.0585938 C 7.0178393 1.4438435 6.9079036 1.7794223 6.6464844 2.0683594 C 6.3850644 2.3572972 6.2134131 2.4402367 6.1308594 2.3164062 C 6.0345475 2.2200937 6.0904916 2.0484415 6.296875 1.8007812 C 6.5032592 1.5531203 6.536027 1.3255247 6.3984375 1.1191406 C 6.2608481 0.91275715 6.0139819 0.9204826 5.65625 1.140625 C 5.5186606 1.0167952 5.2023525 0.93385496 4.7070312 0.89257812 C 4.7895841 0.6586761 4.9641221 0.4976359 5.2324219 0.40820312 C 5.3665714 0.36348639 5.5218393 0.3369576 5.6972656 0.33007812 z M 4.6035156 1.1191406 C 5.0025243 1.1053816 5.33233 1.167098 5.59375 1.3046875 C 5.59375 1.3717623 5.6037454 1.4137048 5.6230469 1.4296875 L 5.625 1.4316406 C 5.6257995 1.4321042 5.6300314 1.4332058 5.6308594 1.4335938 L 5.6328125 1.4355469 C 5.6336976 1.4357837 5.6377582 1.4373388 5.6386719 1.4375 C 5.667881 1.4401555 5.7128833 1.4059144 5.7695312 1.3359375 C 5.8864818 1.1914682 6.0099146 1.1403638 6.140625 1.1816406 C 6.2713346 1.2229174 6.3002839 1.3405779 6.2246094 1.5332031 C 6.1489356 1.7258282 6.0447721 1.889755 5.9140625 2.0273438 C 5.7833529 2.1649332 5.7621298 2.2883659 5.8515625 2.3984375 C 5.9326117 2.4981898 5.9661743 2.5657044 5.9511719 2.5976562 C 5.9505403 2.5986774 5.9480114 2.6025751 5.9472656 2.6035156 L 5.9453125 2.6054688 C 5.9040364 3.4310039 6.1267929 3.84375 6.6152344 3.84375 C 7.1036765 3.84375 7.2348348 4.2053902 7.0078125 4.9277344 C 6.7807897 5.6500778 6.5445353 6.499679 6.296875 7.4765625 L 4.9335938 7.6835938 C 4.9335938 7.4221738 4.823658 7.0740307 4.6035156 6.640625 C 4.3833725 6.2072186 4.2628256 5.776136 4.2421875 5.3496094 C 4.2215488 4.9230822 4.2909906 4.5585555 4.4492188 4.2558594 C 4.6074462 3.9531633 4.8514267 3.7892374 5.1816406 3.7617188 L 5.3886719 3.328125 C 5.3198773 2.9428749 5.1376138 2.7904929 4.8417969 2.8730469 C 4.5459797 2.9555998 4.4177074 2.8803858 4.4589844 2.6464844 C 4.6378501 2.5226539 4.6995673 2.4397145 4.6445312 2.3984375 C 4.5894955 2.3571605 4.4795604 2.3378906 4.3144531 2.3378906 C 4.3006941 2.2690959 4.2254801 2.2073797 4.0878906 2.1523438 C 4.1979622 1.8221299 4.3136695 1.5868083 4.4375 1.4492188 C 4.5750895 1.380424 4.7197454 1.3746558 4.8710938 1.4296875 C 5.0224414 1.4847235 5.167098 1.5117188 5.3046875 1.5117188 L 5.3046875 1.4296875 C 5.2083748 1.4434468 5.0849421 1.4116105 4.9335938 1.3359375 C 4.7822461 1.2602665 4.6318171 1.2573779 4.4804688 1.3261719 C 4.5355049 1.2436183 4.5759981 1.1741767 4.6035156 1.1191406 z M 6.0449219 1.234375 C 6.0191239 1.2346976 5.9886155 1.241007 5.9550781 1.2539062 C 5.8656453 1.2883032 5.7875443 1.366404 5.71875 1.4902344 C 5.6499553 1.6140649 5.6345045 1.7047298 5.6757812 1.7597656 C 5.5932276 1.8010425 5.5498487 1.8521476 5.5429688 1.9140625 C 5.5360897 1.9759775 5.5659709 2.0164707 5.6347656 2.0371094 C 5.7035603 2.0577475 5.7999983 2.00087 5.9238281 1.8632812 C 6.0476586 1.7256917 6.1248295 1.6080315 6.1523438 1.5117188 C 6.1798647 1.415406 6.175022 1.3401923 6.140625 1.2851562 C 6.1191264 1.2507588 6.0879185 1.2338373 6.0449219 1.234375 z M 6.0078125 1.3613281 C 6.0223911 1.3607638 6.0346449 1.3644158 6.0429688 1.3710938 C 6.0535835 1.3821116 6.0607438 1.4038894 6.0585938 1.4296875 C 6.0517137 1.5122412 6.0198797 1.5903426 5.9648438 1.6660156 C 5.9098092 1.74169 5.8587039 1.7976342 5.8105469 1.8320312 C 5.8015176 1.8384808 5.7947058 1.8433651 5.7890625 1.8457031 C 5.788216 1.8459786 5.7839556 1.8455419 5.7832031 1.8457031 L 5.78125 1.8476562 L 5.7792969 1.8476562 L 5.7792969 1.8457031 L 5.7773438 1.8457031 L 5.7753906 1.84375 L 5.7753906 1.8417969 L 5.7753906 1.8398438 C 5.7768014 1.8268441 5.7879737 1.7984628 5.8105469 1.7597656 C 5.8331205 1.7210698 5.8462454 1.6946408 5.8476562 1.6816406 L 5.8476562 1.6796875 L 5.8476562 1.6777344 L 5.8476562 1.6757812 L 5.8457031 1.6757812 L 5.8457031 1.6738281 L 5.84375 1.671875 L 5.8417969 1.671875 L 5.8398438 1.671875 L 5.8378906 1.671875 C 5.8319651 1.6738029 5.8210812 1.6799757 5.8105469 1.6875 C 5.7985076 1.6960995 5.7889894 1.701405 5.78125 1.703125 C 5.7803498 1.7032325 5.7762237 1.703125 5.7753906 1.703125 L 5.7734375 1.703125 L 5.7714844 1.703125 L 5.7695312 1.703125 L 5.7695312 1.7011719 L 5.7675781 1.7011719 L 5.7675781 1.6992188 L 5.765625 1.6992188 L 5.7636719 1.6972656 L 5.7636719 1.6953125 C 5.7633763 1.6944526 5.7619472 1.6904206 5.7617188 1.6894531 C 5.759784 1.6765541 5.761792 1.6533781 5.7695312 1.625 C 5.7901701 1.5493262 5.8277765 1.4769971 5.8828125 1.4082031 C 5.936988 1.3781054 5.9786554 1.3624569 6.0078125 1.3613281 z M 4.6953125 1.4550781 C 4.6301726 1.456368 4.5730804 1.4756014 4.5214844 1.5117188 L 4.3964844 1.65625 L 4.3964844 1.7382812 L 4.4589844 1.7382812 C 4.6516096 1.793317 4.8579826 1.774047 5.078125 1.6777344 L 5.3046875 1.6972656 L 5.2851562 1.59375 L 5.078125 1.59375 C 4.9319366 1.4991575 4.803879 1.4529284 4.6953125 1.4550781 z M 4.6445312 1.5332031 C 4.6170133 1.5744799 4.6247386 1.6226984 4.6660156 1.6777344 C 4.5972207 1.6639754 4.5490024 1.6485246 4.5214844 1.6347656 L 4.5214844 1.6328125 C 4.5263219 1.6062083 4.5671369 1.5719003 4.6445312 1.5332031 z M 4.8105469 1.5332031 L 4.9960938 1.6347656 C 4.9135407 1.6485246 4.8440985 1.6639754 4.7890625 1.6777344 C 4.8440979 1.6502164 4.8518239 1.6019981 4.8105469 1.5332031 z M 5.6757812 1.8632812 C 5.7050186 1.8778997 5.7225652 1.8935959 5.7265625 1.9101562 C 5.7267103 1.9111371 5.726502 1.915028 5.7265625 1.9160156 C 5.7265356 1.9170099 5.7266767 1.920874 5.7265625 1.921875 C 5.724547 1.9319523 5.7177803 1.9443291 5.7070312 1.9550781 C 5.6919826 1.9701268 5.6790672 1.9785877 5.6679688 1.9804688 L 5.6660156 1.9804688 L 5.6640625 1.9804688 L 5.6621094 1.9804688 L 5.6601562 1.9804688 L 5.6582031 1.9804688 L 5.65625 1.9804688 L 5.6542969 1.9785156 L 5.6523438 1.9785156 L 5.6503906 1.9765625 C 5.645661 1.9722629 5.6382054 1.9636774 5.6347656 1.9550781 C 5.6210066 1.9206821 5.6345042 1.8907992 5.6757812 1.8632812 z M 4.4765625 2.0976562 C 4.4741977 2.0977639 4.4713297 2.0987494 4.46875 2.0996094 C 4.4648804 2.1008992 4.4618866 2.1036951 4.4589844 2.1054688 C 4.4581245 2.1061137 4.4538774 2.1086763 4.453125 2.109375 L 4.4511719 2.1113281 L 4.4511719 2.1132812 L 4.4492188 2.1152344 C 4.4488963 2.1161481 4.4474806 2.1201263 4.4472656 2.1210938 C 4.4467283 2.1261997 4.4470687 2.1341756 4.4492188 2.140625 C 4.4513688 2.1470747 4.4517093 2.1543786 4.4511719 2.1601562 C 4.4507419 2.1624136 4.4500787 2.1677721 4.4492188 2.1699219 C 4.4481438 2.1720179 4.4448643 2.1776989 4.4433594 2.1796875 C 4.4399197 2.1835572 4.4328939 2.1899196 4.4277344 2.1933594 C 4.4070954 2.2071184 4.3801001 2.1965064 4.3457031 2.1621094 L 4.2949219 2.109375 C 4.2665446 2.109375 4.2445416 2.1126372 4.2324219 2.1191406 C 4.230487 2.1204306 4.2260068 2.1254482 4.2246094 2.1269531 L 4.2226562 2.1289062 L 4.2226562 2.1308594 C 4.2223069 2.131773 4.2190187 2.1357513 4.21875 2.1367188 C 4.2163043 2.1499939 4.2212418 2.1710009 4.2324219 2.1933594 C 4.2736976 2.1796005 4.3113052 2.1902114 4.3457031 2.2246094 C 4.3800998 2.2590054 4.4177074 2.2647786 4.4589844 2.2441406 C 4.5002654 2.2235026 4.5166456 2.1936208 4.5097656 2.1523438 C 4.5054656 2.1265437 4.4999089 2.1085485 4.4902344 2.1015625 L 4.4882812 2.1015625 L 4.4863281 2.0996094 L 4.484375 2.0996094 L 4.4824219 2.0996094 L 4.4804688 2.0976562 L 4.4785156 2.0976562 L 4.4765625 2.0976562 z M 4.2929688 2.3867188 C 4.302428 2.3862888 4.3121795 2.3869519 4.3242188 2.3886719 C 4.3723748 2.3955519 4.4283194 2.4032762 4.4902344 2.4101562 L 4.5820312 2.4199219 L 4.2734375 2.4609375 C 4.2648384 2.4609375 4.2571933 2.4597186 4.2519531 2.4570312 L 4.25 2.4550781 C 4.2484414 2.4535732 4.2451618 2.4492005 4.2441406 2.4472656 C 4.2418833 2.4408161 4.2396075 2.4302411 4.2421875 2.4199219 C 4.2473475 2.3992834 4.2645909 2.3880087 4.2929688 2.3867188 z M 4.5625 2.4609375 C 4.5487406 2.4884549 4.5169062 2.5125655 4.46875 2.5332031 C 4.4205942 2.5538421 4.3829867 2.5702254 4.3554688 2.5839844 C 4.3279518 2.5839844 4.3086809 2.5782121 4.2949219 2.5644531 C 4.2940619 2.5635932 4.2916606 2.5633599 4.2910156 2.5625 L 4.2910156 2.5605469 L 4.2910156 2.5585938 L 4.2890625 2.5585938 L 4.2890625 2.5566406 L 4.2890625 2.5546875 L 4.2890625 2.5527344 L 4.2890625 2.5507812 L 4.2910156 2.5488281 L 4.2910156 2.546875 C 4.2916606 2.5460151 4.2940619 2.5438287 4.2949219 2.5429688 C 4.3024463 2.5369492 4.3178788 2.5294571 4.3359375 2.5234375 L 4.5625 2.4609375 z M 6.3164062 7.9296875 C 6.7704506 8.6313928 6.8591632 9.4086652 6.5839844 10.261719 L 6.9765625 13.236328 L 3.4472656 13.236328 L 4.9140625 8.2597656 L 6.3164062 7.9296875 z " />
</svg>
