<?xml version="1.0" encoding="UTF-8" standalone="no"?>
<svg
   width="1000"
   height="1000"
   version="1.1"
   id="svg1"
   sodipodi:docname="135C3.svg"
   inkscape:version="1.4.2 (f4327f4, 2025-05-13)"
   xmlns:inkscape="http://www.inkscape.org/namespaces/inkscape"
   xmlns:sodipodi="http://sodipodi.sourceforge.net/DTD/sodipodi-0.dtd"
   xmlns="http://www.w3.org/2000/svg"
   xmlns:svg="http://www.w3.org/2000/svg">
  <defs
     id="defs1" />
  <sodipodi:namedview
     id="namedview1"
     pagecolor="#ffffff"
     bordercolor="#666666"
     borderopacity="1.0"
     inkscape:showpageshadow="2"
     inkscape:pageopacity="0.0"
     inkscape:pagecheckerboard="0"
     inkscape:deskcolor="#d1d1d1"
     inkscape:zoom="0.53386562"
     inkscape:cx="278.15989"
     inkscape:cy="673.39043"
     inkscape:window-width="1680"
     inkscape:window-height="998"
     inkscape:window-x="-8"
     inkscape:window-y="-8"
     inkscape:window-maximized="1"
     inkscape:current-layer="svg1" />
  <path
     id="path1"
     style="fill:#000000;stroke:none;stroke-width:0.999998"
     d="m 762.41016,0 147.90039,238.67969 v 263.32812 h -78.61914 c -1.96311,-6.60479 -4.12887,-13.35524 -6.51563,-20.19726 -57.52251,-85.91023 -91.33677,-139.8684 -101.42187,-161.90625 -10.0851,-22.03781 -33.26638,-37.51202 -69.49805,-46.47657 -36.23173,-8.96455 -64.4216,-33.26988 -84.5918,-72.86328 25.39951,-11.95274 42.6155,-27.08802 51.58008,-45.39062 16.65483,-34.00364 6.83122,-144.845582 -62.76367,-153.5449238 -32.86996,-4.1087499 -66.85564,0.8398121 -101.9668,14.6601558 -35.11111,13.820345 -54.12903,47.973513 -57.11719,102.507818 -6.7234,14.19387 -13.13493,32.08765 -19.11132,53.75195 -2.98816,14.9409 -1.41578,22.64794 4.56054,23.02148 5.97639,0.37361 10.81557,1.66706 14.55078,3.90821 -4.96238,7.44355 -4.39087,13.82241 6.29688,12.1621 0.79026,1.49404 -9.80918,9.16958 0.97656,12.48829 4.8558,1.49408 8.74034,7.79626 11.72852,19.00195 2.24114,11.20569 9.77883,14.92079 22.47851,11.18555 26.14658,-7.47045 39.87697,-6.68531 41.3711,2.27929 -0.7767,2.72735 -1.75241,5.38853 -2.93164,7.92774 -366.21399,19.64683 -454.234211,309.7701 -461.828129,609.1875 l 33.335938,0.75976 C 60.925629,476.18734 214.57786,323.79307 450.32422,300.14062 c -3.4624,3.40009 -6.91308,6.78868 -10.09766,10.20704 -29.50817,26.89361 -43.07119,61.49504 -40.83008,103.70312 2.24109,42.20804 10.7954,83.62194 25.73633,124.33594 13.55407,36.93478 18.27477,83.30041 14.00781,138.99414 L 301.88281,569.98633 c -27.42823,-24.83366 -51.56382,-37.2461 -72.32031,-37.2461 -58.19233,0.74112 -83.87875,24.76748 -77.20703,72.21094 L 182,861.22266 c -30.37807,26.49473 -43.81348,52.04765 -40.39453,76.66406 l 7.05859,12.3789 -6.84179,-0.21679 c -20.0152,4.07698 -38.37536,9.74323 -55.054692,17.15625 -16.308676,7.04257 -32.728873,9.84607 -49.408203,8.36328 C 20.680017,974.45641 8.9568939,982.57939 2.2851562,1000 H 275.2793 l -0.32618,-10.75 c 31.23978,-7.16183 69.35693,-17.8776 114.34376,-32.25195 106.08035,-46.31683 163.92311,-69.4961 173.63476,-69.4961 15.68791,19.42319 15.68791,45.97868 0,79.59571 -25.39961,8.96458 -34.29082,18.64295 -26.82031,29.10156 16.43498,0.74723 33.54159,-0.21028 51.4707,-2.82227 17.92912,-2.61476 31.43017,-25.79609 40.39453,-69.49804 8.96469,-43.70224 13.97318,-74.48105 15.09375,-92.41016 1.12085,-17.92906 -6.47713,-27.26856 -22.91211,-28.01563 14.94079,-25.39955 15.61892,-66.13373 2.17188,-122.1621 -5.22953,-70.22226 16.487,-168.12333 65.04492,-293.62696 26.89358,44.82275 52.66392,82.96982 77.31641,114.34571 -1.06692,3.55732 -2.06305,7.21182 -3.04102,10.96679 l -12.70508,45.06446 h 3.69336 c -5.18004,35.58841 -7.53,77.44856 -7.05859,125.52929 -9.71159,33.61702 -17.64812,60.6809 -23.99805,81.22461 -6.34983,20.54377 0.12112,49.07251 19.54492,85.67774 8.21746,2.98838 16.43288,1.01474 24.65039,-6.08204 8.21752,-7.09694 10.12873,-11.76672 5.64649,-14.00781 -9.7116,-9.71165 -15.84629,-20.96236 -18.46094,-33.66211 -2.61476,-12.69976 0.48368,-30.25449 9.44727,-52.66601 8.96452,17.18227 11.38406,33.10448 7.27539,47.67187 -4.10868,14.56739 -1.68914,21.82617 7.27539,21.82617 17.18199,-35.1111 19.43407,-77.31024 6.73437,-126.61523 9.17964,-34.60016 12.69817,-61.54213 10.53125,-80.79102 l 13.03125,97.6211 c 4.4823,35.11116 7.24076,63.63989 8.36133,85.67773 1.1203,22.03784 18.50614,47.6387 52.12305,76.77344 10.45872,0.74723 18.16574,-3.4165 23.02148,-12.38086 4.85591,-8.96458 4.68794,-14.14264 -0.54492,-15.63672 -11.95274,-5.97632 -21.9099,-15.14635 -29.75391,-27.47265 -7.84401,-12.32625 -11.72656,-30.8358 -11.72656,-55.48829 16.43504,14.9409 25.60508,30.07623 27.47266,45.39063 1.86753,15.31441 7.21511,21.89544 16.17968,19.6543 2.24115,-38.84633 -13.74143,-79.92132 -48.10546,-123.25 2.24114,-57.52245 2.40912,-99.7216 0.54492,-126.61524 -0.28354,-4.04974 -0.70076,-8.21085 -1.19336,-12.3789 h 66.67383 v 439.24414 h 50.49414 V 238.67969 L 1108.7031,0 h -44.8476 L 936.1543,198.39258 807.25781,0 Z M 545.55859,25.736328 c 54.29942,1.487665 77.02072,88.532542 40.9375,131.175782 -16.43503,19.42319 -28.70235,25.38647 -36.91992,17.91601 -8.96447,-7.47042 -6.99318,-22.09542 6.08008,-43.75976 C 580.59241,89.745465 554.02652,42.695731 499.08203,86.328125 486.38228,78.857676 463.64929,76.607512 430.7793,79.595703 449.39443,31.507264 499.953,25.168938 545.55859,25.736328 Z m 2.2793,85.785152 c -3.36144,15.31458 -9.325,29.15422 -17.91601,41.48047 -8.59104,12.32638 -3.13609,35.39809 16.2871,69.38867 19.42314,33.99055 45.36288,57.1718 77.85938,69.49805 32.49645,12.32624 35.08545,62.23245 7.81836,149.63672 -27.26715,87.40429 -37.9021,149.40648 -31.92578,186.01172 -31.37588,9.71159 -75.48633,27.60532 -132.26172,53.75195 5.97632,-62.75181 1.75267,-117.04889 -12.81445,-162.99218 -14.56739,-45.94329 -21.9336,-84.59676 -21.9336,-115.97266 0,-31.37589 12.88515,-58.88798 38.65821,-82.41992 25.77312,-23.5319 37.02382,-45.75654 33.6621,-66.67383 -3.36172,-20.91725 -17.5404,-27.05198 -42.5664,-18.46094 -25.026,8.591 -37.91117,3.13608 -38.6582,-16.28711 12.69977,-11.20566 16.41289,-18.12554 11.18359,-20.74023 -5.22943,-2.61466 -13.44276,-2.78412 -24.64844,-0.54297 -1.49409,-6.7234 -8.24652,-10.77739 -20.19922,-12.27149 4.48229,-26.89364 10.89582,-46.3598 19.11328,-58.3125 8.96455,-8.21752 19.59752,-10.97597 31.92383,-8.36132 12.32624,2.61465 24.42617,3.46191 36.37891,2.71484 l -2.28125,-6.625 c -7.47039,1.49411 -17.31828,0.37 -29.64453,-3.36523 -12.3263,-3.73525 -23.74647,-1.93337 -34.20508,5.5371 2.24115,-7.47047 4.49128,-13.77264 6.73242,-19.001948 29.88179,-4.482253 56.09837,-2.232087 78.50977,6.732418 1.60518,12.03572 6.61017,8.98352 13.35742,-2.82421 15.21729,-26.630145 44.57733,-21.821043 37.57031,10.0996 z M 532.59375,89.322266 c -8.82165,-0.122999 -19.2147,10.23432 -24.49609,25.021484 -3.73506,10.45861 -3.73506,17.54991 0,21.28516 -5.22953,3.73522 -7.81847,8.12617 -7.81836,13.35547 0,4.48223 2.75819,7.18068 8.36132,7.92773 12.16981,1.62266 30.43705,-31.04588 32.4668,-45.93359 1.9562,-14.34186 -2.81085,-21.576749 -8.51367,-21.656254 z m -2.71289,11.992184 h 0.043 c 2.24114,-0.0934 3.53459,1.38564 3.9082,4.56055 1.82895,15.54207 -9.67824,30.30698 -14.55078,34.20508 -4.34213,3.47464 -3.51653,-0.21012 -1.10156,-5.64649 2.48645,-5.59505 2.97093,-9.08801 -1.75586,-6.08007 -5.24861,3.33986 -5.13257,-1.48133 -4.46094,-5.10352 1.12086,-5.97636 3.87898,-11.60269 8.36133,-16.83203 4.10867,-3.36172 7.3155,-5.01011 9.55664,-5.10352 z m -113.65039,28.66797 -7.92774,11.1836 2.28125,6.73242 4.45118,-1.08594 c 14.9409,3.73523 29.90675,0.0221 44.84765,-11.18359 h 17.91797 l -2.28125,-9.01368 -16.72265,2.28125 c -12.8532,-5.65281 -30.34607,-10.19435 -42.56641,1.08594 z m 22.36914,-1.08594 15.63672,5.53711 c -5.22897,2.24115 -10.40736,4.15239 -15.63672,5.64649 3.73562,-3.73522 3.73562,-7.44844 0,-11.1836 z m -13.4668,2.17188 c -1.49407,3.73523 -0.70886,7.10946 2.2793,10.09766 -3.73769,-1e-5 -7.10947,-0.67779 -10.09766,-2.17188 0.74705,-2.9882 3.33611,-5.68463 7.81836,-7.92578 z m 84.04688,12.37891 c 5.22953,1.49408 6.52508,3.74421 3.91015,6.73242 -2.61476,2.98815 -4.86467,3.32708 -6.73242,1.08593 -1.86753,-2.24115 -0.91279,-4.83014 2.82227,-7.81835 z m -90.7793,36.91992 c 1.4166,4.24974 -2.58215,7.23294 -8.36133,2.27929 -6.15938,-5.27939 -12.60861,-1.7572 -8.46875,4.45313 1.49408,-2.24115 4.19055,-2.07213 7.92578,0.54297 8.10784,5.67548 14.93788,-2.69886 12.81446,-8.36133 -2.28083,-6.0822 -5.47881,-3.6236 -3.91016,1.08594 z m 11.40039,19.65429 h 0.002 c 0.31618,1.8e-4 1.47592,0.0345 0.97657,0.54297 l -22.47852,6.73243 c -3.7919,0 -5.20421,-4.13704 3.36719,-4.99415 8.31934,-0.83215 14.96928,-2.28085 18.13281,-2.28125 z m 0.97852,2.82422 c -2.69682,5.78778 -9.45408,8.89435 -14.55078,12.26953 -5.05585,1.68534 -7.17444,-0.53138 -4.56055,-4.45117 z m -205.125,396.02539 h 45.06445 l 146.70313,106.41797 c -59.96277,32.17665 -115.43645,70.92092 -170.81055,109.78321 2.8746,-95.2834 -3.44587,-184.54632 -20.95703,-216.20118 z m 373.2207,61.13477 -4.56055,24.65039 c 14.9409,50.79907 13.47811,91.53319 -4.45117,122.16211 -49.30499,28.38767 -108.72009,46.2815 -178.19531,53.75195 -69.47519,7.47045 -128.44402,33.24073 -177.00195,77.31641 27.64064,-67.2341 51.66914,-110.89816 72.21289,-131.06836 32.25021,-31.66391 165.9178,-113.99767 291.99609,-146.8125 z"
     sodipodi:nodetypes="cccccsscsssccsccsccccccccssccccccccccccccccccccccccccccscscscsccccccscscscccccccccccccsccsccscsssscccsssscscccsccscccscsccsscsccscccccccccccccccccccccccccccccccsccccccsccccccccccccscsscc" />
</svg>
