<?xml version="1.0" encoding="UTF-8" standalone="no"?>
<svg
   width="800"
   height="1000"
   version="1.1"
   id="svg1"
   sodipodi:docname="135CD.svg"
   inkscape:version="1.4.2 (f4327f4, 2025-05-13)"
   xmlns:inkscape="http://www.inkscape.org/namespaces/inkscape"
   xmlns:sodipodi="http://sodipodi.sourceforge.net/DTD/sodipodi-0.dtd"
   xmlns="http://www.w3.org/2000/svg"
   xmlns:svg="http://www.w3.org/2000/svg">
  <defs
     id="defs1" />
  <sodipodi:namedview
     id="namedview1"
     pagecolor="#ffffff"
     bordercolor="#666666"
     borderopacity="1.0"
     inkscape:showpageshadow="2"
     inkscape:pageopacity="0.0"
     inkscape:pagecheckerboard="0"
     inkscape:deskcolor="#d1d1d1"
     inkscape:zoom="0.26693281"
     inkscape:cx="567.55856"
     inkscape:cy="852.2744"
     inkscape:window-width="1680"
     inkscape:window-height="998"
     inkscape:window-x="-8"
     inkscape:window-y="-8"
     inkscape:window-maximized="1"
     inkscape:current-layer="svg1"
     showguides="true">
    <sodipodi:guide
       position="800,1000"
       orientation="0,-1"
       id="guide10"
       inkscape:locked="false" />
    <sodipodi:guide
       position="800,0"
       orientation="0,-1"
       id="guide11"
       inkscape:locked="false" />
  </sodipodi:namedview>
  <path
     id="path1"
     style="fill:#000000;stroke:none;stroke-width:0.999997"
     d="M 388.21674,2.2519531 193.70698,167.14062 178.42768,147.16016 c -9.89014,8.58143 -11.61087,17.46727 -5.16406,26.66015 -20.36042,-1.00774 -61.86232,23.60059 -44.54688,45.41992 L 98.290964,242.28516 83.261667,223.20117 c -9.457761,7.81407 -10.793547,16.91595 -4.011719,27.3086 -8.441173,-4.7561 -14.726497,-5.26297 -18.855469,-1.52344 -24.174114,22.26967 -33.205591,37.40142 -27.09375,45.39453 l 13.876953,18.43359 c 16.590272,15.41357 52.697266,28.9336 52.697266,28.9336 0,0 121.856252,151.74363 198.648442,152.75586 36.2645,-9.35752 103.49928,-39.04345 159.68359,-70.52735 2.33377,67.93747 32.81074,103.71822 53.38867,125.51367 38.16942,40.42778 52.44573,87.01604 54.66797,136.79883 C 457.37821,562.90501 352.2988,509.81055 320.36518,509.81055 c -35.9746,0 -58.08876,17.95587 -68.03515,37.13867 -30.54973,68.20424 -56.50061,181.96933 -77.81446,341.11328 -7.81481,32.68132 -23.30628,50.85554 -46.39649,54.4082 -23.09018,3.55267 -55.228352,10.89621 -96.435538,22.26368 C -6.6815116,963.31224 -10.188043,975.13346 21.072214,1000 H 239.5351 c 9.94639,-9.23647 11.1618,-23.1396 4.0586,-41.61133 -7.1048,-18.47225 -3.82327,-50.77665 9.67578,-96.95703 46.89039,-102.30662 62.56412,-156.15751 47.64453,-202.33789 30.80486,55.23539 76.01038,82.43619 118.44531,113.64844 -39.05943,25.23291 -79.58862,54.41563 -118.45703,86.54687 -49.20306,28.64986 -63.52975,66.642 -42.97656,113.97656 13.7021,36.12378 93.11459,32.69748 238.23242,-10.27734 105.87998,-44.84327 163.48969,-67.26367 172.83203,-67.26367 14.94777,18.6847 14.94777,44.22058 0,76.60742 -25.53575,8.71954 -34.8784,17.75144 -28.02734,27.09375 16.81621,1.24562 34.09911,0.46689 51.84961,-2.33594 17.75042,-2.80269 31.14288,-25.06967 40.17383,-66.79882 9.03089,-41.72919 14.01103,-71.15748 14.94531,-88.28516 0.93425,-17.12757 -6.69527,-26.0041 -22.88867,-26.62695 33.00965,-46.71175 33.00965,-106.81156 0,-180.30469 C 717.41659,572.27769 707.46422,528.6621 705.2519,492.70703 701.59431,433.26315 686.8755,394.76471 663.16792,351.59961 647.57688,323.21256 608.3364,296.07129 588.87104,279.84766 L 562.4394,243.70898 c 9.58079,-8.69172 53.60751,-54.28424 19.59375,-131.48046 C 557.57657,56.722886 484.17207,71.72761 450.248,87.492188 Z M 387.90815,32.40625 c 10.3031,16.494234 27.43348,40.674968 45.18164,64.005859 -7.6909,4.422551 -15.36246,9.080601 -23.02344,17.822271 C 389.3135,95.878226 366.62565,80.959652 341.99995,69.476562 Z M 513.2519,89.072266 c 25.12144,-0.376171 42.53035,9.480059 52.28516,31.619144 11.44196,25.96814 11.80439,52.04667 1.08008,78.24023 -10.72072,26.18919 -20.50684,36.46677 -29.35547,30.82422 -9.80282,-6.01727 -10.51884,-19.81572 -2.13867,-41.39844 15.89606,-40.86334 -14.88507,-81.15879 -58.35547,-30.93359 l -0.002,-0.008 c -12.76241,-5.50839 -36.15362,-3.54971 -70.16601,5.87109 4.8458,-50.15477 61.45253,-73.538018 106.65234,-74.214844 z m -192.37305,2.970703 c 23.08347,0.456943 50.79759,16.650961 78.17383,38.955081 -8.86895,18.41609 -11.73,42.28274 -8.58203,71.60156 -3.58893,13.50821 -6.22928,30.97175 -7.92187,52.39062 -0.37307,13.68103 2.17347,20.31265 7.56445,19.92383 5.39618,-0.38946 10.34577,0.0133 14.8457,1.20899 -5.29728,7.39637 -0.0368,11.63459 6.81641,10.11914 -2.76155,2.51586 -4.72166,9.98264 2.91992,10.63672 4.52615,0.3912 9.01543,5.56928 13.41602,15.55664 4.39997,9.98597 11.78444,12.30191 22.14257,6.94336 11.98691,-5.28163 20.6808,-9.90723 26.08789,-13.87891 0,0 10.88039,18.78574 13.35938,22.80078 -19.16242,9.30883 -38.56946,24.0497 -58.22266,44.22461 -36.18567,13.14522 -77.57131,32.34037 -124.15625,57.58203 -18.27283,-45.48891 -47.5046,-102.62745 -98.74414,-174.9707 l -1.15039,-0.64844 c 7.55664,-33.14914 6.92459,-56.25158 -1.89453,-69.30859 L 316.32612,92.164062 c 1.49627,-0.112276 3.01384,-0.151556 4.55273,-0.121093 z m 190.24219,57.439451 c 7.9134,0.0926 14.54251,7.1976 13.79688,22.50391 -0.71248,14.62581 -3.89553,28.15241 -9.54883,40.58203 -5.64395,12.42605 -4.15472,21.70823 4.50781,27.83008 15.82472,13.0567 32.7495,30.88473 45.10547,48.10351 36.38819,33.87173 53.73393,33.30641 75.51758,78.50586 17.64596,36.61404 33.7738,96.93573 36.09179,128.25391 4.71775,63.74091 3.40183,65.24954 14.82032,148.21875 l -91.29883,42.57617 C 599.5595,628.67429 580.55123,584.44697 540.94331,538.74023 509.94881,502.9732 461.8672,411.57384 499.70893,366.34375 c 19.88346,-18.95075 14.82198,-30.32621 8.5293,-45.23633 -12.02875,-27.29992 -23.85291,-34.45932 -43.46875,-23.03515 -19.61493,11.42597 -31.27817,8.41505 -34.99219,-9.03125 9.7185,-12.23318 12.07354,-19.03794 7.10352,-20.42383 -4.97902,-1.38135 -12.75894,-0.53992 -23.33594,2.53125 -1.38813,-4.95395 -7.95126,-7.22908 -19.70313,-6.82422 -0.0629,-25.41579 2.8016,-44.17063 8.60157,-56.26758 6.60072,-8.47613 15.68697,-12.67807 27.24804,-12.60156 11.56004,0.0742 22.77704,-1.08849 33.64258,-3.49219 l -2.64062,-5.99414 c -6.95227,2.2681 -16.26026,2.79411 -27.92774,1.57422 -11.67076,-1.21454 -22.09784,2.18018 -31.28125,10.20508 1.64554,-7.08579 2.74452,-12.74071 3.26563,-16.94336 26.84552,-9.44306 50.75375,-12.02688 71.7207,-7.74805 4.40017,9.98642 8.78448,8.65373 13.14649,-4.00195 4.39283,-12.74515 13.59051,-19.66489 21.5039,-19.57227 z m -1.82617,4.92578 c -3.40194,0.11249 -6.89835,2.64705 -9.12891,4.63086 -11.21186,8.92636 -15.42062,36.03596 -7.35156,40.21289 h -0.01 c -4.15457,5.01064 -5.83887,9.72924 -5.08594,14.16797 0.85396,5.03456 12.90387,16.21957 24.52734,-11.99804 1.67468,-4.0656 13.66014,-34.52465 1.50196,-45.38672 -1.37914,-1.22933 -2.90679,-1.67809 -4.45313,-1.62696 z m -2.19531,8.63086 c 1.78968,-0.0827 3.45751,1.41338 4.54297,5.85352 2.94199,12.03437 -2.49969,27.52756 -7.47852,33.11133 -2.91784,3.27162 -3.57729,1.77363 -1.98047,-4.4961 1.59267,-6.27891 0.86297,-7.93346 -2.20117,-4.99414 -3.06383,2.94029 -4.63068,1.64367 -4.69727,-3.89258 -0.0575,-5.54076 0.85647,-11.23863 3.26758,-16.94531 0.70972,-1.67978 4.8823,-8.46745 8.54688,-8.63672 z m -44.98438,34.23242 -14.42187,5.16407 c -10.65114,-2.89732 -29.45342,-6.23341 -38.47852,7.41211 l -6.91015,11.39257 3.08007,6.99219 4.9961,-2.19922 c 14.33382,0.0451 27.6515,-5.8225 39.95312,-17.60351 l 15.30274,-3.16602 z m -33.16601,8.64844 15.06836,1.70899 c -5.02667,3.01983 -9.51555,5.38538 -13.53321,7.15625 2.44615,-3.46322 1.91755,-6.41382 -1.53515,-8.86524 z m 65.93164,0.77344 c 5.14053,0.91136 6.85819,2.93972 5.05859,6.11523 -1.78676,3.17109 -3.8446,3.87911 -6.21094,2.14063 -2.33232,-1.7512 -1.98117,-4.4926 1.15235,-8.25586 z m -77.79688,2.06836 c -0.52009,4.20496 0.80109,7.20408 3.96094,8.99023 -3.6249,0.80258 -7.04011,1.11674 -10.30664,0.9668 l -0.002,-0.004 c 0.15614,-3.2522 2.27148,-6.5679 6.34765,-9.95312 z m -275.64062,28.26367 c 5.17693,6.96085 17.20917,18.79515 36.10156,35.50586 l -0.64648,1.15234 c 15.1298,44.9206 36.19456,91.41646 63.19726,139.48829 -32.81829,-34.16159 -70.21919,-67.36637 -112.20313,-99.61524 l -0.64648,1.15039 c -1.66352,-22.16818 -6.90744,-39.7809 -15.72656,-52.83789 z m 291.09179,34.48828 c 0.49803,0.0226 0.6754,0.21406 0.5254,0.57813 l -19.95508,8.79297 c -1.81945,0.80169 -4.79779,-2.02194 0.0645,-3.97461 2.40998,-0.96789 5.6566,-1.13036 14.23828,-4.11524 2.57537,-0.88644 4.29691,-1.31883 5.12695,-1.28125 z m 1.37891,2.58985 c -2.27761,5.2666 -6.69037,9.00927 -11.33398,12.14062 -5.66019,3.87049 -7.00845,1.00237 -5.73633,-2.24023 z M 282.39643,560.16211 c 47.47664,0.10593 163.21759,35.95753 254.41602,145.9082 -29.67819,14.30747 -63.46872,32.87837 -98.92969,54.93164 -39.51118,-35.7089 -119.33738,-87.12939 -169.11328,-198.86523 4.12259,-1.22506 8.68837,-1.98527 13.62695,-1.97461 z m 422.09571,108.54492 c 26.78138,45.46607 14.94673,99.33878 -35.50196,161.62109 -32.38679,19.93035 -82.83514,33.32083 -151.3457,40.17188 -68.51058,6.85105 -127.05653,31.45269 -175.63672,73.80469 27.4042,-64.77364 51.3843,-106.50282 71.9375,-125.1875 20.55315,-18.68473 59.47759,-41.57326 116.77734,-68.66602 57.29977,-27.09285 115.22414,-54.33994 173.76954,-81.74414 z" />
</svg>
