<?xml version="1.0" encoding="UTF-8" standalone="no"?>
<svg
   width="4500"
   height="2000"
   version="1.1"
   id="svg1"
   sodipodi:docname="135DD.svg"
   inkscape:version="1.4.2 (f4327f4, 2025-05-13)"
   xmlns:inkscape="http://www.inkscape.org/namespaces/inkscape"
   xmlns:sodipodi="http://sodipodi.sourceforge.net/DTD/sodipodi-0.dtd"
   xmlns="http://www.w3.org/2000/svg"
   xmlns:svg="http://www.w3.org/2000/svg">
  <defs
     id="defs1" />
  <sodipodi:namedview
     id="namedview1"
     pagecolor="#ffffff"
     bordercolor="#666666"
     borderopacity="1.0"
     inkscape:showpageshadow="2"
     inkscape:pageopacity="0.0"
     inkscape:pagecheckerboard="0"
     inkscape:deskcolor="#d1d1d1"
     inkscape:zoom="0.17174838"
     inkscape:cx="1976.729"
     inkscape:cy="-37.846063"
     inkscape:window-width="1680"
     inkscape:window-height="998"
     inkscape:window-x="-8"
     inkscape:window-y="-8"
     inkscape:window-maximized="1"
     inkscape:current-layer="svg1" />
  <path
     id="path1"
     style="fill:#000000;stroke:none;stroke-width:112.254"
     d="M 750.86719 0.013671875 C 664.04192 0.6815825 597.92214 17.711196 552.50586 51.105469 C 507.08963 84.499817 484.38086 123.90597 484.38086 169.32227 L 466.34766 239.44922 L 476.36719 259.48633 C 465.68099 288.87328 457.66533 316.92516 452.32227 343.64062 C 446.9792 370.35608 448.98361 385.71729 458.33398 389.72461 L 488.38867 401.74609 C 481.70982 411.09652 483.71221 417.77582 494.39844 421.7832 C 490.39112 435.14089 494.39985 441.82031 506.42188 441.82031 L 512.43164 447.83008 C 512.43164 459.85203 514.43603 472.20858 518.44336 484.89844 C 522.45074 497.58829 539.14821 501.26103 568.53516 495.91797 C 596.58644 493.2464 624.63824 485.23277 652.68945 471.875 L 652.68945 514.37891 L 460.75977 514.37891 C 361.95443 513.14653 285.95779 476.62027 230.2832 399.42578 C 174.5982 322.21684 140.43359 200.91183 140.43359 31.800781 L 73.705078 31.800781 C 73.705078 209.79561 108.85483 345.13542 176.16211 438.45898 C 243.46938 531.78255 344.12402 579.67588 459.99219 581.10547 L 460.19727 581.10742 L 571.10742 581.10742 C 559.24853 591.44854 548.37198 601.78972 538.48047 612.13086 C 509.09344 642.85363 494.40039 725.67091 494.40039 860.58398 C 494.40039 908.67177 510.42968 958.76431 542.48828 1010.8594 C 574.54681 1062.9546 600.59429 1115.0494 620.63086 1167.1445 C 640.66751 1219.2396 645.34252 1282.0206 634.65625 1355.4883 C 487.72125 1418.2695 313.40286 1532.4775 111.70117 1698.1133 C 6.1751522 1759.559 -23.881069 1841.0418 21.535156 1942.5605 C 49.586438 2020.0354 219.22973 2012.6892 530.46484 1920.5215 C 757.54624 1824.3458 881.10608 1776.2578 901.14258 1776.2578 C 933.20119 1817.6668 933.20119 1872.4323 901.14258 1940.5566 C 846.37589 1959.2575 827.00778 1978.6275 843.03711 1998.6641 C 877.76713 2001.3366 914.16668 1999.9989 952.23633 1994.6562 C 990.30583 1989.313 1019.024 1941.5593 1038.3926 1851.3945 C 1057.7613 1761.2299 1068.4472 1698.1147 1070.4512 1662.0488 C 1072.4549 1625.9829 1056.0915 1607.283 1021.3613 1605.9473 C 1082.807 1488.3992 1088.8181 1368.1802 1039.3945 1245.2891 L 1039.3945 1245.2871 C 1030.044 1227.9221 1013.3466 1193.8589 989.30273 1143.0996 C 965.25883 1092.3402 954.90667 1025.5523 958.24609 942.73438 C 961.58557 859.91642 976.94685 789.45373 1004.3301 731.34766 C 1031.7135 673.2415 1057.7611 652.5372 1082.4727 669.23438 C 1107.1846 685.93155 1163.6224 729.01053 1251.7832 798.4707 C 1226.4035 861.25201 1213.7129 967.44621 1213.7129 1117.0527 C 1193.6764 1183.8413 1177.3127 1237.2725 1164.623 1277.3457 C 1151.9331 1317.4189 1162.9535 1373.5206 1197.6836 1445.6523 C 1213.7128 1452.3311 1229.4082 1448.6584 1244.7695 1434.6328 C 1260.1304 1420.6073 1263.8043 1412.2593 1255.7891 1409.5879 C 1238.4241 1389.5513 1227.7376 1366.8425 1223.7305 1341.4629 C 1219.7232 1316.0832 1226.4024 1280.6858 1243.7676 1235.2695 C 1259.7969 1271.3352 1263.4716 1303.394 1254.7891 1331.4453 C 1246.1066 1359.4965 1250.4474 1374.1897 1267.8125 1375.5254 C 1301.2068 1307.401 1306.5499 1224.5818 1283.8418 1127.0703 C 1302.5426 1054.9386 1313.229 1000.173 1315.9004 962.77148 L 1390.0352 1141.0977 C 1412.7434 1207.8865 1429.4405 1261.9837 1440.127 1303.3926 C 1450.8133 1344.8016 1492.8899 1386.8782 1566.3574 1429.623 C 1586.3939 1426.9514 1599.0839 1415.9311 1604.4277 1396.5625 C 1609.7702 1377.1938 1607.0987 1366.8416 1596.4121 1365.5059 C 1572.3682 1358.8272 1550.6617 1345.4703 1531.293 1325.4336 C 1511.9244 1305.3971 1497.5657 1271.334 1488.2148 1223.2461 C 1522.9448 1244.6184 1545.3186 1269.6657 1555.3379 1298.3848 C 1565.3562 1327.1038 1577.7108 1337.4566 1592.4043 1329.4414 C 1581.7182 1254.6381 1536.3027 1182.5049 1456.1562 1113.0449 C 1437.4554 1002.1756 1413.4105 910.00853 1384.0234 836.54102 L 1516.2656 1093.0098 L 1572.3691 1060.9512 L 1450.1445 856.57617 L 1592.4043 1004.8477 L 1630.4746 954.75586 L 1456.1562 814.5 C 1542.9813 770.41946 1586.0598 724.33585 1585.3926 676.24805 C 1584.7246 628.16018 1564.0205 599.44028 1523.2793 590.08984 C 1482.5383 580.7394 1449.1431 587.75284 1423.0957 611.12891 C 1397.048 634.50488 1377.346 686.26572 1363.9883 766.41211 L 1339.9434 728.34375 C 1290.6076 681.06367 1227.7571 631.15559 1164.1855 581.10742 L 1916.7949 581.10742 C 1904.936 591.44854 1894.0575 601.78972 1884.166 612.13086 C 1854.779 642.85363 1840.0859 725.67091 1840.0859 860.58398 C 1840.0859 908.67177 1856.1152 958.76431 1888.1738 1010.8594 C 1920.2324 1062.9546 1946.2798 1115.0494 1966.3164 1167.1445 C 1986.353 1219.2396 1991.028 1282.0206 1980.3418 1355.4883 C 1833.4068 1418.2695 1659.0884 1532.4775 1457.3867 1698.1133 C 1351.8607 1759.559 1321.8065 1841.0418 1367.2227 1942.5605 C 1395.274 2020.0354 1564.9172 2012.6892 1876.1523 1920.5215 C 2103.2337 1824.3458 2226.7916 1776.2578 2246.8281 1776.2578 C 2278.8868 1817.6668 2278.8868 1872.4323 2246.8281 1940.5566 C 2192.0615 1959.2575 2172.6934 1978.6275 2188.7227 1998.6641 C 2223.4528 2001.3366 2259.8523 1999.9989 2297.9219 1994.6562 C 2335.9914 1989.3131 2364.7115 1941.5593 2384.0801 1851.3945 C 2403.4488 1761.2299 2414.1347 1698.1147 2416.1387 1662.0488 C 2418.1424 1625.9829 2401.779 1607.283 2367.0488 1605.9473 C 2428.4945 1488.3992 2434.5056 1368.1802 2385.082 1245.2891 L 2385.082 1245.2871 C 2375.7315 1227.9221 2359.0341 1193.8589 2334.9902 1143.0996 C 2310.9463 1092.3402 2300.5942 1025.5523 2303.9336 942.73438 C 2307.2731 859.91642 2322.6344 789.45373 2350.0176 731.34766 C 2377.401 673.2415 2403.4486 652.5372 2428.1602 669.23438 C 2452.8721 685.93155 2509.3079 729.01053 2597.4688 798.4707 C 2572.0891 861.25201 2559.4004 967.44621 2559.4004 1117.0527 C 2539.3639 1183.8413 2523.0002 1237.2725 2510.3105 1277.3457 C 2497.6206 1317.4189 2508.641 1373.5206 2543.3711 1445.6523 C 2559.4003 1452.3311 2575.0957 1448.6584 2590.457 1434.6328 C 2605.8179 1420.6073 2609.4918 1412.2593 2601.4766 1409.5879 C 2584.1116 1389.5513 2573.4251 1366.8425 2569.418 1341.4629 C 2565.4107 1316.0832 2572.0899 1280.6858 2589.4551 1235.2695 C 2605.4844 1271.3352 2609.1571 1303.394 2600.4746 1331.4453 C 2591.7921 1359.4965 2596.1329 1374.1897 2613.498 1375.5254 C 2646.8923 1307.401 2652.2354 1224.5818 2629.5273 1127.0703 C 2648.2281 1054.9386 2658.9145 1000.173 2661.5859 962.77148 L 2735.7227 1141.0977 C 2758.4309 1207.8865 2775.128 1261.9837 2785.8145 1303.3926 C 2796.5008 1344.8016 2838.5774 1386.8782 2912.0449 1429.623 C 2932.0814 1426.9514 2944.7695 1415.9311 2950.1133 1396.5625 C 2955.4558 1377.1938 2952.7862 1366.8416 2942.0996 1365.5059 C 2918.0557 1358.8272 2896.3492 1345.4703 2876.9805 1325.4336 C 2857.6119 1305.3971 2843.2513 1271.334 2833.9004 1223.2461 C 2868.6304 1244.6184 2891.0041 1269.6657 2901.0234 1298.3848 C 2911.0417 1327.1038 2923.3983 1337.4566 2938.0918 1329.4414 C 2927.4057 1254.6381 2881.9882 1182.5049 2801.8418 1113.0449 C 2783.141 1002.1756 2759.098 910.00853 2729.7109 836.54102 L 2861.9531 1093.0098 L 2918.0547 1060.9512 L 2795.832 856.57617 L 2938.0918 1004.8477 L 2976.1602 954.75586 L 2801.8418 814.5 C 2888.6669 770.41946 2931.7453 724.33585 2931.0781 676.24805 C 2930.4101 628.16018 2909.706 599.44028 2868.9648 590.08984 C 2828.2238 580.7394 2794.8306 587.75284 2768.7832 611.12891 C 2742.7355 634.50488 2723.0315 686.26572 2709.6738 766.41211 L 2685.6309 728.34375 C 2636.295 681.06359 2573.4427 631.15567 2509.8711 581.10742 L 3177.7129 581.10742 C 3165.854 591.44854 3154.9774 601.78972 3145.0859 612.13086 C 3115.6989 642.85363 3101.0059 725.67091 3101.0059 860.58398 C 3101.0059 908.67177 3117.0352 958.76431 3149.0938 1010.8594 C 3181.1523 1062.9546 3207.1997 1115.0494 3227.2363 1167.1445 C 3247.2729 1219.2396 3251.9479 1282.0206 3241.2617 1355.4883 C 3094.3267 1418.2695 2920.0083 1532.4775 2718.3066 1698.1133 C 2612.7806 1759.559 2582.7244 1841.0418 2628.1406 1942.5605 C 2656.1919 2020.0354 2825.8352 2012.6892 3137.0703 1920.5215 C 3364.1517 1824.3458 3487.7115 1776.2578 3507.748 1776.2578 C 3539.8067 1817.6668 3539.8067 1872.4323 3507.748 1940.5566 C 3452.9814 1959.2575 3433.6133 1978.6275 3449.6426 1998.6641 C 3484.3727 2001.3366 3520.7722 1999.9989 3558.8418 1994.6562 C 3596.9113 1989.3131 3625.6294 1941.5593 3644.998 1851.3945 C 3664.3667 1761.2299 3675.0526 1698.1147 3677.0566 1662.0488 C 3679.0603 1625.9829 3662.697 1607.283 3627.9668 1605.9473 C 3689.4125 1488.3992 3695.4236 1368.1802 3646 1245.2891 L 3646 1245.2871 C 3636.6495 1227.9221 3619.9521 1193.8589 3595.9082 1143.0996 C 3571.8643 1092.3402 3561.5122 1025.5523 3564.8516 942.73438 C 3568.1911 859.91642 3583.5523 789.45373 3610.9355 731.34766 C 3638.3189 673.2415 3664.3665 652.5372 3689.0781 669.23438 C 3713.79 685.93155 3770.2279 729.01053 3858.3887 798.4707 C 3833.009 861.25201 3820.3184 967.44621 3820.3184 1117.0527 C 3800.2819 1183.8413 3783.9182 1237.2725 3771.2285 1277.3457 C 3758.5386 1317.4189 3769.559 1373.5206 3804.2891 1445.6523 C 3820.3183 1452.3311 3836.0137 1448.6584 3851.375 1434.6328 C 3866.7359 1420.6073 3870.4097 1412.2593 3862.3945 1409.5879 C 3845.0295 1389.5513 3834.343 1366.8425 3830.3359 1341.4629 C 3826.3286 1316.0832 3833.0078 1280.6858 3850.373 1235.2695 C 3866.4023 1271.3352 3870.077 1303.394 3861.3945 1331.4453 C 3852.712 1359.4965 3857.0529 1374.1897 3874.418 1375.5254 C 3907.8123 1307.401 3913.1554 1224.5818 3890.4473 1127.0703 C 3909.1481 1054.9386 3919.8345 1000.173 3922.5059 962.77148 L 3996.6406 1141.0977 C 4019.3488 1207.8865 4036.0459 1261.9837 4046.7324 1303.3926 C 4057.4187 1344.8016 4099.4954 1386.8782 4172.9629 1429.623 C 4192.9994 1426.9514 4205.6894 1415.9311 4211.0332 1396.5625 C 4216.3757 1377.1938 4213.7042 1366.8416 4203.0176 1365.5059 C 4178.9737 1358.8272 4157.2671 1345.4703 4137.8984 1325.4336 C 4118.5298 1305.3971 4104.1712 1271.334 4094.8203 1223.2461 C 4129.5503 1244.6184 4151.9241 1269.6657 4161.9434 1298.3848 C 4171.9617 1327.1038 4184.3163 1337.4566 4199.0098 1329.4414 C 4188.3237 1254.6381 4142.9081 1182.5049 4062.7617 1113.0449 C 4044.0609 1002.1756 4020.016 910.00853 3990.6289 836.54102 L 4122.8711 1093.0098 L 4178.9746 1060.9512 L 4056.75 856.57617 L 4199.0098 1004.8477 L 4237.0801 954.75586 L 4062.7617 814.5 C 4149.5868 770.41946 4192.6652 724.33585 4191.998 676.24805 C 4191.33 628.16018 4170.626 599.44028 4129.8848 590.08984 C 4089.1438 580.7394 4055.7486 587.75284 4029.7012 611.12891 C 4003.6535 634.50488 3983.9515 686.26572 3970.5938 766.41211 L 3946.5488 728.34375 C 3882.4317 666.8982 3806.2938 603.11493 3718.1328 536.99414 C 3629.9719 470.87335 3561.1795 437.8125 3511.7559 437.8125 C 3460.9965 437.8125 3424.9289 421.11497 3403.5566 387.7207 C 3486.3745 350.31904 3532.7942 301.89698 3542.8125 242.45508 C 3552.8308 183.01318 3546.1514 127.57961 3522.7754 76.152344 C 3499.3994 24.725075 3444.2979 -0.65423871 3357.4727 0.013671875 C 3270.6474 0.6815825 3204.5275 17.711196 3159.1113 51.105469 C 3113.695 84.499817 3090.9863 123.90597 3090.9863 169.32227 L 3072.9531 239.44922 L 3082.9727 259.48633 C 3072.2865 288.87328 3064.2708 316.92516 3058.9277 343.64062 C 3053.5847 370.35608 3055.5891 385.71729 3064.9395 389.72461 L 3094.9941 401.74609 C 3088.3152 411.09652 3090.3197 417.77582 3101.0059 421.7832 C 3096.9986 435.14089 3101.0052 441.82031 3113.0273 441.82031 L 3119.0371 447.83008 C 3119.0371 459.85203 3121.0415 472.20858 3125.0488 484.89844 C 3129.0562 497.58829 3145.7536 501.26103 3175.1406 495.91797 C 3203.1918 493.2464 3231.2437 485.23277 3259.2949 471.875 L 3259.2949 514.37891 L 2425.9688 514.37891 C 2352.6391 463.33452 2294.2609 437.8125 2250.8359 437.8125 C 2200.0765 437.8125 2164.011 421.11497 2142.6387 387.7207 C 2225.4566 350.31904 2271.8743 301.89698 2281.8926 242.45508 C 2291.9109 183.01318 2285.2315 127.57961 2261.8555 76.152344 C 2238.4795 24.725075 2183.3799 -0.65423871 2096.5547 0.013671875 C 2009.7294 0.6815825 1943.6077 17.711196 1898.1914 51.105469 C 1852.7752 84.499817 1830.0684 123.90597 1830.0684 169.32227 L 1812.0352 239.44922 L 1822.0527 259.48633 C 1811.3665 288.87328 1803.3529 316.92516 1798.0098 343.64062 C 1792.6668 370.35608 1794.6691 385.71729 1804.0195 389.72461 L 1834.0742 401.74609 C 1827.3953 411.09652 1829.3997 417.77582 1840.0859 421.7832 C 1836.0786 435.14089 1840.0853 441.82031 1852.1074 441.82031 L 1858.1191 447.83008 C 1858.1191 459.85203 1860.1236 472.20858 1864.1309 484.89844 C 1868.1383 497.58829 1884.8337 501.26103 1914.2207 495.91797 C 1942.2719 493.2464 1970.3238 485.23277 1998.375 471.875 L 1998.375 514.37891 L 1080.2812 514.37891 C 1006.9516 463.33452 948.57534 437.8125 905.15039 437.8125 C 854.39103 437.8125 818.3235 421.11497 796.95117 387.7207 C 879.76906 350.31904 926.1887 301.89698 936.20703 242.45508 C 946.22533 183.01318 939.54597 127.57961 916.16992 76.152344 C 892.79393 24.725075 837.69239 -0.65423871 750.86719 0.013671875 z M 734.27539 47.349609 C 748.50972 47.182636 763.05749 47.765797 777.91797 49.101562 C 837.35988 54.444625 874.7617 93.51674 890.12305 166.31641 C 905.48448 239.11601 869.0829 298.22434 780.92188 343.64062 C 807.63734 283.5308 810.64393 236.44305 789.93945 202.38086 C 769.23496 168.31865 748.19655 156.29846 726.82422 166.31641 C 705.45182 176.33568 689.75667 176.00068 679.73828 165.31445 C 669.71999 154.62818 622.63418 150.62138 538.48047 153.29297 C 539.81621 115.89131 565.19553 87.839504 614.61914 69.138672 C 651.68686 55.113105 691.5724 47.850529 734.27539 47.349609 z M 2079.9609 47.349609 C 2094.1953 47.182636 2108.743 47.765797 2123.6035 49.101562 C 2183.0454 54.444626 2220.4472 93.51674 2235.8086 166.31641 C 2251.17 239.11601 2214.7704 298.22433 2126.6094 343.64062 C 2153.3248 283.5308 2156.3295 236.44305 2135.625 202.38086 C 2114.9205 168.31865 2093.8821 156.29846 2072.5098 166.31641 C 2051.1374 176.33568 2035.4422 176.00068 2025.4238 165.31445 C 2015.4055 154.62818 1968.3197 150.62138 1884.166 153.29297 C 1885.5017 115.89131 1910.8811 87.839504 1960.3047 69.138672 C 1997.3724 55.113105 2037.2579 47.850529 2079.9609 47.349609 z M 3340.8809 47.349609 C 3355.1152 47.182636 3369.663 47.765797 3384.5234 49.101562 C 3443.9653 54.444626 3481.3671 93.51674 3496.7285 166.31641 C 3512.0899 239.11601 3475.6883 298.22433 3387.5273 343.64062 C 3414.2427 283.5308 3417.2494 236.44305 3396.5449 202.38086 C 3375.8404 168.31865 3354.802 156.29846 3333.4297 166.31641 C 3312.0573 176.33568 3296.3621 176.00068 3286.3438 165.31445 C 3276.3255 154.62818 3229.2396 150.62138 3145.0859 153.29297 C 3146.4216 115.89131 3171.801 87.839504 3221.2246 69.138672 C 3258.2923 55.113105 3298.1779 47.850529 3340.8809 47.349609 z M 575.42188 187.85547 C 636.28301 189.85916 678.73541 202.38175 702.7793 225.42383 C 724.1517 197.37255 743.52171 195.03604 760.88672 218.41211 C 778.25181 241.78809 767.56552 268.83777 728.82812 299.56055 C 735.507 348.98416 752.53858 396.73807 779.92188 442.82227 C 804.42022 484.05111 841.75458 507.89687 891.91211 514.37891 L 703.85156 514.37891 C 704.76743 504.81455 704.40926 494.6542 702.7793 483.89648 C 689.42161 450.50221 678.06913 426.45914 668.71875 411.76562 C 651.35366 426.45915 627.6427 439.81593 597.58789 451.83789 C 567.53296 463.85985 547.8308 457.84858 538.48047 433.80469 C 547.83085 427.12576 555.51047 422.11677 561.52148 418.77734 C 567.53258 415.43792 571.87345 413.10141 574.54492 411.76562 L 570.53906 397.73828 L 536.47656 395.73633 C 533.80506 391.72895 527.12568 391.06084 516.43945 393.73242 C 517.77513 388.38921 515.10452 384.38046 508.42578 381.70898 C 489.72492 377.70158 480.03948 373.02676 479.37109 367.68359 C 478.70318 362.34052 480.37352 349.98593 484.38086 330.61719 C 488.38818 311.24852 495.73564 285.53516 506.42188 253.47656 L 498.40625 233.43945 L 508.42578 189.35938 C 532.80363 187.68967 555.13483 187.18757 575.42188 187.85547 z M 1921.1094 187.85547 C 1981.9705 189.85916 2024.4229 202.38175 2048.4668 225.42383 C 2069.8392 197.37255 2089.2073 195.03604 2106.5723 218.41211 C 2123.9374 241.78809 2113.2511 268.83777 2074.5137 299.56055 C 2081.1926 348.98416 2098.2241 396.73807 2125.6074 442.82227 C 2150.095 484.03299 2187.4012 507.88446 2237.5254 514.37891 L 2049.5371 514.37891 C 2050.4528 504.81492 2050.0967 494.65372 2048.4668 483.89648 C 2035.1091 450.50221 2023.7547 426.45914 2014.4043 411.76562 C 1997.0392 426.45914 1973.3302 439.81593 1943.2754 451.83789 C 1913.2205 463.85985 1893.5164 457.84858 1884.166 433.80469 C 1893.5164 427.12576 1901.198 422.11677 1907.209 418.77734 C 1913.2201 415.43792 1917.5609 413.10141 1920.2324 411.76562 L 1916.2246 397.73828 L 1882.1621 395.73633 C 1879.4906 391.72895 1872.8132 391.06084 1862.127 393.73242 C 1863.4626 388.38921 1860.7901 384.38046 1854.1113 381.70898 C 1835.4105 377.70158 1825.727 373.02676 1825.0586 367.68359 C 1824.3907 362.34052 1826.0611 349.98593 1830.0684 330.61719 C 1834.0757 311.24852 1841.4212 285.53516 1852.1074 253.47656 L 1844.0938 233.43945 L 1854.1113 189.35938 C 1878.4892 187.68967 1900.8223 187.18757 1921.1094 187.85547 z M 3182.0273 187.85547 C 3242.8885 189.85916 3285.3409 202.38175 3309.3848 225.42383 C 3330.7572 197.37255 3350.1272 195.03604 3367.4922 218.41211 C 3384.8573 241.78809 3374.171 268.83777 3335.4336 299.56055 C 3342.1125 348.98416 3359.144 396.73807 3386.5273 442.82227 C 3411.0149 484.03299 3448.3192 507.88446 3498.4434 514.37891 L 3310.457 514.37891 C 3311.3727 504.81492 3311.0147 494.65372 3309.3848 483.89648 C 3296.0271 450.50221 3284.6746 426.45914 3275.3242 411.76562 C 3257.9591 426.45914 3234.2482 439.81593 3204.1934 451.83789 C 3174.1385 463.85985 3154.4363 457.84858 3145.0859 433.80469 C 3154.4363 427.12576 3162.116 422.11677 3168.127 418.77734 C 3174.1381 415.43792 3178.4808 413.10141 3181.1523 411.76562 L 3177.1445 397.73828 L 3143.082 395.73633 C 3140.4105 391.72895 3133.7311 391.06084 3123.0449 393.73242 C 3124.3805 388.38921 3121.7101 384.38046 3115.0312 381.70898 C 3096.3304 377.70158 3086.645 373.02676 3085.9766 367.68359 C 3085.3087 362.34052 3086.979 349.98593 3090.9863 330.61719 C 3094.9936 311.24852 3102.3411 285.53516 3113.0273 253.47656 L 3105.0117 233.43945 L 3115.0312 189.35938 C 3139.4091 187.68967 3161.7403 187.18757 3182.0273 187.85547 z M 566.75 220.35352 C 549.73979 219.72735 528.29467 222.75275 502.41406 229.43164 L 506.42188 245.46094 C 547.83077 234.77475 576.54886 233.43849 592.57812 241.45312 C 608.60738 249.46775 631.98423 248.79961 662.70703 239.44922 L 658.69922 227.42773 C 633.31951 234.10658 611.27896 233.43847 592.57812 225.42383 C 585.56534 222.41832 576.95613 220.72921 566.75 220.35352 z M 1912.4375 220.35352 C 1895.4273 219.72735 1873.9822 222.75275 1848.1016 229.43164 L 1852.1074 245.46094 C 1893.5163 234.77475 1922.2364 233.43849 1938.2656 241.45312 C 1954.2949 249.46775 1977.6698 248.79961 2008.3926 239.44922 L 2004.3867 227.42773 C 1979.0069 234.10658 1956.9665 233.43847 1938.2656 225.42383 C 1931.2529 222.41832 1922.6436 220.72921 1912.4375 220.35352 z M 3173.3555 220.35352 C 3156.3453 219.72735 3134.9002 222.75275 3109.0195 229.43164 L 3113.0273 245.46094 C 3154.4362 234.77475 3183.1544 233.43849 3199.1836 241.45312 C 3215.2129 249.46775 3238.5897 248.79961 3269.3125 239.44922 L 3265.3047 227.42773 C 3239.925 234.10658 3217.8845 233.43847 3199.1836 225.42383 C 3192.1708 222.41832 3183.5616 220.72921 3173.3555 220.35352 z M 542.48828 246.46289 C 529.13051 247.13072 515.77177 256.14664 502.41406 273.51172 L 506.42188 275.51562 C 514.43642 263.49368 524.1205 256.14812 535.47461 253.47656 C 546.82865 250.80506 558.183 250.47096 569.53711 252.47461 C 580.89115 254.47827 593.24577 256.14666 606.60352 257.48242 L 608.60742 253.47656 C 593.91391 252.14088 582.55945 250.47043 574.54492 248.4668 C 566.53029 246.46313 555.84597 245.7945 542.48828 246.46289 z M 1888.1738 246.46289 C 1874.8161 247.13072 1861.4593 256.14664 1848.1016 273.51172 L 1852.1074 275.51562 C 1860.1219 263.49368 1869.8061 256.14812 1881.1602 253.47656 C 1892.5142 250.80506 1903.8686 250.47096 1915.2227 252.47461 C 1926.5768 254.47827 1938.9333 256.14666 1952.291 257.48242 L 1954.2949 253.47656 C 1939.6014 252.14088 1928.247 250.47043 1920.2324 248.4668 C 1912.2178 246.46313 1901.5315 245.7945 1888.1738 246.46289 z M 3149.0938 246.46289 C 3135.7361 247.13072 3122.3772 256.14664 3109.0195 273.51172 L 3113.0273 275.51562 C 3121.0419 263.49368 3130.726 256.14812 3142.0801 253.47656 C 3153.4341 250.80506 3164.7885 250.47096 3176.1426 252.47461 C 3187.4967 254.47827 3199.8513 256.14666 3213.209 257.48242 L 3215.2129 253.47656 C 3200.5194 252.14088 3189.165 250.47043 3181.1504 248.4668 C 3173.1358 246.46313 3162.4515 245.7945 3149.0938 246.46289 z M 664.71094 255.47852 L 594.58203 263.49414 C 554.50888 252.80794 527.79324 257.48288 514.43555 277.51953 L 498.40625 297.55664 L 504.41797 305.57031 L 512.43164 299.56055 C 541.81868 303.56787 569.87048 294.88405 596.58594 273.51172 L 666.71484 269.50586 L 664.71094 255.47852 z M 2010.3965 255.47852 L 1940.2695 263.49414 C 1900.1963 252.80794 1873.4807 257.48288 1860.123 277.51953 L 1844.0938 297.55664 L 1850.1035 305.57031 L 1858.1191 299.56055 C 1887.5061 303.56787 1915.5579 294.88405 1942.2734 273.51172 L 2012.4004 269.50586 L 2010.3965 255.47852 z M 3271.3164 255.47852 L 3201.1875 263.49414 C 3161.1143 252.80794 3134.3987 257.48288 3121.041 277.51953 L 3105.0117 297.55664 L 3111.0234 305.57031 L 3119.0371 299.56055 C 3148.4241 303.56787 3176.4759 294.88405 3203.1914 273.51172 L 3273.3203 269.50586 L 3271.3164 255.47852 z M 554.50977 267.50195 L 584.56445 269.50586 C 575.21407 276.18474 565.86413 281.52784 556.51367 285.53516 C 563.19255 278.85628 562.52431 272.845 554.50977 267.50195 z M 1900.1953 267.50195 L 1930.25 269.50586 C 1920.8997 276.18474 1911.5497 281.52784 1902.1992 285.53516 C 1908.8781 278.85628 1908.2098 272.845 1900.1953 267.50195 z M 3161.1152 267.50195 L 3191.1699 269.50586 C 3181.8196 276.18474 3172.4696 281.52784 3163.1191 285.53516 C 3169.798 278.85628 3169.1297 272.845 3161.1152 267.50195 z M 530.46484 273.51172 C 527.79327 281.52635 530.46585 287.53759 538.48047 291.54492 C 530.46585 292.8806 523.1183 292.21249 516.43945 289.54102 C 517.7752 284.19787 522.45013 278.85479 530.46484 273.51172 z M 1876.1523 273.51172 C 1873.4807 281.52635 1876.1514 287.53759 1884.166 291.54492 C 1876.1514 292.8806 1868.8059 292.21249 1862.127 289.54102 C 1863.4628 284.19787 1868.1376 278.85479 1876.1523 273.51172 z M 3137.0703 273.51172 C 3134.3987 281.52635 3137.0713 287.53759 3145.0859 291.54492 C 3137.0713 292.8806 3129.7238 292.21249 3123.0449 289.54102 C 3124.3807 284.19787 3129.0556 278.85479 3137.0703 273.51172 z M 531.93359 353.29492 C 531.45617 353.28714 530.96574 353.40774 530.46484 353.6582 C 527.79314 354.99399 527.45926 357.66646 529.46289 361.67383 C 531.46652 365.68121 530.7984 368.68582 527.45898 370.68945 C 524.11958 372.69308 519.77861 371.69097 514.43555 367.68359 C 509.09246 363.67622 505.08554 361.67383 502.41406 361.67383 C 499.74248 361.67383 497.73802 363.00822 496.40234 365.67969 C 495.06655 368.35127 495.73466 371.02384 498.40625 373.69531 C 501.07781 369.688 506.08721 370.02236 513.43359 374.69727 C 520.78038 379.37271 527.12514 379.7066 532.46875 375.69922 C 537.81259 371.69188 539.48216 366.68288 537.47852 360.67188 C 535.85057 355.78721 534.00244 353.32864 531.93359 353.29492 z M 1877.6191 353.29492 C 1877.1417 353.28714 1876.6533 353.40774 1876.1523 353.6582 C 1873.4806 354.99399 1873.1467 357.66646 1875.1504 361.67383 C 1877.154 365.68121 1876.4859 368.68582 1873.1465 370.68945 C 1869.8071 372.69308 1865.4661 371.69097 1860.123 367.68359 C 1854.7799 363.67622 1850.773 361.67383 1848.1016 361.67383 C 1845.43 361.67383 1843.4254 363.00822 1842.0898 365.67969 C 1840.754 368.35127 1841.4222 371.02384 1844.0938 373.69531 C 1846.7653 369.688 1851.7747 370.02236 1859.1211 374.69727 C 1866.4679 379.37271 1872.8127 379.7066 1878.1562 375.69922 C 1883.5001 371.69188 1885.1677 366.68288 1883.1641 360.67188 C 1881.5361 355.78721 1879.688 353.32864 1877.6191 353.29492 z M 3138.5391 353.29492 C 3138.0616 353.28714 3137.5712 353.40774 3137.0703 353.6582 C 3134.3986 354.99399 3134.0647 357.66646 3136.0684 361.67383 C 3138.072 365.68121 3137.4039 368.68582 3134.0645 370.68945 C 3130.7251 372.69308 3126.3841 371.69097 3121.041 367.68359 C 3115.6979 363.67622 3111.6909 361.67383 3109.0195 361.67383 C 3106.3479 361.67383 3104.3434 363.00822 3103.0078 365.67969 C 3101.672 368.35127 3102.3401 371.02384 3105.0117 373.69531 C 3107.6832 369.688 3112.6927 370.02236 3120.0391 374.69727 C 3127.3859 379.37271 3133.7306 379.7066 3139.0742 375.69922 C 3144.4181 371.69188 3146.0876 366.68288 3144.084 360.67188 C 3142.4561 355.78721 3140.6079 353.32864 3138.5391 353.29492 z M 562.27344 402.49805 C 564.44405 402.66491 565.19518 403.08216 564.52734 403.75 L 518.44336 411.76562 C 514.43601 411.76563 513.09976 410.42939 514.43555 407.75781 C 515.77128 405.08622 519.78013 403.75 526.45898 403.75 C 533.13779 403.75 541.48563 403.4184 551.50391 402.75 C 556.51309 402.41564 560.10282 402.33118 562.27344 402.49805 z M 1907.9609 402.49805 C 1910.1316 402.66491 1910.8827 403.08216 1910.2148 403.75 L 1864.1309 411.76562 C 1860.1236 411.76563 1858.7872 410.42939 1860.123 407.75781 C 1861.4587 405.08622 1865.4657 403.75 1872.1445 403.75 C 1878.8233 403.75 1887.1712 403.4184 1897.1895 402.75 C 1902.1986 402.41564 1905.7903 402.33118 1907.9609 402.49805 z M 3168.8789 402.49805 C 3171.0495 402.66491 3171.8007 403.08216 3171.1328 403.75 L 3125.0488 411.76562 C 3121.0415 411.76563 3119.7052 410.42939 3121.041 407.75781 C 3122.3767 405.08622 3126.3857 403.75 3133.0645 403.75 C 3139.7433 403.75 3148.0911 403.4184 3158.1094 402.75 C 3163.1185 402.41564 3166.7083 402.33118 3168.8789 402.49805 z M 566.53125 407.75781 C 567.867 407.75781 562.85794 410.76243 551.50391 416.77344 C 540.1498 422.78445 532.46876 426.45913 528.46094 427.79492 C 524.45356 429.1306 521.44894 429.1306 519.44531 427.79492 C 517.4419 426.45902 517.7758 424.45468 520.44727 421.7832 L 566.53125 407.75781 z M 1912.2188 407.75781 C 1913.5545 407.75781 1908.5454 410.76243 1897.1914 416.77344 C 1885.8373 422.78445 1878.1562 426.45913 1874.1484 427.79492 C 1870.141 429.1306 1867.1346 429.1306 1865.1309 427.79492 C 1863.1275 426.45902 1863.4613 424.45468 1866.1328 421.7832 L 1912.2188 407.75781 z M 3173.1367 407.75781 C 3174.4725 407.75781 3169.4634 410.76243 3158.1094 416.77344 C 3146.7553 422.78445 3139.0742 426.45913 3135.0664 427.79492 C 3131.059 429.1306 3128.0545 429.1306 3126.0508 427.79492 C 3124.0474 426.45902 3124.3812 424.45468 3127.0527 421.7832 L 3173.1367 407.75781 z M 665.67188 581.10742 L 955.76562 581.10742 C 955.82997 621.47008 941.96289 680.56728 914.16602 758.39844 C 857.39569 917.35548 869.08408 1076.3126 949.23047 1235.2695 L 708.79102 1341.4629 C 714.13408 1259.9808 704.78413 1193.8589 680.74023 1143.0996 C 656.69626 1092.3402 630.64888 1042.9178 602.59766 994.83008 C 574.54645 946.7423 560.51953 882.6249 560.51953 802.47852 C 560.51953 703.63129 593.24634 631.50027 658.69922 586.08398 C 661.11966 584.47035 663.44395 582.8113 665.67188 581.10742 z M 2011.3555 581.10742 L 2301.4512 581.10742 C 2301.5155 621.47008 2287.6504 680.56728 2259.8535 758.39844 C 2203.0831 917.35548 2214.7696 1076.3126 2294.916 1235.2695 L 2054.4785 1341.4629 C 2059.8215 1259.9808 2050.4697 1193.8589 2026.4258 1143.0996 C 2002.3819 1092.3402 1976.3344 1042.9178 1948.2832 994.83008 C 1920.232 946.7423 1906.207 882.6249 1906.207 802.47852 C 1906.207 703.63129 1938.9338 631.50027 2004.3867 586.08398 C 2006.8064 584.47088 2009.1282 582.81072 2011.3555 581.10742 z M 3272.2754 581.10742 L 3562.3711 581.10742 C 3562.4354 621.47008 3548.5684 680.56728 3520.7715 758.39844 C 3464.0011 917.35548 3475.6896 1076.3126 3555.8359 1235.2695 L 3315.3965 1341.4629 C 3320.7396 1259.9808 3311.3896 1193.8589 3287.3457 1143.0996 C 3263.3018 1092.3402 3237.2543 1042.9178 3209.2031 994.83008 C 3181.1519 946.7423 3167.125 882.6249 3167.125 802.47852 C 3167.125 703.63129 3199.8518 631.50027 3265.3047 586.08398 C 3267.7243 584.47088 3270.0481 582.81072 3272.2754 581.10742 z M 1493.0352 627.11133 C 1500.9246 627.39309 1509.0025 629.41303 1517.2676 633.16992 C 1539.3076 643.1882 1545.3189 661.55408 1535.3008 688.26953 C 1525.2824 714.98499 1488.2148 747.04373 1424.0977 784.44531 C 1425.4334 702.96317 1435.7856 654.87509 1455.1543 640.18164 C 1467.2597 630.99821 1479.8861 626.64173 1493.0352 627.11133 z M 2838.7227 627.11133 C 2846.6121 627.39309 2854.69 629.41303 2862.9551 633.16992 C 2884.9951 643.1882 2891.0044 661.55408 2880.9863 688.26953 C 2870.9679 714.98499 2833.9003 747.04373 2769.7832 784.44531 C 2771.1189 702.96317 2781.4711 654.87509 2800.8398 640.18164 C 2812.9453 630.99821 2825.5736 626.64173 2838.7227 627.11133 z M 4099.6406 627.11133 C 4107.53 627.39309 4115.608 629.41303 4123.873 633.16992 C 4145.913 643.1882 4151.9244 661.55408 4141.9062 688.26953 C 4131.8878 714.98499 4094.8202 747.04373 4030.7031 784.44531 C 4032.0388 702.96317 4042.3911 654.87509 4061.7598 640.18164 C 4073.8652 630.99821 4086.4916 626.64173 4099.6406 627.11133 z M 977.28125 1289.3672 C 1036.0554 1388.2145 1010.676 1503.7586 901.14258 1636 C 833.01822 1678.7448 725.1537 1707.4648 577.55078 1722.1582 C 429.94785 1736.8517 304.05161 1789.6149 199.86133 1880.4473 C 258.63539 1741.5269 310.39615 1652.0302 355.14453 1611.957 C 399.89292 1571.8838 483.38032 1522.7936 605.60352 1464.6875 C 727.82673 1406.5814 851.71857 1348.1412 977.28125 1289.3672 z M 2322.9688 1289.3672 C 2381.7428 1388.2145 2356.3616 1503.7586 2246.8281 1636 C 2178.7038 1678.7448 2070.8412 1707.4648 1923.2383 1722.1582 C 1775.6354 1736.8517 1649.7391 1789.6149 1545.5488 1880.4473 C 1604.3229 1741.5269 1656.0836 1652.0302 1700.832 1611.957 C 1745.5804 1571.8838 1829.0659 1522.7936 1951.2891 1464.6875 C 2073.5123 1406.5814 2197.4061 1348.1412 2322.9688 1289.3672 z M 3583.8867 1289.3672 C 3642.6608 1388.2145 3617.2815 1503.7586 3507.748 1636 C 3439.6237 1678.7448 3331.7591 1707.4648 3184.1562 1722.1582 C 3036.5534 1736.8517 2910.6571 1789.6149 2806.4668 1880.4473 C 2865.2409 1741.5269 2917.0016 1652.0302 2961.75 1611.957 C 3006.4984 1571.8838 3089.9858 1522.7936 3212.209 1464.6875 C 3334.4322 1406.5814 3458.324 1348.1412 3583.8867 1289.3672 z " />
</svg>
