<?xml version="1.0" encoding="UTF-8" standalone="no"?>
<svg
   width="700"
   height="1000"
   version="1.1"
   id="svg1"
   sodipodi:docname="135DE.svg"
   inkscape:version="1.4.2 (f4327f4, 2025-05-13)"
   xmlns:inkscape="http://www.inkscape.org/namespaces/inkscape"
   xmlns:sodipodi="http://sodipodi.sourceforge.net/DTD/sodipodi-0.dtd"
   xmlns="http://www.w3.org/2000/svg"
   xmlns:svg="http://www.w3.org/2000/svg">
  <defs
     id="defs1" />
  <sodipodi:namedview
     id="namedview1"
     pagecolor="#ffffff"
     bordercolor="#666666"
     borderopacity="1.0"
     inkscape:showpageshadow="2"
     inkscape:pageopacity="0.0"
     inkscape:pagecheckerboard="0"
     inkscape:deskcolor="#d1d1d1"
     inkscape:zoom="0.35355339"
     inkscape:cx="-176.77669"
     inkscape:cy="304.05591"
     inkscape:window-width="1680"
     inkscape:window-height="998"
     inkscape:window-x="-8"
     inkscape:window-y="-8"
     inkscape:window-maximized="1"
     inkscape:current-layer="svg1"
     showguides="true">
    <sodipodi:guide
       position="0,1000"
       orientation="0,-1"
       id="guide2"
       inkscape:locked="false" />
  </sodipodi:namedview>
  <path
     id="path1"
     style="fill:#000000;stroke:none;stroke-width:0.999999"
     d="M 613.29566,0.51549999 C 602.86758,-2.2787159 599.02611,6.7021604 602.3014,17.411516 c 9.184,40.108432 -2.81355,62.088465 -13.64247,78.927327 -4.52613,-9.792954 -4.80139,-20.769369 -0.82733,-32.932272 3.97407,-12.162902 2.20281,-18.894994 -5.31425,-20.194161 -14.5842,30.412832 -17.70881,56.747707 -9.37156,79.00205 -21.81733,52.07017 -48.409,98.09689 -57.18431,130.8468 -66.99309,-2.7626 -106.01496,-6.04267 -117.06534,-9.84121 -11.05041,-3.79863 -25.72791,-5.69849 -44.03013,-5.69849 -18.30224,0 -27.10677,-13.12218 -26.41611,-39.36684 11.74104,-4.83458 23.30782,-13.81233 34.70355,-26.93469 11.39575,-13.12234 17.09545,-31.42442 17.09545,-54.90654 0,-23.482073 -10.53314,-39.021934 -31.59798,-46.619098 -21.06485,-7.597165 -44.02907,-9.668344 -68.89246,-6.215091 -24.86343,3.453252 -42.82097,22.444436 -53.87135,56.976919 -6.21585,8.28783 -13.46698,18.99422 -21.75479,32.11656 -4.14389,9.6691 -4.14389,15.02033 0,16.05631 4.1439,1.03596 7.5972,2.59133 10.3598,4.66329 -8.45597,5.07356 -3.75463,8.38398 0,9.32264 0.22896,0.60943 0.10602,0.93115 -1.03519,2.07235 -2.07198,2.07195 -1.72741,3.79863 1.03519,5.1799 2.76259,1.38132 4.14471,6.73451 4.14471,16.05829 0,9.32377 2.76221,14.33046 8.28744,15.02112 5.52519,0.69066 13.81191,0.69066 24.86233,0 6.90651,3.45325 7.94212,9.66879 3.10755,18.64724 -28.31665,-0.69062 -49.20772,2.07163 -62.67541,8.28744 -13.46767,6.21589 -58.87835,9.32461 -136.23116,9.32461 C 47.216743,224.47276 19.483541,178.6444 -2.1550272,127.24135 6.0034674,104.31989 2.7915919,77.651716 -11.792623,47.238881 c -7.517052,1.299167 -9.243975,8.196704 -5.180534,20.693168 4.063401,12.496475 3.741902,23.307949 -0.962939,32.433791 -11.765643,-18.295446 -23.214291,-40.982888 -12.641158,-79.197682 2.084317,-5.563567 1.5457,-10.243821 -1.617575,-14.0438277 -3.163237,-3.8000163 -7.901743,-4.1405715 -14.215404,-1.0187873 -10.252473,25.930489 -22.812699,67.124926 16.431668,125.371887 10.286486,103.69854 16.760706,121.21898 48.671657,176.49037 24.172771,8.97847 89.094378,13.12281 194.763838,12.43215 -0.69063,31.7699 3.45173,62.84957 12.43018,93.2382 8.97844,30.38861 17.95822,61.12179 26.93666,92.20103 -58.70523,54.56136 -98.07366,104.28964 -118.10251,149.1819 -20.02886,44.89225 -9.66894,75.28085 31.0794,91.16583 11.05041,4.14391 44.20128,-0.34692 99.45329,-13.46931 2.07194,11.74107 5.69848,23.65632 10.87838,35.74268 5.17986,12.08641 10.53305,42.81955 16.05828,92.20104 5.52519,49.38149 1.38086,77.69895 -12.43215,84.95074 -13.81301,7.25184 -29.35288,12.77631 -46.6191,16.57489 -17.26627,3.79859 -29.00629,8.63399 -35.22214,14.50451 -6.21584,5.87055 -7.42471,10.70395 -3.62613,14.50253 3.79856,3.79856 8.11421,6.7341 12.94877,8.80601 h 82.87839 c 6.90651,-0.69048 13.98634,-0.86277 21.23818,-0.51659 7.2518,0.34432 15.71179,0.51659 25.38092,0.51659 9.66907,0 14.50253,-9.66881 14.50253,-29.00702 -7.59712,-22.10079 -9.49509,-43.16515 -5.6965,-63.19398 3.79854,-20.02887 8.28745,-45.06628 13.46734,-75.10953 5.17987,-30.04329 -0.51786,-66.47419 -17.09347,-109.29451 27.62602,-4.83457 42.81934,2.24527 45.58194,21.23818 2.76259,18.99283 9.15139,36.43062 19.16582,52.3156 10.01443,15.88491 18.12988,23.82716 24.34573,23.82716 6.21584,0 10.36017,-6.90663 12.43215,-20.7196 2.07193,-13.81302 -0.34575,-27.45293 -7.25225,-40.92062 -6.90651,-13.46764 -8.80641,-31.76975 -5.69848,-54.90654 3.10792,-23.13682 0.17241,-38.5034 -8.80603,-46.10052 -8.97845,-7.59717 -19.16507,-9.15253 -30.56081,-4.66329 -11.39571,4.4892 -24.00007,7.42471 -37.81308,8.80603 l 22.79195,-93.23623 c 16.57564,-13.12235 18.12901,-36.95091 4.66132,-71.4834 -13.46768,-34.53252 -18.99215,-69.92782 -16.57489,-106.18696 2.41727,-36.25913 11.22375,-63.02121 26.41808,-80.28745 84.25931,4.14388 138.12997,1.72619 161.61208,-7.25225 29.65155,-51.35798 37.59471,-71.17364 49.74846,-177.10661 38.07059,-60.096147 26.63347,-97.893085 16.16513,-124.3695576 -1.7452,-0.8251349 -3.35853,-1.43678871 -4.83871,-1.83340241 z M 302.29013,74.097405 c 9.15112,0.517984 19.25211,2.159 30.30251,4.921595 22.10083,5.52519 33.15175,18.647321 33.15175,39.36684 0,20.02885 -7.25113,37.1221 -21.75479,51.28041 -14.50367,14.15834 -24.17251,17.78292 -29.00704,10.87642 -4.14391,-5.52519 -0.1728,-14.32974 11.91357,-26.41611 23.07653,-23.07652 12.7686,-58.731664 -30.56279,-37.81307 -6.90651,-7.59712 -23.13538,-13.12361 -48.68947,-16.576859 9.78605,-22.018509 32.62705,-26.885587 54.64626,-25.639226 z m -59.82616,35.999015 c 20.0289,2.07194 36.25777,7.25192 48.68948,15.5397 0,8.28782 3.45328,8.80561 10.35979,1.55377 13.94193,-14.63906 32.91034,-7.28603 22.79196,12.95074 -4.83457,9.6691 -11.05012,17.6113 -18.64725,23.82714 -7.59716,6.21585 -9.32381,12.60466 -5.1799,19.16583 4.14387,6.56118 6.90613,12.60348 8.28745,18.12867 2.07194,34.53249 14.84954,51.9722 38.33165,52.31757 3.76452,0.0553 7.36112,0.1403 10.78767,0.29972 14.04094,0.65324 33.5347,27.91798 17.27488,49.02862 -15.88658,20.62606 -25.41446,48.21238 -28.58113,82.75811 -3.79854,41.43897 1.72589,79.59852 16.57488,114.47638 14.84901,34.87785 3.80002,59.56873 -33.14977,74.07236 -36.9498,14.50368 -69.23834,34.70372 -96.86432,60.60306 -27.62603,25.89941 -33.84153,42.64808 -18.64724,50.24522 30.38862,-4.83454 60.95046,-6.73447 91.68441,-5.69848 30.73391,1.03596 56.63169,-2.41734 77.69653,-10.3598 21.0648,-7.94249 31.59798,1.20857 31.59798,27.45327 -0.69062,35.91381 2.4181,59.39779 9.32461,70.44821 6.90646,11.05038 7.59557,22.44587 2.07038,34.18694 -15.19429,-20.02886 -23.13649,-42.4753 -23.82714,-67.33869 -0.69066,-24.86343 -29.6972,-32.97887 -87.02114,-24.34572 -57.32399,8.63308 -95.31027,14.84866 -113.95778,18.64724 -18.64758,3.79861 -34.01413,-0.34574 -46.10053,-12.43215 -12.08636,-12.08637 -8.9776,-35.91296 9.32461,-71.48143 18.30225,-35.56848 54.73315,-78.90597 109.29451,-130.0141 -10.35976,-36.60444 -19.85534,-71.13741 -28.48846,-103.59799 -7.55809,-28.41844 -11.80825,-60.80899 -12.74962,-97.16798 -1.95558,-28.81081 6.42223,-54.58207 39.16572,-59.2642 2.76259,-33.15122 -4.83503,-48.86433 -22.79195,-47.13768 -17.95689,1.7266 -25.55258,-3.97112 -22.78998,-17.09348 9.6691,-5.52518 13.12239,-9.4963 10.3598,-11.91357 -2.7626,-2.41726 -8.28904,-3.97066 -16.57686,-4.66132 0.69066,-3.45325 -2.76264,-7.25304 -10.3598,-11.39696 6.9065,-16.57559 14.15959,-27.97109 21.75676,-34.18694 6.90646,-3.45325 14.15762,-3.45325 21.75479,0 7.59716,3.45326 15.19478,5.87094 22.79195,7.25225 v -5.1799 c -4.83457,0 -11.05008,-2.24444 -18.64724,-6.73367 -7.59713,-4.48924 -15.19479,-5.00702 -22.79195,-1.55377 2.07197,-4.83453 4.48969,-8.63437 7.25225,-11.39697 z m 72.42,13.56594 c -9.09163,0.18572 -14.38181,6.85847 -17.51346,11.81695 -4.14391,6.56121 -5.17949,10.87683 -3.10755,12.94876 -4.14391,2.07195 -6.56163,4.66292 -7.25225,7.77084 -0.69066,3.10793 0.86278,5.52365 4.66132,7.25028 3.79862,1.72661 8.97857,-0.68911 15.53969,-7.25028 6.56118,-6.56117 10.8768,-12.43218 12.94877,-17.61205 1.32809,-3.32022 5.3192,-15.14076 -5.27652,-14.9245 z m -79.67225,7.15366 -7.25226,6.21706 v 5.1799 h 4.14471 c 9.6691,4.1439 20.02902,4.1439 31.0794,0 l 11.39499,2.07236 v -6.21706 l -10.3598,-1.0352 c -6.86337,-5.57646 -18.10245,-12.57805 -29.00704,-6.21706 z m 78.46158,-0.61914 c 4.98057,0.0908 1.52045,9.68457 -3.35403,15.64223 -3.10792,3.79858 -6.04343,6.38756 -8.80603,7.76886 -2.76259,1.38129 -2.76259,0.17247 0,-3.62612 2.7626,-3.79855 2.7626,-5.1787 0,-4.14274 -2.76259,1.03598 -3.45166,-0.17288 -2.07038,-3.62613 1.50253,-3.75629 7.20037,-12.14423 14.23044,-12.0161 z m -72.24649,2.6915 c -2.07194,2.07194 -2.07194,4.48963 0,7.25225 -3.45326,-1.38132 -5.52443,-2.41689 -6.21509,-3.10755 0.69066,-1.38129 2.76183,-2.76339 6.21509,-4.1447 z m 9.3246,1.03716 8.28745,5.1799 c -3.45325,0.69066 -6.90659,1.03519 -10.3598,1.03519 2.76255,-1.38132 3.45362,-3.45249 2.07235,-6.21509 z m 43.51155,20.7196 c 2.76259,2.07194 3.10713,3.79859 1.03519,5.1799 -2.07194,1.38128 -3.45406,1.20806 -4.1447,-0.51859 -0.69067,-1.72661 0.34691,-3.28003 3.10951,-4.66131 z m -74.86897,22.15901 c 0.53567,-0.0172 1.14558,0.0164 1.8318,0.11436 2.41726,0.34544 5.37508,0.55091 8.82834,1.24146 1.3686,0.2737 4.10239,0.65639 4.12023,1.34795 h -16.5749 c -2.11075,0 -1.95535,-2.58288 1.79434,-2.70332 z m 13.74537,3.73852 c -2.41102,3.97397 -7.31376,4.26502 -11.39499,5.1799 -2.84006,0.79534 -5.0547,-0.1252 -2.07235,-3.10755 z m 122.24523,399.88745 -20.7196,81.84124 c -13.12235,0.69051 -30.38881,0.001 -51.79899,-2.07038 l 6.21706,-42.47636 c 33.15122,-18.64755 55.25112,-31.07865 66.30153,-37.2945 z m -93.23819,56.97891 -1.03519,23.82714 -31.07939,4.14274 z m 60.08644,88.05829 c 3.45326,12.43174 8.6332,27.45182 15.5397,45.06334 6.90651,17.6116 3.45322,75.10885 -10.3598,172.49047 6.21588,13.81302 6.21588,26.93515 0,39.36684 -27.62598,1.38139 -62.15895,2.07235 -103.59799,2.07235 v -2.07235 c 26.24471,-5.52518 48.17332,-11.74074 65.78492,-18.64725 17.6116,-6.9065 24.3469,-38.15749 20.20299,-93.75479 -4.14391,-55.59733 -9.32385,-90.82138 -15.5397,-105.67035 -6.21585,-14.84898 -10.01564,-25.72666 -11.39696,-32.63317 z"
     sodipodi:nodetypes="sccscccsscssssccsccssssccccccccccccccscsccsssssscccscsscssssssssccssccccssssscsccsccsssscssssssscsscscssssscsccscscccsccsccsscssssscccccccccssssssscccccccccsscccscssccccccccccccccsccccsssccs" />
</svg>
