<?xml version="1.0" encoding="UTF-8" standalone="no"?>
<svg
   width="1100"
   height="1000"
   id="svg2214"
   sodipodi:version="0.32"
   inkscape:version="1.4.2 (f4327f4, 2025-05-13)"
   sodipodi:docname="A241.svg"
   inkscape:output_extension="org.inkscape.output.svg.inkscape"
   sodipodi:modified="true"
   version="1.0"
   xmlns:inkscape="http://www.inkscape.org/namespaces/inkscape"
   xmlns:sodipodi="http://sodipodi.sourceforge.net/DTD/sodipodi-0.dtd"
   xmlns="http://www.w3.org/2000/svg"
   xmlns:svg="http://www.w3.org/2000/svg"
   xmlns:rdf="http://www.w3.org/1999/02/22-rdf-syntax-ns#"
   xmlns:cc="http://creativecommons.org/ns#"
   xmlns:dc="http://purl.org/dc/elements/1.1/">
  <metadata
     id="metadata2221">
    <rdf:RDF>
      <cc:Work
         rdf:about="">
        <dc:format>image/svg+xml</dc:format>
        <dc:type
           rdf:resource="http://purl.org/dc/dcmitype/StillImage" />
      </cc:Work>
    </rdf:RDF>
  </metadata>
  <defs
     id="defs2219" />
  <sodipodi:namedview
     inkscape:window-height="998"
     inkscape:window-width="1680"
     inkscape:pageshadow="2"
     inkscape:pageopacity="0.0"
     guidetolerance="10.0"
     gridtolerance="10.0"
     objecttolerance="10.0"
     borderopacity="1.0"
     bordercolor="#666666"
     pagecolor="#ffffff"
     id="base"
     inkscape:showpageshadow="2"
     inkscape:pagecheckerboard="0"
     inkscape:deskcolor="#d1d1d1"
     inkscape:zoom="0.755"
     inkscape:cx="860.2649"
     inkscape:cy="69.536424"
     inkscape:window-x="-8"
     inkscape:window-y="-8"
     inkscape:window-maximized="1"
     inkscape:current-layer="svg2214" />
  <path
     style="fill:#000000;stroke:none;stroke-width:0.999999"
     d="M 703.15343,0.02089056 C 630.34569,-1.4067152 620.78207,48.479351 616.19872,73.062845 c -6.48941,9.085139 -14.37978,20.946445 -20.86913,36.520975 -3.89335,9.73407 -2.47925,16.09309 1.73909,17.39094 4.21779,1.2979 7.18989,3.2705 10.43457,5.21728 -3.24446,2.59579 -4.45153,5.0096 -3.47819,6.95638 0.97334,1.94684 2.62172,1.7391 5.21728,1.7391 -2.59556,3.89362 -2.27112,7.07312 0,8.69547 2.27112,1.62233 4.24395,6.77443 5.21729,13.91275 0.97333,7.13832 3.17934,9.7856 8.69547,10.43456 5.51612,0.64895 15.05448,0.20758 26.08641,-1.73909 l 1.73909,17.39094 c -37.16514,3.14957 -63.62263,16.06012 -79.99833,39.99917 L 33.602186,135.67023 C 5.544281,147.24967 -5.1454603,163.1359 2.2984914,184.36487 c 8.0165116,23.80216 20.7741776,32.51944 36.5209766,26.08641 15.746765,-6.43299 23.774715,-16.05526 24.347319,-29.5646 l 125.214773,386.07887 6.95638,22.60823 452.16447,-184.34396 c 1.73353,16.7108 2.55272,34.34642 3.47819,53.91192 L 539.67858,885.21978 c 44.12774,0 71.12088,0.43964 78.25923,1.73909 l -12.17366,53.91192 c 0,11.68093 -41.94299,21.56972 -126.95387,31.3037 -7.13831,5.84051 -11.52471,14.84674 -12.17366,27.8255 h 151.30119 c 18.81923,-0.64889 27.82545,-8.77277 27.82551,-24.34732 l -3.47819,-19.13003 27.82551,-67.82467 c 26.60647,0 71.61222,3.73752 133.91024,12.17366 l 5.21729,29.5646 c 0,15.57454 -11.09565,26.43673 -34.78189,31.30369 -23.68623,4.86724 -54.74128,9.37024 -90.43289,13.91275 -3.89334,7.78719 -5.21728,15.91102 -5.21728,24.34732 h 168.69213 c 18.17022,-2.59556 24.08804,-13.25012 15.65184,-33.04279 -8.43619,-19.79256 -11.05768,-44.0475 -5.21728,-71.30286 L 807.49907,537.40098 c 15.5745,-47.37252 11.39583,-87.99183 -13.91275,-121.73659 -3.89334,-51.91505 -4.98355,-92.5344 -1.73909,-121.73659 3.24501,-29.20224 -0.60938,-53.57383 -13.91276,-73.04195 -13.3032,-19.46814 -29.43415,-32.21188 -46.95554,-39.99917 l -3.47819,-26.08641 C 764.49025,136.62999 782.9183,107.63849 779.67357,66.106468 775.31094,13.754457 737.67164,0.69772024 703.15343,0.02089056 Z M 692.71886,17.411832 c 37.54601,0.89033 61.31819,7.736034 66.08558,50.43373 1.94667,22.063885 -3.76312,40.608688 -17.39094,53.911918 -13.62771,13.30322 -21.54385,16.92396 -26.08642,10.43456 -5.19168,-5.84042 -2.33678,-17.02705 8.69547,-31.30369 20.52896,-26.566927 7.16164,-63.426227 -34.78188,-38.26007 -7.7873,-6.489392 -23.38606,-11.317005 -48.69463,-13.912754 3.59732,-11.3053 12.93691,-30.956499 52.17282,-31.303694 z m -59.1292,43.477354 c 21.41496,0.648946 38.54512,4.386413 52.17282,12.173659 0,9.085139 4.26955,9.850824 10.43457,1.739094 0.30608,-0.405696 1.42856,0.37787 1.73909,0 -0.88714,0.921199 -11.74095,16.22836 -6.95637,22.608223 -11.65901,7.773158 -6.64864,15.345458 -1.7391,17.390938 9.01895,3.75815 23.25354,-21.538237 26.08641,-29.564596 3.28866,-9.31849 1.44273,-20.40279 -10.43456,-15.651848 12.56696,-10.679051 21.82017,2.207499 15.65185,17.390942 -4.21779,10.382993 -10.25259,20.038222 -17.39094,27.825502 -7.1383,7.78725 -8.02076,14.37974 -3.47819,20.86913 4.54279,6.4894 6.74863,12.19945 8.69547,17.39094 l 3.47819,29.5646 c -8.4362,20.76603 -21.38769,23.17984 -38.26007,6.95638 -2.59557,-22.71285 -12.25096,-32.36808 -27.82551,-27.8255 -15.57449,4.54256 -22.60822,-1.81645 -22.60822,-17.39095 l 15.65184,-1.73909 -1.73909,-6.95638 -17.39094,3.47819 v -8.69547 c -1.6187,-4.37251 -7.71586,-8.70369 -12.17366,-10.43456 6.48941,-18.81921 12.64068,-32.211923 19.13003,-39.999169 6.48941,-4.542569 13.08189,-5.308272 20.86913,-1.739094 7.78731,3.569178 14.82098,6.307447 22.60823,6.956377 v -5.217283 c -4.5428,0 -9.27925,-2.738308 -17.39094,-6.956376 -8.11175,-4.218124 -16.56008,-3.893623 -24.34732,0 2.59556,-5.191516 3.9195,-8.928944 5.21728,-12.173659 z M 613.2271,122.71327 c 1.94667,-1.29789 4.82258,-2.1904 7.0937,0.0809 4.73532,4.73568 9.50628,2.198 8.69547,-3.47818 -1.00979,-7.10551 -3.85566,-1.8875 -3.47819,0 1.73905,5.77593 -2.8473,2.35058 -5.21728,0 -2.82957,-2.82974 -9.47578,-3.74955 -7.0937,3.3973 z m 98.6218,-42.694049 c -0.06,0.84448 -1.19862,14.131982 -13.91276,22.608219 0.28382,-0.77872 -0.77855,-2.1154 0,-3.478183 2.59557,-4.542514 1.18092,-6.515137 -1.73909,-5.217283 -2.92001,1.297893 -3.36132,0.415713 -1.7391,-3.478188 1.62223,-3.893623 4.36082,-8.280053 6.95638,-12.173659 7.05123,-3.845853 10.62723,-0.963107 10.43457,1.739094 z m -76.52015,0 c -2.23049,0.527015 -5.0097,2.018073 -6.95637,3.478188 l -5.21728,6.956377 v 5.217282 h 3.47818 c 9.73409,3.893623 20.27178,3.452422 31.3037,-1.739094 h 12.17366 V 88.714692 H 659.67607 C 650.42865,81.900865 642.0209,78.437441 635.32875,80.019221 Z m 0,3.478188 c -1.94667,3.244677 -0.85646,7.18985 1.7391,10.434565 -3.24446,-1.297893 -6.74869,-2.829242 -8.69547,-3.478188 0.64889,-2.59573 3.06303,-5.009537 6.95637,-6.956377 z m 8.69548,1.739095 10.43456,5.217282 c -3.89334,1.297893 -7.18989,2.829242 -10.43456,3.478188 3.24445,-1.946839 2.59556,-5.450794 0,-8.69547 z m -603.465668,67.824666 556.510118,95.65018 20.86913,64.34648 c -9.4679,11.1313 -21.4755,24.08561 -33.04279,36.52098 L 551.85224,250.45045 44.03675,163.49574 Z m 43.477355,29.5646 33.042793,6.95638 116.5193,359.99248 -27.8255,10.43455 z m 52.172823,10.43457 33.04279,5.21728 8.69547,29.5646 c -0.52702,0.006 -1.03928,0.004 -1.73909,0 -5.84047,5.84043 -7.04735,11.43377 -3.47819,15.65185 4.761,2.29382 7.82496,3.53395 12.17366,5.21728 l 8.69547,22.60822 c -3.83936,-0.91687 -6.67814,0.0448 -8.69547,3.47819 4.28301,5.06174 9.00678,9.6038 13.91275,13.91276 l 78.25923,243.47317 -27.8255,10.43457 z m 594.77019,6.95638 c 32.44688,27.25541 45.95633,58.86841 41.73826,93.91108 -4.21779,35.04262 -4.10148,74.13059 1.73909,118.2584 l -104.34564,33.04279 c -0.37843,-17.55477 -1.82146,-32.68832 -3.47819,-48.69464 h 1.73909 l -3.47819,-10.43456 c -1.91829,-15.53244 -3.92395,-31.13561 -6.95637,-45.21645 4.1549,-4.43155 5.92177,-7.28748 10.43456,-12.17366 40.908,-44.29285 58.89931,-75.32368 52.17283,-93.91108 -13.29058,-18.13605 -27.61487,-18.07318 -41.73826,-1.7391 -14.12339,16.33411 -23.06718,27.59056 -27.82551,36.52098 -3.31068,4.71314 -8.3255,10.60475 -12.17366,15.65185 -5.83489,-14.19028 -11.29281,-28.09313 -19.13003,-39.99917 -0.42852,-0.65039 -1.30558,-1.09526 -1.7391,-1.73909 l -1.73909,-6.95638 c 12.83346,-14.28947 29.06363,-24.65919 48.69463,-27.8255 24.01069,12.97878 45.96846,10.12373 66.08558,-8.69547 z m -542.59737,1.73909 31.3037,5.21728 h 1.73909 l 13.91276,43.47736 c -9.83348,-9.00453 -21.326,-15.93309 -36.52098,-19.13004 z m 52.17283,8.69547 33.04279,5.21728 26.08641,78.25924 c -12.99733,-0.69386 -22.90648,-2.06349 -29.5646,-5.21728 -2.7274,-3.15564 -4.49271,-5.74365 -6.95638,-8.69547 z m 52.17282,8.69547 34.78188,5.21728 22.60823,69.56377 h -33.04279 z m 53.91192,10.43457 33.04279,5.21728 17.39094,55.65101 -29.5646,1.73909 z m 53.91192,8.69547 31.30369,5.21728 13.91275,41.73826 -10.43456,3.47819 -17.39094,1.73909 z m 50.43373,8.69547 33.04279,6.95637 3.47818,12.17366 -26.08641,12.17366 z m 53.91192,10.43456 h 3.47818 l -3.47818,1.7391 z m -297.3851,1.7391 c 10.52345,5.14432 19.784,11.36949 27.82551,26.08641 -4.9589,3.30589 -11.23209,0.59925 -20.86913,-5.21728 z m 342.60154,41.73826 20.86913,64.34648 c -1.22543,1.27813 -2.23216,2.18742 -3.47819,3.47819 -7.23991,0.90616 -17.59931,3.65265 -26.08641,5.21728 l -19.13003,-62.60739 z m -326.94969,5.21728 c 10.02792,5.45964 22.9174,8.93318 34.78188,12.17366 l 62.60739,194.77854 -27.82551,12.17366 z m 281.73325,10.43456 20.86912,59.1292 -31.30369,6.95638 -19.13003,-59.1292 z m -227.82134,5.21728 c 11.63116,2.26161 22.13255,5.2859 33.04279,6.95638 l 20.86913,62.60739 c -7.93642,-3.85896 -14.75878,-12.26909 -24.34732,-10.43457 -4.52526,1.14436 -6.95002,4.32976 -6.95637,10.43457 z m 182.60489,6.95638 19.13003,59.1292 -27.8255,6.95638 -19.13004,-60.8683 z m -130.43206,3.47819 c 11.92856,1.5117 22.04551,0.99109 33.04279,1.73909 l 13.91275,45.21645 c -7.51214,-0.75084 -14.08284,-0.27881 -22.60822,0 -1.90583,6.89071 2.64704,10.60987 15.65184,12.17366 4.53378,0.54538 8.34825,2.13744 12.17366,3.47819 l 5.21728,12.17366 c -11.79534,0.65612 -23.84648,1.30144 -34.78188,-3.47819 z m 52.17282,3.47819 h 29.5646 l 20.86913,64.34648 c -9.27142,-7.96133 -21.15606,-12.11629 -34.78188,-15.65185 z m 253.90774,29.5646 5.21729,19.13003 -39.99917,15.65185 v -1.73909 c 8.08403,-6.55909 19.81644,-17.74299 34.78188,-33.04279 z m -333.90607,29.5646 c 12.45648,11.88816 25.62056,20.3166 38.26007,26.08641 l 24.34732,74.78105 -26.08641,10.43456 z m 271.29869,15.65184 -17.39095,6.95638 -1.73909,-3.47819 c 6.47194,-1.31514 13.10259,-2.09069 19.13004,-3.47819 z m -34.78189,5.21729 3.47819,8.69547 -29.5646,10.43456 -3.47819,-13.91275 z m -46.95554,8.69547 5.21728,17.39094 -26.08641,13.91275 -8.69547,-27.8255 z m -130.43206,3.47819 c 9.61024,1.91389 21.53248,4.81025 34.78189,5.21728 l 13.91275,45.21645 -29.5646,10.43456 z m 81.73743,3.47818 10.43456,29.5646 -27.8255,10.43457 -12.17366,-38.26007 c 9.69086,-0.11743 18.28379,-0.96338 29.5646,-1.7391 z m 335.64516,1.7391 c 19.46812,21.41495 22.32313,55.88301 8.69547,102.60655 L 830.1073,878.2634 C 763.91559,867.23142 677.8493,861.52141 572.72137,860.87246 L 673.58883,466.09812 Z"
     id="path2216"
     sodipodi:nodetypes="sccccscssscccccsccccccccccccccccccccsccccscccsscsccccscccccccccsccccscccccccsccscccsccsccscssccsccccccccccccccccccccccccccccccccccccsccccccccccccscscccccccccccccccccccccccccccccccccccccccccccccccccccccccccccccccccccccccccccccccccccccccccccccccccccccccccccccccccccccccccccccccccc" />
</svg>
