<?xml version="1.0" encoding="UTF-8" standalone="no"?>
<svg
   width="600"
   height="1000"
   version="1.1"
   id="svg1"
   sodipodi:docname="1362A.svg"
   inkscape:version="1.4.2 (f4327f4, 2025-05-13)"
   xmlns:inkscape="http://www.inkscape.org/namespaces/inkscape"
   xmlns:sodipodi="http://sodipodi.sourceforge.net/DTD/sodipodi-0.dtd"
   xmlns="http://www.w3.org/2000/svg"
   xmlns:svg="http://www.w3.org/2000/svg">
  <defs
     id="defs1" />
  <sodipodi:namedview
     id="namedview1"
     pagecolor="#ffffff"
     bordercolor="#666666"
     borderopacity="1.0"
     inkscape:showpageshadow="2"
     inkscape:pageopacity="0.0"
     inkscape:pagecheckerboard="0"
     inkscape:deskcolor="#d1d1d1"
     showguides="true"
     inkscape:zoom="0.26693281"
     inkscape:cx="548.82725"
     inkscape:cy="747.37909"
     inkscape:window-width="1680"
     inkscape:window-height="998"
     inkscape:window-x="-8"
     inkscape:window-y="-8"
     inkscape:window-maximized="1"
     inkscape:current-layer="svg1">
    <sodipodi:guide
       position="405.67361,304.31017"
       orientation="-0.10588876,0.99437798"
       id="guide1"
       inkscape:locked="false" />
  </sodipodi:namedview>
  <path
     style="fill:#000000;stroke:none;stroke-width:0.999998"
     d="m 352.48632,265.93652 c -21.98406,11.34661 -34.92629,14.18326 -38.8267,8.50993 -3.90041,-5.67329 -3.72311,-10.99201 0.5319,-15.95617 4.25497,-4.96417 17.0199,-2.48209 38.2948,7.44624 z M 415.2474,288.27515 451.41472,196.793 H 298.23529 c 3.54584,13.47413 7.09166,26.59366 10.63747,39.35859 24.11158,-5.67332 45.03192,-3.9004 62.76102,5.31877 19.14742,-8.50997 32.44425,-7.26895 39.8905,3.72306 7.44621,10.99205 5.49598,25.35263 -5.85067,43.08173 z m -93.60969,75.52597 c 9.92829,-0.70916 13.82869,-3.36852 11.70121,-7.97809 -2.12748,-4.60956 -6.20516,-6.02788 -12.23305,-4.25496 -6.02793,1.77288 -10.99207,1.59558 -14.89244,-0.5319 -3.90041,-2.12749 -6.20519,-8.50995 -6.91435,-19.1474 -2.83668,0 -4.96418,-1.06376 -6.3825,-3.19128 l -38.29486,5.31876 c 5.67333,19.14742 4.96417,30.84861 -2.12748,35.10358 -7.09165,4.255 -19.50202,4.6096 -37.23112,1.06379 -10.63745,47.51397 -24.46614,90.0638 -41.48608,127.64947 16.31077,-17.01989 32.62153,-36.34459 48.93227,-57.9741 16.31078,-21.6295 28.72117,-39.5359 37.23117,-53.71919 8.50993,-14.18329 18.43823,-21.27494 29.78488,-21.27494 z m -40.42234,78.7172 c -24.82075,36.87651 -47.51399,63.29288 -68.07973,79.2491 -20.56578,15.95617 -37.40844,26.41634 -50.52797,31.38051 -13.11953,4.96413 -21.4522,2.30476 -24.998,-7.97809 -3.54585,-10.28289 -4.43231,-27.48013 -2.65939,-51.59171 1.77293,-24.11159 14.71518,-57.79688 38.82676,-101.05588 17.01994,-39.71316 31.91238,-62.76098 44.67731,-69.14347 12.76497,-6.38249 36.16739,-8.15541 70.20726,-5.31876 l -1.06379,-9.57368 c -12.05577,-4.25496 -15.247,-11.3466 -9.57368,-21.27493 l 17.01992,-36.16738 v -1.06374 c -7.09165,-25.52991 -13.82869,-48.22315 -20.21114,-68.07973 h 109.56581 c -62.40642,-43.259 -93.78693,-79.95824 -94.14153,-110.097709 -0.35456,-30.139469 7.09167,-49.464188 22.33868,-57.974157 15.24701,-8.5099684 28.89843,-9.2191294 40.95424,-2.127483 12.05577,7.091647 18.26096,18.260978 18.61556,33.507994 0.35456,15.247016 -8.33271,22.870524 -26.06181,22.870524 -10.63745,0 -17.37451,-3.900404 -20.2112,-11.701212 -2.83664,-7.800807 -1.77288,-13.119533 3.19128,-15.956176 3.54581,-0.709161 7.80079,2.304782 12.76496,9.041829 4.96413,6.737085 9.21911,6.737085 12.76495,0 3.54581,-6.737047 2.12748,-13.296814 -4.25497,-19.679299 -6.38252,-6.382449 -14.89249,-6.91431 -25.5299,-1.595585 -10.63749,5.318726 -15.95623,17.019919 -15.95623,35.103578 0,18.083697 13.11953,39.535916 39.3586,64.356666 26.23906,24.82074 53.89645,42.19526 82.97216,52.12355 C 460.27927,152.11569 490.77334,92.191333 522.68573,0 h 25.52985 L 425.88481,308.48634 h -9.57373 c -7.09165,19.85659 -9.57371,34.74902 -7.44619,44.67731 2.12749,9.92829 14.18326,14.89244 36.16732,14.89244 11.34665,0 27.30285,14.53787 47.86859,43.61362 20.56574,29.07571 38.29486,60.98808 53.18735,95.73711 0.70912,48.93233 -4.96421,86.8726 -17.01998,113.82083 4.25501,42.54981 2.12753,72.3347 -6.38244,89.35467 -8.51001,17.0199 -19.14748,22.69321 -31.91241,17.01992 14.18329,-20.56574 18.79286,-40.7769 13.82869,-60.63348 -9.92829,2.83661 -15.95617,9.92823 -18.08366,21.27488 -2.12752,11.34665 -6.73708,14.89248 -13.82869,10.63747 -1.41833,-23.40239 8.15538,-46.09565 28.72113,-68.07978 -3.54585,-44.67729 -1.77295,-82.61755 5.3187,-113.82078 l -55.31477,-73.39849 c -19.14742,42.54984 -28.72113,75.17137 -28.72113,97.8646 17.72909,41.84072 26.41636,81.55392 26.0618,119.13959 -0.35475,37.58568 -22.17562,53.29422 -65.90213,57.95054 l -175.03638,18.63918 c -6.38245,0 -9.57368,15.24703 -9.57368,45.7411 0,30.49403 -9.57373,61.87454 -28.72118,94.14153 -19.14742,32.26692 -23.93427,58.50599 -14.36054,78.7172 9.57369,20.21111 9.75088,33.15334 0.53157,38.8267 -9.21895,5.6733 -18.96985,6.5598 -29.2527,2.65938 -10.28289,-3.90044 -23.22514,-3.014 -38.826753,2.65933 H 21.661351 c -4.964163,0.70919 -11.169349,-3.36849 -18.6155579,-12.23305 -7.4462084,-8.86457 -1.2410224,-13.65143 18.6155579,-14.3606 41.13152,-5.67329 68.079746,-20.743 80.844679,-45.20915 12.76497,-24.46618 20.38848,-56.55587 22.87053,-96.26907 2.48208,-39.71316 11.16935,-87.22715 26.0618,-142.54196 34.74903,-31.91239 85.09968,-53.54189 151.05195,-64.8885 4.25497,-34.74903 6.20515,-64.00204 5.85055,-87.75903 -0.35457,-23.75702 -9.3964,-55.13753 -27.12549,-94.14153 z m 96.80086,-134.03198 c 22.69326,-38.29487 26.94824,-57.44231 12.76495,-57.44231 -8.50997,0 -12.76495,4.60956 -12.76495,13.82869 h -10.63742 c 0,-10.63745 -19.14744,-15.60159 -57.44231,-14.89243 l -21.27489,45.7411 c 8.50993,1.41832 11.87846,5.31872 10.10558,11.70121 -1.77293,6.38249 3.01392,8.15539 14.36053,5.31871 l 2.12754,9.57373 c -4.96417,4.96413 -3.90043,10.63743 3.19122,17.01992 l 35.10364,-3.19123 -1.0638,44.67731 H 316.319 l -23.40242,31.91241 c 23.40242,57.44229 35.10363,98.57379 35.10363,123.3945 0,24.82075 -1.24104,48.93233 -3.72312,72.33475 -2.48208,23.40243 -9.04185,35.10364 -19.6793,35.10364 -49.64149,8.50997 -89.35467,23.04782 -119.13954,43.61356 51.81062,6.61412 83.70128,13.87082 95.672,21.7701 l 124.52336,-13.26017 c 13.47413,-6.38245 21.62954,-14.53783 24.46622,-24.46616 0,-44.67729 -8.50997,-87.93629 -25.5299,-129.77701 2.12748,-28.36651 11.70119,-64.88843 28.72113,-109.56576 7.80077,-10.63749 8.15535,-21.80683 1.06374,-33.50804 -7.09165,-11.70121 -18.43828,-19.6793 -34.03989,-23.93427 -15.60162,-4.255 -16.31078,-26.23908 -2.12749,-65.95225 z"
     id="path1"
     sodipodi:nodetypes="cssccccccscccssscccsccsscccsssscscccccccsssssscsscssscccccsssccsccsccccccscsssssccscssccsccsccccscccccccsscccccccsscc" />
</svg>
