<?xml version="1.0" encoding="UTF-8" standalone="no"?>
<svg
   width="800"
   height="1000"
   version="1.1"
   id="svg1"
   sodipodi:docname="13620.svg"
   inkscape:version="1.4.2 (f4327f4, 2025-05-13)"
   xmlns:inkscape="http://www.inkscape.org/namespaces/inkscape"
   xmlns:sodipodi="http://sodipodi.sourceforge.net/DTD/sodipodi-0.dtd"
   xmlns="http://www.w3.org/2000/svg"
   xmlns:svg="http://www.w3.org/2000/svg">
  <defs
     id="defs1" />
  <sodipodi:namedview
     id="namedview1"
     pagecolor="#ffffff"
     bordercolor="#000000"
     borderopacity="0.25"
     inkscape:showpageshadow="2"
     inkscape:pageopacity="0.0"
     inkscape:pagecheckerboard="0"
     inkscape:deskcolor="#d1d1d1"
     inkscape:zoom="0.5317443"
     inkscape:cx="382.70274"
     inkscape:cy="501.18074"
     inkscape:window-width="1680"
     inkscape:window-height="998"
     inkscape:window-x="-8"
     inkscape:window-y="-8"
     inkscape:window-maximized="1"
     inkscape:current-layer="svg1" />
  <path
     id="path1"
     style="fill:#000000;stroke:none;stroke-width:55.5942"
     d="M 602.38086 1.8808594 C 548.36983 1.8808594 514.83086 11.680486 501.76367 31.28125 C 488.69652 50.882051 482.59957 64.603061 483.4707 72.443359 C 483.4707 83.768262 475.62986 102.49844 459.94922 128.63281 C 452.98008 140.82884 456.89951 147.36129 471.70898 148.23242 L 471.70898 159.99414 C 469.96667 165.22099 474.3236 168.70495 484.77734 170.44727 C 478.67933 179.1587 479.5503 183.94915 487.39062 184.82031 C 487.39063 197.01634 490.4391 204.42171 496.53711 207.03516 C 502.63512 209.6486 509.8218 209.6486 518.09766 207.03516 C 526.37356 204.42171 531.60141 205.94692 533.7793 211.60938 C 535.95715 217.27182 533.99646 220.32031 527.89844 220.75586 C 521.80043 221.19147 510.0401 221.19147 492.61719 220.75586 C 475.19427 220.32031 461.69196 231.20962 452.10938 253.42383 C 442.52675 275.63808 427.93475 294.80377 408.33398 310.91992 C 388.73322 327.03612 367.17133 347.72506 343.65039 372.98828 C 309.67569 387.79778 256.10008 397.81612 182.92383 403.04297 C 165.60702 401.59989 148.29142 400.90411 130.97461 400.95508 L 125.91992 346.22461 C 144.51894 331.5532 153.82735 316.08769 153.84375 299.82812 C 173.49144 298.25513 182.71972 290.04599 181.53125 275.20117 C 180.06313 256.86337 168.07383 252.55009 145.5625 262.26172 L 137.83398 256.28906 L 139.69336 238.3457 L 146.89844 237.76758 C 150.18221 245.85355 155.09916 249.63566 161.64844 249.11133 C 166.01447 248.76178 168.56402 242.18453 169.29688 229.38281 C 158.04908 220.61632 148.49573 216.54854 140.63672 217.17773 L 143.22852 191.92383 L 153.05078 191.13672 L 166.49219 202.58398 C 176.09777 201.81496 180.47956 196.19168 179.64062 185.71289 C 169.52793 174.65843 157.92278 169.65445 144.82422 170.70312 L 146.26367 147.51953 L 155.43359 146.78516 L 168.58398 162.86914 C 175.60476 162.74655 180.58208 159.05256 183.51562 151.78711 C 181.99602 149.27236 177.03586 142.19933 168.63477 130.56836 C 165.159 125.57365 158.18191 123.497 147.70312 124.33594 C 145.32617 94.64614 127.54592 81.128558 94.363281 83.785156 C 61.180504 86.441766 45.777334 102.61489 48.154297 132.30469 L 41.605469 132.83008 L 29.710938 115.98438 C 21.816817 116.17706 16.839633 119.87283 14.779297 127.06836 C 16.298911 129.58311 21.094639 137.32693 29.164062 150.30273 C 31.696718 154.49414 39.730692 156.04844 53.265625 154.96484 L 59.029297 177.57227 L 48.550781 178.41211 L 35.164062 167.61914 C 25.121954 168.42311 20.538217 174.28374 21.412109 185.19922 C 31.454891 195.38046 45.207437 199.77125 62.671875 198.37305 L 69.25 222.89258 L 60.734375 223.57422 C 57.852168 215.01662 53.574359 210.96551 47.898438 211.41992 C 43.095568 211.80444 40.075072 217.97797 38.835938 229.94141 C 50.188444 240.0178 61.97597 244.56664 74.201172 243.58789 L 77.582031 261.11328 L 72.054688 266.16992 C 47.95317 261.50839 36.637345 268.34579 38.105469 286.68359 C 39.293943 301.52841 50.147073 308.13118 70.667969 306.48828 C 73.271201 322.53811 84.485614 336.35974 104.30859 347.95508 L 108.1543 401.45508 C 91.26298 402.14497 74.371786 403.54483 57.480469 405.65625 C 57.480469 415.23887 62.706413 420.03125 73.160156 420.03125 C 82.742739 456.61933 93.655374 466.2918 101.9082 470.99219 C 105.81701 471.8448 109.59022 472.27963 113.25 472.3418 L 115.89648 509.16992 L 140.7832 507.17773 L 137.10547 467.34766 C 150.90962 461.31076 163.48309 450.44769 176.39062 438.32422 C 244.34001 453.13373 294.21297 457.05511 326.00977 450.08594 C 357.8066 443.11676 383.50662 428.30605 403.10742 405.65625 C 422.70819 383.00648 445.13913 353.82247 470.40234 318.10547 C 492.18095 366.01849 503.07031 404.56856 503.07031 433.75195 C 503.07031 462.93533 500.45733 496.69107 495.23047 535.02148 C 414.21394 552.44439 352.36191 581.19294 309.67578 621.26562 C 292.25287 688.34386 281.79903 746.27445 278.31445 795.05859 C 274.82989 843.84274 265.46577 883.48059 250.2207 913.9707 C 234.97566 944.46081 202.08897 963.18906 151.5625 970.1582 C 127.17044 971.02939 119.33151 976.90956 128.04297 987.79883 C 136.7544 998.68814 144.59333 1003.2618 151.5625 1001.5195 L 231.27344 1001.5195 C 251.30981 995.42148 267.64376 994.55052 280.27539 998.90625 C 292.90698 1003.262 304.6673 1002.1742 315.55664 995.64062 C 326.44594 989.10709 326.22723 973.2086 314.90234 947.94531 C 303.57747 922.6821 309.45761 890.44954 332.54297 851.24805 C 355.62831 812.04648 367.17188 773.71513 367.17188 736.25586 C 367.17188 698.79661 371.52682 680.06836 380.23828 680.06836 C 398.53231 734.95052 415.73733 781.33758 431.85352 819.23242 C 447.96972 857.12727 455.15831 890.014 453.41602 917.89062 C 440.34883 950.12304 415.95523 966.23828 380.23828 966.23828 C 358.45963 966.23828 350.62074 972.11844 356.71875 983.87891 C 362.81681 995.63938 370.6557 1001.5195 380.23828 1001.5195 L 429.89453 1001.5195 C 465.61153 980.61202 494.79554 967.9807 517.44531 963.625 C 540.09508 959.26927 541.83704 942.28301 522.67188 912.66406 C 503.50666 883.04508 494.79482 845.80346 496.53711 800.93945 C 498.2794 756.07547 487.39007 719.70479 463.86914 691.82812 L 469.0957 680.06836 C 503.07041 664.38773 544.88575 656.54688 594.54102 656.54688 C 647.68101 656.54688 674.46881 642.39035 674.9043 614.07812 C 675.33986 585.7659 664.66731 527.61658 642.88867 439.63086 C 642.88867 411.75417 654.64895 371.24534 678.16992 318.10547 L 747.42773 409.57617 C 738.71631 447.90657 736.53689 494.51428 740.89258 549.39648 C 715.62921 575.53082 703.43334 603.40644 704.30469 633.02539 C 713.01626 637.38116 718.67968 632.59069 721.29297 618.65234 C 723.90638 604.71406 731.74532 596.00223 744.8125 592.51758 C 750.03939 616.90967 743.94241 641.73679 726.51953 667 C 742.20012 674.84031 755.26695 668.30788 765.7207 647.40039 C 776.17444 626.4929 779.22288 589.90353 774.86719 537.63477 C 789.67666 504.53126 796.21108 457.48999 794.46875 396.50977 C 776.17467 354.69481 754.61476 315.92794 729.78711 280.21094 C 704.95945 244.49398 685.57499 226.63672 671.63672 226.63672 C 643.76005 226.63672 628.9513 218.79586 627.20898 203.11523 C 625.46669 190.04804 629.38617 181.33617 638.96875 176.98047 C 690.36638 148.23266 710.40304 111.86199 699.07812 67.869141 C 687.75321 23.876285 655.52073 1.8808594 602.38086 1.8808594 z M 591.27344 21.480469 C 635.26629 21.480469 662.48961 33.459524 672.94336 57.416016 C 683.39725 81.372509 682.09063 102.93437 669.02344 122.09961 C 655.95625 141.26481 641.79973 153.89612 626.55469 159.99414 C 611.30962 166.09215 607.60889 165.22117 615.44922 157.38086 C 623.28952 149.54053 627.20898 137.7802 627.20898 122.09961 C 627.20898 106.41898 621.98108 98.578125 611.52734 98.578125 C 601.07363 98.578125 596.93742 94.875439 599.11523 87.470703 C 601.29311 80.065967 591.71027 72.225116 570.36719 63.949219 C 549.02414 55.673358 529.20425 53.714619 510.91016 58.070312 C 520.49277 33.678259 547.28058 21.480469 591.27344 21.480469 z M 508.70508 74.689453 C 521.28224 73.954415 535.08603 76.037291 550.11328 80.9375 C 570.14965 87.471075 579.29505 94.657713 577.55273 102.49805 C 575.81048 110.33834 580.60287 114.25781 591.92773 114.25781 C 603.25264 114.25781 609.13279 118.39598 609.56836 126.67188 C 610.00391 134.94774 605.43024 141.48211 595.84766 146.27344 C 586.26504 151.06473 588.00703 167.83425 601.07422 196.58203 C 602.81651 228.81443 610.00314 244.49418 622.63477 243.62305 C 635.2664 242.75188 645.93912 249.50304 654.65039 263.87695 C 663.36204 278.25086 662.92637 291.9719 653.34375 305.03906 C 631.56511 359.92125 620.67578 403.04307 620.67578 434.4043 C 637.22757 521.51889 645.50195 577.27197 645.50195 601.66406 C 642.88851 612.98893 632.87214 622.57182 615.44922 630.41211 C 532.69036 631.28327 485.64714 636.94664 474.32227 647.40039 C 474.32227 630.84848 433.37792 621.26563 351.49023 618.65234 C 388.94946 592.51796 438.17018 574.65875 499.15039 565.07617 C 518.31559 565.07617 528.11521 550.7029 528.55078 521.95508 C 528.98634 493.20729 529.20508 463.58777 529.20508 433.09766 C 529.20508 402.60755 514.39629 352.08037 484.77734 281.51758 C 490.00423 255.3832 499.14961 242.31641 512.2168 242.31641 L 556.64648 242.31641 L 556.64648 186.12695 L 510.91016 191.35547 C 503.94103 190.4843 500.02156 184.38542 499.15039 173.06055 L 514.83008 173.06055 L 514.83008 162.60742 L 492.61719 162.60742 C 488.26146 159.12284 484.77552 154.76595 482.16211 149.53906 C 489.13125 142.56989 485.6473 137.34394 471.70898 133.85938 C 485.6473 105.98271 493.92367 86.817024 496.53711 76.363281 C 500.45727 75.49213 504.51269 74.934466 508.70508 74.689453 z M 513.59375 86.394531 C 509.65488 86.513633 506.80076 87.526011 505.03125 89.431641 C 499.3688 95.529654 499.15006 102.06208 504.37695 109.03125 C 509.6038 116.00039 526.59206 112.51643 555.33984 98.578125 C 536.17464 90.193356 522.25925 86.132507 513.59375 86.394531 z M 101.83203 105.29883 C 114.47768 105.96854 121.90848 112.9431 124.125 126.22266 L 72.386719 130.36523 C 71.599807 115.04879 79.502359 106.72674 96.09375 105.39844 C 98.113111 105.23677 100.02551 105.20315 101.83203 105.29883 z M 125.96094 149.14453 L 123.86719 172.38281 L 79.332031 175.94727 L 74.222656 153.28711 L 125.96094 149.14453 z M 122.92383 193.54883 L 120.98633 218.75 L 90.207031 221.21484 L 82.974609 196.74805 L 122.92383 193.54883 z M 119.39062 239.9707 L 118.21289 249.95117 L 96.599609 251.68164 L 93.847656 242.01562 L 119.39062 239.9707 z M 127.66992 261.05859 C 129.11963 262.70013 134.74292 267.08404 144.54102 274.20898 C 149.60563 271.60643 154.62318 269.77559 159.5918 268.71875 C 164.56044 267.66188 167.32353 270.62747 167.88281 277.61328 C 168.40713 284.16241 158.84692 288.22192 139.19922 289.79492 C 139.77708 313.47698 131.81429 329.27496 115.31055 337.1875 L 113.3457 337.3457 C 96.229507 332.12477 86.509186 317.7415 84.185547 294.19922 C 63.227968 295.87708 52.487213 293.4417 51.962891 286.89258 C 51.403608 279.90676 54.315849 276.4887 60.699219 276.63672 C 67.082592 276.78473 71.890016 277.82723 75.121094 279.76562 C 82.787595 271.24247 87.205084 266.05634 88.375 264.20508 L 127.66992 261.05859 z M 125.51172 274.22852 C 123.20308 274.20701 120.72272 275.12616 118.07031 276.98633 C 114.53391 279.46655 114.77891 282.52387 118.80469 286.15625 C 122.83052 289.78855 130.07267 288.32889 140.5332 281.7793 C 134.94457 277.83241 130.68884 275.42813 127.76367 274.56445 C 127.03232 274.34821 126.28126 274.23568 125.51172 274.22852 z M 95.603516 276.59766 C 94.361196 276.64565 93.18172 276.91907 92.068359 277.41992 C 89.099584 278.75609 85.390404 281.80062 80.9375 286.55078 C 92.306854 291.35269 99.689276 291.64061 103.08594 287.41406 C 106.4825 283.18744 106.2375 280.13011 102.35156 278.24414 C 99.922812 277.06619 97.674048 276.51767 95.603516 276.59766 z M 113.39453 288.56641 L 107.5 289.03711 L 105.50977 313.58398 L 112.97656 316.2832 L 118.60938 312.53516 L 113.39453 288.56641 z M 115.07422 318.42578 C 114.45095 318.44483 113.81289 318.49443 113.16016 318.57422 C 107.93824 319.21202 103.70338 321.19921 100.45508 324.53516 C 104.80424 329.46026 108.90802 331.32891 112.76758 330.14062 C 118.91515 330.08794 123.32429 327.53764 125.99609 322.49023 C 123.0771 319.64756 119.4371 318.29243 115.07422 318.42578 z " />
</svg>
