<?xml version="1.0" encoding="UTF-8" standalone="no"?>
<svg
   width="800"
   height="1000"
   version="1.1"
   id="svg1"
   sodipodi:docname="13621.svg"
   inkscape:version="1.4.2 (f4327f4, 2025-05-13)"
   xmlns:inkscape="http://www.inkscape.org/namespaces/inkscape"
   xmlns:sodipodi="http://sodipodi.sourceforge.net/DTD/sodipodi-0.dtd"
   xmlns="http://www.w3.org/2000/svg"
   xmlns:svg="http://www.w3.org/2000/svg">
  <defs
     id="defs1" />
  <sodipodi:namedview
     id="namedview1"
     pagecolor="#ffffff"
     bordercolor="#000000"
     borderopacity="0.25"
     inkscape:showpageshadow="2"
     inkscape:pageopacity="0.0"
     inkscape:pagecheckerboard="0"
     inkscape:deskcolor="#d1d1d1"
     inkscape:zoom="0.92402873"
     inkscape:cx="582.77409"
     inkscape:cy="874.9728"
     inkscape:window-width="1680"
     inkscape:window-height="998"
     inkscape:window-x="-8"
     inkscape:window-y="-8"
     inkscape:window-maximized="1"
     inkscape:current-layer="svg1"
     showguides="true">
    <sodipodi:guide
       position="432.92688,324.31037"
       orientation="-0.10271304,0.99471103"
       id="guide1"
       inkscape:locked="false" />
    <sodipodi:guide
       position="702.95012,372.07347"
       orientation="0.12739196,-0.99185245"
       id="guide2"
       inkscape:locked="false" />
  </sodipodi:namedview>
  <path
     style="fill:#000000;stroke:none;stroke-width:22.3562"
     d="m 170.7549,123.34093 c 14.14537,8.0285 45.3719,36.06639 46.16322,81.96333 -3.68533,61.94583 -49.33689,93.77966 -107.87114,97.97896 C 51.1006,300.84502 3.683088,265.4349 1.175891,204.83316 1.981535,158.91573 34.378434,131.0977 46.86803,123.81203 V 88.483105 H 170.7549 Z m -21.66841,-4.23932 V 104.0279 H 69.47856 v 15.07371 z m -40.03951,14.60261 c -73.810335,0 -88.086859,40.3682 -88.086859,71.60004 0,40.52732 37.811899,78.19483 88.086859,78.19483 49.29682,0 87.46837,-37.22258 88.08691,-78.66593 0,-0.64722 -0.20193,-71.12894 -88.08691,-71.12894 z"
     id="path1-5"
     sodipodi:nodetypes="cccccccccccccssscs" />
  <path
     style="fill:#000000;stroke:none;stroke-width:0.999998"
     d="m 561.783,45.482091 c 20.0692,-0.871478 39.9204,4.145832 59.5535,15.051931 19.6332,10.907212 27.9226,19.851 24.8683,26.831363 -3.0557,6.980734 0.6528,10.907397 11.1253,11.77999 10.4711,1.746665 14.3978,10.472395 11.78,26.177195 -1.7467,15.70628 -7.2003,26.83173 -16.3608,33.37636 -9.1621,6.54425 -5.6717,7.85333 10.4711,3.92722 16.1427,-3.92648 32.0673,-14.3974 47.7736,-31.41275 15.7063,-17.01498 19.851,-38.392922 12.4341,-64.133827 -7.4168,-25.741272 -32.9396,-41.447739 -76.5685,-47.1194 -43.6289,-5.671661 -71.9877,2.836017 -85.0766,25.523032 z m -15.7061,18.323872 c -3.48963,9.598509 -13.52425,26.613865 -30.10387,51.046067 11.34332,6.10777 14.39739,12.65202 9.16221,19.63275 -4.36296,2.61815 -4.7987,6.98092 -1.30721,13.08833 l 23.55947,9.16221 -1.3073,7.85332 -11.77996,-1.30721 c 0,6.10814 3.05405,11.3435 9.16216,15.70609 l 47.1189,1.30722 v 58.89883 h -44.5011 c -13.08849,0 -22.2505,13.08869 -27.48605,39.26608 29.66735,70.67882 44.50105,121.28822 44.50105,151.8282 0,30.54033 -0.4357,60.20807 -1.3072,89.00323 -0.8715,28.79479 -10.4698,43.19219 -28.79499,43.19219 -61.0803,10.47109 -110.3808,28.35885 -147.90151,53.66328 82.02214,2.61814 121.72432,30.10385 121.72432,30.10385 L 649.4824,627.92653 c 16.62545,-2.13535 26.6135,-17.45164 30.1038,-28.79496 0,-24.4322 -8.7259,-80.27715 -26.1777,-167.53484 0,-31.41257 11.3435,-74.60494 34.0305,-129.57711 9.5985,-13.08887 10.0343,-26.8321 1.3072,-41.22967 -8.7255,-14.39759 -19.4145,-21.16008 -32.0669,-20.28749 -12.6524,0.87148 -20.7238,-13.96221 -24.2141,-44.50107 -8.7256,-29.66775 -8.0711,-46.46486 1.9636,-50.39134 10.0346,-3.92647 15.4882,-9.81637 16.3608,-17.6697 0.8715,-7.85333 -4.3641,-12.6524 -15.7067,-14.39721 -11.3433,-1.74667 -15.7061,-6.54592 -13.0883,-14.397765 2.6181,-7.853327 -5.4532,-16.361004 -24.2141,-25.523031 -18.7605,-9.162029 -35.994,-12.434156 -51.7003,-9.816381 z m 54.9722,30.103859 c -30.54,9.598508 -47.9915,10.688788 -52.3544,3.27083 -4.363,-7.417215 -3.2727,-14.179709 3.2708,-20.287481 6.5443,-6.108143 22.9051,-0.436481 49.0824,17.014984 z M 491.10473,290.23963 c -37.52071,30.53997 -82.89474,63.69791 -136.12211,99.4738 -31.41257,-2.61814 -85.51233,-31.84941 -162.29929,-87.69381 -41.88366,18.32406 -75.4777,23.99573 -100.78211,17.015 -25.30479,-6.98075 -36.86654,-13.0889 -34.68525,-18.32445 2.18056,-5.23517 7.63416,-6.76304 16.36081,-4.58359 8.72591,2.18054 18.97878,3.92535 30.75859,5.23442 11.7798,1.30909 30.75821,-2.39933 56.93523,-11.12526 -20.06925,-13.08887 -35.12118,-19.19701 -45.1558,-18.32442 -10.03461,0.87148 -13.74303,-3.92759 -11.12526,-14.39721 18.32405,-4.36295 51.48198,0.87241 99.4738,15.70609 62.82549,19.19703 108.63562,38.39386 137.43041,57.5905 34.9033,-20.94184 62.38957,-41.44756 82.4588,-61.51716 20.06925,-20.06924 37.73895,-33.81228 53.00912,-41.22913 15.27018,-7.41685 31.631,-10.90703 49.08245,-10.47054 17.45148,0.43759 29.23108,0.43759 35.33888,0 6.1081,-0.43759 7.636,-4.58231 4.5836,-12.43416 -3.0557,-7.85333 -8.2913,-11.34369 -15.7067,-10.4711 -7.4168,0.87148 -14.6154,-0.43759 -21.59577,-3.92722 -6.98073,-3.48963 -8.72554,-9.16129 -5.23444,-17.01498 -11.34369,-3.48963 -12.65276,-9.16147 -3.92721,-17.01554 -8.72591,-1.74667 -12.21628,-6.54574 -10.4711,-14.39721 l 3.92722,-9.16221 c -13.08852,-8.72592 -17.015,-16.14277 -11.77943,-22.25054 20.06923,-25.304789 30.54014,-43.192733 31.41273,-53.663834 0,-7.852957 8.0712,-20.723408 24.2136,-38.611353 16.1427,-17.88794607 50.8276,-22.9052561 104.0546,-15.05193 52.3548,6.980734 81.15,32.939876 86.3855,77.877425 5.2352,44.937552 -19.197,78.313532 -73.2966,100.127962 -10.4707,3.48963 -15.7061,11.77925 -15.7061,24.86886 3.4896,11.34333 19.1959,17.01499 47.1188,17.01499 13.0885,0 32.2852,17.88776 57.59,53.66328 25.3048,35.77589 47.1192,75.04197 65.4433,117.79822 0.8715,79.40437 -6.1091,135.68542 -20.9417,168.84317 5.2355,52.35476 2.6178,89.00306 -7.8533,109.9449 -10.4707,20.94184 -23.5594,27.48609 -39.2661,19.63275 17.4515,-25.30478 23.5596,-50.17327 18.3245,-74.60548 -13.0889,3.48963 -20.9423,12.21556 -23.56,26.17777 -2.6181,13.96109 -8.2898,18.76016 -17.015,14.3972 -1.7467,-29.66738 10.4694,-57.58976 36.6483,-83.76715 -5.2356,-54.97253 -3.4908,-111.25378 5.2344,-168.84373 l -68.061,-90.31157 c -23.5596,52.35476 -35.3394,92.49324 -35.3394,120.41544 21.8144,88.13028 32.2853,146.37476 31.4127,174.73344 -0.8715,28.35868 -27.24677,38.46234 -79.59682,43.87568 L 413.8848,677.65871 c -8.72555,0 -13.08832,18.76054 -13.08832,56.28161 0,37.5207 -11.56175,75.914 -34.68525,115.17989 -23.12312,39.26589 -29.01302,71.55123 -17.6697,96.85602 11.34369,25.30479 11.34369,41.44737 0,48.42774 -11.34332,6.98073 -23.12313,8.07103 -35.33942,3.27081 -12.21591,-4.79907 -28.35848,-4.14452 -48.42773,1.96363 h -79.84103 c -6.98036,1.74669 -14.8335,-2.83436 -23.55943,-13.74306 -8.72555,-10.90721 -0.8724,-16.79711 23.55943,-17.6697 49.73699,-6.98036 82.45862,-25.52266 98.16491,-55.62689 15.70665,-30.10387 25.30515,-69.80605 28.79552,-119.10655 3.48963,-49.30051 13.96036,-107.54499 31.4122,-174.73344 42.75625,-39.26589 104.70934,-68.06086 185.85926,-86.38493 5.23518,-38.3933 7.85277,-72.20559 7.85277,-101.43686 0,-29.23125 -15.26999,-76.13222 -45.80996,-140.7029 z"
     id="path1"
     sodipodi:nodetypes="cccccccsssccccccccccccscsscccsccccccsccssccccccccccsccsccccccscsccscccccccccccssccccccccccccscsccccccccccccscc" />
</svg>
