<?xml version="1.0" encoding="UTF-8" standalone="no"?>
<svg
   width="13.52752"
   height="17.983509"
   version="1.1"
   id="svg1"
   sodipodi:docname="1363E-src.svg"
   inkscape:version="1.4.2 (f4327f4, 2025-05-13)"
   xmlns:inkscape="http://www.inkscape.org/namespaces/inkscape"
   xmlns:sodipodi="http://sodipodi.sourceforge.net/DTD/sodipodi-0.dtd"
   xmlns="http://www.w3.org/2000/svg"
   xmlns:svg="http://www.w3.org/2000/svg">
  <defs
     id="defs1" />
  <sodipodi:namedview
     id="namedview1"
     pagecolor="#ffffff"
     bordercolor="#666666"
     borderopacity="1.0"
     inkscape:showpageshadow="2"
     inkscape:pageopacity="0.0"
     inkscape:pagecheckerboard="0"
     inkscape:deskcolor="#d1d1d1"
     showguides="true"
     inkscape:zoom="64"
     inkscape:cx="11.765625"
     inkscape:cy="3.8515625"
     inkscape:window-width="1680"
     inkscape:window-height="998"
     inkscape:window-x="-8"
     inkscape:window-y="-8"
     inkscape:window-maximized="1"
     inkscape:current-layer="svg1" />
  <path
     style="fill:#000000; stroke:none"
     d=" M 11.12929 11.838044  L 5.826951 11.838044  Q 5.24613 11.838044 5.189921 12.868533  L 5.24613 13.599244  Q 5.189921 14.16133 5.311706 14.367428  Q 5.433491 14.573525 5.433491 15.791377  Q 5.433491 16.878075 4.983823 17.140383  Q 4.534155 17.402689 4.534155 17.646259  L 4.665308 17.646259  L 4.833934 17.383953  L 5.077504 17.383953  L 4.965087 17.646259  L 5.358547 17.646259  Q 5.620853 17.402689 5.461596 17.205959  Q 5.302338 17.00923 5.574013 16.718819  Q 5.845687 16.428408 5.714534 15.772641  Q 5.695798 15.079403 5.864424 14.536054  Q 6.033049 13.992704 5.97684 12.868533  Q 5.97684 12.194031 6.276619 12.194031  L 11.091817 12.194031  L 11.12929 11.838044  Z  M 13.433839 14.273746  Q 13.52752 14.367428 13.52752 14.442372  Q 13.52752 14.517317 13.443207 14.592262  Q 13.358894 14.667207 13.255845 14.938881  Q 13.152797 15.210556 13.152797 15.735168  Q 13.152797 16.259781 13.237109 16.456512  Q 13.321423 16.653242 13.077852 16.700083  Q 12.834282 16.746922 12.834282 17.046701  Q 13.002907 17.49637 12.740601 17.964773  L 11.297915 17.964773  L 11.297915 17.646259  Q 11.297915 17.215326 11.822528 16.878075  Q 12.215987 16.597033 12.25346 15.791377  L 12.25346 14.79836  Q 11.204234 13.824079 11.073081 12.568755  L 6.576398 12.568755  Q 6.276619 12.587491 6.276619 13.018423  Q 6.351564 13.992704 6.182939 14.536054  Q 6.014313 15.079403 6.014313 15.791377  Q 6.014313 16.259781 6.098626 16.456512  Q 6.182939 16.653242 5.939368 16.700083  Q 5.695798 16.746922 5.695798 17.046701  Q 5.864424 17.49637 5.620853 17.946037  L 4.159431 17.946037  L 4.159431 17.646259  Q 4.159431 17.215326 4.684044 16.878075  Q 5.077504 16.597033 5.077504 15.791377  Q 5.077504 14.573525 4.965087 14.35806  Q 4.85267 14.142593 4.908878 13.580508  L 4.85267 12.868533  Q 4.777725 11.463321 5.452228 11.463321  L 11.166761 11.463321  L 11.46654 8.409324  Q 11.46654 8.090808 11.728848 8.090808  L 13.171533 8.090808  Q 13.396367 8.072072 13.396367 8.390587  L 13.396367 11.463321  Q 12.684392 12.10035 12.684392 12.88727  Q 12.684392 13.76787 13.433839 14.273746  Z  M 13.171533 14.442372  Q 12.347141 13.861551 12.347141 12.88727  Q 12.347141 12.081614 13.021644 11.332167  L 13.021644 8.652894  Q 13.021644 8.446795 12.89049 8.446795  L 11.991154 8.446795  Q 11.803792 8.446795 11.803792 8.67163  L 11.46654 12.306448  Q 11.46654 13.692925 12.609447 14.55479  L 12.553239 15.791377  Q 12.553239 16.878075 12.112939 17.140383  Q 11.672639 17.402689 11.672639 17.646259  L 11.803792 17.646259  L 11.991154 17.383953  L 12.197251 17.383953  L 12.084834 17.646259  L 12.49703 17.646259  Q 12.740601 17.402689 12.590712 17.205959  Q 12.440822 17.00923 12.675024 16.70945  Q 12.909226 16.409672 12.853018 15.210556  Q 12.853018 14.929513 13.171533 14.442372  Z  M 9.236936 3.66907  L 8.974629 4.437254  Q 9.161991 4.718297 9.799021 4.765137  Q 10.43605 4.811977 10.829511 4.381045  Q 10.848247 3.931377 10.398579 3.66907  Q 9.742812 4.174947 9.236936 3.66907  Z  M 9.967647 1.814189  Q 9.911438 1.720508 10.033223 1.533146  Q 10.155008 1.345785 10.295529 1.298944  Q 10.43605 1.252104 10.482891 1.345785  Q 10.529732 1.439465 10.464155 1.608091  Q 10.398579 1.776717 10.201849 1.973446  Q 10.005118 2.170176 9.90207 2.123336  Q 9.799021 2.076495 9.817757 1.973446  Q 9.836493 1.870397 9.967647 1.814189  Z  M 10.19248 1.458202  Q 10.0988 1.570619 10.051959 1.683036  Q 10.005118 1.795453 10.089432 1.75798  Q 10.173744 1.720508 10.089432 1.842293  Q 10.005118 1.964078 10.089432 1.917238  Q 10.173744 1.870397 10.267426 1.748612  Q 10.361106 1.626827 10.379842 1.505042  Q 10.398579 1.383257 10.19248 1.458202  Z  M 10.005118 1.139687  Q 10.567204 0.839908 10.745197 1.195895  Q 10.923191 1.551882 10.576572 1.926606  Q 10.229953 2.30133 10.361106 2.507427  Q 10.473523 2.694789 10.904455 2.254489  Q 11.335387 1.814189 11.335387 1.177159  Q 11.335387 0.540129 10.698358 0.362135  Q 10.061327 0.184141 9.639763 0.296559  Q 9.2182 0.408976 9.087046 0.783699  Q 9.799021 0.914852 10.005118 1.139687  Z  M 9.94891 1.926606  Q 9.873965 1.982815 9.90207 2.039023  Q 9.930174 2.095232 9.986382 2.039023  Q 10.042591 1.982815 9.94891 1.926606  Z  M 8.712322 1.664299  L 8.712322 1.570619  L 8.843475 1.439465  Q 9.049574 1.308312 9.368089 1.570619  L 9.592923 1.589355  L 9.592923 1.720508  L 9.368089 1.664299  Q 9.030837 1.814189 8.768531 1.664299  L 8.712322 1.664299  Z  M 8.824739 1.570619  Q 8.880948 1.608091 8.937157 1.645563  Q 8.899684 1.551882 8.937157 1.476938  Q 8.843475 1.533146 8.824739 1.570619  Z  M 9.087046 1.645563  Q 9.180727 1.645563 9.293144 1.626827  L 9.105783 1.51441  Q 9.161991 1.589355 9.087046 1.645563  Z  M 8.487489 2.170176  Q 8.468752 2.113968 8.47812 2.095232  Q 8.487489 2.076495 8.524961 2.076495  Q 8.543696 2.076495 8.590537 2.142072  Q 8.637378 2.207649 8.67485 2.188912  Q 8.712322 2.170176 8.712322 2.132704  Q 8.712322 2.076495 8.731059 2.067127  Q 8.749795 2.057759 8.759163 2.132704  Q 8.768531 2.207649 8.702954 2.245121  Q 8.637378 2.282593 8.581169 2.198281  Q 8.524961 2.113968 8.487489 2.170176  Z  M 8.787267 2.488691  L 8.524961 2.526164  Q 8.487489 2.563636 8.506225 2.582372  Q 8.524961 2.601108 8.581169 2.582372  Q 8.618642 2.582372 8.693586 2.5449  Q 8.768531 2.507427 8.787267 2.488691  Z  M 8.806004 2.451219  Q 8.824739 2.451219 8.731059 2.432483  Q 8.637378 2.413747 8.562433 2.404378  Q 8.487489 2.39501 8.43128 2.423115  Q 8.375072 2.451219 8.487489 2.451219  L 8.806004 2.451219  Z  M 10.229953 3.331819  L 10.229953 2.900887  Q 10.19248 2.750998 10.080064 2.5449  Q 9.967647 2.338802 10.183112 2.132704  Q 10.398579 1.926606 10.529732 1.626827  Q 10.660885 1.327048 10.473523 1.233367  Q 10.286161 1.139687 10.089432 1.364521  Q 9.892702 1.589355 9.911438 1.345785  Q 9.55545 1.064742 8.955893 1.027269  Q 8.899684 1.102214 8.824739 1.252104  Q 9.049574 1.139687 9.265039 1.280208  Q 9.480506 1.420729 9.630395 1.439465  L 9.630395 1.533146  Q 9.405561 1.495674 9.190095 1.383257  Q 8.974629 1.27084 8.768531 1.383257  Q 8.562433 1.570619 8.356335 2.095232  Q 8.562433 2.188912 8.562433 2.338802  Q 8.787267 2.357538 8.862212 2.432483  Q 8.937157 2.507427 8.656114 2.676053  Q 8.581169 3.069513 9.030837 2.975832  Q 9.480506 2.882151 9.499242 3.369292  Q 9.761548 3.744015 10.229953 3.331819  Z  M 9.161991 3.369292  L 9.161991 3.219402  Q 8.843475 3.294347 8.637378 3.238138  Q 8.43128 3.18193 8.43128 2.957096  Q 8.43128 2.732262 8.337599 2.685421  Q 8.243918 2.638581 8.365704 2.573004  Q 8.487489 2.507427 8.356335 2.507427  Q 8.28139 2.507427 8.262654 2.451219  Q 8.243918 2.39501 8.337599 2.338802  Q 8.262654 2.263857 8.150237 2.226385  Q 8.03782 2.188912 8.150237 1.926606  Q 8.375072 1.476938 8.562433 1.233367  Q 8.880948 0.146669 9.649132 0.034252  Q 10.417315 -0.078165 11.007504 0.165405  Q 11.597693 0.408976 11.597693 1.139687  Q 11.597693 1.889134 11.279179 2.30133  Q 10.960664 2.713526 10.604676 2.863415  L 10.604676 3.369292  Q 11.204234 3.81896 11.204234 4.737032  L 11.204234 9.252451  L 11.204234 9.664647  Q 10.960664 11.85678 9.892702 11.85678  L 5.171185 11.85678  Q 4.890142 12.025406 4.824566 12.765485  Q 4.758989 13.505564 4.178167 14.592262  Q 3.691027 15.960003 3.700395 16.344095  Q 3.709763 16.728186 3.850284 17.056068  Q 3.990806 17.383953 3.934597 17.655626  Q 3.878389 17.927301 3.33504 17.983509  L 0 17.983509  Q -0.018736 17.515106 0.562085 17.365215  Q 1.555103 17.027966 2.032875 16.578297  Q 2.510648 16.128628 2.679273 14.676575  Q 2.847899 13.224521 3.166414 11.557001  Q 3.203886 10.395358 4.065751 10.058107  Q 4.890142 9.777064 5.855055 9.599071  Q 6.819969 9.421077 8.056557 9.271188  Q 8.112764 6.835485 8.150237 6.329607  Q 7.663096 6.423288 6.407773 6.292135  Q 5.377283 6.179718 4.965087 6.36708  Q 4.552891 6.554442 3.559874 6.104774  Q 3.466193 5.992356 3.569242 5.804995  Q 3.672291 5.617633 3.728499 5.711314  Q 4.028278 5.87994 4.337425 5.92678  Q 4.646572 5.97362 5.09624 5.73005  Q 4.646572 5.523952 4.346793 5.608265  Q 4.047014 5.692578 3.990806 5.48648  Q 4.646572 5.09302 5.396019 5.48648  Q 6.145466 5.87994 7.035435 5.711314  Q 7.925403 5.542688 8.206446 5.523952  Q 8.318863 4.980603 8.487489 4.474726  Q 8.824739 3.481709 9.161991 3.369292  Z  M 10.848247 4.793241  Q 10.660885 5.692578 9.330616 7.809766  Q 8.712322 7.922183 6.426509 7.847238  Q 5.396019 7.734821 4.983823 7.903447  Q 4.571627 8.072072 3.541137 7.659876  Q 3.466193 7.547459 3.559874 7.360097  Q 3.653555 7.172736 3.728499 7.24768  Q 4.009542 7.435042 4.318689 7.491251  Q 4.627836 7.547459 5.09624 7.285153  Q 4.646572 7.060318 4.346793 7.153999  Q 4.047014 7.24768 3.990806 7.022846  Q 4.646572 6.629386 5.405387 7.032214  Q 6.164202 7.435042 7.222796 7.172736  Q 8.28139 6.910429 8.712322 7.022846  Q 9.405561 5.580161 9.686604 5.111756  Q 9.2182 5.111756 8.824739 4.868186  Q 8.468752 6.348344 8.468752 9.720856  Q 6.857441 9.833273 5.88316 10.020635  Q 4.908878 10.207996 4.309321 10.451567  Q 3.57861 10.601456 3.559874 11.575737  Q 3.203886 13.280729 3.035261 14.863936  Q 2.866635 16.447144 2.313918 16.868708  Q 1.761201 17.290272 0.693239 17.608786  L 0.711975 17.627523  L 3.110205 17.608786  Q 3.765972 17.49637 3.316303 16.70945  L 3.316303 16.07242  Q 3.653555 14.948249 4.000174 14.086385  Q 4.346793 13.224521 4.496683 12.156559  Q 4.590364 11.557001 5.227394 11.500793  L 9.592923 11.500793  Q 10.923191 11.463321 10.829511 7.716085  L 10.848247 4.793241  Z "
     id="path1" />
  <path
     style="fill:#000000;stroke:none"
     d="M 8.5172805,3.0941191 8.1748516,3.8504938 8.6416485,3.8817438 8.8330548,3.1590876 Z"
     id="path4"
     sodipodi:nodetypes="ccccc" />
</svg>
