<?xml version="1.0" encoding="UTF-8" standalone="no"?>
<svg
   width="800"
   height="1000"
   version="1.1"
   id="svg1"
   sodipodi:docname="13633.svg"
   inkscape:version="1.4.2 (f4327f4, 2025-05-13)"
   xmlns:inkscape="http://www.inkscape.org/namespaces/inkscape"
   xmlns:sodipodi="http://sodipodi.sourceforge.net/DTD/sodipodi-0.dtd"
   xmlns="http://www.w3.org/2000/svg"
   xmlns:svg="http://www.w3.org/2000/svg">
  <defs
     id="defs1" />
  <sodipodi:namedview
     id="namedview1"
     pagecolor="#ffffff"
     bordercolor="#666666"
     borderopacity="1.0"
     inkscape:showpageshadow="2"
     inkscape:pageopacity="0.0"
     inkscape:pagecheckerboard="0"
     inkscape:deskcolor="#d1d1d1"
     inkscape:zoom="0.53386562"
     inkscape:cx="429.88346"
     inkscape:cy="514.17433"
     inkscape:window-width="1680"
     inkscape:window-height="998"
     inkscape:window-x="-8"
     inkscape:window-y="-8"
     inkscape:window-maximized="1"
     inkscape:current-layer="svg1"
     showguides="true">
    <sodipodi:guide
       position="800,1000"
       orientation="0,-1"
       id="guide1"
       inkscape:locked="false" />
    <sodipodi:guide
       position="800,0"
       orientation="0,-1"
       id="guide2"
       inkscape:locked="false" />
    <sodipodi:guide
       position="609.27152,339.07285"
       orientation="1,0"
       id="guide3"
       inkscape:locked="false" />
  </sodipodi:namedview>
  <path
     id="path1"
     style="fill:#000000;stroke:none;stroke-width:55.602"
     d="m 607.83789,0 c -53.08456,0 -86.15349,9.7907262 -99.20703,29.371094 -13.05354,19.580331 -19.58008,33.721442 -19.58008,42.423828 0.87021,9.572631 -6.96156,27.846855 -23.49609,54.824218 -4.35119,8.70239 0.4336,15.66528 14.35742,20.88672 l -1.30469,11.74805 c -1.74045,7.83213 2.17546,11.74804 11.74805,11.74804 -7.83215,8.70239 -6.09243,13.92362 5.2207,15.66407 -1.74052,8.70238 0.87206,14.35801 7.83399,16.96875 6.96189,2.61071 14.14011,2.82989 21.53711,0.65429 7.39707,-2.17559 12.40102,-0.43583 15.01171,5.22071 2.61074,5.65655 0.87102,8.70161 -5.2207,9.13671 -6.09165,0.43514 -17.84132,0.43514 -35.24609,0 -14.3296,0.43423 -25.6204,5.86348 -33.8711,16.28516 -31.25593,39.12718 -63.30218,77.62688 -97.04882,114.63672 13.027,-48.63439 21.18036,-78.90379 27.25976,-116.24805 22.5802,0.86847 37.56311,-2.17138 44.94531,-9.11914 7.3803,-6.94778 8.03038,-20.40992 1.95118,-40.38476 l 31.39843,-2.60547 c 8.07099,-0.66973 9.47479,-13.72449 -1.60351,-14.32617 -48.63256,-2.6413 -69.32318,0.43444 -80.61328,9.11914 -17.3694,13.89557 -32.56861,42.98923 -45.59571,87.28125 -25.1853,64.26687 -33.99319,91.93265 -29.21679,108.43359 4.7753,16.50096 8.03298,29.74498 9.77148,39.73242 1.7369,9.9874 10.63848,11.94065 26.70508,5.86133 49.20353,-21.5571 92.65879,-58.42058 120.4082,-104.45898 23.1491,53.28288 34.9163,92.80487 35.30078,118.5664 0.43515,29.15293 -1.95823,62.87554 -7.17968,101.16602 -80.93213,18.27502 -143.15413,46.99164 -186.66602,86.15234 -17.40477,67.87859 -27.84717,126.18468 -31.32812,174.91797 -3.48096,48.73333 -12.83529,88.11153 -28.06446,118.13477 -15.22918,30.02318 -48.08092,48.51663 -98.55469,55.47851 -24.36667,0.87029 -31.98124,6.74511 -22.84375,17.62305 9.13749,10.87804 16.75206,15.88022 22.84375,15.00976 h 79.62696 c 20.01548,-6.96189 36.33078,-8.04804 48.94922,-3.26172 12.61846,4.78648 24.36814,3.69828 35.24609,-3.26367 10.87798,-6.96189 10.66075,-22.84467 -0.65234,-47.64648 -11.31308,-24.80177 -5.223,-56.99985 18.27343,-96.5957 23.49641,-39.5958 35.2461,-78.10324 35.2461,-115.52344 0,-37.42029 3.9159,-56.13086 11.74804,-56.13086 19.14522,54.82499 36.54859,101.16415 52.21289,139.01953 15.66428,37.85535 22.62721,70.70708 20.88672,98.55469 -13.05358,32.19881 -37.41986,48.29883 -73.09961,48.29883 -20.88573,0 -28.28309,6.09202 -22.1914,18.27539 6.09169,12.18331 13.48905,18.27539 22.1914,18.27539 h 50.90821 c 35.67975,-21.75599 64.83277,-34.81092 87.45898,-39.16211 22.62617,-4.35115 24.36594,-21.32011 5.2207,-50.90821 -19.14526,-29.58811 -27.84596,-66.79017 -26.10546,-111.60742 1.74045,-44.81727 -9.57284,-81.15043 -33.93946,-108.99804 l 6.52539,-11.74805 c 15.8759,-7.32734 33.37115,-12.94012 52.48438,-16.83985 2.9317,24.69694 12.49564,86.79662 63.29101,99.78711 V 962.70312 C 553.44519,967.41183 531.16538,986.97117 529.13867,1000 H 689.4043 c -2.02671,-13.02883 -24.3065,-32.58818 -62.63282,-37.29688 V 760.42773 c 51.59483,-14.75477 60.44572,-72.23364 65.24805,-118.20703 h -29.55859 c 11.90918,-6.93571 18.06809,-16.93832 18.47656,-30.00781 0.87021,-27.84761 -10.00664,-86.1537 -32.63281,-174.91797 0,-26.97741 12.18216,-67.00927 36.54883,-120.09375 l 67.8789,90.07031 c -8.70238,57.43572 -10.87853,113.56566 -6.52734,168.39063 -25.2368,26.97736 -36.98448,54.82508 -35.24414,83.54297 8.70243,4.35121 14.35805,-0.2183 16.96875,-13.70703 2.6107,-13.48857 10.00807,-21.97208 22.1914,-25.45313 6.09169,24.36667 0.43602,48.73294 -16.96875,73.09961 15.66427,7.83213 28.71732,1.30563 39.16016,-19.58008 10.44288,-20.88573 13.05343,-57.43612 7.83203,-109.65039 14.79388,-33.06905 21.32042,-89.19897 19.58008,-168.39062 -18.27502,-41.77143 -39.81347,-80.71522 -64.61523,-116.83008 -24.8018,-36.11489 -44.16411,-54.17188 -58.0879,-54.17188 -27.84772,0 -42.64246,-7.83181 -44.38281,-23.49609 -1.74049,-13.05358 2.17737,-21.75623 11.75,-26.10742 C 695.7327,146.20011 715.96391,109.86691 705.08594,65.919922 694.20795,21.972889 661.79262,0 607.83789,0 Z m -11.0957,19.580078 c 43.947,0 71.1411,11.966915 81.58398,35.898438 10.44288,23.931561 9.13758,45.687254 -3.91601,65.267574 -13.05358,19.58037 -27.19466,32.19892 -42.42383,37.85547 -15.22918,5.65655 -18.92783,4.56847 -11.09571,-3.26367 7.83218,-7.83214 11.74805,-19.57987 11.74805,-35.24414 0,-15.66428 -5.22118,-23.498047 -15.66406,-23.498047 -9.57248,0 -13.4884,-3.698668 -11.74805,-11.095703 1.74049,-7.396999 -7.83107,-15.228813 -28.71679,-23.496094 -20.88572,-8.267244 -40.90166,-10.22424 -60.04688,-5.873047 9.57263,-24.366665 36.33231,-36.550781 80.2793,-36.550781 z m -68.69531,53.683594 c 9.02868,0.543899 18.4384,2.447542 28.22851,5.710937 19.58019,6.526751 28.50012,13.92412 26.75977,22.191411 -1.74046,8.26725 3.04624,12.40039 14.35937,12.40039 12.18329,0 18.27539,3.91591 18.27539,11.74804 0,7.83214 -4.56954,14.35865 -13.70703,19.58008 -9.13745,5.22145 -7.61302,21.75591 4.57031,49.60352 2.61074,32.19881 10.22532,48.08158 22.84375,47.64648 12.61844,-0.43515 23.27809,6.30859 31.98047,20.23242 8.7025,13.92379 7.83151,27.41323 -2.61133,40.4668 -21.75596,54.82502 -32.63281,98.33639 -32.63281,130.53516 17.40477,86.15358 26.10742,141.4126 26.10742,165.77929 -3.48098,11.31305 -13.4889,21.32105 -30.02343,30.02344 -82.67259,0 -130.10183,5.65758 -142.28516,16.9707 0,-17.40481 -40.46631,-27.41272 -121.39844,-30.02343 36.54999,-25.23687 85.28451,-43.07667 146.20117,-53.51953 19.14523,-10e-6 29.15323,-14.36027 30.02344,-43.07813 0.87029,-28.71783 1.30469,-58.30533 1.30469,-88.76367 0,-30.45832 -15.22915,-80.93259 -45.6875,-151.42188 6.09165,-26.10716 15.66516,-39.16015 28.71875,-39.16015 h 44.38086 v -54.82422 l -46.99219,3.91601 c -6.96193,-3.48095 -10.87784,-8.26768 -11.74805,-14.35937 h 11.74805 v -7.83203 l -23.49609,-5.22071 c -4.35116,-5.22141 -4.78759,-9.57369 -1.30664,-13.05468 5.2214,-7.83214 1.3055,-14.35868 -11.74805,-19.58008 13.92379,-26.10716 21.32116,-43.946939 22.19141,-53.519532 8.26726,-2.175597 16.91466,-2.991165 25.94336,-2.447266 z m -8.9043,11.597656 c -3.93477,0.127477 -6.78701,1.210379 -8.55469,3.25 -5.65654,6.526789 -5.65654,13.053292 0,19.580082 5.65656,6.52679 22.4102,3.26451 50.25781,-9.789066 C 541.70047,88.928008 527.79907,84.58088 519.14258,84.861328 Z M 554.7207,667.2207 h 54.55078 54.55079 c -5.82277,32.62812 -15.36142,68.53618 -54.55079,70.36328 -37.72021,-0.37933 -49.20867,-39.48508 -54.55078,-70.36328 z"
     sodipodi:nodetypes="ssccccccssssccccccssccccccsccsscsccssssscscssscssscccccccccccscccccsccsccssccssssssssscscssssssscsscccccccsscsccccccccccsssscscccsc" />
</svg>
