<?xml version="1.0" encoding="UTF-8" standalone="no"?>
<svg
   width="12.670537"
   height="17.983217"
   version="1.1"
   id="svg1"
   sodipodi:docname="1365D.svg"
   inkscape:version="1.4.2 (f4327f4, 2025-05-13)"
   xmlns:inkscape="http://www.inkscape.org/namespaces/inkscape"
   xmlns:sodipodi="http://sodipodi.sourceforge.net/DTD/sodipodi-0.dtd"
   xmlns="http://www.w3.org/2000/svg"
   xmlns:svg="http://www.w3.org/2000/svg">
  <defs
     id="defs1" />
  <sodipodi:namedview
     id="namedview1"
     pagecolor="#ffffff"
     bordercolor="#666666"
     borderopacity="1.0"
     inkscape:showpageshadow="2"
     inkscape:pageopacity="0.0"
     inkscape:pagecheckerboard="0"
     inkscape:deskcolor="#d1d1d1"
     inkscape:zoom="128"
     inkscape:cx="6.40625"
     inkscape:cy="4.6445312"
     inkscape:window-width="1680"
     inkscape:window-height="998"
     inkscape:window-x="-8"
     inkscape:window-y="-8"
     inkscape:window-maximized="1"
     inkscape:current-layer="svg1" />
  <path
     style="fill:#000000;stroke:none"
     d="M 7.584318,2.341968 V 2.18443 L 7.786867,2.026892 C 8.011921,1.876856 8.2969893,1.921867 8.642072,2.161925 h 0.33758 L 9.002158,2.341968 8.642072,2.274451 C 8.2969893,2.4244877 7.974412,2.4394913 7.67434,2.319462 Z M 7.741856,2.18443 7.96691,2.274451 C 7.906895,2.199434 7.906895,2.1244157 7.96691,2.049397 7.8468813,2.094408 7.7718633,2.139419 7.741856,2.18443 Z m 0.450108,0.090021 c 0.1050253,0 0.2175523,-0.015003 0.337581,-0.04501 L 8.214469,2.071903 C 8.2744837,2.146921 8.266982,2.214437 8.191964,2.274451 Z M 7.246737,3.017129 c 0,-0.030007 0.00375,-0.056263 0.011253,-0.078768 0.0075,-0.022505 0.026256,-0.033758 0.056263,-0.033758 0.030007,0 0.071267,0.026256 0.12378,0.078768 0.052513,0.052513 0.097523,0.071267 0.135032,0.056264 0.037509,-0.015004 0.052513,-0.04126 0.045011,-0.078769 -0.0075,-0.037509 0,-0.060014 0.022506,-0.067516 C 7.663087,2.88585 7.685593,2.912104 7.708098,2.972119 7.7306033,3.032133 7.704347,3.0808947 7.629329,3.118404 7.554311,3.1559127 7.483044,3.140909 7.415528,3.073393 7.3480113,3.005877 7.2917477,2.9871223 7.246737,3.017129 Z M 7.786867,3.444732 7.359264,3.512248 C 7.329257,3.542255 7.318004,3.564761 7.325506,3.579764 7.333006,3.594768 7.374268,3.60227 7.449286,3.60227 7.494297,3.587266 7.554311,3.564761 7.629329,3.534754 7.704347,3.504747 7.7568597,3.474739 7.786867,3.444732 Z m 0,-0.067516 c 0.015003,0 -0.026257,-0.00375 -0.12378,-0.011253 C 7.565564,3.358463 7.479293,3.350959 7.404275,3.343458 7.329257,3.335958 7.2654917,3.347208 7.212979,3.377216 7.160466,3.407223 7.186723,3.422227 7.291748,3.422227 Z M 9.542288,1.59929 c 0.1800427,-0.075018 0.3938437,-0.060015 0.641403,0.04501 0.247559,0.1050253 0.378841,0.345083 0.393845,0.720173 0.015,0.37509 -0.09377,0.7689343 -0.326329,1.181533 -0.232555,0.4125993 -0.08627,0.9602307 0.438856,1.642894 0.525126,0.6826633 0.817696,1.1665293 0.87771,1.451598 0.06001,0.285068 0.09002,1.0502517 0.09002,2.295551 l 0.472613,0.022505 c 0,-5.071216 -0.431353,-7.783116 -1.29406,-8.1357 C 9.9736413,0.47026933 9.3397393,0.35024033 8.934642,0.462767 8.5295447,0.57529433 8.2444763,0.80409933 8.079437,1.149182 c 0.885212,0 1.372829,0.150036 1.462851,0.450108 z M 9.789846,3.197173 C 9.5197813,3.2121763 9.392251,3.039635 9.407255,2.679549 h 0.157538 c 0.015003,0.2250533 0.101274,0.3300783 0.258812,0.315075 0.157538,-0.015003 0.270065,-0.21005 0.337581,-0.58514 0.06752,-0.37509 -0.07877,-0.5551333 -0.438855,-0.54013 -0.16504,0 -0.24756,0.1425343 -0.24756,0.427603 L 9.339739,2.319462 C 9.3847497,1.6893113 8.8971327,1.4342503 7.876888,1.554279 L 7.71935,1.734322 C 7.9744113,1.6443007 8.21822,1.6555533 8.450776,1.76808 8.6833313,1.8806073 8.874627,1.936871 9.024663,1.936871 L 9.047169,2.071903 C 8.7921077,2.0418957 8.548299,1.9818813 8.315743,1.89186 8.0831877,1.801838 7.8618847,1.8168417 7.651834,1.936871 7.4567873,2.1319177 7.2542387,2.4694983 7.044188,2.949613 7.284246,3.024631 7.404275,3.1221543 7.404275,3.242183 7.6443323,3.257187 7.809372,3.294696 7.899394,3.35471 7.9894153,3.4147247 7.88439,3.5272517 7.584318,3.692291 7.524304,4.0523777 7.7381053,4.191161 8.225722,4.108641 8.7133393,4.0261217 8.9684007,4.1911613 8.990906,4.60376 9.0134107,5.0163587 8.994656,5.222658 8.934642,5.222658 9.3247353,5.4327087 9.6923233,5.4402103 10.037406,5.245163 9.5122807,4.6300163 9.4297607,3.947353 9.789846,3.197173 Z m 0.652657,13.593259 c 0.405097,-2.340561 0.603895,-4.41856 0.596394,-6.233995 -0.0075,-1.8154353 -0.03751,-2.9744633 -0.09002,-3.477084 C 10.896362,6.576733 10.63755,6.1303763 10.172439,5.740283 9.8123523,6.0553577 9.3922513,6.0778627 8.912136,5.807798 v 0 C 8.2969887,7.308158 7.996917,10.256365 8.011921,14.652419 H 7.224232 L 3.938444,10.533932 C 3.4733327,9.8137587 3.0607337,9.573701 2.700647,9.813759 2.340561,10.053816 2.4868463,10.69522 3.139503,11.73797 c 0.652656,1.04275 1.2490487,2.681893 1.789178,4.917429 L 2.768164,17.330561 H 10.8476 Z M 2.00298,8.485941 C 1.8229367,8.8310237 1.9054567,9.071081 2.25054,9.206113 L 2.993217,9.116092 C 3.218271,8.801016 3.1732603,8.5909657 2.858185,8.485941 Z M 0.495119,1.509268 c -0.075018,2.3705687 0.0600143,4.291029 0.405097,5.761381 0.4651113,-0.060014 0.8026923,-0.060014 1.012743,0 C 1.5528723,5.500225 1.080259,3.5797647 0.495119,1.509268 Z M 1.777926,7.968317 C 1.6578973,7.728259 1.230295,7.683248 0.495119,7.833284 -0.13503233,4.93759 -0.16503967,2.3569713 0.405097,0.091428 1.6503957,3.81232 2.4005757,6.4379497 2.655637,7.968317 h 0.022505 c 0.7651833,0 1.1702803,0.4125987 1.215291,1.237796 l 3.37581,4.321036 C 7.254239,9.866271 7.5918197,7.300656 8.281985,5.830304 8.5520497,5.2901747 8.5895587,4.8025577 8.394512,4.367453 8.25948,4.3974603 8.1019423,4.4199657 7.921899,4.434969 7.6995127,5.3321988 7.29662,6.216648 6.7533751,6.7621555 6.2527038,7.2649121 5.5173376,7.2299677 5.4943693,6.8379465 5.4736177,6.4837619 6.0105499,6.374779 6.2631868,6.6105734 6.8464041,6.0890577 7.2830956,5.327478 7.494297,4.389959 7.329257,4.3449483 7.246737,4.2174177 7.246737,4.007367 7.2317337,3.8723343 7.1792213,3.7823127 7.0892,3.737302 6.999178,3.6922913 6.987925,3.6397787 7.055441,3.579764 7.122957,3.51975 7.1492133,3.4972447 7.13421,3.512248 7.0441887,3.4972447 6.9916763,3.4672377 6.976673,3.422227 6.961669,3.3772157 6.999178,3.324703 7.0892,3.264689 6.999178,3.2046743 6.8941527,3.1596637 6.774124,3.129657 6.6540953,3.0996497 6.6465933,2.9571153 6.751618,2.702054 6.9766727,2.3119607 7.1792213,1.996885 7.359264,1.756827 L 7.42678,1.554279 C 7.4717913,1.3892397 7.5805677,1.1416803 7.753109,0.811601 7.9256503,0.48152167 8.2969893,0.23396233 8.867126,0.068923 c 0.5701367,-0.16504 1.346573,-0.03750967 2.329308,0.382591 0.982735,0.42010133 1.474103,3.4358243 1.474103,9.047169 h -0.967731 c -0.015,2.370569 -0.142535,4.666119 -0.382593,6.886651 l 0.922722,1.597883 H 2.183023 L 2.070496,16.857948 4.00596,16.317818 C 3.555852,14.592404 3.0307263,13.223326 2.430583,12.210584 1.830439,11.197841 1.642894,10.368892 1.867948,9.723738 1.4028367,9.198612 1.275306,8.8010163 1.485356,8.530951 0.96023,8.1558617 0.96773167,7.968317 1.507861,7.968317 Z"
     id="path1"
     sodipodi:nodetypes="ccccccccccccccccccssssssssscccscsccssscccsssssccsscccccsscccccsccscccscssccccsscsscccsscccccccccccccccccscccccsscccsscscscccssscccccccsccsc" />
</svg>
