<?xml version="1.0" encoding="UTF-8" standalone="no"?>
<svg
   width="800"
   height="1000"
   version="1.1"
   id="svg1"
   sodipodi:docname="13658.svg"
   inkscape:version="1.4.2 (f4327f4, 2025-05-13)"
   xmlns:inkscape="http://www.inkscape.org/namespaces/inkscape"
   xmlns:sodipodi="http://sodipodi.sourceforge.net/DTD/sodipodi-0.dtd"
   xmlns="http://www.w3.org/2000/svg"
   xmlns:svg="http://www.w3.org/2000/svg">
  <defs
     id="defs1" />
  <sodipodi:namedview
     id="namedview1"
     pagecolor="#ffffff"
     bordercolor="#666666"
     borderopacity="1.0"
     inkscape:showpageshadow="2"
     inkscape:pageopacity="0.0"
     inkscape:pagecheckerboard="0"
     inkscape:deskcolor="#d1d1d1"
     inkscape:zoom="2.1354625"
     inkscape:cx="441.82467"
     inkscape:cy="173.03043"
     inkscape:window-width="1680"
     inkscape:window-height="998"
     inkscape:window-x="-8"
     inkscape:window-y="-8"
     inkscape:window-maximized="1"
     inkscape:current-layer="svg1"
     showguides="true">
    <sodipodi:guide
       position="800,1000"
       orientation="0,-1"
       id="guide1"
       inkscape:locked="false" />
    <sodipodi:guide
       position="800,0"
       orientation="0,-1"
       id="guide2"
       inkscape:locked="false" />
    <sodipodi:guide
       position="483.48114,751.49484"
       orientation="0,-1"
       id="guide3"
       inkscape:locked="false" />
    <sodipodi:guide
       position="1259.3193,642.44954"
       orientation="0,-1"
       id="guide4"
       inkscape:locked="false" />
  </sodipodi:namedview>
  <path
     style="fill:#000000;stroke:none;stroke-width:0.999999"
     d="m 488.57602,132.59661 v -7.6423 l 11.4635,-10.18977 c 12.73717,-7.64233 28.87096,-5.0949 48.40138,7.6423 h 19.10574 l 1.2739,10.18977 -20.37948,-3.82115 c -19.53053,8.49145 -37.78726,9.34059 -54.77021,2.54742 z m 8.91603,-7.6423 c 4.24575,0.84912 8.49148,2.12284 12.73719,3.82115 -3.39659,-4.24575 -3.39659,-8.06691 0,-11.4635 -6.79315,1.69831 -11.03888,4.24576 -12.73719,7.64235 z m 25.47443,3.82115 c 5.94402,0 12.3126,-0.84916 19.10574,-2.54747 l -17.83207,-8.91603 c 3.39659,5.0949 2.97204,8.91607 -1.27367,11.4635 z m -53.49626,42.03276 c 0,-6.47857 5.19419,-7.71076 10.82661,-1.27374 6.89788,7.88337 10.81805,1.23102 10.18977,-1.91057 -0.73857,-3.69298 2.21959,-7.03032 5.09488,0.63684 2.40682,6.41824 -8.22389,14.0663 -16.55833,5.73177 -3.82119,-3.82118 -7.0055,-4.88261 -9.55293,-3.1843 z m 30.5693,24.20068 -24.20074,3.82115 c -1.69827,1.69831 -2.33511,2.97203 -1.91052,3.82115 0.42456,0.84915 2.75971,1.27373 7.00546,1.27373 2.5474,-0.84915 5.94397,-2.12287 10.18971,-3.82114 4.24575,-1.69831 7.21778,-3.39661 8.91609,-5.09489 z m 0,-3.82115 c 0.84912,0 -1.48603,-0.2123 -7.00545,-0.63689 -5.5195,-0.42456 -10.40211,-0.84912 -14.64782,-1.27368 -4.24571,-0.4246 -7.85458,0.21226 -10.82661,1.91057 -2.97199,1.69828 -1.48598,2.54742 4.45805,2.54742 z M 599.38968,90.563858 c 10.18973,-3.396589 22.29006,-2.335153 36.30098,3.184309 14.01095,5.519429 21.44099,18.893493 22.29011,40.122183 0.84927,21.22865 -5.30705,43.51875 -18.46896,66.87028 -13.16177,23.35153 -4.88257,54.34539 24.83758,92.98159 29.72015,38.63617 46.2785,66.02114 49.67505,82.15493 3.3967,16.13379 5.09505,59.44028 5.09505,129.91947 l 26.74816,1.27373 c 0,-287.01161 -24.41297,-440.494899 -73.2389,-460.449876 -48.82605,-19.95494 -84.70255,-26.7481 -107.62952,-20.379481 -22.92697,6.368582 -39.06076,19.318063 -48.40137,38.848444 49.25053,0 76.8478,8.491474 82.79182,25.474421 z m 14.01092,90.434122 c -15.28463,0.84916 -22.50239,-8.49145 -21.65327,-28.02183 l 8.91603,-1.27374 c 0.84927,12.73721 5.73187,18.89353 14.64782,18.46897 8.91601,-0.4246 15.28461,-11.46351 19.1058,-33.11672 3.82115,-21.65325 -4.88261,-32.0553 -26.11126,-31.20615 -8.49149,0.84912 -12.73724,8.91602 -12.73724,24.20069 l -7.6423,1.27368 C 590.47361,95.658706 562.87634,81.223209 505.13435,88.016388 l -8.91603,11.463503 c 14.43551,-5.944022 28.23415,-5.731742 41.39591,0.636839 13.1618,6.36862 23.98841,9.55293 32.47983,9.55293 l 1.2739,7.6423 c -14.43559,-0.84916 -28.23426,-4.03345 -41.39603,-9.55287 -13.16179,-5.51947 -25.68671,-4.88261 -37.57476,1.91057 -11.03893,11.03889 -22.50239,30.14469 -34.3904,57.31741 13.58632,5.09486 20.37948,10.6143 20.37948,16.55833 13.58636,0.84915 22.92697,2.97203 28.02184,6.36862 5.0949,3.39659 -0.84912,9.76519 -17.83207,19.1058 -3.39659,20.37953 8.70376,28.23415 36.30103,23.56385 27.59727,-4.67035 42.03275,4.67026 43.30643,28.02183 1.27372,23.35153 0.21223,35.0273 -3.18447,35.0273 22.07781,11.88804 42.45733,12.3126 61.13855,1.27367 -28.87099,-34.81501 -33.11672,-73.45118 -12.73718,-115.90849 z m 36.93787,751.4949 c 22.92697,-132.46691 34.17815,-247.10174 33.75356,-343.90449 -0.42452,-96.80271 -2.12281,-159.42728 -5.09488,-187.87371 -2.97199,-28.44639 -17.61977,-53.28394 -43.94333,-74.51263 -20.3795,16.98295 -44.15561,18.25668 -71.32833,3.8212 v -1.27373 c -35.66417,84.9147 -52.64709,246.25259 -50.94878,484.01366 H 468.19648 L 282.23335,578.39868 c -26.32356,-40.75907 -49.67509,-54.34543 -70.05459,-40.75908 -20.37954,13.58636 -12.10037,49.88737 24.83752,108.90304 36.93789,59.0157 70.69147,151.785 101.26074,278.30789 l -122.27711,38.2116 H 673.26542 Z M 172.69342,463.76381 c -10.18977,18.68126 -5.51946,31.84304 14.01092,39.48534 l 42.03275,-5.09489 c 12.7372,-16.98295 10.18977,-28.44643 -7.6423,-34.39045 z M 166.3248,433.19456 109.00739,272.70579 C 104.76168,255.72288 96.27023,244.25941 83.533029,238.31539 42.773955,226.42734 17.299552,204.34953 7.109821,172.08195 -10.722283,122.83142 4.9869297,89.290123 54.237459,71.458056 c 49.250491,-16.133791 82.367211,0.849137 99.350161,50.948784 10.18977,6.79318 18.46894,12.31264 24.83752,16.55839 6.36862,4.24571 7.00548,10.18973 1.91058,17.83207 -3.39655,8.49145 -12.31259,8.49145 -26.7481,0 -11.88805,-8.49146 -23.77609,-22.2901 -35.66414,-41.39592 C 106.0354,96.295599 88.203316,90.988436 64.427227,99.479891 33.857922,109.66966 23.668153,130.89833 33.857922,163.16592 c 8.491455,22.92693 31.418424,39.0607 68.780908,48.40131 14.43548,3.39659 26.7481,20.37954 36.93787,50.94885 l 59.86482,170.67848 c 50.94884,0 77.2724,23.35153 78.97068,70.05459 l 192.3317,244.55427 c -0.84912,-195.30376 18.2567,-334.13926 57.31746,-416.50649 15.28463,-31.41843 17.40749,-59.44026 6.36856,-84.06551 -7.64229,2.54743 -16.55833,3.82115 -26.7481,3.82115 l -30.21347,117.63208 -43.51249,-11.13419 49.52528,-109.0453 c -9.34061,-2.54747 -14.01092,-9.34065 -14.01092,-20.37954 -0.84916,-8.49145 -3.82117,-14.01092 -8.91604,-16.55839 -5.0949,-2.54743 -5.73178,-5.51944 -1.91063,-8.91603 3.82119,-3.39659 5.30722,-4.6703 4.4581,-3.82115 -5.0949,-0.84915 -8.06693,-2.54745 -8.91608,-5.09488 -0.84916,-2.54743 1.27371,-5.51945 6.36861,-8.91604 -5.0949,-3.39659 -11.03892,-5.94404 -17.83206,-7.64235 -6.79322,-1.69828 -7.2178,-9.76516 -1.27374,-24.20063 12.7372,-22.07781 24.20067,-39.9099 34.3904,-53.496259 l 3.82115,-11.463503 c 2.54747,-9.340612 8.70379,-23.35153 18.46896,-42.032753 9.76521,-18.681224 30.56933,-32.692142 62.41235,-42.0327537 31.84299,-9.3406115 75.78631,-2.1228726 131.82998,21.6532167 56.04367,23.776126 84.06551,194.454622 84.06551,512.035502 h -54.76994 c -0.84927,122.27711 -8.06702,246.25256 -21.65327,371.92633 L 750.96236,1000 H 182.88319 L 176.51457,937.58765 286.0545,905.74467 C 260.58009,808.09284 230.85996,730.60822 196.89411,673.29079 162.92825,615.9734 152.31392,569.05806 165.05112,532.54477 138.72756,502.82462 131.5098,480.32223 143.39785,465.0376 113.6777,443.80891 121.32002,433.19456 166.3248,433.19456 Z"
     id="path1"
     sodipodi:nodetypes="ccccccccccccccccccsssscccscsccssscccscsssccsscccccsscccccsccscccscsscccccssccccccsscccccccccccccccccccccccccccccccccsscscscccssscccccccsccc" />
</svg>
