<?xml version="1.0" encoding="UTF-8" standalone="no"?>
<svg
   width="500"
   height="1000"
   version="1.1"
   id="svg1"
   sodipodi:docname="1366D.svg"
   inkscape:version="1.4.2 (f4327f4, 2025-05-13)"
   xmlns:inkscape="http://www.inkscape.org/namespaces/inkscape"
   xmlns:sodipodi="http://sodipodi.sourceforge.net/DTD/sodipodi-0.dtd"
   xmlns="http://www.w3.org/2000/svg"
   xmlns:svg="http://www.w3.org/2000/svg">
  <defs
     id="defs1" />
  <sodipodi:namedview
     id="namedview1"
     pagecolor="#ffffff"
     bordercolor="#666666"
     borderopacity="1.0"
     inkscape:showpageshadow="2"
     inkscape:pageopacity="0.0"
     inkscape:pagecheckerboard="0"
     inkscape:deskcolor="#d1d1d1"
     inkscape:zoom="0.755"
     inkscape:cx="343.70861"
     inkscape:cy="257.61589"
     inkscape:window-width="1680"
     inkscape:window-height="998"
     inkscape:window-x="-8"
     inkscape:window-y="-8"
     inkscape:window-maximized="1"
     inkscape:current-layer="svg1" />
  <path
     id="path1"
     style="fill:#000000;stroke:none;stroke-width:0.999999"
     d="m 181.71484,0 c -4.008,0 -6.34564,1.6697629 -7.01367,5.0097656 2.67201,2.6720094 9.68495,6.0114984 21.04102,10.0195314 -11.35607,-0.667994 -17.03321,4.009289 -17.03321,14.029297 0,9.352052 1.16979,19.372509 3.50782,30.060547 2.338,10.688036 8.85102,14.695444 19.53906,12.023437 -4.008,12.024059 -8.68528,21.710565 -14.0293,29.058592 -5.34402,7.348 -7.34771,12.02333 -6.01172,14.02735 0,3.34 2.67161,5.00976 8.01563,5.00976 0,3.34004 -1.66976,5.34373 -5.00977,6.01172 0,3.34 1.00184,5.67765 3.00586,7.01367 -2.00402,6.01201 -1.00214,9.68742 3.00586,11.02344 0.38462,7.39098 2.94358,14.18817 5.5873,18.2048 l -40.61567,87.38488 29.43955,10.27492 25.62984,-88.81187 c 9.35205,0 17.36683,-1.00188 24.04687,-3.00586 1.33598,8.01603 5.01143,16.03281 11.02344,24.04883 -32.06412,32.73211 -47.76369,64.46133 -47.0957,95.18946 0.66803,30.72813 4.34342,60.95552 11.02343,90.68164 6.68004,29.72612 10.3535,54.61034 11.02149,74.65039 l -49.09766,248.49609 c -18.03608,105.5444 -31.72998,171.67635 -41.08203,198.39649 -10.02005,26.05211 -21.04238,41.08166 -33.066405,45.08984 -12.024059,4.00801 -32.398935,12.35873 -61.123047,25.05078 -20.04009,3.34006 -31.8962944,9.51909 -35.57031238,18.53711 -3.67398072,9.01796 4.50877508,12.85969 24.54882838,11.52344 25.38411,0 44.255243,-1.33588 56.613281,-4.00782 12.358038,-2.67193 28.557565,-2.00427 48.597655,2.00391 20.04009,4.00806 29.72465,-2.339 29.05664,-19.03906 2.67201,-32.73213 15.53201,-72.31011 38.57813,-118.73633 23.04608,-46.42612 33.56653,-80.99492 31.5625,-103.70703 -2.00398,-22.71207 5.34486,-41.08325 22.04492,-55.11133 h 75.15039 c 15.36406,105.5444 24.71664,173.34606 28.05664,203.40625 1.33602,25.38416 -2.67334,42.2515 -12.02539,50.60156 -9.35202,8.35001 -28.38917,13.86127 -57.11328,16.53321 -17.36808,9.35205 -26.38668,16.53329 -27.05469,21.54297 -0.668,5.00995 5.00918,7.51562 17.0332,7.51562 12.02406,0 26.72181,-0.3341 44.08985,-1.00195 17.36808,-0.66784 38.2429,-0.66784 62.625,0 24.38223,0.66796 32.56489,-7.01482 24.54883,-23.04688 -8.01598,-49.43214 -8.85189,-97.36088 -2.50586,-143.78711 6.34599,-46.42623 2.1726,-90.34755 -12.52344,-131.76367 L 369.08984,548.0957 c 10.68803,-39.41214 10.18614,-76.31856 -1.5039,-110.7207 -11.69005,-34.40211 -12.85791,-73.64816 -3.50586,-117.73633 9.35202,-44.08817 1.00133,-76.81919 -25.05078,-98.19531 h 42.08398 v -51.10352 c 0,-95.524348 -15.36367,-146.792616 -46.0918,-153.806637 C 304.29335,9.5191825 278.57523,6.6796389 257.86719,8.015625 237.1591,9.3516483 219.79175,25.71716 205.76367,57.113281 c -3.34,6.012011 -4.17586,4.676212 -2.50586,-4.007812 1.67,-8.684059 3.67369,-17.36676 6.01172,-26.050781 2.338,-8.684022 0.16832,-16.032873 -6.51172,-22.0449224 C 192.7378,1.6697629 185.72287,0 181.71484,0 Z m 81.16211,22.044922 c 17.36804,-0.66803 38.91079,2.671495 64.62891,10.019531 25.71809,7.348035 38.57812,61.455809 38.57812,162.324217 v 11.02149 H 324 v 33.0664 h -25.31055 c -0.57322,-0.0139 -1.15252,-0.0169 -1.74414,0 h -25.05078 v -95.18945 c 0,-10.02004 3.00752,-18.53675 9.01953,-25.55078 6.01201,-7.01405 10.52128,-14.19497 13.52735,-21.542971 3.00598,-7.348034 2.67011,-14.864825 -1.00391,-22.546875 -3.67402,-7.682012 -13.52653,-9.517763 -29.55859,-5.509765 -9.35201,-11.356031 -22.04409,-16.701197 -38.07618,-16.033203 7.34803,-19.372061 19.70614,-29.390601 37.07422,-30.058594 z m -42.14648,45.777344 c 10.8968,-0.626251 21.60592,3.820803 32.12695,13.339843 v 11.021485 c 4.00801,0.668011 6.01172,2.339727 6.01172,5.011718 -7.34802,4.676028 -11.02148,9.351378 -11.02148,14.027348 0,5.34404 3.00556,8.01562 9.01757,8.01562 4.00803,0 9.35124,-3.00557 16.03125,-9.01758 l -16.03125,18.03516 v 50.10156 c -6.01199,-7.34803 -9.68546,-14.69689 -11.02148,-22.04492 0,-3.34001 -1.66976,-4.67582 -5.00977,-4.00781 -10.02004,5.34404 -21.71026,5.67798 -35.07031,1.00195 -3.34,0 -5.34371,-1.00183 -6.01172,-3.00586 -0.66801,-2.00398 -1.33785,-4.34168 -2.00586,-7.01367 8.01602,-3.34004 13.69516,-7.01543 17.03516,-11.02344 -6.68,-4.67603 -12.02518,-7.68156 -16.0332,-9.01758 v -4.00781 c 6.68007,-0.66801 10.02148,-2.33777 10.02148,-5.00976 -1.33602,-3.34001 -3.33973,-5.00977 -6.01172,-5.00977 -2.00398,0.66801 -2.67191,1.66983 -2.0039,3.00586 1.33598,1.33597 -0.16777,2.16971 -4.50977,2.50391 -4.34199,0.33398 -6.51367,0.16801 -6.51367,-0.5 0,-1.33599 0.33395,-2.67179 1.00195,-4.00782 10.02004,-13.360044 16.36705,-26.720025 19.03906,-40.080075 3.67402,-1.336005 7.32672,-2.109609 10.95899,-2.318359 z m 50.16211,8.330078 c 6.68,0 10.02148,2.337646 10.02148,7.013672 0,4.676026 -0.83585,8.683434 -2.50586,12.023437 -1.67,3.340041 -4.8435,7.349417 -9.51953,12.025387 -5.34403,4.00801 -8.84953,6.17752 -10.51953,6.51172 -1.67,0.33398 -3.00777,4e-5 -4.00976,-1.00195 -1.002,-1.00199 -0.50013,-2.83778 1.5039,-5.50977 l 7.01367,-7.01367 7.01367,-6.01367 c 1.33597,-0.668012 0.83606,-2.169799 -1.50195,-4.507812 -2.33802,-2.338014 -2.50593,-4.341717 -0.50195,-6.011719 2.00404,-1.670001 4.00769,-1.670001 6.01172,0 2.00398,1.670002 2.33794,4.007648 1.00195,7.013672 -1.33602,3.005986 -5.00947,7.515292 -11.02148,13.527339 l 2.0039,1.00196 c 6.68001,-6.680049 10.52143,-11.023367 11.52344,-13.027346 1.00198,-2.004019 1.50391,-4.675622 1.50391,-8.015625 0,-3.340058 -2.67354,-5.009766 -8.01758,-5.009766 -3.34,0 -5.50973,0.667883 -6.51172,2.003906 -1.00199,1.335968 -1.50391,3.005731 -1.50391,5.009766 0,2.672008 1.33582,5.343617 4.00782,8.015625 l -5.00977,3.007812 c -2.00397,-4.676025 -2.50394,-9.35327 -1.50195,-14.029296 1.00197,-4.676026 4.50748,-7.013672 10.51953,-7.013672 z m -52.96485,0.300781 c -3.18345,-0.117419 -6.23568,0.450615 -9.1582,1.703125 -1.33602,2.004018 -1.00207,3.673781 1.00195,5.009766 6.68004,-4.007998 17.03446,-1.336388 31.0625,8.015625 h 7.01368 v -4.007813 h -7.01368 C 232.56747,80.285046 224.93133,76.711447 217.92773,76.453125 Z m 0.36133,10.720703 c -3.67404,0 -6.01363,0.501917 -7.01562,1.503906 -1.00199,1.00199 -1.50196,2.503778 -1.50196,4.507813 0,4.007998 2.33765,5.845697 7.01368,5.511719 4.67602,-0.334017 11.02108,-1.503795 19.03711,-3.507813 -8.01603,-5.344038 -13.85917,-8.015625 -17.53321,-8.015625 z m 40.58008,20.041012 c -1.33603,0 -2.00391,1.00184 -2.00391,3.00586 0,0.668 0.66788,1.33588 2.00391,2.00391 1.33598,0 2.33787,-0.66788 3.00586,-2.00391 -0.66801,-2.00403 -1.6699,-3.00586 -3.00586,-3.00586 z m -67.13476,20.03907 14.02929,3.00586 h -9.01953 c -3.34001,0 -5.00976,-1.00183 -5.00976,-3.00586 z m 17.03515,6.01171 c 0,0.66801 -4.79088,1.53434 -14.0293,4.00977 -2.44442,0.65498 -4.79709,-2.44107 2.00391,-3.00781 z m 46.2168,86.84571 c 0.668,-0.0313 1.29441,0.0796 1.8789,0.33008 v 33.0664 h 15.42579 c -4.57929,9.51563 -5.72091,23.53545 -3.40235,42.08399 -4.00799,34.06814 -2.6722,72.47832 4.00781,115.23047 -1.92603,10.18054 -2.88735,20.6434 -2.88671,31.39062 l -25.16797,5.68359 c -2.00398,-21.37608 -6.17932,-46.59421 -12.52539,-75.65234 -6.34599,-29.05809 -10.01948,-54.10833 -11.02149,-75.15039 -1.002,-21.0421 3.50534,-39.57924 13.52539,-55.61133 8.76755,-14.02805 15.49002,-21.15191 20.16602,-21.37109 z m 65.42187,33.39648 h 18.6211 c 13.36009,13.36004 15.36377,36.40461 6.01172,69.13672 -9.35205,32.73214 -11.6897,67.46885 -7.01368,104.20899 l -23.60546,5.33007 c -0.8514,-7.24327 -2.00113,-13.6967 -3.44922,-19.35742 3.34004,-22.04411 7.68332,-56.78081 13.02734,-104.20898 2.82944,-25.11143 1.63099,-43.48076 -3.5918,-55.10938 z m 22.62891,191.38281 c 18.03607,29.39214 18.36999,63.45901 1.00195,102.20313 l 23.04688,131.26367 H 201.75586 l 41.08203,-204.41015 28.64258,-8.30665 c 0.98235,7.96867 2.45568,16.08182 4.42187,24.33985 6.68005,28.05611 7.68384,52.4384 3.00782,73.14648 -8.15092,12.22637 -13.71272,25.92031 -16.6836,41.08203 h -38.42773 v 25.04883 h 35.89062 c -0.11327,7.39432 0.28136,15.07711 1.1836,23.04688 8.68405,1.33597 14.6971,-2.33745 18.03711,-11.02149 32.06411,1.33597 47.76176,-2.33939 47.09375,-11.02343 0,-0.33505 -7.4e-4,-0.66881 -0.002,-1.00196 h 25.05078 v -25.04883 h -26.49804 c -2.24717,-18.44641 -7.10906,-32.80793 -14.58399,-43.08593 v -1.00196 c 5.07171,-43.95479 7.06101,-79.7338 5.98242,-107.37695 z"
     sodipodi:nodetypes="sccsscscccccccccccsscccscscsscsscccscsssscsccssccssscsscssssccccccsscsccsscccssccccccsccccccccsccssssccscccssssccsssssccsssccccccssssscsssccsccsccsccscccccccssssccscccscccccccscccccccccccccccc" />
</svg>
