<?xml version="1.0" encoding="UTF-8" standalone="no"?>
<svg
   width="15.989875"
   height="17.986961"
   version="1.1"
   id="svg1"
   sodipodi:docname="1366F.svg"
   inkscape:version="1.4.2 (f4327f4, 2025-05-13)"
   xmlns:inkscape="http://www.inkscape.org/namespaces/inkscape"
   xmlns:sodipodi="http://sodipodi.sourceforge.net/DTD/sodipodi-0.dtd"
   xmlns="http://www.w3.org/2000/svg"
   xmlns:svg="http://www.w3.org/2000/svg">
  <defs
     id="defs1" />
  <sodipodi:namedview
     id="namedview1"
     pagecolor="#ffffff"
     bordercolor="#666666"
     borderopacity="1.0"
     inkscape:showpageshadow="2"
     inkscape:pageopacity="0.0"
     inkscape:pagecheckerboard="0"
     inkscape:deskcolor="#d1d1d1"
     inkscape:zoom="64"
     inkscape:cx="12.039062"
     inkscape:cy="5.1328125"
     inkscape:window-width="1680"
     inkscape:window-height="998"
     inkscape:window-x="-8"
     inkscape:window-y="-8"
     inkscape:window-maximized="1"
     inkscape:current-layer="svg1" />
  <path
     style="fill:#000000;stroke:none"
     d="M 10.508556,15.149855 H 9.818449 L 7.077191,11.641811 C 6.6810183,11.028382 6.3327697,10.823906 6.032445,11.028382 c -0.300324,0.204477 -0.1757213,0.750812 0.373808,1.639005 0.54953,0.888193 1.0543307,2.284382 1.514402,4.188566 l -1.840286,0.55592 6.881901,0.01917 -0.479242,-0.345053 C 12.93032,15.105126 13.205085,13.002856 13.307323,10.779178 13.409561,8.5554993 13.115627,7.44366 12.42552,7.44366 c -0.408952,0 -0.766785,0.3450537 -1.0735,1.035161 -0.485631,1.4057733 -0.766785,3.629451 -0.843464,6.671034 z M 11.754582,7.117776 C 12.022957,6.9388593 12.361621,6.849401 12.770574,6.849401 12.399961,6.4148897 12.176315,6.0762263 12.099636,5.833411 12.585267,5.4244583 12.760988,5.1592783 12.626801,5.037871 12.492614,4.916463 12.323282,4.9835567 12.118806,5.239152 11.633175,4.7279613 11.179493,4.523485 10.757761,4.625723 c -0.01278,0.230036 -0.07987,0.4217327 -0.201281,0.57509 -0.121407,0.1533567 -0.25879,0.389782 -0.412147,0.709276 h 0.383392 c 0,0.5623093 0.204476,0.843464 0.613429,0.843464 0.408952,0 0.613428,0.1214077 0.613428,0.364223 z M 10.796101,5.162473 c 0.127797,-0.319494 0.466461,-0.306714 1.015991,0.03834 -0.600649,0.2939347 -0.939312,0.2811547 -1.015991,-0.03834 z m 2.051151,1.169348 c 0.08946,-0.51119 0.408953,-1.092669 0.958482,-1.744437 0.626208,-0.9840413 1.02238,-2.0447613 1.188517,-3.18216 0.523971,-0.3706127 0.651769,-0.658157 0.383394,-0.862633 -0.255596,-0.217256 -0.504802,-0.0255597 -0.747617,0.575089 -1.0735,0.4345113 -2.006422,1.0734993 -2.798767,1.916964 -0.383393,0.49841 -0.594259,0.8945823 -0.632598,1.188517 0.319494,0.051119 0.658158,0.2300353 1.015991,0.53675 0.0639,-0.063899 0.185306,-0.083068 0.364222,-0.057509 0.178917,0.025559 0.306715,0.1214077 0.383394,0.287545 0.07668,0.1661367 -0.0064,0.3738077 -0.249206,0.623013 -0.242815,0.2492053 -0.198085,0.4888257 0.134188,0.718861 z m -6.000097,4.140643 3.067142,3.699739 c 0.102239,-2.939345 0.492021,-5.0224453 1.169348,-6.249302 0.319494,-0.5878687 0.300324,-0.881803 -0.05751,-0.881803 H 10.776931 L 9.981975,8.8569808 9.370871,8.6211373 10.393538,6.868571 C 10.27852,6.7152137 10.25296,6.536297 10.316859,6.331821 c 0,-0.102238 -0.108628,-0.1757213 -0.325884,-0.22045 C 9.7737197,6.066642 9.7960843,5.8493857 10.058069,5.459603 10.320054,5.0698203 10.444657,4.81742 10.431877,4.702402 c -0.01278,-0.089459 10e-7,-0.1597473 0.03834,-0.210866 0.620655,-1.8929375 2.096083,-2.864752 3.872274,-3.603892 0.07668,-0.37061267 0.230035,-0.63579267 0.460071,-0.79554 0.230036,-0.15974667 0.504801,-0.11182267 0.824294,0.143772 0.319495,0.242816 0.428123,0.49521633 0.325884,0.757201 -0.102238,0.2619853 -0.325884,0.4696563 -0.670937,0.623013 -0.166137,1.1501787 -0.380198,1.9744733 -0.642183,2.472884 -0.261985,0.49841 -0.498411,0.8754127 -0.709277,1.131008 -0.380835,0.5216745 -0.642182,1.0817572 -0.642182,1.782777 0.396172,0.4728507 0.562309,1.7508263 0.49841,3.833927 -0.0639,2.083101 -0.242815,4.057574 -0.53675,5.923419 l 0.900973,1.226856 H 5.581959 L 5.486111,17.028479 7.1347,16.568409 C 6.7640867,15.098736 6.2912353,13.871878 5.716146,12.887837 5.1410573,11.903796 5.0670193,11.002409 5.2724235,10.715882 5.6996041,10.11999 6.4369121,9.9776087 6.847155,10.472464 Z"
     id="path1"
     sodipodi:nodetypes="cccssccccsscccccsccsccsccccccccccccssscsccscccccsscccscscsscscccccsss" />
</svg>
