<?xml version="1.0" encoding="UTF-8" standalone="no"?>
<svg
   width="15.989875"
   height="17.986961"
   version="1.1"
   id="svg1"
   sodipodi:docname="13673.svg"
   inkscape:version="1.4.2 (f4327f4, 2025-05-13)"
   xmlns:inkscape="http://www.inkscape.org/namespaces/inkscape"
   xmlns:sodipodi="http://sodipodi.sourceforge.net/DTD/sodipodi-0.dtd"
   xmlns="http://www.w3.org/2000/svg"
   xmlns:svg="http://www.w3.org/2000/svg">
  <defs
     id="defs1" />
  <sodipodi:namedview
     id="namedview1"
     pagecolor="#ffffff"
     bordercolor="#666666"
     borderopacity="1.0"
     inkscape:showpageshadow="2"
     inkscape:pageopacity="0.0"
     inkscape:pagecheckerboard="0"
     inkscape:deskcolor="#d1d1d1"
     inkscape:zoom="29.680701"
     inkscape:cx="16.424814"
     inkscape:cy="10.393959"
     inkscape:window-width="1680"
     inkscape:window-height="998"
     inkscape:window-x="-8"
     inkscape:window-y="-8"
     inkscape:window-maximized="1"
     inkscape:current-layer="svg1" />
  <path
     style="fill:#000000;stroke:none"
     d="M 10.508556,15.149855 H 9.818449 L 7.077191,11.641811 C 6.6810183,11.028382 6.3327697,10.823906 6.032445,11.028382 c -0.300324,0.204477 -0.1757213,0.750812 0.373808,1.639005 0.54953,0.888193 1.0543307,2.284382 1.514402,4.188566 l -1.840286,0.55592 6.881901,0.01917 -0.479242,-0.345053 C 12.93032,15.105126 13.205085,13.002856 13.307323,10.779178 13.409561,8.5554993 13.115627,7.44366 12.42552,7.44366 c -0.408952,0 -0.766785,0.3450537 -1.0735,1.035161 -0.485631,1.4057733 -0.766785,3.629451 -0.843464,6.671034 z M 11.754582,7.117776 C 12.022957,6.9388593 12.361621,6.849401 12.770574,6.849401 12.399961,6.4148897 12.176315,6.0762263 12.099636,5.833411 12.585267,5.4244583 12.760988,5.1592783 12.626801,5.037871 12.492614,4.916463 12.323282,4.9835567 12.118806,5.239152 11.633175,4.7279613 11.179493,4.523485 10.757761,4.625723 c -0.01278,0.230036 -0.07987,0.4217327 -0.201281,0.57509 -0.121407,0.1533567 -0.25879,0.389782 -0.412147,0.709276 h 0.383392 c 0,0.5623093 0.204476,0.843464 0.613429,0.843464 0.408952,0 0.613428,0.1214077 0.613428,0.364223 z M 10.796101,5.162473 c 0.127797,-0.319494 0.466461,-0.306714 1.015991,0.03834 -0.600649,0.2939347 -0.939312,0.2811547 -1.015991,-0.03834 z m 3.393026,3.623062 h 0.47924 c 0.01278,-1.4185533 -0.440901,-2.13422 -1.361044,-2.147 0.587869,0.242816 0.881804,0.9584827 0.881804,2.147 z M 12.847252,6.331821 c 0.08946,-0.51119 0.408953,-1.092669 0.958482,-1.744437 0.626208,-0.9840413 1.02238,-2.0447613 1.188517,-3.18216 0.523971,-0.3706127 0.651769,-0.658157 0.383394,-0.862633 -0.255596,-0.217256 -0.504802,-0.0255597 -0.747617,0.575089 -1.0735,0.4345113 -2.006422,1.0734993 -2.798767,1.916964 -0.383393,0.49841 -0.594259,0.8945823 -0.632598,1.188517 0.319494,0.051119 0.658158,0.2300353 1.015991,0.53675 0.0639,-0.063899 0.185306,-0.083068 0.364222,-0.057509 0.178917,0.025559 0.306715,0.1214077 0.383394,0.287545 0.07668,0.1661367 -0.0064,0.3738077 -0.249206,0.623013 -0.242815,0.2492053 -0.198085,0.4888257 0.134188,0.718861 z M 5.313584,9.916544 c -0.1661367,0.281155 -0.102238,0.479241 0.191696,0.594258 l 0.632598,-0.07668 C 6.3295747,10.178529 6.2912357,10.006002 6.022861,9.916544 Z M 5.236906,9.456472 3.492468,5.469188 2.016406,10.740838 C 1.8886087,11.085891 1.7799807,11.239249 1.690522,11.20091 1.4349273,11.098671 1.3326893,10.868635 1.383808,10.510802 1.3326893,10.613041 1.2592057,10.712084 1.163357,10.807932 1.067509,10.90378 0.974856,10.932535 0.885398,10.894196 0.77038,10.855856 0.712871,10.772787 0.712871,10.64499 c 0,-0.127797 0.0191697,-0.242815 0.057509,-0.345054 -0.217256,0.293935 -0.45368167,0.396173 -0.709277,0.306714 -0.102238,-0.05112 -0.07667833,-0.242815 0.076679,-0.575088 L 2.706513,5.392509 3.41579,4.165652 5.735316,9.456472 c 0.741226,0 1.111839,0.338664 1.111839,1.015992 l 3.067142,3.699739 c 0.102239,-2.939345 0.492021,-5.0224453 1.169348,-6.249302 0.319494,-0.5878687 0.300324,-0.881803 -0.05751,-0.881803 H 10.776931 L 10.276779,8.8569808 9.6720351,8.605823 10.393538,6.868571 C 10.27852,6.7152137 10.25296,6.536297 10.316859,6.331821 c 0,-0.102238 -0.108628,-0.1757213 -0.325884,-0.22045 -0.2172553,-0.044729 -0.1948907,-0.2619853 0.067094,-0.651768 0.261985,-0.3897827 0.386588,-0.642183 0.373808,-0.757201 -0.01278,-0.089459 10e-7,-0.1597473 0.03834,-0.210866 -0.230036,-0.063899 -0.351444,-0.261985 -0.364224,-0.594259 -0.01278,-0.3322733 0.05112,-0.5399443 0.191697,-0.623013 0.140577,-0.083069 0.150162,-0.118213 0.02876,-0.105433 -0.121408,0.01278 -0.194892,-0.012779 -0.220452,-0.076678 -0.02556,-0.063899 1e-6,-0.1150187 0.07668,-0.153358 0.07668,-0.038339 0.162941,-0.070289 0.25879,-0.095848 0.09585,-0.025559 0.188501,-0.00639 0.277959,0.057509 0.08946,0.076679 0.140577,0.1533573 0.153357,0.230036 0,0.1533573 -0.07668,0.329079 -0.230036,0.527165 -0.153357,0.198086 -0.121407,0.348248 0.09585,0.450486 v 0 c 0.127798,-0.408952 0.28435,-0.7508103 0.469657,-1.025575 0.185307,-0.2747653 0.488826,-0.5974543 0.910558,-0.968067 0.421732,-0.3706133 1.162958,-0.7795657 2.223678,-1.226857 0.07668,-0.37061267 0.230035,-0.63579267 0.460071,-0.79554 0.230036,-0.15974667 0.504801,-0.11182267 0.824294,0.143772 0.319495,0.242816 0.428123,0.49521633 0.325884,0.757201 -0.102238,0.2619853 -0.325884,0.4696563 -0.670937,0.623013 -0.166137,1.1501787 -0.380198,1.9744733 -0.642183,2.472884 -0.261985,0.49841 -0.498411,0.8754127 -0.709277,1.131008 -0.210865,0.2555953 -0.367417,0.6262083 -0.469656,1.111839 1.047941,0 1.571911,0.952092 1.571911,2.856276 h -1.207688 c 0,-1.456892 -0.185306,-2.185338 -0.555919,-2.185338 h 0.01917 c 0.396172,0.4728507 0.562309,1.7508263 0.49841,3.833927 -0.0639,2.083101 -0.242815,4.057574 -0.53675,5.923419 l 0.900973,1.226856 H 5.581959 L 5.486111,17.028479 7.1347,16.568409 C 6.7640867,15.098736 6.2912353,13.871878 5.716146,12.887837 5.1410573,11.903796 4.9749207,11.283978 5.217736,11.028382 4.8343433,10.65777 4.7129357,10.293547 4.853513,9.935714 4.406221,9.6162193 4.5340187,9.456472 5.236906,9.456472 Z M 1.748031,10.261597 3.070736,5.584206 0.693701,9.859035 Z"
     id="path1"
     sodipodi:nodetypes="cccssccccsscccccsccsccsccccccccccccccccssscccccccccccscscccccccccscccccssccssssssccssssscscscsscccccscccccsccccccc" />
</svg>
