<?xml version="1.0" encoding="UTF-8" standalone="no"?>
<svg
   width="16.246569"
   height="17.986961"
   version="1.1"
   id="svg1"
   sodipodi:docname="1367A.svg"
   inkscape:version="1.4.2 (f4327f4, 2025-05-13)"
   xmlns:inkscape="http://www.inkscape.org/namespaces/inkscape"
   xmlns:sodipodi="http://sodipodi.sourceforge.net/DTD/sodipodi-0.dtd"
   xmlns="http://www.w3.org/2000/svg"
   xmlns:svg="http://www.w3.org/2000/svg">
  <defs
     id="defs1" />
  <sodipodi:namedview
     id="namedview1"
     pagecolor="#ffffff"
     bordercolor="#666666"
     borderopacity="1.0"
     inkscape:showpageshadow="2"
     inkscape:pageopacity="0.0"
     inkscape:pagecheckerboard="0"
     inkscape:deskcolor="#d1d1d1"
     inkscape:zoom="32"
     inkscape:cx="16.921875"
     inkscape:cy="8.890625"
     inkscape:window-width="1680"
     inkscape:window-height="998"
     inkscape:window-x="-8"
     inkscape:window-y="-8"
     inkscape:window-maximized="1"
     inkscape:current-layer="svg1" />
  <path
     id="path1"
     style="fill:#000000;stroke:none"
     d="M 15.335938 0 C 15.237094 0.0014976253 15.144857 0.031891874 15.058594 0.091796875 C 14.828559 0.25154421 14.676289 0.51610608 14.599609 0.88671875 C 13.538889 1.33401 12.796732 1.7446211 12.375 2.1152344 C 11.953268 2.4858471 11.650151 2.807266 11.464844 3.0820312 C 11.279537 3.3567959 11.123891 3.6984699 10.996094 4.1074219 C 10.778836 4.0051839 10.747034 3.8562891 10.900391 3.6582031 C 11.053747 3.4601171 11.128906 3.2842167 11.128906 3.1308594 C 11.116126 3.0541807 11.066023 2.9770696 10.976562 2.9003906 C 10.887104 2.8364916 10.793116 2.818191 10.697266 2.84375 C 10.601418 2.869309 10.516133 2.9011141 10.439453 2.9394531 C 10.362772 2.9777924 10.337721 3.0278979 10.363281 3.0917969 C 10.388841 3.1556959 10.462577 3.1807487 10.583984 3.1679688 C 10.621922 3.163975 10.645849 3.1645554 10.658203 3.1699219 L 10.660156 3.171875 L 10.662109 3.171875 L 10.664062 3.1738281 L 10.666016 3.1757812 L 10.666016 3.1777344 L 10.667969 3.1796875 L 10.667969 3.1816406 L 10.667969 3.1835938 L 10.667969 3.1855469 L 10.666016 3.1875 C 10.657684 3.2053779 10.620583 3.2344989 10.554688 3.2734375 C 10.414111 3.3565062 10.350501 3.5642111 10.363281 3.8964844 C 10.376061 4.2287584 10.496526 4.4282885 10.726562 4.4921875 C 10.688223 4.5433062 10.676673 4.613666 10.689453 4.703125 C 10.702233 4.818143 10.576438 5.0692017 10.314453 5.4589844 C 10.052472 5.8487671 10.030791 6.0665991 10.248047 6.1113281 C 10.465303 6.1560568 10.574219 6.2297933 10.574219 6.3320312 C 10.510322 6.5365073 10.535374 6.7157833 10.650391 6.8691406 C 10.382457 7.797853 10.096675 8.440509 9.59375 8.546875 C 8.9624194 8.2014301 8.7221224 9.1777344 9.5683594 9.1777344 C 10.237348 9.1777344 10.741521 7.9112087 11.033203 7.0410156 L 11.283203 7.0410156 C 11.641036 7.0410156 11.659337 7.3359594 11.339844 7.9238281 C 10.662516 9.1506848 10.274112 11.23253 10.171875 14.171875 L 7.1035156 10.472656 C 7.1035156 9.7953282 6.8355774 9.450279 6.2988281 9.4375 L 6.2988281 6.734375 C 6.2988281 6.2615237 6.2101667 5.9617817 6.03125 5.8339844 C 5.5456193 5.5272704 5.3027344 5.1822214 5.3027344 4.7988281 C 5.3027344 4.2876381 5.5456193 4.03125 6.03125 4.03125 C 6.4146427 4.03125 6.6440244 4.1970236 6.7207031 4.5292969 C 6.7973818 4.8615709 6.8995464 5.1179583 7.0273438 5.296875 C 7.1807004 5.4885717 7.3079175 5.5386774 7.4101562 5.4492188 C 7.5123943 5.3597607 7.532649 5.267724 7.46875 5.171875 C 7.4048513 5.076027 7.314236 4.9637355 7.1992188 4.8359375 C 7.1992187 4.0308128 6.8108153 3.622154 6.03125 3.609375 C 5.2389047 3.609375 4.8417969 4.0064834 4.8417969 4.7988281 C 4.8417969 5.3100188 5.1029824 5.7437292 5.6269531 6.1015625 C 5.7675304 6.2676992 5.8330925 6.4720285 5.8203125 6.7148438 L 5.8203125 9.4570312 L 5.7421875 9.4570312 L 3.4042969 4.0898438 L 2.7148438 5.3164062 L 0.14453125 9.9746094 C -0.00882608 10.306884 -0.040630545 10.490957 0.048828125 10.529297 C 0.3044228 10.618756 0.5405565 10.516591 0.7578125 10.222656 C 0.7194735 10.324894 0.7045475 10.440561 0.7109375 10.568359 C 0.7173275 10.696156 0.77080887 10.780019 0.87304688 10.818359 C 0.96250554 10.856697 1.0598714 10.829694 1.1621094 10.740234 C 1.2643474 10.650775 1.3347079 10.555362 1.3730469 10.453125 C 1.3219276 10.810958 1.4240922 11.040341 1.6796875 11.142578 C 1.7691455 11.180918 1.8828595 11.021895 2.0234375 10.664062 L 3.5 5.4121094 L 5.2441406 9.4570312 C 4.7329499 9.4570312 4.687643 9.6160522 5.109375 9.9355469 C 4.9687977 10.29338 5.0912167 10.658685 5.4746094 11.029297 C 5.2317941 11.284893 5.3975669 11.904631 5.9726562 12.888672 C 6.5477455 13.872713 7.0200123 15.098686 7.390625 16.568359 L 5.7421875 17.029297 L 5.8378906 17.986328 L 14.408203 17.986328 L 13.505859 16.759766 C 13.799794 14.893921 13.979069 12.919038 14.042969 10.835938 C 14.106836 8.7538677 13.940671 7.4773194 13.544922 7.0039062 C 13.902362 7.0295619 14.082031 7.7567321 14.082031 9.1875 L 15.289062 9.1875 C 15.289063 7.283316 14.764737 6.3320312 13.716797 6.3320312 C 13.819034 5.8464006 13.976633 5.4762984 14.1875 5.2207031 C 14.398366 4.9651078 14.634499 4.5882537 14.896484 4.0898438 C 15.158469 3.591433 15.372925 2.7654131 15.539062 1.6152344 C 15.884116 1.4618777 16.106746 1.2541728 16.208984 0.9921875 C 16.311221 0.73020283 16.202306 0.47914413 15.882812 0.23632812 C 15.683129 0.076581456 15.500677 -0.0024960422 15.335938 0 z M 15.419922 0.45703125 C 15.490797 0.45343697 15.56288 0.4818655 15.634766 0.54296875 C 15.903141 0.74744475 15.77397 1.0336842 15.25 1.4042969 C 15.083863 2.5416956 14.688708 3.6038493 14.0625 4.5878906 C 13.512969 5.2396586 13.192976 5.8208412 13.103516 6.3320312 C 12.771242 6.1019959 12.727888 5.8624865 12.970703 5.6132812 C 13.213508 5.364076 13.29543 5.1563711 13.21875 4.9902344 C 13.142072 4.8240971 13.014855 4.728684 12.835938 4.703125 C 12.657022 4.677566 12.534603 4.6958666 12.470703 4.7597656 C 12.11287 4.4530509 11.774571 4.2737752 11.455078 4.2226562 C 11.493417 3.9287216 11.704498 3.5335662 12.087891 3.0351562 C 12.880236 2.1916915 13.813219 1.5516988 14.886719 1.1171875 C 15.061242 0.68547125 15.238796 0.46621664 15.419922 0.45703125 z M 11.255859 4.5996094 C 11.608251 4.609993 11.980425 4.8229388 12.375 5.2382812 C 12.579476 4.982686 12.748625 4.9157014 12.882812 5.0371094 C 13.017 5.1585167 12.8411 5.4250317 12.355469 5.8339844 C 12.432148 6.0767997 12.656731 6.4150981 13.027344 6.8496094 C 12.618391 6.8496094 12.280094 6.9382708 12.011719 7.1171875 C 12.011719 6.8743722 11.807391 6.7539062 11.398438 6.7539062 C 10.989486 6.7539062 10.785156 6.4724655 10.785156 5.9101562 L 10.400391 5.9101562 C 10.553748 5.5906623 10.691093 5.3545286 10.8125 5.2011719 C 10.933912 5.0478146 11.000892 4.855036 11.013672 4.625 C 11.092747 4.6058304 11.174538 4.5972132 11.255859 4.5996094 z M 11.402344 4.9316406 C 11.233012 4.9252506 11.116633 5.0023624 11.052734 5.1621094 C 11.129412 5.4816041 11.46771 5.4951066 12.068359 5.2011719 C 11.793595 5.0286449 11.571676 4.9380306 11.402344 4.9316406 z M 3.0585938 5.5273438 L 1.7558594 10.185547 L 0.68164062 9.7832031 L 3.0585938 5.5273438 z M 13.564453 6.6386719 C 14.484596 6.6514519 14.938561 7.3666029 14.925781 8.7851562 L 14.445312 8.7851562 C 14.445312 7.596639 14.152322 6.8814879 13.564453 6.6386719 z M 12.681641 7.4433594 C 13.371748 7.4433594 13.666692 8.5556172 13.564453 10.779297 C 13.462216 13.002975 13.187526 15.105075 12.740234 17.085938 L 13.21875 17.431641 L 6.3378906 17.412109 L 8.1777344 16.855469 C 7.7176631 14.951285 7.2116387 13.556162 6.6621094 12.667969 C 6.1125801 11.779776 5.9887385 11.233774 6.2890625 11.029297 C 6.5893865 10.824821 6.9378117 11.029149 7.3339844 11.642578 L 10.074219 15.150391 L 10.765625 15.150391 C 10.842304 12.108808 11.123744 9.8842889 11.609375 8.4785156 C 11.91609 7.7884083 12.272689 7.4433594 12.681641 7.4433594 z M 5.5703125 9.9160156 L 6.2792969 9.9160156 C 6.5476722 10.005474 6.5862279 10.178001 6.3945312 10.433594 L 5.7617188 10.511719 C 5.4677841 10.396702 5.4041752 10.197171 5.5703125 9.9160156 z " />
</svg>
