<?xml version="1.0" encoding="UTF-8" standalone="no"?>
<svg
   width="12.567275"
   height="17.983217"
   version="1.1"
   id="svg1"
   sodipodi:docname="1368E.svg"
   inkscape:version="1.4.2 (f4327f4, 2025-05-13)"
   xmlns:inkscape="http://www.inkscape.org/namespaces/inkscape"
   xmlns:sodipodi="http://sodipodi.sourceforge.net/DTD/sodipodi-0.dtd"
   xmlns="http://www.w3.org/2000/svg"
   xmlns:svg="http://www.w3.org/2000/svg">
  <defs
     id="defs1" />
  <sodipodi:namedview
     id="namedview1"
     pagecolor="#ffffff"
     bordercolor="#666666"
     borderopacity="1.0"
     inkscape:showpageshadow="2"
     inkscape:pageopacity="0.0"
     inkscape:pagecheckerboard="0"
     inkscape:deskcolor="#d1d1d1"
     inkscape:zoom="29.68688"
     inkscape:cx="4.2611416"
     inkscape:cy="7.2590988"
     inkscape:window-width="1680"
     inkscape:window-height="998"
     inkscape:window-x="-8"
     inkscape:window-y="-8"
     inkscape:window-maximized="1"
     inkscape:current-layer="svg1" />
  <path
     id="path4"
     style="fill:#000000;stroke:none"
     d="M 12.033203,0 9.6113281,3.9277344 H 9.4960938 c -0.3305507,0 -1.3014044,-0.5657663 -2.9160157,-1.6972656 C 6.2241001,1.8999181 6.0415122,1.5605582 6.0351562,1.2109375 6.0287989,0.86131683 6.1437063,0.660229 6.3789062,0.609375 6.6141056,0.558521 6.7728314,0.5906568 6.8554688,0.70507812 c 0.082638,0.11442135 0.07582,0.2293287 -0.019531,0.34374998 -0.095351,0.1144213 -0.1713046,0.1144213 -0.2285156,0 C 6.5502109,0.93440684 6.4893482,0.87695312 6.4257812,0.87695312 6.2859332,0.91509379 6.2523416,1.0163653 6.3222656,1.1816406 c 0.069924,0.1652747 0.1999223,0.2431821 0.390625,0.2304688 0.190702,-0.012713 0.320701,-0.073576 0.390625,-0.1816406 0.069924,-0.1080647 0.1054688,-0.23319893 0.1054688,-0.37304692 0,-0.13984869 -0.050636,-0.2596208 -0.1523438,-0.36132813 C 6.9549326,0.39438575 6.8078895,0.3301142 6.6171875,0.3046875 6.4264855,0.27926017 6.2356246,0.32503181 6.0449219,0.43945312 5.8542199,0.55387446 5.7461298,0.74960018 5.7207031,1.0292969 5.6952764,1.3089936 5.778048,1.6113536 5.96875,1.9355469 6.159452,2.2597409 6.5056298,2.5874181 7.0078125,2.9179688 7.5099952,3.2485186 8.035352,3.5844704 8.5820312,3.9277344 H 5.7597656 C 5.8996143,4.4235604 6.0008858,4.844236 6.0644531,5.1875 6.0771664,5.289208 5.9539854,5.5594322 5.6933594,5.9980469 5.4327327,6.4366622 5.4088707,6.6747499 5.625,6.7128906 c 0.2161293,0.03814 0.3242188,0.1140943 0.3242188,0.2285156 -0.025427,0.2542693 -1.091e-4,0.4314952 0.076172,0.5332032 L 5.0761719,9.1386719 5.6640625,9.3945312 6.4082031,7.6464844 h 0.265625 c 0.343264,0 0.3568987,0.2872683 0.039063,0.859375 C 6.0517888,9.7390667 5.6632494,11.638908 5.5488281,14.207031 L 2.5546875,10.46875 C 2.5546875,9.7949353 2.1866,9.4589844 1.4492188,9.4589844 L 1.4355469,6.75 C 1.4101202,6.49573 1.4724387,6.2931863 1.625,6.140625 2.1462527,5.7846477 2.4013852,5.3454713 2.3886719,4.8242188 2.3886719,4.0359826 2.0001314,3.6425781 1.2246094,3.6425781 0.4490862,3.6552914 0.0625,4.0623319 0.0625,4.8632812 c -0.1144213,0.1398487 -0.20401113,0.2547561 -0.26757812,0.34375 -0.0635669,0.088995 -0.0450674,0.1766311 0.0566406,0.265625 0.101708,0.088995 0.2302512,0.045176 0.3828125,-0.1328124 C 0.3615097,5.1618551 0.4627815,4.9067226 0.5390625,4.5761719 0.6153432,4.2456212 0.84320463,4.0800781 1.2246094,4.0800781 c 0.483112,0 0.7246094,0.2551326 0.7246094,0.7636719 0,0.3686907 -0.2414974,0.7114596 -0.7246094,1.0292969 C 1.0339067,5.9874676 0.94627038,6.2796007 0.95898438,6.75 L 0.953125,9.4589844 c -0.69924133,0 -0.82583137,0.1587258 -0.38085938,0.4765625 -0.15256199,0.3559781 -0.019154,0.7191981 0.40039063,1.0878911 -0.241556,0.343263 -0.093057,0.988391 0.44726565,1.935546 0.5403233,0.947153 0.9965437,2.151231 1.3652343,3.613282 l -1.640625,0.457031 0.095703,0.953125 h 8.5234375 l -0.8964844,-1.21875 c 0.29241,-1.856169 0.4715891,-3.729237 0.5351563,-5.617188 0.063454,-1.8845948 -0.1593957,-3.0885763 -0.6660157,-3.6113278 0.468593,0.070748 0.703125,0.8136451 0.703125,2.2285157 h 1.2207029 c 0.02543,-1.9578753 -0.558839,-2.9375 -1.753906,-2.9375 L 12.566406,0.24804688 C 12.439271,0.07005821 12.262046,-0.01271333 12.033203,0 Z m 0.05664,0.34375 0.07617,0.0371094 L 8.5234375,6.8457031 8.1425781,6.5976562 c 0,-0.076281 0.1012708,-0.2247796 0.3046875,-0.4472656 C 8.6506809,5.9279046 8.6998616,5.6898162 8.5917969,5.4355469 8.4837322,5.1812769 8.2320086,5.1306411 7.8378906,5.2832031 7.4437733,5.0162198 6.9724613,4.8828125 6.4257812,4.8828125 L 6.3125,4.3105469 H 9.7636719 Z M 6.4082031,5.2246094 c 0.5085393,0.025427 0.9778983,0.1792875 1.4101563,0.4589844 0.101708,-0.1144221 0.209798,-0.171875 0.3242187,-0.171875 0.114422,0 0.178693,0.057453 0.1914063,0.171875 0.012714,0.1144211 -0.088558,0.2848291 -0.3046875,0.5136718 -0.2161293,0.228842 -0.3125361,0.408021 -0.2871094,0.5351563 L 8.5058594,7.2089844 8.390625,7.4375 C 7.9837937,7.450213 7.6478427,7.5446677 7.3808594,7.7226562 c 0,-0.2542692 -0.2044967,-0.3808593 -0.6113282,-0.3808593 -0.4068312,0 -0.609375,-0.2736325 -0.609375,-0.8203125 H 5.7773438 C 5.9299057,6.2036471 6.0618572,5.9538761 6.1699219,5.7695312 6.2779866,5.5851852 6.3573491,5.4025981 6.4082031,5.2246094 Z m 0.3085938,0.3203125 c -0.1383585,0.00939 -0.2353942,0.081352 -0.2910157,0.2148437 0.076281,0.3178373 0.4210027,0.3363369 1.03125,0.056641 C 7.1423726,5.6233198 6.8946863,5.5328541 6.7167969,5.5449219 Z M 8.9433594,7.2460938 C 9.8460161,7.2588071 10.29201,7.9716165 10.279297,9.3828125 H 9.8027344 c 0,-1.1823533 -0.2872683,-1.8951628 -0.859375,-2.1367187 z M 8.046875,8.0292969 c 0.6992413,0 0.9947833,1.0200333 0.8867188,3.0605471 -0.1080647,2.040513 -0.3782889,4.040172 -0.8105469,5.998047 l 0.4785156,0.341797 H 1.7539062 L 3.5859375,16.857422 C 3.1155388,14.963113 2.6072262,13.574992 2.0605469,12.691406 1.5138669,11.807819 1.3921416,11.263963 1.6972656,11.060547 c 0.3051233,-0.203415 0.6547101,0.0011 1.0488282,0.611328 l 2.7265624,3.488281 H 6.140625 C 6.229619,12.503039 6.5100694,10.476608 6.9804688,9.078125 7.2983054,8.391597 7.652757,8.0420102 8.046875,8.0292969 Z M 1.0097656,9.9160156 h 0.7265625 c 0.2542693,0.088995 0.29127,0.2798554 0.1132813,0.5722654 l -0.6289063,0.01953 C 0.92829315,10.393394 0.85720365,10.195713 1.0097656,9.9160156 Z"
     sodipodi:nodetypes="ccsccsssscsssssssssscccsscccccscccccccccsscssscccccscccccsccccccccccsscccccccsssccccsccsccccccccccsccccsscccccccccc" />
</svg>
