<?xml version="1.0" encoding="UTF-8" standalone="no"?>
<svg
   width="800"
   height="1000"
   version="1.1"
   id="svg1"
   sodipodi:docname="13686.svg"
   inkscape:version="1.4.2 (f4327f4, 2025-05-13)"
   xmlns:inkscape="http://www.inkscape.org/namespaces/inkscape"
   xmlns:sodipodi="http://sodipodi.sourceforge.net/DTD/sodipodi-0.dtd"
   xmlns="http://www.w3.org/2000/svg"
   xmlns:svg="http://www.w3.org/2000/svg">
  <defs
     id="defs1" />
  <sodipodi:namedview
     id="namedview1"
     pagecolor="#ffffff"
     bordercolor="#000000"
     borderopacity="0.25"
     inkscape:showpageshadow="2"
     inkscape:pageopacity="0.0"
     inkscape:pagecheckerboard="0"
     inkscape:deskcolor="#d1d1d1"
     inkscape:zoom="0.32669349"
     inkscape:cx="1014.7126"
     inkscape:cy="255.59126"
     inkscape:window-width="1680"
     inkscape:window-height="998"
     inkscape:window-x="-8"
     inkscape:window-y="-8"
     inkscape:window-maximized="1"
     inkscape:current-layer="svg1"
     showguides="true">
    <sodipodi:guide
       position="0,1000"
       orientation="0,-1"
       id="guide4"
       inkscape:locked="false" />
    <sodipodi:guide
       position="0,0"
       orientation="0,-1"
       id="guide5"
       inkscape:locked="false" />
    <sodipodi:guide
       position="305.6914,533.1171"
       orientation="0,-1"
       id="guide6"
       inkscape:locked="false" />
    <sodipodi:guide
       position="305.6694,475.64996"
       orientation="0,-1"
       id="guide7"
       inkscape:locked="false" />
    <sodipodi:guide
       position="305.6694,475.64996"
       orientation="1,0"
       id="guide8"
       inkscape:locked="false" />
    <sodipodi:guide
       position="283.5669,474.76588"
       orientation="1,0"
       id="guide9"
       inkscape:locked="false" />
    <sodipodi:guide
       position="283.5669,679.87657"
       orientation="0,-1"
       id="guide10"
       inkscape:locked="false" />
  </sodipodi:namedview>
  <path
     id="path1-94"
     style="fill:#000000;stroke:none;stroke-width:0.999998"
     d="M 679.20508 0.01953125 C 676.49754 0.13004354 674.03837 0.73667784 671.82812 1.8417969 C 665.9342 4.7887673 660.62919 11.568258 655.91406 22.177734 C 650.02013 40.449357 639.85435 54.300156 625.41602 63.730469 C 610.97395 73.160796 596.8294 84.80119 582.98047 98.652344 C 556.59694 125.60022 537.11351 160.60831 536.45703 198.99805 C 536.45703 198.99805 525.25691 215.20713 518.77344 228.17383 C 515.84504 235.83634 516.14253 240.25676 519.66406 241.43555 C 523.18926 242.61434 525.84169 244.08729 527.62109 245.85547 C 524.65556 247.61995 523.61814 249.24146 524.50781 250.7168 C 525.36048 252.19214 526.97142 252.92969 529.34375 252.92969 C 529.93688 252.92969 529.34385 253.81385 527.56445 255.58203 C 525.78525 257.35022 526.23152 258.82316 528.90039 260.00195 C 531.56939 261.18074 532.45803 264.12665 531.56836 268.8418 C 530.71576 273.55733 532.05067 276.80018 535.57227 278.56836 L 524.00781 307.82227 C 522.02618 307.82961 519.9832 307.80426 517.87891 307.74414 C 494.89251 312.45931 480.45259 326.60548 474.55859 350.18164 C 461.00259 397.92338 452.16096 435.0546 448.03516 461.57812 C 420.33356 465.7039 384.08478 472.77717 339.28711 482.79688 C 329.26731 475.72414 318.06874 470.41918 305.69141 466.88281 L 305.67188 312.09375 C 307.08419 311.34586 308.21132 310.38634 308.91797 309.1875 L 308.91992 309.18555 C 323.07589 291.49052 331.72718 271.83012 334.87305 250.20312 C 337.23223 240.76581 343.32604 231.13129 353.15625 221.30078 C 358.6598 214.61584 358.85794 210.09356 353.74609 207.73438 C 343.91589 205.7714 333.29812 205.96699 321.89453 208.32617 C 311.67082 179.62134 302.23294 165.66282 293.58203 166.44922 C 285.7175 165.66282 276.28187 179.62134 265.27148 208.32617 C 253.86819 205.57379 243.05378 205.1805 232.83008 207.14648 C 228.11142 209.89885 228.50472 214.61779 234.00977 221.30273 C 243.84027 231.13324 249.93575 240.76582 252.29492 250.20312 C 255.44079 271.83013 264.28873 291.49247 278.83789 309.1875 C 279.10503 310.54253 280.92445 311.74234 283.56055 312.63477 L 283.56055 467.64258 C 270.44221 468.83348 260.42497 470.86981 253.50781 473.75195 C 255.27594 482.00385 259.69686 486.71769 266.76953 487.89648 C 271.22384 515.36657 277.62423 525.23438 283.56641 525.23438 L 283.56641 1000 L 305.66992 1000 L 305.66992 524.34961 L 327.77148 508.43555 C 363.72448 506.07427 391.13372 505.9255 409.99805 507.99023 C 428.85885 510.05312 448.8971 507.84272 470.11523 501.35938 C 494.8699 445.95513 510.78469 402.04601 517.85742 369.62891 C 537.89689 405.58236 547.91602 455.09181 547.91602 518.1582 L 512.88281 613.63672 L 447.95312 613.63672 C 423.19492 610.68973 411.11195 618.94021 411.70508 638.39062 L 384.29297 885.05664 L 396.67578 885.94141 L 399.34375 860.30273 L 415.25781 860.30273 L 414.36914 885.94141 L 425.86133 885.94141 L 427.64062 861.18555 L 442.66992 861.18555 L 445.33984 886.82617 L 458.60156 886.82617 L 429.42578 631.31836 L 506.32422 631.50977 L 467.46484 737.41602 L 504.5957 737.41602 C 488.68203 830.54229 476.59919 888.89453 468.34766 912.4707 C 459.50679 935.45747 449.78107 948.71949 439.17188 952.25586 C 428.5628 955.79223 410.58595 963.15855 385.23828 974.35742 C 368.13095 977.3044 357.81645 982.75606 354.29492 990.71289 C 350.75859 998.67199 357.82992 1001.4726 375.51172 999.11133 L 425.91211 999.11133 C 436.52118 995.57496 451.40116 995.4262 470.55469 998.66602 C 489.72669 1001.9076 498.12631 989.38307 495.75391 961.0918 C 496.93258 946.35655 507.68908 918.50668 528.02148 877.54297 C 548.36855 836.57928 557.65238 806.07691 555.87305 786.03711 C 554.10492 765.9973 560.5874 749.78978 575.32227 737.41211 L 641.63086 737.41211 C 655.76159 830.53838 664.01237 890.36162 666.38477 916.88477 C 669.9211 931.62002 667.85744 942.22955 660.19531 948.71289 C 652.53318 955.19624 634.26308 964.33281 605.38281 976.12109 C 581.80694 984.96201 576.20665 992.62371 588.58398 999.10742 L 654.89062 999.10742 C 664.9103 996.74984 677.28851 996.74984 692.02344 999.10742 C 713.24531 1000.8757 718.55243 989.08856 707.94336 963.74414 C 699.68809 937.22063 699.3906 902.00247 707.05273 858.0918 C 714.7186 814.18113 712.36154 773.95534 699.98047 737.41211 L 684.12695 631.95312 L 685.16016 631.95508 C 693.45399 674.70317 703.10828 715.60437 714.13086 754.65234 C 727.68686 802.68879 737.41264 861.18616 743.30664 930.14648 L 766.29297 926.61133 C 758.63084 857.651 747.43214 799.74047 732.69727 752.88281 C 722.72229 721.16218 712.20737 680.86666 701.15039 631.99414 L 723.92969 632.05078 C 723.20451 640.48497 723.1729 649.08215 723.83398 657.8418 C 729.12745 658.43119 732.66416 654.01076 734.44336 644.58008 C 759.19803 648.70621 771.57422 644.58079 771.57422 632.20312 C 771.57233 632.19218 771.57025 632.18086 771.56836 632.16992 L 784.83594 632.20312 L 784.79688 613.63672 L 767.67773 613.63672 C 765.4703 604.97162 762.93834 597.6028 760.08203 591.5332 L 760.2207 591.54297 C 765.5253 529.06599 765.5253 486.92322 760.2207 465.11523 C 757.43412 439.47758 749.73172 402.37324 737.45898 354.60156 L 768.17773 354.60156 C 759.3368 312.16437 738.26562 288.29283 704.96289 282.98828 C 671.66022 277.68373 652.35525 266.19004 647.05078 248.50781 C 665.91138 206.07064 677.25893 174.83278 681.0918 154.79297 C 684.94707 134.75317 686.13319 115.45108 684.65039 96.884766 C 683.17512 78.318448 688.0359 61.371514 699.23438 46.046875 C 706.31078 34.848368 709.55407 26.597521 708.96094 21.292969 C 707.78214 15.398643 703.06598 9.5052686 694.81445 3.6113281 C 688.92053 1.0327187 683.71764 -0.1646559 679.20508 0.01953125 z M 683.6875 13.074219 C 685.005 13.058085 686.30836 13.437356 687.59766 14.210938 L 687.61914 14.210938 C 694.09887 17.747681 693.8032 26.000111 686.73047 38.966797 C 674.34947 57.238406 668.60259 74.625462 669.49219 91.128906 C 670.38179 107.63233 669.49309 126.34564 666.82422 147.26953 C 664.17009 168.19343 650.46561 204.88294 625.71094 257.33984 L 615.98633 244.08008 C 634.84693 214.02019 638.67699 195.60032 627.47852 188.82227 C 616.27999 182.04424 604.78787 183.95926 593 194.56836 C 582.9802 186.90623 569.71784 183.66496 553.21484 184.84375 C 556.16177 167.16153 560.58263 153.01573 566.47656 142.40625 C 572.37056 131.79714 582.38969 119.71466 596.53516 106.1582 C 610.68069 92.602125 624.23653 81.550508 637.20312 73.003906 C 650.16986 64.457675 660.77965 49.576015 669.03125 28.357422 C 674.0963 18.226909 678.98215 13.131838 683.6875 13.074219 z M 293.58203 182.96289 C 301.44625 188.07474 306.75349 198.88916 309.50586 215.4043 C 301.64134 219.33656 296.3344 225.82503 293.58203 234.86914 C 290.82935 225.82503 285.71712 219.33656 278.24609 215.4043 C 280.99847 199.28235 286.1107 188.46794 293.58203 182.96289 z M 560.01758 191.88867 C 583.99864 192.79122 592.636 200.4638 585.93164 214.9043 L 591.21484 216.67188 L 600.05469 198.99023 C 605.35916 192.50688 612.28585 191.62274 620.83398 196.33789 C 629.37831 201.05305 622.74698 218.44011 600.93945 248.5 C 604.47578 256.16213 608.60134 261.76051 613.31641 265.29688 C 617.44221 300.66132 630.99797 318.34375 653.98438 318.34375 C 678.14957 318.34375 682.71914 339.85819 667.69141 382.88477 C 652.66001 425.91134 647.20623 460.68545 651.33203 487.20898 L 569.11719 514.61328 C 566.17026 445.65295 559.98118 399.97354 550.55078 377.57617 C 541.12058 355.17878 533.16511 340.44384 526.68164 333.37109 C 520.19837 326.29799 527.86044 322.76172 549.66797 322.76172 C 569.70744 322.76172 579.72656 313.33171 579.72656 294.4707 C 579.72656 275.61006 572.94858 267.94801 559.39258 271.48438 C 545.82158 275.02075 540.22323 270.89374 542.5957 259.10547 C 550.2763 253.80092 552.78215 250.26428 550.11328 248.49609 C 547.45908 246.72791 542.59421 245.55034 535.52148 244.96094 C 536.11095 241.42419 533.16511 238.47671 526.68164 236.11914 C 531.98624 220.79485 537.58465 210.18533 543.47852 204.29102 C 549.96199 200.75465 556.59312 200.45928 563.37305 203.40625 C 570.14912 206.35361 577.07375 208.41691 584.14648 209.5957 L 583.25781 205.17578 C 579.13208 204.58453 573.68057 202.66951 566.9043 199.42969 C 560.12437 196.18986 552.90432 195.74789 545.24219 198.10547 L 548.80078 191.91602 C 552.85288 191.76867 556.59171 191.75974 560.01758 191.88867 z M 613.89648 197.69727 C 612.72203 197.71099 611.36163 197.99362 609.81445 198.54688 C 605.67385 200.02036 601.99063 203.40991 598.76562 208.71484 C 595.50362 214.01939 594.46627 218.14483 595.65234 221.0918 L 595.62305 221.0957 C 592.69452 222.86389 590.93493 225.221 590.3418 228.16797 C 589.74887 231.11494 590.93492 233.17863 593.90039 234.35742 C 596.84732 235.53621 601.26824 233.03045 607.16211 226.8418 C 613.04871 220.65315 616.73204 215.20148 618.21484 210.48633 C 619.69757 205.7708 619.69757 202.23454 618.21484 199.87695 C 617.29276 198.40115 615.85391 197.67439 613.89648 197.69727 z M 612.55859 203.52539 C 614.03209 203.59953 614.62072 204.59423 614.32422 206.50977 C 613.76809 210.34121 612.1552 214.02613 609.48633 217.5625 C 606.847 221.09887 604.34115 223.45598 601.96875 224.63477 C 599.59628 225.80985 599.59628 224.77693 601.96875 221.53711 C 604.26695 218.29359 604.08098 217.26066 601.41211 218.43945 C 598.74311 219.61824 598.15008 218.44067 599.63281 214.9043 C 601.08954 211.36756 603.00442 208.42009 605.37695 206.0625 L 605.48242 206.06445 C 608.72592 204.29719 611.08509 203.45125 612.55859 203.52539 z M 555.16797 204.79102 C 552.15654 204.68054 549.43516 205.39997 547.00391 206.94727 L 541.72266 212.25195 L 541.72266 217.55664 L 544.35742 216.67188 C 552.60895 220.79763 561.74387 220.50226 571.76367 215.78711 L 582.37305 217.55664 L 581.48438 212.25195 L 572.64258 212.25195 C 566.01191 207.46288 560.18702 204.97514 555.16797 204.79102 z M 552.30273 208.71484 C 551.11646 210.48302 551.41396 212.54672 553.19336 214.9043 C 550.84683 214.31491 548.78318 213.72417 547.00391 213.13477 L 547.02148 213.13477 C 547.57748 210.77718 549.3372 209.30423 552.30273 208.71484 z M 560.26562 209.59961 L 568.22266 214.01953 C 565.29426 214.60892 562.34639 215.19771 559.38086 215.78711 L 559.37695 215.78711 C 561.74928 214.01892 562.04482 211.9572 560.26562 209.59961 z M 252.29297 222.48242 C 263.69626 224.4484 272.74115 230.74022 279.42578 241.35742 C 282.96485 253.5471 287.68378 259.64062 293.58203 259.64062 C 299.48027 259.64062 304.19727 253.5471 307.73633 241.35742 C 314.42097 230.74022 323.46585 224.4484 334.86914 222.48242 C 325.43183 235.0653 320.12295 247.45094 318.94336 259.64062 C 312.65192 277.72886 304.19893 288.14996 293.58203 290.90234 C 283.35832 288.14996 274.90339 277.72886 268.21875 259.64062 C 266.64596 247.45095 261.33709 235.0653 252.29297 222.48242 z M 544.1875 233.85352 C 544.08556 233.85369 543.98035 233.87309 543.86914 233.91016 C 542.90544 234.20301 542.60799 234.9384 542.97852 236.11719 C 543.27519 237.29598 542.8308 238.18014 541.64453 238.76953 C 540.4584 239.35893 539.12335 238.77014 537.64062 237.00195 C 536.15776 235.23377 535.12034 234.34961 534.52734 234.34961 C 533.41514 234.939 532.67326 235.38118 532.30273 235.67773 C 532.08097 235.97334 532.265 236.99995 532.85352 238.75781 C 534.00098 237.00843 535.46067 237.30815 537.23438 239.6582 C 538.98777 242.01578 540.90279 242.60652 542.97852 241.42773 C 545.12865 240.24894 546.01917 238.62723 545.64844 236.5625 C 545.38891 234.75585 544.90109 233.8523 544.1875 233.85352 z M 532.85352 238.75781 C 532.84983 238.76343 532.84547 238.76974 532.8418 238.77539 L 532.85938 238.77539 C 532.85748 238.76975 532.8554 238.76344 532.85352 238.75781 z M 534.14844 248.14258 C 534.74617 248.15613 535.48928 248.27312 536.37891 248.49414 C 538.71791 248.49414 541.37047 248.6429 544.33594 248.93945 C 547.30161 249.236 548.48766 249.38477 547.89453 249.38477 L 533.70898 250.26172 C 532.44858 250.26172 532.00427 249.82169 532.375 248.93945 C 532.56042 248.38574 533.15221 248.11999 534.14844 248.14258 z M 547.00391 251.15234 L 547.03711 251.1582 C 546.44398 252.33699 545.11103 253.36776 543.03516 254.25 C 540.98529 255.13594 539.07029 255.87349 537.29102 256.46289 C 536.10475 256.46289 535.21422 256.31413 534.62109 256.01758 C 534.02796 255.72103 534.32545 254.98348 535.51172 253.80469 L 547.00391 251.15234 z M 636.44141 262.6543 C 645.28221 276.80015 654.41921 285.05062 663.84961 287.4082 C 673.27988 289.76764 687.5732 292.56877 706.73047 295.80859 C 725.6424 299.01036 735.79379 318.16393 737.18555 353.26953 C 736.62205 351.08422 736.04993 348.87565 735.4668 346.64453 C 728.98353 322.47896 714.24599 308.03937 691.25586 303.32422 C 648.81939 308.03937 630.54734 294.48237 636.44141 262.6543 z M 551.48633 281.2207 L 563.86328 281.2207 L 562.08398 299.78711 C 557.84118 302.61582 552.24087 304.69775 545.2832 306.0332 L 551.48633 281.2207 z M 692.02344 368.73828 L 692.02344 369.62305 C 699.68557 402.04015 711.77061 431.21468 728.27734 457.14844 C 723.56594 478.95642 723.86155 501.94344 729.16602 526.10938 C 734.46695 550.27494 735.93099 571.49401 733.55859 589.76562 L 733.55859 590.65039 C 730.63247 598.16469 728.33665 605.82674 726.66992 613.63672 L 697.05859 613.63672 C 693.09047 595.5597 689.05537 576.40396 684.95117 556.16992 C 686.71924 544.97104 683.77151 528.76156 676.10938 507.54297 C 664.32151 478.07285 669.62637 431.80465 692.02344 368.73828 z M 653.0957 508.42773 C 670.7923 536.71906 671.97857 567.95693 656.6543 602.14258 L 658.75977 613.63672 L 538.18555 613.63672 L 565.57031 538.48633 L 653.0957 508.42773 z M 679.64648 602.14258 C 680.3268 606.01198 681.06968 609.79646 681.77148 613.63672 L 681.375 613.63672 L 679.64648 602.14258 z M 531.65039 631.57227 L 662.10547 631.89844 L 677.87305 717.96094 L 500.16992 717.96094 L 531.65039 631.57227 z M 413.50586 732.10742 L 414.39648 846.15625 L 401.13477 845.27344 L 413.50586 732.10742 z M 427.6582 732.99023 L 440.0293 846.15625 L 426.76758 846.15625 L 427.6582 732.99023 z " />
</svg>
