<?xml version="1.0" encoding="UTF-8" standalone="no"?>
<svg
   width="17.109562"
   height="17.983217"
   version="1.1"
   id="svg1"
   sodipodi:docname="1368C.svg"
   inkscape:version="1.4.2 (f4327f4, 2025-05-13)"
   xmlns:inkscape="http://www.inkscape.org/namespaces/inkscape"
   xmlns:sodipodi="http://sodipodi.sourceforge.net/DTD/sodipodi-0.dtd"
   xmlns="http://www.w3.org/2000/svg"
   xmlns:svg="http://www.w3.org/2000/svg">
  <defs
     id="defs1" />
  <sodipodi:namedview
     id="namedview1"
     pagecolor="#ffffff"
     bordercolor="#666666"
     borderopacity="1.0"
     inkscape:showpageshadow="2"
     inkscape:pageopacity="0.0"
     inkscape:pagecheckerboard="0"
     inkscape:deskcolor="#d1d1d1"
     inkscape:zoom="20.991794"
     inkscape:cx="5.5021499"
     inkscape:cy="9.2655252"
     inkscape:window-width="1680"
     inkscape:window-height="998"
     inkscape:window-x="-8"
     inkscape:window-y="-8"
     inkscape:window-maximized="1"
     inkscape:current-layer="svg1" />
  <path
     style="fill:#000000;stroke:none"
     d="M 10.663829,15.160825 H 9.996371 L 7.26933,11.670975 C 6.875212,11.060728 6.525591,10.857312 6.220467,11.060727 c -0.3051233,0.203416 -0.1843453,0.746918 0.362334,1.630505 0.54668,0.883586 1.0552193,2.272533 1.525618,4.166842 l -1.830741,0.553036 6.846209,0.01907 -0.476756,-0.343266 c 0.432259,-1.970589 0.70242,-3.972961 0.810485,-6.007118 0.108065,-2.0341567 -0.187524,-3.051235 -0.886766,-3.051235 -0.394118,0.012713 -0.743738,0.355977 -1.048861,1.029791 -0.483113,1.411197 -0.769166,3.445354 -0.85816,6.102471 z M 10.968952,5.759206 C 11.083373,5.4540827 11.42028,5.473153 11.979673,5.816417 11.369426,6.0961137 11.032519,6.0770433 10.968952,5.759206 Z m 3.375429,3.623342 h 0.457685 c 0.01271,-1.411196 -0.432258,-2.1231507 -1.334915,-2.135864 0.58482,0.2288427 0.87723,0.9407973 0.87723,2.135864 z M 10.930812,5.22524 c -0.03814,0.1779887 -0.114422,0.359156 -0.228843,0.543502 -0.114421,0.1843447 -0.247913,0.4354357 -0.400474,0.753273 h 0.400474 c 0,0.54668 0.203416,0.82002 0.610247,0.82002 0.406831,0 0.60389,0.1271347 0.591177,0.381404 0.279697,-0.1779887 0.622961,-0.2733397 1.029792,-0.286053 l 0.09535,-0.228843 -0.762809,-0.476755 c -0.02543,-0.1271353 0.06992,-0.305124 0.286054,-0.533966 0.216129,-0.2288427 0.321015,-0.4004747 0.314658,-0.514896 -0.0064,-0.114422 -0.0731,-0.171633 -0.200237,-0.171633 -0.101709,0 -0.203417,0.057211 -0.305124,0.171633 C 11.916107,5.4032293 11.439351,5.2506673 10.930812,5.22524 Z M 16.709087,0.381404 16.632807,0.343264 14.30624,4.30987 h -3.470779 l 0.133491,0.572106 c 0.54668,0 1.010722,0.1334917 1.392126,0.400475 0.394118,-0.152562 0.648388,-0.101708 0.762809,0.152562 0.114421,0.2542693 0.06675,0.492647 -0.143027,0.715133 -0.209772,0.222486 -0.314658,0.3718693 -0.314658,0.44815 l 0.381404,0.247913 z M 5.533939,9.916514 c -0.1525613,0.279697 -0.082637,0.476756 0.209773,0.591177 l 0.648387,-0.01907 C 6.5700877,10.196211 6.5255907,10.005509 6.258608,9.916514 Z M 5.228816,9.458829 3.474356,5.435013 2.005949,10.679323 C 1.8661003,11.022587 1.751679,11.175149 1.662685,11.137009 1.421129,11.035301 1.3257777,10.806458 1.376631,10.45048 1.3257777,10.552189 1.2526753,10.650718 1.157324,10.746069 1.0619727,10.84142 0.9698,10.870025 0.880806,10.831884 0.76638467,10.793744 0.709174,10.711107 0.709174,10.583972 c 0,-0.127135 0.01907,-0.241556 0.05721,-0.343264 -0.21612867,0.279697 -0.451328,0.375048 -0.705598,0.286053 -0.10170733,-0.03814 -0.07628033,-0.222485 0.076281,-0.553036 L 2.692477,5.358732 3.398075,4.119167 5.705571,9.458829 H 5.781852 V 6.750858 C 5.8072793,6.496588 5.743712,6.2931723 5.59115,6.140611 5.0698973,5.7719197 4.8156277,5.3333047 4.828341,4.824766 4.828341,4.03653 5.2161023,3.642412 5.991625,3.642412 6.767147,3.6551253 7.154908,4.0619567 7.154908,4.862906 7.2693293,5.0027547 7.361502,5.117176 7.431426,5.20617 7.5013507,5.2951647 7.479102,5.384159 7.36468,5.473153 7.2629727,5.5621477 7.142195,5.5112937 7.002347,5.320591 6.8624983,5.1553163 6.7544337,4.9074037 6.678153,4.576853 6.6018717,4.2463023 6.373029,4.081027 5.991625,4.081027 c -0.4831127,0 -0.724669,0.2542697 -0.724669,0.762809 0,0.3686907 0.2415563,0.705598 0.724669,1.010722 0.190702,0.127134 0.2796963,0.4259007 0.266983,0.8963 l 0.01907,2.707971 c 0.533966,0 0.800949,0.3369073 0.800949,1.010722 l 3.013095,3.737763 c 0.101708,-2.568123 0.483112,-4.4687887 1.144213,-5.701996 0.330551,-0.5721067 0.317837,-0.85816 -0.03814,-0.85816 H 10.930812 L 10.188166,9.3952671 9.5990783,9.1385798 10.568478,7.456456 c -0.089,-0.088995 -0.120779,-0.2606267 -0.09535,-0.514896 0,-0.1144213 -0.104886,-0.190702 -0.314659,-0.228842 C 9.948695,6.6745773 9.9741223,6.4361993 10.234749,5.997584 10.495375,5.5589693 10.619331,5.288808 10.606618,5.1871 10.543051,4.831122 10.441343,4.411577 10.301495,3.928465 h 2.803321 C 12.57085,3.585201 12.049598,3.248294 11.541059,2.917744 11.03252,2.5871933 10.682899,2.259821 10.492196,1.935627 10.301494,1.6114337 10.222035,1.3094887 10.253819,1.029792 10.285603,0.75009533 10.396846,0.549858 10.587547,0.42908 10.77825,0.308302 10.968952,0.26380467 11.159655,0.295588 c 0.190701,0.031784 0.333728,0.09853 0.42908,0.200238 0.09535,0.10170733 0.143026,0.22248533 0.143026,0.362334 0,0.139848 -0.03496,0.2638043 -0.104886,0.371869 -0.06992,0.1080647 -0.200237,0.1684537 -0.39094,0.181167 -0.190702,0.012713 -0.317837,-0.063567 -0.381405,-0.228842 -0.06357,-0.1652753 -0.03178,-0.26698333 0.09535,-0.305124 0.06357,0 0.123956,0.0572107 0.181167,0.171632 0.05721,0.1144213 0.133492,0.1144213 0.228843,0 0.09535,-0.11442133 0.101707,-0.22884267 0.01907,-0.343264 -0.08264,-0.11442133 -0.241557,-0.146205 -0.476756,-0.095351 -0.235199,0.050854 -0.346442,0.247913 -0.333728,0.591177 0.01271,0.343264 0.197058,0.686528 0.553035,1.029792 1.614612,1.1314993 2.580837,1.697249 2.898674,1.697249 h 0.114421 L 16.556526,0 c 0.228843,-0.01271333 0.413188,0.06992433 0.553036,0.247913 L 13.42901,6.827139 c 1.195067,0 1.779888,0.9789377 1.754461,2.936813 h -1.201424 c 0,-1.449336 -0.241556,-2.1930743 -0.724668,-2.231215 v 0 c 0.521252,0.5212527 0.750095,1.725855 0.686528,3.613807 -0.06357,1.887951 -0.241556,3.760011 -0.533967,5.61618 l 0.87723,1.220493 H 5.781852 L 5.686501,17.029707 7.32654,16.572021 C 6.945136,15.10997 6.4842723,13.905368 5.943949,12.958215 5.4036263,12.01106 5.2605997,11.365851 5.514869,11.022587 5.0953243,10.653896 4.9554763,10.291562 5.095325,9.935584 4.688493,9.643174 4.73299,9.4842557 5.228816,9.458829 Z M 1.738966,10.202567 3.054811,5.549434 0.690104,9.802093 Z"
     id="path1"
     sodipodi:nodetypes="cccssccccscccccccccccsccsccccsssccccccccsscccccccccccccscsccccccccccccsccsssccccccscccccsscccsssssssssscssssscsccccccssscccccsccccccc" />
</svg>
