<?xml version="1.0" encoding="UTF-8" standalone="no"?>
<svg
   width="800"
   height="1000"
   version="1.1"
   id="svg1"
   sodipodi:docname="13694.svg"
   inkscape:version="1.4.2 (f4327f4, 2025-05-13)"
   xmlns:inkscape="http://www.inkscape.org/namespaces/inkscape"
   xmlns:sodipodi="http://sodipodi.sourceforge.net/DTD/sodipodi-0.dtd"
   xmlns="http://www.w3.org/2000/svg"
   xmlns:svg="http://www.w3.org/2000/svg">
  <defs
     id="defs1" />
  <sodipodi:namedview
     id="namedview1"
     pagecolor="#ffffff"
     bordercolor="#000000"
     borderopacity="0.25"
     inkscape:showpageshadow="2"
     inkscape:pageopacity="0.0"
     inkscape:pagecheckerboard="0"
     inkscape:deskcolor="#d1d1d1"
     inkscape:zoom="0.3266935"
     inkscape:cx="794.32252"
     inkscape:cy="1014.7126"
     inkscape:window-width="1680"
     inkscape:window-height="998"
     inkscape:window-x="-8"
     inkscape:window-y="-8"
     inkscape:window-maximized="1"
     inkscape:current-layer="svg1" />
  <path
     id="path1"
     style="fill:#000000;stroke:none;stroke-width:55.4226"
     d="M 766.38477 3.0605469 C 729.07222 90.314472 698.07429 142.83956 673.39062 160.63477 C 654.44732 148.57997 639.95385 138.24731 629.9082 129.63672 C 619.86249 121.02613 609.52985 110.98077 598.91016 99.5 C 588.29029 88.019223 582.83572 74.385678 582.54883 58.599609 C 582.2618 42.813504 586.71182 32.623561 595.89648 28.03125 C 605.08109 23.43894 612.54279 23.870828 618.2832 29.324219 C 624.02356 34.777573 625.31545 40.517501 622.1582 46.544922 C 619.00102 52.572343 615.27014 52.572343 610.96484 46.544922 C 606.65957 40.517501 602.78409 37.503906 599.33984 37.503906 C 595.32155 40.374128 594.60433 45.396789 597.1875 52.572266 C 599.77067 59.747746 605.65521 63.335938 614.83984 63.335938 C 630.33875 63.335938 637.94509 56.589522 637.6582 43.099609 C 637.37119 29.609693 631.91661 19.708966 621.29688 13.394531 C 610.67715 7.0800963 598.76537 7.6527035 585.5625 15.115234 C 572.35973 22.577729 565.90256 36.928544 566.18945 58.167969 C 566.47646 79.40743 574.51276 97.92096 590.29883 113.70703 C 606.0849 129.4931 625.17106 145.13572 647.55859 160.63477 L 546.81641 160.63477 C 551.40871 179.00401 554.4223 192.06295 555.85742 199.8125 C 557.29251 207.56201 557.72248 214.02112 557.14844 219.1875 C 551.98209 226.07597 546.24216 235.83406 539.92773 248.46289 C 537.0574 255.92542 537.20021 260.23086 540.35742 261.37891 C 543.51467 262.52697 546.24098 263.96146 548.53711 265.68359 C 545.6669 267.40572 544.66236 268.98481 545.52344 270.41992 C 546.38449 271.85499 547.9636 272.57227 550.25977 272.57227 C 550.83378 272.57227 550.25921 273.43412 548.53711 275.15625 C 546.81499 276.87838 547.24691 278.31288 549.83008 279.46094 C 552.41325 280.60903 553.27316 283.47996 552.41211 288.07227 C 551.55104 292.66458 552.55555 295.53358 555.42578 296.68164 L 544.08789 326.0293 C 542.45607 326.03051 540.78194 326.00604 539.06641 325.95703 C 516.67888 330.54934 502.61539 344.32755 496.875 367.28906 C 483.09807 413.21221 474.19993 449.37546 470.18164 475.78125 C 443.71151 479.80933 408.60834 486.71561 364.875 496.49805 C 355.20091 491.30188 344.30302 486.90839 331.70508 484.68359 L 331.58203 314.62305 C 343.59846 314.62305 352.02537 306.34443 356.86133 289.78516 C 361.69717 273.22591 369.68309 264.94531 380.82031 264.94531 C 383.75126 262.30753 385.2168 258.93719 385.2168 254.83398 C 385.2168 245.45533 377.08458 239.08149 360.81836 235.71094 C 344.55215 232.3405 331.80252 230.6543 322.57031 230.6543 C 313.33824 230.6543 300.58851 232.3405 284.32227 235.71094 C 268.05606 239.08149 259.92383 245.45533 259.92383 254.83398 C 259.92383 258.93719 261.24308 262.30753 263.88086 264.94531 C 275.31111 264.94531 283.44331 273.22591 288.2793 289.78516 C 293.11513 306.34443 300.80834 314.62305 311.35938 314.62305 L 311.35938 484.86719 C 300.64479 485.03325 291.81921 486.6388 282.01367 490.91016 C 283.16456 498.39088 287.48025 502.70653 294.96094 503.85742 C 301.29077 530.32757 305.5179 537.51953 311.35938 537.51953 L 311.35938 999.71875 L 332.07617 999.71875 L 331.74414 538.02148 C 342.09979 536.05048 350.47388 531.37194 360.29688 520.57422 C 395.97406 517.69704 415.51368 518.36425 433.92773 520.66602 C 452.34176 522.96773 471.61942 520.95285 491.75977 514.62305 C 515.86936 460.66336 531.60387 417.80457 539.06641 386.23242 C 558.5837 420.67475 568.3418 468.89438 568.3418 530.89062 L 489.98633 744.43164 L 526.15039 744.43164 C 510.65133 835.12978 498.88418 891.96033 490.84766 914.92188 C 482.23707 937.30935 472.76435 950.08107 462.43164 953.23828 C 452.09892 956.39558 434.58992 963.71456 409.90625 975.19531 C 392.6851 978.06546 382.35245 983.23274 378.9082 990.69531 C 375.46401 998.15779 382.64038 1001.0295 400.43555 999.30859 L 448.6543 999.30859 C 459.56103 995.86302 474.34373 995.71779 493 998.875 C 511.65625 1002.0322 519.54791 989.83317 516.67773 962.2793 C 518.39986 947.35431 529.16439 920.08916 548.96875 880.48047 C 568.77308 840.87176 577.66929 811.16372 575.66016 791.35938 C 573.65103 771.55501 580.11015 755.91235 595.03516 744.43164 L 659.61328 744.43164 C 672.81617 834.55571 680.8544 892.53348 683.72461 918.36523 C 686.59479 932.71624 684.29845 943.19346 676.83594 949.79492 C 669.37346 956.39635 651.57714 965.4372 623.44922 976.91797 C 601.06169 985.52853 595.89636 992.99209 607.95117 999.30664 L 672.5293 999.30664 C 682.28795 997.0103 694.05705 997.0103 707.83398 999.30664 C 728.49939 1001.0288 733.95201 989.25968 724.19336 964.00195 C 716.15678 938.74421 715.86949 904.59001 723.33203 861.53711 C 730.79454 818.48418 728.21283 779.44799 715.58398 744.43164 L 715.58398 743.57031 L 695.7793 612.68945 C 704.9639 579.39516 703.95938 548.54187 692.76562 520.12695 C 681.57191 491.712 686.59457 446.79323 707.83398 385.37109 L 707.83398 386.23242 C 715.87053 417.23053 727.92495 445.64478 743.99805 471.47656 C 739.40569 492.14193 740.26754 517.11267 746.58203 546.38867 C 752.89642 575.66464 754.33093 593.46094 750.88672 599.77539 C 738.25789 622.73693 735.09966 645.98406 741.41406 669.51953 C 747.15447 670.09357 749.59549 665.78815 748.73438 656.60352 C 747.87333 647.41891 749.73775 639.66992 754.33008 633.35547 C 759.49643 645.41028 761.65017 655.60024 760.78906 663.92383 C 759.92804 672.24738 756.91436 681.00092 751.74805 690.18555 C 748.87782 693.6298 748.44592 696.7861 750.45508 699.65625 C 752.46418 702.52675 756.33967 703.67572 762.08008 703.10156 C 772.98681 687.02846 778.43945 672.10308 778.43945 658.32617 C 778.43945 643.97516 777.29222 624.45906 774.99609 599.77539 C 779.58842 540.64936 779.58842 500.17869 774.99609 478.36523 C 772.12588 451.95944 763.8023 413.78514 750.02539 363.84375 C 744.28498 339.7341 730.22151 325.38333 707.83398 320.79102 C 661.91084 323.66121 644.97641 309.88502 657.03125 279.46094 C 661.04954 292.08981 668.22395 300.26873 678.55664 304 C 688.88936 307.73126 703.52742 311.03215 722.4707 313.90234 C 741.41398 316.77253 751.46132 336.00334 752.60938 371.59375 L 782.74609 371.59375 C 774.13544 329.6889 753.03826 305.58006 719.45703 299.26562 C 685.87571 292.95119 667.65143 282.33124 664.78125 267.40625 C 669.37355 259.94372 674.82616 250.61563 681.14062 239.42188 C 687.45506 228.22815 720.74923 149.4405 781.02344 3.0605469 L 766.38477 3.0605469 z M 566.61914 174.41211 L 696.64062 174.41211 C 684.01175 211.72466 666.50276 244.44438 644.11523 272.57227 L 638.94922 260.51758 C 655.02235 238.13006 659.47039 222.05748 652.29492 212.29883 C 645.11939 202.54014 632.9223 203.40009 615.70117 214.88086 C 608.23866 206.84433 593.6006 203.11347 571.78711 203.6875 C 569.49092 192.78075 567.76719 183.0227 566.61914 174.41211 z M 569.20312 212.29883 C 600.77526 211.72476 613.69156 219.18649 607.95117 234.68555 L 613.11719 236.4082 C 620.57967 219.76105 629.76512 212.01206 640.67188 213.16016 C 653.30073 217.17844 649.56792 231.24195 629.47656 255.35156 C 623.73617 262.24003 622.44435 267.83729 625.60156 272.14258 C 628.75877 276.44787 630.9125 280.89597 632.06055 285.48828 C 635.5048 318.78255 648.70838 335.42969 671.66992 335.42969 C 694.63152 335.42969 698.93499 356.52493 684.58398 398.7168 C 670.23303 440.90865 665.06771 474.92017 669.08594 500.75195 L 588.14648 527.44531 C 585.85029 460.28276 580.11041 415.79587 570.92578 393.98242 C 561.74117 372.16893 553.99018 357.8162 547.67578 350.92773 C 541.36133 344.03926 548.825 340.5957 570.06445 340.5957 C 589.58177 340.5957 599.33984 331.41224 599.33984 313.04297 C 599.33984 294.67373 592.73805 287.21005 579.53516 290.6543 C 566.33227 294.09852 560.87965 290.08039 563.17578 278.59961 C 570.63829 273.43328 573.07731 269.98971 570.49414 268.26758 C 567.91097 266.54545 563.17558 265.3963 556.28711 264.82227 C 556.86115 261.37806 553.70488 258.50908 546.81641 256.21289 C 552.55682 241.2879 558.00947 230.66795 563.17578 224.35352 C 569.49024 221.48333 576.092 221.48333 582.98047 224.35352 C 589.86891 227.22371 596.75606 229.23277 603.64453 230.38086 L 602.78516 225.21484 C 598.76687 225.21484 593.3123 223.63571 586.42383 220.47852 C 579.53536 217.32132 572.64824 216.89135 565.75977 219.1875 L 569.20312 212.29883 z M 635.80664 217.92773 C 634.63614 217.94118 633.24339 218.21771 631.62891 218.75586 C 627.32364 220.19097 623.5928 223.49186 620.43555 228.6582 C 617.27837 233.82457 616.27382 237.8427 617.42188 240.71289 C 614.55169 242.43502 612.8299 244.73137 612.25586 247.60156 C 611.68185 250.47174 612.97367 252.48082 616.13086 253.62891 C 619.28807 254.77697 623.59352 252.48064 629.04688 246.74023 C 634.50026 240.99986 637.94379 235.68988 639.37891 230.81055 C 640.81385 225.93123 640.9586 222.34303 639.81055 220.04688 C 639.09299 218.61178 637.75748 217.90532 635.80664 217.92773 z M 633.89062 223.59961 C 635.39748 223.67138 636.07899 224.64022 635.93555 226.50586 C 635.64854 230.23709 634.06945 233.82528 631.19922 237.26953 C 628.32904 240.71374 625.88999 243.15278 623.88086 244.58789 C 621.8717 246.02296 621.8717 245.01843 623.88086 241.57422 C 625.89011 238.13001 625.74536 236.9828 623.44922 238.13086 C 621.15306 239.27892 620.58047 238.27439 621.72852 235.11719 C 622.87663 231.95999 624.59839 228.94444 626.89453 226.07422 C 630.05169 224.35212 632.38377 223.52784 633.89062 223.59961 z M 574.57031 225.69922 C 571.63734 225.59159 568.98705 226.29002 566.61914 227.79688 L 561.45312 232.96289 L 561.45312 238.13086 L 564.89844 236.4082 C 572.93499 241.00051 581.83119 241.00051 591.58984 236.4082 L 601.0625 237.26953 L 601.0625 232.96289 L 591.58984 232.96289 C 585.13191 228.29883 579.45861 225.8786 574.57031 225.69922 z M 572.64648 229.51953 C 570.92435 231.24162 570.92435 233.25072 572.64648 235.54688 C 570.35031 234.97285 568.34127 234.11099 566.61914 232.96289 C 567.76719 231.2408 569.77624 230.09356 572.64648 229.51953 z M 579.53516 230.38086 L 588.14648 234.68555 C 584.70223 235.25958 581.54404 235.83413 578.67383 236.4082 C 580.96996 234.11201 581.25725 232.10295 579.53516 230.38086 z M 322.35156 244.72266 C 340.81583 244.72266 355.6167 247.50754 366.75391 253.07617 C 354.73747 261.28255 347.4834 271.02676 344.99219 282.31055 C 342.50084 293.59422 338.10398 300.11644 331.80273 301.875 C 325.50148 303.63345 319.27393 303.63345 313.11914 301.875 C 306.96433 300.11644 302.64161 293.59422 300.15039 282.31055 C 297.65918 271.02676 290.4051 261.28255 278.38867 253.07617 C 289.23273 247.50754 303.88715 244.72266 322.35156 244.72266 z M 564.25195 254.00586 C 564.1802 254.00586 564.10887 254.02272 564.03711 254.05859 C 563.46307 254.3456 563.17578 255.06483 563.17578 256.21289 C 563.17578 257.36098 562.74579 258.22089 561.88477 258.79492 C 561.02367 259.36899 559.87454 258.7944 558.43945 257.07227 C 557.00436 255.35015 555.99979 254.49023 555.42578 254.49023 C 554.27767 254.49023 553.41776 254.77753 552.84375 255.35156 C 552.26971 255.92559 552.26971 256.7855 552.84375 257.93359 C 553.99184 256.7855 555.56903 257.36006 557.57812 259.65625 C 559.58725 261.95236 561.59631 262.52697 563.60547 261.37891 C 565.6146 260.23086 566.33381 258.65173 565.75977 256.64258 C 565.25748 254.88459 564.75424 254.00587 564.25195 254.00586 z M 557.14844 267.40625 C 559.44458 267.9802 562.02823 268.41018 564.89844 268.69727 C 566.82686 268.89015 567.84839 269.01874 567.96289 269.08203 C 567.96398 269.08275 567.96791 269.08524 567.96875 269.08594 L 567.9707 269.08789 L 567.9707 269.08984 L 567.97266 269.08984 L 567.97266 269.0918 L 567.97266 269.09375 L 567.97266 269.0957 L 567.9707 269.09766 L 567.96875 269.09766 C 567.93984 269.11674 567.77646 269.12891 567.48047 269.12891 L 554.56445 269.98828 C 553.41619 269.41425 552.98626 268.84165 553.27344 268.26758 C 553.56045 267.69355 554.85227 267.40625 557.14844 267.40625 z M 567.48047 270.84961 C 566.9064 271.99761 565.61452 273.00222 563.60547 273.86328 C 561.59631 274.72432 559.44458 275.15625 557.14844 275.15625 C 556.5744 275.73044 555.99979 275.87303 555.42578 275.58594 C 554.85174 275.29892 555.13906 274.2944 556.28711 272.57227 L 567.48047 270.84961 z M 571.78711 299.26562 L 582.98047 299.26562 L 582.11914 317.34766 C 577.9835 320.38045 572.52239 322.61876 565.73828 324.0625 L 571.78711 299.26562 z M 670.80859 521.41797 C 687.45571 548.97184 688.60293 579.39516 674.25195 612.68945 L 694.05664 724.62891 L 520.98438 724.62891 L 585.5625 549.83398 L 670.80859 521.41797 z " />
</svg>
