<?xml version="1.0" encoding="UTF-8" standalone="no"?>
<svg
   width="15.743124"
   height="17.983217"
   version="1.1"
   id="svg1"
   sodipodi:docname="1369B.svg"
   inkscape:version="1.4.2 (f4327f4, 2025-05-13)"
   xmlns:inkscape="http://www.inkscape.org/namespaces/inkscape"
   xmlns:sodipodi="http://sodipodi.sourceforge.net/DTD/sodipodi-0.dtd"
   xmlns="http://www.w3.org/2000/svg"
   xmlns:svg="http://www.w3.org/2000/svg">
  <defs
     id="defs1" />
  <sodipodi:namedview
     id="namedview1"
     pagecolor="#ffffff"
     bordercolor="#666666"
     borderopacity="1.0"
     inkscape:showpageshadow="2"
     inkscape:pageopacity="0.0"
     inkscape:pagecheckerboard="0"
     inkscape:deskcolor="#d1d1d1"
     showguides="true"
     inkscape:zoom="45.254834"
     inkscape:cx="14.285767"
     inkscape:cy="10.242"
     inkscape:window-width="1680"
     inkscape:window-height="998"
     inkscape:window-x="-8"
     inkscape:window-y="-8"
     inkscape:window-maximized="1"
     inkscape:current-layer="svg1">
    <sodipodi:guide
       position="10.566813,10.334772"
       orientation="1,0"
       id="guide1"
       inkscape:locked="false" />
    <sodipodi:guide
       position="10.566813,10.334772"
       orientation="0,-1"
       id="guide2"
       inkscape:locked="false" />
  </sodipodi:namedview>
  <path
     style="fill:#000000;stroke:none"
     d="m 12.387447,17.019352 c 0.321288,-1.844432 0.475982,-3.447898 0.464083,-4.810398 -0.0119,-1.362501 -0.0119,-2.2400937 0,-2.632779 0.0119,-0.392686 -0.107096,-0.743723 -0.356987,-1.053111 -0.499782,0.2379913 -0.940066,0.2558407 -1.320851,0.053548 v -0.01785 c -0.499782,1.1899567 -0.737773,3.450874 -0.713974,6.782752 H 9.817141 L 7.228986,12.057234 C 6.8600993,11.486055 6.5328613,11.298637 6.247272,11.49498 c -0.28559,0.196343 -0.1725443,0.705049 0.339137,1.526119 0.5116813,0.82107 0.987664,2.118122 1.427948,3.891157 l -1.713538,0.535481 h 6.407916 z m -6.693505,-6.56856 c -0.1427947,0.273691 -0.077347,0.458134 0.196343,0.553331 l 0.589028,-0.0714 C 6.645907,10.694734 6.6102083,10.534089 6.372217,10.450792 Z m 6.604259,-3.391375 c 0.678275,-0.7972707 1.166157,-1.695688 1.463646,-2.695252 h -3.355678 c 0.0357,0.214192 0.0833,0.4700327 0.142796,0.767522 0.571179,-0.023799 0.957914,0.071398 1.160206,0.28559 0.440284,-0.3093887 0.758598,-0.330213 0.954941,-0.062473 0.196343,0.26774 0.08032,0.6871997 -0.348062,1.258379 z M 11.76272,6.095552 c -0.0357,-0.071397 -0.0119,-0.1755187 0.0714,-0.312364 0.0833,-0.1368447 0.178494,-0.2231163 0.28559,-0.258815 0.107096,-0.035699 0.178493,-0.023799 0.214192,0.035698 0.0357,0.059498 0.0357,0.15172 0,0.276666 -0.0357,0.1249453 -0.12792,0.264765 -0.276665,0.419459 -0.148745,0.1546947 -0.26179,0.2171673 -0.339137,0.187418 -0.07735,-0.029749 -0.110071,-0.083297 -0.09817,-0.160644 0.0119,-0.077347 0.0595,-0.13982 0.142795,-0.187418 z m 0.24989,-0.374836 c -0.0595,0.059497 -0.107095,0.1338693 -0.142794,0.223116 -0.0357,0.089247 -0.02082,0.1189963 0.04462,0.089247 0.06545,-0.029749 0.06842,3e-7 0.0089,0.089247 -0.0595,0.089247 -0.0595,0.1160207 0,0.080322 0.0595,-0.035699 0.124945,-0.098171 0.196343,-0.187418 0.0714,-0.089247 0.110071,-0.1814683 0.11602,-0.276665 0.0059,-0.095197 -0.06842,-0.1011463 -0.223117,-0.017849 z M 10.281224,6.024155 V 5.899209 l 0.142795,-0.142795 c 0.166593,-0.107096 0.380785,-0.065447 0.642576,0.124946 l 0.249891,0.017849 V 6.006305 L 11.066595,5.970607 c -0.261791,0.1308947 -0.493832,0.1368443 -0.696124,0.017849 z m 0.142795,-0.107097 0.142794,0.035699 c -0.0357,-0.047598 -0.0357,-0.101146 0,-0.160644 -0.0714,0.023799 -0.118995,0.065448 -0.142794,0.124945 z m 0.321288,0.053549 c 0.0714,-0.0119 0.148744,-0.0238 0.232041,-0.035699 L 10.745307,5.809962 c 0.0595,0.071397 0.0595,0.1249457 0,0.160645 z m -0.678275,0.589028 c -0.0238,-0.035699 -0.02975,-0.059498 -0.01785,-0.071397 0.0119,-0.0119 0.0357,-0.0238 0.0714,-0.035699 0.0119,0 0.0357,0.023799 0.0714,0.071397 0.0357,0.047599 0.06842,0.065448 0.09817,0.053549 0.02975,-0.0119 0.04165,-0.035699 0.0357,-0.071398 -0.006,-0.035699 -1e-6,-0.056523 0.01785,-0.062473 0.01785,-0.00595 0.03272,0.01785 0.04462,0.071398 0.0119,0.053548 -0.0089,0.095196 -0.06247,0.124945 -0.05355,0.029749 -0.104122,0.014874 -0.15172,-0.044623 -0.0476,-0.059498 -0.0833,-0.071398 -0.107096,-0.035699 z m 0.374836,0.321288 -0.303438,0.053548 c -0.0238,0.047599 -0.02975,0.074373 -0.01785,0.080322 0.0119,0.00595 0.02975,0.00892 0.05355,0.00892 0.0476,-0.011899 0.09817,-0.032723 0.15172,-0.062472 0.05355,-0.029749 0.09222,-0.056524 0.11602,-0.080323 z m 0,-0.035698 c 0.0238,0 -0.003,-0.00298 -0.08032,-0.00893 -0.07735,-0.00595 -0.14577,-0.014875 -0.205267,-0.026774 -0.0595,-0.011899 -0.09222,-0.00595 -0.09817,0.017849 -0.0059,0.023799 0.0089,0.041649 0.04462,0.053548 z m 2.498909,-2.838047 c 0.202293,-0.047598 0.356987,-0.1308947 0.464083,-0.24989 0,-0.9043673 0.202293,-1.6778393 0.606878,-2.320416 0.380785,-0.2855893 0.475982,-0.49383167 0.285589,-0.624727 -0.214192,-0.154694 -0.392685,-0.011899 -0.53548,0.428385 -0.452184,0.654476 -0.925192,1.118559 -1.419023,1.392249 -0.493832,0.27369 -0.883543,0.731823 -1.169132,1.374399 z m -1.624291,4.10535 C 11.530678,8.279122 11.857916,8.2612727 12.298201,8.05898 12.167305,7.904286 12.069133,7.6692697 12.003686,7.353931 11.938239,7.0385923 11.959063,6.750028 12.066158,6.488238 12.589739,5.8575607 12.690886,5.488674 12.369597,5.381578 12.084008,5.33398 11.840067,5.530323 11.637774,5.970607 L 11.49498,5.934908 C 11.649674,5.5184233 11.310536,5.3280303 10.477567,5.363729 l -0.08925,0.160644 c 0.190393,-0.059498 0.371861,-0.047599 0.544405,0.035698 0.172544,0.083297 0.318314,0.130896 0.437309,0.142796 l 0.01785,0.107095 C 11.20939,5.7861633 11.027921,5.7385653 10.843478,5.667168 10.659035,5.59577 10.489466,5.6017197 10.334772,5.685017 c -0.142795,0.154694 -0.28559,0.428384 -0.428385,0.82107 0.178494,0.059498 0.255842,0.1368453 0.232043,0.232042 0.178493,0.011899 0.303438,0.041648 0.374836,0.089246 0.0714,0.047599 0.0059,0.1368457 -0.196344,0.267741 -0.0595,0.2974887 0.08627,0.4016097 0.437309,0.312363 0.351037,-0.089247 0.532506,0.00595 0.544405,0.28559 z M 0.874618,8.237473 1.160208,8.380268 2.498909,5.88136 Z M 2.7488,6.042004 1.463646,8.540913 1.749236,8.737255 Z m 4.426637,4.962119 2.695252,3.427074 C 9.8468903,11.694298 10.11463,9.7487187 10.673909,8.59446 10.840503,8.3088713 10.900001,7.993533 10.852403,7.648445 h -0.28559 L 9.8070942,9.4071613 9.2243716,9.1585411 10.12058,7.594897 C 10.037283,7.547299 10.007534,7.464002 10.031333,7.345006 10.055132,7.2260107 10.034308,7.1516387 9.968861,7.12189 9.903413,7.0921407 9.894488,7.050492 9.942086,6.996944 9.9896847,6.943396 10.001584,6.9225717 9.977785,6.934471 9.918287,6.9225717 9.8766383,6.8987727 9.852839,6.863074 9.8290403,6.8273753 9.8528397,6.7916767 9.924237,6.755978 9.8766383,6.7083793 9.8082157,6.6697057 9.718969,6.639957 9.6297223,6.6102083 9.6267477,6.5001373 9.710045,6.309744 9.876639,5.976556 10.025384,5.7207153 10.156279,5.542222 10.180078,5.3994273 10.171153,5.2239087 10.129504,5.015666 10.087856,4.807424 10.007534,4.4712613 9.888538,4.007178 h 0.731823 c 0.130896,-0.3926853 0.345088,-0.749672 0.642577,-1.07096 -0.571179,-0.5354807 -0.859744,-1.0858357 -0.865694,-1.651065 -0.0059,-0.56522933 0.16362,-0.94304067 0.508707,-1.133434 0.345087,-0.19039267 0.660426,-0.202292 0.946016,-0.035698 0.285589,0.166594 0.431359,0.42540933 0.437308,0.776446 0.006,0.3510373 -0.199317,0.526556 -0.615802,0.526556 -0.237991,0 -0.389711,-0.092222 -0.455158,-0.276665 -0.06545,-0.18444333 -0.04462,-0.31236367 0.06247,-0.383761 0.0833,0 0.184444,0.0743723 0.30344,0.223117 0.118995,0.1487447 0.220141,0.1487447 0.303438,0 0.0833,-0.14874467 0.0476,-0.29748933 -0.107096,-0.446234 -0.154694,-0.148744 -0.354012,-0.16361833 -0.597953,-0.044623 -0.243941,0.118996 -0.362936,0.389711 -0.356987,0.812145 0.006,0.4224347 0.252866,0.8597437 0.740748,1.311927 0.0595,-0.059497 0.270714,-0.1874173 0.633651,-0.38376 0.362937,-0.1963433 0.722899,-0.568205 1.079886,-1.115585 0.142795,-0.40458533 0.312364,-0.67827533 0.508707,-0.82107 0.196343,-0.14279467 0.473007,-0.101146 0.829994,0.124946 0.237991,0.22609133 0.336163,0.446233 0.294515,0.660425 -0.04165,0.2141927 -0.240967,0.4759833 -0.597954,0.785372 -0.26179,0.321288 -0.404585,0.868668 -0.428384,1.64214 0.202293,-0.1546947 0.690175,-1.10071 1.463646,-2.838046 h 0.392686 c -1.368449,3.3080787 -2.141921,5.104913 -2.320415,5.390503 -0.154695,0.2736893 -0.392686,0.636626 -0.713974,1.08881 0.226092,0.2379913 0.511682,0.4968067 0.856769,0.776446 0.345087,0.27964 0.517631,0.8478443 0.517631,1.704613 h -0.624728 c 0.0119,-0.7496727 -0.08627,-1.231605 -0.294513,-1.445797 -0.208243,-0.214192 -0.467058,-0.4700327 -0.776447,-0.767522 0.0476,0.202292 0.211217,0.4968063 0.490857,0.883543 0.27964,0.386736 0.42541,0.6931497 0.437309,0.919241 0.0119,0.226092 0.0238,1.08881 0.0357,2.588155 0.0119,1.499345 -0.0833,3.129586 -0.28559,4.890722 L 13.797545,17.983217 5.818887,17.965368 5.74749,17.09075 7.264684,16.662365 C 6.9195967,15.282016 6.5090617,14.190232 6.033079,13.387011 5.557097,12.58379 5.4024027,11.932288 5.568996,11.432507 5.2120093,11.016022 5.116813,10.694733 5.283407,10.468642 4.8669217,10.171153 4.8728713,10.022408 5.301256,10.022408 L 5.604695,10.040257 3.659116,4.560508 1.731387,9.861764 1.427948,9.68327 1.64214,9.112092 1.285153,8.8979 0.999563,9.451229 0.731823,9.272736 0.999563,8.719406 0.642577,8.523064 0.28559,9.058543 0,8.880051 3.212883,4.435563 C 3.4627737,3.9595803 3.6829153,3.8762833 3.873308,4.185672 l 2.106223,5.854585 V 6.506087 C 6.0033303,6.279995 5.9557323,6.0955517 5.836737,5.952757 5.444051,5.6195697 5.247708,5.226884 5.247708,4.7747 c 0,-0.6663753 0.356987,-0.999563 1.070961,-0.999563 0.6425767,0 0.963865,0.3748363 0.963865,1.124509 C 7.37773,5.0305413 7.4491273,5.1406123 7.496726,5.229859 7.544324,5.3191057 7.5205247,5.393478 7.425328,5.452976 7.318232,5.5243727 7.217086,5.4767743 7.12189,5.310181 7.014794,5.143587 6.9344717,4.9145203 6.880923,4.622981 6.827375,4.3314417 6.639957,4.1737723 6.318669,4.149973 5.890285,4.1380737 5.6522937,4.3582157 5.604695,4.810399 c 0,0.321288 0.196343,0.6306767 0.589029,0.928166 0.1308947,0.071397 0.196342,0.3331877 0.196342,0.785371 v 3.516321 c 0.5354807,0 0.797271,0.321289 0.785371,0.963866 z"
     id="path1"
     sodipodi:nodetypes="cssccccccssccccccccccccccscccsssssssccsssssscccccccccccccccccccscssssssscccscsccssscccccccsccccsccccccsccscccscsscccccccccccccccccssscscsccscccsssssscssssscscscsccccccsccscssscccccsccccccccccccccccccccsscsccscccscc" />
</svg>
