<?xml version="1.0" encoding="UTF-8" standalone="no"?>
<svg
   width="16.529207"
   height="17.983217"
   version="1.1"
   id="svg1"
   sodipodi:docname="136B1.svg"
   inkscape:version="1.4.2 (f4327f4, 2025-05-13)"
   xmlns:inkscape="http://www.inkscape.org/namespaces/inkscape"
   xmlns:sodipodi="http://sodipodi.sourceforge.net/DTD/sodipodi-0.dtd"
   xmlns="http://www.w3.org/2000/svg"
   xmlns:svg="http://www.w3.org/2000/svg">
  <defs
     id="defs1" />
  <sodipodi:namedview
     id="namedview1"
     pagecolor="#ffffff"
     bordercolor="#666666"
     borderopacity="1.0"
     inkscape:showpageshadow="2"
     inkscape:pageopacity="0.0"
     inkscape:pagecheckerboard="0"
     inkscape:deskcolor="#d1d1d1"
     inkscape:zoom="29.68688"
     inkscape:cx="14.299246"
     inkscape:cy="-1.0273899"
     inkscape:window-width="1680"
     inkscape:window-height="998"
     inkscape:window-x="-8"
     inkscape:window-y="-8"
     inkscape:window-maximized="1"
     inkscape:current-layer="svg1"
     showguides="true">
    <sodipodi:guide
       position="9.155993,13.645951"
       orientation="0.96212675,-0.27260248"
       id="guide1"
       inkscape:locked="false" />
    <sodipodi:guide
       position="8.011494,12.325375"
       orientation="-0.88274698,0.46984867"
       id="guide2"
       inkscape:locked="false" />
  </sodipodi:namedview>
  <path
     style="fill:#000000;stroke:none"
     d="M 8.825849,2.290374 8.80384,2.158316 9.023935,1.982239 C 9.2293577,1.8355083 9.508146,1.8795277 9.8603,2.114297 h 0.330144 V 2.290374 L 9.8603,2.224345 C 9.508146,2.3710757 9.192675,2.3857487 8.913887,2.268364 Z M 8.979916,2.158316 C 9.0532813,2.1729893 9.1266467,2.194999 9.200012,2.224345 9.14132,2.1509797 9.1339833,2.0776143 9.178002,2.004249 9.0752907,2.0482683 9.009262,2.099624 8.979916,2.158316 Z m 0.440192,0.066029 c 0.088039,0 0.19075,-0.014673 0.308134,-0.044019 L 9.420108,2.026259 c 0.073365,0.088038 0.073365,0.1540667 0,0.198086 z M 8.495705,2.950662 c -0.014673,-0.029347 -0.014673,-0.055025 0,-0.077034 0.014673,-0.022009 0.036683,-0.033014 0.066028,-0.033014 0.029347,0 0.069698,0.025678 0.121053,0.077033 0.051356,0.051356 0.095375,0.069697 0.132058,0.055024 0.036683,-0.014673 0.051356,-0.04035 0.044019,-0.077033 -0.00734,-0.036683 0,-0.058692 0.02201,-0.066029 0.022009,-0.00734 0.040351,0.018341 0.055024,0.077033 0.014673,0.058693 -0.011005,0.1063803 -0.077034,0.143063 C 8.7928343,3.0863877 8.7268057,3.0717147 8.660777,3.005686 8.5947477,2.9396567 8.5397237,2.9213153 8.495705,2.950662 Z m 0.52823,0.418182 -0.418182,0.066029 c -0.029347,0.029346 -0.040351,0.051356 -0.033014,0.066029 0.00734,0.014673 0.047687,0.022009 0.121052,0.022009 0.044019,-0.014673 0.099043,-0.036682 0.165072,-0.066029 C 8.9248923,3.427536 8.9799163,3.39819 9.023935,3.368844 Z m 0,-0.066029 L 8.891877,3.291811 C 8.803839,3.2844743 8.7231373,3.2771377 8.649772,3.269801 8.5764067,3.2624643 8.514046,3.273469 8.46269,3.302815 8.4113347,3.332161 8.4370127,3.346834 8.539724,3.346834 Z m 1.69474,-1.738758 c 0.190749,-0.073365 0.407177,-0.058692 0.649282,0.044019 0.242105,0.1027113 0.370495,0.3374803 0.385168,0.704307 0.01467,0.3668267 -0.09171,0.7519947 -0.319138,1.155504 -0.227433,0.4035093 -0.07337,1.0821387 0.462201,2.035888 0.535567,0.9537493 0.862042,2.0322197 0.979427,3.235411 h 0.374163 C 13.264451,3.7943633 12.846269,1.1495433 11.995231,0.804726 11.144194,0.45990867 10.524257,0.342524 10.13542,0.452572 9.746584,0.56262 9.471464,0.78638433 9.31006,1.123865 c 0.851038,0 1.320576,0.1467307 1.408615,0.440192 z m 0.264114,1.562682 C 10.704001,3.1414117 10.57928,2.9726713 10.608626,2.620518 h 0.154067 c 0.01467,0.220096 0.09904,0.3264757 0.253111,0.319139 0.154067,-0.00734 0.260446,-0.1980867 0.319139,-0.57225 0.05869,-0.3741627 -0.08804,-0.5539077 -0.440192,-0.539235 -0.161404,0.014673 -0.234769,0.1540677 -0.220096,0.418183 L 10.542598,2.268364 C 10.586617,1.6520953 10.109742,1.4026533 9.111974,1.520038 L 8.935897,1.696115 c 0.2641147,-0.088039 0.5098887,-0.077034 0.737322,0.033014 0.227432,0.110048 0.414513,0.165072 0.561244,0.165072 l 0.02201,0.132058 C 10.007031,2.0115857 9.7649253,1.9565617 9.530156,1.861187 9.2953867,1.7658117 9.082627,1.7768163 8.891877,1.894201 8.7011277,2.084951 8.5030417,2.415095 8.297619,2.884633 c 0.220096,0.073365 0.3374803,0.1687403 0.352153,0.286125 0.2347687,0.014673 0.392504,0.051355 0.473206,0.110048 0.080702,0.058692 -0.018341,0.16874 -0.297129,0.330144 -0.073365,0.3521533 0.1320577,0.487879 0.616269,0.407177 0.4842107,-0.080702 0.737321,0.080702 0.75933,0.484211 0.02201,0.4035093 0.0037,0.605264 -0.05502,0.605264 0.381501,0.2054233 0.733655,0.21276 1.056462,0.02201 C 10.777367,4.3666127 10.704001,3.6989883 10.982789,3.126739 Z m 1.298567,10.586616 c -1.027115,0.07337 -2.160609,0.227433 -3.400483,0.462202 -1.239874,0.234769 -2.710849,0.740989 -4.412925,1.518662 -0.2641153,0.278789 -0.396173,0.652952 -0.396173,1.122489 1.2472113,-0.542903 2.5714557,-0.619936 3.972733,-0.2311 1.4012773,0.388835 2.593464,0.304465 3.57656,-0.253111 0.645615,-0.836365 0.865711,-1.709412 0.660288,-2.619142 z M 10.124415,5.701861 V 5.679852 c -0.4255193,1.0417873 -0.685966,2.3366853 -0.78134,3.884694 -0.095375,1.548009 -0.143063,2.872253 -0.143063,3.972732 0.939076,-0.220096 1.958854,-0.366826 3.059334,-0.440191 0.02935,-1.393941 0.04769,-2.66683 0.05502,-3.818666 0.0073,-1.1518353 -0.311802,-2.373368 -0.957417,-3.664598 -0.352154,0.3081347 -0.763,0.3374807 -1.232538,0.088038 z M 3.147372,7.836792 0.616269,12.85498 1.848806,13.229144 3.191392,7.836792 Z M 5.700486,14.483691 3.565555,7.704735 2.090912,13.889432 1.694739,13.801394 1.804787,13.47125 1.276557,13.317183 1.166509,13.669336 0.858374,13.559288 0.968422,13.251154 0.484211,13.097087 0.330144,13.427231 0,13.251154 3.213401,6.934399 C 3.316113,6.7876683 3.4334977,6.7179713 3.565555,6.725308 3.6976123,6.732644 3.7783143,6.802341 3.807661,6.934399 l 2.399046,7.351205 C 6.955033,13.97747 7.7400417,13.735365 8.561733,13.559288 8.5470603,9.5535413 8.8625313,6.934399 9.508146,5.701861 9.7575887,5.173631 9.7942717,4.6967567 9.618195,4.271238 9.4714637,4.300584 9.3173963,4.3225933 9.155993,4.337266 L 8.8950261,5.2583263 H 8.2241394 L 8.73781,4.293247 C 8.5617333,4.2492283 8.473695,4.1245073 8.473695,3.919084 8.473695,3.7870267 8.429676,3.6989883 8.341638,3.654969 8.2535993,3.6109497 8.2425943,3.559594 8.308623,3.500902 8.3746517,3.4422093 8.4003297,3.4201997 8.385657,3.434873 8.2976183,3.4201997 8.2425943,3.3908533 8.220585,3.346834 8.1985757,3.3028153 8.23159,3.2514597 8.319628,3.192767 8.2462627,3.134075 8.150888,3.090056 8.033504,3.06071 7.9161193,3.0313633 7.9087827,2.891969 8.011494,2.642527 8.23159,2.2610277 8.4296763,1.9528933 8.605753,1.718124 L 8.671782,1.520038 C 8.701128,1.358634 8.8038393,1.1165283 8.979916,0.793721 9.1559927,0.47091367 9.519151,0.228808 10.069391,0.067404 c 0.55024,-0.16140333 1.309571,-0.036682 2.277993,0.374164 0.968423,0.41084533 1.452634,3.3601313 1.452634,8.847858 h -0.946413 v 3.587564 c 0.205423,1.188519 0.132058,2.208297 -0.220095,3.059335 0.52823,-0.410846 0.906061,-0.267784 1.133494,0.429186 0.227432,0.696971 0.656619,0.975759 1.287561,0.836365 0.630942,-0.139394 1.122489,0.121053 1.474642,0.781341 H 3.323449 C 2.985969,17.689756 2.817229,17.271574 2.817229,16.72867 2.8025557,16.112401 3.7636413,15.364075 5.700486,14.483691 Z"
     id="path1"
     sodipodi:nodetypes="ccccccccccccccccccssssssssscccscsccssscccssssccsscccccsscccccsccscccscssccccsccsccccsccsccccccccccccccccccccscccccccccssscscscccsssccccsscccc" />
</svg>
