<?xml version="1.0" encoding="UTF-8" standalone="no"?>
<svg
   width="16.592556"
   height="17.983217"
   version="1.1"
   id="svg1"
   sodipodi:docname="136B0.svg"
   inkscape:version="1.4.2 (f4327f4, 2025-05-13)"
   xmlns:inkscape="http://www.inkscape.org/namespaces/inkscape"
   xmlns:sodipodi="http://sodipodi.sourceforge.net/DTD/sodipodi-0.dtd"
   xmlns="http://www.w3.org/2000/svg"
   xmlns:svg="http://www.w3.org/2000/svg">
  <defs
     id="defs1" />
  <sodipodi:namedview
     id="namedview1"
     pagecolor="#ffffff"
     bordercolor="#666666"
     borderopacity="1.0"
     inkscape:showpageshadow="2"
     inkscape:pageopacity="0.0"
     inkscape:pagecheckerboard="0"
     inkscape:deskcolor="#d1d1d1"
     inkscape:zoom="29.68688"
     inkscape:cx="10.358111"
     inkscape:cy="6.7201402"
     inkscape:window-width="1680"
     inkscape:window-height="998"
     inkscape:window-x="-8"
     inkscape:window-y="-8"
     inkscape:window-maximized="1"
     inkscape:current-layer="svg1" />
  <path
     style="fill:#000000;stroke:none"
     d="M 8.939485,2.437236 V 2.306414 L 9.135717,2.131985 C 9.353753,2.0011637 9.6372,2.044771 9.986058,2.262807 h 0.30525 l 0.0218,0.174429 L 9.964254,2.371825 C 9.629932,2.5171823 9.3174137,2.531718 9.026699,2.415432 Z M 9.09211,2.306414 c 0.087215,0.014536 0.1598933,0.03634 0.218036,0.065411 -0.058143,-0.072679 -0.058143,-0.1453573 0,-0.218036 -0.1017507,0.043607 -0.1744293,0.094482 -0.218036,0.152625 z m 0.436072,0.065411 c 0.10175,0 0.210768,-0.014536 0.327054,-0.043607 L 9.549986,2.175592 c 0.072679,0.087215 0.065411,0.1526257 -0.021804,0.196233 z M 8.61243,3.091345 c 0,-0.029072 0.00727,-0.050876 0.021803,-0.065411 C 8.648769,3.011398 8.663305,3.00413 8.677841,3.00413 c 0.043607,-0.014535 0.090849,0.00727 0.141724,0.065411 0.050875,0.058143 0.090848,0.076312 0.11992,0.054509 0.029071,-0.021803 0.043606,-0.050875 0.043606,-0.087215 0,-0.036339 0.010902,-0.058142 0.032706,-0.06541 0.021803,-0.00727 0.039973,0.018169 0.054509,0.076312 C 9.084842,3.1058803 9.0594047,3.1531217 8.993994,3.189461 8.9285827,3.2258003 8.8595377,3.2112647 8.786859,3.145854 8.7141803,3.0804427 8.6560373,3.062273 8.61243,3.091345 Z M 9.15752,3.505613 8.743252,3.571024 c -0.043607,0.029071 -0.061777,0.050875 -0.054509,0.065411 0.00727,0.014536 0.04724,0.021804 0.119919,0.021804 0.043607,-0.014536 0.1017503,-0.03634 0.174429,-0.065411 0.072679,-0.029071 0.1308223,-0.058143 0.174429,-0.087215 z m 0,-0.065411 L 9.026699,3.429301 C 8.9394843,3.422033 8.8595377,3.414765 8.786859,3.407497 8.7141803,3.400229 8.6524033,3.4111307 8.601528,3.440202 8.5506527,3.469274 8.5760903,3.48381 8.677841,3.48381 Z m 1.678879,-1.722486 c 0.188965,-0.058143 0.399733,-0.039973 0.632305,0.054509 0.232572,0.094483 0.356126,0.3234207 0.370662,0.686814 0.01454,0.363394 -0.09085,0.7449577 -0.316153,1.144691 -0.225304,0.3997327 -0.134456,0.893948 0.272545,1.482646 0.407001,0.5886973 0.690449,1.057475 0.850342,1.406333 0.159893,0.348858 0.23984,1.1265207 0.23984,2.332988 h 0.457876 c 0,-4.8985467 -0.417903,-7.518615 -1.253708,-7.860205 C 11.254302,0.62390133 10.640167,0.50761533 10.247702,0.616634 9.8552367,0.725652 9.5863253,0.947322 9.440968,1.281644 c 0.843073,0 1.308217,0.1453573 1.395431,0.436072 z M 11.07624,3.265774 C 10.814596,3.2803093 10.69831,3.113148 10.727381,2.76429 h 0.130822 c 0.01454,0.2180367 0.09812,0.323421 0.250742,0.316153 0.152625,-0.00727 0.261643,-0.1962327 0.327054,-0.566894 0.06541,-0.370662 -0.07631,-0.548725 -0.425171,-0.534189 -0.159893,0.014535 -0.232572,0.152625 -0.218036,0.414269 L 10.66197,2.415432 C 10.691042,1.8049307 10.211363,1.557823 9.222932,1.674109 L 9.070306,1.848538 c 0.247108,-0.087215 0.483314,-0.076313 0.708618,0.032706 0.225303,0.109018 0.417902,0.163527 0.577796,0.163527 V 2.175592 C 10.109612,2.1610567 9.873406,2.1065477 9.648102,2.012065 9.422798,1.917583 9.2083957,1.928485 9.004895,2.044771 8.8159303,2.2337357 8.6269657,2.56079 8.438001,3.025934 c 0.2180367,0.087214 0.327055,0.1816963 0.327055,0.283447 0.232572,0.014535 0.392465,0.050875 0.479679,0.109018 0.087215,0.058143 -0.00727,0.1671607 -0.283448,0.327054 -0.072678,0.348858 0.1271887,0.4833137 0.5996,0.403367 0.472413,-0.079947 0.723154,0.079947 0.752225,0.47968 0.02907,0.3997327 0.01454,0.599599 -0.04361,0.599599 0.363393,0.2035007 0.71225,0.2107687 1.046573,0.021804 C 10.807328,4.6539377 10.727381,3.9925613 11.07624,3.265774 Z m 1.177394,10.487541 c -0.930287,0.07268 -2.009566,0.225304 -3.237837,0.457876 -1.2282707,0.232572 -2.6854793,0.734055 -4.371626,1.50445 -0.2761793,0.276179 -0.414269,0.646841 -0.414269,1.111984 1.2500747,-0.537823 2.5655597,-0.614135 3.946455,-0.228937 1.3808967,0.385197 2.558292,0.301616 3.532187,-0.250742 0.654109,-0.828537 0.835805,-1.693414 0.54509,-2.594631 z M 3.139721,3.745453 0.632305,8.694875 1.831504,9.08734 3.183329,3.745453 Z m 7.086177,2.071344 V 5.794993 C 9.8043613,6.827031 9.542718,8.207927 9.440968,9.937681 9.9061113,9.0510003 10.244067,8.451401 10.454836,8.138883 10.665604,7.8263643 10.821863,7.4738723 10.923614,7.081407 11.025365,6.6889417 11.301544,6.3546197 11.752151,6.078441 L 11.4469,5.751386 c -0.348857,0.2907153 -0.755858,0.312519 -1.221002,0.065411 z m -0.915752,7.762089 c 0.930288,-0.218036 1.911451,-0.363393 2.943488,-0.436072 0.04361,-2.892614 0.03634,-4.6659753 -0.0218,-5.320084 -1.439039,2.282112 -2.39113,3.444972 -2.856274,3.48858 -0.043607,0.421536 -0.065411,1.177395 -0.065411,2.267576 z m -3.0089,-3.248739 c 1.177396,-0.08722 1.998666,-0.13809 2.46381,-0.152626 L 8.786859,9.523413 C 8.0310003,9.508877 7.0571053,9.458002 5.865174,9.370788 L 5.232869,9.545217 5.276476,9.785056 c 0.2035007,0.043607 0.5450907,0.225304 1.02477,0.545091 z M 8.743252,1.870342 C 8.4525367,1.754056 8.2817413,1.51785 8.230866,1.161724 8.1799913,0.805598 8.2454023,0.583928 8.427099,0.496714 8.6087957,0.40949933 8.6233317,0.37316 8.470707,0.387696 8.3180817,0.40223133 8.2235993,0.37679367 8.18726,0.311383 8.1509207,0.24597233 8.179992,0.18419533 8.274474,0.126052 8.3689567,0.06790933 8.4779747,0.027936 8.601528,0.006132 8.725082,-0.01567133 8.8450017,0.01703433 8.961287,0.104249 9.0775737,0.191463 9.1429847,0.293213 9.15752,0.409499 9.2156633,0.61299967 9.1502523,0.79469667 8.961287,0.95459 8.772323,1.1144833 8.735984,1.2889123 8.85227,1.477877 8.8668053,1.4197337 8.946752,1.2453047 9.09211,0.95459 9.2665387,0.63480333 9.6299323,0.39496333 10.182291,0.23507 c 0.552358,-0.15989333 1.304583,-0.0363393 2.256675,0.370662 0.952091,0.4070007 1.428137,3.328686 1.428137,8.765056 H 12.95135 v 3.553989 c 0.188965,1.177395 0.109018,2.18763 -0.239839,3.030704 0.523287,-0.392465 0.901216,-0.247108 1.133788,0.436073 0.232572,0.683179 0.661377,0.955724 1.286414,0.817634 0.625036,-0.138089 1.111984,0.11992 1.460843,0.774029 H 3.488579 C 3.168793,17.692502 3.0089,17.278233 3.0089,16.740412 2.994364,16.129909 3.6521063,15.519408 4.982127,14.908907 6.3121483,14.298406 7.544053,13.862333 8.677841,13.60069 l 0.021803,-2.28938 c -0.7267867,0 -1.606199,-0.07268 -2.638237,-0.218037 -0.7849307,0.348858 -1.286414,0.367028 -1.50445,0.05451 C 4.3389203,10.835264 4.3171167,10.504576 4.491546,10.155718 4.2153667,10.083039 4.077277,9.9594853 4.077277,9.785056 H 4.796796 L 4.774993,9.545217 c -0.450608,0 -0.675912,-0.174429 -0.675912,-0.523287 0,-0.363394 0.043607,-0.545091 0.130821,-0.545091 C 3.9682587,8.3896243 3.837437,8.2515347 3.837437,8.06257 H 4.469742 L 3.55399,3.614631 2.071344,9.719646 1.700682,9.654234 1.8097,9.32718 1.286414,9.174555 1.177395,9.501609 0.872145,9.392591 0.981163,9.109144 0.501483,8.956518 0.348858,9.261769 0,9.109144 3.205132,2.851505 c 0.087215,-0.1453573 0.196233,-0.218036 0.327055,-0.218036 0.1453573,0 0.2325717,0.072679 0.261643,0.218036 L 4.927618,8.06257 C 5.1456547,8.1207127 5.5453877,8.2951413 6.126817,8.585856 7.2606057,8.382356 8.1981617,8.280606 8.939485,8.280606 9.0703063,7.3357827 9.29561,6.514513 9.615396,5.816797 9.87704,5.2935103 9.9206477,4.8210987 9.746219,4.399562 9.600861,4.4286333 9.4409677,4.4504367 9.266539,4.464972 L 9.0055721,5.3860323 H 8.3346854 L 8.85227,4.421365 C 8.6923767,4.3777583 8.61243,4.2614723 8.61243,4.072507 8.61243,3.9271497 8.5688227,3.8326673 8.481608,3.78906 8.3943933,3.7454533 8.3834917,3.6945783 8.448903,3.636435 8.5143137,3.5782923 8.5324833,3.5564887 8.503412,3.571024 8.4307333,3.5564887 8.3834923,3.5274173 8.361689,3.48381 8.339885,3.4402027 8.3725903,3.3893273 8.459805,3.331184 8.3725903,3.2730413 8.274474,3.2294343 8.165456,3.200363 8.0564373,3.171291 8.0528033,3.0332013 8.154554,2.786094 8.3580547,2.4081647 8.5542873,2.102914 8.743252,1.870342 Z"
     id="path1"
     sodipodi:nodetypes="ccccccccccccccccccscssssssscccscsccssscccsssssccsscccccsscccccsccscccscssccccsccsccccccccccssccccccccccccccccssssssscsccssccccsscccscccsccccscccccccccccccccsccccccccccssscscscc" />
</svg>
