<?xml version="1.0" encoding="UTF-8" standalone="no"?>
<svg
   width="1027.3125"
   height="1799.25"
   id="svg2"
   version="1.1"
   inkscape:version="1.4.2 (f4327f4, 2025-05-13)"
   sodipodi:docname="136DE.svg"
   xmlns:inkscape="http://www.inkscape.org/namespaces/inkscape"
   xmlns:sodipodi="http://sodipodi.sourceforge.net/DTD/sodipodi-0.dtd"
   xmlns="http://www.w3.org/2000/svg"
   xmlns:svg="http://www.w3.org/2000/svg"
   xmlns:rdf="http://www.w3.org/1999/02/22-rdf-syntax-ns#"
   xmlns:cc="http://creativecommons.org/ns#"
   xmlns:dc="http://purl.org/dc/elements/1.1/">
  <metadata
     id="metadata12">
    <rdf:RDF>
      <cc:Work
         rdf:about="">
        <dc:format>image/svg+xml</dc:format>
        <dc:type
           rdf:resource="http://purl.org/dc/dcmitype/StillImage" />
      </cc:Work>
    </rdf:RDF>
  </metadata>
  <defs
     id="defs10" />
  <sodipodi:namedview
     pagecolor="#ffffff"
     bordercolor="#666666"
     borderopacity="1"
     objecttolerance="10"
     gridtolerance="10"
     guidetolerance="10"
     inkscape:pageopacity="0"
     inkscape:pageshadow="2"
     inkscape:window-width="1680"
     inkscape:window-height="998"
     id="namedview8"
     showgrid="false"
     showborder="true"
     fit-margin-top="0"
     fit-margin-left="0"
     fit-margin-right="0"
     fit-margin-bottom="0"
     inkscape:zoom="0.38615887"
     inkscape:cx="-191.63097"
     inkscape:cy="397.50479"
     inkscape:window-x="-8"
     inkscape:window-y="-8"
     inkscape:window-maximized="1"
     inkscape:current-layer="svg2"
     inkscape:showpageshadow="2"
     inkscape:pagecheckerboard="0"
     inkscape:deskcolor="#d1d1d1"
     showguides="true" />
  <path
     style="fill:#000000;stroke:none;stroke-width:1"
     d="M 130.47153,138.4005 C 89.974284,138.3879 47.144269,148.73665 17.223669,177.28019 10.759392,183.24459 5.1918836,190.09218 0,197.18111 c 47.857464,38.35062 77.149643,94.79625 97.184327,151.77056 2.354385,12.42878 -0.879986,25.06495 -0.594945,37.60055 -3.8902,72.45796 -14.831961,144.16354 -23.411101,216.11391 -7.898162,81.2871 -8.591687,163.34637 -2.112056,244.73078 5.246609,21.61467 10.262693,44.15807 19.60345,64.46233 -40.646184,4.63191 -51.446155,19.52345 -52.027973,48.75577 -1.242649,40.99979 9.316871,69.57539 31.680842,85.73169 v 37.2733 c 124.242736,366.5147 183.869816,562.8166 178.900076,588.9067 -2.48529,27.3362 -20.17449,50.9219 -53.09887,70.7984 -32.92432,19.8766 -41.3178,38.5315 -25.1662,55.9249 h 739.87407 c 24.84864,-12.4264 24.84864,-29.8165 0,-52.1767 -64.60621,-78.2791 -85.42444,-153.448 -62.43951,-225.5142 22.98491,-72.0563 43.17135,-246.6056 60.56544,-523.6707 h 68.95416 V 727.66416 c 0,-176.42573 -19.25404,-300.98045 -57.76919,-373.65545 -42.42987,-80.07858 -124.00509,-109.08323 -219.92157,-109.08323 -123.41716,0 -175.35259,48.2127 -186.33688,117.41246 -6.2123,23.60654 -9.34065,54.02441 -9.34065,91.29437 -17.39402,33.54963 -26.08834,56.53719 -26.08834,68.95417 0,6.18471 8.09195,9.96825 24.24402,11.21471 l -7.46657,13.02931 c 2.48435,4.94777 6.84724,8.1037 13.05905,9.34065 -3.72699,6.1847 -4.9908,13.03618 -3.74816,20.49587 h 11.18498 c -7.45494,34.78657 6.20384,52.17671 40.99174,52.17671 h 33.55491 c 8.69665,33.54012 24.85226,70.18305 48.4583,109.94591 -1.24265,1.23694 -13.03555,16.47027 -35.39925,45.66206 -22.36367,29.2013 -44.74614,64.00181 -67.10984,104.38316 -22.36369,40.38134 -18.00165,79.81813 13.05906,118.33454 8.69664,125.4925 -10.557,241.0092 -57.7692,346.6153 L 254.8151,1009.0139 c -17.4445,-49.57832 -44.38109,-80.82142 -80.82333,-93.76347 11.3703,-23.66623 17.71611,-49.62485 22.36995,-75.37958 6.11248,-104.85399 2.66951,-210.57935 -13.71349,-314.30964 -7.37602,-57.90518 -13.60739,-116.04677 -15.14137,-174.43798 19.96186,-54.99478 47.15796,-109.3174 92.06781,-148.08191 4.65452,-2.27132 6.53045,-9.90433 1.5766,-12.88057 -27.05682,-33.7845 -71.10759,-49.9522 -113.66431,-51.40328 -5.66428,-0.32303 -11.3427,-0.40998 -17.01543,-0.35697 z m 5.11652,43.6095 c 22.45198,1.86439 44.67496,6.63088 65.17627,16.18251 -28.57679,35.49469 -49.74491,76.82254 -67.67504,118.57262 C 114.93152,274.9434 93.568554,234.03825 64.938287,198.371 87.345178,188.80403 111.25574,183.26662 135.58805,182.01 Z m 568.38106,96.50015 c 96.90932,0 160.56773,35.08399 191.00721,105.27557 30.43956,70.20112 45.66207,184.20887 45.66207,342.00435 V 960.61501 H 700.22095 V 533.83096 c 8.69665,-11.18954 19.88826,-27.96281 33.55493,-50.33239 13.66666,-22.36007 20.49587,-45.0142 20.49587,-68.00226 0,-22.97854 -14.29003,-34.47708 -42.86582,-34.47708 -21.12132,0 -33.54604,11.79274 -37.27332,35.39925 0,-24.84347 -10.86056,-40.37098 -32.60301,-46.58422 -21.74257,-6.1847 -53.12035,-9.34064 -94.12036,-9.34064 7.45494,-54.66324 59.65058,-81.98347 156.55987,-81.98347 z M 579.29832,389.97316 v 0.0297 c 15.63245,0 30.48686,2.27471 44.53165,6.84187 24.84852,8.0877 37.27333,25.16461 37.27333,51.25454 h 29.80676 c 0,-23.60652 5.59572,-35.42899 16.77747,-35.42899 11.18183,0 14.91226,11.82247 11.18497,35.42899 l -55.92487,82.01327 v 177.02599 h -5.59249 C 637.47648,679.80214 623.81797,646.26637 616.36342,606.5035 H 564.1867 c -18.63642,0 -27.96244,-5.62596 -27.96244,-16.77745 1.24265,-18.63974 9.93687,-29.19744 26.08836,-31.68085 0,-8.65852 -2.46716,-13.0293 -7.43681,-13.0293 h -33.55492 c 6.21229,-14.90988 -0.61414,-25.46759 -20.49587,-31.68084 0,-8.65858 9.32564,-28.57704 27.96243,-59.64328 -1.24266,-23.60651 3.08954,-43.49644 13.0293,-59.64326 12.96446,-2.66417 25.45661,-4.07538 37.48157,-4.07538 z m -0.80319,17.52114 c -17.24037,0 -31.34612,4.87684 -42.27087,14.48692 l 1.87409,14.90338 c 11.98053,-9.99067 26.81633,-14.99261 44.50191,-14.99261 15.3274,0 32.80206,3.70864 52.41469,11.24445 h 13.0293 v -13.0293 h -13.0293 C 613.42244,411.73401 594.58611,407.4943 578.49513,407.4943 Z m 2.46903,21.95348 c -23.60614,0 -38.52778,9.33221 -44.7399,27.96244 v 7.43681 h 13.05906 c 6.21229,3.71081 13.67292,5.59249 22.36994,5.59249 9.93939,0 30.42691,-6.17627 61.4876,-18.62179 l 16.77747,1.90383 v -11.18497 l -16.77747,1.90381 c -26.09048,-9.94308 -43.47968,-14.90337 -52.1767,-14.90337 z m 3.74815,11.15523 c 9.92955,1.23815 19.87704,3.6999 29.80676,7.40707 -6.21228,3.71084 -16.77171,7.42658 -31.68083,11.18497 3.727,-3.71081 5.56274,-6.83701 5.56274,-9.3109 0,-2.46136 -1.22937,-5.59483 -3.68867,-9.28114 z m -18.65154,1.42786 v 0.47597 c -2.48528,1.23693 -3.74815,3.69625 -3.74815,7.40706 0,3.71083 2.49693,6.86676 7.46656,9.34064 h -4.99754 c -5.35784,0 -11.76209,-1.43503 -19.21673,-4.19435 7.45494,-7.42164 14.28367,-11.78285 20.49586,-13.02932 z m -432.97149,6.18744 1.24938,12.49385 c 8.8294,91.44032 17.64691,182.99003 20.67435,274.83502 -0.6228,46.96293 -2.6309,94.77965 -17.19391,139.72292 -1.37404,3.72065 -2.89069,7.4101 -4.61082,10.97674 -16.4575,-34.71048 -18.1745,-74.03688 -21.06108,-111.87947 -3.31704,-70.58157 4.83647,-141.00125 9.96533,-211.29486 3.28311,-38.32402 7.01154,-76.59523 10.97675,-114.8542 z M 662.94763,785.4036 v 212.45499 h 199.42569 c -1.24264,77.03291 -8.40235,169.60121 -21.44778,277.69081 -13.04544,108.0895 -29.50159,199.4229 -49.38047,273.9722 -19.87885,74.5496 -6.19091,136.0333 41.02149,184.4926 h -551.6631 c 13.66666,-13.6728 22.69175,-36.651 27.04027,-68.9542 4.34831,-32.3028 -10.24236,-86.9734 -43.78799,-163.9966 L 126.21766,1079.8718 c -7.45494,-22.3599 6.83574,-33.5548 42.86581,-33.5549 36.03045,0 59.01471,8.6865 68.95417,26.1181 l 232.98061,339.1783 c 12.83839,8.6587 24.14022,13.0294 33.94164,13.0294 19.60273,0 33.15056,-17.3902 40.60502,-52.1768 44.72748,-103.1227 61.48448,-228.0012 50.30263,-374.60731 -43.48501,-45.96664 -21.13219,-116.7824 67.08009,-212.45499 z M 77.789108,947.55597 h 44.918382 c 3.6409,0.90089 7.44183,1.07043 11.21471,0.29747 3.44229,0.6033 6.76021,0.45469 9.90584,-0.29747 h 2.91524 c 23.60613,0 44.09366,20.48779 61.4876,61.48763 h -76.42073 c -36.030361,0 -54.021042,-20.48789 -54.021042,-61.48763 z"
     id="path3"
     sodipodi:nodetypes="ccccccccccccsccccccscsccscccccscccsccccccccccccccccscsccccsscccscccccscccccsccscccccsccsccccsccccscccccccccscccscscccccccccccccssccsccsccscccccccscsc" />
  <path
     style="fill:none;stroke:#000000;stroke-width:30;stroke-linecap:butt;stroke-linejoin:miter;stroke-dasharray:none;stroke-opacity:1"
     d="M 636.72321,270.27229 C 620.03262,195.59609 587.89473,83.796289 537.31192,25.871989 V 15.468377 h 363.413 V 25.871956 C 843.96354,93.22479 808.02732,185.64015 791.62054,276.94969"
     id="path4"
     sodipodi:nodetypes="cccccc" />
</svg>
