<?xml version="1.0" encoding="UTF-8" standalone="no"?>
<svg
   width="700"
   height="1000"
   version="1.1"
   id="svg1"
   sodipodi:docname="13708.svg"
   inkscape:version="1.4.2 (f4327f4, 2025-05-13)"
   xmlns:inkscape="http://www.inkscape.org/namespaces/inkscape"
   xmlns:sodipodi="http://sodipodi.sourceforge.net/DTD/sodipodi-0.dtd"
   xmlns="http://www.w3.org/2000/svg"
   xmlns:svg="http://www.w3.org/2000/svg">
  <defs
     id="defs1" />
  <sodipodi:namedview
     id="namedview1"
     pagecolor="#ffffff"
     bordercolor="#666666"
     borderopacity="1.0"
     inkscape:showpageshadow="2"
     inkscape:pageopacity="0.0"
     inkscape:pagecheckerboard="0"
     inkscape:deskcolor="#d1d1d1"
     inkscape:zoom="1.0677312"
     inkscape:cx="564.28059"
     inkscape:cy="222.43426"
     inkscape:window-width="1680"
     inkscape:window-height="998"
     inkscape:window-x="-8"
     inkscape:window-y="-8"
     inkscape:window-maximized="1"
     inkscape:current-layer="svg1"
     showguides="true">
    <sodipodi:guide
       position="659.04764,511.42862"
       orientation="1,0"
       id="guide1"
       inkscape:locked="false" />
    <sodipodi:guide
       position="510.47615,780.95238"
       orientation="0.99473836,-0.10244802"
       id="guide2"
       inkscape:locked="false" />
    <sodipodi:guide
       position="700,1000"
       orientation="0,-1"
       id="guide3"
       inkscape:locked="false" />
    <sodipodi:guide
       position="700,0"
       orientation="0,-1"
       id="guide4"
       inkscape:locked="false" />
  </sodipodi:namedview>
  <path
     id="path5"
     style="fill:#000000;stroke:none;stroke-width:49.6079"
     inkscape:transform-center-x="15.300625"
     inkscape:transform-center-y="153.8539"
     d="M 538.0957,0 C 491.11157,0 465.07936,18.412882 460,55.238281 c -3.17461,12.063485 -4.76172,26.349479 -4.76172,42.857422 -6.98412,16.507947 -10.47656,27.617757 -10.47656,33.332027 0,3.17461 3.49244,5.07994 10.47656,5.71485 l -2.85742,6.66601 c 0.63494,2.53966 2.22205,3.81055 4.76172,3.81055 -1.26985,3.80955 -1.58804,6.98377 -0.95313,9.52344 H 460 c -3.17461,16.50794 2.53943,24.76172 17.14258,24.76172 h 15.23828 c 0,13.33333 6.03218,25.71394 18.0957,37.14258 l 0.008,0.0117 c -6.07454,10.2285 -12.23579,20.42465 -18.08008,30.76758 -22.83228,11.16654 -75.38301,40.18476 -170.75977,103.76953 -17.8357,25.5503 -17.59441,40.25467 0.72461,44.11133 54.35037,14.32783 90.55626,3.62236 144.87695,-6.04883 9.47323,-5.16728 16.55312,-9.47984 21.24024,-12.9375 0.91098,14.24387 1.38663,28.08697 1.31836,41.69922 -39.74927,13.66617 -92.61033,32.17882 -129.33985,52.9375 -30.56465,-7.77151 -61.69534,-2.71705 -87.08007,16.16602 -9.73199,7.5874 -19.36432,12.97554 -28.89649,16.16406 -3.96459,3.39276 -4.3908,8.32857 -1.2793,14.80859 3.11149,6.47998 5.56029,11.06958 7.34375,13.77149 1.78352,2.70199 4.29876,2.98063 7.53907,0.8418 11.88785,-7.84687 21.25464,-14.22463 28.10156,-19.13086 6.84639,-4.90702 18.63029,-9.38571 35.34961,-13.43946 3.05813,-1.24286 4.80802,-1.23501 5.25195,0.0234 0.44337,1.25767 -0.5939,2.33149 -3.11328,3.21875 -3.59849,1.5995 -9.17143,3.14492 -16.7207,4.63672 -7.54887,1.49156 -13.03665,3.75565 -16.46289,6.79297 -3.42548,3.03682 -3.97652,5.72798 -1.6543,8.07422 2.14007,3.24218 6.36129,3.17224 12.66211,-0.21094 6.3008,-3.38322 16.05225,-5.35962 29.25391,-5.92774 13.20168,-0.56815 26.91923,-5.93869 41.15234,-16.10937 40.9955,-8.02665 78.05554,-18.20543 114.68555,-30.76758 -1.38162,11.12691 -3.24151,22.24287 -5.64454,33.44531 -57.77776,2.53985 -142.85785,21.58724 -255.23828,57.14258 -33.65079,13.96828 -49.20767,43.80916 -46.66796,89.52344 -7.61906,62.22222 -18.41261,136.82642 -32.38086,223.81055 -4.44445,24.76191 -14.44447,44.60281 -30,59.52343 C 101.11045,950.6355 72.38133,961.58822 30.476562,968.57227 10.159105,968.57227 0,979.04753 0,1000 h 176.19141 c 19.68251,-1.90479 32.06321,-7.61876 37.14257,-17.14258 5.07937,-9.52383 4.1267,-25.71514 -2.85742,-48.57226 -6.98412,-22.85712 1.74502,-59.20562 26.18946,-109.04688 C 261.11046,775.39701 273.33398,713.65076 273.33398,640 V 640.95312 1000 h 385.7129 V 488.82422 c 0,-6.05038 2.69022,-9.07617 8.06835,-9.07617 6.05041,0 9.07618,3.02579 9.07618,9.07617 v 86.41406 h 22.85547 V 480 c 0,-14.60319 -10.15712,-21.9043 -30.47461,-21.9043 -20.95237,0 -31.42969,7.30111 -31.42969,21.9043 v 8.57227 H 618.0957 c 3.80966,-41.26982 6.3494,-84.44608 7.61914,-129.52539 h 37.14258 V 228.57227 c 0,-79.99998 -9.36557,-138.096623 -28.0957,-174.287114 C 616.03155,18.0947 583.80998,0 538.0957,0 Z M 540,15.714844 c 40.63491,0.317435 68.57054,17.936779 83.80859,52.857422 15.23813,34.920644 22.54116,88.253994 21.90625,160.000004 V 338.0957 h -20.95312 c 0,-88.25399 -10.79355,-132.53999 -32.38086,-132.85742 C 570.79355,204.92081 560,214.28637 560,233.33398 v 9.52344 c -5.89892,16.08794 -12.02326,40.3291 -18.375,72.72266 -0.30536,-0.648 -0.63343,-1.32167 -0.98242,-2.01953 -0.8898,-1.77976 -1.7385,-3.23449 -2.54688,-4.36524 V 137.14258 c 3.80951,-5.07936 9.99891,-13.01496 18.57032,-23.8086 8.57148,-10.79367 12.85742,-21.58722 12.85742,-32.380855 0,-10.793635 -7.30108,-16.191406 -21.9043,-16.191406 -7.61903,0 -12.3804,5.714037 -14.28516,17.142578 0,-12.063485 -5.71595,-19.682815 -17.14453,-22.857422 C 504.76088,55.872268 490.47683,54.603338 473.33398,55.238281 477.14353,28.57161 499.36509,15.397372 540,15.714844 Z m -49.64258,53.332031 c 6.26985,0.317463 12.49893,1.429209 18.68946,3.333984 12.38094,3.809514 18.57226,11.747062 18.57226,23.810547 H 540 C 540,85.397771 542.53981,80 547.61914,80 c 5.71431,0 8.57227,2.857995 8.57227,8.572266 0,5.714271 -4.6042,13.174514 -13.81055,22.380854 -9.20635,9.20638 -16.03211,17.61923 -20.47656,25.23829 v 70.47461 c -10.15873,-6.98412 -15.23828,-18.41213 -15.23828,-34.28516 h -25.7129 c -7.61905,0 -11.42968,-3.17423 -11.42968,-9.52344 0,-8.25394 3.81065,-12.69904 11.42968,-13.33398 10e-6,-4.44442 -1.27081,-6.98419 -3.81054,-7.61914 h -14.28516 c 3.17461,-6.98412 0.31662,-11.7455 -8.57226,-14.28516 0,-3.80955 3.81061,-13.65044 11.42968,-29.523437 0,-10.793672 1.90341,-20.000113 5.71289,-27.619141 6.34922,-1.26985 12.65985,-1.74715 18.92969,-1.429687 z m -3.92969,7.619141 c -6.82539,0 -12.45986,2.06442 -16.90429,6.191406 v 8.570312 c 9.52378,-8.888878 23.17533,-9.523324 40.95312,-1.904296 h 6.66602 v -6.666016 h -6.66602 c -9.20635,-4.126986 -17.22343,-6.191406 -24.04883,-6.191406 z m 0.26563,11.40625 C 479.14123,87.87998 472.37509,90.710575 468.57227,100 l 0.95117,4.76172 4.76172,-0.95313 c 7.20866,5.40636 16.09998,2.90314 35.23828,-6.666012 l 7.61914,0.953125 v -4.761719 l -7.61914,0.951172 c -6.94107,-2.805953 -15.27795,-6.020605 -22.83008,-6.21289 z m -4.78906,5.261718 c -1.84339,2.819324 -0.91518,5.899844 1.90429,7.619136 -2.53966,0.63492 -6.03015,0.31669 -10.47461,-0.95312 3.17465,-3.809553 6.03066,-6.031109 8.57032,-6.666016 z m 7.61914,0 c 3.80955,0 7.93644,0.952665 12.38086,2.857422 -2.53966,1.26985 -6.98282,2.856985 -13.33203,4.761714 2.07365,-2.304033 2.40383,-4.829736 0.95117,-7.619136 z M 521.9043,235.23828 v 75.55078 c -10.68262,5.41198 -16.5683,5.57561 -27.40625,10.33203 -7.02688,-19.00615 1.44991,-46.48357 27.40625,-85.88281 z m -53.64258,83.14453 c 1.03791,5.27612 3.20587,10.39512 6.50195,15.35547 -9.21901,8.39932 -15.89154,19.12363 -22.9375,32.71289 -37.7033,3.38127 -55.18504,4.29966 -92.57812,1.60938 31.26385,-6.63105 76.4024,-27.67665 109.01367,-49.67774 z m 137.45312,5.42578 v 35.23829 c -1.26963,48.88889 -3.17499,85.39842 -5.71484,109.52539 -2.53985,24.12697 -2.22155,56.66675 0.95312,97.61914 3.17459,40.95238 -19.3652,58.88799 -67.61914,53.80859 H 281.9043 c -20.31745,0 -30.47657,6.66663 -30.47657,20 0,72.38091 -11.26894,132.22187 -33.80859,179.52344 -22.53968,47.30163 -29.84079,86.66717 -21.9043,118.0957 7.9365,31.42857 1.74519,47.14258 -18.57226,47.14258 l -126.666018,0.95312 c -20.317454,0.63495 -16.825015,-2.53931 10.476563,-9.52343 29.206333,-2.53967 52.696815,-13.01696 70.474605,-31.42969 17.77779,-18.4127 28.88957,-41.26873 33.33399,-68.57031 C 173.6506,809.52473 185.39681,734.60235 200,651.42773 c -3.17461,-37.46031 11.74583,-60.63459 44.76172,-69.52343 100.95237,-32.38098 186.66643,-50.79386 257.14258,-55.23828 3.35807,-22.9521 5.981,-43.37166 7.75781,-62.63282 15.32182,-5.68197 30.69827,-11.7901 46.38477,-18.34179 22.22928,-44.86609 43.95373,-86.96217 49.66796,-121.88282 z m -83.81054,12.2461 v 5.57617 c -1.1935,-1.00308 -6.66284,-1.7819 -13.38477,2.87891 -0.11744,-1.04455 -0.23629,-2.09466 -0.35937,-3.14844 z m 0,11.05273 v 11.93946 h 10.47656 c -1.26981,8.88886 -4.12785,25.39838 -8.57227,49.52539 -3.48988,1.2735 -7.33637,2.63539 -11.48047,4.08203 0.11507,-17.56626 -0.64646,-35.23134 -2.38476,-54.21485 z m 95.23828,162.41602 h 20 V 793.33398 H 519.04688 V 978.0957 H 295.23828 V 640.95312 h 239.04688 c 39.36507,-0.6349 64.6037,-7.14443 75.71484,-19.52539 11.11111,-12.38099 13.49179,-49.6821 7.14258,-111.90429 z m -75.23828,305.71484 95.23828,0.95313 V 978.0957 H 541.9043 Z"
     sodipodi:nodetypes="sccscccccsccccccccccccssscccccccssccccccscccsssccccsssccsssccccssssscccsscccccssscscsssccssscccssccccccssccccccsscccccccscccccccccccccccccccsscsssscccscccccccccccccccccccccccccccscccccc" />
</svg>
