<?xml version="1.0" encoding="UTF-8" standalone="no"?>
<svg
   width="700"
   height="1000"
   version="1.1"
   id="svg1"
   sodipodi:docname="1370D.svg"
   inkscape:version="1.4.2 (f4327f4, 2025-05-13)"
   xmlns:inkscape="http://www.inkscape.org/namespaces/inkscape"
   xmlns:sodipodi="http://sodipodi.sourceforge.net/DTD/sodipodi-0.dtd"
   xmlns="http://www.w3.org/2000/svg"
   xmlns:svg="http://www.w3.org/2000/svg">
  <defs
     id="defs1" />
  <sodipodi:namedview
     id="namedview1"
     pagecolor="#ffffff"
     bordercolor="#666666"
     borderopacity="1.0"
     inkscape:showpageshadow="2"
     inkscape:pageopacity="0.0"
     inkscape:pagecheckerboard="0"
     inkscape:deskcolor="#d1d1d1"
     inkscape:zoom="0.755"
     inkscape:cx="35.099338"
     inkscape:cy="498.6755"
     inkscape:window-width="1680"
     inkscape:window-height="998"
     inkscape:window-x="-8"
     inkscape:window-y="-8"
     inkscape:window-maximized="1"
     inkscape:current-layer="svg1" />
  <path
     id="path1"
     style="fill:#000000;stroke:none;stroke-width:55.6253"
     d="m 537.58398,0 c -46.93937,0 -72.94693,18.39519 -78.02148,55.185547 -3.1716,12.052027 -4.75781,26.324185 -4.75781,42.816406 -6.97749,16.492227 -10.4668,27.591927 -10.4668,33.300777 0,3.80588 3.48931,5.70899 10.4668,5.70899 l -2.85352,6.66016 c 0.63431,2.53723 2.21857,3.80664 4.75586,3.80664 -1.26866,3.80591 -1.58548,6.97837 -0.95117,9.51562 l 3.80664,0.95117 c -3.1716,15.85791 2.53767,23.78711 17.12695,23.78711 h 15.22266 c 0,13.32065 6.02609,25.6897 18.07812,37.10742 h -36.15625 c -20.93241,2.53725 -41.2307,10.78332 -60.89453,24.73828 -48.84235,17.12654 -89.12008,33.30181 -120.83593,48.5254 -38.6933,46.93944 -65.01769,101.17248 -78.97266,162.70117 l -4.75781,37.10742 c -37.29402,28.22254 -41.09891,37.18174 -45.66993,62.32227 -1.90297,10.46622 -4.75868,19.18852 -8.56445,26.16601 -1.29293,5.55949 0.56437,9.6044 6.66016,8.5625 0,4.06167 4.69584,4.68614 6.66015,1.90234 0,3.87081 5.33462,5.88134 6.66016,1.9043 -1.26223,3.78708 7.19844,6.4149 8.56445,0.95117 2.53725,-13.32062 4.28098,-23.46978 5.23243,-30.44726 0.95149,-6.97749 5.45665,-17.10759 14.74804,-29.4961 2.15295,-2.87059 4.28097,-3.33035 5.23242,-2.3789 0.95149,0.95149 0.90722,2.0565 0.10487,3.66121 -1.79412,3.58825 -5.02055,8.2315 -10.0951,13.94035 -3.1716,5.07451 -5.07467,9.51635 -5.70898,13.32227 -0.63431,3.80591 0.9519,6.02584 4.75781,6.66015 3.17157,0.63431 5.39152,-2.85499 6.66015,-10.4668 4.44023,-4.44023 10.46633,-10.78318 18.07813,-19.02929 7.61179,-8.24611 10.46739,-19.66463 8.56445,-34.25391 14.58928,-46.93944 29.33577,-80.71675 44.24219,-101.33203 14.90645,-20.61527 29.02115,-46.14656 42.3418,-76.59375 57.0885,-14.58928 102.75865,-29.81201 137.01172,-45.66992 8.11109,-2.10289 14.15932,0.13327 18.14453,6.70898 -5.64472,13.80501 -13.14357,34.53196 12.68359,57.5293 5.94411,57.70118 6.77503,107.59965 -4.1875,159.35742 -57.72277,2.53725 -142.72009,21.88497 -254.99414,58.04102 -31.08151,13.32065 -46.62305,39.64504 -46.62305,78.97265 l -39.00976,233.11133 c -3.80592,25.37268 -9.35577,44.24213 -16.65039,56.61133 -7.29466,12.36909 -38.53519,25.21451 -93.720706,38.53516 C 9.8322694,970.50389 0,980.33614 0,1000 h 261.65625 c 20.2981,-1.90298 31.39781,-7.76965 33.30078,-17.60156 1.90294,-9.83191 0.3167,-20.14043 -4.75781,-30.92383 -5.07454,-10.78329 -3.80512,-36.1552 3.80664,-76.11719 h 8.5625 V 642.24609 h 290.20117 c 26.00703,-19.02947 33.93425,-59.62605 23.78516,-121.78906 3.80573,-58.99147 6.66132,-112.90956 8.56445,-161.75195 h 10.4668 c 0.63431,1.26866 7.92788,10.46722 21.88281,27.59375 3.17161,38.6933 7.77122,70.41043 13.79687,95.15039 6.02603,24.73837 3.01297,57.72253 -9.03906,98.95312 -13.95497,3.80588 -23.31099,10.62512 -28.06836,20.45704 -4.75718,9.8319 -8.72278,17.28482 -11.89453,22.35937 -6.34317,4.44023 -8.87996,7.92955 -7.61133,10.4668 1.90287,2.53725 4.59907,3.01147 8.08789,1.42578 3.48859,-1.58577 6.81849,-4.9157 9.99024,-9.99024 4.44019,-5.70886 7.92955,-10.46556 10.4668,-14.27148 1.26863,-1.27048 2.37851,-1.43009 3.33007,-0.47852 0.95119,0.95156 0.47502,2.69518 -1.42773,5.23243 -8.24607,12.05203 -15.5416,19.98127 -21.88477,23.7871 -6.34317,3.80593 -15.22291,9.1983 -26.64062,16.17579 -5.71004,4.28219 1.69574,8.66646 3.80664,7.61132 -2.54916,2.54545 -0.19447,7.04087 3.80273,5.70899 -1.35292,4.06903 1.36771,6.92907 3.8086,5.70898 1.08817,4.35392 4.74361,7.14548 10.46679,2.85352 5.07454,-6.34317 12.36808,-12.05046 21.88282,-17.125 25.82599,-13.06531 35.42861,-37.3273 42.8164,-63.75 l 16.17578,-39.96094 c 17.76089,-60.26002 17.12717,-121.78859 -1.90234,-184.58594 l -35.20508,-67.55468 v -76.11914 c 0,-79.92389 -9.35602,-137.963102 -28.06836,-174.119145 C 615.44587,18.078331 583.2548,0 537.58398,0 Z m 1.90235,15.699219 c 40.59623,0.317138 68.50684,17.919222 83.73047,52.80664 15.22356,34.887421 22.51712,88.169891 21.88281,159.847661 v 42.8164 l -20.93164,-35.20508 c -5.07454,-11.41771 -15.8593,-17.125 -32.35156,-17.125 -21.56673,0 -32.34961,9.19664 -32.34961,27.5918 v 91.3418 H 537.58398 V 137.96289 c 3.80592,-5.70882 9.98945,-13.95488 18.55274,-24.73828 8.56328,-10.78336 12.8457,-21.566209 12.8457,-32.34961 0,-10.783363 -7.29545,-16.173828 -21.88476,-16.173828 -7.6118,0 -12.36855,5.707323 -14.27149,17.125 0,-12.05199 -5.70928,-19.662381 -17.12695,-22.833984 -11.41771,-3.171569 -25.68984,-4.440954 -42.81641,-3.806641 3.80592,-26.641307 26.00725,-39.803503 66.60352,-39.486328 z m -54.38867,53.333984 c 17.57088,-0.258612 42.01953,4.318719 42.01953,27.066406 h 12.36914 c 0,-10.783401 2.53682,-16.175781 7.61133,-16.175781 5.70885,0 8.56445,2.853643 8.56445,8.5625 0,5.708857 -4.59929,13.163732 -13.79688,22.361332 -9.1976,9.19756 -16.01687,17.6011 -20.45703,25.21289 v 71.36133 c -10.14909,-7.6118 -15.22265,-19.34717 -15.22265,-35.20508 h -25.69141 c -7.61176,0 -11.41797,-2.85365 -11.41797,-8.5625 0,-8.24611 3.80621,-13.00478 11.41797,-14.27344 0,-4.44019 -1.26744,-6.97702 -3.80469,-7.61133 h -14.27343 c 3.17161,-6.97749 0.31796,-11.73423 -8.5625,-14.27148 0,-3.80591 3.80613,-13.63818 11.41796,-29.496097 0,-10.783401 1.90311,-19.981953 5.70899,-27.59375 3.16863,-0.667079 8.26022,-1.288796 14.11719,-1.375 z m 0.63086,7.798828 c -6.66032,0.158588 -12.21215,2.458208 -16.65235,6.898438 v 7.611328 c 9.51473,-8.880423 22.83636,-9.514141 39.96289,-1.902344 h 7.61133 v -6.662109 h -7.61133 c -8.88044,-4.123055 -16.65023,-6.1039 -23.31054,-5.945313 z m 0.19726,11.238281 c -7.54027,-0.04243 -14.19602,3.065648 -17.80078,12.785158 l 0.95117,3.80664 h 4.75781 c 6.09368,4.57027 16.93467,1.56153 35.20508,-6.660157 h 7.61133 v -3.806641 h -7.61133 c -7.14753,-2.88942 -15.57301,-6.082565 -23.11328,-6.125 z m 3.13281,5.173829 c 3.80592,0 7.92895,1.269349 12.36914,3.80664 -2.53725,0.634313 -6.97714,1.901746 -13.32031,3.804689 2.07168,-2.301873 2.40237,-4.824561 0.95117,-7.611329 z m -7.61328,0.951171 c -1.9153,1.915334 -0.95347,5.01021 0.95313,6.660158 -1.90294,0.63431 -5.0754,0.31746 -9.51563,-0.951173 3.17161,-3.805917 6.02525,-5.708984 8.5625,-5.708985 z M 521.4082,235.01367 v 123.69141 h 58.03907 v -80.875 c 10.78336,19.02951 19.3484,32.66795 25.69335,40.91406 v 39.96094 c -1.26865,48.84239 -3.17173,84.99901 -5.70898,108.46875 -2.53911,24.73833 -2.6987,56.29571 -0.47852,94.67187 2.22009,38.37613 -12.84518,57.56446 -45.19531,57.56446 H 313.03516 c -20.2981,0 -30.44727,10.46598 -30.44727,31.39843 V 856.32812 H 162.70312 c 13.32067,-60.26008 25.68976,-131.6209 37.10743,-214.08203 0,-31.71582 14.90587,-52.01411 44.71875,-60.89453 100.85633,-32.35017 186.48932,-50.74535 256.89843,-55.18554 10.58103,-73.65004 13.49421,-121.27568 5.23243,-188.17383 -24.1662,-18.10192 -20.26152,-49.53691 14.74804,-102.97852 z M 156.99414,875.35742 h 34.25195 c -5.70882,32.35016 -7.92878,56.77148 -6.66015,73.26367 -10.7834,5.70885 -33.9353,13.00239 -69.45703,21.88282 -17.12654,0 -25.689457,4.75866 -25.689457,14.27343 H 49.476562 c -19.663786,0.63431 -15.857614,-2.53813 11.417969,-9.51562 38.059023,-7.61179 63.590269,-19.50464 76.593749,-35.67969 13.00347,-16.17508 19.50586,-37.5833 19.50586,-64.22461 z m 50.42774,0 h 19.02929 c 1.3294,50.5177 -21.05662,63.80941 -24.73828,65.65039 -1.26863,-14.58928 0.63444,-36.4718 5.70899,-65.65039 z m 36.15624,0 h 33.30079 c -6.97748,41.86493 -8.08745,70.40929 -3.33008,85.63281 4.75737,15.22363 -3.32931,22.83399 -24.26172,22.83399 H 136.06055 c -19.66379,0.63431 -16.17448,-2.21933 10.46679,-8.5625 38.69329,-7.61179 64.54141,-19.50464 77.54493,-35.67969 13.00348,-16.17508 19.50585,-37.5833 19.50585,-64.22461 z"
     sodipodi:nodetypes="sccscccccscccccccscccccsssscsccscsccccccccscccssccccccccccsccsccccsccccccccccssssscccsscccssscscssccssscccssccccccssccccccsscccccccscccccccccccccccssssccccccccccccccscccccccssccsc" />
</svg>
