<?xml version="1.0" encoding="UTF-8" standalone="no"?>
<svg
   width="700"
   height="1000"
   version="1.1"
   id="svg1"
   sodipodi:docname="13709.svg"
   inkscape:version="1.4.2 (f4327f4, 2025-05-13)"
   xmlns:inkscape="http://www.inkscape.org/namespaces/inkscape"
   xmlns:sodipodi="http://sodipodi.sourceforge.net/DTD/sodipodi-0.dtd"
   xmlns="http://www.w3.org/2000/svg"
   xmlns:svg="http://www.w3.org/2000/svg">
  <defs
     id="defs1" />
  <sodipodi:namedview
     id="namedview1"
     pagecolor="#ffffff"
     bordercolor="#666666"
     borderopacity="1.0"
     inkscape:showpageshadow="2"
     inkscape:pageopacity="0.0"
     inkscape:pagecheckerboard="0"
     inkscape:deskcolor="#d1d1d1"
     inkscape:zoom="0.3775"
     inkscape:cx="353.64238"
     inkscape:cy="49.006622"
     inkscape:window-width="1680"
     inkscape:window-height="998"
     inkscape:window-x="-8"
     inkscape:window-y="-8"
     inkscape:window-maximized="1"
     inkscape:current-layer="svg1"
     showguides="true">
    <sodipodi:guide
       position="659.04764,511.42862"
       orientation="1,0"
       id="guide1"
       inkscape:locked="false" />
    <sodipodi:guide
       position="510.47615,780.95238"
       orientation="0.99473836,-0.10244802"
       id="guide2"
       inkscape:locked="false" />
  </sodipodi:namedview>
  <path
     id="path5"
     style="fill:#000000;stroke:none;stroke-width:49.6079"
     inkscape:transform-center-x="15.300625"
     inkscape:transform-center-y="153.8539"
     d="M 538.0957 0 C 491.11157 0 465.07936 18.412882 460 55.238281 C 456.82539 67.301766 455.23828 81.58776 455.23828 98.095703 C 448.25416 114.60365 444.76172 125.71346 444.76172 131.42773 C 444.76172 134.60234 448.25416 136.50767 455.23828 137.14258 L 452.38086 143.80859 C 453.0158 146.34825 454.60291 147.61914 457.14258 147.61914 C 455.87273 151.42869 455.55454 154.60291 456.18945 157.14258 L 460 157.14258 C 456.82539 173.65052 462.53943 181.9043 477.14258 181.9043 L 492.38086 181.9043 C 492.38086 195.23763 498.41304 207.61826 510.47656 219.04688 L 510.48438 219.05859 C 496.20085 243.10963 481.436 266.97873 471.44727 293.00781 C 465.32304 307.56533 466.41031 321.11568 474.70898 333.65625 C 437.93342 332.42084 398.91251 334.88974 357.14258 340.95312 C 334.28546 333.969 316.50702 326.50881 303.80859 318.57227 C 291.1102 310.63578 279.68217 307.61869 269.52344 309.52344 L 191.42773 102.85742 C 186.34837 90.793944 179.04727 89.841269 169.52344 100 L 57.142578 411.42773 L 136.19141 432.38086 L 190.47656 168.57227 L 253.33398 335.23828 C 240.00065 333.96843 236.18999 342.69759 241.9043 361.42773 C 247.61857 380.1579 257.45949 387.93633 271.42773 384.76172 L 280 406.66602 C 269.20633 406.03108 266.66655 414.92128 272.38086 433.33398 C 278.09513 451.74668 286.98338 459.36406 299.04688 456.18945 L 302.85742 466.66602 L 324.76172 458.0957 L 322.85742 453.33398 C 331.11139 450.15937 342.53943 445.71431 357.14258 440 C 400.00465 452.38411 444.20825 454.93477 488.43555 454.10352 C 487.07755 471.34107 484.66206 488.42452 480.95312 505.71484 C 423.17536 508.25469 338.09527 527.30208 225.71484 562.85742 C 192.06405 576.8257 176.50717 606.66658 179.04688 652.38086 C 171.42782 714.60308 160.63427 789.20728 146.66602 876.19141 C 142.22157 900.95332 132.22155 920.79422 116.66602 935.71484 C 101.11045 950.6355 72.381329 961.58822 30.476562 968.57227 C 10.159105 968.57227 0 979.04753 0 1000 L 176.19141 1000 C 195.87392 998.09521 208.25462 992.38124 213.33398 982.85742 C 218.41335 973.33359 217.46068 957.14228 210.47656 934.28516 C 203.49244 911.42804 212.22158 875.07954 236.66602 825.23828 C 261.11046 775.39701 273.33398 713.65076 273.33398 640 L 273.33398 640.95312 L 273.33398 1000 L 659.04688 1000 L 659.04688 488.82422 C 659.04688 482.77384 661.7371 479.74805 667.11523 479.74805 C 673.16564 479.74805 676.19141 482.77384 676.19141 488.82422 L 676.19141 575.23828 L 699.04688 575.23828 L 699.04688 480 C 699.04688 465.39681 688.88976 458.0957 668.57227 458.0957 C 647.6199 458.0957 637.14258 465.39681 637.14258 480 L 637.14258 488.57227 L 618.0957 488.57227 C 621.90536 447.30245 624.4451 404.12621 625.71484 359.04688 L 662.85742 359.04688 L 662.85742 228.57227 C 662.85742 148.57229 653.49185 90.475647 634.76172 54.285156 C 616.03155 18.0947 583.80998 0 538.0957 0 z M 540 15.714844 C 580.63491 16.032279 608.57054 33.651623 623.80859 68.572266 C 639.04672 103.49291 646.34975 156.82626 645.71484 228.57227 L 645.71484 338.0957 L 624.76172 338.0957 C 624.76172 249.84171 613.96817 205.55571 592.38086 205.23828 C 570.79355 204.92081 560 214.28637 560 233.33398 L 560 242.85742 C 553.01587 261.90503 545.71473 292.3804 538.0957 334.28516 L 538.0957 137.14258 C 541.90521 132.06322 548.09461 124.12762 556.66602 113.33398 C 565.2375 102.54031 569.52344 91.74676 569.52344 80.953125 C 569.52344 70.15949 562.22236 64.761719 547.61914 64.761719 C 540.00011 64.761719 535.23874 70.475756 533.33398 81.904297 C 533.33398 69.840812 527.61803 62.221482 516.18945 59.046875 C 504.76088 55.872268 490.47683 54.603338 473.33398 55.238281 C 477.14353 28.57161 499.36509 15.397372 540 15.714844 z M 490.35742 69.046875 C 496.62727 69.364338 502.85637 70.476084 509.04688 72.380859 C 521.42782 76.190373 527.61914 84.127921 527.61914 96.191406 L 540 96.191406 C 540 85.397771 542.53981 80 547.61914 80 C 553.33345 80 556.19141 82.857995 556.19141 88.572266 C 556.19141 94.286537 551.58721 101.74678 542.38086 110.95312 C 533.17451 120.1595 526.34875 128.57235 521.9043 136.19141 L 521.9043 206.66602 C 511.74557 199.6819 506.66602 188.25389 506.66602 172.38086 L 480.95312 172.38086 C 473.33407 172.38086 469.52344 169.20663 469.52344 162.85742 C 469.52344 154.60348 473.33409 150.15838 480.95312 149.52344 C 480.95313 145.07902 479.68231 142.53925 477.14258 141.9043 L 462.85742 141.9043 C 466.03203 134.92018 463.17404 130.1588 454.28516 127.61914 C 454.28516 123.80959 458.09577 113.9687 465.71484 98.095703 C 465.71484 87.302031 467.61825 78.09559 471.42773 70.476562 C 477.77695 69.206712 484.08758 68.729412 490.35742 69.046875 z M 486.42773 76.666016 C 479.60234 76.666016 473.96787 78.730436 469.52344 82.857422 L 469.52344 91.427734 C 479.04722 82.538856 492.69877 81.90441 510.47656 89.523438 L 517.14258 89.523438 L 517.14258 82.857422 L 510.47656 82.857422 C 501.27021 78.730436 493.25313 76.666016 486.42773 76.666016 z M 486.69336 88.072266 C 479.14123 87.87998 472.37509 90.710575 468.57227 100 L 469.52344 104.76172 L 474.28516 103.80859 C 481.49382 109.21495 490.38514 106.71173 509.52344 97.142578 L 517.14258 98.095703 L 517.14258 93.333984 L 509.52344 94.285156 C 502.58237 91.479203 494.24549 88.264551 486.69336 88.072266 z M 481.9043 93.333984 C 480.06091 96.153308 480.98912 99.233818 483.80859 100.95312 C 481.26893 101.58804 477.77844 101.26981 473.33398 100 C 476.50863 96.190447 479.36464 93.968891 481.9043 93.333984 z M 489.52344 93.333984 C 493.33299 93.333984 497.45988 94.286649 501.9043 96.191406 C 499.36464 97.461256 494.92148 99.048381 488.57227 100.95312 C 490.64592 98.649077 490.9761 96.123384 489.52344 93.333984 z M 174.28516 142.85742 L 120 406.66602 L 82.869141 395.24219 C 83.779047 395.08459 114.24995 310.95598 174.28516 142.85742 z M 521.9043 235.23828 L 521.9043 359.04688 L 532.38086 359.04688 C 531.11105 367.93574 528.25301 384.44526 523.80859 408.57227 C 520.17697 407.71776 516.34678 407.00257 512.33203 406.41797 C 512.21724 384.84157 510.76806 362.89853 507.80078 338.34961 C 483.64994 320.16145 486.7106 288.65896 521.9043 235.23828 z M 605.71484 323.80859 L 605.71484 359.04688 C 604.44521 407.93577 602.53985 444.4453 600 468.57227 C 597.46015 492.69924 597.77844 525.23902 600.95312 566.19141 C 604.1277 607.14383 581.58792 625.0794 533.33398 620 L 281.9043 620 C 261.58685 620 251.42773 626.66663 251.42773 640 C 251.42773 712.38091 240.15879 772.22187 217.61914 819.52344 C 195.07946 866.82507 187.77835 906.19061 195.71484 937.61914 C 203.65134 969.04771 197.46003 984.76172 177.14258 984.76172 L 50.476562 985.71484 C 30.159108 986.34979 33.651547 983.17553 60.953125 976.19141 C 90.159458 973.65174 113.64994 963.17445 131.42773 944.76172 C 149.20552 926.34902 160.3173 903.49299 164.76172 876.19141 C 173.6506 809.52473 185.39681 734.60235 200 651.42773 C 196.82539 613.96742 211.74583 590.79314 244.76172 581.9043 C 345.71409 549.52332 431.42815 531.11044 501.9043 526.66602 C 505.8847 499.46035 508.83312 475.81338 510.5625 453.43555 C 523.57763 452.91139 536.57606 452.18707 549.52344 451.42773 C 581.26951 401.269 600.00061 358.72924 605.71484 323.80859 z M 326.66602 368.57227 C 375.17171 382.63186 428.918 387.19307 488.73047 382.70703 C 489.16102 390.07064 489.47178 397.32997 489.64648 404.50977 C 460.97399 403.57518 425.99592 407.14422 387.61914 413.33398 C 364.762 405.71499 346.98359 397.9365 334.28516 390 C 321.58677 382.06347 308.88984 379.68281 296.19141 382.85742 L 295.23828 380 C 303.49225 376.82539 313.96763 373.01669 326.66602 368.57227 z M 617.14258 509.52344 L 637.14258 509.52344 L 637.14258 793.33398 L 519.04688 793.33398 L 519.04688 978.0957 L 295.23828 978.0957 L 295.23828 640.95312 L 534.28516 640.95312 C 573.65023 640.31822 598.88886 633.80869 610 621.42773 C 621.11111 609.04674 623.49179 571.74563 617.14258 509.52344 z M 541.9043 815.23828 L 637.14258 816.19141 L 637.14258 978.0957 L 541.9043 978.0957 L 541.9043 815.23828 z " />
</svg>
