<?xml version="1.0" encoding="UTF-8" standalone="no"?>
<svg
   width="8.400267"
   height="17.977446"
   version="1.1"
   id="svg1"
   sodipodi:docname="1372D-src.svg"
   inkscape:version="1.4.2 (f4327f4, 2025-05-13)"
   xmlns:inkscape="http://www.inkscape.org/namespaces/inkscape"
   xmlns:sodipodi="http://sodipodi.sourceforge.net/DTD/sodipodi-0.dtd"
   xmlns="http://www.w3.org/2000/svg"
   xmlns:svg="http://www.w3.org/2000/svg">
  <defs
     id="defs1" />
  <sodipodi:namedview
     id="namedview1"
     pagecolor="#ffffff"
     bordercolor="#666666"
     borderopacity="1.0"
     inkscape:showpageshadow="2"
     inkscape:pageopacity="0.0"
     inkscape:pagecheckerboard="0"
     inkscape:deskcolor="#d1d1d1"
     inkscape:zoom="32"
     inkscape:cx="5"
     inkscape:cy="10.484375"
     inkscape:window-width="1680"
     inkscape:window-height="998"
     inkscape:window-x="-8"
     inkscape:window-y="-8"
     inkscape:window-maximized="1"
     inkscape:current-layer="svg1"
     showguides="true">
    <sodipodi:guide
       position="0.9188,12.612253"
       orientation="1,0"
       id="guide1"
       inkscape:locked="false" />
    <sodipodi:guide
       position="-4.8753753,11.046568"
       orientation="0,-1"
       id="guide2"
       inkscape:locked="false" />
  </sodipodi:namedview>
  <path
     style="fill:#000000;stroke:none;stroke-width:0.999998"
     d="M 5.2823133,7.6135898 C 5.2411472,8.354564 5.1073607,9.2430472 4.8809516,10.27904 c -0.3343135,1.529736 0.2572839,1.865811 0.2572839,3.876526 0,0.837027 -0.096053,1.3108 -0.2881577,2.051775 h 1.3790354 c 0.1921044,-0.878192 0.2847263,-1.286788 0.2778654,-1.85624 -0.00686,-0.569451 -0.1500663,-1.105643 -0.1500663,-1.560599 0,-0.735242 0.5925919,-1.312984 0.5925919,-2.274763 0,-0.507705 -0.144078,-1.0222705 -0.4322343,-1.5436963 C 6.585879,8.2447901 6.6407652,7.7919724 6.6819302,7.6135898 Z M 5.158817,16.577827 c 0.013721,0.192104 0.00686,0.425374 -0.020581,0.69981 0.4528167,-0.178383 0.6860861,-0.301879 0.6998084,-0.370488 V 16.577827 Z M 5.5704698,3.3529902 v 0.08233 H 5.4675572 C 5.1931219,3.3255462 4.9804346,3.3392679 4.8294953,3.4764855 V 3.3529902 c 0.1372176,-0.123496 0.3499049,-0.123496 0.6380619,0 z m 0,0.1646604 v 0.041165 H 5.4675572 c -0.2058267,0.082331 -0.3430445,0.1234963 -0.411653,0.1234963 -0.068609,0 -0.1234954,-0.013721 -0.1646612,-0.041165 H 4.829495 L 4.808913,3.5999809 c 0.041166,-0.1234953 0.1440788,-0.185243 0.3087391,-0.185243 0.054887,0 0.1715225,0.034304 0.3499053,0.1029128 z M 5.3234784,3.5382331 C 5.2685919,3.5107894 5.206844,3.4970681 5.1382355,3.4970681 c 0.013721,0.013721 0.020581,0.034304 0.020581,0.061748 0,0.013721 -0.013721,0.034304 -0.041165,0.061748 0.096053,-0.027443 0.1646614,-0.054887 0.2058269,-0.082331 z M 5.0147392,3.5176506 c -0.041165,0 -0.08233,0.020582 -0.1234962,0.061748 0.054887,0.027443 0.1029136,0.041166 0.1440787,0.041166 -0.027443,-0.027443 -0.041165,-0.048027 -0.041165,-0.061748 0,-0.027443 0.00686,-0.041165 0.020582,-0.041165 z m 2.2023392,3.519627 V 5.2671728 c 0,-1.056574 -0.099483,-1.7941174 -0.2984479,-2.2126305 C 6.7196652,2.6360293 6.3869131,2.4267728 5.9203741,2.4267728 c -0.6449217,0 -0.9879653,0.1783824 -1.0291311,0.5351471 0.2607135,0 0.4631095,0.020582 0.607188,0.061748 0.1440778,0.041166 0.2161167,0.1440791 0.2161167,0.3087402 0.027443,-0.123496 0.1097739,-0.1852439 0.2469915,-0.1852439 0.1783827,0 0.267574,0.096053 0.267574,0.2881567 0,0.1509392 -0.044596,0.2812956 -0.1337874,0.3910693 -0.089192,0.1097737 -0.16123,0.1989651 -0.2161168,0.2675736 V 7.0372776 Z M 5.6528001,7.243103 V 4.0733812 C 5.7214089,3.9910511 5.8071694,3.8847076 5.9100828,3.7543508 6.0129956,3.6239941 6.0644519,3.5176506 6.0644519,3.4353205 c 0,-0.082331 -0.034304,-0.1234963 -0.1029127,-0.1234963 -0.08233,0 -0.1234953,0.07547 -0.1234953,0.2264089 H 5.6322175 c 0,-0.1783827 -0.0789,-0.291587 -0.2367003,-0.339613 C 5.2377171,3.1505934 5.0559039,3.1403027 4.8500778,3.1677461 4.7951909,3.2775203 4.7677475,3.4078768 4.7677475,3.5588154 4.6442515,3.7783633 4.5825036,3.9155809 4.5825036,3.9704684 4.7197212,4.011633 4.7677475,4.073381 4.7265823,4.1557113 h 0.2058266 c 0.041165,0.013721 0.061748,0.048027 0.061748,0.1029136 -0.1097741,0.027443 -0.1646613,0.096052 -0.1646613,0.2058255 0,0.082331 0.061748,0.1234962 0.1852439,0.1234962 H 5.4675572 C 5.5773307,4.7937729 5.6082045,4.9893075 5.5601786,5.1745504 5.5121523,5.359794 5.3371997,5.4592766 5.0353217,5.4729983 4.7883305,5.5141644 4.6785566,5.7234208 4.706,6.1007688 4.7334437,6.4781161 4.6716951,6.8040074 4.5207561,7.0784427 4.6030873,7.2979904 4.767748,7.4077644 5.0147392,7.4077644 H 6.8877567 L 6.9083392,7.243103 Z M 4.6442524,2.4679379 c 0,-0.096053 -0.061748,-0.1440789 -0.1852439,-0.1440789 0,0.027443 -0.013721,0.048027 -0.041165,0.061748 -0.013721,-0.013721 -0.020582,-0.027443 -0.020582,-0.041165 -0.054888,0.013721 -0.07547,0.027443 -0.061748,0.041165 0,0.027444 0.089192,0.034305 0.2675741,0.020582 V 2.467938 Z M 0.93938255,4.4801404 c -0.17838271,0 -0.34304373,0.034304 -0.49398305,0.1029127 0.15093932,0.1921043 0.22640898,0.3704871 0.22640898,0.5351481 0,0.1646611 0.0823305,0.2469915 0.24699152,0.2469915 0.1921044,0 0.2881566,-0.08233 0.2881566,-0.2469915 0,-0.164661 0.075469,-0.3430438 0.226408,-0.5351481 C 1.2824259,4.5144443 1.1177653,4.4801404 0.93938255,4.4801404 Z m -0.1852439,1.0702952 c -0.16466101,0 -0.24699152,-0.1097739 -0.24699152,-0.3293217 0,-0.2332695 -0.0754697,-0.3979305 -0.22640897,-0.493983 C 0.19840798,4.768297 0.13322993,4.7785883 0.08520399,4.7580057 0.03717804,4.7374222 0.05433017,4.6791047 0.13666035,4.5830531 0.30132137,4.3772269 0.56889543,4.2743139 0.93938255,4.2743139 c 0.37048655,0 0.63806015,0.102913 0.80272115,0.3087392 0.082331,0.096052 0.099483,0.1543694 0.051456,0.1749526 -0.048026,0.020582 -0.1132039,0.010292 -0.1955342,-0.030875 -0.164661,0.096053 -0.2469914,0.2607135 -0.2469914,0.493983 0,0.2195478 -0.07547,0.3293217 -0.2264091,0.3293217 v 3.380442 C 1.2892865,8.985764 1.4470867,9.0680949 1.5980259,9.1778691 2.5173822,8.6701644 3.2034694,8.306538 3.6562873,8.0869903 3.7523388,7.4969554 3.8621127,6.9686685 3.985608,6.5021294 3.985608,5.678825 4.3423734,5.2671728 5.0559042,5.2671728 5.2617305,5.2260077 5.3749347,5.1539685 5.3955172,5.0510551 5.4160998,4.9481423 5.3715043,4.8349381 5.2617308,4.7114421 H 4.9529916 c -0.2332695,0 -0.3224609,-0.1097739 -0.2675741,-0.3293217 h -0.08233 c 0,-0.054887 0.00686,-0.102913 0.020582,-0.1440788 -0.027444,0 -0.054888,-0.013721 -0.082331,-0.041165 l 0.061749,-0.1029131 c -0.1097742,0 -0.1646613,-0.020582 -0.1646613,-0.061748 0,-0.082331 0.054887,-0.2332702 0.1646613,-0.452818 0,-0.2195478 0.013721,-0.3773476 0.041165,-0.4733994 -0.1372176,0 -0.2229786,-0.072039 -0.2572828,-0.2161178 -0.034305,-0.1440785 -0.024013,-0.291587 0.030874,-0.4425257 -0.1097743,0.027443 -0.1646614,0.013721 -0.1646614,-0.041166 -0.013721,-0.054887 0.041166,-0.096052 0.1646614,-0.1234953 0.08233,-0.013721 0.1577998,-0.00686 0.2264089,0.020582 0.068609,0.027443 0.08233,0.1166348 0.041165,0.2675741 -0.096053,0.2195478 -0.096053,0.3499043 0,0.3910693 v 0.020582 C 4.7265825,2.6394594 4.8637999,2.4267725 5.0970694,2.3444416 5.6459391,2.1660589 6.0884653,2.1386155 6.4246474,2.2621115 6.7608303,2.3856073 6.9975305,2.6188768 7.1347481,2.9619199 7.3405744,3.455903 7.4434873,4.2243206 7.4434873,5.2671728 c 0.3704871,0 0.6243393,0.4116522 0.7615562,1.2349566 0.041166,0.5214258 0.041166,1.2280955 0,2.120009 0.192105,0.5214264 0.1783834,1.3172871 -0.041165,2.3875826 L 7.7600391,11.31681 C 7.6789174,10.845619 7.7865311,9.9325646 7.6904789,9.5071908 7.5944267,9.0818167 7.5807046,8.6976081 7.6493137,8.3545643 7.5532613,8.0801291 7.4846525,7.709642 7.4434873,7.243103 H 7.0935831 C 7.0112519,7.7370861 6.9426434,8.2996776 6.8877567,8.9308776 7.175913,9.4797467 7.3199911,10.008034 7.3199911,10.515739 c 0,1.184882 -0.592591,1.466195 -0.592591,2.274763 0,0.42997 0.1260524,0.994577 0.139774,1.570889 0.013721,0.576315 -0.08233,1.104975 -0.2881566,2.216436 v 0.555731 c 0.096051,0.452817 0.013721,0.734114 -0.2469915,0.843887 H 2.8124 c -0.2469912,0 -0.3567652,-0.150939 -0.3293217,-0.452818 h 0.452817 c 0.2607129,-0.05488 0.4871215,-0.133787 0.6792259,-0.2367 0.1921044,-0.102913 0.3670567,-0.171521 0.5248569,-0.205826 0.1578001,-0.0343 0.2367002,-0.195534 0.2367002,-0.48369 0.2607129,-1.056575 0.3910694,-1.667567 0.3910694,-2.463427 0,-2.333763 -0.6170438,-2.000484 -0.2469916,-3.804489 C 4.7403039,9.260199 4.8706607,8.3820078 4.9118264,7.6959209 4.7883305,7.6410335 4.6854175,7.5930072 4.6030873,7.5518422 4.5756439,7.7851123 4.4521483,8.1075731 4.2326005,8.5192247 3.8895568,8.8485467 3.0525304,9.2053121 1.7215212,9.589521 1.5294168,9.6444077 1.3304516,9.7061558 1.1246254,9.7747649 H 0.75413865 0.65122594 C 0.50028662,9.6512689 0.43167781,9.4523036 0.4453995,9.1778691 0.32190358,9.1504256 0.27387765,9.0680952 0.30132169,8.9308776 h 0.45281696 z"
     id="path1"
     sodipodi:nodetypes="cssccsssccccccccccccccccccscccsccccscccccscccsscscssscccccsssccsccccccsscscscsccccsccccccscssscscscccscscsccccccscscccccsccscccsccccscccccccscccssscccsccsscsscccccccccccs" />
  <path
     style="fill:#000000;stroke:none;stroke-width:0.999998"
     d="M 6.3726226,0 C 6.3008231,0.00448644 6.2378022,0.02165364 6.1839529,0.05082256 6.130103,0.07999103 6.0872653,0.12337068 6.0558524,0.18170787 l -0.073797,0.0877207 C 5.9461561,0.23352881 5.925974,0.20414501 5.9214863,0.18170766 5.8227617,0.05157079 5.6765389,-0.00650058 5.4835777,0.00696192 5.3489536,0.04734908 5.2664473,0.11887515 5.2350349,0.22208719 5.2305476,0.34773631 5.3045482,0.42173693 5.4571222,0.44417439 5.2417235,1.4134686 5.1340862,1.9137652 5.1340862,1.9451773 5.0353619,1.9137652 4.9521595,1.8826026 4.8848472,1.8511906 4.7457357,1.7883661 4.7096246,1.8060735 4.7769366,1.904798 c 0.05385,0.067312 0.1400679,0.1290953 0.2589856,0.1851886 0.1189182,0.056094 0.3513589,0.050603 0.6968943,-0.016707 0.1176227,-0.031517 0.079815,0.1563567 0.099556,0.2036026 -0.054738,0.040284 0.119374,0.016347 0.2541181,0.034798 0.012707,-1.65e-4 0.025533,-3.99e-5 0.038291,0 -9.618e-4,-0.00335 -0.0014,0.1201137 -0.0014,-0.010444 0.017961,-0.062833 -0.012195,-0.2179644 0.1079126,-0.2279745 0.3455352,0.067313 0.5693153,0.075277 0.6725271,0.023671 0.1032121,-0.051606 0.1864143,-0.1201162 0.249239,-0.2053786 0.013253,-0.037863 0.01587,-0.062393 0.00836,-0.073101 -6.073e-4,-7.148e-4 -0.00206,-0.00222 -0.00278,-0.00278 -0.012942,-0.00817 -0.042365,0.00311 -0.086329,0.035506 l -0.2290457,0.1079 C 6.8297901,1.9232017 6.7729557,1.6705787 6.6719879,1.2016379 6.5710196,0.73269679 6.515964,0.48254868 6.5069888,0.45113638 6.6775129,0.42421154 6.7557662,0.34348354 6.7423037,0.20885941 6.6839665,0.06974774 6.5610963,0 6.3726226,0 Z m 0.00627,0.09398678 C 6.4955677,0.10296109 6.5745171,0.14154711 6.6149043,0.20885946 6.5969495,0.30758391 6.5094948,0.35892817 6.3524332,0.36341538 6.5812944,1.4134843 6.6956592,1.9498917 6.6956592,1.9723292 6.5969349,2.0037398 6.445524,1.982513 6.2375609,1.9249878 6.1042886,1.8881234 6.0653594,1.8950172 5.9820563,1.9389109 5.9075956,1.8968355 5.8113075,1.9022351 5.7258562,1.9249843 c -0.219836,0.05853 -0.3721411,0.071793 -0.4574031,0.04038 L 5.6186401,0.38360515 C 5.4615783,0.37911873 5.3759014,0.33450098 5.3624392,0.24923888 c 0.027486,-0.0863837 0.073961,-0.13183195 0.1392396,-0.13575861 0.00934,-5.5884e-4 0.019142,-4.2418e-4 0.02924,6.9316e-4 0.1076992,-0.004487 0.2086091,0.038351 0.302846,0.12810047 l 0.073798,0.17474573 0.00696,1.57235737 H 6.0628157 V 0.40379487 c 0.049358,-0.11667433 0.089724,-0.19067484 0.1211369,-0.22208721 0.067312,-0.0448748 0.1321112,-0.0742586 0.194936,-0.08772093 z"
     id="path1-9"
     sodipodi:nodetypes="cscccccccccsccccccscccccscccccccscscccsccccccccc" />
  <path
     style="fill:#000000;stroke:none;stroke-width:0.999998"
     d="m 1.1456516,9.5996289 c -0.058238,0.00889 -0.1066018,0.019535 -0.1208228,0.034851 -7.576e-4,9.769e-4 -0.00196,0.00334 -0.00246,0.00435 -0.00485,0.014559 0.017195,0.03463 0.082605,0.060118 0.011489,0.00448 0.02302,0.00859 0.034523,0.013069 0.00367,4.817e-4 0.00874,9.189e-4 0.014796,0.00175 -0.00367,-0.042223 -0.00594,-0.080087 -0.00863,-0.1141367 z m -0.00619,0.1123941 c -0.020648,-0.0026 -0.041612,-0.00492 -0.06041,-0.011327 v -8.697e-4 c 0.0036,4.641e-4 0.013679,0.00206 0.017258,0.00261 -0.11544049,-0.030491 -0.046061,-0.00387 -0.12328869,-0.036593 0.015623,0.00422 0.030987,0.00845 0.046851,0.012198 h 0.00127 c 5.296e-4,5.48e-5 0.00152,6.737e-4 0.00246,8.699e-4 h 0.00127 0.00127 0.00127 0.00127 v -8.699e-4 h -0.00127 c -0.0385869,-0.01091 -0.0787738,-0.017306 -0.11590336,-0.030491 -0.0142598,-0.00506 -0.0267141,-0.013816 -0.0382216,-0.021782 -0.004734,-5.36e-5 -0.008825,1.085e-4 -0.0135586,0 -0.024549,0.00987 -0.0530683,0.018969 -0.0875352,0.030494 -0.0195747,0.00654 -0.0391937,0.012147 -0.0579479,0.016554 -0.0489841,0.3492756 -0.12681163,1.0187256 -0.23424848,2.0082836 -0.11848302,1.091288 -0.1457942,2.166609 -0.082604,3.227195 0.14217845,0.720083 0.31614295,1.049426 0.5215122,0.988024 C 1.1321729,15.957715 1.309334,15.628378 1.451513,14.908295 1.5068038,13.847709 1.4750656,12.772388 1.3565798,11.6811 1.2532308,10.730185 1.1867833,10.074299 1.1555105,9.7146347 c -0.00531,-5.888e-4 -0.010709,-0.00194 -0.016026,-0.00261 z M 0.9188,10.002157 c 0.1658757,2.065352 0.2522407,3.340994 0.2601394,3.826631 C 1.1710494,14.643765 1.0846754,15.188034 0.9188,15.461553 0.75292482,15.188034 0.66532648,14.643765 0.65742778,13.828788 0.66532378,13.343151 0.75292478,12.067509 0.9188,10.002157 Z"
     id="path4" />
  <path
     d="m 3.1013726,11.791863 c 0,0.178383 0.034304,0.343044 0.1029127,0.493983 0.1921043,-0.150939 0.3704871,-0.226409 0.5351481,-0.226409 0.1646611,0 0.2469915,-0.08233 0.2469915,-0.246991 0,-0.192105 -0.08233,-0.288157 -0.2469915,-0.288157 -0.164661,0 -0.3430438,-0.07547 -0.5351481,-0.226408 -0.068609,0.150939 -0.1029127,0.315599 -0.1029127,0.493982 z m 1.0702952,0.185244 c 0,0.164661 -0.1097739,0.246992 -0.3293217,0.246992 -0.2332695,0 -0.3979305,0.07547 -0.493983,0.226409 0.041166,0.08233 0.051457,0.147508 0.030875,0.195534 -0.020583,0.04803 -0.078901,0.03087 -0.1749526,-0.05146 -0.2058262,-0.164657 -0.3087392,-0.432231 -0.3087392,-0.802719 0,-0.370486 0.102913,-0.63806 0.3087392,-0.802721 0.096052,-0.08233 0.1543694,-0.09948 0.1749526,-0.05146 0.020582,0.04803 0.010292,0.113204 -0.030875,0.195535 0.096053,0.164661 0.2607135,0.246991 0.493983,0.246991 0.2195478,0 0.3293217,0.07547 0.3293217,0.226409 h 3.3335671 c 0.054887,-0.164661 0.1372175,-0.322462 0.2469917,-0.473401 l 0.4116519,-0.123495 c 0.054887,0.192104 0.1166348,0.391069 0.1852439,0.596896 v 0.370486 0.102912 c -0.1234962,0.150939 -0.3224615,0.219548 -0.596896,0.205826 -0.027444,0.123496 -0.1097739,0.171522 -0.2469915,0.144078 v -0.452816 z"
     style="fill:#000000;stroke:none;stroke-width:0.999998"
     id="path1-3"
     sodipodi:nodetypes="scssscscscscscscsccccccccccc" />
  <path
     style="fill:none;stroke:#000000;stroke-width:0.25;stroke-linecap:butt;stroke-linejoin:miter;stroke-dasharray:none;stroke-opacity:1"
     d="M 2.9919976,11.768426 C 1.953125,12.492188 1.794203,15.390625 2.34375,15.390625 c 0.6251953,0 0.1847622,-2.94087 0.7199103,-3.167279"
     id="path2"
     sodipodi:nodetypes="csc" />
</svg>
