<?xml version="1.0" encoding="UTF-8" standalone="no"?>
<svg
   width="700"
   height="1000"
   version="1.1"
   id="svg1"
   sodipodi:docname="1374C.svg"
   inkscape:version="1.4.2 (f4327f4, 2025-05-13)"
   xmlns:inkscape="http://www.inkscape.org/namespaces/inkscape"
   xmlns:sodipodi="http://sodipodi.sourceforge.net/DTD/sodipodi-0.dtd"
   xmlns="http://www.w3.org/2000/svg"
   xmlns:svg="http://www.w3.org/2000/svg">
  <defs
     id="defs1" />
  <sodipodi:namedview
     id="namedview1"
     pagecolor="#ffffff"
     bordercolor="#666666"
     borderopacity="1.0"
     inkscape:showpageshadow="2"
     inkscape:pageopacity="0.0"
     inkscape:pagecheckerboard="0"
     inkscape:deskcolor="#d1d1d1"
     inkscape:zoom="2.1354625"
     inkscape:cx="416.30326"
     inkscape:cy="324.28573"
     inkscape:window-width="1680"
     inkscape:window-height="998"
     inkscape:window-x="-8"
     inkscape:window-y="-8"
     inkscape:window-maximized="1"
     inkscape:current-layer="svg1" />
  <path
     style="fill:#000000;stroke:none;stroke-width:1"
     d="m 361.54341,156.61851 c -16.85788,23.60105 -12.62423,35.00548 12.6626,34.16262 -5.05734,8.42894 -4.23701,13.48295 2.50611,15.16873 -6.74312,4.21445 -7.56348,7.97201 -2.50611,11.34357 5.0574,3.37163 6.83,11.01855 5.14418,22.81905 -0.94034,14.10549 -32.95532,91.28734 -41.15339,103.14738 l 56.9816,17.93859 c 3.37054,-20.44243 15.60091,-88.12035 19.52152,-100.90496 h 35.34974 c 11.80051,9.27185 20.74392,29.4878 26.64421,60.67492 -30.34421,96.93279 -55.26996,240.21749 -74.65654,429.86863 L 231.35613,509.4564 c -10.11477,-14.32919 -22.33957,-25.73369 -36.66876,-34.16266 -20.22944,-24.44387 -46.31981,-33.73153 -78.3498,-27.8313 V 256.60023 C 115.49466,220.35577 102.4495,201.30434 77.162675,199.61856 83.90584,187.81802 91.420883,177.71 99.849821,169.2811 c 8.428949,-5.05738 15.599779,-13.04853 21.500029,-24.00617 2.52869,-12.64341 -5.4625,-16.05675 -24.006169,-10.15645 -15.172103,11.8005 -29.037615,24.8457 -41.681032,39.17489 -18.543664,17.7008 -29.36589,31.93632 -32.315993,42.47246 C 20.396508,227.302 12.643414,254.79498 0,299.46839 c 0.84291202,24.44396 6.7172808,26.56078 17.67487,6.3313 3.371604,-10.11473 8.187514,-23.50414 14.509221,-40.36202 6.321707,-16.85789 17.964246,-29.08268 34.822131,-36.66876 13.486283,0 20.657113,9.28761 21.50003,27.83132 v 195.87451 c -49.730744,26.12971 -63.834315,43.88469 -42.340548,53.15648 19.949324,8.60563 36.411969,23.36961 49.463253,44.31908 5.959723,42.01556 23.234353,87.0792 51.705593,135.19955 29.92275,50.57365 57.07152,125.21907 81.51544,223.83771 l -97.34369,40.36206 7.51842,50.65037 h 539.87491 l -55.53072,-67.00625 c 26.9726,-262.14006 36.36641,-429.63632 28.35893,-502.54665 -8.00753,-72.91034 -26.3448,-112.76002 -55.00314,-119.50323 l -3.69326,-17.67487 c 11.80051,-3.37156 24.84571,-10.19819 39.1749,-20.31291 C 737.7723,80.183268 596.40264,22.867752 589.20629,20.099924 556.33343,7.4565109 522.35807,2.1644451 487.37793,4.271683 452.39784,6.3789208 425.24907,24.716186 405.86249,59.27482 c -23.68467,47.36935 -13.15001,53.70706 -44.31908,97.34369 z M 504.12949,28.277852 c 21.41481,-0.948242 43.6682,2.941153 66.74242,11.47547 40.37624,14.933654 108.00933,72.821928 60.01541,178.199618 -19.38653,42.56617 -38.068,57.14589 -56.19026,43.65957 -18.1222,-13.48628 -27.17181,-29.94478 -27.17181,-49.33136 17.70079,-27.81551 28.86723,-48.61381 33.50311,-62.52155 8.20601,-24.61769 2.4879,-54.789076 -26.6442,-59.487805 -13.06487,-2.107191 -26.34808,1.88836 -39.83441,12.003085 -21.91522,-11.800551 -50.12246,-21.908569 -84.68109,-30.337467 7.58603,-21.915268 25.34103,-35.542683 53.15651,-41.021527 6.95388,-1.369721 13.96605,-2.321948 21.10432,-2.638034 z m -90.74858,63.840567 c 32.87285,5.900256 66.26595,17.304741 99.98172,34.162621 -9.27185,52.25944 -21.73475,84.35602 -37.32827,96.15657 -15.59356,11.8005 -35.5715,18.01908 -60.01542,18.86199 -16.01497,0.84287 -23.1858,-2.20042 -21.50002,-9.36504 1.68578,-7.16458 0.38931,-13.277 -3.82516,-18.33438 28.65839,0.84291 36.88764,-3.15269 24.66567,-12.00309 -12.22195,-8.85039 -20.92735,-11.20528 -25.98469,-6.9908 3.37156,-12.64338 -2.84697,-19.47 -18.86199,-20.31292 18.54371,-30.3442 32.75343,-57.73103 42.86816,-82.174951 z m 17.27916,13.585911 c -7.26996,0.2107 -15.52575,1.69219 -24.79758,4.22086 v 12.5307 c 18.54367,-5.90023 33.94374,-6.24452 46.16571,-1.18711 12.222,5.05733 28.4424,8.47067 48.67184,10.15645 l -6.3313,-6.3313 c -19.38658,-6.74312 -34.31051,-12.27329 -44.84668,-16.48775 -5.2681,-2.10724 -11.59203,-3.11256 -18.86199,-2.90185 z m 110.79769,9.49694 c 7.70103,-0.30838 21.0294,7.66293 14.9049,27.56754 -3.37154,10.95762 -17.36895,31.64977 -41.81291,61.99393 16.01502,53.10234 34.11418,80.83338 54.34362,83.36207 l 5.14418,18.99389 c -28.02062,-2.66862 -54.14737,-2.48326 -72.1504,7.51841 -7.58607,-34.55863 -17.21794,-59.82868 -29.01844,-75.84365 23.60105,-18.54371 39.58344,-56.38272 48.01233,-113.69953 7.90216,-6.3217 14.81474,-9.66219 20.57672,-9.89266 z m -111.85291,9.89266 c -11.16835,0 -19.10645,4.10173 -23.74236,12.53069 l -11.34357,6.3313 v 7.65031 h 11.34357 c 15.17211,10.11472 37.98108,8.474 68.32524,-5.01227 h 27.69942 v -8.96934 h -29.01844 c -17.70079,-8.42895 -32.09551,-12.53069 -43.26386,-12.53069 z m -6.06751,8.83743 c -2.52874,5.90023 -1.7084,11.29851 2.50611,16.35585 -6.74318,-1.68578 -11.79713,-3.32651 -15.16873,-5.01229 0.84289,-4.21445 5.07652,-7.97201 12.66262,-11.34356 z m 18.99389,0 21.50003,8.83743 c -7.58608,2.52867 -15.23302,4.64552 -22.81905,6.3313 5.90023,-4.21445 6.37641,-9.26848 1.31902,-15.16873 z m 113.83143,202.20578 c 32.87291,0 53.43315,18.23107 61.86205,54.47553 11.80054,51.41654 13.57312,131.4602 5.14419,240.19359 -10.11473,125.59117 -21.99537,228.78807 -35.48165,309.70589 l 15.16873,22.81907 H 184.53092 l 86.00011,-35.48167 C 245.2442,804.78704 213.62372,714.2911 175.69348,656.13144 137.76324,597.97171 131.54466,560.34497 156.83149,543.48711 c 25.28683,-16.85793 50.08068,-7.09409 74.52464,29.15037 l 170.6812,242.6997 30.33747,-2.50618 c 18.54366,-187.96536 37.93934,-328.6571 58.16878,-422.21833 11.80055,-36.24446 33.78916,-54.47553 65.81908,-54.47553 z M 127.94493,472.39195 c 18.80709,-0.39845 36.45626,8.57511 52.89271,26.90797 -30.34421,0.84283 -50.56021,10.13055 -60.67493,27.8313 -9.27185,-20.22948 -20.09403,-31.63392 -32.315994,-34.16259 -13.938568,-2.88716 -0.806793,-9.69337 20.840474,-17.02548 6.53241,-2.21241 12.98867,-3.42937 19.25769,-3.56106 z"
     id="path7"
     sodipodi:nodetypes="sccsccccccccccccccccsccscccscscccccscccsscssssscssccssccscscscccsccsccsscscccccccsccccccccsccccccccsccccccssccccsccccccc" />
  <path
     style="fill:#000000;stroke:none"
     d="M 7.65625,0 C 7.5564013,0 7.5007626,0.09913079 7.4882812,0.29882812 V 1.5917969 c 10e-8,0.099849 -0.031345,0.1868327 -0.09375,0.2617187 -0.099848,0.049925 -0.1938819,0.049925 -0.28125,0 L 5.8789062,1.4609375 c -0.1872159,-0.037443 -0.2933973,-0.013149 -0.3183593,0.074219 -0.024963,0.087367 0.054971,0.1622041 0.2421875,0.2246094 l 1.1992187,0.3925782 c 0.099848,0.037443 0.1817347,0.1001326 0.2441407,0.1875 0,0.1123293 -0.031344,0.2063633 -0.09375,0.28125 l -0.75,1.0292968 C 6.2900137,3.8251253 6.2708165,3.9383572 6.3457031,3.9882812 6.4205891,4.0382059 6.5267705,3.9876633 6.6640625,3.8378906 L 7.3945312,2.8085938 C 7.4569366,2.7212264 7.54392,2.6655877 7.65625,2.640625 7.743617,2.665588 7.818454,2.721226 7.8808594,2.8085938 l 0.75,1.0292968 c 0.137292,0.1497727 0.2434734,0.2003153 0.3183594,0.1503906 0.062405,-0.049924 0.043208,-0.1631559 -0.056641,-0.3378906 L 8.1445312,2.6210938 c -0.062405,-0.087367 -0.09375,-0.1814014 -0.09375,-0.28125 0.062405,-0.087367 0.1423389,-0.1500567 0.2421876,-0.1875 L 9.5097656,1.7597656 C 9.684501,1.6973603 9.7593377,1.6225236 9.734375,1.5351562 9.709413,1.4477889 9.5981348,1.4234942 9.3984375,1.4609375 L 8.1816406,1.8535156 c -0.087367,0.037443 -0.181402,0.037443 -0.28125,0 -0.074887,-0.074886 -0.1062313,-0.16892 -0.09375,-0.28125 V 0.29882812 C 7.7941593,0.09913079 7.7436173,0 7.65625,0 Z m 0,1.890625 c 0.087367,0 0.169254,0.03487 0.2441406,0.1035156 0.074886,0.068646 0.1132813,0.1521045 0.1132813,0.2519532 0,0.087367 -0.03487,0.1692539 -0.1035157,0.2441406 -0.068645,0.074886 -0.1591543,0.1113281 -0.2714843,0.1113281 -0.099849,0 -0.1852609,-0.036442 -0.2539063,-0.1113281 -0.068646,-0.074887 -0.1015625,-0.1567733 -0.1015625,-0.2441406 0,-0.087367 0.032917,-0.1673009 0.1015625,-0.2421876 C 7.453411,1.9290196 7.54392,1.890625 7.65625,1.890625 Z m 0,0.056641 c -0.087367,0 -0.1586784,0.031345 -0.2148438,0.09375 -0.056165,0.062405 -0.083984,0.1301915 -0.083984,0.2050782 0,0.062405 0.02782,0.1250946 0.083984,0.1875 0.056165,0.062405 0.1223797,0.09375 0.1972657,0.09375 0.099849,0 0.1746854,-0.02782 0.2246093,-0.083984 C 7.9132059,2.387194 7.9375,2.3209797 7.9375,2.2460938 7.9375,2.1712068 7.906155,2.103421 7.84375,2.0410156 7.781345,1.9786106 7.7186553,1.9472656 7.65625,1.947266 Z"
     id="path1" />
</svg>
