<?xml version="1.0" encoding="UTF-8" standalone="no"?>
<svg
   width="14.58746"
   height="17.972734"
   version="1.1"
   id="svg1"
   sodipodi:docname="1374F.svg"
   inkscape:version="1.4.2 (f4327f4, 2025-05-13)"
   xmlns:inkscape="http://www.inkscape.org/namespaces/inkscape"
   xmlns:sodipodi="http://sodipodi.sourceforge.net/DTD/sodipodi-0.dtd"
   xmlns="http://www.w3.org/2000/svg"
   xmlns:svg="http://www.w3.org/2000/svg">
  <defs
     id="defs1" />
  <sodipodi:namedview
     id="namedview1"
     pagecolor="#ffffff"
     bordercolor="#666666"
     borderopacity="1.0"
     inkscape:showpageshadow="2"
     inkscape:pageopacity="0.0"
     inkscape:pagecheckerboard="0"
     inkscape:deskcolor="#d1d1d1"
     inkscape:zoom="21.004038"
     inkscape:cx="2.9280084"
     inkscape:cy="0.071414839"
     inkscape:window-width="1680"
     inkscape:window-height="998"
     inkscape:window-x="-8"
     inkscape:window-y="-8"
     inkscape:window-maximized="1"
     inkscape:current-layer="svg1" />
  <path
     id="path5"
     style="fill:#000000;stroke:none"
     d="M 8.2890625,0 C 7.3726445,0 6.715018,0.24587792 6.3183594,0.73828125 5.9217014,1.2306852 5.6426503,1.4765625 5.4785156,1.4765625 H 4.5957031 V 2.359375 h 0.8828125 c 0.1641347,0 0.4890447,0.1200117 0.9746094,0.359375 C 6.6643614,2.8228805 6.9003956,2.9040603 7.1621094,2.9628906 7.0095133,3.0592416 6.8827581,3.1829602 6.78125,3.3339844 6.5008533,3.7511597 6.356448,4.0136235 6.3496094,4.1230469 6.34277,4.2324695 6.2169045,4.4803007 5.9707031,4.8632812 5.7245011,5.246262 5.648396,5.4677462 5.7441406,5.5292969 5.8398866,5.5908475 5.956972,5.634754 6.09375,5.6621094 5.9706493,5.839922 5.9765028,5.949201 6.1132812,5.9902344 6.0038586,6.0996577 5.987272,6.1786898 6.0625,6.2265625 6.137729,6.2744355 6.162122,6.4295738 6.134766,6.6894531 L 5.3964844,8.3710938 C 5.2049937,8.5489057 5.0225358,8.6142791 4.8515625,8.5664062 4.6805885,8.5185338 4.5761896,8.5956128 4.5351562,8.8007812 5.0959496,9.2658294 5.593558,9.129231 6.03125,8.390625 L 6.7714844,7.0585938 c 0.45137,0 0.7928673,0.29271 1.0253906,0.8808593 C 7.167693,9.4166638 6.7422835,11.414911 6.5234375,13.931641 L 3.734375,10.033203 C 3.5839183,9.787002 3.3926802,9.5957637 3.1601562,9.4589844 2.9276324,9.0760037 2.5022232,8.9315982 1.8867188,9.0273438 V 5.9082031 C 1.8730414,5.3200545 1.6622898,5.0136841 1.2519531,4.9863281 1.3613765,4.7948381 1.4901683,4.6309193 1.640625,4.4941406 1.7774037,4.4120733 1.8866827,4.2813283 1.96875,4.1035156 2.0097833,3.8983476 1.8809915,3.8437085 1.5800781,3.9394531 1.3338761,4.1309438 1.1153181,4.3436479 0.92382812,4.5761719 0.6229148,4.8634072 0.44533633,5.0907454 0.390625,5.2617188 0.335913,5.4326928 0.205168,5.8805414 0,6.6054688 0.027356,7.0021274 0.13078175,7.0450601 0.30859375,6.7304688 0.36330575,6.5526561 0.43745846,6.3262917 0.53320312,6.0527344 0.62894847,5.779177 0.81433333,5.5801326 1.0878906,5.4570312 c 0.232524,0 0.3476563,0.1502586 0.3476563,0.4511719 V 9.0898438 C 0.64223017,9.4728249 0.41781897,9.7489485 0.75976562,9.9199219 1.101713,10.090895 1.3749101,10.36702 1.5800781,10.75 c 0.054711,0.588149 0.3249822,1.292609 0.8105469,2.113281 0.4855653,0.820674 0.9256076,2.032501 1.3222656,3.632813 l -1.5800781,0.65625 0.1035156,0.820312 h 8.7812499 l -0.902344,-1.08789 c 0.437693,-2.243174 0.593803,-4.335085 0.470704,-6.277344 C 10.563995,9.0040606 10.246973,7.9770313 9.5839844,7.6054688 L 9.4316406,7.1503906 C 9.9728509,7.0932988 10.787109,6.7728561 10.787109,5.28125 c 0,-1.0570784 -0.261618,-1.5779515 -0.671875,-1.9160156 C 9.8977996,3.1860619 9.6536789,3.0639113 9.4160156,2.9609375 10.220249,2.8106718 11.191577,2.515016 12.330078,2.0722656 l 2.257813,0.1425782 v -0.65625 H 12.330078 C 10.716088,0.51907498 9.3696152,0 8.2890625,0 Z M 7.6113281,0.61523438 C 7.4061601,0.72465704 7.3046875,0.96468166 7.3046875,1.3339844 c 0,0.5607933 0.327837,0.8827764 0.984375,0.9648437 0.6702167,-0.082067 1.0117133,-0.4040504 1.0253906,-0.9648437 0,-0.35562474 -0.109279,-0.59564937 -0.328125,-0.71875002 0.3829807,0.0136773 1.2786789,0.41762012 2.6874999,1.21093752 -1.326754,0.492404 -2.4546695,0.7382812 -3.3847655,0.7382812 -0.2735573,0 -0.5877347,-0.030246 -0.9433594,-0.091797 -0.3556253,-0.06155 -0.8220138,-0.2771817 -1.3964843,-0.6464843 0.1504566,0 0.3875543,-0.2019714 0.7089843,-0.6054688 0.32143,-0.40349726 0.6385337,-0.60546873 0.953125,-0.60546862 z m 0.6777344,0.14453124 c 0.1641347,2e-8 0.2929265,0.0546392 0.3886719,0.1640625 C 8.773479,1.0332508 8.8222656,1.1620433 8.8222656,1.3125 c 0,0.1641347 -0.051713,0.2948797 -0.1542968,0.390625 -0.1025841,0.095745 -0.228449,0.1425781 -0.3789063,0.1425781 -0.1504567,0 -0.270469,-0.054639 -0.359375,-0.1640625 C 7.8407808,1.572218 7.789068,1.4492793 7.7753906,1.3125 7.789068,1.1757213 7.8378539,1.0498557 7.9199219,0.93359375 8.0019892,0.81733175 8.1249285,0.75976564 8.2890625,0.75976562 Z M 8.0605469,3.1367188 c 0.069777,-1.135e-4 0.1426668,0.00402 0.21875,0.011719 0.6086653,0.06155 1.1637302,0.2772129 1.6191406,0.6992187 0.4149215,0.384487 0.3672465,0.8733985 0.3789065,1.4609376 0.0147,0.7404507 -0.5017845,1.4882812 -0.917969,1.4882812 -0.3044886,0 -0.5558599,-0.2371254 -0.7089844,-0.8085938 C 8.8419117,5.7501729 9.0444913,5.4452579 9.2539062,5.078125 9.3633291,4.7703723 9.314543,4.5166887 9.109375,4.3183594 8.904207,4.1200307 8.6446695,4.0897838 8.3300781,4.2265625 7.9744528,3.9666825 7.5509969,3.794958 7.0585938,3.7128906 7.2381163,3.3299101 7.5721063,3.1375127 8.0605469,3.1367188 Z M 6.7089844,4.1230469 C 7.324489,4.1640802 7.8513705,4.370931 8.2890625,4.7402344 8.5215865,4.5077104 8.7050175,4.4803908 8.8417969,4.6582031 8.9945979,4.8568458 8.9084942,4.99667 8.2441406,5.8554688 8.415488,6.6436757 8.7896216,7.0633184 9.1054688,7.1464844 L 9.21875,7.4746094 C 9.132617,7.4582434 9.0420878,7.4492184 8.9472656,7.4492184 c -0.257434,0 -0.5671524,0.069636 -0.8222656,0.2148437 L 7.8984375,7.2226562 C 7.8163702,7.0038103 7.7373374,6.853551 7.6621094,6.7714844 7.5868807,6.6894164 7.2073315,6.6542908 6.5234375,6.6679688 6.4140142,6.5995793 6.380841,6.506887 6.421875,6.390625 6.4629083,6.2743637 6.4277827,6.168011 6.3183594,6.0722656 6.8517974,6.0585876 7.020595,5.9951682 6.8222656,5.8789062 6.6239363,5.7626443 6.4492848,5.7304449 6.2988281,5.7851562 6.3808955,5.5252769 6.29113,5.3828246 6.03125,5.3554688 6.4142307,4.8083533 6.640595,4.3966042 6.7089844,4.1230469 Z M 6.9804688,4.4160156 C 6.840217,4.4268617 6.74331,4.5086015 6.6894531,4.6582031 6.7441651,4.9864725 7.091515,5.0059853 7.734375,4.71875 7.4112352,4.5033234 7.1607924,4.4020707 6.9804688,4.4160156 Z m 2.1777343,3.9472656 c 0.7228525,0 0.7109375,2.2441408 0.7109375,2.2441408 v 1.375 c 0,2.038004 -0.1990444,3.73378 -0.5957031,5.08789 l 0.5136719,0.306641 h -6.8125 L 4.3691406,16.802734 C 3.958804,14.805764 3.4504622,13.336352 2.8417969,12.392578 2.2331309,11.448805 2.1345852,10.839964 2.5449219,10.566406 2.9552579,10.292849 3.3572476,10.44896 3.7539062,11.037109 l 2.7695313,3.939453 H 7.2226562 C 7.3731136,12.131564 7.6599704,10.252355 8.0839844,9.3359375 8.2873586,8.7460196 8.5955733,8.3632812 9.1582031,8.3632812 Z m -7.0566406,1.03125 c 0.2744124,0.00513 0.5457815,0.155631 0.8125,0.453125 C 2.4216592,9.8613338 2.091869,10.019399 1.9277344,10.320312 1.7909557,9.9783662 1.6485035,9.7763944 1.4980469,9.7148438 1.4580818,9.6984945 1.4368861,9.6788952 1.4335938,9.6582031 1.4305216,9.6015216 1.5607356,9.5259791 1.8261719,9.4375 1.9184975,9.4067248 2.0100917,9.3928216 2.1015625,9.3945312 Z"
     sodipodi:nodetypes="sssccsscssssccsccsccccccccccccccsccscscscsccccccccsscccccscsccccsscscsssssscsssssssccsccsccscccsccscscscccsccsscsccccssccccssccscss" />
</svg>
