<?xml version="1.0" encoding="UTF-8" standalone="no"?>
<svg
   width="9.423448"
   height="17.972734"
   version="1.1"
   id="svg1"
   sodipodi:docname="13757.svg"
   inkscape:version="1.4.2 (f4327f4, 2025-05-13)"
   xmlns:inkscape="http://www.inkscape.org/namespaces/inkscape"
   xmlns:sodipodi="http://sodipodi.sourceforge.net/DTD/sodipodi-0.dtd"
   xmlns="http://www.w3.org/2000/svg"
   xmlns:svg="http://www.w3.org/2000/svg">
  <defs
     id="defs1" />
  <sodipodi:namedview
     id="namedview1"
     pagecolor="#ffffff"
     bordercolor="#666666"
     borderopacity="1.0"
     inkscape:showpageshadow="2"
     inkscape:pageopacity="0.0"
     inkscape:pagecheckerboard="0"
     inkscape:deskcolor="#d1d1d1"
     inkscape:zoom="16"
     inkscape:cx="-1.03125"
     inkscape:cy="15.90625"
     inkscape:window-width="1680"
     inkscape:window-height="998"
     inkscape:window-x="-8"
     inkscape:window-y="-8"
     inkscape:window-maximized="1"
     inkscape:current-layer="svg1"
     showguides="true">
    <sodipodi:guide
       position="0,10.548942"
       orientation="1,0"
       id="guide1"
       inkscape:locked="false" />
    <sodipodi:guide
       position="0,14.914141"
       orientation="0,-1"
       id="guide2"
       inkscape:locked="false" />
    <sodipodi:guide
       position="1.7986033,7.8451294e-05"
       orientation="0,-1"
       id="guide3"
       inkscape:locked="false" />
  </sodipodi:namedview>
  <path
     id="path1"
     style="fill:#000000;stroke:none"
     d="M 8.1035156 0 C 7.766569 0 7.5604568 0.14577287 7.4863281 0.43554688 C 7.4122001 0.72532087 7.2774607 1.023993 7.0820312 1.3339844 C 6.8866026 1.643975 6.5202568 1.8398439 5.9804688 1.8398438 C 5.4406806 1.8398437 5.0743356 1.647002 4.8789062 1.34375 C 4.6834776 1.040498 4.548738 0.74485212 4.4746094 0.45507812 C 4.4004814 0.16530413 4.1943685 0.01953125 3.8574219 0.01953125 C 3.4530859 0.01953125 3.2519531 0.18844396 3.2519531 0.52539062 L 3.2304688 3.2148438 L 7.0507812 3.2148438 C 6.6314994 3.4181609 6.315479 3.8193586 6.1035156 4.4199219 C 6.1166904 4.5384508 5.9887297 4.7899518 5.71875 5.171875 C 5.4487703 5.5537971 5.4265086 5.7779019 5.6503906 5.84375 C 5.8742763 5.9096023 5.9716521 6.2501629 5.9453125 6.8691406 L 5.234375 8.4902344 C 5.0631674 8.6614408 4.8970433 8.7238299 4.7324219 8.6777344 C 4.5678004 8.6316474 4.4569759 8.7067485 4.4042969 8.9042969 C 4.957426 9.3520703 5.4393935 9.2209334 5.8476562 8.5097656 L 6.6777344 7.0683594 C 7.0464885 7.0288501 7.2221547 7.208423 7.2089844 7.6035156 C 6.5373272 8.867812 6.1375573 11.026649 6.0058594 14.082031 L 3.2402344 10.328125 C 2.8714813 9.854013 2.3978284 9.6617184 1.8183594 9.7539062 L 1.8183594 6.7519531 C 1.8051899 6.185654 1.6001705 5.8896211 1.2050781 5.8632812 C 1.3104356 5.6789053 1.4288494 5.520369 1.5605469 5.3886719 C 1.6922445 5.3228195 1.8042958 5.2044095 1.8964844 5.0332031 C 1.9359933 4.8356568 1.8112186 4.782811 1.5214844 4.875 C 1.2844287 5.0593758 1.066687 5.2643952 0.86914062 5.4882812 C 0.57940658 5.7516768 0.41328227 5.9674644 0.3671875 6.1386719 C 0.32109349 6.3098783 0.19754612 6.7390013 0 7.4238281 C 0.0131695 7.8057513 0.10418374 7.8458724 0.27539062 7.5429688 C 0.32806982 7.3717612 0.40513319 7.1572008 0.50390625 6.9003906 C 0.60267929 6.6435804 0.78348003 6.4500565 1.046875 6.3183594 C 1.2707603 6.3183594 1.3828125 6.4622188 1.3828125 6.7519531 L 1.3828125 9.8339844 L 1.3632812 9.8339844 C 0.61260546 10.202738 0.40122432 10.46501 0.73046875 10.623047 C 1.0597123 10.781083 1.3092624 11.038945 1.4804688 11.394531 C 1.5068078 11.631587 1.7054657 12.164448 2.0742188 12.994141 C 2.4429712 13.823834 2.7918498 14.950711 3.1210938 16.373047 L 1.6796875 17.203125 L 1.7988281 17.972656 L 10.232422 17.972656 L 9.3242188 16.787109 C 10.022063 13.988731 9.894127 11.107778 9.8183594 8.2539062 C 9.7847893 7.9383207 9.70389 7.7010753 9.5761719 7.5429688 C 9.4340956 7.3526344 9.2458174 7.1961321 9.0332031 7.0898438 L 8.9355469 6.6054688 C 8.9503899 6.6057581 8.9651127 6.6054688 8.9804688 6.6054688 C 9.9441897 6.6054688 10.271484 5.7326109 10.271484 5.1347656 C 10.271484 4.5516055 10.247101 4.1059756 9.7792969 3.6699219 C 9.5156046 3.4686773 9.2496269 3.3170747 8.9824219 3.2148438 L 12.955078 3.2148438 L 12.955078 0.54492188 C 12.955078 0.1810192 12.753945 0 12.349609 0 C 12.012663 0 11.806551 0.14577287 11.732422 0.43554688 C 11.658294 0.72532087 11.523554 1.023993 11.328125 1.3339844 C 11.132696 1.643975 10.765846 1.8203125 10.226562 1.8203125 C 9.6738065 1.8203125 9.3019713 1.643975 9.1132812 1.3339844 C 8.9245906 1.023993 8.7948305 0.72532086 8.7207031 0.43554688 C 8.6465745 0.14577286 8.4404623 3.7007434e-17 8.1035156 0 z M 3.8574219 0.38476562 C 4.0461119 0.38476562 4.1808514 0.542645 4.2617188 0.859375 C 4.3425857 1.176105 4.5316117 1.4797573 4.828125 1.7695312 C 5.1246377 2.0593053 5.5087434 2.203125 5.9804688 2.203125 C 6.4521941 2.203125 6.8362998 2.0593053 7.1328125 1.7695312 C 7.4293258 1.4797573 7.6183514 1.176105 7.6992188 0.859375 C 7.7800861 0.542645 7.9148256 0.38476562 8.1035156 0.38476562 C 8.2922056 0.38476562 8.4239189 0.542645 8.4980469 0.859375 C 8.5721759 1.176105 8.759248 1.4797573 9.0625 1.7695312 C 9.365752 2.0593053 9.7548375 2.203125 10.226562 2.203125 C 10.698289 2.203125 11.082394 2.0593053 11.378906 1.7695312 C 11.67542 1.4797574 11.864445 1.1761046 11.945312 0.859375 C 12.026183 0.54264464 12.160919 0.38476563 12.349609 0.38476562 C 12.457432 0.38476562 12.529879 0.43104532 12.570312 0.52539062 L 12.570312 2.8300781 L 3.6347656 2.8300781 L 3.6347656 0.54492188 C 3.688677 0.43709854 3.7630765 0.38476564 3.8574219 0.38476562 z M 7.8046875 3.4511719 L 7.8066406 3.4511719 C 7.8745486 3.4510789 7.9454514 3.4554676 8.0195312 3.4628906 C 8.6121703 3.5221556 9.1215376 3.7462583 9.5429688 4.1347656 C 9.8388243 4.4405082 9.8398437 4.8733703 9.8398438 5.1992188 C 9.8398438 5.6884683 9.4810053 6.1953125 8.9238281 6.1953125 C 8.8985451 6.1953125 8.8731905 6.1955058 8.8515625 6.1933594 L 8.8515625 6.1875 L 8.8398438 6.1894531 L 8.8378906 6.1894531 C 8.2905151 6.1177555 8.9562758 5.3212166 8.9570312 5.3203125 C 9.0689729 5.0239941 9.0244478 4.7788528 8.8203125 4.5878906 C 8.6161814 4.3969296 8.361497 4.3683028 8.0585938 4.5 C 7.7161795 4.249775 7.3080955 4.0848778 6.8339844 4.0058594 C 7.0068372 3.6371063 7.3293776 3.4518231 7.8046875 3.4511719 z M 6.5 4.4003906 C 7.0926386 4.4398998 7.5981004 4.6385572 8.0195312 4.9941406 C 8.2434181 4.7702544 8.4242182 4.7428549 8.5625 4.9140625 C 8.7007829 5.0852689 8.6002205 5.3463144 8.2578125 5.6953125 C 8.1169792 5.954065 8.0581079 6.3318013 8.4296875 6.5078125 L 8.5253906 6.9414062 C 8.1929498 6.9039217 7.8465786 6.9817261 7.5546875 7.2128906 C 7.5102706 7.0707976 7.4651817 6.9549822 7.4179688 6.8691406 C 7.3455408 6.7374445 7.0526836 6.680189 6.5390625 6.6933594 C 6.328346 6.7065256 6.2226563 6.5543554 6.2226562 6.2382812 C 6.5095091 6.2467413 6.6647349 6.2284419 6.6894531 6.1855469 L 6.6914062 6.1835938 C 6.6918425 6.1819837 6.6929194 6.17478 6.6933594 6.171875 L 6.6933594 6.1699219 L 6.6933594 6.1679688 L 6.6933594 6.1660156 C 6.6855841 6.1458096 6.6551608 6.117826 6.6074219 6.0898438 C 6.4164676 5.9780095 6.2821436 5.9536833 6.203125 6.0195312 L 6.203125 5.7636719 L 5.8476562 5.5878906 C 5.9793633 5.3244952 6.1073093 5.1258378 6.2324219 4.9941406 C 6.3575347 4.8624423 6.4473208 4.663786 6.5 4.4003906 z M 6.7929688 4.6757812 C 6.7815677 4.6762377 6.7706256 4.6766644 6.7597656 4.6777344 C 6.6247243 4.6907075 6.5303722 4.7700133 6.4785156 4.9140625 C 6.5311932 5.2301366 6.8693041 5.2448123 7.4882812 4.9550781 C 7.2160388 4.7800729 6.9953023 4.6850565 6.828125 4.6757812 C 6.816181 4.6751202 6.8043698 4.6753248 6.7929688 4.6757812 z M 8.3652344 7.5039062 C 8.3876612 7.5031935 8.40908 7.504723 8.4316406 7.5058594 C 8.7123962 7.5200004 9.0008321 7.6781076 9.2011719 8.0253906 C 9.3284678 8.3716805 9.3684157 9.5358964 9.3242188 11.513672 C 9.2715378 13.871059 9.0156288 15.733862 8.5546875 17.103516 L 9.0488281 17.417969 L 2.6464844 17.417969 L 4.0097656 16.828125 C 3.5488236 14.865833 3.0751709 13.462004 2.5878906 12.619141 C 2.1006098 11.776274 2.0350414 11.268862 2.390625 11.097656 C 2.7462077 10.926448 3.0486028 11.02577 3.2988281 11.394531 L 5.90625 15.087891 L 6.578125 15.087891 C 6.6834788 11.927152 7.0196372 9.5887411 7.5859375 8.0742188 C 7.7137059 7.7310128 8.0288325 7.5145968 8.3652344 7.5039062 z M 2.0234375 10.126953 C 2.2876557 10.131853 2.5478776 10.278013 2.8046875 10.564453 C 2.3305769 10.564453 2.0135062 10.708312 1.8554688 10.998047 C 1.7237713 10.668807 1.5862735 10.480413 1.4414062 10.427734 C 1.4119803 10.416964 1.3915895 10.404045 1.3828125 10.390625 L 1.3808594 10.386719 L 1.3808594 10.384766 L 1.3808594 10.382812 C 1.3805508 10.381713 1.3790863 10.378053 1.3789062 10.376953 C 1.3788421 10.375853 1.3788485 10.370241 1.3789062 10.369141 L 1.3789062 10.367188 L 1.3789062 10.365234 L 1.3789062 10.363281 C 1.3967312 10.313871 1.5264144 10.245753 1.7597656 10.167969 C 1.8486606 10.138329 1.9353646 10.125303 2.0234375 10.126953 z " />
</svg>
