<?xml version="1.0" encoding="UTF-8" standalone="no"?>
<svg
   width="10.755652"
   height="17.972734"
   version="1.1"
   id="svg1"
   sodipodi:docname="13750.svg"
   inkscape:version="1.4.2 (f4327f4, 2025-05-13)"
   xmlns:inkscape="http://www.inkscape.org/namespaces/inkscape"
   xmlns:sodipodi="http://sodipodi.sourceforge.net/DTD/sodipodi-0.dtd"
   xmlns="http://www.w3.org/2000/svg"
   xmlns:svg="http://www.w3.org/2000/svg">
  <defs
     id="defs1" />
  <sodipodi:namedview
     id="namedview1"
     pagecolor="#ffffff"
     bordercolor="#666666"
     borderopacity="1.0"
     inkscape:showpageshadow="2"
     inkscape:pageopacity="0.0"
     inkscape:pagecheckerboard="0"
     inkscape:deskcolor="#d1d1d1"
     inkscape:zoom="64"
     inkscape:cx="11.070312"
     inkscape:cy="7.3671875"
     inkscape:window-width="1680"
     inkscape:window-height="998"
     inkscape:window-x="-8"
     inkscape:window-y="-8"
     inkscape:window-maximized="1"
     inkscape:current-layer="svg1" />
  <path
     id="path6"
     style="fill:#000000;stroke:none;stroke-width:0.999997px;stroke-linecap:butt;stroke-linejoin:miter;stroke-opacity:1"
     d="M 10.755859,0 C 9.5430164,0.10662333 8.6256087,0.55039281 8.0058594,1.3300781 7.38611,2.1097628 6.8764005,2.4732339 6.4765625,2.4199219 L 7.1054688,3.28125 C 6.8895506,3.3824812 6.7178585,3.5285528 6.5878906,3.71875 6.314668,4.118588 6.1746328,4.374994 6.1679688,4.4882812 6.1613046,4.6015692 6.0367783,4.8455673 5.796875,5.21875 5.5569723,5.591932 5.4848297,5.8041099 5.578125,5.8574219 5.671421,5.9107339 5.7846894,5.9518603 5.9179688,5.9785156 5.7980168,6.151779 5.8104233,6.256891 5.9570312,6.296875 5.8504072,6.4034983 5.8348991,6.4806957 5.9082031,6.5273438 c 0.073303,0.046648 0.088812,0.1959874 0.048828,0.4492187 l -0.71875,1.640625 C 5.065018,8.7904502 4.895115,8.853288 4.7285156,8.8066406 4.5619156,8.7599926 4.4517488,8.83719 4.3984375,9.0371094 c 0.559774,0.45315 1.0458184,0.319318 1.4589844,-0.4003906 L 6.578125,7.3378906 c 0.439822,0 0.7714715,0.286273 0.9980469,0.859375 C 6.9630865,9.6366836 6.551138,11.582814 6.3378906,14.035156 L 3.6386719,10.236328 C 3.4787365,10.009753 3.2851683,9.8285925 3.0585938,9.6953125 2.8320183,9.3088025 2.4181167,9.162564 1.8183594,9.2558594 V 6.2167969 c 0,-0.5731014 -0.2059741,-0.8717815 -0.6191406,-0.8984375 C 1.305842,5.131768 1.4334701,4.97117 1.5800781,4.8378906 1.7133575,4.7712513 1.8184702,4.6455757 1.8984375,4.4589844 1.9384215,4.272393 1.8189492,4.225064 1.5390625,4.3183594 1.2858312,4.5049507 1.0654976,4.7109247 0.87890625,4.9375 0.58569158,5.2040587 0.41268633,5.4243929 0.359375,5.5976562 0.306063,5.7709196 0.18659133,6.203431 0,6.8964844 0.013328,7.2829944 0.10603353,7.3241208 0.27929688,7.0175781 0.33260886,6.8443148 0.40670467,6.6270822 0.5,6.3671875 0.59329533,6.1072922 0.78065952,5.910623 1.0605469,5.7773438 c 0.2132466,0 0.3265157,0.1462384 0.3398437,0.4394531 V 9.3359375 H 1.3789062 C 0.60588563,9.7091202 0.38555133,9.9767839 0.71875,10.136719 c 0.3331987,0.159936 0.6070652,0.431849 0.8203125,0.818359 0.039983,0.559774 0.2963886,1.239386 0.7695313,2.039063 0.4731418,0.799676 0.9025525,1.979693 1.2890624,3.539062 l -1.5390624,0.660156 0.1210937,0.779297 H 10.714844 L 9.8359375,16.914062 C 10.260931,14.735975 10.372931,12.705472 10.296875,10.816406 10.233833,9.2505765 9.9696046,8.2450045 9.3242188,7.8808594 L 9.1757812,7.4355469 C 9.7050374,7.3797161 10.5,7.0641284 10.5,5.6054688 10.5,4.5717388 10.243758,4.0606718 9.8359375,3.7382812 9.3047081,3.3183335 8.711238,3.1299006 8.1054688,3.109375 8.3804947,3.0334114 8.6805743,2.9541251 9.0058594,2.8691406 9.7455607,2.675886 10.201737,2.2949536 10.375,1.7285156 10.548263,1.1620776 10.675891,0.58642933 10.755859,0 Z M 10.496094,0.30078125 C 10.32283,0.92719458 10.185896,1.4101373 10.085938,1.75 9.9859777,2.0898627 9.7501365,2.3350099 9.3769531,2.4882812 9.0037711,2.6415526 8.6639645,2.7393129 8.3574219,2.7792969 8.0508792,2.8192802 7.6967137,2.8995793 7.296875,3.0195312 L 7.0371094,2.6582031 C 7.3036687,2.6048918 7.5271046,2.4462468 7.7070312,2.1796875 7.8869586,1.9131288 8.1968961,1.5733229 8.6367188,1.1601562 9.0765407,0.7469903 9.6964169,0.46071658 10.496094,0.30078125 Z M 10.095703,0.5390625 C 9.3360099,0.85893317 8.7397986,1.2790381 8.3066406,1.7988281 7.8734826,2.3186181 7.7993868,2.575024 8.0859375,2.5683594 8.3724882,2.5616954 8.6638167,2.4926543 8.9570312,2.359375 8.6638167,2.346047 8.493913,2.313077 8.4472656,2.2597656 8.4006176,2.2064536 8.472761,2.0726223 8.6660156,1.859375 8.859271,1.6461283 9.3360099,1.2054598 10.095703,0.5390625 Z M 7.8417969,3.5175781 c 0.068714,-2.738e-4 0.1398741,0.00422 0.2148437,0.011719 0.5997574,0.059975 1.1416599,0.2701496 1.5800782,0.6796875 0.4042452,0.3776159 0.3557845,0.8492665 0.3671872,1.4238281 0.01437,0.7240957 -0.4914454,1.4550781 -0.8984372,1.4550781 -0.2977632,0 -0.543617,-0.2302166 -0.6933594,-0.7890625 C 8.5994003,6.065979 8.80107,5.7672268 9.0058594,5.4082031 9.1191474,5.1083245 9.0737708,4.861224 8.8671875,4.6679688 8.6606042,4.4747134 8.4041996,4.4448457 8.0976562,4.578125 7.7511304,4.3248943 7.3372279,4.1642964 6.8574219,4.0976562 7.0323513,3.7128121 7.3607982,3.5194947 7.8417969,3.5175781 Z M 6.5175781,4.4785156 C 7.1173361,4.5185003 7.6301466,4.718271 8.0566406,5.078125 8.2832153,4.8515503 8.4674779,4.8278852 8.6074219,5.0078125 8.7072202,5.4789463 8.3067234,5.8121157 8.0136719,6.1679688 8.1812346,6.9387659 8.548551,7.3483585 8.8574219,7.4296875 L 8.96875,7.7519531 C 8.884572,7.7359151 8.7959207,7.7265621 8.703125,7.7265621 c -0.2517988,0 -0.5548307,0.063829 -0.8046875,0.203125 L 7.4472656,7.0664062 C 7.3739616,6.9931029 7.004288,6.9570312 6.3378906,6.9570312 6.2312673,6.8903912 6.1982979,6.8007873 6.2382812,6.6875 6.2782653,6.574212 6.2514985,6.4702485 6.1582031,6.3769531 c 0.3165388,-0.00833 0.4958509,-0.036608 0.5390625,-0.083984 0.00131,-0.00174 0.00293,-0.006 0.00391,-0.00781 4.021e-4,-9.209e-4 0.00164,-0.00492 0.00195,-0.00586 l 0.00195,-0.00195 c 2.957e-4,-0.00194 4.64e-5,-0.00776 0,-0.00977 C 6.7025677,6.2442018 6.6768712,6.2167622 6.6269531,6.1875 6.4336978,6.074212 6.2637948,6.0443443 6.1171875,6.0976562 6.1971548,5.8444256 6.1106525,5.7043904 5.8574219,5.6777344 6.2439319,5.1446164 6.4642661,4.745075 6.5175781,4.4785156 Z M 6.78125,4.7636719 C 6.6445866,4.7742406 6.5505253,4.8522725 6.4980469,4.9980469 6.5513582,5.3179175 6.8911648,5.338481 7.5175781,5.0585938 7.2027053,4.8486789 6.95696,4.7500835 6.78125,4.7636719 Z m 2.1269531,3.8574219 c 0.7224098,0 0.7300138,2.3327712 0.6875,3.5136722 0,1.985863 -0.1935681,3.639517 -0.5800781,4.958984 l 0.5,0.318359 H 2.8789062 L 4.2578125,16.853516 C 3.8446465,14.894307 3.3411402,13.457886 2.7480469,12.544922 2.1549529,11.631957 2.0591457,11.038848 2.4589844,10.765625 2.858823,10.492402 3.2521619,10.649899 3.6386719,11.236328 l 2.6992187,3.81836 H 7.0175781 C 7.3073602,9.5751736 7.9176577,8.6210938 8.9082031,8.6210938 Z M 2.0410156,9.6269531 C 2.3096569,9.6332004 2.5684599,9.7767532 2.8183594,10.056641 2.3385527,10.069969 2.0255136,10.22241 1.8789062,10.515625 1.7322989,10.182426 1.5860605,9.9857574 1.4394531,9.9257812 c -0.027489,-0.011245 -0.045238,-0.02399 -0.054687,-0.037109 -9.9e-4,-0.00166 -0.00441,-0.00526 -0.00586,-0.00781 v -0.00195 c -0.00125,-0.00501 -0.00107,-0.015495 0,-0.021484 0.019543,-0.051385 0.1500973,-0.1170619 0.390625,-0.1914063 0.09163,-0.028322 0.1819373,-0.041144 0.2714844,-0.039063 z"
     sodipodi:nodetypes="csccssssccsccsccccccccscccccsccsccccscscccccsccsscsscccssccssccsscsscsssssccsccsccscccscccsccccccscccsccsssccccsscccssccsccccsss" />
</svg>
