<?xml version="1.0" encoding="UTF-8" standalone="no"?>
<svg
   width="800"
   height="1000"
   id="svg1622"
   sodipodi:version="0.32"
   inkscape:version="1.4.2 (f4327f4, 2025-05-13)"
   sodipodi:docname="13772.svg"
   version="1.1"
   xmlns:inkscape="http://www.inkscape.org/namespaces/inkscape"
   xmlns:sodipodi="http://sodipodi.sourceforge.net/DTD/sodipodi-0.dtd"
   xmlns="http://www.w3.org/2000/svg"
   xmlns:svg="http://www.w3.org/2000/svg"
   xmlns:rdf="http://www.w3.org/1999/02/22-rdf-syntax-ns#"
   xmlns:cc="http://creativecommons.org/ns#"
   xmlns:dc="http://purl.org/dc/elements/1.1/">
  <metadata
     id="metadata1629">
    <rdf:RDF>
      <cc:Work
         rdf:about="">
        <dc:format>image/svg+xml</dc:format>
        <dc:type
           rdf:resource="http://purl.org/dc/dcmitype/StillImage" />
        <dc:date>2/03/06</dc:date>
        <dc:creator>
          <cc:Agent>
            <dc:title>Serge Thomas</dc:title>
          </cc:Agent>
        </dc:creator>
        <dc:publisher>
          <cc:Agent>
            <dc:title>Serge Rosmorduc</dc:title>
          </cc:Agent>
        </dc:publisher>
        <dc:description>variante (tombe de Ramses I) d'un esprit de Pé faisant le geste henou
valeur : hnw</dc:description>
        <cc:license
           rdf:resource="http://creativecommons.org/licenses/GPL/2.0/" />
      </cc:Work>
      <cc:License
         rdf:about="http://creativecommons.org/licenses/GPL/2.0/">
        <cc:permits
           rdf:resource="http://web.resource.org/cc/Reproduction" />
        <cc:permits
           rdf:resource="http://web.resource.org/cc/Distribution" />
        <cc:requires
           rdf:resource="http://web.resource.org/cc/Notice" />
        <cc:permits
           rdf:resource="http://web.resource.org/cc/DerivativeWorks" />
        <cc:requires
           rdf:resource="http://web.resource.org/cc/ShareAlike" />
        <cc:requires
           rdf:resource="http://web.resource.org/cc/SourceCode" />
      </cc:License>
    </rdf:RDF>
  </metadata>
  <defs
     id="defs1627" />
  <sodipodi:namedview
     inkscape:window-height="998"
     inkscape:window-width="1680"
     inkscape:pageshadow="2"
     inkscape:pageopacity="0.0"
     borderopacity="1.0"
     bordercolor="#666666"
     pagecolor="#ffffff"
     id="base"
     inkscape:zoom="0.3775"
     inkscape:cx="695.36424"
     inkscape:cy="364.23841"
     inkscape:window-x="-8"
     inkscape:window-y="-8"
     inkscape:current-layer="svg1622"
     inkscape:showpageshadow="2"
     inkscape:pagecheckerboard="0"
     inkscape:deskcolor="#d1d1d1"
     inkscape:window-maximized="1"
     showguides="true">
    <sodipodi:guide
       position="0,0"
       orientation="0,-1"
       id="guide1"
       inkscape:locked="false" />
  </sodipodi:namedview>
  <path
     id="path1624"
     style="fill:#000000;stroke:none;stroke-width:0.999999"
     d="M 693.64844 0 C 677.04405 14.943971 672.06334 36.114457 678.70508 63.511719 L 686.17773 103.36328 L 653.79883 220.42383 C 648.8175 236.19799 638.02435 246.57532 621.41992 251.55664 C 592.36225 259.02861 564.96533 264.84109 539.22852 268.99219 C 516.81258 195.93286 477.79077 152.76008 422.16602 139.47656 C 422.16602 108.75839 419.46871 83.436976 414.07227 63.511719 C 408.67587 43.586423 405.14678 28.228421 403.48633 17.435547 C 396.84455 12.45426 391.44796 13.697955 387.29688 21.169922 C 389.78755 30.302343 389.58157 45.246469 386.67578 66.001953 C 383.77003 86.757475 381.48663 98.796309 379.82617 102.11719 C 379.82617 84.682564 378.78842 68.078884 376.71289 52.304688 C 374.63732 36.530527 371.93805 24.907551 368.61719 17.435547 C 362.80563 11.624033 357.82493 11.624033 353.67383 17.435547 C 349.52273 53.13504 344.748 79.078303 339.35156 95.267578 C 333.95513 111.45685 328.35253 123.28777 322.54102 130.75977 C 314.23878 132.42019 308.01242 134.07978 303.86133 135.74023 C 299.71023 137.40069 294.9355 138.64634 289.53906 139.47656 C 284.14266 140.30675 277.70833 144.04377 270.23633 150.68555 L 173.10156 168.11914 L 173.10156 175.5918 L 188.04492 200.49805 C 206.30976 204.64911 242.0085 212.95097 295.14258 225.4043 C 282.68928 250.31088 274.38742 277.70776 270.23633 307.5957 C 232.87641 316.72812 209.63043 337.48469 200.49805 369.86328 L 140.72266 516.8125 C 126.60892 564.96525 140.30735 583.23049 181.81836 571.60742 C 225.82001 559.1541 269.82058 536.32205 313.82227 503.11328 L 353.00195 667.44531 L 347.47852 702.91406 L 218.83008 611.30469 C 190.80279 591.34687 170.50139 577.00391 151.04688 577.00391 C 96.716361 577.00391 72.430244 599.81324 78.683594 643.50195 L 106.46484 872.20508 C 77.992191 896.60302 65.402775 920.13249 68.607422 942.80078 L 75.220703 954.20117 L 68.808594 954.00195 C 50.048897 957.7563 32.840102 962.97446 17.207031 969.80078 C 1.9212398 976.28592 -13.468502 978.86729 -29.101562 977.50195 C -44.734718 976.47799 -55.721354 983.95808 -61.974609 1000 L 193.89258 1000 L 193.58984 990.10156 C 222.87018 983.50656 258.59668 973.63709 300.76172 960.40039 C 400.1882 917.74925 454.40132 899.21291 463.50391 899.21289 C 478.20769 917.09894 478.20769 941.55534 463.50391 972.51172 C 439.69744 980.76684 431.36338 989.6777 438.36523 999.30859 C 453.76939 999.99662 469.80494 999.11622 486.60938 996.71094 C 503.4139 994.30308 516.06663 972.95603 524.46875 932.71289 C 532.87106 892.46925 537.56495 864.12736 538.61523 847.61719 C 539.6657 831.10707 532.54469 822.50631 517.14062 821.81836 C 531.14432 798.42898 531.78134 758.10787 519.17773 706.51367 C 516.60736 686.63906 515.71113 667.22677 516.13281 648.07227 C 516.58142 613.30245 515.74428 553.01698 505.60352 500.62305 L 524.2832 500.62305 L 524.2832 462.01758 C 545.03869 434.62028 555.41797 392.69322 555.41797 336.23828 L 665.00586 293.89844 C 689.91259 288.91711 703.61103 272.31147 706.10156 244.08398 L 727.27344 105.85352 L 749.68945 62.265625 C 751.34991 40.679914 735.98991 28.643024 703.61133 26.152344 L 693.64844 0 z M 305.48438 144.2832 C 306.42485 144.2962 307.33664 144.3552 308.21875 144.45898 C 315.2756 145.28921 322.95562 147.77859 331.25781 151.92969 L 346.20117 151.92969 L 346.20117 156.91211 L 331.25781 156.91211 C 321.29517 151.93078 312.9933 149.02359 306.35156 148.19336 C 299.70978 147.36313 291.82183 149.02468 282.68945 153.17578 L 281.44531 150.68555 C 290.88905 146.32689 298.90093 144.19239 305.48438 144.2832 z M 298.0625 152.55273 C 299.74889 152.55273 301.47406 152.76068 303.23828 153.17578 C 310.29513 154.83623 316.72946 157.74148 322.54102 161.89258 L 347.44727 163.13867 L 347.44727 171.85547 L 322.54102 168.11914 C 308.42727 172.27023 298.87976 174.13773 293.89844 173.72266 C 288.91711 173.30754 283.10467 172.6857 276.46289 171.85547 L 276.46289 168.11914 L 283.93555 158.15625 C 288.29421 154.42026 293.00333 152.55275 298.0625 152.55273 z M 415.93945 155.66602 C 463.26197 168.1193 497.71698 207.13916 519.30273 272.72656 C 489.41479 276.87766 464.09337 280.61467 443.33789 283.93555 C 422.58236 287.25645 408.46806 299.70921 400.99609 321.29492 L 400.99609 394.76953 L 368.61719 394.76953 L 368.61719 272.72656 C 361.97541 253.6315 355.3351 237.02781 348.69336 222.91406 C 378.58127 217.93274 389.37251 200.91314 381.07031 171.85547 C 397.67473 170.19502 409.29771 164.79844 415.93945 155.66602 z M 306.35156 156.91211 C 308.8422 161.89343 308.01242 166.04436 303.86133 169.36523 L 320.05078 164.38281 L 306.35156 156.91211 z M 287.67188 160.64844 L 281.44531 168.11914 L 288.91602 169.36523 C 286.42534 166.87459 286.01139 163.96934 287.67188 160.64844 z M 310.08789 227.89453 C 316.72967 247.81979 318.38923 295.55742 315.06836 371.10742 L 315.06836 394.76953 L 283.93555 394.76953 C 281.4449 351.5981 282.27468 317.97482 286.42578 293.89844 C 290.57688 269.82204 298.46483 247.81979 310.08789 227.89453 z M 473.22461 298.87891 C 474.88506 299.70913 478.20617 304.068 483.1875 311.95508 C 488.16882 319.84216 489.00055 335.40813 485.67969 358.6543 L 486.77148 610.45898 L 370.43555 654.99219 L 337.48438 501.86719 L 386.05273 489.41406 C 400.16648 466.16794 400.58039 448.31856 387.29688 435.86523 C 452.88428 417.60039 481.52684 371.93827 473.22461 298.87891 z M 458.28125 301.36914 C 462.43234 353.67299 449.14981 387.71213 418.43164 403.48633 L 418.43164 327.52148 C 421.75255 312.57752 435.03508 303.85979 458.28125 301.36914 z M 328.76758 306.35156 C 337.06977 314.65376 344.95577 314.65376 352.42773 306.35156 L 352.42773 415.93945 L 388.54297 415.93945 C 360.31548 424.24165 332.08881 423.82773 303.86133 414.69531 L 328.76758 415.93945 L 328.76758 306.35156 z M 534.24609 342.46484 C 534.24609 390.61759 524.69858 427.97785 505.60352 454.54492 C 503.11283 383.9762 512.66034 346.61594 534.24609 342.46484 z M 256.53711 387.29688 L 297.63477 462.01758 L 211.70703 499.37695 L 256.53711 387.29688 z M 302.61523 429.63867 C 307.59655 434.61999 317.14407 438.35701 331.25781 440.84766 C 327.93694 445.82898 322.54033 449.14814 315.06836 450.80859 L 302.61523 429.63867 z M 487.83398 633.19336 L 487.97266 660.27148 C 459.47478 669.70969 414.16767 685.72553 366.86328 707.12891 L 372.92578 673.67188 L 487.83398 633.19336 z M 147.38086 637.90234 L 189.61914 637.90234 L 327.12109 728.61328 C 270.91947 758.24342 218.92616 793.91842 167.02539 829.70508 C 169.71974 741.96256 163.79367 667.05198 147.38086 637.90234 z M 491.04492 685.51953 L 492.91797 709.61328 C 506.92176 756.39203 505.55082 796.71112 488.74609 824.91602 C 442.53371 851.05705 386.84393 864.72625 321.72656 871.60547 C 256.60914 878.48471 201.34027 902.21321 155.82812 942.80078 C 181.73508 880.8876 204.25657 840.68131 223.51172 822.10742 C 253.73899 792.94943 372.87477 715.73734 491.04492 685.51953 z " />
</svg>
