<?xml version="1.0" encoding="UTF-8" standalone="no"?>
<svg
   width="1000"
   height="1000"
   version="1.1"
   id="svg1"
   sodipodi:docname="137E9.svg"
   inkscape:version="1.4.2 (f4327f4, 2025-05-13)"
   xmlns:inkscape="http://www.inkscape.org/namespaces/inkscape"
   xmlns:sodipodi="http://sodipodi.sourceforge.net/DTD/sodipodi-0.dtd"
   xmlns="http://www.w3.org/2000/svg"
   xmlns:svg="http://www.w3.org/2000/svg">
  <defs
     id="defs1" />
  <sodipodi:namedview
     id="namedview1"
     pagecolor="#ffffff"
     bordercolor="#666666"
     borderopacity="1.0"
     inkscape:showpageshadow="2"
     inkscape:pageopacity="0.0"
     inkscape:pagecheckerboard="0"
     inkscape:deskcolor="#d1d1d1"
     inkscape:zoom="0.53386562"
     inkscape:cx="853.21096"
     inkscape:cy="435.50285"
     inkscape:window-width="1680"
     inkscape:window-height="998"
     inkscape:window-x="-8"
     inkscape:window-y="-8"
     inkscape:window-maximized="1"
     inkscape:current-layer="svg1"
     showguides="true">
    <sodipodi:guide
       position="0,1000"
       orientation="0,-1"
       id="guide1"
       inkscape:locked="false" />
    <sodipodi:guide
       position="0,0"
       orientation="0,-1"
       id="guide2"
       inkscape:locked="false" />
    <sodipodi:guide
       position="1503.5334,841.18786"
       orientation="0,-1"
       id="guide3"
       inkscape:locked="false" />
  </sodipodi:namedview>
  <path
     id="path5"
     style="fill:#000000;stroke:none;stroke-width:51.248"
     d="M 618.66016 0 C 594.82766 0 582.91016 17.194897 582.91016 51.583984 L 582.91016 91.402344 L 565.71875 91.402344 C 559.08265 91.402344 555.76367 96.078276 555.76367 105.42969 C 555.76367 114.7811 559.08265 119.45703 565.71875 119.45703 L 582.91016 119.45703 L 582.91016 160.70312 C 578.66119 161.05706 574.35568 161.52829 569.99023 162.11523 C 534.25246 166.92031 508.87524 193.04793 493.85938 240.49805 C 485.45053 251.30947 476.1405 266.02488 465.92969 284.64453 C 459.92337 297.25786 459.47469 304.31675 464.58008 305.81836 C 469.68545 307.31996 474.03877 309.5691 477.64258 312.57227 C 472.05914 317.22513 468.13181 323.29989 483.94922 324.28516 C 479.35443 325.68001 469.82153 331.09458 478.09375 335.54883 C 481.99789 337.65104 483.94922 344.10851 483.94922 354.91992 C 459.6853 384.96556 433.10773 396.82683 393.33203 391.41016 C 392.89296 355.09078 346.14316 375.68573 366.93555 404.08203 C 386.20185 430.39411 474.79293 411.46379 501.96875 370.23438 C 514.58208 370.23438 523.89016 369.63291 529.89648 368.43164 L 534.40234 397.26367 C 479.7446 397.26367 435.29674 410.77811 401.06055 437.80664 C 347.00346 434.61728 292.56969 442.57443 252.80664 448.31445 C 247.77909 419.4176 241.71295 382.99021 232.88477 344.03125 C 224.05659 305.07226 225.19631 279.73316 228.42383 263.41406 C 230.79978 251.40053 237.84693 239.24629 249.97266 232.56641 C 262.09842 225.88656 268.5412 215.88894 269.29883 202.57422 C 270.05643 189.25953 275.36006 168.65873 285.21094 140.76953 C 277.74234 137.74346 271.02579 142.3395 265.06055 154.55859 C 259.09528 166.77769 253.40164 176.71559 247.98047 184.37305 C 232.0496 188.6417 234.07152 174.17307 254.04688 140.9668 C 274.0222 107.76056 278.1815 89.808862 266.52148 87.113281 C 254.26048 107.36003 241.06876 123.46357 226.94922 135.42188 C 212.82969 147.38022 203.8129 178.21436 199.90039 227.92773 C 185.49101 304.97876 186.41324 377.80388 186.20117 498.07617 C 225.36847 510.39532 271.83181 509.73147 322.04102 505.55469 C 372.2502 501.37782 426.28734 505.07745 435.29688 513.48633 C 435.89751 538.11235 440.55252 557.78251 449.26172 572.49805 C 457.9709 587.21355 479.14375 653.13407 512.7793 770.25781 L 356.91406 654.93555 C 333.48933 633.91333 313.0688 623.40234 295.65039 623.40234 C 245.79774 624.00299 224.17624 644.4255 230.7832 684.66797 L 256.9082 872.9668 C 219.66886 882.57695 202.25172 911.10651 204.6543 958.55664 C 187.2359 960.95911 171.46843 965.31443 157.35352 971.62109 C 143.23863 977.92762 128.97383 980.62958 114.55859 979.72852 C 100.14337 978.82756 90.835301 985.58475 86.630859 1000 L 837.12305 1000 C 820.90593 970.56894 798.68101 958.85697 770.45117 964.86328 C 742.22134 970.86969 723.15264 958.2564 713.24219 927.02344 C 703.33169 895.79042 686.36328 889.48384 662.33789 908.10352 C 685.16178 863.65662 686.06321 817.40821 665.04102 769.35742 C 665.04102 668.68816 677.26054 586.69973 701.98047 512.58398 C 710.99001 504.7757 766.69028 506.89193 816.85742 512.74805 C 867.02456 518.6041 911.64927 516.29477 950.73047 505.81641 C 964.59936 416.5805 956.61557 312.00809 950.51367 233.27734 C 951.1597 183.90886 945.26685 152.41443 932.83594 138.79492 C 920.40505 125.17545 909.10533 107.94858 898.93555 87.113281 C 887.05641 88.565479 889.2981 106.85459 905.66406 141.98047 C 922.02991 177.10634 922.51749 191.70838 907.125 185.78516 C 902.54066 177.5992 897.80687 166.94034 892.92188 153.81055 C 888.03687 140.68078 881.96064 135.57705 874.69531 138.5 C 881.66324 166.6813 884.79416 187.57964 884.08984 201.19531 C 883.38551 214.81096 888.56365 225.55287 899.62305 233.41797 C 910.6823 241.28311 917.41308 253.56324 919.41797 264.94141 C 922.06838 279.98303 920.17279 309.68585 909.54688 348.19336 C 898.92097 386.70086 892.45284 424.04378 887.39844 453.86719 C 847.906 446.49214 799.47372 435.33979 735.31445 433.30078 C 727.40921 422.98005 718.09983 414.54547 707.38477 407.99805 L 707.38477 235.0918 C 707.38477 203.25816 693.42167 181.93446 665.49219 171.12305 C 649.7626 165.03418 632.7944 161.42268 614.58789 160.28711 L 614.58789 52.488281 C 614.58789 38.611983 617.60377 31.673828 623.63867 31.673828 C 629.66997 31.673828 632.68555 38.611983 632.68555 52.488281 L 653.50195 52.488281 C 654.10645 17.495875 642.49236 2.4280859e-16 618.66016 0 z M 597.66992 176.4043 C 611.40599 176.90075 626.80542 179.34614 643.86719 183.73828 C 674.19925 191.54653 689.36523 209.26534 689.36523 236.89453 L 689.36523 479.11719 L 617.56055 479.11719 L 617.56055 315.63477 C 617.56055 307.57777 623.30412 297.54941 635.30859 285.54492 C 666.20057 254.6529 653.30871 205.57033 594.76562 234.19141 C 585.15548 223.98065 563.23224 216.1733 528.99609 210.76758 C 535.60306 193.94984 548.81772 183.28599 568.63867 178.78125 C 573.59391 177.65505 578.87612 176.91508 584.48828 176.55859 C 588.69741 176.29123 593.09123 176.23881 597.66992 176.4043 z M 519.98828 226.98242 C 548.21806 228.78434 571.04056 235.99408 588.45898 248.60742 C 587.85833 258.81818 592.21359 259.11798 601.52344 249.50781 C 620.18823 230.241 648.41799 240.9988 629.43359 266.02148 C 607.18555 295.34584 598.29688 288.9207 598.29688 315.93359 L 598.29688 497.20898 L 682.42188 497.20898 C 649.17013 584.89902 639.81902 678.06776 636.20898 771.1582 L 551.52148 790.07812 C 507.67517 647.72776 481.3967 570.69673 472.6875 558.98438 C 463.97831 547.27199 461.4255 512.28499 465.0293 454.02344 C 463.82805 434.20252 479.44464 424.44185 511.87891 424.74219 C 544.31315 425.04249 560.53125 414.38259 560.53125 392.75977 C 560.53125 366.33186 549.41879 354.31817 527.19531 356.7207 C 504.97182 359.12325 495.66183 351.91544 499.26562 335.09766 C 512.4796 327.89006 517.13461 322.48465 513.23047 318.88086 C 509.32634 315.27703 502.26741 313.17287 492.05664 312.57227 C 492.05664 306.5659 486.95299 301.46226 476.74219 297.25781 C 486.95299 274.43371 496.86252 258.51735 506.47266 249.50781 C 516.08282 244.70278 526.14322 244.85361 536.6543 249.95898 C 547.16542 255.06438 557.52751 258.51837 567.73828 260.32031 L 567.73828 253.11133 C 561.13135 252.51069 552.57166 249.35643 542.06055 243.65039 C 531.54946 237.94437 520.88759 237.19399 510.07617 241.39844 C 514.28058 234.79146 517.5857 229.98561 519.98828 226.98242 z M 522.58203 251.0332 C 518.97398 251.0918 515.35553 251.96859 511.87891 254.01367 L 501.96875 262.12109 L 501.96875 269.32812 L 506.47266 269.32812 C 519.08598 275.93509 533.50162 275.9351 549.71875 269.32812 L 565.03516 272.93164 L 565.03516 264.82227 L 550.61914 263.02148 C 544.13191 258.0313 533.40617 250.8573 522.58203 251.0332 z M 519.08789 256.71484 C 517.28598 259.718 517.28598 263.32094 519.08789 267.52539 L 510.07617 263.02148 C 511.27745 260.61896 514.28284 258.51676 519.08789 256.71484 z M 531.69922 258.51758 L 544.3125 265.72266 C 538.90677 266.92393 533.80114 267.52539 528.99609 267.52539 C 533.20049 265.72351 534.10175 262.72202 531.69922 258.51758 z M 504.57227 295.31836 C 504.46049 295.32734 504.34388 295.3749 504.2207 295.45703 C 503.31979 296.05764 502.86914 297.40754 502.86914 299.50977 C 502.86914 301.61198 501.96789 302.9638 500.16602 303.56445 C 498.3641 304.1651 496.41277 303.11494 494.31055 300.41211 C 492.20833 297.70924 490.55478 296.35742 489.35352 296.35742 C 488.15225 296.35742 487.25294 296.80803 486.65234 297.70898 C 486.05167 298.60994 486.05167 299.96176 486.65234 301.76367 C 488.45422 299.96176 490.70532 300.71215 493.4082 304.01562 C 496.11105 307.31912 498.96557 308.22032 501.96875 306.71875 C 504.97193 305.21715 506.32379 302.81325 506.02344 299.50977 C 505.77006 296.72246 505.30012 295.32627 504.61914 295.31836 C 504.60338 295.31811 504.58823 295.31708 504.57227 295.31836 z M 488.63672 316.7832 C 489.02745 316.7714 510.66628 319.19114 509.17578 320.68164 L 487.55273 320.68164 C 484.34879 319.6136 484.95591 316.89473 488.63672 316.7832 z M 508.27539 322.48438 C 505.63481 325.12498 497.29389 328.60767 492.95898 329.69141 C 486.72963 329.69141 487.6437 327.79958 490.25586 325.1875 L 508.27539 322.48438 z M 292.04492 679.26172 L 330.78906 679.26172 L 503.76953 800.88867 L 310.06445 858.55078 C 314.26889 769.05625 308.26205 709.29348 292.04492 679.26172 z M 641.61523 791.87891 C 654.82921 842.93284 646.72206 887.38272 617.29102 925.22266 C 573.44472 951.04997 520.43718 954.95262 458.27148 936.93359 C 396.10588 918.91455 337.09533 922.81917 281.23633 948.64648 C 286.64201 928.22487 332.89043 895.48897 419.98242 850.44141 L 641.61523 791.87891 z " />
</svg>
