<?xml version="1.0" encoding="UTF-8" standalone="no"?>
<svg
   width="20.560665"
   height="17.972734"
   version="1.1"
   id="svg1"
   sodipodi:docname="137F8.svg"
   inkscape:version="1.4.2 (f4327f4, 2025-05-13)"
   xmlns:inkscape="http://www.inkscape.org/namespaces/inkscape"
   xmlns:sodipodi="http://sodipodi.sourceforge.net/DTD/sodipodi-0.dtd"
   xmlns="http://www.w3.org/2000/svg"
   xmlns:svg="http://www.w3.org/2000/svg">
  <defs
     id="defs1" />
  <sodipodi:namedview
     id="namedview1"
     pagecolor="#ffffff"
     bordercolor="#666666"
     borderopacity="1.0"
     inkscape:showpageshadow="2"
     inkscape:pageopacity="0.0"
     inkscape:pagecheckerboard="0"
     inkscape:deskcolor="#d1d1d1"
     inkscape:zoom="22.627417"
     inkscape:cx="12.087107"
     inkscape:cy="7.88866"
     inkscape:window-width="1680"
     inkscape:window-height="998"
     inkscape:window-x="-8"
     inkscape:window-y="-8"
     inkscape:window-maximized="1"
     inkscape:current-layer="svg1" />
  <path
     id="path1"
     style="fill:#000000;stroke:none;stroke-width:0.999999"
     d="M 10.328125 0 C 9.3674547 0 8.5859375 0.78151724 8.5859375 1.7421875 C 8.5859375 2.4691635 9.0339262 3.0927581 9.6679688 3.3535156 C 9.2422844 3.411598 8.9289986 3.7099079 8.7285156 4.2480469 C 8.6489514 4.5890342 8.5094563 4.9013901 8.3105469 5.1855469 C 8.1116368 5.4697043 8.1657667 5.6113281 8.4726562 5.6113281 C 8.4044582 5.7136245 8.4106694 5.7698842 8.4902344 5.78125 C 8.4220364 5.838082 8.4158242 5.8879527 8.4726562 5.9277344 C 8.5294882 5.9675164 8.5428376 6.0607972 8.5410156 6.2089844 C 8.5391456 6.3603475 8.7429109 6.438484 8.984375 6.4472656 L 9.3261719 6.4472656 C 9.4625668 6.5609283 9.5374616 6.7941305 9.5488281 7.1464844 C 8.5485964 7.1464844 7.9448277 7.3401087 7.7402344 7.7265625 C 6.9673287 8.2494102 6.1489934 8.8512261 5.2851562 9.5332031 C 4.5577152 9.4536389 3.9768401 9.3911684 3.5449219 9.3457031 C 3.113003 9.3002381 2.744389 9.1981905 2.4375 9.0390625 C 2.2775393 8.8132363 2.0776993 8.6421646 1.8398438 8.5253906 L 1.8398438 3.3105469 C 1.8398438 1.923862 2.5227662 1.2285156 3.8867188 1.2285156 L 3.8867188 0.8046875 C 2.1022137 0.8046875 1.2089844 1.6272812 1.2089844 3.2753906 L 0.4765625 3.2753906 L 1.2089844 3.9589844 L 1.2089844 4.28125 L 0.4765625 4.28125 L 1.2089844 5.015625 L 1.2089844 5.3398438 L 0.4765625 5.3398438 L 1.2089844 6.0371094 L 1.2089844 6.3613281 L 0.45898438 6.3613281 L 1.2089844 7.0449219 L 1.2089844 7.3515625 L 0.4765625 7.3671875 L 1.2089844 8.0332031 L 1.2089844 8.3574219 L 0.49414062 8.3574219 L 1.0566406 9 C 1.0628606 9.2471964 1.0896399 9.4122353 1.1386719 9.4980469 L 0.4765625 9.4980469 L 1.2089844 10.181641 L 1.2089844 10.505859 L 0.4765625 10.505859 L 1.2089844 11.238281 L 1.2089844 11.5625 L 0.4765625 11.5625 L 1.2089844 12.261719 L 1.2089844 12.583984 L 0.45898438 12.583984 L 1.2089844 13.267578 L 1.2089844 13.572266 L 0.4765625 13.572266 L 1.2089844 14.255859 L 1.2089844 14.580078 L 0.49414062 14.580078 L 1.2089844 15.398438 L 1.2089844 17.955078 L 1.8398438 17.955078 L 1.8398438 9.5019531 C 2.0019859 9.4444101 2.0888306 9.4106332 2.0996094 9.4003906 L 2.1015625 9.4003906 C 2.896746 10.124872 3.9746787 10.465297 5.3359375 10.419922 C 6.6657909 9.6811155 7.4507613 9.1772639 7.6894531 8.9101562 C 7.928145 8.6430483 8.1052635 8.6971784 8.2246094 9.0722656 C 8.4391269 9.7464618 8.6143356 10.355206 9.2402344 12.806641 C 8.1036075 11.817776 6.911518 11.263535 5.6601562 11.203125 C 5.2627995 11.183942 5.0083701 11.409174 4.9003906 11.818359 C 4.7924111 12.227545 4.8069644 13.760217 4.9433594 16.419922 L 4.9433594 16.439453 C 4.9433594 16.655411 4.7767112 16.807506 4.4414062 16.898438 C 4.1061011 16.989377 3.6585098 17.137204 3.1015625 17.341797 L 2.8300781 17.341797 C 2.5913861 17.341797 2.5789617 17.545892 2.7949219 17.955078 L 5.984375 17.955078 C 6.1358738 17.837246 6.1814963 17.623536 6.1210938 17.3125 C 6.2729748 17.61658 6.5701033 17.829158 6.8378906 17.972656 L 7.7226562 17.972656 C 8.5864931 17.620302 9.7858676 16.864439 11.320312 15.705078 L 11.201172 17.291016 C 10.746521 17.291016 10.517578 17.370176 10.517578 17.529297 L 10.517578 17.955078 L 11.96875 17.955078 L 12.427734 15.314453 C 12.427734 14.677942 12.154956 14.419894 11.609375 14.544922 C 12.132225 13.85158 12.161343 13.05188 11.695312 12.142578 C 11.91941 10.288684 12.060065 9.452318 12.179688 9.0136719 C 12.230828 8.8261282 12.370155 8.8302015 12.591797 9.0234375 C 12.813438 9.216665 13.508961 9.7269057 14.679688 10.556641 C 15.804949 10.533911 17.008579 10.16334 18.292969 9.4472656 L 18.720703 9.5957031 L 18.720703 17.955078 L 19.351562 17.955078 L 19.351562 15.398438 L 20.066406 14.580078 L 19.351562 14.580078 L 19.351562 14.255859 L 20.083984 13.572266 L 19.351562 13.572266 L 19.351562 13.267578 L 20.101562 12.583984 L 19.351562 12.583984 L 19.351562 12.261719 L 20.083984 11.5625 L 19.351562 11.5625 L 19.351562 11.238281 L 20.083984 10.505859 L 19.351562 10.505859 L 19.351562 10.181641 L 20.083984 9.4980469 L 19.351562 9.4980469 L 19.351562 9.1757812 L 20.066406 8.3574219 L 19.351562 8.3574219 L 19.351562 8.0332031 L 20.083984 7.3671875 L 19.351562 7.3515625 L 19.351562 7.0449219 L 20.101562 6.3613281 L 19.351562 6.3613281 L 19.351562 6.0371094 L 20.083984 5.3398438 L 19.351562 5.3398438 L 19.351562 5.015625 L 20.083984 4.28125 L 19.351562 4.28125 L 19.351562 3.9589844 L 20.083984 3.2753906 L 19.351562 3.2753906 C 19.351562 1.6272812 18.458334 0.8046875 16.673828 0.8046875 L 16.673828 1.2285156 C 18.037782 1.2285156 18.720703 1.923862 18.720703 3.3105469 L 18.720703 8.4921875 L 18.685547 8.4921875 C 18.378658 8.6172173 18.134985 8.817054 17.953125 9.0898438 C 17.362079 9.2944371 16.854145 9.3984373 16.433594 9.3984375 C 16.013042 9.3984375 15.513275 9.4380147 14.933594 9.5175781 C 14.13796 9.0060957 13.400726 8.3856445 12.71875 7.6582031 C 12.525524 7.3172143 11.99665 7.1464844 11.132812 7.1464844 L 11.132812 6.8730469 C 11.329603 6.7917836 11.553178 6.6090608 11.695312 6.359375 C 12.132934 5.590607 12.198205 5.0235678 11.976562 4.4609375 C 11.797859 4.0073042 11.587325 3.5764722 10.832031 3.4101562 C 11.547591 3.1934056 12.070312 2.5275853 12.070312 1.7421875 C 12.070312 0.78151724 11.288795 0 10.328125 0 z M 10.328125 0.29882812 C 11.126663 0.29882812 11.771484 0.94364928 11.771484 1.7421875 C 11.771484 2.5407257 11.126663 3.1855469 10.328125 3.1855469 C 9.5295868 3.1855469 8.8867186 2.5407257 8.8867188 1.7421875 C 8.8867188 0.94364928 9.5295868 0.29882813 10.328125 0.29882812 z M 10.033203 3.6308594 C 10.343905 3.6193514 11.268113 3.6649403 11.669922 4.5722656 C 11.846102 4.9700851 11.814871 5.4260164 11.576172 5.9375 C 11.337477 6.4489809 11.110491 6.6239724 10.894531 6.4648438 C 10.678573 6.3057168 10.570312 6.1058795 10.570312 5.8671875 C 10.786271 5.5261993 10.919559 5.2720572 10.970703 5.1015625 C 11.047842 4.8444338 11.035852 4.4389936 10.65625 4.3847656 C 10.497122 4.3620332 10.332603 4.407822 10.162109 4.5214844 C 9.9006931 4.3850896 9.5759062 4.260147 9.1894531 4.1464844 C 9.2783095 3.7377399 9.7119335 3.6427578 10.033203 3.6308594 z M 8.9335938 4.4003906 C 9.3314125 4.4685886 9.753276 4.6238841 10.173828 4.8398438 C 10.288775 4.7194037 10.385221 4.6557991 10.515625 4.6464844 C 10.616747 4.6392544 10.734633 4.7736597 10.664062 5.015625 C 10.624282 5.1520199 10.46189 5.4019041 10.177734 5.765625 C 10.268664 6.3112058 10.474713 6.6402437 10.792969 6.7539062 L 10.779297 7.4648438 C 11.230538 7.4462208 11.658541 7.4372736 12.019531 7.5566406 C 12.156186 7.6018276 12.011885 8.0778862 11.917969 8.3222656 C 11.636821 9.0532564 11.442925 10.582991 11.287109 12.175781 L 9.6328125 12.669922 C 9.3827542 11.692422 9.1829175 10.936559 9.0351562 10.402344 C 8.8873943 9.86813 8.7290879 9.1456298 8.5585938 8.2363281 C 8.4810624 7.82283 8.4131214 7.606919 8.5585938 7.5566406 C 8.9698378 7.4145056 9.3958525 7.4499193 9.8515625 7.4863281 C 9.8827108 7.3191111 9.9830338 6.6275651 9.5820312 6.2265625 C 9.4283317 6.2536998 9.2623195 6.2405863 8.9667969 6.2519531 C 8.7735694 6.2633189 8.6901581 6.1983515 8.7128906 6.1074219 C 8.7356231 6.0164906 8.7231995 5.9415964 8.6777344 5.8847656 C 8.8695407 5.8911556 8.9843218 5.8790222 9.0214844 5.8476562 C 9.0223973 5.8467557 9.0265438 5.8427269 9.0273438 5.8417969 C 9.0286938 5.8398769 9.0323331 5.8340613 9.0332031 5.8320312 C 9.0338359 5.8299312 9.0349962 5.8244756 9.0351562 5.8222656 C 9.0343509 5.8007435 9.0106635 5.7703377 8.9667969 5.7382812 C 8.8190343 5.6303018 8.716987 5.6010194 8.6601562 5.6464844 C 8.6942548 5.4987227 8.6088897 5.4176167 8.4042969 5.40625 C 8.6429882 5.0311626 8.8199301 4.6959131 8.9335938 4.4003906 z M 9.1523438 4.578125 C 9.0628337 4.579555 8.9613193 4.5946309 8.8476562 4.6230469 L 8.8476562 4.7753906 C 9.0749822 4.7071926 9.2623949 4.7029356 9.4101562 4.7597656 C 9.557918 4.8165976 9.7577552 4.8561739 10.007812 4.8789062 L 9.9238281 4.8105469 C 9.6965028 4.7309829 9.5154779 4.6644292 9.3847656 4.6132812 C 9.3194097 4.5877053 9.2418532 4.5767047 9.1523438 4.578125 z M 9.0957031 4.8066406 C 8.9876739 4.8152525 8.9099893 4.862729 8.8652344 4.9472656 L 8.7128906 5.0488281 L 8.7128906 5.1171875 L 8.8476562 5.1347656 C 9.0295168 5.2597947 9.3085065 5.2368982 9.6835938 5.0664062 L 10.007812 5.0664062 L 10.007812 4.9648438 L 9.6679688 4.9648438 C 9.4520097 4.8625473 9.2761319 4.8094823 9.1425781 4.8066406 C 9.1258835 4.806286 9.1111359 4.8054104 9.0957031 4.8066406 z M 9.0703125 4.9121094 C 9.0248432 4.9803071 9.0310587 5.0447317 9.0878906 5.1015625 C 9.0196929 5.0901967 8.9552689 5.0715597 8.8984375 5.0488281 C 8.9211701 5.003363 8.9793823 4.9575755 9.0703125 4.9121094 z M 9.2929688 4.9121094 L 9.5644531 5.015625 C 9.4621568 5.06109 9.3725327 5.0901965 9.2929688 5.1015625 C 9.3611668 5.0447315 9.3611668 4.9803075 9.2929688 4.9121094 z M 5.7304688 11.609375 C 5.7629158 11.609056 5.7960841 11.609681 5.8300781 11.613281 C 7.0472278 11.74084 8.1540652 12.301446 9.1542969 13.267578 C 8.7451109 13.585825 8.3764969 13.885765 8.046875 14.169922 L 6.5117188 12.636719 C 6.2275621 12.466224 6.0983613 12.541121 6.1210938 12.859375 C 6.1551928 13.348126 6.0865097 13.96254 5.9160156 14.707031 C 5.7455216 15.451521 5.6601562 16.199044 5.6601562 16.949219 C 5.7851853 17.36977 5.7685015 17.621608 5.609375 17.701172 L 2.9824219 17.701172 L 2.9824219 17.580078 C 3.3234101 17.568708 3.581459 17.52505 3.7519531 17.451172 C 3.9224471 17.377292 4.3577908 17.252173 5.0625 17.070312 C 5.1761624 17.047583 5.234375 16.864427 5.234375 16.523438 C 5.177543 14.216086 5.1841972 12.69682 5.2851562 11.970703 C 5.3209732 11.713099 5.5033334 11.611611 5.7304688 11.609375 z M 11.542969 12.636719 C 11.827125 13.466456 11.729337 14.11619 11.251953 14.587891 C 10.77457 15.05959 10.168671 15.307344 9.4355469 15.330078 C 8.7024224 15.352808 8.0069004 15.769167 7.3476562 16.576172 C 7.2908243 16.837597 7.4532144 16.783642 7.8339844 16.419922 C 8.2147549 16.056201 8.7624411 15.793718 9.4785156 15.628906 C 10.194591 15.464096 10.675549 15.301706 10.919922 15.142578 C 11.164298 14.983451 11.426695 14.853516 11.712891 14.853516 C 11.954005 14.853516 12.059844 15.041662 12.037109 15.314453 L 11.695312 17.701172 L 10.757812 17.701172 L 10.757812 17.597656 L 11.507812 17.511719 L 11.677734 15.978516 C 11.677734 15.38747 11.394487 15.283469 10.826172 15.669922 C 9.4508545 16.601956 8.3868923 17.245301 7.6367188 17.597656 C 7.136603 17.654476 6.778459 17.579595 6.5625 17.375 C 6.3465404 17.170406 6.3422816 16.835158 6.546875 16.369141 C 7.1151883 15.471205 7.8918176 14.638317 8.875 13.871094 C 9.8581825 13.103871 10.747329 12.693548 11.542969 12.636719 z M 6.5117188 13.181641 L 7.7578125 14.425781 C 7.2463303 14.880431 6.8008677 15.373988 6.4257812 15.908203 C 6.1882966 16.2606 6.05174 16.552774 6.015625 16.78125 C 6.016247 16.100549 6.0860734 15.497972 6.2226562 14.972656 C 6.3704174 14.404342 6.4662539 13.806787 6.5117188 13.181641 z " />
</svg>
