<?xml version="1.0" encoding="UTF-8" standalone="no"?>
<svg
   width="17.327217"
   height="18.714211"
   version="1.1"
   id="svg1"
   sodipodi:docname="137FB.svg"
   inkscape:version="1.4.2 (f4327f4, 2025-05-13)"
   xmlns:inkscape="http://www.inkscape.org/namespaces/inkscape"
   xmlns:sodipodi="http://sodipodi.sourceforge.net/DTD/sodipodi-0.dtd"
   xmlns="http://www.w3.org/2000/svg"
   xmlns:svg="http://www.w3.org/2000/svg">
  <defs
     id="defs1" />
  <sodipodi:namedview
     id="namedview1"
     pagecolor="#ffffff"
     bordercolor="#666666"
     borderopacity="1.0"
     inkscape:showpageshadow="2"
     inkscape:pageopacity="0.0"
     inkscape:pagecheckerboard="0"
     inkscape:deskcolor="#d1d1d1"
     inkscape:zoom="128"
     inkscape:cx="9.2382812"
     inkscape:cy="7.3242187"
     inkscape:window-width="1680"
     inkscape:window-height="998"
     inkscape:window-x="-8"
     inkscape:window-y="-8"
     inkscape:window-maximized="1"
     inkscape:current-layer="svg1" />
  <path
     style="fill:#000000;stroke:none"
     d="M 6.4667969,0 C 5.1127969,0 3.74122,0.24787017 2.3496094,0.7421875 0.95799804,1.2365048 0.26171875,2.5841734 0.26171875,4.7871094 l 0.015625,0.015625 C 0.06242308,4.7597504 0.0146065,4.8885645 0.1328125,5.1894531 -0.08210817,5.8342151 -0.03916992,6.248958 0.26171875,6.4316406 h 0.015625 V 18.681641 H 0.81054688 V 6.6894531 C 0.95024554,6.7646751 1.1171189,6.8076134 1.3105469,6.8183594 1.6998817,7.5175732 2.1358059,8.1526921 2.6191406,8.7226562 2.6394493,8.9722954 2.7021913,9.2505856 2.8085938,9.5585938 2.5829271,9.5478471 2.2608915,9.4190337 1.8417969,9.171875 1.7128442,9.3975417 1.679664,9.6337007 1.7441406,9.8808594 2.1309973,9.8378754 2.4910921,9.8593438 2.8242188,9.9453125 L 2.3886719,11.783203 2.90625,11.878906 3.1464844,9.9785156 c 0.2686513,0.042984 0.5975183,0.1649664 0.984375,0.3691404 0.1719366,-0.21492 0.2197532,-0.4510795 0.1445312,-0.7089841 -0.4405873,0.05373 -0.7743333,0.043972 -1,-0.03125 0.08981,-0.094415 0.1713768,-0.1885618 0.2421875,-0.28125 0.7501836,0.040973 1.4171061,0.00874 2,-0.097656 0.677,-0.1235793 1.0800324,-0.1021102 1.2089844,0.064453 C 6.8555152,9.4595321 6.94627,9.6766612 7,9.9453125 7.3438727,10.869471 7.627849,11.966344 7.8535156,13.234375 6.6607063,12.19201 5.4086716,11.631863 4.0976562,11.556641 c -0.4083493,0 -0.6708564,0.21225 -0.7890624,0.636718 -0.1182067,0.424468 -0.1084487,2.039036 0.03125,4.84375 -1e-7,0.236412 -0.1741916,0.400846 -0.5234376,0.492188 -0.349246,0.09134 -0.8142459,0.250896 -1.3945312,0.476562 H 1.1171875 c -0.24715867,0 -0.25886979,0.21469 -0.033203,0.644532 H 4.4375 c 0.1531914,-0.122553 0.2027109,-0.338305 0.1484375,-0.646485 0.062757,0.121035 0.1469306,0.22017 0.2539063,0.298828 0.1826826,0.134326 0.3446769,0.255821 0.484375,0.363282 H 6.2578125 C 7.1712252,18.30065 8.434971,17.504344 10.046875,16.279297 l -0.1289062,1.662109 c -0.4728254,0 -0.7158165,0.08588 -0.7265626,0.257813 v 0.451172 h 1.5312498 l 0.484375,-2.773438 c 0,-0.676999 -0.290808,-0.944385 -0.871093,-0.804687 0.558793,-0.741476 0.591973,-1.590479 0.09766,-2.546875 0.09671,-1.020873 0.208938,-1.886466 0.33789,-2.5957035 h 0.08008 V 9.2207031 c 0.08597,-0.1289526 0.469971,-0.1265128 1.152344,0.00781 0.570304,0.1122646 1.202329,0.1470802 1.896485,0.1054688 0.07797,0.1059244 0.168569,0.2140732 0.271484,0.3222656 -0.225667,0.075222 -0.55746,0.080101 -0.998047,0.015625 -0.07522,0.2686507 -0.0274,0.5048095 0.144531,0.7089835 0.386858,-0.204174 0.713772,-0.328109 0.982422,-0.371093 L 14.542975,11.927731 15.0586,11.81445 14.623053,9.9785131 c 0.333127,-0.075223 0.693221,-0.091813 1.080078,-0.048828 0.06448,-0.2579053 0.03325,-0.5008965 -0.0957,-0.7265625 -0.408349,0.2579047 -0.730384,0.3886719 -0.966797,0.3886719 0.09772,-0.2777407 0.158492,-0.5334267 0.183594,-0.765625 0.564824,-0.582375 1.035902,-1.2635203 1.412109,-2.0410157 l 0.22461,-0.03125 V 18.714844 H 16.99415 V 6.5273438 C 17.370252,6.2586931 17.427826,5.8410244 17.169922,5.2714844 17.266636,4.9920877 17.209062,4.8730316 16.994141,4.9160156 16.983395,2.6378576 16.282236,1.2355397 14.890625,0.70898438 13.499014,0.18242904 12.120605,-0.048851 10.755859,0.015625 v 0.32226562 c 1.149826,0.05373 2.395028,0.3328273 3.738282,0.83789058 1.343254,0.5050634 2.005867,1.8546851 1.984375,4.046875 C 16.209864,5.3945929 16.01469,5.6854007 15.896484,6.09375 V 6.076172 c -0.343873,0.5480473 -0.689816,0.9793809 -1.039062,1.2910156 -0.120433,0.1074631 -0.251061,0.2202777 -0.392578,0.3417969 -0.111119,-0.058915 -0.245437,-0.076096 -0.404297,-0.052734 -0.354619,0.085969 -0.530764,0.3313997 -0.525391,0.734375 3.89e-4,0.029158 0.0033,0.058536 0.0059,0.087891 C 12.703868,8.2747301 11.806573,8.1023869 10.851562,7.9628906 V 5.7539062 c 0,-1.0853493 -0.281537,-1.7128296 -0.845703,-1.8847656 C 9.948394,3.8516273 9.8906136,3.83381 9.8339844,3.8183594 10.340309,3.4694061 10.59375,2.9914838 10.59375,2.3847656 10.59375,1.901195 10.452738,1.5049947 10.167969,1.1933594 9.8831988,0.88172471 9.4874859,0.72460938 8.9824219,0.72460938 8.4558665,0.72460938 8.050395,0.88172471 7.765625,1.1933594 7.4808557,1.5049947 7.3378906,1.896316 7.3378906,2.3691406 c 0,0.5847286 0.2265016,1.0492216 0.6796875,1.3945313 C 7.7317823,3.9142298 7.5004017,4.2128626 7.3222656,4.6582031 7.2470436,5.0128218 7.1016394,5.3416895 6.8867188,5.6425781 6.6717981,5.9434675 6.7264475,6.09375 7.0488281,6.09375 c -0.075222,0.10746 -0.065464,0.1650352 0.03125,0.1757812 -0.085968,0.053731 -0.095726,0.1035004 -0.03125,0.1464844 0.064476,0.042984 0.083043,0.1431365 0.064453,0.3046875 -0.022439,0.1949998 0.3144032,0.2421875 0.466797,0.2421875 h 0.3710938 c 0.1396986,0.1289527 0.2138634,0.3768229 0.2246093,0.7421875 -0.6232693,0 -1.1863429,0.107345 -1.6914062,0.3222657 C 5.5064863,8.1455504 4.652605,8.290954 3.921875,8.4628906 3.917185,8.4574206 3.910929,8.4507546 3.90625,8.4453126 3.90978,8.4103306 3.91165,8.3764996 3.91211,8.341797 3.9174827,7.9388209 3.7432912,7.6933899 3.3886719,7.6074219 3.2901355,7.5958294 3.2012624,7.6002505 3.1210938,7.6191406 2.9710775,7.479981 2.8262307,7.3584569 2.6875,7.2539062 2.316762,6.9745096 1.9327596,6.5714779 1.5351562,6.0449219 1.3847116,5.6473192 1.1485525,5.3399207 0.82617188,5.125 0.82617188,2.98654 1.4843926,1.6652196 2.8007812,1.1601562 4.1171699,0.65509292 5.3452957,0.37599563 6.484375,0.32226562 Z m 2.515625,1.1445312 c 0.3761113,10e-8 0.6717981,0.1097842 0.8867187,0.3300782 0.2149204,0.2202933 0.3222654,0.5184206 0.3222654,0.8945312 0,0.3761114 -0.116617,0.6835092 -0.347656,0.9199219 C 9.61271,3.5254752 9.3262952,3.6425781 8.9824219,3.6425781 8.6385492,3.6425781 8.3477408,3.5254752 8.1113281,3.2890625 7.8749155,3.0526498 7.7578125,2.735494 7.7578125,2.3378906 c 0,-0.3438726 0.107345,-0.6298021 0.3222656,-0.8554687 C 8.2949988,1.2567552 8.5955652,1.1445312 8.9824219,1.1445312 Z M 8.8320312,3.9628906 C 9.1523974,3.944757 9.4818125,4.0017836 9.8203125,4.1347656 10.271646,4.312075 10.498047,4.8795408 10.498047,5.8359375 V 9.5917969 H 9.2070312 V 6.3671875 c 0.2579047,-0.3546193 0.4150201,-0.623958 0.46875,-0.8066406 0.053731,-0.1826827 0.051291,-0.349556 -0.00781,-0.5 C 9.6088654,4.9101022 9.4946883,4.8242264 9.328125,4.8027344 9.1615617,4.7812424 8.9990813,4.8310128 8.8378906,4.9492188 8.558494,4.8095207 8.2130368,4.6807067 7.8046875,4.5625 7.8584175,4.2831033 8.0965297,4.0972007 8.515625,4.0058594 8.6203988,3.9830242 8.7252425,3.9689352 8.8320312,3.9628906 Z M 7.546875,4.8359375 c 0.4083493,0.064476 0.8797252,0.2294114 1.3203125,0.4550781 0.0058,-0.00602 0.2521789,-0.2600846 0.421875,-0.1328125 0.085969,0.064476 0.1074378,0.1693818 0.064453,0.3144531 -0.042984,0.1450714 -0.2147363,0.4051387 -0.515625,0.78125 v 1.6601563 c -0.1934286,0 -0.2910156,-0.069286 -0.2910156,-0.2089844 0,-0.4298406 -0.112224,-0.7587083 -0.3378906,-0.984375 L 8.3457031,6.4882812 C 8.1469018,6.6440986 7.8917135,6.7207031 7.5800781,6.7207031 7.3651581,6.7421951 7.2719635,6.7060897 7.2988281,6.609375 7.3256935,6.512661 7.3115425,6.4316635 7.2578125,6.3671875 c 0.2112264,0.012425 0.3360143,0.00106 0.3730469,-0.033203 8.736e-4,-9.602e-4 0.00316,-0.00487 0.00391,-0.00586 0.00124,-0.00206 0.00513,-0.00757 0.00586,-0.00977 0.00499,-0.023746 -0.017232,-0.056917 -0.068359,-0.095703 C 7.4164483,6.1044496 7.3066635,6.0761483 7.2421875,6.140625 7.2851715,5.9794343 7.1992957,5.8935585 6.984375,5.8828125 7.1671361,5.5888053 7.3174193,5.3212033 7.4355469,5.0800781 v 0.1269531 c 0.2471586,-0.075222 0.4476983,-0.082054 0.6035156,-0.017578 0.155818,0.064476 0.3631891,0.1074143 0.6210937,0.1289063 L 8.5625,5.2382812 C 8.3260873,5.1630593 8.1421378,5.0986519 8.0078125,5.0449219 7.8769893,4.9925927 7.6929279,4.9914151 7.4550781,5.0410156 7.4891401,4.9701935 7.518526,4.9020854 7.546875,4.8359375 Z m 0.2070312,0.40625 C 7.6115213,5.239501 7.5102752,5.2929303 7.4511719,5.4003906 L 7.3066406,5.4960938 V 5.578125 L 7.4355469,5.59375 C 7.6289755,5.7227027 7.9246623,5.7012335 8.3222656,5.5292969 H 8.6757812 V 5.4160156 H 8.3046875 C 8.0790208,5.3031823 7.8962912,5.244874 7.7539062,5.2421875 Z m -0.078125,0.109375 C 7.6327972,5.4267845 7.6445084,5.4960709 7.7089844,5.5605469 7.6230157,5.5390549 7.55373,5.5244179 7.5,5.5136719 7.521492,5.4491959 7.5790666,5.3945465 7.6757812,5.3515625 Z m 0.2421876,0 0.2753906,0.1132813 c -0.096714,0.042984 -0.194301,0.069332 -0.2910156,0.080078 0.075223,-0.05373 0.080102,-0.1181374 0.015625,-0.1933593 z M 8.0957031,7.9785156 C 8.3858458,8.1826903 8.633716,8.2851562 8.8378906,8.2851562 V 9.0917969 C 8.655208,9.0810509 8.4122168,9.0215225 8.1113281,8.9140625 7.8104395,8.8066018 7.4884046,8.5489737 7.1445312,8.140625 Z M 14.125,7.9941406 c 0.0016,-8.99e-5 0.0023,7.21e-5 0.0039,0 C 14.04793,8.0621036 13.963497,8.133392 13.876947,8.2050781 13.915663,8.1010355 13.999335,8.0295849 14.125,7.9941406 Z M 7.2578125,8.8339844 c 0.5587933,0.3116346 0.9379174,0.488266 1.1367187,0.53125 0.198802,0.042984 0.3466454,0.069332 0.4433594,0.080078 v 0.484375 H 10.369141 C 10.229443,10.595941 10.105508,11.47617 9.9980469,12.572266 L 8.2734375,13.087891 C 8.0692628,11.916573 7.8262723,10.86947 7.546875,9.9453125 7.396431,9.6766612 7.3007965,9.306809 7.2578125,8.8339844 Z M 2.9726562,9.1191406 c 0.057362,0.061134 0.1152571,0.1221685 0.1738282,0.1816406 0.027849,0.00232 0.05635,0.00373 0.083984,0.00586 -0.026335,0.04504 -0.054835,0.09145 -0.083984,0.1386719 L 3.0175781,9.4140625 C 2.9995993,9.3106844 2.9846426,9.2115913 2.9726562,9.1191406 Z m 11.5039058,0.042969 c -0.01205,0.094239 -0.0287,0.19318 -0.04687,0.2988281 l -0.111329,0.033203 c -0.03915,-0.06294 -0.07712,-0.1245459 -0.111328,-0.1835937 0.03652,-0.00328 0.07449,-0.00608 0.111328,-0.00977 0.05343,-0.045486 0.106182,-0.09173 0.158203,-0.1386718 z M 4.6464844,11.976562 c 1.0316186,0.171937 2.0738424,0.7516 3.1269531,1.740235 -0.816698,0.623269 -1.6061726,1.355169 -2.3691406,2.193359 L 4.9199219,13.023438 C 4.8661919,12.593596 4.7754364,12.245213 4.6464844,11.976562 Z m -0.3710938,0.01563 c 0.16119,0.279396 0.2587777,0.618021 0.2910156,1.015624 0.042985,0.698492 -0.025815,1.44015 -0.203125,2.22461 -0.1773093,0.78446 -0.265625,1.569056 -0.265625,2.353516 0.1289527,0.440588 0.1143157,0.698214 -0.046875,0.773437 H 1.2929688 v -0.0957 c 0.3546193,-0.02149 0.6215187,-0.0737 0.7988281,-0.154297 0.1773093,-0.0806 0.6354771,-0.211849 1.3769531,-0.394531 0.1182067,-0.03224 0.1777344,-0.225459 0.1777344,-0.580078 -0.064476,-2.428603 -0.043007,-4.024142 0.064453,-4.78711 0.085968,-0.21492 0.178676,-0.329098 0.2753906,-0.339844 0.096714,-0.01075 0.1923479,-0.01563 0.2890625,-0.01562 z m 5.9160154,1.064453 c 0.451334,0.73073 0.193705,1.520204 -0.7734372,2.36914 -1.8160794,0.408349 -2.9988277,0.999723 -3.546875,1.773438 -0.2041747,-0.193428 -0.4139856,-0.386649 -0.6289063,-0.580078 0.4943173,-0.677 1.2525648,-1.437687 2.2734375,-2.28125 1.0208733,-0.843564 1.9128132,-1.270504 2.675781,-1.28125 z M 4.859375,14.85352 5.1308594,16.232426 C 5.0878754,16.307646 5.0117575,16.398403 4.9042969,16.505863 4.646609,16.892395 4.5019299,17.207017 4.46875,17.449223 4.46727,16.728496 4.533389,16.148927 4.6699219,15.708988 4.8059263,15.270752 4.8697642,14.984801 4.859375,14.85352 Z m 5.589844,0.541015 c 0.247158,0.02149 0.359382,0.181533 0.33789,0.482422 L 10.433594,18.375 H 9.4492188 v -0.0957 l 0.7910152,-0.113281 0.175782,-1.595704 c 0,-0.623269 -0.293735,-0.735493 -0.884766,-0.33789 C 8.091282,17.22106 6.9729404,17.903189 6.1777344,18.2793 5.651179,18.33303 5.2720556,18.25203 5.0410156,18.037112 4.8099763,17.822192 4.8075365,17.466977 5.0332056,16.972659 l 0.8222657,0.742188 c 0.752222,-0.838191 1.5177883,-1.346128 2.296875,-1.523438 0.7790873,-0.177309 1.2845849,-0.349061 1.515625,-0.515625 0.2310393,-0.166564 0.4911077,-0.259758 0.7812507,-0.28125 z"
     id="path1"
     sodipodi:nodetypes="csccccccccccccccccccccccscccscscscccscccccccccccccscccccccccccccccccccsccscccsccsccsscsssssccsccsssccccccccsccsccsssssssssssscccscsccssccssccscccscccccccccsccsccsccccccccscccccccccccscccccccscccccccccccccscccccscccccccsccccsccccccccccscccccsccccccccccsccsscc" />
</svg>
