<?xml version="1.0" encoding="UTF-8" standalone="no"?>
<svg
   width="20.561722"
   height="18.946108"
   version="1.1"
   id="svg1"
   sodipodi:docname="137FF.svg"
   inkscape:version="1.4.2 (f4327f4, 2025-05-13)"
   xmlns:inkscape="http://www.inkscape.org/namespaces/inkscape"
   xmlns:sodipodi="http://sodipodi.sourceforge.net/DTD/sodipodi-0.dtd"
   xmlns="http://www.w3.org/2000/svg"
   xmlns:svg="http://www.w3.org/2000/svg">
  <defs
     id="defs1" />
  <sodipodi:namedview
     id="namedview1"
     pagecolor="#ffffff"
     bordercolor="#666666"
     borderopacity="1.0"
     inkscape:showpageshadow="2"
     inkscape:pageopacity="0.0"
     inkscape:pagecheckerboard="0"
     inkscape:deskcolor="#d1d1d1"
     inkscape:zoom="128"
     inkscape:cx="10.605469"
     inkscape:cy="5.5039062"
     inkscape:window-width="1680"
     inkscape:window-height="998"
     inkscape:window-x="-8"
     inkscape:window-y="-8"
     inkscape:window-maximized="1"
     inkscape:current-layer="svg1" />
  <path
     style="fill:#000000;stroke:none"
     d="m 15.796875,0 c -1.303503,-0.0011682 -2.526034,0.58198583 -3.666016,1.75 l 0.0078,0.015625 C 12.099994,1.7104738 12.057949,1.6560601 12.011719,1.6054688 11.728725,1.2957781 11.335897,1.140625 10.833984,1.140625 10.310714,1.140625 9.9079933,1.2957781 9.625,1.6054688 9.594546,1.6387958 9.564286,1.6738018 9.537109,1.7089844 7.5139726,0.39152463 5.7204028,-0.16282659 4.1542969,0.04492187 2.5844855,0.25316187 1.7988281,1.4415403 1.7988281,3.609375 V 5.7871094 C 1.6551178,6.2776384 1.63338,6.5548716 1.734375,6.6191406 1.755941,6.631464 1.7776788,6.6443571 1.7988281,6.65625 V 16.904297 C 1.6105001,17.093592 1.351087,17.24457 1.0214844,17.359375 0.54626971,17.5249 0.2453355,17.740318 0.1171875,18.001953 c -0.128148,0.261636 -0.15483146,0.480048 -0.08007813,0.65625 0.07475267,0.176203 0.16716755,0.263672 0.27929688,0.263672 h 0.6171875 0.92968745 c -0.042716,-0.05339 -0.1326577,-0.08502 -0.2714843,-0.0957 0.21358,-0.07475 0.3400965,-0.123174 0.3828125,-0.144531 0.022025,-0.02203 0.040233,-0.03056 0.054687,-0.02734 h 0.00195 c 0.00501,0.002 0.01162,0.0064 0.015625,0.01172 0.002,0.0027 0.00486,0.0051 0.00586,0.0078 v 0.002 0.002 0.002 0.002 c -0.00144,0.01643 -0.018195,0.03745 -0.052734,0.05664 -0.048056,0.0267 -0.081638,0.05585 -0.097656,0.08789 -0.016019,0.03204 -0.011592,0.06367 0.00977,0.0957 H 3.1757812 6.15625 c 0.156741,-0.131992 0.1962387,-0.372037 0.1171875,-0.720703 0.063082,0.150495 0.1545271,0.273914 0.2753906,0.36914 0.1762034,0.138827 0.3387759,0.255453 0.4882813,0.351563 h 0.9296875 c 0.907714,-0.363085 2.1618241,-1.148744 3.7636721,-2.355469 l -0.128907,1.650391 c -0.480554,0 -0.720703,0.08499 -0.720703,0.255859 v 0.449219 h 1.521485 l 0.482422,-2.755859 c -0.01068,-0.672776 -0.299248,-0.939608 -0.865235,-0.800782 0.555308,-0.73685 0.586937,-1.578867 0.0957,-2.529296 0.09611,-1.014504 0.20779,-1.875265 0.335938,-2.580079 h 0.08008 V 9.5507812 c 0.07475,-0.1281479 0.453263,-0.1256748 1.136719,0.00781 0.683455,0.1334873 1.452322,0.1576976 2.30664,0.072266 0.790245,-0.672776 1.425695,-1.5049009 1.90625,-2.4980469 0.05087,-0.011488 0.10424,-0.025933 0.160157,-0.042969 v 9.4238277 c -0.04246,0.01291 -0.08398,0.0296 -0.126954,0.05273 -0.08543,-0.02136 -0.184745,-0.01693 -0.296874,0.0098 -0.11213,0.0267 -0.199598,0.130957 -0.263672,0.3125 l 0.03125,0.03125 c -0.05339,0.117469 -0.05834,0.226674 -0.01563,0.328125 0.04272,0.101451 0.08619,0.169134 0.128906,0.201172 0.04272,0.03204 0.0625,0.06614 0.0625,0.103515 0,0.03738 0.03853,0.134218 0.113281,0.289063 0.07475,0.154846 0.167168,0.27147 0.279297,0.351562 0.112129,0.08009 0.163022,0.157669 0.152344,0.232422 -0.01068,0.07475 -0.03984,0.138011 -0.08789,0.191407 -0.04806,0.05339 -0.22052,0.09687 -0.519531,0.128906 -0.03204,0.01068 -0.08293,0.03489 -0.152344,0.07227 -0.06941,0.03738 -0.09857,0.07642 -0.08789,0.119141 h 0.126954 1.265625 c 0.02136,-0.02136 0.02383,-0.04804 0.0078,-0.08008 -0.01602,-0.03204 -0.04517,-0.06119 -0.08789,-0.08789 -0.04272,-0.0267 -0.05951,-0.05091 -0.04883,-0.07227 6.68e-4,-0.0013 0.0032,-0.0027 0.0039,-0.0039 0.0017,-0.002 0.0058,-0.0065 0.0078,-0.0078 0.01193,-0.0055 0.03071,-0.003 0.05273,0.01172 0.04272,0.03204 0.171186,0.0854 0.384765,0.160156 -0.138827,0.01068 -0.228768,0.03736 -0.271484,0.08008 h 1.185547 c 0.128146,0 0.247245,0.0025 0.359375,0.0078 0.11213,0.0053 0.206497,-0.08213 0.28125,-0.263671 0.07475,-0.181543 0.04807,-0.399954 -0.08008,-0.65625 -0.128147,-0.256296 -0.428562,-0.469761 -0.898437,-0.640625 -0.410106,-0.14913 -0.713513,-0.352539 -0.912109,-0.607422 V 6.8515625 c 0.172264,-0.082419 0.359047,-0.1803437 0.560546,-0.2949219 0.128148,-0.074753 -0.0053,-0.3850588 -0.40039,-0.9296875 0.09611,-0.1388266 0.08427,-0.2771889 -0.0332,-0.4160156 -0.04385,0.020881 -0.08537,0.040893 -0.126953,0.0625 V 3.7695312 c 0,-2.2959819 -0.758974,-3.54019983 -2.275391,-3.73242183 C 16.169823,0.01308162 15.98309,1.6688542e-4 15.796875,0 Z m -0.224609,0.50585938 c 0.16227,-0.002336 0.32733,0.007321 0.492187,0.0273437 1.318855,0.16018467 1.976563,1.24924952 1.976563,3.26757812 V 5.671875 c -0.252027,0.2242572 -0.417071,0.4762408 -0.496094,0.7558594 l -0.01563,-0.015625 C 17.18757,6.9674167 16.845634,7.3968205 16.503906,7.7011719 16.162178,8.0055225 15.730301,8.3766145 15.207031,8.8144531 14.363391,8.6115525 13.471001,8.4415617 12.53125,8.3027344 V 6.0917969 c 0,-1.0678987 -0.279197,-1.6885117 -0.839844,-1.859375 -0.01298,-0.00395 -0.02613,-0.00787 -0.03906,-0.011719 0.522484,-0.3389065 0.783203,-0.8152893 0.783203,-1.4296875 0,-0.2247595 -0.03185,-0.4298047 -0.09375,-0.6171875 l 0.01367,0.025391 C 13.364633,1.0872693 14.436372,0.52221167 15.572266,0.50585938 Z M 4.96875,0.56054688 C 6.2243652,0.58624329 7.6564847,1.1277091 9.2636719,2.1835938 l 0.054687,-0.087891 C 9.2389739,2.299633 9.1992182,2.5265253 9.1992183,2.7753903 c 0,0.5452933 0.1948727,0.9864938 0.5839843,1.3222656 C 9.4676322,4.2341237 9.2144476,4.5400527 9.0234375,5.0175781 8.9380055,5.3699848 8.7902712,5.6970824 8.5820312,5.9960938 8.3737906,6.2951057 8.4315831,6.4384137 8.7519531,6.4277344 c -0.074753,0.10679 -0.069807,0.1700482 0.015625,0.1914062 -0.074754,0.053395 -0.0797,0.1018153 -0.015625,0.1445313 0.064074,0.042716 0.085906,0.1447883 0.0625,0.3046875 -0.029207,0.1995286 0.2421533,0.2402344 0.4648438,0.2402344 H 9.6484375 C 9.7872648,7.4260624 9.8623675,7.6711572 9.8730469,8.0449219 9.2429862,8.0342425 8.6826396,8.1409757 8.1914062,8.3652344 7.2196183,8.4827037 6.3687488,8.6279648 5.6425781,8.7988281 5.1833815,8.2755575 4.7707684,7.8753096 4.4023438,7.5976562 4.0339184,7.3200029 3.650982,6.919755 3.2558594,6.3964844 h 0.017578 C 3.1239315,6.0013624 2.9420956,5.7127927 2.7285156,5.53125 L 2.375,5.3496094 V 3.625 C 2.375,1.7348193 3.0638169,0.71890479 4.4414062,0.58007812 4.6136049,0.56272479 4.7893764,0.55687596 4.96875,0.56054688 Z m 5.865234,0.99804692 c 0.373765,0 0.664807,0.1092056 0.873047,0.328125 0.20824,0.2189193 0.3125,0.5149072 0.3125,0.8886718 0,0.3737647 -0.116104,0.6791252 -0.345703,0.9140625 -0.229598,0.234938 -0.508795,0.3515625 -0.839844,0.3515625 -0.01152,0 -0.02376,2.511e-4 -0.03516,0 -0.07012,-0.0084 -0.138386,-0.014773 -0.207031,-0.019531 C 10.344943,3.9787654 10.131934,3.8682626 9.953125,3.6894531 9.718187,3.4545158 9.5996094,3.1392633 9.5996094,2.7441406 c 0,-0.3524066 0.1092056,-0.6385025 0.328125,-0.8574218 0.2189196,-0.2189194 0.5218066,-0.328125 0.9062496,-0.328125 z M 10.683594,4.3125 c 0.267809,0.00501 0.541942,0.06427 0.822265,0.1777344 0.448518,0.1815433 0.673828,0.7468363 0.673829,1.6972656 v 3.7167969 h -1.28125 v -3.1875 c 0.256295,-0.3524067 0.409495,-0.6192386 0.46289,-0.8007813 0.0534,-0.1815426 0.05092,-0.3485409 -0.0078,-0.4980468 -0.05875,-0.149506 -0.170426,-0.2369746 -0.33595,-0.2636719 -0.165525,-0.026697 -0.333042,0.024196 -0.503906,0.1523437 C 10.246697,5.1571346 9.9097076,5.028665 9.5039062,4.921875 9.5573016,4.6442217 9.7925044,4.4574395 10.208984,4.3613281 10.365165,4.3252866 10.522908,4.3094965 10.683594,4.3125 Z M 9.2324219,5.1777344 c 0.4164806,0.074753 0.8863811,0.2483976 1.3242191,0.4726562 0.0339,-0.036409 0.264276,-0.2725855 0.421882,-0.1445315 0.08543,0.069413 0.105215,0.1736733 0.0625,0.3125 -0.04272,0.1388273 -0.212707,0.4007136 -0.511719,0.7851562 v 1.6503906 c -0.192222,0 -0.289063,-0.075103 -0.289063,-0.2246093 C 10.229557,7.6128165 10.117879,7.2926176 9.9042999,7.068359 L 10.033213,6.8359369 C 9.8409811,6.9907828 9.5840419,7.0683594 9.2636719,7.0683594 9.0607712,7.079038 8.9733027,7.0399901 9,6.9492188 9.026698,6.8584478 9.01238,6.7808709 8.958984,6.7167969 c 0.2155819,0.012681 0.3400557,-8.489e-4 0.3730468,-0.037109 7.418e-4,-9.881e-4 0.00329,-0.00484 0.00391,-0.00586 4.888e-4,-0.00106 0.00354,-0.00477 0.00391,-0.00586 C 9.3447987,6.6443713 9.322293,6.61081 9.2714844,6.5722656 9.1166397,6.4547963 9.007434,6.4231672 8.9433594,6.4765625 8.986076,6.3163778 8.90108,6.2363281 8.6875,6.2363281 8.922438,5.8412055 9.1042745,5.487425 9.2324219,5.1777344 Z m 0.21875,0.171875 c -0.093441,0.00267 -0.1989373,0.020697 -0.3164063,0.052734 V 5.5625 C 9.3697036,5.4877473 9.568331,5.482801 9.7285156,5.546875 9.8887003,5.610949 10.092273,5.6524701 10.337891,5.6738281 L 10.255859,5.59375 C 10.020922,5.508318 9.8341398,5.4401141 9.6953125,5.3867188 9.6258992,5.3600214 9.544613,5.3469395 9.4511719,5.3496094 Z m -0.060547,0.25 c -0.1121294,0.00964 -0.1915606,0.062809 -0.2382812,0.15625 l -0.1445313,0.095703 v 0.080078 l 0.1269531,0.015625 C 9.3269876,6.0647343 9.6155567,6.0380508 10,5.8671875 h 0.369141 V 5.7714844 H 9.984375 C 9.732084,5.6453389 9.5347913,5.5872202 9.3906249,5.5996094 Z M 9.375,5.7070312 C 9.3322847,5.7817839 9.3391835,5.8519416 9.3925781,5.9160156 9.3178255,5.8946576 9.2526134,5.8729205 9.1992188,5.8515625 9.2098968,5.7981678 9.26821,5.7497473 9.375,5.7070312 Z m 0.2246094,0 0.2890625,0.1113282 c -0.096111,0.042716 -0.1929512,0.069399 -0.2890625,0.080078 0.074753,-0.053395 0.074753,-0.1166536 0,-0.1914062 z M 2.375,6.9511719 C 2.656925,7.0767567 2.8822358,7.1420299 3.0488281,7.1484375 3.5614195,8.0881888 4.1701867,8.9104217 4.875,9.6152344 c 0.8970347,0.085431 1.6807396,0.066167 2.3535156,-0.056641 0.672776,-0.122808 1.074977,-0.1010709 1.203125,0.064453 0.128148,0.165524 0.2180897,0.3814626 0.2714844,0.6484376 0.3417273,0.907715 0.62535,1.991833 0.8496094,3.251954 -1.1853674,-1.025183 -2.4295852,-1.580584 -3.7324219,-1.666016 -0.4164807,0 -0.6808394,0.213465 -0.7929687,0.640625 -0.1121294,0.427159 -0.1047105,2.035049 0.023437,4.822265 0.010679,0.234938 -0.1593127,0.39751 -0.5117187,0.488282 -0.3524067,0.09077 -0.8178659,0.243451 -1.3945313,0.457031 h -0.289062 c -0.1894354,0 -0.2419203,0.130178 -0.1582032,0.390625 -0.079998,-0.019 -0.1317735,-0.03998 -0.1542968,-0.0625 -0.048055,-0.04806 -0.077211,-0.111314 -0.087891,-0.191406 -0.010679,-0.08009 0.040214,-0.160142 0.1523438,-0.240235 0.1121293,-0.08009 0.2064973,-0.198671 0.28125,-0.353515 C 2.9634252,17.653748 3,17.556908 3,17.519531 c 0,-0.03738 0.02421,-0.07148 0.072266,-0.103515 0.048055,-0.03204 0.09153,-0.09777 0.1289063,-0.199219 0.037377,-0.101451 0.028004,-0.20571 -0.025391,-0.3125 l 0.033203,-0.04883 c -0.064074,-0.181543 -0.1515426,-0.285802 -0.2636719,-0.3125 -0.1121293,-0.0267 -0.211443,-0.02422 -0.296875,0.0078 C 2.5601977,16.499308 2.4683029,16.472122 2.375,16.46875 Z M 9.7929688,8.3183594 C 10.081301,8.5105807 10.326396,8.6054688 10.529297,8.6054688 V 9.4238281 C 10.347754,9.4131495 10.107606,9.3528837 9.8085938,9.2460938 9.5095824,9.1393037 9.1844379,8.884317 8.8320312,8.4785156 Z M 8.9589844,9.1660156 c 0.544628,0.3096907 0.9181931,0.4865802 1.1210936,0.5292969 0.202901,0.042715 0.353108,0.069399 0.449219,0.080078 v 0.4804685 h 1.521484 c -0.138826,0.651419 -0.26235,1.522072 -0.36914,2.611329 L 9.953125,13.378906 C 9.7502237,12.214898 9.5100752,11.179199 9.2324219,10.271484 9.0935952,10.00451 9.0017004,9.635891 8.9589844,9.1660156 Z M 5.9804688,12.291016 c 0.170864,0.288332 0.2726508,0.630268 0.3046874,1.02539 0.042716,0.694134 -0.024968,1.426945 -0.2011718,2.201172 -0.1762034,0.774227 -0.2636719,1.552466 -0.2636719,2.332031 0.128148,0.448518 0.1113572,0.708451 -0.048828,0.783203 H 3.0332031 v -0.111328 c 0.341728,-0.02136 0.6036136,-0.06978 0.7851563,-0.144531 0.1815426,-0.07475 0.6401031,-0.203223 1.3769531,-0.384765 0.1174693,-0.03204 0.1757812,-0.223766 0.1757813,-0.576172 -0.064075,-2.413451 -0.047283,-3.999605 0.048828,-4.757813 0.096111,-0.213579 0.190998,-0.327731 0.2871093,-0.34375 0.096111,-0.01602 0.1880056,-0.02344 0.2734376,-0.02344 z m 0.3847656,0 c 1.0251826,0.170863 2.0608805,0.746048 3.1074218,1.728515 -0.8116033,0.608702 -1.5972607,1.336048 -2.3554687,2.179688 L 6.6210938,13.332031 C 6.5783777,12.904872 6.4933824,12.55799 6.3652344,12.291016 Z M 11.875,13.363281 c 0.448517,0.726172 0.191578,1.511829 -0.769531,2.355469 -1.8154283,0.405801 -2.9894891,0.992831 -3.5234378,1.761719 -0.2029006,-0.202902 -0.41142,-0.394629 -0.625,-0.576172 0.4912334,-0.672776 1.2433092,-1.431751 2.2578126,-2.275391 1.0145042,-0.84364 1.9019482,-1.265625 2.6601562,-1.265625 z m -5.3027344,1.746094 0.2734375,1.410156 c -0.053395,0.06407 -0.1284987,0.154016 -0.2246093,0.271485 -0.2905,0.423299 -0.4386557,0.757327 -0.4453126,1 -9.509e-4,0.03467 0.00102,0.06668 0.00586,0.09766 -0.00283,-0.008 -0.00685,-0.01533 -0.00977,-0.02344 0,-0.02753 0.00373,-0.04708 0.00391,-0.07422 0.00473,-0.741299 0.071155,-1.344841 0.2050782,-1.792969 0.1388266,-0.464536 0.2020849,-0.760524 0.1914062,-0.888672 z m 5.5585934,0.560547 c 0.245617,0.03204 0.357296,0.197082 0.335938,0.496094 l -0.351563,2.484375 h -0.976562 v -0.113282 l 0.783203,-0.0957 0.177734,-1.601562 c 0,-0.608703 -0.293514,-0.715435 -0.880859,-0.320313 -1.4416627,0.982467 -2.5593647,1.654493 -3.3496094,2.017578 -0.512592,0.06407 -0.8836832,-0.0135 -1.1132812,-0.232421 -0.229598,-0.218919 -0.2320712,-0.568273 -0.00781,-1.048829 l 0.8183593,0.736329 C 8.3139381,17.15923 9.0709596,16.654723 9.8398463,16.478519 10.608734,16.302315 11.110769,16.132324 11.345706,15.9668 c 0.234938,-0.165524 0.496824,-0.264838 0.785156,-0.296875 z m -9.849609,1.02539 c 0.050245,-0.0014 0.1189295,0.0204 0.2070312,0.06445 0.1601847,-0.02136 0.2718636,-0.01394 0.3359376,0.02344 0.064074,0.03738 0.06902,0.09322 0.015625,0.167969 -0.053395,0.07475 -0.1215993,0.149857 -0.2070313,0.224609 -0.010679,0.03204 0.00416,0.05377 0.046875,0.06445 0.096111,-0.07475 0.181106,-0.171593 0.2558594,-0.289062 0.032037,0.04272 0.038936,0.105455 0.017578,0.185547 -0.021358,0.08009 -0.057413,0.140877 -0.1054688,0.183593 -0.048055,0.04272 -0.077211,0.08866 -0.087891,0.136719 -0.010679,0.04806 -0.049727,0.137997 -0.1191406,0.271485 -0.069413,0.133487 -0.1420435,0.237747 -0.2167969,0.3125 -0.074753,0.07475 -0.1305921,0.128119 -0.1679687,0.160156 -0.037376,0.03204 -0.056641,0.0854 -0.056641,0.160156 0,0.06407 0.019265,0.144125 0.056641,0.240234 0.037377,0.09611 0.064059,0.154423 0.080078,0.175782 l 0.00195,0.002 v 0.002 0.002 l 0.00195,0.002 v 0.002 0.002 l -0.00195,0.002 v 0.002 l -0.00195,0.002 h -0.00195 c -0.013766,0.0071 -0.048168,0.01115 -0.1015625,0.0078 -0.037376,-0.0023 -0.062393,-0.0063 -0.074219,-0.01172 l -0.00195,-0.002 -0.00195,-0.002 h -0.00195 l -0.00195,-0.002 v -0.002 -0.002 -0.002 -0.002 h 0.00195 l 0.00195,-0.002 c 0.00432,-0.0034 0.012474,-0.0097 0.021484,-0.01367 0.00451,-0.002 0.00862,-0.0047 0.011719,-0.0078 0.024528,-0.03212 -0.00931,-0.114089 -0.1074219,-0.240234 -0.1121293,-0.144167 -0.1313933,-0.345267 -0.056641,-0.601563 -0.10679,0.07475 -0.1601563,0.203223 -0.1601563,0.384766 10e-8,0.149506 -0.084996,0.243874 -0.2558593,0.28125 -0.170864,0.03738 -0.294388,0.04974 -0.3691407,0.03906 0.042716,-0.128148 0.040243,-0.232408 -0.00781,-0.3125 -0.048056,-0.08009 -0.1281051,-0.133459 -0.24023442,-0.160157 -0.11212934,-0.0267 -0.22133501,-0.0608 -0.328125,-0.103515 0.085432,0.08543 0.17290054,0.155588 0.26367187,0.208984 0.0907714,0.05339 0.14413755,0.104287 0.16015625,0.152344 0.016019,0.04805 0.011072,0.101421 -0.015625,0.160156 -0.026698,0.05873 -0.10427454,0.08542 -0.23242188,0.08008 -0.128148,-0.0053 -0.25661762,-0.01471 -0.38476562,-0.02539 -0.0440509,-0.01469 -0.0735542,-0.0178 -0.0898438,-0.0098 l -0.001953,0.002 H 0.359375 l -0.001953,0.002 -0.001953,0.002 -0.001953,0.002 v 0.002 l -0.001953,0.002 v 0.002 l -0.001953,0.002 v 0.002 c -3.3371e-4,0.0017 6.256e-5,0.0042 0,0.0059 v 0.002 c 1.0429e-4,8.14e-4 -1.7208e-4,0.0051 0,0.0059 0.006236,0.02088 0.0358305,0.04124 0.0878906,0.05859 0.0513925,0.01402 0.0822159,0.02718 0.09375,0.03711 l 0.001953,0.002 h 0.001953 v 0.002 h 0.001953 v 0.002 0.002 0.002 l -0.001953,0.002 c -5.9965e-4,5.63e-4 -0.003103,0.0014 -0.003906,0.002 -0.009057,0.0047 -0.0272049,0.01067 -0.0527344,0.01367 -0.0907713,0.01068 -0.14856387,0.0033 -0.16992187,-0.02344 -0.021358,-0.0267 -0.0386688,-0.06275 -0.0546875,-0.105469 -0.0160187,-0.04272 -0.0160187,-0.07434 0,-0.0957 l 0.001953,-0.002 0.001953,-0.002 c 0.027219,-0.01663 0.117572,-0.0214 0.26757812,-0.01172 0.16552467,0.01068 0.26978401,-0.0017 0.3125,-0.03906 0.010679,-0.0093 0.0171952,-0.01967 0.0195313,-0.02734 v -0.002 c 3.128e-5,-9.07e-4 9.907e-5,-0.005 0,-0.0059 v -0.002 c -3.5979e-4,-8.29e-4 -0.001463,-0.0051 -0.001953,-0.0059 l -0.001953,-0.002 -0.001953,-0.002 -0.001953,-0.002 c -0.0141621,-0.0098 -0.0442719,-0.01877 -0.0839844,-0.02344 -0.090772,-0.01068 -0.17576738,-0.0082 -0.25585938,0.0078 -0.0800927,0.01602 -0.17446,0.0017 -0.28125,-0.04102 0.064074,-0.160184 0.16338767,-0.305965 0.296875,-0.439453 0.13348734,-0.133487 0.26195696,-0.227855 0.38476563,-0.28125 0.1228081,-0.05339 0.266116,-0.116653 0.4316407,-0.191406 0.165524,-0.07475 0.4298827,-0.273381 0.7929687,-0.59375 0.010679,-0.07475 0.039835,-0.12812 0.087891,-0.160156 0.015017,-0.01001 0.035755,-0.015 0.058594,-0.01563 z m 0.029297,0.02539 c -0.019189,0.0019 -0.03914,0.01009 -0.0625,0.02344 -0.074753,0.03204 -0.091544,0.08046 -0.048828,0.144531 0.032037,0.06407 0.085403,0.07891 0.1601562,0.04687 0.074753,-0.03204 0.091544,-0.08046 0.048828,-0.144531 -0.022026,-0.05139 -0.055441,-0.07444 -0.097656,-0.07031 z m 15.957031,0.0078 c 0.02928,-0.0015 0.05229,0.0036 0.07031,0.01563 0.04805,0.03204 0.08216,0.0854 0.103515,0.160156 0.352407,0.32037 0.61182,0.514571 0.777344,0.583984 0.165525,0.06941 0.313258,0.132673 0.441406,0.191407 0.128148,0.05873 0.25909,0.153101 0.392578,0.28125 0.133488,0.128147 0.225903,0.278354 0.279297,0.449218 -0.10679,0.04272 -0.199205,0.05508 -0.279297,0.03906 -0.08009,-0.01602 -0.16704,-0.01849 -0.257812,-0.0078 -0.03971,0.0047 -0.06499,0.0117 -0.07813,0.02148 -0.0016,0.0014 -0.0067,0.0063 -0.0078,0.0078 v 0.002 l -0.002,0.002 c -1.25e-4,8.56e-4 -10e-6,0.005 0,0.0059 v 0.002 c 2.82e-4,9.33e-4 0.0015,0.0049 0.002,0.0059 0.0039,0.0069 0.01293,0.01722 0.02344,0.02539 0.04806,0.03738 0.154787,0.04974 0.320312,0.03906 0.144834,-0.0093 0.22958,-0.0054 0.25586,0.0098 7.87e-4,5.74e-4 0.0052,0.0033 0.0059,0.0039 v 0.002 h 0.002 v 0.002 c 0.01068,0.02136 0.0082,0.05299 -0.0078,0.0957 -0.01602,0.04272 -0.04518,0.07929 -0.08789,0.111328 -0.04272,0.03204 -0.1104,0.04636 -0.201172,0.04102 -0.02269,-0.0013 -0.03791,-0.0048 -0.04492,-0.0098 v -0.002 h -0.002 v -0.002 l -0.002,-0.002 v -0.002 -0.002 -0.002 l 0.002,-0.002 c 0.0107,-0.01746 0.06224,-0.04599 0.152344,-0.08203 0.04806,-0.008 0.07497,-0.02009 0.08398,-0.03711 l 0.002,-0.002 v -0.002 l 0.002,-0.002 v -0.002 c 1.09e-4,-0.0024 5e-4,-0.0073 0,-0.0098 -3.34e-4,-0.0017 -0.0014,-0.0043 -0.002,-0.0059 v -0.002 l -0.002,-0.002 -0.002,-0.002 v -0.002 l -0.002,-0.002 c -0.01502,-0.01301 -0.0496,-0.01778 -0.09766,-0.0098 l -0.382813,0.0332 c -0.128148,0.01068 -0.203252,-0.01353 -0.224609,-0.07227 -0.02136,-0.05873 -0.0263,-0.1121 -0.01563,-0.160156 0.01068,-0.04806 0.05962,-0.09895 0.150391,-0.152344 0.09077,-0.05339 0.180193,-0.123553 0.265625,-0.208984 -0.10679,0.04272 -0.215996,0.07877 -0.328125,0.105468 -0.11213,0.0267 -0.19218,0.08006 -0.240235,0.160157 -0.04806,0.08009 -0.05053,0.177453 -0.0078,0.294921 -0.06407,0.02136 -0.182652,0.01394 -0.353516,-0.02344 -0.170864,-0.03738 -0.260806,-0.129791 -0.271484,-0.279297 0,-0.192221 -0.05337,-0.320691 -0.160157,-0.384766 0.08543,0.245617 0.06864,0.442291 -0.04883,0.591797 -0.106456,0.13549 -0.149622,0.219757 -0.128906,0.25 0.0017,0.0018 0.0074,0.0045 0.0098,0.0059 0.007,0.004 0.01042,0.0085 0.01367,0.01172 l 0.002,0.002 0.002,0.002 v 0.002 h 0.002 v 0.002 l -0.002,0.002 v 0.002 h -0.002 v 0.002 h -0.002 c -0.0099,0.0041 -0.03213,0.0078 -0.0625,0.0078 -0.06941,0 -0.112887,-0.0025 -0.128907,-0.0078 l -0.002,-0.002 h -0.002 l -0.002,-0.002 -0.002,-0.002 v -0.002 l 0.002,-0.002 0.002,-0.002 c 0.0053,-0.0033 0.01728,-0.0097 0.0293,-0.01367 0.03204,-0.01068 0.06367,-0.06652 0.0957,-0.167969 0.03204,-0.101451 0.04687,-0.183973 0.04687,-0.248047 0,-0.06407 -0.01484,-0.112495 -0.04687,-0.144531 -0.03204,-0.03204 -0.08788,-0.0854 -0.167969,-0.160156 -0.08009,-0.07475 -0.152724,-0.179012 -0.216796,-0.3125 -0.06407,-0.133488 -0.105076,-0.225903 -0.121094,-0.279297 -0.01602,-0.0534 -0.04518,-0.09934 -0.08789,-0.136719 -0.04272,-0.03738 -0.07682,-0.09816 -0.103515,-0.183594 -0.0267,-0.08543 -0.02422,-0.148691 0.0078,-0.191406 0.07475,0.128149 0.159748,0.223037 0.255859,0.287109 0.02136,0 0.03691,-0.0037 0.04492,-0.01172 l 0.002,-0.002 v -0.002 l 0.002,-0.002 0.002,-0.002 c 0.0019,-0.0069 0.0014,-0.01733 -0.002,-0.02734 -0.08543,-0.07475 -0.153117,-0.152329 -0.201172,-0.232422 -0.04805,-0.08009 -0.04116,-0.135931 0.01758,-0.167968 0.05873,-0.03204 0.16794,-0.03894 0.328125,-0.01758 0.08009,-0.04005 0.144553,-0.06 0.193359,-0.0625 z m -0.03125,0.0215 c -0.03079,0.0023 -0.058,0.02255 -0.08203,0.05859 -0.03204,0.07475 -0.0172,0.121219 0.04687,0.142578 0.07475,0.04272 0.135019,0.03282 0.177734,-0.03125 0.03204,-0.06407 0.0103,-0.112495 -0.06445,-0.144531 -0.02803,-0.01869 -0.05418,-0.02714 -0.07813,-0.02539 z"
     id="path1"
     sodipodi:nodetypes="sccssscssccccssssccccccccccccssccccsccccsccccccccscccccccccsssssccsccccsccccccsssssccccccscsssscccsccsccsccssccsccsccsssccccsccccssssssssccsssscsccccccsccscccscccccccsccccscccsccsccsscccccccccccccccccccccsscccscscsccsssscsccsccccccscccscccccccscsccccscccscscccccccccsccccscccsccccccccccsccssccccsscccscsssssscccccccccccccccccccccccccscsccssccsscccccccccccccccccccccccccccccscccsccccccccccccscscscccccscccccssscsccccccccccccccccscccccccccccccccccccccccccccscsccsccscccccccccccccsccccccccccsssssccccscccccsccccccccccc" />
</svg>
