<?xml version="1.0" encoding="UTF-8" standalone="no"?>
<svg
   width="800"
   height="1200"
   version="1.1"
   id="svg1"
   sodipodi:docname="1381D.svg"
   inkscape:version="1.4.2 (f4327f4, 2025-05-13)"
   xmlns:inkscape="http://www.inkscape.org/namespaces/inkscape"
   xmlns:sodipodi="http://sodipodi.sourceforge.net/DTD/sodipodi-0.dtd"
   xmlns="http://www.w3.org/2000/svg"
   xmlns:svg="http://www.w3.org/2000/svg">
  <defs
     id="defs1" />
  <sodipodi:namedview
     id="namedview1"
     pagecolor="#ffffff"
     bordercolor="#666666"
     borderopacity="1.0"
     inkscape:showpageshadow="2"
     inkscape:pageopacity="0.0"
     inkscape:pagecheckerboard="0"
     inkscape:deskcolor="#d1d1d1"
     inkscape:zoom="0.31458333"
     inkscape:cx="452.98013"
     inkscape:cy="904.37086"
     inkscape:window-width="1680"
     inkscape:window-height="998"
     inkscape:window-x="-8"
     inkscape:window-y="-8"
     inkscape:window-maximized="1"
     inkscape:current-layer="svg1" />
  <path
     id="path1"
     style="fill:#000000;stroke:none;stroke-width:68.267"
     d="m 515.19624,0.03515625 c -30.63067,0 -48.19859,6.30727615 -52.70312,18.91992175 -15.31534,1.801794 -39.6393,15.315725 -72.97266,40.541016 -27.92798,14.414438 -41.89258,25.675084 -41.89258,33.783203 0,9.008993 2.028,13.738883 6.08203,14.189453 4.05406,0.45042 11.93674,11.93642 23.64844,34.45898 0,19.81987 6.30533,31.08047 18.91797,33.78321 5.40543,-0.90094 13.51532,-4.95489 24.32617,-12.16211 1.80175,9.00906 7.65645,18.46899 17.56641,28.3789 -53.15323,21.62166 -82.43245,56.30689 -87.83789,104.05469 -18.91893,31.53162 -38.73823,66.2168 -59.45899,104.05469 -33.33341,0 -86.48783,4.50271 -159.46093,13.51172 -12.60717,-4.32245 -24.1799,-8.34985 -36.201179,-11.31055 l 0.101562,-5.22461 C 91.054086,338.5831 74.033345,243.35072 44.231395,111.23438 6.8900771,196.35996 -6.8127379,297.75635 3.1415511,415.46289 l 33.5097659,-0.4043 c 0.257539,0.002 0.518542,-5e-5 0.783203,-0.008 l 2.044922,-0.0254 c -8.936156,21.57823 -3.525741,42.70787 16.255859,63.38867 0.590803,0 1.180416,-3.3e-4 1.767578,-0.002 -1.056353,2.6025 -2.323167,5.60956 -3.802734,9.01172 -9.403277,22.98086 -7.672228,36.02107 5.294922,39.1582 14.129526,2.86785 24.652934,-8.9974 31.375,-35.64648 1.956387,-6.48799 3.077577,-11.72934 3.445312,-15.73047 13.679411,-3.24079 26.504051,-9.69494 38.947271,-22.4668 45.04511,7.20722 108.10819,9.00986 189.18945,5.40625 44.14417,-48.64875 72.97279,-93.69328 86.48633,-135.13476 17.11713,31.53157 25.67578,64.41412 25.67578,98.64843 0,17.11713 -0.67405,38.06306 -2.02539,62.83789 -1.35137,24.77477 -7.884,67.34263 -19.5957,127.70313 l -2.56446,14.14844 -57.31054,-5.08594 -2.21094,24.90234 55.04687,4.88282 -29.44726,162.5039 h 6.75781 c -6.3063,16.21621 -9.23573,28.60354 -8.78515,37.16211 0.45041,8.55856 -1.12491,15.99037 -4.72852,22.29688 -3.60363,6.3063 -7.88293,28.82957 -12.83789,67.56835 -4.95495,38.7388 -12.83958,75.90073 -23.65039,111.48643 -10.81085,35.5856 -20.94481,58.3321 -30.4043,68.2421 -9.45948,9.9099 -32.20804,18.9192 -68.24414,27.0274 -36.0361,8.1084 -61.712,12.1621 -77.02734,12.1621 v 16.2168 c 0.90094,12.6125 17.11882,19.8195 48.65039,21.6211 18.91892,1.8019 37.38622,-0.9001 55.40429,-8.1074 18.01803,-7.2071 42.34199,-5.1793 72.97266,6.082 30.63071,11.2613 44.59534,2.2519 41.89258,-27.0274 -2.70269,-29.2793 1.80192,-57.4338 13.51367,-84.4609 41.44148,-72.0721 61.48612,-123.1967 60.13477,-153.37699 -1.35132,-30.18023 10.58529,-69.1448 35.81054,-116.89258 h 28.37891 c 0,1.80177 3.60329,6.7571 10.81055,14.86524 0,17.11713 5.85661,31.98108 17.56836,44.59375 26.12614,124.32451 37.38681,197.07268 33.7832,218.24418 -3.60354,21.1711 -20.72084,38.2885 -51.35156,51.3516 -30.63067,13.0631 -59.45925,20.4953 -86.48633,22.2968 v 20.2696 c 1.80179,4.5046 7.4331,7.6593 16.89258,9.4609 9.45949,1.8015 30.85609,0.9007 64.18945,-2.7031 22.5226,-10.8108 41.89118,-12.839 58.10742,-6.082 16.21623,6.7571 33.55886,9.461 52.02734,8.1093 18.4685,-1.3513 27.70313,-9.2339 27.70313,-23.6484 0.90092,-9.91 -2.02809,-26.3532 -8.78516,-49.3262 -6.75672,-22.9729 -7.88141,-43.4682 -3.37695,-61.4863 6.3063,-91.89205 2.25233,-150.22522 -12.16211,-175.00006 -14.41439,-24.77478 -21.62305,-48.42273 -21.62305,-70.94531 h 5.40625 c 36.03617,86.48657 63.51274,196.39707 82.43165,329.73047 l 21.62304,-2.7031 C 699.88178,1005.4428 670.15183,891.02784 631.41304,797.33398 l -8.10938,-22.97265 -3.1582,-104.26563 16.14258,1.43164 c -0.22506,1.65388 -0.42783,3.33514 -0.60742,5.04688 -2.44597,23.3128 -1.53305,34.0349 5.42187,32.5 6.95486,-1.53494 10.40541,-6.38121 10.35547,-14.53906 20.56356,11.21598 42.1836,8.04947 64.85938,-9.5 0.22448,-2.13959 0.4367,-4.25619 0.6289,-6.35157 l 18.99414,1.68555 2.20899,-24.90039 -20.42383,-1.8125 C 716.78358,637.23386 712.07247,621.68116 698.81929,605.75 712.70779,536.6215 720.15097,477.51374 724.65523,418.95508 722.85346,381.11714 712.04345,337.42265 692.22359,287.87305 689.5209,161.74669 668.80027,82.016953 630.06148,48.683594 591.32264,15.350186 553.03413,-0.8657428 515.19624,0.03515625 Z M 506.81343,18.595703 c 6.26409,-0.211148 14.46447,0.808303 24.59961,3.060547 -11.71175,1.801839 -19.36905,4.505786 -22.97266,8.109375 -6.3063,-1.801793 -9.91158,-4.954455 -10.8125,-9.458984 2.36488,-1.013509 5.4271,-1.584249 9.18555,-1.710938 z m 42.16602,8.466797 c 78.37851,16.21623 118.46971,97.74862 120.27148,244.5957 h -50 l 14.86523,-50 c 0.9009,-15.31538 -22.97429,-22.97461 -71.62304,-22.97461 v 87.83985 h -28.37696 v -82.4336 c 0,-27.02709 -3.15463,-45.04567 -9.46093,-54.05468 26.04969,-28.0553 41.11087,-55.714682 41.89257,-94.593754 0,-12.6126 -5.85666,-22.072586 -17.56835,-28.378906 z m -72.97266,1.351562 c 4.50453,0 11.71118,4.053993 21.62109,12.16211 -16.21623,17.11713 -24.32422,33.333057 -24.32422,48.648437 1.80179,14.414441 6.30646,21.621091 13.51368,21.621091 7.20721,0 13.06383,-4.50266 17.56835,-13.511716 12.6126,-34.234258 20.94597,-50.226826 25,-47.974609 4.05411,2.252264 1.12671,8.334183 -8.7832,18.244141 l 5.4043,6.755859 c 10.81083,-7.207218 16.2168,-14.413874 16.2168,-21.621094 0,-9.009011 -4.50462,-13.513672 -13.51368,-13.513672 -11.7117,0 -20.72103,10.361274 -27.02734,31.082032 -6.30632,20.72074 -11.03627,29.279391 -14.18945,25.675781 -3.15332,-3.603589 -3.37848,-10.586883 -0.67578,-20.947266 2.70273,-10.360383 9.68598,-20.719694 20.94726,-31.080078 11.26127,-10.360403 20.49395,-13.963711 27.70117,-10.810547 7.20722,3.153162 10.8125,10.585174 10.8125,22.296875 0,26.73756 -24.27308,79.852264 -61.48828,95.945314 -16.6667,7.20722 -28.15268,16.21649 -34.45898,27.02734 -5.40538,-3.60363 -9.45935,-9.68365 -12.16211,-18.24218 -2.70274,-8.55858 -7.20737,-12.8379 -13.51367,-12.8379 -6.30632,0 -11.71227,1.80069 -16.2168,5.4043 -4.50448,3.60354 -8.5585,4.95561 -12.16211,4.05469 -3.60361,-0.9009 -5.4043,-4.50425 -5.4043,-10.81055 0,-0.9009 10.35932,-3.60484 31.08008,-8.10937 l -1.34961,-6.75586 -35.13672,2.70312 c 0,-5.40543 -4.05399,-13.0647 -12.16211,-22.97461 0,-1.80183 4.50467,-5.85581 13.51368,-12.162106 l -12.16211,-8.107422 c -2.70269,-3.60363 12.61385,-15.314898 45.94726,-35.134766 l 2.70117,12.16211 c -15.31529,11.7117 -22.52201,20.270332 -21.62109,25.675781 0.90092,7.207223 3.37761,12.838533 7.43164,16.892583 4.05406,4.05405 11.03736,7.88271 20.94727,11.48632 -18.91892,-22.522594 -13.51494,-40.090522 16.21484,-52.703122 10.81083,-0.900898 16.2168,-5.405512 16.2168,-13.513672 0,-8.108119 -6.30532,-13.063443 -18.91797,-14.865234 16.21628,-3.603587 27.02626,-7.657579 32.43164,-12.16211 z m -41.89258,18.917969 18.91992,6.757813 -18.91992,9.458984 c -4.50446,-5.405429 -4.50446,-10.811416 0,-16.216797 z m 75.67578,110.812499 c 9.00885,5.40543 12.16363,18.91745 9.46094,40.53906 h -22.97266 c -44.14422,0 -39.64156,-13.51202 13.51172,-40.53906 z m -469.158204,8.99609 c 13.1917,83.89866 21.812984,159.9993 25.890625,228.24219 C 55.881215,391.70897 42.220318,391.134 25.672801,393.7207 18.549866,333.52471 23.589675,258.00127 40.631786,167.14062 Z m 406.996094,43.70704 h 27.02735 v 75.67578 h -27.02735 z m 47.29883,1.34961 h 24.32422 v 83.78515 c -5.39479,5.39493 -19.59601,5.50194 -32.43359,0 v -78.3789 z m -58.10937,1.35156 v 41.89258 c -5.40545,-13.51354 -8.55807,-26.57681 -9.45899,-39.18946 z m 147.1289,1.18359 c 10.47299,0.33785 20.43895,2.19583 29.89844,5.57422 -6.30632,23.42345 -19.82026,42.34142 -40.54102,56.75586 v -62.16211 c 3.60361,-0.22522 7.15158,-0.28058 10.64258,-0.16797 z m -167.39844,4.22266 c 3.60363,23.42345 10.35963,41.89076 20.26954,55.4043 v 28.3789 l -31.08008,-82.43164 z m 198.64844,27.02734 -12.16211,56.75586 h -8.10742 l 1.35156,-24.32422 z m -27.02734,35.13477 -2.70313,21.62109 H 569.25093 Z M 447.62788,293.2793 h 28.37891 v 5.40625 h -28.37891 z m 86.48828,0 h 28.37696 v 5.40625 h -28.37696 z m 85.13477,8.10742 h 4.05273 c 14.41443,39.63973 31.98239,76.12758 52.70313,109.46094 -15.31529,29.72978 -22.63538,64.06729 -23.08594,95.14843 -0.45043,31.0811 4.99752,69.08885 6.78125,97.00782 -7.05153,15.1814 -13.47134,28.79029 -18.04101,43.90429 l -22.2793,-1.97656 -2.83399,-93.54297 c 0,-27.92798 -5.85664,-54.50518 -17.56835,-79.73047 2.70269,-18.91893 1.35271,-36.93755 -4.05274,-54.05468 -0.9009,-43.24337 7.20709,-81.98254 24.32422,-116.2168 z m -187.83789,17.56836 h 162.16211 l -4.05469,12.16211 H 435.46577 Z m 8.10742,27.02734 h 145.94531 c -5.40538,21.62165 -7.20607,44.14296 -5.40429,67.56641 l -131.08203,68.91992 c 2.70268,-48.6487 -0.44998,-94.14392 -9.45899,-136.48633 z m 137.83789,83.7832 c 9.00899,9.00902 10.81169,22.07233 5.40625,39.18946 l -118.91992,44.5957 c 4.50453,-9.90991 4.50453,-18.01987 0,-24.32617 z m 2.70313,58.10938 c 9.90991,6.30632 15.54121,30.40493 16.89257,72.29688 0.64556,20.01194 1.54752,47.6816 2.70704,83.00976 L 460.37788,630.82227 c -8.01905,-28.00424 -13.61896,-57.63578 -16.80273,-88.89454 72.97313,-26.12619 118.4683,-44.14282 136.48633,-54.05273 z m -133.10938,8.44531 c 7.75964,-4e-5 11.50372,19.1153 -7.43164,26.68946 l 2.70313,-25.67579 c 1.80178,-0.67568 3.37717,-1.01366 4.72851,-1.01367 z m -12.83789,84.79688 c 1.87552,16.50454 4.63113,32.5419 8.26367,48.10937 l -16.24609,-1.4414 z m -12.21094,71.39062 27.40235,2.42969 c 1.8e-4,6e-4 -1.9e-4,10e-4 0,0.002 14.97348,48.79073 39.1908,92.65148 72.64843,131.58399 h -122.9746 z m 46.72071,4.14453 131.86328,11.69922 c 1.10612,33.63427 2.40601,73.02555 3.89843,118.17188 h -60.81054 c -32.81256,-38.02091 -57.79619,-81.31145 -74.95117,-129.8711 z m -72.34766,137.97852 h 216.2168 l 1.35156,6.75781 H 394.92671 Z"
     sodipodi:nodetypes="cccsccccccccccccccccccccccccsscccccccssssssccccsscsccccssccscsccccsccccccccsscccccccccscscccscccccccscsccccscsccssscssssscssssscccccccccsccsccccccccsccccccccccccccccccccscccscccccccccccccccccccccccccccscccccccccccccccccccccccsccccsccscccccccccccccccccccc" />
</svg>
