<?xml version="1.0" encoding="UTF-8" standalone="no"?>
<svg
   width="1000"
   height="1000"
   version="1.1"
   id="svg1"
   sodipodi:docname="13817.svg"
   inkscape:version="1.4.2 (f4327f4, 2025-05-13)"
   xmlns:inkscape="http://www.inkscape.org/namespaces/inkscape"
   xmlns:sodipodi="http://sodipodi.sourceforge.net/DTD/sodipodi-0.dtd"
   xmlns="http://www.w3.org/2000/svg"
   xmlns:svg="http://www.w3.org/2000/svg">
  <defs
     id="defs1" />
  <sodipodi:namedview
     id="namedview1"
     pagecolor="#ffffff"
     bordercolor="#666666"
     borderopacity="1.0"
     inkscape:showpageshadow="2"
     inkscape:pageopacity="0.0"
     inkscape:pagecheckerboard="0"
     inkscape:deskcolor="#d1d1d1"
     inkscape:zoom="2.1354625"
     inkscape:cx="325.22229"
     inkscape:cy="934.92628"
     inkscape:window-width="1680"
     inkscape:window-height="998"
     inkscape:window-x="-8"
     inkscape:window-y="-8"
     inkscape:window-maximized="1"
     inkscape:current-layer="svg1"
     showguides="true">
    <sodipodi:guide
       position="1000,0"
       orientation="0,-1"
       id="guide5"
       inkscape:locked="false" />
    <sodipodi:guide
       position="701.98676,51.65564"
       orientation="0,-1"
       id="guide6"
       inkscape:locked="false" />
  </sodipodi:namedview>
  <path
     id="path5"
     style="fill:#000000;stroke:none;stroke-width:52.7486"
     d="m 309.38281,0 c -8.03628,1.3393924 -12.67037,9.7357645 -14.00976,25.138672 7.36662,23.439192 18.6967,36.469653 34.09961,39.148437 24.10888,-6.027228 42.23851,-5.228813 54.29296,2.472657 12.05444,7.701438 30.80559,5.923823 56.25391,-5.460938 l -5.05078,5.976563 c -64.29039,24.108889 -96.4297,42.240459 -96.42969,54.294919 l 16.07227,38.11914 c 0,12.05446 4.99562,18.13086 15.04101,18.13086 8.70599,0 15.7616,-4.73758 21.11914,-14.11328 20.76044,-1.33935 44.50726,4.37745 71.29493,17.10156 -16.0726,2.00908 -30.44384,6.74666 -43.16797,14.11329 -25.44831,-0.66971 -62.32711,4.68752 -110.54492,16.07226 -22.76952,2.67879 -40.17994,10.97163 -52.23438,25.03516 -24.77857,19.42107 -51.56259,43.88707 -80.35937,73.35351 v 2.06055 l -16.07032,-6.07813 c -24.7786,-6.69692 -53.15946,-2.31892 -85.304684,13.08399 -12.724154,2.00906 -20.143254,3.70749 -22.152344,5.04687 v 0.92774 c -2.808508,9.54898 -0.446943,17.94533 7.109375,25.13867 H 12.054688 l -7.007813,18.13281 c 16.072603,11.38477 19.111781,27.45441 9.066406,48.21485 -10.0453695,20.76045 -4.068583,45.84607 18.03125,75.3125 H 0 v 31.11132 l 49.246094,66.34961 -14.115235,359.55469 h 32.148438 c 0.541446,0.0689 1.078592,0.10401 1.613281,0.10547 H 0 v 52.98045 H 701.98633 V 948.34375 H 68.962891 c 0.510644,-0.001 1.019012,-0.0329 1.523437,-0.0957 h 75.722652 c 19.26491,-5.7866 34.56174,-6.60654 45.95508,-2.47266 4.59045,1.66534 6.66006,1.84977 8.87696,-0.36719 2.64178,1.89611 5.84549,2.83985 9.60351,2.83985 h 47.08203 c 28.74922,-8.53499 54.42164,-0.9484 82.83754,-0.9484 23.08433,0 42.09065,-19.37366 32.30895,-47.8934 -9.78133,-28.51964 -9.70723,-99.90299 4.37109,-142.0625 14.07811,-42.15953 13.43822,-76.46878 -1.91211,-102.92187 l 9.82422,-12.36329 3.70898,-29.77343 c 0.0627,-1.19376 -0.1017,-2.34919 -0.49218,-3.4668 2.33204,-0.0238 4.72798,-0.0352 7.18945,-0.0352 V 948.24805 H 649.98242 V 508.32422 c 0.66992,-10.04537 3.34722,-15.14649 8.03516,-15.14649 4.68774,0 7.00781,5.10113 7.00781,15.14649 v 72.32226 h 23.07617 v -86.4375 c -1.3393,-17.412 -10.89378,-26.24522 -28.64062,-26.58007 -17.7468,-0.33494 -29.25962,6.79804 -34.61719,21.53125 v -14.00977 c 0,-36.16335 3.29701,-65.08656 9.99414,-86.85156 6.69695,-21.76499 29.20454,-29.72254 67.37695,-23.69531 C 700.20581,256.11348 689.13374,183.3593 669.04297,146.19141 648.95218,109.02352 624.12458,86.438667 594.6582,78.402344 606.04288,62.999437 622.11263,61.660617 642.87305,74.384766 674.34857,68.357537 690.16211,51.203237 690.16211,23.076172 688.8227,7.6732648 682.74434,0 672.0293,0 H 671 c 0,28.127064 -9.5544,39.201058 -28.64062,33.173828 -19.08632,-6.027229 -35.41587,-4.86918 -49.14454,3.501953 -13.72868,8.371167 -29.35949,8.990759 -46.77148,1.958985 -17.41195,-7.031775 -32.76244,-5.15257 -46.15625,5.5625 -23.43925,-16.742265 -44.68724,-19.960299 -63.77344,-9.580078 -19.0862,10.38022 -35.15583,10.73982 -48.21484,1.029296 C 375.23986,25.935923 360.58627,23.798716 344.51367,29.15625 328.44106,34.513786 316.74942,24.778584 309.38281,0 Z m 178.85157,58.3125 c 12.72415,2.009037 19.05859,4.944724 19.05859,8.962891 l -7.00586,8.037109 1.95703,23.177734 v 0.103516 0.103516 l -0.10156,0.103515 v 0.103516 c -1.30864,1.706883 -9.01573,2.998593 -22.97461,3.605473 -31.47552,2.67877 -49.60704,15.34965 -54.29492,38.11914 32.81491,11.38477 61.65887,11.0251 86.4375,-1.0293 5.35753,0.66963 8.65475,5.76684 9.99414,15.14258 v 78.29883 h -8.03516 c -6.69693,-27.45736 -18.02896,-47.54342 -34.10156,-60.26758 -27.45738,-15.4029 -60.93742,-23.08008 -100.44922,-23.08008 6.6969,-1.3394 14.37214,-8.39502 23.07813,-21.11914 -18.08166,9.37567 -31.1141,12.8517 -39.1504,10.50781 -8.03629,-2.34394 -12.05273,-5.81997 -12.05273,-10.50781 l 4.01758,-11.02344 c 25.44832,4.01816 42.85675,0.61936 52.23242,-10.0957 -14.06352,2.67879 -25.13751,3.39993 -33.17383,2.06054 3.34848,-6.02723 23.0769,-15.04323 59.24024,-27.097651 l 4.01757,20.091801 c 20.76043,0 38.16892,-6.697983 52.23243,-20.091801 -18.08165,-8.706014 -34.40742,-10.404415 -49.14063,-5.046875 h -1.0332 C 451.71049,64.64697 468.14366,58.312495 488.23438,58.3125 Z m 52.95312,22.457031 c 18.08162,0.816179 39.90967,8.893692 65.52539,24.212889 34.15429,20.42559 54.60197,52.38406 61.29883,95.91406 -14.73321,-15.40291 -45.89524,-22.09694 -93.44336,-20.08789 V 246.125 L 539.4375,271.26367 V 140.62891 c 7.36667,-28.12702 2.37096,-47.495871 -15.04102,-58.210941 5.19013,-1.339382 10.76375,-1.920499 16.79102,-1.648438 z m -85.09766,1.648438 12.05274,4.019531 c -0.66969,3.348482 -4.06854,4.945312 -10.0957,4.945312 h -14.00977 c 2.00904,-6.027231 6.0255,-8.964843 12.05273,-8.964843 z m 61.19727,23.080081 c 9.37567,5.35753 11.43564,13.03079 6.07812,23.07617 l -13.08398,-4.01758 c -18.08165,12.05448 -41.82847,15.71128 -71.29492,11.02344 12.72416,-14.7332 27.63577,-22.22767 44.71289,-22.5625 17.07715,-0.33484 28.23034,-2.83169 33.58789,-7.51953 z m -49.14453,90.35156 c 10.71508,4.01818 20.09064,12.05296 28.12695,24.10742 v 81.39063 c -9.37568,6.69692 -21.7885,16.79173 -37.19141,30.18554 z m 134.6543,2.26758 c 17.12472,-0.36608 31.56118,2.71262 43.47656,8.75781 -6.90622,-3.03453 -15.40189,-3.13494 -25.44727,-0.41406 -16.07261,4.35297 -26.16742,16.22543 -30.18555,35.64648 v -43.16601 c 4.18561,-0.41831 8.24277,-0.74052 12.15626,-0.82422 z m 48.62695,11.8457 c 5.01428,3.09291 9.66403,6.5957 13.60156,11.02539 9.37569,18.08169 14.00977,58.25579 14.00977,120.53711 -15.40292,-4.01813 -28.0738,-0.97703 -38.11914,9.06836 l 24.10937,-91.38477 c 2.67857,-18.75139 -8.2e-4,-33.40494 -8.03711,-43.78515 -1.67108,-2.15873 -3.53209,-3.955 -5.56445,-5.46094 z m -207.38672,34.10156 -5.05078,91.48633 c -34.82395,-3.34842 -70.00046,-6.02606 -105.49414,-8.03516 -39.51183,-2.67878 -63.97984,-7.8e-4 -73.35547,8.03516 v -0.10156 h -0.10352 -0.10156 c -2.77478,-0.36608 -17.19954,5.96728 -42.96094,19.16211 -2.67878,2.0091 -3.22111,3.96551 -1.54687,5.97461 1.67424,2.00904 4.27655,2.73023 7.625,2.06054 8.70599,-4.68784 21.37684,-7.72704 38.11914,-9.0664 l 2.06055,5.04687 c -15.40328,12.72398 -40.59203,19.06055 -75.41602,19.06055 -5.3575,12.72413 -3.65716,23.43852 5.04883,32.14453 h 1.03125 c 2.00905,1e-5 9.06661,-2.31802 21.12109,-7.00586 35.49367,-2.67877 62.27768,-13.03159 80.35938,-31.11328 l 12.05078,-13.08594 v 1.95899 c 39.51183,11.38481 78.35101,18.80193 116.52344,22.15039 l 31.11132,1.95898 c 10.04537,30.80581 20.03861,65.98233 30.08399,105.49414 -35.49366,2.00913 -74.32895,6.02745 -116.51953,12.05469 -42.19057,6.02724 -75.67257,14.42358 -100.45117,25.13867 -30.80584,10.71502 -46.1543,31.78226 -46.1543,63.25781 l 1.95898,25.13672 c -1.11478,7.32592 -2.15934,15.3382 -3.18554,23.99805 -10.05856,41.97899 -17.64493,79.52513 -21.44922,112.62305 -5.32094,46.29286 -16.06285,83.67368 -32.1836,112.19336 -8.69921,15.39 -21.96946,27.72446 -39.79882,36.98828 L 114.5625,588.68359 162.77734,522.33398 v -31.11132 h -32.14257 c 22.7695,-29.46643 29.10397,-54.55205 19.05859,-75.3125 -10.04537,-20.76044 -7.0062,-36.83008 9.06641,-48.21485 l -5.15039,-13.1875 c 12.88146,-1.68516 33.3616,-11.77037 61.40429,-30.08398 32.8149,-21.43014 63.87344,-43.47464 93.33985,-66.24414 44.19968,-2.67877 89.47483,-7.41831 135.68359,-14.11524 z m 70.26172,4.01758 h 7.00586 v 35.23633 l -7.00586,4.94531 z m 123.6289,26.16992 -25.13867,100.44727 c -6.0273,38.84212 -9.06436,70.98336 -9.06445,96.43164 v 81.39062 c 0.66991,20.76043 -20.39758,31.11133 -63.25781,31.11133 H 329.47266 c -6.29096,0 -11.89609,1.13743 -16.82227,3.40625 -11.67989,-0.91179 -24.70432,-1.59623 -39.07031,-2.05468 l -20.01172,1.24804 c 3.44813,-14.82447 6.97676,-23.89644 10.58594,-27.2207 12.72418,-11.71885 38.35014,-21.09325 76.85742,-28.125 38.50728,-7.03177 95.65489,-13.54895 171.33008,-19.57617 -10.71507,-53.57536 -23.12786,-98.74509 -37.19141,-135.57813 l 45.22852,-26.16992 v 11.02344 h 74.27929 v -55.22071 z m -62.32812,42.13477 v 25.13867 H 539.4375 v -2.98633 z m -450.52734,15.35156 c 2.22556,-0.1129 4.3621,-0.0971 6.49023,0 2.43214,0.11076 4.80101,0.33605 7.10938,0.7207 l 0.92773,5.04883 c -15.40293,8.03629 -28.07572,12.05469 -38.12109,12.05469 H 71.292969 C 91.496701,338.48956 109.49343,332.52989 125.07227,331.73828 Z M 27.095703,367.69531 H 136.60938 c -11.38479,11.38477 -12.362,27.45441 -2.98633,48.21485 9.37568,20.76045 0.98126,45.84607 -25.13672,75.3125 H 54.294922 c -26.117979,-29.46643 -34.695127,-54.55205 -25.654297,-75.3125 9.040862,-20.76044 8.50045,-36.83008 -1.544922,-48.21485 z M 24.107422,509.25 H 137.64062 v 13.08398 l -47.185542,51.30664 14.005862,337.36329 c -9.914917,3.18659 -20.81003,5.71027 -32.683596,7.57226 -4.725541,0.16849 -8.804137,0.5252 -12.236328,1.06836 L 73.353516,573.64062 24.107422,522.33398 Z M 425.75195,616.80859 h 197.03321 v 121.56836 h -131.5625 v 184.82617 h -65.47071 z m -124.86914,25.25 c 2.01131,52.07944 5.14172,96.0169 9.42383,131.97657 4.28212,35.95951 6.64222,82.81842 -1.98047,109.27148 -19.66113,28.51712 -48.53113,29.45124 -78.55273,31.19727 1.09188,-5.23302 0.7022,-11.12006 -1.99805,-17.66407 -9.72141,-23.55975 -2.86687,-53.97816 20.6582,-91.17773 23.525,-37.19964 36.06464,-73.5573 37.61133,-109.10352 1.58264,-36.37301 6.57127,-54.5 14.83789,-54.5 z M 516.35938,763.41211 H 624.84375 V 923.20312 H 516.35938 Z"
     sodipodi:nodetypes="cccsccccsccccccccccccccsccccccccccccccccscsccccccccccsscccscsccscccscssscsssccccccccccccccccccsccccccccccssccccccsccsccccccscccccccccccccccccccccccccccscccccscccccccsccccsscccccsccscccccccccccssccccsccccccccccccccccsccccsccscccccccccccccccccccsccssscccccc" />
</svg>
