<?xml version="1.0" encoding="UTF-8" standalone="no"?>
<svg
   width="1000"
   height="1000"
   version="1.1"
   id="svg1"
   sodipodi:docname="13819.svg"
   inkscape:version="1.4.2 (f4327f4, 2025-05-13)"
   xmlns:inkscape="http://www.inkscape.org/namespaces/inkscape"
   xmlns:sodipodi="http://sodipodi.sourceforge.net/DTD/sodipodi-0.dtd"
   xmlns="http://www.w3.org/2000/svg"
   xmlns:svg="http://www.w3.org/2000/svg">
  <defs
     id="defs1" />
  <sodipodi:namedview
     id="namedview1"
     pagecolor="#ffffff"
     bordercolor="#666666"
     borderopacity="1.0"
     inkscape:showpageshadow="2"
     inkscape:pageopacity="0.0"
     inkscape:pagecheckerboard="0"
     inkscape:deskcolor="#d1d1d1"
     inkscape:zoom="0.3775"
     inkscape:cx="300.66225"
     inkscape:cy="393.37748"
     inkscape:window-width="1680"
     inkscape:window-height="998"
     inkscape:window-x="-8"
     inkscape:window-y="-8"
     inkscape:window-maximized="1"
     inkscape:current-layer="svg1"
     showguides="true">
    <sodipodi:guide
       position="1000,0"
       orientation="0,-1"
       id="guide5"
       inkscape:locked="false" />
  </sodipodi:namedview>
  <path
     id="path5"
     style="fill:#000000;stroke:none;stroke-width:50.3175"
     d="M 517.14844 0.1328125 C 479.17586 0.1328125 448.24609 31.062577 448.24609 69.035156 C 448.24609 90.700778 458.31472 110.07387 474.01562 122.7168 C 466.26133 122.62446 458.82486 124.51154 451.70312 128.38477 C 433.4966 138.28657 418.1661 138.63016 405.70898 129.36719 C 393.25188 120.10418 379.27322 118.06517 363.94141 123.17578 C 348.60958 128.28639 337.45676 118.99983 330.42969 95.363281 C 322.76379 96.640942 318.34408 104.65076 317.06641 119.34375 C 324.09351 141.70265 334.90076 154.13413 349.59375 156.68945 C 372.59148 150.94001 389.88785 151.70036 401.38672 159.04688 C 412.88558 166.39335 430.7695 164.69794 455.04492 153.83789 L 450.22852 159.53906 C 388.90124 182.53678 358.24218 199.8312 358.24219 211.33008 L 373.57422 247.69336 C 373.57422 259.19224 378.33946 264.98828 387.92188 264.98828 C 396.22659 264.98828 402.95774 260.46896 408.06836 251.52539 C 427.87196 250.24775 450.52312 255.70022 476.07617 267.83789 C 460.74435 269.75438 447.03611 274.27563 434.89844 281.30273 C 410.62302 280.6639 375.44274 285.7728 329.44727 296.63281 C 307.72718 299.18814 291.12189 307.09833 279.62305 320.51367 C 255.9865 339.03964 230.43635 362.37993 202.9668 390.48828 L 202.9668 392.45312 L 187.63477 386.6543 C 163.99821 380.26603 136.92538 384.44372 106.26172 399.13672 C 94.124012 401.05317 87.049304 402.67351 85.132812 403.95117 L 85.132812 404.83594 C 82.453748 413.94481 84.706011 421.95461 91.914062 428.81641 L 46.806641 428.81641 L 40.121094 446.11133 C 55.45292 456.97137 58.35192 472.30187 48.769531 492.10547 C 39.187147 511.90908 44.887486 535.83699 65.96875 563.94531 L 35.306641 563.94531 L 35.306641 593.625 L 82.283203 656.91602 L 68.818359 999.89844 L 99.484375 999.89844 C 100.51736 1000.03 101.53784 1000.0331 102.54492 999.9082 L 174.77734 999.9082 C 193.15434 994.38829 207.74505 993.60548 218.61328 997.54883 C 222.99216 999.13741 224.9673 999.314 227.08203 997.19922 C 229.60206 999.00794 232.65738 999.9082 236.24219 999.9082 L 281.15625 999.9082 C 308.58043 991.76652 332.73362 1000 359.83984 1000 C 381.86023 1000 400.32501 980.52363 390.99414 953.31836 C 381.66362 926.11317 381.73461 858.01914 395.16406 817.80273 C 408.59332 777.58631 407.98269 744.85889 393.33984 719.625 L 402.71094 707.83203 L 406.25 679.42969 C 406.3099 678.29094 406.1518 677.18914 405.7793 676.12305 C 408.00386 676.10035 410.29063 676.08984 412.63867 676.08984 L 555.51953 676.08984 C 586.65598 676.93709 631.89473 664.01416 631.35156 630.33789 L 631.35156 548.61523 C 631.35156 514.11863 634.49631 486.52943 640.88477 465.76758 C 647.27307 445.00573 668.74513 437.41462 705.1582 443.16406 C 703.24176 339.67406 692.67845 270.2732 673.51367 234.81836 C 654.34885 199.36352 630.66688 177.81828 602.55859 170.15234 C 613.41857 155.45935 628.7472 154.18261 648.55078 166.32031 C 678.57561 160.57087 693.6582 144.20766 693.6582 117.37695 C 692.38054 102.68396 686.58446 95.363281 676.36328 95.363281 L 675.38086 95.363281 C 675.38086 122.19398 666.26711 132.75725 648.06055 127.00781 C 629.85393 121.25837 614.27756 122.36429 601.18164 130.34961 C 588.08572 138.33495 573.17395 138.92448 556.56445 132.2168 C 554.17044 131.24998 551.8165 130.45949 549.50391 129.8457 C 571.22606 118.23461 586.05078 95.323554 586.05078 69.035156 C 586.05078 31.062577 555.12102 0.1328125 517.14844 0.1328125 z M 517.14844 13.794922 C 547.73671 13.794922 572.38672 38.44688 572.38672 69.035156 C 572.38672 99.623433 547.73671 124.27344 517.14844 124.27344 C 486.56016 124.27344 461.91016 99.623433 461.91016 69.035156 C 461.91016 38.44688 486.56016 13.794922 517.14844 13.794922 z M 501.03906 150.98828 C 513.17678 152.90472 519.2207 155.70608 519.2207 159.53906 L 512.53516 167.20508 L 514.4043 189.31641 L 514.4043 189.41406 L 514.4043 189.51172 L 514.30664 189.61133 L 514.30664 189.70898 C 513.05831 191.33719 505.70613 192.57149 492.39062 193.15039 C 462.36579 195.70571 445.06948 207.79167 440.59766 229.51172 C 471.90014 240.37177 499.41615 240.02813 523.05273 228.5293 C 528.16335 229.16808 531.30632 234.03099 532.58398 242.97461 L 532.58398 317.66406 L 524.91992 317.66406 C 518.53164 291.4722 507.72245 272.31154 492.39062 260.17383 C 466.19873 245.48085 434.26103 238.1582 396.57031 238.1582 C 402.95855 236.88054 410.27925 230.15135 418.58398 218.01367 C 401.33569 226.95722 388.90616 230.27298 381.24023 228.03711 C 373.57434 225.80121 369.74023 222.48546 369.74023 218.01367 L 373.57422 207.49609 C 397.84964 211.32906 414.45489 208.08841 423.39844 197.86719 C 409.9831 200.42252 399.41984 201.10969 391.75391 199.83203 C 394.94807 194.08258 413.76708 185.48322 448.26367 173.98438 L 452.0957 193.15039 C 471.89929 193.15039 488.50654 186.76088 501.92188 173.98438 C 484.67361 165.67962 469.09909 164.0593 455.04492 169.16992 L 454.06055 169.16992 C 466.19825 157.03224 481.87433 150.98827 501.03906 150.98828 z M 551.55273 172.41211 C 568.80099 173.19067 589.62154 180.89466 614.05664 195.50781 C 646.63679 214.99199 666.14304 245.47823 672.53125 287.00195 C 658.47708 272.30894 628.75119 265.92143 583.39453 267.83789 L 583.39453 330.14453 L 549.88281 354.125 L 549.88281 229.51172 C 556.90995 202.68105 552.14268 184.20559 535.5332 173.98438 C 540.48413 172.70673 545.80325 172.15259 551.55273 172.41211 z M 470.37695 173.98438 L 481.87305 177.81836 C 481.23423 181.01251 477.99158 182.53711 472.24219 182.53711 L 458.87695 182.53711 C 460.7934 176.78767 464.6275 173.98438 470.37695 173.98438 z M 528.75195 196 C 537.69551 201.1106 539.66138 208.43129 534.55078 218.01367 L 522.07031 214.18164 C 504.82204 225.68052 482.1689 229.16709 454.06055 224.69531 C 466.19825 210.64115 480.42284 203.49323 496.71289 203.17383 C 513.00296 202.85441 523.64134 200.47178 528.75195 196 z M 481.87305 282.1875 C 492.09427 286.02048 501.03721 293.68471 508.70312 305.18359 L 508.70312 382.82227 C 499.75957 389.21053 487.91955 398.84069 473.22656 411.61719 L 481.87305 282.1875 z M 610.32227 284.34961 C 626.65772 284.0004 640.42677 286.93656 651.79297 292.70312 C 645.20506 289.80847 637.10193 289.71508 627.51953 292.31055 C 612.1877 296.4629 602.55754 307.78656 598.72461 326.3125 L 598.72461 285.13672 C 602.71729 284.7377 606.58916 284.42945 610.32227 284.34961 z M 656.70703 295.65039 C 661.49021 298.60075 665.9256 301.94245 669.68164 306.16797 C 678.62522 323.41629 683.04492 361.73957 683.04492 421.15039 C 668.35191 417.31745 656.26595 420.21643 646.68359 429.79883 L 669.68164 342.62695 C 672.23677 324.7398 669.67958 310.76118 662.01367 300.85938 C 660.41961 298.80014 658.64572 297.08694 656.70703 295.65039 z M 458.87695 328.18164 L 454.06055 415.44922 C 420.84161 412.25514 387.28553 409.70167 353.42773 407.78516 C 315.73698 405.22986 292.3986 407.78366 283.45508 415.44922 L 283.45508 415.35352 L 283.35547 415.35352 L 283.25781 415.35352 C 280.61092 415.00432 266.8514 421.04416 242.27734 433.63086 C 239.72201 435.54735 239.20565 437.41357 240.80273 439.33008 C 242.3998 441.24652 244.88011 441.93571 248.07422 441.29688 C 256.37895 436.82511 268.46684 433.92607 284.4375 432.64844 L 286.4043 437.46289 C 271.71095 449.60044 247.68186 455.64453 214.46289 455.64453 C 209.35231 467.78222 210.97457 478.00189 219.2793 486.30664 L 220.26172 486.30664 C 222.17818 486.30665 228.91127 484.09678 240.41016 479.625 C 274.26794 477.0697 299.8181 467.19362 317.06641 449.94531 L 328.5625 437.46289 L 328.5625 439.33008 C 366.25325 450.19016 403.30175 457.26681 439.71484 460.46094 L 469.39258 462.32812 C 478.97497 491.71411 488.50745 525.27216 498.08984 562.96289 C 464.23206 564.87942 427.18549 568.7115 386.93945 574.46094 C 346.69342 580.21038 314.75573 588.22016 291.11914 598.44141 C 261.73314 608.66259 247.0918 628.75833 247.0918 658.7832 L 248.96094 682.76172 C 247.89752 689.74999 246.90077 697.39161 245.92188 705.65234 C 236.32691 745.69654 229.0899 781.51153 225.46094 813.08398 C 220.38525 857.24324 210.13948 892.90219 194.76172 920.10742 C 186.46346 934.78809 173.8045 946.55574 156.79688 955.39258 L 144.58984 656.91602 L 190.58203 593.625 L 190.58203 563.94531 L 159.91992 563.94531 C 181.64 535.83699 187.68395 511.90908 178.10156 492.10547 C 168.51918 472.30187 171.41817 456.97137 186.75 446.11133 L 181.83594 433.5332 C 194.1237 431.92571 213.65994 422.30548 240.41016 404.83594 C 271.71264 384.39351 301.33895 363.36459 329.44727 341.64453 C 371.6098 339.08921 414.79793 334.5699 458.87695 328.18164 z M 525.90234 332.01367 L 532.58398 332.01367 L 532.58398 365.625 L 525.90234 370.3418 L 525.90234 332.01367 z M 643.83398 356.97461 L 619.85352 452.79492 C 614.10401 489.84681 611.2071 520.50586 611.20703 544.78125 L 611.20703 622.41992 C 611.84606 642.22351 591.75006 652.09961 550.86523 652.09961 L 349.59375 652.09961 C 343.59274 652.09961 338.246 653.18343 333.54688 655.34766 C 322.4053 654.4779 309.98317 653.82407 296.2793 653.38672 L 277.18945 654.57812 C 280.47866 640.43691 283.84427 631.78237 287.28711 628.61133 C 299.42484 617.4326 323.86905 608.48892 360.60156 601.78125 C 397.33405 595.07357 451.84781 588.85881 524.03516 583.10938 C 513.81395 532.00329 501.97395 488.91473 488.55859 453.7793 L 531.70117 428.81641 L 531.70117 439.33008 L 602.55859 439.33008 L 602.55859 386.6543 L 643.83398 356.97461 z M 584.37695 397.16992 L 584.37695 421.15039 L 549.88281 421.15039 L 549.88281 418.29883 L 584.37695 397.16992 z M 154.61523 411.81445 C 156.73821 411.70677 158.77659 411.72185 160.80664 411.81445 C 163.12668 411.92011 165.38591 412.13309 167.58789 412.5 L 168.47266 417.31836 C 153.77967 424.98425 141.68982 428.81641 132.10742 428.81641 L 103.31445 428.81641 C 122.587 418.25382 139.7544 412.56958 154.61523 411.81445 z M 61.154297 446.11133 L 165.62109 446.11133 C 154.76103 456.97137 153.82597 472.30187 162.76953 492.10547 C 171.71309 511.90908 163.70719 535.83699 138.79297 563.94531 L 87.099609 563.94531 C 62.185393 535.83699 54.004763 511.90908 62.628906 492.10547 C 71.253079 472.30187 70.736682 456.97137 61.154297 446.11133 z M 58.302734 581.14258 L 166.60547 581.14258 L 166.60547 593.625 L 121.59375 642.56641 L 134.95312 964.38086 C 125.49519 967.42058 115.10366 969.82929 103.77734 971.60547 C 99.269595 971.76619 95.379473 972.10492 92.105469 972.62305 L 105.2793 642.56641 L 58.302734 593.625 L 58.302734 581.14258 z M 322.32227 707.83008 C 324.24087 757.50921 327.22774 799.42231 331.3125 833.72461 C 335.39725 868.02677 337.64911 912.72514 329.42383 937.95898 C 310.66888 965.16176 283.12815 966.0532 254.49023 967.71875 C 255.53178 962.72692 255.15979 957.11155 252.58398 950.86914 C 243.31062 928.39525 249.84825 899.37959 272.28906 863.89453 C 294.7298 828.4094 306.69258 793.72628 308.16797 759.81836 C 309.67767 725.12177 314.43665 707.83008 322.32227 707.83008 z " />
</svg>
