<?xml version="1.0" encoding="UTF-8" standalone="no"?>
<svg
   width="600"
   height="1000"
   version="1.1"
   id="svg1"
   sodipodi:docname="13820.svg"
   inkscape:version="1.4.2 (f4327f4, 2025-05-13)"
   xmlns:inkscape="http://www.inkscape.org/namespaces/inkscape"
   xmlns:sodipodi="http://sodipodi.sourceforge.net/DTD/sodipodi-0.dtd"
   xmlns="http://www.w3.org/2000/svg"
   xmlns:svg="http://www.w3.org/2000/svg">
  <defs
     id="defs1" />
  <sodipodi:namedview
     id="namedview1"
     pagecolor="#ffffff"
     bordercolor="#666666"
     borderopacity="1.0"
     inkscape:showpageshadow="2"
     inkscape:pageopacity="0.0"
     inkscape:pagecheckerboard="0"
     inkscape:deskcolor="#d1d1d1"
     inkscape:zoom="0.35355339"
     inkscape:cx="-202.23254"
     inkscape:cy="32.526912"
     inkscape:window-width="1680"
     inkscape:window-height="998"
     inkscape:window-x="-8"
     inkscape:window-y="-8"
     inkscape:window-maximized="1"
     inkscape:current-layer="svg1"
     showguides="true">
    <sodipodi:guide
       position="4.234596,17.107108"
       orientation="0.95257762,-0.30429571"
       id="guide1"
       inkscape:locked="false" />
    <sodipodi:guide
       position="4.029193,16.006737"
       orientation="-0.95746447,0.28855121"
       id="guide2"
       inkscape:locked="false" />
    <sodipodi:guide
       position="283.61895,820.45306"
       orientation="0,-1"
       id="guide3"
       inkscape:locked="false" />
    <sodipodi:guide
       position="139,811.61968"
       orientation="0,-1"
       id="guide4"
       inkscape:locked="false" />
    <sodipodi:guide
       position="118.16992,425.9375"
       orientation="1,0"
       id="guide5"
       inkscape:locked="false" />
    <sodipodi:guide
       position="179.60547,735.91992"
       orientation="0,-1"
       id="guide15"
       inkscape:locked="false" />
  </sodipodi:namedview>
  <path
     id="path3"
     style="fill:#000000;stroke:none;stroke-width:0.999998"
     d="M 227.02148 0 C 212.98357 0 202.15471 12.92393 194.55078 38.660156 L 129.66602 188.38086 C 136.424 206.57189 132.4753 230.86758 126.11133 240.37109 C 123.18679 244.46545 122.02254 248.54034 122.60742 252.63477 C 116.17336 263.16322 111.34203 271.66164 108.125 278.0957 C 106.41835 281.50905 103.82751 287.84238 107.65625 288.60742 L 116.41797 288.60742 L 115.59961 292.11133 C 112.09007 294.45093 112.09007 297.13019 115.59961 300.05469 C 111.4494 305.03473 114.82662 306.43303 116.41602 307.06055 L 117.35156 318.50781 C 112.9788 339.34059 97.544578 362.64803 74.361328 359.00391 C 67.075871 350.26036 57.186769 361.52815 69.089844 368.40039 C 99.487396 385.95042 126.92301 339.47325 138.375 322.83008 L 150.63867 322.01172 C 150.63867 328.4458 152.15158 335.43127 155.07617 343.03516 C 154.49212 350.63955 150.6498 355.29603 143.63086 357.05078 C 122.57391 361.14515 111.74701 369.81987 111.16211 382.98047 C 110.57726 396.14103 115.8163 405.97999 126.92969 412.41406 C 115.23139 449.26367 111.89669 477.61055 118.16992 571.70898 C 106.25076 576.72756 93.64291 577.16346 79.841797 573.08594 C 66.040721 569.00842 54.988396 565.26272 46.519531 561.8125 C 39.109272 558.79358 34.785586 556.23003 33.619141 554.17188 C 33.551701 554.02867 33.402693 553.68218 33.367188 553.54492 L 33.242188 553.41992 C 32.92848 551.22423 31.244028 550.22347 28.107422 550.53711 C 24.97081 550.851 21.659264 550.60341 18.208984 549.66211 C 14.758707 548.7211 10.388855 547.72018 5.0566406 546.7793 C -0.27560921 545.8383 -4.2074831 547.71108 -6.7167969 552.41602 C -9.2260678 557.12095 -8.7901234 562.11694 -5.3398438 567.44922 C -1.8895641 572.78168 2.2306324 576.5289 6.9355469 578.72461 C 11.640461 580.92001 14.950057 581.48091 16.832031 580.22656 C 53.844059 594.0276 86.43647 602.76731 114.66602 606.53125 C 121.56659 679.30066 129.77282 722.95782 140.59375 794.90234 C 151.41467 866.84675 155.89732 885.61897 154.14258 907.8457 C 154.14258 923.63836 148.72921 933.30285 137.9082 936.8125 C 127.08729 940.32227 105.95646 952.31322 74.371094 972.78516 L 58.486328 972.78516 C 45.033265 972.78516 44.451191 981.86764 56.734375 1000 L 217.33008 1000 C 233.12274 994.15082 234.28694 973.65927 220.83398 938.56445 C 231.36249 865.45023 233.11071 848.25003 226.0918 830.41016 C 208.93584 786.80487 235.84385 783.6986 231.34766 724.49805 C 228.35747 685.12172 229.77715 662.93047 240.10742 649.51367 C 256.53714 628.17501 252.75324 591.66021 232.28125 542.52734 C 245.14935 461.80912 255.97824 438.36977 264.75195 421.99219 C 273.52565 405.61459 282.25751 396.88081 291.03125 395.71094 C 325.54122 396.88083 363.26304 395.13453 404.20703 390.45508 C 411.81068 358.28516 416.46791 330.86689 418.22266 308.34766 C 419.9774 285.82846 424.40291 262.01854 431.42188 236.86719 C 441.95036 224.58399 449.51775 210.02891 454.19727 193.06641 C 455.3672 188.97199 455.94922 182.8021 455.94922 174.61328 C 455.94922 166.42451 456.29921 159.08837 456.88477 152.6543 C 456.88477 151.67268 456.76488 148.33594 455.13477 148.33594 C 453.38006 146.58123 451.63368 146.81262 449.87891 149.15234 C 448.63999 147.29412 447.55408 146.60901 446.63281 146.58789 C 445.28634 146.55699 444.29181 147.94368 443.6875 149.15234 C 442.40492 147.54896 440.01503 145.29222 437.61719 150.08789 C 433.99684 146.46754 431.42383 149.47477 431.42383 153.5918 C 432.00866 163.53537 431.83392 171.10489 430.95703 176.36914 C 430.0797 181.63333 427.57682 190.13178 423.48242 201.83008 C 422.6782 203.43864 421.71471 204.59869 420.91211 205.09961 C 420.62001 205.2454 420.27101 205.33398 419.97852 205.33398 C 419.87224 205.32028 419.54731 205.25998 419.39258 205.21875 L 419.27734 205.10156 L 419.16016 205.10156 C 418.47908 204.59524 417.8103 203.43857 417.4082 201.83008 C 417.4082 198.90553 418.22381 194.82869 419.97852 189.56445 C 421.73251 184.29892 422.25635 180.10814 421.37891 177.18359 C 420.50159 174.25904 418.58079 173.44344 415.65625 174.61328 C 413.3166 175.19811 412.3267 177.93445 412.61914 182.90625 C 412.91181 187.878 410.81458 194.98071 406.42773 204.04688 C 402.03925 213.1112 401.28244 223.41696 404.20703 235.11523 C 388.41426 291.26707 377.58744 331.66797 371.73828 356.23438 C 347.17187 351.55505 320.27698 348.87587 291.03125 348.29102 C 272.89892 338.34749 253.57162 334.27261 233.09961 336.02734 C 226.66554 333.6877 223.75491 324.95582 224.33984 309.74805 C 266.41269 283.23155 269.42969 236.15925 269.42969 188.38086 L 296.2832 64.939453 C 302.13234 39.788119 299.22171 23.720128 287.52344 16.701172 C 275.82517 9.6821756 265.34691 9.1000416 255.98828 14.949219 C 250.72403 5.0056537 241.05943 0 227.02148 0 z M 228.50391 19.5 C 230.56833 19.53471 232.69488 20.137481 234.96289 21.023438 C 244.61713 24.794694 246.88625 34.194737 241.03711 51.742188 L 197.4082 188.38086 L 150.4082 188.38086 L 209.50195 42.164062 C 216.68172 24.399183 222.31065 19.395875 228.50391 19.5 z M 266.26562 30.910156 C 269.07356 30.922076 271.83141 31.771355 274.44141 32.470703 C 284.30841 35.114556 286.71343 44.706458 281.44922 62.253906 L 251.42969 188.38086 L 207.42578 188.38086 L 248.04492 53.494141 C 253.66795 34.909397 260.08816 30.88393 266.26562 30.910156 z M 438.42969 33.287109 L 332.25977 306.24414 L 350.71484 312.31836 L 438.42969 85.146484 L 519.13672 256.13867 L 534.9043 250.88281 L 526.14453 231.61133 L 534.08789 225.53711 L 547.28516 243.05664 L 560.36719 234.29688 L 547.28516 216.66016 L 556.86328 209.65234 L 570.06055 227.28906 L 580.57227 214.08984 L 438.42969 33.287109 z M 448.94141 72.765625 L 548.10352 199.14062 L 520.07227 218.41211 L 448.94141 72.765625 z M 148.27148 202.38086 L 253.92773 202.38086 C 252.40378 249.01527 242.86743 284.1221 220.83398 295.73242 C 220.83398 283.09996 213.46662 272.33291 202.82227 265.33203 C 203.46375 264.0691 204.05915 262.79131 204.59961 261.51172 C 207.81694 253.90783 207.6418 248.14374 204.13281 244.3418 C 200.62292 240.54015 195.90919 239.20128 189.76758 240.37109 C 183.626 241.54091 180.19032 249.4572 179.60547 264.08008 L 175.2832 264.08008 L 174.34961 248.3125 C 166.16082 243.63316 155.33197 240.37388 141.87891 238.61914 C 146.26831 231.42979 149.27038 217.20377 148.27148 202.38086 z M 194.49609 246.07617 C 197.13132 245.94913 198.78377 248.08335 199.81055 250.53125 C 201.63811 254.88833 199.64518 260.91564 194.08789 268.51953 C 188.53125 276.12341 184.04859 279.84766 180.53906 279.84766 C 176.86496 279.84766 178.64108 275.87902 180.53906 272.8418 L 184.86133 268.52148 C 185.44616 256.23828 187.74533 249.12722 191.51953 247.0293 C 192.6293 246.41242 193.61768 246.11852 194.49609 246.07617 z M 133.11914 246.56055 C 150.08165 247.73043 161.72414 251.22306 168.1582 257.07227 L 168.1582 272.83984 L 176.10156 272.83984 C 172.59201 276.93422 171.60212 280.427 173.06445 283.35156 C 174.52678 286.27611 178.58588 287.36703 186.08203 284.04297 C 189.68812 282.4439 193.28486 279.24618 196.49219 275.24023 C 205.93137 282.02613 210.32227 289.14325 210.32227 309.74805 C 210.32227 319.10669 212.06859 329.35346 215.57812 340.4668 C 202.70998 352.16514 188.39036 352.74717 172.59766 342.21875 C 166.16353 333.44495 162.3202 322.84962 161.15039 310.56641 L 141.87891 314.07031 C 133.1052 315.82503 127.69167 315.82503 125.64453 314.07031 C 123.59732 312.3156 122.60742 309.98709 122.60742 307.0625 L 136.62305 299.23633 L 136.62305 295.73242 L 120.85547 292.11133 L 120.85547 288.60742 L 129.61523 288.60742 C 126.10571 282.75832 122.61304 281.01197 119.10352 283.35156 C 116.91009 284.81389 115.25639 285.41388 114.19922 285.33789 C 113.34362 285.27639 112.91602 284.37316 112.91602 284.28906 C 116.42245 275.51143 120.26498 268.17728 124.35938 262.32812 C 134.88783 254.13932 145.71669 253.55723 156.83008 260.57617 L 163.83789 261.51172 L 164.65625 260.57617 C 157.05181 256.4814 150.64704 253.74551 145.38281 252.2832 C 140.11856 250.82091 134.5308 251.22872 128.68164 253.56836 L 133.11914 246.56055 z M 137.9082 259.05859 C 133.22888 259.20438 130.14392 261.7958 128.68164 266.76758 C 131.60624 273.2016 141.03738 272.85102 156.83008 265.83203 C 148.93372 261.15271 142.58752 258.91237 137.9082 259.05859 z M 124.94336 298.30273 C 127.1733 298.19313 129.90212 298.1564 133.11914 298.30273 L 118.16992 302.74023 C 117.12702 301.42948 117.16126 300.74016 118.05078 299.70703 C 119.1642 298.93892 121.52676 298.47456 124.94141 298.30664 L 124.94336 298.30273 z M 233.79883 348.99219 C 240.26946 348.66336 248.47079 350.53428 258.56055 354.48242 C 242.76785 374.95444 221.46073 385.20117 194.55469 385.20117 C 167.06372 385.20117 149.48284 379.61142 141.87891 368.49805 L 169.09375 356.23438 C 186.64116 365.0081 206.2019 362.91111 227.84375 350.04297 C 229.59848 349.45814 231.64195 349.10187 233.79883 348.99219 z M 260.3125 386.01758 C 242.18018 425.79175 226.46279 462.38846 213.00977 546.03125 C 232.31193 592.23945 234.2898 623.79114 219.08203 640.75391 C 207.58905 666.45113 208.91811 699.40596 211.25781 723.67969 C 217.18068 785.13064 186.15143 785.39427 205.06641 831.22656 C 212.6703 849.65136 211.15739 866.85341 200.62891 939.38281 C 209.4026 965.11909 209.4026 980.02074 200.62891 984.11523 L 94.458984 984.11523 L 94.458984 980.61133 C 117.27064 967.74303 136.4236 957.84715 151.92383 950.82812 C 167.42407 943.80921 175.2832 933.9132 175.2832 921.04492 C 175.2832 900.57307 171.26746 884.94484 163.37109 817.67969 C 155.47473 750.41399 147.90517 689.20566 140.59375 591.23242 C 133.28233 493.25927 136.60071 445.65936 150.63867 398.28125 C 155.90287 402.96062 171.73743 405.28906 198.05859 405.28906 C 224.96467 405.28905 245.68966 398.88567 260.3125 386.01758 z " />
</svg>
