<?xml version="1.0" encoding="UTF-8" standalone="no"?>
<svg
   width="600"
   height="1000"
   version="1.1"
   id="svg1"
   sodipodi:docname="1383E.svg"
   inkscape:version="1.4.2 (f4327f4, 2025-05-13)"
   xmlns:inkscape="http://www.inkscape.org/namespaces/inkscape"
   xmlns:sodipodi="http://sodipodi.sourceforge.net/DTD/sodipodi-0.dtd"
   xmlns="http://www.w3.org/2000/svg"
   xmlns:svg="http://www.w3.org/2000/svg">
  <defs
     id="defs1" />
  <sodipodi:namedview
     id="namedview1"
     pagecolor="#ffffff"
     bordercolor="#666666"
     borderopacity="1.0"
     inkscape:showpageshadow="2"
     inkscape:pageopacity="0.0"
     inkscape:pagecheckerboard="0"
     inkscape:deskcolor="#d1d1d1"
     inkscape:zoom="0.53386562"
     inkscape:cx="-19.667871"
     inkscape:cy="242.57041"
     inkscape:window-width="1680"
     inkscape:window-height="998"
     inkscape:window-x="-8"
     inkscape:window-y="-8"
     inkscape:window-maximized="1"
     inkscape:current-layer="svg1" />
  <path
     style="fill:#000000;stroke:none;stroke-width:52.4843"
     d="m 175.31833,67.580814 c 6.52954,1.305915 13.22232,3.101544 20.07835,5.386887 6.85603,2.285342 10.93699,7.672211 12.24287,16.160606 v 0 c 2.61183,-8.488395 7.83547,-12.732593 15.67092,-12.732593 9.79431,0 14.69147,4.570668 14.69147,13.712003 0,5.22366 -1.3059,9.794344 -3.91769,13.712053 3.91771,13.05912 11.75316,23.17992 23.50636,30.3624 7.18248,-5.22363 17.46652,-12.40613 30.85213,-21.5475 13.38553,-9.14137 20.0783,-23.506363 20.0783,-43.094983 0,-20.241596 -7.67221,-32.48451 -23.01664,-36.728742 -15.34442,-4.244198 -34.44334,-6.366297 -57.29677,-6.366297 -22.20045,0 -39.83022,13.712055 -52.8893,41.136166 z m 13.71206,32.321266 c -7.18252,3.26477 -13.05912,4.89716 -17.6298,4.89716 -4.57069,0 -6.85603,-1.95887 -6.85603,-5.876623 0,-1.958855 0.48971,-3.59124 1.46914,-4.897155 0.97943,-1.305915 3.26477,-1.958872 6.85603,-1.958872 3.59125,0 8.97814,2.61183 16.16066,7.83549 z M 163.56515,79.333997 c -1.95889,10.447285 -7.50901,22.526943 -16.65034,36.238963 -0.65297,1.30591 -0.97946,2.61183 -0.97946,3.91774 0,0.65294 1.95887,0.81617 5.87662,0.48968 3.91771,-0.32645 5.55009,-1.14264 4.89715,-2.44855 -1.30591,-0.65294 -0.97944,-1.63237 0.97941,-2.93828 2.61183,0 4.89718,1.63238 6.85603,4.89715 0,2.61183 -3.26477,4.57069 -9.79431,5.87657 v 3.91774 c 3.91771,1.30591 8.81486,4.24421 14.69146,8.8149 -2.61179,3.91771 -7.83543,7.18248 -15.67092,9.79431 0.65297,3.26477 1.1427,6.03983 1.46919,8.32517 0.32645,2.28534 2.12206,3.75448 5.38683,4.40742 16.32389,-1.95885 27.42413,-2.93828 33.30073,-2.93828 3.26477,0 5.87659,1.95887 7.83544,5.87662 1.95885,9.79431 5.06038,16.65033 9.30458,20.56808 7.55081,6.96991 41.79137,11.07719 53.37908,-1.95887 -5.22366,-9.79435 -7.509,-20.24163 -6.85603,-31.34186 -17.62977,-11.10022 -28.40352,-22.8534 -32.32126,-35.25954 -6.52954,6.52954 -11.75318,9.79431 -15.67093,9.79431 -5.22363,0 -7.83544,-2.93828 -7.83544,-8.81485 0,-4.57069 3.26477,-9.14137 9.79431,-13.71206 0,-2.61183 -2.28534,-3.917743 -6.85603,-3.917743 -0.65294,-8.488395 -7.18248,-13.71202 -19.58862,-15.670875 -8.48839,-2.61183 -15.67089,-3.917745 -21.54749,-3.917745 z m 31.3418,15.670928 h 6.85603 v 3.917692 h -6.85603 C 181.1949,89.781247 171.0741,87.169435 164.54456,91.08718 c -1.95885,-1.305915 -1.95885,-3.264788 0,-5.876618 8.48843,-3.91771 18.60922,-0.652922 30.36239,9.794363 z m 16.65034,17.629745 c 1.95885,0.65294 2.93828,1.63237 2.93828,2.93829 0,1.30591 -0.97943,1.95887 -2.93828,1.95887 -1.95885,-0.65294 -2.93828,-1.3059 -2.93828,-1.95887 0,-1.30592 0.97943,-2.28535 2.93828,-2.93829 z m 2.93828,-9.79431 5.87662,-3.917743 c -3.26477,-1.958855 -4.89715,-4.244197 -4.89715,-6.856027 0,-1.958855 0.48971,-3.59124 1.46914,-4.897155 0.97943,-1.305915 3.10152,-1.958873 6.36629,-1.958873 4.57069,0 6.85603,1.305915 6.85603,3.917745 0,3.917745 -0.48971,6.856045 -1.46914,8.8149 -0.97943,1.958855 -4.40744,6.203053 -10.28404,12.732593 l -0.97941,-0.97941 c 5.22363,-6.52954 8.4884,-11.100225 9.79431,-13.712055 1.30591,-2.61183 0.97943,-4.897173 -0.97946,-6.856028 -1.95886,-1.958855 -3.91772,-1.958855 -5.87657,0 -1.95885,1.958855 -1.79563,4.080954 0.48968,6.366297 2.28538,2.285342 2.77511,3.754501 1.46919,4.407476 l -6.85602,5.87657 -6.85603,6.85602 c -1.30591,2.61183 -1.6324,4.40746 -0.97946,5.38689 0.65297,0.97943 1.95889,1.46914 3.91774,1.46914 1.95885,0 5.22362,-2.28534 9.79431,-6.85603 4.57069,-4.57068 7.67223,-8.48841 9.30463,-11.75318 1.63237,-3.26477 2.44855,-7.182498 2.44855,-11.753183 0,-5.223625 -3.26477,-7.835437 -9.79431,-7.835437 -5.8766,0 -9.30461,2.448569 -10.28404,7.345706 -0.97943,4.897173 -0.48971,9.631101 1.46914,14.201784 z m -66.60135,30.3624 c -0.65294,1.95885 0.97945,2.61181 4.89716,1.95887 l 7.83543,0.97941 v -0.97941 z m 16.65034,5.87656 -7.83544,0.97946 h -4.89715 c -1.95889,0 -2.93834,0.97943 -2.93834,2.93829 0,1.04952 15.67093,-3.06714 15.67093,-3.91775 z m 101.8609,64.64253 c -16.97679,7.18248 -34.28009,8.16191 -51.90989,2.93829 -36.56545,120.14365 -47.66567,234.57395 -33.30067,343.2909 14.36499,108.71695 25.62846,189.35684 33.7904,241.91968 8.16195,52.56285 9.30462,92.55631 3.42802,119.98038 -20.2416,26.11816 -46.68627,46.0333 -79.334,59.74543 h 112.63467 c 11.7532,-1.95889 13.38559,-17.30333 4.89716,-46.03332 -0.65294,-4.57069 -0.32645,-61.70423 0.97946,-171.40064 -2.61183,-97.94317 -0.65297,-170.09465 5.87657,-216.45444 18.28274,-29.38297 16.65035,-64.969 -4.89716,-106.75811 24.81228,-109.0434 27.42409,-184.78612 7.83544,-227.22817 z M 41.136166,333.98633 82.27228,336.92461 c 2.61183,-1.95885 2.61183,-3.59124 0,-4.89716 l -41.136114,-2.93833 c -1.305915,1.30591 -1.305915,2.93832 0,4.89721 z m 44.074396,8.81484 -44.074396,-4.89715 c -1.305915,1.30591 -1.305915,2.9383 0,4.89715 l 44.074396,3.91775 c 2.61183,-1.30591 2.61183,-2.61183 0,-3.91775 z m -44.074396,10.77378 39.177241,2.93828 c 2.61183,-1.30591 2.938318,-2.9383 0.979463,-4.89716 l -40.156704,-3.91774 c -1.305915,1.30591 -1.305915,3.26479 0,5.87662 z m 0.97941,5.87656 c -1.305915,1.30591 -1.305915,3.26479 0,5.87662 l 28.403521,0.97941 c 1.958855,-1.30591 1.958855,-2.9383 0,-4.89716 z m 12.732593,-40.1567 c -5.876565,0 -13.385533,-0.32649 -22.526903,-0.97946 1.305915,3.26477 4.897155,5.22364 10.77372,5.87661 h 11.753183 z m 94.025461,111.65521 v -8.81485 h -30.36234 c -17.6298,-19.58865 -39.17731,-27.42411 -64.642531,-23.50637 0,7.83546 0.163226,15.01796 0.489679,21.5475 0.326452,6.52954 2.448551,12.07965 6.366296,16.65034 11.100225,3.26477 33.300677,1.30589 66.601356,-5.87662 z m 4.89716,-53.86871 h -14.69147 c -23.50637,3.91771 -44.074432,4.57067 -61.704196,1.95887 v 3.9177 c 12.406141,0 27.750586,8.16194 46.033326,24.48583 h 27.42405 z m 3.91774,-23.50636 H 118.51129 C 102.84038,333.98629 90.43424,323.539 81.29287,322.23309 v 4.89716 c 5.223625,1.30591 8.325151,3.10154 9.304579,5.38688 0.979427,2.28535 -0.163244,4.40746 -3.428014,6.36635 3.917745,1.30588 5.876617,3.26474 5.876617,5.87657 -0.652975,3.91774 -3.264805,5.87661 -7.83549,5.87661 3.26477,1.95886 4.244215,3.91772 2.938335,5.87657 -1.305915,1.95885 -3.917745,3.26477 -7.83549,3.91774 3.26477,1.30592 3.917728,3.91773 1.958873,7.83544 19.58865,1.30591 38.85082,-0.32647 57.7865,-4.89715 h 16.65034 z M 77.375124,312.43878 c 15.670911,0 31.015356,8.8149 46.033326,26.4447 h 37.21836 c 7.18252,-42.44208 19.58866,-91.41368 37.21842,-146.91481 -4.57068,-7.18251 -7.50896,-15.9974 -8.81484,-26.44465 -3.91775,1.30588 -11.10026,2.28531 -21.54755,2.93828 l -20.82916,70.13665 -27.49179,-12.59085 28.73233,-64.40182 -0.97941,-12.73265 c -4.57069,-1.30588 -5.55013,-4.89712 -2.93833,-10.77372 -2.6118,-1.30591 -3.59123,-3.91774 -2.93829,-7.83549 3.26477,-0.65294 4.89716,-2.28532 4.89716,-4.89715 -5.22363,0 -8.16193,-1.95886 -8.8149,-5.87657 -0.65294,-1.95885 1.6324,-6.52954 6.85603,-13.71205 5.22366,-7.182483 8.3252,-12.895841 9.30463,-17.140074 0.97943,-4.244197 2.1221,-9.304596 3.42801,-15.181197 3.91771,-15.017935 11.75317,-29.709401 23.50637,-44.074396 11.75316,-14.36503 38.68754,-19.9151602 80.80314,-16.65039 42.11555,3.264805 63.17333,21.384301 63.17333,54.35849 0,32.974227 -14.69148,55.990877 -44.07445,69.049957 -5.22362,3.26477 -7.50896,7.83545 -6.85602,13.71205 -2.6118,11.75317 1.63241,24.81227 12.73264,39.1773 18.93568,52.23635 18.93568,132.87623 0,241.91963 16.97683,39.17731 19.26217,77.70164 6.85603,115.57301 -7.83545,8.48839 -11.42671,32.64772 -10.77377,72.47797 v 305.5828 c 15.01797,39.83021 13.71205,64.96895 -3.91775,75.4162 H 54.848169 c 0,-24.15931 12.40614,-36.23896 37.218421,-36.23896 58.76593,-23.5064 93.69901,-50.60404 104.79923,-81.29292 2.61183,-24.15927 -1.46914,-71.6617 -12.24291,-142.50728 C 173.84917,669.11525 165.524,607.90075 159.6474,556.31734 153.7708,504.73392 149.85307,468.16846 147.89422,446.62095 l -70.519096,8.8149 v 428.01173 c 13.059081,3.26477 19.588621,12.73261 19.588621,28.40352 0.652975,4.57072 -0.652923,9.46788 -3.917693,14.69147 -3.26477,5.22366 -2.448586,11.42675 2.448552,18.60926 4.897166,7.18248 2.122114,8.16193 -8.325169,2.93834 -10.447285,-5.22366 -12.40614,-17.30335 -5.876565,-36.23907 -1.305915,-9.14133 -6.203088,-13.712 -14.691518,-13.712 -9.794311,0 -15.017936,4.57067 -15.670876,13.712 8.488395,18.93572 6.203053,31.17865 -6.856027,36.7288 -13.059115,5.55004 -15.670946,4.40728 -7.835491,-3.42828 7.835455,-7.83535 9.467858,-14.20161 4.897208,-19.09878 -4.570685,-4.89711 -6.529558,-9.63102 -5.876618,-14.20174 0.65294,-15.67091 7.18248,-25.13875 19.588621,-28.40352 v -428.01173 -0.97947 c -9.141335,-1.95882 -13.712003,-4.8971 -13.712003,-8.81484 0,-3.91771 -1.142671,-6.69277 -3.428014,-8.32517 -2.285343,-1.63241 -2.9383,-3.59128 -1.958872,-5.87662 0.979427,-2.28531 0.32647,-4.40741 -1.958873,-6.3663 -2.285343,-1.95885 -2.775056,-4.24419 -1.469141,-6.85602 1.305915,-2.6118 1.305915,-5.5501 0,-8.8149 -1.305915,-3.26477 -0.652958,-6.20306 1.958872,-8.81485 -3.917745,-2.61183 -6.529575,-5.55013 -7.83549,-8.8149 -1.305915,-3.26477 0,-6.20307 3.917745,-8.8149 9.141371,0.65297 17.303296,0.65297 24.485776,0 v -5.87657 c -6.52954,0 -12.406123,-1.95887 -17.629748,-5.87662 -4.570685,-4.57068 -5.550113,-9.46783 -2.938283,-14.69146 -3.917745,-3.26477 -3.917745,-6.85601 0,-10.77372 -4.570685,-3.26481 -4.897172,-6.85606 -0.979462,-10.77377 -3.26477,-1.95886 -3.26477,-4.2442 0,-6.85603 -5.223625,-1.30591 -8.488395,-3.59126 -9.79431,-6.85603 -1.305915,-3.91775 0.979427,-6.85605 6.856027,-8.8149 H 54.848169 V 89.128307 c 0,-2.61183 -1.305898,-1.632402 -3.917693,2.938283 C 32.647736,124.06138 15.670911,141.03821 0,142.99707 24.159305,102.51388 37.381629,77.864838 39.666972,69.049955 41.952315,60.235072 46.686244,52.399617 53.868759,45.54359 61.051274,38.687562 72.804457,23.506365 89.128307,0 c 7.182515,13.05908 6.529558,25.628464 -1.958872,37.708152 -8.488395,12.079653 -15.017936,21.710719 -19.588621,28.8932 6.52954,-0.65294 9.79431,6.529575 9.79431,21.547545 z"
     id="path1"
     sodipodi:nodetypes="csssssccssssccsssscccsscccccccscscscccssccccccccccccscscccsssssccsssccccsssssssccccccccsscccsscccccccccccccccccccccccccccccccccccccsccccccccccccccscccsccccccccccccccccccccsccsscccccccccccssccccssscscsssccccsssssscscccccccccccsccsscscsc" />
</svg>
