<?xml version="1.0" encoding="UTF-8" standalone="no"?>
<svg
   width="1346"
   height="1800"
   id="svg2"
   version="1.1"
   inkscape:version="1.4.2 (f4327f4, 2025-05-13)"
   sodipodi:docname="1383F.svg"
   xmlns:inkscape="http://www.inkscape.org/namespaces/inkscape"
   xmlns:sodipodi="http://sodipodi.sourceforge.net/DTD/sodipodi-0.dtd"
   xmlns="http://www.w3.org/2000/svg"
   xmlns:svg="http://www.w3.org/2000/svg"
   xmlns:rdf="http://www.w3.org/1999/02/22-rdf-syntax-ns#"
   xmlns:cc="http://creativecommons.org/ns#"
   xmlns:dc="http://purl.org/dc/elements/1.1/">
  <metadata
     id="metadata10">
    <rdf:RDF>
      <cc:Work
         rdf:about="">
        <dc:format>image/svg+xml</dc:format>
        <dc:type
           rdf:resource="http://purl.org/dc/dcmitype/StillImage" />
      </cc:Work>
    </rdf:RDF>
  </metadata>
  <defs
     id="defs8" />
  <sodipodi:namedview
     pagecolor="#ffffff"
     bordercolor="#666666"
     borderopacity="1"
     objecttolerance="10"
     gridtolerance="10"
     guidetolerance="10"
     inkscape:pageopacity="0"
     inkscape:pageshadow="2"
     inkscape:window-width="1680"
     inkscape:window-height="998"
     id="namedview6"
     showgrid="false"
     inkscape:snap-page="true"
     inkscape:zoom="0.19307944"
     inkscape:cx="489.43586"
     inkscape:cy="489.43586"
     inkscape:window-x="-8"
     inkscape:window-y="-8"
     inkscape:window-maximized="1"
     inkscape:current-layer="svg2"
     inkscape:showpageshadow="2"
     inkscape:pagecheckerboard="0"
     inkscape:deskcolor="#d1d1d1"
     showguides="true">
    <sodipodi:guide
       position="0,0"
       orientation="0,-1"
       id="guide3"
       inkscape:locked="false" />
    <sodipodi:guide
       position="267.45779,1631.3438"
       orientation="1,0"
       id="guide4"
       inkscape:locked="false" />
    <sodipodi:guide
       position="0,1800"
       orientation="0,-1"
       id="guide1"
       inkscape:locked="false" />
    <sodipodi:guide
       position="880.19992,1552.4569"
       orientation="1,0"
       id="guide8"
       inkscape:locked="false" />
  </sodipodi:namedview>
  <path
     id="path4"
     style="fill:#000000;stroke:none;stroke-width:1.00103"
     d="M 490.22852 -0.0625 C 482.67272 -0.23715716 475.24212 -1.110223e-16 468.03711 0 C 414.51425 0 369.83342 10.819009 334.02539 32.470703 C 288.57666 59.958257 266.40008 105.41651 267.45703 168.83008 L 316.60156 168.20312 C 316.60156 123.81866 333.51758 89.748425 367.33984 65.974609 C 391.88832 48.707302 425.07171 40.072266 466.88086 40.072266 L 466.88086 40.697266 C 482.67537 40.697266 499.9795 40.225343 517.93164 44.388672 L 868.9082 125.78516 C 962.80486 147.56099 1006.8633 168.42089 1006.8633 210.95508 C 977.26848 210.95508 951.35414 225.2407 929.1582 253.7793 C 918.58848 265.40094 916.21193 272.7858 922.02539 275.95898 C 923.96297 277.06009 926.30129 277.58594 929.00195 277.58594 C 934.40439 277.58594 941.31788 275.46985 949.77344 271.26562 C 969.85531 286.06045 990.47793 321.47384 1011.6172 377.5 L 1010.0215 1771.502 L 822.6582 1771.4922 C 823.0377 1770.7534 823.63263 1769.5721 823.86523 1769.2051 C 829.81653 1746.4193 824.81541 1713.7751 808.75391 1671.1777 L 808.75391 1152.7988 C 807.64641 1085.232 813.73935 1044.2491 827.03125 1029.8496 C 848.07655 965.60583 844.19929 900.25402 815.40039 833.79492 C 847.52229 648.81731 847.52229 512.02217 815.40039 423.41016 C 796.57049 399.04181 789.37193 376.88885 793.80273 356.95117 C 792.69503 346.9823 796.57034 339.22774 805.43164 333.68945 C 855.27594 311.53648 880.19922 272.49496 880.19922 216.55859 C 880.19922 160.62222 844.4767 129.88205 773.0332 124.34375 C 701.5898 118.80545 655.90079 128.22147 635.96289 152.58984 C 616.02529 176.95812 602.72998 201.87961 596.08398 227.35547 C 593.86878 237.3244 591.93103 245.90963 590.26953 253.10938 C 588.60803 260.30911 583.34753 270.00143 574.48633 282.18555 C 565.62503 294.36975 561.74767 302.12235 562.85547 305.44531 C 563.96307 312.09119 568.94935 315.41406 577.81055 315.41406 C 577.81055 319.84461 575.04035 322.61501 569.50195 323.72266 C 568.39445 330.36858 570.05563 334.79837 574.48633 337.01367 C 570.05573 346.98255 571.7171 353.07382 579.4707 355.28906 L 581.13477 376.89062 L 532.19336 486.43555 L 578.86719 507.81055 L 614.36328 388.51953 C 632.08568 387.41185 644.26816 385.74846 650.91406 383.5332 C 653.12946 401.25558 658.11564 416.21033 665.86914 428.39453 C 635.96254 522.54479 614.91868 605.61788 602.73438 677.61523 L 539.5957 677.61523 C 520.8107 655.56308 501.72324 641.70759 482.33594 635.91602 C 482.49934 633.61092 482.67654 631.3047 482.96094 629.05859 C 483.60274 624.1434 484.44735 619.16819 486.49805 614.61914 C 487.09555 613.33009 487.81851 612.08638 488.75391 611.01172 L 508.87305 611.01172 C 511.18795 609.3035 513.46511 607.11592 514.07031 604.18945 C 514.68071 601.44225 513.398 598.66333 511.5957 596.64062 C 510.7941 595.6938 509.86113 594.86919 508.92383 594.06055 L 486.58789 594.06055 C 486.57789 591.07536 486.67485 587.97611 487.87695 585.19531 C 488.13165 584.73104 488.36493 584.12526 488.80273 583.84961 L 510.29297 583.84961 C 512.37817 581.81169 514.32912 579.29538 514.54492 576.2793 C 514.79572 573.36956 513.16871 570.66409 511.09961 568.75 C 510.37681 568.08847 509.61567 567.3962 508.79297 566.90039 L 486.58594 566.90039 C 486.57594 563.6324 486.79814 560.1895 488.43164 557.2793 C 488.62104 556.81985 488.94348 556.56063 489.45508 556.68945 L 508.92188 556.68945 C 511.21458 554.79406 513.42892 552.41084 513.91602 549.36328 C 514.38892 546.55339 513.01944 543.78596 511.11914 541.79297 C 510.44544 541.048 509.68208 540.39415 508.92188 539.74023 L 486.58594 539.74023 C 486.57594 536.47223 486.79814 533.02738 488.43164 530.11719 C 488.62104 529.65773 488.94348 529.39855 489.45508 529.52734 L 508.92188 529.52734 C 511.21477 527.63243 513.42732 525.25176 513.91602 522.20508 C 514.38502 519.4218 513.04477 516.67557 511.17188 514.68945 C 510.48338 513.92255 509.70277 513.24644 508.92188 512.57617 L 461.62305 512.57617 L 461.62305 498.34766 L 461.50586 498.34766 L 461.50586 252.2793 C 461.50586 226.80324 455.96908 214.61703 444.89258 215.72461 C 452.64618 203.54053 463.72179 187.20438 478.12109 166.71289 C 492.52051 146.2214 493.62938 124.89896 481.44531 102.74609 C 453.75426 142.62126 433.81902 168.37359 421.63477 180.00391 C 409.45067 191.63425 401.41792 204.92366 397.54102 219.87695 C 393.66432 234.83023 371.23505 276.64789 330.25195 345.32227 C 356.83565 341.99932 385.63609 313.19871 416.65039 258.92383 C 421.08089 251.17026 423.29687 249.50881 423.29688 253.93945 L 423.29688 512.57617 L 379.26562 512.57617 C 376.97192 514.47147 374.75743 516.85443 374.26953 519.90234 C 373.79703 522.71293 375.16916 525.4802 377.06836 527.47461 C 377.74226 528.21934 378.50633 528.87264 379.26562 529.52734 L 398.99414 529.52734 C 400.93684 531.9116 401.41627 535.10347 401.57227 538.08398 C 401.58927 538.63574 401.6057 539.18812 401.5957 539.74023 L 379.26367 539.74023 C 376.96987 541.63547 374.75518 544.01642 374.26758 547.06445 C 373.79928 549.84677 375.14297 552.59008 377.01367 554.57617 C 377.70257 555.34301 378.48377 556.01836 379.26367 556.68945 L 398.99219 556.68945 C 400.93499 559.07371 401.41246 562.26364 401.56836 565.24414 C 401.58536 565.7959 401.6057 566.3483 401.5957 566.90039 L 379.26172 566.90039 C 376.96802 568.79569 374.75528 571.17865 374.26758 574.22656 C 373.79488 577.03715 375.16721 579.80246 377.06641 581.79688 C 377.74031 582.54161 378.50242 583.19492 379.26172 583.84961 L 399.04102 583.84961 C 401.14292 586.09297 401.63827 589.31959 401.69727 592.27734 C 401.69727 592.87216 401.69666 593.46651 401.66016 594.06055 L 379.29102 594.06055 C 377.00492 595.8249 374.80262 598.10137 374.29102 601.05469 C 373.75722 603.92117 375.15206 606.75329 377.03516 608.83594 C 377.70696 609.62137 378.47407 610.31451 379.23438 611.01172 L 398.91797 611.01172 C 400.84417 613.8115 401.70789 617.17022 402.46289 620.43945 C 403.33499 624.50022 403.83638 628.62135 404.20508 632.75586 L 381.75586 632.75586 C 371.78686 636.07881 367.9098 641.06305 370.125 647.70898 C 372.3404 653.24723 377.87903 657.12454 386.74023 659.33984 C 381.20203 663.7705 381.20203 667.64779 386.74023 670.9707 C 380.09433 677.61658 380.64874 683.7078 388.40234 689.24609 C 381.75654 695.89198 381.75654 701.9871 388.40234 707.52539 C 383.97164 716.38657 385.63312 724.6898 393.38672 732.44336 C 402.24792 739.08927 412.21452 742.41602 423.29102 742.41602 L 423.29102 752.38281 C 411.10692 753.49054 397.26296 753.49054 381.75586 752.38281 C 375.10996 756.81343 372.89397 761.79569 375.10938 767.33398 C 377.32448 772.87219 381.75654 777.85841 388.40234 782.28906 C 383.97164 786.71961 382.86292 791.70585 385.07812 797.24414 C 387.29343 802.78245 387.29343 807.7667 385.07812 812.19727 C 382.86293 816.62792 383.69351 820.50327 387.57031 823.82617 C 391.44671 827.14921 392.55408 830.75024 390.89258 834.62695 C 389.23108 838.50368 390.3401 841.82461 394.2168 844.59375 C 398.0935 847.3629 400.03125 852.07099 400.03125 858.7168 C 400.03125 865.36274 407.78402 870.34704 423.29102 873.66992 L 423.29102 875.33203 L 423.29102 1601.3965 C 402.24572 1606.9348 391.17 1622.9963 390.0625 1649.5801 C 390.9159 1681.9187 422.49756 1703.6978 428.69336 1695.9668 C 434.88916 1688.2357 416.86804 1665.4648 416.64844 1649.5781 C 417.75614 1634.0711 427.68421 1626.3203 443.19141 1626.3203 C 458.69851 1626.3203 466.31244 1634.3627 468.15234 1649.5781 C 469.99224 1664.7936 449.26775 1687.1225 457.68555 1695.9668 C 466.10365 1704.8111 494.20863 1671.8086 494.73633 1649.5781 C 495.26903 1627.1427 483.65896 1606.9351 461.50586 1601.3965 L 461.50586 875.33203 L 581.13281 860.37891 C 584.45581 896.93139 591.10141 958.96055 601.07031 1046.4648 C 611.03921 1133.9694 625.1613 1237.8121 643.4375 1357.9922 C 661.7138 1478.1723 668.63968 1558.7515 664.20898 1599.7344 C 645.37898 1651.7942 586.11623 1697.7611 486.42773 1737.6367 C 456.35983 1737.6367 428.05623 1750.485 428.64453 1769.2051 C 428.66834 1769.9548 429.20175 1770.7172 429.49609 1771.4746 L 267.45703 1771.4668 L 267.45703 1800 L 1125.3125 1800 L 1125.3125 1771.4707 L 1060.7617 1771.4707 L 1060.7617 377.46875 C 1081.9006 321.4426 1102.4921 286.0292 1122.5742 271.23438 C 1130.3249 275.43858 1136.8036 277.55469 1141.9707 277.55469 C 1144.5543 277.55469 1146.8208 276.55959 1148.7578 275.95898 C 1154.5717 272.75578 1152.1631 265.36971 1141.5938 253.74805 C 1119.3978 225.20945 1092.4702 210.95508 1060.7617 210.95508 C 1060.7617 166.5706 1014.6081 109.47123 927.5625 90.875 L 513.17773 2.3457031 C 505.46596 0.69817868 497.78432 0.11215715 490.22852 -0.0625 z M 717.375 147.60547 C 756.1428 147.60547 788.54452 151.20468 814.57422 158.4043 C 840.60412 165.60413 853.61719 186.37178 853.61719 220.70898 C 853.61719 253.93841 842.26344 278.30927 819.55664 293.81641 C 796.84974 309.3235 779.4048 321.50794 767.2207 330.36914 C 747.283 318.18502 733.9917 301.01439 727.3457 278.86133 C 731.7766 272.21545 733.99023 264.46282 733.99023 255.60156 C 733.99023 240.09454 725.68316 232.3418 709.06836 232.3418 C 695.77656 232.3418 686.91703 239.53998 682.48633 253.93945 C 680.27103 239.53998 673.3472 230.40024 661.7168 226.52344 C 650.0866 222.64666 638.73275 219.60393 627.65625 217.38867 C 649.80915 170.86728 679.715 147.60547 717.375 147.60547 z M 607.71875 237.32422 C 617.68765 237.32422 629.87208 239.54008 644.27148 243.9707 C 665.31678 247.29365 676.39415 256.15329 677.50195 270.55273 C 685.25535 270.55273 689.12891 272.77055 689.12891 277.20117 C 678.05241 284.95474 672.51562 292.70738 672.51562 300.46094 C 672.51562 310.42973 676.94935 315.41406 685.81055 315.41406 C 692.45635 315.41406 701.31413 309.87533 712.39062 298.79883 C 719.03652 319.8442 737.3141 339.78323 767.2207 358.61328 C 766.1131 377.44332 769.99036 395.1645 778.85156 411.7793 C 769.99036 421.74811 754.48308 426.45816 732.33008 425.9043 C 710.17708 425.35044 695.50058 421.75131 688.30078 415.10547 C 681.10108 408.45955 675.83852 396.82762 672.51562 380.21289 C 669.19253 373.56699 664.76486 370.24219 659.22656 370.24219 C 649.25766 370.24219 630.42763 371.90366 602.73633 375.22656 C 597.19803 374.11893 594.1491 371.62873 593.5957 367.75195 C 593.0417 363.87517 592.21122 359.16721 591.10352 353.62891 C 604.39542 349.1983 613.2569 343.65961 617.6875 337.01367 C 607.7186 329.26017 599.41358 324.27581 592.76758 322.06055 L 592.76758 315.41211 C 603.84408 313.19687 609.38281 309.87597 609.38281 305.44531 C 606.06001 299.90712 602.18255 297.13867 597.75195 297.13867 C 594.42895 299.35403 593.87259 301.01541 596.08789 302.12305 C 597.19559 304.33833 594.42725 305.72193 587.78125 306.27539 C 581.13535 306.82925 577.8125 306.55294 577.8125 305.44531 C 577.8125 303.23005 578.36691 301.01409 579.47461 298.79883 C 594.98161 275.53824 604.39585 255.04659 607.71875 237.32422 z M 1035.3926 239.48438 C 1060.7591 239.48438 1082.4286 244.2097 1100.3965 253.7793 C 1077.1436 280.19577 1055.4743 316.12258 1035.3926 361.57812 C 1016.3676 316.12257 994.69857 280.19577 970.38867 253.7793 C 988.35668 244.26977 1010.0257 239.48436 1035.3926 239.48438 z M 709.06836 240.65039 C 720.14486 240.65039 725.68359 245.0782 725.68359 253.93945 C 725.68359 261.693 724.30035 268.34071 721.53125 273.87891 C 718.76215 279.41721 713.49764 286.06282 705.74414 293.81641 C 697.99064 301.56997 692.45191 305.4453 689.12891 305.44531 C 685.80611 305.44531 683.59403 304.6166 682.48633 302.95508 C 681.37863 301.29357 681.93128 298.24705 684.14648 293.81641 L 695.77539 282.18555 L 707.4082 272.2168 C 709.6235 271.10913 708.79272 268.61507 704.91602 264.73828 C 701.03932 260.86141 700.76304 257.26238 704.08594 253.93945 C 707.40894 250.6165 710.73159 250.6165 714.05469 253.93945 C 717.37759 257.26238 717.932 261.13967 715.7168 265.57031 C 713.5016 270.00092 707.96276 277.75551 699.10156 288.83203 L 700.76172 290.49219 C 710.73052 279.41568 716.54358 272.21738 718.20508 268.89453 C 719.86658 265.57159 720.70117 260.58542 720.70117 253.93945 C 720.70117 249.50881 716.82176 247.29492 709.06836 247.29492 C 703.53016 247.29492 699.93093 248.40193 698.26953 250.61719 C 696.60793 252.83254 695.77539 255.60088 695.77539 258.92383 C 695.77539 263.35444 698.54774 267.22988 704.08594 270.55273 L 694.11719 277.20117 C 690.79409 269.44761 689.9635 261.41677 691.625 253.10938 C 693.2866 244.80195 699.09936 240.65039 709.06836 240.65039 z M 620.70117 244.5957 C 616.75517 244.7342 612.98271 245.6334 609.38281 247.29492 C 606.06001 251.72554 606.06001 255.0484 609.38281 257.26367 C 620.45951 250.61779 637.62397 255.04571 660.88477 270.55273 L 672.51562 270.55273 L 672.51562 263.9082 L 660.88477 263.9082 C 645.93147 250.61634 632.53927 244.18037 620.70117 244.5957 z M 623.50391 258.92383 C 617.41201 258.92383 613.53259 260.03083 611.87109 262.24609 C 610.20949 264.46136 609.38281 267.22988 609.38281 270.55273 C 609.38281 277.19863 613.25822 280.52344 621.01172 280.52344 C 628.76532 280.52344 638.73387 277.75511 650.91797 272.2168 C 638.73387 263.35557 629.59601 258.92383 623.50391 258.92383 z M 689.12891 293.81641 C 685.80611 294.92405 684.14648 296.58355 684.14648 298.79883 C 684.14648 299.90656 685.80611 301.0154 689.12891 302.12305 C 692.45191 302.12305 694.11719 301.01408 694.11719 298.79883 C 694.11719 296.58346 692.45191 294.92404 689.12891 293.81641 z M 581.13867 328.70703 L 602.73633 332.0293 L 602.73633 333.68945 L 589.44141 332.0293 C 582.79551 333.13684 580.03087 332.02957 581.13867 328.70703 z M 609.38281 338.67578 C 609.38291 339.78341 601.62819 341.99935 586.12109 345.32227 C 583.90559 346.4299 582.79688 346.4299 582.79688 345.32227 C 582.79688 341.99924 584.45835 340.33594 587.78125 340.33594 L 596.08789 340.33594 L 609.38281 338.67578 z M 782.17383 448.33398 C 815.40323 520.33125 810.97351 648.81731 768.88281 833.79492 C 805.43531 904.6846 808.20365 965.05031 777.18945 1014.8945 C 763.89765 1093.5376 759.46774 1215.9345 763.89844 1382.082 C 761.68364 1568.1675 761.12853 1665.0881 762.23633 1672.8418 C 778.85093 1721.5782 777.1878 1747.6089 757.25 1750.9316 L 566.18164 1750.9316 C 621.56404 1727.6708 666.42452 1693.8839 700.76172 1649.5781 C 710.73062 1603.0567 708.79101 1535.2169 694.94531 1446.0508 C 681.09961 1356.8852 661.99525 1220.0877 637.62695 1035.6641 C 613.25865 851.24001 632.08869 657.12415 694.11719 453.31641 C 724.02359 462.1776 753.37483 460.51808 782.17383 448.33398 z M 385.08008 642.72461 C 400.58718 643.83264 413.32797 644.38477 423.29688 644.38477 L 423.29688 652.69531 L 403.35742 652.69531 C 393.38852 651.58761 387.29538 648.26288 385.08008 642.72461 z M 468.15625 649.37109 C 483.66335 651.58639 504.70742 669.30951 531.29102 702.53906 L 597.75195 702.53906 L 596.08789 719.1543 L 567.8418 719.1543 C 535.7199 726.90817 503.04395 729.67623 469.81445 727.46094 C 473.13745 720.81509 472.03254 716.38519 466.49414 714.16992 C 473.13994 713.06229 477.57201 710.8483 479.78711 707.52539 C 482.00241 704.2024 480.34093 700.87762 474.80273 697.55469 C 482.55623 697.55469 486.98615 694.2299 488.09375 687.58398 C 488.09375 683.15335 484.771 679.8305 478.125 677.61523 C 483.6628 674.2922 485.60085 670.6932 483.93945 666.81641 C 482.27795 662.93963 477.01745 659.8969 468.15625 657.68164 L 468.15625 649.37109 z M 400.03516 661 L 469.81445 665.98438 C 474.24505 668.19966 474.24505 670.97199 469.81445 674.29492 L 400.03516 669.31055 C 397.81976 665.98753 397.81976 663.21527 400.03516 661 z M 400.03516 675.95508 L 474.80273 684.26172 C 479.23323 686.47698 479.23323 688.69489 474.80273 690.91016 L 400.03516 684.26172 C 397.81976 680.93882 397.81976 678.17036 400.03516 675.95508 z M 400.03516 692.57227 L 468.15625 699.21484 C 471.47935 702.53777 470.92484 705.31013 466.49414 707.52539 L 400.03516 702.53906 C 397.81976 698.10846 397.81976 694.78754 400.03516 692.57227 z M 401.69727 712.50781 L 449.87891 715.82812 C 453.20181 719.15104 453.20181 721.92341 449.87891 724.13867 L 401.69727 722.47461 C 399.48197 718.044 399.48197 714.7231 401.69727 712.50781 z M 566.18164 742.41602 L 591.10352 742.41602 L 586.12109 793.91992 L 539.59766 793.91992 C 508.58346 766.22863 482.55517 752.38281 461.50977 752.38281 L 461.50977 745.73828 C 491.41627 750.16874 526.30614 749.06186 566.18164 742.41602 z M 437.52148 777.4082 C 473.86628 775.9544 505.12282 789.76596 531.29102 818.8418 L 582.79688 818.8418 L 582.79688 833.79492 L 546.24414 833.79492 C 489.75414 845.9791 452.09357 849.30197 433.26367 843.76367 C 426.61777 836.01011 423.01834 826.596 422.46484 815.51953 C 421.91134 804.44302 421.63477 792.25862 421.63477 778.9668 C 427.03457 778.13606 432.32928 777.61588 437.52148 777.4082 z " />
</svg>
