<?xml version="1.0" encoding="UTF-8" standalone="no"?>
<svg
   width="1346"
   height="1800"
   id="svg2"
   version="1.1"
   inkscape:version="1.4.2 (f4327f4, 2025-05-13)"
   sodipodi:docname="1383F.svg"
   xmlns:inkscape="http://www.inkscape.org/namespaces/inkscape"
   xmlns:sodipodi="http://sodipodi.sourceforge.net/DTD/sodipodi-0.dtd"
   xmlns="http://www.w3.org/2000/svg"
   xmlns:svg="http://www.w3.org/2000/svg"
   xmlns:rdf="http://www.w3.org/1999/02/22-rdf-syntax-ns#"
   xmlns:cc="http://creativecommons.org/ns#"
   xmlns:dc="http://purl.org/dc/elements/1.1/">
  <metadata
     id="metadata10">
    <rdf:RDF>
      <cc:Work
         rdf:about="">
        <dc:format>image/svg+xml</dc:format>
        <dc:type
           rdf:resource="http://purl.org/dc/dcmitype/StillImage" />
      </cc:Work>
    </rdf:RDF>
  </metadata>
  <defs
     id="defs8" />
  <sodipodi:namedview
     pagecolor="#ffffff"
     bordercolor="#666666"
     borderopacity="1"
     objecttolerance="10"
     gridtolerance="10"
     guidetolerance="10"
     inkscape:pageopacity="0"
     inkscape:pageshadow="2"
     inkscape:window-width="1680"
     inkscape:window-height="998"
     id="namedview6"
     showgrid="false"
     inkscape:snap-page="true"
     inkscape:zoom="0.38615887"
     inkscape:cx="1161.4391"
     inkscape:cy="804.07321"
     inkscape:window-x="-8"
     inkscape:window-y="-8"
     inkscape:window-maximized="1"
     inkscape:current-layer="svg2"
     inkscape:showpageshadow="2"
     inkscape:pagecheckerboard="0"
     inkscape:deskcolor="#d1d1d1"
     showguides="true">
    <sodipodi:guide
       position="850.28125,81.0625"
       orientation="0,-1"
       id="guide3"
       inkscape:locked="false" />
    <sodipodi:guide
       position="267.45779,1631.3438"
       orientation="1,0"
       id="guide4"
       inkscape:locked="false" />
  </sodipodi:namedview>
  <path
     id="path4"
     style="fill:#000000;stroke:none"
     d="M 490 -0.0625 C 482.45194 -0.23697826 475.02966 0 467.83203 0 C 414.36399 0 369.72838 10.807983 333.95703 32.4375 C 288.55485 59.896899 266.40117 105.30763 267.45703 168.65625 L 316.55078 168.03125 C 316.55078 123.69223 333.45066 89.655715 367.23828 65.90625 C 391.76161 48.656629 424.90946 40.03125 466.67578 40.03125 L 466.67578 40.65625 C 482.45411 40.65625 499.74203 40.184685 517.67578 44.34375 L 868.29297 125.65625 C 962.09345 147.40978 1006.1055 168.24765 1006.1055 210.73828 C 976.54105 210.73828 950.65367 225.01016 928.48047 253.51953 C 917.92157 265.12927 915.54797 272.50585 921.35547 275.67578 C 923.29107 276.77576 925.62632 277.30078 928.32422 277.30078 C 933.72112 277.30078 940.62732 275.18819 949.07422 270.98828 C 969.13552 285.76796 989.73795 321.14451 1010.8555 377.11328 L 1009.2617 1769.6875 L 881.9375 1769.6875 L 881.9375 1692.0625 L 827.01758 1691.9902 C 832.8918 1670.7685 828.26373 1640.0953 813.13477 1599.9707 L 813.13477 1117.918 C 812.10477 1055.0866 817.77058 1016.9762 830.13086 1003.5859 C 849.70133 943.84459 846.09707 883.07298 819.31641 821.27148 C 849.18712 649.25742 849.18712 522.04833 819.31641 439.64648 C 801.80599 416.98595 795.1104 396.38612 799.23047 377.8457 C 798.20046 368.57547 801.80475 361.36496 810.04492 356.21484 C 856.39604 335.61437 879.57227 299.30533 879.57227 247.28906 C 879.57227 195.27285 846.35451 166.6912 779.91797 161.54102 C 713.48135 156.3909 670.99157 165.14606 652.45117 187.80664 C 633.9107 210.46718 621.55121 233.6415 615.37109 257.33203 C 613.31104 266.60227 611.50792 274.5861 609.96289 281.28125 C 608.41785 287.97645 603.5254 296.98813 595.28516 308.31836 C 587.04498 319.64865 583.4407 326.85917 584.4707 329.94922 C 585.50075 336.12934 590.13481 339.21875 598.375 339.21875 C 598.375 343.33886 595.80051 345.9153 590.65039 346.94531 C 589.62039 353.12549 591.1651 357.24464 595.28516 359.30469 C 591.1651 368.57493 592.70973 374.24078 599.91992 376.30078 L 601.46484 396.38672 L 556.14062 497.97852 L 599.50781 517.83984 L 632.36523 407.20117 C 648.84564 406.17113 660.17724 404.62641 666.35742 402.56641 C 668.41742 419.04681 673.05155 432.95098 680.26172 444.28125 C 652.45108 531.83326 632.88108 609.0854 621.55078 676.03711 L 562.83984 676.03711 C 539.14925 648.22641 514.94325 634.32227 490.22266 634.32227 L 490.22266 280.50781 C 490.22266 256.81723 485.07172 245.48758 474.77148 246.51758 C 481.98166 235.18734 492.28353 219.9949 505.67383 200.93945 C 519.06418 181.88395 520.09395 162.05555 508.76367 141.45508 C 483.01308 178.53595 464.47287 202.48356 453.14258 213.29883 C 441.81228 224.1141 434.34336 236.47554 430.73828 250.38086 C 427.13319 264.2862 406.27495 303.16972 368.16406 367.03125 C 392.88465 363.94118 419.6671 337.15872 448.50781 286.6875 C 452.62786 279.47731 454.6875 277.93262 454.6875 282.05273 L 454.6875 634.32227 L 416.06055 634.32227 C 406.79032 637.41224 403.18603 642.0463 405.24609 648.22656 C 407.30614 653.37673 412.45512 656.98294 420.69531 659.04297 C 415.54519 663.16304 415.54519 666.76745 420.69531 669.85742 C 414.51519 676.03753 415.032 681.70336 422.24219 686.85352 C 416.062 693.03363 416.062 698.69765 422.24219 703.84766 C 418.12207 712.08795 419.66678 719.81324 426.87695 727.02344 C 435.11714 733.20354 444.38727 736.29492 454.6875 736.29492 L 454.6875 745.56445 C 443.35727 746.59455 430.48091 746.59455 416.06055 745.56445 C 409.88039 749.68452 407.82079 754.32053 409.88086 759.4707 C 411.94091 764.62086 416.062 769.25493 422.24219 773.375 C 418.12207 777.49507 417.09033 782.1293 419.15039 787.2793 C 421.21044 792.42947 421.21044 797.06548 419.15039 801.18555 C 417.09033 805.30578 417.86365 808.91003 421.46875 812 C 425.07383 815.09013 426.10362 818.43779 424.55859 822.04297 C 423.01356 825.64799 424.04336 828.73937 427.64844 831.31445 C 431.25354 833.88953 433.05664 838.26717 433.05664 844.44727 C 433.05664 850.62753 440.2672 855.26159 454.6875 858.35156 L 454.6875 859.89648 L 454.6875 1535.0781 C 435.11704 1540.2283 424.81711 1555.1642 423.78711 1579.8848 C 422.75711 1587.095 425.84646 1594.562 433.05664 1602.2871 C 440.26676 1610.0123 437.69232 1620.056 425.33203 1632.416 C 412.97173 1644.7765 417.09088 1646.5773 437.69141 1637.8223 C 458.29188 1629.0671 461.89809 1609.7555 448.50781 1579.8848 C 449.53781 1565.4645 457.77621 1558.2539 473.22656 1558.2539 C 486.61691 1558.2539 494.34227 1565.4645 496.40234 1579.8848 C 486.10204 1609.7555 489.19341 1628.8105 505.67383 1637.0508 C 522.15423 1645.2909 526.53184 1643.7463 518.80664 1632.416 C 511.0815 1621.0858 509.79324 1611.3007 514.94336 1603.0605 C 520.09348 1594.8204 522.1531 1587.095 521.12305 1579.8848 C 521.12305 1555.1642 510.82315 1540.2283 490.22266 1535.0781 L 490.22266 859.89648 L 601.46484 845.99219 C 604.55489 879.98299 610.73562 937.66325 620.00586 1019.0352 C 629.27609 1100.4073 642.40891 1196.9728 659.4043 1308.7305 C 676.39973 1420.4882 682.83692 1495.4225 678.7168 1533.5332 C 661.2064 1581.9444 606.10067 1624.6906 513.39844 1661.7715 C 485.17355 1661.7715 467.12362 1671.6804 459.25195 1691.498 L 413.15625 1691.4375 L 364.03125 1769.0312 L 267.45703 1769.6562 L 267.45703 1798.1562 L 1124.4336 1798.1562 L 1124.4336 1769.6562 L 1059.9492 1769.6562 L 1059.9492 377.08203 C 1081.0665 321.11327 1101.6377 285.73671 1121.6992 270.95703 C 1129.442 275.15693 1135.9124 277.26953 1141.0742 277.26953 C 1143.6552 277.26953 1145.9205 276.27577 1147.8555 275.67578 C 1153.6634 272.47586 1151.2579 265.09803 1140.6992 253.48828 C 1118.526 224.97891 1091.6252 210.73828 1059.9492 210.73828 C 1059.9492 166.39926 1013.8432 109.35843 926.88672 90.78125 L 512.92578 2.34375 C 505.22191 0.69791304 497.54806 0.11197826 490 -0.0625 z M 728.1582 183.17188 C 764.20909 183.17188 794.33742 186.51774 818.54297 193.21289 C 842.74854 199.90809 854.85156 219.22157 854.85156 251.15234 C 854.85156 282.05304 844.29317 304.71442 823.17773 319.13477 C 802.06217 333.55513 785.84 344.88481 774.50977 353.125 C 755.9693 341.79476 743.6098 325.82906 737.42969 305.22852 C 741.54974 299.0484 743.60938 291.8379 743.60938 283.59766 C 743.60937 269.17736 735.88394 261.96875 720.43359 261.96875 C 708.0733 261.96875 699.83301 268.66243 695.71289 282.05273 C 693.65289 268.66243 687.21566 260.16564 676.40039 256.56055 C 665.58512 252.95547 655.0268 250.12256 644.72656 248.0625 C 665.32703 204.80144 693.13738 183.17188 728.1582 183.17188 z M 1034.6055 239.23828 C 1059.946 239.23828 1081.5935 243.95974 1099.543 253.51953 C 1076.3139 279.90895 1054.6666 315.79803 1034.6055 361.20703 C 1015.6 315.79803 993.95297 279.90895 969.66797 253.51953 C 987.61757 244.01974 1009.2646 239.23828 1034.6055 239.23828 z M 626.18555 266.60352 C 635.45578 266.60352 646.78744 268.66308 660.17773 272.7832 C 679.7482 275.87326 690.04813 284.1136 691.07812 297.50391 C 698.28832 297.50391 701.89258 299.56348 701.89258 303.68359 C 691.59234 310.89377 686.44336 318.10426 686.44336 325.31445 C 686.44336 334.58463 690.56254 339.21875 698.80273 339.21875 C 704.98291 339.21875 713.22321 334.06976 723.52344 323.76953 C 729.70361 343.33999 746.69911 361.88022 774.50977 379.39062 C 773.47972 396.90105 777.08399 413.38154 785.32422 428.83203 C 767.04481 449.39609 713.03236 442.91677 701.12109 431.92188 C 694.42594 425.74177 689.53341 414.92697 686.44336 399.47656 C 683.35331 393.29637 679.23215 390.20508 674.08203 390.20508 C 664.81179 390.20508 647.30143 391.75174 621.55078 394.8418 C 616.40066 393.81179 613.5677 391.49375 613.05273 387.88867 C 612.5377 384.28358 611.76638 379.90598 610.73633 374.75586 C 623.09668 370.63574 631.33698 365.48481 635.45703 359.30469 C 626.1868 352.09451 618.46137 347.46044 612.28125 345.40039 L 612.28125 339.21875 C 622.58148 337.15875 627.73047 334.06934 627.73047 329.94922 C 624.64042 324.7991 621.03614 322.22461 616.91602 322.22461 C 613.82597 324.28466 613.31104 325.82938 615.37109 326.85938 C 616.40109 328.91942 613.8266 330.20769 607.64648 330.72266 C 601.4663 331.2377 598.375 330.97922 598.375 329.94922 C 598.375 327.88917 598.88987 325.82958 599.91992 323.76953 C 614.34021 302.13905 623.09543 283.08392 626.18555 266.60352 z M 720.43359 269.69336 C 730.73382 269.69336 735.88281 273.81255 735.88281 282.05273 C 735.88281 289.2629 734.59652 295.44363 732.02148 300.59375 C 729.4464 305.74387 724.55394 311.92461 717.34375 319.13477 C 710.13357 326.34496 704.98263 329.94922 701.89258 329.94922 C 698.80253 329.94922 696.74294 329.17784 695.71289 327.63281 C 694.68289 326.08778 695.19776 323.25489 697.25781 319.13477 L 708.07227 308.31836 L 718.88867 299.04883 C 720.94874 298.01876 720.17546 295.7008 716.57031 292.0957 C 712.96528 288.49062 712.70878 285.14278 715.79883 282.05273 C 718.88888 278.96266 721.97829 278.96266 725.06836 282.05273 C 728.15847 285.14278 728.67333 288.74904 726.61328 292.86914 C 724.55323 296.98928 719.40424 304.19976 711.16406 314.5 L 712.70898 316.04492 C 721.97921 305.74469 727.38661 299.04903 728.93164 295.95898 C 730.47667 292.86892 731.24805 288.2329 731.24805 282.05273 C 731.24805 277.93262 727.64377 275.87305 720.43359 275.87305 C 715.28347 275.87305 711.93566 276.90282 710.39062 278.96289 C 708.8456 281.02294 708.07227 283.59745 708.07227 286.6875 C 708.07227 290.80761 710.64871 294.41384 715.79883 297.50391 L 706.52734 303.68359 C 703.43728 296.47342 702.66591 289.00645 704.21094 281.28125 C 705.75598 273.5561 711.16335 269.69336 720.43359 269.69336 z M 638.25586 273.36328 C 634.58639 273.49203 631.07806 274.32802 627.73047 275.87305 C 624.64042 279.99317 624.64042 283.08251 627.73047 285.14258 C 638.03071 278.96241 653.99643 283.08355 675.62695 297.50391 L 686.44336 297.50391 L 686.44336 291.32422 L 675.62695 291.32422 C 661.72164 278.96392 649.26426 272.97704 638.25586 273.36328 z M 640.86328 286.6875 C 635.19813 286.6875 631.59387 287.71925 630.04883 289.7793 C 628.5038 291.83937 627.73047 294.41384 627.73047 297.50391 C 627.73047 303.68409 631.33668 306.77344 638.54688 306.77344 C 645.75704 306.77344 655.02712 304.19894 666.35742 299.04883 C 655.02712 290.80859 646.52841 286.6875 640.86328 286.6875 z M 701.89258 319.13477 C 698.80253 320.16478 697.25781 321.70946 697.25781 323.76953 C 697.25781 324.79957 698.80253 325.82938 701.89258 326.85938 C 704.98263 326.85937 706.52734 325.82958 706.52734 323.76953 C 706.52734 321.70946 704.98263 320.16478 701.89258 319.13477 z M 601.46484 351.58008 L 621.55078 354.66992 L 621.55078 356.21484 L 609.19141 354.66992 C 603.0113 355.69992 600.43484 354.67013 601.46484 351.58008 z M 627.73047 360.84961 C 627.73047 362.19143 603.00977 368.68685 603.00977 367.03125 C 603.00977 363.94118 604.55637 362.39453 607.64648 362.39453 L 615.37109 362.39453 L 627.73047 360.84961 z M 788.41406 462.82227 C 819.31481 529.77378 815.19563 649.25742 776.05469 821.27148 C 810.04551 887.19305 812.62001 943.32868 783.7793 989.67969 C 773.47907 1062.8115 770.38965 1176.6291 774.50977 1331.1328 C 772.44972 1504.177 771.93483 1594.3055 772.96484 1601.5156 C 786.35519 1646.8367 783.7807 1671.0407 765.24023 1674.1309 L 587.56055 1674.1309 C 639.06177 1652.5003 680.77821 1621.0858 712.70898 1579.8848 C 721.97921 1536.6237 720.17611 1473.5342 707.30078 1390.6172 C 694.42546 1307.7003 676.65661 1180.4913 653.99609 1008.9922 C 631.33555 837.49316 648.84598 656.98166 706.52734 467.45703 C 734.33804 475.69732 761.63347 474.15238 788.41406 462.82227 z M 419.15039 643.5918 C 433.57074 644.62189 445.41732 645.13672 454.6875 645.13672 L 454.6875 652.86133 L 436.14648 652.86133 C 426.87629 651.83123 421.21044 648.74196 419.15039 643.5918 z M 496.40234 649.77148 C 510.82269 651.83151 530.39465 668.31206 555.11523 699.21289 L 616.91602 699.21289 L 615.37109 714.66406 L 589.10547 714.66406 C 559.23477 721.8741 528.84802 724.44871 497.94727 722.38867 C 501.03732 716.20857 500.00754 712.08933 494.85742 710.0293 C 501.03759 708.9992 505.15869 706.93779 507.21875 703.84766 C 509.27876 700.75768 507.7341 697.66809 502.58398 694.57812 C 509.79417 694.57812 513.91331 691.48869 514.94336 685.30859 C 514.94336 681.18836 511.854 678.09715 505.67383 676.03711 C 510.82395 672.94698 512.62511 669.59932 511.08008 665.99414 C 509.53504 662.38912 504.6425 659.55808 496.40234 657.49805 L 496.40234 649.77148 z M 433.05664 660.58789 L 497.94727 665.22266 C 502.06738 667.2827 502.06738 669.8573 497.94727 672.94727 L 433.05664 668.3125 C 430.99658 665.22237 430.99658 662.64792 433.05664 660.58789 z M 433.05664 674.49219 L 502.58398 682.21875 C 506.7041 684.27878 506.7041 686.33841 502.58398 688.39844 L 433.05664 682.21875 C 430.99658 679.12862 430.99658 676.55222 433.05664 674.49219 z M 433.05664 689.94336 L 496.40234 696.12305 C 499.49239 699.21302 498.97754 701.78762 494.85742 703.84766 L 433.05664 699.21289 C 430.99658 695.09266 430.99658 692.00339 433.05664 689.94336 z M 434.60156 708.48438 L 479.4082 711.57422 C 482.49825 714.6642 482.49825 717.2388 479.4082 719.29883 L 434.60156 717.75391 C 432.54149 713.63384 432.54149 710.54441 434.60156 708.48438 z M 587.56055 736.29492 L 610.73633 736.29492 L 606.09961 784.18945 L 562.83984 784.18945 C 533.99913 758.43878 509.79315 745.56445 490.22266 745.56445 L 490.22266 739.38477 C 518.03332 743.50483 550.47966 742.47502 587.56055 736.29492 z M 467.91602 768.83594 C 501.71369 767.48405 530.78087 780.32701 555.11523 807.36523 L 603.00977 807.36523 L 603.00977 821.27148 L 569.01953 821.27148 C 516.48828 832.60175 481.46745 835.69119 463.95703 830.54102 C 457.77687 823.33098 454.42903 814.57557 453.91406 804.27539 C 453.39908 793.97522 453.14258 782.64552 453.14258 770.28516 C 458.16395 769.51264 463.08778 769.02906 467.91602 768.83594 z M 435.3125 1718.9375 L 454.6875 1718.9375 L 806.95508 1718.9375 L 850.28125 1718.9375 L 850.28125 1769.625 L 405.21875 1769.625 L 435.3125 1718.9375 z " />
</svg>
