<?xml version="1.0" encoding="UTF-8" standalone="no"?>
<svg
   width="600"
   height="1000"
   version="1.1"
   id="svg1"
   sodipodi:docname="1383D.svg"
   inkscape:version="1.4.2 (f4327f4, 2025-05-13)"
   xmlns:inkscape="http://www.inkscape.org/namespaces/inkscape"
   xmlns:sodipodi="http://sodipodi.sourceforge.net/DTD/sodipodi-0.dtd"
   xmlns="http://www.w3.org/2000/svg"
   xmlns:svg="http://www.w3.org/2000/svg">
  <defs
     id="defs1" />
  <sodipodi:namedview
     id="namedview1"
     pagecolor="#ffffff"
     bordercolor="#666666"
     borderopacity="1.0"
     inkscape:showpageshadow="2"
     inkscape:pageopacity="0.0"
     inkscape:pagecheckerboard="0"
     inkscape:deskcolor="#d1d1d1"
     showguides="true"
     inkscape:zoom="0.53386562"
     inkscape:cx="-311.87624"
     inkscape:cy="476.71172"
     inkscape:window-width="1680"
     inkscape:window-height="998"
     inkscape:window-x="-8"
     inkscape:window-y="-8"
     inkscape:window-maximized="1"
     inkscape:current-layer="svg1">
    <sodipodi:guide
       position="502.085,847.43789"
       orientation="1,0"
       id="guide8"
       inkscape:locked="false" />
    <sodipodi:guide
       position="64.959961,883.85742"
       orientation="1,0"
       id="guide10"
       inkscape:locked="false" />
  </sodipodi:namedview>
  <path
     id="path10"
     style="fill:#000000;stroke:none;stroke-width:52.7426"
     d="M 92.519531 0 C 76.771499 23.622047 65.124046 38.877809 57.578125 45.767578 C 50.032203 52.657346 45.111042 60.532361 42.814453 69.390625 C 40.517864 78.248888 26.246731 101.37772 0 138.7793 C 15.748032 136.81081 32.808926 119.7499 51.181641 87.597656 C 53.80629 83.004477 55.773595 80.052576 57.085938 78.740234 C 58.39828 77.427927 59.054688 79.725373 59.054688 85.630859 L 59.054688 103.86914 C 48.834893 106.63915 36.792792 117.86261 57.708984 155.51172 C 52.932363 155.51172 47.000948 153.1653 39.835938 148.38867 C 37.447598 156.34977 37.447598 164.30062 39.835938 172.26172 C 47.000948 168.28116 53.388215 165.15005 58.960938 162.76172 C 58.960938 179.48007 57.395392 191.34285 54.210938 198.50781 L 45.835938 198.50781 L 45.835938 205.75586 L 32.712891 205.75586 L 32.712891 214.00586 C 43.062367 215.59802 48.210938 218.39636 48.210938 222.37695 L 32.712891 222.37695 L 32.712891 229.62891 C 42.26623 231.22115 46.962891 234.01945 46.962891 238 L 32.712891 238 L 32.712891 246.375 C 43.062367 249.55947 47.759052 253.92528 46.962891 259.49805 L 37.462891 300.11719 L 55.117188 300.11719 L 55.117188 309.05469 L 30.511719 309.05469 C 24.606198 311.67938 22.308752 314.63323 23.621094 317.91406 C 24.933435 321.1949 27.88729 323.49042 32.480469 324.80273 C 29.855785 327.42741 30.184007 329.72483 33.464844 331.69336 C 29.527853 335.63035 29.85604 339.2387 34.449219 342.51953 C 30.512194 346.45656 30.512194 350.06487 34.449219 353.3457 C 31.824536 358.59503 32.480979 363.51618 36.417969 368.10938 C 42.32349 372.0464 48.555514 374.34385 55.117188 375 L 55.117188 379.92188 C 47.89936 380.57806 39.698077 380.57805 30.511719 379.92188 C 26.574694 382.54654 24.933656 385.49846 25.589844 388.7793 C 27.558339 392.06013 30.512194 395.01398 34.449219 397.63867 C 31.168382 400.9195 30.183787 404.19963 31.496094 407.48047 C 32.808436 410.7613 32.972529 413.7132 31.988281 416.33789 C 31.004034 418.96254 31.660442 421.09589 33.957031 422.73633 C 36.25362 424.37673 36.745936 426.34596 35.433594 428.64258 C 34.121253 430.93914 34.613567 432.90645 36.910156 434.54688 C 39.206745 436.18727 40.517609 438.97707 40.845703 442.91406 C 41.173798 446.85109 45.930864 449.80295 55.117188 451.77148 L 55.117188 452.75586 L 55.117188 882.875 C 41.993839 886.1558 35.433594 895.66994 35.433594 911.41797 C 34.777441 916.01115 36.744712 920.93227 41.337891 926.18164 C 45.931034 931.43093 44.291985 937.82901 36.417969 945.375 C 28.543954 952.92075 31.167633 953.90356 44.291016 948.32617 C 57.414364 942.74871 59.71181 930.44684 51.181641 911.41797 C 51.837794 902.23164 57.087175 897.63672 66.929688 897.63672 C 75.459891 897.63672 80.052831 902.23164 80.708984 911.41797 C 74.803463 930.44684 77.098957 942.58461 87.597656 947.83398 C 98.096355 953.08342 100.72198 952.1006 95.472656 944.88281 C 90.223289 937.66491 89.238694 931.43093 92.519531 926.18164 C 95.800368 920.93227 97.441406 916.01115 97.441406 911.41797 C 97.441406 895.67008 90.879207 886.15594 77.755859 882.875 L 77.755859 452.75586 L 148.62109 443.89844 C 149.93344 465.55199 153.70783 502.46158 159.94141 554.62695 C 166.17502 606.79228 174.54036 668.30765 185.03906 739.17383 C 195.53773 810.03994 199.80248 857.61236 197.83398 881.89062 C 186.67913 912.7305 151.57466 939.96002 92.519531 963.58203 C 67.585142 963.58203 54.790919 975.7218 54.134766 1000 L 276.57422 1000 C 294.29075 989.50133 295.60356 964.23912 280.51172 924.21289 L 280.51172 617.12695 C 280.51172 577.10076 284.12006 552.82123 291.33789 544.29102 C 304.46128 506.23328 302.16579 467.52047 284.44922 428.15039 C 303.47813 318.57032 307.08643 245.40754 295.27539 208.66211 L 295.27539 186.02344 C 297.90007 174.2124 302.16482 168.63483 308.07031 169.29102 C 310.695 169.29102 312.00781 171.58846 312.00781 176.18164 L 308.07031 307.08594 L 345.47266 307.08594 L 335.63086 170.27539 C 334.27207 155.32922 315.51475 148.83733 301.18164 156.00391 C 293.96378 159.61281 287.07339 169.61922 280.51172 186.02344 C 271.98151 170.93156 269.02961 157.48093 271.6543 145.66992 C 272.96664 139.7644 276.24676 135.17147 281.49609 131.89062 C 311.02366 118.76727 325.62301 95.80059 325.29492 62.992188 C 324.96683 30.183781 303.64115 11.974166 261.31836 8.3652344 C 250.73764 7.4630016 241.12197 7.1367506 232.46875 7.3828125 C 206.50909 8.1209982 189.22159 14.024818 180.60938 25.097656 C 169.12643 39.86144 161.41746 54.462747 157.48047 68.898438 C 156.16812 75.460111 155.01941 80.709458 154.03516 84.646484 C 153.05091 88.583474 149.93492 94.161039 144.68555 101.37891 C 139.43622 108.59677 137.13877 113.51793 137.79492 116.14258 C 138.45111 119.42341 141.40497 121.0625 146.6543 121.0625 C 146.6543 123.68719 145.01325 125.65641 141.73242 126.96875 C 141.07627 130.24958 142.0609 132.54507 144.68555 133.85742 C 142.0609 139.76291 142.71731 143.37321 146.6543 144.68555 L 148.62109 157.48047 L 119.28906 222.58789 L 146.90234 235.23438 L 167.32227 164.36914 C 178.47712 163.71295 186.02392 162.73031 189.96094 161.41797 C 190.61709 171.91667 193.56903 180.77433 198.81836 187.99219 C 181.10183 243.76646 168.63583 292.97991 161.41797 335.63086 L 124.01562 335.63086 C 108.92374 318.57045 93.503892 310.03906 77.755859 310.03906 L 77.755859 300.11719 L 92.330078 300.11719 L 82.832031 259.49805 C 82.832031 253.92526 87.651703 249.55947 97.205078 246.375 L 97.205078 238 L 82.832031 238 C 82.832031 234.01942 87.651703 231.22115 97.205078 229.62891 L 97.205078 222.37695 L 82.832031 222.37695 C 82.832031 218.39638 87.651703 215.59804 97.205078 214.00586 L 97.205078 205.75586 L 84.082031 205.75586 L 84.082031 198.50781 L 75.707031 198.50781 C 72.522614 191.34286 70.832031 179.48007 70.832031 162.76172 C 77.997004 165.15006 82.818664 167.04253 85.207031 168.63477 C 87.595382 170.22701 89.612851 171.46561 91.205078 172.26172 C 92.797306 164.30062 92.797306 156.34977 91.205078 148.38867 C 84.83617 153.16523 78.452855 155.51172 72.083984 155.51172 C 95.455869 113.44232 81.681975 105.08368 70.865234 103.45898 L 70.865234 83.662109 C 71.521387 73.819562 70.210525 66.600993 66.929688 62.007812 C 71.522867 54.789986 78.247206 45.111792 87.105469 32.972656 C 95.963768 20.833556 97.768899 9.8425113 92.519531 0 z M 229.33008 21.654297 C 252.29597 21.654297 271.32613 23.785696 286.41797 28.050781 C 301.50985 32.3159 309.05469 44.619726 309.05469 64.960938 C 309.05469 84.645961 302.49249 99.245309 289.36914 108.75977 C 276.24576 118.27418 266.07525 125.65692 258.85742 130.90625 C 247.04638 123.68842 239.17332 113.18969 235.23633 99.410156 C 237.86098 95.473166 239.17383 90.880226 239.17383 85.630859 C 239.17383 76.444501 234.25267 71.849609 224.41016 71.849609 C 216.53615 71.849609 211.2868 76.116279 208.66211 84.646484 L 207.67773 84.646484 C 207.02158 76.116279 203.08309 70.702839 195.86523 68.40625 C 188.6474 66.109695 182.08716 64.304529 176.18164 62.992188 C 189.30499 35.433114 207.02037 21.654297 229.33008 21.654297 z M 163.38672 75.787109 C 169.94843 75.787109 177.49327 76.771739 186.02344 78.740234 C 198.49063 80.708765 205.05283 85.958112 205.70898 94.488281 C 209.64601 94.488281 211.61328 96.129319 211.61328 99.410156 C 205.70776 103.34718 202.75586 107.94012 202.75586 113.18945 C 202.75586 118.43878 205.38153 121.0625 210.63086 121.0625 C 214.56788 121.0625 219.489 117.78237 225.39453 111.2207 C 229.9877 124.34405 240.15825 136.1556 255.90625 146.6543 C 255.2501 157.80915 257.54559 168.63607 262.79492 179.13477 C 252.65347 190.72495 219.78906 187.11085 212.10547 180.60938 C 207.84038 177.00044 204.72435 169.94791 202.75586 159.44922 C 200.78737 155.51223 198.16365 153.87119 194.88281 154.52734 C 188.32114 154.52734 177.16604 155.18375 161.41797 156.49609 C 158.13713 155.83994 156.33197 154.363 156.00391 152.06641 C 155.67582 149.76982 154.85531 147.31023 153.54297 144.68555 C 162.07318 141.40471 167.65074 137.79441 170.27539 133.85742 C 163.71372 129.26424 158.79256 126.31234 155.51172 125 L 155.51172 121.0625 C 162.07339 119.75019 165.35352 118.11111 165.35352 116.14258 C 163.38503 112.20559 161.08952 110.23633 158.46484 110.23633 C 156.49634 111.54867 155.83994 112.5333 156.49609 113.18945 C 157.80844 115.15795 156.3315 116.14258 152.06641 116.14258 C 147.80132 116.14258 145.66992 115.81435 145.66992 115.1582 C 145.66992 113.84585 146.32633 112.53304 147.63867 111.2207 C 156.825 97.441169 162.07438 85.62962 163.38672 75.787109 z M 224.41016 76.771484 C 230.97183 76.771484 234.25195 79.397151 234.25195 84.646484 C 234.25195 89.239663 233.26732 93.176194 231.29883 96.457031 C 229.33034 99.737869 226.05021 103.6744 221.45703 108.26758 C 216.86385 112.86076 213.7459 115.3223 212.10547 115.65039 C 210.46507 115.97845 209.3183 115.48618 208.66211 114.17383 C 208.00596 112.86152 208.33413 111.22048 209.64648 109.25195 L 215.55078 101.37891 L 223.42578 96.457031 C 224.73813 95.14469 224.24585 93.339559 221.94922 91.042969 C 219.65267 88.74638 219.48854 86.614979 221.45703 84.646484 C 223.42552 82.677989 225.2287 82.677989 226.86914 84.646484 C 228.50954 86.614979 228.83777 89.074566 227.85352 92.027344 C 226.86927 94.980087 223.75324 99.737155 218.50391 106.29883 C 225.06558 99.737155 228.83802 95.472401 229.82227 93.503906 C 230.80652 91.535375 231.29883 88.583474 231.29883 84.646484 C 231.29883 82.0218 229.00334 80.708984 224.41016 80.708984 C 221.12933 80.708984 218.99597 81.365392 218.01172 82.677734 C 217.02747 83.990076 216.53516 85.629161 216.53516 87.597656 C 216.53516 90.22234 218.17619 92.847973 221.45703 95.472656 L 215.55078 99.410156 C 213.58229 94.160824 213.08997 89.07557 214.07422 84.154297 C 215.05847 79.233059 218.50464 76.771484 224.41016 76.771484 z M 171.99805 79.478516 C 169.70145 79.478516 167.48607 79.888775 165.35352 80.708984 C 163.38503 83.333668 163.38503 85.30094 165.35352 86.613281 C 171.91519 82.676256 181.75942 85.301923 194.88281 94.488281 L 202.75586 94.488281 L 202.75586 90.550781 L 194.88281 90.550781 C 186.51668 83.168898 178.88782 79.478516 171.99805 79.478516 z M 170.30664 87.998047 C 168.15359 88.059557 166.83 88.58215 166.33789 89.566406 C 165.6817 90.878748 165.35352 92.519786 165.35352 94.488281 C 165.35352 98.425307 167.65096 100.39453 172.24414 100.39453 C 176.83732 100.39453 182.74308 99.081716 189.96094 96.457031 C 182.08693 91.207664 176.34526 88.417903 172.73633 88.089844 C 171.8341 88.007824 171.02432 87.977546 170.30664 87.998047 z M 212.59766 109.25195 C 210.62917 109.25195 209.64648 109.90836 209.64648 111.2207 C 209.64648 112.53304 210.30094 113.18945 211.61328 113.18945 C 213.58177 113.18945 214.89463 112.53304 215.55078 111.2207 C 214.89463 109.90836 213.91 109.25195 212.59766 109.25195 z M 64.960938 116.14258 C 80.706508 116.14258 68.433751 140.81358 64.960938 148.38867 C 61.470739 140.99111 49.215367 116.14258 64.960938 116.14258 z M 148.62109 128.9375 L 161.41797 130.90625 L 161.41797 131.89062 L 152.55859 130.90625 C 149.27775 131.56244 147.96494 130.90599 148.62109 128.9375 z M 164.36914 134.8418 C 164.36914 135.77862 149.60547 139.36921 149.60547 138.7793 C 149.60547 136.81081 150.59006 135.82617 152.55859 135.82617 L 157.48047 136.81055 L 164.36914 134.8418 z M 264.76367 199.80273 C 284.44873 242.45364 281.82503 318.57032 256.89062 428.15039 C 279.20033 470.80131 281.16763 506.56221 262.79492 535.43359 C 254.26475 582.67768 251.31281 655.1841 253.9375 752.95312 C 252.62516 863.84555 252.29699 921.58846 252.95312 926.18164 C 262.79564 954.39687 261.81101 969.48854 250 971.45703 L 139.76367 971.45703 C 172.57208 957.67753 199.14707 937.66474 219.48828 911.41797 C 225.3938 884.51508 224.24508 844.4875 216.04297 791.33789 C 207.84086 738.18831 196.52163 657.15244 182.08594 548.22852 C 167.65025 439.30464 178.47717 324.14693 214.56641 202.75586 C 230.9706 208.00519 247.7033 207.02056 264.76367 199.80273 z M 55.333984 202.13086 L 74.457031 202.13086 L 74.457031 205.75586 L 55.333984 205.75586 L 55.333984 202.13086 z M 50.585938 212.87891 L 79.207031 212.87891 C 76.022578 215.26725 74.457031 218.39635 74.457031 222.37695 L 57.708984 222.37695 C 57.708984 218.39639 55.362583 215.26724 50.585938 212.87891 z M 50.585938 228.37695 L 79.207031 228.37695 C 76.022578 230.76528 74.457031 234.01944 74.457031 238 L 56.585938 238 C 56.585938 234.01943 54.566531 230.76527 50.585938 228.37695 z M 51.835938 245.12695 L 79.207031 245.12695 C 76.022578 248.31136 73.67621 253.12915 72.083984 259.49805 L 80.457031 289.37109 L 49.335938 289.37109 L 57.708984 259.49805 C 57.708984 253.92526 55.816505 249.1075 51.835938 245.12695 z M 32.480469 315.94531 L 55.117188 315.94531 L 55.117188 320.86523 L 43.306641 320.86523 C 37.401155 320.20904 33.79281 318.56996 32.480469 315.94531 z M 81.693359 318.89844 C 90.223528 320.21079 102.68953 331.0377 119.09375 351.37891 L 158.46484 351.37891 L 156.49609 360.23633 L 139.76367 360.23633 C 121.39099 365.48566 102.36279 367.12669 82.677734 365.1582 C 84.646229 361.22117 83.989821 358.92373 80.708984 358.26758 C 84.646009 356.95524 87.269689 355.47833 88.582031 353.83789 C 89.894338 352.19749 88.911696 350.06606 85.630859 347.44141 C 89.567884 347.44141 92.191564 345.47219 93.503906 341.53516 C 93.503906 338.91048 91.534682 336.94317 87.597656 335.63086 C 90.22234 334.31851 91.20697 332.34929 90.550781 329.72461 C 89.894628 327.09992 86.942691 325.1307 81.693359 323.81836 L 81.693359 318.89844 z M 41.337891 325.78711 L 82.677734 329.72461 C 85.302417 330.38076 85.302417 331.69358 82.677734 333.66211 L 41.337891 330.70898 C 40.025549 328.74048 40.025549 327.09945 41.337891 325.78711 z M 41.337891 334.64648 L 85.630859 339.56641 C 88.255542 340.87875 88.255542 342.51979 85.630859 344.48828 L 41.337891 339.56641 C 40.025549 337.59792 40.025549 335.95883 41.337891 334.64648 z M 41.337891 344.48828 L 81.693359 348.42578 C 83.661854 350.39427 83.333668 352.03336 80.708984 353.3457 L 41.337891 351.37891 C 40.025549 348.75426 40.025549 346.45681 41.337891 344.48828 z M 42.322266 356.29883 L 69.882812 358.26758 C 72.507463 360.23607 72.507463 361.8771 69.882812 363.18945 L 42.322266 362.20508 C 40.353771 359.58039 40.353771 357.61117 42.322266 356.29883 z M 139.76367 375 L 154.52734 375 L 151.57422 404.52734 L 124.01562 404.52734 C 104.98676 388.12312 89.5669 379.92187 77.755859 379.92188 L 77.755859 375.98438 C 95.472385 378.60903 116.14162 378.28084 139.76367 375 z M 62.792969 394.74609 C 84.825845 393.88487 103.59176 402.0666 119.09375 419.29102 L 149.60547 419.29102 L 149.60547 428.15039 L 127.95312 428.15039 C 93.832417 436.02441 71.522136 437.99172 61.023438 434.05469 C 57.086413 429.46151 54.790919 423.88394 54.134766 417.32227 C 53.478613 410.7606 53.150391 403.54394 53.150391 395.66992 C 56.431228 395.17779 59.645415 394.86913 62.792969 394.74609 z " />
</svg>
