<?xml version="1.0" encoding="UTF-8" standalone="no"?>
<svg
   width="700"
   height="1000"
   version="1.1"
   id="svg1"
   sodipodi:docname="1383A.svg"
   inkscape:version="1.4.2 (f4327f4, 2025-05-13)"
   xmlns:inkscape="http://www.inkscape.org/namespaces/inkscape"
   xmlns:sodipodi="http://sodipodi.sourceforge.net/DTD/sodipodi-0.dtd"
   xmlns="http://www.w3.org/2000/svg"
   xmlns:svg="http://www.w3.org/2000/svg"
   xmlns:rdf="http://www.w3.org/1999/02/22-rdf-syntax-ns#"
   xmlns:cc="http://creativecommons.org/ns#"
   xmlns:dc="http://purl.org/dc/elements/1.1/">
  <title
     id="title1">C102</title>
  <defs
     id="defs1" />
  <sodipodi:namedview
     id="namedview1"
     pagecolor="#ffffff"
     bordercolor="#000000"
     borderopacity="0.25"
     inkscape:showpageshadow="2"
     inkscape:pageopacity="0.0"
     inkscape:pagecheckerboard="0"
     inkscape:deskcolor="#d1d1d1"
     inkscape:zoom="0.30193643"
     inkscape:cx="336.16347"
     inkscape:cy="418.96236"
     inkscape:window-width="1664"
     inkscape:window-height="1012"
     inkscape:window-x="0"
     inkscape:window-y="0"
     inkscape:window-maximized="0"
     inkscape:current-layer="svg1"
     showguides="true" />
  <path
     id="path1"
     style="fill:#000000;stroke:none;stroke-width:100.203"
     d="M 131.67433,3.9255997e-7 C 119.1339,30.567371 103.85014,54.668579 85.82324,72.303549 67.796337,89.938569 54.864864,108.35683 47.027096,127.5594 39.18929,146.76197 23.513342,182.22899 0,233.95837 c 22.729565,9.40532 39.972237,-7.44623 51.728927,-50.55402 11.75665,-18.02691 20.966335,-28.21606 27.628475,-30.56739 6.662105,-2.35133 11.560587,12.93239 14.69569,45.85108 l 0,292.24705 v 1.17601 c -45.459127,31.35114 -58.391701,49.57439 -38.797243,54.66894 18.305098,4.75934 33.491197,16.97064 45.640071,36.43642 5.60284,38.93549 21.45735,80.65029 47.82612,125.21732 27.82415,47.02669 53.10091,115.9996 75.83048,206.91788 L 134.02634,954.1489 141.08019,1000 h 502.00999 l -59.95879,-72.89155 c 23.5134,-173.99882 35.26923,-304.89004 35.26923,-392.67318 3.91893,-87.7832 2.35219,-170.47202 -4.70185,-248.06607 l -8.22985,-1.17601 c 7.05404,-15.67553 14.49973,-23.51245 22.33754,-23.51245 8.62157,0 12.93276,3.13455 12.93276,9.40476 l -5.87889,213.97175 h 51.72888 L 676.00846,268.73459 c -3.13511,-14.10802 -9.79636,-25.0816 -19.98551,-32.91941 -10.18909,-7.83777 -22.92559,-7.44557 -38.20924,1.17601 -15.28367,8.62153 -27.23679,22.72971 -35.85836,42.32416 L 571.3746,247.57196 c 8.62157,-6.27026 19.9863,-14.89159 34.09432,-25.86447 51.72917,-24.29712 77.3982,-65.44488 77.00649,-123.444475 C 682.08353,40.263414 644.85365,8.1281198 570.78661,1.8579054 496.71956,-4.4123466 449.10551,5.1884655 427.9435,30.661287 c -21.16201,25.472788 -36.83797,51.141811 -47.0271,77.006493 -1.56755,11.75668 -3.33149,21.16248 -5.29093,28.21647 -1.95945,7.05399 -7.64125,17.43926 -17.04661,31.15539 -9.40532,13.71614 -13.32433,22.53359 -11.75677,26.45247 0.78377,5.48644 5.87833,8.22876 15.28369,8.22876 0,5.48647 -3.13561,9.01431 -9.40586,10.58187 0,7.05398 1.56783,11.75635 4.70293,14.10768 -3.91888,10.97292 -2.3511,17.63529 4.70293,19.98663 l 4.70293,22.33754 c -0.25367,2.40991 0.54039,4.33895 1.92778,5.94598 l -52.60379,160.77116 45.78075,9.50587 38.14879,-163.28033 c 0.0984,-0.004 0.84079,-0.011 0.84079,-0.011 18.81067,-1.56756 32.13437,-3.52652 39.97215,-5.87784 3.91888,18.81068 9.01349,34.48667 15.28369,47.02709 -18.81064,24.29716 -33.30993,50.74951 -43.49907,79.3574 -10.18909,28.60793 -17.43982,61.13433 -21.75063,97.58002 -4.31078,36.44567 -6.07362,126.38416 -5.28984,269.81559 l -158.7159,-224.5525 c -9.40535,-13.32424 -20.77011,-23.90449 -34.09431,-31.7423 -18.81069,-23.51331 -41.54015,-32.13578 -68.18864,-25.86556 l -1.1749,-2.35092 0,-288.72122 c -1.56756,-50.9456 -8.22993,-81.51198 -19.98662,-91.70108 8.62158,-18.026901 19.39794,-36.838491 32.3303,-56.432945 C 148.72157,28.607546 147.3499,12.540467 131.67433,3.9255997e-7 Z M 512.59073,21.844531 c 41.54025,0 76.02667,4.115083 103.45895,12.344778 27.43222,8.229654 41.14819,30.370806 41.14819,66.424621 0,36.05381 -12.14817,62.50616 -36.44528,79.3574 -24.29712,16.85125 -42.71651,30.37216 -55.25694,40.56125 -21.16199,-14.10802 -35.66125,-32.91961 -43.49906,-56.43296 5.48644,-7.83776 8.22986,-16.45909 8.22986,-25.86446 0,-15.67557 -9.4058,-23.90467 -28.21648,-24.68845 -13.32425,0 -21.94559,7.44574 -25.86446,22.33754 h -3.52693 c -1.56756,-14.8918 -8.62217,-24.29759 -21.16263,-28.21647 -12.54044,-3.91889 -25.47191,-7.44567 -38.79615,-10.580775 25.86467,-50.161827 59.17446,-75.242474 99.93093,-75.242474 z M 393.84918,119.42454 c 10.18909,0 23.5128,1.96006 39.97216,5.87895 22.72957,4.70266 34.48654,14.10736 35.27032,28.21537 7.83777,0 11.75677,2.74342 11.75677,8.22986 -11.75669,8.62155 -17.63571,17.63511 -17.63571,27.04046 0,8.62155 5.09451,12.93169 15.28369,12.93169 7.05396,0 16.06756,-5.48574 27.04048,-16.45861 7.83781,23.51334 21.94593,43.49943 42.32417,59.95878 3.1351,21.94578 8.62191,41.54073 16.45967,58.78387 -15.67552,20.37823 -31.74372,30.5674 -48.20308,30.5674 -18.81072,0.78377 -31.93826,-4.11578 -39.38415,-14.6968 -7.44588,-10.58099 -13.12881,-26.84422 -17.0477,-48.79001 -0.78378,-6.27021 -4.31052,-9.01359 -10.58078,-8.22985 -10.97287,0 -30.95895,1.56778 -59.95877,4.70293 -6.27021,-2.35137 -9.79809,-5.29086 -10.58186,-8.81786 -0.78378,-3.52699 -1.95937,-8.03324 -3.52693,-13.51968 14.89181,-5.48644 25.08096,-11.75658 30.5674,-18.81062 -11.75669,-8.62154 -21.16139,-14.10837 -28.21539,-16.4597 v -7.05385 c 11.75666,-2.35133 17.63462,-5.48588 17.63462,-9.40476 -2.35133,-6.27021 -5.48588,-9.40585 -9.40476,-9.40585 -4.70267,0.78377 -6.27048,2.35159 -4.70293,4.70292 3.13511,3.13511 0.5878,4.89795 -7.64185,5.28984 -8.2297,0.39188 -12.34478,-0.19536 -12.34478,-1.76292 0,-2.35133 0.78336,-4.70251 2.35092,-7.05384 17.24313,-25.08089 27.43334,-47.02704 30.56849,-65.83772 z m 108.16079,3.52693 c 12.54043,0 18.81061,4.31123 18.81061,12.93278 0,7.8378 -1.56785,14.89132 -4.70293,21.16154 -3.13514,6.2702 -8.62083,13.71595 -16.4586,22.33754 -9.40533,7.83777 -15.48049,11.95288 -18.22372,12.34477 -2.74321,0.3919 -5.0944,-0.19535 -7.05384,-1.76291 -1.95948,-1.56756 -1.37109,-4.7032 1.76402,-9.40586 l 11.75677,-12.93278 14.10769,-10.58076 c 1.56755,-1.56756 0.39196,-4.31098 -3.52693,-8.22986 -3.91889,-3.91892 -4.31111,-7.83789 -1.17601,-11.75677 3.13512,-3.91889 6.66189,-4.31001 10.58078,-1.17491 3.91887,3.1351 4.7033,7.44521 2.352,12.93168 -2.35137,5.48644 -8.62152,14.10891 -18.81062,25.86556 l 2.35093,1.17492 c 10.97291,-11.75665 17.43917,-19.59467 19.39861,-23.51356 1.95945,-3.91892 2.93892,-9.01348 2.93892,-15.28369 0,-6.27021 -4.70233,-9.40476 -14.10768,-9.40476 -4.70271,0 -8.03333,1.3717 -9.99277,4.11492 -1.95944,2.74322 -2.94002,6.46611 -2.94002,11.16878 0,3.13514 2.35226,7.44634 7.05495,12.93277 l -8.22985,5.87785 c -3.91889,-9.40533 -4.89946,-18.22278 -2.94002,-26.45247 1.95944,-8.22966 7.64234,-12.34478 17.04771,-12.34478 z m -94.71474,4.18857 c -4.2618,0.14694 -8.35225,1.10178 -12.27114,2.86528 -3.13511,3.91888 -3.13511,7.05452 0,9.40585 12.54047,-7.05399 30.95983,-1.95943 55.25694,15.2837 h 12.93169 v -7.05385 h -12.93169 c -15.8715,-14.10801 -30.20041,-20.94185 -42.9858,-20.50098 z m 3.01255,16.38606 c -6.27021,-0.39189 -10.18917,0.39143 -11.75677,2.35091 -1.56752,1.95945 -2.35092,4.89897 -2.35092,8.81786 0,6.27021 4.11513,9.40475 12.34479,9.40475 8.22965,0 19.39828,-2.35118 33.50631,-7.05383 -14.8918,-8.62159 -25.47319,-13.12781 -31.74341,-13.51969 z m 71.71555,37.03323 c -3.13506,0 -4.70183,1.56782 -4.70183,4.70293 0,2.35133 1.17564,3.52692 3.52693,3.52692 3.13514,0 5.09405,-1.17559 5.87784,-3.52692 -0.78379,-3.13511 -2.35156,-4.70293 -4.70294,-4.70293 z m -116.39062,36.44523 23.51354,4.70293 h -15.28369 c -6.27025,0 -9.01367,-1.56782 -8.22985,-4.70293 z m 28.21647,10.58186 c 0,1.56756 -7.83794,4.30988 -23.51355,8.22876 -1.56755,0.78381 -2.35201,0.39269 -2.35201,-1.17491 0,-3.1351 1.56778,-4.70292 4.70293,-4.70292 h 8.22985 z m 195.16004,83.47233 5.8789,82.29633 c -51.72932,30.56736 -100.32393,30.9596 -145.7831,1.17601 l 22.33755,-41.14817 c 56.43204,20.37828 95.62089,6.27011 117.56665,-42.32417 z m 1.17599,117.56664 c -0.78383,79.16162 -5.29108,166.94501 -13.52077,263.34976 -8.22968,96.40473 -21.35724,181.83588 -39.38416,256.29479 l 35.2703,18.81065 H 183.40436 l 79.9454,-32.91833 C 239.83642,818.94682 210.44454,734.49514 175.17451,680.8064 139.90448,627.11756 134.02655,592.43496 157.53989,576.75941 c 23.51337,-15.6756 46.63397,-6.66198 69.36354,27.04051 l 158.7159,225.72742 h 39.97215 c -10.1891,-199.0797 -5.87789,-331.53765 12.93278,-397.37502 51.72939,26.64849 102.28293,25.47289 151.66095,-3.52693 z m -460.45733,83.28878 c 18.14936,-1.24913 34.86588,6.64993 50.14955,23.6971 -28.216,0.78378 -47.0265,9.40515 -56.43185,25.86448 -8.62155,-18.81066 -19.20294,-28.60759 -31.7434,-29.39141 -12.540466,-0.78377 -6.074205,-6.07448 19.39862,-15.87169 6.3682,-2.4493 12.57729,-3.88209 18.62708,-4.29848 z"
     sodipodi:nodetypes="cccccscccscsccccccccsccccssccccsscsscccccccccccccsscccccccccssssccscccscsccccssccccscccscccccccssccssscsscccssssccsssssccsssccccccssssscsssscsccscccssccccccccsccccsscccccsccsss" />
  <metadata
     id="metadata1">
    <rdf:RDF>
      <cc:Work
         rdf:about="">
        <dc:title>C102</dc:title>
        <dc:creator>
          <cc:Agent>
            <dc:title>S. J. P. Thomas</dc:title>
          </cc:Agent>
        </dc:creator>
        <dc:description>Modified by S. Rosmorduc - straight beard.
</dc:description>
      </cc:Work>
    </rdf:RDF>
  </metadata>
</svg>
