<?xml version="1.0" encoding="UTF-8" standalone="no"?>
<svg
   width="500"
   height="1000"
   version="1.1"
   id="svg1"
   sodipodi:docname="13892.svg"
   inkscape:version="1.4.2 (f4327f4, 2025-05-13)"
   xmlns:inkscape="http://www.inkscape.org/namespaces/inkscape"
   xmlns:sodipodi="http://sodipodi.sourceforge.net/DTD/sodipodi-0.dtd"
   xmlns="http://www.w3.org/2000/svg"
   xmlns:svg="http://www.w3.org/2000/svg">
  <defs
     id="defs1" />
  <sodipodi:namedview
     id="namedview1"
     pagecolor="#ffffff"
     bordercolor="#666666"
     borderopacity="1.0"
     inkscape:showpageshadow="2"
     inkscape:pageopacity="0.0"
     inkscape:pagecheckerboard="0"
     inkscape:deskcolor="#d1d1d1"
     inkscape:zoom="1.0677312"
     inkscape:cx="325.45643"
     inkscape:cy="327.32956"
     inkscape:window-width="1680"
     inkscape:window-height="998"
     inkscape:window-x="-8"
     inkscape:window-y="-8"
     inkscape:window-maximized="1"
     inkscape:current-layer="svg1"
     showguides="true">
    <sodipodi:guide
       position="500,1000"
       orientation="0,-1"
       id="guide1"
       inkscape:locked="false" />
    <sodipodi:guide
       position="500,0"
       orientation="0,-1"
       id="guide2"
       inkscape:locked="false" />
    <sodipodi:guide
       position="115.19753,653.47085"
       orientation="0,-1"
       id="guide3"
       inkscape:locked="false" />
    <sodipodi:guide
       position="201.98675,871.52318"
       orientation="0,-1"
       id="guide11"
       inkscape:locked="false" />
  </sodipodi:namedview>
  <path
     id="path6"
     style="fill:#000000;stroke:none;stroke-width:55.6398"
     d="m 238.00391,0 c 2.50862,5.6444017 7.83913,13.95447 15.99218,24.929688 8.15302,10.975253 14.42437,26.183177 18.81446,45.625 4.27623,22.85165 14.64707,43.195842 36.68945,52.681642 h -8.4668 c -3.76298,2.50863 -3.76298,4.70252 0,6.58398 h 3.76368 l 1.07812,5.38672 c -14.94591,7.76943 -24.71302,21.34037 -29.30078,40.71094 -3.13579,10.66166 -4.07657,18.50036 -2.82227,23.51758 -5.64438,10.66167 -8.46679,18.18803 -8.46679,22.57812 0,2.50863 2.50812,3.76172 7.52539,3.76172 l -0.93946,4.70508 c 0,1.25429 0.94081,1.88086 2.82227,1.88086 -1.25457,1.88146 -1.56852,3.44884 -0.94141,4.70312 3.13603,1.25429 4.07656,1.88282 2.82227,1.88282 -1.88148,11.91593 3.44904,17.87304 15.99219,17.87304 h 10.34765 c 0.62713,7.52589 3.13726,16.61962 7.52735,27.28125 l -19.75586,-0.9414 c -26.34053,7.52588 -40.76482,20.69701 -43.27344,39.51172 -19.9481,36.11041 -32.57897,64.17108 -43.4043,94.3125 -37.13018,22.65064 -64.74119,41.06904 -89.68359,59.97656 -6.93428,-3.63223 -12.81964,-5.92969 -21.625001,-5.92969 V 273.32971 c -0.07557,-17.64811 7.470341,-29.93436 19.729191,-42.4336 14.49393,-14.77813 31.48289,-35.92804 31.48289,-53.87878 0,-30.37861 -21.61442,-48.54051 -51.888735,-48.54051 -13.869392,0 -24.670197,4.40001 -32.405243,13.20163 -7.734711,8.80194 -12.67037,20.63858 -17.205247,34.80971 -4.015504,12.54813 -10.667635,20.80377 -17.602168,25.60482 -4.268256,6.40239 -3.203096,10.40264 3.198308,12.00169 6.934533,-1.60035 12.803396,-5.46812 17.604462,-11.60247 4.80105,-6.1347 10.402653,-16.67051 16.803739,-31.60681 6.401414,-14.93565 16.235476,-23.20495 29.606149,-23.20495 24.241345,0 32.673545,11.00941 32.673545,29.61434 0,13.30643 -10.81574,26.53219 -26.274635,40.39971 -16.726143,15.00456 -24.370779,32.62709 -25.478116,55.63507 V 471.03125 H 58.832031 c -5.01723,3.76292 -2.821386,8.46693 6.585938,14.11133 -5.644401,2.50865 -7.056576,8.15344 -4.234375,16.93359 2.822201,8.78019 6.742499,13.16992 11.759765,13.16992 v 483.8125 h 19.75586 v -483.8125 c 8.153051,-3.13578 16.344851,-8.00168 25.125001,-14.90039 44.64829,-17.10347 76.93006,-34.39323 112.21875,-58.34961 24.35974,-37.20379 39.42636,-62.7496 54.99805,-97.6875 3.13579,8.15306 0.62766,17.8733 -7.5254,29.16211 3.76293,11.91594 8.30981,18.18729 13.64063,18.81446 5.33085,0.62714 7.99609,3.13724 7.99609,7.52734 -15.6789,116.02382 -25.10027,186.47951 -21.63672,210.72461 9.72594,68.08184 18.18728,106.4588 18.81446,116.17969 0.62713,9.72089 -0.62792,36.84497 -3.76367,81.37304 -3.13578,44.52806 -6.27046,75.88672 -9.40625,94.07422 -2.50861,15.67892 -5.01873,26.33995 -7.52735,31.98438 -10.03453,16.93321 -30.57298,29.32072 -61.61719,37.16015 -31.04419,7.83943 -46.25217,14.89441 -45.625,21.16602 L 170.27148,1000 H 364.0625 c 20.69613,-1.88146 26.02665,-13.79763 15.99219,-35.74805 -1.25434,-15.67891 -0.78293,-27.43796 1.41211,-35.27734 2.19505,-7.83949 3.60524,-16.77607 4.23242,-26.81055 6.27155,-76.51296 8.15316,-134.99571 5.64453,-175.44726 -2.50862,-40.45155 -3.80184,-94.6812 6.58594,-161.33594 4.70937,-30.21838 12.51526,-52.8365 7.52539,-68.67383 -9.48524,-30.10517 -17.56014,-52.99432 -18.81446,-70.55469 l 3.76172,-32.92578 9.40821,-18.81445 c 0.62717,19.44186 4.70266,45.46798 12.22851,78.08008 -2.50862,16.30604 -1.25359,34.65062 3.76367,55.0332 5.01723,20.38258 7.83962,43.11694 8.4668,68.20313 -6.89875,14.42462 -9.72114,25.87129 -8.4668,34.33789 1.25431,8.46655 2.19513,15.20751 2.82227,20.22461 -1.25429,5.01738 -0.94005,8.15408 0.94141,9.4082 1.88146,0.62707 3.29172,-0.62781 4.23242,-3.76367 0.94092,-3.13575 1.41211,-6.89909 1.41211,-11.28907 -0.51348,-4.10809 -1.24731,-12.88291 1.41015,-15.52148 1.62114,-1.61949 3.08619,18.33666 -0.9414,28.69336 -2.19505,5.64438 -4.54606,13.4831 -7.05469,23.51758 0,3.13586 0.78368,4.70312 2.35156,4.70312 1.56804,0 2.03922,-0.62673 1.41211,-1.88086 1.25428,1.25468 2.19515,1.88086 2.82227,1.88086 1.25434,0 1.88086,-0.31238 1.88086,-0.93945 0.62711,0.62929 1.56797,0.93945 2.82226,0.93945 1.25429,0 1.88086,-0.31238 1.88086,-0.93945 1.25429,1.25246 2.50939,1.56652 3.76367,0.93945 1.25429,-0.62706 2.1951,-2.19432 2.82227,-4.70312 0.62718,-6.27155 2.50873,-13.4837 5.64453,-21.63672 3.13575,-8.15301 4.70313,-14.42447 4.70313,-18.81445 -0.53929,-14.03962 -4.14698,-28.0509 -8.4668,-41.39258 7.52589,-52.68109 6.89933,-91.87841 -1.88086,-117.5918 0.62718,-37.0022 -2.19523,-73.06287 -8.4668,-108.18359 l -5.64453,-12.23047 -0.94141,-36.68945 c 0,-78.3945 -6.58366,-127.93864 -19.7539,-148.63477 -4.69087,-7.2495 -9.96181,-13.19416 -15.8125,-17.83399 l 1.70117,-8.50781 h 3.76172 c 3.13581,-1.88146 3.13581,-4.07535 0,-6.58398 h -8.4668 c 23.65616,-9.49292 31.97935,-29.235027 37.63086,-52.681642 4.39005,-19.441823 10.50428,-34.649749 18.34375,-45.625 C 448.57185,13.95447 453.74526,5.6444017 456.25391,0 c -6.27157,1.8814795 -14.89392,8.6241752 -25.86914,20.226562 -9.56112,10.107418 -18.29031,29.138065 -26.18555,57.09375 0.20957,-1.889177 0.31445,-3.830254 0.31445,-5.824218 0,-20.834907 -13.50535,-54.5625 -57.38476,-54.5625 -45.17003,0 -56.44336,35.665087 -56.44336,54.5625 0,2.458181 0.15805,4.835843 0.47656,7.134765 C 282.67946,49.958423 273.5848,30.491192 263.875,20.226562 252.89978,8.6241752 244.27548,1.8814795 238.00391,0 Z m 109.125,28.222656 c 32.41413,0 44.21484,24.727513 44.21484,42.332032 0,25.822935 -19.54031,43.273452 -44.21484,43.273432 -23.56515,0 -45.02468,-16.442458 -44.21485,-43.273432 0.53108,-17.595564 11.79992,-42.332032 44.21485,-42.332032 z m -37.7793,99.716794 h 30.51562 c -9.6773,0.29574 -20.84741,1.56057 -29.54296,5.19141 z m 38.25391,0 h 34.33203 l -1.06446,5.68164 c -3.94866,-2.29302 -19.83467,-5.27425 -33.26757,-5.68164 z m -6.11914,13.16993 c 23.20472,-5e-5 39.51064,6.89984 48.91796,20.69726 12.54315,21.3233 18.81446,68.98582 18.81446,142.99024 v 36.68945 H 353.71484 V 220.13086 c 5.6444,-6.27157 8.30969,-15.67759 7.9961,-28.2207 -0.31359,-12.54311 -8.93789,-16.62057 -25.8711,-12.23047 -10.66163,-8.15306 -25.40016,-11.28772 -44.21484,-9.40625 6.27157,-19.44182 22.89168,-29.16406 49.85938,-29.16406 z m -37.7461,37.74804 c 12.93509,0.23517 22.69416,3.64533 29.2793,10.23047 -1.25435,1.25431 -1.41149,4.70326 -0.4707,10.34766 0.94071,5.6444 0.47132,9.87702 -1.41016,12.69922 -1.88146,2.82222 -2.82227,5.48746 -2.82227,7.99609 0,4.39004 2.19584,6.58594 6.58594,6.58594 3.1358,0 5.32964,-0.94081 6.58399,-2.82227 v 60.20703 h -18.81446 c -5.01726,-10.03446 -8.78043,-21.95058 -11.28906,-35.74804 h -15.99219 c -5.64438,0 -8.77913,-1.88162 -9.40625,-5.64454 1.25431,-5.64439 4.38904,-8.77908 9.40625,-9.40625 0,-3.13575 -0.94079,-4.70507 -2.82226,-4.70507 h -11.28907 c 1.88145,-4.39009 -0.31244,-7.52479 -6.58398,-9.40625 0,-2.50862 3.44895,-10.9758 10.34766,-25.40039 5.01727,-2.50863 8.46619,-3.76368 10.34765,-3.76368 3.13579,0 7.52552,0.94083 13.16992,2.82227 h 9.40821 v -3.76172 h -9.40821 c -5.01723,-2.50863 -9.40694,-3.76367 -13.16992,-3.76367 -3.13579,0 -5.95819,0.31422 -8.46679,0.9414 0.62716,-3.76293 1.56795,-5.9588 2.82226,-6.58593 5.01725,-0.62716 9.68244,-0.90066 13.99414,-0.82227 z m 43.27344,8.28906 c 3.99812,-0.1176 6.23274,2.41189 6.70312,7.58594 -1.88148,15.05173 -8.46705,23.20468 -19.75586,24.45899 3.13579,-8.78019 4.23373,-15.36576 3.29297,-19.75586 -0.94072,-4.39009 0.78374,-8.15332 5.17383,-11.28907 1.72468,-0.62716 3.25323,-0.9608 4.58594,-1 z m -51.41797,5.20508 c -1.15632,-0.0588 -2.32213,-0.0491 -3.49805,0.0293 -4.70369,0.31355 -7.68123,4.54617 -8.93554,12.69922 3.13579,1.88145 6.58473,2.50799 10.34765,1.88086 5.01726,0 8.46622,-2.50812 10.34766,-7.52539 h 14.11133 v -4.70313 h -12.23047 c -3.29254,-1.41111 -6.67362,-2.20447 -10.14258,-2.38086 z m -1.14648,3.32032 c 3.13578,0 5.95817,0.31423 8.46679,0.9414 -1.88146,3.76292 -4.07535,6.2711 -6.58398,7.52539 1.25417,-1.88147 1.72396,-3.76307 1.41015,-5.64453 -0.31359,-1.88146 -1.4115,-2.82231 -3.29296,-2.82226 z m -5.64454,0.9414 c -0.6269,1.88146 -0.93945,3.60595 -0.93945,5.17383 0,1.33564 0.68154,2.32945 2.04688,2.98242 l -3.92774,-1.57031 c 0,-2.50865 0.93886,-4.70449 2.82031,-6.58594 z m -4.70312,101.59961 h 57.38477 v 59.26563 h 50.80078 l -10.34961,22.57812 h -75.25782 c -9.4073,0.62713 -14.11132,-2.50949 -14.11132,-9.4082 15.6789,-30.10349 12.85654,-54.24803 -8.4668,-72.43555 z m 37.62891,105.36133 h 47.97851 c -1.2543,29.47627 2.19461,54.87588 10.34766,76.19922 8.15302,21.3233 9.25095,42.80455 3.29297,64.4414 -5.95797,21.63688 -9.09454,46.09569 -9.40821,73.37696 -0.31367,27.28127 -4.55781,53.42602 -3.29101,78.55078 2.51106,49.80255 3.44855,117.90541 -6.58594,205.08008 h -59.26562 c 11.91597,-102.22641 13.64047,-176.23128 5.17382,-222.01368 -8.4666,-45.78241 -12.91017,-73.06611 -12.70117,-81.84375 1.04541,-43.90638 9.40726,-108.49781 24.45899,-193.79101 z m 0.9414,510.81836 h 21.63672 c 6.72701,28.25338 -8.50766,45.92623 -32.92578,51.74023 -1.88148,-10.6617 1.8817,-27.90835 11.28906,-51.74023 z"
     sodipodi:nodetypes="csccccccccscccccsccccccccssscsccccsscccccsccccccccscsssccsccccscsssccccscscccccscscscscscscccccccccccccscscssscscsssssccccccccscscccsccssccsssccccsccscccsccccsccssccscsssccccccsccccccscccccccccccccssssccssccccc" />
</svg>
