<?xml version="1.0" encoding="UTF-8" standalone="no"?>
<svg
   width="500"
   height="1000"
   version="1.1"
   id="svg1"
   sodipodi:docname="13890.svg"
   inkscape:version="1.4.2 (f4327f4, 2025-05-13)"
   xmlns:inkscape="http://www.inkscape.org/namespaces/inkscape"
   xmlns:sodipodi="http://sodipodi.sourceforge.net/DTD/sodipodi-0.dtd"
   xmlns="http://www.w3.org/2000/svg"
   xmlns:svg="http://www.w3.org/2000/svg">
  <defs
     id="defs1" />
  <sodipodi:namedview
     id="namedview1"
     pagecolor="#ffffff"
     bordercolor="#666666"
     borderopacity="1.0"
     inkscape:showpageshadow="2"
     inkscape:pageopacity="0.0"
     inkscape:pagecheckerboard="0"
     inkscape:deskcolor="#d1d1d1"
     inkscape:zoom="0.3775"
     inkscape:cx="549.66887"
     inkscape:cy="541.72185"
     inkscape:window-width="1680"
     inkscape:window-height="998"
     inkscape:window-x="-8"
     inkscape:window-y="-8"
     inkscape:window-maximized="1"
     inkscape:current-layer="svg1" />
  <path
     id="path1"
     style="fill:#000000;stroke:none;stroke-width:55.6398"
     d="m 238.00391,0 c 2.50862,5.6444017 7.83913,13.95447 15.99218,24.929688 8.15302,10.975254 14.42437,26.183179 18.81446,45.625 4.39009,19.441821 10.03487,32.455882 16.93359,39.041012 6.89871,6.58516 13.48429,11.13201 19.75586,13.64063 h -8.4668 c -3.76298,2.50863 -3.76298,4.70252 0,6.58398 h 3.76368 l 1.07812,5.38672 c -14.94591,7.76943 -24.71302,21.34037 -29.30078,40.71094 -3.13579,10.66166 -4.07657,18.50036 -2.82227,23.51758 -5.64438,10.66167 -8.46679,18.18803 -8.46679,22.57812 0,2.50863 2.50812,3.76172 7.52539,3.76172 l -0.93946,4.70508 c 0,1.25429 0.94081,1.88086 2.82227,1.88086 -1.25457,1.88146 -1.56852,3.44884 -0.94141,4.70312 3.13603,1.25429 4.07656,1.88282 2.82227,1.88282 -1.88148,11.91593 3.44904,17.87304 15.99219,17.87304 h 10.34765 c 0.62713,7.52589 3.13726,16.61962 7.52735,27.28125 l -19.75586,-0.9414 c -26.34053,7.52588 -40.76482,20.69703 -43.27344,39.51172 -21.95047,28.222 -41.70724,56.444 -59.26758,84.66601 -24.56294,10.5166 -65.06884,35.40486 -94.720702,59.73438 -13.170284,-6.89872 -12.521742,-5.66602 -23.810547,-5.66602 V 286.92383 c 12.543111,-33.23924 24.144971,-54.24911 34.806639,-63.0293 6.27157,3.76292 10.81847,4.86087 13.64063,3.29297 2.82224,-1.56789 1.7243,-6.11479 -3.29297,-13.64062 -11.28881,-16.30609 -29.47628,-24.45899 -54.562502,-24.45899 -25.086259,0 -43.273696,8.1529 -54.5624999,24.45899 -5.64440168,7.52584 -7.0546229,12.07273 -4.2324219,13.64062 2.8222011,1.5679 7.6813692,0.46995 14.5800778,-3.29297 10.034497,8.78019 21.32404,29.79006 33.867188,63.0293 V 461.40625 H 35.746094 c -5.01723,3.76292 -2.821387,8.46693 6.585937,14.11133 -5.644401,2.50865 -7.056576,8.15344 -4.234375,16.93359 2.822201,8.78019 6.7425,13.16992 11.759766,13.16992 v 493.4375 h 19.755859 v -493.4375 c 8.153055,-3.13578 16.618288,-8.15207 25.398438,-15.05078 42.564371,-16.38016 81.260891,-41.12326 109.660251,-58.40177 31.98497,-29.47632 53.40135,-51.48489 80.36905,-87.85995 3.13579,8.15306 0.62763,17.8733 -7.5254,29.16211 3.76293,11.91594 8.30981,18.18729 13.64063,18.81446 5.33085,0.62714 7.99609,3.13724 7.99609,7.52734 -15.6789,116.02382 -22.89102,186.2655 -21.63672,210.72461 11.91594,67.73287 18.18728,106.4588 18.81446,116.17969 0.62713,9.72089 -0.62792,36.84497 -3.76367,81.37304 -3.13578,44.52806 -6.27046,75.88672 -9.40625,94.07422 -2.50861,15.67892 -5.01873,26.33995 -7.52735,31.98438 -10.03453,16.93321 -30.57298,29.32072 -61.61719,37.16015 -31.0442,7.83943 -46.25218,14.89441 -45.625,21.16602 L 170.27148,1000 H 364.0625 c 20.69613,-1.88146 26.02665,-13.79763 15.99219,-35.74805 -1.25434,-15.67891 -0.78293,-27.43796 1.41211,-35.27734 2.19505,-7.83949 3.60524,-16.77607 4.23242,-26.81055 6.27155,-76.51296 8.15316,-134.99571 5.64453,-175.44726 -2.50862,-40.45155 -0.31277,-94.23029 6.58594,-161.33594 8.15307,-29.47636 10.6612,-52.3678 7.52539,-68.67383 -11.28884,-29.47632 -17.56016,-52.99432 -18.81446,-70.55469 l 3.76172,-32.92578 9.40821,-18.81445 c 0.62717,19.44186 4.70266,45.46798 12.22851,78.08008 -2.50862,16.30604 -1.25359,34.65062 3.76367,55.0332 5.01723,20.38258 7.83962,43.11694 8.4668,68.20313 -6.89875,14.42462 -9.72114,25.87129 -8.4668,34.33789 1.25431,8.46655 2.19513,15.20751 2.82227,20.22461 -1.25429,5.01738 -0.94005,8.15408 0.94141,9.4082 1.88146,0.62707 3.29172,-0.62781 4.23242,-3.76367 0.94092,-3.13575 1.41211,-6.89909 1.41211,-11.28907 -0.62712,-5.01727 -0.62712,-9.407 0,-13.16992 0.62717,-1.25412 1.09634,-2.03998 1.41015,-2.35156 0.31358,-0.31326 0.78499,0.78417 1.41211,3.29297 0.62712,11.28877 -0.15846,19.75595 -2.35351,25.40039 -2.19505,5.64438 -4.54606,13.4831 -7.05469,23.51758 0,3.13586 0.78368,4.70312 2.35156,4.70312 1.56804,0 2.03922,-0.62673 1.41211,-1.88086 1.25428,1.25468 2.19515,1.88086 2.82227,1.88086 1.25434,0 1.88086,-0.31238 1.88086,-0.93945 0.62711,0.62929 1.56797,0.93945 2.82226,0.93945 1.25429,0 1.88086,-0.31238 1.88086,-0.93945 1.25429,1.25246 2.50939,1.56652 3.76367,0.93945 1.25429,-0.62706 2.1951,-2.19432 2.82227,-4.70312 0.62718,-6.27155 2.50873,-13.4837 5.64453,-21.63672 3.13575,-8.15301 4.70313,-14.42447 4.70313,-18.81445 0,-6.27156 -0.62657,-11.28982 -1.88086,-15.05274 -1.88146,-10.03448 -4.0773,-18.81394 -6.58594,-26.33984 7.52589,-52.68109 6.89933,-91.87841 -1.88086,-117.5918 0.62718,-37.0022 -2.19523,-73.06287 -8.4668,-108.18359 l -5.64453,-12.23047 -0.94141,-36.68945 c 0,-78.3945 -6.58366,-127.93864 -19.7539,-148.63477 -4.69087,-7.2495 -9.96181,-13.19416 -15.8125,-17.83399 l 1.70117,-8.50781 h 3.76172 c 3.13581,-1.88146 3.13581,-4.07535 0,-6.58398 h -8.4668 c 6.27157,-2.50862 13.01426,-7.05547 20.22657,-13.64063 7.2123,-6.58513 13.01419,-19.59919 17.40429,-39.041012 4.39005,-19.441821 10.50428,-34.649745 18.34375,-45.625 C 448.57185,13.95447 453.74526,5.6444017 456.25391,0 c -6.27157,1.8814795 -14.89392,8.6241727 -25.86914,20.226562 -9.56112,10.107418 -18.29031,29.138065 -26.18555,57.09375 0.20957,-1.889177 0.31445,-3.830254 0.31445,-5.824218 0,-14.424556 -5.01629,-27.124355 -15.05078,-38.09961 -10.0345,-10.975219 -24.14647,-16.46289 -42.33398,-16.46289 -18.18751,0 -32.14237,5.487672 -41.86329,16.46289 -9.72094,10.975255 -14.58007,23.675054 -14.58007,38.09961 0,2.458181 0.15805,4.835843 0.47656,7.134765 C 282.67946,49.958423 273.5848,30.49119 263.875,20.226562 252.89978,8.6241727 244.27548,1.8814795 238.00391,0 Z m 109.125,28.222656 c 13.79742,0 24.6156,4.232616 32.45507,12.699219 7.83943,8.466603 11.75977,18.344006 11.75977,29.632813 0,12.54311 -4.23261,22.891908 -12.69922,31.044922 -8.4666,8.15308 -18.97251,12.22851 -31.51562,12.22851 -12.54311,0 -23.20419,-4.07545 -31.98438,-12.22851 -8.78019,-8.153014 -12.85764,-18.501812 -12.23047,-31.044922 0,-11.288807 3.92034,-21.16621 11.75977,-29.632813 7.83947,-8.466603 18.65767,-12.699219 32.45508,-12.699219 z m -37.7793,99.716794 h 30.51562 c -7.70119,0.23535 -15.31498,1.17621 -22.83984,2.82227 -2.32804,0.68472 -4.56197,1.4751 -6.70312,2.36914 z m 38.25391,0 h 34.33203 l -1.06446,5.68164 c -0.58067,-0.3372 -1.16725,-0.66355 -1.75781,-0.97851 -10.66055,-2.82191 -21.16272,-4.38933 -31.50976,-4.70313 z m -6.11914,13.16993 c 23.20473,-10e-6 39.51064,6.89984 48.91796,20.69726 12.54315,21.3233 18.81446,68.98583 18.81446,142.99024 v 36.68945 H 353.71484 V 220.13086 c 5.6444,-6.27157 8.30969,-15.67759 7.9961,-28.2207 -0.31359,-12.54311 -8.93789,-16.62057 -25.8711,-12.23047 -10.66163,-8.15306 -25.40016,-11.28772 -44.21484,-9.40625 6.27157,-19.44182 22.89168,-29.16406 49.85938,-29.16406 z m -37.7461,37.74804 c 12.93509,0.23517 22.69416,3.64533 29.2793,10.23047 -1.25435,1.25431 -1.41147,4.70326 -0.4707,10.34766 0.94072,5.6444 0.47132,9.87702 -1.41016,12.69922 -1.88146,2.82222 -2.82227,5.48746 -2.82227,7.99609 0,4.39004 2.19584,6.58594 6.58594,6.58594 3.1358,0 5.32969,-0.94081 6.58399,-2.82227 v 60.20703 h -18.81446 c -5.01726,-10.03446 -8.78043,-21.95058 -11.28906,-35.74804 h -15.99219 c -5.64438,0 -8.77913,-1.88162 -9.40625,-5.64454 1.25431,-5.64439 4.38904,-8.77908 9.40625,-9.40625 0,-3.13575 -0.94079,-4.70507 -2.82226,-4.70507 h -11.28907 c 1.88145,-4.39009 -0.31244,-7.52479 -6.58398,-9.40625 0,-2.50862 3.44895,-10.9758 10.34766,-25.40039 5.01727,-2.50863 8.46619,-3.76368 10.34765,-3.76368 3.13579,0 7.52552,0.94083 13.16992,2.82227 h 9.40821 v -3.76172 h -9.40821 c -5.01723,-2.50863 -9.40694,-3.76367 -13.16992,-3.76367 -3.13579,0 -5.95819,0.31422 -8.46679,0.9414 0.62716,-3.76296 1.56795,-5.9588 2.82226,-6.58593 5.01725,-0.62716 9.68244,-0.90066 13.99414,-0.82227 z m 43.27344,8.28906 c 3.99812,-0.1176 6.23274,2.41189 6.70312,7.58594 -1.88148,15.05173 -8.46705,23.20468 -19.75586,24.45899 3.13579,-8.78019 4.23373,-15.36576 3.29297,-19.75586 -0.94072,-4.39009 0.78374,-8.15332 5.17383,-11.28907 1.72468,-0.62716 3.25323,-0.9608 4.58594,-1 z m -51.41797,5.20508 c -1.15632,-0.0588 -2.32213,-0.0491 -3.49805,0.0293 -4.70369,0.31355 -7.68123,4.54617 -8.93554,12.69922 3.13579,1.88145 6.58473,2.50799 10.34765,1.88086 5.01726,0 8.46622,-2.50812 10.34766,-7.52539 h 14.11133 v -4.70313 h -12.23047 c -3.29254,-1.41111 -6.67362,-2.20447 -10.14258,-2.38086 z m -1.14648,3.32032 c 3.13578,0 5.95817,0.31423 8.46679,0.9414 -1.88146,3.76292 -4.07535,6.2711 -6.58398,7.52539 1.25417,-1.88147 1.72396,-3.76307 1.41015,-5.64453 -0.31359,-1.88146 -1.4115,-2.82226 -3.29296,-2.82226 z m -5.64454,0.9414 c -0.6269,1.88146 -0.93945,3.60595 -0.93945,5.17383 0,1.33564 0.68154,2.32945 2.04688,2.98242 l -3.92774,-1.57031 c 0,-2.50865 0.93886,-4.70449 2.82031,-6.58594 z m -228.597652,9.4082 c 13.170245,0 24.459827,2.50813 33.867188,7.5254 -12.543111,15.67889 -23.832693,37.00104 -33.867188,63.96874 -10.034496,-26.96769 -21.322123,-48.28985 -33.865234,-63.96874 9.407324,-5.01728 20.694951,-7.5254 33.865234,-7.5254 z m 223.894532,92.19141 h 57.38477 v 59.26563 h 50.80078 l -10.34961,22.57812 h -75.25782 c -9.4073,0.62713 -14.11132,-2.50949 -14.11132,-9.4082 15.6789,-30.10349 12.85654,-54.24803 -8.4668,-72.43555 z m 37.62891,105.36133 h 47.97851 c -1.2543,29.47627 2.19461,54.87588 10.34766,76.19922 8.15302,21.3233 9.25095,42.80455 3.29297,64.4414 -5.95797,21.63688 -9.0944,46.09569 -9.40821,73.37696 -0.31353,27.28127 -1.40955,53.46456 -3.29101,78.55078 5.6444,49.54533 3.44855,117.90541 -6.58594,205.08008 h -59.26562 c 11.91597,-102.22641 13.64047,-176.23128 5.17382,-222.01368 -8.4666,-45.78241 -12.70117,-73.06362 -12.70117,-81.84375 1.25434,-43.90091 9.40726,-108.49781 24.45899,-193.79101 z m 0.9414,510.81836 h 21.63672 c 3.13579,13.17028 1.72557,24.30276 -4.23242,33.39648 -5.95798,9.09372 -15.52311,15.20789 -28.69336,18.34375 -1.88148,-10.6617 1.8817,-27.90835 11.28906,-51.74023 z"
     sodipodi:nodetypes="cssscccccccscccccscccccccccscscscccccsccccccccsccssccsccccscsccccccscscccccccscscscscscssccccccccccccssscscssssscscsssssscssccccccccccscscccsccsscssssccccsccscccsccccsccssccscsssccccccsccccccscccscccsccccccccccssccccsccccscc" />
</svg>
