<?xml version="1.0" encoding="UTF-8" standalone="no"?>
<svg
   width="600"
   height="1000"
   version="1.1"
   id="svg1"
   sodipodi:docname="138CF.svg"
   inkscape:version="1.4.2 (f4327f4, 2025-05-13)"
   xmlns:inkscape="http://www.inkscape.org/namespaces/inkscape"
   xmlns:sodipodi="http://sodipodi.sourceforge.net/DTD/sodipodi-0.dtd"
   xmlns="http://www.w3.org/2000/svg"
   xmlns:svg="http://www.w3.org/2000/svg">
  <defs
     id="defs1" />
  <sodipodi:namedview
     id="namedview1"
     pagecolor="#ffffff"
     bordercolor="#666666"
     borderopacity="1.0"
     inkscape:showpageshadow="2"
     inkscape:pageopacity="0.0"
     inkscape:pagecheckerboard="0"
     inkscape:deskcolor="#d1d1d1"
     inkscape:zoom="0.53386562"
     inkscape:cx="828.86027"
     inkscape:cy="384.92833"
     inkscape:window-width="1680"
     inkscape:window-height="998"
     inkscape:window-x="-8"
     inkscape:window-y="-8"
     inkscape:window-maximized="1"
     inkscape:current-layer="svg1" />
  <path
     id="path1"
     style="fill:#000000;stroke:none;stroke-width:55.636"
     d="M 384.76562 0.029296875 C 380.79426 0.27368998 376.3644 1.9850045 371.47656 5.1621094 C 363.00429 10.375792 358.76758 26.993935 358.76758 55.017578 L 358.76758 114.66602 C 335.10646 115.05344 319.62967 122.54339 312.33398 137.13477 C 304.83926 152.12413 301.41664 163.20224 302.06836 170.37109 C 292.94439 186.66389 288.70767 195.78898 289.35938 197.74414 C 290.01108 201.65442 293.27129 203.93426 299.13672 204.58594 C 295.80979 208.92661 292.88712 209.96855 298.1582 214.36133 C 294.24792 217.61992 294.8996 220.55332 300.11328 223.16016 C 295.55132 234.23925 305.97971 239.7793 331.39648 239.7793 L 331.39648 246.62109 L 297.18164 253.46484 C 285.61952 253.03662 274.76112 257.9549 264.60547 268.21875 C 259.30536 273.57532 254.19598 280.38729 249.2793 288.65625 C 229.48493 324.48839 215.02536 348.22403 204.98047 379.0625 C 166.51005 398.05355 140.99824 419.94911 116.24805 438.71094 C 107.92633 434.33105 102.94103 432.69336 94.53125 432.69336 L 94.53125 206.52539 C 94.53125 179.51635 85.527529 165.32257 67.521484 163.9375 C 72.369278 155.62702 81.37301 145.23718 94.53125 132.77148 C 100.76408 129.30877 105.61347 123.76832 109.07617 116.15039 C 110.50453 109.96082 108.33358 106.88213 102.56055 106.91211 C 99.936435 106.92561 96.567038 107.58235 92.455078 108.88086 C 82.066987 117.19135 68.908863 130.00099 52.980469 147.31445 C 40.514774 157.00999 32.202097 166.7068 28.046875 176.40234 C 27.354327 179.1725 24.586049 185.40404 19.738281 195.09961 C 14.890512 204.79515 8.3104751 224.87987 0 255.35156 C 0.69254796 271.97253 4.8469175 273.7032 12.464844 260.54492 C 24.153052 217.68822 35.48275 196.57719 61.289062 183.67383 C 70.29208 183.67383 74.794922 191.2895 74.794922 206.52539 L 74.794922 432.69336 L 60.25 432.69336 C 55.402231 436.15606 57.48136 441.00541 66.484375 447.23828 C 61.636611 450.0084 60.597032 455.5489 63.367188 463.85938 C 66.137316 472.16985 69.947127 476.67077 74.794922 477.36328 L 74.689453 891.01367 C 74.687153 900.26304 73.568671 908.46885 67.285156 913.32422 C 39.786797 934.5727 41.352399 964.0898 47.9375 997.5293 C 51.571089 1000.172 56.516947 1000.9901 62.792969 1000 C 57.376539 976.4144 51.865455 946.31039 73.208984 929.16992 C 76.181953 926.85754 79.986808 925.71484 84.611328 925.71484 C 89.896413 925.71484 93.863168 926.53078 96.505859 928.18359 C 115.55147 942.74808 113.14091 973.40881 106.42773 999.50586 C 112.70376 1000.8276 117.65158 1000.1742 121.28516 997.5332 C 127.56829 965.63468 130.7064 934.32197 103.41602 913.32617 C 96.543857 908.03909 94.53125 900.78792 94.53125 891.01562 L 94.53125 476.32227 C 102.84169 473.55211 111.15242 468.70662 119.46289 461.78125 C 164.46412 448.29465 196.96136 429.74364 230.81641 403.88086 C 256.6148 368.82244 273.01791 342.08428 285.44922 306.25391 C 290.66294 302.34364 294.89964 308.53337 298.1582 324.82617 L 281.53906 350.24219 C 284.1459 365.88328 294.89918 373.70508 313.79883 373.70508 C 321.61938 384.13248 325.5293 403.68403 325.5293 432.35938 C 325.5293 459.73129 323.4119 483.35518 319.17578 503.23242 C 314.93966 523.10963 312.82227 546.73354 312.82227 574.10547 C 313.47396 609.29792 318.03554 638.29943 326.50781 661.10938 C 334.98006 683.91926 338.88997 724.00087 338.23828 781.35156 C 337.58656 838.70222 335.95844 881.06171 333.35156 908.43359 C 333.35156 936.45724 304.67487 958.94216 247.32422 975.88672 L 229.72852 975.88672 C 229.72852 990.22436 233.96523 997.39258 242.4375 997.39258 C 248.95463 997.39258 254.98191 998.04429 260.52148 999.34766 C 266.06103 1000.651 279.25851 999.99931 300.11328 997.39258 C 309.88896 1000.651 324.3897 1000.651 343.61523 997.39258 C 362.84075 994.13454 378.80723 994.29837 391.51562 997.88281 C 404.224 1001.4672 412.20825 1000.0015 415.4668 993.48438 C 418.72537 986.96726 419.70188 974.91073 418.39844 957.31445 L 418.39844 910.39062 L 422.30859 910.39062 C 425.56716 848.47794 425.24231 802.69586 421.33203 773.04297 C 417.42174 743.39009 416.77011 681.63955 419.37695 587.79297 C 430.0122 559.6409 446.64272 510.96977 426.2207 467.0625 C 404.52957 420.42654 430.33225 367.58061 438.92773 352.19922 L 447.72656 352.19922 C 450.2094 368.49203 454.02668 385.76185 459.17969 404.00977 C 457.12161 420.9543 458.87925 440.01663 464.45312 461.19727 C 470.02693 482.37792 473.56256 506.00379 475.05859 532.07227 C 467.72354 547.06164 462.93164 560.09478 460.68359 571.17383 L 455.57812 594.63672 C 455.25166 597.59226 455.93238 599.1456 457.04883 599.78711 C 454.36678 614.01793 460.69729 635.43077 478.73438 663.48828 C 461.0863 663.48828 443.9312 659.56638 427.26367 651.72266 C 423.34191 662.50748 423.83215 674.26981 428.73438 687.01562 C 443.4409 681.13325 461.08642 679.17344 481.67578 681.13477 L 475.79297 754.66992 L 502.26758 754.66992 L 494.91406 682.60742 C 512.56212 681.62715 530.70164 683.09964 549.33008 687.02148 C 552.27128 675.25617 551.77915 663.488 547.85742 651.72266 C 530.20935 659.56615 513.0523 663.48828 496.38477 663.48828 C 527.82773 615.69482 524.65168 587.95829 500.86914 580.92188 L 499.75586 570.19727 L 493.79102 536.95898 L 492.78125 535.98242 C 498.82878 481.23861 496.85656 440.50536 486.86719 413.78516 C 486.29728 396.18891 485.30808 375.66083 483.89648 352.19922 L 494.65039 352.19922 C 496.60554 338.51327 496.60554 317.98326 494.65039 290.61133 C 492.69527 263.2394 481.94203 234.89149 462.39062 205.56445 L 476.07617 201.6543 L 429.15234 144.95508 C 434.36606 141.69649 436.97266 137.94902 436.97266 133.71289 C 436.97266 129.47677 435.18014 126.54334 431.5957 124.91406 C 428.01129 123.28477 424.59058 123.77401 421.33203 126.38086 C 418.07347 128.9877 416.44336 132.57277 416.44336 137.13477 C 407.91779 125.60019 394.95435 118.50227 377.55273 115.84375 C 382.88671 110.43718 390.63693 106.13019 400.80273 102.91992 L 387.11719 47.197266 C 386.46547 42.635303 389.39889 38.073719 395.91602 33.511719 C 405.03998 27.646318 406.66814 20.151307 400.80273 11.027344 C 396.72953 3.2882435 391.38459 -0.37802496 384.76562 0.029296875 z M 385.14648 10.175781 C 388.17084 10.336171 390.78289 12.250135 392.98242 15.916016 C 395.58926 21.129698 393.30751 25.364486 386.13867 28.623047 C 378.31811 32.533327 375.71148 39.051819 378.31836 48.175781 L 389.07227 97.052734 C 381.25174 98.356173 374.40836 102.26804 368.54297 108.78516 L 368.54297 48.175781 C 368.54297 27.972698 371.47641 16.240983 377.3418 12.982422 C 380.19304 10.986563 382.79421 10.051034 385.14648 10.175781 z M 358.76758 125.41992 L 358.76758 140.06641 L 323.57422 140.06641 C 328.61191 130.62071 340.34385 125.73877 358.76758 125.41992 z M 370.3418 125.7793 C 386.45379 127.09424 398.88922 131.85643 407.64648 140.06641 L 369.52148 140.06641 L 369.52148 129.3125 C 369.52148 128.24394 369.7943 127.06684 370.3418 125.7793 z M 319.66406 149.8418 L 358.76758 149.8418 L 358.76758 159.61719 L 369.52148 159.61719 L 369.52148 149.8418 L 414.48828 149.8418 L 373.43164 230.00391 L 392.98242 236.8457 L 420.35352 162.55078 C 458.15285 217.9463 478.03121 257.21189 479.98633 280.34766 C 481.94144 303.48347 481.94144 323.52423 479.98633 340.46875 L 443.81641 340.46875 L 451.63672 319.93945 C 464.01924 313.42232 470.21094 301.69061 470.21094 284.74609 C 470.21094 271.06014 463.20517 261.44777 449.19336 255.9082 C 435.18156 250.36868 417.42254 247.59961 395.91602 247.59961 L 395.91602 242.71094 L 387.11719 242.71094 L 387.11719 352.19922 L 362.67773 352.19922 L 362.67773 227.07031 C 362.67773 218.59804 364.63268 210.12655 368.54297 201.6543 C 375.06009 190.57518 378.31836 181.45009 378.31836 174.28125 C 378.31836 167.11244 374.40846 163.52734 366.58789 163.52734 C 358.76734 163.52734 354.85742 168.74252 354.85742 179.16992 L 352.90234 179.16992 C 351.5989 166.78736 346.54813 159.61723 337.75 157.66211 C 328.95191 155.707 321.94613 154.73047 316.73242 154.73047 L 319.66406 149.8418 z M 321.92578 160.32031 C 337.60762 160.74801 346.30292 168.65996 348.01367 184.05664 L 361.70117 184.05664 C 361.04945 176.23612 361.86353 171.67453 364.14453 170.37109 C 366.42553 169.06768 368.21807 169.39449 369.52148 171.34961 C 370.82491 173.30474 368.38073 181.28699 362.18945 195.29883 C 355.99821 209.31063 352.90234 218.92304 352.90234 224.13672 L 352.90234 264.21875 C 343.77834 261.6119 339.54165 250.85863 340.19336 231.95898 L 325.5293 231.95898 C 313.14678 231.95898 306.95703 230.00207 306.95703 226.0918 C 306.95703 222.83323 307.93354 220.2266 309.88867 218.27148 L 317.70898 216.31641 L 317.70898 211.42969 L 304.02344 210.45117 C 305.97856 206.54089 306.46779 203.44502 305.49023 201.16406 C 304.51267 198.88306 301.74364 197.74414 297.18164 197.74414 C 301.09191 187.31673 304.67502 179.49496 307.93359 174.28125 C 309.88871 171.67441 312.6597 170.04621 316.24414 169.39453 C 319.82854 168.7428 329.11416 171.02264 344.10352 176.23633 L 344.10352 173.30469 C 340.19328 172.00124 335.46925 170.04629 329.92969 167.43945 C 324.39013 164.83261 318.68767 163.85418 312.82227 164.50586 L 314.77734 160.5957 C 317.30273 160.35131 319.68552 160.25921 321.92578 160.32031 z M 319.66406 171.34961 C 315.75379 171.34961 312.98472 172.81533 311.35547 175.74805 C 309.72615 178.68074 308.58527 180.14648 307.93359 180.14648 L 305.97852 180.14648 L 305.97852 183.08008 L 306.95703 183.08008 C 307.60875 183.08008 309.23691 183.56931 311.84375 184.54688 C 320.77379 187.89559 328.48974 184.69639 334.32812 182.10156 L 344.10352 183.08008 L 344.10352 180.14648 L 334.32812 180.14648 C 329.11444 174.28107 324.22606 171.34961 319.66406 171.34961 z M 316.73242 176.23633 C 314.63771 177.62908 314.38922 181.44411 317.21289 182.95117 C 314.91769 182.7021 312.80325 182.09305 310.86719 181.125 C 311.51891 181.125 312.33298 180.30898 313.31055 178.67969 C 314.2881 177.05042 315.42897 176.23633 316.73242 176.23633 z M 323.57422 176.23633 C 324.87762 176.23633 327.48619 177.86644 331.39648 181.125 C 328.5133 182.08607 325.62972 182.69289 322.74609 182.94531 C 325.43867 181.37341 324.66389 177.32602 323.57422 176.23633 z M 333.35156 255.41992 C 334.65501 263.89217 341.1715 269.43219 352.90234 272.03906 L 352.90234 312.11914 C 335.95781 312.11914 321.6195 300.71419 309.88867 277.9043 L 305.97852 261.28516 L 333.35156 255.41992 z M 405.69141 255.96875 C 415.95587 256.09094 427.68563 257.86366 440.88281 261.28516 L 435.01758 277.9043 C 433.71414 283.76971 430.12907 291.10036 424.26367 299.89844 C 418.39826 308.69656 408.95025 312.77086 395.91602 312.11914 L 395.91602 256.39648 C 399.01165 256.07062 402.26992 255.92802 405.69141 255.96875 z M 317.70898 306.25391 C 324.2261 316.02959 335.95781 321.56768 352.90234 322.87109 L 352.90234 360.99805 L 395.91602 360.99805 L 395.91602 322.87109 C 409.60198 321.56768 417.42184 319.28785 419.37695 316.0293 L 394.9375 373.70508 L 345.08203 373.70508 L 317.70898 306.25391 z M 306.95703 327.75977 L 317.70898 365.88477 C 304.02302 367.18818 295.22474 362.62659 291.31445 352.19922 L 306.95703 327.75977 z M 338.23828 386.41406 L 405.69141 386.41406 C 397.29448 406.00685 397.52023 444.00279 409.60156 469.50781 C 424.40756 500.76504 417.75309 542.91708 408.62305 567.26367 C 402.75746 582.90476 399.66159 619.40126 399.33594 676.75195 C 399.01006 734.10264 400.64018 777.1157 404.22461 805.79102 C 407.80902 834.46635 407.31977 863.14105 402.75781 891.81641 L 351.92383 891.81641 C 355.1824 861.83764 356.8125 819.80307 356.8125 765.71094 C 356.8125 722.69793 352.90259 689.45969 345.08203 665.99805 C 337.26146 642.53644 332.86232 616.79513 331.88477 588.77148 C 330.9072 560.74783 332.86216 532.23358 337.75 503.23242 C 342.63785 474.23121 345.08203 452.88911 345.08203 439.20312 C 345.08203 422.2586 342.80025 404.66199 338.23828 386.41406 z M 496.14844 593.05078 C 511.30415 599.33652 503.3431 624.88867 487.56055 651.72266 C 473.97326 631.33685 466.76328 610.44474 472.14062 599.45508 C 473.39062 599.00892 474.48236 598.17664 475.20898 597.08008 C 477.88971 599.36153 480.17655 599.52341 482.06836 597.56836 C 483.9602 595.61332 485.90501 595.28843 487.90234 596.5918 C 489.89966 597.89516 492.3776 597.13722 495.1543 594.14648 C 495.48123 593.79435 495.81466 593.42819 496.14844 593.05078 z M 341.17188 910.39062 L 360.72266 910.39062 L 360.72266 949.49219 C 348.99186 959.91963 326.83366 968.71788 294.24805 975.88672 L 276.65234 975.88672 C 277.30406 983.05563 278.93221 987.29234 281.53906 988.5957 C 273.06681 990.55075 266.22348 990.87759 261.00977 989.57422 C 255.79609 988.27085 250.58287 987.61914 245.36914 987.61914 C 240.80717 987.61914 238.52734 986.31571 238.52734 983.70898 L 247.32422 983.70898 L 284.47266 970.02148 C 322.27199 957.63895 341.17187 937.76257 341.17188 910.39062 z M 368.54297 910.39062 L 376.36328 910.39062 L 376.36328 932.875 C 376.36328 940.04399 373.75665 944.6055 368.54297 946.56055 L 368.54297 910.39062 z M 385.16211 910.39062 L 409.60156 910.39062 L 409.60156 958.29102 C 412.2084 977.19055 410.90509 987.45459 405.69141 989.08398 C 400.47772 990.71323 389.39767 988.92266 372.45312 983.70898 C 361.37401 985.01235 349.15499 986.64066 335.79492 988.5957 C 322.43479 990.55075 313.14727 990.87759 307.93359 989.57422 C 302.71987 988.27085 297.50665 987.61914 292.29297 987.61914 C 287.73097 987.61914 285.44922 986.31571 285.44922 983.70898 L 294.24805 983.70898 L 340.19336 970.02148 C 347.36221 966.76291 354.20554 963.17981 360.72266 959.26953 C 377.01546 952.75237 385.16211 944.27889 385.16211 933.85156 L 385.16211 910.39062 z " />
</svg>
