<?xml version="1.0" encoding="UTF-8" standalone="no"?>
<svg
   width="1000"
   height="2000"
   version="1.1"
   id="svg1"
   sodipodi:docname="138FB.svg"
   inkscape:version="1.4.2 (f4327f4, 2025-05-13)"
   xmlns:inkscape="http://www.inkscape.org/namespaces/inkscape"
   xmlns:sodipodi="http://sodipodi.sourceforge.net/DTD/sodipodi-0.dtd"
   xmlns="http://www.w3.org/2000/svg"
   xmlns:svg="http://www.w3.org/2000/svg">
  <defs
     id="defs1" />
  <sodipodi:namedview
     id="namedview1"
     pagecolor="#ffffff"
     bordercolor="#666666"
     borderopacity="1.0"
     inkscape:showpageshadow="2"
     inkscape:pageopacity="0.0"
     inkscape:pagecheckerboard="0"
     inkscape:deskcolor="#d1d1d1"
     inkscape:zoom="0.755"
     inkscape:cx="415.23179"
     inkscape:cy="151.65563"
     inkscape:window-width="1680"
     inkscape:window-height="998"
     inkscape:window-x="-8"
     inkscape:window-y="-8"
     inkscape:window-maximized="1"
     inkscape:current-layer="svg1" />
  <path
     id="path1"
     style="fill:#000000;stroke:none;stroke-width:111.28"
     d="M 663.42383,0 C 522.99559,0 469.94531,116.74804 469.94531,186.95703 c 0,100.27256 67.17404,148.39331 113.04492,169.56445 -50.72462,13.04353 -88.76851,32.60839 -114.13085,58.69532 -25.36235,26.08692 -38.04297,64.49406 -38.04297,115.21875 -5.79711,20.28985 -6.52164,39.85477 -2.17383,58.69531 -21.73916,37.68122 -32.60938,63.76708 -32.60938,78.25976 0,7.2464 9.4211,11.59562 28.26172,13.04493 l -2.17383,17.39062 c 1.4493,2.89854 4.34755,5.07226 8.69532,6.52149 -2.89853,5.79708 -3.62314,10.14435 -2.17383,13.04296 10.14514,7.24644 13.76764,10.8711 10.86914,10.8711 -7.24639,39.13039 7.97119,57.97071 45.65234,56.52148 h 41.30469 c 2.89853,26.08693 17.38957,60.14483 43.47656,102.17383 -38.42305,50.39948 -77.82957,100.22928 -107.60742,156.52147 -23.91303,42.029 -19.20252,84.0571 14.13086,126.086 10.14492,130.4348 -10.1464,251.4506 -60.87109,363.0449 L 208.51562,1244.9043 c -29.75876,-41.3447 -83.96805,-61.8266 -141.031245,-43.625 -55.54881,17.7185 -79.916065,82.0192 -61.3261719,142.1445 100.8053769,326.0352 159.9295569,497.8178 157.2656269,521.793 -4.34784,28.9856 -23.54947,53.9855 -57.60742,75 C 71.758477,1961.2311 62.700574,1981.1593 78.642578,2000 H 856.90234 c 26.08699,-13.0434 26.08699,-31.1591 0,-54.3477 -68.11596,-82.6086 -90.21771,-161.956 -66.30468,-238.0429 36.84644,-117.2387 64.13086,-476.2874 64.13086,-548.9141 h 71.74023 V 1030.4355 C 929.36729,726.08767 909.80048,536.23144 867.77148,460.86914 835.88741,402.89814 796.03311,368.11571 748.20703,356.52148 811.89714,329.70478 853.84528,254.80571 854.72852,186.95703 855.64528,116.53365 789.77041,0 663.42383,0 Z m -0.54297,28.261719 c 22.82608,0 46.19633,5.071837 70.10937,15.216797 L 665.59766,110.86914 596.0332,43.478516 c 21.73912,-10.14496 44.02158,-15.216797 66.84766,-15.216797 z m 94.02148,34.78125 c 13.04346,7.246384 23.91369,18.116607 32.60938,32.609375 l -91.30469,93.478516 91.30469,91.30469 c -8.69569,15.942 -20.29044,27.53487 -34.7832,34.78125 l -91.30469,-91.30469 -89.12891,89.13086 c -15.94207,-8.69569 -26.81225,-20.28849 -32.60937,-34.78125 l 86.95703,-89.13086 -91.30469,-93.478516 c 5.79708,-14.492768 16.66535,-24.638395 32.60742,-30.435547 l 93.47852,91.304683 z m -241.30468,54.347651 67.39257,69.56641 -67.39257,67.39063 c -18.84054,-47.82608 -18.84054,-93.47872 0,-136.95704 z m 293.47851,4.34766 c 20.28993,46.37677 20.28993,91.30498 0,134.7832 l -67.39062,-67.39062 z m -143.47851,143.47852 67.39257,67.39258 c -43.47822,20.28984 -88.40636,20.28983 -134.7832,0 z m -5.97657,122.82617 c 15.21739,-0.36232 30.97691,9.3e-4 47.28125,1.08789 65.21738,4.34784 111.59456,49.27402 139.13086,134.78125 27.53624,85.50722 39.85564,282.60902 36.95703,591.30469 H 637.33789 V 671.73828 c 8.69562,-13.04353 19.92719,-31.15926 33.69531,-54.34766 13.76807,-23.18836 19.92783,-47.10059 18.47852,-71.73828 -1.44923,-24.63769 -15.94229,-36.95703 -43.47852,-36.95703 -21.73916,0 -34.78305,13.04393 -39.13086,39.13086 -1.44923,-20.28985 -13.40533,-35.50741 -35.86914,-45.65234 -22.46372,-10.14492 -57.60946,-7.97128 -105.43554,6.52148 0,-46.37684 23.91415,-78.98563 71.74023,-97.82617 35.86955,-14.13046 76.63104,-21.73922 122.2832,-22.82617 z M 522.81641,523.25 c 11.0394,-0.37363 21.31529,0.93468 30.82617,3.92383 25.36234,7.97096 37.31844,25.72548 35.86914,53.26172 h 30.43359 c 4.34784,-24.63769 12.31991,-36.95703 23.91407,-36.95703 11.59421,0 13.76787,12.31934 6.52148,36.95703 L 596.0332,667.39062 V 850 l -6.52148,2.17383 c -5.79715,-8.6957 -12.3201,-20.29044 -19.56641,-34.78321 -7.24642,-14.49269 -12.31829,-33.33302 -15.21679,-56.52148 H 496.0332 c -20.28984,0 -30.43554,-6.521 -30.43554,-19.56445 1.44923,-20.28985 10.87041,-31.88471 28.26172,-34.78321 0,-10.14492 -2.8982,-15.21679 -8.69532,-15.21679 l -39.13086,-2.17383 c 7.24631,-14.49277 -0.72373,-24.63844 -23.91211,-30.43555 0,-10.14493 10.86827,-33.33253 32.60743,-69.56445 v -30.43555 l 6.52148,8.69531 c 15.94201,-8.69572 28.98594,-13.04296 39.13086,-13.04296 10.14492,0 25.3625,2.17367 45.65234,6.52148 h 34.78321 V 547.82617 H 546.0332 c -18.84054,-7.24642 -34.78263,-10.86914 -47.82617,-10.86914 -13.04346,0 -27.53651,5.79641 -43.47851,17.39063 0,-7.24638 2.17364,-12.31826 6.52148,-15.2168 22.64491,-9.96375 43.1674,-15.25814 61.56641,-15.88086 z m -25.69532,39.38672 c -3.9855,-0.0906 -7.97153,0.0439 -11.95703,0.40625 -15.942,1.44931 -26.81223,15.21769 -32.60937,41.30469 10.14492,7.24631 23.18879,10.14454 39.13086,8.69531 15.94201,0 28.26134,-8.69463 36.95703,-26.08594 h 52.17383 v -17.39258 h -47.82618 c -11.95655,-4.34781 -23.91262,-6.65597 -35.86914,-6.92773 z m -3.26171,9.10156 c 11.59422,0 21.73992,2.1756 30.43554,6.52344 -5.79708,11.59415 -13.04461,19.5643 -21.74023,23.91211 2.90759,-5.81615 9.63035,-23.10545 -8.69531,-30.43555 z m -19.56446,4.34961 c -6.41608,14.20637 -5.31193,22.36196 4.34766,28.25977 L 461.25,600 c 2.89851,-8.69562 7.2478,-16.66569 13.04492,-23.91211 z M 596.0332,934.7832 v 223.9121 h 208.69532 c 0,79.7101 -6.88423,176.4506 -20.65235,290.2188 -13.76811,113.7681 -31.15933,209.782 -52.17383,288.0429 -21.01442,78.2608 -6.88281,142.754 42.39258,193.4785 H 196.0332 c 13.04346,-14.4926 21.74008,-38.4067 26.08789,-71.7402 4.34778,-33.3332 -10.14521,-90.5789 -43.47851,-171.7383 L 50.380859,1319.5645 c -12.027841,-34.4526 -7.876246,-66.5415 34.044922,-82.0645 41.921169,-15.5231 74.643839,13.0829 100.738279,49.457 l 215.2168,300 c 36.23191,30.4348 60.8706,18.8401 73.91406,-34.7832 46.3768,-108.6957 63.76806,-239.8553 52.17383,-393.4785 -46.37684,-49.2754 -23.18924,-123.912 69.56445,-223.9121 z"
     sodipodi:nodetypes="sscsccscccccccccccssscscccscccccssscccscccccccccccccccccccccccccssscccssscscssssccsccccscsccccccccsccccsccsssccccccscccccccccccssccsccsccccc" />
</svg>
