<?xml version="1.0" encoding="UTF-8" standalone="no"?>
<svg
   width="1000"
   height="1000"
   id="svg2444"
   sodipodi:version="0.32"
   inkscape:version="1.4.2 (f4327f4, 2025-05-13)"
   sodipodi:docname="13926.svg"
   inkscape:output_extension="org.inkscape.output.svg.inkscape"
   sodipodi:modified="true"
   version="1.1"
   xmlns:inkscape="http://www.inkscape.org/namespaces/inkscape"
   xmlns:sodipodi="http://sodipodi.sourceforge.net/DTD/sodipodi-0.dtd"
   xmlns="http://www.w3.org/2000/svg"
   xmlns:svg="http://www.w3.org/2000/svg"
   xmlns:rdf="http://www.w3.org/1999/02/22-rdf-syntax-ns#"
   xmlns:cc="http://creativecommons.org/ns#"
   xmlns:dc="http://purl.org/dc/elements/1.1/">
  <metadata
     id="metadata2451">
    <rdf:RDF>
      <cc:Work
         rdf:about="">
        <dc:format>image/svg+xml</dc:format>
        <dc:type
           rdf:resource="http://purl.org/dc/dcmitype/StillImage" />
      </cc:Work>
    </rdf:RDF>
  </metadata>
  <defs
     id="defs2449" />
  <sodipodi:namedview
     inkscape:window-height="998"
     inkscape:window-width="1680"
     inkscape:pageshadow="2"
     inkscape:pageopacity="0.0"
     guidetolerance="10.0"
     gridtolerance="10.0"
     objecttolerance="10.0"
     borderopacity="1.0"
     bordercolor="#666666"
     pagecolor="#ffffff"
     id="base"
     inkscape:showpageshadow="2"
     inkscape:pagecheckerboard="0"
     inkscape:deskcolor="#d1d1d1"
     inkscape:zoom="2"
     inkscape:cx="580.75"
     inkscape:cy="799.25"
     inkscape:window-x="-8"
     inkscape:window-y="-8"
     inkscape:window-maximized="1"
     inkscape:current-layer="svg2444"
     showguides="true">
    <sodipodi:guide
       position="430.34124,672.89719"
       orientation="1,0"
       id="guide1"
       inkscape:locked="false" />
  </sodipodi:namedview>
  <path
     id="path2446"
     style="fill:#000000;stroke:none;stroke-width:1"
     d="m 708.21564,0 c 8.67413,22.304921 20.4484,35.654238 35.31838,39.991307 v 99.978273 c -22.49928,5.44916 -36.49294,20.58855 -41.83873,45.8596 -4.33714,21.06577 -9.67029,36.59835 -15.86609,46.51162 -1.23911,4.33709 0.94421,6.16182 6.52029,5.54226 1.2391,0.9294 2.01862,1.83367 2.1733,2.60812 v 0.1085 c 10e-4,0.0472 0.003,0.27931 0,0.32605 v 0.10849 c -0.0115,0.0454 -0.0945,0.28099 -0.11127,0.32606 v 0.10849 c -0.19475,0.34831 -0.62207,0.77697 -1.08666,1.08672 -0.23369,0.15468 -0.38948,0.36889 -0.54528,0.5436 l -0.11127,0.10849 -0.11128,0.1085 c -0.0242,0.0472 -0.2003,0.27765 -0.217,0.32605 v 0.1085 c -0.01,0.0508 -0.10572,0.27375 -0.11128,0.32605 0,0.0533 -0.005,0.27153 0,0.32606 0.17249,1.00196 1.19126,2.30076 2.93446,3.69483 -1.10391,2.94302 -1.08053,5.10737 0,6.30297 0.75504,0.69706 2.06814,1.19538 3.69506,1.19538 -1.23911,3.71748 -0.63096,7.36707 1.84725,11.08455 2.47821,3.71748 6.96975,5.04265 13.47535,3.8035 6.50556,-1.23916 12.57194,-1.84742 18.14818,-1.84742 1.85895,9.91328 5.61698,17.57089 11.19324,23.14714 h -17.71353 c -19.82662,0 -35.25055,7.76629 -46.40293,23.25581 -32.20654,14.25108 -62.66331,30.03345 -91.1641,47.38172 -13.01122,-19.20702 -31.22666,-42.14741 -54.77073,-68.78939 0,-8.05458 -1.21646,-17.28719 -3.69484,-27.82004 0,-4.95669 -1.575,-10.18124 -4.67287,-15.75745 -2.47836,-4.33707 -7.09466,-9.79517 -13.91006,-16.3008 -6.81539,-6.50559 -11.79014,-13.18023 -14.88806,-19.99565 -1.85877,-1.85872 -3.79218,-2.82548 -5.65094,-2.82548 -1.85877,0 -3.07529,0.96674 -3.69484,2.82546 -1.23922,-0.61955 -2.45568,-0.61955 -3.69484,0 -1.23916,0.61961 -1.84741,1.5863 -1.84741,2.82546 l -0.1085,-0.1085 c -0.0436,-0.029 -0.27988,-0.19307 -0.32605,-0.21755 l -0.1085,-0.1085 c -0.0508,-0.0146 -0.27264,0.01 -0.32605,0 -0.50077,-0.0436 -1.25909,0.0862 -1.95608,0.43455 -0.15468,0.0774 -0.30881,0.1302 -0.43455,0.21755 -0.11128,0.0918 -0.3522,0.33329 -0.43455,0.43455 -0.0339,0.0532 -0.19085,0.27041 -0.21756,0.32605 -0.0387,0.11629 -0.099,0.4173 -0.1085,0.5436 0.01,0.26151 0.0912,0.67793 0.21756,0.97804 -0.67158,-1.01648 -2.09657,-0.94437 -4.12955,0.21756 -2.16846,1.23916 -2.29349,3.17265 -0.43455,5.65095 l 19.0167,19.01708 c 4.64688,4.64689 9.13826,12.89648 13.47533,24.66855 0.34831,1.04554 0.46738,1.83535 0.32605,2.3908 -0.0218,0.0556 -0.0807,0.27653 -0.1085,0.32605 l -0.1085,0.1085 -0.1085,0.1085 -0.10849,0.1085 c -0.0521,0.0254 -0.26819,0.0896 -0.32606,0.10849 -0.0579,0.0194 -0.16024,0.0951 -0.21754,0.1085 -0.0556,0.007 -0.27153,-10e-4 -0.32606,0 -0.0532,-0.005 -0.27375,0.0109 -0.32605,0 h -0.1085 c -0.0496,-0.023 -0.27764,-0.18806 -0.32605,-0.21756 -0.3305,-0.24592 -0.70696,-0.65326 -0.97804,-1.19536 -1.85933,-3.09688 -3.79274,-7.46339 -5.6515,-13.03964 -1.85877,-4.33707 -4.04201,-7.73684 -6.52032,-10.21517 -2.47827,-2.47832 -4.55289,-2.83681 -6.41166,-0.97805 -1.85876,1.85871 -1.00068,5.00872 2.7168,9.3458 1.85871,4.9567 3.91706,11.88112 6.08563,20.86503 2.16852,8.98394 9.09296,18.45011 20.86503,28.3634 20.44617,37.79448 42.41982,68.75092 65.96393,92.91459 41.51195,-11.77204 82.41792,-27.19593 122.69071,-46.40297 8.67413,5.57621 9.64082,15.16727 2.8254,28.7981 3.09805,8.05453 9.03946,14.24584 17.71359,18.58291 -6.1958,8.67413 -12.49571,17.90689 -18.69163,27.82004 -21.06577,9.29371 -49.48049,23.00151 -85.4162,40.96936 -16.10908,1.23916 -27.7585,4.88871 -34.88371,11.08455 -7.12522,6.19578 -12.83305,10.56226 -17.17019,13.04064 -5.57608,1.23916 -8.11761,3.06393 -7.49835,5.54225 0,3.09787 1.70037,4.42306 5.10777,3.8035 3.40795,-0.61961 7.04125,-2.19455 10.75856,-4.67287 4.95642,-3.71748 9.21467,-6.25922 12.93198,-7.49838 1.04548,-0.34831 1.94407,-0.4785 2.49935,-0.43455 1.05908,0.19048 0.91864,0.95007 0.88469,1.08554 -0.25039,0.69217 -1.11281,1.87357 -2.39087,3.15151 -9.91333,6.81541 -18.16297,10.46494 -24.66858,11.08455 -6.50561,0.61955 -13.78853,2.1945 -21.84306,4.67288 -1.51285,0.52244 -5.41704,3.81978 -3.69539,5.54113 1.23915,1.23928 2.45567,1.5976 3.69483,0.97804 -1.23933,1.23917 -1.48893,2.45568 -0.86937,3.69484 0.79022,1.58036 1.47579,1.84708 1.73785,1.84708 v 0.1085 c -0.53479,0.80403 -0.36137,1.77654 0.1085,2.71669 0.61961,1.23916 1.5863,1.84741 2.82546,1.84741 -0.61955,2.47833 -0.24481,4.17824 1.30404,5.10759 1.54897,0.9292 3.9658,1.05422 7.06368,0.43455 3.09787,-3.71747 9.41406,-6.15053 19.0176,-7.38969 13.06247,-1.16393 25.07354,-4.79302 33.90567,-14.88805 8.05457,-7.435 14.60458,-13.98476 19.56099,-19.56096 v -0.86938 c 43.37073,-11.77203 74.57697,-23.54638 93.78397,-35.31842 -11.7721,83.64348 -16.99659,137.54033 -15.75749,161.70403 11.772,66.91476 17.96313,105.15413 18.58295,114.75767 0.61984,9.60353 -0.59701,36.427 -3.69505,80.41728 -3.09804,43.99027 -5.8895,74.94673 -8.36772,92.91459 -2.4782,15.48953 -5.26966,26.29706 -8.36776,32.49292 -9.91328,16.10908 -30.06212,28.11698 -60.42163,35.8618 -30.3595,7.74483 -45.53361,14.66924 -45.53361,20.86504 v 6.52029 h 38.14389 c 24.78326,-4.95642 45.79018,-4.95642 63.13847,0 19.82662,1.23966 35.48402,-0.21144 46.94632,-4.2381 11.46225,-4.02723 26.51144,-2.32743 45.0989,5.10776 21.06562,-1.85894 26.29033,-13.52433 15.75744,-35.20971 -0.61927,-15.48948 -0.0115,-27.01405 1.84725,-34.44906 1.85838,-7.43496 3.18373,-16.41772 3.80355,-26.95066 6.81541,-75.58894 8.7651,-133.36889 5.97697,-173.33187 -2.78812,-39.96299 -0.4785,-92.76821 6.95501,-158.44386 7.42145,-29.73716 9.60504,-52.67754 6.507,-68.78671 -11.15244,-28.5007 -17.34385,-51.44112 -18.58295,-68.7894 2.47826,-22.30492 9.02805,-46.46183 19.56099,-72.48424 h 27.82004 v -47.38101 c 0,-69.39312 -9.23263,-118.67364 -27.82004,-147.79396 -7.939,-12.95311 -21.03846,-21.38476 -39.12193,-25.32058 V 39.013259 C 809.74093,35.29576 822.23224,22.304921 830.90636,0 Z M 57.596173,0.97804855 V 143.44708 C 44.387953,147.84725 34.460585,155.08532 27.928711,165.39883 9.3412533,195.13871 0,244.41925 0,313.19279 v 47.38101 l 26.950664,0.97804 c 11.15246,25.40286 17.702216,49.20127 19.560965,71.5062 -0.619568,17.34827 -6.56108,40.64713 -17.713541,69.76744 -3.717498,16.1091 -1.534247,38.69104 6.520322,67.81134 7.434962,66.2952 9.743134,119.22528 6.95501,158.87852 -2.788085,39.65318 -0.729759,97.66675 6.085633,173.87525 0.619569,9.91334 1.8361,18.66263 3.694852,26.40734 1.858752,7.74471 2.108553,19.39418 0.869377,34.88371 C 43.01,986.36703 48.593031,998.14131 69.65877,1000 c 18.58746,-8.05449 33.63663,-9.87932 45.09889,-5.54229 11.46224,4.33715 26.86991,5.55339 46.07695,3.69506 17.96785,-4.95643 39.33322,-4.70716 64.1165,0.86965 l 38.0352,-0.86965 v -6.5203 c 0,-6.1958 -15.17408,-13.12021 -45.53357,-20.86502 -30.3595,-7.745 -50.75814,-19.7529 -61.29103,-35.86199 -2.47832,-5.57624 -5.02006,-16.02529 -7.49837,-31.51487 -2.47836,-17.96779 -5.39476,-49.15779 -8.80243,-93.45792 -3.40768,-44.30002 -4.74915,-71.1236 -4.12954,-80.41733 0.61956,-9.29373 7.06069,-47.65801 19.45229,-115.19233 0.6196,-24.16371 -4.60499,-78.06053 -15.75744,-161.70401 18.58742,11.77205 49.54388,23.54639 92.91458,35.31842 2.93017,2.60463 5.42021,6.39819 20.43034,21.40839 7.70698,9.24832 21.44978,13.17662 33.47097,14.77937 9.29373,1.23922 15.84348,3.42254 19.56098,6.52033 2.47831,0.61966 4.55285,0.49464 6.41165,-0.43455 1.85876,-0.92936 2.21719,-2.62927 0.97804,-5.1076 1.67786,0.83998 2.51578,-0.63786 2.82573,-1.41275 0.55394,-1.38433 0.56822,-1.71936 0.10905,-2.28186 1.19772,-0.61927 2.00243,-1.61417 2.60814,-2.82546 0.3758,-0.75159 0.6243,-1.79494 -0.3255,-2.49924 0.26192,0 1.21846,-0.43683 2.17291,-1.62992 1.56668,-1.95636 -0.6692,-3.87939 -2.71742,-5.10832 -8.05453,-2.47832 -15.33746,-4.17823 -21.84307,-5.10759 -6.50559,-0.92936 -14.98137,-4.84924 -25.53794,-11.6279 -0.96709,-0.62099 -2.97616,-3.13575 -1.63098,-3.36821 0.69064,-0.11935 1.96727,0.0399 3.47751,0.5436 3.09786,0.61956 7.10595,2.80282 12.06259,6.52032 3.71748,2.47833 7.47573,4.05328 11.19322,4.67288 3.72241,1.00971 5.95001,-1.72558 5.54225,-4.99921 -0.6961,-1.39461 -3.31529,-2.9534 -7.49744,-4.34743 -4.95664,-2.47836 -10.78948,-6.84486 -17.60487,-13.04064 -6.81539,-6.1958 -18.23122,-9.84539 -34.34036,-11.08455 -36.55531,-17.96785 -65.07872,-31.31717 -85.52489,-39.99131 -6.19582,-9.91332 -12.38709,-19.50438 -18.58292,-28.79809 8.05458,-4.33707 13.88739,-10.52838 17.60487,-18.58291 -7.43497,-13.01121 -6.46824,-22.60228 2.82548,-28.7981 40.2728,19.8266 81.17877,35.2505 122.69071,46.40297 22.92454,-23.54411 44.53971,-54.14209 64.98588,-91.93654 12.39164,-10.53289 19.67456,-20.35751 21.84308,-29.34145 2.16857,-8.98391 4.22686,-15.90835 6.08563,-20.86503 2.90431,-3.38837 4.08537,-5.89219 3.58617,-7.3897 -0.0254,-0.0567 -0.0779,-0.27208 -0.10849,-0.32606 -0.0724,-0.10181 -0.34052,-0.34496 -0.43455,-0.43455 l -0.1085,-0.10849 -0.1085,-0.1085 c -1.85871,-2.47832 -4.04192,-2.47832 -6.52032,0 -2.47832,2.47832 -4.66152,5.87808 -6.52032,10.21517 -1.85872,6.19582 -3.68348,10.56233 -5.54225,13.04064 -0.85191,1.27795 -1.61434,2.02925 -2.17347,2.28213 h -0.1085 -0.10849 l -0.10851,0.10851 h -0.1085 l -0.10849,-0.10851 h -0.1085 -0.1085 v -0.10849 h -0.1085 v -0.1085 l -0.11071,-0.10948 c -0.029,-0.0533 -0.19084,-0.2643 -0.21755,-0.32606 -0.24203,-0.70185 -0.43455,-1.92853 -0.43455,-3.47751 4.33714,-11.15245 9.06212,-19.1523 14.01876,-23.79913 4.95664,-4.64688 11.14784,-11.21285 18.58292,-19.88698 1.16165,-0.87133 1.81542,-1.76429 1.95608,-2.49947 v -0.1085 c 3e-4,-0.0478 0.004,-0.27875 0,-0.32605 v -0.1085 l -0.10849,-0.10849 c -0.0179,-0.0454 -0.0862,-0.28098 -0.1085,-0.32606 v -0.10849 c -0.25205,-0.34887 -0.76228,-0.77758 -1.30443,-1.08732 -1.7619,-1.00692 -3.0641,-1.41565 -3.8035,-1.19537 l -0.1085,0.1085 h -0.1085 l -0.10849,0.10849 h -0.1085 c 0.19363,-0.38725 0.31381,-0.75998 0.32604,-1.0867 -0.01,-0.12574 0.0387,-0.42731 0,-0.5436 -0.0266,-0.0556 -0.18361,-0.27264 -0.21754,-0.32606 -0.0823,-0.10182 -0.32327,-0.34274 -0.43455,-0.43455 -0.12575,-0.0873 -0.38837,-0.24871 -0.5436,-0.32605 -1.23917,-0.61955 -2.45568,-0.61955 -3.69484,0 0,-1.23916 -0.48352,-2.20585 -1.41276,-2.82546 -0.0578,-0.0387 -0.15801,-0.0774 -0.21755,-0.10849 -0.18139,-0.0724 -0.56831,-0.21032 -0.76072,-0.21755 -0.65343,0.0484 -1.50762,0.52969 -2.28213,1.30403 -0.61977,-2.47781 -1.83624,-3.56956 -3.69502,-3.25965 -1.85877,0.3098 -3.79223,1.04295 -5.65094,2.28212 -3.09793,6.81542 -8.19756,13.49006 -15.32276,19.99565 -7.12515,6.50563 -11.61658,11.96373 -13.47533,16.3008 -3.09793,5.57621 -4.9227,10.80078 -5.54227,15.75745 -1.85875,11.15242 -3.07528,20.74351 -3.69485,28.79808 -22.92449,26.02243 -41.24857,48.60433 -54.87938,67.81135 -28.50074,-16.72867 -58.49048,-32.15256 -90.08911,-46.40295 -11.77207,-15.48954 -27.66307,-23.25582 -47.48968,-23.25582 h -16.62682 c 4.95664,-6.19581 8.60623,-14.21191 11.08454,-24.12519 5.57626,0 11.64265,0.60826 18.14824,1.84742 6.50562,1.23916 10.87212,0.14745 13.04064,-3.26018 2.16857,-3.40773 2.90169,-7.04103 2.28214,-10.75853 4.33703,0 5.55354,-2.43309 3.69483,-7.3897 1.93616,-1.54896 2.93412,-2.94364 2.93412,-4.12955 -0.01,-0.11684 -0.0796,-0.43009 -0.1085,-0.5436 -0.0194,-0.0556 -0.0846,-0.27152 -0.10849,-0.32605 -0.17416,-0.32327 -0.52079,-0.79626 -0.86938,-1.08671 -0.58088,-0.48407 -0.92942,-0.95896 -1.0867,-1.41275 v -0.10851 -0.1085 c -0.003,-0.0445 -0.10962,-0.28209 -0.10851,-0.32604 v -0.10851 l 0.10851,-0.10849 v -0.1085 c 0.0182,-0.0429 0.0862,-0.2832 0.10849,-0.32605 0.31938,-0.50799 1.02673,-1.05671 1.95608,-1.52142 4.95671,0 7.13988,-2.1832 6.52033,-6.52033 -6.19598,-9.91374 -11.52919,-25.44631 -15.86628,-46.51208 -3.96883,-18.40094 -12.77355,-31.3278 -26.4073,-39.01326 h 4.12955 V 121.71267 H 103.12975 V 52.923279 H 83.677462 V 0.97804855 Z M 721.14762,8.3677462 h 95.74006 C 811.31143,18.900599 803.54507,26.05864 793.63185,29.776136 l -6.41163,1.847423 c -5.57625,1.858752 -12.00107,2.7168 -19.12628,2.7168 -7.12515,0 -12.83304,-0.858048 -17.17019,-2.7168 l -5.54231,-1.847423 C 735.46816,26.058638 727.34337,18.900598 721.14762,8.3677462 Z M 65.963924,9.3457947 h 8.367745 V 62.269072 h 19.560966 v 68.789408 h 32.492935 v 7.38969 H 95.740058 89.654424 65.963924 Z M 752.77117,40.860684 c 3.09803,1.239143 7.94779,1.847423 14.45334,1.847423 6.50561,0 12.21378,-0.60828 17.17019,-1.847423 v 43.686153 h -23.25577 v 53.031953 h -8.36776 z m 17.71352,52.053904 H 784.3947 V 137.57879 H 770.48469 Z M 95.740058,151.48881 c 27.261602,0 43.402412,8.98281 48.359062,26.95066 -21.06579,-1.85877 -33.80682,0.8079 -38.14389,7.93306 -4.33709,7.12516 -8.345131,10.29138 -12.062595,9.67181 0,-8.05457 -4.724955,-12.06259 -14.018691,-12.06259 -11.772067,0 -17.604872,9.34126 -17.604872,27.92872 0,8.05457 4.008034,17.28718 12.062597,27.82004 V 349.48925 H 12.062596 v -36.29646 c -10e-7,-64.43648 8.982813,-111.53375 26.950663,-141.27363 11.152461,-13.63078 30.08481,-20.43035 56.726799,-20.43035 z m 668.224332,0 c 27.26159,0 46.44372,6.5498 57.59617,19.56097 17.96785,29.73991 26.95066,77.08697 26.95066,142.14301 v 36.29646 h -62.2691 V 238.86113 c 7.43514,-10.53285 11.19323,-19.51567 11.19323,-26.95066 0,-18.58746 -5.58303,-27.92872 -16.73548,-27.92872 -9.2935,0 -14.01868,3.75821 -14.01868,11.19321 -3.71732,0.61956 -7.72546,-2.6553 -12.0626,-9.78048 -4.33715,-7.12493 -17.32794,-9.43333 -39.01328,-6.95501 5.57626,-17.96784 21.71711,-26.95066 48.35908,-26.95066 z m -37.92656,35.7531 c 12.54656,-0.4646 20.25037,1.84347 23.0385,6.95501 3.71732,6.81539 12.09204,12.7569 25.10319,17.71355 6e-5,-11.15247 2.18331,-16.73551 6.52035,-16.73551 3.71731,0 5.54231,5.58304 5.54231,16.73551 0,7.43499 -4.00776,16.05933 -12.0626,25.97261 v 53.90132 h -15.75744 c -6.81541,-5.57625 -13.11537,-16.38379 -18.69156,-32.49294 -5.57625,-1.23926 -11.89246,-1.1143 -19.01762,0.43455 -7.12543,1.54896 -11.13341,0.94071 -12.0626,-1.84741 -0.92974,-2.78808 -2.37917,-8.85449 -4.2381,-18.14823 1.85838,-2.47832 2.21726,-4.55286 0.97815,-6.41165 -1.2391,-1.85871 -4.03057,-2.21721 -8.36771,-0.97804 l 11.19323,-25.97262 c 8.05451,-8.05453 22.6203,-8.41301 43.68614,-0.97804 v -3.69473 c -21.68561,-7.43502 -35.64321,-8.65154 -41.83901,-3.69485 l 1.84725,-9.3458 c 5.26634,-0.7745 9.94517,-1.25785 14.12736,-1.41275 z m -597.69616,0.86938 c 5.31485,-0.18862 11.78498,0.35943 19.45229,1.52142 l 2.7168,9.23712 c -6.81539,-5.57626 -21.02275,-4.35974 -42.70811,3.69483 v 2.82546 c 21.06579,-6.81537 35.99007,-6.20713 44.66421,1.84744 l 10.21517,25.10324 c -4.33709,-0.61955 -7.12859,-0.13631 -8.36774,1.41276 -1.23916,1.54896 -0.63091,3.49865 1.84741,5.97696 -1.85876,9.29374 -3.30886,15.36014 -4.23821,18.14823 -0.92936,2.78812 -4.9374,3.39637 -12.0626,1.84741 -7.12514,-1.54895 -13.79982,-1.67383 -19.99564,-0.4347 -5.57625,16.10915 -11.40905,27.27518 -17.60487,33.47099 H 85.52489 v -53.90132 c -7.434962,-10.53285 -11.193221,-19.51567 -11.193221,-26.95066 0,-10.53289 1.824773,-15.86613 5.542253,-15.86613 4.337089,0 6.520322,5.33322 6.520322,15.86613 13.011193,-4.95665 21.385766,-10.66457 25.103256,-17.17019 2.32344,-4.066 7.9861,-6.31436 16.84417,-6.62899 z m 593.784,15.43142 c -4.33714,0.61961 -7.12866,1.96103 -8.36777,4.12955 -1.2391,2.16857 -2.45595,3.26017 -3.69506,3.26017 l -3.69506,1.84742 0.86966,4.67289 7.93305,0.43454 c 2.16829,0.92919 4.83512,1.16293 7.93306,0.54361 4.33713,-0.61956 9.8114,-2.55299 16.62681,-5.65095 h 12.17126 v -4.5642 h -12.17126 c -7.43486,-3.09805 -13.26755,-4.67305 -17.60469,-4.67303 z m -587.26368,0.76071 c -3.94983,0.23257 -8.95584,1.58875 -14.99674,3.91217 h -12.0626 v 4.5642 h 12.0626 c 7.43497,3.71749 13.01799,5.90076 16.7355,6.52033 3.71747,0 6.63391,-0.24984 8.80243,-0.86938 2.16857,-0.61945 3.61866,-0.97804 4.23821,-0.97804 l 3.69484,0.97804 v -5.6509 l -3.69484,-0.86937 c -0.61955,-0.61956 -1.71121,-1.83607 -3.26017,-3.69484 -1.54897,-1.85877 -4.21557,-3.18395 -7.93306,-3.80351 -1.08427,-0.15468 -2.26957,-0.18583 -3.58617,-0.10849 z m 0.86938,2.93412 c -0.11573,0.0259 -0.31325,0.0418 -0.43455,0.1085 -1.77575,1.23888 -3.72794,6.45471 2.28213,7.3897 2.94971,1.19531 8.06356,-2.76532 3.69484,-6.52033 1.23915,0.61956 2.45572,1.71121 3.69483,3.26019 0.92935,1.1617 1.70125,1.88302 2.28214,2.17346 0.046,0.0182 0.28265,0.0969 0.32604,0.10849 h 0.10851 c -2.43948,1.20853 -4.57628,1.84776 -6.41167,1.84776 h -4.67287 c -3.71749,-0.61955 -8.08401,-2.19456 -13.04065,-4.67288 5.80262,-2.32103 9.738,-3.43889 11.73658,-3.58616 0.13521,-0.01 0.31659,-0.10851 0.43455,-0.10851 z m 589.21976,0 c 1.85893,0 5.8668,0.96674 12.0626,2.82547 -5.57625,3.09792 -10.1927,4.92269 -13.91002,5.54225 h -4.67322 c -1.2391,0 -3.42241,-0.60826 -6.52029,-1.84742 1.23911,-0.61955 2.45596,-1.71121 3.69506,-3.26018 1.23911,-1.54896 2.45595,-2.28213 3.69506,-2.28213 -0.97203,1.17918 -2.46319,6.88087 3.80356,6.52032 4.78727,0.1953 7.01805,-5.66135 1.84725,-7.49837 z m -294.60989,51.07588 c -47.17135,0 -84.65551,37.4804 -84.65551,84.65551 0,48.07265 38.89937,71.37267 39.12193,71.5062 l -71.61487,170.07171 h 17.71354 L 399.58706,421.9735 c 8.6741,3.71748 16.19058,5.18377 22.38644,4.56421 v 158.00913 h 16.73549 V 426.53772 c 6.19581,0.61956 13.60363,-0.84673 22.27776,-4.56421 l 67.81135,162.57333 h 17.71355 L 475.87483,413.60575 c 1.96114,-0.65371 39.01325,-22.58001 39.01325,-70.63682 0,-47.17132 -37.37173,-84.65551 -84.54684,-84.65551 z m 0,16.73549 c 47.10958,2.94447 68.68073,39.14982 68.68073,67.92002 2.04143,30.62205 -26.42985,65.96393 -68.68073,65.96393 -34.58156,0 -67.92002,-25.29769 -67.92002,-65.96393 0,-40.31097 33.9228,-67.92002 67.92002,-67.92002 z M 85.52489,306.67248 h 49.22843 v 55.74874 l 4.67288,15.86612 c 0,6.81539 -3.14996,9.85669 -9.34581,9.23713 C 117.06921,368.937 102.2536,350.72161 85.52489,332.75376 Z m 640.29562,0 h 48.35901 v 26.08128 c -16.10908,17.96785 -30.67493,36.18325 -43.68614,54.77071 -6.81552,0 -9.96558,-3.0413 -9.34576,-9.23713 l 4.67266,-16.73549 z m -295.47927,20.43033 c -9.29371,0.61957 -14.26845,5.34455 -14.88806,14.0187 0.61961,9.29375 5.59435,14.15982 14.88806,14.77939 9.29372,-0.61957 14.15979,-5.48564 14.7794,-14.77939 -0.61961,-8.67415 -5.48568,-13.39913 -14.7794,-14.0187 z m 377.3093,33.47099 h 12.0626 l -10.21518,26.95067 H 784.3947 c 6.19586,-7.43501 13.9621,-16.41782 23.25584,-26.95067 z m -766.789856,0.97805 h 11.193219 c 9.293715,10.53289 17.059995,19.15722 23.255814,25.97262 H 51.075854 Z m 12.062595,33.47099 h 28.906759 l 2.716793,3.69483 H 53.901327 Z m 724.951131,0 h 29.77613 l -0.97816,2.71679 H 776.02699 Z M 63.247125,409.80223 h 31.514886 l 20.430339,24.23386 c 11.77206,68.15394 18.68027,123.87556 20.53902,167.24628 0,9.29372 -4.24162,36.47569 -12.60596,81.39531 -8.36433,44.91969 -6.66445,118.12356 5.10759,219.73487 H 69.65877 C 59.125936,816.29077 57.05134,748.43636 63.247125,698.86984 61.388407,674.08657 60.06321,648.2298 59.443602,621.27802 58.824033,594.32625 55.782724,570.29424 50.206478,549.22844 44.630267,528.1627 45.846758,507.15577 53.901327,486.09 c 8.054531,-21.06579 11.204549,-46.54785 9.345798,-76.28777 z m 702.564685,0 h 30.6455 c -1.23911,29.12035 2.1605,54.36882 10.21518,75.74441 8.05446,21.37554 9.27104,42.61606 3.69507,63.6818 -5.57643,21.0658 -8.61788,45.09781 -9.23709,72.04958 -0.61928,26.95178 -1.83613,52.80855 -3.69507,77.59182 6.1958,48.94691 4.01277,116.55144 -6.52029,202.67333 h -58.57425 c 11.77215,-100.99181 13.47191,-173.9458 5.10775,-218.86549 -8.36404,-44.91962 -12.49726,-72.10159 -12.49726,-81.39531 1.85894,-43.37072 8.65827,-99.45081 20.43031,-168.22433 z M 89.219737,915.45319 h 20.430343 c 9.29373,23.54404 13.05199,40.54298 11.19321,51.07587 -13.0112,-3.09793 -22.352453,-9.16431 -27.928702,-18.14824 -5.576193,-8.98392 -6.792724,-19.91642 -3.694851,-32.92763 z m 661.704013,0 h 20.43031 c 3.09748,13.01121 1.75656,23.94371 -4.1296,32.92763 -5.88606,8.98393 -15.35222,14.80066 -28.36337,17.27886 -1.85893,-10.53288 2.14938,-27.28205 12.06261,-50.20649 z"
     sodipodi:nodetypes="cccccccccccccccccccccccssccscccccscscscccccsccccccccccccccccccccccsscscccccccsccscccccscscsccccccscccccssccssccccccccscccccsccccccccscccccscsccscccssccssccccscccscscccsssccsccscccccccsccccccsccccccccccccccccsccccccccccccccccccccccccccscccccsccsscccccscccccccccccccccccccccccscccccccccccccccscccccccccccscscsscccscsscscccsscscssccssccccsccsccccccsscccccccccssccccsscsccscccccccccccccccccccccscccccccscccsccsccsccscsccssssccccccccccccssccssccccccccccccccccccccccccccccccccccccccccccccscccssscccscscccsccccccscccscsc" />
  <path
     id="path1"
     style="fill:#000000;stroke:none;stroke-width:1"
     d="M 429.18359 627.5332 C 409.66964 627.5332 397.10212 660.11211 391.50391 725.37305 C 389.58576 750.16609 396.17881 770.62346 411.375 786.61914 L 366.99219 786.61914 C 376.55111 784.55075 381.6168 777.28726 382.16406 765.66016 C 381.52467 752.70905 374.70668 745.77574 361.75 744.81055 C 348.15396 745.77241 341.22064 752.70405 340.90039 765.66016 C 341.18541 777.27941 346.27852 784.55084 356.23633 786.61914 L 328.41211 786.61914 L 328.41211 827.33984 L 404.96875 827.33984 L 382.59961 900.31445 C 373.9624 928.1465 385.29083 942.01172 416.48047 942.01172 L 416.48047 1000 L 444.2793 1000 L 444.2793 942.01172 C 475.30992 942.01172 486.3559 928.1465 477.39844 900.31445 L 455.0293 827.33984 L 532.12891 827.33984 L 532.12891 786.61914 L 503.02734 786.61914 C 513.21577 784.75658 518.53221 777.9383 519.09766 766.20312 C 518.45827 752.93011 511.63831 745.99402 498.68164 745.35352 C 485.08559 745.99291 478.15423 752.92677 477.83398 766.20312 C 478.11198 777.93552 483.57335 784.75603 494.23047 786.61914 L 447.64453 786.61914 C 463.15986 770.62346 469.75653 750.16609 467.51758 725.37305 C 461.91882 660.11211 449.35046 627.5332 429.83594 627.5332 L 429.18359 627.5332 z M 428.91992 649.35547 C 429.01722 649.35741 429.11387 649.36133 429.19727 649.36133 L 429.84766 649.36133 C 441.36433 649.36133 447.78848 681.37191 449.06836 745.35352 C 449.06836 758.94958 442.47307 767.74355 429.19727 771.74219 C 416.40072 767.74466 409.97656 758.94958 409.97656 745.35352 C 411.23308 682.37157 417.4751 650.34542 428.6543 649.36133 C 428.73527 649.35452 428.82673 649.35361 428.91992 649.35547 z M 361.75 756.53906 C 367.34877 757.03945 370.33405 760.06362 370.6543 765.66016 C 370.3207 771.5814 367.34654 774.79051 361.75 775.10742 C 355.67197 774.77382 352.62891 771.57696 352.62891 765.66016 C 352.62891 760.06084 355.66976 757.01721 361.75 756.53906 z M 498.68164 757.30078 C 504.43997 757.63437 507.48445 760.60853 507.80469 766.20508 C 507.47111 772.12575 504.43997 775.22745 498.68164 775.54492 C 493.08342 775.21132 490.20697 772.12465 489.88672 766.20508 C 490.22033 760.60409 493.08287 757.61769 498.68164 757.30078 z M 341.76953 798.34766 L 518.12109 798.34766 L 518.12109 813.87695 L 341.76953 813.87695 L 341.76953 798.34766 z M 427.23047 827.3418 L 433.20312 827.3418 L 433.20312 987.51367 L 427.23047 987.51367 L 427.23047 827.3418 z M 416.48047 839.61328 L 416.48047 927.13672 C 398.56554 927.13672 391.40895 920.54141 395.08789 907.26562 L 416.48047 839.61328 z M 443.73633 839.61328 L 465.67188 907.26562 C 469.19124 920.54142 462.03523 927.13672 444.2793 927.13672 L 443.73633 839.61328 z " />
</svg>
