<?xml version="1.0" encoding="UTF-8" standalone="no"?>
<svg
   width="5.10122"
   height="17.977583"
   version="1.1"
   id="svg1"
   sodipodi:docname="13933.svg"
   inkscape:version="1.4.2 (f4327f4, 2025-05-13)"
   xmlns:inkscape="http://www.inkscape.org/namespaces/inkscape"
   xmlns:sodipodi="http://sodipodi.sourceforge.net/DTD/sodipodi-0.dtd"
   xmlns="http://www.w3.org/2000/svg"
   xmlns:svg="http://www.w3.org/2000/svg">
  <defs
     id="defs1" />
  <sodipodi:namedview
     id="namedview1"
     pagecolor="#ffffff"
     bordercolor="#666666"
     borderopacity="1.0"
     inkscape:showpageshadow="2"
     inkscape:pageopacity="0.0"
     inkscape:pagecheckerboard="0"
     inkscape:deskcolor="#d1d1d1"
     showguides="true"
     inkscape:zoom="32"
     inkscape:cx="5.34375"
     inkscape:cy="6.984375"
     inkscape:window-width="1680"
     inkscape:window-height="998"
     inkscape:window-x="-8"
     inkscape:window-y="-8"
     inkscape:window-maximized="1"
     inkscape:current-layer="svg1">
    <sodipodi:guide
       position="2.505179,2.0508719"
       orientation="0,-1"
       id="guide1"
       inkscape:locked="false" />
    <sodipodi:guide
       position="3.076308,2.0508719"
       orientation="1,0"
       id="guide2"
       inkscape:locked="false" />
  </sodipodi:namedview>
  <path
     id="path1"
     style="fill:#000000;stroke:none;stroke-width:1"
     d="m 0.27929688,0 c -0.0488388,0.1367489 0.0263233,0.33783308 0.2265625,0.6015625 0.20023915,0.26373017 0.35642015,0.628803 0.46875,1.0976563 C 1.0869385,2.168071 1.2304299,2.4833624 1.40625,2.6445312 1.5440548,2.7708524 1.7030037,2.8421104 1.8828125,2.8574219 H 1.7148438 c -0.08791,0.1172129 -0.08791,0.2050649 0,0.2636719 h 0.21875 l 0.058594,0.1894531 C 1.7772961,3.3203145 1.5654748,3.3915725 1.3554688,3.5234375 1.1454621,3.6553026 1.0410156,3.8827415 1.0410156,4.2050781 0.97264043,4.1562393 0.95995115,4.0654588 1.0039062,3.9335938 1.0478611,3.8017286 1.0449325,3.6806888 0.99609375,3.5683594 0.94725491,3.4560295 0.82035735,3.4238175 0.61523438,3.4726562 0.56639555,3.4628887 0.41997619,3.5155988 0.17578125,3.6328125 0.05856835,3.6718837 0,3.7694972 0,3.9257812 v 0.1914063 l 0.14648438,-0.074219 c 0.18558774,0.019531 0.32224625,0.018561 0.41015624,-0.00586 0.0329663,-0.00916 0.0584224,-0.011812 0.0742188,-0.00586 0.003591,0.0018 0.0092,0.00702 0.0117187,0.00977 0.00144,0.00204 0.004896,0.0073 0.005859,0.00977 0.00435,0.016025 0.001102,0.043084 -0.0117188,0.074219 -0.0341874,0.083025 -0.0185691,0.1806392 0.0449219,0.2929688 0.0555539,0.098288 0.0910465,0.1537297 0.10546876,0.1660156 l 0.001953,0.00195 h 0.001953 v 0.14648 C 0.7421768,4.888706 0.73827253,5.035126 0.77734375,5.171875 c -0.16605245,0.293033 -0.25,0.4941161 -0.25,0.6015625 0,0.048838 0.0741866,0.082026 0.22070313,0.1015625 L 0.71875,5.9921875 c 0.009768,0.029303 0.0331944,0.048824 0.0722656,0.058594 -0.0293036,0.029303 -0.0332079,0.064445 -0.0136719,0.1035157 0.0537224,0.033576 0.0842421,0.055913 0.0917969,0.066406 v 0.00195 h 0.001953 v 0.00195 h -0.001953 v 0.00195 H 0.8671876 0.8652346 C 0.8066281,6.5781928 0.9179067,6.7538969 1.2011721,6.7538969 h 0.3085937 c 0,0.1855877 0.1073744,0.4061945 0.3222656,0.6601563 1e-7,0.00977 -0.1034701,0.1308085 -0.3085937,0.3652344 C 1.3183145,8.0137234 1.207036,8.296802 1.1875,8.6289062 H 2.828125 V 17.978516 H 3.4726562 V 8.6289062 H 5.0410156 C 5.2168357,7.9842337 5.32421,7.3107016 5.3632812,6.6074219 L 5.7578125,6.2558594 5.6113281,6.0507812 5.4355469,6.1972656 C 5.4453139,6.0605174 5.435554,5.959 5.40625,5.890625 5.3671789,5.8417866 5.3242286,5.7871226 5.2753906,5.7285156 c 0,-0.4688532 -0.078091,-0.8241652 -0.234375,-1.0683594 C 5.1093908,4.533175 5.1425781,4.3711367 5.1425781,4.1757812 5.1328098,3.8827483 5.0117702,3.5996697 4.7773438,3.3261719 L 4.2636719,3.6328125 C 4.1464582,3.5351348 4.0098001,3.4629013 3.8535156,3.4140625 l 0.087891,-0.2929687 h 0.2480469 c 0.068375,-0.048839 0.068375,-0.1366906 0,-0.2636719 H 3.9941406 C 4.2324719,2.8488222 4.427275,2.7746382 4.578125,2.6367188 4.7490605,2.4804339 4.8915765,2.168071 5.0039062,1.6992188 5.1162355,1.2303655 5.2694884,0.86529267 5.4648438,0.6015625 5.6601991,0.33783308 5.73829,0.1367489 5.6992188,0 5.5429346,0.04883883 5.3311132,0.21478146 5.0625,0.49804688 4.8121057,0.76209867 4.5813402,1.2729623 4.3691406,2.0292969 c 0.01816,-0.092683 0.025391,-0.1935705 0.025391,-0.3007813 0,-0.4900347 -0.3019622,-1.30273435 -1.40625,-1.30273435 -1.1098679,0 -1.40625,0.82496635 -1.40625,1.30273435 0,0.07117 0.00602,0.1403106 0.015625,0.2050782 C 1.3925188,1.2298937 1.1678429,0.75077635 0.92382812,0.49804688 0.65033034,0.21478146 0.435581,0.04883883 0.27929688,0 Z M 2.9882812,0.80664062 c 0.7375465,2e-8 0.9884955,0.52068138 0.9960938,0.90820318 0.010824,0.5520389 -0.4587906,0.9082031 -0.9960938,0.9082031 -0.5487596,0 -0.9804687,-0.3938009 -0.9804687,-0.9082031 0,-0.3882362 0.2706524,-0.90820318 0.9804687,-0.90820318 z M 2.2558594,3.1210938 h 1.3769531 l -0.072266,0.21875 C 3.1796039,3.2519347 2.7540094,3.238269 2.2851562,3.296875 Z M 2.8710938,3.515625 c 0.2539618,0 0.5038526,0.029284 0.7480468,0.087891 0.3711755,1.7679665 0.5634736,2.7987639 0.578125,3.0917969 0.014652,0.2930339 -0.1190782,0.4843562 -0.4023437,0.5722656 -0.2832654,0.08791 -0.5175372,0.1308594 -0.703125,0.1308594 L 2.9394531,6.0996094 C 3.2031828,5.8651828 3.296875,5.5821015 3.296875,5.2597656 3.296875,4.8983577 3.1543591,4.3165825 2.8710938,3.515625 Z M 2.578125,3.53125 C 2.783248,4.0880132 2.9199064,4.5526526 2.9882812,4.9238281 3.0566553,5.2950035 2.9649167,5.6893635 2.6328125,6.0996094 L 2.8417969,7.8378906 C 3.2129716,7.7792841 3.6327093,7.6621474 4.1015625,7.4863281 4.4141315,7.378882 4.498079,6.9552408 4.3515625,6.2128906 L 4.2050781,5.3769531 4.6015625,5.875 c -0.019535,0.039071 -0.035153,0.1132578 -0.044922,0.2207031 0,0.1172128 0.035141,0.2187307 0.1035156,0.3066407 0.08791,0.1074461 0.1952844,0.1660136 0.3222657,0.1757812 L 4.8066406,6.7109375 4.953125,6.8867188 C 4.9238222,7.4337144 4.8496356,7.8475948 4.7324219,8.1308594 H 2.59375 V 5.8027344 C 2.7109636,5.6757528 2.789055,5.5264042 2.828125,5.3554688 2.867199,5.1845324 2.8769569,5.0254227 2.8574219,4.8789062 2.837886,4.7323897 2.7890795,4.6503944 2.7109375,4.6308594 L 2.34375,3.5449219 Z M 2.1972656,3.5605469 2.5488281,4.6152344 H 2.4023438 L 2.0371094,3.5898438 c 0.029304,0 0.082014,-0.00976 0.1601562,-0.029297 z M 0.77734337,3.75 c -0.009768,0.078142 -0.0517414,0.1230525 -0.125,0.1328125 -0.0732579,0.00977 -0.1484201,0.022457 -0.2265625,0.037109 L 0.3671875,3.8828535 0.3085937,3.7792968 C 0.2980264,3.7467038 0.3138087,3.7311078 0.3281244,3.7167898 0.64360605,3.548548 0.79173094,3.6348915 0.77734337,3.75 Z M 4.71875,3.6328126 c 0.08791,0.068374 0.1474539,0.207962 0.1816406,0.4179687 0.034187,0.2100076 0.02345,0.3886398 -0.035156,0.5351563 L 4.5722656,4.484375 C 4.6211036,4.3769297 4.6250085,4.2383174 4.5859375,4.0722656 4.5468664,3.9062135 4.5039171,3.8144579 4.4550781,3.7949219 Z M 1.8164062,3.6484375 2.1386719,4.5722656 C 1.8261029,4.3964454 1.53912,4.3613047 1.2753906,4.46875 c 0,-0.4102459 0.1796085,-0.6835635 0.5410156,-0.8203125 z m 2.0664063,0.042969 c 0.3516402,0.1367482 0.5214871,0.2987873 0.5117187,0.484375 0.029304,0.2246591 -0.078071,0.4101242 -0.3222656,0.5566407 z m 0.6015625,0.96875 0.2636719,0.1308594 C 4.8847962,5.0254424 4.953125,5.3241401 4.953125,5.6855472 4.88475,5.6757772 4.8359446,5.6894472 4.8066406,5.7285162 l -0.25,-0.3066406 C 4.6347831,5.3925714 4.7421572,5.4062373 4.8789062,5.4648438 4.927745,5.2011144 4.7871824,4.9473192 4.4550781,4.703125 Z m -2.9101562,0.033203 c 0.081958,-0.00298 0.1589202,0.00744 0.2285156,0.03125 0.1855876,0.06349 0.2773437,0.1991738 0.2773437,0.4042968 h 0.2207031 c 0,-0.1855864 0.052711,-0.2792968 0.1601563,-0.2792968 0.097678,0 0.1357471,0.1229933 0.1113281,0.3671875 -0.02442,0.2441942 -0.1249619,0.4296593 -0.3007812,0.5566406 v 1.361328 L 2.125,7.1640625 C 2.0761614,7.0956876 2.0273546,7.0078359 1.9785156,6.9003906 1.9296768,6.7929453 1.8906321,6.6465257 1.8613281,6.4609375 h -0.484375 c -0.1562841,0.00977 -0.234375,-0.033181 -0.234375,-0.1308594 0.00977,-0.1562837 0.083954,-0.24024 0.2207031,-0.25 10e-8,-0.087909 -0.025381,-0.1308593 -0.074219,-0.1308593 L 0.99609375,5.9335938 C 1.0547002,5.8163802 0.99613262,5.73829 0.8203125,5.6992188 c 0,-0.068374 0.0780901,-0.2440784 0.234375,-0.5273438 l 0.015625,-0.2050781 0.029297,0.058594 C 1.2265907,4.9570165 1.328108,4.9238281 1.40625,4.9238281 c 0.078142,0 0.1913741,0.019523 0.3378906,0.058594 H 2.0078125 V 4.8789062 H 1.7441406 C 1.6073917,4.8202992 1.4902561,4.7968806 1.3925781,4.8066406 c -0.097678,0 -0.2050527,0.042949 -0.3222656,0.1308594 0,-0.058607 0.013665,-0.097651 0.042969,-0.1171875 0.1709354,-0.079363 0.3243412,-0.121993 0.4609373,-0.126953 z m 2.8066406,0.097656 c 0.097678,0.048839 0.1816252,0.1269297 0.25,0.234375 -0.078142,-0.029303 -0.1484248,-0.019541 -0.2070313,0.029297 0.1465165,0.00977 0.2499873,0.039052 0.3085938,0.087891 C 4.6152083,5.1132745 4.5117374,5.1191325 4.4238281,5.1582035 4.6680223,5.1875075 4.7910156,5.2265535 4.7910156,5.275391 4.6835703,5.226552 4.560577,5.216791 4.4238281,5.246094 l 0.3671875,0.1015624 c -0.1660525,-0.019536 -0.2890465,-0.019536 -0.3671875,0 C 4.2968468,5.2011397 4.2148522,5.0703379 4.1757812,4.953125 4.2539237,4.9140538 4.3222529,4.8593896 4.3808594,4.7910155 Z m -2.9980469,0.203125 c -0.031135,-6.109e-4 -0.062005,-4.878e-4 -0.09375,0.00195 -0.1269813,0.00977 -0.2089764,0.1132384 -0.2480469,0.3085937 0.087909,0.058606 0.1855227,0.078129 0.2929688,0.058594 0.1269805,0.00977 0.2187372,-0.054657 0.2773437,-0.1914062 H 2.0078125 V 5.0410156 H 1.65625 C 1.56834,5.0117156 1.4762169,4.9959736 1.3828125,4.9941405 Z m -0.019531,0.060547 c 0.078143,0 0.150376,0.019523 0.21875,0.058594 -0.039071,0.078143 -0.091782,0.1367103 -0.1601562,0.1757813 0.029303,-0.039071 0.039057,-0.082021 0.029297,-0.1308594 -0.00977,-0.048838 -0.039052,-0.08398 -0.087891,-0.1035159 z m -0.1464843,0.044922 c -0.039075,0.048838 -0.054692,0.08886 -0.044922,0.1230468 0.00977,0.034187 0.035148,0.062495 0.074219,0.082031 l -0.132813,-0.029297 c 0.019535,-0.068374 0.054677,-0.1269424 0.103516,-0.1757808 z m 3.765625,0.875 c 0.014652,-0.00183 0.028317,2.462e-4 0.042969,0.00391 0.039072,0.00977 0.068356,0.023434 0.087891,0.042969 0.019544,0.029304 0.029297,0.06835 0.029297,0.1171875 0,0.039071 -0.013665,0.074212 -0.042969,0.1035156 -0.039072,0.019543 -0.078118,0.029297 -0.1171875,0.029297 -0.039071,0 -0.074212,-0.019524 -0.1035157,-0.058594 C 4.85937,6.1835906 4.852533,6.1484496 4.857423,6.109379 4.862303,6.070309 4.8789,6.03712 4.908204,6.0078165 4.932623,5.9895015 4.958003,5.9776655 4.982423,5.9746135 Z M 5.2167969,6.1835938 5.421875,6.4472656 5.3925781,6.4609375 5.1875,6.2128906 Z m -0.074219,0.087891 0.1914063,0.234375 -0.029297,0.013672 -0.1914063,-0.21875 z m -0.1308593,0.058594 h 0.029297 L 5.2460938,6.578125 5.2304688,6.6074219 Z M 2.2714844,7.75 V 8.1308594 H 1.890625 Z"
     sodipodi:nodetypes="cccscccccscssccsccscccsscccccsccccccccccccsccsccccccccccccccccccccccsscscssscscssssscccccccssccsccscccccccccccccccsccccccccscccccscsccsccccccccccsccccccscccsscccsccccccccccscccccccscscccccccccscccccccsccccccscccsccscscccsccccccccccccccccccccc" />
</svg>
