<?xml version="1.0" encoding="UTF-8" standalone="no"?>
<svg
   width="15.504459"
   height="17.982534"
   id="svg3507"
   sodipodi:version="0.32"
   inkscape:version="1.4.2 (f4327f4, 2025-05-13)"
   sodipodi:docname="1393B.svg"
   version="1.1"
   xmlns:inkscape="http://www.inkscape.org/namespaces/inkscape"
   xmlns:sodipodi="http://sodipodi.sourceforge.net/DTD/sodipodi-0.dtd"
   xmlns="http://www.w3.org/2000/svg"
   xmlns:svg="http://www.w3.org/2000/svg"
   xmlns:rdf="http://www.w3.org/1999/02/22-rdf-syntax-ns#"
   xmlns:cc="http://creativecommons.org/ns#"
   xmlns:dc="http://purl.org/dc/elements/1.1/">
  <metadata
     id="metadata3514">
    <rdf:RDF>
      <cc:Work
         rdf:about="">
        <dc:format>image/svg+xml</dc:format>
        <dc:type
           rdf:resource="http://purl.org/dc/dcmitype/StillImage" />
        <dc:date>30/09/06</dc:date>
        <dc:creator>
          <cc:Agent>
            <dc:title>ST</dc:title>
          </cc:Agent>
        </dc:creator>
        <dc:publisher>
          <cc:Agent>
            <dc:title>Serge Rosmorduc</dc:title>
          </cc:Agent>
        </dc:publisher>
        <dc:description>D82B
Var. de D82 
FCD p. 270 
in : SnTt 
Pyr. 1463c, pyr. de Merenre
</dc:description>
        <cc:license
           rdf:resource="http://creativecommons.org/licenses/GPL/2.0/" />
      </cc:Work>
      <cc:License
         rdf:about="http://creativecommons.org/licenses/GPL/2.0/">
        <cc:permits
           rdf:resource="http://web.resource.org/cc/Reproduction" />
        <cc:permits
           rdf:resource="http://web.resource.org/cc/Distribution" />
        <cc:requires
           rdf:resource="http://web.resource.org/cc/Notice" />
        <cc:permits
           rdf:resource="http://web.resource.org/cc/DerivativeWorks" />
        <cc:requires
           rdf:resource="http://web.resource.org/cc/ShareAlike" />
        <cc:requires
           rdf:resource="http://web.resource.org/cc/SourceCode" />
      </cc:License>
    </rdf:RDF>
  </metadata>
  <defs
     id="defs3512" />
  <sodipodi:namedview
     inkscape:window-height="998"
     inkscape:window-width="1680"
     inkscape:pageshadow="2"
     inkscape:pageopacity="0.0"
     guidetolerance="10.0"
     gridtolerance="10.0"
     objecttolerance="10.0"
     borderopacity="1.0"
     bordercolor="#666666"
     pagecolor="#ffffff"
     id="base"
     inkscape:zoom="16"
     inkscape:cx="17.6875"
     inkscape:cy="3.71875"
     inkscape:window-x="-8"
     inkscape:window-y="-8"
     inkscape:current-layer="svg3507"
     inkscape:showpageshadow="2"
     inkscape:pagecheckerboard="0"
     inkscape:deskcolor="#d1d1d1"
     inkscape:window-maximized="1" />
  <path
     id="path3509"
     style="fill:#000000;stroke:none;stroke-width:0.999998"
     d="M 7.0431064,0.0012003 C 6.4898816,0.02428057 6.0246105,0.22045975 5.6497326,0.58974252 5.049928,1.180595 4.7779452,1.6100809 4.8316589,1.87865 4.169188,2.8275948 3.9801845,3.4017134 4.2666584,3.5986647 c 0.2506644,0 0.376667,0.1288209 0.376667,0.3884379 0,0.2596169 0.04008,0.5101504 0.1206512,0.7518626 0.080571,0.2417123 0.2323127,0.3447937 0.4561202,0.3089847 0.2238075,-0.03581 0.5058414,-0.027229 0.8460295,0.026484 V 5.4775857 C 4.6874702,5.4954905 3.8557097,5.9350275 3.5692358,6.7944489 2.9783834,7.5822524 2.288313,8.3610627 1.5005099,9.1309618 1.8586022,8.0924938 2.0833962,7.0717296 2.1729194,6.0690706 2.7995809,5.6572646 3.2648572,4.8340832 3.5692358,3.5986647 3.2827621,3.5091415 3.0995194,3.6293826 3.0189489,3.9606181 2.9383778,4.2918536 2.7279249,4.6268372 2.3877373,4.9670253 2.4951647,4.4298866 2.6640662,4.0276121 2.8968263,3.7590424 3.1295865,3.4904733 3.3987506,3.3029412 3.7031292,3.1955132 3.8284619,3.1417995 3.8470931,3.020087 3.7575693,2.8320884 3.6680466,2.6440899 3.5062535,2.5510595 3.2734934,2.5510595 2.3782624,3.1777214 1.8686158,3.7274481 1.7432836,4.2019204 1.6179509,4.6763928 1.5105794,5.2003805 1.4210568,5.7733282 H 1.393101 C 0.2830145,8.4053067 -0.16363071,10.312254 0.05122468,11.493958 2.0565422,10.706156 3.4795812,9.5966503 4.3210985,8.1642813 4.6075724,7.2511449 5.5338356,6.7085274 7.1004892,6.5384331 8.6671436,6.3683393 9.4502441,6.6503732 9.4502441,7.3844626 c 0.8281949,3.3428994 0.3708438,1.4382432 0.8121879,3.1545864 -0.2669721,0.901031 -0.591736,2.13494 -0.9755084,3.703402 -0.5005732,0.383772 -0.7886007,0.689923 -0.8636855,0.915183 -0.075092,0.225258 -0.221551,0.468219 -0.4384645,0.72685 -0.2169165,0.258626 -0.3168432,0.428602 -0.3001561,0.512031 0,0.06675 0.034781,0.100053 0.1015238,0.100053 0.100112,-0.01669 0.298498,-0.188132 0.598841,-0.513503 0.3003438,-0.325371 0.4766887,-0.413544 0.5267455,-0.263373 -0.1334855,0.43383 -0.3847767,0.803173 -0.7518628,1.103516 -0.3670861,0.300345 -0.5919239,0.498729 -0.675352,0.598842 -0.016677,0.100114 0.041602,0.143223 0.1750915,0.126537 -0.04172,0.07509 -0.056651,0.125048 -0.044138,0.150078 l 0.00294,0.0015 v 0.0015 l 0.00151,0.0029 0.00294,0.0015 0.00151,0.0015 c 0.018427,0.01271 0.056123,0.01154 0.1103514,-0.0088 -0.016694,0.133487 0.033275,0.181981 0.1500784,0.148606 0,0.150173 0.076414,0.17516 0.2265886,0.07504 0.9677744,-0.800918 1.5222749,-1.568497 1.6641029,-2.302672 0.1418294,-0.734172 0.4964732,-1.468444 1.0637902,-2.202619 0.567315,-0.734174 0.833789,-1.776556 0.800417,-3.128102 0,-0.9698273 -0.458953,-2.8361046 -0.846029,-3.8166963 C 10.39969,5.8276564 9.9029128,5.5098315 9.3031082,5.5187837 8.7033036,5.5277358 8.2781083,5.2184911 8.0274432,4.5918296 9.2449576,4.1979278 9.8304744,3.4319869 9.7857128,2.2950436 9.740952,1.1581004 9.1912245,0.44229098 8.1348521,0.1468645 7.7387121,0.03607976 7.3750412,-0.01264787 7.0431064,0.0012003 Z M 7.1917133,0.44849239 C 7.4149615,0.45576583 7.653889,0.49816761 7.9067922,0.57650033 8.9184031,0.88983154 9.3922593,1.4725299 9.3295932,2.3229994 9.2669271,3.1734688 8.8775219,3.7418267 8.1613363,4.0283004 7.8569584,4.1894421 7.7137963,4.1178612 7.7317008,3.8134826 8.0897929,3.3658671 8.2687459,3.0337016 8.2687451,2.8188462 8.2687467,2.4070397 8.138453,2.1751375 7.878836,2.1214236 7.619219,2.0677099 7.4188175,2.1206598 7.2755805,2.2818014 7.1502479,2.0132318 6.5861801,1.6996975 5.5835216,1.3416052 5.9863753,0.72389578 6.5219686,0.42667122 7.1917133,0.44849239 Z M 5.5702794,1.87865 c 0.3625687,0.013428 0.8850849,0.3098036 1.5699364,0.8872274 0.1611417,0 0.3186445,-0.050131 0.4708341,-0.1486069 0.1521893,-0.098475 0.23235,-0.052634 0.2413019,0.1353647 0.00895,0.1879985 -0.21008,0.5058229 -0.6576959,0.9534384 0.053714,0.4834245 0.1797171,0.8856996 0.3766669,1.2079829 0.089524,0.3222833 -0.00497,0.5241566 -0.2825001,0.6047272 C 7.011301,5.5993543 6.8008481,5.5320633 6.6576112,5.317208 6.532279,4.6547375 6.1113727,4.4042041 5.3951881,4.5653453 5.2161417,4.6369637 5.1087702,4.4751711 5.0729612,4.0812693 5.0550567,3.5799401 4.9290543,3.3294066 4.6962942,3.3294066 c -0.2864739,0 -0.09747,-0.4566968 0.5650005,-1.369832 0.085047,-0.05819 0.1881286,-0.085401 0.3089847,-0.080925 z m 0.00588,0.289857 C 5.3568351,2.1640309 5.2079723,2.2813915 5.1274014,2.5231038 5.2706383,2.8632918 5.7087039,2.8733428 6.4427933,2.5510595 6.0847009,2.3003948 5.7954964,2.1729832 5.5761649,2.168507 Z"
     sodipodi:nodetypes="ssccsssccccccscscscsccccscccccccscscccccccccccssccscsssssscccsccsscscccscccscssccs" />
</svg>
