<?xml version="1.0" encoding="UTF-8" standalone="no"?>
<svg
   width="1000"
   height="1000"
   version="1.1"
   id="svg1"
   sodipodi:docname="1394B.svg"
   inkscape:version="1.4.2 (f4327f4, 2025-05-13)"
   xmlns:inkscape="http://www.inkscape.org/namespaces/inkscape"
   xmlns:sodipodi="http://sodipodi.sourceforge.net/DTD/sodipodi-0.dtd"
   xmlns="http://www.w3.org/2000/svg"
   xmlns:svg="http://www.w3.org/2000/svg">
  <defs
     id="defs1" />
  <sodipodi:namedview
     id="namedview1"
     pagecolor="#ffffff"
     bordercolor="#666666"
     borderopacity="1.0"
     inkscape:showpageshadow="2"
     inkscape:pageopacity="0.0"
     inkscape:pagecheckerboard="0"
     inkscape:deskcolor="#d1d1d1"
     showguides="true"
     inkscape:zoom="0.755"
     inkscape:cx="278.80795"
     inkscape:cy="731.78808"
     inkscape:window-width="1680"
     inkscape:window-height="998"
     inkscape:window-x="-8"
     inkscape:window-y="-8"
     inkscape:window-maximized="1"
     inkscape:current-layer="svg1">
    <sodipodi:guide
       position="503.77453,544.45242"
       orientation="0.67443649,-0.73833287"
       id="guide1"
       inkscape:locked="false" />
    <sodipodi:guide
       position="840.14605,57.88664"
       orientation="0,-1"
       id="guide2"
       inkscape:locked="false" />
  </sodipodi:namedview>
  <path
     id="path1"
     style="fill:#000000;stroke:none;stroke-width:48.9957"
     d="m 884.28883,4.8328527 c -10.40999,-5.74944962 -18.53115,-6.3690084 -24.36635,-1.8585418 -5.83522,4.5104214 -6.13557,9.3089961 -0.89841,14.3960371 9.79051,13.872042 16.28996,29.636546 19.49704,47.292282 3.20712,17.655765 -0.46861,43.89297 -11.0263,78.7136 -17.37938,-28.51367 -24.34769,-51.27802 -20.90708,-68.292836 3.44061,-17.014768 -0.75064,-26.173013 -12.57117,-27.476352 -15.32307,62.181138 -10.89493,113.011078 13.28226,152.489888 -0.31928,28.77099 -7.81547,58.5674 -22.48808,89.39112 -14.67259,30.82367 -32.07679,80.82199 -45.67073,118.25219 C 743.76752,401.49475 663.4631,387.6006 597.85065,385.58056 522.2704,368.55418 483.43598,366.8917 423.98427,421.12835 c -12.51615,5.21506 -23.72785,4.17175 -33.63647,-3.12933 -9.90863,-7.3011 -10.69066,-15.38458 -2.34657,-24.25019 8.34413,-8.8656 17.99172,-16.94911 28.94332,-24.25018 10.95161,-7.30107 13.82027,-16.94866 8.60524,-28.94333 -5.21507,-11.99463 -12.25697,-22.94682 -21.12258,-32.85542 -8.86561,-9.90863 -8.0818,-20.077 2.3483,-30.50713 5.21506,-18.77423 -22.9474,-33.37713 -84.48513,-43.80723 -6.25805,-7.30108 -30.76806,-13.81874 -73.53158,-19.55532 -42.7635,-5.73658 -84.22428,20.33754 -124.38027,78.22474 -40.155973,57.88719 -34.679911,114.99243 16.42771,171.31509 52.15061,56.32266 101.6949,62.5808 148.63045,18.77428 15.6452,21.90327 15.6452,42.76427 0,62.58151 -49.02159,45.89252 -48.08119,84.23305 -11.60727,145.20349 3.90496,66.17982 10.61969,155.3091 11.71531,190.27519 L 214.80484,942.11336 0,942.11336 V 1000 H 840.14605 V 942.11336 H 312.42757 l 41.74474,-26.09217 C 359.3514,825.9482 365.95898,739.8864 351.58525,594.56617 L 503.77453,455.54758 c 118.29048,7.44557 237.29244,18.64362 321.29044,15.20861 27.69535,-61.0814 47.83944,-94.93031 57.34759,-176.57324 9.50809,-81.64296 19.74857,-138.21721 30.72323,-169.72474 C 924.11048,92.950709 914.49424,53.075225 884.28883,4.8328527 Z M 244.49574,241.15641 c 8.90431,-0.0306 18.14779,1.02973 27.73047,3.18094 -30.24739,51.10759 -43.28445,84.48487 -39.11237,100.13007 -18.77422,0 -31.55176,7.82225 -38.33132,23.46743 -6.77959,15.6452 3.65007,28.94351 31.28989,39.89512 27.63981,10.95165 43.80681,23.20664 48.50037,36.7658 4.69356,13.55917 -1.82584,25.55465 -19.55705,35.98475 -33.37638,13.55917 -67.534,-4e-4 -102.47491,-40.67789 -34.94091,-40.67746 -36.50503,-86.30976 -4.69314,-136.89587 25.84713,-41.10118 58.0627,-61.71794 96.64806,-61.85035 z m 63.71523,12.56894 c 58.4087,9.38711 82.39793,19.81676 71.96778,31.28989 -10.4301,9.38712 -7.3019,23.46751 9.38629,42.24171 12.51615,16.68821 13.55943,27.11784 3.12933,31.28989 -34.41944,25.03229 -45.3716,44.85 -32.85542,59.45218 l 29.72609,28.16055 c 14.60218,21.9033 -0.5215,42.24352 -45.37104,61.01771 -42.76349,-71.96783 -74.8362,-110.03913 -96.21797,-114.21121 -21.38175,-4.17205 -31.02937,-10.95098 -28.94333,-20.33809 2.08601,-9.38709 13.55898,-12.51531 34.41923,-9.38628 13.55917,-68.8388 31.81276,-105.3443 54.75904,-109.51635 z m 9.08178,13.26225 c -16.32254,0.38196 -29.7803,18.9078 -40.3734,55.57621 42.7635,-15.64518 61.01709,-32.85547 54.75903,-51.6297 -5.01949,-2.73791 -9.81533,-4.05346 -14.38563,-3.94651 z"
     sodipodi:nodetypes="cscscsccscccsssssccsscccccccccccccccsscsccssscssscccccccssccsccs" />
</svg>
