<?xml version="1.0" encoding="UTF-8" standalone="no"?>
<svg
   width="1300"
   height="600"
   version="1.1"
   id="svg1"
   sodipodi:docname="1397E.svg"
   inkscape:version="1.4.2 (f4327f4, 2025-05-13)"
   xmlns:inkscape="http://www.inkscape.org/namespaces/inkscape"
   xmlns:sodipodi="http://sodipodi.sourceforge.net/DTD/sodipodi-0.dtd"
   xmlns="http://www.w3.org/2000/svg"
   xmlns:svg="http://www.w3.org/2000/svg">
  <defs
     id="defs1" />
  <sodipodi:namedview
     id="namedview1"
     pagecolor="#ffffff"
     bordercolor="#666666"
     borderopacity="1.0"
     inkscape:showpageshadow="2"
     inkscape:pageopacity="0.0"
     inkscape:pagecheckerboard="0"
     inkscape:deskcolor="#d1d1d1"
     inkscape:zoom="0.5475"
     inkscape:cx="435.61644"
     inkscape:cy="563.47032"
     inkscape:window-width="1680"
     inkscape:window-height="998"
     inkscape:window-x="-8"
     inkscape:window-y="-8"
     inkscape:window-maximized="1"
     inkscape:current-layer="svg1"
     showguides="true" />
  <path
     id="path1"
     style="fill:#000000;stroke:none;stroke-width:1"
     d="M 1008.4573,0 914.74482,156.18691 C 828.1567,105.22044 745.95259,70.696033 668.13279,52.611158 588.66895,33.430232 511.12226,31.786004 435.49461,47.678771 377.95183,61.927461 320.40967,93.438677 262.86689,142.21303 L 144.49252,1.6436417 96.815204,40.279459 219.29868,180.84885 C 178.46416,226.78765 87.014594,318.26185 0.63584153,325.52734 L -1.0078002,383.07088 C 132.16263,395.12747 262.86638,412.93726 391.10457,436.50241 c 128.2382,23.0171 274.28761,14.79743 438.14749,-24.66048 163.3119,-38.90988 266.88954,-62.74901 310.73164,-71.51743 h 108.5082 v -70.69561 h -111.797 C 1091.7568,254.83218 1034.2147,227.15702 964.06727,186.60306 L 1061.067,30.416146 Z M 546.88204,93.712441 A 150.02225,150.02225 0 0 1 696.90383,243.73423 150.02225,150.02225 0 0 1 546.88204,393.75748 150.02225,150.02225 0 0 1 396.85879,243.73423 150.02225,150.02225 0 0 1 546.88204,93.712441 Z m 172.2168,36.992169 c 30.1415,2.19212 80.83437,24.9346 152.07778,68.22868 71.24349,43.2941 144.67878,78.64282 220.30648,106.04414 -55.3507,3.28815 -115.63368,15.07009 -180.84882,35.34707 -65.76319,20.27699 -134.81491,35.07358 -207.15442,44.39002 39.76929,-47.34443 84.09508,-156.18655 15.61898,-254.00991 z m -351.01109,6.57603 c -37.94317,75.88642 -48.92068,164.13894 22.19501,245.79024 -99.19279,-18.08487 -188.52142,-31.23724 -267.98526,-39.45763 49.87041,-30.14146 89.05518,-63.29837 117.55256,-99.46811 29.04539,-36.16975 71.79096,-71.7908 128.23769,-106.8645 z" />
  <path
     style="fill:#000000;stroke:none;stroke-width:1"
     d="M 1248.492,486.90401 H 1137.2311 C 1071.7836,504.90208 962.97702,531.89919 810.81145,567.89534 658.64593,603.89149 517.93372,609.61813 388.67482,585.07528 259.41593,559.98712 128.52084,542.26175 -4.010429,531.89917 v -67.08375 c 131.440479,8.72635 256.336209,24.54285 374.687179,47.44948 117.80558,23.45209 221.43085,29.45147 310.87581,17.99813 140.71611,-18.99242 214.57672,-37.74928 455.67854,-114.53325 h 111.2609 z"
     id="path1-9"
     sodipodi:nodetypes="ccscccccccc" />
</svg>
