<?xml version="1.0" encoding="UTF-8" standalone="no"?>
<svg
   width="1300"
   height="600"
   version="1.1"
   id="svg1"
   sodipodi:docname="1397E.svg"
   inkscape:version="1.4.2 (f4327f4, 2025-05-13)"
   xmlns:inkscape="http://www.inkscape.org/namespaces/inkscape"
   xmlns:sodipodi="http://sodipodi.sourceforge.net/DTD/sodipodi-0.dtd"
   xmlns="http://www.w3.org/2000/svg"
   xmlns:svg="http://www.w3.org/2000/svg">
  <defs
     id="defs1" />
  <sodipodi:namedview
     id="namedview1"
     pagecolor="#ffffff"
     bordercolor="#666666"
     borderopacity="1.0"
     inkscape:showpageshadow="2"
     inkscape:pageopacity="0.0"
     inkscape:pagecheckerboard="0"
     inkscape:deskcolor="#d1d1d1"
     inkscape:zoom="2.19"
     inkscape:cx="1167.3516"
     inkscape:cy="372.37443"
     inkscape:window-width="1680"
     inkscape:window-height="998"
     inkscape:window-x="-8"
     inkscape:window-y="-8"
     inkscape:window-maximized="1"
     inkscape:current-layer="svg1"
     showguides="true">
    <sodipodi:guide
       position="1249.1067,112.78931"
       orientation="1,0"
       id="guide1"
       inkscape:locked="false" />
  </sodipodi:namedview>
  <path
     id="path1"
     style="fill:#000000;stroke:none;stroke-width:0.999683"
     d="M 1009.1475,0.36232631 915.46449,156.5001 C 828.90362,105.54966 746.72537,71.036117 668.93006,52.956931 589.49122,33.78204 511.96893,32.138329 436.36507,48.026096 378.8404,62.270303 321.31635,93.771605 263.79167,142.53061 L 145.45454,2.0054509 97.792225,40.629112 220.23716,181.15427 C 179.41548,227.07862 87.9947,318.52405 1.6431246,325.78725 L 0,383.31268 c 133.12853,12.0528 263.79116,29.85699 391.98901,53.41472 128.19784,23.00985 274.20131,14.79277 438.00963,-24.65272 163.26054,-38.89764 266.80556,-62.72927 310.63386,-71.49493 h 108.4741 v -70.67337 h -111.7618 c -44.9241,-14.79205 -102.448,-42.4585 -172.57333,-82.9997 L 1061.7407,30.768903 Z M 547.71746,94.045282 A 149.97505,149.97505 0 0 1 697.69205,244.01987 149.97505,149.97505 0 0 1 547.71746,393.99592 149.97505,149.97505 0 0 1 397.74141,244.01987 149.97505,149.97505 0 0 1 547.71746,94.045282 Z m 172.16261,36.980528 c 30.13202,2.19144 80.80894,24.92676 152.02994,68.20722 71.22107,43.28047 144.63319,78.61807 220.23709,106.01077 -55.3332,3.28712 -115.59724,15.06536 -180.79185,35.33595 -65.74249,20.27061 -134.77249,35.06254 -207.08924,44.37606 39.75678,-47.32954 84.06862,-156.13742 15.61406,-253.93 z m -350.90065,6.57397 c -37.93124,75.86253 -48.90528,164.08729 22.18803,245.7129 -99.16158,-18.07918 -188.46211,-31.22741 -267.90094,-39.44522 49.85471,-30.13198 89.02715,-63.27845 117.51557,-99.43681 29.03625,-36.15837 71.76837,-71.76822 128.19734,-106.83087 z" />
  <path
     style="fill:#000000;stroke:none;stroke-width:0.997289"
     d="m 1249.1067,487.21069 h -110.9593 c -65.27,17.94927 -173.78147,44.87316 -325.53448,80.77171 C 660.86001,603.88094 520.52935,609.59205 391.62096,585.11576 262.71256,560.09562 132.17239,542.41831 4.9576752e-4,532.08383 V 465.18199 C 131.08457,473.88467 255.64163,489.65829 373.67169,512.5028 491.15783,535.8913 594.5021,541.87442 683.70453,530.45213 824.03908,511.51122 897.69941,492.80521 1138.1474,416.22945 h 110.9593 z"
     id="path1-9"
     sodipodi:nodetypes="ccscccccccc" />
</svg>
