<?xml version="1.0" encoding="UTF-8" standalone="no"?>
<svg
   width="1000"
   height="500"
   version="1.1"
   id="svg1"
   sodipodi:docname="13983.svg"
   inkscape:version="1.4.2 (f4327f4, 2025-05-13)"
   xmlns:inkscape="http://www.inkscape.org/namespaces/inkscape"
   xmlns:sodipodi="http://sodipodi.sourceforge.net/DTD/sodipodi-0.dtd"
   xmlns="http://www.w3.org/2000/svg"
   xmlns:svg="http://www.w3.org/2000/svg">
  <defs
     id="defs1" />
  <sodipodi:namedview
     id="namedview1"
     pagecolor="#ffffff"
     bordercolor="#666666"
     borderopacity="1.0"
     inkscape:showpageshadow="2"
     inkscape:pageopacity="0.0"
     inkscape:pagecheckerboard="0"
     inkscape:deskcolor="#d1d1d1"
     inkscape:zoom="0.5895"
     inkscape:cx="786.25954"
     inkscape:cy="679.38931"
     inkscape:window-width="1680"
     inkscape:window-height="998"
     inkscape:window-x="-8"
     inkscape:window-y="-8"
     inkscape:window-maximized="1"
     inkscape:current-layer="svg1" />
  <path
     id="path3037-1"
     style="fill:#000000;stroke:none;stroke-width:0.999999"
     d="M 263.75001,500 C 103.22582,500 0.03591875,450.10993 0.01171875,249.99609 -0.01248125,49.88224 114.86932,0 263.75392,0 H 893.36329 C 1066.9127,0 1157.1014,63.71621 1157.1016,249.99609 1157.1018,436.27597 1066.9089,500 893.36329,500 Z m 3.20898,-42.45117 h 623.19532 c 121.38839,0 224.74409,-27.09228 224.74409,-207.55274 0,-180.46046 -103.4561,-207.56445 -224.74409,-207.56445 H 266.95899 c -134.53157,0 -223.761671,35.82276 -223.761671,207.56445 0,171.74169 89.304301,207.55274 223.761671,207.55274 z M 556.91798,424.55078 C 478.95373,424.44483 379.53652,406.0108 303.44337,329.7168 c -15.87206,-14.34405 -33.22978,-28.98982 -54.36719,-34.5625 -9.21918,-3.09997 -19.90493,-8.78048 -21.45312,-19.375 -1.13661,-11.38326 3.39056,-24.38006 13.9082,-29.84766 10.35861,-4.33896 22.26126,-1.22273 32.22266,2.66797 22.55117,10.43781 41.89308,26.59047 61.125,42.14453 41.52919,44.37227 110.92407,89.72567 220.83593,89.07813 72.33026,-0.75573 142.24378,-25.72955 204.67188,-60.82813 46.13757,-25.61241 131.70059,-71.59404 195.17578,-76.45312 v 1.40429 45.1211 c -76.0777,13.48183 -143.08167,53.018 -210.26172,88.88671 -58.00769,29.8935 -122.98575,46.6116 -188.38281,46.59766 z M 531.67384,319.53125 c -80.44995,-3.47649 -136.98601,-45.0532 -185.42578,-95.41406 -24.13717,-24.68076 -50.28337,-48.57343 -82.20117,-63.00586 -11.15341,-4.95833 -22.98486,-8.2791 -35.24024,-8.81445 0,-13.99665 -5e-5,-27.9916 0,-41.98829 79.38096,-7.55905 158.35887,-18.76407 236.84961,-32.88281 103.06863,-16.49271 204.24196,5.12861 263.71875,20.25586 53.52642,12.80197 107.02887,25.94036 160.77539,37.61524 h 65.41211 v 47.38867 c -21.96411,1.59622 -44.00972,2.77588 -65.92188,4.63867 -41.90427,14.41843 -80.86964,35.74168 -119.41015,57.38086 -98.94662,57.18589 -175.98446,77.53011 -238.55664,74.82617 z m 15.57226,-36.68359 c 47.58465,-5.5e-4 86.15952,-38.66461 86.16016,-86.35938 4.3e-4,-47.69553 -38.57475,-86.36078 -86.16016,-86.36133 -47.58617,-5.3e-4 -86.16254,38.66503 -86.16211,86.36133 6.4e-4,47.69553 38.5767,86.35991 86.16211,86.35938 z m 105.03711,-23.31641 c 0.0222,4e-4 0.0476,-0.002 0.0762,-0.01 20.81745,-3.4926 39.83457,-13.84279 58.36914,-23.47265 47.10621,-28.56199 95.68646,-54.28738 147.20507,-73.93555 -38.8607,-2.7767 -76.74527,-12.66244 -113.8457,-24.16601 -33.40344,-9.42008 -67.56266,-16.31509 -102.02539,-20.83594 l 0.3418,0.46289 c 54.77397,77.32036 7.05616,141.90621 9.8789,141.95703 z m -211.96093,-4.3457 c -16.60546,-41.60664 -24.94389,-94.58484 11.25,-136.19727 0.3043,-0.71858 1.45799,-1.42326 1.38867,-1.59961 -2.6e-4,-5e-4 -0.003,-0.003 -0.004,-0.004 v -0.002 c -0.0648,-0.088 -0.52812,-0.007 -1.75586,0.33203 -48.81012,9.01968 -97.86187,16.66273 -147.20508,21.53711 26.30519,16.3164 50.37021,36.431 69.50977,60.81836 19.14879,21.77913 42.41139,39.49027 66.81641,55.11524 z"
     sodipodi:nodetypes="szsszsssszsszsccccccccccccccscccccccccccsscscssccccccsccscccccc" />
</svg>
