<?xml version="1.0" encoding="UTF-8" standalone="no"?>
<svg
   width="900"
   height="1000"
   version="1.1"
   id="svg1"
   sodipodi:docname="1398A.svg"
   inkscape:version="1.4.2 (f4327f4, 2025-05-13)"
   xmlns:inkscape="http://www.inkscape.org/namespaces/inkscape"
   xmlns:sodipodi="http://sodipodi.sourceforge.net/DTD/sodipodi-0.dtd"
   xmlns="http://www.w3.org/2000/svg"
   xmlns:svg="http://www.w3.org/2000/svg">
  <defs
     id="defs1" />
  <sodipodi:namedview
     id="namedview1"
     pagecolor="#ffffff"
     bordercolor="#666666"
     borderopacity="1.0"
     inkscape:showpageshadow="2"
     inkscape:pageopacity="0.0"
     inkscape:pagecheckerboard="0"
     inkscape:deskcolor="#d1d1d1"
     inkscape:zoom="0.53386562"
     inkscape:cx="557.25634"
     inkscape:cy="598.46521"
     inkscape:window-width="1680"
     inkscape:window-height="998"
     inkscape:window-x="-8"
     inkscape:window-y="-8"
     inkscape:window-maximized="1"
     inkscape:current-layer="svg1"
     showguides="true">
    <sodipodi:guide
       position="900,0"
       orientation="0,-1"
       id="guide4"
       inkscape:locked="false" />
  </sodipodi:namedview>
  <path
     style="fill:#000000;stroke:none;stroke-width:0.999999"
     d="m 369.8182,42.545467 c 112.21931,0 259.22524,20.960503 355.09088,63.818173 l -27.81814,53.99998 c -91.91838,-34.96283 -242.53931,-52.36365 -364.90911,-52.36365 -62.5947,0.56392 -146.74911,30.28028 -212.72727,88.36369 L 73.636347,155.45452 C 146.38154,79.889767 257.59889,42.545467 369.8182,42.545467 Z M 251.99999,175.09089 c -10.32862,20.16553 -40.39508,91.07086 11.45459,150.54545 L 78.545437,296.18179 v -9.81818 C 154.1102,218.69367 224.93203,181.29394 251.99999,175.09089 Z m 229.09094,-9.81817 c 82.33165,12.97013 190.86534,32.85819 242.1818,62.18182 v 1.6364 c -50.75242,40.03803 -162.95661,72.29701 -250.36364,96.5454 38.96196,-57.8143 28.44423,-116.31489 8.18184,-160.36362 z M 366.54546,152.18185 c 60.78617,0 90.00001,23.07611 90.00001,96.54544 -1.12787,52.44414 -31.35276,78.54545 -90.00001,78.54545 -60.33903,-0.5639 -91.63637,-26.66521 -91.63637,-78.54545 0,-62.82987 18.93469,-96.54544 91.63637,-96.54544 z M 374.72729,0 C 238.54155,0 103.42826,52.711087 9.8181792,158.72728 l 73.6363468,70.36366 c -15.789648,15.78965 -37.369483,25.5071 -62.181825,29.45447 -10.7144,0 -16.08166,15.14021 -16.3636112,44.18188 -0.2819511,29.04161 5.1407382,42.5454 14.7272692,42.5454 9.578521,-0.20377 19.171204,-0.30437 28.713391,-0.30437 69.66852,0 136.64942,5.35995 175.83203,15.03163 44.54944,10.99629 91.66669,16.36362 140.72734,16.36362 104.88832,0 250.36871,-31.80594 350.18177,-93.27271 58.64732,-15.22574 110.34133,-22.9091 155.4546,-22.9091 H 900 v -65.4545 c -53.5719,0 -107.3002,-6.66624 -162,-19.63637 v -1.63635 L 782.18181,91.636362 C 674.47385,31.297346 510.91297,0 374.72729,0 Z"
     id="path1"
     sodipodi:nodetypes="scccccsccccccccccsccssscccscscscscccccs" />
  <path
     id="path2"
     style="baseline-shift:baseline;display:inline;overflow:visible;vector-effect:none;fill:#000000;stroke-linecap:round;stroke-linejoin:round;enable-background:accumulate;stop-color:#000000;stop-opacity:1;opacity:1"
     d="M 773.38477 367.75 A 12.50125 12.50125 0 0 0 761.5957 376.68555 L 708.3418 555.97266 A 12.50125 12.50125 0 0 0 720.83398 572.02148 L 765.125 570.21094 A 12.50125 12.50125 0 0 0 761.48047 576.26758 L 711.26953 769.17188 A 12.50125 12.50125 0 0 0 723.36719 784.82031 L 767.52344 784.82031 A 12.50125 12.50125 0 0 0 766.17773 787.79297 L 709.88086 973.88867 A 12.50125 12.50125 0 0 0 722.08398 990.00586 L 840.76562 987.73633 A 12.50125 12.50125 0 0 0 852.36328 971.2207 L 789.98047 787.39453 A 12.50125 12.50125 0 0 0 788.76367 784.82031 L 832.91797 784.82031 A 12.50125 12.50125 0 0 0 844.86523 768.64453 L 785.52539 575.74219 A 12.50125 12.50125 0 0 0 781.25 569.55273 L 831.90625 567.48242 A 12.50125 12.50125 0 0 0 843.26367 551.06641 L 785.44531 376.31836 A 12.50125 12.50125 0 0 0 773.38477 367.75 z M 442.9082 403.26758 A 12.50125 12.50125 0 0 0 431.25195 412.22656 L 382.31641 578.26172 A 12.50125 12.50125 0 0 0 394.02344 594.29102 L 440.85742 595.3457 A 12.50125 12.50125 0 0 0 439.22852 598.65234 L 378.21875 789.64453 A 12.50125 12.50125 0 0 0 390.55664 805.94141 L 431.27344 804.54102 L 383.33203 983.60547 A 12.50125 12.50125 0 0 0 395.48438 999.33789 L 510.58984 998.61914 A 12.50125 12.50125 0 0 0 522.27148 981.87695 L 457.96094 803.62305 L 496.85352 802.28516 A 12.50125 12.50125 0 0 0 508.57422 786.85547 L 463.28516 599.51953 A 12.50125 12.50125 0 0 0 461.72266 595.81641 L 502.58398 596.73633 A 12.50125 12.50125 0 0 0 514.65039 580.06836 L 455.02539 411.58984 A 12.50125 12.50125 0 0 0 442.9082 403.26758 z M 142.5 418.11719 A 12.50125 12.50125 0 0 0 130.37891 426.79492 L 72.361328 607.63672 A 12.50125 12.50125 0 0 0 84.605469 623.95117 L 121.75586 622.93359 L 77.939453 798.16016 A 12.50125 12.50125 0 0 0 91.234375 813.63867 L 116.14648 811.30078 L 70.259766 981.75 A 12.50125 12.50125 0 0 0 82.990234 997.48242 L 195.1582 991.55273 A 12.50125 12.50125 0 0 0 206.32422 975.02344 L 149.23633 808.19531 L 185.99609 804.74414 A 12.50125 12.50125 0 0 0 196.80859 788.73438 L 147.26758 622.23633 L 192.90625 620.98633 A 12.50125 12.50125 0 0 0 204.5918 605.08984 L 154.31055 427.21289 A 12.50125 12.50125 0 0 0 142.5 418.11719 z M 774.2207 421.98047 L 814.32227 543.18164 L 737.28516 546.32812 L 774.2207 421.98047 z M 444.32812 456.29297 L 485.03906 571.33398 L 410.91211 569.66602 L 444.32812 456.29297 z M 141.52539 473.88867 L 176.16602 596.43555 L 101.55469 598.47852 L 141.52539 473.88867 z M 774.58008 625.19141 L 815.99414 759.82031 L 739.53711 759.82031 L 774.58008 625.19141 z M 449.46875 648.75586 L 480.66992 777.82617 L 407.43359 780.3457 L 449.46875 648.75586 z M 135.5918 670.6582 L 168.50781 781.27539 L 106.47656 787.09766 L 135.5918 670.6582 z M 778.82617 832.32227 L 823.19531 963.06641 L 738.78516 964.68164 L 778.82617 832.32227 z M 134.03906 841.00781 L 177.31445 967.46094 L 98.880859 971.60742 L 134.03906 841.00781 z M 446.31641 845.01758 L 492.75391 973.73047 L 411.7207 974.23633 L 446.31641 845.01758 z " />
</svg>
