<?xml version="1.0" encoding="UTF-8" standalone="no"?>
<svg
   width="2500"
   height="1000"
   id="svg1609"
   sodipodi:version="0.32"
   inkscape:version="1.4.2 (f4327f4, 2025-05-13)"
   sodipodi:docname="13985.svg"
   version="1.1"
   xmlns:inkscape="http://www.inkscape.org/namespaces/inkscape"
   xmlns:sodipodi="http://sodipodi.sourceforge.net/DTD/sodipodi-0.dtd"
   xmlns="http://www.w3.org/2000/svg"
   xmlns:svg="http://www.w3.org/2000/svg"
   xmlns:rdf="http://www.w3.org/1999/02/22-rdf-syntax-ns#"
   xmlns:cc="http://creativecommons.org/ns#"
   xmlns:dc="http://purl.org/dc/elements/1.1/">
  <metadata
     id="metadata1616">
    <rdf:RDF>
      <cc:Work
         rdf:about="">
        <dc:format>image/svg+xml</dc:format>
        <dc:type
           rdf:resource="http://purl.org/dc/dcmitype/StillImage" />
        <dc:date>18/02/06</dc:date>
        <dc:creator>
          <cc:Agent>
            <dc:title>Serge Thomas</dc:title>
          </cc:Agent>
        </dc:creator>
        <dc:publisher>
          <cc:Agent>
            <dc:title>Serge Rosmorduc</dc:title>
          </cc:Agent>
        </dc:publisher>
        <dc:description>optimisation et régularisation du signe de Jsesh
valeur :Xr</dc:description>
        <cc:license
           rdf:resource="http://creativecommons.org/licenses/GPL/2.0/" />
      </cc:Work>
      <cc:License
         rdf:about="http://creativecommons.org/licenses/GPL/2.0/">
        <cc:permits
           rdf:resource="http://web.resource.org/cc/Reproduction" />
        <cc:permits
           rdf:resource="http://web.resource.org/cc/Distribution" />
        <cc:requires
           rdf:resource="http://web.resource.org/cc/Notice" />
        <cc:permits
           rdf:resource="http://web.resource.org/cc/DerivativeWorks" />
        <cc:requires
           rdf:resource="http://web.resource.org/cc/ShareAlike" />
        <cc:requires
           rdf:resource="http://web.resource.org/cc/SourceCode" />
      </cc:License>
    </rdf:RDF>
  </metadata>
  <defs
     id="defs1614" />
  <sodipodi:namedview
     inkscape:window-height="998"
     inkscape:window-width="1680"
     inkscape:pageshadow="2"
     inkscape:pageopacity="0.0"
     borderopacity="1.0"
     bordercolor="#666666"
     pagecolor="#ffffff"
     id="base"
     inkscape:zoom="0.438"
     inkscape:cx="978.3105"
     inkscape:cy="813.92694"
     inkscape:window-x="-8"
     inkscape:window-y="-8"
     inkscape:current-layer="svg1609"
     inkscape:showpageshadow="2"
     inkscape:pagecheckerboard="0"
     inkscape:deskcolor="#d1d1d1"
     inkscape:window-maximized="1"
     showguides="true" />
  <path
     id="path1"
     style="fill:#000000;stroke:none;stroke-width:0.736764"
     d="M 985.38672 0.140625 C 915.76847 -1.0850481 847.12781 5.6591099 779.4707 20.367188 C 644.15638 49.783342 506.88297 137.54038 367.64648 283.64062 C 228.41 428.76031 106.33364 506.22 1.4160156 516.02539 L -1.5253906 618.98633 C 142.6436 631.44538 285.19698 647.85238 426.13477 668.20898 L 376.20508 944.03906 A 47.5 47.5 0 0 0 414.48633 999.24023 A 47.5 47.5 0 0 0 469.6875 960.96094 L 520.10938 682.4043 C 580.38797 691.91195 640.36717 702.15004 700.04883 713.11719 C 926.85563 754.79534 1184.8027 741.38157 1473.8867 672.87695 L 1557.4629 965.54297 A 47.5 47.5 0 0 0 1616.1797 998.17383 A 47.5 47.5 0 0 0 1648.8105 939.45703 L 1566.3301 650.62891 C 1811.2779 591.81962 1969.1523 555.77552 2039.9551 542.5 L 2234.1016 542.5 L 2234.1016 416.01172 L 2034.0723 416.01172 C 1938.9602 383.65391 1811.4898 319.42871 1651.6621 223.33594 C 1492.8148 127.24315 1341.3228 62.039552 1197.1836 27.720703 C 1125.6044 10.561279 1055.005 1.366298 985.38672 0.140625 z M 978.76758 99.697266 C 1127.0132 99.697768 1247.1901 220.22513 1247.1895 368.90234 C 1247.1895 517.57809 1127.0118 638.10302 978.76758 638.10352 C 830.52187 638.10545 710.34521 517.57954 710.34375 368.90234 C 710.34316 220.22367 830.52046 99.695704 978.76758 99.697266 z M 1286.8984 167.44727 C 1340.8281 171.36943 1431.5319 212.06091 1559.002 289.52344 C 1686.472 366.00544 1817.8614 429.25035 1953.1758 479.25781 C 1854.1413 485.14106 1746.2836 506.2201 1629.5996 542.5 C 1511.935 577.79939 1388.3861 604.27609 1258.9551 621.92578 C 1351.4695 511.78959 1394.2709 313.16676 1286.8984 167.44727 z M 658.86523 179.21094 C 637.17551 219.87925 536.56162 432.96726 698.57812 618.98633 C 521.10064 586.62855 361.27376 562.60464 219.0957 546.91602 C 308.32471 493.96695 378.43386 435.13154 429.42188 370.41602 C 481.3904 305.70048 557.86976 241.96543 658.86523 179.21094 z " />
</svg>
