<?xml version="1.0" encoding="UTF-8" standalone="no"?>
<svg
   width="900"
   height="1000"
   version="1.1"
   id="svg1"
   sodipodi:docname="1398B.svg"
   inkscape:version="1.4.2 (f4327f4, 2025-05-13)"
   xmlns:inkscape="http://www.inkscape.org/namespaces/inkscape"
   xmlns:sodipodi="http://sodipodi.sourceforge.net/DTD/sodipodi-0.dtd"
   xmlns="http://www.w3.org/2000/svg"
   xmlns:svg="http://www.w3.org/2000/svg">
  <defs
     id="defs1" />
  <sodipodi:namedview
     id="namedview1"
     pagecolor="#ffffff"
     bordercolor="#666666"
     borderopacity="1.0"
     inkscape:showpageshadow="2"
     inkscape:pageopacity="0.0"
     inkscape:pagecheckerboard="0"
     inkscape:deskcolor="#d1d1d1"
     inkscape:zoom="0.755"
     inkscape:cx="632.45033"
     inkscape:cy="546.35762"
     inkscape:window-width="1680"
     inkscape:window-height="998"
     inkscape:window-x="-8"
     inkscape:window-y="-8"
     inkscape:window-maximized="1"
     inkscape:current-layer="svg1"
     showguides="true">
    <sodipodi:guide
       position="900,0"
       orientation="0,-1"
       id="guide4"
       inkscape:locked="false" />
    <sodipodi:guide
       position="369.1368,829.78107"
       orientation="0,-1"
       id="guide1"
       inkscape:locked="false" />
    <sodipodi:guide
       position="369.1368,640.64381"
       orientation="0,-1"
       id="guide2"
       inkscape:locked="false" />
    <sodipodi:guide
       position="271.3704,725.61856"
       orientation="1,0"
       id="guide3"
       inkscape:locked="false" />
    <sodipodi:guide
       position="465.98972,725.61856"
       orientation="1,0"
       id="guide5"
       inkscape:locked="false" />
  </sodipodi:namedview>
  <path
     id="path2"
     style="baseline-shift:baseline;display:inline;overflow:visible;opacity:1;vector-effect:none;fill:#000000;stroke-linecap:round;stroke-linejoin:round;enable-background:accumulate;stop-color:#000000;stop-opacity:1"
     d="m 335.37305,0.01953125 c -1.85596,-0.06173003 -3.69799,0.02139241 -5.52539,0.25 C 315.22846,2.0968853 302.28481,13.51789 291.01562,34.533203 279.74645,55.54814 264.51766,58.29069 245.33008,42.757812 226.14212,27.224936 208.02077,22.655046 190.96484,29.050781 173.91043,35.446894 163.85935,49.152656 160.8125,70.167969 157.76679,91.182904 146.19344,98.34104 126.0918,91.640625 105.99017,84.940202 87.258667,90.575324 69.898438,108.54492 52.538207,126.51453 66.699805,166.56538 112.38477,228.69727 76.445939,261.59075 45.075495,280.16793 18.273438,284.43164 v -0.002 C 6.0905815,284.42969 0,300.11552 0,331.48633 c 0,31.37043 5.1780784,47.05664 15.533203,47.05664 85.888617,-1.82735 152.741607,3.198 200.558597,15.07617 47.81737,11.87817 98.52675,17.81641 152.13086,17.81641 113.29928,0 223.85819,-33.19778 331.67578,-99.59375 63.35025,-16.44693 119.39042,-24.66992 168.12109,-24.66992 H 900 v -71.26954 c -57.86819,0 -116.34547,-7.00579 -175.43164,-21.01562 C 748.32471,134.5818 755.6352,95.445781 746.49805,77.476562 737.36091,59.508095 719.84699,57.681577 693.95898,71.996094 668.0706,86.310989 651.77696,82.350865 645.07617,60.117188 638.37575,37.885022 626.49733,25.246064 609.44141,22.199219 592.38586,19.153505 574.87391,26.309691 556.9043,43.669922 538.9347,61.030529 524.16332,58.747349 512.58984,36.818359 501.01597,14.887861 487.31023,2.8570918 471.47266,0.7265625 455.63548,-1.4050982 439.94928,5.9050116 424.41602,22.65625 c -15.53287,16.751239 -31.5222,16.751239 -47.96875,0 C 362.0562,7.9975969 348.36476,0.45164143 335.37305,0.01953125 Z m 1.51172,35.75585975 c 6.12105,0.200031 12.91124,3.898382 20.37304,11.09375 17.05592,16.446931 32.28628,24.669921 45.6875,24.669921 13.40084,0 27.71479,-8.528061 42.94336,-25.583984 15.22819,-17.055923 30.60933,-12.182916 46.14258,14.619141 15.53288,26.802061 32.13197,37.157835 49.79687,31.066406 17.66491,-6.091433 32.58863,-15.076909 44.77149,-26.955078 12.18285,-11.878171 21.47145,-8.680534 27.86719,9.59375 6.39611,18.273905 17.3597,30.914813 32.89258,37.919923 15.53288,7.0051 32.58937,4.26256 51.16796,-8.22461 18.57897,-12.487543 14.77119,13.85913 -11.42187,79.03711 C 558.57762,140.98109 452.58861,119.96484 369.13672,119.96484 v -0.002 c -46.90331,0 -90.30454,8.68041 -130.20313,26.04102 -39.89859,17.36023 -71.72608,36.39679 -95.48242,57.10742 -43.857604,-57.25881 -49.491141,-82.23324 -16.90234,-74.92383 32.5888,7.30979 52.84293,-3.80847 60.76172,-33.351562 7.91878,-29.543083 19.94797,-37.613731 36.08984,-24.212891 16.14225,13.401596 33.19837,18.731641 51.16797,15.990234 17.9696,-2.741407 31.98043,-14.16241 42.03125,-34.263672 5.65358,-11.306534 12.41523,-16.831402 20.28516,-16.574218 z m 31.79492,134.443359 c 53.74288,-4.7e-4 97.31039,42.33932 97.31054,94.56836 -1.5e-4,52.22904 -43.56766,94.56883 -97.31054,94.56836 -53.74212,-5.7e-4 -97.30845,-42.34006 -97.3086,-94.56836 1.5e-4,-52.2283 43.56648,-94.56779 97.3086,-94.56836 z m 122.89453,12.79297 c 89.54279,14.00983 162.02953,36.85225 217.46094,68.52734 v 1.82617 c -55.43147,43.24899 -130.05042,77.97138 -223.85743,104.16407 18.88327,-28.02041 28.32422,-56.3452 28.32422,-84.97461 0,-29.23821 -7.30873,-59.08641 -21.92773,-89.54297 z m -245.78711,11.87695 c -12.79223,24.97432 -19.1875,51.47177 -19.1875,79.49219 0,31.06613 10.35382,58.47803 31.06445,82.23437 L 79.492188,325.54883 V 314.58398 C 160.50735,241.48759 215.93934,201.58908 245.78711,194.88867 Z m 464.24414,181.90625 -64.44141,197.95313 c -2.67112,8.21274 3.59154,16.59563 12.22461,16.36328 l 43.03321,-1.16016 -49.04297,193.27735 c -2.12196,8.36677 4.67252,16.31549 13.26758,15.52148 l 29.60742,-2.73828 -51.41016,188.19336 c -2.24315,8.21506 4.20468,16.21962 12.70899,15.77734 l 124.58398,-6.49023 c 8.31223,-0.43435 13.8866,-8.71834 11.1582,-16.58203 l -63.8789,-183.96485 42.48242,-3.92969 c 7.87234,-0.72946 13.09915,-8.49179 10.81445,-16.06054 l -55.45703,-183.67383 52.41992,-1.41406 c 8.16621,-0.22187 13.9288,-8.08845 11.67774,-15.94141 L 733.93164,377.21875 c -3.36965,-11.74795 -20.11773,-12.04352 -23.90039,-0.42383 z M 102.32617,412.22656 53.390625,578.26172 c -2.324706,7.8947 3.481241,15.84289 11.708984,16.0293 l 46.832031,1.05468 c -0.70338,1.01567 -1.25231,2.12999 -1.62891,3.30664 L 49.292969,789.64453 c -2.630567,8.23739 3.695763,16.59372 12.33789,16.29688 l 40.716801,-1.40039 -47.94141,179.06445 c -2.132413,7.96926 3.902874,15.78254 12.152344,15.73242 l 115.107426,-0.71875 c 8.62737,-0.0553 14.60668,-8.62632 11.67968,-16.74219 l -64.31054,-178.2539 38.89257,-1.33789 c 7.91064,-0.27284 13.5796,-7.73571 11.72071,-15.42969 L 134.36133,599.51953 c -0.31769,-1.31057 -0.84535,-2.5611 -1.5625,-3.70312 l 40.86133,0.91992 c 8.74555,0.19532 14.98229,-8.42121 12.06445,-16.66797 L 126.10156,411.58984 c -4.00941,-11.3295 -20.37766,-10.89155 -23.77539,0.63672 z m 293.16406,18.18164 -53.47265,166.17188 c -2.64171,8.21246 4.34719,16.36171 13.72851,16.00781 l 41.95313,-1.58203 c -1.08933,1.31545 -1.88254,2.81425 -2.33399,4.41016 l -50.41406,178.79296 c -2.23031,7.90909 4.32198,15.61188 13.28125,15.61329 h 42.52539 c -0.26265,0.52442 -0.48518,1.06477 -0.66601,1.61718 l -56.52539,172.48243 c -2.65833,8.11358 4.11595,16.23822 13.40429,16.07617 l 119.16407,-2.10352 c 9.25489,-0.16556 15.67588,-8.46824 12.73632,-16.46875 L 426.23633,811.04492 c -0.15343,-0.41576 -0.33076,-0.82388 -0.53125,-1.22265 h 42.52539 c 9.2059,-5.4e-4 15.79733,-8.10371 13.12305,-16.13282 L 421.77148,614.89453 c -0.57909,-1.73512 -1.56544,-3.33462 -2.89062,-4.6875 l 48.38867,-1.82617 c 9.0814,-0.3426 15.29209,-8.49576 12.4707,-16.37109 l -58.05664,-161.9668 c -4.14882,-11.57441 -22.43264,-11.32162 -26.19336,0.36523 z m 325.66993,-7.03906 40.14062,139.94141 -86.45508,2.33203 z m -605.75782,32.92578 40.71094,115.03906 -74.126952,-1.66796 z m 293.95118,19.84961 38.6914,107.93945 -74.32617,2.80469 z m 305.01562,162.16211 38.41406,127.22461 -72.39453,6.69727 z m -593.82617,10.44922 31.20312,129.07031 -73.238278,2.51953 z m 289.20508,16.08398 39.98633,119.98243 h -73.81641 z m 302.85351,160.4336 50.04492,144.11914 -90.70507,4.72656 z m -595.20898,19.74023 46.4375,128.7168 -81.033205,0.50586 z m 296.58984,11.38672 42.95117,116.82813 -81.71289,1.4414 z"
     sodipodi:nodetypes="scccccsscccsccscscccccsccccccssssccsscssccccccscscsccsccccccsccsccccsccccccccccccccccsssccccccccccccccccccsssccccccccccccccccccccsscccccccccccccccccccccccccccccccccccc" />
</svg>
