<?xml version="1.0" encoding="UTF-8" standalone="no"?>
<svg
   width="1000"
   height="1000"
   version="1.1"
   id="svg1"
   sodipodi:docname="139AB.svg"
   inkscape:version="1.4.2 (f4327f4, 2025-05-13)"
   xmlns:inkscape="http://www.inkscape.org/namespaces/inkscape"
   xmlns:sodipodi="http://sodipodi.sourceforge.net/DTD/sodipodi-0.dtd"
   xmlns="http://www.w3.org/2000/svg"
   xmlns:svg="http://www.w3.org/2000/svg">
  <defs
     id="defs1" />
  <sodipodi:namedview
     id="namedview1"
     pagecolor="#ffffff"
     bordercolor="#666666"
     borderopacity="1.0"
     inkscape:showpageshadow="2"
     inkscape:pageopacity="0.0"
     inkscape:pagecheckerboard="0"
     inkscape:deskcolor="#d1d1d1"
     showguides="true"
     inkscape:zoom="0.53386562"
     inkscape:cx="396.16711"
     inkscape:cy="542.27129"
     inkscape:window-width="1680"
     inkscape:window-height="998"
     inkscape:window-x="-8"
     inkscape:window-y="-8"
     inkscape:window-maximized="1"
     inkscape:current-layer="svg1">
    <sodipodi:guide
       position="7.619463,17.864578"
       orientation="1,0"
       id="guide3"
       inkscape:locked="false" />
    <sodipodi:guide
       position="404.93603,969.14557"
       orientation="1,0"
       id="guide5"
       inkscape:locked="false" />
  </sodipodi:namedview>
  <path
     id="path1"
     style="fill:#000000;stroke:none;stroke-width:1"
     d="M 296.98633 0.140625 C 197.23323 -0.57189711 172.23979 55.129986 129.27734 130.34375 C 84.211884 209.7533 37.618772 288.5756 8.4609375 375.48242 C -3.2349653 394.48825 -2.9469406 417.1658 10.210938 442.01953 C 23.368814 466.87325 33.765073 492.67124 39.978516 520.81445 C 52.204413 576.19051 91.246596 653.54925 117.08398 716.73828 C 133.21587 751.79507 140.46369 789.43639 146.78711 827.23633 C 148.48425 837.60659 163.14724 910.13912 248.3457 967.31445 C 263.84203 979.70277 276.31246 999.39683 297.81055 1000 C 306.23819 1000 313.7166 996.45255 314.63477 989.32617 C 317.60074 966.30584 303.03883 952.22227 283.36523 941.05078 C 241.43114 911.99054 192.97486 865.02637 218.57812 830.73828 C 227.83372 813.08832 237.1708 820.81707 248.3457 844.74609 C 255.30533 859.64902 270.12053 887.14077 284.70703 887.14062 C 288.96246 887.14062 292.36967 884.81771 293.87109 879.76367 C 295.53669 874.15688 289.16271 862.26373 278.11133 844.74414 C 267.05996 827.22443 260.78027 810.36725 257.09961 792.21484 C 253.41896 774.06243 235.15337 759.22845 204.57031 750.19141 L 180.05664 734.43359 C 165.05593 620.02027 139.98387 511.17348 85.503906 408.75195 C 85.503906 378.05022 103.38661 354.76733 136.28125 314.19727 C 169.17588 273.62716 192.58965 221.12766 216.82812 163.61328 C 241.28849 105.57239 266.26092 81.189492 305.33398 80.146484 C 335.43305 79.343026 378.51365 114.57031 404.93555 114.57031 C 431.35745 114.57031 474.43999 79.343026 504.53906 80.146484 C 543.61212 81.189492 568.58261 105.57239 593.04297 163.61328 C 617.28144 221.12766 640.69521 273.62716 673.58984 314.19727 C 706.48448 354.76733 724.36719 378.05022 724.36719 408.75195 C 669.88723 511.17348 644.81516 620.02027 629.81445 734.43359 L 605.30078 750.19141 C 574.71772 759.22845 556.45213 774.06243 552.77148 792.21484 C 549.09082 810.36725 542.81114 827.22443 531.75977 844.74414 C 520.70839 862.26373 514.3344 874.15688 516 879.76367 C 517.50142 884.81771 520.90863 887.14062 525.16406 887.14062 C 539.75056 887.14077 554.56576 859.64902 561.52539 844.74609 C 572.70029 820.81707 582.03738 813.08832 591.29297 830.73828 C 616.89623 865.02637 568.43995 911.99054 526.50586 941.05078 C 506.83226 952.22227 492.27036 966.30584 495.23633 989.32617 C 496.1545 996.45255 503.63291 1000 512.06055 1000 C 533.55864 999.39683 546.02906 979.70277 561.52539 967.31445 C 646.72385 910.13912 661.38684 837.60659 663.08398 827.23633 C 669.4074 789.43639 676.65522 751.79507 692.78711 716.73828 C 718.6245 653.54925 757.66669 576.19051 769.89258 520.81445 C 776.10603 492.67124 786.50229 466.87325 799.66016 442.01953 C 812.81804 417.1658 813.10607 394.48825 801.41016 375.48242 C 772.25233 288.5756 725.65921 209.7533 680.59375 130.34375 C 637.6313 55.129986 612.63787 -0.57189711 512.88477 0.140625 C 456.78361 0.140625 439.09603 30.853516 404.93555 30.853516 C 370.77507 30.853516 353.08749 0.140625 296.98633 0.140625 z M 404.93555 172.32812 A 46.828262 46.828262 0 0 0 358.10742 219.15625 A 46.828262 46.828262 0 0 0 404.93555 265.98438 A 46.828262 46.828262 0 0 0 451.76367 219.15625 A 46.828262 46.828262 0 0 0 404.93555 172.32812 z M 404.93555 319.13086 A 46.828262 46.828262 0 0 0 358.10742 365.95898 A 46.828262 46.828262 0 0 0 404.93555 412.78711 A 46.828262 46.828262 0 0 0 451.76367 365.95898 A 46.828262 46.828262 0 0 0 404.93555 319.13086 z M 404.93555 465.93359 A 46.828262 46.828262 0 0 0 358.10742 512.76172 A 46.828262 46.828262 0 0 0 404.93555 559.58984 A 46.828262 46.828262 0 0 0 451.76367 512.76172 A 46.828262 46.828262 0 0 0 404.93555 465.93359 z M 404.93555 612.73633 A 46.828262 46.828262 0 0 0 358.10742 659.56641 A 46.828262 46.828262 0 0 0 404.93555 706.39453 A 46.828262 46.828262 0 0 0 451.76367 659.56641 A 46.828262 46.828262 0 0 0 404.93555 612.73633 z M 404.93555 759.54102 A 46.828262 46.828262 0 0 0 358.10742 806.36914 A 46.828262 46.828262 0 0 0 404.93555 853.19727 A 46.828262 46.828262 0 0 0 451.76367 806.36914 A 46.828262 46.828262 0 0 0 404.93555 759.54102 z M 404.93555 906.34375 A 46.828262 46.828262 0 0 0 358.10742 953.17188 A 46.828262 46.828262 0 0 0 404.93555 1000 A 46.828262 46.828262 0 0 0 451.76367 953.17188 A 46.828262 46.828262 0 0 0 404.93555 906.34375 z " />
</svg>
