<?xml version="1.0" encoding="UTF-8" standalone="no"?>
<svg
   width="800"
   height="1000"
   id="svg3079"
   sodipodi:version="0.32"
   inkscape:version="1.4.2 (f4327f4, 2025-05-13)"
   sodipodi:docname="139AF.svg"
   inkscape:output_extension="org.inkscape.output.svg.inkscape"
   version="1.0"
   xmlns:inkscape="http://www.inkscape.org/namespaces/inkscape"
   xmlns:sodipodi="http://sodipodi.sourceforge.net/DTD/sodipodi-0.dtd"
   xmlns="http://www.w3.org/2000/svg"
   xmlns:svg="http://www.w3.org/2000/svg"
   xmlns:rdf="http://www.w3.org/1999/02/22-rdf-syntax-ns#"
   xmlns:cc="http://creativecommons.org/ns#"
   xmlns:dc="http://purl.org/dc/elements/1.1/">
  <metadata
     id="metadata3086">
    <rdf:RDF>
      <cc:Work
         rdf:about="">
        <dc:format>image/svg+xml</dc:format>
        <dc:type
           rdf:resource="http://purl.org/dc/dcmitype/StillImage" />
      </cc:Work>
    </rdf:RDF>
  </metadata>
  <defs
     id="defs3084">
    <inkscape:perspective
       sodipodi:type="inkscape:persp3d"
       inkscape:vp_x="0 : 991.09843 : 1"
       inkscape:vp_y="0 : 1000 : 0"
       inkscape:vp_z="15.270176 : 991.09843 : 1"
       inkscape:persp3d-origin="7.635088 : 988.121 : 1"
       id="perspective3088" />
  </defs>
  <sodipodi:namedview
     inkscape:window-height="998"
     inkscape:window-width="1680"
     inkscape:pageshadow="2"
     inkscape:pageopacity="0.0"
     guidetolerance="10.0"
     gridtolerance="10.0"
     objecttolerance="10.0"
     borderopacity="1.0"
     bordercolor="#666666"
     pagecolor="#ffffff"
     id="base"
     showgrid="false"
     inkscape:zoom="0.755"
     inkscape:cx="399.33775"
     inkscape:cy="500"
     inkscape:window-x="-8"
     inkscape:window-y="-8"
     inkscape:current-layer="svg3079"
     inkscape:showpageshadow="2"
     inkscape:pagecheckerboard="0"
     inkscape:deskcolor="#d1d1d1"
     inkscape:window-maximized="1" />
  <path
     id="path3081"
     style="fill:#000000;stroke:none;stroke-width:1"
     d="M 108.50391 0 C 87.613296 9.4739031e-15 71.680697 24.283236 75.466797 43.457031 C 93.932297 136.97116 172.99884 307.68572 183.25391 324.17188 C 210.86189 368.55475 225.63004 395.31922 221.80469 425.80469 C 181.58217 481.9511 155.6261 526.10532 142.95117 562.48438 C 130.27629 598.86349 117.92251 636.66158 106.1543 674.62891 C 101.85407 688.50252 97.871329 703.15034 93.886719 716.68359 C 83.730139 732.55873 72.239587 746.20101 58.841797 763.99609 C 56.970577 766.48136 55.309517 770.19751 53.585938 772.75781 C 24.418557 816.08786 16.112651 871.40529 27.300781 935.7207 L 29.052734 977.77539 C 31.307264 984.73686 34.185733 989.75213 37.814453 993.54492 C 48.362693 1004.5702 63.167302 1002.0935 71.107422 981.2793 C 72.430972 970.81444 74.393799 961.3412 69.355469 942.72852 C 61.358409 892.30152 61.893861 825.27531 104.40039 820.06836 C 111.41673 818.04861 115.90235 817.43685 118.41992 820.06836 C 122.38154 824.20914 121.20699 835.41579 114.91406 851.61133 C 104.62195 878.09892 103.07309 896.06204 107.90625 904.17969 C 108.46749 905.12228 108.97354 905.21615 109.6582 905.93164 C 112.60216 909.00893 117.23034 910.09474 121.92383 907.68359 C 127.13041 905.00913 132.67234 890.9964 137.69531 870.88477 C 142.71837 850.77314 149.89485 835.28801 160.47461 820.06836 C 171.05435 804.84877 168.08794 781.84902 153.46484 753.48242 L 149.96094 732.45508 C 159.032 715.87348 168.08124 700.59195 179.75 681.63867 C 219.56832 616.96293 243.66947 568.62587 253.3457 541.45508 C 263.02189 514.28427 275.73458 490.89857 291.89648 467.85938 C 292.89788 466.43186 293.851 465.00433 294.75586 463.57617 L 424.58008 463.57617 C 425.48493 465.00433 426.43806 466.43186 427.43945 467.85938 C 443.60135 490.89857 456.31404 514.28427 465.99023 541.45508 C 475.66646 568.62587 499.76762 616.96293 539.58594 681.63867 C 551.2547 700.59195 560.30394 715.87348 569.375 732.45508 L 565.86914 753.48242 C 551.24604 781.84902 548.28159 804.84877 558.86133 820.06836 C 569.44109 835.28801 576.61756 850.77314 581.64062 870.88477 C 586.66359 890.9964 592.20358 905.00913 597.41016 907.68359 C 602.10365 910.09474 606.73182 909.00893 609.67578 905.93164 C 610.36044 905.21615 610.86845 905.12228 611.42969 904.17969 C 616.26285 896.06204 614.71203 878.09892 604.41992 851.61133 C 598.12699 835.41579 596.9544 824.20914 600.91602 820.06836 C 603.43359 817.43685 607.91725 818.04861 614.93359 820.06836 C 657.44012 825.27531 657.97558 892.30152 649.97852 942.72852 C 644.94019 961.3412 646.90301 970.81444 648.22656 981.2793 C 656.16668 1002.0935 670.97129 1004.5702 681.51953 993.54492 C 685.14825 989.75213 688.02672 984.73686 690.28125 977.77539 L 692.0332 935.7207 C 703.22133 871.40529 694.91738 816.08786 665.75 772.75781 C 664.02642 770.19751 662.36341 766.48136 660.49219 763.99609 C 647.0944 746.20101 635.60385 732.55873 625.44727 716.68359 C 621.46266 703.15034 617.48187 688.50252 613.18164 674.62891 C 601.41343 636.66158 589.05769 598.86349 576.38281 562.48438 C 563.70788 526.10532 537.75377 481.9511 497.53125 425.80469 C 493.7059 395.31922 508.4721 368.55475 536.08008 324.17188 C 546.33515 307.68572 625.40169 136.97116 643.86719 43.457031 C 647.65329 24.283236 631.72264 9.4739031e-15 610.83203 0 C 559.63869 0 529.05643 87.563044 506.29102 143.6875 C 482.04736 203.13096 462.24109 250.25751 448.4668 287.375 C 437.3398 317.35881 428.5679 347.58525 421.59961 378.80859 L 297.73438 378.80859 C 290.76609 347.58525 281.99613 317.35881 270.86914 287.375 C 257.09485 250.25751 237.28663 203.13096 213.04297 143.6875 C 190.27756 87.563044 159.69725 0 108.50391 0 z " />
</svg>
