<?xml version="1.0" encoding="UTF-8" standalone="no"?>
<svg
   width="1200"
   height="1000"
   version="1.1"
   id="svg1"
   sodipodi:docname="139B9.svg"
   inkscape:version="1.4.2 (f4327f4, 2025-05-13)"
   xmlns:inkscape="http://www.inkscape.org/namespaces/inkscape"
   xmlns:sodipodi="http://sodipodi.sourceforge.net/DTD/sodipodi-0.dtd"
   xmlns="http://www.w3.org/2000/svg"
   xmlns:svg="http://www.w3.org/2000/svg">
  <defs
     id="defs1" />
  <sodipodi:namedview
     id="namedview1"
     pagecolor="#ffffff"
     bordercolor="#666666"
     borderopacity="1.0"
     inkscape:showpageshadow="2"
     inkscape:pageopacity="0.0"
     inkscape:pagecheckerboard="0"
     inkscape:deskcolor="#d1d1d1"
     showguides="true"
     inkscape:zoom="0.53386562"
     inkscape:cx="1081.7329"
     inkscape:cy="491.69677"
     inkscape:window-width="1680"
     inkscape:window-height="998"
     inkscape:window-x="-8"
     inkscape:window-y="-8"
     inkscape:window-maximized="1"
     inkscape:current-layer="svg1">
    <sodipodi:guide
       position="416,1000"
       orientation="-1,0"
       id="guide1"
       inkscape:locked="false"
       inkscape:label=""
       inkscape:color="rgb(0,134,229)" />
    <sodipodi:guide
       position="208,1000"
       orientation="-1,0"
       id="guide2"
       inkscape:locked="false"
       inkscape:label=""
       inkscape:color="rgb(0,134,229)" />
    <sodipodi:guide
       position="399.01058,142.70667"
       orientation="-0.99199615,-0.12626811"
       id="guide6"
       inkscape:locked="false" />
    <sodipodi:guide
       position="0,1000"
       orientation="1,0"
       id="guide7"
       inkscape:locked="false" />
    <sodipodi:guide
       position="16.95004,142.70667"
       orientation="-0.99193315,0.12676208"
       id="guide8"
       inkscape:locked="false" />
    <sodipodi:guide
       position="171.39145,860.45177"
       orientation="0,-1"
       id="guide9"
       inkscape:locked="false" />
    <sodipodi:guide
       position="298.68324,930.90514"
       orientation="0,-1"
       id="guide10"
       inkscape:locked="false" />
  </sodipodi:namedview>
  <path
     id="path1"
     style="fill:#000000;stroke:none;stroke-width:1"
     d="M 915.16406,0 C 837.37187,0 789.3164,26.078761 769.73047,78.037109 c -3.26437,8.659773 -7.23314,18.250228 -8.86719,28.376951 -1.63434,10.1268 -1.77539,20.32325 -1.77539,31.92383 -14.19368,70.96826 -21.9628,129.59186 -23.05469,173.81055 -1.09195,44.2187 -4.77326,71.07598 -12.41601,79.81054 -101.53896,2.18369 -197.78917,12.95467 -287.31836,33.69922 -7.96961,0.50876 -15.43035,0.75391 -22.44141,0.75391 -22.44487,0 -40.28371,-2.52066 -55.46484,-7.01563 L 322.53125,137.6543 C 312.91374,62.09655 264.64981,17.218753 207.98047,17.21875 151.15349,17.218747 103.34933,62.866456 93.792969,137.64648 L -0.08789062,872.29297 H 416.04102 L 370.6582,515.75391 c 13.13864,-4.04966 25.99662,-8.5603 39.03711,-13.83203 143.91576,9.59431 272.03052,-1.03104 340.52539,-8.86915 60.05009,-54.59097 102.58548,-172.79113 127.69727,-352.9414 0,-24.02005 10.49765,-36.15233 30.15039,-37.24414 22.92817,0 42.152,11.8609 58.5293,33.69726 48.89794,114.87528 112.47254,222.44574 175.58204,329.88477 12.1852,158.4078 35.8271,207.65754 42.7425,271.88505 -8.3232,23.16263 -15.1094,56.72991 -26.0403,74.6883 L 844.261,811.98773 c -10.57975,-45.6941 -77.05837,-68.90555 -117.18988,-71.55993 -50.14293,-3.30407 -107.46109,5.5376 -123.57765,58.37167 l -34.93006,-0.55394 -1.10967,69.86089 34.93081,0.55573 c 6.8582,33.51004 33.23587,62.05753 119.3076,62.94935 54.08447,0.56034 106.76588,-32.91761 118.22995,-61.88006 l 297.815,15.89611 6.4608,114.82925 c 7.3075,2.1258 13.3666,1.7005 18.4359,-0.4568 17.192,-7.3162 23.0063,-34.5723 27.5707,-49.96356 24.7749,-0.3591 54.2295,-6.29456 72.2234,-11.45978 12.2307,-15.00886 20.1783,-30.18612 25.033,-45.34736 l 70.5571,2.74074 1.8378,-81.73694 -71.4927,-0.41523 c -7.5347,-34.12694 -22.2049,-68.98715 -34.899,-104.65226 3.0401,-111.0987 6.0581,-170.77853 -33.2473,-279.96053 -32.7546,-89.52919 -76.243,-187.41575 -133.0176,-294.41406 C 1070.8219,45.261815 1013.4278,0 915.16406,0 Z M 207.98047,47.21875 c 41.66968,3e-6 76.47294,28.873656 84.79101,94.22266 l 89.20899,700.85156 H 33.988281 L 123.55273,141.44922 c 8.25245,-64.576678 42.91567,-94.230473 84.42774,-94.23047 z m 518.32638,718.59189 c 40.15618,3.14199 86.27711,24.41588 92.78062,54.96259 3.18545,12.51402 2.10618,29.88504 -3.36713,41.91139 -10.10203,20.57184 -57.0554,44.78572 -93.26391,43.54404 -59.00133,-2.02303 -83.22848,-12.97131 -93.05797,-37.49846 -2.90377,-7.90435 -2.54981,-15.80319 -2.50116,-23.99321 l -34.93006,-0.55394 1.21397,-19.79218 34.93186,0.55317 c -0.52412,-58.86665 49.37602,-62.32744 98.19378,-59.1334 z m 128.82373,76.2479 268.05622,-4.20887 -1.214,19.7922 z m 438.05812,-3.3093 40.5225,0.10348 -0.3128,30.97274 -41.2152,-1.73605 c 1.0651,-9.7743 1.9088,-19.4756 1.0055,-29.34017 z"
     sodipodi:nodetypes="ssccsccsccsccccccccccccccccccscccscccccccccssccccsccccccccccccccccccc" />
</svg>
