<?xml version="1.0" encoding="UTF-8" standalone="no"?>
<svg
   width="2000"
   height="1000"
   version="1.1"
   id="svg1"
   sodipodi:docname="139D3.svg"
   inkscape:version="1.4.2 (f4327f4, 2025-05-13)"
   xmlns:inkscape="http://www.inkscape.org/namespaces/inkscape"
   xmlns:sodipodi="http://sodipodi.sourceforge.net/DTD/sodipodi-0.dtd"
   xmlns="http://www.w3.org/2000/svg"
   xmlns:svg="http://www.w3.org/2000/svg">
  <defs
     id="defs1" />
  <sodipodi:namedview
     id="namedview1"
     pagecolor="#ffffff"
     bordercolor="#666666"
     borderopacity="1.0"
     inkscape:showpageshadow="2"
     inkscape:pageopacity="0.0"
     inkscape:pagecheckerboard="0"
     inkscape:deskcolor="#d1d1d1"
     inkscape:zoom="0.38714096"
     inkscape:cx="647.05114"
     inkscape:cy="331.92044"
     inkscape:window-width="1680"
     inkscape:window-height="998"
     inkscape:window-x="-8"
     inkscape:window-y="-8"
     inkscape:window-maximized="1"
     inkscape:current-layer="svg1"
     showguides="true">
    <sodipodi:guide
       position="2000,0"
       orientation="0,-1"
       id="guide1"
       inkscape:locked="false" />
  </sodipodi:namedview>
  <path
     id="path1"
     style="fill:#000000;stroke:none;stroke-width:1"
     d="m 24.866998,0 c -64.002667,53.598501 15.748448,649.98779 15.748448,649.98778 l 96.707814,-29.23679 15.74845,56.22715 H 63.13639 c -4.816123,26.21707 -7.471965,54.7827 29.240699,69.72136 15.245781,6.20319 24.743941,13.39388 24.743941,22.49165 0,39.70035 3.99302,72.26026 11.24191,101.20849 7.20607,28.94813 19.16097,44.16305 40.48457,44.98133 l 58.59079,2.24839 17.98901,65.22458 c 13.82366,42.81786 112.67477,-4.2286 98.96401,-35.98388 l -13.50006,-40.48458 c 28.83301,-6.17192 59.41995,-14.63024 98.96596,-29.23875 l 975.20048,2.23277 V 485.61947 c 0,-52.75816 -27.9396,-78.75201 -88.2984,-78.75201 -60.3594,0 -91.7972,16.63195 -95.4556,47.72783 -20.3108,172.63678 -36.862,256.81337 -57.2742,279.21167 -65.0874,-6.99633 -145.294,-8.58752 -238.64313,-7.15928 -149.34752,2.285 -297.53428,25.04787 -446.25811,35.79637 -30.37794,0 -69.35942,-16.661 -116.95303,-51.72843 -33.54712,-22.77787 -71.80724,-32.39314 -110.20788,-35.98585 z M 31.639495,125.94852 180.07184,569.02061 76.618875,596.01097 C 51.63234,454.37508 35.077709,299.72763 31.639495,125.94852 Z M 1314.3723,449.8231 c 24.3753,0.10853 35.7963,12.10896 35.7963,35.79637 V 757.67185 H 1238.0074 L 1273.8037,473.688 c 3.2608,-25.86926 22.4193,-23.94571 40.5686,-23.8649 z"
     sodipodi:nodetypes="ccccccscsccccccssscsccccccccssccss" />
</svg>
