<?xml version="1.0" encoding="UTF-8" standalone="no"?>
<svg
   width="1800"
   height="1800"
   id="svg4139"
   sodipodi:version="0.32"
   inkscape:version="1.4.2 (f4327f4, 2025-05-13)"
   sodipodi:docname="13A26.svg"
   inkscape:output_extension="org.inkscape.output.svg.inkscape"
   version="1.0"
   xmlns:inkscape="http://www.inkscape.org/namespaces/inkscape"
   xmlns:sodipodi="http://sodipodi.sourceforge.net/DTD/sodipodi-0.dtd"
   xmlns="http://www.w3.org/2000/svg"
   xmlns:svg="http://www.w3.org/2000/svg"
   xmlns:rdf="http://www.w3.org/1999/02/22-rdf-syntax-ns#"
   xmlns:cc="http://creativecommons.org/ns#"
   xmlns:dc="http://purl.org/dc/elements/1.1/">
  <metadata
     id="metadata4146">
    <rdf:RDF>
      <cc:Work
         rdf:about="">
        <dc:format>image/svg+xml</dc:format>
        <dc:type
           rdf:resource="http://purl.org/dc/dcmitype/StillImage" />
      </cc:Work>
    </rdf:RDF>
  </metadata>
  <defs
     id="defs4144">
    <inkscape:perspective
       sodipodi:type="inkscape:persp3d"
       inkscape:vp_x="0 : 2.76 : 1"
       inkscape:vp_y="0 : 1000 : 0"
       inkscape:vp_z="17.959988 : 2.76 : 1"
       inkscape:persp3d-origin="8.9799938 : 1.84 : 1"
       id="perspective4148" />
  </defs>
  <sodipodi:namedview
     inkscape:window-height="998"
     inkscape:window-width="1680"
     inkscape:pageshadow="2"
     inkscape:pageopacity="0.0"
     guidetolerance="10.0"
     gridtolerance="10.0"
     objecttolerance="10.0"
     borderopacity="1.0"
     bordercolor="#666666"
     pagecolor="#ffffff"
     id="base"
     showgrid="true"
     inkscape:zoom="0.18227642"
     inkscape:cx="534.90189"
     inkscape:cy="1445.6067"
     inkscape:window-x="-8"
     inkscape:window-y="-8"
     inkscape:current-layer="svg4139"
     showguides="true"
     inkscape:guide-bbox="true"
     inkscape:showpageshadow="2"
     inkscape:pagecheckerboard="0"
     inkscape:deskcolor="#d1d1d1"
     inkscape:window-maximized="1">
    <sodipodi:guide
       position="1462.5477,407.5174"
       orientation="0,-1"
       id="guide1"
       inkscape:locked="false" />
  </sodipodi:namedview>
  <path
     style="fill:#000000;stroke:none"
     d="M 347.45721,3.8793103 V 85.699373 H 76.28214 c -41.100253,-0.828053 -41.100253,100.346927 0,102.859517 l 271.17507,2.33771 V 303.10697 H 76.28214 c -41.100253,-0.49973 -41.100253,100.67525 0,102.85951 H 347.45721 V 931.95261 L 62.910405,929.61488 280.318,1329.3643 -0.86248448,1327.0266 v 165.9778 L 1497.6135,1490.6668 c 33.7546,-1.9894 37.6385,8.0684 37.4035,14.0262 -37.5787,87.2075 -20.0374,161.3238 9.3509,215.0699 30.5811,55.9285 82.4474,88.8333 130.9121,88.8333 22.8178,0 104.9022,-10.8316 109.8727,-105.1973 0.1807,-155.9205 -55.4322,-314.3341 -205.7191,-367.0214 H 1474.2364 V 3.8793103 h -86.4956 V 85.699373 h -273.5127 c -33.4862,-0.828053 -33.4862,102.128667 0,102.859517 l 273.5127,2.33771 v 112.21037 h -273.5127 c -33.4862,-0.49973 -33.4862,100.67525 0,102.85951 h 273.5127 l -2.3376,523.6484 h -282.2091 l 222.083,404.42492 -891.3244,-4.6755 V 3.8793103 Z M 174.46623,995.07093 h 170.65328 v 294.55227 z m 1037.94597,0 h 172.991 v 294.55227 z m 285.2013,397.41167 c 159.2286,0 229.921,152.5017 229.0963,308.5786 -2.4806,46.8527 -26.1104,58.4429 -51.4298,58.4429 -31.0466,0 -57.3779,-22.7038 -79.4824,-63.1183 -22.5919,-41.3075 -41.4059,-102.0529 -7.0131,-177.6664 17.8463,-39.2356 -9.6572,-91.171 -91.171,-91.171 H 62.255845 v -35.0658 z"
     id="path4141"
     sodipodi:nodetypes="ccccccccccccccccsscccccccccccccccccccccccccccscssssccs" />
</svg>
