<?xml version="1.0" encoding="UTF-8" standalone="no"?>
<svg
   width="1000"
   height="1000"
   version="1.1"
   id="svg1"
   sodipodi:docname="13A5C.svg"
   inkscape:version="1.4.2 (f4327f4, 2025-05-13)"
   xmlns:inkscape="http://www.inkscape.org/namespaces/inkscape"
   xmlns:sodipodi="http://sodipodi.sourceforge.net/DTD/sodipodi-0.dtd"
   xmlns="http://www.w3.org/2000/svg"
   xmlns:svg="http://www.w3.org/2000/svg">
  <defs
     id="defs1" />
  <sodipodi:namedview
     id="namedview1"
     pagecolor="#ffffff"
     bordercolor="#666666"
     borderopacity="1.0"
     inkscape:showpageshadow="2"
     inkscape:pageopacity="0.0"
     inkscape:pagecheckerboard="0"
     inkscape:deskcolor="#d1d1d1"
     inkscape:zoom="0.53386562"
     inkscape:cx="171.39144"
     inkscape:cy="418.64468"
     inkscape:window-width="1680"
     inkscape:window-height="998"
     inkscape:window-x="-8"
     inkscape:window-y="-8"
     inkscape:window-maximized="1"
     inkscape:current-layer="svg1" />
  <path
     id="path8"
     style="fill:#000000;stroke:none;stroke-width:0.999999"
     d="M 603.42188,0 C 578.02008,2.5920099 538.75161,11.274309 485.61523,26.048828 432.4789,40.823311 368.06579,79.834864 292.37891,143.08008 c -24.36499,2.59204 -47.17321,16.32954 -68.42774,41.21289 -11.40489,4.14724 -26.18011,11.40344 -44.32422,21.77148 -20.73615,4.14724 -31.10351,12.96096 -31.10351,26.43946 0,15.55209 6.22039,23.32812 18.66211,23.32812 7.25762,0.51841 13.47805,0.25948 18.66211,-0.77734 5.18402,-1.03678 9.97832,-1.03678 14.38476,0 4.40641,1.03682 12.05296,3.23975 22.93946,6.60937 10.88648,3.36963 24.62401,4.53682 41.21289,3.5 40.32431,95.05023 94.81946,211.22058 130.63867,238.72461 3.11045,7.77603 -7.77677,38.10135 -32.66016,90.97852 -12.44167,36.80666 -29.41791,73.87418 -50.93164,111.19922 -21.51377,37.32506 -34.86285,55.98632 -40.04687,55.98632 l -27.2168,33.4375 h 52.87695 L 313.375,761.27539 c 10.36808,0 16.07064,-5.31413 17.10742,-15.94141 3.12283,-32.00867 59.875,-122.13096 59.875,-127.91601 23.84658,-42.50909 51.32159,-78.27803 82.42578,-107.30859 l 17.88477,0.77734 c 24.60066,38.26773 57.0815,119.0643 68.04101,197.51172 4.92486,35.25143 3.75961,55.98814 -3.49804,62.20898 l -19.44141,24.88281 h 50.54492 l 9.33203,-34.21484 c 9.84964,0 13.34728,-3.62906 10.4961,-10.88672 -2.85125,-7.25765 -7.51609,-16.33036 -13.9961,-27.21679 -6.48004,-10.88653 -12.57097,-40.30554 -18.27343,-88.25782 -5.70243,-47.95231 -14.25722,-85.40629 -25.66211,-112.36328 l 3.11133,-26.43945 c 20.73615,5.18406 39.26794,8.29521 55.59765,9.33203 16.32968,1.03678 20.47859,4.79535 12.44336,11.27539 -8.03527,6.48005 -4.92603,8.81245 9.33008,6.99805 14.25611,-1.81444 26.95785,-4.27631 38.10352,-7.38672 11.14566,-3.11042 29.9364,-5.70179 56.375,-7.77539 l -3.88672,94.86719 c 0,25.40174 -22.03338,78.27833 -66.09766,158.63085 l -17.10742,33.4375 h 49.76758 l -1.55469,-34.21484 c 11.92341,0.51841 16.84722,-2.98119 14.77344,-10.49805 -2.0736,-7.51686 5.18451,-25.66024 21.77343,-54.43164 16.58888,-28.77138 31.10516,-62.85719 43.54688,-102.25586 3.62883,-13.99676 9.84926,-20.73505 18.66211,-20.21679 8.81274,0.51841 12.95966,-6.99868 12.4414,-22.55078 2.59201,10.88645 25.14329,28.64143 67.65235,53.26562 42.50908,24.62419 63.76367,50.67503 63.76367,78.15039 0,27.99378 -5.96154,54.43107 -17.88477,79.31445 l -18.66406,33.4375 h 50.54492 l 0.77735,-34.21484 c 14.51531,0 18.2738,-9.33159 11.27539,-27.99414 -6.99846,-18.66252 -7.64579,-51.06329 -1.94336,-97.20117 -26.95699,-25.92018 -52.35851,-59.87452 -76.20508,-101.86524 l 12.44141,-31.88281 c 2.0736,5.70247 3.36831,14.51623 3.88672,26.43945 0.51837,11.92331 7.12919,26.69852 19.83007,44.32422 12.70092,17.62574 23.84696,31.10433 33.4375,40.43555 9.59039,9.33137 15.68139,11.14579 18.27344,5.44336 2.59201,-5.70243 -6.73961,-21.51537 -27.99414,-47.43555 -21.25467,-25.92017 -30.71573,-55.59811 -28.38281,-89.03515 2.33292,-33.43704 1.68558,-62.98555 -1.94336,-88.64649 -5.74484,-40.62411 -65.48388,-101.03263 -174.57227,-84.75976 -46.91553,6.99838 -101.73805,7.12791 -164.46484,0.38867 -31.10419,-10.88649 -52.61771,-16.33008 -64.54102,-16.33008 -38.57328,3.05175 -75.7317,16.65234 -102.64257,-19.05078 -10.52362,-14.67753 -25.99503,-39.98699 -40.43555,-64.92969 26.95699,-2.07363 65.57816,-15.03432 115.86328,-38.88086 -8.29444,-5.18405 -18.14589,-8.81312 -29.55078,-10.88672 l 15.55273,-5.44336 c -17.62569,-4.14723 -35.76908,-6.2207 -54.43164,-6.2207 -18.66252,0 -46.65739,7.51706 -83.98242,22.55078 40.95386,-25.40176 79.05717,-47.04475 114.30859,-64.92969 35.25144,-17.884887 98.23643,-39.786854 188.95704,-65.707027 17.10732,-5.702429 16.33048,-9.33149 -2.33204,-10.886719 -50.28516,0 -113.27015,16.069925 -188.95703,48.210938 2.59201,-2.59201 14.25607,-9.071377 34.99219,-19.439453 20.73615,-10.368078 52.87601,-22.161568 96.42188,-35.38086 C 608.08696,8.9428561 621.04756,1.5552282 603.42188,0 Z m -313.375,164.07422 v 20.21875 l 38.88085,6.2207 -5.44335,20.99414 17.88476,7 c 12.96009,25.92018 27.92833,49.6724 41.99024,73.09375 23.73989,39.54092 67.25904,23.92047 112.75195,21.77344 29.73099,0 21.27955,17.9207 108.86523,23.7168 35.25144,2.33284 74.51998,4e-4 117.80664,-6.99805 88.19826,-14.2596 153.83461,24.54563 152.80078,87.0918 -0.51841,31.36339 -11.9235,68.81744 -34.21484,112.36328 37.84347,47.17474 43.1576,63.37413 15.94141,48.59961 -27.2162,-14.77445 -44.97314,-32.65891 -53.26758,-53.6543 -8.29447,-20.99532 -21.51214,-39.26821 -39.65625,-54.82031 -64.33548,29.152 -92.68655,30.5244 -229.39453,6.2207 -4.66561,41.99072 -16.0707,47.17534 -34.21485,15.55274 h -36.54687 c -33.6962,36.80662 -47.43373,35.76893 -41.21289,-3.11133 -55.05205,-45.56036 -100.38042,-148.71746 -132.9707,-241.05664 -28.06326,0.95266 -56.28412,-0.51133 -83.5918,-7.38868 -4.92482,-1.29597 -9.59161,-1.29597 -13.99805,0 -4.40641,1.29607 -10.49737,1.16653 -18.27344,-0.38867 v -2.33203 h 8.55274 v -7.77734 h -9.33008 v -3.88672 c 4.66565,0 21.25344,-7.25812 49.76563,-21.77344 13.99683,10.36808 33.17798,10.10914 57.54296,-0.77734 -6.22084,-2.59202 -11.66443,-5.05391 -16.33007,-7.38672 -4.66562,-2.33284 -13.99529,-1.94442 -27.99219,1.16602 18.1441,-20.21773 36.02855,-31.10493 53.6543,-32.66016 z m 139.1914,6.2207 c -31.10419,12.96009 -60.39377,19.44141 -87.86914,19.44141 v -2.33399 c 36.04101,-16.33107 64.88294,-20.39114 87.86914,-17.10742 z m 346.0332,335.53711 c 3.62883,13.21929 6.86971,25.40126 9.72071,36.54688 2.85128,11.14565 2.07441,18.01537 -2.33203,20.60742 -4.40656,2.59208 -8.16508,1.16592 -11.27539,-4.27735 -3.10994,-5.44322 -4.79519,-12.18152 -5.05469,-20.21679 -0.54675,-16.92951 -6.75331,-15.42598 -6.2207,0 0.25913,7.5169 1.68529,14.2552 4.27734,20.21679 2.59201,5.96198 0.12815,8.8142 -7.38867,8.55469 -7.51716,-0.2592 -11.14622,-7.12892 -10.88672,-20.60742 0.25916,-13.47849 2.72298,-32.65962 7.38867,-57.54297 9.52402,-1.81408 17.73924,2.0299 21.77148,16.71875 z M 97.978516,662.51953 c -0.776395,15.0225 6.219894,23.06858 20.216794,24.10547 13.99687,1.03682 21.78551,-5.94414 22.55078,-20.99414 0.79021,-15.54058 -5.95825,-23.88372 -19.43945,-24.88477 -12.72579,-0.94496 -22.435461,4.50127 -23.328124,21.77344 z m 79.316404,-20.99609 c -14.50297,-0.79119 -22.56482,6.72344 -23.33008,21.77344 -0.79021,15.54065 6.23382,23.32851 20.21875,24.10546 14.01365,0.77855 21.53148,-5.95922 22.55079,-20.99414 1.0543,-15.55091 -5.42503,-24.12022 -19.43946,-24.88476 z m 32.6582,21.77344 c -1.08336,15.52297 6.4836,23.8078 20.9961,24.88281 13.48137,0.99863 20.71914,-6.22052 21.77344,-21.77149 1.01931,-15.03487 -5.44454,-23.06869 -19.44141,-24.10547 -12.07694,-0.89458 -22.14902,4.09921 -23.32813,20.99415 z M 98.755859,695.95703 127.31836,796.25977 C 99.215629,796.08481 81.012942,792.97618 72.707031,786.93555 64.153387,780.71467 51.581103,766.97722 34.992188,745.72266 L 0,769.05078 c 17.107325,22.29135 35.641107,39.01056 55.599609,50.15625 19.95854,11.14565 44.710771,16.45996 74.259771,15.94141 H 577.76172 L 912.9082,986.78125 913.68555,1000 956.45508,999.22266 V 796.26758 H 224.15625 L 252.72266,695.95703 Z M 126.75,718.50781 h 96.42188 l -20.2168,74.65039 h -55.21094 z m 538.10156,116.64063 h 248.83399 v 111.97461 z"
     sodipodi:nodetypes="cscccscssscccsccccscccsccccsssccssssccccccsscscssccccscccsssssssscccccccscscccssccccccscssscssccccccscccccccccsccccccscscscccccsssssssssssssssscsccsccccccccccccccccccc" />
</svg>
