<?xml version="1.0" encoding="UTF-8" standalone="no"?>
<svg
   width="18.356144"
   height="17.977583"
   version="1.1"
   id="svg1"
   sodipodi:docname="13A6E.svg"
   inkscape:version="1.4.2 (f4327f4, 2025-05-13)"
   xmlns:inkscape="http://www.inkscape.org/namespaces/inkscape"
   xmlns:sodipodi="http://sodipodi.sourceforge.net/DTD/sodipodi-0.dtd"
   xmlns="http://www.w3.org/2000/svg"
   xmlns:svg="http://www.w3.org/2000/svg">
  <defs
     id="defs1" />
  <sodipodi:namedview
     id="namedview1"
     pagecolor="#ffffff"
     bordercolor="#666666"
     borderopacity="1.0"
     inkscape:showpageshadow="2"
     inkscape:pageopacity="0.0"
     inkscape:pagecheckerboard="0"
     inkscape:deskcolor="#d1d1d1"
     inkscape:zoom="29.696184"
     inkscape:cx="3.2495758"
     inkscape:cy="7.3578478"
     inkscape:window-width="1680"
     inkscape:window-height="998"
     inkscape:window-x="-8"
     inkscape:window-y="-8"
     inkscape:window-maximized="1"
     inkscape:current-layer="svg1" />
  <path
     id="path3"
     style="fill:#000000;stroke:none"
     d="M 10.650391 -0.0234375 C 9.3701979 3.0900198 8.6186618 5.1449978 8.3964844 6.1386719 C 8.3848478 6.1907158 8.3761173 6.2439106 8.3691406 6.2988281 C 8.2344066 6.3209622 8.0867286 6.3526907 7.9277344 6.3945312 C 7.7016018 6.2689023 7.4386053 6.2324782 7.140625 6.2832031 C 6.9546156 6.1717959 6.8331284 6.033809 6.7753906 5.8710938 C 6.7163246 5.7046344 6.7642025 5.1525793 6.9199219 4.2128906 C 7.0756419 3.2732026 6.7864234 2.8144595 6.0507812 2.8359375 C 5.3151399 2.8574162 5.0835699 3.4187533 5.3574219 4.5195312 C 5.6312739 5.6203093 5.5213511 6.17725 5.0273438 6.1933594 C 4.5333357 6.209468 4.3325441 6.0541112 4.4238281 5.7265625 C 4.5151121 5.3990138 4.6895223 4.885554 4.9472656 4.1875 C 5.2050083 3.4894453 5.3505945 3.0043208 5.3828125 2.7304688 C 5.4150305 2.4566167 5.4057485 2.2489857 5.3574219 2.109375 C 5.3090952 1.9697643 5.2108969 1.8383458 5.0605469 1.7148438 C 4.9888989 1.6559907 4.8948422 1.6099037 4.7792969 1.5742188 C 4.8170049 1.5455518 4.8514599 1.5124924 4.8828125 1.4746094 C 5.0116845 1.3188894 5.0761719 1.1493649 5.0761719 0.96679688 C 5.0761719 0.80570754 5.0116849 0.6479075 4.8828125 0.4921875 C 4.7539412 0.3364675 4.5722022 0.2578129 4.3359375 0.2578125 C 4.1104122 0.2578125 3.9291632 0.3296287 3.7949219 0.47460938 C 3.6606805 0.61959003 3.59375 0.78911454 3.59375 0.98242188 C 3.59375 1.1972079 3.669962 1.3716187 3.8203125 1.5058594 C 3.8391705 1.5226964 3.8574191 1.5380094 3.8769531 1.5527344 C 3.6166647 1.6266864 3.4264475 1.7760131 3.3046875 1.9980469 C 3.3154265 2.0624829 3.3608616 2.1269702 3.4414062 2.1914062 C 3.5219512 2.2558413 3.6582558 2.3012763 3.8515625 2.328125 C 4.0448705 2.354973 4.3292028 2.3623025 4.7050781 2.3515625 C 4.5010304 2.5770883 4.180545 2.751498 3.7402344 2.875 C 3.299923 2.998502 3.1709476 3.5764499 3.3535156 4.6074219 C 3.496199 5.4131639 3.6898635 5.9925695 3.9375 6.3457031 C 3.93565 6.3461852 3.9334906 6.3471762 3.9316406 6.3476562 C 3.5235479 6.2187881 3.1747263 6.2334419 2.8847656 6.3945312 C 2.2726256 6.2334419 1.8446604 6.2187849 1.5976562 6.3476562 C 1.3506522 6.4765283 1.1239685 6.5244055 0.91992188 6.4921875 C 0.71587588 6.4599695 0.57712846 6.3979246 0.50195312 6.3066406 C 0.42677779 6.2153566 0.3290695 6.1699219 0.2109375 6.1699219 C 0.0283695 6.1699219 -0.036118545 6.2392959 0.017578125 6.3789062 C 0.44714946 7.0232643 1.1516302 7.2216134 2.1289062 6.9746094 C 2.6873497 7.2216134 3.1319251 7.2953827 3.4648438 7.1933594 C 3.7977618 7.091336 4.0078353 7.0820541 4.09375 7.1679688 C 3.728614 7.2753614 3.5400362 7.4375577 3.5292969 7.6523438 C 3.2285962 7.7597371 2.8367836 8.0538414 2.3535156 8.5371094 C 2.1709476 8.6337624 2.0346434 8.7221897 1.9433594 8.8027344 C 1.8520754 8.8832794 1.8594049 9.0645287 1.9667969 9.34375 C 1.9560579 9.50484 1.9990499 9.6768077 2.0957031 9.859375 C 2.2675325 9.977507 2.3965079 10.056652 2.4824219 10.099609 C 2.5361189 10.829882 2.7198107 11.307678 3.03125 11.533203 L 3.1914062 11.533203 L 3.1914062 10.035156 L 3.4824219 9.9882812 C 3.4394649 10.47155 3.4467934 10.789593 3.5058594 10.945312 C 3.5649254 11.101033 3.631856 11.093707 3.7070312 10.921875 C 3.7822063 10.750046 3.7870923 10.422722 3.7226562 9.9394531 L 4.0449219 9.875 C 4.0449219 11.485894 4.4435734 12.720934 5.2382812 13.580078 C 5.2919782 13.741167 5.2660865 13.92535 5.1640625 14.134766 C 5.0620398 14.344182 4.9447882 14.522989 4.8105469 14.667969 C 4.6763055 14.812949 4.571269 15.032794 4.4960938 15.328125 C 4.4209188 15.623456 4.2323413 15.896063 3.9316406 16.148438 C 3.6309406 16.40081 3.4492016 16.613328 3.3847656 16.785156 C 2.815583 17.20399 2.428656 17.602641 2.2246094 17.978516 L 3.6113281 17.978516 C 3.7938961 17.817426 3.911147 17.671841 3.9648438 17.542969 C 4.2333264 17.650363 4.4101798 17.585879 4.4960938 17.349609 C 4.4960938 16.801905 4.646565 16.355377 4.9472656 16.011719 C 4.9794836 15.947279 5.156337 15.818307 5.4785156 15.625 C 5.7792163 15.249125 6.094327 14.919358 6.421875 14.634766 C 6.7494237 14.350175 6.955101 14.202146 7.0410156 14.191406 C 7.202105 14.277316 7.4170649 14.492278 7.6855469 14.835938 C 7.8036795 15.308466 8.0303634 15.604524 8.3632812 15.722656 C 8.4921526 16.001878 8.566412 16.372195 8.5878906 16.833984 C 8.2549729 17.2206 7.9706397 17.602641 7.734375 17.978516 L 9.2011719 17.978516 C 9.3622612 17.806686 9.4414063 17.591727 9.4414062 17.333984 C 9.623975 17.355462 9.748064 17.293418 9.8125 17.148438 C 9.8769353 17.003457 9.8339436 16.807551 9.6835938 16.560547 C 9.3614143 16.109496 9.2036144 15.696188 9.2089844 15.320312 C 9.2143544 14.944438 9.1044324 14.64838 8.8789062 14.433594 C 8.6533817 14.218808 8.4911853 13.848491 8.3945312 13.322266 C 8.8455819 13.322266 9.354156 13.367696 9.9179688 13.458984 C 10.481782 13.550274 10.821321 13.6172 10.939453 13.660156 C 10.950193 13.842724 11.031293 13.95509 11.181641 13.998047 C 11.310512 14.40614 11.434602 14.642595 11.552734 14.707031 C 11.584954 14.352635 11.632834 14.080026 11.697266 13.886719 L 13.146484 13.740234 C 13.039092 14.502724 12.867124 15.073343 12.630859 15.449219 C 12.394595 15.825093 12.062385 16.205181 11.632812 16.591797 C 11.450245 16.871017 11.316383 17.004879 11.230469 16.994141 C 11.015683 17.026361 10.73135 17.355636 10.376953 17.978516 L 11.986328 17.978516 C 12.018548 17.806686 12.025386 17.661101 12.003906 17.542969 C 12.315346 17.661101 12.497085 17.510629 12.550781 17.091797 C 12.711871 16.952186 12.919501 16.67274 13.171875 16.253906 C 13.424248 15.835074 13.684643 15.567351 13.953125 15.449219 C 14.221607 15.331086 14.386736 15.104402 14.451172 14.771484 C 14.504872 14.814444 14.585966 14.776384 14.693359 14.658203 C 14.961841 14.711903 15.117199 14.627873 15.160156 14.402344 C 15.729339 14.76748 16.063502 15.259934 16.160156 15.882812 L 16.160156 16.833984 C 15.827238 17.20986 15.54779 17.591901 15.322266 17.978516 L 16.787109 17.978516 C 16.937459 17.795948 17.013672 17.580989 17.013672 17.333984 C 17.206979 17.355464 17.333511 17.290974 17.392578 17.140625 C 17.451648 16.990275 17.404258 16.796811 17.253906 16.560547 C 17.221686 16.539067 17.200193 16.001671 17.189453 14.949219 C 17.221673 14.594822 17.168903 14.417969 17.029297 14.417969 C 16.911165 14.417969 16.806128 14.234277 16.714844 13.869141 C 16.623564 13.504005 16.685604 13.19329 16.900391 12.935547 C 17.115177 12.677804 17.308641 12.242999 17.480469 11.630859 C 17.512689 12.210782 17.477069 12.702745 17.375 13.105469 C 17.272977 13.508193 17.263205 14.067577 17.34375 14.787109 C 17.42429 15.506642 17.598704 15.867188 17.867188 15.867188 C 18.124928 15.781277 18.2158 15.53749 18.140625 15.134766 C 18.065445 14.732042 17.931589 14.094493 17.738281 13.224609 C 18.081938 11.313015 17.840597 10.113639 17.013672 9.625 C 15.978734 8.9376365 14.902571 8.9265416 13.740234 8.9472656 C 17.515206 5.6208384 18.177114 3.7314895 18.458984 2.8515625 C 18.61352 2.3691399 18.674312 1.7793281 18.644531 1.2265625 C 15.608654 2.6811961 13.676198 3.7038764 12.845703 4.2929688 C 12.671863 4.4162787 12.508689 4.579852 12.359375 4.7871094 C 12.256074 2.8185079 11.845544 1.8536544 11.599609 1.3085938 C 11.391268 0.84685063 11.042717 0.36709662 10.650391 -0.0234375 z M 4.3515625 0.515625 C 4.5126518 0.515625 4.634299 0.5635022 4.7148438 0.66015625 C 4.7953887 0.75680955 4.8408232 0.86428921 4.8515625 0.98242188 C 4.8515625 1.1220325 4.8017315 1.2412373 4.7050781 1.3378906 C 4.6084241 1.4345446 4.4911732 1.4824219 4.3515625 1.4824219 C 4.2119518 1.4824219 4.0927477 1.4369869 3.9960938 1.3457031 C 3.8994397 1.2544191 3.8515625 1.1327719 3.8515625 0.98242188 C 3.8515625 0.8642892 3.8969966 0.75680958 3.9882812 0.66015625 C 4.0795652 0.56350225 4.2012125 0.515625 4.3515625 0.515625 z M 10.742188 0.79882812 C 11.105413 1.1559916 11.414351 1.8756402 11.666016 2.9589844 C 11.804679 3.5559914 11.864471 4.4975625 11.847656 5.7871094 C 11.556493 6.5632503 11.3394 7.5968476 11.197266 8.8847656 C 10.593717 8.8491844 10.09646 8.7991094 9.6503906 8.7382812 C 9.618031 8.7338686 9.5852349 8.7299173 9.5527344 8.7246094 C 9.1911243 8.0645206 8.9638128 7.4951015 8.8710938 7.0175781 C 9.7416508 7.1940537 10.37779 6.981168 10.779297 6.3789062 C 10.843727 6.2392956 10.779244 6.1699219 10.585938 6.1699219 C 10.467806 6.1699219 10.37254 6.2153569 10.302734 6.3066406 C 10.232934 6.3979246 10.099067 6.4599695 9.9003906 6.4921875 C 9.7017133 6.5244059 9.4769827 6.4765282 9.2246094 6.3476562 C 9.1265204 6.2975685 9.0020642 6.2682731 8.8496094 6.2617188 C 8.8549665 6.2323019 8.8601204 6.2040394 8.8671875 6.1757812 C 9.0832529 5.3118371 9.7084532 3.5211822 10.742188 0.79882812 z M 4.1953125 1.7421875 C 4.2919665 1.7408475 4.3938286 1.7500074 4.5039062 1.7714844 C 4.7240617 1.8144414 4.9101962 1.9434171 5.0605469 2.1582031 C 4.7705855 2.1474641 4.4960246 2.1425781 4.2382812 2.1425781 C 3.9805379 2.1425781 3.7939132 2.0947011 3.6757812 1.9980469 C 3.6757813 1.9013939 3.7573692 1.8276242 3.9238281 1.7792969 C 4.0070581 1.7551339 4.0986588 1.74353 4.1953125 1.7421875 z M 4.0820312 1.7714844 C 4.0417582 1.7714844 4.0024312 1.7783245 3.9648438 1.7890625 C 3.8896687 1.8105415 3.8442337 1.8442515 3.828125 1.8925781 C 3.812016 1.9409051 3.850122 1.9765681 3.9414062 1.9980469 C 4.0326902 2.0195259 4.1235598 2.0219704 4.2148438 2.0058594 C 4.3061277 1.9897504 4.3515625 1.9492014 4.3515625 1.8847656 C 4.3408235 1.8418086 4.2929455 1.8105415 4.2070312 1.7890625 C 4.1640742 1.7783235 4.1223042 1.7714844 4.0820312 1.7714844 z M 18.164062 1.8984375 C 18.194582 2.4069324 17.941021 3.1461056 17.402344 4.1191406 C 16.872999 5.0752274 15.421737 6.6846794 13.050781 8.9453125 C 12.525675 8.9387569 12.062842 8.9246417 11.646484 8.90625 C 11.926808 6.5537865 12.434101 5.1313864 13.169922 4.6367188 C 13.908991 4.1398682 15.573143 3.2277035 18.164062 1.8984375 z M 4.7792969 2.8320312 C 4.9615134 2.8232533 4.9499723 3.1095314 4.7460938 3.6894531 C 4.5044598 4.3767685 4.3085531 4.9312661 4.1582031 5.3554688 C 4.0078525 5.7796701 3.8715489 5.5407725 3.7480469 4.6386719 C 3.6245455 3.7365712 3.6821941 3.2680561 3.9238281 3.2304688 C 4.1654621 3.1928808 4.4111991 3.0712342 4.6582031 2.8671875 C 4.7051871 2.8453735 4.7455531 2.8336566 4.7792969 2.8320312 z M 6.1191406 3.25 C 6.4801816 3.2319559 6.5505089 3.7402231 6.3320312 4.7753906 C 6.1845766 5.4740447 6.2472562 5.9758065 6.5175781 6.2773438 C 6.1516003 6.2343279 5.8465863 6.2914854 5.6035156 6.4492188 C 5.9737717 5.9271014 6.0534203 5.2939228 5.8417969 4.5507812 C 5.6109022 3.7399646 5.6920004 3.307603 6.0839844 3.2539062 C 6.0962339 3.2522282 6.1074941 3.2505821 6.1191406 3.25 z M 5.3671875 6.5878906 L 5.4296875 6.5878906 C 5.4190515 6.5983766 5.4087635 6.6101017 5.3984375 6.6210938 C 5.3884475 6.6101018 5.3775005 6.5983766 5.3671875 6.5878906 z M 8.4082031 7.0859375 C 8.4928267 7.5229779 8.6755611 8.0195366 8.9570312 8.578125 C 8.5829566 8.4577721 8.1991619 8.2810686 7.8066406 8.046875 C 7.167652 7.6656303 6.751901 7.4003507 6.5585938 7.25 C 6.7519011 7.1103893 7.012295 7.0913364 7.3398438 7.1933594 C 7.6120292 7.2781384 7.9690222 7.2424685 8.4082031 7.0859375 z M 5.2441406 7.2617188 C 5.5654805 7.2633988 5.8634773 7.3447698 6.1386719 7.5058594 C 6.5789832 7.763602 7.0851142 8.0860417 7.6542969 8.4726562 C 8.2063782 8.847655 8.8591267 9.0469887 9.6132812 9.0683594 C 7.414499 9.0287324 6.2600158 9.6247473 6.1484375 10.857422 C 6.0356748 12.10318 6.2364665 13.075383 6.7519531 13.773438 C 6.6875171 13.880828 6.5253208 13.9121 6.2675781 13.869141 C 6.0098348 13.826181 5.6561288 13.472478 5.2050781 12.806641 C 4.7540275 12.140805 4.5224581 11.120724 4.5117188 9.7460938 C 4.4902397 9.4561324 4.3514927 9.3725917 4.09375 9.4960938 C 3.8360067 9.6195958 3.6327719 9.6840838 3.4824219 9.6894531 C 3.3320719 9.6948231 3.1889288 9.7212053 3.0546875 9.7695312 C 2.9204462 9.8178583 2.7079301 9.8105298 2.4179688 9.7460938 C 2.6649727 9.6816588 2.9087566 9.6030034 3.1503906 9.5117188 C 3.3920253 9.4204348 3.4921761 9.3368934 3.4492188 9.2617188 C 3.4062618 9.1865438 3.2748428 9.2222068 3.0546875 9.3671875 C 2.8345315 9.5121682 2.5790232 9.5957088 2.2890625 9.6171875 C 2.2353658 9.6064502 2.2016555 9.5468458 2.1855469 9.4394531 C 2.1694375 9.3320598 2.2148723 9.2578011 2.3222656 9.2148438 L 2.5800781 9.0859375 C 2.7089495 9.1503728 2.7880945 9.1410909 2.8203125 9.0605469 C 2.8525305 8.9800022 2.840316 8.9130717 2.78125 8.859375 C 2.722184 8.8056783 2.6601391 8.7866257 2.5957031 8.8027344 C 2.5312671 8.8188437 2.476551 8.8662309 2.4335938 8.9414062 L 2.1933594 9.1015625 L 2.1289062 8.9726562 L 2.8847656 8.4902344 C 3.0565943 8.264709 3.3643762 8.0546348 3.8046875 7.8613281 C 3.8046875 7.6680201 4.0821817 7.4960531 4.640625 7.3457031 C 4.8500413 7.2893221 5.0513367 7.2607121 5.2441406 7.2617188 z M 5.7519531 7.7167969 C 5.5908638 7.9208435 5.4853373 8.138246 5.4316406 8.3691406 C 5.377944 8.6000353 5.3662195 9.1398767 5.3984375 9.9882812 C 6.0320562 9.6338847 6.3974873 9.256729 6.4941406 8.859375 C 6.5907946 8.462021 6.5790702 8.1395821 6.4609375 7.8925781 L 6.2519531 7.8457031 C 6.3271278 8.5222785 6.133665 9.0694487 5.671875 9.4882812 C 5.6933537 8.9942734 5.7197351 8.6478953 5.7519531 8.4492188 C 5.7841711 8.2505413 5.8652693 8.0282533 5.9941406 7.78125 L 5.7519531 7.7167969 z M 4.2539062 7.8730469 C 4.0466713 7.8755639 3.9119713 7.93167 3.8515625 8.0390625 L 3.8515625 8.2636719 L 3.8515625 8.2792969 C 3.6582558 8.3866902 3.4647917 8.4917273 3.2714844 8.59375 C 3.0781764 8.6957733 2.9824219 8.7841997 2.9824219 8.859375 L 3.9648438 8.4082031 C 3.9863227 8.4511601 4.0771919 8.4677703 4.2382812 8.4570312 C 4.4101099 8.4462927 4.5723057 8.3984147 4.7226562 8.3125 L 4.7226562 8.1992188 L 4.640625 8.1992188 C 4.4687963 8.1025653 4.3109963 8.0712983 4.1660156 8.1035156 C 4.0295219 8.1338476 3.9283843 8.1815928 3.8632812 8.25 C 3.9391768 8.0981901 4.2196103 8.0289492 4.7050781 8.0390625 L 4.7050781 7.9257812 C 4.5278796 7.8895363 4.3782474 7.8715367 4.2539062 7.8730469 z M 14.273438 9.3671875 C 16.136902 9.3722575 17.262211 10.095358 17.511719 10.777344 L 17.416016 10.664062 C 17.276405 10.481495 17.018454 10.331023 16.642578 10.212891 L 16.673828 10.357422 C 17.049703 10.593687 17.230952 10.899516 17.214844 11.275391 C 17.198734 11.651267 17.036539 12.045032 16.730469 12.453125 C 16.424399 12.861219 16.245103 13.300907 16.191406 13.773438 C 16.137706 14.245966 15.767392 14.12432 15.080078 13.410156 C 14.392763 12.695993 13.700008 12.366225 13.001953 12.419922 L 13.162109 12.646484 C 13.527245 12.571314 13.785196 12.683674 13.935547 12.984375 L 13.791016 12.984375 L 11.261719 13.353516 L 11.148438 13.273438 C 9.7952827 13.058652 8.8133119 12.962897 8.2011719 12.984375 C 8.2011719 12.75885 8.1484079 12.677751 8.0410156 12.742188 C 7.922883 13.708723 7.6458788 13.959347 7.2109375 13.492188 C 6.7759955 13.025028 6.5537081 12.361097 6.5429688 11.501953 C 6.5429688 10.771681 6.7510892 10.24845 7.1699219 9.9316406 C 7.5887545 9.6148313 8.5443471 9.4501925 10.037109 9.4394531 C 11.272128 9.5038881 12.428024 9.4916746 13.501953 9.4003906 C 13.770436 9.3775696 14.027104 9.3665161 14.273438 9.3671875 z M 13.806641 13.257812 C 14.075123 13.257812 14.32086 13.381902 14.541016 13.628906 C 14.761171 13.87591 14.885751 14.064977 14.917969 14.199219 C 14.950189 14.33346 14.916469 14.409672 14.814453 14.425781 C 14.71243 14.441891 14.636218 14.387171 14.587891 14.263672 C 14.539561 14.14017 14.441366 13.977482 14.291016 13.773438 L 14.257812 13.773438 C 14.386684 13.988223 14.467782 14.219793 14.5 14.466797 C 14.156343 14.563447 13.984375 14.229287 13.984375 13.466797 L 13.630859 13.417969 C 13.340899 13.493139 12.657914 13.590852 11.583984 13.708984 C 11.422895 13.773424 11.339354 13.764144 11.333984 13.683594 C 11.328584 13.603054 11.402384 13.564453 11.552734 13.564453 L 13.806641 13.257812 z " />
</svg>
