<?xml version="1.0" encoding="UTF-8" standalone="no"?>
<svg
   width="1200"
   height="1000"
   version="1.1"
   id="svg1"
   sodipodi:docname="13AAB.svg"
   inkscape:version="1.4.2 (f4327f4, 2025-05-13)"
   xmlns:inkscape="http://www.inkscape.org/namespaces/inkscape"
   xmlns:sodipodi="http://sodipodi.sourceforge.net/DTD/sodipodi-0.dtd"
   xmlns="http://www.w3.org/2000/svg"
   xmlns:svg="http://www.w3.org/2000/svg">
  <defs
     id="defs1" />
  <sodipodi:namedview
     id="namedview1"
     pagecolor="#ffffff"
     bordercolor="#666666"
     borderopacity="1.0"
     inkscape:showpageshadow="2"
     inkscape:pageopacity="0.0"
     inkscape:pagecheckerboard="0"
     inkscape:deskcolor="#d1d1d1"
     inkscape:zoom="0.3775"
     inkscape:cx="941.72185"
     inkscape:cy="49.006622"
     inkscape:window-width="1680"
     inkscape:window-height="998"
     inkscape:window-x="-8"
     inkscape:window-y="-8"
     inkscape:window-maximized="1"
     inkscape:current-layer="svg1" />
  <path
     id="path1"
     style="fill:#000000;stroke:none;stroke-width:69.4409"
     d="M 339.875 0.00390625 C 319.51335 -0.23564677 293.36171 13.697611 261.42188 41.804688 C 248.13486 51.003386 223.09353 57.646065 186.29883 61.734375 C 138.26127 76.043416 107.08839 101.59593 92.779297 138.39062 C 81.53649 165.98668 58.539655 202.78199 23.789062 248.77539 C -6.8731728 268.19486 -7.8954244 287.61382 20.722656 307.0332 C 39.120053 338.71756 62.628013 349.96042 91.246094 340.76172 C 108.62141 333.60718 127.01807 324.91995 146.4375 314.69922 C 165.85693 304.47849 183.23333 306.00992 198.56445 319.29688 C 204.69845 329.44156 210.79735 339.28833 216.86328 348.83398 C 204.64967 364.83452 197.61409 386.00888 191.10352 407.58203 C 187.25011 420.35047 183.87829 433.38478 180.85352 445.41406 L 110.14844 378.15234 L 67.685547 422.78906 L 126.46484 478.70703 L 39.228516 541.67773 L 133.23828 629.8125 L 194.53125 543.45703 L 252.55859 598.66016 L 295.02148 554.02344 L 225.95312 488.31836 C 248.69661 478.73477 271.16538 467.31173 292.39062 454.34766 C 312.10404 478.23205 331.42118 498.62933 350.3418 515.53711 C 382.02611 547.22147 397.86914 573.2831 397.86914 593.72461 C 366.18483 720.46195 339.09899 807.33799 316.61328 854.35352 C 300.26008 895.23653 280.84113 922.83358 258.35547 937.14258 C 235.86981 951.45162 223.09358 968.3149 220.02734 987.73438 C 223.09358 999.9992 247.11266 1003.066 292.08398 996.93359 C 316.6138 992.84542 333.47903 973.9375 342.67773 940.20898 C 363.11924 892.17138 378.96022 854.35391 390.20312 826.75781 C 413.71076 756.23459 445.90605 695.4221 486.78906 644.31836 C 526.65 657.60527 562.16848 694.39864 593.3418 754.70117 C 624.51508 815.00361 636.01252 864.5752 627.83594 903.41406 C 627.83594 919.76735 622.47005 932.79812 611.73828 942.50781 C 601.00651 952.21759 597.17405 963.71703 600.24023 977.00391 C 646.23359 987.22477 677.40653 982.11347 693.75977 961.67188 C 702.95837 942.25245 707.55859 924.87795 707.55859 909.54688 C 707.55859 883.99498 696.57023 844.13296 674.5957 789.96289 C 652.62103 735.79292 641.63477 697.46618 641.63477 674.98047 C 641.63477 652.49481 644.69956 633.58512 650.83203 618.25391 C 664.119 607.01115 686.8612 603.17859 719.05664 606.75586 C 751.25204 610.33313 770.67099 616.72132 777.31445 625.91992 C 783.95791 635.11867 795.20076 636.39741 811.04297 629.75391 C 826.88512 623.11041 847.07174 612.12214 871.60156 596.79102 C 896.13133 581.4599 916.06136 574.81717 931.39258 576.86133 C 952.85612 615.70013 959.49871 665.01496 951.32227 724.80664 C 943.14574 784.59809 926.79353 842.08915 902.26367 897.28125 C 882.84424 912.61232 869.55688 936.12029 862.40234 967.80469 C 872.62307 970.87074 885.3993 972.4043 900.73047 972.4043 C 937.52517 972.4043 961.03317 963.2059 971.25391 944.80859 C 970.23187 909.03583 982.24035 852.82161 1007.2812 776.16602 C 1032.322 699.51024 1053.5309 658.11484 1070.9062 651.98242 C 1107.7008 647.89412 1134.785 677.02445 1152.1602 739.37109 C 1169.5355 801.71769 1166.4705 859.46538 1142.9629 912.61328 C 1129.6758 931.01072 1120.9866 946.086 1116.8984 957.83984 C 1112.8102 969.59364 1115.8771 979.55776 1126.0977 987.73438 C 1160.8482 988.75655 1185.8895 984.6695 1201.2207 975.4707 C 1214.5076 970.36041 1217.0632 952.984 1208.8867 923.34375 C 1215.0189 877.3504 1216.2959 836.46794 1212.7188 800.69531 C 1209.1415 764.92274 1217.5741 719.95141 1238.0156 665.78125 C 1210.4195 642.27351 1186.9115 612.63395 1167.4922 576.86133 C 1148.0727 541.0887 1152.6709 493.81625 1181.2891 435.04688 C 1209.9071 376.27756 1218.5963 320.8309 1207.3535 268.70508 C 1211.4418 240.08695 1208.1184 216.06786 1197.3867 196.64844 C 1186.6549 177.22896 1172.0908 166.75382 1153.6934 165.2207 C 1135.296 163.68764 1126.6087 168.03123 1127.6309 178.25195 C 1128.653 188.47273 1131.9744 198.94787 1137.5957 209.67969 C 1143.2172 220.41145 1149.094 229.60981 1155.2266 237.27539 C 1161.3591 244.94093 1163.4037 250.81794 1161.3594 254.90625 C 1081.6376 235.48682 989.39565 234.72111 884.63281 252.60742 C 779.87009 270.49374 693.50518 278.92633 625.53711 277.9043 C 557.56914 276.88222 492.15446 264.36057 429.29688 240.3418 C 366.43919 216.32297 331.94496 179.7842 325.8125 130.72461 C 383.04875 83.709133 397.86949 45.382392 370.27344 15.742188 C 362.2246 5.393669 352.09199 0.14763806 339.875 0.00390625 z M 227.93359 86.958984 C 280.92179 84.834969 300.26022 106.57737 285.95117 152.1875 C 299.23818 186.93805 315.59229 213.00163 335.01172 230.37695 C 353.91962 246.22622 373.16715 260.01367 392.75586 271.74023 C 395.34165 307.91466 374.62164 344.95888 338.68945 379.31445 C 328.25077 389.29512 316.60525 398.89123 304.10352 407.96875 C 280.38676 379.58425 263.86068 355.9034 254.52344 336.92773 C 238.68128 304.73238 231.2709 264.61763 232.29297 216.58008 C 221.05016 215.558 207.25168 230.88795 190.89844 262.57227 C 147.97127 278.92551 112.70933 291.70174 85.113281 300.90039 C 71.826319 292.72381 62.11684 285.31342 55.984375 278.66992 C 49.851956 272.02646 57.262346 257.46222 78.214844 234.97656 C 99.167436 212.49086 115.26501 183.36247 126.50781 147.58984 C 141.83898 116.92761 167.39144 97.5067 203.16406 89.330078 C 212.10722 88.052481 220.36385 87.262415 227.93359 86.958984 z M 174.41797 131.875 C 168.03 131.61948 161.76919 134.30242 155.63672 139.92383 C 143.37183 153.21083 143.37183 165.98707 155.63672 178.25195 C 159.72503 182.34027 165.85854 184.38477 174.03516 184.38477 C 191.41043 184.38477 200.09766 176.20672 200.09766 159.85352 C 200.09766 152.69898 198.05316 146.56742 193.96484 141.45703 C 187.32136 135.32459 180.80594 132.13052 174.41797 131.875 z M 971.58789 288.20508 C 1056.1966 284.65977 1115.3652 297.06714 1149.0938 325.42969 C 1152.1598 335.65046 1153.6934 348.42669 1153.6934 363.75781 C 1153.6934 379.08903 1144.2383 408.47395 1125.3301 451.91211 C 1106.4219 495.35031 1107.7005 550.28775 1129.1641 616.72266 C 1096.4577 608.54604 1057.3633 584.27041 1011.8809 543.89844 C 966.39857 503.52646 939.56915 485.3843 931.39258 489.47266 C 923.21605 493.56092 916.06225 504.80382 909.92969 523.20117 C 903.79727 539.55441 862.40173 555.39744 785.74609 570.72852 C 687.62673 567.66238 617.10485 557.95285 574.17773 541.59961 C 573.15561 552.84237 576.98807 572.51787 585.67578 600.625 C 594.36344 628.73204 600.75158 657.60398 604.83984 687.24414 C 558.84649 649.42736 526.14018 611.6117 506.7207 573.79492 C 497.52205 553.35342 485.51153 529.84545 470.69141 503.27148 C 455.87133 476.6976 448.46094 428.14827 448.46094 357.625 C 422.90904 388.28724 407.06801 423.03805 400.93555 461.87695 C 394.80308 500.71581 382.53792 504.80477 364.14062 474.14258 C 349.86448 459.35656 336.87669 445.41348 325.17578 432.3125 C 337.87855 422.90876 349.84203 412.92501 360.80469 402.44336 C 395.30428 369.45751 420.58136 330.2474 424.45898 288.77734 C 467.183 309.16867 511.46691 320.10916 557.3125 321.59766 C 636.01229 324.1528 743.07504 315.97675 878.5 297.06836 C 912.35625 292.34127 943.38499 289.38685 971.58789 288.20508 z M 236.60352 379.01953 C 248.62367 396.85796 260.50772 413.49044 272.25391 428.91797 C 252.42788 440.74807 231.39401 451.25634 210.22266 460.0332 C 213.7085 446.08198 217.41035 431.167 221.73828 416.82617 C 226.03008 402.60508 231.33705 389.25915 236.60352 379.01953 z M 952.85547 537 C 991.69425 572.77262 1024.4006 597.81401 1050.9746 612.12305 C 1026.4448 650.962 1001.4054 699.5093 975.85352 757.76758 C 993.22871 664.75856 985.56178 591.16988 952.85547 537 z " />
</svg>
