<?xml version="1.0" encoding="UTF-8" standalone="no"?>
<svg
   width="1250"
   height="1000"
   id="svg1333"
   sodipodi:version="0.32"
   inkscape:version="1.4.2 (f4327f4, 2025-05-13)"
   sodipodi:docname="13ABF.svg"
   inkscape:output_extension="org.inkscape.output.svg.inkscape"
   version="1.0"
   xmlns:inkscape="http://www.inkscape.org/namespaces/inkscape"
   xmlns:sodipodi="http://sodipodi.sourceforge.net/DTD/sodipodi-0.dtd"
   xmlns="http://www.w3.org/2000/svg"
   xmlns:svg="http://www.w3.org/2000/svg"
   xmlns:rdf="http://www.w3.org/1999/02/22-rdf-syntax-ns#"
   xmlns:cc="http://creativecommons.org/ns#"
   xmlns:dc="http://purl.org/dc/elements/1.1/">
  <metadata
     id="metadata1340">
    <rdf:RDF>
      <cc:Work
         rdf:about="">
        <dc:format>image/svg+xml</dc:format>
        <dc:type
           rdf:resource="http://purl.org/dc/dcmitype/StillImage" />
      </cc:Work>
    </rdf:RDF>
  </metadata>
  <defs
     id="defs1338">
    <inkscape:perspective
       sodipodi:type="inkscape:persp3d"
       inkscape:vp_x="0 : -789.0116 : 1"
       inkscape:vp_y="0 : 1000 : 0"
       inkscape:vp_z="16.559208 : -789.0116 : 1"
       inkscape:persp3d-origin="8.279604 : -792.00773 : 1"
       id="perspective13" />
  </defs>
  <sodipodi:namedview
     inkscape:window-height="998"
     inkscape:window-width="1680"
     inkscape:pageshadow="2"
     inkscape:pageopacity="0.0"
     borderopacity="1.0"
     bordercolor="#666666"
     pagecolor="#ffffff"
     id="base"
     inkscape:zoom="0.45706273"
     inkscape:cx="664.02263"
     inkscape:cy="626.82862"
     inkscape:window-x="-8"
     inkscape:window-y="-8"
     inkscape:current-layer="svg1333"
     showgrid="false"
     inkscape:showpageshadow="2"
     inkscape:pagecheckerboard="0"
     inkscape:deskcolor="#d1d1d1"
     inkscape:window-maximized="1"
     showguides="true">
    <sodipodi:guide
       position="1229.8881,369.49727"
       orientation="0,-1"
       id="guide9"
       inkscape:locked="false" />
  </sodipodi:namedview>
  <path
     id="path1-7"
     style="fill:#000000;stroke:none;stroke-width:0.999997"
     d="M 902.01953 0 C 868.89555 24.842962 783.72007 37.560824 646.49219 38.152344 C 568.41422 38.152344 509.26491 55.304371 469.04297 89.611328 C 428.82099 123.91829 378.83913 159.70624 319.09766 196.9707 C 254.62424 208.20919 218.54302 225.3612 210.85352 248.42969 C 203.16404 271.49817 193.99467 287.46931 183.34766 296.3418 C 148.44919 314.08679 142.23786 335.97209 164.71484 361.99805 C 174.17884 380.92602 185.41865 394.82476 198.43164 403.69727 C 213.81066 428.54025 231.25984 431.79545 250.7793 413.45898 C 266.74978 411.68449 285.67898 407.54361 307.56445 401.03711 C 327.67543 480.88953 372.03645 541.8121 440.65039 583.80859 L 278.2832 583.80859 C 250.48272 569.02109 228.59744 561.63086 212.62695 561.63086 C 175.95399 568.72881 157.46959 584.10565 157.17383 607.76562 C 157.05436 617.32287 157.68398 624.90175 159.06055 630.50195 L 143.29883 630.50195 C 111.68045 598.22304 94.389996 565.94493 91.423828 533.66602 C 88.459438 501.38746 72.484716 485.24805 43.5 485.24805 C 13.856003 485.24805 -0.63730183 504.35125 0.021484375 542.55859 C 1.5679614 632.24977 93.429407 668.02131 143.29883 669.03906 L 151.36133 669.03906 L 169.84961 745.21875 L 314.44922 745.21875 L 332.97461 669.03906 L 475.31055 669.03906 L 793.48633 863.69922 L 793.48633 1000 L 834 1000 L 834 669.03906 L 1229.8887 669.03906 L 1229.8887 630.50195 L 1169.2324 630.50195 C 1203.5459 615.53176 1228.0416 591.26536 1242.7227 558.9668 C 1256.327 532.34933 1250.8558 511.79446 1226.3086 497.30273 C 1201.7613 482.81098 1181.5038 487.39666 1165.5332 511.05664 C 1153.1118 534.71662 1139.5062 554.23622 1124.7188 569.61523 C 1057.2878 430.61285 984.09213 361.55613 905.12695 362.44336 C 826.16167 363.33058 744.5328 367.32192 660.24414 374.41992 C 575.95546 381.51789 523.01551 370.4257 501.42578 341.14648 C 479.83603 311.86728 461.35164 289.83633 445.97266 275.04883 C 483.82862 289.24482 535.88096 296.3418 602.12891 296.3418 C 668.96835 296.3418 746.1592 279.63262 833.70117 246.21289 C 921.24317 212.79316 965.01367 194.60202 965.01367 191.64453 C 965.01367 172.71655 960.28237 156.74736 950.81836 143.73438 C 893.44287 160.88787 821.27855 163.25548 734.32812 150.83398 C 839.61502 125.99101 905.86522 87.246956 933.07422 34.603516 C 934.84869 10.352024 924.49646 -1.1829895 902.01953 0 z M 898.4707 25.730469 C 903.20276 26.913458 907.04838 29.871499 910.00586 34.603516 C 894.62689 62.403986 853.95998 85.767356 788.00781 104.69531 C 722.05559 123.62331 666.89762 132.93835 622.53516 132.64258 C 578.17268 132.34684 508.3779 154.38165 413.14648 198.74414 C 407.82299 210.57412 410.77908 218.2635 422.01758 221.8125 C 501.86998 179.22455 566.04786 157.78208 614.55078 157.48633 C 663.05378 157.19056 702.97872 160.74099 734.32812 168.13477 C 765.67759 175.52848 798.50748 179.22461 832.81445 179.22461 C 867.12139 179.22461 902.90746 173.90287 940.17188 163.25586 L 941.94727 169.46484 C 905.86583 180.70331 870.0779 187.35747 834.58789 189.42773 C 799.0979 191.49798 762.5739 188.09709 725.01367 179.22461 C 687.45347 170.35209 652.99988 165.91602 621.65039 165.91602 C 590.30092 165.91602 554.21775 174.05017 513.4043 190.31641 C 472.59084 206.58264 444.19901 219.15095 428.22852 228.02344 L 436.21289 241.33203 C 452.1834 231.27651 479.2448 218.56063 517.39648 203.18164 C 555.54823 187.80264 590.00375 179.9637 620.76172 179.66797 C 651.51969 179.37224 686.12282 183.51311 724.57031 192.08984 C 763.01779 200.66659 800.13421 203.91987 835.91992 201.84961 C 871.70568 199.77937 907.34198 190.75956 942.83203 174.78906 L 945.49609 181.88672 C 778.69318 241.62817 667.78486 271.49805 612.77539 271.49805 C 557.76594 271.49805 517.69342 268.98476 492.55469 263.95703 C 467.41596 258.92928 435.62324 249.61233 397.17578 236.00781 C 383.57127 238.37381 380.90845 245.76796 389.18945 258.18945 C 432.96043 300.77743 466.23116 338.48623 489.00391 371.31445 C 511.77663 404.14267 577.43444 416.1205 685.97461 407.24805 C 794.51477 398.37556 856.17731 393.9375 870.96484 393.9375 C 934.25531 389.797 984.23724 412.71753 1020.9102 462.69922 C 1057.5832 512.68096 1081.2437 557.19151 1091.8906 596.23047 L 1125.6074 596.23047 C 1153.4079 575.52795 1172.6304 552.46181 1183.2773 527.02734 C 1191.5582 515.19736 1202.0581 512.3869 1214.7754 518.59766 C 1227.4925 524.80836 1230.0079 535.89864 1222.3184 551.86914 C 1202.7989 585.58463 1169.3785 610.72334 1122.0586 623.73633 L 780.4668 622.84961 C 772.18584 615.16002 763.16405 612.79244 753.4043 615.75 C 743.64455 618.70787 735.51234 620.0403 729.00586 619.74414 C 722.49937 619.44841 719.24609 616.93316 719.24609 612.20117 C 719.24609 606.28617 726.64024 601.40725 741.42773 597.5625 C 756.21523 593.71777 774.25681 597.71105 795.55078 609.54102 L 921.53906 609.54102 C 929.22861 609.54102 938.69322 607.47058 949.93164 603.33008 C 904.38629 538.26514 881.61328 495.52871 881.61328 476.89648 C 881.61328 458.26424 888.11981 447.46923 901.13281 444.51172 C 914.14572 441.55422 928.04453 445.69507 942.83203 456.93359 C 948.74699 452.20159 951.70703 448.06074 951.70703 444.51172 C 931.00458 425.58373 909.26495 419.07714 886.49219 424.99219 C 863.71942 430.90715 851.89115 445.99074 851.00391 470.24219 C 850.11664 494.49368 856.47555 514.30851 870.08008 529.6875 C 820.39408 550.98164 755.32676 561.92424 674.88281 562.51562 C 616.91585 562.51562 558.94936 539.74277 500.98242 494.19727 L 488.56055 512.83008 C 532.33151 567.83955 554.2168 604.21596 554.2168 621.96094 L 240.13086 621.96094 C 232.44138 610.72247 223.42156 607.61875 213.07031 612.64648 C 202.71905 617.67462 194.14205 620.04028 187.33984 619.74414 C 180.53757 619.44841 177.13672 616.04752 177.13672 609.54102 C 177.13672 600.66852 184.97564 594.16002 200.65039 590.01953 C 216.32512 585.87907 230.37147 588.24665 242.79297 597.11914 C 255.21444 605.99163 276.50928 609.83533 306.67578 608.65234 L 493.88477 608.65234 L 495.66016 590.9082 C 399.24572 530.57526 345.12295 459.89093 333.29297 378.85547 C 339.20798 362.29349 343.94126 336.2673 347.49023 300.77734 L 339.50391 300.77734 C 329.44844 351.0548 308.89356 380.48186 277.83984 389.05859 C 246.78612 397.63534 226.52845 397.48771 217.06445 388.61523 C 221.79643 384.47472 230.81626 379.74343 244.125 374.41992 C 257.43373 369.09643 263.4955 364.36316 262.3125 360.22266 C 261.12951 356.08216 251.07447 359.78022 232.14648 371.31445 C 213.21848 382.84871 196.36168 374.12412 181.57422 345.14062 C 198.1362 336.85965 200.50186 325.62176 188.67188 311.42578 C 210.55737 299.59579 223.71807 284.3647 228.1543 265.73242 C 232.59056 247.10021 263.79086 232.16429 321.75781 220.92578 C 380.90777 185.4358 432.81249 149.6479 477.4707 113.56641 C 522.12891 77.484927 595.32651 59.742489 697.06445 60.333984 C 798.80231 60.925478 865.93819 49.390429 898.4707 25.730469 z M 320.87109 245.76758 L 305.78711 247.54102 C 264.38215 245.17499 241.31401 263.2166 236.58203 301.66406 C 274.438 307.57907 303.42222 289.83466 323.5332 248.42969 L 320.87109 245.76758 z M 285.82422 259.96289 C 289.96473 259.66715 294.25321 259.96429 298.68945 260.85156 C 295.73194 268.54103 290.70543 274.7504 283.60742 279.48242 C 284.79042 271.79291 281.5352 266.17592 273.8457 262.62695 C 277.69044 261.14819 281.68371 260.25865 285.82422 259.96289 z M 260.53906 269.72266 C 258.76454 278.59517 261.42543 284.51124 268.52344 287.46875 L 249.89062 291.01758 C 251.07362 282.73657 254.62405 275.63767 260.53906 269.72266 z M 44.486328 511.92773 C 55.026413 511.92773 61.285459 523.62047 63.261719 547.00586 C 65.237683 570.3916 83.681819 601.51673 118.5957 640.38281 C 33.117763 614.74036 27.04034 560.22407 27.689453 541.07617 C 28.34814 521.6433 33.946242 511.92773 44.486328 511.92773 z M 881.61328 553.64453 L 905.56836 589.13477 L 841.6875 589.13477 C 822.39376 584.70244 804.93842 581.56137 789.32227 579.71484 C 832.86577 573.77789 863.6293 565.0888 881.61328 553.64453 z M 553.33203 556.30469 C 585.9122 580.3111 639.89325 590.37277 715.2793 586.48633 C 705.86338 592.41048 700.97463 601.42548 700.61328 613.5332 C 700.40924 620.36873 700.76924 626.02456 701.69141 630.50195 L 584.10352 630.50195 C 580.81064 610.21893 570.55418 585.48663 553.33203 556.30469 z M 177.08594 669.03906 L 307.24414 669.03906 L 294.80078 720.21875 L 189.50781 720.21875 L 177.08594 669.03906 z M 546.45508 669.03906 L 793.48633 669.03906 L 793.48633 818.24609 L 546.45508 669.03906 z " />
</svg>
