<?xml version="1.0" encoding="UTF-8" standalone="no"?>
<svg
   width="1250"
   height="500"
   version="1.1"
   id="svg1"
   sodipodi:docname="13AC4.svg"
   inkscape:version="1.4.2 (f4327f4, 2025-05-13)"
   xmlns:inkscape="http://www.inkscape.org/namespaces/inkscape"
   xmlns:sodipodi="http://sodipodi.sourceforge.net/DTD/sodipodi-0.dtd"
   xmlns="http://www.w3.org/2000/svg"
   xmlns:svg="http://www.w3.org/2000/svg">
  <defs
     id="defs1" />
  <sodipodi:namedview
     id="namedview1"
     pagecolor="#ffffff"
     bordercolor="#666666"
     borderopacity="1.0"
     inkscape:showpageshadow="2"
     inkscape:pageopacity="0.0"
     inkscape:pagecheckerboard="0"
     inkscape:deskcolor="#d1d1d1"
     showguides="true"
     inkscape:zoom="0.8744"
     inkscape:cx="169.83074"
     inkscape:cy="293.34401"
     inkscape:window-width="1680"
     inkscape:window-height="998"
     inkscape:window-x="-8"
     inkscape:window-y="-8"
     inkscape:window-maximized="1"
     inkscape:current-layer="svg1">
    <sodipodi:guide
       position="627.8593,19.76367"
       orientation="1,0"
       id="guide3"
       inkscape:locked="false" />
  </sodipodi:namedview>
  <path
     style="fill:#000000;stroke:none;stroke-width:1"
     d="m 319.95703,27.744141 c -27.04547,0 -56.51817,7.975901 -88.41797,23.925781 -31.8998,15.949913 -45.42268,29.125257 -40.56836,39.527344 -42.30188,32.593264 -63.45312,54.090064 -63.45312,64.492184 -3.46739,6.93474 -1.04043,15.60374 7.28125,26.00586 6.24126,14.56294 13.86958,25.31136 22.88476,32.2461 0,23.57812 12.13665,35.36718 36.40821,35.36718 13.86946,-13.8695 24.96539,-10.05434 33.28711,11.44336 0.69346,35.36715 10.74875,75.24072 30.16601,119.62305 -73.5082,35.36715 -120.83731,48.71724 -141.98828,40.04883 C 94.4057,411.75542 76.894861,407.42187 63.025391,407.42188 34.59298,408.11534 15.175558,423.71765 4.7734375,454.23047 -5.6286824,484.74333 0.95898975,500 24.537109,500 H 323.67279 c 31.27884,0 66.0848,-20.67185 72.21971,-45.76953 68.31917,16.58234 164.56081,38.51763 231.9668,0 V 500 h 365.11328 c 63.10602,0 96.39392,-12.82975 99.86132,-38.48828 97.3774,-1.94754 196.0135,-119.19638 140.9472,-278.77539 -16.99,-49.23666 -70.9068,-89.457738 -161.7519,-120.664064 -83.2168,-14.56294 -123.43796,-5.202756 -120.66405,28.083984 1.40302,19.64215 28.14869,30.74288 52.00975,15.08398 11.0955,-7.281458 32.2468,-9.881184 63.4531,-7.800777 76.9756,22.884657 122.2253,57.731547 135.7481,104.541017 45.4192,157.22071 -54.954,218.52436 -99.3399,220.00391 0.6935,-56.86487 -20.6305,-106.27533 -63.9726,-148.23047 C 995.92155,231.79876 931.08165,221.22314 844.74414,242.02734 758.4067,262.83155 686.45875,258.32525 628.90039,228.50586 601.85492,211.16904 577.92921,195.56479 557.125,181.69531 502.34055,79.061195 423.28458,27.744141 319.95703,27.744141 Z M 297.07227,53.75 c -4.16086,10.402087 -2.07949,22.536777 6.24218,36.40625 l 3.11914,-3.119141 c -4.85429,-13.869466 -4.15922,-22.886015 2.08203,-27.046875 l 11.44141,16.644532 h 7.28125 c 0,-5.547794 -3.81322,-12.135466 -11.4414,-19.763672 h 2.08007 c 11.09556,9.015146 16.64258,18.029742 16.64258,27.044922 -11.09555,13.869466 -21.49642,18.896154 -31.20508,15.082031 -9.70861,-3.814087 -14.91004,-13.694618 -15.60351,-29.644531 0,-9.015147 3.12006,-14.216576 9.36133,-15.603516 z m 39.52734,3.121094 c 76.97556,-3.467387 139.38857,35.019921 187.23828,115.462886 -34.67367,-7.6282 -64.31917,-11.09581 -88.9375,-10.40234 -24.61833,0.69347 -53.74349,29.81863 -87.37695,87.37695 -33.63348,57.55829 -38.66207,103.32836 -15.08399,137.3086 -20.11073,20.8042 -36.75368,18.02977 -49.92968,-8.32227 -15.25642,-45.07576 -23.23231,-81.13617 -23.92579,-108.18164 56.17136,-39.528 81.48334,-93.27197 75.93555,-161.23242 8.32171,-3.46735 13.5231,-10.227817 15.60352,-20.283204 2.0804,-10.055353 -2.42789,-20.630976 -13.52344,-31.726562 z m -59.29102,5.201172 c 0,11.78906 2.42696,23.750918 7.28125,35.886718 4.85432,12.135796 14.21647,16.469306 28.08594,13.001956 3.46739,59.6387 -18.377,104.36812 -65.5332,134.1875 -9.70866,-18.7238 -19.76393,-28.08594 -30.16602,-28.08594 -11.09558,0 -21.15083,5.2014 -30.16601,15.60352 -5.54776,-4.85433 -7.97472,-10.05573 -7.28125,-15.60352 6.93474,-6.93473 14.90869,-10.40234 23.92382,-10.40234 v -17.6836 c -5.54778,0 -16.64376,3.12202 -33.2871,9.36328 l -11.44141,-18.72461 15.60351,-16.64257 v -6.24219 l -24.96484,6.24219 46.8086,-44.73047 c 1.38696,4.16085 5.89523,5.89464 13.52343,5.20117 l -7.28125,22.88476 7.28125,40.56836 v 19.76368 h 12.48242 v -19.76368 l -7.28125,-40.56836 c 1.38698,-15.25639 13.86918,-28.43175 37.44727,-39.52734 v -5.20117 C 235.7004,97.438788 221.48437,96.745651 209.69531,99.519531 224.95172,87.037005 247.48921,74.554799 277.30859,62.072266 Z M 984,75.568359 c 10.27132,-0.419689 25.5122,3.745766 30.8184,5.22656 -26.35211,14.562973 -40.39527,16.123968 -42.12895,4.68164 -0.94809,-6.257515 2.82186,-9.561329 11.31055,-9.9082 z M 454.10938,186.85156 c 2.25513,-0.10023 4.52141,-0.0851 6.79687,0.0449 36.40735,2.08041 92.05795,27.73991 166.95313,76.97657 40.91494,29.12588 106.44801,32.76629 196.5996,10.92187 90.15156,-21.8444 153.43046,-15.42953 189.83792,19.24414 36.4073,34.67368 54.6113,73.16098 54.6113,115.46289 -0.6935,43.68882 -26.0055,65.8788 -75.93554,66.57227 C 943.736,473.30032 906.6369,462.89944 881.67188,444.86912 856.70675,426.83883 844.22266,405.68758 844.22266,381.416 c 0,-25.65854 6.93522,-42.64903 20.80468,-50.97071 13.86954,-8.32171 28.08547,-9.53519 42.64844,-3.64062 14.56294,5.89449 24.9658,10.74838 31.20703,14.5625 6.24127,3.81408 6.24127,0.34647 0,-10.40235 -6.24123,-10.74885 -22.53856,-18.54997 -48.89062,-23.40429 -26.35197,-4.8543 -48.36918,6.76197 -66.05274,34.84765 -17.68366,28.08568 -18.89707,56.34493 -3.64062,84.77735 -39.52804,0.6935 -65.88068,-1.38787 -79.05664,-6.24219 -35.0295,-12.90564 -69.73213,-23.02004 -112.3418,9.36328 -99.25218,34.87241 -160.21578,15.95589 -224.68555,-7.2832 -61.0257,-45.76927 -75.9368,-97.08631 -44.73046,-153.95117 29.25592,-53.31077 60.79782,-80.71727 94.625,-82.22071 z m -190.58399,217.9043 c 3.81411,-0.13003 6.67498,0.41143 8.58203,1.625 33.53161,27.70012 51.6702,25.80481 74.89453,0 4.16082,5.54779 14.91119,14.90994 32.24805,28.08594 -16.64335,30.51286 -39.18279,45.76953 -67.61523,45.76953 H 81.748047 c -1.38694,-9.01518 1.387532,-19.07046 8.322265,-30.16602 -12.482528,1.38694 -18.722656,11.44222 -18.722656,30.16602 h -5.201172 c -2.77388,-11.78903 0.346183,-24.61878 9.361328,-38.48828 -15.25641,1.38694 -22.884765,14.21668 -22.884765,38.48828 h -7.28125 c 0,-22.19115 8.669004,-36.75473 26.005859,-43.68945 -22.88465,-1.38698 -35.021263,13.17659 -36.408203,43.68945 H 24.537109 c 0,-33.98021 17.683636,-50.97071 53.050782,-50.97071 18.723796,6.24127 34.846409,11.09517 48.369139,14.5625 13.52273,3.4674 39.35504,-3.12028 77.49609,-19.76367 28.6058,-12.48251 48.62996,-18.9185 60.07227,-19.30859 z m 418.29102,28.49219 c 6.90564,-0.0537 35.38429,5.70983 54.74609,12.66015 13.52273,4.85433 31.55196,6.76283 54.08984,5.72266 22.53792,-1.04024 38.66053,0.86638 48.36914,5.7207 9.70862,4.8543 25.31284,12.82824 46.81055,23.92383 H 704.83594 c -1.38698,-9.01515 1.38558,-19.07044 8.32031,-30.16601 -12.48253,1.38693 -18.72266,11.44222 -18.72266,30.16601 h -5.20117 c -2.77391,-11.78906 0.34618,-24.61686 9.36133,-38.48633 -15.25641,1.38694 -22.88477,14.21474 -22.88477,38.48633 h -7.28125 c 0,-22.19115 8.66904,-36.75277 26.00586,-43.6875 -22.88479,-1.38697 -35.367,13.17465 -37.44726,43.6875 h -9.36328 c 1.95035,-31.85644 13.3485,-47.8648 34.19336,-48.02734 z"
     id="path1"
     sodipodi:nodetypes="sscccccccscssccccscsccscscssccscccccccccsccccssccccsccsccscccccccccccccccccccccscsssccssccsssssssscsccsssscccscccccccccccssssssscccccccccccs" />
</svg>
