<?xml version="1.0" encoding="UTF-8" standalone="no"?>
<svg
   width="1250"
   height="1000"
   id="svg2693"
   sodipodi:version="0.32"
   inkscape:version="1.4.2 (f4327f4, 2025-05-13)"
   sodipodi:docname="13ACE.svg"
   inkscape:output_extension="org.inkscape.output.svg.inkscape"
   version="1.0"
   xmlns:inkscape="http://www.inkscape.org/namespaces/inkscape"
   xmlns:sodipodi="http://sodipodi.sourceforge.net/DTD/sodipodi-0.dtd"
   xmlns="http://www.w3.org/2000/svg"
   xmlns:svg="http://www.w3.org/2000/svg"
   xmlns:rdf="http://www.w3.org/1999/02/22-rdf-syntax-ns#"
   xmlns:cc="http://creativecommons.org/ns#"
   xmlns:dc="http://purl.org/dc/elements/1.1/">
  <metadata
     id="metadata2700">
    <rdf:RDF>
      <cc:Work
         rdf:about="">
        <dc:format>image/svg+xml</dc:format>
        <dc:type
           rdf:resource="http://purl.org/dc/dcmitype/StillImage" />
      </cc:Work>
    </rdf:RDF>
  </metadata>
  <defs
     id="defs2698">
    <inkscape:perspective
       sodipodi:type="inkscape:persp3d"
       inkscape:vp_x="0 : -791.00839 : 1"
       inkscape:vp_y="0 : 1000 : 0"
       inkscape:vp_z="31.497665 : -791.00839 : 1"
       inkscape:persp3d-origin="15.748833 : -794.00559 : 1"
       id="perspective2702" />
  </defs>
  <sodipodi:namedview
     inkscape:window-height="998"
     inkscape:window-width="1680"
     inkscape:pageshadow="2"
     inkscape:pageopacity="0.0"
     guidetolerance="10.0"
     gridtolerance="10.0"
     objecttolerance="10.0"
     borderopacity="1.0"
     bordercolor="#666666"
     pagecolor="#ffffff"
     id="base"
     showgrid="false"
     inkscape:zoom="0.30446893"
     inkscape:cx="-188.85342"
     inkscape:cy="-90.321202"
     inkscape:window-x="-8"
     inkscape:window-y="-8"
     inkscape:current-layer="svg2693"
     inkscape:showpageshadow="2"
     inkscape:pagecheckerboard="0"
     inkscape:deskcolor="#d1d1d1"
     showguides="true"
     inkscape:window-maximized="1">
    <sodipodi:guide
       position="1388.8112,377.58964"
       orientation="1,0"
       id="guide1"
       inkscape:locked="false" />
    <sodipodi:guide
       position="565.70982,627.64152"
       orientation="1,0"
       id="guide2"
       inkscape:locked="false" />
  </sodipodi:namedview>
  <path
     id="path2695"
     style="fill:#000000;stroke:none;stroke-width:1"
     d="M 432.11328 0 C 400.69392 0 383.0356 16.489439 379.14062 49.466797 C 380.9583 85.300452 410.95046 133.20702 469.11523 193.18945 L 478.46289 211.88672 L 488.19922 211.88672 C 493.39251 218.11866 495.99023 225.12806 495.99023 232.91797 C 490.79694 235.77429 485.21447 240.57881 479.24219 247.33008 C 452.75645 229.15357 433.41124 220.06445 421.20703 220.06445 C 399.91457 220.06445 389.26758 233.5672 389.26758 260.57227 C 389.26758 293.54963 414.97517 310.03906 466.38867 310.03906 C 466.64834 326.91722 479.24216 348.46922 504.16992 374.69531 C 529.09768 400.66172 543.24935 415.33333 546.625 418.70898 L 546.625 468.17383 C 484.85974 464.59737 444.68857 456.72134 431.65234 442.75391 C 381.93479 367.42434 305.61561 319.20813 202.41406 298.86914 C 175.29541 298.86914 146.25756 307.6162 114.61914 325.69531 C 82.980688 343.77439 68.642331 357.82691 73.162109 368.37305 C 30.977532 400.76477 9.7539069 422.45189 9.7539062 432.99805 C 5.2341274 439.77769 8.0307539 449.27807 17.070312 459.82422 C 23.096684 474.13683 29.979977 484.74767 39.019531 491.52734 C 39.019531 515.63281 51.961537 526.88867 76.820312 526.88867 C 90.379617 512.57608 101.45591 516.01767 109.74219 537.86328 C 110.49547 573.26819 119.24254 611.25019 136.56836 650.04492 C 153.89419 688.83965 162.17383 716.85387 162.17383 734.17969 C 162.17383 751.50552 155.29249 776.72505 140.22656 811 C 125.16064 845.27495 101.42822 888.27454 68.283203 940.25195 L 36.580078 937.8125 C 27.540546 937.8125 15.065929 947.31284 0 964.63867 L 0 1000 L 103.64453 1000 L 115.83984 978.05078 C 136.17881 945.65911 161.01977 927.23403 192.6582 921.96094 C 196.42469 891.07586 210.38838 856.44666 234.11719 819.53516 C 257.846 782.62371 275.53724 753.12039 285.33008 730.52148 C 342.58058 830.70984 370.68557 884.41092 370.68555 892.69727 C 370.68555 916.04939 367.88893 927.59122 363.36914 926.83789 L 336.54297 926.83789 C 313.94411 941.15054 302.40041 954.09253 302.40039 964.63867 L 303.61914 1000 L 401.16797 1000 C 419.24709 997.74014 429.39244 963.57643 431.65234 898.79297 C 443.70509 897.28637 451.34168 892.53713 453.60156 885.38086 C 455.86146 878.22454 453.53029 873.2958 447.50391 869.5293 C 441.47755 858.98316 426.95964 804.99608 403.60742 708.57422 C 439.76562 719.12036 473.64148 724.42578 506.0332 724.42578 C 539.17824 724.42578 591.76697 716.60966 663.33008 700.03711 C 655.79713 721.12943 653.46793 770.92343 657.23438 850.01953 C 657.23438 862.82552 648.48728 880.22894 630.4082 902.45117 C 612.32906 924.67347 596.8783 936.59375 584.07227 936.59375 L 563.34375 935.37305 C 543.00478 935.37305 531.2815 943.65458 526.76172 960.98047 L 526.76172 1000 L 636.50391 1000 L 681.62109 940.25195 C 696.687 916.89981 717.44323 896.14353 743.80859 878.06445 C 740.79542 825.33378 756.89123 783.82132 793.80273 753.68945 C 831.46755 786.83451 864.23091 811.32017 891.34961 825.63281 C 918.46824 839.94539 936.33904 851.66675 945.00195 862.21289 C 953.66486 872.75902 958.41602 897.88783 958.41602 937.8125 L 936.4668 936.59375 C 912.36129 950.90633 901.10547 961.22942 901.10547 969.51562 L 901.10547 1000 L 986.46094 1000 C 997.00707 1000 1005.109 985.19417 1009.6289 957.32227 L 1009.6289 842.70312 C 1010.3822 823.87072 995.57645 805.99997 966.95117 789.05078 C 938.32588 772.10164 923.3405 736.45086 921.83398 682.9668 C 920.32738 629.4828 912.51323 588.43785 897.44727 559.8125 C 918.53953 575.63174 945.62283 630.26377 979.14453 724.42578 C 1012.6662 818.58778 1035.9312 876.48196 1049.8672 897.57422 C 1063.8031 918.6665 1096.4797 929.27734 1146.1973 929.27734 C 1212.4873 922.49764 1238.2611 905.00355 1225.4551 875.625 C 1221.6887 868.09199 1214.8053 863.43164 1203.5059 863.43164 C 1192.2065 863.43164 1182.1517 869.11376 1174.2422 879.2832 C 1166.3325 889.45277 1147.5289 893.91602 1118.1504 893.91602 C 1088.0185 893.91602 1058.4264 847.38596 1027.918 752.4707 C 997.40946 657.55541 964.64415 586.25379 930.36914 540.30273 C 896.09419 494.35164 814.09289 471.08667 685.2793 469.58008 C 647.15572 470.74121 614.43199 471.46428 584.79297 470.86719 L 584.79297 418.70898 C 588.16862 415.33333 602.32029 400.66172 627.24805 374.69531 C 652.17581 348.46922 664.76963 326.91722 665.0293 310.03906 C 716.4428 310.03906 742.15039 293.54963 742.15039 260.57227 C 742.15039 233.5672 731.5034 220.06445 710.21094 220.06445 C 698.00673 220.06445 678.66152 229.15357 652.17578 247.33008 C 646.2035 240.57881 640.62102 235.77429 635.42773 232.91797 C 635.42773 225.12806 638.02546 218.11866 643.21875 211.88672 L 652.95508 211.88672 L 662.30273 193.18945 C 720.4675 133.20702 750.45967 85.300452 752.27734 49.466797 C 748.38236 16.489439 730.72405 0 699.30469 0 C 668.92398 0 652.04557 13.762693 648.66992 41.287109 C 650.48756 69.330846 662.82338 83.871503 685.67383 84.910156 C 705.92764 81.534514 716.05273 72.576341 716.05273 58.035156 C 716.05273 40.637645 709.69231 31.939453 696.96875 31.939453 C 688.91916 32.458782 684.89453 35.834467 684.89453 42.066406 C 684.89453 48.298355 690.21704 51.414063 700.86328 51.414062 C 700.86328 61.281298 695.80074 66.214844 685.67383 66.214844 C 675.28727 66.214844 669.18485 58.165591 667.36719 42.066406 C 667.36719 26.486549 677.49422 18.695314 697.74805 18.695312 C 719.0405 18.695313 729.68555 28.953317 729.68555 49.466797 C 729.68555 78.029862 699.43536 121.52283 638.93359 179.94727 L 627.24805 179.94727 L 654.12305 0 L 565.70898 0 L 477.29492 0 L 504.16992 179.94727 L 492.48438 179.94727 C 431.98261 121.52283 401.73242 78.029862 401.73242 49.466797 C 401.73242 28.953317 412.37747 18.695313 433.66992 18.695312 C 453.92375 18.695314 464.05078 26.486549 464.05078 42.066406 C 462.23312 58.165591 456.1307 66.214844 445.74414 66.214844 C 435.61723 66.214844 430.55469 61.281298 430.55469 51.414062 C 441.20093 51.414063 446.52344 48.298355 446.52344 42.066406 C 446.52344 35.834467 442.49881 32.458782 434.44922 31.939453 C 421.72566 31.939453 415.36523 40.637645 415.36523 58.035156 C 415.36523 72.576341 425.49033 81.534514 445.74414 84.910156 C 468.59459 83.871503 480.93041 69.330846 482.74805 41.287109 C 479.3724 13.762693 462.49399 0 432.11328 0 z M 506.89648 26.095703 L 565.70898 26.095703 L 624.52148 26.095703 L 602.71094 179.94727 L 565.70898 179.94727 L 528.70703 179.94727 L 506.89648 26.095703 z M 481.57812 191.63281 L 565.70898 191.63281 L 649.83984 191.63281 L 649.83984 199.42188 L 565.70898 199.42188 L 481.57812 199.42188 L 481.57812 191.63281 z M 502.61133 211.88672 L 565.70898 211.88672 L 628.80664 211.88672 L 626.85938 227.07617 C 605.56691 217.98792 585.18379 213.44336 565.70898 213.44336 C 546.23417 213.44336 525.85106 217.98792 504.55859 227.07617 L 502.61133 211.88672 z M 565.70898 228.63477 C 587.52077 228.63477 607.12399 234.21727 624.52148 245.38281 C 641.91898 256.54838 650.61914 270.31108 650.61914 286.66992 C 681.83359 242.7971 708.91934 242.26758 710.21094 242.26758 C 717.48153 242.26758 721.76612 250.05685 723.06445 265.63672 C 723.06445 285.11153 698.91669 294.84961 650.61914 294.84961 C 649.32083 319.5177 628.02684 352.10371 586.74023 392.61133 C 582.32595 396.50628 575.31655 398.45508 565.70898 398.45508 C 556.10141 398.45508 549.09201 396.50628 544.67773 392.61133 C 503.39112 352.10371 482.09714 319.5177 480.79883 294.84961 C 432.50128 294.84961 408.35352 285.11153 408.35352 265.63672 C 409.65185 250.05685 413.93644 242.26758 421.20703 242.26758 C 422.49863 242.26758 449.58438 242.7971 480.79883 286.66992 C 480.79883 270.31108 489.49898 256.54838 506.89648 245.38281 C 524.29397 234.21727 543.89719 228.63477 565.70898 228.63477 z M 535.33008 256.28906 C 522.04617 256.28906 510.25581 273.81641 488.19922 273.81641 L 488.19922 285.11133 C 505.39786 285.11133 521.13294 268.75195 534.55078 268.75195 C 539.22472 268.75195 544.80722 269.40091 551.29883 270.69922 C 557.53077 272.25722 560.64648 279.52852 560.64648 292.51172 C 560.64648 304.97561 557.39981 313.80477 550.9082 318.99805 C 544.4166 324.19132 541.17188 328.8649 541.17188 333.01953 C 541.17188 337.95314 543.76766 340.03093 548.96094 339.25195 C 554.41389 338.47296 557.27158 339.6399 557.53125 342.75586 C 558.05057 345.61217 559.60843 347.42999 562.20508 348.20898 C 563.3428 348.46181 564.50972 348.59295 565.70898 348.59961 C 566.90824 348.59295 568.07517 348.46181 569.21289 348.20898 C 571.80954 347.42999 573.3674 345.61217 573.88672 342.75586 C 574.14639 339.6399 577.00408 338.47296 582.45703 339.25195 C 587.65031 340.03093 590.24609 337.95314 590.24609 333.01953 C 590.24609 328.8649 587.00137 324.19132 580.50977 318.99805 C 574.01816 313.80477 570.77148 304.97561 570.77148 292.51172 C 570.77148 279.52852 573.8872 272.25722 580.11914 270.69922 C 586.61075 269.40091 592.19325 268.75195 596.86719 268.75195 C 610.28503 268.75195 626.02011 285.11133 643.21875 285.11133 L 643.21875 273.81641 C 621.16216 273.81641 609.3718 256.28906 596.08789 256.28906 C 587.46669 256.28906 575.3475 258.48183 570.77148 269.92188 C 568.95382 274.8555 568.04492 282.38481 568.04492 292.51172 C 568.04492 306.53358 570.1227 316.27165 574.27734 321.72461 C 581.28827 326.39857 584.79297 330.03228 584.79297 332.62891 C 573.62741 332.10958 568.04492 334.96727 568.04492 341.19922 C 567.29594 342.07304 566.51798 342.52685 565.70898 342.56055 C 564.89998 342.52685 564.12203 342.07304 563.37305 341.19922 C 563.37305 334.96727 557.79056 332.10958 546.625 332.62891 C 546.625 330.03228 550.12969 326.39857 557.14062 321.72461 C 561.29526 316.27165 563.37305 306.53358 563.37305 292.51172 C 563.37305 282.38481 562.46414 274.8555 560.64648 269.92188 C 556.07046 258.48183 543.95128 256.28906 535.33008 256.28906 z M 533.77148 278.09961 C 527.53955 278.09961 522.21701 279.78842 517.80273 283.16406 C 512.86911 286.53969 503.00009 288.48653 488.19922 289.00586 L 488.19922 296.79688 C 494.95049 295.49856 502.61077 294.58964 511.17969 294.07031 C 522.02175 301.5145 535.70618 299.91211 548.18164 299.91211 L 549.74023 296.01758 C 547.66293 284.07303 542.34041 278.09961 533.77148 278.09961 z M 597.64648 278.09961 C 589.07755 278.09961 583.75503 284.07303 581.67773 296.01758 L 583.23633 299.91211 C 595.71179 299.91211 609.39622 301.5145 620.23828 294.07031 C 628.8072 294.58964 636.46748 295.49856 643.21875 296.79688 L 643.21875 289.00586 C 628.41788 288.48653 618.54885 286.53969 613.61523 283.16406 C 609.20095 279.78842 603.87841 278.09961 597.64648 278.09961 z M 179.24609 331.79102 C 174.72631 341.58385 177.05556 353.59496 185.3418 367.1543 L 189 363.49609 C 184.48022 350.69004 185.41309 342.40844 191.43945 337.88867 L 202.41406 353.74023 L 209.73047 353.74023 C 209.73047 347.71385 206.28884 341.76344 198.75586 334.23047 L 201.19336 334.23047 C 211.7395 343.27002 217.04492 352.48256 217.04492 362.27539 C 206.49876 375.08142 196.35534 379.45592 186.5625 375.68945 C 176.76964 371.92294 171.46421 362.24305 170.71094 346.42383 C 170.71094 337.38427 173.21971 332.54429 179.24609 331.79102 z M 219.48438 334.23047 C 295.56726 351.55628 357.36852 388.87378 404.82617 447.63086 C 376.20092 440.09789 345.85552 435.72531 314.59375 434.21875 C 283.33194 432.71216 250.10114 466.96465 215.82617 536.64453 C 181.5512 606.32439 196.91321 665.24028 260.94336 713.45117 L 256.06445 730.52148 C 226.68593 749.35389 202.95548 757.45596 184.12305 753.68945 C 192.40933 725.06422 187.56935 690.3463 169.49023 650.04492 C 151.41114 609.7436 142.19862 575.95653 141.44531 548.83789 C 197.18922 508.9132 222.31797 453.9933 217.04492 385.44336 C 225.33116 382.43014 230.63661 376.10308 232.89648 365.93359 C 235.15639 355.76407 230.7838 345.5299 219.48438 334.23047 z M 159.73633 337.88867 C 159.73633 350.6947 162.1563 363.63669 167.05273 375.68945 C 171.94915 387.74221 180.78501 391.64933 195.09766 387.88281 C 198.86413 447.39321 177.92836 491.87992 130.4707 522.01172 C 120.67786 503.93267 109.69037 495.18555 98.767578 495.18555 C 87.844785 495.18555 78.543467 500.02554 69.503906 509.81836 C 64.23085 504.54531 61.434222 499.70531 62.1875 495.18555 C 68.967182 487.65255 76.315913 484.21094 85.355469 484.21094 L 85.355469 467.14062 C 79.3291 467.14062 69.00416 469.64942 52.431641 475.67578 L 40.238281 457.38672 L 56.089844 440.31445 L 56.089844 434.21875 L 31.703125 440.31445 L 78.039062 395.19922 C 80.298967 399.719 84.671513 401.29492 91.451172 401.29492 L 85.355469 424.46289 L 91.451172 464.70117 L 91.451172 484.21094 L 103.64453 484.21094 L 103.64453 464.70117 L 97.548828 423.24414 C 98.302135 408.17822 110.02344 394.77074 134.12891 384.22461 L 134.12891 378.12695 C 117.5564 375.11375 103.50391 374.64831 91.451172 376.9082 C 106.5171 364.10217 129.60449 350.6947 159.73633 337.88867 z M 557.60352 355.09961 C 556.77584 355.11581 555.97235 355.28478 555.19336 355.60938 C 552.07738 357.16735 547.14384 357.94727 540.39258 357.94727 C 537.53627 357.94727 536.10742 359.37612 536.10742 362.23242 C 536.10742 367.42571 538.18522 370.02148 542.33984 370.02148 C 550.6491 378.33075 558.43839 382.48633 565.70898 382.48633 C 572.97957 382.48633 580.76887 378.33075 589.07812 370.02148 C 593.23274 370.02148 595.31055 367.42571 595.31055 362.23242 C 595.31055 359.37612 593.8817 357.94727 591.02539 357.94727 C 584.27413 357.94727 579.34059 357.16735 576.22461 355.60938 C 575.44562 355.28478 574.64213 355.11581 573.81445 355.09961 C 571.33142 355.05092 568.6302 356.38876 565.70898 359.11523 C 562.78776 356.38876 560.08655 355.05092 557.60352 355.09961 z M 547.4043 363.78906 C 557.53121 366.12603 563.63168 367.29492 565.70898 367.29492 C 567.78628 367.29492 573.88676 366.12603 584.01367 363.78906 C 577.2624 369.50169 571.16192 372.35937 565.70898 372.35938 C 560.25604 372.35937 554.15557 369.50169 547.4043 363.78906 z M 321.91016 461.04297 C 343.37911 461.04297 379.6749 468.21412 431.65234 481.77344 C 483.62975 495.33277 536.68588 500.1708 590.16992 496.4043 C 726.51649 496.4043 800.88309 499.20092 813.3125 503.7207 C 825.74181 508.24048 831.51278 513.08042 830.38281 518.35352 C 829.25286 523.62657 834.64713 531.90822 847.45312 543.96094 C 870.80531 565.80653 884.85776 610.11366 890.13086 675.65039 C 895.40395 741.18716 912.80926 782.41172 942.56445 801.24414 C 972.31963 820.07656 987.67969 845.20723 987.67969 876.8457 L 987.67969 954.88281 C 985.41976 973.71524 971.54686 984.14844 947.44141 984.14844 C 953.46778 978.87534 957.19531 973.28212 957.19531 969.51562 C 957.19531 965.74911 954.30989 965.66032 948.66016 968.29688 C 943.01042 970.93336 938.72659 976.61541 936.4668 984.14844 L 932.80859 984.14844 C 932.80859 971.34238 937.18115 961.84204 946.2207 957.32227 C 962.03994 958.07554 971.89941 952.30467 977.92578 940.25195 L 977.92578 898.79297 C 977.92578 867.90783 965.3604 846.12994 940.125 832.94727 C 914.88958 819.76458 888.27169 801.51911 859.64648 779.29688 C 831.0212 757.07465 804.49418 730.45676 780.38867 698.81836 C 765.32277 669.43975 746.43222 656.7857 723.08008 659.79883 C 607.07248 684.6576 533.54797 696.38086 501.15625 696.38086 C 468.76453 696.38086 433.66796 690.14262 397.50977 678.08984 C 397.50977 651.72454 385.50063 633.76489 362.14844 623.21875 C 346.32926 620.20551 341.49121 624.57807 347.51758 636.63086 C 369.36316 647.17699 378.86352 670.72979 374.34375 706.13477 C 405.22887 816.86922 422.72107 874.47754 427.99414 880.50391 C 420.46116 881.25718 415.62119 889.82473 413.36133 904.89062 C 408.8416 955.36145 401.02736 980.49023 388.97461 980.49023 L 367.02734 980.49023 L 378 967.07812 L 375.5625 958.54102 C 363.50977 960.80089 357.27148 968.43756 357.27148 980.49023 L 346.29688 980.49023 C 341.02382 969.94409 344.28784 961.84204 354.83398 957.32227 L 348.73633 951.22656 L 385.31641 951.22656 C 389.8362 933.90074 392.63281 912.67714 392.63281 887.81836 C 392.63281 879.53208 376.89615 845.74707 347.51758 786.61328 C 318.13906 727.47961 297.84831 699.46338 286.54883 702.47656 C 225.53189 655.77219 211.39055 603.27232 242.65234 546.39844 C 273.91413 489.52459 300.44123 461.04297 321.91016 461.04297 z M 723.93164 687.54297 C 729.80623 687.6449 736.09075 688.95955 742.58789 691.50195 C 759.16039 714.10081 769.77319 728.61881 774.29297 735.39844 C 736.6282 770.80335 716.98242 815.29204 716.98242 869.5293 C 687.60387 895.14141 656.52463 932.27932 621.87305 980.49023 L 581.63281 980.49023 L 592.60742 969.51562 L 592.60742 967.07812 L 587.73047 963.41992 L 584.07227 963.41992 C 574.27945 967.93964 569.43945 973.7106 569.43945 980.49023 L 562.12305 980.49023 C 562.12305 973.7106 565.56468 965.60856 573.09766 957.32227 L 570.66016 952.44531 L 585.29102 953.66406 L 593.82812 953.66406 C 608.894 953.66406 626.2974 940.81281 646.25977 917.08398 C 666.22215 893.35517 676.92178 873.90844 679.18164 857.33594 C 679.18164 760.91408 685.04331 706.92699 697.47266 696.38086 C 703.6874 691.10775 710.76233 688.78538 718.20117 687.84375 C 720.06086 687.60835 721.97344 687.50899 723.93164 687.54297 z M 245.0918 759.78711 C 199.89407 832.10351 174.76333 880.96276 169.49023 907.32812 C 143.12488 911.84789 114.73399 938.19739 85.355469 984.14844 L 57.310547 984.14844 L 57.310547 975.61328 L 70.722656 971.95508 L 70.722656 963.41992 C 60.929816 963.41992 54.046499 970.58912 48.773438 984.14844 L 34.142578 984.14844 C 37.155764 971.34238 41.993756 961.197 48.773438 953.66406 L 78.039062 958.54102 L 87.792969 950.00586 C 121.69127 901.04163 153.05835 843.61289 181.68359 778.07617 C 202.0226 781.08934 223.24625 774.85302 245.0918 759.78711 z M 1202.2168 882.75781 C 1202.661 882.78303 1203.091 882.8443 1203.5059 882.94141 C 1205.7187 883.45926 1208.2853 885.37013 1209.6035 887.81836 C 1214.8766 897.61117 1201.9346 903.38403 1171.8027 904.89062 C 1185.574 890.06011 1195.5532 882.37961 1202.2168 882.75781 z M 342.63867 951.22656 L 331.66602 980.49023 L 325.56836 980.49023 C 327.07495 961.65787 332.84584 951.97983 342.63867 951.22656 z M 563.34375 951.22656 C 556.56408 960.26605 553.58789 969.94409 553.58789 980.49023 L 547.49219 980.49023 C 547.49219 966.93098 552.0443 957.25292 563.34375 951.22656 z M 39.019531 952.44531 L 23.167969 981.70898 C 24.674562 962.87656 29.979999 953.19857 39.019531 952.44531 z M 919.39648 968.29688 L 923.05469 968.29688 L 923.05469 969.51562 L 920.61523 971.95508 L 920.61523 984.14844 L 916.95703 984.14844 L 915.73828 978.05078 L 919.39648 968.29688 z " />
</svg>
