<?xml version="1.0" encoding="UTF-8" standalone="no"?>
<svg
   width="1000"
   height="1000"
   version="1.1"
   id="svg1"
   sodipodi:docname="13AF7.svg"
   inkscape:version="1.4.2 (f4327f4, 2025-05-13)"
   xmlns:inkscape="http://www.inkscape.org/namespaces/inkscape"
   xmlns:sodipodi="http://sodipodi.sourceforge.net/DTD/sodipodi-0.dtd"
   xmlns="http://www.w3.org/2000/svg"
   xmlns:svg="http://www.w3.org/2000/svg">
  <defs
     id="defs1" />
  <sodipodi:namedview
     id="namedview1"
     pagecolor="#ffffff"
     bordercolor="#666666"
     borderopacity="1.0"
     inkscape:showpageshadow="2"
     inkscape:pageopacity="0.0"
     inkscape:pagecheckerboard="0"
     inkscape:deskcolor="#d1d1d1"
     inkscape:zoom="0.3775"
     inkscape:cx="552.31788"
     inkscape:cy="592.05298"
     inkscape:window-width="1680"
     inkscape:window-height="998"
     inkscape:window-x="-8"
     inkscape:window-y="-8"
     inkscape:window-maximized="1"
     inkscape:current-layer="svg1"
     showguides="true">
    <sodipodi:guide
       position="329.21814,151.23452"
       orientation="0.68826025,-0.72546387"
       id="guide1"
       inkscape:locked="false"
       inkscape:label=""
       inkscape:color="rgb(0,134,229)" />
  </sodipodi:namedview>
  <path
     id="path1"
     style="fill:#000000;stroke:none;stroke-width:0.999998"
     d="M 615.36133 0.49023438 A 15 15 0 0 0 602.49414 8.1992188 A 15 15 0 0 0 608.31445 28.599609 C 637.18991 44.655069 653.0462 60.686973 663.21289 84.648438 C 672.1794 105.78125 676.35399 134.2038 677.21484 173.95312 L 592.5918 81.480469 L 558.64258 81.480469 L 558.64258 710.90625 L 223.48633 710.90625 C 227.70953 710.18358 232.60176 708.98339 238.16797 707.30469 C 259.77292 700.78894 293.20906 700.104 338.47656 705.24805 C 383.74405 710.39177 426.09757 711.24763 465.53516 707.81836 C 504.97275 704.38901 528.46327 692.55739 536.00781 672.32422 C 543.55238 652.09101 544.06654 634.6017 537.55078 619.85547 C 531.03502 605.10925 523.31866 592.59276 514.40234 582.30469 C 505.48602 572.01662 504.11623 556.75668 510.28906 536.52344 C 516.46193 516.29027 518.86201 465.53551 517.49023 384.25977 C 516.11848 302.98406 508.40217 242.62704 494.3418 203.18945 C 480.28147 163.75186 470.50842 125.51359 465.02148 88.476562 C 455.41927 37.722124 424.55395 8.9153634 372.42773 2.0566406 C 355.28094 -0.6868484 339.50678 0.17074582 325.10352 4.6289062 C 310.70022 9.087067 295.95243 18.518576 280.86328 32.921875 C 274.00455 26.749043 264.74575 28.120788 253.08594 37.037109 L 247.94336 69.958984 L 187.24219 109.05273 C 181.06936 115.22556 182.4411 120.3711 191.35742 124.48633 C 192.72917 131.34502 196.50295 140.26039 202.67578 151.23438 L 205.76172 151.23438 C 205.76172 162.89418 212.27704 173.52477 225.30859 183.12695 L 294.23828 183.12695 C 307.95569 198.90199 319.27313 212.96292 328.18945 225.30859 C 313.78615 245.88472 302.46871 277.09153 294.23828 318.92969 C 218.79244 326.47426 171.98221 334.70477 153.80664 343.62109 C 135.63107 352.53741 122.42774 357.3395 114.19727 358.02539 C 105.9668 358.71124 98.423139 368.3135 91.564453 386.83203 C 82.648132 410.8375 78.703641 425.92678 79.732422 432.09961 C 80.761239 438.27248 85.04722 442.38771 92.591797 444.44531 C 100.13638 446.50291 107.33855 447.53125 114.19727 447.53125 C 120.39731 447.53125 123.65552 444.44801 123.9707 438.2832 C 128.76872 481.60424 134.42787 550.53148 140.94727 645.0625 C 132.7168 664.26696 118.14171 675.24093 97.222656 677.98438 C 76.303598 680.72789 61.385071 682.78454 52.46875 684.15625 C 35.321961 684.8421 26.406556 692.72921 25.720703 707.81836 L 169.75391 707.81836 C 182.09958 707.81836 187.92804 703.0182 187.24219 693.41602 L 185.18555 663.58008 C 185.18555 649.86263 187.24219 624.82769 191.35742 588.47656 C 195.47265 552.12538 197.53125 521.94883 197.53125 497.94336 C 204.38998 528.80752 221.0217 563.09935 247.42773 600.82227 C 273.83377 638.54519 293.89587 662.89518 307.61328 673.86914 C 288.40889 673.18325 265.94674 676.26823 240.22656 683.12695 C 214.50641 689.98564 202.33139 697.36051 203.70312 705.24805 C 204.18715 708.03126 205.93223 709.91643 208.93555 710.90625 L 0 710.90625 C 35.665285 802.1271 91.049437 872.59856 166.15234 922.32422 C 241.25521 972.04987 335.73339 997.94241 449.58789 1000 C 566.18596 997.94241 661.3509 972.22257 735.08203 922.83984 C 808.81316 873.45715 863.85391 802.81299 900.20508 710.90625 L 823.04492 710.90625 L 822.01562 81.480469 L 787.03711 81.480469 L 707.22656 173.43555 C 706.39801 131.78245 702.1955 99.716412 690.83008 72.929688 C 677.95661 42.588714 655.42255 20.466365 622.89258 2.3789062 A 15 15 0 0 0 615.36133 0.49023438 z M 353.70117 23.871094 C 356.75544 23.988977 359.91008 24.262738 363.16797 24.691406 C 388.54519 28.120785 407.23554 37.03619 419.23828 51.439453 C 431.24105 65.842752 435.18554 87.790755 431.07031 117.2832 C 424.89748 157.06372 401.92115 174.21156 362.14062 168.72461 C 334.70578 164.60938 322.70151 149.86355 326.13086 124.48633 C 328.87435 106.65365 342.59183 87.105735 367.2832 65.84375 L 369.3418 54.527344 C 332.99063 55.213198 311.38606 51.782858 304.52734 44.238281 C 315.92995 29.834995 332.32128 23.045914 353.70117 23.871094 z M 270.57617 51.439453 L 282.92188 53.498047 C 302.12628 67.901346 322.01567 73.388327 342.5918 69.958984 C 326.13087 87.791626 316.52861 105.62439 313.78516 123.45703 C 307.61229 157.75057 322.36007 177.63997 358.02539 183.12695 C 406.72223 189.98567 435.52899 168.38109 444.44531 118.3125 L 445.47266 98.765625 C 450.27379 133.05916 457.81935 165.98116 468.10742 197.53125 C 449.58889 189.98668 428.83997 186.55634 405.86328 187.24219 C 382.88662 187.92804 361.79619 194.44532 342.5918 206.79102 C 332.30373 193.75947 322.70148 181.75517 313.78516 170.78125 C 273.31875 168.03776 246.57061 166.32456 233.53906 165.63867 C 226.68037 163.58107 223.59345 158.43555 224.2793 150.20508 C 237.99671 150.89097 252.74253 150.54948 268.51758 149.17773 C 274.69041 151.92122 278.63494 152.60611 280.34961 151.23438 C 282.06428 149.86263 282.40769 147.11914 281.37891 143.00391 C 280.35009 138.88868 275.37726 137.86034 266.46094 139.91797 C 236.28263 142.66142 218.27913 139.57452 212.44922 130.6582 C 206.61931 121.74188 206.44664 115.56998 211.93359 112.14062 C 245.54128 93.622104 263.71745 81.276348 266.46094 75.103516 C 269.20443 68.930684 270.57617 61.041665 270.57617 51.439453 z M 273.4375 86.628906 C 267.58618 86.489583 263.54549 90.878613 261.31641 99.794922 C 259.94467 106.65365 256.51628 111.45378 251.0293 114.19727 L 251.0293 117.2832 C 258.57388 115.2256 264.91845 112.99822 270.0625 110.59766 C 275.20651 108.19713 287.723 105.96779 307.61328 103.91016 L 307.61328 100.82227 C 293.20998 97.392877 283.26432 92.93616 277.77734 87.449219 C 276.23414 86.934815 274.78781 86.661058 273.4375 86.628906 z M 787.03711 132.91992 L 787.03711 710.90625 L 594.65039 710.90625 L 594.65039 137.03516 L 692.38672 241.97461 L 787.03711 132.91992 z M 422.28906 208.57617 C 439.7494 209.22864 453.99393 214.8062 465.02148 225.30859 C 479.42474 239.02604 487.4826 278.97751 489.19727 345.16406 C 490.91198 411.35061 490.39779 466.39331 487.6543 510.28906 C 454.73247 516.46193 419.58112 511.3164 382.20117 494.85547 C 344.82118 478.39457 325.27522 462.96385 323.56055 448.56055 C 321.84588 434.15726 321.32979 400.205 322.01562 346.70703 C 322.01562 302.12542 329.5612 268.86193 344.65039 246.91406 C 359.73954 224.96618 379.97239 212.44774 405.34961 209.36133 C 408.52176 208.97553 411.60868 208.7209 414.60938 208.59766 C 417.23496 208.48982 419.79473 208.48297 422.28906 208.57617 z M 221.19336 369.3418 L 294.23828 373.45703 L 294.23828 418.72461 C 261.31645 395.40502 236.96837 378.94401 221.19336 369.3418 z M 182.09961 371.39844 C 197.87462 371.39844 231.82496 399.86375 283.95117 456.79102 C 336.07739 513.71833 401.57819 540.8099 480.45312 538.06641 C 475.65204 608.02527 459.87591 643.00391 433.12695 643.00391 C 383.74422 645.7474 355.96775 657.7497 349.79492 679.01172 C 324.41771 658.43555 299.89693 628.60053 276.23438 589.50586 C 252.5718 550.41123 233.36732 517.14774 218.62109 489.71289 C 203.87486 462.27807 186.8997 448.902 167.69531 449.58789 C 173.86833 501.71407 173.6974 535.6644 167.18164 551.43945 C 160.66584 567.21446 156.72132 556.92734 155.34961 520.57617 C 153.97786 484.22503 150.20607 447.87461 144.0332 411.52344 C 136.48863 384.77447 149.17778 371.39844 182.09961 371.39844 z M 504.56836 622.41992 C 506.6084 622.41993 509.37106 624.99513 512.85938 630.14453 C 520.06101 640.77552 519.54688 652.09105 511.31641 664.09375 C 503.08594 676.09652 486.62492 684.15625 461.93359 688.27148 C 486.62492 661.52248 499.48486 642.49068 500.51367 631.17383 C 501.04416 625.33856 502.39671 622.41992 504.56836 622.41992 z M 69.958984 745.88477 L 443.07422 745.88477 L 329.21875 848.76562 L 449.58789 962.96289 L 569.95898 848.76562 L 456.10352 745.88477 L 842.5918 745.88477 C 802.81128 814.47189 747.25639 867.97014 675.92578 906.37891 C 604.59517 944.78764 529.14889 963.99219 449.58789 963.99219 C 372.08442 963.99219 297.15431 944.78764 224.79492 906.37891 C 152.43553 867.97014 100.82318 814.47189 69.958984 745.88477 z M 449.58789 767.72852 L 540.12305 848.76562 L 449.58789 934.15625 L 358.02539 848.76562 L 449.58789 767.72852 z " />
</svg>
