<?xml version="1.0" encoding="UTF-8" standalone="no"?>
<svg
   width="1200"
   height="1000"
   version="1.1"
   id="svg1"
   sodipodi:docname="13B66.svg"
   inkscape:version="1.4.2 (f4327f4, 2025-05-13)"
   xmlns:inkscape="http://www.inkscape.org/namespaces/inkscape"
   xmlns:sodipodi="http://sodipodi.sourceforge.net/DTD/sodipodi-0.dtd"
   xmlns="http://www.w3.org/2000/svg"
   xmlns:svg="http://www.w3.org/2000/svg">
  <defs
     id="defs1" />
  <sodipodi:namedview
     id="namedview1"
     pagecolor="#ffffff"
     bordercolor="#666666"
     borderopacity="1.0"
     inkscape:showpageshadow="2"
     inkscape:pageopacity="0.0"
     inkscape:pagecheckerboard="0"
     inkscape:deskcolor="#d1d1d1"
     inkscape:zoom="1"
     inkscape:cx="773.5"
     inkscape:cy="370.5"
     inkscape:window-width="1680"
     inkscape:window-height="998"
     inkscape:window-x="-8"
     inkscape:window-y="-8"
     inkscape:window-maximized="1"
     inkscape:current-layer="svg1"
     showguides="true">
    <sodipodi:guide
       position="498.56227,971.80533"
       orientation="0,-1"
       id="guide2"
       inkscape:locked="false" />
    <sodipodi:guide
       position="874.32383,976.80733"
       orientation="0,-1"
       id="guide3"
       inkscape:locked="false" />
    <sodipodi:guide
       position="536.69405,986.91852"
       orientation="0,-1"
       id="guide4"
       inkscape:locked="false" />
  </sodipodi:namedview>
  <path
     style="fill:#000000;stroke:none;stroke-width:1"
     d="M 15.582031,0 C 2.1389967,0 -2.606158,11.466179 1.3476562,34.398438 32.187617,81.84447 83.192293,96.472785 154.36133,78.285156 c 40.32915,18.978405 72.55345,24.515084 96.67187,16.607422 18.77661,-6.156294 39.88627,-0.571314 65.43555,2.205078 -3.3922,4.237824 -6.4231,9.829754 -9.09375,16.773434 -31.63074,10.28 -48.63165,23.72202 -51.00391,40.32813 -20.55996,3.95381 -47.4479,20.95668 -80.66015,51.00586 -12.65226,6.32615 -22.93219,12.05924 -30.83985,17.19922 -7.90771,5.13997 -9.48876,20.75623 -4.74414,46.85156 -1.58155,11.86149 0.39627,25.30549 5.93164,40.33008 12.65229,11.07075 21.74587,16.60547 27.28125,16.60547 l -15.41992,55.75 h 67.60938 v -54.56446 l 23.72461,5.93164 c 3.95385,11.86154 11.46638,17.79297 22.53711,17.79297 7.11689,4.7446 12.25684,4.34787 15.41992,-1.1875 18.18767,-2.37234 46.25995,7.71114 84.21679,30.24805 37.95682,22.53687 50.01422,58.51647 36.17579,107.93945 -13.83842,49.42293 -18.97838,99.24134 -15.41993,149.45508 3.55843,50.21373 33.01541,93.5075 88.36914,129.88281 -154.19966,57.72598 -243.55653,94.49715 -268.07031,110.3125 -35.58455,12.65231 -50.60959,35.97943 -45.07422,69.98243 2.37233,31.63076 13.24551,48.43507 32.61914,50.4121 19.37379,1.97732 45.6667,2.37202 78.87891,1.18555 33.21227,-1.18639 108.53395,-2.96566 225.96289,-5.33789 117.42893,-2.3725 212.5189,-0.79123 285.26953,4.74414 -10.27998,-26.88609 -30.83974,-60.88794 -61.67969,-102.00781 -18.18768,-0.79076 -34.00419,11.86175 -47.44726,37.95703 -10.27997,-31.63071 -24.11877,-37.95697 -41.51563,-18.97852 -52.98143,18.97839 -124.34752,29.25799 -214.09961,30.83985 -89.75209,1.58158 -133.44259,-1.18579 -131.07031,-8.30274 -2.37229,-0.7907 32.42301,-4.74438 104.38281,-11.86132 71.95982,-7.1169 137.79116,-14.03628 197.49414,-20.75782 59.70299,-6.72148 105.36937,-18.38602 137,-34.99218 31.63072,-16.60611 44.47954,-36.3744 38.54883,-59.30665 -5.93078,-22.93222 -23.32644,-57.52917 -52.18945,-103.78906 -28.86296,-46.25988 -48.04008,-102.7993 -57.5293,-169.61914 -9.48923,-66.81984 5.93061,-115.05719 46.25977,-144.71094 40.32916,-29.6538 69.98255,-44.48046 88.96094,-44.48046 h 0.002 c 1.28813,0.96608 29.09057,13.86035 40.32812,-14.23438 L 860.12109,329.75 v 54.5625 h 66.42383 L 912.3125,328.56445 c 6.32619,0 15.81454,-5.53669 28.4668,-16.60742 4.74445,-15.0246 6.32598,-28.4666 4.74414,-40.32812 4.74477,-26.09529 3.16351,-41.7135 -4.74414,-46.85352 -7.9077,-5.13997 -18.18754,-10.87307 -30.83985,-17.19922 -33.21216,-30.83993 -60.09824,-48.23559 -80.6582,-52.18945 -2.37233,-15.81533 -18.97842,-28.86457 -49.81836,-39.14453 -3.583,-8.4689 -7.63602,-14.92537 -12.1582,-19.369143 22.48913,-5.251694 43.34661,-4.724718 62.57031,1.578125 24.1184,7.907668 62.42799,4.317778 96.66992,-22.94336 70.37834,18.978405 121.38298,9.895256 153.01368,-37.550781 3.9538,-23.723035 -1.1861,-35.5839841 -15.4199,-35.5839841 -7.9077,0 -14.4305,3.5569032 -19.5703,10.6738281 -5.1401,7.116889 -15.0251,11.862041 -29.6543,14.234375 -14.6292,2.372295 -31.03696,-1.382968 -49.22465,-11.267578 C 947.50177,6.129098 907.83746,6.87125e-4 874.32422,23.193359 849.99357,4.2149165 820.36118,10.759665 796.40039,28.195312 748.95434,4.9671812 713.90653,10.791859 689.31445,42.970703 670.80589,9.4882499 625.11934,6.4960836 575.17969,28.195312 c -27.31603,-21.035073 -52.50511,-20.1071326 -76.61719,0 -39.66655,-19.610903 -73.58796,-15.172927 -98.54102,6.957032 -2.70703,2.400771 -5.30895,5.011253 -7.80078,7.820312 -3.37007,-3.617491 -6.97325,-6.7607 -10.80859,-9.455078 -21.69484,-15.240926 -50.81922,-16.149211 -87.21875,-7.664062 -3.06699,0.714949 -6.18528,1.496411 -9.35547,2.341796 -1.60915,-1.269165 -3.20569,-2.464778 -4.78906,-3.585937 C 257.11508,8.3704158 236.77657,7.5468659 215.86914,18.96875 c -2.30659,1.260108 -4.62065,2.670681 -6.94531,4.224609 C 164.64083,10.541101 133.40637,2.5705054 115.21875,12.455078 97.031074,22.339689 80.621386,26.293349 65.992188,24.316406 51.362986,22.339498 41.479825,17.792706 36.339844,10.675781 31.199864,3.5588929 24.280476,0 15.582031,0 Z M 542.14648,85.082031 c 21.85165,0.356302 43.97307,4.146031 66.36329,11.369141 -0.4237,0.682927 -0.77198,1.351371 -1.03907,2 -18.18768,3.163068 -27.28125,12.256698 -27.28125,27.281248 -12.65203,4.74463 -18.18678,14.62975 -16.60547,29.6543 -13.44305,52.98145 -26.88704,52.18991 -40.33007,-2.37305 0.79077,-15.02459 -5.14067,-24.9097 -17.79297,-29.65429 0,-15.0246 -9.09359,-24.118161 -27.28125,-27.281255 -0.24886,-0.604367 -0.50807,-1.193223 -0.7793,-1.765625 21.31307,-6.510505 42.89445,-9.586771 64.74609,-9.230469 z m -146.10156,8.591797 c 4.4944,0.04634 9.33599,3.220048 14.52539,9.521482 11.07075,-12.65229 20.9539,-10.676429 29.65235,5.92969 16.60615,-9.489191 24.11866,-5.1388 22.53711,13.04883 19.76918,-5.53537 26.88693,1.18561 21.35156,20.16406 17.39689,0 22.14203,7.11774 14.23437,21.35156 14.23377,5.53537 17.39591,13.83747 9.48828,24.90821 7.11689,7.11689 5.93063,15.81571 -3.55859,26.0957 7.11693,11.07071 5.14105,19.76952 -5.92969,26.0957 6.32614,11.86149 3.95359,19.37404 -7.11718,22.53711 2.37232,12.65226 -2.76763,19.37325 -15.41993,20.16406 -1.58156,10.27996 -7.11824,15.02516 -16.60742,14.23438 -5.53538,9.48922 -14.62895,11.86178 -27.28125,7.11719 -25.30455,6.32611 -51.59744,7.90722 -78.8789,4.74414 -27.28146,-3.16303 -45.27031,-5.53564 -53.96875,-7.11719 -11.07079,1.58155 -18.5833,4.94205 -22.53711,10.08203 -3.95386,5.13998 -5.14017,11.26788 -3.5586,18.38477 l -4.74414,2.37304 c -11.80798,-28.07116 14.16777,-47.64356 27.28119,-47.4455 85.40778,1.28996 135.22127,-5.53623 149.45508,-21.35156 14.23382,-15.81534 21.34961,-33.21297 21.34961,-52.19141 22.57787,-11.97273 26.17309,-17.3628 40.33018,-39.14266 l -40.33008,-1.18554 c -14.23382,-16.60616 -31.62952,-24.91016 -52.18945,-24.91016 -18.18766,0 -35.58527,11.07137 -52.19141,33.21289 0,-26.88611 -12.65251,-43.88701 -37.95703,-51.0039 3.16308,-15.02459 12.2567,-18.97821 27.28125,-11.86133 6.32614,-16.6061 16.60603,-20.559771 30.83984,-11.86133 4.20095,-7.981813 8.84971,-11.94705 13.94336,-11.894532 z m 293.82227,2.371094 c 5.29057,-0.05251 10.24613,3.912723 14.86719,11.894528 13.44299,-8.698436 23.32816,-5.13956 29.65429,10.67578 15.02459,-6.32615 23.72348,-2.37248 26.09571,11.86133 -24.51383,7.90771 -36.77149,24.90861 -36.77149,51.00391 -40.82324,-55.11133 -87.44198,-27.12371 -104.38086,-8.30274 l -39.14258,2.37305 c 11.39414,24.27044 18.77076,26.4071 39.14258,39.14263 0,18.97841 7.11773,36.17773 21.35156,51.59766 14.23384,15.41999 64.05057,22.53287 149.45508,21.94336 18.01927,-0.12438 39.27437,15.79539 28.46632,46.25971 l -5.92969,-1.18555 c 2.37221,-7.1169 1.58102,-13.44315 -2.37305,-18.97851 -3.95379,-5.53537 -11.46635,-8.69752 -22.53711,-9.48828 -9.48919,0.79074 -27.87482,2.96498 -55.15624,6.52343 -27.28149,3.55842 -53.17766,2.17377 -77.69141,-4.15234 -12.65232,3.95386 -21.74783,1.58125 -27.2832,-7.11719 -10.27998,0.79074 -16.20972,-4.34918 -17.79102,-15.41992 -12.65231,0 -17.79213,-6.32621 -15.41992,-18.97851 -11.07096,-3.16307 -13.44331,-10.67562 -7.11719,-22.53711 -11.07062,-6.32614 -13.04858,-15.02301 -5.93164,-26.09375 -8.69851,-10.27996 -9.88472,-18.97879 -3.55859,-26.09571 -7.90764,-11.86152 -4.74359,-20.16555 9.49023,-24.91015 -7.90769,-15.02459 -3.1625,-22.53711 14.23438,-22.53711 -5.53538,-18.18762 1.58042,-24.51389 21.3496,-18.97852 -0.79075,-18.18766 6.72175,-22.93087 22.53711,-14.23242 9.48922,-15.815336 19.37432,-17.396394 29.6543,-4.74414 5.18941,-6.301422 10.11701,-9.47711 14.78516,-9.523438 z M 320.42188,139.96484 c 19.76915,7.11693 29.65429,24.11978 29.65429,51.00586 h 21.35156 c 18.97841,-20.55997 33.21196,-30.83984 42.70118,-30.83984 15.02455,0 26.49077,2.76737 34.39843,8.30273 -37.16603,-7.11689 -58.12255,1.18518 -62.86718,24.90821 h -9.48828 v 10.67578 h 16.60546 c 6.32611,-16.60612 20.55966,-24.9082 42.70118,-24.9082 22.14148,0 40.72544,0.39476 55.75,1.18554 -4.7446,5.53537 -17.39709,15.22213 -37.95704,29.06055 -20.55993,13.83843 -40.33014,16.80415 -59.30859,8.89648 l -11.86133,1.18555 v 15.41992 h 13.04883 c 16.60611,5.53538 34.79331,3.16277 54.5625,-7.11719 -4.74459,26.88608 -31.03749,40.33008 -78.87891,40.33008 -47.84143,0 -79.67096,4.15202 -95.48632,12.45508 -15.81534,8.30306 -23.72266,19.17607 -23.72266,32.61914 v 1.18555 c -17.39689,-4.7446 -33.60627,-4.54623 -48.63086,0.59375 -15.02459,5.13997 -25.70123,1.38277 -32.02734,-11.26953 16.6061,-1.58151 33.21225,-4.94205 49.81836,-10.08203 16.60611,-5.13999 23.72386,-11.07143 21.35156,-17.79297 -2.37233,-6.72154 -11.2695,-5.33688 -26.68945,4.15234 -15.41994,9.48922 -32.61922,13.83766 -51.59766,13.04688 -6.69988,-1.33994 -13.039,-25.50441 4.74609,-30.83985 l 17.79102,-8.30273 c 7.90767,6.32615 13.04762,6.72288 15.41992,1.1875 5.28914,-12.34138 -6.10378,-22.63956 -13.04687,-21.94532 -3.95381,0.3954 -7.51271,3.7559 -10.67579,10.08204 l -16.60546,8.30468 -3.5586,-9.49023 39.14258,-24.9082 c 22.14148,-19.76918 47.84121,-35.58575 77.09961,-47.44727 0,-11.07074 15.4198,-20.95585 46.25977,-29.6543 z m 444.80664,2.37305 c 30.83994,8.69841 46.25976,18.58351 46.25976,29.6543 29.25838,11.07073 54.95813,26.49057 77.09961,46.25976 l 39.14453,24.90821 -2.37304,10.67578 -16.60547,-9.48828 c -3.9538,-5.53536 -7.90725,-8.50103 -11.86133,-8.89649 -6.46469,-0.64649 -18.46165,7.8171 -13.04883,21.34961 2.37228,5.93072 7.51227,5.73431 15.41992,-0.5918 l 18.97852,7.11719 c 16.01929,7.1195 10.26155,29.34438 3.55859,32.02539 -18.97845,0.79077 -36.17764,-3.55765 -51.59766,-13.04687 -15.41993,-9.48917 -24.31527,-10.87388 -26.6875,-4.15235 -2.37229,6.7215 4.7435,12.4546 21.34961,17.19922 16.60616,4.74462 33.2122,8.3035 49.81836,10.67578 -6.32618,12.65226 -17.0008,16.40754 -32.02539,11.26758 -15.02454,-5.13997 -31.23594,-5.33639 -48.63281,-0.5918 v -2.37304 c 0,-13.44304 -7.90731,-24.11768 -23.72266,-32.02539 -15.81535,-7.90764 -47.64297,-12.05962 -95.48437,-12.45508 -47.84141,-0.3954 -74.13447,-13.641 -78.87891,-39.73633 19.7692,10.27998 37.95639,12.25779 54.5625,5.93164 h 14.23243 V 221.81055 L 691.6875,220.625 c -18.18768,7.90769 -37.56119,4.94199 -58.12109,-8.89648 -20.55996,-13.83842 -33.60721,-23.9219 -39.14258,-30.24805 15.02459,0 33.60655,-0.19634 55.74805,-0.5918 22.14148,-0.39535 36.37504,8.10511 42.70117,25.50195 h 17.79297 v -10.67578 h -9.48829 c -5.29954,-22.71238 -24.735,-31.29019 -58.30273,-25.73437 31.54149,-5.73646 45.77097,-8.44709 71.34961,23.36133 h 21.35156 c 0,-27.67688 9.88315,-44.6778 29.65235,-51.00391 z m -460.81836,23.68555 c -13.83843,0.12356 -22.73564,4.88111 -26.68946,14.27148 v 21.35156 c 11.65521,19.42533 46.39091,6.8426 58.1211,0 v -9.49023 h -5.92969 c -16.73689,-11.20801 -37.83599,-12.28349 -51.63672,4.07422 4.43692,-12.1677 23.23027,-17.87453 56.38086,-17.12109 v -8.30274 c -11.86151,-3.26191 -21.94304,-4.85734 -30.24609,-4.7832 z m 475.6582,1.74218 c -8.31833,-0.007 -18.11158,1.48639 -29.07227,4.22657 v 9.48828 c 33.02848,-0.75063 51.80407,4.91282 56.33008,16.98828 -14.19205,-16.18461 -34.77939,-15.19437 -51.58594,-3.93945 h -5.93164 v 8.30273 c 17.18326,11.45547 47.72462,16.78084 58.1211,1.18555 v -22.53711 c -4.23226,-9.52261 -13.99745,-13.70288 -27.86133,-13.71485 z m -299.51563,16.0879 c -37.95685,0.79078 -60.29608,2.17543 -67.01757,4.15234 -12.38283,3.64198 -19.38901,18.45335 -4.74414,29.65234 6.7215,5.13998 30.64179,-6.12783 71.76171,-33.80468 z m 125.73243,2.37304 c 40.32917,26.88611 64.05108,37.95555 71.16796,33.21094 16.29265,-10.86171 4.21885,-25.87493 -5.33789,-29.06055 -5.93078,-1.97692 -27.87324,-3.35963 -65.83007,-4.15039 z m -144.71094,2.3711 c -11.07074,7.90766 -21.54902,13.83916 -31.4336,17.79296 -21.55934,8.6238 -20.85521,-0.89318 -18.97851,-6.52343 1.18614,-3.55846 17.99063,-7.31571 50.41211,-11.26953 z m 162.5039,2.37304 c 32.42147,3.95384 49.22402,7.70905 50.41016,11.26758 3.69066,11.07233 -5.25222,10.85636 -18.38476,5.93164 -9.48882,-3.55831 -20.16449,-9.29209 -32.0254,-17.19922 z m -99.63867,27.28125 c 12.65226,18.9784 24.90997,19.37321 36.77149,1.18555 -2.37228,11.86151 0.39508,21.74659 8.30273,29.6543 -4.74461,15.81534 -0.79098,24.90895 11.86133,27.28125 -3.16309,15.81536 2.76837,24.1194 17.79297,24.91015 3.16309,14.23383 11.07041,19.76856 23.72265,16.60547 5.53538,12.65231 15.42046,15.02489 29.6543,7.11719 0,3.95385 15.02504,5.92969 45.07422,5.92969 19.7692,0 48.63106,-3.16217 86.58789,-9.48828 l 8.30274,2.37109 v 0.002 c -26.88608,1.58151 -63.8536,18.78079 -110.9043,51.59766 -47.05064,32.81683 -66.22776,85.40257 -57.5293,157.75781 8.69847,72.35522 28.46865,131.66199 59.3086,177.92188 30.83993,46.25988 46.25976,84.41376 46.25976,114.46289 0,30.04912 -160.52661,58.91299 -481.57812,86.58984 l -26.09375,-3.55859 c 52.19063,-26.09533 113.67162,-49.6208 184.44531,-70.57618 70.77367,-20.95528 119.60412,-37.36305 146.49023,-49.2246 l -4.74414,-28.46875 c -20.55997,0 -39.14389,-9.29001 -55.75,-27.87305 -27.97761,-31.3083 -39.95958,-100.48981 11.26953,-162.50391 22.5369,-27.2815 38.94465,-55.94694 49.22461,-85.99609 l -24.91015,-8.30274 c -9.48922,30.83993 -26.29173,54.95858 -50.41016,72.35547 -24.11838,17.39686 -38.55029,58.51646 -43.29492,123.35938 -12.65225,-51.3999 -8.89699,-115.05704 11.26758,-190.97071 20.16458,-75.91365 -27.47762,-128.89421 -142.92969,-158.94335 37.16612,5.53532 66.02797,8.30273 86.58789,8.30273 29.25841,0 43.88867,-2.37258 43.88867,-7.11719 14.23382,7.9077 24.11698,5.93189 29.65235,-5.92969 12.6523,2.37235 20.56158,-3.55915 23.72461,-17.79296 15.02463,-0.79077 20.95412,-8.69806 17.79101,-23.72266 12.6523,-3.16303 16.60596,-12.65339 11.86133,-28.46875 7.9077,-7.90766 10.67502,-17.39606 8.30273,-28.4668 z"
     id="path1"
     sodipodi:nodetypes="sccsccccscccccccccsssccccscccccccssssssssccccccccsccccsccscsscccccscsscsscsccssccccccccscccccccccccccscsccsscccsccccccscccccccssccccsccccccccccccsscccscccccscscccccssscscssscccssccccccccccccsscccssscscssscccccscsccccccccsccccccccscccccccccccssccsscccsccsscsccccccscccssssccsccssccscscscccccss" />
</svg>
