<?xml version="1.0" encoding="UTF-8" standalone="no"?>
<svg
   width="1000"
   height="1000"
   id="svg2440"
   sodipodi:version="0.32"
   inkscape:version="1.4.2 (f4327f4, 2025-05-13)"
   sodipodi:docname="13B65.svg"
   inkscape:output_extension="org.inkscape.output.svg.inkscape"
   version="1.1"
   xmlns:inkscape="http://www.inkscape.org/namespaces/inkscape"
   xmlns:sodipodi="http://sodipodi.sourceforge.net/DTD/sodipodi-0.dtd"
   xmlns="http://www.w3.org/2000/svg"
   xmlns:svg="http://www.w3.org/2000/svg"
   xmlns:rdf="http://www.w3.org/1999/02/22-rdf-syntax-ns#"
   xmlns:cc="http://creativecommons.org/ns#"
   xmlns:dc="http://purl.org/dc/elements/1.1/">
  <metadata
     id="metadata2447">
    <rdf:RDF>
      <cc:Work
         rdf:about="">
        <dc:format>image/svg+xml</dc:format>
        <dc:type
           rdf:resource="http://purl.org/dc/dcmitype/StillImage" />
      </cc:Work>
    </rdf:RDF>
  </metadata>
  <defs
     id="defs2445">
    <inkscape:perspective
       sodipodi:type="inkscape:persp3d"
       inkscape:vp_x="0 : 991.01121 : 1"
       inkscape:vp_y="0 : 1000 : 0"
       inkscape:vp_z="13.952616 : 991.01121 : 1"
       inkscape:persp3d-origin="6.9763079 : 988.01494 : 1"
       id="perspective2449" />
  </defs>
  <sodipodi:namedview
     inkscape:window-height="998"
     inkscape:window-width="1680"
     inkscape:pageshadow="2"
     inkscape:pageopacity="0.0"
     guidetolerance="10.0"
     gridtolerance="10.0"
     objecttolerance="10.0"
     borderopacity="1.0"
     bordercolor="#666666"
     pagecolor="#ffffff"
     id="base"
     showgrid="false"
     inkscape:showpageshadow="2"
     inkscape:pagecheckerboard="0"
     inkscape:deskcolor="#d1d1d1"
     inkscape:zoom="0.53386562"
     inkscape:cx="463.59981"
     inkscape:cy="486.07738"
     inkscape:window-x="-8"
     inkscape:window-y="-8"
     inkscape:window-maximized="1"
     inkscape:current-layer="svg2440" />
  <path
     id="path2442"
     style="fill:#000000;stroke:none;stroke-width:0.999996"
     d="M 622.26562 0 C 592.69904 0 574.84126 10.169907 568.69141 30.511719 C 562.54155 50.853529 560.17649 68.358414 561.5957 83.023438 C 553.79012 61.025899 543.62022 47.779277 531.08398 43.285156 C 518.54775 39.027568 505.41811 38.200875 491.69922 40.802734 C 477.74379 43.404593 466.62826 52.509936 458.34961 68.121094 C 450.54403 82.786118 450.54403 96.861388 458.34961 110.34375 C 333.18307 179.70499 264.01818 273.99046 250.85547 393.20312 C 248.7831 394.6115 246.75602 396.13692 244.77148 397.7793 C 197.9076 376.47751 164.74432 368.9466 144.7207 376.61523 C 124.69703 384.28384 106.61291 386.86867 90.849609 384.3125 C 75.086343 381.75629 64.105128 376.16251 58.140625 368.91992 C 52.176124 361.67728 44.425481 359.29886 35.052734 359.29883 C 17.159269 353.33437 11.991552 357.65002 19.660156 374.69141 C 53.742985 425.81559 109.51241 442.39058 187.05078 422.79297 C 231.35842 442.39058 266.88298 448.20206 292.87109 440.10742 C 318.85923 432.01272 335.22784 431.36701 342.89648 438.18359 C 313.07407 446.70427 298.64453 459.62265 298.64453 476.66406 C 273.93449 485.18474 241.85829 507.58651 204.36719 545.92969 C 189.88202 553.59832 178.90079 560.70321 171.6582 567.09375 C 164.41561 573.48429 165.06136 589.19382 173.58203 611.34766 C 172.72997 624.12873 176.38457 637.26677 183.20117 651.75195 C 197.68635 661.1247 207.16975 667.58385 213.98633 670.99219 C 218.24671 728.93296 233.52823 766.61633 258.23828 784.50977 L 271.70703 784.50977 L 271.70703 665.21875 L 294.79492 661.37109 C 290.5346 699.71425 291.82793 726.19675 298.64453 740.25586 C 305.46105 754.31499 312.56598 753.66927 319.80859 738.33203 C 327.05117 722.99481 327.69688 695.86661 321.73242 657.52344 L 344.82031 653.67578 C 344.82031 798.52768 386.37994 913.94093 469.88281 1000 L 564.16016 1000 L 564.16016 959.5957 C 542.85837 909.32363 541.56499 850.75157 560.31055 782.58594 C 579.0561 714.4203 654.20309 659.94235 785.42188 619.04297 L 785.42188 559.39844 C 719.81245 559.39844 671.14788 544.96699 639.19531 515.14453 C 607.24268 485.3221 573.00961 460.99844 537.22266 443.95703 C 552.55991 432.88012 574.72671 432.01274 600.71484 440.10742 C 626.70298 448.20204 660.30563 442.39058 704.61328 422.79297 C 782.15166 442.39058 837.92112 425.81559 872.00391 374.69141 C 877.11658 355.94586 873.87258 351.63023 858.53516 359.29883 C 849.16242 359.29883 840.98575 361.67726 835.44727 368.91992 C 829.90853 376.16251 818.92756 381.75629 802.73828 384.3125 C 786.54894 386.86865 768.8889 384.28374 748.86523 376.61523 C 730.97348 369.76305 703.62446 374.19159 666.39453 389.80078 C 676.24157 331.49859 675.48706 269.92217 664.13281 205.07422 C 680.21703 202.94543 692.28016 194.43087 700.32227 179.5293 C 708.12787 164.62775 709.54727 150.67141 704.58008 137.66211 C 699.6129 124.65282 692.04396 115.42853 681.87305 109.98828 C 671.70215 104.54802 658.81037 103.83637 643.19922 107.85742 C 666.14289 83.02149 675.72398 58.778269 671.93945 35.125 C 668.39146 11.708263 651.8322 0 622.26562 0 z M 616.58984 25.191406 C 633.14715 25.191407 642.72822 30.750152 645.33008 41.867188 C 647.93193 52.984225 642.96202 66.819661 630.42578 83.376953 C 617.88956 99.697705 607.95753 125.59821 600.625 161.07812 C 587.44942 255.25362 572.70948 332.98776 556.40625 394.27734 C 519.37928 378.1573 488.93829 373.83337 466.0332 382.38672 L 417.93359 380.46289 C 399.44456 375.16225 378.40428 376.64285 354.24219 386.13672 C 365.22373 345.07714 381.94899 308.84868 404.41992 277.45312 C 437.77104 230.85619 475.61573 192.41876 517.95508 162.14258 C 560.05789 131.8664 582.88366 101.47366 586.43164 70.960938 C 589.7431 40.448223 599.79602 25.191406 616.58984 25.191406 z M 506.86719 57.566406 C 511.77537 57.507226 516.41712 58.660064 520.79297 61.025391 C 529.78122 65.756045 535.69676 72.73421 538.53516 81.958984 C 541.37355 90.947228 539.48034 101.94578 532.85742 114.95508 C 416.5607 199.9574 347.89923 290.53657 326.87109 386.69141 C 308.01285 380.54523 291.21808 379.1387 276.25781 382.31055 C 287.59285 275.09054 358.69703 185.73642 489.57227 114.24609 C 476.56298 107.38665 470.88529 98.162363 472.54102 86.572266 C 473.9602 74.745629 480.22866 66.348044 491.3457 61.380859 C 496.78596 58.897266 501.959 57.625586 506.86719 57.566406 z M 654.9082 125.06641 C 659.40267 124.94805 663.8965 126.07022 668.39062 128.43555 C 677.6154 133.16621 683.52704 140.97498 686.12891 151.85547 C 688.73077 162.73598 685.3031 171.60344 675.8418 178.46289 C 666.38049 185.32235 655.7368 186.15101 643.91016 180.94727 C 655.61372 258.0607 655.73529 327.91875 644.27539 390.51953 C 626.39139 380.59121 607.51878 379.18847 587.82617 385.9668 C 606.35099 314.37637 619.84208 235.27359 628.29883 148.66016 C 628.29883 140.85458 632.67213 134.3502 641.42383 129.14648 C 645.91795 126.54462 650.41374 125.18476 654.9082 125.06641 z M 440.94336 445.51758 C 463.48201 446.92982 484.62318 453.61812 504.51367 465.12109 C 539.87459 485.57076 574.549 511.40752 610.33594 542.08203 C 646.12284 572.75656 692.40891 587.40575 746.94141 588.25781 C 624.24329 627.45303 548.2442 686.23337 521.83008 763.3457 C 495.4159 840.45803 492.61332 904.84353 512.21094 957.67188 C 485.79675 958.52387 459.09459 933.75895 431.40234 882.63477 C 403.71003 831.51053 389.92429 751.19582 389.07227 642.13086 C 389.92431 619.12499 376.57992 613.09182 350.5918 622.89062 C 324.60367 632.68948 305.22612 637.85721 292.87109 638.2832 C 280.51607 638.70803 268.88916 640.22019 258.23828 644.05469 C 247.58741 647.8892 232.29249 647.24354 210.13867 642.13086 C 228.88422 637.8703 248.26175 632.48311 267.85938 624.81445 C 287.45698 617.14581 294.78156 609.61488 290.94727 603.65039 C 287.11294 597.68561 277.20351 601.76858 260.16211 613.27148 C 243.12068 624.77445 221.59965 630.8076 198.59375 632.51172 C 193.48138 631.65959 190.25274 627.56348 188.97461 619.04297 C 187.69649 610.52227 193.06866 603.211 202.44141 599.80273 L 221.68164 590.18164 C 232.75854 595.29431 238.79168 594.64804 240.92188 588.25781 C 245.75413 573.76093 229.3075 565.5392 223.60742 567.09375 C 218.92104 568.37186 213.54696 572.67414 210.13867 578.63867 L 190.89844 592.10547 L 187.05078 580.5625 L 246.69531 542.08203 C 260.32842 524.18859 284.87373 509.31774 319.80859 493.98047 C 319.80859 468.36909 381.65384 449.21269 417.93359 445.88086 C 425.76199 445.16192 433.43048 445.04683 440.94336 445.51758 z M 473.73047 482.4375 C 445.52837 518.1602 442.11125 538.44973 446.79297 663.29492 C 569.60336 591.3025 535.0195 507.38798 529.52734 495.9043 L 512.21094 492.05664 C 519.02748 545.7371 503.52427 589.65994 466.0332 622.89062 C 468.19794 573.35663 470.35884 530.93381 492.9707 486.28516 L 473.73047 482.4375 z M 355.75 493.43164 C 339.77628 493.20468 328.18592 497.12361 321.73242 507.44922 L 321.73242 526.68945 C 307.2472 535.21014 292.81579 543.60653 277.47852 551.70117 C 262.14128 559.7958 254.39062 566.90074 254.39062 572.86523 L 331.35156 536.31055 C 334.7088 543.02527 368.65483 542.48089 392.92188 528.61328 L 392.92188 520.91797 L 385.22461 520.91797 C 356.5851 503.73425 329.77512 516.19925 323.65625 524.76562 C 329.58311 512.63193 350.41737 506.64393 389.07227 507.44922 L 389.07227 497.83008 C 376.49619 495.19788 365.33423 493.56782 355.75 493.43164 z " />
</svg>
