<?xml version="1.0" encoding="UTF-8" standalone="no"?>
<svg
   width="1200"
   height="1000"
   id="svg3033"
   sodipodi:version="0.32"
   inkscape:version="1.4.2 (f4327f4, 2025-05-13)"
   sodipodi:docname="13B7B.svg"
   inkscape:output_extension="org.inkscape.output.svg.inkscape"
   version="1.0"
   xmlns:inkscape="http://www.inkscape.org/namespaces/inkscape"
   xmlns:sodipodi="http://sodipodi.sourceforge.net/DTD/sodipodi-0.dtd"
   xmlns="http://www.w3.org/2000/svg"
   xmlns:svg="http://www.w3.org/2000/svg"
   xmlns:rdf="http://www.w3.org/1999/02/22-rdf-syntax-ns#"
   xmlns:cc="http://creativecommons.org/ns#"
   xmlns:dc="http://purl.org/dc/elements/1.1/">
  <metadata
     id="metadata3040">
    <rdf:RDF>
      <cc:Work
         rdf:about="">
        <dc:format>image/svg+xml</dc:format>
        <dc:type
           rdf:resource="http://purl.org/dc/dcmitype/StillImage" />
      </cc:Work>
    </rdf:RDF>
  </metadata>
  <defs
     id="defs3038">
    <inkscape:perspective
       sodipodi:type="inkscape:persp3d"
       inkscape:vp_x="0 : 991.02004 : 1"
       inkscape:vp_y="0 : 1000 : 0"
       inkscape:vp_z="11.550257 : 991.02004 : 1"
       inkscape:persp3d-origin="5.7751284 : 988.02378 : 1"
       id="perspective3042" />
  </defs>
  <sodipodi:namedview
     inkscape:window-height="998"
     inkscape:window-width="1680"
     inkscape:pageshadow="2"
     inkscape:pageopacity="0.0"
     guidetolerance="10.0"
     gridtolerance="10.0"
     objecttolerance="10.0"
     borderopacity="1.0"
     bordercolor="#666666"
     pagecolor="#ffffff"
     id="base"
     showgrid="false"
     inkscape:zoom="0.53386562"
     inkscape:cx="396.16711"
     inkscape:cy="441.12224"
     inkscape:window-x="-8"
     inkscape:window-y="-8"
     inkscape:current-layer="svg3033"
     inkscape:showpageshadow="2"
     inkscape:pagecheckerboard="0"
     inkscape:deskcolor="#d1d1d1"
     inkscape:window-maximized="1" />
  <path
     id="path4"
     style="fill:#000000;stroke:none;stroke-width:0.999998"
     d="M 595.49609,0 C 580.84537,0 568.9988,8.3527657 558.97461,26.087891 506.54037,120.93217 480.71484,188.3044 480.71484,226.08789 406.04028,303.44855 368.68896,391.84982 368.80859,491.42383 l -21.70507,0.63867 C 331.79149,434.91633 248.70379,408.98649 197.99805,407.375 88.224503,403.91226 55.194501,449.04383 45.175781,486.43359 H 0 v 87.88086 h 46.255859 c 10.094114,41.94734 42.657748,75.90843 151.201171,73.3125 68.65804,-1.6426 134.31853,-45.33567 147.44141,-82.125 l 30.63476,0.47657 C 383.48785,611.53648 444.89488,839.73748 560.71484,1000 653.24588,893.58934 761.98393,801.35879 887.67188,723.47852 845.78459,705.24186 692.46987,635.27132 649.37109,570.23242 l 349.24414,5.42774 V 472.89062 l -336.71875,9.90821 c 27.51118,-22.46016 84.5897,-50.75068 190.99219,-37.58203 77.88028,9.63864 116.52149,-3.95475 116.52149,-41.73828 15.42177,-10.02419 23.77263,-20.31331 26.08593,-29.56641 23.90381,-30.07257 20.21201,-45.80705 -12.17382,-50.43359 -32.38583,-4.62656 -67.72081,-13.94652 -104.34766,-27.82618 -36.62688,-13.87965 -66.72779,-34.45591 -92.17383,-59.13086 -17.73508,-17.73509 -45.49695,-27.4492 -81.73828,-31.30468 -8.482,1e-5 -12.17383,-5.62816 -12.17383,-15.65235 V 26.087891 C 692.88867,8.3527657 688.22772,0 678.97461,0 c -8.48201,0 -18.76916,8.3527657 -29.56445,26.087891 -16.96402,25.44603 -29.97578,50.877417 -40,74.781249 V 26.087891 C 609.41016,8.3527657 604.74919,0 595.49609,0 Z m -27.82421,81.738281 h 3.47656 c -28.53036,92.530969 -41.73828,153.497359 -41.73828,180.871099 -10e-6,27.37373 9.71414,51.64848 31.30468,74.78124 l 13.91211,-19.1289 c -10.02418,-5.39762 -19.14605,-18.99304 -26.08593,-41.74024 -6.93982,-22.74718 3.74147,-79.44472 33.04296,-170.43359 v 107.82422 c 0,15.4218 4.85706,22.60937 15.65235,22.60937 97.15756,0 156.37506,11.83794 175.65234,33.04297 19.27729,21.20499 39.86018,35.96561 62.60742,45.21875 22.74719,9.25306 61.57787,21.87072 114.78321,36.52149 13.10858,2.31327 10.00702,12.9946 -6.95703,33.04297 -50.89201,-3.85543 -85.25783,-9.86916 -102.60743,-15.65235 -17.34952,-5.78319 -24.93121,-3.4527 -26.08789,6.95703 -1.1566,10.40974 2.92934,15.45431 15.65235,13.91211 12.72297,-1.54215 33.69338,-0.76248 62.60937,3.47852 28.9159,4.24099 41.72969,11.0344 38.25977,19.13086 -3.46991,8.09648 -41.33147,6.93121 -113.04297,-3.47852 -152.1952,-22.09289 -218.41993,70.90694 -221.94727,76.03907 l -177.24414,5.21484 c -1.0432,-75.55099 20.50901,-141.1693 65.2793,-197.77539 0,24.67491 15.14424,51.86374 45.2168,83.47851 l 15.65234,-13.91406 c -20.81953,-26.21713 -31.30469,-56.50553 -31.30469,-90.43359 0,-33.92799 18.4438,-97.03539 53.91407,-189.566409 z m 81.73828,0 h 5.21679 C 640.74729,128.77487 630.26209,167.41805 623.32227,198.26172 h -12.17383 c 7.71091,-30.84367 20.52658,-69.48685 38.26172,-116.523439 z m 15.65234,24.349609 v 92.17383 h -26.08789 c 5.39762,-24.67492 13.75043,-55.16141 26.08789,-92.17383 z m 60.56055,166.44141 c -2.6058,-0.0452 -5.39873,0.0799 -8.38672,0.51367 -23.90383,3.46992 -43.51098,11.04299 -57.39063,22.60937 13.87966,8.48203 33.4868,15.85704 57.39063,20.86914 23.90388,5.01209 36.52148,-2.36293 36.52148,-20.86914 -10e-6,-13.87964 -7.42321,-21.09128 -20.86914,-22.60937 -2.24099,-0.25294 -4.65982,-0.46847 -7.26562,-0.51367 z M 196.91211,439.99609 c 50.7578,2.22524 109.54188,27.48776 119.06055,65.71485 4.5559,15.63781 5.08269,35.04977 -1.29883,50.44726 -11.82892,26.33065 -71.19499,59.45508 -117.04688,59.45508 -74.46576,0 -105.165754,-11.65167 -118.617184,-42.14648 -4.00108,-9.8388 -2.514564,-20.53668 -2.808594,-30.86328 H 31.712891 v -24.45704 h 44.492187 c -0.44382,-16.15218 -0.615222,-26.1017 2.742188,-33.98828 15.21811,-42.74253 81.194874,-45.747 117.964844,-44.16211 z M 966.9043,505.5332 v 37.72266 l -60.5918,-1.34766 -0.50977,-34.50976 z m -92.84766,2.79688 0.38867,32.88672 -30.74414,-0.69336 0.4375,-31.32813 z m -62.18359,1.79883 0.0566,29.70898 -19.79492,-0.44531 -0.125,-28.67578 z m -51.57813,1.52148 0.0566,27.04883 -28.14258,-0.62305 0.16602,-25.66601 z m -60.2539,1.69141 -0.11133,24.04297 -338.14453,-7.4961 z m -272.97461,53.4375 166.94531,2.59375 c 17.86784,34.81601 73.05911,120.75638 198.00781,161.0625 C 705.65722,776.7011 632.26272,839.6104 572.88867,918.26172 466.50814,768.19144 428.81484,575.94446 427.06641,566.7793 Z"
     sodipodi:nodetypes="sccccccccccccccccccsccssccsssccssccsccscssssccsssssscccccsccccccccccsccsssscccscccccccccccccccccccccccccccccccccccc" />
</svg>
