<?xml version="1.0" encoding="UTF-8" standalone="no"?>
<svg
   width="1800"
   height="1800"
   id="svg2509"
   sodipodi:version="0.32"
   inkscape:version="1.4.2 (f4327f4, 2025-05-13)"
   sodipodi:docname="13B95.svg"
   inkscape:output_extension="org.inkscape.output.svg.inkscape"
   version="1.0"
   xmlns:inkscape="http://www.inkscape.org/namespaces/inkscape"
   xmlns:sodipodi="http://sodipodi.sourceforge.net/DTD/sodipodi-0.dtd"
   xmlns="http://www.w3.org/2000/svg"
   xmlns:svg="http://www.w3.org/2000/svg"
   xmlns:rdf="http://www.w3.org/1999/02/22-rdf-syntax-ns#"
   xmlns:cc="http://creativecommons.org/ns#"
   xmlns:dc="http://purl.org/dc/elements/1.1/">
  <metadata
     id="metadata2516">
    <rdf:RDF>
      <cc:Work
         rdf:about="">
        <dc:format>image/svg+xml</dc:format>
        <dc:type
           rdf:resource="http://purl.org/dc/dcmitype/StillImage" />
      </cc:Work>
    </rdf:RDF>
  </metadata>
  <defs
     id="defs2514">
    <inkscape:perspective
       sodipodi:type="inkscape:persp3d"
       inkscape:vp_x="0 : 8.9887915 : 1"
       inkscape:vp_y="0 : 1000 : 0"
       inkscape:vp_z="12.662472 : 8.9887915 : 1"
       inkscape:persp3d-origin="6.3312359 : 5.9925276 : 1"
       id="perspective2518" />
  </defs>
  <sodipodi:namedview
     inkscape:window-height="998"
     inkscape:window-width="1680"
     inkscape:pageshadow="2"
     inkscape:pageopacity="0.0"
     guidetolerance="10.0"
     gridtolerance="10.0"
     objecttolerance="10.0"
     borderopacity="1.0"
     bordercolor="#666666"
     pagecolor="#ffffff"
     id="base"
     showgrid="false"
     inkscape:zoom="0.56555556"
     inkscape:cx="605.59921"
     inkscape:cy="877.89783"
     inkscape:window-x="-8"
     inkscape:window-y="-8"
     inkscape:current-layer="svg2509"
     inkscape:showpageshadow="2"
     inkscape:pagecheckerboard="0"
     inkscape:deskcolor="#d1d1d1"
     inkscape:window-maximized="1" />
  <path
     style="fill:#000000;stroke:none"
     d="M 298.74023,0.08007812 C 250.9767,1.0941805 225.42648,28.417935 214.85156,58.269531 c 0,13.695822 23.09083,37.687341 38.14844,47.025389 15.05766,9.33807 41.82637,11.68938 57.48633,9.19922 -52.95483,127.27976 -32.15563,269.44008 -34.49219,404.71094 -1.93761,31.04173 2.68363,59.18884 13.79688,82.78125 -66.23578,29.38107 -101.17774,61.57834 -101.17774,98.8789 C 70.295206,767.69299 7.7234675,826.32774 0.0546875,875.62695 c 0,29.57959 15.3151745,51.34807 45.9902345,66.68555 9.85986,69.0189 30.315372,103.4785 62.085938,103.4785 12.05094,0 24.84982,24.8326 39.0918,73.584 14.24198,48.7514 83.15925,46.8907 206.95507,-4.5996 23.00627,98.5984 35.58772,329.5254 34.49219,692.1484 h 542.68164 v -547.2793 c 0,-420.68099 -81.69402,-518.18753 -160.43109,-578.97225 21.17024,-51.11462 -34.78255,-166.06674 -97.11383,-166.06674 -46.06836,-3.28104 -77.93118,10.11522 -106.52214,43.69868 -0.11688,-1.47361 -17.50147,-73.59126 -106.18247,-73.59126 -24.10185,0 -38.36176,0.31542 -57.53367,16.47461 C 447.75169,306.7666 651.0329,70.909386 450.75586,11.015625 416.12327,1.9887919 384.293,1.2463384 354.17773,8.7167969 333.05217,2.3278034 314.66141,-0.257956 298.74023,0.08007812 Z M 296.21094,31.574219 c 15.40282,-0.982606 32.49885,3.444891 39.57031,7.035156 37.34297,-6.847908 70.87164,-3.373414 98.87891,6.898437 152.80331,34.092483 -74.89739,301.702558 -81.74219,483.650388 -6.85365,48.01736 -27.25265,46.11384 -28.45117,19.94141 5.05571,-178.71753 -42.30924,-436.30177 112.49218,-453.001954 6.62537,-0.622536 7.71958,-23.046623 2.29883,-29.894531 -34.33142,-9.338062 -71.22515,-5.499826 -110.375,13.798828 -8.43229,2.490155 -18.62745,3.760524 -32.48047,3.449219 -13.85305,-0.311238 -29.3586,-3.792709 -29.60546,-26.445313 0.30222,-18.055835 14.01123,-24.449034 29.41406,-25.43164 z m -4.74414,14.11914 c -5.44984,0.278011 -11.17369,5.050875 -7.71094,11.3125 8.65075,9.354189 19.26302,-2.015095 14.08398,-8.623047 -1.47468,-2.013006 -3.89585,-2.815821 -6.37304,-2.689453 z M 526.0643,569.63339 c -39.21648,-10.28055 -86.0957,-7.4775 -111.8778,-2.43905 l -0.22166,-6.59864 c 61.24791,-71.57182 110.08301,1.0389 112.09946,9.03769 z m 124.7482,-13.63534 c 15.3375,0 28.1364,7.65659 39.0918,22.99414 -15.33751,0 -31.85599,17.93925 -48.28907,55.1875 -8.76434,48.20368 -26.81322,71.28515 -57.48828,71.28515 l -52.88867,-4.59961 -2.29883,25.29493 c 47.10812,6.57323 112.08838,40.92321 193.15821,101.17773 l 9.19726,-18.39648 -57.48828,-45.98829 c 14.24203,-1.0955 33.49422,-12.58336 59.78711,-34.49414 89.83411,63.5412 135.67187,240.75836 135.67187,528.88482 v 487.4941 H 453.05469 C 451.95918,1429.323 440.47325,1217.5385 418.5625,1110.1758 h 9.19922 l 6.89844,25.2949 18.39453,-2.2988 c 0,-19.7196 -11.48589,-57.7911 -34.49219,-110.377 h 4.59961 c 15.33755,16.4332 30.65272,54.5046 45.99023,110.377 l 16.09571,-9.1992 c -7.30803,-47.4598 -14.29602,-99.9063 -57.48633,-128.77153 -12.05089,2.19112 -18.28876,6.23783 -16.09766,16.09763 l -16.0957,9.1973 16.0957,43.6914 -2.29883,2.2988 -20.69531,-45.9902 -20.69531,9.1973 9.19727,27.5957 c -78.87873,36.1528 -129.30907,53.5442 -151.76758,55.1875 -22.45852,1.6433 -43.3521,-20.7827 -59.78516,-68.9864 15.33749,0 33.27674,-3.9369 55.1875,-13.7968 L 253,1034.293 c 5.47768,0 9.19727,-11.4858 9.19727,-34.49222 0,-6.57326 -15.31518,-11.60576 -45.99024,-13.79687 -35.05721,14.24209 -63.60934,20.69529 -82.78125,20.69529 -19.17191,0 -29.56226,-15.4229 -34.492186,-48.28904 -4.92993,-32.86613 -15.544813,-50.58978 -27.595703,-50.58985 v -2.29883 c 15.33749,0 29.231939,8.86185 39.091799,25.29493 28.48396,0 41.39062,-10.06705 41.39062,-27.59571 1.09557,-27.38838 -14.21766,-41.39062 -45.98828,-41.39062 -31.770614,0 -45.990233,12.69112 -45.990233,36.79297 H 55.242188 L 46.044922,887.125 c 17.52863,-48.20369 77.474368,-99.28955 179.359378,-154.06641 0,-37.83277 54.62927,-79.51829 96.58008,-96.57812 94.41759,-35.26443 156.5977,-17.99017 149.46679,22.99414 -0.28184,1.61995 2.989,0.0496 4.59961,0 v 45.99023 h 36.79102 v -34.49218 c 0,-5.47768 19.14446,-10.72771 57.48828,-18.39649 27.38845,-64.63676 54.18951,-96.57812 80.48242,-96.57812 z m 66.68555,41.39062 c 6.57321,28.48397 9.19726,51.348 9.19726,66.68555 0,15.3375 -10.1729,28.13644 -29.89258,39.0918 l -43.6914,-9.19922 c 0,-4.38216 22.7563,-13.13432 64.38672,-22.99414 l -2.29883,-18.39649 -36.79297,6.89844 v -2.29883 c 20.81519,-10.95538 32.19332,-20.47279 32.19336,-27.59375 0,-7.12103 -6.3456,-9.19922 -18.39649,-9.19922 L 706,601.98633 Z m -416.20899,73.58399 c -26.29289,6.57321 -39.09179,31.95358 -39.09179,73.58398 v 25.29492 h 32.19335 v -22.99609 c 38.34385,13.14651 65.25264,-0.85575 82.78126,-41.39063 l 32.19335,2.29883 c 7.66878,-6.57326 7.77651,-15.54286 2.29883,-27.59375 -52.58586,-6.57325 -88.46425,-10.29282 -110.375,-9.19726 z m 45.99024,29.89257 c -10.95543,16.43307 -21.7858,25.29493 -32.19336,25.29493 -10.40762,0 -14.89241,-3.82926 -13.79688,-11.49805 0,-9.85982 15.31513,-14.8924 45.99024,-13.79688 z m 289.73632,13.79688 34.49219,4.59961 v 2.29883 c -26.29287,5.47769 -39.09178,11.8233 -39.09179,18.39648 -9.85987,-1.09552 -16.20343,-6.12804 -18.39454,-13.79687 15.33751,-3.2866 22.99413,-7.11589 22.99414,-11.49805 z m -71.28515,29.89453 6.89844,52.88867 c 52.58582,20.81521 101.04762,62.82176 144.86914,124.17188 L 728.99609,887.125 C 690.65231,849.87678 644.70675,815.52686 591.02539,785.94727 v -11.49805 c 39.43938,14.24204 84.28935,49.79717 137.9707,103.47851 l 18.39453,-25.29492 C 660.84319,786.90054 600.7877,751.12996 565.73047,744.55664 Z m 6.89844,68.98438 -4.59766,20.69531 c 20.5249,0 82.39773,47.65072 131.07031,128.77148 l 13.79688,-25.29297 C 655.93047,855.54951 608.78167,813.54111 572.62891,813.54102 Z m -6.89844,29.89453 -4.59766,20.69531 c 57.71841,25.11945 88.45056,80.22636 121.87305,131.07031 l 13.79687,-18.39648 C 654.07678,901.2126 610.64757,856.58199 565.73047,843.43555 Z m -4.59766,29.89257 -9.19922,20.69532 c 38.34382,20.81528 71.59819,65.55558 101.17774,135.66996 l 18.39648,-20.6954 C 648.50149,947.64802 612.62307,902.9077 561.13281,873.32812 Z m -16.09765,29.89258 -9.19727,16.09766 c 29.57947,17.52859 61.52088,59.75259 96.57813,128.77144 l 16.09765,-11.498 C 602.50103,948.94881 569.13694,905.41181 545.03516,903.2207 Z m -13.91602,25.12305 c -0.73384,0.0117 -1.46074,0.0692 -2.17969,0.17187 l -6.89843,11.49805 c 32.86613,35.05725 58.35422,80.89303 75.88281,135.66993 l 22.99609,-18.3945 C 583.77435,971.32354 553.8682,927.98066 531.11914,928.34375 Z m -13.67773,20.86719 -16.09571,9.19922 c 29.57951,41.63044 48.83174,83.74664 59.78711,126.47264 l 22.99414,-9.1992 c -12.05089,-54.7769 -34.91497,-96.89308 -66.68554,-126.47266 z m -22.99414,16.09765 -18.39649,11.4961 c 31.77057,54.77691 49.60206,100.50501 52.88867,133.37111 l 20.69532,-20.6953 c -9.85985,-49.2992 -28.89463,-91.30577 -55.1875,-124.17191 z m -32.19336,20.69532 -16.09766,6.89843 c 24.10183,28.48396 39.52671,70.60016 48.29102,126.47266 l 22.99414,-11.498 c -17.52864,-67.9233 -35.46782,-108.72658 -55.1875,-121.87309 z"
     id="path2511"
     sodipodi:nodetypes="scsccccccsscccscscscccsscccccccccssccsccccscccccccccsccccccccccccccccccscccscssccccscccccscccscscsccccccsccccsccccccccscccccccccccccccccccccccccccccccccccccsccccsccccccccccccccc" />
</svg>
