<?xml version="1.0" encoding="UTF-8" standalone="no"?>
<svg
   width="23.78125"
   height="16.408245"
   version="1.1"
   id="svg1"
   sodipodi:docname="13B9C.svg"
   inkscape:version="1.4.2 (f4327f4, 2025-05-13)"
   xmlns:inkscape="http://www.inkscape.org/namespaces/inkscape"
   xmlns:sodipodi="http://sodipodi.sourceforge.net/DTD/sodipodi-0.dtd"
   xmlns="http://www.w3.org/2000/svg"
   xmlns:svg="http://www.w3.org/2000/svg">
  <defs
     id="defs1" />
  <sodipodi:namedview
     id="namedview1"
     pagecolor="#ffffff"
     bordercolor="#666666"
     borderopacity="1.0"
     inkscape:showpageshadow="2"
     inkscape:pageopacity="0.0"
     inkscape:pagecheckerboard="0"
     inkscape:deskcolor="#d1d1d1"
     showguides="true"
     inkscape:zoom="22.627417"
     inkscape:cx="11.556776"
     inkscape:cy="5.5021746"
     inkscape:window-width="1680"
     inkscape:window-height="998"
     inkscape:window-x="-8"
     inkscape:window-y="-8"
     inkscape:window-maximized="1"
     inkscape:current-layer="svg1">
    <sodipodi:guide
       position="11.247417,0"
       orientation="0,-1"
       id="guide5"
       inkscape:locked="false" />
  </sodipodi:namedview>
  <path
     id="path1"
     style="fill:#000000;stroke:none"
     d="M 9.90625,0 C 9.895262,0 9.885239,4.57125e-4 9.875,0.00195313 9.192098,0.21992113 8.582823,0.45170612 8,0.65820312 7.417178,0.86470013 6.892621,1.2408501 6.46875,1.8144531 5.986009,1.3440991 5.477299,0.98712913 4.90625,0.75195312 c -0.571048,-0.23517799 -1.192097,-0.477836 -1.875,-0.71875 -0.0071,-7.28e-4 -0.014355,0 -0.021484,0 H 2.96875 c -0.182114,0 -0.291902,0.11529001 -0.28125,0.3125 0.153065,0.17208101 0.435727,0.49523001 0.8125,0.99999998 0.376774,0.504771 0.725121,0.808738 1.03125,0.90625 0.226271,0.072074 0.437325,0.125 0.625,0.125 -0.122958,0.042748 -0.21194,0.142214 -0.28125,0.28125 -0.100081,0.200761 -0.262702,0.35403 -0.46875,0.46875 -0.206048,0.114721 -0.356895,0.217558 -0.46875,0.34375 -0.111855,0.126192 -0.288065,0.285197 -0.5,0.46875 -0.459194,0.126193 -0.668024,0.444202 -0.65625,0.9375 -0.047097,0.137665 -0.066573,0.268586 -0.03125,0.40625 0.017155,0.2674495 0.2421804,0.2864569 0.34375,0.28125 0.013371,0.4169459 0.1783379,0.53125 0.375004,0.53125 0.176612,0 0.25,-0.08939 0.25,-0.25 0.306131,-0.011471 0.46875,-0.100864 0.46875,-0.25 -0.011775,-0.103249 0.065686,-0.144778 0.21875,-0.15625 l 0.53125,-0.21875 c 0.600484,0.05736 0.879073,0.366468 0.84375,0.96875 -0.035323,0.602283 -4.44e-4,1.098478 0.09375,1.5 0.094194,0.401522 0.090121,0.722102 0.03125,0.96875 -0.058871,0.24665 -0.132257,0.603618 -0.25,1.0625 C 4.9502275,9.287496 4.4186723,9.1494343 2.5566406,8.6933594 2.1797185,8.5888519 1.8900664,8.6221975 1.6816406,8.8066406 1.4306796,9.0287274 1.2066252,9.3120756 1.0605469,9.640625 0.91446895,9.9691734 0.63516231,10.623057 0.18359375,11.634766 c -0.45157006,1.01171 -0.94223222,1.957565 -1.46679685,2.835937 0.43819755,0.05007 1.03633405,-0.0047 1.76367185,-0.160156 C 0.61597931,14.086212 0.52601586,13.828486 0.25,13.501953 0.74186369,13.578803 0.91248007,13.443336 0.75390625,13.089844 0.95059174,11.4678 1.6911866,10.094903 1.9609375,9.9296875 2.1455543,9.8166136 2.4143607,9.9109278 2.703125,10.03125 c 0.3922293,0.163434 0.8161346,0.376515 1.2519531,0.59375 -0.5390438,0.178495 -1.0689524,0.363616 -1.5859375,0.535156 -0.3712388,0.12318 -0.5962748,0.303869 -0.6699218,0.572266 -0.088675,0.323173 0.9510381,1.468192 1.4726562,1.857422 0.295504,0.220505 0.4526889,0.370911 0.9101562,0.740234 0.8286517,0.668995 1.5956934,1.36765 2.2695313,2.078125 C 6.5510711,15.9907 6.686066,15.387182 6.7851562,14.640625 6.6135993,14.457656 6.3110397,14.480991 5.8984375,14.677734 6.1424666,14.213738 6.0644212,14.014064 5.6660156,14.089844 4.936902,13.821068 4.3088363,13.482096 3.7578125,13.027344 3.3244226,12.669672 3.072245,12.472401 3.2246094,12.199219 4.491161,11.967362 6.0009941,11.941582 7.1796875,11.640625 7.5140562,11.620344 7.8223303,11.559187 8.09375,11.439453 l 15.6875,-0.03125 v -0.96875 H 22.875 V 7.3457031 h 0.90625 v -1 L 9.59375,6.3144531 C 8.533624,5.6408581 8.130809,4.7558381 7.78125,3.6269531 7.734153,3.1967501 7.567902,2.8397831 7.25,2.5644531 7.697418,2.4956211 8.055282,2.4010891 8.34375,2.2519531 8.632217,2.1028161 8.974678,1.7707651 9.375,1.2832031 9.775321,0.79564013 10.046211,0.48653412 10.1875,0.31445312 10.218215,0.11493912 10.142802,0.00195313 9.96875,0.00195313 9.951344,0.00195313 9.928226,0 9.90625,0 Z M 9.9375,0.15820312 10,0.22070312 C 8.528227,0.77136213 7.429275,1.4042141 6.6875,2.1269531 l 1,0.09375 c -0.412096,0.034416 -0.752741,0.095724 -1,0.1875 0,0.149137 0.062057,0.21875 0.15625,0.21875 0.30613,0.240913 0.458789,0.589575 0.5,1.03125 0.098954,1.012367 0.700776,1.765633 1.28125,2.53125 0.476283,0.617406 0.365332,3.348292 -0.5,4.2812499 C 7.747535,10.828991 7.1888758,11.327551 6.3808594,11.103516 6.1423543,11.037387 5.8726035,10.945253 5.5644531,10.824219 4.4160443,10.291557 3.6795288,9.90063 3.328125,9.6523438 3.1886013,9.5537623 3.1191357,9.4833204 3.1230469,9.4433594 3.1232009,9.4425182 3.1247769,9.4383137 3.125,9.4375 V 9.43555 L 3.12695,9.4336 3.1289,9.43165 3.13085,9.4297 V 9.42775 C 3.17812,9.379744 3.4172179,9.406966 3.8554594,9.507828 4.0022959,9.538371 4.1468623,9.57333 4.2910062,9.6132967 4.962261,9.7993943 5.465784,10.238461 6.15625,10.314453 6.226896,9.3622721 6.610122,8.5423321 7.28125,7.8769531 l -0.125,-0.53125 -0.78125,0.78125 c -0.141291,-0.814516 -0.191573,-1.478022 -0.15625,-2 0.035322,-0.521978 -0.127298,-0.870641 -0.46875,-1.03125 0.388548,-0.080304 0.665322,-0.188878 0.8125,-0.34375 0.147177,-0.154874 0.203346,-0.361143 0.15625,-0.625 -0.188387,0.39005 -0.47875,0.602056 -0.84375,0.625 -0.365,0.022944 -0.902702,0.134087 -1.65625,0.375 -0.110816,-0.172755 -0.264106,-0.25 -0.4375,-0.25 l 0.0625,-0.0625 -0.03125,-0.0625 c -0.176612,0.091776 -0.335161,0.214391 -0.5,0.375 l 0.03125,0.0625 0.40625,-0.3125 c -0.070646,0.217969 -0.21379,0.376974 -0.4375,0.46875 -0.072452,0.052102 -0.1415649,-0.033939 -0.15625,-0.0625 -0.066531,-0.1293953 -0.039396,-0.248807 0.03125,-0.375 -0.00442,-0.129061 0.028833,-0.253407 0.0625,-0.34375 0.056111,-0.150571 0.150604,-0.23823 0.3125,-0.28125 0.494516,-0.470354 0.823387,-0.751973 1,-0.84375 0.176613,-0.091776 0.325646,-0.262253 0.4375,-0.46875 0.111854,-0.206497 0.239596,-0.320806 0.375,-0.34375 0.135402,-0.022944 0.321129,-0.078515 0.5625,-0.1875 0.241371,-0.108984 0.467863,-0.262253 0.65625,-0.46875 0.494515,-0.493299 1.007299,-0.864309 1.53125,-1.09374998 0.523951,-0.229441 1.129596,-0.46636499 1.8125,-0.71875 z M 3.25,4.5644531 l 0.0625,0.0625 c 0.050461,-0.027314 0.094564,-0.0625 0.125,-0.0625 0.033481,0 0.053248,0.02945 0.0625,0.0625 0.017661,0.063096 -0.065687,0.113528 -0.21875,0.125 l 0.03125,0.0625 c 0.211935,0 0.326089,-0.04153 0.34375,-0.15625 C 3.7125367,4.5403788 3.5957967,4.4388017 3.5058594,4.4414062 l -0.00195,-0.00195 h -0.00195 c -0.080192,0 -0.1724516,0.064753 -0.2519531,0.125 z M 2.96875,0.18945312 c 0.682902,0.27533001 1.294435,0.53460101 1.8125,0.78125 C 5.299314,1.2173531 5.763629,1.5660151 6.1875,2.0019531 l -0.21875,0.09375 C 5.380041,1.4876841 4.366249,0.87144413 2.90625,0.25195312 Z m 6.8125,0.21875 C 8.997288,1.4641111 8.356785,2.0019531 7.84375,2.0019531 l -0.562504,-0.0625 c 0.400322,-0.332689 0.768145,-0.583656 1.0625,-0.75 0.294355,-0.166346 0.766373,-0.42561597 1.4375,-0.78124998 z m -6.65625,0.0625 c 0.659355,0.367106 1.143146,0.63468298 1.4375,0.81249998 0.294355,0.177817 0.642701,0.41731 1.03125,0.75 l -0.53125,0.0625 C 4.544436,2.0842311 3.890322,1.5605481 3.125,0.47070312 Z M 5.5722656,2.9667969 c -0.035415,0 -0.070872,0.00391 -0.1035156,0.00391 -0.232591,0 -0.395079,0.069938 -0.53125,0.25 0.011775,0.091776 -0.038508,0.209252 -0.15625,0.3125 l 0.0625,0.0625 0.125,-0.125 c 0.020832,4.21e-5 0.041667,0 0.0625,0 0.429311,0 0.616538,-0.166941 0.59375,-0.5 -0.017746,-0.00266 -0.035027,-0.00391 -0.052734,-0.00391 z M 3.96875,4.9707031 H 4 v 0.15625 c 0.011774,0.263858 -0.026735,0.40625 -0.15625,0.40625 l -0.03125,-0.21875 -0.375,0.375 c -0.011774,-0.195025 0.073387,-0.314474 0.25,-0.40625 0.176612,-0.091776 0.28125,-0.209251 0.28125,-0.3125 z m 5.65625,2.34375 h 2.21875 l 0.0625,3.1249999 -2.28125,0.03125 z m 3.21875,0 h 2.4375 V 10.439453 H 12.875 Z m 3.4375,0 h 2.375 v 3.1249999 h -2.375 z m 3.375,0 2.21875,0.03125 0.03125,3.0937499 h -2.25 z M 4.546875,10.914062 c 0.3473867,0.166619 0.6974409,0.325473 1.0390625,0.451172 -0.9938558,0.13443 -1.6710528,0.189453 -2.0449219,0.175782 -0.00995,-3.51e-4 -0.2423581,-0.01195 -0.2851562,-0.05664 l -0.00195,-0.002 c -5.201e-4,-8.61e-4 -0.00157,-0.005 -0.00195,-0.0059 L 3.25,11.474609 v -0.002 -0.002 -0.002 c 2.106e-4,-9.86e-4 0.00353,-0.0048 0.00391,-0.0059 0.055867,-0.133915 0.7237777,-0.383513 1.2929688,-0.548829 z"
     sodipodi:nodetypes="scscccsscsscsssccccsccccssscccssccccsscssscccccsccccccccccccsscsscccccccccscsccccccccsccccscccsccccccccscscsssscscccscccscccccccccccsccccssccssccccscsccccccscccccccccccccccccccccccccccccccccccc" />
</svg>
