<?xml version="1.0" encoding="UTF-8" standalone="no"?>
<svg
   width="1200"
   height="1000"
   version="1.1"
   id="svg1"
   sodipodi:docname="F38B.svg"
   inkscape:version="1.4.2 (f4327f4, 2025-05-13)"
   xmlns:inkscape="http://www.inkscape.org/namespaces/inkscape"
   xmlns:sodipodi="http://sodipodi.sourceforge.net/DTD/sodipodi-0.dtd"
   xmlns="http://www.w3.org/2000/svg"
   xmlns:svg="http://www.w3.org/2000/svg">
  <defs
     id="defs1" />
  <sodipodi:namedview
     id="namedview1"
     pagecolor="#ffffff"
     bordercolor="#666666"
     borderopacity="1.0"
     inkscape:showpageshadow="2"
     inkscape:pageopacity="0.0"
     inkscape:pagecheckerboard="0"
     inkscape:deskcolor="#d1d1d1"
     inkscape:zoom="0.3775"
     inkscape:cx="849.00662"
     inkscape:cy="210.59603"
     inkscape:window-width="1680"
     inkscape:window-height="998"
     inkscape:window-x="-8"
     inkscape:window-y="-8"
     inkscape:window-maximized="1"
     inkscape:current-layer="svg1" />
  <path
     style="fill:#000000;stroke:none;stroke-width:1"
     d="m 199.62819,198.00654 194.42265,440.92284 c 0.15018,-0.0206 0.30037,-0.0277 0.45056,-0.0277 0.33375,0 0.6636,0.0364 1.01126,0.0364 0.089,0 0.18356,-0.002 0.27812,-0.009 83.53064,5.63124 136.65892,57.22627 159.70434,154.49658 -5.32552,-64.88114 9.12347,-109.67654 45.13382,-133.66558 L 400.99849,198.00654 Z m 546.81373,0 194.42274,440.92284 c 0.15186,-0.0206 0.30093,-0.0277 0.4489,-0.0277 0.3343,0 0.66349,0.0364 1.01098,0.0364 0.0907,0 0.18245,-0.002 0.2759,-0.009 85.54836,5.76729 139.33246,59.55144 161.44036,161.44028 -7.163,-69.02574 7.7404,-115.69892 45.1339,-140.60928 L 949.54425,198.00624 Z m -274.27474,0 194.42263,440.92284 c 0.15019,-0.0206 0.30037,-0.0277 0.45056,-0.0277 0.33375,0 0.6636,0.0364 1.01126,0.0364 0.089,0 0.18356,-0.002 0.27812,-0.009 85.54815,5.76729 139.33236,59.55144 161.44017,161.44028 -7.16292,-69.02574 7.74047,-115.69892 45.13393,-140.60928 L 675.2694,198.00654 Z m 744.70822,498.20807 c -47.0995,0.9612 -65.1615,36.68341 -55.5493,105.89093 29.7976,82.66451 71.1579,128.30006 124.986,138.87329 49.022,-5.76719 59.8964,-51.40269 32.9824,-138.87329 -21.1468,-64.40148 -55.3195,-100.12363 -102.4191,-105.89093 z m -274.27485,0 c -47.09955,0.9612 -65.16149,36.68341 -55.54929,105.89093 29.79766,82.66451 71.15789,128.30006 124.98604,138.87329 49.0219,-5.76719 59.8964,-51.40269 32.9824,-138.87329 -21.1468,-64.40148 -55.31955,-100.12363 -102.41915,-105.89093 z m -274.2748,0 c -47.09955,0.9612 -65.16149,36.68341 -55.54935,105.89093 29.79767,82.66451 71.15795,128.30006 124.98599,138.87329 49.02205,-5.76719 59.89648,-51.40269 32.98241,-138.87329 C 749.59802,737.70406 715.42529,701.98191 668.32575,696.21461 Z m -272.53897,0 c -47.09959,0.9612 -65.16149,36.68341 -55.54929,105.89093 29.7977,82.66451 71.15789,128.30006 124.98604,138.87329 49.02188,-5.76719 59.89643,-51.40269 32.98235,-138.87329 -21.14672,-64.40148 -55.3195,-100.12363 -102.4191,-105.89093 z M 912.97076,0 c 0.63334,0 1.253,0.03582239 1.85514,0.11202841 14.23796,1.80230009 26.65559,16.72421659 38.19018,43.39793659 l 32.9824,74.644405 h 159.49602 v 79.85217 h -124.7777 l 194.4227,440.92284 c 0.1519,-0.0206 0.301,-0.0277 0.4489,-0.0277 0.3343,0 0.6635,0.0364 1.011,0.0364 0.091,0 0.1824,-0.002 0.2759,-0.009 85.5482,5.76759 139.3324,59.55174 161.4403,161.44058 23.0691,122.07431 -7.4167,189.057 -92.0036,199.63034 -86.5094,-9.61208 -146.7063,-76.59478 -182.2713,-199.63034 v 0 C 1127.11,922.44397 1096.6242,989.42666 1012.0373,1000 925.52784,990.38792 865.33098,923.40522 829.76591,800.36966 v 0 C 852.83509,922.44397 822.34934,989.42666 737.76239,1000 653.85834,990.67733 594.8973,926.83961 558.96294,810.78513 v 0 C 578.21881,925.98271 547.27021,989.74423 465.22353,1000 378.71399,990.38792 318.51719,923.40522 282.95219,800.36966 c -7.1631,-69.02574 7.7404,-115.69892 45.1338,-140.60928 L 128.45569,198.00654 H -0.00220967 V 118.15437 H 93.73729 L 72.90629,69.548671 C 57.52689,33.983767 58.88969,12.234848 78.11399,3.5838522 82.52009,1.6955561 87.52429,0 91.88219,0 c 0.6336,0 1.2527,0.03582239 1.8551,0.11202841 14.238,1.80230009 26.6556,16.72421659 38.1902,43.39793659 l 32.9824,74.644405 h 201.3663 l -20.831,-48.605699 C 330.06579,33.983767 331.42859,12.234848 350.65299,3.5838522 355.05909,1.6955561 360.06319,0 364.42109,0 c 0.633,0 1.2527,0.03582239 1.8551,0.11202841 14.2381,1.80230009 26.65564,16.72421659 38.19017,43.39793659 l 32.98241,74.644405 h 203.10228 l -20.831,-48.605699 C 604.34056,33.983767 605.70343,12.234848 624.92776,3.5838522 629.33385,1.6955561 634.33792,0 638.69596,0 c 0.63323,0 1.25295,0.03582239 1.85509,0.11202841 14.23801,1.80230009 26.65558,16.72421659 38.19017,43.39793659 l 32.98241,74.644405 H 914.8259 L 893.9949,69.548671 C 878.61547,33.983767 879.97828,12.234848 899.20272,3.5838522 903.60877,1.6955561 908.61278,0 912.97076,0 Z"
     id="path1" />
</svg>
