<?xml version="1.0" encoding="UTF-8" standalone="no"?>
<svg
   width="1000"
   height="1000"
   version="1.1"
   id="svg1"
   sodipodi:docname="13C1D.svg"
   inkscape:version="1.4.2 (f4327f4, 2025-05-13)"
   xmlns:inkscape="http://www.inkscape.org/namespaces/inkscape"
   xmlns:sodipodi="http://sodipodi.sourceforge.net/DTD/sodipodi-0.dtd"
   xmlns="http://www.w3.org/2000/svg"
   xmlns:svg="http://www.w3.org/2000/svg">
  <defs
     id="defs1" />
  <sodipodi:namedview
     id="namedview1"
     pagecolor="#ffffff"
     bordercolor="#666666"
     borderopacity="1.0"
     inkscape:showpageshadow="2"
     inkscape:pageopacity="0.0"
     inkscape:pagecheckerboard="0"
     inkscape:deskcolor="#d1d1d1"
     inkscape:zoom="0.26693281"
     inkscape:cx="144.23105"
     inkscape:cy="282.84271"
     inkscape:window-width="1680"
     inkscape:window-height="998"
     inkscape:window-x="-8"
     inkscape:window-y="-8"
     inkscape:window-maximized="1"
     inkscape:current-layer="svg1"
     showguides="true">
    <sodipodi:guide
       position="465.43036,1000"
       orientation="1,0"
       id="guide1"
       inkscape:locked="false" />
  </sodipodi:namedview>
  <path
     id="path1"
     style="fill:#000000;stroke:none;stroke-width:1"
     d="M 765.90192,0 C 636.33037,70.933349 552.98425,136.9017 515.86243,197.90437 478.74068,258.90702 450.60469,293.54521 431.45269,301.82078 370.03027,325.08403 328.58374,271.03333 327.18066,213.51007 318.88886,118.88646 305.90586,98.176339 256.95595,85.828608 230.71062,79.208167 202.69204,84.410294 172.90002,101.4343 150.20137,92.922275 129.63116,88.666333 111.18848,88.666333 c -14.186661,6.620442 -17.261683,12.295657 -9.2226,17.024557 56.27378,35.93956 97.6525,62.77544 124.13429,80.50877 26.48177,17.73336 43.97872,47.76164 52.49073,90.08519 8.51199,42.32355 35.46703,91.38541 80.86439,147.18633 43.50577,38.77688 65.25869,71.40714 65.25869,97.88894 -4.25599,18.91555 -17.14305,41.37809 -38.6595,67.38699 -21.51646,26.00886 -34.16517,52.01775 -37.94829,78.02666 -0.47287,13.24091 2.12728,23.17207 7.80194,29.79252 8.51202,-3.31026 13.2411,-8.27583 14.18684,-14.89626 -2.36445,-15.13244 -1.89136,-25.41756 1.41886,-30.85577 3.31025,-5.43822 6.62001,-11.70568 9.93023,-18.79903 5.67468,14.18666 8.03832,29.55654 7.09252,46.10764 11.82224,-8.51195 17.02438,-17.73352 15.6057,-27.66422 l -4.2548,-41.14163 c 25.53599,-25.53599 44.21388,-52.01791 56.03609,-79.44552 10.87647,2.36445 18.67874,6.85696 23.40764,13.4774 -2.83735,21.28004 -13.00328,41.49628 -30.50016,60.64828 -17.49691,19.15201 -29.55516,40.07794 -36.1756,62.77659 1.89154,29.31921 5.67441,44.68727 11.34911,46.10585 8.03908,-10.40357 10.63925,-18.91549 7.80194,-25.53594 -2.83731,-6.62045 -3.07385,-12.64959 -0.70943,-18.0878 2.36446,-5.43825 5.20116,-10.9943 8.51138,-16.66894 6.62044,6.62045 9.93204,22.22507 9.93204,46.81527 8.98489,-6.62043 14.18701,-14.89579 15.60569,-24.82649 -6.14757,-21.27997 -7.09376,-37.35768 -2.83773,-48.23415 25.06309,-26.0089 43.97751,-56.74683 56.74552,-92.21348 23.89817,-10.49568 48.47404,-18.54219 69.51528,2.12829 12.76798,42.0871 44.21554,56.74557 94.34178,43.97756 8.03912,14.18669 25.29953,19.38877 51.7813,15.60568 0.47291,-24.59025 -7.3294,-40.90445 -23.40764,-48.94357 4.256,-57.21952 -16.78907,-84.88422 -63.1322,-82.99267 -42.0871,-38.30401 -67.14981,-65.49379 -75.18893,-81.57202 C 739.19964,295.10875 788.22507,234.78465 855.98891,60.292675 L 750.29802,92.922919 C 763.53904,76.844688 768.7394,45.870221 765.90192,0 Z m -26.9548,43.979349 C 742.73025,62.894901 732.09119,84.411262 707.0281,108.52861 637.9863,127.91703 572.96414,172.36723 511.96146,241.88193 555.46723,165.74678 631.12845,99.780228 738.94712,43.979349 Z m 77.31903,50.362434 C 780.32659,212.56403 676.29112,310.92431 504.1595,389.42387 l 14.89447,11.3491 35.46797,-9.93023 c 18.91555,31.21066 45.86881,60.52932 80.86259,87.9569 38.30401,5.20179 57.69327,24.82762 58.16617,58.8756 -0.4729,18.91545 -14.18695,26.71776 -41.14162,23.40765 -15.60533,2.36445 -28.60976,-6.8571 -39.01332,-27.66424 -32.8076,-53.89793 -93.30902,-26.0514 -101.4343,-21.98877 L 470.1104,490.85817 C 398.35863,428.88826 330.46705,357.84897 315.06035,311.91361 299.57047,265.7303 279.06135,196.88082 250.57286,175.9156 236.91853,165.86711 213.33273,149.19619 177.86604,128.38909 l 7.80194,-12.05853 c 43.41884,-20.067536 73.46544,-20.076759 90.14013,-0.0281 39.1664,47.09129 21.67064,108.15155 43.40626,145.79875 16.41587,28.43312 37.69121,72.95828 86.55057,72.95828 37.63107,0 82.0791,-23.89805 131.73245,-83.95496 C 587.15073,191.04758 643.66096,151.0881 707.0281,131.22677 770.39519,111.36545 806.80835,99.070635 816.26615,94.341737 Z M 243.83416,112.07397 c -15.13243,0 -22.7,6.38483 -22.7,19.15285 0,12.76802 6.62139,19.15105 19.86228,19.15105 15.13243,0 22.69821,-5.90994 22.69821,-17.73219 0.9458,-13.71379 -5.6738,-20.57171 -19.86049,-20.57171 z M 110.5473,316.6506 c -16.774622,0.133 -32.876178,10.4402 -48.304187,30.92222 -17.96978,24.11731 -13.240744,74.24451 14.186828,150.37966 L 160.84149,729.90417 H 50.894009 c -22.225773,0 -37.239932,8.03883 -45.0425977,24.11707 -7.8026996,16.07821 -7.8026996,32.39247 0,48.94357 7.8026657,16.55111 22.8168247,24.82651 45.0425977,24.82651 H 803.49818 c 20.33423,0 35.22923,-8.2754 44.68699,-24.82651 9.45778,-16.5511 9.45778,-32.86536 0,-48.94357 -9.45776,-16.07824 -24.35276,-24.11707 -44.68699,-24.11707 H 197.01709 l -14.89626,-41.14163 c -1.89154,-6.14757 -1.18193,-16.55003 2.12829,-31.20958 6.62045,-23.64445 25.77319,-46.58008 57.45675,-68.80585 L 148.78295,446.17119 c -7.56625,-11.34937 -4.25645,-26.00958 9.93024,-43.97936 18.44265,-25.53599 15.8425,-47.99853 -7.80195,-67.38698 -13.86154,-12.20644 -27.31702,-18.2577 -40.36394,-18.15425 z m 1.58589,29.53209 c 6.78855,-0.28447 13.80296,2.78032 21.04407,9.19387 12.768,10.87648 10.64092,25.06181 -6.38308,42.55869 -17.96979,18.44265 -18.91594,38.77813 -2.83773,61.0039 l 79.44552,123.42308 c -20.33423,10.40356 -34.99446,27.19089 -43.97935,50.36243 L 99.839381,467.45053 C 79.978022,412.59542 75.722073,378.07464 87.07141,363.88794 c 7.980008,-11.43801 16.33365,-17.3395 25.06178,-17.70525 z M 58.697752,752.60238 h 733.449528 0.002 c 16.55111,0 27.9015,4.25598 34.04911,12.76797 6.14638,8.51199 6.26312,17.26046 0.35203,26.24535 -5.91112,8.9849 -17.37893,13.4774 -34.40293,13.4774 H 58.697752 c -15.605331,0 -25.653893,-4.6099 -30.146337,-13.83121 -4.492445,-9.22134 -4.492445,-17.96979 0,-26.24537 4.492444,-8.27553 14.541006,-12.41414 30.146337,-12.41414 z m 366.768768,115.0895 c -11.61533,-10e-6 -19.90604,5.85218 -24.8714,17.55618 -5.20177,15.60533 1.18306,26.2461 19.15284,31.92081 17.49688,4.72889 29.55517,-0.47332 36.17561,-15.60568 5.67471,-16.07818 -0.23527,-26.71903 -17.73219,-31.92083 -4.61066,-1.30044 -8.85308,-1.95048 -12.72486,-1.95048 z m -107.10975,0.39871 c -11.61532,0.79799 -19.90427,6.51747 -24.86961,17.15747 -5.20179,15.60533 1.18129,26.2461 19.15106,31.92081 17.49692,4.25596 29.55516,-1.18272 36.1756,-16.31512 5.67468,-16.07826 -0.23527,-26.71908 -17.73218,-31.92081 -4.61066,-0.82757 -8.85309,-1.10833 -12.72487,-0.84235 z m 214.2195,0.31073 c -11.61536,-2e-5 -19.90609,5.85217 -24.8714,17.55617 -5.20181,15.60533 1.18306,26.24614 19.15285,31.92081 17.49691,4.72891 29.55516,-0.47324 36.1756,-15.60569 5.67467,-16.07827 -0.23711,-26.71908 -17.73399,-31.92081 -4.61068,-1.30045 -8.85128,-1.95048 -12.72306,-1.95048 z"
     sodipodi:nodetypes="csccscccssccscccsccccccsccssccccccccccccccccccscccccccccssccssssscssscsssccsssssssscccccccsssccccccsssscsssssssscccssscccssccccsc" />
  <path
     style="fill:#613583;stroke:none;stroke-width:0.999992"
     d="m 257.47487,882.12651 c 6.52712,18.49322 -2.44751,32.63518 -26.92386,42.42577 -37.53058,16.3178 -99.53766,41.33819 -186.021272,75.06127 -7.615181,1.08855 -13.054548,-2.71888 -16.318102,-11.4223 L 2.1038264,918.02546 C -1.7037677,909.32251 -0.34448964,903.61128 6.1816607,900.89177 99.192383,882.39846 166.36666,869.6163 207.70451,862.54518 c 26.10845,-4.89508 42.69808,1.63202 49.7689,19.58133 z M 51.872252,963.71496 c 0,2.71861 1.359279,3.53518 4.077835,2.44963 2.718556,0.54439 50.583683,-17.40518 143.595373,-53.84863 17.40551,-9.24661 25.56425,-16.58942 24.47618,-22.02852 -2.17419,-5.43935 -13.05261,-6.25584 -32.63524,-2.44953 -100.625579,20.12506 -152.02611,30.73146 -154.201599,31.81924 -3.263554,1.08858 -3.807909,2.99236 -1.633063,5.71124 z M 820.43447,926.18395 c 2.17425,-2.71851 1.62989,-4.6222 -1.63304,-5.71078 -1.63305,-1.08869 -53.03374,-11.69528 -154.20207,-31.81973 -19.58102,-4.35135 -30.45943,-3.53478 -32.63526,2.44962 -0.54435,5.43936 7.61455,12.78234 24.47668,22.02895 93.55443,36.44287 141.41953,54.39226 143.59532,53.84815 2.71859,1.08867 4.3504,0.2721 4.89541,-2.44964 z M 598.51426,882.94256 c 7.07083,-17.94956 23.66048,-24.74872 49.76892,-20.39738 41.88187,7.61486 109.05617,20.66908 201.52285,39.16264 6.52707,2.17421 7.88632,7.88543 4.07777,17.13369 l -26.10777,70.16576 c -3.26355,8.7026 -8.70274,12.23793 -16.31757,10.60628 -86.48362,-33.17934 -148.49088,-57.92763 -186.02178,-74.24516 -24.47635,-9.79065 -33.45098,-23.93261 -26.92386,-42.42583 z"
     id="path1-9"
     sodipodi:nodetypes="cccccccccccccccccccccccccccccccccc" />
</svg>
