<?xml version="1.0" encoding="UTF-8" standalone="no"?>
<svg
   width="1000"
   height="1000"
   version="1.1"
   id="svg1"
   sodipodi:docname="13C1C.svg"
   inkscape:version="1.4.2 (f4327f4, 2025-05-13)"
   xmlns:inkscape="http://www.inkscape.org/namespaces/inkscape"
   xmlns:sodipodi="http://sodipodi.sourceforge.net/DTD/sodipodi-0.dtd"
   xmlns="http://www.w3.org/2000/svg"
   xmlns:svg="http://www.w3.org/2000/svg">
  <defs
     id="defs1" />
  <sodipodi:namedview
     id="namedview1"
     pagecolor="#ffffff"
     bordercolor="#666666"
     borderopacity="1.0"
     inkscape:showpageshadow="2"
     inkscape:pageopacity="0.0"
     inkscape:pagecheckerboard="0"
     inkscape:deskcolor="#d1d1d1"
     inkscape:zoom="0.755"
     inkscape:cx="582.11921"
     inkscape:cy="248.34437"
     inkscape:window-width="1680"
     inkscape:window-height="998"
     inkscape:window-x="-8"
     inkscape:window-y="-8"
     inkscape:window-maximized="1"
     inkscape:current-layer="svg1" />
  <path
     id="path1"
     style="fill:#000000;stroke:none;stroke-width:1"
     d="M 832.89453,0 C 691.98951,77.137807 601.3532,148.87633 560.98438,215.21484 520.61563,281.55332 490.01862,319.22127 469.19141,328.2207 402.39645,353.51876 357.32463,294.7403 355.79883,232.18555 346.78176,129.28532 332.66315,106.76371 279.43164,93.335938 250.89067,86.136414 220.42133,91.793565 188.02344,110.30664 163.33937,101.05008 140.9699,96.421875 120.91406,96.421875 c -15.42755,7.199525 -18.77154,13.371145 -10.02929,18.513675 61.19599,39.08315 106.19405,68.26634 134.99218,87.55078 28.7981,19.28448 47.82548,51.9393 57.08203,97.96484 9.25652,46.02554 38.56929,99.37879 87.9375,160.06055 47.31117,42.16865 70.9668,77.65304 70.9668,106.45117 -4.62826,20.57007 -18.64254,44.99738 -42.04101,73.28125 -23.39847,28.28383 -37.15355,56.56769 -41.26758,84.85156 -0.51423,14.39908 2.31335,25.19891 8.48437,32.39844 9.25656,-3.5998 14.39928,-8.9997 15.42774,-16.19922 -2.57126,-16.45605 -2.05679,-27.6408 1.54297,-33.55469 3.5998,-5.91389 7.19906,-12.72956 10.79882,-20.44335 6.17103,15.42755 8.74142,32.14181 7.71289,50.14062 12.85632,-9.25648 18.51348,-19.28465 16.97071,-30.08398 l -4.62696,-44.74024 c 27.76959,-27.7696 48.08122,-56.56786 60.9375,-86.39453 11.82783,2.57127 20.31255,7.45673 25.45508,14.65625 -3.08553,23.14138 -14.14066,45.12591 -33.16797,65.95312 -19.02735,20.82721 -32.14032,43.58351 -39.33984,68.26758 2.05699,31.88373 6.17074,48.59602 12.3418,50.13868 8.74225,-11.31356 11.56986,-20.57001 8.48437,-27.76954 -3.08549,-7.19953 -3.34271,-13.75603 -0.77148,-19.66992 2.57127,-5.91393 5.6561,-11.95596 9.25586,-18.12695 7.19952,7.19953 10.80078,24.16907 10.80078,50.91015 9.77079,-7.19952 15.42794,-16.19871 16.9707,-26.99804 -6.68529,-23.1413 -7.71424,-40.62531 -3.08594,-52.45313 27.25533,-28.28387 47.82417,-61.71041 61.70899,-100.27929 25.98851,-11.41373 52.71401,-20.16405 75.5957,2.31445 13.88478,45.76841 48.08302,61.70904 102.59375,47.82422 8.74229,15.42759 27.51245,21.08469 56.31055,16.9707 0.51427,-26.74114 -7.9705,-44.48232 -25.45508,-53.22461 4.62826,-62.22445 -18.25759,-92.30895 -68.6543,-90.25195 C 659.07729,462.82606 631.82237,433.25802 623.08008,415.77344 803.85664,320.92157 857.17026,255.32099 930.86133,65.566406 L 815.92578,101.05078 C 830.32497,83.566204 835.98021,49.882437 832.89453,0 Z m -29.3125,47.826172 c 4.11403,20.570074 -7.45561,43.968446 -34.71094,70.195308 -75.08081,21.08431 -145.79038,69.42251 -212.1289,145.01758 47.31117,-82.7946 129.59039,-154.53117 246.83984,-215.212888 z m 84.08203,54.767578 C 848.58091,231.15676 735.44558,338.1205 548.25781,423.48633 l 16.19727,12.34179 38.57031,-10.79882 c 20.57007,33.94062 49.8809,65.82376 87.93555,95.65039 41.65441,5.65679 62.73963,26.99927 63.2539,64.02539 -0.51427,20.56996 -15.42787,29.05473 -44.74023,25.45508 -16.97031,2.57127 -31.11223,-7.45688 -42.42578,-30.08399 C 631.37159,521.46385 565.57818,551.74608 556.74219,556.16406 L 511.23047,533.79297 C 433.20266,466.40262 359.37268,389.14961 342.61837,339.19634 325.77361,288.97342 303.47058,214.10176 272.49023,191.30273 257.64157,180.37531 231.99275,162.24621 193.42383,139.61914 l 8.48437,-13.11328 c 47.21663,-21.82282 79.89138,-21.83285 98.02458,-0.0306 42.59224,51.21031 23.56615,117.61144 47.20296,158.5516 17.85175,30.92013 40.98801,79.33986 94.12105,79.33986 40.92261,0 89.25846,-25.98839 143.25493,-91.29841 C 638.50818,207.75829 699.9613,164.3036 768.87109,142.70503 837.78083,121.10646 877.379,107.73623 887.66406,102.5937 Z m -622.50195,19.2832 c -16.45605,0 -24.68555,6.94331 -24.68555,20.82813 0,13.88482 7.20056,20.82617 21.59961,20.82617 16.45605,0 24.6836,-6.42688 24.6836,-19.2832 1.02853,-14.91332 -6.17008,-22.3711 -21.59766,-22.3711 z M 120.2168,344.34766 c -18.24188,0.14464 -35.751821,11.3534 -52.5293,33.62695 -19.541576,26.22683 -14.398897,80.7386 15.427734,163.5332 L 174.91016,793.74805 H 55.345703 c -24.169836,0 -40.497266,8.74198 -48.9824218,26.22656 -8.4851928,17.48455 -8.4851928,35.2258 0,53.22461 8.4851558,17.99881 24.8125858,26.99805 48.9824218,26.99805 H 873.7793 c 22.11284,0 38.31068,-8.99924 48.5957,-26.99805 10.28505,-17.99881 10.28505,-35.74006 0,-53.22461 -10.28502,-17.48458 -26.48286,-26.22656 -48.5957,-26.22656 H 214.25 l -16.19922,-44.74024 c -2.05699,-6.68529 -1.28531,-17.99764 2.31445,-33.93945 7.19953,-25.7126 28.02754,-50.65439 62.48243,-74.82422 L 161.79688,485.19727 c -8.22806,-12.34209 -4.62876,-28.28461 10.79882,-47.82618 20.05581,-27.7696 17.22823,-52.19691 -8.48437,-73.28125 -15.074,-13.27412 -29.70641,-19.85468 -43.89453,-19.74218 z m 1.72461,32.11523 c 7.38233,-0.30935 15.01028,3.02351 22.88476,9.99805 13.88481,11.82783 11.57167,27.25394 -6.9414,46.28125 -19.54158,20.05581 -20.57049,42.17001 -3.08594,66.33984 l 86.39453,134.21875 c -22.11284,11.31355 -38.05538,29.56925 -47.82617,54.76758 L 108.57227,508.33789 C 86.973661,448.68467 82.345449,411.14439 94.6875,395.7168 c 8.67801,-12.43848 17.76234,-18.85617 27.25391,-19.25391 z M 63.832031,818.43164 h 797.603519 0.002 c 17.99881,0 30.34201,4.62825 37.02734,13.88477 6.684,9.25653 6.81095,18.77022 0.38282,28.54101 -6.42816,9.77079 -18.89904,14.65625 -37.41211,14.65625 H 63.832031 c -16.970312,0 -27.89781,-5.01312 -32.783203,-15.04101 -4.885394,-10.02792 -4.885394,-19.54159 0,-28.54102 4.885393,-8.99939 15.812891,-13.5 32.783203,-13.5 z M 462.68164,943.58789 c -12.63131,-10e-6 -21.6472,6.36406 -27.04687,19.0918 -5.65676,16.97031 1.28654,28.54182 20.82812,34.71289 19.02731,5.14252 32.14032,-0.51473 39.33984,-16.9707 6.17107,-17.48451 -0.25585,-29.05611 -19.2832,-34.7129 -5.01395,-1.41419 -9.62745,-2.12109 -13.83789,-2.12109 z m -116.47852,0.43359 c -12.63129,0.86778 -21.64527,7.08754 -27.04492,18.65821 -5.65679,16.97031 1.28461,28.54182 20.82618,34.71289 19.02735,4.62822 32.14032,-1.28617 39.33984,-17.74219 6.17103,-17.48461 -0.25585,-29.05617 -19.2832,-34.71289 -5.01395,-0.89995 -9.62746,-1.20527 -13.8379,-0.91602 z m 232.95704,0.3379 c -12.63134,-2e-5 -21.64726,6.36406 -27.04688,19.09179 -5.6568,16.97031 1.28655,28.54186 20.82813,34.71289 19.02735,5.14254 32.14032,-0.51463 39.33984,-16.9707 6.17103,-17.48462 -0.25785,-29.05617 -19.28516,-34.71289 -5.01397,-1.4142 -9.62549,-2.12109 -13.83593,-2.12109 z"
     sodipodi:nodetypes="csccscccssccscccsccccccsccssccccccccccccccccccscccccccccssccssssscssscsssccsssssssscccccccsssccccccsssscsssssssscccssscccssccccsc" />
</svg>
