<?xml version="1.0" encoding="UTF-8" standalone="no"?>
<svg
   width="1100"
   height="1000"
   version="1.1"
   id="svg1"
   sodipodi:docname="13C30.svg"
   inkscape:version="1.4.2 (f4327f4, 2025-05-13)"
   xmlns:inkscape="http://www.inkscape.org/namespaces/inkscape"
   xmlns:sodipodi="http://sodipodi.sourceforge.net/DTD/sodipodi-0.dtd"
   xmlns="http://www.w3.org/2000/svg"
   xmlns:svg="http://www.w3.org/2000/svg">
  <defs
     id="defs1" />
  <sodipodi:namedview
     id="namedview1"
     pagecolor="#ffffff"
     bordercolor="#666666"
     borderopacity="1.0"
     inkscape:showpageshadow="2"
     inkscape:pageopacity="0.0"
     inkscape:pagecheckerboard="0"
     inkscape:deskcolor="#d1d1d1"
     inkscape:zoom="1.0677312"
     inkscape:cx="331.07582"
     inkscape:cy="372.2847"
     inkscape:window-width="1680"
     inkscape:window-height="998"
     inkscape:window-x="-8"
     inkscape:window-y="-8"
     inkscape:window-maximized="1"
     inkscape:current-layer="svg1" />
  <path
     id="path1"
     style="fill:#000000;stroke:none;stroke-width:0.999999"
     d="m 305.49023,97.767578 c -26.7706,30.126362 -41.34902,74.271372 -47.4375,131.044922 -16.10602,-3.27369 -62.82353,-8.12929 -106.77539,31.98633 -41.2333,-64.73059 -77.527468,-105.94628 -95.742184,-112.28711 -20.414616,-2.78195 -29.954009,6.83287 -28.617187,28.84766 13.531618,39.01216 42.480751,77.61139 87.785151,112.04882 5.62659,3.47812 5.51446,11.56655 3.00391,21.79297 -3.32678,10.47873 -5.10965,21.22694 -5.12305,32.24024 0.31012,26.94177 10.14418,104.82813 111.55664,123.27734 1.46354,36.3267 7.6763,72.07136 21.28516,99.28906 16.82585,33.65173 40.03468,67.01437 69.625,100.08594 29.59032,33.07151 101.82493,109.65794 216.70508,229.75977 v 1.74023 h -0.87109 L 225.4082,868.00391 C 191.17625,866.84354 145.92025,884.39555 89.640625,920.6582 33.360996,956.92081 3.4812245,978.53166 0,985.49414 c 6.9624193,11.60399 20.597193,16.24656 40.904297,13.92578 35.392341,-21.4675 74.266333,-44.67636 116.621093,-69.625 -8.12282,42.93495 -3.77119,64.40235 13.05469,64.40235 20.30707,1.16043 30.74989,-22.04639 31.33008,-69.62305 5.22183,-8.12279 13.92511,-12.18555 26.10937,-12.18555 83.54912,7.54261 226.85886,19.43791 429.92969,35.6836 46.41623,13.92484 73.10594,4.64169 80.06836,-27.84961 3.48123,-12.7645 0.28924,-39.01984 -9.57422,-78.76368 -9.86346,-39.74387 -38.0018,-100.95396 -84.41797,-183.63281 -46.4162,-82.67881 -130.33588,-184.05315 -255,-300.68945 -6.97434,-6.52522 -25.94888,-9.64841 -35.19141,-6.27534 4.00306,-65.92465 -22.87229,-86.81706 -52.8164,-104.4336 C 332.67778,173.82225 347.8907,125.19241 342.3457,108.72852 338.07035,86.606027 326.87474,79.841669 305.49023,97.767578 Z M 229.26015,273.32354 c 32.93792,-0.93432 65.50603,3.66584 81.93338,34.41329 8.39892,15.72045 12.05803,46.11173 2.65022,62.58153 -4.91039,8.59638 4.81066,27.13281 20.04492,27.13281 10.2969,0 21.71099,1.73538 34.25,5.81055 37.13295,28.42992 80.93841,69.62515 131.41602,123.58398 50.47761,53.9588 93.70323,118.21546 129.67578,192.77149 35.97253,74.55599 56.5692,123.43836 61.79101,146.64648 7.54263,31.3309 -2.32035,41.48477 -29.58984,30.46094 C 621.39784,881.0589 555.25414,832.61114 463.00195,751.38281 315.63056,608.65302 252.96794,506.8275 275.01562,445.90625 c 2.76547,-7.68184 -16.77252,-9.96974 -32.68359,-11.44336 -34.59556,-3.20411 -88.71071,-18.97186 -89.9375,-86.13281 -0.74202,-40.62214 23.63493,-73.4966 76.86562,-75.00654 z"
     sodipodi:nodetypes="ccccccsscssccccsccccccccsssccccsssscssccccsss" />
  <g
     id="g1"
     transform="rotate(11.368212,489.01635,844.26344)"
     inkscape:transform-center-x="40.691504"
     inkscape:transform-center-y="-134.18752" />
</svg>
