<?xml version="1.0" encoding="UTF-8" standalone="no"?>
<svg
   width="24.579071"
   height="17.977583"
   version="1.1"
   id="svg1"
   sodipodi:docname="13C52.svg"
   inkscape:version="1.4.2 (f4327f4, 2025-05-13)"
   xmlns:inkscape="http://www.inkscape.org/namespaces/inkscape"
   xmlns:sodipodi="http://sodipodi.sourceforge.net/DTD/sodipodi-0.dtd"
   xmlns="http://www.w3.org/2000/svg"
   xmlns:svg="http://www.w3.org/2000/svg">
  <defs
     id="defs1" />
  <sodipodi:namedview
     id="namedview1"
     pagecolor="#ffffff"
     bordercolor="#666666"
     borderopacity="1.0"
     inkscape:showpageshadow="2"
     inkscape:pageopacity="0.0"
     inkscape:pagecheckerboard="0"
     inkscape:deskcolor="#d1d1d1"
     showguides="true"
     inkscape:zoom="45.254834"
     inkscape:cx="9.2697279"
     inkscape:cy="11.192175"
     inkscape:window-width="1680"
     inkscape:window-height="998"
     inkscape:window-x="-8"
     inkscape:window-y="-8"
     inkscape:window-maximized="1"
     inkscape:current-layer="svg1">
    <sodipodi:guide
       position="15.374097,17.030235"
       orientation="0.99920096,0.039968013"
       id="guide1"
       inkscape:locked="false" />
  </sodipodi:namedview>
  <path
     style="fill:#000000;stroke:none"
     d="M 9.1835938,0 C 7.5092111,0 6.5018765,0.55757279 6.1640625,1.6738281 L 0.171875,4.9785156 c -0.29375133,0.3818767 -0.21312717,0.5518752 0.2421875,0.5078125 4.009706,-1.7331326 6.2730447,-2.62875 6.7871094,-2.6875 -1.2631307,1.14563 -1.7935166,2.4040564 -1.5878907,3.7773438 0.205626,1.373288 1.4324896,2.4971837 3.6796876,3.3710937 C 11.540167,10.821176 13.230385,11.589059 14.361328,12.25 12.407881,12.27937 11.008598,12.2415 10.164062,12.138672 9.3195272,12.035859 7.8464158,12.270935 5.7460938,12.84375 4.8795278,12.726249 4.4385161,12.796688 4.4238281,13.252 c 0.2937514,-0.146875 0.4817187,-0.08083 0.5625,-4.8e-5 0.055925,0.05593 0.1946628,0.08944 0.4160157,0.09961 H 0.32617188 v 0.902344 H 18.589844 l 3.613281,3.701172 v 0.02344 l 0.904297,-0.02344 V 13.351562 H 11.761719 c -0.01469,-0.161563 -0.52273,-0.286874 -1.521485,-0.375 l -1.1894528,-0.396484 6.3671878,0.683594 c 0.528752,0 0.763828,-0.205936 0.705078,-0.617188 L 15.638672,11.125 c 1.116256,-0.146876 1.97156,-0.281405 2.566406,-0.40625 0.594846,-0.124844 1.450151,0.285074 2.566406,1.232422 1.116256,0.947349 2.072107,0.577742 2.865235,-1.111328 C 23.166717,10.208278 22.725706,9.6798449 22.314453,9.2539062 22.916644,9.1364056 23.113829,8.9372671 22.908203,8.6582031 22.335388,8.2763265 21.262976,7.7770342 19.691406,7.1601562 18.45765,6.6901542 16.872352,6.1976584 14.933594,5.6835938 l 3.0625,-3.8984376 c 0.117501,-0.1762506 0.271952,-0.272422 0.46289,-0.2871093 0.205626,0 0.373672,0.096171 0.50586,0.2871093 l 3.52539,4.9335938 c 0.279064,0.3084387 0.462656,0.426953 0.550782,0.3535156 0.235,-0.205626 0.257345,-0.4921856 0.06641,-0.859375 0.08813,0.1028134 0.202265,0.1834375 0.341797,0.2421875 0.139532,0.058751 0.253671,0.043204 0.341797,-0.044922 0.102812,-0.073437 0.131952,-0.1788273 0.08789,-0.3183593 -0.04406,-0.139532 -0.111093,-0.2604679 -0.199218,-0.3632813 0.352502,0.2350014 0.639062,0.2573449 0.859374,0.066406 0.102814,-0.088125 0.0066,-0.2872645 -0.287109,-0.5957031 L 19.648438,1.1894531 18.414062,0.1328125 14.25,5.4414062 12.751953,5.1113281 C 11.121633,4.7882015 9.8656297,4.7658585 8.984375,5.0449219 8.1031217,5.3239859 7.6640625,5.3463288 7.6640625,5.1113281 c 0,-0.2350013 0.4614021,-0.7410899 1.3867187,-1.5195312 C 9.9760979,2.8133562 10.365626,1.96727 10.21875,1.0566406 c 2.100323,0.9987547 3.840072,1.5135941 5.220703,1.5429688 L 15.417297,2.027347 C 14.594802,1.9685937 12.685947,1.5722693 10.703125,0.83789062 12.994386,1.3960186 14.969327,1.6087505 15.395266,1.4765625 L 15.375,0.94726562 C 12.070297,0.75632762 10.006098,0.44062733 9.1835938,0 Z M 8.2519531,0.52539062 C 8.5307876,0.51621078 8.8008775,0.57656187 9.0625,0.70507812 9.4810953,0.91070412 9.6782813,1.248748 9.65625,1.71875 9.6342187,2.1887527 9.2019572,2.7910126 8.3574219,3.5253906 7.5128872,4.2597693 7.0607038,4.7770297 7.0019531,5.078125 c -0.05875,0.3010947 0.026249,0.5473426 0.2539063,0.7382812 0.2276573,0.190938 1.0674157,0.05883 2.5214844,-0.3964843 -1.3071934,0.4406266 -1.9609376,0.9758565 -1.9609376,1.6074219 0,0.5287526 0.5507765,0.9697642 1.6523438,1.3222656 2.731888,0.7050033 6.837944,1.0653901 12.316406,1.0800781 0.572817,0.396564 1.007031,0.8735135 1.300782,1.4316405 -0.470003,1.204381 -1.201949,1.354457 -2.19336,0.451172 -0.991411,-0.903285 -1.851091,-1.29961 -2.578125,-1.189453 -0.727035,0.110157 -1.633823,0.231093 -2.720703,0.363281 -0.08812,-0.08812 -0.336796,-0.211484 -0.748047,-0.373047 l 0.705078,2.466797 c 0.04406,0.176251 -0.04531,0.301563 -0.265625,0.375 L 14.625,12.513672 c 0.381877,-0.08812 0.448907,-0.271718 0.199219,-0.550781 C 14.545155,11.566326 13.083215,10.867895 10.439453,9.8691406 7.7956911,8.870386 6.3808603,7.7372715 6.1972656,6.4667969 6.013671,5.1963222 6.5688221,4.0097705 7.8613281,2.9082031 7.8466408,2.5557011 7.5017999,2.3497663 6.8261719,2.2910156 L 6.5839844,1.7851562 C 6.892423,1.1535909 7.2775764,0.76406283 7.7402344,0.6171875 7.9137314,0.562109 8.0846524,0.5308985 8.2519531,0.52539062 Z m -0.6074219,0.3671875 c -0.1506624,0.002238 -0.2906053,0.0868351 -0.421875,0.25390628 -0.044063,0.2496886 0.029765,0.410937 0.2207032,0.484375 0.337814,0.044063 0.5214059,-0.045312 0.5507812,-0.265625 C 8.0382033,1.1155457 7.9575791,0.96109442 7.7519531,0.90234375 7.7161521,0.894082 7.6792995,0.89206176 7.6445312,0.89257812 Z M 19.361328,1.5429688 23.591797,5.2207031 22.599609,6.0585938 Z m -7.732422,4.0644531 c 0.690316,-0.022031 2.908967,0.5020267 6.654297,1.5742187 2.687824,0.9840674 4.053594,1.5124995 4.097656,1.5859375 -0.425938,0.088125 -1.881082,0.1192184 -4.363281,0.089844 C 11.599111,8.3433565 8.390625,7.7323471 8.390625,7.0273438 8.4053117,6.7482804 8.7749178,6.4481267 9.5019531,6.125 10.228987,5.8018733 10.93859,5.6294532 11.628906,5.6074219 Z m 8.0625,8.6464841 h 2.535156 v 2.511719 z"
     id="path1"
     sodipodi:nodetypes="cccccsscccccccccccccccccccsscccccccccccscscccccccssscccccccsssssscscccssccccccsscccsssccccsccccsccccsscccc" />
</svg>
