<?xml version="1.0" encoding="UTF-8" standalone="no"?>
<svg
   width="1800"
   height="1800"
   id="svg1333"
   sodipodi:version="0.32"
   inkscape:version="1.4.2 (f4327f4, 2025-05-13)"
   sodipodi:docname="13C54.svg"
   version="1.0"
   inkscape:output_extension="org.inkscape.output.svg.inkscape"
   sodipodi:modified="true"
   xmlns:inkscape="http://www.inkscape.org/namespaces/inkscape"
   xmlns:sodipodi="http://sodipodi.sourceforge.net/DTD/sodipodi-0.dtd"
   xmlns="http://www.w3.org/2000/svg"
   xmlns:svg="http://www.w3.org/2000/svg"
   xmlns:rdf="http://www.w3.org/1999/02/22-rdf-syntax-ns#"
   xmlns:cc="http://creativecommons.org/ns#"
   xmlns:dc="http://purl.org/dc/elements/1.1/">
  <metadata
     id="metadata1340">
    <rdf:RDF>
      <cc:Work
         rdf:about="">
        <dc:format>image/svg+xml</dc:format>
        <dc:type
           rdf:resource="http://purl.org/dc/dcmitype/StillImage" />
      </cc:Work>
    </rdf:RDF>
  </metadata>
  <defs
     id="defs1338">
    <inkscape:perspective
       sodipodi:type="inkscape:persp3d"
       inkscape:vp_x="0 : 11.359375 : 1"
       inkscape:vp_y="0 : 1000 : 0"
       inkscape:vp_z="27.122927 : 11.359375 : 1"
       inkscape:persp3d-origin="13.561463 : 7.5729167 : 1"
       id="perspective7" />
  </defs>
  <sodipodi:namedview
     inkscape:window-height="998"
     inkscape:window-width="1680"
     inkscape:pageshadow="2"
     inkscape:pageopacity="0.0"
     borderopacity="1.0"
     bordercolor="#666666"
     pagecolor="#ffffff"
     id="base"
     showguides="true"
     inkscape:guide-bbox="true"
     inkscape:zoom="1.1222222"
     inkscape:cx="1013.6138"
     inkscape:cy="526.18811"
     inkscape:window-x="-8"
     inkscape:window-y="-8"
     inkscape:current-layer="svg1333"
     showgrid="false"
     inkscape:showpageshadow="2"
     inkscape:pagecheckerboard="0"
     inkscape:deskcolor="#d1d1d1"
     inkscape:window-maximized="1">
    <sodipodi:guide
       position="1175.4193,1438.465"
       orientation="0.99875234,0.049937637"
       id="guide1"
       inkscape:locked="false" />
  </sodipodi:namedview>
  <path
     style="fill:#000000;stroke:none"
     d="m 701.03516,288.71289 c -128.02797,0 -205.12095,43.93156 -230.95118,129 L 12.345703,669.46875 C -8.9923042,697.45172 -2.6193311,708.19778 31.072266,704.83984 338.78871,573.87931 510.96466,506.53417 549.14844,500.9375 452.56592,589.36391 412.74994,685.488 428.47266,790.14453 c 15.72271,104.65654 110.57623,189.87799 282.96484,255.91797 172.38862,66.0399 300.5229,124.404 386.998,174.7734 -149.36601,3.358 -255.28088,1.593 -320.41792,-6.2421 -65.13711,-7.8352 -178.54605,10.4441 -339.14258,54.0976 -56.02877,-7.5718 -88.33455,0.046 -97.78906,22.8867 -9.76525,-0.1797 -18.45936,0 -29.12891,0 V 1801.332 H 1597.7871 v -509.7539 c -80.1598,0 -139.6193,-2.154 -145.6445,66.5801 -3.9114,44.6213 -16.9696,102.0973 -29.1289,176.8535 -12.159,74.7561 -62.7463,99.8711 -178.9336,99.8711 -116.1875,0.9007 -166.7745,-22.5845 -178.9336,-97.791 -12.1591,-75.2065 -28.0633,-135.4958 -31.211,-178.9336 -2.5745,-35.5267 -38.87534,-64.5 -74.9023,-64.5 h -14.56445 c -36.0271,0 -66.49637,30.326 -68.66016,64.5 -2.62672,41.4862 -19.04997,103.7271 -31.20898,178.9336 -12.15915,75.2065 -62.748,98.6917 -178.93555,97.791 -116.18726,0 -166.7744,-25.115 -178.93359,-99.8711 -12.15907,-74.7562 -24.95491,-132.4203 -31.21094,-176.8535 -3.72369,-26.4474 -13.83503,-42.4781 -31.20898,-52.0156 5.63773,0.067 9.90816,0.2239 16.64648,0 h 459.81836 c -1.12308,-13.4318 -41.10509,-22.413 -118.5957,-29.1289 l -89.4668,-29.1289 484.78711,49.9355 c 40.4299,0 58.5879,-15.5538 54.0957,-45.7754 l -37.4512,-114.4336 c 85.352,-11.1932 152.1766,-21.6948 197.6602,-31.209 45.4836,-9.5142 110.2279,21.4308 195.5801,93.627 85.3521,72.1962 157.822,43.4172 218.4668,-85.3047 -35.9377,-49.2501 -67.4688,-90.2975 -97.7911,-122.7578 44.922,-7.83522 59.4163,-21.30695 43.6934,-43.69336 -43.799,-29.1024 -126.8656,-67.98373 -247.5937,-114.43555 C 1383.432,787.38608 1207.0266,735.99568 975.67773,677.79102 849.89581,654.28529 753.8539,652.92148 686.4707,673.62891 c -67.38315,20.70746 -101.95119,21.51159 -101.95117,4.16211 0,-17.34946 35.36097,-55.11156 106.11328,-114.43555 70.75235,-59.32398 100.69736,-124.1002 89.4668,-193.49805 160.59652,76.1138 294.87239,114.277 401.56249,116.51563 l -2.1856,-43.69336 c -64.0141,-4.47726 -210.31353,-33.50079 -361.92572,-89.4668 176.31925,42.53418 327.27662,57.92744 359.84512,47.85352 l -1.9779,-39.53125 C 922.73298,346.98399 763.92612,322.29243 701.03516,288.71289 Z m -63.98633,38.58984 c 18.99852,0.74157 37.34429,6.37642 55.66406,15.50586 32.56852,16.23013 48.0196,41.16608 45.77344,76.98438 -2.24608,35.8183 -35.29555,81.91592 -99.8711,137.32226 -64.57558,55.40641 -100.10058,95.09 -104.03125,118.59571 -3.93067,23.50573 3.96086,42.18425 20.80664,56.17578 16.84578,13.99149 80.23573,4.45072 191.41797,-29.12891 -99.95169,33.57961 -149.80469,74.62696 -149.80468,122.75781 0,40.29553 42.68908,73.00741 126.91797,99.8711 208.88789,53.72739 522.50562,82.10528 942.52732,83.22458 43.7991,30.2217 76.4512,65.6592 97.7891,108.1934 -35.9376,90.6649 -91.2066,102.1272 -166.4512,33.2891 -75.2446,-68.8383 -141.5076,-98.4214 -197.6601,-89.4668 -56.1527,8.9546 -123.9996,16.975 -205.9825,27.0488 -7.8614,-6.7159 -28.8924,-14.7363 -60.3379,-27.0488 l 54.0957,187.2578 c 3.3691,13.4318 -3.002,23.5323 -18.7246,29.1289 l -52.0156,-33.291 c 29.1994,-6.7159 34.6133,-21.307 16.6445,-43.6934 -22.4611,-29.1023 -134.91301,-82.0131 -337.06246,-158.127 C 594.59464,965.78854 486.20415,879.2032 472.16602,781.82227 458.12783,684.44136 502.3354,594.16959 601.16406,511.33984 c 0,-27.983 -26.27902,-44.49554 -79.0625,-47.85351 L 503.375,423.95312 c 23.58409,-47.01143 52.01059,-77.71391 87.38672,-89.46679 8.84404,-2.93825 18.38026,-5.05294 27.04883,-6.24219 6.50142,-0.89196 12.90544,-1.18859 19.23828,-0.94141 z m -47.21289,29.56836 c -3.21824,-0.20659 -6.89705,0.34456 -9.47656,0.50196 -10.31805,0.62958 -18.62593,6.13424 -27.04883,18.72656 -4.49223,19.02843 -0.0353,30.89377 14.56445,35.37109 25.83017,4.47725 40.32419,-1.93669 43.69336,-18.72656 3.36916,-20.14778 -1.8808,-32.01318 -18.72656,-35.37109 -0.91248,-0.27984 -1.93312,-0.43309 -3.00586,-0.50196 z m 298.45703,358.3711 c 53.34501,-1.67899 224.49863,37.84799 509.75393,120.67773 206.6418,74.99452 309.8495,115.07914 312.0957,120.67578 -32.5687,6.71595 -142.1494,10.56097 -330.8223,8.32227 -491.89699,-40.29558 -738.62303,-87.75504 -738.62303,-141.48242 1.12307,-20.14776 29.71364,-43.47541 85.30468,-68.66016 55.59117,-25.1847 108.946,-37.85422 162.29102,-39.5332 z M 359.81055,1335.2715 c 37.82841,-0.9007 46.44194,8.2863 54.09765,41.6113 7.65584,33.3251 18.59949,92.8119 31.20899,174.7734 12.6095,81.9618 85.44546,123.3174 220.54687,126.92 135.10173,-3.6026 209.56926,-45.4087 222.62891,-126.92 13.06017,-81.5112 21.64301,-138.916 27.04687,-172.6914 5.40411,-33.7754 14.65552,-39.1899 35.3711,-43.6933 h 4.16211 c 20.71538,4.5034 34.12713,9.9179 39.53125,43.6933 5.40398,33.7754 13.9889,91.1801 27.0488,172.6914 13.0598,81.5114 87.5252,123.3174 222.627,126.92 135.1015,-3.6026 210.0175,-44.9583 222.6269,-126.92 12.6098,-81.9615 21.4731,-141.4483 29.1289,-174.7734 7.6556,-33.325 18.3493,-42.512 56.1778,-41.6113 v 422.3672 H 359.81055 Z"
     id="path1335"
     sodipodi:nodetypes="cccccsscsccccccsscsssssscssccccccccsscccscssscccccccsssssscscccssccccccsscccsssssccccssccccsscssccsccsscsscccc" />
</svg>
