<?xml version="1.0" encoding="UTF-8" standalone="no"?>
<svg
   width="1000"
   height="1000"
   id="svg2352"
   sodipodi:version="0.32"
   inkscape:version="1.4.2 (f4327f4, 2025-05-13)"
   sodipodi:docname="13CB4.svg"
   inkscape:output_extension="org.inkscape.output.svg.inkscape"
   sodipodi:modified="true"
   version="1.1"
   xmlns:inkscape="http://www.inkscape.org/namespaces/inkscape"
   xmlns:sodipodi="http://sodipodi.sourceforge.net/DTD/sodipodi-0.dtd"
   xmlns="http://www.w3.org/2000/svg"
   xmlns:svg="http://www.w3.org/2000/svg"
   xmlns:rdf="http://www.w3.org/1999/02/22-rdf-syntax-ns#"
   xmlns:cc="http://creativecommons.org/ns#"
   xmlns:dc="http://purl.org/dc/elements/1.1/">
  <defs
     id="defs2357" />
  <sodipodi:namedview
     inkscape:window-height="998"
     inkscape:window-width="1680"
     inkscape:pageshadow="2"
     inkscape:pageopacity="0.0"
     guidetolerance="10.0"
     gridtolerance="10.0"
     objecttolerance="10.0"
     borderopacity="1.0"
     bordercolor="#666666"
     pagecolor="#ffffff"
     id="base"
     inkscape:showpageshadow="2"
     inkscape:pagecheckerboard="0"
     inkscape:deskcolor="#d1d1d1"
     showguides="true"
     inkscape:zoom="0.53386562"
     inkscape:cx="604.0846"
     inkscape:cy="334.3538"
     inkscape:window-x="-8"
     inkscape:window-y="-8"
     inkscape:window-maximized="1"
     inkscape:current-layer="svg2352">
    <sodipodi:guide
       position="452.0099,914.29213"
       orientation="1,0"
       id="guide1"
       inkscape:locked="false" />
    <sodipodi:guide
       position="514.58503,973.39086"
       orientation="0,-1"
       id="guide2"
       inkscape:locked="false" />
    <sodipodi:guide
       position="575.42196,914.29213"
       orientation="1,0"
       id="guide3"
       inkscape:locked="false" />
    <sodipodi:guide
       position="514.58503,855.1934"
       orientation="0,-1"
       id="guide4"
       inkscape:locked="false" />
    <sodipodi:guide
       position="429.41333,914.29213"
       orientation="1,0"
       id="guide5"
       inkscape:locked="false" />
    <sodipodi:guide
       position="514.58503,995.98744"
       orientation="0,-1"
       id="guide6"
       inkscape:locked="false" />
    <sodipodi:guide
       position="599.75673,914.29213"
       orientation="1,0"
       id="guide7"
       inkscape:locked="false" />
    <sodipodi:guide
       position="429.41333,914.29213"
       orientation="0,-1"
       id="guide8"
       inkscape:locked="false" />
    <sodipodi:guide
       position="514.58511,973.39086"
       orientation="1,0"
       id="guide9"
       inkscape:locked="false" />
  </sodipodi:namedview>
  <path
     id="path2354"
     style="fill:#000000;stroke:none;stroke-width:1"
     d="M 948.65039 0.125 C 927.34564 -0.72406741 904.76417 10.0231 893.51172 56.158203 L 848.31836 252.57422 C 820.07923 244.97136 798.77762 267.14525 785.74414 320.36523 C 788.45962 327.96807 793.78387 329.27239 801.38672 323.8418 C 808.98957 318.41122 818.44706 314.93222 830.9375 311.67383 C 831.4826 327.96565 836.04394 337.31208 843.10352 339.48438 L 839.62891 356.86719 C 751.94177 326.78036 722.75294 321.43665 620.61523 318.62695 C 619.58848 230.65662 583.91894 175.88934 532.91211 165.48828 A 85.1717 81.695312 0 0 0 585.75 130.5918 C 603.3749 145.19689 618.08557 154.46816 629.89062 158.46094 C 640.36627 163.0866 647.11737 165.41992 650.12891 165.41992 C 651.01431 165.41992 651.56209 165.21355 651.80273 164.81445 C 654.61975 162.52557 654.28472 160.23224 650.76367 157.94336 C 627.17124 144.91498 608.49052 130.03647 594.75781 113.31055 L 594.72266 113.37109 A 85.1717 81.695312 0 0 0 599.75586 85.707031 A 85.1717 81.695312 0 0 0 514.58594 4.0117188 A 85.1717 81.695312 0 0 0 429.41406 85.707031 A 85.1717 81.695312 0 0 0 431.0332 101.55859 L 431.01562 101.51562 C 431.01562 125.09631 412.30579 131.46991 409.32812 127.07422 C 401.90339 116.11706 420.95703 99.633574 420.95703 64.658203 C 421.74238 47.166509 409.26786 32.373788 391.42773 31.462891 C 383.21636 31.536081 371.67773 31.691115 371.67773 41.238281 C 371.67773 45.039592 377.84961 47.95102 385.04492 49.037109 C 376.51953 54.556121 372.49023 62.82416 372.49023 70.5625 C 372.49023 96.980646 385.04945 151.81641 407.80078 151.81641 C 422.46298 151.81641 436.12627 141.94257 441.01367 126.87305 L 441.00781 126.85547 A 85.1717 81.695312 0 0 0 492.20117 164.53125 C 467.7089 166.50209 440.54873 172.47348 427.67578 188.26172 C 416.27149 188.26172 410.40207 191.84985 412.03125 202.16797 C 396.82555 206.51248 389.43555 222.37859 389.43555 247.35938 C 395.95231 243.55793 401.38583 241.06037 406.81641 242.14648 C 413.87622 242.14648 420.39781 250.73171 424.19922 266.48047 C 427.89244 281.78086 424.3168 299.02539 417.24609 316.88867 C 335.47982 316.88867 264.28651 330.64892 201.70898 356.86719 L 198.23242 339.48438 C 205.83525 337.31209 209.85732 327.96564 210.40039 311.67383 C 222.89079 314.93219 234.08464 320.14946 241.6875 325.58008 C 249.29033 331.01065 253.42153 328.51112 255.59375 320.36523 C 242.56029 267.68832 222.45192 245.51441 194.75586 252.57422 L 149.5625 56.158203 C 138.70128 12.17028 115.33409 -4.6772687 80.035156 4.0117188 C 58.312704 8.8992533 48.423193 18.465903 52.224609 35.300781 C 56.569119 50.506481 66.567738 56.483055 81.773438 52.681641 C 85.031795 52.138582 88.944769 58.117109 92.203125 70.064453 L 137.39648 264.74219 C 108.0712 272.34505 100.57015 302.45204 113.06055 355.12891 C 118.49114 361.64566 122.62229 360.34131 126.9668 351.65234 C 131.31128 342.96339 138.59412 334.26907 147.82617 325.58008 C 155.97206 340.24272 162.81901 346.32841 170.42188 344.69922 L 175.63672 367.29688 C 109.09781 400.43055 54.11117 449.06034 29.626953 520.25781 C 8.9906597 580.26602 -1.0079939 647.70755 0.078125 725.36523 L 0.078125 930.47266 C 40.264632 947.30754 70.37161 949.48028 90.464844 939.16211 C 110.55808 928.84394 140.77414 885.53282 182.58984 807.06055 C 205.28765 764.4653 230.49585 730.24217 255.59375 702.76758 L 255.59375 706.24414 C 231.44325 737.88229 212.01646 777.78242 198.23242 826.17969 C 197.14628 833.78254 198.72206 838.56581 201.70898 841.82422 C 204.69585 845.08258 212.35928 843.55986 224.30664 834.87109 C 249.0159 811.5873 266.86033 801.996 279.92773 805.32227 L 285.14258 831.39453 L 285.14258 843.5625 C 272.65217 860.94042 264.39184 874.96114 257.33203 885.2793 C 250.27226 895.59747 254.51055 908.96602 272.97461 925.25781 L 257.33203 925.25781 L 257.33203 954.80664 L 314.69141 954.80664 L 325.12109 1000 L 351.19531 994.78516 L 342.50391 954.80664 L 375.5293 954.80664 L 375.5293 925.25781 L 359.88477 923.51953 C 372.37517 919.7183 376.2881 909.71944 370.31445 893.9707 L 377.26758 878.32617 C 370.20777 865.83579 357.05744 855.72805 340.76562 847.03906 L 340.76562 807.06055 L 366.83789 807.06055 C 390.73258 807.06055 403.33983 794.34417 403.33984 768.82031 C 410.94267 781.31069 428.33327 795.98361 455.48633 812.27539 L 415.50781 984.35547 L 625.83008 984.35547 L 582.375 812.27539 C 612.24336 795.98355 630.3952 781.31075 637.99805 768.82031 C 637.99805 794.34412 651.80061 807.06055 676.23828 807.06055 L 700.57227 807.06055 L 700.57227 847.03906 C 684.28043 855.72805 671.13012 865.83573 664.07031 878.32617 L 672.76172 893.9707 C 666.24495 909.71944 668.41775 919.71808 681.45117 923.51953 L 665.80859 925.25781 L 665.80859 954.80664 L 698.83398 954.80664 L 690.14258 993.04688 L 717.95508 1000 L 728.38281 954.80664 L 785.74414 954.80664 L 785.74414 925.25781 L 768.36133 925.25781 C 786.28235 908.96602 792.5324 895.59747 785.74414 885.2793 C 778.95582 874.96114 767.49045 860.94042 754.45703 843.5625 L 763.14648 805.32227 C 776.05753 803.23031 793.83574 812.58522 817.03125 834.87109 C 829.52164 843.56002 836.6421 845.08258 839.62891 841.82422 C 842.61583 838.56587 844.18983 833.78254 843.10352 826.17969 C 829.16779 778.3135 809.48208 739.45532 785.74414 707.98242 L 787.48242 702.76758 C 812.15487 730.11997 834.53384 764.88169 857.00977 807.06055 C 898.82542 885.53282 930.50826 928.84394 950.87305 939.16211 C 971.23778 949.48022 1001.0733 947.30754 1041.2598 930.47266 L 1041.2598 725.36523 C 1042.3461 647.70755 1033.8121 578.96174 1013.4473 516.78125 C 989.19834 444.11707 932.9263 398.92205 865.70117 367.29688 L 870.91602 344.69922 C 878.51887 346.3284 887.64715 340.24274 895.25 325.58008 C 904.48203 334.26903 911.49334 342.96334 916.10938 351.65234 C 920.72546 360.34132 924.58299 361.1026 930.01367 355.12891 C 942.50406 301.90898 935.0049 272.34505 905.67969 264.74219 L 950.87305 70.064453 C 953.58836 58.117109 956.30609 52.138583 959.56445 52.681641 C 975.31324 56.483055 985.31189 50.50648 989.11328 35.300781 C 992.91474 18.465903 984.22045 7.1610093 963.04102 2.2734375 C 958.41545 1.134842 953.56687 0.32093863 948.65039 0.125 z M 96.671875 14.976562 C 124.34375 16.777688 131.50883 48.440465 133.91992 59.634766 L 180.85156 254.3125 L 153.03906 263.00391 L 106.10938 66.587891 C 101.2218 46.494656 95.78634 37.148167 88.726562 38.777344 C 76.77922 42.035701 70.039423 39.970111 67.867188 31.824219 C 66.23801 24.76441 71.564376 19.438043 83.511719 16.179688 C 88.347815 15.071415 92.71875 14.719259 96.671875 14.976562 z M 948.30078 15.025391 C 951.76587 14.895607 955.51271 15.251159 959.56445 16.179688 C 971.51179 18.894986 975.64097 24.76441 973.46875 31.824219 C 971.83957 39.97011 966.29696 42.035701 954.34961 38.777344 C 946.74676 37.148166 939.57301 46.494656 935.22852 66.587891 L 890.03516 261.26562 L 862.22461 254.3125 L 909.15625 59.634766 C 913.60383 40.658434 924.04516 15.933874 948.30078 15.025391 z M 513.7168 26.609375 A 61.706032 59.098728 0 0 1 575.42188 85.707031 A 61.706032 59.098728 0 0 1 513.7168 144.80664 A 61.706032 59.098728 0 0 1 452.00977 85.707031 A 61.706032 59.098728 0 0 1 513.7168 26.609375 z M 369.50586 157.31445 C 369.47766 157.38785 369.44802 157.4598 369.41992 157.5332 C 369.45822 157.4889 369.5621 157.4449 369.56641 157.40039 L 369.56641 157.39844 L 369.56641 157.39648 C 369.56634 157.39607 369.56494 157.39385 369.56445 157.39258 L 369.56445 157.39062 L 369.56445 157.38867 C 369.56245 157.38567 369.55864 157.37965 369.55664 157.37695 C 369.53924 157.35625 369.52306 157.33555 369.50586 157.31445 z M 488.51172 186.52344 C 511.86335 186.52344 526.42712 197.28336 530.22852 219.54883 C 534.02993 241.81434 520.77051 257.79153 491.98828 266.48047 C 496.06093 311.27971 468.28217 300.71684 460.70117 292.55273 C 453.6414 284.94986 448.0968 271.14738 441.58008 254.3125 C 435.06333 237.47762 425.06472 229.97851 412.03125 229.97852 L 425.9375 229.97852 C 419.96385 220.74647 417.89827 212.81145 418.98438 207.38086 C 424.41496 208.46698 427.2418 207.59861 429.41406 202.16797 C 439.18917 191.84984 459.18646 186.52345 488.51172 186.52344 z M 537.18164 188.26172 C 545.32757 188.26172 556.73961 198.91254 571.94531 219.54883 C 587.15101 240.18512 596.28125 273.55291 596.28125 318.62695 C 596.28125 359.89957 599.8676 422.82928 610.18555 508.08984 C 620.50371 593.35037 627.40592 656.66073 629.30664 699.29102 C 631.20726 741.92131 604.85088 772.40893 551.08789 791.41602 L 589.32812 958.2832 L 453.74805 958.2832 L 485.03516 791.41602 C 434.53053 772.40893 410.13053 741.92131 412.03125 699.29102 C 413.93194 656.66078 421.5935 592.15518 434.62695 506.35156 C 447.66042 420.54795 451.57335 353.70526 445.05664 306.45898 C 484.70005 329.26751 507.41702 319.70285 512.84766 275.17188 C 550.86189 256.70781 558.36101 227.36207 537.18164 188.26172 z M 453.74805 200.42969 C 442.34382 200.42969 436.36523 206.29717 436.36523 216.07227 C 436.36523 226.93347 442.3438 231.7168 453.74805 231.7168 C 463.52317 231.7168 468.84952 226.93348 469.39258 216.07227 C 468.84951 206.29717 463.52316 200.42969 453.74805 200.42969 z M 844.62305 269.88477 C 847.87694 270.02997 851.19855 270.7788 855.27148 271.69531 L 891.77344 280.38672 C 913.49591 284.73121 920.99689 296.90449 916.10938 318.62695 C 903.61897 299.61979 892.8571 295.48865 883.08203 304.7207 C 876.56531 322.6417 869.17532 330.68388 860.48633 329.05469 C 851.7974 326.33939 849.07961 316.23165 851.79492 297.76758 C 846.36435 284.73412 833.75702 284.08195 815.29297 296.0293 C 818.95865 280.14476 828.23192 271.17893 841.36719 269.95703 C 842.46184 269.85524 843.53842 269.83644 844.62305 269.88477 z M 198.45312 269.89453 C 199.53776 269.85353 200.61438 269.87223 201.70898 269.95703 C 214.84427 270.97526 224.11755 279.73746 227.7832 296.0293 C 208.77609 284.08196 196.16682 284.73413 191.2793 297.76758 C 193.99459 316.23164 191.27883 328.07768 182.58984 330.79297 C 173.90089 332.42215 166.50895 324.37998 159.99219 306.45898 C 150.21712 297.22697 139.45721 301.35811 126.9668 320.36523 C 122.07923 298.64278 130.12139 284.73119 151.30078 280.38672 L 187.80469 271.69531 C 191.87766 270.67709 195.19929 270.01748 198.45312 269.89453 z M 417.24609 342.96094 C 423.21975 366.31253 420.61115 409.67896 410.29297 471.58789 C 344.1236 481.82839 288.12211 496.37553 239.94922 515.04297 L 208.66211 381.20117 C 266.69278 356.29417 335.44919 342.96094 417.24609 342.96094 z M 622.35352 342.96094 C 708.20559 342.96094 778.18723 354.34563 834.41406 377.72461 L 801.38672 515.04297 C 753.51464 496.61625 697.01512 481.73714 631.04492 471.58789 C 623.98517 409.67896 621.26738 366.31253 622.35352 342.96094 z M 860.48633 391.63086 C 894.80947 409.90197 964.21107 451.70725 989.11328 535.90039 C 1006.2197 593.73633 1013.4473 633.46133 1013.4473 654.09766 C 988.89835 630.86858 914.40018 564.17507 829.19922 525.47266 L 860.48633 391.63086 z M 182.58984 393.36914 L 213.87695 525.47266 C 148.28124 555.07665 86.688306 597.85459 27.888672 654.09766 C 27.888672 633.46133 36.856466 593.73638 53.962891 535.90039 C 65.972879 495.29495 95.04278 439.62345 182.58984 393.36914 z M 408.55469 494.18359 L 391.17383 607.16797 C 345.82826 609.34002 304.86683 623.63245 269.5 648.88477 L 245.16406 537.63867 C 291.33284 519.01788 345.5178 504.30065 408.55469 494.18359 z M 634.52148 494.18359 C 697.16925 504.30065 749.97598 519.01789 796.17383 537.63867 L 770.09961 648.88477 C 734.94991 624.17212 695.2686 609.31582 650.16406 607.16797 L 634.52148 494.18359 z M 219.0918 548.06836 L 246.90234 668.00391 C 221.47308 691.52437 198.6397 721.21733 179.11328 758.39062 C 128.3371 855.0554 95.893017 907.11611 81.773438 913.08984 C 67.653858 919.06346 49.611122 916.56393 27.888672 907.875 L 27.888672 688.86328 C 84.900674 632.51675 146.12833 581.92171 219.0918 548.06836 z M 823.98438 548.06836 C 895.72232 582.18042 959.48056 634.89664 1013.4473 688.86328 L 1013.4473 907.875 C 992.26783 916.56393 973.95556 919.06346 959.56445 913.08984 C 945.17339 907.11611 912.72925 855.05541 862.22461 758.39062 C 842.82343 721.25721 821.58539 691.5138 796.17383 668.00391 L 823.98438 548.06836 z M 391.17383 641.93164 C 381.39876 669.08463 377.26758 715.38504 377.26758 782.72461 L 321.64453 782.72461 L 321.64453 845.30078 L 316.42969 845.30078 L 283.4043 707.98242 C 311.15424 678.60148 346.63621 656.68112 391.17383 641.93164 z M 650.16406 641.93164 C 694.26779 656.5374 728.55379 679.02888 756.19531 707.98242 L 724.90625 845.30078 L 721.42969 845.30078 L 721.42969 782.72461 L 664.07031 782.72461 C 664.07031 715.38504 659.39625 669.08463 650.16406 641.93164 z M 262.54688 734.05664 L 272.97461 782.72461 C 261.23489 786.05711 246.12218 792.1826 229.52148 801.8457 C 237.36229 776.40666 248.61245 754.18475 262.54688 734.05664 z M 778.79102 735.79297 C 792.33344 755.62728 804.13002 776.90754 811.81641 801.8457 C 794.30611 791.65313 780.46336 784.13556 768.36133 780.98633 L 778.79102 735.79297 z M 323.38281 876.58789 C 328.32385 877.46895 332.57473 880.31668 337.28906 885.2793 C 346.52111 897.22659 347.60724 909.18171 337.28906 920.04297 C 336.24367 920.75572 334.84958 921.21401 333.8125 921.78125 L 323.38281 876.58789 z M 717.95508 878.32617 L 707.52539 921.78125 C 706.4491 921.2139 705.14181 920.75549 704.04883 920.04297 C 693.73072 909.18171 693.07852 897.22659 702.31055 885.2793 C 706.84711 880.50413 713.10376 879.32237 717.95508 878.32617 z M 299.04883 890.49414 L 306.00195 918.30469 C 304.95383 917.44016 303.56359 917.6046 302.52539 916.56641 C 296.00864 907.60593 294.56858 898.53824 299.04883 890.49414 z M 742.28906 892.23242 C 745.80384 899.86386 745.33866 908.12093 738.8125 916.56641 C 738.20566 917.20551 737.68884 917.73178 737.07422 918.30469 L 742.28906 892.23242 z " />
</svg>
