<?xml version="1.0" encoding="UTF-8" standalone="no"?>
<svg
   width="1100"
   height="1000"
   id="svg2481"
   sodipodi:version="0.32"
   inkscape:version="1.4.2 (f4327f4, 2025-05-13)"
   sodipodi:docname="13CB7.svg"
   inkscape:output_extension="org.inkscape.output.svg.inkscape"
   sodipodi:modified="true"
   version="1.1"
   xmlns:inkscape="http://www.inkscape.org/namespaces/inkscape"
   xmlns:sodipodi="http://sodipodi.sourceforge.net/DTD/sodipodi-0.dtd"
   xmlns="http://www.w3.org/2000/svg"
   xmlns:svg="http://www.w3.org/2000/svg"
   xmlns:rdf="http://www.w3.org/1999/02/22-rdf-syntax-ns#"
   xmlns:cc="http://creativecommons.org/ns#"
   xmlns:dc="http://purl.org/dc/elements/1.1/">
  <defs
     id="defs2486" />
  <sodipodi:namedview
     inkscape:window-height="998"
     inkscape:window-width="1680"
     inkscape:pageshadow="2"
     inkscape:pageopacity="0.0"
     guidetolerance="10.0"
     gridtolerance="10.0"
     objecttolerance="10.0"
     borderopacity="1.0"
     bordercolor="#666666"
     pagecolor="#ffffff"
     id="base"
     inkscape:showpageshadow="2"
     inkscape:pagecheckerboard="0"
     inkscape:deskcolor="#d1d1d1"
     inkscape:zoom="0.53386562"
     inkscape:cx="759.55444"
     inkscape:cy="429.88346"
     inkscape:window-x="-8"
     inkscape:window-y="-8"
     inkscape:window-maximized="1"
     inkscape:current-layer="svg2481"
     showguides="true">
    <sodipodi:guide
       position="523.29733,910.98937"
       orientation="1,0"
       id="guide6"
       inkscape:locked="false" />
    <sodipodi:guide
       position="617.17792,910.98937"
       orientation="1,0"
       id="guide7"
       inkscape:locked="false" />
    <sodipodi:guide
       position="570.23762,952.71407"
       orientation="0,-1"
       id="guide8"
       inkscape:locked="false" />
    <sodipodi:guide
       position="570.23762,871.00319"
       orientation="0,-1"
       id="guide9"
       inkscape:locked="false" />
    <sodipodi:guide
       position="523.29689,911.82833"
       orientation="0,-1"
       id="guide10"
       inkscape:locked="false" />
    <sodipodi:guide
       position="505.9203,911.82833"
       orientation="1,0"
       id="guide11"
       inkscape:locked="false" />
    <sodipodi:guide
       position="634.55537,911.82833"
       orientation="1,0"
       id="guide12"
       inkscape:locked="false" />
  </sodipodi:namedview>
  <path
     id="path2483"
     style="fill:#000000;stroke:none;stroke-width:1"
     d="M 891.61328,0.25 C 868.20146,-0.97894877 855.20972,18.437449 848.40234,43.808594 L 837.9707,90.75 C 754.79673,35.441438 664.34003,7.2988281 568.5,7.2988281 464.20076,7.5999797 379.25765,33.482955 312.93555,85.533203 L 302.50391,47.285156 C 294.05987,12.664518 277.79083,-1.1947011 250.34766,5.5605469 233.88171,9.3603879 226.53088,16.812111 229.48633,29.900391 c 2.95539,11.821665 10.35572,16.86361 22.59961,13.908203 2.53325,0 4.84409,5.041943 6.95508,13.908203 l 13.9082,57.371093 -5.21484,5.2168 C 164.58558,210.97581 113.27515,313.60871 112.98242,428.04688 111.63925,408.29588 95.3025,398.46874 62.587891,398.46875 21.212006,397.62435 0,417.99196 0,461.05664 V 1000 H 1147.4297 V 461.05664 c 0,-43.06468 -20.7898,-63.4323 -62.5879,-62.58789 -33.7047,0 -51.2141,10.81192 -52.1445,31.45508 C 1032.5578,315.12078 981.666,210.56636 877.95703,118.56641 l 15.64649,-64.326176 c 2.11127,-9.288475 4.4221,-14.330419 6.95507,-13.908203 11.82172,2.53319 19.22202,-2.086537 22.59961,-13.908203 C 926.11342,13.335549 919.1848,5.8838254 902.29688,2.0839844 898.51464,1.0229464 894.95783,0.42556411 891.61328,0.25 Z m 0.33008,11.443359 c 3.50814,-0.129261 6.54034,0.346768 8.61523,0.822266 9.28848,2.53319 13.43652,6.681288 12.16993,12.169922 -1.68902,5.910851 -8.09824,7.325853 -17.38672,5.214844 -5.48874,-1.688794 -10.53057,5.241774 -13.90821,20.863281 L 846.66406,203.75391 824.0625,198.53711 860.57227,45.546875 c 6.04432,-27.63132 20.84666,-33.465731 31.37109,-33.853516 z m -632.70117,3.277344 c 16.02344,-0.702357 27.28867,10.41132 32.83008,34.054688 l 36.50976,151.251949 -22.60156,6.95313 -34.76953,-152.990236 c -3.37763,-15.621506 -7.99735,-22.129893 -13.90821,-20.863281 -9.28843,2.533191 -16.11815,0.695971 -17.38476,-5.214844 -1.68883,-5.910851 2.45727,-10.058914 12.16797,-12.169921 2.48044,-0.58053 4.86718,-0.921148 7.15625,-1.021485 z m 283.17969,21.884766 c -33.94683,14.754109 -36.50979,43.737329 -36.50977,52.154297 -0.0624,6.353921 1.03013,12.150424 3.0332,17.427734 0,17.74987 -14.08479,22.54704 -16.32617,19.23828 -5.5888,-8.24778 8.75391,-20.65542 8.75391,-46.982421 0.59116,-13.166513 -8.79779,-24.300669 -22.22657,-24.986328 -6.18094,0.0551 -14.86914,0.17099 -14.86914,7.357422 0,2.861359 4.64835,5.053562 10.06446,5.871094 -6.41731,4.154322 -9.45118,10.378249 -9.45118,16.203125 0,19.885728 9.45448,61.162108 26.58008,61.162108 11.03667,0 23.10431,-11.26221 26.78321,-22.60547 8.08857,9.24141 19.32004,16.17528 31.12109,21.20899 -26.59873,0 -43.24051,4.19752 -50.41797,13.9082 -8.44408,0 -11.69632,4.99249 -10.42969,12.16992 -11.39949,2.95545 -17.38669,12.2444 -17.38672,29.55469 5.06645,-2.53324 10.10838,-3.89876 13.90821,-3.47656 5.06649,0 9.21452,6.61856 12.16992,17.38476 2.95539,10.76615 3.47852,22.10542 3.47852,34.77149 -60.69252,0.68968 -112.1125,10.22719 -156.46875,27.8164 l -1.73829,-8.69336 c 5.48864,-1.68884 9.58726,-8.19525 10.43165,-20.86132 9.28847,2.53319 16.68879,5.99851 22.5996,10.43164 5.91085,4.43313 10.05893,2.85452 12.16993,-3.47852 -10.13287,-40.95367 -27.14543,-59.38316 -48.67774,-53.89453 l -19.125,-83.44922 C 385.25245,67.205142 459.27124,41.981347 542.42188,36.855469 Z m 57.37109,0 c 85.4507,5.622424 162.60733,32.321604 231.22461,81.710941 l -17.38672,78.23242 c -21.53234,-5.48863 -38.54484,11.20257 -48.67774,52.15625 1.68904,6.33303 6.04797,7.90969 12.16993,3.47656 6.12196,-4.43311 13.31113,-8.31867 22.59961,-10.42969 0.42281,12.24389 4.52064,19.17254 10.43164,20.86133 l -1.73828,10.43164 c -51.51603,-23.71103 -102.95899,-25.56477 -158.20508,-27.8164 -0.84439,-34.62064 -7.09221,-59.18576 -19.125,-76.4961 -12.03279,-17.3103 -26.15259,-26.50034 -43.46289,-26.07812 14.23253,-4.13205 24.20762,-10.17543 31.17773,-16.85938 13.35385,11.09536 26.12398,20.24383 35.03516,23.25781 7.88533,3.48187 12.96749,5.23633 15.23437,5.23633 0.66646,0 1.07863,-0.15467 1.25977,-0.45508 2.12045,-1.72291 1.86718,-3.44896 -0.7832,-5.17187 -17.75874,-9.80684 -31.82119,-21.00561 -42.15821,-33.5957 6.01413,-10.0554 7.17383,-20.076076 7.17383,-26.306644 0,-23.617626 -17.0138,-44.535502 -34.76953,-52.154297 z m -29.55469,10.429687 c 25.92409,4.07e-4 46.93947,18.291909 46.93945,40.855469 2e-5,22.563555 -21.01536,40.855055 -46.93945,40.855465 -25.92485,5.3e-4 -46.94142,-18.29124 -46.9414,-40.855465 -2e-5,-22.564223 21.01655,-40.856 46.9414,-40.855469 z m -290.33594,100.835934 15.64844,60.84766 c -23.22115,5.91085 -30.57395,28.58734 -20.86328,69.54102 4.22202,5.06642 8.58117,5.22803 12.16992,-1.73829 3.58873,-6.96636 8.46906,-14.52829 15.64649,-20.86132 6.33307,10.97727 13.21415,16.49089 19.125,15.64648 l 3.47656,12.16992 c -3.22517,1.54394 -7.30304,1.83273 -10.43164,3.47656 -51.93097,27.86539 -85.4236,63.45778 -100.83399,107.78907 -15.4104,44.33129 -23.44596,95.57062 -22.60156,152.99023 v 123.43555 c -33.47937,-60.34532 -50.41797,-128.88609 -50.41797,-205.14649 0,-129.19408 45.77521,-234.97644 139.08203,-318.15039 z m 591.10157,0 c 90.3514,83.17395 135.60549,188.9563 135.60549,318.15039 0,71.45495 -15.81016,135.49417 -45.20315,192.97657 V 547.98242 c 0.84434,-57.41961 -5.8732,-108.70842 -20.86133,-154.72851 -17.46236,-54.6426 -62.531,-88.94162 -113.00586,-111.26563 l 3.47852,-13.9082 c 5.91083,0.8444 12.79003,-4.67111 19.12304,-15.64844 7.17748,6.33307 12.05783,13.89694 15.64649,20.86328 3.58888,6.96632 8.37008,8.54298 12.16992,3.47656 9.71062,-40.95367 1.9376,-65.36844 -20.86133,-71.27929 z m -325.10547,8.69141 c 17.3103,0 26.59926,7.40223 29.55468,22.60156 2.95525,15.19929 -6.28406,29.48073 -27.8164,41.72461 0.8444,12.66606 -1.25346,20.27945 -6.95313,22.60156 -5.69975,2.32212 -10.37089,0.0608 -15.64843,-5.21679 -5.27752,-5.27753 -10.79114,-14.77758 -15.64649,-29.55469 -4.85535,-14.77711 -12.88893,-22.59962 -22.59961,-22.59961 h 12.16797 c -5.06642,-6.33304 -7.7975,-10.53057 -6.95312,-13.9082 4.22203,0.42222 8.74284,-1.41696 10.43164,-5.2168 7.17747,-6.75524 21.08613,-10.43164 43.46289,-10.43164 z m 41.72461,1.74023 c 10.55507,0 21.37122,6.71754 31.29297,20.86133 9.92174,14.14378 13.69707,37.19301 13.9082,67.80274 0.21141,30.60969 5.20356,76.17378 12.16992,139.08203 6.96635,62.90821 10.90333,110.89533 12.16992,142.56055 1.26676,31.66521 -18.10625,53.87002 -57.37109,67.80273 l 27.81641,123.43555 H 526.77344 l 24.33984,-123.43555 c -37.57604,-13.93266 -55.37224,-36.13752 -53.89453,-67.80273 1.47772,-31.66522 6.14692,-79.44124 15.64648,-142.56055 9.49958,-63.11935 12.4932,-106.74534 8.69336,-130.38867 27.86539,5.91082 41.72461,-3.80231 41.72461,-29.55664 28.28762,-18.57695 36.58371,-40.77984 24.33985,-67.80079 z m -67.80274,8.69141 c -8.44407,1e-5 -13.9082,1.93813 -13.9082,8.69336 -2e-5,7.59969 5.46413,12.16992 13.9082,12.16992 7.17743,-0.4222 11.32548,-4.99245 12.16992,-12.16992 -0.84441,-6.75524 -4.99249,-8.69336 -12.16992,-8.69336 z m 288.1836,41.66992 c 3.2079,0.0125 7.1702,0.87445 10.84375,1.79297 l 27.8164,6.95508 c 16.79332,4.19892 23.34509,14.40488 19.12305,31.29297 -9.71067,-14.77707 -18.4785,-19.34736 -26.07813,-12.16992 -4.64429,13.93271 -10.20733,20.81383 -17.38476,19.125 -6.33303,-1.68883 -8.64192,-9.98496 -6.95313,-24.33985 -3.79989,-10.13287 -13.03934,-10.60453 -27.8164,-1.73828 4.2743,-18.52202 15.03836,-20.93922 20.44922,-20.91797 z m -465.03907,3.47656 c 0.41166,-0.002 0.83158,0.0151 1.26368,0.0547 10.37037,0.94996 16.59179,8.51388 19.125,20.86328 -14.35489,-9.28844 -22.27829,-8.39459 -26.07813,1.73829 1.68884,14.77708 -1.93813,22.65103 -8.69336,24.33984 -6.75525,1.26661 -11.00223,-5.6145 -15.64648,-19.125 -8.02186,-7.17747 -16.7897,-2.60718 -26.07813,12.16992 -4.22205,-16.88808 2.23493,-27.49312 19.12305,-31.29297 l 27.81641,-6.95312 c 3.78663,-0.83121 6.2864,-1.78253 9.16796,-1.79493 z m 157.73243,52.21094 c 4.22202,17.73251 2.38285,50.02124 -5.2168,95.61914 -47.40766,7.1559 -88.55636,18.03276 -123.43555,31.29492 l -24.33984,-99.09765 c 42.51717,-17.69093 93.64011,-27.81641 152.99219,-27.81641 z m 152.99023,0 c 59.80391,0 109.18691,8.65688 149.51367,24.33985 L 780.59961,389.77539 C 745.99597,376.82513 704.09762,367.26077 657.16406,360.2207 Z m 170.375,34.77149 c 48.09853,20.65653 80.81289,60.42593 97.35742,109.52734 12.66601,42.85361 19.125,71.30429 19.125,86.92578 -37.15379,-35.46507 -76.21149,-64.54903 -118.2207,-86.92578 -6.70054,-3.56913 -13.51094,-7.174 -20.86133,-10.43164 z m -495.48047,1.73828 22.60156,99.0957 c -6.55375,2.96205 -13.08973,5.47861 -19.125,8.69336 -42.00917,22.37675 -82.80516,51.46073 -119.95898,86.92578 0,-15.62151 6.67004,-44.07218 19.125,-86.92578 12.45499,-42.85361 43.11757,-78.13593 90.4043,-104.3125 2.27255,-1.25803 4.62304,-2.279 6.95312,-3.47656 z m 165.16016,74.75586 -12.16992,85.18945 c -32.41991,1.62098 -61.50744,10.53913 -86.92579,27.81641 l -19.125,-79.97266 c 33.77254,-13.40694 72.71496,-25.59764 118.22071,-33.0332 z m 166.89843,0 c 44.37446,7.20364 81.67732,18.48663 114.74415,31.29492 l -17.38672,79.97266 c -25.11387,-16.84136 -53.39934,-24.47874 -85.1875,-26.07813 z m 135.60547,39.98633 c 7.64002,3.49681 15.6652,6.58607 22.60157,10.43164 40.74262,22.58786 81.16578,55.0877 121.69726,95.61914 v 161.68359 c -15.6215,6.33308 -29.43131,6.17144 -39.98633,1.73828 -10.55507,-4.43284 -33.91432,-41.65165 -71.27929,-113.0039 -14.93672,-28.52325 -32.46297,-51.88026 -52.15625,-69.54102 z m -441.58593,1.73828 20.86132,85.18945 c -19.7101,17.66075 -35.56366,41.01776 -50.41601,69.54102 -37.15387,71.3523 -62.46448,108.57079 -73.01953,113.0039 -10.55508,4.43339 -23.94265,4.59497 -39.98633,-1.73828 V 521.9043 c 40.53145,-40.53145 82.48383,-73.03128 123.4375,-95.61914 5.88362,-3.2451 12.75144,-5.69663 19.12305,-8.69336 z m -292.072269,3.47851 c 33.354022,0 48.677759,28.61232 48.677729,85.1875 9.28848,111.03935 56.54137,208.21554 139.08204,290.33399 82.54062,82.11844 190.37328,123.43554 323.36718,123.43554 133.83833,0 240.82655,-41.3171 323.36719,-123.43554 82.54065,-82.11845 128.94917,-178.87245 139.08207,-290.33399 -0.8445,-56.15295 15.3236,-85.18751 48.6777,-85.1875 25.7544,0 39.9863,12.91394 39.9863,38.2461 V 975.66016 H 22.601562 V 459.31641 c 0,-25.33216 14.231952,-38.24611 39.986329,-38.2461 z m 418.984379,64.32422 c -7.17743,19.84357 -10.43163,55.80868 -10.43165,106.05078 h -41.7246 v 45.20117 h -1.73829 L 403.33789,532.33594 c 20.20327,-20.59102 46.51946,-36.29735 78.23438,-46.94141 z m 189.5,0 c 31.03188,10.34399 56.54701,25.46513 76.49609,45.20313 l -22.60156,93.88086 v -33.03321 h -41.72461 c 0,-50.2421 -4.99216,-86.20722 -12.16992,-106.05078 z m -290.33399,43.46485 1.73828,5.21484 c -18.151,23.52912 -33.06603,52.39595 -43.46289,88.66406 -0.84439,5.91083 -0.37299,10.05892 1.73828,12.16992 2.11099,2.11127 8.0963,-0.61987 17.38477,-6.95312 18.6987,-17.55392 31.99365,-24.00421 41.72461,-20.86328 l 3.47656,17.38672 v 10.42968 c -9.28848,12.66611 -17.32213,23.69531 -22.59961,31.29492 -5.27757,7.59965 -0.0245,17.31077 13.9082,29.55469 h -13.9082 v 20.86133 h 43.46289 l 15.64649,64.32617 20.86328,-5.21484 -13.90821,-59.11133 h 22.59961 v -20.86133 l -12.16992,-1.73828 c 9.71065,-2.53296 13.33763,-9.04156 8.69336,-20.86328 l 3.47656,-12.16992 c -5.06645,-9.28842 -12.51622,-16.26657 -24.33789,-22.59961 v -29.55664 h 17.38477 c 17.73255,0 27.81646,-10.55554 27.8164,-29.55469 5.48864,9.28842 16.66428,20.78934 36.50782,33.0332 L 498.95703,739.2207 H 653.6875 L 622.39258,612.30859 c 21.95453,-12.24386 36.23792,-23.74473 41.72656,-33.0332 0,18.99915 7.92147,29.55469 26.07617,29.55469 h 19.125 v 29.55664 c -12.24386,6.33309 -21.01168,13.31113 -26.07812,22.59961 l 5.21484,12.16992 c -4.64424,11.82172 -2.3334,18.33009 6.95508,20.86328 l -10.43164,1.73828 v 20.86133 h 19.12305 l -13.90821,55.63281 22.60157,5.2168 13.9082,-60.84961 h 45.20117 v -20.86133 h -12.16797 c 13.51052,-12.24392 17.44548,-21.95499 12.16797,-29.55469 -5.27734,-7.5996 -13.31114,-18.62881 -22.59961,-31.29492 l 1.73828,-20.86132 1.73828,-6.95508 c 9.74716,-4.16079 23.99186,2.58452 43.46289,20.86328 8.86628,6.33303 13.53545,9.06411 15.64649,6.95312 2.11127,-2.11127 2.58279,-6.25909 1.73828,-12.16992 -10.6403,-37.11729 -24.70107,-66.62753 -43.46289,-90.40234 v -3.47656 c 19.13461,20.53584 38.35561,45.68971 55.63281,78.23242 30.82081,58.05291 54.55279,91.70909 69.54102,99.09765 9.56937,4.71712 22.74108,3.11322 38.24804,0 -38.27571,54.45963 -152.22801,186.02149 -359.875,186.02149 -219.55298,0 -340.26805,-154.4813 -363.35351,-187.76172 20.01642,5.4843 37.44647,7.35682 48.67969,1.74023 14.77707,-7.38856 36.98189,-41.04479 67.80273,-99.09765 17.00268,-32.02561 35.09298,-57.83513 53.89453,-78.23242 z m 6.95313,24.33789 6.95507,36.50976 c -9.07737,2.21659 -19.7338,6.09744 -33.0332,13.9082 6.00253,-19.26391 15.32175,-35.26177 26.07813,-50.41796 z m 377.26171,0 c 10.70912,15.15619 20.2152,31.15405 26.07813,50.41796 -14.23035,-8.35752 -25.37491,-11.95548 -34.77148,-13.9082 z M 434.63281,662.72461 c 2.20167,1.08818 4.84859,1.2571 6.95313,3.47851 6.75525,8.86628 7.59966,16.73821 0,24.3379 z m 281.64063,0 -5.21485,24.33984 c -4.83506,-6.69849 -5.81987,-13.22268 0,-20.86133 1.69514,-1.78971 3.45629,-2.42427 5.21485,-3.47851 z m 22.60156,5.2168 c 4.18415,6.05949 3.71764,13.70013 -1.73828,20.86132 -1.05202,1.11043 -2.39171,0.90268 -3.47656,1.73829 z m -325.10547,1.73828 5.2168,20.86133 c -1.08463,-0.8355 -2.42626,-0.62758 -3.47852,-1.73829 -5.06643,-6.6497 -4.98396,-13.42328 -1.73828,-19.12304 z"
     sodipodi:nodetypes="scccccccccccccsccscccccccsscccccccsscccccccsccccccscssccccccsccccsccccccccsccccscccscccsccscsccccsccccsccsccsccccccccccsccsssccccscscscccccsscccssccsssscccccscccccccccccccccccccccccsccccccssccccccccccccscccsccccscccscscssscssccsscccccccccccccccccccccsccccccccccccccsccccccsccccccccccccccsccccscccsscscssccccccccccccccccccccccccc" />
</svg>
