<?xml version="1.0" encoding="UTF-8" standalone="no"?>
<svg
   width="1300"
   height="1000"
   version="1.1"
   id="svg1"
   sodipodi:docname="13CC7.svg"
   inkscape:version="1.4.2 (f4327f4, 2025-05-13)"
   xmlns:inkscape="http://www.inkscape.org/namespaces/inkscape"
   xmlns:sodipodi="http://sodipodi.sourceforge.net/DTD/sodipodi-0.dtd"
   xmlns="http://www.w3.org/2000/svg"
   xmlns:svg="http://www.w3.org/2000/svg">
  <defs
     id="defs1" />
  <sodipodi:namedview
     id="namedview1"
     pagecolor="#ffffff"
     bordercolor="#666666"
     borderopacity="1.0"
     inkscape:showpageshadow="2"
     inkscape:pageopacity="0.0"
     inkscape:pagecheckerboard="0"
     inkscape:deskcolor="#d1d1d1"
     inkscape:zoom="0.3775"
     inkscape:cx="350.99338"
     inkscape:cy="570.86093"
     inkscape:window-width="1680"
     inkscape:window-height="998"
     inkscape:window-x="-8"
     inkscape:window-y="-8"
     inkscape:window-maximized="1"
     inkscape:current-layer="svg1" />
  <path
     id="path1"
     style="fill:#000000;stroke:none;stroke-width:0.999999"
     d="M 576.90039 -2.019633e-07 C 571.42299 -0.020140124 566.42877 1.0170267 561.91797 3.1113279 C 549.88913 8.6961309 539.14849 23.088668 529.69727 46.287109 C 527.11965 54.879141 521.32043 65.617831 512.29883 78.505859 C 503.27722 91.393883 489.74439 103.85205 471.70117 115.88086 C 453.65792 127.90969 436.47522 140.15487 420.15039 152.61328 C 403.82555 165.07169 384.7065 185.04659 362.79688 212.54102 C 340.88723 240.0355 323.7045 264.09402 311.24609 284.71484 C 306.98576 291.76644 303.30214 298.6678 300.19727 305.41797 C 288.72934 301.08818 279.16395 292.91601 282.87109 281.8457 C 290.7068 258.44692 309.60027 236.21655 309.80078 208.20508 C 310.0327 175.80664 283.90439 158.37891 264.46094 158.37891 C 254.23217 158.37891 231.7723 164.16667 228.08594 179.75977 C 231.08078 186.24459 234.16795 187.68056 255.94141 191.86914 C 247.47231 200.98813 242.96682 212.04349 242.44922 225.01953 C 241.93159 237.99532 243.47628 259.89433 247.07227 290.72656 C 250.26268 313.56479 270.57436 325.40903 290.9707 331.16602 C 289.99288 335.07097 289.233 338.91978 288.69141 342.71094 C 271.50738 346.14774 257.33171 355.16898 246.16211 369.77539 C 228.11885 368.9162 219.9554 377.50948 221.67383 395.55273 C 195.89777 402.42635 183.00977 427.34269 183.00977 470.30273 C 193.32018 463.42912 203.63099 460.85189 213.94141 462.57031 C 225.11105 462.57031 234.13225 475.88624 241.00586 502.52148 C 247.87947 529.1567 262.91487 557.94177 286.11328 588.87305 C 286.97251 655.03153 305.87661 716.03467 342.82227 771.88281 L 322.20117 818.2793 L 150.78906 818.2793 C 123.29462 818.2793 109.54883 826.01096 109.54883 841.47656 C 96.660805 865.5342 90.216797 881.42932 90.216797 889.16211 L 0 889.16211 L 0 890.45117 L 0 1000 L 1263.0254 1000 L 1263.0254 890.45117 C 1263.0254 863.81593 1241.9759 847.49095 1199.875 841.47656 C 1157.7741 835.46216 1113.5258 825.5812 1067.1289 811.83398 C 1021.5913 783.48031 952.63957 740.09166 860.27539 681.66602 C 767.91123 623.2403 707.12302 582.85683 677.91016 560.51758 L 797.76758 359.46484 C 805.50037 345.71762 815.81119 337.98596 828.69922 336.26758 C 842.44644 336.26758 854.47669 342.28175 864.78711 354.31055 L 1103.2148 666.19922 C 1122.9764 686.82005 1135.8645 694.12379 1141.8789 688.10937 C 1156.4852 673.50296 1156.0554 653.74104 1140.5898 628.82422 C 1148.3226 635.69779 1156.914 640.85418 1166.3652 644.29102 C 1175.8164 647.7279 1183.55 646.43825 1189.5645 640.42383 C 1195.5788 634.40941 1196.8684 626.67775 1193.4316 617.22656 C 1189.9947 607.77534 1184.8384 599.18203 1177.9648 591.44922 C 1202.8816 606.91494 1222.6435 607.34469 1237.25 592.73828 C 1243.2643 586.72386 1235.9606 573.40598 1215.3398 552.78516 L 908.60547 309.20117 L 819.67773 240.89648 L 639.24609 534.74219 C 616.90688 517.55813 585.54653 480.18369 545.16406 422.61719 C 533.13523 405.43317 523.25428 393.40292 515.52148 386.5293 C 528.4095 367.62686 541.51247 342.28067 554.83008 310.49023 C 568.1478 278.69976 576.09434 253.13867 578.67188 233.80664 C 581.24926 214.47461 583.39662 194.49777 585.11523 173.87695 C 586.83365 153.25609 590.91538 136.07339 597.35938 122.32617 C 603.8034 108.57895 610.46236 97.838271 617.33594 90.105469 C 632.80172 71.203024 639.89052 55.307912 638.60156 42.419922 C 637.31276 29.531894 627.21686 18.363331 608.31445 8.9121092 C 596.50042 3.005095 586.0294 0.033566334 576.90039 -2.019633e-07 z M 587.69336 28.675781 C 590.27096 28.816743 592.84818 29.53151 595.42578 30.820312 C 609.17299 37.693921 607.88537 53.159125 591.56055 77.216797 C 575.23571 99.556013 565.13982 117.81535 561.27344 131.99219 C 557.40702 146.16901 555.2597 164.85627 554.83008 188.05469 C 554.4005 211.25313 546.88183 241.32583 532.27539 278.27148 C 517.66898 315.21715 504.3511 344.85802 492.32227 367.19727 C 462.25021 343.13963 425.73348 331.11133 382.77344 331.11133 C 350.12378 331.11133 329.93398 332.4009 322.20117 334.97852 C 325.63799 321.23126 333.58456 305.33618 346.04297 287.29297 C 358.50139 269.24975 377.83344 244.5464 404.03906 213.18555 C 430.24474 181.82468 453.65848 159.70053 474.2793 146.8125 C 494.90017 133.92451 510.79528 122.54099 521.96484 112.66016 C 533.1345 102.77935 543.87514 84.949879 554.18555 59.173828 C 565.35517 38.230783 576.52374 28.064945 587.69336 28.675781 z M 890.5625 336.26758 L 1170.2324 557.94141 L 1107.0801 621.0918 L 890.5625 336.26758 z M 351.84375 367.19727 C 392.22621 367.19727 415.63803 385.88644 422.08203 423.26172 C 428.52602 460.63695 407.26157 486.62791 358.28711 501.23437 C 374.61194 533.02481 374.39702 553.21461 357.64258 561.80664 C 340.88816 570.39863 325.20798 566.96174 310.60156 551.49609 C 295.99512 536.0305 282.89218 513.69138 271.29297 484.47852 C 259.69374 455.2657 242.72397 440.66016 220.38477 440.66016 L 244.87305 440.66016 C 234.56263 425.19452 230.69582 413.16625 233.27344 404.57422 C 242.72466 405.43345 249.16867 401.56664 252.60547 392.97461 C 269.78949 375.79058 302.86924 367.19727 351.84375 367.19727 z M 435.61523 371.06445 C 450.22165 371.06445 481.15209 404.14425 528.4082 470.30273 C 575.66428 536.46125 650.63012 599.82671 753.30469 660.40039 C 855.97925 720.97411 960.58797 783.48178 1067.1289 847.92187 C 1113.5258 859.95071 1161.2111 868.54204 1210.1855 873.69727 C 1229.9473 885.72607 1230.3771 891.74023 1211.4746 891.74023 L 150.78906 891.74023 C 125.01301 891.74023 125.01301 876.70487 150.78906 846.63281 L 353.13086 846.63281 L 384.0625 771.88281 C 341.10242 709.16106 320.05288 648.15791 320.91211 588.87305 C 369.02738 588.87305 393.51385 564.81449 394.37305 516.69922 C 457.95395 485.76794 471.70171 437.22294 435.61523 371.06445 z M 291.26953 390.39648 C 273.22631 391.25568 264.20508 399.84703 264.20508 416.17187 C 264.20508 435.07427 273.22631 444.52539 291.26953 444.52539 C 309.31274 443.6662 318.76385 434.21509 319.62305 416.17187 C 318.76385 399.84703 309.31274 391.25568 291.26953 390.39648 z M 29.642578 922.67187 L 1233.3828 922.67187 L 1233.3828 970.35742 L 29.642578 970.35742 L 29.642578 922.67187 z " />
</svg>
