<?xml version="1.0" encoding="UTF-8" standalone="no"?>
<svg
   width="1400"
   height="1000"
   version="1.1"
   id="svg1"
   sodipodi:docname="13CC9.svg"
   inkscape:version="1.4.2 (f4327f4, 2025-05-13)"
   xmlns:inkscape="http://www.inkscape.org/namespaces/inkscape"
   xmlns:sodipodi="http://sodipodi.sourceforge.net/DTD/sodipodi-0.dtd"
   xmlns="http://www.w3.org/2000/svg"
   xmlns:svg="http://www.w3.org/2000/svg">
  <defs
     id="defs1" />
  <sodipodi:namedview
     id="namedview1"
     pagecolor="#ffffff"
     bordercolor="#666666"
     borderopacity="1.0"
     inkscape:showpageshadow="2"
     inkscape:pageopacity="0.0"
     inkscape:pagecheckerboard="0"
     inkscape:deskcolor="#d1d1d1"
     inkscape:zoom="0.3775"
     inkscape:cx="14.569536"
     inkscape:cy="401.3245"
     inkscape:window-width="1680"
     inkscape:window-height="998"
     inkscape:window-x="-8"
     inkscape:window-y="-8"
     inkscape:window-maximized="1"
     inkscape:current-layer="svg1"
     showguides="true">
    <sodipodi:guide
       position="0.579431,983.96333"
       orientation="0,-1"
       id="guide1"
       inkscape:locked="false" />
    <sodipodi:guide
       position="189.95616,97.87591"
       orientation="1,0"
       id="guide2"
       inkscape:locked="false" />
    <sodipodi:guide
       position="1250,99.05393"
       orientation="1,0"
       id="guide3"
       inkscape:locked="false" />
    <sodipodi:guide
       position="48.578125,106.11719"
       orientation="0,-1"
       id="guide4"
       inkscape:locked="false" />
    <sodipodi:guide
       position="160.75705,103.17238"
       orientation="1,0"
       id="guide5"
       inkscape:locked="false" />
  </sodipodi:namedview>
  <path
     id="path4"
     style="fill:#000000;stroke:none;stroke-width:1"
     d="M 503.75781 0.080078125 C 499.12238 -0.18480266 494.20925 0.21195104 489.01758 1.2714844 C 468.25084 5.5095884 454.47822 23.733737 447.69727 55.943359 C 415.49282 194.93097 411.6742 295.78756 436.24219 358.51367 C 436.33669 358.48557 436.44091 358.45488 436.55273 358.42188 C 436.45323 358.46238 436.353 358.50228 436.25391 358.54297 C 420.96686 364.82 410.74292 372.93428 403.54297 382.34961 C 385.86021 381.50759 377.8042 389.89338 379.48828 407.57617 C 354.2272 414.31245 341.59766 438.70295 341.59766 480.80469 C 351.70208 474.06843 361.8272 471.562 371.93164 473.24609 C 382.87812 473.24609 391.6973 486.3129 398.43359 512.41602 C 405.16986 538.51909 419.87052 566.71792 442.60547 597.03125 C 442.60547 661.86796 461.22197 721.64458 498.27148 776.37695 L 478.04883 821.82617 L 309.98633 821.82617 C 283.0412 821.82617 269.64648 829.88222 269.64648 845.88086 C 257.01595 868.61584 250.70117 886.30452 250.70117 893.88281 L 160.75781 893.88281 L 160.75781 1000 L 1400 1000 L 1400 892.60547 C 1400 866.50236 1379.4199 850.71543 1338.1602 845.24219 C 1296.9003 839.76895 1253.5657 829.85951 1208.0957 815.54492 C 1163.468 787.75773 1095.8529 745.40378 1005.334 688.56641 C 941.44065 648.44693 891.07371 616.03232 854.23828 591.25391 L 979.24023 380.72656 C 993.51855 355.34262 1023.3512 346.05622 1046.9219 375.51953 L 1251.2734 647.55273 C 1272.0989 669.24594 1305.9414 635.83857 1290.3223 609.80664 C 1295.1645 614.64889 1323.6592 638.94438 1339.7812 622.82227 C 1356.5839 606.01899 1328.278 573.60087 1328.0684 573.36133 C 1353.2326 588.98065 1373.1901 589.41548 1387.9414 574.66406 C 1394.0157 568.58999 1386.205 555.14003 1364.5117 534.31445 L 1091.1777 329.96289 L 1001.3652 259.67773 L 815.23828 564.25 C 779.03073 538.1469 739.50632 495.13998 696.5625 435.35547 C 677.5377 406.81831 651.94227 379.88032 617.88086 362.84961 C 646.7 305.21137 650.70407 202.58203 626.9707 61.029297 C 622.73259 28.819668 610.22963 9.9587441 589.46289 4.4492188 C 568.69616 -1.0603146 551.53068 4.2389507 537.96875 20.34375 C 529.0687 7.6294255 517.66408 0.87472052 503.75781 0.080078125 z M 436.25391 358.54297 C 436.24991 358.53287 436.24589 358.52377 436.24219 358.51367 C 435.36725 358.77358 435.25316 358.81591 436.25391 358.54297 z M 498.55273 25.429688 C 517.2004 26.277324 526.10347 37.293877 525.25586 58.484375 L 515.29688 344.74219 C 513.73452 344.74919 513.9147 344.79939 515.17578 344.87109 C 494.05046 345.69483 476.60098 347.7352 462.125 350.80664 C 435.84873 294.016 438.79825 194.95324 471.85547 55.943359 C 476.09359 35.600446 484.99081 25.429687 498.55273 25.429688 z M 574.20508 28.607422 C 589.88606 29.031247 599.84784 39.836793 604.08594 61.027344 C 627.81931 201.73247 624.8503 299.21121 595.18359 353.45898 L 595.19141 353.47656 C 578.43566 347.93011 559.93106 344.68612 539.50977 344.4707 L 549.41406 59.757812 C 550.26167 38.567262 558.52406 28.183598 574.20508 28.607422 z M 1072.9551 357.29688 L 1318.9551 539.52148 L 1255.1777 601.99805 L 1072.9551 357.29688 z M 507.10547 379.79492 C 546.68118 379.79492 569.54808 398.08825 575.86328 434.7168 C 582.17859 471.34533 561.38075 496.82405 513.38477 511.13867 C 529.38346 542.29396 528.94999 562.10884 512.10938 570.5293 C 495.26855 578.94965 479.91503 575.57463 466.02148 560.41797 C 452.12787 545.26134 439.49833 523.59296 428.13086 495.38477 C 416.76337 467.17657 400.10388 453.02344 378.21094 453.02344 L 402.26562 453.02344 C 392.16118 437.02476 387.91551 424.83054 389.59961 416.41016 C 399.70403 417.25224 406.45413 413.44184 409.82227 405.02148 C 425.82096 388.18077 458.26744 379.79492 507.10547 379.79492 z M 589.16797 383.62695 C 603.48255 383.62695 633.75249 415.96798 680.06445 480.80469 C 726.37642 545.64144 799.87105 608.02796 900.49414 667.8125 C 1001.1173 727.59703 1103.6833 788.5722 1208.0957 850.88281 C 1253.5657 862.67129 1300.2756 871.16262 1348.2715 876.21484 C 1367.6384 888.84528 1368.0731 894.72476 1349.5488 893.88281 L 309.98633 893.88281 C 284.72526 893.88281 284.72526 879.07674 309.98633 849.60547 L 508.27734 849.60547 L 538.61133 776.37695 C 496.50953 714.90834 475.92942 655.13166 476.77148 597.03125 C 523.92546 597.03125 547.88066 573.84123 548.72266 527.5293 C 611.03322 496.37396 624.53345 448.4637 589.16797 383.62695 z M 434.35742 392.92773 C 434.36762 392.93273 434.40352 392.94886 434.47656 392.97266 C 434.49346 392.97766 434.51074 392.98473 434.52734 392.99023 C 434.53754 392.98723 434.54489 392.98447 434.55469 392.98047 C 434.44833 392.94957 434.3767 392.93033 434.35742 392.92773 z M 447.71484 403.74414 C 430.03205 403.74414 421.21094 411.80014 421.21094 427.79883 C 421.21094 446.32357 430.03205 455.57812 447.71484 455.57812 C 465.39757 454.73611 474.65212 445.48156 475.49414 427.79883 C 474.65212 411.80014 465.39757 403.74414 447.71484 403.74414 z M 189.81445 924.2168 L 1370.9434 924.2168 L 1370.9434 970.94336 L 189.81445 970.94336 L 189.81445 924.2168 z " />
</svg>
