<?xml version="1.0" encoding="UTF-8" standalone="no"?>
<svg
   width="900"
   height="1000"
   version="1.1"
   id="svg1"
   sodipodi:docname="13CDD.svg"
   inkscape:version="1.4.2 (f4327f4, 2025-05-13)"
   xmlns:inkscape="http://www.inkscape.org/namespaces/inkscape"
   xmlns:sodipodi="http://sodipodi.sourceforge.net/DTD/sodipodi-0.dtd"
   xmlns="http://www.w3.org/2000/svg"
   xmlns:svg="http://www.w3.org/2000/svg">
  <defs
     id="defs1" />
  <sodipodi:namedview
     id="namedview1"
     pagecolor="#ffffff"
     bordercolor="#666666"
     borderopacity="1.0"
     inkscape:showpageshadow="2"
     inkscape:pageopacity="0.0"
     inkscape:pagecheckerboard="0"
     inkscape:deskcolor="#d1d1d1"
     showguides="true"
     inkscape:zoom="0.755"
     inkscape:cx="-76.15894"
     inkscape:cy="428.47682"
     inkscape:window-width="1680"
     inkscape:window-height="998"
     inkscape:window-x="-8"
     inkscape:window-y="-8"
     inkscape:window-maximized="1"
     inkscape:current-layer="svg1">
    <sodipodi:guide
       position="144.74023,960.15625"
       orientation="0,-1"
       id="guide1"
       inkscape:locked="false" />
    <sodipodi:guide
       position="86.193359,903.23438"
       orientation="1,0"
       id="guide2"
       inkscape:locked="false" />
    <sodipodi:guide
       position="202.47461,903.23438"
       orientation="1,0"
       id="guide3"
       inkscape:locked="false" />
    <sodipodi:guide
       position="144.74023,845.50195"
       orientation="0,-1"
       id="guide4"
       inkscape:locked="false" />
    <sodipodi:guide
       position="900,1000"
       orientation="0,-1"
       id="guide5"
       inkscape:locked="false" />
    <sodipodi:guide
       position="900,0"
       orientation="0,-1"
       id="guide6"
       inkscape:locked="false" />
    <sodipodi:guide
       position="1732.9461,222.68508"
       orientation="0,-1"
       id="guide7"
       inkscape:locked="false" />
    <sodipodi:guide
       position="621.32786,258.57856"
       orientation="1,0"
       id="guide8"
       inkscape:locked="false" />
  </sodipodi:namedview>
  <path
     id="path1"
     style="fill:#000000;stroke:none;stroke-width:0.999998"
     d="m 0,0 c 2.5282848,5.8993407 7.9002175,14.748164 16.117188,26.546875 8.216937,11.798711 14.644098,28.022215 19.279296,48.669922 4.534074,23.132301 14.761449,45.880123 37.923828,54.990233 h -6.953124 c -3.792457,2.94968 -3.792458,5.47902 0,7.58594 h 2.529296 L 71.125,148.04492 c -20.64441,8.9456 -34.239737,30.59942 -40.785156,64.96289 -2.528285,5.47797 -3.160627,10.32527 -1.896485,14.53907 -4.635197,13.48421 -8.112087,23.70146 -10.429687,30.65429 -2.317599,6.95279 -2.317599,11.27347 0,12.95899 2.3176,1.68554 5.79449,1.47409 10.429687,-0.63282 l -1.265625,3.79102 c -2.106914,2.52831 -1.684059,5.26909 1.265625,8.21875 -2.528285,3.79245 -1.895942,6.74074 1.896485,8.84766 9.690282,17.9129 24.396613,21.75201 51.197265,10.11523 4.213829,3.37109 3.581485,11.90275 -1.896484,25.59766 -5.477968,13.69491 0.843471,36.76647 18.962891,69.21289 18.119424,32.44645 43.403194,77.95524 75.849604,136.52734 32.44644,58.57212 48.24708,96.07589 47.4043,112.50977 2.52829,23.17602 -0.84288,54.98871 -10.11328,95.4414 -20.96642,19.02979 -58.79261,14.52385 -83.43164,7.58594 -24.44016,0 -36.24121,9.27167 -35.398438,27.8125 8.006258,-7.16352 14.642868,-8.95482 19.910158,-5.37305 4.12752,2.80672 8.70861,5.33466 13.74219,6.5 H 0 V 819.8125 H 418.97266 L 593.21289,999.15039 V 1000 l 43.34766,-0.84961 V 777.31445 H 331.40234 c 6.20844,-0.003 10.46196,-1.22316 12.76172,-3.6582 3.58178,-3.79248 8.32332,-2.94672 14.22266,2.53125 3.96313,-5.94467 11.49727,-27.74247 -24.9668,-23.38867 -14.11631,1.68555 -25.38875,-1.47422 -33.8164,-9.48047 5.56673,-28.25297 4.42382,-57.29706 4.42382,-85.96289 6.7421,4.63521 14.11677,9.90336 22.12305,15.80273 14.32698,-29.49679 21.49025,-54.35959 21.49023,-74.58593 l 31.60352,24.01953 68.89648,142.21679 110.61133,-34.76367 -42.98047,-59.41601 85.9629,83.43359 c 13.9056,1.6855 20.4365,-2.52745 19.59374,-12.64062 0,-10.11316 -15.27595,-37.08057 -45.82617,-80.9043 C 504.93166,555.01826 426.45695,458.3589 331.15039,374.17773 l 79.06445,-87.84765 c 8.97498,-8.975 25.08562,-13.24999 33.50196,5.6875 l 92.28125,201.63086 c 3.7652,8.22677 9.24622,18.30115 17.0664,17.0664 10.50506,-1.65866 10.74405,-16.22233 5.6875,-30.9707 0.96909,1.38443 13.3211,18.72399 22.75586,11.375 7.30336,-5.68878 4.1408,-17.4349 0,-26.54492 10.53454,11.37732 19.97475,14.05719 28.44336,8.2168 3.75217,-2.5877 2.73903,-10.84445 -6.32031,-22.75391 L 434.86719,228.17773 313.12305,358.82227 c -12.97417,-10.72856 -25.48746,-20.3546 -37.53907,-28.87891 0.84278,-1.6855 -10.85059,-14.32839 -35.08007,-37.92578 -24.22948,-23.5974 -36.23804,-44.24531 -36.02735,-61.94336 0.21071,-17.69805 -4.63657,-35.71088 -14.53906,-54.04102 -8.41459,-15.57594 -21.62015,-26.2092 -39.61914,-31.89648 l 1.37891,-6.34375 h 3.79296 c 2.52828,-2.10692 2.52828,-4.63626 0,-7.58594 h -5.68945 c 25.50074,-7.89101 33.52959,-31.269489 39.1875,-54.990233 4.6352,-20.647707 11.06427,-36.871211 19.28125,-48.669922 C 216.48647,14.748164 221.85842,5.8993407 224.38672,0 c -6.32071,2.1069136 -15.06578,9.3758736 -26.23242,21.806641 -9.9505,11.076989 -19.31432,32.108147 -28.09375,63.09375 0.39981,-2.850623 0.59961,-5.866976 0.59961,-9.050782 0,-20.906697 -12.84679,-57.916363 -58.15235,-56.886718 -47.325236,-1.051646 -58.781246,37.532622 -58.781248,56.886718 0,2.84391 0.157558,5.554741 0.476563,8.132813 C 45.827249,53.499444 36.715147,32.77381 26.863281,21.806641 15.696656,9.3758736 6.7421119,2.1069136 0,0 Z m 112.19336,30.970703 c 24.96001,-2e-6 45.19379,19.951715 45.19336,44.5625 C 157.3863,100.1434 137.15278,120.09375 112.19336,120.09375 87.233953,120.09375 67.000423,100.14339 67,75.533203 66.999575,50.92242 87.233348,30.970705 112.19336,30.970703 Z M 76.480469,137.79297 h 67.632811 l -0.95703,4.40039 c -15.05474,-3.46011 -38.76457,-5.77266 -65.332031,3.31836 z m 30.417971,14.53711 h 13.21679 c 4.4637,0.31606 8.98617,0.94649 13.56836,1.89453 29.9758,6.20192 56.91077,26.68294 55.93946,80.5918 -0.42141,23.38673 23.38432,56.14697 71.42187,98.28515 -9.27039,10.95597 -26.01858,10.53699 -50.24804,-1.26172 -52.29322,-25.46454 -81.92731,-68.31712 -81.53711,-97.97265 0.21072,-16.01251 -8.21722,-26.23174 -25.28321,-30.65625 -17.065963,-4.42451 -35.08077,-4.73969 -54.042966,-0.94727 4.635198,-23.17602 15.169612,-37.92538 31.603515,-44.24609 8.216673,-3.16027 16.670617,-5.05535 25.361331,-5.6875 z m -34.130862,61.38867 c 9.112387,-0.15802 16.986272,0.97549 23.623047,3.39844 13.273535,4.84588 19.910155,14.22133 19.910155,28.12695 0,30.98615 40.10492,73.93881 60.04883,82.80274 -38.34579,4.63522 -57.30812,18.32936 -56.88672,41.08398 0,32.86782 112.92828,119.88389 338.78906,261.04687 35.81747,35.3961 61.73357,66.36698 77.7461,92.91407 l -77.7461,22.75586 -62.57422,-125.15039 c -3.79243,-10.95594 -24.65175,-28.44414 -62.57617,-52.46289 3.79245,24.44014 -0.84142,52.88362 -13.90429,85.33007 L 290.12109,625.12109 C 269.05199,576.66214 241.7694,534.94348 208.26953,499.96875 174.76966,464.99404 146.95655,430.54819 124.83398,396.62695 102.71143,362.70568 94.177805,338.6866 99.234375,324.57031 104.29097,310.454 102.18446,296.44273 92.914062,282.53711 l -30.33789,11.37695 c -13.468934,2.44887 -19.697138,2.11957 -22.123047,-7.58398 l 14.537109,-10.7461 v -3.16015 l -19.59375,-0.63281 v -3.79297 l 10.113282,-1.26367 C 40.031797,260.41363 36.028285,258.20142 33.5,260.09766 c -2.528284,1.89622 -5.267111,2.42285 -8.216797,1.58007 3.371057,-9.27043 5.688982,-16.85455 6.953125,-22.7539 12.220082,-12.22008 25.28383,-15.17035 39.189453,-8.84961 h 8.214844 l 0.632813,-1.89649 c -24.840987,-9.46315 -34.787601,-6.17938 -42.980469,-1.26367 l 4.423828,-8.84765 c 11.58801,-2.73897 21.93839,-4.18964 31.050781,-4.34766 z M 52.189453,230.9082 c -7.028979,0.23696 -11.227377,3.2958 -11.736328,9.91211 4.213828,7.58489 15.169136,5.68787 32.867187,-5.68945 -8.485956,-2.88524 -15.663875,-4.40695 -21.130859,-4.22266 z m -0.992187,44.67578 -17.064454,8.2168 c -5.05657,-2.52829 0.630545,-5.26711 17.064454,-8.2168 z M 458.88672,285.69727 581.50781,446.875 542.95117,471.52539 Z m -264.20899,56.88671 c 14.65448,6.5131 62.15908,25.48278 73.32032,3.16016 105.76691,89.75437 187.51674,173.82018 245.24609,252.19727 57.72938,78.37706 89.96494,124.72964 96.70703,139.05664 l -4.42383,4.42383 C 560.43944,688.74911 525.884,654.82797 501.86523,639.6582 487.11687,630.80919 453.30144,608.26427 400.41797,572.02539 347.5345,535.78655 291.17611,496.59911 231.33984,454.46094 c -59.83624,-42.13825 -89.7539,-70.5817 -89.7539,-85.33008 0,-13.06282 17.69569,-21.91166 53.09179,-26.54688 z m -40.45312,120.72657 c 63.62873,59.83624 103.02949,113.77296 118.19922,161.81054 -1.68552,15.5911 -5.47952,28.23203 -11.37891,37.92383 C 252.1959,649.98206 245.8764,639.6591 242.08398,632.07422 220.5935,579.40147 191.30625,523.14679 154.22461,463.31055 Z m 123.88672,200.99804 c -0.67122,22.22997 1.90868,45.78298 -6.00391,67 -4.00311,9.27049 -16.11739,14.53666 -36.34375,15.80079 8.42765,-40.45272 12.64063,-66.36683 12.64063,-77.74415 l 15.80273,14.53711 z M 472.51758,819.8125 h 121.54297 v 122.39062 z"
     sodipodi:nodetypes="ccccccccccsscccccsssccccscccccccccscscccccccccccccccscscsccccsssccccccscscscscscssssscccccccsscssscscssscccccccccsssccccccccscccccccssccscccccccccscccssscccccccccccccccc" />
</svg>
