<?xml version="1.0" encoding="UTF-8" standalone="no"?>
<svg
   width="1000"
   height="1000"
   version="1.1"
   id="svg1"
   sodipodi:docname="13D06.svg"
   inkscape:version="1.4.2 (f4327f4, 2025-05-13)"
   xmlns:inkscape="http://www.inkscape.org/namespaces/inkscape"
   xmlns:sodipodi="http://sodipodi.sourceforge.net/DTD/sodipodi-0.dtd"
   xmlns="http://www.w3.org/2000/svg"
   xmlns:svg="http://www.w3.org/2000/svg">
  <defs
     id="defs1" />
  <sodipodi:namedview
     id="namedview1"
     pagecolor="#ffffff"
     bordercolor="#666666"
     borderopacity="1.0"
     inkscape:showpageshadow="2"
     inkscape:pageopacity="0.0"
     inkscape:pagecheckerboard="0"
     inkscape:deskcolor="#d1d1d1"
     inkscape:zoom="3.02"
     inkscape:cx="224.33775"
     inkscape:cy="12.417219"
     inkscape:window-width="1680"
     inkscape:window-height="998"
     inkscape:window-x="-8"
     inkscape:window-y="-8"
     inkscape:window-maximized="1"
     inkscape:current-layer="svg1" />
  <path
     id="path1"
     style="fill:#000000;stroke:none;stroke-width:1"
     d="m 180.33789,3.5097656 c -5.05619,4.2135105 -8.70788,11.6578804 -10.95508,22.3320314 -2.24717,11.79777 -10.39448,26.263573 -24.43945,43.398437 -14.04494,17.134825 -25.562,36.799206 -34.55078,58.990236 -8.98877,22.19102 -12.07853,45.08416 -9.26953,68.67969 L 55.617188,209.55078 C 21.347496,217.97773 2.8089949,228.37087 0,240.73047 l 2.5273438,27.80859 24.4394532,-8.42773 c 28.089911,8.98878 51.404016,13.48437 69.943359,13.48437 18.539344,0 25.421784,6.32048 20.646484,18.96094 -4.77527,12.64042 -4.2133,33.56577 1.68555,62.7793 5.89889,29.21349 28.08906,58.98905 66.57226,89.32617 38.48317,30.33711 62.50022,69.80487 72.05078,118.40039 9.55057,48.59558 1.40521,104.63403 -24.4375,168.11719 l 11.79688,-7.58399 c 2.80899,-2.24722 -1.2637,10.1118 -12.21875,37.07813 -13.90615,36.79491 -49.13715,53.69527 -85.11328,36.23633 -10.49166,-5.87524 -51.824221,-12.30607 -51.824221,8.42773 v 7.58399 H 40.449219 C 102.80882,937.64109 209.27012,1000 359.83203,1000 503.09058,1000 609.2699,937.9211 678.37109,813.76367 l 0.84375,-0.84179 H 439.88867 c -1.54408,-26.24994 -23.92153,-22.68384 -52.66992,-13.48438 -21.06744,6.74155 -44.52253,3.08988 -70.36523,-10.95508 4.49437,-19.66298 9.55194,-37.35951 15.16992,-53.08984 0.50599,-1.41678 28.10146,-68.63185 85.95508,10.11328 10.67415,-21.3483 13.48196,-49.43807 8.42578,-84.26953 l 8.42773,5.89844 c 42.69664,70.78657 68.39954,112.22013 77.10742,124.29882 18.5835,25.7801 104.34609,11.50532 103.23047,-9.6914 l 37.91992,20.22461 29.49414,-10.95508 -64.04492,-141.57422 c 10.67415,0.56179 20.22536,-3.65184 28.65235,-12.64062 C 636.51726,603.089 619.9446,565.16807 597.47266,523.0332 582.30413,498.31404 566.57337,478.93162 550.28125,464.88672 458.86191,379.25342 351.04904,299.67097 306.74219,260.11133 c -40.73613,-24.24771 -110.43611,-20.8434 -123.03516,47.1914 -1.68537,-1.12363 -0.70051,-10.25188 2.95117,-27.38671 3.65169,-17.13486 3.51071,-34.97237 -0.42187,-53.51172 16.29214,-23.03371 25.98237,-48.73662 29.07226,-77.10742 3.0899,-28.37082 2.52793,-50.281024 -1.68554,-65.730474 -4.21351,-15.449451 -3.79058,-29.635287 1.26562,-42.55664 5.61799,-10.674188 7.86382,-18.819511 6.74024,-24.4375 -1.12362,-5.617989 -7.02117,-10.3935942 -17.69532,-14.3261722 -8.47698,-2.67693565 -17.611,-3.7235842 -23.5957,1.2636718 z M 198.0332,19.943359 c 7.86519,3.370786 7.86519,11.236141 0,23.595703 -4.49437,9.550569 -4.6334,21.488586 -0.41992,35.814454 4.21351,14.325834 5.61741,33.988274 4.21289,58.988284 -1.40448,25.00006 -10.25275,49.29902 -26.54492,72.89453 -15.73035,-15.16856 -35.11277,-21.35001 -58.14648,-18.54102 -4.49438,-22.47192 -0.84266,-45.50407 10.95507,-69.09961 11.79777,-23.5955 23.17383,-41.292069 34.12891,-53.089841 10.95505,-11.797773 17.55748,-23.314802 19.80469,-34.550781 1.32686,-5.307435 5.33943,-20.115703 16.00976,-16.011719 z M 126.0625,205.20508 c 11.02339,-0.38389 24.71381,3.29113 27.30859,11.50781 1.68538,5.33709 3.37123,6.88198 5.05664,4.63477 1.68538,-2.24716 2.80927,-4.77496 3.3711,-7.58399 12.35956,16.29217 13.06055,40.45017 2.10547,72.47266 -10.95505,32.02249 6.32054,51.12295 51.82617,57.30273 41.57305,96.0675 86.23541,168.96054 133.98828,218.67969 47.75284,49.71916 67.69719,96.20835 59.83203,139.4668 -22.47195,-15.73033 -47.19191,-21.90982 -74.1582,-18.53907 1.68537,-39.8877 -8.00486,-79.21439 -29.07227,-117.97851 -34.21452,-62.95467 -55.1537,-90.92323 -127.66797,-157.16211 -29.21349,-26.6854 -43.68128,-54.07415 -43.40039,-82.16406 0.2809,-28.08995 4.21454,-47.75233 11.79883,-58.98828 7.58426,-11.23598 11.09499,-20.22523 10.5332,-26.9668 -0.5618,-6.74157 -3.36958,-5.33573 -8.42578,4.21484 -10.43734,19.71495 -66.537374,19.06763 -123.87695,2.52735 L 75,250 c 29.77532,6.17976 45.64701,6.74173 47.61328,1.68555 1.96631,-5.05618 0.42142,-8.00692 -4.63476,-8.84961 -5.05616,-0.84241 -10.11375,-1.26367 -15.16993,-1.26367 -5.056188,0 -8.987914,0.84391 -11.796871,2.52929 l 0.59375,1.78321 C 86.914597,245.17498 81.381605,244.2997 75,243.25781 c -7.865193,-11.79777 -8.989082,-19.94313 -3.371094,-24.4375 1.123638,-1.68543 3.089425,-2.52929 5.898438,-2.52929 -1.123622,5.61799 -0.2797,9.6926 2.529297,12.2207 2.808997,2.52806 5.757763,1.40418 8.847656,-3.3711 3.089892,-4.77526 0.703045,-8.28794 -7.162109,-10.53515 18.960682,-5.89889 33.733932,-9.03172 44.320312,-9.40039 z m -8.20703,6.26172 c -6.13368,0.0571 -11.71135,4.19386 -16.73242,12.41015 3.37079,5.61796 8.42835,9.54967 15.16992,11.79688 7.30336,1.68541 13.20091,-1.6863 17.69531,-10.11328 -0.56183,-8.42699 -4.4935,-12.92063 -11.79687,-13.48243 -1.47472,-0.42134 -2.92048,-0.62449 -4.33594,-0.61132 z m -60.552736,14.09375 c -1.123583,4.49437 -0.279699,8.42799 2.529297,11.79883 L 24.4375,240.73047 c -0.561792,-5.61803 10.393313,-10.67555 32.865234,-15.16992 z m 42.167969,20.41406 c 4.648337,-0.13089 8.288617,0.36755 10.921877,1.49609 2.82705,1.21159 -2.47481,0.82774 -15.906252,-1.15429 1.773343,-0.18357 3.434929,-0.29817 4.984375,-0.3418 z m 181.148437,21.7207 c 174.71924,133.14619 274.43709,219.38314 299.15625,258.70899 23.59547,43.8203 39.32622,76.96556 47.19141,99.4375 -6.17976,6.1797 -13.76313,6.74167 -22.75196,1.68554 L 569.66406,557.58398 C 552.24834,517.6963 509.69084,473.59588 441.99414,425.28125 374.29744,376.96658 325.28047,338.62276 294.94336,310.25195 c -30.33712,-28.37081 -48.59561,-32.72347 -54.77539,-13.06054 -6.17978,19.66297 -19.10075,25.5605 -38.76367,17.69531 13.96479,-72.92709 78.02671,-47.66666 79.21484,-47.19141 z M 254.125,303.66602 c 1.44071,-0.0856 3.52882,1.12616 6.26758,3.63671 45.50563,37.07864 101.96701,81.04005 169.38281,131.88282 67.4158,50.84272 105.05673,86.3768 112.92188,106.60156 -55.05624,-7.86519 -101.96641,-29.35442 -140.73047,-64.4668 -91.52175,-82.90016 -144.98609,-153.91918 -150,-168.96093 -0.66713,-5.67067 0.0525,-8.56828 2.1582,-8.69336 z m -13.95703,27.23242 c 43.25846,56.17982 83.14716,102.24801 119.66406,138.20312 52.65429,53.17199 117.10507,90.25394 192.97656,93.53906 3.93259,3.9326 37.64183,74.71879 101.125,212.35938 l -5.89843,3.37109 -226.68555,-144.94336 c 1.12362,-8.42698 -21.20953,-38.62351 -66.99609,-90.58984 C 308.56695,490.87157 268.25921,422.19024 233.42773,336.79688 Z m 38.76562,229.21289 c 26.4045,43.25845 37.35963,87.07891 32.86524,131.46094 -5.0562,0 -10.11374,3.37173 -15.16992,10.11328 -2.24716,-14.60674 -9.8306,-20.22427 -22.75196,-16.85352 11.79774,-43.82024 13.48359,-85.39479 5.05664,-124.7207 z m 192.97657,133.14648 125.5625,77.5293 c 6.69092,15.61197 -61.05994,25.76207 -73.73633,4.63477 z m -194.66211,13.48438 12.64062,25.27929 c 7.86519,-7.86514 13.9037,-12.49981 18.11719,-13.90429 4.21347,-1.40448 -1.82505,22.3325 -18.11719,71.20898 l -36.23633,10.95508 c -5.61803,-5.05618 -3.51119,-19.10104 6.32032,-42.13477 9.83146,-23.03373 15.59002,-40.16829 17.27539,-51.40429 z M 96.910156,842.41602 H 622.75391 C 561.51791,925.00038 473.59513,967.41689 358.98828,969.66406 245.50506,967.41684 158.14617,925.00038 96.910156,842.41602 Z"
     sodipodi:nodetypes="scsscccccsssssccsssccscccscscccccccccccccscsscscsccsscccsccssscscsccssssssccscscccccsscssccccsccccsscscccccsssccscscscscsccccscccccccccccccsccsccccc" />
</svg>
