<?xml version="1.0" encoding="UTF-8" standalone="no"?>
<svg
   width="10.691209"
   height="19.200001"
   version="1.1"
   id="svg1"
   sodipodi:docname="13D6F.svg"
   inkscape:version="1.4.2 (f4327f4, 2025-05-13)"
   xmlns:inkscape="http://www.inkscape.org/namespaces/inkscape"
   xmlns:sodipodi="http://sodipodi.sourceforge.net/DTD/sodipodi-0.dtd"
   xmlns="http://www.w3.org/2000/svg"
   xmlns:svg="http://www.w3.org/2000/svg">
  <defs
     id="defs1" />
  <sodipodi:namedview
     id="namedview1"
     pagecolor="#ffffff"
     bordercolor="#666666"
     borderopacity="1.0"
     inkscape:showpageshadow="2"
     inkscape:pageopacity="0.0"
     inkscape:pagecheckerboard="0"
     inkscape:deskcolor="#d1d1d1"
     inkscape:zoom="32"
     inkscape:cx="10.140625"
     inkscape:cy="8.359375"
     inkscape:window-width="1680"
     inkscape:window-height="998"
     inkscape:window-x="-8"
     inkscape:window-y="-8"
     inkscape:window-maximized="1"
     inkscape:current-layer="svg1" />
  <path
     style="fill:#000000;stroke:none;stroke-width:0.999998"
     d="M 5.8546383,7.046852 C 5.5628759,7.0070658 5.4037333,7.099899 5.3772102,7.3253511 4.9130425,8.5719721 4.8268397,10.063938 5.118602,11.80125 c 0.2917624,1.737314 0.4575366,2.927571 0.4973228,3.570773 0.039785,0.643202 0.019892,1.170364 -0.05968,1.581486 -0.3182862,0.397856 -0.6034176,0.636569 -0.8553945,0.716141 -0.2519759,0.07958 -0.3680177,0.139249 -0.3481251,0.179036 0.019892,0.03979 0.1027793,0.04642 0.2486613,0.01989 h 1.3328236 c 0.1724046,-0.03978 0.1856666,-0.271869 0.039787,-0.696252 -0.013262,-0.06632 -0.00663,-0.928332 0.019892,-2.586073 -0.039787,-1.485336 5e-7,-2.579444 0.1193574,-3.282326 C 6.2856515,10.826499 6.2591276,10.28939 6.0336741,9.6926037 6.1265086,8.9764608 6.1530324,8.2006389 6.1132462,7.3651381 6.1265077,7.1927328 6.040305,7.0866374 5.8546383,7.046852 Z M 5.1782813,6.7683506 5.2180675,6.0721003 c -0.1326193,-0.06631 -0.2254527,-0.06631 -0.2785004,0 C 4.7332198,6.9620105 4.224657,7.9309953 3.6324,7.9309953 3.1202288,7.9309953 3.3468937,7.347379 3.6724707,7.6514738 4.1023519,7.4019445 4.2881281,6.8995619 4.4621377,6.0721003 4.3427799,6.0455765 4.27647,5.9958443 4.2632075,5.922904 4.2499462,5.8499635 4.2300534,5.6875049 4.2035296,5.435528 4.1902681,5.3559565 4.1305896,5.2896469 4.0244942,5.2365993 3.9979696,5.2233369 3.9847073,5.1901824 3.9847073,5.1371354 4.0244934,5.0443015 4.1106962,4.8984205 4.2433155,4.699492 4.3891968,4.5005629 4.5251317,4.2585327 4.6511197,3.9734015 4.7771078,3.6882696 5.0788163,3.5523349 5.5562456,3.5655972 6.3121753,3.6584302 6.7531343,3.8208887 6.8791225,4.0529731 7.0051106,4.2850565 7.0747356,4.5436637 7.087998,4.8287948 7.101259,5.1139267 7.10789,5.5880403 7.10789,6.2511355 L 7.3267126,8.9764608 6.5707818,8.9366739 6.4514258,9.6926035 c 0.2519761,0.5967865 0.2851306,1.1803115 0.099463,1.7505735 -0.119357,0.13262 -0.1724046,0.497322 -0.1591432,1.094109 v 4.615151 c 0.2254531,0.610047 0.2055604,0.988012 -0.059678,1.13389 H 3.4475999 C 3.4078144,17.901734 3.5536952,17.676282 3.8852435,17.609971 4.6146487,17.344734 5.0589232,16.98003 5.2180672,16.515864 5.2578528,16.14453 5.1981739,15.42507 5.0390307,14.357486 4.8798876,13.289902 4.7141133,12.162637 4.5417079,10.975696 4.3693034,9.788753 4.4886611,8.5852345 4.899781,7.3651381 c 0,-0.1326193 0.092834,-0.3315484 0.2785003,-0.5967875 z M 6.1132462,6.5495293 C 5.887794,6.1914578 5.7750678,5.7803384 5.7750678,5.3161708 5.9342108,5.1305038 6.003836,4.9978845 5.9839434,4.9183132 5.96405,4.8387416 5.9209482,4.8254796 5.8546383,4.8785273 c -0.053046,0.053047 -0.1259874,0.079571 -0.2188212,0.079571 -0.066309,0 -0.1525116,-0.099463 -0.2586069,-0.2983926 C 5.0854479,4.5801347 4.8732572,4.5270865 4.7406379,4.5005619 L 4.3626726,5.1371354 c 0.092834,0.039787 0.1525123,0.1127261 0.1790353,0.2188211 -0.026522,0.106095 -0.01326,0.20556 0.039787,0.2983938 0.013261,0.1458807 0.1293032,0.1790353 0.348125,0.099463 0.2188211,-0.079571 0.4078036,-0.026522 0.5669475,0.1591431 0.026522,0.2121908 0.039787,0.4044887 0.039787,0.5768942 0.053049,-0.053049 0.1259882,-0.079571 0.2188212,-0.079571 0.092834,0 0.2121911,0.046417 0.3580706,0.1392497 z m 0.4177511,0.019892 V 8.4990317 H 6.7896041 V 6.330707 c 0,-0.411119 -0.00663,-0.8819171 -0.019892,-1.4123938 C 6.7564496,4.4674076 6.6006221,4.1789613 6.3022294,4.0529731 6.0038354,3.9269843 5.7253344,3.8639897 5.4667273,3.8639897 c -0.2586073,0 -0.4542205,0.1326197 -0.5868397,0.3978589 -0.026522,0 0.1127261,0.033154 0.417751,0.099463 0.2254523,0.053049 0.3514403,0.1525122 0.3779643,0.2983938 0.079571,-0.066311 0.1922979,-0.092834 0.3381794,-0.079572 0.1458808,0.013263 0.2320832,0.092834 0.258607,0.2387158 0.013261,0.1724046 -0.053049,0.3647023 -0.1989288,0.5768929 0.013262,0.4111201 0.1657745,0.8023465 0.4575368,1.1736792 z"
     id="path2"
     sodipodi:nodetypes="ccsscsscccccccccccsccscsccscsscccccccccccssccccscscccccsccsccccscsscccsccc" />
  <path
     style="fill:#000000; stroke:none"
     d="m 0.632089,0.607678 q 0,-0.501285 0.952442,-0.593188 0.952441,-0.091902 1.086117,0.359255 0.718509,0.200514 0.710154,0.710153 -0.00835,0.50964 -0.050129,1.069408 -0.041773,0.559769 1.487146,0.275707 1.52892,-0.284061 3.726219,0.568123 2.1973,0.852185 2.147171,7.502566 0.03342,8.35475 -4.411308,8.655522 Q 1.835173,19.455996 1.576176,17.810108 1.317179,16.164223 0.147514,15.813324 -0.06971,15.696357 0.030547,15.512552 0.164223,15.26191 1.125019,15.688003 2.085816,16.114094 2.336458,17.425791 2.587101,18.737486 6.179644,18.403296 9.772186,18.069107 9.738768,10.482993 9.889153,3.932868 7.508049,3.515131 5.126945,3.097393 3.965635,3.389809 2.804324,3.682226 2.461779,3.381455 2.119235,3.080684 2.085816,2.662946 2.052397,2.245209 2.252911,1.735569 2.453425,1.225929 2.211137,1.35125 1.968849,1.476572 1.292114,1.309477 0.61538,1.142382 0.632089,0.607678 Z m 0.501285,0.033419 q 0,0.200514 0.401028,0.250642 Q 2.787615,0.941868 2.720777,1.376315 2.486844,2.078114 2.520263,2.537625 2.553682,2.997136 2.904581,2.972072 3.255481,2.947008 2.95471,2.696365 2.653939,2.445723 2.812679,1.902664 2.971419,1.359605 2.971419,1.117317 2.971419,0.87503 2.236201,0.657806 1.918721,0.373745 1.534402,0.398809 1.150084,0.423873 1.133374,0.641097 Z M 1.417436,0.607678 Q 1.500983,0.474002 1.693142,0.507421 1.885302,0.54084 1.835173,0.616032 1.785045,0.691225 1.643014,0.69958 1.500983,0.707935 1.417436,0.607678 Z"
     id="path1" />
</svg>
