<?xml version="1.0" encoding="UTF-8" standalone="no"?>
<svg
   width="2200"
   height="1000"
   version="1.1"
   id="svg1"
   sodipodi:docname="13D74.svg"
   inkscape:version="1.4.2 (f4327f4, 2025-05-13)"
   xmlns:inkscape="http://www.inkscape.org/namespaces/inkscape"
   xmlns:sodipodi="http://sodipodi.sourceforge.net/DTD/sodipodi-0.dtd"
   xmlns="http://www.w3.org/2000/svg"
   xmlns:svg="http://www.w3.org/2000/svg">
  <defs
     id="defs1" />
  <sodipodi:namedview
     id="namedview1"
     pagecolor="#ffffff"
     bordercolor="#666666"
     borderopacity="1.0"
     inkscape:showpageshadow="2"
     inkscape:pageopacity="0.0"
     inkscape:pagecheckerboard="0"
     inkscape:deskcolor="#d1d1d1"
     inkscape:zoom="0.12904699"
     inkscape:cx="3452.2309"
     inkscape:cy="-561.81087"
     inkscape:window-width="1680"
     inkscape:window-height="998"
     inkscape:window-x="-8"
     inkscape:window-y="-8"
     inkscape:window-maximized="1"
     inkscape:current-layer="svg1"
     showguides="true">
    <sodipodi:guide
       position="2152.5429,1000.0003"
       orientation="1,0"
       id="guide1"
       inkscape:locked="false" />
  </sodipodi:namedview>
  <path
     style="fill:#000000;stroke:none;stroke-width:0.999999"
     d="M 147.10543,814.04323 64.546268,770.51208 186.13342,946.1379 H 324.23245 L 445.8196,770.51208 363.26036,814.04323 Z m 216.15493,-55.53977 105.07529,-55.53987 c 28.02009,-1.00069 42.03013,10.00722 42.03013,33.02373 0,27.01935 -53.03801,113.58138 -159.11404,259.68609 H 159.11405 C 53.038017,849.5687 0,763.00667 0,735.98732 0,712.97081 14.010045,701.9629 42.030134,702.96359 L 147.10543,758.50346 Z M 532.88192,117.54394 c 23.01651,-8.00569 39.028,-1.50103 48.03449,19.51399 8.00575,22.01583 0.50037,37.02662 -22.51614,45.03237 -24.01718,9.00643 -40.52902,3.0021 -49.53551,-18.01298 -8.00575,-21.01503 -3e-5,-36.52615 24.01716,-46.53338 z M 420.30125,201.6042 c 23.01651,-8.00569 39.02797,-1.50102 48.0344,19.514 8.00575,22.01577 3e-5,37.02652 -24.01716,45.03227 -24.01724,9.00649 -39.52837,3.0022 -46.53338,-18.01288 -9.00643,-21.01509 -1.50105,-36.52622 22.51614,-46.53339 z m -79.55702,91.56565 c 23.01651,-8.00575 39.028,-1.50109 48.03449,19.51399 8.00569,22.01577 0.50028,37.02653 -22.51623,45.03228 -24.01719,8.00575 -40.02865,2.00145 -48.0344,-18.01289 -9.00643,-21.01508 -1.50105,-36.52621 22.51614,-46.53338 z M 288.20658,414.757 c 23.01651,-8.00574 39.02797,-1.50107 48.0344,19.51401 8.00575,22.01576 0.50037,37.02651 -22.51614,45.03226 -25.01792,8.00575 -41.52976,2.00145 -49.53551,-18.01289 -9.00643,-21.01508 -1.00068,-36.52621 24.01725,-46.53338 z m -28.52049,129.09254 c 22.01583,-8.00575 38.02732,-1.50108 48.03449,19.514 7.00501,21.01508 -1.00074,35.52547 -24.01725,43.53116 -24.01718,9.00649 -40.02865,3.00222 -48.0344,-18.01281 -9.00649,-21.01508 -1.00077,-36.02586 24.01716,-45.03235 z m -10.5075,126.0904 c 23.01649,-8.00575 39.02798,-1.50108 48.03447,19.514 8.0057,21.01508 0.50033,35.52547 -22.51612,43.53116 -24.01725,9.00649 -40.52909,3.00219 -49.53552,-18.0129 -8.00574,-21.01508 -2e-5,-36.02583 24.01717,-45.03226 z"
     id="path1"
     sodipodi:nodetypes="cccccccccsccsccccccccccccccccccccccccccccccccc" />
  <path
     sodipodi:nodetypes="ssssssssssssssscssssssssssccssssssssssss"
     id="path2070"
     d="M 733.78662,0.06641373 C 695.79127,1.9174407 657.59524,13.596916 624.69775,32.721787 c -34.35586,19.972608 -6.75576,58.692247 16.49263,75.778073 25.53478,18.76637 54.82544,36.08762 88.30441,28.70925 21.82106,-4.80908 70.18918,-16.3981 72.18698,-1.10989 6.08951,46.60036 -43.57808,103.14333 -23.54173,156.99168 16.42928,44.15419 54.0368,84.24214 104.3146,87.8676 138.13716,9.96079 630.91396,-17.03413 768.73546,-18.4525 257.3111,-2.64808 351.412,131.26381 382.3047,258.19821 10.2281,42.02619 13.5275,83.28753 13.5275,118.57461 0,79.11508 33.8462,155.33186 52.5538,231.8145 4.3378,17.7341 16.4751,28.77096 28.038,28.90668 11.8545,0.1391 24.9288,-12.61433 24.9288,-34.11808 0,-97.86685 -25.2097,-179.58729 -17.7962,-270.21661 24.7272,-302.28659 -112.8866,-436.58618 -400.4457,-452.90668 -278.122,-14.06119 -709.1443,17.89669 -864.42016,0.94699 13.6538,-48.6247 39.77,-91.02142 33.6898,-141.72878 -4.8047,-40.07158 -48.6152,-55.063112 -81.94238,-64.165827 -31.94648,-8.72561 -53.3416,-39.4253493 -87.84164,-37.74459927 z m 0,42.13820827 c 26.17265,6.027093 46.81329,28.056707 74.00771,35.633792 22.88407,6.37612 60.46861,14.8743 52.61771,48.369466 -10.4767,44.69669 -40.53144,87.95666 -31.11037,134.73665 6.87637,34.14414 50.15747,31.9451 77.40567,31.73112 315.92696,-2.48096 695.09436,-33.33073 930.02986,0.60893 202.3352,29.2301 266.8031,198.248 267.508,368.3067 0.1977,47.68546 -7.0886,98.28252 -1.6355,140.9403 l -11.9863,-0.68493 c -13.0252,-40.76136 -15.0184,-82.52714 -18.4727,-119.06925 -17.4744,-184.86078 -88.4114,-297.04259 -280.104,-347.29475 -143.5163,-37.62275 -830.68806,18.60527 -920.61176,1.37859 -34.5636,-6.6214 -59.22498,-49.19995 -56.18467,-84.51735 4.03172,-46.83476 40.96067,-90.31222 27.10087,-137.60739 -10.57639,-36.091556 -57.00139,-24.205966 -85.92609,-22.733656 -30.23137,1.53883 -59.20031,9.508446 -86.19033,-14.24587 -30.75493,-27.067945 59.0259,-36.594606 63.5519,-35.552352 z m -6.41621,11.611316 c -14.36837,-0.429055 -51.8566,17.438038 -17.50283,17.592998 12.15518,0.05472 56.48092,7.965528 29.00693,-10.983743 -3.61725,-2.494891 -6.88523,-6.471331 -11.5041,-6.609255 z"
     style="color:#000000;display:inline;overflow:visible;visibility:visible;fill:#9141ac;fill-opacity:1;fill-rule:evenodd;stroke:none;stroke-width:59.3326;stroke-linecap:butt;stroke-linejoin:round;stroke-miterlimit:4;stroke-dashoffset:0;stroke-opacity:1;marker:none;marker-start:none;marker-mid:none;marker-end:none" />
</svg>
