<?xml version="1.0" encoding="UTF-8" standalone="no"?>
<svg
   width="800"
   height="1000"
   version="1.1"
   id="svg1"
   sodipodi:docname="13D96.svg"
   inkscape:version="1.4.2 (f4327f4, 2025-05-13)"
   xmlns:inkscape="http://www.inkscape.org/namespaces/inkscape"
   xmlns:sodipodi="http://sodipodi.sourceforge.net/DTD/sodipodi-0.dtd"
   xmlns="http://www.w3.org/2000/svg"
   xmlns:svg="http://www.w3.org/2000/svg">
  <defs
     id="defs1" />
  <sodipodi:namedview
     id="namedview1"
     pagecolor="#ffffff"
     bordercolor="#666666"
     borderopacity="1.0"
     inkscape:showpageshadow="2"
     inkscape:pageopacity="0.0"
     inkscape:pagecheckerboard="0"
     inkscape:deskcolor="#d1d1d1"
     showguides="true"
     inkscape:zoom="0.2669328"
     inkscape:cx="-387.73804"
     inkscape:cy="1118.259"
     inkscape:window-width="1680"
     inkscape:window-height="998"
     inkscape:window-x="-8"
     inkscape:window-y="-8"
     inkscape:window-maximized="1"
     inkscape:current-layer="svg1">
    <sodipodi:guide
       position="231.86175,683.20893"
       orientation="0,-1"
       id="guide1"
       inkscape:locked="false" />
  </sodipodi:namedview>
  <path
     id="path1"
     style="fill:#000000;stroke:none;stroke-width:0.999998"
     d="M 258.08367,0.00531642 C 245.35551,-0.32788301 234.72706,13.101442 226.19718,40.290433 207.82117,75.961412 174.47392,144.44057 169.99123,179.66185 c -1.78289,14.00843 -1.75657,28.76136 0.0807,44.26039 -0.0315,-0.005 -0.0636,-0.01 0,0.002 -6.45183,-0.95901 -9.67653,4.24011 -9.67653,15.59823 l 30.15872,10.0547 c 7.92062,10.96697 7.31104,21.32434 -1.82812,31.07279 -14.22851,0.86345 -64.2632,13.67072 -62.58469,42.17955 -1.06069,24.39735 23.57346,44.15321 59.31377,39.54312 -23.06514,41.73926 -35.28514,105.17254 -36.65933,190.29909 -1.37313,85.12625 -3.432,143.6159 -6.178,175.46976 -30.75531,25.81248 -46.133325,55.88024 -46.133325,90.20554 0,34.32502 7.964315,57.25611 23.891115,68.79135 15.92706,11.53311 41.46414,17.29911 76.61287,17.29911 34.59986,0 71.12162,-6.58986 109.56577,-19.77067 22.51734,21.96824 50.25271,32.9529 83.20488,32.9529 20.3205,0 37.89504,-7.96401 52.72356,-23.89112 9.33652,46.13335 37.07011,81.5576 83.20309,106.27161 -20.32103,-75.24073 -30.20657,-121.37471 -29.65688,-138.40004 4.94284,-56.01866 -4.53001,-92.26511 -28.42022,-108.74132 -23.89045,-16.47648 -49.84021,-24.4408 -77.84955,-23.89112 -30.20617,0 -60.82455,7.55137 -91.85443,22.65444 -31.0299,15.10228 -48.46678,16.20045 -52.31133,3.29421 -3.84429,-12.90623 1.78558,-39.4048 16.88868,-79.49665 15.10307,-40.09184 40.36484,-89.93275 75.78842,-149.5211 35.42358,-59.58864 46.68385,-110.80193 33.77734,-153.63977 -12.90623,-42.83783 -34.60059,-68.65021 -65.08133,-77.43732 -30.48075,-8.78712 -59.1761,-10.1598 -86.08688,-4.11866 -0.062,-0.0508 -0.12419,-0.10201 -0.1864,-0.15235 -1.76593,-13.31912 3.72454,-22.10305 16.47107,-26.35192 l 28.3306,9.13885 c 8.52989,-9.13915 9.13946,-15.53607 1.82813,-19.19176 l -1.94105,1.69729 c 12.57441,-11.47123 22.2077,-23.76545 28.90054,-36.8834 19.26101,-37.75156 31.67168,-121.715113 34.27201,-145.768072 9.7484,-31.073134 7.00713,-49.04837 -8.22478,-53.922588 -15.23193,-4.874218 -26.19888,-3.350294 -32.90092,4.570319 C 286.8194,13.481357 278.89853,5.8652895 263.66662,0.99107134 261.76263,0.38179418 259.90198,0.05291633 258.08367,0.00531642 Z m 1.79945,16.81339458 c 5.83512,-0.212412 10.75208,5.477963 14.75047,17.073276 L 214.25521,223.74302 c -11.10677,-2.57858 -21.71528,-3.41389 -28.27146,-1.58439 -7.31129,-20.71541 -2.28412,-51.7893 15.08027,-93.22015 17.3644,-41.43083 31.22503,-69.152089 41.58272,-83.165458 l 7.31072,-23.762071 c 3.56046,-3.351024 6.86916,-5.080976 9.92566,-5.19224 z m 49.18558,15.334762 c 5.18378,-0.02171 8.63328,3.908902 10.34685,11.791422 l -6.39666,23.762071 c 0,17.669017 -4.87478,48.438164 -14.62323,92.306094 -9.74843,43.86796 -23.76145,72.19879 -42.03976,84.99358 -4.01899,-5.76327 -13.06961,-11.22298 -23.60793,-15.45842 L 293.82535,39.376369 c 6.13087,-4.798051 11.21152,-7.206007 15.24335,-7.222896 z M 182.444,299.95621 c 8.66713,0.21449 16.26157,2.89502 22.78349,8.04375 l -0.002,0.004 c 32.95213,-6.04113 62.74669,-4.53108 89.38288,4.53089 26.63646,9.0617 44.21101,32.67755 52.72355,70.84711 8.51254,38.16958 0.54822,76.064 -23.89112,113.68443 -24.43962,37.62042 -44.89715,75.379 -61.3731,113.27399 -28.00933,65.90433 -42.01467,112.86043 -42.01467,140.86976 0,28.00959 8.65077,41.87727 25.95045,41.60245 17.29993,-0.2746 38.44367,-6.86443 63.43244,-19.77066 24.98874,-12.90597 51.76263,-19.63321 80.3211,-20.18288 60.41232,-10e-6 88.97158,25.81209 85.67645,77.43731 -22.51733,-26.91076 -48.7424,-40.50315 -78.67401,-40.77799 -29.9316,-0.27456 -61.09852,8.23651 -93.50154,25.53643 -32.40275,17.29994 -63.98264,22.5189 -94.73822,15.65379 -30.75532,-6.86511 -44.21031,-39.13146 -40.36577,-96.79755 1.64637,-32.95243 3.15669,-84.57691 4.53089,-154.87465 1.37313,-70.29803 7.68945,-125.49349 18.94801,-165.58532 11.25851,-40.09185 27.04745,-63.70768 47.36821,-70.84711 10.98395,-3.84535 30.48,-4.39489 58.48932,-1.6489 6.04222,-0.54914 6.59175,-3.84483 1.64889,-9.88622 -31.85359,-8.23797 -65.62849,-3.84314 -101.32664,13.18223 -7.68884,2.19603 -17.71202,3.15503 -30.06911,2.88019 -12.3571,-0.27457 -21.28114,-8.37448 -26.77311,-24.30154 0.54915,-9.33626 8.78697,-16.20142 24.71378,-20.59511 5.97255,-1.64764 11.55934,-2.40668 16.75962,-2.27799 z m -8.65134,5.27289 c -3.24374,-0.14162 -7.1826,0.50839 -11.81651,1.95 -12.35711,3.84455 -15.24011,11.12061 -8.64956,21.83 6.59053,10.70832 25.81307,10.02139 57.66666,-2.06113 15.37767,-6.04114 28.83239,-12.35747 40.36577,-18.94801 l -4.12045,-0.82086 -37.89421,14.82934 c -22.51735,7.6899 -37.2089,10.98558 -44.074,9.88623 -6.86433,-1.09857 -10.70882,-4.25659 -11.53334,-9.474 -0.82372,-5.21743 1.23694,-9.19958 6.17979,-11.94556 4.94283,-2.74572 9.47381,-3.0205 13.59267,-0.82445 4.11885,2.19686 6.31538,4.80455 6.59022,7.8251 0.27483,3.02056 -0.68596,6.17886 -2.88199,9.47401 7.13913,-2.19659 9.47332,-7.00106 7.00244,-14.41533 -1.54463,-4.63391 -5.02126,-7.0693 -10.42749,-7.30534 z m -10.57985,5.24242 -0.002,-0.002 c -6.59188,3.84454 -9.06371,7.96434 -7.41467,12.35778 1.09829,3.29432 4.25657,5.49085 9.474,6.59022 5.21821,1.09829 8.92507,-0.68735 11.12111,-5.35534 2.1982,-4.66827 1.3748,-8.37512 -2.46977,-11.12111 -4.24956,-3.0352 -7.80239,-3.43943 -10.70888,-2.46977 z m -16.47644,445.67953 c 1e-5,21.96818 3.02037,41.18891 9.06177,57.66487 15.92681,29.10733 37.34585,43.93654 64.25689,44.48622 26.91076,0.54916 61.23601,-8.10135 102.97555,-25.95044 41.73927,-17.84907 75.92686,-21.96709 102.56332,-12.35599 26.63619,9.6111 42.42717,28.55831 47.37,56.84221 4.94284,28.28394 14.55308,56.70576 28.83244,85.26426 -22.51734,-22.51707 -36.66007,-48.60471 -42.42689,-78.26181 -5.76656,-29.65702 -21.82925,-46.27007 -48.19088,-49.83977 -26.36188,-3.56997 -56.8426,3.98138 -91.44221,22.65444 -34.59985,18.67306 -74.83026,27.87241 -120.68867,27.59755 -45.85838,-0.27457 -71.39543,-15.37908 -76.61287,-45.31067 -5.2174,-29.9316 2.88277,-57.52755 24.30155,-82.79087 z m 249.20065,95.14866 c 17.57435,-0.27477 31.44224,7.00156 41.60243,21.82999 -6.59055,10.98396 -22.5171,19.49681 -47.78044,25.53822 -18.67251,0 -37.89381,-7.96298 -57.66487,-23.88933 24.98854,-15.37793 46.26851,-23.20413 63.84288,-23.47888 z"
     sodipodi:nodetypes="scscccccccccscscscccscccsccsccccccscscssscccsccssccscccsscccsccscccccssccsccccccsssccccccccccsccscccccsccccssscccscscscccs" />
</svg>
