<?xml version="1.0" encoding="UTF-8" standalone="no"?>
<svg
   width="1200"
   height="1000"
   version="1.1"
   id="svg1"
   sodipodi:docname="13ED5.svg"
   inkscape:version="1.4.2 (f4327f4, 2025-05-13)"
   xmlns:inkscape="http://www.inkscape.org/namespaces/inkscape"
   xmlns:sodipodi="http://sodipodi.sourceforge.net/DTD/sodipodi-0.dtd"
   xmlns="http://www.w3.org/2000/svg"
   xmlns:svg="http://www.w3.org/2000/svg">
  <defs
     id="defs1" />
  <sodipodi:namedview
     id="namedview1"
     pagecolor="#ffffff"
     bordercolor="#666666"
     borderopacity="1.0"
     inkscape:showpageshadow="2"
     inkscape:pageopacity="0.0"
     inkscape:pagecheckerboard="0"
     inkscape:deskcolor="#d1d1d1"
     showguides="true"
     inkscape:zoom="8.5418499"
     inkscape:cx="91.724862"
     inkscape:cy="339.79759"
     inkscape:window-width="1680"
     inkscape:window-height="998"
     inkscape:window-x="-8"
     inkscape:window-y="-8"
     inkscape:window-maximized="1"
     inkscape:current-layer="svg1">
    <sodipodi:guide
       position="349.79297,323.96094"
       orientation="1,0"
       id="guide1"
       inkscape:locked="false" />
    <sodipodi:guide
       position="614.55859,577.96484"
       orientation="0,-1"
       id="guide2"
       inkscape:locked="false" />
    <sodipodi:guide
       position="866.4082,323.96094"
       orientation="1,0"
       id="guide3"
       inkscape:locked="false" />
    <sodipodi:guide
       position="615.63477,59.19531"
       orientation="0,-1"
       id="guide4"
       inkscape:locked="false" />
    <sodipodi:guide
       position="609.17578,382.08008"
       orientation="0,-1"
       id="guide5"
       inkscape:locked="false" />
    <sodipodi:guide
       position="551.05664,325.03711"
       orientation="1,0"
       id="guide6"
       inkscape:locked="false" />
    <sodipodi:guide
       position="609.17578,264.76562"
       orientation="0,-1"
       id="guide7"
       inkscape:locked="false" />
    <sodipodi:guide
       position="668.37305,325.03711"
       orientation="1,0"
       id="guide8"
       inkscape:locked="false" />
    <sodipodi:guide
       position="609.17578,382.08008"
       orientation="1,0"
       id="guide9"
       inkscape:locked="false" />
  </sodipodi:namedview>
  <path
     id="path1"
     style="fill:#000000;stroke:none;stroke-width:1"
     d="m 1027.8516,32.958984 c 4.3518,38.079429 17.4511,53.395242 30.6738,66.191407 53.8111,52.075229 113.5119,129.718759 99.5566,208.798829 4.3052,1.43503 12.5561,3.23023 24.7539,5.38281 18.6556,5.74019 29.7777,20.44872 33.3653,44.12695 0,20.09061 -19.0143,33.00591 -57.043,38.7461 35.8761,36.59363 53.8145,75.33949 53.8145,116.23828 0,93.99543 -3.5885,186.55631 -10.7637,277.68164 -13.6329,101.17069 -63.5008,151.75586 -149.6035,151.75586 -77.77656,0 -129.53221,-39.67288 -155.26761,-119.01953 C 882.67811,852.99559 800.73954,1000.7488 603.79492,1000 443.86959,999.39193 360.84362,903.56217 318.82226,819.96289 293.56954,901.2409 241.82725,941.88086 163.59567,941.88086 77.493067,941.88086 27.625067,891.29569 13.992167,790.125 6.099367,698.99967 2.152367,606.43879 2.152367,512.44336 c 0,-40.89879 17.9382,-79.64465 53.8144,-116.23828 -38.0287,-5.74019 -57.0429,-18.65549 -57.0429,-38.7461 3.5876,-23.67823 13.6337,-38.02811 30.1367,-43.05078 L -4.3047327,206.7793 H 115.16407 C 63.589367,173.08888 -13.639733,130.44584 -12.914033,58.789062 -9.5804327,24.618957 23.045267,11.881719 38.748067,14.125 c 21.6234,3.089015 34.4414,20.580295 34.4414,36.59375 0,14.250653 -10.7794,33.363281 -27.9844,33.363281 -11.5027,0 -18.6553,-3.944881 -21.5254,-13.990234 -2.8703,-10.045309 -0.7182,-16.144338 6.457,-18.296875 2.8702,0 5.561,2.869231 8.0723,8.609375 2.5115,5.740189 5.7395,5.740189 9.6856,0 3.9462,-5.740144 3.9462,-11.480514 0,-17.220703 -3.9464,-5.740189 -10.9411,-7.355066 -20.9864,-4.84375 -10.0449,2.511361 -14.8879,12.557424 -14.5293,30.136718 C 13.674467,131.9814 160.27797,209.06627 186.19727,206.7793 L 245.39258,4.4375 c 9.3278,-6.4577013 18.29797,-5.0231083 26.9082,4.3046875 L 178.66407,331.62695 c 63.98588,19.43885 77.92667,92.05441 79.64452,149.60352 0,64.57706 -12.01769,118.75065 -36.05469,162.51953 -24.03703,43.76884 -40.54073,79.8239 -49.50973,108.16602 -8.9687,28.34213 -9.508,48.07371 -1.6153,59.19531 7.8927,11.12164 29.2392,4.664 64.0391,-19.37305 28.13146,-19.43102 44.89263,-48.35651 50.2832,-86.77734 -0.87474,-9.56616 -1.3125,-19.20624 -1.3125,-28.92188 2.40109,-84.03925 66.05148,-314.4586 319.65625,-315.35156 220.31878,-0.77576 326.1578,186.69452 325.03906,315.35156 0,5.98951 -0.1254,11.90875 -0.37695,17.75977 3.58169,44.02343 20.9262,76.66975 52.03711,97.93945 35.15856,24.03705 56.50506,30.49469 64.03906,19.37305 7.534,-11.1216 6.8167,-30.85318 -2.1523,-59.19531 -8.969,-28.34212 -25.4708,-64.39718 -49.50781,-108.16602 -24.03706,-43.76888 -36.05669,-97.94247 -36.05669,-162.51953 1.41164,-66.43383 12.37666,-109.31609 69.959,-145.29688 -45.70139,-60.73231 -51.64378,-133.25335 -48.43361,-206.10937 0.89652,-19.27491 -0.31912,-36.571216 -22.60156,-68.880861 -19.32441,-28.020477 0.15293,-45.91115 6.9961,-51.1249996 6.84317,-5.2138494 15.76724,-8.94016383 25.83006,-9.6855469 10.0628,-0.74538307 35.62101,0.76437661 39.28521,32.8261715 z m -36.40821,-6.474609 c -5.72898,0.235424 -10.63396,2.393699 -14.71488,6.474609 -4.66389,4.663898 -1.97304,14.529672 8.07227,29.597657 10.04531,15.067985 15.42702,27.983278 16.14452,38.746089 0.7175,10.76282 0.5372,32.82661 -0.539,66.19141 -2.57851,79.93245 36.4461,146.45628 50.0468,155.52344 28.7009,-10.76282 55.6075,-16.50316 80.7207,-17.2207 14.471,-34.73022 -15.1168,-114.99882 -64.0371,-164.67188 -23.3195,-23.67823 -38.2083,-39.82136 -44.666,-48.431641 -6.4577,-8.610283 -11.1221,-21.7059 -13.9922,-39.285156 -4.2156,-25.820345 -11.45971,-27.15293 -17.03511,-26.923828 z M 178.66407,233.68555 H 32.289067 l 21.5254,74.26367 c 38.028703,-1.43507 71.394803,2.15338 100.095703,10.76367 z m 961.12113,99.01953 c 10.0453,2.87009 15.4269,9.32774 16.1445,19.37304 0.7175,10.04531 -6.0988,16.14435 -20.4492,18.29688 -38.7462,0 -71.3931,9.68548 -97.9414,29.05859 l -4.3067,-3.22851 c 24.3958,-22.96071 52.3803,-34.44141 83.9512,-34.44141 -5.0226,-12.19789 -3.9467,-21.16606 3.2285,-26.90625 -81.08,23.67822 -121.62111,72.46824 -121.62111,146.37305 0,50.94414 15.78641,107.44997 47.35741,169.51562 31.571,62.0657 47.3555,113.54848 47.3555,154.44727 0,38.0287 -14.3499,57.04297 -43.0508,57.04297 -45.2039,-10.04531 -83.23243,-31.93072 -114.08591,-65.6543 7.17521,66.72946 45.20375,100.45423 114.08591,101.17188 37.3112,0 66.9085,-17.76002 88.793,-53.27735 21.8844,-35.51743 32.8281,-140.81322 32.8281,-315.88867 0,-60.27185 -26.1912,-105.47536 -78.5703,-135.61133 l 15.0684,-13.99218 h 23.6797 c 26.5483,0 42.6914,-9.68744 48.4316,-29.06055 -5.7402,-11.48033 -19.3728,-17.21875 -40.8984,-17.21875 z m -1069.654977,0 c -21.5257,0 -29.589956,5.73842 -34.612656,17.21875 5.0227,19.37311 21.1678,29.06054 48.4336,29.06055 h 22.601603 l 15.0683,13.99218 c -51.661603,30.13597 -77.492203,75.33948 -77.492203,135.61133 0,175.07545 10.7614,280.37124 32.2871,315.88867 21.525703,35.51733 50.944803,53.27735 88.255903,53.27735 75.33997,0 114.08579,-31.5709 116.23828,-94.71289 -45.92147,35.15878 -84.66728,54.89032 -116.23828,59.19531 -28.7009,0 -43.0508,-19.01427 -43.0508,-57.04297 0,-40.89879 15.9649,-92.38157 47.8946,-154.44727 31.9297,-62.06565 47.89448,-118.57148 47.89448,-169.51562 0,-73.90481 -40.54108,-122.69483 -121.62108,-146.37305 6.4575,5.74019 7.5355,14.70836 3.2305,26.90625 31.5709,0 59.1947,11.4807 82.873,34.44141 l -3.2285,3.22851 C 152.11577,380.06048 119.46897,370.375 80.722667,370.375 c -14.542188,0 -21.5274,-8.18995 -21.5274,-18.29688 0,-8.90018 2.690997,-14.32499 10.934956,-19.37304 z m 1065.350277,5.38086 c -6.4577,7.17521 -6.4577,15.4261 0,24.7539 5.0227,-8.61029 5.0227,-16.86117 0,-24.7539 z m -1054.757833,0 c -5.0226,7.89273 -5.0226,16.14361 0,24.7539 6.457703,-9.3278 6.457703,-17.57869 0,-24.7539 z m 527.376943,83.94922 c -142.65897,5.4e-4 -258.30663,116.1309 -258.30664,259.38476 0,143.25387 115.64766,259.38423 258.30664,259.38477 142.65974,5.4e-4 258.30859,-116.13014 258.30859,-259.38477 -10e-6,-143.25463 -115.64886,-259.3853 -258.30859,-259.38476 z"
     sodipodi:nodetypes="ssccccscscscscsccccccsssscsssssccccsscssccsccssssscsszzsssscscccsssccccccscccccssscccssccsccccsccsssccsssccccsscccccccsssss" />
  <ellipse
     style="fill:#000000;fill-rule:evenodd;stroke-width:55;stroke-linecap:round"
     id="path8"
     cx="-609.71484"
     cy="676.57715"
     rx="58.658203"
     ry="58.65723"
     transform="scale(-1,1)" />
</svg>
