<?xml version="1.0" encoding="UTF-8" standalone="no"?>
<svg
   width="1500"
   height="1000"
   version="1.1"
   id="svg1"
   sodipodi:docname="13F1E.svg"
   inkscape:version="1.4.2 (f4327f4, 2025-05-13)"
   xmlns:inkscape="http://www.inkscape.org/namespaces/inkscape"
   xmlns:sodipodi="http://sodipodi.sourceforge.net/DTD/sodipodi-0.dtd"
   xmlns="http://www.w3.org/2000/svg"
   xmlns:svg="http://www.w3.org/2000/svg">
  <defs
     id="defs1" />
  <sodipodi:namedview
     id="namedview1"
     pagecolor="#ffffff"
     bordercolor="#666666"
     borderopacity="1.0"
     inkscape:showpageshadow="2"
     inkscape:pageopacity="0.0"
     inkscape:pagecheckerboard="0"
     inkscape:deskcolor="#d1d1d1"
     inkscape:zoom="0.12386154"
     inkscape:cx="-108.99267"
     inkscape:cy="-948.63992"
     inkscape:window-width="1680"
     inkscape:window-height="998"
     inkscape:window-x="-8"
     inkscape:window-y="-8"
     inkscape:window-maximized="1"
     inkscape:current-layer="svg1"
     showguides="true">
    <sodipodi:guide
       position="509.59777,382.94737"
       orientation="0,-1"
       id="guide4"
       inkscape:locked="false" />
  </sodipodi:namedview>
  <path
     id="path1-2"
     style="fill:#000000;stroke:none;stroke-width:1"
     d="M 382.0332 0 C 343.46772 -4.7369516e-15 313.30786 15.327524 291.55273 45.982422 L 291.55273 554.07617 L 227.41602 554.07617 C 171.8341 498.47841 141.48272 442.88356 136.35938 387.28516 C 131.25521 331.68739 103.73932 303.88675 53.8125 303.88672 C 2.7329374 303.88672 -22.228914 336.79171 -21.076172 402.60156 C -19.942624 468.41141 7.5713244 520.60294 61.46875 559.18164 C 115.36618 597.7597 165.00829 617.05273 210.39453 617.05273 L 291.55273 617.05273 L 508.63477 617.05273 L 509.59766 617.05273 C 571.89665 717.91719 645.56725 791.09398 730.60938 836.58203 L 730.60938 1000 L 807.74219 1000 L 807.74219 867.73047 C 862.13 891.46342 926.40576 876.63103 1000.5703 823.23242 C 1085.613 761.92263 1093.0298 693.19567 1022.8203 617.05273 L 1291.2969 617.05273 L 1291.2969 542.88867 L 1289.8145 542.88867 L 1289.8145 45.982422 C 1269.0486 15.327524 1238.8867 4.2542217e-16 1199.332 0 C 1158.7881 0 1129.1221 11.865144 1110.334 35.595703 L 1110.334 35.599609 C 1080.6677 143.38605 1038.6416 222.98933 984.25391 274.41016 C 929.86669 325.83159 865.59093 351.54297 791.42578 351.54297 C 716.27203 351.54297 652.2425 325.33776 599.33789 272.92773 C 546.43327 220.51771 504.65295 142.39726 473.99805 38.566406 C 455.20991 12.855695 424.55485 0 382.0332 0 z M 382.0332 66.744141 C 418.62147 66.744141 444.33287 96.657778 459.16602 156.48438 C 473.99917 216.31097 510.09306 274.65406 567.44727 331.51367 C 624.80148 388.37623 698.96591 416.31186 789.94141 415.32031 C 881.9061 415.32031 956.5657 387.13709 1013.9199 330.77148 C 1071.2746 274.40647 1107.3686 216.31097 1122.2012 156.48438 C 1137.0343 96.657778 1162.7437 66.744141 1199.332 66.744141 C 1219.1094 66.744141 1231.9657 75.643814 1237.8984 93.443359 L 1237.8984 541.40039 L 344.95117 542.88477 L 344.95117 94.927734 C 349.89536 76.139 362.25586 66.744141 382.0332 66.744141 z M 56.369141 351.54297 C 73.961309 351.54297 84.453416 371.4004 87.847656 411.11328 C 91.254693 450.82614 123.02505 504.15299 183.16016 571.09766 C 126.42549 554.07793 85.862188 529.68058 61.46875 497.91016 C 37.049546 466.13973 25.704485 433.80369 27.433594 400.89844 C 29.130713 367.99384 38.776801 351.54297 56.369141 351.54297 z M 611.94531 617.05273 L 730.60938 617.05273 L 730.60938 747.58398 C 691.05471 726.81745 651.49998 683.30671 611.94531 617.05273 z M 807.74219 617.05273 L 890.80664 617.05273 L 890.80664 617.05664 C 1008.482 699.13296 1050.7561 758.46505 1017.6289 795.05273 C 984.5016 831.63865 914.53944 830.15428 807.74219 790.59961 L 807.74219 617.05273 z " />
</svg>
