<?xml version="1.0" encoding="UTF-8" standalone="no"?>
<svg
   width="1400"
   height="1000"
   version="1.1"
   id="svg1"
   sodipodi:docname="13F51.svg"
   inkscape:version="1.4.2 (f4327f4, 2025-05-13)"
   xmlns:inkscape="http://www.inkscape.org/namespaces/inkscape"
   xmlns:sodipodi="http://sodipodi.sourceforge.net/DTD/sodipodi-0.dtd"
   xmlns="http://www.w3.org/2000/svg"
   xmlns:svg="http://www.w3.org/2000/svg">
  <defs
     id="defs1" />
  <sodipodi:namedview
     id="namedview1"
     pagecolor="#ffffff"
     bordercolor="#666666"
     borderopacity="1.0"
     inkscape:showpageshadow="2"
     inkscape:pageopacity="0.0"
     inkscape:pagecheckerboard="0"
     inkscape:deskcolor="#d1d1d1"
     showguides="true"
     inkscape:zoom="1.5014286"
     inkscape:cx="820.88488"
     inkscape:cy="121.5509"
     inkscape:window-width="1680"
     inkscape:window-height="998"
     inkscape:window-x="-8"
     inkscape:window-y="-8"
     inkscape:window-maximized="1"
     inkscape:current-layer="svg1">
    <sodipodi:guide
       position="30,371.26546"
       orientation="-1,0"
       id="guide1"
       inkscape:locked="false"
       inkscape:label=""
       inkscape:color="rgb(0,134,229)" />
    <sodipodi:guide
       position="166.50809,0"
       orientation="0,1"
       id="guide2"
       inkscape:locked="false"
       inkscape:label=""
       inkscape:color="rgb(0,134,229)" />
    <sodipodi:guide
       position="166.50809,30"
       orientation="0,1"
       id="guide3"
       inkscape:label=""
       inkscape:locked="false"
       inkscape:color="rgb(0,134,229)" />
    <sodipodi:guide
       position="135,371.26546"
       orientation="-1,0"
       id="guide5"
       inkscape:label=""
       inkscape:locked="false"
       inkscape:color="rgb(0,134,229)" />
    <sodipodi:guide
       position="404.94767,174.11989"
       orientation="1,0"
       id="guide6"
       inkscape:locked="false" />
    <sodipodi:guide
       position="0,308.08413"
       orientation="0,-1"
       id="guide7"
       inkscape:locked="false" />
    <sodipodi:guide
       position="0,278.08413"
       orientation="0,1"
       id="guide8"
       inkscape:label=""
       inkscape:locked="false"
       inkscape:color="rgb(0,134,229)" />
    <sodipodi:guide
       position="299.94767,174.11989"
       orientation="-1,0"
       id="guide9"
       inkscape:label=""
       inkscape:locked="false"
       inkscape:color="rgb(0,134,229)" />
    <sodipodi:guide
       position="217.47384,278.08413"
       orientation="1,0"
       id="guide10"
       inkscape:locked="false" />
  </sodipodi:namedview>
  <path
     id="path9"
     style="baseline-shift:baseline;display:inline;overflow:visible;opacity:1;vector-effect:none;fill:#000000;enable-background:accumulate;stop-color:#000000;stop-opacity:1"
     d="M 313.92773,0 C 229.11313,0 187.41858,30.073773 188.25977,159.18945 l 3.4707,532.72657 H 0 V 1000 H 135 V 940 H 60 V 751.91602 H 374.94727 V 940 h -75 v 60 h 210 v -60 h -75 V 751.91602 H 749.89453 V 940 h -75 v 60 h 210 v -60 h -75 V 751.91602 H 1124.8418 V 940 h -75 v 60 h 135 V 691.91602 H 993.11133 l -0.98828,-150.09961 c 32.28955,-37.79527 84.24935,-62.44622 140.43945,-73.94922 l -45.3301,-291.55078 c -1.1108,-19.75232 0.2918,-25.51482 1.0098,-31.29102 36.4247,-16.51156 50.4344,-43.77265 47.0156,-81.384765 C 1131.9993,27.791506 1124.0969,0.2590051 1064.498,0.00195313 1064.2728,0.00101865 1064.0488,0 1063.8223,0 979.00764,0 937.31311,30.073773 938.1543,159.18945 l 3.4707,532.72657 H 618.16406 l -0.98828,-150.09961 c 32.28957,-37.79527 84.24936,-62.44622 140.43945,-73.94922 L 712.28516,176.31641 c -1.11079,-19.75232 0.29179,-25.51482 1.00976,-31.29102 36.42468,-16.51156 50.43444,-43.77265 47.01563,-81.384765 C 757.05204,27.791506 749.14968,0.25900509 689.55078,0.00195313 689.32564,0.00101865 689.10151,0 688.875,0 604.0604,0 562.36584,30.073773 563.20703,159.18945 l 3.4707,532.72657 H 243.2168 l -0.98828,-150.09961 c 32.28957,-37.79527 84.24936,-62.44622 140.43945,-73.94922 L 337.33789,176.31641 c -1.11079,-19.75232 0.2918,-25.51482 1.00977,-31.29102 36.42468,-16.51156 50.43443,-43.77265 47.01562,-81.384765 C 382.10477,27.791506 374.20242,0.2590051 314.60352,0.00195313 314.37838,0.00101865 314.15424,0 313.92773,0 Z m -7.54492,31.835938 c 24.38398,0 41.99299,12.370039 44.99414,34.185546 6.52623,47.439696 -59.80395,35.305466 -47.21875,109.597656 l 38.95118,261.40625 c -49.6894,15.83055 -80.69725,34.22214 -109.21485,55.64063 L 230.1875,162.79297 C 229.11685,67.520515 254.76972,31.835937 306.38281,31.835938 Z m 374.94727,0 c 24.38398,0 41.99299,12.370039 44.99414,34.185546 6.52623,47.439696 -59.80395,35.305466 -47.21875,109.597656 l 38.95117,261.40625 c -49.6894,15.83055 -80.69724,34.22214 -109.21484,55.64063 L 605.13477,162.79297 C 604.06412,67.520515 629.71699,31.835937 681.33008,31.835938 Z m 374.94722,0 c 24.384,0 41.993,12.370039 44.9942,34.185546 6.5262,47.439696 -59.804,35.305466 -47.2188,109.597656 l 38.9512,261.40625 c -49.6894,15.83055 -80.6972,34.22214 -109.21484,55.64063 L 980.08203,162.79297 C 979.01138,67.520515 1004.6643,31.835937 1056.2773,31.835938 Z"
     sodipodi:nodetypes="ssccccccccccccccccccccccccccccccccccssssccccccssssccccccssssscccsssscccsssscccss" />
</svg>
