<?xml version="1.0" encoding="UTF-8" standalone="no"?>
<svg
   width="900"
   height="1000"
   version="1.1"
   id="svg1"
   sodipodi:docname="13F60.svg"
   inkscape:version="1.4.2 (f4327f4, 2025-05-13)"
   xmlns:inkscape="http://www.inkscape.org/namespaces/inkscape"
   xmlns:sodipodi="http://sodipodi.sourceforge.net/DTD/sodipodi-0.dtd"
   xmlns="http://www.w3.org/2000/svg"
   xmlns:svg="http://www.w3.org/2000/svg">
  <defs
     id="defs1" />
  <sodipodi:namedview
     id="namedview1"
     pagecolor="#ffffff"
     bordercolor="#666666"
     borderopacity="1.0"
     inkscape:showpageshadow="2"
     inkscape:pageopacity="0.0"
     inkscape:pagecheckerboard="0"
     inkscape:deskcolor="#d1d1d1"
     inkscape:zoom="0.3775"
     inkscape:cx="621.19205"
     inkscape:cy="340.39735"
     inkscape:window-width="1680"
     inkscape:window-height="998"
     inkscape:window-x="-8"
     inkscape:window-y="-8"
     inkscape:window-maximized="1"
     inkscape:current-layer="svg1"
     showguides="true">
    <sodipodi:guide
       position="215.85438,0"
       orientation="1,0"
       id="guide1"
       inkscape:locked="false" />
    <sodipodi:guide
       position="653.64232,0"
       orientation="1,0"
       id="guide2"
       inkscape:locked="false" />
    <sodipodi:guide
       position="482.66299,339.5684"
       orientation="0,-1"
       id="guide3"
       inkscape:locked="false" />
  </sodipodi:namedview>
  <path
     id="path1"
     style="fill:#000000;stroke:none;stroke-width:1"
     d="M 0 0 C 50.635286 101.27057 122.44146 172.46504 215.41211 213.59766 L 215.41211 1000.3242 L 654.27344 1000.3242 L 654.27344 212.81836 C 746.61367 171.56925 817.94907 100.63696 868.26758 0 L 0 0 z M 77.019531 40.337891 L 791.24609 40.337891 C 708.20155 152.69226 588.85055 210.4408 433.21484 213.60352 C 278.79274 210.44375 160.06635 152.69538 77.019531 40.337891 z M 594.27344 234.60547 L 594.27344 643.67578 L 464.58398 643.67578 L 464.58398 940.32422 L 275.41211 940.32422 L 275.41211 235.14258 C 323.44105 248.73624 376.18731 255.62088 433.66602 255.79297 C 492.07336 255.61863 545.61269 248.55575 594.27344 234.60547 z M 524.58398 703.67578 L 594.27344 703.67578 L 594.27344 940.32422 L 524.58398 940.32422 L 524.58398 703.67578 z " />
</svg>
