<?xml version="1.0" encoding="UTF-8" standalone="no"?>
<svg
   width="700"
   height="1000"
   version="1.1"
   id="svg1"
   sodipodi:docname="13F9F.svg"
   inkscape:version="1.4.2 (f4327f4, 2025-05-13)"
   xmlns:inkscape="http://www.inkscape.org/namespaces/inkscape"
   xmlns:sodipodi="http://sodipodi.sourceforge.net/DTD/sodipodi-0.dtd"
   xmlns="http://www.w3.org/2000/svg"
   xmlns:svg="http://www.w3.org/2000/svg">
  <defs
     id="defs1" />
  <sodipodi:namedview
     id="namedview1"
     pagecolor="#ffffff"
     bordercolor="#666666"
     borderopacity="1.0"
     inkscape:showpageshadow="2"
     inkscape:pageopacity="0.0"
     inkscape:pagecheckerboard="0"
     inkscape:deskcolor="#d1d1d1"
     inkscape:zoom="6.04"
     inkscape:cx="263.32781"
     inkscape:cy="456.20861"
     inkscape:window-width="1680"
     inkscape:window-height="998"
     inkscape:window-x="-8"
     inkscape:window-y="-8"
     inkscape:window-maximized="1"
     inkscape:current-layer="svg1"
     showguides="true">
    <sodipodi:guide
       position="255.01271,110.40136"
       orientation="1,0"
       id="guide1"
       inkscape:locked="false" />
    <sodipodi:guide
       position="270.24047,110.40136"
       orientation="1,0"
       id="guide2"
       inkscape:locked="false" />
    <sodipodi:guide
       position="245.6543,476.02344"
       orientation="0,-1"
       id="guide3"
       inkscape:locked="false" />
  </sodipodi:namedview>
  <path
     id="path1"
     style="fill:#000000;stroke:none;stroke-width:1"
     d="M 134.45898,0.04296875 C 57.49688,-1.6672849 -19.273479,82.564902 5.0234375,148.51367 v 29.1875 H 31.671875 c 43.991343,26.22561 65.564729,52.45017 64.71875,78.67578 -12.689814,12.68981 -10.997564,24.53343 5.076175,35.53125 L 36.748047,942.89648 H 7.5605469 V 1000 H 657.2793 V 942.89648 H 629.36133 L 568.45117,291.9082 c 16.07388,-13.5358 14.80507,-24.95586 -3.80664,-34.26172 0,-26.22561 27.91676,-53.29727 83.75195,-81.21484 V 137.09375 C 504.57866,92.256425 394.17823,57.992355 317.19336,34.304688 240.20853,10.617055 179.2963,-0.8030113 134.45898,0.04296875 Z M 152.87891,33.300781 C 200.66399,33.969974 345.11045,72.374789 586.2168,148.51367 H 39.285156 C 24.2809,95.165228 67.889877,43.262055 144.61133,33.671875 c 2.32646,-0.290808 5.0819,-0.415707 8.26758,-0.371094 z M 81.162109,177.70117 H 593.83008 c -39.76144,20.30368 -59.64258,46.95179 -59.64258,79.94531 H 130.65234 c 0,-33.83951 -16.49671,-60.48762 -49.490231,-79.94531 z M 139.53516,291.9082 h 389.57812 l 62.17969,650.98828 H 529.11328 L 479.62305,322.36328 H 187.75586 l -48.2207,620.5332 H 76.085938 Z m 77.4082,49.49024 h 233.49219 l 45.68359,601.49804 h -90.09766 c 2.53798,-2.53799 0.84573,-11.84419 -5.07617,-27.91796 V 725.90039 c 0,-24.53367 2.11579,-39.33796 6.34571,-44.41406 8.45983,-23.68765 7.19117,-47.37681 -3.80664,-71.06445 11.84384,-67.67897 14.38119,-112.93765 7.61328,-135.7793 v -12.69141 c 0.84597,-7.61388 3.3833,-11.41992 7.61328,-11.41992 1.69198,0 2.53906,1.69221 2.53906,5.07617 l -1.26953,81.21485 h 25.37891 c -2.53794,-61.75708 -7.19108,-94.32698 -13.95899,-97.71094 -17.86605,-8.93297 -24.17974,1.50361 -30.45508,22.83984 -5.07594,-10.15183 -7.18971,-18.61098 -6.34375,-25.3789 0.84596,-3.38396 2.95979,-6.34488 6.34375,-8.88282 19.45769,-7.61389 29.1875,-21.57324 29.1875,-41.87695 0,-22.84165 -13.74761,-35.31866 -41.24219,-37.43359 -27.49458,-2.11499 -45.25998,1.90285 -53.29687,12.05468 -8.03689,10.15188 -13.74885,19.88164 -17.13281,29.1875 0,7.67286 -1.75654,11.61498 -7.61328,19.66797 -3.38395,4.65292 -5.07618,7.40209 -5.07618,8.24805 0.84602,2.53799 2.9618,3.80664 6.34571,3.80664 0,1.69197 -0.84708,2.96262 -2.53907,3.80859 -0.84596,1.69199 -0.42242,2.96066 1.26954,3.80664 -1.69196,4.22994 -1.26842,6.76731 1.26953,7.61329 l 5.32812,9.13671 -21.45117,56.52735 20.12109,5.35351 15.34961,-59.24609 c 2.53798,-0.84598 7.72347,-2.04265 11.10743,-2.88867 0.84598,6.76791 2.53819,12.26615 5.07617,16.49609 -10.99785,34.68549 -19.03541,65.14161 -24.11133,91.36719 h -22.8418 C 290.54343,543.16654 280.39207,538.0918 270.24023,538.0918 v -14.11524 h 8.08985 l -5.68164,-25.29297 c 0,-1.89424 2.84051,-3.78927 8.52344,-5.68359 v -4.26172 h -8.52344 c 0,-1.89428 2.84051,-3.78931 8.52344,-5.68359 v -2.8418 h -8.52344 c 0,-1.89429 2.84051,-3.78733 8.52344,-5.68164 v -4.26367 h -8.52344 c -0.94743,-7.57717 -2.40821,-14.65955 -2.40821,-22.27344 4.38007,0.37592 7.22476,2.14762 10.15235,5.07422 1.69198,-4.22993 1.69198,-8.45947 0,-12.68945 -2.53794,2.538 -5.92243,3.80664 -10.15235,3.80664 6.76803,-10.99782 9.0954,-18.82162 6.98047,-23.47461 -2.11499,-4.65287 -4.44253,-6.98047 -6.98047,-6.98047 v -15.22656 c 0.84598,-5.9219 -1.69138,-10.15343 -7.61328,-12.69141 7.61386,-5.07592 14.16902,-11.41931 19.66797,-19.0332 5.49891,-7.61386 4.44199,-14.38275 -3.17187,-20.30469 -10.15187,15.22779 -18.611,24.95757 -25.37891,29.1875 -6.76788,4.22994 -10.78766,8.88306 -12.05664,13.95898 -1.269,5.07592 -10.36153,19.03335 -27.28125,41.875 12.68981,0 25.37858,-10.15136 38.06836,-30.45507 1.69198,-3.38391 2.96068,-5.49969 3.80664,-6.34571 0.84624,-0.84598 1.26953,0.8462 1.26953,5.07617 v 13.95899 c -3.38396,0 -6.1331,2.32759 -8.24805,6.98047 -2.11499,4.65297 -0.21099,12.47679 5.71094,23.47461 -2.53798,0 -5.5008,-1.26864 -8.88476,-3.80664 -1.69198,4.22998 -1.69198,8.45953 0,12.68945 3.38396,-2.53801 6.76839,-4.22828 10.15234,-5.07422 0,8.45983 -1.62912,15.64337 -3.52344,22.27344 h -9.94531 v 4.26367 c 5.68291,1.8943 8.52344,3.78734 8.52344,5.68164 h -8.52344 v 2.8418 c 5.68291,1.8943 8.52344,3.78929 8.52344,5.68359 H 242.8125 V 493 c 5.68291,1.8943 8.52344,3.78935 8.52344,5.68359 l -5.68164,25.29297 h 9.35937 v 12.84571 h -12.6914 c -9.73444,3.89383 -4.13843,8.80037 1.26953,10.15234 -4.29394,21.46989 7.11755,25.78759 11.42187,26.64844 v 6.34375 c -2.53798,0.84602 -6.7695,0.84602 -12.6914,0 -6.97862,4.65317 1.0254,10.41275 2.53906,11.42187 -3.00011,3.00015 0.74309,24.15425 10.15234,27.91797 v 261.86328 c -10.93251,2.98163 -18.11742,9.93864 -19.11133,20.8711 l 4.47266,35.77929 11.92773,-7.45508 -1.49218,-23.85156 c 0,-6.95732 3.97679,-10.43555 11.92773,-10.43555 6.95705,10e-6 10.43555,3.47843 10.43555,10.43555 l -1.49219,23.85156 8.3418,4.63477 c -0.2992,0.0941 -0.59929,0.18757 -0.90039,0.28125 -16.07377,2.53789 -23.26425,5.07718 -21.57227,7.61523 h -86.29101 z m 151.00781,16.49804 c 47.6311,0 49.49024,16.0804 49.49024,30.45508 0,12.68981 -4.0178,21.14897 -12.05469,25.37891 -8.03684,4.2299 -14.17045,8.03791 -18.40039,11.42187 -7.61389,-3.38396 -12.26703,-8.88415 -13.95899,-16.49804 1.69198,-2.53795 2.53907,-6.344 2.53907,-11.41992 0,-5.07594 -3.17266,-7.61329 -9.51758,-7.61329 -6.34489,0 -10.36271,2.96092 -12.05469,8.88282 0,-6.76786 -2.11578,-10.36438 -6.3457,-10.78711 -4.22994,-0.42301 -8.88306,-1.05834 -13.95899,-1.9043 8.45988,-18.61171 19.87994,-27.91602 34.26172,-27.91602 z m -43.14453,35.53125 c 4.22994,0 9.30662,0.84511 15.22852,2.53711 7.61389,0.84597 11.84343,3.8069 12.68945,8.88282 2.53794,0 3.80664,1.26869 3.80664,3.80664 -4.22992,1.69199 -6.3457,4.23127 -6.3457,7.61523 0,5.07594 1.69221,7.61328 5.07617,7.61328 2.53798,0 5.92244,-2.11576 10.15234,-6.3457 2.53798,5.9219 9.30492,12.26724 20.30274,19.03516 -0.84598,6.76792 0.42464,13.53681 3.80859,20.30468 -3.38395,3.38396 -9.30574,5.07422 -17.76562,5.07422 -5.9219,0 -10.36327,-1.26864 -13.32422,-3.80664 -2.96095,-2.53798 -4.86498,-7.1911 -5.71094,-13.95898 -1.692,-5.07594 -4.44109,-7.61328 -8.24805,-7.61328 -3.80695,0 -10.36406,1.69221 -19.66992,5.07617 C 322.2687,439.11044 321,436.99471 321,435.30273 c 4.22992,-1.69198 7.19083,-3.80581 8.88281,-6.34375 -4.22994,-2.53799 -7.61434,-4.23021 -10.15234,-5.07617 v -2.53906 c 4.22992,-0.84602 6.3457,-2.11466 6.3457,-3.80664 C 325.23021,415.84513 323.96151,415 322.26953,415 c -1.69226,0.84624 -2.11555,1.26953 -1.26953,1.26953 0.84596,0.84596 -10e-4,1.47961 -2.53906,1.90235 -2.53794,0.423 -3.80664,0.21119 -3.80664,-0.63477 V 415 c 5.9219,-8.45988 9.30636,-15.65033 10.15234,-21.57227 z m 5.78906,1.98243 c -1.53335,-0.0529 -3.03904,0.13169 -4.51953,0.55468 -1.69198,1.69197 -1.69198,2.96063 0,3.80664 4.22994,-2.53798 10.57333,-0.84571 19.03321,5.07618 h 5.07617 v -2.53711 h -5.07617 c -5.07591,-4.44163 -9.91361,-6.74183 -14.51368,-6.90039 z m 34.1836,0.55468 c 3.80697,0 5.71093,1.26865 5.71093,3.80664 0,4.33306 -1.06499,6.14103 -8.88281,13.95899 -2.53799,2.53794 -4.23021,3.80664 -5.07617,3.80664 -0.84597,0 -1.48157,-0.21204 -1.9043,-0.63477 -0.42301,-0.42301 -0.21125,-1.47989 0.63477,-3.17187 l 6.3457,-3.80664 c -1.69198,-4.22994 -2.53906,-7.61441 -2.53906,-10.15235 0,-2.53799 1.90403,-3.80664 5.71094,-3.80664 z m -33.62696,5.07618 c -2.40848,0 -5.07617,0.058 -5.07617,3.80664 0,2.53794 1.69221,3.80664 5.07617,3.80664 2.53798,0 6.34399,-0.84513 11.41993,-2.53711 -5.07592,-3.38395 -8.88194,-5.07617 -11.41993,-5.07617 z m -67.41601,20.62109 c 1.16324,0 2.27454,0.52844 3.33203,1.58594 2.11495,2.11495 0.63453,9.09366 -4.44141,20.9375 -4.22992,-11.84384 -5.077,-18.82257 -2.53906,-20.9375 1.269,-1.0575 2.4852,-1.58594 3.64844,-1.58594 z m 124.51953,54.24805 c 12.68982,21.99567 10.9976,66.83274 -5.07617,134.51172 13.53579,25.37957 14.80446,47.37652 3.80664,65.98828 -5.92217,28.76354 -8.03573,73.17712 -6.34375,133.24218 -0.84602,67.67899 -0.84602,103.21164 0,106.59571 5.92189,17.76575 5.07483,26.64843 -2.53906,26.64843 h -69.79297 c 21.99568,-7.61388 39.76108,-19.45748 53.29687,-35.53125 6.76786,-16.91974 7.61305,-41.66576 2.53711,-74.23632 -5.07592,-32.5705 -12.2664,-82.27244 -21.57226,-149.10547 -9.30586,-66.83298 -2.11537,-135.78082 21.57226,-206.84375 6.76792,3.38395 14.80548,2.9604 24.11133,-1.26953 z m -88.82813,96.44336 20.30274,5.07617 -2.53711,17.76562 h -17.76563 c -11.8438,-9.30603 -21.57361,-13.95898 -29.1875,-13.95898 v -7.61328 c 10.15184,1.69204 19.88164,1.26852 29.1875,-1.26953 z m -29.1875,46.95312 h 44.41407 c 1.69196,13.53577 4.44109,36.37595 8.24804,68.52344 3.80695,32.14749 9.30718,70.00589 16.49805,113.57422 7.19092,43.56834 9.94003,72.96755 8.24805,88.19531 -7.18012,17.55142 -27.90176,32.0924 -62.16602,43.625 l 2.59961,-31.18359 c 0,-10.93246 -6.90928,-17.8894 -17.8418,-20.8711 z M 41.824219,964.46875 H 624.28711 v 13.95898 H 41.824219 Z"
     sodipodi:nodetypes="ccccccccccccccccscsccsscccccccccccccccccccsccccscccscccssscsccccccccccccccccccccccccccccccccccscsscccscscccccccccccccccccccccccccccccscccccccsssccsscccsccccsscccsscscccccccccsccsccccccssssssccssssscssscsscccccsccsscccccccccccsscccccccccc" />
</svg>
