<?xml version="1.0" encoding="UTF-8" standalone="no"?>
<svg
   width="1100"
   height="1000"
   version="1.1"
   id="svg1"
   sodipodi:docname="13FB3.svg"
   inkscape:version="1.4.2 (f4327f4, 2025-05-13)"
   xmlns:inkscape="http://www.inkscape.org/namespaces/inkscape"
   xmlns:sodipodi="http://sodipodi.sourceforge.net/DTD/sodipodi-0.dtd"
   xmlns="http://www.w3.org/2000/svg"
   xmlns:svg="http://www.w3.org/2000/svg">
  <defs
     id="defs1" />
  <sodipodi:namedview
     id="namedview1"
     pagecolor="#ffffff"
     bordercolor="#666666"
     borderopacity="1.0"
     inkscape:showpageshadow="2"
     inkscape:pageopacity="0.0"
     inkscape:pagecheckerboard="0"
     inkscape:deskcolor="#d1d1d1"
     inkscape:zoom="0.3775"
     inkscape:cx="626.49007"
     inkscape:cy="80.794702"
     inkscape:window-width="1680"
     inkscape:window-height="998"
     inkscape:window-x="-8"
     inkscape:window-y="-8"
     inkscape:window-maximized="1"
     inkscape:current-layer="svg1"
     showguides="true">
    <sodipodi:guide
       position="884.51773,681.47209"
       orientation="0,-1"
       id="guide3"
       inkscape:locked="false" />
  </sodipodi:namedview>
  <path
     style="fill:#000000;stroke:none;stroke-width:1"
     d="M 514.25977,0 C 400.84574,0 304.96227,12.337692 226.61133,37.011719 148.26043,61.685783 86.57595,89.606224 41.556641,120.77344 H 9.0898438 v 40.93164 H 48.048828 c 22.509654,17.31512 33.765625,62.96153 33.765625,99.99609 H 20.777344 c -7.791815,0 -11.6875003,6.82249 -11.6875002,20.4668 0,13.6443 3.8956852,20.46484 11.6875002,20.46484 h 61.037109 v 11.68946 H 27.271484 c -8.657562,0 -12.120169,5.84358 -10.388672,17.53125 1.731536,11.68773 3.894942,17.96433 6.492188,18.83007 14.717878,4.32878 24.241532,20.77768 28.570312,49.34766 4.328783,26.83844 14.718631,40.25781 31.167969,40.25781 H 81.814453 V 936.36719 H 0 V 1000 H 1028.5176 V 936.36719 H 946.70508 V 440.28906 h -1.29883 c 15.58355,0 25.97142,-13.41937 31.16602,-40.25781 4.32878,-28.56998 13.41936,-45.01888 27.27153,-49.34766 3.4631,-0.86574 5.8439,-7.14234 7.1425,-18.83007 1.2986,-11.68767 -1.9484,-17.53125 -9.7402,-17.53125 h -55.83985 v -11.68946 h 62.33395 c 7.7917,0 11.6875,-6.82054 11.6875,-20.46484 0,-13.64431 -3.8958,-20.4668 -11.6875,-20.4668 h -61.03512 c 0,-37.03456 11.25406,-82.68097 33.76367,-99.99609 h 38.95895 V 120.77344 H 986.96094 C 941.94163,89.606223 880.25715,61.685783 801.90625,37.011719 723.55535,12.337692 627.67379,0 514.25977,0 Z m 0,32.466797 c 111.68248,0 201.50297,9.954817 269.46484,29.867187 67.9618,19.912408 118.39227,39.392836 151.29101,58.439456 H 93.501953 C 126.40067,101.72682 176.83113,82.246392 244.79297,62.333984 312.75481,42.421614 402.57724,32.466797 514.25977,32.466797 Z M 87.007812,161.70508 H 941.50977 c -18.18083,17.31512 -27.27149,62.96153 -27.27149,99.99609 H 114.2793 c 0,-37.03456 -9.09062,-82.68097 -27.271488,-99.99609 z m 36.363278,140.92773 h 781.77735 v 11.68946 h -55.8418 c -7.79181,0 -11.03882,5.84358 -9.74023,17.53125 1.29866,11.68773 3.67954,17.96433 7.14257,18.83007 13.85209,4.32878 22.94287,20.77768 27.27149,49.34766 4.32876,26.83844 14.7186,40.25781 31.16797,40.25781 V 549.375 H 650.61523 v 32.46484 c 21.64391,11.25485 32.4668,22.07775 32.4668,32.4668 -6.92607,6.92603 -6.92607,14.7174 0,23.375 V 936.36719 H 345.4375 V 637.68164 c 6.92607,-8.6576 6.92607,-16.44897 0,-23.375 0,-10.38905 10.82093,-21.21195 32.46484,-32.4668 V 549.375 H 123.37109 V 440.28906 c 15.58363,0 25.97149,-13.41937 31.16602,-40.25781 3.46303,-28.56998 12.55364,-45.01888 27.27148,-49.34766 3.46304,-0.86574 5.84395,-7.14234 7.14258,-18.83007 1.29862,-11.68767 -2.38149,-17.53125 -11.03906,-17.53125 h -54.54102 z m -81.814449,31.16797 h 61.035159 62.33398 c 1.73153,0 2.16458,1.08171 1.29883,3.2461 -0.86578,2.1644 -3.02919,3.67918 -6.49219,4.54492 -12.12059,4.32878 -20.77812,23.8092 -25.97265,58.43945 -3.46303,15.58359 -13.85285,23.375 -31.16797,23.375 -18.18088,0 -28.137647,-7.79141 -29.869144,-23.375 C 67.528126,365.401 58.870594,345.92058 46.75,341.5918 c -3.463032,-0.86574 -5.626438,-2.38052 -6.492188,-4.54492 -0.865747,-2.16438 -0.432668,-3.2461 1.298829,-3.2461 z m 822.035159,0 h 123.37109 c 1.73158,0 2.16286,1.08171 1.29688,3.2461 -0.86564,2.1644 -3.02905,3.67918 -6.49219,4.54492 -12.12059,4.32878 -20.77817,23.8092 -25.97266,58.43945 -2.59724,15.58352 -12.98721,23.37493 -31.16797,23.375 -16.44909,-7e-5 -26.40404,-7.79148 -29.86718,-23.375 -5.19452,-34.63025 -13.85206,-54.11067 -25.97266,-58.43945 -3.46319,-0.86574 -5.62854,-2.38052 -6.49414,-4.54492 -0.86596,-2.16438 -0.43275,-3.2461 1.29883,-3.2461 z m -761,248.03906 h 241.54687 c -13.85209,11.25485 -20.77929,21.64465 -20.77929,31.16797 H 102.5918 Z m 580.49023,0 h 242.84375 v 31.16797 H 705.1582 c 0,-9.52332 -7.35833,-19.91312 -22.07617,-31.16797 z M 102.5918,637.68164 H 323.35938 V 936.36719 H 301.2832 V 658.45898 H 102.5918 Z m 602.5664,0 h 220.76758 v 20.77734 H 725.93555 V 936.36719 H 705.1582 Z M 102.5918,680.53516 H 280.50586 V 936.36719 H 102.5918 Z m 645.42187,0 H 925.92578 V 936.36719 H 748.01367 Z M 20.777344,957.14453 H 1007.7402 v 22.07813 H 20.777344 Z"
     id="path1"
     sodipodi:nodetypes="sccccccsssccssccccccccccccccssccssscccccssssccssccccccccssccccccccccccccccccssccscssccsccsssscccscccsccccccccccccccccccccccccccccccccccccccc" />
</svg>
