<?xml version="1.0" encoding="UTF-8" standalone="no"?>
<svg
   width="1500"
   height="1000"
   version="1.1"
   id="svg1"
   sodipodi:docname="13FD7.svg"
   inkscape:version="1.4.2 (f4327f4, 2025-05-13)"
   xmlns:inkscape="http://www.inkscape.org/namespaces/inkscape"
   xmlns:sodipodi="http://sodipodi.sourceforge.net/DTD/sodipodi-0.dtd"
   xmlns="http://www.w3.org/2000/svg"
   xmlns:svg="http://www.w3.org/2000/svg">
  <defs
     id="defs1" />
  <sodipodi:namedview
     id="namedview1"
     pagecolor="#ffffff"
     bordercolor="#666666"
     borderopacity="1.0"
     inkscape:showpageshadow="2"
     inkscape:pageopacity="0.0"
     inkscape:pagecheckerboard="0"
     inkscape:deskcolor="#d1d1d1"
     inkscape:zoom="0.70710678"
     inkscape:cx="798.32356"
     inkscape:cy="591.84838"
     inkscape:window-width="1680"
     inkscape:window-height="998"
     inkscape:window-x="-8"
     inkscape:window-y="-8"
     inkscape:window-maximized="1"
     inkscape:current-layer="svg1"
     showguides="true">
    <sodipodi:guide
       position="1309.2971,70.03841"
       orientation="0,-1"
       id="guide2"
       inkscape:locked="false" />
    <sodipodi:guide
       position="1000,810.24609"
       orientation="0,-1"
       id="guide1"
       inkscape:locked="false" />
  </sodipodi:namedview>
  <path
     style="fill:#000000;stroke:none;stroke-width:1"
     d="m 803.4082,297.38281 c -7.00279,0.18374 -15.52071,6.55361 -17.83008,10.01758 -4.57866,6.86767 -17.20623,10.92578 -40.65039,10.92578 -25.08638,0 -26.83269,-7.54883 -37.07226,-7.54883 -11.07662,0 -24.01964,8.37418 -51.30859,15.59766 -10.31002,-5.65386 -26.00049,-9.16992 -42.07422,-9.16992 -8.91147,0 -17.9408,1.08148 -26.23828,3.47851 -29.51384,1.34775 -48.3075,0.59392 -83.49219,13.28321 -21.54403,-9.28356 -72.56248,-18.96222 -79.69531,-17.07813 -8.29744,-2.39726 -16.11991,-3.47851 -23.47852,-3.47851 -13.27269,0 -25.03374,3.51605 -35.34375,9.16992 -20.86747,-5.60615 -35.20818,-9.49219 -48.69336,-9.49219 -24.40176,0 -34.18084,12.56641 -52.99609,12.56641 -14.37762,0 -22.37606,-8.83396 -33.03711,-18.25391 -6.67519,-8.76121 -33.67653,-23.22291 -26.56446,17.07813 17.31872,25.79394 41.87848,38.29687 74.40235,38.29687 13.10589,0 27.50477,-2.02995 43.24414,-6.03906 24.41605,10.63279 44.87811,17.17383 61.46875,17.17383 15.29611,0 24.52798,-6.88868 39.82031,-6.88868 4.84893,0 8.42479,0.98098 10.66602,2.99805 -20.6788,6.2036 -31.7409,14.15913 -32.25782,26.56641 -17.57699,5.68663 -39.53165,23.83309 -66.41406,51.23242 -10.33936,5.68663 -17.60177,8.88896 -22.77148,13.2832 -5.16966,4.3942 -4.30323,16.23169 1.90039,32.25782 -0.51675,8.78843 0.5217,18.12152 5.6914,28.46093 24.34999,18.62834 72.35097,13.08217 111.95313,1.89844 0,90.98648 21.4378,159.61645 66.41406,208.72852 3.10174,8.78855 1.89171,20.3675 -3.79492,32.25781 -5.6867,11.8904 -13.11845,20.44998 -20.87305,28.46289 -7.75449,8.01309 -12.68393,21.14944 -17.07812,37.95117 -4.39425,16.80136 -15.1978,31.32264 -32.25781,45.53906 -17.05992,14.21671 -28.63904,27.61377 -32.25782,37.95313 -20.94863,15.2046 -36.06981,29.40085 -47.43945,43.64062 h -83.49023 c 0.18468,-1.27769 0,-2.3979 0,-3.79297 0,-15.47525 -10.08602,-22.76953 -28.4629,-22.76953 H 58.824219 c -18.37693,0 -27.050009,7.77788 -26.566407,22.76953 0.0465,1.4418 -0.198413,2.48524 0,3.79297 H 0 V 1000 h 1455.4062 v -41.74805 h -28.4628 c 0.1836,-1.27769 0,-2.3979 0,-3.79297 0,-15.47525 -10.084,-22.76953 -28.461,-22.76953 h -174.5742 c -18.3769,0 -28.4629,7.77788 -28.4629,22.76953 0,1.4418 -0.1835,2.48524 0,3.79297 h -30.3613 c 1.4084,-4.85771 1.8966,-9.96859 1.8965,-15.17968 14.8701,1.43874 34.7805,-5.96748 11.3867,-41.7461 -1.5508,-1.03406 -0.8624,-31.6307 -1.8965,-91.08203 2.0682,-20.16181 -1.7359,-30.35937 -9.4902,-30.35937 -11.5119,0 -33.205,-54.86601 -7.5879,-85.38868 12.1484,-14.47507 22.4355,-37.46857 32.2578,-72.10547 2.0681,33.08597 0.2495,60.74337 -5.6934,83.49024 -9.4764,36.25722 -6.823,155.59766 26.5664,155.59766 23.322,-8.04223 25.2557,-16.26213 -5.6933,-149.9043 20.1617,-108.04655 7.1965,-175.37734 -39.8477,-203.03516 -44.6535,-26.25216 -89.9064,-39.96679 -135.0625,-39.96679 -94.08144,2.20161 -188.88103,2.8218 -282.39646,-9.3711 -61.40423,-10.60918 -125.58119,-47.14124 -174.57032,-85.38672 5.77891,-4.1278 13.03382,-6.01172 21.36524,-6.01172 17.11989,0 23.65764,6.10743 38.40234,6.10743 16.18648,0 35.75311,-6.54104 59.77539,-17.17383 15.8879,4.00911 30.35021,6.03906 43.47071,6.03906 32.56019,0 56.85717,-12.50293 74.17578,-38.29687 3.75518,-21.27669 -1.73158,-27.27946 -8.73438,-27.09571 z m -253.125,91.61133 c 25.07299,14.47518 53.33657,31.15974 85.38868,53.13086 31.25568,21.42534 69.34666,33.05173 112.44726,34.0957 l -0.0665,2.33315 c -135.5601,0 -191.66249,33.75093 -197.76936,100.19422 -6.46216,70.30767 4.68902,125.79436 34.15625,165.08398 -2.63655,3.95482 -26.58045,34.49667 -87.28515,-55.02734 -25.59001,-37.73885 -37.53143,-95.12979 -37.95313,-172.67578 -0.0761,-13.99984 -11.41308,-21.33284 -24.66601,-15.17969 -14.47512,6.72059 -27.52278,9.2298 -36.05274,9.48828 -8.53,0.25844 -15.01693,2.8481 -22.77148,5.69141 -12.01902,4.4071 -27.95762,1.82798 -36.05274,0 13.44117,-3.1018 27.78795,-8.11354 41.7461,-13.28321 13.95815,-5.16971 19.663,-10.78548 17.07812,-15.17968 -3.52663,-5.99485 -16.18018,1.43648 -22.77148,5.69336 -12.40728,8.01296 -27.61658,13.62876 -43.64258,15.17968 -3.61884,-0.51697 -4.91783,-5.43964 -5.69336,-11.38476 -0.77545,-5.94518 1.38813,-10.1814 7.5918,-13.28321 l 15.17968,-5.6914 c 6.11141,3.2594 11.35734,3.87353 13.28125,-1.89844 2.91729,-8.7513 -7.79318,-15.48047 -11.35546,-15.48047 -1.85233,0 -7.48202,1.59937 -11.41407,7.89063 l -13.2832,9.48828 -3.79492,-7.5918 43.64453,-26.56445 c 9.8224,-12.92419 28.31637,-25.19835 53.13086,-36.05469 0,-10.8564 14.006,-19.93093 45.54101,-28.46094 16.56715,-4.48121 51.56401,-10.04005 85.38672,9.48631 z m -20.87109,11.38477 c -21.80689,29.50343 -23.59805,43.6513 -20.87305,129.0332 85.68333,-48.42972 65.76912,-107.76733 60.72071,-119.54688 l -13.28321,-3.79296 c 4.65272,38.25566 -5.89244,70.57938 -32.25781,94.87695 2.09787,-33.13032 3.0523,-66.95067 18.97656,-96.77539 z m -87.89649,9.18945 c -3.7728,0 -17.14096,0.66125 -22.16015,9.78711 v 13.28125 c -13.02981,4.92549 -45.94669,20.50697 -47.43945,32.25976 l 55.02734,-24.66992 c 2.87077,4.13264 10.80148,2.14881 15.18164,1.89844 10.33943,-1.03395 20.19137,-4.83555 28.46289,-9.48828 v -5.69336 h -5.69141 c -4.91116,-2.58483 -8.8504,-4.62379 -13.2832,-5.69141 5.65496,-1.01599 11.30926,-2.061 17.07617,-1.89648 v -5.69336 c -10.58606,-2.49082 -19.80349,-4.09375 -27.17383,-4.09375 z m 569.27928,83.79102 c 0.1948,0 0.3952,-2.9e-4 0.5899,0 96.517,0.11167 159.8524,36.97295 178.3672,74.00195 -7.7544,-10.33937 -23.8285,-19.32683 -45.5411,-26.56445 l 3.795,9.48632 c 21.1955,13.44111 31.3953,30.03873 30.3613,51.23438 -1.0341,21.19577 -11.1446,43.14865 -28.4629,66.41211 -17.3186,23.26373 -26.306,43.3152 -26.5645,58.82422 1.9886,27.45184 -2.5689,37.82031 -11.8476,37.82031 -29.8543,0 -108.5756,-105.76601 -174.11134,-98.54102 l 11.38476,15.18164 c 27.48136,-6.34214 38.30417,6.71555 43.64258,17.07813 h -7.58984 l -144.21094,20.87305 -7.58984,-3.79688 c -71.49609,-11.03633 -122.65353,-17.1875 -157.33008,-17.1875 -2.68333,0 -5.27011,0.0371 -7.75781,0.11133 0,-9.90827 -2.23279,-14.55859 -5.83789,-14.55859 -1.09748,0 -2.32178,0.42823 -3.64844,1.27539 1.7355,36.53559 -11.9592,53.41406 -28.93555,53.41406 -27.80651,0 -64.41792,-45.28193 -56.45312,-123.62305 0,-41.35748 12.27413,-71.08768 36.05469,-89.18164 23.78052,-18.0939 77.02317,-27.94786 161.28906,-28.46484 143.43594,7.43724 188.04765,-3.79492 240.39646,-3.79492 z m -25.97654,222.00976 c 37.38214,0 60.82774,45.45562 62.61914,53.13281 3.7373,16.01553 -14.1056,15.04281 -18.9746,1.89649 -2.5849,-6.97907 -7.7725,-14.676 -17.0781,-26.56641 h -1.8985 c 7.2374,11.89036 13.1118,25.89163 15.1797,39.84961 -3.5655,2.29008 -7.1186,3.41992 -10.4922,3.41992 -14.7256,0 -26.0169,-21.54321 -19.86521,-62.24414 l -18.97851,-1.89648 c -16.54299,4.65246 -54.74578,10.35542 -115.74805,17.07617 -2.99506,1.05693 -14.41053,4.63718 -15.17969,-1.89649 -0.64349,-5.44947 7.2025,-6.0395 13.28321,-5.69531 z m -307.40039,1.90234 c 67.73811,-0.72837 142.59937,18.29844 144.21289,18.97071 1.03407,10.33916 6.91028,18.80523 15.18164,20.87304 7.23755,23.26367 14.1505,36.22888 20.87109,39.84766 1.55082,-20.16169 3.9728,-36.066 7.5918,-47.43945 l 81.59375,-7.58789 c -6.20356,42.90857 -16.92016,75.5776 -30.36133,96.77343 -13.44117,21.19577 -31.24859,40.90651 -55.02929,62.61914 -9.73168,15.08416 -15.5113,22.86133 -20.03711,22.86133 -0.28367,0 -0.56088,-0.0311 -0.83399,-0.0898 -9.23149,1.8462 -21.35516,15.63814 -34.15625,34.15625 h -72.10742 c 1.10359,-4.79596 2.08478,-9.97055 1.89844,-15.18164 25.68766,3.66863 28.06036,-21.61874 15.18164,-41.74219 -18.0939,-25.84835 -28.7234,-48.75288 -28.46485,-70.20703 0.25587,-21.45438 -6.05024,-39.08759 -18.9746,-51.23633 -12.92398,-12.1489 -21.39681,-33.15007 -26.56641,-62.61719 z m -75.90039,49.33204 c 9.30553,4.65301 21.06057,18.30616 36.05273,37.95117 6.72059,26.88245 18.82324,42.61344 37.95117,49.33398 6.72053,16.02616 11.73217,36.77069 13.28321,62.61914 -12.16375,14.191 -23.82862,27.73733 -34.15625,41.74414 H 445.91992 c 5.06992,-1.9413 9.05837,-6.81708 11.38477,-13.27929 -2.22237,-46.97205 19.23511,-75.39798 56.92578,-96.77539 16.54303,-21.7127 32.88197,-40.89973 51.23437,-56.92579 18.35244,-16.02599 30.88303,-24.15088 36.05274,-24.66796 z m 459.20312,11.38476 c 32.569,20.67885 51.7561,50.23469 56.9258,85.38867 v 53.13086 c -11.9836,13.9809 -22.592,27.93235 -32.2578,41.74414 H 893.73633 c 10.81736,-0.61297 18.54866,-9.11474 20.875,-26.5625 9.30547,-8.27147 19.93787,-23.9174 34.15429,-47.43945 14.21686,-23.52217 28.65063,-38.82045 43.64258,-45.54102 14.992,-6.72071 24.8441,-21.23681 28.4629,-39.84765 3.9747,2.65155 8.6248,-0.64672 13.2832,-5.69336 8.6503,2.08828 23.0049,2.62724 26.5664,-15.17969 z"
     id="path5" />
  <path
     style="fill:#000000;stroke:none;stroke-width:1"
     d="m 144.21289,163.18755 c -20.31133,0 -46.364647,4.57831 -77.798828,13.2832 -31.434236,8.70483 -51.979898,26.123 -62.6191401,49.33594 -4.69553563,5.86942 -5.6466855,10.50391 3.0605469,10.50391 4.0582752,0 10.0453332,-1.04998 17.8125002,-2.91407 10.712107,-2.57106 55.465618,-8.23928 62.617187,74.00391 2.901611,33.36859 13.880894,49.33594 32.257814,49.33594 5.75401,40.27826 -45.804882,198.1089 -32.257814,466.79297 7.737631,71.57319 26.944304,106.43164 56.927734,106.43164 31.91773,0 50.1534,-34.85844 56.92383,-106.43164 7.86555,-155.99888 1.3452,-231.57292 -32.25781,-466.79297 18.37693,0 27.9433,-15.96735 30.36132,-49.33594 6.0904,-84.04603 55.38769,-76.19474 64.51563,-74.00391 10.65774,2.55782 31.80271,7.46196 22.77148,-7.58984 C 273.95369,202.5937 253.40798,185.17553 223.9082,176.4707 189.35413,166.27442 163.45005,163.1875 144.21289,163.1875 Z m 1.22266,26.79487 c 32.80932,0.25771 64.89307,10.56026 101.24218,30.13281 -11.76275,-1.96044 -67.05518,-6.40215 -74.00195,81.59375 -1.45086,18.37693 -11.05322,29.31829 -28.46289,34.1543 -16.44252,-4.83601 -25.11561,-15.77737 -26.56641,-34.1543 C 113.38235,247.69667 81.474707,214.16532 39.847656,220.11523 79.092251,199.51184 112.62623,189.7247 145.43555,189.98242 Z m 0.67383,170.54883 c 20.31128,176.99858 29.39412,292.1553 30.36132,345.35156 -0.9672,128.63828 -10.97932,193.54688 -32.25781,193.54688 -20.31133,0 -31.29061,-64.9086 -32.25781,-193.54688 0.9672,-53.19626 12.87576,-168.35298 34.1543,-345.35156 z"
     id="path4" />
  <path
     style="fill:#000000;stroke:none;stroke-width:1"
     d="m 1308.0156,163.18555 c -14.5329,0 -38.1445,2.49269 -76.5176,13.28515 -30.9508,8.70483 -52.9089,26.123 -64.5156,49.33594 -9.0299,15.05128 12.1114,10.14826 22.7715,7.58984 14.0899,-3.38169 54.5179,-5.83052 62.6172,74.00391 3.3853,33.36859 13.8809,49.33594 32.2578,49.33594 5.5679,38.97284 -45.2669,202.36171 -34.1562,466.79297 7.7378,71.57319 27.8734,106.43164 58.8242,106.43164 31.9176,0 50.1553,-34.85844 56.9258,-106.43164 12.1307,-158.67878 -10.4707,-310.93395 -34.1543,-466.79297 19.3441,0 29.8398,-15.96735 32.2578,-49.33594 2.55,-36.77906 13.3323,-73.5081 55.8125,-75.03906 7.0409,0.53176 39.5388,11.10438 29.5761,-6.55469 -11.6065,-23.21294 -31.221,-40.63111 -60.7207,-49.33594 -29.4998,-8.70489 -56.4842,-13.2832 -79.6972,-13.2832 -0.3672,0 -0.8404,-0.002 -1.2793,-0.002 z m -0.6152,26.56836 c 31.9178,0 66.6422,10.05004 104.3633,30.36132 -12.3024,-1.89202 -69.002,-5.78274 -75.9004,81.59375 -1.4508,18.37693 -10.124,29.31829 -26.5664,34.1543 -17.4098,-4.83601 -27.0121,-15.77737 -28.4629,-34.1543 -3.4054,-43.13384 -27.84,-88.99149 -75.9004,-81.59375 37.7212,-20.31128 71.5161,-30.36132 102.4668,-30.36132 z m 1.8965,170.77734 c 21.2785,176.99858 31.2907,292.1553 32.2578,345.35156 -0.9673,128.63828 -10.9793,193.54688 -32.2578,193.54688 -21.2787,0 -32.2578,-64.9086 -32.2578,-193.54688 0,-53.19626 10.9791,-168.35298 32.2578,-345.35156 z"
     id="path3" />
  <path
     style="fill:#000000;stroke:none;stroke-width:1"
     d="m 912.71289,127.13477 v 49.33593 c -18.54124,10.8157 -63.49647,52.17154 -64.51562,113.85157 -0.69974,42.34909 26.42556,138.52148 151.80273,138.52148 125.3772,0 151.8008,-106.46094 151.8008,-138.52148 0,-59.87801 -42.6,-100.33658 -66.4121,-113.85157 v -49.33593 z m 30.35938,20.87304 h 111.95503 v 20.8711 H 943.07227 Z M 1000,189.75391 c 116.9622,0 123.3398,67.80864 123.3398,100.56836 0,51.95177 -46.3504,110.05664 -123.3398,110.05664 -76.98943,0 -125.23828,-60.70339 -125.23828,-110.05664 0,-34.12713 8.27609,-100.56836 125.23828,-100.56836 z"
     id="path2" />
  <path
     style="fill:#000000;stroke:none;stroke-width:1"
     d="M 146.10938,0 V 161.2168 L 269.44922,89.185547 H 1182.1621 L 1307.4004,161.2168 V 0 Z m 32.25781,26.566406 H 1277.0391 v 92.976564 l -94.877,-55.027345 H 269.44922 l -91.08203,55.027345 z"
     id="path1" />
</svg>
