<?xml version="1.0" encoding="UTF-8" standalone="no"?>
<svg
   width="1250"
   height="1000"
   version="1.1"
   id="svg1"
   sodipodi:docname="1403C.svg"
   inkscape:version="1.4.2 (f4327f4, 2025-05-13)"
   xmlns:inkscape="http://www.inkscape.org/namespaces/inkscape"
   xmlns:sodipodi="http://sodipodi.sourceforge.net/DTD/sodipodi-0.dtd"
   xmlns="http://www.w3.org/2000/svg"
   xmlns:svg="http://www.w3.org/2000/svg">
  <defs
     id="defs1" />
  <sodipodi:namedview
     id="namedview1"
     pagecolor="#ffffff"
     bordercolor="#666666"
     borderopacity="1.0"
     inkscape:showpageshadow="2"
     inkscape:pageopacity="0.0"
     inkscape:pagecheckerboard="0"
     inkscape:deskcolor="#d1d1d1"
     inkscape:zoom="0.755"
     inkscape:cx="476.15894"
     inkscape:cy="440.39735"
     inkscape:window-width="1680"
     inkscape:window-height="998"
     inkscape:window-x="-8"
     inkscape:window-y="-8"
     inkscape:window-maximized="1"
     inkscape:current-layer="svg1" />
  <path
     id="path1"
     style="fill:#000000;stroke:none;stroke-width:1"
     d="m 470.01562,135.96484 c -20.26603,17.14818 -21.82396,38.77864 -4.67578,64.89063 17.14818,26.11202 31.56782,51.25072 43.25977,75.41406 -21.04551,29.61957 -31.17791,60.40727 -30.39844,92.36524 V 822.2832 C 411.25631,805.04989 360.37638,788.94364 325.55859,773.96484 V 275.38672 L 203.11914,152.21289 171.20312,183.9375 280.55859,293.94727 V 756.78516 C 243.15234,738.85622 196.40024,710.41363 140.30273,671.45703 V 271.5918 H 0 V 670.28711 C 150.43631,805.1342 291.51889,887.75722 423.24805,918.15625 H 0 V 1000 H 1248.6992 V 918.15625 H 827.78906 C 957.95923,887.75722 1090.0788,823.84103 1224.1465,726.4082 1106.4475,670.28686 1047.988,614.16623 1048.7676,558.04492 l 81.8437,-53.7832 c 23.3839,-7.79463 54.1717,5.45558 92.3653,39.75195 33.517,-31.95797 35.8558,-74.63219 7.0156,-128.02539 -28.8401,-53.39319 -65.4749,-75.41411 -109.9043,-66.06055 7.0151,51.44451 1.17,84.18255 -17.5371,98.21289 l -151.99611,72.49024 c 8.57406,97.43287 42.4815,166.02471 101.72071,205.77734 -39.7527,21.04548 -78.7263,38.58297 -116.91993,52.61328 V 636.38086 H 798.55859 v 177.7168 c -24.94281,4.67667 -44.03821,7.40598 -57.28906,8.18554 V 368.63477 c 4.67679,-30.39903 11.49713,-41.89511 20.46094,-34.49024 8.96381,7.40491 21.23887,22.79776 36.82812,46.18164 15.58925,56.90077 38.58531,79.50637 68.98438,67.81445 -31.1785,-69.37219 -51.83573,-116.72412 -61.96875,-142.05664 -10.13303,-25.33256 -27.47621,-49.88656 -52.0293,-73.66015 -24.55306,-23.77363 -45.40259,-55.92693 -62.55078,-96.45899 -20.26604,17.14818 -21.82591,38.77864 -4.67773,64.89063 17.14818,26.11202 31.56781,51.25072 43.25976,75.41406 -21.04547,29.61957 -31.5664,60.40727 -31.5664,92.36524 v 455.98632 c -52.22401,5.45636 -111.07396,5.84672 -176.54883,1.16993 V 368.63477 c 3.89733,-30.39903 10.3272,-41.89511 19.29101,-34.49024 8.96381,7.40491 21.24083,22.79776 36.83008,46.18164 15.58925,56.90077 38.58335,79.50637 68.98242,67.81445 C 615.38592,378.76843 594.73068,331.4165 584.59766,306.08398 574.46467,280.75142 557.12145,256.19742 532.56836,232.42383 508.01531,208.6502 487.16381,176.4969 470.01562,135.96484 Z M 29.230469,301.99023 H 109.9043 V 645.73438 L 29.230469,581.42773 Z M 1149.3184,381.49609 c 17.9277,0 35.6593,16.36804 53.1972,49.10547 17.5379,32.73743 21.2404,56.51248 11.1074,71.32227 -29.6196,-28.06064 -60.4073,-33.90778 -92.3652,-17.53906 l -108.7363,60.79882 c 6.2357,70.93112 56.1227,131.33899 149.6582,181.22461 C 987.58,845.66594 808.30279,905.29492 624.34961,905.29492 c -75.2772,0 -145.55126,-11.24421 -209.93457,-29.37499 C 232.00965,824.55334 96.886624,717.91145 29.230469,655.08789 v -40.92187 c 23.383876,26.50173 91.585341,74.8288 204.607421,144.98046 113.02208,70.15163 243.19327,105.22657 390.51172,105.22657 169.92289,0 333.22061,-45.98828 489.89259,-137.96485 C 1033.9576,698.34753 989.13875,635.2123 979.78516,537 l 132.11914,-68.98242 c 31.9579,-17.14819 44.4293,-45.98944 37.4141,-86.52149 z M 824.28125,662.10352 h 85.35156 v 121.5957 c -25.72224,10.91249 -54.17306,19.48693 -85.35156,25.72266 z M 24.552734,942.70898 H 1224.1465 v 32.73829 H 24.552734 Z"
     sodipodi:nodetypes="cscccccccccccccccccccccccsccccccccccsccsscscscccsccsscccccccsccccssccsscccccccccccccc" />
</svg>
