<?xml version="1.0" encoding="UTF-8" standalone="no"?>
<svg
   width="1250"
   height="1000"
   version="1.1"
   id="svg1"
   sodipodi:docname="14046.svg"
   inkscape:version="1.4.2 (f4327f4, 2025-05-13)"
   xmlns:inkscape="http://www.inkscape.org/namespaces/inkscape"
   xmlns:sodipodi="http://sodipodi.sourceforge.net/DTD/sodipodi-0.dtd"
   xmlns="http://www.w3.org/2000/svg"
   xmlns:svg="http://www.w3.org/2000/svg">
  <defs
     id="defs1" />
  <sodipodi:namedview
     id="namedview1"
     pagecolor="#ffffff"
     bordercolor="#666666"
     borderopacity="1.0"
     inkscape:showpageshadow="2"
     inkscape:pageopacity="0.0"
     inkscape:pagecheckerboard="0"
     inkscape:deskcolor="#d1d1d1"
     inkscape:zoom="0.53386562"
     inkscape:cx="392.42085"
     inkscape:cy="695.868"
     inkscape:window-width="1680"
     inkscape:window-height="998"
     inkscape:window-x="-8"
     inkscape:window-y="-8"
     inkscape:window-maximized="1"
     inkscape:current-layer="svg1"
     showguides="true">
    <sodipodi:guide
       position="610.39013,575.74229"
       orientation="1,0"
       id="guide1"
       inkscape:locked="false" />
    <sodipodi:guide
       position="87.957099,426.14178"
       orientation="1,0"
       id="guide2"
       inkscape:locked="false" />
    <sodipodi:guide
       position="1249.6986,234.46609"
       orientation="0,-1"
       id="guide3"
       inkscape:locked="false" />
  </sodipodi:namedview>
  <path
     id="path1"
     style="fill:#000000;stroke:none;stroke-width:0.999999"
     d="M 381.31445 66.779297 C 372.74358 66.779297 365.73151 67.558838 360.27734 69.117188 C 354.82317 70.675502 352.0957 74.960135 352.0957 81.972656 C 352.0957 88.206019 356.77106 91.322266 366.12109 91.322266 C 361.44608 94.438965 359.10742 98.725514 359.10742 104.17969 C 359.10742 121.32143 360.47213 135.15116 363.19922 145.66992 C 365.92631 156.18872 370.60164 162.22681 377.22461 163.78516 C 383.84752 165.34347 394.17027 165.34347 408.19531 163.78516 L 408.19531 194.17383 C 433.12873 213.65304 445.5957 231.18419 445.5957 246.76758 C 440.92069 246.76758 438.58398 252.6113 438.58398 264.29883 C 438.58398 275.20721 441.70019 280.66211 447.93359 280.66211 L 405.85742 722.45117 C 334.95299 705.30943 265.60804 678.03687 197.82031 640.63672 C 257.03718 600.89911 290.54032 532.33367 298.33203 434.9375 L 146.39453 362.47461 C 128.47363 348.44957 123.01873 315.72402 130.03125 264.29883 C 84.839429 254.9488 48.025599 276.96087 19.585938 330.33398 C -8.8537592 383.70709 -6.3226481 426.36656 27.181641 458.3125 C 65.360944 424.02902 95.747835 410.78251 118.34375 418.57422 L 200.1582 472.33789 C 200.93736 528.43806 142.88905 584.53652 26.013672 640.63672 C 160.03079 738.03289 292.48822 801.92488 423.38867 832.3125 L 87.957031 832.3125 L 87.957031 879.43164 L 226.65625 879.43164 L 226.65625 952.88086 L 87.957031 952.88086 L 87.957031 1000 L 1132.8223 1000 L 1132.8223 952.88086 L 996.76953 952.88086 L 996.76953 879.43164 L 1132.8223 879.43164 L 1132.8223 832.3125 L 828.94727 832.3125 C 959.06854 801.92488 1090.7484 738.03289 1223.9863 640.63672 C 1107.1109 584.53652 1049.0627 528.43806 1049.8418 472.33789 L 1131.6543 418.57422 C 1154.2503 410.78251 1184.6371 424.02902 1222.8164 458.3125 C 1256.3207 426.36656 1258.8538 383.70709 1230.4141 330.33398 C 1201.9745 276.96087 1165.1587 254.9488 1119.9668 264.29883 C 1126.9793 315.72402 1121.5244 348.44957 1103.6035 362.47461 L 951.66602 434.9375 C 959.45773 532.33367 992.9628 600.89911 1052.1797 640.63672 C 985.17109 677.25767 908.81212 704.53024 823.10352 722.45117 L 821.93555 722.45117 L 781.02734 280.66211 C 786.48147 280.66211 789.20898 275.20721 789.20898 264.29883 C 789.20898 252.6113 786.48147 246.76758 781.02734 246.76758 C 781.02734 231.18419 793.88512 213.65304 819.59766 194.17383 L 819.59766 163.78516 L 546.10938 83.142578 C 448.7132 52.754953 406.24815 74.570694 418.71484 148.5918 C 407.02734 149.37099 400.40409 148.98218 398.8457 147.42383 C 397.28739 145.86548 399.82042 139.24223 406.44336 127.55469 C 413.0663 115.86716 416.37695 105.73689 416.37695 97.166016 C 416.37695 90.932653 410.92204 83.920584 400.01367 76.128906 C 394.5595 69.895543 388.327 66.779297 381.31445 66.779297 z M 375.4707 72.623047 C 380.92487 72.623047 386.963 75.350516 393.58594 80.804688 C 400.20889 86.258893 403.52148 93.270964 403.52148 101.8418 C 403.52148 107.29601 400.59961 114.69881 394.75586 124.04883 C 388.91208 133.39886 385.21069 140.79974 383.65234 146.25391 C 382.09399 151.70812 380.1461 152.87839 377.80859 149.76172 C 375.47112 146.64503 373.52319 131.45061 371.96484 104.17969 C 371.96484 98.725514 374.69231 94.438965 380.14648 91.322266 C 385.60069 88.205601 388.71693 86.648438 389.49609 86.648438 L 388.32617 80.804688 C 377.41779 81.583846 370.9909 82.167028 369.04297 82.556641 C 367.09504 82.94622 365.34155 82.751848 363.7832 81.972656 C 366.12071 75.739327 370.0165 72.623047 375.4707 72.623047 z M 373.87109 74.628906 C 373.33085 74.606076 372.69532 74.717451 371.96484 74.960938 C 368.84815 74.960937 367.28906 75.740479 367.28906 77.298828 C 367.28906 78.857177 368.84815 79.634766 371.96484 79.634766 C 375.08151 79.634766 376.44427 78.660819 376.05469 76.712891 C 375.78685 75.37369 375.05963 74.679133 373.87109 74.628906 z M 478.17578 90.591797 C 489.18155 90.494398 502.4752 93.076547 518.05859 98.335938 L 750.64062 163.78516 L 440.91992 163.78516 C 432.73864 115.28185 445.15847 90.883994 478.17578 90.591797 z M 437.41406 177.81055 L 790.37891 177.81055 L 790.37891 185.99219 L 437.41406 185.99219 L 437.41406 177.81055 z M 437.41406 194.17383 L 790.37891 194.17383 C 770.12051 207.41968 759.99023 224.95083 759.99023 246.76758 L 468.9707 246.76758 C 468.9707 224.95083 458.45162 207.41968 437.41406 194.17383 z M 458.45117 260.79297 L 769.33984 260.79297 L 769.33984 267.80469 L 458.45117 267.80469 L 458.45117 260.79297 z M 478.32031 280.66211 L 750.64062 281.83008 L 793.88477 727.125 L 709.73438 737.64453 L 709.73438 467.66211 L 511.04688 467.66211 L 511.04688 737.64453 L 435.07617 727.125 L 478.32031 280.66211 z M 100.8125 295.85547 C 93.02079 336.37228 105.48776 365.20201 138.21289 382.34375 L 269.11328 451.29883 C 260.54241 549.47419 215.74062 612.58664 134.70703 640.63672 C 292.09926 732.57872 455.7251 778.55078 625.58398 778.55078 C 794.66374 778.55078 957.8988 732.57872 1115.291 640.63672 C 1034.2574 612.58664 989.45564 549.47419 980.88477 451.29883 L 1111.7852 382.34375 C 1144.5103 365.20201 1156.9772 336.37228 1149.1855 295.85547 C 1167.8856 295.85547 1186.0019 312.21823 1203.5332 344.94336 C 1221.0645 377.66846 1224.3751 401.4321 1213.4668 416.23633 C 1183.8583 388.18624 1153.0807 382.34253 1121.1348 398.70508 L 1013.6094 459.48047 C 1019.0636 530.38487 1068.5427 590.76989 1162.043 640.63672 C 987.50902 759.84965 808.68881 819.45703 625.58398 819.45703 C 441.70002 819.45703 262.49096 759.84965 87.957031 640.63672 C 181.45734 590.76989 230.93447 530.38487 236.38867 459.48047 L 128.86328 398.70508 C 96.91734 382.34253 66.139683 388.18624 36.53125 416.23633 C 25.622873 401.4321 28.935478 377.66846 46.466797 344.94336 C 63.998082 312.21823 82.112413 295.85547 100.8125 295.85547 z M 534.42188 491.03711 L 686.35938 491.03711 L 686.35938 739.98242 C 637.2717 744.65747 586.62622 744.26671 534.42188 738.8125 L 534.42188 491.03711 z M 256.10547 879.43164 L 967.32031 879.43164 L 967.32031 952.88086 L 256.10547 952.88086 L 256.10547 879.43164 z " />
</svg>
