<?xml version="1.0" encoding="UTF-8" standalone="no"?>
<svg
   width="1000"
   height="500"
   version="1.1"
   id="svg1"
   sodipodi:docname="14049.svg"
   inkscape:version="1.4.2 (f4327f4, 2025-05-13)"
   xmlns:inkscape="http://www.inkscape.org/namespaces/inkscape"
   xmlns:sodipodi="http://sodipodi.sourceforge.net/DTD/sodipodi-0.dtd"
   xmlns="http://www.w3.org/2000/svg"
   xmlns:svg="http://www.w3.org/2000/svg">
  <defs
     id="defs1" />
  <sodipodi:namedview
     id="namedview1"
     pagecolor="#ffffff"
     bordercolor="#666666"
     borderopacity="1.0"
     inkscape:showpageshadow="2"
     inkscape:pageopacity="0.0"
     inkscape:pagecheckerboard="0"
     inkscape:deskcolor="#d1d1d1"
     inkscape:zoom="1.4863385"
     inkscape:cx="387.1931"
     inkscape:cy="206.21144"
     inkscape:window-width="1680"
     inkscape:window-height="998"
     inkscape:window-x="-8"
     inkscape:window-y="-8"
     inkscape:window-maximized="1"
     inkscape:current-layer="svg1"
     showguides="true">
    <sodipodi:guide
       position="80.174917,489.79592"
       orientation="0,-1"
       id="guide1"
       inkscape:locked="false" />
    <sodipodi:guide
       position="43.002917,456.99708"
       orientation="1,0"
       id="guide2"
       inkscape:locked="false" />
    <sodipodi:guide
       position="79.446056,422.74053"
       orientation="0,-1"
       id="guide3"
       inkscape:locked="false" />
    <sodipodi:guide
       position="116.61808,456.26822"
       orientation="1,0"
       id="guide4"
       inkscape:locked="false" />
    <sodipodi:guide
       position="932.21484,325.80078"
       orientation="1,0"
       id="guide5"
       inkscape:locked="false" />
    <sodipodi:guide
       position="228.13477,408.16406"
       orientation="0,-1"
       id="guide6"
       inkscape:locked="false" />
    <sodipodi:guide
       position="213.55664,394.31445"
       orientation="1,0"
       id="guide7"
       inkscape:locked="false" />
    <sodipodi:guide
       position="228.13477,380.4668"
       orientation="0,-1"
       id="guide8"
       inkscape:locked="false" />
    <sodipodi:guide
       position="242.71094,394.31445"
       orientation="1,0"
       id="guide9"
       inkscape:locked="false" />
  </sodipodi:namedview>
  <path
     id="path1"
     style="fill:#000000;stroke:none;stroke-width:1"
     d="m 341.83594,0 c -4.37319,0 -8.13844,0.3648796 -11.29688,1.09375 -3.15841,0.7288519 -4.73828,3.2791586 -4.73828,7.6523438 0,2.9154452 2.42997,4.3730472 7.28906,4.3730472 -2.42954,1.943629 -3.64453,4.373599 -3.64453,7.289062 0,10.204074 0.852,18.221828 2.55274,24.052735 1.70069,5.830905 4.37131,9.23131 8.01562,10.203124 3.64431,0.971815 9.11176,0.729207 16.40039,-0.728515 v 17.492187 c 14.57724,11.175889 21.86524,21.138411 21.86524,29.884766 -2.91543,0 -4.37305,3.40042 -4.37305,10.20312 0,5.83093 1.70217,8.7461 5.10352,8.7461 l -24.78321,263.84961 c -34.01361,-9.71819 -57.57968,-18.22114 -70.69922,-25.50977 V 252.1875 h 54.66602 v -13.12109 h -16.76563 c 1.45778,-1.45773 2.1875,-3.40055 2.1875,-5.83008 1.45771,0.48591 2.55041,6.9e-4 3.2793,-1.45703 0.72889,-1.45774 0.36597,-3.15989 -1.0918,-5.10352 0,-0.48593 -0.24453,-5.34393 -0.73046,-14.57617 0.48593,-2.91546 7.4e-4,-4.37305 -1.45704,-4.37305 -0.97185,0 -1.70157,-2.30965 -2.1875,-6.92578 -0.48589,-4.61613 0.48649,-9.10923 2.91602,-13.48242 2.42963,-4.37319 2.91481,-9.47575 1.45703,-15.30664 7.28861,-5.345 11.29853,-11.54027 12.02734,-18.58594 0.72886,-7.04569 -0.48612,-12.99833 -3.64453,-17.85742 -3.15839,-4.85907 -7.1663,-7.28906 -12.02539,-7.28906 -4.85909,0 -9.96164,1.09466 -15.30664,3.28125 -5.345,2.18659 -7.77499,4.7369 -7.28906,7.65234 0.97181,2.42954 3.4018,2.91475 7.28906,1.45703 3.88726,-1.45773 7.28767,-3.15791 10.20313,-5.10156 2.91545,-1.94363 6.19551,-1.33608 9.83984,1.82226 3.64429,3.15845 4.85929,8.01835 3.64453,14.57813 -1.21477,6.55975 -2.91497,10.08245 -5.10156,10.56836 -2.18657,0.48591 -5.46665,-9.3e-4 -9.83984,-1.45899 -4.37319,-1.45769 -11.90573,-1.2e-4 -22.59571,4.37305 -10.69,4.37319 -20.77088,5.46784 -30.24609,3.28125 -9.47522,-2.18659 -14.94267,-7.41142 -16.40039,-15.67187 -1.45773,-8.26044 -5.83051,-15.06321 -13.11914,-20.40821 8.74635,1.94363 14.57675,2.06591 17.49219,0.36524 2.91547,-1.70069 6.56042,-1.9433 10.93359,-0.72852 4.37317,1.21476 8.74595,-0.36511 13.11914,-4.73828 0.97183,-3.40137 0.48662,-5.10156 -1.45703,-5.10156 -0.97181,0 -1.70159,0.48521 -2.1875,1.45703 -0.48591,0.97183 -1.9435,1.45898 -4.37305,1.45898 -2.42954,0 -4.73724,-0.60748 -6.92383,-1.82226 -2.18657,-1.21478 -5.10176,-0.97218 -8.74609,0.72851 -3.64429,1.70069 -6.92437,1.82103 -9.83984,0.36329 -2.91545,-1.45773 -7.04563,-0.72797 -12.39063,2.1875 -2.19568,-1.25469 -4.2389,-2.19254 -6.13086,-2.81446 1.72607,0.41886 3.52668,0.62696 5.40235,0.62696 13.61113,0 19.67773,-12.15828 19.67773,-18.94922 0,-6.791448 -6.06527,-18.951175 -19.67773,-18.951175 -14.90741,0 -20.40821,11.518738 -20.40821,18.951175 0,12.26608 9.65731,16.62977 13.35742,17.85156 -3.24451,-0.78114 -5.9963,-0.5366 -8.25586,0.73437 -3.88728,2.18659 -7.77483,2.18659 -11.6621,0 -3.88726,-2.18659 -6.68017,-2.55147 -8.38086,-1.09375 -1.70069,1.45775 -3.40285,2.06524 -5.10352,1.82227 -1.70068,-0.24296 -2.91566,-0.72818 -3.64453,-1.45703 -0.72885,-0.72887 -1.82156,-1.09375 -3.2793,-1.09375 -1.45772,0 -1.94296,1.21497 -1.45703,3.64453 2.91544,4.85907 6.80302,6.43702 11.66211,4.73633 4.85907,-1.70067 8.5021,-1.45612 10.93164,0.73047 2.42955,2.18659 7.5321,2.06432 15.30664,-0.36524 -5.83091,2.42956 -8.74609,4.49464 -8.74609,6.19531 0,1.70071 -1.4576,3.64349 -4.37305,5.83008 -2.91546,2.18659 -4.61565,4.25169 -5.10156,6.19532 -0.48591,1.94363 0.48452,3.64578 2.91406,5.10351 0.97183,2.91546 2.55169,4.13044 4.73828,3.64453 2.18657,-0.48593 7.40947,-3.64567 15.66992,-9.47656 -0.9718,17.97861 0.24321,29.15415 3.64454,33.52734 3.40137,4.37317 6.07392,8.74791 8.01757,13.1211 1.94363,4.37317 3.40123,8.01618 4.37305,10.93164 -1.45773,5.345 -1.21511,9.23257 0.72852,11.66211 0,4.37319 -2.42804,8.99052 -7.28711,13.84961 -0.48593,1.45772 -2.43066,3.88576 -5.83203,7.28711 h -10.20313 c -7.28863,0 -11.90596,-1.45758 -13.84961,-4.37305 -1.94363,-2.91544 -4.61623,-4.37305 -8.01758,-4.37305 -2.91547,0 -4.85827,1.45761 -5.83007,4.37305 -0.97184,2.91547 0.3635,6.5604 4.00781,10.93359 3.64431,4.37317 11.54172,6.56055 23.68945,6.56055 h 49.5625 v 98.39648 c -53.67731,-27.67506 -96.67029,-70.30046 -133.38281,-112.24609 10.20409,-2.42956 19.43681,-8.01732 27.69726,-16.76367 13.60545,-15.06317 20.40821,-30.85411 20.40821,-47.375 h -35.71485 c 0,-32.80139 -2.10667,-82.888898 -43.73047,-93.294923 4.85909,-0.971815 9.2319,-3.159195 13.11914,-6.560547 2.42956,10.204075 16.52029,26.72479 42.27344,49.5625 2.91546,-2.91545 1.45787,-7.77345 -4.37304,-14.57617 -9.69486,-7.45759 -28.14749,-31.775041 -26.96875,-45.919924 2.91546,-6.316815 4.6176,-12.875011 5.10351,-19.677734 0,-20.849735 -22.15046,-42.2753908 -49.562499,-42.2753908 -33.34688,0 -48.833984,24.5554308 -48.833984,42.2753908 0,9.232259 2.915186,17.49262 8.746094,24.78125 C 33.285168,72.886857 27.817722,73.614663 23.6875,70.699219 19.557277,67.783756 20.044447,62.68316 25.146484,55.394531 30.248521,48.105901 31.471815,41.788359 30.5,36.443359 c -0.971815,-5.344981 -3.289766,-8.017578 -8.634766,-8.017578 -3.401352,0 -6.436875,-0.364879 -9.109375,-1.09375 C 6.7701417,25.699548 1.6852616,30.042705 0,34.255859 c 0.9718148,2.915463 4.1296093,4.373047 9.4746094,4.373047 -4.3731852,9.232259 -5.1010098,18.465007 -2.1855469,27.697266 2.9154455,9.232259 8.7458355,13.849609 17.4921875,13.849609 8.74637,0 15.30652,-1.944772 19.679688,-5.832031 2.915461,1.94363 5.100871,3.158624 6.558593,3.644531 -7.288629,0.971815 -12.876394,3.522121 -16.763672,7.652344 -3.887259,4.130241 -5.587469,6.682482 -5.101562,7.654297 -2.915463,-1.457741 -4.858263,-0.487308 -5.830078,2.914062 -8.260444,2.429537 -12.390625,10.204676 -12.390625,23.324216 3.401351,-1.94363 6.559146,-2.67145 9.474609,-2.18554 3.887259,0 7.532224,5.58778 10.933594,16.76367 3.401352,11.17591 7.774141,17.73606 13.119141,19.67969 -1.457722,3.40137 -0.242728,10.20413 3.644531,20.4082 H 8.0175781 c 0,16.52089 6.8027579,32.31183 20.4082029,47.375 9.718167,11.17591 22.593922,17.73606 38.628907,19.67969 3.40137,10.69 11.661709,23.80835 24.78125,39.35742 C 185.13041,390.91261 276.83726,441.5975 364.43164,446.79297 H 115.88867 V 500 H 838.92188 V 446.79297 H 574.34375 c 79.22183,-4.01808 160.59295,-34.25709 245.62695,-101.3125 l 16.03516,21.86719 c -4.85917,2.91546 -6.43902,7.65313 -4.73828,14.21289 1.70069,6.55976 14.33577,27.69587 37.90234,63.41015 23.56659,35.71426 44.82496,54.05745 63.77539,55.0293 4.90153,-10.85337 1.72954,-27.00482 -9.51367,-48.45312 15.90763,18.62022 30.4978,28.45414 43.76953,29.50195 6.80272,-15.54905 -1.94283,-40.93765 -26.23828,-76.16602 -24.29539,-35.22837 -39.11592,-55.14947 -44.46094,-59.76562 -5.345,-4.61613 -10.20495,-5.9534 -14.57812,-4.00977 l -23.32422,-33.52734 c 10.20411,-9.71817 26.48222,-31.82665 48.83398,-66.32617 41.94304,-5.08399 59.03907,-43.76781 59.03907,-67.05469 h -34.25782 c 0,-32.80139 -2.10667,-82.888898 -43.73046,-93.294923 4.85909,-0.971815 9.23188,-3.159195 13.11914,-6.560547 2.42956,10.204075 16.52028,26.72479 42.27343,49.5625 2.91546,-2.91545 1.45787,-7.77345 -4.37304,-14.57617 -9.69486,-7.45759 -28.14749,-31.775041 -26.96875,-45.919924 2.91546,-6.316815 4.6176,-12.875011 5.10351,-19.677734 0,-20.849735 -22.15046,-42.2753908 -49.5625,-42.2753908 -33.34688,0 -48.83398,24.5554308 -48.83398,42.2753908 0,9.232259 2.91518,17.49262 8.74609,24.78125 -6.80272,4.373185 -12.27017,5.100991 -16.40039,2.185547 -4.13022,-2.915463 -3.64305,-8.016059 1.45899,-15.304688 5.10203,-7.28863 6.32533,-13.606172 5.35351,-18.951172 -0.97181,-5.344981 -3.28972,-8.017578 -8.63477,-8.017578 -3.40134,0 -6.43687,-0.364879 -9.10937,-1.09375 -5.98572,-1.632483 -11.0706,2.710674 -12.75586,6.923828 0.97181,2.915463 4.12961,4.373047 9.47461,4.373047 -4.37319,9.232259 -5.10101,18.465007 -2.18555,27.697266 2.91545,9.232259 8.74584,13.849609 17.49219,13.849609 8.74637,0 15.30652,-1.944772 19.67969,-5.832031 2.91546,1.94363 5.10087,3.158624 6.55859,3.644531 -7.28863,0.971815 -12.87639,3.522121 -16.76367,7.652344 -3.88726,4.130241 -5.58747,6.682482 -5.10156,7.654297 -2.91547,-1.457741 -4.85827,-0.487308 -5.83008,2.914062 -8.26044,2.429537 -12.39063,10.204676 -12.39063,23.324216 3.40136,-1.94363 6.55915,-2.67145 9.47461,-2.18554 3.88726,0 7.53223,5.58778 10.9336,16.76367 3.40135,11.17591 7.77414,17.73606 13.11914,19.67969 -1.45772,3.40137 -0.24273,10.20413 3.64453,20.4082 h -40.81641 c 0,26.71237 20.19183,56.6587 49.5625,65.59766 l -17.49218,21.13671 -34.98633,-54.66601 2.91601,-2.18555 c -10.69,-17.97863 -18.70774,-26.48157 -24.05273,-25.50976 -6.69136,1.21662 -14.98454,4.20064 -12.39063,14.57617 -1.45774,1.94363 -1.21513,4.61623 0.72852,8.01758 l 4.37305,-2.91602 c 3.88724,0.97182 5.83203,2.91657 5.83203,5.83203 v 2.91602 l -21.84766,-1.90039 c -4.37426,-5.19257 -8.02914,-7.6094 -10.95117,-7.21094 -4.23376,0.53949 -8.34392,1.8785 -11.07031,5.29492 l -2,-0.17383 c -0.0582,-0.51403 -1.20375,-6.03512 -4.42188,-15.68945 5.95451,-20.8407 1.52577,-55.87819 -10.20508,-75.07422 -0.97183,-9.71817 -5.34462,-14.576171 -13.11914,-14.576171 V 81.632812 c 0,-8.260463 -3.15778,-15.063221 -9.47461,-20.408203 -6.31681,-5.345 -17.00716,-5.830198 -32.07031,-1.457031 -2.42952,-0.485889 -4.13166,0.484526 -5.10351,2.914063 -4.85905,2.429537 -7.5297,5.344722 -8.01563,8.746093 h 4.37305 c 1.94363,0 2.91406,2.065091 2.91406,6.195313 0,4.130223 0.48713,7.167699 1.45898,9.111328 0.97185,1.94363 1.09218,3.643822 0.36329,5.101563 -0.72889,1.457721 -1.57894,3.402494 -2.55079,5.832031 -7.77453,0 -11.41952,5.830401 -10.93359,17.492191 -1.94365,8.26047 -2.91406,18.70816 -2.91406,31.34179 -7.136,10.704 -17.6776,45.38051 -18.95117,51.74805 -0.48593,2.42954 -0.48593,4.37429 0,5.83203 -2.91547,1.94363 -4.13046,5.58663 -3.64454,10.93164 l 1.45899,23.32422 c 0,4.85909 -1.45759,7.53167 -4.37305,8.01758 -9.75028,1.62494 -8.88384,-9.05054 -8.38281,-12.39063 0.72885,-4.85909 2.42905,-10.44686 5.10156,-16.76367 8.05293,-19.03403 0.85956,-31.34179 -17.12695,-31.34179 -6.39204,-2.1307 -13.84961,0.90019 -13.84961,5.83203 0,5.15736 9.45515,5.83007 9.47461,5.83007 -3.40137,6.80273 -5.10156,13.84809 -5.10156,21.13672 1.47995,23.2731 2.70272,35.36796 26.96875,35.71485 9.23226,0 13.84765,-5.34518 13.84765,-16.03516 l -1.45703,-24.05273 c 0,-3.40137 0.72777,-5.34417 2.18555,-5.83008 4.37315,1.94363 6.80313,1.45842 7.28906,-1.45703 3.40137,-0.48591 8.74655,-0.73047 16.03516,-0.73047 -0.97178,6.80273 -1.94417,15.55025 -2.91602,26.24023 0.48593,3.88728 1.70092,7.77484 3.64453,11.66211 -0.48591,12.14771 -2.42873,27.69604 -5.83007,46.64649 -4.37317,9.23225 -12.63351,15.06264 -24.78126,17.49218 -6.31682,1.45772 -9.47656,4.37291 -9.47656,8.7461 v 69.9707 l -16.0332,2.91602 -24.05274,-269.67969 c 2.91549,0 4.37305,-2.91518 4.37305,-8.7461 0,-6.80271 -1.215,-10.20312 -3.64453,-10.20312 0,-8.746355 7.04539,-18.708877 21.13672,-29.884766 V 53.935547 L 433.67383,9.4746094 C 379.25207,-8.0181128 355.68598,4.1298192 362.97461,45.917969 c -6.31678,0.485908 -9.96174,0.365571 -10.93359,-0.363281 -0.97182,-0.728871 0.36351,-4.496107 4.00781,-11.298829 3.64431,-6.802723 5.46686,-12.390506 5.46679,-16.763671 0,-3.887279 -3.15781,-8.01744 -9.4746,-12.3906255 C 349.61146,1.7002106 346.20911,0 341.83594,0 Z m -5.63477,2.3554688 c 1.79603,-5.21e-5 3.252,1.455928 3.25195,3.2519531 5e-5,1.7960251 -1.45592,3.2520051 -3.25195,3.2519531 -1.79603,5.2e-5 -3.252,-1.455928 -3.25195,-3.2519531 -5e-5,-1.7960251 1.45592,-3.2520051 3.25195,-3.2519531 z M 79.810547,10.203125 C 100.13913,10.203598 116.61816,25.215296 116.61719,43.732422 116.61698,62.248785 100.1383,77.259293 79.810547,77.259766 59.482036,77.260275 43.002166,62.249479 43.001953,43.732422 43.000982,25.214602 59.481199,10.202616 79.810547,10.203125 Z m 787.900393,0 c 20.32858,4.73e-4 36.80761,15.012171 36.80664,33.529297 -2.1e-4,18.516363 -16.47889,33.526871 -36.80664,33.527344 -20.32851,5.09e-4 -36.80838,-15.010287 -36.8086,-33.527344 -9.7e-4,-18.51782 16.47925,-33.529806 36.8086,-33.529297 z m -471.4375,3.007813 c 6.10422,-0.06074 13.46887,1.365796 22.09375,4.28125 L 547.37695,53.935547 H 375.36523 c -4.37318,-26.967931 2.59553,-40.542397 20.90821,-40.724609 z m 278.27734,47.857421 c 10.92668,0.406646 15.68164,12.634065 15.68164,15.462891 V 99.125 h -5.10156 v 12.39062 h -8.74609 V 80.904297 c 7.28865,-11.175889 4.37345,-17.49345 -8.7461,-18.951172 1.21701,-0.324536 3.95862,-0.994675 6.91211,-0.884766 z m -14.92969,3.072266 c 8.26044,0 13.84821,1.457602 16.76368,4.373047 0,3.887277 -3.88757,6.802464 -11.66211,8.746094 v 0.728515 h 6.56054 v 13.847657 c -19.47519,-6e-6 -17.73764,-10.192356 -17.49218,-11.296876 0.48587,-2.186592 -0.24385,-6.437091 -2.1875,-12.753906 0.48591,-0.971815 1.7009,-1.9442 3.64453,-2.916015 -0.0632,2.689868 -0.41729,5.460197 2.91601,5.830078 3.98127,0 3.38136,-4.634329 1.45703,-6.558594 z M 373.17773,71.427734 H 569.9707 c -11.66178,7.774537 -17.49218,17.737059 -17.49218,29.884766 h -161.8086 c 0,-12.147707 -5.83038,-22.110229 -17.49219,-29.884766 z M 58.308594,86.734375 c 8.746371,0 13.848918,5.952644 15.30664,17.857425 1.457723,11.90476 -7.775005,19.55761 -27.697265,22.95898 6.983823,3.08535 7.920996,11.42842 8.017578,18.22266 -8.943569,4.47181 -12.044462,-7.4377 -13.119141,-16.03516 C 35.957313,116.61875 29.884333,110.3012 22.595703,110.78711 h -3.644531 c 0.485907,-2.91545 1.94351,-3.40066 4.373047,-1.45703 0.971815,-1.94363 3.644393,-2.18819 8.017578,-0.73047 -3.40137,-3.88727 -5.346124,-7.04507 -5.832031,-9.47461 2.915463,0 4.615655,-1.214994 5.101562,-3.644531 2.429537,-0.485907 5.467013,-2.063828 9.111328,-4.736328 3.644315,-2.6725 9.839586,-4.009766 18.585938,-4.009766 z m 787.900386,0 c 8.74638,0 13.84893,5.952644 15.30664,17.857425 1.45773,11.90476 -7.775,19.55761 -27.69726,22.95898 6.98382,3.08535 7.921,11.42842 8.01758,18.22266 -8.94357,4.47181 -12.04446,-7.4377 -13.11914,-16.03516 -4.8591,-13.11953 -10.93208,-19.43708 -18.22071,-18.95117 h -3.64453 c 0.48591,-2.91545 1.94351,-3.40066 4.37305,-1.45703 0.97181,-1.94363 3.64439,-2.18819 8.01758,-0.73047 -3.40137,-3.88727 -5.34613,-7.04507 -5.83203,-9.47461 2.91546,0 4.61565,-1.214994 5.10156,-3.644531 2.42954,-0.485907 5.46701,-2.063828 9.11133,-4.736328 3.64431,-2.6725 9.83958,-4.009766 18.58593,-4.009766 z M 80.175781,88.193359 c 48.190759,2.662842 51.135039,47.638281 51.748049,86.005861 H 58.308594 c 0.485926,-11.17591 2.186117,-18.10096 5.101562,-20.77344 2.915445,-2.6725 3.160006,-9.35297 0.730469,-20.04297 19.922259,-9.71817 25.267434,-24.78128 16.035156,-45.189451 z m 787.900389,0 c 48.19076,2.662842 51.13504,47.638281 51.74805,86.005861 h -73.61524 c 0.48593,-11.17591 2.18612,-18.10096 5.10157,-20.77344 2.91544,-2.6725 3.16,-9.35297 0.73047,-20.04297 19.92225,-9.71817 25.26743,-24.78128 16.03515,-45.189451 z m -639.94336,3.642579 c 8.05072,-5.14e-4 14.57756,6.199307 14.57813,13.847652 5.7e-4,7.64913 -6.52661,13.85012 -14.57813,13.84961 -8.05076,-5.1e-4 -14.57674,-6.2012 -14.57617,-13.84961 5.7e-4,-7.647618 6.52622,-13.847141 14.57617,-13.847652 z m 427.11524,1.458984 2.91601,1.457031 v 16.763667 h -6.56054 c -0.48593,-7.77451 0.72907,-13.847531 3.64453,-18.220698 z m 7.28906,2.185547 c 3.40133,0.971815 6.31652,1.458984 8.74609,1.458984 v 19.677737 h 18.94922 v -11.66016 h 2.1875 c 1.94363,2.91545 3.88645,7.77345 5.83008,14.57617 -0.48593,1.94363 -4.85875,15.06393 -13.11914,39.35938 h -25.50977 c -2.4295,-17.00681 -4.25198,-26.84703 -5.46679,-29.51953 -1.21481,-2.67248 -1.82227,-6.92495 -1.82227,-12.75586 h 10.20508 z M 40.816406,96.208984 c -3.401371,0 -5.101562,1.944742 -5.101562,5.832036 0,2.91546 1.700191,4.37304 5.101562,4.37304 3.887259,0 5.830078,-1.45758 5.830078,-4.37304 0,-3.887294 -1.942819,-5.832036 -5.830078,-5.832036 z m 787.900394,0 c -3.40137,0 -5.10157,1.944742 -5.10157,5.832036 0,2.91546 1.7002,4.37304 5.10157,4.37304 3.88726,0 5.83005,-1.45758 5.83008,-4.37304 0,-3.887294 -1.94282,-5.832036 -5.83008,-5.832036 z M 395.77344,120.26172 h 151.60351 l 24.78125,271.13867 -33.52929,4.37305 -21.13672,-251.45899 h -92.56446 l -20.4082,250.72852 -32.79883,-5.10156 z m 251.45703,6.56055 c 1.94367,4.37317 4.13101,14.82088 6.56055,31.34179 -2.91547,0 -4.375,1.4576 -4.375,4.37305 0,2.42953 1.70214,3.64453 5.10351,3.64453 -3.88728,11.17591 -7.04703,22.59405 -9.47656,34.25586 l -11.66016,0.72852 c 0,-3.40135 -0.72973,-6.55917 -2.1875,-9.47461 -1.94371,-3.40137 -2.42888,-7.77414 -1.45703,-13.11914 7.77452,-10.68998 12.14729,-19.43751 13.11914,-26.24024 2.91545,-9.71817 4.37305,-18.22113 4.37305,-25.50976 z m 55.39258,0 c 0.97183,4.85907 3.15917,10.20424 6.56054,16.03515 -0.48591,9.71817 0.72911,21.6235 3.64453,35.71485 -1.94366,6.80272 -3.76614,11.90331 -5.46679,15.30468 -1.19501,2.38993 -1.8494,4.89947 -1.96485,7.5293 l -2.77343,-0.24023 c 0,-6.80271 -0.48518,-12.14789 -1.45703,-16.03516 -2.91545,-12.14773 -6.07324,-20.8933 -9.47461,-26.23828 4.85907,-13.60545 8.50211,-24.29578 10.93164,-32.07031 z m -264.57617,30.61132 h 66.32617 l 18.95117,237.60938 c -35.95723,3.88726 -70.45823,3.88726 -103.5,0 z m 224.49023,7.28907 h 21.86523 c 10.1504,6.0902 12.59091,29.04755 13.11914,36.44336 -15.34725,-1.73286 -30.56653,-1.53615 -45.91796,-0.72852 1.72709,-11.46646 5.57094,-22.41752 8.74609,-33.52734 z M 32.798828,190.96289 H 154.51953 c -2.42954,12.14771 -9.35459,21.13589 -20.77344,26.9668 -11.41885,5.83091 -24.65949,8.74609 -39.722652,8.74609 -15.06317,0 -28.303805,-2.91518 -39.722657,-8.74609 C 42.88191,212.09878 35.714272,203.1106 32.798828,190.96289 Z m 787.171872,0 h 121.72071 c -6.62058,33.10295 -47.70128,35.71289 -60.4961,35.71289 -11.78561,0 -54.54719,-2.3259 -61.22461,-35.71289 z m -528.46875,2.0957 c 0.51289,0.005 1.01271,0.0357 1.5,0.0898 3.40135,4.85909 7.89644,9.23188 13.48438,13.11914 5.58797,3.88728 8.86803,8.74721 9.83984,14.57812 v 8.7461 c -2.91545,3.40135 -5.58803,6.55914 -8.01758,9.47461 h -67.7832 c 1.45772,-1.45773 2.18555,-2.91531 2.18555,-4.37305 1.45773,0.97183 2.79497,0.7292 4.00976,-0.72852 1.21476,-1.45772 1.45739,-4.3729 0.72852,-8.74609 -0.72885,-4.37319 -0.12137,-7.65325 1.82226,-9.83984 1.94363,-2.18657 2.30851,-4.37396 1.09375,-6.56055 -1.21478,-2.18659 -0.60727,-5.4647 1.82227,-9.83789 4.37318,0 8.62368,0.60553 12.75391,1.82031 4.13022,1.21478 8.74757,0.12207 13.84961,-3.2793 4.89978,-3.2665 9.12074,-4.49651 12.71093,-4.46289 z m 358.64453,13.20899 c 5.34498,0 38.14278,0.24456 47.375,0.73047 0.45173,3.16197 0.48385,10.10198 0.0957,20.82226 h -36.46094 -13.69336 c 0.8946,-9.44856 1.78904,-16.63282 2.68359,-21.55273 z m 52.47657,0.73047 8.80664,0.85937 c 1.13175,4.5479 7.13799,2.42436 10.125,0.98438 0.81901,0.0794 1.63482,0.1595 2.44922,0.23828 -0.006,1.1795 0.15645,2.42862 0.48632,3.74804 -1.94363,1.94364 -1.94363,4.37363 0,7.28907 l 4.37305,-2.1875 c 4.37317,0.97181 6.31597,2.91658 5.83008,5.83203 -0.48591,2.91546 0.97168,7.04562 4.37305,12.39062 l 3.64453,-2.1875 44.46094,64.86914 -29.1543,18.95118 h -64.14063 c 2.91548,-1.45772 3.40262,-6.31768 1.45899,-14.57813 0.48593,-2.42948 0.48593,-4.3723 0,-5.83008 1.94363,-10.20409 4.37167,-20.16659 7.28711,-29.88476 2.91545,-9.71817 2.67285,-19.92133 -0.72852,-30.61133 0.97185,-14.57725 1.21445,-24.5378 0.72852,-29.88281 z m 50.25586,4.8457 c 6.24222,0.59068 12.32862,1.16134 18.25781,1.71289 l 2.1875,2.91602 3.64453,-2.1875 40.08594,56.85156 -18.22071,17.49219 -40.8164,-63.41016 2.1875,-1.45703 c -2.59908,-4.57932 -5.04234,-8.55233 -7.32617,-11.91797 z m -91.80274,20.97656 h 0.0801 19.19727 c 0.73384,4.29812 2.32653,8.08187 4.77734,11.34961 0.97185,12.63361 0.72926,28.18195 -0.72852,46.64649 -4.37317,9.23225 -12.63353,15.06264 -24.78125,17.49218 -6.31678,1.45772 -9.47461,4.37291 -9.47461,8.7461 h -2.1875 c 2.91548,-1.45772 3.40067,-6.07312 1.45704,-13.84766 0.48592,-2.42948 0.48592,-4.3723 0,-5.83008 2.91546,-9.71818 6.19555,-19.19352 9.83984,-28.42578 3.64435,-9.23226 4.00921,-19.43737 1.09375,-30.61328 0.20046,-2.00455 0.44317,-3.84381 0.72656,-5.51758 z m -572.154295,9.89063 h 21.136715 l 10.20313,11.66211 c 93.78037,109.81535 211.37012,164.72265 352.76953,164.72265 160.83576,0 288.14541,-54.9073 381.92578,-164.72265 l 10.20313,-11.66211 h 21.13672 c -2.91549,6.31682 -8.74584,15.06432 -17.49219,26.24023 -86.49172,113.2167 -227.64754,169.82422 -423.46875,169.82422 -138.96987,0 -251.94423,-57.33728 -338.92188,-172.01172 -8.746332,-9.71817 -14.576722,-17.73591 -17.492185,-24.05273 z m 759.474605,75.07422 21.86524,30.61132 c -4.37326,2.42956 -5.70856,7.04496 -4.00781,13.84766 0.70088,2.80355 3.25915,8.04212 7.67382,15.71484 -5.55211,-7.33046 -9.44766,-11.96155 -11.68359,-13.89257 -5.34501,-4.61615 -10.203,-5.70885 -14.57617,-3.2793 L 830.9043,335.27734 c 6.80269,-6.31681 12.63307,-12.14718 17.49218,-17.49218 z M 619.5332,331.63281 h 121.72071 c -41.78813,24.29545 -82.3621,41.05876 -121.72071,50.29102 z m 270.4961,18.50196 c 1.26317,0.0104 2.81306,0.76625 4.65039,2.26953 2.67249,2.18659 14.45552,18.95186 35.34961,50.29297 20.89407,31.34111 30.36943,53.32734 28.42578,65.96093 -12.63357,-3.88724 -29.88407,-21.50068 -51.75,-52.84179 -21.86587,-31.34111 -32.79883,-48.71185 -32.79883,-52.11329 0,-3.40131 0.72973,-5.58869 2.1875,-6.56054 l 24.05273,32.79883 c 22.35179,30.61226 34.25511,45.67538 35.7129,45.18945 v -0.72852 c 1.45767,-0.48591 -8.01759,-16.764 -28.42579,-48.83398 l -18.94921,-34.98438 c 0.45554,-0.30368 0.97075,-0.45397 1.54492,-0.44921 z m -34.60157,19.64453 c 1.49284,-0.0417 3.15682,0.60514 4.99415,1.9414 2.6725,1.94361 14.45749,18.70695 35.35156,50.29102 20.89409,31.58405 30.36945,53.44992 28.42578,65.59766 h -0.002 C 911.56399,484.208 894.31511,466.8372 872.44922,435.49609 850.58335,404.155 839.65039,386.6619 839.65039,383.01758 c 0,-3.64429 0.72777,-5.95198 2.18555,-6.92383 l 24.05273,33.52734 c 22.35174,30.61226 34.25707,45.67539 35.71485,45.18946 v -0.72852 c 1.4577,-0.97183 -8.01764,-17.24995 -28.42579,-48.83398 l -19.67968,-34.98633 c 0.60738,-0.30369 1.25112,-0.46345 1.92968,-0.48242 z m -716.94335,95.96484 h 679.30078 v 14.57617 H 138.48438 Z"
     sodipodi:nodetypes="ssscssscccsccccccccsccssccsssscsscsscssscsscssssssccsssscsssssscsscssscscssccccssssssccccccccccccssccsssscccscccccccsccccccccccccccsscccsscccccccccccsscsssssccssccsccccscccccccscccsccccccccsscccsssscccscccssscsccccccccccccscccscccccssscsccccccccccscscsscccsssccccccsccccccscccccccccsscccccccccsssscccccccccsscccscccccsccsssssccccccccccccccscccsssssssssscccccccccccsccccccccccsccccccccccccccccccssscccscccscccccsssscssccccccccccccccscccccccscccccccccccccccccccccscccccsccccsccccscscccccccssscssccccccssssccssccccccsccccc" />
</svg>
