<?xml version="1.0" encoding="UTF-8" standalone="no"?>
<svg
   width="17.350834"
   height="9.36"
   version="1.1"
   id="svg1"
   sodipodi:docname="140A8.svg"
   inkscape:version="1.4.2 (f4327f4, 2025-05-13)"
   xmlns:inkscape="http://www.inkscape.org/namespaces/inkscape"
   xmlns:sodipodi="http://sodipodi.sourceforge.net/DTD/sodipodi-0.dtd"
   xmlns="http://www.w3.org/2000/svg"
   xmlns:svg="http://www.w3.org/2000/svg">
  <defs
     id="defs1" />
  <sodipodi:namedview
     id="namedview1"
     pagecolor="#ffffff"
     bordercolor="#666666"
     borderopacity="1.0"
     inkscape:showpageshadow="2"
     inkscape:pageopacity="0.0"
     inkscape:pagecheckerboard="0"
     inkscape:deskcolor="#d1d1d1"
     showguides="true"
     inkscape:zoom="32"
     inkscape:cx="5.515625"
     inkscape:cy="0.515625"
     inkscape:window-width="1680"
     inkscape:window-height="998"
     inkscape:window-x="-8"
     inkscape:window-y="-8"
     inkscape:window-maximized="1"
     inkscape:current-layer="svg1">
    <sodipodi:guide
       position="16.934214,4.2078937"
       orientation="-0.20810762,-0.97810594"
       id="guide1"
       inkscape:locked="false" />
    <sodipodi:guide
       position="0,7.3484207"
       orientation="0.20841582,0.97804031"
       id="guide2"
       inkscape:locked="false" />
  </sodipodi:namedview>
  <path
     id="path1"
     style="fill:#000000;stroke:none"
     d="M 0.43164062,0 0,2.0117188 1.7246094,2.3808594 c -0.246316,0.643158 -0.3691406,1.1831984 -0.3691406,1.6210937 0,0.4378947 0.095531,0.9886598 0.2871093,1.6523438 0.1915793,0.6636853 0.314404,1.0614069 0.3691407,1.1914062 C 2.0664554,6.9757024 1.7720643,7.1014514 1.1289062,7.2246094 0.48574892,7.3477681 0.16113987,7.6090181 0.15429688,8.0058594 0.14745488,8.4027027 0.27320312,8.5801155 0.53320312,8.5390625 0.61530845,8.5116932 0.68842133,8.6237944 0.75,8.8769531 0.81157933,9.1301111 0.87493804,9.2909543 0.94335938,9.359375 H 2.2382812 c 0.082105,0 0.1503409,-0.033142 0.2050782,-0.1015625 0.16421,-0.1368427 0.502467,-0.4965463 1.015625,-1.078125 C 3.9721431,7.5981088 4.2255927,7.1506748 4.21875,6.8359375 4.211908,6.5212008 4.1387951,6.1234785 4.0019531,5.6445312 3.8651111,5.1655839 3.796875,4.8331742 3.796875,4.6484375 c 0,-0.4017183 0.4875722,-1.3686814 0.7402344,-1.671875 l 8.6406246,1.8476563 c -0.01373,0.054737 -0.01953,0.1746382 -0.01953,0.359375 0,0.1847367 0.139397,0.5151933 0.419922,0.9941406 0.280528,0.4789473 0.447217,0.7733385 0.501953,0.8828125 -0.314737,0.09579 -0.648117,0.1961968 -1.003906,0.2988281 -0.355789,0.1026313 -0.535156,0.3209867 -0.535156,0.65625 0,0.3352627 0.05459,0.4961066 0.164062,0.4824219 0.232631,0.013685 0.507529,0.3002754 0.822266,0.8613281 h 1.599609 c 0.150528,-0.3421047 0.275307,-0.566308 0.371094,-0.6757812 0.437896,-0.4652634 0.648446,-0.8902796 0.634765,-1.2734376 1e-6,-0.1231587 -0.04363,-0.2702637 -0.111328,-0.4511718 L 15.794923,6.3535156 c -0.08341,-0.2229078 -0.07819,-0.5581997 -0.0098,-0.9960937 l 1.457032,0.328125 0.06055,-0.3496094 c 0.09579,-1.0673693 0.049,-1.661999 -0.142578,-1.7851563 z M 0.77929688,0.53320312 16.933594,3.9609375 V 5.1523438 L 0.53320312,1.6621094 Z M 2.21875,2.484375 3.9492188,2.8535156 C 3.7400937,3.2225793 3.3375895,4.0123939 3.3144531,4.6601562 c -0.00684,0.1915788 0.05847,0.5191117 0.1953125,0.984375 0.1368427,0.4652627 0.2050782,0.8308136 0.2050782,1.0976563 -1e-7,0.266842 -0.2456493,0.6840578 -0.7382813,1.2519531 C 2.4839312,8.5620353 2.2168339,8.8885984 2.1757812,8.9707031 1.8336759,8.9296521 1.5197906,8.9082031 1.2324219,8.9082031 1.0408432,8.4566231 0.84782933,8.2109739 0.65625,8.1699219 L 0.63671875,7.8613281 c 0,-0.09579 0.2622205,-0.1913193 0.78906245,-0.2871093 C 1.9526233,7.4784301 2.2850318,7.3751003 2.421875,7.265625 2.462927,7.238257 2.484375,7.1700202 2.484375,7.0605469 2.484375,6.7868636 2.3781209,6.336506 2.1660156,5.7070312 1.9539103,5.0775573 1.8476562,4.5024219 1.8476562,3.9824219 1.8476562,3.5112291 1.9715576,3.0117485 2.21875,2.484375 Z M 13.673828,4.9257812 15.3125,5.2753906 c -0.123158,0.574736 -0.05604,0.9770965 0.0625,1.2734375 l 0.328125,0.8203125 c -0.01369,0.3010527 -0.206697,0.6500323 -0.576172,1.046875 -0.177893,0.26 -0.292916,0.4452148 -0.347656,0.5546875 H 13.773438 C 13.609227,8.5054398 13.363579,8.2441891 13.035156,8.1894531 V 7.9433594 c 0,-0.1094747 0.23785,-0.224499 0.716797,-0.3476563 0.478949,-0.123158 0.746036,-0.2021174 0.800781,-0.2363281 0.05473,-0.034211 0.08203,-0.085876 0.08203,-0.1542969 0,-0.136842 -0.163767,-0.4721746 -0.492188,-1.0058593 -0.446983,-0.7263511 -0.489208,-1.044535 -0.46875,-1.2734376 z"
     sodipodi:nodetypes="cccssssscscscssssccsscsscccccssccccccccccccssssccccscssscccscccccsscsscc" />
</svg>
