<?xml version="1.0" encoding="UTF-8" standalone="no"?>
<svg
   width="1100"
   height="1000"
   version="1.1"
   id="svg1"
   sodipodi:docname="140B1.svg"
   inkscape:version="1.4.2 (f4327f4, 2025-05-13)"
   xmlns:inkscape="http://www.inkscape.org/namespaces/inkscape"
   xmlns:sodipodi="http://sodipodi.sourceforge.net/DTD/sodipodi-0.dtd"
   xmlns="http://www.w3.org/2000/svg"
   xmlns:svg="http://www.w3.org/2000/svg">
  <defs
     id="defs1" />
  <sodipodi:namedview
     id="namedview1"
     pagecolor="#ffffff"
     bordercolor="#666666"
     borderopacity="1.0"
     inkscape:showpageshadow="2"
     inkscape:pageopacity="0.0"
     inkscape:pagecheckerboard="0"
     inkscape:deskcolor="#d1d1d1"
     showguides="true"
     inkscape:zoom="0.3775"
     inkscape:cx="486.09272"
     inkscape:cy="512.58278"
     inkscape:window-width="1680"
     inkscape:window-height="998"
     inkscape:window-x="-8"
     inkscape:window-y="-8"
     inkscape:window-maximized="1"
     inkscape:current-layer="svg1">
    <sodipodi:guide
       position="415.31038,43.38153"
       orientation="1,0"
       id="guide1"
       inkscape:locked="false" />
  </sodipodi:namedview>
  <path
     id="path1"
     style="fill:#000000;stroke:none;stroke-width:0.999998"
     d="M 415.31055 0 C 286.11619 0 180.9043 104.50549 180.9043 233.08594 C 180.9043 330.29 241.03403 413.73524 326.19727 448.67188 L 284.07031 448.67188 C 232.14693 448.67188 201.38131 464.00261 191.77344 494.66602 C 181.96115 525.53387 185.43655 553.23293 202.19922 577.76367 C 219.1663 602.2944 248.29643 614.56055 289.58984 614.56055 C 298.38001 614.56055 302.77539 609.04275 302.77539 598.00391 C 302.77539 586.76066 298.58445 581.13867 290.20312 581.13867 C 267.5122 580.72982 253.30587 573.88123 247.58203 560.59375 C 241.8582 547.51069 242.06263 535.44898 248.19531 524.41016 C 254.53241 513.57575 266.28747 508.16016 283.45898 508.16016 C 301.24375 508.16016 316.06341 514.18905 327.91992 526.25 C 339.77645 538.31095 349.48519 556.60793 357.04883 581.13867 C 364.40806 605.6694 375.24313 617.93359 389.55273 617.93359 C 386.64411 712.71592 362.82812 811.56925 362.82812 906.29297 C 362.82812 965.36178 377.86544 1000 415.31055 1000 C 452.75566 1000 467.79297 965.36178 467.79297 906.29297 C 467.79297 811.56925 443.97698 712.71592 441.06836 617.93359 C 455.37796 617.93359 466.21304 605.6694 473.57227 581.13867 C 481.13591 556.60793 490.84464 538.31095 502.70117 526.25 C 514.55768 514.18905 529.37734 508.16016 547.16211 508.16016 C 564.33362 508.16016 576.08868 513.57575 582.42578 524.41016 C 588.55846 535.44898 588.76289 547.51069 583.03906 560.59375 C 577.31522 573.88123 563.1089 580.72982 540.41797 581.13867 C 532.03664 581.13867 527.8457 586.76066 527.8457 598.00391 C 527.8457 609.04275 532.24108 614.56055 541.03125 614.56055 C 582.32466 614.56055 611.45479 602.2944 628.42188 577.76367 C 645.18455 553.23293 648.65995 525.53387 638.84766 494.66602 C 629.23979 464.00261 598.47416 448.67188 546.55078 448.67188 L 504.42383 448.67188 C 589.58707 413.73524 649.7168 330.29 649.7168 233.08594 C 649.7168 104.50549 544.5049 -1.8947806e-14 415.31055 0 z M 415.31055 35 C 525.70468 35 614.7168 123.53678 614.7168 233.08594 C 614.7168 342.63509 525.70468 431.17188 415.31055 431.17188 C 304.91642 431.17188 215.9043 342.63509 215.9043 233.08594 C 215.9043 123.53678 304.91642 35 415.31055 35 z M 284.07031 473.81445 L 415.31055 473.81445 L 546.55078 473.81445 C 584.77784 473.81445 608.3882 485.05842 617.38281 507.54492 C 626.58183 529.827 624.63969 550.98611 611.55664 571.01953 C 598.678 591.05297 578.13417 601.06836 549.92383 601.06836 C 543.58673 597.79759 543.58673 595.54881 549.92383 594.32227 C 574.04572 594.32227 590.60305 585.43125 599.59766 567.64648 C 608.79668 549.86169 609.71664 531.77108 602.35742 513.37305 C 595.20263 494.77058 576.80342 485.4668 547.16211 485.4668 C 516.70313 485.4668 495.34154 493.13314 483.07617 508.46484 C 471.01524 523.79656 461.61117 542.60269 454.86523 564.88477 C 448.11927 587.16686 434.93513 598.30859 415.31055 598.30859 C 395.68597 598.30859 382.50182 587.16686 375.75586 564.88477 C 369.00992 542.60269 359.60585 523.79656 347.54492 508.46484 C 335.27955 493.13314 313.91796 485.4668 283.45898 485.4668 C 253.81767 485.4668 235.41846 494.77058 228.26367 513.37305 C 220.90445 531.77108 221.82442 549.86169 231.02344 567.64648 C 240.01805 585.43125 256.57538 594.32227 280.69727 594.32227 C 287.03437 595.54881 287.03437 597.79759 280.69727 601.06836 C 252.48693 601.06836 231.94309 591.05297 219.06445 571.01953 C 205.9814 550.98611 204.03926 529.827 213.23828 507.54492 C 222.23289 485.05842 245.84325 473.81445 284.07031 473.81445 z M 411.65039 622.22656 L 415.31055 622.22656 L 418.9707 622.22656 C 429.51042 765.13843 433.35547 854.24172 433.35547 905.50781 C 433.35547 944.65179 428.01092 963.08189 415.31055 963.08203 C 402.61017 963.08189 397.26563 944.65179 397.26562 905.50781 C 397.26562 854.24172 401.11067 765.13843 411.65039 622.22656 z " />
</svg>
