<?xml version="1.0" encoding="UTF-8" standalone="no"?>
<svg
   width="1100"
   height="1000"
   version="1.1"
   id="svg1"
   sodipodi:docname="140F4.svg"
   inkscape:version="1.4.2 (f4327f4, 2025-05-13)"
   xmlns:inkscape="http://www.inkscape.org/namespaces/inkscape"
   xmlns:sodipodi="http://sodipodi.sourceforge.net/DTD/sodipodi-0.dtd"
   xmlns="http://www.w3.org/2000/svg"
   xmlns:svg="http://www.w3.org/2000/svg">
  <defs
     id="defs1" />
  <sodipodi:namedview
     id="namedview1"
     pagecolor="#ffffff"
     bordercolor="#666666"
     borderopacity="1.0"
     inkscape:showpageshadow="2"
     inkscape:pageopacity="0.0"
     inkscape:pagecheckerboard="0"
     inkscape:deskcolor="#d1d1d1"
     inkscape:zoom="0.3775"
     inkscape:cx="1018.543"
     inkscape:cy="245.03311"
     inkscape:window-width="1680"
     inkscape:window-height="998"
     inkscape:window-x="-8"
     inkscape:window-y="-8"
     inkscape:window-maximized="1"
     inkscape:current-layer="svg1"
     showguides="true">
    <sodipodi:guide
       position="588.04056,962.31632"
       orientation="1,0"
       id="guide1"
       inkscape:locked="false" />
    <sodipodi:guide
       position="475.86523,962.31641"
       orientation="1,0"
       id="guide2"
       inkscape:locked="false" />
  </sodipodi:namedview>
  <path
     id="path1"
     style="fill:#000000;stroke:none;stroke-width:1"
     d="M 587.02135,135.91387 600.2006,-6.92438e-7 H 430.51341 L 444.51694,135.91387 C 315.89925,285.53036 283.06775,410.95544 283.06775,499.90039 c 0,88.94494 32.68464,214.39846 161.44919,364.18579 L 430.51341,1000 H 600.2006 L 587.02135,864.08618 C 714.15394,747.81414 750.93876,615.77643 750.9386,500.00002 750.93844,384.2996 714.20344,252.23117 587.02135,135.91387 Z m 130.1476,364.08615 c -0.27438,5.49151 -0.823,10.98305 -1.64671,16.47453 H 317.6646 c -0.80309,-5.62183 -1.21543,-11.11367 -1.2355,-16.47453 0.02,-5.36085 0.43241,-10.85269 1.2355,-16.47452 h 397.85764 c 0.82371,5.49148 1.37233,10.98302 1.64671,16.47452 z m -1.64671,-52.71883 H 317.6646 c 8.23729,-88.96213 59.58155,-184.5138 154.03511,-286.65554 h 93.08086 c 98.2976,102.14173 148.54507,197.69341 150.74167,286.65554 z m 0,105.43767 c -2.1966,88.96213 -52.44407,184.51381 -150.74167,286.65553 H 471.69971 C 377.24615,737.23267 325.90189,641.68099 317.6646,552.71886 Z M 568.07584,34.595756 564.78057,109.55537 h -93.08086 l -9.06154,-74.959614 z m 0,930.808524 H 462.63817 l 9.06154,-74.9596 h 93.08086 z"
     sodipodi:nodetypes="cccczccccscccccccccccccccccccccccccccc" />
</svg>
