<?xml version="1.0" encoding="UTF-8" standalone="no"?>
<svg
   width="650"
   height="1000"
   version="1.1"
   id="svg1"
   sodipodi:docname="14107.svg"
   inkscape:version="1.4.2 (f4327f4, 2025-05-13)"
   xmlns:inkscape="http://www.inkscape.org/namespaces/inkscape"
   xmlns:sodipodi="http://sodipodi.sourceforge.net/DTD/sodipodi-0.dtd"
   xmlns="http://www.w3.org/2000/svg"
   xmlns:svg="http://www.w3.org/2000/svg">
  <defs
     id="defs1" />
  <sodipodi:namedview
     id="namedview1"
     pagecolor="#ffffff"
     bordercolor="#666666"
     borderopacity="1.0"
     inkscape:showpageshadow="2"
     inkscape:pageopacity="0.0"
     inkscape:pagecheckerboard="0"
     inkscape:deskcolor="#d1d1d1"
     inkscape:zoom="0.5"
     inkscape:cx="793"
     inkscape:cy="281"
     inkscape:window-width="1680"
     inkscape:window-height="998"
     inkscape:window-x="-8"
     inkscape:window-y="-8"
     inkscape:window-maximized="1"
     inkscape:current-layer="svg1"
     showguides="true">
    <sodipodi:guide
       position="421.57954,360.95661"
       orientation="0,-1"
       id="guide1"
       inkscape:locked="false" />
    <sodipodi:guide
       position="329.53282,360.95661"
       orientation="1,0"
       id="guide2"
       inkscape:locked="false" />
  </sodipodi:namedview>
  <path
     id="path1"
     style="fill:#000000;stroke:none;stroke-width:1"
     d="M 310.3457 0 C 270.67199 7.4156473 211.53164 11.123047 132.92578 11.123047 L 0 11.123047 L 0 187.42969 L 131.25781 187.42969 C 182.79656 187.42969 219.87446 192.8059 242.49219 203.55859 C 265.10991 214.31128 284.01862 229.51455 299.2207 249.16602 L 299.2207 639.04297 L 219.95508 639.04297 L 116.82812 1000 L 542.23828 1000 L 439.10547 639.04297 L 359.84375 639.04297 L 359.84375 0 L 310.3457 0 z M 46.162109 49.5 L 310.3457 49.5 L 310.3457 193.54883 C 289.58189 163.88624 230.44154 149.05469 132.92578 149.05469 L 46.162109 149.05469 L 46.162109 49.5 z M 245.73438 677.70898 L 400.43164 677.70898 L 348.86719 780.8418 L 400.43164 974.21094 L 258.62891 974.21094 L 310.19336 780.8418 L 245.73438 677.70898 z M 245.72656 703.49219 L 284.4082 780.8418 L 232.8457 974.21094 L 168.38672 974.21094 L 245.72656 703.49219 z M 413.32617 703.49219 L 490.67383 974.21094 L 426.21484 974.21094 L 374.64258 780.8418 L 413.32617 703.49219 z " />
</svg>
