<?xml version="1.0" encoding="UTF-8" standalone="no"?>
<svg
   width="600"
   height="1000"
   version="1.1"
   id="svg1"
   sodipodi:docname="1413A.svg"
   inkscape:version="1.4.2 (f4327f4, 2025-05-13)"
   xmlns:inkscape="http://www.inkscape.org/namespaces/inkscape"
   xmlns:sodipodi="http://sodipodi.sourceforge.net/DTD/sodipodi-0.dtd"
   xmlns="http://www.w3.org/2000/svg"
   xmlns:svg="http://www.w3.org/2000/svg">
  <defs
     id="defs1" />
  <sodipodi:namedview
     id="namedview1"
     pagecolor="#ffffff"
     bordercolor="#666666"
     borderopacity="1.0"
     inkscape:showpageshadow="2"
     inkscape:pageopacity="0.0"
     inkscape:pagecheckerboard="0"
     inkscape:deskcolor="#d1d1d1"
     inkscape:zoom="0.53386562"
     inkscape:cx="186.37649"
     inkscape:cy="444.8685"
     inkscape:window-width="1680"
     inkscape:window-height="998"
     inkscape:window-x="-8"
     inkscape:window-y="-8"
     inkscape:window-maximized="1"
     inkscape:current-layer="svg1"
     showguides="true">
    <sodipodi:guide
       position="282.68164,828.69922"
       orientation="1,0"
       id="guide4"
       inkscape:locked="false" />
    <sodipodi:guide
       position="308.82227,828.69922"
       orientation="1,0"
       id="guide5"
       inkscape:locked="false" />
    <sodipodi:guide
       position="295.75196,764.12968"
       orientation="1,0"
       id="guide6"
       inkscape:locked="false" />
  </sodipodi:namedview>
  <path
     id="path1"
     style="fill:#000000;stroke:none;stroke-width:1"
     d="M 254.31641 0 C 234.29416 0 223.54173 16.500371 222.05859 49.5 L 202.59375 329.25391 L 198.69922 365.96289 C 147.53125 365.22133 118.61158 357.61872 111.9375 343.1582 C 105.6342 328.69769 116.20078 297.18185 143.63867 248.60938 C 171.44735 200.40765 179.04801 163.32977 166.44141 137.375 C 154.20559 111.42024 137.52132 96.588683 116.38672 92.880859 C 95.252125 89.543818 76.897077 89.174055 61.324219 91.769531 C 48.346836 90.286402 37.038779 91.027881 27.398438 93.994141 C 17.758095 96.960399 10.71306 101.40928 6.2636719 107.3418 C 1.4435013 113.6451 -0.59508034 119.39108 0.14648438 124.58203 C 1.6296138 136.44706 7.3755946 143.67796 17.386719 146.27344 C 27.397842 149.2397 35.556075 150.72266 41.859375 150.72266 C 30.365122 171.48646 24.803046 206.8975 25.173828 256.95312 C 25.544611 307.00876 33.516985 347.79405 49.089844 379.31055 C 65.033485 410.82705 113.97507 428.0689 195.91797 431.03516 L 193.13867 488.87695 L 278.78906 488.87695 L 278.78906 922.69141 C 250.23882 922.32062 226.87927 917.50003 208.71094 908.23047 C 189.05947 898.59013 164.40282 872.08075 134.74023 828.69922 C 105.44843 784.9469 77.823905 763.07031 51.869141 763.07031 C 34.813152 763.07031 26.285156 779.38483 26.285156 812.01367 L 26.285156 1000 L 562.99414 1000 L 564.10547 812.01367 C 564.10547 779.38483 555.20771 763.07031 537.41016 763.07031 C 511.45539 763.07031 484.20258 784.9469 455.65234 828.69922 C 427.1021 872.08075 403.00108 898.77598 383.34961 908.78711 C 363.32736 918.79823 340.33758 923.43297 314.38281 922.69141 L 314.38281 488.87695 L 400.03516 488.87695 L 397.25391 430.47852 C 428.39962 423.06287 450.46011 444.56774 463.4375 494.99414 C 476.41488 545.42054 479.56666 592.88111 472.89258 637.375 C 465.84771 681.86888 476.04453 718.94679 503.48242 748.60938 C 514.6059 755.28345 520.16797 752.6873 520.16797 740.82227 C 506.44902 701.14855 506.81879 656.10023 521.2793 605.67383 C 535.36903 554.87665 534.99926 500.92665 520.16797 443.82617 C 505.33668 386.72569 463.06645 360.40022 393.35938 364.84961 L 390.58008 329.25391 L 368.33203 49.5 C 366.8489 16.500371 353.87202 0 329.40039 0 C 311.23205 0 299.73814 7.2308947 294.91797 21.691406 C 289.35623 7.2308947 275.82178 0 254.31641 0 z M 260.99023 19.466797 C 273.96762 19.466797 281.19851 29.477753 282.68164 49.5 L 282.68164 240.5957 C 259.21368 242.56406 242.59625 249.82822 230.95703 259.17773 L 240.41211 49.5 C 240.41211 29.477753 247.27129 19.466797 260.99023 19.466797 z M 329.95703 19.466797 C 342.93441 19.466797 349.42188 29.477753 349.42188 49.5 L 360.54688 259.17773 C 348.90765 249.82822 332.29023 242.56406 308.82227 240.5957 L 308.82227 49.5 C 309.93461 29.477753 316.97965 19.466797 329.95703 19.466797 z M 43.109375 106.78516 C 46.909894 106.97055 50.387412 108.08374 53.539062 110.12305 C 73.190528 106.04444 90.802141 105.67273 106.375 109.00977 C 121.94786 112.34681 134.18326 124.76806 143.08203 146.27344 C 152.35159 167.40803 144.56507 200.22292 119.72266 244.7168 C 95.25101 289.21068 85.240064 324.61977 89.689453 350.94531 C 94.138841 377.27086 129.91964 390.06383 197.03125 389.32227 L 197.03125 406.00586 C 126.21182 406.00586 83.757698 391.73188 69.667969 363.18164 C 55.949021 334.63139 49.089844 299.22233 49.089844 256.95312 C 49.089844 214.68394 52.425527 186.5038 59.099609 172.41406 C 65.773692 157.95356 72.818728 147.9426 80.234375 142.38086 C 87.27924 137.18991 97.661912 134.22398 111.38086 133.48242 C 118.42573 128.29147 118.42573 124.39821 111.38086 121.80273 C 92.470959 118.46569 73.004669 123.28434 52.982422 136.26172 C 48.162251 135.14937 42.044554 134.7796 34.628906 135.15039 C 27.21326 135.89195 21.651183 131.81284 17.943359 122.91406 C 17.943359 116.98154 22.206381 112.34681 30.734375 109.00977 C 35.183763 107.34125 39.308856 106.59976 43.109375 106.78516 z M 34.490234 110.95703 C 32.729018 110.95703 31.106177 111.23484 29.623047 111.79102 C 24.802876 115.12806 23.134056 118.09397 24.617188 120.68945 C 25.729533 122.54336 28.695454 123.65656 33.515625 124.02734 C 37.965013 124.39812 41.116791 122.7293 42.970703 119.02148 C 44.824615 115.68444 43.897277 113.27414 40.189453 111.79102 C 38.15015 111.23484 36.251451 110.95703 34.490234 110.95703 z M 295.75195 270.85742 C 336.90879 270.85742 357.95139 289.58028 360.54688 327.0293 L 368.88867 458.28711 L 223.17188 458.28711 L 232.62695 327.0293 C 235.22243 289.58028 256.8198 270.85742 295.75195 270.85742 z M 415.25 388.98242 C 461.27915 391.29402 490.13481 415.32309 501.81445 461.06836 C 515.16262 513.34867 511.08352 582.68388 489.57812 669.07617 C 500.70162 594.9197 499.40449 531.33047 485.68555 478.30859 C 471.59581 425.65749 441.74687 401.55647 396.14062 406.00586 L 394.47266 389.32227 C 401.74926 388.76609 408.67441 388.65219 415.25 388.98242 z M 51.869141 793.66016 C 65.95887 793.66016 84.497817 808.67562 107.48633 838.70898 C 130.10405 868.74236 152.16647 895.43954 173.67188 918.79883 C 194.80647 941.78733 235.59178 953.28125 296.0293 953.28125 C 356.46682 953.28125 397.43799 941.78733 418.94336 918.79883 C 440.07796 895.43954 461.58478 868.74236 483.46094 838.70898 C 505.3371 808.67562 523.32042 793.66016 537.41016 793.66016 L 537.41016 821.46875 L 537.41016 974.41602 L 52.982422 974.41602 L 52.982422 821.46875 C 52.982422 802.92964 52.610705 793.66016 51.869141 793.66016 z " />
</svg>
