<?xml version="1.0" encoding="UTF-8" standalone="no"?>
<svg
   width="500"
   height="1000"
   version="1.1"
   id="svg1"
   sodipodi:docname="14140.svg"
   inkscape:version="1.4.2 (f4327f4, 2025-05-13)"
   xmlns:inkscape="http://www.inkscape.org/namespaces/inkscape"
   xmlns:sodipodi="http://sodipodi.sourceforge.net/DTD/sodipodi-0.dtd"
   xmlns="http://www.w3.org/2000/svg"
   xmlns:svg="http://www.w3.org/2000/svg">
  <defs
     id="defs1" />
  <sodipodi:namedview
     id="namedview1"
     pagecolor="#ffffff"
     bordercolor="#666666"
     borderopacity="1.0"
     inkscape:showpageshadow="2"
     inkscape:pageopacity="0.0"
     inkscape:pagecheckerboard="0"
     inkscape:deskcolor="#d1d1d1"
     inkscape:zoom="0.755"
     inkscape:cx="-192.71523"
     inkscape:cy="529.13907"
     inkscape:window-width="1680"
     inkscape:window-height="998"
     inkscape:window-x="-8"
     inkscape:window-y="-8"
     inkscape:window-maximized="1"
     inkscape:current-layer="svg1" />
  <path
     id="path3"
     style="fill:#000000;stroke:none;stroke-width:1"
     d="M 113.45898 0 C 92.324394 0 81.757813 15.758891 81.757812 47.275391 L 81.757812 352.05859 C 27.252806 363.55285 0 380.23712 0 402.11328 C 0 411.01206 3.3376359 418.79858 10.011719 425.47266 C 35.966483 425.47266 54.691294 444.75309 66.185547 483.31445 C 77.309018 521.87581 96.589452 541.15625 124.02734 541.15625 L 113.45898 969.41016 C 113.45898 989.80318 124.39728 1000 146.27344 1000 C 167.40803 1000 177.97461 989.80318 177.97461 969.41016 L 167.96484 541.15625 C 195.03195 541.15625 214.31239 521.87581 225.80664 483.31445 C 236.93011 444.75309 255.84078 425.47266 282.53711 425.47266 C 288.46963 418.79858 291.43555 411.01206 291.43555 402.11328 C 291.43555 380.23712 264.5525 363.92261 210.78906 353.16992 L 210.78906 314.79297 C 254.00096 299.23137 287.98835 305.21635 314.06445 331.84961 C 340.54935 358.90039 359.02734 410.97249 359.02734 489.80469 L 320.35547 489.80469 L 347.05273 662.77539 L 339.82227 685.02148 C 339.82227 707.63921 351.13033 718.94922 373.74805 718.94922 C 394.88264 718.94922 405.45117 707.63921 405.45117 685.02148 L 399.88867 662.77539 L 427.69727 489.80469 L 389.02734 489.80469 C 389.02734 406.3825 370.26624 346.37036 335.50195 310.86328 C 313.77427 288.67136 285.85449 277.50585 255.30859 276.97852 C 240.92679 276.73023 225.96324 278.84013 210.78906 283.26758 L 210.78906 47.275391 C 210.78906 15.758891 199.85077 0 177.97461 0 C 156.84002 0 146.27344 10.938294 146.27344 32.814453 C 146.27344 10.938294 135.33514 0 113.45898 0 z M 117.9082 18.353516 C 128.66089 18.353516 134.03711 27.994708 134.03711 47.275391 L 134.03711 345.93945 C 120.31816 345.93945 109.75158 346.68094 102.33594 348.16406 L 102.33594 47.275391 C 102.33594 27.994708 107.5263 18.353516 117.9082 18.353516 z M 175.19531 18.353516 C 185.20644 18.353516 190.21094 27.994708 190.21094 47.275391 L 190.21094 345.93945 L 158.50977 345.93945 L 158.50977 47.275391 C 158.50977 27.994708 164.07185 18.353516 175.19531 18.353516 z M 146.27344 378.75391 C 189.28419 378.75391 223.39617 385.24332 248.60938 398.2207 C 220.80069 417.1306 203.93056 439.74867 197.99805 466.07422 C 192.06553 492.39977 182.05457 507.60108 167.96484 511.67969 C 153.50433 515.75829 139.04254 515.75829 124.58203 511.67969 C 109.75074 507.60108 99.370018 492.39977 93.4375 466.07422 C 87.875765 439.74867 71.005631 417.1306 42.826172 398.2207 C 68.780937 385.24332 103.26268 378.75391 146.27344 378.75391 z M 347.05273 510.93945 L 402.11328 510.93945 L 378.75391 662.77539 L 385.98438 685.02148 C 385.98438 693.1787 381.53549 697.25781 372.63672 697.25781 C 363.73794 697.25781 359.28906 693.1787 359.28906 685.02148 L 368.1875 662.77539 L 347.05273 510.93945 z M 143.49219 548.38672 L 148.49805 548.38672 L 153.50391 969.41016 C 153.50391 975.34268 151.0936 978.30859 146.27344 978.30859 C 141.45326 978.30859 139.04297 975.34268 139.04297 969.41016 L 143.49219 548.38672 z " />
</svg>
