<?xml version="1.0" encoding="UTF-8" standalone="no"?>
<!-- Created with Inkscape (http://www.inkscape.org/) -->

<svg
   width="1800"
   height="1800"
   id="svg2"
   sodipodi:version="0.32"
   inkscape:version="1.4.2 (f4327f4, 2025-05-13)"
   version="1.0"
   sodipodi:docname="1414E.svg"
   inkscape:output_extension="org.inkscape.output.svg.inkscape"
   xmlns:inkscape="http://www.inkscape.org/namespaces/inkscape"
   xmlns:sodipodi="http://sodipodi.sourceforge.net/DTD/sodipodi-0.dtd"
   xmlns="http://www.w3.org/2000/svg"
   xmlns:svg="http://www.w3.org/2000/svg"
   xmlns:rdf="http://www.w3.org/1999/02/22-rdf-syntax-ns#"
   xmlns:cc="http://creativecommons.org/ns#"
   xmlns:dc="http://purl.org/dc/elements/1.1/">
  <defs
     id="defs4">
    <inkscape:perspective
       sodipodi:type="inkscape:persp3d"
       inkscape:vp_x="0 : 526.18109 : 1"
       inkscape:vp_y="0 : 1000 : 0"
       inkscape:vp_z="744.09448 : 526.18109 : 1"
       inkscape:persp3d-origin="372.04724 : 350.78739 : 1"
       id="perspective10" />
    <inkscape:perspective
       id="perspective2432"
       inkscape:persp3d-origin="5.8060436 : 5.9924723 : 1"
       inkscape:vp_z="11.612087 : 8.9887085 : 1"
       inkscape:vp_y="0 : 1000 : 0"
       inkscape:vp_x="0 : 8.9887085 : 1"
       sodipodi:type="inkscape:persp3d" />
    <inkscape:perspective
       id="perspective2478"
       inkscape:persp3d-origin="12.812273 : 5.9944057 : 1"
       inkscape:vp_z="25.624546 : 8.9916086 : 1"
       inkscape:vp_y="0 : 1000 : 0"
       inkscape:vp_x="0 : 8.9916086 : 1"
       sodipodi:type="inkscape:persp3d" />
    <inkscape:perspective
       id="perspective3984"
       inkscape:persp3d-origin="8.6821499 : 5.5199998 : 1"
       inkscape:vp_z="17.3643 : 8.2799997 : 1"
       inkscape:vp_y="0 : 1000 : 0"
       inkscape:vp_x="0 : 8.2799997 : 1"
       sodipodi:type="inkscape:persp3d" />
  </defs>
  <sodipodi:namedview
     id="base"
     pagecolor="#ffffff"
     bordercolor="#666666"
     borderopacity="1.0"
     inkscape:pageopacity="0.0"
     inkscape:pageshadow="2"
     inkscape:zoom="1.1066328"
     inkscape:cx="1212.2359"
     inkscape:cy="1612.5493"
     inkscape:document-units="px"
     inkscape:current-layer="layer1"
     showgrid="false"
     inkscape:window-width="1680"
     inkscape:window-height="998"
     inkscape:window-x="-8"
     inkscape:window-y="-8"
     inkscape:showpageshadow="2"
     inkscape:pagecheckerboard="0"
     inkscape:deskcolor="#d1d1d1"
     inkscape:window-maximized="1" />
  <metadata
     id="metadata7">
    <rdf:RDF>
      <cc:Work
         rdf:about="">
        <dc:format>image/svg+xml</dc:format>
        <dc:type
           rdf:resource="http://purl.org/dc/dcmitype/StillImage" />
      </cc:Work>
    </rdf:RDF>
  </metadata>
  <g
     inkscape:label="Calque 1"
     inkscape:groupmode="layer"
     id="layer1">
    <path
       id="path1335"
       style="fill:#000000;stroke:none"
       d="M 1685.75 3.5 C 1641.2152 3.423428 1597.7101 22.648641 1585 54.25 C 1567.4495 97.884581 1495.0151 244.80556 1326.7812 377.28125 C 1060.925 529.16718 769.86963 914.6904 698.9375 1110.2188 C 690.84482 1132.5267 681.57879 1157.5268 673.17578 1185.2227 C 645.97638 1174.9534 606.92729 1110.2424 620.04492 1071.0703 C 629.11308 1043.9912 641.24276 1017.15 656.22461 990.60156 C 671.20576 964.05338 685.83206 931.49501 700.04883 892.88086 C 714.2655 854.26582 718.55992 814.99363 712.96289 775.11328 C 706.35189 746.91821 696.1941 723.17606 682.47266 703.87305 C 668.75125 684.57077 654.71075 670.504 640.41992 661.67969 C 626.12985 652.85526 608.50709 645.32061 587.54883 638.97461 C 571.83073 634.21508 554.91434 632.9902 536.73242 635.33984 C 530.67177 636.12306 524.46328 637.30978 518.12891 638.88281 C 492.79159 645.17563 472.07499 654.37947 456.07422 666.57617 C 440.07341 678.77214 430.12317 693.20232 426.18945 709.8418 C 432.28899 723.04934 441.66457 731.85128 454.30273 736.23047 C 466.94159 740.60955 490.45536 746.09023 524.75 752.6875 C 494.78219 784.95489 478.83932 824.07277 477.00781 869.98828 C 475.17618 915.90295 480.6487 993.39461 493.37305 1102.4941 C 505.0715 1186.2362 606.4614 1234.6424 656.55078 1247.7227 C 648.37673 1284.2847 633.7177 1349.5096 633.1875 1387.1562 C 639.82859 1391.1402 811.67133 1454.6152 861.5625 1551.875 C 884.73028 1597.0388 924.63222 1501.8088 963.9375 1516.6562 C 1044.7771 1547.1943 916.65098 1669.5006 916 1681.4375 C 911.31606 1767.3194 1034.9824 1784.9514 1057.5625 1799.5625 C 1066.8604 1802.2188 1075.4995 1803.5625 1083.4688 1803.5625 C 1104.7207 1803.5625 1116.5705 1780.4585 1145.2188 1759.7188 C 1199.4146 1720.4838 1255.2115 1644.2565 1308.502 1551.4922 C 1296.5932 1596.749 1299.513 1652.4945 1329.709 1730.0918 L 1385.625 1708.332 C 1356.2772 1632.9143 1355.0398 1595.569 1366.8535 1562.2148 C 1417.1759 1579.6708 1459.2659 1583.5361 1493.4023 1574.8555 C 1515.0207 1569.3581 1533.9198 1558.0711 1546.0371 1541.0469 C 1558.1544 1524.0226 1562.1198 1502.1984 1558.543 1481.7246 C 1554.4127 1458.083 1538.2716 1439.1369 1519.0254 1428.6094 C 1499.7792 1418.0819 1477.24 1414.3247 1453.9336 1416.4082 C 1419.6216 1419.4755 1382.9848 1436.0833 1353.8809 1467.6055 C 1479.092 1223.0329 1582.4903 915.58572 1605.0625 839.1875 C 1636.9405 727.61456 1642.4678 583.22451 1653.0938 524.78125 C 1702.505 303.79713 1789.4369 171.55095 1794.5 149.1875 C 1818.0973 44.961047 1750.8394 3.611913 1685.75 3.5 z M 1701.75 77.53125 C 1752.8599 184.18188 1640.1586 224.83663 1558.4062 579.5625 C 1539.523 887.93674 1371.3336 1272.4905 1269.9609 1454.5918 L 747.02734 1216.8184 C 800.13655 1015.9529 970.78039 795.05533 1170.2812 583.75 C 1711.0334 203.37085 1549.4865 148.33242 1701.75 77.53125 z M 734.61523 1277.0859 L 1239.4355 1506.623 C 1238.5723 1508.0026 1237.719 1509.3572 1236.875 1510.6875 C 1191.7147 1611.6343 1139.2715 1680.685 1079.5 1717.875 C 1048.9504 1721.8599 1019.0015 1713.301 1003.0625 1672.125 C 1036.4786 1631.1239 1062.7022 1545.8583 1064.3438 1516.8438 C 1071.329 1393.3805 950.14061 1452.629 936.375 1441.125 C 852.08632 1370.6843 742.07915 1323.1285 732.78125 1291.25 C 733.31841 1286.5423 733.92997 1281.8207 734.61523 1277.0859 z M 1468.709 1475.959 C 1477.7042 1476.3728 1485.261 1478.5287 1490.2324 1481.248 C 1496.861 1484.8738 1498.7067 1487.8543 1499.4395 1492.0488 C 1500.7257 1499.4112 1499.5624 1502.8726 1497.1543 1506.2559 C 1494.7462 1509.6391 1489.7248 1513.8819 1478.6152 1516.707 C 1462.6081 1520.7775 1434.6715 1519.9754 1397.3164 1508.8125 C 1416.7309 1487.2543 1439.7408 1477.9162 1459.2754 1476.1699 C 1462.5513 1475.8771 1465.7106 1475.8211 1468.709 1475.959 z " />
  </g>
</svg>
