<?xml version="1.0" encoding="UTF-8" standalone="no"?>
<svg
   width="1100"
   height="1000"
   version="1.1"
   id="svg1"
   sodipodi:docname="1417F.svg"
   inkscape:version="1.4.2 (f4327f4, 2025-05-13)"
   xmlns:inkscape="http://www.inkscape.org/namespaces/inkscape"
   xmlns:sodipodi="http://sodipodi.sourceforge.net/DTD/sodipodi-0.dtd"
   xmlns="http://www.w3.org/2000/svg"
   xmlns:svg="http://www.w3.org/2000/svg">
  <defs
     id="defs1" />
  <sodipodi:namedview
     id="namedview1"
     pagecolor="#ffffff"
     bordercolor="#666666"
     borderopacity="1.0"
     inkscape:showpageshadow="2"
     inkscape:pageopacity="0.0"
     inkscape:pagecheckerboard="0"
     inkscape:deskcolor="#d1d1d1"
     inkscape:zoom="0.3775"
     inkscape:cx="1270.1987"
     inkscape:cy="133.77483"
     inkscape:window-width="1680"
     inkscape:window-height="998"
     inkscape:window-x="-8"
     inkscape:window-y="-8"
     inkscape:window-maximized="1"
     inkscape:current-layer="svg1"
     showguides="true">
    <sodipodi:guide
       position="333.80407,557.60793"
       orientation="0,-1"
       id="guide11"
       inkscape:locked="false" />
    <sodipodi:guide
       position="367.05298,560.2649"
       orientation="0,-1"
       id="guide12"
       inkscape:locked="false" />
  </sodipodi:namedview>
  <path
     id="path1"
     style="fill:#000000;stroke:none;stroke-width:1"
     d="M 786.73438 0 C 714.43181 0 678.2793 44.864423 678.2793 134.59375 L 678.2793 488.87695 L 652.14062 488.87695 L 652.14062 135.70703 C 652.14063 45.977708 615.43248 1.1132812 542.01758 1.1132812 C 477.13066 1.1132814 444.6875 25.584074 444.6875 74.527344 C 444.6875 98.628196 456.73704 122.72922 480.83789 146.83008 L 431.33984 653.50391 C 422.07029 669.07677 409.64903 676.86328 394.07617 676.86328 C 377.39097 676.86328 371.08741 670.74559 375.16602 658.50977 C 379.24462 645.90317 391.29415 622.35776 411.31641 587.875 C 431.33865 553.39225 438.19783 523.17352 431.89453 497.21875 C 425.59122 471.63477 416.69347 455.69197 405.19922 449.38867 C 382.8469 436.44142 358.46486 439.04967 333.80469 442.39258 C 317.0412 438.29511 301.00869 441.97217 295.07617 446.05078 C 286.91897 453.8372 282.83984 461.0681 282.83984 467.74219 C 282.83984 474.41627 287.29068 480.71982 296.18945 486.65234 C 304.71745 492.95564 313.24544 494.80836 321.77344 492.21289 C 307.31293 521.50469 302.67819 551.90928 307.86914 583.42578 C 312.68931 614.94228 315.09961 648.12693 315.09961 682.98047 C 315.09961 689.26137 315.93556 694.96542 317.60742 700.08984 C 280.5098 693.43271 239.62808 699.59429 194.96484 718.57617 C 135.63967 744.16015 93.927021 751.01933 69.826172 739.1543 C 45.725319 727.66004 29.041043 720.61501 19.771484 718.01953 C 3.8278462 713.19936 -2.4757129 719.87464 0.86132812 738.04297 C 18.658881 792.17719 53.882124 820.17148 106.5332 822.02539 C 159.1843 824.25008 202.01013 819.61535 235.00977 808.12109 C 267.63861 796.25606 306.94096 797.55316 352.91797 812.01367 C 398.52421 826.84497 443.9462 826.6591 489.18164 811.45703 C 525.03396 799.70217 554.4814 805.18396 577.52344 827.90039 C 523.1284 854.66421 490.89895 912.03018 480.83789 1000 L 842.9082 1000 C 832.95159 912.94349 801.19706 855.85699 747.64648 828.74219 C 770.9297 805.31928 801.01542 799.55802 837.90234 811.45703 C 883.50857 826.6591 928.92862 826.84497 974.16406 812.01367 C 1019.3995 797.55316 1058.7019 796.25606 1092.0723 808.12109 C 1125.0719 819.61535 1167.8977 824.25008 1220.5488 822.02539 C 1272.8292 820.17148 1308.0543 792.17719 1326.2227 738.04297 C 1328.8181 719.87464 1322.7005 713.19936 1307.8691 718.01953 C 1297.8581 720.61501 1280.802 727.66004 1256.7012 739.1543 C 1232.6003 751.01933 1190.7018 744.16015 1131.0059 718.57617 C 1087.265 699.98632 1047.3528 693.69229 1011.2715 699.69336 C 1012.8586 694.67163 1013.6523 689.10003 1013.6523 682.98047 C 1013.6523 648.12693 1016.0626 614.94228 1020.8828 583.42578 C 1026.0737 551.90928 1021.439 521.50469 1006.9785 492.21289 C 1016.248 494.80836 1024.9619 492.95564 1033.1191 486.65234 C 1041.6471 480.71982 1045.9102 474.41627 1045.9102 467.74219 C 1045.9102 461.0681 1041.6471 453.8372 1033.1191 446.05078 C 1028.299 441.97217 1017.6329 438.58463 998.63672 442.39258 C 973.6868 438.67147 947.62319 437.25946 923.55273 449.38867 C 912.05847 455.69197 903.15876 471.63477 896.85547 497.21875 C 890.55217 523.17352 897.4133 553.39225 917.43555 587.875 C 937.45779 622.35776 949.50734 645.90317 953.58594 658.50977 C 957.66454 670.74559 951.36098 676.86328 934.67578 676.86328 C 916.50744 676.86328 904.4579 669.81825 898.52539 655.72852 L 849.02539 145.7168 C 873.12624 121.61594 885.17578 97.514913 885.17578 73.414062 C 885.17578 24.470793 852.36283 0 786.73438 0 z M 786.73438 20.021484 C 808.50122 20.021484 860.34338 25.208165 861.26172 74.527344 C 861.76122 101.35276 844.23243 123.16714 819.77148 141.74414 L 875.16602 700.7793 L 781.72852 677.97461 C 789.88572 662.40176 793.96484 642.93747 793.96484 619.57812 C 793.96484 542.15503 731.91672 502.53362 701.63867 493.88281 L 701.63867 150.72266 C 699.25941 88.951483 714.90996 22.524919 786.73438 20.021484 z M 542.01758 21.134766 C 616.52147 20.994237 627.27092 91.877665 628.22461 151.83594 L 628.22461 492.21289 C 580.95601 506.98431 533.67578 551.03377 533.67578 619.57812 C 533.67578 644.42054 538.12466 664.44246 547.02344 679.64453 L 454.69922 700.7793 L 510.0918 142.85742 C 485.79945 124.40847 468.34399 102.7673 468.59375 76.195312 L 468.60352 76.195312 C 468.60352 58.355995 478.94249 21.134766 542.01758 21.134766 z M 320.45117 453.03906 C 326.43004 452.8305 330.94886 454.39343 334.00781 457.73047 C 352.17615 454.39343 367.74918 455.32077 380.72656 460.51172 C 393.70394 466.07346 402.60365 479.97767 407.42383 502.22461 C 412.61478 524.84233 408.72152 547.27454 395.74414 569.52148 C 382.76675 592.13921 372.01432 612.34698 363.48633 630.14453 C 354.58755 647.94208 350.13867 660.17748 350.13867 666.85156 C 350.13867 688.72772 363.11555 699.66602 389.07031 699.66602 C 407.98021 699.66602 420.77123 695.403 427.44531 686.875 L 425.2207 711.90234 L 389.07031 711.90234 C 354.95833 711.90234 338.0882 698.36789 338.45898 671.30078 C 338.82977 644.23367 336.97509 614.94228 332.89648 583.42578 C 328.4471 551.90928 330.30178 527.62239 338.45898 510.56641 C 346.24542 493.51042 361.81649 482.57408 385.17578 477.75391 C 387.77126 475.89999 387.77126 473.67361 385.17578 471.07812 C 367.00745 466.25797 349.02607 468.85411 331.22852 478.86523 C 326.40835 479.60679 320.10479 479.60679 312.31836 478.86523 C 304.16115 478.12367 300.08203 474.41627 300.08203 467.74219 C 300.08203 459.95575 304.71677 455.32102 313.98633 453.83789 C 316.30372 453.37441 318.45822 453.10858 320.45117 453.03906 z M 1009.3418 453.03906 C 1011.3811 453.10856 1013.5596 453.37441 1015.877 453.83789 C 1025.1465 455.32102 1029.7812 459.95575 1029.7812 467.74219 C 1029.7812 474.41627 1025.5182 478.12367 1016.9902 478.86523 C 1008.833 479.60679 1002.7153 479.60679 998.63672 478.86523 C 980.09761 468.85411 962.11427 466.25801 944.6875 471.07812 C 941.35046 473.67361 941.35046 475.89999 944.6875 477.75391 C 967.30522 482.57408 982.50654 493.51042 990.29297 510.56641 C 998.0794 527.62239 1000.1199 551.90928 996.41211 583.42578 C 992.70429 614.94228 990.84961 644.23367 990.84961 671.30078 C 990.84961 698.36789 973.79362 711.90234 939.68164 711.90234 C 926.33347 711.90234 914.28393 708.93643 903.53125 703.00391 L 902.41797 689.6543 C 912.42909 696.32838 924.85035 699.66602 939.68164 699.66602 C 966.37797 699.66602 979.72656 688.72772 979.72656 666.85156 C 979.72656 660.17748 975.09182 647.94208 965.82227 630.14453 C 956.92349 612.34698 945.9852 592.13921 933.00781 569.52148 C 920.03043 547.27454 916.13719 524.84233 921.32812 502.22461 C 926.14829 479.97767 935.2319 466.07346 948.58008 460.51172 C 961.92824 455.32077 977.31541 454.39343 994.74219 457.73047 C 998.35731 454.39343 1003.2239 452.8305 1009.3418 453.03906 z M 316.76758 456.0625 C 312.31818 457.91641 310.09375 460.51256 310.09375 463.84961 C 310.09375 467.18665 312.31818 469.03938 316.76758 469.41016 C 320.84618 469.78094 323.44234 468.29798 324.55469 464.96094 C 325.66703 461.6239 325.10946 459.39946 322.88477 458.28711 C 320.28929 456.80398 318.2507 456.0625 316.76758 456.0625 z M 1011.9844 456.0625 C 1010.5013 456.0625 1008.4627 456.80398 1005.8672 458.28711 C 1003.2717 459.39946 1002.7141 461.6239 1004.1973 464.96094 C 1005.3096 468.29798 1007.9058 469.78094 1011.9844 469.41016 C 1016.4338 469.03938 1018.6582 467.18665 1018.6582 463.84961 C 1019.3998 460.51256 1017.1754 457.91641 1011.9844 456.0625 z M 663.26367 523.35938 C 714.92128 523.35938 758.92578 567.40685 758.92578 619.57812 C 758.92578 675.56624 712.802 716.9082 663.26367 716.9082 C 610.47631 716.9082 565.93359 674.50756 565.93359 619.57812 C 565.93359 568.52729 608.30219 523.35932 663.26367 523.35938 z M 278.94727 732.61914 C 305.27281 731.59949 329.92947 735.81849 352.91797 745.27344 C 398.52421 764.55411 443.9462 765.10973 489.18164 746.94141 C 534.41709 728.40229 572.97795 730.62673 604.86523 753.61523 C 637.12329 776.60375 656.77545 788.09766 663.82031 788.09766 C 670.86519 788.09766 690.14562 776.60375 721.66211 753.61523 C 753.17861 730.62673 791.92534 728.40229 837.90234 746.94141 C 883.50857 765.10973 928.92862 764.55411 974.16406 745.27344 C 1019.3995 726.36354 1071.6807 728.40216 1131.0059 751.39062 C 1190.7018 774.00838 1240.3869 779.1987 1280.0605 766.96289 C 1241.87 795.14234 1192.7406 799.96295 1132.6738 781.42383 C 1072.2363 763.25549 1019.3995 762.1423 974.16406 778.08594 C 928.92862 793.6588 883.50857 792.17584 837.90234 773.63672 C 791.92534 754.72683 747.43068 767.33393 704.41992 811.45703 L 685.23438 811.45703 C 677.62404 810.71546 669.74536 810.3457 661.5957 810.3457 C 653.47444 810.3457 645.62122 810.71546 638.03711 811.45703 L 623.21875 811.45703 C 579.09565 767.33393 534.41709 754.72683 489.18164 773.63672 C 443.9462 792.17584 398.52421 793.6588 352.91797 778.08594 C 306.94096 762.1423 254.10416 763.25549 194.4082 781.42383 C 134.34146 799.96295 85.214015 795.14234 47.023438 766.96289 C 86.326358 779.1987 135.63967 774.00835 194.96484 751.39062 C 224.62743 739.89639 252.62172 733.63879 278.94727 732.61914 z M 661.5957 849.27734 C 728.33653 849.27734 771.71799 885.79963 791.74023 958.84375 L 529.78125 958.84375 C 547.94958 885.79963 591.88862 849.27734 661.5957 849.27734 z " />
</svg>
