<?xml version="1.0" encoding="UTF-8" standalone="no"?>
<!-- Created with Inkscape (http://www.inkscape.org/) -->

<svg
   width="1100"
   height="800"
   viewBox="0 0 1100 800"
   version="1.1"
   id="svg1"
   xml:space="preserve"
   sodipodi:docname="141F1.svg"
   inkscape:version="1.4.2 (f4327f4, 2025-05-13)"
   xmlns:inkscape="http://www.inkscape.org/namespaces/inkscape"
   xmlns:sodipodi="http://sodipodi.sourceforge.net/DTD/sodipodi-0.dtd"
   xmlns="http://www.w3.org/2000/svg"
   xmlns:svg="http://www.w3.org/2000/svg"><sodipodi:namedview
     id="namedview1"
     pagecolor="#ffffff"
     bordercolor="#666666"
     borderopacity="1.0"
     inkscape:showpageshadow="2"
     inkscape:pageopacity="0.0"
     inkscape:pagecheckerboard="0"
     inkscape:deskcolor="#d1d1d1"
     inkscape:document-units="px"
     inkscape:zoom="0.672594"
     inkscape:cx="381.35933"
     inkscape:cy="274.3111"
     inkscape:window-width="1680"
     inkscape:window-height="998"
     inkscape:window-x="-8"
     inkscape:window-y="-8"
     inkscape:window-maximized="1"
     inkscape:current-layer="layer1" /><defs
     id="defs1" /><g
     inkscape:label="Layer 1"
     inkscape:groupmode="layer"
     id="layer1"><path
       style="baseline-shift:baseline;display:inline;overflow:visible;opacity:1;vector-effect:none;fill:#000000;enable-background:accumulate;stop-color:#000000;stop-opacity:1"
       d="m 263.30273,-0.08203125 c -118.28589,0 -211.556636,95.65712425 -211.556636,225.23437125 0,162.05283 143.502336,276.58786 383.007816,292.55469 91.09911,6.07321 180.65889,14.15766 246.92773,50.55078 66.26884,36.39312 114.29859,98.35322 127.05078,231.66992 l 59.72656,-5.71289 C 854.4214,647.46014 792.85698,560.85893 710.56445,515.66602 628.27193,470.4731 530.30241,463.94561 438.74414,457.8418 306.72449,449.0406 111.74609,396.36831 111.74609,225.15234 c 0,-102.45321 64.0692,-165.234371 151.55664,-165.234371 74.25952,0 117.41797,43.006991 117.41797,105.857421 0,53.18226 -27.31078,76.0503 -56.29101,83.25391 -28.98024,7.2036 -55.69583,-2.38011 -64.86914,-29.98633 l -56.93946,18.91992 c 19.52418,58.75614 82.6234,82.63312 136.28321,69.29492 53.65981,-13.33819 101.8164,-65.01687 101.8164,-141.48242 0,-93.07835 -67.67173,-165.85742125 -177.41797,-165.85742125 z"
       id="path1"
       sodipodi:nodetypes="ssssccssssssccsss" /></g></svg>
