<?xml version="1.0" encoding="UTF-8" standalone="no"?>
<svg
   width="1000"
   height="1000"
   version="1.1"
   id="svg1"
   sodipodi:docname="14212.svg"
   inkscape:version="1.4.2 (f4327f4, 2025-05-13)"
   xmlns:inkscape="http://www.inkscape.org/namespaces/inkscape"
   xmlns:sodipodi="http://sodipodi.sourceforge.net/DTD/sodipodi-0.dtd"
   xmlns="http://www.w3.org/2000/svg"
   xmlns:svg="http://www.w3.org/2000/svg">
  <defs
     id="defs1" />
  <sodipodi:namedview
     id="namedview1"
     pagecolor="#ffffff"
     bordercolor="#666666"
     borderopacity="1.0"
     inkscape:showpageshadow="2"
     inkscape:pageopacity="0.0"
     inkscape:pagecheckerboard="0"
     inkscape:deskcolor="#d1d1d1"
     inkscape:zoom="0.755"
     inkscape:cx="500"
     inkscape:cy="325.16556"
     inkscape:window-width="1680"
     inkscape:window-height="998"
     inkscape:window-x="-8"
     inkscape:window-y="-8"
     inkscape:window-maximized="1"
     inkscape:current-layer="svg1" />
  <path
     style="fill:#000000;stroke:none;stroke-width:1"
     d="M 48.59335,71.61125 67.348679,93.77664 0,96.33418 l 7.6726343,23.87042 78.4313727,-5.11509 19.607843,22.16539 -68.201194,3.41006 9.377665,23.87042 77.578859,-6.82012 18.75533,22.16539 -68.201197,5.11509 10.230179,22.16538 76.726338,-5.11509 18.75533,22.16539 -67.34868,5.11509 9.37767,21.31288 77.57886,-4.26258 592.49787,682.86445 -81.84144,-16.19778 -9.37766,6.82012 180.73316,80.1364 -54.56095,-189.25831 -8.52515,5.9676 3.41006,85.25149 L 228.474,220.80136 245.5243,144.07502 223.35891,131.2873 210.57119,197.78346 191.81586,177.3231 208.01364,99.74424 185.84825,86.95652 173.06053,155.15771 154.3052,132.99233 168.79795,57.1185 147.48508,44.33077 133.84484,110.82694 116.79454,90.36658 130.43478,12.78772 109.97442,0 95.481671,68.20119 78.431373,46.0358 Z M 808.18414,47.74083 789.42882,69.90622 776.64109,1.70503 l -20.46036,12.78772 14.49276,77.57886 -18.75533,20.46036 -12.78772,-68.2012 -22.16539,12.78773 16.19778,77.57886 -19.60784,20.46035 -11.93521,-66.49616 -22.16539,12.78772 15.34527,75.87383 -18.75533,21.31288 -14.49275,-65.64365 -20.46036,11.08269 16.19778,76.72634 -597.612956,678.60188 3.41006,-83.54646 -6.820119,-6.82012 L 0.85251492,998.29497 180.73316,919.8636 173.06053,911.33845 89.514067,927.53623 685.422,246.37681 l 79.28388,5.96761 9.37767,-23.01791 -68.2012,-5.11509 17.90282,-20.46036 76.72634,5.11509 11.08269,-23.87041 -67.34867,-3.41006 18.75532,-22.16539 76.72635,6.82012 10.23018,-23.87042 -69.90623,-5.11509 20.46036,-22.16539 77.57886,6.82012 9.37766,-23.87042 -68.20119,-3.41006 19.60784,-22.16538 z"
     id="path2" />
</svg>
