<?xml version="1.0" encoding="UTF-8" standalone="no"?>
<svg
   width="1100"
   height="600"
   version="1.1"
   id="svg1"
   sodipodi:docname="14259.svg"
   inkscape:version="1.4.2 (f4327f4, 2025-05-13)"
   xmlns:inkscape="http://www.inkscape.org/namespaces/inkscape"
   xmlns:sodipodi="http://sodipodi.sourceforge.net/DTD/sodipodi-0.dtd"
   xmlns="http://www.w3.org/2000/svg"
   xmlns:svg="http://www.w3.org/2000/svg">
  <defs
     id="defs1" />
  <sodipodi:namedview
     id="namedview1"
     pagecolor="#ffffff"
     bordercolor="#666666"
     borderopacity="1.0"
     inkscape:showpageshadow="2"
     inkscape:pageopacity="0.0"
     inkscape:pagecheckerboard="0"
     inkscape:deskcolor="#d1d1d1"
     inkscape:zoom="0.47772727"
     inkscape:cx="570.40913"
     inkscape:cy="212.46432"
     inkscape:window-width="1680"
     inkscape:window-height="998"
     inkscape:window-x="-8"
     inkscape:window-y="-8"
     inkscape:window-maximized="1"
     inkscape:current-layer="svg1"
     showguides="true">
    <sodipodi:guide
       position="0,300"
       orientation="0,1"
       id="guide1"
       inkscape:locked="false"
       inkscape:label=""
       inkscape:color="rgb(0,134,229)" />
    <sodipodi:guide
       position="0,600"
       orientation="1,0"
       id="guide2"
       inkscape:locked="false" />
    <sodipodi:guide
       position="0,600"
       orientation="0,-1"
       id="guide3"
       inkscape:locked="false" />
    <sodipodi:guide
       position="736.03399,246.62163"
       orientation="1,0"
       id="guide4"
       inkscape:locked="false" />
    <sodipodi:guide
       position="716.03542,405.42139"
       orientation="0,1"
       id="guide5"
       inkscape:locked="false"
       inkscape:label=""
       inkscape:color="rgb(0,134,229)" />
    <sodipodi:guide
       position="716.03542,420.42139"
       orientation="0,-1"
       id="guide6"
       inkscape:locked="false" />
  </sodipodi:namedview>
  <path
     id="path2"
     style="baseline-shift:baseline;display:inline;overflow:visible;opacity:1;vector-effect:none;fill:#000000;enable-background:accumulate;stop-color:#000000;stop-opacity:1"
     d="M 55.869141,0.046875 C 20.881485,92.662565 0.28320312,163.58325 0.28320312,300.47461 0.28320312,437.71358 21.037687,508.70207 55.869141,600.9043 338.87839,442.63441 488.21529,436.37109 716.03516,436.37109 h 175.0332 c 31.46658,0 79.17966,47.55274 132.70704,47.55274 50.2395,0 76.375,-41.34433 76.375,-77.55274 0,-36.20633 -26.1317,-77.55078 -76.375,-77.55078 -53.53112,0 -101.24106,47.55078 -132.70704,47.55078 H 731.03516 V 224.57812 h 160.0332 c 31.46658,0 79.17966,47.55274 132.70704,47.55274 50.2395,0 76.375,-41.34433 76.375,-77.55274 0,-36.20894 -26.1359,-77.55273 -76.375,-77.55273 -53.52755,0 -101.24032,47.55275 -132.70704,47.55273 h -175.0332 c -228.36139,0 -377.35997,-6.41133 -660.166019,-164.531245 z M 71.96875,43.097656 C 335.77323,187.28836 503.2762,194.24739 701.03516,194.49023 v 211.96875 c -197.75844,0.24285 -365.26119,7.20299 -629.064457,151.39258 -28.070472,-78.14009 -41.6875,-147.04624 -41.6875,-257.37695 0,-110.33042 13.615227,-179.23712 41.685547,-257.376954 z M 1023.7754,147.02539 c 27.3561,-0.457 45.3909,21.3291 46.375,47.55273 -1.0123,27.97953 -18.3223,46.46648 -46.375,47.55274 -39.01446,0 -79.69955,-37.80497 -116.87696,-45.8125 v -3.48047 c 37.18872,-8.00894 77.86307,-45.8125 116.87696,-45.8125 z m 0,211.79492 c 27.3564,-0.45764 45.3909,21.3267 46.375,47.55078 -1.0123,27.97953 -18.3223,46.46648 -46.375,47.55274 -39.01445,0 -79.69952,-37.80496 -116.87696,-45.8125 v -3.48047 c 37.18404,-8.00794 77.86151,-45.81055 116.87696,-45.81055 z"
     sodipodi:nodetypes="cscssssssccsssscccccccscsssccssssccs" />
</svg>
