<?xml version="1.0" encoding="UTF-8" standalone="no"?>
<svg
   width="1100"
   height="1000"
   id="svg1320"
   sodipodi:version="0.32"
   inkscape:version="1.4.2 (f4327f4, 2025-05-13)"
   sodipodi:docname="14291.svg"
   version="1.1"
   xml:space="preserve"
   xmlns:inkscape="http://www.inkscape.org/namespaces/inkscape"
   xmlns:sodipodi="http://sodipodi.sourceforge.net/DTD/sodipodi-0.dtd"
   xmlns="http://www.w3.org/2000/svg"
   xmlns:svg="http://www.w3.org/2000/svg"
   xmlns:rdf="http://www.w3.org/1999/02/22-rdf-syntax-ns#"
   xmlns:cc="http://creativecommons.org/ns#"
   xmlns:dc="http://purl.org/dc/elements/1.1/"><metadata
     id="metadata1327"><rdf:RDF><cc:Work
         rdf:about=""><dc:format>image/svg+xml</dc:format><dc:type
           rdf:resource="http://purl.org/dc/dcmitype/StillImage" /></cc:Work></rdf:RDF></metadata><defs
     id="defs1325" /><sodipodi:namedview
     inkscape:window-height="998"
     inkscape:window-width="1680"
     inkscape:pageshadow="2"
     inkscape:pageopacity="0.0"
     borderopacity="1.0"
     bordercolor="#666666"
     pagecolor="#ffffff"
     id="base"
     inkscape:zoom="0.32419145"
     inkscape:cx="58.607345"
     inkscape:cy="1139.7586"
     inkscape:window-x="-8"
     inkscape:window-y="-8"
     inkscape:current-layer="svg1320"
     inkscape:showpageshadow="2"
     inkscape:pagecheckerboard="0"
     inkscape:deskcolor="#d1d1d1"
     inkscape:window-maximized="1"
     showguides="true"><sodipodi:guide
       position="1081.803,36.171395"
       orientation="1,0"
       id="guide1"
       inkscape:locked="false" /><sodipodi:guide
       position="1100,0"
       orientation="0,-1"
       id="guide2"
       inkscape:locked="false" /></sodipodi:namedview><path
     id="path1-7"
     style="fill:#000000;stroke:none;stroke-width:1"
     d="m 119.08789,0 c 17.44042,276.86664 208.53789,568.536 481.33008,848.1543 H 75.921875 C 34.206725,848.1543 0,882.36298 0,924.07812 0,965.79328 34.206725,1000 75.921875,1000 H 1005.8809 c 41.7151,0 75.9218,-34.20671 75.9218,-75.92188 0,-41.71514 -34.2067,-75.92382 -75.9218,-75.92382 H 680.01367 C 502.31241,657.95732 383.41288,503.4158 323.31641,384.5293 255.05449,249.48942 217.02904,161.00961 209.23828,119.08789 l 685.0293,383.97266 28.9375,-51.19727 z M 75.921875,888.1543 H 1005.8809 c 20.247,0 35.9218,15.6768 35.9218,35.92382 0,20.24704 -15.6748,35.92188 -35.9218,35.92188 H 75.921875 C 55.674835,960 40,944.32516 40,924.07812 40,903.8311 55.674835,888.1543 75.921875,888.1543 Z"
     sodipodi:nodetypes="ccsssssscsccccsssssss" /></svg>
