<?xml version="1.0" encoding="UTF-8" standalone="no"?>
<svg
   width="1100"
   height="1000"
   version="1.1"
   id="svg1"
   sodipodi:docname="142A7.svg"
   inkscape:version="1.4.2 (f4327f4, 2025-05-13)"
   xmlns:inkscape="http://www.inkscape.org/namespaces/inkscape"
   xmlns:sodipodi="http://sodipodi.sourceforge.net/DTD/sodipodi-0.dtd"
   xmlns="http://www.w3.org/2000/svg"
   xmlns:svg="http://www.w3.org/2000/svg">
  <defs
     id="defs1" />
  <sodipodi:namedview
     id="namedview1"
     pagecolor="#ffffff"
     bordercolor="#666666"
     borderopacity="1.0"
     inkscape:showpageshadow="2"
     inkscape:pageopacity="0.0"
     inkscape:pagecheckerboard="0"
     inkscape:deskcolor="#d1d1d1"
     showguides="true"
     inkscape:zoom="0.755"
     inkscape:cx="662.91391"
     inkscape:cy="560.92715"
     inkscape:window-width="1680"
     inkscape:window-height="998"
     inkscape:window-x="-8"
     inkscape:window-y="-8"
     inkscape:window-maximized="1"
     inkscape:current-layer="svg1">
    <sodipodi:guide
       position="688.66797,763.74023"
       orientation="1,0"
       id="guide4"
       inkscape:locked="false" />
  </sodipodi:namedview>
  <path
     id="path4"
     style="fill:#000000;stroke:none;stroke-width:1"
     d="M 688.66797 93.009766 C 581.73634 93.054176 478.13628 137.74828 377.44922 228.2207 L 377.44922 93.779297 L 352.27734 93.779297 L 352.27734 571.50391 L 296.78516 571.50391 C 231.94825 572.26669 187.13433 528.21626 162.34375 439.35156 C 157.00424 421.80746 146.70692 415.32366 131.45117 419.90039 C 116.19543 424.47711 110.85492 435.15619 115.43164 451.9375 C 147.4687 562.16024 202.96169 617.27148 281.91016 617.27148 C 233.09178 641.29928 186.37109 682.87033 141.74805 741.98633 C 140.7502 743.2886 139.76479 744.59105 138.78906 745.89258 C 95.721983 727.55103 65.051919 687.34779 46.78125 625.28125 C 42.204527 608.49994 32.479817 602.20702 17.605469 606.40234 C 2.3497257 610.59768 -2.9907851 621.46762 1.5859375 639.01172 C 22.483074 712.79667 59.43565 761.62604 112.44336 785.5 C 86.975495 829.39944 74.242188 872.86622 74.242188 915.90234 C 74.242188 971.9672 101.70237 1000 156.62305 1000 C 211.92511 1000 239.57617 961.66987 239.57617 885.00977 C 239.57617 859.10455 243.55255 831.64436 251.50586 802.62891 L 1100 802.62891 L 1100 757.43359 L 1002.1719 757.43359 L 1002.1719 617.27148 L 1100 617.27148 L 1100 571.50391 L 1026.2012 571.50391 L 1026.2012 93.779297 L 999.88477 93.779297 L 1001.0293 228.2207 C 901.31504 137.74828 795.5996 92.965356 688.66797 93.009766 z M 688.66797 118.37891 C 788.97448 118.37891 886.61117 160.90432 981.57812 245.95508 L 396.90039 245.95508 C 491.86738 160.90432 589.12426 118.37891 688.66797 118.37891 z M 377.44922 269.98242 L 567.76562 269.98242 L 567.76562 352.61133 L 377.44922 352.61133 L 377.44922 269.98242 z M 594.08203 269.98242 L 784.39648 269.98242 L 784.39648 352.61133 L 594.08203 352.61133 L 594.08203 269.98242 z M 810.71289 269.98242 L 1001.0293 269.98242 L 1001.0293 352.61133 L 810.71289 352.61133 L 810.71289 269.98242 z M 377.44922 379.42969 L 567.76562 379.42969 L 567.76562 462.05664 L 377.44922 462.05664 L 377.44922 379.42969 z M 594.08203 379.42969 L 784.39648 379.42969 L 784.39648 462.05664 L 594.08203 462.05664 L 594.08203 379.42969 z M 810.71289 379.42969 L 1001.0293 379.42969 L 1001.0293 462.05664 L 810.71289 462.05664 L 810.71289 379.42969 z M 377.44922 488.875 L 567.76562 488.875 L 567.76562 571.50391 L 377.44922 571.50391 L 377.44922 488.875 z M 594.08203 488.875 L 784.39648 488.875 L 784.39648 571.50391 L 594.08203 571.50391 L 594.08203 488.875 z M 810.71289 488.875 L 1001.0293 488.875 L 1001.0293 571.50391 L 810.71289 571.50391 L 810.71289 488.875 z M 341.98047 617.27148 L 420.92969 617.27148 L 420.92969 757.43359 L 266.61523 757.43359 C 283.66948 713.86763 308.79197 667.14694 341.98047 617.27148 z M 464.98047 617.27148 L 558.80273 617.27148 L 558.80273 757.43359 L 464.98047 757.43359 L 464.98047 617.27148 z M 602.85352 617.27148 L 823.10742 617.27148 L 823.10742 757.43359 L 602.85352 757.43359 L 602.85352 617.27148 z M 867.73047 617.27148 L 957.54883 617.27148 L 957.54883 757.43359 L 867.73047 757.43359 L 867.73047 617.27148 z M 276.18945 659.0332 L 278.47852 659.0332 C 255.0416 693.85376 236.74732 726.65446 223.59766 757.43359 L 199.5293 757.43359 C 193.28202 757.43359 187.20369 757.13598 181.29492 756.53906 C 204.89664 724.13442 236.52839 691.63133 276.18945 659.0332 z M 155.06836 798.69922 C 169.0461 801.31897 183.86612 802.62891 199.5293 802.62891 L 207.58203 802.62891 C 201.45158 824.80975 198.38477 845.78615 198.38477 865.55859 C 198.38477 923.14902 185.60805 951.94531 160.05469 951.94531 C 133.35714 951.94531 120.00977 937.64162 120.00977 909.03711 C 120.00977 879.92682 131.69558 843.14789 155.06836 798.69922 z " />
</svg>
