<?xml version="1.0" encoding="UTF-8" standalone="no"?>
<svg
   width="180"
   height="500"
   version="1.1"
   id="svg1"
   sodipodi:docname="142B7.svg"
   inkscape:version="1.4.2 (f4327f4, 2025-05-13)"
   xmlns:inkscape="http://www.inkscape.org/namespaces/inkscape"
   xmlns:sodipodi="http://sodipodi.sourceforge.net/DTD/sodipodi-0.dtd"
   xmlns="http://www.w3.org/2000/svg"
   xmlns:svg="http://www.w3.org/2000/svg">
  <defs
     id="defs1" />
  <sodipodi:namedview
     id="namedview1"
     pagecolor="#ffffff"
     bordercolor="#666666"
     borderopacity="1.0"
     inkscape:showpageshadow="2"
     inkscape:pageopacity="0.0"
     inkscape:pagecheckerboard="0"
     inkscape:deskcolor="#d1d1d1"
     inkscape:zoom="1.0677312"
     inkscape:cx="-12.643632"
     inkscape:cy="203.70296"
     inkscape:window-width="1680"
     inkscape:window-height="998"
     inkscape:window-x="-8"
     inkscape:window-y="-8"
     inkscape:window-maximized="1"
     inkscape:current-layer="svg1"
     showguides="true">
    <sodipodi:guide
       position="180,500"
       orientation="1,0"
       id="guide1"
       inkscape:locked="false" />
    <sodipodi:guide
       position="90,500"
       orientation="1,0"
       id="guide2"
       inkscape:locked="false" />
    <sodipodi:guide
       position="180,0"
       orientation="0,-1"
       id="guide3"
       inkscape:locked="false" />
  </sodipodi:namedview>
  <path
     id="path2"
     style="baseline-shift:baseline;display:inline;overflow:visible;vector-effect:none;enable-background:accumulate;stop-color:#000000;stop-opacity:1;opacity:1"
     d="M 0 0 L 0 20 L 61.804688 20 C 25.979504 31.870617 0 65.306547 0 104.6543 C 0 144.0042 25.982317 177.44165 61.810547 189.31055 L 0 189.31055 L 0 209.31055 L 75 209.31055 L 75 484.98047 A 15 15 0 0 0 90 499.98047 A 15 15 0 0 0 105 484.98047 L 105 209.31055 L 180 209.31055 L 180 189.31055 L 119.23633 189.31055 C 155.06406 177.44165 181.04492 144.0042 181.04492 104.6543 C 181.04492 65.306547 155.06687 31.870617 119.24219 20 L 180 20 L 180 0 L 0 0 z M 90.523438 35.384766 C 129.6745 35.384766 161.04492 66.364655 161.04492 104.6543 C 161.04492 142.94394 129.6745 173.92383 90.523438 173.92383 C 51.37238 173.92383 20 142.94394 20 104.6543 C 20 66.364655 51.37238 35.384766 90.523438 35.384766 z " />
</svg>
