<?xml version="1.0" encoding="UTF-8" standalone="no"?>
<svg
   width="180"
   height="500"
   version="1.1"
   id="svg1"
   sodipodi:docname="142B6.svg"
   inkscape:version="1.4.2 (f4327f4, 2025-05-13)"
   xmlns:inkscape="http://www.inkscape.org/namespaces/inkscape"
   xmlns:sodipodi="http://sodipodi.sourceforge.net/DTD/sodipodi-0.dtd"
   xmlns="http://www.w3.org/2000/svg"
   xmlns:svg="http://www.w3.org/2000/svg">
  <defs
     id="defs1" />
  <sodipodi:namedview
     id="namedview1"
     pagecolor="#ffffff"
     bordercolor="#666666"
     borderopacity="1.0"
     inkscape:showpageshadow="2"
     inkscape:pageopacity="0.0"
     inkscape:pagecheckerboard="0"
     inkscape:deskcolor="#d1d1d1"
     inkscape:zoom="1.0677312"
     inkscape:cx="248.18981"
     inkscape:cy="308.59827"
     inkscape:window-width="1680"
     inkscape:window-height="998"
     inkscape:window-x="-8"
     inkscape:window-y="-8"
     inkscape:window-maximized="1"
     inkscape:current-layer="svg1"
     showguides="true">
    <sodipodi:guide
       position="180,500"
       orientation="1,0"
       id="guide1"
       inkscape:locked="false" />
    <sodipodi:guide
       position="90,500"
       orientation="1,0"
       id="guide2"
       inkscape:locked="false" />
    <sodipodi:guide
       position="180,0"
       orientation="0,-1"
       id="guide3"
       inkscape:locked="false" />
    <sodipodi:guide
       position="0,500"
       orientation="0,-1"
       id="guide4"
       inkscape:locked="false" />
  </sodipodi:namedview>
  <path
     id="path5"
     style="baseline-shift:baseline;display:inline;overflow:visible;opacity:1;vector-effect:none;fill:#000000;stroke-linecap:round;enable-background:accumulate;stop-color:#000000;stop-opacity:1"
     d="M 90,0 C 69.97779,35.595106 32.99253,90.657134 24.09375,131.25781 6.9498056,209.47697 69.084206,231.27691 75,233.16406 v 251.81641 c 0,8.28427 6.715729,15 15,15 8.284271,0 15,-6.71573 15,-15 V 233.03711 c 1.8e-4,-0.0911 -4.7e-4,-0.1823 -0.002,-0.27344 8.96718,-3.13795 66.7972,-26.47254 50.35156,-101.50586 C 146.17275,90.657134 109.74421,35.595106 90,0 Z m 0,40.878906 c 20.02229,36.151279 35.03899,57.286686 43.10352,93.994144 C 142.01834,179.10931 130.71447,198.15033 90,214.68359 49.3992,200.23692 37.587028,176.64457 46.0625,134.87305 54.12695,98.165592 69.69971,77.030185 90,40.878906 Z"
     sodipodi:nodetypes="cscsssccccccccc" />
</svg>
