<?xml version="1.0" encoding="UTF-8" standalone="no"?>
<svg
   width="180"
   height="500"
   version="1.1"
   id="svg1"
   sodipodi:docname="142C0.svg"
   inkscape:version="1.4.2 (f4327f4, 2025-05-13)"
   xml:space="preserve"
   xmlns:inkscape="http://www.inkscape.org/namespaces/inkscape"
   xmlns:sodipodi="http://sodipodi.sourceforge.net/DTD/sodipodi-0.dtd"
   xmlns="http://www.w3.org/2000/svg"
   xmlns:svg="http://www.w3.org/2000/svg"><defs
     id="defs1" /><sodipodi:namedview
     id="namedview1"
     pagecolor="#ffffff"
     bordercolor="#666666"
     borderopacity="1.0"
     inkscape:showpageshadow="2"
     inkscape:pageopacity="0.0"
     inkscape:pagecheckerboard="0"
     inkscape:deskcolor="#d1d1d1"
     inkscape:zoom="1.0677312"
     inkscape:cx="32.779786"
     inkscape:cy="281.43788"
     inkscape:window-width="1680"
     inkscape:window-height="998"
     inkscape:window-x="-8"
     inkscape:window-y="-8"
     inkscape:window-maximized="1"
     inkscape:current-layer="svg1"
     showguides="true"><sodipodi:guide
       position="186.09272,339.07284"
       orientation="1,0"
       id="guide1"
       inkscape:locked="false" /><sodipodi:guide
       position="90,500"
       orientation="1,0"
       id="guide2"
       inkscape:locked="false" /><sodipodi:guide
       position="180,0"
       orientation="0,-1"
       id="guide3"
       inkscape:locked="false" /></sodipodi:namedview><path
     id="path3"
     style="baseline-shift:baseline;display:inline;overflow:visible;vector-effect:none;fill:#000000;fill-rule:evenodd;stroke-linecap:round;enable-background:accumulate;stop-color:#000000;stop-opacity:1;opacity:1"
     d="M 90 0 C 37.183498 0 -5.9609375 42.573238 -5.9609375 94.966797 L -5.9609375 104.9668 L 75 104.9668 L 75 369.77734 L 23.269531 369.77734 L 23.269531 389.77734 L 68.291016 389.77734 C 47.21133 398.30797 32.228516 418.8555 32.228516 442.78125 C 32.228516 474.32697 58.275046 500 90 500 C 121.72495 500 147.77148 474.32697 147.77148 442.78125 C 147.77148 418.8555 132.78867 398.30797 111.70898 389.77734 L 156.73047 389.77734 L 156.73047 369.77734 L 105 369.77734 L 105 104.9668 L 185.96094 104.9668 L 185.96094 94.966797 C 185.96094 42.573238 142.8165 9.4739031e-15 90 0 z M 90 20 C 128.67725 20 160.27702 48.263261 165.21289 84.966797 L 90 84.966797 L 14.787109 84.966797 C 19.722982 48.263261 51.322748 20 90 20 z M 90 405.5625 C 111.04105 405.5625 127.77148 422.17068 127.77148 442.78125 C 127.77148 463.39182 111.04105 480 90 480 C 68.958952 480 52.228516 463.39182 52.228516 442.78125 C 52.228516 422.17068 68.958952 405.5625 90 405.5625 z " /></svg>
