<?xml version="1.0" encoding="UTF-8" standalone="no"?>
<svg
   width="800"
   height="1100"
   version="1.1"
   id="svg1"
   sodipodi:docname="14371.svg"
   inkscape:version="1.4.2 (f4327f4, 2025-05-13)"
   xmlns:inkscape="http://www.inkscape.org/namespaces/inkscape"
   xmlns:sodipodi="http://sodipodi.sourceforge.net/DTD/sodipodi-0.dtd"
   xmlns="http://www.w3.org/2000/svg"
   xmlns:svg="http://www.w3.org/2000/svg">
  <defs
     id="defs1" />
  <sodipodi:namedview
     id="namedview1"
     pagecolor="#ffffff"
     bordercolor="#666666"
     borderopacity="1.0"
     inkscape:showpageshadow="2"
     inkscape:pageopacity="0.0"
     inkscape:pagecheckerboard="0"
     inkscape:deskcolor="#d1d1d1"
     showguides="true"
     inkscape:zoom="0.34318182"
     inkscape:cx="-254.96689"
     inkscape:cy="648.34437"
     inkscape:window-width="1680"
     inkscape:window-height="998"
     inkscape:window-x="-8"
     inkscape:window-y="-8"
     inkscape:window-maximized="1"
     inkscape:current-layer="svg1">
    <sodipodi:guide
       position="0,1100"
       orientation="0,-1"
       id="guide1"
       inkscape:locked="false" />
    <sodipodi:guide
       position="0,0"
       orientation="0,-1"
       id="guide2"
       inkscape:locked="false" />
  </sodipodi:namedview>
  <path
     id="path5"
     style="fill:#000000;stroke:none;stroke-width:1"
     d="m 172.18555,0 c -29.7297,0 -44.80195,13.006018 -45.21485,39.019531 -0.4129,26.013514 14.6593,39.021485 45.21485,39.021485 h 60.69726 1.23828 c 16.10361,30.555544 24.15625,61.110454 24.15625,91.666014 -61.93694,6.19369 -96.82847,28.07923 -104.67382,65.6543 -3.71621,17.34234 -10.32136,10.1146 -19.81836,-21.67969 C 124.28817,181.47443 79.69219,165.37109 0,165.37109 v 58.22071 c 52.02703,0 80.311476,22.50421 84.853516,67.51172 4.54205,44.5946 25.600714,66.89257 63.175784,66.89257 5.36787,36.74925 22.09184,107.35725 50.16992,211.82422 34.68468,132.54505 52.02734,237.83642 52.02734,315.87696 0,35.92342 -31.38177,90.22188 -94.14453,162.89453 -11.56156,1.2388 -17.34375,8.879 -17.34375,22.918 0,18.994 11.56243,28.4902 34.68555,28.4902 h 258.89648 c 23.12312,0 34.68555,-9.4962 34.68555,-28.4902 0,-14.039 -5.78219,-21.6792 -17.34375,-22.918 -63.58859,-72.67265 -95.38281,-126.97111 -95.38281,-162.89453 0,-78.04054 17.96134,-183.33191 53.88476,-315.87696 35.92343,-132.95796 53.88672,-218.84439 53.88672,-257.6582 0,-91.25375 -38.1951,-138.73887 -114.58398,-142.45508 0,-30.55556 8.05068,-61.11047 24.15429,-91.666014 h -1.23828 l 58.83985,-1.238282 c 44.1817,-3.716216 74.11799,-7.846628 89.80859,-12.388672 15.6907,-4.542041 29.72979,4.129287 42.11719,26.013672 12.8003,21.471476 27.6662,32.000796 44.5957,31.587886 16.9294,-0.41289 31.17483,7.43351 42.73633,23.53711 11.1487,16.10361 13.83158,32.41318 8.05078,48.92969 -5.7807,16.51652 -4.95388,31.79299 2.47852,45.83203 7.4325,14.03903 19.81971,22.09168 37.16211,24.15625 16.92943,2.47748 29.72919,12.59436 38.40039,30.34961 8.2582,18.16817 8.2582,35.09642 0,50.78711 -8.6712,15.69069 -10.32288,30.7629 -4.95508,45.21485 5.3679,14.86487 16.10343,24.98174 32.20703,30.34961 16.1036,5.36786 26.63289,17.75519 31.58789,37.1621 4.9549,19.40691 2.06578,35.9227 -8.66992,49.54883 -10.7357,13.21321 -14.65993,27.66478 -11.76953,43.35547 2.4775,15.69069 11.35696,27.66558 26.63476,35.92383 15.2777,7.84535 23.53474,21.67823 24.77344,41.49805 1.6517,19.81982 -4.33474,35.5107 -17.96094,47.07226 -13.6261,11.97447 -19.82083,26.63226 -18.58203,43.97461 0.8258,17.34234 8.46607,30.76277 22.91797,40.25977 14.0391,9.49699 21.05859,24.15479 21.05859,43.97461 0,19.81982 -7.01949,34.89201 -21.05859,45.21484 -14.4519,10.32282 -22.09217,24.36194 -22.91797,42.11719 -1.2388,18.16817 4.95593,32.61974 18.58203,43.35547 13.6262,10.73573 19.4063,25.59976 17.3418,44.59375 -1.6517,19.40689 -10.11673,33.65224 -25.39453,42.73634 -15.2777,9.0841 -23.94907,22.2983 -26.01367,39.6406 -2.4775,17.3423 7.02068,30.5546 28.49218,39.6387 h 59.45899 c -22.2973,-1.6516 -32.20787,-12.181 -29.73047,-31.5879 2.8904,-19.4069 12.18235,-33.4461 27.87305,-42.1172 15.6907,-9.0841 24.15377,-23.3294 25.39257,-42.73632 1.2387,-19.40693 -4.74773,-34.68339 -17.96093,-45.83204 -13.6261,-11.14865 -20.02698,-26.42707 -19.20118,-45.83398 0.8259,-18.99399 8.46607,-33.65179 22.91797,-43.97461 14.452,-10.32283 21.67774,-25.39502 21.67774,-45.21484 0,-18.99399 -7.22574,-33.44556 -21.67774,-43.35547 -14.4519,-9.90991 -22.09207,-24.77589 -22.91797,-44.59571 -0.8258,-19.40691 5.57508,-34.88961 19.20118,-46.45117 13.2132,-11.14865 19.19963,-26.22084 17.96093,-45.21484 -1.2388,-19.40691 -9.70187,-33.44602 -25.39257,-42.11719 -15.6907,-8.25826 -25.18889,-22.09114 -28.49219,-41.49805 -3.3033,-19.40691 0.82707,-35.92269 12.38867,-49.54882 11.1486,-13.21321 14.24406,-29.11033 9.28906,-47.69141 -4.955,-18.16817 -15.69053,-30.14305 -32.20703,-35.92383 -16.9294,-6.1937 -28.69613,-18.3748 -35.30273,-36.54297 -6.6066,-18.58108 -5.36926,-35.50933 3.71484,-50.78711 8.6711,-15.27777 9.08553,-31.58929 1.24023,-48.93164 -8.2583,-17.34234 -21.06004,-27.45726 -38.40234,-30.34765 -17.7553,-2.47747 -31.17368,-12.38813 -40.25781,-29.73047 -9.497,-16.92943 -11.35502,-33.65341 -5.57422,-50.16992 5.7807,-16.51652 3.09587,-32.61986 -8.05273,-48.31055 -11.1487,-16.103609 -25.60027,-24.154298 -43.35547,-24.154298 -17.3423,0 -33.03317,-14.659745 -47.07227,-43.976562 C 592.73718,14.86402 534.31023,0 431.08203,0 Z M 449.66211,28.490234 V 47.072266 H 172.18555 c -10.7357,0 -16.10352,-3.097323 -16.10352,-9.291016 0,-6.193694 5.36782,-9.291016 16.10352,-9.291016 z M 269.42578,78.041016 h 65.6543 1.23828 c -11.56157,29.729724 -17.3418,59.459724 -17.3418,89.189454 -11.56156,-2.06457 -22.29907,-2.06457 -32.20898,0 0,-29.72973 -5.78023,-59.45973 -17.3418,-89.189454 z M 24.15625,190.14648 c 58.22072,0 89.39431,16.5158 93.52344,49.54883 4.12913,33.03303 13.00863,49.55078 26.63476,49.55078 v 39.01953 c -19.81982,10e-6 -33.24024,-20.6462 -40.25976,-61.9375 -6.606613,-41.29129 -33.23928,-61.93554 -79.89844,-61.93554 z m 278.71484,8.05079 c 81.75676,0 122.63672,31.79617 122.63672,95.38476 0,56.56907 -17.75511,149.88556 -53.26562,279.95313 -35.51051,130.06757 -53.26563,234.7422 -53.26563,314.02148 0,43.76877 32.00045,101.98937 96.00196,174.66216 H 191.38477 c 63.58859,-72.67279 95.38281,-130.89339 95.38281,-174.66216 0,-79.27928 -17.75512,-183.95391 -53.26563,-314.02148 -35.51051,-130.06757 -53.26562,-223.38406 -53.26562,-279.95313 0,-63.58859 40.878,-95.38476 122.63476,-95.38476 z"
     sodipodi:nodetypes="sssccccccccccscsssscscsccccscscssccccsscccccccsccscscccccsccsssccccsccccccccscscssccsscccccccccscccccssssccssss" />
</svg>
