<?xml version="1.0" encoding="UTF-8" standalone="no"?>
<!-- Created with Inkscape (http://www.inkscape.org/) -->

<svg
   sodipodi:docname="14386.svg"
   inkscape:version="1.4.2 (f4327f4, 2025-05-13)"
   sodipodi:version="0.32"
   id="svg1290"
   height="18.000000px"
   width="18.000000px"
   version="1.1"
   xmlns:inkscape="http://www.inkscape.org/namespaces/inkscape"
   xmlns:sodipodi="http://sodipodi.sourceforge.net/DTD/sodipodi-0.dtd"
   xmlns="http://www.w3.org/2000/svg"
   xmlns:svg="http://www.w3.org/2000/svg"
   xmlns:rdf="http://www.w3.org/1999/02/22-rdf-syntax-ns#"
   xmlns:cc="http://creativecommons.org/ns#"
   xmlns:dc="http://purl.org/dc/elements/1.1/">
  <defs
     id="defs3" />
  <sodipodi:namedview
     inkscape:window-y="7"
     inkscape:window-x="0"
     inkscape:window-height="949"
     inkscape:window-width="1280"
     inkscape:current-layer="layer1"
     inkscape:document-units="px"
     inkscape:cy="9.7068979"
     inkscape:cx="9.0135481"
     inkscape:zoom="15.14387"
     inkscape:pageshadow="2"
     inkscape:pageopacity="0.0"
     borderopacity="1.0"
     bordercolor="#666666"
     pagecolor="#ffffff"
     id="base"
     inkscape:showpageshadow="2"
     inkscape:pagecheckerboard="0"
     inkscape:deskcolor="#d1d1d1"
     inkscape:window-maximized="0" />
  <metadata
     id="metadata4">
    <rdf:RDF>
      <cc:Work
         rdf:about="">
        <dc:format>image/svg+xml</dc:format>
        <dc:type
           rdf:resource="http://purl.org/dc/dcmitype/StillImage" />
        <cc:license
           rdf:resource="http://creativecommons.org/licenses/by/2.0/" />
        <dc:subject>
          <rdf:Bag>
            <rdf:li>JSesh hieroglyph</rdf:li>
          </rdf:Bag>
        </dc:subject>
        <dc:creator>
          <cc:Agent>
            <dc:title>S. Rosmorduc</dc:title>
          </cc:Agent>
        </dc:creator>
        <dc:description>W54 sign
</dc:description>
      </cc:Work>
      <cc:License
         rdf:about="http://creativecommons.org/licenses/by/2.0/">
        <cc:permits
           rdf:resource="http://web.resource.org/cc/Reproduction" />
        <cc:permits
           rdf:resource="http://web.resource.org/cc/Distribution" />
        <cc:requires
           rdf:resource="http://web.resource.org/cc/Notice" />
        <cc:requires
           rdf:resource="http://web.resource.org/cc/Attribution" />
        <cc:permits
           rdf:resource="http://web.resource.org/cc/DerivativeWorks" />
        <cc:requires
           rdf:resource="http://web.resource.org/cc/ShareAlike" />
      </cc:License>
    </rdf:RDF>
  </metadata>
  <g
     id="layer1"
     inkscape:groupmode="layer"
     inkscape:label="Layer 1">
    <path
       style="color:black;fill:black;fill-opacity:1;fill-rule:nonzero;stroke:none;stroke-width:0.60000002;stroke-linecap:butt;stroke-linejoin:miter;marker:none;marker-start:none;marker-mid:none;marker-end:none;stroke-miterlimit:4;stroke-dashoffset:0;stroke-opacity:1;visibility:visible;display:inline;overflow:visible"
       d="M 12.232155,0.003758732 C 11.373854,0.003758732 10.547632,0.032341716 9.9044414,0.34044584 C 9.6102514,0.48137041 9.3637664,0.69212874 9.1798024,0.97086825 L 9.1798024,0.82122946 C 9.1798024,0.61333848 8.5563084,0.61333896 8.5563084,0.82122946 L 8.5563084,1.6982785 C 8.5354604,1.6809153 8.5139054,1.6647373 8.4953434,1.6276158 C 8.3805114,1.397949 8.1988634,1.2583229 8.0672114,1.1980972 C 7.9355594,1.1378721 7.8239844,1.1228997 7.7914874,1.1066515 C 7.6440644,1.0329402 7.458426,1.0135611 7.3010056,1.0456874 C 7.1435853,1.077814 7.0452239,1.1600377 6.9643184,1.2285793 C 6.8025087,1.3656624 6.6822737,1.5106237 6.7495593,1.4433384 C 6.6042172,1.5886814 6.5830364,1.7291963 6.5666673,1.8409895 C 6.550298,1.9527823 6.5594232,2.0602186 6.5666673,2.1471946 C 6.581156,2.3211471 6.6081757,2.4684089 6.6276314,2.5462313 C 6.6260126,2.548587 6.6300584,2.5733941 6.6276314,2.5767132 C 6.6165572,2.575842 6.6090718,2.5780207 6.5971495,2.5767132 C 6.4964739,2.5656705 6.3759887,2.5217694 6.3519082,2.5157493 C 6.1276806,2.4596922 5.890218,2.3763498 5.6785339,2.270508 C 5.5136145,2.1880477 5.3215213,2.1109893 5.0647382,2.1471946 C 4.9363469,2.1652976 4.7916908,2.226145 4.6670871,2.361954 C 4.5424832,2.497763 4.4828097,2.6948071 4.4828097,2.8524364 C 4.4828093,3.227071 4.5865274,3.4880054 4.6670871,3.649124 C 4.740638,3.7962253 4.7945577,3.9026793 4.8513644,4.016293 C 4.7493561,4.0097853 4.6232959,3.9901043 4.6061232,3.985811 C 4.3970656,3.9335466 4.0556498,3.8249851 3.8399176,3.7710518 C 3.6367037,3.7202487 3.3131312,3.8577287 3.1970253,4.016293 C 3.0809196,4.1748564 3.0559532,4.3072954 3.0446156,4.4139442 C 3.02194,4.6272411 3.0386087,4.7584718 3.0750975,4.9044264 C 3.1454288,5.1857504 3.2611359,5.3823166 3.3189533,5.4863548 C 3.1760506,5.4856379 3.0163251,5.4558728 2.9213022,5.4558728 C 2.674721,5.4558725 2.445622,5.526637 2.2784101,5.6387646 C 2.1111978,5.7508916 2.0481555,5.8385374 2.0026868,5.8840058 C 1.8223931,6.0643002 1.807429,6.353244 1.8488915,6.4964162 C 1.8903538,6.6395887 1.9480803,6.7270522 2.0026868,6.8026213 C 2.1118997,6.9537586 2.2668155,7.0972321 2.2479279,7.0783444 C 2.3135244,7.1439407 2.3406659,7.1808232 2.4003378,7.2321398 C 2.2677133,7.2701506 2.1163049,7.2930495 2.0636506,7.3235856 C 1.9818019,7.3710525 2.0030218,7.3540677 2.0026868,7.3540677 C 1.4995862,7.3540677 1.2399888,7.7800786 1.2364811,7.7835861 C 1.1206569,7.8994105 1.0249992,8.0813627 1.0231074,8.2726829 C 1.0212155,8.4640043 1.0999583,8.607158 1.1755172,8.7022019 C 1.3266351,8.8922894 1.4585652,8.9663459 1.5426862,9.008407 C 1.5886595,9.0313938 1.6503186,9.1124928 1.6964816,9.1622026 C 1.5683411,9.1942375 1.4741708,9.2051818 1.3293126,9.2536483 C 1.1844543,9.3021134 1.0278422,9.401323 0.8997941,9.5293714 C 0.8545212,9.5746443 0.8813557,9.5071252 0.6850347,9.6817809 C 0.5868744,9.7691089 0.4959515,9.936704 0.4716611,10.050336 C 0.4473706,10.163967 0.441179,10.235226 0.441179,10.356542 C 0.4411791,10.717263 0.6430064,10.8424 0.7473844,10.938469 C 0.8517622,11.034539 0.9535366,11.11414 0.930276,11.090879 C 1.0472526,11.207856 1.1156191,11.306704 1.2059992,11.397084 C 0.8688643,11.481369 0.6587387,11.670007 0.5021431,11.826603 C 0.4176473,11.911099 0.3198419,11.975479 0.2264199,12.16329 C 0.13299781,12.3511 0.12118061,12.598598 0.16545591,12.7757 C 0.2280959,13.026259 0.3430152,13.05566 0.4093116,13.112387 C 0.475608,13.169114 0.5359522,13.197789 0.593589,13.235699 C 0.6512257,13.273611 0.7104946,13.303727 0.7473844,13.327147 C 0.9316796,13.51144 0.9875599,13.518401 1.0535894,13.541904 C 0.9852715,13.565566 0.9038025,13.600865 0.7778662,13.663834 C 0.6341093,13.735712 0.4791317,13.793702 0.3483477,13.97004 C 0.2175636,14.146375 0.2001851,14.291122 0.16545591,14.430038 C 0.12457321,14.59357 0.10020611,14.727577 0.13497391,14.919136 C 0.16974191,15.110693 0.2969694,15.297275 0.4093116,15.409618 C 0.5430576,15.543363 0.6653023,15.609778 0.7473844,15.65486 C 0.8173955,15.693311 0.8476227,15.727031 0.8693121,15.746305 C 0.7038763,15.823541 0.5141292,15.909349 0.4716611,15.930583 C 0.2180372,16.057395 0.050686106,16.434812 0.072624606,16.664921 C 0.094562906,16.895029 0.1919371,17.025474 0.2264199,17.09444 C 0.3266219,17.294844 0.4668484,17.394436 0.563107,17.461609 C 0.6593657,17.528781 0.7037819,17.5718 0.6850347,17.553054 C 0.787976,17.655994 0.8131094,17.682715 0.8997941,17.798296 C 1.0689458,18.009734 1.3783552,18.043652 1.5897948,17.874501 C 1.8012342,17.705349 1.8351513,17.397324 1.6659996,17.185885 C 1.5953254,17.091653 1.5347491,16.993669 1.3902765,16.849198 C 1.2903043,16.749226 1.2297209,16.698462 1.1755172,16.664921 C 1.2061658,16.64789 1.2793613,16.608824 1.2988307,16.603957 C 1.3710838,16.585893 1.5183169,16.555281 1.6964816,16.451547 C 1.7855639,16.39968 1.9113586,16.331064 2.0026868,16.175823 C 2.0940149,16.020584 2.0905456,15.739132 2.0026868,15.563413 C 1.9354677,15.428975 1.8662999,15.33485 1.7879276,15.255823 C 1.7095554,15.176795 1.636704,15.136467 1.5731682,15.072932 C 1.4411192,14.940882 1.3156695,14.840698 1.2364811,14.797209 C 1.1759253,14.763949 1.1390218,14.756613 1.1145533,14.736243 C 1.115592,14.734186 1.0950826,14.721295 1.1145533,14.643413 C 1.1268099,14.594387 1.1352214,14.582689 1.1450354,14.561666 C 1.1601511,14.549886 1.1648192,14.542076 1.2059992,14.521485 C 1.2340775,14.507445 1.3447193,14.485803 1.4817223,14.430038 C 1.6187255,14.374272 1.8418332,14.291745 1.9722048,14.031003 C 2.0196105,13.936191 2.0716522,13.801052 2.0941326,13.60287 C 2.1166132,13.404688 2.0663384,13.113688 1.8807589,12.92811 C 1.6209903,12.668341 1.4338002,12.604464 1.4512405,12.621904 C 1.3450363,12.515701 1.3129257,12.529158 1.2669631,12.499978 C 1.2540937,12.491806 1.2494069,12.477626 1.2364811,12.469495 C 1.3007293,12.417998 1.4073577,12.357153 1.4512405,12.346182 C 1.6256304,12.302584 2.0215405,12.248895 2.2479279,11.796121 C 2.2847759,11.722425 2.3117098,11.658663 2.3393739,11.55088 C 2.367038,11.443096 2.3761387,11.252279 2.3088919,11.121361 C 2.1743984,10.859524 2.0845014,10.866488 2.0026868,10.784674 C 1.8426135,10.6246 1.7955911,10.577577 1.6355178,10.417505 C 1.5607564,10.342743 1.5223712,10.325729 1.4817223,10.29419 C 1.5320816,10.255959 1.5117536,10.294642 1.5731682,10.233228 C 1.6261749,10.180219 1.6087224,10.181229 1.6355178,10.172264 C 1.662313,10.163298 1.7743562,10.153142 1.9417229,10.1113 C 1.8689994,10.129481 2.0436536,10.113516 2.217446,10.080818 C 2.3043423,10.064468 2.3949359,10.035083 2.5236512,9.9575049 C 2.6523663,9.8799251 2.8298566,9.6656123 2.8298564,9.4365397 C 2.8298565,9.1229594 2.7038614,8.7909651 2.4931692,8.5802742 C 2.4461601,8.5332649 2.2767387,8.4085241 2.1550966,8.304551 C 2.3153083,8.2691269 2.4920569,8.2172376 2.5541331,8.1812373 C 2.5954131,8.1572976 2.6036659,8.1511906 2.6026271,8.1493696 C 2.7278492,8.1468087 2.8569475,8.1188434 3.012748,8.0897913 C 3.0942713,8.0745893 3.1621849,8.0650336 3.2579893,8.0288273 C 3.3058913,8.010724 3.3745088,7.9835202 3.4422666,7.935996 C 3.5100244,7.8884721 3.6107765,7.8147873 3.6570259,7.6297909 C 3.6675366,7.5877484 3.6754704,7.5501161 3.6875079,7.477381 C 3.6995452,7.4046455 3.6977228,7.2560465 3.6570259,7.1406939 C 3.5756319,6.9099891 3.4849035,6.8757398 3.3813027,6.7721392 C 3.2323855,6.6232224 3.1106015,6.5228945 3.012748,6.4354521 C 3.0890287,6.4376589 3.2189807,6.4674318 3.3813027,6.4659342 C 3.4826418,6.4649992 3.5839062,6.4481947 3.6875079,6.4354521 C 3.7393085,6.429081 3.7985994,6.4279225 3.8703996,6.4049703 C 3.9421998,6.3820177 4.086618,6.3729563 4.2084721,6.1292471 C 4.3081857,5.9298202 4.4559764,5.5532311 4.2389542,5.1191859 C 4.1917284,5.0247338 4.1550583,4.9544289 4.1156408,4.8739445 C 4.2017171,4.8954633 4.2945047,4.9183139 4.3608821,4.9349085 C 4.4714129,4.9625409 4.6110074,4.9844284 4.7904005,4.9958724 C 4.8800969,5.0015946 4.9890064,5.0094042 5.0966056,4.9958724 C 5.2042049,4.9823411 5.3238774,4.9833594 5.4942566,4.8129805 C 5.485469,4.8217687 5.655793,4.6904432 5.7699799,4.5067754 C 5.8841659,4.3231074 5.9411009,3.9913661 5.8004619,3.7100879 C 5.7280567,3.5652785 5.6643058,3.4377761 5.5857025,3.2805694 C 5.7562711,3.3487 5.9265365,3.4198141 6.106667,3.4648467 C 6.2059823,3.4896752 6.3789966,3.5415246 6.5666673,3.5562925 C 6.6605028,3.5636765 6.7533075,3.5432405 6.8728726,3.5258106 C 6.9924376,3.5083812 7.1891605,3.5042578 7.3314876,3.2196055 C 7.3412555,3.2000682 7.4025693,3.1312986 7.4852829,2.9743641 C 7.5679964,2.8174307 7.6385224,2.5481666 7.5767284,2.30099 C 7.5640491,2.2502742 7.5528908,2.135522 7.5462467,2.0557489 C 7.5836844,2.0698037 7.6489494,2.1079179 7.6681744,2.1167127 C 7.6797904,2.1220266 7.6734514,2.1167703 7.6751024,2.1167127 C 7.8215744,2.3777601 8.0523724,2.6101037 8.3734164,2.6986411 C 8.4347694,2.7164532 8.4963264,2.7194443 8.5563084,2.713882 L 8.5563084,3.7447265 C 8.5563084,3.9526338 9.1798024,3.9526338 9.1798024,3.7447265 L 9.1798024,3.5756901 C 9.3640824,3.8645927 9.6101034,4.0874917 9.9044414,4.2310523 C 10.545991,4.5439617 11.371614,4.5677394 12.232155,4.5677394 C 13.09511,4.5677399 13.889587,4.5186277 14.529387,4.2005703 C 15.169184,3.882512 15.601797,3.2299502 15.601797,2.270508 C 15.601798,1.293276 15.170813,0.65371433 14.529387,0.34044584 C 13.887961,0.027177262 13.092865,0.003758732 12.232155,0.003758732 z M 12.232155,0.58568707 C 13.071348,0.58568742 13.780298,0.63022125 14.253664,0.86141021 C 14.727028,1.0925995 15.019868,1.4431315 15.019868,2.270508 C 15.019868,3.0767951 14.728656,3.443477 14.253664,3.6796059 C 13.77867,3.9157349 13.069105,3.985811 12.232155,3.985811 C 11.392793,3.985811 10.653406,3.910425 10.180165,3.6796059 C 9.7069254,3.4487872 9.4458264,3.0994835 9.4458264,2.270508 C 9.4458264,1.4205446 9.7085654,1.0873191 10.180165,0.86141021 C 10.651766,0.63550188 11.390553,0.58568707 12.232155,0.58568707 z "
       id="path1380" />
  </g>
</svg>
