<?xml version="1.0" encoding="UTF-8" standalone="no"?>
<svg
   width="1100"
   height="500"
   version="1.1"
   id="svg1"
   sodipodi:docname="1439E.svg"
   inkscape:version="1.4.2 (f4327f4, 2025-05-13)"
   xmlns:inkscape="http://www.inkscape.org/namespaces/inkscape"
   xmlns:sodipodi="http://sodipodi.sourceforge.net/DTD/sodipodi-0.dtd"
   xmlns="http://www.w3.org/2000/svg"
   xmlns:svg="http://www.w3.org/2000/svg">
  <defs
     id="defs1" />
  <sodipodi:namedview
     id="namedview1"
     pagecolor="#ffffff"
     bordercolor="#666666"
     borderopacity="1.0"
     inkscape:showpageshadow="2"
     inkscape:pageopacity="0.0"
     inkscape:pagecheckerboard="0"
     inkscape:deskcolor="#d1d1d1"
     inkscape:zoom="0.67560838"
     inkscape:cx="572.07698"
     inkscape:cy="267.16661"
     inkscape:window-width="1680"
     inkscape:window-height="998"
     inkscape:window-x="-8"
     inkscape:window-y="-8"
     inkscape:window-maximized="1"
     inkscape:current-layer="svg1"
     showguides="true">
    <sodipodi:guide
       position="413.67521,184.1629"
       orientation="1,0"
       id="guide1"
       inkscape:locked="false" />
  </sodipodi:namedview>
  <path
     id="path4"
     style="fill:#000000;stroke:none;stroke-width:0.999999"
     d="M 0.73828125,69.861328 V 296.04102 c 0,98.86602 65.85978775,203.22265 206.46679875,203.22265 137.05967,0 203.16848,-99.15728 206.3457,-195.90039 C 793.6432,337.2155 1022.46,377.66267 1100,424.70117 V 98.40625 C 1022.4682,144.70489 793.69216,184.77746 413.67188,218.625 V 69.861328 h -40 V 136.10156 H 40.738281 V 69.861328 Z M 1064.6055,154.26367 V 368.29102 C 946.25453,329.5781 729.27826,297.8705 413.67578,273.16797 l -0.004,0.0293 v -23.8418 l 0.004,0.0312 C 729.27826,224.68419 946.25453,192.97659 1064.6055,154.26367 Z M 40.738281,166.10156 H 373.67188 v 129.93946 c 0,60.05832 -34.169,163.22265 -166.4668,163.22265 -132.29754,0 -166.466799,-103.16398 -166.466799,-163.22265 z"
     sodipodi:nodetypes="csscccccccccccccccccccsssc" />
</svg>
