<?xml version="1.0" encoding="UTF-8" standalone="no"?>
<svg
   width="700"
   height="700"
   id="svg1917"
   sodipodi:version="0.32"
   inkscape:version="1.4.2 (f4327f4, 2025-05-13)"
   sodipodi:docname="143CC.svg"
   version="1.1"
   xml:space="preserve"
   xmlns:inkscape="http://www.inkscape.org/namespaces/inkscape"
   xmlns:sodipodi="http://sodipodi.sourceforge.net/DTD/sodipodi-0.dtd"
   xmlns="http://www.w3.org/2000/svg"
   xmlns:svg="http://www.w3.org/2000/svg"
   xmlns:rdf="http://www.w3.org/1999/02/22-rdf-syntax-ns#"
   xmlns:cc="http://creativecommons.org/ns#"
   xmlns:dc="http://purl.org/dc/elements/1.1/"><metadata
     id="metadata1924"><rdf:RDF><cc:Work
         rdf:about=""><dc:format>image/svg+xml</dc:format><dc:type
           rdf:resource="http://purl.org/dc/dcmitype/StillImage" /><cc:license
           rdf:resource="http://creativecommons.org/licenses/GPL/2.0/" /><dc:date>6/12/06</dc:date><dc:creator><cc:Agent><dc:title>Serge Thomas</dc:title></cc:Agent></dc:creator><dc:publisher><cc:Agent><dc:title>Serge Rosmorduc</dc:title></cc:Agent></dc:publisher><dc:description>pour exprimer U103 de l'extended library</dc:description></cc:Work><cc:License
         rdf:about="http://creativecommons.org/licenses/GPL/2.0/"><cc:permits
           rdf:resource="http://web.resource.org/cc/Reproduction" /><cc:permits
           rdf:resource="http://web.resource.org/cc/Distribution" /><cc:requires
           rdf:resource="http://web.resource.org/cc/Notice" /><cc:permits
           rdf:resource="http://web.resource.org/cc/DerivativeWorks" /><cc:requires
           rdf:resource="http://web.resource.org/cc/ShareAlike" /><cc:requires
           rdf:resource="http://web.resource.org/cc/SourceCode" /></cc:License></rdf:RDF></metadata><defs
     id="defs1922"><inkscape:path-effect
       effect="mirror_symmetry"
       start_point="400,478.16115"
       end_point="400,766.64593"
       center_point="400,622.40354"
       id="path-effect10"
       is_visible="true"
       lpeversion="1.2"
       lpesatellites=""
       mode="free"
       discard_orig_path="false"
       fuse_paths="true"
       oposite_fuse="false"
       split_items="false"
       split_open="false"
       link_styles="false" /></defs><sodipodi:namedview
     inkscape:window-height="998"
     inkscape:window-width="1680"
     inkscape:pageshadow="2"
     inkscape:pageopacity="0.0"
     guidetolerance="10.0"
     gridtolerance="10.0"
     objecttolerance="10.0"
     borderopacity="1.0"
     bordercolor="#666666"
     pagecolor="#ffffff"
     id="base"
     inkscape:zoom="0.4787"
     inkscape:cx="246.50094"
     inkscape:cy="337.37205"
     inkscape:window-x="-8"
     inkscape:window-y="-8"
     inkscape:current-layer="svg1917"
     inkscape:showpageshadow="2"
     inkscape:pagecheckerboard="0"
     inkscape:deskcolor="#d1d1d1"
     inkscape:window-maximized="1"
     showguides="true" /><path
     id="path9"
     style="baseline-shift:baseline;display:inline;overflow:visible;vector-effect:none;fill:#000000;stroke-miterlimit:2;enable-background:accumulate;stop-color:#000000;stop-opacity:1;opacity:1"
     d="M 350 0 C 156.99645 0 0 156.99645 0 350 C 0 543.00355 156.99645 700 350 700 C 543.00355 700 700 543.00355 700 350 C 700 156.99645 543.00355 0 350 0 z M 350 50 C 427.20865 50 497.50099 78.999404 550.60547 126.72461 C 494.79228 174.10348 423.75737 200.38086 350 200.38086 C 276.24264 200.38086 205.20773 174.10348 149.39453 126.72461 C 202.49901 78.9994 272.79135 50 350 50 z M 573.27539 149.39453 C 621.0006 202.49901 650 272.79135 650 350 C 650 427.20865 621.0006 497.50099 573.27539 550.60547 C 525.89652 494.79228 499.61914 423.75736 499.61914 350 C 499.61914 276.24265 525.89653 205.20773 573.27539 149.39453 z M 125.94531 150.26367 C 172.86067 205.94417 198.86719 276.62509 198.86719 350 C 198.86719 423.3749 172.86067 494.05584 125.94531 549.73633 C 78.683347 496.73521 50 426.78802 50 350 C 50 273.21198 78.683344 203.26479 125.94531 150.26367 z M 188.69531 189.67969 C 237.82503 216.15538 293.1821 230.38086 350 230.38086 C 406.00394 230.38086 460.58863 216.5606 509.18945 190.81055 C 483.4394 239.41137 469.61914 293.99606 469.61914 350 C 469.61914 406.00395 483.4394 460.58863 509.18945 509.18945 C 460.58863 483.4394 406.00394 469.61914 350 469.61914 C 293.1821 469.61914 237.82503 483.84462 188.69531 510.32031 C 214.83164 461.43624 228.86719 406.43851 228.86719 350 C 228.86719 293.56148 214.83164 238.56376 188.69531 189.67969 z M 350 499.61914 C 423.75736 499.61914 494.79228 525.89653 550.60547 573.27539 C 497.50099 621.0006 427.20865 650 350 650 C 272.79135 650 202.49901 621.0006 149.39453 573.27539 C 205.20773 525.89652 276.24264 499.61914 350 499.61914 z " /></svg>
