<?xml version="1.0" encoding="UTF-8" standalone="no"?>
<!-- Created with Inkscape (http://www.inkscape.org/) -->

<svg
   width="16"
   height="16"
   viewBox="0 0 16 16"
   version="1.1"
   id="svg5"
   inkscape:version="1.2.2 (732a01da63, 2022-12-09)"
   sodipodi:docname="1200.svg"
   inkscape:export-filename="..\0000.png"
   inkscape:export-xdpi="96"
   inkscape:export-ydpi="96"
   xmlns:inkscape="http://www.inkscape.org/namespaces/inkscape"
   xmlns:sodipodi="http://sodipodi.sourceforge.net/DTD/sodipodi-0.dtd"
   xmlns="http://www.w3.org/2000/svg"
   xmlns:svg="http://www.w3.org/2000/svg">
  <sodipodi:namedview
     id="namedview7"
     pagecolor="#ffffff"
     bordercolor="#666666"
     borderopacity="1.0"
     inkscape:pageshadow="2"
     inkscape:pageopacity="0"
     inkscape:pagecheckerboard="0"
     inkscape:document-units="px"
     showgrid="true"
     width="16mm"
     units="px"
     inkscape:zoom="33.322407"
     inkscape:cx="14.449736"
     inkscape:cy="4.6815346"
     inkscape:window-width="1680"
     inkscape:window-height="998"
     inkscape:window-x="-8"
     inkscape:window-y="-8"
     inkscape:window-maximized="1"
     inkscape:current-layer="layer1"
     showguides="true"
     inkscape:guide-bbox="true"
     inkscape:snap-bbox="true"
     inkscape:bbox-paths="true"
     inkscape:bbox-nodes="true"
     inkscape:snap-global="true"
     inkscape:showpageshadow="2"
     inkscape:deskcolor="#ffffff">
    <inkscape:grid
       type="xygrid"
       id="grid828"
       originx="0"
       originy="0" />
  </sodipodi:namedview>
  <defs
     id="defs2" />
  <g
     inkscape:label="Layer 1"
     inkscape:groupmode="layer"
     id="layer1">
    <path
       d="m 3.0938478,9.9633119 q 0.032503,0.1625171 0.032503,0.3737881 0,0.552557 -0.3494107,0.942597 -0.3494109,0.39004 -0.9994766,0.39004 -0.6500668,0 -1.0076035,-0.260027 0.552557,-0.455046 0.552557,-1.348887 0,-0.4550471 -0.1300135,-0.9100941 H 5.0440452 Q 4.3127223,8.3869014 3.817047,7.4768084 3.3213717,6.5667155 3.3213717,5.3965964 q 0,-1.6739207 0.9019669,-2.5352586 Q 5.1253055,2 6.9129872,2 q 1.2838817,0 1.9989542,0.5606823 0.7150733,0.560682 0.7150733,1.5032782 0,0.942596 -0.560682,1.5276557 -1.0015251,1.0450743 -3.8110138,1.3651391 0.5002303,1.0317431 1.77143,2.1939736 h 2.3889947 q 1.5276564,0 1.5276564,1.3651401 v 0.178768 h 3.62412 q -0.130015,0.455046 -0.130015,0.910092 0,0.893842 0.552557,1.348889 -0.357535,0.260025 -0.999477,0.260025 -0.641941,0 -0.999477,-0.39004 -0.357535,-0.390038 -0.357535,-0.942595 0,-0.211271 0.0325,-0.373789 h -1.722676 v 0.698823 q 0,0.536303 0.211271,0.723197 0.211273,0.186896 0.650067,0.186896 v 0.617562 L 9.7245241,13.879961 Q 9.4157436,13.408664 9.4157436,12.287299 v -1.446398 q 0,-0.471296 -0.2112722,-0.674443 Q 8.9932001,9.9633119 8.5056499,9.9633119 Z M 4.97904,6.2091793 Q 6.3766831,6.1279213 7.2461461,5.6484971 8.11561,5.1690732 8.11561,4.0314572 8.11561,3.3976425 7.7174444,3.0644836 7.3192788,2.7313245 6.7017159,2.7313245 q -0.9588476,0 -1.42202,0.6175632 -0.4631723,0.6175629 -0.4631723,1.4870266 0,0.8694636 0.1625164,1.373265 z"
       id="path30841"
       style="fill:#784421;stroke-width:0.999996" />
  </g>
</svg>
