<?xml version="1.0" encoding="UTF-8" standalone="no"?>
<!-- Created with Inkscape (http://www.inkscape.org/) -->

<svg
   width="16"
   height="16"
   viewBox="0 0 16 16"
   version="1.1"
   id="svg5"
   inkscape:version="1.2.2 (732a01da63, 2022-12-09)"
   sodipodi:docname="1E900.svg"
   inkscape:export-filename="..\0000.png"
   inkscape:export-xdpi="96"
   inkscape:export-ydpi="96"
   xml:space="preserve"
   xmlns:inkscape="http://www.inkscape.org/namespaces/inkscape"
   xmlns:sodipodi="http://sodipodi.sourceforge.net/DTD/sodipodi-0.dtd"
   xmlns="http://www.w3.org/2000/svg"
   xmlns:svg="http://www.w3.org/2000/svg"><sodipodi:namedview
     id="namedview7"
     pagecolor="#ffffff"
     bordercolor="#666666"
     borderopacity="1.0"
     inkscape:pageshadow="2"
     inkscape:pageopacity="0"
     inkscape:pagecheckerboard="0"
     inkscape:document-units="px"
     showgrid="true"
     width="16mm"
     units="px"
     inkscape:zoom="33.322407"
     inkscape:cx="10.608477"
     inkscape:cy="8.462774"
     inkscape:window-width="1680"
     inkscape:window-height="998"
     inkscape:window-x="-8"
     inkscape:window-y="-8"
     inkscape:window-maximized="1"
     inkscape:current-layer="layer1"
     showguides="true"
     inkscape:guide-bbox="true"
     inkscape:snap-bbox="true"
     inkscape:bbox-paths="true"
     inkscape:bbox-nodes="true"
     inkscape:snap-global="true"
     inkscape:showpageshadow="2"
     inkscape:deskcolor="#ffffff"><inkscape:grid
       type="xygrid"
       id="grid828"
       originx="0"
       originy="0" /></sodipodi:namedview><defs
     id="defs2" /><g
     inkscape:label="Layer 1"
     inkscape:groupmode="layer"
     id="layer1"><path
       fill="currentColor"
       d="M 10,12.686274 C 10,14.485198 9.5220873,15 7.7804879,15 H 2 v -1.549021 h 5.2454269 c 0.6743214,0 0.9710364,-0.205804 0.9710364,-1.137255 V 4.2156856 c 0,-1.6483411 -0.9353327,-1.9019606 -1.9344501,-1.9019606 -0.5934856,0 -1.689421,0.1538183 -2.4984766,1.4117646 V 7.666666 H 2 V 3.3333328 C 2.8269169,1.8333327 4.0310715,0.76470545 6.4009158,0.76470545 9.0100711,0.76470545 10,1.8478289 10,4.2156856 v 3.2549019 h 0.05945 c 0.869263,-0.9460785 2.711901,-2.0855569 3.028202,-2.8559314 0.08587,-0.2091568 0.12881,-0.4771178 0.12881,-0.8039217 V 0.9999995 H 15 V 15 H 13.216463 V 6.7715188 l -0.03964,-0.019608 c -0.634781,0.6280822 -2.824459,2.0190746 -3.077741,2.8461274 -0.06605,0.2156864 -0.09909,0.4934698 -0.09909,0.8333338 z"
       id="path1087"
       style="fill:#784421;fill-opacity:1;stroke-width:1"
       sodipodi:nodetypes="csccssssccccsscccsccccccccc" /></g></svg>
