<?xml version="1.0" encoding="UTF-8" standalone="no"?>
<svg
   version="1.1"
   viewBox="0 0 36 36"
   id="svg5"
   sodipodi:docname="1f1f5-1f1e6.svg"
   inkscape:version="1.4-beta3 (01c8a1c, 2024-08-28, custom)"
   xmlns:inkscape="http://www.inkscape.org/namespaces/inkscape"
   xmlns:sodipodi="http://sodipodi.sourceforge.net/DTD/sodipodi-0.dtd"
   xmlns="http://www.w3.org/2000/svg"
   xmlns:svg="http://www.w3.org/2000/svg">
  <defs
     id="defs5" />
  <sodipodi:namedview
     id="namedview5"
     pagecolor="#ffffff"
     bordercolor="#666666"
     borderopacity="1.0"
     inkscape:showpageshadow="2"
     inkscape:pageopacity="0.0"
     inkscape:pagecheckerboard="0"
     inkscape:deskcolor="#d1d1d1"
     inkscape:zoom="29.659201"
     inkscape:cx="9.4237198"
     inkscape:cy="24.933241"
     inkscape:window-width="1680"
     inkscape:window-height="998"
     inkscape:window-x="-8"
     inkscape:window-y="-8"
     inkscape:window-maximized="1"
     inkscape:current-layer="svg5" />
  <path
     id="rect1-2"
     style="fill:#ffffff;stroke:#77767b;stroke-width:0.2"
     d="M 4.0000001,5.0999999 H 18.1 L 35.899999,17.9 l 0,9.099999 c 0,2.1606 -1.7394,3.9 -3.9,3.9 L 17.9,30.899999 0.1,18.1 V 9 C 0.1,6.8393999 1.8394,5.0999999 4.0000001,5.0999999 Z"
     sodipodi:nodetypes="sccssccss" />
  <path
     d="m18 18v13h-14c-2.21 0-4-1.79-4-4v-9h18z"
     fill="#005293"
     id="path2" />
  <path
     d="M18 18V5h14c2.209 0 4 1.791 4 4v9H18z"
     fill="#D21034"
     id="path3" />
  <path
     d="m9.67 10.6-0.674-2.07-0.674 2.07h-2.18l1.76 1.28-0.673 2.07 1.76-1.28 1.76 1.28-0.673-2.07 1.76-1.28z"
     fill="#005293"
     id="path4" />
  <path
     d="m25.9 24.9-0.673 2.07 1.76-1.28 1.76 1.28-0.673-2.07 1.76-1.28h-2.18l-0.674-2.07-0.674 2.07h-2.18z"
     fill="#D21034"
     id="path5" />
</svg>
