<?xml version="1.0" encoding="UTF-8" standalone="no"?>
<svg
   viewBox="0 0 36 36"
   version="1.1"
   id="svg8"
   sodipodi:docname="1f1f5-1f1f9.svg"
   inkscape:version="1.4-beta3 (01c8a1c, 2024-08-28, custom)"
   xmlns:inkscape="http://www.inkscape.org/namespaces/inkscape"
   xmlns:sodipodi="http://sodipodi.sourceforge.net/DTD/sodipodi-0.dtd"
   xmlns="http://www.w3.org/2000/svg"
   xmlns:svg="http://www.w3.org/2000/svg">
  <defs
     id="defs8" />
  <sodipodi:namedview
     id="namedview8"
     pagecolor="#ffffff"
     bordercolor="#666666"
     borderopacity="1.0"
     inkscape:showpageshadow="2"
     inkscape:pageopacity="0.0"
     inkscape:pagecheckerboard="0"
     inkscape:deskcolor="#d1d1d1"
     inkscape:zoom="29.659201"
     inkscape:cx="15.593812"
     inkscape:cy="19.235178"
     inkscape:window-width="1680"
     inkscape:window-height="998"
     inkscape:window-x="-8"
     inkscape:window-y="-8"
     inkscape:window-maximized="1"
     inkscape:current-layer="svg8" />
  <path
     fill="#006600"
     d="m 19,28 -4,3 H 4 C 1.791,31 0,29.209 0,27 V 9 C 0,6.791 1.791,5 4,5 h 11 l 4,3 z"
     id="path1"
     sodipodi:nodetypes="ccssssccc" />
  <path
     fill="#D52B1E"
     d="M32 5H15v26h17c2.209 0 4-1.791 4-4V9c0-2.209-1.791-4-4-4z"
     id="path2" />
  <path
     fill="#FFCC4D"
     d="M15 10c-4.419 0-8 3.581-8 8 0 4.418 3.581 8 8 8 4.418 0 8-3.582 8-8 0-4.419-3.582-8-8-8zm-6.113 4.594l1.602 1.602-2.46 1.23c.083-1.022.383-1.981.858-2.832zm-.858 3.979l4.4 2.207-2.706 1.804.014.021c-.96-1.097-1.583-2.492-1.708-4.032zM14 24.92c-.937-.134-1.813-.453-2.592-.92H14v.92zM14 23h-3.099L14 20.934V23zm0-3.268l-.607.405L9.118 18l2.116-1.058L14 19.707v.025zm0-1.439l-3.543-3.543 3.543.59v2.953zm0-3.992l-4.432-.713c1.084-1.333 2.65-2.253 4.432-2.508v3.221zm7.113.293c.475.851.775 1.81.858 2.833l-2.46-1.23 1.602-1.603zM16 11.08c1.782.256 3.348 1.175 4.432 2.508L16 14.301V11.08zm0 4.26l3.543-.591L16 18.293V15.34zm0 4.367l2.765-2.765L20.882 18l-4.274 2.137-.608-.405v-.025zm0 5.213V24h2.592c-.779.467-1.655.786-2.592.92zM16 23v-2.066L19.099 23H16zm4.264-.395l.014-.021-2.706-1.804 4.4-2.207c-.126 1.54-.749 2.935-1.708 4.032z"
     id="path3" />
  <path
     fill="#D52B1E"
     d="M11 13v7c0 2.209 1.791 4 4 4s4-1.791 4-4v-7h-8z"
     id="path4" />
  <path
     fill="#FFF"
     d="M12 14v6c0 1.656 1.343 3 3 3s3-1.344 3-3v-6h-6z"
     id="path5" />
  <path
     fill="#829ACD"
     d="M13 17h4v2h-4z"
     id="path6" />
  <path
     fill="#829ACD"
     d="M14 16h2v4h-2z"
     id="path7" />
  <path
     fill="#039"
     d="M12 17h1v2h-1zm2 0h2v2h-2zm3 0h1v2h-1zm-3 3h2v2h-2zm0-6h2v2h-2z"
     id="path8" />
</svg>
