<?xml version="1.0" encoding="UTF-8"?>
<!-- Generator: Adobe Illustrator 24.0.3, SVG Export Plug-In . SVG Version: 6.00 Build 0)  -->
<svg enable-background="new 0 0 128 128" version="1.1" viewBox="0 0 128 128" xml:space="preserve" xmlns="http://www.w3.org/2000/svg"><defs>
	

		
		
			<radialGradient id="SVGID_2_" cx="31.241" cy="113.13" r="17.651" gradientTransform="matrix(1,0,0,-1,0,128)" gradientUnits="userSpaceOnUse">
			<stop stop-color="#FFA726" offset=".2092"/>
			<stop stop-color="#B33F00" offset=".7917"/>
		</radialGradient>
		
		
	
			
		
				
				
				
			
					
					
					
				
						
						
						
					
						
						
						
					
						
						
						
					</defs>
<linearGradient id="body_1_" x1="60.452" x2="71.336" y1="44.724" y2="73.468" gradientTransform="matrix(1 0 0 -1 0 128)" gradientUnits="userSpaceOnUse">
	<stop stop-color="#FFB300" offset="0"/>
	<stop stop-color="#FFCA28" offset=".5"/>
</linearGradient>
<path id="body" d="m109.07 91.34c-0.09 0.12-10.18 11.85-10.18 11.85l-7.23-5.65 5.12-7.68 0.41-0.62s-0.36-0.15-0.97-0.4c-2.33-0.94-8.28-3.3-10.97-3.93-3.5-0.82-4.35 1.14-5.61 4.24-2.73 6.69-6.25 16.3-6.25 16.3-12.53-1.42-25.42-3.77-38.02-4.32 4.24-6.87 9.39-22.16 10.14-24.15 1.36-3.59-1.52-4.22-6.26-5.56-3.47-0.98-7.74-2.08-11.76-3.74-5.25-2.17-5.24-7.69-4.25-10.5 2.09-5.95 8.86-15.24 9.2-16.1 1.13-2.9-2.37-2.9-4.25-7.06-0.81-1.81-0.02-3.47 1-5.17 1.25-2.08 3.77-3.01 6.17-3.38 2.42-0.36 4.97-0.29 7.19 0.72 0.47 0.22 1.1 0.42 1.5 0.77 0.36 0.33 0.41 0.71 0.87 0.91 0.58 0.25 1.17-0.05 1.77 0.35 0.46 0.31 0.8 0.81 0.95 1.33 0.27 0.87 0.87 1.52 0.6 2.38-0.83 2.67-3.04 4.72-4.6 7.62-0.97 1.79-1.66 3.72-2.47 5.59-1.43 3.3-3.02 6.63-4.12 10.07-0.08 0.24-0.16 0.48-0.23 0.72 0 0 0.24 0.06 0.67 0.16 2.71 0.67 13.06 3.17 20 4.92 7.36 1.85 13.93 3.5 20.88 6.12 19.72 7.46 25.23 11.18 28.08 12.8 4.04 2.29 6.21 6.75 2.62 11.41z" fill="url(#body_1_)"/>
<g id="swimsuit">
	
		<linearGradient id="SVGID_1_" x1="75.23" x2="57.648" y1="80.299" y2="27.136" gradientTransform="matrix(1 0 0 -1 0 128)" gradientUnits="userSpaceOnUse">
		<stop stop-color="#FFA000" offset="0"/>
		<stop stop-color="#FF9300" offset=".3413"/>
		<stop stop-color="#FF7100" offset=".9717"/>
		<stop stop-color="#FF6F00" offset="1"/>
	</linearGradient>
	<path d="m106.45 79.93c-2.85-1.62-8.36-5.33-28.08-12.79-6.94-2.62-13.51-4.27-20.88-6.12-8.04-2.03-20.67-5.06-20.67-5.08 0.87-2.9 2.11-5.72 3.35-8.51-0.76-0.01-1.52-0.06-2.28-0.19-2.77-0.47-5.22-1.69-7.19-3.41-2.24 3.4-5.99 9.19-7.45 13.36-0.99 2.82-1 8.33 4.25 10.5 4.02 1.66 8.29 2.76 11.76 3.74 4.74 1.34 7.62 1.97 6.26 5.56-0.75 1.99-5.89 17.28-10.14 24.15 12.61 0.55 25.49 2.89 38.03 4.32 0 0 3.95-9.35 7.1-15.86 1.54-3.19 2.67-5.49 6.07-4.32 3.09 1.06 10.64 3.97 10.63 3.97l-5.53 8.3 7.23 5.65s10.09-11.72 10.18-11.85c3.57-4.67 1.4-9.13-2.64-11.42z" fill="url(#SVGID_1_)"/>
</g>
<path id="water_x5F_top_1_" d="m111.99 92.18c-6.57 0-9.93 7.19-16 7.19-6.06 0-9.43-7.19-16-7.19s-9.93 7.19-16 7.19-9.43-7.19-16-7.19-9.94 7.19-16 7.19-9.43-7.19-16-7.19c-4.98 0-8.13 4.12-12 6.12v25.69h119.98v-25.68c-3.85-2-7-6.13-11.98-6.13z" fill="#039BE5"/>
<path id="water_x5F_bottom_1_" d="m111.98 111.9c-6.57 0-9.94-7.19-16-7.19s-9.43 7.19-16 7.19-9.94-7.19-16-7.19-9.43 7.19-16 7.19-9.94-7.19-16-7.19-9.43 7.19-16 7.19c-4.97 0-8.11-4.11-11.97-6.11v18.2h119.98v-18.21c-3.86 2-7.04 6.12-12.01 6.12z" fill="#29B6F6"/>
<path id="swimsuit_x5F_shadow_1_" d="m37.49 56.09-4.64 2.58c-0.04 0.02-0.09 0.01-0.12-0.03-0.02-0.04-0.01-0.09 0.03-0.11l4.29-3.32c-0.08 0.24-0.16 0.48-0.23 0.72 0 0 0.24 0.06 0.67 0.16z" fill="#E66400"/>
<path id="neck_1_" d="m66.8 72.58c-2.82-0.55-4.66-3.29-4.11-6.11l0.92-4.69 10.22 2-0.92 4.69c-0.55 2.82-3.29 4.66-6.11 4.11z" fill="#E59600"/>
<circle cx="35.93" cy="20.01" r="16" fill="#ff9100"/><circle cx="35.93" cy="20.01" r="16" enable-background="new" fill="url(#SVGID_2_)" opacity=".4"/><path d="m30.49 5.0059a16 16 0 0 0-0.9668 0.35938c-2.4251 5.5093-2.2876 12.075 0.95312 17.687v0.001954l0.001954 0.001953c0.26506 0.46869 0.54224 0.90776 0.83789 1.3359l0.64648-0.44531c-0.28354-0.41064-0.54651-0.83139-0.80078-1.2812v-0.001954h-0.001953c-3.2433-5.6146-3.252-12.216-0.61719-17.633l-0.052735-0.025391z" color="#000000" fill="#795548" style="-inkscape-stroke:none"/><path d="m24.523 8.8477a16 16 0 0 0-1.5469 1.8359c-1.6138 5.0722-1.1713 10.773 1.6934 15.742h-0.001953c0.1635 0.28613 0.33917 0.57224 0.52539 0.85156l0.6543-0.43555c-0.17378-0.26067-0.3396-0.53277-0.49609-0.80664v-0.001953c-3.1509-5.4656-3.2492-11.842-0.82812-17.186z" color="#000000" fill="#6d4c41" style="-inkscape-stroke:none"/><path d="m35.604 19.775c-1.4787 1.9879-3.3774 3.7106-5.6602 5.0234-2.61 1.4996-5.4191 2.3062-8.2266 2.4805a16 16 0 0 0 0.41602 0.76172c2.8031-0.22748 5.6011-1.0656 8.2031-2.5605 2.3772-1.3672 4.3591-3.1642 5.9004-5.2363l-0.63281-0.46875z" fill="#4e342e"/><path d="m35.99 7.0664c-0.33795 0-0.67525 0.010709-1.0039 0.03125l0.048828 0.78516c0.31134-0.019459 0.63303-0.029297 0.95508-0.029297 6.3599 0 11.968 3.1532 15.367 7.9824l0.011719-0.007813a16 16 0 0 0-0.78125-2.2246c-3.5831-4.0117-8.7946-6.5371-14.598-6.5371z" color="#000000" fill="#5d4037" style="-inkscape-stroke:none"/><path d="m35.99 13.777c-0.53009 0-1.0501 0.019747-1.5703 0.060547l0.060547 0.78516c0.49981-0.0392 0.99985-0.060547 1.5098-0.060547 6.4873 0 12.205 3.2822 15.574 8.2871l0.09375-0.064453a16 16 0 0 0 0.14258-0.9668c-3.5546-4.8801-9.3168-8.041-15.811-8.041z" color="#000000" fill="#5d4037" style="-inkscape-stroke:none"/><path d="m35.93 4.0098a16 16 0 0 0-0.044922 0.0039063c-1.222 2.5522-1.9082 5.4145-1.9082 8.4355 0 2.7436 0.56114 5.3581 1.582 7.7266l0.72266-0.31055c-0.97911-2.2715-1.5176-4.7796-1.5176-7.416 0-3.0298 0.71894-5.8889 1.9902-8.418a16 16 0 0 0-0.82422-0.021484z" color="#000000" fill="#6d4c41" style="-inkscape-stroke:none"/><path d="m46.861 25.318c-0.15 0.29-0.29629 0.57314-0.45703 0.83789l-0.001953 0.003906-0.003906 0.003906c-3.1505 5.4648-8.6314 8.7343-14.459 9.3105a16 16 0 0 0 2.3613 0.41992c5.1932-1.1389 9.9149-4.3694 12.779-9.3379 0.17727-0.29274 0.32982-0.58752 0.47852-0.875l-0.69727-0.36328z" color="#000000" fill="#3e2723" style="-inkscape-stroke:none"/><path d="m35.947 19.619-0.09375 0.78125c2.4587 0.29387 4.907 1.0779 7.1797 2.3906 2.6213 1.5115 4.745 3.5743 6.3027 5.9414a16 16 0 0 0 0.43555-0.76758c-1.6004-2.3262-3.738-4.3526-6.3438-5.8555h-0.001953c-2.3668-1.3668-4.9178-2.1842-7.4785-2.4902z" color="#000000" fill="#4e342e" style="-inkscape-stroke:none"/><path d="m41.295 21.471c-0.216 0.45163-0.45071 0.90155-0.70508 1.3418-3.2436 5.615-8.9431 8.9245-14.957 9.3457l0.00586 0.082031a16 16 0 0 0 0.83789 0.62891c5.9721-0.66248 11.561-4.0634 14.795-9.6621 0.26564-0.45975 0.51037-0.92811 0.73438-1.3965l-0.71094-0.33984z" color="#000000" fill="#4e342e" style="-inkscape-stroke:none"/>
					
				
<path id="swimsuit_x5F_shadow" d="m101.44 85.65c0.02 0.02 0.01 0.04-0.01 0.06l-4.65 4.15 0.41-0.62s-0.36-0.15-0.97-0.4l5.15-3.21c0.03-0.01 0.06-0.01 0.07 0.02z" fill="#E66400"/>
<path id="head" d="m76.44 25.19c-8.38-1.65-17.91 5.8-20.44 18.71-2.52 12.84 4.24 20.75 12.39 22.35s17.4-3.18 19.91-16.02c2.54-12.91-3.47-23.4-11.86-25.04z" fill="#FFCA28"/>
<g id="eyebrows" fill="#6D4C41">
	<path d="m68.49 43.99c-0.32-0.68-1.17-1.74-3.16-2.15s-3.19 0.23-3.76 0.73c-0.25 0.22-0.26 0.53-0.16 0.74 0.09 0.19 0.43 0.43 0.87 0.37s1.33-0.31 2.68-0.04c1.34 0.29 2.06 0.87 2.44 1.09s0.79 0.15 0.95 0c0.17-0.15 0.28-0.44 0.14-0.74z"/>
	<path d="m84.03 47.2c-0.32-0.68-1.17-1.74-3.16-2.15s-3.19 0.23-3.76 0.73c-0.25 0.22-0.26 0.53-0.16 0.74 0.09 0.19 0.43 0.43 0.87 0.37s1.33-0.31 2.68-0.04c1.34 0.29 2.06 0.87 2.44 1.09s0.79 0.15 0.95 0c0.17-0.15 0.28-0.44 0.14-0.74z"/>
</g>
<g id="eyes" fill="#404040">
	
		<ellipse transform="matrix(.1924 -.9813 .9813 .1924 4.8676 101.13)" cx="63.88" cy="47.61" rx="2.51" ry="2.42"/>
	
		<ellipse transform="matrix(.1924 -.9813 .9813 .1924 14.611 119.18)" cx="79.72" cy="50.72" rx="2.51" ry="2.42"/>
</g>
<path id="mouth" d="m73.66 58.85c-1.71 0.61-6.75-0.38-8.1-1.59-0.78-0.7-1.84-0.07-1.63 0.8 0.21 0.86 2.59 3.22 4.97 3.69s5.44-0.83 5.96-1.55c0.52-0.73-0.21-1.71-1.2-1.35z" fill="#795548"/>
<path id="nose" d="m72.48 53.81c-0.05-0.03-0.1-0.05-0.15-0.07l-3.41-0.67c-0.05 0-0.11 0-0.16 0.01-0.33 0.06-0.57 0.35-0.49 0.72s0.57 1.46 1.94 1.73 2.23-0.56 2.45-0.87c0.21-0.31 0.1-0.66-0.18-0.85z" fill="#E59600"/>
<g id="swimming_x5F_cap">
	
		<radialGradient id="SVGID_5_" cx="77.256" cy="103.22" r="19.773" gradientTransform="matrix(1 0 0 -1 0 128)" gradientUnits="userSpaceOnUse">
		<stop stop-color="#FB8C00" offset="0"/>
		<stop stop-color="#EF6C00" offset="1"/>
	</radialGradient>
	<path d="m90.91 51.76c0.41 0.68 0.6 1.35-0.43 3.32-2.11 4.04-5.75 4.76-5.9 4.79-0.03 0.01-0.06 0.01-0.09 0.01-0.16 0-0.31-0.07-0.4-0.2-0.12-0.16-0.13-0.36-0.04-0.53 0.03-0.07 3.37-6.53 0.81-12.21-1.66-3.68-5.42-6.26-11.17-7.66-5.42-1.33-9.67-0.77-12.61 1.67-5 4.14-4.64 12.35-4.64 12.43 0.01 0.18-0.07 0.35-0.22 0.45-0.15 0.09-0.34 0.11-0.49 0.03-0.16-0.08-3.82-1.91-3.06-8.09 0.17-1.42 0.51-2.01 0.9-2.34 0.12-0.11 0.26-0.19 0.39-0.27 0.17-0.09 0.2-0.11 0.21-0.35v-0.1c0.19-7.7 3.33-14.63 8.38-18.53 4.21-3.24 9.56-4.22 15.48-2.83 5.57 1.32 9.62 4.19 12.03 8.54 4.4 7.95 1.72 17.5 0.79 20.24-0.08 0.22-0.12 0.4-0.15 0.56h-0.01c-0.1 0.55 0.03 0.77 0.19 1.03 0.01 0.01 0.02 0.03 0.02 0.04h0.01z" fill="url(#SVGID_5_)"/>
	<path d="m55.77 48.51s-0.35-1.73-0.87-3.11c-0.43-1.12-1.08-1.76-1.33-1.97 0.12-0.11 0.26-0.19 0.39-0.27 0.17-0.09 0.2-0.11 0.21-0.35 0.17 0.08 0.8 0.43 1.49 1.74 0.7 1.34 0.11 3.96 0.11 3.96z" fill="#DB6300"/>
	<path d="m90.9 51.76c-0.21 0-0.79 0.09-1.73 0.8-1.17 0.89-2.62 2.92-2.62 2.92s0.46-2.83 2.41-4.02c0.91-0.56 1.5-0.72 1.73-0.77-0.1 0.55 0.03 0.77 0.19 1.03 0.01 0.01 0.02 0.03 0.02 0.04z" fill="#DB6300"/>
</g>
<linearGradient id="hand_2_" x1="222.61" x2="222.3" y1="-1980" y2="-1991.1" gradientTransform="matrix(.7216 .5127 .5792 -.8152 1083.6 -1632.5)" gradientUnits="userSpaceOnUse">
	<stop stop-color="#FFCA28" offset=".5"/>
	<stop stop-color="#FFB300" offset="1"/>
</linearGradient>
<path id="hand_1_" d="m91.86 105.58-2.1-1.49c-2.67-1.9-3.3-5.63-1.4-8.3l0.26-0.37c1.9-2.67 5.63-3.3 8.3-1.4l2.1 1.49c2.67 1.9 3.3 5.63 1.4 8.3l-0.26 0.37c-1.9 2.66-5.63 3.29-8.3 1.4z" fill="url(#hand_2_)"/>
</svg>
