<?xml version="1.0" encoding="UTF-8" standalone="no"?>
<svg
   enable-background="new 0 0 128 128"
   viewBox="0 0 128 128"
   version="1.1"
   id="svg540"
   sodipodi:docname="emoji_u1f469_200d_2708.svg"
   inkscape:version="1.2.2 (732a01da63, 2022-12-09)"
   xmlns:inkscape="http://www.inkscape.org/namespaces/inkscape"
   xmlns:sodipodi="http://sodipodi.sourceforge.net/DTD/sodipodi-0.dtd"
   xmlns="http://www.w3.org/2000/svg"
   xmlns:svg="http://www.w3.org/2000/svg">
  <defs
     id="defs544" />
  <sodipodi:namedview
     id="namedview542"
     pagecolor="#ffffff"
     bordercolor="#666666"
     borderopacity="1.0"
     inkscape:showpageshadow="2"
     inkscape:pageopacity="0.0"
     inkscape:pagecheckerboard="0"
     inkscape:deskcolor="#d1d1d1"
     showgrid="false"
     inkscape:zoom="1.84375"
     inkscape:cx="46.644068"
     inkscape:cy="64"
     inkscape:window-width="1680"
     inkscape:window-height="998"
     inkscape:window-x="-8"
     inkscape:window-y="-8"
     inkscape:window-maximized="1"
     inkscape:current-layer="svg540" />
  <radialGradient
     id="a"
     cx="64"
     cy="57.65"
     gradientTransform="matrix(1 0 0 1.1901 0 -9.12)"
     gradientUnits="userSpaceOnUse"
     r="46.96">
    <stop
       offset=".7936"
       stop-color="#6d4c41"
       stop-opacity="0"
       id="stop426" />
    <stop
       offset="1"
       stop-color="#6d4c41"
       id="stop428" />
  </radialGradient>
  <radialGradient
     id="b"
     cx="64.61"
     cy="121.18"
     gradientTransform="matrix(1 0 0 .5476 0 57.65)"
     gradientUnits="userSpaceOnUse"
     r="52.5">
    <stop
       offset=".7824"
       stop-color="#212121"
       id="stop431" />
    <stop
       offset="1"
       stop-color="#616161"
       id="stop433" />
  </radialGradient>
  <radialGradient
     id="c"
     cx="64.33"
     cy="60.77"
     gradientTransform="matrix(1 0 0 1.2135 0 -11.15)"
     gradientUnits="userSpaceOnUse"
     r="49.61">
    <stop
       offset=".7945"
       stop-color="#6d4c41"
       stop-opacity="0"
       id="stop436" />
    <stop
       offset="1"
       stop-color="#6d4c41"
       id="stop438" />
  </radialGradient>
  <linearGradient
     id="d"
     gradientUnits="userSpaceOnUse"
     x1="64.06"
     x2="64.06"
     y1="27.85"
     y2="44.98">
    <stop
       offset=".004"
       stop-color="#666"
       id="stop441" />
    <stop
       offset=".0797"
       stop-color="#606060"
       id="stop443" />
    <stop
       offset=".5459"
       stop-color="#3f3f3f"
       id="stop445" />
    <stop
       offset=".8021"
       stop-color="#333"
       id="stop447" />
  </linearGradient>
  <radialGradient
     id="f"
     cx="64.29"
     cy="34.02"
     gradientTransform="matrix(1 0 0 .6655 0 13.88)"
     gradientUnits="userSpaceOnUse"
     r="52.01">
    <stop
       offset=".6313"
       stop-color="#212121"
       stop-opacity="0"
       id="stop453" />
    <stop
       offset=".9176"
       stop-color="#bfbebe"
       id="stop455" />
  </radialGradient>
  <path
     d="m64.57 4.87c-41.01 0-40.68 35.92-40.68 36.52 0 24.56 1.88 59.25 11.71 72.9 3.9 5.41 11.43 5.71 11.43 5.71l16.97-.03 16.97.03s7.38-.41 11.43-5.71c11.42-14.94 11.71-48.34 11.71-72.9-.01-.6 1.46-36.52-39.54-36.52z"
     fill="#543930"
     id="path458" />
  <path
     d="m64.84 4.87c-41.01 0-40.95 37.21-40.95 37.81 0 23.56 1.91 58.42 11.74 72.07 3.9 5.41 11.67 5.25 11.67 5.25l16.97-.03 16.97.03s7.47-.35 11.43-5.71c11-14.89 11.43-48.35 11.43-72.91 0-.59 1.75-36.51-39.26-36.51z"
     fill="url(#a)"
     id="path460" />
  <path
     d="m73.63 112.3v-22.79h-9.63-9.63v22.79z"
     fill="#e59600"
     id="path462" />
  <path
     d="m116.52 123.96v-3.11c0-9.38-8.44-15.34-15.73-18.43-6.45-2.74-14.28-5.1-23.99-5.8 0 0-2.92 19.52-12.65 19.38-8.32-.12-11.91-19.41-11.91-19.41-20.55 1.94-40.75 9.46-40.75 24.26v3.11z"
     fill="url(#b)"
     id="path464" />
  <path
     d="m64 16.04c-17.2 0-33.13 12.79-33.13 39.91 0 21.79 13.49 34.67 25.23 38.83 2.8.99 5.5 1.49 7.9 1.49 2.38 0 5.07-.49 7.85-1.47 11.76-4.14 25.28-17.03 25.28-38.84 0-27.13-15.93-39.92-33.13-39.92z"
     fill="#ffca28"
     id="path466" />
  <path
     d="m67.82 68.05c-.1-.04-.21-.07-.32-.08h-6.99c-.11.01-.21.04-.32.08-.63.26-.98.91-.68 1.61s1.69 2.66 4.49 2.66 4.19-1.96 4.49-2.66c.31-.69-.03-1.35-.67-1.61z"
     fill="#e59600"
     id="path468" />
  <ellipse
     cx="47.75"
     cy="58.87"
     fill="#404040"
     rx="4.87"
     ry="5.04"
     id="ellipse470" />
  <ellipse
     cx="80.25"
     cy="58.87"
     fill="#404040"
     rx="4.87"
     ry="5.04"
     id="ellipse472" />
  <path
     d="m72.31 76.14c-3.15 1.87-13.46 1.87-16.61 0-1.81-1.07-3.65.57-2.9 2.21.74 1.61 6.37 5.36 11.23 5.36s10.42-3.75 11.16-5.36c.75-1.64-1.08-3.29-2.88-2.21z"
     fill="#795548"
     id="path474" />
  <path
     d="m54.98 49.82c-.93-1.23-3.07-3.01-7.23-3.01s-6.31 1.79-7.23 3.01c-.41.54-.31 1.17-.02 1.55.26.35 1.04.68 1.9.39s2.54-1.16 5.35-1.18c2.81.02 4.49.89 5.35 1.18s1.64-.03 1.9-.39c.29-.38.39-1.01-.02-1.55z"
     fill="#6d4c41"
     id="path476" />
  <path
     d="m87.48 49.82c-.93-1.23-3.07-3.01-7.23-3.01s-6.31 1.79-7.23 3.01c-.41.54-.31 1.17-.02 1.55.26.35 1.04.68 1.9.39s2.54-1.16 5.35-1.18c2.81.02 4.49.89 5.35 1.18s1.64-.03 1.9-.39c.29-.38.39-1.01-.02-1.55z"
     fill="#6d4c41"
     id="path478" />
  <path
     d="m64.7 4.87c-41.01 0-40.68 35.92-40.68 36.52 0 7.76.19 16.53.75 25.32l6.72-.02c-.06-2.92 1.99-20.97 8.08-22.34 22.36-5.03 35.01-16.89 35.01-16.89 3.29 7.18 13.58 14.19 17.27 16.86 3.03 2.19 4.27 18.55 4.21 22.38h7.4c0-.05.02-.1.02-.16.56-8.75.47-17.46.47-25.17.02-.58 1.76-36.5-39.25-36.5z"
     fill="#543930"
     id="path480" />
  <path
     d="m64.7 4.87c-41.01 0-40.68 35.92-40.68 36.52 0 7.76.19 16.53.75 25.32l6.72-.02c-.06-2.92 1.99-20.97 8.08-22.34 22.36-5.03 35.01-16.89 35.01-16.89 3.29 7.18 13.58 14.19 17.27 16.86 3.03 2.19 4.27 18.55 4.21 22.38h7.4c0-.05.02-.1.02-.16.56-8.75.47-17.46.47-25.17.02-.58 1.76-36.5-39.25-36.5z"
     fill="url(#c)"
     id="path482" />
  <path
     d="m63.8 24.17c-33.25 0-38.58 11.36-38.58 11.36s10.25 9.91 38.58 10.1c28.34-.19 39.11-10.73 39.11-10.73s-5.85-10.73-39.11-10.73z"
     fill="url(#d)"
     id="path484" />
  <path
     d="m20.42 34.44c1.69 6.19 3.31 8.74 3.31 8.74 1.72-1.99 11.93-11.38 40.21-11.38h.12.04c28.28 0 38.03 9.43 39.74 11.43 0 0 2.04-2.76 3.74-8.95 3.93-14.32-15.53-30.36-43.53-30.36-27.92.01-47.54 16.22-43.63 30.52z"
     fill="#303030"
     id="path486" />
  <path
     id="path488"
     d="M 63.849609 22.789062 C 45.079628 22.789062 34.56984 29.7293 31.089844 32.529297 C 30.259845 33.199296 29.69 34.139689 29.5 35.179688 L 29.490234 35.240234 C 29.261841 36.446914 29.537968 37.590778 30.138672 38.505859 C 36.104137 35.319116 46.622288 31.800781 63.939453 31.800781 L 64.060547 31.800781 L 64.099609 31.800781 C 81.383099 31.800781 91.720906 35.319894 97.556641 38.515625 C 98.163185 37.598968 98.446074 36.451126 98.220703 35.240234 C 98.020703 34.160235 97.430546 33.199062 96.560547 32.539062 C 92.95055 29.739065 82.149591 22.789062 63.849609 22.789062 z "
     fill="#212121" />
  <g
     fill="#ffc107"
     id="g504">
    <path
       d="m57.32 20.28c-.09.06-.18.1-.29.1h-9.84c-.36 0-.5.46-.21.67.23.17.46.33.69.48.8.54 1.74.82 2.71.82h7.72c-.23-.74-.49-1.44-.78-2.07z"
       id="path490" />
    <path
       d="m56.85 19.31c-.52-1-1.03-1.78-1.4-2.3h-12.64c-.27 0-.4.34-.2.51.12.11.25.22.37.33 1.07.94 2.45 1.46 3.88 1.46z"
       id="path492" />
    <path
       d="m58.39 23.42h-6.79c-.21 0-.28.29-.09.39 4.11 2.05 6.44 1.91 6.44 1.91h.79c-.05-.8-.17-1.57-.35-2.3z"
       id="path494" />
    <path
       d="m80.83 20.38h-9.84c-.11 0-.21-.04-.29-.1-.29.63-.55 1.33-.78 2.07h7.72c.96 0 1.91-.28 2.71-.82.23-.15.45-.31.69-.48.29-.21.15-.67-.21-.67z"
       id="path496" />
    <path
       d="m85.22 17.01h-12.64c-.37.52-.88 1.3-1.4 2.3h9.99c1.43 0 2.81-.51 3.88-1.46.12-.11.24-.22.37-.33.19-.18.06-.51-.2-.51z"
       id="path498" />
    <path
       d="m76.42 23.42h-6.79c-.17.73-.29 1.5-.35 2.3h.79s2.33.14 6.44-1.91c.18-.1.12-.39-.09-.39z"
       id="path500" />
    <path
       d="m68.26 14.33c-.76.35-1.66.56-2.49.69-1.17.18-2.36.18-3.53 0-.83-.13-1.73-.34-2.49-.69-.48-.22-1.04.02-1.24.51l-.8 1.98c-.21.52-.17.86.02 1.12.71.96 2.39 3.59 2.5 6.76.01.35.2.67.52.83.65.31 1.79.91 2.64 1.61.36.3.86.3 1.22 0 .86-.71 1.99-1.3 2.64-1.61.32-.15.51-.47.52-.83.11-3.17 1.8-5.79 2.5-6.76.19-.26.23-.6.11-.89-.23-.56-.6-1.49-.89-2.21-.18-.49-.75-.73-1.23-.51z"
       id="path502" />
  </g>
  <path
     d="m20.38 34.44c1.69 6.19 3.31 8.74 3.31 8.74 1.72-2 11.98-11.62 40.27-11.62h.12.04c28.28 0 37.96 9.67 39.68 11.67 0 0 2.11-2.99 3.81-9.18 3.93-14.32-15.39-30.13-43.39-30.13-27.94 0-47.75 16.21-43.84 30.52z"
     fill="url(#f)"
     opacity=".3"
     id="path506" />
  <g
     fill="#ffc107"
     id="g522">
    <path
       d="m92.2 119.78c-.04.02-.08.04-.12.04h-4.12c-.15 0-.21.19-.09.28.1.07.19.14.29.2.33.23.73.34 1.13.34h3.23c-.09-.3-.2-.59-.32-.86z"
       id="path508" />
    <path
       d="m92 119.38c-.22-.42-.43-.74-.59-.96h-5.29c-.11 0-.17.14-.08.22.05.05.1.09.15.14.45.4 1.03.61 1.62.61h4.19z"
       id="path510" />
    <path
       d="m92.65 121.1h-2.84c-.09 0-.12.12-.04.16 1.72.86 2.69.8 2.69.8h.33c-.02-.33-.07-.66-.14-.96z"
       id="path512" />
    <path
       d="m102.04 119.82h-4.12c-.05 0-.09-.02-.12-.04-.12.26-.23.56-.32.87h3.23c.4 0 .8-.12 1.13-.34.09-.06.19-.13.29-.2.12-.09.06-.29-.09-.29z"
       id="path514" />
    <path
       d="m103.88 118.41h-5.29c-.16.22-.37.54-.59.96h4.18c.6 0 1.18-.21 1.62-.61.05-.05.1-.09.15-.14.09-.07.04-.21-.07-.21z"
       id="path516" />
    <path
       d="m100.19 121.1h-2.84c-.07.31-.12.63-.15.96h.33s.97.06 2.69-.8c.09-.04.06-.16-.03-.16z"
       id="path518" />
    <path
       d="m96.78 117.29c-.32.15-.7.24-1.04.29-.49.07-.99.07-1.48 0-.35-.05-.72-.14-1.04-.29-.2-.09-.44.01-.52.21l-.33.83c-.09.22-.07.36.01.47.3.4 1 1.5 1.05 2.83.01.15.08.28.22.35.27.13.75.38 1.11.68.15.12.36.12.51 0 .36-.3.83-.54 1.11-.68.13-.06.21-.2.22-.35.05-1.33.75-2.42 1.05-2.83.08-.11.1-.25.04-.37-.09-.23-.25-.62-.37-.92-.1-.21-.34-.31-.54-.22z"
       id="path520" />
  </g>
  <path
     d="m71.91 123.96 3.43-17.96h-22.68l3.84 17.96z"
     fill="#e0e0e0"
     id="path524" />
  <path
     d="m66.85 113.53h-5.63l-1.78-7.5h9.12z"
     fill="#212121"
     id="path526" />
  <path
     d="m67.96 123.96-1.14-10.43h-5.64l-1.14 10.43z"
     fill="#212121"
     id="path528" />
  <path
     d="m63.98 106-8.65 7.19-1.62 1.35-3.49-17.81c.5-.06 1-.11 1.5-.15 1.11-.11 1.37-.2 2.49-.27 0 0 1.81 3.08 3.66 5.5 3.17 4.13 6.11 4.19 6.11 4.19z"
     fill="#fafafa"
     id="path530" />
  <path
     d="m77.76 96.78-3.48 17.76-10.29-8.54s2.96-.06 6.13-4.19c1.92-2.5 3.67-5.48 3.67-5.48 1.12.08 1.38.17 2.49.28.5.05.99.1 1.48.17z"
     fill="#fafafa"
     id="path532" />
  <g
     fill="#424242"
     id="g538">
    <path
       d="m55.23 113.19-3.61-16.61c-.5.04-1 .09-1.5.15-3.16.34-8.08 1.18-8.08 1.18l-3.1 6.57 7.12 4.36-4.75 6.11 9.25 9.01h6 1.01z"
       id="path534" />
    <path
       d="m72.77 113.19 3.61-16.61c.5.04 1 .09 1.5.15 3.35.22 8.01 1.03 8.01 1.03l3.17 6.72-7.12 4.36 4.75 6.11-9.25 9.01h-6-1.01z"
       id="path536" />
  </g>
</svg>
