<?xml version="1.0" encoding="UTF-8" standalone="no"?>
<!-- Generator: Adobe Illustrator 24.0.3, SVG Export Plug-In . SVG Version: 6.00 Build 0)  -->

<svg
   version="1.1"
   id="Layer_1"
   x="0px"
   y="0px"
   viewBox="0 0 128 128"
   style="enable-background:new 0 0 128 128;"
   xml:space="preserve"
   sodipodi:docname="emoji_u1f477_200d_2642.svg"
   inkscape:version="1.3.2 (091e20e, 2023-11-25, custom)"
   xmlns:inkscape="http://www.inkscape.org/namespaces/inkscape"
   xmlns:sodipodi="http://sodipodi.sourceforge.net/DTD/sodipodi-0.dtd"
   xmlns="http://www.w3.org/2000/svg"
   xmlns:svg="http://www.w3.org/2000/svg"><defs
   id="defs27" /><sodipodi:namedview
   id="namedview27"
   pagecolor="#ffffff"
   bordercolor="#666666"
   borderopacity="1.0"
   inkscape:showpageshadow="2"
   inkscape:pageopacity="0.0"
   inkscape:pagecheckerboard="0"
   inkscape:deskcolor="#d1d1d1"
   inkscape:zoom="6.1015625"
   inkscape:cx="64"
   inkscape:cy="64"
   inkscape:window-width="1680"
   inkscape:window-height="998"
   inkscape:window-x="-8"
   inkscape:window-y="-8"
   inkscape:window-maximized="1"
   inkscape:current-layer="g25" />
<g
   id="helmet_x5F_back_1_">
	<path
   style="fill:#FFEA00;"
   d="M18,52.5c0,9.34,20.6,16.92,46,16.92s46-7.58,46-16.92C110,43.15,18,43.15,18,52.5z"
   id="path1" />
	<path
   style="fill:#EDBF00;"
   d="M105.38,52.49c-8.12-5.31-19.54-9.71-41.38-9.72c-21.85,0.01-33.27,4.4-41.38,9.72   c-0.62,0.41-0.78,1.21-0.33,1.8C26.75,60.12,45.76,65.86,64,65.88c18.24-0.02,38-6.62,41.71-11.58   C106.15,53.7,106.01,52.9,105.38,52.49z"
   id="path2" />
</g>
<g
   id="shirt_1_">
	
		<linearGradient
   id="SVGID_1_"
   gradientUnits="userSpaceOnUse"
   x1="64"
   y1="34.1991"
   x2="64"
   y2="-7.6178"
   gradientTransform="matrix(1 0 0 -1 0 130)">
		<stop
   offset="3.200000e-03"
   style="stop-color:#448AFF"
   id="stop2" />
		<stop
   offset="0.4042"
   style="stop-color:#3B7DFF"
   id="stop3" />
		<stop
   offset="1"
   style="stop-color:#2962FF"
   id="stop4" />
	</linearGradient>
	<path
   style="fill:url(#SVGID_1_);"
   d="M116,123.98v-3.12c0-16.78-26.35-25.09-52-25.06c-25.49,0.03-52,7.28-52,25.06v3.12H116z"
   id="path4" />
</g>
<g
   id="safety_x5F_jacket_1_">
	<g
   id="g10">
		<g
   id="g8">
			<g
   id="g7">
				
					<linearGradient
   id="SVGID_2_"
   gradientUnits="userSpaceOnUse"
   x1="44.025"
   y1="31.8282"
   x2="44.025"
   y2="-5.8907"
   gradientTransform="matrix(1 0 0 -1 0 130)">
					<stop
   offset="3.200000e-03"
   style="stop-color:#FF9100"
   id="stop5" />
					<stop
   offset="0.4399"
   style="stop-color:#FF8400"
   id="stop6" />
					<stop
   offset="1"
   style="stop-color:#FF6D00"
   id="stop7" />
				</linearGradient>
				<path
   style="fill:url(#SVGID_2_);"
   d="M58.5,123.98H29.55v-22.74c1.79-0.7,3.68-1.32,5.64-1.86c2.89-0.82,5.94-1.49,9.1-2.01      c2.14-0.36,4.33-0.65,6.55-0.88L58.5,123.98z"
   id="path7" />
			</g>
		</g>
		
			<linearGradient
   id="SVGID_3_"
   gradientUnits="userSpaceOnUse"
   x1="43.075"
   y1="32.036"
   x2="43.075"
   y2="-6.675"
   gradientTransform="matrix(1 0 0 -1 0 130)">
			<stop
   offset="3.200000e-03"
   style="stop-color:#FFFF00"
   id="stop8" />
			<stop
   offset="0.6783"
   style="stop-color:#FFF200"
   id="stop9" />
			<stop
   offset="1"
   style="stop-color:#FFEA00"
   id="stop10" />
		</linearGradient>
		<path
   style="fill:url(#SVGID_3_);"
   d="M50.96,123.98H36.29l-1.1-24.6c2.89-0.82,5.94-1.49,9.1-2.01L50.96,123.98z"
   id="path10" />
	</g>
	<g
   id="g16">
		<g
   id="g14">
			<g
   id="g13">
				
					<linearGradient
   id="SVGID_4_"
   gradientUnits="userSpaceOnUse"
   x1="83.975"
   y1="31.7906"
   x2="83.975"
   y2="-5.8734"
   gradientTransform="matrix(1 0 0 -1 0 130)">
					<stop
   offset="3.200000e-03"
   style="stop-color:#FF9100"
   id="stop11" />
					<stop
   offset="0.4399"
   style="stop-color:#FF8400"
   id="stop12" />
					<stop
   offset="1"
   style="stop-color:#FF6D00"
   id="stop13" />
				</linearGradient>
				<path
   style="fill:url(#SVGID_4_);"
   d="M98.45,101.54v22.44H69.5l7.65-27.45c2.21,0.24,4.4,0.56,6.53,0.94      c3.17,0.57,6.23,1.27,9.12,2.13C94.77,100.18,96.66,100.83,98.45,101.54z"
   id="path13" />
			</g>
		</g>
		
			<linearGradient
   id="SVGID_5_"
   gradientUnits="userSpaceOnUse"
   x1="84.92"
   y1="31.9382"
   x2="84.92"
   y2="-6.6273"
   gradientTransform="matrix(1 0 0 -1 0 130)">
			<stop
   offset="3.200000e-03"
   style="stop-color:#FFFF00"
   id="stop14" />
			<stop
   offset="0.6783"
   style="stop-color:#FFF200"
   id="stop15" />
			<stop
   offset="1"
   style="stop-color:#FFEA00"
   id="stop16" />
		</linearGradient>
		<path
   style="fill:url(#SVGID_5_);"
   d="M92.8,99.6l-1.09,24.38H77.04l6.64-26.51C86.85,98.04,89.91,98.74,92.8,99.6z"
   id="path16" />
	</g>
</g>
<g
   id="neck">
	<path
   id="neck_1_"
   style="fill:#E59600;"
   d="M64,90.16h-9.08v9.98c0,4.51,3.7,8.17,8.26,8.17h1.65c4.56,0,8.26-3.66,8.26-8.17   v-9.98C73.08,90.16,64,90.16,64,90.16z" />
</g>
<g
   id="face">
	<g
   id="ears_1_">
		<path
   id="ears"
   style="fill:#E59600;"
   d="M91.33,50.52h-7.37H44.04h-7.37c-5.89,0-10.71,5.14-10.71,11.41s4.82,11.41,10.71,11.41    h7.37h39.91h7.37c5.89,0,10.71-5.14,10.71-11.41S97.22,50.52,91.33,50.52z" />
	</g>
	<path
   id="head"
   style="fill:#FFCA28;"
   d="M64,11.15c-17.4,0-33.52,18.61-33.52,45.39c0,26.64,16.61,39.81,33.52,39.81   s33.52-13.17,33.52-39.81C97.52,29.76,81.4,11.15,64,11.15z" />
	<path
   id="nose_1_"
   style="fill:#E49600"
   d="M67.86,68.14c-0.11-0.04-0.21-0.07-0.32-0.08h-7.08c-0.11,0.01-0.22,0.04-0.32,0.08   c-0.64,0.26-0.99,0.92-0.69,1.63c0.3,0.71,1.71,2.69,4.55,2.69s4.25-1.99,4.55-2.69C68.85,69.07,68.5,68.4,67.86,68.14z" />
	<path
   id="mouth_1_"
   style="fill:#795548;"
   d="M72.42,76.23c-3.18,1.89-13.63,1.89-16.81,0c-1.83-1.09-3.7,0.58-2.94,2.24   c0.75,1.63,6.44,5.42,11.37,5.42s10.55-3.79,11.3-5.42C76.09,76.8,74.25,75.14,72.42,76.23z" />
	<g
   id="eyebrows_2_">
		<path
   style="fill:#6D4C41;"
   d="M87.15,50.83L87.15,50.83c0-0.01-2.27-3.7-7.55-3.7s-7.56,3.69-7.56,3.69l0,0.01    c-0.19,0.27-0.3,0.59-0.3,0.94c0,0.89,0.7,1.62,1.57,1.62c0.18,0,0.62-0.13,0.66-0.15c3.16-1.35,5.64-1.35,5.64-1.35    s2.46,0.01,5.62,1.36c0.04,0.02,0.48,0.15,0.66,0.15c0.86,0,1.57-0.72,1.57-1.62C87.45,51.42,87.34,51.1,87.15,50.83z"
   id="path17" />
		<path
   style="fill:#6D4C41;"
   d="M55.96,50.83L55.96,50.83c0.01-0.01-2.27-3.7-7.55-3.7s-7.56,3.69-7.56,3.69l0.01,0.01    c-0.19,0.27-0.3,0.59-0.3,0.94c0,0.89,0.7,1.62,1.57,1.62c0.18,0,0.62-0.13,0.66-0.15c3.16-1.35,5.64-1.35,5.64-1.35    s2.46,0.01,5.62,1.36c0.04,0.02,0.48,0.15,0.66,0.15c0.87,0,1.57-0.72,1.57-1.62C56.26,51.42,56.15,51.1,55.96,50.83z"
   id="path18" />
	</g>
	<g
   id="hair">
		<path
   id="hair_1_"
   style="fill:#543930;"
   d="M64.31,11.11c-45.44,0.24-36.13,45.14-36.13,45.14s5.1,8.99,5.1,8.81    c-0.17-7.25,2.74-20.09,4.8-25.55c1.04-2.76,3.9-4.36,6.79-3.83c4.45,0.81,11.55,1.81,19.37,1.81c0.03,0,0.06,0,0.08,0    s0.06,0,0.08,0c7.82,0,14.92-1,19.37-1.81c2.9-0.53,5.76,1.08,6.79,3.83c2.06,5.47,4.96,18.3,4.8,25.55c0,0.18,5.1-8.81,5.1-8.81    s9.31-44.9-36.13-45.14L64.31,11.11z" />
	</g>
	<g
   id="eyes_2_">
		<ellipse
   style="fill:#404040;"
   cx="48.4"
   cy="58.81"
   rx="4.93"
   ry="5.1"
   id="ellipse18" />
		<ellipse
   style="fill:#404040;"
   cx="79.6"
   cy="58.81"
   rx="4.93"
   ry="5.1"
   id="ellipse19" />
	</g>
</g>
<g
   id="helmet">
	
		<radialGradient
   id="XMLID_2_"
   cx="64"
   cy="98.3245"
   r="34.638"
   gradientTransform="matrix(1 0 0 -0.9806 0 127.575)"
   gradientUnits="userSpaceOnUse">
		<stop
   offset="0"
   style="stop-color:#FFFF00"
   id="stop19" />
		<stop
   offset="0.325"
   style="stop-color:#FFF600"
   id="stop20" />
		<stop
   offset="0.8535"
   style="stop-color:#FFDE00"
   id="stop21" />
		<stop
   offset="0.9978"
   style="stop-color:#FFD600"
   id="stop22" />
	</radialGradient>
	<path
   id="XMLID_7_"
   style="fill:url(#XMLID_2_);"
   d="M64.41,7.94c-46.76,0-43.24,46.43-43.24,46.43s12.21-10.8,43.5-10.8   s42.1,9.8,42.1,9.8S111.17,7.94,64.41,7.94z" />
	
		<linearGradient
   id="SVGID_6_"
   gradientUnits="userSpaceOnUse"
   x1="64.3215"
   y1="125.2446"
   x2="64.3215"
   y2="88.2071"
   gradientTransform="matrix(1 0 0 -1 0 130)">
		<stop
   offset="0"
   style="stop-color:#FFFF00"
   id="stop23" />
		<stop
   offset="0.4462"
   style="stop-color:#FFF900"
   id="stop24" />
		<stop
   offset="1"
   style="stop-color:#FFEA00"
   id="stop25" />
	</linearGradient>
	<path
   style="fill:url(#SVGID_6_);"
   d="M74.72,42.17h-20.8V9.07c0-2.79,2.26-5.05,5.05-5.05h10.7c2.79,0,5.05,2.26,5.05,5.05V42.17z   "
   id="path25" />
	<g
   id="g27">
		<g
   id="g25">
			<defs
   id="defs25">
				<path
   id="SVGID_7_"
   d="M64.41,7.94c-46.76,0-43.24,46.43-43.24,46.43s12.21-10.8,43.5-10.8s42.1,9.8,42.1,9.8      S111.17,7.94,64.41,7.94z" />
			</defs>
			
			<path
   id="XMLID_6_"
   clip-path="url(#SVGID_8_)"
   style="opacity:0.5;clip-path:url(#SVGID_8_);fill:#EDBF00;enable-background:new    ;"
   d="M 54.070312 8.7988281 C 51.661091 9.2233484 49.424942 9.7943755 47.353516 10.494141 C 50.729092 14.221102 52.691968 21.396321 54.070312 31.230469 L 54.070312 8.7988281 z " />
				
			
		</g>
		<g
   id="g26">
			<defs
   id="defs26">
				<path
   id="SVGID_9_"
   d="M64.41,7.94c-46.76,0-43.24,46.43-43.24,46.43s12.21-10.8,43.5-10.8s42.1,9.8,42.1,9.8      S111.17,7.94,64.41,7.94z" />
			</defs>
			
			<path
   id="path26"
   clip-path="url(#SVGID_10_)"
   style="opacity:0.5;clip-path:url(#SVGID_10_);fill:#EDBF00;enable-background:new    ;"
   d="M 74.759766 8.7851562 L 74.759766 31.230469 C 76.141276 21.373736 78.110156 14.188381 81.5 10.46875 C 79.425894 9.7738238 77.183516 9.2057555 74.759766 8.7851562 z " />
				
			
		</g>
	</g>
	<path
   style="fill:#FFEA00;"
   d="M109.53,51.01c-0.25-0.42-0.64-0.74-1.07-0.99C90.36,39.6,64,39.95,64,39.95S37.64,39.6,19.54,50.02   c-0.44,0.25-0.82,0.57-1.07,0.99c-0.53,0.9-0.97,2.61,0.75,5.08c0,0,10.95-10.85,44.78-11.53c33.82,0.69,44.78,11.53,44.78,11.53   C110.5,53.62,110.06,51.91,109.53,51.01z"
   id="path27" />
</g>
</svg>
