<?xml version="1.0" encoding="UTF-8"?>
<svg enable-background="new 0 0 128 128" version="1.1" viewBox="0 0 128 128" xmlns="http://www.w3.org/2000/svg">
 <radialGradient id="e" cx="36.981" cy="25.583" r="18.809" gradientUnits="userSpaceOnUse">
  <stop stop-color="#FFCA28" offset=".2793"/>
  <stop stop-color="#FFB300" offset=".7972"/>
 </radialGradient>
 <path d="m77.93 56.52c-9.51 0-29.16-15.9-30.35-16.87-2.3-2.31-7.18-8.29-4.28-14.92 0.62-1.43 1.97-2.15 3.99-2.15 2.45 0 5.62 1.11 8.47 2.97l25.49 19.69c1.44 1.09 2.12 2.61 2.01 4.53-0.1 1.81-0.92 3.87-2.27 5.65-0.66 0.74-1.66 1.1-3.06 1.1z" fill="url(#e)"/>
 <path d="m47.29 24.07c2.16 0 5 1 7.6 2.69l25.46 19.68c1.02 0.77 1.48 1.83 1.4 3.24-0.08 1.5-0.78 3.24-1.93 4.78-0.18 0.19-0.65 0.56-1.91 0.56-7.6 0-23.63-11.81-29.33-16.48-2.1-2.13-6.43-7.47-3.92-13.21 0.18-0.38 0.57-1.26 2.63-1.26m0-3c-2.43 0-4.42 0.91-5.36 3.05-2.71 6.19 0.39 12.38 4.64 16.64 0 0 20.94 17.26 31.35 17.26 1.76 0 3.22-0.5 4.23-1.65 2.98-3.94 3.95-9.34 0.01-12.32l-25.53-19.74c-3.03-1.99-6.48-3.24-9.34-3.24z" fill="#EDA600"/>
 <radialGradient id="d" cx="61.362" cy="24.895" r="36.22" fx="53.02" fy="33.761" gradientUnits="userSpaceOnUse">
  <stop stop-color="#FFCA28" offset="0"/>
  <stop stop-color="#FFB300" offset="1"/>
 </radialGradient>
 <path d="m96.48 89.21c-9.3-0.1-12.3-20.27-12.67-28.05-0.02-0.45-0.24-0.86-0.6-1.13-4.29-3.23-9.09-14.19-12.15-23.38-0.09-0.26-0.15-0.39-0.16-0.4-0.19-0.34-0.5-0.6-0.88-0.72-6.87-2.11-17.35-10.65-21.54-15.59-2.31-2.72-3.79-8.49-2.24-11.83 0.75-1.62 2.09-2.4 4.1-2.4 2.54 0 6.04 1.3 10.13 3.77 1.14 0.83 20.68 15.09 25.8 20.76 5.21 5.77 11.64 18.63 11.7 18.76 8.25 17.42 7.04 33.11 6.63 36.67-3.42 1.64-7.27 3.36-8.12 3.54z" fill="url(#d)"/>
 <path d="m50.35 7.21c1.57 0 4.46 0.61 9.3 3.52 1.57 1.14 20.57 15.02 25.52 20.51 4.97 5.5 11.14 17.78 11.46 18.4 7.54 15.95 7 30.45 6.58 35.03-2.87 1.36-5.91 2.71-6.9 3.02-7.34-0.4-10.57-18.03-10.99-26.61-0.04-0.89-0.48-1.72-1.19-2.26-2.51-1.89-7.07-8.96-11.63-22.65-0.08-0.24-0.14-0.41-0.27-0.65-0.38-0.69-1-1.2-1.75-1.43-3.01-0.93-7.1-3.29-11.53-6.66-3.65-2.78-7.31-6.11-9.31-8.47-2.21-2.6-3.21-7.67-2.03-10.23 0.35-0.75 0.95-1.52 2.74-1.52m0-3c-8.45 0-7.13 11.84-3 16.7 3.98 4.69 14.7 13.73 22.25 16.06 0.04 0.07 6.19 19.34 12.72 24.26 0 0 1.4 29.48 14.24 29.48 1.12 0 9.44-4.04 9.44-4.04s3-17.92-6.67-38.33c0 0-6.51-13.1-11.93-19.1s-26.09-21-26.09-21c-4.75-2.88-8.33-4.03-10.96-4.03z" fill="#EDA600"/>
 <defs>
  <radialGradient id="a" cx="119.42" cy="60.56" r="58.828" gradientTransform="matrix(1.0612,0,0,1,-73.68,0)" gradientUnits="userSpaceOnUse">
   <stop stop-color="#FFCA28" offset=".242"/>
   <stop stop-color="#FFB300" offset=".7972"/>
  </radialGradient>
 </defs>
 <path d="m58.41 44.68c-3.14 0-8.3792 1.2703-11.699 2.8203-0.99 0.61-11.441 7.8692-18.361 12.699-2.11 1.32-3.4988 3.4409-3.5488 5.3809-0.04 1.41 0.61898 2.5993 1.959 3.5293 3.03 2.11 5.9311 3.1406 8.8711 3.1406 1.81 0 3.6098-0.37992 5.5098-1.1699 2.41-1 4.5587-2.6598 6.6387-4.2598 2.12-1.63 4.3102-3.3198 6.7402-4.2598 1.59-0.62 3.4699-0.94141 5.4199-0.94141 5.06 0 9.6798 2.1312 12.34 5.7012 2.52 3.37 4.2314 10.489 2.4414 17.039-1.08 3.96-3.8803 9.3103-11.07 12.32-2.04 0.86-4.0805 1.291-6.0605 1.291-11.75 0-17.92-14.72-18.52-16.23-1.6-2.83-4.6796-5.8203-8.5996-5.8203-0.84 0-1.6798 0.13992-2.5098 0.41992-5.21 1.73-5.6403 6.7509-5.0703 10.711 0.01 0.12 1.4389 12.23 5.8789 18.41 4.52 6.3 13.48 12.71 13.57 12.77 0.04 0.03 0.12016 0.0889 0.16016 0.12891 0.79 0.68999 6.5095 3.9214 8.7695 3.9414l19.6-0.05078c11.17-0.01 21.201-6.2599 25.541-15.92 4.46-9.92 7.1906-16.801 7.8906-19.881 0.13226-0.58228 0.18016-1.1715 0.19336-1.7637-0.83628-0.25672-1.7539-0.18555-1.7539-0.18555s-1.3109-4.2191-5.4609-12.039c-1.2199-2.2987-2.4717-5.0723-3.7656-7.8828-3.5418-5.2292-8.2828-11.534-11.734-12.688l-21.549-7c-0.29-0.09-0.84031-0.21094-1.8203-0.21094z" fill="url(#a)"/>
 <path d="m58.41 43.189c-3.141 0-7.7019 1.0845-11.002 2.3867-0.48582 0.20435-0.96439 0.40786-1.3789 0.60352-0.35 0.12-18.479 12.77-18.479 12.77-3.7712 2.3712-5.6445 6.926-3.0391 10.131 0.18449 0.22589 0.38914 0.44506 0.61914 0.65625 0.23222 0.21323 0.48906 0.41758 0.76953 0.61328 0.40223 0.28132 0.80112 0.54237 1.1992 0.78711 0.068055 0.041874 0.13519 0.080268 0.20312 0.12109 0.32663 0.19607 0.65247 0.3808 0.97656 0.55274 0.086732 0.046112 0.17321 0.090355 0.25976 0.13476 0.33841 0.17321 0.67582 0.33501 1.0117 0.48242 0.036491 0.016072 0.072914 0.033057 0.10938 0.048828 2.0248 0.87258 4.0084 1.2832 5.9707 1.2832 1.5195 0 3.0276-0.25224 4.5332-0.72266 0.098321-0.030812 0.19662-0.070796 0.29492-0.10352 0.4173-0.13837 0.83483-0.28173 1.252-0.45312 5.13-2.13 8.8298-6.7698 13.34-8.5098 0.56516-0.21799 1.1855-0.38566 1.832-0.52148 0.31451-0.066072 0.63571-0.12078 0.96484-0.16602 0.026649-0.00366 0.053342-0.008197 0.080078-0.011719 0.64574-0.0851 1.3086-0.14062 1.9922-0.14062 0.22716 0 0.45972 0.021536 0.68945 0.03125 0.18544 0.00756 0.36995 0.013301 0.55664 0.027344 0.2387 0.018308 0.47694 0.047045 0.7168 0.076172 0.20983 0.025157 0.41879 0.05426 0.62891 0.087891 0.2239 0.036168 0.44645 0.07119 0.66992 0.11719 0.40624 0.082977 0.81134 0.17849 1.2129 0.29492 0.00396 0.001155 0.00776 0.002748 0.011719 0.003906 0.11707 0.034252 0.23124 0.078063 0.34766 0.11524 0.34067 0.10814 0.67841 0.2277 1.0117 0.36133 0.13713 0.055258 0.27265 0.1122 0.4082 0.17188 0.36686 0.16071 0.7254 0.33945 1.0781 0.5332 0.062668 0.034571 0.1273 0.063972 0.18945 0.099609 0.43135 0.24628 0.84953 0.51969 1.252 0.81836 0.047847 0.03563 0.093242 0.074939 0.14062 0.11133 0.36063 0.27606 0.70446 0.57572 1.0352 0.89648 0.070435 0.068461 0.14199 0.13455 0.21094 0.20508 0.13261 0.13541 0.26189 0.27482 0.38867 0.41797 0.095532 0.10803 0.18723 0.22151 0.2793 0.33398 0.10649 0.12995 0.22068 0.25075 0.32226 0.38672 3.9 5.22 5.9402 21.24-8.0098 27.08-0.4904 0.20538-0.97214 0.37682-1.4473 0.52539-0.001335 4.19e-4 -0.002571 0.001534-0.003906 0.001953-0.023616 0.007378-0.046734 0.010336-0.070313 0.017578-0.41996 0.12898-0.83621 0.23904-1.2441 0.32617-0.18496 0.039553-0.36448 0.062475-0.54688 0.09375-0.26264 0.044986-0.5257 0.092635-0.7832 0.12109-0.18373 0.020362-0.362 0.02681-0.54297 0.039062-0.23764 0.015997-0.47588 0.034625-0.70898 0.03711-0.046855 5.29e-4 -0.095919 0.007812-0.14258 0.007812-0.24824 0-0.49133-0.016587-0.73437-0.03125-0.07635-0.00467-0.15463-0.00369-0.23047-0.009765-0.37556-0.029758-0.74448-0.075979-1.1074-0.13867-0.043581-0.007568-0.085508-0.019321-0.12891-0.027344-0.31966-0.0588-0.63557-0.12844-0.94531-0.21094-0.08696-0.023244-0.17164-0.051146-0.25781-0.076172-0.2626-0.075998-0.52204-0.15819-0.77734-0.25-0.088765-0.03201-0.17579-0.067727-0.26367-0.10156-0.26368-0.10125-0.52358-0.20932-0.7793-0.32617-0.061507-0.028163-0.12255-0.056915-0.18359-0.085937-0.2894-0.13731-0.57451-0.282-0.85352-0.4375-0.024689-0.013786-0.049612-0.027096-0.074219-0.041016-0.47931-0.27065-0.93648-0.57376-1.3848-0.89062-0.3353-0.2373-0.66261-0.4836-0.98047-0.74219-0.14079-0.11441-0.28257-0.22571-0.41992-0.34375-0.30418-0.26164-0.59357-0.53574-0.88086-0.8125-0.45076-0.4339-0.88012-0.88034-1.2891-1.3398-0.035482-0.039882-0.074209-0.077172-0.10938-0.11719-1.4135-1.6079-2.5541-3.2918-3.4512-4.8086-0.36239-0.61152-0.65626-1.1529-0.93359-1.6816-0.88421-1.6874-1.375-2.8984-1.375-2.8984-0.99613-1.799-2.3988-3.4526-4.0801-4.666-0.028035-0.020192-0.055794-0.040603-0.083984-0.060547-0.40776-0.28908-0.83122-0.55438-1.2695-0.78711-0.018581-0.009836-0.038007-0.017618-0.05664-0.027344-0.42417-0.22212-0.86322-0.41264-1.3125-0.57422-0.041315-0.014794-0.081534-0.032627-0.12305-0.046875-0.12686-0.043732-0.2561-0.080628-0.38477-0.11914-0.16217-0.048313-0.32533-0.095023-0.49023-0.13476-0.11837-0.028672-0.2377-0.054032-0.35742-0.078125-0.16933-0.033888-0.33981-0.06148-0.51172-0.085938-0.12105-0.017335-0.24102-0.036333-0.36328-0.048828-0.22227-0.022549-0.44778-0.034977-0.67383-0.041015-0.06991-0.001893-0.13873-0.007552-0.20898-0.007813-0.2982-0.001031-0.59842 0.015647-0.90234 0.044922-0.05434 0.005135-0.10952 0.011445-0.16406 0.017578-0.27134 0.031042-0.54504 0.074333-0.82031 0.13086-0.048166 0.00981-0.096241 0.018674-0.14453 0.029297-0.32209 0.071339-0.64606 0.15755-0.97266 0.26562-0.16342 0.053981-0.30825 0.11591-0.46289 0.17383-1.4467 0.55064-2.5895 1.3368-3.459 2.3047-1.8392 2.2068-2.0289 5.3974-1.9883 9.4707 0 0 1.2507 12.891 5.9707 19.471 4.72 6.58 13.92 13.109 13.92 13.109 0.7125 0.68438 6.2322 3.9006 9.2266 4.3164 0.19962 0.02772 0.3875 0.04367 0.5625 0.04492l19.6-0.03125c0.73642-0.00125 1.469-0.02762 2.1953-0.08008 10.843-0.78309 20.422-7.1876 24.715-16.729 3.53-7.86 7.1102-16.332 7.9902-20.172 0.01689-0.074133 0.0259-0.1484 0.04101-0.22266 0.28795-2.0565-2.1878-2.0898-2.8066-2.0684-0.00198 0.5498-0.04346 1.0932-0.16406 1.6211-0.47 2.08-2.2108 7.1716-7.8008 19.602-4.1 9.12-13.59 15.019-24.18 15.039l-19.58 0.02929c-1.57-0.01-6.6688-2.6881-7.7988-3.5781-0.09-0.08-0.18125-0.16071-0.28125-0.22071-0.09-0.06-8.8388-6.3199-13.219-12.42-4.2-5.86-5.5913-17.591-5.6113-17.711 0-0.03-0.009766-0.059844-0.009766-0.089844-0.7-4.87 0.67055-7.9093 4.0605-9.0293 0.68-0.23 1.3591-0.33984 2.0391-0.33984 3.24 0 5.8502 2.5405 7.2402 4.9805 0.85 2.09 7.3809 17.068 19.881 17.068 2.18 0 4.4206-0.46844 6.6406-1.3984 7.75-3.24 10.76-9.0305 11.93-13.311 1.93-7.09 0.11031-14.59-2.6797-18.33-2.94-3.94-8.011-6.3008-13.541-6.3008-2.13 0-4.1892 0.36102-5.9492 1.041-2.64 1.02-4.9111 2.7688-7.1211 4.4688-2.09 1.62-4.0688 3.1403-6.2988 4.0703-1.71 0.71-3.3316 1.0605-4.9316 1.0605-2.62 0-5.2398-0.93914-8.0098-2.8691-0.91-0.64-1.3503-1.3815-1.3203-2.2715 0.030001-1.43 1.1816-3.0984 2.8516-4.1484 0.04-0.030001 0.079141-0.050079 0.11914-0.080079 6.4-4.47 16.8-11.7 18.16-12.57 3.12-1.42 8.1102-2.6211 10.99-2.6211 0.87 0 1.2491 0.11062 1.3691 0.14062l21.51 6.9902c4.09 1.36 11.011 12.08 13.971 16.65 0.33 0.51 0.63016 0.98016 0.91016 1.4102 0.11 0.17 0.24062 0.33852 0.39062 0.47852 0.26487 0.26487 0.5796 0.60204 0.92188 0.99414-0.071968-0.1367-0.12937-0.2536-0.20312-0.39258-2.3463-4.4213-4.7939-10.58-7.4785-15.432-2.5688-3.1447-5.2314-5.7738-7.5605-6.5488l-21.529-7c-0.6-0.2-1.3908-0.29102-2.3008-0.29102z" fill="#eda600"/>
</svg>
