<?xml version="1.0" encoding="UTF-8"?>
<svg enable-background="new 0 0 128 128" version="1.1" viewBox="0 0 128 128" xmlns="http://www.w3.org/2000/svg">
<defs>
<radialGradient id="SVGID_6_" cx="75.9" cy="23" r="14.8" gradientTransform="matrix(.999 .038 -.038 .999 .928 -2.84)" gradientUnits="userSpaceOnUse">
<stop stop-color="#FFEB3B" offset="0"/>
<stop stop-color="#FBC02D" offset="1"/>
</radialGradient>
<radialGradient id="SVGID_7_" cx="99.4" cy="65" r="11.9" gradientTransform="matrix(.939 -.344 .344 .939 -17.4 37.7)" gradientUnits="userSpaceOnUse">
<stop stop-color="#FFEB3B" offset="0"/>
<stop stop-color="#FBC02D" offset="1"/>
</radialGradient>
<radialGradient id="SVGID_8_" cx="135" cy="-6.35" r="16.5" gradientTransform="matrix(-.247 .942 -1.04 -.187 135 -109)" gradientUnits="userSpaceOnUse">
<stop stop-color="#FFEB3B" offset=".325"/>
<stop stop-color="#FBC02D" offset="1"/>
</radialGradient>
<radialGradient id="SVGID_9_" cx="92.8" cy="70.1" r="93.7" gradientTransform="matrix(.86 .51 -.306 .515 34.4 -13.4)" gradientUnits="userSpaceOnUse">
<stop stop-color="#FFEE58" stop-opacity="0" offset="0"/>
<stop stop-color="#FDD835" offset="1"/>
</radialGradient>
<linearGradient id="SVGID_1_" x1="50" x2="58.8" y1="68.9" y2="68.9" gradientTransform="matrix(.707 .707 -.79 .79 69.2 -17.7)" gradientUnits="userSpaceOnUse">
<stop stop-color="#616161" offset=".595"/>
<stop stop-color="#565656" offset=".775"/>
<stop stop-color="#424242" offset="1"/>
</linearGradient>
<linearGradient id="SVGID_2_" x1="88.9" x2="95.7" y1="34.5" y2="41.3" gradientUnits="userSpaceOnUse">
<stop stop-color="#F5F5F5" offset=".262"/>
<stop stop-color="#EAEAEA" offset=".466"/>
<stop stop-color="#CDCDCD" offset=".822"/>
<stop stop-color="#BDBDBD" offset=".989"/>
</linearGradient>
<linearGradient id="SVGID_3_" x1="13.9" x2="20.7" y1="109" y2="116" gradientUnits="userSpaceOnUse">
<stop stop-color="#F5F5F5" offset=".262"/>
<stop stop-color="#EAEAEA" offset=".466"/>
<stop stop-color="#CDCDCD" offset=".822"/>
<stop stop-color="#BDBDBD" offset=".989"/>
</linearGradient>
<linearGradient id="SVGID_4_" x1="68.4" x2="103" y1="60.1" y2="25.5" gradientUnits="userSpaceOnUse">
<stop stop-color="#FADA80" stop-opacity="0" offset="0"/>
<stop stop-color="#FADA80" offset="1"/>
</linearGradient>
<linearGradient id="SVGID_5_" x1="-2.51" x2="21.4" y1="131" y2="107" gradientUnits="userSpaceOnUse">
<stop stop-color="#1A237E" offset="0"/>
<stop stop-color="#1D2A87" stop-opacity=".814" offset=".186"/>
<stop stop-color="#243DA0" stop-opacity=".51" offset=".49"/>
<stop stop-color="#2F5CC7" stop-opacity=".127" offset=".873"/>
<stop stop-color="#3367D6" stop-opacity="0" offset="1"/>
</linearGradient>
</defs>
<polygon points="95.8 26.5 102 32.6 10.8 124 4.61 118" fill="url(#SVGID_1_)"/>
<path d="m100 28.5c-2.25-2.25-4.19-2-4.19-2l-16.1 16.1c0.95-0.21 2.62 0.6 4.11 2.08 1.48 1.48 2.29 3.15 2.08 4.11l16.1-16.1c-0.01 0 0.25-1.93-2-4.19z" fill="url(#SVGID_2_)"/>
<path d="m25.1 103c-2.25-2.25-4.19-2-4.19-2l-16.2 16.2c0.95-0.21 2.67 0.56 4.16 2.04 1.48 1.48 2.25 3.21 2.04 4.16l16.2-16.2s0.25-1.94-2-4.19z" fill="url(#SVGID_3_)"/>
<ellipse transform="rotate(-45)" cx="-79.8" cy="90.9" rx="1.94" ry="4.38" fill="#9e9e9e"/>
<path d="m95.8 26.5-67.9 68c-0.76 0.76 0.01 2.76 1.72 4.46 1.71 1.71 3.71 2.48 4.46 1.72l68-68s0.42-1.88-1.98-4.21-4.21-1.97-4.21-1.97z" fill="url(#SVGID_4_)" opacity=".85"/>
<path d="m72.6 49.7-67.9 68c-0.76 0.76 0.01 2.76 1.72 4.46 1.71 1.71 3.71 2.48 4.46 1.72l68-67.9s0.42-1.88-1.98-4.21c-2.41-2.32-4.22-1.98-4.22-1.98z" fill="url(#SVGID_5_)" opacity=".22"/>
<g stroke="#e5a50a">
<path d="m68.4 18.8 5.98-5.96c0.33-0.33 0.9-0.06 0.85 0.41l-0.77 6.99c-0.03 0.27 0.16 0.52 0.44 0.55l8.56 1.02c0.5 0.06 0.61 0.74 0.14 0.95l-8.92 3.99c-0.13 0.06-0.23 0.18-0.27 0.32l-2.58 8.85c-0.12 0.43-0.7 0.49-0.91 0.1l-3.99-7.25c-0.09-0.17-0.28-0.27-0.48-0.26l-7.66 0.62c-0.47 0.04-0.72-0.53-0.39-0.85l5.08-4.95c0.15-0.14 0.19-0.37 0.11-0.56l-2.69-6.15c-0.18-0.42 0.25-0.85 0.67-0.65l6.29 2.94c0.17 0.08 0.39 0.04 0.54-0.11z" fill="url(#SVGID_6_)"/>
<path d="m90.1 63.3 4.74 2.19c0.12 0.06 0.26 0.04 0.36-0.04l4.75-3.59c0.25-0.19 0.59 0.01 0.57 0.31l-0.45 5.9c-0.01 0.13 0.05 0.26 0.17 0.33l4.53 2.8c0.27 0.17 0.2 0.59-0.12 0.65l-5.68 1.17c-0.14 0.03-0.25 0.13-0.28 0.27l-1.21 5.35c-0.07 0.32-0.5 0.38-0.66 0.09l-2.52-4.61c-0.06-0.12-0.19-0.19-0.32-0.19l-5.96 0.19c-0.31 0.01-0.48-0.35-0.29-0.59l3.84-4.59c0.09-0.1 0.11-0.24 0.06-0.37l-2.02-4.82c-0.11-0.29 0.2-0.59 0.49-0.45z" fill="url(#SVGID_7_)"/>
<path d="m110 11.6 8.43-3.74c0.42-0.19 0.79 0.23 0.57 0.63l-4.17 7.68c-0.1 0.18-0.08 0.4 0.05 0.54l9.03 8.76c0.27 0.28 0.04 0.78-0.37 0.8l-11.1-1.95c-0.17 0.01-0.33 0.11-0.42 0.27l-5.83 10.7c-0.22 0.39-0.78 0.35-0.87-0.06l-1.14-10.4c-0.04-0.18-0.2-0.31-0.39-0.33l-9.15-1.49c-0.39-0.03-0.54-0.5-0.24-0.79l7.65-5.88c0.11-0.11 0.17-0.26 0.15-0.41l-1.37-11.6c-0.04-0.44 0.51-0.73 0.82-0.43l7.82 7.62c0.13 0.12 0.33 0.15 0.51 0.08z" fill="url(#SVGID_8_)"/>
</g>
<path d="m96.3 26.9c-3.74 0.96-7.53 1.79-11.4 2.11-3.87 0.35-7.8 0.07-11.6-0.62-3.82-0.71-7.57-1.6-11.4-2.3s-7.58-1.26-11.4-1.7c-1.91-0.22-3.83-0.38-5.74-0.57-1.87-0.18-3.72-0.13-5.48 0.28-1.73 0.44-3.34 1.27-4.38 2.63-1.05 1.34-1.55 3.08-1.55 4.87-0.02 3.61 1.43 7.21 3.27 10.5 1.85 3.27 4.28 6.24 6.71 9.21 4.84 5.96 10.1 11.6 15.3 17.3 2.6 2.86 5.2 5.71 7.76 8.61 2.58 2.88 5.07 5.85 7.45 8.91 2.39 3.05 4.66 6.24 6.51 9.7 0.46 0.84 0.97 1.77 1.12 2.89 0.05 0.57-0.01 1.2-0.33 1.76s-0.85 0.91-1.36 1.14c-1.05 0.42-2.09 0.45-3.09 0.4-1-0.06-1.98-0.22-2.94-0.44-3.82-0.93-7.39-2.52-10.8-4.31-1.72-0.9-3.4-1.86-5.05-2.87-1.64-1.02-3.25-2.1-4.83-3.2 3.28 2.04 6.64 3.94 10.1 5.59 3.47 1.64 7.08 3.07 10.8 3.82 0.93 0.17 1.86 0.31 2.78 0.34s1.85-0.05 2.59-0.37c0.36-0.17 0.66-0.39 0.81-0.69 0.15-0.29 0.19-0.66 0.15-1.05-0.12-0.8-0.55-1.6-1.04-2.43-1.87-3.3-4.16-6.38-6.6-9.34-9.76-11.8-20.9-22.6-30.8-34.5-2.43-3.01-4.89-6.07-6.82-9.54-1.9-3.44-3.47-7.26-3.42-11.4 0.02-2.06 0.62-4.23 1.98-5.93 1.35-1.73 3.37-2.73 5.36-3.21 2.01-0.44 4.07-0.49 6.04-0.26 1.92 0.24 3.85 0.44 5.77 0.71 3.84 0.54 7.66 1.2 11.4 1.99 3.79 0.8 7.54 1.76 11.3 2.57 3.74 0.82 7.56 1.25 11.4 1.05 3.83-0.18 7.64-0.83 11.4-1.58z" fill="#fdd835"/>
<path d="m67.8 35.6c-11.2 2.62-24.2-5-36.1-3.66-4.55 0.6-6.42 6.04-2.05 14.7 8.58 14.8 21.1 23.5 25.7 28.9-6.21-3.48-19-12.6-27.8-21.3-13.4-12.8-10.9-28.8 1.5-28.8 4.15-0.4 12.2 1.6 15.5 2.83 3.31 1.33 14.6 6.24 23.2 7.3z" fill="url(#SVGID_9_)"/>
</svg>
