<?xml version="1.0" encoding="UTF-8"?>
<!-- Generator: Adobe Illustrator 24.1.2, SVG Export Plug-In . SVG Version: 6.00 Build 0)  -->
<svg enable-background="new 0 0 128 128" version="1.1" viewBox="0 0 128 128" xml:space="preserve" xmlns="http://www.w3.org/2000/svg">
<path id="SVGID_5_" d="m109.44 34.58c-10.76-8.62-25.91-10.36-45.25-10.36-19.21 0-34.27 1.67-45.03 10.18-16.26 12.89-20.64 41.86-10.11 60.41 10.19 17.95 23.7 25.64 55.14 25.64 31.45 0 46.58-8.9 55.15-25.64 9.67-18.88 6.16-47.38-9.9-60.23zm-52.16 43.14 5.09-6.33c0.89-1.1 2.42-1.16 3.38-0.12l6.08 6.57c0.97 1.04 0.6 1.89-0.83 1.89h-12.75c-1.43-0.01-1.86-0.92-0.97-2.01zm-28.45-7.85 11.08-12.48c0.64-0.72 1.49-0.6 1.89 0.27l6.72 14.36c0.41 0.86-0.04 1.49-0.99 1.38l-18.13-2.04c-0.94-0.11-1.2-0.78-0.57-1.49zm67.39 15.9-4.83 15.88c-0.34 1.1-1.37 1.55-2.29 1l-5.01-2.97c-0.91-0.55-2.4-0.51-3.29 0.09l-6.49 4.34c-0.9 0.6-2.32 0.53-3.16-0.16l-5.36-4.35c-0.84-0.68-2.2-0.66-3.02 0.06l-5.29 4.62c-0.83 0.71-2.24 0.84-3.15 0.28l-6.75-4.16c-0.91-0.56-2.43-0.61-3.38-0.13l-5.43 2.79c-0.94 0.48-2.03 0-2.4-1.08l-5.67-16.24c-0.37-1.08 0.09-1.57 1.04-1.08l8.05 4.15c0.95 0.48 2.36 0.25 3.15-0.51l3.26-3.15c0.78-0.76 2.17-0.91 3.08-0.34l6.31 3.99c0.9 0.57 2.32 0.46 3.14-0.25l4.03-3.48c0.81-0.71 2.21-0.77 3.08-0.13l5.12 3.74c0.87 0.65 2.31 0.67 3.2 0.07l4.79-3.28c0.89-0.61 2.31-0.56 3.16 0.11l3.91 3.06c0.85 0.67 2.28 0.74 3.19 0.14l5.98-3.93c0.91-0.6 1.37-0.18 1.03 0.92zm2.91-14.65-18.07 2.47c-0.95 0.13-1.41-0.49-1.02-1.36l6.37-14.51c0.38-0.88 1.23-1.03 1.88-0.32l11.38 12.22c0.64 0.69 0.4 1.36-0.54 1.5z" fill="#f57c00"/><path d="m54.738 24.422c-3.5966 0.14622-7.0665 0.36965-10.32 0.76758 1.7755 0.01746 3.5565 0.19224 5.3125 0.5 1.73 0.31 3.3503 0.73125 4.8203 1.2812 0.53 0.2 1.0288 0.43922 1.5488 0.69922-10.72 0.71-19.389 3.2298-25.959 10.26-14.08 15.04-18.34 41.47-9.9297 61.48 2.7915 6.6432 6.2192 11.862 10.52 15.857 2.4366 1.0335 5.0726 1.912 7.9551 2.627-7.2292-3.9556-12.401-10.288-16.266-19.494-8.05-19.13-4.0001-44.38 9.4199-58.73 5.69-6.09 13.219-8.5291 22.529-9.3691-2.03 1.63-3.8684 4.1398-5.3984 8.0098-5.88 14.89-7.6504 41.039-4.1504 60.809 1.7473 9.8475 4.1053 16.631 7.4316 20.875 1.1697 0.09425 2.3894 0.16471 3.6211 0.22852-4.0226-3.5409-6.7417-10.43-8.7129-21.533-3.43-19.37-1.71-44.91 4-59.41 2.94-7.41 6.8298-9.1801 12.09-9.3301 0.1 0 0.18906 0.03125 0.28906 0.03125h0.041016c0.37 0 0.76992-0.01125 1.1699-0.03125h0.2793v0.021484c0.04 0 0.071328-0.021484 0.11133-0.021484 5.14 0.22 8.9694 2.09 11.859 9.5 5.51 14.12 7.1697 39.04 3.9297 59.25-1.7043 10.742-4.6627 17.857-8.9297 21.523 1.2429-0.06684 2.4862-0.13259 3.6719-0.23243 3.573-4.3705 6.1013-11.294 7.6387-20.891 3.29-20.61 1.5799-46.1-4.0801-60.6-1.56-3.99-3.4398-6.5609-5.5098-8.2109 9.45 0.83 17.109 3.3105 22.879 9.5605 12.94 13.97 16.82 38.62 9.25 58.59-3.3648 8.8747-8.6471 15.234-16.098 19.279 2.8375-0.72429 5.4504-1.596 7.8691-2.6035 4.5291-4.0614 8.0103-9.2967 10.459-15.756 7.91-20.84 3.8-46.6-9.75-61.25-6.66-7.19-15.419-9.749-26.279-10.459 0.73-0.23 1.4598-0.45945 2.2598-0.68945 2.19-0.64 4.439-1.1201 6.709-1.3301 0.96-0.09 1.9309-0.021796 2.8809-0.091797 0.41239-0.026894 0.79604-0.14558 1.209-0.17969-3.4609-0.47029-7.1592-0.74243-11.018-0.91211-0.14153 0.039622-0.27957 0.071995-0.42188 0.11328-2.31 0.67-4.3407 1.3295-6.2207 2.0195-0.27 0.1-0.55938 0.23914-0.85938 0.36914-0.25 0.11-0.53078 0.24008-0.80078 0.33008-0.31 0.07-0.61922 0.14016-0.94922 0.16016-0.23 0-0.4593-0.009766-0.7793-0.009765-0.02 0-0.050078 0.009765-0.080078 0.009765h-0.75c-0.75-0.05-1.4905-0.21969-2.3105-0.42969l-0.56055-0.14062c-0.62-0.15-1.1502-0.28836-1.6602-0.56836-1.13-0.66-2.1794-1.2514-3.3594-1.6914-0.19155-0.069438-0.40554-0.12125-0.60156-0.1875z" fill="#ff9800"/>
						
					<path id="SVGID_3_" d="m58.61 26.89c-0.06-1.05 0.06-2.15 0.06-3 0-2.69-1.41-4.92-3.27-6.75-1.56-1.54-4.22-2.48-5.58-4.06-0.39-0.46-0.83-1.89-0.75-2.45 0.34-2.4 2.39-5.03 4.87-5.45 1.31-0.21 2.44 0.23 3.45 0.99 5.66 4.27 10.35 7.84 11.28 15.31 0.18 1.47 0.54 3 0.53 4.52-0.01 2.43-0.74 3.29-3.16 3.92-1.63 0.43-4.69 0.63-6.2-0.3-0.87-0.55-1.16-1.59-1.23-2.73z" fill="#2e7d32"/><g fill="#422B0D">
<path d="m57.28 77.72 5.09-6.33c0.89-1.1 2.42-1.16 3.38-0.12l6.08 6.57c0.97 1.04 0.6 1.89-0.83 1.89h-12.75c-1.43-0.01-1.86-0.92-0.97-2.01z"/>
<path d="m28.83 69.87 11.08-12.48c0.64-0.72 1.49-0.6 1.89 0.27l6.72 14.36c0.41 0.86-0.04 1.49-0.99 1.38l-18.13-2.04c-0.94-0.11-1.2-0.78-0.57-1.49z"/>
<path d="m96.22 85.77-4.83 15.88c-0.34 1.1-1.37 1.55-2.29 1l-5.01-2.97c-0.91-0.55-2.4-0.51-3.29 0.09l-6.49 4.34c-0.9 0.6-2.32 0.53-3.16-0.16l-5.36-4.35c-0.84-0.68-2.2-0.66-3.02 0.06l-5.29 4.62c-0.83 0.71-2.24 0.84-3.15 0.28l-6.75-4.16c-0.91-0.56-2.43-0.61-3.38-0.13l-5.43 2.79c-0.94 0.48-2.03 0-2.4-1.08l-5.67-16.24c-0.37-1.08 0.09-1.57 1.04-1.08l8.05 4.15c0.95 0.48 2.36 0.25 3.15-0.51l3.26-3.15c0.78-0.76 2.17-0.91 3.08-0.34l6.31 3.99c0.9 0.57 2.32 0.46 3.14-0.25l4.03-3.48c0.81-0.71 2.21-0.77 3.08-0.13l5.12 3.74c0.87 0.65 2.31 0.67 3.2 0.07l4.79-3.28c0.89-0.61 2.31-0.56 3.16 0.11l3.91 3.06c0.85 0.67 2.28 0.74 3.19 0.14l5.98-3.93c0.91-0.6 1.37-0.18 1.03 0.92z"/>
<path d="m99.13 71.12-18.07 2.47c-0.95 0.13-1.41-0.49-1.02-1.36l6.37-14.51c0.38-0.88 1.23-1.03 1.88-0.32l11.38 12.22c0.64 0.69 0.4 1.36-0.54 1.5z"/>
</g></svg>
