<?xml version="1.0" encoding="UTF-8"?>
<!-- Generator: Adobe Illustrator 24.0.3, SVG Export Plug-In . SVG Version: 6.00 Build 0)  -->
<svg enable-background="new 0 0 128 128" version="1.1" viewBox="0 0 128 128" xml:space="preserve" xmlns="http://www.w3.org/2000/svg"><defs>
	
		<radialGradient id="XMLID_3_" cx="64" cy="98.344" r="34.638" gradientTransform="matrix(1 0 0 -.9806 0 127.58)" gradientUnits="userSpaceOnUse">
		<stop stop-color="#ff0" offset="0"/>
		<stop stop-color="#FFF600" offset=".325"/>
		<stop stop-color="#FFDE00" offset=".8535"/>
		<stop stop-color="#FFD600" offset=".9978"/>
	</radialGradient>
	
	
		<linearGradient id="SVGID_12_" x1="64.322" x2="64.322" y1="125.26" y2="88.227" gradientTransform="matrix(1,0,0,-1,0,130)" gradientUnits="userSpaceOnUse">
		<stop stop-color="#ff0" offset="0"/>
		<stop stop-color="#FFF900" offset=".4462"/>
		<stop stop-color="#FFEA00" offset="1"/>
	</linearGradient>
	
	
	

			
			
			
		
			
			
			
		</defs>
<g id="hairGroup_3_">
	<path id="hair_4_" d="m98.54 79.48c-1.28-2.3 0.24-4.63 2.84-7.5 4.12-4.54 8.41-14.96 3.88-25.4 0.02-0.06-0.88-1.8-0.86-1.86l-1.74-0.09c-0.56-0.08-19.6-0.12-38.67-0.12s-38.11 0.04-38.67 0.12c0 0-2.62 1.89-2.59 1.95-4.53 10.44-0.24 20.86 3.88 25.4 2.61 2.87 4.12 5.2 2.84 7.5-1.25 2.24-4.83 2.57-4.83 2.57s0.77 2.3 2.73 3.54c1.82 1.15 4.07 1.42 5.64 1.46 0 0 5.98 8.75 22.05 8.75h8.95 8.95c16.08 0 22.05-8.75 22.05-8.75 1.57-0.04 3.82-0.31 5.64-1.46 1.96-1.24 2.73-3.54 2.73-3.54s-3.58-0.33-4.82-2.57z" fill="#543930"/>
	<g id="hairHighlights_2_">
		
			<radialGradient id="SVGID_1_" cx="99.72" cy="45.167" r="23.635" gradientTransform="matrix(1 0 0 .4912 -21.218 59.61)" gradientUnits="userSpaceOnUse">
			<stop stop-color="#6D4C41" stop-opacity="0" offset=".7275"/>
			<stop stop-color="#6D4C41" offset="1"/>
		</radialGradient>
		<path d="m63.99 95.79v-9.7l28.35-2.31 2.64 3.26s-5.98 8.75-22.05 8.75h-8.94z" fill="url(#SVGID_1_)"/>
		
			<radialGradient id="SVGID_2_" cx="78.394" cy="52.487" r="6.9346" gradientTransform="matrix(-.9057 .4238 -.3144 -.6719 188.82 80.345)" gradientUnits="userSpaceOnUse">
			<stop stop-color="#6D4C41" offset=".6628"/>
			<stop stop-color="#6D4C41" stop-opacity="0" offset="1"/>
		</radialGradient>
		<path d="m94.84 82.84c-4.36-6.58 4.96-9.02 4.96-9.02s0.01 0.01 0.01 0.01c-1.58 2.07-2.28 3.87-1.29 5.66 1.25 2.24 4.83 2.57 4.83 2.57s-4.76 4.43-8.51 0.78z" fill="url(#SVGID_2_)"/>
		
			<radialGradient id="SVGID_3_" cx="97.16" cy="68.993" r="30.046" gradientTransform="matrix(-.0746 -.9972 .8311 -.0622 33.045 160.08)" gradientUnits="userSpaceOnUse">
			<stop stop-color="#6D4C41" stop-opacity="0" offset=".7247"/>
			<stop stop-color="#6D4C41" offset="1"/>
		</radialGradient>
		<path d="m105.28 46.58c4.42 10.11 0.34 20.66-3.66 25.15-0.55 0.62-2.9 3.02-3.4 4.95 0 0-9.64-13.31-12.54-21.02-0.58-1.55-1.11-3.14-1.2-4.78-0.07-1.23 0.1-2.68 0.79-3.72 0.84-1.27 19.49-1.65 19.49-1.65 0 0.01 0.52 1.07 0.52 1.07z" fill="url(#SVGID_3_)"/>
		
			<radialGradient id="SVGID_4_" cx="46.811" cy="71.386" r="30.046" gradientTransform="matrix(.0746 -.9972 -.8311 -.0622 100.72 110.02)" gradientUnits="userSpaceOnUse">
			<stop stop-color="#6D4C41" stop-opacity="0" offset=".7247"/>
			<stop stop-color="#6D4C41" offset="1"/>
		</radialGradient>
		<path d="m22.74 46.58c-4.42 10.11-0.34 20.66 3.66 25.15 0.55 0.62 2.9 3.02 3.4 4.95 0 0 9.64-13.31 12.54-21.02 0.58-1.55 1.11-3.14 1.2-4.78 0.07-1.23-0.1-2.68-0.79-3.72-0.84-1.27-1.85-0.93-3.32-0.93-2.79 0-14.98-0.71-15.93-0.71 0.01 0-0.76 1.06-0.76 1.06z" fill="url(#SVGID_4_)"/>
		
			<radialGradient id="SVGID_5_" cx="51.52" cy="45.167" r="23.635" gradientTransform="matrix(-1 0 0 .4912 101.04 59.61)" gradientUnits="userSpaceOnUse">
			<stop stop-color="#6D4C41" stop-opacity="0" offset=".7275"/>
			<stop stop-color="#6D4C41" offset="1"/>
		</radialGradient>
		<path d="m64.03 95.79v-9.7l-28.35-2.31-2.64 3.26s5.98 8.75 22.05 8.75h8.94z" fill="url(#SVGID_5_)"/>
		
			<radialGradient id="SVGID_6_" cx="26.384" cy="51.344" r="6.9345" gradientTransform="matrix(.9057 .4238 .3144 -.6719 -13.326 101.62)" gradientUnits="userSpaceOnUse">
			<stop stop-color="#6D4C41" offset=".6628"/>
			<stop stop-color="#6D4C41" stop-opacity="0" offset="1"/>
		</radialGradient>
		<path d="m33.18 82.84c4.36-6.58-4.96-9.02-4.96-9.02s-0.01 0.01-0.01 0.01c1.58 2.07 2.28 3.87 1.29 5.66-1.25 2.24-4.83 2.57-4.83 2.57s4.76 4.43 8.51 0.78z" fill="url(#SVGID_6_)"/>
	</g>
</g>
<g id="shirt_1_">
	
		<linearGradient id="SVGID_7_" x1="64" x2="64" y1="34.219" y2="-7.5978" gradientTransform="matrix(1 0 0 -1 0 130)" gradientUnits="userSpaceOnUse">
		<stop stop-color="#448AFF" offset=".0032"/>
		<stop stop-color="#3B7DFF" offset=".4042"/>
		<stop stop-color="#2962FF" offset="1"/>
	</linearGradient>
	<path d="m116 123.96v-3.12c0-16.78-26.35-25.09-52-25.06-25.49 0.03-52 7.28-52 25.06v3.12h104z" fill="url(#SVGID_7_)"/>
</g>
<g id="neck_2_">
	<path id="neck" d="m64 90.11h-9.08v9.98c0 4.51 3.7 8.17 8.26 8.17h1.65c4.56 0 8.26-3.66 8.26-8.17v-9.98h-9.09z" fill="#E59600"/>
</g>
<g id="safety_x5F_jacket_1_">
	
		
			
				
					<linearGradient id="SVGID_8_" x1="44.025" x2="44.025" y1="31.848" y2="-5.8708" gradientTransform="matrix(1 0 0 -1 0 130)" gradientUnits="userSpaceOnUse">
					<stop stop-color="#FF9100" offset=".0032"/>
					<stop stop-color="#FF8400" offset=".4399"/>
					<stop stop-color="#FF6D00" offset="1"/>
				</linearGradient>
				<path d="m58.5 123.96h-28.95v-22.74c1.79-0.7 3.68-1.32 5.64-1.86 2.89-0.82 5.94-1.49 9.1-2.01 2.14-0.36 4.33-0.65 6.55-0.88l7.66 27.49z" fill="url(#SVGID_8_)"/>
			
		
		
			<linearGradient id="SVGID_9_" x1="43.075" x2="43.075" y1="32.056" y2="-6.655" gradientTransform="matrix(1 0 0 -1 0 130)" gradientUnits="userSpaceOnUse">
			<stop stop-color="#ff0" offset=".0032"/>
			<stop stop-color="#FFF200" offset=".6783"/>
			<stop stop-color="#FFEA00" offset="1"/>
		</linearGradient>
		<path d="m50.96 123.96h-14.67l-1.1-24.6c2.89-0.82 5.94-1.49 9.1-2.01l6.67 26.61z" fill="url(#SVGID_9_)"/>
	
	
		
			
				
					<linearGradient id="SVGID_10_" x1="83.975" x2="83.975" y1="31.811" y2="-5.8534" gradientTransform="matrix(1 0 0 -1 0 130)" gradientUnits="userSpaceOnUse">
					<stop stop-color="#FF9100" offset=".0032"/>
					<stop stop-color="#FF8400" offset=".4399"/>
					<stop stop-color="#FF6D00" offset="1"/>
				</linearGradient>
				<path d="m98.45 101.52v22.44h-28.95l7.65-27.45c2.21 0.24 4.4 0.56 6.53 0.94 3.17 0.57 6.23 1.27 9.12 2.13 1.97 0.58 3.86 1.23 5.65 1.94z" fill="url(#SVGID_10_)"/>
			
		
		
			<linearGradient id="SVGID_11_" x1="84.92" x2="84.92" y1="31.958" y2="-6.6073" gradientTransform="matrix(1 0 0 -1 0 130)" gradientUnits="userSpaceOnUse">
			<stop stop-color="#ff0" offset=".0032"/>
			<stop stop-color="#FFF200" offset=".6783"/>
			<stop stop-color="#FFEA00" offset="1"/>
		</linearGradient>
		<path d="m92.8 99.58-1.09 24.38h-14.67l6.64-26.51c3.17 0.57 6.23 1.27 9.12 2.13z" fill="url(#SVGID_11_)"/>
	
</g>
<g id="ears_1_">
	<path id="ears" d="m91.33 50.43h-54.66c-5.89 0-10.71 5.14-10.71 11.41s4.82 11.41 10.71 11.41h54.65c5.89 0 10.71-5.14 10.71-11.41s-4.81-11.41-10.7-11.41z" fill="#E59600"/>
</g>
<path id="head_2_" d="m64 11.11c-17.4 0-33.52 18.61-33.52 45.39 0 26.64 16.61 39.81 33.52 39.81s33.52-13.17 33.52-39.81c0-26.78-16.12-45.39-33.52-45.39z" fill="#FFCA28"/>
<g id="eyes_2_" fill="#404040">
	<ellipse cx="48.4" cy="58.81" rx="4.93" ry="5.1"/>
	<ellipse cx="79.6" cy="58.81" rx="4.93" ry="5.1"/>
</g>
<g id="eyebrow_1_" fill="#6D4C41">
	<path d="m55.64 49.82c-0.93-1.23-3.07-3.01-7.23-3.01s-6.31 1.79-7.23 3.01c-0.41 0.54-0.31 1.17-0.02 1.55 0.26 0.35 1.04 0.68 1.9 0.39s2.54-1.16 5.35-1.18c2.81 0.02 4.49 0.89 5.35 1.18s1.64-0.03 1.9-0.39c0.28-0.38 0.39-1.01-0.02-1.55z"/>
	<path d="m86.83 49.82c-0.93-1.23-3.07-3.01-7.23-3.01s-6.31 1.79-7.23 3.01c-0.41 0.54-0.31 1.17-0.02 1.55 0.26 0.35 1.04 0.68 1.9 0.39s2.54-1.16 5.35-1.18c2.81 0.02 4.49 0.89 5.35 1.18s1.64-0.03 1.9-0.39c0.28-0.38 0.39-1.01-0.02-1.55z"/>
</g>
<path id="nose_2_" d="m67.86 68.06c-0.11-0.04-0.21-0.07-0.32-0.08h-7.08c-0.11 0.01-0.22 0.04-0.32 0.08-0.64 0.26-0.99 0.92-0.69 1.63s1.71 2.69 4.55 2.69 4.25-1.99 4.55-2.69c0.3-0.71-0.05-1.37-0.69-1.63z" fill="#E59600"/>
<path id="mouth_2_" d="m72.42 76.14c-3.18 1.89-13.63 1.89-16.81 0-1.83-1.09-3.7 0.58-2.94 2.24 0.75 1.63 6.44 5.42 11.37 5.42s10.55-3.79 11.3-5.42c0.75-1.66-1.09-3.33-2.92-2.24z" fill="#795548"/>
<g id="hairGroup_2_">
	<path id="hair_1_" d="m64 11.07c-37.26 0-34.74 41.41-34.74 41.41-0.46 8.01 1.03 12.94 1.82 14.93 0.14 0.35 0.63 0.32 0.72-0.04 0.99-3.97 4.36-17.8 4.03-20.21 0 0 11.35-2.25 22.17-10.22 2.2-1.62 4.59-3 7.13-4.01 13.59-5.41 16.43 3.82 16.43 3.82s9.42-1.81 12.26 11.27c1.07 4.9 1.79 12.75 2.4 18.24 0.04 0.39 0.57 0.47 0.72 0.11 0.95-2.18 3.1-6.48 3.3-10.91 0.69-14.78-8.06-44.39-36.24-44.39z" fill="#543930"/>
</g>
<path id="XMLID_4_" d="m64.41 7.92c-46.76 0-43.24 46.43-43.24 46.43s12.21-10.8 43.5-10.8 42.1 9.8 42.1 9.8 4.4-45.43-42.36-45.43z" fill="url(#XMLID_3_)"/><path d="m74.72 42.15h-20.8v-33.1c0-2.79 2.26-5.05 5.05-5.05h10.7c2.79 0 5.05 2.26 5.05 5.05z" fill="url(#SVGID_12_)"/><g fill="#edbf00">
		<path id="XMLID_1_" d="m54.07 8.7793c-2.4115 0.42492-4.6496 0.99659-6.7227 1.6973 3.3792 3.7158 5.3435 10.895 6.7227 20.744v-22.441z" enable-background="new" opacity=".5"/>
				
			
		<path d="m74.76 8.7656v22.455c1.3823-9.8723 3.3526-17.061 6.7461-20.77-2.0758-0.69583-4.32-1.2645-6.7461-1.6855z" enable-background="new" opacity=".5"/>
				
			
	</g><path d="m109.53 50.99c-0.25-0.42-0.64-0.74-1.07-0.99-18.1-10.42-44.46-10.07-44.46-10.07s-26.36-0.35-44.46 10.07c-0.44 0.25-0.82 0.57-1.07 0.99-0.53 0.9-0.97 2.61 0.75 5.08 0 0 10.95-10.85 44.78-11.53 33.82 0.69 44.78 11.53 44.78 11.53 1.72-2.47 1.28-4.18 0.75-5.08z" fill="#ffea00"/>
</svg>
