<?xml version="1.0" encoding="UTF-8"?>
<svg enable-background="new 0 0 128 128" version="1.1" viewBox="0 0 128 128" xmlns="http://www.w3.org/2000/svg">
 <radialGradient id="h" cx="65.852" cy="62.48" r="59.219" gradientTransform="matrix(-.698 .7161 -.7228 -.7045 156.98 59.344)" gradientUnits="userSpaceOnUse">
  <stop stop-color="#FFB300" offset=".2489"/>
  <stop stop-color="#FFCA28" offset=".6833"/>
  <stop stop-color="#FFB300" offset="1"/>
 </radialGradient>
 <path d="m63.34 122.5c-31.12 0-52.85-22.87-52.85-55.61v-31.18c0-2.62 6.47-5.41 24.62-5.41 27.07 0 65.22 6.15 72.88 10.57 9.36 5.41 13.08 24.32 8.29 42.17-3.17 11.87-14.7 39.46-52.94 39.46z" fill="url(#h)"/>
 <path d="m35.12 31.8c26.88 0 64.62 6.03 72.13 10.37 4 2.31 7.16 7.8 8.66 15.05 1.62 7.8 1.24 16.83-1.07 25.43-2.01 7.51-6.47 18.2-16.24 26.53-9.22 7.84-21.08 11.82-35.26 11.82-15.3 0-28.31-5.46-37.65-15.79-8.83-9.77-13.69-23.38-13.69-38.32v-31.18c0-0.78 4.11-3.91 23.12-3.91m0-3c-14.94 0-26.12 1.88-26.12 6.91v31.18c0 31.41 20.48 57.11 54.34 57.11 61.43 0 66.24-72.39 45.4-84.43-8.25-4.77-46.93-10.77-73.62-10.77z" fill="#EDA600"/>
 <radialGradient id="g" cx="17.07" cy="-32.748" r="42.785" fx="25.956" fy="-74.6" gradientTransform="matrix(.0050598 1.0512 -.3363 .0024721 61.534 -4.1499)" gradientUnits="userSpaceOnUse">
  <stop stop-color="#FFCA28" offset=".5993"/>
  <stop stop-color="#FFB300" offset="1"/>
 </radialGradient>
 <path d="m72.63 61.38c-6.76 0-12.26-5.5-12.26-12.26v-31.36c0-6.76 5.5-12.26 12.26-12.26s12.26 5.5 12.26 12.26v31.36c0 6.76-5.5 12.26-12.26 12.26z" fill="url(#g)"/>
 <path d="m72.63 7c5.93 0 10.76 4.83 10.76 10.76v31.35c0 5.93-4.83 10.76-10.76 10.76s-10.76-4.83-10.76-10.76v-31.35c0-5.93 4.83-10.76 10.76-10.76m0-3c-7.6 0-13.76 6.16-13.76 13.76v31.35c0 7.6 6.16 13.76 13.76 13.76s13.76-6.16 13.76-13.76v-31.35c0-7.6-6.16-13.76-13.76-13.76z" fill="#EDA600"/>
 <radialGradient id="f" cx="111.02" cy="-15.668" r="38.103" gradientTransform="matrix(-.0821 1.0478 -.3153 -.0287 103.34 -98.838)" gradientUnits="userSpaceOnUse">
  <stop stop-color="#FFCA28" offset=".5993"/>
  <stop stop-color="#FFB300" offset="1"/>
 </radialGradient>
 <path d="m97.84 64.21c-0.22 0-0.45-0.01-0.68-0.02-3.27-0.18-6.28-1.62-8.46-4.06s-3.29-5.58-3.11-8.85l1.7-31.31c0.35-6.5 5.73-11.59 12.23-11.59 0.22 0 0.45 0.01 0.68 0.02 3.27 0.18 6.27 1.62 8.46 4.06s3.29 5.58 3.11 8.85l-1.7 31.31c-0.36 6.5-5.73 11.59-12.23 11.59z" fill="url(#f)"/>
 <path d="m99.51 9.88c0.2 0 0.4 0.01 0.6 0.02 2.87 0.16 5.51 1.42 7.43 3.56s2.89 4.9 2.73 7.77l-1.7 31.31c-0.31 5.71-5.02 10.18-10.73 10.18-0.2 0-0.4-0.01-0.6-0.02-2.87-0.16-5.51-1.42-7.43-3.56s-2.89-4.9-2.73-7.77l1.7-31.31c0.31-5.71 5.03-10.18 10.73-10.18m0-3c-7.26 0-13.33 5.68-13.73 13.01l-1.7 31.31c-0.41 7.59 5.4 14.07 12.99 14.49 0.25 0.01 0.51 0.02 0.76 0.02 7.26 0 13.33-5.68 13.73-13.01l1.7-31.31c0.41-7.59-5.4-14.07-12.99-14.49-0.25-0.01-0.5-0.02-0.76-0.02z" fill="#EDA600"/>
 <radialGradient id="e" cx="-65.014" cy="-38.488" r="32.108" gradientTransform="matrix(.0645 1.048 -.3973 .0266 35.223 91.454)" gradientUnits="userSpaceOnUse">
  <stop stop-color="#FFCA28" offset=".5993"/>
  <stop stop-color="#FFB300" offset="1"/>
 </radialGradient>
 <path d="m48.17 60.2c-6.69 0-12.2-5.24-12.55-11.93l-1.32-25.79c-0.17-3.35 0.97-6.57 3.22-9.07 2.25-2.49 5.34-3.96 8.69-4.13 0.22-0.01 0.44-0.02 0.65-0.02 6.69 0 12.2 5.24 12.55 11.93l1.32 25.79c0.35 6.92-4.99 12.85-11.92 13.2-0.2 0.02-0.42 0.02-0.64 0.02z" fill="url(#e)"/>
 <path d="m46.88 7.76v3c5.89 0 10.75 4.62 11.05 10.51l1.32 25.79c0.31 6.1-4.4 11.31-10.49 11.63-0.19 0.01-0.39 0.01-0.58 0.01-5.89 0-10.75-4.62-11.05-10.51l-1.32-25.79c-0.15-2.95 0.86-5.79 2.84-7.99s4.7-3.49 7.66-3.64c0.19-0.01 0.39-0.01 0.58-0.01l-0.01-3m0 0c-0.24 0-0.49 0.01-0.73 0.02-7.76 0.4-13.73 7.01-13.34 14.78l1.32 25.79c0.38 7.52 6.6 13.36 14.04 13.36 0.24 0 0.49-0.01 0.73-0.02 7.76-0.4 13.73-7.01 13.34-14.78l-1.32-25.79c-0.38-7.52-6.6-13.36-14.04-13.36z" fill="#EDA600"/>
 <radialGradient id="d" cx="-91.431" cy="-43.722" r="41.572" gradientTransform="matrix(.0573 1.0482 -.3814 .0205 9.6818 115.88)" gradientUnits="userSpaceOnUse">
  <stop stop-color="#FFCA28" offset=".5993"/>
  <stop stop-color="#FFB300" offset="1"/>
 </radialGradient>
 <path d="m23.19 63.2c-6.61 0-12.08-5.17-12.45-11.78l-1.11-19.67c-0.39-6.87 4.89-12.78 11.76-13.17 0.24-0.01 0.48-0.02 0.71-0.02 6.61 0 12.08 5.17 12.45 11.78l1.11 19.67c0.19 3.33-0.93 6.53-3.15 9.02s-5.28 3.96-8.61 4.15c-0.23 0.01-0.47 0.02-0.71 0.02z" fill="url(#d)"/>
 <path d="m22.11 17.07v3c5.81 0 10.62 4.55 10.95 10.36l1.11 19.67c0.34 6.05-4.3 11.24-10.35 11.58-0.21 0.01-0.42 0.02-0.63 0.02-5.81 0-10.62-4.55-10.95-10.36l-1.11-19.67c-0.17-2.93 0.82-5.75 2.77-7.93 1.95-2.19 4.64-3.48 7.57-3.65 0.21-0.01 0.42-0.02 0.63-0.02l0.01-3m0 0c-0.26 0-0.53 0.01-0.8 0.02-7.71 0.43-13.61 7.04-13.17 14.75l1.11 19.66c0.42 7.44 6.59 13.19 13.95 13.19 0.26 0 0.53-0.01 0.8-0.02 7.71-0.44 13.61-7.04 13.17-14.75l-1.11-19.67c-0.43-7.43-6.59-13.18-13.95-13.18z" fill="#EDA600"/>
 <path d="m104.72 72.34c-5.7-1.29-11.87-1.58-17.14 1.34-5.42 2.99-7.96 8.7-9.85 14.31-0.62 1.83 2.28 2.62 2.89 0.8 1.65-4.88 3.73-9.89 8.47-12.52 4.55-2.52 9.94-2.15 14.83-1.04 1.88 0.43 2.68-2.46 0.8-2.89z" fill="#EDA600"/>
 <defs>
  <radialGradient id="a" cx="-18.256" cy="205.46" r="188.69" gradientTransform="matrix(.7956 0 0 .8691 75.045 -122.3)" gradientUnits="userSpaceOnUse">
   <stop stop-color="#FFCA28" offset="0"/>
   <stop stop-color="#FFB300" offset="1"/>
  </radialGradient>
 </defs>
 <path d="m85.73 43.65c-2.93 0.33-26.961 2.9902-31.201 2.9902-2.84 0-4.9698 1.0288-6.3398 3.0488-1.96 2.9-1.8695 7.1897-0.76953 9.9297 1.8 4.48 6.9905 7.8613 12.061 7.8613 0.32 0 0.63898-0.011016 0.95898-0.041016 4.19-0.38 7.7602-0.57031 10.91-0.57031 12.81 0 17.02 3.3 19.4 8.25 1.7032 3.5377 3.8025 6.5608 5.959 8.7461 0.93048 0.095854 1.8876 0.099078 2.8809 0.064454 8.3-0.29 12.591-12.589 12.881-24.039 0.06236-2.5195-0.99695-4.7269-2.7266-6.6543-7.4278-4.8231-18.435-8.265-24.014-9.5859z" fill="url(#a)"/>
 <path d="m84.566 42.287c-2.2228 0.24777-25.836 2.873-30.027 2.873-9.19 0-10.7 9.5691-8.5098 15.039 1.9303 4.8069 7.2061 8.3309 12.404 8.7559 0.048626-0.003817 0.097955-0.00144 0.14648-0.005859 4.4848-0.41064 8.2099-0.57484 11.381-0.54688 0.46962-0.008221 0.9513-0.021485 1.3984-0.021485 12.09 0 15.871 2.8884 18.041 7.3984 1.3795 2.8656 3.0054 5.4104 4.7363 7.4902 1.5276 0.59252 3.1272 0.69663 4.8203 0.66602-2.2692-1.9159-4.7502-5.0869-6.8477-9.4551-3.15-6.55-8.97-9.0996-20.75-9.0996-3.19 0-6.8088 0.19008-11.049 0.58008-0.27 0.019999-0.55008 0.039062-0.83008 0.039062-4.42 0-9.1102-3.0399-10.66-6.9199-0.93-2.31-1.0309-6.0893 0.61914-8.5293 1.09-1.61 2.7596-2.3906 5.0996-2.3906 4.22 0 27.241-2.5407 31.111-2.9707 8.381 2.0094 20.203 6.3053 26.252 11.477-3.676-9.6701-24.049-13.775-27.336-14.379z" fill="#eda600"/>
</svg>
