<?xml version="1.0" encoding="UTF-8"?>
<svg enable-background="new 0 0 128 128" version="1.1" viewBox="0 0 128 128" xmlns="http://www.w3.org/2000/svg">
<g id="helmet_x5F_back">
<g fill="#EF5350">
<path d="m111 59.1v-0.04c0.01 0.02 0.04 0.06 0.04 0.06s2.39 14.4 2.39 17.3c0 17.6-23.3 24.7-48.7 24.7v-55.3c19.3 0.12 30.1 4.58 37.3 8.29 3.36 1.74 8.98 5.04 8.98 5.04z"/>
<path d="m17 59.1v-0.04c-0.01 0.02-0.04 0.06-0.04 0.06s-2.39 14.4-2.39 17.3c0 17.6 23.3 24.7 48.7 24.7v-55.3c-19.3 0.12-30.1 4.58-37.3 8.29-3.36 1.74-8.98 5.04-8.98 5.04z"/>
</g>
<linearGradient id="SVGID_1_" x1="85.7" x2="85.7" y1="83.4" y2="30.7" gradientTransform="matrix(1 0 0 -1 0 128)" gradientUnits="userSpaceOnUse">
<stop stop-color="#B71C1C" offset=".255"/>
<stop stop-color="#D32F2F" offset="1"/>
</linearGradient>
<path d="m100 48.3c2.62 2.85 7.14 6.77 7.85 10.5 1.13 5.96 1.15 15.2 1.15 17 0 8.92-7.34 14.7-16.8 18.7-14.3 6.08-30.4-4.13-30.4-19.1v-13.5c0-19.1 24.7-28.2 37.9-13.9l0.3 0.33z" fill="url(#SVGID_1_)"/>
<linearGradient id="SVGID_2_" x1="42.9" x2="42.9" y1="83.4" y2="30.7" gradientTransform="matrix(1 0 0 -1 0 128)" gradientUnits="userSpaceOnUse">
<stop stop-color="#B71C1C" offset=".255"/>
<stop stop-color="#D32F2F" offset="1"/>
</linearGradient>
<path d="m28 48.3c-2.62 2.85-6.52 6.77-7.23 10.5-1.13 5.96-1.31 14.7-1.31 16.5 0 8.92 6.88 15.1 16.4 19.2 14.3 6.08 30.4-4.13 30.4-19.1v-13.5c0-19.1-24.7-28.2-37.9-13.9-0.11 0.11-0.21 0.22-0.31 0.33z" fill="url(#SVGID_2_)"/>
</g>
<g id="suit">
<linearGradient id="SVGID_3_" x1="12" x2="116" y1="18" y2="18" gradientTransform="matrix(1 0 0 -1 0 128)" gradientUnits="userSpaceOnUse">
<stop stop-color="#F44336" offset="0"/>
<stop stop-color="#E73B32" offset=".359"/>
<stop stop-color="#C62828" offset="1"/>
</linearGradient>
<path d="m64.1 96h-0.14c-25.6 0.03-52 7.1-52 25v3h104v-3c0-16.9-26.1-25-51.9-25z" fill="url(#SVGID_3_)"/>
</g>
<g id="hairGroup">
<path id="hair_3_" d="m98.9 79.8c-1.25-2.27 0.34-4.58 3.06-7.44 4.31-4.54 7-15.1 2.64-25.8 0.03-0.06-0.86-1.86-0.83-1.92l-1.79-0.09c-0.57-0.08-18.3-0.12-38-0.12s-37.4 0.04-38 0.12c0 0-2.65 1.95-2.63 2.01-4.35 10.7-1.66 21.2 2.64 25.8 2.71 2.86 4.3 5.17 3.06 7.44-1.21 2.21-4.81 2.53-4.81 2.53s0.83 2.26 2.83 3.48c1.85 1.13 4.13 1.39 5.7 1.43 0 0 6.15 8.51 22.2 8.51h17.9c16.1 0 22.2-8.51 22.2-8.51 1.57-0.04 3.85-0.3 5.7-1.43 2-1.22 2.83-3.48 2.83-3.48s-3.61-0.32-4.82-2.53z" fill="#543930"/>
<g id="hairHighlights_1_">
<radialGradient id="SVGID_4_" cx="99.6" cy="45.8" r="23.4" gradientTransform="matrix(1 0 0 .491 -21.1 59.6)" gradientUnits="userSpaceOnUse">
<stop stop-color="#6D4C41" stop-opacity="0" offset=".728"/>
<stop stop-color="#6D4C41" offset="1"/>
</radialGradient>
<path d="m64 95.8v-9.44l28.6-2.26 2.6 3.2s-6.15 8.51-22.2 8.51l-8.94-0.01z" fill="url(#SVGID_4_)"/>
<radialGradient id="SVGID_5_" cx="76.6" cy="49.3" r="6.92" gradientTransform="matrix(-.906 .424 -.314 -.672 187 79.4)" gradientUnits="userSpaceOnUse">
<stop stop-color="#6D4C41" offset=".663"/>
<stop stop-color="#6D4C41" stop-opacity="0" offset="1"/>
</radialGradient>
<path d="m95.1 83.2c-4.28-6.5 5.21-8.93 5.21-8.93s0.01 0.01 0.01 0.01c-1.65 2.05-2.4 3.84-1.43 5.61 1.21 2.21 4.81 2.53 4.81 2.53s-4.91 4.36-8.6 0.78z" fill="url(#SVGID_5_)"/>
<radialGradient id="SVGID_6_" cx="94.4" cy="68.9" r="30.4" gradientTransform="matrix(-.0746 -.997 .831 -.0622 33.6 158)" gradientUnits="userSpaceOnUse">
<stop stop-color="#6D4C41" stop-opacity="0" offset=".725"/>
<stop stop-color="#6D4C41" offset="1"/>
</radialGradient>
<path d="m105 46.6c4.25 10.4 1.78 21-2.41 25.5-0.57 0.62-3.01 3.01-3.57 4.92 0 0-9.54-13.3-12.4-21.1-0.57-1.58-1.1-3.2-1.17-4.88-0.05-1.26 0.14-2.76 0.87-3.83 0.89-1.31 18.2-1.7 18.2-1.7 0 0.01 0.51 1.11 0.51 1.11z" fill="url(#SVGID_6_)"/>
<radialGradient id="SVGID_7_" cx="44.2" cy="68.9" r="30.4" gradientTransform="matrix(.0746 -.997 -.831 -.0622 98.2 107)" gradientUnits="userSpaceOnUse">
<stop stop-color="#6D4C41" stop-opacity="0" offset=".725"/>
<stop stop-color="#6D4C41" offset="1"/>
</radialGradient>
<path d="m23.4 46.6c-4.24 10.4-1.77 21 2.41 25.5 0.58 0.62 3.01 3.01 3.57 4.92 0 0 9.54-13.3 12.4-21.1 0.58-1.58 1.1-3.2 1.17-4.88 0.05-1.26-0.14-2.76-0.87-3.83-0.89-1.31-1.93-0.96-3.44-0.96-2.88 0-13.5-0.74-14.5-0.74 0.01 0.02-0.76 1.12-0.76 1.12z" fill="url(#SVGID_7_)"/>
<radialGradient id="SVGID_8_" cx="49.4" cy="45.8" r="23.4" gradientTransform="matrix(-1 0 0 .491 98.9 59.6)" gradientUnits="userSpaceOnUse">
<stop stop-color="#6D4C41" stop-opacity="0" offset=".728"/>
<stop stop-color="#6D4C41" offset="1"/>
</radialGradient>
<path d="m64 95.8v-9.44l-28.6-2.26-2.6 3.2s6.15 8.51 22.2 8.51l8.94-0.01z" fill="url(#SVGID_8_)"/>
<radialGradient id="SVGID_9_" cx="26.4" cy="49.3" r="6.92" gradientTransform="matrix(.906 .424 .314 -.672 -13 101)" gradientUnits="userSpaceOnUse">
<stop stop-color="#6D4C41" offset=".663"/>
<stop stop-color="#6D4C41" stop-opacity="0" offset="1"/>
</radialGradient>
<path d="m32.9 83.2c4.28-6.5-5.21-8.93-5.21-8.93s-0.01 0.01-0.01 0.01c1.65 2.05 2.4 3.84 1.43 5.61-1.21 2.21-4.81 2.53-4.81 2.53s4.91 4.36 8.6 0.78z" fill="url(#SVGID_9_)"/>
</g>
</g>
<g id="neck">
<path d="m64 90.1h-9.08v9.98c0 4.51 3.7 8.17 8.26 8.17h1.65c4.56 0 8.26-3.66 8.26-8.17v-9.98h-9.09z" fill="#E59600"/>
</g>
<linearGradient id="collar_1_" x1="64" x2="64" y1="44" y2=".165" gradientTransform="matrix(1 0 0 -1 0 128)" gradientUnits="userSpaceOnUse">
<stop stop-color="#FFEB3B" offset="0"/>
<stop stop-color="#FFDD12" offset=".636"/>
<stop stop-color="#FFD600" offset="1"/>
</linearGradient>
<path id="collar" d="m94 124v-6.1c0-1.37-1.11-2.48-2.48-2.48h-25.5v-5.06l13.4-6.18c2.95-1.36 5.03-4.24 5.51-7.6l1.69-12-15.6 8.87c-4.05 2.42-6.71 6.69-7.22 11.5h-0.17c-0.51-4.77-3.17-9.05-7.22-11.5l-14.9-9.46 1.18 12.3c0.34 3.54 2.47 6.62 5.56 8.05l13.3 6.13v4.98h-25c-1.37 0-2.48 1.11-2.48 2.48v6.1h60z" fill="url(#collar_1_)"/>
<g id="face">
<g id="ears">
<path d="m91.6 50.4h-54.6c-5.89 0-10.7 5.14-10.7 11.4s4.81 11.4 10.7 11.4h54.6c5.89 0 10.7-5.14 10.7-11.4s-4.82-11.4-10.7-11.4z" fill="#E59600"/>
</g>
<g id="head">
<path d="m64.2 11.1c-17.4 0-33.5 18.6-33.5 45.4 0 26.6 16.6 39.8 33.5 39.8s33.5-13.2 33.5-39.8c0-26.8-16.1-45.4-33.5-45.4z" fill="#FFCA28"/>
</g>
<g id="eyebrows" fill="#6D4C41">
<path d="m55 50.2c-0.93-1.23-3.07-3.01-7.23-3.01s-6.31 1.79-7.23 3.01c-0.41 0.54-0.31 1.17-0.02 1.55 0.26 0.35 1.04 0.68 1.9 0.39s2.54-1.16 5.35-1.18c2.81 0.02 4.49 0.89 5.35 1.18s1.64-0.03 1.9-0.39c0.28-0.38 0.39-1.01-0.02-1.55z"/>
<path d="m87.9 50.2c-0.93-1.23-3.07-3.01-7.23-3.01s-6.31 1.79-7.23 3.01c-0.41 0.54-0.31 1.17-0.02 1.55 0.26 0.35 1.04 0.68 1.9 0.39s2.54-1.16 5.35-1.18c2.81 0.02 4.49 0.89 5.35 1.18s1.64-0.03 1.9-0.39c0.29-0.38 0.39-1.01-0.02-1.55z"/>
</g>
<g id="eyes" fill="#404040">
<ellipse cx="47.8" cy="58.8" rx="4.93" ry="5.1"/>
<ellipse cx="80.7" cy="58.8" rx="4.93" ry="5.1"/>
</g>
<path id="nose" d="m68.1 68.1c-0.11-0.04-0.21-0.07-0.32-0.08h-7.08c-0.11 0.01-0.22 0.04-0.32 0.08-0.64 0.26-0.99 0.92-0.69 1.63s1.71 2.69 4.55 2.69 4.25-1.99 4.55-2.69c0.31-0.71-0.05-1.37-0.69-1.63z" fill="#E59600"/>
<path id="mouth" d="m72.8 76.1c-3.18 1.89-13.6 1.89-16.8 0-1.83-1.09-3.7 0.58-2.94 2.24 0.75 1.63 6.44 5.42 11.4 5.42s10.6-3.79 11.3-5.42c0.76-1.66-1.09-3.33-2.92-2.24z" fill="#795548"/>
</g>
<g id="hairGroup_1_">
<path id="hair" d="m64 25.1c-32.3 0-41 13.5-38.8 19.4 1.64 4.45 4.09 7.97 4.09 7.97-0.46 8.01 1.03 12.9 1.82 14.9 0.14 0.35 0.63 0.32 0.72-0.04 0.99-3.97 4.36-17.8 4.03-20.2 0 0 11.4-2.25 22.2-10.2 2.2-1.62 4.59-3 7.13-4.01 13.6-5.41 16.4 3.82 16.4 3.82s9.42-1.81 12.3 11.3c1.07 4.9 1.79 12.8 2.4 18.2 0.04 0.39 0.57 0.47 0.72 0.11 0.95-2.18 2.85-6.5 3.3-10.9 0.18-1.55 4-30.4-36.2-30.4z" fill="#543930"/>
</g>
<g id="helmet">
<g id="XMLID_171_">
<radialGradient id="XMLID_2_" cx="64" cy="96.3" r="34.6" gradientTransform="matrix(1 0 0 -1 0 128)" gradientUnits="userSpaceOnUse">
<stop stop-color="#F44336" offset="0"/>
<stop stop-color="#EB3E33" offset=".299"/>
<stop stop-color="#D3302C" offset=".784"/>
<stop stop-color="#C62828" offset=".998"/>
</radialGradient>
<path id="XMLID_172_" d="m64.4 8c-46.8 0-43.2 47.4-43.2 47.4s12.2-11 43.5-11 42.1 9.99 42.1 9.99 4.39-46.3-42.4-46.3z" fill="url(#XMLID_2_)"/>
<path id="XMLID_173_" d="m54.1 8.88c-2.44 0.438-4.69 1.03-6.79 1.76 3.42 3.76 5.4 11.1 6.79 21.2v-23z" fill="#c62828"/>
<path d="m74.8 8.95v22.9c1.38-10.1 3.35-17.4 6.75-21.2-2.08-0.709-4.32-1.29-6.75-1.72z" fill="#c62828"/>
</g>
<path d="m69.6 42.9h-10.6c-2.82 0-5.1-2.28-5.1-5.1v-28.7c0-2.82 2.28-5.1 5.1-5.1h10.6c2.82 0 5.1 2.28 5.1 5.1v28.7c0 2.82-2.28 5.11-5.1 5.11z" fill="#E53935"/>
<linearGradient id="SVGID_14_" x1="46.5" x2="81.5" y1="103" y2="103" gradientTransform="matrix(1 0 0 -1 0 128)" gradientUnits="userSpaceOnUse">
<stop stop-color="#FFEE58" offset="0"/>
<stop stop-color="#FEE84F" offset=".366"/>
<stop stop-color="#FDD937" offset=".961"/>
<stop stop-color="#FDD835" offset="1"/>
</linearGradient>
<path d="m79.8 25.5c-3.86-6.68 1.03-9.56 1.03-9.56l-4.11-5.25s-3.26 1.02-6.69 0.51c-3.31-0.49-5.81-3.26-5.98-3.45v-0.01l-0.01 0.01-0.01-0.01v0.02c-0.17 0.19-2.67 2.96-5.98 3.45-3.43 0.51-6.69-0.51-6.69-0.51l-4.11 5.25s4.89 2.88 1.03 9.56-1.49 13.8 9.34 15.1c2.87 0.34 5.74 1.52 5.74 1.52l0.16 0.04v0.29l0.52-0.14 0.52 0.15v-0.29l0.16-0.04s2.88-1.19 5.74-1.52c10.8-1.29 13.2-8.39 9.34-15.1z" fill="url(#SVGID_14_)"/>
<ellipse cx="64" cy="25.6" rx="12.5" ry="11.8" fill="#6D4C41"/>
<path d="m62.8 19.1c-0.56-0.51-0.85-1.27-0.75-2-0.37 0.43-0.54 1.01-0.59 1.43-0.21 1.93 2.03 2.54 2.07 2.5 0.07-0.09 0.21-0.33 0.04-0.8-0.26-0.7 0.42-1.09 0.42-1.09s-0.26 0.56-0.07 0.8c0.3 0.38 0.57 0.36 0.7 0.55 0.14 0.2-0.02 0.51-0.16 0.58 1.01-0.08 1.81-0.95 2.02-1.88s-0.06-1.9-0.46-2.78c-0.06 0.71-0.79 1.3-1.55 1.27 0.22-0.27 0.57-1.02 0.35-1.84s-1.51-1.26-1.51-1.26 0.36 0.37 0.38 1.12c0 0.77-1.76 1.64-0.89 3.4z" fill="#FFEB3B"/>
<g fill="#FFEB3B">
<path d="m69.3 32.7-9.93-9.68-1.79 1.27 9.96 9.66c0.14 0.14 0.38 0.22 0.63 0.22 0.26 0 0.53-0.07 0.74-0.22 0.29-0.2 0.5-0.54 0.53-0.83 0.02-0.21-0.06-0.34-0.14-0.42z"/>
<path d="m60.2 21.9c-0.14-0.1-0.42-0.12-0.58-0.14 0.03-0.06 0.33-0.69 0.75-0.81 0.35-0.1 0.26-0.54-0.06-0.65-0.7-0.23-2.15-0.2-3.37 0.88-0.14 0.12-1.97 1.79-2.88 2.65-0.06 0.05-0.13 0.09-0.23 0.11-0.54 0.14-0.88 0.64-0.74 1.13 0.13 0.47 0.44 1.2 1.16 1.68 0.68 0.46 1.91 0.76 1.94 0.76 0.51 0 0.95-0.22 1.1-0.67 0.09-0.27-0.12-0.43 0.17-0.78 0 0 2.92-2.6 3.21-3s0.05-0.77-0.47-1.16z"/>
<path d="m58.7 32.7 9.93-9.68 1.79 1.27-9.96 9.66c-0.14 0.14-0.38 0.22-0.63 0.22-0.26 0-0.53-0.07-0.74-0.22-0.29-0.2-0.51-0.54-0.53-0.83-0.02-0.21 0.06-0.34 0.14-0.42z"/>
<path d="m67.8 21.9c0.14-0.1 0.42-0.12 0.58-0.14-0.03-0.06-0.33-0.69-0.75-0.81-0.35-0.1-0.26-0.54 0.06-0.65 0.7-0.23 2.15-0.2 3.37 0.88 0.14 0.12 1.97 1.79 2.88 2.65 0.06 0.05 0.13 0.09 0.23 0.11 0.54 0.14 0.88 0.64 0.74 1.13-0.13 0.47-0.44 1.2-1.16 1.68-0.68 0.46-1.91 0.76-1.94 0.76-0.5 0-0.95-0.22-1.1-0.67-0.09-0.27 0.12-0.43-0.17-0.78 0 0-2.92-2.6-3.21-3s-0.05-0.77 0.47-1.16z"/>
</g>
<path d="m64.1 38.2c-0.24 0-0.46 0-0.69 0.01-17.4 0.09-28.3 3.36-35.1 7.29-10 5.77-11.2 13-11.3 13.5v0.04l3.5 1.9s2.37-4.81 5.52-6.94c7.59-5.13 18.1-8.17 37.4-8.29 0.24 0 0.47-0.01 0.71-0.01v-7.52h-0.04z" fill="#EF5350"/>
<path d="m64 38.2c0.24 0 0.46 0 0.69 0.01 17.4 0.09 28.3 3.36 35.1 7.29 10 5.77 11.2 13 11.3 13.5v0.04l-2.65 1.9s-3.22-4.81-6.36-6.94c-7.59-5.13-18.1-8.17-37.4-8.29-0.24 0-0.47-0.01-0.72-0.01v-7.52h0.04z" fill="#EF5350"/>
</g>
</svg>
