<?xml version="1.0" encoding="UTF-8" standalone="no"?>
<!-- Created with Inkscape (http://www.inkscape.org/) -->

<svg
   width="16"
   height="16"
   viewBox="0 0 16 16"
   version="1.1"
   id="svg5"
   inkscape:version="1.4.3 (0d15f75, 2025-12-25)"
   sodipodi:docname="191A0.svg"
   inkscape:export-filename="..\0000.png"
   inkscape:export-xdpi="96"
   inkscape:export-ydpi="96"
   xml:space="preserve"
   xmlns:inkscape="http://www.inkscape.org/namespaces/inkscape"
   xmlns:sodipodi="http://sodipodi.sourceforge.net/DTD/sodipodi-0.dtd"
   xmlns="http://www.w3.org/2000/svg"
   xmlns:svg="http://www.w3.org/2000/svg"><sodipodi:namedview
     id="namedview7"
     pagecolor="#ffffff"
     bordercolor="#666666"
     borderopacity="1.0"
     inkscape:pageshadow="2"
     inkscape:pageopacity="0"
     inkscape:pagecheckerboard="0"
     inkscape:document-units="px"
     showgrid="true"
     width="16mm"
     units="px"
     inkscape:zoom="16"
     inkscape:cx="8.15625"
     inkscape:cy="4.84375"
     inkscape:window-width="1680"
     inkscape:window-height="998"
     inkscape:window-x="-8"
     inkscape:window-y="-8"
     inkscape:window-maximized="1"
     inkscape:current-layer="layer1"
     showguides="true"
     inkscape:guide-bbox="true"
     inkscape:snap-bbox="true"
     inkscape:bbox-paths="true"
     inkscape:bbox-nodes="true"
     inkscape:snap-global="true"
     inkscape:showpageshadow="2"
     inkscape:deskcolor="#ffffff"><inkscape:grid
       type="xygrid"
       id="grid828"
       originx="0"
       originy="0"
       spacingy="1"
       spacingx="1"
       units="px" /></sodipodi:namedview><defs
     id="defs2" /><g
     inkscape:label="Layer 1"
     inkscape:groupmode="layer"
     id="layer1"><path
       d="M 13.150944,1 C 8.330189,1.8805031 5.2484278,2.6729559 3.9056605,3.3773585 L 3.1132077,2.8490566 H 2.8490567 C 1.6163522,4.1918239 1,5.5125787 1,6.8113208 c 0,0.528302 0.1761007,0.792453 0.5283019,0.792453 h 0.264151 c 0.1871069,0 0.5393083,-0.352201 1.0566038,-1.056604 0.1978337,-1.217438 0.7638904,-2.01405 1.6981704,-2.3898354 0.417142,-0.1677826 3.7609494,-1.660479 6.2263579,-1.8365797 0,1.2327045 -0.528302,2.3773586 -1.5849054,3.4339624 v 0.264151 H 9.7169815 C 10.421385,5.6666669 10.773585,5.4025159 10.773585,5.2264152 13.591196,5.2264152 15,4.3459121 15,2.5849057 14.185536,1.5833333 13.569182,1.0550314 13.150944,1 Z"
       id="path1"
       sodipodi:nodetypes="ccccssscsccccccc"
       style="stroke-width:1;fill:#c01c28" /></g></svg>
