<?xml version="1.0" encoding="UTF-8" standalone="no"?>
<!-- Created with Inkscape (http://www.inkscape.org/) -->

<svg
   width="16"
   height="16"
   viewBox="0 0 16 16"
   version="1.1"
   id="svg5"
   inkscape:version="1.2.2 (732a01da63, 2022-12-09)"
   sodipodi:docname="20000.svg"
   inkscape:export-filename="..\0000.png"
   inkscape:export-xdpi="96"
   inkscape:export-ydpi="96"
   xmlns:inkscape="http://www.inkscape.org/namespaces/inkscape"
   xmlns:sodipodi="http://sodipodi.sourceforge.net/DTD/sodipodi-0.dtd"
   xmlns="http://www.w3.org/2000/svg"
   xmlns:svg="http://www.w3.org/2000/svg">
  <sodipodi:namedview
     id="namedview7"
     pagecolor="#ffffff"
     bordercolor="#666666"
     borderopacity="1.0"
     inkscape:pageshadow="2"
     inkscape:pageopacity="0"
     inkscape:pagecheckerboard="0"
     inkscape:document-units="px"
     showgrid="true"
     width="16mm"
     units="px"
     inkscape:zoom="66.644814"
     inkscape:cx="8.8003847"
     inkscape:cy="9.017956"
     inkscape:window-width="1680"
     inkscape:window-height="998"
     inkscape:window-x="-8"
     inkscape:window-y="-8"
     inkscape:window-maximized="1"
     inkscape:current-layer="layer1"
     showguides="true"
     inkscape:guide-bbox="true"
     inkscape:snap-bbox="true"
     inkscape:bbox-paths="true"
     inkscape:bbox-nodes="true"
     inkscape:snap-global="true"
     inkscape:showpageshadow="2"
     inkscape:deskcolor="#ffffff">
    <inkscape:grid
       type="xygrid"
       id="grid828"
       originx="0"
       originy="0" />
  </sodipodi:namedview>
  <defs
     id="defs2" />
  <g
     inkscape:label="Layer 1"
     inkscape:groupmode="layer"
     id="layer1">
    <rect
       style="opacity:1;fill:#fff0f5;stroke:none;stroke-width:4.4376;stroke-linejoin:bevel;stop-color:#000000;fill-opacity:1"
       id="rect691"
       width="16"
       height="16"
       x="0"
       y="0" />
    <path
       id="path2036"
       style="color:#000000;font-weight:bold;font-size:15.9126px;line-height:1.25;font-family:'BabelStone Han';-inkscape-font-specification:'SimSun-ExtB Bold';text-align:center;letter-spacing:0px;word-spacing:0px;text-anchor:middle;fill:#5c3566;stroke:none;stroke-width:0.2;-inkscape-stroke:none"
       d="M 9.929683,0.77734375 C 9.982993,1.6239858 9.99109,2.5005506 10,3.2226562 v 1.953125 H 7.2558594 L 8.0039062,6.0058594 C 8.4218263,5.9021197 8.8629517,5.8710938 9.2207031,5.8710938 H 9.9726517 C 9.760949,7.8283365 9.3524842,9.4382395 8.7093231,10.568881 8.0709022,11.691189 7.3903837,12.681473 6.4238279,13.455077 l 0.2070313,0.414063 c 1.1206302,-0.734457 2.0346647,-1.636331 2.6699218,-2.505859 0.738269,-1.010529 1.212791,-2.3546516 1.482422,-3.9609372 0.247552,1.3197286 0.565572,2.524233 1.041945,3.5365922 0.476373,1.012359 1.081458,1.886748 1.790086,2.59822 L 12.974609,14.125 H 0.41015625 L 1.2363281,14.992188 C 1.720739,14.825462 2.2268409,14.791016 2.6328125,14.791016 H 15.115234 l -1.255859,-1.28711 c 0.446032,-0.430264 0.735641,-0.459276 1.179687,-0.414075 V 12.669909 C 13.794499,12.098512 12.872415,10.828026 12.292969,9.765625 11.73991,8.7516032 11.213263,7.1039506 11.103175,5.8710938 h 3.687841 L 13.519531,4.453125 12.666016,5.1757812 H 11.069972 V 1.8964844 L 11.58755,1.3808594 C 11.035311,1.1783366 10.482494,0.97830108 9.929683,0.77734375 Z M 3.92969,0.83398435 C 3.9740043,1.5600078 3.9868968,2.3209344 4,2.9746094 V 5.2363281 H 0.79492188 L 1.5390625,6.0820312 C 1.9560315,5.9746773 2.3809152,5.9472656 2.7324244,5.9472656 H 3.976565 C 3.8853262,7.6192728 3.6192845,8.9852564 3.0996094,10.144531 2.4354457,11.524661 1.5731645,12.631125 0.58203125,13.455078 l 0.20898437,0.421875 C 1.8793053,13.081678 2.758846,12.333772 3.3339844,11.488281 3.9697301,10.653865 4.4048594,9.6236087 4.7011719,8.4570312 5.575083,9.4265871 6.2089387,10.298232 6.5175781,11.03125 v 0.002 h 0.00195 c 0.1688614,0.379938 0.3104526,0.620511 0.4941407,0.716797 C 7.345317,11.923892 7.5218866,11.470089 7.5735334,11.27734 7.6991242,10.808629 7.637884,10.394133 7.25,9.8769531 6.8690563,9.3690283 6.0553933,8.7117176 4.8515625,7.9042969 4.9650997,7.215033 5.0164783,6.6004795 5.0585962,5.9472656 H 7.7558594 L 6.5585938,4.5078125 5.7636719,5.2363281 H 5.070315 V 2.0214844 L 5.6054688,1.5097656 Z"
       sodipodi:nodetypes="cccccscsccsccccccsccccscccccccccccccscccccccccsssccccccccc" />
  </g>
</svg>
