<?xml version="1.0" encoding="UTF-8" standalone="no"?>
<svg
   version="1.1"
   viewBox="-10 0 16 16"
   id="svg4"
   sodipodi:docname="2CEB0.svg"
   width="16"
   height="16"
   inkscape:version="1.2-dev (581924a2, 2021-09-04)"
   inkscape:export-filename="D:\Projects\Unicodia\Bitmaps\Scripts\2CEB0.png"
   inkscape:export-xdpi="96"
   inkscape:export-ydpi="96"
   xmlns:inkscape="http://www.inkscape.org/namespaces/inkscape"
   xmlns:sodipodi="http://sodipodi.sourceforge.net/DTD/sodipodi-0.dtd"
   xmlns="http://www.w3.org/2000/svg"
   xmlns:svg="http://www.w3.org/2000/svg">
  <defs
     id="defs8" />
  <sodipodi:namedview
     id="namedview6"
     pagecolor="#fff0f5"
     bordercolor="#666666"
     borderopacity="1.0"
     inkscape:pageshadow="2"
     inkscape:pageopacity="1"
     inkscape:pagecheckerboard="0"
     showgrid="true"
     inkscape:snap-global="false"
     inkscape:zoom="23.53125"
     inkscape:cx="11.814077"
     inkscape:cy="11.431607"
     inkscape:window-width="1680"
     inkscape:window-height="998"
     inkscape:window-x="-8"
     inkscape:window-y="-8"
     inkscape:window-maximized="1"
     inkscape:current-layer="svg4">
    <inkscape:grid
       type="xygrid"
       id="grid2045" />
  </sodipodi:namedview>
  <g
     aria-label="𬺵"
     transform="scale(1.0000896,0.99991039)"
     id="text77671"
     style="font-weight:bold;font-size:16.9508px;line-height:1.25;font-family:'BabelStone Han';-inkscape-font-specification:'BabelStone Han Bold';text-align:center;letter-spacing:0px;word-spacing:0px;text-anchor:middle;fill:#5c3566;stroke:#5c3566;stroke-width:0.2">
    <path
       d="M -3.4269165,3.2899955 C -3.2393101,2.3961057 -3.2713356,2.3013827 -3.1830501,1.815813 h -3.1617215 c -0.4634985,0.011036 -0.8663007,0.049661 -1.2084066,0.1158746 -0.099321,0.033107 -0.1544995,-3e-7 -0.1655352,-0.099321 -0.055179,-0.1986422 -0.1655354,-0.3696952 -0.3310703,-0.513159 -0.088285,-0.07725 -0.1103567,-0.137946 -0.066214,-0.1820887 0.044143,-0.033107 0.1048389,-0.02759 0.1820887,0.016553 0.4193557,0.099321 0.8828542,0.1489817 1.3904953,0.1489817 H 1.0215428 C 1.1760423,1.2916182 1.3415774,1.1867794 1.5181483,0.98813717 L 1.9485397,0.3756571 c 0.07725,-0.0993211 0.1655351,-0.0993211 0.2648562,0 C 2.996929,1.0709048 3.3831777,1.5012962 3.372142,1.6668313 3.3500707,1.7551167 3.2673031,1.8047773 3.1238393,1.815813 h -5.4626601 c -0.099321,0.4745341 -0.072813,0.569257 -0.2604199,1.4741825 H 1.6881198 C 1.8426192,3.2789599 2.0081544,3.1741209 2.1847253,2.9754787 L 2.6151167,2.3629986 c 0.07725,-0.099321 0.1655351,-0.099321 0.2648562,0 0.783533,0.6952477 1.1697817,1.1256391 1.1587461,1.2911742 -0.022071,0.088285 -0.1048389,0.1379461 -0.2483027,0.1489817 h -6.5055316 c -0.011036,0.044143 -0.022072,0.093803 -0.033107,0.1489816 -0.1765708,0.4855698 -0.5341488,1.6654676 -0.732791,2.3496796 H 3.4714631 C 3.6259626,6.29078 3.7914977,6.1859411 3.9680686,5.9872989 L 4.39846,5.3748188 c 0.07725,-0.099321 0.1655351,-0.099321 0.2648562,0 C 5.4468493,6.0700665 5.833098,6.5004579 5.8220623,6.665993 5.799991,6.7542784 5.7172234,6.803939 5.5737596,6.8149747 h -9.2203082 l -0.2979632,0.7283546 -0.5793731,1.572584 h 6.1910148 c 0.099321,0 0.171053,-0.016554 0.2151957,-0.049661 L 2.3789311,8.5034332 c 0.099321,-0.1103567 0.1876065,-0.1103567 0.2648563,0 0.3531416,0.2758919 0.6511049,0.5517839 0.8938898,0.8276758 0.066214,0.055179 0.044143,0.1158749 -0.066214,0.1820887 -0.055178,0 -0.088285,0.016554 -0.099321,0.049661 -0.375213,0.1544995 -0.5959265,0.4800523 -0.6621406,0.9766573 -0.2758919,1.898136 -0.8773363,3.360363 -1.80433318,4.386681 -0.61799792,0.496606 -0.99321094,0.728355 -1.12563906,0.695248 -0.0551784,0 -0.0882854,-0.07173 -0.0993211,-0.215196 -0.0220713,-0.17657 -0.0827676,-0.320034 -0.18208867,-0.430391 -0.1434638,-0.17657 -0.66765849,-0.320034 -1.57258399,-0.430392 -0.1655351,1e-6 -0.2427849,-0.07173 -0.2317492,-0.215195 0.011036,-0.110356 0.1048393,-0.160017 0.2814098,-0.148982 1.52292341,0.08829 2.33956349,0.04966 2.44992026,-0.115875 C 0.70150825,13.800558 0.9774001,13.447416 1.253292,13.005989 1.7167905,11.615494 1.9706111,10.489855 2.0147538,9.6290723 H -4.656313 l -0.3641774,0.3476238 c -0.1103567,0.088285 -0.20416,0.060696 -0.2814097,-0.082767 -0.1213925,-0.1986422 -0.2869276,-0.4138379 -0.4966055,-0.6455872 -0.099321,-0.1213924 -0.066214,-0.20416 0.099321,-0.2483027 0.3531417,-0.1103567 0.6290336,-0.4303914 0.8276758,-0.9601039 l 0.4303914,-1.2249601 h -2.9630793 c -0.4634985,0.011036 -0.8663007,0.049661 -1.2084066,0.1158746 -0.099321,0.033107 -0.1544995,-3e-7 -0.1655352,-0.099321 -0.055179,-0.1986422 -0.1655354,-0.3696952 -0.3310703,-0.513159 -0.088285,-0.07725 -0.1103567,-0.137946 -0.066214,-0.1820887 0.044143,-0.033107 0.1048389,-0.027589 0.1820887,0.016554 0.4193557,0.099321 0.8828542,0.1489817 1.3904953,0.1489817 h 3.3438102 C -4.0272794,5.5403551 -3.686255,4.3659751 -3.5758982,3.9686907 l 0.033107,-0.1655351 h -2.0691895 c -0.4634984,0.011035 -0.8663006,0.04966 -1.2084066,0.1158746 -0.099321,0.033107 -0.1544996,-3e-7 -0.1655352,-0.099321 -0.055179,-0.1986422 -0.1655355,-0.3696952 -0.3310703,-0.513159 -0.088285,-0.07725 -0.1103568,-0.1379459 -0.066214,-0.1820887 0.044143,-0.033107 0.1048388,-0.027589 0.1820886,0.016554 0.4193557,0.099321 0.8828541,0.148982 1.3904953,0.1489816 z"
       style="font-size:medium"
       id="path93623"
       sodipodi:nodetypes="ccccccccsccccccccccccccccccccccccccsccccccccccccccccccccccccccccccscccccccccsc" />
  </g>
</svg>
