<?xml version="1.0" encoding="UTF-8" standalone="no"?>
<!-- Created with Inkscape (http://www.inkscape.org/) -->

<svg
   width="16"
   height="16"
   viewBox="0 0 16 16"
   version="1.1"
   id="svg5"
   inkscape:version="1.3-beta (cedbd6c6ff, 2023-05-28)"
   sodipodi:docname="2EBF0.svg"
   inkscape:export-filename="..\0000.png"
   inkscape:export-xdpi="96"
   inkscape:export-ydpi="96"
   xmlns:inkscape="http://www.inkscape.org/namespaces/inkscape"
   xmlns:sodipodi="http://sodipodi.sourceforge.net/DTD/sodipodi-0.dtd"
   xmlns="http://www.w3.org/2000/svg"
   xmlns:svg="http://www.w3.org/2000/svg">
  <sodipodi:namedview
     id="namedview7"
     pagecolor="#ffffff"
     bordercolor="#666666"
     borderopacity="1.0"
     inkscape:pageshadow="2"
     inkscape:pageopacity="0"
     inkscape:pagecheckerboard="0"
     inkscape:document-units="px"
     showgrid="true"
     width="16mm"
     units="px"
     inkscape:zoom="23.5625"
     inkscape:cx="4.7533157"
     inkscape:cy="7.4058356"
     inkscape:window-width="1680"
     inkscape:window-height="998"
     inkscape:window-x="-8"
     inkscape:window-y="-8"
     inkscape:window-maximized="1"
     inkscape:current-layer="layer1"
     showguides="true"
     inkscape:guide-bbox="true"
     inkscape:snap-bbox="true"
     inkscape:bbox-paths="true"
     inkscape:bbox-nodes="true"
     inkscape:snap-global="true"
     inkscape:showpageshadow="2"
     inkscape:deskcolor="#ffffff">
    <inkscape:grid
       type="xygrid"
       id="grid828"
       originx="0"
       originy="0"
       spacingy="1"
       spacingx="1"
       units="px"
       visible="true" />
  </sodipodi:namedview>
  <defs
     id="defs2" />
  <g
     inkscape:label="Layer 1"
     inkscape:groupmode="layer"
     id="layer1">
    <g
       fill="#000000"
       id="g2"
       transform="matrix(0.07984409,0,0,0.07985369,-0.09405275,-0.28674343)"
       style="stroke-width:12.5236">
      <path
         d="m 74.951181,21.2 -3.8,0.4 c -5.466667,13.866667 -14.333334,31 -26.6,51.4 l 9.2,3 -3,1.8 V 183 l -12,6 V 82 l -27.2,35.6 -1.6000004,-1.2 C 29.417847,86.8 46.551181,52.866667 61.351181,14.6 c 0.266666,-0.8 0.6,-1.533333 1,-2.2 7.733333,3.066667 11.933333,6 12.6,8.8 z M 138.4,191.4344 H 136 v -6 l -18,-3 v -3 h 19.4 c 15.86667,0 24.99082,-30.16773 25.79082,-81.6344 V 86 H 123.8577 C 118.6577,136 94.8,174.36774 57.6,192.2344 l -0.8,-1.6 10.6,-8 C 113.7157,147.34625 113.56703,75.556821 113.0577,67 V 37 H 77.151181 V 33 H 165.8 l 10,-10 12,10 v 4 h -62.7423 v 30 l -0.8,15 h 38.93312 l 6,-5 11,9 -5,3 v 9 c -1.06667,59.33333 -13.85749,93.4344 -36.79082,93.4344 z"
         id="path1"
         style="fill:#5c3566;fill-opacity:1;stroke:#5c3566;stroke-width:2.50473;stroke-linejoin:round;stroke-dasharray:none;stroke-opacity:1"
         sodipodi:nodetypes="cccccccccccccsccccsccccccccccccccccccccccs" />
    </g>
  </g>
</svg>
