<?xml version="1.0" encoding="UTF-8" standalone="no"?>
<svg
   version="1.1"
   viewBox="-10 0 16 16"
   id="svg4"
   sodipodi:docname="2F800.svg"
   width="16"
   height="16"
   inkscape:version="1.2-dev (581924a2, 2021-09-04)"
   inkscape:export-filename="D:\Projects\Unicodia\Bitmaps\Scripts\2F800.png"
   inkscape:export-xdpi="96"
   inkscape:export-ydpi="96"
   xmlns:inkscape="http://www.inkscape.org/namespaces/inkscape"
   xmlns:sodipodi="http://sodipodi.sourceforge.net/DTD/sodipodi-0.dtd"
   xmlns="http://www.w3.org/2000/svg"
   xmlns:svg="http://www.w3.org/2000/svg">
  <defs
     id="defs8" />
  <sodipodi:namedview
     id="namedview6"
     pagecolor="#fff0f5"
     bordercolor="#666666"
     borderopacity="1.0"
     inkscape:pageshadow="2"
     inkscape:pageopacity="1"
     inkscape:pagecheckerboard="0"
     showgrid="true"
     inkscape:snap-global="false"
     inkscape:zoom="23.53125"
     inkscape:cx="11.814077"
     inkscape:cy="11.431607"
     inkscape:window-width="1680"
     inkscape:window-height="998"
     inkscape:window-x="-8"
     inkscape:window-y="-8"
     inkscape:window-maximized="1"
     inkscape:current-layer="svg4">
    <inkscape:grid
       type="xygrid"
       id="grid2045" />
  </sodipodi:namedview>
  <g
     aria-label="㓟"
     transform="scale(1.0001331,0.9998669)"
     id="text113961"
     style="font-weight:bold;font-size:16.0584px;line-height:1.25;font-family:'BabelStone Han';-inkscape-font-specification:'BabelStone Han Bold';text-align:center;letter-spacing:0px;word-spacing:0px;text-anchor:middle;fill:#5c3566;stroke:#5c3566;stroke-width:0.199999">
    <path
       d="M 0.92049325,2.9685151 Q 0.88912919,2.7019205 1.0773136,2.7646487 1.9241432,3.0312432 2.2064198,3.1880635 2.4259682,3.2978377 2.1750557,3.438976 1.9241432,3.5644322 1.8614151,3.7212525 1.7516409,4.0192111 1.7516409,4.975815 v 3.0579959 q 0,1.8347976 0.062728,3.0736781 0.015682,0.125456 -0.07841,0.188184 L 1.0773136,11.719088 Q 0.87344716,11.875908 0.88912919,11.546586 0.98322137,9.4608757 0.9989034,8.0338109 V 4.975815 Q 0.98322137,3.7212525 0.92049325,2.9685151 Z M 4.888047,13.600932 q -0.031364,0.580235 -0.2822766,0.972286 -0.3920507,0.580235 -0.7841015,0.784101 -0.1254563,0.109774 -0.1881844,0.109774 -0.07841,0 -0.1411383,-0.329322 Q 3.351208,14.66731 3.1943877,14.510489 3.0218853,14.290941 2.1123276,14.181167 1.8614151,14.149803 1.8770971,13.945936 1.8927791,13.74207 2.1436916,13.757752 3.6178025,13.9773 3.900079,13.883208 4.1196275,13.789116 4.1353095,13.444111 V 2.8430588 Q 4.1196275,1.5884964 4.0725814,0.82007689 4.0255353,0.5691644 4.1823556,0.61621049 5.0762313,0.9298511 5.3741899,1.0866714 5.5623743,1.2121276 5.3271438,1.3219019 5.0448673,1.4473581 4.9821391,1.5884964 4.888047,1.886455 4.888047,2.8430588 Z M -7.8928079,3.6114783 q 0,-0.6586453 -0.062728,-1.0820601 -0.047046,-0.2038664 0.047046,-0.2195484 0.07841,-0.031364 0.1881844,0.1254562 0.2509125,0.3450047 0.5959171,0.6429633 H -4.850494 V 1.902137 q -0.015682,-0.6115992 -0.062728,-1.09774214 -0.015682,-0.25091249 0.1411383,-0.2038664 0.8468296,0.26659452 1.1918343,0.45477884 0.1411383,0.07841 0,0.1725024 -0.3450047,0.2509125 -0.4077328,0.3136406 -0.1097742,0.1097742 -0.1097742,0.3606867 v 1.1761523 h 2.3209405 q 0.1568203,0 0.2195484,-0.094092 l 0.4390969,-0.4704609 q 0.047046,-0.062728 0.1097742,-0.062728 0.0627281,0 0.10977422,0.062728 0.48614294,0.501825 0.76841949,0.8781937 Q -0.00474655,3.5801142 -0.239977,3.5957963 -0.66339182,3.6585244 -0.91430431,3.7682986 -1.1338527,3.9094369 -1.3847652,4.2073955 -1.80818,4.6778564 -2.2472769,5.3051376 -2.3413691,5.493322 -2.4981894,5.4305938 -2.6550097,5.3365017 -2.5138714,5.1012712 -2.1375027,4.2858056 -1.8395441,3.5644322 h -2.2582124 v 3.08936 H -2.81183 q 0.1254562,0 0.1881844,-0.1097742 L -2.278641,6.1519672 q 0.047046,-0.07841 0.094092,-0.07841 0.062728,0.015682 0.1254563,0.07841 0.4861429,0.4077328 0.7684195,0.7841016 0.062728,0.07841 0.047046,0.07841 -0.5802351,0.2038664 -0.6429632,0.2665945 -0.094092,0.1097743 -0.1097742,0.2195485 -0.5488711,1.1918343 -1.8975257,3.2932261 0.2509125,0.250913 0.501825,0.533189 1.2702444,1.129106 1.5211569,1.709342 0.2352305,0.470461 0.1254563,0.862511 -0.1254563,0.360687 -0.2352305,0.517507 -0.1097742,0.156821 -0.2195484,0.141139 -0.1097742,-0.03136 -0.1725023,-0.235231 -0.2822766,-0.862512 -1.4270648,-2.24253 -0.2509125,-0.297959 -0.4390969,-0.533189 -0.1881843,0.266594 -0.4390968,0.627281 -0.9252398,1.380019 -2.8541296,2.995268 -0.2195484,0.15682 -0.3293226,0 -0.1411383,-0.188185 0.062728,-0.345005 0.8154656,-0.690009 1.5838851,-1.646613 0.9095578,-1.16047 1.5211569,-2.179802 -0.8938757,-1.0506964 -2.0386639,-2.0386643 -0.1254563,-0.1254562 -0.015682,-0.2352305 0.1097742,-0.1254562 0.2665945,0.031364 1.1291062,0.7527375 2.054346,1.5838847 1.2075163,-1.9759355 1.6779772,-3.1991338 h -4.4380146 q -0.031364,1.0193319 -0.07841,1.9132077 -0.1411382,2.0229821 -0.4861429,3.5441391 -0.3606867,1.536839 -0.8781937,2.571853 -0.1411383,0.141138 -0.2509125,0.03136 -0.1097742,-0.125456 0,-0.282277 0.3920508,-1.16047 0.5959172,-2.618899 0.2195484,-1.474111 0.3136406,-3.4970926 0.07841,-1.9132077 0.07841,-3.9518717 z m 3.0423139,-0.047046 h -2.2895764 v 1.2859265 q -0.015682,0.9409218 -0.031364,1.8034335 h 2.3209405 z"
       style="font-size:medium"
       id="path122875" />
  </g>
</svg>
