<?xml version="1.0" encoding="UTF-8" standalone="no"?>
<!-- Created with Inkscape (http://www.inkscape.org/) -->

<svg
   width="16"
   height="16"
   viewBox="0 0 16 16"
   version="1.1"
   id="svg5"
   inkscape:version="1.2.2 (732a01da63, 2022-12-09)"
   sodipodi:docname="3040.svg"
   inkscape:export-filename="..\0000.png"
   inkscape:export-xdpi="96"
   inkscape:export-ydpi="96"
   xml:space="preserve"
   xmlns:inkscape="http://www.inkscape.org/namespaces/inkscape"
   xmlns:sodipodi="http://sodipodi.sourceforge.net/DTD/sodipodi-0.dtd"
   xmlns="http://www.w3.org/2000/svg"
   xmlns:svg="http://www.w3.org/2000/svg"><sodipodi:namedview
     id="namedview7"
     pagecolor="#ffffff"
     bordercolor="#666666"
     borderopacity="1.0"
     inkscape:pageshadow="2"
     inkscape:pageopacity="0"
     inkscape:pagecheckerboard="0"
     inkscape:document-units="px"
     showgrid="true"
     width="16mm"
     units="px"
     inkscape:zoom="47.125"
     inkscape:cx="10.344828"
     inkscape:cy="8.3819629"
     inkscape:window-width="1680"
     inkscape:window-height="998"
     inkscape:window-x="-8"
     inkscape:window-y="-8"
     inkscape:window-maximized="1"
     inkscape:current-layer="layer1"
     showguides="true"
     inkscape:guide-bbox="true"
     inkscape:snap-bbox="true"
     inkscape:bbox-paths="true"
     inkscape:bbox-nodes="true"
     inkscape:snap-global="true"
     inkscape:showpageshadow="2"
     inkscape:deskcolor="#ffffff"><inkscape:grid
       type="xygrid"
       id="grid828"
       originx="0"
       originy="0" /></sodipodi:namedview><defs
     id="defs2" /><g
     inkscape:label="Layer 1"
     inkscape:groupmode="layer"
     id="layer1"><path
       d="m 4.1787516,11.269423 c 0,-0.07901 0.5152977,-1.5582999 1.1969475,-5.4807637 -1.0184527,0.099749 -2.0841613,0.1574932 -3.19711,0.1732425 -0.1685594,0 -0.247206,0 -0.3543595,-1.0000823 h 0.4409808 c 1.1392026,0 2.2232749,-0.0525 3.2522325,-0.1574933 0.087006,-0.5822556 0.2362397,-1.9151099 0.2362397,-2.3466494 0,-0.2572416 -0.026245,-0.5013561 -0.078747,-0.7323435 0.3165778,0.02793 1.4883099,0.1534022 1.4883099,0.4803544 0,0.1974051 -0.2086091,0.2388313 -0.3071115,0.7559676 -0.047247,0.2519891 -0.1338683,0.8215873 -0.2598628,1.7088018 2.291903,-0.3030595 3.4880768,-0.700845 3.5750928,-0.700845 0.05775,0 0.09187,0.044626 0.102372,0.1338692 0.04199,0.2992373 0.063,0.532855 0.063,0.7008449 0,0.099749 -0.05251,0.162746 -0.157493,0.188992 C 9.0242872,5.2558044 7.7669723,5.4815472 6.407279,5.6705393 6.1657869,7.1509759 5.8691801,8.6051662 5.5174429,10.033102 6.1401477,9.350437 7.8240554,7.8203222 10.407604,7.8203222 c 2.345121,0 3.417601,1.4042572 3.417601,2.8821258 0,2.952793 -3.175943,3.829503 -6.0004879,4.197195 -0.2677388,0.05251 -0.5302244,0.07874 -0.7874657,0.07874 -0.285187,0 -0.270207,-0.533447 -0.8110896,-0.929211 1.9686635,-0.131249 3.5540914,-0.469857 4.7562912,-1.015832 1.107705,-0.52498 1.661553,-1.309817 1.661553,-2.354523 0,-1.2973824 -0.944818,-1.9371674 -2.338773,-1.9371674 -0.275883,0 -2.9457035,0.057775 -4.5594252,2.2600274 -0.1732423,0.225746 -0.2966145,0.401611 -0.3701087,0.527605 -0.089244,0.131246 -0.1706202,0.196866 -0.2441143,0.196866 H 5.1000859 C 5.089862,11.725139 4.1787514,11.546787 4.1787514,11.26942 Z M 10.950955,2.5127995 11.549428,2.079693 c 0.02624,-0.021001 0.04987,-0.031498 0.07087,-0.031498 0.0041,0 0.934327,0.5072701 1.905666,1.9922897 0.021,0.026246 0.03149,0.0525 0.03149,0.078747 0,0.036751 -0.01838,0.070872 -0.05513,0.1023704 L 13.029857,4.60746 c -0.03149,0.026246 -0.063,0.039373 -0.0945,0.039373 -0.04724,0 -0.084,-0.023625 -0.110244,-0.070872 C 12.326396,3.73075 11.701669,3.0430241 10.950955,2.5127995 Z M 12.99049,0.97724008 c 0.193452,0 1.937166,1.71440872 1.937166,2.00016452 0,0.031498 -0.02363,0.06825 -0.07087,0.1102453 l -0.440988,0.3858583 c -0.02624,0.031498 -0.05513,0.047249 -0.08661,0.047249 -0.142419,0 -0.504117,-1.007138 -1.960789,-2.0946604 L 12.888128,1.024489 c 0.04199,-0.0314982 0.07613,-0.0472484 0.102373,-0.0472484 z"
       id="path897"
       style="fill:#5c3566" /></g></svg>
