<?xml version="1.0" encoding="UTF-8" standalone="no"?>
<!-- Created with Inkscape (http://www.inkscape.org/) -->

<svg
   width="16"
   height="16"
   viewBox="0 0 16 16"
   version="1.1"
   id="svg5"
   inkscape:version="1.2.2 (732a01da63, 2022-12-09)"
   sodipodi:docname="31A0.svg"
   inkscape:export-filename="..\0000.png"
   inkscape:export-xdpi="96"
   inkscape:export-ydpi="96"
   xml:space="preserve"
   xmlns:inkscape="http://www.inkscape.org/namespaces/inkscape"
   xmlns:sodipodi="http://sodipodi.sourceforge.net/DTD/sodipodi-0.dtd"
   xmlns="http://www.w3.org/2000/svg"
   xmlns:svg="http://www.w3.org/2000/svg"><sodipodi:namedview
     id="namedview7"
     pagecolor="#ffffff"
     bordercolor="#666666"
     borderopacity="1.0"
     inkscape:pageshadow="2"
     inkscape:pageopacity="0"
     inkscape:pagecheckerboard="0"
     inkscape:document-units="px"
     showgrid="true"
     width="16mm"
     units="px"
     inkscape:zoom="33.322407"
     inkscape:cx="5.6568543"
     inkscape:cy="8.7328625"
     inkscape:window-width="1680"
     inkscape:window-height="998"
     inkscape:window-x="-8"
     inkscape:window-y="-8"
     inkscape:window-maximized="1"
     inkscape:current-layer="layer1"
     showguides="true"
     inkscape:guide-bbox="true"
     inkscape:snap-bbox="true"
     inkscape:bbox-paths="true"
     inkscape:bbox-nodes="true"
     inkscape:snap-global="true"
     inkscape:showpageshadow="2"
     inkscape:deskcolor="#ffffff"><inkscape:grid
       type="xygrid"
       id="grid828"
       originx="0"
       originy="0" /></sodipodi:namedview><defs
     id="defs2" /><g
     inkscape:label="Layer 1"
     inkscape:groupmode="layer"
     id="layer1"><rect
       style="fill:#fff0f5"
       id="rect691"
       width="16"
       height="16"
       x="0"
       y="0" /><path
       d="m 2.7093622,13.164292 c -0.6492299,0 -0.9214876,-0.586401 -0.9214876,-0.963373 0,-0.397915 0.1884861,-0.984316 0.9005447,-0.984316 0.7330015,0 0.9424305,0.439801 1.1309166,0.816773 0.1047145,0.167543 0.2303719,0.418858 0.3350864,0.712058 -0.4816867,0.272258 -0.9843163,0.418858 -1.4450601,0.418858 z M 14.940016,1.7294691 C 14.290786,1.0802392 14.018528,1.1430679 12.678183,1.3106111 11.861409,1.4153256 10.290692,1.6038117 8.384888,1.7922978 5.8507971,2.0854984 3.0235057,2.3577561 2.4161616,2.1483271 1.5575027,1.8341836 1.4527882,2.0017268 1.9344749,2.5043564 2.6255906,3.1954721 2.8769054,3.3211295 3.798393,3.0907576 4.7408235,2.8813286 7.3168001,2.588128 9.6624049,2.3996419 9.5786333,3.5096156 9.222604,5.2688192 8.5524312,6.9023653 7.0026566,7.0280227 5.4947679,7.1955659 4.8245951,7.3421662 5.4109963,6.4206786 6.290598,5.0175044 6.4371983,4.7452467 6.6466273,4.3263887 6.7303989,4.1379026 6.4790841,3.9284736 6.2068264,3.6562159 5.9973974,3.4886727 5.7041968,3.3630153 5.3900534,3.1745292 5.264396,3.2792437 5.4528821,3.7190446 5.6413681,4.2426171 5.3900531,4.9337328 5.1387386,5.499191 4.8664809,6.0855922 4.3219655,6.965194 3.6308498,7.384052 3.0653915,7.7610242 2.8769054,7.80291 2.8769054,8.0961106 c 0,0.1675432 0,0.3769722 0.1466003,0.5445154 C 3.170106,8.7872263 3.7355643,8.4940257 4.1963081,8.3055396 4.8874238,8.0332819 6.6256844,7.7610242 8.2592306,7.5725381 8.1964016,7.7400813 8.1126303,7.8866816 8.0288587,8.0542248 7.2539714,9.6039994 6.1021119,11.258488 4.8664809,12.242805 4.7198806,11.907718 4.5732803,11.614518 4.4685658,11.405089 4.0706507,10.755859 3.4842495,10.39983 2.7093622,10.39983 c -1.0890308,0 -1.7382607,0.900544 -1.7382607,1.73826 0,1.256574 0.837716,1.863918 1.7382607,1.884861 0.5235725,0.02094 1.1099737,-0.167543 1.7173178,-0.460744 0.083772,0.251315 0.1675432,0.544516 0.209429,0.774888 0.1466003,0.607344 0.8167731,0.376972 0.7748873,-0.146601 C 5.3691103,13.813522 5.264396,13.457493 5.1596815,13.080521 6.3953125,12.200919 7.6518865,10.755859 8.6362028,8.9547695 8.9084605,8.4521399 9.1597753,7.9704532 9.3692043,7.4678236 10.332578,7.384052 11.170294,7.3421662 11.568209,7.3631091 c 1.026202,0.062829 1.340345,0.3141435 0.984316,1.6335462 -0.272258,1.0471447 -1.130916,3.1833207 -1.822032,4.0419797 -0.628287,0.79583 -0.7748875,0.879602 -0.7330017,1.214688 0.062829,0.356029 0.5235727,0.314144 1.3822317,-0.607344 1.340345,-1.424117 2.157118,-4.6493237 2.513148,-5.0472388 0.230372,-0.2722577 0.418858,-0.4607438 0.06283,-0.8796018 C 13.704385,7.4259378 13.432127,7.1117943 13.055155,6.8185937 12.80384,6.6510505 12.489696,6.5882218 11.631038,6.6510505 c -0.586402,0.041886 -1.277517,0.083772 -1.989576,0.1466003 0.64923,-1.6963748 1.047145,-3.3508639 1.235631,-4.5027234 1.29846,-0.062829 2.450319,-0.1047145 3.036721,-0.020943 1.256574,0.1675432 1.654489,0.041886 1.026202,-0.5445154 z"
       style="font-weight:bold;font-size:medium;line-height:1.25;font-family:'Noto Serif CJK SC';-inkscape-font-specification:'Noto Serif CJK SC Bold';text-align:center;letter-spacing:0px;word-spacing:0px;text-anchor:middle;fill:#5c3566"
       id="path83505" /></g></svg>
