<?xml version="1.0" encoding="UTF-8" standalone="no"?>
<!-- Created with Inkscape (http://www.inkscape.org/) -->

<svg
   width="16"
   height="16"
   viewBox="0 0 16 16"
   version="1.1"
   id="svg5"
   inkscape:version="1.4 (86a8ad7, 2024-10-11)"
   sodipodi:docname="31F0.svg"
   inkscape:export-filename="..\0000.png"
   inkscape:export-xdpi="96"
   inkscape:export-ydpi="96"
   xml:space="preserve"
   xmlns:inkscape="http://www.inkscape.org/namespaces/inkscape"
   xmlns:sodipodi="http://sodipodi.sourceforge.net/DTD/sodipodi-0.dtd"
   xmlns="http://www.w3.org/2000/svg"
   xmlns:svg="http://www.w3.org/2000/svg"><sodipodi:namedview
     id="namedview7"
     pagecolor="#ffffff"
     bordercolor="#666666"
     borderopacity="1.0"
     inkscape:pageshadow="2"
     inkscape:pageopacity="0"
     inkscape:pagecheckerboard="0"
     inkscape:document-units="px"
     showgrid="true"
     width="16mm"
     units="px"
     inkscape:zoom="33.322407"
     inkscape:cx="9.7982118"
     inkscape:cy="9.5581331"
     inkscape:window-width="1680"
     inkscape:window-height="998"
     inkscape:window-x="-8"
     inkscape:window-y="-8"
     inkscape:window-maximized="1"
     inkscape:current-layer="layer1"
     showguides="true"
     inkscape:guide-bbox="true"
     inkscape:snap-bbox="true"
     inkscape:bbox-paths="true"
     inkscape:bbox-nodes="true"
     inkscape:snap-global="true"
     inkscape:showpageshadow="2"
     inkscape:deskcolor="#ffffff"><inkscape:grid
       type="xygrid"
       id="grid828"
       originx="0"
       originy="0"
       spacingy="1"
       spacingx="1"
       units="px" /></sodipodi:namedview><defs
     id="defs2" /><g
     inkscape:label="Layer 1"
     inkscape:groupmode="layer"
     id="layer1"><path
       d="M 8.730707,4.5041772 7.4111075,4.0694856 C 7.333484,4.3955043 7.1316629,4.8612453 7.0074653,5.0941158 6.4330514,6.2429437 5.1755507,8.090383 2.9555185,9.4255072 L 3.9490993,10.186218 C 5.3463224,9.2702602 6.4330514,8.1059077 7.2092864,7.0191787 H 11.44753 C 11.18361,8.1835312 10.3608,9.7825753 9.3672197,10.962453 8.1873425,12.328626 6.6193478,13.461929 4.2440686,14.160541 l 1.0091056,0.900432 C 7.6595027,14.160541 9.2119727,13.011713 10.376325,11.567916 11.509629,10.170693 12.363487,8.4164017 12.705031,7.1278516 12.782651,6.9105058 12.891327,6.6310612 13,6.4447648 L 12.099567,5.9014003 c -0.217345,0.077624 -0.49679,0.1086729 -0.838333,0.1086729 H 7.8613238 L 8.1407684,5.5132828 C 8.264966,5.2804123 8.5133612,4.8301959 8.730707,4.5041772 Z"
       id="text1"
       style="font-size:15.5247px;line-height:1.25;font-family:'Noto Sans CJK JP';-inkscape-font-specification:'Noto Sans CJK JP';text-align:center;letter-spacing:0px;word-spacing:0px;text-anchor:middle;fill:#5c3566"
       aria-label="ㇰ" /></g></svg>
