<?xml version="1.0" encoding="UTF-8" standalone="no"?>
<!-- Created with Inkscape (http://www.inkscape.org/) -->

<svg
   width="16"
   height="16"
   viewBox="0 0 16 16"
   version="1.1"
   id="svg5"
   inkscape:version="1.2.2 (732a01da63, 2022-12-09)"
   sodipodi:docname="3200.svg"
   inkscape:export-filename="..\0000.png"
   inkscape:export-xdpi="96"
   inkscape:export-ydpi="96"
   xml:space="preserve"
   xmlns:inkscape="http://www.inkscape.org/namespaces/inkscape"
   xmlns:sodipodi="http://sodipodi.sourceforge.net/DTD/sodipodi-0.dtd"
   xmlns="http://www.w3.org/2000/svg"
   xmlns:svg="http://www.w3.org/2000/svg"><sodipodi:namedview
     id="namedview7"
     pagecolor="#ffffff"
     bordercolor="#666666"
     borderopacity="1.0"
     inkscape:pageshadow="2"
     inkscape:pageopacity="0"
     inkscape:pagecheckerboard="0"
     inkscape:document-units="px"
     showgrid="true"
     width="16mm"
     units="px"
     inkscape:zoom="33.322407"
     inkscape:cx="6.6471789"
     inkscape:cy="12.244013"
     inkscape:window-width="1680"
     inkscape:window-height="998"
     inkscape:window-x="-8"
     inkscape:window-y="-8"
     inkscape:window-maximized="1"
     inkscape:current-layer="layer1"
     showguides="true"
     inkscape:guide-bbox="true"
     inkscape:snap-bbox="true"
     inkscape:bbox-paths="true"
     inkscape:bbox-nodes="true"
     inkscape:snap-global="true"
     inkscape:showpageshadow="2"
     inkscape:deskcolor="#ffffff"><inkscape:grid
       type="xygrid"
       id="grid828"
       originx="0"
       originy="0" /></sodipodi:namedview><defs
     id="defs2" /><g
     inkscape:label="Layer 1"
     inkscape:groupmode="layer"
     id="layer1"><path
       fill="currentColor"
       d="M 10.054499,9.9462299 C 9.987839,11.247651 9.8514796,11.917159 9.6454251,12.67869 c -0.2060512,0.761529 -0.5151282,1.517376 -0.9272312,2.26754 -0.072724,0.125027 -0.1363574,0.187541 -0.1909004,0.187541 -0.054545,0 -0.162116,-0.06393 -0.3227128,-0.191803 C 8.0439819,14.814099 7.7939931,14.704701 7.4546144,14.613772 8.1757941,13.556723 8.6272888,12.317815 8.8090988,10.897049 8.9363663,9.8968311 9.0000001,8.0469952 9.0000001,5.3475415 V 3.4039348 L 8.9818193,1.1534427 c 0,-0.1022951 0.054543,-0.1534426 0.163629,-0.1534426 l 2.4632577,0.034099 h 0.999954 l 2.254445,-0.034099 c 0.109086,0 0.163628,0.051147 0.163628,0.1534426 l -0.02727,2.1993444 v 7.1947559 l 0.02727,2.830163 c 0,0.579671 -0.184839,1.003059 -0.554519,1.270164 -0.29817,0.233006 -0.929961,0.349509 -1.89537,0.349509 -0.403011,0 -0.625729,-0.01847 -0.668152,-0.05541 -0.04243,-0.03694 -0.09545,-0.170491 -0.159084,-0.400653 -0.06364,-0.230165 -0.186363,-0.46175 -0.368167,-0.694755 0.593916,0.05684 1.19086,0.08526 1.79083,0.08526 0.484828,0 0.72724,-0.221639 0.72724,-0.664918 V 9.9462299 Z m 0.06363,-4.0000002 c 0,1.3923499 -0.0061,2.4854644 -0.01817,3.0537703 h 3.799562 V 5.9462297 Z M 13.899515,5 V 1.9888525 H 10.118132 V 5 Z M 4.3999374,1 v 11.900329 h 2.1180871 v 1.099672 H 0.74555521 V 12.900329 H 3.0000001 V 2.4662296 C 2.4545697,2.8810931 1.6970277,3.2874319 0.72737415,3.6852461 L 0.46374969,2.4832789 C 1.3909811,2.1593444 2.3091219,1.6649181 3.2181723,1 Z"
       id="path243"
       style="fill:#5c3566;fill-opacity:1;stroke-width:0.999997"
       sodipodi:nodetypes="cscssccscccccccccccssccsscccccccccccccccccccccccc" /></g></svg>
