<?xml version="1.0" encoding="UTF-8" standalone="no"?>
<svg
   version="1.1"
   viewBox="0 0 36 36"
   id="svg5"
   sodipodi:docname="1f1f1-1f1f8.svg"
   inkscape:version="1.4-beta3 (01c8a1c, 2024-08-28, custom)"
   xmlns:inkscape="http://www.inkscape.org/namespaces/inkscape"
   xmlns:sodipodi="http://sodipodi.sourceforge.net/DTD/sodipodi-0.dtd"
   xmlns:xlink="http://www.w3.org/1999/xlink"
   xmlns="http://www.w3.org/2000/svg"
   xmlns:svg="http://www.w3.org/2000/svg">
  <defs
     id="defs5" />
  <sodipodi:namedview
     id="namedview5"
     pagecolor="#ffffff"
     bordercolor="#666666"
     borderopacity="1.0"
     inkscape:showpageshadow="2"
     inkscape:pageopacity="0.0"
     inkscape:pagecheckerboard="0"
     inkscape:deskcolor="#d1d1d1"
     inkscape:zoom="20.972222"
     inkscape:cx="18"
     inkscape:cy="18"
     inkscape:window-width="1680"
     inkscape:window-height="998"
     inkscape:window-x="-8"
     inkscape:window-y="-8"
     inkscape:window-maximized="1"
     inkscape:current-layer="svg5" />
  <path
     d="m36 27c0 2.21-1.79 4-4 4h-28c-2.21 0-4-1.79-4-4v-5h36z"
     fill="#009543"
     id="path1" />
  <path
     d="m32 5h-28c-2.21 0-4 1.79-4 4v5h36v-5c0-2.21-1.79-4-4-4z"
     fill="#00209f"
     id="path2" />
  <path
     d="M0 13h36v10H0z"
     fill="#FFF"
     id="path3" />
  <g
     clip-rule="evenodd"
     fill-rule="evenodd"
     id="g5">
    <path
       d="M21.199 19.859c-.015-.047-.426.141-.426.141l-1.846-2.362c.226-.405.49-1.073.49-1.904 0-1.241-.658-1.567-1.077-1.654v-.055c0-.172-.139-.311-.311-.311h-.059c-.172 0-.311.139-.311.311v.056c-.419.087-1.076.413-1.076 1.654 0 .848.275 1.528.504 1.93L15.328 20s-.359-.188-.375-.141c-.016.047-.75 1.219-.75 1.219s1.562 1.02 3.797 1.02c2 0 3.873-1.02 3.873-1.02s-.658-1.172-.674-1.219zm-2.105-4.078c0 .554-.221 1.157-.424 1.529l-.352-.45c.004-.02.022-.033.022-.054v-.728h.488l-.488-.488v-1.121c.494.174.754.719.754 1.312zm-2.188 0c0-.594.26-1.138.753-1.312v1.121l-.488.488h.488v.728c0 .025.021.041.026.064l-.345.458c-.204-.37-.434-.982-.434-1.547z"
       fill="#292F33"
       id="path4" />
    <path
       d="M20.797 20.344s-1.422.526-2.797.526-2.797-.526-2.797-.526l-.344.649s1.453.649 3.141.649 3.141-.649 3.141-.649l-.344-.649z"
       fill="#53646D"
       id="path5" />
  </g>
  <rect
     id="a"
     y="13"
     width=".2"
     height="10"
     style="fill:#77767b" />
  <use
     x="35.8"
     xlink:href="#a"
     id="use5" />
</svg>
