<?xml version="1.0" encoding="UTF-8" standalone="no"?>
<svg
   viewBox="0 0 36 36"
   version="1.1"
   id="svg7"
   sodipodi:docname="1f1f1-1f1ee.svg"
   inkscape:version="1.4-beta3 (01c8a1c, 2024-08-28, custom)"
   xmlns:inkscape="http://www.inkscape.org/namespaces/inkscape"
   xmlns:sodipodi="http://sodipodi.sourceforge.net/DTD/sodipodi-0.dtd"
   xmlns="http://www.w3.org/2000/svg"
   xmlns:svg="http://www.w3.org/2000/svg">
  <defs
     id="defs7" />
  <sodipodi:namedview
     id="namedview7"
     pagecolor="#ffffff"
     bordercolor="#666666"
     borderopacity="1.0"
     inkscape:showpageshadow="2"
     inkscape:pageopacity="0.0"
     inkscape:pagecheckerboard="0"
     inkscape:deskcolor="#d1d1d1"
     showguides="true"
     inkscape:zoom="21.583333"
     inkscape:cx="20.779923"
     inkscape:cy="19.343629"
     inkscape:window-width="1680"
     inkscape:window-height="998"
     inkscape:window-x="-8"
     inkscape:window-y="-8"
     inkscape:window-maximized="1"
     inkscape:current-layer="svg7">
    <sodipodi:guide
       position="0,18"
       orientation="0,-1"
       id="guide7"
       inkscape:locked="false" />
  </sodipodi:namedview>
  <path
     d="m 36,27 c 0,2.21 -1.79,4 -4,4 H 4 C 1.79,31 0,29.21 0,27 v -9 l 3,-3 h 30 l 3,3 z"
     fill="#ce1b26"
     id="path1"
     sodipodi:nodetypes="ssssccccs" />
  <path
     d="m32 5h-28c-2.21 0-4 1.79-4 4v9h36v-9c0-2.21-1.79-4-4-4z"
     fill="#002b7f"
     id="path2" />
  <path
     d="m12.52 11.42c0-.74-.59-1.33-1.43-1.33-.89 0-1.87.3-2.62.47h-.57c-.75-.17-1.73-.47-2.62-.47-.84 0-1.43.59-1.43 1.33 0 .89.33 1.55.73 2.32h7.22c.4-.77.73-1.43.73-2.32z"
     fill="#b28914"
     id="path3" />
  <path
     d="m7.83 10.41-.02.33c-.63-.1-1.51-.45-2.34-.45-.76 0-1.36.31-1.36 1.08 0 .76.32 1.45.75 2.15l-.45.21c-.4-.77-.73-1.43-.73-2.32 0-.74.58-1.48 1.59-1.48.89 0 1.8.3 2.55.47zm.71 0 .02.33c.63-.1 1.51-.45 2.34-.45.77 0 1.36.31 1.36 1.08 0 .76-.32 1.45-.75 2.15l.45.21c.4-.77.73-1.43.73-2.32 0-.74-.58-1.48-1.59-1.48-.89 0-1.8.3-2.55.47zm-.36-3.38-.26.49.26.49.26-.49zm0 1.24-.26.49.26.49.26-.49zm-.94-.13.41.26.41-.26-.41-.26zm1.05 0 .41.26.41-.26-.41-.26z"
     fill="#ffd83d"
     id="path4" />
  <path
     d="m8.18 7.95c.11 0 .2.09.2.2s-.09.2-.2.2-.2-.09-.2-.2.09-.2.2-.2zm0 .94c.29 0 .53.24.53.53s-.24.53-.53.53-.53-.24-.53-.53.24-.53.53-.53zm0 3.32c-.66 0-1.14.31-1.17 1.1-.16-.28-.84-1.17-1.48-1.05-.38.07-.71.59-.65 1.19-.31-.9-1.23-1.05-1.9-.52.59.49.86 1.93 1.36 2.55h7.68c.5-.63.76-2.06 1.36-2.55-.67-.53-1.58-.38-1.9.52.06-.6-.28-1.12-.66-1.19-.63-.12-1.31.77-1.47 1.05-.03-.79-.51-1.1-1.17-1.1z"
     fill="#ffd83d"
     id="path5" />
  <path
     d="m11.72 15.25c-.59-.16-1.95-.25-3.54-.25-1.06 0-2.02.04-2.71.11-.35.04-.63.08-.83.14-.19.06-.32.11-.33.22.01.11.13.18.33.25.59.21 1.95.39 3.54.39 1.06 0 2.02-.08 2.71-.19.35-.06.63-.12.83-.19s.32-.14.33-.25c-.01-.11-.13-.17-.33-.22z"
     id="path6" />
  <path
     d="m7.72 10.38s.59.08.93 0c0 0 .14 1.2.25 1.64 0 0-.41-.12-.7-.12s-.73.12-.73.12.08-.54.15-.9.11-.74.11-.74zm-4.4 1.64c-.19-.8-.2-1.63.82-2.32s2.71-.11 3.18.01.48.63-.1.48-2.18-.59-2.96.1-.63 1.2-.51 1.61c.34 1.18-.28.74-.43.12zm9.74.05c.19-.8.2-1.63-.82-2.32s-2.71-.11-3.18.01-.48.63.1.48 2.18-.59 2.96.1.62 1.2.51 1.61c-.26.95.28.74.43.12z"
     fill="#ffd83d"
     id="path7" />
</svg>
