<?xml version="1.0" encoding="UTF-8" standalone="no"?>
<svg
   viewBox="0 0 36 36"
   version="1.1"
   id="svg6"
   sodipodi:docname="1f1fb-1f1fa.svg"
   inkscape:version="1.4 (86a8ad7, 2024-10-11)"
   xmlns:inkscape="http://www.inkscape.org/namespaces/inkscape"
   xmlns:sodipodi="http://sodipodi.sourceforge.net/DTD/sodipodi-0.dtd"
   xmlns="http://www.w3.org/2000/svg"
   xmlns:svg="http://www.w3.org/2000/svg">
  <defs
     id="defs6" />
  <sodipodi:namedview
     id="namedview6"
     pagecolor="#ffffff"
     bordercolor="#666666"
     borderopacity="1.0"
     inkscape:showpageshadow="2"
     inkscape:pageopacity="0.0"
     inkscape:pagecheckerboard="0"
     inkscape:deskcolor="#d1d1d1"
     inkscape:zoom="20.972222"
     inkscape:cx="14.18543"
     inkscape:cy="9.0834437"
     inkscape:window-width="1680"
     inkscape:window-height="998"
     inkscape:window-x="-8"
     inkscape:window-y="-8"
     inkscape:window-maximized="1"
     inkscape:current-layer="svg6" />
  <path
     fill="#d21034"
     d="M 32,5 H 4 C 3.1452959,5 2.3820197,5.2482819 1.732,5.705 L 10,18 h 23 l 3,-3 V 9 C 36,6.791 34.209,5 32,5 Z"
     id="path1"
     sodipodi:nodetypes="ssccccss" />
  <path
     fill="#009543"
     d="m 4,31 h 28 c 2.209,0 4,-1.791 4,-4 V 21 L 33,18 H 10 L 1.7580591,30.31306 C 2.3975575,30.746674 3.169217,31 4,31 Z"
     id="path2"
     sodipodi:nodetypes="sssccccs" />
  <path
     fill="#141414"
     d="M 17,15 1.732,5.705 C 1.258,6.032 0.858,6.459 0.562,6.955 L 0.56,6.957 1,8 0,9 v 18 l 1,1 -0.438,1.045 10e-4,0.003 c 0.301,0.504 0.71,0.937 1.195,1.265 H 1.759 L 17,21 h 19 v -2 l -1,-1 1,-1 v -2 z"
     id="path3"
     sodipodi:nodetypes="ccccccccccccccccccc" />
  <path
     fill="#FDCE12"
     d="M.562 6.955l-.002.002C.205 7.555 0 8.254 0 9l15 9-15 9c0 .747.205 1.447.562 2.045L17 19h19v-2H17L.562 6.955z"
     id="path4" />
  <path
     fill="#FDCE12"
     d="M4.375 21.606s3.25-.5 3.25-3.71c0-1.974-1.708-3.062-3.042-3.062-1.333 0-2.75 1-2.75 2.75s1.625 2.292 2.417 2.292 2-.625 1.833-2c-.464 1.913-2.413 1.858-3.167.708-.833-1.271.459-3.084 2.126-2.584 1.579.474 1.661 2.081 1.125 3.084-.667 1.25-1.771 1.188-1.771 1.188l-.021 1.334z"
     id="path5" />
  <path
     fill="#FDCE12"
     d="M5.376 18.021c-.183-.242-.407-.461-.636-.653.492-.505.911-.648.781-.722-.089-.051-.549.156-1.041.516-.492-.36-.952-.567-1.041-.516-.13.075.289.218.781.722-.229.192-.453.41-.636.653-.199.263-.167.708-.167.708s.269-.108.5-.333c.187-.181.347-.446.563-.723.216.277.376.542.563.723.231.225.5.333.5.333s.032-.445-.167-.708z"
     id="path6" />
</svg>
