<?xml version="1.0" encoding="UTF-8" standalone="no"?>
<!-- Created with Inkscape (http://www.inkscape.org/) -->

<svg
   width="16"
   height="16"
   viewBox="0 0 16 16"
   version="1.1"
   id="svg5"
   inkscape:version="1.2.2 (732a01da63, 2022-12-09)"
   sodipodi:docname="0250.svg"
   inkscape:export-filename="..\0000.png"
   inkscape:export-xdpi="96"
   inkscape:export-ydpi="96"
   xml:space="preserve"
   xmlns:inkscape="http://www.inkscape.org/namespaces/inkscape"
   xmlns:sodipodi="http://sodipodi.sourceforge.net/DTD/sodipodi-0.dtd"
   xmlns="http://www.w3.org/2000/svg"
   xmlns:svg="http://www.w3.org/2000/svg"><sodipodi:namedview
     id="namedview7"
     pagecolor="#cccccc"
     bordercolor="#8d8d8d"
     borderopacity="1"
     inkscape:pageshadow="2"
     inkscape:pageopacity="0"
     inkscape:pagecheckerboard="0"
     inkscape:document-units="px"
     showgrid="true"
     width="16mm"
     units="px"
     inkscape:zoom="38.941569"
     inkscape:cx="12.005166"
     inkscape:cy="9.2959788"
     inkscape:window-width="1680"
     inkscape:window-height="998"
     inkscape:window-x="-8"
     inkscape:window-y="-8"
     inkscape:window-maximized="1"
     inkscape:current-layer="layer1"
     showguides="true"
     inkscape:guide-bbox="true"
     inkscape:snap-bbox="true"
     inkscape:bbox-paths="true"
     inkscape:bbox-nodes="true"
     inkscape:snap-global="true"
     inkscape:showpageshadow="2"
     inkscape:deskcolor="#cccccc"><inkscape:grid
       type="xygrid"
       id="grid828"
       originx="0"
       originy="0" /><sodipodi:guide
       position="8,10"
       orientation="1,0"
       id="guide4878"
       inkscape:locked="false" /></sodipodi:namedview><defs
     id="defs2" /><g
     inkscape:label="Layer 1"
     inkscape:groupmode="layer"
     id="layer1"><path
       d="M 3.2296129,8.4125372 C 3.2296129,8.2432732 3.2413049,8.1692641 3.2413049,8 H 10.64242 v -0.060667 c 0,-1.8415175 -0.370482,-4.9807791 -2.9113388,-4.9807791 -0.751744,0 -2.1585184,0.2602175 -2.8294944,2.0748193 H 3.7791426 V 2.776552 C 4.4295745,2.5588136 6.2604691,2.0000113 7.9064632,2.0000113 c 2.8364628,0 4.8639238,1.5161463 4.8639238,5.9029211 0,3.6987726 -2.065051,6.0970576 -4.9574608,6.0970576 -0.951013,0 -4.5833134,-0.103541 -4.5833133,-5.5874528 z M 5.4277326,9.007076 c 0.071785,3.110191 1.1061967,4.034372 2.4787307,4.034372 1.7972785,0 2.5487547,-1.666372 2.7008807,-4.034372 z"
       id="path3313"
       style="stroke-width:0.999997"
       sodipodi:nodetypes="sccsscccsssscscc" /></g></svg>
