<?xml version="1.0" encoding="UTF-8" standalone="no"?>
<!-- Created with Inkscape (http://www.inkscape.org/) -->

<svg
   width="16"
   height="16"
   viewBox="0 0 16 16"
   version="1.1"
   id="svg5"
   inkscape:version="1.4.3 (0d15f75, 2025-12-25)"
   sodipodi:docname="1AB0.svg"
   inkscape:export-filename="..\0000.png"
   inkscape:export-xdpi="96"
   inkscape:export-ydpi="96"
   xmlns:inkscape="http://www.inkscape.org/namespaces/inkscape"
   xmlns:sodipodi="http://sodipodi.sourceforge.net/DTD/sodipodi-0.dtd"
   xmlns:xlink="http://www.w3.org/1999/xlink"
   xmlns="http://www.w3.org/2000/svg"
   xmlns:svg="http://www.w3.org/2000/svg">
  <sodipodi:namedview
     id="namedview7"
     pagecolor="#cccccc"
     bordercolor="#8d8d8d"
     borderopacity="1"
     inkscape:pageshadow="2"
     inkscape:pageopacity="0"
     inkscape:pagecheckerboard="0"
     inkscape:document-units="px"
     showgrid="true"
     width="16mm"
     units="px"
     inkscape:zoom="33.322407"
     inkscape:cx="14.119628"
     inkscape:cy="8.0576412"
     inkscape:window-width="1680"
     inkscape:window-height="998"
     inkscape:window-x="-8"
     inkscape:window-y="-8"
     inkscape:window-maximized="1"
     inkscape:current-layer="layer1"
     showguides="true"
     inkscape:guide-bbox="true"
     inkscape:snap-bbox="true"
     inkscape:bbox-paths="true"
     inkscape:bbox-nodes="true"
     inkscape:snap-global="true"
     inkscape:showpageshadow="2"
     inkscape:deskcolor="#cccccc">
    <inkscape:grid
       type="xygrid"
       id="grid828"
       originx="0"
       originy="0"
       spacingx="1"
       spacingy="1"
       units="px" />
  </sodipodi:namedview>
  <defs
     id="defs2" />
  <g
     inkscape:label="Layer 1"
     inkscape:groupmode="layer"
     id="layer1">
    <path
       d="M 8.0680273,2.8440363 C 8.8911565,1.6330274 9.8888887,1.0275229 11.061224,1.0275229 12.783253,1.0275229 14,2.252094 14,3.9449542 14,5.5247634 12.882896,7.0000001 10.979591,7.0000001 9.7533839,7.0000001 8.7284409,6.3577984 7.904762,5.073395 7.1065761,6.3211012 6.1269842,6.9449543 4.9659865,6.9449543 3.2297825,6.9449543 2,5.776499 2,4.027523 2,2.3888573 3.1289609,1 5.0476191,1 6.2972463,1 7.304049,1.6146788 8.0680273,2.8440363 Z M 4.9795919,5.6238531 c 0.8751237,0 1.6324933,-0.5137614 2.2721088,-1.5412843 C 6.5711093,2.9082571 5.8364154,2.3211012 5.0476191,2.3211012 c -1.123083,0 -1.5782315,0.8933896 -1.5782315,1.6376136 0,0.4614763 0.1963503,1.6651383 1.5102043,1.6651383 z m 5.9727891,0.027523 c 1.106638,0 1.578232,-0.8660329 1.578232,-1.6651383 0,-0.8582246 -0.523299,-1.6100907 -1.564627,-1.6100907 -0.790373,0 -1.5296014,0.5045871 -2.2176866,1.5137614 0.6805913,1.1743117 1.4152856,1.7614676 2.2040816,1.7614676 z"
       id="path10353"
       style="fill:#c01c28;stroke-width:1"
       sodipodi:nodetypes="cssscssscscsssssscs" />
    <ellipse
       id="path7528"
       cx="1.5871867"
       cy="14.310078"
       rx="0.80620158"
       ry="0.80620098"
       style="stroke-width:1;fill:#c01c28" />
    <use
       x="1.4573643"
       y="-2.2945742"
       xlink:href="#path7528"
       id="use7582" />
    <use
       x="3.7519379"
       y="-3.7519375"
       xlink:href="#path7528"
       id="use7584" />
    <use
       x="6.3565892"
       y="-4.3100778"
       xlink:href="#path7528"
       id="use7586" />
    <use
       x="8.9612403"
       y="-3.7519375"
       xlink:href="#path7528"
       id="use7588" />
    <use
       x="11.255814"
       y="-2.2945742"
       xlink:href="#path7528"
       id="use7590" />
    <use
       x="12.713178"
       xlink:href="#path7528"
       id="use7592" />
  </g>
</svg>
