<?xml version="1.0" encoding="UTF-8" standalone="no"?>
<!-- Created with Inkscape (http://www.inkscape.org/) -->

<svg
   width="16"
   height="16"
   viewBox="0 0 16 16"
   version="1.1"
   id="svg5"
   inkscape:version="1.4 (86a8ad7, 2024-10-11)"
   sodipodi:docname="1D400.svg"
   inkscape:export-filename="..\0000.png"
   inkscape:export-xdpi="96"
   inkscape:export-ydpi="96"
   xml:space="preserve"
   xmlns:inkscape="http://www.inkscape.org/namespaces/inkscape"
   xmlns:sodipodi="http://sodipodi.sourceforge.net/DTD/sodipodi-0.dtd"
   xmlns="http://www.w3.org/2000/svg"
   xmlns:svg="http://www.w3.org/2000/svg"><sodipodi:namedview
     id="namedview7"
     pagecolor="#cccccc"
     bordercolor="#8d8d8d"
     borderopacity="1"
     inkscape:pageshadow="2"
     inkscape:pageopacity="0"
     inkscape:pagecheckerboard="0"
     inkscape:document-units="px"
     showgrid="true"
     width="16mm"
     units="px"
     inkscape:zoom="64"
     inkscape:cx="7.0859375"
     inkscape:cy="10.242187"
     inkscape:window-width="1680"
     inkscape:window-height="998"
     inkscape:window-x="-8"
     inkscape:window-y="-8"
     inkscape:window-maximized="1"
     inkscape:current-layer="layer1"
     showguides="true"
     inkscape:guide-bbox="true"
     inkscape:snap-bbox="true"
     inkscape:bbox-paths="true"
     inkscape:bbox-nodes="true"
     inkscape:snap-global="true"
     inkscape:showpageshadow="2"
     inkscape:deskcolor="#cccccc"><inkscape:grid
       type="xygrid"
       id="grid828"
       originx="0"
       originy="0"
       spacingx="1"
       spacingy="1"
       units="px" /></sodipodi:namedview><defs
     id="defs2" /><g
     inkscape:label="Layer 1"
     inkscape:groupmode="layer"
     id="layer1"><path
       id="path337"
       style="fill:#c01c28;stroke-width:0.999999"
       d="M 9.5253906,1 C 5.3119166,1 3.0019531,5.0042546 3.0019531,7.8261719 3.0019531,10.732146 5.3038849,11 5.7908652,11 5.8975991,11 5.9977098,10.99 6.0916984,10.96875 L 6.069544,10.001953 c -0.6309516,0 -0.8603991,-0.3967902 -0.8603991,-2.0078124 0,-2.0622099 1.2049406,-5.9257812 3.5642926,-5.9257812 1.7280185,0 1.7363285,2.1473076 1.7363285,2.6152344 0,3.4002864 -1.7915904,5.2507186 -2.1855472,5.6562502 -1.9658257,2.023598 -4.296883,2.036515 -5.7070313,3.384765 l 0.5761719,0.78125 C 3.9951559,13.916167 4.6933663,13.804688 5.1074219,13.804688 6.5232377,13.804688 7.1920116,15 9.2207031,15 10.554138,15 11.476097,13.849366 12.320312,12.576172 l -0.785156,-0.558594 c -0.706151,1.029805 -1.322013,1.285156 -1.9453122,1.285156 -1.3997985,0 -1.7287431,-0.646484 -2.7382813,-0.646484 L 6.8359375,12.57617 C 11.841714,10.294363 13,7.6679586 13,4.4609375 13,1.3693878 10.647225,1 9.5253906,1 Z"
       sodipodi:nodetypes="sssccssscccssccsccss" /></g></svg>
