<?xml version="1.0" encoding="UTF-8" standalone="no"?>
<!-- Created with Inkscape (http://www.inkscape.org/) -->

<svg
   width="16"
   height="16"
   viewBox="0 0 16 16"
   version="1.1"
   id="svg5"
   inkscape:version="1.4.3 (0d15f75, 2025-12-25)"
   sodipodi:docname="1DB00.svg"
   inkscape:export-filename="..\0000.png"
   inkscape:export-xdpi="96"
   inkscape:export-ydpi="96"
   xml:space="preserve"
   xmlns:inkscape="http://www.inkscape.org/namespaces/inkscape"
   xmlns:sodipodi="http://sodipodi.sourceforge.net/DTD/sodipodi-0.dtd"
   xmlns="http://www.w3.org/2000/svg"
   xmlns:svg="http://www.w3.org/2000/svg"><sodipodi:namedview
     id="namedview7"
     pagecolor="#ffffff"
     bordercolor="#8d8d8d"
     borderopacity="1"
     inkscape:pageshadow="2"
     inkscape:pageopacity="0"
     inkscape:pagecheckerboard="0"
     inkscape:document-units="px"
     showgrid="true"
     width="16mm"
     units="px"
     inkscape:zoom="23.5625"
     inkscape:cx="14.111406"
     inkscape:cy="14.366048"
     inkscape:window-width="1680"
     inkscape:window-height="998"
     inkscape:window-x="-8"
     inkscape:window-y="-8"
     inkscape:window-maximized="1"
     inkscape:current-layer="layer1"
     showguides="true"
     inkscape:guide-bbox="true"
     inkscape:snap-bbox="true"
     inkscape:bbox-paths="true"
     inkscape:bbox-nodes="true"
     inkscape:snap-global="true"
     inkscape:showpageshadow="2"
     inkscape:deskcolor="#cccccc"><inkscape:grid
       type="xygrid"
       id="grid828"
       originx="0"
       originy="0"
       spacingx="1"
       spacingy="1"
       units="px" /><sodipodi:guide
       position="16,8"
       orientation="0,-1"
       id="guide1"
       inkscape:locked="false" /></sodipodi:namedview><defs
     id="defs2" /><g
     inkscape:label="Layer 1"
     inkscape:groupmode="layer"
     id="layer1"><path
       fill="currentColor"
       d="M 0.92116179,10.781818 1.8381744,9.8909089 c 0.3775933,0.5636361 0.9709543,0.8909101 1.8160442,0.8909101 1.2318388,0 2.6181814,-0.758028 3.3084371,-2.3090921 C 6.3692947,6.9636362 5.2724759,6.2181818 3.6901799,6.2181818 2.9529738,6.2181818 2.3775934,6.4363635 2,6.8909089 L 0.97510402,6.1636363 C 1.5325033,5.3818182 2.4315353,5 3.6721993,5 5.6500693,5 7.0165976,5.7272727 7.7717844,7.1636362 8.5089904,5.7636363 9.8215766,5 11.673583,5 14.132643,5 15,6.7440666 15,8.4545451 15,9.6582933 14.619146,12 11.655601,12 9.7316737,12 8.3651454,11.254545 7.5380361,9.7818178 6.7828494,11.218182 5.4702629,12 3.6182573,12 2.3596128,12 1.4605812,11.563636 0.92116179,10.781818 Z M 8.3471646,8.5272724 c 0.6293224,1.5090916 1.7081604,2.2545456 3.2544954,2.2545456 1.658102,0 2.247579,-1.0643899 2.247579,-2.2545455 0,-0.7073456 -0.228691,-2.3090909 -2.229598,-2.3090909 -1.492393,0 -2.5892121,0.8000001 -3.2724764,2.3090908 z"
       id="path1"
       style="stroke-width:1;fill:#c01c28"
       sodipodi:nodetypes="ccscsccscssscsccsssc" /></g></svg>
