<?xml version="1.0" encoding="UTF-8" standalone="no"?>
<!-- Created with Inkscape (http://www.inkscape.org/) -->

<svg
   width="16"
   height="16"
   viewBox="0 0 16 16"
   version="1.1"
   id="svg5"
   inkscape:version="1.2.1 (9c6d41e410, 2022-07-14)"
   sodipodi:docname="2000.svg"
   inkscape:export-filename="..\0000.png"
   inkscape:export-xdpi="96"
   inkscape:export-ydpi="96"
   xml:space="preserve"
   xmlns:inkscape="http://www.inkscape.org/namespaces/inkscape"
   xmlns:sodipodi="http://sodipodi.sourceforge.net/DTD/sodipodi-0.dtd"
   xmlns:xlink="http://www.w3.org/1999/xlink"
   xmlns="http://www.w3.org/2000/svg"
   xmlns:svg="http://www.w3.org/2000/svg"><sodipodi:namedview
     id="namedview7"
     pagecolor="#cccccc"
     bordercolor="#8d8d8d"
     borderopacity="1"
     inkscape:pageshadow="2"
     inkscape:pageopacity="0"
     inkscape:pagecheckerboard="0"
     inkscape:document-units="px"
     showgrid="true"
     width="16mm"
     units="px"
     inkscape:zoom="64"
     inkscape:cx="9.328125"
     inkscape:cy="9"
     inkscape:window-width="1680"
     inkscape:window-height="998"
     inkscape:window-x="-8"
     inkscape:window-y="-8"
     inkscape:window-maximized="1"
     inkscape:current-layer="layer1"
     showguides="true"
     inkscape:guide-bbox="true"
     inkscape:snap-bbox="true"
     inkscape:bbox-paths="true"
     inkscape:bbox-nodes="true"
     inkscape:snap-global="true"
     inkscape:showpageshadow="2"
     inkscape:deskcolor="#cccccc"><inkscape:grid
       type="xygrid"
       id="grid828"
       originx="0"
       originy="0"
       spacingx="1"
       spacingy="1" /></sodipodi:namedview><defs
     id="defs2" /><g
     inkscape:label="Layer 1"
     inkscape:groupmode="layer"
     id="layer1"><rect
       style="opacity:1;fill:#ffffff;stroke:none;stroke-width:4.4376;stroke-linejoin:bevel;stop-color:#000000;fill-opacity:1"
       id="rect691"
       width="16"
       height="16"
       x="0"
       y="0" /><path
       style="stroke-width:0.999992"
       d="M 11.10934,11.399866 Z"
       id="path14270" /><path
       style="stroke-width:0.999992"
       d="M 3.2409242,11.891009 7.2331347,3.106101 H 8 l -3.9696556,8.784908 z"
       id="path16489" /><path
       id="path18080"
       style="stroke-width:0.999994"
       d="m 2,5.4887386 c 0,2.012241 0.7445372,2.027027 1.006993,2.027027 0.3753818,0 0.9930069,-0.085251 0.9930069,-2.027027 0,-1.9018244 -0.6095804,-1.9932432 -0.9790209,-1.9932432 C 2.7094629,3.4954954 2,3.5456544 2,5.4887386 Z m 2.9999998,0 c 0,0.7929291 -0.2074836,2.5112612 -2.0059346,2.5112612 -0.6963442,0 -1.2027656,-0.2308558 -1.5192878,-0.6925676 C 1.1582552,6.8457205 0.99999996,6.2394931 0.99999996,5.4887386 c 0,-1.2190767 0.38830624,-2.4887387 2.00593464,-2.4887387 0.6778565,0 1.9940652,0.2838852 1.9940652,2.4887387 z" /><use
       x="0"
       y="0"
       xlink:href="#path18080"
       id="use18087"
       transform="translate(5.0000001,4.0000001)" /><use
       x="0"
       y="0"
       xlink:href="#path18080"
       id="use18089"
       transform="translate(10,4.0000001)" /></g></svg>
