<?xml version="1.0" encoding="UTF-8" standalone="no"?>
<!-- Created with Inkscape (http://www.inkscape.org/) -->

<svg
   width="16"
   height="16"
   viewBox="0 0 16 16"
   version="1.1"
   id="svg5"
   inkscape:version="1.2.2 (732a01da63, 2022-12-09)"
   sodipodi:docname="20A0.svg"
   inkscape:export-filename="..\0000.png"
   inkscape:export-xdpi="96"
   inkscape:export-ydpi="96"
   xml:space="preserve"
   xmlns:inkscape="http://www.inkscape.org/namespaces/inkscape"
   xmlns:sodipodi="http://sodipodi.sourceforge.net/DTD/sodipodi-0.dtd"
   xmlns:xlink="http://www.w3.org/1999/xlink"
   xmlns="http://www.w3.org/2000/svg"
   xmlns:svg="http://www.w3.org/2000/svg"><sodipodi:namedview
     id="namedview7"
     pagecolor="#cccccc"
     bordercolor="#8d8d8d"
     borderopacity="1"
     inkscape:pageshadow="2"
     inkscape:pageopacity="0"
     inkscape:pagecheckerboard="0"
     inkscape:document-units="px"
     showgrid="true"
     width="16mm"
     units="px"
     inkscape:zoom="32"
     inkscape:cx="4.484375"
     inkscape:cy="8.53125"
     inkscape:window-width="1680"
     inkscape:window-height="998"
     inkscape:window-x="-8"
     inkscape:window-y="-8"
     inkscape:window-maximized="1"
     inkscape:current-layer="layer1"
     showguides="true"
     inkscape:guide-bbox="true"
     inkscape:snap-bbox="true"
     inkscape:bbox-paths="true"
     inkscape:bbox-nodes="true"
     inkscape:snap-global="true"
     inkscape:showpageshadow="2"
     inkscape:deskcolor="#cccccc"><inkscape:grid
       type="xygrid"
       id="grid828"
       originx="0"
       originy="0"
       spacingx="1"
       spacingy="1" /></sodipodi:namedview><defs
     id="defs2" /><g
     inkscape:label="Layer 1"
     inkscape:groupmode="layer"
     id="layer1"><path
       d="M 12.019309,3.7258411 C 11.508716,2.300186 10.679111,1.8818896 9.4140388,1.8818896 c -1.0714896,0 -3.1172119,0.9737089 -3.36803,4.0186114 l -0.079248,0.9620615 c -0.02374,0.2882007 -0.049532,0.6547331 -0.049532,1.1023623 v 0.3106657 c 0,0.1135729 0.00549,0.2236967 0.0099,0.3307086 l 0.039632,0.9620615 c 0.08165,1.9820464 0.9155477,4.5497494 3.209535,4.5497494 1.6960112,0 2.2700922,-0.549203 2.8430132,-1.884037 H 13 v 2.264854 C 11.662486,14.859759 10.392353,15 9.007894,15 6.5774246,15 4.4544753,13.735119 4.054908,9.5683606 3.9394554,8.2171834 3.9819824,7.1894726 4.1935911,5.900501 4.5345923,4.197181 5.6997153,1 9.6418762,1 11.02691,1 11.938011,1.1569282 13,1.4509663 v 2.2748748 z"
       style="stroke-width:0.999995"
       sodipodi:nodetypes="csssssssscccsccsccc"
       id="path22761" /><rect
       style="fill:#000000;stroke:none;stroke-width:0.2;stroke-linejoin:round;stroke-dasharray:none;stop-color:#000000"
       id="rect22681"
       width="9.6583223"
       height="0.96206152"
       x="2.4006107"
       y="6" /><use
       x="0"
       y="0"
       xlink:href="#rect22681"
       id="use22735"
       transform="translate(-0.70333626,3)" /></g></svg>
