<?xml version="1.0" encoding="UTF-8" standalone="no"?>
<!-- Created with Inkscape (http://www.inkscape.org/) -->

<svg
   width="16"
   height="16"
   viewBox="0 0 16 16"
   version="1.1"
   id="svg5"
   inkscape:version="1.2.2 (732a01da63, 2022-12-09)"
   sodipodi:docname="2150.svg"
   inkscape:export-filename="..\0000.png"
   inkscape:export-xdpi="96"
   inkscape:export-ydpi="96"
   xml:space="preserve"
   xmlns:inkscape="http://www.inkscape.org/namespaces/inkscape"
   xmlns:sodipodi="http://sodipodi.sourceforge.net/DTD/sodipodi-0.dtd"
   xmlns="http://www.w3.org/2000/svg"
   xmlns:svg="http://www.w3.org/2000/svg"><sodipodi:namedview
     id="namedview7"
     pagecolor="#cccccc"
     bordercolor="#8d8d8d"
     borderopacity="1"
     inkscape:pageshadow="2"
     inkscape:pageopacity="0"
     inkscape:pagecheckerboard="0"
     inkscape:document-units="px"
     showgrid="true"
     width="16mm"
     units="px"
     inkscape:zoom="45.647996"
     inkscape:cx="5.7724331"
     inkscape:cy="7.4483008"
     inkscape:window-width="1680"
     inkscape:window-height="998"
     inkscape:window-x="-8"
     inkscape:window-y="-8"
     inkscape:window-maximized="1"
     inkscape:current-layer="layer1"
     showguides="true"
     inkscape:guide-bbox="true"
     inkscape:snap-bbox="true"
     inkscape:bbox-paths="true"
     inkscape:bbox-nodes="true"
     inkscape:snap-global="true"
     inkscape:showpageshadow="2"
     inkscape:deskcolor="#cccccc"><inkscape:grid
       type="xygrid"
       id="grid828"
       originx="0"
       originy="0"
       spacingx="1"
       spacingy="1" /></sodipodi:namedview><defs
     id="defs2" /><g
     inkscape:label="Layer 1"
     inkscape:groupmode="layer"
     id="layer1"><rect
       style="opacity:1;fill:#ffffff;stroke:none;stroke-width:4.4376;stroke-linejoin:bevel;stop-color:#000000;fill-opacity:1"
       id="rect691"
       width="16"
       height="16"
       x="0"
       y="0" /><path
       style="stroke-width:0.999994"
       d="m 4.1680274,2.0000001 c -0.00196,0.030308 -0.032445,0.6799245 -0.032445,1.5130643 v 4.0071258 c 0,0.7773324 0.1453699,0.9290046 1.7358185,0.9477434 V 9 H 1.2641815 V 8.4679336 C 2.8006809,8.4299873 3,8.3076785 3,7.5201901 V 3.7458433 C 3,3.5418291 2.948544,3.3551071 2.6917706,3.3551071 c -0.1479201,0 -0.4128767,0.078289 -1.4357005,0.7315913 L 0.9640633,3.5130645 3.8030188,2.0000002 Z"
       id="path318" /><path
       style="stroke-width:0.999998"
       d="M 12.521368,2.0876015 4.9829059,14.886121 h -1.25641 L 11.282051,2.0876015 Z"
       id="path316" /><path
       style="stroke-width:0.999997"
       d="m 13.675305,9.6504092 c 0,-0.3340959 -0.11714,-1.0650407 -1.142252,-1.0650407 -0.510595,0 -1.059304,0.2274042 -1.348492,1.0650407 l -0.72184,0.00812 V 8.5365854 c 0.851399,-0.3577236 1.626123,-0.5365853 2.324166,-0.5365853 0.410419,0 2.070332,0.086136 2.070332,1.4796747 0,0.8600242 -0.56685,1.3403572 -1.594394,1.7804862 v 0.0813 C 13.542463,11.387782 15,11.6927 15,13.01626 c 0,1.10866 -0.844307,1.983741 -2.609728,1.983741 -0.436331,0 -1.20982,-0.05393 -2.006874,-0.365855 v -1.186992 h 0.721841 c 0.220569,0.688986 0.618239,0.991871 1.316762,0.991871 0.670342,0 1.396086,-0.231929 1.396086,-1.292683 0,-1.314943 -1.303698,-1.398375 -1.864092,-1.398375 h -0.475938 v -0.577233 c 0.700854,-0.02292 2.197248,-0.223703 2.197248,-1.5203248 z"
       id="path373" /></g></svg>
