<?xml version="1.0" encoding="UTF-8" standalone="no"?>
<!-- Created with Inkscape (http://www.inkscape.org/) -->

<svg
   width="16"
   height="16"
   viewBox="0 0 16 16"
   version="1.1"
   id="svg5"
   inkscape:version="1.2.2 (732a01da63, 2022-12-09)"
   sodipodi:docname="2E00.svg"
   inkscape:export-filename="..\0000.png"
   inkscape:export-xdpi="96"
   inkscape:export-ydpi="96"
   xml:space="preserve"
   xmlns:inkscape="http://www.inkscape.org/namespaces/inkscape"
   xmlns:sodipodi="http://sodipodi.sourceforge.net/DTD/sodipodi-0.dtd"
   xmlns="http://www.w3.org/2000/svg"
   xmlns:svg="http://www.w3.org/2000/svg"><sodipodi:namedview
     id="namedview7"
     pagecolor="#cccccc"
     bordercolor="#8d8d8d"
     borderopacity="1"
     inkscape:pageshadow="2"
     inkscape:pageopacity="0"
     inkscape:pagecheckerboard="0"
     inkscape:document-units="px"
     showgrid="true"
     width="16mm"
     units="px"
     inkscape:zoom="66.644814"
     inkscape:cx="9.5656355"
     inkscape:cy="9.8432265"
     inkscape:window-width="1680"
     inkscape:window-height="998"
     inkscape:window-x="-8"
     inkscape:window-y="-8"
     inkscape:window-maximized="1"
     inkscape:current-layer="layer1"
     showguides="true"
     inkscape:guide-bbox="true"
     inkscape:snap-bbox="true"
     inkscape:bbox-paths="true"
     inkscape:bbox-nodes="true"
     inkscape:snap-global="true"
     inkscape:showpageshadow="2"
     inkscape:deskcolor="#cccccc"><inkscape:grid
       type="xygrid"
       id="grid828"
       originx="0"
       originy="0"
       spacingx="1"
       spacingy="1" /></sodipodi:namedview><defs
     id="defs2" /><g
     inkscape:label="Layer 1"
     inkscape:groupmode="layer"
     id="layer1"><ellipse
       style="fill:#000000;stroke-width:1.3;stroke-linecap:round;stroke-linejoin:round;stop-color:#000000"
       id="path431"
       cx="8.4979362"
       cy="2.3023255"
       rx="1.206567"
       ry="1.3023156" /><path
       style="stroke-width:0.999996"
       d="M 8.6633899,15 C 7.60742,15 5.6729626,14.792229 4.6081968,13.394687 4.1824049,12.835841 3.9781125,12.184679 3.9781125,11.413179 c 0,-1.5876964 0.9420869,-3.1767936 3.8878249,-4.265442 L 8,4.9835784 H 9.0150481 L 9.4555409,12 H 7.5403564 L 7.7893296,8.2202404 C 6.9713541,8.6507643 5.9315999,9.8461096 5.9315999,11.541093 c 0,0.726611 0.2292419,2.52046 2.4931303,2.52046 2.1754668,0 2.7474048,-1.182165 2.9171628,-2.01099 0.05371,-0.262239 0.06851,-0.489106 0.06851,-0.631965 0.894619,0 1.589603,0.332135 1.589597,1.310402 -7e-6,0.978267 -1.525083,2.271 -4.3366101,2.271 z"
       id="path319"
       sodipodi:nodetypes="scsccccccsssccs" /></g></svg>
