<?xml version="1.0" encoding="UTF-8" standalone="no"?>
<!-- Created with Inkscape (http://www.inkscape.org/) -->

<svg
   width="16"
   height="16"
   viewBox="0 0 16 16"
   version="1.1"
   id="svg5"
   inkscape:version="1.4 (86a8ad7, 2024-10-11)"
   sodipodi:docname="FB00.svg"
   inkscape:export-filename="..\0000.png"
   inkscape:export-xdpi="96"
   inkscape:export-ydpi="96"
   xml:space="preserve"
   xmlns:inkscape="http://www.inkscape.org/namespaces/inkscape"
   xmlns:sodipodi="http://sodipodi.sourceforge.net/DTD/sodipodi-0.dtd"
   xmlns="http://www.w3.org/2000/svg"
   xmlns:svg="http://www.w3.org/2000/svg"><sodipodi:namedview
     id="namedview7"
     pagecolor="#cccccc"
     bordercolor="#8d8d8d"
     borderopacity="1"
     inkscape:pageshadow="2"
     inkscape:pageopacity="0"
     inkscape:pagecheckerboard="0"
     inkscape:document-units="px"
     showgrid="true"
     width="16mm"
     units="px"
     inkscape:zoom="48.75"
     inkscape:cx="4.2153846"
     inkscape:cy="7.3333333"
     inkscape:window-width="1680"
     inkscape:window-height="998"
     inkscape:window-x="-8"
     inkscape:window-y="-8"
     inkscape:window-maximized="1"
     inkscape:current-layer="layer1"
     showguides="true"
     inkscape:guide-bbox="true"
     inkscape:snap-bbox="true"
     inkscape:bbox-paths="true"
     inkscape:bbox-nodes="true"
     inkscape:snap-global="true"
     inkscape:showpageshadow="2"
     inkscape:deskcolor="#cccccc"><inkscape:grid
       type="xygrid"
       id="grid828"
       originx="0"
       originy="0"
       spacingx="1"
       spacingy="1"
       units="px" /></sodipodi:namedview><defs
     id="defs2" /><g
     inkscape:label="Layer 1"
     inkscape:groupmode="layer"
     id="layer1"><path
       fill="currentColor"
       d="m 10.546777,2.7122578 c -0.9406162,0 -1.8627856,0.4749559 -1.8627856,3.1638714 V 6 h 4.9334716 v 6.234838 c 0,0.405302 0,1.114841 1.193347,1.114841 H 15 V 14 h -3.987525 v -0.650321 h 0.04366 c 1.193347,0 1.193347,-0.669346 1.193347,-1.037422 V 6.7277421 H 8.6839914 v 5.5070959 c 0,0.405302 0,1.114841 1.1933467,1.114841 H 10.139293 V 14 H 5.9334718 V 13.349679 H 6.122661 c 1.1933472,0 1.1933472,-0.709539 1.1933472,-1.114841 V 6.7277421 H 3.7505198 v 5.5070959 c 0,0.405302 0,1.114841 1.193347,1.114841 H 5.205821 V 14 H 1 v -0.650321 h 0.1891891 c 1.1933473,0 1.1933473,-0.709539 1.1933473,-1.114841 V 6.7277421 H 1.0582121 V 6.0000002 H 2.3825364 V 5.8141937 c 0,-1.6438319 0.3604142,-3.5819358 2.6923075,-3.5819358 1.0352112,0 1.9209979,0.2450803 1.9209979,1.083871 0,0.6533016 -0.636623,0.8670967 -1.1933471,0.8670967 0,-0.4578935 -0.1228054,-1.2387096 -0.960499,-1.2387096 -0.2895686,0 -1.0914759,0.2993547 -1.0914759,2.6529035 V 6.0000002 H 7.3160082 V 5.8761293 C 7.3160082,3.7088803 8.0176365,2 10.794177,2 c 0.900412,0 2.721416,0.4490733 2.721416,1.5928536 0,0.5773487 -0.491705,1.0219354 -1.324325,1.0219354 0,-0.1112902 -0.03028,-1.902531 -1.644491,-1.9025312 z"
       id="path1"
       style="fill:#c01c28;stroke-width:1"
       sodipodi:nodetypes="ssccssccccssccssccccssccssccccssccccssscssccssscs" /></g></svg>
