<?xml version="1.0" encoding="UTF-8" standalone="no"?>
<!-- Generator: Adobe Illustrator 26.3.1, SVG Export Plug-In . SVG Version: 6.00 Build 0)  -->

<svg
   version="1.1"
   id="Layer_2_00000012443026519394611760000004431583338484677266_"
   x="0px"
   y="0px"
   viewBox="0 0 128 128"
   style="enable-background:new 0 0 128 128;"
   xml:space="preserve"
   sodipodi:docname="emoji_u1faf0.svg"
   inkscape:version="1.4-beta3 (01c8a1c, 2024-08-28, custom)"
   xmlns:inkscape="http://www.inkscape.org/namespaces/inkscape"
   xmlns:sodipodi="http://sodipodi.sourceforge.net/DTD/sodipodi-0.dtd"
   xmlns="http://www.w3.org/2000/svg"
   xmlns:svg="http://www.w3.org/2000/svg"><defs
   id="defs13">
			
			
			
			
			
			
		
			
			
			
		</defs><sodipodi:namedview
   id="namedview13"
   pagecolor="#ffffff"
   bordercolor="#666666"
   borderopacity="1.0"
   inkscape:showpageshadow="2"
   inkscape:pageopacity="0.0"
   inkscape:pagecheckerboard="0"
   inkscape:deskcolor="#d1d1d1"
   inkscape:zoom="6.0703125"
   inkscape:cx="64"
   inkscape:cy="64"
   inkscape:window-width="1680"
   inkscape:window-height="998"
   inkscape:window-x="-8"
   inkscape:window-y="-8"
   inkscape:window-maximized="1"
   inkscape:current-layer="g5" />
<path
   style="fill:#FFCA28;"
   d="M54.8,14.4c0,0,3.2-3.8,5.1-6c4.7-5.5,13.8-2.8,11.7,5C70,18.9,65.3,28.1,64.2,30  c0.4,1.7,0.9,3.6,1.1,4.4C69.8,33,78,36.3,76.1,46c5.8-6.7,17.4-0.9,13.6,10.5c2-2.1,7.3-0.8,9.3,1.8c1.8,2.2,2.7,3.7,2.8,6.9  c0.1,3.1-0.1,5.1-2.3,7.2c-0.1,4.7-1.2,9.6-1.9,10.4c2.8,7.6-0.6,17.5-5.5,22.1c-1.5,3.6-3.4,8.4-4.2,11c-0.7,2.6-6.4,5.1-9,5.5  c-5.6,0.9-19.9,0.4-27-4c-3-1.8-5.5-3.2-5.3-6c0.1-2.1,0.9-8.4,1-9.7c0.1-1.3,0.1-4.2-1.9-6.4C41.8,91,33,84.7,27.1,74  c-1.9-3.5-1.5-10.6,0.4-16.2s8.3-16.7,17-28.2c-2.8-5.1-5.7-11.1-6.8-15.3c-1.8-6.9,4.3-9.9,8.7-7.9C50.3,8.1,54.8,14.4,54.8,14.4z"
   id="path1" />
<g
   id="g6">
	<g
   id="g5">
		<defs
   id="defs1">
			<path
   id="SVGID_1_"
   d="M54.8,14.4c0,0,3.2-3.8,5.1-6c4.7-5.5,13.8-2.8,11.7,5C70,18.9,65.3,28.1,64.2,30c0.4,1.7,0.9,3.6,1.1,4.4     C69.8,33,78,36.3,76.1,46c5.8-6.7,17.4-0.9,13.6,10.5c2-2.1,7.3-0.8,9.3,1.8c1.8,2.2,2.7,3.7,2.8,6.9c0.1,3.1-0.1,5.1-2.3,7.2     c-0.1,4.7-1.2,9.6-1.9,10.4c2.8,7.6-0.6,17.5-5.5,22.1c-1.5,3.6-3.4,8.4-4.2,11c-0.7,2.6-6.4,5.1-9,5.5c-5.6,0.9-19.9,0.4-27-4     c-3-1.8-5.5-3.2-5.3-6c0.1-2.1,0.9-8.4,1-9.7c0.1-1.3,0.1-4.2-1.9-6.4C41.8,91,33,84.7,27.1,74c-1.9-3.5-1.5-10.6,0.4-16.2     s8.3-16.7,17-28.2c-2.8-5.1-5.7-11.1-6.8-15.3c-1.8-6.9,4.3-9.9,8.7-7.9C50.3,8.1,54.8,14.4,54.8,14.4z" />
		</defs>
		
		<path
   id="path4"
   style="fill:#faa700"
   d="M 66.220703 5.5078125 C 64.043359 5.4275391 61.662891 6.3378906 59.900391 8.4003906 C 58.000391 10.600391 54.800781 14.400391 54.800781 14.400391 C 54.800781 14.400391 50.300391 8.1003906 46.400391 6.4003906 C 42.000391 4.4003906 35.899219 7.4007812 37.699219 14.300781 C 38.053249 15.652532 38.63719 17.22278 39.300781 18.857422 C 40.225368 18.55367 41.052297 17.489096 40.400391 15 C 38.600391 8 45.099609 6.9996094 47.599609 9.5996094 C 48.799609 10.899609 49.800781 12.099219 50.300781 12.699219 C 50.500781 12.999219 50.600391 13.299219 50.400391 13.699219 C 50.000391 14.699219 48.500781 17.1 43.300781 23 C 41.300781 25.2 45.8 29.200391 49 25.400391 C 52.6 21.300391 59.600781 12 61.300781 10 C 65.200781 5.1 70.4 7.9003906 69.5 13.400391 C 69.070911 16.022602 69.442376 17.327727 69.943359 17.998047 C 70.6175 16.350415 71.203642 14.761529 71.599609 13.400391 C 72.912109 8.5253906 69.849609 5.6416016 66.220703 5.5078125 z M 43.068359 31.546875 C 35.115913 42.335042 29.292042 52.518973 27.5 57.800781 C 25.6 63.400781 25.199609 70.5 27.099609 74 C 32.999609 84.7 41.799219 91.000781 45.699219 95.300781 C 47.699219 97.500781 47.699609 100.39922 47.599609 101.69922 C 47.499609 102.99922 46.699609 109.30039 46.599609 111.40039 C 46.477357 113.11192 47.370732 114.29856 48.763672 115.375 C 48.875415 114.14154 49.806086 103.85761 49.900391 101.5 C 53.673586 105.36753 63.504546 115.81394 79.882812 121.18359 C 82.717495 120.43477 87.27828 118.21109 87.900391 115.90039 C 88.700391 113.30039 90.599609 108.50039 92.099609 104.90039 C 96.999609 100.30039 100.39961 90.400781 97.599609 82.800781 C 97.916222 82.438938 98.311378 81.168848 98.662109 79.527344 C 97.542471 79.321311 96.187042 79.725777 95.400391 82.400391 C 93.900391 87.500391 91.200781 93.499219 87.300781 95.699219 C 84.400781 97.299219 81.499609 96.5 80.099609 96 C 78.699609 95.4 76.4 94.000781 73.5 94.300781 C 69.7 94.700781 65.400391 93.8 63.400391 92 C 61.400391 90.2 58.500391 88.299609 53.900391 88.099609 C 49.300391 87.899609 46.199219 86.999219 44.199219 84.199219 C 42.299219 81.599219 39.9 79.900391 37 79.400391 C 33.5 78.900391 30.700781 77.5 29.300781 74 C 27.900781 70.5 28.199609 64.499219 30.099609 59.699219 C 33.299609 51.299219 42.599609 36.399609 44.099609 33.599609 C 44.743619 32.432343 44.077496 31.847428 43.068359 31.546875 z M 64.853516 32.611328 C 61.206254 34.011025 60.75272 37.528687 62.5 37.300781 C 66.6 36.800781 74.900781 37.899609 74.800781 46.599609 C 74.800781 48.099609 75.9 47.999609 76.5 47.599609 C 80.3 45.399609 90.100391 46.399219 88.400391 57.199219 C 88.200391 58.699219 89.500391 58.700781 89.900391 58.300781 C 91.700391 56.700781 96.699609 56.899219 98.099609 60.699219 C 98.599609 61.899219 98.499609 63.900781 98.599609 65.300781 C 98.699609 66.700781 98.800781 72.300391 98.800781 72.900391 C 98.800781 73.160814 99.071228 73.466458 99.443359 73.619141 C 99.466017 73.212948 99.491362 72.80637 99.5 72.400391 C 101.7 70.300391 101.90078 68.299219 101.80078 65.199219 C 101.70078 61.999219 100.8 60.500781 99 58.300781 C 97 55.700781 91.699219 54.4 89.699219 56.5 C 93.499219 45.1 81.899609 39.3 76.099609 46 C 77.999609 36.3 69.800781 33.000391 65.300781 34.400391 C 65.219474 34.075161 65.007111 33.212811 64.853516 32.611328 z " />
			
		
	</g>
</g>
<g
   id="g13">
	<g
   id="g12">
		<defs
   id="defs6">
			<path
   id="SVGID_00000093882312774502917520000008863851808784800921_"
   d="M54.8,14.4c0,0,3.2-3.8,5.1-6c4.7-5.5,13.8-2.8,11.7,5     C70,18.9,65.3,28.1,64.2,30c0.4,1.7,0.9,3.6,1.1,4.4C69.8,33,78,36.3,76.1,46c5.8-6.7,17.4-0.9,13.6,10.5c2-2.1,7.3-0.8,9.3,1.8     c1.8,2.2,2.7,3.7,2.8,6.9c0.1,3.1-0.1,5.1-2.3,7.2c-0.1,4.7-1.2,9.6-1.9,10.4c2.8,7.6-0.6,17.5-5.5,22.1c-1.5,3.6-3.4,8.4-4.2,11     c-0.7,2.6-6.4,5.1-9,5.5c-5.6,0.9-19.9,0.4-27-4c-3-1.8-5.5-3.2-5.3-6c0.1-2.1,0.9-8.4,1-9.7c0.1-1.3,0.1-4.2-1.9-6.4     C41.8,91,33,84.7,27.1,74c-1.9-3.5-1.5-10.6,0.4-16.2s8.3-16.7,17-28.2c-2.8-5.1-5.7-11.1-6.8-15.3c-1.8-6.9,4.3-9.9,8.7-7.9     C50.3,8.1,54.8,14.4,54.8,14.4z" />
		</defs>
		
		<path
   id="path11"
   style="fill:#b55e19"
   d="M 69.291016 6.3945312 C 69.907533 8.1909449 70.385044 11.060409 69.300781 13.5 C 67.100781 18.4 54.200781 42.599219 48.300781 53.199219 C 47.600781 54.499219 46.499609 55.199609 46.099609 56.099609 C 44.499609 59.099609 48.899219 61.700781 50.699219 58.800781 C 51.799219 57.000781 50.699219 56.2 51.699219 54.5 C 53.099219 52 59.599609 39.5 60.599609 38 C 61.599609 36.4 63.400391 35.000391 65.400391 34.400391 C 65.409709 34.389001 65.414456 34.382547 65.423828 34.371094 C 65.384043 34.382584 65.340013 34.388185 65.300781 34.400391 C 65.100781 33.600391 64.599219 31.7 64.199219 30 C 65.299219 28.1 69.999609 18.900391 71.599609 13.400391 C 72.508779 10.023474 71.314491 7.6080489 69.291016 6.3945312 z M 39.339844 7.34375 C 37.737433 8.7569442 36.865384 11.104414 37.699219 14.300781 C 38.799219 18.500781 41.7 24.499609 44.5 29.599609 C 42.309349 32.495298 40.268173 35.36536 38.404297 38.128906 C 39.441375 38.462285 41.433115 37.80872 42.699219 36 C 43.999219 34 51.4 23.000781 52.5 21.300781 C 53.5 19.500781 51.8 19.200781 51 19.800781 C 50.4 20.200781 46.900391 22.399609 45.900391 23.099609 C 45.500391 23.399609 44.800781 23.400781 44.300781 22.800781 C 43.700781 22.000781 41.7 18.300781 40 14.300781 C 39.013019 12.147369 39.156163 9.1734934 39.339844 7.34375 z M 75.498047 46.105469 C 75.324609 46.132031 75.15 46.225391 75 46.400391 C 74.3 47.300391 65 62.799219 64.5 63.699219 C 64 64.599219 62.599609 65.199609 62.099609 66.099609 C 60.699609 68.699609 64.900781 70.7 66.300781 68.5 C 67.000781 67.3 66.599609 66.199219 67.099609 65.199219 C 67.599609 64.199219 76.100781 48.300781 76.300781 47.300781 C 76.525781 46.550781 76.018359 46.025781 75.498047 46.105469 z M 89.380859 56.617188 C 89.120703 56.614844 88.824609 56.786719 88.599609 57.199219 C 86.699609 60.999219 80.5 73.099609 80.5 73.099609 C 80.1 73.799609 79.199219 74.000391 78.699219 74.900391 C 77.399219 77.400391 81.8 79.699609 83 77.099609 C 83.4 76.199609 83.000781 75.399609 83.300781 74.599609 C 83.700781 73.799609 87.400391 64.000781 89.900391 57.800781 C 90.150391 57.113281 89.814453 56.621094 89.380859 56.617188 z M 99.150391 64.849609 C 98.775391 64.849609 98.400391 65.099609 98.400391 65.599609 C 98.400391 66.299609 97.399609 77.000781 96.099609 80.300781 C 95.199609 82.500781 95.7 84.3 96 86.5 C 97.4 96.1 92.300781 101.20078 90.800781 102.80078 C 90.586324 104.87387 90.264251 107.79582 90.013672 110.0918 C 90.703175 108.32605 91.436905 106.49088 92.099609 104.90039 C 96.999609 100.30039 100.39961 90.400781 97.599609 82.800781 C 98.299609 82.000781 99.4 77.100391 99.5 72.400391 C 99.539227 72.362947 99.567504 72.32645 99.605469 72.289062 C 99.614975 72.098723 99.900391 66.386509 99.900391 65.599609 C 99.900391 65.099609 99.525391 64.849609 99.150391 64.849609 z M 26.572266 72.746094 C 26.724311 73.199005 26.895441 73.6239 27.099609 74 C 32.999609 84.7 41.799219 91.000781 45.699219 95.300781 C 47.699219 97.500781 47.699609 100.39922 47.599609 101.69922 C 47.525308 102.66514 47.065894 106.38679 46.792969 109.09961 C 46.795581 109.09913 46.798169 109.1001 46.800781 109.09961 C 50.000781 108.59961 49.700391 104.00039 49.900391 101.40039 C 50.300391 96.900391 48.299609 94.5 46.599609 93 C 39.899609 87.1 32.499609 79.599219 30.099609 75.699219 C 28.756163 73.50728 27.66321 72.780645 26.572266 72.746094 z " />
			
		
	</g>
</g>
</svg>
