<?xml version="1.0" encoding="UTF-8" standalone="no"?>
<!-- Generator: Adobe Illustrator 26.3.1, SVG Export Plug-In . SVG Version: 6.00 Build 0)  -->

<svg
   version="1.1"
   id="Layer_2_copy"
   x="0px"
   y="0px"
   viewBox="0 0 128 128"
   style="enable-background:new 0 0 128 128;"
   xml:space="preserve"
   sodipodi:docname="emoji_u1f44b.svg"
   inkscape:version="1.4-beta3 (01c8a1c, 2024-08-28, custom)"
   xmlns:inkscape="http://www.inkscape.org/namespaces/inkscape"
   xmlns:sodipodi="http://sodipodi.sourceforge.net/DTD/sodipodi-0.dtd"
   xmlns="http://www.w3.org/2000/svg"
   xmlns:svg="http://www.w3.org/2000/svg"><defs
   id="defs17">
			
			
			
			
			
		
			
			
			
			
			
		</defs><sodipodi:namedview
   id="namedview17"
   pagecolor="#ffffff"
   bordercolor="#666666"
   borderopacity="1.0"
   inkscape:showpageshadow="2"
   inkscape:pageopacity="0.0"
   inkscape:pagecheckerboard="0"
   inkscape:deskcolor="#d1d1d1"
   inkscape:zoom="6.0703125"
   inkscape:cx="64"
   inkscape:cy="64"
   inkscape:window-width="1680"
   inkscape:window-height="998"
   inkscape:window-x="-8"
   inkscape:window-y="-8"
   inkscape:window-maximized="1"
   inkscape:current-layer="g7" />
<path
   style="fill:#FFCA28;"
   d="M93.3,60c0.2,0.3,0.7,0.1,0.7-0.2c0.6-5.4,2.2-20.3,12.8-23.5c3.4-1,6.8,1.4,7.2,4.5  c0.7,5-5,17.9-4.5,29.7c0.1,1.9,3.3,22-5.2,33.9s-28.7,24-48.8,5.6c-10.4-9.5-10.4-13.3-23.3-26.6c-2.6-2.6-13-14-15.8-17.5  c-3.7-4.7,2.2-10.9,6.7-7.7c2.1,1.5,20.7,17.1,21.4,17.8c1.4,1.2,3.1-0.5,2.1-1.7c-11.4-15-22.4-28.5-25.4-33.7s4.2-10.8,8.4-6.3  c2.9,3,24.4,28.1,25.4,29.2s2.7-0.3,2.1-1.7C56.4,60.5,39,30.2,35.9,23.3c-2.7-6.1,6.3-11.8,10.5-5.5c3.4,5,22.4,36.6,23.1,37.7  c0.9,1.6,2.9,0.6,2.1-1.2C71,53,59.3,21,58.4,17.7c-1.6-5.8,6.7-10.6,10.6-4C74.3,22.8,84.8,50.6,93.3,60z"
   id="path1" />
<g
   id="g8">
	<g
   id="g7">
		<defs
   id="defs1">
			<path
   id="SVGID_1_"
   d="M93.3,60c0.2,0.3,0.7,0.1,0.7-0.2c0.6-5.4,2.2-20.3,12.8-23.5c3.4-1,6.8,1.4,7.2,4.5     c0.7,5-5,17.9-4.5,29.7c0.1,1.9,3.3,22-5.2,33.9s-28.7,24-48.8,5.6c-10.4-9.5-10.4-13.3-23.3-26.6c-2.6-2.6-13-14-15.8-17.5     c-3.7-4.7,2.2-10.9,6.7-7.7c2.1,1.5,20.7,17.1,21.4,17.8c1.4,1.2,3.1-0.5,2.1-1.7c-11.4-15-22.4-28.5-25.4-33.7s4.2-10.8,8.4-6.3     c2.9,3,24.4,28.1,25.4,29.2s2.7-0.3,2.1-1.7C56.4,60.5,39,30.2,35.9,23.3c-2.7-6.1,6.3-11.8,10.5-5.5c3.4,5,22.4,36.6,23.1,37.7     c0.9,1.6,2.9,0.6,2.1-1.2C71,53,59.3,21,58.4,17.7c-1.6-5.8,6.7-10.6,10.6-4C74.3,22.8,84.8,50.6,93.3,60z" />
		</defs>
		
		<path
   id="path6"
   style="fill:#faa700"
   d="M 63.509766 10.535156 C 60.266602 10.839844 57.400391 14.074219 58.400391 17.699219 C 59.300391 20.999219 70.999609 53.000781 71.599609 54.300781 C 71.91253 55.004853 71.790944 55.578137 71.480469 55.929688 C 72.747064 55.226621 73.756579 54.194183 73.199219 52.800781 C 72.599219 51.200781 61.500781 20.999219 60.800781 18.699219 C 59.400781 14.499219 62.9 11.199609 66 12.599609 C 66.77567 12.96463 67.350843 12.592127 67.675781 12.050781 C 66.406971 10.855378 64.925838 10.40212 63.509766 10.535156 z M 41.560547 15.054688 C 37.718335 15.100879 34.044141 19.107031 35.900391 23.300781 C 39.000391 30.200781 56.399609 60.500781 57.099609 61.800781 C 57.393371 62.486226 57.132601 63.166558 56.675781 63.558594 L 56.699219 63.599609 C 58.399219 62.399609 59.699219 61.4 58.199219 59 C 57.199219 57.4 40.299609 26.699219 38.599609 23.699219 C 36.099609 19.399219 41.299219 15.600781 44.199219 18.300781 C 44.911465 18.958239 45.819762 18.466252 46.34375 17.730469 C 45.036561 15.819319 43.283482 15.033974 41.560547 15.054688 z M 26.09375 32.654297 C 22.4375 32.574609 18.949219 36.699609 21.199219 40.599609 C 24.199219 45.799609 35.199609 59.300781 46.599609 74.300781 C 47.02093 74.806365 46.947637 75.389547 46.634766 75.818359 C 46.635542 75.81933 46.699219 75.900391 46.699219 75.900391 C 47.899219 74.100391 48.7 73.200391 47 70.900391 C 45.3 68.600391 25.1 42.199219 24 40.699219 C 21.2 36.999219 25.300781 33.800391 27.300781 34.900391 C 28.306248 35.482503 29.071838 34.883153 29.347656 34.076172 C 28.352996 33.126663 27.218635 32.678814 26.09375 32.654297 z M 108.06836 36.078125 C 107.64922 36.102148 107.22578 36.175781 106.80078 36.300781 C 96.200781 39.500781 94.6 54.400781 94 59.800781 C 94 60.100781 93.500781 60.3 93.300781 60 C 92.75418 59.395523 92.197947 58.70968 91.636719 57.962891 L 91.199219 60.199219 C 78.799219 70.299219 73.3 84.699219 83.5 99.699219 C 84.4 100.99922 86.3 99.800781 85.5 98.300781 C 81.3 90.800781 78.199219 77.299219 92.699219 63.199219 C 94.399219 63.999219 96.4 62.300781 96.5 60.800781 C 97.6 51.400781 98.699219 43.599219 105.69922 39.199219 C 108.39922 37.499219 111.89961 38.700781 112.09961 42.800781 C 112.09961 42.800781 113.14648 42.901782 113.98828 42.982422 C 114.07175 42.148003 114.08586 41.414087 114 40.800781 C 113.65 38.088281 111.00234 35.909961 108.06836 36.078125 z M 20.494141 57.320312 C 16.725537 57.273022 13.394141 62.081641 16.400391 65.900391 C 19.200391 69.400391 29.599219 80.800391 32.199219 83.400391 C 45.099219 96.700391 45.1 100.5 55.5 110 C 69.354025 122.68229 83.252714 120.87149 93.337891 114.62695 L 92.800781 113.59961 C 76.600781 121.29961 64.499219 115.29922 56.699219 107.69922 C 47.799219 98.999219 43.599219 90.999609 37.699219 85.599609 C 35.699219 83.699609 19.9 66.9 18 64 C 16.5 61.6 19.500781 57.500781 22.800781 59.800781 C 23.750931 60.434215 24.456566 60.150481 24.835938 59.59375 C 24.290655 59.158278 23.320317 58.356867 23.099609 58.199219 C 22.255859 57.599219 21.363818 57.331226 20.494141 57.320312 z " />
			
		
	</g>
</g>
<g
   id="g14">
	<g
   id="g13">
		<defs
   id="defs8">
			<path
   id="SVGID_00000099634796062580657540000018168663086138831493_"
   d="M93.3,60c0.2,0.3,0.7,0.1,0.7-0.2     c0.6-5.4,2.2-20.3,12.8-23.5c3.4-1,6.8,1.4,7.2,4.5c0.7,5-5,17.9-4.5,29.7c0.1,1.9,3.3,22-5.2,33.9s-28.7,24-48.8,5.6     c-10.4-9.5-10.4-13.3-23.3-26.6c-2.6-2.6-13-14-15.8-17.5c-3.7-4.7,2.2-10.9,6.7-7.7c2.1,1.5,20.7,17.1,21.4,17.8     c1.4,1.2,3.1-0.5,2.1-1.7c-11.4-15-22.4-28.5-25.4-33.7s4.2-10.8,8.4-6.3c2.9,3,24.4,28.1,25.4,29.2s2.7-0.3,2.1-1.7     C56.4,60.5,39,30.2,35.9,23.3c-2.7-6.1,6.3-11.8,10.5-5.5c3.4,5,22.4,36.6,23.1,37.7c0.9,1.6,2.9,0.6,2.1-1.2     C71,53,59.3,21,58.4,17.7c-1.6-5.8,6.7-10.6,10.6-4C74.3,22.8,84.8,50.6,93.3,60z" />
		</defs>
		
		<path
   id="path12"
   style="fill:#b55e19"
   d="M 63.509766 10.535156 C 63.146648 10.56927 62.792151 10.649903 62.443359 10.753906 C 63.890017 11.260045 65.995845 12.571877 67.599609 15.699219 C 69.599609 19.599219 79.399219 42.1 80.699219 44.5 C 81.999219 46.9 87.299609 58.800391 91.599609 62.400391 C 92.999609 63.500391 93.699219 61.599609 93.699219 61.599609 L 93.748047 60.109375 C 93.592514 60.171971 93.406898 60.159175 93.300781 60 C 84.800781 50.6 74.3 22.799219 69 13.699219 C 67.5375 11.224219 65.455664 10.352344 63.509766 10.535156 z M 41.560547 15.054688 C 40.503324 15.067398 39.459086 15.382416 38.539062 15.916016 C 38.560926 15.907049 38.577316 15.910299 38.599609 15.900391 C 40.399609 15.200391 42.699219 16.5 43.699219 18 C 55.899219 37.4 65.6 53.999609 66.5 55.599609 C 67.786461 57.621191 69.091214 57.093408 70.765625 56.298828 C 70.325864 56.332705 69.836063 56.097446 69.5 55.5 C 68.8 54.4 49.800391 22.800781 46.400391 17.800781 C 45.087891 15.832031 43.307007 15.033691 41.560547 15.054688 z M 26.09375 32.654297 C 24.653815 32.622914 23.248604 33.253521 22.201172 34.255859 C 22.363164 34.249325 22.529602 34.203989 22.699219 34.099609 C 24.599219 32.899609 27.100781 34.199219 28.300781 35.699219 C 29.500781 37.199219 50.000781 61.600781 51.800781 63.800781 C 53.700781 66.100781 55.199219 64.699609 56.699219 63.599609 L 56.669922 63.564453 C 56.193904 63.968593 55.508177 64.058995 55 63.5 C 54 62.4 32.499609 37.300781 29.599609 34.300781 C 28.549609 33.175781 27.3125 32.680859 26.09375 32.654297 z M 111.90234 37.314453 C 112.23307 38.644529 112.43473 40.453105 112 42.699219 C 109.7 54.299219 105.89961 61.099609 107.09961 73.599609 C 109.25953 97.162406 101.1884 115.12394 73.544922 119.17773 C 86.809992 121.04163 98.387571 112.67888 104.30078 104.40039 C 112.80078 92.500391 109.6 72.4 109.5 70.5 C 109 58.7 114.7 45.800781 114 40.800781 C 113.82052 39.409814 113.0188 38.179647 111.90234 37.314453 z M 20.494141 57.320312 C 19.096348 57.302772 17.765464 57.960172 16.789062 58.980469 C 18.908177 58.069922 21.201703 59.183722 22.099609 60 C 23.199609 61 40.199609 75.299219 42.099609 76.699219 C 43.999609 78.099219 45.399219 77.300391 46.699219 75.900391 C 46.699219 75.900391 46.623589 75.834459 46.623047 75.833984 C 46.188695 76.412123 45.302921 76.688218 44.5 76 C 43.8 75.3 25.199609 59.699219 23.099609 58.199219 C 22.255859 57.599219 21.363818 57.331226 20.494141 57.320312 z " />
			
		
	</g>
</g>
<g
   id="g17">
	<path
   style="fill:#B0BEC5;"
   d="M10.6,81.3c3.1,9.2,7.8,14.9,15.5,20.1c1.4,1,0.6,3-1,2.3c-7.2-2.9-15.2-9.3-17.1-22   C7.7,80,10.1,79.7,10.6,81.3z"
   id="path14" />
	<path
   style="fill:#B0BEC5;"
   d="M16.6,75.8c3.1,9.2,7.8,14.9,15.5,20.1c1.4,1,0.6,3-1,2.3c-7.2-2.9-15.2-9.3-17.1-22   C13.8,74.5,16.1,74.2,16.6,75.8z"
   id="path15" />
	<path
   style="fill:#B0BEC5;"
   d="M93.5,34.6c-2.4-9.4-6.8-15.4-14.1-21c-1.4-1-0.4-3,1.2-2.3c7,3.3,14.6,10.3,15.6,23.1   C96.3,36.1,93.9,36.3,93.5,34.6z"
   id="path16" />
	<path
   style="fill:#B0BEC5;"
   d="M100,29.8c-2.4-9.4-6.8-15.4-14.1-21c-1.4-1-0.4-3,1.2-2.3c7,3.3,14.6,10.3,15.6,23.1   C102.8,31.2,100.5,31.4,100,29.8z"
   id="path17" />
</g>
</svg>
