<?xml version="1.0" encoding="UTF-8" standalone="no"?>
<!-- Generator: Adobe Illustrator 26.3.1, SVG Export Plug-In . SVG Version: 6.00 Build 0)  -->

<svg
   version="1.1"
   id="Layer_2_00000111914228506217591490000007403329565183780535_"
   x="0px"
   y="0px"
   viewBox="0 0 128 128"
   style="enable-background:new 0 0 128 128;"
   xml:space="preserve"
   sodipodi:docname="emoji_u1f44c.svg"
   inkscape:version="1.4-beta3 (01c8a1c, 2024-08-28, custom)"
   xmlns:inkscape="http://www.inkscape.org/namespaces/inkscape"
   xmlns:sodipodi="http://sodipodi.sourceforge.net/DTD/sodipodi-0.dtd"
   xmlns="http://www.w3.org/2000/svg"
   xmlns:svg="http://www.w3.org/2000/svg"><defs
   id="defs10">
			
			
		
			
			
			
			
		</defs><sodipodi:namedview
   id="namedview10"
   pagecolor="#ffffff"
   bordercolor="#666666"
   borderopacity="1.0"
   inkscape:showpageshadow="2"
   inkscape:pageopacity="0.0"
   inkscape:pagecheckerboard="0"
   inkscape:deskcolor="#d1d1d1"
   inkscape:zoom="6.0703125"
   inkscape:cx="64"
   inkscape:cy="64"
   inkscape:window-width="1680"
   inkscape:window-height="998"
   inkscape:window-x="-8"
   inkscape:window-y="-8"
   inkscape:window-maximized="1"
   inkscape:current-layer="g9" />
<path
   style="fill:#FFCA28;"
   d="M60.3,47.1c-2.2-7-5.9-10.8-6.8-14.1c-1.1-3.8,3.3-6.4,5.7-3.3c-1.2-3-5-5.6-5.4-10.8  c-0.1-1.6,0.5-4.4,4.2-4.9c-0.7-4.1,0.7-6,2-6.8c1.7-1,3.5-0.5,4.6,0.3c10,7.6,24.3,24.8,31.3,49.1c0.7,2.4,1.2,4.5,1.3,6.6  c0.1,1.8,0.3,3.9,0.3,8.3c0,7.8-0.8,17.3-1.8,32.6c0,0.7,0.1,1.7,0.3,2.3c0.3,0.6,0.4,1.2-0.2,2c-4.6,5.1-19.7,13.2-29.3,14.6  c-1,0.1-1.4-0.3-1.8-0.7c-4.7-4.2-11.5-4.3-17.9-9.1c-8.4-6.4-15.6-14.6-18.7-30.7c-0.5-2.8,2.1-7,6.9-5.6  c10.8,3.3,5.5,14.7,18.8,18.5c10.1,2.9,19.9-5.7,19.8-14c-0.1-6.8-2.4-14.2-11.4-16.3c-11.7-2.8-18.8,11.3-25.6,10.8  c-4.4-0.4-6.2-2.4-6.6-4.7C29.5,68.3,32.9,64,42.2,56C46,52.8,52.6,48.6,60.3,47.1z"
   id="path1" />
<g
   id="g5">
	<g
   id="g4">
		<defs
   id="defs1">
			<path
   id="SVGID_1_"
   d="M60.3,47.1c-2.2-7-5.9-10.8-6.8-14.1c-1.1-3.8,3.3-6.4,5.7-3.3c-1.2-3-5-5.6-5.4-10.8     c-0.1-1.6,0.5-4.4,4.2-4.9c-0.7-4.1,0.7-6,2-6.8c1.7-1,3.5-0.5,4.6,0.3c10,7.6,24.3,24.8,31.3,49.1c0.7,2.4,1.2,4.5,1.3,6.6     c0.1,1.8,0.3,3.9,0.3,8.3c0,7.8-0.8,17.3-1.8,32.6c0,0.7,0.1,1.7,0.3,2.3c0.3,0.6,0.4,1.2-0.2,2c-4.6,5.1-19.7,13.2-29.3,14.6     c-1,0.1-1.4-0.3-1.8-0.7c-4.7-4.2-11.5-4.3-17.9-9.1c-8.4-6.4-15.6-14.6-18.7-30.7c-0.5-2.8,2.1-7,6.9-5.6     c10.8,3.3,5.5,14.7,18.8,18.5c10.1,2.9,19.9-5.7,19.8-14c-0.1-6.8-2.4-14.2-11.4-16.3c-11.7-2.8-18.8,11.3-25.6,10.8     c-4.4-0.4-6.2-2.4-6.6-4.7C29.5,68.3,32.9,64,42.2,56C46,52.8,52.6,48.6,60.3,47.1z" />
		</defs>
		
		<path
   id="path3"
   style="fill:#faa700"
   d="M 61.912109 6.6445312 C 61.288672 6.6609375 60.6375 6.8242188 60 7.1992188 C 58.7 7.9992187 57.3 9.9 58 14 C 54.3 14.5 53.700781 17.300391 53.800781 18.900391 C 54.200781 24.100391 57.999219 26.699219 59.199219 29.699219 C 56.799219 26.599219 52.4 29.2 53.5 33 C 54.4 36.3 58.100781 40.099609 60.300781 47.099609 C 59.534599 47.248866 58.787647 47.443501 58.044922 47.642578 C 58.620422 48.142911 59.461764 48.425375 60.699219 48 C 68.099219 45.5 73.5 50 73.5 50 C 73.5 50 76.699609 52.8 76.099609 50.5 C 71.999609 34.4 67.400391 29.199609 64.400391 23.599609 C 63.200391 21.199609 61.300391 17.100391 59.900391 14.400391 C 58.500391 11.700391 59.900781 9.6996094 60.800781 9.0996094 C 61.600781 8.4996094 63.1 8.6003906 64 9.4003906 C 69.7 14.600391 76 22.000391 79 25.900391 C 82 29.800391 83.499219 31.699219 84.699219 34.199219 C 85.281425 35.412148 86.264632 35.580891 87.224609 35.384766 C 80.111071 22.208703 71.37182 12.64688 64.599609 7.5 C 63.912109 7 62.951172 6.6171875 61.912109 6.6445312 z M 47.847656 52.013672 C 45.608528 53.34897 43.68441 54.749312 42.199219 56 C 32.899219 64 29.5 68.299219 30 71.199219 C 30.4 73.499219 32.199609 75.500391 36.599609 75.900391 C 36.709433 75.908466 36.819689 75.901752 36.929688 75.902344 C 37.296933 75.344009 37.12797 74.413245 35 73.599609 C 31.6 72.299609 32.300391 69.399609 33.400391 68.099609 C 40.400391 59.899609 45.499219 56.099219 47.699219 54.199219 C 48.291281 53.666363 48.159649 52.824678 47.847656 52.013672 z M 33.304688 76.623047 C 29.598242 76.527344 27.662109 80.05 28.099609 82.5 C 28.899898 86.656336 29.978505 90.278038 31.275391 93.486328 C 32.327368 93.56368 33.252537 92.617329 32.300781 90 C 30.600781 85.2 30.500391 83.500781 30.400391 82.300781 C 30.100391 79.200781 32.599609 78.900391 32.599609 78.900391 C 34.299609 78.500391 37.200781 80.100391 38.300781 81.400391 C 39.300781 82.800391 40.5 84.900781 41.5 87.300781 C 47.3 102.20078 63.900781 97.199609 65.800781 96.099609 C 66.963521 95.445568 67.116745 94.056885 66.886719 93.037109 C 63.261421 95.555903 58.572028 96.770353 53.800781 95.400391 C 40.500781 91.600391 45.8 80.200391 35 76.900391 C 34.4 76.725391 33.83418 76.636719 33.304688 76.623047 z " />
			
		
	</g>
</g>
<g
   id="g10">
	<g
   id="g9">
		<defs
   id="defs5">
			<path
   id="SVGID_00000150068994824989385750000014971427309250274485_"
   d="M60.3,47.1c-2.2-7-5.9-10.8-6.8-14.1     c-1.1-3.8,3.3-6.4,5.7-3.3c-1.2-3-5-5.6-5.4-10.8c-0.1-1.6,0.5-4.4,4.2-4.9c-0.7-4.1,0.7-6,2-6.8c1.7-1,3.5-0.5,4.6,0.3     c10,7.6,24.3,24.8,31.3,49.1c0.7,2.4,1.2,4.5,1.3,6.6c0.1,1.8,0.3,3.9,0.3,8.3c0,7.8-0.8,17.3-1.8,32.6c0,0.7,0.1,1.7,0.3,2.3     c0.3,0.6,0.4,1.2-0.2,2c-4.6,5.1-19.7,13.2-29.3,14.6c-1,0.1-1.4-0.3-1.8-0.7c-4.7-4.2-11.5-4.3-17.9-9.1     c-8.4-6.4-15.6-14.6-18.7-30.7c-0.5-2.8,2.1-7,6.9-5.6c10.8,3.3,5.5,14.7,18.8,18.5c10.1,2.9,19.9-5.7,19.8-14     c-0.1-6.8-2.4-14.2-11.4-16.3c-11.7-2.8-18.8,11.3-25.6,10.8c-4.4-0.4-6.2-2.4-6.6-4.7C29.5,68.3,32.9,64,42.2,56     C46,52.8,52.6,48.6,60.3,47.1z" />
		</defs>
		
		<path
   id="path8"
   style="fill:#b55e19"
   d="M 57.914062 14.019531 C 57.906811 14.020604 57.901759 14.0243 57.894531 14.025391 C 56.459373 18.149599 70.906992 30.536705 74.5 49.599609 C 72.5 48.099609 70.699609 47.1 68.599609 46.5 C 68.199609 46.4 67.899219 46.099219 67.699219 45.699219 C 65.299219 38.899219 61.900781 33.600391 61.300781 32.900391 C 60.700781 32.200391 60.4 32.799609 60.5 33.099609 C 60.8 34.099609 63.899609 39.800781 65.099609 46.300781 C 63.399609 46.300781 61.899219 46.599219 60.199219 47.199219 C 60.142532 47.177097 60.137651 47.174084 60.082031 47.152344 C 52.477515 48.689134 45.96255 52.830879 42.199219 56 C 41.112946 56.934428 40.123784 57.809349 39.195312 58.646484 C 40.199151 58.938857 41.557972 58.949431 43.400391 57.699219 C 47.200391 55.099219 53.699219 49.700781 65.199219 48.800781 C 67.299219 48.600781 71.400391 49.100781 82.400391 57.800781 C 83.800391 58.900781 85.8 56.700391 84 55.400391 C 83.3 54.900391 80.299609 53.000781 78.599609 51.800781 C 78.199609 51.500781 77.900781 51.099609 77.800781 50.599609 C 72.510245 28.43925 59.750003 17.242345 57.914062 14.019531 z M 75.623047 18.251953 C 75.252008 19.841409 75.586113 21.75262 76.599609 23 C 85.099609 32.9 91.399609 49.9 93.099609 56 C 93.599609 57.8 94.499219 61.399219 94.699219 64.699219 C 95.199219 74.499219 94.199609 91.199219 93.099609 105.69922 C 93.029058 106.96915 93.560869 108.66912 94.123047 109.99219 C 94.765243 109.44043 95.347326 108.90313 95.800781 108.40039 C 96.400781 107.60039 96.3 107.00039 96 106.40039 C 95.8 105.80039 95.699219 104.79961 95.699219 104.09961 C 96.699219 88.799609 97.5 79.3 97.5 71.5 C 97.5 67.1 97.299219 64.999219 97.199219 63.199219 C 97.099219 61.099219 96.600391 58.999609 95.900391 56.599609 C 91.237356 40.412219 83.335855 27.399041 75.623047 18.251953 z M 59.728516 61.888672 C 57.997583 61.875342 56.149219 62.117969 54.199219 62.699219 C 50.499219 63.799219 47.300781 66.600781 45.800781 67.800781 C 42.600781 70.600781 38.699219 75.799609 33.199219 73.099609 C 32.469543 72.767938 31.573987 72.84703 31.046875 73.511719 C 32.048699 74.733284 33.790241 75.644994 36.599609 75.900391 C 43.399609 76.400391 50.499219 62.299609 62.199219 65.099609 C 71.199219 67.199609 73.499609 74.600391 73.599609 81.400391 C 73.699609 89.700391 63.900781 98.300391 53.800781 95.400391 C 53.610914 95.346143 53.438247 95.283862 53.255859 95.226562 C 53.505005 96.208816 54.052693 96.818839 55.400391 97.099609 C 62.000391 98.299609 68.699609 96.099219 72.599609 91.199219 C 76.499609 86.199219 78.700391 77.5 74.400391 70 C 72.531641 66.83125 67.229224 61.946436 59.728516 61.888672 z M 33.304688 76.623047 C 32.407108 76.599871 31.620807 76.798282 30.939453 77.132812 C 32.068586 80.670419 36.019668 83.06448 41.503906 81.953125 C 40.211806 79.790965 38.409252 77.942107 35 76.900391 C 34.4 76.725391 33.83418 76.636719 33.304688 76.623047 z M 28.314453 80.189453 C 28.050687 80.972933 27.971501 81.782593 28.099609 82.5 C 31.199609 98.6 38.400781 106.79922 46.800781 113.19922 C 53.200781 117.99922 59.999219 118.10078 64.699219 122.30078 C 65.099219 122.70078 65.5 123.1 66.5 123 C 67.314095 122.88128 68.179058 122.6994 69.0625 122.49023 C 68.604085 121.80608 68.107306 121.08931 67.699219 120.59961 C 62.799219 114.69961 51.500391 117.9 37.400391 99.5 C 32.200391 92.6 30.299609 83.600391 30.099609 82.400391 C 29.867517 81.007834 29.096452 80.434829 28.314453 80.189453 z " />
			
		
	</g>
</g>
</svg>
