<?xml version="1.0" encoding="UTF-8" standalone="no"?>
<!-- Generator: Adobe Illustrator 26.3.1, SVG Export Plug-In . SVG Version: 6.00 Build 0)  -->

<svg
   version="1.1"
   id="Layer_2_copy"
   x="0px"
   y="0px"
   viewBox="0 0 128 128"
   style="enable-background:new 0 0 128 128;"
   xml:space="preserve"
   sodipodi:docname="emoji_u270c.svg"
   inkscape:version="1.4-beta3 (01c8a1c, 2024-08-28, custom)"
   xmlns:inkscape="http://www.inkscape.org/namespaces/inkscape"
   xmlns:sodipodi="http://sodipodi.sourceforge.net/DTD/sodipodi-0.dtd"
   xmlns="http://www.w3.org/2000/svg"
   xmlns:svg="http://www.w3.org/2000/svg"><defs
   id="defs11" /><sodipodi:namedview
   id="namedview11"
   pagecolor="#ffffff"
   bordercolor="#666666"
   borderopacity="1.0"
   inkscape:showpageshadow="2"
   inkscape:pageopacity="0.0"
   inkscape:pagecheckerboard="0"
   inkscape:deskcolor="#d1d1d1"
   inkscape:zoom="6.0703125"
   inkscape:cx="64"
   inkscape:cy="64"
   inkscape:window-width="1680"
   inkscape:window-height="998"
   inkscape:window-x="-8"
   inkscape:window-y="-8"
   inkscape:window-maximized="1"
   inkscape:current-layer="g5" />
<path
   style="fill:#FFCA28;"
   d="M94.6,75.6c3,3.4,5.8,8.8,4.1,16.8C98,95.7,92,114,78.5,120.1c-15.1,6.8-41.8,6.2-50-24  c-4-14.5-2.2-18.3-2.1-30.9c0-9,7.8-14.8,15.3-8.2c-0.8-5,1.7-9.5,5.9-10.8c3.8-1.2,7.3-0.8,10.3,4.3c1-2.2-3.3-26.9-3.3-39.9  c0-7.7,11.3-8.8,12.7-2.1c2,9.4,6.8,40.3,7.9,46c0.4,1.9,2.1,1.4,2.4,0.4c1.1-3.6,9.3-36.6,10.5-40.3c2.8-9,14.7-5.8,13.6,3.1  c-1.8,13.7-5.5,29.8-7.7,45.5C93.3,67.7,94,71.6,94.6,75.6z"
   id="path1" />
<g
   id="g7">
	<g
   id="g6">
		<g
   id="g5">
			<defs
   id="defs1" />
			
			<path
   id="path4"
   style="fill:#faa700"
   d="M 61.552734 4.0839844 C 58.175098 4.0250977 54.599609 6.2683594 54.599609 10.599609 C 54.599609 23.599609 58.900391 48.3 57.900391 50.5 C 54.900391 45.4 51.399609 44.999219 47.599609 46.199219 C 43.399609 47.499219 40.899219 52 41.699219 57 C 34.199219 50.4 26.400391 56.199219 26.400391 65.199219 C 26.300391 77.799219 24.5 81.599609 28.5 96.099609 C 34.100462 116.7257 48.329417 123.53908 61.599609 123.62305 L 61.599609 122.69922 C 41.499609 120.09922 33.5 106.69922 30.5 95.199219 C 26.8 81.199219 28.200781 81.8 28.300781 73.5 C 28.300781 70.4 28.200781 65.300781 29.300781 61.300781 C 30.200781 58.200781 35.6 53.999219 40.5 58.699219 C 41.3 59.499219 44.300781 61.8 44.300781 61.5 C 41.000781 49.2 51.7 44.400781 56.5 50.300781 C 58.1 52.300781 60.100781 58.900781 62.300781 65.800781 C 62.400781 65.200781 68.900781 63.200391 70.800781 62.400391 C 60.300781 62.200391 60.499219 49.799219 60.199219 45.699219 C 60.099219 44.699219 57.9 24.200391 57 11.400391 C 56.8 9.2003906 60.6 3.5 65.5 8.5 C 65.855103 8.8551029 66.203166 7.4347619 65.931641 5.8964844 C 64.814756 4.7239736 63.217171 4.1130027 61.552734 4.0839844 z M 95.150391 9.2480469 C 92.292456 9.0595459 89.324609 10.662109 88.099609 14.599609 C 86.899609 18.299609 78.699609 51.300391 77.599609 54.900391 C 77.466322 55.344683 77.054671 55.673642 76.605469 55.753906 C 76.603287 55.776125 76.601803 55.778409 76.599609 55.800781 C 79.599609 56.000781 80.299609 54.699219 80.599609 53.699219 C 80.999609 51.899219 90.100781 18.699609 90.800781 16.099609 C 92.100781 11.199609 98.199609 10.499609 99.599609 15.099609 C 99.921553 16.172756 100.84034 15.594956 101.55273 14.683594 C 100.77586 11.434696 98.019813 9.4373055 95.150391 9.2480469 z M 59.599609 60.400391 C 59.399609 65.700391 51.600781 68.499609 46.800781 66.099609 C 45.800781 65.499609 45.599219 66.499219 45.699219 68.199219 C 45.799219 70.799219 44.100781 71.799609 42.300781 72.599609 C 39.200781 73.999609 34.899609 73.2 32.599609 69.5 C 31.899609 67.7 30.800781 67.5 30.800781 69 C 30.300781 91 50.800391 87.999219 58.900391 101.19922 C 59.700391 96.199219 64.299609 85.199219 68.099609 84.199219 C 69.999609 83.799219 70.799219 83.899609 71.699219 85.099609 C 72.499219 86.299609 79.500391 90.6 80.900391 91 C 85.900391 92.4 87.7 88.3 86.5 86.5 C 85.5 85 78.600391 77.600391 77.900391 76.900391 C 77.200391 76.200391 74.500781 73.400391 70.800781 75.400391 C 68.600781 76.600391 62.200781 79.800781 56.300781 80.300781 C 55.400781 80.400781 55.099219 81.4 56.199219 82 C 57.299219 82.6 56.700781 83.6 56.300781 83.5 C 56.000781 83.4 53.500781 82.8 51.800781 81 C 48.400781 77.5 50.100781 72.5 52.300781 70.5 C 54.500781 68.5 56.900781 68.5 61.300781 66.5 C 61.000781 65.1 60.399609 63.000391 59.599609 60.400391 z " />
				
			
		</g>
	</g>
</g>
<g
   id="g11">
	<g
   id="g10">
		<g
   id="g9">
			<defs
   id="defs7" />
			
			<path
   id="path8"
   style="fill:#b55e19"
   d="M 61.552734 4.0839844 C 61.001674 4.074377 60.449499 4.1477598 59.904297 4.2597656 C 63.875916 5.4030787 65.11292 8.5664328 65.400391 10.099609 C 65.700391 11.599609 72.1 50.5 72.5 52.5 C 72.9 54.5 74 55.600781 76.5 55.800781 L 76.496094 55.775391 C 75.965206 55.81729 75.406995 55.486939 75.199219 54.5 C 74.099219 48.8 69.300781 17.9 67.300781 8.5 C 66.688281 5.56875 64.179785 4.1297852 61.552734 4.0839844 z M 97.349609 9.7753906 C 99.040575 11.618479 100.01796 14.805907 99.5 18 C 98.9 21.6 96.200391 38.2 93.400391 52.5 C 91.400391 62.3 90.9 66.700391 91.5 72.900391 C 89.1 70.800391 85.200781 68.000781 80.800781 64.300781 C 75.400781 59.700781 68.800391 61.899219 62.900391 64.699219 C 61.500391 57.199219 59.600391 53.6 57.900391 50.5 C 55.538979 46.4856 52.863926 45.405291 49.980469 45.703125 C 55.55383 48.626133 59.451029 58.786504 60.199219 65.800781 C 58.499219 66.500781 56.2 67.199219 53.5 68.199219 C 51.6 68.899219 50.3 70.100391 49.5 71.400391 C 48 66.100391 44.599219 59.6 41.699219 57 C 39.527964 55.089295 37.337509 54.244875 35.3125 54.189453 C 39.807691 56.674561 46.865121 66.047698 47.900391 76.400391 C 48.200391 79.900391 44.699219 84.099219 39.699219 80.199219 C 37.299219 78.299219 34.800391 73.899219 32.400391 68.199219 C 32.000391 67.299219 31.400391 67.099219 31.400391 68.199219 C 31.400391 69.299219 31.900391 71.199219 32.400391 72.699219 C 31.700391 72.499219 30.9 72.100391 30 71.400391 C 29.2 70.700391 28.800781 71.3 29.300781 72 C 31.500781 75.1 33.499609 75.100781 33.599609 75.300781 C 38.299609 85.700781 46.4 86.6 49.5 80 C 52.2 84.6 57.300391 85.499219 63.400391 85.199219 C 61.900391 87.199219 56.499219 100.09961 59.199219 105.09961 C 59.599219 105.79961 59.900391 105.3 59.900391 105 C 60.400391 92.6 67.499219 85 68.199219 84.5 C 68.699219 84.1 69.399609 84.099609 69.599609 84.599609 C 70.799609 86.999609 78.999219 93.6 83.199219 90 C 83.799219 89.5 83.399219 88.8 82.699219 89 C 82.199219 89.1 79.9 89.4 77 87.5 C 75.4 86.4 73.700391 84.700781 71.900391 82.800781 C 71.900391 82.800781 74.400391 81.3 74.900391 79 C 75.100391 78.3 74.3 78.100391 74 78.400391 C 70.8 81.900391 63.1 82.799609 56 81.599609 C 51.3 80.799609 50.1 72.7 54 71 C 56.2 70 67.200781 65.999609 69.800781 65.099609 C 72.500781 63.999609 75.799219 63.999609 77.699219 65.599609 C 81.199219 68.399609 91.8 76.600781 94.5 81.300781 C 97.2 86.000781 96.700781 94.099219 91.800781 102.69922 C 88.900781 107.59922 85.099609 112.99922 78.099609 117.19922 C 67.774608 122.461 54.982838 122.49118 39.142578 115.05469 C 50.804357 126.05184 67.648133 124.98654 78.5 120.09961 C 92 113.99961 97.999219 95.700391 98.699219 92.400391 C 100.39922 84.400391 97.599609 78.999609 94.599609 75.599609 C 93.999609 71.599609 93.3 67.699219 94 63.199219 C 96.2 47.499219 99.899219 31.399219 101.69922 17.699219 C 102.19105 13.719873 100.08014 10.894713 97.349609 9.7753906 z " />
				
			
		</g>
	</g>
</g>
</svg>
