<?xml version="1.0" encoding="UTF-8" standalone="no"?>
<!-- Created with Inkscape (http://www.inkscape.org/) -->

<svg
   width="16"
   height="16"
   viewBox="0 0 16 16"
   version="1.1"
   id="svg5"
   inkscape:version="1.2.2 (732a01da63, 2022-12-09)"
   sodipodi:docname="10080.svg"
   inkscape:export-filename="..\0000.png"
   inkscape:export-xdpi="96"
   inkscape:export-ydpi="96"
   xml:space="preserve"
   xmlns:inkscape="http://www.inkscape.org/namespaces/inkscape"
   xmlns:sodipodi="http://sodipodi.sourceforge.net/DTD/sodipodi-0.dtd"
   xmlns="http://www.w3.org/2000/svg"
   xmlns:svg="http://www.w3.org/2000/svg"><sodipodi:namedview
     id="namedview7"
     pagecolor="#ffffff"
     bordercolor="#666666"
     borderopacity="1.0"
     inkscape:pageshadow="2"
     inkscape:pageopacity="0"
     inkscape:pagecheckerboard="0"
     inkscape:document-units="px"
     showgrid="true"
     width="16mm"
     units="px"
     inkscape:zoom="47.125"
     inkscape:cx="5.8249337"
     inkscape:cy="10.100796"
     inkscape:window-width="1680"
     inkscape:window-height="998"
     inkscape:window-x="-8"
     inkscape:window-y="-8"
     inkscape:window-maximized="1"
     inkscape:current-layer="layer1"
     showguides="true"
     inkscape:guide-bbox="true"
     inkscape:snap-bbox="true"
     inkscape:bbox-paths="true"
     inkscape:bbox-nodes="true"
     inkscape:snap-global="true"
     inkscape:showpageshadow="2"
     inkscape:deskcolor="#ffffff"><inkscape:grid
       type="xygrid"
       id="grid828"
       originx="0"
       originy="0" /></sodipodi:namedview><defs
     id="defs2" /><g
     inkscape:label="Layer 1"
     inkscape:groupmode="layer"
     id="layer1"><rect
       style="opacity:1;fill:#7fffff;fill-opacity:1;stroke:none;stroke-width:4.4376;stroke-linejoin:bevel;stop-color:#000000"
       id="rect691"
       width="16"
       height="16"
       x="-9.3132257e-08"
       y="8.5681677e-08" /><path
       d="m 13.758382,2.5815659 c 0,0.3625186 -0.07242,1.0146925 -0.708979,1.3269379 v 1.1905273 c 0,1.1956045 -0.357349,2.8502262 -0.971575,3.4585124 0.174766,0.1393095 0.616971,0.601946 0.616971,1.2885275 0,0.389642 -0.08006,1.180314 -0.694799,1.506997 V 15 H 11.00743 V 11.353068 C 10.365209,11.049711 10.39423,9.900033 10.514269,9.5980219 10.174638,9.7243505 9.0016729,10.077654 8.5313934,10.17761 c 0.1039791,0.200928 0.1559748,0.442048 0.1559748,0.723359 0,0.389641 -0.080049,1.180314 -0.6947986,1.506997 V 15 H 7 V 12.407966 C 6.7097201,12.264727 6.3052012,11.88349 6.3052012,10.870829 c 0,-0.251171 0.042539,-0.482239 0.1276169,-0.693219 C 6.1932465,10.13942 5.126566,9.8170753 4.6401403,9.6361323 4.7193134,10.038956 4.5850235,11.050829 3.9925697,11.353068 V 15 H 3 V 11.353068 C 2.7097201,11.20983 2.3052012,10.828592 2.3052012,9.8159311 c 0,-0.5285698 0.2974271,-0.9351121 0.6624269,-1.250287 C 2.2597405,7.8799606 1.9468028,6.2477997 1.9468028,5.0990311 V 3.9085038 C 1.7250952,3.7997466 1.2378242,3.6223943 1.2378242,2.5815659 1.2378242,2.2508509 1.3282747,1 2.4998056,1 3.5768429,1 3.6199915,2.3619919 3.6199915,2.5514259 3.6199915,2.8176083 3.5779233,3.5882101 3.1662453,4 H 11.829959 C 11.646305,3.826504 11.376215,3.3572276 11.376215,2.5514259 11.376215,2.43328 11.402013,1 12.496401,1 12.7942,1 13.758382,1.2805306 13.758382,2.5815659 Z M 2.8542951,2.5664907 c 0,-0.1722888 0,-0.7979278 -0.3970281,-0.7979278 -0.115236,0 -0.4537462,0.180059 -0.4537462,0.7979278 0,0.2627238 0,0.6789293 0.4395667,0.6789293 0.1270345,0 0.4112076,0.180059 0.4112076,-0.6789293 z m 10.1383899,0 c 0,-0.1569256 0,-0.7979278 -0.453746,-0.7979278 -0.110709,0 -0.397029,0.180059 -0.397029,0.7979278 0,0.203871 0,0.6789293 0.411208,0.6789293 0.134445,0 0.439567,0.180059 0.439567,-0.6789293 z m -0.893313,3.0912065 c 0,-0.1782793 -0.0053,-0.4384865 -0.02835,-0.7082886 H 2.9393724 c -0.042538,0.5425189 -0.042538,0.5425189 -0.042538,0.7082886 0,2.7846739 2.9681378,3.6910655 4.6083592,3.6910655 1.7681922,0 4.5941784,-0.9264182 4.5941784,-3.6910655 z m -0.609836,5.0322918 c 0.134443,0 0.439566,0 0.439566,-0.8589879 0,-0.1515826 -6.4e-4,-0.7250924 -0.383494,-0.7759536 -0.156197,0.1185736 -0.175279,0.1666791 -0.384512,0.3056641 -0.02836,0.09042 -0.08276,0.3296414 -0.08276,0.4702895 0,0.2038709 0,0.8589879 0.411206,0.8589879 z m -8.0074307,0 c 0.1344429,0 0.4395664,0 0.4395664,-0.8589879 0,-0.1205602 -0.03641,-0.4961379 -0.064768,-0.5865579 C 3.6606326,9.1140674 3.6661104,9.1185009 3.4698397,8.9881237 c -0.093041,0.00707 -0.3989411,0.2648317 -0.3989411,0.8428774 0,0.2038709 0,0.8589879 0.4112067,0.8589879 z m 4.4395666,0.19591 c 0,-0.156926 0,-0.617869 -0.4537461,-0.617869 -0.1107082,0 -0.3970281,0 -0.3970281,0.617869 0,0.203871 0,0.858988 0.4112077,0.858988 0.1344428,0 0.4395665,0 0.4395665,-0.858988 z"
       style="fill:#204a87;stroke-width:0.999997"
       sodipodi:nodetypes="scscsccccccsccccsccccccscscsssccssssssssssssssccssscsccsccssccsssssss"
       id="path509" /></g></svg>
