<?xml version="1.0" encoding="UTF-8" standalone="no"?>
<!-- Created with Inkscape (http://www.inkscape.org/) -->

<svg
   width="16"
   height="16"
   viewBox="0 0 4.2333332 4.2333332"
   version="1.1"
   id="svg5"
   inkscape:version="1.2.1 (9c6d41e410, 2022-07-14)"
   sodipodi:docname="A720.svg"
   inkscape:export-filename="..\A720.png"
   inkscape:export-xdpi="96"
   inkscape:export-ydpi="96"
   xmlns:inkscape="http://www.inkscape.org/namespaces/inkscape"
   xmlns:sodipodi="http://sodipodi.sourceforge.net/DTD/sodipodi-0.dtd"
   xmlns="http://www.w3.org/2000/svg"
   xmlns:svg="http://www.w3.org/2000/svg">
  <sodipodi:namedview
     id="namedview7"
     pagecolor="#7fffff"
     bordercolor="#666666"
     borderopacity="1.0"
     inkscape:pageshadow="2"
     inkscape:pageopacity="1"
     inkscape:pagecheckerboard="0"
     inkscape:document-units="px"
     showgrid="true"
     width="16mm"
     units="px"
     inkscape:zoom="64"
     inkscape:cx="1.25"
     inkscape:cy="5.765625"
     inkscape:window-width="1680"
     inkscape:window-height="998"
     inkscape:window-x="-8"
     inkscape:window-y="-8"
     inkscape:window-maximized="1"
     inkscape:current-layer="text556"
     showguides="true"
     inkscape:guide-bbox="true"
     inkscape:snap-bbox="true"
     inkscape:bbox-paths="true"
     inkscape:bbox-nodes="true"
     inkscape:snap-global="true"
     inkscape:showpageshadow="2"
     inkscape:deskcolor="#7fffff">
    <inkscape:grid
       type="xygrid"
       id="grid828"
       originx="0"
       originy="0" />
    <sodipodi:guide
       position="2.1166666,4.4979165"
       orientation="1,0"
       id="guide835"
       inkscape:locked="false" />
    <sodipodi:guide
       position="3.7041665,2.1166666"
       orientation="0,-1"
       id="guide837"
       inkscape:locked="false" />
  </sodipodi:namedview>
  <defs
     id="defs2" />
  <g
     inkscape:label="Layer 1"
     inkscape:groupmode="layer"
     id="layer1">
    <g
       aria-label="Ừ"
       id="text556"
       style="font-size:4.517px;line-height:1.25;font-family:Cambria;-inkscape-font-specification:Cambria;text-align:center;letter-spacing:0px;word-spacing:0px;text-anchor:middle;fill:#204a87;stroke-width:0.264583">
      <g
         aria-label="Ꝕ"
         id="text1065"
         style="font-size:4.78442px;stroke-width:0.0700043"
         transform="translate(0,0.2563151)">
        <path
           d="M 1.4492908,3.7041669 V 3.5032212 h 0.062197 c 0.1084469,0 0.2009457,-0.019138 0.2774964,-0.057413 C 1.8655353,3.4043432 1.9038108,3.3086548 1.9038108,3.158743 V 2.3645293 C 1.6677794,2.3453916 1.4764809,2.2991124 1.3398885,2.2114278 1.2032961,2.1203709 1.0977473,1.9972753 1.0232423,1.8421412 0.95184174,1.6870071 0.89441084,1.5032069 0.8509496,1.2907405 0.80748837,1.0614118 0.76557932,0.88941528 0.72522246,0.77475095 0.68796997,0.66008661 0.64761311,0.58420578 0.60415188,0.54710849 0.56379505,0.50663878 0.51412506,0.48640388 0.45514194,0.48640388 c -0.0682962,0 -0.12107059,0.0269798 -0.15832307,0.0809395 -0.0372524,0.0539597 -0.0620874,0.11466434 -0.074505,0.18211397 -0.0558788,0 -0.10554874,-0.0320385 -0.14900995,-0.0961157 C 0.02984271,0.58926445 0.00811209,0.52012863 0.00811209,0.44593406 c 0,-0.11803684 0.03725249,-0.20909382 0.11175746,-0.27317096 0.0776094,-0.0640772 0.16918837,-0.09611572 0.27473709,-0.09611572 0.14280119,0 0.25611084,0.04552851 0.33992893,0.13658547 0.0869224,0.091057 0.15677088,0.22258375 0.20954524,0.39458028 0.0558787,0.16862405 0.10710089,0.37265909 0.15366649,0.61210527 0.062087,0.3068958 0.1505619,0.5294795 0.265424,0.6677513 0.1179662,0.1382717 0.3014185,0.2264749 0.5406395,0.2519918 V 0.8143772 c 0,-0.14034299 -0.03987,-0.22965216 -0.1196105,-0.26792752 -0.076551,-0.0382753 -0.1674547,-0.057413 -0.272712,-0.057413 H 1.4492908 V 0.288091 h 1.3444221 c 0.4018913,0 0.6985253,0.0893092 0.8899021,0.26792752 0.1913768,0.17542873 0.2870652,0.41943416 0.2870652,0.73201628 0,0.1881872 -0.041465,0.3652107 -0.1243949,0.5310706 C 3.766545,1.9849653 3.6325812,2.118929 3.444394,2.2209967 3.2562068,2.3230643 3.0042273,2.3740981 2.6884556,2.3740981 H 2.3870372 v 0.808567 c 0,0.140343 0.038275,0.2296522 0.1148261,0.2679275 0.076551,0.035086 0.1690494,0.052629 0.2774963,0.052629 H 2.9372455 V 3.7041669 Z M 2.6406114,2.1492304 c 0.2902549,0 0.4975797,-0.063792 0.6219746,-0.1913768 C 3.3901705,1.8270795 3.4539628,1.6101858 3.4539628,1.3071725 3.4539628,1.039245 3.3981446,0.84148891 3.2865081,0.71390438 3.1748716,0.58313023 2.9834948,0.51774316 2.7123777,0.51774316 H 2.3870372 V 2.1492304 Z"
           id="path1080"
           sodipodi:nodetypes="ccscsccccccsscsscscccccscsccscscsscscscccscscsccs" />
      </g>
    </g>
  </g>
</svg>
