<?xml version="1.0" encoding="UTF-8" standalone="no"?>
<svg
   version="1.1"
   viewBox="-10 0 1010 1000"
   id="svg1"
   sodipodi:docname="white_alfil.svg"
   inkscape:version="1.4 (86a8ad7, 2024-10-11)"
   xml:space="preserve"
   xmlns:inkscape="http://www.inkscape.org/namespaces/inkscape"
   xmlns:sodipodi="http://sodipodi.sourceforge.net/DTD/sodipodi-0.dtd"
   xmlns="http://www.w3.org/2000/svg"
   xmlns:svg="http://www.w3.org/2000/svg"><defs
     id="defs1" /><sodipodi:namedview
     id="namedview1"
     pagecolor="#ffffff"
     bordercolor="#666666"
     borderopacity="1.0"
     inkscape:showpageshadow="2"
     inkscape:pageopacity="0.0"
     inkscape:pagecheckerboard="0"
     inkscape:deskcolor="#d1d1d1"
     showguides="true"
     inkscape:zoom="0.53386562"
     inkscape:cx="794.20735"
     inkscape:cy="705.23365"
     inkscape:window-width="1680"
     inkscape:window-height="998"
     inkscape:window-x="-8"
     inkscape:window-y="-8"
     inkscape:window-maximized="1"
     inkscape:current-layer="svg1"><sodipodi:guide
       position="186,200"
       orientation="0,-1"
       id="guide1"
       inkscape:locked="false" /><sodipodi:guide
       position="430,915"
       orientation="0,-1"
       id="guide2"
       inkscape:locked="false" /><sodipodi:guide
       position="510.5,915"
       orientation="1,0"
       id="guide3"
       inkscape:locked="false" /><sodipodi:guide
       position="219.15627,632.86641"
       orientation="0,-1"
       id="guide7"
       inkscape:locked="false" /><sodipodi:guide
       position="263.67774,200"
       orientation="1,0"
       id="guide13"
       inkscape:locked="false" /><sodipodi:guide
       position="711.23828,254"
       orientation="0,-1"
       id="guide14"
       inkscape:locked="false" /><sodipodi:guide
       position="757.32227,254"
       orientation="1,0"
       id="guide15"
       inkscape:locked="false" /></sodipodi:namedview><path
     style="fill:none;stroke:#000000;stroke-width:33;stroke-linecap:butt;stroke-linejoin:miter;stroke-dasharray:none;stroke-opacity:1"
     d="m 543.05477,336.42384 c 2.64901,43.70861 21.19205,100.66225 46.35762,148.34437 C 788.08788,348.34437 821.20046,262.25166 788.08788,113.90728 719.21371,62.251656 598.68391,63.576159 511.26669,84.768212 356.2998,83.443709 317.88921,180.13245 292.72365,268.87417 c 0,0 -55.56362,74.08483 -81.86603,178.07488 m -10.10928,52.63455 c -2.16709,16.68418 -3.38893,33.86879 -3.38893,51.40978 0,154.96688 56.95364,186.75496 90.06622,205.29801 l 45.48761,-68.00417 c -34.78326,-20.51618 -69.36694,-62.3481 -46.45571,-172.083"
     id="path15"
     sodipodi:nodetypes="ccscccccccc" /><path
     style="fill:none;stroke:#000000;stroke-width:43;stroke-linecap:butt;stroke-linejoin:miter;stroke-dasharray:none;stroke-opacity:1"
     d="M 717.88921,388.07947 C 758.94881,441.0596 799.68704,693.75735 799.68704,800"
     id="path17"
     sodipodi:nodetypes="cc" /><path
     id="path18"
     style="fill:none;stroke:#000000;stroke-width:33;stroke-linecap:butt;stroke-linejoin:miter;stroke-dasharray:none;stroke-opacity:1"
     d="m 557.62431,403.97351 c -47.68212,34.43709 -99.33775,49.00662 -186.75497,6.62252 -39.7351,31.78808 -128.83584,52.70216 -217.8808,24.50331 -20.98704,-6.6462 -27.54754,11.02706 -13.24503,27.81457 40.77224,47.85626 241.74862,106.70565 311.55477,-27.11075"
     sodipodi:nodetypes="ccssc" /><path
     style="fill:none;stroke:#000000;stroke-width:54;stroke-linecap:butt;stroke-linejoin:miter;stroke-dasharray:none;stroke-opacity:1"
     d="M 365.50528,774.30413 799.68704,773"
     id="path19"
     sodipodi:nodetypes="cc" /><path
     style="fill:none;stroke:#000000;stroke-width:43;stroke-linecap:butt;stroke-linejoin:miter;stroke-dasharray:none;stroke-opacity:1"
     d="m 364.19245,800 c -2.8097,-88.9737 81.68123,-222.49516 81.68123,-354.60399"
     id="path20"
     sodipodi:nodetypes="cc" /><circle
     style="fill:#000000;stroke:none;stroke-width:43;stroke-linecap:round;stroke-linejoin:bevel;stroke-dasharray:none"
     id="path21"
     cx="438.21301"
     cy="251.01326"
     r="35.027065" /></svg>
