<?xml version="1.0" encoding="UTF-8" standalone="no"?>
<svg
   enable-background="new 0 0 128 128"
   viewBox="0 0 128 128"
   version="1.1"
   id="svg59"
   sodipodi:docname="emoji_u1f92e.svg"
   inkscape:version="1.2.2 (732a01da63, 2022-12-09)"
   xmlns:inkscape="http://www.inkscape.org/namespaces/inkscape"
   xmlns:sodipodi="http://sodipodi.sourceforge.net/DTD/sodipodi-0.dtd"
   xmlns="http://www.w3.org/2000/svg"
   xmlns:svg="http://www.w3.org/2000/svg">
  <defs
     id="defs63" />
  <sodipodi:namedview
     id="namedview61"
     pagecolor="#ffffff"
     bordercolor="#666666"
     borderopacity="1.0"
     inkscape:showpageshadow="2"
     inkscape:pageopacity="0.0"
     inkscape:pagecheckerboard="0"
     inkscape:deskcolor="#d1d1d1"
     showgrid="false"
     inkscape:zoom="1.84375"
     inkscape:cx="64.271186"
     inkscape:cy="64"
     inkscape:window-width="1680"
     inkscape:window-height="998"
     inkscape:window-x="-8"
     inkscape:window-y="-8"
     inkscape:window-maximized="1"
     inkscape:current-layer="svg59" />
  <radialGradient
     id="a"
     cx="63.6"
     cy="62.9"
     gradientUnits="userSpaceOnUse"
     r="56.96">
    <stop
       offset=".5"
       stop-color="#fde030"
       id="stop2" />
    <stop
       offset=".92"
       stop-color="#f7c02b"
       id="stop4" />
    <stop
       offset="1"
       stop-color="#f4a223"
       id="stop6" />
  </radialGradient>
  <linearGradient
     id="c"
     gradientTransform="matrix(1 0 0 -1 0 130)"
     gradientUnits="userSpaceOnUse"
     x1="64.94"
     x2="64.94"
     y1="48.64"
     y2="4.54">
    <stop
       offset="0"
       stop-color="#469643"
       id="stop12" />
    <stop
       offset=".02"
       stop-color="#489743"
       id="stop14" />
    <stop
       offset=".44"
       stop-color="#6db141"
       id="stop16" />
    <stop
       offset=".78"
       stop-color="#84c03f"
       id="stop18" />
    <stop
       offset="1"
       stop-color="#8cc63f"
       id="stop20" />
  </linearGradient>
  <path
     d="m63.6 118.8c-27.9 0-58-17.5-58-55.9s30.1-55.9 58-55.9c15.5 0 29.8 5.1 40.4 14.4 11.5 10.2 17.6 24.6 17.6 41.5s-6.1 31.2-17.6 41.4c-10.6 9.3-25 14.5-40.4 14.5z"
     fill="url(#a)"
     id="path23" />
  <path
     d="m111.49 29.67c5.33 8.6 8.11 18.84 8.11 30.23 0 16.9-6.1 31.2-17.6 41.4-10.6 9.3-25 14.5-40.4 14.5-18.06 0-37-7.35-48.18-22.94 10.76 17.66 31 25.94 50.18 25.94 15.4 0 29.8-5.2 40.4-14.5 11.5-10.2 17.6-24.5 17.6-41.4 0-12.74-3.47-24.06-10.11-33.23z"
     fill="#eb8f00"
     id="path25" />
  <g
     id="g31">
    <path
       d="m93.7 84.59c-9.7-2.48-19.69-3.69-29.7-3.59-10.14-.11-20.25 1.12-30.06 3.67-3.35 4.59-5.19 10.11-5.27 15.8 0 4.89 5.61 7.74 10.62 5.75 7.87-3.12 16.24-4.78 24.71-4.9 8.47.13 16.84 1.79 24.71 4.92 5 2 10.62-.86 10.62-5.75-.11-5.77-2.09-11.35-5.63-15.9z"
       fill="#422b0d"
       id="path27" />
    <path
       d="m93.7 84.59c-7-9.43-19.23-15.77-29.7-15.77-11.37 0-23.38 6.39-30.06 15.87 9.81-2.55 19.92-3.79 30.06-3.69 10.01-.1 20 1.11 29.7 3.59z"
       fill="#fff"
       id="path29" />
  </g>
  <path
     d="m96.7 119.17c4.86-1.47 6.65-3.17 6.42-4.39-.3-1.58-7.12-1.82-15.12-.67v-30.61s-8.11-2.42-24.5-2.42c-18.19 0-24.5 2.42-24.5 2.42v27.86c-5-.29-8.79.33-9 1.68-.14 1.07 3 2.36 6.92 3.46-7.58.78-12.13 2-12.13 3.37 0 2.35 14.44 4.25 32.05 4.25 6.92.04 13.84-.29 20.72-1 3.82.55 7.67.8 11.53.77 8.84 0 16-1.12 16-2.5.05-.97-3.36-1.8-8.39-2.22z"
     fill="url(#c)"
     id="path33" />
  <g
     fill="#368231"
     id="g47">
    <ellipse
       cx="110.1"
       cy="112.62"
       rx="2.65"
       ry="1.56"
       transform="matrix(.9891 -.1473 .1473 .9891 -15.39 17.44)"
       id="ellipse35" />
    <ellipse
       cx="22.13"
       cy="110.88"
       rx="2.16"
       ry="3.67"
       transform="matrix(.2972 -.9548 .9548 .2972 -90.32 99.06)"
       id="ellipse37" />
    <ellipse
       cx="58.25"
       cy="110.54"
       rx="2.42"
       ry="4.71"
       id="ellipse39" />
    <ellipse
       cx="62.75"
       cy="93.92"
       rx="2.25"
       ry="4.08"
       id="ellipse41" />
    <ellipse
       cx="76.38"
       cy="103.83"
       rx="3.96"
       ry="7.25"
       id="ellipse43" />
    <ellipse
       cx="48.21"
       cy="98.31"
       rx="1.88"
       ry="3.27"
       id="ellipse45" />
  </g>
  <g
     fill="#422b0d"
     id="g57">
    <path
       d="m33.19 60.55 12.18-2.36-12.55-5.19-.42-.23c-2.05-1.08-2.83-3.61-1.75-5.66.26-.49.61-.92 1.03-1.27 2-1.53 4.74-1.65 6.87-.3l21.28 13c.52.19.78.77.59 1.28-.13.35-.44.6-.81.65l-22.91 8.62c-.16.06-.32.12-.48.16-3 .84-6.33-.89-6.8-3.78-.35-2.2 1.35-4.25 3.77-4.92z"
       id="path49" />
    <path
       d="m95.81 60.3-12.18-2.36 12.55-5.21.42-.23c2.05-1.08 2.83-3.61 1.75-5.66-.26-.49-.61-.92-1.03-1.27-2-1.53-4.74-1.65-6.87-.3l-21.28 13c-.52.19-.78.77-.59 1.28.13.35.44.6.81.65l22.91 8.6c.16.06.32.12.48.16 3 .84 6.33-.89 6.8-3.78.35-2.18-1.35-4.18-3.77-4.88z"
       id="path51" />
    <path
       d="m31.4 34.8c-2.2.4-2.3 3.6.1 3.7 5.3.07 10.42-1.9 14.3-5.5 1.48-1.28 2.73-2.8 3.7-4.5.58-.83.38-1.97-.45-2.55s-1.97-.38-2.55.45l-.1.1c-3.92 4.38-9.21 7.31-15 8.3z"
       id="path53" />
    <path
       d="m80.5 26.4c-.58-.83-1.72-1.03-2.55-.45s-1.03 1.72-.45 2.55c.97 1.7 2.22 3.22 3.7 4.5 3.9 3.57 9.01 5.54 14.3 5.5 2.5-.1 2.3-3.3.1-3.7-5.86-.96-11.19-3.93-15.1-8.4z"
       id="path55" />
  </g>
</svg>
