<?xml version="1.0" encoding="UTF-8" standalone="no"?>
<!-- Created with Inkscape (http://www.inkscape.org/) -->

<svg
   width="16"
   height="16"
   viewBox="0 0 16 16"
   version="1.1"
   id="svg5"
   inkscape:version="1.2.1 (9c6d41e410, 2022-07-14)"
   sodipodi:docname="0A00.svg"
   inkscape:export-filename="..\0000.png"
   inkscape:export-xdpi="96"
   inkscape:export-ydpi="96"
   xmlns:inkscape="http://www.inkscape.org/namespaces/inkscape"
   xmlns:sodipodi="http://sodipodi.sourceforge.net/DTD/sodipodi-0.dtd"
   xmlns="http://www.w3.org/2000/svg"
   xmlns:svg="http://www.w3.org/2000/svg">
  <sodipodi:namedview
     id="namedview7"
     pagecolor="#ffffff"
     bordercolor="#666666"
     borderopacity="1.0"
     inkscape:pageshadow="2"
     inkscape:pageopacity="0"
     inkscape:pagecheckerboard="0"
     inkscape:document-units="px"
     showgrid="true"
     width="16mm"
     units="px"
     inkscape:zoom="32"
     inkscape:cx="10.265625"
     inkscape:cy="10.46875"
     inkscape:window-width="1680"
     inkscape:window-height="998"
     inkscape:window-x="-8"
     inkscape:window-y="-8"
     inkscape:window-maximized="1"
     inkscape:current-layer="layer1"
     showguides="true"
     inkscape:guide-bbox="true"
     inkscape:snap-bbox="true"
     inkscape:bbox-paths="true"
     inkscape:bbox-nodes="true"
     inkscape:snap-global="true"
     inkscape:showpageshadow="2"
     inkscape:deskcolor="#ffffff">
    <inkscape:grid
       type="xygrid"
       id="grid828"
       originx="0"
       originy="0" />
  </sodipodi:namedview>
  <defs
     id="defs2" />
  <g
     inkscape:label="Layer 1"
     inkscape:groupmode="layer"
     id="layer1">
    <rect
       style="opacity:1;fill:#ffff83;stroke:none;stroke-width:4.4376;stroke-linejoin:bevel;stop-color:#000000;fill-opacity:1"
       id="rect691"
       width="16"
       height="16"
       x="0"
       y="0" />
    <path
       d="M 10.372399,7.724286 Q 11,6.3346003 11,4.8126702 11,3.2907536 10.820686,2.5017572 H 1.5635843 L 1.07047,1.2017283 1.1825414,1 H 15.056986 l 0.493114,1.2776143 -0.08966,0.224143 h -2.869023 q 0.156901,0.9414 0.156901,2.1069429 0,2.8316639 -1.120715,4.8863149 1.23213,2.3729759 2.0397,5.9621999 l -0.201729,0.156901 -1.882799,-0.582772 q -0.659601,-2.858249 -1.210373,-4.056986 -1.4722733,1.748314 -3.6311144,1.748314 -1.865485,0 -3.2276574,-1.19378 -1.3000286,-1.13932 -1.3000286,-2.6390584 0,-1.5048436 1.0310572,-2.5116329 1.1235161,-1.097074 2.8690288,-1.097074 2.4879859,0 4.2587144,2.4431574 z M 9.7896277,9.2484579 Q 8.470381,6.9397861 6.4723133,6.9397861 q -1.2327859,0 -1.9276288,0.70605 -0.6948429,0.7060501 -0.6948429,1.5465859 0,0.840536 0.6276,1.535379 0.6276001,0.694842 1.7483143,0.694842 1.1207145,0 2.0397003,-0.582772 Q 9.184442,10.2571 9.7896277,9.2484579 Z"
       id="path517"
       style="fill:#f57900;stroke-width:0.0224143" />
  </g>
</svg>
