<?xml version="1.0" encoding="UTF-8" standalone="no"?>
<!-- Created with Inkscape (http://www.inkscape.org/) -->

<svg
   width="16"
   height="16"
   viewBox="0 0 16 16"
   version="1.1"
   id="svg5"
   inkscape:version="1.2.2 (732a01da63, 2022-12-09)"
   sodipodi:docname="11100.svg"
   inkscape:export-filename="..\0000.png"
   inkscape:export-xdpi="96"
   inkscape:export-ydpi="96"
   xml:space="preserve"
   xmlns:inkscape="http://www.inkscape.org/namespaces/inkscape"
   xmlns:sodipodi="http://sodipodi.sourceforge.net/DTD/sodipodi-0.dtd"
   xmlns="http://www.w3.org/2000/svg"
   xmlns:svg="http://www.w3.org/2000/svg"><sodipodi:namedview
     id="namedview7"
     pagecolor="#ffffff"
     bordercolor="#666666"
     borderopacity="1.0"
     inkscape:pageshadow="2"
     inkscape:pageopacity="0"
     inkscape:pagecheckerboard="0"
     inkscape:document-units="px"
     showgrid="true"
     width="16mm"
     units="px"
     inkscape:zoom="45.254834"
     inkscape:cx="1.2263883"
     inkscape:cy="8.0654367"
     inkscape:window-width="1680"
     inkscape:window-height="998"
     inkscape:window-x="-8"
     inkscape:window-y="-8"
     inkscape:window-maximized="1"
     inkscape:current-layer="layer1"
     showguides="true"
     inkscape:guide-bbox="true"
     inkscape:snap-bbox="true"
     inkscape:bbox-paths="true"
     inkscape:bbox-nodes="true"
     inkscape:snap-global="true"
     inkscape:showpageshadow="2"
     inkscape:deskcolor="#ffffff"><inkscape:grid
       type="xygrid"
       id="grid828"
       originx="0"
       originy="0" /></sodipodi:namedview><defs
     id="defs2" /><g
     inkscape:label="Layer 1"
     inkscape:groupmode="layer"
     id="layer1"><path
       d="M 10.713714,10.798215 C 10.522218,11.991257 9.3625848,15 5.4905341,15 4.0824725,15 0.97002427,14.373305 0.97002427,11.564286 c 0,-1.156315 0.45451723,-2.3231232 2.69356783,-3.8535715 L 4.6707524,7.0375002 c 1.9637235,-1.334594 2.2212377,-1.8295528 2.2212377,-2.3214286 0,-1.1155323 -1.4734845,-1.1607142 -1.6825241,-1.1607142 -1.5527811,0 -2.3761485,1.5340695 -2.623301,2.0892856 L 0.52499997,6.0160716 C 0.76798322,3.6079144 2.8993216,2 5.420267,2 6.2894557,2 9,2.2095407 9,4.6464288 9,4.9599587 9,5.7026789 8.156796,6.6428574 c 0.1758278,0.1887748 0.7783359,0.8017853 2.178277,0.8017853 1.846841,0 2.556917,-0.9808348 2.556917,-2.1017853 0,-0.1982737 -0.04936,-1.3299467 -1.147694,-1.9732145 L 13.29017,2.1160715 C 13.72927,2.401194 15,3.3780534 15,5.1339288 15,7.3701865 13.150601,9 10.522451,9 9.6371604,9 8.266497,8.8047558 6.8451456,7.6875002 6.4763119,7.9068344 5.9076764,8.1711235 5.7013349,8.3142859 L 5.209466,8.639286 c -2.1035501,1.389909 -2.131432,2.14823 -2.131432,2.7625 0,1.889086 2.0590148,2.042857 2.5764564,2.042857 0.8234867,0 1.893365,-0.22448 2.5530338,-1.230357 0.2030012,-0.309516 0.3357124,-0.549413 0.3981797,-0.719642 z"
       id="path298"
       style="fill:#f57900;stroke-width:0.999999"
       sodipodi:nodetypes="cssccssccsscssccssccsssccc" /></g></svg>
