<?xml version="1.0" encoding="UTF-8" standalone="no"?>
<!-- Created with Inkscape (http://www.inkscape.org/) -->

<svg
   width="16"
   height="16"
   viewBox="0 0 16 16"
   version="1.1"
   id="svg5"
   inkscape:version="1.2.2 (732a01da63, 2022-12-09)"
   sodipodi:docname="11180.svg"
   inkscape:export-filename="..\0000.png"
   inkscape:export-xdpi="96"
   inkscape:export-ydpi="96"
   xml:space="preserve"
   xmlns:inkscape="http://www.inkscape.org/namespaces/inkscape"
   xmlns:sodipodi="http://sodipodi.sourceforge.net/DTD/sodipodi-0.dtd"
   xmlns="http://www.w3.org/2000/svg"
   xmlns:svg="http://www.w3.org/2000/svg"><sodipodi:namedview
     id="namedview7"
     pagecolor="#ffffff"
     bordercolor="#666666"
     borderopacity="1.0"
     inkscape:pageshadow="2"
     inkscape:pageopacity="0"
     inkscape:pagecheckerboard="0"
     inkscape:document-units="px"
     showgrid="true"
     width="16mm"
     units="px"
     inkscape:zoom="22.627417"
     inkscape:cx="11.777747"
     inkscape:cy="7.0710678"
     inkscape:window-width="1680"
     inkscape:window-height="998"
     inkscape:window-x="-8"
     inkscape:window-y="-8"
     inkscape:window-maximized="1"
     inkscape:current-layer="layer1"
     showguides="true"
     inkscape:guide-bbox="true"
     inkscape:snap-bbox="true"
     inkscape:bbox-paths="true"
     inkscape:bbox-nodes="true"
     inkscape:snap-global="true"
     inkscape:showpageshadow="2"
     inkscape:deskcolor="#ffffff"><inkscape:grid
       type="xygrid"
       id="grid828"
       originx="0"
       originy="0" /></sodipodi:namedview><defs
     id="defs2" /><g
     inkscape:label="Layer 1"
     inkscape:groupmode="layer"
     id="layer1"><rect
       style="opacity:1;fill:#ffff83;stroke:none;stroke-width:4.4376;stroke-linejoin:bevel;stop-color:#000000;fill-opacity:1"
       id="rect691"
       width="16"
       height="16"
       x="0"
       y="0" /><path
       d="M 11.429674,13 C 10.942749,13 9.8965156,12.897655 8.8392579,12.221018 V 15 H 7 V 11.874805 C 6.7054742,12.249652 6.118374,13 4.5703246,13 3.0201413,13 1,11.496486 1,9.003091 1,6.5127141 2.6722793,5 4.5703246,5 5.0607377,5 5.9723068,5.1017896 7,5.8006185 V 3.6228749 H 2 V 2 H 14 V 3.6228749 H 8.8392579 V 6.1251934 C 9.4451312,5.3750574 10.362192,5 11.429674,5 12.950084,5 15,6.1780643 15,8.8083464 15,10.865634 13.656691,13 11.429674,13 Z M 4.7434312,6.6228749 c -0.8277507,0 -1.9041731,0.5645612 -1.9041731,2.2720242 0,0.3677891 0.096887,2.4822249 2.0123648,2.4822249 0.4276535,0 1.3198453,-0.369083 2.1483771,-2.2442035 V 7.5100463 C 5.6438845,6.6233615 5.1180015,6.6228749 4.7434312,6.6228749 Z m 4.0958267,3.8670771 c 0.4201927,0.290913 1.3618521,0.887172 2.4173111,0.887172 0.738535,0 1.904172,-0.738121 1.904172,-2.4822249 0,-0.7474309 -0.214988,-2.2720242 -1.969087,-2.2720242 -0.978459,0 -1.8154949,0.6566735 -2.3523961,1.9690879 z"
       id="path456"
       style="fill:#f57900;stroke-width:1"
       sodipodi:nodetypes="sccccsssccccccccssssssccscssscc" /></g></svg>
