<?xml version="1.0" encoding="UTF-8" standalone="no"?>
<!-- Created with Inkscape (http://www.inkscape.org/) -->

<svg
   width="16"
   height="16"
   viewBox="0 0 16 16"
   version="1.1"
   id="svg5"
   inkscape:version="1.2.2 (732a01da63, 2022-12-09)"
   sodipodi:docname="11280.svg"
   inkscape:export-filename="..\0000.png"
   inkscape:export-xdpi="96"
   inkscape:export-ydpi="96"
   xml:space="preserve"
   xmlns:inkscape="http://www.inkscape.org/namespaces/inkscape"
   xmlns:sodipodi="http://sodipodi.sourceforge.net/DTD/sodipodi-0.dtd"
   xmlns="http://www.w3.org/2000/svg"
   xmlns:svg="http://www.w3.org/2000/svg"><sodipodi:namedview
     id="namedview7"
     pagecolor="#ffffff"
     bordercolor="#666666"
     borderopacity="1.0"
     inkscape:pageshadow="2"
     inkscape:pageopacity="0"
     inkscape:pagecheckerboard="0"
     inkscape:document-units="px"
     showgrid="true"
     width="16mm"
     units="px"
     inkscape:zoom="45.254834"
     inkscape:cx="9.3139221"
     inkscape:cy="9.8111066"
     inkscape:window-width="1680"
     inkscape:window-height="998"
     inkscape:window-x="-8"
     inkscape:window-y="-8"
     inkscape:window-maximized="1"
     inkscape:current-layer="layer1"
     showguides="true"
     inkscape:guide-bbox="true"
     inkscape:snap-bbox="true"
     inkscape:bbox-paths="true"
     inkscape:bbox-nodes="true"
     inkscape:snap-global="true"
     inkscape:showpageshadow="2"
     inkscape:deskcolor="#ffffff"><inkscape:grid
       type="xygrid"
       id="grid828"
       originx="0"
       originy="0" /><sodipodi:guide
       position="9,1"
       orientation="0,-1"
       id="guide354"
       inkscape:locked="false" /></sodipodi:namedview><defs
     id="defs2" /><g
     inkscape:label="Layer 1"
     inkscape:groupmode="layer"
     id="layer1"><rect
       style="opacity:1;fill:#ffff83;stroke:none;stroke-width:4.4376;stroke-linejoin:bevel;stop-color:#000000;fill-opacity:1"
       id="rect691"
       width="16"
       height="16"
       x="0"
       y="0" /><path
       d="m 9.2946435,13.13483 c 1.4789905,0.425409 2.6281695,0.5618 3.7946425,0.5618 h 0.580357 l -0.267857,1.797751 h -0.334821 c -2.265246,0 -4.7475898,-0.720594 -5.8258934,-1.19101 C 7.2180096,14.316275 5.9793439,15 4.6964287,15 3.1338639,15 3,13.790684 3,13.561797 3,13.139067 3.300904,12 4.8303572,12 c 0.3443906,0 1.0342188,-0.01124 2.388393,0.460673 1.3036228,-0.737314 3.8169648,-2.407999 3.8169648,-5.9550552 0,-3.638854 -2.9497996,-3.7078651 -4.1294649,-3.7078651 -1.2202456,0 -2.3214286,0.1573034 -3.3035715,0.4719101 L 3.1116072,1.5393257 C 3.8055983,1.3323166 5.2007545,0.99999993 7.0401786,0.99999993 8.4749623,0.99999993 13,1.3961123 13,6.3932583 13,8.0773796 12.464154,10.938516 9.2946435,13.13483 Z"
       id="path298"
       style="fill:#f57900;stroke-width:0.999995"
       inkscape:transform-center-x="4.6651784"
       inkscape:transform-center-y="2.0706255"
       sodipodi:nodetypes="csccscssscssccssc" /></g></svg>
