<?xml version="1.0" encoding="UTF-8" standalone="no"?>
<!-- Created with Inkscape (http://www.inkscape.org/) -->

<svg
   width="16"
   height="16"
   viewBox="0 0 16 16"
   version="1.1"
   id="svg5"
   inkscape:version="1.2.2 (732a01da63, 2022-12-09)"
   sodipodi:docname="112B0.svg"
   inkscape:export-filename="..\0000.png"
   inkscape:export-xdpi="96"
   inkscape:export-ydpi="96"
   xml:space="preserve"
   xmlns:inkscape="http://www.inkscape.org/namespaces/inkscape"
   xmlns:sodipodi="http://sodipodi.sourceforge.net/DTD/sodipodi-0.dtd"
   xmlns="http://www.w3.org/2000/svg"
   xmlns:svg="http://www.w3.org/2000/svg"><sodipodi:namedview
     id="namedview7"
     pagecolor="#ffffff"
     bordercolor="#666666"
     borderopacity="1.0"
     inkscape:pageshadow="2"
     inkscape:pageopacity="0"
     inkscape:pagecheckerboard="0"
     inkscape:document-units="px"
     showgrid="true"
     width="16mm"
     units="px"
     inkscape:zoom="48.75"
     inkscape:cx="7.6615385"
     inkscape:cy="8"
     inkscape:window-width="1680"
     inkscape:window-height="998"
     inkscape:window-x="-8"
     inkscape:window-y="-8"
     inkscape:window-maximized="1"
     inkscape:current-layer="layer1"
     showguides="true"
     inkscape:guide-bbox="true"
     inkscape:snap-bbox="true"
     inkscape:bbox-paths="true"
     inkscape:bbox-nodes="true"
     inkscape:snap-global="true"
     inkscape:showpageshadow="2"
     inkscape:deskcolor="#ffffff"><inkscape:grid
       type="xygrid"
       id="grid828"
       originx="0"
       originy="0" /></sodipodi:namedview><defs
     id="defs2" /><g
     inkscape:label="Layer 1"
     inkscape:groupmode="layer"
     id="layer1"><path
       d="m 12.60912,11.077418 c 0,1.263999 0.568225,1.664518 1.485343,1.664518 0.01051,0 0.465791,-0.0054 1.03583,-0.193549 L 14.934854,14 c -0.324596,0.137771 -0.71849,0.193548 -1.211726,0.193548 -1.154317,0 -2.79479,-0.263748 -2.79479,-2.690322 0,-2.409214 0.410423,-3.8102903 0.410423,-5.690323 0,-2.0501998 -0.770077,-2.1677418 -1.309444,-2.1677418 -1.9381752,0 -2.661656,3.4488966 -2.9315972,5.9806448 L 6.6482083,14 H 4.9869706 l 0.4299673,-3.812904 c 0,-3.8316381 -0.1766018,-6.5419348 -1.5635178,-6.5419348 -0.5040977,0 -1.041422,0.17219 -1.4071663,3.2709676 L 1,6.6258063 C 1.4260351,2.8813422 2.4906091,2 3.9706839,2 4.9794891,2 6.1150096,2.2878471 6.5309445,5.6580643 7.6392442,2.0401033 9.5843182,2 10.283387,2 11.303683,2 13,2.1580707 13,5.5419354 13,7.5468256 12.60912,9.458813 12.60912,11.077418 Z"
       id="path437"
       style="fill:#f57900;stroke-width:0.999997"
       inkscape:transform-center-x="-2.7147446"
       inkscape:transform-center-y="-5.903226" /></g></svg>
