<?xml version="1.0" encoding="UTF-8" standalone="no"?>
<!-- Created with Inkscape (http://www.inkscape.org/) -->

<svg
   width="16"
   height="16"
   viewBox="0 0 16 16"
   version="1.1"
   id="svg5"
   inkscape:version="1.2.2 (732a01da63, 2022-12-09)"
   sodipodi:docname="119A0.svg"
   inkscape:export-filename="..\0000.png"
   inkscape:export-xdpi="96"
   inkscape:export-ydpi="96"
   xml:space="preserve"
   xmlns:inkscape="http://www.inkscape.org/namespaces/inkscape"
   xmlns:sodipodi="http://sodipodi.sourceforge.net/DTD/sodipodi-0.dtd"
   xmlns="http://www.w3.org/2000/svg"
   xmlns:svg="http://www.w3.org/2000/svg"><sodipodi:namedview
     id="namedview7"
     pagecolor="#ffffff"
     bordercolor="#666666"
     borderopacity="1.0"
     inkscape:pageshadow="2"
     inkscape:pageopacity="0"
     inkscape:pagecheckerboard="0"
     inkscape:document-units="px"
     showgrid="true"
     width="16mm"
     units="px"
     inkscape:zoom="22.627417"
     inkscape:cx="6.0325047"
     inkscape:cy="3.1377863"
     inkscape:window-width="1680"
     inkscape:window-height="998"
     inkscape:window-x="-8"
     inkscape:window-y="-8"
     inkscape:window-maximized="1"
     inkscape:current-layer="layer1"
     showguides="true"
     inkscape:guide-bbox="true"
     inkscape:snap-bbox="true"
     inkscape:bbox-paths="true"
     inkscape:bbox-nodes="true"
     inkscape:snap-global="true"
     inkscape:showpageshadow="2"
     inkscape:deskcolor="#ffffff"><inkscape:grid
       type="xygrid"
       id="grid828"
       originx="0"
       originy="0" /></sodipodi:namedview><defs
     id="defs2" /><g
     inkscape:label="Layer 1"
     inkscape:groupmode="layer"
     id="layer1"><path
       d="M 15,9.3054665 C 15,10.816598 14.304751,13.463022 9.2389379,13.463022 H 9.0117995 V 15 H 7.40118 V 13.463022 H 7.1740411 c -2.0419495,0 -5.8672563,-0.408499 -5.8672563,-4.1575555 C 1.3067848,7.7755379 2.1107285,5 7.1740411,5 H 7.40118 V 3.3376208 H 1 V 2 H 9.0117995 V 5 H 9.2389379 C 11.286131,5 15,5.5214672 15,9.3054665 Z m -1.693215,0 c 0,-1.1033282 -0.556837,-2.8424438 -4.0678471,-2.8424438 H 9.0117995 V 12 H 9.2389379 C 10.664605,12 13.306785,11.773234 13.306785,9.3054665 Z M 3,9.3054665 C 3,10.287067 3.5897313,12 7.1740411,12 H 7.40118 V 6.4630227 H 7.1740411 C 6.4147891,6.4630227 3,6.4930057 3,9.3054665 Z"
       id="path317"
       style="fill:#f57900;stroke-width:1"
       sodipodi:nodetypes="ssccccsssccccccssssccssssccss" /></g></svg>
