<?xml version="1.0" encoding="UTF-8" standalone="no"?>
<!-- Created with Inkscape (http://www.inkscape.org/) -->

<svg
   width="16"
   height="16"
   viewBox="0 0 16 16"
   version="1.1"
   id="svg5"
   inkscape:version="1.2.2 (732a01da63, 2022-12-09)"
   sodipodi:docname="12000.svg"
   inkscape:export-filename="..\0000.png"
   inkscape:export-xdpi="96"
   inkscape:export-ydpi="96"
   xmlns:inkscape="http://www.inkscape.org/namespaces/inkscape"
   xmlns:sodipodi="http://sodipodi.sourceforge.net/DTD/sodipodi-0.dtd"
   xmlns="http://www.w3.org/2000/svg"
   xmlns:svg="http://www.w3.org/2000/svg">
  <sodipodi:namedview
     id="namedview7"
     pagecolor="#ffffff"
     bordercolor="#666666"
     borderopacity="1.0"
     inkscape:pageshadow="2"
     inkscape:pageopacity="0"
     inkscape:pagecheckerboard="0"
     inkscape:document-units="px"
     showgrid="true"
     width="16mm"
     units="px"
     inkscape:zoom="90.509668"
     inkscape:cx="7.0600193"
     inkscape:cy="14.18633"
     inkscape:window-width="1680"
     inkscape:window-height="998"
     inkscape:window-x="-8"
     inkscape:window-y="-8"
     inkscape:window-maximized="1"
     inkscape:current-layer="layer1"
     showguides="true"
     inkscape:guide-bbox="true"
     inkscape:snap-bbox="true"
     inkscape:bbox-paths="true"
     inkscape:bbox-nodes="true"
     inkscape:snap-global="true"
     inkscape:showpageshadow="2"
     inkscape:deskcolor="#ffffff">
    <inkscape:grid
       type="xygrid"
       id="grid828"
       originx="0"
       originy="0" />
  </sodipodi:namedview>
  <defs
     id="defs2" />
  <g
     inkscape:label="Layer 1"
     inkscape:groupmode="layer"
     id="layer1">
    <rect
       style="opacity:1;fill:#ffff83;stroke:none;stroke-width:4.4376;stroke-linejoin:bevel;stop-color:#000000;fill-opacity:1"
       id="rect691"
       width="16"
       height="16"
       x="0"
       y="0" />
    <path
       id="path1189"
       style="color:#000000;fill:#f57900;-inkscape-stroke:none"
       d="M 5.7539062,1.1367188 C 6.1694016,2.6838273 6.4774352,4.2646723 6.6953125,5.7128906 5.7090423,4.4174584 4.8886614,3.0955664 4.0976562,1.7695312 3.5025319,2.7217296 2.6756376,3.5486246 1.6152344,4.2519531 2.9180742,4.9902575 4.1536213,5.8410876 5.2675781,6.6386719 3.7451492,6.4312474 2.3051079,6.0930371 0.90039062,5.7285156 1.0302362,6.2803578 1.0957031,6.84929 1.0957031,7.4335938 c 0,0.5843039 -0.065467,1.1840163 -0.19531248,1.8007812 C 2.6339766,8.7544716 4.4153262,8.428797 6.0449219,8.2128906 4.6149957,9.3215417 3.1525524,10.255402 1.6796875,11.134766 2.7400906,11.827274 3.5669854,12.654168 4.1621094,13.617188 5.0171773,12.140564 5.9517096,10.742696 6.9003906,9.4941406 7.0212333,11.406509 7.0926278,13.283003 7.0957035,15 h 0.8222657 c 0.00467,-2.011247 0.093756,-4.087467 0.2167967,-5.8144531 1.5330442,1.2988761 2.9748881,2.6698431 4.3066401,3.9824221 L 13.015625,12.59375 C 11.501439,11.124084 10.156416,9.6199394 8.8808594,8.125 10.924461,7.9375954 12.956279,7.8936726 14.865234,7.8925782 V 7.0703125 c -1.938595,0.012315 -3.7907,-0.070565 -5.5898434,-0.1855469 1.2437424,-1.456001 2.5481234,-2.8324158 3.8046874,-4.09375 L 12.505859,2.2167969 C 11.09721,3.6414059 9.6797176,4.9371308 8.2636719,6.1621094 8.4916993,4.4192788 8.8499017,2.7532486 9.2597656,1.1367188 8.6430006,1.2665637 8.0413348,1.3300781 7.4570312,1.3300781 c -0.5843034,0 -1.1512824,-0.063514 -1.703125,-0.1933593 z"
       sodipodi:nodetypes="ccccccsccccccccccccccccccsc" />
  </g>
</svg>
