<?xml version="1.0" encoding="UTF-8" standalone="no"?>
<!-- Created with Inkscape (http://www.inkscape.org/) -->

<svg
   width="16"
   height="16"
   viewBox="0 0 16 16"
   version="1.1"
   id="svg5"
   inkscape:version="1.2.2 (732a01da63, 2022-12-09)"
   sodipodi:docname="16A70.svg"
   inkscape:export-filename="..\0000.png"
   inkscape:export-xdpi="96"
   inkscape:export-ydpi="96"
   xml:space="preserve"
   xmlns:inkscape="http://www.inkscape.org/namespaces/inkscape"
   xmlns:sodipodi="http://sodipodi.sourceforge.net/DTD/sodipodi-0.dtd"
   xmlns="http://www.w3.org/2000/svg"
   xmlns:svg="http://www.w3.org/2000/svg"><sodipodi:namedview
     id="namedview7"
     pagecolor="#ffffff"
     bordercolor="#666666"
     borderopacity="1.0"
     inkscape:pageshadow="2"
     inkscape:pageopacity="0"
     inkscape:pagecheckerboard="0"
     inkscape:document-units="px"
     showgrid="true"
     width="16mm"
     units="px"
     inkscape:zoom="45.254834"
     inkscape:cx="9.534893"
     inkscape:cy="9.0819027"
     inkscape:window-width="1680"
     inkscape:window-height="998"
     inkscape:window-x="-8"
     inkscape:window-y="-8"
     inkscape:window-maximized="1"
     inkscape:current-layer="layer1"
     showguides="true"
     inkscape:guide-bbox="true"
     inkscape:snap-bbox="true"
     inkscape:bbox-paths="true"
     inkscape:bbox-nodes="true"
     inkscape:snap-global="true"
     inkscape:showpageshadow="2"
     inkscape:deskcolor="#ffffff"><inkscape:grid
       type="xygrid"
       id="grid828"
       originx="0"
       originy="0" /></sodipodi:namedview><defs
     id="defs2" /><g
     inkscape:label="Layer 1"
     inkscape:groupmode="layer"
     id="layer1"><path
       fill="currentColor"
       d="m 3.2456748,10.543662 c 0,0.593667 0.1743223,3.273239 3.3217998,3.273239 2.4754129,0 2.8792863,-1.071143 3.0726649,-2.050705 0.332381,-1.641509 -0.083047,-2.3512149 -0.083047,-3.9830982 0,-0.6572901 0.1522641,-1.3014072 0.4567485,-1.9323935 0.909887,-1.8854847 3.98616,-1.5349486 3.98616,0.7098593 0,2.7520927 -5.6155565,3.9448444 -6.7923871,-0.078873 C 7.0692194,6.0084504 7,5.5220793 7,5.0225355 7,2.4101272 9.3985855,1.1394913 11.716263,1.0394365 L 12.339101,1 l 0.08304,1.1830985 -0.622838,0.039437 c -1.057324,0.06085 -3.5536314,0.4575633 -3.5536314,2.8000003 0,3.2341879 2.8682654,3.3615102 4.1972314,2.2676049 0.207613,-0.170879 0.311417,-0.4140847 0.311417,-0.7295766 0,-1.0227332 -1.368863,-0.9394706 -1.723182,0.039436 -0.152261,0.4206708 -0.228374,0.815036 -0.228374,1.1830975 0,1.698662 0.39852,2.5243664 0.04153,4.2197194 C 10.490174,13.726399 9.3030506,15 6.5674746,15 5.1280144,15 4.0069058,14.585916 3.2041524,13.757745 2.4013981,12.929576 2.0000001,11.858202 2.0000001,10.543662 V 2 h 1.2456747 z"
       id="path841"
       style="fill:#f57900;stroke-width:1"
       sodipodi:nodetypes="sscscscsccccscssscsssccs" /></g></svg>
