<?xml version="1.0" encoding="UTF-8" standalone="no"?>
<!-- Created with Inkscape (http://www.inkscape.org/) -->

<svg
   width="16"
   height="16"
   viewBox="0 0 16 16"
   version="1.1"
   id="svg5"
   inkscape:version="1.2.2 (732a01da63, 2022-12-09)"
   sodipodi:docname="1E290.svg"
   inkscape:export-filename="..\0000.png"
   inkscape:export-xdpi="96"
   inkscape:export-ydpi="96"
   xml:space="preserve"
   xmlns:inkscape="http://www.inkscape.org/namespaces/inkscape"
   xmlns:sodipodi="http://sodipodi.sourceforge.net/DTD/sodipodi-0.dtd"
   xmlns="http://www.w3.org/2000/svg"
   xmlns:svg="http://www.w3.org/2000/svg"><sodipodi:namedview
     id="namedview7"
     pagecolor="#ffffff"
     bordercolor="#666666"
     borderopacity="1.0"
     inkscape:pageshadow="2"
     inkscape:pageopacity="0"
     inkscape:pagecheckerboard="0"
     inkscape:document-units="px"
     showgrid="true"
     width="16mm"
     units="px"
     inkscape:zoom="64"
     inkscape:cx="12.195313"
     inkscape:cy="7.375"
     inkscape:window-width="1680"
     inkscape:window-height="998"
     inkscape:window-x="-8"
     inkscape:window-y="-8"
     inkscape:window-maximized="1"
     inkscape:current-layer="layer1"
     showguides="true"
     inkscape:guide-bbox="true"
     inkscape:snap-bbox="true"
     inkscape:bbox-paths="true"
     inkscape:bbox-nodes="true"
     inkscape:snap-global="true"
     inkscape:showpageshadow="2"
     inkscape:deskcolor="#ffffff"><inkscape:grid
       type="xygrid"
       id="grid828"
       originx="0"
       originy="0" /></sodipodi:namedview><defs
     id="defs2" /><g
     inkscape:label="Layer 1"
     inkscape:groupmode="layer"
     id="layer1"><rect
       style="opacity:1;fill:#ffff83;stroke:none;stroke-width:4.4376;stroke-linejoin:bevel;stop-color:#000000;fill-opacity:1"
       id="rect691"
       width="16"
       height="16"
       x="0"
       y="0" /><path
       d="m 9.7541045,11.395678 2.3452145,2.607911 c -10e-4,0.01785 -0.107476,1.705926 -0.112556,1.798561 -0.338409,0.162129 -0.338409,0.162129 -0.43152,0.197849 L 7.6903156,10.748195 c 0.1023697,-0.19632 0.1096825,-0.264303 0.18761,-0.41367 0.9420438,-0.3824743 4.0900574,-1.8467073 4.0900574,-4.3345294 0,-1.9870304 -1.879119,-3.1115076 -3.7711061,-3.1115076 -0.5448972,0 -3.1216704,0.133778 -3.846154,2.6258962 C 4.1505858,6.245806 4.156836,6.9652293 4.3696061,7.6726566 H 5.7392126 C 6.5403971,9.0096182 5.5622142,9.6510565 4.8761729,9.6510744 3.6496787,9.6510744 3,7.8233411 3,6.1618677 3,3.4757523 4.8330975,1 7.8405257,1 11.475705,1 12.999981,3.9438631 13,6.4316496 13,7.6541617 12.910184,9.5726739 9.7542209,11.395678 Z M 7.6998127,7.2873146 C 7.4282805,6.9749747 7.2833358,6.757901 6.742965,6.1362373 7.1383723,5.7172983 7.8674105,5.1193177 8.5408364,4.6982879 8.7652029,4.952484 9.0029712,5.2455667 9.591492,6.0112373 9.4193074,6.1185249 8.5950066,6.6498281 8,7.2873146 Z"
       id="path1453"
       style="fill:#f57900;stroke-width:1"
       sodipodi:nodetypes="ccccccssccccssccccccccc" /></g></svg>
