<?xml version="1.0" encoding="UTF-8" standalone="no"?>
<!-- Created with Inkscape (http://www.inkscape.org/) -->

<svg
   width="16"
   height="16"
   viewBox="0 0 16 16"
   version="1.1"
   id="svg5"
   inkscape:version="1.2.2 (732a01da63, 2022-12-09)"
   sodipodi:docname="1E2C0.svg"
   inkscape:export-filename="..\0000.png"
   inkscape:export-xdpi="96"
   inkscape:export-ydpi="96"
   xml:space="preserve"
   xmlns:inkscape="http://www.inkscape.org/namespaces/inkscape"
   xmlns:sodipodi="http://sodipodi.sourceforge.net/DTD/sodipodi-0.dtd"
   xmlns="http://www.w3.org/2000/svg"
   xmlns:svg="http://www.w3.org/2000/svg"><sodipodi:namedview
     id="namedview7"
     pagecolor="#ffffff"
     bordercolor="#666666"
     borderopacity="1.0"
     inkscape:pageshadow="2"
     inkscape:pageopacity="0"
     inkscape:pagecheckerboard="0"
     inkscape:document-units="px"
     showgrid="true"
     width="16mm"
     units="px"
     inkscape:zoom="32"
     inkscape:cx="11.953125"
     inkscape:cy="11.25"
     inkscape:window-width="1680"
     inkscape:window-height="998"
     inkscape:window-x="-8"
     inkscape:window-y="-8"
     inkscape:window-maximized="1"
     inkscape:current-layer="layer1"
     showguides="true"
     inkscape:guide-bbox="true"
     inkscape:snap-bbox="true"
     inkscape:bbox-paths="true"
     inkscape:bbox-nodes="true"
     inkscape:snap-global="true"
     inkscape:showpageshadow="2"
     inkscape:deskcolor="#ffffff"><inkscape:grid
       type="xygrid"
       id="grid828"
       originx="0"
       originy="0" /></sodipodi:namedview><defs
     id="defs2" /><g
     inkscape:label="Layer 1"
     inkscape:groupmode="layer"
     id="layer1"><path
       d="M 12.147982,6.0166669 C 11.934131,6.1424482 9.2582522,7.6733939 6.4406133,7.2222225 L 3.2023891,15 H 1.7451883 L 5.1250843,6.8722225 C 4.3213796,6.5436425 3,5.7151633 3,3.8194447 3,2.1797879 4.3713635,1 5.8941632,1 7.1533418,1 8.6840949,1.9157887 7.6954251,4.2472225 L 6.9465848,6.0166669 c 0.063863,0.00681 3.4415852,0.2639817 6.0716712,-2.0222222 h 1.457201 L 9.9014647,15 H 8.4442641 Z M 5.7322516,2.2638891 c -0.020779,0 -1.2750509,0.026223 -1.2750509,1.575 0,0.546875 0.1748177,1.3964689 1.1536177,1.8666667 L 6.3191789,3.9944447 C 7.015604,2.2845489 5.7918403,2.2638891 5.7322516,2.2638891 Z"
       id="path1504"
       style="fill:#f57900;stroke-width:1" /></g></svg>
