<?xml version="1.0" encoding="UTF-8" standalone="no"?>
<!-- Created with Inkscape (http://www.inkscape.org/) -->

<svg
   width="16"
   height="16"
   viewBox="0 0 16 16"
   version="1.1"
   id="svg5"
   inkscape:version="1.2.2 (732a01da63, 2022-12-09)"
   sodipodi:docname="A880.svg"
   inkscape:export-filename="..\0000.png"
   inkscape:export-xdpi="96"
   inkscape:export-ydpi="96"
   xml:space="preserve"
   xmlns:inkscape="http://www.inkscape.org/namespaces/inkscape"
   xmlns:sodipodi="http://sodipodi.sourceforge.net/DTD/sodipodi-0.dtd"
   xmlns="http://www.w3.org/2000/svg"
   xmlns:svg="http://www.w3.org/2000/svg"><sodipodi:namedview
     id="namedview7"
     pagecolor="#ffffff"
     bordercolor="#666666"
     borderopacity="1.0"
     inkscape:pageshadow="2"
     inkscape:pageopacity="0"
     inkscape:pagecheckerboard="0"
     inkscape:document-units="px"
     showgrid="true"
     width="16mm"
     units="px"
     inkscape:zoom="22.627417"
     inkscape:cx="2.6295533"
     inkscape:cy="10.208854"
     inkscape:window-width="1680"
     inkscape:window-height="998"
     inkscape:window-x="-8"
     inkscape:window-y="-8"
     inkscape:window-maximized="1"
     inkscape:current-layer="layer1"
     showguides="true"
     inkscape:guide-bbox="true"
     inkscape:snap-bbox="true"
     inkscape:bbox-paths="true"
     inkscape:bbox-nodes="true"
     inkscape:snap-global="true"
     inkscape:showpageshadow="2"
     inkscape:deskcolor="#ffffff"><inkscape:grid
       type="xygrid"
       id="grid828"
       originx="0"
       originy="0" /></sodipodi:namedview><defs
     id="defs2" /><g
     inkscape:label="Layer 1"
     inkscape:groupmode="layer"
     id="layer1"><rect
       style="opacity:1;fill:#ffff83;stroke:none;stroke-width:4.4376;stroke-linejoin:bevel;stop-color:#000000;fill-opacity:1"
       id="rect691"
       width="16"
       height="16"
       x="0"
       y="0" /><path
       fill="currentColor"
       d="m 8.2816303,12.13218 c 0,1.908356 -1.2033723,3.01322 -2.8928561,3.01322 C 2.9641477,15.1454 2,12.592909 2,9.2445085 2,2.6239171 4.0724215,1 6.3599475,1 7.6011748,1 8.956637,2.0583543 10.079333,3.134365 c 0.275505,-1.4926534 1.164024,-2.23899106 2.665559,-2.23899106 0.778185,0 2.479593,0.27913746 2.479593,2.72026956 0,1.1767527 -0.389211,2.7411945 -2.458927,2.7411945 -0.454591,0 -0.874739,-0.111594 -1.260461,-0.3348025 V 14.998925 H 9.9966803 V 4.8711525 L 8.9428546,3.9085956 C 7.9785623,3.0297394 7.1382703,2.5903113 6.4219372,2.5903113 c -2.3184175,0 -2.9135195,2.9057916 -2.9135195,6.6541972 0.7025508,-0.2371448 1.3224488,-0.3557277 1.8596932,-0.3557277 0.7509814,0 2.9135194,0.2590912 2.9135194,3.2433992 z M 12.744892,2.42291 c -0.958215,0 -1.239795,0.5631189 -1.239795,1.7995628 v 0.1883265 c 0.42705,0.3069087 0.80587,0.4603532 1.136481,0.4603532 0.253913,0 1.115814,-0.086132 1.115814,-1.255509 0,-0.7951556 -0.337491,-1.1927335 -1.0125,-1.1927335 z m -9.153821,8.411909 c 0.1192172,1.041313 0.5110519,2.803971 1.7977032,2.803971 0.749165,0 1.3637751,-0.522577 1.3637751,-1.50661 0,-1.076605 -0.3285542,-1.715862 -1.4051017,-1.715862 -0.3779517,0 -1.1342391,0.13499 -1.7563766,0.418501 z"
       id="path140"
       style="fill:#f57900;stroke-width:0.999998"
       inkscape:transform-center-x="1.4469074"
       inkscape:transform-center-y="-6.9452845" /></g></svg>
