<?xml version="1.0" encoding="UTF-8" standalone="no"?>
<!-- Created with Inkscape (http://www.inkscape.org/) -->

<svg
   width="16"
   height="16"
   viewBox="0 0 16 16"
   version="1.1"
   id="svg5"
   inkscape:version="1.2.2 (732a01da63, 2022-12-09)"
   sodipodi:docname="AA80.svg"
   inkscape:export-filename="..\0000.png"
   inkscape:export-xdpi="96"
   inkscape:export-ydpi="96"
   xml:space="preserve"
   xmlns:inkscape="http://www.inkscape.org/namespaces/inkscape"
   xmlns:sodipodi="http://sodipodi.sourceforge.net/DTD/sodipodi-0.dtd"
   xmlns="http://www.w3.org/2000/svg"
   xmlns:svg="http://www.w3.org/2000/svg"><sodipodi:namedview
     id="namedview7"
     pagecolor="#ffffff"
     bordercolor="#666666"
     borderopacity="1.0"
     inkscape:pageshadow="2"
     inkscape:pageopacity="0"
     inkscape:pagecheckerboard="0"
     inkscape:document-units="px"
     showgrid="true"
     width="16mm"
     units="px"
     inkscape:zoom="32"
     inkscape:cx="10"
     inkscape:cy="9.875"
     inkscape:window-width="1680"
     inkscape:window-height="998"
     inkscape:window-x="-8"
     inkscape:window-y="-8"
     inkscape:window-maximized="1"
     inkscape:current-layer="layer1"
     showguides="true"
     inkscape:guide-bbox="true"
     inkscape:snap-bbox="true"
     inkscape:bbox-paths="true"
     inkscape:bbox-nodes="true"
     inkscape:snap-global="true"
     inkscape:showpageshadow="2"
     inkscape:deskcolor="#ffffff"><inkscape:grid
       type="xygrid"
       id="grid828"
       originx="0"
       originy="0" /></sodipodi:namedview><defs
     id="defs2" /><g
     inkscape:label="Layer 1"
     inkscape:groupmode="layer"
     id="layer1"><rect
       style="opacity:1;fill:#ffff83;fill-opacity:1;stroke:none;stroke-width:1.2;stroke-linejoin:bevel;stroke-dasharray:none;stop-color:#000000"
       id="rect691"
       width="16"
       height="16"
       x="-0.015625"
       y="0" /><path
       d="m 12.187854,13.91699 c 0,0.685421 -0.715624,1.070682 -1.355925,1.070682 -0.36265,0 -1.0907885,-0.113849 -1.5839081,-0.943219 -1.3267288,0.689006 -1.6850645,0.815757 -2.4718603,0.815757 -0.4762942,0 -1.3799226,-0.157296 -1.3799226,-1.351096 0,-1.102886 0.5639684,-2.320901 0.5639684,-4.0277962 0,-0.2878973 -0.1899504,-0.84125 -0.6839614,-0.84125 -1.9123802,0 -2.448834,2.4535172 -2.8918369,5.7867712 L 1.2324725,14.758241 C 1.50964,12.318746 2.2991356,9.5167509 3.9383203,8.3022949 4.4142973,7.9496455 4.9402636,7.7733274 5.5162312,7.7733274 c 1.4357674,0 1.4999159,1.3733125 1.4999159,1.6187666 0,1.348662 -0.5639684,3.068966 -0.5639684,4.142511 0,0.437132 0.346785,0.446118 0.5159707,0.446118 0.492675,0 0.5407902,-0.02019 1.9798884,-0.624566 -0.1439922,-0.450361 -0.2159892,-0.998448 -0.2159892,-1.644258 0,-3.2706205 1.5708434,-7.5448012 5.7236794,-10.4263844 l 0.275981,0.4588632 c -2.555986,1.7995331 -4.9437199,5.552994 -4.9437199,9.7380912 0,0.594828 0.035994,1.104672 0.1079941,1.529544 0.3039788,-0.08497 0.6239668,-0.12747 0.9599468,-0.12747 0.487975,0 0.83195,0.110468 1.031942,0.3314 0.199994,0.22093 0.299982,0.454621 0.299982,0.70104 z m -0.863951,0.03823 c 0,-0.127469 -0.06,-0.382385 -0.539969,-0.382385 -0.18196,0 -0.425368,0.01622 -0.70796,0.101975 0.16799,0.416379 0.403978,0.62456 0.70796,0.62456 0.461973,0 0.539969,-0.280788 0.539969,-0.344146 z"
       id="path25442"
       style="fill:#f57900;stroke:#f57900;stroke-width:0.400001;stroke-linecap:butt;stroke-dasharray:none" /></g></svg>
