<?xml version="1.0" encoding="UTF-8" standalone="no"?>
<!-- Created with Inkscape (http://www.inkscape.org/) -->

<svg
   width="16"
   height="16"
   viewBox="0 0 16 16"
   version="1.1"
   id="svg5"
   inkscape:version="1.2.2 (732a01da63, 2022-12-09)"
   sodipodi:docname="AAE0.svg"
   inkscape:export-filename="..\0000.png"
   inkscape:export-xdpi="96"
   inkscape:export-ydpi="96"
   xml:space="preserve"
   xmlns:inkscape="http://www.inkscape.org/namespaces/inkscape"
   xmlns:sodipodi="http://sodipodi.sourceforge.net/DTD/sodipodi-0.dtd"
   xmlns="http://www.w3.org/2000/svg"
   xmlns:svg="http://www.w3.org/2000/svg"><sodipodi:namedview
     id="namedview7"
     pagecolor="#ffffff"
     bordercolor="#666666"
     borderopacity="1.0"
     inkscape:pageshadow="2"
     inkscape:pageopacity="0"
     inkscape:pagecheckerboard="0"
     inkscape:document-units="px"
     showgrid="true"
     width="16mm"
     units="px"
     inkscape:zoom="32"
     inkscape:cx="11.078125"
     inkscape:cy="9.8125"
     inkscape:window-width="1680"
     inkscape:window-height="998"
     inkscape:window-x="-8"
     inkscape:window-y="-8"
     inkscape:window-maximized="1"
     inkscape:current-layer="layer1"
     showguides="true"
     inkscape:guide-bbox="true"
     inkscape:snap-bbox="true"
     inkscape:bbox-paths="true"
     inkscape:bbox-nodes="true"
     inkscape:snap-global="true"
     inkscape:showpageshadow="2"
     inkscape:deskcolor="#ffffff"><inkscape:grid
       type="xygrid"
       id="grid828"
       originx="0"
       originy="0" /></sodipodi:namedview><defs
     id="defs2" /><g
     inkscape:label="Layer 1"
     inkscape:groupmode="layer"
     id="layer1"><path
       d="M 11.063075,2 C 13.78625,2 15,3.9747386 15,7.4954952 15,9.0729168 15.017362,13.763171 10,14 v -1.36937 c 2.778862,-0.175587 3.491459,-2.201874 3.491459,-5.1351348 0,-0.9889153 0,-4.1801799 -2.39159,-4.1801799 -0.821732,0 -1.5330646,0.3363423 -2.1340346,1.0090089 1.5183326,2.049766 2.0420496,2.6211173 2.0420496,3.9027026 C 11.007884,10.901874 8.5369304,11 8.101183,11 7.6672049,11 5,10.970686 5,8.2409912 5,7.0956325 5.6849447,6.216126 7.236531,4.3243242 6.6846256,3.6516576 5.9855454,3.3153153 5.1392903,3.3153153 c -2.6307489,0 -2.6307489,3.3218734 -2.6307489,4.3063063 0,1.9947026 0.1400165,4.9085224 3.4914586,5.0090084 V 14 C 4.1712207,13.955782 1,13.124313 1,7.5855852 1,5.6176034 1.5021585,2 5.1944809,2 5.6265916,2 7.0069126,2 8.101183,3.3153153 9.2987383,2.0667405 10.302568,2 11.063075,2 Z M 8.101183,5.4414413 c -1.3077031,1.7526398 -1.6110383,2.140667 -1.6110383,2.8175676 0,0.345175 0.2392513,1.4256754 1.5926412,1.4256754 0.4790905,0 1.434954,-0.1908011 1.434954,-1.5117111 0,-0.6466432 -0.1206754,-0.9770635 -1.4165569,-2.7315319 z"
       id="path37009"
       style="fill:#f57900;stroke-width:1"
       sodipodi:nodetypes="ssccsscssscssccsscscsssc" /></g></svg>
