<?xml version="1.0" encoding="UTF-8" standalone="no"?>
<!-- Created with Inkscape (http://www.inkscape.org/) -->

<svg
   width="16"
   height="16"
   viewBox="0 0 16 16"
   version="1.1"
   id="svg5"
   inkscape:version="1.2.2 (732a01da63, 2022-12-09)"
   sodipodi:docname="FB50.svg"
   inkscape:export-filename="..\0000.png"
   inkscape:export-xdpi="96"
   inkscape:export-ydpi="96"
   xml:space="preserve"
   xmlns:inkscape="http://www.inkscape.org/namespaces/inkscape"
   xmlns:sodipodi="http://sodipodi.sourceforge.net/DTD/sodipodi-0.dtd"
   xmlns="http://www.w3.org/2000/svg"
   xmlns:svg="http://www.w3.org/2000/svg"><sodipodi:namedview
     id="namedview7"
     pagecolor="#ffffff"
     bordercolor="#666666"
     borderopacity="1.0"
     inkscape:pageshadow="2"
     inkscape:pageopacity="0"
     inkscape:pagecheckerboard="0"
     inkscape:document-units="px"
     showgrid="true"
     width="16mm"
     units="px"
     inkscape:zoom="32"
     inkscape:cx="13.046875"
     inkscape:cy="5.8125"
     inkscape:window-width="1680"
     inkscape:window-height="998"
     inkscape:window-x="-8"
     inkscape:window-y="-8"
     inkscape:window-maximized="1"
     inkscape:current-layer="layer1"
     showguides="true"
     inkscape:guide-bbox="true"
     inkscape:snap-bbox="true"
     inkscape:bbox-paths="true"
     inkscape:bbox-nodes="true"
     inkscape:snap-global="true"
     inkscape:showpageshadow="2"
     inkscape:deskcolor="#ffffff"><inkscape:grid
       type="xygrid"
       id="grid828"
       originx="0"
       originy="0" /></sodipodi:namedview><defs
     id="defs2" /><g
     inkscape:label="Layer 1"
     inkscape:groupmode="layer"
     id="layer1"><rect
       style="opacity:1;fill:#ffff83;fill-opacity:1;stroke:none;stroke-width:1.2;stroke-linejoin:bevel;stroke-dasharray:none;stop-color:#000000"
       id="rect691"
       width="16"
       height="16"
       x="0"
       y="0" /><path
       style="fill:#f57900;stroke:none;stroke-width:0.999994"
       d="M 7.6986191,2.9877301 C 7.2732698,2.7259632 6.8151835,2.3251534 6.3243861,1.7852762 7.0052477,1.104415 7.3429112,0.7444395 7.625,0.4110431 7.9194786,0.8036812 8.3693676,1.2617671 8.9746929,1.7852762 8.5002634,2.3415215 8.074889,2.7423314 7.6986191,2.9877301 Z M 10.766104,3.5030674 C 10.299775,4.1558896 9.887557,4.603001 9.4409502,5 8.9010729,4.5746501 8.4184471,4.1247361 7.9930977,3.6503068 8.2350694,3.4352474 8.7240938,2.9549939 9.4164106,2.1533743 Z M 7.2569013,3.8220859 C 6.9687738,4.2382821 6.5549042,4.7536907 5.9562884,5.3190183 5.6024007,5.0396367 5.0202734,4.5544957 4.4838957,3.9693251 4.8765332,3.6093988 5.3509628,3.1104294 5.9072081,2.4723927 6.0708159,2.6687117 6.5207049,3.1186012 7.2569013,3.8220859 Z M 7.5385688,14.229944 C 6.5778235,14.700982 4.5852421,14.999999 2.2208595,14.999999 2.0736202,14.999999 2,14.927806 2,14.78342 v -1.395721 c 0,-0.144385 0.073625,-0.216579 0.2208595,-0.216579 0.9252539,0 2.2731111,-0.0329 2.7901029,-0.09626 C 4.405637,12.417123 4,11.727275 4,11.00535 4,10.256963 4.2466448,8.837412 4.4417178,8.5026741 4.7519895,7.9526754 6.1187065,6 8.4220046,6 c 1.4421498,0 2.5766874,2.3874068 2.5766874,4.307489 0,1.010695 -0.351731,1.925134 -1.055215,2.743317 0.26572,0.03257 1.302137,0.120315 2.835663,0.120315 0.14724,5e-6 0.22086,0.06418 0.22086,0.19252 v 1.443849 c 0,0.12833 -0.07361,0.192512 -0.220859,0.192512 -2.028638,0 -3.9154184,-0.256694 -5.2405722,-0.770055 z M 10.041637,11.053473 C 9.8764008,9.7031278 8.7456964,8.0454505 8.2011466,8.0454505 c -0.9433478,0 -2.5194463,1.2733347 -3.2931709,2.7433165 0.6871161,0.770054 1.6326306,1.347593 2.6305937,1.732622 0.932515,-0.3369 1.7668711,-0.826197 2.5030676,-1.467916 z"
       id="path1795" /></g></svg>
