<?xml version="1.0" encoding="UTF-8" standalone="no"?>
<!-- Created with Inkscape (http://www.inkscape.org/) -->

<svg
   width="24"
   height="24"
   viewBox="0 0 6.3499998 6.3499998"
   version="1.1"
   id="svg5"
   inkscape:version="1.2.2 (732a01da63, 2022-12-09)"
   sodipodi:docname="sort_tech3.svg"
   inkscape:export-filename="D:\Projects\Unicodia\Bitmaps\Buttons\sort_AZ.png"
   inkscape:export-xdpi="96"
   inkscape:export-ydpi="96"
   xmlns:inkscape="http://www.inkscape.org/namespaces/inkscape"
   xmlns:sodipodi="http://sodipodi.sourceforge.net/DTD/sodipodi-0.dtd"
   xmlns="http://www.w3.org/2000/svg"
   xmlns:svg="http://www.w3.org/2000/svg">
  <sodipodi:namedview
     id="namedview7"
     pagecolor="#ffffff"
     bordercolor="#666666"
     borderopacity="1.0"
     inkscape:pageshadow="2"
     inkscape:pageopacity="0.0"
     inkscape:pagecheckerboard="0"
     inkscape:document-units="px"
     showgrid="true"
     units="px"
     inkscape:zoom="23.375"
     inkscape:cx="14.417112"
     inkscape:cy="13.518717"
     inkscape:window-width="1680"
     inkscape:window-height="998"
     inkscape:window-x="-8"
     inkscape:window-y="-8"
     inkscape:window-maximized="1"
     inkscape:current-layer="layer1"
     inkscape:snap-bbox="true"
     inkscape:bbox-paths="true"
     inkscape:bbox-nodes="true"
     inkscape:snap-global="true"
     inkscape:showpageshadow="2"
     inkscape:deskcolor="#d1d1d1"
     showguides="true">
    <inkscape:grid
       type="xygrid"
       id="grid824"
       originx="0"
       originy="0"
       spacingx="0.26458332"
       spacingy="0.26458332"
       empspacing="4" />
    <sodipodi:guide
       position="0,5.2916665"
       orientation="0,-1"
       id="guide10649"
       inkscape:locked="false" />
    <sodipodi:guide
       position="0,1.0583333"
       orientation="0,-1"
       id="guide10651"
       inkscape:locked="false" />
    <sodipodi:guide
       position="1.0583333,6.3499998"
       orientation="1,0"
       id="guide10653"
       inkscape:locked="false" />
    <sodipodi:guide
       position="5.2916665,6.3499998"
       orientation="1,0"
       id="guide10655"
       inkscape:locked="false" />
  </sodipodi:namedview>
  <defs
     id="defs2" />
  <g
     inkscape:label="Layer 1"
     inkscape:groupmode="layer"
     id="layer1">
    <path
       style="color:#000000;opacity:0.23127;fill:#4e9a06;stroke-width:0.994424;stroke-linecap:round;stroke-linejoin:round;-inkscape-stroke:none"
       d="m 1.5905993,4.6358926 -0.5529378,0.062529 c 0.040079,0.3388188 0.317827,0.5916951 0.6872964,0.5916951 h 1.1585856 c 0.072064,0 0.143573,-0.00991 0.212907,-0.027905 l -0.072347,-0.503846 c -0.019942,0.00407 -0.040486,0.0062 -0.061494,0.0062 H 1.804023 c -0.1019887,0 -0.17935,-0.05041 -0.2134236,-0.1286744 z"
       id="path2064" />
    <path
       id="rect1080"
       style="fill:#4e9a06;stroke-width:0.529166;stroke-linecap:round;stroke-linejoin:round;stop-color:#000000"
       d="M 2.1043954,2.9104165 H 3.2185491 L 3.1389666,3.4395832 H 2.0248129 Z M 2.340941,1.0604003 c -0.3143473,0.00796 -0.6149272,0.197542 -0.7797973,0.4650879 l 0.5105632,0.1421102 c 0.0563,-0.051188 0.1308969,-0.082166 0.2108399,-0.082166 h 1.1580688 c 0.016077,0 0.031235,0.00171 0.045992,0.00413 l 0.238228,-0.501777 C 3.6607101,1.0696511 3.5920173,1.0604003 3.5196804,1.0604003 H 2.3610948 c -0.00686,0 -0.013303,-1.734e-4 -0.020154,0 z M 3.961514,1.2087118 3.6710924,1.8205606 c -4.398e-4,0.010371 -0.00148,0.020748 -0.0031,0.031522 L 3.4886746,3.043225 H 4.0219754 L 4.2012925,1.8520833 C 4.2409537,1.5883647 4.1428316,1.352959 3.961514,1.2087118 Z M 1.4562406,1.7704345 c -0.00691,0.026898 -0.01239,0.054059 -0.016539,0.081649 L 1.260384,3.043225 H 1.793168 L 1.9631834,1.9125447 Z M 1.2205972,3.3067748 1.0516154,4.4297036 1.5942178,4.3687254 1.753898,3.3067747 Z m 2.2288045,0 -0.1793172,1.1916585 c -0.00202,0.013428 -0.00513,0.026489 -0.00879,0.039274 l 0.087334,0.6175331 C 3.5840573,5.0125063 3.7624638,4.7705244 3.8033841,4.4984333 L 3.9827013,3.3067748 Z" />
    <path
       id="path2961"
       style="fill:#cc0000;stroke:none;stroke-width:0.264583px;stroke-linecap:butt;stroke-linejoin:miter;stroke-opacity:1"
       d="M 4.2333331,4.2333331 V 4.7624998 H 5.2916664 V 5.2916664 H 3.7041665 V 4.2333331 Z m 0,0 H 4.7624997 V 3.7041665 H 4.2333331 Z M 5.2916663,2.645833 H 3.7041664 v 0.5291667 h 1.0583332 v 0.5291666 h 0.5291667 z" />
  </g>
</svg>
