<?xml version="1.0" standalone="no"?>
<!DOCTYPE svg PUBLIC "-//W3C//DTD SVG 1.1//EN" "http://www.w3.org/Graphics/SVG/1.1/DTD/svg11.dtd" >
<svg xmlns="http://www.w3.org/2000/svg" xmlns:xlink="http://www.w3.org/1999/xlink" version="1.1" viewBox="-10 0 662 1000">
   <path fill="currentColor"
d="M606 1042q-27 -135 -58 -254.5t-63 -215.5t-63 -160.5t-58 -89.5q-11 3 -23 18.5t-29 53.5l-24 -22q7 -23 16 -50.5t19.5 -52t21.5 -40t20 -15.5q17 0 27 5t20 19.5t26 41.5q16 26 35.5 81.5t40.5 128.5t41.5 153t38 156t30.5 138t18 98zM357 1042q-27 -135 -58 -254.5
t-63 -215.5t-63 -160.5t-58 -89.5q-11 3 -23 18.5t-29 53.5l-24 -22q7 -23 16 -50.5t19.5 -52t21.5 -40t20 -15.5q17 0 27.5 5t20.5 19.5t25 41.5q15 26 34.5 81.5t40.5 128.5t42 153t38.5 156t30.5 138t18 98z" />
</svg>
