<?xml version="1.0" standalone="no"?>
<!DOCTYPE svg PUBLIC "-//W3C//DTD SVG 1.1//EN" "http://www.w3.org/Graphics/SVG/1.1/DTD/svg11.dtd" >
<svg xmlns="http://www.w3.org/2000/svg" xmlns:xlink="http://www.w3.org/1999/xlink" version="1.1" viewBox="-10 0 784 1000">
   <path fill="currentColor"
d="M112 363l26 -79h371l-26 79h-371zM112 561l26 -79h306l-26 79h-306zM112 759l26 -79h241l-26 79h-241zM180.815 967.612q0 15.8555 21.5801 28.4248q21.5811 12.5703 57.6543 12.5703q36.0723 0 60.5547 -17.6641t50.2803 -62.2939q-42.2139 -10.4922 -83.4482 -10.4922
q-41.2334 0 -73.875 14.6494q-32.7461 14.6963 -32.7461 34.8057zM403.003 855.333q8.47559 -18.5645 23.9971 -55.333l214 -635h-529l26 -79h626l-238 714q-20.7803 48.6631 -40.5029 85.4707q103.941 46.6484 198.174 129.579l-7.58691 8.65332
q-14.1221 16.0713 -44.5674 50.665q-88.2178 -77.6357 -184.729 -119.624q-36.4092 67.085 -79.1484 99.9736q-42.7393 32.8896 -120.321 32.8896q-77.5811 0 -122.289 -51.9805q-25.7119 -29.8945 -25.7119 -61.7607q0 -31.8652 21.9014 -63.957
q21.9023 -32.0908 64.9736 -51.4219q43.0713 -19.3301 100.856 -19.3301q57.7861 0 115.954 16.1758z" />
</svg>
