<?xml version="1.0" encoding="UTF-8" standalone="no"?>
<svg
   version="1.1"
   viewBox="-10 0 790 1000"
   id="svg4666"
   sodipodi:docname="Khoj_ShortI.svg"
   inkscape:version="1.2.1 (9c6d41e410, 2022-07-14)"
   xmlns:inkscape="http://www.inkscape.org/namespaces/inkscape"
   xmlns:sodipodi="http://sodipodi.sourceforge.net/DTD/sodipodi-0.dtd"
   xmlns="http://www.w3.org/2000/svg"
   xmlns:svg="http://www.w3.org/2000/svg">
  <defs
     id="defs4670" />
  <sodipodi:namedview
     id="namedview4668"
     pagecolor="#ffffff"
     bordercolor="#666666"
     borderopacity="1.0"
     inkscape:showpageshadow="2"
     inkscape:pageopacity="0.0"
     inkscape:pagecheckerboard="0"
     inkscape:deskcolor="#d1d1d1"
     showgrid="false"
     inkscape:zoom="0.236"
     inkscape:cx="394.0678"
     inkscape:cy="500"
     inkscape:window-width="1680"
     inkscape:window-height="998"
     inkscape:window-x="-8"
     inkscape:window-y="-8"
     inkscape:window-maximized="1"
     inkscape:current-layer="svg4666" />
  <path
     d="m 289,501 q 47,0 90,23 43,23 70,63 27,40 27,90 0,65 -57,94.5 Q 362,801 270,801 215,801 175,792.5 135,784 102,759 68,733 51.5,693 35,653 35,618 35,599 42.5,579.5 50,560 61.5,546 73,532 84,532 q 13,0 19,12.5 6,12.5 7,33.5 4,57 21,87 17,30 48,40.5 31,10.5 76,10.5 35,0 67.5,-5.5 Q 355,705 376.5,692 398,679 398,654 398,631 371.5,613.5 345,596 283,585 q -7,-4 -11.5,-16 -4.5,-12 -4.5,-24 0,-29 22,-44 z"
     id="path4795" />
  <path
     d="m 295,318 q 0,-29 21,-49.5 21,-20.5 52,-20.5 31,0 52.5,20.5 Q 442,289 442,318 442,346 420.5,366.5 399,387 368,387 337,387 316,366.5 295,346 295,318 Z"
     id="path4793" />
  <path
     d="m 35,318 q 0,-29 21,-49.5 21,-20.5 52,-20.5 31,0 52.5,20.5 Q 182,289 182,318 182,346 160.5,366.5 139,387 108,387 77,387 56,366.5 35,346 35,318 Z"
     id="path4791" />
</svg>
