<svg version="1.1" viewBox="0 0 36 36" xmlns="http://www.w3.org/2000/svg">
<path d="M32 5H4C1.791 5 0 6.791 0 9v4.5h36V9c0-2.209-1.791-4-4-4z" fill="#141414"/>
<path d="m0 27c0 2.21 1.79 4 4 4h28c2.21 0 4-1.79 4-4v-4.5h-36v4.5z" fill="#007A3D"/>
<path d="M0 13.5h36v9H0z" fill="#FFF"/>
<path d="m1.35 6h-1e-3c-0.828 0.733-1.35 1.8-1.35 3v18c0 1.19 0.522 2.26 1.35 3l16.1-12-16.1-12z" fill="#CE1126"/>
<path d="M6.627 19.338l1.056.976-.105-1.435L9 18.662l-1.187-.812.717-1.247-1.375.421-.528-1.338-.528 1.338-1.375-.421.716 1.247-1.186.812 1.421.217-.104 1.435z" fill="#FFF"/>
<rect x="35.7" y="13.5" width=".3" height="9" fill="#9a9996"/>
</svg>
