<?xml version="1.0" encoding="UTF-8" standalone="no"?>
<svg
   version="1.1"
   viewBox="0 0 36 36"
   id="svg6"
   sodipodi:docname="1f1e8-1f1eb.svg"
   inkscape:version="1.4 (86a8ad7, 2024-10-11)"
   xmlns:inkscape="http://www.inkscape.org/namespaces/inkscape"
   xmlns:sodipodi="http://sodipodi.sourceforge.net/DTD/sodipodi-0.dtd"
   xmlns="http://www.w3.org/2000/svg"
   xmlns:svg="http://www.w3.org/2000/svg">
  <defs
     id="defs6" />
  <sodipodi:namedview
     id="namedview6"
     pagecolor="#ffffff"
     bordercolor="#666666"
     borderopacity="1.0"
     inkscape:showpageshadow="2"
     inkscape:pageopacity="0.0"
     inkscape:pagecheckerboard="0"
     inkscape:deskcolor="#d1d1d1"
     inkscape:zoom="14.8296"
     inkscape:cx="10.485785"
     inkscape:cy="17.229055"
     inkscape:window-width="1680"
     inkscape:window-height="998"
     inkscape:window-x="-8"
     inkscape:window-y="-8"
     inkscape:window-maximized="1"
     inkscape:current-layer="svg6" />
  <path
     d="M 32,5 H 21 L 18,7 15,5 H 4 C 1.791,5 0,6.791 0,9 v 2.5 L 3,14 h 30 l 3,-2.5 V 9 C 36,6.791 34.209,5 32,5 Z"
     fill="#003082"
     id="path1"
     sodipodi:nodetypes="scccssccccss" />
  <path
     d="M 0,11.5 H 36 V 18 l -3,3 H 3 L 0,18 Z"
     fill="#ffffff"
     id="path2"
     sodipodi:nodetypes="ccccccc" />
  <path
     d="m 0,18 h 36 v 6.5 L 33,27 H 3 L 0,24.5 Z"
     fill="#289728"
     id="path3"
     sodipodi:nodetypes="ccccccc" />
  <path
     d="M 0,24.5 V 27 c 0,2.21 1.79,4 4,4 h 11 l 3,-2 3,2 h 11 c 2.21,0 4,-1.79 4,-4 v -2.5 z"
     fill="#ffce00"
     id="path4"
     sodipodi:nodetypes="csscccsscc" />
  <path
     d="m15 5h6v26h-6z"
     fill="#D21034"
     id="path5" />
  <path
     d="M 6.88,7.61 6.2,5.52 5.519,7.61 h -2.2 L 5.099,8.9 4.419,10.99 6.199,9.7 7.979,10.99 7.298,8.9 9.078,7.61 Z"
     fill="#ffce00"
     id="path6"
     sodipodi:nodetypes="ccccccccccc" />
</svg>
