<?xml version="1.0" encoding="UTF-8" standalone="no"?>
<svg
   version="1.1"
   viewBox="0 0 36 36"
   id="svg1"
   sodipodi:docname="1f1e8-1f1f6.svg"
   inkscape:version="1.3.2 (091e20e, 2023-11-25, custom)"
   xmlns:inkscape="http://www.inkscape.org/namespaces/inkscape"
   xmlns:sodipodi="http://sodipodi.sourceforge.net/DTD/sodipodi-0.dtd"
   xmlns:xlink="http://www.w3.org/1999/xlink"
   xmlns="http://www.w3.org/2000/svg"
   xmlns:svg="http://www.w3.org/2000/svg">
  <defs
     id="defs1" />
  <sodipodi:namedview
     id="namedview1"
     pagecolor="#ffffff"
     bordercolor="#666666"
     borderopacity="1.0"
     inkscape:showpageshadow="2"
     inkscape:pageopacity="0.0"
     inkscape:pagecheckerboard="0"
     inkscape:deskcolor="#d1d1d1"
     inkscape:zoom="43.388888"
     inkscape:cx="11.81178"
     inkscape:cy="11.535212"
     inkscape:window-width="1680"
     inkscape:window-height="998"
     inkscape:window-x="-8"
     inkscape:window-y="-8"
     inkscape:window-maximized="1"
     inkscape:current-layer="svg1"
     showguides="true">
    <sodipodi:guide
       position="15,15"
       orientation="1,0"
       id="guide2"
       inkscape:locked="false" />
    <sodipodi:guide
       position="4,27"
       orientation="0,-1"
       id="guide3"
       inkscape:locked="false" />
    <sodipodi:guide
       position="21,21"
       orientation="0,-1"
       id="guide1"
       inkscape:locked="false" />
  </sodipodi:namedview>
  <path
     id="rect1"
     style="fill:#ffffff;stroke:#9a9996;stroke-width:0.3"
     d="m 21,5.1500001 h 11.000001 c 2.1329,0 3.85,1.7171 3.85,3.8499999 v 18.000001 c 0,2.1329 -1.7171,3.85 -3.85,3.85 H 3.9999999 c -2.1328999,0 -3.84999989,-1.7171 -3.84999989,-3.85 V 21 Z"
     sodipodi:nodetypes="csssssscc" />
  <path
     id="path1"
     d="M 4 5 A 4 4 0 0 0 0 9 L 0 21 L 15 21 L 15 31 L 21 31 L 21 21 L 36 21 L 36 15 L 21 15 L 21 5 L 4 5 z "
     fill="#ce1124" />
  <g
     transform="matrix(0.04754631,0,0,0.04754631,1.0446735,6.0719181)"
     id="g99">
    <g
       id="a"
       transform="matrix(1.592747,0,0,1.5927517,828.52742,452.60597)">
      <path
         d="m -481.65455,-206.15121 c -0.31155,1.47169 0.23122,1.49964 0.85436,2.55119 0.62305,1.05034 -0.37182,4.27908 -0.37182,4.27908 2.86738,0.27137 6.51291,-4.21441 3.02176,-6.28472 z"
         fill="#085d98"
         stroke="#080808"
         stroke-width="0.905477"
         id="path4" />
      <path
         d="m -303.35602,-207.96618 c 0,0 -0.28055,0.24132 0.89888,1.76702 1.17943,1.5257 1.80884,5.01242 1.80884,5.01242 2.29251,-1.62797 3.35026,-7.16495 1.7451,-7.22789 z"
         fill="#085d98"
         stroke="#080808"
         stroke-width="0.905477"
         id="path5" />
      <path
         d="m -321.45804,-211.75699 c -0.87273,-0.9738 -5.36075,1.40299 -3.52513,6.27332 1.90373,-3.92971 4.09809,-2.78935 4.09809,-2.78935 z"
         fill="#085d98"
         stroke="#080808"
         stroke-width="0.905477"
         id="path6" />
      <path
         d="m -391.45171,-208.1292 c -1.72907,0.55404 -0.88765,4.58895 1.9808,4.87328 -0.99497,-3.10151 2.58596,-5.47711 0.18875,-5.47711 z"
         fill="#085d98"
         stroke="#080808"
         stroke-width="0.905477"
         id="path7" />
      <path
         d="m -399.69727,-213.2151 c -1.50665,-0.60766 -4.2264,2.09266 -1.94234,5.73675 2.3006,-3.2959 4.25414,-3.49413 4.25414,-3.49413 z"
         fill="#085d98"
         stroke="#080808"
         stroke-width="0.905477"
         id="path8" />
      <path
         d="m -400.39736,-218.64371 c -0.77545,-1.00155 -4.47278,-1.47969 -4.35621,4.1425 2.68188,-2.41878 4.86072,-0.76809 4.85398,-0.72102 z"
         fill="#085d98"
         stroke="#080808"
         stroke-width="0.905477"
         id="path9" />
      <path
         d="m -394.00985,-222.60579 c 0.33087,-1.51996 -2.52349,-3.96941 -5.66809,-1.08534 3.12364,0.71954 3.96506,2.33809 3.91402,2.34538 z"
         fill="#085d98"
         stroke="#080808"
         stroke-width="0.905477"
         id="path10" />
      <path
         d="m -374.4893,-242.35616 c -0.2091,8.65599 5.85685,5.31489 11.24597,6.98807 2.79714,0.93927 4.4173,3.41506 4.26875,5.74217 -0.14851,2.32711 -0.84598,3.52235 -1.19019,5.57661 -0.21562,1.28674 0.50542,1.99328 1.6464,3.2997 1.14097,1.30643 1.92504,3.59873 1.5163,5.43445 -0.54888,2.46505 -2.21948,5.5044 -4.93994,5.74431 0.0924,-1.14694 -0.11434,0.73336 0.0428,-0.51911 0,0 -0.29456,1.04398 -1.22571,1.59125 -0.93119,0.54727 -3.16071,1.93868 -6.84871,1.12918 0,0 0.96059,-0.51362 0.031,0.0193 -1.09938,0.74184 -7.19252,0.63226 -5.64578,-0.19742 0.44553,0.83873 0,0 -0.26353,0.13531 -0.75418,0.45717 -5.04138,0.85265 -5.04138,-0.44739 -1.11796,0.95499 -3.19417,0.66511 -4.16048,0.16816 -0.76375,-0.62357 -0.90567,0.69795 -2.35363,0.91405 -1.44804,0.21609 -4.59148,-0.2161 -4.75301,-1.94891 -0.38961,-0.81697 -0.061,0.6441 0.0119,-0.43335 -4.31022,2.77959 -7.92043,-0.54752 -8.2871,-2.89908 -0.143,-0.91694 -0.0702,-1.88716 0.41267,-2.75328 0,0 -1.85396,0.1523 -1.63414,-3.24463 0.21987,-3.39693 2.46019,-3.61491 4.82854,-3.23094 1.12665,0.21609 0.28571,-0.3058 0.48288,-1.29946 0.26857,-1.35399 1.65346,-1.66475 3.24334,-0.89068 2.09292,0.86611 3.67868,3.48961 4.32249,5.43851 0.64321,1.9489 5.48358,1.2222 7.7262,1.10218 2.73562,-0.14641 3.02971,-2.53663 0.96568,-4.7839 -2.06403,-2.24726 -7.31302,-6.92683 -7.31302,-6.92683 -1.9958,-1.75942 -2.4132,-4.87754 0.15796,-6.41383 2.57115,-1.53629 5.52517,-4.99186 5.29205,-7.32277 z"
         fill="#fcd41c"
         stroke="#080808"
         stroke-width="1.24739"
         id="path11" />
      <path
         d="m -457.90236,-233.441 c -0.7339,2.14726 -0.0175,5.30477 -2.52932,6.51444 -2.52536,-0.17772 -2.60747,-4.06725 -3.10309,-3.21481 l 1.06172,-0.75301 0.24606,-0.41459 0.529,-0.25663 z"
         fill="#fcd41c"
         stroke="#080808"
         stroke-width="1.08657"
         id="path12" />
      <path
         d="m -314.47578,-210.04786 c -1.68954,-0.22449 -4.88442,5.19659 -2.22457,8.91374 1.33672,-4.30821 4.98916,-6.1829 4.98916,-6.1829 z"
         fill="#085d98"
         stroke="#080808"
         stroke-width="0.905477"
         id="path13" />
      <path
         d="m -318.33825,-218.4945 c -0.60154,-1.28408 -4.84104,-0.22491 -5.68004,3.80237 2.85778,-1.65966 5.41112,-0.29249 5.41112,-0.29249 z"
         fill="#085d98"
         stroke="#080808"
         stroke-width="0.905477"
         id="path14" />
      <path
         d="m -475.41804,-221.83582 c 0.4678,-1.36637 -3.17004,-5.14745 -6.50899,-3.6847 3.10078,2.00029 3.91676,5.43764 3.91676,5.43764 z"
         fill="#085d98"
         stroke="#080808"
         stroke-width="0.905477"
         id="path15" />
      <path
         d="m -488.95819,-212.25363 c -1.14518,-1.38872 -6.18406,0.8918 -5.572,7.42866 2.93144,-3.95484 6.3823,-2.49085 6.3823,-2.49085 z"
         fill="#085d98"
         stroke="#080808"
         stroke-width="0.905477"
         id="path16" />
      <path
         d="m -488.555,-220.46123 c -0.46343,-1.83324 -5.74945,-1.58243 -7.55714,3.44717 3.75083,-1.40361 6.53427,1.06059 6.53427,1.06059 z"
         fill="#085d98"
         stroke="#080808"
         stroke-width="0.905477"
         id="path17" />
      <path
         d="m -492.27074,-271.89421 c 0.24197,-2.02167 -4.77639,-4.76749 -8.30842,-0.95666 4.01153,0.76949 5.70035,4.70724 5.70035,4.70724 l 2.60807,-3.75057 z"
         fill="#085d98"
         stroke="#080808"
         stroke-width="0.905477"
         id="path18" />
      <path
         d="m -499.99889,-264.01636 c -0.53749,-1.58094 -6.38203,-0.56089 -7.05711,4.59065 3.8606,-2.45398 6.12985,-0.0514 6.12985,-0.0514 z"
         fill="#085d98"
         stroke="#080808"
         stroke-width="0.905477"
         id="path19" />
      <path
         d="m -482.67069,-272.85041 c 0.63305,-1.57651 -1.97327,-5.5004 -5.6167,-3.71791 3.02923,2.18284 2.15507,5.92503 2.15507,5.92503 z"
         fill="#085d98"
         stroke="#080808"
         stroke-width="0.905477"
         id="path20" />
      <path
         d="m -476.06757,-267.22197 c 1.03763,-0.608 0.96953,-5.24128 -3.02478,-5.57858 0.63452,1.98248 0.10065,5.32487 0.10065,5.32487 z"
         fill="#085d98"
         stroke="#080808"
         stroke-width="0.905477"
         id="path21" />
      <path
         d="m -452.61106,-248.01214 c 0,0 4.13928,14.2936 15.0697,2.32837"
         fill="none"
         stroke="#080808"
         stroke-width="0.362191"
         id="path22" />
      <path
         d="m -384.91883,-240.99575 c -2.73562,0.43277 -8.60048,2.76118 -12.02079,5.55046 -7.21245,5.88184 -19.76204,14.05825 -21.37093,15.35771 -1.61008,1.29946 -3.95057,1.61489 -4.91629,0.0993 -0.96571,-1.51672 -1.61008,-0.43335 -1.44911,1.73281 1.27889,8.179 -2.80884,10.82675 -7.10696,10.73227 -1.15752,-0.0255 -2.7395,-0.64038 -3.69185,-1.41065 -0.93896,4.57107 -5.09349,5.02475 -8.8459,4.57397 -0.0575,-0.53907 0.28646,-1.16121 0.28646,-1.16121 -1.24051,1.57074 -5.05277,1.40461 -8.3258,1.16702 -0.21792,-0.95615 0.4264,-0.85881 0.38088,-1.45381 -1.09879,2.01047 -2.70113,1.68543 -5.7627,1.47224 -0.0361,-0.42347 0.39786,-0.91329 0.39786,-0.91329 -1.33989,1.42493 -3.78825,0.85362 -5.95384,0.88847 -0.0783,-0.38359 -0.67806,-0.14091 -0.67806,-0.14091 -0.86384,0.26038 -2.7022,0.53534 -5.13854,0.19726 -1.20959,-0.45035 -0.18728,-1.07524 0.0713,-1.74385 0.28162,-0.68613 -2.91008,1.17928 -3.54092,-0.86611 -0.12712,-0.88876 0,0 -0.67341,1.67297 -0.41998,1.04334 -0.99477,1.71306 -2.60426,2.14525 -1.61008,0.43335 -5.59756,-0.1731 -6.43858,-1.08221 -0.86753,-0.89748 -1.28822,-2.81502 -0.64385,-3.89897 0.64385,-1.0822 -3.06503,2.08948 -4.66753,2.38284 -4.7146,0.88417 -5.33424,-7.42414 -3.12261,-8.44941 l 0.51387,-0.23822 c -2.3495,-0.98421 -1.46312,-4.25815 -0.289,-6.25532 1.17415,-1.99717 4.80127,-1.68228 6.9209,-0.43335 1.24055,0.82835 3.89593,3.66777 3.38054,1.51555 -0.35905,-1.33025 -0.36064,-3.1085 1.58627,-3.74852 6.50102,-2.13717 5.82843,5.4933 9.35895,6.34745 3.53052,0.85415 6.7766,-2.27749 12.25197,-2.52573 5.47541,-0.24825 14.32385,-2.41538 14.29905,-2.75403 -7.21313,2.42756 -8.75276,-0.98677 -9.55695,-0.77068 -2.82781,0.34499 -3.5083,-2.05268 -3.49782,-2.03045 -2.55464,1.0108 -5.28788,-0.46697 -6.60225,-1.71807 0.91861,-0.71761 4.14151,-2.6963 3.36617,-5.60871 -3.00184,0.78154 -5.33808,2.46997 -6.54204,5.03578 -0.70509,-0.90509 -1.61163,0.80265 -3.96411,-0.0895 -2.35248,-0.89218 -3.63637,-3.06326 -6.08552,-1.65231 -2.61859,-3.31808 -1.94362,-2.55868 -4.93562,-3.35143 -1.81551,-0.48103 -2.93616,-2.90957 -2.66212,-3.3798 0.27408,-0.47023 -2.82627,0.42986 -3.48833,-3.15943 0.183,-0.29644 -0.68787,0.0432 -2.35704,-0.71564 -2.03216,-1.23211 -2.27854,-2.83529 -2.43892,-3.9175 -1.0389,0.097 -3.25441,-1.81239 -2.25385,-2.38283 -1.69204,-1.22104 -3.13131,-3.23036 -2.00406,-3.88097 -0.98719,-0.75632 -0.43426,-0.79338 -0.99009,-1.61953 -1.02616,-1.22104 -0.7083,-2.51237 0.097,-2.51237 0.80474,0 0.92345,-2.88295 -0.38386,-2.88295 -1.30734,0 -2.57782,0.22872 -3.38717,-0.58209 -1.63417,-1.63725 -2.01485,-4.69114 -1.16256,-6.84167 0.71596,-1.80669 3.48623,-3.71337 4.64883,-3.51835 1.16261,0.19555 0.58103,0.58613 0.29051,-1.17279 -0.29051,-1.75891 1.64037,-3.08005 2.90573,-3.51834 1.53336,-0.68155 4.30649,0.10855 5.37511,0.58665 1.03164,0.46155 1.16213,0.78168 1.16213,-0.58665 0,-0.9615 0.83118,-1.8179 1.83015,-2.07008 1.66287,-0.38218 2.99573,0.0618 3.83552,1.09232 0.8255,1.01299 1.45308,2.73667 0.29055,3.90945 -1.16213,1.17226 0,0 1.73522,-0.2118 2.02208,-0.24681 2.9358,0.37968 3.78515,1.38458 1.05565,1.249 1.06359,3.43032 -0.43576,4.88669 -1.32204,1.28414 -3.19576,4.10447 -2.17893,5.08171 1.45379,1.56982 7.86555,6.73772 9.22834,7.52451 1.36279,0.7868 10.3909,0.92194 3.18226,-1.27011 1.33433,-2.29466 3.76353,-2.18805 5.16005,-2.21782 0.45295,-3.55543 4.69733,-2.64918 2.5937,-5.66921 v -2e-5 c -2.10364,-3.02003 -1.05867,-9.73956 3.40804,-8.01429 -1.24992,-2.88046 0.71731,-4.50072 2.57961,-3.41331 -0.56594,-2.39736 1.42141,-3.85675 3.26374,-1.77405 -0.45263,-2.67387 3.03447,-4.17354 4.28097,-1.64028 0.13097,-2.69265 3.40214,-3.9909 4.67706,-0.53053 0.9515,-2.89731 4.87676,-3.3506 5.22073,0.85914 1.53491,-2.38379 4.96387,-2.10173 4.32133,1.7446 3.04304,-1.35953 5.00626,1.19655 3.77389,4.33799 2.83356,-0.58915 5.32038,2.03677 2.79423,5.88386 5.46747,-1.95106 5.74136,5.39768 2.91918,8.94114 1.45959,0.86669 0.8557,0.83398 2.14332,1.48341 1.28814,0.64945 4.4456,1.21645 6.49165,1.44837 2.04605,0.23192 6.8522,0.0497 10.46234,-0.43277 3.61013,-0.48245 8.98525,-2.64699 15.12589,-3.31459 6.14065,-0.66761 75.60795,0.87403 77.70091,0.65736 2.09292,-0.21726 4.87192,-3.34633 4.71098,-5.72858 -0.16097,-2.38226 -2.57111,-4.10868 -4.98538,-4.32535 -2.41427,-0.2161 -14.8086,-0.2161 -17.06253,0.21667 -2.2533,0.43219 -5.33714,0.65483 -7.0818,3.0317 -1.74466,2.37686 -1.35981,2.90277 -2.72375,3.66033 -1.3639,0.75755 -3.63514,-0.22866 -4.06027,-0.12953 l -1.17289,0.2735 c -0.90424,0.35839 -3.10118,0.39671 -4.70249,0 l -0.12192,-0.12463 c -3.28882,0.88307 -7.79367,0.64483 -8.64076,0.21142 -0.61869,-0.45297 0.59789,-1.01739 -1.11332,-0.18032 -1.08307,0.46239 -5.56875,0.8243 -5.89069,-0.0651 -0.043,-0.70056 -0.55138,-0.35725 -1.18416,-0.158 -4.07749,0.78942 -4.75444,-0.61572 -6.82438,-0.21307 -2.0699,0.40265 3.73658,-3.97304 2.79483,-3.87552 -1.29984,0.13461 -4.29149,0.29956 -12.0725,1.25091 -7.78097,0.95134 -19.5549,2.12753 -26.30575,-0.86285 -2.29342,-1.0159 -4.20977,-3.77315 -4.1448,-6.28065 0.0776,-2.99586 2.80614,-5.62768 5.33404,-7.23733 4.05765,-2.58368 8.97985,-2.89084 14.14815,-2.84373 4.47199,0.0408 9.92748,1.1783 13.59877,0.67834 3.67133,-0.49996 4.72384,-2.83465 11.02947,-3.46446 6.30567,-0.6298 11.94911,2.03446 15.43229,5.48875 -0.95742,0.23605 0.45565,0.039 0.45565,0.039 4.73543,-1.97736 8.2454,-3.72185 15.1251,-1.99881 -1.50256,4.76015 -11.46036,9.7573 -16.68962,10.52166 -5.22923,0.76435 -8.90536,0.33375 -12.47743,0.0274 -1.61009,-0.11734 -5.05198,0.68079 -11.99809,-2.23355 -6.94607,-2.91433 -10.98804,-4.48071 -16.5691,-4.55283 -4.63343,-0.0599 -12.30173,1.20119 -12.30578,5.71674 -0.004,4.51554 9.74923,3.60723 13.492,3.66989 3.74277,0.0627 17.46437,-1.4754 26.96726,-2.56366 3.21961,0 2.11285,0.34437 6.60607,0.34553 4.49318,10e-4 7.33826,-0.44352 11.05182,-1.801 3.71351,-1.35748 3.26219,-1.62502 6.8043,-1.62502 3.54147,0 29.81884,-0.98403 33.35976,-0.76736 5.126,-0.0342 9.77063,5.36375 9.45011,10.04252 -0.32051,4.67877 -1.72529,6.56296 -2.46916,7.44778 4.11786,0.0269 10.71702,0.1194 10.71702,5.22328 -4.03126,-2.37957 -7.89809,-1.95121 -9.97422,-1.95121 -0.5334,0.006 -58.42088,-0.0583 -57.12163,-0.0662 12.2578,1.40809 21.10181,13.67765 23.96478,15.83694 2.86298,2.1593 7.24392,1.94891 9.17476,1.51614 1.93139,-0.43335 4.18529,-2.38283 5.79541,-3.89897 1.57654,-1.61614 3.06721,-2.14615 5.00443,-1.6449 1.93723,0.50124 3.66796,2.92595 2.24346,4.72961 0,0 1.02699,-0.15351 2.73161,-0.15351 6.49843,-0.0765 5.11262,3.34885 5.11262,3.34885 0,0 4.48671,0.26351 3.23799,5.33982 l 0.0226,0.11392 c 2.65235,0.3175 4.14734,2.46641 4.27962,4.23529 l -0.004,0.90986 c 1.12367,1.06368 2.12293,5.91367 -0.90015,6.72633 -0.33818,0.0909 -1.04989,0.0396 -1.04989,0.0396 0.28646,1.51498 0.84665,4.82855 -2.81234,5.80825 -3.65899,0.9797 -6.09298,-1.35719 -6.4154,-3.30668 -0.64207,-3.4118 -0.14232,4.03628 -4.56815,4.93725 -4.1795,0.90387 -6.40144,-1.4139 -6.72275,-2.49669 -0.3225,-1.08337 0.19534,-1.05864 -1.76986,-0.43451 -1.96521,0.62413 -4.32685,-0.83961 -4.50779,-2.81502 -0.18097,-1.9754 0.31433,-3.51383 3.18183,-3.78453 0.35349,-0.40543 0.67742,0.67537 -0.1301,-1.22947 -0.80748,-1.90484 0.67675,-3.99806 2.87238,-4.20834 2.19564,-0.21028 6.64695,2.61373 7.91881,2.94228 0,0 1.90214,-1.12482 -1.03279,-3.05166 -2.93493,-1.92684 -9.46031,-3.60801 -14.74152,-3.44623 -5.28122,0.16178 -16.7009,3.60181 -20.13403,3.46319 -2.45256,-0.099 -7.33909,-0.33016 -9.96549,-8.22712 -2.13364,-8.06224 -9.43106,-11.25198 -13.58042,-12.27932 -5.25665,-1.37302 -11.26288,-1.74052 -16.52032,-0.93373 z"
         fill="#fcd41c"
         stroke="#080808"
         stroke-width="1.24739"
         id="path23" />
      <path
         d="m -449.25033,-251.14113 c 0.72632,1.15593 3.49242,2.00476 4.73544,0.75938 0.93964,-0.94147 1.41426,-0.81715 1.79728,0.5371 0.39613,1.40044 2.82298,0.6985 2.76166,1.71699 -0.16367,2.71867 -1.21952,5.11166 -2.56758,7.89206 -2.06903,4.26738 -8.60461,2.97945 -7.86194,0.46155 1.01723,-3.44881 0.79863,-9.51092 0.96663,-9.74224 z"
         fill="#085d98"
         stroke="#080808"
         stroke-width="1.31328"
         id="path24" />
      <path
         d="m -296.02713,-212.11598 c -0.70017,-1.88443 -2.80122,-2.35612 -2.80122,-2.35612"
         fill="none"
         stroke="#080808"
         stroke-linecap="round"
         stroke-width="1.13185"
         id="path25" />
      <path
         d="m -428.71474,-243.15171 c 1.58742,2.64856 2.05398,6.0465 0.2609,8.22739"
         fill="none"
         stroke="#080808"
         stroke-linecap="round"
         stroke-width="0.724382"
         id="path26" />
      <path
         d="m -435.0218,-237.41607 c 2.58949,2.73219 3.50548,5.22963 2.85147,8.75038"
         fill="none"
         stroke="#080808"
         stroke-linecap="round"
         stroke-width="0.724382"
         id="path27" />
      <path
         d="m -435.05562,-235.01702 c 0.91361,1.97688 1.99172,3.91013 1.16702,7.96885"
         fill="none"
         stroke="#080808"
         stroke-linecap="round"
         stroke-width="0.724382"
         id="path28" />
      <path
         d="m -441.51198,-233.36862 c 0.66834,2.1042 0.91901,5.57328 -1.58742,8.54381"
         fill="none"
         stroke="#080808"
         stroke-linecap="round"
         stroke-width="0.724382"
         id="path29" />
      <path
         d="m -444.88605,-225.70804 c 1.71922,-1.86653 2.27802,-4.88709 1.90528,-7.26236"
         fill="none"
         stroke="#080808"
         stroke-linecap="round"
         stroke-width="0.724382"
         id="path30" />
      <path
         d="m -458.15271,-239.835 c -2.0476,0.66687 -4.57863,3.53305 -4.4427,3.71428"
         fill="none"
         stroke="#080808"
         stroke-linecap="round"
         stroke-width="0.724382"
         id="path31" />
      <path
         d="m -456.61799,-236.14111 c -2.54032,-1.70841 -5.39734,1.28146 -5.39734,1.28146"
         fill="none"
         stroke="#080808"
         stroke-linecap="round"
         stroke-width="0.724382"
         id="path32" />
      <path
         d="m -421.66497,-260.34017 c -1.67458,0.73948 -1.42764,4.59779 -1.42764,4.59779"
         fill="none"
         stroke="#080808"
         stroke-linecap="round"
         stroke-width="0.905477"
         id="path33" />
      <path
         d="m -456.75424,-265.71055 c 1.78733,1.22686 1.07263,4.90741 1.07263,4.90741"
         fill="none"
         stroke="#080808"
         stroke-linecap="round"
         stroke-width="0.905477"
         id="path34" />
      <path
         d="m -496.93942,-267.87585 c 1.95139,0.58268 3.17694,2.21591 3.52742,3.76082 0.35044,1.5449 0.59512,2.43107 0.59512,2.43107"
         fill="none"
         stroke="#080808"
         stroke-linecap="round"
         stroke-width="1.24726"
         id="path35" />
      <path
         d="m -481.45443,-269.27531 c -1.9866,1.80568 -1.54388,4.90171 -1.54388,4.90171"
         fill="none"
         stroke="#080808"
         stroke-linecap="round"
         stroke-width="1.24726"
         id="path36" />
      <path
         d="m -424.45981,-220.36527 c 1.22539,-4.23067 6.04584,-7.54462 7.20753,-7.92583 0,0 1.24912,0.0466 -4.16417,3.94275 -1.40145,0.94279 -2.73383,3.0812 -1.74474,4.45476"
         fill="none"
         stroke="#080808"
         stroke-width="1.24726"
         id="path37" />
      <path
         d="m -431.25589,-236.01992 c 6.88502,11.34065 -4.99805,12.68879 -7.341,11.03457"
         fill="none"
         stroke="#080808"
         stroke-linecap="round"
         stroke-width="1.24726"
         id="path38" />
      <path
         d="m -421.38522,-250.81429 c 4.21644,1.77701 4.05944,5.75974 4.83231,7.98695 -1.29274,0.16574 -2.3439,-0.29707 -3.4723,-0.79606"
         fill="none"
         stroke="#080808"
         stroke-width="1.24726"
         id="path39" />
      <path
         d="m -424.87411,-237.04917 c 0,3.77001 -2.67922,5.31635 -3.90465,5.78804"
         fill="none"
         stroke="#080808"
         stroke-linecap="round"
         stroke-width="1.05839"
         id="path40" />
      <path
         d="m -487.16884,-272.44982 c 0.10784,1.52099 -0.2072,2.03708 -0.73306,3.36858 -0.52527,1.33151 0.1749,3.66287 0.1749,3.66287"
         fill="none"
         stroke="#080808"
         stroke-linecap="round"
         stroke-width="1.24726"
         id="path41" />
      <path
         d="m -309.00915,-232.51596 c -3.33335,0.46606 -4.61502,1.41911 -4.61363,1.41835"
         fill="none"
         stroke="#080808"
         stroke-linecap="round"
         stroke-width="1.13185"
         id="path42" />
      <path
         d="m -301.64525,-229.29654 c -2.45146,0.94163 -4.54124,0.98402 -4.54124,0.98402"
         fill="none"
         stroke="#080808"
         stroke-linecap="round"
         stroke-width="1.13185"
         id="path43" />
      <path
         d="m -298.54054,-223.81537 c -2.10169,-0.2341 -3.22473,-0.16943 -3.22473,-0.16943"
         fill="none"
         stroke="#080808"
         stroke-linecap="round"
         stroke-width="1.13185"
         id="path44" />
      <path
         d="m -294.05799,-218.60635 c -1.0982,-0.76114 -4.65856,-0.28383 -4.74365,-0.20465"
         fill="none"
         stroke="#080808"
         stroke-linecap="round"
         stroke-width="1.13185"
         id="path45" />
      <path
         d="m -316.66653,-207.73255 c 0.52582,-2.82721 2.77804,-3.9932 4.70364,-3.9932"
         fill="none"
         stroke="#080808"
         stroke-linecap="round"
         stroke-width="1.13185"
         id="path46" />
      <path
         d="m -319.44807,-213.97969 c 1.55896,-0.23871 3.80754,-0.0936 3.80754,-0.0936"
         fill="none"
         stroke="#080808"
         stroke-linecap="round"
         stroke-width="1.13185"
         id="path47" />
      <path
         d="m -463.2441,-250.69998 c -3.91184,2.5538 -5.23168,5.32553 -4.44968,10.73244"
         fill="none"
         stroke="#080808"
         stroke-linecap="round"
         stroke-width="1.24726"
         id="path48" />
      <path
         d="m -438.0217,-237.41942 c 2.0272,4.65497 2.3066,12.61966 -4.64713,15.21737"
         fill="none"
         stroke="#080808"
         stroke-linecap="round"
         stroke-width="1.23882"
         id="path49" />
      <path
         d="m -444.84537,-233.39708 c -0.35092,3.30703 -2.67915,9.4482 -7.21412,10.3575"
         fill="none"
         stroke="#080808"
         stroke-linecap="round"
         stroke-width="1.24726"
         id="path50" />
      <path
         d="m -340.36287,-257.37702 c 0.87622,-2.59254 3.86806,-4.88398 3.86806,-4.88398"
         fill="none"
         stroke="#080808"
         stroke-linecap="round"
         stroke-width="1.13185"
         id="path51" />
      <path
         d="m -345.86042,-257.40035 c 1.75189,-3.06306 4.38547,-5.07742 4.38547,-5.07742"
         fill="none"
         stroke="#080808"
         stroke-linecap="round"
         stroke-width="1.13185"
         id="path52" />
      <path
         d="m -355.03859,-257.42525 c 2.6637,-1.48986 3.78075,-2.48584 5.62781,-5.01812"
         fill="none"
         stroke="#080808"
         stroke-linecap="round"
         stroke-width="1.13185"
         id="path53" />
      <path
         d="m -362.18766,-257.51761 c 1.59365,-0.69972 2.4305,-1.31206 3.49929,-2.17442 1.04624,-0.8442 1.65469,-1.68696 2.80455,-2.89834"
         fill="none"
         stroke="#080808"
         stroke-linecap="round"
         stroke-width="1.13185"
         id="path54" />
      <path
         d="m -360.5921,-265.69894 c -6.09993,-0.558 -8.18821,-2.79593 -9.15321,-4.04658"
         fill="none"
         stroke="#080808"
         stroke-linecap="round"
         stroke-width="1.24726"
         id="path55" />
      <path
         d="m -349.49488,-274.49932 c -4.09992,1.66194 -5.73941,-0.0214 -6.08977,-0.0214"
         fill="none"
         stroke="#080808"
         stroke-linecap="round"
         stroke-width="1.24726"
         id="path56" />
      <path
         d="m -456.00744,-224.95539 c 3.34192,-1.54995 3.97855,-5.19565 3.97855,-5.19565"
         fill="none"
         stroke="#080808"
         stroke-linecap="round"
         stroke-width="1.24726"
         id="path57" />
      <path
         d="m -457.49596,-242.04197 c -3.08535,-0.47168 -10.89001,6.10056 -8.37232,14.2726"
         fill="none"
         stroke="#080808"
         stroke-linecap="round"
         stroke-width="1.34976"
         id="path58" />
      <path
         d="m -462.3988,-245.64567 c -4.38277,0.83153 -6.53002,7.77398 -3.85159,11.85472"
         fill="none"
         stroke="#080808"
         stroke-linecap="round"
         stroke-width="1.35822"
         id="path59" />
      <path
         d="m -423.26521,-248.66302 c 2.89655,3.85192 3.99938,6.20746 4.16671,7.54874 0.27313,2.33056 0.574,6.89181 -6.27198,6.79887 0.53043,-1.76626 1.01358,-5.11976 -0.0817,-6.9339"
         fill="none"
         stroke="#080808"
         stroke-linecap="round"
         stroke-width="1.13934"
         id="path60" />
      <path
         d="m -435.86318,-265.49165 c -0.55713,0.0266 -0.91785,0.17528 -0.9475,0.73225 -0.008,0.12592 -0.15831,0.5609 -0.22145,1.01216 -0.0631,0.45126 -0.0465,0.93761 0.01,1.48354 0.29047,1.29433 1.9608,1.46425 2.27116,0.39863 0.17883,-0.66804 0.26079,-1.23138 0.25197,-1.77351 -0.005,-0.27105 -0.0492,-0.59713 -0.0988,-0.84029 -0.14998,-0.62747 -0.63897,-1.02441 -1.26472,-1.01279 z"
         fill="#080808"
         id="path61" />
      <path
         d="m -446.07803,-264.81781 c 0.27214,-0.87237 0.4522,-2.81595 -1.39235,-2.42913 -0.0155,0.007 -0.031,0.0145 -0.047,0.0223 l -0.004,0.002 -0.004,0.002 c -0.47216,0.3228 -0.89821,1.26826 -1.01632,1.81471 -0.11803,0.54645 -0.55507,2.16942 0.9837,2.27583 l 0.004,-2.5e-4 0.004,-2.4e-4 c 0.0123,4e-4 0.0377,0.002 0.0377,0.002 0.74811,-0.17671 1.24464,-0.96984 1.43403,-1.68901 z"
         fill="#080808"
         id="path62" />
      <path
         d="m -426.35231,-256.77429 h -2.73153 c -1.93405,3.41871 -7.36385,2.2483 -5.90455,2.90089"
         fill="none"
         stroke="#080808"
         stroke-linecap="round"
         stroke-width="1.24726"
         id="path63" />
      <path
         d="m -435.19222,-254.04955 c 0.24186,4.51043 -7.90575,8.19151 -8.10637,1.1704"
         fill="none"
         stroke="#080808"
         stroke-linecap="round"
         stroke-width="1.24726"
         id="path64" />
      <path
         d="m -443.31089,-252.91987 c -0.1784,3.29891 -4.61133,3.7924 -6.21209,0.9646 -1.24579,-1.88501 -2.24528,-1.51307 -3.0509,-2.5713 -0.8757,-1.15029 -0.79867,-2.02096 -1.81137,-3.94067"
         fill="none"
         stroke="#080808"
         stroke-linecap="round"
         stroke-width="1.25709"
         id="path65" />
      <path
         d="m -431.12886,-254.58526 c -1.90472,5.12524 -0.45676,8.48444 -0.45676,8.48444"
         fill="none"
         stroke="#080808"
         stroke-linecap="round"
         stroke-width="1.24726"
         id="path66" />
      <path
         d="m -452.5324,-253.51937 c -1.10292,1.71584 -2.06534,1.85226 -2.06534,1.85226"
         fill="none"
         stroke="#080808"
         stroke-linecap="round"
         stroke-width="0.905477"
         id="path67" />
      <path
         d="m -421.41387,-253.96874 c 0,0 0.8305,0.66425 1.78657,0.57311 1.22341,-0.11662 2.26477,-0.2098 3.6399,0.35009 -0.76815,1.09975 -2.07439,2.20346 -3.63827,2.61499 -0.50046,0.13168 -1.46443,-0.3514 -1.71121,-0.4542"
         fill="#fcd41c"
         stroke="#080808"
         stroke-width="1.24726"
         id="path68" />
      <path
         d="m -495.58814,-249.83101 c 1.85928,0.39135 2.95553,-0.75855 2.87667,-0.69939"
         fill="none"
         stroke="#080808"
         stroke-linecap="round"
         stroke-width="0.905477"
         id="path69" />
      <path
         d="m -494.29342,-246.11592 c 3.28871,1.00321 5.68044,-0.92348 5.68044,-0.92348"
         fill="none"
         stroke="#080808"
         stroke-linecap="round"
         stroke-width="0.905477"
         id="path70" />
      <path
         d="m -490.13262,-214.38504 c 2.07467,-0.85975 4.88065,-0.0542 4.88065,-0.0542"
         fill="#085d98"
         stroke="#080808"
         stroke-linecap="round"
         stroke-width="1.24726"
         id="path71" />
      <path
         d="m -482.89207,-208.19881 c 1.05112,-1.88442 2.59711,-2.62869 2.59711,-2.62869"
         fill="#085d98"
         stroke="#080808"
         stroke-linecap="round"
         stroke-width="1.24726"
         id="path72" />
      <path
         d="m -463.80635,-204.61971 c 1.39243,-0.53177 1.48185,-3.39962 1.42145,-5.34947"
         fill="none"
         stroke="#080808"
         stroke-linecap="round"
         stroke-width="1.13185"
         id="path73" />
      <path
         d="m -457.38638,-205.30227 c 1.3025,-0.99639 0.87451,-4.64082 0.87451,-4.64082"
         fill="none"
         stroke="#080808"
         stroke-linecap="round"
         stroke-width="1.13185"
         id="path74" />
      <path
         d="m -452.27551,-205.25382 c 1.17797,-1.24749 0.9425,-4.92213 0.9425,-4.92213"
         fill="none"
         stroke="#080808"
         stroke-linecap="round"
         stroke-width="1.26767"
         id="path75" />
      <path
         d="m -444.12064,-205.33053 c 1.28663,-1.60055 0.7424,-5.03106 0.7424,-5.04355"
         fill="none"
         stroke="#080808"
         stroke-linecap="round"
         stroke-width="1.26767"
         id="path76" />
      <path
         d="m -388.55139,-213.03823 c -3.60121,2.11024 -3.56283,3.85383 -3.52405,4.35795"
         fill="none"
         stroke="#080808"
         stroke-linecap="round"
         stroke-width="1.08657"
         id="path77" />
      <path
         d="m -383.20727,-212.90343 c -0.35096,3.06306 -2.54191,5.05006 -2.54191,5.05006"
         fill="none"
         stroke="#080808"
         stroke-linecap="round"
         stroke-width="1.08657"
         id="path78" />
      <path
         d="m -378.75378,-212.70861 c -0.1108,2.91534 -2.20178,4.83259 -2.20178,4.83259"
         fill="none"
         stroke="#080808"
         stroke-linecap="round"
         stroke-width="1.08657"
         id="path79" />
      <path
         d="m -373.38688,-212.65944 c -0.009,3.44646 -2.01243,4.86667 -2.01243,4.86667"
         fill="none"
         stroke="#080808"
         stroke-linecap="round"
         stroke-width="1.08657"
         id="path80" />
      <path
         d="m -367.61409,-212.65093 c -0.14788,2.54507 -0.81879,3.95993 -1.86992,4.90156"
         fill="none"
         stroke="#080808"
         stroke-linecap="round"
         stroke-width="1.08657"
         id="path81" />
      <path
         d="m -361.70958,-213.49055 c 0.52586,1.64975 -0.25869,3.35909 -0.25869,3.35909"
         fill="none"
         stroke="#080808"
         stroke-linecap="round"
         stroke-width="1.08657"
         id="path82" />
      <path
         d="m -396.7752,-221.209 c 2.94775,0.63176 3.84255,2.08506 3.84255,2.08506"
         fill="none"
         stroke="#080808"
         stroke-linecap="round"
         stroke-width="1.08657"
         id="path83" />
      <path
         d="m -399.78069,-215.08318 c 1.89139,-3.64582 4.76976,-1.54461 5.66301,-0.62715"
         fill="none"
         stroke="#080808"
         stroke-linecap="round"
         stroke-width="1.08657"
         id="path84" />
      <path
         d="m -414.84753,-222.48613 c -2.50512,0.99915 -3.69011,0.68021 -5.02266,-0.20333"
         fill="none"
         stroke="#080808"
         stroke-linecap="round"
         stroke-width="0.792292"
         id="path85" />
      <path
         d="m -411.49255,-224.94738 c -2.59933,1.21854 -4.10639,1.14202 -5.46128,0.11469"
         fill="none"
         stroke="#080808"
         stroke-linecap="round"
         stroke-width="0.792292"
         id="path86" />
      <path
         d="m -407.02021,-227.96107 c -1.75768,0.99972 -2.75883,1.34187 -3.6316,0.5263"
         fill="none"
         stroke="#080808"
         stroke-linecap="round"
         stroke-width="0.792292"
         id="path87" />
      <path
         d="m -403.91859,-230.28232 c -2.15106,0.99972 -3.37645,1.34187 -4.44444,0.52629"
         fill="none"
         stroke="#080808"
         stroke-linecap="round"
         stroke-width="0.792292"
         id="path88" />
      <path
         d="m -452.02841,-254.17542 c 0,0 -0.72982,3.41016 -0.73894,5.05747 -0.0119,2.16239 1.02183,3.93375 1.02183,3.93375 0,0 1.96656,-1.87507 2.49249,-6.67708"
         fill="none"
         stroke="#080808"
         stroke-width="1.08657"
         id="path89" />
      <path
         d="m -439.45823,-249.44145 c 0,0 -0.52614,2.13909 -0.45537,3.22132 0.0727,1.11746 0.89737,3.23739 0.89737,3.23739 0.84118,-0.77782 2.56385,-2.98147 3.24945,-8.68852"
         fill="none"
         stroke="#080808"
         stroke-width="1.08657"
         id="path90" />
      <path
         d="m -492.23816,-243.91435 c 2.90262,0.44659 4.70007,-0.8937 4.85628,-0.99991"
         fill="none"
         stroke="#080808"
         stroke-linecap="round"
         stroke-width="0.905477"
         id="path91" />
      <path
         d="m -479.66937,-232.19252 c 0.0258,0.0468 2.825,0.30478 4.5928,-2.98775"
         fill="none"
         stroke="#080808"
         stroke-linecap="round"
         stroke-width="1.0413"
         id="path92" />
      <path
         d="m -484.94086,-236.28222 c 1.90579,0.38408 3.76202,0.52342 5.6438,-2.13078"
         fill="none"
         stroke="#080808"
         stroke-linecap="round"
         stroke-width="1.0413"
         id="path93" />
      <path
         d="m -489.45849,-239.90512 c 0.32842,-0.0566 3.37392,2.13706 6.63575,-1.71018"
         fill="none"
         stroke="#080808"
         stroke-linecap="round"
         stroke-width="1.0413"
         id="path94" />
      <path
         d="m -432.5297,-263.15112 c 0.087,2.55662 -6.15304,1.90447 -6.59912,0.14158 -0.62798,-2.132 3.68236,-2.63677 5.49199,-1.93414 0.95365,0.37028 1.07434,1.13544 1.10713,1.79255 z"
         fill="none"
         stroke="#080808"
         stroke-width="1.14814"
         id="path95" />
      <path
         d="m -444.00065,-264.96815 c -0.51575,-2.56947 -4.61821,-2.82205 -6.00199,-2.07063 -0.19257,0.10461 -0.45514,0.4625 -0.5411,0.64193 -0.81431,2.62617 3.7842,3.168 4.907,3.14028"
         fill="none"
         stroke="#080808"
         stroke-width="1.14814"
         id="path96" />
      <path
         d="m -445.91451,-259.27011 c 0,0 -0.82324,-2.92694 1.46347,-4.93922 2.28664,-2.01227 2.65252,-5.30508 2.65252,-5.30508"
         fill="none"
         stroke="#080808"
         stroke-linecap="round"
         stroke-width="1.26767"
         id="path97" />
      <path
         d="m -439.96917,-258.99571 c 0,0 1.00616,-1.18907 0.2744,-3.56721 -0.73172,-2.37814 1.73788,-4.48188 1.73788,-4.48188"
         fill="none"
         stroke="#080808"
         stroke-linecap="round"
         stroke-width="1.26767"
         id="path98" />
      <path
         d="m -441.00231,-259.19464 c 4.03288,0.4369 2.9441,4.07846 0.24812,3.06538 0.24813,4.00934 -4.69951,3.50396 -4.27593,0.43219 -2.49602,0.855 -3.81595,-3.36064 0.1255,-3.40754"
         fill="none"
         stroke="#080808"
         stroke-linecap="round"
         stroke-width="1.24726"
         id="path99" />
    </g>
    <use
       height="100%"
       transform="translate(0,140.87298)"
       width="100%"
       xlink:href="#a"
       id="use99" />
  </g>
</svg>
