<?xml version="1.0" encoding="UTF-8" standalone="no"?>
<svg
   viewBox="0 0 36 36"
   version="1.1"
   id="svg4"
   sodipodi:docname="1f1e8-1f1fc.svg"
   inkscape:version="1.4-beta3 (01c8a1c, 2024-08-28, custom)"
   xmlns:inkscape="http://www.inkscape.org/namespaces/inkscape"
   xmlns:sodipodi="http://sodipodi.sourceforge.net/DTD/sodipodi-0.dtd"
   xmlns="http://www.w3.org/2000/svg"
   xmlns:svg="http://www.w3.org/2000/svg">
  <defs
     id="defs4" />
  <sodipodi:namedview
     id="namedview4"
     pagecolor="#ffffff"
     bordercolor="#666666"
     borderopacity="1.0"
     inkscape:showpageshadow="2"
     inkscape:pageopacity="0.0"
     inkscape:pagecheckerboard="0"
     inkscape:deskcolor="#d1d1d1"
     inkscape:zoom="21.583333"
     inkscape:cx="18"
     inkscape:cy="18"
     inkscape:window-width="1680"
     inkscape:window-height="998"
     inkscape:window-x="-8"
     inkscape:window-y="-8"
     inkscape:window-maximized="1"
     inkscape:current-layer="svg4" />
  <path
     id="path1"
     d="M 4 5 C 1.791 5 0 6.791 0 9 L 0 21 L 3 23 L 0 25 L 0 27 C 0 29.209 1.791 31 4 31 L 32 31 C 34.209 31 36 29.209 36 27 L 36 25 L 33 23 L 36 21 L 36 9 C 36 6.791 34.209 5 32 5 L 4 5 z "
     fill="#002b7f" />
  <path
     fill="#F9E814"
     d="M0 21h36v4H0z"
     id="path2" />
  <path
     fill="#FFF"
     d="M8.599 12.176L8 10.333l-.599 1.843H5.464l1.567 1.139-.598 1.842L8 14.019l1.567 1.138-.598-1.842 1.567-1.139zM5.902 8.382H4.449L4 7l-.449 1.382H2.098l1.175.854-.449 1.382L4 9.764l1.176.854-.449-1.382z"
     id="path4" />
</svg>
