<?xml version="1.0" encoding="UTF-8" standalone="no"?>
<svg
   viewBox="0 0 36 36"
   version="1.1"
   id="svg4"
   sodipodi:docname="1f1e8-1f1f1.svg"
   inkscape:version="1.4-beta3 (01c8a1c, 2024-08-28, custom)"
   xmlns:inkscape="http://www.inkscape.org/namespaces/inkscape"
   xmlns:sodipodi="http://sodipodi.sourceforge.net/DTD/sodipodi-0.dtd"
   xmlns="http://www.w3.org/2000/svg"
   xmlns:svg="http://www.w3.org/2000/svg">
  <defs
     id="defs4" />
  <sodipodi:namedview
     id="namedview4"
     pagecolor="#ffffff"
     bordercolor="#666666"
     borderopacity="1.0"
     inkscape:showpageshadow="2"
     inkscape:pageopacity="0.0"
     inkscape:pagecheckerboard="0"
     inkscape:deskcolor="#d1d1d1"
     inkscape:zoom="14.829601"
     inkscape:cx="34.222095"
     inkscape:cy="28.490316"
     inkscape:window-width="1680"
     inkscape:window-height="998"
     inkscape:window-x="-8"
     inkscape:window-y="-8"
     inkscape:window-maximized="1"
     inkscape:current-layer="svg4" />
  <path
     id="rect1-3"
     style="fill:#ffffff;stroke:#77767b;stroke-width:0.2"
     d="M 5,27 12.9,5.0999999 h 19.099999 c 2.1606,0 3.9,1.7394 3.9,3.9000001 v 9.1 z"
     sodipodi:nodetypes="ccsscc" />
  <path
     fill="#1f429b"
     d="M 13,5 H 4 C 1.791,5 0,6.791 0,9 v 9 l 13,8 z"
     id="path1"
     sodipodi:nodetypes="cssccc" />
  <path
     fill="#D42D27"
     d="M0 18v9c0 2.209 1.791 4 4 4h28c2.209 0 4-1.791 4-4v-9H0z"
     id="path3" />
  <path
     fill="#FFF"
     d="M7.174 10.712L6.455 8.5l-.719 2.212H3.41l1.882 1.368-.719 2.212 1.882-1.367 1.882 1.367-.719-2.212L9.5 10.712z"
     id="path4" />
</svg>
