<?xml version="1.0" encoding="UTF-8" standalone="no"?>
<!-- Generator: Adobe Illustrator 25.2.3, SVG Export Plug-In . SVG Version: 6.00 Build 0)  -->

<svg
   version="1.1"
   id="Layer_2"
   x="0px"
   y="0px"
   viewBox="0 0 128 128"
   style="enable-background:new 0 0 128 128;"
   xml:space="preserve"
   sodipodi:docname="emoji_u2603.svg"
   inkscape:version="1.4 (86a8ad7, 2024-10-11)"
   xmlns:inkscape="http://www.inkscape.org/namespaces/inkscape"
   xmlns:sodipodi="http://sodipodi.sourceforge.net/DTD/sodipodi-0.dtd"
   xmlns="http://www.w3.org/2000/svg"
   xmlns:svg="http://www.w3.org/2000/svg"><defs
   id="defs19" /><sodipodi:namedview
   id="namedview19"
   pagecolor="#ffffff"
   bordercolor="#666666"
   borderopacity="1.0"
   inkscape:showpageshadow="2"
   inkscape:pageopacity="0.0"
   inkscape:pagecheckerboard="0"
   inkscape:deskcolor="#d1d1d1"
   showguides="true"
   inkscape:zoom="5.8984376"
   inkscape:cx="15.682119"
   inkscape:cy="92.990727"
   inkscape:window-width="1680"
   inkscape:window-height="998"
   inkscape:window-x="-8"
   inkscape:window-y="-8"
   inkscape:window-maximized="1"
   inkscape:current-layer="Layer_2"><sodipodi:guide
     position="37.88,76.67"
     orientation="0.02423189,0.99970636"
     id="guide19"
     inkscape:locked="false" /></sodipodi:namedview>
<path
   style="fill:#474D50;"
   d="M90.39,80.18c0,0,12.95-10.56,14.71-11.83c1.3-0.93,3.02-2.13,4.58-0.42  c1.51,1.65-0.07,3.78-1.27,4.93c-1.62,1.55-15.06,12.67-15.06,12.67L90.39,80.18z"
   id="path1" />
<path
   style="fill:#474D50;"
   d="M98.27,65.47c-2.08,0.6-1.9,3.03-1.62,5.42c0.28,2.39,0.35,6.48,0.35,6.48l4.58-4.79  c0,0-0.21-1.69-0.21-3.17S100.95,64.7,98.27,65.47z"
   id="path2" />
<path
   style="fill:#474D50;"
   d="M37.1,77.65c0,0-12.04-10.21-13.09-11.26c-1.41-1.41-3.73-2.39-5.21-0.63  c-1.47,1.75-0.39,3.76,0.92,5.07c2.46,2.46,15.2,13.23,15.2,13.23L37.1,77.65z"
   id="path3" /><path
   id="path20"
   style="fill:#ffffff;stroke:none;stroke-width:1.6"
   d="m 43.998047,37.783203 c -2.200357,3.197734 -4.97607,7.225562 -5.316406,13.589844 -0.332902,6.227212 0.974141,10.711749 2.345703,13.640625 1.371562,2.928875 2.759765,4.248047 2.759765,4.248047 0.358405,0.344881 0.320186,0.929339 -0.08008,1.224609 0,0 -11.40051,8.497228 -13.296875,19.904297 1e-6,6.67e-4 1e-6,0.0013 0,0.002 -1.556496,9.309791 1.417556,19.636075 10.023438,26.355475 6.019413,4.6931 13.997867,6.86858 21.890625,7.07617 7.892757,0.20759 15.686218,-1.56075 21.25,-4.61719 9.790399,-5.37741 15.411223,-15.45456 13.949218,-27.257814 -1.438663,-11.60523 -13.71875,-20.464844 -13.71875,-20.464844 -0.425078,-0.302714 -0.452932,-0.924143 -0.05664,-1.263672 0,0 6.617111,-5.599336 6.548828,-17.597656 C 90.262813,46.277303 88.242993,41.728066 85.947264,38.753953 75.082859,24.679139 51.076508,27.496222 43.998047,37.783203 Z"
   sodipodi:nodetypes="scscccccscccccss" /><path
   style="fill:#f1f6f7;fill-opacity:1;stroke:none;stroke-width:1.6"
   d="m 35.938081,112.19264 c 7.398037,7.69011 18.49338,11.42404 26.386138,11.63163 7.892757,0.20759 15.686218,-1.56075 21.25,-4.61719 11.411636,-6.58851 20.374511,-23.177718 9.202199,-38.277682 -0.32263,21.730222 -32.230327,38.057732 -56.838337,31.263242 z"
   id="path24"
   sodipodi:nodetypes="csccc" /><path
   style="fill:#f1f6f7;fill-opacity:1;stroke:none;stroke-width:1.6"
   d="m 85.947266,38.753906 c -3.580188,22.632098 -23.279001,30.148172 -42.160157,30.507813 0,0 0.320188,0.929339 -0.08008,1.224609 13.882397,2.414582 26.002515,2.768294 40.097653,0.998051 -0.425078,-0.302714 -0.452933,-0.924143 -0.05664,-1.263672 0,0 6.617111,-5.599336 6.548828,-17.597656 -0.0516,-9.614388 -4.536502,-13.719627 -4.349604,-13.869145 z"
   id="path22"
   sodipodi:nodetypes="ccccccc" /><path
   id="path20-0"
   style="fill:none;stroke:#b2b5be;stroke-width:3;stroke-opacity:1"
   d="M 44.511672,38.246094 C 41.99717,41.018896 39.70497,45.201339 39.373,51.410156 c -0.326846,6.112974 0.951471,10.475069 2.279297,13.310547 1.327825,2.835479 2.613281,4.041016 2.613281,4.041016 0.66893,0.642216 0.597059,1.732408 -0.150391,2.28125 0,0 -11.190419,8.434912 -13.023437,19.460937 v 0.002 c -2.710778,16.213834 8.56689,32.032314 31.25,32.628914 21.389704,0.56255 36.825386,-12.30194 34.496094,-31.10157 C 95.452666,80.853531 83.404297,72.046875 83.404297,72.046875 82.612849,71.483798 82.560965,70.32698 83.298828,69.695312 c 0,0 6.372137,-5.329561 6.306641,-17.068359 C 89.570899,46.431038 87.635743,42.021812 85.392578,39.166016 76.623168,28.001592 57.695145,23.70836 44.511672,38.246094 Z"
   sodipodi:nodetypes="sssccccssccsss" />
<path
   style="fill:#474D50;"
   d="M27.81,72.65c0,0,0.28-3.59,0.42-5.07c0.14-1.48,0.99-4.08,3.38-3.17c2.01,0.77,1.62,3.1,1.34,5  c-0.2,1.32-0.99,6.05-0.99,6.05L27.81,72.65z"
   id="path4" />
<path
   id="path5"
   style="fill:#474D50;"
   d="M 64.052734 4.125 C 56.890176 4.0916406 51.644375 5.4492969 51.390625 6.5605469 C 51.100625 7.8305469 51.039062 26.199219 51.039062 26.199219 C 51.039062 26.199219 38.940703 26.699062 38.720703 29.789062 C 38.593495 31.624487 41.046954 33.120323 47.003906 34.125 C 48.42215 33.172657 49.667746 32.613695 50.410156 32.400391 C 53.080156 31.630391 59.069766 31.130156 65.259766 31.410156 C 71.449766 31.690156 79.549297 32.610234 81.029297 33.240234 C 81.463167 33.424922 82.510018 34.059304 83.763672 35.173828 C 88.06222 34.688525 90.249886 33.727473 90.460938 32.039062 C 90.950937 28.099062 79.970703 27.460938 79.970703 27.460938 C 79.970703 27.460938 82.500391 8.7399219 82.150391 8.1699219 C 81.800391 7.5999219 76.520469 4.8004687 67.230469 4.2304688 C 66.137969 4.1642187 65.075957 4.1297656 64.052734 4.125 z " />
<path
   style="fill:#A42718;"
   d="M65.54,21.83c-6.75-0.27-14.5,0.42-14.5,0.42v3.94c0,0,6.19-0.42,13.87-0.21s15.06,1.48,15.06,1.48  l0.49-3.8C80.46,23.66,74.48,22.18,65.54,21.83z"
   id="path6" />

<path
   style="fill:#303030;"
   d="M51.84,45.93c-2.91-0.52-3.99,1.92-4.18,3.71c-0.19,1.78,0.44,4.21,2.39,4.55  c2.11,0.38,3.8-1.17,4.08-4.09C54.39,47.55,53.2,46.17,51.84,45.93z"
   id="path8" />
<path
   style="fill:#303030;"
   d="M72.91,50.2c-0.22,2.64,1.43,4.22,3.24,4.27c1.88,0.05,3.29-1.57,3.44-4.31  c0.14-2.53-1.27-3.8-3.2-3.81C74.41,46.34,73.1,47.99,72.91,50.2z"
   id="path9" />
<path
   style="fill:#303030;"
   d="M56.43,60.47c-1.13,0.95,0.07,2.83,2.53,3.94c2.57,1.16,6.9,1.51,10.31-0.21  c1.76-0.89,2.71-2.46,1.79-3.24c-0.77-0.65-1.83-0.22-2.9,0.35c-1.11,0.6-2.99,1-4.49,0.95c-1.5-0.05-3.45-0.81-4.15-1.23  C58.4,60.37,57.51,59.56,56.43,60.47z"
   id="path10" />
<path
   style="fill:#FFA72B;"
   d="M60.05,52.54c-0.14,0.56,2.6,7.33,3.91,7.19c1.3-0.14,3.45-7.23,3.27-7.75  c-0.18-0.53-2.32-0.77-3.55-0.74S60.19,51.98,60.05,52.54z"
   id="path11" />
<path
   style="fill:#303030;"
   d="M59.37,84.1c0,3.45,2.97,3.85,4.3,3.82c1.96-0.05,3.66-1.48,3.55-3.87s-1.38-3.49-3.76-3.61  C61.33,80.34,59.37,81.87,59.37,84.1z"
   id="path12" />
<path
   style="fill:#303030;"
   d="M59.96,98.58c-0.04,2.12,3.16,3.23,4.88,2.97c2.12-0.32,3.73-2.85,2.97-5.09  c-0.85-2.49-3.45-2.49-4.77-2.23C61.71,94.49,60.01,95.66,59.96,98.58z"
   id="path13" />
<path
   style="fill:#95C7F7;"
   d="M28.11,41.63c0,0,1.92-3.03-0.24-3.6c-2.16-0.57-2.95,2.54-2.95,2.54s-2.1-2.9-3.57-1.42  c-1.48,1.48,0.23,3.74,0.23,3.74s-3.52,0.34-2.84,3.06c0.44,1.76,3.63,0.91,3.63,0.91s-0.91,3.52,1.36,3.97  c2.27,0.45,2.95-2.16,2.95-2.16s2.27,2.27,3.63,0.79c1.36-1.48-1.48-4.31-1.48-4.31s3.18-1.13,2.61-3.06  C30.88,40.17,28.11,41.63,28.11,41.63z"
   id="path14" />
<path
   style="fill:#95C7F7;"
   d="M19.88,27.01c0,0-3.18,0.02-3.18-1.59c0-2.61,3.74-1.48,3.74-1.48s-1.93-3.06-0.34-3.97  c1.59-0.91,2.95,1.93,2.95,1.93s1.36-2.5,3.18-1.82S26,23.49,26,23.49s2.84-0.11,3.06,1.7s-2.95,2.38-2.95,2.38s2.04,2.04,0.45,3.29  s-3.52-1.93-3.52-1.93s-0.57,2.61-2.5,2.16C18.63,30.64,19.88,27.01,19.88,27.01z"
   id="path15" />
<path
   style="fill:#95C7F7;"
   d="M35.08,18.15c0,0-2.29-1.06-1.44-2.54c0.84-1.48,3.24-0.07,3.24-0.07s0.63-3.1,2.25-2.67  s1.13,3.1,1.13,3.1s3.17-0.84,3.52,0.7c0.35,1.55-1.9,2.39-1.9,2.39s2.53,1.34,1.69,2.75c-0.84,1.41-3.45-0.56-3.45-0.56  s-0.14,3.31-2.32,3.17c-2.18-0.14-1.13-3.8-1.13-3.8s-2.04,2.18-3.17,0.42C32.37,19.28,35.08,18.15,35.08,18.15z"
   id="path16" />
<path
   style="fill:#95C7F7;"
   d="M97.41,24.22c0,0,0-3.39,2.05-3.25c2.33,0.16,1.44,3.52,1.44,3.52s2.86-1.13,3.49,0.49  s-1.83,2.82-1.83,2.82s1.9,1.69,0.92,2.67s-2.75,0.14-2.75,0.14s-0.48,2.56-2.18,2.3c-1.53-0.23-1.48-2.72-1.48-2.72  s-2.11,1.2-2.96-0.28c-0.84-1.48,1.48-2.82,1.48-2.82s-2.53-1.62-1.62-3.1C94.88,22.52,97.41,24.22,97.41,24.22z"
   id="path17" />
<path
   style="fill:#95C7F7;"
   d="M107.41,35.61c0,0,0.14-2.89,2.32-2.46c2.18,0.42,1.55,2.67,1.55,2.67s2.82-0.92,3.24,0.99  c0.34,1.53-1.83,2.39-1.83,2.39s1.9,1.27,0.77,2.82c-1.13,1.55-3.03-0.28-3.03-0.28s-0.07,3.03-2.32,2.67  c-2.25-0.35-1.41-2.96-1.41-2.96s-2.18,1.27-2.96-0.21c-0.77-1.48,1.55-2.82,1.55-2.82s-1.76-0.92-1.06-2.6  C104.9,34.24,107.41,35.61,107.41,35.61z"
   id="path18" />
<path
   style="fill:#95C7F7;"
   d="M99.17,54.54c0,0-2.01-3.54-0.28-4.72c2.18-1.48,3.87,1.97,3.87,1.97s2.11-3.03,3.73-1.83  c1.62,1.2-0.28,3.8-0.28,3.8s3.03,0.21,3.03,2.04s-2.67,1.76-2.67,1.76s1.21,2.46,0.07,3.32c-1.41,1.06-3.73-1-3.73-1  s-0.99,2.42-2.6,2.04c-2.22-0.52-1.06-3.8-1.06-3.8s-3.35,0.43-3.45-1.2C95.65,54.69,99.17,54.54,99.17,54.54z"
   id="path19" />
</svg>
