<?xml version="1.0" encoding="UTF-8" standalone="no"?>
<!-- Created with Inkscape (http://www.inkscape.org/) -->

<svg
   width="792"
   height="1000"
   viewBox="0 0 792 1000"
   version="1.1"
   id="svg1"
   inkscape:version="1.3.2 (091e20e, 2023-11-25, custom)"
   sodipodi:docname="E5_ex2.svg"
   xmlns:inkscape="http://www.inkscape.org/namespaces/inkscape"
   xmlns:sodipodi="http://sodipodi.sourceforge.net/DTD/sodipodi-0.dtd"
   xmlns="http://www.w3.org/2000/svg"
   xmlns:svg="http://www.w3.org/2000/svg">
  <sodipodi:namedview
     id="namedview1"
     pagecolor="#ffffff"
     bordercolor="#666666"
     borderopacity="1.0"
     inkscape:showpageshadow="2"
     inkscape:pageopacity="0.0"
     inkscape:pagecheckerboard="0"
     inkscape:deskcolor="#d1d1d1"
     inkscape:document-units="px"
     showguides="true"
     inkscape:zoom="0.98394778"
     inkscape:cx="219.01569"
     inkscape:cy="508.6652"
     inkscape:window-width="1680"
     inkscape:window-height="998"
     inkscape:window-x="-8"
     inkscape:window-y="-8"
     inkscape:window-maximized="1"
     inkscape:current-layer="layer1">
    <sodipodi:guide
       position="68.989686,750"
       orientation="0,1"
       id="guide1"
       inkscape:locked="false"
       inkscape:label=""
       inkscape:color="rgb(0,134,229)" />
    <sodipodi:guide
       position="-40.243984,200"
       orientation="0,1"
       id="guide2"
       inkscape:locked="false"
       inkscape:label=""
       inkscape:color="rgb(0,134,229)" />
  </sodipodi:namedview>
  <defs
     id="defs1" />
  <g
     inkscape:label="Layer 1"
     inkscape:groupmode="layer"
     id="layer1">
    <path
       id="path5"
       style="color:#000000;fill:#ad7fa8;stroke-width:1;stroke-linecap:round;stroke-linejoin:round;-inkscape-stroke:none"
       d="m 483.24805,655.33427 c 11.1931,0 19.08503,3.20717 26.82617,9.24014 7.74114,6.03296 14.8043,15.31283 20.54101,26.20488 7.18571,13.64319 11.96816,29.2264 15.34571,42.92306 H 413.53125 c 3.78811,-12.20024 9.38379,-26.83243 17.23437,-39.9681 13.60834,-22.7696 30.7287,-38.39998 52.48243,-38.39998 z m -0.80078,-64.4834 c -56.64313,0 -95.38205,40.43987 -119.24415,81.62398 -23.86209,41.18411 -35.35683,84.93037 -38.32226,107.75453 a 20.002,18.565534 0 0 0 19.85742,20.78624 h 264.24024 a 20.002,18.565534 0 0 0 19.7539,-21.47512 c -4.15364,-24.27262 -12.68213,-68.96948 -33.3125,-109.37342 -10.31518,-20.20197 -23.72303,-39.5482 -42.23437,-54.42928 -18.51135,-14.88108 -42.74293,-24.88693 -70.73828,-24.88693 z" />
  </g>
</svg>
