<?xml version="1.0" standalone="no"?>
<!DOCTYPE svg PUBLIC "-//W3C//DTD SVG 1.1//EN" "http://www.w3.org/Graphics/SVG/1.1/DTD/svg11.dtd" >
<svg xmlns="http://www.w3.org/2000/svg" xmlns:xlink="http://www.w3.org/1999/xlink" version="1.1" viewBox="-10 0 910 1000">
   <path fill="currentColor"
d="M333.851 351.665q33.1631 -28.0605 74.2812 -42.3633q41.1182 -14.3018 55.8682 -14.3018q43 0 67.8975 23.6543q24.8975 23.6533 66 76.5q41.1025 52.8457 68.1025 84.8457t65.5 103.5t45 81t26 33.5t33.5 43t14 23t-8 7.5t-19.5 3.5q-24.1377 0 -74.0918 -68.9365
t-77.1807 -112q-27.2275 -43.0635 -80.7832 -108.821q-53.5547 -65.7578 -72.5762 -71.8447q-19.0225 -6.08691 -24.0781 -6.08691q-5.05469 0 -8.42285 1.84473q-3.36719 1.84473 -17.8672 4.84473q-43.3643 8.97168 -58.5 26q-50 60 -121 131q-36 43 -72.5 103.5t-42 75
q-10.8105 28.5 -34.6553 28.5t-52.8447 -12t-32.6777 -24.2598q-3.67773 -12.2588 -3.67773 -20.918t17.2695 -48.9561q17.2705 -40.2969 63.3613 -101.394q46.0898 -61.0967 108.251 -125.922q62.1611 -64.8242 95.3242 -92.8857z" />
</svg>
