<?xml version="1.0" encoding="UTF-8" standalone="no"?>
<!-- Created with Inkscape (http://www.inkscape.org/) -->

<svg
   width="861"
   height="1000"
   viewBox="0 0 861 1000"
   version="1.1"
   id="svg1"
   inkscape:version="1.3.2 (091e20e, 2023-11-25, custom)"
   sodipodi:docname="E9_new.svg"
   xml:space="preserve"
   xmlns:inkscape="http://www.inkscape.org/namespaces/inkscape"
   xmlns:sodipodi="http://sodipodi.sourceforge.net/DTD/sodipodi-0.dtd"
   xmlns="http://www.w3.org/2000/svg"
   xmlns:svg="http://www.w3.org/2000/svg"><sodipodi:namedview
     id="namedview1"
     pagecolor="#ffffff"
     bordercolor="#666666"
     borderopacity="1.0"
     inkscape:showpageshadow="2"
     inkscape:pageopacity="0.0"
     inkscape:pagecheckerboard="0"
     inkscape:deskcolor="#d1d1d1"
     inkscape:document-units="px"
     showguides="true"
     inkscape:zoom="1.3915123"
     inkscape:cx="444.48044"
     inkscape:cy="716.12734"
     inkscape:window-width="1680"
     inkscape:window-height="998"
     inkscape:window-x="-8"
     inkscape:window-y="-8"
     inkscape:window-maximized="1"
     inkscape:current-layer="layer1"><sodipodi:guide
       position="68.989686,750"
       orientation="0,1"
       id="guide1"
       inkscape:locked="false"
       inkscape:label=""
       inkscape:color="rgb(0,134,229)" /><sodipodi:guide
       position="-40.243984,200"
       orientation="0,1"
       id="guide2"
       inkscape:locked="false"
       inkscape:label=""
       inkscape:color="rgb(0,134,229)" /></sodipodi:namedview><defs
     id="defs1" /><g
     inkscape:label="Layer 1"
     inkscape:groupmode="layer"
     id="layer1"><path
       fill="currentColor"
       d="m 636,694 q 11.7393,10.0625 19.5693,10.0625 7.8291,0 38.4307,-5.0625 24,-2 34,-28 1.37598,-3.61328 1.37598,-8.73535 0,-24.6514 -35.1875,-90.458 -91.334,-170.807 -199.188,-170.807 -15,0 -90.5,52 -75.5,52 -75.5,65 0,13 12.4199,29.54 12.4199,16.54 12.4199,38.4199 0,105.867 -78.8398,167.54 -50.5381,39.5332 -112.021,39.5332 -61.4829,0 -86.4795,-36.5332 -16.9004,-24.7002 -16.9004,-62.1338 0,-37.4326 24.4004,-94.3662 7,-18 61,-78 137.303,-152.559 211.072,-199.279 73.769,-46.72 99.9277,-46.7207 15,0 88.5,58.5 73.5,58.5 148,130 74.5,71.5 89.5,101.5 30,60 30,89.5 0,29.5 -28.5,71.5 -39.1221,57.6543 -89.0703,57.6543 -21.4678,0 -53.4492,-10.8271 -31.9805,-10.8271 -45.9805,-26.8271 -14,-16 -29.5,-57.5 -15.5,-41.5 -16,-66.5 -0.5,-25 21.6172,-64.6279 22.1182,-39.627 34.5342,-39.627 6.64648,0 11.498,12.127 4.85059,12.1279 7.13672,15.4141 2.28516,3.28516 2.28516,6.14258 0,2.85742 -9.78516,32.2139 -9.78613,29.3574 -9.78613,55.3574 0,26 29,54 z M 266.5,666 q 17.5,-32 17.5,-49 0,-17 -7.63477,-31.7607 -7.63477,-14.7598 -18.333,-14.7598 -10.6992,0 -27.8496,12.3271 -17.1514,12.3271 -43.167,39.7607 -26.0156,27.4326 -30.4004,43.875 -4.3848,16.4424 -4.38477,25.9619 0,9.51855 5.38477,21.0576 5.38477,11.5381 16.8848,11.5381 35.0996,0 54.7998,-13.5 19.7002,-13.5 37.2002,-45.5 z"
       id="path1"
       style="fill:#729fcf"
       sodipodi:insensitive="true" /><path
       style="fill:none;stroke:#000000;stroke-width:40;stroke-linecap:round;stroke-linejoin:round;stroke-dasharray:none;stroke-opacity:1"
       d="m 108.51503,556.22936 c 59.9004,-84.19753 220.84711,-208.73398 287.45703,-237.8707 30.3154,-13.26066 81.69957,-14.88433 120.73194,8.62371 36.87178,22.20678 202.04395,179.3673 254.39948,254.39947 54.78901,78.51965 30.11377,140.20348 -7.28157,173.06954 C 718.63612,794.16431 649.914,775.72736 620.2473,737.95097 585.36168,693.52901 574.38189,610.998 618.75126,559.82256 c -32.89945,65.48267 -16.19148,129.862 9.23771,157.37082 25.13505,27.19064 81.39423,27.84566 112.21288,-10.76774 34.09617,-42.71988 24.06524,-96.30623 -25.66732,-161.67768 C 674.85746,492.59404 610.31,437.36898 579.22591,413.93812 534.35166,380.11238 454.95042,384.97837 414.22641,408.55176 343.90958,449.25517 176.85679,586.76093 146.60308,632.40547 c -34.72662,52.39293 -24.35358,81.51182 -5.78328,100.08212 19.42781,19.42781 66.12725,28.26205 109.98646,-9.53317 30.98867,-26.70416 84.90071,-92.09023 68.27104,-160.97593 11.41967,24.5508 36.65289,114.42362 -53.4355,190.24702 C 219.24837,791.2728 135.71032,782.51787 115.70146,770.38484 48.14905,729.4222 70.107024,610.21662 108.51503,556.22936 Z"
       id="path6"
       sodipodi:nodetypes="sssssscsssssssscsss" /></g></svg>
