<?xml version="1.0" encoding="UTF-8" standalone="no"?>
<!-- Created with Inkscape (http://www.inkscape.org/) -->

<svg
   width="887"
   height="1000"
   viewBox="0 0 887 1000"
   version="1.1"
   id="svg1"
   inkscape:version="1.3.2 (091e20e, 2023-11-25, custom)"
   sodipodi:docname="EA_ex.svg"
   xml:space="preserve"
   xmlns:inkscape="http://www.inkscape.org/namespaces/inkscape"
   xmlns:sodipodi="http://sodipodi.sourceforge.net/DTD/sodipodi-0.dtd"
   xmlns="http://www.w3.org/2000/svg"
   xmlns:svg="http://www.w3.org/2000/svg"><sodipodi:namedview
     id="namedview1"
     pagecolor="#ffffff"
     bordercolor="#666666"
     borderopacity="1.0"
     inkscape:showpageshadow="2"
     inkscape:pageopacity="0.0"
     inkscape:pagecheckerboard="0"
     inkscape:deskcolor="#d1d1d1"
     inkscape:document-units="px"
     showguides="true"
     inkscape:zoom="0.98394778"
     inkscape:cx="398.90328"
     inkscape:cy="444.63742"
     inkscape:window-width="1680"
     inkscape:window-height="998"
     inkscape:window-x="-8"
     inkscape:window-y="-8"
     inkscape:window-maximized="1"
     inkscape:current-layer="layer1"><sodipodi:guide
       position="68.989686,750"
       orientation="0,1"
       id="guide1"
       inkscape:locked="false"
       inkscape:label=""
       inkscape:color="rgb(0,134,229)" /><sodipodi:guide
       position="-40.243984,200"
       orientation="0,1"
       id="guide2"
       inkscape:locked="false"
       inkscape:label=""
       inkscape:color="rgb(0,134,229)" /><sodipodi:guide
       position="193.09968,360.73843"
       orientation="0,-1"
       id="guide3"
       inkscape:locked="false" /><sodipodi:guide
       position="443,635.14324"
       orientation="-1,0"
       id="guide4"
       inkscape:locked="false"
       inkscape:label=""
       inkscape:color="rgb(0,134,229)" /></sodipodi:namedview><defs
     id="defs1" /><g
     inkscape:label="Layer 1"
     inkscape:groupmode="layer"
     id="layer1"><path
       id="path9"
       style="color:#000000;fill:#000000;stroke-linejoin:round;-inkscape-stroke:none"
       d="m 456.30273,446.26953 c 29.52402,43.4701 48.11524,98.15558 48.11524,157.42188 0,42.82331 -20.71584,99.92382 -47.07617,99.92382 -30.06679,0 -54.19141,-47.62072 -54.19141,-92.81054 0,-45.43577 20.89362,-113.81407 53.15234,-164.53516 z M 275.42187,212.73633 c -108.40051,0 -205.065366,140.13132 -218.042964,249.35937 -1.071833,9.0463 4.104231,17.67412 12.59029,20.98638 8.486059,3.31227 18.138258,0.47218 23.47807,-6.90825 45.153614,-62.44649 127.133774,-127.9043 199.251954,-127.9043 32.42357,0 64.51202,10.50389 93.55469,28.94336 -30.91849,63.15824 -50.54493,147.28172 -50.54493,256.9668 0,67.46541 51.29145,176.51172 119.59961,176.51172 104.70742,0 113.50196,-135.16621 113.50196,-180.57618 0,-83.87087 -23.90421,-169.57929 -62.85743,-241.6914 26.10353,-21.47816 56.65602,-34.73047 91.67774,-34.73047 56.4617,0 127.36262,25.98463 207.60937,115.94531 5.9589,6.67514 15.62624,8.58055 23.67239,4.66576 8.04615,-3.91478 12.5134,-12.69724 10.93894,-21.5056 -12.93338,-72.21135 -101.09726,-238.0293 -219.90039,-238.0293 -55.70153,0 -123.48095,22.82591 -178.81836,81.82813 -47.01069,-50.66242 -104.02183,-83.86133 -165.71094,-83.86133 z"
       sodipodi:nodetypes="cssscscscscssscscscscs" /></g></svg>
