<?xml version="1.0" encoding="UTF-8" standalone="no"?>
<!-- Created with Inkscape (http://www.inkscape.org/) -->

<svg
   width="1177"
   height="1000"
   viewBox="0 0 1177 1000"
   version="1.1"
   id="svg1"
   inkscape:version="1.3.2 (091e20e, 2023-11-25, custom)"
   sodipodi:docname="EB_ex.svg"
   xml:space="preserve"
   xmlns:inkscape="http://www.inkscape.org/namespaces/inkscape"
   xmlns:sodipodi="http://sodipodi.sourceforge.net/DTD/sodipodi-0.dtd"
   xmlns="http://www.w3.org/2000/svg"
   xmlns:svg="http://www.w3.org/2000/svg"><sodipodi:namedview
     id="namedview1"
     pagecolor="#ffffff"
     bordercolor="#666666"
     borderopacity="1.0"
     inkscape:showpageshadow="2"
     inkscape:pageopacity="0.0"
     inkscape:pagecheckerboard="0"
     inkscape:deskcolor="#d1d1d1"
     inkscape:document-units="px"
     showguides="true"
     inkscape:zoom="0.98394778"
     inkscape:cx="614.36187"
     inkscape:cy="520.86097"
     inkscape:window-width="1680"
     inkscape:window-height="998"
     inkscape:window-x="-8"
     inkscape:window-y="-8"
     inkscape:window-maximized="1"
     inkscape:current-layer="layer1"><sodipodi:guide
       position="68.989686,750"
       orientation="0,1"
       id="guide1"
       inkscape:locked="false"
       inkscape:label=""
       inkscape:color="rgb(0,134,229)" /><sodipodi:guide
       position="-40.243984,200"
       orientation="0,1"
       id="guide2"
       inkscape:locked="false"
       inkscape:label=""
       inkscape:color="rgb(0,134,229)" /><sodipodi:guide
       position="193.09968,360.73843"
       orientation="0,-1"
       id="guide3"
       inkscape:locked="false" /><sodipodi:guide
       position="443,635.14324"
       orientation="-1,0"
       id="guide4"
       inkscape:locked="false"
       inkscape:label=""
       inkscape:color="rgb(0,134,229)" /><sodipodi:guide
       position="586.41323,787.59035"
       orientation="0,-1"
       id="guide5"
       inkscape:locked="false" /></sodipodi:namedview><defs
     id="defs1" /><g
     inkscape:label="Layer 1"
     inkscape:groupmode="layer"
     id="layer1"><path
       id="path3"
       style="color:#000000;fill:#000000;stroke-linejoin:round;-inkscape-stroke:none"
       d="m 275.42187,212.73633 c -108.40051,0 -205.065366,140.13132 -218.042964,249.35937 -1.071833,9.0463 4.104231,17.67412 12.59029,20.98638 8.486059,3.31227 18.138258,0.47218 23.47807,-6.90825 45.153614,-62.44649 127.133774,-127.9043 199.251954,-127.9043 32.2336,0 64.1348,10.38483 93.04297,28.62305 -30.2868,63.1793 -50.03321,147.31654 -50.03321,257.28711 0,67.46541 51.29145,176.51172 119.59961,176.51172 104.70742,0 113.50196,-135.16621 113.50196,-180.57618 0,-84.24551 -24.11821,-170.34484 -63.38086,-242.65625 26.05333,-23.39011 50.54007,-36.47851 87.60937,-36.47851 32.90926,0 57.08591,8.663 81.29297,25.33398 -31.17887,63.26001 -51.00586,147.64752 -51.00586,257.86524 0,67.46544 51.29144,176.51172 119.59961,176.51172 104.70475,0 113.5,-135.16603 113.5,-180.57618 0,-84.3973 -23.75599,-170.65121 -61.42578,-242.90039 25.78429,-20.7822 55.87138,-33.52148 90.24805,-33.52148 56.4617,0 127.36265,25.98463 207.60935,115.94531 5.9589,6.67521 15.6263,8.58066 23.6725,4.66587 8.0462,-3.9148 12.5134,-12.69732 10.9389,-21.50571 -12.9336,-72.21178 -101.0975,-238.0293 -219.90044,-238.0293 -54.49041,0 -120.55945,21.78787 -175.21289,77.9707 -32.07136,-39.02606 -76.58171,-79.55568 -136.98438,-78.98632 -48.38593,0.45608 -104.40685,24.08755 -155.58203,81.35156 -46.74851,-49.83797 -103.2729,-82.36914 -164.36719,-82.36914 z m 468.85352,233.01172 c 29.5616,43.17461 47.75977,98.1015 47.75977,157.94336 0,42.82333 -20.71584,99.92382 -47.07618,99.92382 -30.06678,0 -54.1914,-47.62072 -54.1914,-92.81054 0,-44.01958 19.94501,-112.51788 53.50781,-165.05664 z m -288.01758,0.45312 c 29.55073,43.48096 48.16016,98.19319 48.16016,157.49024 0,42.82331 -20.71584,99.92382 -47.07617,99.92382 -30.06679,0 -54.19141,-47.62072 -54.19141,-92.81054 0,-40.69329 18.55455,-108.97499 53.10742,-164.60352 z"
       sodipodi:nodetypes="scscscssscscssscscscscscscsssccsssc" /></g></svg>
