<?xml version="1.0" encoding="UTF-8" standalone="no"?>
<!-- Created with Inkscape (http://www.inkscape.org/) -->

<svg
   width="1177"
   height="1000"
   viewBox="0 0 1177 1000"
   version="1.1"
   id="svg1"
   inkscape:version="1.3.2 (091e20e, 2023-11-25, custom)"
   sodipodi:docname="EB_ex.svg"
   xml:space="preserve"
   xmlns:inkscape="http://www.inkscape.org/namespaces/inkscape"
   xmlns:sodipodi="http://sodipodi.sourceforge.net/DTD/sodipodi-0.dtd"
   xmlns="http://www.w3.org/2000/svg"
   xmlns:svg="http://www.w3.org/2000/svg"><sodipodi:namedview
     id="namedview1"
     pagecolor="#ffffff"
     bordercolor="#666666"
     borderopacity="1.0"
     inkscape:showpageshadow="2"
     inkscape:pageopacity="0.0"
     inkscape:pagecheckerboard="0"
     inkscape:deskcolor="#d1d1d1"
     inkscape:document-units="px"
     showguides="true"
     inkscape:zoom="0.98394778"
     inkscape:cx="614.36187"
     inkscape:cy="520.86097"
     inkscape:window-width="1680"
     inkscape:window-height="998"
     inkscape:window-x="-8"
     inkscape:window-y="-8"
     inkscape:window-maximized="1"
     inkscape:current-layer="layer1"><sodipodi:guide
       position="68.989686,750"
       orientation="0,1"
       id="guide1"
       inkscape:locked="false"
       inkscape:label=""
       inkscape:color="rgb(0,134,229)" /><sodipodi:guide
       position="-40.243984,200"
       orientation="0,1"
       id="guide2"
       inkscape:locked="false"
       inkscape:label=""
       inkscape:color="rgb(0,134,229)" /><sodipodi:guide
       position="193.09968,360.73843"
       orientation="0,-1"
       id="guide3"
       inkscape:locked="false" /><sodipodi:guide
       position="443,635.14324"
       orientation="-1,0"
       id="guide4"
       inkscape:locked="false"
       inkscape:label=""
       inkscape:color="rgb(0,134,229)" /><sodipodi:guide
       position="586.41323,787.59035"
       orientation="0,-1"
       id="guide5"
       inkscape:locked="false" /></sodipodi:namedview><defs
     id="defs1" /><g
     inkscape:label="Layer 1"
     inkscape:groupmode="layer"
     id="layer1"><path
       fill="currentColor"
       d="m 1044,299 q 32,51 57.8652,103.622 25.8643,52.6211 25.8643,63.3896 0,10.7685 -4.8643,10.7686 -13.1875,0 -57.5264,-46.8896 Q 971.35644,330.5 899.49984,330.5 q -24,0 -43.5,13.5 -49,35 -49,62 2.17969,30.5107 15.5898,53.7559 13.4102,23.2441 25.9102,43.7441 12.5,20.5 16.5,27.5 24.0381,42.3076 24.0381,94.3369 0,52.0283 -10.5186,88.8457 -10.5195,36.8174 -43.5195,66.4541 -33,29.6357 -60.0264,29.6357 -27.0254,0 -52.9736,-30.2725 -18,-20 -28,-36.5 -10,-16.5 -17.3916,-49.1084 -7.39062,-32.6094 -7.39062,-55.9785 0,-23.3691 1.19336,-45.4951 1.19336,-22.125 29.377,-61.7305 28.1846,-39.6064 31.2119,-103.188 v -20 q -33,-39 -68.9707,-63.1328 -35.9707,-24.1318 -50.9463,-24.1318 -14.9756,0 -45.083,23.2646 -49,35 -49,62 2.17969,30.5107 15.5898,53.7559 13.4102,23.2441 25.9102,43.7441 12.5,20.5 16.5,27.5 24.0381,42.3076 24.0381,94.3369 0,52.0283 -10.5186,88.8457 -10.5195,36.8174 -43.5195,66.4541 -33,29.6357 -60.0264,29.6357 -27.0254,0 -52.9736,-30.2725 -18,-20 -28,-36.5 -10,-16.5 -17.3916,-49.1084 -7.39062,-32.6094 -7.39062,-55.9785 0,-23.3691 1.19336,-45.4951 1.19336,-22.125 29.377,-61.7305 28.1846,-39.6064 31.2119,-103.188 v -20 q -13,-29 -43,-49 -22.5557,-22.5557 -55.7773,-22.5557 -60.3428,0 -134.723,61.5557 -14.5,12 -23,19 -8.5,7 -23.5,20 -15,13 -45.3916,29.3213 -30.3916,16.3213 -40.0361,16.3213 -15.8447,0 -15.8447,-18.0225 0,-5.25684 3.27246,-9.62012 l 11,-16.5 7,-10.5 3,-5 16,-30 32.5,-61 23.5,-43 q 12.2998,-24.5996 23.5498,-34.5996 11.25,-10 31.3506,-25.7002 20.0996,-15.7002 78.0996,-17.7002 33.4287,0 99.5,37 12.5,7 14.5,8 2,1 24,20.5 22,19.5 27,19.5 5,0 25.0205,-18.8428 20.0205,-18.8428 64.5,-41.5 44.4795,-22.6572 55.4795,-24.6572 30.0625,0 76,35 21,16 25.5,18.5 4.5,2.5 21.5,17 17,14.5 22,14.5 32.0215,-2.28711 115.934,-59.5 35.9326,-24.5 43.0664,-24.5 34,0 76.5,26.5 42.50002,26.5 64.50002,60.5 z M 786.122,733.441 q 11.9707,0 23.4248,-18.2207 11.4531,-18.2207 12.5957,-28.2207 1.14355,-10 1.14355,-20.6426 0,-10.6436 -11.6436,-50 -11.6426,-39.3574 -29.6426,-39.3574 -21,0 -29.5,8 -8.5,8 -8.5,36.5 0,28.5 14,85.5 6.2959,26.4414 28.1221,26.4414 z m -290,0 q 11.9707,0 23.4248,-18.2207 11.4531,-18.2207 12.5957,-28.2207 1.14355,-10 1.14355,-20.6426 0,-10.6436 -11.6436,-50 -11.6426,-39.3574 -29.6426,-39.3574 -21,0 -29.5,8 -8.5,8 -8.5,36.5 0,28.5 14,85.5 6.2959,26.4414 28.1221,26.4414 z"
       id="path1"
       style="fill:#729fcf" /><path
       id="path3"
       style="fill:#204a87;stroke:#000000;stroke-width:40;stroke-linecap:butt;stroke-linejoin:round;stroke-dasharray:none;stroke-opacity:1"
       d="m 383.15041,610.80477 c 0,56.12779 30.99759,112.81087 74.19093,112.81087 43.19335,0 67.07673,-70.12568 67.07673,-119.92507 0,-150.23862 -110.38816,-275.42112 -231.7196,-275.42112 -83.33776,0 -167.69183,70.12567 -215.458599,136.18609 C 89.435646,361.80782 180.88206,232.73593 275.42112,232.73593 c 142.74342,0 273.38848,206.95854 273.38848,397.37881 0,116.87612 -43.69114,160.57763 -93.50089,160.57763 -49.80976,0 -99.59878,-92.48458 -99.59878,-156.51237 0,-152.20935 38.40325,-251.34688 88.04273,-312.90235 51.30823,-63.62479 106.49036,-87.09825 151.8074,-87.52541 60.8869,-0.57393 108.03973,47.12946 155.32952,118.00524 50.94567,76.35506 85.53691,179.60383 85.53691,278.35726 0,116.87612 -43.69114,160.57763 -93.50089,160.57763 -49.80976,0 -99.59878,-92.48458 -99.59878,-156.51237 0,-309.53557 158.82227,-399.41144 264.24167,-399.41144 103.66991,0 188.01811,153.46342 200.21391,221.55646 -82.9254,-92.96359 -159.77025,-122.63258 -222.53472,-122.63258 -140.17022,0 -214.48038,185.52098 -214.48038,277.11233 0,56.12779 30.99759,112.81087 74.19093,112.81087 43.19335,0 67.07673,-70.12568 67.07673,-119.92507 0,-86.12841 -35.09925,-163.13108 -88.8739,-213.16532 -40.02749,-37.2433 -76.17399,-59.54431 -130.12273,-59.54431 -48.6809,0 -81.2648,21.59204 -113.82488,53.70858 -63.57588,62.70986 -96.06304,165.54477 -96.06304,226.11525 z"
       sodipodi:nodetypes="sssscssssssssssscssssssss" /></g></svg>
