<?xml version="1.0" encoding="UTF-8" standalone="no"?>
<!-- Created with Inkscape (http://www.inkscape.org/) -->

<svg
   width="817"
   height="1000"
   viewBox="0 0 817 1000"
   version="1.1"
   id="svg1"
   inkscape:version="1.3.2 (091e20e, 2023-11-25, custom)"
   sodipodi:docname="EC_ex.svg"
   xml:space="preserve"
   xmlns:inkscape="http://www.inkscape.org/namespaces/inkscape"
   xmlns:sodipodi="http://sodipodi.sourceforge.net/DTD/sodipodi-0.dtd"
   xmlns="http://www.w3.org/2000/svg"
   xmlns:svg="http://www.w3.org/2000/svg"><sodipodi:namedview
     id="namedview1"
     pagecolor="#ffffff"
     bordercolor="#666666"
     borderopacity="1.0"
     inkscape:showpageshadow="2"
     inkscape:pageopacity="0.0"
     inkscape:pagecheckerboard="0"
     inkscape:deskcolor="#d1d1d1"
     inkscape:document-units="px"
     showguides="true"
     inkscape:zoom="0.69575617"
     inkscape:cx="314.0468"
     inkscape:cy="567.00899"
     inkscape:window-width="1680"
     inkscape:window-height="998"
     inkscape:window-x="-8"
     inkscape:window-y="-8"
     inkscape:window-maximized="1"
     inkscape:current-layer="layer1"><sodipodi:guide
       position="68.989686,750"
       orientation="0,1"
       id="guide1"
       inkscape:locked="false"
       inkscape:label=""
       inkscape:color="rgb(0,134,229)" /><sodipodi:guide
       position="-40.243984,200"
       orientation="0,1"
       id="guide2"
       inkscape:locked="false"
       inkscape:label=""
       inkscape:color="rgb(0,134,229)" /></sodipodi:namedview><defs
     id="defs1" /><g
     inkscape:label="Layer 1"
     inkscape:groupmode="layer"
     id="layer1"><path
       style="color:#000000;fill:#000000;stroke-linejoin:round;-inkscape-stroke:none"
       d="m 156.66406,412.62305 c -26.99946,0 -50.48066,16.97169 -66.160154,41.45898 -15.67949,24.4873 -25.411011,57.27182 -28.441406,96.37305 -5.245641,67.6846 3.744416,169.93891 56.00977,254.84765 a 20.002,20.002 0 0 0 36.99804,-11.64453 c -2.28672,-39.33171 -8.28127,-85.71975 -6.34375,-125.03125 1.93752,-39.31149 11.12622,-67.69417 33.39453,-80.64843 12.55549,-7.30397 35.48977,-9.87678 66.71875,-2.02149 31.22899,7.8553 69.88634,25.64159 112.17969,54.36914 A 20.002,20.002 0 0 0 390.31641,632.375 C 420.15342,569.6751 515.72065,505.0664 624.33398,494.20508 a 20.002,20.002 0 0 0 2.76758,-39.32617 C 558.45597,438.06774 456.61882,428.59329 363.57227,511.49219 310.15819,442.93315 231.75236,412.62305 156.66406,412.62305 Z"
       id="path2" /><path
       style="color:#000000;fill:#000000;stroke-linejoin:round;-inkscape-stroke:none"
       d="m 745.32812,493.13477 a 20.002,20.002 0 0 0 -16.30859,7.33007 c -67.60386,82.83381 -135.19221,162.69539 -235.93164,176.8125 a 20.002,20.002 0 0 0 -16.89062,23.44336 c 9.39585,50.80525 35.98134,104.24127 86.35742,117.72852 a 20.002,20.002 0 0 0 18.30078,-4.23047 C 663.74993,742.08883 721.39818,644.69051 763.47266,519.48242 a 20.002,20.002 0 0 0 -18.14454,-26.34765 z"
       id="path3" /><path
       style="color:#000000;fill:#000000;stroke-linejoin:round;-inkscape-stroke:none"
       d="m 185.41016,155.34961 c -74.40774,0 -76.17773,93.12391 -74.77539,123.50781 2.87488,62.28913 23.93714,136.37142 54.05664,195.85742 4.36477,8.6087 14.25459,12.87251 23.51057,10.13615 9.25598,-2.73635 15.23763,-11.69226 14.21989,-21.29044 -1.40008,-13.13925 -12.10411,-125.39422 28.19141,-148.07422 38.25364,-21.53075 105.70526,63.80428 121.34766,84.60156 8.00847,10.64563 23.99022,10.63489 31.98437,-0.0215 24.92444,-33.23259 57.56201,-64.04462 82.01758,-65.04883 42.19669,-1.73272 76.10229,70.86406 95.84961,126.5664 3.50572,9.84078 13.994,15.32638 24.07652,12.59255 10.08251,-2.73382 16.36316,-12.76624 14.41762,-23.03005 -14.40975,-75.38432 -55.31528,-278.86595 -157.79687,-265.90623 -19.27868,2.43797 -52.83423,11.46624 -103.29102,81.40625 -29.6548,-55.79281 -73.268,-111.29687 -153.80859,-111.29687 z"
       id="path4"
       sodipodi:nodetypes="sscscsccscscscs" /></g></svg>
