<?xml version="1.0" standalone="no"?>
<!DOCTYPE svg PUBLIC "-//W3C//DTD SVG 1.1//EN" "http://www.w3.org/Graphics/SVG/1.1/DTD/svg11.dtd" >
<svg xmlns="http://www.w3.org/2000/svg" xmlns:xlink="http://www.w3.org/1999/xlink" version="1.1" viewBox="-10 0 598 1000">
   <path fill="currentColor"
d="M140 430q-41 -26 -64.3691 -68.8438t-23.3691 -68.7686q0 -40.2578 68.7383 -82.3877q31 -19 50 -19q60 0 229.5 166.5q134.568 132.187 134.568 161.319q0 7.5625 -11.5342 7.87109q-11.5342 0.30957 -57.0342 -36.1904t-71.5 -66.5
q-51.6973 -59.6514 -94.3486 -82.3252q-43.6221 -23.1914 -53.835 -23.1914q-10.333 0 -25.8164 14.5166q-14.8574 14.5713 -14.8574 37.0615q0 56.2246 92.8574 161.938q29 33 49.5 62t20.5 36q0 32 -10 69.5t-19 37.5q-5 0 -20 -18.5t-31 -45t-32 -44.5t-22 -18
q-17 0 -34.5 42.5t-24 112t-11 92.5t-15.0439 33.3691q-10.543 10.3701 -21.3555 10.3701q-20.2744 0 -43.1006 -34.2393q-35.5098 -53.2637 -35.5098 -133.104t25.7549 -136.618t43.2549 -56.7773t42.5 -23.5t25 -35.5q0 -23.7998 -47 -52z" />
</svg>
