<?xml version="1.0" encoding="UTF-8" standalone="no"?>
<!-- Created with Inkscape (http://www.inkscape.org/) -->
<svg xmlns:dc="http://purl.org/dc/elements/1.1/" xmlns:cc="http://creativecommons.org/ns#" xmlns:rdf="http://www.w3.org/1999/02/22-rdf-syntax-ns#" xmlns:svg="http://www.w3.org/2000/svg" xmlns="http://www.w3.org/2000/svg" xmlns:sodipodi="http://sodipodi.sourceforge.net/DTD/sodipodi-0.dtd" xmlns:inkscape="http://www.inkscape.org/namespaces/inkscape" width="55.300224mm" height="72.620193mm" viewBox="0 0 55.300224 72.620193" version="1.1" id="svg8" inkscape:version="0.92.5 (2060ec1f9f, 2020-04-08)" sodipodi:docname="Kaktovik table.svg">
  <defs id="defs2">
    <clipPath id="clipPath4613" clipPathUnits="userSpaceOnUse">
      <path style="clip-rule:evenodd" inkscape:connector-curvature="0" id="path4611" d="M 0,0.028 H 611.971 V 791.999 H 0 Z"/>
    </clipPath>
  </defs>
  <sodipodi:namedview id="base" pagecolor="#ffffff" bordercolor="#666666" borderopacity="1.0" inkscape:pageopacity="0.0" inkscape:pageshadow="2" inkscape:zoom="1.4" inkscape:cx="193.46161" inkscape:cy="36.890581" inkscape:document-units="mm" inkscape:current-layer="layer1" showgrid="false" inkscape:window-width="1920" inkscape:window-height="1009" inkscape:window-x="0" inkscape:window-y="0" inkscape:window-maximized="1"/>
  <metadata id="metadata5">
    <rdf:RDF>
      <cc:Work rdf:about="">
        <dc:format>image/svg+xml</dc:format>
        <dc:type rdf:resource="http://purl.org/dc/dcmitype/StillImage"/>
        <dc:title/>
      </cc:Work>
    </rdf:RDF>
  </metadata>
  <g inkscape:label="Layer 1" inkscape:groupmode="layer" id="layer1" transform="translate(248.31216,-212.81993)">
    <path d="m -248.23216,212.89993 h 55.14023 v 72.4602 h -55.14023 z" style="fill:#f5eadc;fill-opacity:1;fill-rule:evenodd;stroke:none;stroke-width:0.35277778" id="path4617" inkscape:connector-curvature="0"/>
    <path inkscape:connector-curvature="0" id="path4621" style="fill:none;stroke:#bb7616;stroke-width:0.1599953;stroke-linecap:butt;stroke-linejoin:miter;stroke-miterlimit:3.86370325;stroke-dasharray:none;stroke-opacity:1" d="m -248.23216,212.89993 h 55.14023 v 72.4602 h -55.14023 z"/>
    <path d="m -230.15194,242.22 c -1.18004,-0.52987 -3.26002,-6.90986 -3.26002,-6.90986 1.03999,-0.43004 1.13982,0.01 4.70993,-1.58997 0.54011,-0.48013 0.55986,-1.35996 0.55986,-1.35996 -0.82973,0.86995 -5.00979,2.22991 -6.5599,2.33998 0.71014,0.31997 2.54988,6.5599 2.82998,6.7698 0.36019,0.50024 1.72015,0.75001 1.72015,0.75001 z" style="fill:#333455;fill-opacity:1;fill-rule:evenodd;stroke:none;stroke-width:0.35277778" id="path4623" inkscape:connector-curvature="0"/>
    <path inkscape:connector-curvature="0" id="path4627" style="fill:none;stroke:#333455;stroke-width:0.13999633;stroke-linecap:butt;stroke-linejoin:miter;stroke-miterlimit:3.86370325;stroke-dasharray:none;stroke-opacity:1" d="m -230.15194,242.22 c -1.18004,-0.52987 -3.26002,-6.90986 -3.26002,-6.90986 1.03999,-0.43004 1.13982,0.01 4.70993,-1.58997 0.54011,-0.48013 0.55986,-1.35996 0.55986,-1.35996 -0.82973,0.86995 -5.00979,2.22991 -6.5599,2.33998 0.71014,0.31997 2.54988,6.5599 2.82998,6.7698 0.36019,0.50024 1.72015,0.75001 1.72015,0.75001 z"/>
    <path d="m -213.75201,234.56013 c 0.57009,0.60008 1.47003,7.44996 1.76001,7.65987 0.25012,0 0.43004,0 0.43004,0 l 1.93004,-5.08988 c 0,0 0.96979,4.50991 1.18004,4.84011 0.31997,0.10971 0.92993,0.24977 0.92993,0.24977 -0.78,-0.69004 -1.67993,-6.44984 -1.67993,-6.44984 l -0.72002,0.0399 -1.64006,5.10998 -1.18005,-5.45006 c 0.81986,-0.50977 1.87008,-0.35984 4.71982,-1.62984 0.5401,-0.48013 0.5401,-1.58009 0.5401,-1.58009 -0.57009,1.32997 -5.74005,2.39995 -6.26992,2.30011 z" style="fill:#333455;fill-opacity:1;fill-rule:evenodd;stroke:none;stroke-width:0.35277778" id="path4629" inkscape:connector-curvature="0"/>
    <path inkscape:connector-curvature="0" id="path4633" style="fill:none;stroke:#333455;stroke-width:0.13999633;stroke-linecap:butt;stroke-linejoin:miter;stroke-miterlimit:3.86370325;stroke-dasharray:none;stroke-opacity:1" d="m -213.75201,234.56013 c 0.57009,0.60008 1.47003,7.44996 1.76001,7.65987 h 0.43004 l 1.93004,-5.08988 c 0,0 0.96979,4.50991 1.18004,4.84011 0.31997,0.10971 0.92993,0.24977 0.92993,0.24977 -0.78,-0.69004 -1.67993,-6.44984 -1.67993,-6.44984 l -0.72002,0.0399 -1.64006,5.10998 -1.18005,-5.45006 c 0.81986,-0.50977 1.87008,-0.35984 4.71982,-1.62984 0.5401,-0.48013 0.5401,-1.58009 0.5401,-1.58009 -0.57009,1.32997 -5.74005,2.39995 -6.26992,2.30011 z"/>
    <path d="m -203.26216,234.83001 c 0.56021,0.57009 1.11019,7.18996 1.38994,7.38999 0.24024,0 0.68016,0.14005 0.68016,0.14005 l 1.03011,-4.70994 c 0,0 0.75988,4.41008 0.96978,4.70994 0.22014,0 0.49001,0 0.49001,0 0.8001,-3.83999 0.97014,-5.6201 1.73003,-6.14997 -0.17004,-0.0699 -0.61984,0.03 -0.86008,0.29986 -0.37994,0.40005 -1.03999,4.21005 -1.03999,4.21005 l -0.9398,-4.67995 h -0.62018 l -0.99977,4.75015 c 0,0 -0.8001,-5.22993 -0.86007,-5.31001 0.81985,-0.51012 1.85984,-0.36019 4.73004,-1.63019 0.5401,-0.49001 0.5401,-1.58997 0.5401,-1.58997 -0.58032,1.34021 -5.75027,2.56011 -6.28015,2.45004 z" style="fill:#333455;fill-opacity:1;fill-rule:evenodd;stroke:none;stroke-width:0.35277778" id="path4635" inkscape:connector-curvature="0"/>
    <path inkscape:connector-curvature="0" id="path4639" style="fill:none;stroke:#333455;stroke-width:0.13999633;stroke-linecap:butt;stroke-linejoin:miter;stroke-miterlimit:3.86370325;stroke-dasharray:none;stroke-opacity:1" d="m -203.26216,234.83001 c 0.56021,0.57009 1.11019,7.18996 1.38994,7.38999 0.24024,0 0.68016,0.14005 0.68016,0.14005 l 1.03011,-4.70994 c 0,0 0.75988,4.41008 0.96978,4.70994 h 0.49001 c 0.8001,-3.83999 0.97014,-5.6201 1.73003,-6.14997 -0.17004,-0.0699 -0.61984,0.03 -0.86008,0.29986 -0.37994,0.40005 -1.03999,4.21005 -1.03999,4.21005 l -0.9398,-4.67995 h -0.62018 l -0.99977,4.75015 c 0,0 -0.8001,-5.22993 -0.86007,-5.31001 0.81985,-0.51012 1.85984,-0.36019 4.73004,-1.63019 0.5401,-0.49001 0.5401,-1.58997 0.5401,-1.58997 -0.58032,1.34021 -5.75027,2.56011 -6.28015,2.45004 z"/>
    <path d="m -234.852,251.50017 c 0.74013,0.49001 3.00002,7.36 3.3401,7.50993 0.26987,0.29986 0.50976,0.34996 1.11972,0.35984 -1.08973,-1.14971 -1.39983,-2.41971 -3.18982,-6.87988 1.68981,-0.78987 5.25992,-1.41005 5.25992,-1.41005 v -0.89993 c 0,0 -5.74993,-1.61996 -6.12987,-2.34986 0,0.34996 0,0.92992 0.30974,1.25977 0.48013,0.17992 4.34022,1.49014 4.34022,1.49014 0,0 -4.18006,1.09996 -5.05001,0.92004 z" style="fill:#333455;fill-opacity:1;fill-rule:evenodd;stroke:none;stroke-width:0.35277778" id="path4641" inkscape:connector-curvature="0"/>
    <path inkscape:connector-curvature="0" id="path4645" style="fill:none;stroke:#333455;stroke-width:0.13999633;stroke-linecap:butt;stroke-linejoin:miter;stroke-miterlimit:3.86370325;stroke-dasharray:none;stroke-opacity:1" d="m -234.852,251.50017 c 0.74013,0.49001 3.00002,7.36 3.3401,7.50993 0.26987,0.29986 0.50976,0.34996 1.11972,0.35984 -1.08973,-1.14971 -1.39983,-2.41971 -3.18982,-6.87988 1.68981,-0.78987 5.25992,-1.41005 5.25992,-1.41005 v -0.89993 c 0,0 -5.74993,-1.61996 -6.12987,-2.34986 0,0.34996 0,0.92992 0.30974,1.25977 0.48013,0.17992 4.34022,1.49014 4.34022,1.49014 0,0 -4.18006,1.09996 -5.05001,0.92004 z"/>
    <path d="m -224.61192,251.74006 c 0.72002,0.31997 2.64971,7.58013 2.94005,7.79991 0.24977,0 0.53975,0 0.53975,0 0,0 2.41018,-6.07977 2.94005,-6.55002 -0.49989,0.0402 -0.60995,0.0402 -0.9398,0.31997 -0.11007,0.25012 -2.22003,5.23028 -2.22003,5.23028 l -2.04011,-5.93019 c 1.59984,-0.81986 5.45006,-1.48978 5.45006,-1.48978 v -0.90029 c 0,0 -5.74993,-1.63971 -6.13022,-2.35973 0,0.34995 0,0.92992 0.30021,1.24989 0.49001,0.19015 4.33988,1.50989 4.33988,1.50989 0,0 -4.56989,1.29999 -5.17984,1.12007 z" style="fill:#333455;fill-opacity:1;fill-rule:evenodd;stroke:none;stroke-width:0.35277778" id="path4647" inkscape:connector-curvature="0"/>
    <path inkscape:connector-curvature="0" id="path4651" style="fill:none;stroke:#333455;stroke-width:0.13999633;stroke-linecap:butt;stroke-linejoin:miter;stroke-miterlimit:3.86370325;stroke-dasharray:none;stroke-opacity:1" d="m -224.61192,251.74006 c 0.72002,0.31997 2.64971,7.58013 2.94005,7.79991 h 0.53975 c 0,0 2.41018,-6.07977 2.94005,-6.55002 -0.49989,0.0402 -0.60995,0.0402 -0.9398,0.31997 -0.11007,0.25012 -2.22003,5.23028 -2.22003,5.23028 l -2.04011,-5.93019 c 1.59984,-0.81986 5.45006,-1.48978 5.45006,-1.48978 v -0.90029 c 0,0 -5.74993,-1.63971 -6.13022,-2.35973 0,0.34995 0,0.92992 0.30021,1.24989 0.49001,0.19015 4.33988,1.50989 4.33988,1.50989 0,0 -4.56989,1.29999 -5.17984,1.12007 z"/>
    <path d="m -214.08221,251.36999 c 0.57009,0.62019 1.54023,7.9502 1.83021,8.16998 0.25012,0 0.43004,0 0.43004,0 l 1.93005,-5.07999 c 0,0 0.98001,4.50003 1.18991,4.83023 0.31997,0.0998 0.92993,0.24976 0.92993,0.24976 -0.77999,-0.6798 -1.67993,-6.43995 -1.67993,-6.43995 l -0.7299,0.03 -1.64006,5.12022 -1.17017,-5.82013 c 1.64007,-0.80998 5.36999,-1.47002 5.36999,-1.47002 v -0.89006 c 0,0 -5.75981,-1.62983 -6.13975,-2.34985 0,0.34995 0,0.92004 0.29986,1.24989 0.49001,0.19014 4.35998,1.49013 4.35998,1.49013 0,0 -4.12009,1.16981 -4.98016,0.90981 z" style="fill:#333455;fill-opacity:1;fill-rule:evenodd;stroke:none;stroke-width:0.35277778" id="path4653" inkscape:connector-curvature="0"/>
    <path inkscape:connector-curvature="0" id="path4657" style="fill:none;stroke:#333455;stroke-width:0.13999633;stroke-linecap:butt;stroke-linejoin:miter;stroke-miterlimit:3.86370325;stroke-dasharray:none;stroke-opacity:1" d="m -214.08221,251.36999 c 0.57009,0.62019 1.54023,7.9502 1.83021,8.16998 h 0.43004 l 1.93005,-5.07999 c 0,0 0.98001,4.50003 1.18991,4.83023 0.31997,0.0998 0.92993,0.24976 0.92993,0.24976 -0.77999,-0.6798 -1.67993,-6.43995 -1.67993,-6.43995 l -0.7299,0.03 -1.64006,5.12022 -1.17017,-5.82013 c 1.64007,-0.80998 5.36999,-1.47002 5.36999,-1.47002 v -0.89006 c 0,0 -5.75981,-1.62983 -6.13975,-2.34985 0,0.34995 0,0.92004 0.29986,1.24989 0.49001,0.19014 4.35998,1.49013 4.35998,1.49013 0,0 -4.12009,1.16981 -4.98016,0.90981 z"/>
    <path d="m -203.41209,251.51993 c 0.54998,0.57008 1.38006,7.82002 1.66017,8.02004 0.23989,0 0.40993,0 0.40993,0 l 1.03999,-4.71981 c 0,0 0.75988,4.41995 0.96978,4.71981 0.20003,0 0.48013,0 0.48013,0 0.78987,-3.84986 0.97014,-5.62998 1.7399,-6.15985 -0.18979,-0.0702 -0.62971,0.03 -0.87983,0.29986 -0.37994,0.40005 -1.03011,4.21993 -1.03011,4.21993 l -0.9398,-4.68983 h -0.62018 l -0.99977,4.75016 -0.86007,-5.54003 c 1.56986,-0.6103 5.46982,-1.28023 5.46982,-1.28023 v -0.89005 c 0,0 -5.75981,-1.63972 -6.13975,-2.35974 0,0.34996 0,0.92005 0.29986,1.2499 0.49001,0.19014 4.3501,1.50001 4.3501,1.50001 0,0 -4.02025,0.98989 -4.95017,0.87983 z" style="fill:#333455;fill-opacity:1;fill-rule:evenodd;stroke:none;stroke-width:0.35277778" id="path4659" inkscape:connector-curvature="0"/>
    <path inkscape:connector-curvature="0" id="path4663" style="fill:none;stroke:#333455;stroke-width:0.13999633;stroke-linecap:butt;stroke-linejoin:miter;stroke-miterlimit:3.86370325;stroke-dasharray:none;stroke-opacity:1" d="m -203.41209,251.51993 c 0.54998,0.57008 1.38006,7.82002 1.66017,8.02004 h 0.40993 l 1.03999,-4.71981 c 0,0 0.75988,4.41995 0.96978,4.71981 h 0.48013 c 0.78987,-3.84986 0.97014,-5.62998 1.7399,-6.15985 -0.18979,-0.0702 -0.62971,0.03 -0.87983,0.29986 -0.37994,0.40005 -1.03011,4.21993 -1.03011,4.21993 l -0.9398,-4.68983 h -0.62018 l -0.99977,4.75016 -0.86007,-5.54003 c 1.56986,-0.6103 5.46982,-1.28023 5.46982,-1.28023 v -0.89005 c 0,0 -5.75981,-1.63972 -6.13975,-2.35974 0,0.34996 0,0.92005 0.29986,1.2499 0.49001,0.19014 4.3501,1.50001 4.3501,1.50001 0,0 -4.02025,0.98989 -4.95017,0.87983 z"/>
    <path d="m -233.61199,270.50995 c 1.42981,-0.69991 4.96994,-1.27988 4.96994,-1.27988 v -0.74012 l -3.95006,-1.17969 4.09011,-0.83009 c 0.57009,-0.3302 0.57009,-1.09008 0.57009,-1.09008 -0.48013,0.66992 -5.82013,1.38007 -6.00005,1.70991 0,0.28999 0,0.50024 0,0.50024 l 3.66995,1.1998 c 0,0 -3.80012,1.15005 -4.52014,1.18004 0.74013,0.48013 2.81023,6.92997 3.16018,7.0799 0.26,0.2801 0.50977,0.34008 1.13983,0.36018 -1.12007,-1.12994 -1.27,-2.3502 -3.12985,-6.91021 z" style="fill:#333455;fill-opacity:1;fill-rule:evenodd;stroke:none;stroke-width:0.35277778" id="path4665" inkscape:connector-curvature="0"/>
    <path inkscape:connector-curvature="0" id="path4669" style="fill:none;stroke:#333455;stroke-width:0.13999633;stroke-linecap:butt;stroke-linejoin:miter;stroke-miterlimit:3.86370325;stroke-dasharray:none;stroke-opacity:1" d="m -233.61199,270.50995 c 1.42981,-0.69991 4.96994,-1.27988 4.96994,-1.27988 v -0.74012 l -3.95006,-1.17969 4.09011,-0.83009 c 0.57009,-0.3302 0.57009,-1.09008 0.57009,-1.09008 -0.48013,0.66992 -5.82013,1.38007 -6.00005,1.70991 v 0.50024 l 3.66995,1.1998 c 0,0 -3.80012,1.15005 -4.52014,1.18004 0.74013,0.48013 2.81023,6.92997 3.16018,7.0799 0.26,0.2801 0.50977,0.34008 1.13983,0.36018 -1.12007,-1.12994 -1.27,-2.3502 -3.12985,-6.91021 z"/>
    <path d="m -223.34192,270.76995 c 1.53987,-0.65969 4.79002,-1.18992 4.79002,-1.18992 v -0.73977 l -3.9303,-1.18005 4.08023,-0.83008 c 0.57009,-0.34008 0.57009,-1.08021 0.57009,-1.08021 -0.49001,0.66005 -5.83001,1.37019 -6.00005,1.70004 0,0.28998 0,0.50024 0,0.50024 l 3.66995,1.19979 c 0,0 -3.3401,0.82021 -4.50991,0.89994 0.70979,0.32032 2.64971,7.30003 2.93969,7.52016 0.25012,0 0.53023,0 0.53023,0 0,0 2.39995,-6.09 2.94005,-6.5599 -0.50024,0.0399 -0.60995,0.0399 -0.93028,0.31997 -0.10971,0.24977 -2.21967,5.23981 -2.21967,5.23981 l -1.98014,-5.91996 z" style="fill:#333455;fill-opacity:1;fill-rule:evenodd;stroke:none;stroke-width:0.35277778" id="path4671" inkscape:connector-curvature="0"/>
    <path inkscape:connector-curvature="0" id="path4675" style="fill:none;stroke:#333455;stroke-width:0.13999633;stroke-linecap:butt;stroke-linejoin:miter;stroke-miterlimit:3.86370325;stroke-dasharray:none;stroke-opacity:1" d="m -223.34192,270.76995 c 1.53987,-0.65969 4.79002,-1.18992 4.79002,-1.18992 v -0.73977 l -3.9303,-1.18005 4.08023,-0.83008 c 0.57009,-0.34008 0.57009,-1.08021 0.57009,-1.08021 -0.49001,0.66005 -5.83001,1.37019 -6.00005,1.70004 v 0.50024 l 3.66995,1.19979 c 0,0 -3.3401,0.82021 -4.50991,0.89994 0.70979,0.32032 2.64971,7.30003 2.93969,7.52016 h 0.53023 c 0,0 2.39995,-6.09 2.94005,-6.5599 -0.50024,0.0399 -0.60995,0.0399 -0.93028,0.31997 -0.10971,0.24977 -2.21967,5.23981 -2.21967,5.23981 l -1.98014,-5.91996 z"/>
    <path d="m -213.94216,269.65023 c 0.57997,0.60996 1.40018,7.55968 1.69016,7.76993 0.25012,0 0.43004,0 0.43004,0 l 1.93005,-5.09023 c 0,0 0.98001,4.52014 1.18991,4.84011 0.31997,0.11007 0.92993,0.25012 0.92993,0.25012 -0.77999,-0.68015 -1.67993,-6.43995 -1.67993,-6.43995 l -0.7299,0.03 -1.64006,5.12974 -1.12995,-5.55977 c 1.54975,-0.66005 4.76003,-1.18005 4.76003,-1.18005 v -0.74012 l -3.95005,-1.18005 4.08975,-0.82973 c 0.57009,-0.3302 0.57009,-1.0802 0.57009,-1.0802 -0.49001,0.66004 -5.83001,1.37018 -6.00004,1.70003 0,0.28998 0,0.49989 0,0.49989 l 3.66007,1.20015 c 0,0 -3.11009,0.78987 -4.1201,0.68015 z" style="fill:#333455;fill-opacity:1;fill-rule:evenodd;stroke:none;stroke-width:0.35277778" id="path4677" inkscape:connector-curvature="0"/>
    <path inkscape:connector-curvature="0" id="path4681" style="fill:none;stroke:#333455;stroke-width:0.13999633;stroke-linecap:butt;stroke-linejoin:miter;stroke-miterlimit:3.86370325;stroke-dasharray:none;stroke-opacity:1" d="m -213.94216,269.65023 c 0.57997,0.60996 1.40018,7.55968 1.69016,7.76993 h 0.43004 l 1.93005,-5.09023 c 0,0 0.98001,4.52014 1.18991,4.84011 0.31997,0.11007 0.92993,0.25012 0.92993,0.25012 -0.77999,-0.68015 -1.67993,-6.43995 -1.67993,-6.43995 l -0.7299,0.03 -1.64006,5.12974 -1.12995,-5.55977 c 1.54975,-0.66005 4.76003,-1.18005 4.76003,-1.18005 v -0.74012 l -3.95005,-1.18005 4.08975,-0.82973 c 0.57009,-0.3302 0.57009,-1.0802 0.57009,-1.0802 -0.49001,0.66004 -5.83001,1.37018 -6.00004,1.70003 v 0.49989 l 3.66007,1.20015 c 0,0 -3.11009,0.78987 -4.1201,0.68015 z"/>
    <path d="m -202.61199,270.59991 c 1.52999,-0.66992 4.79989,-1.1998 4.79989,-1.1998 v -0.74012 l -3.93982,-1.18005 4.07987,-0.82973 c 0.57009,-0.3302 0.57009,-1.0802 0.57009,-1.0802 -0.48013,0.66004 -5.82012,1.37018 -6.00004,1.70003 0,0.28998 0,0.49989 0,0.49989 l 3.67982,1.20015 c 0,0 -3.23991,0.81985 -4.30988,0.72002 0.54998,0.57009 1.41993,7.53004 1.69016,7.73006 0.23988,0 0.4198,0 0.4198,0 l 1.03011,-4.72016 c 0,0 0.75989,4.41995 0.98002,4.72016 0.2099,0 0.47978,0 0.47978,0 0.8001,-3.85021 0.97014,-5.62998 1.73002,-6.1602 -0.17004,-0.0698 -0.61983,0.03 -0.85972,0.30021 -0.38029,0.40005 -1.03999,4.22981 -1.03999,4.22981 l -0.94015,-4.70006 h -0.62019 l -0.99977,4.76003 c 0,0 -0.74013,-5.32977 -0.8001,-5.40985 z" style="fill:#333455;fill-opacity:1;fill-rule:evenodd;stroke:none;stroke-width:0.35277778" id="path4683" inkscape:connector-curvature="0"/>
    <path inkscape:connector-curvature="0" id="path4687" style="fill:none;stroke:#333455;stroke-width:0.13999633;stroke-linecap:butt;stroke-linejoin:miter;stroke-miterlimit:3.86370325;stroke-dasharray:none;stroke-opacity:1" d="m -202.61199,270.59991 c 1.52999,-0.66992 4.79989,-1.1998 4.79989,-1.1998 v -0.74012 l -3.93982,-1.18005 4.07987,-0.82973 c 0.57009,-0.3302 0.57009,-1.0802 0.57009,-1.0802 -0.48013,0.66004 -5.82012,1.37018 -6.00004,1.70003 v 0.49989 l 3.67982,1.20015 c 0,0 -3.23991,0.81985 -4.30988,0.72002 0.54998,0.57009 1.41993,7.53004 1.69016,7.73006 h 0.4198 l 1.03011,-4.72016 c 0,0 0.75989,4.41995 0.98002,4.72016 h 0.47978 c 0.8001,-3.85021 0.97014,-5.62998 1.73002,-6.1602 -0.17004,-0.0698 -0.61983,0.03 -0.85972,0.30021 -0.38029,0.40005 -1.03999,4.22981 -1.03999,4.22981 l -0.94015,-4.70006 h -0.62019 l -0.99977,4.76003 c 0,0 -0.74013,-5.32977 -0.8001,-5.40985 z"/>
    <path d="m -243.59207,221.29005 c 0,-0.49001 0.4699,-0.89994 0.65017,-0.89994 0.1397,0 0.63994,0.40993 0.63994,0.89994 0,0.49988 -0.28011,0.89993 -0.63994,0.89993 -0.36019,0 -0.65017,-0.40005 -0.65017,-0.89993 z m 0.89994,-1.79988 -1.50001,-1.14017 -0.35984,0.72001 c 0.15981,0.06 0.37007,0.60008 0.86007,0.92993 -0.31997,0.39017 -0.50023,0.75 -0.47025,1.44004 0.06,1.03998 0.73025,1.32997 1.40018,1.32997 0.66004,0 1.13982,-0.26 1.2901,-1.32997 0.09,-0.66005 -0.27022,-1.27 -0.65016,-1.47991 0.55985,-0.37006 1.09008,-0.92992 1.12006,-0.89006 0.0699,-0.17991 0.32985,-0.17991 0.11007,-0.86007 -0.22013,0.39017 -1.80022,1.28023 -1.80022,1.28023 z" style="fill:#333455;fill-opacity:1;fill-rule:evenodd;stroke:none;stroke-width:0.35277778" id="path4689" inkscape:connector-curvature="0"/>
    <text id="text4695" style="font-variant:normal;font-weight:normal;font-size:2.71109629px;font-family:DejaVuSans;-inkscape-font-specification:DejaVuSans;writing-mode:lr-tb;fill:#333455;fill-opacity:1;fill-rule:nonzero;stroke:none;stroke-width:0.33441424" transform="scale(0.94794589,1.0549125)" x="-256.73611" y="216.75723">
      <tspan id="tspan4693" y="216.75723" x="-256.73611" style="stroke-width:0.33441424">0</tspan>
    </text>
    <text id="text4701" style="font-variant:normal;font-weight:normal;font-size:2.71109629px;font-family:DejaVuSans;-inkscape-font-specification:DejaVuSans;writing-mode:lr-tb;fill:#333455;fill-opacity:1;fill-rule:nonzero;stroke:none;stroke-width:0.33441424" transform="scale(0.94794589,1.0549125)" x="-244.93188" y="216.75723">
      <tspan id="tspan4699" y="216.75723" x="-244.93188" style="stroke-width:0.33441424">1</tspan>
    </text>
    <text id="text4707" style="font-variant:normal;font-weight:normal;font-size:2.71109629px;font-family:DejaVuSans;-inkscape-font-specification:DejaVuSans;writing-mode:lr-tb;fill:#333455;fill-opacity:1;fill-rule:nonzero;stroke:none;stroke-width:0.33441424" transform="scale(0.94794589,1.0549125)" x="-233.91849" y="216.75723">
      <tspan id="tspan4705" y="216.75723" x="-233.91849" style="stroke-width:0.33441424">2</tspan>
    </text>
    <text id="text4713" style="font-variant:normal;font-weight:normal;font-size:2.71109629px;font-family:DejaVuSans;-inkscape-font-specification:DejaVuSans;writing-mode:lr-tb;fill:#333455;fill-opacity:1;fill-rule:nonzero;stroke:none;stroke-width:0.33441424" transform="scale(0.94794589,1.0549125)" x="-222.7153" y="216.75723">
      <tspan id="tspan4711" y="216.75723" x="-222.7153" style="stroke-width:0.33441424">3</tspan>
    </text>
    <text id="text4719" style="font-variant:normal;font-weight:normal;font-size:2.71109629px;font-family:DejaVuSans;-inkscape-font-specification:DejaVuSans;writing-mode:lr-tb;fill:#333455;fill-opacity:1;fill-rule:nonzero;stroke:none;stroke-width:0.33441424" transform="scale(0.94794589,1.0549125)" x="-211.7019" y="216.75723">
      <tspan id="tspan4717" y="216.75723" x="-211.7019" style="stroke-width:0.33441424">4</tspan>
    </text>
    <text id="text4725" style="font-variant:normal;font-weight:normal;font-size:2.71109629px;font-family:DejaVuSans;-inkscape-font-specification:DejaVuSans;writing-mode:lr-tb;fill:#333455;fill-opacity:1;fill-rule:nonzero;stroke:none;stroke-width:0.33441424" transform="scale(0.94794589,1.0549125)" x="-256.73611" y="233.10942">
      <tspan id="tspan4723" y="233.10942" x="-256.73611" style="stroke-width:0.33441424">5</tspan>
    </text>
    <text id="text4731" style="font-variant:normal;font-weight:normal;font-size:2.71109629px;font-family:DejaVuSans;-inkscape-font-specification:DejaVuSans;writing-mode:lr-tb;fill:#333455;fill-opacity:1;fill-rule:nonzero;stroke:none;stroke-width:0.33441424" transform="scale(0.94794589,1.0549125)" x="-244.93188" y="233.10942">
      <tspan id="tspan4729" y="233.10942" x="-244.93188" style="stroke-width:0.33441424">6</tspan>
    </text>
    <text id="text4737" style="font-variant:normal;font-weight:normal;font-size:2.71109629px;font-family:DejaVuSans;-inkscape-font-specification:DejaVuSans;writing-mode:lr-tb;fill:#333455;fill-opacity:1;fill-rule:nonzero;stroke:none;stroke-width:0.33441424" transform="scale(0.94794589,1.0549125)" x="-233.91849" y="233.10942">
      <tspan id="tspan4735" y="233.10942" x="-233.91849" style="stroke-width:0.33441424">7</tspan>
    </text>
    <text id="text4743" style="font-variant:normal;font-weight:normal;font-size:2.71109629px;font-family:DejaVuSans;-inkscape-font-specification:DejaVuSans;writing-mode:lr-tb;fill:#333455;fill-opacity:1;fill-rule:nonzero;stroke:none;stroke-width:0.33441424" transform="scale(0.94794589,1.0549125)" x="-222.7153" y="233.10942">
      <tspan id="tspan4741" y="233.10942" x="-222.7153" style="stroke-width:0.33441424">8</tspan>
    </text>
    <text id="text4749" style="font-variant:normal;font-weight:normal;font-size:2.71109629px;font-family:DejaVuSans;-inkscape-font-specification:DejaVuSans;writing-mode:lr-tb;fill:#333455;fill-opacity:1;fill-rule:nonzero;stroke:none;stroke-width:0.33441424" transform="scale(0.94794589,1.0549125)" x="-211.7019" y="233.10942">
      <tspan id="tspan4747" y="233.10942" x="-211.7019" style="stroke-width:0.33441424">9</tspan>
    </text>
    <text id="text4755" style="font-variant:normal;font-weight:normal;font-size:2.71109629px;font-family:DejaVuSans;-inkscape-font-specification:DejaVuSans;writing-mode:lr-tb;fill:#333455;fill-opacity:1;fill-rule:nonzero;stroke:none;stroke-width:0.33441424" transform="scale(0.94794589,1.0549125)" x="-257.59055" y="249.49004">
      <tspan id="tspan4753" sodipodi:role="line" y="249.49004" x="-257.59055 -255.88257" style="stroke-width:0.33441424">10</tspan>
    </text>
    <text id="text4761" style="font-variant:normal;font-weight:normal;font-size:2.71109629px;font-family:DejaVuSans;-inkscape-font-specification:DejaVuSans;writing-mode:lr-tb;fill:#333455;fill-opacity:1;fill-rule:nonzero;stroke:none;stroke-width:0.33441424" transform="scale(0.94794589,1.0549125)" x="-245.79677" y="249.49004">
      <tspan id="tspan4759" sodipodi:role="line" y="249.49004" x="-245.79677 -244.02641" style="stroke-width:0.33441424">11</tspan>
    </text>
    <text id="text4767" style="font-variant:normal;font-weight:normal;font-size:2.71109629px;font-family:DejaVuSans;-inkscape-font-specification:DejaVuSans;writing-mode:lr-tb;fill:#333455;fill-opacity:1;fill-rule:nonzero;stroke:none;stroke-width:0.33441424" transform="scale(0.94794589,1.0549125)" x="-234.77295" y="249.49004">
      <tspan id="tspan4765" sodipodi:role="line" y="249.49004" x="-234.77295 -233.06496" style="stroke-width:0.33441424">12</tspan>
    </text>
    <text id="text4773" style="font-variant:normal;font-weight:normal;font-size:2.71109629px;font-family:DejaVuSans;-inkscape-font-specification:DejaVuSans;writing-mode:lr-tb;fill:#333455;fill-opacity:1;fill-rule:nonzero;stroke:none;stroke-width:0.33441424" transform="scale(0.94794589,1.0549125)" x="-223.58018" y="249.49004">
      <tspan id="tspan4771" sodipodi:role="line" y="249.49004" x="-223.58018 -221.87219" style="stroke-width:0.33441424">13</tspan>
    </text>
    <text id="text4779" style="font-variant:normal;font-weight:normal;font-size:2.71109629px;font-family:DejaVuSans;-inkscape-font-specification:DejaVuSans;writing-mode:lr-tb;fill:#333455;fill-opacity:1;fill-rule:nonzero;stroke:none;stroke-width:0.33441424" transform="scale(0.94794589,1.0549125)" x="-212.55635" y="249.49004">
      <tspan id="tspan4777" sodipodi:role="line" y="249.49004" x="-212.55635 -210.84836" style="stroke-width:0.33441424">14</tspan>
    </text>
    <text id="text4785" style="font-variant:normal;font-weight:normal;font-size:2.71109629px;font-family:DejaVuSans;-inkscape-font-specification:DejaVuSans;writing-mode:lr-tb;fill:#333455;fill-opacity:1;fill-rule:nonzero;stroke:none;stroke-width:0.33441424" transform="scale(0.94794589,1.0549125)" x="-257.59055" y="265.91779">
      <tspan id="tspan4783" sodipodi:role="line" y="265.91779" x="-257.59055 -255.88257" style="stroke-width:0.33441424">15</tspan>
    </text>
    <text id="text4791" style="font-variant:normal;font-weight:normal;font-size:2.71109629px;font-family:DejaVuSans;-inkscape-font-specification:DejaVuSans;writing-mode:lr-tb;fill:#333455;fill-opacity:1;fill-rule:nonzero;stroke:none;stroke-width:0.33441424" transform="scale(0.94794589,1.0549125)" x="-245.79677" y="265.91779">
      <tspan id="tspan4789" sodipodi:role="line" y="265.91779" x="-245.79677 -244.02641" style="stroke-width:0.33441424">16</tspan>
    </text>
    <text id="text4797" style="font-variant:normal;font-weight:normal;font-size:2.71109629px;font-family:DejaVuSans;-inkscape-font-specification:DejaVuSans;writing-mode:lr-tb;fill:#333455;fill-opacity:1;fill-rule:nonzero;stroke:none;stroke-width:0.33441424" transform="scale(0.94794589,1.0549125)" x="-234.77295" y="265.91779">
      <tspan id="tspan4795" sodipodi:role="line" y="265.91779" x="-234.77295 -233.06496" style="stroke-width:0.33441424">17</tspan>
    </text>
    <text id="text4803" style="font-variant:normal;font-weight:normal;font-size:2.71109629px;font-family:DejaVuSans;-inkscape-font-specification:DejaVuSans;writing-mode:lr-tb;fill:#333455;fill-opacity:1;fill-rule:nonzero;stroke:none;stroke-width:0.33441424" transform="scale(0.94794589,1.0549125)" x="-223.58018" y="265.91779">
      <tspan id="tspan4801" sodipodi:role="line" y="265.91779" x="-223.58018 -221.87219" style="stroke-width:0.33441424">18</tspan>
    </text>
    <path d="m -244.98201,236.61013 c 1.00012,-1.24002 1.75013,-0.82021 5.33012,-2.42006 0.52987,-0.48013 0.54998,-1.35996 0.54998,-1.35996 -0.47026,0.84984 -5.26027,1.96991 -5.42996,2.37984 -0.24024,0.28998 -0.3302,0.5902 -0.45014,1.40018 z" style="fill:#333455;fill-opacity:1;fill-rule:evenodd;stroke:none;stroke-width:0.35277778" id="path4805" inkscape:connector-curvature="0"/>
    <path inkscape:connector-curvature="0" id="path4809" style="fill:none;stroke:#333455;stroke-width:0.13999633;stroke-linecap:butt;stroke-linejoin:miter;stroke-miterlimit:3.86370325;stroke-dasharray:none;stroke-opacity:1" d="m -244.98201,236.61013 c 1.00012,-1.24002 1.75013,-0.82021 5.33012,-2.42006 0.52987,-0.48013 0.54998,-1.35996 0.54998,-1.35996 -0.47026,0.84984 -5.26027,1.96991 -5.42996,2.37984 -0.24024,0.28998 -0.3302,0.5902 -0.45014,1.40018 z"/>
    <path d="m -223.03218,235.31014 c 1.03999,-0.43004 1.1303,0.01 4.72017,-1.58997 0.5401,-0.48013 0.54998,-1.35996 0.54998,-1.35996 -0.81986,0.86995 -5.02003,2.22991 -6.55991,2.33998 0.72002,0.31997 2.65007,7.3099 2.94005,7.51981 0.24977,0 0.52988,0 0.52988,0 0,0 2.40982,-6.09001 2.94992,-6.55991 -0.49988,0.0399 -0.60995,0.0399 -0.92992,0.32985 -0.11007,0.25012 -2.22991,5.23029 -2.22991,5.23029 z" style="fill:#333455;fill-opacity:1;fill-rule:evenodd;stroke:none;stroke-width:0.35277778" id="path4811" inkscape:connector-curvature="0"/>
    <path inkscape:connector-curvature="0" id="path4815" style="fill:none;stroke:#333455;stroke-width:0.13999633;stroke-linecap:butt;stroke-linejoin:miter;stroke-miterlimit:3.86370325;stroke-dasharray:none;stroke-opacity:1" d="m -223.03218,235.31014 c 1.03999,-0.43004 1.1303,0.01 4.72017,-1.58997 0.5401,-0.48013 0.54998,-1.35996 0.54998,-1.35996 -0.81986,0.86995 -5.02003,2.22991 -6.55991,2.33998 0.72002,0.31997 2.65007,7.3099 2.94005,7.51981 h 0.52988 c 0,0 2.40982,-6.09001 2.94992,-6.55991 -0.49988,0.0399 -0.60995,0.0399 -0.92992,0.32985 -0.11007,0.25012 -2.22991,5.23029 -2.22991,5.23029 z"/>
    <path d="m -245.4819,271.48997 c 0.26987,-0.89994 5.55978,-1.76989 5.55978,-1.76989 v -0.74012 l -3.92995,-1.18005 4.07,-0.82973 c 0.57009,-0.3302 0.57009,-1.08021 0.57009,-1.08021 -0.48013,0.66005 -5.82013,1.37019 -6.00005,1.70004 0,0.28998 0,0.50024 0,0.50024 l 3.67983,1.1998 c 0,0 -3.41983,0.95991 -3.67983,1.21002 -0.26987,0.26 -0.26987,0.9899 -0.26987,0.9899 z" style="fill:#333455;fill-opacity:1;fill-rule:evenodd;stroke:none;stroke-width:0.35277778" id="path4817" inkscape:connector-curvature="0"/>
    <path inkscape:connector-curvature="0" id="path4821" style="fill:none;stroke:#333455;stroke-width:0.13999633;stroke-linecap:butt;stroke-linejoin:miter;stroke-miterlimit:3.86370325;stroke-dasharray:none;stroke-opacity:1" d="m -245.4819,271.48997 c 0.26987,-0.89994 5.55978,-1.76989 5.55978,-1.76989 v -0.74012 l -3.92995,-1.18005 4.07,-0.82973 c 0.57009,-0.3302 0.57009,-1.08021 0.57009,-1.08021 -0.48013,0.66005 -5.82013,1.37019 -6.00005,1.70004 v 0.50024 l 3.67983,1.1998 c 0,0 -3.41983,0.95991 -3.67983,1.21002 -0.26987,0.26 -0.26987,0.9899 -0.26987,0.9899 z"/>
    <path d="m -245.16193,247.61009 c 0,0.34995 0,0.92992 0.29986,1.24989 0.49001,0.19015 4.33987,1.50001 4.33987,1.50001 0,0 -4.05976,1.09009 -4.33987,1.38995 -0.29986,0.32032 -0.29986,1.20015 -0.29986,1.20015 0.29986,-1.07986 6.12987,-2.08986 6.12987,-2.08986 v -0.90029 c 0,0 -5.75981,-1.62983 -6.12987,-2.34985 z" style="fill:#333455;fill-opacity:1;fill-rule:evenodd;stroke:none;stroke-width:0.35277778" id="path4823" inkscape:connector-curvature="0"/>
    <path inkscape:connector-curvature="0" id="path4827" style="fill:none;stroke:#333455;stroke-width:0.13999633;stroke-linecap:butt;stroke-linejoin:miter;stroke-miterlimit:3.86370325;stroke-dasharray:none;stroke-opacity:1" d="m -245.16193,247.61009 c 0,0.34995 0,0.92992 0.29986,1.24989 0.49001,0.19015 4.33987,1.50001 4.33987,1.50001 0,0 -4.05976,1.09009 -4.33987,1.38995 -0.29986,0.32032 -0.29986,1.20015 -0.29986,1.20015 0.29986,-1.07986 6.12987,-2.08986 6.12987,-2.08986 v -0.90029 c 0,0 -5.75981,-1.62983 -6.12987,-2.34985 z"/>
    <path d="m -230.27189,225.06018 c -0.98001,-1.18004 -1.10031,-2.39995 -2.60032,-7.01992 -0.3997,-0.67028 -1.03999,-0.57009 -1.03999,-0.57009 0.67028,0.51999 2.28,7.01004 2.60032,7.18008 0.22966,0.28999 0.45967,0.35984 1.03999,0.40993 z" style="fill:#333455;fill-opacity:1;fill-rule:evenodd;stroke:none;stroke-width:0.35277778" id="path4829" inkscape:connector-curvature="0"/>
    <path inkscape:connector-curvature="0" id="path4833" style="fill:none;stroke:#333455;stroke-width:0.13999633;stroke-linecap:butt;stroke-linejoin:miter;stroke-miterlimit:3.86370325;stroke-dasharray:none;stroke-opacity:1" d="m -230.27189,225.06018 c -0.98001,-1.18004 -1.10031,-2.39995 -2.60032,-7.01992 -0.3997,-0.67028 -1.03999,-0.57009 -1.03999,-0.57009 0.67028,0.51999 2.28,7.01004 2.60032,7.18008 0.22966,0.28999 0.45967,0.35984 1.03999,0.40993 z"/>
    <path d="m -224.60204,217.53014 c 0.71014,0.31997 2.65006,7.30991 2.94005,7.51981 0.25012,0 0.5401,0 0.5401,0 0,0 2.39995,-6.09 2.92982,-6.5599 -0.49989,0.0399 -0.60995,0.0399 -0.92992,0.31997 -0.11007,0.25999 -2.22003,5.24016 -2.22003,5.24016 l -2.04999,-5.91009 c -0.31997,-0.57996 -1.21003,-0.60995 -1.21003,-0.60995 z" style="fill:#333455;fill-opacity:1;fill-rule:evenodd;stroke:none;stroke-width:0.35277778" id="path4835" inkscape:connector-curvature="0"/>
    <path inkscape:connector-curvature="0" id="path4839" style="fill:none;stroke:#333455;stroke-width:0.13999633;stroke-linecap:butt;stroke-linejoin:miter;stroke-miterlimit:3.86370325;stroke-dasharray:none;stroke-opacity:1" d="m -224.60204,217.53014 c 0.71014,0.31997 2.65006,7.30991 2.94005,7.51981 h 0.5401 c 0,0 2.39995,-6.09 2.92982,-6.5599 -0.49989,0.0399 -0.60995,0.0399 -0.92992,0.31997 -0.11007,0.25999 -2.22003,5.24016 -2.22003,5.24016 l -2.04999,-5.91009 c -0.31997,-0.57996 -1.21003,-0.60995 -1.21003,-0.60995 z"/>
    <path d="m -203.84213,216.99004 c 0.57009,0.60995 1.43016,7.85001 1.72015,8.05991 0.24976,0 0.43991,0 0.43991,0 l 1.06997,-5.03978 c 0,0 0.79023,4.71981 1.01001,5.03978 0.2099,0 0.49988,0 0.49988,0 0.82021,-4.10986 1.00013,-6.0198 1.79,-6.58989 -0.17992,-0.0699 -0.64982,0.03 -0.89994,0.31997 -0.38982,0.43004 -1.06997,4.52014 -1.06997,4.52014 l -0.96979,-5.02002 h -0.64029 l -1.04987,5.08987 -0.97014,-5.65996 c -0.27975,-0.72002 -0.92992,-0.72002 -0.92992,-0.72002 z" style="fill:#333455;fill-opacity:1;fill-rule:evenodd;stroke:none;stroke-width:0.35277778" id="path4841" inkscape:connector-curvature="0"/>
    <path inkscape:connector-curvature="0" id="path4845" style="fill:none;stroke:#333455;stroke-width:0.13999633;stroke-linecap:butt;stroke-linejoin:miter;stroke-miterlimit:3.86370325;stroke-dasharray:none;stroke-opacity:1" d="m -203.84213,216.99004 c 0.57009,0.60995 1.43016,7.85001 1.72015,8.05991 h 0.43991 l 1.06997,-5.03978 c 0,0 0.79023,4.71981 1.01001,5.03978 h 0.49988 c 0.82021,-4.10986 1.00013,-6.0198 1.79,-6.58989 -0.17992,-0.0699 -0.64982,0.03 -0.89994,0.31997 -0.38982,0.43004 -1.06997,4.52014 -1.06997,4.52014 l -0.96979,-5.02002 h -0.64029 l -1.04987,5.08987 -0.97014,-5.65996 c -0.27975,-0.72002 -0.92992,-0.72002 -0.92992,-0.72002 z"/>
    <path d="m -207.95199,225.04995 c -0.79022,-0.6798 -1.69016,-6.44984 -1.69016,-6.44984 l -0.72002,0.0399 -1.63971,5.12022 -1.22026,-6.05014 c -0.28998,-0.72002 -0.92992,-0.72002 -0.92992,-0.72002 0.57009,0.60995 1.43016,7.85001 1.72015,8.05991 0.24976,0 0.43003,0 0.43003,0 l 1.9297,-5.08 c 0,0 0.90028,4.51026 1.11019,4.83023 0.21978,0 1.01,0.24977 1.01,0.24977 z" style="fill:#333455;fill-opacity:1;fill-rule:evenodd;stroke:none;stroke-width:0.35277778" id="path4847" inkscape:connector-curvature="0"/>
    <path inkscape:connector-curvature="0" id="path4851" style="fill:none;stroke:#333455;stroke-width:0.06999817;stroke-linecap:butt;stroke-linejoin:miter;stroke-miterlimit:3.86370325;stroke-dasharray:none;stroke-opacity:1" d="m -207.95199,225.04995 c -0.79022,-0.6798 -1.69016,-6.44984 -1.69016,-6.44984 l -0.72002,0.0399 -1.63971,5.12022 -1.22026,-6.05014 c -0.28998,-0.72002 -0.92992,-0.72002 -0.92992,-0.72002 0.57009,0.60995 1.43016,7.85001 1.72015,8.05991 h 0.43003 l 1.9297,-5.08 c 0,0 0.90028,4.51026 1.11019,4.83023 0.21978,0 1.01,0.24977 1.01,0.24977 z"/>
    <path d="m -207.95199,225.04995 c -0.79022,-0.6798 -1.69016,-6.44984 -1.69016,-6.44984 l -0.72002,0.0399 -1.63971,5.12022 -1.22026,-6.05014 c -0.28998,-0.72002 -0.92992,-0.72002 -0.92992,-0.72002 0.57009,0.60995 1.43016,7.85001 1.72015,8.05991 0.24976,0 0.43003,0 0.43003,0 l 1.9297,-5.08 c 0,0 0.97013,4.51026 1.18004,4.83023 0.3302,0.11007 0.94015,0.24977 0.94015,0.24977 z" style="fill:#333455;fill-opacity:1;fill-rule:evenodd;stroke:none;stroke-width:0.35277778" id="path4853" inkscape:connector-curvature="0"/>
    <path inkscape:connector-curvature="0" id="path4857" style="fill:none;stroke:#333455;stroke-width:0.13999633;stroke-linecap:butt;stroke-linejoin:miter;stroke-miterlimit:3.86370325;stroke-dasharray:none;stroke-opacity:1" d="m -207.95199,225.04995 c -0.79022,-0.6798 -1.69016,-6.44984 -1.69016,-6.44984 l -0.72002,0.0399 -1.63971,5.12022 -1.22026,-6.05014 c -0.28998,-0.72002 -0.92992,-0.72002 -0.92992,-0.72002 0.57009,0.60995 1.43016,7.85001 1.72015,8.05991 h 0.43003 l 1.9297,-5.08 c 0,0 0.97013,4.51026 1.18004,4.83023 0.3302,0.11007 0.94015,0.24977 0.94015,0.24977 z"/>
    <text id="text4863" style="font-variant:normal;font-weight:normal;font-size:2.71109629px;font-family:DejaVuSans;-inkscape-font-specification:DejaVuSans;writing-mode:lr-tb;fill:#333455;fill-opacity:1;fill-rule:nonzero;stroke:none;stroke-width:0.33441424" transform="scale(0.94794589,1.0549125)" x="-212.55635" y="265.91779">
      <tspan id="tspan4861" sodipodi:role="line" y="265.91779" x="-212.55635 -210.84836" style="stroke-width:0.33441424">19</tspan>
    </text>
  </g>
</svg>