<?xml version="1.0" encoding="UTF-8" standalone="no"?>
<svg
   version="1.1"
   viewBox="0 0 36 36"
   id="svg5"
   sodipodi:docname="1f1f9-1f1ef.svg"
   inkscape:version="1.4-beta3 (01c8a1c, 2024-08-28, custom)"
   xmlns:inkscape="http://www.inkscape.org/namespaces/inkscape"
   xmlns:sodipodi="http://sodipodi.sourceforge.net/DTD/sodipodi-0.dtd"
   xmlns:xlink="http://www.w3.org/1999/xlink"
   xmlns="http://www.w3.org/2000/svg"
   xmlns:svg="http://www.w3.org/2000/svg">
  <defs
     id="defs5" />
  <sodipodi:namedview
     id="namedview5"
     pagecolor="#ffffff"
     bordercolor="#666666"
     borderopacity="1.0"
     inkscape:showpageshadow="2"
     inkscape:pageopacity="0.0"
     inkscape:pagecheckerboard="0"
     inkscape:deskcolor="#d1d1d1"
     inkscape:zoom="20.972222"
     inkscape:cx="18"
     inkscape:cy="18"
     inkscape:window-width="1680"
     inkscape:window-height="998"
     inkscape:window-x="-8"
     inkscape:window-y="-8"
     inkscape:window-maximized="1"
     inkscape:current-layer="svg5" />
  <path
     d="m0 13.5 2-1.5h32l2 1.5v9l-2 1.5h-32l-2-1.5z"
     fill="#fff"
     id="path1" />
  <path
     d="M32 5H4C1.791 5 0 6.791 0 9v4.5h36V9c0-2.209-1.791-4-4-4z"
     fill="#C00"
     id="path2" />
  <path
     d="m0 27c0 2.21 1.79 4 4 4h28c2.21 0 4-1.79 4-4v-4.5h-36v4.5z"
     fill="#060"
     id="path3" />
  <g
     fill="#FFAC33"
     id="g5">
    <path
       d="M16.13 21.455c-.408.116-.646-.272-.646-.272l.323-.145.156-.5.323.465h.364c.001-.001-.082.327-.52.452zm5.146.437c-.625-.188-2.082-.438-3.188-.438-1.104 0-2.562.25-3.188.438s-.479.791 0 .603 1.646-.375 3.188-.375c1.542 0 2.709.188 3.188.375.48.188.625-.415 0-.603zm-2.937-1.125l-.25-.417-.25.417-.438.188s.312.353.688.353.688-.353.688-.353l-.438-.188zm1.709.688c.408.116.646-.272.646-.272l-.323-.145-.156-.5-.322.465h-.365c-.002-.001.082.327.52.452z"
       id="path4" />
    <path
       d="M22.443 20.2c-.104-.267-.362.448-1.062.338-.792-.125-.958-.917-.958-.917s-.625.626-1.271.334c-.646-.292-.812-.708-.812-1.167 0-.459-.059-.796 0-.979.094-.292.438-.501.792-.167.292-.416-.208-1.291-1.042-1.291-.833 0-1.333.875-1.042 1.291.354-.333.698-.125.792.167.059.183 0 .52 0 .979 0 .459-.167.875-.812 1.167s-1.271-.334-1.271-.334-.167.792-.958.917c-.7.11-.958-.605-1.062-.338-.104.267.458 1.067 1.25.808.792-.26.896-.928.896-.928s.407.749 1.354.458c.714-.22.854-.896.854-.896s.141.676.854.896c.948.291 1.354-.458 1.354-.458s.104.668.896.928c.79.259 1.353-.542 1.248-.808zm-5.042-3.1c.207-.44.688-.375.688-.375s.48-.065.688.375c-.354.041-.688.312-.688.312s-.334-.27-.688-.312zm-4.062.994l.197.61h.641l-.518.377.198.608-.518-.377-.518.377.197-.608-.518-.377h.641zm.625-2.229l.197.61h.641l-.518.377.198.608-.518-.377-.518.377.197-.608-.518-.377h.641zm1.676-1.792l.198.61h.641l-.518.377.197.608-.518-.377-.518.377.198-.608-.518-.377h.641zm2.449-.604l.197.609h.641l-.518.377.198.608-.518-.377-.518.377.197-.608-.518-.377h.641zm4.572 4.625l-.197.61h-.641l.518.377-.198.608.518-.377.518.377-.198-.608.519-.377h-.641zm-.625-2.229l-.197.61h-.641l.518.377-.198.608.518-.377.518.377-.198-.608.519-.377h-.641zm-1.676-1.792l-.198.61h-.641l.519.377-.198.608.518-.377.518.377-.198-.608.518-.377h-.641z"
       id="path5" />
  </g>
  <rect
     id="a"
     y="13.5"
     width=".2"
     height="9"
     style="fill:#77767b" />
  <use
     x="35.8"
     xlink:href="#a"
     id="use5" />
</svg>
