<?xml version="1.0" encoding="UTF-8" standalone="no"?>
<svg
   version="1.1"
   viewBox="-10 0 881 1000"
   id="svg1"
   sodipodi:docname="1DF44.svg"
   inkscape:version="1.4.3 (0d15f75, 2025-12-25)"
   xmlns:inkscape="http://www.inkscape.org/namespaces/inkscape"
   xmlns:sodipodi="http://sodipodi.sourceforge.net/DTD/sodipodi-0.dtd"
   xmlns="http://www.w3.org/2000/svg"
   xmlns:svg="http://www.w3.org/2000/svg">
  <defs
     id="defs1" />
  <sodipodi:namedview
     id="namedview1"
     pagecolor="#ffffff"
     bordercolor="#666666"
     borderopacity="1.0"
     inkscape:showpageshadow="2"
     inkscape:pageopacity="0.0"
     inkscape:pagecheckerboard="0"
     inkscape:deskcolor="#d1d1d1"
     inkscape:zoom="0.755"
     inkscape:cx="243.70861"
     inkscape:cy="690.72848"
     inkscape:window-width="1680"
     inkscape:window-height="998"
     inkscape:window-x="-8"
     inkscape:window-y="-8"
     inkscape:window-maximized="1"
     inkscape:current-layer="svg1"
     showguides="true">
    <sodipodi:guide
       position="11,694"
       orientation="1,0"
       id="guide1"
       inkscape:locked="false" />
    <sodipodi:guide
       position="871,694"
       orientation="1,0"
       id="guide2"
       inkscape:locked="false" />
    <sodipodi:guide
       position="799,508"
       orientation="0,-1"
       id="guide3"
       inkscape:locked="false" />
    <sodipodi:guide
       position="799,461"
       orientation="0,-1"
       id="guide4"
       inkscape:locked="false" />
    <sodipodi:guide
       position="22,694"
       orientation="-1,0"
       id="guide5"
       inkscape:label=""
       inkscape:locked="false"
       inkscape:color="rgb(0,134,229)" />
  </sodipodi:namedview>
  <rect
     style="fill:#1a5fb4;fill-rule:evenodd;stroke-width:17;stroke-miterlimit:2.3"
     id="rect4"
     width="447.35071"
     height="47"
     x="12"
     y="492" />
  <path
     fill="currentColor"
     d="M 261,810 C 119,810 50,746 50,654 50,581 118.19959,538 187.19959,521 v -5 C 127.19959,497 67,459 67,395 c 0,-81 69,-140 183,-140 128,0 184,45 184,94 0,42 -26,60 -79,60 0,-67 -36,-108 -103,-108 -67,0 -90,43 -90,95 0,53 33,96 101,96 h 94 v 47 H 264 C 191,539 147,571.09045 147,640.44724 147,716.01508 195,745 278,745 c 74,0 115,-29 140,-70 11,8 17,23 17,39 0,44 -53,96 -174,96 z"
     id="path1"
     sodipodi:nodetypes="ssccssscsssccssscss" />
</svg>
