<?xml version="1.0" encoding="UTF-8" standalone="no"?>
<svg
   version="1.1"
   viewBox="-10 0 645 1000"
   id="svg1"
   sodipodi:docname="1DF47.svg"
   inkscape:version="1.4.3 (0d15f75, 2025-12-25)"
   xmlns:inkscape="http://www.inkscape.org/namespaces/inkscape"
   xmlns:sodipodi="http://sodipodi.sourceforge.net/DTD/sodipodi-0.dtd"
   xmlns="http://www.w3.org/2000/svg"
   xmlns:svg="http://www.w3.org/2000/svg">
  <defs
     id="defs1" />
  <sodipodi:namedview
     id="namedview1"
     pagecolor="#ffffff"
     bordercolor="#666666"
     borderopacity="1.0"
     inkscape:showpageshadow="2"
     inkscape:pageopacity="0.0"
     inkscape:pagecheckerboard="0"
     inkscape:deskcolor="#d1d1d1"
     inkscape:zoom="0.755"
     inkscape:cx="386.09272"
     inkscape:cy="611.25828"
     inkscape:window-width="1680"
     inkscape:window-height="998"
     inkscape:window-x="-8"
     inkscape:window-y="-8"
     inkscape:window-maximized="1"
     inkscape:current-layer="svg1"
     showguides="true">
    <sodipodi:guide
       position="28,918"
       orientation="1,0"
       id="guide1"
       inkscape:locked="false" />
    <sodipodi:guide
       position="617,242"
       orientation="1,0"
       id="guide2"
       inkscape:locked="false" />
  </sodipodi:namedview>
  <rect
     style="fill:#1a5fb4;fill-rule:evenodd;stroke-width:17;stroke-miterlimit:2.3"
     id="rect4"
     width="589"
     height="47"
     x="18"
     y="492" />
  <path
     fill="currentColor"
     d="m 18,800 v -42 h 8 c 45,0 82,-9 82,-72 V 234 C 108,98 162,35 275,35 c 79,0 117,38 117,79 0,33 -24,57 -77,57 0,-40 -10,-90 -52,-90 -48,0 -61,28 -61,112 v 67 c 0,36 -4,85 -4,85 h 5 c 30,-60 79,-91 147,-91 114,0 177,59 177,196 v 236 c 0,63 31,72 76,72 h 4 v 42 H 433 V 455 c 0,-87 -29,-137 -110,-137 -83,0 -121,64 -121,162 v 211 c 0,59 37,67 81,67 h 4 v 42 z"
     id="path1-8" />
</svg>
