<?xml version="1.0" encoding="UTF-8" standalone="no"?>
<svg
   version="1.1"
   viewBox="-10 0 778 1000"
   id="svg1"
   sodipodi:docname="1DF53.svg"
   inkscape:version="1.4.3 (0d15f75, 2025-12-25)"
   xmlns:inkscape="http://www.inkscape.org/namespaces/inkscape"
   xmlns:sodipodi="http://sodipodi.sourceforge.net/DTD/sodipodi-0.dtd"
   xmlns="http://www.w3.org/2000/svg"
   xmlns:svg="http://www.w3.org/2000/svg">
  <defs
     id="defs1" />
  <sodipodi:namedview
     id="namedview1"
     pagecolor="#ffffff"
     bordercolor="#666666"
     borderopacity="1.0"
     inkscape:showpageshadow="2"
     inkscape:pageopacity="0.0"
     inkscape:pagecheckerboard="0"
     inkscape:deskcolor="#d1d1d1"
     inkscape:zoom="0.755"
     inkscape:cx="541.0596"
     inkscape:cy="617.88079"
     inkscape:window-width="1680"
     inkscape:window-height="998"
     inkscape:window-x="-8"
     inkscape:window-y="-8"
     inkscape:window-maximized="1"
     inkscape:current-layer="svg1"
     showguides="true">
    <sodipodi:guide
       position="38,508"
       orientation="0,-1"
       id="guide1"
       inkscape:locked="false" />
  </sodipodi:namedview>
  <path
     fill="currentColor"
     d="M244 810c-116 0 -189 -91 -189 -262c0 -170 113 -294 331 -294c193 0 327 112 327 294c0 171 -73 262 -189 262c-71 0 -118 -44 -138 -103h-4c-20 59 -67 103 -138 103zM260 756c60 0 84 -52 94 -102v-185h60v185c12 50 35 102 94 102s108 -70 108 -208 c0 -166 -63 -244 -233 -244s-231 95 -231 244c0 155 49 208 108 208z"
     id="path1" />
  <rect
     style="fill:#1a5fb4;fill-rule:evenodd;stroke-width:17;stroke-miterlimit:2.3"
     id="rect4"
     width="793.12726"
     height="47"
     x="-12.64352"
     y="492" />
</svg>
