<?xml version="1.0" encoding="UTF-8" standalone="no"?>
<svg
   version="1.1"
   viewBox="-10 0 573 1000"
   id="svg1"
   sodipodi:docname="1DF5A.svg"
   inkscape:version="1.4.3 (0d15f75, 2025-12-25)"
   xmlns:inkscape="http://www.inkscape.org/namespaces/inkscape"
   xmlns:sodipodi="http://sodipodi.sourceforge.net/DTD/sodipodi-0.dtd"
   xmlns="http://www.w3.org/2000/svg"
   xmlns:svg="http://www.w3.org/2000/svg">
  <defs
     id="defs1" />
  <sodipodi:namedview
     id="namedview1"
     pagecolor="#ffffff"
     bordercolor="#666666"
     borderopacity="1.0"
     inkscape:showpageshadow="2"
     inkscape:pageopacity="0.0"
     inkscape:pagecheckerboard="0"
     inkscape:deskcolor="#d1d1d1"
     inkscape:zoom="0.755"
     inkscape:cx="199.33775"
     inkscape:cy="518.54305"
     inkscape:window-width="1680"
     inkscape:window-height="998"
     inkscape:window-x="-8"
     inkscape:window-y="-8"
     inkscape:window-maximized="1"
     inkscape:current-layer="svg1" />
  <path
     fill="currentColor"
     d="M 205,810 C 116,810 50,759 50,650 50,544 125,495 278,490 l 83,-3 v -60 c 0,-76.84319 -1.88152,-123 -139.35762,-123 0,-27.1846 18.28595,-50 56.31788,-50 C 446.29811,254 455,365.34796 455,427 v 259 c 0,56 17,72 62,72 h 3 v 42 H 385 l -16,-86 h -8 c -42,56 -73,96 -156,96 z m 23,-62 c 81,0 133,-54 133,-139 v -81 l -64,3 c -113,5 -150,46 -150,124 0,62 26,93 81,93 z"
     id="path1"
     sodipodi:nodetypes="ssccscsssscccccsssccss" />
</svg>
