<?xml version="1.0" encoding="UTF-8" standalone="no"?>
<svg
   version="1.1"
   viewBox="-10 0 596 1000"
   id="svg1"
   sodipodi:docname="1DF52.svg"
   inkscape:version="1.4.3 (0d15f75, 2025-12-25)"
   xmlns:inkscape="http://www.inkscape.org/namespaces/inkscape"
   xmlns:sodipodi="http://sodipodi.sourceforge.net/DTD/sodipodi-0.dtd"
   xmlns="http://www.w3.org/2000/svg"
   xmlns:svg="http://www.w3.org/2000/svg">
  <defs
     id="defs1" />
  <sodipodi:namedview
     id="namedview1"
     pagecolor="#ffffff"
     bordercolor="#666666"
     borderopacity="1.0"
     inkscape:showpageshadow="2"
     inkscape:pageopacity="0.0"
     inkscape:pagecheckerboard="0"
     inkscape:deskcolor="#d1d1d1"
     inkscape:zoom="0.755"
     inkscape:cx="297.35099"
     inkscape:cy="500"
     inkscape:window-width="1680"
     inkscape:window-height="998"
     inkscape:window-x="-8"
     inkscape:window-y="-8"
     inkscape:window-maximized="1"
     inkscape:current-layer="svg1"
     showguides="true">
    <sodipodi:guide
       position="38,508"
       orientation="0,-1"
       id="guide1"
       inkscape:locked="false" />
  </sodipodi:namedview>
  <path
     fill="currentColor"
     d="M78 359c-15 -42 -32 -53 -74 -53v-42h250v42h-13c-40 0 -60 15 -60 48c0 11 3 22 8 37l68 189c18 49 37 115 47 150c7 -28 32 -89 50 -137l72 -195c6 -16 9 -32 9 -43c0 -34 -22 -49 -66 -49h-7v-42h214v42h-12c-39 0 -52 14 -76 78l-158 416h-91z"
     id="path1" />
  <rect
     style="fill:#1a5fb4;fill-rule:evenodd;stroke-width:17;stroke-miterlimit:2.3"
     id="rect4"
     width="501.64227"
     height="47"
     x="35.947021"
     y="492" />
</svg>
