<?xml version="1.0" encoding="UTF-8" standalone="no"?>
<svg
   version="1.1"
   viewBox="-10 0 362 1000"
   id="svg1"
   sodipodi:docname="1DF64.svg"
   inkscape:version="1.4.3 (0d15f75, 2025-12-25)"
   xmlns:inkscape="http://www.inkscape.org/namespaces/inkscape"
   xmlns:sodipodi="http://sodipodi.sourceforge.net/DTD/sodipodi-0.dtd"
   xmlns="http://www.w3.org/2000/svg"
   xmlns:svg="http://www.w3.org/2000/svg">
  <defs
     id="defs1" />
  <sodipodi:namedview
     id="namedview1"
     pagecolor="#ffffff"
     bordercolor="#666666"
     borderopacity="1.0"
     inkscape:showpageshadow="2"
     inkscape:pageopacity="0.0"
     inkscape:pagecheckerboard="0"
     inkscape:deskcolor="#d1d1d1"
     inkscape:zoom="0.26693281"
     inkscape:cx="-241.63384"
     inkscape:cy="432.69316"
     inkscape:window-width="1680"
     inkscape:window-height="998"
     inkscape:window-x="-8"
     inkscape:window-y="-8"
     inkscape:window-maximized="1"
     inkscape:current-layer="svg1"
     showguides="true">
    <sodipodi:guide
       position="199,736"
       orientation="1,0"
       id="guide2"
       inkscape:locked="false" />
    <sodipodi:guide
       position="330,679"
       orientation="1,0"
       id="guide3"
       inkscape:locked="false" />
  </sodipodi:namedview>
  <path
     fill="currentColor"
     d="M 95,321 H 19 v -40 c 24,0 56,-9 78,-32 23,-24 36,-57 46,-108 h 46 v 123 h 131 v 57 H 189 Z"
     id="path1"
     sodipodi:nodetypes="ccccccccccc"
     style="fill:#26a269" />
  <path
     fill="currentColor"
     d="m 44,810 c 101,0 145,-40 145,-155 V 321 H 95 v 337 c 0,68 -30,99 -76,99 -24,0 -43,-3 -64,-7 v 44 c 17,8 57,16 89,16 z"
     id="path2"
     sodipodi:nodetypes="ssccssccs" />
  <path
     fill="currentColor"
     d="m 230,800 v -42 h 8 c 45,0 82,-9 82,-72 V 150 C 320,91 282,82 238,82 h -8 V 40 h 184 v 220 c 0,36 -4,85 -4,85 h 5 c 30,-60 79,-91 147,-91 114,0 177,59 177,196 v 236 c 0,63 32,72 77,72 h 3 v 42 H 645 V 455 c 0,-87 -29,-137 -110,-137 -83,0 -121,64 -121,162 v 211 c 0,59 38,67 82,67 h 3 v 42 z"
     id="path1-1" />
</svg>
