<?xml version="1.0" encoding="UTF-8" standalone="no"?>
<svg
   version="1.1"
   viewBox="-83 0 497 1000"
   id="svg1"
   sodipodi:docname="1DF62.svg"
   inkscape:version="1.4.3 (0d15f75, 2025-12-25)"
   xmlns:inkscape="http://www.inkscape.org/namespaces/inkscape"
   xmlns:sodipodi="http://sodipodi.sourceforge.net/DTD/sodipodi-0.dtd"
   xmlns="http://www.w3.org/2000/svg"
   xmlns:svg="http://www.w3.org/2000/svg">
  <defs
     id="defs1" />
  <sodipodi:namedview
     id="namedview1"
     pagecolor="#ffffff"
     bordercolor="#666666"
     borderopacity="1.0"
     inkscape:showpageshadow="2"
     inkscape:pageopacity="0.0"
     inkscape:pagecheckerboard="0"
     inkscape:deskcolor="#d1d1d1"
     inkscape:zoom="0.26693281"
     inkscape:cx="279.09645"
     inkscape:cy="260.36515"
     inkscape:window-width="1680"
     inkscape:window-height="998"
     inkscape:window-x="-8"
     inkscape:window-y="-8"
     inkscape:window-maximized="1"
     inkscape:current-layer="svg1"
     showguides="true">
    <sodipodi:guide
       position="410,829"
       orientation="1,0"
       id="guide1"
       inkscape:locked="false" />
    <sodipodi:guide
       position="348.20198,732.78146"
       orientation="1,0"
       id="guide2"
       inkscape:locked="false" />
  </sodipodi:namedview>
  <path
     fill="currentColor"
     d="m 46.403974,1040 c -85,0 -130,-33 -130,-79 0,-36 24,-66 76.9999995,-67 0,68 18.0000005,96 52.0000005,96 42,0 63.999996,-33 63.999996,-181 V 235 c 0,-136 54.79801,-200 167.79801,-200 79,0 126.79802,38 126.79802,79 0,33 -24,57 -77,57 0,-40 -19.79802,-90 -61.79802,-90 -40.97576,0 -61.79801,28 -61.79801,112 v 615 c 0,165 -62,232 -156.999996,232 z"
     id="path1"
     sodipodi:nodetypes="sscssssscssss" />
  <path
     fill="currentColor"
     d="m 237,800 v -42 h 8 c 45,0 82,-9 82,-72 V 54.789069 L 295.8592,40 H 421 v 220 c 0,36 -4,85 -4,85 h 5 c 30,-60 79,-91 147,-91 114,0 177,59 177,196 v 236 c 0,63 32,72 77,72 h 3 v 42 H 652 V 455 c 0,-87 -29,-137 -110,-137 -83,0 -121,64 -121,162 v 211 c 0,59 38,67 82,67 h 3 v 42 z"
     id="path1-8"
     sodipodi:nodetypes="ccsccccsccsssscccsssssccc" />
</svg>
