<?xml version="1.0" encoding="UTF-8" standalone="no"?>
<svg
   version="1.1"
   viewBox="-10 0 727 1000"
   id="svg1"
   sodipodi:docname="1DF6A.svg"
   inkscape:version="1.4.3 (0d15f75, 2025-12-25)"
   xmlns:inkscape="http://www.inkscape.org/namespaces/inkscape"
   xmlns:sodipodi="http://sodipodi.sourceforge.net/DTD/sodipodi-0.dtd"
   xmlns="http://www.w3.org/2000/svg"
   xmlns:svg="http://www.w3.org/2000/svg">
  <defs
     id="defs1" />
  <sodipodi:namedview
     id="namedview1"
     pagecolor="#ffffff"
     bordercolor="#666666"
     borderopacity="1.0"
     inkscape:showpageshadow="2"
     inkscape:pageopacity="0.0"
     inkscape:pagecheckerboard="0"
     inkscape:deskcolor="#d1d1d1"
     showguides="true"
     inkscape:zoom="0.755"
     inkscape:cx="363.57616"
     inkscape:cy="500"
     inkscape:window-width="1680"
     inkscape:window-height="998"
     inkscape:window-x="-8"
     inkscape:window-y="-8"
     inkscape:window-maximized="1"
     inkscape:current-layer="svg1">
    <sodipodi:guide
       position="316,914"
       orientation="0,-1"
       id="guide1"
       inkscape:locked="false" />
    <sodipodi:guide
       position="0,200"
       orientation="0,1"
       id="guide2"
       inkscape:locked="false"
       inkscape:label=""
       inkscape:color="rgb(0,134,229)" />
    <sodipodi:guide
       position="874.5,489"
       orientation="0,-1"
       id="guide3"
       inkscape:locked="false" />
    <sodipodi:guide
       position="892.5,439"
       orientation="0,-1"
       id="guide4"
       inkscape:locked="false" />
  </sodipodi:namedview>
  <path
     fill="currentColor"
     d="m 355,76 c 158,0 252,63 252,226 v 388 c 0,59 38,68 82,68 h 13 v 42 H 411 v -42 h 13 c 45,0 82,-9 82,-72 V 296 C 506,180 436,136 339,136 224,136 171,201 171,292 v 398 c 0,59 38,68 82,68 h 13 v 42 H 15 v -42 h 13 c 45,0 82,-9 82,-72 V 290 C 110,157 196,76 355,76 Z"
     id="path1" />
  <rect
     style="fill:#0f417e;fill-rule:evenodd;stroke-width:17;stroke-miterlimit:2.3"
     id="rect4"
     width="427.81458"
     height="50"
     x="139.66887"
     y="486" />
</svg>
