<?xml version="1.0" encoding="UTF-8" standalone="no"?>
<svg
   version="1.1"
   viewBox="-10 0 645 1000"
   id="svg1"
   sodipodi:docname="1DF7B.svg"
   inkscape:version="1.4.3 (0d15f75, 2025-12-25)"
   xmlns:inkscape="http://www.inkscape.org/namespaces/inkscape"
   xmlns:sodipodi="http://sodipodi.sourceforge.net/DTD/sodipodi-0.dtd"
   xmlns="http://www.w3.org/2000/svg"
   xmlns:svg="http://www.w3.org/2000/svg">
  <defs
     id="defs1" />
  <sodipodi:namedview
     id="namedview1"
     pagecolor="#ffffff"
     bordercolor="#666666"
     borderopacity="1.0"
     inkscape:showpageshadow="2"
     inkscape:pageopacity="0.0"
     inkscape:pagecheckerboard="0"
     inkscape:deskcolor="#d1d1d1"
     inkscape:zoom="0.53386562"
     inkscape:cx="-92.719962"
     inkscape:cy="785.77826"
     inkscape:window-width="1680"
     inkscape:window-height="998"
     inkscape:window-x="-8"
     inkscape:window-y="-8"
     inkscape:window-maximized="1"
     inkscape:current-layer="svg1" />
  <path
     fill="currentColor"
     d="M 273,810 C 167,810 108,751 108,614 V 374 c 0,-59 -38,-68 -82,-68 h -3 v -42 h 179 v 345 c 0,87 24,137 105,137 88,0 126,-65 126,-162 V 378 c 0,-63 -37,-72 -82,-72 h -3 v -42 h 179 v 427 l -74,109 -13,-81 h -5 c -41,75 -97,91 -162,91 z"
     id="path1"
     sodipodi:nodetypes="sssscccssssscccccccs" />
  <path
     d="m 527,691 v 148 c 0,84 13,112 61,112 42,0 52,-50 52,-90 53,0 77,24 77,57 0,41 -38,79 -117,79 -113,0 -167,-64 -167,-200 v -3 c 0,-28 2.01987,-50.3245 7,-75 l 38.38061,-51.3115 z"
     style="fill:#0f417e;fill-opacity:1"
     id="path1-3"
     sodipodi:nodetypes="csssscssccc" />
</svg>
