<?xml version="1.0" encoding="UTF-8" standalone="no"?>
<svg
   version="1.1"
   viewBox="-10 0 752 1000"
   id="svg1"
   sodipodi:docname="1DF72.svg"
   inkscape:version="1.4.3 (0d15f75, 2025-12-25)"
   xmlns:inkscape="http://www.inkscape.org/namespaces/inkscape"
   xmlns:sodipodi="http://sodipodi.sourceforge.net/DTD/sodipodi-0.dtd"
   xmlns="http://www.w3.org/2000/svg"
   xmlns:svg="http://www.w3.org/2000/svg">
  <defs
     id="defs1" />
  <sodipodi:namedview
     id="namedview1"
     pagecolor="#ffffff"
     bordercolor="#666666"
     borderopacity="1.0"
     inkscape:showpageshadow="2"
     inkscape:pageopacity="0.0"
     inkscape:pagecheckerboard="0"
     inkscape:deskcolor="#d1d1d1"
     inkscape:zoom="0.755"
     inkscape:cx="399.33775"
     inkscape:cy="473.50993"
     inkscape:window-width="1680"
     inkscape:window-height="998"
     inkscape:window-x="-8"
     inkscape:window-y="-8"
     inkscape:window-maximized="1"
     inkscape:current-layer="svg1"
     showguides="true">
    <sodipodi:guide
       position="380.5,557.5"
       orientation="0,-1"
       id="guide1"
       inkscape:locked="false" />
    <sodipodi:guide
       position="382,925"
       orientation="0,-1"
       id="guide2"
       inkscape:locked="false" />
    <sodipodi:guide
       position="380.50002,611.5"
       orientation="0,-1"
       id="guide3"
       inkscape:locked="false" />
  </sodipodi:namedview>
  <path
     fill="currentColor"
     d="M371 810c-212 0 -315 -147 -315 -369c0 -221 103 -366 316 -366c201 0 313 145 313 367c0 221 -112 368 -314 368zM371 756c149 0 203 -116 203 -314s-54 -313 -202 -313c-149 0 -205 115 -205 313s56 314 204 314z"
     id="path1" />
  <path
     fill="currentColor"
     d="M 569.51204,237.44196 C 577.91578,149.40321 659.42809,75 742,75 c 79,0 117,38 117,79 0,33 -24,57 -77,57 0,-40 -10,-90 -52,-90 -38.06862,0 -87.37585,55.56615 -92.38925,104.75829 z"
     id="path1-2"
     sodipodi:nodetypes="csscscc"
     style="fill:#26a269" />
  <path
     style="fill:#1a5fb4;stroke:none;stroke-width:1px;stroke-linecap:butt;stroke-linejoin:miter;stroke-opacity:1"
     d="M 637.61075,225.75829 C 615.15733,361.5142 494.38112,442.5 370.5,442.5 246.61888,442.5 88.848078,378.66136 96.08624,235.69066 l 101.1582,8.14698 C 174.15801,332.44966 306.35251,388.5 384.70666,388.5 c 78.35415,0 173.67032,-44.39259 184.80538,-151.05804 0,0 68.09871,-11.68367 68.09871,-11.68367 z"
     id="path2"
     sodipodi:nodetypes="cscczc" />
</svg>
