<?xml version="1.0" encoding="UTF-8" standalone="no"?>
<svg
   version="1.1"
   viewBox="-10 0 727 1000"
   id="svg1"
   sodipodi:docname="1DF7E.svg"
   inkscape:version="1.4.3 (0d15f75, 2025-12-25)"
   xmlns:inkscape="http://www.inkscape.org/namespaces/inkscape"
   xmlns:sodipodi="http://sodipodi.sourceforge.net/DTD/sodipodi-0.dtd"
   xmlns="http://www.w3.org/2000/svg"
   xmlns:svg="http://www.w3.org/2000/svg">
  <defs
     id="defs1" />
  <sodipodi:namedview
     id="namedview1"
     pagecolor="#ffffff"
     bordercolor="#666666"
     borderopacity="1.0"
     inkscape:showpageshadow="2"
     inkscape:pageopacity="0.0"
     inkscape:pagecheckerboard="0"
     inkscape:deskcolor="#d1d1d1"
     inkscape:zoom="0.3775"
     inkscape:cx="9.2715232"
     inkscape:cy="637.08609"
     inkscape:window-width="1680"
     inkscape:window-height="998"
     inkscape:window-x="-8"
     inkscape:window-y="-8"
     inkscape:window-maximized="1"
     inkscape:current-layer="svg1"
     showguides="true">
    <sodipodi:guide
       position="80,410"
       orientation="1,0"
       id="guide2"
       inkscape:locked="false" />
    <sodipodi:guide
       position="0,871.99389"
       orientation="1,0"
       id="guide3"
       inkscape:locked="false" />
    <sodipodi:guide
       position="0,200"
       orientation="0,1"
       id="guide4"
       inkscape:locked="false"
       inkscape:label=""
       inkscape:color="rgb(0,134,229)" />
    <sodipodi:guide
       position="-15,914"
       orientation="1,0"
       id="guide5"
       inkscape:locked="false" />
  </sodipodi:namedview>
  <path
     id="path1"
     d="m -25,86 v 42 h 13 c 45,0 82,9 82,72 v 486 c 0,63 -37,72 -82,72 h -13 v 42 h 169 l 13,-81 h 5 c 29.33281,57.02957 107.36634,91 193,91 156.04656,0 251.93974,-61.43527 251.95703,-220 L 607,196 c 0,-59 38,-68 82,-68 h 13 V 86 H 411 v 42 h 13 c 45,0 82,9 82,72 V 590 C 506,706 436,750 339,750 224,750 171,685 171,594 V 196 c 0,-59 38,-68 82,-68 h 13 V 86 Z"
     sodipodi:nodetypes="ccsccscccccsscsccccssssscsccc" />
</svg>
