<?xml version="1.0" encoding="UTF-8" standalone="no"?>
<svg
   version="1.1"
   viewBox="-10 0 657 1000"
   id="svg1"
   sodipodi:docname="1DF95.svg"
   inkscape:version="1.4.3 (0d15f75, 2025-12-25)"
   xmlns:inkscape="http://www.inkscape.org/namespaces/inkscape"
   xmlns:sodipodi="http://sodipodi.sourceforge.net/DTD/sodipodi-0.dtd"
   xmlns="http://www.w3.org/2000/svg"
   xmlns:svg="http://www.w3.org/2000/svg">
  <defs
     id="defs1" />
  <sodipodi:namedview
     id="namedview1"
     pagecolor="#ffffff"
     bordercolor="#666666"
     borderopacity="1.0"
     inkscape:showpageshadow="2"
     inkscape:pageopacity="0.0"
     inkscape:pagecheckerboard="0"
     inkscape:deskcolor="#d1d1d1"
     inkscape:zoom="0.26693281"
     inkscape:cx="350.27541"
     inkscape:cy="964.66223"
     inkscape:window-width="1680"
     inkscape:window-height="998"
     inkscape:window-x="-8"
     inkscape:window-y="-8"
     inkscape:window-maximized="1"
     inkscape:current-layer="svg1" />
  <path
     fill="currentColor"
     d="m 434,810 c -93,0 -156,-36 -156,-106 0,-54 36,-69 57,-69 0,70 25,127 98,127 49,0 84,-30 84,-91 0,-44 -16,-73 -97,-112 C 336,518 293,482 293,397 293,316 345,262 458,262 458,136 423,82 333,82 252,82 212,136 212,220 V 800 L 118,686 V 311 H 37 v -47 h 81 V 234 C 118,87 212,37 334,37 c 166,0 217,96 218,272 h -73 c -71,0 -103,27 -103,81 0,41 24,63 104,100 100,46 123,104 123,164 0,102 -64,156 -169,156 z"
     id="path1"
     sodipodi:nodetypes="sscsscscssccccccsscsscss" />
  <path
     fill="currentColor"
     d="m 55,1040 c -85,0 -130,-33 -130,-79 0,-36 24,-66 77,-67 0,68 18,96 52,96 42,0 64,-33 64,-181 V 522 l 94,6.22281 V 808 c 0,165 -62,232 -157,232 z"
     id="path1-8"
     sodipodi:nodetypes="sscssccss" />
</svg>
