<?xml version="1.0" encoding="UTF-8" standalone="no"?>
<svg
   enable-background="new 0 0 128 128"
   viewBox="0 0 128 128"
   version="1.1"
   id="svg22"
   sodipodi:docname="emoji_u1f344_200d_1F7eb.svg"
   inkscape:version="1.2.2 (732a01da63, 2022-12-09)"
   xmlns:inkscape="http://www.inkscape.org/namespaces/inkscape"
   xmlns:sodipodi="http://sodipodi.sourceforge.net/DTD/sodipodi-0.dtd"
   xmlns="http://www.w3.org/2000/svg"
   xmlns:svg="http://www.w3.org/2000/svg">
  <defs
     id="defs26" />
  <sodipodi:namedview
     id="namedview24"
     pagecolor="#ffffff"
     bordercolor="#666666"
     borderopacity="1.0"
     inkscape:showpageshadow="2"
     inkscape:pageopacity="0.0"
     inkscape:pagecheckerboard="0"
     inkscape:deskcolor="#d1d1d1"
     showgrid="false"
     inkscape:zoom="1.84375"
     inkscape:cx="64.271186"
     inkscape:cy="64"
     inkscape:window-width="1680"
     inkscape:window-height="998"
     inkscape:window-x="-8"
     inkscape:window-y="-8"
     inkscape:window-maximized="1"
     inkscape:current-layer="svg22" />
  <path
     d="m39.92 75.22s.47 6.72.28 10.14c-.2 3.42-.61 6.28-.61 6.28l3.2 25.85.17 2.7s5.63 3.25 17.33 3.25c17.54 0 25.28-2.78 27.9-8.35 2.11-4.51-1.57-14.73-2.32-18.25-2.47-11.6-1.04-19.98-1.04-19.98z"
     fill="#c4a878"
     id="path2" />
  <path
     d="m34.91 112.88c1.23 5.47 8.67 7.59 8.67 7.59s10.83.61 17.69-.32c7.04-.96 12.84-2.62 13.44-6.72s.44-6.86.16-11.2c-.12-1.92-.32-7.2-.32-7.2s-7.99.41-18.67-.44c-10.52-.84-16.22-3.34-16.22-3.34s-1.51 6.93-2.57 9.71c-1.07 2.77-3.41 6.45-2.18 11.92z"
     fill="#e8d4af"
     id="path4" />
  <path
     d="m62.66 3.98c-39.18-.05-56.77 26.4-56.09 52.78.61 23.71 36.82 26.65 54.89 26.91 26.97.39 59.19-5.08 59.81-27.59.71-26.16-18.3-52.06-58.61-52.1z"
     fill="#ff521a"
     id="path6"
     style="fill:#a05a2c" />
  <ellipse
     style="fill:#deaa87;stroke-width:4;stroke-linecap:round;stroke-linejoin:round;stop-color:#000000"
     id="path415"
     cx="47.959053"
     cy="2.744539"
     rx="12.745763"
     ry="18.711864"
     transform="rotate(38.062788)" />
</svg>
