<?xml version="1.0" encoding="utf-8"?>
<!-- Generator: Adobe Illustrator 26.3.1, SVG Export Plug-In . SVG Version: 6.00 Build 0)  -->
<svg version="1.1" id="Layer_3" xmlns="http://www.w3.org/2000/svg" xmlns:xlink="http://www.w3.org/1999/xlink" x="0px" y="0px"
	 viewBox="0 0 128 128" style="enable-background:new 0 0 128 128;" xml:space="preserve">
<g>
	<path style="fill:#9E9E9E;" d="M28.2,121.8c0,0-1.7,2.2-6.3,2.2s-6.3-2.2-6.3-2.2V53.7h12.6V121.8z"/>
	<path style="fill:#BDBDBD;" d="M28.2,121.8c0,0-1.7,2.2-6.3,2.2s-6.3-2.2-6.3-2.2v-20.1c0,0,1.3-2.4,6-2.4s6.6,2.4,6.6,2.4
		S28.2,121.8,28.2,121.8z"/>
	<path style="fill:#9E9E9E;" d="M112.4,121.8c0,0-1.7,2.2-6.3,2.2s-6.3-2.2-6.3-2.2V53.7h12.6C112.4,53.7,112.4,121.8,112.4,121.8z"
		/>
	<path style="fill:#BDBDBD;" d="M112.4,121.8c0,0-1.7,2.2-6.3,2.2s-6.3-2.2-6.3-2.2v-20.1c0,0,1.3-2.4,6-2.4s6.6,2.4,6.6,2.4
		S112.4,121.8,112.4,121.8z"/>
	<path style="fill:#9E9E9E;" d="M6.7,41.4h114.6c1.49,0,2.7,1.21,2.7,2.7v18c0,1.49-1.21,2.7-2.7,2.7H6.7c-1.49,0-2.7-1.21-2.7-2.7
		v-18C4,42.61,5.21,41.4,6.7,41.4z"/>
	<path style="fill:#E2A610;" d="M113.8,45.2H98.4c-1.4,0-2.5-0.9-2.2-1.9l1.1-6.7h17.5l1.1,6.7c0.3,1-0.7,1.9-2.2,1.9H113.8z"/>
	<circle style="fill:#FFCA28;" cx="106.1" cy="23.7" r="12.7"/>
	<circle style="fill:#FF5722;" cx="106.1" cy="23.7" r="9.4"/>
	<path style="fill:#FFCA28;" d="M114.9,36.7H97.4c0,0,0-2.8,5.1-2.8h7.4C115.2,33.9,114.9,36.7,114.9,36.7z"/>
	<path style="fill:#FFD5CA;" d="M107.2,19.2l2.4-3.1c0.1-0.1,0.3,0,0.3,0.1L109,20c-0.2,0.9,0.5,1.7,1.4,1.7h3.9
		c0.2,0,0.2,0.2,0,0.3l-3.6,1.6c-0.8,0.4-1.1,1.5-0.5,2.2l2.5,3c0.1,0.1,0,0.3-0.2,0.3l-3.5-1.8c-0.8-0.4-1.8,0-2,1l-0.8,3.8
		c0,0.2-0.3,0.2-0.3,0l-0.8-3.8c-0.2-0.9-1.2-1.4-2-1l-3.5,1.8c-0.2,0-0.3-0.1-0.2-0.3l2.5-3c0.6-0.7,0.3-1.8-0.5-2.2L97.8,22
		c-0.2,0-0.1-0.3,0-0.3h3.9c0.9,0,1.6-0.8,1.4-1.7l-0.9-3.8c0-0.2,0.2-0.3,0.3-0.1l2.4,3.1c0.6,0.7,1.7,0.7,2.2,0L107.2,19.2z"/>
	<path style="fill:#E2A610;" d="M29.6,45.2H14.2c-1.4,0-2.5-0.9-2.2-1.9l1.1-6.7h17.5l1.1,6.7c0.3,1-0.7,1.9-2.2,1.9H29.6z"/>
	<circle style="fill:#FFCA28;" cx="21.9" cy="23.7" r="12.7"/>
	<circle style="fill:#FF5722;" cx="21.9" cy="23.7" r="9.4"/>
	<path style="fill:#FFCA28;" d="M30.7,36.7H13.1c0,0,0-2.8,5.1-2.8h7.4c5.3,0,5,2.8,5,2.8H30.7z"/>
	<path style="fill:#FFD5CA;" d="M23,19.2l2.4-3.1c0.1-0.1,0.3,0,0.3,0.1L24.8,20c-0.2,0.9,0.5,1.7,1.4,1.7h3.9c0.2,0,0.2,0.2,0,0.3
		l-3.6,1.6c-0.8,0.4-1.1,1.5-0.5,2.2l2.5,3c0.1,0.1,0,0.3-0.2,0.3l-3.5-1.8c-0.8-0.4-1.8,0-2,1L22,32.1c0,0.2-0.3,0.2-0.3,0
		l-0.8-3.8c-0.2-0.9-1.2-1.4-2-1l-3.5,1.8c-0.2,0-0.3-0.1-0.2-0.3l2.5-3c0.6-0.7,0.3-1.8-0.5-2.2L13.6,22c-0.2,0-0.1-0.3,0-0.3h3.9
		c0.9,0,1.6-0.8,1.4-1.7L18,16.2c0-0.2,0.2-0.3,0.3-0.1l2.4,3.1c0.6,0.7,1.7,0.7,2.2,0L23,19.2z"/>
	<path style="fill:#FFD600;" d="M6.7,43.4h114.6c1.49,0,2.7,1.21,2.7,2.7v18c0,1.49-1.21,2.7-2.7,2.7H6.7c-1.49,0-2.7-1.21-2.7-2.7
		v-18C4,44.61,5.21,43.4,6.7,43.4z"/>
	<g>
		<defs>
			<path id="SVGID_1_" d="M6.7,43.4h114.6c1.49,0,2.7,1.21,2.7,2.7v18c0,1.49-1.21,2.7-2.7,2.7H6.7c-1.49,0-2.7-1.21-2.7-2.7v-18
				C4,44.61,5.21,43.4,6.7,43.4z"/>
		</defs>
		<clipPath id="SVGID_00000147930006861003760320000013309134296385252528_">
			<use xlink:href="#SVGID_1_"  style="overflow:visible;"/>
		</clipPath>
		<g style="clip-path:url(#SVGID_00000147930006861003760320000013309134296385252528_);">
			<g>
				<polygon style="fill:#212121;" points="34.2,36.6 6.5,74.4 20,74.4 47.7,36.6 				"/>
				<polygon style="fill:#212121;" points="8.3,36.6 -19.4,74.4 -5.8,74.4 21.9,36.6 				"/>
				<polygon style="fill:#212121;" points="60,36.6 32.3,74.4 45.9,74.4 73.5,36.6 				"/>
				<polygon style="fill:#212121;" points="85.5,36.6 57.8,74.4 71.4,74.4 99.1,36.6 				"/>
				<polygon style="fill:#212121;" points="111,36.6 83.3,74.4 96.9,74.4 124.6,36.6 				"/>
				<polygon style="fill:#212121;" points="138,36.6 110.3,74.4 123.9,74.4 151.6,36.6 				"/>
			</g>
		</g>
	</g>
	<path style="fill:#9E9E9E;" d="M6.7,71.8h114.6c1.49,0,2.7,1.21,2.7,2.7v18c0,1.49-1.21,2.7-2.7,2.7H6.7c-1.49,0-2.7-1.21-2.7-2.7
		v-18C4,73.01,5.21,71.8,6.7,71.8z"/>
	<path style="fill:#FFD600;" d="M6.7,73.8h114.6c1.49,0,2.7,1.21,2.7,2.7v18c0,1.49-1.21,2.7-2.7,2.7H6.7c-1.49,0-2.7-1.21-2.7-2.7
		v-18C4,75.01,5.21,73.8,6.7,73.8z"/>
	<g>
		<defs>
			<path id="SVGID_00000046299655460371656140000000712059045071268018_" d="M6.7,73.8h114.6c1.49,0,2.7,1.21,2.7,2.7v18
				c0,1.49-1.21,2.7-2.7,2.7H6.7c-1.49,0-2.7-1.21-2.7-2.7v-18C4,75.01,5.21,73.8,6.7,73.8z"/>
		</defs>
		<clipPath id="SVGID_00000133493093711674849990000005408721970739407534_">
			<use xlink:href="#SVGID_00000046299655460371656140000000712059045071268018_"  style="overflow:visible;"/>
		</clipPath>
		<g style="clip-path:url(#SVGID_00000133493093711674849990000005408721970739407534_);">
			<g>
				<polygon style="fill:#212121;" points="34.2,67 6.5,104.8 20,104.8 47.7,67 				"/>
				<polygon style="fill:#212121;" points="8.3,67 -19.4,104.8 -5.8,104.8 21.9,67 				"/>
				<polygon style="fill:#212121;" points="60,67 32.3,104.8 45.9,104.8 73.5,67 				"/>
				<polygon style="fill:#212121;" points="85.5,67 57.8,104.8 71.4,104.8 99.1,67 				"/>
				<polygon style="fill:#212121;" points="111,67 83.3,104.8 96.9,104.8 124.6,67 				"/>
				<polygon style="fill:#212121;" points="138,67 110.3,104.8 123.9,104.8 151.6,67 				"/>
			</g>
		</g>
	</g>
</g>
<g>
	<circle style="fill:#9E9E9E;" cx="106.5" cy="60.4" r="1.5"/>
	<g>
		<defs>
			<circle id="SVGID_00000032621625834732871570000008779606833046302613_" cx="106.5" cy="60.4" r="1.5"/>
		</defs>
		<clipPath id="SVGID_00000132087518179583348240000002747507926357395864_">
			<use xlink:href="#SVGID_00000032621625834732871570000008779606833046302613_"  style="overflow:visible;"/>
		</clipPath>
		<g style="clip-path:url(#SVGID_00000132087518179583348240000002747507926357395864_);">
			<circle style="fill:#BDBDBD;" cx="106.5" cy="59.8" r="1.5"/>
		</g>
	</g>
</g>
<g>
	<circle style="fill:#9E9E9E;" cx="106.5" cy="49.6" r="1.5"/>
	<g>
		<defs>
			<circle id="SVGID_00000100341833397206950990000016548878158160276133_" cx="106.5" cy="49.6" r="1.5"/>
		</defs>
		<clipPath id="SVGID_00000013165448496619229320000015829814121438830725_">
			<use xlink:href="#SVGID_00000100341833397206950990000016548878158160276133_"  style="overflow:visible;"/>
		</clipPath>
		<g style="clip-path:url(#SVGID_00000013165448496619229320000015829814121438830725_);">
			<circle style="fill:#BDBDBD;" cx="106.5" cy="49" r="1.5"/>
		</g>
	</g>
</g>
<g>
	<circle style="fill:#9E9E9E;" cx="106.5" cy="90.8" r="1.5"/>
	<g>
		<defs>
			<circle id="SVGID_00000084504955785557994200000004812977842260402305_" cx="106.5" cy="90.8" r="1.5"/>
		</defs>
		<clipPath id="SVGID_00000041280683401437894030000009480283045275085481_">
			<use xlink:href="#SVGID_00000084504955785557994200000004812977842260402305_"  style="overflow:visible;"/>
		</clipPath>
		<g style="clip-path:url(#SVGID_00000041280683401437894030000009480283045275085481_);">
			<circle style="fill:#BDBDBD;" cx="106.5" cy="90.2" r="1.5"/>
		</g>
	</g>
</g>
<g>
	<circle style="fill:#9E9E9E;" cx="106.5" cy="80.1" r="1.5"/>
	<g>
		<defs>
			<circle id="SVGID_00000178179764914187651350000004876401955286746791_" cx="106.5" cy="80.1" r="1.5"/>
		</defs>
		<clipPath id="SVGID_00000134216150308032328200000003711887250412764578_">
			<use xlink:href="#SVGID_00000178179764914187651350000004876401955286746791_"  style="overflow:visible;"/>
		</clipPath>
		<g style="clip-path:url(#SVGID_00000134216150308032328200000003711887250412764578_);">
			<circle style="fill:#BDBDBD;" cx="106.5" cy="79.5" r="1.5"/>
		</g>
	</g>
</g>
<g>
	<circle style="fill:#9E9E9E;" cx="21.7" cy="60.4" r="1.5"/>
	<g>
		<defs>
			<circle id="SVGID_00000057125356488179558730000004079867705282351789_" cx="21.7" cy="60.4" r="1.5"/>
		</defs>
		<clipPath id="SVGID_00000013151125969723213350000003773482443033537437_">
			<use xlink:href="#SVGID_00000057125356488179558730000004079867705282351789_"  style="overflow:visible;"/>
		</clipPath>
		<g style="clip-path:url(#SVGID_00000013151125969723213350000003773482443033537437_);">
			<circle style="fill:#BDBDBD;" cx="21.7" cy="59.8" r="1.5"/>
		</g>
	</g>
</g>
<g>
	<circle style="fill:#9E9E9E;" cx="21.7" cy="49.6" r="1.5"/>
	<g>
		<defs>
			<circle id="SVGID_00000054258738569702114120000016589986066689163905_" cx="21.7" cy="49.6" r="1.5"/>
		</defs>
		<clipPath id="SVGID_00000152978138052561853350000015788228655698060475_">
			<use xlink:href="#SVGID_00000054258738569702114120000016589986066689163905_"  style="overflow:visible;"/>
		</clipPath>
		<g style="clip-path:url(#SVGID_00000152978138052561853350000015788228655698060475_);">
			<circle style="fill:#BDBDBD;" cx="21.7" cy="49" r="1.5"/>
		</g>
	</g>
</g>
<g>
	<circle style="fill:#9E9E9E;" cx="21.7" cy="90.8" r="1.5"/>
	<g>
		<defs>
			<circle id="SVGID_00000005224709500387358650000003396771705522312121_" cx="21.7" cy="90.8" r="1.5"/>
		</defs>
		<clipPath id="SVGID_00000150798748502860087210000004204012859915493555_">
			<use xlink:href="#SVGID_00000005224709500387358650000003396771705522312121_"  style="overflow:visible;"/>
		</clipPath>
		<g style="clip-path:url(#SVGID_00000150798748502860087210000004204012859915493555_);">
			<circle style="fill:#BDBDBD;" cx="21.7" cy="90.2" r="1.5"/>
		</g>
	</g>
</g>
<g>
	<circle style="fill:#9E9E9E;" cx="21.7" cy="80.1" r="1.5"/>
	<g>
		<defs>
			<circle id="SVGID_00000012439940734071488460000014694582804801934239_" cx="21.7" cy="80.1" r="1.5"/>
		</defs>
		<clipPath id="SVGID_00000054258814919260891920000010866646421378035372_">
			<use xlink:href="#SVGID_00000012439940734071488460000014694582804801934239_"  style="overflow:visible;"/>
		</clipPath>
		<g style="clip-path:url(#SVGID_00000054258814919260891920000010866646421378035372_);">
			<circle style="fill:#BDBDBD;" cx="21.7" cy="79.5" r="1.5"/>
		</g>
	</g>
</g>
</svg>
