<?xml version="1.0" standalone="no"?>
<!DOCTYPE svg PUBLIC "-//W3C//DTD SVG 1.1//EN" "http://www.w3.org/Graphics/SVG/1.1/DTD/svg11.dtd" >
<svg xmlns="http://www.w3.org/2000/svg" xmlns:xlink="http://www.w3.org/1999/xlink" version="1.1" viewBox="-10 0 779 1000">
   <path fill="currentColor"
d="M394 1006q-44 -33 -72 -65q51 -51 70 -73q16 17 32.5 33.5t33.5 31.5q-23 33 -64 73zM396 800q-40 0 -81 -2t-73.5 -4.5t-49.5 -5.5q-17 -4 -45 -16t-56.5 -28t-48.5 -30l11 -35q37 9 74.5 17t76.5 14q15 -19 29.5 -37t28.5 -35q-32 -176 -48.5 -283.5t-16.5 -146.5
q0 -34 16 -53t51 -26q5 24 13.5 50.5t21.5 68.5l-27 23q3 24 6.5 59.5t8 72.5t7.5 67.5t4 43.5q2 21 2.5 40.5t1.5 38.5q141 -150 240 -150q28 0 69.5 23t74.5 59q32 37 32 64q0 61 -39 108t-118 75q-77 28 -165 28zM406 724q130 0 267 -86q-30 -53 -72.5 -82t-83.5 -29
q-49 0 -118.5 50t-143.5 140q38 4 76 5.5t75 1.5z" />
</svg>
