<?xml version="1.0" encoding="UTF-8" standalone="no"?>
<svg
   version="1.1"
   viewBox="0 0 200 200"
   width="200"
   height="200"
   id="svg6"
   xmlns="http://www.w3.org/2000/svg"
   xmlns:svg="http://www.w3.org/2000/svg">
  <defs
     id="defs10" />
  <g
     fill="black"
     id="g4">
    <path
       d="m 84.7,106.2 c -0.37386,-1.44998 -0.813158,-2.88395 -1.3,-4.3 -0.511202,-1.48691 -1.057716,-2.964837 -1.7,-4.4 -0.657688,-1.469581 -1.423438,-2.889619 -2.2,-4.3 -0.821685,-1.492332 -1.686341,-2.962137 -2.6,-4.4 -0.95203,-1.498249 -1.954573,-2.965359 -3,-4.4 -1.119134,-1.53579 -2.311408,-3.017313 -3.5,-4.5 -1.243988,-1.551789 -2.495754,-3.098502 -3.8,-4.6 -1.361603,-1.56753 -4.2,-4.6 -4.2,-4.6 l 1.1,-1.5 1.593149,0.93882 c 0,0 5.344865,0.04975 8.006851,0.26118 2.646013,0.210164 5.28132,0.566329 7.9,1 2.618474,0.433637 5.229582,0.938642 7.8,1.6 2.501587,0.643648 4.976314,1.40671 7.4,2.3 2.381957,0.87791 4.73042,1.862692 7,3 2.20306,1.103975 4.37581,2.294697 6.4,3.7 2.02289,1.404402 3.95711,2.960238 5.7,4.7 1.77611,1.772915 3.39374,3.721486 4.8,5.8 1.44601,2.137274 2.62527,4.453974 3.7,6.8 0.78644,1.7167 1.60976,3.4525 2,5.3 0.49677,2.35181 0.69656,4.81466 0.4,7.2 -0.27576,2.218 -0.96263,4.42025 -2,6.4 -0.98104,1.87225 -2.37696,3.53435 -3.9,5 -1.47982,1.42405 -3.16924,2.66935 -5,3.6 -1.81356,0.9219 -3.79934,1.53086 -5.8,1.9 -2.03474,0.37543 -4.14334,0.52639 -6.2,0.3 -2.13008,-0.23447 -4.253842,-0.80295 -6.2,-1.7 -2.048699,-0.94431 -4.085788,-2.12786 -5.6,-3.8 -3.232492,-3.56964 -6.568831,-8.79927 -6.9,-13.5 -0.04974,-0.70605 0.466206,-1.36281 0.470588,-2.07059 C 85.074238,107.33986 84.847196,106.77089 84.7,106.2 Z M 74.2,76.1 c 1.58938,1.230846 3.121354,2.53812 4.6,3.9 1.421645,1.309381 2.793492,2.675714 4.1,4.1 1.295386,1.412161 2.534951,2.878526 3.7,4.4 1.135595,1.483008 2.188048,3.030018 3.2,4.6 0.98798,1.532792 1.951089,3.086028 2.8,4.7 0.854001,1.62365 1.610653,3.2999 2.3,5 0.677409,1.67066 1.3001,3.36792 1.8,5.1 0.220103,0.76262 0.309838,1.55867 0.525843,2.32247 0.18952,0.67015 0.352674,1.35974 0.674157,1.97753 0.495506,0.95221 1.132198,1.84987 1.9,2.6 0.66803,0.65266 1.44788,1.21775 2.3,1.6 0.78193,0.35076 1.64722,0.51507 2.5,0.6 0.89618,0.0893 1.81477,0.0658 2.7,-0.1 0.90145,-0.16882 1.7806,-0.48806 2.6,-0.9 0.793,-0.39867 1.56101,-0.88399 2.2,-1.5 0.56637,-0.546 1.03332,-1.20399 1.4,-1.9 0.37835,-0.71815 0.69149,-1.49557 0.8,-2.3 0.0725,-0.53772 -0.0333,-1.08678 -0.10828,-1.62417 -0.26251,-1.88237 -0.63817,-3.75764 -1.19172,-5.57583 -0.52281,-1.71723 -1.17235,-3.407136 -2,-5 -0.84404,-1.624409 -1.85538,-3.171381 -3,-4.6 -1.19385,-1.49006 -2.56936,-2.835559 -4,-4.1 -1.56855,-1.386321 -3.25309,-2.646521 -5,-3.8 -1.85622,-1.225654 -3.821738,-2.283016 -5.8,-3.3 -2.122289,-1.091025 -4.302319,-2.070138 -6.5,-3 -2.303209,-0.974512 -4.64469,-1.859192 -7,-2.7 -2.412362,-0.861175 -4.862006,-1.614317 -7.3,-2.4 -0.536823,-0.173 -1.613492,-0.509524 -1.613492,-0.509524 0,0 2.312333,1.556766 3.413492,2.409524 z"
       id="path2" />
  </g>
</svg>
