<?xml version="1.0" encoding="UTF-8" standalone="no"?>
<svg
   version="1.1"
   viewBox="0 0 200 200"
   width="200"
   height="200"
   id="svg6"
   xmlns="http://www.w3.org/2000/svg"
   xmlns:svg="http://www.w3.org/2000/svg">
  <defs
     id="defs10" />
  <g
     fill="black"
     id="g4">
    <path
       id="path2"
       d="m 122.09961,13.5 c 0,0 -5.02534,8.615707 -7.40039,13 -2.39298,4.41741 -4.71211,8.877133 -6.89844,13.400391 -2.18133,4.512933 -4.21406,9.097459 -6.20117,13.699218 -2.01461,4.665447 -3.973971,9.356727 -5.798829,14.09961 -1.843903,4.792383 -3.557093,9.635443 -5.201172,14.5 -1.65734,4.903794 -3.222026,9.839745 -4.699218,14.800781 -1.490918,5.00713 -2.886929,10.04323 -4.201172,15.09961 -1.319982,5.07846 -2.55862,10.17905 -3.699219,15.30078 -1.160907,5.21292 -2.205661,10.45183 -3.199219,15.69922 -0.776483,4.10093 -1.289675,8.25155 -2.158203,12.33398 -0.126273,0.59353 -0.329026,1.16968 -0.443359,1.76563 -0.06888,0.35902 -0.109201,0.72325 -0.145516,1.08701 -0.02699,0.27037 -0.04475,0.54181 -0.0537,0.81338 -0.02088,0.63312 -0.01704,1.26716 0,1.90039 0.03321,1.23441 0.01543,2.47811 0.199219,3.69922 0.184179,1.22368 0.507346,2.42817 0.90039,3.60156 0.379424,1.13273 0.858277,2.23433 1.400391,3.29883 0.529287,1.03931 1.120396,2.05269 1.800781,3 0.689716,0.9603 1.462801,1.86514 2.298828,2.70117 0.836027,0.83603 1.740873,1.60911 2.701172,2.29883 0.947306,0.68038 1.960689,1.27149 3,1.80078 1.064497,0.54211 2.166025,1.02118 3.298828,1.40039 1.172717,0.39257 2.37908,0.69924 3.59961,0.89844 1.254292,0.20471 2.529894,0.30215 3.800781,0.30078 1.237142,-0.001 2.478435,-0.10026 3.699219,-0.30078 1.22095,-0.20055 2.428221,-0.50575 3.601561,-0.89844 1.13283,-0.37914 2.23433,-0.85828 3.29883,-1.40039 1.03931,-0.52929 2.05269,-1.1204 3,-1.80078 0.9603,-0.68972 1.86514,-1.4628 2.70117,-2.29883 0.83603,-0.83603 1.60911,-1.74087 2.29883,-2.70117 0.68038,-0.94731 1.27149,-1.96069 1.80078,-3 0.54211,-1.0645 1.02125,-2.166 1.40039,-3.29883 0.39269,-1.17334 0.69789,-2.38061 0.89844,-3.60156 0.20052,-1.22078 0.29944,-2.46208 0.30078,-3.69922 0.001,-1.27089 -0.0961,-2.54649 -0.30078,-3.80078 -0.1992,-1.22053 -0.50587,-2.42689 -0.89844,-3.59961 -0.37921,-1.1328 -0.85828,-2.23433 -1.40039,-3.29883 -0.52929,-1.03931 -1.1204,-2.05269 -1.80078,-3 -0.68972,-0.9603 -1.4628,-1.86514 -2.29883,-2.70117 -0.83603,-0.83603 -1.74087,-1.60911 -2.70117,-2.29883 -0.94731,-0.68038 -1.96069,-1.27149 -3,-1.80078 -1.0645,-0.54211 -2.1661,-1.02097 -3.29883,-1.40039 -1.17339,-0.39304 -2.377876,-0.71621 -3.601561,-0.90039 C 97.478113,138.01543 96.23486,138.00089 95,138 c -1.268666,-9.1e-4 -2.546122,0.0112 -3.800781,0.19922 -1.223181,0.18329 -2.426913,0.50726 -3.59961,0.90039 -0.236756,0.0794 -0.689453,0.29297 -0.689453,0.29297 L 88.5,129.59961 c 0,0 1.929041,-10.14734 3,-15.19922 1.063226,-5.0154 2.176091,-10.02146 3.400391,-14.999999 1.210704,-4.923247 2.545085,-9.815753 3.90039,-14.701172 1.345149,-4.84881 2.708589,-9.693919 4.199219,-14.5 1.47688,-4.761767 3.0775,-9.484813 4.69922,-14.199219 1.61191,-4.685863 3.26924,-9.356721 5,-14 1.73617,-4.657807 3.54523,-9.288683 5.40039,-13.900391 1.8459,-4.588703 5.70117,-13.699218 5.70117,-13.699218 z M 95,150 c 0.601177,8.7e-4 1.205247,0.0174 1.800781,0.0996 0.608516,0.084 1.217215,0.20273 1.798828,0.40039 0.522316,0.17751 1.006495,0.45269 1.500001,0.69922 0.50704,0.25329 1.03733,0.47339 1.5,0.80078 0.44311,0.31355 0.81733,0.71577 1.20117,1.09961 0.38384,0.38384 0.78628,0.7579 1.09961,1.20117 0.32698,0.46258 0.54566,0.99324 0.79883,1.5 0.24666,0.49374 0.52329,0.97752 0.70117,1.5 0.19797,0.58151 0.30147,1.19256 0.40039,1.79883 0.10256,0.62862 0.20105,1.26346 0.19922,1.90039 -0.002,0.60392 -0.10026,1.20502 -0.19922,1.80078 -0.10065,0.60598 -0.20242,1.21732 -0.40039,1.79883 -0.17788,0.52248 -0.45451,1.00626 -0.70117,1.5 -0.25317,0.50676 -0.47185,1.03742 -0.79883,1.5 -0.31333,0.44327 -0.71577,0.81733 -1.09961,1.20117 -0.38384,0.38384 -0.7579,0.78628 -1.20117,1.09961 -0.46258,0.32698 -0.99324,0.54566 -1.5,0.79883 -0.493745,0.24666 -0.97752,0.52329 -1.500001,0.70117 -0.581507,0.19797 -1.192847,0.29974 -1.798828,0.40039 -0.59576,0.099 -1.196861,0.1975 -1.800781,0.19923 -0.636932,0.002 -1.271768,-0.0967 -1.900391,-0.19922 -0.606267,-0.0989 -1.217321,-0.20242 -1.798828,-0.40039 -0.522481,-0.17788 -1.006255,-0.45451 -1.5,-0.70117 -0.506764,-0.25317 -1.037415,-0.47185 -1.5,-0.79883 -0.443268,-0.31333 -0.817335,-0.71577 -1.201172,-1.09961 -0.383837,-0.38384 -0.786055,-0.75806 -1.099609,-1.20117 -0.327395,-0.46267 -0.547491,-0.99296 -0.800781,-1.5 C 84.952692,165.6061 84.67751,165.12193 84.5,164.59961 84.302337,164.018 84.183586,163.4093 84.099609,162.80078 84.017424,162.20525 84.00098,161.60118 84,161 c -8.58e-4,-0.5261 0.03356,-1.05231 0.08203,-1.57617 0.01906,-0.20601 0.04583,-0.41154 0.08203,-0.61524 0.0901,-0.50698 0.170196,-1.02029 0.335938,-1.50781 0.177564,-0.5223 0.452692,-1.00649 0.699219,-1.5 0.25329,-0.50704 0.473386,-1.03733 0.800781,-1.5 0.313554,-0.44311 0.715772,-0.81733 1.099609,-1.20117 0.383837,-0.38384 0.758063,-0.78606 1.201172,-1.09961 0.462669,-0.32739 0.992956,-0.54749 1.5,-0.80078 0.493506,-0.24653 0.977685,-0.52171 1.5,-0.69922 0.581613,-0.19766 1.190191,-0.31729 1.798828,-0.40039 C 93.728112,150.0138 94.365667,149.99908 95,150 Z" />
  </g>
</svg>
