<?xml version="1.0" encoding="UTF-8" standalone="no"?>
<svg
   version="1.1"
   viewBox="0 0 200 200"
   width="200"
   height="200"
   id="svg6"
   xmlns="http://www.w3.org/2000/svg"
   xmlns:svg="http://www.w3.org/2000/svg">
  <defs
     id="defs10" />
  <g
     fill="black"
     id="g4">
    <path
       d="m 146.5,42.5 c -14.3757,-2.098304 -28.96432,-0.813821 -43.42613,-0.826982 -2.4527,0.341018 3.91945,1.672861 4.93807,3.089124 2.77057,1.133099 3.44236,3.796985 3.9669,6.460276 -0.61904,2.51029 -3.49731,3.912303 -2.48094,6.462236 1.26557,11.434226 2.17518,22.910634 2.48173,34.412778 13.99609,-0.477566 28.02983,-0.194073 41.96127,-1.789908 2.85076,0.484021 4.72728,-1.29633 7.19262,-2.220616 6.27611,-1.787873 12.98958,1.76394 17.32272,6.032994 1.539,2.573288 1.54974,5.094126 -0.21821,7.553918 -1.72751,1.50011 -4.86443,2.7058 -6.98724,0.9182 -2.2575,-1.42976 -4.8087,-0.64065 -7.29889,-1.78675 -14.12941,-2.142358 -28.51628,-1.242404 -42.764,-1.318412 -2.99057,0.03253 -5.98057,0.104709 -8.9709,0.154115 0.67459,27.855217 -0.86076,55.773887 -4.817,83.359027 -1.31503,2.51144 -2.87083,4.68342 -5.97721,4.6693 -2.191619,0.10691 -5.354035,-1.77617 -5.354719,-4.34537 -0.355094,-2.71223 -3.157429,-3.94202 -4.427833,-6.42363 C 84.160142,167.47931 75.756698,158.83343 67.3,150.3 c 1.203313,-3.20961 4.451159,0.84181 6.602916,1.20146 8.478035,4.15893 16.257568,9.65557 23.451174,15.74564 2.619934,-22.38231 3.36844,-44.95348 2.86232,-67.473903 -16.236429,1.016753 -32.42232,2.990273 -48.669924,4.013183 -2.76167,0.42671 -5.908623,0.0404 -8.440072,0.96013 -1.480208,2.22572 -5.002788,2.15337 -7.194301,1.12461 C 28.041538,102.1497 20.667587,93.864124 22.7,84.6 c -0.669895,-3.798468 3.073959,-3.148976 2.507888,0.196878 1.840508,4.129736 5.547991,7.195188 9.792112,8.63494 1.748795,-0.947995 5.318823,0.04765 7.791951,-0.207602 19.065482,0.284001 38.130248,-0.233603 57.185438,-0.812794 C 99.47465,77.517969 98.305948,62.628458 96,47.9 c -0.390271,-1.339258 -4.073272,-2.771112 -5.8,-4 -2.842964,-1.080929 -6.165748,0.502607 -9.20112,0.50014 -6.095451,0.7877 -12.20906,1.422886 -18.31604,2.112878 -0.844287,2.525334 -4.365753,3.190082 -6.684578,2.752249 -2.139221,-1.072986 -5.975363,-0.966518 -6.835878,-2.260534 -3.231197,-2.393361 -7.321095,-5.151397 -8.99588,-9.292225 C 38.900478,35.021383 38.795908,31.992235 38.3,29.1 c 2.845488,-1.276569 2.680068,3.631585 5.180561,4.619276 1.812222,1.498016 4.602708,3.457462 6.115496,2.280724 24.996238,0.09578 49.989864,-1.055817 74.959193,-1.811066 4.3307,-0.58878 8.72641,-0.973505 12.57114,-3.22648 7.9484,-3.299004 17.97496,-1.157917 23.60056,5.267213 1.33739,2.662447 1.20746,5.195164 -0.63023,7.576894 -2.08891,1.450682 -5.18525,2.422041 -7.38807,0.36372 C 150.68478,43.538858 148.66631,43.165625 146.5,42.5 Z"
       id="path2" />
  </g>
</svg>
