<?xml version="1.0" encoding="UTF-8" standalone="no"?>
<svg
   version="1.1"
   viewBox="0 0 200 200"
   width="200"
   height="200"
   id="svg6"
   xmlns="http://www.w3.org/2000/svg"
   xmlns:svg="http://www.w3.org/2000/svg">
  <defs
     id="defs10" />
  <g
     fill="black"
     id="g4">
    <path
       d="m 45,177.9 c -5.188931,-3.1538 -9.160222,-7.78703 -13.7,-11.7 1.059708,-3.03381 3.925567,0.7301 6.22946,0.28851 3.721448,0.81246 7.647129,2.23983 11.254566,0.29224 C 63.559705,162.10682 78.275182,157.2448 93,152.41367 93,114.63245 93,76.851223 93,39.07 90.100209,34.230602 85.237629,30.49982 79.8,29 c -0.298183,-3.388522 3.820693,-0.747396 5.82286,-1.275126 7.592458,0.499595 14.9028,4.758712 18.89093,11.275126 0.8564,1.218238 2.82604,3.956275 2.16137,6.086301 0.19647,2.942368 -2.57971,4.218802 -1.67516,7.29329 0,32.017913 0,64.035829 0,96.053739 24.55772,-8.03801 48.93325,-16.62961 73.6,-24.33333 2.02901,2.79544 -3.09696,2.88357 -4.64397,4.32592 -33.1005,16.23259 -67.5529,29.50317 -102.052427,42.41822 -5.775384,2.26228 -11.925961,4.0121 -17.46493,6.60614 -1.106484,2.48836 -4.472842,2.5839 -6.699483,2.06931 C 46.758751,179.09385 45.895833,178.47395 45,177.9 Z"
       id="path2" />
  </g>
</svg>
