<?xml version="1.0" encoding="UTF-8" standalone="no"?>
<svg
   version="1.1"
   viewBox="0 0 200 200"
   width="200"
   height="200"
   id="svg6"
   xmlns="http://www.w3.org/2000/svg"
   xmlns:svg="http://www.w3.org/2000/svg">
  <defs
     id="defs10" />
  <g
     fill="black"
     id="g4">
    <path
       id="path2"
       d="M 35.044922 26.541016 C 34.274083 26.518415 33.731131 26.862834 33.699219 28.099609 C 37.563867 29.522472 40.601802 32.924271 42.072266 36.730469 C 37.838261 55.69581 34.507017 74.89589 33.123047 94.294922 C 31.844881 111.84208 32.251648 129.64042 35.900391 146.90039 C 37.286133 151.92338 38.275027 157.0508 40.378906 161.84375 C 41.307908 164.70775 42.336837 167.50589 44.982422 169.21875 C 47.000286 170.26015 50.604385 170.29777 51.871094 167.86719 C 54.077399 166.31209 53.318062 163.22274 52.884766 160.95703 C 52.141646 159.06733 53.01032 156.94401 53.335938 154.3457 C 57.704348 139.405 65.581606 125.80674 72.136719 111.75977 C 72.423039 109.69365 76.38391 106.52225 73.199219 105.5 C 63.835579 117.6202 54.92391 130.15927 47.464844 143.55469 C 46.271579 137.58841 45.375499 131.58036 44.912109 125.51172 C 43.195397 99.693025 46.655722 73.813844 51.857422 48.558594 C 52.150904 45.88298 54.21093 44.374966 54.388672 41.509766 C 53.087947 34.345055 46.59237 28.718009 39.5 27.300781 C 38.249463 27.639078 36.329653 26.578683 35.044922 26.541016 z M 149.30078 29.800781 C 126.38567 29.745008 103.09153 33.050201 81.976562 42.269531 C 80.409684 43.689934 75.356533 43.654784 77.199219 46.5 C 89.374113 44.457979 101.56884 42.404765 113.88672 41.449219 C 116.4479 43.930802 119.10327 46.385517 121.05859 49.394531 C 121.67536 61.571132 122.49983 73.994319 122.64062 86.287109 C 109.5535 87.166322 96.370437 86.538405 83.417969 84.482422 C 79.250531 84.270087 75.108737 82.079055 70.986328 83.046875 C 68.275881 82.948254 66.382442 85.906914 66.171875 88.171875 C 66.211804 91.12534 67.829042 92.989457 70.445312 94.166016 C 77.659089 95.51513 85.193622 95.910821 92.582031 96.109375 C 102.67963 96.661678 112.66328 94.610492 122.74805 94.925781 C 122.97375 116.08076 121.79252 137.24737 119.38477 158.26367 C 111.4189 149.91615 102.55148 142.44884 93.296875 135.57227 C 90.284731 132.62292 90.01603 137.13727 92.716797 138.50977 C 100.96694 148.81408 110.31288 158.49896 116.4668 170.27344 C 118.10247 172.63639 117.35971 175.96272 119.24805 177.89844 C 121.39748 179.94332 123.84568 180.04844 126.48828 178.90234 C 127.78624 177.4023 130.00796 174.86866 129.5293 173.2207 C 133.2522 147.1206 135.05903 120.74051 134.74414 94.375 C 144.67037 93.384875 154.59582 92.304139 164.40234 90.441406 C 168.50359 89.209928 173.3925 89.787625 176.72852 86.800781 C 178.79821 85.723296 179.26981 82.028195 178.18359 80.279297 C 176.96281 77.504885 174.32862 77.075243 171.59961 76.800781 C 159.42502 80.153266 147.07286 82.837423 134.61328 84.888672 C 134.44886 75.670742 134.08541 66.45531 133.47852 57.255859 C 133.17049 54.705763 134.82818 52.767691 134.01953 50.023438 C 131.41725 45.690639 126.47205 42.981999 121.82812 41.050781 C 126.01747 40.861084 130.20913 40.92091 134.40039 41 L 138.53125 41.173828 C 142.65462 40.899623 147.0372 42.695579 150.91797 40.955078 C 153.39134 40.533559 155.0226 37.200394 154.51758 35.005859 C 154.27224 31.943523 151.86255 30.805501 149.30078 29.800781 z " />
  </g>
</svg>
