<?xml version="1.0" encoding="UTF-8" standalone="no"?>
<svg
   viewBox="0 0 36 36"
   version="1.1"
   id="svg5"
   sodipodi:docname="1f1f2-1f1f3.svg"
   inkscape:version="1.4 (86a8ad7, 2024-10-11)"
   xmlns:inkscape="http://www.inkscape.org/namespaces/inkscape"
   xmlns:sodipodi="http://sodipodi.sourceforge.net/DTD/sodipodi-0.dtd"
   xmlns="http://www.w3.org/2000/svg"
   xmlns:svg="http://www.w3.org/2000/svg">
  <defs
     id="defs5" />
  <sodipodi:namedview
     id="namedview5"
     pagecolor="#ffffff"
     bordercolor="#666666"
     borderopacity="1.0"
     inkscape:showpageshadow="2"
     inkscape:pageopacity="0.0"
     inkscape:pagecheckerboard="0"
     inkscape:deskcolor="#d1d1d1"
     inkscape:zoom="20.972222"
     inkscape:cx="18.023841"
     inkscape:cy="18"
     inkscape:window-width="1680"
     inkscape:window-height="998"
     inkscape:window-x="-8"
     inkscape:window-y="-8"
     inkscape:window-maximized="1"
     inkscape:current-layer="svg5" />
  <path
     d="m 36,27 c 0,2.21 -1.79,4 -4,4 h -8 l -6,-5 -6,5 H 4 C 1.79,31 0,29.21 0,27 V 9 C 0,6.79 1.79,5 4,5 h 8 l 6,5 6,-5 h 8 c 2.21,0 4,1.79 4,4 z"
     fill="#c4272f"
     id="path1"
     sodipodi:nodetypes="sscccsssscccsss" />
  <path
     d="M 12,5 H 24 V 31 H 12 Z"
     fill="#005197"
     id="path2"
     sodipodi:nodetypes="ccccc" />
  <g
     fill="#f9cf01"
     id="g5">
    <path
       d="m1.29 16.43h1.57v12.57h-1.57zm2.4 2.36h4.63v.79h-4.64zm5.46-2.36h1.57v12.57h-1.58zm-5.46 9.43h4.63v.79h-4.64zm.09-9.43h4.46l-2.24 1.56zm-.09 11.2h4.64l-2.33 1.62zm3.89-15.91c0 .87-.7 1.57-1.57 1.57s-1.57-.7-1.57-1.57.7-1.57 1.57-1.57 1.57.7 1.57 1.57zm-.79-2.95c0 .76-.35.98-.79.98s-.79-.22-.79-.98.54-1.77.79-1.77.79 1.01.79 1.77z"
       id="path3" />
    <path
       d="m6 14.4c-1.3 0-2.44-.59-3.08-1.48.27 1.46 1.55 2.57 3.08 2.57s2.81-1.11 3.08-2.57c-.65.88-1.78 1.48-3.08 1.48zm2.57 8.31c0-1.1-.69-2.02-1.65-2.39.3.26.58.45.58 1.06 0 .97-.58 1.5-1.5 1.5v.01c-.64.02-1.16.55-1.16 1.19 0 .65.52 1.17 1.16 1.19v.01h.03.01c.02 0 .03-.01.04-.01 1.38-.05 2.49-1.17 2.49-2.56zm-2.94 1.37c0-.23.18-.41.41-.41s.41.18.41.41-.18.41-.41.41-.41-.19-.41-.41z"
       id="path4" />
    <path
       d="m6 20.15v-.01h-.02-.01c-.01 0-.02.01-.03.01-1.39.03-2.51 1.16-2.51 2.56 0 1.1.69 2.02 1.65 2.39-.3-.26-.56-.45-.56-1 0-.98.52-1.52 1.43-1.52v-.02h.01c.67 0 1.21-.55 1.21-1.21s-.53-1.19-1.18-1.21zm-.03 1.62c-.23 0-.42-.19-.42-.42s.19-.42.42-.42.42.19.42.42-.19.42-.42.42z"
       id="path5" />
  </g>
</svg>
