<?xml version="1.0" encoding="UTF-8" standalone="no"?>
<svg
   viewBox="0 0 36 36"
   version="1.1"
   id="svg4"
   sodipodi:docname="1f1f2-1f1f6_new.svg"
   inkscape:version="1.3 (0e150ed6c4, 2023-07-21)"
   xmlns:inkscape="http://www.inkscape.org/namespaces/inkscape"
   xmlns:sodipodi="http://sodipodi.sourceforge.net/DTD/sodipodi-0.dtd"
   xmlns="http://www.w3.org/2000/svg"
   xmlns:svg="http://www.w3.org/2000/svg">
  <defs
     id="defs4" />
  <sodipodi:namedview
     id="namedview4"
     pagecolor="#ffffff"
     bordercolor="#666666"
     borderopacity="1.0"
     inkscape:showpageshadow="2"
     inkscape:pageopacity="0.0"
     inkscape:pagecheckerboard="0"
     inkscape:deskcolor="#d1d1d1"
     showgrid="true"
     inkscape:zoom="16"
     inkscape:cx="26.5625"
     inkscape:cy="15.59375"
     inkscape:window-width="1680"
     inkscape:window-height="998"
     inkscape:window-x="-8"
     inkscape:window-y="-8"
     inkscape:window-maximized="1"
     inkscape:current-layer="svg4">
    <inkscape:grid
       id="grid4"
       units="px"
       originx="0"
       originy="0"
       spacingx="1"
       spacingy="1"
       empcolor="#3f3fff"
       empopacity="0.25098039"
       color="#3f3fff"
       opacity="0.1254902"
       empspacing="5"
       dotted="false"
       gridanglex="30"
       gridanglez="30"
       visible="true" />
  </sodipodi:namedview>
  <path
     id="noir"
     style="fill:#231f1e;stroke-width:0.999999"
     d="M 15 14 L 1.0996094 29.753906 C 1.8274924 30.520545 2.8545133 31 4 31 L 32 31 C 34.215998 31 36 29.215998 36 27 L 36 18 L 32 14 L 15 14 z " />
  <path
     id="vert"
     style="fill:#00a650;stroke-width:0.999999"
     d="M 4 5 C 2.9034992 5 1.9145272 5.4386485 1.1933594 6.1484375 L 13.523438 18 L 36 18 L 36 9 C 36 6.7840022 34.215998 5 32 5 L 4 5 z " />
  <path
     id="tri_rouge"
     style="fill:#ef1923;stroke-width:0.999999"
     d="M 1.3691406 5.9882812 C 0.53090833 6.7204382 0 7.7945048 0 9 L 0 27 C 0 28.205495 0.53090833 29.279562 1.3691406 30.011719 L 18 18 L 1.3691406 5.9882812 z " />
</svg>
