<?xml version="1.0" encoding="UTF-8" standalone="no"?>
<svg
   version="1.1"
   viewBox="-10 0 613 1000"
   id="svg4"
   sodipodi:docname="1DF18.svg"
   inkscape:version="1.1.1 (3bf5ae0d25, 2021-09-20)"
   xmlns:inkscape="http://www.inkscape.org/namespaces/inkscape"
   xmlns:sodipodi="http://sodipodi.sourceforge.net/DTD/sodipodi-0.dtd"
   xmlns="http://www.w3.org/2000/svg"
   xmlns:svg="http://www.w3.org/2000/svg">
  <defs
     id="defs8" />
  <sodipodi:namedview
     id="namedview6"
     pagecolor="#ffffff"
     bordercolor="#666666"
     borderopacity="1.0"
     inkscape:pageshadow="2"
     inkscape:pageopacity="0.0"
     inkscape:pagecheckerboard="0"
     showgrid="false"
     inkscape:zoom="0.719"
     inkscape:cx="306.67594"
     inkscape:cy="499.30459"
     inkscape:window-width="1680"
     inkscape:window-height="998"
     inkscape:window-x="-8"
     inkscape:window-y="-8"
     inkscape:window-maximized="1"
     inkscape:current-layer="svg4"
     inkscape:object-paths="true" />
  <path
     fill="currentColor"
     d="M274 811q-84 0 -134.5 -19t-72.5 -48t-22 -57q0 -37 22.5 -55.5t61.5 -18.5q0 35 15 68t47 54t82 21q71 0 114.5 -35.5t43.5 -125.5q0 -71 -46.5 -109t-130.5 -38h-73v-41l223 -240h-190q-45 0 -61.5 10.5t-21.5 51.5l-1 9h-42l5 -152h418v41l-246 264q129 2 203 53 t74 152q0 77 -37 124.5t-98 69t-133 21.5z"
     id="path2" />
  <path
     fill="currentColor"
     d="M 509.98154,484.7614 H 732.9815 v 171 c 0,46.66667 -8.00004,82.99998 -24.00004,108.99998 -16,26 -42.6666,39 -79.99992,39 -23.33333,0 -41.83333,-4.6666 -55.5,-14 -13.66667,-9.3333 -20.5,-23 -20.5,-41 0,-14.6666 5,-26.99998 15,-36.99998 8,5.33333 16,9.33333 24,12 8,2.66667 17.33333,4 28,4 16.66663,0 30.33332,-5.16667 40.99992,-15.5 10.6667,-10.33333 16,-29.16667 16,-56.5 v -119 H 509.98154 Z"
     id="path2-0"
     sodipodi:nodetypes="ccssssscssssccc" />
</svg>
