<?xml version="1.0" encoding="UTF-8" standalone="no"?>
<svg
   version="1.1"
   viewBox="-10 0 320 1000"
   id="svg4"
   sodipodi:docname="1DF11.svg"
   inkscape:version="1.1.1 (3bf5ae0d25, 2021-09-20)"
   xmlns:inkscape="http://www.inkscape.org/namespaces/inkscape"
   xmlns:sodipodi="http://sodipodi.sourceforge.net/DTD/sodipodi-0.dtd"
   xmlns="http://www.w3.org/2000/svg"
   xmlns:svg="http://www.w3.org/2000/svg">
  <defs
     id="defs8" />
  <sodipodi:namedview
     id="namedview6"
     pagecolor="#ffffff"
     bordercolor="#666666"
     borderopacity="1.0"
     inkscape:pageshadow="2"
     inkscape:pageopacity="0.0"
     inkscape:pagecheckerboard="0"
     showgrid="false"
     inkscape:object-paths="true"
     inkscape:zoom="0.719"
     inkscape:cx="160.63978"
     inkscape:cy="499.30459"
     inkscape:window-width="1680"
     inkscape:window-height="998"
     inkscape:window-x="-8"
     inkscape:window-y="-8"
     inkscape:window-maximized="1"
     inkscape:current-layer="svg4" />
  <path
     id="path2"
     d="m 23,40 v 42 h 13 c 22,0 41.166667,4 57.5,12 16.33333,8 24.5,26.66667 24.5,56 v 536 c 0,31.33333 -8,51.16667 -24,59.5 C 78,753.83333 58.666667,758 36,758 H 23 v 42 h 284 v -42 h -13 c -22.66667,0 -42,-4.16667 -58,-12.5 -16,-8.33333 -24,-28.16667 -24,-59.5 V 455 c 0,-40.66667 3,-72.16667 9,-94.5 6,-22.33333 14.66667,-38 26,-47 11.33333,-9 24.33333,-13.5 39,-13.5 18,0 31.83333,5.16667 41.5,15.5 9.66667,10.33333 16.33333,23.5 20,39.5 3.66667,16 5.5,33.33333 5.5,52 33.33333,0 57.16667,-5.16667 71.5,-15.5 C 438.83333,381.16667 446,367 446,349 446,321.66667 433.83333,299 409.5,281 385.16667,263 345.33333,254 290,254 c -29.91488,0 -55.88948,4.67335 -78,13.92969 V 40 Z"
     transform="translate(-10)"
     sodipodi:nodetypes="ccssccssccccssccssssscssssccc" />
</svg>
