<?xml version="1.0" encoding="UTF-8" standalone="no"?>
<svg
   version="1.1"
   viewBox="-10 0 461 1000"
   id="svg1219"
   sodipodi:docname="1DF29.svg"
   inkscape:version="1.2.1 (9c6d41e410, 2022-07-14)"
   xmlns:inkscape="http://www.inkscape.org/namespaces/inkscape"
   xmlns:sodipodi="http://sodipodi.sourceforge.net/DTD/sodipodi-0.dtd"
   xmlns="http://www.w3.org/2000/svg"
   xmlns:svg="http://www.w3.org/2000/svg">
  <defs
     id="defs1223" />
  <sodipodi:namedview
     id="namedview1221"
     pagecolor="#ffffff"
     bordercolor="#666666"
     borderopacity="1.0"
     inkscape:showpageshadow="2"
     inkscape:pageopacity="0.0"
     inkscape:pagecheckerboard="0"
     inkscape:deskcolor="#d1d1d1"
     showgrid="false"
     inkscape:zoom="1.3350176"
     inkscape:cx="-7.116011"
     inkscape:cy="399.24567"
     inkscape:window-width="1680"
     inkscape:window-height="998"
     inkscape:window-x="-8"
     inkscape:window-y="-8"
     inkscape:window-maximized="1"
     inkscape:current-layer="svg1219" />
  <path
     id="path1217"
     d="m -87.570312,254 c -36.666638,0 -63.833348,6.33334 -81.499998,19 -17.66665,12.66666 -26.5,30.66669 -26.5,54 0,20.66665 7.16668,37.66668 21.5,51 14.33331,13.33332 38.1667,20 71.5,20 0,-27.3333 4.000005,-47.16668 11.999998,-59.5 7.999992,-12.33332 21.666689,-18.5 41,-18.5 18.666651,0 27.268799,7.33334 46.9999995,22 19.7311995,14.66666 34.0411935,34.01815 46.7324215,56 5.649222,11.63322 9.302812,24.55208 11.777344,36.43359 C 58.413985,446.3151 62.85875,457.75602 68.5,467.5 c 10.999989,18.99998 27.666689,35.66668 50,50 22.33331,14.33332 50.50003,29.16668 84.5,44.5 32.66663,13.99999 57.83335,26.16668 75.5,36.5 17.66665,10.33332 30.00001,20.83334 37,31.5 6.99999,10.66666 10.5,24.33335 10.5,41 0,26.66664 -9.50002,48.50002 -28.5,65.5 C 278.50002,753.49998 251.3333,762 216,762 175.33337,762 147.16665,749.49997 131.5,724.5 115.83335,699.50003 108,669.66663 108,635 c -7.99999,0 -16.833343,2 -26.5,6 -9.666657,4 -18.166674,11.00001 -25.5,21 -7.333326,9.99999 -11,24.00002 -11,42 0,34.66663 15.00003,61.00002 45,79 29.99997,17.99998 70.00005,27 120,27 59.33327,0 107.00004,-13.16669 143,-39.5 35.99996,-26.33331 54,-65.50005 54,-117.5 0,-27.99997 -5.16668,-51.66669 -15.5,-71 C 381.16668,562.66669 364.99998,545.66665 343,531 321.00002,516.33335 292.3333,501.66665 257,487 212.33338,469.00002 180.49998,453.16665 161.5,439.5 142.50002,425.83335 133,406.33331 133,381 c 0,-23.33331 7.33335,-42.50002 22,-57.5 14.66665,-14.99998 39.00003,-22.5 73,-22.5 29.3333,0 51.00001,9.33335 65,28 13.99999,18.66665 21,44.6667 21,78 23.33331,0 41.16668,-5.50001 53.5,-16.5 12.33332,-10.99999 18.5,-25.50002 18.5,-43.5 0,-25.33331 -12.33336,-47.00002 -37,-65 -24.66664,-17.99998 -61.00005,-27 -109,-27 -56.66661,0 -102.1667,12.16669 -136.5,36.5 -25.468839,18.05073 -41.469163,41.89331 -48.044922,71.5 h -6.02539 c -8.666662,-19.99998 -18.000011,-38.33335 -28,-55 -9.999991,-16.66665 -23.3333462,-29.83334 -40,-39.5 -16.666654,-9.66666 -39.6667,-14.5 -69,-14.5 z"
     sodipodi:nodetypes="sssscsssczsscsssssscssssssssscssssscsssssccsss" />
</svg>
