<?xml version="1.0" encoding="UTF-8" standalone="no"?>
<svg
   version="1.1"
   viewBox="-10 0 624 1000"
   id="svg135"
   sodipodi:docname="1DF25.svg"
   inkscape:version="1.2.1 (9c6d41e410, 2022-07-14)"
   xmlns:inkscape="http://www.inkscape.org/namespaces/inkscape"
   xmlns:sodipodi="http://sodipodi.sourceforge.net/DTD/sodipodi-0.dtd"
   xmlns="http://www.w3.org/2000/svg"
   xmlns:svg="http://www.w3.org/2000/svg">
  <defs
     id="defs139" />
  <sodipodi:namedview
     id="namedview137"
     pagecolor="#ffffff"
     bordercolor="#666666"
     borderopacity="1.0"
     inkscape:showpageshadow="2"
     inkscape:pageopacity="0.0"
     inkscape:pagecheckerboard="0"
     inkscape:deskcolor="#d1d1d1"
     showgrid="false"
     inkscape:zoom="0.944"
     inkscape:cx="233.58051"
     inkscape:cy="546.61017"
     inkscape:window-width="1680"
     inkscape:window-height="998"
     inkscape:window-x="-8"
     inkscape:window-y="-8"
     inkscape:window-maximized="1"
     inkscape:current-layer="svg135" />
  <path
     fill="currentColor"
     d="M259 810q-99 0 -151.5 -66.5t-52.5 -210.5q0 -145 52.5 -212t151.5 -67q58 0 94.5 24.5t58.5 63.5h6q-3 -25 -4.5 -55.5t-1.5 -54.5v-82q0 -44 -24.5 -56t-57.5 -12h-8v-42h184v650q0 44 24.5 56t57.5 12h8v42h-169l-11 -90h-4q-22 46 -58 73t-95 27zM276 746 q78 0 107 -52.5t29 -160.5q0 -104 -29 -159.5t-108 -55.5q-66 0 -94.5 55.5t-28.5 160.5q0 106 28.5 159t95.5 53z"
     id="path133" />
  <path
     d="M 70.249188,399.36215 C 55,342.73149 27.667462,291.85681 -11.999366,268.5 c -16.602723,-9.77609 -39.66667,-14.5 -69,-14.5 -36.666674,0 -63.833334,6.33333 -81.500004,19 -17.66667,12.66667 -26.5,30.66667 -26.5,54 0,20.66667 7.16667,37.66667 21.5,51 14.33333,13.33333 38.16667,20 71.500004,20 0,-27.33333 4,-47.16667 12,-59.5 8,-12.33333 21.66667,-18.5 41,-18.5 18.66667,0 34.3333301,7.33333 47.0000001,22 12.6666699,14.66667 22.6666699,33.33333 29.9999999,56 7.33333,22.66667 12.66667,46.16667 16,70.5 3.33333,24.33333 5,46.16667 5,65.5 h 38.20174 C 82.423911,466.02568 156.76826,399.36215 70.249188,399.36215 Z"
     style="fill:currentColor"
     id="path595"
     sodipodi:nodetypes="cssssscsssssccc" />
</svg>
