<?xml version="1.0" encoding="UTF-8" standalone="no"?>
<svg
   version="1.1"
   viewBox="-10 0 752 1000"
   id="svg4"
   sodipodi:docname="A7C0.svg"
   inkscape:version="1.1.1 (3bf5ae0d25, 2021-09-20)"
   xmlns:inkscape="http://www.inkscape.org/namespaces/inkscape"
   xmlns:sodipodi="http://sodipodi.sourceforge.net/DTD/sodipodi-0.dtd"
   xmlns="http://www.w3.org/2000/svg"
   xmlns:svg="http://www.w3.org/2000/svg">
  <defs
     id="defs8" />
  <sodipodi:namedview
     id="namedview6"
     pagecolor="#ffffff"
     bordercolor="#666666"
     borderopacity="1.0"
     inkscape:pageshadow="2"
     inkscape:pageopacity="0.0"
     inkscape:pagecheckerboard="0"
     showgrid="false"
     inkscape:zoom="0.719"
     inkscape:cx="285.81363"
     inkscape:cy="457.57997"
     inkscape:window-width="1680"
     inkscape:window-height="998"
     inkscape:window-x="-8"
     inkscape:window-y="-8"
     inkscape:window-maximized="1"
     inkscape:current-layer="svg4"
     inkscape:snap-smooth-nodes="true"
     showguides="true"
     inkscape:guide-bbox="true"
     inkscape:snap-bbox="true"
     inkscape:snap-bbox-edge-midpoints="false">
    <sodipodi:guide
       position="382,925"
       orientation="1,0"
       id="guide965" />
  </sodipodi:namedview>
  <path
     fill="currentColor"
     d="M371 810q-106 0 -176 -46t-104.5 -129t-34.5 -194t34.5 -193t105 -127.5t176.5 -45.5q101 0 170.5 45.5t106 128t36.5 193.5t-36.5 193.5t-106.5 128.5t-171 46zM371 756q112 0 157.5 -83t45.5 -231q0 -149 -45.5 -231t-156.5 -82q-112 0 -158.5 82t-46.5 231 q0 148 46.5 231t157.5 83z"
     id="path2" />
  <path
     style="fill:none;stroke:#000000;stroke-width:54.0001;stroke-linecap:butt;stroke-linejoin:miter;stroke-miterlimit:4;stroke-dasharray:none;stroke-opacity:1"
     d="M 372,129 V -20.999999"
     id="path1000" />
  <path
     style="fill:none;stroke:#000000;stroke-width:54.0001;stroke-linecap:butt;stroke-linejoin:miter;stroke-miterlimit:4;stroke-dasharray:none;stroke-opacity:1"
     d="M 372,906 V 756"
     id="path1484" />
</svg>
