<?xml version="1.0" standalone="no"?>
<!DOCTYPE svg PUBLIC "-//W3C//DTD SVG 1.1//EN" "http://www.w3.org/Graphics/SVG/1.1/DTD/svg11.dtd" >
<svg xmlns="http://www.w3.org/2000/svg" xmlns:xlink="http://www.w3.org/1999/xlink" version="1.1" viewBox="-10 0 461 1000">
   <path fill="currentColor"
d="M210 810q-75 0 -120 -27t-45 -79q0 -27 11 -42t25.5 -21t26.5 -6q0 52 23.5 89.5t84.5 37.5q53 0 81.5 -25.5t28.5 -65.5q0 -25 -10.5 -41t-37 -31.5t-75.5 -36.5q-51 -23 -84.5 -44.5t-50 -50t-16.5 -71.5q0 -68 51.5 -104.5t136.5 -36.5q72 0 109 27t37 65
q0 27 -18.5 43.5t-53.5 16.5q0 -50 -21 -78t-65 -28q-51 0 -73 22.5t-22 57.5q0 38 28.5 58.5t95.5 47.5q53 22 86 44t48.5 51t15.5 71q0 78 -54 117.5t-143 39.5z" />
</svg>
