<?xml version="1.0" standalone="no"?>
<!DOCTYPE svg PUBLIC "-//W3C//DTD SVG 1.1//EN" "http://www.w3.org/Graphics/SVG/1.1/DTD/svg11.dtd" >
<svg xmlns="http://www.w3.org/2000/svg" xmlns:xlink="http://www.w3.org/1999/xlink" version="1.1" viewBox="-10 0 582 1000">
   <path fill="currentColor"
d="M528 71q-68 0 -111.5 26t-70.5 70.5t-43 100.5l185 437q13 31 27.5 42t43.5 11h3v42h-240v-42h3q60 0 60 -48q0 -17 -8 -37l-73 -178q-10 -23 -19.5 -50.5t-17.5 -52.5t-11 -42q-7 29 -18.5 60t-21.5 61l-67 195q-9 24 -9 43q0 49 66 49h3v42h-208v-42h3q29 0 44 -15
t32 -63l152 -420q26 -73 50 -119t53.5 -71.5t73.5 -35.5t110 -10h9v47z" />
</svg>
