<?xml version="1.0" standalone="no"?>
<!DOCTYPE svg PUBLIC "-//W3C//DTD SVG 1.1//EN" "http://www.w3.org/Graphics/SVG/1.1/DTD/svg11.dtd" >
<svg xmlns="http://www.w3.org/2000/svg" xmlns:xlink="http://www.w3.org/1999/xlink" version="1.1" viewBox="-83 0 497 1000">
   <path fill="currentColor"
d="M57 1040q-64 0 -97 -22.5t-33 -56.5q0 -27 18.5 -46.5t58.5 -20.5q0 51 13.5 73.5t38.5 22.5q21 0 35.5 -14.5t21.5 -53.5t7 -113v-574q0 -102 41 -151t126 -49q59 0 88 24t29 55q0 25 -18.5 41t-58.5 16q0 -20 -4 -41t-15.5 -35t-32.5 -14q-36 0 -48.5 24.5t-12.5 87.5
v615q0 124 -43 178t-114 54z" />
</svg>
