<?xml version="1.0" encoding="UTF-8" standalone="no"?>
<svg
   viewBox="0 0 36 36"
   version="1.1"
   id="svg2"
   sodipodi:docname="1f1e9-1f1f0.svg"
   inkscape:version="1.4-beta3 (01c8a1c, 2024-08-28, custom)"
   xmlns:inkscape="http://www.inkscape.org/namespaces/inkscape"
   xmlns:sodipodi="http://sodipodi.sourceforge.net/DTD/sodipodi-0.dtd"
   xmlns="http://www.w3.org/2000/svg"
   xmlns:svg="http://www.w3.org/2000/svg">
  <defs
     id="defs2" />
  <sodipodi:namedview
     id="namedview2"
     pagecolor="#ffffff"
     bordercolor="#666666"
     borderopacity="1.0"
     inkscape:showpageshadow="2"
     inkscape:pageopacity="0.0"
     inkscape:pagecheckerboard="0"
     inkscape:deskcolor="#d1d1d1"
     inkscape:zoom="21.583333"
     inkscape:cx="18"
     inkscape:cy="18"
     inkscape:window-width="1680"
     inkscape:window-height="998"
     inkscape:window-x="-8"
     inkscape:window-y="-8"
     inkscape:window-maximized="1"
     inkscape:current-layer="svg2" />
  <path
     id="path1"
     d="M 4,5 C 1.791,5 0,6.791 0,9 v 7 l 3,2 -3,2 v 6.5 C 0,29.209 1.791,31 4,31 h 7 l 2,-3 2,3 h 17 c 2.209,0 4,-1.791 4,-4.5 V 20 l -3,-2 3,-2 V 9 C 36,6.791 34.209,5 32,5 H 15 L 13,8 11,5 Z"
     fill="#c60c30"
     sodipodi:nodetypes="sscccsscccsscccsscccs" />
  <path
     fill="#FFF"
     d="M15 5h-4v11H0v4h11v11h4V20h21v-4H15z"
     id="path2" />
</svg>
