<?xml version="1.0" standalone="no"?>
<!DOCTYPE svg PUBLIC "-//W3C//DTD SVG 1.1//EN" "http://www.w3.org/Graphics/SVG/1.1/DTD/svg11.dtd" >
<svg xmlns="http://www.w3.org/2000/svg" xmlns:xlink="http://www.w3.org/1999/xlink" version="1.1" viewBox="-10 0 339 1000">
   <path fill="currentColor"
d="M164 167q-28 0 -46.5 -15t-18.5 -50q0 -36 18.5 -50.5t46.5 -14.5q26 0 45.5 14.5t19.5 50.5q0 35 -19.5 50t-45.5 15zM21 800v-45h13q20 0 38 -4.5t29.5 -18.5t11.5 -43v-314q0 -29 -11.5 -43t-29.5 -18.5t-38 -4.5h-5v-45h194v421q0 31 11.5 45.5t29.5 19.5t38 5h13v45
h-294z" />
</svg>
