<?xml version="1.0" standalone="no"?>
<!DOCTYPE svg PUBLIC "-//W3C//DTD SVG 1.1//EN" "http://www.w3.org/Graphics/SVG/1.1/DTD/svg11.dtd" >
<svg xmlns="http://www.w3.org/2000/svg" xmlns:xlink="http://www.w3.org/1999/xlink" version="1.1" viewBox="-10 0 1010 1000">
   <path fill="currentColor"
d="M940 161h-55v-96h-96v-55h151v151zM739 65h-126v-55h126v55zM563 65h-126v-55h126v55zM387 65h-126v-55h126v55zM115 161h-55v-151h151v55h-96v96zM940 337h-55v-126h55v126zM115 337h-55v-126h55v126zM654 340h-126v-55h126v55zM472 340h-126v-55h126v55zM291 340h-126
v-55h126v55zM835 340h-126v-55h126v55zM115 513h-55v-126h55v126zM940 513h-55v-126h55v126zM654 615h-126v-55h126v55zM472 615h-126v-55h126v55zM291 615h-126v-55h126v55zM835 615h-126v-55h126v55zM940 689h-55v-126h55v126zM115 689h-55v-126h55v126zM940 890h-151v-55
h96v-96h55v151zM211 890h-151v-151h55v96h96v55zM739 890h-126v-55h126v55zM563 890h-126v-55h126v55zM387 890h-126v-55h126v55z" />
</svg>
