<?xml version="1.0" standalone="no"?>
<!DOCTYPE svg PUBLIC "-//W3C//DTD SVG 1.1//EN" "http://www.w3.org/Graphics/SVG/1.1/DTD/svg11.dtd" >
<svg xmlns="http://www.w3.org/2000/svg" xmlns:xlink="http://www.w3.org/1999/xlink" version="1.1" viewBox="-10 0 1010 1000">
   <path fill="currentColor"
d="M885 161v-96h-96v-55h151v151h-55zM613 65v-55h126v55h-126zM437 65v-55h126v55h-126zM261 65v-55h126v55h-126zM60 161v-151h151v55h-96v96h-55zM792 249h-55v-36h-36v-55h91v91zM651 213h-126v-55h126v55zM474 213h-126v-55h126v55zM263 249h-55v-91h91v55h-36v36z
M885 337v-126h55v126h-55zM60 337v-126h55v126h-55zM792 425h-55v-126h55v126zM263 425h-55v-126h55v126zM60 513v-126h55v126h-55zM885 513v-126h55v126h-55zM650 485h-300v-70h300v70zM792 601h-55v-126h55v126zM263 601h-55v-126h55v126zM885 689v-126h55v126h-55z
M60 689v-126h55v126h-55zM792 742h-91v-55h36v-36h55v91zM299 742h-91v-91h55v36h36v55zM651 742h-126v-55h126v55zM474 742h-126v-55h126v55zM789 890v-55h96v-96h55v151h-151zM60 890v-151h55v96h96v55h-151zM613 890v-55h126v55h-126zM437 890v-55h126v55h-126zM261 890
v-55h126v55h-126z" />
</svg>
