<svg height="16" viewBox="0 0 16 16" width="16" xmlns="http://www.w3.org/2000/svg"><path d="m13 13.62c0 .5-.03.94-.76 1.6h-.3c-.03-.38-.23-.72-.8-1.34l-6.03-6.88-.48.89c-.59 1.12-.52 1.87-.11 2.81l.82 1.82c.37.85.37 1.68 0 2.49h-2.8v-1h.19c.62 0 .86-.2.71-.78l-.36-1.58c-.45-2-.07-2.9.39-3.63l1.03-1.71-1.23-1.41c-.19-.21-.73-.82-.73-1.96 0-.6 0-.6.54-1.92h.52v.09c0 .84.67 1.6.95 1.92l4.56 5.18c0-.04.09-.7.6-1.66l1.11-2.04-.5-.08c-.93-.15-1.08-.56-1.08-1.39 0-.34.07-1.03.52-2.03h.58v.13c0 .32.05.91.91 1.04l1.19.19c.56.09.84.48.84 1.17 0 .38-.07.8-.17 1.34l-1.36-.21-1.08 2.01c-.43.84-.65 1.7-.65 2.57l2.25 2.57c.25.29.74.87.74 1.79z" fill="#f57900" stroke-width=".14"/></svg>