<svg height="16" viewBox="0 0 16 16" width="16" xmlns="http://www.w3.org/2000/svg"><path d="m11.18 2.91q0 .1-.38.7-.38.6-.5.6-.06 0-.61-.41-.55-.41-.55-.48 0-.12.39-.72.4-.6.46-.6.12 0 .65.41.54.41.54.5zm-2.48 6.61q-.3-.02-.52-.08-.02.88-.13 1.43-.23 1.09-.82 1.78-1.15 1.35-3.34 1.35-1.86 0-2.57-1.24-.32-.55-.32-1.16 0-.62.19-1.19.32-.99.88-1.71.2-.26.23-.26.07 0 .16.09.09.09.09.15 0 .06-.19.33-.59.81-.59 1.73 0 .63.38.97.68.63 2.2.63 1.08 0 2.02-.35.45-.17.65-.38.48-.49.48-1.52 0-.82-.54-1.38-.18-.19-.18-.25 0-.06.34-.8.34-.73.41-.73.28.41.39.88.77.06 1.41.06.7-1.33 1.8-2.36 1.3-1.22 2.58-1.22.49 0 .77.26.52.49.52 1.21 0 1.46-1.12 2.37-1.31 1.05-3.57 1.31-.56.06-.94.07-.18.41-.31.83-.12.42-.12.61-.03 0-.14-.09-.31-.27-.31-.49 0-.23.21-.85zm5.42-2.97q0-.09-.31-.28-.31-.18-.82-.18-1.09 0-2.12.82-.49.39-.77.93 1.29-.02 2.69-.52.6-.21.97-.43.37-.21.37-.34z" fill="#f57900" stroke-width=".01"/></svg>