<svg height="16" viewBox="-10 0 16 16" width="16" xmlns="http://www.w3.org/2000/svg"><path d="m-10 0h16v16h-16z" fill="#ffff83"/><g fill="#f57900"><path d="m-1.96 11.8q0 .14-.06.56-.06.41-.14.94-.09.52-.2 1.01-.11.49-.21.81-.1.32-.19.32-.26 0-.26-.25 0-.06.1-.49.1-.43.1-1.1 0-.42-.09-1.26-.09-.84-.22-1.91-.13-1.06-.28-2.19-.16-1.12-.29-2.13-.13-1-.22-1.7-.09-.7-.09-.91 0-.34.1-.81.1-.47.25-.94.14-.46.29-.79.15-.32.24-.35.06.09.11.52.05.43.05.67v.85z"/><path d="m.17 7.48q0 .64-.44 1.08-.44.44-1.08.44-.64 0-1.08-.44-.44-.44-.44-1.08 0-.61.44-1.05.44-.44 1.08-.44.64 0 1.08.44.44.44.44 1.05z"/></g></svg>