<svg height="16" viewBox="0 0 16 16" width="16" xmlns="http://www.w3.org/2000/svg"><path d="m0 0h16v16h-16z" fill="#ffff83"/><path d="m10.9.59q.39-.59.5-.59.15 0 .66.43.51.43.51.47 0 .1-.4.69-.4.59-.46.59-.11 0-.65-.4-.54-.4-.54-.5 0-.1.39-.69zm2.4 1.94q.53.41.53.47 0 .13-.38.71-.38.58-.45.58-.07 0-.44-.28-.36-.28-.52-.4-.16-.12-.2-.15-.04-.03-.07-.03-.04 0-.08.08-.04.08-.39.55-.35.47-.42.47-.07 0-.62-.41-.55-.41-.55-.47 0-.12.4-.71.4-.59.46-.59.1 0 .56.37.46.37.53.43.07.07.11.07.04 0 .1-.1.06-.1.41-.54.34-.44.42-.44.07 0 .6.41zm-1.01 12.11q0 .11-.4.73-.41.63-.53.63-.07 0-.65-.43-.58-.43-.58-.5 0-.12.42-.75.42-.63.49-.63.12 0 .69.43.57.43.57.52zm1.71-5.81q0 2.04-1.22 2.75-1.87 1.09-4.32 1.59-1.31.27-2.55.27-1.24 0-2.08-.32-1.79-.68-1.79-2.32 0-1.22.96-2.25.18-.2.22-.2.03 0 .14.08.11.08.11.11 0 .03-.16.24-.48.62-.48 1.33 0 .71.9 1.09.9.39 2.64.39 1.73 0 3.74-.64 2-.64 2.92-1.35.43-.34.43-.63 0-.29-.44-.81-.22.63-.78 1.01-.28.19-.69.19-.41 0-.78-.26-.37-.26-.37-1 0-.74.56-1.87.56-1.13 1.14-1.13.54 0 1.14.93.76 1.21.76 2.8zm-1.94-1.3q.17-.14.17-.18 0-.04-.12-.15-.33-.32-.64-.32-.09 0-.18.11-.09.11-.09.3 0 .19.14.29.14.1.34.1.2 0 .38-.14z" fill="#f57900" stroke-width=".01"/></svg>