<svg height="16" viewBox="0 0 16 16" width="16" xmlns="http://www.w3.org/2000/svg" xmlns:xlink="http://www.w3.org/1999/xlink"><use xlink:href="#a"/><use xlink:href="#a"/><path id="a" d="m0 2v.1h3v12.8h-3v.1h3.1v-13z" fill="#0000b4"/><path d="m9.26 1c2.36 0 2.44 1.28 2.44 1.45 0 .7-.41 1.05-1.23 1.05 0-1.13-.44-1.7-1.33-1.7-.26 0-1.41.06-1.41 1.13-.01 2.21 4.27 1.26 4.27 4.48 0 .7-.21 1.27-.62 1.7.24.34.45.73.64 1.16l-.71.35c-.17-.4-.36-.74-.57-1.02-.49.26-1.2.4-2.11.4-2.57 0-2.63-1.29-2.63-1.32 0-.94.65-1.4 1.95-1.4.96 0 1.82.31 2.59.94.05-.14.08-.29.08-.43 0-1.94-4.28-1.44-4.28-4.34-.01-.7.26-2.45 2.92-2.45zm-2.49 7.57c0 .02.18.62 2.03.62.62 0 1.05-.11 1.31-.32-.62-.52-1.35-.78-2.19-.78-.77 0-1.15.16-1.15.48z" fill="#2f5e9d"/></svg>