<svg height="16" viewBox="0 0 16 16" width="16" xmlns="http://www.w3.org/2000/svg"><path d="m14.37 13.51c0 .46-.28 1.01-.88 1.01-.17 0-.42 0-1.09-.5-3-2.28-5.52-4.86-7.76-7.85-.79 1-1.79 2.53-1.79 3.87 0 .96.25 2.04 1.39 2.04 1.3 0 1.26-1.37 2-1.37.49 0 1.01.47 1.01.86 0 .57-.94 2.1-3.13 2.1-.65 0-3.11-.21-3.11-3.36 0-.6 0-2.31 2.65-5.51-1.6-2.27-1.86-2.64-1.86-3.06 0-.66.7-.74 1.03-.74.4 0 .66.11 1.01.69 1.32 2.08 2.63 3.87 3.93 5.45 1.34-1.43 2.13-3.59 2.33-5.4.03-.31.11-.74.8-.74.98 0 1.07.35 1.07.74 0 2.06-1.75 5.4-3.01 6.77 1.53 1.65 3.27 3.14 5.15 4.56.17.13.25.27.25.44z" fill="#f57900"/></svg>