<svg height="16" viewBox="0 0 16 16" width="16" xmlns="http://www.w3.org/2000/svg"><path d="m0 0h16v16h-16z" fill="#f5deb3"/><path d="m3.26 1.61c0-.27.31-.43.55-.43.09 0 .36 0 .46.31.22.59.93 2.45 1.39 2.73.62 0 1.23-.02 1.84-.05-.35-.36-.52-.78-.52-1.27 0-1.07.93-1.9 1.94-1.9 1.02 0 1.87.85 1.87 1.9 0 .52-.19.97-.56 1.34.46.04 2.5.24 3.06.68 0 .7-.19 2.33-.38 3.61-.05.27-.4.35-.56.35-.07 0-.43-.02-.43-.31 0-.21.33-1.75.33-3.06-.17-.06-.81-.18-1.34-.26-.06.62-.54 5.1-.98 6.72l.36.08.36 1.99c.46.02.97.03 1.52.03.12 0 .58.03.58.41 0 .07-.06.55-.79.55-1.01 0-4.75-.03-4.8-.03-1 0-2.97.13-3 .13-.46 0-.71-.26-.71-.5 0-.73 1.1-1.6 1.56-3.38.08-.29.2-.43.38-.43.05 0 .34.01.94.17l.95.27-.28-6.14c-.6.03-.6.03-2.05.03-.71-.43-1.69-3.07-1.69-3.54zm5.61.28c-.53 0-.99.4-.99 1.03 0 .56.44.99.99.99.63 0 1.03-.46 1.03-.99 0-.6-.43-1.03-1.03-1.03zm1.09 3.23c-.02 0-1.22-.12-1.97-.05l.23 6.44.81.22c.25-1.05.65-3.45.93-6.61zm-5.36 9.04c.68-.05 2.55-.16 5.05-.12l-.23-1.21-3.55-1.04c-.12.78-.33 1.09-1.27 2.37z" fill="#784421"/></svg>