<svg height="16" viewBox="0 0 16 16" width="16" xmlns="http://www.w3.org/2000/svg"><path d="m11.43 13c-.49 0-1.53-.1-2.59-.78v2.78h-1.84v-3.13c-.29.38-.88 1.13-2.43 1.13s-3.57-1.5-3.57-4c0-2.49 1.67-4 3.57-4 .49 0 1.4.1 2.43.8v-2.18h-5v-1.62h12v1.62h-5.16v2.51c.61-.75 1.52-1.13 2.59-1.13 1.52 0 3.57 1.18 3.57 3.81 0 2.06-1.34 4.19-3.57 4.19zm-6.69-6.38c-.83 0-1.9.56-1.9 2.27 0 .37.1 2.48 2.01 2.48.43 0 1.32-.37 2.15-2.24v-1.62c-1.36-.89-1.88-.89-2.26-.89zm4.1 3.87c.42.29 1.36.89 2.42.89.74 0 1.9-.74 1.9-2.48 0-.75-.21-2.27-1.97-2.27-.98 0-1.82.66-2.35 1.97z" fill="#f57900"/></svg>