<svg height="16" viewBox="0 0 16 16" width="16" xmlns="http://www.w3.org/2000/svg"><path d="m11.42 10.46c0-.16 0-.69-.66-.69-.15 0-.31.03-.48.09-.22.27-1.65 1.94-2.61 1.94-.64 0-1.3-.82-1.3-1.42 0-.38.32-1.09 2.38-1.74.24-.17 2.18-1.67 2.18-3.1 0-.45-.16-1.17-.97-1.17-.67 0-1.99.54-3.31 1.78-.1.26-1.04 2.65-2.28 2.65-.68 0-1.41-.73-1.41-1.32 0-.4.24-1.11 2.77-2.85-.21-.4-.49-.63-1-.63h-3.09c-.3 0-.37-.08-.43-.27l-.55-1.86h.6l.14.43c.04.1.1.23.32.23h2.79c.87 0 1.55 1.24 1.81 1.73 1.91-1.24 2.58-1.26 2.96-1.26 1.64 0 2.72 1.79 2.72 3.1 0 .43-.07 1.4-1.03 2.81 1.04.27 2.03 1.07 2.03 2.12 0 .81-.41 1.25-.41 1.87 0 .3.15.44.46.44.15 0 .73-.04 1.61-.55.23.33.34.65.34.96 0 .66-.54.89-1.01.89-1.19 0-2.76-1.32-2.76-2.61 0-.35.2-1.08.2-1.57z" fill="#f57900"/></svg>