<svg height="16" viewBox="0 0 16 16" width="16" xmlns="http://www.w3.org/2000/svg"><path d="m0 0h16v16h-16z" fill="#ffff83"/><path d="m7.28 4.14c-2.32-1.54-3.09-2.2-3.09-2.79 0-.18.08-.31.23-.4.26.17.55.31.86.42.23-.37.56-.55 1.01-.55 1.02 0 1.08.4 2.25.4.44 0 1.49-.08 2.35-.73l1.72 1.2c-.97 1.27-3.61 1.47-3.61 2.76v.55c1.94.18 4.44 1.69 4.86 3.42.09.39.14.83.14 1.32 0 1.17-.11 1.77-.11 2.76 0 .96.47 1.54.99 2l-.44.5c-1.69-1.24-2.27-2-2.27-3.42 0-.99.11-1.45.11-2.65 0-2.19-1.25-2.64-2.46-2.64-.28 0-.55.02-.82.06v7.45l-.48.14c-.86-.48-2.75-1.46-4.9-2.14l-1.69-.8c.69-2.39 2.18-5.32 5.35-5.9zm-3.45 6.97c.43.08 1.69.35 3.46.94v-5.2c-1.1.52-2.64 1.68-3.46 4.26z" fill="#f57900"/></svg>