<svg height="16" viewBox="0 0 16 16" width="16" xmlns="http://www.w3.org/2000/svg"><path d="m0 0h16v16h-16z" fill="#c8ffc8"/><path d="m4.88 9.86c.29-1.25 1.09.62 1.44 1.04.64.73 1.8.47 2.46-.12.71-.56 1.52-1.48 2.53-1.05 1.02.54-.14 1.84-.77 2.26-.86.49-1.73 1.27-2.82.96-1.27-.27-2.35-1.3-2.77-2.51-.04-.19-.07-.39-.07-.58zm-3.91-2.59c.19-1.13.81-2.21 1.64-3.01.69-.42 1.47-1.1 2.32-.81 1.01.38 2.01.95 2.59 1.89.7.47 1.04-.93 1.59-1.25.56-.73 1.44-1.05 2.34-1.04.96-.24 1.76.42 2.21 1.19.48.77 1.18 1.51 1.33 2.41-.84.27-1.32-1.03-2.14-1.16-.77-.11-1.6.02-2.31.33-1.22.66-1.57 2.12-2.56 2.99-.79-.02-.95-1.26-1.63-1.64-.62-.55-1.49-1.25-2.36-.84-.99.26-1.9.71-2.86 1.02-.05.01-.17 0-.16-.08z" fill="#006400"/></svg>