<svg height="16" viewBox="0 0 16 16" width="16" xmlns="http://www.w3.org/2000/svg"><path d="m3.09 9.96q.03.16.03.37 0 .55-.35.94-.35.39-1 .39-.65 0-1.01-.26.55-.46.55-1.35 0-.46-.13-.91h3.86q-.73-.75-1.22-1.66-.5-.91-.5-2.08 0-1.67.9-2.54.91-.86 2.69-.86 1.28 0 2 .56.72.56.72 1.5 0 .94-.56 1.53-1 1.05-3.81 1.37.5 1.03 1.77 2.19h2.39q1.53 0 1.53 1.37v.18h3.62q-.13.46-.13.91 0 .89.55 1.35-.36.26-1 .26-.64 0-1-.39-.36-.39-.36-.94 0-.21.03-.37h-1.72v.7q0 .54.21.72.21.19.65.19v.62l-2.08.13q-.3-.47-.3-1.59v-1.45q0-.47-.21-.67-.22-.21-.7-.21zm1.89-3.75q1.4-.08 2.27-.56.87-.48.87-1.62 0-.63-.4-.97-.4-.33-1.02-.33-.96 0-1.42.62-.46.62-.46 1.49 0 .87.16 1.37z" fill="#784421"/></svg>