<svg height="16" viewBox="0 0 16 16" width="16" xmlns="http://www.w3.org/2000/svg"><g stroke="#784421"><path d="m5.47 6.1c-.18 0-.92.09-1.24.46.46.32.92.55 1.61.55.32 0 .64-.05 1.09-.09-.41-.64-.78-.92-1.46-.92z" fill="#784421" stroke-width=".2"/><path d="m13.26 18.48s-.71-1.13-.71-3.93c0-1.96 1.9-4.65 1.9-7.29 0-5.14-3.54-5.71-5.92-5.71-1.96 0-3.5.49-4.12 1.98l-2.57 5.92h1.42l.88 2.4 1.98-.63.45 2.93" fill="none" stroke-width="1.1"/><path d="m12.77 13.16c.53 1.14 1.59 3 2.93 4.28" fill="#784421"/></g><path d="m3 1c-.87 0-1.54.35-1.54.65 0 .57 1.26.18 1.25.58-.01.18-.41.28-.41.78 0 .62.86 1 1.45 1.3l.33-.98c-.14-.09-.5-.2-.5-.52 0-.55.42-.3.42-.94 0-.37-.27-.87-1-.87z" fill="#784421"/><path d="m4.19 3.99 3.98 1.79s.89-.88 1.86.09c.74.74.33 2.21-.56 2.65-.66 1.25-1.33 2.18-.41 4.94-2.07.25-5.14 2.39-6.07 4.28" fill="none" stroke="#784421" stroke-width="1.2"/><path d="m4.8 12.05-2.44 3.38-1.53-1.38 2.84-2.49z" fill="#784421"/></svg>