<svg height="16" viewBox="0 0 16 16" width="16" xmlns="http://www.w3.org/2000/svg"><path d="m0 0h16v16h-16z" fill="#ffff83"/><ellipse cx="5.98" cy="7.3" fill="#f57900" rx=".98" ry="1.3"/><path d="m7.15 10.53c-.21 1.43-.46 3.05.02 3.83.36.08.84.14 1.39.14 1.55 0 3.5-.32 4.69-.9-1.89-5.97-3.68-9.43-5.93-11.32-.48-.47-.53-.59-.8-.78-.15.76-.19 2.19-.15 2.78-.55-.99-1.23-1.75-1.53-1.92-.16.66-.03 1.29.32 2.52-1.62 2.45-1.92 4.08-2.16 4.89-.25.35-1.13 1.27-1.13 1.6 0 .46.99 2.06 2.27 2.06 1.07 0 1.16-1.64 1.77-2.19 1.32-1.18 2.74-.31 3.74-3.63" fill="none" stroke="#f57900" stroke-linejoin="round"/><path d="m9.18 3.67c-.05.38-.04.73.55.74.67 0 1.23.07 1.79.24l-.14-.77c-.76-.29-1.48-.26-2.2-.21zm1.5 2.26c.8.06 1.41.15 2.08.44l-.39-.9c-.75-.29-1.39-.36-2.11-.27-.34.2-.22.73.43.73zm.81 1.68c.68.19 1.2.4 1.77.69l-.16-.94c-.66-.39-1.48-.65-2.07-.67-.76.58-.15.86.46.92zm.85 2.07c.62.31 1.14.58 1.7.89l-.23-1.02c-.57-.39-1.33-.62-1.86-.83-.31.41-.32.8.39.96zm.8 2.01c.6.34 1.01.63 1.53 1.01l-.18-1.08c-.56-.45-1.17-.78-1.78-.97-.46.33-.56 1.04.43 1.04z" fill="#f57900"/><path d="m3.29 13.13 1.13-1.57" fill="none" stroke="#f57900" stroke-width=".7"/></svg>