<svg height="16" viewBox="0 0 16 16" width="16" xmlns="http://www.w3.org/2000/svg"><path d="m3.5 3.47c-1.15 0-1.66.08-2.12.18v-1.65h8.62l.02 3.38c.43.06 4.97.76 4.97 4.6 0 .73-.26 3.47-3.95 5.2l-.85-1.21c1.3-.61 3.37-1.91 3.37-3.97 0-1.59-1.42-2.79-3.53-3.13l.02 3.05c0 4.34-3.28 5.09-4.71 5.09-2.87 0-4.34-1.93-4.34-4.27 0-4.13 3.69-5.45 7.45-5.45h.24c-.02-.61-.02-1.2-.04-1.82zm1.86 10.06c1.32 0 3.34-.84 3.34-3.38v-1.38c0-.6 0-1.35 0-2.02-.08 0-.16 0-.25 0-2.07 0-6.03.45-6.03 3.86 0 2.29 1.82 2.92 2.94 2.92z" fill="#f57900"/></svg>