<svg height="16" viewBox="0 0 16 16" width="16" xmlns="http://www.w3.org/2000/svg"><path d="m0 0h16v16h-16z" fill="#fff0f5"/><g fill="#5c3566" stroke="#5c3566" stroke-width=".3" transform="translate(10)"><path d="m-2.38 5.52c.33.82.5 1.7.5 2.63h-.47c0-.87-.15-1.68-.45-2.43zm-3.78-3.86c.81.34 1.54.84 2.21 1.51l-.33.34c-.61-.62-1.29-1.09-2.04-1.41zm-2.78 13.55v-.48c.88 0 1.7-.16 2.46-.47l.19.44c-.83.34-1.71.51-2.65.51zm-2.63-13.6c.82-.34 1.7-.5 2.63-.5v.47c-.86 0-1.67.15-2.43.45zm7.61 11.54-.33-.35c.62-.61 1.09-1.3 1.4-2.06l.45.18c-.35.83-.86 1.57-1.52 2.24z"/><path d="m3.57 4.15q.15 0 .2-.09l.41-.44q.04-.06.1-.06.16 0 .82.88.12.18-.1.19-.16.02-.29.06-.57.06-1.53 1.99-.08.19-.22.13-.15-.07-.05-.3.33-1.01.6-1.9h-2.76q-.77 2.17-.99 2.7-.12.16-.22.1-.13-.06-.05-.25.35-.84.76-2.92.4-2.05.31-2.67-.03-.25.25-.15 1.01.35 1.05.48 0 .09-.13.1-.15.01-.25.16-.07.09-.6 1.99zm-2.48 3.07q-.03-.25.14-.19.79.25 1.06.4.2.1-.03.23-.24.12-.3.26-.1.28-.1 1.17v2.66q0 1.71.06 2.86.01.12-.07.18l-.62.4q-.19.14-.17-.16.09-1.95.1-3.28v-2.66q-.01-1.17-.07-1.87z"/></g></svg>