<svg height="16" viewBox="0 0 16 16" width="16" xmlns="http://www.w3.org/2000/svg"><path d="m9.89.71c-1.17.19-2.32.43-3.49.54-.55.1-1.14.08-1.67.25-.42.17-.09.59.2.71.84.26 1.72-.08 2.57-.18.92-.16 1.85-.23 2.78-.29.34-.01.79-.2.47-.56-.28-.18-.51-.46-.86-.47zm-7.62.39c-.45-.07-.66.25-.4.63.29.62.11 1.33.17 1.99 0 2.55-.04 5.1-.02 7.65-.05.86.08 1.74-.12 2.59.03.38.29.61.48.91.16.32.62.58.74.09.1-3.69-.01-7.41.04-11.11-.03-.73-.01-1.46 0-2.19-.26-.25-.57-.41-.89-.56zm7.8 2.35c-.41.3-.96.22-1.44.34-1.23.15-2.46.37-3.7.44-.48.02-.4.44-.03.58.44.35.99.24 1.5.15.97-.14 1.93-.29 2.89-.47-.97 1.02-2.01 1.97-3.06 2.91-.28.26-.74.49-.69.93.35.32.82.41 1.27.27.54 0 1.07-.12 1.61-.13-.62 1.15-1.34 2.25-2.07 3.33-.75 1.08-1.68 2.03-2.47 3.07-.32.5-.08.47.35.26.97-.47 1.63-1.37 2.32-2.16 1.1-1.37 2.04-2.86 2.88-4.4.16-.29.66-.15.96-.16.49.02.56.64.38 1-.21.92-.62 1.78-1.03 2.62-.36.69-.76 1.36-1.17 2.02-.16-.47-.44-.88-.68-1.31-.46-.2-.18.49-.25.74.09.56.13 1.12.09 1.69.19.34.64.37.92.12.8-.79 1.28-1.85 1.89-2.78.56-1.23 1.17-2.48 1.34-3.83.12-.79-.77-1.25-1.43-1.12-.46.09-.6 0-.32-.41.05-.3.48-.66.24-.92-.22-.24-.56-.45-.84-.54-.54.02-.02.49-.25.8-.13.39-.29.77-.44 1.15-.64.06-1.28.15-1.92.15 1.09-.8 2-1.81 3.04-2.66.28-.33.67-.55.94-.87.15-.36-.3-.63-.57-.76-.09-.02-.17-.03-.26-.05zm2.15 5.55c.35.38.9.75.77 1.35-.13.68-.27 1.38-.65 1.97-.16.42-.31.85-.44 1.28.35.21.57-.27.78-.49.64-.97 1.25-1.98 1.64-3.06.12-.43-.4-.62-.71-.76-.44-.22-.91-.24-1.39-.28z" fill="#5c3566" stroke-width=".2"/></svg>