<svg height="16" viewBox="0 0 16 16" width="16" xmlns="http://www.w3.org/2000/svg"><path d="m8.81 1.33c.15.07.22.29.2.45-.08.64-.21 1.18-.28 1.84 1.13-.11 2.23-.32 3.34-.58.56-.13 1.05.39 1.19.88.17.62-.08.97-.44.99-1.17.09-2.21.08-3.37.08 1.56 1.68 3.62 2.74 5.44 4.09-.99.84-2.2 1.07-3.44.57-.86-1.1-1.8-2.12-2.79-3.11l.03 3.34c.59.08 1.28-.36 1.61-.31.92.13 1.18.63 1.55 1.34.17.31-.65 1.71-.86 2.7.38.21.49.53.47.88-.03.53-.49.71-.85.72-1.78.01-3.57-.2-5.33.1-.38-.25-.54-.62-.49-1.12 0 0-.03-1.77-.16-2.64-.06-.37-.31-.72-.26-1.09.07-.55.36-.72.78-.73.69-.01 1.13.27 1.84.23l.05-2.77c-1.18 1.3-2.37 2.49-3.93 3.27-.73.37-1.5.43-2.31.43l-.19-.27c1.97-1.45 3.67-3.12 4.96-5.21-.76.11-1.51.23-2.26.36-1-.36-1.01-1.12-1.04-2.02 1.6.1 3.2.05 4.8-.04.16-.94-.05-1.7-.39-2.53 0 0 .2-.22.34-.24.65-.12 1.28.13 1.79.39zm-2.39 10.04c0 .79-.01 1.56.08 2.34l2.91-.13.47-2.3c-1.16-.06-2.31.01-3.47.08z" fill="#5c3566"/></svg>