<svg height="16" viewBox="0 0 16 16" width="16" xmlns="http://www.w3.org/2000/svg"><path d="m10.95.97c.38 0 .8.34.72.52-.83 1.78-2.36 3.09-3.78 4.37-.63.41-1.04.89-1.41 1.53 1.4-.36 2.51-1.26 3.58-2.19 1.13-1.04 2.14-2.2 3.04-3.44-.21-.68-.65-.93-1.3-1.03-.31-.05-.65.07-.85.24zm-6.18.05c-.07.11-.06.26-.03.38.05.18.26.41.26.63l-.01 10.7c0 .28-.02.54-.04.78-.01.11-.02.22 0 .33.1.56.54 1.17.81 1.17s.33-.88.34-1.35c.1-3.78 0-11.35 0-11.35 0-.19.09-.31.1-.47.01-.11-.01-.22-.02-.32-.03-.39-1.25-.73-1.41-.5zm5.08.09c-.15-.14-1.47.88-1.47.88-.24-.43-.77-.87-.99-.74-.12.08-.11.31-.11.45.02.91.56 2.25.89 2.25.58 0 .59-.7.79-1.11.29-.58 1.05-1.57.89-1.73zm-7.05 2.06c-.09.05-.22.12-.22.22 0 .26.37.38.39.8.13 3.1-.17 6.1-.81 9.02-.09.43.21.62.35.61.42-.04.78-1.37.99-2.08.69-2.61.52-5.29.54-7.85 0-.08.08-.17.04-.25-.13-.27-1.09-.59-1.28-.47zm7.24 2.82v.14l-.08.04.08.03c-.13 1.21-.9 2.24-1.62 3.2-.43.57-.81 1.22-1.08 1.73.46-.07.81-.3 1.18-.57l1.03 1.22c-.58.81-1.2 1.59-1.96 2.23-.42.35-.48.66-.65 1.04 1.36-.36 2.36-1.45 3.24-2.51.71.73 1.33 1.53 2.09 2.21.8.09 1.6.18 2.41.23l.12-.39c-1.63-.52-2.8-1.67-4.05-2.79.68-.86 1.21-1.79 1.59-2.81-.34-.7-.77-.89-1.49-.77.2.25.32.55.28.84-.06.47-.67 1.39-1.09 2.03l-1.08-1.01c.87-.94 1.57-2.01 2.14-3.15-.13-.79-.53-.94-1.06-.94z" fill="#5c3566" stroke-width=".3"/></svg>