<svg height="16" width="16" xmlns="http://www.w3.org/2000/svg"><path d="m11 11.43c-.13 1.12-.6 3.07-2.79 3.07-2.71 0-2.96-2.8-2.96-3.53v-.46c-.51-.03-2-.7-2-3.45v-1.78c0-1.24 0-1.78-.67-1.78-.84 0-.97.44-1 1.58-.3.06-.3.06-.31.06-.04 0-.04 0-.27-.04 0-1.75.26-3.1 1.66-3.1.73 0 1.34.58 1.34 3.34v1.52c0 2.02 1.22 2.14 1.25 2.14.03-1.11.66-2.75 1.75-2.75.27 0 1.25.19 1.25 1.42 0 2.11-2 2.8-2.25 2.83v.4c0 .29-.02 2.1 2.21 2.1.84 0 2.12-.23 2.32-1.71zm-.25-7.93c.45-1.38 1.55-1.5 2.02-1.5 1.48 0 2.23 1.06 2.23 3.87v4.13h-.75v-4.13c0-1.53-.19-2.37-1.48-2.37-.14 0-1.63.04-1.77 1.54h-.75c0-.79-.62-1.54-1.5-1.54-1 0-1.59.43-1.75 1.51l-.75-.13c.21-1.87 1.14-2.88 2.5-2.88.47 0 1.3.12 1.75 1.5zm-4.75 5.5c.6-.05 1.5-.36 1.5-1.34 0-.4-.06-.66-.47-.66-.58 0-.99 1.04-1.03 2z" fill="#c01c28"/></svg>