<svg height="16" viewBox="0 0 16 16" width="16" xmlns="http://www.w3.org/2000/svg"><path d="m0 0h16v16h-16z" fill="#c8ffc8"/><path d="m9.07 2.33q.42-1.28 1.54-1.28.72 0 1.15.34.83.65.83 2.16 0 1.98-1.15 3.43-.78.98-2.4 2.19-.62.47-1.15.94-1.15 1.02-1.15 2.12 0 .82.59 1.38.28.27.69.27h.15v-.79q0-2.13 1.37-2.81.66-.32 1.51-.32 1.39 0 2.14.78.76.78.76 2.37v1.83h-.49v-1.82q0-1.06-.54-1.58-.54-.52-1.96-.52-1.42 0-1.99.8-.32.45-.32 1.27v1.84h-.27q-.86 0-1.35-.41-.91-.75-.91-2.42 0-1.39 1.15-2.65.53-.56 1.16-1.08 1.79-1.47 2.4-2.13 1.15-1.26 1.15-2.72 0-.64-.35-1.02-.35-.39-.92-.39-.57 0-.96.33-.4.33-.46 1h-.43q0-.73-.66-1.14-.67-.42-1.42-.02-.67.36-.67 1.89v3.83h-.29q-1.16 0-1.51-.87-.24-.59-.24-2.02v-1.21q0-.98-.14-1.39-.15-.4-.56-.4-.41 0-.58.21-.22.28-.25 1.4-.28.06-.49.01 0-1.79.55-2.4.26-.29.72-.29.83 0 1.08.95.16.62.16 1.93v1.46q0 1.54.91 1.54h.15v-2.75q0-1.65.42-2.39.42-.73 1.52-.73 1.1 0 1.51 1.28z" fill="#008000" stroke="#008000" stroke-width=".1"/></svg>