<svg height="16" viewBox="0 0 16 16" width="16" xmlns="http://www.w3.org/2000/svg"><path d="m0 0h16v16h-16z" fill="#fff0f5"/><path d="m12.05 11.48c0-1.62-1.43-2.94-3.58-2.94-.34 0-.65.04-.96.12-1.76 5.21-2.52 5.99-3.73 5.99-.34 0-1.78-.11-1.78-2.06 0-1.49 1.63-3.99 4.67-4.79.27-.74.48-1.36.63-1.97-1.04.12-2.08.21-3.11.26l-.18-1.09c1.89-.04 3.47-.2 4.77-.47-.34 1.2-.65 2.17-.92 3.02.23-.03.45-.04.67-.04 2.61 0 4.48 1.64 4.48 3.92 0 1.98-1.6 3.57-3.56 3.57-.3 0-2.47-.06-2.47-1.87 0-.86.73-1.6 1.74-1.6.98 0 1.95.86 2.27 1.93.7-.52 1.05-1.18 1.05-1.99zm-5.81-2.44c-2.23.84-3.2 2.86-3.2 3.64 0 .63.22.94.67.94s1.01 0 2.54-4.58zm1.75 4.08c0 .63.99 1.03 2.14.77-.29-.91-.76-1.36-1.41-1.36-.49 0-.73.2-.73.59z" fill="#5c3566"/></svg>