<svg height="16" viewBox="0 0 16 16" width="16" xmlns="http://www.w3.org/2000/svg"><path d="m8.74 6.89c1 .12 3.31.69 3.31 3.52 0 .74-.09 1.39-.28 1.94.14.1.31.25.5.45l-.03 1.47c-.32-.3-.62-.56-.9-.79-.62 1.2-1.44 1.52-2.44 1.52-1.09 0-1.63-.62-1.63-1.87 0-1.04.74-1.77 1.84-1.77.54 0 1.08.12 1.61.35.06-.46.09-.85.09-1.16 0-1.42-.76-2.25-2.27-2.48-.68 3.09-2.49 6.29-3.97 6.29-.49 0-1.82 0-1.82-2.39 0-1.33.48-2.5 1.44-3.49.96-1 2.05-1.53 3.29-1.6.08-.59.13-1.12.15-1.6h-3.81v-1.28h5.18c-.03 1.05-.12 2.02-.26 2.89zm-1.47 1.15c-1.7.2-3.29 2-3.29 3.82 0 .79.2 1.18.59 1.18.67 0 2.15-2.31 2.7-5.01zm.97 5.09c0 .52.28.78.84.78s1-.37 1.33-1.11c-.53-.3-.99-.45-1.39-.45-.5 0-.76.26-.78.78z" fill="#5c3566"/></svg>