<svg height="16" viewBox="0 0 16 16" width="16" xmlns="http://www.w3.org/2000/svg"><path d="m0 0h16v16h-16z" fill="#ffff83"/><path d="m3.69 5.86q0-2.12-1.4-2.12-.66 0-1.29.26v-1.81q.55-.19 1.18-.19 1.6 0 2.47 1.03.88 1.03.88 2.83v1.34h4.96v-1.34q0-1.8.88-2.83.87-1.03 2.47-1.03.65 0 1.16.19v1.82q-.63-.28-1.28-.28-1.39 0-1.39 2.12v1.35h2.67v1.61h-2.67v1.63q0 2.03-1.14 3.3-1.13 1.26-3.19 1.26-2.06 0-3.18-1.26-1.13-1.27-1.13-3.3v-1.63h-2.69v-1.61h2.69zm1.84 4.58q0 2.83 2.48 2.83 2.48 0 2.48-2.83v-1.63h-4.96z" fill="#f57900"/></svg>