<svg height="16" viewBox="0 0 4.23 4.23" width="16" xmlns="http://www.w3.org/2000/svg"><path d="m0 0h4.23v4.23h-4.23z" fill="#7fffff"/><path d="m2.11 3.97q-.54 0-.83-.3-.29-.3-.29-.8 0-.41.19-.69.2-.28.58-.37l-.61-1.09q-.08-.14-.14-.2-.07-.05-.22-.05v-.21h1.19v.2h-.06q-.3 0-.3.22 0 .07.07.19l.49.91.5-.87q.08-.12.08-.22 0-.23-.32-.23h-.03v-.2h1.04v.2h-.03q-.13 0-.2.08-.07.08-.2.3l-.57.97q.38.09.58.37.21.28.21.69 0 .5-.29.8-.29.3-.84.3zm.01-.25q.65 0 .65-.85 0-.84-.66-.84-.65 0-.65.84 0 .85.66.85z" fill="#204a87" stroke-width=".26"/></svg>