<svg height="16" viewBox="0 0 16 16" width="16" xmlns="http://www.w3.org/2000/svg"><path d="m0 0h16v16h-16z" fill="#7fffff"/><path d="m7.97 15q-2.03 0-3.12-1.15-1.1-1.14-1.1-3.01 0-1.55.74-2.59.74-1.05 2.17-1.39l-2.32-4.13q-.29-.53-.54-.75-.25-.22-.83-.22v-.76h4.53v.76h-.24q-1.13 0-1.13.84 0 .26.25.73l1.85 3.38 1.89-3.27q.29-.46.29-.82 0-.85-1.2-.85h-.11v-.77h3.93v.76h-.11q-.47 0-.75.29-.28.29-.77 1.13l-2.15 3.66q1.42.33 2.21 1.38.79 1.05.79 2.62 0 1.87-1.08 3.02-1.09 1.14-3.2 1.14zm.04-.95q2.47 0 2.47-3.22 0-3.16-2.49-3.16-2.47 0-2.47 3.16 0 3.22 2.49 3.22z" fill="#204a87" stroke-width=".26"/></svg>