<svg height="16" viewBox="0 0 16 16" width="16" xmlns="http://www.w3.org/2000/svg"><path d="m0 0h16v16h-16z" fill="#7fffff"/><path d="m12.25 10.84c0 1.16-.38 4.16-4.28 4.16-1.35 0-2.4-.38-3.12-1.15-.73-.76-1.1-1.77-1.1-3.01 0-.98.23-3.34 2.91-3.98l-2.32-4.13c-.46-.83-.71-.97-1.37-.97v-.76h4.53v.76h-.24c-.96 0-1.13.4-1.13.84 0 .09 0 .26.25.73l1.87 3.38 1.89-3.27c.08-.12.29-.49.29-.82 0-.45-.18-.85-1.2-.85h-.13v-.77h3.93v.76h-.11c-.56 0-.81.2-1.53 1.42l-2.14 3.66c1.89.44 3 1.91 3 4zm-6.73 0c0 1.28.35 3.22 2.49 3.22 1.12 0 2.47-.55 2.47-3.22 0-1.36-.39-3.16-2.49-3.16-1.2 0-2.47.6-2.47 3.16z" fill="#2f5e9d"/></svg>