<svg height="16" viewBox="0 0 16 16" width="16" xmlns="http://www.w3.org/2000/svg"><path d="m0 0h16v16h-16z" fill="#fff"/><path d="m5.97 1c2.41 0 4.13 1.26 4.13 4.92v.08h1.9v5.33c0 1.63.09 2.87 1.13 2.87.68 0 .9-.55 1.08-1.27h.79v1.84c-1.11.23-1.46.25-1.83.25-1.77 0-2.23-.76-2.23-3.62v-4.56h-.91c-.29 2.4-1.8 4.17-4.15 4.17-.81 0-3.89-.09-3.89-4.67 0-.14.01-.2.01-.34h6.29v-.05c0-1.54-.31-4.15-2.47-4.15-.68 0-1.85.23-2.4 1.73h-.95v-1.88c.55-.18 2.1-.65 3.5-.65zm-2.11 5.84c.06 2.57.9 3.37 2.1 3.37 1.53 0 2.17-1.39 2.3-3.37z"/></svg>