<svg height="16" viewBox="0 0 16 16" width="16" xmlns="http://www.w3.org/2000/svg"><path d="m0 0h16v16h-16z" fill="#ffff83"/><path d="m7.97 15c-.16 0-2.27-.04-2.91-2.17l-1.72 1.71-1.11-1.07 4.15-4.11c-3.83-1.89-4.38-2.17-4.38-4.26 0-2.17 2.72-4.1 6.07-4.1 4.03 0 5.48 2.56 5.48 4.1v1.92h-1.55v-1.92c0-1.07-1.2-2.57-4-2.57-1.94 0-4.45.99-4.45 2.68 0 1.27 1.11 1.74 4.02 2.97l1.88-1.85 1.1 1.08-1.57 1.55c1.91 1.3 2.03 2.32 2.02 3.05 0 1.65-1.31 2.99-3.03 2.99zm-.11-4.93c-1.31 1.3-1.34 1.32-1.35 2.01-.01.81.75 1.38 1.47 1.38.73 0 1.49-.57 1.47-1.37-.01-.97-.97-1.67-1.59-2.02z" fill="#f57900"/></svg>