<svg height="16" viewBox="0 0 16 16" width="16" xmlns="http://www.w3.org/2000/svg"><g fill="#f57900"><path d="m6.5.8c-2.58 0-4.45 3.14-4.5 7.2s1.74 7.2 4.5 7.2c2.59 0 4.45-3.14 4.5-7.2s-1.74-7.2-4.5-7.2zm.28 1.97c.8 0 3.07.2 3.07 5.01 0 1.78-1.03 5.46-3.63 5.46-.8 0-3.07-.2-3.07-5.01 0-1.78 1.03-5.46 3.63-5.46z"/><path d="m13.06 1c-1.42 3.14-3.7 4.57-5.59 4.57-2.09 0-3.12-1.64-2.41-2.23l-.85-.03-.07 1.05c.51 1.76 1.55 2.59 4.09 2.59 1.78 0 3.42-.95 4.6-2.31-.07.56-.14 1.15-.14 1.32v9.04h1.31v-14z" fill-rule="evenodd" stroke-linecap="round" stroke-linejoin="round" stroke-miterlimit="5" stroke-width="7"/></g></svg>