<svg height="16" viewBox="0 0 16 16" width="16" xmlns="http://www.w3.org/2000/svg" xmlns:xlink="http://www.w3.org/1999/xlink"><path d="m0 0h16v16h-16z" fill="#fff"/><text style="font-weight:bold;font-size:10.5;font-family:Segoe UI Symbol;letter-spacing:0;word-spacing:0;text-anchor:middle;fill:#800000" transform="scale(.9636 1.0378)" x="8.3" y="11.56"><tspan fill="#800000" font-family="Segoe UI Symbol" font-weight="bold" x="8.3" y="11.56">♥</tspan></text><path id="a" d="m4 3h1v1h-1z" fill="#d40000"/><use height="100%" transform="translate(7 9)" width="100%" xlink:href="#a"/><path d="m9.49 5c.73 0 1.51.54 1.51 1.87 0 1.39-.86 2.37-1.81 3.29-.98.96-.98.96-1.17 1.2h-.04c-.21-.26-.21-.26-1.17-1.19-.95-.92-1.81-1.91-1.81-3.3 0-1.33.79-1.87 1.51-1.87.23 0 .95.02 1.46.96h.04c.26-.46.71-.96 1.48-.96z" fill="#d40000"/><use xlink:href="#b"/><use xlink:href="#b"/><use xlink:href="#b"/><path id="b" d="m4.48 1-1.48 1.48v.02 11.02l1.48 1.48h7.04l1.48-1.48v-11.04l-1.48-1.48zm.04.1h6.96l1.42 1.42v10.96l-1.42 1.42h-6.96l-1.42-1.42v-10.96z"/></svg>