<svg height="16" viewBox="0 0 16 16" width="16" xmlns="http://www.w3.org/2000/svg" xmlns:xlink="http://www.w3.org/1999/xlink"><g stroke-width="8.78" transform="matrix(.1139 0 0 .1139 .77 .35)"><path d="m-6.8-3.1h140.53v140.53h-140.53z" fill="#fff"/><path d="m54.68 75.95h26.35v26.35h-26.35z" fill="#00aa48"/><path id="a" d="m1.98 49.6h17.57v17.57h-17.57z" fill="#00aa48"/><path d="m98.6 14.47v35.13h-79.19c0 2.24.14 15.88.14 17.57 0 5.63 3.97 8.78 8.78 8.78h17.57c0 6.71 3.71 8.83 8.78 8.83l14.41-.01s11.26 29.84 11.94 31.29c.67 1.46.91 3.7 2.25 3.81s25.53.11 27.21 0 2.81-1.8 1.58-4.6-13.47-30.24-13.47-30.24c5.17 0 8.78-3.1 8.78-9.07 5.9 0 8.78-3.39 8.78-8.78v-7.01-10.57-26.55c0-5.06-3.15-8.59-8.78-8.59z" fill="#f60" stroke-width="54.92"/><use transform="translate(105.4)" xlink:href="#a"/><rect fill="#ec3f23" height="8.78" rx="4.39" width="43.92" x="54.68" y="58.39"/><g fill="#fc0"><path d="m37.11 49.6h8.78v26.35h-8.78z"/><rect height="32.5" rx="16.25" stroke="#8f5902" stroke-linejoin="round" stroke-width="2.63" width="76.41" x="20.86" y="15.79"/></g></g></svg>