<svg height="16" viewBox="0 0 16 16" width="16" xmlns="http://www.w3.org/2000/svg" xmlns:xlink="http://www.w3.org/1999/xlink"><radialGradient id="a" cx="7.99652" cy="8.00203" gradientUnits="userSpaceOnUse" r="6.875072"><stop offset=".5" stop-color="#fde030"/><stop offset=".92" stop-color="#f7c02b"/><stop offset="1" stop-color="#f4a223"/></radialGradient><path d="m0 0h16v16h-16z" fill="#fff"/><path d="m8 14.74c-3.37 0-7-2.11-7-6.74 0-4.64 3.63-6.75 7-6.75 1.87 0 3.6.62 4.88 1.74 1.38 1.23 2.12 2.97 2.12 5.01s-.74 3.77-2.12 5c-1.28 1.12-3.02 1.75-4.88 1.75z" fill="url(#a)"/><path d="m13.78 3.99c.64 1.04.98 2.27.98 3.65 0 2.04-.74 3.77-2.12 5-1.28 1.12-3.02 1.75-4.88 1.75-2.18 0-4.47-.89-5.81-2.77 1.3 2.13 3.74 3.13 6.06 3.13 1.86 0 3.6-.63 4.88-1.75 1.37-1.24 2.11-2.96 2.11-5 0-1.54-.42-2.91-1.22-4.01z" fill="#eb8f00"/><path d="m8.1 10.55c-.43 0-.86-.07-1.27-.22-.5-.17-1.05.09-1.22.59-.1.28-.06.59.11.84.52.81 1.34 1.24 2.38 1.24 1.03 0 1.86-.43 2.37-1.23.3-.44.18-1.04-.26-1.33-.25-.17-.56-.2-.85-.11-.4.15-.83.22-1.26.22z" fill="#422b0d"/><g fill="#ef2929"><path d="m13.79 3.88c-1.05-.32-1.82.6-1.82.6s-.09-1.04-.99-1.37c-1.08-.4-2.21.23-2.28 1.87-.08 1.86 2.22 4.31 2.22 4.31s2.85-.82 3.79-2.57c.76-1.42-.13-2.61-.92-2.85z"/><path d="m5.04 3.07c-1.04.37-1.2 1.59-1.2 1.59s-.62-.83-1.54-.56c-1.11.32-1.73 1.52-.95 2.92.92 1.61 4.11 2.28 4.11 2.28s1.96-2.39 1.84-4.4c-.11-1.64-1.47-2.1-2.26-1.83z"/></g></svg>