<svg height="16" viewBox="0 0 16 16" width="16" xmlns="http://www.w3.org/2000/svg"><path d="m0 0h16v16h-16z" fill="#fff"/><path d="m5.86 13.15 3.83.56 4.69-3.04s-.58-1.48-.88-2.23c-.3-.76-.78-1.79-.78-1.79s.26-.76.38-1.67c.14-1.06.02-1.33.02-1.33l-2.5-1.21s-.37.29-.7.94-.45.91-.45.91-.85-.07-1.23-.07-1.01.09-1.01.09-.6-1.16-.91-1.57c-.31-.4-.8-.8-.8-.8s-2.22 1.17-2.32 2.02c-.1.84-.01 1.44.06 1.81s.26.9.26.9-.2.32-.46 1.04c-.27.71-.56 1.59-.78 1.96s-.8 1.22-.8 1.22z" fill="#ff6011"/><path d="m12.28 1.1c-.17-.05-.76.27-1.18.69s-.82 1-.82 1 .84.03 1.6.45c.76.41 1.28.77 1.28.77s-.02-.84-.19-1.57c-.17-.75-.4-1.26-.69-1.34zm-8.09-.09c-.24.07-.52.64-.77 1.59-.14.5-.23 1.42-.23 1.42s.78-.64 1.48-.91 1.58-.46 1.58-.46-.41-.49-.88-.94c-.42-.39-.97-.76-1.18-.7z" fill="#575a5b"/><path d="m10.6 4.59c-.02-.12.29-1.14.61-1.68s.77-1.08.89-1.06.6 1.21.44 2.29c-.15 1.09-.35 1.71-.4 1.72-.03.01-.36-.41-.77-.74-.33-.28-.76-.48-.77-.53zm-6.16-2.48c-.08.05-.49.89-.46 2.14.02.94.2 1.69.24 1.69.02 0 .45-.54.91-.88s1.04-.52 1.06-.56c.03-.08-.34-.9-.84-1.59-.49-.69-.84-.85-.91-.8z" fill="#ffbd6c"/><path d="m1.02 10.96c-.02-.09.45-.18.77-.34s.98-.48 2-.35 1.53.45 2.25.97c.73.52 1.05 1.75 1.05 1.75l1.67.37s.58-1.38 1.01-1.81c.36-.36 1.32-1.17 2.55-1.29 1.2-.12 1.69.16 2.1.33.28.11.53.18.56.27l.01.62c.02.1-.36.34-.63.52-5.4 1.96-7.36 2-13.34-1.04z" fill="#fff"/><path d="m1.02 10.96c-.02-.09.46-.17.78-.34 5.2 3.38 7.2 3.38 12.62-.02.28.11.53.18.56.27l.01.62c.02.1-.36.34-.63.52-.26.18-2.12 1.18-2.81 1.56-.36.2-1.82.77-2.04.76-.21-.02-2.8-.15-2.97-.16-.18-.01-1.92-.65-2.81-1.02-.99-.4-2.77-1.36-2.73-1.53z" fill="#ccc"/><path d="m8.03 15c2.02.1 2.1-1.68 1.89-2.44-.21-.77-.3-.77-.3-.77s-.43.52-.65 1.17c-.07.2-1.86.02-1.86.02s-.09-.37-.26-.72c-.11-.21-.28-.45-.28-.45s-.3.43-.36 1-.23 2.08 1.82 2.18z" fill="#fee9c9"/><path d="m8.08 12c-.43.01-1.13.04-1.09.71.04.68.27 1.3 1.13 1.29.85-.01 1.07-.65 1.09-1.3.01-.38-.09-.71-1.12-.7z" fill="#2d2a25"/><path d="m6.77 8.81c.08.45.03.98-.4 1.13-.43.14-.94-.06-1.11-.72-.19-.72.09-1.06.52-1.2.43-.15.87.16.99.79zm3.93.36c-.14.43-.52.91-.95.82-.43-.1-.61-.57-.52-1.25.08-.62.57-.87 1-.77s.66.6.47 1.2z"/></svg>