<svg height="16" viewBox="0 0 16 16" width="16" xmlns="http://www.w3.org/2000/svg"><path d="m8.22 4.01c-1.77 0-2.66.68-2.66 2.03 0 .77.24 1.42.72 1.94-.59-.14-1.53-.9-2.28-.97-1.75-.16-3.3.73-3.64 2.47-.08.36-.12.72-.09 1.08.09 1.25 1.01 2.48 2.11 2.48l-.32-1.54c-.77 0-.97-1.15-.83-2.03.26-1.61 1.73-1.96 2.31-1.95 1.08 0 1.97.83 2.72 1.06-.51.19-1.24.57-1.24 1.83 0 1.73 2.15 2.46 3.72 2.46 3.68 0 6.25-3.17 6.25-5.45v-.08c0-2.14-1.42-2.66-2.18-2.66-.64 0-.96.25-.96.76 0 .35.21.62.63.81.44-.16.76-.28.94-.28.55 0 .94.39.94.98 0 .41-.42 1.02-1.07 1.02-.5 0-.94-.27-1.98-1.66l-.71-.97c-.52-.7-1.41-1.33-2.38-1.33z"/><path d="m2.06 11.5c.66 0 1.65-1.88.6-3.14-.72-.85-2.56-1.7-2.01-3.18.56-1.47 2.23-1.43 2.81-.85-.93.25-1.61.84-1.61 1.39 0 1.65 2.11 2.47 2.11 4.69 0 .47-.3 2.64-1.58 2.64-.47 0-.33-1.55-.33-1.55z"/></svg>