<svg height="16" viewBox="0 0 16 16" width="16" xmlns="http://www.w3.org/2000/svg"><path d="m0 0h16v16h-16z" fill="#fff0f5"/><path d="m6.99 6.77c.04-.76.06-1.43.06-2.01v-2.01c-1.76 1.51-3.83 2.66-6.21 3.45l-.07-.25c2.56-1.17 4.63-2.59 6.22-4.27h-3.77c-.46 0-.92.06-1.38.19l-.56-.63h11.04l.82-.75 1.19 1.19h-6.09c-.33.3-.65.57-.94.82l1.07.44-.44.44v1.32c0 .59.02 1.15.06 1.69zm1.82-3.58c1.34.25 2.51.59 3.51 1 .75.29 1.15.69 1.19 1.19-.08.59-.4.65-.94.19-.88-.87-2.15-1.59-3.83-2.13zm-4.72 6.21v2.13h2.85v-2.13zm-3.32-2.32h11.99l1-.88 1.19 1.32h-3.05v5.65c0 1-.48 1.63-1.44 1.88-.13-.54-.77-.98-1.95-1.32l.06-.31c.71.13 1.3.19 1.76.19s.69-.19.69-.56v-5.53h-8.3c-.46 0-.92.06-1.38.19zm7.05 3.95c0 .46.02.92.06 1.38l-.94.38v-.82h-2.85v.56l-.94.38c.04-.67.06-1.3.06-1.88v-.75c0-.67-.02-1.3-.06-1.88l1.06.56h2.67l.5-.56.94.81-.5.44z" fill="#5c3566" stroke="#5c3566" stroke-width=".2"/></svg>