<svg height="16" width="16" xmlns="http://www.w3.org/2000/svg"><path d="m15 10.76c0 1.03-.23 3.62-2.53 3.62-1.75 0-2.62-.78-2.62-2.34 0-.52.15-1.04.15-1.18 0-.41-.07-.88-.48-.88-1.44.69-2.47 1.36-2.78 2.02-.3 1.38-.58 1.98-2.04 1.98-.38 0-.65-.01-.82-.02-.55 0-.82-.19-.82-.57s.16-.84.48-1.39c.41-.55 1.5-2.09 1.5-3.18 0-.48-.2-.72-.6-.72-.3 0-.81.23-1.21.23-1.26 0-2.22-1.63-2.22-2.95 0-2.75 1.82-3.95 2.92-4.23.37-.1.92-.15 1.67-.15 1.72 0 3.4 1.61 3.4 3.39 0 2.46-1.26 3.72-1.26 4.89 0 .44.15.48.41.48.23 0 1.07-.9 2.42-1.43.56-.22 1.18-.32 1.87-.32 1.28 0 2.57 1.18 2.57 2.76zm-7.96-6.79c0-.93-1.02-1.59-1.48-1.58-1.22.02-1.84 1.74-1.84 2.7 0 .48.58 1.87 1.81 1.87 1.03 0 1.52-1.39 1.52-2.99zm4.92 8.79c.74 0 .99-1.05.99-1.98 0-1.15-.19-1.78-.95-1.78-.57 0-1 1-1 2 0 1.4.5 1.76.96 1.76z" fill="#c01c28"/></svg>