<svg height="16" width="16" xmlns="http://www.w3.org/2000/svg"><path d="m15 10.76c0 1.03-.23 3.62-2.53 3.62-1.75 0-2.62-.78-2.62-2.34 0-.52.15-1.04.15-1.18 0-.41-.07-.88-.48-.88-1.44.69-2.47 1.36-2.78 2.02-.3 1.38-.58 2-2.04 2-1.13 0-1.65-.01-1.65-.59 0-.38.16-.84.48-1.39.41-.55 1.7-2.13 1.7-3.21 0-.49-.2-.81-.6-.81-.3 0-1.01.55-1.41.55-1.26 0-2.22-2.23-2.22-3.55 0-2.69 2.18-4 4.6-4 1.72 0 3.4 1.61 3.4 3.39 0 2.46-1.26 3.72-1.26 4.89 0 .44.15.48.41.48.23 0 1.07-.9 2.42-1.43.56-.22 1.18-.32 1.87-.32 1.28 0 2.57 1.18 2.57 2.76zm-8-6.78c0-.94-1.1-1.6-1.6-1.59-1.32.02-1.99 1.61-1.99 2.73 0 .84.49 1.88 1.81 1.88 1 0 1.78-1.65 1.78-3.02zm4.96 8.78c.74 0 .99-1.05.99-1.98 0-1.15-.19-1.78-.95-1.78-.57 0-1 1-1 2 0 1.4.5 1.76.96 1.76z" fill="#c01c28"/></svg>