<svg height="16" viewBox="0 0 16 16" width="16" xmlns="http://www.w3.org/2000/svg"><path d="m6.57 3.29c.19-.89.16-.99.25-1.47h-3.17c-.46.01-.87.05-1.21.12-.1.03-.15 0-.17-.1-.04-.21-.15-.38-.32-.52-.09-.08-.11-.14-.07-.18.05-.04.11-.03.19.01.41.1.88.15 1.39.15h7.57c.15-.01.32-.12.5-.31l.43-.61c.08-.1.17-.1.26 0 .78.7 1.17 1.13 1.16 1.29-.02.09-.1.14-.25.15h-5.47c-.1.47-.07.57-.26 1.47h4.29c.15-.01.32-.12.5-.31l.43-.61c.08-.1.17-.1.26 0 .78.7 1.17 1.13 1.16 1.29-.02.09-.1.14-.25.15h-6.51c-.01.04-.02.09-.03.15-.18.49-.53 1.67-.73 2.35h6.95c.15-.01.32-.12.5-.31l.43-.61c.08-.1.17-.1.26 0 .78.7 1.17 1.13 1.16 1.29-.02.09-.1.14-.25.15h-9.22l-.3.73-.58 1.57h6.19c.1 0 .17-.02.22-.05l.5-.56c.1-.11.19-.11.26 0 .35.28.65.55.89.83.07.06.04.12-.07.18-.06 0-.09.02-.1.05-.38.15-.6.48-.66.98-.28 1.9-.88 3.36-1.8 4.39-.62.5-.99.73-1.13.7-.06 0-.09-.07-.1-.22-.02-.18-.08-.32-.18-.43-.14-.18-.67-.32-1.57-.43-.17 0-.24-.07-.23-.22.01-.11.1-.16.28-.15 1.52.09 2.34.05 2.45-.12.28-.26.55-.62.83-1.06.46-1.39.72-2.52.76-3.38h-6.67l-.36.35c-.11.07-.21.05-.28-.1-.12-.2-.29-.41-.5-.64-.1-.12-.07-.21.1-.25.35-.11.63-.43.83-.96l.43-1.22h-2.96c-.46.01-.87.05-1.21.12-.1.03-.15 0-.17-.1-.05-.21-.16-.38-.33-.52-.09-.08-.11-.14-.07-.18.05-.04.11-.03.19.01.42.1.88.15 1.39.15h3.34c.23-.76.57-1.93.68-2.33l.03-.17h-2.06c-.46.01-.87.05-1.21.12-.1.03-.15 0-.17-.1-.06-.2-.17-.37-.33-.51-.09-.08-.11-.14-.07-.18.04-.03.1-.03.18.02.42.1.88.15 1.39.15z" fill="#5c3566" stroke="#5c3566" stroke-width=".2"/></svg>