<svg height="16" viewBox="0 0 16 16" width="16" xmlns="http://www.w3.org/2000/svg"><path d="m0 0h16v16h-16z" fill="#7fffff"/><path d="m6.44 2c1.97 0 4.22-1 6.02-1 .65 0 1.05.25 1.05.97 0 .06 0 .06-.06.52l-.08.45c-.02.06-.06.1-.12.1h-1.32c-.06 0-.09-.03-.09-.08 0-.06.05-.19.05-.44 0-.19-.06-.5-.48-.5-.52 0-1.09.07-1.77.19l-.5 2.49c-.02.11-.03.21-.03.31 0 .42.11.7.69 1.18 1.51 1.25 2.15 2.19 2.15 3.46 0 2.81-2.58 5.33-5.29 5.33-.88 0-3.66-.22-3.66-3.07 0-1.96.91-4.26 5.29-5.86-.23-.2-.67-.66-.67-1.28 0-.13.03-.29.06-.49l.36-1.75c-1.58.33-2.17.49-2.66.49-.72 0-1.05-.27-1.05-.93 0-.1 0-.1.06-.57l.09-.45c.01-.07.05-.1.12-.1h1.32c.06 0 .09.03.09.08 0 .06-.04.18-.04.43 0 .15.05.52.47.52zm.41 12.25c2.17 0 3.39-2.42 3.39-4.61 0-1.53-.41-2.28-1.35-3.09-1.16.47-4.14 1.99-4.14 5.15 0 1.46.73 2.56 2.1 2.56z" fill="#204a87"/></svg>