<svg height="16" width="16" xmlns="http://www.w3.org/2000/svg" xmlns:xlink="http://www.w3.org/1999/xlink"><path d="m11 6.55c0 .43.53.79 1.64.82h.36v3.37h-.84l-.07-.95c-.05-.52-.86-1.79-2.07-1.79h-7.32v-.59h.08c1.11 0 1.22-.46 1.22-.86v-4.1c0-.4-.11-.86-1.22-.86h-.2v-.59h4.46v.59h-.16c-1.11 0-1.19.49-1.19.86v4.91h3.62v-4.92c0-.36-.09-.85-1.19-.85h-.15v-.59h4.45v.59h-.2c-1.11 0-1.22.46-1.22.86z" fill="#c01c28"/><ellipse id="a" cx="2.03" cy="14.9" fill="#c01c28" rx=".9" ry=".9"/><use x="2.56" xlink:href="#a" y="-1.63"/><use x="5.47" xlink:href="#a" y="-2.25"/><use x="8.38" xlink:href="#a" y="-1.63"/><use x="10.94" xlink:href="#a"/></svg>