<svg height="16" viewBox="0 0 16 16" width="16" xmlns="http://www.w3.org/2000/svg"><path d="m0 0h16v16h-16z" fill="#fff0f5"/><path d="m7.22 6.79h-3.3c-.01.41-.04.64-.08.7-.35.28-.56.42-.62.43-.08-.01-.12-.11-.11-.31.04-.62.07-1.24.08-1.87v-1.53c-.01-.36-.04-.78-.08-1.25-.02-.12-.01-.18.03-.2.03-.01.08.02.15.09.12.13.31.29.55.47h6.84c.12 0 .22-.04.29-.11l.38-.4c.05-.07.12-.08.21-.02.32.23.58.45.81.64.07.08.06.13-.03.14-.17.03-.31.09-.4.18-.08.09-.12.19-.12.29v.06c.01 1.1.05 2.15.12 3.16 0 .13-.05.23-.15.29-.46.26-.71.39-.75.38-.04-.02-.06-.11-.05-.27.02-.25.04-.55.05-.88h-3.09v2.39h3.95c.09 0 .14-.01.15-.02l.38-.5c.02-.04.05-.06.09-.06s.08.02.12.06c.32.25.59.51.84.76.07.08.03.15-.14.21-.24.1-.38.17-.41.21-.03.06-.05.13-.05.2v2.62c0 .35-.09.65-.27.9s-.41.43-.69.53c-.09.04-.16.02-.2-.08-.09-.21-.25-.4-.47-.56s-.58-.26-1.08-.3c-.12-.02-.18-.08-.17-.18.01-.09.08-.13.21-.12 1.16.05 1.77.06 1.83.03.07-.04.11-.17.11-.38v-2.84h-4.2v1.55c0 1.2.02 2.2.06 3-.01.09-.24.29-.7.59-.14.09-.21.03-.2-.18.07-1.35.11-2.49.11-3.42v-1.54h-4.33v1.97c-.01.58-.01 1.25 0 2.01-.01.15-.2.36-.58.61-.08.04-.14.06-.18.06-.06-.01-.09-.11-.08-.3.04-1.02.08-1.81.11-2.38v-1.56c-.01-.32-.05-.72-.11-1.19-.02-.1-.01-.16.02-.17.01 0 .21.16.61.47h4.54zm-3.3-.47h7.14c.01-.36.02-.94.03-1.75v-.77h-7.17zm8.81-5.1c.12 0 .2-.02.24-.06.05-.05.12-.13.21-.23l.4-.56c.07-.09.15-.09.24 0 .32.28.63.58.93.9.1.1.15.2.14.29-.02.08-.1.13-.23.14h-12.46c-.27 0-.58.04-.93.11-.05.01-.08 0-.09-.03-.13-.21-.25-.39-.35-.56-.06-.1-.03-.13.11-.1.62.06.97.1 1.04.11z" fill="#5c3566" stroke="#5c3566" stroke-width=".2"/></svg>