<svg height="16" viewBox="0 0 16 16" width="16" xmlns="http://www.w3.org/2000/svg"><path d="m9.86 7.21c-.73 1.97-1.81 3.39-2.97 4.5-.33-1.73-.33-2.77-.3-3.94 1.05-.43 2.16-.53 3.27-.56zm2.01-1.94-1.39-.35c-.03.43-.12.77-.25 1.2-1.22-.09-2.42.13-3.6.42.05-.74.1-1.48.17-2.16 2.17-.11 4.51-.35 6.35-.67l-.01-1.3c-1.8.42-3.94.65-6.18.75l.21-1.33c.06-.25.13-.57.21-.79l-1.47-.04c.01.21-.02.53-.04.84l-.14 1.35-1.2.02c-.76 0-2.29-.12-2.9-.23l.04 1.32c.72.05 2.09.12 2.85.12l1.07-.01c-.07.83-.16 1.71-.19 2.59-2.43 1.12-4.4 3.43-4.4 5.7 0 2.49 2.43 2.83 5.07 1.25l.28.98 1.26-.39c-.14-.44-.28-.91-.42-1.42 1.5-1.27 2.92-3.22 3.92-5.72 1.64.47 2.53 1.67 2.53 3.01 0 2.29-1.97 3.92-5.15 4.26l.76 1.17c4.08-.65 5.75-2.83 5.75-5.36 0-1.93-1.3-3.55-3.5-4.13.04-.18.26-.81.37-1.08zm-6.53 3.05c0 1.72.16 2.98.42 4.31-1.41 1-3.43 1.55-3.43-.16 0-1.44 1.3-3.18 3.01-4.15z" fill="#c01c28"/></svg>