<svg height="16" viewBox="0 0 16 16" width="16" xmlns="http://www.w3.org/2000/svg"><path d="m7 2.22c0-.33.12-1.17 1.3-1.17.51 0 .88.21 1.12.64.19-.41.56-.62 1.11-.62.94 0 1.42.53 1.42 1.58v3.1c0 .72-.47 1.84-2.69 2.92-2.5 1.2-3.82 2.22-4.44 3.73-.18.41-.26.78-.26 1.12 0 .43.15.64.45.64.12 0 .4-.04.67-.37l1.86-2.23c.51-.62 1.31-1.33 2.24-1.33 1.25 0 1.96.31 3.07 4.46l-.7.25c-.6-1.77-1.03-2.83-1.28-3.2-.26-.37-.6-.55-1.03-.55-.42 0-.94.19-1.48.87l-1.52 1.85c-.83 1.01-1.51 1.12-1.92 1.12-.88 0-1.27-.65-1.27-1.37 0-.91.28-3.36 5.01-5.61 1.63-.79 2.38-1.67 2.38-2.44v-2.99c0-.52-.2-.77-.6-.77s-.64.29-.71.88h-.72c-.01-.19-.09-.92-.71-.92-.29 0-.46.19-.46.46 0 .33.24.56.71.69l-.3.61c-.83-.18-1.25-.63-1.25-1.35zm-2.44 4.52c-.77-.08-1.51-.55-1.51-1.63v-2.43c0-1.07.56-1.61 1.68-1.61 1.1 0 1.66.52 1.66 1.56v2.67c0 .43.21.75.62.75h1.25l-1.11-1.65h.98l1.37 2.04-.18.3h-2.37c-.98 0-1.47-.56-1.47-1.47v-2.65c0-.52-.25-.77-.75-.77-.51 0-.77.27-.77.8v2.41c0 .5.26.91.79.99z" fill="#008000" stroke="#008000" stroke-width=".1"/></svg>