<svg height="16" viewBox="0 0 16 16" width="16" xmlns="http://www.w3.org/2000/svg"><path d="m0 0h16v16h-16z" fill="#fff0f5"/><path d="m3.96 10v-2h3.04v2zm3.04-4.01v1.51h-3.04v-1.51zm4.03 0v1.51h-3.01v-1.51zm-3.01 4.01v-2h3.01v2zm4.21 2.25h-4.21l-.03-1.75h3.01l.03.66h.15c.33 0 .81-.24.82-.33v-4.81c.3-.04.54-.16.64-.28l-1.21-.89-.55.65h-2.86v-1.61h5.58c.21 0 .36-.07.4-.24-.56-.48-1.44-1.18-1.44-1.18l-.76.93h-3.78v-1.31c.36-.06.48-.21.52-.42l-1.54-.18v1.91h-5.89l.13.49h5.76v1.61h-2.94l-1.06-.59v6.49h.16c.39 0 .79-.24.79-.33l-.02-.57h3.04l.03 1.75h-6.28l.12.57h6.16v2.41h.21c.37 0 .81-.24.81-.37v-2.04h6.01c.21 0 .34-.07.39-.24-.54-.48-1.39-1.29-1.39-1.29z" fill="#5c3566"/></svg>