<svg height="16" width="16" xmlns="http://www.w3.org/2000/svg"><path d="m10.55 2.65c-.94 0-1.86.33-1.86 2.57v.11h4.93v6.05c0 .37 0 1.02 1.19 1.02h.19v.6h-3.99v-.6h.04c1.19 0 1.19-.61 1.19-.95v-5.45h-3.56v5.38c0 .37 0 1.02 1.19 1.02h.27v.6h-4.21v-.6h.19c1.19 0 1.19-.65 1.19-1.02v-5.38h-3.56v5.38c0 .37 0 1.02 1.19 1.02h.27v.6h-4.21v-.6h.19c1.19 0 1.19-.65 1.19-1.02v-5.38h-1.32v-.67h1.32v-.17c0-1.15.36-2.95 2.69-2.95 1.04 0 1.92.22 1.92.99 0 .6-.64.79-1.19.79 0-.42-.12-1.14-.96-1.14-.29 0-1.09-.06-1.09 2.1v.38h3.57v-.11c0-1.65.7-3.22 3.47-3.22.9 0 2.72.13 2.72 1.18 0 .53-.49.94-1.32.94 0-.1-.03-1.46-1.64-1.46z" fill="#c01c28"/></svg>