<svg height="16" viewBox="0 0 16 16" width="16" xmlns="http://www.w3.org/2000/svg" xmlns:xlink="http://www.w3.org/1999/xlink"><path d="m0 0h16v16h-16z" fill="#fff"/><path id="a" d="m1 6s2-3 6-3v1.5c-3.88 0-6 2.51-6 2.5z"/><use height="100%" transform="matrix(-1 0 0 1 16 0)" width="100%" xlink:href="#a"/><g id="b" transform="translate(-.5 1.5)"><circle id="c" cx="5" cy="6" r=".6"/><use transform="matrix(.7071 -.7071 .7071 .7071 -4.9 6.17)" xlink:href="#c"/><use transform="matrix(0 -1 1 0 -4 14)" xlink:href="#c"/><use transform="matrix(-.7071 -.7071 .7071 -.7071 2.17 18.9)" xlink:href="#c"/><use transform="matrix(-1 0 0 -1 10 18)" xlink:href="#c"/><use transform="matrix(-.7071 .7071 -.7071 -.7071 14.9 11.83)" xlink:href="#c"/><use transform="matrix(0 1 -1 0 14 4)" xlink:href="#c"/><use transform="matrix(.7071 .7071 -.7071 .7071 7.83 -.9)" xlink:href="#c"/></g><use transform="translate(7)" xlink:href="#b"/></svg>