<?xml version="1.0" standalone="no"?>
<!DOCTYPE svg PUBLIC "-//W3C//DTD SVG 1.1//EN" "http://www.w3.org/Graphics/SVG/1.1/DTD/svg11.dtd" >
<svg xmlns="http://www.w3.org/2000/svg" xmlns:xlink="http://www.w3.org/1999/xlink" version="1.1" viewBox="-16 0 545 1000">
   <path fill="currentColor"
d="M482 391c0 116.481 -70.0684 295.665 -182 402c38.2646 191.325 28.7285 245.57 -100 222l-23 -4l24 -214c-97.0742 -420.656 -97.0742 -420.656 -116 -450.5c-8.66699 -13.667 -18.333 -20.5 -29 -20.5c-10.0605 0 -18.5957 2.05469 -43 16l-19 -47
c18.9307 -15.4893 52.0879 -35 99 -35c85.916 0 108.667 50.1348 156.5 277c11.667 55.333 26.167 122.333 43.5 201c94.4209 -103.005 135 -229.771 135 -308c0 -27.1387 0 -85.585 -93 -106c0 -18.8691 5.34375 -68 61 -68c28.8311 0 86 6.83789 86 135z" />
</svg>
