<svg version="1.1" viewBox="0 0 36 36" xmlns="http://www.w3.org/2000/svg">
<rect x=".15" y="5.15" width="35.7" height="25.7" ry="3.85" fill="#FFF" stroke="#9a9996" stroke-width=".3"/>
<path d="M20.666 19l-.467.809h.934zM18 21.618l.467-.809h-.934z" fill="#EDECEC"/>
<path d="M.294 7.5C.106 7.964 0 8.469 0 9v2h36V9c0-.531-.106-1.036-.294-1.5H.294z" fill="#0038B8"/>
<path d="M.294 28.5C.106 28.036 0 27.531 0 27v-2h36v2c0 .531-.106 1.036-.294 1.5H.294zm16.084-7.691L18 23.618l1.622-2.809h3.243L21.244 18l1.622-2.809h-3.243L18 12.382l-1.622 2.809h-3.243L14.756 18l-1.622 2.809h3.244zm1.622.809l-.467-.809h.934l-.467.809zm3.133-5.427l-.467.809-.467-.808h.934zM20.666 19l.467.808h-.934l.467-.808zM18 14.382l.467.809h-.934l.467-.809zm-1.044 1.809h2.089L20.089 18l-1.044 1.809h-2.089L15.911 18l1.045-1.809zm-1.155 0l-.467.809-.467-.808h.934zM15.334 19l.467.808h-.934l.467-.808z" fill="#0038B8"/>
</svg>
