<?xml version="1.0" encoding="UTF-8" standalone="no"?>
<svg
   version="1.1"
   viewBox="-10 0 393 1000"
   id="svg4"
   sodipodi:docname="1078D.svg"
   inkscape:version="1.1.1 (3bf5ae0d25, 2021-09-20)"
   xmlns:inkscape="http://www.inkscape.org/namespaces/inkscape"
   xmlns:sodipodi="http://sodipodi.sourceforge.net/DTD/sodipodi-0.dtd"
   xmlns="http://www.w3.org/2000/svg"
   xmlns:svg="http://www.w3.org/2000/svg">
  <defs
     id="defs8" />
  <sodipodi:namedview
     id="namedview6"
     pagecolor="#ffffff"
     bordercolor="#666666"
     borderopacity="1.0"
     inkscape:pageshadow="2"
     inkscape:pageopacity="0.0"
     inkscape:pagecheckerboard="0"
     showgrid="false"
     showguides="true"
     inkscape:guide-bbox="true"
     inkscape:zoom="0.719"
     inkscape:cx="434.63143"
     inkscape:cy="276.7733"
     inkscape:window-width="1680"
     inkscape:window-height="998"
     inkscape:window-x="-8"
     inkscape:window-y="-8"
     inkscape:window-maximized="1"
     inkscape:current-layer="svg4"
     inkscape:snap-smooth-nodes="true"
     inkscape:snap-bbox="true"
     inkscape:snap-center="true">
    <sodipodi:guide
       position="25.60059,808.58652"
       orientation="0,-1"
       id="guide825" />
    <sodipodi:guide
       position="13.24917,486.99938"
       orientation="1,0"
       id="guide827" />
    <sodipodi:guide
       position="167.95517,486.99938"
       orientation="0,-1"
       id="guide829" />
    <sodipodi:guide
       position="45.7512,648.3934"
       orientation="1,0"
       id="guide1336" />
    <sodipodi:guide
       position="198.507,814.587"
       orientation="0,-1"
       id="guide1418" />
    <sodipodi:guide
       position="196.557,481"
       orientation="0,-1"
       id="guide1420" />
    <sodipodi:guide
       position="324.74004,942.98114"
       orientation="0,-1"
       id="guide2085" />
  </sodipodi:namedview>
  <path
     fill="currentColor"
     d="m 339.99214,656.74686 q -47.31308,0 -68.87345,-20.96148 -21.56038,-20.96148 -21.56038,-74.26352 v -46.71417 q 0,-13.17578 1.1978,-26.95047 1.19779,-13.77469 2.3956,-26.95047 h -3.5934 Q 235.78362,487.85722 214.22324,503.42861 192.66285,519 157.92668,519 98.635642,519 67.193424,479.17319 35.7512,439.34636 35.7512,353.10484 q 0,-86.84043 31.442224,-127.26614 31.442218,-40.4257 90.134366,-40.4257 34.13727,0 55.99709,14.37358 21.85985,14.37359 35.03564,37.13176 h 3.59338 q -0.5989,-1.79669 -1.49725,-13.77468 -0.89834,-11.97799 -1.49725,-25.45322 -0.59888,-13.47524 -0.59888,-20.66203 v -14.97249 q 0,-50.90645 25.45322,-79.054727 25.45322,-28.148274 79.95307,-28.148274 38.32956,0 57.7938,14.074135 19.46423,14.074139 19.46423,34.436716 0,16.17029 -12.87633,26.65103 -12.87634,10.48074 -39.22792,10.48074 0,-58.093246 -31.14276,-58.093246 -19.16479,0 -26.35159,13.774686 -7.18679,13.77469 -7.18679,49.70866 v 420.42741 q 0,29.34609 12.27743,43.42021 12.27744,14.07415 32.64003,14.07415 10.78019,0 19.76368,-1.19781 8.98349,-1.19781 18.56588,-2.9945 v 27.54938 q -8.98349,3.59338 -25.45322,6.58788 -16.46973,2.9945 -32.04111,2.9945 z M 172.30027,478.87374 q 43.71967,0 59.88996,-31.14279 16.17029,-31.14276 16.17029,-95.22502 0,-61.08773 -16.46975,-94.0272 -16.46972,-32.93947 -60.1894,-32.93947 -37.13177,0 -53.00259,32.93947 -15.87084,32.93947 -15.87084,94.62611 0,63.48334 15.87084,94.62611 15.87082,31.14279 53.60149,31.14279 z"
     id="path2-0"
     style="stroke-width:0.999992"
     inkscape:transform-center-x="-75.461343"
     inkscape:transform-center-y="-163.20011" />
</svg>
