<?xml version="1.0" encoding="UTF-8" standalone="no"?>
<svg
   version="1.1"
   viewBox="-10 0 393 1000"
   id="svg4"
   sodipodi:docname="10787.svg"
   inkscape:version="1.1.1 (3bf5ae0d25, 2021-09-20)"
   xmlns:inkscape="http://www.inkscape.org/namespaces/inkscape"
   xmlns:sodipodi="http://sodipodi.sourceforge.net/DTD/sodipodi-0.dtd"
   xmlns="http://www.w3.org/2000/svg"
   xmlns:svg="http://www.w3.org/2000/svg">
  <defs
     id="defs8" />
  <sodipodi:namedview
     id="namedview6"
     pagecolor="#ffffff"
     bordercolor="#666666"
     borderopacity="1.0"
     inkscape:pageshadow="2"
     inkscape:pageopacity="0.0"
     inkscape:pagecheckerboard="0"
     showgrid="false"
     showguides="true"
     inkscape:guide-bbox="true"
     inkscape:zoom="0.719"
     inkscape:cx="434.63143"
     inkscape:cy="443.67177"
     inkscape:window-width="1680"
     inkscape:window-height="998"
     inkscape:window-x="-8"
     inkscape:window-y="-8"
     inkscape:window-maximized="1"
     inkscape:current-layer="svg4"
     inkscape:snap-smooth-nodes="true"
     inkscape:snap-bbox="true"
     inkscape:snap-center="true">
    <sodipodi:guide
       position="25.60059,808.58652"
       orientation="0,-1"
       id="guide825" />
    <sodipodi:guide
       position="13.24917,486.99938"
       orientation="1,0"
       id="guide827" />
    <sodipodi:guide
       position="167.95517,486.99938"
       orientation="0,-1"
       id="guide829" />
    <sodipodi:guide
       position="45.7512,648.3934"
       orientation="1,0"
       id="guide1336" />
    <sodipodi:guide
       position="198.507,814.587"
       orientation="0,-1"
       id="guide1418" />
    <sodipodi:guide
       position="196.557,481"
       orientation="0,-1"
       id="guide1420" />
  </sodipodi:namedview>
  <path
     fill="currentColor"
     d="m 158.27385,519.00037 q -59.397623,0 -90.896365,-39.8984 Q 35.87874,439.20358 35.87874,352.80702 q 0,-86.99652 31.498745,-127.49489 31.498742,-40.49839 90.296375,-40.49839 34.19864,0 56.09776,14.39941 21.89912,14.39944 35.0986,37.19853 h 3.59985 l -0.59997,-8.39967 q 0,0 -1.19995,-20.09919 -1.19995,-20.0992 -1.19995,-22.7991 0,-2.69989 -0.59998,-16.49933 V 123.6162 q 0,-25.798978 -14.69941,-32.698703 -14.69941,-6.899724 -34.49863,-6.899724 h -4.7998 v -26.99892 h 119.9952 V 191.41348 h 245.39018 v 25.19899 L 384.4648,477.00205 h 108.59565 q 19.7992,0 27.8989,-13.79945 8.09966,-13.79944 12.2995,-35.39858 l 2.99986,-14.99941 h 28.19889 l -2.99989,100.19601 H 262.66967 l -9.59963,-52.19791 h -2.99988 q -13.79943,26.99891 -35.39857,42.59829 -21.59914,15.59937 -56.39774,15.59937 z m 14.39942,-40.19839 q 43.79824,0 59.9976,-31.19875 16.19935,-31.19875 16.19935,-95.39618 0,-61.19756 -16.49935,-94.19625 -16.49933,-32.99868 -60.29758,-32.99868 -37.1985,0 -53.09787,32.99868 -15.89938,32.99869 -15.89938,94.79622 0,63.59746 15.89938,94.79621 15.89937,31.19875 53.69785,31.19875 z m 142.19431,-3.59985 165.59338,-247.7901 H 314.86758 Z"
     id="path2"
     style="stroke-width:0.999998"
     inkscape:transform-center-x="-257.31333"
     inkscape:transform-center-y="-224.99103" />
</svg>
