<?xml version="1.0" encoding="UTF-8" standalone="no"?>
<svg
   version="1.1"
   viewBox="-10 0 393 1000"
   id="svg4"
   sodipodi:docname="1079C.svg"
   inkscape:version="1.1.1 (3bf5ae0d25, 2021-09-20)"
   xmlns:inkscape="http://www.inkscape.org/namespaces/inkscape"
   xmlns:sodipodi="http://sodipodi.sourceforge.net/DTD/sodipodi-0.dtd"
   xmlns="http://www.w3.org/2000/svg"
   xmlns:svg="http://www.w3.org/2000/svg">
  <defs
     id="defs8" />
  <sodipodi:namedview
     id="namedview6"
     pagecolor="#ffffff"
     bordercolor="#666666"
     borderopacity="1.0"
     inkscape:pageshadow="2"
     inkscape:pageopacity="0.0"
     inkscape:pagecheckerboard="0"
     showgrid="false"
     showguides="true"
     inkscape:guide-bbox="true"
     inkscape:zoom="1.438"
     inkscape:cx="274.33936"
     inkscape:cy="319.19332"
     inkscape:window-width="1680"
     inkscape:window-height="998"
     inkscape:window-x="-8"
     inkscape:window-y="-8"
     inkscape:window-maximized="1"
     inkscape:current-layer="svg4"
     inkscape:snap-smooth-nodes="true"
     inkscape:snap-bbox="true"
     inkscape:snap-center="true"
     inkscape:bbox-nodes="true"
     inkscape:snap-others="true"
     inkscape:snap-global="true"
     inkscape:object-paths="true"
     inkscape:snap-page="false">
    <sodipodi:guide
       position="25.60059,808.58652"
       orientation="0,-1"
       id="guide825" />
    <sodipodi:guide
       position="13.24917,486.99938"
       orientation="1,0"
       id="guide827" />
    <sodipodi:guide
       position="167.95517,486.99938"
       orientation="0,-1"
       id="guide829" />
    <sodipodi:guide
       position="45.7512,648.3934"
       orientation="1,0"
       id="guide1336" />
    <sodipodi:guide
       position="198.507,814.587"
       orientation="0,-1"
       id="guide1418" />
    <sodipodi:guide
       position="196.557,481"
       orientation="0,-1"
       id="guide1420" />
    <sodipodi:guide
       position="870.65368,942.98114"
       orientation="0,1"
       id="guide3871"
       inkscape:label=""
       inkscape:locked="false"
       inkscape:color="rgb(0,0,255)" />
  </sodipodi:namedview>
  <path
     id="path2"
     d="m 32.647994,191.41348 v 26.99892 h 7.799689 c 11.99952,0 22.4991,2.29991 31.49874,6.89973 8.99964,4.59982 13.49946,15.49938 13.49946,32.69869 v 31.65811 c -5.599774,-1.99993 -11.99952,-2.99988 -19.199232,-2.99988 -21.19915,0 -36.998517,5.89975 -47.398105,17.69929 C 8.4489641,316.16786 3.24917,328.86736 3.24917,342.46682 c 0,19.59921 5.8997681,34.5986 17.699292,44.9982 11.79953,10.39957 31.098758,15.59937 57.897685,15.59937 h 6.599736 v 42.73892 c 0,11.59954 -2.299906,20.29919 -6.899724,26.09896 -4.599818,5.79977 -10.49958,9.59961 -17.699292,11.39954 -7.199712,1.79993 -14.799409,2.69989 -22.799088,2.69989 H 30.24809 v 26.99893 h 273.58905 l 4.19983,-103.79585 h -29.39882 l -3.59985,23.39906 c -3.19987,19.19923 -8.19967,32.4987 -14.9994,39.8984 -6.79973,7.39971 -17.99928,11.09956 -33.59864,11.09956 h -74.99702 v -80.53741 h 63.59746 v -32.3987 H 151.44324 V 258.01082 c 0,-11.59953 2.29991,-20.19919 6.89972,-25.79897 4.59983,-5.59977 10.49959,-9.29963 17.69929,-11.09955 7.19971,-1.79993 14.79941,-2.6999 22.79909,-2.6999 h 5.99977 v -26.99892 z m 29.398825,127.0543 c 7.599698,0 13.399468,3.09987 17.399304,9.29962 3.999842,6.19975 5.99976,14.49943 5.99976,24.89901 v 17.99928 h -5.399784 c -14.399426,0 -24.899004,-2.49991 -31.49874,-7.4997 -6.599736,-4.99981 -9.899604,-11.89954 -9.899604,-20.69917 0,-6.39975 1.999924,-11.99952 5.99976,-16.79933 3.999842,-4.79981 9.799612,-7.19971 17.399304,-7.19971 z"
     sodipodi:nodetypes="ccssccsssssccsssccccccssccccccssscccssscsssss"
     style="stroke-width:0.999998" />
</svg>
