<?xml version="1.0" encoding="UTF-8" standalone="no"?>
<svg
   version="1.1"
   viewBox="-10 0 393 1000"
   id="svg4"
   sodipodi:docname="107A4.svg"
   inkscape:version="1.1.1 (3bf5ae0d25, 2021-09-20)"
   xmlns:inkscape="http://www.inkscape.org/namespaces/inkscape"
   xmlns:sodipodi="http://sodipodi.sourceforge.net/DTD/sodipodi-0.dtd"
   xmlns="http://www.w3.org/2000/svg"
   xmlns:svg="http://www.w3.org/2000/svg">
  <defs
     id="defs8" />
  <sodipodi:namedview
     id="namedview6"
     pagecolor="#ffffff"
     bordercolor="#666666"
     borderopacity="1.0"
     inkscape:pageshadow="2"
     inkscape:pageopacity="0.0"
     inkscape:pagecheckerboard="0"
     showgrid="false"
     showguides="true"
     inkscape:guide-bbox="true"
     inkscape:zoom="1.0168196"
     inkscape:cx="354.53685"
     inkscape:cy="221.2782"
     inkscape:window-width="1680"
     inkscape:window-height="998"
     inkscape:window-x="-8"
     inkscape:window-y="-8"
     inkscape:window-maximized="1"
     inkscape:current-layer="svg4"
     inkscape:snap-smooth-nodes="true"
     inkscape:snap-bbox="true"
     inkscape:snap-center="true"
     inkscape:bbox-nodes="true"
     inkscape:snap-others="true"
     inkscape:snap-global="true"
     inkscape:object-paths="true"
     inkscape:snap-page="false">
    <sodipodi:guide
       position="25.60059,808.58652"
       orientation="0,-1"
       id="guide825" />
    <sodipodi:guide
       position="13.24917,26.375921"
       orientation="1,0"
       id="guide827" />
    <sodipodi:guide
       position="167.95517,486.99938"
       orientation="0,-1"
       id="guide829" />
    <sodipodi:guide
       position="45.7512,648.3934"
       orientation="1,0"
       id="guide1336" />
    <sodipodi:guide
       position="198.507,814.587"
       orientation="0,-1"
       id="guide1418" />
    <sodipodi:guide
       position="196.557,481"
       orientation="0,-1"
       id="guide1420" />
    <sodipodi:guide
       position="579.25715,942.98114"
       orientation="0,1"
       id="guide3871"
       inkscape:label=""
       inkscape:locked="false"
       inkscape:color="rgb(0,0,255)" />
  </sodipodi:namedview>
  <path
     fill="currentColor"
     d="M 151.3388,519 Q 97.437844,519 66.594522,479.17319 35.7512,439.34637 35.7512,360.89054 q 0,-50.30755 21.85983,-89.83492 21.859831,-39.52736 66.77729,-62.58499 44.91746,-23.05763 113.192,-23.05763 62.88444,0 107.50245,21.85983 44.61801,21.85983 68.57399,61.3872 23.95598,39.52736 23.95598,92.23051 0,78.45583 -30.84332,118.28265 Q 375.92609,519 322.02514,519 q -33.53837,0 -53.90095,-17.36808 -20.36258,-17.36809 -30.54387,-43.71967 h -1.7967 Q 225.60233,484.26383 205.23975,501.63192 184.87717,519 151.3388,519 Z m 12.57688,-35.93397 q 24.55488,0 37.13177,-18.26643 12.57689,-18.26643 16.76919,-44.61801 V 314.77528 h 37.73066 v 105.40631 q 4.7912,26.35158 17.06864,44.61801 12.27744,18.26643 36.23341,18.26643 25.15378,0 43.42021,-29.64552 18.26644,-29.64552 18.26644,-92.52997 0,-74.86243 -32.04112,-108.9997 -32.04112,-34.13727 -102.11236,-34.13727 -70.67014,0 -102.11236,36.83232 -31.44222,36.83231 -31.44222,106.30465 0,45.51636 8.38459,72.46684 8.38459,26.95047 22.45873,38.32956 14.07414,11.37909 30.24442,11.37909 z"
     id="path2"
     style="stroke-width:1" />
</svg>
