<?xml version="1.0" encoding="UTF-8" standalone="no"?>
<svg
   version="1.1"
   viewBox="-10 0 393 1000"
   id="svg4"
   sodipodi:docname="107A8.svg"
   inkscape:version="1.1.1 (3bf5ae0d25, 2021-09-20)"
   xmlns:inkscape="http://www.inkscape.org/namespaces/inkscape"
   xmlns:sodipodi="http://sodipodi.sourceforge.net/DTD/sodipodi-0.dtd"
   xmlns="http://www.w3.org/2000/svg"
   xmlns:svg="http://www.w3.org/2000/svg">
  <defs
     id="defs8" />
  <sodipodi:namedview
     id="namedview6"
     pagecolor="#ffffff"
     bordercolor="#666666"
     borderopacity="1.0"
     inkscape:pageshadow="2"
     inkscape:pageopacity="0.0"
     inkscape:pagecheckerboard="0"
     showgrid="false"
     showguides="true"
     inkscape:guide-bbox="true"
     inkscape:zoom="1.0168196"
     inkscape:cx="354.53685"
     inkscape:cy="535.98497"
     inkscape:window-width="1680"
     inkscape:window-height="998"
     inkscape:window-x="-8"
     inkscape:window-y="-8"
     inkscape:window-maximized="1"
     inkscape:current-layer="svg4"
     inkscape:snap-smooth-nodes="true"
     inkscape:snap-bbox="false"
     inkscape:snap-center="true"
     inkscape:bbox-nodes="true"
     inkscape:snap-others="true"
     inkscape:snap-global="true"
     inkscape:object-paths="true"
     inkscape:snap-page="false">
    <sodipodi:guide
       position="25.60059,808.58652"
       orientation="0,-1"
       id="guide825" />
    <sodipodi:guide
       position="13.24917,26.375921"
       orientation="1,0"
       id="guide827" />
    <sodipodi:guide
       position="167.95517,486.99938"
       orientation="0,-1"
       id="guide829" />
    <sodipodi:guide
       position="45.7512,648.3934"
       orientation="1,0"
       id="guide1336" />
    <sodipodi:guide
       position="198.507,814.587"
       orientation="0,-1"
       id="guide1418" />
    <sodipodi:guide
       position="196.557,481"
       orientation="0,-1"
       id="guide1420" />
    <sodipodi:guide
       position="579.25715,942.98114"
       orientation="0,1"
       id="guide3871"
       inkscape:label=""
       inkscape:locked="false"
       inkscape:color="rgb(0,0,255)" />
  </sodipodi:namedview>
  <path
     fill="currentColor"
     d="m 141.84362,656.99485 c -31.59873,0 -54.39782,-6.99974 -68.397258,-20.99915 C 59.446924,621.99626 52.447201,597.19725 52.447201,561.59868 V 259.21077 c 0,-17.59929 -4.499819,-28.79884 -13.499459,-33.59866 -8.99964,-4.7998 -20.099196,-7.19971 -33.2986681,-7.19971 H 3.24917 v -26.99892 h 100.19599 l 11.39955,55.79777 h 2.99988 c 7.99968,-21.19915 18.99924,-36.89852 32.99867,-47.09811 13.99944,-10.1996 32.39871,-15.29939 55.19779,-15.29939 19.59923,0 34.59862,3.99984 44.99821,11.99951 10.39957,7.99969 15.59937,19.19923 15.59937,33.59867 0,13.99942 -4.8998,25.29898 -14.69941,33.89864 -9.79961,8.59965 -25.29899,12.89948 -46.49814,12.89948 0,-16.39933 -2.2999,-28.49886 -6.89973,-36.29855 -4.59982,-7.79968 -12.69949,-11.69953 -24.29902,-11.69953 -11.19955,0 -20.39919,4.19983 -27.59889,12.59949 -7.19972,8.39967 -12.79949,18.99926 -16.79933,31.79874 -3.99984,12.79948 -6.89972,25.99895 -8.69966,39.5984 -1.79992,13.59947 -2.6999,25.59899 -2.6999,35.99857 v 163.79345 53.39786 c 0,19.59921 4.09985,34.09863 12.29951,43.49826 8.19968,9.39963 19.29924,14.09944 33.29867,14.09944 6.79973,0 13.29947,-0.39999 19.49923,-1.19996 6.19975,-0.79996 12.49949,-1.79992 18.89924,-2.99988 v 27.59889 c -5.99977,2.39992 -14.59941,4.59985 -25.79896,6.59975 -11.19956,1.9999 -22.7991,2.99987 -34.79862,2.99987 z"
     id="path2"
     sodipodi:nodetypes="sssssscccccssssscsssssscssssccss"
     style="stroke-width:1"
     inkscape:transform-center-x="-131.69473"
     inkscape:transform-center-y="229.49082" />
</svg>
