<?xml version="1.0" standalone="no"?>
<!DOCTYPE svg PUBLIC "-//W3C//DTD SVG 1.1//EN" "http://www.w3.org/Graphics/SVG/1.1/DTD/svg11.dtd" >
<svg xmlns="http://www.w3.org/2000/svg" xmlns:xlink="http://www.w3.org/1999/xlink" version="1.1" viewBox="-10 0 975 1000">
   <path fill="currentColor"
d="M182.65 358.8c63.0498 0 82.5498 -40.7998 82.5498 -126c0 -82.7998 -19.5 -127.8 -83.2002 -127.8c-53.2998 0 -74.75 45 -74.75 128.4c0 84 21.4502 125.399 75.4004 125.399zM292.5 472.753c0 -39.124 40.2998 -68.8955 115.7 -68.8955
c31.0547 0 67.1465 4.70898 106.419 26.7686c4.8457 -17.085 6.03125 -33.7812 6.03125 -46.0264c0 -60.5996 -42.9004 -93.5996 -123.5 -93.5996h-16.25v-24.5996l130 -142.801h-174.2v200.4c0 35.4004 22.75 42 52 42h5.2002v27h-115.051l-9.75 -52.2002h-2.59961
c-19.5 35.4004 -49.4004 58.2002 -100.1 58.2002c-85.1504 0 -132.601 -51 -132.601 -166.2c0 -115.8 47.4502 -167.399 132.601 -167.399c49.3994 0 79.2998 20.3994 98.1494 50.3994h3.90039c0 -3 -3.25 -50.3994 -3.25 -66v-46.2002
c0 -34.1992 -24.7002 -39.5996 -53.2998 -39.5996h-5.2002v-27h130v134.4h241.149v34.1992l-141.05 152.4c89.0498 4.7998 157.3 39 157.3 127.2c0 32.3711 -9.36426 61.2695 -26.75 84.9404c16.8047 15.918 33.9951 35.5479 51.4502 59.7168l-31.2002 19.7998
c-15.5752 -21.5664 -30.7246 -39.1221 -45.2793 -53.4062c-31.8379 25.7441 -77.2002 40.749 -132.82 40.749c-83.2002 0 -117 -32.0146 -117 -64.2471zM330.85 471.553c0 21.0195 24.7002 34.2471 77.3506 34.2471c48.5469 0 76.4199 -19.207 92.2695 -43.4209
c-38.7715 -24.8799 -70.9492 -27.9219 -92.2695 -27.9219c-50.7002 0 -77.3506 15.1289 -77.3506 37.0957z" />
</svg>
