<?xml version="1.0" standalone="no"?>
<!DOCTYPE svg PUBLIC "-//W3C//DTD SVG 1.1//EN" "http://www.w3.org/Graphics/SVG/1.1/DTD/svg11.dtd" >
<svg xmlns="http://www.w3.org/2000/svg" xmlns:xlink="http://www.w3.org/1999/xlink" version="1.1" viewBox="-19 0 640 1000">
   <path fill="currentColor"
d="M293 810q-62 0 -90 -31t-28 -89q0 -36 21.5 -90t55.5 -106q-43 -69 -93 -112.5t-95 -43.5q-20 0 -29 7t-14 19q-9 -5 -19.5 -14.5t-10.5 -26.5q0 -28 24.5 -48.5t76.5 -20.5q68 0 127.5 40.5t103.5 102.5q51 -62 106.5 -102.5t107.5 -40.5q33 0 53.5 16.5t20.5 44.5
q0 13 -4 25t-11 18q-25 -31 -61 -31q-46 0 -93 33t-88 84q30 52 48.5 110t18.5 109q0 68 -35 107.5t-93 39.5zM274 757q19 0 30 -15t11 -55q0 -34 -9.5 -71t-24.5 -69q-21 37 -34 76t-13 69q0 33 11 49t29 16z" />
</svg>
