<?xml version="1.0" standalone="no"?>
<!DOCTYPE svg PUBLIC "-//W3C//DTD SVG 1.1//EN" "http://www.w3.org/Graphics/SVG/1.1/DTD/svg11.dtd" >
<svg xmlns="http://www.w3.org/2000/svg" xmlns:xlink="http://www.w3.org/1999/xlink" version="1.1" viewBox="-19 0 453 1000">
   <path fill="currentColor"
d="M-9 1040v-51h10q38 0 63 -16.5t38 -56.5t13 -109v-7v-221h-101v-50h101v-264v-18q0 -112 47.5 -162t134.5 -50q61 0 94 25t33 60q0 26 -20 44t-66 18q0 -41 -12.5 -69.5t-42.5 -28.5q-31 0 -45 24t-14 92v329h102v50h-102v228q0 90 -27.5 140.5t-76 71.5t-109.5 21h-20z
" />
</svg>
