<?xml version="1.0" standalone="no"?>
<!DOCTYPE svg PUBLIC "-//W3C//DTD SVG 1.1//EN" "http://www.w3.org/Graphics/SVG/1.1/DTD/svg11.dtd" >
<svg xmlns="http://www.w3.org/2000/svg" xmlns:xlink="http://www.w3.org/1999/xlink" version="1.1" viewBox="-10 0 587 1000">
   <path fill="currentColor"
d="M535 74q-68 0 -111.5 25t-70 68t-42.5 99l184 437q13 30 27.5 40t41.5 10h3v47h-252v-45h3q60 0 60 -45q0 -16 -9 -38l-72 -179q-14 -35 -26 -73t-16 -61q-6 26 -16.5 56t-18.5 54l-67 195q-9 24 -9 44q0 47 67 47h3v45h-213v-45h3q29 0 44.5 -15.5t31.5 -61.5l152 -417
q26 -73 50 -119t54 -72t74.5 -36t113.5 -10h11v50z" />
</svg>
