<?xml version="1.0" standalone="no"?>
<!DOCTYPE svg PUBLIC "-//W3C//DTD SVG 1.1//EN" "http://www.w3.org/Graphics/SVG/1.1/DTD/svg11.dtd" >
<svg xmlns="http://www.w3.org/2000/svg" xmlns:xlink="http://www.w3.org/1999/xlink" version="1.1" viewBox="-10 0 577 1000">
   <path fill="currentColor"
d="M293 810q-122 0 -181 -71.5t-59 -207.5q0 -130 58.5 -204t184.5 -74q93 0 147 38t54 103q0 44 -27.5 75.5t-73.5 45.5v5q53 12 85.5 41t32.5 83q0 46 -23.5 83.5t-72.5 60t-125 22.5zM294 756q53 0 81 -28.5t28 -84.5q0 -50 -29.5 -73t-81.5 -23h-46v-57h47
q48 0 71.5 -27t23.5 -67q0 -39 -23.5 -64t-70.5 -25q-41 0 -69.5 19t-43.5 67.5t-15 137.5q0 112 28 168.5t100 56.5z" />
</svg>
