<?xml version="1.0" standalone="no"?>
<!DOCTYPE svg PUBLIC "-//W3C//DTD SVG 1.1//EN" "http://www.w3.org/Graphics/SVG/1.1/DTD/svg11.dtd" >
<svg xmlns="http://www.w3.org/2000/svg" xmlns:xlink="http://www.w3.org/1999/xlink" version="1.1" viewBox="-10 0 630 1000">
   <path fill="currentColor"
d="M79 361q-11 -31 -27.5 -41.5t-48.5 -10.5v-45h266v45h-21q-52 0 -52 44q0 9 2.5 18.5t5.5 20.5l68 189q12 33 24 73.5t16 65.5h3q10 -38 19.5 -74.5t23 -85t33.5 -121.5q17 -58 35 -98.5t46.5 -61.5t74.5 -21q31 0 47 15t16 36q0 16 -8.5 29.5t-24.5 20.5
q-8 -12 -17.5 -20t-23.5 -8q-31 0 -48.5 29t-36.5 93l-108 347h-103z" />
</svg>
