<?xml version="1.0" encoding="UTF-8" standalone="no"?>
<svg
   version="1.1"
   viewBox="-10 0 574 1000"
   id="svg1"
   sodipodi:docname="55_75.svg"
   inkscape:version="1.4 (86a8ad7, 2024-10-11)"
   xmlns:inkscape="http://www.inkscape.org/namespaces/inkscape"
   xmlns:sodipodi="http://sodipodi.sourceforge.net/DTD/sodipodi-0.dtd"
   xmlns="http://www.w3.org/2000/svg"
   xmlns:svg="http://www.w3.org/2000/svg">
  <defs
     id="defs1">
    <rect
       x="36.326366"
       y="156.81383"
       width="22.812708"
       height="24.25656"
       id="rect28" />
  </defs>
  <sodipodi:namedview
     id="namedview1"
     pagecolor="#ffffff"
     bordercolor="#666666"
     borderopacity="1.0"
     inkscape:showpageshadow="2"
     inkscape:pageopacity="0.0"
     inkscape:pagecheckerboard="0"
     inkscape:deskcolor="#d1d1d1"
     inkscape:zoom="0.3775"
     inkscape:cx="311.25828"
     inkscape:cy="464.90066"
     inkscape:window-width="1680"
     inkscape:window-height="998"
     inkscape:window-x="-8"
     inkscape:window-y="-8"
     inkscape:window-maximized="1"
     inkscape:current-layer="svg1"
     showguides="true"
     showgrid="false">
    <sodipodi:guide
       position="0,200.0001"
       orientation="0,1"
       id="guide1"
       inkscape:locked="false"
       inkscape:label=""
       inkscape:color="rgb(0,134,229)" />
    <sodipodi:guide
       position="0,736"
       orientation="0,1"
       id="guide2"
       inkscape:locked="false"
       inkscape:label=""
       inkscape:color="rgb(0,134,229)" />
    <sodipodi:guide
       position="0,746"
       orientation="0,1"
       id="guide3"
       inkscape:label=""
       inkscape:locked="false"
       inkscape:color="rgb(0,134,229)" />
    <sodipodi:guide
       position="0,990"
       orientation="0,1"
       id="guide23"
       inkscape:label=""
       inkscape:locked="false"
       inkscape:color="rgb(0,134,229)" />
    <sodipodi:guide
       position="0,190.0001"
       orientation="0,1"
       id="guide25"
       inkscape:label=""
       inkscape:locked="false"
       inkscape:color="rgb(0,134,229)" />
    <sodipodi:guide
       position="574,637.54924"
       orientation="-1,0"
       id="guide28"
       inkscape:label=""
       inkscape:locked="false"
       inkscape:color="rgb(0,134,229)" />
    <sodipodi:guide
       position="0,240.0001"
       orientation="0,1"
       id="guide29"
       inkscape:label=""
       inkscape:locked="false"
       inkscape:color="rgb(0,134,229)" />
    <sodipodi:guide
       position="0,940"
       orientation="0,1"
       id="guide31"
       inkscape:label=""
       inkscape:locked="false"
       inkscape:color="rgb(0,134,229)" />
    <sodipodi:guide
       position="484,637.54924"
       orientation="-1,0"
       id="guide12"
       inkscape:label=""
       inkscape:locked="false"
       inkscape:color="rgb(0,134,229)" />
    <sodipodi:guide
       position="110,1000"
       orientation="-1,0"
       id="guide19"
       inkscape:label=""
       inkscape:locked="false"
       inkscape:color="rgb(0,134,229)" />
    <sodipodi:guide
       position="20,1000"
       orientation="-1,0"
       id="guide20"
       inkscape:label=""
       inkscape:locked="false"
       inkscape:color="rgb(0,134,229)" />
    <sodipodi:guide
       position="80,1000"
       orientation="-1,0"
       id="guide21"
       inkscape:label=""
       inkscape:locked="false"
       inkscape:color="rgb(0,134,229)" />
    <sodipodi:guide
       position="229.13907,180.7947"
       orientation="0,-1"
       id="guide22"
       inkscape:locked="false" />
    <sodipodi:guide
       position="229.13907,130.7947"
       orientation="0,1"
       id="guide24"
       inkscape:label=""
       inkscape:locked="false"
       inkscape:color="rgb(0,134,229)" />
    <sodipodi:guide
       position="0,696"
       orientation="0,1"
       id="guide4"
       inkscape:label=""
       inkscape:locked="false"
       inkscape:color="rgb(0,134,229)" />
    <sodipodi:guide
       position="228.35859,315.72509"
       orientation="0.99843734,0.05588273"
       id="guide5"
       inkscape:locked="false" />
    <sodipodi:guide
       position="292.76054,341.58992"
       orientation="-0.99843734,0.055882697"
       id="guide6"
       inkscape:locked="false" />
    <sodipodi:guide
       position="-60,1000"
       orientation="-1,0"
       id="guide7"
       inkscape:label=""
       inkscape:locked="false"
       inkscape:color="rgb(0,134,229)" />
    <sodipodi:guide
       position="155.49669,1000"
       orientation="-1,0"
       id="guide8"
       inkscape:locked="false"
       inkscape:label=""
       inkscape:color="rgb(0,134,229)" />
    <sodipodi:guide
       position="-80,1000"
       orientation="-1,0"
       id="guide9"
       inkscape:label=""
       inkscape:locked="false"
       inkscape:color="rgb(0,134,229)" />
    <sodipodi:guide
       position="0,1000"
       orientation="-1,0"
       id="guide10"
       inkscape:label=""
       inkscape:locked="false"
       inkscape:color="rgb(0,134,229)" />
    <sodipodi:guide
       position="59.78183,493.02283"
       orientation="1,0"
       id="guide11"
       inkscape:locked="false" />
  </sodipodi:namedview>
  <path
     style="fill:#e66100;stroke:none;stroke-width:1px;stroke-linecap:butt;stroke-linejoin:miter;stroke-opacity:1"
     d="m 219.08472,697.24839 c 5.02697,95.02862 82.76776,139.97486 144.87469,139.97486 C 522.0784,837.22325 564,626.59146 564,484.27082 564,134.67233 413.17271,10 223.20476,10 104.60269,10 63.316467,32.637253 4.0703379,84.238382 L 26.564439,102.90491 C 66.919887,71.948396 103.8213,60 223.20476,60 342.58821,60 474,164.72398 474,485.01342 c 0,103.6265 8.04304,301.78904 -102.54748,301.78904 -49.02794,0 -94.98588,-14.19296 -90.06312,-103.89471 z"
     id="path25"
     sodipodi:nodetypes="cssscczsscc" />
  <text
     xml:space="preserve"
     transform="translate(-10)"
     id="text28"
     style="font-size:8px;line-height:1.25;font-family:Ubuntu;-inkscape-font-specification:Ubuntu;text-align:center;letter-spacing:0px;word-spacing:0px;white-space:pre;shape-inside:url(#rect28);display:inline" />
  <path
     style="fill:#1a5fb4;stroke:none;stroke-width:1px;stroke-linecap:butt;stroke-linejoin:miter;stroke-opacity:1"
     d="m 224.83574,799.9999 -30,-535.9999 h 110 l -30,535.9999 z"
     id="use21"
     sodipodi:nodetypes="ccccc" />
  <path
     style="fill:#c061cb;stroke:none;stroke-width:1px;stroke-linecap:butt;stroke-linejoin:miter;stroke-opacity:1"
     d="M 231.05961,315.25828 C 185.36423,274.17218 118.26302,254 60,254 1.736977,254 -70,300.72202 -70,382.529 c 0,81.80698 56.503851,119.24429 109.78183,124.44817 v 6.71069 C -13.289213,520.23338 -90,566.38523 -90,656.483 c 0,90.09777 94.701985,153.5169 150,153.5169 55.29801,0 104.83444,-19.27142 143.24504,-54.37076 l -9.96706,-19.03362 C 153.58347,755.58528 116.59837,759.9999 78.24217,759.9999 39.885973,759.9999 -10,724.7282 -10,651.21827 -10,577.70833 39.516929,539.2295 145.49669,525.32222 V 495.24088 C 49.78183,479.67796 10,449.77275 10,391.0596 10,332.34645 45.724265,304 99.27152,304 c 50.89825,0 78.80795,4.60927 121.19206,35.07285 z"
     id="path6"
     sodipodi:nodetypes="czzcczzcczzcczscc" />
  <path
     style="fill:#1a5fb4;stroke:none;stroke-width:1px;stroke-linecap:butt;stroke-linejoin:miter;stroke-opacity:1"
     d="M 1781.6406,799.9999 1895.2614,264 h 110 l -173.6208,535.9999 z"
     id="path5"
     sodipodi:nodetypes="ccccc" />
  <path
     style="fill:#c061cb;stroke:none;stroke-width:1px;stroke-linecap:butt;stroke-linejoin:miter;stroke-opacity:1"
     d="M 1917.7506,315.25828 C 1883.0642,274.17218 1821.3682,254 1763.1052,254 c -58.2631,0 -142.5192,46.72202 -164.4393,128.529 -21.9201,81.80698 24.5524,119.24429 76.436,124.44817 l -1.7981,6.71069 c -54.825,6.54552 -143.902,52.69737 -168.0436,142.79514 -24.1417,90.09777 53.5671,153.5169 108.8652,153.5169 55.298,0 109.9982,-19.27142 157.8136,-54.37076 l -4.867,-19.03362 c -44.7828,18.98976 -82.9508,23.40438 -121.307,23.40438 -38.3562,0 -78.7911,-35.2717 -59.0942,-108.78163 19.697,-73.50994 79.5242,-111.98877 189.2304,-125.89605 l 8.0603,-30.08134 C 1692.4167,479.67796 1660.648,449.77275 1676.3802,391.0596 1692.1123,332.34645 1735.4319,304 1788.9792,304 c 50.8982,0 77.5729,4.60927 111.7943,35.07285 z"
     id="path7"
     sodipodi:nodetypes="czzcczzcczzcczscc" />
  <path
     style="fill:#e66100;stroke:none;stroke-width:1px;stroke-linecap:butt;stroke-linejoin:miter;stroke-opacity:1"
     d="m 937.81695,697.24839 c -20.43584,95.02862 45.26165,139.97486 107.36855,139.97486 158.119,0 256.4792,-210.63179 294.6139,-352.95243 C 1433.4741,134.67233 1316.0526,10 1126.0846,10 1007.4826,10 960.13072,32.637253 887.05811,84.238382 l 17.49242,18.666528 C 953.20075,71.948396 993.30372,60 1112.6871,60 c 119.3835,0 222.7346,104.72398 136.9133,425.01342 -27.7666,103.6265 -72.8211,301.78904 -183.4116,301.78904 -49.0279,0 -91.1829,-14.19296 -62.2246,-103.89471 z"
     id="path13"
     sodipodi:nodetypes="cssscczsscc" />
  <path
     style="fill:#1a5fb4;stroke:none;stroke-width:1px;stroke-linecap:butt;stroke-linejoin:miter;stroke-opacity:1"
     d="M 937.81695,697.24839 1029.6565,264 h 110 l -135.6923,418.90775 z"
     id="path14"
     sodipodi:nodetypes="ccccc" />
  <path
     style="fill:#c061cb;stroke:none;stroke-width:1px;stroke-linecap:butt;stroke-linejoin:miter;stroke-opacity:1"
     d="M 1052.1458,315.25828 C 1017.4594,274.17218 955.7633,254 897.50028,254 c -58.26302,0 -142.51913,46.72202 -164.43924,128.529 -21.92012,81.80698 24.55243,119.24429 76.43604,124.44817 l -1.79812,6.71069 c -54.82491,6.54552 -143.90205,52.69737 -168.04368,142.79514 -24.14162,90.09777 53.56725,153.5169 108.86527,153.5169 55.29801,0 109.99821,-19.27142 157.81364,-54.37076 l -4.86701,-19.03362 c -44.7828,18.98976 -82.9508,23.40438 -121.307,23.40438 -38.3562,0 -78.79114,-35.2717 -59.09422,-108.78163 19.69693,-73.50994 79.52423,-111.98877 189.23044,-125.89605 l 8.06027,-30.08134 C 826.81188,479.67796 795.04313,449.77275 810.77527,391.0596 826.50741,332.34645 869.82708,304 923.37434,304 c 50.89825,0 77.57286,4.60927 111.79436,35.07285 z"
     id="path15"
     sodipodi:nodetypes="czzcczzcczzcczscc" />
</svg>
