<?xml version="1.0" encoding="UTF-8" standalone="no"?>
<svg
   version="1.1"
   viewBox="-10 0 574 1000"
   id="svg1"
   sodipodi:docname="57_77.svg"
   inkscape:version="1.4 (86a8ad7, 2024-10-11)"
   xmlns:inkscape="http://www.inkscape.org/namespaces/inkscape"
   xmlns:sodipodi="http://sodipodi.sourceforge.net/DTD/sodipodi-0.dtd"
   xmlns="http://www.w3.org/2000/svg"
   xmlns:svg="http://www.w3.org/2000/svg">
  <defs
     id="defs1">
    <rect
       x="36.326366"
       y="156.81383"
       width="22.812708"
       height="24.25656"
       id="rect28" />
  </defs>
  <sodipodi:namedview
     id="namedview1"
     pagecolor="#ffffff"
     bordercolor="#666666"
     borderopacity="1.0"
     inkscape:showpageshadow="2"
     inkscape:pageopacity="0.0"
     inkscape:pagecheckerboard="0"
     inkscape:deskcolor="#d1d1d1"
     inkscape:zoom="0.53386562"
     inkscape:cx="892.54671"
     inkscape:cy="302.51058"
     inkscape:window-width="1680"
     inkscape:window-height="998"
     inkscape:window-x="-8"
     inkscape:window-y="-8"
     inkscape:window-maximized="1"
     inkscape:current-layer="svg1"
     showguides="true">
    <sodipodi:guide
       position="0,200.0001"
       orientation="0,1"
       id="guide1"
       inkscape:locked="false"
       inkscape:label=""
       inkscape:color="rgb(0,134,229)" />
    <sodipodi:guide
       position="0,736"
       orientation="0,1"
       id="guide2"
       inkscape:locked="false"
       inkscape:label=""
       inkscape:color="rgb(0,134,229)" />
    <sodipodi:guide
       position="0,746"
       orientation="0,1"
       id="guide3"
       inkscape:label=""
       inkscape:locked="false"
       inkscape:color="rgb(0,134,229)" />
    <sodipodi:guide
       position="390.54772,406.21762"
       orientation="0,-1"
       id="guide4"
       inkscape:locked="false" />
    <sodipodi:guide
       position="0,645.97833"
       orientation="-1,0"
       id="guide5"
       inkscape:locked="false" />
    <sodipodi:guide
       position="0,696"
       orientation="0,1"
       id="guide10"
       inkscape:label=""
       inkscape:locked="false"
       inkscape:color="rgb(0,134,229)" />
    <sodipodi:guide
       position="169.88995,746.00002"
       orientation="-1,0"
       id="guide13"
       inkscape:label=""
       inkscape:locked="false"
       inkscape:color="rgb(0,134,229)" />
    <sodipodi:guide
       position="390.54772,456.21762"
       orientation="0,1"
       id="guide16"
       inkscape:label=""
       inkscape:locked="false"
       inkscape:color="rgb(0,134,229)" />
    <sodipodi:guide
       position="139.88995,746.00002"
       orientation="-1,0"
       id="guide18"
       inkscape:label=""
       inkscape:locked="false"
       inkscape:color="rgb(0,134,229)" />
    <sodipodi:guide
       position="199.88995,746.00002"
       orientation="-1,0"
       id="guide19"
       inkscape:label=""
       inkscape:locked="false"
       inkscape:color="rgb(0,134,229)" />
    <sodipodi:guide
       position="0,990"
       orientation="0,1"
       id="guide23"
       inkscape:label=""
       inkscape:locked="false"
       inkscape:color="rgb(0,134,229)" />
    <sodipodi:guide
       position="0,190.0001"
       orientation="0,1"
       id="guide25"
       inkscape:label=""
       inkscape:locked="false"
       inkscape:color="rgb(0,134,229)" />
    <sodipodi:guide
       position="574,637.54924"
       orientation="-1,0"
       id="guide28"
       inkscape:label=""
       inkscape:locked="false"
       inkscape:color="rgb(0,134,229)" />
    <sodipodi:guide
       position="0,240.0001"
       orientation="0,1"
       id="guide29"
       inkscape:label=""
       inkscape:locked="false"
       inkscape:color="rgb(0,134,229)" />
    <sodipodi:guide
       position="0,940"
       orientation="0,1"
       id="guide31"
       inkscape:label=""
       inkscape:locked="false"
       inkscape:color="rgb(0,134,229)" />
    <sodipodi:guide
       position="339.78238,576.10883"
       orientation="1,0"
       id="guide6"
       inkscape:locked="false" />
    <sodipodi:guide
       position="254.78238,576.10883"
       orientation="-1,0"
       id="guide7"
       inkscape:label=""
       inkscape:locked="false"
       inkscape:color="rgb(0,134,229)" />
    <sodipodi:guide
       position="85,645.97833"
       orientation="-1,0"
       id="guide8"
       inkscape:label=""
       inkscape:locked="false"
       inkscape:color="rgb(0,134,229)" />
    <sodipodi:guide
       position="114.88995,746.00002"
       orientation="-1,0"
       id="guide9"
       inkscape:label=""
       inkscape:locked="false"
       inkscape:color="rgb(0,134,229)" />
    <sodipodi:guide
       position="224.88995,746.00002"
       orientation="-1,0"
       id="guide11"
       inkscape:label=""
       inkscape:locked="false"
       inkscape:color="rgb(0,134,229)" />
    <sodipodi:guide
       position="484,637.54924"
       orientation="-1,0"
       id="guide12"
       inkscape:label=""
       inkscape:locked="false"
       inkscape:color="rgb(0,134,229)" />
  </sodipodi:namedview>
  <path
     fill="currentColor"
     d="m -481.68953,347.19979 q -21.5996,-17.5498 -47.9248,-17.5498 -26.3252,0 -49.2754,21.5996 -22.9492,21.5996 -29.6992,33.4121 -6.75,11.8125 -6.75,57.375 0,45.5625 20.25,74.5879 20.25,29.0254 63.5615,29.0254 43.3135,0 66.1504,-37.8008 22.8379,-37.7998 22.8379,-66.1494 0,-55.3506 -39.1504,-94.5 z m -139.05,-83.025 q 14.8496,-6.0752 30.375,-11.4746 15.5254,-5.40039 53.3252,-5.40039 103.95,0 160.6491,56.7002 28.3506,25.6504 42.5254,70.2002 14.1748,44.5498 14.1748,68.8496 0,24.2998 -11.4746,48.6006 -11.4756,24.2998 -11.4756,33.0742 0,8.77539 -28.3496,37.125 -28.3497,28.3506 -63.4503,45.2256 -35.0996,16.875 -61.4248,16.875 -26.3252,0 -26.3252,25.6494 0,40.5 28.3506,76.2754 28.3496,35.7754 28.3496,64.7998 0,29.0254 -21.5996,64.125 l -20.25,35.1006 h -37.8008 q -41.8496,0 -41.8496,-10.8008 0,-4.0498 8.7754,-22.9492 8.7744,-18.9004 8.7744,-54.6758 0,-35.7744 -8.0996,-49.2744 -40.5,-71.5498 -40.5,-97.2002 v -6.75 q 0,-25.6504 -12.1504,-36.4502 -13.5,-10.7998 -20.9248,-10.7998 -7.4248,0 -41.1748,-36.4502 -33.75,-36.4502 -33.75,-43.875 0,-7.4248 -10.79978,-27 -10.8008,-19.5752 -10.8008,-46.5752 0,-82.3496 60.74998,-143.1 28.3506,-28.3496 39.8252,-31.0498 11.4756,-2.7002 26.3252,-8.77539 z"
     id="path1" />
  <circle
     style="fill:#006a4e;stroke-width:2;stroke-linecap:round;stroke-linejoin:round"
     id="path2"
     cx="159.89119"
     cy="423.89117"
     r="169.89119" />
  <ellipse
     style="fill:#ffffff;stroke-width:2.00001;stroke-linecap:round;stroke-linejoin:round"
     id="path11"
     cx="159.89119"
     cy="423.8912"
     rx="84.89119"
     ry="119.89119" />
  <path
     style="fill:#c01c28;stroke:none;stroke-width:1px;stroke-linecap:butt;stroke-linejoin:miter;stroke-opacity:1"
     d="m 104.88995,799.9999 24.99834,-208.88779 60.00331,4.5e-4 24.99835,208.88734 z"
     id="path15"
     sodipodi:nodetypes="ccccc" />
  <path
     style="fill:#e66100;stroke:none;stroke-width:1px;stroke-linecap:butt;stroke-linejoin:miter;stroke-opacity:1"
     d="m 109.88995,799.9999 c 25.3397,6.06831 96.15575,10 159.67479,10 C 412.39094,809.9999 564,632.20254 564,404.66276 564,177.12298 413.17271,10 223.20476,10 104.60269,10 63.316467,32.637253 4.0703379,84.238382 L 26.564439,102.90491 C 66.919887,71.948396 103.8213,60 223.20476,60 342.58821,60 474,206.34362 474,405.40536 474,604.4671 375.0346,775.01071 210.103,759.9999 Z"
     id="path25"
     sodipodi:nodetypes="cszscczzcc" />
  <text
     xml:space="preserve"
     transform="translate(-10)"
     id="text28"
     style="font-size:8px;line-height:1.25;font-family:Ubuntu;-inkscape-font-specification:Ubuntu;text-align:center;letter-spacing:0px;word-spacing:0px;white-space:pre;shape-inside:url(#rect28);display:inline" />
  <ellipse
     style="fill:#006a4e;stroke-width:2.03497;stroke-linecap:round;stroke-linejoin:round"
     id="circle12"
     cx="1000.9066"
     cy="438.84442"
     rx="169.89119"
     ry="175.88431"
     transform="matrix(1,0,-0.25881905,0.96592583,0,0)" />
  <ellipse
     style="fill:#ffffff;stroke-width:2.03498;stroke-linecap:round;stroke-linejoin:round"
     id="ellipse12"
     cx="1000.9066"
     cy="438.84448"
     rx="84.89119"
     ry="124.12049"
     transform="matrix(1,0,-0.25881905,0.96592583,0,0)" />
  <path
     style="fill:#c01c28;stroke:none;stroke-width:1px;stroke-linecap:butt;stroke-linejoin:miter;stroke-opacity:1"
     d="m 731.54609,799.9999 80.96965,-208.88779 60.00319,4.5e-4 -30.97284,208.88734 z"
     id="path12"
     sodipodi:nodetypes="ccccc" />
  <ellipse
     style="fill:#006a4e;stroke-width:2.03497;stroke-linecap:round;stroke-linejoin:round"
     id="circle17"
     cx="1466.6808"
     cy="438.84442"
     rx="169.89119"
     ry="175.88431"
     transform="matrix(1,0,-0.25881905,0.96592583,0,0)" />
  <ellipse
     style="fill:#ffffff;stroke-width:2.03498;stroke-linecap:round;stroke-linejoin:round"
     id="ellipse17"
     cx="1466.6808"
     cy="438.84448"
     rx="84.89119"
     ry="124.12049"
     transform="matrix(1,0,-0.25881905,0.96592583,0,0)" />
  <path
     style="fill:#c01c28;stroke:none;stroke-width:1px;stroke-linecap:butt;stroke-linejoin:miter;stroke-opacity:1"
     d="m 1197.3202,799.9999 80.9696,-208.88779 60.0032,4.5e-4 -30.9728,208.88734 z"
     id="path17"
     sodipodi:nodetypes="ccccc" />
  <path
     style="fill:#e66100;stroke:none;stroke-width:1px;stroke-linecap:butt;stroke-linejoin:miter;stroke-opacity:1"
     d="m 1202.3202,799.9999 c 23.7137,6.06831 93.4762,10 156.9953,10 142.8262,0 342.0759,-177.79736 403.045,-405.33714 C 1823.3296,177.12298 1717.2828,10 1527.3149,10 c -118.6021,0 -165.954,22.637253 -239.0266,74.238382 l 17.4925,18.666528 C 1354.4309,71.948396 1394.5339,60 1513.9174,60 c 119.3834,0 211.5825,146.34362 158.2441,345.40536 -53.3384,199.06174 -198.0008,369.60535 -358.9103,354.59454 z"
     id="path18"
     sodipodi:nodetypes="cszscczzcc" />
</svg>
