<?xml version="1.0" standalone="no"?>
<!DOCTYPE svg PUBLIC "-//W3C//DTD SVG 1.1//EN" "http://www.w3.org/Graphics/SVG/1.1/DTD/svg11.dtd" >
<svg xmlns="http://www.w3.org/2000/svg" xmlns:xlink="http://www.w3.org/1999/xlink" version="1.1" viewBox="-10 0 574 1000">
   <path fill="currentColor"
d="M334.8 377.45q-21.5996 -17.5498 -47.9248 -17.5498t-49.2754 21.5996q-22.9492 21.5996 -29.6992 33.4121t-6.75 57.375t20.25 74.5879t63.5615 29.0254q43.3135 0 66.1504 -37.8008q22.8379 -37.7998 22.8379 -66.1494q0 -55.3506 -39.1504 -94.5zM195.75 294.425
q14.8496 -6.0752 30.375 -11.4746q15.5254 -5.40039 53.3252 -5.40039q103.95 0 160.649 56.7002q28.3506 25.6504 42.5254 70.2002t14.1748 68.8496t-11.4746 48.6006q-11.4756 24.2998 -11.4756 33.0742q0 8.77539 -28.3496 37.125q-28.3496 28.3506 -63.4502 45.2256
q-35.0996 16.875 -61.4248 16.875t-26.3252 25.6494q0 40.5 28.3506 76.2754q28.3496 35.7754 28.3496 64.7998q0 29.0254 -21.5996 64.125l-20.25 35.1006h-37.8008q-41.8496 0 -41.8496 -10.8008q0 -4.0498 8.77539 -22.9492q8.77441 -18.9004 8.77441 -54.6758
q0 -35.7744 -8.09961 -49.2744q-40.5 -71.5498 -40.5 -97.2002v-6.75q0 -25.6504 -12.1504 -36.4502q-13.5 -10.7998 -20.9248 -10.7998t-41.1748 -36.4502t-33.75 -43.875t-10.7998 -27q-10.8008 -19.5752 -10.8008 -46.5752q0 -82.3496 60.75 -143.1
q28.3506 -28.3496 39.8252 -31.0498q11.4756 -2.7002 26.3252 -8.77539z" />
</svg>
