<?xml version="1.0" standalone="no"?>
<!DOCTYPE svg PUBLIC "-//W3C//DTD SVG 1.1//EN" "http://www.w3.org/Graphics/SVG/1.1/DTD/svg11.dtd" >
<svg xmlns="http://www.w3.org/2000/svg" xmlns:xlink="http://www.w3.org/1999/xlink" version="1.1" viewBox="-10 0 1029 1000">
   <path fill="currentColor"
d="M478.73 626.063q0 -9.33887 -7.35352 -9.33887q-7.35547 0 -13.1797 7.01758t-5.82422 20.7627t8.03906 13.7451q8.03809 0 13.1777 -11.4238q5.14062 -11.4219 5.14062 -20.7627zM307.8 617.75q0 -6.75 -8.61914 -27.6025t-17.4463 -20.8525
q-8.82617 0 -32.5557 40.4277q-23.7285 40.4277 -23.7285 47.1777t-6.0752 6.75t-6.0752 4.28027q0 4.2793 2.07129 4.2793t10.125 -6.97949q8.05371 -6.98047 16.8291 -6.98047q8.77441 0 37.125 -16.875q28.3496 -16.875 28.3496 -23.625zM660.15 349.1
q27 0 37.6133 8.74121q10.6143 8.74219 10.6143 12.5137q0 3.77344 -2.32812 20.5957q0 5.39941 7.4248 5.39941q7.42578 0 26.3252 -13.5q49.9502 -31.0498 85.0498 -91.7998q13.5 -24.2998 16.2002 -37.7998t2.7002 -66.8252t-2.02539 -65.4746
q-2.02441 -12.1504 -15.5244 -27q-43.2002 -48.6006 -133.65 -48.6006q-51.2998 0 -69.5244 12.8252q-18.2256 12.8252 -18.2256 26.3252t33.75 46.5752t33.75 53.3252q0 16.1992 -22.9502 20.25q-22.9492 4.0498 -29.6992 4.0498q-78.3008 0 -106.65 -83.7002
q-8.09961 -25.6504 -8.09961 -35.0996q0 -9.4502 4.0498 -18.9004q37.9502 -93.1504 191.159 -93.1504q95.041 0 124.74 20.25q9.4502 8.10059 19.5752 8.10059t45.2256 29.7002q35.0996 29.6992 47.25 46.5742q12.1494 16.875 12.1494 54.6758v37.7998
q0 58.0498 -6.75 79.6494q-6.75 21.6006 -39.1494 71.5508q-32.4004 49.9492 -105.976 110.699t-131.646 88.4619q-58.0713 27.7109 -74.25 56.0254q-16.1797 28.3135 -22.2539 35.7383q-6.0752 7.4248 -49.2754 83.7002q-43.2002 76.2744 -53.3252 87.75
q-10.125 11.4746 -29.0244 11.4746h-2.7002q-16.2002 0 -21.6006 -3.375q-5.39941 -3.375 -33.5732 -57.375q-28.1748 -54 -39.1494 -54q-10.9766 0 -75.7773 32.4004q-64.7998 32.3994 -90.4492 47.9248q-25.6504 15.5244 -65.4756 15.5244t-39.8252 -15.5244
q0 -15.5254 27.6758 -55.3506q27.6748 -39.8242 27.6748 -41.1748q0 -1.34961 76.9502 -120.149q0 -4.05078 39.8242 -62.1006q39.8252 -58.0498 45.9004 -62.0996t20.9248 -4.0498q14.8506 0 25.6504 10.7998t39.1494 63.4502q28.3506 52.6494 33.75 60.0742
q5.40039 7.42578 17.5508 7.42578q12.1494 0 20.25 -5.40039q8.09961 -5.40039 52.6494 -29.7002q59.4004 -31.0498 74.25 -82.3496q4.0498 -9.4502 12.8252 -23.625t11.4746 -23.625q10.8008 -37.7998 35.1006 -47.25q2.7002 -1.35059 29.7002 -1.35059z" />
</svg>
