<?xml version="1.0" encoding="UTF-8" standalone="no"?>
<svg
   version="1.1"
   viewBox="0 0 36 36"
   id="svg18"
   sodipodi:docname="1f1ec-1f1f6.svg"
   inkscape:version="1.4 (86a8ad7, 2024-10-11)"
   xmlns:inkscape="http://www.inkscape.org/namespaces/inkscape"
   xmlns:sodipodi="http://sodipodi.sourceforge.net/DTD/sodipodi-0.dtd"
   xmlns="http://www.w3.org/2000/svg"
   xmlns:svg="http://www.w3.org/2000/svg">
  <defs
     id="defs18" />
  <sodipodi:namedview
     id="namedview18"
     pagecolor="#ffffff"
     bordercolor="#666666"
     borderopacity="1.0"
     inkscape:showpageshadow="2"
     inkscape:pageopacity="0.0"
     inkscape:pagecheckerboard="0"
     inkscape:deskcolor="#d1d1d1"
     inkscape:zoom="29.659201"
     inkscape:cx="9.7608834"
     inkscape:cy="21.089577"
     inkscape:window-width="1680"
     inkscape:window-height="998"
     inkscape:window-x="-8"
     inkscape:window-y="-8"
     inkscape:window-maximized="1"
     inkscape:current-layer="svg18" />
  <path
     d="M 32,5 H 4 C 3.231636,5 2.5192495,5.224831 1.91,5.6 L 4,16 h 29 l 3,-3 V 9 C 36,6.79 34.21,5 32,5 Z"
     fill="#3e9a00"
     id="path2"
     sodipodi:nodetypes="ssccccss" />
  <path
     d="M 4,20 1.91,30.4 C 2.5194236,30.777185 3.2338656,31 4,31 h 28 c 2.21,0 4,-1.79 4,-4 v -4 l -3,-3 z"
     fill="#e32118"
     id="path1"
     sodipodi:nodetypes="ccsssccc" />
  <rect
     x="6"
     y="13"
     width="30"
     height="10"
     fill="#fff"
     id="rect1" />
  <path
     d="m7.33 13-5.42-7.4c-1.14 0.704-1.91 1.96-1.91 3.4v18c0 1.44 0.768 2.69 1.91 3.4l9.09-12.4-3.67-5z"
     fill="#0173CE"
     id="path3" />
  <path
     d="M18.443 15h-2.396v4.75c0 .969.547 1.125.828 1.125h.922c.578 0 .646.479.646.479s.068-.479.646-.479h.922c.281 0 .828-.156.828-1.125V15h-2.396z"
     id="path4" />
  <path
     d="M18.443 20.93c-.133-.141-.339-.255-.646-.255h-.922c-.188 0-.628-.09-.628-.925V15.2h4.392v4.55c0 .835-.439.925-.628.925h-.921c-.308 0-.514.114-.647.255z"
     fill="#FFF"
     id="path5" />
  <path
     d="M14.922 18.703s.249.438.562.734c.578.547-.352.984-.352.984s-.289-.188-.383-.406c-.093-.218.235-.874.173-1.312z"
     id="path6" />
  <path
     d="M15.148 20.185c-.085-.069-.179-.164-.215-.248-.015-.056.04-.273.077-.418.021-.078.041-.16.06-.243.082.104.176.213.276.308.143.135.129.22.125.248-.02.131-.189.27-.323.353z"
     fill="#FFF"
     id="path7" />
  <path
     d="m15.2 19.7s1e-3 0.776 0.767 1.08c0.943 0.376 1.59 0.22 1.67 0.251s0 0.797 0 0.797-1.04 0.172-1.97-0.266-0.877-0.782-0.829-0.876 0.11-0.161 0.155-0.405c0.042-0.227 0.202-0.582 0.202-0.582z"
     id="path8" />
  <path
     d="M17.134 21.692c-.357 0-.887-.048-1.374-.279-.668-.316-.75-.56-.735-.608.066-.115.122-.212.164-.414.128.229.343.462.706.607.452.181.913.271 1.37.271.082 0 .153-.002.211-.005.001.105-.007.262-.019.416-.082.007-.192.012-.323.012z"
     fill="#FFF"
     id="path9" />
  <path
     d="M21.965 18.703s-.249.438-.562.734c-.578.547.352.984.352.984s.289-.188.383-.406c.092-.218-.236-.874-.173-1.312z"
     id="path10" />
  <path
     d="M21.738 20.185c.085-.069.179-.164.215-.248.015-.056-.04-.273-.077-.418-.021-.078-.041-.16-.06-.243-.082.104-.176.213-.276.308-.143.135-.129.22-.125.248.02.131.189.27.323.353z"
     fill="#FFF"
     id="path11" />
  <path
     d="M21.685 19.73s-.001.776-.767 1.081c-.943.376-1.594.22-1.672.251-.078.031 0 .797 0 .797s1.043.172 1.967-.266.877-.782.829-.876c-.049-.094-.11-.161-.155-.405-.042-.227-.202-.582-.202-.582z"
     id="path12" />
  <path
     d="M19.753 21.692c.358 0 .887-.048 1.374-.279.668-.316.75-.56.735-.608-.066-.115-.122-.212-.164-.414-.128.229-.343.462-.706.607-.452.181-.913.271-1.37.271-.082 0-.153-.002-.211-.005-.001.105.007.262.02.416.081.007.191.012.322.012z"
     fill="#FFF"
     id="path13" />
  <path
     d="M19.715 21.354s-.012.338-1.271.338c-1.26 0-1.271-.338-1.271-.338s-.047.538 0 .755.375.344 1.271.344c.896 0 1.225-.127 1.271-.344.047-.216 0-.755 0-.755z"
     id="path14" />
  <path
     d="M18.443 22.253c-1.007 0-1.072-.167-1.076-.185-.015-.067-.018-.19-.016-.319.219.083.56.145 1.092.145.531 0 .873-.061 1.092-.145.002.13-.001.252-.016.319-.003.018-.069.185-1.076.185z"
     fill="#FFF"
     id="path15" />
  <path
     d="M17.854 13.476l.169.293h.339l-.17.293.17.294h-.339l-.169.293-.169-.293h-.339l.169-.294-.169-.293h.339zm-1.339.155l.23.248.33-.076-.099.324.231.248-.33.076-.099.324-.231-.248-.33.076.098-.324-.23-.248.33-.076zm-1.259.431l.273.201.31-.138-.037.338.274.199-.309.137-.036.337-.274-.2-.309.137.035-.336-.274-.2.31-.137zm3.862-.586l-.169.293h-.339l.17.293-.17.294h.339l.169.293.17-.293h.339l-.169-.294.169-.293h-.339zm1.34.155l-.23.248-.331-.076.1.324-.231.248.33.076.098.324.232-.248.33.076-.099-.324.231-.248-.33-.076zm1.259.431l-.274.201-.309-.138.037.338-.275.199.31.137.036.337.274-.2.309.137-.035-.336.273-.2-.309-.137z"
     fill="#FFD701"
     id="path16" />
  <path
     d="M18.443 20.625c-.6 0-.693-.219-.49-.688.203-.469.312-1.104.312-1.873 0-.768-.273-.94-.59-1.237-.316-.297.162-.188.384 0s.303.359.303.359v-.719l.248.078v.547s.36-.312.602-.344c.241-.031.382.156.069.25-.312.094-.671.255-.671 1.065 0 .81.124 1.654.28 1.951.157.298.153.611-.447.611z"
     fill="#A36629"
     id="path17" />
  <path
     d="M17.75 17.547c-.318.167-.543-.203-.543-.203s-.289.203-.561.062c-.271-.141-.229-.266 0-.391s.505-.156.505-.156.071-.344.194-.578c.123-.234.33-.328.33-.328s.252-.547.687-.578c.435-.031.435.422.435.422s.27 0 .322.156c.24-.25.662-.219.756-.109.094.109 0 .344 0 .344s.371-.109.451.016c.08.125 0 .286 0 .286s.299.058.158.386-.578.234-.578.234-.178.188-.37.172c-.192-.016-.255-.282-.255-.282s-.298.078-.484-.188c-.187.281-.531.125-.578.016-.047.36-.141.547-.469.719z"
     fill="#009A3B"
     id="path18" />
  <rect
     x="35.8"
     y="13"
     width=".2"
     height="10"
     style="fill:#77767b"
     id="rect2" />
</svg>
