<svg version="1.1" viewBox="0 0 36 36" xmlns="http://www.w3.org/2000/svg">
<rect x=".15" y="5.15" width="35.7" height="20.5" ry="3.85" fill="#fff" stroke="#9a9996" stroke-width=".3"/>
<g fill="#DA1C0B">
<path d="m36 27c0 2.21-1.79 4-4 4h-28c-2.21 0-4-1.79-4-4v-5h36v5z"/>
<path d="m14.5 10.4v0.779h-0.778v-0.779h-1.56v0.779h-0.779v-0.779h-0.778v1.56h0.778v3.89h3.11v-3.89h0.779v-1.56z"/>
<path d="M15.241 14.255v.779h-.779v-.779h-.778v.779h-1.557v-.779h-.779v.779h-.778v-.779h-.778v1.557-.001.001h.778v4.254l-.778.416v.779h6.227v-.779l-.778-.416v-4.254h.778v-1.557z"/>
</g>
<path d="m12.1 13.5h1.56v1.56h-1.56z"/>
<path d="M13.673 13.477c0 .43-.348.778-.778.778-.43 0-.778-.348-.778-.778 0-.43.348-.778.778-.778.43-.001.778.348.778.778zm0 4.903c0-.621-.157-1.125-.778-1.125s-.778.504-.778 1.125v1.325h1.557V18.38h-.001z"/>
<path d="M24.91 10.363v.779h-.778v-.779h-1.557v.779h-.778v-.779h-.779v1.557h.779v3.892h3.113V11.92h.78v-1.557z" fill="#DA1C0B"/>
<path d="M25.69 14.255v.779h-.78v-.779h-.778v.779h-1.557v-.779h-.778v.779h-.779v-.779h-.778v1.557-.001.001h.778v4.254l-.778.416v.779h6.227v-.779l-.777-.416v-4.254h.777v-1.557z" fill="#DA1C0B"/>
<path d="m22.6 13.5h1.56v1.56h-1.56z"/>
<path d="M24.132 13.477c0 .43-.349.778-.778.778-.43 0-.778-.348-.778-.778 0-.43.349-.778.778-.778.429-.001.778.348.778.778zm0 4.903c0-.621-.157-1.125-.778-1.125s-.778.504-.778 1.125v1.325h1.557V18.38h-.001z"/>
<path d="M20 8v1h-1V8h-2v1h-1V8h-1v2h1v5h4v-5h1V8z" fill="#DA1C0B"/>
<path d="m21 13v1h-1v-1h-1v1h-2v-1h-1v1h-1v-1h-1v9h8v-9z" fill="#DA1C0B"/>
<path d="m17 12h2v2h-2z"/>
<circle cx="18" cy="12" r="1"/>
<path d="m19.4 18.3c0-0.798-0.646-1.44-1.44-1.44s-1.44 0.647-1.44 1.44v2.17h2.89v-2.17h-1e-3z"/>
<path d="m18.2 23.3v0.133l1.08 1.08-1.08 1.08v4.72h-0.348v-0.527h-1.19v-0.707h0.348v0.361h0.843v-1.05h-0.843v0.355h-0.348v-0.702h1.19v-2.45l-1.08-1.08 1.08-1.07v-0.137z" fill="#FFF100"/>
<path d="M17.24 24.557l.748-.748.748.749-.749.748z" fill="#DA1C0B"/>
<path d="M18.147 21.32h-.294c-.243 0-.44.3-.44.669v1.338c0 .369.197.669.44.669h.294c.243 0 .44-.3.44-.669v-1.338c0-.369-.197-.669-.44-.669zm.11 2.029c0 .209-.111.377-.247.377s-.248-.168-.248-.377V22c0-.207.111-.375.248-.375s.247.168.247.375v1.349z" fill="#FFF100"/>
<path d="M19.326 20.265c-.107-.06-.25-.058-.318.003L18 21.177l-1.008-.909c-.068-.061-.211-.062-.318-.003-.108.059-.14.156-.072.218l1.232 1.108c.038.034.1.045.166.041.066.004.127-.007.166-.041l1.232-1.108c.069-.062.037-.16-.072-.218z" fill="#FFF100"/>
</svg>
