<?xml version="1.0" encoding="UTF-8" standalone="no"?>
<!-- Created with Inkscape (http://www.inkscape.org/) -->

<svg
   width="16"
   height="16"
   viewBox="0 0 16 16"
   version="1.1"
   id="svg5"
   inkscape:version="1.2.2 (732a01da63, 2022-12-09)"
   sodipodi:docname="VS_initial.svg"
   inkscape:export-filename="../FE00.png"
   inkscape:export-xdpi="96"
   inkscape:export-ydpi="96"
   xmlns:inkscape="http://www.inkscape.org/namespaces/inkscape"
   xmlns:sodipodi="http://sodipodi.sourceforge.net/DTD/sodipodi-0.dtd"
   xmlns="http://www.w3.org/2000/svg"
   xmlns:svg="http://www.w3.org/2000/svg">
  <sodipodi:namedview
     id="namedview7"
     pagecolor="#225500"
     bordercolor="#666666"
     borderopacity="1.0"
     inkscape:pageshadow="2"
     inkscape:pageopacity="1"
     inkscape:pagecheckerboard="0"
     inkscape:document-units="px"
     showgrid="true"
     inkscape:zoom="47.125"
     inkscape:cx="5.1246684"
     inkscape:cy="8.7851459"
     inkscape:window-width="1680"
     inkscape:window-height="998"
     inkscape:window-x="-8"
     inkscape:window-y="-8"
     inkscape:window-maximized="1"
     inkscape:current-layer="layer1"
     inkscape:snap-global="true"
     inkscape:snap-bbox="false"
     inkscape:bbox-nodes="true"
     inkscape:snap-text-baseline="true"
     inkscape:showpageshadow="2"
     inkscape:deskcolor="#d1d1d1">
    <inkscape:grid
       type="xygrid"
       id="grid824" />
  </sodipodi:namedview>
  <defs
     id="defs2" />
  <g
     inkscape:label="Layer 1"
     inkscape:groupmode="layer"
     id="layer1">
    <path
       id="use1773"
       style="fill:#66ff00;stroke-width:100;stroke-linecap:round;stroke-linejoin:round;stop-color:#000000"
       d="M 7,1 H 8 V 2 H 7 Z" />
    <path
       id="use1819"
       style="fill:#66ff00;stroke-width:100;stroke-linecap:round;stroke-linejoin:round;stop-color:#000000"
       d="M 1,3 H 2 V 4 H 1 Z M 1,5 H 2 V 6 H 1 Z M 1,7 H 2 V 8 H 1 Z m 0,2 h 1 v 1 H 1 Z m 0,2 h 1 v 1 H 1 Z m 0,2 h 1 v 1 H 1 Z m 1,1 h 1 v 1 H 2 Z m 2,0 h 1 v 1 H 4 Z m 2,0 h 1 v 1 H 6 Z m 2,0 h 1 v 1 H 8 Z m 2,0 h 1 v 1 h -1 z m 2,0 h 1 v 1 h -1 z m 2,0 h 1 v 1 h -1 z m 0,-2 h 1 v 1 h -1 z m 0,-2 h 1 v 1 h -1 z m 0,-2 h 1 v 1 h -1 z m 0,-2 h 1 v 1 h -1 z m 0,-2 h 1 v 1 h -1 z m 0,-2 h 1 V 3 H 14 Z M 13,1 h 1 v 1 h -1 z m -2,0 h 1 V 2 H 11 Z M 9,1 h 1 V 2 H 9 Z M 7,1 H 8 V 2 H 7 Z M 5,1 H 6 V 2 H 5 Z M 3,1 H 4 V 2 H 3 Z M 1,1 H 2 V 2 H 1 Z" />
    <text
       xml:space="preserve"
       style="font-size:11.0604px;line-height:1.25;font-family:'Noto Sans Canadian Aboriginal';-inkscape-font-specification:'Noto Sans Canadian Aboriginal';text-align:center;letter-spacing:0px;word-spacing:0px;text-anchor:middle;fill:#7fff2a;stroke:#7fff2a;stroke-width:0.2;stroke-dasharray:none"
       x="8.0616722"
       y="11.88428"
       id="text2359"
       transform="scale(1.0098324,0.9902633)"><tspan
         sodipodi:role="line"
         id="tspan2357"
         x="8.0616722"
         y="11.88428"
         style="font-style:normal;font-variant:normal;font-weight:normal;font-stretch:condensed;font-family:'PT Sans Narrow';-inkscape-font-specification:'PT Sans Narrow Condensed';fill:#7fff2a;stroke:#7fff2a;stroke-width:0.2;stroke-dasharray:none">VS</tspan></text>
  </g>
</svg>
