<?xml version="1.0" encoding="UTF-8" standalone="no"?>
<svg
   version="1.1"
   viewBox="-10 0 525 1000"
   id="svg4"
   sodipodi:docname="1078F.svg"
   inkscape:version="1.1.1 (3bf5ae0d25, 2021-09-20)"
   xmlns:inkscape="http://www.inkscape.org/namespaces/inkscape"
   xmlns:sodipodi="http://sodipodi.sourceforge.net/DTD/sodipodi-0.dtd"
   xmlns="http://www.w3.org/2000/svg"
   xmlns:svg="http://www.w3.org/2000/svg">
  <defs
     id="defs8" />
  <sodipodi:namedview
     id="namedview6"
     pagecolor="#ffffff"
     bordercolor="#666666"
     borderopacity="1.0"
     inkscape:pageshadow="2"
     inkscape:pageopacity="0.0"
     inkscape:pagecheckerboard="0"
     showgrid="false"
     inkscape:zoom="0.719"
     inkscape:cx="477.74687"
     inkscape:cy="392.2114"
     inkscape:window-width="1680"
     inkscape:window-height="998"
     inkscape:window-x="-8"
     inkscape:window-y="-8"
     inkscape:window-maximized="1"
     inkscape:current-layer="svg4"
     showguides="true"
     inkscape:guide-bbox="true"
     inkscape:snap-global="true"
     inkscape:snap-bbox="true"
     inkscape:bbox-nodes="true"
     inkscape:object-paths="false"
     inkscape:snap-smooth-nodes="true"
     inkscape:snap-to-guides="true">
    <sodipodi:guide
       position="34.7012,915.38244"
       orientation="0,-1"
       id="guide829" />
    <sodipodi:guide
       position="34.7012,487"
       orientation="0,-1"
       id="guide831" />
    <sodipodi:guide
       position="34.7012,486.99961"
       orientation="1,0"
       id="guide833" />
    <sodipodi:guide
       position="196.26353,922.3418"
       orientation="0,-1"
       id="guide2417" />
    <sodipodi:guide
       position="197.0594,479.04022"
       orientation="0,-1"
       id="guide2419" />
  </sodipodi:namedview>
  <path
     fill="currentColor"
     d="m 215.71086,520.95978 q -97.09658,0 -144.053119,-56.90496 Q 24.7012,407.14986 24.7012,298.91105 24.7012,195.44749 71.259804,136.55284 117.81841,77.6582 218.09848,77.6582 q 74.01624,0 116.99341,30.2432 42.97718,30.24319 42.97718,81.97497 0,35.01844 -21.88653,60.08846 -21.88652,25.07002 -58.49671,36.21225 v 3.97936 q 42.1813,9.55049 68.04719,32.63082 25.8659,23.08033 25.8659,66.05751 0,36.61018 -18.70303,66.45544 -18.70303,29.84526 -57.70084,47.75241 -38.9978,17.90716 -99.48419,17.90716 z m 0.79587,-42.97717 q 42.1813,0 64.46576,-22.6824 22.28446,-22.6824 22.28446,-67.25132 0,-39.79368 -23.47827,-58.09877 -23.47827,-18.30509 -64.8637,-18.30509 H 178.3048 v -45.36479 h 37.40606 q 38.20193,0 56.90496,-21.48859 18.70303,-21.48859 18.70303,-53.32353 0,-31.03907 -18.70303,-50.93591 -18.70303,-19.89684 -56.10909,-19.89684 -32.63082,0 -55.31321,15.1216 -22.6824,15.1216 -34.6205,53.72147 -11.93811,38.59986 -11.93811,109.43261 0,89.13784 22.28446,134.1047 22.28446,44.96686 79.58736,44.96686 z"
     id="path2"
     style="stroke-width:0.999999" />
</svg>
