<?xml version="1.0" encoding="UTF-8" standalone="no"?>
<svg
   version="1.1"
   viewBox="-10 0 393 1000"
   id="svg4"
   sodipodi:docname="10793.svg"
   inkscape:version="1.1.1 (3bf5ae0d25, 2021-09-20)"
   xmlns:inkscape="http://www.inkscape.org/namespaces/inkscape"
   xmlns:sodipodi="http://sodipodi.sourceforge.net/DTD/sodipodi-0.dtd"
   xmlns="http://www.w3.org/2000/svg"
   xmlns:svg="http://www.w3.org/2000/svg">
  <defs
     id="defs8" />
  <sodipodi:namedview
     id="namedview6"
     pagecolor="#ffffff"
     bordercolor="#666666"
     borderopacity="1.0"
     inkscape:pageshadow="2"
     inkscape:pageopacity="0.0"
     inkscape:pagecheckerboard="0"
     showgrid="false"
     showguides="true"
     inkscape:guide-bbox="true"
     inkscape:zoom="0.719"
     inkscape:cx="434.63143"
     inkscape:cy="388.03894"
     inkscape:window-width="1680"
     inkscape:window-height="998"
     inkscape:window-x="-8"
     inkscape:window-y="-8"
     inkscape:window-maximized="1"
     inkscape:current-layer="svg4"
     inkscape:snap-smooth-nodes="true"
     inkscape:snap-bbox="false"
     inkscape:snap-center="true"
     inkscape:bbox-nodes="true"
     inkscape:snap-others="false">
    <sodipodi:guide
       position="25.60059,808.58652"
       orientation="0,-1"
       id="guide825" />
    <sodipodi:guide
       position="13.24917,486.99938"
       orientation="1,0"
       id="guide827" />
    <sodipodi:guide
       position="167.95517,486.99938"
       orientation="0,-1"
       id="guide829" />
    <sodipodi:guide
       position="45.7512,648.3934"
       orientation="1,0"
       id="guide1336" />
    <sodipodi:guide
       position="198.507,814.587"
       orientation="0,-1"
       id="guide1418" />
    <sodipodi:guide
       position="196.557,481"
       orientation="0,-1"
       id="guide1420" />
    <sodipodi:guide
       position="193.32406,942.98114"
       orientation="0,1"
       id="guide3871"
       inkscape:label=""
       inkscape:locked="false"
       inkscape:color="rgb(0,0,255)" />
  </sodipodi:namedview>
  <path
     fill="currentColor"
     d="m 183.26399,667.4431 q -69.77787,0 -98.239836,-19.28074 -28.462006,-19.2807 -28.462006,-49.885 0,-18.97468 13.465896,-31.2164 13.4659,-12.24172 39.173506,-12.24172 0,42.23392 15.91426,60.90257 15.91423,18.66863 55.69983,18.66863 35.501,0 53.86358,-24.78951 18.36259,-24.78949 18.36259,-70.69594 v -18.36257 q 0,-9.79341 0.6121,-22.34117 0.61208,-12.54776 1.22417,-22.95323 0.61208,-10.40547 1.22416,-14.078 h -3.06043 q -13.46589,25.70765 -35.50101,41.62187 -22.03509,15.91425 -57.53609,15.91425 -59.98447,0 -92.11898,-39.47956 Q 35.7512,439.74701 35.7512,351.6066 q 0,-87.52833 32.13453,-127.31394 32.13451,-39.78561 92.73107,-39.78561 34.88891,0 56.924,14.69009 22.03512,14.69006 35.50101,37.33725 h 4.28459 q -1.22416,-13.4659 -2.75437,-27.84992 -1.53022,-14.38402 -1.53022,-23.56533 v -15.91425 q 0,-58.76027 26.01368,-88.752487 26.01366,-29.99224 81.71349,-29.99224 39.17354,0 59.06633,14.384036 19.89279,14.38402 19.89279,35.194961 0,16.52633 -13.15986,27.23782 -13.15984,10.7115 -40.09162,10.7115 0,-23.87133 -6.73295,-41.621828 -6.73294,-17.750517 -25.09554,-17.750517 -19.58677,0 -26.93179,14.077993 -7.34504,14.077972 -7.34504,50.803142 v 380.10556 q 0,143.84027 -137.10731,143.84027 z m -7.95711,-189.74675 q 44.68229,0 61.20861,-31.52245 16.52632,-31.52242 16.52632,-93.95522 0,-61.82071 -16.83236,-94.26128 -16.83237,-32.44056 -61.51467,-32.44056 -37.94937,0 -54.16963,31.82847 -16.22029,31.82849 -16.22029,94.87337 0,63.65698 16.22029,94.56732 16.22026,30.91035 54.78173,30.91035 z"
     id="path2"
     style="stroke-width:0.999999"
     inkscape:transform-center-x="-77.734938"
     inkscape:transform-center-y="-159.75451" />
</svg>
