<?xml version="1.0" encoding="UTF-8" standalone="no"?>
<svg
   version="1.1"
   viewBox="-10 0 393 1000"
   id="svg4"
   sodipodi:docname="107A1.svg"
   inkscape:version="1.1.1 (3bf5ae0d25, 2021-09-20)"
   xmlns:inkscape="http://www.inkscape.org/namespaces/inkscape"
   xmlns:sodipodi="http://sodipodi.sourceforge.net/DTD/sodipodi-0.dtd"
   xmlns="http://www.w3.org/2000/svg"
   xmlns:svg="http://www.w3.org/2000/svg">
  <defs
     id="defs8" />
  <sodipodi:namedview
     id="namedview6"
     pagecolor="#ffffff"
     bordercolor="#666666"
     borderopacity="1.0"
     inkscape:pageshadow="2"
     inkscape:pageopacity="0.0"
     inkscape:pagecheckerboard="0"
     showgrid="false"
     showguides="true"
     inkscape:guide-bbox="true"
     inkscape:zoom="1.0168196"
     inkscape:cx="258.1579"
     inkscape:cy="299.95489"
     inkscape:window-width="1680"
     inkscape:window-height="998"
     inkscape:window-x="-8"
     inkscape:window-y="-8"
     inkscape:window-maximized="1"
     inkscape:current-layer="svg4"
     inkscape:snap-smooth-nodes="true"
     inkscape:snap-bbox="true"
     inkscape:snap-center="true"
     inkscape:bbox-nodes="true"
     inkscape:snap-others="true"
     inkscape:snap-global="true"
     inkscape:object-paths="true"
     inkscape:snap-page="false">
    <sodipodi:guide
       position="25.60059,808.58652"
       orientation="0,-1"
       id="guide825" />
    <sodipodi:guide
       position="13.24917,26.375921"
       orientation="1,0"
       id="guide827" />
    <sodipodi:guide
       position="167.95517,486.99938"
       orientation="0,-1"
       id="guide829" />
    <sodipodi:guide
       position="45.7512,648.3934"
       orientation="1,0"
       id="guide1336" />
    <sodipodi:guide
       position="198.507,814.587"
       orientation="0,-1"
       id="guide1418" />
    <sodipodi:guide
       position="196.557,481"
       orientation="0,-1"
       id="guide1420" />
    <sodipodi:guide
       position="870.65368,942.98114"
       orientation="0,1"
       id="guide3871"
       inkscape:label=""
       inkscape:locked="false"
       inkscape:color="rgb(0,0,255)" />
  </sodipodi:namedview>
  <path
     fill="currentColor"
     d="m 317.03043,86.399133 q -39.95716,0 -65.518,14.690137 -25.56083,14.69013 -41.13237,39.95716 -15.57154,25.26703 -24.97323,58.17293 L 293.52622,456.0029 q 7.63887,17.62816 16.15915,23.50422 8.52027,5.87605 24.38562,5.87605 h 1.76281 v 27.61745 H 187.75725 v -26.44224 h 1.76282 q 35.25632,0 35.25632,-26.44224 0,-9.40168 -5.28845,-22.329 L 177.18036,332.60578 q -8.22648,-20.56619 -15.27774,-42.89519 -7.05127,-22.32901 -9.40169,-35.84393 -3.52563,15.27774 -9.69549,32.9059 -6.16985,17.62816 -10.8707,31.73069 L 92.565185,433.0863 q -5.288449,14.10252 -5.288449,25.85463 0,27.61745 39.369564,27.61745 h 1.76281 v 26.44224 H 3.24917 v -26.44224 h 1.7628161 q 17.0405559,0 26.1484389,-9.10788 9.107883,-9.10788 18.509568,-36.13773 L 138.98601,196.28133 q 15.27774,-42.89519 29.38027,-69.92503 14.10252,-27.029849 31.73069,-42.307589 17.62816,-15.277739 43.77659,-21.153793 26.14844,-5.876053 66.69321,-5.876053 h 6.46366 z"
     id="path2"
     style="stroke-width:0.999999" />
  <path
     id="path1133"
     d="m 125.82414,104.49476 c -14.10253,0 -25.56084,2.84009 -34.374918,8.52028 -8.81408,5.68019 -15.277739,12.53558 -19.390977,20.56619 -4.113237,8.03061 -6.169856,15.76741 -6.169856,23.21041 0,18.0199 5.386385,31.82863 16.159147,41.42618 10.772763,9.59755 28.694724,14.39633 53.765894,14.39633 h 123.98473 v -29.38027 h -87.31701 c -3.40543,-50.14293 -21.59271,-78.73912 -46.65701,-78.73912 z m -5.87605,29.38027 c 7.443,0 13.02525,2.84009 16.74674,8.52028 3.7215,5.68019 5.58226,13.61286 5.58226,23.79802 v 17.04055 h -5.28845 c -13.31905,0 -23.21041,-2.54629 -29.67407,-7.63887 -6.46366,-5.09258 -9.695491,-11.55624 -9.695491,-19.39098 0,-5.87605 1.958682,-11.06656 5.876051,-15.57154 3.91738,-4.50497 9.40169,-6.75746 16.45296,-6.75746 z"
     sodipodi:nodetypes="csssscccccssscsssss"
     style="stroke-width:0.999999" />
</svg>
