<?xml version="1.0" standalone="no"?>
<!DOCTYPE svg PUBLIC "-//W3C//DTD SVG 1.1//EN" "http://www.w3.org/Graphics/SVG/1.1/DTD/svg11.dtd" >
<svg xmlns="http://www.w3.org/2000/svg" xmlns:xlink="http://www.w3.org/1999/xlink" version="1.1" viewBox="-10 0 860 1000">
   <path fill="currentColor"
d="M204 810q-66 0 -110.5 -39.5t-44.5 -121.5q0 -80 56 -118.5t171 -42.5l82 -3v-58q0 -36 -5.5 -63t-23.5 -42.5t-55 -15.5q-53 0 -69 31t-16 78q-48 0 -73 -14.5t-25 -49.5t25 -56.5t67.5 -31.5t94.5 -10q55 0 94.5 14t62.5 46q57 -60 152 -60q100 0 158 60.5t58 179.5v47
h-332q2 107 38 155.5t111 48.5q46 0 82.5 -21.5t55.5 -51.5q9 4 15 14t6 24q0 22 -19.5 45.5t-59 39.5t-100.5 16q-146 0 -205 -109q-23 46 -71.5 77.5t-119.5 31.5zM687 483q0 -79 -23 -126t-77 -47q-52 0 -81 44.5t-33 128.5h214zM236 745q56 0 89 -37t33 -99v-79l-59 3
q-77 3 -107 33.5t-30 87.5q0 91 74 91z" />
</svg>
