<?xml version="1.0" standalone="no"?>
<!DOCTYPE svg PUBLIC "-//W3C//DTD SVG 1.1//EN" "http://www.w3.org/Graphics/SVG/1.1/DTD/svg11.dtd" >
<svg xmlns="http://www.w3.org/2000/svg" xmlns:xlink="http://www.w3.org/1999/xlink" version="1.1" viewBox="-10 0 787 1000">
   <path fill="currentColor"
d="M246 810q-90 0 -141.5 -66.5t-51.5 -197.5q0 -84 36.5 -150t111.5 -104.5t189 -38.5q105 0 179.5 36.5t114.5 102.5t40 154q0 131 -51.5 197.5t-141.5 66.5q-56 0 -90 -29t-51 -73h-3q-17 44 -51 73t-90 29zM267 750q41 0 62 -30.5t28 -74.5v-176h63v176q8 44 28.5 74.5
t60.5 30.5q42 0 72.5 -49.5t30.5 -154.5q0 -125 -53.5 -182t-170.5 -57q-118 0 -170.5 61.5t-52.5 177.5q0 76 14 121t37.5 64t50.5 19z" />
</svg>
