<?xml version="1.0" standalone="no"?>
<!DOCTYPE svg PUBLIC "-//W3C//DTD SVG 1.1//EN" "http://www.w3.org/Graphics/SVG/1.1/DTD/svg11.dtd" >
<svg xmlns="http://www.w3.org/2000/svg" xmlns:xlink="http://www.w3.org/1999/xlink" version="1.1" viewBox="-10 0 495 1000">
   <path fill="currentColor"
d="M125 811q-56 0 -83 -20t-27 -56q0 -35 24.5 -56.5t77.5 -21.5q0 41 11.5 60.5t40.5 19.5q28 0 46 -21t28.5 -53t14.5 -66t4 -60v-385q0 -44 -23 -55.5t-55 -11.5h-29v-45h217v647q0 44 23 56t56 12h4v45h-168l-19 -93h-5q-13 30 -28.5 53.5t-41 37t-68.5 13.5z" />
</svg>
