<?xml version="1.0" standalone="no"?>
<!DOCTYPE svg PUBLIC "-//W3C//DTD SVG 1.1//EN" "http://www.w3.org/Graphics/SVG/1.1/DTD/svg11.dtd" >
<svg xmlns="http://www.w3.org/2000/svg" xmlns:xlink="http://www.w3.org/1999/xlink" version="1.1" viewBox="-10 0 764 1000">
   <path fill="currentColor"
d="M250 810q-73 0 -114 -34.5t-41 -121.5v-330h-75v-43q21 0 44 -9t39 -26q31 -32 46 -105h56v127h238q42 -14 94 -14q78 0 116 28t38 64q0 29 -20 46t-60 17q0 -50 -21.5 -78t-65.5 -28q-46 0 -68.5 20.5t-22.5 54.5q0 25 12 41.5t40 31t76 32.5q75 30 112.5 66t37.5 99
q0 79 -55 120.5t-147 41.5q-75 0 -121 -23q-23 10 -62.5 16.5t-75.5 6.5zM282 756q18 0 32.5 -2.5t30.5 -6.5q-11 -19 -11 -46q0 -29 12 -44t29 -21t30 -6q0 55 25.5 92t82.5 37q53 0 80 -24t27 -61q0 -24 -10.5 -40t-37.5 -31.5t-75 -34.5q-52 -22 -86.5 -43.5t-51.5 -51
t-17 -73.5t21 -76h-158v330q0 102 77 102z" />
</svg>
