<?xml version="1.0" encoding="UTF-8" standalone="no"?>
<svg
   viewBox="0 0 36 36"
   version="1.1"
   id="svg3"
   sodipodi:docname="1f1f3-1f1f7.svg"
   inkscape:version="1.4 (86a8ad7, 2024-10-11)"
   xmlns:inkscape="http://www.inkscape.org/namespaces/inkscape"
   xmlns:sodipodi="http://sodipodi.sourceforge.net/DTD/sodipodi-0.dtd"
   xmlns="http://www.w3.org/2000/svg"
   xmlns:svg="http://www.w3.org/2000/svg">
  <defs
     id="defs3" />
  <sodipodi:namedview
     id="namedview3"
     pagecolor="#ffffff"
     bordercolor="#666666"
     borderopacity="1.0"
     inkscape:showpageshadow="2"
     inkscape:pageopacity="0.0"
     inkscape:pagecheckerboard="0"
     inkscape:deskcolor="#d1d1d1"
     inkscape:zoom="20.972222"
     inkscape:cx="21.576159"
     inkscape:cy="17.523179"
     inkscape:window-width="1680"
     inkscape:window-height="998"
     inkscape:window-x="-8"
     inkscape:window-y="-8"
     inkscape:window-maximized="1"
     inkscape:current-layer="svg3" />
  <path
     fill="#002b7f"
     d="m 36,27 c 0,2.209 -1.791,4 -4,4 H 4 C 1.791,31 0,29.209 0,27 V 19 L 1,18 0,17 V 9 C 0,6.791 1.791,5 4,5 h 28 c 2.209,0 4,1.791 4,4 v 8 l -1,1 1,1 z"
     id="path1"
     sodipodi:nodetypes="sssscccsssscccs" />
  <path
     fill="#ffc61e"
     d="m 0,17 h 36 v 2 H 0 Z"
     id="path2"
     sodipodi:nodetypes="ccccc" />
  <path
     fill="#FFF"
     d="M9.979 19.479l.492 1.965 1.409-1.456-.556 1.949 1.949-.557-1.457 1.409 1.966.492-1.966.492 1.457 1.41-1.949-.557.556 1.949-1.409-1.457-.492 1.966-.492-1.966-1.409 1.457.556-1.949-1.948.557 1.456-1.41-1.966-.492 1.966-.492-1.456-1.409 1.948.557-.556-1.949 1.409 1.456z"
     id="path3" />
</svg>
