<?xml version="1.0" standalone="no"?>
<!DOCTYPE svg PUBLIC "-//W3C//DTD SVG 1.1//EN" "http://www.w3.org/Graphics/SVG/1.1/DTD/svg11.dtd" >
<svg xmlns="http://www.w3.org/2000/svg" xmlns:xlink="http://www.w3.org/1999/xlink" version="1.1" viewBox="-10 0 1429 2048">
   <path fill="currentColor"
d="M394 1155c0 -169.607 127.769 -254 277 -254c85.333 0 177 34.333 275 103c3.59961 -18 3.59961 -18 20 -182c-3.875 -0.775391 -214.398 -46.6426 -382 -101c-47.1064 91.5967 -165.952 227 -302 227c-113.712 0 -202 -75.7832 -202 -202
c0 -135.963 110.682 -216 232 -216c96.1768 0 96.1768 0 443 88l52 14c46.584 12.4229 174.232 50.5176 176 51c28.209 -162.986 93.1904 -255 224 -255c113.712 0 202 75.7832 202 202c0 135.963 -110.682 216 -232 216c-43.2852 0 -81.7559 -2.76758 -121 -8
c-20.2959 137 -28.6982 169.558 -46 216c96 82 144 167.667 144 257c0 218 -125.333 327 -376 327h-373c-54.875 0 -255 -12.1885 -255 -190c0 -20.5205 3.32422 -37.4355 21 -76c16.6846 55.3223 62.416 114 265 114h341c184.667 0 277 -44 277 -132
c0 -63.333 -33 -125.667 -99 -187c-107.96 167.622 -202.363 196 -291 196c-136.086 0 -270 -70.2861 -270 -208zM904 1125c-79.333 -62 -161.667 -93 -247 -93c-107.333 0 -161 31.667 -161 95c0 62.667 64.667 94 194 94c104.667 0 176 -32 214 -96zM182 737
c0 59.2725 55.667 74 111 74c32.8994 0 155.894 -7.21777 224 -111c-127.781 -38.1104 -184.051 -39 -220 -39c-71.2559 0 -115 38.8184 -115 76zM1307 639c0 -25.2803 -11.4824 -74 -100 -74c-88.1377 0 -115.531 75.9258 -130 140c39.9932 7.1416 76.6289 10 115 10
c67.418 0 115 -35.7295 115 -76z" />
</svg>
