<?xml version="1.0" standalone="no"?>
<!DOCTYPE svg PUBLIC "-//W3C//DTD SVG 1.1//EN" "http://www.w3.org/Graphics/SVG/1.1/DTD/svg11.dtd" >
<svg xmlns="http://www.w3.org/2000/svg" xmlns:xlink="http://www.w3.org/1999/xlink" version="1.1" viewBox="-10 0 932 1000">
   <path fill="currentColor"
d="M642 591c-33.0078 0 -35 -41.041 -35 -67l7 -136c-32.7812 -2.18555 -94.3271 -14.3916 -98 -75c-134.99 127.759 -222.943 211 -292 211c-53.5674 0 -121 -85.376 -121 -115c0 -23.6484 17.2441 -43 42 -43c7.18164 0 27.7002 0 43 51c15.1123 50.375 31.4434 53 52 53
c49.792 0 175.383 -97.2832 278 -198c6.35156 -19.543 34.9609 -89.3047 123 -103l15 -95c3.33301 -18.667 15 -28 35 -28c16 0 24 10 24 30l-17 95c5.16504 1.14746 120 27.8711 120 135c0 57.333 -47.333 86 -142 86l-5 118l26 32c-8.66699 32.667 -27 49 -55 49zM697 201
c-7.40039 40.7021 -12.0537 86.501 -15 141c52.667 -4 79 -21.333 79 -52c0 -44.2002 -32.5176 -81.4443 -64 -89zM636 202c-43.1758 16.377 -62 55.2861 -62 88c0 24 16 39.667 48 47z" />
</svg>
