<?xml version="1.0" encoding="UTF-8" standalone="no"?>
<!-- Created with Inkscape (http://www.inkscape.org/) -->

<svg
   width="1080"
   height="1000"
   viewBox="0 0 1080 1000"
   version="1.1"
   id="svg5"
   inkscape:version="1.2.1 (9c6d41e410, 2022-07-14)"
   sodipodi:docname="1F77F_Orcus_A.svg"
   xml:space="preserve"
   xmlns:inkscape="http://www.inkscape.org/namespaces/inkscape"
   xmlns:sodipodi="http://sodipodi.sourceforge.net/DTD/sodipodi-0.dtd"
   xmlns="http://www.w3.org/2000/svg"
   xmlns:svg="http://www.w3.org/2000/svg"><sodipodi:namedview
     id="namedview7"
     pagecolor="#ffffff"
     bordercolor="#666666"
     borderopacity="1.0"
     inkscape:showpageshadow="2"
     inkscape:pageopacity="0.0"
     inkscape:pagecheckerboard="0"
     inkscape:deskcolor="#d1d1d1"
     inkscape:document-units="px"
     showgrid="false"
     showguides="true"
     inkscape:zoom="0.53315851"
     inkscape:cx="326.35698"
     inkscape:cy="540.17706"
     inkscape:window-width="1680"
     inkscape:window-height="998"
     inkscape:window-x="-8"
     inkscape:window-y="-8"
     inkscape:window-maximized="1"
     inkscape:current-layer="layer1"><inkscape:grid
       type="xygrid"
       id="grid184"
       originx="0"
       originy="0" /><sodipodi:guide
       position="40,807.69231"
       orientation="-1,0"
       id="guide2194"
       inkscape:locked="false"
       inkscape:label=""
       inkscape:color="rgb(0,134,229)" /><sodipodi:guide
       position="540,880"
       orientation="-1,0"
       id="guide11167"
       inkscape:locked="false"
       inkscape:label=""
       inkscape:color="rgb(0,134,229)" /><sodipodi:guide
       position="1040,880"
       orientation="-1,0"
       id="guide22291"
       inkscape:locked="false"
       inkscape:label=""
       inkscape:color="rgb(0,134,229)" /><sodipodi:guide
       position="340,500"
       orientation="0,-1"
       id="guide32137"
       inkscape:locked="false" /><sodipodi:guide
       position="539.99997,29.99879"
       orientation="0,-1"
       id="guide44675"
       inkscape:locked="false" /><sodipodi:guide
       position="69.99875,500.00003"
       orientation="1,0"
       id="guide44681"
       inkscape:locked="false" /><sodipodi:guide
       position="1010.0012,500.00003"
       orientation="1,0"
       id="guide44683"
       inkscape:locked="false" /><sodipodi:guide
       position="539.99997,970.00125"
       orientation="0,-1"
       id="guide44685"
       inkscape:locked="false" /><sodipodi:guide
       position="660,420"
       orientation="1,0"
       id="guide44687"
       inkscape:locked="false" /><sodipodi:guide
       position="860,560"
       orientation="1,0"
       id="guide44689"
       inkscape:locked="false" /></sodipodi:namedview><defs
     id="defs2" /><g
     inkscape:label="Layer 1"
     inkscape:groupmode="layer"
     id="layer1"><path
       id="path50635"
       style="color:#000000;fill:#000000"
       d="M 540 -0.001953125 C 407.40322 -0.001953125 280.2054 52.685234 186.44531 146.44531 C 92.685234 240.2054 39.998047 367.40322 39.998047 500 C 39.998047 632.59678 92.685234 759.7946 186.44531 853.55469 C 280.2054 947.31476 407.40322 1000.002 540 1000.002 C 672.59678 1000.002 799.7946 947.31476 893.55469 853.55469 C 987.31476 759.7946 1040.002 632.59678 1040.002 500 C 1040.002 367.40322 987.31476 240.2054 893.55469 146.44531 C 799.7946 52.685234 672.59678 -0.001953115 540 -0.001953125 z M 540 59.998047 C 656.70687 59.998047 768.60274 106.34882 851.12695 188.87305 C 933.65118 271.39726 980.00195 383.29313 980.00195 500 C 980.00195 544.49112 973.2209 588.26803 960.3125 630 L 678.23828 630 C 710.27834 595.95709 730 550.2032 730 500 C 730 395.42144 644.57856 310 540 310 C 435.42144 310 350 395.42144 350 500 C 350 552.28928 371.35557 599.78916 405.7832 634.2168 L 405.65039 634.34961 L 686.23828 914.93945 C 639.69162 931.34482 590.30049 940.00195 540 940.00195 C 423.29313 940.00195 311.39726 893.65118 228.87305 811.12695 C 146.34882 728.60274 99.998047 616.70687 99.998047 500 C 99.998047 383.29313 146.34882 271.39726 228.87305 188.87305 C 311.39726 106.34882 423.29313 59.998047 540 59.998047 z M 540 370 C 612.15221 370 670 427.84779 670 500 C 670 572.15221 612.15221 630 540 630 C 506.37962 630 475.8725 617.43159 452.86914 596.7168 L 448.07617 591.92383 L 447.94336 592.05664 C 424.46242 568.5757 410 536.0761 410 500 C 410 427.84779 467.84779 370 540 370 z M 546.15234 690 L 936.81445 690 C 915.50053 734.51425 886.69528 775.55863 851.12695 811.12695 C 819.66701 842.5869 783.91754 868.74695 745.28125 889.12891 L 546.15234 690 z " /></g></svg>
