<?xml version="1.0" encoding="UTF-8" standalone="no"?>
<svg
   version="1.1"
   viewBox="-10 0 752 1000"
   id="svg1"
   sodipodi:docname="D4.svg"
   inkscape:version="1.4-beta (62f545ba5e, 2024-04-22)"
   xmlns:inkscape="http://www.inkscape.org/namespaces/inkscape"
   xmlns:sodipodi="http://sodipodi.sourceforge.net/DTD/sodipodi-0.dtd"
   xmlns="http://www.w3.org/2000/svg"
   xmlns:svg="http://www.w3.org/2000/svg">
  <defs
     id="defs1" />
  <sodipodi:namedview
     id="namedview1"
     pagecolor="#ffffff"
     bordercolor="#666666"
     borderopacity="1.0"
     inkscape:showpageshadow="2"
     inkscape:pageopacity="0.0"
     inkscape:pagecheckerboard="0"
     inkscape:deskcolor="#d1d1d1"
     inkscape:zoom="0.781"
     inkscape:cx="-170.29449"
     inkscape:cy="462.86812"
     inkscape:window-width="1920"
     inkscape:window-height="1000"
     inkscape:window-x="-11"
     inkscape:window-y="-11"
     inkscape:window-maximized="1"
     inkscape:current-layer="svg1"
     showguides="true">
    <sodipodi:guide
       position="382,924"
       orientation="0,1"
       id="guide1"
       inkscape:locked="false"
       inkscape:label=""
       inkscape:color="rgb(0,134,229)" />
    <sodipodi:guide
       position="381,190"
       orientation="0,-1"
       id="guide2"
       inkscape:locked="false" />
    <sodipodi:guide
       position="66,534.40761"
       orientation="1,0"
       id="guide3"
       inkscape:locked="false" />
    <sodipodi:guide
       position="382,874"
       orientation="0,1"
       id="guide5"
       inkscape:label=""
       inkscape:locked="false"
       inkscape:color="rgb(0,134,229)" />
    <sodipodi:guide
       position="381,240"
       orientation="0,1"
       id="guide6"
       inkscape:label=""
       inkscape:locked="false"
       inkscape:color="rgb(0,134,229)" />
    <sodipodi:guide
       position="166,557.5"
       orientation="-1,0"
       id="guide7"
       inkscape:label=""
       inkscape:locked="false"
       inkscape:color="rgb(0,134,229)" />
    <sodipodi:guide
       position="584,558"
       orientation="-1,0"
       id="guide8"
       inkscape:label=""
       inkscape:locked="false"
       inkscape:color="rgb(0,134,229)" />
    <sodipodi:guide
       position="684,558"
       orientation="-1,0"
       id="guide9"
       inkscape:label=""
       inkscape:locked="false"
       inkscape:color="rgb(0,134,229)" />
    <sodipodi:guide
       position="306.0206,447.2616"
       orientation="0,-1"
       id="guide13"
       inkscape:locked="false" />
    <sodipodi:guide
       position="269.52625,685.65941"
       orientation="0,-1"
       id="guide4"
       inkscape:locked="false" />
    <sodipodi:guide
       position="269.52625,635.65941"
       orientation="0,1"
       id="guide10"
       inkscape:label=""
       inkscape:locked="false"
       inkscape:color="rgb(0,134,229)" />
    <sodipodi:guide
       position="363.63636,577.46479"
       orientation="0,-1"
       id="guide11"
       inkscape:locked="false" />
  </sodipodi:namedview>
  <path
     id="path14"
     d="m 394.6003,433.09859 80,25.80351 0,93.8363 -80,-30.72983 z"
     style="stroke-width:0.894427"
     sodipodi:nodetypes="ccccc" />
  <path
     id="path11"
     style="fill:#5c3566;fill-rule:evenodd;stroke-linecap:round;stroke-linejoin:round;stroke-miterlimit:5"
     d="M 365,76 C 278.38807,76 230.42959,90.586777 189.02367,118.53387 131.91361,157.08054 148.92694,220.03585 196.4735,244.12806 232.85518,187.53108 304.51372,126 377.80469,126 508.99118,126 574,295.73934 574,443 574,706.16308 423.08739,760 352.19531,760 221.00882,760 156,621.54906 156,484.79854 H 56 C 56,721.01566 191.88084,810 365,810 538.11916,810 674,678.86153 674,443 674,207.13847 538.11916,76 365,76 Z"
     sodipodi:nodetypes="sscsssccsss" />
  <path
     style="fill:#204a87;stroke:none;stroke-width:1px;stroke-linecap:butt;stroke-linejoin:miter;stroke-opacity:1"
     d="m 56,484.79854 c 0,-143.85923 78.73346,-170.45795 129.31788,-170.45795 40.7027,0 85.27019,36.6902 85.27019,71.11734 l -29.94424,37.07728 C 235.24934,379.6302 217.64751,364.34059 200.22499,364.34059 175.44669,364.34059 156,395.03955 156,484.79854 Z"
     id="path13"
     sodipodi:nodetypes="csccscc" />
  <path
     id="rect10"
     d="m 240.64383,422.53521 h 80 V 552.7384 l -80,-30.72983 z"
     style="stroke-width:0.894427"
     sodipodi:nodetypes="ccccc" />
  <path
     style="fill:#ff7f2a;stroke:none;stroke-width:1px;stroke-linecap:butt;stroke-linejoin:miter;stroke-opacity:1"
     d="m 240.64383,422.53521 c 0,-58.19462 56.36876,-108.19462 104.71247,-108.19462 84.23662,0 129.244,88.75775 129.244,144.56151 l -80,-25.80351 c 0,-40.98599 -8.14845,-68.758 -39.97558,-68.758 -16.68864,0 -33.98089,20.34324 -33.98089,58.19462 z"
     id="path12"
     sodipodi:nodetypes="csccscc" />
</svg>
