<?xml version="1.0" standalone="no"?>
<!DOCTYPE svg PUBLIC "-//W3C//DTD SVG 1.1//EN" "http://www.w3.org/Graphics/SVG/1.1/DTD/svg11.dtd" >
<svg xmlns="http://www.w3.org/2000/svg" xmlns:xlink="http://www.w3.org/1999/xlink" version="1.1" viewBox="-10 0 1022 1000">
   <path fill="currentColor"
d="M720.083 220.918q-12.2402 0 -20.6553 -7.14062q-8.41504 -7.13965 -8.41504 -24.4805q0 -17.8496 8.41504 -24.7354q8.41504 -6.88477 20.6553 -6.88477q11.7305 0 20.4004 6.88477q8.66992 6.88574 8.66992 24.7354q0 17.3408 -8.66992 24.4805
q-8.66992 7.14062 -20.4004 7.14062zM720.593 305.579q42.3311 0 60.9463 -29.5801q18.6152 -29.5811 18.6152 -86.1914q0 -56.6113 -18.8701 -85.4268t-61.2012 -28.8154q-41.8203 0 -60.6914 28.8154q-18.8701 28.8154 -18.8701 85.4268q0 56.6104 19.125 86.1914
q19.126 29.5801 60.9463 29.5801zM826.083 459.918q-12.2402 0 -20.6553 -7.14062q-8.41504 -7.13965 -8.41504 -24.4805q0 -17.8496 8.41504 -24.7354q8.41504 -6.88477 20.6553 -6.88477q11.7305 0 20.4004 6.88477q8.66992 6.88574 8.66992 24.7354
q0 17.3408 -8.66992 24.4805q-8.66992 7.14062 -20.4004 7.14062zM826.593 544.579q42.3311 0 60.9463 -29.5801q18.6152 -29.5811 18.6152 -86.1914q0 -56.6113 -18.8701 -85.4268t-61.2012 -28.8154q-41.8203 0 -60.6914 28.8154q-18.8701 28.8154 -18.8701 85.4268
q0 56.6104 19.125 86.1914q19.126 29.5801 60.9463 29.5801zM720.083 700.918q-12.2402 0 -20.6553 -7.14062q-8.41504 -7.13965 -8.41504 -24.4805q0 -17.8496 8.41504 -24.7354q8.41504 -6.88477 20.6553 -6.88477q11.7305 0 20.4004 6.88477
q8.66992 6.88574 8.66992 24.7354q0 17.3408 -8.66992 24.4805q-8.66992 7.14062 -20.4004 7.14062zM720.593 785.579q42.3311 0 60.9463 -29.5801q18.6152 -29.5811 18.6152 -86.1914q0 -56.6113 -18.8701 -85.4268t-61.2012 -28.8154q-41.8203 0 -60.6914 28.8154
q-18.8701 28.8154 -18.8701 85.4268q0 56.6104 19.125 86.1914q19.126 29.5801 60.9463 29.5801zM719.573 812.101q-58.6514 0 -93.5869 -35.1914q-5.53711 -5.57715 -10.1963 -12.0771q-4.49023 6.5 -9.8252 12.0771q-33.6602 35.1914 -96.3916 35.1914
q-58.6514 0 -93.5869 -35.1914q-6.77344 -6.82324 -12.2334 -15.0264q-5.26172 8.20312 -11.7881 15.0264q-33.6602 35.1914 -96.3916 35.1914q-58.6514 0 -93.5869 -35.1914q-34.9355 -35.1904 -34.9355 -107.102q0 -64.0078 26.8457 -98.7109
q-0.660156 0.00390625 -1.32324 0.00390625q-58.6514 0 -93.5869 -35.1914q-34.9355 -35.1904 -34.9355 -107.102q0 -71.4014 33.4053 -106.337q33.3252 -34.8516 96.3398 -34.9365q-26.7451 -34.8076 -26.7451 -97.7266q0 -71.4014 33.4053 -106.337
q33.4062 -34.9365 96.6475 -34.9365q59.1611 0 93.8418 34.6807q6.68555 6.68555 12.083 14.7549q5.11816 -7.90039 11.4277 -14.499q33.4062 -34.9365 96.6475 -34.9365q59.1611 0 93.8418 34.6807q5.4541 5.4541 10.0508 11.8291q4.33691 -6.21582 9.45996 -11.5732
q33.4062 -34.9365 96.6475 -34.9365q59.1611 0 93.8418 34.6807t34.6807 106.593q0 62.9404 -25.7861 97.75q1.62109 -0.0234375 3.26367 -0.0234375q59.1611 0 93.8418 34.6807t34.6807 106.593q0 71.9111 -33.6611 107.102q-33.6602 35.1914 -96.3916 35.1914
q-1.81152 0 -3.59961 -0.0332031q27.6523 34.5264 27.6523 98.7402q0 71.9111 -33.6611 107.102q-33.6602 35.1914 -96.3916 35.1914zM406.083 459.918q-12.2402 0 -20.6553 -7.14062q-8.41504 -7.13965 -8.41504 -24.4805q0 -17.8496 8.41504 -24.7354
q8.41504 -6.88477 20.6553 -6.88477q11.7305 0 20.4004 6.88477q8.66992 6.88574 8.66992 24.7354q0 17.3408 -8.66992 24.4805q-8.66992 7.14062 -20.4004 7.14062zM406.593 544.579q42.3311 0 60.9463 -29.5801q18.6152 -29.5811 18.6152 -86.1914
q0 -56.6113 -18.8701 -85.4268t-61.2012 -28.8154q-41.8203 0 -60.6914 28.8154q-18.8701 28.8154 -18.8701 85.4268q0 56.6104 19.125 86.1914q19.126 29.5801 60.9463 29.5801zM296.083 220.918q-12.2402 0 -20.6553 -7.14062q-8.41504 -7.13965 -8.41504 -24.4805
q0 -17.8496 8.41504 -24.7354q8.41504 -6.88477 20.6553 -6.88477q11.7305 0 20.4004 6.88477q8.66992 6.88574 8.66992 24.7354q0 17.3408 -8.66992 24.4805q-8.66992 7.14062 -20.4004 7.14062zM296.593 305.579q42.3311 0 60.9463 -29.5801
q18.6152 -29.5811 18.6152 -86.1914q0 -56.6113 -18.8701 -85.4268t-61.2012 -28.8154q-41.8203 0 -60.6914 28.8154q-18.8701 28.8154 -18.8701 85.4268q0 56.6104 19.125 86.1914q19.126 29.5801 60.9463 29.5801zM193.083 459.918q-12.2402 0 -20.6553 -7.14062
q-8.41504 -7.13965 -8.41504 -24.4805q0 -17.8496 8.41504 -24.7354q8.41504 -6.88477 20.6553 -6.88477q11.7305 0 20.4004 6.88477q8.66992 6.88574 8.66992 24.7354q0 17.3408 -8.66992 24.4805q-8.66992 7.14062 -20.4004 7.14062zM193.593 544.579
q42.3311 0 60.9463 -29.5801q18.6152 -29.5811 18.6152 -86.1914q0 -56.6113 -18.8701 -85.4268t-61.2012 -28.8154q-41.8203 0 -60.6914 28.8154q-18.8701 28.8154 -18.8701 85.4268q0 56.6104 19.125 86.1914q19.126 29.5801 60.9463 29.5801zM510.083 220.918
q-12.2402 0 -20.6553 -7.14062q-8.41504 -7.13965 -8.41504 -24.4805q0 -17.8496 8.41504 -24.7354q8.41504 -6.88477 20.6553 -6.88477q11.7305 0 20.4004 6.88477q8.66992 6.88574 8.66992 24.7354q0 17.3408 -8.66992 24.4805q-8.66992 7.14062 -20.4004 7.14062z
M510.593 305.579q42.3311 0 60.9463 -29.5801q18.6152 -29.5811 18.6152 -86.1914q0 -56.6113 -18.8701 -85.4268t-61.2012 -28.8154q-41.8203 0 -60.6914 28.8154q-18.8701 28.8154 -18.8701 85.4268q0 56.6104 19.125 86.1914q19.126 29.5801 60.9463 29.5801z
M616.083 459.918q-12.2402 0 -20.6553 -7.14062q-8.41504 -7.13965 -8.41504 -24.4805q0 -17.8496 8.41504 -24.7354q8.41504 -6.88477 20.6553 -6.88477q11.7305 0 20.4004 6.88477q8.66992 6.88574 8.66992 24.7354q0 17.3408 -8.66992 24.4805
q-8.66992 7.14062 -20.4004 7.14062zM616.593 544.579q42.3311 0 60.9463 -29.5801q18.6152 -29.5811 18.6152 -86.1914q0 -56.6113 -18.8701 -85.4268t-61.2012 -28.8154q-41.8203 0 -60.6914 28.8154q-18.8701 28.8154 -18.8701 85.4268q0 56.6104 19.125 86.1914
q19.126 29.5801 60.9463 29.5801zM296.083 700.918q-12.2402 0 -20.6553 -7.14062q-8.41504 -7.13965 -8.41504 -24.4805q0 -17.8496 8.41504 -24.7354q8.41504 -6.88477 20.6553 -6.88477q11.7305 0 20.4004 6.88477q8.66992 6.88574 8.66992 24.7354
q0 17.3408 -8.66992 24.4805q-8.66992 7.14062 -20.4004 7.14062zM296.593 785.579q42.3311 0 60.9463 -29.5801q18.6152 -29.5811 18.6152 -86.1914q0 -56.6113 -18.8701 -85.4268t-61.2012 -28.8154q-41.8203 0 -60.6914 28.8154q-18.8701 28.8154 -18.8701 85.4268
q0 56.6104 19.125 86.1914q19.126 29.5801 60.9463 29.5801zM510.083 700.918q-12.2402 0 -20.6553 -7.14062q-8.41504 -7.13965 -8.41504 -24.4805q0 -17.8496 8.41504 -24.7354q8.41504 -6.88477 20.6553 -6.88477q11.7305 0 20.4004 6.88477
q8.66992 6.88574 8.66992 24.7354q0 17.3408 -8.66992 24.4805q-8.66992 7.14062 -20.4004 7.14062zM510.593 785.579q42.3311 0 60.9463 -29.5801q18.6152 -29.5811 18.6152 -86.1914q0 -56.6113 -18.8701 -85.4268t-61.2012 -28.8154q-41.8203 0 -60.6914 28.8154
q-18.8701 28.8154 -18.8701 85.4268q0 56.6104 19.125 86.1914q19.126 29.5801 60.9463 29.5801zM722.399 332.083q-1.40527 0.0175781 -2.82617 0.0175781h-0.0146484q0.728516 0.960938 1.4375 1.94336q0.691406 -0.992188 1.40332 -1.96094zM725.411 528.581
q-1.87305 -2.30957 -3.62109 -4.74902q-1.6748 2.42383 -3.4668 4.71875q1.38281 -0.0166016 2.78027 -0.0166016q2.16992 0 4.30762 0.046875zM302.467 331.991q-2.92188 0.09375 -5.91016 0.107422q1.52637 2.01172 2.96289 4.11914q1.42871 -2.16309 2.94727 -4.22656z
M399.768 287.655q3.61621 -0.121094 7.33594 -0.121094q0.34668 0 0.693359 0.000976562q-2.10547 -2.73926 -4.04395 -5.65234q-1.91016 2.97656 -3.98535 5.77246zM300.262 521.641q-2.34277 3.58398 -4.93066 6.90039q0.883789 -0.00683594 1.77246 -0.00683594
q4.27246 0 8.41602 0.180664q-2.7627 -3.39648 -5.25781 -7.07422zM615.79 284.832q-0.956055 1.38379 -1.9502 2.72559q1.62109 -0.0234375 3.26367 -0.0234375q0.34668 0 0.693359 0.000976562q-1.02344 -1.33105 -2.00684 -2.70312zM509.559 332.101
q0.728516 0.960938 1.4375 1.94336q0.691406 -0.992188 1.40332 -1.96094q-1.40527 0.0175781 -2.82617 0.0175781h-0.0146484zM617.902 571.088q-1.15918 0.0126953 -2.3291 0.0126953q-1.81152 0 -3.59961 -0.0332031q1.55469 1.94141 3.02246 3.97656
q1.41113 -2.02344 2.90625 -3.95605zM511.79 523.832q-1.6748 2.42383 -3.4668 4.71875q1.38281 -0.0166016 2.78027 -0.0166016q2.16992 0 4.30762 0.046875q-1.87305 -2.30957 -3.62109 -4.74902zM397.875 570.945q2.70898 3.37012 5.15332 7.02441
q2.31543 -3.57324 4.87402 -6.88184q-1.15918 0.0126953 -2.3291 0.0126953q-3.90137 0 -7.69824 -0.155273z" />
</svg>
