<?xml version="1.0" encoding="UTF-8" standalone="no"?>
<svg
   version="1.1"
   viewBox="-10 0 417 1100"
   id="svg1"
   sodipodi:docname="Om.svg"
   inkscape:version="1.4-beta3 (01c8a1c, 2024-08-28, custom)"
   xmlns:inkscape="http://www.inkscape.org/namespaces/inkscape"
   xmlns:sodipodi="http://sodipodi.sourceforge.net/DTD/sodipodi-0.dtd"
   xmlns="http://www.w3.org/2000/svg"
   xmlns:svg="http://www.w3.org/2000/svg">
  <defs
     id="defs1" />
  <sodipodi:namedview
     id="namedview1"
     pagecolor="#ffffff"
     bordercolor="#666666"
     borderopacity="1.0"
     inkscape:showpageshadow="2"
     inkscape:pageopacity="0.0"
     inkscape:pagecheckerboard="0"
     inkscape:deskcolor="#d1d1d1"
     inkscape:zoom="2.7454545"
     inkscape:cx="79.221854"
     inkscape:cy="640.14901"
     inkscape:window-width="1680"
     inkscape:window-height="998"
     inkscape:window-x="-8"
     inkscape:window-y="-8"
     inkscape:window-maximized="1"
     inkscape:current-layer="svg1" />
  <path
     fill="currentColor"
     d="m 16,699.48489 c -11,-14 -26,-35 -26,-53 0,-8 3,-12 11,-12 31,0 62,84.51511 179,84.51511 47,0 106,-24 132,-64 5,-8 11,-18 11,-28 l -1,-3 c -12,-7 -26,-13 -37,-21 -16,-12 -38,-41 -38,-62 0,-2 1,-7 2,-9 5,-7 16,-14 23,-20 28,-26 58,-63 58,-102 0,-5 -1,-10 -2,-15 -23,-21 -65,-28 -95,-28 -5,0 -10,0 -17,1 9,17 14,36 14,53 0,31 -17,96 -46,113 -14,8 -31,10 -47,10 C 73,544 14,451 14,393 14,317 131,286 190,286 c 79,0 147,41 184,111 11,21 19,45 19,69 0,43 -24,86 -55,114 25,22 48,71 48,104 0,74 -99,116 -162,116 C 145,800 63,760.48489 16,699.48489 Z M 78,450 c 0,3 0,6 1,9 5,2 11,4 17,4 9,0 26,-2 33,-7 20,-13 32,-53 37,-75 h -5 c -42,13 -83,37 -83,69 z"
     id="path1"
     sodipodi:nodetypes="csssccccsccscscscssscscsscscscccs" />
  <path
     fill="currentColor"
     d="M 49.97916,464.89191 C -11.541849,511.33626 7.759947,608.91809 29,650.48489 c 12,21 42,54 42,77 0,8 2.099338,10.54305 -5.900662,10.54305 -15,0 -40.278185,-27.13309 -49.099338,-38.54305 -91.969034,-118.95987 -102.669674,-256.33558 -1.02084,-319.59298 33.669833,-11.97257 40,83 35,85 z"
     id="path1-9"
     sodipodi:nodetypes="ccssscc" />
</svg>
