<svg viewBox="0 0 36 36" xmlns="http://www.w3.org/2000/svg"><rect fill="#4997d0" height="26" ry="4" width="36" y="5"/><path d="m12 5.1h12v25.8h-12z" fill="#fff"/><path d="m22.66 18.74c.11-.24.1-.4-.03-.26-.12.12-.28.16-.49.31l.02-.06c.18-.35.58-.18.81-.73.04-.1.25-.21-.04-.19-.2.01-.46.13-.65.39.14-.39.48-.19.62-1.12.03-.17.05-.52-.07-.23-.05.11-.16.23-.27.36.04-.19.03-.36-.02-.49.07-.11.14-.23.16-.36.03-.23-.02-.43-.11-.19-.03.09-.09.14-.15.2-.02-.08-.04-.11-.11 0s-.1.26-.12.41v.01c-.02-.08-.04-.17-.05-.25.05-.31.53-.3.36-1.31-.04-.24-.06-.32-.14-.01-.08.28-.33.3-.34.87l-.02-.07c-.06-.54.31-.99.04-1.45-.15-.25-.23-.27-.21-.07.02.23-.12.48-.1.82l-.01-.02c-.06-.42.09-.54-.08-.81-.09-.14-.22-.32-.19-.09.01.05.01.1.02.16-.05-.24-.26-.38-.52-.46-.24-.08-.17.04-.08.13.13.14.1.31.25.51-.17-.08-.32-.09-.42-.22-.2-.24-.09.07-.05.21.1.27.25.42.44.51-.02.02-.01.09.04.24.06.18.14.31.23.42-.06-.04-.12-.08-.17-.15-.21-.3-.28-.34-.25.02.04.31.17.48.33.59 0 .06.03.15.09.24.11.17.23.23.35.28.06.13.09.25.11.37-.01-.01-.01-.01-.02-.02-.31-.22-.23-.09-.21.1.12.89.54.59.45 1.16-.01.05-.02.1-.04.16.02-.33-.14-.52-.26-.66-.17-.2-.23-.14-.15.23.02.09.04.2.06.31v-.01c-.17-.35-.23-.25-.21.02.02.26-.2.36-.06.85.04.14.06.42-.08.63l-.02.03c.31-.57-.06-.74-.03-.91.04-.2-.01-.23-.12.01-.13.28-.1.47-.06.64-.02.01-.04.02-.07.04-.1.07-.18.13-.25.19.01-.05.02-.11.03-.16.03-.26-.05-.38-.15-.1-.14.34-.38.33-.54.84-.12.41-.21.49-.41.57l-.03.01c.29-.22.45-.53.49-.88.05-.39-.05-.33-.18-.1s-.36.19-.51.68c-.05.15-.16.39-.45.49.4-.28.57-.75.52-1.02-.02-.14-.09-.22-.15.01-.07.28-.28.21-.45.74-.09.27-.16.33-.51.49l.05-.01c-.21.08-.39.17-.54.26-.14-.09-.32-.17-.52-.25l.03.01c-.35-.16-.42-.21-.51-.48-.16-.53-.37-.46-.44-.73-.06-.23-.12-.14-.15-.01-.05.27.13.73.51 1.01-.28-.11-.39-.33-.44-.48-.15-.49-.38-.45-.51-.67-.13-.23-.23-.29-.18.1.04.35.2.64.48.86l-.06-.03c-.17-.08-.25-.17-.37-.55-.15-.5-.4-.5-.53-.83-.11-.27-.18-.15-.15.1.01.05.02.11.03.16-.07-.06-.14-.13-.24-.19-.03-.02-.05-.03-.07-.04.04-.16.06-.36-.06-.63-.11-.24-.16-.2-.12-.01.04.17-.34.34-.02.91l-.02-.03c-.15-.21-.12-.49-.08-.64.14-.49-.07-.59-.06-.84.02-.27-.03-.36-.21-.02l-.01.01c.02-.11.04-.22.06-.31.09-.37.02-.43-.15-.23-.13.14-.28.33-.26.66-.01-.05-.03-.1-.04-.16-.08-.57.33-.27.45-1.15.02-.19.1-.31-.2-.1-.01.01-.01.01-.02.02.03-.12.06-.24.12-.37.11-.04.23-.11.34-.27.06-.09.09-.18.09-.24.16-.11.29-.28.32-.58.04-.36-.04-.32-.24-.02-.04.06-.1.11-.16.15.08-.11.16-.24.23-.42.05-.14.06-.21.04-.23.18-.09.34-.24.43-.51.05-.14.15-.44-.05-.2-.1.12-.25.13-.42.21.16-.2.13-.37.25-.51.09-.09.16-.21-.08-.13-.26.08-.46.23-.51.46.01-.06.01-.11.02-.15.03-.23-.1-.05-.18.09-.17.27-.02.39-.08.8l-.01.03c.03-.34-.11-.58-.1-.81.02-.2-.06-.18-.21.07-.28.46.09.9.04 1.43l-.02.06c-.02-.55-.26-.57-.34-.85-.09-.3-.1-.23-.14.01-.16 1 .31.99.36 1.3-.02.08-.04.16-.05.25v-.01c-.01-.05-.02-.1-.03-.15v-.01c-.02-.09-.04-.18-.08-.25-.06-.11-.08-.08-.1 0-.06-.06-.12-.11-.14-.2-.08-.24-.14-.04-.11.19.02.13.08.24.15.35-.04.13-.05.29-.01.48-.12-.14-.22-.25-.27-.36-.11-.28-.09.06-.07.23.14.92.48.72.62 1.11-.18-.26-.44-.38-.64-.39-.28-.02-.08.09-.03.19.23.55.62.38.8.72l.02.06c-.21-.15-.37-.19-.49-.31-.13-.14-.14.02-.03.26-.12.01-.25.02-.33 0-.1-.03-.1.12.18.24.13.05.33.14.53.23.14.11.29.18.42.3-.39-.28-.68-.14-.9-.27-.27-.16-.12.09-.05.16.76.77.88.19 1.31.59-.07-.03-.14-.05-.22-.06-.34-.04-.46-.09-.28.13.21.26.38.38.54.45-.1 0-.2 0-.29.02-.22.05-.14.09 0 .13.18.05.29.18.49.26-.33.1-.38.14-.14.26.43.21.72.22.96.18-.11.04-.22.09-.31.15-.18.13-.13.18.02.16.29-.05.47.04.71.04-.15.11-.27.23-.49.29-.15.04-.2.13.05.15.92.08 1.15-.5 1.59-.49.22.07.43.15.63.28-.06.05-.12.09-.16.14.01.1.25.05.27.11.03-.03.06-.06.09-.08.03.03.06.05.09.08.02-.06.22-.04.23-.14-.03-.03-.08-.07-.12-.1.2-.14.42-.22.65-.29.44-.01.68.57 1.61.5.24-.02.2-.11.05-.15-.22-.07-.35-.19-.49-.3.24 0 .43-.09.72-.04.16.02.21-.03.02-.16-.09-.07-.19-.12-.31-.15.24.04.54.03.97-.18.25-.12.2-.16-.14-.27.2-.08.32-.21.5-.27.15-.05.23-.09 0-.13-.09-.02-.19-.02-.29-.02.15-.07.33-.2.55-.45.18-.22.06-.17-.29-.13-.08.01-.16.03-.22.07.43-.42.55.17 1.33-.6.07-.07.22-.32-.05-.16-.22.13-.52-.01-.92.28.13-.12.28-.2.43-.31.2-.1.4-.18.53-.24.29-.12.29-.27.18-.24-.08.03-.21.02-.34.01zm-6.94 2.35.11.07c-.11-.05-.24-.1-.39-.14.08 0 .17.02.29.09zm1.23.32-.05-.02.04.01zm-2.12-1.44c.01.01.01.02.02.04.09.13.1.27.18.44-.04-.04-.08-.07-.12-.11-.11-.13-.11-.24-.09-.37zm-.17-4.49c-.11.15-.3.17-.47.31.1-.17.23-.33.39-.38.06-.02.12-.04.18-.06-.03.03-.06.07-.11.13zm-.17 4.54.02.02-.01-.01zm1.14 1.36c.17-.04.32-.08.46-.07l.06.03c-.19-.01-.36 0-.51.04zm5.94-6.25s0 0 0 0zm-.25.28c-.04-.06-.08-.1-.11-.13.06.03.12.05.19.06.16.04.3.21.39.38-.17-.14-.36-.17-.47-.32zm-.78 5.59c-.14.04-.27.09-.39.14l.1-.06-.01.01c.12-.07.22-.08.3-.09zm.59-1.01.02-.04c.03.13.02.24-.09.37-.04.04-.08.08-.12.11.09-.17.1-.3.19-.44zm-2.1 1.41.04-.01-.06.02c.01 0 .01-.01.02-.01zm.8-.07.06-.03c.15-.01.29.04.48.08-.16-.04-.34-.05-.54-.05zm1.65-1.31.02-.02v.01c-.01 0-.01.01-.01.01z" fill="#437e24"/><path d="m16.6 18.42s-.76.69-.86.78c-.09.09-.19.5-.19.5l.25.16 1.11-1.14z" fill="#b1b6ba"/><path d="m15.54 19.68.23.19s-.2.2-.23.41-.58.83-.69.98c-.11.16-.25.12-.31 0s-.2-.22-.22-.31.34-.42.51-.61.36-.27.45-.37c.09-.11.25-.28.25-.28zm1.11-1.09-.47.53.13.13.46-.52z" fill="#6c301e"/><path d="m14.46 13.98 1.51 1.57.37-.19-.12-.17-.26.06z" fill="#b1b6ba"/><path d="m16.35 20.52.19.31.17-.16s.14.25 0 .3-.24 0-.24 0l-.47.39s-.19-.11-.34 0c0 0 .03-.23.13-.23.09 0 .43-.45.43-.45s-.18-.05-.14-.16.29 0 .29 0z" fill="#fab81b"/><path d="m16.3 20.6s2.77-2.76 3.93-2.86c0 0-.87.53-1.42.97s-2.32 2.08-2.32 2.08z" fill="#b1b6ba"/><path d="m19.49 18.42s.76.69.86.78c.09.09.19.5.19.5l-.25.16-1.11-1.14z" fill="#b1b6ba"/><path d="m20.55 19.68-.23.19s.2.2.23.41.58.83.69.98c.11.16.25.12.31 0s.2-.22.22-.31-.34-.42-.51-.61-.36-.27-.45-.37c-.09-.11-.25-.28-.25-.28zm-1.11-1.09.47.53-.13.13-.46-.52z" fill="#6c301e"/><path d="m18.8 16.3-.18.5 1.5-1.5-.23-.04z" fill="#b1b6ba"/><path d="m21.6 14-1.51 1.57-.37-.19.37-.11z" fill="#b1b6ba"/><path d="m19.74 20.52-.19.31-.17-.16s-.14.25 0 .3.24 0 .24 0l.47.39s.19-.11.34 0c0 0-.03-.23-.13-.23s-.43-.45-.43-.45.18-.05.14-.16-.29 0-.29 0z" fill="#fab81b"/><path d="m19.7 20.6s-2.77-2.76-3.93-2.86c0 0 .87.53 1.42.97s2.32 2.08 2.32 2.08z" fill="#b1b6ba"/><path d="m16.37 15.16c.45-.03 1.76.02 2.24 0s.37.23.4.38c.03.14-.26.3-.26.3s.31.19.72 1.28c.4 1.09.31 1.59-.23 1.62s-1.95.13-2.42.13-.55-.17-.55-.42.37-.62.75-.41c0 0 0-.17-.22-.79s-.69-1.29-.73-1.59c-.05-.3.06-.47.3-.49z" fill="#f9f0aa"/><path d="m17.74 14.09c-.19-.17.07-.36.26-.34s.28.12.08.34c0 0 .55.3.98.7.44.41 1.33 1.5 1.42 2.68.11 1.53-.73 2.32-1.05 2.87-.31.55-1.01 1.92-1.01 1.92s-.02-.7.9-1.98c0 0-.72 1.28-1.82 1.51 0 0 1.39-.98 1.77-1.76.39-.78.96-1.95.87-2.76s-.24-1.5-1.32-2.03c0 0-.68-.04-.98-.28-.48-.39-.11-.87-.11-.87z" fill="#437e24"/><path d="m18.75 15.84c0 .05.2.3.18.3h-2.38c-.03 0-.16-.17-.16-.21l-.18-.21c.14.06.32 0 .34 0h2.38c.03 0-.17.08-.17.13zm-1.73 2.76c0 .05-.1.2-.07.2h2.38c.03 0 .25-.17.25-.21l.1-.21c-.14.06-.32 0-.34 0h-2.38c-.03 0 .07.18.07.22z" fill="#e2cf81"/></svg>