<svg viewBox="0 0 36 36" xmlns="http://www.w3.org/2000/svg"><path d="m12 19v-13.8h20c2.13 0 3.85 1.72 3.85 3.85v10.2z" fill="#fff" stroke="#9a9996" stroke-width=".3"/><path d="m13 5h-9c-2.21 0-4 1.79-4 4v9h13zm-4.66 9.29-1.88-1.37-1.88 1.37.719-2.21-1.88-1.37h2.33l.719-2.21.719 2.21h2.33l-1.88 1.37.719 2.21z" fill="#1f429b"/><path d="m0 18v9c0 2.21 1.79 4 4 4h28c2.21 0 4-1.79 4-4v-9z" fill="#d42d27"/><path d="m7.17 10.7-.719-2.21-.719 2.21h-2.33l1.88 1.37-.719 2.21 1.88-1.37 1.88 1.37-.719-2.21 1.88-1.37z" fill="#fff"/></svg>