<svg viewBox="0 0 36 36" xmlns="http://www.w3.org/2000/svg"><path d="m32 5h-28c-.21 0-.41.02-.6.05v1.75h-2.73c-.42.63-.66 1.39-.66 2.21v18c0 2.21 1.79 4 4 4h28c2.21 0 4-1.79 4-4v-18c0-2.21-1.79-4-4-4z" fill="#00247d"/><path d="m23.28 22.66c.28-.52.47-1.03.69-1.19.23-.16 1.48-.03 1.73.25s.12 1.73-.36 2.55c-.48.81-1.39 1.13-1.73 1.06s-.56-.67-.62-.89.14-.3.62-.16 1.18-1.06 1.16-1.5c-.41-.3-.76-.06-.92.3s-.57-.42-.57-.42z" fill="#ba6747"/><path d="m22.65 23.7c.07.29.34.98.63 1.37-.14-.85.5-.59.45-.24.22.06-.06-.48-.12-.8-.06-.31-.01-.92-.53-.89s-.49.35-.44.56z" fill="#d7a896"/><path d="m32.61 22.66c-.28-.52-.47-1.03-.69-1.19-.23-.16-1.48-.03-1.73.25s-.12 1.73.36 2.55c.48.81 1.39 1.13 1.73 1.06.34-.06.55-.67.61-.89s-.14-.3-.62-.16-1.17-1.06-1.15-1.5c.41-.3.76-.06.92.3s.57-.42.57-.42z" fill="#ba6747"/><path d="m32.91 23.45c.07-.31-.3-.8-.53-1.26-.95 1.79-3.47 2.03-4.43 2.03s-3.48-.24-4.43-2.03c-.23.47-.6.95-.53 1.26s2.34 1.94 4.95 1.95h.02.02c2.61-.01 4.88-1.64 4.95-1.95z" fill="#e9cfc6"/><path d="m33.24 23.7c-.07.29-.34.98-.63 1.37.14-.85-.5-.59-.45-.24-.22.06.06-.48.12-.8.06-.31.01-.92.53-.89s.49.35.44.56z" fill="#d7a896"/><path d="m27.96 10.65h-4.69v6.5c0 5.71 4.69 6.96 4.69 6.96s4.69-1.25 4.69-6.96v-6.5z" fill="#fff"/><path d="m27.96 23.7c-.52-.16-4.35-1.48-4.35-6.55v-6.11h8.71v6.11c0 5.02-3.87 6.4-4.36 6.55z" fill="#0072c4"/><path d="m26.09 16.69c.11-.44.19-1.05-.08-1.14s-.74-.38-.89-.88c-.16-.5-.08-1.66-.22-1.73s-.56.11-.81-.2-.09-.42.08-.53.66-.36.63-.45.03-.24.33-.34c.55-.19.99.3 1.16.48.17.19.63.44.83.45.2.02 2.66.05 2.94.08s1 .22.94 1.08-.18 1.69-.3 1.84-.2.2-.2.2.13.69.11.81c-.02.13-.23.17-.25-.05s-.09-.73-.09-.73l-.42-.08s.02.75-.13.97-.5.08-.41-.08.14-.3.14-.48-.05-.47-.14-.5-.56.16-.91.16-1.11-.22-1.25-.09-.33.77-.42 1.13-.25.14-.23-.03.08-.75-.02-.66-.06.53-.13.67c-.06.14-.25.11-.25.11z" fill="#fff"/><path d="m24.98 15.91s.2 1.17.97 1.67 3.98.38 4.53-.02c.55-.39 1.06-1.34 1.06-1.34s-.45 0-.61-.17c-.45.25-.72.14-.81-.02-.36.36-.33.14-.38.03-.31.36-.77.14-.91.02-.31.2-.78.08-.88-.05-.36.31-.89.23-1 .09-.23.39-.58.25-.77.13-.27.25-.38-.03-.47-.2-.22.38-.58.11-.75-.14z" fill="#015121"/><path d="m23.42 17.38s.48.06.86-.28 1.02-.52 1.48 0c.47.52 1 .5 1.41.08s1.02-.62 1.59-.05 1.08.33 1.42 0 1.06-.55 1.53 0 .8.25.8.25l-.2 1.44s-.14.03-.58-.34c-.44-.38-1.05-.52-1.48-.05-.44.47-1.09.48-1.56.03s-1.02-.41-1.42-.05-1.11.53-1.67 0-1.05-.27-1.33.02c-.28.28-.66.39-.66.39zm.48 2.57c.12-.04.26-.11.38-.22.38-.34 1.02-.52 1.48 0 .47.52 1 .5 1.41.08s1.02-.62 1.59-.05c.58.58 1.08.33 1.42 0s1.06-.55 1.53 0c.09.11.18.18.26.23.08.31-.36 1.02-.42.98-.42-.27-.93-.33-1.31.08-.44.47-1.09.48-1.56.03s-1.02-.41-1.42-.05-1.11.53-1.67 0c-.49-.46-.92-.32-1.2-.1-.05.04-.75-.91-.49-.99zm1.22 2.05c.22.01.45.11.64.32.47.52 1 .5 1.41.08s1.02-.62 1.59-.05c.58.58 1.08.33 1.42 0 .13-.12.3-.23.49-.28-.64.92-2.48 1.86-2.72 1.86-.25 0-2.24-.87-2.83-1.93z" fill="#fff"/><path d="m24.7 12.09c.08-.17.34-.13.42 0s-.5.17-.42 0z"/><path d="m23.85 19.72c-.1.12 1.2.68 1.2.68s.12.62.22.54.55.01.55.01.11 1.84 2.16 1.84 2.6-1.96 2.6-1.96.74.01.83.05-.18-.24-.07-.47.38-.49.22-.56c-.16-.06-1.81.39-1.81.39s.03 1.48-1.77 1.48-1.56-.97-1.56-.97-2.42-1.21-2.56-1.03z" fill="#dd8b59"/><path d="m26.48 21.32c0 .05-.04.09-.09.09s-.09-.04-.09-.09v-3.96c0-.05.04-.09.09-.09s.09.04.09.09zm1.49.48c0 .04-.03.07-.07.07s-.07-.03-.07-.07v-4.72c0-.04.03-.07.07-.07s.07.03.07.07zm1.55-.26c0 .04-.04.08-.08.08s-.08-.04-.08-.08v-4.19c0-.04.04-.08.08-.08s.08.04.08.08z" fill="#dd8b59"/><path d="m25.88 18s.14.28.61.16c.47-.13.48-.52.48-.52zm2.58-.63-1.06.27s.11.35.51.27.55-.53.55-.53zm.47.5s.25.3.59.19.56-.52.56-.52zm-1.8.31-1.34.37s-.13.24-.08.49.17.48.17.48.13-.31.44-.38.53.19.53.19-.12-.57.28-1.16zm.27 0s-.27.16-.27.63c0 .26.27.58.27.58s.14-.25.44-.35.63.17.63.17-.12-.38-.08-.67.25-.64.25-.64zm1.44.23s-.09.2-.09.44.19.67.19.67.09-.33.44-.41.53.16.53.16-.12-.23-.07-.57.39-.63.39-.63zm-1.94 1.03-1.17.22s.14.38.59.33.59-.55.59-.55zm1.63-.06s-1.13.06-1.13.14.11.36.48.3.64-.44.64-.44zm1.45.06-1.11.25s.16.28.56.21c.4-.08.55-.45.55-.45z" fill="#fecf3d"/><path d="m26.31 17.37-.83.27.83.09zm1.58-.27-.83.27.83.09zm1.56.18-.83.27.83.09z" fill="#ff0100"/><path d="m19 18v-13h-15c-.32 0-.6.05-.6.05v1.75h-2.73s-.04.06-.13.21c-.34.59-.54 1.27-.54 2v9z" fill="#00247d"/><path d="m19 5h-2.33l-4.67 3.27v-3.27h-5v2.57l-3.6-2.52c-.61.09-1.19.33-1.67.67l4.7 3.29h-1.74l-3.72-2.61c-.11.13-.21.26-.31.4l3.15 2.21h-3.81v5h3.89l-3.89 2.77v1.23h3.33l3.67-2.57v2.57h5v-3.27l4.67 3.27h2.33v-2.03l-2.82-1.97h2.82v-5h-2.81l2.81-1.97z" fill="#fff"/><g fill="#cf1b2b"><path d="m11 5h-3v5h-8v3h8v5h3v-5h8v-3h-8z"/><path d="m19 5h-1.46l-5.54 3.88v.12h1.57l5.43-3.8zm-17.28.71c-.28.2-.53.42-.76.68l3.72 2.61h1.74zm4.71 8.29-5.7 4h1.73l4.54-3.18v-.82zm12.56 3.8v-1.22l-3.69-2.58h-1.74z"/></g></svg>