<svg viewBox="0 0 36 36" xmlns="http://www.w3.org/2000/svg"><path d="m1.19 29.85c.72.71 1.71 1.15 2.81 1.15h28c2.21 0 4-1.79 4-4v-18c0-.9-.31-1.71-.8-2.38z" fill="#ff4e11"/><path d="m32 5h-28c-2.21 0-4 1.79-4 4v18c0 1.11.46 2.12 1.19 2.85l34-23.23c-.73-.98-1.88-1.62-3.2-1.62z" fill="#ffd521"/><path d="m31.93 10.48c-.36.02-.55.29-.77.29h-.39s.31-.43.48-.55.79-.17.94-.29c.14-.12.17-.29.17-.29-.31.22-1.04.1-1.35.17s-.58.41-.58.41.36-.72.46-1.04c.1-.31.1-.84.48-1.13.39-.29.14-.65.14-.65s-.1.24-.36.46c-.27.22-.53.19-.51.6.03.41.05.41-.14.6s-.19.14-.51.68c-.31.53-.46-.02-1.13.22s-.99-.43-1.52-.36-1.78-.17-2.29-.34-.24-.39-1.47-.96c-1.23-.58-2-.02-1.52-.05.24-.01.61.08.92.18-.39-.03-.7.13-.7.13s.68.19 1.23.67 0 .43-.72 0-1.49-.53-2.14-.46-.48.29-.12.27 1.18.22 1.83.46-.05.29-.05.29c-1.42-.84-2.05-.17-1.66-.31s.82.19 1.49.56-.96.14-.96.14-.75-.31-1.47-.39c-.72-.07-1.28.63-1.04.96.24.34.7.14.7.14-.52-.15-.36-.53-.02-.63s1.64.24 2 .39c.36.14.51.7-.48.24s-.63.07-.63.07c-.96-.07.43.55-.17.39-.6-.17-1.3.07-1.88.07s-.8.63-.8.63.34-.19.76-.34c.42-.14 1.6.14 1.6.14-.48.48-.46 1.37-.46 1.37-.51.12-.99 1.04-.99 1.04.19-.31.87-.41.87-.41s.12.27-.19.65c-.31.39-.22.87-.22.87s.14-.39.34-.58c.19-.19.67-.17.67-.17-.22.51.6.82.6.82-.24.43.22.92.14.89-.07-.02-.84.24-.84.24s1.06.02.51.17c-.55.14-1.57-.43-1.57-.43l-1.18-.53s.51.48-.07.41-1.16.22-1.66-.12c-.51-.34-1.35-.53-1.18-.22s.41.63.41.63c-.92-.19-.46.63-1.13.56-.68-.07-.12.58-.77.39s-1.28.53-1.28.53c.22-.12.92.07.92.07-.27.1-.14.6-.14.6-.63.17-.46 1.11-.46 1.11-.53 0-.63.36-.84.6-.22.24-.72.24-.72.24.35.28 1.05.09 1.3.01-.23.15-.19.81-.19.81-.43.07-.05.72-.14.65-.1-.07-.34.1-.58.29s-.55.24-.55.24c.17.22.55.24.55.24s-.29.55-.65.68c-.36.12-1.37.36-1.64.39-.27.02-.84 0-1.37-.14s-1.08 0-1.52-.05c-.43-.05-.7.39-.7.39s.36-.12.67-.05.41.36.75.22 1.04.19 1.04.19-.24.14-.58.27c-.34.12-.8.26-1.18.34-.39.07-.84.63-.53.36s.51-.05.94-.12c.44-.07.84-.1.84-.1s-.29 0-.51.27-.82.51-1.16.51-.89.17-1.21.58c-.31.41-.7.48-.7.48s.24.27.6 0 .43-.39.96-.48c.53-.1 1.08-.29 1.08-.29-.29.24-.46.53-.94.6s-1.23.65-1.52.94-.8.51-.8.51c.48.29.72-.07 1.23-.36s.77-.1 1.37-.27.53-.67.72-.7c.19-.02.7 0 .84-.24s.05-.43.41-.43.51-.17.51-.17c-.14.31-.51.58-.51.58.43.12.77-.29 1.21-.56.43-.27.72-.27.72-.27s-.27.46-.55.51c-.29.05-.63.56-.63.56.19-.41 1.11-.34 1.45-.63s.8-.77 1.08-.94c.29-.17.58-.53 1.08-.99s1.4-.36 1.4-.43-.02.67-.02.67l-.84.07.53.39c-.34-.14-.82.53-.82.53l.83-.1.18.48c.27-.56.46-.44.46-.44.29.34.31 1.11.31 1.11s-.39-.1-.82.41.36 1.47.36 1.47-.14.22 0 .63.89.84 1.64.6.68-1.25.68-1.25.27-.27.22-.8-.29-.82-.29-.82.46-.17.75.14.36 1.03.36 1.03.29-1.35-.14-1.69-1.49-.31-1.49-.31c-.02-.56-.51-.87-.63-1.23s.07-1.25.07-1.25l.6.05s-.05.22.39.53c.43.31 1.13.1 1.13.1s.8.07 1.18-.63c.39-.7-.34-1.25-.34-1.25-.12-1.11-1.76-.48-1.76-.48.17-.75.89-.75.89-.75s-.84-.44-1.33-.27-.31 1.37-.7 1.33-.43-1.23-.12-2.15 1.9-.96 3.42-.36 3.66.72 3.66.72c-.07.29-.46.72-.46.72l-.68-.27.41.51c-.14.36-.53.63-.53.63.41.29.87-.29.87-.29l.17.7.41-.58s.84.6 1.54.87 2.05.51 2.05.51-.46.22.02.99 1.59.99 1.59.99.84.39 1.61-.29.14-1.9.14-1.9c0-1.42-1.52-.98-1.52-.98.31-.61 1.05-1.02 1.05-1.02-1.19-.7-1.7.68-2.59.97s-2.46-.56-2.53-.56.05-.14.07-.46c.02-.31.75-.92 1.11-1.66.36-.75.27-1.98.27-1.98.48-.48 1.13-.12 1.13-.12-.02.51-.34.72-.34.72.36.02.53-.31.53-.31-.17.53.39 1.16.39 1.16l.17-.82.51.58-.31-1.06c.96 0 1.98-.7 1.98-.7s.48.7 1.45.7c.96 0 1.93-1.04 1.93-1.49s-.87-1.11-.87-1.11.34-.77-.94-.77-1.66 1.56-1.66 1.56-.53-.23-1.25-.04-1.9-.41-2.63-.77c-.72-.36-1.74-1.35-1.74-1.35 0-.34.19-.87.19-.87s1.04.07.73.19-1.13.36-.48.41 1.28-.22 1.08 0c-.19.22-.92.72-.63.72s.68-.36.87-.41.53.07 1.01.07c.13 0 .26-.07.39-.18.5.24 1.23.93 1.58 1.29.43.43.7-.14.89-.41.11-.15-.19-.44-.52-.7.06-.07.11-.14.16-.19.03-.03.07-.05.11-.07l.55.2c0 .42-.01.98-.01.98.27-.19.28-.57.28-.89.38.13.71.23.92.24.7.02 1.16-.22 1.81-.29s.7.53.7.53.27-.19-.12-.58-.89-.36-.89-.36c0-.56-.67-.53-.67-.53.56.31-.01.65-.01.65.07-.31-.63-.5-.63-.5s.46.22.17.48c-.18.17-.43.16-.74.12.04-.17.1-.42.21-.65.17-.36-.12-.72-.12-.72l.31-.58s1.04-.17 1.32-.31c.29-.14.58-.27 1.3-.24.72.02.89-.39.89-.39-.32.2-1.23-.07-1.59-.04zm-4.79 1.57c.24-.17.39-.02.39-.02l.19.43.24-.53.34.27-.19.34.72-.1-.07.24s-.26.23-.51.43c-.5-.16-1.08-.37-1.49-.6.08-.13.23-.35.39-.46zm.82 1.28c-.07.05-.13.11-.16.18-.18-.14-.36-.26-.44-.33s-.19-.13-.31-.19c.31.08.63.18.96.3zm.69-.1c.07-.01.13-.02.13-.02v.05c-.04-.01-.08-.02-.13-.03zm.45.1c.07-.27.29-.43.29-.43-.01.19.02.36.06.5z" fill="#fff"/></svg>