<svg viewBox="0 0 36 36" xmlns="http://www.w3.org/2000/svg"><path d="m4 5c-2.21 0-4 1.79-4 4v18c0 2.21 1.79 4 4 4h2l4-4-.1-18-3.9-4z" fill="#fff"/><path d="m6 31h26c2.21 0 4-1.79 4-4v-4l-4-4h-22l-4 4z" fill="#4aa657"/><path d="m4.4 5-1.42 2.05 1.64 2.48 1.36-2.43-1.41-2.1zm1.6 0v8l-1.41-2.19-1.68 2.35-1.5-2.41-1.41 2.17v.65l.86 1.43.61-.89-.44-.61.33-.44.95 1.24-1.4 2.31-.91-1.25v1.55l.06-.07.95 1.23-1.01 1.66v1.18l.91-1.25 1.4 2.32-.79 1.02-.16.21-.16-.21-.17-.23.44-.61-.61-.89-.86 1.43v.57l1.44 2.2 1.4-2.47.05-.09.06.09 1.61 2.61 1.44-2.55v-.06h30v-14c0-2.21-1.79-4-4-4zm-4.07.59c-.78.47-1.37 1.2-1.69 2.07l1.29 1.72 1.29-2.35zm-.54.49.64 1.14-.64 1.03-.62-1.06zm3.14 0 .64 1.14-.64 1.03-.63-1.06zm-3.88 2.94-.62 1.11.62 1.06.64-1.03zm1.52 0-.63 1.11.63 1.06.64-1.03zm1.48 0-.63 1.11.63 1.06.64-1.03zm1.59 0-.63 1.11.63 1.06.64-1.03zm-.79 4.04.33.44-.44.61.61.89.88-1.45.17.07v1.48l-1.09 1.51-1.41-2.31zm-1.56 1.77 1.39 2.2v1.93l-1.39 2.2-1.31-2.21v-1.91zm-.42 1.75-.44.24.6 1.09-.6 1.09.44.24.45-.81.45.81.44-.24-.6-1.09.6-1.09-.44-.24-.45.81zm3.33.25.2.27v.34l-.31.44.31.45v1.63l-1.16-1.9zm-.85 2.83 1.05 1.45v1.57l-.12.05-.88-1.46-.61.89.44.61-.17.23-.16.21-.16-.21-.79-1.02zm-4.3 5.42-.62 1.11.62 1.06.64-1.03zm1.52 0-.63 1.11.63 1.06.64-1.03zm1.48 0-.63 1.11.63 1.06.64-1.03zm1.59 0-.63 1.11.63 1.06.64-1.03zm-3.83 1.67-1.12 1.73c.18.46.45.87.78 1.23l-.3-.52.63-1.11.64 1.14-.54.87c.17.14.35.26.54.37l.79-1.44zm3.07.13-1.5 2.17 1.29 1.95h.65l1.07-1.9zm.04 1.2.64 1.14-.64 1.03-.63-1.06z" fill="#c8313e"/></svg>