<svg viewBox="0 0 36 36" xmlns="http://www.w3.org/2000/svg"><path d="m6 13h30v10h-30z" fill="#fff"/><path d="m7.33 23-6.74 6.08c.7 1.15 1.97 1.92 3.41 1.92h28c2.21 0 4-1.79 4-4v-4z" fill="#e32118"/><path d="m32 5h-28c-2.21 0-4 1.79-4 4v4h36v-4c0-2.21-1.79-4-4-4z" fill="#3e9a00"/><path d="m7.33 13-5.42-7.4c-1.14.7-1.91 1.96-1.91 3.4v18c0 1.44.77 2.69 1.91 3.4l9.09-12.4z" fill="#0173ce"/><path d="m18.44 15h-2.4v4.75c0 .97.55 1.13.83 1.13h.92c.58 0 .65.48.65.48s.07-.48.65-.48h.92c.28 0 .83-.16.83-1.13v-4.75z"/><path d="m18.44 20.93c-.13-.14-.34-.26-.65-.26h-.92c-.19 0-.63-.09-.63-.93v-4.55h4.39v4.55c0 .84-.44.93-.63.93h-.92c-.31 0-.51.11-.65.26z" fill="#fff"/><path d="m14.92 18.7s.25.44.56.73c.58.55-.35.98-.35.98s-.29-.19-.38-.41.24-.87.17-1.31z"/><path d="m15.15 20.18c-.09-.07-.18-.16-.22-.25-.02-.06.04-.27.08-.42.02-.08.04-.16.06-.24.08.1.18.21.28.31.14.14.13.22.13.25-.02.13-.19.27-.32.35z" fill="#fff"/><path d="m15.2 19.7s0 .78.77 1.08c.94.38 1.59.22 1.67.25s0 .8 0 .8-1.04.17-1.97-.27-.88-.78-.83-.88.11-.16.16-.41c.04-.23.2-.58.2-.58z"/><path d="m17.13 21.69c-.36 0-.89-.05-1.37-.28-.67-.32-.75-.56-.74-.61.07-.12.12-.21.16-.41.13.23.34.46.71.61.45.18.91.27 1.37.27.08 0 .15 0 .21-.01 0 .11-.01.26-.02.42-.08.01-.19.01-.32.01z" fill="#fff"/><path d="m21.97 18.7s-.25.44-.56.73c-.58.55.35.98.35.98s.29-.19.38-.41-.24-.87-.17-1.31z"/><path d="m21.74 20.18c.09-.07.18-.16.22-.25.02-.06-.04-.27-.08-.42-.02-.08-.04-.16-.06-.24-.08.1-.18.21-.28.31-.14.14-.13.22-.13.25.02.13.19.27.32.35z" fill="#fff"/><path d="m21.69 19.73s0 .78-.77 1.08c-.94.38-1.59.22-1.67.25s0 .8 0 .8 1.04.17 1.97-.27.88-.78.83-.88c-.05-.09-.11-.16-.16-.41-.04-.23-.2-.58-.2-.58z"/><path d="m19.75 21.69c.36 0 .89-.05 1.37-.28.67-.32.75-.56.74-.61-.07-.12-.12-.21-.16-.41-.13.23-.34.46-.71.61-.45.18-.91.27-1.37.27-.08 0-.15 0-.21-.01 0 .11.01.26.02.42.08.01.19.01.32.01z" fill="#fff"/><path d="m19.72 21.35s-.01.34-1.27.34-1.27-.34-1.27-.34-.05.54 0 .76.38.34 1.27.34 1.23-.13 1.27-.34c.05-.22 0-.76 0-.76z"/><path d="m18.44 22.25c-1.01 0-1.07-.17-1.08-.19-.02-.07-.02-.19-.02-.32.22.08.56.14 1.09.14s.87-.06 1.09-.14c0 .13 0 .25-.02.32 0 .02-.07.19-1.08.19z" fill="#fff"/><path d="m17.85 13.48.17.29h.34l-.17.29.17.29h-.34l-.17.29-.17-.29h-.34l.17-.29-.17-.29h.34zm-1.34.16.23.25.33-.08-.1.32.23.25-.33.08-.1.32-.23-.25-.33.08.1-.32-.23-.25.33-.08zm-1.26.43.27.2.31-.14-.04.34.27.2-.31.14-.04.34-.27-.2-.31.14.04-.34-.27-.2.31-.14zm3.86-.59-.17.29h-.34l.17.29-.17.29h.34l.17.29.17-.29h.34l-.17-.29.17-.29h-.34zm1.34.16-.23.25-.33-.08.1.32-.23.25.33.08.1.32.23-.25.33.08-.1-.32.23-.25-.33-.08zm1.26.43-.27.2-.31-.14.04.34-.28.2.31.14.04.34.27-.2.31.14-.04-.34.27-.2-.31-.14z" fill="#ffd701"/><path d="m18.44 20.63c-.6 0-.69-.22-.49-.69s.31-1.1.31-1.87-.27-.94-.59-1.24.16-.19.38 0 .3.36.3.36v-.72l.25.08v.55s.36-.31.6-.34.38.16.07.25-.67.26-.67 1.07.12 1.65.28 1.95.15.61-.45.61z" fill="#a36629"/><path d="m17.75 17.55c-.32.17-.54-.2-.54-.2s-.29.2-.56.06-.23-.27 0-.39.51-.16.51-.16.07-.34.19-.58.33-.33.33-.33.25-.55.69-.58.44.42.44.42.27 0 .32.16c.24-.25.66-.22.76-.11.09.11 0 .34 0 .34s.37-.11.45.02 0 .29 0 .29.3.06.16.39-.58.23-.58.23-.18.19-.37.17-.26-.28-.26-.28-.3.08-.48-.19c-.19.28-.53.13-.58.02-.05.36-.14.55-.47.72z" fill="#009a3b"/><path d="m35.7 13h.3v10h-.3z" fill="#9a9996"/></svg>