<svg viewBox="0 0 36 36" xmlns="http://www.w3.org/2000/svg"><rect fill="#fff" height="25.7" ry="3.85" stroke="#9a9996" stroke-width=".3" width="16" x=".15" y="5.15"/><path d="m23 5v26h9c2.21 0 4-1.79 4-4v-18c0-2.21-1.79-4-4-4z" fill="#fc0"/><path d="m12 5h12v26h-12z" fill="#0868a9"/><path d="m21.02 16.3c-.28-.29-.61 0-.76-.09s-.34-.15-.32.15.25.45.38.55.06.41.06.41-.22-.25-.31-.41-.16-.31-.32-.31-.32.22-.22.31.47.18.47.41.15.47.15.47l-.04.16s-.15-.07-.19-.16.04-.37-.16-.37-.26.45-.13.53.51.5.51.5.16.31.41.45c.25.15.57.47.57.47s-.43.31-.45.5c-.03.19.15.26.13.43-.02.16-.2.08-.37.17-.16.09 0 .31 0 .31h.44l.22-.41v-.29l.46-.1s-.04.18.05.28.43.25.43.5-.13.26-.28.27c-.15.02-.22.19-.22.19h.57s.16-.38.25-.55c.09-.18.03-.3-.07-.34s-.2-.27-.18-.46c0 0 .2.16.44.12.23-.04.44-.24.45-.49.02-.25 0-.5-.23-.58s-.19.16-.1.24c.09.07.09.4-.03.47s-.31.16-.37-.04-.19-.53-.44-.61c-.25-.09-.59-.65-.57-1.04.01-.39.11-1.26-.22-1.61zm-6.06 0c.28-.29.62 0 .76-.09s.34-.15.32.15-.25.45-.38.55-.06.41-.06.41.22-.25.31-.41.16-.31.32-.31.32.22.22.31-.47.18-.47.41-.15.47-.15.47l.04.16s.15-.07.19-.16-.04-.37.16-.37.26.45.13.53-.51.5-.51.5-.16.31-.41.45c-.25.15-.57.47-.57.47s.43.31.45.5c.03.19-.15.26-.13.43.02.16.21.08.37.17s.12.31.12.31h-.44l-.34-.4v-.29l-.46-.1s.04.18-.05.28-.43.25-.43.5.13.26.28.27c.15.02.22.19.22.19h-.57s-.16-.38-.25-.55c-.09-.18-.03-.3.07-.34s.21-.27.18-.46c0 0-.21.16-.44.12s-.44-.24-.45-.49c-.02-.25 0-.5.23-.58s.19.16.1.24c-.09.07-.09.4.03.47s.31.16.37-.04c.06-.21.19-.53.44-.61.25-.09.59-.65.57-1.04-.02-.4-.12-1.26.22-1.61z" fill="#c09b5a"/><path d="m21.23 17.25c-.21.04-.56.01-.81-.01-.09-.01-.12.25-.06.26.2.05.71.08.88-.02.06-.04.08-.26-.01-.24z" fill="#8c8d8f"/><path d="m20.18 16.17s-.09.13-.24.15c0 0-.02-.12.07-.17s.17.02.17.02zm.35.22c-.13-.03-.23.05-.1.1.13.04.18-.08.1-.1zm.55.3s-.02.47-.27.46c-.26-.01-.15-.4 0-.57 0 0-.19.47-.02.48.17.02.29-.37.29-.37z"/><path d="m14.75 17.25c.21.04.56.01.81-.01.09-.01.12.25.06.26-.2.05-.71.08-.88-.02-.06-.04-.08-.26.01-.24z" fill="#8c8d8f"/><path d="m15.81 16.17s.09.13.24.15c0 0 .02-.12-.07-.17s-.17.02-.17.02zm-.36.22c.13-.03.23.05.1.1-.13.04-.18-.08-.1-.1zm-.55.3s.02.47.27.46.15-.4 0-.57c0 0 .18.47.02.48-.17.02-.29-.37-.29-.37z"/><path d="m18.76 15.14s-.3-.28-.62-.21l-.07-.05.01-.31h-.15l.01.31-.07.05c-.32-.07-.62.21-.62.21-.48-.19-.93.12-.93.48s.27.52.33.59c.06.06.37.85.37.85h1.96s.32-.78.38-.85c.06-.06.33-.23.33-.59s-.46-.68-.93-.48z" fill="#ebd11b"/><path d="m17.82 15.45v.23l-.16.18s-.16.01-.23-.04c-.07-.06-.14-.19-.14-.19s.17-.11.27-.14.27-.05.27-.05zm-.59.27s-.03.19-.17.24-.28.03-.28.03.04-.1.15-.18c.12-.08.3-.09.3-.09z" fill="#be1827"/><path d="m17.51 15.25c.15-.04.31 0 .31 0s0 .21-.19.24-.27-.06-.27-.06.04-.15.15-.18zm-.9.39c-.05-.25.29-.34.46-.15 0 0 .03.26-.17.34s-.28-.09-.3-.19zm.47-.35c.04-.1.24-.01.18.1s-.25.07-.18-.1z" fill="#0868a9"/><path d="m17.11 15.54c.09-.1.23.09.12.14s-.19-.07-.12-.14z" fill="#0868a9"/><path d="m18.17 15.45v.23l.18.18s.17.01.24-.04c.07-.06.14-.19.14-.19s-.18-.11-.28-.14-.28-.05-.28-.05zm.62.27s.03.19.17.24.28.03.28.03-.04-.1-.15-.18c-.12-.08-.29-.09-.29-.09z" fill="#be1827"/><path d="m18.5 15.25c-.14-.04-.31 0-.31 0s0 .21.19.24.27-.06.27-.06-.04-.15-.16-.18zm.9.39c.05-.25-.29-.34-.46-.15 0 0-.03.26.17.34s.28-.09.3-.19zm-.47-.35c-.04-.1-.24-.01-.18.1s.26.07.18-.1z" fill="#0868a9"/><path d="m18.9 15.54c-.09-.1-.23.09-.11.14.11.05.18-.07.11-.14z" fill="#0868a9"/><path d="m17.03 16.92c0-.19.43-.34.96-.34s.96.15.96.34-.43.34-.96.34-.96-.15-.96-.34z" fill="#be1827"/><path d="m18 16.9h-1.87v3.06c0 1.21 1.88 1.21 1.88 1.21s1.85 0 1.85-1.21v-3.06z" fill="#020202"/><path d="m18 17.1h-1.66v2.86c0 1 1.66.98 1.66.98s1.66.02 1.66-.98v-2.86z" fill="#4c86c7"/><path d="m20.36 14.74c.24-.09.44-.42.44-.42s-.39.05-.64 0-.43-.23-.43-.23c.18-.31-.11-.5-.67-.57-.43-.05-1.08-.07-1.08-.07s-.66.02-1.09.07c-.56.07-.85.25-.68.57 0 0-.19.18-.43.23s-.64 0-.64 0 .2.33.44.42c0 0-.07.23-.37.27 0 0 .64.11 1.09-.09.46-.2.71-.36.78-.43s-.18-.22 0-.24c.19-.02.88-.04.88-.04s.69.02.87.04c.19.02-.08.18-.01.24.07.07.32.23.78.43s1.09.09 1.09.09c-.3-.05-.37-.27-.37-.27z" fill="#a5a7a9"/><path d="m18.56 20.55h-1.13l.57-.57zm-.82-1.87h-1.13l.57-.57zm0-.88h-1.13l.57-.57zm0 1.82h-1.13l.57-.56zm1.58-.94h-1.13l.57-.57zm0-.88h-1.13l.57-.57zm0 1.82h-1.13l.57-.56z" fill="#fff"/></svg>