<svg viewBox="0 0 36 36" xmlns="http://www.w3.org/2000/svg"><rect fill="#d52b1e" height="26" ry="4" width="36" y="5"/><path d="m10 5.1h16v25.8h-16z" fill="#fff"/><path d="m18.61 22.11c1.2.14 2.27.26 3.47.4l-.31-1c-.05-.18.02-.37.16-.48l3.48-2.83-.72-.34c-.32-.11-.23-.29-.12-.72l.53-1.94-2.02.43c-.2.03-.33-.1-.36-.22l-.26-.91-1.6 1.79c-.23.29-.69.29-.54-.38l.68-3.63-.92.48c-.26.14-.51.17-.66-.09l-1.26-2.37v.06-.06l-1.26 2.37c-.14.26-.4.23-.66.09l-.92-.48.68 3.63c.14.66-.32.66-.54.38l-1.6-1.79-.26.91c-.03.12-.16.25-.36.22l-2.02-.43.53 1.94c.11.43.2.61-.12.72l-.72.34 3.48 2.83c.14.11.21.3.16.48l-.31 1 3.47-.4c.11 0 .18.06.18.18l-.21 3.7h.96l-.21-3.7c0-.12.07-.18.18-.18z" fill="#d52b1e"/></svg>