<svg viewBox="0 0 36 36" xmlns="http://www.w3.org/2000/svg"><path d="m32 5h-28c-2.21 0-4 1.79-4 4v10h36v-10c0-2.21-1.79-4-4-4z" fill="#003893"/><path d="m0 19h36v2h-36zm0 5h36v2h-36z" fill="#fff"/><path d="m0 21v3h36v-3z" fill="#cf2027"/><path d="m4 31h28c2.21 0 4-1.79 4-4v-1h-36v1c0 2.21 1.79 4 4 4z" fill="#003893"/><path d="m14.35 15.9.76-.56h-.94l-.29-.9-.29.9h-.94l.76.56-.29.9.76-.56.76.56zm6.18 4.49.76-.56h-.94l-.29-.9-.29.9h-.95l.77.56-.29.9.76-.56.76.56zm-12.36 0 .77-.56h-.95l-.29-.9-.29.9h-.94l.76.56-.29.9.76-.56.76.56zm0 4.02.77-.56h-.95l-.29-.9-.29.9h-.94l.76.56-.29.9.76-.56.76.56zm12.36 0 .76-.56h-.94l-.29-.9-.29.9h-.95l.77.56-.29.9.76-.56.76.56zm-6.36 3.94-.29-.9-.29.9h-.94l.76.56-.29.9.76-.56.76.56-.29-.9.76-.56zm4-.69.76-.56h-.95l-.29-.9-.29.9h-.95l.76.56-.29.9.77-.56.76.56zm0-10.5.76-.56h-.95l-.29-.9-.29.9h-.95l.76.56-.29.9.77-.56.76.56zm-8.59 10.5-.76-.56h.95l.29-.9.29.9h.95l-.76.56.29.9-.77-.56-.76.56zm0-10.5-.76-.56h.95l.29-.9.29.9h.95l-.76.56.29.9-.77-.56-.76.56z" fill="#f7d116"/></svg>