<svg viewBox="0 0 36 36" xmlns="http://www.w3.org/2000/svg"><path d="m32 5h-28c-2.21 0-4 1.79-4 4v4.5h36v-4.5c0-2.21-1.79-4-4-4z" fill="#141414"/><path d="m0 27c0 2.21 1.79 4 4 4h28c2.21 0 4-1.79 4-4v-4.5h-36z" fill="#007a3d"/><path d="m0 13.5h36v9h-36z" fill="#fff"/><path d="m1.35 6c-.83.73-1.35 1.8-1.35 3v18c0 1.19.52 2.26 1.35 3l16.1-12-16.1-12z" fill="#ce1126"/><path d="m6.63 19.34 1.06.98-.11-1.44 1.42-.22-1.19-.81.72-1.25-1.38.42-.53-1.34-.53 1.34-1.38-.42.72 1.25-1.19.81 1.42.22-.1 1.44z" fill="#fff"/><path d="m35.7 13.5h.3v9h-.3z" fill="#9a9996"/></svg>