<svg viewBox="0 0 36 36" xmlns="http://www.w3.org/2000/svg"><path d="m32 5h-28c-.18 0-.36.01-.53.04v25.92c.17.03.35.04.53.04h28c.18 0 .36-.01.53-.04v-25.92c-.17-.03-.35-.04-.53-.04z" fill="#009b3a"/><path d="m32.53 5.04-14.53 10.49-14.53-10.49h-.01c-1.49.2-2.72 1.22-3.22 2.6l5.76 10.36-5.76 10.36c.5 1.38 1.73 2.4 3.22 2.6h.01l14.53-10.49 14.53 10.49c1.49-.2 2.73-1.22 3.23-2.6l-5.76-10.36 5.76-10.36c-.5-1.38-1.73-2.4-3.23-2.6z" fill="#ffd202"/><path d="m35.76 28.36c.16-.42.24-.88.24-1.36v-18c0-.48-.08-.93-.24-1.36l-14.34 10.36zm-21.18-10.36-14.34-10.36c-.16.43-.24.88-.24 1.36v18c0 .48.08.94.24 1.36z" fill="#141414"/></svg>