<svg viewBox="0 0 36 36" xmlns="http://www.w3.org/2000/svg" xmlns:xlink="http://www.w3.org/1999/xlink"><path d="m0 13h36v10h-36z" fill="#fff"/><path d="m36 27c0 2.21-1.79 4-4 4h-28c-2.21 0-4-1.79-4-4v-4h36z" fill="#171796"/><path d="m32 5h-28c-2.21 0-4 1.79-4 4v4h36v-4c0-2.21-1.79-4-4-4z" fill="#d52b1e"/><path d="m11.4 7.44v11.5c0 3.64 2.95 6.59 6.59 6.59s6.59-2.95 6.59-6.59v-11.5h-13.2z" fill="#d52b1e"/><path d="m14.25 18h2.5v2.5h-2.5zm2.5 2.5h2.5v2.5h-2.5zm0-5h2.5v2.5h-2.5zm2.5 2.5h2.5v2.5h-2.5zm0-5h2.5v2.5h-2.5zm2.5 2.5h2.34v2.5h-2.34zm-7.5-2.5h2.5v2.5h-2.5zm7.5 10h.81c.63-.71 1.09-1.56 1.33-2.5h-2.14zm-2.5 0v1.93c.93-.2 1.78-.61 2.5-1.17v-.76zm-5 0v-2.5h-2.14c.25.94.71 1.79 1.33 2.5zm-2.34-7.5h2.34v2.5h-2.34zm2.34 7.5v.76c.72.57 1.57.98 2.5 1.17v-1.93z" fill="#fff"/><path d="m24.8 8.14-2 .79-1.33-1.68-1.83 1.13-1.6-1.43-1.6 1.43-1.83-1.13-1.33 1.68-2-.79-1.12 2.08 1.33 2.86.18-.08c.78-.36 1.6-.66 2.44-.89l.04-.01c.85-.23 1.7-.38 2.52-.45l.06-.01c.71-.06 1.9-.06 2.6 0l.06.01c.82.07 1.68.23 2.54.45l.03.01c.84.23 1.66.52 2.44.89l.18.08 1.33-2.86-1.12-2.08z" fill="#171796"/><path d="m16.6 8.68.22 2.56c.33-.03.73-.05 1.14-.05s.81.03 1.14.05l.22-2.56-1.36-1.21zm7.94-.05-1.7.67-.67 2.49c.73.21 1.45.47 2.14.78l1.09-2.34zm-13.2 0-.87 1.61 1.09 2.34c.69-.31 1.41-.57 2.14-.78l-.67-2.49-1.7-.67z" fill="#0193dd"/><path id="a" d="m0 13h.3v10h-.3z" fill="#9a9996"/><use x="35.7" xlink:href="#a"/></svg>