<svg viewBox="0 0 36 36" xmlns="http://www.w3.org/2000/svg"><path d="m24 12 10.63 18.01c-.7.62-1.62.99-2.63.99h-28c-2.21 0-4-1.79-4-4v-18c0-1.2.53-2.28 1.37-3.01z" fill="#0021ad"/><path d="m34.63 30.01c.84-.73 1.37-1.81 1.37-3.01v-18c0-2.21-1.79-4-4-4h-28c-1.01 0-1.93.37-2.63.99z" fill="#1b8a42"/><path d="m8.52 22.26.17.58h.59l-.46.36.17.57-.46-.36-.46.34.17-.55-.46-.36h.57zm-1.53-6.5-.68.63.07-.92-.91-.14.76-.52-.46-.8.88.27.34-.86.34.86.88-.27-.46.8.76.52-.91.14.07.92zm-3.62 5.31-.68.63.07-.92-.91-.14.76-.52-.46-.8.88.27.34-.86.34.86.88-.27-.46.8.76.52-.91.14.07.92zm7.11-.44-.68.63.07-.92-.91-.14.76-.52-.46-.8.88.27.34-.86.34.86.88-.27-.46.8.76.52-.91.14.07.92zm-3.55 7.74-.68.63.07-.92-.91-.14.76-.52-.46-.8.88.27.34-.86.34.86.88-.27-.46.8.76.52-.91.14.07.92z" fill="#fff"/><path d="m29.62 6.52c.23-.18 2.41 1.97 2.67 2.38.26.42.16 1.97.42 2.67s.49.86.75.7 1.17 0 1.3.34c0 0-.73.44-.78.75 0 0-2.31.8-3.63 1.48-1.32.67-.98.33-2.07.8-1.61.7-3.06.36-4.12.21-1.06-.16-.75-.39 0-.28.75.1 3-.13 3.6-.34s1.76-1.14 2.26-1.37c.49-.23 1.11-1.09.57-1.61-.56-.52-2.19-1.25-2.84-1.95s-.65-.8.36-.65c1.01.16 1.9.69 2.38 1.17.52.52.98-.14.67-.98-.31-.82-.74-.73-1.03-1.48-.28-.75-.75-1.66-.51-1.84zm-15.18 11.48c0-1.97 1.6-3.56 3.56-3.56 1.97 0 3.56 1.6 3.56 3.56 0 1.97-1.6 3.56-3.56 3.56-1.97 0-3.56-1.6-3.56-3.56z" fill="#ffc639"/><path d="m15.86 16.36s1.09 1.01 1.64 1.05c.91.07 1.78-.69 1.78-1.25l.86-.36v1.12l.82.56-1.53 1.4v1.68l-.91-.22-.07-1.17s-.04-.44-.6-.44-1-.04-1.11-.34c-.03-.08-1.51.21-1.51.21l.96-1.34-.32-.34v-.56z" fill="#1b8a42"/></svg>