<svg viewBox="0 0 36 36" xmlns="http://www.w3.org/2000/svg" xmlns:xlink="http://www.w3.org/1999/xlink"><path d="m0 27c0 2.21 1.79 4 4 4h28c2.21 0 4-1.79 4-4v-4h-36z" fill="#da0001"/><path d="m0 13h36v10h-36z" fill="#fff"/><path d="m36 13v-4c0-2.21-1.79-4-4-4h-28c-2.21 0-4 1.79-4 4v4z" fill="#239f40"/><path d="m0 23h36v1h-36z" fill="#e96667"/><g fill="#be1931"><path d="m19.47 14.97c.96.49 3.04 2.95.8 5.73 1.39-.31 3.16-4.41-.8-5.73zm-2.94 0c-3.96 1.32-2.19 5.42-.8 5.73-2.24-2.78-.16-5.24.8-5.73zm1.45-.14c.04.2 1.1.44.97-.57-.17.41-.65.4-.97.21-.43.24-.84.18-.99-.23-.15.75.59.98.98.59z"/><path d="m20.54 17.9c-.02-1.25-.68-2.35-1.33-2.8.43.53 1.75 3.44-.79 5.35l.05-5.1-.48-.42-.48.4.08 5.15-.02-.02c-2.56-1.91-1.23-4.84-.8-5.37-.65.45-1.32 1.55-1.33 2.8-.01 1.07.48 2.24 1.83 3.21-.56.15-1.16.21-1.68.2.46.25 1.34.19 2.01.13v.07l.4.44.4-.46v-.05c.67.06 1.57.13 2.04-.13-.53.01-1.16-.05-1.73-.21 1.34-.96 1.83-2.13 1.82-3.19z"/></g><path d="m0 12h36v1h-36z" fill="#7bc58c"/><path id="a" d="m0 13h.3v10h-.3z" fill="#9a9996"/><use x="35.7" xlink:href="#a"/></svg>