<svg viewBox="0 0 36 36" xmlns="http://www.w3.org/2000/svg"><path d="m32 5h-22.82l-.67.48.37 1.12-.96-.7-.96.7.37-1.12-.66-.48h-2.67c-2.21 0-4 1.79-4 4v18c0 2.21 1.79 4 4 4h19.73l.11-.32-.96-.7h1.18l.37-1.12.37 1.12h1.18l-.96.7.11.32h6.87c2.21 0 4-1.79 4-4v-18c0-2.21-1.79-4-4-4z" fill="#2d3189"/><path d="m6.97 6.61.96-.7.96.7-.36-1.12.65-.49h-2.51l.67.48zm19 23.37h-1.18l-.37-1.12-.37 1.12h-1.18l.96.7-.11.32h1.39l-.11-.32zm-15.97-23.16.36 1.12h1.18l-.96.7.37 1.12-.96-.7-.96.7.37-1.12-.96-.7h1.18zm2.07 3.15.37 1.12h1.18l-.96.7.37 1.12-.96-.69-.96.69.37-1.12-.96-.7h1.18zm2.05 3.15.37 1.12h1.18l-.96.7.37 1.12-.96-.7-.96.7.37-1.12-.96-.7h1.18zm2.06 3.15.37 1.12h1.18l-.96.69.37 1.12-.96-.69-.96.69.37-1.12-.96-.69h1.18zm2.06 3.15.37 1.12h1.18l-.96.69.37 1.12-.96-.7-.96.7.37-1.12-.96-.69h1.18zm2.06 3.15.37 1.12h1.18l-.96.69.36 1.12-.96-.69-.96.69.36-1.12-.96-.69h1.18zm2.05 3.15.37 1.12h1.18l-.96.69.37 1.12-.96-.69-.96.69.37-1.12-.96-.69h1.18z" fill="#e1e8ed"/><path d="m28 31v-26h-17z" fill="#fbd116"/></svg>