<svg viewBox="0 0 36 36" xmlns="http://www.w3.org/2000/svg"><path d="m36 27c0 2.21-1.79 4-4 4h-28c-2.21 0-4-1.79-4-4v-18c0-2.21 1.79-4 4-4h28c2.21 0 4 1.79 4 4z" fill="#d21c33"/><path d="m32 5h-28c-2.21 0-4 1.79-4 4v9h36v-9c0-2.21-1.79-4-4-4z" fill="#00209f"/><path d="m12 13.04h11.91v9.96h-11.91z" fill="#fff"/><path d="m23.91 21.62c-1.5-.76-3.53-1.24-5.9-1.24s-4.51.48-6.01 1.24v1.38h11.91z" fill="#006a16"/><path d="m15.52 16.72 1.17 1.31-.15.82-.25-.14-.23.86h-.06l-.11.45-1.98-.17.05-1.41.48.14.06-1.32.69.47.04-.8z" fill="#00209f"/><path d="m18.01 19.28v2l-1.5-.44-.38-.56-.26-.19.14-.51.23-.88h.35l.09-.74zm-4.31-.91c.18-.21.51-.07.52 0s-.13.06-.26.18-.1.49-.32.44c-.23-.05.06-.62.06-.62zm.81-1.12c.23-.16.51.07.5.15s-.14.02-.3.1-.23.44-.43.33.23-.58.23-.58zm.95-.68c.25-.13.5.14.48.21s-.19-.05-.36 0c-.17.06-.23.47-.42.33-.19-.13.3-.54.3-.54z" fill="#d21c33"/><path d="m14.95 16.02.77.47-.09.23 2.09 2.31v.18l-2.17-2.43-.28-.05zm-1.11.7s.78.3.78.33.14.27.14.27l2.82 2.29-.08.11-2.8-2.29-.41-.18zm-.82 1.17s.89.13.91.16.07.24.07.24l3.28 1.79-.14.08-3.19-1.77-.37-.02z" fill="#f1b517"/><path d="m13.79 19.59 3.37.41-.32.38-.5.05.37.5-.18.2-.5-.55s-.16.8-.83.8-.9-.68-.9-.91.06-.35.06-.35h-.64z" fill="#f1b517"/><path d="m20.45 16.65-1.22 1.44.05.83.31-.21.23.86h.06l.11.45 1.98-.17-.05-1.41-.48.14-.06-1.32-.69.47-.04-.8z" fill="#00209f"/><path d="m18.01 19.28v2l1.44-.44.35-.56.25-.19-.15-.51-.24-.88-.27.2-.09-.82zm4.18-.91c-.18-.21-.51-.07-.53 0-.01.07.13.06.26.18s.1.49.32.44c.23-.05-.06-.62-.06-.62zm-.81-1.12c-.23-.16-.51.07-.5.15.01.07.14.02.3.1s.23.44.43.33-.23-.58-.23-.58zm-.95-.68c-.25-.13-.5.14-.48.21s.19-.05.36 0c.17.06.24.47.42.33.19-.13-.3-.54-.3-.54z" fill="#d21c33"/><path d="m20.94 16.02-.77.47.15.23-2.02 2.31v.18l2.1-2.43.25-.05zm1.11.7s-.77.3-.77.33-.14.27-.14.27l-2.82 2.29.08.11 2.8-2.29.4-.18zm.82 1.17s-.89.13-.91.16c-.01.04-.07.24-.07.24l-3.28 1.79.14.08 3.19-1.76.37-.02z" fill="#f1b517"/><path d="m22.09 19.59-3.37.41.32.38.5.05-.37.5.18.2.5-.55s.16.8.83.8c.68 0 .89-.68.89-.91s-.06-.35-.06-.35h.64z" fill="#f1b517"/><path d="m22.86 22.14s-.59.02-1.21-.11c-.62-.14-.73-.38-1-.32s-.89.28-1.4.35c-.51.06-1.25.09-1.25.09s-.68-.02-1.19-.09-1.08-.3-1.35-.35-.38.19-1 .32c-.62.14-1.21.11-1.21.11l.16.29-.16.14c1.4.03 2.05-.43 2.05-.43.7.46 2.7.48 2.7.48s2.06-.01 2.76-.48c0 0 .68.45 2.08.43l-.15-.14z" fill="#fff"/><path d="m18.29 17.89c0 1.49-.13 2.7-.29 2.7s-.29-1.21-.29-2.7.13-2.7.29-2.7.29 1.21.29 2.7z" fill="#f1b517"/><path d="m17.43 20.43h1.14v1.15h-1.14z" fill="#d21c33"/><path d="m18.65 20.35c0 .13-.27.24-.61.24s-.61-.11-.61-.24.28-.24.61-.24c.34 0 .61.11.61.24z" fill="#fff"/><path d="m18.65 21.5c0 .13-.27.24-.61.24s-.61-.11-.61-.24.28-.24.61-.24c.34 0 .61.11.61.24z" fill="#d21c33"/><path d="m20.51 14.69c-.23-.27-.82-.26-1.22-.27s-.6.13-.42-.06.46-.14.75-.16c.29-.01.34-.05.16-.14s-.49-.21-.91-.11c-.41.11-.67.36-.89.4-.22-.04-.49-.3-.9-.4-.42-.11-.74.01-.92.11s-.13.13.16.14.56-.04.74.16-.02.05-.42.06-.99 0-1.22.27.2.1.43.06.56-.05.56-.05-.56.17-.72.38.05.41.33.24c.29-.17.73-.39.97-.42 0 0-.62.26-.89.48s.01.2.22.2.42-.08.6-.22c.18-.13-.12.26-.17.51s.32.19.39 0 .28-.57.28-.57-.09.55-.08.92.13.39.23.23.43.1.43.1.3-.27.4-.1.19.14.2-.23-.08-.92-.08-.92.21.38.28.57.44.25.39 0-.35-.64-.17-.51.39.22.6.22.5.02.22-.2c-.27-.22-.89-.48-.89-.48.24.02.68.25.97.42s.49-.02.33-.24-.72-.38-.72-.38.33.01.56.05.65.22.43-.06z" fill="#006a16"/></svg>