<svg viewBox="0 0 36 36" xmlns="http://www.w3.org/2000/svg"><rect fill="#fff" height="25.8" ry="3.9" stroke="#77767b" stroke-width=".2" width="35.8" x=".1" y="5.1"/><path d="m8.41 26.42c.03.62.1 1.24.22 1.86-.59-.07-1.18-.07-1.77 0 .12-.62.19-1.24.22-1.86-.62.03-1.24.1-1.86.22.07-.59.07-1.18 0-1.77.62.12 1.24.19 1.86.22-.03-.62-.1-1.24-.22-1.86.59.07 1.18.07 1.77 0-.12.62-.19 1.24-.22 1.86.62-.03 1.24-.1 1.86-.22-.07.59-.07 1.18 0 1.77-.62-.12-1.24-.19-1.86-.22zm20.5 0c.03.62.1 1.24.22 1.86-.59-.07-1.18-.07-1.77 0 .12-.62.19-1.24.22-1.86-.62.03-1.24.1-1.86.22.07-.59.07-1.18 0-1.77.62.12 1.24.19 1.86.22-.03-.62-.1-1.24-.22-1.86.59.07 1.18.07 1.77 0-.12.62-.19 1.24-.22 1.86.62-.03 1.24-.1 1.86-.22-.07.59-.07 1.18 0 1.77-.62-.12-1.24-.19-1.86-.22zm-20.5-16.83c.04-.63.11-1.25.23-1.86-.59.07-1.19.07-1.77 0 .11.61.19 1.23.22 1.86-.63-.04-1.25-.11-1.86-.23.07.59.07 1.18 0 1.77.62-.12 1.24-.19 1.86-.22-.03.62-.1 1.24-.22 1.86.59-.07 1.18-.07 1.77 0-.12-.62-.19-1.24-.22-1.86.62.03 1.24.1 1.86.22-.07-.59-.07-1.18 0-1.77-.62.12-1.24.19-1.86.22zm20.5 0c.03-.62.1-1.24.22-1.86-.59.07-1.18.07-1.77 0 .12.62.19 1.24.22 1.86-.62-.03-1.24-.1-1.86-.22.07.59.07 1.18 0 1.77.62-.12 1.24-.19 1.86-.22-.03.62-.1 1.24-.22 1.86.59-.07 1.18-.07 1.77 0-.12-.62-.19-1.24-.22-1.86.62.03 1.24.1 1.86.22-.07-.59-.07-1.18 0-1.77-.62.12-1.24.19-1.86.22zm-8.41-4.59h-5v10.5h-15.5v5h15.5v10.5h5v-10.5h15.5v-5h-15.5z" fill="#e8112d"/></svg>