<svg viewBox="0 0 36 36" xmlns="http://www.w3.org/2000/svg" xmlns:xlink="http://www.w3.org/1999/xlink"><path d="m0 27c0 2.21 1.79 4 4 4h28c2.21 0 4-1.79 4-4v-4h-36z" fill="#141414"/><path d="m0 13h36v10h-36z" fill="#fff"/><path d="m32 5h-28c-2.21 0-4 1.79-4 4v4h36v-4c0-2.21-1.79-4-4-4z" fill="#dd2e44"/><g fill="#007a3c"><path d="m11.23 18.06v1.23h5.65v-.74c0-.33-.37-.31-.37-.06v.55h-4.42v-.86l3.1-3.1.47.5-2.82 2.85h2.93s.13-.86.93-.86l.91.64v2.31h-8.23s-.21 1.09-1.45.94c0 0 .86-.57.86-1.25s-.55-1.21-.55-1.21l.78-.49s.08.42.16.54.39.24.39.24h1.04l-.01-.55-.15-.07zm8.3 1-.17.23h-.49c0-1.15.01-3.42 0-3.44-.01-.03.22-.19.22-.19l-.98-.54v5.41h1.84zm5.46-3.09v3.32h-.49v-2.95l-.62.62v2.34h-.49v-1.97l-.61.62v.01l-.13.13.13.05v.46c-.59-.3-1.23.16-1.23.71v1.23h4.05v-5.16zm-2.56 3.32h-.04c-.25 0-.22-.33.12-.33.19 0 .25.1.27.19v.14zm1.32-4.21c0 .15-.05.28-.11.28s-.11-.12-.11-.28.05-.28.11-.28.11.12.11.28zm-1.03.75s.18.18.52.12c.34-.05.45-.36.45-.36s.19.32.41.27.41-.39.41-.39.01.54-.31.59-.45-.17-.45-.17-.16.25-.47.27-.56-.33-.56-.33zm4.94 3.21-.27.26h-.43v-3.49l.26-.11-.99-.57v5.41h1.85z"/><path d="m10.72 21.13c0 .15-.12.27-.27.27s-.27-.12-.27-.27.12-.27.27-.27.27.12.27.27z"/></g><path id="a" d="m0 13h.3v10h-.3z" fill="#9a9996"/><use x="35.7" xlink:href="#a"/></svg>