<svg viewBox="0 0 36 36" xmlns="http://www.w3.org/2000/svg"><path d="m4 31h28c.7 0 1.36-.18 1.94-.5h-31.87c.57.32 1.23.5 1.94.5z" fill="#0d5eb0"/><path d="m8.5 19.5h-8.5v2.5h36v-2.5h-22zm-8.5 7.5c0 .17.01.34.04.5h35.93c.02-.16.03-.33.03-.5v-2h-36zm14-13h22v2.5h-22zm0-5.5v2.5h22v-2c0-.17-.01-.34-.04-.5z" fill="#fff"/><path d="m14 11h22v3h-22zm-14 11h36v3h-36zm2.07 8.5h31.87c1.09-.61 1.87-1.71 2.03-3h-35.93c.16 1.29.94 2.4 2.03 3zm-2.07-16.5h5.5v5.5h-5.5zm14 2.5v-2.5h-5.5v5.5h27.5v-3zm19.93-11c-.57-.32-1.23-.5-1.93-.5h-28c-.7 0-1.36.18-1.94.5-1.09.61-1.86 1.71-2.03 3-.02.16-.03.33-.03.5v2h5.5v-5.5h3v5.5h5.5v-2.5h21.97c-.16-1.29-.94-2.4-2.03-3z" fill="#0d5eb0"/><path d="m8.5 11v-6h-3v6h-5.5v3h5.5v5.5h3v-5.5h5.5v-3z" fill="#fff"/></svg>