<svg viewBox="0 0 36 36" xmlns="http://www.w3.org/2000/svg"><path d="m32 5h-28c-2.209 0-4 1.791-4 4v4.5h36v-4.5c0-2.209-1.791-4-4-4z" fill="#141414"/><path d="m0 27c0 2.21 1.79 4 4 4h28c2.21 0 4-1.79 4-4v-4.5h-36z" fill="#007a3d"/><path d="m0 13.5h36v9h-36z" fill="#fff"/><path d="m1.35 6h-.001c-.828.733-1.35 1.8-1.35 3v18c0 1.19.522 2.26 1.35 3l16.1-12-16.1-12z" fill="#ce1126"/><path d="m6.627 19.338 1.056.976-.105-1.435 1.422-.217-1.187-.812.717-1.247-1.375.421-.528-1.338-.528 1.338-1.375-.421.716 1.247-1.186.812 1.421.217-.104 1.435z" fill="#fff"/><path d="m35.7 13.5h.3v9h-.3z" fill="#9a9996"/></svg>