<svg viewBox="0 0 36 36" xmlns="http://www.w3.org/2000/svg"><path d="m32 5h-28c-2.21 0-4 1.79-4 4v18c0 2.21 1.79 4 4 4h28c2.21 0 4-1.79 4-4v-18c0-2.21-1.79-4-4-4z" fill="#009e49"/><path d="m1.81 5.65c-.15.1-.3.21-.44.33v24.02c.14.12.29.23.44.34l34.19-12.34z" fill="#fff"/><path d="m3.17 28.71 29.33-10.71-29.33-10.71z" fill="#fcd116"/><path d="m18 18-14.83-10.71-1.8-1.3c-.31.27-.58.59-.79.94l.02 22.13c.21.35.46.68.77.96l1.8-1.3z" fill="#141414"/><path d="m.58 6.93c-.37.61-.58 1.31-.58 2.07v18c0 .76.23 1.45.59 2.06l15.41-11.06z" fill="#ce1126"/></svg>