<svg viewBox="0 0 36 36" xmlns="http://www.w3.org/2000/svg"><path d="m32 5h-28c-2.21 0-4 1.79-4 4v18c0 2.21 1.79 4 4 4h28c2.21 0 4-1.79 4-4v-18c0-2.21-1.79-4-4-4z" fill="#ce1126"/><path d="m3.5 8.5h29v19h-29z" fill="#007a5e"/><path d="m3.5 8.5h29l-29 19h29z" fill="#fcd116"/><circle cx="18" cy="18" fill="#ce1126" r="3.5"/><path d="m18 14.8.72 2.21h2.33l-1.88 1.37.72 2.21-1.88-1.37-1.88 1.37.72-2.21-1.88-1.37h2.33zm0-9.62.39 1.19h1.25l-1.01.73.39 1.19-1.01-.73-1.01.73.39-1.19-1.01-.73h1.25zm8.02 0 .39 1.19h1.25l-1.01.73.39 1.19-1.01-.73-1.01.73.39-1.19-1.01-.73h1.25zm-16.04 0 .39 1.19h1.25l-1.01.73.39 1.19-1.01-.73-1.01.73.39-1.19-1.01-.73h1.25zm8.02 22.5.39 1.19h1.25l-1.01.73.39 1.19-1.01-.73-1.01.73.39-1.19-1.01-.73h1.25zm8.02 0 .39 1.19h1.25l-1.01.73.39 1.19-1.01-.73-1.01.73.39-1.19-1.01-.73h1.25zm-16.04 0 .39 1.19h1.25l-1.01.73.39 1.19-1.01-.73-1.01.73.39-1.19-1.01-.73h1.25z" fill="#fcd116"/><path d="m6.12 19.07c.3.32.65.58.96.71.01-.35-.06-.75-.16-1.15-.27-.25-.57-.46-.87-.58-.04.32-.01.67.07 1.01z" fill="#ce1126"/><path d="m7.64 19.56c.8-2.92-2.06-2.74-2.8-3.67.51 1.07-1.33 3.62 1.74 4.21-.2-.28-.37-.65-.46-1.04-.08-.34-.11-.7-.07-1.01.3.11.6.33.87.58.31.29.58.64.73.93z" fill="#fcd116"/></svg>