<svg viewBox="0 0 36 36" xmlns="http://www.w3.org/2000/svg"><path d="m36 27c0 2.21-1.79 4-4 4h-28c-2.21 0-4-1.79-4-4v-18c0-2.21 1.79-4 4-4h28c2.21 0 4 1.79 4 4z" fill="#cf1b2b"/><circle cx="17.64" cy="16.58" fill="#f8dc15" r="1.38"/><circle cx="17.64" cy="17.32" fill="#f8dc15" r="1.38"/><path d="m9.86 12.11c.41-.2 1.33 1.54 2.06 1.5s2.62-1.44 3.65-1.54c0 0 0-.44.86-.44s.99.43 1.07.99c0 0 .69 1.07.99 1.89s.3 1.37.3 1.37-.64.64-1.03.69-1.46-.34-1.46-.34-.21-1.63-.3-2.12l-.3-.32s-.43.47-1.2.6-1.97.09-2.4.17-.39.64-.77.6-.09-.9-.77-1.37c-.69-.47-1.2-1.42-.69-1.67zm7.56 14.08c-.38-.25.67-1.93.27-2.54s-2.56-1.55-3.15-2.39c0 0-.38.22-.81-.53-.43-.74-.12-1.07.32-1.42 0 0 .59-1.13 1.14-1.8.56-.67 1.04-.95 1.04-.95s.88.24 1.11.55.43 1.44.43 1.44-1.3 1-1.69 1.32l-.13.42s.62.14 1.12.74 1.06 1.67 1.35 1.99.75.01.91.37c.16.35-.74.52-.8 1.35-.07.83-.63 1.75-1.11 1.43zm8.37-13.53c-.03.46-2 .38-2.33 1.03s-.06 2.99-.49 3.93c0 0 .38.22-.05.96s-.87.64-1.39.44c0 0-1.27.06-2.13-.09s-1.34-.43-1.34-.43-.24-.88-.08-1.24 1.03-1.09 1.03-1.09 1.52.63 1.99.8l.43-.1s-.2-.61.08-1.34c.27-.73.91-1.75 1.05-2.17s-.36-.66-.13-.97.82.38 1.57.02 1.83-.33 1.79.24z" fill="#fff"/><path d="m11.63 14.89.38.33.48-.12-.2.46.27.42-.5-.04-.32.38-.11-.49-.46-.18.43-.26zm7.32 8.37.1-.49-.35-.36.49-.06.23-.44.21.45.49.08-.36.34.07.49-.43-.24zm3.55-10.46-.47.16-.13.48-.3-.4-.5.02.29-.41-.17-.47.48.14.39-.31.01.5z" fill="#f8dc15"/></svg>