<svg viewBox="0 0 36 36" xmlns="http://www.w3.org/2000/svg"><path d="m32 5h-11l-3 2-3-2h-11c-2.21 0-4 1.79-4 4v2.5l3 2.5h30l3-2.5v-2.5c0-2.21-1.79-4-4-4z" fill="#003082"/><path d="m0 11.5h36v6.5l-3 3h-30l-3-3z" fill="#fff"/><path d="m0 18h36v6.5l-3 2.5h-30l-3-2.5z" fill="#289728"/><path d="m0 24.5v2.5c0 2.21 1.79 4 4 4h11l3-2 3 2h11c2.21 0 4-1.79 4-4v-2.5z" fill="#ffce00"/><path d="m15 5h6v26h-6z" fill="#d21034"/><path d="m6.88 7.61-.68-2.09-.68 2.09h-2.2l1.78 1.29-.68 2.09 1.78-1.29 1.78 1.29-.68-2.09 1.78-1.29z" fill="#ffce00"/></svg>