<svg viewBox="0 0 36 36" xmlns="http://www.w3.org/2000/svg"><path d="m32 5h-28c-2.21 0-4 1.79-4 4v4.5h36v-4.5c0-2.21-1.79-4-4-4z" fill="#141414"/><path d="m0 27c0 2.21 1.79 4 4 4h28c2.21 0 4-1.79 4-4v-4.5h-36z" fill="#007a3d"/><path d="m0 13.5h36v9h-36z" fill="#fff"/><path d="m1.13 6.22c-.7.72-1.13 1.7-1.13 2.78v18c0 1.08.43 2.06 1.13 2.78l10.87-11.78z" fill="#c4111b"/><g fill="#c4111b"><path d="m17.9 18c0-1.69 1.21-3.1 2.82-3.4-.21-.04-.43-.06-.65-.06-1.92 0-3.47 1.55-3.47 3.47s1.55 3.47 3.47 3.47c.22 0 .44-.02.65-.06-1.6-.3-2.82-1.71-2.82-3.4z"/><path d="m19.1 20.1 1.48-1.06 1.47 1.07-.55-1.73 1.47-1.06-1.82-.01-.56-1.73-.57 1.72-1.82-.01 1.46 1.08-.57 1.73z"/></g><path d="m35.7 13.5h.3v9h-.3z" fill="#9a9996"/></svg>