<svg viewBox="0 0 36 36" xmlns="http://www.w3.org/2000/svg"><path d="m4 5c-2.21 0-4 1.79-4 4v13.05l2 .95-2 1.03v1.97l2 1-1.87.97c.44 1.74 2 3.03 3.87 3.03h28c1.87 0 3.43-1.29 3.87-3.03l-1.87-.97 2-1v-1.97l-2-1.03 2-.95v-13.05c0-2.21-1.79-4-4-4z" fill="#4189dd"/><path d="m5.33 6.33-.94 3.06-3.06.94 3.06.95.94 3.05.95-3.05 3.05-.95-3.05-.94z" fill="#fff"/><path d="m5.33 7.25-.73 2.36-2.36.73 2.36.73.73 2.36.73-2.36 2.36-.73-2.36-.73z" fill="#d21034"/><path d="m0 22.06h36v1.97h-36zm0 4.94c0 .34.05.66.13.97h35.73c.08-.31.13-.64.13-.97v-1h-35.99z" fill="#f9d616"/></svg>