<svg viewBox="0 0 36 36" xmlns="http://www.w3.org/2000/svg"><path d="m12 20v-13l.8-1.85h19.2c2.13 0 3.85 1.77 3.85 3.9v9.15l-2.85 1.8z" fill="#fff" stroke="#9a9996" stroke-width=".3"/><path d="m13 5h-9c-2.21 0-4 1.79-4 4v9l6 6 7-6zm-4.66 9.29-1.88-1.37-1.88 1.37.72-2.21-1.88-1.37h2.33l.72-2.21.72 2.21h2.33l-1.88 1.37.72 2.21z" fill="#1f429b"/><path d="m0 18v9c0 2.21 1.79 4 4 4h28c2.21 0 4-1.79 4-4v-9z" fill="#d42d27"/><path d="m7.17 10.7-.72-2.21-.72 2.21h-2.33l1.88 1.37-.72 2.21 1.88-1.37 1.88 1.37-.72-2.21 1.88-1.37z" fill="#fff"/></svg>