<svg viewBox="0 0 36 36" xmlns="http://www.w3.org/2000/svg"><rect fill="#00b5e2" height="26" ry="4" width="36" y="5"/><path d="m18.27 17.76-.25-.77-.25.77h-.81l.65.47-.25.77.66-.47.65.47-.25-.77.65-.47zm5.33 2.48-.25.77.65-.47.65.47-.25-.77.65-.47h-.8l-.25-.77-.25.77h-.8zm.65-4.48-.25-.77-.25.77h-.8l.65.47-.25.77.65-.47.65.47-.25-.77.66-.47zm-12.71 4.48-.25.77.65-.47.65.47-.24-.77.65-.47h-.81l-.24-.77-.25.77h-.81zm.65-4.48-.25-.77-.25.77h-.8l.65.47-.25.77.66-.47.65.47-.25-.77.65-.47zm-11.99-1.76h35.6v8h-35.6z" fill="#fff"/></svg>