<svg viewBox="0 0 36 36" xmlns="http://www.w3.org/2000/svg" xmlns:xlink="http://www.w3.org/1999/xlink"><path d="m0 27a4 4 0 0 0 4 4h28a4 4 0 0 0 4-4v-5h-36z" fill="#138808"/><path d="m36 14v-5a4 4 0 0 0 -4-4h-28a4 4 0 0 0 -4 4v5z" fill="#f93"/><path d="m0 13.7h36v8.67h-36z" fill="#f7f7f7"/><circle cx="18" cy="18" fill="#000080" r="4"/><circle cx="18" cy="18" fill="#f7f7f7" r="3.38"/><path d="m18.1 16.75-.1.65-.1-.65.1-1.95zm-.93-1.84.41 1.91.27.6-.07-.65zm-.77.32.89 1.74.41.51-.24-.61zm-.66.51 1.31 1.45.53.39-.39-.53zm-.51.66 1.64 1.06.61.24-.51-.41zm-.32.77 1.86.6.65.07-.6-.27zm-.11.83 1.95.1.65-.1-.65-.1zm.11.83 1.91-.41.6-.27-.65.07zm.32.77 1.74-.89.51-.41-.61.24zm.51.66 1.45-1.31.39-.53-.53.39zm.66.51 1.06-1.64.24-.61-.41.51zm.77.32.6-1.86.07-.65-.27.6zm.83.11.1-1.95-.1-.65-.1.65zm.83-.11-.41-1.91-.27-.6.07.65zm.77-.32-.89-1.74-.41-.51.24.61zm.66-.51-1.31-1.45-.53-.39.39.53zm.51-.66-1.64-1.06-.61-.24.51.41zm.32-.77-1.86-.6-.65-.07.6.27zm.11-.83-1.95-.1-.65.1.65.1zm-.11-.83-1.91.41-.6.27.65-.07zm-.32-.77-1.74.89-.51.41.61-.24zm-.51-.66-1.45 1.31-.39.53.53-.39zm-.66-.51-1.06 1.64-.24.61.41-.51zm-.77-.32-.6 1.86-.07.65.27-.6z" fill="#6666b3"/><g fill="#000080"><circle cx="17.6" cy="14.7" r=".2"/><circle cx="16.7" cy="14.9" r=".2"/><circle cx="15.9" cy="15.3" r=".2"/><circle cx="15.3" cy="15.9" r=".2"/><circle cx="14.9" cy="16.7" r=".2"/><circle cx="14.7" cy="17.6" r=".2"/><circle cx="14.7" cy="18.4" r=".2"/><circle cx="14.9" cy="19.3" r=".2"/><circle cx="15.3" cy="20.1" r=".2"/><circle cx="15.9" cy="20.7" r=".2"/><circle cx="16.7" cy="21.1" r=".2"/><circle cx="17.6" cy="21.3" r=".2"/><circle cx="18.4" cy="21.3" r=".2"/><circle cx="19.3" cy="21.1" r=".2"/><circle cx="20.1" cy="20.7" r=".2"/><circle cx="20.7" cy="20.1" r=".2"/><circle cx="21.1" cy="19.3" r=".2"/><circle cx="21.3" cy="18.4" r=".2"/><circle cx="21.3" cy="17.6" r=".2"/><circle cx="21.1" cy="16.7" r=".2"/><circle cx="20.7" cy="15.9" r=".2"/><circle cx="20.1" cy="15.3" r=".2"/><circle cx="19.3" cy="14.9" r=".2"/><circle cx="18.4" cy="14.7" r=".2"/><circle cx="18" cy="18" r=".9"/></g><path id="a" d="m0 13.7h.3v8.67h-.3z" fill="#9a9996"/><use x="35.7" xlink:href="#a"/></svg>