<svg viewBox="0 0 36 36" xmlns="http://www.w3.org/2000/svg"><path d="m32 5h-28c-2.21 0-4 1.79-4 4v18c0 2.21 1.79 4 4 4h28c2.21 0 4-1.79 4-4v-18c0-2.21-1.79-4-4-4z" fill="#009b3a"/><path d="m35.76 28.36c.15-.43.24-.88.24-1.36v-18c0-.48-.08-.94-.24-1.36l-14.34 10.36 14.35 10.36zm-21.18-10.36-14.34-10.36c-.16.43-.24.88-.24 1.36v18c0 .48.08.94.24 1.36z" fill="#141414"/><path d="m32.53 5.04-14.53 10.49-14.53-10.49c-1.5.2-2.73 1.22-3.23 2.6l14.34 10.36-14.34 10.36c.5 1.38 1.73 2.4 3.22 2.6l14.54-10.49 14.53 10.5c1.49-.2 2.73-1.22 3.23-2.6l-14.34-10.37 14.34-10.36c-.5-1.38-1.73-2.4-3.23-2.6z" fill="#ffd202"/></svg>