<svg viewBox="0 0 36 36" xmlns="http://www.w3.org/2000/svg"><path d="m0 13h36v10h-36z" fill="#e00034"/><path d="m32 5h-28c-2.21 0-4 1.79-4 4v4h36v-4c0-2.21-1.79-4-4-4z" fill="#0098c3"/><g fill="#fff"><path d="m17.84 21.33c-1.84 0-3.33-1.49-3.33-3.33s1.49-3.33 3.33-3.33c.98 0 1.87.43 2.48 1.1-.72-1.07-1.94-1.77-3.32-1.77-2.21 0-4 1.79-4 4s1.79 4 4 4c1.38 0 2.6-.7 3.32-1.77-.61.68-1.49 1.1-2.48 1.1z"/><path d="m23.67 18-1.2-.42.54-1.15-1.15.55-.43-1.2-.42 1.2-1.14-.54.55 1.15-1.2.43 1.2.42-.54 1.15 1.14-.54h.01l.43 1.2.42-1.2 1.15.54-.55-1.15z"/></g><path d="m4 31h28c2.21 0 4-1.79 4-4v-4h-36v4c0 2.21 1.79 4 4 4z" fill="#00ae65"/></svg>