<svg viewBox="0 0 36 36" xmlns="http://www.w3.org/2000/svg" xmlns:xlink="http://www.w3.org/1999/xlink"><path d="m36 27c0 2.21-1.79 4-4 4h-28c-2.21 0-4-1.79-4-4v-5h36z" fill="#009543"/><path d="m32 5h-28c-2.21 0-4 1.79-4 4v5h36v-5c0-2.21-1.79-4-4-4z" fill="#00209f"/><path d="m0 13h36v10h-36z" fill="#fff"/><g clip-rule="evenodd" fill-rule="evenodd"><path d="m21.2 19.86c-.02-.05-.43.14-.43.14l-1.85-2.36c.23-.41.49-1.07.49-1.9 0-1.24-.66-1.57-1.08-1.65v-.06c0-.17-.14-.31-.31-.31h-.06c-.17 0-.31.14-.31.31v.06c-.42.09-1.08.41-1.08 1.65 0 .85.28 1.53.5 1.93l-1.76 2.34s-.36-.19-.38-.14-.75 1.22-.75 1.22 1.56 1.02 3.8 1.02c2 0 3.87-1.02 3.87-1.02s-.66-1.17-.67-1.22zm-2.11-4.08c0 .55-.22 1.16-.42 1.53l-.35-.45c0-.02.02-.03.02-.05v-.73h.49l-.49-.49v-1.12c.49.17.75.72.75 1.31zm-2.19 0c0-.59.26-1.14.75-1.31v1.12l-.49.49h.49v.73c0 .03.02.04.03.06l-.35.46c-.2-.37-.43-.98-.43-1.55z" fill="#292f33"/><path d="m20.8 20.34s-1.42.53-2.8.53-2.8-.53-2.8-.53l-.34.65s1.45.65 3.14.65 3.14-.65 3.14-.65z" fill="#53646d"/></g><path id="a" d="m0 13h.3v10h-.3z" fill="#9a9996"/><use x="35.7" xlink:href="#a"/></svg>