<svg viewBox="0 0 36 36" xmlns="http://www.w3.org/2000/svg"><path d="m20 18-18.3 12.1c-.915-.703-1.5-1.81-1.5-3.06v-18c0-1.34.679-2.52 1.71-3.21z" fill="#fff" stroke="#9a9996" stroke-width=".3"/><path d="m36 26.9c0 2.21-1.79 4-4 4l-28 .0625c-1.04.00232-1.99-.396-2.7-1.05l15.7-12 18-1 1 1z" fill="#032a87"/><path d="m32 5h-28c-1.03 0-1.96.387-2.67 1.02l15.7 12h19v-9c0-2.21-1.79-4-4-4z" fill="#dc181e"/><path d="m8.62 14.7c0 .915-.962 1.66-2.15 1.66-1.19 0-2.15-.742-2.15-1.66s.962-1.66 2.15-1.66 2.15.742 2.15 1.66z" fill="#fada10"/><path d="m3.854 14.042c.46-.46 2.119-.438 2.622-.146-.56-.754.212-.396.816-.396.604-.001.771.186.375.228-.396.043-.729-.02-.625.105s.709.019 1.25-.105c.542-.124 1.166.334 1.208.418s-.958-.125-1.312 0-.917.104-.875.229-.589.208-.836.146-1.269-.042-1.102-.146.375-.229.458-.271c.084-.042-1.25-.083-1.979-.062z" fill="#bd725f"/><path d="m10.156 14.562s-.939.477-1.891.25c-1.047-.25-1.812-.139-1.812.141 0-.28-.766-.391-1.812-.141-.951.227-1.891-.25-1.891-.25s.694 1.109.281 3.328c-.422 2.266-.297 3.297 1.49 3.364 1.511.057 1.932.511 1.932.511s.421-.454 1.932-.511c1.787-.067 1.912-1.099 1.49-3.364-.413-2.218.281-3.328.281-3.328z" fill="#dc181e"/><path d="m9.47 18.6c-.531-1.83.031-3.33.031-3.33s-.828.25-1.75-.016-1.3.188-1.3.188-.375-.453-1.3-.188c-.922.266-1.75.016-1.75.016s.562 1.5.031 3.33.766 2.09 1.64 2.08 1.38.484 1.38.484.5-.5 1.38-.484 2.17-.25 1.64-2.08z" fill="#63b0e2"/><path d="m8.547 19.891v-.907h.203v-.359h-.219v-.969h.203l-1.672-1.109v-.453h.25l-.859-.578-.859.578h.25v.453l-1.672 1.109h.203v.969h-.219v.359h.203v.907h-.25v.453h4.688v-.453zm.164-3.774c0 .358-.073.492-.164.492s-.164-.134-.164-.492.164-.648.164-.648.164.29.164.648z" fill="#fff"/><path d="m9.18 16.656h-1.266c0-.172.283-.312.633-.312.349 0 .633.14.633.312z" fill="#fff"/><path d="m4.875 16.188s-.234.422-.281.672-.188-.156-.188-.156-.25.25-.312.344-.078-.719 0-.828-.188-.078-.281-.125c-.094-.047.203-.344.203-.344s-.406-.188-.266-.234c.141-.047.656-.016.828.125s.578-.094.734-.125 0 .156-.125.266c-.125.109-.062.391-.062.531s-.25-.126-.25-.126z" fill="#018830"/><path d="m5.578 18.203h1.844v.531h-1.844zm-.89-.437h.562v.734h-.562zm0 1.234h.562v.734h-.562zm3.015-1.234h.562v.734h-.562zm0 1.234h.562v.734h-.562zm-1.656-2.781h.844v.391h-.844z" fill="#b6b6b6"/><path d="m11.5 18.766-.156-.891-.828.266.25 1.203.188.047s.016.969-.719 1.719-2.031.75-2.031.75-.672.484-1.75.484-1.75-.484-1.75-.484-1.297 0-2.031-.75-.719-1.719-.719-1.719l.188-.047.25-1.203-.828-.266-.156.891-.297.031s.016 1.75.625 2.672 1.969 1.203 1.969 1.203.016.109.047.219c.891.516 2.703.547 2.703.547s1.812-.031 2.703-.547c.031-.109.047-.219.047-.219s1.359-.281 1.969-1.203c.609-.922.625-2.672.625-2.672z" fill="#fada10"/></svg>