<svg viewBox="0 0 36 36" xmlns="http://www.w3.org/2000/svg"><rect fill="#fff" height="12" ry="3.85" stroke="#db161b" stroke-width=".2" width="30.9" x="5" y="5.1"/><path d="m8 31h24c2.21 0 4-1.79 4-4v-4l-1-1h-27z" fill="#008000"/><path d="m36 13h-27v-8h-5c-2.21 0-4 1.79-4 4v18c0 2.21 1.79 4 4 4h5v-8h27z" fill="#db161b"/><g fill="#eee"><path d="m3.63 8.45c.31.57.31.79.22.84s-.24-.09-.55-.66-.67-1.35-.58-1.4.6.65.91 1.21zm1.89-.35c-.31.57-.49 1.07-.4 1.12s.42-.37.73-.94.49-1.07.4-1.12-.42.37-.73.94zm-.56.91-.3-1.42-.03-.01c.1-.05.18-.13.18-.24 0-.16-.15-.29-.33-.29s-.33.13-.33.29c0 .11.08.19.18.24l-.28 1.44z"/><path d="m6.7 11.77c-.27-.23-1.35-1.16-1.86-1.72.05-.16.07-.33.06-.52h.02v.01h.89v.17h1.09v-.53h-1.09v.17h-.89v.01h-.03v-.27h-.81v.27h-.33v.02h-.64v-.22h-1.03v.58h1.03v-.22h.64v.02h.28l-.04.37s-1.04.05-1.32.09c-.69.11-.47.31.09.5.26.09.52.12.76.13-.4.42-1.21 1.05-1.4 1.16-.22.13-.22.28.2.19.41-.09 1.36-.93 1.68-1.35l.28-.01c.15-.01.27-.1.37-.22.43.51 1.26 1.25 1.6 1.46.36.22.53.21.65.19s.06-.05-.22-.29z"/></g></svg>