<svg viewBox="0 0 36 36" xmlns="http://www.w3.org/2000/svg"><path d="m0 18v9c0 2.21 1.79 4 4 4h28c2.21 0 4-1.79 4-4v-9z" fill="#3a75c4"/><path d="m36 18v-9c0-2.21-1.79-4-4-4h-28c-2.21 0-4 1.79-4 4v9z" fill="#ffc61e"/><path d="m0 18h36v6.5h-36z" fill="#ce1126"/><path d="m0 11.5h36v6.5h-36z" fill="#fff"/><path d="m1.35 6c-.83.73-1.35 1.8-1.35 3v18c0 1.19.52 2.26 1.35 3l16.1-12-16.1-12z" fill="#3d8e33"/><g fill="#fff"><path d="m3.93 18c0-2.63 1.84-4.82 4.3-5.38-.4-.09-.81-.14-1.23-.14-3.05 0-5.52 2.47-5.52 5.52s2.47 5.52 5.52 5.52c.42 0 .83-.05 1.23-.14-2.46-.56-4.3-2.75-4.3-5.38z"/><path d="m7.62 14.88.6-.44.6.44-.23-.71.6-.44h-.74l-.23-.71-.23.71h-.74l.6.44zm0 2.64.6-.44.6.44-.23-.71.6-.44h-.74l-.23-.71-.23.71h-.74l.6.44zm0 2.64.6-.44.6.44-.23-.71.6-.44h-.74l-.23-.71-.23.71h-.74l.6.44zm.6 2.2.6.44-.23-.71.6-.44h-.74l-.23-.71-.23.71h-.74l.6.44-.23.71z"/></g><path d="m35.7 11.5h.3v6.5h-.3z" fill="#9a9996"/></svg>