<svg viewBox="0 0 36 36" xmlns="http://www.w3.org/2000/svg"><path d="m36 27c0 2.21-1.79 4-4 4h-28c-2.21 0-4-1.79-4-4v-18c0-2.21 1.79-4 4-4h28c1 0 1.92.37 2.62.97l-1.62 4.03 3 1z" fill="#003893"/><path d="m34.61 5.97-33.77 23.45c.03.03.05.06.08.1l6.08-2.52 26-12 3-4v-2c0-1.21-.54-2.3-1.39-3.03z" fill="#f4900c"/><g fill="#fff"><path d="m1.01 29.64 34.99-12.64v-6l-35.08 18.52c.03.04.06.08.1.12z"/><path d="m9 6.92.31 5.16 1.02-2.16-.44 2.35 1.64-1.74-1.15 2.1 2.1-1.15-1.74 1.64 2.35-.44-2.16 1.02 5.16.31-5.16.31 2.16 1.02-2.35-.44 1.74 1.64-2.1-1.15 1.15 2.1-1.64-1.74.44 2.35-1.02-2.16-.31 5.14-.31-5.16-1.02 2.16.44-2.35-1.64 1.74 1.15-2.1-2.1 1.15 1.74-1.64-2.35.44 2.16-1.02-5.15-.3 5.16-.31-2.16-1.02 2.35.44-1.74-1.64 2.1 1.15-1.15-2.1 1.64 1.74-.44-2.35 1.02 2.16z"/></g></svg>