<svg viewBox="0 0 36 36" xmlns="http://www.w3.org/2000/svg"><path d="m32 5h-7.83l-23.04 24.79c.15.16.32.3.49.43l34.38-16.55v-4.67c0-2.21-1.79-4-4-4z" fill="#d62828"/><path d="m.76 29.35c.11.15.24.3.37.44l23.04-24.79h-12.17z" fill="#fcd856"/><path d="m12 5h-8c-2.21 0-4 1.79-4 4v18c0 .88.28 1.69.76 2.35z" fill="#003f87"/><path d="m2.06 30.5 33.94-8.17v-8.67l-34.38 16.56c.14.1.29.2.44.28z" fill="#fff"/><path d="m4 31h28c2.21 0 4-1.79 4-4v-4.67l-33.93 8.17c.57.32 1.23.5 1.93.5z" fill="#007a3d"/></svg>