<svg viewBox="0 0 36 36" xmlns="http://www.w3.org/2000/svg"><path d="m32 5h-28c-2.21 0-4 1.79-4 4v18c0 2.21 1.79 4 4 4h28c2.21 0 4-1.79 4-4v-18c0-2.21-1.79-4-4-4z" fill="#1a8a00"/><path d="m31 31h1c2.21 0 4-1.79 4-4v-12h-5z" fill="#ef7d00"/><path d="m26 15h5v16h-5z" fill="#141414"/><path d="m21 15h5v16h-5z" fill="#de200f"/><path d="m35.08 8.26c-.11-.02-.72.33-.72.33s.56-.65.43-.65-.87.35-.87.35.46-.56.3-.5-.98.43-1.6.7c.09-.15.07-.37 0-.37-.06 0-.43.24-1 .37-.56.13-1.41.61-1.78.54s-1.11 0-1.11 0-.22-.33-.04-.41c.17-.09.3.13.3.13s.3-.13.3-.31-.52-.21-.52-.21-.22-.28-.56-.28c-.91 0-.98.98-.98.98s-.37-.13-.72-.22-.95-.04-1.56-.41-1-.5-.26.28c-1.08-.37-1.65-1.11-1.8-.79s.41.7.41.7-.3-.09-.56-.33-.63-.39-.28.13c-.46-.13-.13.35-.13.35s-.37.11 0 .37 1.04.37 1.04.37-.3.22-.11.3.52.02.52.02-.26.22 0 .3.59 0 .59 0-.11.22.15.31c.26.1.67-.12.67-.12s-.2.13 0 .24.5-.12.5-.12-.17.29 0 .34c.17.04.46-.17.46-.17s-.17.28 0 .3.56-.2.56-.2-.24.3 0 .3.52-.15.52-.15-.07.24.13.33.48-.15.48-.15.07.46.02.72c-.04.26.28.07.28.07s-.04.39-.3.37-.52.33-.43.41c.09.09.43-.07.43-.07s-.02.48.11.44.35-.31.35-.31.13.35.22.3c.09-.04.13-.24.13-.35s.24-.15.24-.15.07.43.15.35c.09-.09.11-.37.24-.46s.09.5.22.46.07-.43.02-.56.26.11.24 0-.26-.33-.26-.33.3.11.22 0-.13-.39 0-.33.24-.19.24-.19.35.26.56.17c.22-.09-.28-.39-.28-.39s.76.26.93.22-.26-.33-.26-.33.48.11.56 0c.09-.11-.31-.2-.31-.2s.53.09.59 0c.07-.09-.15-.2-.15-.2s.87-.02 1.04-.33c.87.02 1.82-.67 1.91-.82s-.15-.15-.15-.15.52-.41.46-.48c-.07-.07-.35.09-.35.09s.67-.59.56-.61zm-6.44 3.73c-.28 0-.09-.15-.13-.3s.15-.02.13-.15 0-.76 0-.76c.22.22.33.5.3.72-.02.22.11.24.15.35s-.17.15-.45.15z" fill="#ef7d00"/></svg>