<svg viewBox="0 0 36 36" xmlns="http://www.w3.org/2000/svg"><path d="m36 27c0 2.21-1.79 4-4 4h-28c-2.21 0-4-1.79-4-4v-18c0-2.21 1.79-4 4-4h28c2.21 0 4 1.79 4 4z" fill="#ffcc4d"/><path d="m35 27c0 1.66-1.34 3-3 3h-28c-1.66 0-3-1.34-3-3v-18c0-1.66 1.34-3 3-3h28c1.66 0 3 1.34 3 3z" fill="#dd2e44"/><path d="m22.89 17.4c.6-2.41-1.35-4.54-1.35-4.54l-.51 2.5-1.06 1.39.44.78-.44.24-1.04-1.44.38-.87 1.34-.69-1.48-.49-.9 1.04-.27 1.15-.34-1.15-.97-1.04-1.39.32 1.16.78.47.96-.95 1.48-.52-.29.44-.78-1.05-1.39-.51-2.5s-1.96 2.13-1.35 4.54c.6 2.41 3.2 2.75 3.2 2.75l-1.65 1.12-.97.08-.17 1.06.88.41.77-.84 1.92-.7-1.09 1.59 2.14 1.14 2.07-1.14-1.07-1.51v-.06l1.84.68.76.84.87-.41-.17-1.06-.97-.08-1.65-1.12s2.6-.34 3.2-2.75z" fill="#ffcc4d"/><path d="m18 19.5v1.3s-.18-.27-.75-.44c-.75-.22-.88-.86-.88-.86zm0 0v1.3s.18-.27.75-.44c.75-.22.88-.86.88-.86z" fill="#5c913b"/><path d="m16.73 16.8s.73.3 1.27.03v2.55h-1.63s-.06-.55.16-1.27c.14-.45-.13-.81-.13-.81zm2.53 0s-.73.3-1.27.03v2.55h1.63s.06-.55-.16-1.27c-.14-.45.13-.81.13-.81zm3.81 4.38c0 .44-.36.8-.8.8s-.8-.36-.8-.8.36-.8.8-.8.8.36.8.8z" fill="#269"/><g fill="#ffcc4d"><path d="m19.03 14.02c0 .22-.44.4-.98.4s-.98-.18-.98-.4.44-.4.98-.4.98.18.98.4z"/><path d="m18.03 12.25c-.85 0-1.53.4-1.53.88s.69.88 1.53.88 1.53-.4 1.53-.88-.69-.88-1.53-.88zm-1.08 1.25c-.19-.08-.19-.3-.16-.46s.3-.31.3-.31-.18.38-.03.54.08.31-.11.23zm.65-.01c-.07-.02-.08-.1-.12-.22s-.09-.22-.06-.38.42-.29.42-.29-.11.32-.08.47.16.32.16.32-.25.11-.32.09zm.97-.22c-.04.13-.05.2-.12.22s-.32-.09-.32-.09.13-.17.16-.32-.08-.47-.08-.47.39.13.42.29-.02.25-.06.38zm.53.24c-.19.08-.27-.07-.11-.23s-.03-.54-.03-.54.27.16.3.31c.03.16.03.38-.16.46zm3.98 7.76c-.03.11-.14.17-.25.15l-1.1-.29c-.11-.03-.17-.14-.15-.25.03-.11.14-.17.25-.15l1.1.29c.11.03.18.14.15.25z"/><path d="m22.5 21.13c-.02.1-.12.15-.22.13-.1-.03-.15-.12-.13-.22l.25-1.13c.02-.1.12-.15.22-.13.1.03.15.12.13.22zm-7.66 2.74c-.06.02-.17-.1-.24-.28l-1.95-4.94c-.07-.18-.08-.34-.02-.36l.1-.04c.06-.02.31.04.38.22l1.95 4.94c.07.18-.07.4-.13.42zm2.35-5.63h1.63v1.13h-1.63z"/></g></svg>