<svg viewBox="0 0 36 36" xmlns="http://www.w3.org/2000/svg"><path d="m20 18-18.3 12.1c-.92-.7-1.5-1.81-1.5-3.06v-18c0-1.34.68-2.52 1.71-3.21z" fill="#fff" stroke="#9a9996" stroke-width=".3"/><path d="m36 26.9c0 2.21-1.79 4-4 4l-28 .06c-1.04 0-1.99-.4-2.7-1.05l15.7-12 18-1 1 1z" fill="#032a87"/><path d="m32 5h-28c-1.03 0-1.96.39-2.67 1.02l15.7 12h19v-9c0-2.21-1.79-4-4-4z" fill="#dc181e"/><path d="m8.62 14.7c0 .92-.96 1.66-2.15 1.66s-2.15-.74-2.15-1.66.96-1.66 2.15-1.66 2.15.74 2.15 1.66z" fill="#fada10"/><path d="m3.85 14.04c.46-.46 2.12-.44 2.62-.15-.56-.75.21-.4.82-.4.6 0 .77.19.38.23-.4.04-.73-.02-.63.11s.71.02 1.25-.11c.54-.12 1.17.33 1.21.42s-.96-.13-1.31 0-.92.1-.88.23-.59.21-.84.15-1.27-.04-1.1-.15.38-.23.46-.27-1.25-.08-1.98-.06z" fill="#bd725f"/><path d="m10.16 14.56s-.94.48-1.89.25c-1.05-.25-1.81-.14-1.81.14 0-.28-.77-.39-1.81-.14-.95.23-1.89-.25-1.89-.25s.69 1.11.28 3.33c-.42 2.27-.3 3.3 1.49 3.36 1.51.06 1.93.51 1.93.51s.42-.45 1.93-.51c1.79-.07 1.91-1.1 1.49-3.36-.41-2.22.28-3.33.28-3.33z" fill="#dc181e"/><path d="m9.47 18.6c-.53-1.83.03-3.33.03-3.33s-.83.25-1.75-.02-1.3.19-1.3.19-.38-.45-1.3-.19c-.92.27-1.75.02-1.75.02s.56 1.5.03 3.33.77 2.09 1.64 2.08 1.38.48 1.38.48.5-.5 1.38-.48 2.17-.25 1.64-2.08z" fill="#63b0e2"/><path d="m8.55 19.89v-.91h.2v-.36h-.22v-.97h.2l-1.67-1.11v-.45h.25l-.86-.58-.86.58h.25v.45l-1.67 1.11h.2v.97h-.22v.36h.2v.91h-.25v.45h4.69v-.45zm.16-3.77c0 .36-.07.49-.16.49s-.16-.13-.16-.49.16-.65.16-.65.16.29.16.65z" fill="#fff"/><path d="m9.18 16.66h-1.27c0-.17.28-.31.63-.31s.63.14.63.31z" fill="#fff"/><path d="m4.88 16.19s-.23.42-.28.67-.19-.16-.19-.16-.25.25-.31.34-.08-.72 0-.83-.19-.08-.28-.13.2-.34.2-.34-.41-.19-.27-.23c.14-.05.66-.02.83.13s.58-.09.73-.13 0 .16-.13.27-.06.39-.06.53-.25-.13-.25-.13z" fill="#018830"/><path d="m5.58 18.2h1.84v.53h-1.84zm-.89-.44h.56v.73h-.56zm0 1.23h.56v.73h-.56zm3.02-1.23h.56v.73h-.56zm0 1.23h.56v.73h-.56zm-1.66-2.78h.84v.39h-.84z" fill="#b6b6b6"/><path d="m11.5 18.77-.16-.89-.83.27.25 1.2.19.05s.02.97-.72 1.72-2.03.75-2.03.75-.67.48-1.75.48-1.75-.48-1.75-.48-1.3 0-2.03-.75-.72-1.72-.72-1.72l.19-.05.25-1.2-.83-.27-.16.89-.3.03s.02 1.75.63 2.67 1.97 1.2 1.97 1.2.02.11.05.22c.89.52 2.7.55 2.7.55s1.81-.03 2.7-.55c.03-.11.05-.22.05-.22s1.36-.28 1.97-1.2.63-2.67.63-2.67z" fill="#fada10"/></svg>