<svg viewBox="0 0 36 36" xmlns="http://www.w3.org/2000/svg"><path d="m32 5h-28c-.21 0-.41.02-.6.05v1.75h-2.73c-.43.63-.67 1.39-.67 2.2v18c0 2.21 1.79 4 4 4h28c2.21 0 4-1.79 4-4v-18c0-2.21-1.79-4-4-4z" fill="#00247d"/><path d="m32.96 12.5h-9.94v7.52l4.97 2 4.97-2z" fill="#55acee"/><path d="m23.03 20.02c.01.08 0 .17.01.25.14 1.23.65 2.13 1.48 2.87 1.43 1.28 3.48 1.56 3.48 1.86 0-.31 2.05-.59 3.48-1.86.83-.74 1.34-1.65 1.48-2.87.01-.08.01-.17.01-.25z" fill="#9f1d22"/><path d="m28.34 14.75h1.89v-.63h-1.89v-.84h-.66v.84h-1.93v.63h1.93v7.95h.66z"/><path d="m28.34 15.69c.11-.1.18-.16.24-.15.07.01.17.01.24-.02.07-.02.42-.07.56-.02.05.01.11.03.21.12.1.08.25.23.2.64s-.03.58-.05.81c-.04.4-.13.73-.29.71.22.38.24.7.38.96s.23.79.17 1.37c-.06.57-.21 1.86.25 2.73-.08.05-.26 0-.42-.17s-.23-.17-.37-.07c-.41.31-.8.69-1.37.31-.13-.09-.17-.19-.08-.45.24-.66.35-1.57.32-1.99v-4.77z" fill="#77b253"/><path d="m26.02 20.59c.35.36 1.43 1.5 1.57 1.63s.21.12.26-.01c.39-.94.29-2.15-.68-3.33-.16.58-.56.96-1.2 1.09-.32.07-.38.28-.32.36.09-.16.28-.16.38.02.07.15-.02.33-.19.38-.16.05-.4.04-.5-.13s-.18-.56.27-.75c.45-.2.93-.4 1.02-.8s.22-.6.49-.62c1.5 1.38 1.69 2.93 1.07 4.31-.15.34-.39.42-.55.22-.16-.21-1.3-1.55-1.88-2.21.14-.01.22-.08.26-.16z" fill="#faaa34"/><path d="m28.73 15.28c.03.09.05.21 0 .32s-.06.24.02.4c.13-.18.31-.15.42-.26s.13-.21.21-.23c-.08-.07-.21-.15-.18-.35.03-.21.31-.37.05-.69-.17-.2-.41-.15-.52-.07-.05.04-.09.09-.11.13s.01.12-.04.16c-.03.03-.06.07-.1.09-.02.02-.04.04-.01.07.01.01.03.02.05.02-.01.03-.03.05-.04.07s-.01.03.01.05c-.02.07.02.07-.01.12-.02.04-.06.09.03.14.03.01.14.04.2.03zm-1.05 1.08c-.15.04-.39-.03-.58-.01-.08.01-.14-.03-.14-.11.01-.08.02-.21.01-.32-.02-.18.06-.42.18-.69s.18-.42.18-.55c0-.09.01-.18.08-.23.06-.04.07-.07.09-.1.05-.07.09-.08.09-.04.01.03 0 .05-.03.08.05-.04.13-.09.15-.1s.11-.08.12-.02c.04-.02.07-.02.07 0 .01.02 0 .03-.01.05.03-.01.06.04.01.08.03-.01.06.04.01.08-.05.05-.11.08-.13.11-.02.04-.15.13-.2.16-.05.02-.05.05-.05.13 0 .83-.1.77-.1.97 0 .05-.01.1.04.09.06-.02.13-.04.21-.04v.47zm.03 1.8c.25-.12.52-.17.67-.21s.38-.15.49-.21.21-.14.27-.16c.07-.02.14-.07.18-.15.21-.41.33-.74.33-1.03 0-.19-.05-.4-.23-.25-.17.14-.36.42-.41.62-.08.3-.14.37-.16.43s-.08.06-.15.08c-.32.07-.4.12-.63.3-.24.18-.5.34-.67.43-.17.1-.2.11-.24.19s-.07.14-.11.17c-.03.04-.04.08-.04.12.01.04-.01.2-.01.25s.01.07.03.07.05-.01.06-.07c-.01.07.08.04.08-.01 0 .07.09.03.1-.04 0 .05.07.01.08-.01.02-.06.03-.11.05-.16.03-.06.07-.14.13-.19.07-.05.04-.11.18-.18zm1.75 4.44c.02.06.05.13.06.17s-.01.05-.02.08c-.06.12-.12.31-.13.41-.01.06-.05.12-.07.15-.02.04-.01.07.04.11.02.02.1-.01.11-.04.03.03.08.02.1-.03.02.03.07.01.09-.03.03.02.06-.02.07-.04.04.02.08 0 .08-.08 0-.01.01-.04.02-.06s.01-.05.01-.08.02-.09.04-.13c.03-.04.07-.12.05-.19s-.05-.06-.07-.16c-.06-.06-.14-.15-.23-.15-.09-.01-.13.05-.16.07zm-1.54.46c.08.08.25.08.37-.05-.04-.02-.14-.06-.18-.1-.06.06-.13.13-.18.15z" fill="#f6ddcd"/><path d="m28.69 14.45c.03-.19.17-.19.25-.17.04.01.12.02.2-.01.16-.04.28.01.27.17.04.03.09.11.08.17-.01.07.01.09.06.1.06.01.19.08.1.18.08.05.14.17.1.26-.04.08-.18.1-.23.02-.06.03-.16.03-.22-.03-.04.05-.14.04-.16 0s-.05-.07-.09-.08-.05-.13.02-.15c-.01-.04-.01-.08.01-.09.02-.02 0-.06-.04-.08-.04-.03-.07-.14-.03-.21-.06.02-.21-.04-.24-.08s-.07-.05-.1-.01z" fill="#955c0f"/><path d="m29.64 15.24c-.04 0-.08-.02-.1-.05-.06.03-.15.03-.22-.03-.02.02-.06.03-.09.03h-.02c-.03 0-.06-.02-.06-.04-.02-.04-.04-.06-.08-.07-.03-.01-.04-.05-.04-.08s.02-.07.05-.08c-.01-.04 0-.08.01-.09s0-.05-.04-.07c-.04-.03-.07-.14-.04-.2h-.02c-.07 0-.19-.05-.21-.09-.01-.02-.03-.03-.04-.03-.02 0-.03.01-.04.02l-.01-.01c.01-.07.04-.13.08-.16.05-.03.1-.04.18-.02.03.01.12.02.2-.01.1-.03.18-.02.23.03.04.03.06.08.05.15.05.04.09.11.08.18-.01.06.01.09.06.09.04.01.11.04.13.09.01.02.01.06-.02.1.08.05.14.18.1.26-.02.04-.07.07-.12.08h-.01zm-.1-.07v.01c.02.03.06.05.11.05s.09-.03.11-.07c.04-.08-.02-.2-.1-.25h-.01l.01-.01c.03-.03.03-.06.02-.09-.02-.05-.08-.08-.12-.08-.07-.01-.08-.05-.07-.11s-.03-.13-.08-.17c.01-.06-.01-.11-.04-.14-.05-.04-.12-.05-.21-.02-.08.02-.17.01-.21.01-.07-.02-.13-.01-.17.02-.04.02-.06.06-.07.12.01-.01.02-.01.03-.01.02 0 .04.01.06.04.02.04.13.09.2.09h.03l.02-.01-.01.02c-.04.06-.01.17.03.2.02.02.03.03.04.05s.01.03 0 .05c-.02.02-.02.05-.01.09v.01h-.01c-.03.01-.04.04-.05.07 0 .03.01.06.03.07.05.01.08.04.09.08.01.01.03.03.05.03.03.01.08 0 .1-.03l.01-.01.01.01c.06.06.15.06.21.03l.01-.01zm-.81.12v-.02c.05-.01.09-.03.12-.04s.06-.03.1-.03h.01v.02c-.04 0-.07.01-.1.03s-.07.04-.12.04zm-.15 2.02-.01-.01c.17-.16.11-.5.06-.74v-.02c-.04-.21 0-.4.11-.55l.01.01c-.11.15-.14.33-.11.54v.02c.05.25.11.59-.07.76zm.27.57c-.06 0-.12-.01-.17-.04l.01-.01c.11.06.27.05.36-.02.1-.07.27-.07.41-.04v.02c-.12-.03-.3-.03-.4.04-.05.04-.13.06-.21.06z"/><path d="m19 18v-13h-15c-.32 0-.6.05-.6.05v1.75h-2.73s-.05.05-.13.2c-.34.59-.54 1.27-.54 2v9z" fill="#00247d"/><path d="m19 5h-2.33l-4.67 3.27v-3.27h-5v2.57l-3.6-2.52c-.61.09-1.19.33-1.67.67l4.7 3.28h-1.74l-3.72-2.61c-.11.13-.21.26-.31.4l3.15 2.21h-3.81v5h3.89l-3.89 2.77v1.23h3.33l3.67-2.57v2.57h5v-3.27l4.67 3.27h2.33v-2.03l-2.82-1.97h2.82v-5h-2.81l2.81-1.97z" fill="#fff"/><g fill="#cf1b2b"><path d="m11 5h-3v5h-8v3h8v5h3v-5h8v-3h-8z"/><path d="m19 5h-1.46l-5.54 3.88v.12h1.57l5.43-3.8zm-17.28.71c-.28.2-.53.42-.76.68l3.73 2.61h1.74zm4.72 8.29-5.71 4h1.73l4.54-3.18v-.82zm12.56 3.8v-1.22l-3.69-2.58h-1.74z"/></g></svg>