<svg viewBox="0 0 36 36" xmlns="http://www.w3.org/2000/svg"><path d="m32 5h-28c-.21 0-.41.02-.6.05v1.75h-2.73c-.42.63-.66 1.39-.66 2.21v18c0 2.21 1.79 4 4 4h28c2.21 0 4-1.79 4-4v-18c0-2.21-1.79-4-4-4z" fill="#00247d"/><path d="m33.74 22.72c-.28.04-.4.44-.52.68 0 0-.28.24-.72.2 0 0 .2-.32.4-.64s.08-.72-.2-.76-.32-.2-.68-.52-1-.36-1.12-.08-.68.48-.6.88.28.92.48 1.24c0 0-.95.6-1.71.88s-1.31.32-1.31.32-.8-.04-1.56-.32-1.48-.88-1.48-.88c.2-.32.4-.84.48-1.24s-.48-.6-.6-.88-.76-.24-1.12.08-.4.48-.68.52-.4.44-.2.76.4.64.4.64c-.44.04-.72-.2-.72-.2-.12-.24-.24-.64-.52-.68s-.29.24-.25.52.23.8.34 1.12c.12.32.33.36.77.44s1.1-.28 1.1-.28c1.56 1.52 3.81 1.48 3.81 1.48s2.47.04 4.03-1.48c0 0 .77.36 1.21.28s.71-.12.83-.44.33-.84.37-1.12.05-.56-.23-.52z" fill="#f9d050"/><path d="m33.59 24.32s.32-.96.4-1.28-.24-.44-.48-.24-.6 1.36-.6 1.36.12-.24.36-.2.32.36.32.36zm-1.92-1.48s.44-.52.48-.84-.4-.72-.72-.68-.56.28-.48.56.36.84.36.84 0-.08.16-.08.2.2.2.2zm-9.74 1.48s-.32-.96-.4-1.28.24-.44.48-.24.6 1.36.6 1.36-.12-.24-.36-.2-.32.36-.32.36zm1.92-1.48s-.44-.52-.48-.84.4-.72.72-.68.56.28.48.56-.36.84-.36.84 0-.08-.16-.08-.2.2-.2.2z" fill="#db1c1c"/><path d="m27.77 15.84h-3.23v2.93h7v-2.93z" fill="#cf1b2b"/><path d="m30.27 23.36c.56-.68 1.26-1.92 1.26-3.64v-1.49c-.21 0-.45-.02-.5-.01-.37.11-.43.49-.88.49-.52 0-.66-.52-1.18-.52s-.69.52-1.21.52c-.44 0-.81-.52-1.21-.52s-.84.52-1.2.52c-.32 0-.53-.41-.82-.5v1.5c0 1.2.24 2.15.53 2.86.17.42.62 1.04.71 1.11 0 0 .95.21 1.49 1.17 0 0 .1.07.51.07s.51-.09.51-.09c.55-1 1.49-.87 1.99-1.48z" fill="#fff"/><path d="m25.23 20.88c.48 0 1.08-.44 1.4-.44s.6.44 1.04.44 1-.44 1.28-.44.72.44 1.16.44.6-.44 1-.44c.08 0 .32.03.38.06.04-.26.06-.7.05-1.11-.17 0-.28-.01-.36-.01-.05 0-.11-.01-.17.01-.34.12-.41.48-.85.48-.52 0-.66-.52-1.18-.52s-.69.52-1.21.52c-.44 0-.81-.52-1.21-.52s-.84.52-1.2.52c-.25 0-.43-.25-.63-.4-.09-.07-.19-.09-.19-.09-.02.55.03 1.1.03 1.1.2.12.29.39.67.39zm3.76 2.36c-.52 0-.68.51-1.19.52-.51-.01-.67-.52-1.19-.52-.35 0-.63.3-.86.45.27.17.66.28 1.16.65.36.27.88.3.88.3s.52-.03.88-.3c.51-.38.9-.48 1.16-.65-.23-.15-.51-.45-.86-.45zm2.31-2.12c-.56 0-.52.52-1.04.52s-.64-.52-1.16-.52-.68.52-1.2.52c-.44 0-.8-.52-1.2-.52s-.84.52-1.2.52c-.27 0-.57-.3-.86-.45 0 0 .14.84.41 1.37.09.04.21.07.33.07.48 0 1.08-.44 1.4-.44s.6.44 1.04.44 1-.44 1.28-.44.72.44 1.16.44c.28 0 .48-.19.67-.32.18-.34.32-.73.43-1.2-.02 0-.05 0-.07 0z" fill="#0b50a0"/><path d="m25.84 19.83.36-1.21.37 1.2 1.26-.04-1.03.72.42 1.19-1-.76-1 .77.41-1.19-1.04-.71zm3.68 0 .35-1.21.37 1.2 1.26-.04-1.03.72.42 1.19-1-.76-1 .77.41-1.19-1.04-.71z" fill="#059334"/><path d="m27.68 21.99.35-1.21.37 1.21 1.26-.04-1.03.72.42 1.19-1-.76-1 .77.41-1.19-1.04-.71z" fill="#059334"/><path d="m25.18 16.1c.25-.21.48.12.52.32s.28.48.52.48c0 0 .16-.48.28-.72s.44-.32.64-.24.56.04.52.4-.16.52-.16.52.72.04 1.04 0 .68-.24.92-.12.6.16.72.08.2-.32-.08-.28-.52.04-.76.08-1.28.08-1.28-.24.4-.36.48-.32.68-.4.8-.2.12.44-.24.44-.88-.08-.88.04.16.2.4.2.64-.16.92-.16.68-.32.92-.12.44.48.24.6-.92.16-1.16.12c0 0 .28.16.52.2s.72.12.68.36.08.56-.24.52-.28-.2-.2-.32-.12-.24-.48-.2-.8-.16-.8-.16-.12.32.04.4c0 0-.48.2-.76.24s-.56.16-.56 0 .2-.4.36-.32.44-.04.52-.04-.28-.24-.08-.32-.16-.12-.36 0-1.4.44-1.8.6-.76.12-.92.2-.48-.12-.32-.32.24-.32.36-.2.32.08.6 0-.16-.16-.24-.24-.4-.56-.4-.68c-.01-.12-.73-.24-.28-.6zm1.48-3.02c-.24-.36-.96-.84-.96-.84l.68.2s-.32-.44-.68-.52c.08 0 .72.08.92.24 0 0-.56-.64-.84-.76 0 0 .68.2.92.44l-.28-.6s.52.24.68.56c0 0-.16-.64-.48-.96 0 0 .48.28.64.52l.12-.57.35.32.24-.44.28.46.49-.5s-.12.39-.16.75c0 0 .2-.33.64-.49 0 0-.56.86-.64 1.18 0 0 .8-.79 1.32-.99 0 0-.72.85-.92 1.17 0 0 .6-.52 1.16-.68 0 0-.72.76-.84.92 0 0 .4-.16.92-.12 0 0-1.2.68-1.48.92s-2.08-.2-2.08-.2z" fill="#f9d050"/><path d="m26.1 14.84c-.43.08-.55.32-.51.55s.32.43.59.31c.28-.12.4-.18.51-.2.27-.05.63-.16.63-.16s.43.08.67 0c0 0 .43.2.79.04 0 0 .87.39 1.26.24s.07-.68-.12-.75c-.35-.12-1.22-.24-1.89-.28s-1.93.24-1.93.24z" fill="#fff"/><path d="m29.95 14.88c-.15-.05-.38-.1-.66-.14 0 0 .06.22.1.46.03.16.04.34.12.44.21.07.41.06.56 0 .4-.16.07-.69-.12-.76zm-2.34-.27c.12.14.2.52.37.76.06.04.46.21.8.04.04-.07-.28-.77-.28-.77-.16-.02-.73-.04-.89-.03zm-.86.9c.06.04.54-.11.54-.14-.01-.06-.06-.15-.14-.33-.07-.14-.15-.26-.24-.35-.4.06-.73.13-.82.15.17.29.35.49.65.67z" fill="#073163"/><path d="m24.79 13.24s.12-.44.64-.44.28.32.88.36 2.72.32 3.04.48.72.12.92.08.04.2-.16.32-.6.04-.6.04.44.4.56.68 0 .4-.2.28-.44.12-.48-.04-.44-.72-.44-.72-1.16-.16-1.48.12-.71.38-1.36.32c-.4-.04-.64-.24-.56-.48s.28-.32.28-.32-.04-.48-.2-.36-.52.04-.56-.04-.28-.28-.28-.28z" fill="#059334"/><path d="m26.07 13.08c.17-.1 1-.48 1.64-.44s1.04.2 1.48.44.4.44.64.52.12.2 0 .32-.52.8-1.8.76-1.4-.4-1.6-.56-.32-.56-.32-.68-.24-.24-.04-.36z" fill="#059334"/><path d="m28.47 14.28c.43-.12 1.02-.28 1.31-.7-.18-.09-.18-.28-.59-.5-.44-.24-.84-.4-1.48-.44-.45-.03-1 .15-1.34.3-.02.28-.02.62-.02.62s.36.2.64.44 1.04.4 1.48.28z" fill="#00493d"/><path d="m19 18v-13h-15c-.32 0-.6.05-.6.05v1.75h-2.73s-.04.06-.13.21c-.34.59-.54 1.27-.54 2v9z" fill="#00247d"/><path d="m19 5h-2.33l-4.67 3.27v-3.27h-5v2.57l-3.6-2.52c-.61.09-1.19.33-1.67.67l4.7 3.29h-1.74l-3.72-2.61c-.11.13-.21.26-.31.4l3.15 2.21h-3.81v5h3.89l-3.89 2.77v1.23h3.33l3.67-2.57v2.57h5v-3.27l4.67 3.27h2.33v-2.03l-2.82-1.97h2.82v-5h-2.81l2.81-1.97z" fill="#fff"/><g fill="#cf1b2b"><path d="m11 5h-3v5h-8v3h8v5h3v-5h8v-3h-8z"/><path d="m19 5h-1.46l-5.54 3.88v.12h1.57l5.43-3.8zm-17.28.71c-.28.2-.53.42-.76.68l3.72 2.61h1.74zm4.71 8.29-5.7 4h1.73l4.54-3.18v-.82zm12.56 3.8v-1.22l-3.69-2.58h-1.74z"/></g></svg>