<svg viewBox="0 0 36 36" xmlns="http://www.w3.org/2000/svg"><path d="m36 27c0 2.21-1.79 4-4 4h-28c-2.21 0-4-1.79-4-4v-18c0-2.21 1.79-4 4-4h28c2.21 0 4 1.79 4 4z" fill="#00afca"/><g fill="#ffcc4d"><circle cx="19.04" cy="16.51" r="2.87"/><path d="m19.04 13.43c.17 0 .23-.11.23-.24 0-.17-.23-1.5-.23-1.5s-.24 1.33-.24 1.5c0 .13.06.24.24.24zm0 6.18c-.17 0-.24.11-.24.24 0 .17.24 1.48.24 1.48s.23-1.31.23-1.48c0-.13-.06-.24-.23-.24zm-.8-.12c-.17-.04-.25.05-.28.17-.04.16-.16 1.51-.16 1.51s.57-1.22.62-1.39c.03-.12 0-.25-.17-.29zm1.6-5.97c.17.04.26-.04.29-.17.04-.17.15-1.49.15-1.49s-.56 1.2-.61 1.37c-.03.12 0 .24.16.29zm-2.34 5.66c-.15-.08-.26-.02-.32.09-.09.15-.55 1.41-.55 1.41s.87-1.03.95-1.18c.06-.11.06-.24-.09-.32zm3.09-5.35c.15.09.26.02.32-.09.09-.15.54-1.4.54-1.4s-.86 1.02-.94 1.16c-.06.11-.06.24.09.32zm-3.73 4.86c-.12-.12-.24-.09-.33 0-.12.12-.89 1.22-.89 1.22s1.11-.77 1.23-.89c.09-.09.12-.21 0-.33zm4.37-4.37c.12.12.24.09.33 0 .12-.12.88-1.21.88-1.21s-1.09.76-1.21.88c-.09.09-.12.21 0 .33zm-4.86 3.73c-.09-.15-.21-.15-.32-.08-.15.09-1.18.95-1.18.95s1.27-.46 1.41-.54c.11-.06.17-.17.09-.32zm5.35-3.09c.09.15.21.15.32.09.15-.09 1.16-.94 1.16-.94s-1.25.45-1.4.54c-.11.06-.17.17-.09.32zm-5.66 2.35c-.05-.16-.17-.2-.29-.16-.16.04-1.39.61-1.39.61s1.34-.12 1.51-.16c.12-.03.21-.12.17-.29zm5.97-1.6c.05.17.17.2.29.17.17-.04 1.37-.61 1.37-.61s-1.32.11-1.49.16c-.12.03-.21.12-.17.28zm-6.07.8c0-.17-.11-.23-.24-.23-.17 0-1.5.23-1.5.23s1.33.24 1.5.24c.13 0 .24-.06.24-.24zm6.18 0c0 .17.11.24.24.24.17 0 1.48-.24 1.48-.24s-1.31-.23-1.48-.23c-.13 0-.24.06-.24.23zm-6.07-.8c.04-.17-.05-.25-.17-.28-.16-.04-1.51-.16-1.51-.16s1.22.57 1.39.62c.12.03.25 0 .29-.17zm5.97 1.6c-.04.17.04.26.17.29.17.04 1.49.15 1.49.15s-1.2-.56-1.37-.61c-.12-.03-.24 0-.29.16zm-5.66-2.34c.08-.15.02-.26-.09-.32-.15-.09-1.41-.55-1.41-.55s1.03.87 1.18.95c.11.06.24.06.32-.09zm5.35 3.09c-.09.15-.02.26.09.32.15.09 1.4.54 1.4.54s-1.02-.86-1.16-.94c-.11-.06-.24-.06-.32.08zm-4.86-3.73c.12-.12.09-.24 0-.33-.12-.12-1.22-.89-1.22-.89s.77 1.11.89 1.23c.09.09.21.12.33 0zm4.37 4.37c-.12.12-.09.24 0 .33.12.12 1.21.88 1.21.88s-.76-1.09-.88-1.21c-.09-.09-.21-.12-.33 0zm-3.73-4.86c.14-.09.15-.21.08-.32-.09-.15-.95-1.18-.95-1.18s.46 1.27.54 1.41c.06.11.17.17.32.09zm3.09 5.35c-.15.09-.15.21-.09.32.09.15.94 1.16.94 1.16s-.45-1.25-.54-1.4c-.06-.11-.17-.17-.32-.09zm-2.35-5.66c.16-.05.2-.17.16-.29-.04-.16-.61-1.39-.61-1.39s.12 1.34.16 1.51c.03.12.12.21.29.17zm1.6 5.97c-.17.05-.2.17-.17.29.04.17.61 1.37.61 1.37s-.11-1.33-.16-1.49c-.03-.12-.12-.21-.28-.17z"/><path d="m21.85 23.65-.04.02-.04.01-.03.01-.06-.01-.03-.01-.02-.01-.03-.02-.05-.03-.04-.03-.02-.02-.03-.01-.02-.01h-.03l-.11.24-.02.03-.02.03-.02.02-.02.02-.03.01h-.03l-.03-.01-.04-.02-.01-.02-.01-.02-.01-.02-.01-.03-.02-.08-.03.03-.03.04-.06.09-.04.05-.04.04-.02.02-.03.02-.03.01-.03.01h-.02l-.03.01-.03-.01-.02-.01-.06-.08-.07-.08-.05.08-.06.07-.03.03-.03.03-.03.02-.05.03-.03.01h-.03l-.02-.01-.02-.01-.02-.02-.02-.03c-.01-.04-.03-.08-.05-.12l-.01-.03-.01-.02-.01-.01h-.01l-.15.24-.02.02-.04.02-.09.02h-.05l-.04-.01-.01-.01-.02-.02v-.01-.02l.02-.24-.02.01-.04.02c-.04.04-.08.08-.12.13l-.05.06-.06.05-.06.04-.03.02-.07.01-.03-.01h-.01l-.01-.01-.01-.02v-.02l.01-.07.02-.11-.01-.07-.02-.04-.03.05-.05.07c-.05.05-.09.1-.14.14-.03.02-.05.04-.08.06l-.06.02-.01-.01h-.02l-.01-.01v-.01l-.01-.02v-.02-.02l-.01-.03.01-.21c-.1.07-.2.13-.3.2l-.04.02-.04.02c-.04.01-.08.02-.12.03h-.04l-.04-.01-.03-.01.02-.04.03-.08.02-.03.02-.03.02-.03.06-.06.06-.04.07-.05.07-.03.08-.03.08-.02.19-.03.09-.01c.28-.02.55-.02.83-.02l.3-.02.09-.01.17-.03.08-.02.08-.03.07-.03c.04-.03.08-.06.12-.09l.05-.06-.06-.11.05-.01.04-.01.05-.02.04-.03.02-.01.02-.02.01-.02.01-.02v-.02-.04l-.01-.02.09-.02.1-.01.11-.01h.11c.15.01.31.02.46.03.23.03.46.05.69.07l.21.01v.08.03l-.01.03-.01.03-.01.03-.02.02c-.02.02-.04.04-.06.07l-.05.03-.05.02-.05.01-.06.01-.12-.01-.06-.02-.05-.03-.06-.03-.04-.04-.04-.04v.09c-.01.06-.02.12-.03.18l-.02.06-.01.02-.02.02-.01.02-.01.01m-4.42-.52.13.06c.03-.02.05-.04.08-.06l.05-.03.04-.03.17-.07.14-.07.07-.03.12-.07.05-.03c.12-.08.25-.16.37-.24l.11-.08.08-.07c.08-.07.16-.15.24-.23l.03-.02.04-.02c.05-.02.09-.05.14-.07l.09-.03c.19-.05.38-.09.56-.12.19-.02.39-.05.58-.07l.26-.04c.06-.02.13-.03.19-.05l.07-.08.11-.12.07-.07.08-.07.09-.07.11-.07.17-.1c.12-.06.24-.12.36-.18.21-.1.42-.2.62-.31l.1-.07.03-.08.04-.08.05-.08.13-.17c.06-.06.11-.12.17-.19.07-.07.14-.13.21-.19l.11-.09.05-.04.06-.04c.04-.02.08-.05.12-.07l.06-.03.06-.02.13-.03h.06l.06-.01.06.01.06.01v.07l-.02.07-.05.14-.04.07-.05.07-.06.08-.07.08.06-.01.05-.01.04-.01.04-.02.07-.02.1-.01.01.04v.04l-.01.04-.01.03-.02.03-.02.03-.02.03-.03.03c-.08.07-.15.14-.23.21l.07.01c.05.02.1.03.14.04l.05.01-.06.05c-.05.03-.1.07-.15.1l-.18.1-.09.06-.09.06-.08.07.04.01.05.02.02.01.02.01.02.01.02-.01-.11.06c-.07.03-.14.07-.2.1l-.08.05-.02.02-.01.02-.01.02v.02l.01.02.02.02.02.02-.01.02-.01.02-.02.02-.02.02-.05.03-.06.03-.13.04-.08.04.11.11-.04.04-.04.03-.03.02-.04.02-.08.01h-.11l.01.05.02.05.02.11c-.07.05-.14.1-.21.15l-.13.08-.14.08-.08.04-.08.04c-.09.04-.19.07-.28.1l-.21.05-.12.02c.13 0 .25.01.38.01l.31-.03.14-.03.12-.03c.08-.03.16-.06.24-.09l.15-.07.15-.08.14-.09.15-.09-.09-.04-.09-.03-.04-.02c-.03-.02-.06-.03-.09-.04l-.05-.03.04-.03.05-.02.06-.02c.07-.02.13-.03.2-.05.09-.01.17-.02.26-.03l.11-.01.08-.02.02-.01.02-.02v-.01l-.01-.01-.02-.01-.02-.01-.06-.01-.08-.01-.08-.01-.08-.01-.07-.02-.04-.02.54-.12.09-.03c.04-.02.08-.03.12-.05l.05-.03.02-.02-.01-.01-.01-.01-.05-.01-.07-.01h-.08c-.06 0-.11-.01-.17-.01l-.07-.01-.05-.01.08-.03c.12-.04.23-.07.35-.1.07-.02.14-.05.2-.07l.1-.04.05-.03.05-.03.02-.02.02-.02.02-.02.01-.02-.01-.02-.02-.01h-.02-.15-.07-.1-.03l-.02-.01-.02-.01c.2-.13.4-.26.61-.39l.16-.11c.04-.04.08-.07.13-.11l.05-.06.05-.06.03-.06.03-.06.02-.07v-.07h-.04l-.04.01-.09.03c-.08.05-.15.09-.23.14l-.04.03-.05.02-.05.02-.05.01-.04.01h-.05l-.04-.02.13-.1c.11-.09.21-.18.32-.28.12-.11.23-.22.34-.34l.16-.18c.05-.06.1-.12.14-.18s.08-.11.12-.17l.01-.02v-.02-.02l-.01-.02-.01-.02-.02-.01-.02-.02-.02-.01-.02-.01-.02-.01h-.04l-.02.01h-.03l-.02.02-.02.02c-.11.11-.22.23-.33.34l-.13.13c-.09.08-.18.15-.26.23-.04.03-.08.06-.13.08l-.12.06.04-.03.12-.12c.14-.16.28-.33.41-.5l.25-.36.07-.12.07-.11.06-.1.04-.09.03-.08.01-.03v-.04l-.01-.02-.02-.03-.01-.01-.02-.01-.03-.02-.04-.01h-.08l-.02.01-.02.01-.02.01-.02.02-.05.04c-.05.06-.1.12-.14.18-.11.17-.23.34-.35.51l-.14.17-.07.07-.08.07.1-.18.15-.32.1-.24.04-.12.08-.25c.02-.08.04-.16.05-.24s.01-.15.02-.23l-.01-.06v-.05l-.01-.05-.02-.06-.01-.02-.03-.03-.04-.02-.04-.01h-.04l-.04.01-.01.01h-.02l-.01.01c-.1.31-.17.63-.26.95-.03.09-.06.18-.1.26l-.08.16-.05.07.03-.16c.02-.09.03-.18.04-.28l.02-.23.01-.09c0-.05-.01-.1-.01-.14l-.01-.06-.02-.04-.02-.03-.01-.01-.03-.01-.02-.01h-.02l-.02.01-.05.01-.04.02c-.03.17-.08.34-.12.51-.07.21-.14.42-.23.62-.06.12-.12.25-.19.37l-.12.21-.13.2c-.09.12-.18.24-.27.36-.09.1-.19.21-.28.31-.1.1-.2.19-.3.29-.11.09-.21.17-.32.26-.13.1-.27.19-.41.28l-.24.14-.39.18-.4.14-.33.1-.34.08-.17.03-.35.04-.18.01-.02.01-.02.01-.03.02-.04.03c-.04.04-.09.08-.13.12l-.09.09-.32.36-.12.12-.14.11-.06.04-.06.03-.12.06c-.19.08-.38.14-.56.22l-.05.03-.04.02-.03.02-.06.06-.02.03-.01.03v.04.03"/><path d="m19.44 23.38.09.01.05.02.01.01v.01h-.01l-.01.01-.09.02h-.07l-.23-.02-.58-.01c-.15 0-.31.01-.46.01-.14.01-.27.02-.41.03l-.11.02-.09.02c-.02.01-.04.02-.07.02l-.03.01-.02.02.01-.06.02-.06-.08.02-.07.03-.03.02-.02.02-.02.03v.03l-.02-.04-.01-.03c0-.02-.01-.05-.01-.07.01-.03.01-.06.02-.09l.02-.03.01-.02.02-.03.04-.04.06-.04.07-.04c.04.02.07.04.11.05s.08 0 .12-.01c.06.05.22.04.24-.06.01-.03.01-.07 0-.11l.07-.01.08-.01.17-.04.09-.02.08-.02.08-.01.07-.01-.03.02-.14.11-.05.04.07.02.06.01-.13.15-.03.04.04.02.04.01.05.01h.1l.1-.02.04-.02.05.02.04.02c.03.01.06.02.09.02.07.01.14.02.21.02h.41m-.5-1.67-.05.1-.06.13c-.03.05-.06.11-.08.16l-.03.03-.07-.06-.07-.05-.08-.04-.08-.03-.18-.05-.09-.02c-.1-.01-.19-.02-.29-.03-.13 0-.25-.01-.38-.02l-.18-.02-.1-.02-.09-.02-.1-.03-.08-.04-.06-.04-.13-.09c-.18-.17-.37-.35-.56-.52l-.11-.08-.05-.02-.05-.02-.09-.02c-.05-.02-.11-.04-.16-.06-.05-.03-.1-.05-.16-.07-.09-.06-.18-.12-.26-.18l-.06-.05-.11-.11-.11-.12c-.17-.21-.34-.43-.51-.64-.08-.09-.16-.17-.25-.25l-.07-.07-.07-.06-.16-.12-.02.01-.02.02-.02.02c-.01.03-.02.05-.03.08l-.01.02-.04-.02-.03-.02-.04-.02-.03-.01h-.07l-.04.01-.04.02c.03.04.06.08.09.12l.05.08.09.17.03.08.01.04.01.03.01.04v.03h-.3l.04.07c.03.05.07.09.1.13l.18.18.06.05.06.04c-.05.01-.1.01-.14.01l-.14.02.05.05c.04.03.09.06.13.09l.07.05.07.04.07.04.07.02.06.02.05.01.02.01.01.01v.01.02l-.02.05v.03l-.01.02v.02l.01.03v.02l.01.01.02.01.02.01.03.01.06.02.03.01.02.02.01.01v.01l-.01.01-.04.03-.02.02-.02.03v.02l-.01.02.01.06.19.07.04.01.04.02.03.02.03.02-.18.14.05.04.06.03.08.04c.06.02.11.04.17.06l.08.02.07.02h.07l-.06.04-.08.05-.08.05-.06.04.06.04c.17.09.34.17.51.24.3.12.62.23.93.33l.21.06.09.02-.18-.02c-.11-.01-.22-.03-.33-.05l-.15-.03-.3-.09-.14-.05c-.38-.15-.75-.32-1.13-.46l.03-.02.08-.03.05-.01c.07-.02.13-.04.2-.07-.13-.02-.26-.04-.39-.07-.07-.02-.14-.04-.2-.06l-.04-.02-.03-.02-.03-.02-.02-.02v-.01l.01-.01.02-.01.02-.01.04-.02.19-.06.11-.04c-.16-.03-.32-.06-.48-.08l-.08-.02-.06-.02-.02-.01-.02-.02-.02-.01-.01-.02.02-.01.05-.01c.05-.01.1-.02.15-.03l.09-.01c.05-.01.1-.03.15-.05l.02-.02.02-.02-.09-.03-.06-.01-.06-.01-.25-.03-.07-.02-.06-.01-.12-.04-.06-.03-.05-.03-.04-.04-.03-.05.01-.01.02-.01h.03l.04.01.21.01.12.01h.15l.04-.01.03-.01.02-.01c-.1-.04-.21-.09-.31-.13-.07-.03-.14-.07-.2-.1l-.21-.11-.1-.06c-.06-.04-.12-.09-.18-.13l-.08-.07-.03-.04-.03-.03-.02-.03-.02-.04-.02-.03-.01-.04-.01-.07h.04l.04.01.04.02.04.02.09.06.1.06.04.03.05.03.05.02.04.02.05.01.04.01h.05l.04-.02-.13-.1c-.11-.09-.21-.18-.32-.27-.17-.17-.34-.34-.5-.52l-.07-.09-.07-.09c-.04-.06-.08-.11-.12-.17l-.01-.02v-.04l.01-.02.01-.02.02-.01.02-.02.02-.01.02-.01h.02.04.03l.02.01.02.02c.12.12.24.24.35.36.13.12.26.24.4.35l.13.08.07.03.06.02-.04-.03-.12-.12c-.14-.16-.28-.33-.41-.5-.06-.08-.12-.16-.17-.24s-.1-.16-.15-.24c-.04-.07-.08-.14-.12-.21-.02-.06-.05-.11-.07-.17l-.01-.03v-.05l.01-.02.02-.03.01-.01.02-.01.07-.02h.08l.02.01.02.01.02.01.06.06.14.18c.11.17.23.34.35.51l.13.17.07.07.08.07c-.09-.17-.17-.33-.25-.5-.03-.08-.07-.16-.1-.24l-.04-.12c-.02-.08-.05-.17-.08-.25l-.03-.12-.02-.12-.01-.12-.01-.11.01-.06.01-.05.01-.05.01-.05.01-.02.01-.02.02-.02.01-.01.04-.02.04-.01h.04l.03.01h.02l.01.01.01.01.01.02c.09.31.17.62.25.93.03.09.07.17.1.26l.04.08.04.08.05.08-.03-.16c-.01-.09-.03-.18-.04-.27-.01-.11-.02-.21-.03-.32l.01-.14.01-.06.02-.04.02-.03.01-.01.02-.01.02-.01h.05l.05.02.04.02.08.35c.03.11.06.21.09.31.06.16.12.31.18.47l.08.16.11.21.12.21.13.2.14.2.13.17c.09.1.19.21.28.31.1.1.2.19.3.28l.16.13c.15.11.3.22.45.32.12.07.24.14.37.21l.38.18c.19.08.39.15.58.21.19.05.39.1.58.13.26.04.53.07.8.08"/><path d="m3.46 28.52s-.24.2-.32.1c-.13-.16.4-.96.4-1.24 0-.46-.31-.59-.69-.65-.26-.04-.67.02-.67.02.08.11.13.14.26.14-.15.08-.3.24-.3.5 0 .4.16.56.16 1.01 0 .25-.2.56-.2.56.36-.04.54-.37.44-.64.06-.01.11 0 .15.05.03-.07-.02-.16-.07-.23.05-.02.08-.01.15.01-.01-.08-.05-.16-.16-.23.32.08.52-.14.52-.38 0-.18-.13-.31-.25-.31-.04 0-.1.02-.13.04-.02-.05-.01-.11.01-.16-.09.02-.15.08-.11.19-.07.01-.12.03-.16.07.04.05.1.08.16.07-.05.1.01.16.09.21 0 0-.05-.21.08-.21.06 0 .11.02.11.11 0 .08-.07.18-.22.18-.16-.01-.28-.11-.28-.35 0-.23.18-.34.42-.35.22-.01.38.11.38.34 0 .3-.43.98-.43 1.25 0 .2.18.31.36.31.23 0 .42-.23.42-.23zm-.05-5.4c0-.5.45-.76.8-.76.47 0 .73.28.73.65 0 .21-.04.34-.14.55l-1.09 2.26c-.04.08-.05.17-.05.3 0 .2.2.37.4.37.19.01.39-.18.39-.38 0-.25-.13-.36-.26-.36-.16 0-.23.07-.23.18 0 .08.04.12.09.12.14 0 .1-.19.1-.19.07.02.13.09.09.18.05.01.1.04.14.08-.04.04-.08.07-.14.07.03.11-.01.16-.11.18.02-.04.02-.08.01-.12-.15.04-.38-.02-.38-.28s.18-.47.51-.42c-.08-.04-.12-.11-.13-.2.06.03.13.03.13.03-.04-.07-.09-.13-.09-.26.06.03.12.08.2.05-.12-.24.03-.58.42-.66-.14.17-.21.35-.21.52 0 .58.16.68.16 1.08 0 .17-.09.35-.26.47v-.01c.11.03.19.09.23.16-.26.07-.64.07-.84-.01-.23-.03-.4-.21-.44-.3-.05-.09-.14-.42 0-.71.15-.32.88-1.86 1.11-2.35.05-.1.08-.21.08-.33 0-.3-.27-.4-.43-.4-.19 0-.37.14-.37.32 0 .11.06.18.15.18.21 0 .2-.18.15-.29.13.06.21.16.18.27.07.01.14.05.21.12-.05.07-.11.11-.21.12.04.17-.07.24-.18.28.04-.12.06-.27-.15-.27-.16 0-.28-.03-.35-.13-.01.14-.02.67-.02.67-.01.2.27.19.44.14-.07.23-.2.36-.52.32.08.03.16.1.16.24 0 .19-.15.4-.25.46l-.05-1.95z"/><path d="m3.51 23.12c0-.5-.45-.76-.8-.76-.47 0-.73.28-.73.65 0 .21.04.34.14.55l1.09 2.26c.04.08.05.17.05.3 0 .2-.2.37-.4.37-.19.01-.39-.18-.39-.38 0-.25.13-.36.26-.36.16 0 .23.07.23.18 0 .08-.04.12-.09.12-.14 0-.1-.19-.1-.19-.07.02-.13.09-.09.18-.05.01-.1.04-.14.08.04.04.08.07.14.07-.03.11.01.16.11.18-.02-.04-.02-.08-.01-.12.15.04.38-.02.38-.28s-.18-.47-.51-.42c.08-.04.12-.11.13-.2-.06.03-.13.03-.13.03.04-.07.09-.13.09-.26-.06.03-.12.08-.2.05.12-.24-.03-.58-.42-.66.14.17.21.35.21.52 0 .58-.16.68-.16 1.08 0 .17.09.35.26.47v-.01c-.11.03-.19.09-.23.16.26.07.64.07.84-.01.23-.03.4-.21.44-.3.05-.09.14-.42 0-.71-.15-.32-.88-1.86-1.11-2.35-.05-.1-.08-.21-.08-.33 0-.3.27-.4.43-.4.19 0 .37.14.37.32 0 .11-.06.18-.15.18-.21 0-.2-.18-.16-.29-.13.06-.21.16-.18.27-.07.01-.14.05-.21.12.05.07.11.11.21.12-.04.17.07.24.18.28-.04-.12-.06-.27.16-.27.16 0 .28-.03.35-.13l.02.67c.01.2-.27.19-.44.14.07.23.2.35.52.32-.08.03-.16.1-.16.24 0 .19.15.4.25.46zm-.05 5.4s.24.2.32.1c.13-.16-.4-.96-.4-1.24 0-.46.31-.59.69-.65.26-.04.67.02.67.02-.08.11-.13.14-.26.14.15.08.3.24.3.5 0 .4-.16.56-.16 1.01 0 .25.2.56.2.56-.36-.04-.54-.37-.44-.64-.06-.01-.11 0-.15.05-.03-.07.02-.16.07-.23-.05-.02-.08-.01-.15.01.01-.08.05-.16.16-.23-.32.08-.52-.14-.52-.38 0-.18.13-.31.25-.31.04 0 .1.02.13.04.02-.05.01-.11-.01-.16.09.02.15.08.11.19.07.01.12.03.16.07-.04.05-.1.08-.16.07.05.1-.01.16-.09.21 0 0 .05-.21-.08-.21-.06 0-.11.02-.11.11 0 .08.07.18.22.18.15-.01.28-.11.28-.35 0-.23-.18-.34-.42-.35-.22-.01-.38.11-.38.34 0 .3.43.98.43 1.25 0 .2-.18.31-.36.31-.23 0-.42-.23-.42-.23zm-.05-14.15c0-.5.45-.76.8-.76.47 0 .73.28.73.66 0 .21-.04.34-.14.54l-1.09 2.26c-.04.08-.05.17-.05.3 0 .2.2.37.4.37.19 0 .39-.18.39-.38 0-.25-.13-.36-.26-.36-.16 0-.23.07-.23.18 0 .08.04.11.09.11.14 0 .1-.19.1-.19.07.02.13.09.09.17.05.01.1.04.14.08-.04.04-.08.07-.14.08.03.11-.01.16-.11.18.02-.04.02-.08.01-.12-.15.04-.38-.02-.38-.28s.18-.47.51-.42c-.08-.04-.12-.12-.13-.2.06.02.13.03.13.03-.04-.07-.09-.13-.09-.26.06.03.12.08.2.05-.12-.24.03-.58.42-.66-.14.17-.21.35-.21.52 0 .58.16.68.16 1.08 0 .17-.09.35-.26.47v-.01c.11.03.18.09.23.16-.26.07-.64.07-.84-.01-.23-.03-.4-.21-.44-.3-.05-.09-.14-.42 0-.71.15-.32.88-1.86 1.11-2.35.05-.1.08-.21.08-.33 0-.3-.27-.4-.43-.4-.19 0-.37.14-.37.32 0 .11.06.18.15.18.21 0 .2-.18.15-.29.13.06.21.16.18.27.07.01.14.04.21.12-.05.06-.11.11-.21.11.04.17-.07.24-.18.28.04-.12.06-.27-.15-.27-.16 0-.28-.03-.35-.13-.01.13-.02.67-.02.67-.01.2.27.19.44.13-.07.23-.2.35-.52.32.08.03.16.1.16.24 0 .19-.15.4-.25.46l-.05-1.95z"/><path d="m3.51 14.38c0-.5-.45-.76-.8-.76-.47 0-.73.28-.73.66 0 .21.04.34.14.54l1.09 2.26c.04.08.05.17.05.3 0 .2-.2.37-.4.37-.19 0-.39-.18-.39-.38 0-.25.13-.36.26-.36.16 0 .23.07.23.18 0 .08-.04.11-.09.11-.14 0-.1-.19-.1-.19-.07.02-.13.09-.09.17-.05.01-.1.04-.14.08.04.04.08.07.14.08-.03.11.01.16.11.18-.02-.04-.02-.08-.01-.12.15.04.38-.02.38-.28s-.18-.47-.51-.42c.08-.04.12-.12.13-.2-.06.02-.13.03-.13.03.04-.07.09-.13.09-.26-.06.03-.12.08-.2.05.12-.24-.03-.58-.42-.66.14.17.21.35.21.52 0 .58-.16.68-.16 1.08 0 .17.09.35.26.47v-.01c-.11.03-.18.09-.23.16.26.07.64.07.84-.01.23-.03.4-.21.44-.3.05-.09.14-.42 0-.71-.15-.32-.88-1.86-1.11-2.35-.05-.1-.08-.21-.08-.33 0-.3.27-.4.43-.4.19 0 .37.14.37.32 0 .11-.06.18-.15.18-.21 0-.2-.18-.16-.29-.13.06-.21.16-.18.27-.07.01-.14.04-.21.12.05.06.11.11.21.11-.04.17.07.24.18.28-.04-.12-.06-.27.16-.27.16 0 .28-.03.35-.13l.02.66c.01.2-.27.19-.44.13.07.23.2.35.52.32-.08.03-.16.1-.16.24 0 .19.15.4.25.46l.05-1.95z"/><path d="m3.51 12.88c0 .5-.45.76-.8.76-.47 0-.73-.28-.73-.66 0-.21.04-.34.14-.54l1.09-2.26c.04-.08.05-.17.05-.3 0-.2-.2-.37-.4-.37-.19 0-.39.18-.39.38 0 .25.13.36.26.36.16 0 .23-.07.23-.18 0-.08-.04-.11-.09-.11-.14 0-.1.19-.1.19-.07-.02-.13-.09-.09-.18-.05-.01-.1-.04-.14-.08.04-.04.08-.06.14-.07-.03-.11.01-.16.11-.18-.02.04-.02.08-.01.12.15-.04.38.03.38.28 0 .26-.18.47-.51.42.08.04.12.12.13.2-.06-.02-.13-.03-.13-.03.04.07.09.13.09.26-.06-.03-.12-.08-.2-.05.12.24-.03.58-.42.66.14-.17.21-.35.21-.53 0-.58-.16-.68-.16-1.08 0-.17.09-.35.26-.47v.01c-.11-.03-.19-.09-.23-.16.26-.07.64-.07.84.01.23.03.4.21.44.3.05.09.14.42 0 .71-.15.32-.88 1.86-1.11 2.35-.05.1-.08.21-.08.33 0 .3.27.4.43.4.19 0 .37-.14.37-.32 0-.11-.06-.18-.15-.18-.21 0-.2.18-.16.29-.13-.06-.21-.16-.18-.27-.07-.01-.14-.05-.21-.12.05-.06.11-.11.21-.11-.04-.17.07-.24.18-.28-.04.13-.06.27.16.27.16 0 .28.03.35.13l.02-.67c.01-.2-.27-.19-.44-.13.07-.23.2-.35.52-.32-.08-.03-.16-.1-.16-.24 0-.19.15-.4.25-.46zm0 8.74c0 .5-.45.76-.8.76-.47 0-.73-.28-.73-.65 0-.21.04-.34.14-.54l1.09-2.26c.04-.08.05-.17.05-.3 0-.2-.2-.37-.4-.37-.19-.01-.39.18-.39.38 0 .25.13.36.26.36.16 0 .23-.07.23-.18 0-.08-.04-.11-.09-.11-.14 0-.1.19-.1.19-.07-.02-.13-.09-.09-.18-.05-.01-.1-.04-.14-.08.04-.04.08-.07.14-.07-.03-.11.01-.16.11-.18-.02.04-.02.08-.01.12.15-.04.38.03.38.28 0 .26-.18.47-.51.42.08.04.12.12.13.2-.06-.02-.13-.03-.13-.03.04.07.09.13.09.26-.06-.03-.12-.08-.2-.05.12.24-.03.58-.42.66.14-.17.21-.35.21-.52 0-.58-.16-.68-.16-1.08 0-.17.09-.35.26-.47v.01c-.11-.03-.18-.08-.23-.16.26-.07.64-.07.84.01.23.03.4.21.44.3.05.09.14.42 0 .71-.15.32-.88 1.86-1.11 2.35-.05.1-.08.21-.08.33 0 .3.27.4.43.4.19 0 .37-.14.37-.32 0-.11-.06-.18-.15-.18-.21 0-.2.18-.16.29-.13-.06-.21-.16-.18-.27-.07-.01-.14-.04-.21-.12.05-.06.11-.11.21-.12-.04-.17.07-.24.18-.28-.04.13-.06.27.16.27.16 0 .28.03.35.13l.02-.67c.01-.2-.27-.19-.44-.13.07-.23.2-.35.52-.32-.08-.03-.16-.1-.16-.24 0-.19.15-.39.25-.46z"/><path d="m3.41 21.62c0 .5.45.76.8.76.47 0 .73-.28.73-.65 0-.21-.04-.34-.14-.54l-1.09-2.26c-.04-.08-.05-.17-.05-.3 0-.2.2-.37.4-.37.19-.01.39.18.39.38 0 .25-.13.36-.26.36-.16 0-.23-.07-.23-.18 0-.08.04-.11.09-.11.14 0 .1.19.1.19.07-.02.13-.09.09-.18.05-.01.1-.04.14-.08-.04-.04-.08-.07-.14-.07.03-.11-.01-.16-.11-.18.02.04.02.08.01.12-.15-.04-.38.03-.38.28 0 .26.18.47.51.42-.08.04-.12.12-.13.2.06-.02.13-.03.13-.03-.04.07-.09.13-.09.26.06-.03.12-.08.2-.05-.12.24.03.58.42.66-.14-.17-.21-.35-.21-.52 0-.58.16-.68.16-1.08 0-.17-.09-.35-.26-.47v.01c.11-.03.19-.09.23-.16-.26-.07-.64-.07-.84.01-.23.03-.4.21-.44.3-.05.09-.14.42 0 .71.15.32.88 1.86 1.11 2.35.05.1.08.21.08.33 0 .3-.27.4-.43.4-.19 0-.37-.14-.37-.32 0-.11.06-.18.15-.18.21 0 .2.18.15.29.13-.06.21-.16.18-.27.07-.01.14-.04.21-.12-.05-.06-.11-.11-.21-.12.04-.17-.07-.24-.18-.28.04.13.06.27-.15.27-.16 0-.28.03-.35.13-.01-.13-.02-.67-.02-.67-.01-.2.27-.19.44-.13-.07-.23-.2-.35-.52-.32.08-.03.16-.1.16-.24 0-.19-.15-.39-.25-.46l-.05 1.95zm.05-14.14s.24-.2.32-.1c.13.16-.4.96-.4 1.24 0 .46.31.59.69.65.26.05.67-.02.67-.02-.08-.11-.13-.14-.26-.14.15-.08.3-.24.3-.5 0-.4-.16-.56-.16-1.01 0-.25.2-.57.2-.57-.36.04-.54.37-.44.64-.06.01-.11-.01-.15-.05-.03.07.02.16.07.23-.05.02-.08.01-.15-.01.01.08.05.16.16.23-.33-.08-.52.14-.52.38 0 .18.13.31.25.31.04 0 .1-.02.13-.04.02.05.01.12-.01.16.09-.02.15-.08.11-.19.07-.01.12-.03.16-.07-.04-.05-.1-.08-.16-.07.05-.1-.01-.16-.09-.21 0 0 .05.21-.08.21-.06 0-.11-.02-.11-.11 0-.08.07-.18.22-.18.15.01.28.11.28.35 0 .23-.18.34-.42.35-.22.01-.38-.11-.38-.34 0-.3.43-.98.43-1.25 0-.2-.18-.31-.36-.31-.23 0-.42.23-.42.23l.13.17z"/><path d="m3.46 7.48s-.24-.2-.32-.1c-.13.16.4.96.4 1.24 0 .46-.31.59-.69.65-.26.04-.67-.02-.67-.02.08-.11.13-.14.26-.14-.15-.08-.3-.24-.3-.5 0-.4.16-.56.16-1.01 0-.25-.2-.57-.2-.57.36.04.54.37.44.64.06.01.11-.01.15-.05.03.07-.02.16-.07.23.04.02.08.01.15-.01-.01.08-.05.16-.16.23.32-.08.52.14.52.38 0 .18-.13.31-.25.31-.04 0-.1-.02-.13-.04-.02.05-.01.12.01.16-.09-.02-.14-.08-.11-.19-.07-.01-.12-.03-.16-.07.04-.05.1-.08.16-.07-.05-.1.01-.16.09-.21 0 0-.05.21.08.21.06 0 .11-.02.11-.11 0-.08-.07-.18-.22-.18-.16.01-.28.11-.28.35 0 .23.18.34.42.35.22.01.38-.11.38-.34 0-.3-.43-.98-.43-1.25 0-.2.18-.31.36-.31.23 0 .42.23.42.23zm-.05 5.4c0 .5.45.76.8.76.47 0 .73-.28.73-.66 0-.21-.04-.34-.14-.54l-1.09-2.26c-.04-.08-.05-.17-.05-.3 0-.2.2-.37.4-.37.19 0 .39.18.39.38 0 .25-.13.36-.26.36-.16 0-.23-.07-.23-.18 0-.08.04-.11.09-.11.14 0 .1.19.1.19.07-.02.13-.09.09-.18.05-.01.1-.04.13-.08-.04-.04-.08-.06-.14-.07.03-.11-.01-.16-.11-.18.02.04.02.08.01.12-.15-.04-.38.03-.38.28 0 .26.18.47.51.42-.08.04-.12.12-.13.2.06-.02.13-.03.13-.03-.04.07-.09.13-.09.26.06-.03.12-.08.2-.05-.12.24.03.58.42.66-.14-.17-.21-.35-.21-.53 0-.58.16-.68.16-1.08 0-.17-.09-.35-.26-.47v.01c.11-.03.19-.09.23-.16-.26-.07-.64-.07-.84.01-.23.03-.4.2-.44.3-.05.09-.14.42 0 .71.15.32.88 1.86 1.11 2.35.05.1.08.21.08.33 0 .3-.27.4-.43.4-.19 0-.37-.14-.37-.32 0-.11.06-.18.15-.18.21 0 .2.18.15.29.13-.06.21-.16.18-.27.07-.01.14-.05.21-.12-.05-.06-.11-.11-.21-.11.04-.17-.07-.24-.18-.28.04.13.06.27-.15.27-.16 0-.28.03-.35.13-.01-.13-.02-.67-.02-.67-.01-.2.27-.19.44-.13-.07-.23-.2-.35-.52-.32.08-.03.16-.1.16-.24 0-.19-.15-.4-.25-.46z"/></g></svg>