<svg viewBox="0 0 36 36" xmlns="http://www.w3.org/2000/svg"><path d="m0 24h36v-12h-36zm21.25-8.3 1.03 1.42 1.67-.54-1.03 1.42 1.03 1.42-1.67-.54-1.03 1.42v-1.76l-1.67-.54 1.67-.54zm-3.25-.95c.9 0 1.72.37 2.31.96-.46-.34-1.03-.54-1.65-.54-1.56 0-2.82 1.26-2.82 2.82s1.26 2.82 2.82 2.82c.62 0 1.19-.2 1.65-.54-.59.59-1.41.96-2.31.96-1.8 0-3.25-1.46-3.25-3.25s1.46-3.25 3.25-3.25z" fill="#141414"/><path d="m32 5h-28c-2.21 0-4 1.79-4 4v3h36v-3c0-2.21-1.79-4-4-4z" fill="#e70013"/><path d="m32 31h-28c-2.21 0-4-1.79-4-4v-3h36v3c0 2.21-1.79 4-4 4z" fill="#239e46"/><g fill="#fff"><path d="m18 21.25c.9 0 1.72-.37 2.31-.96-.46.34-1.03.54-1.65.54-1.56 0-2.82-1.26-2.82-2.82s1.26-2.82 2.82-2.82c.62 0 1.19.2 1.65.54-.59-.59-1.41-.96-2.31-.96-1.8 0-3.25 1.46-3.25 3.25s1.46 3.25 3.25 3.25z"/><path d="m21.25 18.54v1.76l1.03-1.42 1.67.54-1.03-1.42 1.03-1.42-1.67.54-1.03-1.42v1.76l-1.67.54z"/></g></svg>