<svg viewBox="0 0 36 36" xmlns="http://www.w3.org/2000/svg"><path d="m32 5h-28c-2.21 0-4 1.79-4 4l7 9-7 9c0 2.21 1.79 4 4 4h28c2.21 0 4-1.79 4-4l-7-9 7-9c0-2.21-1.79-4-4-4z" fill="#024fa2"/><path d="m0 9h36v1l-3 3h-30l-3-3zm0 17 3-3h30l3 3v1h-36z" fill="#fff"/><path d="m0 10h36v16h-36z" fill="#ed1c27"/><path d="m13.28 23.78c3.19 0 5.78-2.59 5.78-5.78s-2.59-5.78-5.78-5.78-5.78 2.59-5.78 5.78 2.59 5.78 5.78 5.78zm-1.26-7.51 1.26-3.87 1.26 3.87h4.07l-3.29 2.39 1.26 3.87-3.29-2.39-3.29 2.39 1.26-3.87-3.29-2.39h4.07z" fill="#fff"/></svg>