<svg viewBox="0 0 36 36" xmlns="http://www.w3.org/2000/svg"><path d="m32 5h-28c-2.21 0-4 1.79-4 4v18c0 2.21 1.79 4 4 4h28c2.21 0 4-1.79 4-4v-18c0-2.21-1.79-4-4-4z" fill="#12ad2b"/><path d="m8.17 13.5h27.83v9h-27.83z" fill="#ffce00"/><path d="m1.15 6.2c-.71.72-1.15 1.71-1.15 2.8v18c0 1.09.44 2.08 1.15 2.81l11.35-11.81z" fill="#d21034"/><path d="m18 20.36 1.63-1.18 1.62 1.18-.62-1.91 1.62-1.18h-2.01l-.62-1.91-.62 1.91h-2l1.63 1.18zm9.5 0 1.63-1.18 1.62 1.18-.62-1.91 1.62-1.18h-2.01l-.62-1.91-.62 1.91h-2l1.63 1.18z"/></svg>