<svg viewBox="0 0 36 36" xmlns="http://www.w3.org/2000/svg"><path d="m0 23 1-1h34l1 1v3l-1 1h-34l-1-1z" fill="#fff"/><path d="m0 27c0 2.21 1.79 4 4 4h28c2.21 0 4-1.79 4-4v-1h-36zm0-8h36v4h-36z" fill="#0038a8"/><path d="m16 5h-12c-2.21 0-4 1.79-4 4v10h36v-3l-1-1v-2l1-1v-3z" fill="#fff"/><rect fill="none" height="25.8" ry="3.96" stroke="#0038a8" stroke-width=".1" width="36" y="5.05"/><path d="m36 9c0-2.21-1.79-4-4-4h-16v4zm-20 3h20v4h-20z" fill="#0038a8"/><path d="m13 12c0-2.76-2.24-5-5-5s-5 2.24-5 5 2.24 5 5 5 5-2.24 5-5z" fill="#ffd983"/><path d="m12 12c0-2.21-1.79-4-4-4s-4 1.79-4 4 1.79 4 4 4 4-1.79 4-4z" fill="#ffcc4d"/><path d="m8 5.6.633 4.04 2.57-3.18-1.47 3.82 3.82-1.47-3.18 2.57 4.04.633-4.04.633 3.18 2.57-3.82-1.47 1.47 3.82-2.57-3.18-.633 4.04-.633-4.04-2.57 3.18 1.47-3.82-3.82 1.47 3.18-2.57-4.04-.633 4.04-.633-3.18-2.57 3.82 1.47-1.47-3.82 2.57 3.18z" fill="#ffac33"/><path d="m11 12c0-1.66-1.34-3-3-3s-3 1.34-3 3 1.34 3 3 3 3-1.34 3-3z" fill="#c1694f"/><path d="m5.83 12c0-1.19.964-2.15 2.15-2.15s2.15.964 2.15 2.15c0 1.19-.964 2.15-2.15 2.15s-2.15-.964-2.15-2.15z" fill="#ffac33"/></svg>