<svg viewBox="0 0 36 36" xmlns="http://www.w3.org/2000/svg"><path d="m32 5h-28c-.21 0-.41.02-.6.05v1.75h-2.73c-.42.63-.66 1.39-.66 2.21v18c0 2.21 1.79 4 4 4h28c2.21 0 4-1.79 4-4v-18c0-2.21-1.79-4-4-4z" fill="#00247d"/><path d="m33.47 22.64c-.28-.18-.69-.58-.77-.69-.28-.47-.61-.57-.83-.57-.03 0-.06.01-.09.01.11-.18.18-.35.18-.52v-9.23h-10.08v9.23c0 .17.07.34.18.52-.03 0-.06-.01-.09-.01-.22 0-.55.1-.83.57-.07.12-.48.51-.77.69-.23.15-.37.39-.38.67-.02.4.21.86.59 1.18.16.13.34.2.53.2.26 0 .48-.12.66-.26 1.66 1.37 3.35 2.04 5.16 2.04s3.5-.67 5.16-2.04c.18.14.4.26.66.26.19 0 .38-.07.53-.2.38-.32.61-.78.59-1.18-.02-.28-.15-.52-.38-.67z" fill="#fff"/><path d="m26.92 24.04c-2.23-1-4.54-2.47-4.54-3.16v-8.73h9.08v8.73c0 .69-2.31 2.17-4.54 3.16z" fill="#006129"/><path d="m25.08 17.89c-.2.08-.27-.47 0-.86s1.05-1.19 1.22-1.92.48-.63.62-.83c.15-.2.17-.44 0-.48s-.4-.11-.25-.72c.16-.61.83-.55.83-.13s-.16.8 0 1.13.52.25.73.88c.22.63.3 1.23.16 1.5s-.22 1.28-.41 1.55-.44.16-.39-.33.36-1.14.45-1.48-.14-1.05-.48-1.13-.97.72-1.25 1.05-.89.58-.92.84-.11.86-.31.94z" fill="#ffc6b5"/><path d="m28.77 21.88c-.36.08-1.16.38-1.59.27s-1.22.17-1.33.02.11-.96.14-1.34.08-.75.02-.75-.33 0-.19-.67.37-1.91.37-1.91-.23-.09-.09-.47.31-1.27.27-1.47-.39-.14-.27-.45.22-.38.31-.61.29-.42.42-.36.29.23.44.14.17-.23.37-.22c.2.02.64.42.55.52s-.26.41-.28.81c-.03.4-.28 1.37-.36 1.68s.27 1.06.45 1.77c.19.7.77 3.04.77 3.04z" fill="#fff"/><path d="m26.68 12.63c.09-.24.54-.44.91-.14s.53.84.27 1.17c-.27.33-.42.25-.52 0s.01-.47-.13-.55-.02-.29-.14-.34-.51.21-.38-.14z" fill="#9c5100"/><path d="m23.11 12.48c-.06-.07-.22.22-.16.42s.05.4.17.36.09-.21.17-.35c.06-.11-.19-.08-.11-.2z" fill="#f00"/><path d="m22.86 13.2h.83s.11-.38.28-.39.22.38.22.38.39.09.56-.02.59.02.27.2c-.33.19-.14-.2-.33 0s-.36.28-.33.36-.1.14-.36.14-.44-.06-.4-.19-.17-.17-.41-.22-.33-.27-.33-.27z" fill="#f8c600"/><path d="m23.11 14.07c-.06-.07-.22.22-.16.42s.05.4.17.37.09-.21.17-.35c.06-.11-.19-.08-.11-.2z" fill="#f00"/><path d="m22.86 14.79h.83s.11-.38.28-.39.22.38.22.38.39.09.56-.02.59.02.27.2c-.33.19-.14-.2-.33 0s-.36.28-.33.36-.1.14-.36.14-.44-.06-.4-.19-.17-.17-.41-.22-.33-.27-.33-.27z" fill="#f8c600"/><path d="m23.11 15.84c-.06-.07-.22.22-.16.42s.05.4.17.36.09-.21.17-.35c.06-.11-.19-.08-.11-.2z" fill="#f00"/><path d="m22.86 16.56h.83s.11-.38.28-.39.22.38.22.38.39.09.56-.02.59.02.27.2c-.33.19-.14-.2-.33 0s-.36.28-.33.36-.1.14-.36.14-.44-.06-.4-.19-.17-.17-.41-.22-.33-.26-.33-.26z" fill="#f8c600"/><path d="m24.11 17.56c-.06-.07-.22.22-.16.42s.05.4.17.36.09-.21.17-.35c.06-.11-.19-.08-.11-.2z" fill="#f00"/><path d="m23.86 18.27h.83s.11-.38.28-.39.22.38.22.38.39.09.56-.02.59.02.27.2c-.33.19-.14-.2-.33 0s-.36.28-.33.36-.1.14-.36.14-.44-.06-.4-.19-.17-.17-.41-.22-.33-.26-.33-.26z" fill="#f8c600"/><path d="m23.06 18.96c-.06-.07-.22.22-.16.42s.05.4.17.36c.12-.03.09-.21.17-.35.06-.11-.19-.08-.11-.2z" fill="#f00"/><path d="m22.8 19.68h.83s.11-.38.28-.39.22.38.22.38.39.09.56-.02.59.02.27.2c-.33.19-.14-.2-.33 0s-.36.28-.33.36-.1.14-.36.14-.44-.06-.4-.19c.03-.13-.17-.17-.41-.22s-.33-.26-.33-.26z" fill="#f8c600"/><path d="m23.06 20.63c-.06-.07-.22.22-.16.42s.05.4.17.36c.12-.03.09-.21.17-.35.06-.11-.19-.08-.11-.2z" fill="#f00"/><path d="m22.8 21.35h.83s.11-.38.28-.39.22.38.22.38.39.09.56-.02.59.02.27.2c-.33.19-.14-.2-.33 0s-.36.28-.33.36-.1.14-.36.14-.44-.06-.4-.19c.03-.13-.17-.17-.41-.22s-.33-.26-.33-.26z" fill="#f8c600"/><path d="m29.02 20.63c-.06-.07-.22.22-.16.42s.05.4.17.36c.12-.03.09-.21.17-.35.06-.11-.19-.08-.11-.2z" fill="#f00"/><path d="m28.77 21.35h.83s.11-.38.28-.39.22.38.22.38.39.09.56-.02.59.02.27.2-.14-.2-.33 0-.36.28-.33.36-.1.14-.36.14-.44-.06-.4-.19c.03-.13-.17-.17-.41-.22s-.33-.26-.33-.26z" fill="#f8c600"/><path d="m29.02 19.06c-.06-.07-.22.22-.16.42s.05.4.17.36c.12-.03.09-.21.17-.35.06-.11-.19-.08-.11-.2z" fill="#f00"/><path d="m28.77 19.78h.83s.11-.38.28-.39.22.38.22.38.39.09.56-.02.59.02.27.2-.14-.2-.33 0-.36.28-.33.36-.1.14-.36.14-.44-.06-.4-.19c.03-.13-.17-.17-.41-.22s-.33-.26-.33-.26z" fill="#f8c600"/><path d="m29.02 17.45c-.06-.07-.22.22-.16.42s.05.4.17.36c.12-.03.09-.21.17-.35.06-.11-.19-.08-.11-.2z" fill="#f00"/><path d="m28.77 18.17h.83s.11-.38.28-.39.22.38.22.38.39.09.56-.02.59.02.27.2-.14-.2-.33 0-.36.28-.33.36-.1.14-.36.14-.44-.06-.4-.19c.03-.13-.17-.17-.41-.22s-.33-.27-.33-.27z" fill="#f8c600"/><path d="m29.02 15.84c-.06-.07-.22.22-.16.42s.05.4.17.36c.12-.03.09-.21.17-.35.06-.11-.19-.08-.11-.2z" fill="#f00"/><path d="m28.77 16.56h.83s.11-.38.28-.39.22.38.22.38.39.09.56-.02.59.02.27.2-.14-.2-.33 0-.36.28-.33.36-.1.14-.36.14-.44-.06-.4-.19c.03-.13-.17-.17-.41-.22s-.33-.26-.33-.26z" fill="#f8c600"/><path d="m29.02 14.17c-.06-.07-.22.22-.16.42s.05.39.17.36.09-.21.17-.35c.06-.11-.19-.08-.11-.2z" fill="#f00"/><path d="m28.77 14.89h.83s.11-.38.28-.39.22.38.22.38.39.09.56-.02.59.02.27.2-.14-.2-.33 0-.36.28-.33.36-.1.14-.36.14-.44-.06-.4-.19c.03-.13-.17-.17-.41-.22s-.33-.26-.33-.26z" fill="#f8c600"/><path d="m29.02 12.48c-.06-.07-.22.22-.16.42s.05.39.17.36.09-.21.17-.35c.06-.11-.19-.08-.11-.2z" fill="#f00"/><path d="m28.77 13.2h.83s.11-.38.28-.39.22.38.22.38.39.09.56-.02.59.02.27.2-.14-.2-.33 0-.36.28-.33.36-.1.14-.36.14-.44-.06-.4-.19c.03-.13-.17-.17-.41-.22s-.33-.27-.33-.27zm4.43 9.86c-.31-.2-.8-.65-.92-.85s-.38-.5-.64-.19c-.27.31-2.38 2.37-4.71 2.37s-4.45-2.06-4.71-2.37-.52-.02-.64.19-.61.65-.92.85-.13.73.25 1.05.83-.38.83-.38c1.3 1.16 2.98 2.23 5.2 2.23s3.9-1.08 5.2-2.23c0 0 .45.69.83.38s.56-.84.25-1.05z" fill="#f8c600"/><path d="m19 18v-13h-15c-.32 0-.6.05-.6.05v1.75h-2.73s-.04.06-.13.21c-.34.59-.54 1.27-.54 2v9z" fill="#00247d"/><path d="m19 5h-2.33l-4.67 3.27v-3.27h-5v2.57l-3.6-2.52c-.61.09-1.19.33-1.67.67l4.7 3.29h-1.74l-3.72-2.61c-.11.13-.21.26-.31.4l3.15 2.21h-3.81v5h3.89l-3.89 2.77v1.23h3.33l3.67-2.57v2.57h5v-3.27l4.67 3.27h2.33v-2.03l-2.82-1.97h2.82v-5h-2.81l2.81-1.97z" fill="#fff"/><g fill="#cf1b2b"><path d="m11 5h-3v5h-8v3h8v5h3v-5h8v-3h-8z"/><path d="m19 5h-1.46l-5.54 3.88v.12h1.57l5.43-3.8zm-17.28.71c-.28.2-.53.42-.76.68l3.72 2.61h1.74zm4.71 8.29-5.7 4h1.73l4.54-3.18v-.82zm12.56 3.8v-1.22l-3.69-2.58h-1.74z"/></g></svg>