<svg viewBox="0 0 36 36" xmlns="http://www.w3.org/2000/svg"><path d="m36 27c0 2.21-1.79 4-4 4h-28c-2.21 0-4-1.79-4-4v-18c0-2.21 1.79-4 4-4h28c2.21 0 4 1.79 4 4z" fill="#265fb5"/><path d="m.2 13h35.6v10h-35.6z" fill="#fff"/><path d="m22.6 18c0 2.52-2.04 4.56-4.56 4.56s-4.56-2.04-4.56-4.56 2.04-4.56 4.56-4.56 4.56 2.04 4.56 4.56z" fill="#a9bf4c"/><circle cx="18" cy="18" fill="#fff" r="4"/><path d="m14.8 20.2 3.23-5.59 3.23 5.59z" fill="#265fb5"/><path d="m15.1 19.9 2.87-4.97 2.87 4.97z" fill="#55acee"/><path d="m15.1 19.9.69-1.2 4.32-.05.72 1.25z" fill="#bbddf5"/><path d="m15.67 19.16 1.08-.88.47.53.41-.44.34.34.33-.36.39.36.36-.38.33.38.31-.34.52.64.09.19s-.55.11-1.3.05-1.19.11-1.78.19-1.66-.08-1.66-.08z" fill="#5c913b"/><path d="m16.73 18.47.72.78-.36.03-.41-.59zm.86.06.58.52-.27.05-.28-.39zm.73-.03.5.47-.13.08-.41-.44zm.66 0-.2.19.09.11zm.63.02-.23.3.08.14.17-.33z" fill="#e2f09f"/><path d="m18.03 16.43.07.93.53-.76-.4.83.83-.4-.76.53.93.07-.93.07.76.53-.83-.4.4.83-.53-.76-.07.93-.07-.93-.53.76.4-.83-.83.4.76-.53-.93-.07.93-.07-.76-.53.83.4-.4-.83.53.76z" fill="#bbddf5"/><path d="m18 17.2-.19.19s.05.28.03.33.16.28.16.28l.23-.28-.06-.38z" fill="#dd2e44"/><path d="m18.09 16.88c.77 0 1.2.38 1.2.38l-.28-.5s-.45-.34-.98-.34-1.13.42-1.13.42l-.27.53s.69-.48 1.45-.48z" fill="#269"/><path d="m18.09 16.88c.77 0 1.2.38 1.2.38l-.2-.36s-.55-.33-1.08-.33-1.19.42-1.19.42l-.19.38s.69-.49 1.45-.49z" fill="#ffcc4d"/><path d="m18.09 16.88c.77 0 1.2.38 1.2.38l-.14-.23s-.42-.3-1.14-.27c-.53 0-1.27.39-1.27.39l-.11.22s.69-.49 1.45-.49z" fill="#dd2e44"/><path d="m17.59 21.75h1v.96h-1zm-.16-7.41h-.72l-.36-.88.72-.08zm1.63.4-.48-.16.24-1.16.92.08zm-4.3 4.9-1.39.32-.04-.96 1.39-.2zm.36 1-1.16.48-.28-.76 1.08-.36zm7.68-.88-1.27-.36v-.68l1.43-.2zm-.64 1.31-1.19-.56.4-.72 1.32.4z" fill="#fff"/></svg>