<svg viewBox="0 0 36 36" xmlns="http://www.w3.org/2000/svg"><path d="m36 27c0 2.21-1.79 4-4 4h-28c-2.21 0-4-1.79-4-4v-18c0-2.21 1.79-4 4-4h28c2.21 0 4 1.79 4 4z" fill="#fce100"/><path d="m1 13h35v10h-35z" fill="#141414"/><path d="m32 5h-28c-2.21 0-4 1.79-4 4v4h36v-4c0-2.21-1.79-4-4-4z" fill="#007168"/><path d="m1 13h35v1h-35zm0 9h35v1h-35z" fill="#fff"/><path d="m1.31 29.9 15.7-11.9-15.7-12c-.81.73-1.33 1.78-1.33 2.96v18c0 1.17.51 2.21 1.31 2.94z" fill="#dd2e44"/><path d="m9.48 23.1-3.27-2.4-3.27 2.4 1.27-3.85-3.29-2.37 4.05.02 1.23-3.86 1.24 3.86 4.05-.02-3.29 2.37 1.27 3.85z" fill="#fce100"/><path d="m3.37 20.7h2.36c.19.21.61.3 1.02 0 .74-.4 2.17 0 2.17 0l.28-.3-.69-2.25-.25-.26s-.53-.32-1.53-.21-1.35-.04-1.35-.04-.88.11-1.13.23c-.03.02-.28.28-.28.28z" fill="#141414"/><path d="m3.37 20.38h2.36c.19.21.61.3 1.02 0 .74-.4 2.17 0 2.17 0l.28-.3-.69-2.25-.25-.26s-.53-.32-1.53-.21-1.35-.04-1.35-.04-.88.11-1.13.23c-.03.02-.28.28-.28.28z" fill="#fff"/><path d="m2.21 17.01 1.26-1.85.77.12.45-.46 1.54 1.89 1.24-.88.76-.63.45.28 1.61-1.04-1.45 1.36-1.21.86-.96.43 3.24 3.82-.42.3-3.09-3.75-1 .81 1.32.42-.04.63-1.85-.51.08 1.31-.43.19-.38-.76-1.64 1.92-.59-1.01 1.85-1.56.04-.55 1.01-.93.29-.04.84-.34-1.26-1.35-1.69 2.35-.72-.87" fill="#141414"/></svg>