<svg viewBox="0 0 36 36" xmlns="http://www.w3.org/2000/svg"><path d="m0 27c0 2.21 1.79 4 4 4h28c2.21 0 4-1.79 4-4v-1.2h-36zm15.53-6.5h-.03l20.5.1v-5.2h-20.47zm16.47-15.5h-16.47v5.2h20.47v-1.2c0-2.21-1.79-4-4-4z" fill="#006a4e"/><path d="m15.53 15.33v.07h20.47v-5.2h-20.47zm-15.5 5.17-.03 5.3h36v-5.2l-20.5-.1z" fill="#ffce00"/><path d="m4 5c-2.12 0-3.84 1.66-3.97 3.74v11.76h15.5v-15.5z" fill="#d21034"/><path d="m12.34 11.41h-3.45l-.01-.04-1.1-3.37-.02.07-1.09 3.35h-3.59l2.86 2.08.05.03-1.07 3.29-.04.13 2.9-2.11 2.9 2.11-1.11-3.41 2.9-2.11z" fill="#fff"/></svg>