<svg height="64" viewBox="0 0 64 64" width="64" xmlns="http://www.w3.org/2000/svg"><path d="m3.35 60.73c-.47-11.91 3.31-19.64 10.65-26.55l15.97 16.46c-7.21 7.22-14.2 11-26.62 10.09z" fill="#6f8a91"/><path d="m25.82 38.2 20.49-20.49" fill="none" stroke="#63452c" stroke-width="5"/><path d="m22.89 38.57 22.26-22.25" fill="none" stroke="#865e3c" stroke-width="4"/><path d="m17.71 40.76 6.2-6.26 2.72 2.78-6.13 7.23z" fill="#6f8a91"/><path d="m10.01 52.99 16.61-15.71 2.02 2.18-10.74 10.18z" fill="#53676c"/><g fill="none"><path d="m45.42 19.25 4.22-4.16" stroke="#53676c" stroke-width="4"/><path d="m43.85 17.65 4.22-4.16" stroke="#6f8a91" stroke-width="4"/><g stroke-width="2"><path d="m51.23 3.88c-2.67 2.41-5.57 7.46-2.12 11.1 3.72 3.93 9.58 1.22 12.12-2.09" stroke="#53676c"/><path d="m50.04 4.04 9.57 8.89" stroke="#63452c"/><path d="m49.68 4.4 9.57 8.89" stroke="#865e3c"/></g><path d="m50.3 2.91c-2.67 2.41-5.48 7.68-2.03 11.32 3.72 3.93 9.49 1.31 12.03-2" stroke="#6f8a91"/></g></svg>