<svg enable-background="new 0 0 128 128" viewBox="0 0 128 128" xmlns="http://www.w3.org/2000/svg"><path d="m117.64 102.31h-107.28c-2.74 0-3.83-1.71-3.83-3.83v-68.96c0-2.12 1.71-3.83 3.83-3.83h107.27c2.12 0 3.83 1.71 3.83 3.83v68.96c.01 2.12-1.71 3.83-3.82 3.83z" fill="#fff"/><g stroke="#6fbff0" stroke-miterlimit="10"><path d="m120.94 28.12c-.51-.61-1.41-.69-2.02-.19l-36.69 30.88v6.35l3.77-3.43 32.25 38.73c.67.65 1.24.9 1.83.47.37-.27.29-.78-.25-1.37l-29.57-41.7 30.5-27.72c.6-.5.69-1.41.18-2.02z" fill="#6fbff0" stroke-width=".5"/><path d="m47.04 59.87-37.96-31.94c-.61-.51-1.52-.42-2.02.19-.51.61-.42 1.52.19 2.02l30.5 27.72-29.58 41.71c-.53.59-.61 1.1-.25 1.37.59.43 1.16.18 1.83-.47l32.25-38.74 5.04 4.58z" fill="#6fbff0" stroke-width=".5"/><path d="m117.64 102.31h-107.28c-2.74 0-3.83-1.71-3.83-3.83v-68.96c0-2.12 1.71-3.83 3.83-3.83h107.27c2.12 0 3.83 1.71 3.83 3.83v68.96c.01 2.12-1.71 3.83-3.82 3.83z" fill="none" stroke-width="4"/></g><path d="m51.52 41.96 25.5-2.29h.03 1.39c.29 0 .57.13.75.36l1.45 1.85c.05.07.08.15.08.23v7.82c0 .21-.17.38-.38.38h-20c-.21 0-.38.17-.38.38v9.99c0 .23.2.4.43.37l15.24-2.25h.05.62c.32 0 .62.15.81.39l1.43 1.82c.05.07.08.15.08.23v7.82c0 .21-.17.38-.38.38h-17.89c-.21 0-.38.17-.38.38v9.98c0 .23.21.41.44.37l13.13-2.24c.02 0 .04-.01.06-.01h4.8c.32 0 .62.15.82.4l1.42 1.82c.05.07.08.15.08.23v7.82c0 .21-.17.38-.38.38h-28.96c-.12 0-.22-.05-.3-.14l-1.62-2.07c-.05-.07-.08-.16-.08-.25l1.8-43.78c.01-.2.16-.36.34-.37z" fill="#0d47a1"/><path d="m50.04 39.67h28.21c.37 0 .66.3.66.66v7c0 .37-.3.66-.66.66h-19.43c-.37 0-.66.3-.66.66v9.47c0 .37.3.66.66.66h17.34c.37 0 .66.3.66.66v7c0 .37-.3.66-.66.66h-17.34c-.37 0-.66.3-.66.66v9.47c0 .37.3.66.66.66h19.43c.37 0 .66.3.66.66v7c0 .37-.3.66-.66.66h-28.21c-.37 0-.66-.3-.66-.66v-45.22c0-.37.3-.66.66-.66z" fill="#2196f3"/></svg>