<svg enable-background="new 0 0 128 128" viewBox="0 0 128 128" xmlns="http://www.w3.org/2000/svg"><path d="m51.24 75.33s-47.26-17.71-47.24-18.08l1.12-33.65c.02-.45.47-.75.89-.59l46.35 17.12c.38.14.62.51.61.91l-1.13 33.9c-.01.3-.31.5-.6.39z" fill="#2f7889"/><path d="m9.29 59.89 41.95 15.44c.28.11.59-.09.6-.4l1.13-33.9-7.57-2.85z" fill="#37474f"/><g fill="none" stroke="#9dd4e0" stroke-miterlimit="10"><path d="m51.24 75.33-46.69-17.25c-.34-.13-.56-.46-.55-.82l1.12-33.66c.02-.45.47-.75.89-.59l46.35 17.12c.38.14.62.51.61.91l-1.13 33.9c-.01.3-.31.5-.6.39z" stroke-width="2.04"/><g stroke-width="1.02"><path d="m52.41 57.96-47.84-17.69"/><path d="m29.54 32.71-1.17 34.02"/><path d="m16.94 27.39-1.06 35.2"/><path d="m42.02 35.95-1.06 35.44"/></g></g><path d="m82.81 38.76 1.46-2.49c.59-1.01 1.82-1.5 2.93-1.13 2.04.68 5.21 2.43 7.46 6.88 2.27 4.49 1.93 8.12 1.37 10.17-.29 1.09-1.26 1.85-2.38 1.88l-2.04.04z" fill="#bf8904"/><path d="m91.15 40.25c-.63.82.08 4.67-.76 5.61-.42.46-1.01.9-1.58.65l2.29 7.61 2.57-.04c1.13-.02 2.09-.79 2.38-1.88.55-2.05.9-5.68-1.37-10.17-.3-.57-2.06-3.71-3.53-1.78z" fill="#875d00"/><path d="m89.28 41.23-20.38-7.77-21.19 9.97 5.94 42.57 22.18-9.48 16.91-13.77z" fill="#ffca28"/><path d="m89.28 41.22-21.33 9.92-14.1 35.25 22.18-9.48 16.91-13.77z" fill="#e2a610"/><path d="m67.99 51.25-20.37-7.77-16.91 13.76 3.46 21.53 20.37 7.76 16.91-13.76z" fill="#bf8904"/><path d="m93.17 63.12-21.82 9.67-3.44 2.85c.01-.14.6-6.87-4.9-15.06-3.95-5.89-12.89-9.2-12.89-9.2l4.45 35.3 22.17-9.48z" fill="#875d00"/><path d="m122.27 105.01s-47.26-17.71-47.24-18.08l1.12-33.66c.02-.45.47-.75.89-.59l46.35 17.12c.38.14.62.51.61.91l-1.13 33.9c-.01.31-.31.51-.6.4z" fill="#2f7889"/><path d="m80.32 89.57 41.95 15.44c.28.11.59-.09.6-.4l1.13-34.66-6.99-2.43z" fill="#37474f"/><g fill="none" stroke="#9dd4e0" stroke-miterlimit="10"><path d="m122.27 105.01-46.69-17.25c-.34-.13-.56-.46-.55-.83l1.12-33.66c.02-.45.47-.75.89-.59l46.35 17.12c.38.14.62.51.61.91l-1.13 33.9c-.01.31-.31.51-.6.4z" stroke-width="2.04"/><g stroke-width="1.02"><path d="m123.44 87.63-47.84-17.68"/><path d="m100.57 62.39-1.17 34.02"/><path d="m87.97 57.06-1.06 35.2"/><path d="m113.05 65.63-1.06 35.44"/></g></g><path d="m75.03 39.47c0-1.57-2.67-2.85-5.96-2.85s-5.96 1.27-5.96 2.85v2.23c0 1.57 2.67 2.85 5.96 2.85s5.96-1.27 5.96-2.85c0-.39 0-1.83 0-2.23z" fill="#e2a610"/><ellipse cx="69.07" cy="39.47" fill="#e2a610" rx="5.96" ry="2.85"/><ellipse cx="69.07" cy="39.27" fill="#ffca28" rx="5.01" ry="2.2"/><path d="m70.02 39.3s-.19.4-.94.4-.94-.4-.94-.4.27-10.28.35-10.95 1.02-.65 1.05 0c.02.65.48 10.95.48 10.95z" fill="#e2a610"/><path d="m75.03 39.47s-.37 1.63-3.68 2.29c-2.43.48-4.17.29-4.59 1.56-.32.96 1.98 1.75 5.23.87 2.93-.8 3.04-2.26 3.04-2.48s0-2.24 0-2.24z" fill="#bf8904"/><path d="m53.94 92.43-17.32-45.94c7.54-2.84 21.56 3.62 26.34 16.3s-1.48 26.8-9.02 29.64z" fill="#9dd4e0"/><path d="m51.7 86.49 2.24 5.94c7.54-2.84 13.81-16.95 9.02-29.64-.4-1.06-.87-2.08-1.4-3.06 1.9 8.89-1.6 19.92-9.86 26.76z" fill="#2f7889"/><ellipse cx="45.23" cy="69.56" fill="#f5f5f5" rx="13.25" ry="23.6" transform="matrix(.9357 -.3527 .3527 .9357 -21.63 20.42)"/><path d="m37.04 68.06c-3.51-6.56-5.78-16.39-1.43-20.05 4.59-3.86 11.08.68 14.34 3.57 1.81 1.6 2.76 2.85 3.7 4.13 5.36 7.3 9.97 21.66 3.79 26.91-4.31 3.66-15.15-4.74-20.4-14.56z" fill="#bdbdbd"/><path d="m33.52 73.89c-4.31-11.44-2.57-23.13 3.81-25.53s15.4 5.23 19.71 16.67 2.57 23.13-3.81 25.53-15.4-5.23-19.71-16.67m-1.34.51c4.78 12.69 14.77 20.67 22.31 17.82 7.54-2.84 9.78-15.43 4.99-28.12s-14.77-20.66-22.31-17.82-9.77 15.43-4.99 28.12z" fill="#6392a5"/><g fill="none" stroke="#6392a5" stroke-linecap="round" stroke-miterlimit="10" stroke-width="1.5"><path d="m26.72 76.3 26.06-11.54"/><path d="m26.72 76.3 15.19-17.01"/><path d="m26.72 76.3 23.25 3.54"/></g><path d="m28.4 74.49.79 2.08c.17.44-.06.94-.5 1.1l-4.13 1.56c-.44.17-.94-.06-1.1-.5l-.79-2.08c-.17-.44.06-.94.5-1.1l4.13-1.55c.44-.17.93.05 1.1.49z" fill="#6392a5"/></svg>