<svg enable-background="new 0 0 128 128" viewBox="0 0 128 128" xmlns="http://www.w3.org/2000/svg"><path d="m30.55 115.65-6.65 2.08s-.3 2.3.11 3.72 1.15 2.23 3.64 2.29 33.3 0 33.3 0l6.1.04s33.71-.11 34.65-.11 2.36-1.69 2.5-3.57-.95-3.29-.95-3.29l-32.02-4.21s-40.68 3.05-40.68 3.05z" fill="#da342e"/><path d="m89.89 116.75s10.31-16.38 10.08-38.78c-.24-22.4-15.8-31.85-33.02-32.59s-38.25 8.65-37.5 36.48c.39 14.42 4.6 26.5 7.94 33 11.75.16 28.41.16 28.41.16z" fill="#3c2c23"/><path d="m36.36 71.94c-.46-.25-5.83 1.43-4.39 8.97.62 3.24 2.87 5.3 5.14 6.15 2.72 1.02 5.47.46 5.47.46l-4.37-5.38s-.81-2.89-1.22-5.65c-.41-2.75-.16-4.3-.62-4.55z" fill="#a56c43"/><path d="m91.93 71.73c1.04-.41 6 2.34 4.87 9.06-1.13 6.71-6.33 7.58-7.8 7.58s-5.02-3.07-5.02-3.07 5.51-2.8 6.55-3.96 1.39-9.61 1.4-9.61z" fill="#a56c43"/><path d="m52.8 105.34 10.08 14.03h2.2l9.68-14.15v-3.05l-21.94-.76z" fill="#875334"/><path d="m76.69 113.26-.85 2.72s6.06 1.59 12.96 2.15c6.91.57 10.64.7 11.77.57 2.77-.34 2.67-1.88 2.67-1.88l-9.12-2.02-17.44-1.53z" fill="#fff"/><path d="m26.82 116.26-2.92 1.47s.03 1.53 2.41 1.7 7.53-.37 12.62-1.02c7.98-1.02 13.13-3.34 13.13-3.34l-1.64-2.55-15 2.83s-8.6.91-8.6.91z" fill="#fff"/><path d="m66.28 114.04-.38 6.01s3.72.8 8.57-2.09c2.65-1.58 3.17-3.52 3.17-3.52s4.67.92 10.9 1.5 14.7.86 14.7.86-1.44-2.48-4.61-2.94-7.09-.39-10.15-.75c-3.46-.4-8.77-1.27-9.8-1.73-.76-.34-1.79-.92-1.96-1.73s-.17-3.17-.17-3.17l-5.65.06z" fill="#474c4f"/><path d="m53.25 106.03-2.83.63s-.06 3.06-.06 3.46-3 1.73-5.82 2.54-10.44 1.5-12.51 1.73-4.02.42-5.54.92c-2.25.75-2.59 2.42-2.59 2.42s9.43-.61 14.59-1.27c6.75-.86 11.01-2.65 11.42-2.48s1.59 2.79 4.56 4.21c3.98 1.9 7.48 1.59 7.48 1.59l-.5-9.15-5.54-4.21-2.65-.4z" fill="#474c4f"/><path d="m55.78 109.34c-1.66.07-2.56 1-2.46 2.93.07 1.33 1.13 2.4 2.66 2.33 1.4-.06 2.66-.8 2.53-2.79-.1-1.46-1.07-2.53-2.73-2.46z" fill="#ffca26"/><path d="m71.71 109.86c-1.65.24-2.5 1.39-2.53 2.86-.03 1.6 1.2 2.66 2.79 2.6 1.71-.07 2.73-1.46 2.46-3.19-.21-1.38-1.33-2.46-2.73-2.26z" fill="#ffca26"/><path d="m50.24 105.94c-.18.89 1.08 1.35 3.42 1.43s4.5.79 6.06 3.42 1.22 12.96 1.22 12.96 1.13.33 3.13.28c1.74-.04 2.98-.24 2.98-.24s-.02-3.91.47-7.7c.31-2.42.82-4.58 1.41-5.51 1.59-2.52 3.62-3.13 5.05-3.21s2.67-.11 2.74-1.25-3.03-1.37-5.26-.5c-1.59.62-4.01 2.22-5.19 4.69-1.01 2.1-1.21 4.61-1.36 6.64-.08 1.05-1.25 1.01-1.25-.05s-.03-4.19-1.17-6.75c-1.14-2.57-2.99-4.14-5.78-4.85s-6.26-.47-6.49.64z" fill="#fefefe"/><path d="m44.17 61.6c-.82.86-2.54 6.85-3.23 13.1-.28 2.58-.26 7.42-1.08 7.99s-1.32.16-1.32.16.53 5.94 4.64 11.64c3.8 5.28 10.69 10.37 21.49 10.37 9.98 0 15.82-3.56 19.63-8.03 5.66-6.63 6.27-14.44 6.27-14.44s-1.93.99-2.43-.99c-.35-1.42-.06-17.85-5.26-23.84-3.9-4.48-12.05-4.44-18.36-4.11-8.54.45-20.35 8.14-20.35 8.15z" fill="#a56c43"/><path d="m64.29 81.33c-1.56.05-3.2-.63-3.91.25s.2 1.88 1.15 2.67c1.59 1.32 3.7 1.31 5.19.21s2.03-2.34 1.21-3.07-2.17-.1-3.63-.05z" fill="#875334"/><path d="m64.29 89.49c-3.73 0-7.28-1.39-7.95.07-.98 2.16 2.71 4.63 8.08 4.63 6.89 0 9.16-3.46 8.28-4.7s-4.11 0-8.41 0z" fill="#473530"/><path d="m50.42 69.49c-3.3-.05-4.59 2.81-4.39 4.83s1.73 3.94 4.63 3.9c2.76-.05 4.29-1.87 4.29-4.29s-1.48-4.39-4.53-4.44z" fill="#42312c"/><path d="m77.55 69.4c-2.46-.26-4.73 1.48-4.63 4.44.11 3.3 3 4.34 4.59 4.34 2.27 0 4.1-1.68 4.14-4.09.05-2.71-1.33-4.39-4.09-4.68z" fill="#42312c"/><path d="m64.73 99.75h-.21c-27.22-.16-30.2-29.49-30.23-29.79l3.18-.29c0 .07.69 6.82 4.43 13.47 4.9 8.7 12.54 13.15 22.69 13.21h.19c22.99 0 26.55-25.63 26.69-26.72l3.17.39c-.04.3-4.1 29.74-29.91 29.73z" fill="#d8992b"/><path d="m26.45 67.22s-6.33-26.57 1.05-42.35c7.14-15.29 18.61-21.14 36.51-20.9 19.36.26 29.67 7.52 36.03 19.5 7.2 13.57 2.49 43.27 2.49 43.27l-37.3-4.45-38.77 4.92z" fill="#464c4f"/><path d="m26.45 67.22s15.37-13.83 38.7-14.23c22.1-.38 37.37 13.75 37.37 13.75s-.76 5.12-1.33 7.4-.85 4.55-1.61 5.03-7.3-12.52-34.71-12.05c-25.25.44-34.05 11.57-35.38 11s-1.61-3.41-2.28-6.45c-.38-1.76-.76-4.46-.76-4.45z" fill="#3e4346"/><g fill="#50565c"><path d="m42.18 14.18c-1.76 1.42-3.23 3.59-1.32 5.72s4.98-.66 6.01-1.61 2.27-3.15 1.03-4.76-3.81-.88-5.72.65z"/><path d="m30.75 29.14c-.26 1.71 1.54 3.15 4.18 3.23s4.49-.95 4.54-2.64c.07-2.27-1.25-3.23-4.03-3.37s-4.4.88-4.69 2.79z"/><path d="m41.74 42.26c-1.6-1.84-4.76-.29-6.23 1.25s-3.37 3.96-1.39 5.94 4.03 0 5.72-1.39 3.37-4.11 1.91-5.79z"/><path d="m50.1 38.81c-1.8 1.96-3.37 4.11-1.39 5.94 2.14 1.98 4.54-.66 5.72-1.69 1.17-1.03 3.01-3.96 1.76-5.35s-3.59-1.61-6.08 1.1z"/></g><g fill="#3e4346"><path d="m86.9 42.04c-.73 2.2 1.1 3.45 4.33 4.33s5.2.07 5.5-2.05-1.03-3.37-4.4-3.96c-2.9-.5-4.76-.29-5.42 1.69z"/><path d="m81.18 45.7c-1.76 1.98.51 4.33 2.05 6.16s4.25 3.08 5.72 1.32c1.74-2.08-.66-4.47-1.91-5.86s-3.96-3.75-5.86-1.62z"/><path d="m80.45 24.67c-1.98 1.29-1.54 3.96.73 6.45s4.25 2.2 5.42 1.25 1.03-3.15-.81-5.5c-1.39-1.78-3.45-3.45-5.34-2.2z"/><path d="m83.97 18.14c-1.31 1.73-.44 4.11 3.08 6.38s6.03 3.13 7.11.73c1.03-2.27-1.39-3.89-3.74-5.42-1.79-1.17-4.62-4.11-6.45-1.69z"/></g></svg>