<svg enable-background="new 0 0 128 128" viewBox="0 0 128 128" xmlns="http://www.w3.org/2000/svg"><path d="m41.65 71.57s-5.26-1.27-7.97-7.49-3.05-16.6-.32-31.08 9.43-24.6 22.18-27.95 24.27 1.38 29.14 11.38c7.2 14.79 6.53 24.38 4.94 34.42s-5.33 16.35-5.33 16.35z" fill="#62453b"/><path d="m44.91 68.72s-3.92-3.36-4.25-8.84c-.34-5.48 1.79-10.63 1.79-10.63l18.41-13.45 21.54-2.44s3.33 6.86 2.62 15.61c-.52 6.39-3.75 13.2-3.75 13.2l-10.74 3.64s-25.62 2.91-25.62 2.91z" fill="#513730"/><path d="m35.53 106.15-.24 5.62s-.4 3.59 2.77 6.76c5.05 5.05 16.35 4.59 16.35 4.59l12.25-7.85-4.07-8.23-6.68-5.7z" fill="#c7c7c7"/><path d="m97.53 104.81 12.6-.4s-1.89-16.44-8.01-26.92c-6.79-11.62-15.54-15.34-15.54-15.34l-21.2 12.87 12.72 32.27z" fill="#583ee2"/><path d="m19.29 99.41s6.23-14.4 16.14-24.76c10.87-11.36 19.73-15.47 19.73-15.47l22.63.2s2.35.61 4.6 1.23 4.19 1.53 4.19 1.53-1.33 3.58-4.81 7.06-8.59 5.01-8.59 5.01-53.89 25.2-53.89 25.2z" fill="#4b0fce"/><path d="m37.74 103.09 43.2-12.62-7.18-17.94-25.71 3.72-9.24 23.46z" fill="#351ba4"/><path d="m60.04 61.24.62 8.33s2.52 2.65 9.14 1.7c6.5-.93 7.93-3.78 8.06-4.34s-.31-10.37-.31-10.37l-17.5 4.68z" fill="#e59502"/><path d="m42.44 49.25s.49 1.98 2.6 3.22c1.47.86 3.69.62 3.69.62l-1.06-9.38-2.04-.58s-1.02 1.68-1.82 3.21-1.36 2.9-1.36 2.9z" fill="#e59502"/><path d="m45.63 43.14s.22 7.95 5.91 13.86 11.74 8.24 19.04 6.2 12.69-9.12 12.99-17.87c.29-8.75-1.17-11.96-1.17-11.96s-5.85-2.64-11.25-6.95c-5.4-4.3-7.42-7.71-7.42-7.71s-.07 3.28-3.57 7.22-8.19 8.74-10.07 11.02c-2.77 3.36-4.45 6.2-4.45 6.2z" fill="#ffca26"/><path d="m68.37 33.51c.34 1.12 1.44.69 4.59.05s4.8-.75 4.64-1.81c-.17-1.16-2.29-.94-5.01-.85-3.25.11-4.59 1.39-4.21 2.61z" fill="#6d4c3f"/><path d="m48.28 39.76c.59 1.17 3.2-.69 4.75-1.33s4.59-1.23 4.43-2.51-3.15-.91-5.28-.05c-1.69.68-2.13 1.08-2.13 1.08l-.69.84-.97 1.22s-.29.38-.11.75z" fill="#6d4c3f"/><path d="m50.61 44.39c-.21 1 1.76 2.67 5.01 2.19s5.23-2.88 4.48-4-2.19.53-4.91 1.07c-2.31.45-4.37-.27-4.58.74z" fill="#3f4040"/><path d="m69.54 40.14c-.59 1.41 1.97 2.51 4.96 1.97s5.58-3.33 4-4.43c-.69-.48-1.81.8-4.32 1.49-2.17.6-4.11-.32-4.64.97z" fill="#3f4040"/><path d="m63.08 49.44c.3 1.13 3.21 2.01 4.54 1.69 1.87-.46 3.41-3.02 2.66-3.7-.91-.84-2.7 1.02-3.28 1.1-1.17.16-4.28-.45-3.92.91z" fill="#e59802"/><path d="m62.63 55.18c.4 1.11 3.54 1.46 5.71 1.14s6.03-3.15 4.77-4.19c-1.1-.9-2.85.97-4.83 1.4-.99.21-2.32.34-3.5.45-.63.06-1.27 0-1.69.23-.36.19-.58.62-.46.97z" fill="#785446"/><path d="m75.59 70.09s-1.22-6.04-6.83-9.09-10.98-5.43-11.46-5.43-5.3.79-7.99 6.46-.85 10.61-.61 11.28 12.07 6.16 16.46 6.95 7.2-2.07 7.2-2.07l3.23-8.11z" fill="#fffde7"/><path d="m70.52 72.67c-2.5 3.9-2.13 7.57-2.13 7.57s1.54-.2 2.63-.94 5.01-7.82 4.79-8.64-.59-1.83-.59-1.83-2.64.64-4.7 3.84z" fill="#4396a9"/><path d="m70.1 79.78s-.31-2.7 1.65-5.88 3.89-3.75 3.89-3.75 2.41.12 3.92 1.47c1.99 1.79 1.95 3.37 1.95 3.37l-4.58 7.85s-1.8.87-4.36-.59c-1.81-1.03-2.47-2.47-2.47-2.47z" fill="#6dcbe0"/><path d="m79.78 75.34s-1.79-1.56-2.74-2.18-2.46-1.52-2.97-.7 1.11 1.47 2.51 2.5 2.42 1.95 2.42 1.95l.77-1.57z" fill="#50afc4"/><path d="m77.6 79.09s-1.83-.55-2.93-1.1-2.38-1.77-3.05-.98.98 2.01 2.32 2.74 3.66 1.04 3.66 1.04v-1.71z" fill="#50afc4"/><path d="m51.63 66.02s.3-2.4 1.46-3.81 1.94-1.94 1.94-1.94l7.93 2.8-.73 1.83s-4.45-.85-6.16-.67-4.44 1.79-4.44 1.79z" fill="#e2defa"/><path d="m72.36 67.71s-2.13-3.29-5.49-5.18-7.93-3.96-8.84-3.96-2.99 1.71-2.99 1.71.99 1.02 3.17 2.01c2.48 1.13 3.9 1.4 4.02 1.59.27.41 0 1.04 0 1.04s3.78.98 5.18 1.4 4.82 1.59 4.94 1.4z" fill="#ffebb1"/><path d="m76.75 85.59s-.15-3.05-.07-3.75c.47-4 1.77-7.07 6.24-9.66 4.77-2.76 10.23-2.25 13.63-.36s5.15 4.75 5.15 4.75l-18.23 18.16-6.73-9.15z" fill="#fdfefa"/><path d="m76.67 82.08s1.52 3.08 4.3 3.97c1.83.59 2.55.1 2.55.1l.58 9.91-5.14-4.98-2.2-5.5s-.1-.54-.13-.77c-.06-.46.04-2.74.04-2.74z" fill="#dfd7c5"/><path d="m84.27 92.1s-3.86-8.58.67-14.78c4.52-6.19 12.96-3.95 12.96-3.95 1.88.36 6.46 2.97 7.05 8.12.52 4.64-3.53 11.31-3.53 11.31s-17.15-.7-17.15-.7z" fill="#c6e1a5"/><path d="m82.81 86.21s5.33 6.89 14.37 5.05 7.25-11.6 7.25-11.6 5.73 9.4-2.07 15.96c-1.59 1.34-13.54 11.78-13.54 11.78s-3.55-8.33-4.35-10.58c-1.86-5.24-1.66-10.61-1.66-10.61z" fill="#a1c07d"/><path d="m40.99 99.63s2.93-3.1 5.38-4.73c2.44-1.63 12.14-5.54 14.75-6.36s9.15-3.31 9.15-3.31l1.28 12.35-7.06 8.55-7.52-2.11s-.81.73-.24 2.53 2.28 3.1 2.28 3.1l-9.53 1.16s-3.59-.1-7.01-.18-7.01-.9-7.01-.9z" fill="#e0e0e0"/><path d="m70.26 85.24s2.14-.65 3.62-.77 2.73-.12 2.73-.12 1.96 5.1 6.05 9.43 8.84 7.83 8.84 7.83l-11.04 11.04-17.39-4.75s.88-7.43 3.44-13.88c2.73-6.88 3.74-8.78 3.75-8.78z" fill="#9a9a9a"/><path d="m72.52 100.19-5.28 6.7 8.54 2.2 14-5.64-1.19-.65s-3.5-3.09-5.7-5.16-3.68-4.57-3.68-4.57z" fill="#c7c7c7"/><path d="m66.25 106.14s1.88-8.15 3.48-12.48 3.44-9.2 4.09-9.02 5.4 8.43 5.4 8.43-1.42 4.75-4.09 7.54-7.48 5.76-7.48 5.76l-1.4-.22z" fill="#e0e0e0"/><path d="m58.25 103.02s-1.04.59-.69 1.73 1.58 2.23 2.52 2.77 2.03 1.09 1.43 1.53-12 1.76-12 1.76-.72 1.85 1.46 2.3 6.48.84 6.48.84 3.27.13 3.22.72-9.86.07-9.86.07-2.32.28-2.32 1.58c0 .95 1.23 1.44 1.23 1.44s-1.02.7-.33 1.69c.9 1.3 3.56 1.48 3.56 1.48s-.83.3-.28 1.29 3.25 1.64 9.68 1.78c7.8.18 11.36-1.6 11.36-1.6l2.81-6.69-12.04-9.57s-6.23-3.12-6.23-3.12z" fill="#e59502"/><path d="m73.47 107.88s-1.06-.3-4.86-1.47c-3.67-1.13-5.51-1.8-7.32-2.62-1.34-.61-2.67-1.14-3.03-.78-.41.41.41 1.83 1.71 2.72 1.31.89 3.97 2.13 3.79 2.89s-4.57.93-7.3 1.12c-2.71.2-6.6.23-6.99 1.08s1.4 1.09 2.29 1.2c1.25.16 6.13.69 7.4.74 2.49.1 3.34.3 3.37.88.03.85-8.39.9-10.01.95-1.21.04-2.95.07-3.22.69-.45 1.06 4 1.33 6.37 1.34 1.32 0 5.88-.11 5.91.66.03.7-5.06.77-6.27.77-1.44 0-5.3-.25-5.3-.25s-.16.74.63 1.19c.85.49 3.15.77 4.98.77 2.33 0 6.21-.28 6.25.39.05.73-3.12.87-4.04.83-.81-.03-3.75-.11-4.25-.04-.42 1.4 4.75 1.81 8 1.79 8.18-.05 14.99-4.36 14.99-4.36l1.39-6.37-4.5-4.13z" fill="#ffca26"/><path d="m110.13 104.44s-.52-10.66-7.92-8.8c-7.3 1.84-13.4 7.7-19.27 9.79-4.7 1.67-9.75 2.37-9.75 2.37s.74 2.26.74 4.61-.13 4.83-.13 4.83l17.83.96 16.24-7.28s2.35-4.07 2.26-6.47z" fill="#583ee2"/><path d="m81.13 121.44c-3.55.32-7.55 1.09-7.55 1.09l.23-5.32s5.2-.66 8.24-.75c3.03-.09 7.38-.24 15.34-2.75s12.76-9.31 12.76-9.31.2 4.89-2.08 8.37-7.24 5.61-8.8 6.04c-6.77 1.86-16.53 2.49-18.13 2.63z" fill="#4b0fce"/><path d="m36.54 87.61-17.6 23.42s1.59 5.18 8.21 5.18 9.49-5.85 11.7-10.49 7.86-16.83 8.19-17.83-1.79-2.48-1.79-2.48l-8.72 2.21z" fill="#4b0fce"/><path d="m41.83 76.02-5.01 4.02s-7.46 7.79-9.67 10-4.97 4.64-5.96 5.96-3.58 5.73-3.31 10.05c.2 3.15 1.07 5.03 1.07 5.03s7.54.27 9.63-.95c2.1-1.21 8.72-10.49 10.93-14.46s6.29-12.59 6.29-12.59z" fill="#583ee2"/><path d="m44.16 80.1-2.64 5.57s2.06 1.09 4.44.88c3.05-.27 4.92-2.71 4.89-2.58-.05.23 0 1.11.83 1.11s3.53-.71 4.35-1.24 1.39-1.45 1.39-1.45 1 .23 1.41-.82.23-4.75.23-4.75l-1.2-3.11s3.96-1.35 5.84-1.99 3.58-1.06 3.75-1.99-.06-1.5-.06-1.5l-13.01 2.28s.14-1.46.56-1.98c.45-.56 2.64-2.24 4.06-3.03 1.52-.86 3.26-2.01 3.93-2.59s.88-1.53.62-2.1c-.22-.49-.69-.42-.69-.42l-13.71 8.41-4.99 11.32z" fill="#e59502"/><path d="m36.82 80.04s4.58-5.75 6.51-7.8 6.57-6.51 9.92-8.27 9.26-3.57 9.63-3.6c.82-.06.27 1.09-.32 1.5s-5.79 3.21-6.44 3.74-3.58 2.7-2.99 3.58 4.4-.88 6.34-1.23 6.98-.23 7.69.06.06 1.64-1.99 1.88-3.88.5-4.46.59-5.87 2.05-5.87 2.05 3.71.48 4.49 2.02c2.23 4.4-.85 7.72-1.21 7.78s.94-3.75-.59-5.34-3.64-1.53-4.34-1.35-.7 1 .23 1.17 3.04.27 3.4 1.47c.53 1.76.06 5.49-2.11 6.08s-3.67 1.13-3.6.29c.18-1.94 2.95-2.21 3.01-3.91.03-.76-1.17-1.35-1.82-1.29s-3.1 2.92-5.05 4.17c-2.69 1.72-5.75 2.05-5.75 2.05s-2.37-1.32-3.29-2.64c-1.06-1.53-1.41-2.99-1.41-2.99z" fill="#ffca26"/></svg>