<svg enable-background="new 0 0 128 128" viewBox="0 0 128 128" xmlns="http://www.w3.org/2000/svg" xmlns:xlink="http://www.w3.org/1999/xlink"><radialGradient id="a" cx="64.0005" cy="81.2207" gradientTransform="matrix(1 0 0 -1.1282 0 138.2978)" gradientUnits="userSpaceOnUse" r="37.8732"><stop offset=".7945" stop-color="#6d4c41" stop-opacity="0"/><stop offset="1" stop-color="#6d4c41"/></radialGradient><linearGradient id="b" gradientTransform="matrix(1 0 0 -1 0 128)" gradientUnits="userSpaceOnUse" x1="64" x2="64" y1="127.3507" y2="98.7102"><stop offset=".0032" stop-color="#424242"/><stop offset=".4718" stop-color="#353535"/><stop offset="1" stop-color="#212121"/></linearGradient><linearGradient id="c" gradientTransform="matrix(1 0 0 -1 0 128)" gradientUnits="userSpaceOnUse" x1="64" x2="64" y1="127.184" y2="96.184"><stop offset=".0032" stop-color="#616161"/><stop offset=".3237" stop-color="#505050"/><stop offset=".955" stop-color="#242424"/><stop offset="1" stop-color="#212121"/></linearGradient><linearGradient id="d" gradientTransform="matrix(1 0 0 -1 0 128)" gradientUnits="userSpaceOnUse" x1="13.8925" x2="114.7207" y1="109.017" y2="109.017"><stop offset=".0012" stop-color="#bfbebe"/><stop offset=".3" stop-color="#212121" stop-opacity="0"/><stop offset=".7" stop-color="#212121" stop-opacity="0"/><stop offset="1" stop-color="#bfbebe"/></linearGradient><radialGradient id="e" cx="64" cy="5.3966" gradientTransform="matrix(1 0 0 -.5247 0 125.4353)" gradientUnits="userSpaceOnUse" r="54.167"><stop offset=".5981" stop-color="#212121"/><stop offset="1" stop-color="#616161"/></radialGradient><path d="m73.76 89.08h-19.53v19.33c0 4.85 3.98 8.78 8.88 8.78h1.77c4.9 0 8.88-3.93 8.88-8.78z" fill="#e59600"/><path d="m91.33 50.41h-54.66c-5.89 0-10.71 5.14-10.71 11.41 0 6.28 4.82 11.41 10.71 11.41h54.65c5.89 0 10.71-5.14 10.71-11.41.01-6.27-4.81-11.41-10.7-11.41z" fill="#e59600"/><path d="m64 11.05c-17.4 0-33.52 18.61-33.52 45.39 0 26.64 16.61 39.81 33.52 39.81s33.52-13.17 33.52-39.81c0-26.78-16.12-45.39-33.52-45.39z" fill="#ffca28"/><ellipse cx="47.56" cy="58.79" fill="#404040" rx="4.93" ry="5.1"/><ellipse cx="80.44" cy="58.79" fill="#404040" rx="4.93" ry="5.1"/><path d="m67.86 68.04c-.11-.04-.21-.07-.32-.08h-7.07c-.11.01-.22.04-.32.08-.64.26-.99.92-.69 1.63s1.71 2.69 4.55 2.69 4.25-1.99 4.55-2.69c.29-.71-.06-1.37-.7-1.63z" fill="#e59600"/><path d="m72.42 76.12c-3.19 1.89-13.63 1.89-16.81 0-1.83-1.09-3.7.58-2.94 2.24.75 1.63 6.45 5.42 11.37 5.42s10.55-3.79 11.3-5.42c.75-1.66-1.09-3.33-2.92-2.24z" fill="#795548"/><path d="m64.02 5.03c-.01 0-.01 0-.02 0s-.01 0-.02 0c-45.44.24-36.13 50.14-36.13 50.14s2.04 5.35 2.97 7.71c.13.34.63.3.71-.05.97-4.34 4.46-19.73 6.22-24.41 1.04-2.76 3.9-4.36 6.79-3.83 4.46.81 11.55 1.81 19.38 1.81h.08.08c7.82 0 14.92-1 19.37-1.81 2.9-.53 5.76 1.08 6.79 3.83 1.75 4.66 5.22 19.96 6.2 24.36.08.36.58.39.71.05l2.98-7.67c.02.01 9.32-49.89-36.11-50.13z" fill="#543930"/><path d="m100.15 55.17s9.31-49.9-36.13-50.14c-.01 0-.01 0-.02 0-.01 0-.01 0-.02 0-.71 0-1.4.02-2.08.05-1.35.06-2.66.16-3.92.31-.01 0-.03 0-.04 0-.09.01-.17.03-.26.04-38.25 4.81-29.84 49.74-29.84 49.74l2.98 7.68c.13.34.62.31.7-.05.98-4.39 4.46-19.71 6.22-24.37 1.04-2.76 3.9-4.36 6.8-3.83 4.46.8 11.55 1.8 19.38 1.8h.08.08c7.82 0 14.92-1 19.37-1.81 2.9-.53 5.76 1.08 6.79 3.83 1.76 4.68 5.25 20.1 6.21 24.42.08.36.57.39.7.05.94-2.35 3-7.72 3-7.72z" fill="url(#a)"/><path d="m116.5 54.28c-1.24 0-2.25.96-2.25 2.14v9.2c0 1.18 1.01 2.14 2.25 2.14s2.25-.96 2.25-2.14v-9.2c0-1.18-1.01-2.14-2.25-2.14z" fill="#e8ad00"/><path d="m112 54.28c-1.24 0-2.25.96-2.25 2.14v9.2c0 1.18 1.01 2.14 2.25 2.14s2.25-.96 2.25-2.14v-9.2c0-1.18-1.01-2.14-2.25-2.14z" fill="#e8ad00"/><path d="m114.25 54.28c-1.24 0-2.25.96-2.25 2.14v11.19c0 1.18 1.01 2.14 2.25 2.14s2.25-.96 2.25-2.14v-11.19c0-1.18-1.01-2.14-2.25-2.14z" fill="#ffca28"/><ellipse cx="114.25" cy="53.05" fill="#ffca28" rx="2.76" ry="2.63"/><path d="m114.25 53.02c-.55 0-1-.45-1-1v-38c0-.55.45-1 1-1 .55 0 1 .45 1 1v38c0 .56-.45 1-1 1z" fill="#504f4f"/><path d="m116 12.98c-30.83-7.75-52-8-52-8s-21.17.25-52 8v.77c0 1.33.87 2.5 2.14 2.87 3.72 1.1 13.13 3.53 18.18 4.54-.08.08-1.1 1.87-1.83 3.53 0 0 8.14 5.72 33.52 8.28 25.38-2.56 33.76-7.58 33.76-7.58-.88-1.81-1.79-3.49-1.79-3.49 4.5-.74 14.23-4.07 17.95-5.26 1.25-.4 2.09-1.55 2.09-2.86v-.8z" fill="url(#b)"/><path d="m64 4.98s-21.17.25-52 8c0 0 35.41 9.67 52 9.38 16.59.29 52-9.38 52-9.38-30.83-7.75-52-8-52-8z" fill="url(#c)"/><path d="m116 12.98c-30.83-7.75-52-8-52-8s-21.17.25-52 8v.77c0 1.33.87 2.5 2.14 2.87 3.72 1.1 13.13 3.69 18.18 4.71 0 0-.96 1.56-1.83 3.53 0 0 8.14 5.55 33.52 8.12 25.38-2.56 33.76-7.58 33.76-7.58-.88-1.81-1.79-3.49-1.79-3.49 4.5-.74 14.23-4.07 17.95-5.26 1.25-.4 2.09-1.55 2.09-2.86v-.81z" fill="url(#d)" opacity=".4"/><path d="m40.01 50.72c2.99-4.23 9.78-4.63 13.67-1.48.62.5 1.44 1.2 1.68 1.98.4 1.27-.82 2.26-2.01 1.96-.76-.19-1.47-.6-2.22-.83-1.37-.43-2.36-.55-3.59-.55-1.82-.01-2.99.22-4.72.92-.71.29-1.29.75-2.1.41-.93-.39-1.27-1.57-.71-2.41z" fill="#6d4c41"/><path d="m86.07 53.12c-.29-.13-.57-.29-.86-.41-1.78-.74-2.79-.93-4.72-.92-1.7.01-2.71.24-4.04.69-.81.28-1.84.98-2.74.71-1.32-.4-1.28-1.84-.56-2.76.86-1.08 2.04-1.9 3.29-2.44 2.9-1.26 6.44-1.08 9.17.55.89.53 1.86 1.26 2.4 2.18.78 1.31-.4 3.03-1.94 2.4z" fill="#6d4c41"/><path d="m114.5 120.99c0-14.61-21.75-21.54-40.72-23.1l-8.6 11.03c-.28.36-.72.58-1.18.58s-.9-.21-1.18-.58l-8.62-11.05c-10.55.81-40.71 4.75-40.71 23.12v3.01h101z" fill="#212121"/><path d="m114.5 120.99c0-14.61-21.75-21.54-40.72-23.1l-8.6 11.03c-.28.36-.72.58-1.18.58s-.9-.21-1.18-.58l-8.62-11.05c-10.55.81-40.71 4.75-40.71 23.12v3.01h101z" fill="url(#e)"/></svg>