<svg enable-background="new 0 0 128 128" viewBox="0 0 128 128" xmlns="http://www.w3.org/2000/svg"><path d="m90.36 38.06-5.85 2.51.86 2.01s1.46.02 1.94.08c.88.1 2.45.41 3.88.56s2.81-.2 3.14-1.14c.26-.73-.38-1.11-.38-1.11l-1.61-.47s1.43-.32 2.62-.42 2.12-.38 2.32-.89c.24-.59 0-.95 0-.95l-6.91-.19z" fill="#875334"/><path d="m69.94 6.53c5.06.09 7 4.7 9.31 6.18s5.87-2.45 6.14-1.2c.4 1.82-.16 9.7-8.4 9.1-5.65-.42-5.87-6.99-8.59-6.75s-4.16 2.26-4.16 2.26-1.09-4.04-.68-5.41c.61-2.07 2.6-4.24 6.38-4.18z" fill="#3c2c23"/><path d="m51.01 25.69-3.66-6.05s-1.13-.44-1.65-2.38c-1.52-5.69 2.45-8.91 3.03-9.57 1.73-1.99 4.39-3.16 7.78-3.23 4.83-.1 7.9 1.53 10.04 4.59 2.28 3.25 2.53 7.11 1.9 10.14-.42 2.01-.76 3.65-2.69 5.58-1.75 1.75-3.21 2.21-3.21 2.21s-11.54-1.29-11.54-1.29z" fill="#3c2c23"/><path d="m86.88 102.12-20.98 11.51s-2 1-2.33 1.19c-.71.41-1.59 1.2-.83 2.32s2.52.66 4.06 0c1.49-.64 13.71-5.56 23.02-11.49 7.47-4.75 14.26-10.1 16.12-12.23 1.16-1.32 1.05-2.76.34-3.41-1.23-1.13-2.89-.38-3.64-.08s-1.45.36-1.66-.28.89-1.7 3.53-4.19c2.64-2.48 11.9-11.79 13.1-13.15s1.95-3.86.77-5.21c-1.42-1.61-3.89-.87-6.3.38-1.75.91-3.56 1.9-3.61 1.61s2.17-1.63 4.32-3.76c3.08-3.06 6.23-6.57 7.08-7.79 1.44-2.08 1.59-3.85.2-5.12-1.07-.98-2.73-1.25-4.73-.24-2.54 1.29-6.69 3.51-6.86 3.41s4.87-7.44 6.15-10.87c.84-2.25 1.9-4.15.06-5.2-1.36-.77-3.4.39-7.86 3.71s-7.81 7.01-8.01 6.86 2.57-5.12.52-6.45c-1.15-.74-3.08-.18-5.69 2.05-3.59 3.06-7.69 5.71-7.69 5.71s-24.81 10.03-31.78 13.39-22.42 11.84-28.1 15.98c-3.69 2.69-6.07 5.77-4.7 7.14.55.55 5.69-3.61 17.36-9.54 7.25-3.68 20.06-9.4 20.06-9.4l15.35-6.31 17.72-5.41 6.95-4.29 7.21-4.09-4.09 11.86 9.37-2.56.56 3.04-10.5 11.38h7.77l-1.04 3.04-14.26 16.42-.72 5.29-6.27 4.75z" fill="#85e4ff"/><path d="m65.9 113.62s12.75-7.7 16.29-10 8.5-5.49 8.5-7.61-1.15-3.36-.71-4.51 7.7-8.05 10.18-10.27c2.48-2.21 7.06-5.57 6.63-6.67-.33-.83-3.93.48-5.39.74-2.48.44-3.44-1.55-2.03-2.97s9.45-9.35 10.25-10.14c1.18-1.15.62-2.64-1.06-1.94s-10.55 6.67-11.23 7.16c-1.34.96-2.49-.26-1.43-1.58s4.69-6.82 6.02-9.12 2.04-3.27 1.15-3.72-9.57 6.55-10.54 7.35-2.92 2.47-3.53 2.84c-1.46.88-2.42-.54-1.5-1.61s2.02-1.9 1.59-2.74c-.17-.33-.74-.4-2.13.05-5.06 1.62-16.68 6.69-19.91 7.98-4.36 1.74-10.88 4.36-10.88 4.36l-.53-2.3s16.73-7.88 20.71-9.29c3.98-1.42 11.6-4.25 11.6-4.25s4.87-4.51 6.55-3.72.71 3.01.71 3.01 12.66-10.18 14.43-8.59-6.46 14.25-6.46 14.25 10.09-6.37 11.77-3.1-11.83 14.36-11.73 14.7 8.92-2.51 9.87-.45c1.12 2.41-16.02 19.21-16.02 19.21s3.19.62 3.19 2.48-5.44 6.37-11.01 9.64-14.48 7.88-16.34 8.77-4.78 2.48-6.99 2.04z" fill="#0fcaff"/><path d="m63.46 97.68-54.57 25.24s2.94.72 7.92.62c6.4-.13 16.07-1.49 26.15-5.96 19.99-8.86 34.81-20.44 45.25-30.86 6.78-6.77 7.15-7.79 7.22-8.47.15-1.4-.3-2.8-.3-2.8s-31.67 22.23-31.67 22.23z" fill="#583ee2"/><path d="m84.46 64.9c-1.07-.12-33.44 5.81-60 25.73-23.54 17.66-20.44 29.08-19.97 30.15 1.19 2.73 15.11 6.37 43.68-8.57 29.56-15.46 47.07-35.45 46.95-36.76s-9.6-10.43-10.67-10.55z" fill="#7669f7"/><path d="m46.08 78.67s-3.49 3.73-5.62 6.98c-1.67 2.54-3.45 5.95-3.78 6.88-.49 1.38-.68 2.28-.68 5.33s-.06 5.23 1.93 5.71c.57.14 1.4.11 2.06.11 1.12 0 2.12-.1 2.12-.1l6.59-.1s1.65-1.75 3.25-4.8 1.89-3.59 3.3-5.53 8.15-8.48 8.15-8.48l5.29.42s2.13 1.81 3.97 2.53c1.84.73 2.72.73 3.83.29s2.62-2.81 2.13-3.64-5.82-6.16-5.82-6.16l-.15-10.67s-7.42 2.13-11.2 3.59c-3.78 1.45-13.48 5.62-13.48 5.62l-1.89 1.99z" fill="#4b0fce"/><g fill="#ffebc9"><path d="m4.1 118.31s32.69-19.5 48.7-28.63 36.09-21.15 36.09-21.15.47.44 1.03.96c.51.47 1.46 1.47 1.46 1.47s-26.5 16.81-37 22.69-48.13 28.53-48.13 28.53-1.45-.64-1.81-1.4-.35-2.47-.35-2.47.01 0 .01 0z"/><path d="m4.41 115.4s43.3-24.5 51.6-29.41c8.3-4.92 31.72-18.53 31.72-18.53s-.46-.43-.68-.62-.69-.59-.69-.59l-81.25 46.62s-.23.57-.36 1.02c-.18.63-.35 1.51-.34 1.51z"/><path d="m8.88 122.93 84.03-50.39s.44.49.62.68.64.75.64.75l-81.79 49.29s-1.6-.06-1.98-.1-1.53-.23-1.53-.23z"/></g><g fill="#a58dc6"><path d="m36.08 95.09 5.13-2.95.46 2.1-5.68 3.23s0-.75.03-1.23c0-.4.07-1.16.07-1.16z"/><path d="m39.58 102.28-2.01 1.19s-.57-.17-.99-.8c-.68-1.02-.58-3.23-.58-3.23l3.65-2.14z"/><path d="m48.73 101.36 2.61-1.58 1.84-3.42-4.61 2.76z"/><path d="m48.49 97.07 6.75-3.9s4.32-6.08 5.62-7.31 2.98-2.42 4.06-2.52 1.73.14 2 .38 1.78 1.4 1.78 1.4l2.98-1.79-2.33-3.29-21.17 12.3z"/><path d="m51.23 88.8 18.28-10.73-.83-1.7-18.18 10.43z"/><path d="m70.12 86.21 2.72-1.65 1.55 1.34-2.4 1.44s-.71-.35-1.02-.56-.85-.57-.85-.57z"/></g><path d="m61.99 57.46-7.66 8.05 3.07-.28s2.27-2.39 2.83-2.39 2.99 1 4.98 1.71c1.99.72 5.14 1.79 5.14 1.79s-1.12 3.59-1.4 5.42-.48 2.67-.52 3.15-.22.61-.33 1.16c-.08.42.24.67.24.67l1.36 1.16 4.03-5.3 1.04-8.49-12.8-6.66z" fill="#464c4f"/><path d="m44.6 84.64-1.95 6.67 5.38 1.24 1-.95s.86-.43 1.48-1.43 3.24-4.52 4.72-6.48 3.38-4.05 3.43-5.67-.33-5.81-.62-8.62-.95-5.1-.95-5.1 3.05-3.76 3.52-3.76 3.57 1.91 6.05 2.81 5.48 2.43 5.48 2.43-1.33 4.05-1.71 5.91-.67 3.67-.67 3.67-.44.46-.58 1.1c-.27 1.24 1.72 2.66 1.72 2.66l3.33.05.94-1.14s.39-.81.58-1.48 2.29-6 3.1-7.91 2.67-5.72 2.19-7.86-1.81-4.1-7.86-6.48-7.19-2.71-7.49-3.1.44-2.8.97-4.33 1.1-3.33 1.1-3.33l-.71-5-17.86.95-4.62 9.86.43 18 2.05 10.81-2.43 6.48z" fill="#5e6367"/><path d="m85.61 37.36s.4-.16 3.87-.22 4.95 0 5.85.22c1.16.29 2.06.73 2.03 1.12s-3.47.44-4.71.92c-.61.24-.45.85.04 1 .59.19 1.05.36 1.42.68.35.3-.12 1.17-1.76 1.1-1.22-.05-2.74-.54-3.99-.77s-2.8-.45-2.8-.45z" fill="#a56c43"/><path d="m68.07 35.59 1.17 4.2s5.52 3.4 6.96 3.56 7.62-.66 8.82-.68-.32-4.36-.32-4.36l-16.62-2.71z" fill="#2f2f2f"/><path d="m27.44 50.78.74 4.89 2.25-.22s2.27-3.92 2.96-5.14 2.39-3.72 2.92-4.2 3.13-1.91 4.89-2.66 3.29-1.38 3.4-.85c.16.78 2.81-.32 2.81-.32l.11-3.24-11.21 2.44-8.87 9.29z" fill="#2f2f2f"/><path d="m23.62 53.11s.96-4.36 3.51-9.51 4.25-6.21 5.05-6.85 4.25-3.35 9.4-5.68 8.23-2.55 8.23-2.55 11.79-1.06 13.17-.85 4.83.58 7.97 2.39c3.13 1.81 7.18 6.45 7.88 6.51 1.7.16 8.09.64 8.09.64s.55.84.47 2.45-1.32 2.97-1.32 2.97-.52.03-.99.03c-.13-.19-.34-.73-1.03-.83s-6.09.24-7.26.03c-.58-.1-6.11-3.24-6.64-3.35s-2.07 3.98-2.07 3.98l-4.67-1.7-5.52-.27-5.58 2.12-3.45 2.87-3.03 7.65-.32 7.59 1.06 6.11 2.6 9.03-.32 3.45-2.7 4.3-2.72 7.01-1.27.05-.28-1.96s-.04-.75.44-1.86c.48-1.12 1.38-4.51 2.23-6.37s1.81-2.34 1.7-3.56-2.87-10.41-3.35-13.17-.27-6.16.21-10.3 1.49-10.89 1.49-10.89 1.59-.53 1.86-1.17.05-1.38-.85-1.38-7.95 1.97-10.39 4.42c-1.1 1.1-1.85 3.02-2.85 4.6-1.24 1.95-2.47 3.89-3.46 5.39-1.68 2.57-5.29-1.34-5.29-1.34z" fill="#464c4f"/><path d="m44.01 90.56c-.06 0-.12 0-.18-.02-.37-.1-.6-.48-.5-.86.04-.13.89-3.34 2.43-6.74.56-1.25 1.28-2.5 1.92-3.61.65-1.13 1.26-2.2 1.44-2.81.22-.77-.46-2.6-1.25-4.71-1.58-4.24-3.97-10.64-2.77-17.85 1.96-11.74 9.18-14.21 14.89-14.21 6.05 0 8.32 2.77 8.42 2.89.24.3.19.74-.11.99-.3.24-.74.19-.98-.11-.02-.02-.51-.6-1.63-1.18-1.06-.54-2.9-1.19-5.69-1.19-9.37 0-12.52 7.09-13.51 13.04-1.14 6.84 1.08 12.78 2.7 17.12.95 2.54 1.63 4.37 1.28 5.59-.22.77-.85 1.86-1.57 3.12-.62 1.08-1.32 2.31-1.86 3.5-1.49 3.28-2.34 6.48-2.35 6.52-.08.31-.37.52-.68.52z" fill="#d9d9d9"/><path d="m115.76 48.98c.32.46 4.37-1.29 5.59-2.03 1.97-1.2 3.55-2.92 1.79-4.66s-3.94.73-4.94 2.15c-.83 1.18-2.73 4.12-2.44 4.54z" fill="#85e4ff"/><path d="m109.05 86.69c.31.8 4.66-.33 7.63-1.11s5.8-2.53 4.93-4.59c-1.12-2.66-4.35-1.49-7.03.35s-5.88 4.45-5.53 5.36z" fill="#85e4ff"/><g fill="#875334"><path d="m71.34 81.43-3.09-2.89s.02-.48.12-.95c.07-.34 0-.84 0-.84s2.61 1.82 4.51 1.78 2.29-.52 2.29-.52.08.35.23.64.53.72.53.72l-.34.98-4.24 1.08z"/><path d="m41.22 93.91-.21-3.3s.25-.64.41-.97.44-.96.44-.96 1.38 2.03 3.26 2.64 3.91.26 3.91.26l-.37 1.72-1.49 2.43-5.95-1.84z"/><path d="m53.92 29.55-.12 1.75s1.22 2.49 4.4 2.52c3.87.04 4.74-2.23 4.8-2.6s-.07-1.05-.09-2.47c-.03-1.67.66-3.61.66-4.22 0-1.12-9.64 5.01-9.64 5.01z"/><path d="m63.93 23.83s2.24.05 3.09-2.1c1.01-2.54-.35-4.11-1.78-4.22-.12 0-.76 1.68-1.05 3.58-.14.93-.26 2.74-.26 2.74z"/></g><path d="m41.02 90.62s-.24.54-.5 1.26c-.65 1.75-1.01 1.6-1.35 2.65-.2.62-.39 1.93-.5 3.29-.13 1.7.02 3.5.15 4.12.35 1.68 1.08 2.6 2.78 2.85s3.35.18 3.35.18 1.98.09 2.67-.14c.95-.32 1.37-1.33 1.37-2.02s-.33-3.98-.36-5.67c-.04-1.69.04-3.81.04-3.81s-1.62 1.01-3.93 0-3.71-2.7-3.71-2.7h-.01z" fill="#a56c43"/><path d="m49.97 14.57c4.07-1.16 6.04-3.64 6.04-3.64s.32 1.41 1.75 2.62c1.62 1.37 4.78 2.11 4.95 4.95.27 4.63 1.25 4.92 1.25 4.92s.1.44-.44 1.89c-.79 2.12-4.27 6.27-9.08 6.08-4.22-.17-5.93-5.16-6.35-7.17s-.7-3.51-.76-4.92c-.05-1.2.43-4.09 2.65-4.73z" fill="#a56c43"/><path d="m56.05 16.27c-.34-.29-.34-.99-.03-1.22s2.26-.14 2.82-.02c.89.2 1.47 1 1.31 1.27-.08.14-1.13-.02-2.07 0s-1.88.09-2.04-.04z" fill="#3c2c23"/><path d="m49.02 16.28c-.24-.36.34-.96 1.32-1.18.85-.19 1.7-.06 1.86.2.19.31.28.85-.16 1.05-.18.08-2.79.27-3.02-.07z" fill="#3c2c23"/><path d="m58.17 18.18c-.7-.03-1.48.42-1.43 1.7.04 1.17.66 1.74 1.51 1.7s1.32-.76 1.32-1.67-.58-1.7-1.4-1.73z" fill="#42312c"/><path d="m50.55 18.25c-.66 0-1.26.62-1.26 1.67s.63 1.59 1.37 1.63 1.37-.58 1.33-1.59-.55-1.7-1.44-1.71z" fill="#42312c"/><path d="m54.23 24.4c.7-.06 1.54-.47 1.52-.9s-.91-.44-1.6-.42-1.63.01-1.61.48 1.04.9 1.69.84z" fill="#875334"/><path d="m54.25 26.07c-1.04 0-2.29-.76-2.6-.15s.73 1.65 2.63 1.62c2.08-.03 3.18-1.04 2.9-1.68s-1.77.21-2.93.21z" fill="#473530"/><path d="m68.24 78.54c0 .21-.21 1.31.84 2.5.88 1 3.34 3.62 4.16 4.39s1.31 1.2 1.66 1.38c.95.49 1.64.39 1.92.22s.52-.64.52-.64l.1-.64.35-.22s1.12-.64.89-2.21-2.75-3.95-2.75-3.95-1.66.71-3.29.65c-1.91-.07-4.39-1.49-4.4-1.48z" fill="#a56c43"/><path d="m21.06 60.85-2.15 2.17s.19 1.7.32 2.12c.22.76 3.31 2.29 5.01-1.85.43-1.05 1.62-2.91 1.86-2.81s.06.8.44 1.56c.44.88 1.76.88 1.76.88l.78-4.77-3.75-.95-4.26 3.65z" fill="#875334"/><path d="m23.8 52.46s1.66-.21 2.84.1c2.45.66 3.79 2.57 3.79 2.87s.04 2.56-.38 3.84c-.52 1.55-1.28 3.57-1.72 3.64s-1.02-.85-.86-2.5c.09-.96.04-2.14-1.14-1.97-.37.05-1.66.66-2.61 2.55-.64 1.28-1.53 3.24-2.1 3.65s-2.05.13-2.56-.78.31-4.72.57-5.48c1.46-4.12 4.16-5.92 4.17-5.92z" fill="#a56c43"/><g fill="#875334"><path d="m22.59 58.68c-.47-.21-1.24 1.08-1.86 2.93-.51 1.52-.54 3.4-.51 3.57.02.15.22.24.36.08.13-.1.4-1.54 1.23-3.42.4-.91 1.47-2.86.79-3.15z"/><path d="m19.09 60.05c-.63 2.7.04 4.96.17 5-.13-.44.07-2.84.4-3.98.42-1.44 1.06-2.69.76-2.89s-.95.23-1.32 1.88z"/><path d="m48.96 102.3c0 .43-.38.93-1.05.98s-1.14-.33-1.22-1.17-.02-1.48-.62-1.46-.57.98-.6 1.65c-.01.3.02 1.15-.75 1.17-.54.02-.75-.73-.75-.73s-.12.75-.82.68c-.6-.06-.74-.75-.74-.75s-.39.57-.92.46c-.53-.12-.58-.72-.58-.72s-.35.35-1.01.14c-.59-.19-1.14-.82-1.14-.82s.27 2.03 1.51 2.72c1.22.68 5.13.58 5.32.57.57.05 1.87.08 2.69-.53 1.04-.76.67-2.63.67-2.2z"/><path d="m68.56 80.3s.59 1.26 3.41 3.91c1.01.95 1.22 1.47 1.86 2.03.88.76 2.32 1.21 2.92.88.75-.42.72-1.2.72-1.2s.58-.26 1.02-1.07c.52-.94.09-1.93.09-1.93s.02.79-.28 1.01c-.23.17-.48 0-.48 0s.25.43.03.6-.56-.16-.56-.16.22.47 0 .65c-.23.2-.89-.27-.89-.27s.93.93.1 1.29c-.58.25-1.65-.35-3.29-1.58-2.18-1.62-4.66-4.16-4.66-4.16z"/></g></svg>