<svg enable-background="new 0 0 128 128" viewBox="0 0 128 128" xmlns="http://www.w3.org/2000/svg"><path d="m54.8 14.4s3.2-3.8 5.1-6c4.7-5.5 13.8-2.8 11.7 5-1.6 5.5-6.3 14.7-7.4 16.6.4 1.7.9 3.6 1.1 4.4 4.5-1.4 12.7 1.9 10.8 11.6 5.8-6.7 17.4-.9 13.6 10.5 2-2.1 7.3-.8 9.3 1.8 1.8 2.2 2.7 3.7 2.8 6.9.1 3.1-.1 5.1-2.3 7.2-.1 4.7-1.2 9.6-1.9 10.4 2.8 7.6-.6 17.5-5.5 22.1-1.5 3.6-3.4 8.4-4.2 11-.7 2.6-6.4 5.1-9 5.5-5.6.9-19.9.4-27-4-3-1.8-5.5-3.2-5.3-6 .1-2.1.9-8.4 1-9.7s.1-4.2-1.9-6.4c-3.9-4.3-12.7-10.6-18.6-21.3-1.9-3.5-1.5-10.6.4-16.2s8.3-16.7 17-28.2c-2.8-5.1-5.7-11.1-6.8-15.3-1.8-6.9 4.3-9.9 8.7-7.9 3.9 1.7 8.4 8 8.4 8z" fill="#ffca28"/><path d="m66.22 5.51c-2.18-.08-4.56.83-6.32 2.89-1.9 2.2-5.1 6-5.1 6s-4.5-6.3-8.4-8c-4.4-2-10.5 1-8.7 7.9.35 1.35.94 2.92 1.6 4.56.93-.31 1.75-1.37 1.1-3.86-1.8-7 4.7-8 7.2-5.4 1.2 1.3 2.2 2.5 2.7 3.1.2.3.3.6.1 1-.4 1-1.9 3.4-7.1 9.3-2 2.2 2.5 6.2 5.7 2.4 3.6-4.1 10.6-13.4 12.3-15.4 3.9-4.9 9.1-2.1 8.2 3.4-.43 2.62-.06 3.93.44 4.6.68-1.65 1.26-3.24 1.66-4.6 1.31-4.87-1.75-7.76-5.38-7.89zm-23.15 26.04c-7.95 10.79-13.78 20.97-15.57 26.25-1.9 5.6-2.3 12.7-.4 16.2 5.9 10.7 14.7 17 18.6 21.3 2 2.2 2 5.1 1.9 6.4s-.9 7.6-1 9.7c-.12 1.71.77 2.9 2.16 3.98.12-1.24 1.05-11.52 1.14-13.88 3.77 3.87 13.6 14.31 29.98 19.68 2.84-.75 7.4-2.97 8.02-5.28.8-2.6 2.7-7.4 4.2-11 4.9-4.6 8.3-14.5 5.5-22.1.32-.36.71-1.63 1.06-3.27-1.12-.21-2.47.2-3.26 2.87-1.5 5.1-4.2 11.1-8.1 13.3-2.9 1.6-5.8.8-7.2.3-1.4-.6-3.7-2-6.6-1.7-3.8.4-8.1-.5-10.1-2.3s-4.9-3.7-9.5-3.9-7.7-1.1-9.7-3.9c-1.9-2.6-4.3-4.3-7.2-4.8-3.5-.5-6.3-1.9-7.7-5.4s-1.1-9.5.8-14.3c3.2-8.4 12.5-23.3 14-26.1.64-1.17-.02-1.75-1.03-2.05zm21.78 1.06c-3.64 1.4-4.1 4.92-2.35 4.69 4.1-.5 12.4.6 12.3 9.3 0 1.5 1.1 1.4 1.7 1 3.8-2.2 13.6-1.2 11.9 9.6-.2 1.5 1.1 1.5 1.5 1.1 1.8-1.6 6.8-1.4 8.2 2.4.5 1.2.4 3.2.5 4.6s.2 7 .2 7.6c0 .26.27.57.64.72.03-.41.05-.81.06-1.22 2.2-2.1 2.4-4.1 2.3-7.2-.1-3.2-1-4.7-2.8-6.9-2-2.6-7.3-3.9-9.3-1.8 3.8-11.4-7.8-17.2-13.6-10.5 1.9-9.7-6.3-13-10.8-11.6-.08-.32-.29-1.19-.45-1.79z" fill="#faa700"/><path d="m69.29 6.39c.62 1.8 1.1 4.67.01 7.11-2.2 4.9-15.1 29.1-21 39.7-.7 1.3-1.8 2-2.2 2.9-1.6 3 2.8 5.6 4.6 2.7 1.1-1.8 0-2.6 1-4.3 1.4-2.5 7.9-15 8.9-16.5 1-1.6 2.8-3 4.8-3.6.01-.01.01-.02.02-.03-.04.01-.08.02-.12.03-.2-.8-.7-2.7-1.1-4.4 1.1-1.9 5.8-11.1 7.4-16.6.91-3.38-.29-5.79-2.31-7.01zm-29.95.95c-1.6 1.42-2.47 3.76-1.64 6.96 1.1 4.2 4 10.2 6.8 15.3-2.19 2.9-4.23 5.77-6.1 8.53 1.04.33 3.03-.32 4.3-2.13 1.3-2 8.7-13 9.8-14.7 1-1.8-.7-2.1-1.5-1.5-.6.4-4.1 2.6-5.1 3.3-.4.3-1.1.3-1.6-.3-.6-.8-2.6-4.5-4.3-8.5-.99-2.15-.84-5.13-.66-6.96zm36.16 38.77c-.18.02-.35.12-.5.29-.7.9-10 16.4-10.5 17.3s-1.9 1.5-2.4 2.4c-1.4 2.6 2.8 4.6 4.2 2.4.7-1.2.3-2.3.8-3.3s9-16.9 9.2-17.9c.23-.75-.28-1.27-.8-1.19zm13.88 10.51c-.26-.01-.56.17-.78.58-1.9 3.8-8.1 15.9-8.1 15.9-.4.7-1.3.9-1.8 1.8-1.3 2.5 3.1 4.8 4.3 2.2.4-.9 0-1.7.3-2.5.4-.8 4.1-10.6 6.6-16.8.25-.69-.09-1.18-.52-1.18zm9.77 8.23c-.37 0-.75.25-.75.75 0 .7-1 11.4-2.3 14.7-.9 2.2-.4 4-.1 6.2 1.4 9.6-3.7 14.7-5.2 16.3-.21 2.07-.54 5-.79 7.29.69-1.76 1.43-3.6 2.09-5.19 4.9-4.6 8.3-14.5 5.5-22.1.7-.8 1.8-5.7 1.9-10.4l.11-.11c0-.19.29-5.9.29-6.69 0-.5-.37-.75-.75-.75zm-72.58 7.9c.15.45.33.87.53 1.25 5.9 10.7 14.7 17 18.6 21.3 2 2.2 2 5.1 1.9 6.4-.07.97-.53 4.69-.81 7.4h.01c3.2-.5 2.9-5.1 3.1-7.7.4-4.5-1.6-6.9-3.3-8.4-6.7-5.9-14.1-13.4-16.5-17.3-1.34-2.19-2.44-2.92-3.53-2.95z" fill="#b55e19"/></svg>