<svg enable-background="new 0 0 128 128" viewBox="0 0 128 128" xmlns="http://www.w3.org/2000/svg" xmlns:xlink="http://www.w3.org/1999/xlink"><radialGradient id="a" cx="50.2" cy="67.56" gradientTransform="matrix(1 0 0 -1.1901 0 140.84)" gradientUnits="userSpaceOnUse" r="47.53"><stop offset=".7936" stop-color="#444140" stop-opacity="0"/><stop offset="1" stop-color="#444140"/></radialGradient><linearGradient id="b"><stop offset=".0032" stop-color="#448aff"/><stop offset=".4042" stop-color="#3b7dff"/><stop offset="1" stop-color="#2962ff"/></linearGradient><linearGradient id="c" gradientTransform="matrix(1 0 0 -1 0 128)" gradientUnits="userSpaceOnUse" x1="4" x2="96" xlink:href="#b" y1="18.16" y2="18.16"/><linearGradient id="d" gradientTransform="matrix(1 0 0 -1 0 128)" gradientUnits="userSpaceOnUse" x1="104" x2="116.99" xlink:href="#b" y1="17.14" y2="17.14"/><linearGradient id="e"><stop offset="0" stop-color="#1565c0"/><stop offset=".6821" stop-color="#0d47a1"/><stop offset="1" stop-color="#0d47a1"/></linearGradient><linearGradient id="f" gradientTransform="matrix(1 0 0 -1 0 128)" gradientUnits="userSpaceOnUse" x1="36.94" x2="36.94" xlink:href="#e" y1="32.05" y2="2.81"/><linearGradient id="g" gradientTransform="matrix(-1 0 0 -1 100 128)" gradientUnits="userSpaceOnUse" x1="36.94" x2="36.94" xlink:href="#e" y1="32.05" y2="2.81"/><radialGradient id="h" cx="50.54" cy="63.54" gradientTransform="matrix(1 0 0 -1.2135 0 141.57)" gradientUnits="userSpaceOnUse" r="49.79"><stop offset=".7945" stop-color="#444140" stop-opacity="0"/><stop offset="1" stop-color="#444140"/></radialGradient><linearGradient id="i"><stop offset="0" stop-color="#bdbdbd"/><stop offset="1" stop-color="#757575"/></linearGradient><linearGradient id="j" gradientTransform="matrix(1 0 0 -1 0 128)" gradientUnits="userSpaceOnUse" x1="50" x2="50" xlink:href="#i" y1="123.63" y2="76.46"/><linearGradient id="k" gradientTransform="matrix(1 0 0 -1 0 128)" gradientUnits="userSpaceOnUse" x1="50" x2="50" xlink:href="#i" y1="94.72" y2="68.78"/><path d="m50.77 4.87c-41.01 0-40.68 37.92-40.68 38.52 0 24.56 1.88 59.25 11.71 72.9 3.9 5.41 11.43 5.71 11.43 5.71l16.97-.03 16.97.03s7.54-.3 11.43-5.71c9.83-13.65 11.71-48.34 11.71-72.9 0-.6 1.47-38.52-39.54-38.52z" fill="#232020"/><path d="m50.77 4.87c-41.01 0-40.68 37.92-40.68 38.52 0 24.56 1.88 59.25 11.71 72.9 3.9 5.41 11.43 5.71 11.43 5.71l16.97-.03 16.97.03s7.54-.3 11.43-5.71c9.83-13.65 11.71-48.34 11.71-72.9 0-.6 1.47-38.52-39.54-38.52z" fill="url(#a)"/><path d="m50.12 95.72c-.04 0-.08 0-.12 0-22.55.03-46 7.28-46 25.06v3.18h1.5 1.5 86 1.5 1.5v-3.18c0-16.76-23.23-25.06-45.88-25.06z" fill="url(#c)"/><path d="m50 92.37h-9.08v9.98c0 4.51 3.7 8.17 8.26 8.17h1.65c4.56 0 8.26-3.66 8.26-8.17v-9.98z" fill="#3c2b24"/><path d="m50.2 16.04c-17.2 0-33.13 12.79-33.13 39.91 0 21.78 13.49 34.67 25.23 38.83 2.8.99 5.5 1.49 7.9 1.49 2.38 0 5.07-.49 7.85-1.47 11.76-4.14 25.28-17.03 25.28-38.84 0-27.13-15.93-39.92-33.13-39.92z" fill="#70534a"/><path d="m54.01 68.06c-.1-.04-.21-.07-.32-.08h-6.99c-.11.01-.21.04-.32.08-.63.26-.98.91-.68 1.61s1.69 2.66 4.49 2.66 4.19-1.96 4.49-2.66c.32-.7-.03-1.36-.67-1.61z" fill="#33251f"/><g fill="#1a1717"><ellipse cx="34.96" cy="58.87" rx="4.87" ry="5.04"/><ellipse cx="65.45" cy="58.87" rx="4.87" ry="5.04"/><path d="m41.19 49.82c-.93-1.23-3.07-3.01-7.23-3.01s-6.31 1.79-7.23 3.01c-.41.54-.31 1.17-.02 1.55.26.35 1.04.68 1.9.39s2.54-1.16 5.35-1.18c2.81.02 4.49.89 5.35 1.18s1.64-.03 1.9-.39c.28-.38.39-1.01-.02-1.55z"/><path d="m73.68 49.82c-.93-1.23-3.07-3.01-7.23-3.01s-6.31 1.79-7.23 3.01c-.41.54-.31 1.17-.02 1.55.26.35 1.04.68 1.9.39s2.54-1.16 5.35-1.18c2.81.02 4.49.89 5.35 1.18s1.64-.03 1.9-.39c.29-.38.39-1.01-.02-1.55z"/><path d="m58.27 76.14c-3.15 1.87-13.47 1.87-16.61 0-1.81-1.07-3.65.57-2.9 2.21.74 1.61 6.37 5.36 11.23 5.36s10.42-3.75 11.16-5.36c.75-1.64-1.07-3.29-2.88-2.21z"/></g><path d="m116.88 122.48c0-6.76-3.88-20-11.75-24.71l-1.13 26.19h1.5 1.5 6.97 1.5 1.5z" fill="url(#d)"/><path d="m117.96 54.76-11.11-.32c-4.2-.09-7.67 3.39-7.75 7.79l-.64 36.36 3.8.09.64-36.36c.04-2.19 1.78-3.94 3.87-3.9l11.11.32z" fill="#9e9e9e"/><path d="m106.64 60.12-1.49-.02c-1.11-.02-2-.97-1.99-2.13l.02-2.21c.01-1.16.92-2.09 2.03-2.07l1.49.02c1.11.02 2 .97 1.99 2.13l-.02 2.21c-.01 1.15-.92 2.08-2.03 2.07z" fill="#504f4f"/><path d="m103.09 122.96.39-32.79c.01-1.05-1.33-1.92-3-1.95s-3.03.81-3.04 1.86l-.39 32.87h6.04z" fill="#616161"/><path d="m104.77 123.96.31-28.96c.02-1.88-1.33-3.42-3.01-3.45l-3.26-.04c-1.68-.02-3.07 1.48-3.08 3.36l-.31 29.08z" fill="#504f4f"/><path d="m112.5 61.47c-2.73 0-5.66-1.72-5.66-5.49 0-4.14 3.19-5.24 5.08-5.24 4.5 0 9.17 3.78 10.85 5.28-1.73 1.52-6.54 5.45-10.27 5.45z" fill="#40c4ff"/><path d="m111.92 51.57c3.69 0 7.59 2.79 9.57 4.44-2.28 1.91-6.15 4.62-8.99 4.62-1.79 0-4.82-.98-4.82-4.66 0-3.47 2.66-4.4 4.24-4.4m0-1.68c-2.56 0-5.92 1.67-5.92 6.08 0 4.42 3.5 6.33 6.5 6.33 5 0 11.5-6.29 11.5-6.29s-6.08-6.12-12.08-6.12z" fill="#2962ff"/><path d="m112.62 53.64c3.51 1.22 5.22 2.32 5.22 2.32s-1.12 1.22-4.74 2.01c-2.69.59-4.44-.41-4.42-2.13.04-1.71 2.13-2.83 3.94-2.2z" fill="#84ffff"/><path d="m113.87 110.02c-.14-1.42-.63-2.77-1.1-3.9-1.47-3.57-3.14-6.35-6.95-9.16-3.87-2.86-8.13-3.43-10.05-3.11-2.16.35-3.54 1.2-4.11 2.52-.43 1.01-.27 2.03-.01 2.79-1.1.38-2.58 1.13-3.05 2.48-.56 1.58-.11 2.86.54 3.74-.94.6-2.11 1.55-2.45 2.74-.45 1.59 1.01 3.35 1.99 4.32-.48.64-1.05 1.5-1.18 2.13-.68 3.36 3.68 5.24 6.36 5.82.43.09.86-.1 1.08-.48l.92-1.6c3.43 1.06 8.44 2.48 10.53 2.48.29 0 .52-.03.68-.08 1.93-.67 3.18-2.24 4.28-3.62.17-.21.34-.43.51-.64 1.51-1.82 2.23-4.16 2.01-6.43z" fill="#f44336"/><path d="m52.68 123.96 6.65-19.42h-19.89l7.88 19.42z" fill="#f5f5f5"/><path d="m35.71 108.42c.33 0 .65.16.85.45l10.18 15.09h.58l-6.4-28.01-7.47 1.15-6.89 14.85 8.77-3.46c.13-.05.25-.07.38-.07z" fill="url(#f)"/><path d="m64.29 108.42c-.33 0-.65.16-.85.45l-10.18 15.09h-.58l6.4-28.01 7.47 1.15 6.89 14.85-8.77-3.46c-.13-.05-.25-.07-.38-.07z" fill="url(#g)"/><path d="m50.77 4.87c-41.01 0-40.68 37.92-40.68 38.52 0 7.76.19 16.53.75 25.32l6.72-.02c-.06-2.92 1.99-21.97 8.08-23.34 22.36-5.01 35.02-15.87 35.02-15.87 3.29 7.18 13.58 14.19 17.27 16.86 3.03 2.19 3.96 18.55 3.9 22.38h7.71c0-.05.02-.1.02-.16.56-8.75.74-17.46.74-25.17.01-.6 1.48-38.52-39.53-38.52z" fill="#232020"/><path d="m50.77 4.87c-41.01 0-40.68 37.92-40.68 38.52 0 7.76.19 16.53.75 25.32l6.72-.02c-.06-2.92 1.99-21.97 8.08-23.34 22.36-5.01 35.02-15.87 35.02-15.87 3.29 7.18 13.58 14.19 17.27 16.86 3.03 2.19 3.96 18.55 3.9 22.38h7.71c0-.05.02-.1.02-.16.56-8.75.74-17.46.74-25.17.01-.6 1.48-38.52-39.53-38.52z" fill="url(#h)"/><path d="m78.7 21.66h-57.4v-15.34s7.49-2.28 28.78-2.28c13.15 0 28.62 2.44 28.62 2.44z" fill="#423f3e" opacity=".74"/><g fill="#807978"><path d="m12 44.04h-4c-2.21 0-4-1.79-4-4v-8c0-2.21 1.79-4 4-4h4c2.21 0 4 1.79 4 4v8c0 2.21-1.79 4-4 4z"/><path d="m92 44.04h-4c-2.21 0-4-1.79-4-4v-8c0-2.21 1.79-4 4-4h4c2.21 0 4 1.79 4 4v8c0 2.21-1.79 4-4 4z"/><path d="m49.6 32.82c-13.33 0-31.06 6.41-39.1 10.97v9.88c7.55-6.43 22.78-11.47 39.1-11.47 16.5 0 29.01 6.26 39.82 11.62.05-2.14.36-10.19-.69-12.75-8.05-4.66-25.64-8.25-39.13-8.25z"/></g><path d="m89.96 31.57c-.05-1.07-.28-2.13-.68-3.12l-7.81-19.35c-.58-1.18-1.64-2.18-3.03-3.04-.21-.13-.47.04-.47.29v9.07c0 .96-.78 1.75-1.73 1.75h-52.49c-.96 0-1.73-.78-1.73-1.75v-9.24c0-.18-.18-.29-.32-.2-1.46.88-2.57 1.91-3.17 3.13l-7.8 19.35c-.4 1-.63 2.05-.68 3.12l-4.05 24.6s.02.15.08.38c.15.62.57 1.86 1.67 2.48 0 0 11.21-19.36 40.58-21.58 1.11-.08 2.23-.08 3.34 0 29.37 2.22 40.58 21.58 40.58 21.58 1.1-.62 1.52-1.86 1.67-2.48.06-.23.08-.38.08-.38z" fill="url(#j)"/><g fill="#807978"><path d="m67.59 28.06c-.55 0-1-.34-1-.76v-4.7c0-.42.45-.76 1-.76s1 .34 1 .76v4.7c0 .41-.45.76-1 .76z"/><path d="m58.26 29.91c-.55 0-1-.34-1-.76v-8.4c0-.42.45-.76 1-.76s1 .34 1 .76v8.4c0 .41-.44.76-1 .76z"/><path d="m50 28.41c-.55 0-1-.34-1-.76v-5.4c0-.42.45-.76 1-.76s1 .34 1 .76v5.4c0 .42-.45.76-1 .76z"/><path d="m32.41 28.06c-.55 0-1-.34-1-.76v-4.7c0-.42.45-.76 1-.76s1 .34 1 .76v4.7c0 .41-.45.76-1 .76z"/><path d="m41.74 29.91c-.55 0-1-.34-1-.76v-8.4c0-.42.45-.76 1-.76s1 .34 1 .76v8.4c0 .41-.45.76-1 .76z"/></g><path d="m7.75 59.04s11.53-20.09 42.25-21.69c30.72 1.6 42.25 21.69 42.25 21.69 1.1-.62 1.52-1.86 1.67-2.48-2.9-5.7-12.64-17.79-36.45-22.74-3.44-.72-11.33-.72-14.77 0-23.81 4.95-33.73 17.04-36.62 22.74.15.62.57 1.86 1.67 2.48z" fill="url(#k)"/></svg>