<svg enable-background="new 0 0 128 128" viewBox="0 0 128 128" xmlns="http://www.w3.org/2000/svg"><path d="m116.46 3.96h-104c-4.42 0-8 3.58-8 8v104c0 4.42 3.58 8 8 8h104c4.42 0 8-3.58 8-8v-104c0-4.42-3.58-8-8-8z" fill="#f77e00"/><path d="m110.16 3.96h-98.2c-4.13.03-7.47 3.37-7.5 7.5v97.9c-.01 4.14 3.34 7.49 7.48 7.5h.02 98.1c4.14.01 7.49-3.34 7.5-7.48 0-.01 0-.01 0-.02v-97.9c.09-4.05-3.13-7.41-7.18-7.5-.07 0-.15 0-.22 0z" fill="#ff9800"/><path d="m108.46 63.96v-25.7c0-1.8-1.7-2.9-3-2l-35 24.4v-22.4c.13-1.13-.69-2.15-1.82-2.28-.45-.05-.9.05-1.28.28l-36.9 25.1v-23.5c0-1.05-.85-1.9-1.9-1.9h-10.2c-1.05 0-1.9.85-1.9 1.9v52.3c0 1.05.85 1.9 1.9 1.9h10.3c1.05 0 1.9-.85 1.9-1.9v-23.6l36.9 25c.98.58 2.24.26 2.82-.72.23-.39.33-.84.28-1.28v-22.3l35 24.4c1.4.9 3-.2 3-2z" fill="#fafafa"/><path d="m40.16 12.86c0-2.3-1.6-3-10.8-2.7-7.7.3-11.5 1.2-13.8 4s-2.9 6.5-3 13.3c0 4.8 0 7.3 2.5 7.3 3.4 0 3.4-5.9 6.2-10.3 5.4-8.7 18.9-8.6 18.9-11.6z" fill="#ffbd52" opacity=".75"/></svg>