<svg enable-background="new 0 0 128 128" viewBox="0 0 128 128" xmlns="http://www.w3.org/2000/svg"><path d="m77.62 92.17c-.29 0-.55-.22-.59-.51l-.75-5.57c-.04-.32.18-.62.51-.67.32-.05.62.18.67.51l.75 5.57c.04.32-.18.62-.51.67-.03 0-.05 0-.08 0z" fill="#b1b1b1"/><path d="m72.65 86.4 25.94-41.05c.17-.28.54-.36.82-.18.28.17.36.54.18.82l-21.15 33.47 37.15-34.24c.24-.22.61-.21.84.03.22.24.21.61-.03.84l-43.74 40.31z" fill="#b1b1b1"/><path d="m106.94 31.95 12.6 12.54s-3.4 3.45-15.96 2.52c-12.01-.89-15.26-8.44-15.26-8.44l5.16-8.17s13.46 1.55 13.46 1.55z" fill="#e59f1d"/><path d="m90.91 31.66-3.52 4.49s.21 1.48.93 2.42 5.46 2.18 10.53 1.45c5.46-.78 10.19-2.49 9.96-5.86-.11-1.63-17.89-2.5-17.89-2.5z" fill="#d2711f"/><path d="m99.67 24.3-21.41 4.37 1.45 3.68s5.41 4.2 11.52 4.83c6.01.62 14.89-1.28 17.69-4.37s-9.26-8.51-9.26-8.51z" fill="#02aea8"/><path d="m88.32 13.61s8.1-.96 12.96 1.31c2.82 1.32-10.89 11.82-10.89 11.82s-2.31 2.64-5.41 4.2-5.26 1.4-5.26 1.4-2.93-2.36-3.38-3.59 11.99-15.14 11.98-15.14z" fill="#039ba1"/><path d="m75.55 83.51s-.03 0-.05 0c-.29-.02-.52-.25-.54-.54l-2.49-27.58c-.03-.3.18-.57.47-.63l15.79-28.6c.14-.26.45-.37.73-.27.28.11.43.4.36.69l-6.58 28.37-7.12 28.11c-.07.26-.3.45-.57.45zm-1.86-27.7 2.13 23.61 6.27-24.74 5.61-24.22-13.93 25.24s-.05.08-.08.11z" fill="#b1b1b1"/><path d="m82.87 55.49c-.17 0-.34-.07-.46-.21-.21-.25-.17-.63.08-.83l23.44-19.4c.25-.21.62-.17.83.08s.17.63-.08.83l-23.44 19.4c-.11.09-.24.14-.38.14z" fill="#b1b1b1"/><path d="m72.08 9.29-7.16 19.87s7.41 3.08 13.68 2.04 11.21-5.13 11.63-9.88-18.15-12.03-18.15-12.03z" fill="#15cb9b"/><path d="m68.3 98.82s-6.85-9.1-6.22-10.17 7.05 9.16 7.05 9.16-.19-.91.06-2.09c.19-.91.67-1.86 2.08-2.07 2.28-.33 2.86 2.26 2.86 2.26s-.61-10.97.03-10.96.95 7.29.95 7.29.93-6.56 1.37-6.42c.88.29-1.11 11.78-1.11 11.78l1.13 5.61s.24 1.04.63 1.83c.44.9-1.37 3.91-1.37 3.91s-1.09.82-2.02.23-4.09-.44-4.09-.44-2.59.37-3.21-3.56c-.61-3.84 1.04-4.1 1.04-4.1l.81-2.27z" fill="#5e6367"/><path d="m77.58 86.5s.32-3.45-2.67-4.75c-1.36-.59-3.67-.37-6.55.19-6.02 1.17-6.49 2.14-7.38 4.1-.63 1.37.83 3.27 1.04 3.44z" fill="#467ce0"/><g fill="#b1b1b1"><path d="m62.05 88.97c-.09 0-.19-.02-.28-.07l-51.26-27.45.56-1.04 46.09 24.69-31.73-26.35.76-.91 36.24 30.1c.23.19.28.53.11.79-.11.17-.3.26-.49.26z"/><path d="m62.97 90.64-29.02-39.58.96-.7 25.06 34.19-6.63-22.91-15.89-19.38.91-.75 16.05 19.56z"/><path d="m53.2 61.47-.59-33.23 9.83 29.86-1.13.37-7.38-22.42.46 25.4z"/><path d="m63.37 95.51c-.27 0-.52-.19-.58-.47l-1.37-6.56v-.06l-.1-30.58v-.06l7.92-37.47 4.43 35.15c.04.32-.19.62-.51.66-.33.04-.62-.19-.66-.51l-3.55-28.17-6.44 30.52.1 30.39 1.35 6.44c.07.32-.14.63-.46.7-.04 0-.08.01-.13.02z"/></g><path d="m77.27 96.94-.54-2.44s0-.36-.11-1.15.06-1.41.73-1.51.9.59 1.07 1.22c.1.35.18 1.17.18 1.17s-1.33 2.71-1.33 2.71z" fill="#5e6367"/><path d="m65.19 99.15.58-1.75s-.36-1.15-.67-1.71c-.27-.49-.67-.99-1.14-.89s-.78.92-.68 2.03c.09.95.25 1.17.25 1.17l1.65 1.14z" fill="#5e6367"/><path d="m69.66 108.76s.26-1.65 1.78-1.78c1.1-.09 1.73.48 2.15 1.03.85 1.09 1.63 1.97 1.8 2.35.32.74.42 2.41.42 2.41l-2.18 1.29-1.09-.8s-.05-.72-.22-1.4c-.08-.33-.87-.96-1.52-1.69-.6-.68-1.16-1.39-1.16-1.39z" fill="#e04537"/><path d="m79.95 114.61-.03.09-.97 3.13s.13 1.12.35 1.61c.51 1.14 3.31 1.48 3.85 1.07s-1.12-2.35-1.12-2.35l-.21-1.18-1.88-2.38z" fill="#b0b0b0"/><path d="m74.81 117.51-1.64 1.78s-.03.59.27 1.21c.33.68 1.76 1.91 2.83 1.55.76-.26.09-3.46.09-3.46l-1.55-1.07z" fill="#b0b0b0"/><path d="m107.82 33.4s-2.56 2.06 2.92 7.5c7.05 6.99 9.68 3.59 11.6.29 2.73-4.68-.36-8.43-3.53-12.21-3.86-4.6-8.41-4.04-8.41-4.04l-2.59 8.47z" fill="#ffb803"/><path d="m95.98 14.82c-2.54.45-4.69 3.25-5.59 6.32s-.51 8.88 6.16 11.92c6.66 3.05 12.38 1.96 14.08-2.91s1.38-8.92-5.95-13.55c-4.01-2.54-6.1-2.24-8.7-1.78z" fill="#07d6b7"/><path d="m63.03 8.8s10.44-4.67 20.21-.07 7.91 9.91 6.98 12.6-3.8 5.72-11.49 3.65c-7.68-2.07-8.21-6.21-8.21-6.21z" fill="#8beaa9"/><path d="m52.59 11.54-18.64 5.78s-2.35 2.41-3.03 4.85c-.68 2.45 22.35 9.98 22.35 9.98s11.67-.91 15.21-5.63c4.81-6.42 2.99-11.89 2.99-11.89z" fill="#467ce0"/><path d="m33.95 17.32s4.8-1.66 10.24-.3 10.16 5.86 10.16 5.86l13.61-6.64s2.24-.76 2.81-1.1c.42-.25.69-.51.69-.51s-2.49-8.2-17.71-6.5-19.8 9.19-19.8 9.19z" fill="#349efe"/><path d="m18.09 30.2-3.94 4.2s-1.06 2.47-1.38 4.43 26.25 4.4 26.25 4.4 2.54.14 5.82-3.05c3.27-3.19 4.06-4.01 6.65-5.69s2.36-3.97 2.14-5.45-1.13-2.96-1.13-2.96l-17.26-1.46-17.15 5.59z" fill="#cc26a1"/><path d="m14.15 34.39s3.61-8.59 11.56-12.25 17.24-2.17 20.66-.85 6.13 4.77 6.13 4.77-8.86 8.53-12.72 9.09-8.78-2.17-15.9-2.56-9.73 1.8-9.73 1.8z" fill="#f84ab2"/><path d="m17.39 43.61-14.04 9.61s1.33 5.84 6.5 8.12 12.56 2.44 17.14-.74c4.59-3.18 7.35-7.11 9-9.66s2.79-5.14 2.37-6.69-4.03-5.78-6.84-6.39-14.13 5.77-14.13 5.77z" fill="#ff706a"/><path d="m13.07 37.37s-5.05 1.44-8.3 8.36c-3.24 6.92-.7 8.77-.7 8.77s2.72 1.72 10.32 1.95c7.6.22 10.81-1.61 15.05-7.61 4.63-6.55 4.01-10.11 4.01-10.11s-2.64-2.16-10.29-2.71c-6.53-.47-10.1 1.35-10.1 1.35z" fill="#ff8984"/><path d="m41.11 29.5c-1.75 1.61-6.82 1.77-6.32 6.87.45 4.57 5.12 5.54 7.69 3.42s1.91-3.88 3.5-5.03 2.81-.51 4.65-2 1.28-4.71.01-6.38-4.55-2.33-6.6-.8c-2.04 1.53-1.21 2.33-2.93 3.92z" fill="#a5146a"/><path d="m26.43 48.28c-.44 1.16-1.81 1.11-2.75 1.87-1.25 1.02-1.91 2.97-.31 6.28 1.35 2.78 3.53 2.49 5.09.48 1.18-1.52 1.82-4.45 2.58-5.4.83-1.03 2.86-1.95 4.13-3.47 1.42-1.72 1.91-4.09-.57-5.82s-4.97-1.11-6.33.71c-1.12 1.49-1.3 3.92-1.84 5.35z" fill="#e34b44"/><path d="m61.16 16.63c-1.84.26-3.89-.98-6.39.31s-2.06 4.32-1.36 7.36 2.17 4.38 4.63 3.76 2.55-3.25 4.64-3.61 2.6.83 4.68-.07 3.3-2.68 2.59-6.74-2.23-4.3-4.35-3.67-2.48 2.37-4.45 2.65z" fill="#164aca"/><path d="m82.56 14.49c-.8-.3-1.74-1.67-3.27-2.21-2.02-.72-4.69-.26-5.61 3.42-.87 3.48.48 5.39 2.11 5.86 1.41.4 3.48-.21 4.73.26 1.14.43 2.01 1.53 3.54 1.77 2.1.32 4.32-.87 5.19-3.96 1.11-3.9-1.18-5.42-3.56-5.65-1.16-.11-2.12.9-3.14.52z" fill="#0aac81"/><path d="m102.88 22.5c-.79-.7-1.38-2.16-2.64-2.97-2.1-1.35-5.09-1.54-6.9 1.86-1.7 3.18-.26 5.53 1.77 6.72 1.44.84 3.24.85 4.14 1.28 1.08.52 2.53 2.31 4.17 2.89s3.44-.06 4.9-2.24 1.26-4.78-.19-6-3.56-.03-5.24-1.53z" fill="#039ba1"/><path d="m117.38 33.89c-.68-.64-.89-2.28-1.77-3.43-1.14-1.48-3.05-2.22-4.92.24-1.63 2.14-.94 4.5.33 5.58 1.31 1.12 3.25.96 3.88 1.79 1.24 1.63 2.8 6.43 6.09 2.28 1.4-1.77.84-3.82.06-4.7-1.05-1.18-2.82-.95-3.67-1.76z" fill="#d2711f"/><path d="m72.55 113.25s.6.1 1.81-.07c.99-.14 1.46-.41 1.46-.41l.56 6.02s-.35.44-1.31.6c-1.29.21-1.89-.09-1.89-.09z" fill="#5e6367"/><g fill="#e04537"><path d="m75.77 108.96c.04.28 1.18 1.04 1.43 1.45s.75 1.63.75 1.63l2.81.15.32-.72s-.27-1.39-.73-2.4c-.46-1.02-3.19-4.06-3.19-4.06s-.82 1.18-1.07 2.06c-.28.96-.3 1.89-.3 1.89z"/><path d="m76.72 94.49s.47.14.94.09c.61-.07.94-.36.94-.36s.63 2.36-.09 3.83-2.4 2.35-2.4 2.35l.4 2.81s-1.11-.86-1.44-3.62 1.11-2.06 1.41-2.83.24-2.28.24-2.28z"/><path d="m65.77 97.4s-.52.25-1.02.43c-.65.23-1.22.17-1.22.17s.53 1.97 1.95 3.13c.83.68 1.4.66 2.02 1.21s.99 2.69 1.28 2.91c.52.39 1.59.19 1.69-.43s-.21-2.77-.58-3.8-1.59-2.19-1.59-2.19-1.4.25-1.81-.17-.72-1.25-.72-1.26z"/><path d="m71.95 100.94c.02.35.47 3.31.71 3.37s1.46-.27 1.46-.49-.45-3.05-.59-3.32-1.61.05-1.58.44z"/></g><path d="m77.95 112.04s1.17-.13 1.92-.25 1.21-.32 1.21-.32l.83 5.65s-.57.53-1.06.68-1.9.03-1.9.03z" fill="#5e6367"/></svg>