<svg enable-background="new 0 0 128 128" viewBox="0 0 128 128" xmlns="http://www.w3.org/2000/svg"><path d="m77.6 80.5c7 1.4 13.8.7 17.2.2 3.8-.5 9.1-1.3 13.2-3.2 4.7-2.1 5.9-5.7 6-10 .1-4-1.1-6.4-2.5-7.7 4.2-2.3 5.2-5 5-9.5-.2-4-2-7.1-5.6-8.9 2.9-3.1 3.5-5.5 3-10.2-.4-4.4-2.1-7-9-9 1.3-1.4 1.7-3.8 1.6-6-.2-2.6-1-5.1-4.6-6.9-1-.5-6.9-3.4-19.2.5-10.4-1.8-24.9-.9-36.4 4.6-10.9.1-23.8 1-24.8 1-1.1 0-3.2.5-4.2 3.3s-4.2 23.7-1.3 36.5c.4 1.8 1.9 2.8 3.2 2.9s8.6.9 10.3 1.1c9 1.1 6.8 8.9 17.2 21.3 4.9 5.9 14.9 10 15.5 23.1.2 4.4.5 11.6.5 12.6 0 6.3 12.2 7.5 16.6-1.2 8-15.3 1.5-23-1.7-34.5z" fill="#ffca28"/><path d="m93.92 7.8c-2.9.03-6.61.54-11.22 2-.37-.06-.75-.11-1.13-.17-1.64 3.36-4.28 8.8-4.87 10.27-.9 2.1-3.1 6-7.3 12.2s-1.2 11.6 1.6 13.7c1.7 1.2 3.1 5.1 3.3 7.6s1 20.7 1.2 26.1c.12 3.14 1.83 4.87 3.65 5.79-.55-1.55-1.09-3.12-1.55-4.79 7 1.4 13.8.7 17.2.2 3.8-.5 9.1-1.3 13.2-3.2 4.7-2.1 5.9-5.7 6-10 .1-4-1.1-6.4-2.5-7.7 4.2-2.3 5.2-5 5-9.5-.2-4-2-7.1-5.6-8.9 2.9-3.1 3.5-5.5 3-10.2-.4-4.4-2.1-7-9-9 1.3-1.4 1.7-3.8 1.6-6-.2-2.6-1-5.1-4.6-6.9-.62-.31-3.16-1.56-7.98-1.5zm.71 2.4c1.3-.03 2.62.05 3.57.2 4.6.8 8.4 6 4.4 11.4h-6.4c-.6 0-.6.8.2.8 10.9.6 14.1 4.5 14.7 8.9.4 3.2-.5 6.6-3.2 8.9-.4.4-1 .2-1.7.2 12 6.5 7.5 16.7 1.8 17.6-1.1.2-2.2.3-1.1.7 5.9 2 7.4 18.5-6 18 0 0-6.4-2.9-9.1-3.1-3.7-.5-5.5-4.6-5.4-8.8.2-7.2 2.9-7.1 5.9-7.7.8-.2 1.3-1.6 0-1.7-5.2-.5-6.2-5-6.2-8.5 0-6.6 4.8-7.1 5.6-7.2 1.3-.2 1.7-1.7 0-1.8-3.3-.1-5.3-3.5-5.3-7.4 0-3 .9-6.1 6.1-7.6.6-.2 1.5-1.5-.2-1.8-4.5-.7-4.7-3-4.7-5.8 0-3.4 1.6-4.4 3.6-4.9.85-.25 2.13-.38 3.43-.4zm-50.53 4.25c-10.37.19-21.67.95-22.6.95-1.07 0-3.07.49-4.1 3.07l26.7-.97zm-25.3 38.95c-1.95 0-2.48 1.07-2.67 2.22.53 1.53 1.88 2.39 3.07 2.48 1.3.1 8.6.9 10.3 1.1 8.99 1.1 6.8 8.89 17.18 21.27-2.01-4.9-3.68-9.67-3.68-9.67s-3.3-7.6-4.7-10.5c-1.6-3.5-5.9-5.7-8.6-6-1.4-.2-8.1-.9-10.9-.9zm39.87 39.22c1.92 2.86 3.32 6.35 3.53 10.98.2 4.4.5 11.6.5 12.6 0 5.96 10.92 7.34 15.82.1l-1.32-1.1c-3.4 3.7-12 6.6-12.3-1.1 0-1-.4-6.4-.4-10 0-6.88-2.74-9.98-5.83-11.48z" fill="#faa700"/><path d="m93.92 7.8c-2.9.03-6.61.54-11.22 2-10.4-1.8-24.9-.9-36.4 4.6-10.61.1-22.77.93-24.34.98.28 1.14 2.21 1.32 3.14 1.32 1 0 15.4.7 15.9.6s1.1-.1 1.9.7 2.5 1 3.5.3c10.7-7 29.2-6.7 32.7-5.6-4.9 4.3-2.5 10.9.9 12.2-8.9 7.4-3.4 15.6-1.4 16.5-1.9.8-4.2 4.8-4.5 7-3.9-7.4-11.2-8.8-11.9-9-.8-.2-.9.9-.4 1.2 3.6 2.1 10 6 11.6 16.9.2 1.7.3 17.8.2 20.3-.2 9.1 15.6 26.6.5 40.6-.88.83-1.33 1.59-1.49 2.3 2.61-.82 5.14-2.63 6.69-5.7 7.92-15.15 1.63-22.85-1.6-34.17-.12-.16-.28-.36-.3-.43-.5-1.4-.9-4.1-.8-6.6 1.6 1.7 4.6 2.2 9.4 1.9.4 0 1.1.1 1.5.7.8 1.1 2.4 2.2 3.3 2.4 1.5.4 1.4-.6 1.1-.8-.2-.2-1-.8-1.3-1.2-.3-.3 0-.6.5-.5 4.1 1 9.5.9 10.9.8 1.5-.1 1.3-1.5.1-1.6-3.8-.3-9.8-1.9-11.6-2.4-1.1-.3-2.8-.3-3.7-.1s-4.1.9-6.1.5c-3.5-.7-4.6-2.7-4.8-4.7-.4-3.5.5-5.4 1.5-6.4s2.4-2 3.6-2.8c2.2-1.5 3.8-1.7 5.4-1.9 6.3-.8 20.3 1.1 23.8 2.2 1 .3 1.3-.5.7-1.1-2.5-2.6-16.5-5.3-29.7-2.6-.4.1-2.2.4-3.2-.7-3.3-3.5-2.4-8 2.6-12.1 7.2-5.9 27.9-2.2 29.4-1.8.7.2.9-.5.4-.8-4.6-2.9-20.7-4.8-28.7-1.4-.4.2-1.2.3-1.9-.1-2-1.2-4.6-6.7 1.3-11.8 4.1-3.5 12.8-5.2 23-4.7.7 0 1-.5.2-.9-6.2-2.9-19 .2-20.2.6-1.1.4-1.9.2-2.6 0-1.1-.3-5-3.5-.5-8.4 3.33-3.59 10.3-5.56 13.26-6.29-.12 0-.22-.01-.34-.01zm-60.1 51.27c-.66.03-1.28.27-1.77.74 6.1 2.26 5.38 9.64 14.65 20.69 4.9 5.9 14.9 10 15.5 23.1.08 1.73.11 2.91.2 4.97 1.98-2.08 1.2-7.34 1.2-9.47 0-7.4-7.7-12.9-14.6-20-4.2-4.3-7.5-13.7-11.9-18.6-.9-.95-2.15-1.48-3.28-1.43z" fill="#b55e19"/></svg>