<svg enable-background="new 0 0 128 128" viewBox="0 0 128 128" xmlns="http://www.w3.org/2000/svg"><path d="m114.31 117.18-33.17-48.28 33-49.02c.48-.73.54-1.66.12-2.43-.41-.77-1.21-1.25-2.08-1.25h-27.85c-.78 0-1.51.38-1.95 1.03l-18.38 26.74-18.38-26.75c-.44-.64-1.17-1.03-1.95-1.03h-27.84c-.87 0-1.68.48-2.08 1.25-.42.77-.36 1.71.12 2.43l32.99 49.03-33.17 48.28c-.49.72-.55 1.66-.14 2.44.41.77 1.22 1.26 2.09 1.26h29.26c.79 0 1.52-.39 1.96-1.04l17.14-25.48 17.15 25.48c.44.65 1.17 1.04 1.96 1.04h29.25c.88 0 1.68-.49 2.1-1.26.4-.78.35-1.72-.15-2.44z" fill="#40c0e7"/></svg>