<svg enable-background="new 0 0 128 128" viewBox="0 0 128 128" xmlns="http://www.w3.org/2000/svg"><path d="m116.46 3.96h-104c-4.42 0-8 3.58-8 8v104c0 4.42 3.58 8 8 8h104c4.42 0 8-3.58 8-8v-104c0-4.42-3.58-8-8-8z" fill="#427687"/><path d="m110.16 3.96h-98.2c-4.13.03-7.47 3.37-7.5 7.5v97.9c-.01 4.14 3.34 7.49 7.48 7.5h.02 98.1c4.14.01 7.49-3.34 7.5-7.48 0-.01 0-.01 0-.02v-97.9c.09-4.05-3.13-7.41-7.18-7.5-.07 0-.15 0-.22 0z" fill="#8cafbf"/><path d="m35.16 43.96c1.74-.02 3.26-1.15 3.8-2.8 1.7-5.2 8.1-9.2 15.5-9.2 8.7 0 16 5.5 16 12v34c0 1.1-.9 2-2 2h-14c-2.21.02-3.98 1.83-3.96 4.04.01.94.35 1.85.96 2.56l24 24c1.46 1.66 3.99 1.82 5.65.35.13-.11.24-.23.35-.35l24-24c1.44-1.68 1.24-4.2-.44-5.64-.71-.61-1.62-.95-2.56-.96h-14c-1.1 0-2-.9-2-2v-34c0-15.5-14.3-28-32-28-15.8 0-29 10.1-31.5 23.3-.39 2.18 1.06 4.25 3.24 4.64.22.04.44.06.66.06z" fill="#fafafa"/><path d="m40.16 12.86c0-2.3-1.6-3-10.8-2.7-7.7.3-11.5 1.2-13.8 4s-2.9 8.5-3 15.3c0 4.8 0 9.3 2.5 9.3 3.4 0 3.4-7.9 6.2-12.3 5.4-8.7 18.9-10.6 18.9-13.6z" fill="#b4e1ed" opacity=".5"/></svg>