<svg enable-background="new 0 0 128 128" viewBox="0 0 128 128" xmlns="http://www.w3.org/2000/svg" xmlns:xlink="http://www.w3.org/1999/xlink"><radialGradient id="a" cx="64.03" cy="68.57" gradientTransform="matrix(1 0 0 -1.1901 0 141.03)" gradientUnits="userSpaceOnUse" r="47.53"><stop offset=".7936" stop-color="#444140" stop-opacity="0"/><stop offset="1" stop-color="#444140"/></radialGradient><linearGradient id="b"><stop offset="0" stop-color="#651fff"/><stop offset=".7047" stop-color="#5914f2"/><stop offset="1" stop-color="#530eeb"/></linearGradient><linearGradient id="c" gradientTransform="matrix(1 0 0 -1 0 128)" gradientUnits="userSpaceOnUse" x1="60.2" x2="60.2" xlink:href="#b" y1="43.84" y2="10.91"/><radialGradient id="d" cx="64.36" cy="64.54" gradientTransform="matrix(1 0 0 -1.2135 0 141.78)" gradientUnits="userSpaceOnUse" r="49.79"><stop offset=".7945" stop-color="#444140" stop-opacity="0"/><stop offset="1" stop-color="#444140"/></radialGradient><linearGradient id="e" gradientTransform="matrix(1 0 0 -1 0 128)" gradientUnits="userSpaceOnUse" x1="32.55" x2="24.58" y1="118.05" y2="83.75"><stop offset=".5" stop-color="#70534a"/><stop offset="1" stop-color="#5c4037"/></linearGradient><linearGradient id="f" gradientTransform="matrix(1 0 0 -1 0 128)" gradientUnits="userSpaceOnUse" x1="17.57" x2="17.57" xlink:href="#b" y1="45.05" y2="-27.95"/><path d="m64.6 3.87c-41.01 0-40.68 37.92-40.68 38.52 0 24.56 1.88 59.25 11.71 72.9 3.9 5.41 11.43 5.71 11.43 5.71l16.97-.03 16.97.03s7.54-.3 11.43-5.71c9.83-13.65 11.71-48.34 11.71-72.9 0-.6 1.47-38.52-39.54-38.52z" fill="#232020"/><path d="m64.6 3.87c-41.01 0-40.68 37.92-40.68 38.52 0 24.56 1.88 59.25 11.71 72.9 3.9 5.41 11.43 5.71 11.43 5.71l16.97-.03 16.97.03s7.54-.3 11.43-5.71c9.83-13.65 11.71-48.34 11.71-72.9 0-.6 1.47-38.52-39.54-38.52z" fill="url(#a)"/><path d="m115.17 124c-.26-7.29-6.17-16.97-13.82-20.99-10.06-5.29-22.94-7.01-37.36-7.01-8.9 0-15.98 2.62-24.35-.01-4.44-1.4-7.51-3.69-8.97-8.18l-1.32-4.05-24.13 6s5.02 21.89 7.57 34.24z" fill="url(#c)"/><path d="m73.12 90.07h-18.16v9.98c0 4.51 3.7 8.17 8.26 8.17h1.65c4.56 0 8.26-3.66 8.26-8.17v-9.98z" fill="#3c2b24"/><path d="m64.04 16.03c-17.2 0-33.13 12.79-33.13 39.91 0 21.79 13.49 34.67 25.23 38.83 2.8.99 5.5 1.49 7.9 1.49 2.38 0 5.07-.49 7.85-1.47 11.76-4.14 25.28-17.03 25.28-38.84 0-27.13-15.93-39.92-33.13-39.92z" fill="#70534a"/><path d="m67.85 68.04c-.1-.04-.21-.07-.32-.08h-6.99c-.11.01-.21.04-.32.08-.63.26-.98.91-.68 1.61s1.69 2.66 4.49 2.66 4.19-1.96 4.49-2.66c.31-.69-.03-1.35-.67-1.61z" fill="#33251f"/><path d="m64.6 3.87c-41.01 0-40.68 37.92-40.68 38.52 0 7.76.19 16.53.75 25.32l6.72-.02c-.06-2.92 1.99-20.97 8.08-22.34 22.36-5.03 35.01-16.89 35.01-16.89 3.29 7.18 13.58 14.19 17.27 16.86 3.03 2.19 4.03 18.55 3.97 22.38h7.63c0-.05.02-.1.02-.16.56-8.75.74-17.46.74-25.17.03-.58 1.5-38.5-39.51-38.5z" fill="#232020"/><path d="m64.6 3.87c-41.01 0-40.68 37.92-40.68 38.52 0 7.76.19 16.53.75 25.32l6.72-.02c-.06-2.92 1.99-20.97 8.08-22.34 22.36-5.03 35.01-16.89 35.01-16.89 3.29 7.18 13.58 14.19 17.27 16.86 3.03 2.19 4.03 18.55 3.97 22.38h7.63c0-.05.02-.1.02-.16.56-8.75.74-17.46.74-25.17.03-.58 1.5-38.5-39.51-38.5z" fill="url(#d)"/><g fill="#1a1717"><path d="m72.36 76.13c-3.15 1.87-13.46 1.87-16.61 0-1.81-1.07-3.65.57-2.9 2.21.74 1.61 6.37 5.36 11.23 5.36s10.42-3.75 11.16-5.36c.75-1.64-1.08-3.29-2.88-2.21z"/><path d="m55.02 49.81c-.93-1.23-3.07-3.01-7.23-3.01s-6.31 1.79-7.23 3.01c-.41.54-.31 1.17-.02 1.55.26.35 1.04.68 1.9.39s2.54-1.16 5.35-1.18c2.81.02 4.49.89 5.35 1.18s1.64-.03 1.9-.39c.29-.38.39-1.01-.02-1.55z"/><path d="m87.52 49.81c-.93-1.23-3.07-3.01-7.23-3.01s-6.31 1.79-7.23 3.01c-.41.54-.31 1.17-.02 1.55.26.35 1.04.68 1.9.39s2.54-1.16 5.35-1.18c2.81.02 4.49.89 5.35 1.18s1.64-.03 1.9-.39c.29-.38.39-1.01-.02-1.55z"/><ellipse cx="47.79" cy="58.86" rx="4.87" ry="5.04"/><ellipse cx="80.29" cy="58.86" rx="4.87" ry="5.04"/></g><path d="m44.33 31.43c-2.3.03-6.66 3.52-8.4 5.76-2.84 3.64-4.85 11.23-14.21 8.31-1.67-.51-8.34-1.63-9.49-2.3-.78-.45-2.85-4.14-1.54-11.69.49-2.87 1.66-9.81 1.66-9.81l1.65-10.87c.21-1.83 1.48-3.01 3.21-2.58 1.39.35 1.78 1.6 1.68 3.23l-.39 6.54v.04c0 .29.21.55.51.61.33.06.65-.15.72-.48.48-2.19 2.14-9.8 2.51-11.15.44-1.58 1.27-2.84 3.04-2.45 1.77.38 2.05 2.22 1.75 3.67-.29 1.44-2.18 11.47-2.18 11.47-.07.35.12.68.45.76h.01c.31.07.63-.14.72-.47l4.12-13.55c.49-1.78 2.01-2.87 3.64-2.14 1.3.59 1.59 2.09 1.18 3.58l-3.49 13.83c-.04.16.04.33.19.38h.01c.14.04.3-.04.35-.19l4.7-11.35c.56-1.43 1.8-2.43 3.18-2.07 1.76.44 2.28 2.23 1.62 3.94 0 0-4.49 12.27-5.91 16.05-.02.07-.05.14-.07.2-.01.02-.02.03-.02.04-.12.33.04.65.31.78.08.04.17.06.26.06.1 0 .2-.03.3-.07.09-.05.18-.09.26-.15l.09-.06c1.42-.88 2.77-2.81 4.97-3.1 2.4-.32 3.95.58 4.46 1.62.44.87.45 3.57-1.85 3.61z" fill="url(#e)"/><path d="m29.12 83.06c-.48-1.94-.66-3.94-.54-5.93l.63-29.18c.05-.8-.37-1.52-1.03-1.88-.24-.15-.51-.26-.8-.3l-15.97-3.7c-1.03-.13-1.99.55-2.21 1.56 0 0-4.13 30.92-4.43 33.39s-1.08 5.44-.27 9.18l.72 3.55 25.79-.69z" fill="url(#f)"/><path d="m35.83 29.52c-3.12.14-6.24.51-8.95 1.9-1.36.71-2.56 1.69-3.58 2.86-.82.93-1.48 1.98-2.08 3.11-.02.05-.07.08-.11.08-.07 0-.11-.05-.12-.11v-.01c0-.03.9-2.51 1.64-3.59.93-1.38 2.23-2.53 3.71-3.35 1.47-.82 3.08-1.35 4.71-1.62 1.52-.27 3.05-.35 4.56-.29-.02.07-.05.14-.07.2-.01.02-.02.03-.02.04-.12.33.04.65.31.78z" fill="#4a2f27"/></svg>