<svg enable-background="new 0 0 128 128" viewBox="0 0 128 128" xmlns="http://www.w3.org/2000/svg"><path d="m119.32 9.32c-9.89-11.8-43.55 3.57-50.87 7.13s-23.09 11.64-28.34 15.96c-4 3.29-6.01 7.51-8.63 9.01s-7.13 3.19-9.95 5.63-2.44 6.38-4.88 8.82-13.92 7.51-12.76 21.4c.94 11.26 9.2 12.01 12.01 17.08s3.94 16.33 12.76 22.15c8.36 5.51 15.58 2.63 23.46 3s6.95 4.88 13.33 4.32c7.72-.68 15.2-9.39 16.89-9.95s7.15 1.35 10.7-.75c9.2-5.44 9.01-12.58 11.26-18.58 2.25-6.01 9.76-7.32 11.07-14.27s-.94-17.46.38-24.59 14.27-33.59 3.57-46.36z" fill="#87716b"/><path d="m27.16 51.75s-6.76 4.32-9.95 7.7-10.51 8.26-9.2 16.89 10.14 10.7 13.14 16.89 4.5 19.33 14.64 22.15 8.17-7.7 15.39-7.51c9.01.23 6.19 12.2 14.64 11.83s8.26-10.32 14.27-10.89c6.01-.56 8.15 3.23 12.95-.19 7.13-5.07 4.62-13.58 6.71-17.32 2.86-5.11-4.08-30.74-4.08-30.74l-43.5-17.41z" fill="#9ea5a6"/><path d="m64.51 37.29s-32.85 4.13-39.61 12.95-14.27 18.52-12.95 26.47c1.69 10.14 8.63 9.2 12.95 15.2s6.95 17.64 13.51 18.96c6.57 1.31 6.57-7.51 13.89-7.51s7.88 12.01 13.51 11.83 6.57-6.38 11.45-9.01 9.76 3.57 15.2-1.13c5.44-4.69 3.78-10.66 6.43-14.73 3.66-5.63-.42-40.12-.42-40.12l-20.45-17.04z" fill="#ccc"/><g fill="#f3f1f6"><path d="m49.49 48.93s-5.44.75-9.01 1.31-8.82 1.69-12.76 5.44-9.57 12.58-9.39 13.7 17.46 3.57 17.46 3.57z"/><path d="m16.69 79.06s9.71 0 10.56.7c.84.7 3.24 5.75 6.76 9.57 4.79 5.21 11.4 6.76 11.54 7.74.14.99-3.8 10.28-6.34 9.71s-3.94-6.76-10-14.08c-6.04-7.31-10.55-8.01-12.52-13.64z"/><path d="m57.8 97.92c-.49.28.63 4.08 1.97 8.31.57 1.8 3.8 6.83 7.04 5.49 2.53-1.05 2.46-5.07 1.97-8.59-.6-4.27-1.76-8.02-2.25-7.81-.8.34-2.18.77-4.43 1.48-2.07.64-3.62.73-4.3 1.12z"/><path d="m72.72 91.02c-.43.34 4.51 6.2 5.42 7.39 1.34 1.76 2.96 3.59 6.48 3.73s6.12-.99 6.12-2.25c0-1.27-3.56-4.92-6.34-9.15-.82-1.25-4.22-5.98-4.5-5.98s-1.8 1.92-3.03 2.96c-2.32 1.97-3.51 2.81-4.15 3.3z"/><path d="m86.38 78.63c-.58.84 12.11 8.59 13.37 8.45.62-.07.66-6.62.56-13.09-.07-4.72-.55-13.39-.7-12.46-.14.84-2.96 5.56-5.84 9.15-3.02 3.75-6.76 7.04-7.39 7.95z"/></g><path d="m108.9 29.64s-.99 14.5-8.45 24.78-27.17 36.46-50.12 36.6c-19.43.12-24.78-13.66-19.15-24.64s19.57-16.33 19.57-16.33l53.26-20.74z" fill="#f2a764"/><path d="m92.85 19.65s-23.37 6.19-40.69 21.82-25.75 26.18-16.89 34.91 27.02 5.22 40.12-5.07c17.03-13.37 24.25-26.69 27.17-32.94 2.96-6.34 3.14-8.96 3.14-8.96s-5.49.23-9.48-3.89c-2.86-2.98-3.37-5.87-3.37-5.87z" fill="#ffd2b1"/><ellipse cx="72.76" cy="38.25" fill="#e1e2e1" rx="15.42" ry="15.25"/><path d="m72.65 50.41c6.9.14 12.74-5.35 12.18-12.6s-12.74.99-14.5 1.55-10.14-3.38-9.5 1.06c.63 4.43 4.01 9.83 11.82 9.99z" fill="#f1f2f2"/><path d="m61.81 32.81c-.21.42-.65 1.57-.92 3.38-.28 1.9-.07 3.73-.07 3.73s4.83 3.36 12.25 2.96c7.81-.42 11.54-5.49 11.54-5.49s0-1.69-.77-3.94-2.04-3.1-2.04-3.1-3.59 5.42-10.14 5.49c-5.57.06-9.85-3.03-9.85-3.03z" fill="#ccc"/><path d="m70.47 26.48c-4.58.63-7.39 3.8-7.11 4.86s4.65 2.96 9.01 2.18c4.65-.82 6.76-3.59 6.69-4.5-.07-.93-3.18-3.29-8.59-2.54z" fill="#fff"/></svg>