<svg enable-background="new 0 0 128 128" viewBox="0 0 128 128" xmlns="http://www.w3.org/2000/svg"><path d="m75.87 102.1c3 4.9-2.38 10.12 1.85 13.91 7.84 7 17.44-12.05 29.49 7.49" fill="none" stroke="#64b5f6" stroke-miterlimit="10" stroke-width="3"/><path d="m74.5 106.88 5.63-1c1.56-.27 2.6-1.75 2.33-3.31-.05-.28-.14-.54-.26-.79-1.82-3.6-4.26-6.86-7.2-9.62-.44 2.89-2.16 7.38-3.62 10.8-.62 1.45.06 3.12 1.51 3.74.51.21 1.07.28 1.61.18z" fill="#f44336"/><path d="m25.56 51.54c7.58 31.76 38.66 46.21 50.12 43.46s32.1-32 25.08-61.43c-4.97-20.77-25.83-33.57-46.6-28.6s-33.57 25.83-28.6 46.6z" fill="#f44336"/><path d="m73.43 98.11 5.16-1.23c1.63-.39 2.64-2.02 2.25-3.65s-2.02-2.64-3.65-2.25l-5.19 1.23c-1.63.39-2.64 2.02-2.25 3.65s2.02 2.64 3.65 2.25z" fill="#c62828"/><path d="m78.28 13.44c-4.07-2.48-9.9-4.13-13.2.55-1.76 2.49-.1 7.15 3.53 8.2 6.14 1.79 7.21 4 8.46 5.79 1.51 2.1 2.94 4.73 5.49 5.14s4-1.51 3.89-5.21c-.02-5.92-3.11-11.4-8.17-14.47z" fill="#ff847a"/></svg>