<svg enable-background="new 0 0 128 128" viewBox="0 0 128 128" xmlns="http://www.w3.org/2000/svg"><path d="m4 5.5h120" fill="none" stroke="#607d8b" stroke-miterlimit="10" stroke-width="3"/><path d="m40.73 30.32h13.81v3.99h-13.81z" fill="#607d8b"/><path d="m59.63 31.48h-24c-1 0-1.81-.81-1.81-1.81v-.17c0-1 .81-1.81 1.81-1.81h24c1 0 1.81.81 1.81 1.81v.17c0 1-.81 1.81-1.81 1.81z" fill="#82aec0"/><path d="m48.87 29.37 11.06-10.61c.42-.41.43-1.09.02-1.51l-13.33-11.6" fill="none" stroke="#82aec0" stroke-miterlimit="10" stroke-width="3"/><path d="m45.65 6.79 4.73 4.15 2.2-2.05-4.98-4.34z" fill="#607d8b"/><path d="m57.06 15.62v4.57l2.22-2.29z" fill="#82aec0"/><path d="m46.39 29.37-11.06-10.61c-.42-.41-.43-1.09-.02-1.51l13.33-11.6" fill="none" stroke="#82aec0" stroke-miterlimit="10" stroke-width="3"/><path d="m49.62 6.79-4.73 4.15-2.2-2.05 4.97-4.34z" fill="#607d8b"/><path d="m38.2 15.62v4.57l-2.21-2.29z" fill="#82aec0"/><path d="m50.12 8.71h-4.97c-.61 0-1.1-.49-1.1-1.1v-3.92c0-.61.49-1.1 1.1-1.1h4.97c.61 0 1.1.49 1.1 1.1v3.92c-.01.6-.5 1.1-1.1 1.1z" fill="#82aec0"/><circle cx="37.39" cy="115.03" fill="#455a64" r="8.97"/><path d="m39.58 116.4c-.52.64-1.3 1.07-2.2 1.07-.89 0-1.68-.42-2.2-1.07h-3.58c.62 2.63 2.96 4.59 5.78 4.59s5.16-1.96 5.78-4.59z" fill="#607d8b"/><circle cx="90.61" cy="115.03" fill="#455a64" r="8.97"/><path d="m92.81 116.4c-.52.64-1.3 1.07-2.2 1.07-.89 0-1.68-.42-2.2-1.07h-3.58c.62 2.63 2.96 4.59 5.78 4.59s5.16-1.96 5.78-4.59z" fill="#607d8b"/><path d="m78.13 119.53h-27.83l-3.56-7.67h34.52z" fill="#455a64"/><path d="m6.32 48.36v26.22h115.36v-25.63z" fill="#eee"/><path d="m7 45.62c-.43 1.27-.68 2.81-.68 4.68h115.36c0-1.79-.25-3.41-.68-4.68z" fill="#9e9e9e"/><path d="m6.64 46.88h114.72c-1.27-5.61-6.27-12.8-12.26-12.8h-90.2c-5.99 0-10.99 7.2-12.26 12.8z" fill="#bdbdbd"/><path d="m124 108.84-2.32-5.88v-32.53h-115.36v32.53l-2.32 5.88z" fill="#ffca28"/><path d="m4 108.84h120v5.36h-120z" fill="#82aec0"/><path d="m23.39 65.84h14.6v15.56h-14.6z" fill="#bae2fd"/><path d="m36.98 82.4h-12.59c-1.11 0-2-.9-2-2v-13.56c0-1.11.9-2 2-2h12.6c1.11 0 2 .9 2 2v13.55c0 1.11-.9 2.01-2.01 2.01zm-13.09-14.75v11.93c0 .45.36.81.81.81h11.98c.45 0 .81-.36.81-.81v-11.93c0-.45-.36-.81-.81-.81h-11.98c-.45 0-.81.36-.81.81z" fill="#37474f"/><path d="m22.89 70.8h15.23" fill="none" stroke="#37474f" stroke-miterlimit="10"/><path d="m90.01 65.84h14.6v15.56h-14.6z" fill="#bae2fd"/><path d="m103.61 82.4h-12.59c-1.11 0-2-.9-2-2v-13.56c0-1.11.9-2 2-2h12.6c1.11 0 2 .9 2 2v13.55c-.01 1.11-.9 2.01-2.01 2.01zm-13.09-14.75v11.93c0 .45.36.81.81.81h11.98c.45 0 .81-.36.81-.81v-11.93c0-.45-.36-.81-.81-.81h-11.98c-.45 0-.81.36-.81.81z" fill="#37474f"/><path d="m89.51 70.8h15.24" fill="none" stroke="#37474f" stroke-miterlimit="10"/><path d="m47.86 107.86c-1.61 0-2.92-1.4-2.92-3.13v-39.23c0-2.02 1.53-3.66 3.42-3.66h32.12c1.42 0 2.57 1.24 2.57 2.76v40.5c0 1.52-1.15 2.76-2.57 2.76z" fill="#ffca28"/><path d="m80.49 62.84c.86 0 1.57.79 1.57 1.76v40.5c0 .97-.7 1.76-1.57 1.76h-32.63c-1.06 0-1.92-.96-1.92-2.13v-39.23c0-1.47 1.08-2.66 2.42-2.66zm0-2h-32.13c-2.44 0-4.42 2.09-4.42 4.66v39.23c0 2.28 1.75 4.13 3.92 4.13h32.62c1.97 0 3.57-1.68 3.57-3.76v-40.5c0-2.08-1.59-3.76-3.56-3.76z" fill="#9e740b"/><path d="m77.12 64.84h-7.49c-1.47 0-2.66 1.19-2.66 2.66v17.59c0 1.47 1.19 2.66 2.66 2.66h7.49c1.47 0 2.66-1.19 2.66-2.66v-17.59c0-1.47-1.19-2.66-2.66-2.66z" fill="#37474f"/><path d="m76.57 67.16h-6.17c-1.1 0-2 .9-2 2v14.21c0 1.1.9 2 2 2h6.17c1.1 0 2-.9 2-2v-14.21c0-1.1-.89-2-2-2z" fill="#bae2fd"/><path d="m58.24 64.84h-7.49c-1.47 0-2.66 1.19-2.66 2.66v17.59c0 1.47 1.19 2.66 2.66 2.66h7.49c1.47 0 2.66-1.19 2.66-2.66v-17.59c-.01-1.47-1.2-2.66-2.66-2.66z" fill="#37474f"/><path d="m57.69 67.16h-6.17c-1.1 0-2 .9-2 2v14.21c0 1.1.9 2 2 2h6.17c1.1 0 2-.9 2-2v-14.21c0-1.1-.9-2-2-2z" fill="#bae2fd"/><path d="m64 61.8v45.6" fill="none" stroke="#9e740b" stroke-miterlimit="10" stroke-width="2"/><path d="m6.32 65.84h10.25v20.56h-10.25z" fill="#bae2fd"/><path d="m14.51 85.39c.73 0 1.33-.6 1.33-1.33v-15.89c0-.73-.6-1.33-1.33-1.33h-8.18v-2h9.11c1.11 0 2 .9 2 2v18.55c0 1.11-.9 2-2 2h-9.12v-2z" fill="#37474f"/><path d="m111.57 65.84h10.11v20.56h-10.11z" fill="#bae2fd"/><path d="m113.49 85.39c-.73 0-1.33-.6-1.33-1.33v-15.89c0-.73.6-1.33 1.33-1.33h8.18v-2h-9.11c-1.11 0-2 .9-2 2v18.55c0 1.11.9 2 2 2h9.11v-2z" fill="#37474f"/></svg>