<svg enable-background="new 0 0 128 128" viewBox="0 0 128 128" xmlns="http://www.w3.org/2000/svg"><path d="m106.02 121.68h-69.84c-1.66 0-1.26-1.35-1.26-3.01v-104.62c0-1.66 1.35-3.01 3.01-3.01h69.36c2.72 0 4.93 2.21 4.93 4.93v99.76c0 3.86-1.83 5.95-6.2 5.95z" fill="#01579b"/><path d="m18.53 115.14c0 1.94 3.07 3.57 5.01 3.57l80.39-.05c2.98 0 4.54-1.58 4.54-3.52l-.25-21.32h-89.69z" fill="#94c6d6"/><path d="m101.47 105.88s-2.13 5.85.03 8.78c2.51 3.4 6.89 2.58 6.89.99v-99.21c0-.66-.61-1.14-1.25-1-1.39.3-3.89.31-7.21-1.89z" fill="#f5f5f5"/><path d="m94.16 110.85h-70.52v-104.4h72.25c2.27 0 3.87.61 4.62 1.62.98 1.31 1.5 3.3 1.5 5.48v89.45c0 4.33-3.51 7.85-7.85 7.85z" fill="#01579b"/><path d="m92.01 107.78h-66.47c-2.76 0-4.99-2.24-4.99-4.99v-91.34c0-2.76 2.24-4.99 4.99-4.99h66.47c3.82 0 6.92 2.18 6.92 6.92v87.49c-.01 3.81-3.1 6.91-6.92 6.91z" fill="#0091ea"/><path d="m34.43 109.75s-.05-101.82-.05-103.29h-11.2s-2.31-.4-3.85 0c-2.79.73-3.56 2.76-3.56 6.07v94.41c0 6.7.41 9.6 2.44 11.72-.12-1.54.87-6.83 1.68-8.28.72-1.28 14.54-.63 14.54-.63z" fill="#616161"/><g fill="none" stroke="#424242" stroke-miterlimit="10"><path d="m23.18 6.45v104.4" stroke-width="2"/><path d="m34.38 109.34-11.3.22c-3.77 0-5.06 4.04-4.39 6.71.84 3.37 4.32 3.92 5.18 3.92s12.65 0 12.65 0" stroke-width="3"/></g></svg>