<svg enable-background="new 0 0 128 128" viewBox="0 0 128 128" xmlns="http://www.w3.org/2000/svg"><path d="m92.5 66h-50.2l-7.8 5.8v35.8c.1 8.5 8.5 12.1 9.9 12.7h46.1c1.3-.6 9.7-4.2 9.7-12.7v-35.8c.1 0-7.7-5.8-7.7-5.8z" fill="#fdd835"/><path d="m44.1 120.1s4.4 3.4 11.1 3.4h24.3c6.7 0 11.1-3.4 11.1-3.4z" fill="#bf8400"/><path d="m100.3 83s0-10.3 0-11.3c0-2.1-6.9-5.8-8.7-5.8h-48.4c-1.8 0-8.7 3.9-8.7 6s0 11.1 0 11.1 65.8 0 65.8 0z" fill="#e0e0e0"/><path d="m55.7 58.7h23.5c1.6 0 2.9 1.3 2.9 2.9v.1c0 1.6-1.3 2.9-2.9 2.9h-23.5c-1.6 0-2.9-1.3-2.9-2.9v-.1c0-1.6 1.3-2.9 2.9-2.9z" fill="#607d8b"/><path d="m48.6 62.4h37c4.1 0 6.6 3.4 6.6 3.4h-49.7s2.3-3.4 6.1-3.4z" fill="#82aec0"/><path d="m76.2 121h-16.5c-1.9 0-3.4-1.5-3.4-3.4v-40.3c0-1.9 1.5-3.4 3.4-3.4h15.8c2.2 0 4 1.8 4 4v39.9c0 1.8-1.5 3.3-3.3 3.3z" fill="#fdd835"/><path d="m76.2 122h-16.5c-2.5 0-4.4-2-4.4-4.4v-40.3c0-2.5 2-4.4 4.4-4.4h15.8c2.7 0 5 2.2 5 5v39.9c0 2.4-1.9 4.3-4.3 4.3zm-16.5-47.2c-1.3 0-2.4 1.1-2.4 2.4v40.3c0 1.3 1.1 2.4 2.4 2.4h16.5c1.3 0 2.3-1 2.3-2.3v-39.9c0-1.6-1.3-3-3-3h-15.8z" fill="#bf8400"/><path d="m4 4.7v4l120 26.2v-4.1z" fill="#9e9e9e"/><path d="m92.2 15.5-58.1-11.5c-1.1-.2-2.2.6-2.3 1.7-.1 2.5-1.1 6 4.9 7.2s14 3.4 14 3.4c3.4.7 5.8 3.6 6 7s.9 2.1 2 2.4l4.1.8c1.1.2 2.3-.3 2.8-1.4 1.5-3 4.8-4.7 8.3-4 0 0 7.4 1 14.2 2.4s8 1.4 8 1.4 1.6-8-3.9-9.3z" fill="#607d8b"/><g fill="#37474f"><circle cx="50.5" cy="13.4" r="5.3"/><circle cx="38.9" cy="11" r="5.3"/><circle cx="87.1" cy="20.8" r="5.3"/><circle cx="75.5" cy="18.5" r="5.3"/></g><g fill="#82aec0"><circle cx="50.1" cy="15.7" r="5.3"/><circle cx="38.5" cy="13.3" r="5.3"/><circle cx="87" cy="23.2" r="5.3"/><circle cx="75.4" cy="20.8" r="5.3"/></g><g fill="none" stroke="#94d1e0" stroke-miterlimit="10" stroke-width="2"><path d="m35.1 12.3c.2-.7.8-1.4 1.4-1.8s1.5-.6 2.3-.4"/><path d="m46.7 14.5c.8-1.2 2.3-2 3.8-1.9"/><path d="m72 19.1c.6-1.5 2.2-2.4 3.7-2.2"/><path d="m83.9 21.5c.7-1.4 2.5-2.2 4-1.7"/></g><path d="m41.5 68.8c1.5-2.2 3.5-2 4.7-2h11.1c.6 0 .9 1.1.5 1.8v.2c-1.1 1.5-2.5 2.3-3.9 2.3l-9.3-.3c-.4 0-4.5.3-3-1.9z" fill="#fff"/><path d="m69.8 60.9c-3.5 0-8.8-1.5-11.9-6.8-2.4-4-4-8.5-3.1-16.1s4.6-15.8 4.1-22.7h7c-.2 11.2-3.7 17.7-4.2 24.8s1.8 12.2 9.5 15.3 3.3 3.7 3.3 3.7l-4.7 1.7z" fill="#607d8b"/><path d="m62.7 58.8h11.9s-.5-2.2-5.5-2.8-6.4 2.8-6.4 2.8z" fill="#37474f"/><path d="m82.7 104.6v-24.7c0-1.6 1.3-2.9 2.9-2.9h14.7l-.2 30.4h-14.6c-1.6 0-2.9-1.3-2.9-2.9z" fill="#37474f"/><path d="m84.3 102.6v-20.8c0-1.2 1-2.1 2.1-2.1h13.8l-.1 25.1h-13.6c-1.2 0-2.1-1-2.1-2.1z" fill="#bae2fd"/><path d="m52.1 104.6v-24.7c0-1.6-1.3-2.9-2.9-2.9h-14.7l.2 30.4h14.6c1.6 0 2.9-1.3 2.9-2.9z" fill="#37474f"/><path d="m50.4 102.6v-20.8c0-1.2-1-2.1-2.1-2.1h-13.8l.1 25.1h13.6c1.2 0 2.1-1 2.1-2.1z" fill="#bae2fd"/><path d="m61.6 77h11.8c1.49 0 2.7 1.21 2.7 2.7v24.9c0 1.49-1.21 2.7-2.7 2.7h-11.8c-1.49 0-2.7-1.21-2.7-2.7v-24.9c0-1.49 1.21-2.7 2.7-2.7z" fill="#37474f"/><path d="m62.7 79.6h9.7c1.1 0 2 .9 2 2v21.1c0 1.1-.9 2-2 2h-9.7c-1.1 0-2-.9-2-2v-21.1c0-1.1.9-2 2-2z" fill="#bae2fd"/></svg>