<svg enable-background="new 0 0 128 128" viewBox="0 0 128 128" xmlns="http://www.w3.org/2000/svg" xmlns:xlink="http://www.w3.org/1999/xlink"><radialGradient id="a" cx="66.23" cy="137.22" gradientUnits="userSpaceOnUse" r="134.88"><stop offset=".4081" stop-color="#f4704f"/><stop offset=".4628" stop-color="#ef6f55"/><stop offset=".5365" stop-color="#e16d66"/><stop offset=".6211" stop-color="#ca6982"/><stop offset=".713" stop-color="#a964a9"/><stop offset=".727" stop-color="#a463b0"/><stop offset=".7719" stop-color="#9361b0"/><stop offset=".8609" stop-color="#655caf"/><stop offset=".9437" stop-color="#3657ae"/></radialGradient><radialGradient id="b" cx="56.99" cy="23.28" gradientUnits="userSpaceOnUse" r="100.39"><stop offset=".4597" stop-color="#513076"/><stop offset=".9511" stop-color="#412769"/></radialGradient><path d="m116.62 124.26h-105.3c-4.15 0-7.52-3.37-7.52-7.52v-105.3c0-4.15 3.37-7.52 7.52-7.52h105.3c4.15 0 7.52 3.37 7.52 7.52v105.3c.01 4.15-3.36 7.52-7.52 7.52z" fill="url(#a)"/><path d="m121.3 62.39h-19v21.86h-42.11v-65.41h-31.54v65.41h-4.48v-35.12h-11.83v42.65h9.5v25.44h97.13v-11.11h2.33z" fill="#a47fcd"/><g fill="#3f737b"><path d="m32.41 25.13h2.37v7.59h-2.37z"/><path d="m37.46 25.13h2.47v7.59h-2.47z"/><path d="m45.27 25.13h-2.42v7.59l2.36-.02z"/></g><path d="m50.44 25.13-2.6.01.07 7.58h2.51z" fill="#a363b0"/><g fill="#fde064"><path d="m32.41 25.13h2.37v7.59h-2.37z"/><path d="m37.46 25.13h2.47v7.59h-2.47z"/><path d="m45.31 25.13h-2.46v7.59l2.43-.02z"/></g><path d="m50.44 37.13-2.6.01.07 7.58h2.51z" fill="#a463b0"/><path d="m32.41 37.13h2.37v7.59h-2.37z" fill="#fde064"/><g fill="#a463b0"><path d="m37.46 37.13h2.47v7.59h-2.47z"/><path d="m45.31 37.13h-2.46v7.59l2.43-.02z"/><path d="m32.41 49.13h2.37v7.59h-2.37z"/><path d="m37.46 49.13h2.47v7.59h-2.47z"/><path d="m45.31 49.13h-2.46v7.59l2.43-.02z"/></g><path d="m53.36 25.13-.01 7.59h2.56v-7.59z" fill="#a363b0"/><path d="m105.55 81.2h2.88v3.94h-2.88z" fill="#a463b0"/><path d="m111.3 81.2h2.88v3.94h-2.88z" fill="#a463b0"/><path d="m105.55 73.83h2.88v3.94h-2.88z" fill="#fde064"/><path d="m111.3 73.83h2.88v3.94h-2.88z" fill="#a463b0"/><path d="m105.55 66.83h2.88v3.94h-2.88z" fill="#fde064"/><path d="m111.3 66.83h2.88v3.94h-2.88z" fill="#fde064"/><path d="m115 49.4c-.36.73 0 42.7 0 42.7h-15.87v-24h-5.11v-7.67h-4.53v-6.51h-8.16v6.84h-5.19v7.17h-5.36v34.95h-5.04v-39h2.35v-7.44h-2.35v-15.41h-2.65l-3.61-11.16h-7.11l-3.57 11.16h-2.79v15.41h-2.48v7.44h2.48v39h-7.18v-35.05h-21.64v-39.36s-13.35-.09-13.39-.05v88.32c0 4.15 3.37 7.52 7.52 7.52h105.3c4.15 0 7.52-3.37 7.52-7.52v-67.34z" fill="url(#b)"/><path d="m5.71 116.21h29.97v2.35h-29.97z" fill="#a463b0"/><path d="m5.71 107.86h29.97v2.35h-29.97z" fill="#a463b0"/><g fill="#fde064"><path d="m5.71 99.21h29.97v2.35h-29.97z"/><path d="m5.71 90.86h29.97v2.35h-29.97z"/><path d="m5.71 81.21h29.97v2.35h-29.97z"/><path d="m5.71 72.86h29.97v2.35h-29.97z"/></g><path d="m5.71 63.32h1.76v3.7h-1.76z" fill="#a463b0"/><g fill="#fde064"><path d="m11.71 63.32h1.76v3.7h-1.76z"/><path d="m5.71 55.89h1.76v3.7h-1.76z"/><path d="m11.71 55.89h1.76v3.7h-1.76z"/><path d="m5.71 48.46h1.76v3.7h-1.76z"/><path d="m11.71 48.46h1.76v3.7h-1.76z"/><path d="m5.71 41.03h1.76v3.7h-1.76z"/><path d="m11.71 41.03h1.76v3.7h-1.76z"/><path d="m5.71 33.59h1.76v3.7h-1.76z"/></g><path d="m11.71 33.59h1.76v3.7h-1.76z" fill="#a463b0"/><g fill="#fde064"><path d="m49.8 64.51h2.27v4.76h-2.27z"/><path d="m55.18 64.51h2.27v4.76h-2.27z"/><path d="m60.36 64.51h2.27v4.76h-2.27z"/><path d="m49.8 73.51h2.27v4.76h-2.27z"/><path d="m49.8 97.7h2.27v4.76h-2.27z"/></g><g fill="#a463b0"><path d="m55.18 97.7h2.27v4.76h-2.27z"/><path d="m60.36 97.7h2.27v4.76h-2.27z"/><path d="m55.18 73.51h2.27v4.76h-2.27z"/></g><path d="m60.36 73.51h2.27v4.76h-2.27z" fill="#fde064"/><path d="m49.8 82.51h2.27v4.76h-2.27z" fill="#a463b0"/><path d="m55.18 82.51h2.27v4.76h-2.27z" fill="#fde064"/><path d="m60.36 82.51h2.27v4.76h-2.27z" fill="#fde064"/><path d="m54.01 53.96h4.66v-6.92s.17-2.6-2.35-2.66c-2.37-.06-2.4 2.6-2.4 2.6s.15 6.98.09 6.98z" fill="#a463b0"/><g fill="#fde064"><path d="m79.85 64.16h2.27v9.69h-2.27z"/><path d="m88.36 64.16h2.27v9.69h-2.27z"/><path d="m84.15 64.16h2.27v9.69h-2.27z"/><path d="m76.37 77.58h2.27v3.09h-2.27z"/><path d="m84.19 77.58h2.27v3.09h-2.27z"/><path d="m92.01 77.58h2.27v3.09h-2.27z"/></g><path d="m76.37 87.58h2.27v3.09h-2.27z" fill="#a463b0"/><g fill="#fde064"><path d="m84.19 87.58h2.27v3.09h-2.27z"/><path d="m92.01 87.58h2.27v3.09h-2.27z"/><path d="m76.37 97.03h2.27v3.09h-2.27z"/><path d="m84.19 97.03h2.27v3.09h-2.27z"/><path d="m92.01 97.03h2.27v3.09h-2.27z"/></g><path d="m76.37 107.03h2.27v3.09h-2.27z" fill="#a463b0"/><path d="m84.19 107.03h2.27v3.09h-2.27z" fill="#fde064"/><g fill="#a463b0"><path d="m92.01 107.03h2.27v3.09h-2.27z"/><path d="m76.37 116.5h2.27v3.09h-2.27z"/><path d="m84.19 116.5h2.27v3.09h-2.27z"/><path d="m92.01 116.5h2.27v3.09h-2.27z"/></g></svg>