<svg enable-background="new 0 0 128 128" viewBox="0 0 128 128" xmlns="http://www.w3.org/2000/svg"><path d="m77.78 11.93c10.57-10.57 27.72-10.57 38.29 0s10.57 27.72 0 38.29-31.2 14.06-41.77 3.48-7.1-31.2 3.48-41.77z" fill="#9e9e9e"/><path d="m119.43 16.04c-.02 8.82-3.39 17.63-10.12 24.35-10.66 10.66-26.56 12.89-39.42 6.7 1.03 2.45 2.48 4.7 4.4 6.62 10.57 10.57 31.2 7.09 41.77-3.48 9.3-9.3 10.42-23.67 3.37-34.19z" fill="#757575"/><path d="m84.02 67.06c1.92-1.92-1.69-8.65-8.06-15.02s-13.1-9.98-15.02-8.06c-1.02 1.02-55.72 61.39-56.27 61.94-1.92 1.92.42 7.38 5.22 12.18s10.26 7.14 12.18 5.22c.56-.54 60.93-55.24 61.95-56.26z" fill="#616161"/><path d="m12.37 115.63 61.93-61.93 8.92 10.3-62.79 56.69c-4.84 0-8.06-5.06-8.06-5.06z" fill="#424242"/><path d="m43.42 83.33c-2.75-2.83-2.34-4.82-1.08-6.05l11.53-11.18c1.27-1.23 3.29-1.2 4.52.07l2.61 2.69c1.23 1.27 1.2 3.29-.07 4.52l-11.53 11.18c-1.26 1.22-3.23 1.6-5.98-1.23z"/><circle cx="56.9" cy="70.17" fill="#9e9e9e" r="5.21"/><path d="m111.54 52.79c1.11.73 1.37.85 2.61.36 1.23-.49 3.15-2.55 3.42-3.21.41-1.03.16-1.28-.79-1.85-3.42-2.06-9.93-6.73-20.03-16.83s-14.77-16.61-16.83-20.03c-.57-.95-1.05-1-2.27-.13-.75.54-1.8 1.63-2.49 2.85-.65 1.16-.68 1.4.05 2.51 2.76 4.19 7.76 10.59 16.75 19.58 8.99 9 15.39 13.99 19.58 16.75z" fill="#94d1e0"/><path d="m93.64 59.55c-1.49-.85-8.07-6.27-13.94-12.15-5.57-5.59-10.46-11.63-11.26-13.05-.58-1.02-2.05-1.01-2.62.01l-3.88 6.9c-.82 1.47-.89 3.25-.15 4.76 1.26 2.56 3.29 5.63 8.92 11.26s8.7 7.66 11.26 8.92c1.51.74 3.29.67 4.76-.15l6.9-3.88c1.02-.57 1.03-2.04.01-2.62z" fill="#82aec0"/><path d="m62.31 45.26 4.17-6.18c.59-.87 1.85-.93 2.52-.12l4.61 5.6c.5.61.47 1.5-.07 2.08l-5.29 5.62c-.64.68-1.72.66-2.33-.04-1.01-1.16-2.5-3.06-3.71-5.37-.27-.5-.22-1.12.1-1.59z" fill="#94d1e0"/></svg>