<svg enable-background="new 0 0 128 128" viewBox="0 0 128 128" xmlns="http://www.w3.org/2000/svg" xmlns:xlink="http://www.w3.org/1999/xlink"><linearGradient id="a" gradientUnits="userSpaceOnUse" x1="64" x2="64" y1="155.56" y2="-.24"><stop offset="0" stop-color="#3367d6"/><stop offset=".5213" stop-color="#352893"/><stop offset="1" stop-color="#1a237e"/></linearGradient><linearGradient id="b" gradientUnits="userSpaceOnUse" x1="46.62" x2="124.49" y1="85.54" y2="-3.7"><stop offset="0" stop-color="#fff7af"/><stop offset="1" stop-color="#fff7af" stop-opacity=".1"/></linearGradient><linearGradient id="c" gradientUnits="userSpaceOnUse" x1="47.14" x2="120.89" y1="81.18" y2="13.38"><stop offset=".2537" stop-color="#fffde7"/><stop offset="1" stop-color="#fffde7" stop-opacity="0"/></linearGradient><linearGradient id="d" gradientUnits="userSpaceOnUse" x1="85.66" x2="68.69" y1="12.32" y2="95.57"><stop offset=".005221225" stop-color="#4453ab" stop-opacity="0"/><stop offset="1" stop-color="#3949ab"/></linearGradient><path d="m116 124h-104c-4.42 0-8-3.58-8-8v-104c0-4.42 3.58-8 8-8h104c4.42 0 8 3.58 8 8v104c0 4.42-3.58 8-8 8z" fill="url(#a)"/><path d="m34.15 69.14 40.47 22.92c13.26-34.44 32.93-57.49 49.38-71.98v-8.08c0-3-1.65-5.61-4.1-6.98-29.9 7.41-70.83 24.6-85.75 64.12z" fill="url(#b)"/><path d="m114.43 12.88c-52.02 17.41-73.43 60.68-73.43 60.68l20.23 16.64s4.5-20.25 18.05-41.77c10.98-17.43 28.3-28.56 35.99-33.86.91-.62.21-2.04-.84-1.69z" fill="url(#c)"/><path d="m75.24 67.39c.3-5.04 3.11-17.44 3.11-17.44.73-4.1-3-5.1-5.53-3.82-7.19 3.64-14.83 8.76-19.53 9.16-5.6.48-6.26-5.54-6.18-8.76-5.28 6.58-9.73 14.07-12.96 22.61l40.47 22.92c12.84-33.36 31.71-56.03 47.83-70.59l1.55-1.38v-2.36c-23.11 16.34-34.65 35-41.37 44.77-4.25 6.17-7.63 8.9-7.39 4.89z" fill="url(#d)"/><path d="m29.58 49.88 16.78 10.82c1.29.83 2.92.89 4.27.17l17.25-9.32c2.02-.95 4.25.82 3.78 3l-5.46 18.43c-.44 1.49-.02 3.1 1.09 4.19l14.61 14.33c1.53 1.63.53 4.3-1.69 4.52l-19.72 1.09c-1.51.08-2.87.98-3.54 2.34l-8.71 17.73c-1.07 1.96-3.92 1.83-4.82-.21l-7.48-19.05c-.57-1.45-1.89-2.46-3.43-2.64l-19.09-2.18c-2.19-.42-2.95-3.16-1.29-4.65l15.32-12.24c1.2-.96 1.78-2.49 1.52-4l-3.41-19.67c-.29-2.21 2.09-3.78 4.02-2.66z" fill="#fdd835"/><path d="m39.79 66.36-8.57-10.49c-.46-.6-1.3-1.58-.29-2.25.8-.53 2.32.84 2.32.84l9.36 6.77c3.56 2.58 3.8 4.11 3.03 5.62-.9 1.75-3.4 2.51-5.85-.49z" fill="#ffff8d"/><path d="m64.23 72.85 4.71-14.05c.22-.72.66-1.94-.52-2.21-.93-.21-1.88 1.6-1.88 1.6l-6.32 8.98c-1.96 2.56-2.79 4.98-1.85 6.72 1.26 2.31 4.33 2.7 5.86-1.04z" fill="#f4b400"/><g clip-rule="evenodd" fill-rule="evenodd"><path d="m118.09 63.75c-3.13-1.04-5.56-3.6-6.45-6.78-.12-.44-.71-.45-.85-.02-1.03 3.15-3.57 5.59-6.76 6.49-.41.12-.42.68-.02.81 3.14 1.04 5.57 3.59 6.45 6.76.12.44.71.45.85.02 1.03-3.14 3.57-5.58 6.75-6.47.42-.11.43-.67.03-.81z" fill="#fff176"/><path d="m42.71 30.83c-2.26-.75-4.01-2.59-4.64-4.88-.09-.31-.51-.32-.61-.01-.74 2.27-2.57 4.02-4.87 4.67-.29.08-.3.49-.01.59 2.26.75 4.01 2.59 4.65 4.87.09.32.51.33.61.01.74-2.26 2.57-4.02 4.86-4.66.29-.09.3-.5.01-.59z" fill="#fff9c4"/><circle cx="12.36" cy="41.85" fill="#7baaf7" r="2.41"/><circle cx="59.23" cy="15.07" fill="#5c6bc0" r="4.77"/><circle cx="109.42" cy="94.45" fill="#7986cb" r="3.19"/><circle cx="98.9" cy="80.52" fill="#fff176" r="2.41"/><circle cx="19.67" cy="17.48" fill="#fff176" r="2.41"/><circle cx="69.65" cy="113.47" fill="#7baaf7" r="2.41"/></g></svg>