<svg enable-background="new 0 0 128 128" viewBox="0 0 128 128" xmlns="http://www.w3.org/2000/svg"><path d="m11.7 116.8c-.9.1-1.5 1-1.3 1.9.3 1.1.9 2.3 2.6 2.7s2.7 0 3.7-.2c1-.1 5 .3 7.8.2s6.5-1.5 10-1.3 9 1.2 12 1.2 6.1.2 7.7-1.3c1.3-1.2 2.6-3.8 1.7-7.1s-1.7-8.5-1.8-10c-.5-8.1 1.2-16.6 1.8-21.2s3.7-9.3 4.1-21.7c.4-10-3.7-16.2-3.7-16.2s.4-1.4 4.5-.7c4.2.7 35 1.8 49.4-2.1 10.7-2.9 11.9-25.9-3-31.9-13.7-5.5-52.2 6.7-59.4 8.7s-12.9 3.3-15.5 12.6c-1.7 6 1 14.2 1 14.2l5.9 48.7s1.3 8-2.6 10.5c-5.6 3.7-12.4 8.6-17 11-.7.4-2.3 1.3-4.5 1.6-1.2.2-2.4.3-3.4.4z" fill="#ffca28"/><path d="m93.98 7.82c-17.02 1.02-40.69 8.46-46.18 9.98-7.2 2-12.9 3.3-15.5 12.6-1.7 6 1 14.2 1 14.2l5.9 48.7s1.3 8-2.6 10.5c-5.6 3.7-12.4 8.6-17 11-.7.4-2.3 1.3-4.5 1.6-1.2.2-2.4.3-3.4.4-.9.1-1.5 1-1.3 1.9.3 1.1.9 2.3 2.6 2.7.53.12.97.16 1.39.16-1.15-.35-2.3-.96-2.49-2.06-.4-2.1 2-1.2 4.6-1.5 1.7-.2 3.7-1.3 4.8-2s12.7-8.1 15.4-9.9 4.3-3.2 4.6-7.8-6.8-56-7.7-62.1c-1.5-9.9 6.9-13.1 9.5-13.7s7.6-1.8 10.2-2.9c11.9-5.2 30.9-7.4 35.1-8.1 3.38-.56 4.67-2.21 5.58-3.68zm20.12 15.68c-5.7-.2-10 5.5-18.5 7.8s-22.8 3.1-35 6.2c-9.7 2.5-9 4.5-6 11.1 1.7 3.7 2.5 14.8-.1 21.3-2.7 7.1-5.2 15.1-5.7 22.8 0 9.5 1.7 12.8 0 18.9-.6 2.4-.1 2.4-.9 4.3-2.1 3.2-7.1 2.3-10.5 3 1.41.76 7.97 1.72 13.61 2.29 1.29-.14 2.42-.47 3.19-1.19 1.3-1.2 2.6-3.8 1.7-7.1s-1.7-8.5-1.8-10c-.5-8.1 1.2-16.6 1.8-21.2s3.7-9.3 4.1-21.7c.4-10-3.7-16.2-3.7-16.2s.4-1.4 4.5-.7c4.2.7 35 1.8 49.4-2.1 5.26-1.43 8.21-7.72 8.09-14.46-.91-1.77-2.33-2.98-4.19-3.04zm-67.17 6.44c-.16.02-.34.07-.53.16-.4.1-.8 1.4-.9 1.7-.8 2.5-2.3 4-4 6-.6.6-1.9 1.3-1.6 1.9.3.5 1.8.1 2.5-.4 2-1.3 3.4-2.6 5-4.4.4-.6 1.1-1.7 1.2-2.5.17-1.22-.49-2.6-1.67-2.46zm.07 20.06c-1.1-.1-1.6 1.4-1.8 2.5-.5 3.1-.2 6.4.7 9.4.7 2.4 3 8.7 4.4 8.5.3 0 .9-.3.4-1.9-1.3-3.9-1.8-8.2-2-12.4-.1-1.5-.1-3-.5-4.5-.2-.7-.6-1.6-1.2-1.6z" fill="#faa700"/><path d="m117.22 33.6c-17.16 6.5-40.25 8.37-54.42 7.5-1.9-.1-6.6-.7-7.6.8-1.98 2.78 1.54 3.5 4.62 13.07-.77-7-3.52-11.17-3.52-11.17s.4-1.4 4.5-.7c4.2.7 35 1.8 49.4-2.1 3.32-.9 5.73-3.74 7.02-7.4zm-85.42 2.66c.23 4.41 1.5 8.34 1.5 8.34l1.63 13.46c.46-.5.97-1.42.97-2.96.1-4-1-10.5-1.2-11.8-.2-1.9-.5-2.7-1.2-3.8-.54-.74-1.16-1.99-1.7-3.24zm22.79 54.73c-.53.17-.96.51-1.09 1.21-1.1 5.3-1 10.4-.5 14 .9 5.7 2.2 10.1-.4 11.9-4.6 2.3-11.2.7-15.9.1-2.1-.3-4.4-.3-6.5.3-3.5 1.2-7.2 2.1-10.9 1.5-.7-.1-1.3-.1-2-.1-1.3 0-2.2.6-3.4.8-1.6.2-2.2-1.1-2.9-1.4-.14-.05-.28-.07-.42-.08.35.94.99 1.84 2.42 2.18 1.7.4 2.7 0 3.7-.2 1-.1 5 .3 7.8.2s6.5-1.5 10-1.3 9 1.2 12 1.2 6.1.2 7.7-1.3c1.3-1.2 2.6-3.8 1.7-7.1s-1.7-8.5-1.8-10c-.25-4.05.05-8.2.49-11.91zm-5.05 15.61c-.07-.01-.15-.01-.24 0-.7.1-.8 1-.8 1.5-.1 2.8-1 3.4-1.7 4.1-.5.5-.2.9.4.9.5 0 1.6-.3 2.5-1.7 1.1-1.6.9-2.6.7-3.6-.17-.52-.35-1.13-.86-1.2z" fill="#b55e19"/></svg>