<svg enable-background="new 0 0 128 128" viewBox="0 0 128 128" xmlns="http://www.w3.org/2000/svg" xmlns:xlink="http://www.w3.org/1999/xlink"><linearGradient id="a" gradientTransform="matrix(1 0 0 -1 0 128.11)" gradientUnits="userSpaceOnUse" x1="28.81" x2="28.81" y1="74.35" y2="38.98"><stop offset=".1531" stop-color="#1e88e5"/><stop offset="1" stop-color="#1565c0"/></linearGradient><path d="m4 93.33v-58.66c0-4.68 3.83-8.5 8.5-8.5h103c4.68 0 8.5 3.83 8.5 8.5v58.67c0 4.68-3.83 8.5-8.5 8.5h-103c-4.67 0-8.5-3.83-8.5-8.51z" fill="#b9e4ea"/><path d="m42.43 89.13h-27.24c-.85 0-1.54-.69-1.54-1.54v-37.02c0-.85.69-1.54 1.54-1.54h27.24c.85 0 1.54.69 1.54 1.54v37.03c0 .84-.69 1.53-1.54 1.53z" fill="#fff"/><path d="m43.87 87.95v1.18h-30.12v-1.18c0-4.63 5.87-6.87 12.38-7.34v-.32c-2.74-.83-5.19-2.89-6.4-6.28-1.24-.44-1.95-4.51-1.62-5.04-.24-1.71-1.86-15.12 10.7-15.21 12.53.06 10.93 13.44 10.67 15.18.32.53-.38 4.6-1.62 5.04-1.18 3.39-3.63 5.48-6.37 6.31v.29c6.55.53 12.38 3.01 12.38 7.37z" fill="url(#a)"/><path d="m115.5 26.16h-103c-4.68 0-8.5 3.83-8.5 8.5v5.33h120v-5.33c0-4.67-3.83-8.5-8.5-8.5z" fill="#2f7889"/><g fill="#82aec0"><path d="m79.09 53.76h-24.76c-1.31 0-2.37-1.06-2.37-2.37s1.06-2.37 2.37-2.37h24.76c1.31 0 2.37 1.06 2.37 2.37-.01 1.31-1.07 2.37-2.37 2.37z"/><path d="m87.96 65.55h-33.63c-1.31 0-2.37-1.06-2.37-2.37s1.06-2.37 2.37-2.37h33.63c1.31 0 2.37 1.06 2.37 2.37-.01 1.31-1.07 2.37-2.37 2.37z"/><path d="m75.27 77.34h-20.94c-1.31 0-2.37-1.06-2.37-2.37s1.06-2.37 2.37-2.37h20.94c1.31 0 2.37 1.06 2.37 2.37-.01 1.31-1.07 2.37-2.37 2.37z"/><path d="m69.57 89.13h-15.24c-1.31 0-2.37-1.06-2.37-2.37s1.06-2.37 2.37-2.37h15.24c1.31 0 2.37 1.06 2.37 2.37s-1.06 2.37-2.37 2.37z"/></g><path d="m124 53.79c-.17-.01-.34-.03-.52-.03-7.84 0-14.19 6.35-14.19 14.19s6.35 14.19 14.19 14.19c.17 0 .34-.02.52-.03z" fill="#94d1e0"/></svg>