<svg enable-background="new 0 0 128 128" viewBox="0 0 128 128" xmlns="http://www.w3.org/2000/svg" xmlns:xlink="http://www.w3.org/1999/xlink"><linearGradient id="a"><stop offset=".7315" stop-color="#d6d6d6" stop-opacity="0"/><stop offset=".8065" stop-color="#e6e6e6" stop-opacity=".28"/><stop offset=".9196" stop-color="#f8f8f8" stop-opacity=".7"/><stop offset="1" stop-color="#fff"/></linearGradient><radialGradient id="b" cx="99.14" cy="81.94" gradientTransform="matrix(1 0 0 -.4912 -20.07 122.19)" gradientUnits="userSpaceOnUse" r="23.42" xlink:href="#a"/><linearGradient id="c"><stop offset="0" stop-color="#fff"/><stop offset=".2993" stop-color="#f8f8f8" stop-opacity=".7"/><stop offset=".7209" stop-color="#e6e6e6" stop-opacity=".28"/><stop offset="1" stop-color="#d6d6d6" stop-opacity="0"/></linearGradient><radialGradient id="d" cx="76.6" cy="78.65" gradientTransform="matrix(-.9057 .4238 .2547 .5443 150.97 3.38)" gradientUnits="userSpaceOnUse" r="8.08" xlink:href="#c"/><linearGradient id="e"><stop offset=".5919" stop-color="#d6d6d6" stop-opacity="0"/><stop offset=".7058" stop-color="#e6e6e6" stop-opacity=".28"/><stop offset=".8778" stop-color="#f8f8f8" stop-opacity=".7"/><stop offset="1" stop-color="#fff"/></linearGradient><radialGradient id="f" cx="87.22" cy="57.17" gradientTransform="matrix(-.0746 -.9972 -.6085 .0455 132.3 141.54)" gradientUnits="userSpaceOnUse" r="30.4" xlink:href="#e"/><radialGradient id="g" cx="141.05" cy="81.94" gradientTransform="matrix(-1 0 0 -.4912 190.02 122.19)" gradientUnits="userSpaceOnUse" r="23.42" xlink:href="#a"/><radialGradient id="h" cx="118.51" cy="78.65" gradientTransform="matrix(.9057 .4238 -.2547 .5443 -60.88 -14.38)" gradientUnits="userSpaceOnUse" r="8.08" xlink:href="#c"/><radialGradient id="i" cx="36.65" cy="56.74" gradientTransform="matrix(.0746 -.9972 .5876 .044 .58 90.78)" gradientUnits="userSpaceOnUse" r="31.34" xlink:href="#e"/><linearGradient id="j"><stop offset="0" stop-color="#f44336"/><stop offset=".3592" stop-color="#e73b32"/><stop offset="1" stop-color="#c62828"/></linearGradient><linearGradient id="k" gradientTransform="matrix(1 0 0 -1 0 130)" gradientUnits="userSpaceOnUse" x1="64" x2="64" xlink:href="#j" y1="34.5" y2="1.85"/><linearGradient id="l" gradientTransform="matrix(1 0 0 -1 0 130)" gradientUnits="userSpaceOnUse" x1="27.61" x2="105.48" xlink:href="#j" y1="97.11" y2="97.11"/><radialGradient id="m" cx="98.5" cy="62.4" gradientTransform="matrix(1 0 0 1.0094 0 -.58)" gradientUnits="userSpaceOnUse" r="14.19"><stop offset=".5391" stop-color="#f5f5f5"/><stop offset="1" stop-color="#bdbdbd"/></radialGradient><radialGradient id="n" cx="81.36" cy="29.03" gradientTransform="matrix(.8655 -.5008 -.9673 -1.6717 39.02 190.25)" gradientUnits="userSpaceOnUse" r="11.72"><stop offset="0" stop-color="#e0e0e0"/><stop offset=".6561" stop-color="#f5f5f5"/></radialGradient><linearGradient id="o" gradientTransform="matrix(1 0 0 -1 0 130)" gradientUnits="userSpaceOnUse" x1="31.67" x2="74.38" y1="28.64" y2="28.64"><stop offset=".6763" stop-color="#f5f5f5"/><stop offset="1" stop-color="#e0e0e0"/></linearGradient><path d="m98.9 79.85c-1.25-2.27.34-4.58 3.06-7.44 4.31-4.54 9-15.07 4.64-25.76.03-.06-.86-1.86-.83-1.92l-1.79-.09c-.57-.08-20.26-.12-39.97-.12s-36.06.07-36.06.07c-2.84 1.92-14.39 13.87-2.1 28.52 2.53 3.02 4.5 4.48 3.26 6.75-1.21 2.21-4.81 2.53-4.81 2.53s.83 2.26 2.83 3.48c1.85 1.13 4.13 1.39 5.7 1.43 0 0 6.15 8.51 22.23 8.51h8.95 8.95c16.08 0 22.23-8.51 22.23-8.51 1.57-.04 3.85-.3 5.7-1.43 2-1.22 2.83-3.48 2.83-3.48s-3.61-.33-4.82-2.54z" fill="#bdbdbd"/><g opacity=".5"><path d="m63.99 95.79v-9.44l28.57-2.26 2.6 3.2s-6.15 8.51-22.23 8.51z" fill="url(#b)"/><path d="m95.1 83.16c-4.28-6.5 5.21-8.93 5.21-8.93s.01.01.01.01c-1.65 2.05-2.4 3.84-1.43 5.61 1.21 2.21 4.81 2.53 4.81 2.53s-4.91 4.36-8.6.78z" fill="url(#d)"/><path d="m106.62 46.65c4.25 10.35-.22 21.01-4.41 25.51-.58.62-3.01 3.01-3.57 4.92 0 0-9.54-13.31-12.39-21.13-.58-1.58-1.1-3.2-1.17-4.88-.05-1.26.14-2.76.87-3.82.89-1.31 20.16-1.7 20.16-1.7s.51 1.1.51 1.1z" fill="url(#f)"/><path d="m64.06 95.79v-9.44l-28.57-2.26-2.6 3.2s6.15 8.51 22.23 8.51z" fill="url(#g)"/><path d="m32.95 83.16c4.28-6.5-5.21-8.93-5.21-8.93s-.01.01-.01.01c1.65 2.05 2.4 3.84 1.43 5.61-1.21 2.21-4.81 2.53-4.81 2.53s4.9 4.36 8.6.78z" fill="url(#h)"/><path d="m25.84 73.1c1.41 1.68 2.64 2.87 3.24 3.99.62-.88 9.6-13.53 12.35-21.08.58-1.58 1.1-3.2 1.17-4.88.04-.92-.58-4.38-1.19-6.6-8.18.02-13.48.04-13.48.04-2.83 1.93-14.38 13.88-2.09 28.53z" fill="url(#i)"/></g><path d="m64.14 95.97c-.05 0-.09 0-.14 0-25.65.03-52 7.1-52 24.99v3.04h1.44 1.45 98.22 1.45 1.44v-3.04c0-16.86-26.1-24.99-51.86-24.99z" fill="url(#k)"/><path d="m90.76 49.55h-53.57c-5.78 0-10.5 5.17-10.5 11.5s4.73 11.5 10.5 11.5h53.57c5.78 0 10.5-5.18 10.5-11.5s-4.72-11.5-10.5-11.5z" fill="#99674f"/><path d="m63.59 10.47c-17.08 0-32.89 18.26-32.89 44.54 0 26.13 16.29 39.06 32.89 39.06s32.89-12.92 32.89-39.06c0-26.28-15.82-44.54-32.89-44.54z" fill="#ba8d68"/><g fill="#91674d"><path d="m91.5 61.5c-.12 0-.25-.02-.37-.07l-4.43-1.76c-.33-.13-.57-.43-.62-.79-.05-.35.09-.71.37-.93l3.56-2.8c.44-.34 1.06-.27 1.4.17.34.43.27 1.06-.17 1.4l-2.19 1.73 2.82 1.12c.51.2.76.79.56 1.3-.16.39-.53.63-.93.63z"/><path d="m46.55 79.81c-.26 0-.51-.1-.71-.29-.39-.39-.39-1.02 0-1.41l7.11-7.11c.39-.39 1.02-.39 1.41 0s.39 1.02 0 1.41l-7.11 7.11c-.19.2-.45.29-.7.29z"/><path d="m81.4 79.81c-.26 0-.51-.1-.71-.29l-7.11-7.11c-.39-.39-.39-1.02 0-1.41s1.02-.39 1.41 0l7.11 7.11c.39.39.39 1.02 0 1.41-.19.2-.44.29-.7.29z"/><path d="m36.5 61.5c-.4 0-.77-.24-.93-.63-.2-.51.05-1.1.56-1.3l2.82-1.12-2.19-1.73c-.43-.34-.51-.97-.17-1.4s.97-.51 1.4-.17l3.55 2.8c.28.22.42.58.37.93s-.29.65-.62.79l-4.43 1.76c-.11.05-.24.07-.36.07z"/><path d="m51.57 43.28c0 .65.6 1.13 1.23.98 2.68-.63 6.48-1.27 10.87-1.27 4.52 0 8.55.68 11.38 1.33.63.14 1.22-.33 1.22-.98 0-.47-.33-.88-.79-.98-2.93-.67-7.08-1.36-11.81-1.36-4.59 0-8.53.65-11.32 1.31-.46.1-.78.5-.78.97z"/></g><path d="m72.24 76.15c-3.12 1.86-13.37 1.86-16.5 0-1.79-1.07-3.63.57-2.88 2.2.73 1.6 6.32 5.32 11.16 5.32s10.35-3.72 11.08-5.32c.74-1.63-1.07-3.27-2.86-2.2z" fill="#5d4037"/><ellipse cx="47.69" cy="59.26" fill="#49362e" rx="4.83" ry="5.01"/><ellipse cx="80.32" cy="59.26" fill="#49362e" rx="4.83" ry="5.01"/><path d="m54.8 49.82c-.93-1.23-3.07-3.01-7.23-3.01s-6.31 1.79-7.23 3.01c-.41.54-.31 1.17-.02 1.55.26.35 1.04.68 1.9.39s2.54-1.16 5.35-1.18c2.81.02 4.49.89 5.35 1.18s1.64-.03 1.9-.39c.28-.38.39-1.01-.02-1.55z" fill="#9e9e9e"/><path d="m87.67 49.82c-.93-1.23-3.07-3.01-7.23-3.01s-6.31 1.79-7.23 3.01c-.41.54-.31 1.17-.02 1.55.26.35 1.04.68 1.9.39s2.54-1.16 5.35-1.18c2.81.02 4.49.89 5.35 1.18s1.64-.03 1.9-.39c.28-.38.39-1.01-.02-1.55z" fill="#9e9e9e"/><path d="m99.33 30.12c-2.39-6.49-53.02-18.6-69.58 3.72-3.25 4.39-.49 18.64-.49 18.64-.46 8.01 1.03 12.94 1.82 14.94.14.35.63.32.72-.04.99-3.96 4.37-17.8 4.03-20.21 0 0 11.35-2.25 22.17-10.22 2.2-1.62 4.59-3 7.13-4.02 13.59-5.41 16.44 3.82 16.44 3.82s9.42-1.81 12.26 11.27c1.07 4.9 1.8 12.75 2.4 18.24.04.39.57.47.73.11.95-2.17 8.14-20.62 2.37-36.25z" fill="#bdbdbd"/><path d="m90.92 11.55c-5.36-4.48-13.36-7.25-27.33-7.25-25.64 0-35.98 16.53-35.98 36.87 0 .08 2.42.25 2.91.29.06 0 .11.01.17.01l33.31-9.47s30.06 9.38 30.31 10.22l5.69 17.51c.31 1.04 1.26 1.75 2.35 1.75 1.29 0 2.36-1 2.45-2.29.18-2.87.48-8.01.62-12.9.2-7.43.86-21.91-14.5-34.74z" fill="url(#l)"/><ellipse cx="101.91" cy="63.86" fill="url(#m)" rx="6.75" ry="6.75"/><path d="m97.06 30.73c-.97-.7-15.42-8.72-34.98-8.72s-34.01 8.01-34.98 8.72c-4.02 2.91-4.34 7.49-1.86 11.86 1.42 2.52 4.76 1.98 5.32 1.4 0 0 13.49-5.51 31.53-5.51s31.52 5.51 31.52 5.51c.56.58 3.89 1.12 5.32-1.4 2.47-4.37 2.15-8.95-1.87-11.86z" fill="#f5f5f5"/><path d="m67.79 68.38c-.1-.04-.21-.07-.32-.08h-6.94c-.11.01-.21.04-.32.08-.63.25-.97.91-.68 1.6s1.68 2.64 4.46 2.64c2.79 0 4.17-1.95 4.46-2.64.31-.69-.03-1.34-.66-1.6z" fill="#99674f"/><path d="m96.24 103c-.8 1.87-5.27 4.58-10.09 6.49l-.08-2.37c0-6.09-1.08-11.33-6.49-14.19-1.14-.53-2.61-1.17-3.75-1.34 1.57-.79 4.13-2.27 5.82-3.25.51-.3 1.04-.43 1.57-.43 3.59 0 7.33 6.1 8.8 7.8 1.56 1.78 4.91 5.65 4.22 7.29z" fill="url(#n)"/><path d="m71.68 112.89c-1.83.18-4.65.34-6.5.34-.4 0-.79-.01-1.18-.01-.4 0-.78.01-1.19.01-14.49 0-29.27-6.02-31.05-10.21-.69-1.64 2.66-5.52 4.22-7.3 1.47-1.69 5.29-6.22 9.11-6.22.56 0 1.12.1 1.67.31 6.5 2.55 8.73 4.57 18.28 3.48 0 0 5.94 7.26 6.22 10.71.14 1.77.44 5.14.42 8.89z" fill="url(#o)"/><path d="m87.14 106.67c0-6.09-1.7-12.21-6.84-14.6-1.86-.86-3.77-1.19-5.6-1.19-5.75 0-10.39 2.5-10.39 2.5s5.96 7.31 6.24 10.77c.28 3.44.16 12.71.01 19.86h17.12z" fill="#fafafa"/></svg>