<svg enable-background="new 0 0 128 128" viewBox="0 0 128 128" xmlns="http://www.w3.org/2000/svg"><path d="m109.44 34.58c-10.76-8.62-25.91-10.36-45.25-10.36-19.21 0-34.27 1.67-45.03 10.18-16.26 12.89-20.64 41.86-10.11 60.41 10.19 17.95 23.7 25.64 55.14 25.64 31.45 0 46.58-8.9 55.15-25.64 9.67-18.88 6.16-47.38-9.9-60.23zm-52.16 43.14 5.09-6.33c.89-1.1 2.42-1.16 3.38-.12l6.08 6.57c.97 1.04.6 1.89-.83 1.89h-12.75c-1.43-.01-1.86-.92-.97-2.01zm-28.45-7.85 11.08-12.48c.64-.72 1.49-.6 1.89.27l6.72 14.36c.41.86-.04 1.49-.99 1.38l-18.13-2.04c-.94-.11-1.2-.78-.57-1.49zm67.39 15.9-4.83 15.88c-.34 1.1-1.37 1.55-2.29 1l-5.01-2.97c-.91-.55-2.4-.51-3.29.09l-6.49 4.34c-.9.6-2.32.53-3.16-.16l-5.36-4.35c-.84-.68-2.2-.66-3.02.06l-5.29 4.62c-.83.71-2.24.84-3.15.28l-6.75-4.16c-.91-.56-2.43-.61-3.38-.13l-5.43 2.79c-.94.48-2.03 0-2.4-1.08l-5.67-16.24c-.37-1.08.09-1.57 1.04-1.08l8.05 4.15c.95.48 2.36.25 3.15-.51l3.26-3.15c.78-.76 2.17-.91 3.08-.34l6.31 3.99c.9.57 2.32.46 3.14-.25l4.03-3.48c.81-.71 2.21-.77 3.08-.13l5.12 3.74c.87.65 2.31.67 3.2.07l4.79-3.28c.89-.61 2.31-.56 3.16.11l3.91 3.06c.85.67 2.28.74 3.19.14l5.98-3.93c.91-.6 1.37-.18 1.03.92zm2.91-14.65-18.07 2.47c-.95.13-1.41-.49-1.02-1.36l6.37-14.51c.38-.88 1.23-1.03 1.88-.32l11.38 12.22c.64.69.4 1.36-.54 1.5z" fill="#f57c00"/><path d="m54.738 24.422c-3.5966.14622-7.0665.36965-10.32.76758 1.7755.01746 3.5565.19224 5.3125.5 1.73.31 3.3503.73125 4.8203 1.2812.53.2 1.0288.43922 1.5488.69922-10.72.71-19.389 3.2298-25.959 10.26-14.08 15.04-18.34 41.47-9.9297 61.48 2.7915 6.6432 6.2192 11.862 10.52 15.857 2.4366 1.0335 5.0726 1.912 7.9551 2.627-7.2292-3.9556-12.401-10.288-16.266-19.494-8.05-19.13-4.0001-44.38 9.4199-58.73 5.69-6.09 13.219-8.5291 22.529-9.3691-2.03 1.63-3.8684 4.1398-5.3984 8.0098-5.88 14.89-7.6504 41.039-4.1504 60.809 1.7473 9.8475 4.1053 16.631 7.4316 20.875 1.1697.09425 2.3894.16471 3.6211.22852-4.0226-3.5409-6.7417-10.43-8.7129-21.533-3.43-19.37-1.71-44.91 4-59.41 2.94-7.41 6.8298-9.1801 12.09-9.3301.1 0 .18906.03125.28906.03125h.041016c.37 0 .76992-.01125 1.1699-.03125h.2793v.021484c.04 0 .071328-.021484.11133-.021484 5.14.22 8.9694 2.09 11.859 9.5 5.51 14.12 7.1697 39.04 3.9297 59.25-1.7043 10.742-4.6627 17.857-8.9297 21.523 1.2429-.06684 2.4862-.13259 3.6719-.23243 3.573-4.3705 6.1013-11.294 7.6387-20.891 3.29-20.61 1.5799-46.1-4.0801-60.6-1.56-3.99-3.4398-6.5609-5.5098-8.2109 9.45.83 17.109 3.3105 22.879 9.5605 12.94 13.97 16.82 38.62 9.25 58.59-3.3648 8.8747-8.6471 15.234-16.098 19.279 2.8375-.72429 5.4504-1.596 7.8691-2.6035 4.5291-4.0614 8.0103-9.2967 10.459-15.756 7.91-20.84 3.8-46.6-9.75-61.25-6.66-7.19-15.419-9.749-26.279-10.459.73-.23 1.4598-.45945 2.2598-.68945 2.19-.64 4.439-1.1201 6.709-1.3301.96-.09 1.9309-.021796 2.8809-.091797.41239-.026894.79604-.14558 1.209-.17969-3.4609-.47029-7.1592-.74243-11.018-.91211-.14153.039622-.27957.071995-.42188.11328-2.31.67-4.3407 1.3295-6.2207 2.0195-.27.1-.55938.23914-.85938.36914-.25.11-.53078.24008-.80078.33008-.31.07-.61922.14016-.94922.16016-.23 0-.4593-.009766-.7793-.009765-.02 0-.050078.009765-.080078.009765h-.75c-.75-.05-1.4905-.21969-2.3105-.42969l-.56055-.14062c-.62-.15-1.1502-.28836-1.6602-.56836-1.13-.66-2.1794-1.2514-3.3594-1.6914-.19155-.069438-.40554-.12125-.60156-.1875z" fill="#ff9800"/><path d="m58.61 26.89c-.06-1.05.06-2.15.06-3 0-2.69-1.41-4.92-3.27-6.75-1.56-1.54-4.22-2.48-5.58-4.06-.39-.46-.83-1.89-.75-2.45.34-2.4 2.39-5.03 4.87-5.45 1.31-.21 2.44.23 3.45.99 5.66 4.27 10.35 7.84 11.28 15.31.18 1.47.54 3 .53 4.52-.01 2.43-.74 3.29-3.16 3.92-1.63.43-4.69.63-6.2-.3-.87-.55-1.16-1.59-1.23-2.73z" fill="#2e7d32"/><g fill="#422b0d"><path d="m57.28 77.72 5.09-6.33c.89-1.1 2.42-1.16 3.38-.12l6.08 6.57c.97 1.04.6 1.89-.83 1.89h-12.75c-1.43-.01-1.86-.92-.97-2.01z"/><path d="m28.83 69.87 11.08-12.48c.64-.72 1.49-.6 1.89.27l6.72 14.36c.41.86-.04 1.49-.99 1.38l-18.13-2.04c-.94-.11-1.2-.78-.57-1.49z"/><path d="m96.22 85.77-4.83 15.88c-.34 1.1-1.37 1.55-2.29 1l-5.01-2.97c-.91-.55-2.4-.51-3.29.09l-6.49 4.34c-.9.6-2.32.53-3.16-.16l-5.36-4.35c-.84-.68-2.2-.66-3.02.06l-5.29 4.62c-.83.71-2.24.84-3.15.28l-6.75-4.16c-.91-.56-2.43-.61-3.38-.13l-5.43 2.79c-.94.48-2.03 0-2.4-1.08l-5.67-16.24c-.37-1.08.09-1.57 1.04-1.08l8.05 4.15c.95.48 2.36.25 3.15-.51l3.26-3.15c.78-.76 2.17-.91 3.08-.34l6.31 3.99c.9.57 2.32.46 3.14-.25l4.03-3.48c.81-.71 2.21-.77 3.08-.13l5.12 3.74c.87.65 2.31.67 3.2.07l4.79-3.28c.89-.61 2.31-.56 3.16.11l3.91 3.06c.85.67 2.28.74 3.19.14l5.98-3.93c.91-.6 1.37-.18 1.03.92z"/><path d="m99.13 71.12-18.07 2.47c-.95.13-1.41-.49-1.02-1.36l6.37-14.51c.38-.88 1.23-1.03 1.88-.32l11.38 12.22c.64.69.4 1.36-.54 1.5z"/></g></svg>