<svg enable-background="new 0 0 128 128" viewBox="0 0 128 128" xmlns="http://www.w3.org/2000/svg"><path d="m63.32 91.8s-17.21-1.37-29.07 6.92c-8.56 5.98-12.19 11.25-12.19 11.25l29.97 13.78 41.88.05s14.65-.12 14.89-1.41-5.27-12.07-13.13-19.81c-7.85-7.74-18.4-10.08-18.4-10.08s-13.95-.7-13.95-.7z" fill="#e0e0e0"/><path d="m9.05 122.91s-9.42-14.39-.58-22.71 27.42 2.19 35.1 10.19c6.83 7.12 9.23 12.97 8.45 13.36s-42.2-.32-42.97-.84z" fill="#f2a259"/><path d="m45.59 120.83-1.02-.55s-2.82-.63-4.19 1.47c-.58.88-.28 2.05-.28 2.05l2.09.02 3.4-3z" fill="#e07f14"/><path d="m42.13 123.83s-.79-3.44 1.62-3.57c3.99-.23 4.79 3.61 4.79 3.61s-2.24.01-3.5.02-2.91-.06-2.91-.06z" fill="#ffed5a"/><path d="m22.24 107.41-9.54-4.08s-2.36 2.03-.67 4.48c.73 1.06 2.95 1.76 4.14 2.59s3.13 2.09 4.99 2.06c2.93-.05 3.51-3.58 3.51-3.58l-2.42-1.47z" fill="#c62727"/><path d="m12.41 103.76c-1.23 2.83 2.67 3.4 4.84 4.37 2.46 1.11 5.51 4.76 7.1 1.65s-1.8-5.4-4.22-6.74-6.91-1.14-7.72.72z" fill="#f44236"/><path d="m21.11 122.59-7.56-7.15s-2.77 1.63-1.3 4.79c.97 2.09 2.54 3.03 2.54 3.03s1.79.09 2.55.13 2.96.06 2.96.06.81-.86.81-.86z" fill="#00579c"/><path d="m24.64 123.54s.05-3.73-4.04-6.51c-4.63-3.14-6.22-2.06-7.05-1.59s-1.19 2.66 1.73 5.58c2.16 2.16 3.88 2.41 3.88 2.41l5.48.12z" fill="#2885c6"/><path d="m71.71 116.65-.01 7.11h3.49l.02-6.41z" fill="#b0b0b0"/><path d="m99.9 103.08s-2.18 3.93-4.03 9.34c-2.44 7.12-3.16 11.38-3.16 11.38s3.31.32 5.68.32c4.42 0 6.68-.76 6.68-.76s2.07-3.52 3.37-7.76c1.31-4.23 2.26-8.09 2.26-8.09l-8.92-4.67z" fill="#1465c0"/><path d="m106.55 88.34s-1.4.58-2.76 4.09c-.64 1.66-1.27 3.98-1.27 3.98s-1.42.77-2.2 2.78-.43 3.88-.43 3.88 1.38 1.34 4.99 2.67c3.62 1.33 5.81 1.74 5.81 1.74s1.45-.76 2.45-3.83c.55-1.68.23-3.73.23-3.73s.88-1.9 1.51-3.34c.64-1.44 1.67-4.4 1.52-4.93s-9.86-3.32-9.86-3.32z" fill="#bdbdbd"/><path d="m111.62 75.82-4.78 2.89s-6.08 8.47 3.29 12.56c11.47 5 13.46-6.68 13.16-10.27-.28-3.38 0-3.39 0-3.39l-3.19-6.28-8.47 4.49z" fill="#c67100"/><path d="m109.53 75.92s-2.09 2.09-2.69 2.79-.9 6.98 4.49 8.87c5.82 2.05 8.67-2.29 8.67-3.69s0-8.57-.2-10.67-10.27 2.69-10.27 2.7z" fill="#f09300"/><path d="m114.51 77.32s-2.99 4.09-1.4 4.98c1.59.9 6.18-8.17 6.18-8.17s-4.78 3.19-4.78 3.19z" fill="#c67100"/><path d="m40.62 96.31-.34-4.7s1.57-1.13 3.62-1.68c2.55-.68 3.21-.69 3.21-.69s1.2-3.25 5.38-3.82c3.82-.52 25.24 1.59 25.24 1.59s10.32 3.52 9.74 8.68c-.47 4.25-4.69 3.99-4.69 3.99l8.15 15.5s-1.95 0-5.14-1.59-7.71-3.54-7.71-3.54l-1.06 9.21-6.55-5.4-2.21-7.35s.8-2.39 1.95-3.45-5.49-2.21-5.49-2.21l-24.09-4.52z" fill="#007d33"/><path d="m52.22 90.56s2.04 4.69 11.78 4.78c8.77.08 10.1-3.72 10.1-3.72l-.09-4.69h-21.7s-.09 3.63-.09 3.63z" fill="#e59502"/><path d="m61.43 106.34c-2.68.25-3.3 2.08-3.24 3.72s1.71 3.11 3.42 3.11 3.66-1.04 3.66-3.24-1.22-3.85-3.84-3.59z" fill="#9a9a9a"/><g fill="#02ab47"><path d="m68.25 106.5s-1.68 3.81 0 6.91 7.97 6.64 9.03 7.26 2.04.44 2.3-.97-.18-6.38-.27-7.79-1.59-4.25-2.48-4.25.97 7.98-1.77 7.79c-1.95-.13-1.66-3.52-2.92-5.4-1.77-2.66-3.9-3.54-3.9-3.54z"/><path d="m82.78 99.68s.18 1.15-.09 2.21-.97 2.66-.97 2.66 3.19 3.72 5.05 5.67 4.16 4.96 4.16 4.96.8-.18.71-2.66.04-6.07-3.28-9.83c-2.66-3.01-5.58-3.01-5.58-3.01z"/><path d="m67.9 98.79s.27-2.92.71-3.81 1.33-1.77 2.92-1.77 6.93 1.01 7.26 6.02c.05.71-.44 4.07-2.3 5.49s-4.69.71-5.85.18-2.04-1.24-3.19-1.42-14.17-.27-22.41-2.66-7.37-5.36-7-6.38c.77-2.13 2.26-2.87 2.26-2.87s3.25 3.72 9.34 5.26c8.41 2.13 18.25 1.95 18.25 1.95z"/></g><path d="m116.71 65.16c-2.39.1-1 2.89-2.79 5.28s-3.99 2.29-5.08 4.09-.8 3.19 1.1 3.79 4.39.1 6.18-1.1 2.09-2.29 3.69-1.99 3.39 2.19 3.39 2.19.6-4.68-1.69-8.17c-.93-1.42-3.08-4.16-4.78-4.09z" fill="#2a85c6"/><path d="m105.64 96.15c1.84.85 2.51-1.47 2.95-2.43s.78-2.69-.35-3.12-2.08.95-2.6 2.08-1.13 2.95 0 3.47z" fill="#eee"/><path d="m104.83 101.11c-1.37-.74-3.05-1.77-3.61-.41-.48 1.19.79 1.83 2.61 2.61s3.29 1.04 3.64.35-1.52-1.94-2.64-2.55z" fill="#eee"/><path d="m103.3 97.87c-.63 1.26 1.78 2.66 5.1 3.87 3.46 1.26 4.91 1.38 4.91 1.38s.29-1.15.25-1.85-.26-1.08-.26-1.08-1.55-.17-4.41-1.19c-1.7-.61-5.03-2.2-5.59-1.13z" fill="#9e9e9e"/><path d="m101.22 107.18c-.61-.3-1.6.48-3.12 5.04-1.42 4.24-2.15 6.62-1.23 6.92s1.56-.31 3.48-5.9c1.58-4.58 1.53-5.73.87-6.06z" fill="#2096f3"/><g fill="#fff"><path d="m13.2 105.1c.23.58 1.41-.06 2.28-.4 1.44-.57 2.2-.59 1.99-1.4s-1.58-.65-2.68-.21-1.98 1.01-1.59 2.01z"/><path d="m13.86 117.03c-.07 1.05 1.17 1.03 2.29.97s1.73-.3 1.67-1.15-.98-.85-2.12-.85c-.95 0-1.78.18-1.84 1.03z"/><path d="m43.79 121.61c-.24.65 0 .98 1.08 1.18s1.39-.05 1.49-.57-.52-.98-1.13-1.08-1.29.05-1.44.46z"/></g><path d="m32.58 108.45-2.43.9s-3.15 2.66.32 6.16c2.83 2.86 5.58 2.87 7.14 2.26 1.15-.45 1.92-1.17 2.1-2.3.32-1.96-1.59-4.22-1.59-4.22z" fill="#548b2e"/><path d="m30.57 108.9c-1.33 1.1-.94 3.28 1.18 5.45s4.51 2.45 6.43 1.13.67-4.37-2.11-6.17-4.63-1.13-5.5-.41z" fill="#7db343"/><path d="m31.09 111.68c.62.68 1.65.15 2.21-.46s.62-1.29.05-1.75-1.34-.26-2.06.41-.72 1.23-.21 1.8z" fill="#fff"/><path d="m89.68 72.86s8.32.08 9.91-8.44c1.68-8.99-4.79-10.46-4.79-10.46s-5.12 18.9-5.12 18.9z" fill="#e39503"/><path d="m33.3 55.52s-8.25-1.09-5.64 9.17c2.27 8.92 10.77 8.16 10.77 8.16s-5.13-17.33-5.13-17.33z" fill="#e39503"/><path d="m61.85 71.75-28.14-10.04s-5.83-19.33-.09-33.93c4.56-11.6 14.76-18.82 29.04-19.15 15.26-.35 25.89 6.16 30.83 18.01 5.96 14.31-.29 34.84-.29 34.84l-31.35 10.26z" fill="#62453b"/><path d="m40.12 37.54c-1.35.86-1.25 12.4-2.02 17.37-.81 5.24-4.43 6.71-4.43 6.71s1.93 7.68 4.98 13.52c4.18 8.03 12.54 16.25 25.41 16.26 10.72 0 16.9-5.69 20.98-10.62 6.07-7.32 8.15-19.28 8.15-19.28s-2.13-1.68-3.63-6.59c-1.75-5.72-1.46-16.89-3-17.94s-10-.38-24.04-.19c-11.14.15-21.06-.1-22.4.76z" fill="#ffca26"/><path d="m64.08 66.06c-2.7.05-3.72-.87-4.67.11-.88.89-.09 2.16 1.36 3.29 1.98 1.54 5.04 1.48 6.63.06 1.57-1.41 2.25-2.6 1.24-3.46s-1.8-.05-4.56 0z" fill="#e59700"/><path d="m42.29 49.29c.7 1.14 3.08-.65 6.87-.76 3.1-.09 5.8 2.12 6.43.11.76-2.38-1.78-3.41-6.38-3.19-4.7.22-7.86 2.32-6.92 3.84z" fill="#6d4c3f"/><path d="m72.08 49.16c1.57.43 2.76-.7 5.95-.49 2.98.2 5.89 1.51 6.76.54s-1.36-3.31-6.27-3.79c-4.43-.43-7.14.76-7.46 1.73s.38 1.82 1.03 2z" fill="#785446"/><path d="m49.1 52.54c-3.62-.05-5.03 3.08-4.81 5.3s1.89 4.33 5.08 4.27c3.03-.05 4.7-2.05 4.7-4.7s-1.62-4.82-4.97-4.87z" fill="#3f4040"/><path d="m78.13 52.43c-2.7-.29-5.19 1.62-5.08 4.87.12 3.62 3.3 4.76 5.03 4.76 2.49 0 4.49-1.84 4.54-4.49.05-2.97-1.46-4.81-4.49-5.14z" fill="#3f4040"/><path d="m64.44 75.41c-3.94 0-7.9-2.04-8.79-.72-.39.58-.27 1.72.95 2.78 1.42 1.23 4.22 2.35 7.68 2.37 7.28.04 9.66-3.95 8.73-5.15s-4.04.72-8.57.72z" fill="#785446"/><path d="m78.28 26.92-20.03 6.72s12.39-.28 22.14 1c9.12 1.2 13.19 5.19 15.5 5.19s2.83-2.09 3.34-4.49 1.27-5.96 1.27-5.96l-22.23-2.45z" fill="#373c3f"/><path d="m47.4 27.55-21.6 7.17s.17 2.43 1.41 4.33c1.24 1.91 3.85 3.06 3.85 3.06s9.65-4.44 19.02-6.56c8.91-2.03 13.07-2.62 17.09-3.52 5.24-1.17 12.27-2.35 18.98-2.45s14.36-.21 14.36-.21.84-3.31.63-7.04-53.74 5.22-53.74 5.22z" fill="#2f2f2f"/><path d="m25.4 24.32-11.53 2.39s-2.32 7.2 11.46 8.33 28.21-2.79 34.11-4.75c5.91-1.97 8.56-4.04 18.83-4.98 6.32-.58 19.73.58 24.43-1.56 3.36-1.53 4.4-5.82 4.4-8.91s-1.13-5-1.13-5l-49.64 4.36-30.94 10.13z" fill="#464c4f"/><path d="m13.87 26.71c-.36-1.21-1.27-10.97 41.34-19.13 19.68-3.77 34.55-3.97 41.77-2.67 8.41 1.51 9 4.92 9 4.92s-1.97 4.36-9 5.34-25.03-.98-34.74 2.11c-9.7 3.09-15.47 7.31-26.72 9.56s-20.53 3.66-21.66-.14z" fill="#5e6367"/><path d="m56.43 4.13c-2.88.85-2.89 3.75-2.52 4.86s1.72 2.83 4.62 2.22c2.89-.62 3.26-3.26 3.02-4.31s-1.54-3.82-5.12-2.77z" fill="#464c4f"/></svg>