<svg enable-background="new 0 0 128 128" viewBox="0 0 128 128" xmlns="http://www.w3.org/2000/svg" xmlns:xlink="http://www.w3.org/1999/xlink"><radialGradient id="a" cx="77.84" cy="113.19" gradientTransform="matrix(-.0349 -.9994 1.9051 -.0666 -135.07 198.52)" gradientUnits="userSpaceOnUse" r="101.84"><stop offset=".5533" stop-color="#92bdcc"/><stop offset=".6221" stop-color="#b9d5de"/><stop offset=".7318" stop-color="#fff"/></radialGradient><radialGradient id="b" cx="66.47" cy="139.58" fx="63.68" fy="139.81" gradientTransform="matrix(.1098 -.994 1.9081 .2107 -207.15 176.23)" gradientUnits="userSpaceOnUse" r="86.39"><stop offset=".5929" stop-color="#a1c3ce"/><stop offset=".61" stop-color="#a8c8d2"/><stop offset=".7078" stop-color="#cee0e5"/><stop offset=".7986" stop-color="#e9f1f3"/><stop offset=".8789" stop-color="#f9fbfc"/><stop offset=".9402" stop-color="#fff"/></radialGradient><radialGradient id="c" cx="68.79" cy="149.25" gradientTransform="matrix(-.0077 -1 2.0753 -.0159 -240.43 220.41)" gradientUnits="userSpaceOnUse" r="135.89"><stop offset=".1314" stop-color="#fff"/><stop offset=".8478" stop-color="#fff" stop-opacity="0"/></radialGradient><radialGradient id="d" cx="17.72" cy="130.79" gradientTransform="matrix(.164 -.9865 1.3475 .224 -161.44 118.98)" gradientUnits="userSpaceOnUse" r="81.63"><stop offset=".1577" stop-color="#c0d0d5"/><stop offset=".5784" stop-color="#fafbfb"/><stop offset="1" stop-color="#fafbfb" stop-opacity="0"/></radialGradient><radialGradient id="e" cx="70.55" cy="51.23" gradientUnits="userSpaceOnUse" r="79.85"><stop offset=".0523" stop-color="#fafbfb" stop-opacity="0"/><stop offset=".5714" stop-color="#fafbfb"/><stop offset=".7181" stop-color="#eef2f3"/><stop offset=".9192" stop-color="#d6e1e3"/></radialGradient><path d="m116.62 124.26h-105.3c-4.15 0-7.52-3.37-7.52-7.52v-105.3c0-4.15 3.37-7.52 7.52-7.52h105.3c4.15 0 7.52 3.37 7.52 7.52v105.3c.01 4.15-3.36 7.52-7.52 7.52z" fill="#aed0d7"/><path d="m116.62 124.26h-105.3c-4.15 0-7.52-3.37-7.52-7.52v-105.3c0-4.15 3.37-7.52 7.52-7.52h105.3c4.15 0 7.52 3.37 7.52 7.52v105.3c.01 4.15-3.36 7.52-7.52 7.52z" fill="#aed0d7"/><path d="m3.82 46.32-.07 23.13 120.4-7.31.16-41.9s-5.59-4.5-14.28-1.86-10.4 7.91-10.4 7.91-8.65-2.84-17.69 1.09c-11.8 5.12-16.46 16.13-16.46 16.13s-11.79-4.04-25.14-3.88c-18.89.24-36.52 6.69-36.52 6.69z" fill="url(#a)"/><path d="m42.23 59.4s8.03-3.78 18.97-4.23c7-.29 15.32 2.33 15.32 2.33s6.86-3.79 24.37-2.63c17.51 1.17 23.26 4.83 23.26 4.83l.01 39.24-120.38-3.34.02-36.5s9.99-2.18 22.68-1.75c9.91.35 15.75 2.05 15.75 2.05z" fill="url(#b)"/><g fill="#b11f2b"><path d="m124.17 61.85c-.27-.13-6.63-3.13-10.93-5.94-3.82-2.49-11.73-8.67-21.46-17.89-7.92-7.51-14.52-18.57-14.8-19.04l2.06-1.22c.07.11 6.72 11.25 14.39 18.52 9.61 9.11 17.38 15.18 21.12 17.62 4.16 2.71 9.53 5.2 9.59 5.23z"/><path d="m106.02 99.6-2-.02.28-51.19 2 .02z"/><path d="m86.55 63.41h52.27v2h-52.27z" transform="matrix(.002 -1 1 .002 48.06 176.97)"/><path d="m110.04 67.81h20.36v2h-20.36z" transform="matrix(.0049 -1 1 .0049 50.83 188.69)"/><path d="m24.47 82.59h17.95v2h-17.95z" transform="matrix(.0205 -.9998 .9998 .0205 -50.81 115.31)"/><path d="m8.99 77.06h27.34v2h-27.34z" transform="matrix(.0205 -.9998 .9998 .0205 -55.84 99.11)"/><path d="m43.65 98.34-2-.02.37-44.91 2 .02z"/><path d="m53.78 104.01-2-.02.18-39.61 2 .02z"/><path d="m61.01 37.55h2v69.59h-2z"/><path d="m69.26 51.32h2v49.87h-2z" transform="matrix(1 -.0026 .0026 1 -.2 .18)"/></g><path d="m124.18 48.83c-.06-.04-6.68-4.94-12.69-10.12-4.04-3.48-8.67-8.24-11.26-11.2-4.31-4.92-6.88-8.68-6.99-8.84l1.99-1.35c.03.04 2.6 3.81 6.81 8.61 2.54 2.89 7.07 7.56 11.02 10.96 5.94 5.11 11.08 8.87 11.14 8.91z" fill="#ff2d26"/><path d="m78.43 17.02s4.7-.13 4.73-.04c.12.43.18 78.52.18 78.52l-7.91 3.21z" fill="#b01522"/><path d="m93.41 17.13s4.13-.07 4.21 0c.42.32.28 25.22.28 25.22h.83v55.54l-4.91-5.19z" fill="#b01522"/><path d="m95.86 42.53h-1.39l-.04-25.41-4.23-.06-.02 2.78s-1.58 1.59-5.01 1.69c-3.43.09-4.82-2.13-4.82-2.13l-.03-2.4-5.16.04-.06 25.49-.98.06.05 7.27v42.84l.09 16.68 6.4-4.91-.09-33.74 9.09-.09v31.16l6.21.28v-52.22-7.33zm-15.57-13.53c.19-.37 9.74-.09 9.74-.09l-.09 13.63h-9.64v-13.54zm9.64 34.21h-9.64v-13.35h9.64z" fill="#ff2d26"/><path d="m95 17.09s.32-3.23-1.65-3.2c-1.83.02-1.45 3.24-1.45 3.24s.78.02 1.66 0c1-.02 1.44-.04 1.44-.04z" fill="#dd0c29"/><path d="m79.48 13.84c-1.78.02-1.49 3.22-1.49 3.22s.81-.02 1.58-.02c.76 0 1.49-.04 1.49-.04s.32-3.18-1.58-3.16z" fill="#dd0c29"/><path d="m3.78 84.4.03-2.53c.06-.01 8.82-1.45 11.5-2.34.31-.1.84-.25 1.55-.46 5.79-1.65 23.41-6.67 43.05-20.31 21.63-15.02 31.07-40.17 31.17-40.42l2.25.83c-.09.26-9.78 26.1-32.05 41.57-19.97 13.86-37.88 18.96-43.77 20.63-.67.19-1.15.33-1.45.43-2.83.95-12.03 2.55-12.28 2.6z" fill="#ff2d26"/><path d="m3.76 70.86v-2.35c.17 0 15.7-.17 39.12-16.72 8.67-6.12 20.59-16.75 25.52-22.74 5.64-6.86 5.89-8.53 6.64-10.27 0 0 .31-1.55 1.17-1.74.21-.05 1.71-.03 1.71-.03-.16.55-1.8 6.43-7.66 13.56-5.03 6.12-17.18 16.96-25.98 23.18-24.12 17.04-39.79 17.11-40.52 17.11z" fill="#b11f2b"/><path d="m116.62 124.26h-105.3c-4.15 0-7.52-3.37-7.52-7.52v-105.3c0-4.15 3.37-7.52 7.52-7.52h105.3c4.15 0 7.52 3.37 7.52 7.52v105.3c.01 4.15-3.36 7.52-7.52 7.52z" fill="url(#c)"/><path d="m99.52 124.26h-88.2c-4.15 0-7.52-3.37-7.52-7.52l-.04-40.41s6.22-3.77 16.68-.83c10.46 2.93 16.51 12.1 16.51 12.1s7.03-5.97 18.71-3.12c15.05 3.67 23.49 22.2 23.49 22.2z" fill="url(#d)"/><path d="m124.15 73.21v43.53c0 4.15-3.37 7.52-7.52 7.52h-83.5s4.13-16.53 20.28-26.29c14.17-8.57 24.27-5.42 24.27-5.42s9.43-16.02 24.04-20.03 22.43.69 22.43.69z" fill="url(#e)"/></svg>