<svg enable-background="new 0 0 128 128" viewBox="0 0 128 128" xmlns="http://www.w3.org/2000/svg"><path d="m38.25 74.8-30.81 8.8s5.97 17.52 27.29 17.08 26.7-15.18 26.7-15.18l10.78 4.45s3.62 9.7 19.41 11.03c17.5 1.47 25.98-12.48 25.98-12.48s-20.68-18.85-23.62-18.85-55.73 5.15-55.73 5.15z" fill="#606265"/><path d="m32.22 118.62s-.29 1.47-.29 2.65-.44 2.06 1.32 2.35 60.87.29 62.34.29 1.51-1.99 1.51-2.72c0-1.44-.48-2.57-.48-2.57l-32.35-8.09z" fill="#606265"/><path d="m64.42 3.2c-19.41 0-28.2 16.91-27.94 28.38.32 14.17 9.41 18.67 8.53 20-.88 1.32-5.96-5.88-19.7-2.79-10.96 2.46-21.29 11.75-19.7 27.2 1.27 12.32 9.02 21.72 28.23 20.14 12.5-1.03 17.64-7.35 19.41-9.12s4.37-5.72 5.29-3.82c.57 1.18-.01 11.5-.08 15.03-.06 2.92-1.88 5.99-4.33 8.01-3.34 2.75-7.85 3.87-10.17 4.59-4.34 1.33-7.63 1.73-9.33 3.43-2.06 2.06-2.41 4.38-2.41 4.38h64.4s-1.02-3.12-4.85-5.32c-4.93-2.83-10.26-3.6-13.49-5.36s-4.95-3.43-5.33-5.64-.45-16.37-.46-18.81c-.01-1.84 1.49-.84 2.59 1.05.8 1.37 8.31 13.06 24.04 12.62s22.5-9.85 22.35-23.82-9.23-20.63-18.67-22.35c-9.75-1.78-17.06 2.5-17.79 1.47-.74-1.03 7.84-7.25 7.79-20.58-.04-11.64-8.67-28.69-28.38-28.69z" fill="#464c4f"/></svg>