<svg enable-background="new 0 0 128 128" viewBox="0 0 128 128" xmlns="http://www.w3.org/2000/svg" xmlns:xlink="http://www.w3.org/1999/xlink"><radialGradient id="a" cx="179.33" cy="746.29" gradientTransform="matrix(.9823 .1874 -.1591 .8341 59.151 -628.24)" gradientUnits="userSpaceOnUse" r="10.97"><stop offset=".0029297" stop-color="#90a4ae"/><stop offset=".4219" stop-color="#b0bec5"/><stop offset=".8419" stop-color="#eceff1"/></radialGradient><linearGradient id="b" gradientTransform="matrix(-.9242 -.382 -.382 .9242 -73.707 -728.54)" gradientUnits="userSpaceOnUse" x1="-463.7" x2="-464.57" y1="621.58" y2="626.48"><stop offset="0" stop-color="#eceff1"/><stop offset=".9354" stop-color="#b0bec5"/></linearGradient><linearGradient id="c"><stop offset="0" stop-color="#eceff1"/><stop offset="1" stop-color="#b0bec5"/></linearGradient><linearGradient id="d" gradientUnits="userSpaceOnUse" x1="93.817" x2="98.663" xlink:href="#c" y1="68.09" y2="115.84"/><linearGradient id="e" gradientUnits="userSpaceOnUse" x1="75.196" x2="57.649" xlink:href="#c" y1="76.48" y2="116.91"/><linearGradient id="f" gradientUnits="userSpaceOnUse" x1="72.762" x2="63.628" xlink:href="#c" y1="42.98" y2="59.03"/><linearGradient id="g" gradientUnits="userSpaceOnUse" x1="50.609" x2="66.07" xlink:href="#c" y1="52.3" y2="63.83"/><linearGradient id="h" gradientTransform="matrix(.9595 .2818 -.2818 .9595 106.46 -659.89)" gradientUnits="userSpaceOnUse" x1="187.9" x2="204.69" xlink:href="#c" y1="675.59" y2="680.96"/><linearGradient id="i" gradientUnits="userSpaceOnUse" x1="116.86" x2="111.54" y1="32.28" y2="53.29"><stop offset="0" stop-color="#b0bec5"/><stop offset=".5212" stop-color="#cfd8dc"/><stop offset="1" stop-color="#b0bec5"/></linearGradient><linearGradient id="j" gradientUnits="userSpaceOnUse" x1="86.071" x2="86.071" y1="11.96" y2="34.23"><stop offset=".5453" stop-color="#ffca28"/><stop offset=".834" stop-color="#ffb300"/><stop offset=".9947" stop-color="#e59600"/></linearGradient><linearGradient id="k" gradientUnits="userSpaceOnUse" x1="73.592" x2="98.414" y1="22.5" y2="22.5"><stop offset="0" stop-color="#eda600"/><stop offset=".8708" stop-color="#d18900"/></linearGradient><radialGradient id="l" cx="83.7" cy="11.49" gradientUnits="userSpaceOnUse" r="12.764"><stop offset="0" stop-color="#6d4c41"/><stop offset="1" stop-color="#543930"/></radialGradient><linearGradient id="m" gradientUnits="userSpaceOnUse" x1="71.15" x2="71.15" xlink:href="#c" y1="67.02" y2="116.09"/><linearGradient id="n" gradientUnits="userSpaceOnUse" x1="91.109" x2="95.257" xlink:href="#c" y1="72.39" y2="113.25"/><linearGradient id="o" gradientUnits="userSpaceOnUse" x1="84.144" x2="85.132" xlink:href="#c" y1="27.38" y2="67.12"/><linearGradient id="p"><stop offset="0" stop-color="#cfd8dc"/><stop offset="1" stop-color="#90a4ae"/></linearGradient><linearGradient id="q" gradientUnits="userSpaceOnUse" x1="58.803" x2="58.803" xlink:href="#p" y1="114.85" y2="122.26"/><linearGradient id="r" gradientUnits="userSpaceOnUse" x1="100.78" x2="100.78" xlink:href="#p" y1="113.62" y2="122.03"/><path d="m41.3 48-36.8-4.3v.7l36.5 5.6z" fill="#ffb300"/><path d="m41 50.5c-.1 0-.1 0 0 0l-36.6-5.6c-.2 0-.4-.2-.4-.5v-.7c0-.1.1-.3.2-.4s.2-.1.4-.1l36.8 4.2c.1 0 .3.1.3.2s.1.2.1.4l-.3 2c-.1.3-.3.5-.5.5zm-28.7-5.4 28.3 4.3.2-1c-.1 0-28.5-3.3-28.5-3.3z" fill="#e69200"/><path d="m35.7 48c-.4 3.2.1 5.9 1.2 6.1s2.4-2.3 2.8-5.5-.1-5.9-1.2-6.1-2.3 2.3-2.8 5.5z" fill="#ffb300"/><path d="m37.1 54.6h-.2c-.5-.1-1.3-.5-1.6-2.3-.2-1.2-.3-2.8 0-4.3.4-3.1 1.7-6.2 3.4-6s2.1 3.5 1.7 6.6c-.2 1.6-.6 3.1-1.2 4.2-.8 1.4-1.6 1.8-2.1 1.8zm-.9-6.5c-.2 1.5-.2 2.9 0 4 .2 1 .5 1.5.8 1.5.2 0 .7-.3 1.1-1.2.5-1 .9-2.4 1.1-3.9.5-3.5-.2-5.5-.7-5.5-.6 0-1.8 1.7-2.3 5.1z" fill="#e69200"/><path d="m96.7 119.6h6.1l-.9-23.8-10.4 1.4z" fill="url(#d)"/><path d="m67.2 121.3h-6.3l-5.2-26.3 11.1-.2z" fill="url(#e)"/><path d="m59.3 57.5 5.9 4.2 11.9-17.2-7.3-5z" fill="url(#f)"/><path d="m64.3 57.1c-.4-.4-.8-.6-1.3-.8l-15.9-9-3.4 5.3 15.8 10 .9.6h.1c.4.2.8.3 1.2.3 2 .1 3.8-1.5 3.9-3.5 0-1.2-.5-2.2-1.3-2.9z" fill="url(#g)"/><path d="m61.9 64.5h-.2c-.5 0-.9-.1-1.4-.3-.1 0-.2-.1-.3-.1-.3-.1-.7-.4-1-.6l-15.7-10c-.2-.1-.4-.4-.4-.6s0-.5.1-.8l3.4-5.3c.3-.4.9-.6 1.3-.3l12.7 7.2 8.5-14.7c.1-.2.4-.4.6-.5s.6 0 .8.2l7.4 5c.2.2.4.4.4.7.1.3 0 .5-.2.8l-11.9 17c-.1.1-.2.3-.4.3-.9 1.3-2.2 2-3.7 2zm-1.1-2.3c.4.2.7.2 1 .2 1 .1 2-.5 2.5-1.4.1-.2.3-.3.5-.4l11.1-15.9-5.7-3.8-8.5 14.6c-.3.5-.9.6-1.4.4l-12.8-7.2-2.3 3.7 14.8 9.4s.1 0 .1.1c.2.1.4.2.7.3z" fill="#90a4ae"/><path d="m110.4 55.9 3.7-6.7-15.5-12-3.7 8.7z" fill="url(#h)"/><path d="m115.5 52.5 4.3-19.2-6.2-.7-5.1 18.1c-.1.2-.2.5-.3.7-.1.3-.2.7-.2 1 0 1.6.9 3.1 2.5 3.6 1.8.6 3.6-.3 4.4-1.9v-.1c.1-.1.1-.2.2-.4.4-.4.4-.8.4-1.1z" fill="url(#i)"/><path d="m111.8 57.1c-.5 0-.9-.1-1.4-.2-.2 0-.3 0-.5-.1l-.4-.2c-.1 0-.2-.1-.3-.2l-14.9-9.6c-.4-.3-.6-.8-.4-1.2l3.7-8.7c.1-.3.4-.5.7-.6s.6 0 .9.2l10.2 8 3.6-12.9c.1-.5.6-.8 1.1-.7l6.1.7c.3 0 .5.2.7.4s.2.5.2.8l-4.5 19.9c0 .5-.1.9-.2 1.3-.1.1-.1.3-.2.4 0 .2-.1.3-.2.4-.9 1.4-2.5 2.3-4.2 2.3zm-1.1-2.3h.2s.1 0 .2.1c1.2.4 2.6-.2 3.2-1.4l.1-.2s.1-.1.1-.2c.1-.2.1-.5.1-.8v-.2l4.3-18.9-4.2-.5-3.7 13.5c-.1.3-.3.6-.7.7-.3.1-.7 0-.9-.2l-10.4-8-2.9 6.8 14.2 9.1c.1.1.2.1.3.2z" fill="#90a4ae"/><path d="m97.6 13.1c-1.7-4.3-6.9-7-11.5-7-6.4 0-11.8 3.9-11.8 10.7l.3 3c.3 2.3-.3 3.1-.7 4.6-.4 1.2-.3 3.4 1 5.1 1.1 1.4 3.8 3.3 5.3 3.3 2.1 0 2.8.3 3.1 1.9l.5 4.2h7.4l.4-6.1c.2-2.4 1.5-4.5 3.6-5.8 2.8-1.6 4.3-9 2.4-13.9z" fill="url(#j)"/><path d="m86.1 7.1c4.5 0 9.1 2.7 10.5 6.4 1.8 4.6.4 11.4-2 12.8-2.3 1.4-3.8 3.9-4.1 6.5l-.3 5.2h-5.6l-.4-3.3v-.1c-.5-2.5-2.2-2.7-4.1-2.7-1 0-3.5-1.6-4.5-2.9-1.1-1.4-1.2-3.2-.9-4.2l.3-.9c.4-1.1.8-2.1.5-4.2l-.3-2.9c0-6.6 5.6-9.7 10.9-9.7m0-1c-6.4 0-11.9 3.9-11.9 10.7l.3 3c.3 2.3-.3 3.1-.7 4.6-.4 1.2-.3 3.4 1 5.1 1.1 1.4 3.8 3.3 5.3 3.3 2.1 0 2.8.3 3.1 1.9l.5 4.2h7.4l.4-6.1c.2-2.4 1.5-4.5 3.6-5.8 2.9-1.8 4.4-9.2 2.4-14.1-1.6-4-6.8-6.8-11.4-6.8z" fill="url(#k)"/><path d="m85.7 22.6c.1.7.1 2 1.6 2.8l2.3-4.4.1.1c1.5 1 1.9 2.9 1.1 4.5l-.4.7c-.6 1.7.1 4.7 1.8 5h.2c1.2-3.3 5-2.9 6.7-11.5 1.3-6.4-1.6-12-9.8-13.7-7.8-1.6-14.8 1.7-15.3 9.4l6.6 2.5c1.4.3 2.7 1.1 3.6 2.2.8.7 1.4 1.6 1.5 2.4z" fill="url(#l)"/><ellipse cx="81.6" cy="24.2" fill="#404040" rx="1.3" ry="2"/><path d="m98.2 11.6c-.8-1.5-2.1-2.7-3.8-3.7-1.4-.8-3-1.5-5-1.9-.3-.1-.6-.1-.9-.1-1-.2-2-.2-2.9-.2h-1.1c-.4 0-.8.1-1.1.1-.7.1-1.4.2-2.1.5-.3.1-.7.2-1 .3s-.6.3-.9.4c-.3.2-.6.3-.9.5s-.5.4-.8.6c-.8.6-1.4 1.3-2 2.2-.2.3-.3.6-.5.9-.2.5-.4.9-.6 1.5-.3.8-.5 1.8-.5 2.8l.4.2 1.3.5.4-1.9.1-.3c1-4 4.3-6.2 9.3-6.2 1.1 0 2.2.1 3.4.4 6.5 1.3 9.5 5.5 8.3 11.4-1 4.9-2.6 6.4-4.1 7.8-.3.3-.6.5-.9.8l-.1.2-1.3 2c.4.5.8.9 1.4 1h.2c1.2-3.3 5-2.9 6.7-11.5.6-3.2.3-6-1-8.3z" fill="#402821"/><path d="m81.1 21.4c-1.1-.2-1.8-.5-1.4-1.1.6-.9 2.2-.5 2.8-.3 1.4.5 1.8 1.5 1.9 1.9s.1.9-.2.8c-.2-.1-.9-.9-3.1-1.3z" fill="#6d4c41"/><path d="m76.8 22.4c0 1.1-.3 1.9-.8 1.9s-.5-3.9 0-3.9.8.9.8 2z" fill="#404040"/><path d="m75.5 18c.5 0 .9.2 1.1.4.6.4.8.8.8 1.1.1.3.1.8-.2.7-.2 0 .2 0-1.5-.5-.2 0-.8-1.7-.2-1.7z" fill="#6d4c41"/><path d="m86.7 74.8-11.5-11.3-18 26.9c-1.9 2-2.2 5.1-.4 7.4 1.9 2.4 5.4 2.9 7.9.9 1.2-1 1.9-2.3 2.1-3.8z" fill="url(#m)"/><path d="m91.5 97.2 10.4-1.4-6.2-32.8-13.4 5.5z" fill="url(#n)"/><path d="m71.6 38.2 4.5-1.3 15.6-1.4 5.5 1c2 .4 3.3 2.2 3.1 4.2l-3.6 27.7-10.3 9.6c-1.1 1-2.8.9-3.8-.1l-10.1-10.5-3.8-24.7c-.3-1.9.9-3.9 2.9-4.5z" fill="url(#o)"/><path d="m38 49v.3c-.2 2.5 1.7 4.6 4.2 4.8l1.1.1c2.5.2 4.6-1.7 4.8-4.2v-.3c.2-2.5-1.7-4.6-4.2-4.8l-1.1-.1c-2.5-.2-4.6 1.7-4.8 4.2z" fill="#cfd8dc"/><path d="m48 50.2v-.6c.2-2.4-1.6-4.5-4-4.6l-1.4-.1c-.8-.1-1.5.1-2.2.4.1 0 1.2-.3 2 .4.7.6 0 .8.7 1.6.5.5 1-.3 2.1.3.5.3.4.8.5 1.5 0 .5.9.3.7 1.4-.1.8-.8 2-.8 2s.4.5 1.1.2c.8-.8 1.2-1.4 1.3-2.5z" fill="#b0bec5"/><path d="m67.2 122.3h-6.3c-.5 0-.9-.3-1-.8l-4.9-25.2c-.8-2.3-.2-4.8 1.5-6.6l15-22.4-3.7-24.4c-.4-2.5 1.1-4.9 3.5-5.7l4.5-1.3h.2l15.6-1.4h.3l5.5 1c2.5.5 4.2 2.8 3.9 5.3l-3.5 27.4 5.2 27.3v.2l.9 23.8c0 .3-.1.5-.3.7s-.4.3-.7.3h-6.2c-.5 0-.9-.3-1-.8l-5.2-22.4-5.7-17.8c-.5 0-.9 0-1.4-.2l-15.6 16 .3 26c0 .3-.1.5-.3.7s-.4.3-.6.3zm-5.5-2h4.4l-.3-25.4c0-.3.1-.5.3-.7l16.4-16.6c.3-.3.8-.4 1.2-.2s1 .3 1.4.1c.2-.1.5-.1.8 0s.4.3.5.6l6 18.7 5 21.7h4.3l-.8-22.7-5.2-27.4v-.3l3.5-27.5c.2-1.4-.8-2.8-2.2-3.1l-5.4-1-15.4 1.4-4.4 1.2c-1.5.5-2.4 1.9-2.1 3.5l3.7 24.5c.1.3.1.7-.1.9l-15.2 22.9c-.1.1-.1.1-.1.2-1.2 1.2-1.6 3-1.1 4.7v.1z" fill="#90a4ae"/><path d="m59.9 116.6-7.3 1.9c-.9.3-1.7 1-2 1.9-.4 1.2.5 2.5 1.8 2.5h14.7v-6.4c.1.1-7.2.1-7.2.1z" fill="url(#q)"/><path d="m102.7 114.8 4 4.5c.3.3.4.7.4 1.1v.3c0 .7-.5 2.2-1.2 2.2h-9c-1.8 0-2.6-2.9-2.4-4v-.2c.2-1.3 1.2-4 1.2-4z" fill="url(#r)"/><path d="m82.7 5.6s-7 .3-9.4 7.3c-2.1 6.4-3.4 17.7 5.2 19.4 0 0 5.6-1 8.1-11.9 2.9-12.7-3.9-14.8-3.9-14.8z" fill="#37474f" opacity=".87"/><path d="m85.9 25s-2.3 6.4-6.4 7.3c-1.3.3-3.2-.6-3.2-.6l.3 5-1.9.7 2.3.6c1.9.5 3.8 1.4 5.2 2.8 1 .9 2.3 1.4 3.7 1.3 1.7-.2 4-1 5.5-4 2.6-5.3 1.8-13 1.8-13z" fill="#cfd8dc"/><path d="m87.3 20.6h9.2s-.4 4.1-2.1 7.3c-.8 1.6-2.5 2.4-4 2.4h-6z" fill="#b0bec5"/><path d="m76.4 35s3 .8 5.8.5c2.9-.3 5.6-3.6 6.9-10.4h-4.1s-2.2 6.5-5.4 6.9c-2.6.2-3.4 0-3.4 0z" fill="#b0bec5"/><path d="m85.8 12.8c.1 3-.1 5.5-.5 7.8h11.2c1.6-10.9-2.1-13.6-6.9-14.6-3.6-.8-7.1-.3-7.1-.3s3.1 1.7 3.3 7.1z" fill="#78909c"/><g stroke-linecap="round" stroke-linejoin="round" stroke-miterlimit="10"><path d="m115 26.492c-.49687-.004688-.79687.007812-.79687.007812s-.19883 1.4996-.79883 2.5996c-.1.1-.10117.20078-.20117.30078-.2-.2-.29883-.60117-.29883-1.2012-.1-.6-.59961-1.0984-1.0996-1.3984-.6-.4-1.9012-.30078-1.7012.69922.1.5.30078 3.4004.30078 3.4004s1.8996 2.9996 2.5996 3.5996c.18492.1585.54039.35886.99023.56055l.10938-.66016 4.4004.69922-.15039.83203c.05096-.008891.10164-.01978.15039-.03125 2.1-.5 2.3008-2.1012 2.8008-3.2012.4-1.2 1.2992-5.1984.69922-4.8984-2.25-1.125-5.5133-1.2945-7.0039-1.3086z" fill="url(#a)" stroke-width="2"/><path d="m114.97 25.48c-.50867.001422-.8125.019531-.8125.019531a1.0001 1.0001 0 0 0 -.94922.86719s-.07242.22096-.07812.25391c-.24823-.2582-.51681-.48846-.78906-.6543-.60574-.39904-1.2557-.49354-1.9492-.30859-.34921.09312-.7347.29117-1.0078.67188-.23526.32793-.32965.76479-.29297 1.1719.25521 1.4542.70898 4.0977.70898 4.0977s1.8996 2.9996 2.5996 3.5996c.2.2 1.5.40039 1.5.40039l.19922-1.1992 1.8359.29102c-.09084-.024133-.18228-.047248-.27149-.074218-.98645-.29823-1.9674-.83727-2.0137-.87695-.0321-.0275-.29427-.31392-.55469-.6582-.26041-.34428-.55643-.76571-.83203-1.1699-.47819-.70134-.78312-1.1823-.88476-1.3418-.0134-.19121-.04165-.60427-.09375-1.2617-.0532-.67006-.10418-1.2208-.17383-1.6914.0584.009899.13849.018104.13476.015624a1.0001 1.0001 0 0 0 .03907.025391c.33186.19912.60296.55135.6289.70703.009.64246.0699 1.2339.57813 1.7422a1.0001 1.0001 0 0 0 1.4141 0c.16785-.16785.26406-.36016.28906-.41016s-.01999.04152-.08789.10938a1.0001 1.0001 0 0 0 .16992-.22852c.51407-.94245.53776-1.4947.63672-2.0508.89297-.001 3.9516.06356 6.2461 1.0391-.0231.26309-.0477.54571-.11914.94336-.18919 1.0524-.51662 2.3459-.6836 2.8516-.28024.63592-.44634 1.2188-.70508 1.6328-.26975.43161-.56259.7356-1.3809.93164-.15456.036369-.37278.047307-.62304.039063l.85156.13476-.19922 1.0996s.57904.36891 1.0117.49414c.96065-.36541 1.6324-.99432 2.0352-1.6387.47954-.76727.66807-1.512.86328-1.9414a1.0001 1.0001 0 0 0 .03711-.097656c.23425-.70277.55234-1.9857.76172-3.1504.10468-.58233.18119-1.1115.18945-1.5762.004-.23235.0255-.42886-.10742-.77344-.0665-.17229-.20194-.44309-.55078-.61719-.04-.019951-.0717.013739-.11329 0-2.5594-1.2722-5.931-1.4222-7.457-1.418z" fill="#95a9b3"/><path d="m112.4 23.6c.4-.1 1.2-.1 1.4.5.3-.7.8-1.1 1.5-1 .8.1 1.2.9 1.2.9.6-.7 1.1-.9 1.8-.7 1.2.4 1.6 1.3 1.6 1.3.6-.6 1.4-.4 1.9.1.7.6.7 1.3.4 2l-1.3 2.1c-.6.5-1.3.8-1.9.4-.3-.2-.4-.5-.5-.8-.4.3-.8.4-1.3.3-.8-.2-1.4-.6-1.2-1.4 0 0-.5.4-1.1.2s-.8-.5-.9-1.1c-.2.4-.8.6-1.2.5-.7-.1-1.1-.6-1.2-1.3l-.1-.4c-.3-.8.2-1.3.9-1.6z" fill="url(#b)" stroke="#95a9b3"/></g><path d="m113.2 29.5c.7.1 1.2.3 1.6.6s.7 1.3.7 1.9" fill="none" stroke="#95a9b3" stroke-linecap="round" stroke-linejoin="round" stroke-miterlimit="10"/><path d="m67.2 124h-14.8c-1 0-1.8-.4-2.4-1.2-.5-.8-.7-1.7-.4-2.6.4-1.2 1.4-2.2 2.7-2.6l7.4-1.9h.2 7.2c.6 0 1 .4 1 1v6.4c.1.5-.4.9-.9.9zm-7.1-6.4-7.2 1.9c-.6.2-1.1.7-1.3 1.3-.1.3 0 .6.1.8.2.2.5.4.8.4h13.7v-4.4z" fill="#8698a1"/><path d="m105.8 124h-9c-.8 0-1.5-.4-2.1-1.1-1-1.1-1.4-3-1.3-4.1v-.2c.2-1.4 1.2-4.1 1.2-4.2.1-.4.5-.7.9-.7h7.1c.3 0 .6.1.8.3l4 4.5c.4.5.7 1.2.7 1.8v.3c0 1.1-.7 3.4-2.3 3.4zm-9.5-8.2c-.3.9-.8 2.4-.9 3.2v.2c-.1.4.2 1.8.8 2.5.3.4.6.4.6.4h8.8c.2-.2.4-.9.4-1.2v-.3c0-.2-.1-.3-.2-.5l-3.7-4.2c.1-.1-5.8-.1-5.8-.1z" fill="#8698a1"/><path d="m115.1 29.3-2.8 13.2-14.7-5.8-1.1 9.4 16.6 4.9c.3.2.6.3.9.4 1.8.5 3.6-.5 4.3-2.2v-.1c.1-.1.1-.3.1-.4.1-.4.1-.7.1-1.1l2.8-18z" fill="none"/><path d="m85.1 6.5c1.6 0 3 .2 4.3.4 3.7.8 7.4 2.6 6.2 12.7h-9.6c.3-2.5.6-6.2-.1-8.9-.5-2-1.1-3.3-1.6-4.2zm0-1c-1.5 0-2.6.1-2.6.1s1.5 1.2 2.5 5.4c.7 2.6.4 6.4-.1 9.6h11.6c1.6-10.9-2.1-13.6-6.8-14.6-1.7-.4-3.3-.5-4.6-.5z" fill="#607c8a"/><path d="m82.4 5.7s1.1-.2 1.9-.2c0 0 1.7.5 2.7 3 1 2.6 1.5 6 .3 12.1-1.2 6.2-2.9 9-5.1 11s-5.9 1.4-5.9 1.4l-.7-1.8s2.2.3 3.7-.5c1.6-.8 4.8-5.3 5.6-10.3.6-3.2.7-7.1 0-10.2s-2.5-4.5-2.5-4.5z" fill="#cfd8dc"/><path d="m85.5 43c-1.4 0-2.8-.5-3.9-1.5-1.4-1.2-3-2.1-4.8-2.5l-2.3-.6c-.4-.1-.7-.5-.7-.9s.3-.8.7-1l1.2-.4v-.7c0-.1 0-.2-.1-.3l-.1-1.9-.5-1.3c-5.3-3.7-4.7-12.6-2.5-19.2 2.5-7.6 10.2-8 10.3-8h.1c.5-.1 1.1-.1 1.6-.1h.2c1.3 0 3.3 0 5.3.5 4.7 1.1 9.3 3.7 7.7 15.6v.1c0 .2-.4 4.3-2.2 7.7-.3.5-.7 1-1.1 1.5l-.1.1c-.2 3.4-.8 6.3-1.9 8.5-1.7 3.4-4.3 4.3-6.3 4.5-.3-.1-.5-.1-.6-.1zm-8-5.9c2 .5 3.8 1.5 5.3 2.9.8.8 1.9 1.1 2.9 1 2.1-.2 3.7-1.3 4.7-3.4 1-2 1.6-4.8 1.8-8 0-.2.1-.4.2-.5l.1-.2.2-.2s.1-.1.2-.2c.3-.3.6-.6.8-1 1.4-2.7 1.8-6.1 1.9-6.8v-.2c1.6-10.8-2.3-12.6-6.1-13.5-1.9-.4-3.7-.5-4.9-.4h-.2c-.5 0-1.1.1-1.4.1h-.2c-.9.1-6.4.7-8.3 6.6-1.6 4.9-3 13.9 1.9 17.1.2.1.3.3.4.6l.7 1.6c0 .1.1.2.1.3l.1 1.8c0 .1 0 .2.1.2l.1 1.7c-.3.2-.3.3-.4.5z" fill="#90a4ae"/><path d="m43.7 54.3h-.4l-1.2-.1c-3-.2-5.3-2.9-5.1-5.9v-.4c.1-1.5.8-2.8 1.9-3.8s2.5-1.4 4-1.3l1.2.1c3 .2 5.3 2.9 5.1 5.9v.4c-.1 1.5-.8 2.8-1.9 3.8-1 .8-2.3 1.3-3.6 1.3zm-4.6-6.3v.4c-.1 1.9 1.3 3.6 3.2 3.7l1.2.1c1.9.1 3.6-1.3 3.7-3.2v-.4c.1-1.9-1.3-3.6-3.2-3.7l-1.2-.1c-.9-.1-1.8.2-2.5.8-.7.7-1.2 1.5-1.2 2.4z" fill="#95a9b3"/><path d="m46.3 48.4c.2-.9.8-1.1 1.4-.9l3.5.4c.7.2 1.2 1 1 1.9s-.9 1.4-1.6 1.2l-3.4-1c-.5-.1-1.1-.7-.9-1.6z" fill="#ffb300"/><path d="m46.5 48.6c.1-.7.7-1.2 1.3-1.1l3.5.4c.7.2 1.2 1 1 1.9s-.9 1.4-1.6 1.2l-3.5-.8c-.5-.3-.9-1-.7-1.6z" fill="none" stroke="#e69200" stroke-miterlimit="10"/></svg>