<svg enable-background="new 0 0 128 128" viewBox="0 0 128 128" xmlns="http://www.w3.org/2000/svg"><path d="m102.61 107.83c10.8-9.85 16.84-24.08 16.84-39.9 0-29.73-21.33-53.82-55.45-53.82s-55.45 24.1-55.45 53.82c0 29.73 21.33 53.82 55.45 53.82 7.69 0 14.72-1.23 21.01-3.47l5.97 8.54c.4.57 1.04.89 1.7.89.19 0 .39-.03.58-.08l16.51-4.75c.64-.19 1.16-.67 1.39-1.31.22-.63.13-1.33-.26-1.89zm-38.61-11.94c-17.72 0-28.81-12.52-28.81-27.96s11.08-27.96 28.81-27.96 28.81 12.52 28.81 27.96c0 6.65-2.07 12.76-5.82 17.56l-7.26-10.38c-.51-.73-1.42-1.05-2.28-.81l-16.52 4.75c-.64.19-1.16.67-1.39 1.31-.22.63-.13 1.33.26 1.89l9.27 13.25c-1.62.24-3.3.39-5.07.39z" fill="#40c0e7"/></svg>