<svg enable-background="new 0 0 128 128" viewBox="0 0 128 128" xmlns="http://www.w3.org/2000/svg"><path d="m52.72 88.25s.69.85 1.13 1.17 1.18.56 1.18.56l3.54-3.79-7.86.36 2.02 1.69z" fill="#351ba4"/><path d="m90.87 34.37 5.5-7.81s1.86-3.02 2.07-4.86c.91-8.09-1.64-10.33-2.69-11.53-2.35-2.67-5.73-4.53-10.29-4.94-6.5-.59-10.8 1.32-13.97 5.24-3.37 4.17-4.08 9.34-3.52 13.49.38 2.75.67 4.99 3.09 7.78 2.19 2.52 4.12 3.29 4.12 3.29l15.68-.65z" fill="#3c2c23"/><path d="m64.83 15.72c-5.21.05-5.11 3.4-8.31 4.31-2.98.85-4.21-2.61-5.63-2.75-2.27-.23-2.04 9.94 5.51 12.93 8.35 3.31 13.54-4.85 13.54-4.85s1.91-.15 1.71-1.94c-.29-2.69-2.1-7.75-6.82-7.71z" fill="#3c2c23"/><path d="m38.58 82.89 1.49-3.99s2.86-2.58 4.39-3.55 3.55-1.89 3.55-1.89l11.65 11.04-5.08 3.26s-1.97 1.29-3.18 1.73-3.1.77-3.1.77l-8.83-3.67z" fill="#a56c43"/><path d="m69.48 99.39-.68 7.84 5.29 6.88 5.83-2.32s1.93-2.28 2.83-4.45c.82-1.98 1.13-6.57 1.13-6.57l-10.62-4.37-3.78 3.01z" fill="#a56c43"/><path d="m25.23 94.08s-.88-.09-1.85.55-3.83 2.45-5.68 3.51c-1.72.99-5.54 2.72-5.82 5.54-.25 2.49 1.85 4.19 4.11 4.02 2.45-.18 4.62-1.71 7.02-3.14s3.69-2.17 4.57-2.58 1.66-1.2 1.66-1.2l-4.02-6.69z" fill="#2f2f2f"/><path d="m64.14 107.64s-1.09-.87-2.19-1.46-2.73-.73-3.65.09-1.34 1.81-1.5 2.64c-.23 1.14-.96 5.38-1.32 6.88s-1.28 2.6-1.23 5.1c.04 2.37 1.46 3.05 2.23 3.05s2.1-1.91 3.19-3.42c1.03-1.41 3.24-4.6 3.24-4.6l1.23-8.29z" fill="#2f2f2f"/><path d="m62.46 116.57s-1.23-2.02-.87-4.83c.32-2.46 1.55-3.87 2.69-5.33s2.64-3.05 3.55-3.78 2.23-.87 2.23-.27-.59 5.28 2.49 7.9c3.87 3.29 8.19.47 8.17.58-.05.23-1.8 3.18-8.88 4.6-6.52 1.3-9.39 1.14-9.39 1.14z" fill="#5e6367"/><path d="m74.31 73.71-16.62-5.81-7.15 8.62s2.39 2.63 3.46 7.18c.86 3.67.41 5.81 1.03 6.29s2.94.07 5.68-1.44 5.55-3.64 6.5-3.35c.7.22.39 3.02.39 3.02l4.65 12.93s2.48-1.24 5.97-1.18c3.74.06 5.52 1.76 5.86 1.56s1.8-9.49 2.21-14.69.34-10.91.34-10.91z" fill="#583ee2"/><path d="m46.68 73.76c-.1-.3 3.72-2.98 6.49-4.75 2.45-1.56 5.53-3.35 5.53-3.35l3.24 2.64 1.16 1.91s-3.46.58-4.59 1.11c-2.05.96-7.96 5.24-7.96 5.24s-.77-1.07-2.25-1.92c-1.02-.59-1.51-.58-1.62-.88z" fill="#4b0fce"/><path d="m58.69 65.66 2.17-1.43 26.89 8.09s-.3 1.43-.49 1.97-.64 1.63-.64 1.63-7.85 1.54-17.22-2.22c-8.98-3.6-10.71-8.04-10.71-8.04z" fill="#351ba4"/><ellipse cx="36.19" cy="15.78" fill="#aeaeae" rx="12.04" ry="11.73"/><path d="m43.21 10.25s-.46-1.49-3.39-2.64c-2.03-.8-4.65-.4-4.65-.4l-6.6 3.27-1.66 6.49 2.76 5.28s.98 1.09 3.21 2.24c2.24 1.15 5.22.57 5.22.57l5.17-1.78 2.47-7.18-2.53-5.86z" fill="#e0e0e0"/><path d="m44.93 25.35 2.64-5.17.69-4.59s.07-1.72-.63-3.79c-.86-2.53-2.53-3.9-2.53-3.9s-1.95 1.21-2.64 2.3-1.32 2.76-1.32 2.76 3.1 1.78 3.1 2.41-.23 2.53-.52 3.33-1.55 2.18-1.89 2.53-3.73 0-3.73 0-.98 2.53-1.09 2.87.69 3.62.69 3.62l4.13.92 3.1-3.27z" fill="#464c4f"/><path d="m68.57 85.13c-.99.15-1.03 1.03-.96 5.06s.27 11.15.48 11.7 1.93 0 2.54-.2 3.63-1.03 3.7-1.98-1.11-7.33-2.07-9.99-1.85-4.86-3.69-4.59z" fill="#4b0fce"/><path d="m60.32 112.29c.06.32-1.22 3.41-1.41 3.46-.28.07-3-2.05-3-2.05s.34-1.88.43-2.38.45-2.31.45-2.31 3.37 2.45 3.53 3.27z" fill="#dcdcdc"/><path d="m25.02 93.64s4.83-5.31 8.1-8.73c3.46-3.63 6.05-6 6.86-6.07s.35 4.04 2.59 6.81c3.6 4.46 6.18 4.08 6.28 4.51.22.96-4.95 3.92-9.9 6.21s-10.05 4.65-10.05 4.65-2.57-1.12-3.55-2.96c-1.18-2.22-.34-4.42-.33-4.42z" fill="#5e6367"/><path d="m25.33 101.33c-.5-.03-3.46 1.57-3.51 2.03s1.4 1.06 1.4 1.06.91-.51 1.81-1.03 1.8-1.01 1.96-1.13c.27-.21-.98-.88-1.66-.92z" fill="#dcdcdc"/><path d="m106.66 53.2-8.55 1.84 2.52 3.1s1.95.63 2.87.92 2.58 1.03 2.58 1.03.06 3.15.23 4.42.23 4.19.17 4.47-1.93 1.06-2.79 1.92c-.98.97-1.23 2.12-1.34 3.97-.07 1.15-.45 3.35.52 3.35s1.69-.71 1.82-1.57c.07-.46-.09-1.33.58-1.47 1.15-.23 1.13 1.01.4 2.24s-2.7 3.6-2.41 4.36c.4 1.03 1.78.75 2.52.17s1.43-1.38 1.43-1.38.66.62 1.78.57c1.33-.05 2.98-1.49 3.79-2.24s1.38-1.89 1.38-1.89l-3.44-22.43-4.07-1.38z" fill="#875334"/><path d="m39.94 35.97s-.99-2.23-1.62-3.49-.68-2.21-1.79-3.16-2.1-1.74-2.1-1.74.11-.84.69-1.32 1.52-.42 1.52-.42l3.26 1.37s6.31-.53 6.05.47-.79 2.84-.79 2.84l-.95 5.31 4.79 5.42 6.05 2.73.26 5.94s-2.88 1.06-6.54.53c-2.09-.3-4.08-2.27-4.82-3.79s-2.79-7.89-2.79-7.89l-1.22-2.82z" fill="#875334"/><g fill="#a56c43"><path d="m101.1 54.58s2.27.89 3.88 1.56c1.49.62 3.34 1.76 3.74 2.97s.29 3.21.29 4.82.34 5.68.29 6.54-1.15 3.04.29 4.47 4.42 2.12 4.59 2.06 1.03-2.52 1.09-4.65-.29-4.53-.29-4.53l.29-5.28s.06-4.99-1.38-7.57c-2.34-4.2-9.18-7.11-9.18-7.11l-3.61 6.71z"/><path d="m43.34 37.29s1.27 3.83 2.76 5.97c1.28 1.83 2.73 3.05 4.68 3s4.21-.53 4.21-.53l-.26-7.78s-1.21.16-1.79.16-1.89.21-1.89.21-.79-1.21-1.42-1.95-2.37-2.73-2.37-2.73l-3.92 3.66z"/><path d="m36.64 25.85s.6-.04 1.21.21c.79.32 2.57.79 3.57.37s2.68-1.84 4.1-4.42c1.18-2.14 1.79-5.31 2.26-6.21s.95.84 1 1.68-.25 3.55-1.46 7.4c-.58 1.84-1.68 3.86-1.68 3.86s-2.01 1.47-4.48 1.15c-2.41-.31-3.94-3.79-4.52-4.05z"/></g><path d="m106 62.76c-.14.45-.16 5.26.21 5.68s2.94.63 5.21.63 3.9.56 4.31-1.1c.53-2.1.53-4.26.05-5.05s-2.16-1.1-5.15-1.16-4.42.32-4.63 1z" fill="#404649"/><path d="m38.37 33.53c-.16 1.21 1.79 5.94 2.52 5.94s2.73-.32 5.05-1.95 2.89-2.42 2.58-3.21-2.52-4.42-3.1-4.42-1.79 1.95-3.26 2.52-3.72.56-3.79 1.1z" fill="#404649"/><path d="m70.41 42.4-12.45-.2-4.88 3.36s.17 2.14.62 3.56 1.08 2.87 1.89 2.94 5.61-.6 5.91-.24-.59 3.46-1.25 6.04-1.25 4.34-.81 6.19 5.08 5.3 13.62 7.66 14.6 1.95 15.7 1.05 4.33-14.6 4.33-14.6 5.99 3.74 6.63 3.31c.52-1.4.98-2.89.98-2.89l-11.58-13.32z" fill="#4b0fce"/><path d="m54.08 37.72c1.15-.14 7.41-.72 11.8-.72s10 .43 14.67 1.37c4.68.94 9.21 2.59 14.17 4.53s10.36 4.96 10.36 4.96-1.57 2.71-2.45 4.89c-.89 2.22-1.94 5.83-1.94 5.83s-2.66-1.37-3.74-2.01-2.23.22-2.66 1.58-2.37 8.06-2.81 10-1.37 4.32-2.73 4.6-7.34-.29-12.8-1.65c-5.47-1.37-7.98-2.52-9.21-3.38s-2.45-3.6-2.45-5.47 1.94-9.06 2.52-11.22 1.01-4.82-2.37-5.83-11.37.36-11.37.36.07-2.58.43-4.67c.28-1.63.58-3.16.58-3.17z" fill="#583ee2"/><path d="m74.7 33.97 1 6.22s-.19 1.09.56 2.11 2.43 1.97 4.91 1.83c4.23-.25 4.59-2.91 4.59-2.91l-.08-3.33-10.98-3.91z" fill="#875334"/><path d="m73.63 30.65s-3.03-.15-3.97-3.12c-1.12-3.52.86-5.51 2.8-5.52.16 0 .87 2.34 1.08 4.92.11 1.27.09 3.72.09 3.72z" fill="#875334"/><path d="m93.33 19.49c-5.38-1.95-7.79-5.47-7.79-5.47s-.57 1.88-2.6 3.36c-2.31 1.7-6.64 2.39-7.14 6.2-.8 6.21-2.15 6.51-2.15 6.51s-.18.59.42 2.59c.86 2.93 5.17 8.85 11.66 9.05 5.7.17 8.48-6.39 9.24-9.06.75-2.64 1.28-4.67 1.49-6.55.18-1.61-.19-5.56-3.13-6.62z" fill="#a56c43"/><path d="m84.98 21.21c.49-.35.55-1.3.16-1.64s-3.03-.41-3.8-.29c-1.22.19-2.08 1.21-1.89 1.59.09.19 1.52.07 2.79.2s2.53.3 2.75.14z" fill="#3c2c23"/><path d="m94.76 21.88c.36-.46-.68-1.32-1.87-1.59-.78-.17-2.04-.38-2.28-.04-.29.4-.36 1.21.07 1.45.23.13 3.73.63 4.08.19z" fill="#3c2c23"/><path d="m81.94 23.57c.94.02 1.95.7 1.77 2.43-.16 1.58-1.06 2.28-2.2 2.15s-1.7-1.15-1.62-2.37.94-2.24 2.04-2.22z" fill="#42312c"/><path d="m92.2 24.4c.9.06 1.63.95 1.53 2.36s-1 2.08-2 2.06-1.79-.91-1.64-2.27.91-2.25 2.1-2.16z" fill="#42312c"/><path d="m86.66 32.34c-.93-.15-2.03-.78-1.97-1.36s1.26-.5 2.2-.41 2.19.17 2.13.79-1.48 1.11-2.36.98z" fill="#875334"/><path d="m86.47 34.59c1.4.1 3.16-.81 3.51.04s-1.14 2.15-3.69 1.93c-2.8-.24-4.18-1.7-3.75-2.54s2.37.46 3.93.57z" fill="#473530"/><path d="m34.31 10.71s1.66-3.04 1.66-3.73-1.03-2.87-1.03-2.87-2.39-.03-4.92 1.33c-1.73.93-3.69 2.48-4.83 5.15-1.24 2.9-1.23 5.52-.79 7.65.89 4.22 3.48 6.03 3.48 6.03s2.58-1.55 3.04-1.95 1.32-2.99 1.32-2.99l-3.27-2.53s-.16-2.43.34-3.67 1.78-2.47 1.78-2.47z" fill="#464c4f"/></svg>