<svg enable-background="new 0 0 128 128" viewBox="0 0 128 128" xmlns="http://www.w3.org/2000/svg" xmlns:xlink="http://www.w3.org/1999/xlink"><linearGradient id="a" gradientTransform="matrix(1 0 0 -1 0 130)" gradientUnits="userSpaceOnUse" x1="55.84" x2="55.84" y1="90.83" y2="56.13"><stop offset=".00005450581" stop-color="#05080f"/><stop offset=".1125" stop-color="#070a15"/><stop offset=".2637" stop-color="#0b1026"/><stop offset=".4371" stop-color="#131a42"/><stop offset=".6268" stop-color="#1d286a"/><stop offset=".8276" stop-color="#2b399b"/><stop offset="1" stop-color="#384acc"/></linearGradient><linearGradient id="b" gradientTransform="matrix(1 0 0 -1 0 130)" gradientUnits="userSpaceOnUse" x1="18.9" x2="55.58" y1="54.17" y2="54.17"><stop offset="0" stop-color="#bdbdbd"/><stop offset=".1386" stop-color="#fff" stop-opacity="0"/></linearGradient><linearGradient id="c" gradientTransform="matrix(1 0 0 -1 0 130)" gradientUnits="userSpaceOnUse" x1="55.65" x2="92.33" y1="54.17" y2="54.17"><stop offset=".8614" stop-color="#fff" stop-opacity="0"/><stop offset="1" stop-color="#bdbdbd"/></linearGradient><linearGradient id="d"><stop offset="0" stop-color="#384acc"/><stop offset=".216" stop-color="#3548bf"/><stop offset=".6146" stop-color="#2f449d"/><stop offset=".9606" stop-color="#283f7a"/></linearGradient><linearGradient id="e" gradientTransform="matrix(1 0 0 -1 0 130)" gradientUnits="userSpaceOnUse" x1="55.31" x2="55.31" xlink:href="#d" y1="34.01" y2="-7.8"/><linearGradient id="f" gradientTransform="matrix(1 0 0 -1 0 130)" gradientUnits="userSpaceOnUse" x1="96.26" x2="120.7" xlink:href="#d" y1="16.93" y2="16.93"/><radialGradient id="g" cx="55.79" cy="126.32" gradientTransform="matrix(1 0 0 -.9637 0 125.45)" gradientUnits="userSpaceOnUse" r="33.93"><stop offset="0" stop-color="#fff"/><stop offset=".4129" stop-color="#faf9f8"/><stop offset=".9948" stop-color="#ebeae6"/><stop offset=".9953" stop-color="#ebeae6"/></radialGradient><linearGradient id="h" gradientTransform="matrix(1 0 0 -1 0 130)" gradientUnits="userSpaceOnUse" x1="58.14" x2="57.72" y1="125.99" y2="107.47"><stop offset=".3696" stop-color="#3649bf"/><stop offset="1" stop-color="#2c4585"/></linearGradient><linearGradient id="i" gradientTransform="matrix(1 0 0 -1 0 130)" gradientUnits="userSpaceOnUse" x1="55.86" x2="55.86" y1="108.09" y2="71.27"><stop offset=".2075" stop-color="#384acc"/><stop offset="1" stop-color="#1d3678"/></linearGradient><linearGradient id="j" gradientTransform="matrix(1 0 0 -1 0 130)" gradientUnits="userSpaceOnUse" x1="89.2" x2="112.78" y1="27.95" y2="12.18"><stop offset=".5" stop-color="#a56c43"/><stop offset="1" stop-color="#8d5738"/></linearGradient><ellipse cx="55.84" cy="56.69" fill="url(#a)" rx="49.85" ry="18.32"/><path d="m55.58 30.4s-22.96 1.09-35.75 4.97c-.47 3.17-3.83 66.52 6 80.17 3.9 5.41 13.19 5.71 13.19 5.71l16.56-.03z" fill="#e7e7e7"/><path d="m55.65 30.4s22.96 1.09 35.75 4.97c.47 3.17 3.83 66.52-6 80.17-3.9 5.41-13.19 5.71-13.19 5.71l-16.56-.03z" fill="#e7e7e7"/><path d="m55.58 30.4s-22.96 1.09-35.75 4.97c-.47 3.17-3.83 66.52 6 80.17 3.9 5.41 13.19 5.71 13.19 5.71l16.56-.03z" fill="url(#b)"/><path d="m55.65 30.4s22.96 1.09 35.75 4.97c.47 3.17 3.83 66.52-6 80.17-3.9 5.41-13.19 5.71-13.19 5.71l-16.56-.03z" fill="url(#c)"/><path d="m104.62 124.03v-2.98c0-16.79-24.99-25.09-49.31-25.06-24.17.03-49.31 7.28-49.31 25.05v2.98h98.62z" fill="url(#e)"/><path d="m112.3 102.32c-.59-.31-1.31-.11-1.65.46-1.88 3.15-5.56 5.48-9.12 7.74-1.64 1.04-3.32 2.11-4.78 3.23-.45.35-.61.96-.38 1.48l3.83 8.73h1.36 2.49 13.92 1.3 1.25c.51-5.12.64-16.93-8.22-21.64z" fill="url(#f)"/><g fill="#f9f722"><path d="m36.68 102.22 2.05 2.32 3.07-.38-1.56 2.66 1.3 2.8-3.01-.66-2.26 2.11-.31-3.07-2.7-1.5 2.83-1.24z"/><path d="m33.4 114.54.5 2.66 2.47 1.1-2.38 1.29-.28 2.69-1.96-1.85-2.65.56 1.16-2.44-1.35-2.34 2.68.35z"/><path d="m57.18 123.97h6.85l-.25-.99 3.02-3.46-4.58-.3-2.36-3.94-1.69 4.26-4.48 1.02 3.53 2.94z"/><path d="m17.12 109.56 2.15 2.2 3.03-.51-1.43 2.72 1.43 2.72-3.03-.52-2.15 2.21-.44-3.05-2.76-1.36 2.76-1.36z"/><path d="m79.25 107.19.14 3.33 2.82 1.77-3.12 1.16-.82 3.23-2.07-2.61-3.32.23 1.84-2.78-1.24-3.09 3.21.89z"/></g><path d="m55.61 88.1h-9.08v9.98c0 4.51 3.7 8.17 8.26 8.17h1.65c4.56 0 8.26-3.66 8.26-8.17v-9.98z" fill="#7a4c32"/><path d="m55.61 15.04c-17.2 0-33.13 12.79-33.13 39.91 0 21.78 13.49 34.67 25.23 38.83 2.8.99 5.5 1.49 7.9 1.49 2.38 0 5.07-.49 7.85-1.47 11.76-4.14 25.28-17.03 25.28-38.84 0-27.13-15.93-39.92-33.13-39.92z" fill="#a56c43"/><path d="m89.88 40.78-3.05 47.8-3.78.02 2.18-27.98c.06-3.83.49-12.84-2.55-15.03-3.69-2.66-13.98-9.67-17.27-16.86 0 0-12.65 11.86-35.01 16.89-6.09 1.37-5.21 12.18-5.16 15.09.14 7.28.89 19.33 1.48 28.12l-3.36.01c-1.83-14.29-2.02-49.78-1.19-53.67 2.04-.85 17.97-8.69 26.3-9.72 12.21-1.51 33.56 10.57 41.41 15.33z" fill="url(#g)"/><path d="m64.14 76.15c-3.12 1.86-13.37 1.86-16.5 0-1.79-1.07-3.63.57-2.88 2.2.73 1.6 6.32 5.32 11.16 5.32s10.35-3.72 11.08-5.32c.75-1.63-1.07-3.27-2.86-2.2z" fill="#473530"/><path d="m59.67 68.38c-.1-.04-.21-.07-.32-.08h-6.94c-.11.01-.21.04-.32.08-.63.25-.97.91-.68 1.6s1.68 2.64 4.46 2.64 4.17-1.95 4.46-2.64c.31-.69-.03-1.34-.66-1.6z" fill="#875334"/><ellipse cx="39.69" cy="59.26" fill="#42312c" rx="4.83" ry="5.01"/><ellipse cx="72.32" cy="59.26" fill="#42312c" rx="4.83" ry="5.01"/><path d="m46.4 51.12c-.86-1.14-2.85-2.8-6.72-2.8s-5.86 1.66-6.72 2.8c-.38.51-.28 1.09-.02 1.44.24.33.97.63 1.77.36s2.36-1.08 4.97-1.1c2.61.02 4.17.83 4.97 1.1s1.52-.03 1.77-.36c.27-.35.36-.93-.02-1.44z" fill="#fff"/><path d="m79.03 51.12c-.86-1.14-2.85-2.8-6.72-2.8-3.86 0-5.86 1.66-6.72 2.8-.38.51-.28 1.09-.02 1.44.25.33.97.63 1.77.36s2.36-1.08 4.97-1.1c2.61.02 4.17.83 4.97 1.1s1.52-.03 1.77-.36c.27-.35.36-.93-.02-1.44z" fill="#fff"/><path d="m74.15 17.45c.54-1.04 11.23 1.32 12.35-.44 1.17-1.85-4.65-9.64-17.2-12.09-4.22-.83-9.96-1.95-17.09.41-4.2 1.39-22.87 8.1-27 32.75-.01.06 64.32.24 64.32.24-2.58-8.57-15.92-19.83-15.38-20.87z" fill="url(#h)"/><path d="m105.82 54.92c-6.7-28.45-46.53-40.31-73.16-28.41-8.47 3.54-17.15 9.65-22.75 18.47-1.84 2.59-8.84 17.02 1.55 13.08 57.49-33.63 94.72 12.8 94.36-3.14z" fill="url(#i)"/><path d="m112.17 81.48-3.02 2.73 2.42 6.03 7.63-.11 4.14-11.68-13.25-11.24-14.59 11.41 7.36 15.37c-.55 2.18-3.66 14.45-4.49 17.74-.73 2.89-1.71 7.54-2.64 12.17h.97.97 3.82 1 1l8.85-28.81-7.86-14.19 5.43-3.64 5.41 2.39-.14 2.44z" fill="#cf8900"/><path d="m115.57 111.13c-.14-1.41-.63-2.76-1.1-3.89-1.46-3.57-3.14-6.34-6.94-9.14-3.86-2.85-8.11-3.42-10.03-3.11-2.15.35-3.52 1.19-4.08 2.5-.43 1-.25 2.03.01 2.79-1.1.37-2.59 1.12-3.07 2.47-.56 1.58-.1 2.87.56 3.74-.94.6-2.13 1.55-2.47 2.74-.45 1.58 1.02 3.35 2 4.31-.48.64-1.06 1.51-1.19 2.14-.68 3.33 3.66 5.21 6.33 5.79.41.09.83-.1 1.05-.46l.93-1.62c3.43 1.06 8.45 2.48 10.54 2.48.28 0 .51-.03.68-.08 1.92-.67 3.17-2.23 4.27-3.61.17-.21.34-.43.51-.64 1.5-1.81 2.22-4.15 2-6.41z" fill="url(#j)"/></svg>