<svg enable-background="new 0 0 128 128" viewBox="0 0 128 128" xmlns="http://www.w3.org/2000/svg"><path d="m50.66 48.05h26c1.6 0 2.9 1.3 2.9 2.9v26c0 1.6-1.3 2.9-2.9 2.9h-26c-1.6 0-2.9-1.3-2.9-2.9v-25.9c-.08-1.58 1.14-2.92 2.72-3z" fill="#575757"/><path d="m50.66 48.05h21.4c1.6 0 2.9 1.3 2.9 2.9v21.4c0 1.6-1.3 2.9-2.9 2.9h-21.4c-1.6 0-2.9-1.3-2.9-2.9v-21.3c-.08-1.58 1.14-2.92 2.72-3z" fill="#424242"/><path d="m56.86 51.05c0-.6-.4-.8-2.9-.7-2.1.1-3.1.3-3.7 1.1s-.8 2.3-.8 4.2c0 1.3 0 2.5.7 2.5.9 0 .9-2.1 1.7-3.3 1.4-2.4 5-3 5-3.8z" fill="#787878"/></svg>