<svg enable-background="new 0 0 128 128" viewBox="0 0 128 128" xmlns="http://www.w3.org/2000/svg" xmlns:xlink="http://www.w3.org/1999/xlink"><linearGradient id="a"><stop offset="0" stop-color="#4fc3f7"/><stop offset=".8296" stop-color="#4fc3f7" stop-opacity="0"/></linearGradient><radialGradient id="b" cx="79.28" cy="48.1" gradientTransform="matrix(-.7157 .6984 -.1115 -.1142 141.37 -1.78)" gradientUnits="userSpaceOnUse" r="123.23" xlink:href="#a"/><linearGradient id="c" gradientUnits="userSpaceOnUse" x1="69.93" x2="22.52" xlink:href="#a" y1="58.05" y2="111.45"/><radialGradient id="d" cx="61.26" cy="35.45" gradientTransform="matrix(-.7902 .6129 -.0978 -.1261 118.09 7.17)" gradientUnits="userSpaceOnUse" r="94.41" xlink:href="#a"/><linearGradient id="e" gradientTransform="matrix(.9928 .1197 -.1197 .9928 9.63 -2.28)" gradientUnits="userSpaceOnUse" x1="53.32" x2="14.23" xlink:href="#a" y1="44.82" y2="87.38"/><radialGradient id="f" cx="43.95" cy="25" gradientTransform="matrix(-.8551 .5185 -.0827 -.1365 93.48 13.16)" gradientUnits="userSpaceOnUse" r="70.07" xlink:href="#a"/><linearGradient id="g" gradientTransform="matrix(.9746 .2238 -.2238 .9746 16.58 -1.66)" gradientUnits="userSpaceOnUse" x1="38.34" x2="9.82" xlink:href="#a" y1="32.63" y2="63.67"/><radialGradient id="h" cx="100.71" cy="64.39" gradientTransform="matrix(-.6174 .7867 .1255 .0985 141.61 -26.25)" gradientUnits="userSpaceOnUse" r="97.12" xlink:href="#a"/><linearGradient id="i" gradientTransform="matrix(.9986 -.0537 .0537 .9986 -17.27 -.25)" gradientUnits="userSpaceOnUse" x1="95.91" x2="56.6" xlink:href="#a" y1="76.97" y2="119.76"/><radialGradient id="j" cx="87.28" cy="48.67" gradientTransform="matrix(-.5065 .8622 .1376 .0808 133.43 -8.72)" gradientUnits="userSpaceOnUse" r="73.41" xlink:href="#a"/><linearGradient id="k" gradientTransform="matrix(.96 -.2801 .2801 .96 -5.75 45.65)" gradientUnits="userSpaceOnUse" x1="84.05" x2="53.92" xlink:href="#a" y1="59.37" y2="92.16"/><path d="m100.87 15.07-12.93 12.88 10.11 10.11 13.03-13.04c3.64-3.64 7.98-6.12 12.92-7.22v-13.13c-8.78.47-16.88 4.16-23.13 10.4z" fill="#bdbdbd"/><path d="m96.59 30.45c-14.37-14.37-37.92-14.13-52.07-.18l52.25 52.25c13.95-14.15 14.19-37.7-.18-52.07z" fill="#bdbdbd"/><path d="m107.74 28.62c-.21-.79-1.84-3.67-4.07-5.83s-4.75-3.72-6.94-4.17c-4.35-.9-6.82 2.28-9.57 5.03 3.41 1.7 6.6 3.96 9.43 6.8 2.45 2.45 4.47 5.18 6.08 8.08-.13-.23 4.03-4.03 4.03-4.03 1.48-1.5 1.6-3.8 1.04-5.88z" fill="#78909c"/><path d="m96.59 30.45c-14.37-14.37-37.92-14.13-52.07-.18l52.25 52.25c13.95-14.15 14.19-37.7-.18-52.07z" fill="#bdbdbd"/><path d="m83.74 41.83c-15.99-14.44-29.84-18.22-29.84-18.22-1.07.44-1.97.86-2.78 1.31 0 0 11.13 4.66 28.22 20.36s24 28.51 24 28.51c.53-1.08.99-2.28 1.45-3.7-.01 0-2.1-11.14-21.05-28.26z" fill="#9e9e9e"/><path d="m81.17 44.73c17.59 16.13 28.11 32.83 24.01 37.75-2.9 3.48-6.52 3.2-6.52 3.2-7.77-1.84-20.51-12.25-33.16-23.85-12.87-11.8-26.09-27.08-26.71-29.7 0 0-.79-2.69-.09-4.63.88-2.43 2.79-3.42 2.79-3.42 6.74-3.68 22.09 4.52 39.68 20.65z" fill="#bdbdbd"/><ellipse cx="69.27" cy="57.34" fill="#757575" rx="7.05" ry="41.25" transform="matrix(.6758 -.737 .737 .6758 -19.81 69.64)"/><path d="m68.13 22.25c-.97.39-1.85 1.25-1.9 2.29-.06 1.29 1.98 2.63 4.39 2.21 3.91-.69 7.16-.55 8.21-.37.56.1 2.62.1 2.62-1.19 0-1.32-2.05-2.19-2.58-2.4-3-1.19-7.52-1.82-10.74-.54z" fill="#dfecf5"/><path d="m48.94 26.56c-.34 1.54 2.71 2.53 3.39 2.73 1.41.43 5.26 1.84 5.9 1.32.45-.37.53-1.44-3.52-3.7-3.21-1.8-5.44-1.81-5.77-.35z" fill="#dfecf5"/><path d="m6.71 120.14c-2.09-2.09-1.68-7.4.66-9.49l58.66-52.79c1.05-1.03 2.73-1.03 3.79 0 1.07 1.04 1.08 2.76.04 3.82l-54.26 57.4c-2.47 2.6-6.8 3.16-8.89 1.06z" fill="url(#b)"/><path d="m70.27 58.5c-31.63 27.37-54.62 58.91-55.28 61.14 0 0 .56-.52.59-.56l54.26-57.4c.86-.87.99-2.16.43-3.18z" fill="url(#c)"/><path d="m9.41 77.98 44.76-31.47c1.17-.9 2.84-.7 3.76.45.93 1.16.74 2.86-.42 3.8l-44.51 37c-2.9 2.41-6.26 3.28-8.4-.51-2.19-3.85 2.21-7.44 4.81-9.27z" fill="url(#d)"/><path d="m58.31 47.65c-.19-.04-34.81 23.68-46.16 40.8l45.35-37.69c.96-.76 1.24-2.03.81-3.11z" fill="url(#e)"/><path d="m5.09 62.38c-2-4.38 2.61-6.48 2.61-6.48l35.55-19.75c1.25-.77 2.9-.4 3.69.85.8 1.26.44 2.93-.82 3.73l-34.02 22.66s-4.84 3.75-7.01-1.01z" fill="url(#f)"/><path d="m47.25 37.72c-.19-.06-18.51 9.7-36.37 26.41l35.23-23.4c1.03-.66 1.45-1.9 1.14-3.01z" fill="url(#g)"/><path d="m48.38 117.92 32.7-46.36c.9-1.17.69-2.9-.45-3.76-1.19-.9-2.86-.74-3.8.42l-38.23 46.12c-2.41 2.9-3.28 6.26.51 8.4 3.85 2.18 7.44-2.22 9.27-4.82z" fill="url(#h)"/><path d="m81.11 68.3c-.5.51-26.25 33.02-34.47 51.84l34.38-48.5c.8-.98.84-2.51.09-3.34z" fill="url(#i)"/><path d="m64.89 122.83c4.37 2 6.48-2.61 6.48-2.61l20.93-38.84c.77-1.25-.09-3-.85-3.69-.82-.75-2.93-.44-3.73.82l-23.85 37.31c.01 0-3.74 4.84 1.02 7.01z" fill="url(#j)"/><path d="m91.71 77.92c-.19.04-13.16 19.47-20.59 42.77l20.83-38.64c1.13-1.51.57-3.31-.24-4.13z" fill="url(#k)"/></svg>