<svg enable-background="new 0 0 128 128" viewBox="0 0 128 128" xmlns="http://www.w3.org/2000/svg" xmlns:xlink="http://www.w3.org/1999/xlink"><radialGradient id="a" cx="65.4404" cy="81.7339" gradientTransform="matrix(.9775 0 0 .9469 3.0041 4.1031)" gradientUnits="userSpaceOnUse" r="21.6193"><stop offset=".3995" stop-color="#ff9800"/><stop offset=".6616" stop-color="#ff6d00"/><stop offset=".9715" stop-color="#f44336"/></radialGradient><path d="m59.59 21.74s-5.42-.19-8.92.18c-8.19.87-15.2 5.89-14.05 26.17 1.22 21.45 4.09 59.55 4.09 59.55" fill="none" stroke="#424242" stroke-miterlimit="10" stroke-width="5.9729"/><path d="m72.87 38.76v-9.17h-13.66v9.17c0 1.93-3.1 2.94-5.1 3.9-7.32 3.54-10.39 9.35-10.39 17.28v53.69c0 2.24 2.96 10.36 22.31 10.36s22.31-8.12 22.31-10.36v-53.68c0-8.46-3.74-14.59-12.08-17.97-1.91-.79-3.39-1.29-3.39-3.22z" fill="#db3427"/><path d="m59.21 33.95c0 2.96 1.72 6.24 6.83 6.24s6.83-3.28 6.83-6.24z" fill="#ba2626"/><path d="m52.77 54.9v28.11c0 .44.32.82.75.89 8.68 1.49 16.71 1.57 25.04.01.43-.08.74-.46.74-.89v-28.14c0-.54-.47-.95-1-.89-7.72.94-16.74 1.12-24.51.03-.54-.08-1.02.34-1.02.88z" fill="#fafafa"/><path d="m60.22 65.44c-.46 1.23-.96 2.99.54 4.25 0 0 .16-3.35 3.49-5.66 1.81-1.25 1.2-3 .81-3.68-.37-.63-1.13-1.21-1.53-1.6-.23-.23-.05-.62.28-.6 2.02.09 5.29.63 6.68 4.01.61 1.48.68 2.63.16 4.37-.29.97-1.18 3.48.91 4.05 1.05.28 1.53-.98 1.76-1.58.1-.25.43-.31.61-.11 1.8 1.99 1.96 4.33 1.58 6.34-.72 3.89-4.79 6.73-8.84 6.73-5.05 0-9.08-2.8-10.12-7.87-.42-2.05-.21-6.09 3.05-8.95.26-.22.73-.01.62.3z" fill="url(#a)"/><path d="m68.46 71.6c-1.86-2.32-1.03-4.97-.57-6.03.06-.14-.1-.27-.23-.18-.8.53-2.44 1.77-3.21 3.52-1.03 2.36-.96 3.52-.35 4.93.37.85-.06 1.03-.27 1.06s-.4-.1-.55-.24c-.44-.41-.76-.94-.91-1.51-.03-.12-.2-.16-.28-.05-.57.77-.87 2-.89 2.87-.04 2.69 2.25 4.87 5.03 4.87 3.5 0 6.05-3.75 4.04-6.89-.58-.9-1.13-1.5-1.81-2.35z" fill="#ffee58"/><path d="m66.91 44.29c.88.01 1.86.47 1.14 1.82-.69 1.29-2.64 4.51-9.81 4.33-1.77-.05-5.72-.33-6.66-2.49-.98-2.27 4.69-5.77 8-4.6 3.45 1.2 4.33.92 7.33.94z" fill="#ff7555"/><path d="m60.93 25.33c-1.81.04-5.11.13-7.38.23-.74.03-1.37-.53-1.42-1.27l-.43-4.99c-.05-.76.53-1.42 1.3-1.46 2.42-.12 5.84-.2 7.73-.25.77-.02 1.39.6 1.39 1.37l.14 5c0 .75-.59 1.36-1.33 1.37z" fill="#9e9e9e"/><path d="m34.96 40.89c.13-3.57.84-7.63 1.8-10.06.69-1.75 2.36-5.13 4.04-6.57 2.43-2.08 5.01-3.32 7.52-3.54 2.14-.19 2.3 1.4-.55 2.41-2.39.84-4.14 1.59-5.81 3.86-2.34 3.19-3.67 7.89-4.04 11.01-.17 1.46-.53 10.67-2.36 8.81-.93-.95-.66-4.46-.6-5.92z" fill="#616161"/><path d="m60.68 21.84c-2.59-3.1-1.25-6.41.52-7.25l23.92-10.54c.29-.13.64.01.74.31 1.15 3.33-.43 7.04-3.71 8.49l-19.7 8.69c-.59.25.82 3.41-1.77.3z" fill="#424242"/><path d="m88.43 27.81c-.07-.03-25.97-11.95-25.97-11.95l-.61 1.54 9.07 4.17c-.12.18-.23.36-.33.56-1.04 2.3.35 4.05 2.81 4.92 2.64.93 9.51 4.04 11.1 4.57 1.88.62 2.84-.02 3.65-.94.64-.74 1.6-2.26.28-2.87z" fill="#424242"/><path d="m76.11 8.86c.03.04.05.1.04.15-.01.1-.07.19-.13.27-.46.56-1.11.98-1.66 1.44-.56.48-1.01 1.07-1.49 1.63-1.67 1.94-4.47 2.6-6.78 3.53-1.58.64-3.16 1.27-4.74 1.91-.53.21-1.26.4-1.23-.48.03-.78.63-1.82 2.31-2.54 2.15-.94 4.78-2.11 6.93-3.05 2.16-.95 4.36-1.82 6.46-2.88.05-.02.09-.05.15-.04.06-.01.11.02.14.06z" fill="#757575"/><circle cx="66.04" cy="27.85" fill="#db3427" r="10.11"/><circle cx="66.06" cy="27.85" fill="#fafafa" r="6.49"/><path d="m66.06 21.54c-.38 0-1.44 5.74-1.44 6.2 0 .75.65 1.35 1.44 1.35.8 0 1.44-.61 1.44-1.35 0-.46-1.06-6.2-1.44-6.2z" fill="#212121"/><path d="m61.78 22.01c-1.78 1.27-2.65 3.77-2.7 4.74-.05.98-.45 1.88-1.26 1.93-.93.05-1.07-1.33-1.06-1.72.07-2.59 1.21-4.9 3.01-6.41.83-.69 2.37-1.21 3.01-.37.5.67-.4 1.4-1 1.83z" fill="#ff7555"/><path d="m65.96 93.41c-11.64 0-20.63-1.85-22.59-2.26 0 0-.62-.27-2.1-.32l-.49-5.59s.19-.02 1.22-.02c1.02 0 1.92.34 1.92.34.09.02 9.93 2.28 22.04 2.28s21.46-2.08 21.55-2.1l.55-.14c.42-.09.83.17.87.56l.19 4.38c.03.32-.19.61-.53.68l-.33.08c-.41.09-9.4 2.11-22.3 2.11z" fill="#424242"/><path d="m35.94 99.01-.49-7.22c-.02-.24.19-.42.42-.4 3.25.35 5.51-.15 6.41-.41.23-.07.46.1.48.34l.49 7.2c.01.15-.06.29-.2.36-.75.39-3.44 1.55-6.85.46-.14-.03-.25-.17-.26-.33z" fill="#9e9e9e"/></svg>