<svg enable-background="new 0 0 128 128" viewBox="0 0 128 128" xmlns="http://www.w3.org/2000/svg"><path d="m66.13 68.34 56.04-29.23s.02-.74 0-1.26l-62.31-27.02c-.25-.11-.54-.1-.79.03l-54.18 28.66c-.21.11-.33.32-.33.55v52.95c0 .62.35 1.19.89 1.47l1.68.87c1.52.78 55.95 29.27 57.75 28.62.53-.19.93-.55 1.25-.98z" fill="#1976d2"/><path d="m64.7 67.32c6.65-3.21 57.55-27.78 57.47-29.47l-62.35-27.04c-.23-.1-.49-.09-.72.03l-54.23 28.69c-.13.07-.13.26.01.32l58.38 27.47c.46.21.98.21 1.44 0z" fill="#039be5"/><path d="m122.72 94.41-56.76 29.26c-.9.46-1.96-.19-1.96-1.2v-53.54c0-1.27.85-1.73 1.3-1.96l56.18-28.97c.9-.46 1.96-.15 1.96 1.2v54.02c.01.5-.27.96-.72 1.19z" fill="#0d47a1"/><path d="m74.89 46.1-32.25-16.11 6.05-3.01 32.25 16.11z" fill="#212121"/><path d="m78.23 41.74-23.81-11.9s5.34-4.95 17.4-11.33c.45-.24 2.67-1.53 3.15-1.28l28.27 12.3c-11.5 1.46-25.01 12.21-25.01 12.21z" fill="#0d47a1"/><path d="m48.69 28.78 30.44 15.2 1.81-.89-32.25-16.11-6.05 3.01 1.8.9z" fill="#0d47a1"/><path d="m98.96 17.94c-11.65 7.11-26.53 26.93-26.53 26.93l-24.8-12.39s13.15-21.54 28.52-28.33c.46-.2 1.01-.22 1.49.04l21.18 11.2c1.08.57 1.12 1.95.14 2.55z" fill="#dfecf5"/><path d="m63.98 74.86-59.43-27.96v2.19l59.43 27.96.43-.2z" fill="#0d47a1" opacity=".7"/><path d="m64 74.85v2.19l59.45-30.5v-2.23z" fill="#0a3160"/><path d="m39.24 48.13c0-3.48 2.07-4.14 4.63-4.14s4.63.81 4.63 4.14c0 1.54-2.07 2.78-4.63 2.78s-4.63-1.24-4.63-2.78z" fill="#616161"/><ellipse cx="43.87" cy="46.65" fill="#e0e0e0" rx="4.42" ry="2.78"/></svg>