<svg enable-background="new 0 0 128 128" viewBox="0 0 128 128" xmlns="http://www.w3.org/2000/svg" xmlns:xlink="http://www.w3.org/1999/xlink"><radialGradient id="a" cx="63.6" cy="62.9" gradientUnits="userSpaceOnUse" r="56.9597"><stop offset=".5" stop-color="#fde030"/><stop offset=".92" stop-color="#f7c02b"/><stop offset="1" stop-color="#f4a223"/></radialGradient><path d="m63.6 118.8c-27.9 0-58-17.5-58-55.9s30.1-55.9 58-55.9c15.5 0 29.8 5.1 40.4 14.4 11.5 10.2 17.6 24.6 17.6 41.5s-6.1 31.2-17.6 41.4c-10.6 9.3-25 14.5-40.4 14.5z" fill="url(#a)"/><path d="m111.49 29.67c5.33 8.6 8.11 18.84 8.11 30.23 0 16.9-6.1 31.2-17.6 41.4-10.6 9.3-25 14.5-40.4 14.5-18.06 0-37-7.35-48.18-22.94 10.76 17.66 31 25.94 50.18 25.94 15.4 0 29.8-5.2 40.4-14.5 11.5-10.2 17.6-24.5 17.6-41.4 0-12.74-3.47-24.06-10.11-33.23z" fill="#eb8f00"/><g fill="#422b0d"><path d="m63.89 82c-10.49 0-18 6.29-20.23 9.78-.85 1.13-1.02 2.62-.46 3.91.43.82 1.28 1.33 2.2 1.31.34-.01.68-.06 1-.16 5.28-1.69 9.9-4.14 17.49-4.14s12.21 2.45 17.49 4.14c.32.11.66.16 1 .16.92.02 1.77-.49 2.2-1.31.56-1.29.39-2.78-.46-3.91-2.26-3.49-9.75-9.78-20.23-9.78z"/><path d="m48.16 55.81c-6.05-1.58-12.44-1.34-18.36.69-1.06.41-1.59 1.59-1.18 2.65.38.99 1.44 1.52 2.46 1.24 2.37-.46 4.79-.59 7.2-.4v.39c0 4.89 3.17 7.85 6.67 7.85 1.79-.02 3.5-.76 4.74-2.06 2.08-2.21 2.51-5.51 1.05-8.17-.55-1.03-1.47-1.82-2.58-2.19z"/><path d="m96 55.81c-6.05-1.58-12.44-1.34-18.36.69-1.07.38-1.64 1.55-1.26 2.62s1.55 1.64 2.62 1.26c2.37-.46 4.79-.59 7.19-.4v.39c0 4.89 3.18 7.85 6.67 7.85 1.8-.02 3.51-.76 4.75-2.06 2.05-2.21 2.45-5.49 1-8.13-.55-1.04-1.49-1.84-2.61-2.22z"/><path d="m87.68 44c-1.01.02-1.84-.79-1.86-1.8s.79-1.84 1.8-1.86c1.94-.21 3.91-.09 5.81.35 5.18 1.05 9.78 4.02 12.86 8.31 1.38 2.08-1.32 3.8-2.94 2.25-4.23-4.16-9.76-6.72-15.67-7.25z"/><path d="m37.88 44c1.01.02 1.84-.79 1.86-1.8s-.79-1.84-1.8-1.86c-1.94-.21-3.91-.09-5.81.35-5.18 1.05-9.78 4.02-12.86 8.31-1.39 2.08 1.32 3.8 2.94 2.25 4.23-4.16 9.76-6.72 15.67-7.25z"/></g><path d="m45.06 59.18c1.42-.68 3.13-.08 3.82 1.34.53 1.11.29 2.44-.6 3.3-1.42.68-3.13.08-3.82-1.34-.53-1.11-.29-2.44.6-3.3z" fill="#896024"/><path d="m93.06 59.18c1.43-.67 3.13-.06 3.81 1.37.52 1.11.28 2.42-.6 3.27-1.43.67-3.13.06-3.81-1.37-.52-1.1-.28-2.42.6-3.27z" fill="#896024"/></svg>