<svg enable-background="new 0 0 128 128" viewBox="0 0 128 128" xmlns="http://www.w3.org/2000/svg"><path d="m36.02 123.97c-.7-.02-1.41-.08-2.1-.2-4.33-.77-7.89-3.84-9.3-8l-20-60c-2.1-6.3 1.3-13.1 7.6-15.2s13.1 1.3 15.2 7.6l13 39 62.2-78.6c4.11-5.22 11.68-6.11 16.9-2s6.11 11.68 2 16.9l-76 96c-2.34 2.84-5.82 4.49-9.5 4.5z" fill="#546d7a"/><g fill="#fff"><path d="m75.17 58.91c1.49-1.24 29.97-35.22 29.97-35.22s2.38-2.53.36-4.75c-1.9-2.03-4.38-.7-5.57.62s-26.89 31.62-27.95 33.12c-1.04 1.69-1.07 3.81-.09 5.53.94 1.52 2.25 1.6 3.28.7z" opacity=".35"/><circle cx="108.45" cy="12.83" opacity=".35" r="3.3"/><path d="m12.73 65.49c.67-.01.53-3.76 2.28-7.35 1.23-2.54 2.82-3.82 2.81-5.24s-1.92-8.34-3.35-7.88c-1.99.63-4.53 3.19-5.1 7.18-.89 6.28 2.13 13.31 3.36 13.29z" opacity=".35"/></g></svg>