<svg enable-background="new 0 0 128 128" viewBox="0 0 128 128" xmlns="http://www.w3.org/2000/svg"><path d="m116 4h-104c-4.42 0-8 3.58-8 8v104c0 4.42 3.58 8 8 8h104c4.42 0 8-3.58 8-8v-104c0-4.42-3.58-8-8-8z" fill="#f77e00"/><path d="m109.7 4h-98.2c-4.13.03-7.47 3.37-7.5 7.5v97.9c-.01 4.14 3.34 7.49 7.48 7.5h.02 98.1c4.14.01 7.49-3.34 7.5-7.48 0-.01 0-.01 0-.02v-97.9c.09-4.05-3.13-7.41-7.18-7.5-.07 0-.15 0-.22 0z" fill="#ff9800"/><path d="m39.7 12.9c0-2.3-1.6-3-10.8-2.7-7.7.3-11.5 1.2-13.8 4s-2.9 8.5-3 15.3c0 4.8 0 9.3 2.5 9.3 3.4 0 3.4-7.9 6.2-12.3 5.4-8.7 18.9-10.6 18.9-13.6z" fill="#ffbd52" opacity=".75"/><g fill="#f77e00"><path d="m153.35-200.2h-104c-4.42 0-8 3.58-8 8v104c0 4.42 3.58 8 8 8h104c4.42 0 8-3.58 8-8v-104c0-4.42-3.58-8-8-8z"/><path d="m153.35-200.2h-104c-4.42 0-8 3.58-8 8v104c0 4.42 3.58 8 8 8h104c4.42 0 8-3.58 8-8v-104c0-4.42-3.58-8-8-8z"/><path d="m153.35-200.2h-104c-4.42 0-8 3.58-8 8v104c0 4.42 3.58 8 8 8h104c4.42 0 8-3.58 8-8v-104c0-4.42-3.58-8-8-8z"/></g><path d="m147.05-200.2h-98.2c-4.13.03-7.47 3.37-7.5 7.5v97.9c-.01 4.14 3.34 7.49 7.48 7.5h.02 98.1c4.14.01 7.49-3.34 7.5-7.48 0-.01 0-.01 0-.02v-97.9c.09-4.05-3.13-7.41-7.18-7.5-.07 0-.15 0-.22 0z" fill="#ff9800"/><path d="m77.05-191.3c0-2.3-1.6-3-10.8-2.7-7.7.3-11.5 1.2-13.8 4s-2.9 8.5-3 15.3c0 4.8 0 9.3 2.5 9.3 3.4 0 3.4-7.9 6.2-12.3 5.4-8.7 18.9-10.6 18.9-13.6z" fill="#ffbd52" opacity=".75"/><g fill="#fafafa"><path d="m119.39-181.3c-2.29-.57-8.24-2.4-20.49-2.4s-19.35 2.06-20.49 2.4c-1.55.42-2.63 1.83-2.63 3.43v75.44c.04 1.59 1.1 2.98 2.63 3.43 1.26.34 8.24 2.4 20.49 2.4s18.32-1.83 20.49-2.4c1.55-.42 2.63-1.83 2.63-3.43v-75.44c-.01-1.61-1.08-3.01-2.63-3.43zm-28.62 2.74h16.26c.63 0 1.14.51 1.14 1.14s-.51 1.14-1.14 1.14h-16.26c-.63 0-1.14-.51-1.14-1.14s.51-1.14 1.14-1.14zm-7.9 0c.63 0 1.14.51 1.14 1.14s-.51 1.14-1.14 1.14-1.14-.51-1.14-1.14c.04-.6.53-1.09 1.14-1.14zm24.16 76.59h-16.26c-.63 0-1.14-.51-1.14-1.14s.51-1.14 1.14-1.14h16.26c.63 0 1.14.51 1.14 1.14-.04.6-.53 1.09-1.14 1.14zm10.41-6.87c0 .63-.51 1.14-1.14 1.14h-34.8c-.59.04-1.11-.41-1.14-1 0-.05 0-.09 0-.14v-62.73c0-.63.51-1.14 1.14-1.14h34.8c.59-.04 1.11.41 1.14 1v.14z"/><path d="m62.9-107.92c.49.94 1.6 1.54 2.82 1.56.51-.01 1.04-.13 1.49-.35 1.57-.88 2.13-2.58 1.29-4.02l-5.21-8.99 5.21-8.98c.52-.89.52-1.92 0-2.82l-5.21-8.99 5.21-8.99c.52-.89.52-1.92 0-2.82l-5.21-8.98 5.21-8.99c.84-1.44.28-3.14-1.34-4.05-.41-.2-.93-.32-1.48-.33-1.19.02-2.29.62-2.77 1.53l-6.04 10.42c-.52.89-.52 1.92 0 2.82l5.21 8.99-5.21 8.98c-.51.9-.51 1.93 0 2.83l5.21 8.98-5.21 8.99c-.52.89-.52 1.92 0 2.82z"/><path d="m134.9-107.92c-.49.94-1.6 1.54-2.82 1.56-.51-.01-1.04-.13-1.49-.35-1.57-.88-2.13-2.58-1.29-4.02l5.21-8.99-5.21-8.98c-.52-.89-.52-1.92 0-2.82l5.21-8.99-5.21-8.99c-.52-.89-.52-1.92 0-2.82l5.21-8.98-5.21-8.99c-.84-1.44-.28-3.14 1.34-4.05.41-.2.93-.32 1.48-.33 1.19.02 2.29.62 2.77 1.53l6.04 10.42c.52.89.52 1.92 0 2.82l-5.21 8.99 5.21 8.98c.51.9.51 1.93 0 2.83l-5.21 8.98 5.21 8.99c.52.89.52 1.92 0 2.82z"/></g><path d="m104.84 58.97-25.99-4.7 17.39-24.14c.82-1.33-.74-2.89-2.08-2.08l-26.22 16.27-4.91-27.16c-.37-1.56-2.59-1.56-2.97 0l-4.9 27.17-26.23-16.28c-1.33-.82-2.97.74-2.08 2.08l17.44 24.21-26.04 4.7c-1.56.3-1.56 2.59 0 2.89l26.74 4.76-18.13 26.38c-.82 1.33.74 2.97 2.08 2.08l26.48-17.65 4.73 26.25c.3 1.56 2.59 1.56 2.89 0l4.67-26.24 26.46 17.64c1.33.82 2.97-.74 2.08-2.08l-18.15-26.39 26.75-4.82c1.55-.3 1.55-2.52-.01-2.89z" fill="#fff"/></svg>