<svg enable-background="new 0 0 128 128" viewBox="0 0 128 128" xmlns="http://www.w3.org/2000/svg"><path d="m28.2 121.8s-1.7 2.2-6.3 2.2-6.3-2.2-6.3-2.2v-68.1h12.6z" fill="#9e9e9e"/><path d="m28.2 121.8s-1.7 2.2-6.3 2.2-6.3-2.2-6.3-2.2v-20.1s1.3-2.4 6-2.4 6.6 2.4 6.6 2.4 0 20.1 0 20.1z" fill="#bdbdbd"/><path d="m112.4 121.8s-1.7 2.2-6.3 2.2-6.3-2.2-6.3-2.2v-68.1h12.6z" fill="#9e9e9e"/><path d="m112.4 121.8s-1.7 2.2-6.3 2.2-6.3-2.2-6.3-2.2v-20.1s1.3-2.4 6-2.4 6.6 2.4 6.6 2.4 0 20.1 0 20.1z" fill="#bdbdbd"/><path d="m6.7 41.4h114.6c1.49 0 2.7 1.21 2.7 2.7v18c0 1.49-1.21 2.7-2.7 2.7h-114.6c-1.49 0-2.7-1.21-2.7-2.7v-18c0-1.49 1.21-2.7 2.7-2.7z" fill="#9e9e9e"/><path d="m113.8 45.2h-15.4c-1.4 0-2.5-.9-2.2-1.9l1.1-6.7h17.5l1.1 6.7c.3 1-.7 1.9-2.2 1.9z" fill="#e2a610"/><circle cx="106.1" cy="23.7" fill="#ffca28" r="12.7"/><circle cx="106.1" cy="23.7" fill="#ff5722" r="9.4"/><path d="m114.9 36.7h-17.5s0-2.8 5.1-2.8h7.4c5.3 0 5 2.8 5 2.8z" fill="#ffca28"/><path d="m107.2 19.2 2.4-3.1c.1-.1.3 0 .3.1l-.9 3.8c-.2.9.5 1.7 1.4 1.7h3.9c.2 0 .2.2 0 .3l-3.6 1.6c-.8.4-1.1 1.5-.5 2.2l2.5 3c.1.1 0 .3-.2.3l-3.5-1.8c-.8-.4-1.8 0-2 1l-.8 3.8c0 .2-.3.2-.3 0l-.8-3.8c-.2-.9-1.2-1.4-2-1l-3.5 1.8c-.2 0-.3-.1-.2-.3l2.5-3c.6-.7.3-1.8-.5-2.2l-3.6-1.6c-.2 0-.1-.3 0-.3h3.9c.9 0 1.6-.8 1.4-1.7l-.9-3.8c0-.2.2-.3.3-.1l2.4 3.1c.6.7 1.7.7 2.2 0z" fill="#ffd5ca"/><path d="m29.6 45.2h-15.4c-1.4 0-2.5-.9-2.2-1.9l1.1-6.7h17.5l1.1 6.7c.3 1-.7 1.9-2.2 1.9z" fill="#e2a610"/><circle cx="21.9" cy="23.7" fill="#ffca28" r="12.7"/><circle cx="21.9" cy="23.7" fill="#ff5722" r="9.4"/><path d="m30.7 36.7h-17.6s0-2.8 5.1-2.8h7.4c5.3 0 5 2.8 5 2.8z" fill="#ffca28"/><path d="m23 19.2 2.4-3.1c.1-.1.3 0 .3.1l-.9 3.8c-.2.9.5 1.7 1.4 1.7h3.9c.2 0 .2.2 0 .3l-3.6 1.6c-.8.4-1.1 1.5-.5 2.2l2.5 3c.1.1 0 .3-.2.3l-3.5-1.8c-.8-.4-1.8 0-2 1l-.8 3.8c0 .2-.3.2-.3 0l-.8-3.8c-.2-.9-1.2-1.4-2-1l-3.5 1.8c-.2 0-.3-.1-.2-.3l2.5-3c.6-.7.3-1.8-.5-2.2l-3.6-1.6c-.2 0-.1-.3 0-.3h3.9c.9 0 1.6-.8 1.4-1.7l-.9-3.8c0-.2.2-.3.3-.1l2.4 3.1c.6.7 1.7.7 2.2 0z" fill="#ffd5ca"/><path d="m6.7 43.4h114.6c1.49 0 2.7 1.21 2.7 2.7v18c0 1.49-1.21 2.7-2.7 2.7h-114.6c-1.49 0-2.7-1.21-2.7-2.7v-18c0-1.49 1.21-2.7 2.7-2.7z" fill="#ffd600"/><path d="m6.7 43.4c-1.49 0-2.7 1.21-2.7 2.7v14.93l12.92-17.63zm22.52 0-17.15 23.4h13.5l17.15-23.4zm25.8 0-17.15 23.4h13.58l17.09-23.4zm25.5 0-17.15 23.4h13.6l17.15-23.4zm25.5 0-17.15 23.4h13.6l17.15-23.4zm17.98 12.31-8.13 11.09h5.43c1.49 0 2.7-1.21 2.7-2.7z" fill="#212121"/><path d="m6.7 71.8h114.6c1.49 0 2.7 1.21 2.7 2.7v18c0 1.49-1.21 2.7-2.7 2.7h-114.6c-1.49 0-2.7-1.21-2.7-2.7v-18c0-1.49 1.21-2.7 2.7-2.7z" fill="#9e9e9e"/><path d="m6.7 73.8h114.6c1.49 0 2.7 1.21 2.7 2.7v18c0 1.49-1.21 2.7-2.7 2.7h-114.6c-1.49 0-2.7-1.21-2.7-2.7v-18c0-1.49 1.21-2.7 2.7-2.7z" fill="#ffd600"/><path d="m6.7 73.8c-1.49 0-2.7 1.21-2.7 2.7v14.93l12.92-17.63zm22.52 0-17.15 23.4h13.5l17.15-23.4zm25.8 0-17.15 23.4h13.58l17.09-23.4zm25.5 0-17.15 23.4h13.6l17.15-23.4zm25.5 0-17.15 23.4h13.6l17.15-23.4zm17.98 12.31-8.13 11.09h5.43c1.49 0 2.7-1.21 2.7-2.7z" fill="#212121"/><circle cx="106.5" cy="60.4" fill="#9e9e9e" r="1.5"/><path d="m106.5 58.9a1.5 1.5 0 0 0 -1.47 1.2 1.5 1.5 0 0 0 1.47 1.2 1.5 1.5 0 0 0 1.47-1.2 1.5 1.5 0 0 0 -1.47-1.2z" fill="#bdbdbd"/><circle cx="106.5" cy="49.6" fill="#9e9e9e" r="1.5"/><path d="m106.5 48.1a1.5 1.5 0 0 0 -1.47 1.2 1.5 1.5 0 0 0 1.47 1.2 1.5 1.5 0 0 0 1.47-1.2 1.5 1.5 0 0 0 -1.47-1.2z" fill="#bdbdbd"/><circle cx="106.5" cy="90.8" fill="#9e9e9e" r="1.5"/><path d="m106.5 89.3a1.5 1.5 0 0 0 -1.47 1.2 1.5 1.5 0 0 0 1.47 1.2 1.5 1.5 0 0 0 1.47-1.2 1.5 1.5 0 0 0 -1.47-1.2z" fill="#bdbdbd"/><circle cx="106.5" cy="80.1" fill="#9e9e9e" r="1.5"/><path d="m106.5 78.6a1.5 1.5 0 0 0 -1.47 1.2 1.5 1.5 0 0 0 1.47 1.2 1.5 1.5 0 0 0 1.47-1.2 1.5 1.5 0 0 0 -1.47-1.2z" fill="#bdbdbd"/><circle cx="21.7" cy="60.4" fill="#9e9e9e" r="1.5"/><path d="m21.7 58.9a1.5 1.5 0 0 0 -1.47 1.2 1.5 1.5 0 0 0 1.47 1.2 1.5 1.5 0 0 0 1.47-1.2 1.5 1.5 0 0 0 -1.47-1.2z" fill="#bdbdbd"/><circle cx="21.7" cy="49.6" fill="#9e9e9e" r="1.5"/><path d="m21.7 48.1a1.5 1.5 0 0 0 -1.47 1.2 1.5 1.5 0 0 0 1.47 1.2 1.5 1.5 0 0 0 1.47-1.2 1.5 1.5 0 0 0 -1.47-1.2z" fill="#bdbdbd"/><circle cx="21.7" cy="90.8" fill="#9e9e9e" r="1.5"/><path d="m21.7 89.3a1.5 1.5 0 0 0 -1.47 1.2 1.5 1.5 0 0 0 1.47 1.2 1.5 1.5 0 0 0 1.47-1.2 1.5 1.5 0 0 0 -1.47-1.2z" fill="#bdbdbd"/><circle cx="21.7" cy="80.1" fill="#9e9e9e" r="1.5"/><path d="m21.7 78.6a1.5 1.5 0 0 0 -1.47 1.2 1.5 1.5 0 0 0 1.47 1.2 1.5 1.5 0 0 0 1.47-1.2 1.5 1.5 0 0 0 -1.47-1.2z" fill="#bdbdbd"/></svg>