<svg enable-background="new 0 0 128 128" viewBox="0 0 128 128" xmlns="http://www.w3.org/2000/svg" xmlns:xlink="http://www.w3.org/1999/xlink"><radialGradient id="a" cx="73.5" cy="106.81" gradientTransform="matrix(-.4968 .8679 .6936 .397 35.96 -79.88)" gradientUnits="userSpaceOnUse" r="16.77"><stop offset=".7816" stop-color="#6d4c41" stop-opacity="0"/><stop offset="1" stop-color="#6d4c41"/></radialGradient><linearGradient id="b"><stop offset="0" stop-color="#a52714"/><stop offset=".529" stop-color="#d23f31"/><stop offset="1" stop-color="#ed4132"/></linearGradient><linearGradient id="c" gradientTransform="matrix(1 0 0 -1 0 128)" gradientUnits="userSpaceOnUse" x1="79.57" x2="51.09" xlink:href="#b" y1="78.8" y2="40.65"/><linearGradient id="d"><stop offset="0" stop-color="#212121"/><stop offset=".999" stop-color="#212121" stop-opacity="0"/></linearGradient><radialGradient id="e" cx="74.88" cy="64.46" gradientTransform="matrix(.9362 .3515 .6811 -1.8142 -39.13 154.17)" gradientUnits="userSpaceOnUse" r="18.58" xlink:href="#d"/><linearGradient id="f" gradientTransform="matrix(1 0 0 -1 0 128)" gradientUnits="userSpaceOnUse" x1="44.41" x2="59.1" xlink:href="#d" y1="72.73" y2="47.37"/><linearGradient id="g"><stop offset="0" stop-color="#42a5f5"/><stop offset="1" stop-color="#1e88e5"/></linearGradient><linearGradient id="h" gradientTransform="matrix(1 0 0 -1 0 128)" gradientUnits="userSpaceOnUse" x1="76.01" x2="75.83" xlink:href="#g" y1="86.41" y2="66.74"/><linearGradient id="i"><stop offset="0" stop-color="#a52714"/><stop offset=".529" stop-color="#d23f31"/><stop offset="1" stop-color="#db4437"/></linearGradient><linearGradient id="j" gradientTransform="matrix(1 0 0 -1 0 128)" gradientUnits="userSpaceOnUse" x1="50.37" x2="43.81" xlink:href="#i" y1="75.21" y2="89.44"/><linearGradient id="k" gradientTransform="matrix(1 0 0 -1 0 128)" gradientUnits="userSpaceOnUse" x1="55.13" x2="50.13" y1="43.81" y2="36.06"><stop offset=".0007612179" stop-color="#851f10"/><stop offset=".8407" stop-color="#a52714"/></linearGradient><linearGradient id="l" gradientTransform="matrix(1 0 0 -1 0 128)" gradientUnits="userSpaceOnUse" x1="69.79" x2="60.64" xlink:href="#g" y1="55.76" y2="35.22"/><linearGradient id="m" gradientTransform="matrix(1 0 0 -1 0 128)" gradientUnits="userSpaceOnUse" x1="62.7" x2="84.32" y1="65.39" y2="60.66"><stop offset="0" stop-color="#d32f2f"/><stop offset=".2297" stop-color="#f44336"/><stop offset=".7416" stop-color="#f44336"/><stop offset="1" stop-color="#d32f2f"/></linearGradient><linearGradient id="n" gradientTransform="matrix(1 0 0 -1 0 128)" gradientUnits="userSpaceOnUse" x1="77.25" x2="77.25" y1="83.09" y2="73.24"><stop offset="0" stop-color="#0d47a1" stop-opacity="0"/><stop offset="1" stop-color="#0d47a1"/></linearGradient><linearGradient id="o" gradientTransform="matrix(1 0 0 -1 0 128)" gradientUnits="userSpaceOnUse" x1="66.1" x2="43.78" xlink:href="#b" y1="27.46" y2="5.14"/><linearGradient id="p" gradientTransform="matrix(1 0 0 -1 0 128)" gradientUnits="userSpaceOnUse" x1="98.37" x2="84.56" xlink:href="#i" y1="103.92" y2="124.81"/><path d="m85.16 13.43c-2.25-3.73-6.52-5.88-11.13-5.61s-8.6 2.92-10.39 6.9c-1.1 2.42-1.55 5.36-1.38 8.98.16 3.42-.03 4.3-2.4 5.91-3.5 2.39-5.02 5.82-3.98 8.94.99 2.98 4.04 4.88 7.93 5.04.38.02.76.01 1.16 0 8.24-.38 14.41-3.86 18.35-10.35.1-.17.18-.29.24-.38 3.42-5.03 5.15-13.55 1.6-19.43z" fill="#543930"/><path d="m86.74 24.95c-.42 3.2-2.33 6.67-3.18 7.9-.06.09-.13.22-.24.38-3.94 6.49-10.11 9.98-18.35 10.36-.39.02-.77.02-1.15.01-3.89-.16-7.06-2.03-7.93-5.05-1.18-4.11 1.52-7.24 3.14-8.32 2.49-1.66 3.49-2.47 3.29-5.92 1.42 13.1 23.73 3.91 24.32 1.22.03-.19.07-.38.1-.58z" fill="url(#a)"/><path d="m88.03 32.22c.6-.37 1.38-.22 1.78.36 2.1 3.04 7.69 13.17 5.57 32.47-1.38 12.53-8.48 30.62-10.89 36.48-.35.86-1.44 1.09-2.12.47-2.42-2.21-8.33-5.94-19.09-3.44-3.41.79-14.05 11.45-22.6 1.85-5.28-5.93-1.43-9.41-1.38-17.94.05-10.98-11-14.35-14.61-16.15-.92-.46-.99-1.73-.13-2.29 4.19-2.72 10.07-4 17.46-9.88 9.38-7.45 9.46-14.43 11.38-16.85.97-1.22 8.61-4.65 8.61-4.65s5.34 1.42 5.6 1.52l9.53 4.21c.38.14.81.1 1.16-.12z" fill="url(#c)"/><path d="m90.44 73.86c5.41-16.75 1.49-30.51 1.49-30.51s-15.88 5.61-15.92 6.26-10.32 25.11-10.32 25.11-7.49 20.25-16.99 29.68c6.81-.74 12.32-5.31 14.58-5.83 7.09-1.65 12.06-.59 15.33.96 1.79-2.85 8.03-13.9 11.83-25.67z" fill="url(#e)"/><path d="m67.97 43.79-5.07-2.3s-8.04 18.35-12.11 24.68c-4.08 6.33-11.5 16.3-11.5 16.3.01 8.53-3.9 12.02 1.39 17.95.35.4.72.75 1.08 1.08 3.39-4.07 8.99-12.02 13.19-17.98 11.35-16.11 13.02-39.73 13.02-39.73z" fill="url(#f)"/><path d="m103.54 24.53c-1.01-2.75-5.95-10.64-5.95-10.64l-5.74 2.75 2.28 9.86-10.27 8.55c-4.83-1.12-9.26-1.06-12.95-.52-2.94-.22-11.3-.12-14.46 7.57l-4.58 10.9-3.71 1.29c-1.03 2.15 2.35 4.09 4.5 5.11 2.15 1.03 4 .23 5.76-2.04 1.05-1.36 3.49-5.17 5.27-8 .4 3.03.68 6.73.7 11.23l8.33 4.01 10.14.43c3.7-8.37 5.61-14.74 6.58-19.25 3.35-3.78 12.03-13.6 13.15-15.16 1.38-1.92 1.96-3.34.95-6.09z" fill="url(#h)"/><path d="m103.54 24.53c-1.01-2.75-5.95-10.64-5.95-10.64l-5.74 2.75 2.28 9.86-10.27 8.55c-4.83-1.12-9.26-1.06-12.95-.52-2.94-.22-11.3-.12-14.46 7.57l-4.58 10.9-3.71 1.29c-1.03 2.15 2.35 4.09 4.5 5.11 2.15 1.03 4 .23 5.76-2.04 1.05-1.36 3.49-5.17 5.27-8 .4 3.03.68 6.73.7 11.23l8.33 4.01 10.14.43c3.7-8.37 5.61-14.74 6.58-19.25 3.35-3.78 12.03-13.6 13.15-15.16 1.38-1.92 1.96-3.34.95-6.09z" fill="none" opacity=".29"/><path d="m41.61 38.79c.59-1.08 2.44-1.82 3.77-2.23.81-.25 1.67.17 1.99.94l1.97 4.72c.24.58.13 1.25-.29 1.73l-1.85 2.08c.68.92 1.53 1.66 2.51 2.25 1.67 1.01 3.34.97 3.51 1.11 2.12 1.71 3.7 3.71 2.46 6.99-1.23 3.26-5.47 2.26-5.47 2.26s-4.35-3.06-7.15-9.7c-.91-2.13-2.68-7.92-1.45-10.15z" fill="url(#j)"/><path d="m41.61 38.79c.59-1.08 2.44-1.82 3.77-2.23.81-.25 1.67.17 1.99.94l1.97 4.72c.24.58.13 1.25-.29 1.73l-1.85 2.08c.68.92 1.53 1.66 2.51 2.25 1.67 1.01 3.34.97 3.51 1.11 2.12 1.71 3.7 3.71 2.46 6.99-1.23 3.26-5.47 2.26-5.47 2.26s-4.35-3.06-7.15-9.7c-.91-2.13-2.68-7.92-1.45-10.15z" fill="none" opacity=".29"/><path d="m52.68 83.01s-5.54 5.15-5.95 7.46c-.68 3.83 2.56 7.37 4.24 6 3.65-2.96 4.64-6.63 6.45-9.29 1.8-2.66-2.34-6.6-4.74-4.17z" fill="url(#k)"/><path d="m71.4 66.93-.25.68c-.45-1.66-1.51-3.18-2.95-3.95 0 0-5.78-1.91-7.23.78 0 0-6.93 10.92-8.03 13.96-1.11 3.04-1.07 5.52 1.53 7.13 2.1 1.29 4.92.67 7.5-2.26 1.16-1.32 3.84-5.35 5.88-8.48.32-.5 1.09-.11.88.45l-12.12 31.91 5.41 3.44s16.1-25.73 18.47-30.65c2.37-4.94 3.21-12.15 3.21-12.15z" fill="url(#l)"/><path d="m61.24 64.05 2-3.26c.28-.63 1-.89 1.58-.56 6.62 3.79 10.14 4.78 17.67 4.34.69-.04 1.26.58 1.21 1.33l-.26 3.51s-2.76 1.56-11.19-.23c-5.98-1.26-11.01-5.13-11.01-5.13z" fill="#212121" opacity=".4"/><path d="m83.08 69.11c-8.48.45-13.79-1.08-21.19-5.01-.58-.31-.81-1.02-.53-1.62l1.19-2.52c.3-.63 1.07-.89 1.69-.56 7.09 3.78 10.86 4.78 18.94 4.34.74-.04 1.36.59 1.29 1.33l-.23 2.9c-.05.62-.55 1.11-1.16 1.14z" fill="url(#m)"/><path d="m75.57 67.15-2.31 1.53c-.46.3-1.07.18-1.37-.28l-1.53-2.31c-.3-.46-.18-1.07.28-1.37l2.31-1.53c.46-.3 1.07-.18 1.37.28l1.53 2.31c.3.45.18 1.07-.28 1.37z" fill="#fdd835"/><path d="m70.48 45.19c1.28-.56 3.66-1.34 7.09-1.47.22-.01.43-.01.63-.01 3.09 0 4.98.84 5.95 1.44l-6.94 7.46z" fill="#e53935"/><path d="m78.21 44.74c1.89 0 3.28.34 4.25.71l-5.23 5.62-4.95-5.45c1.27-.4 3.06-.79 5.33-.87.21 0 .4-.01.6-.01m0-2.07c-.22 0-.44 0-.67.01-5.77.21-8.73 2.2-8.73 2.2l8.4 9.25 8.48-9.12c-.01.01-2.19-2.34-7.48-2.34z" fill="#fdd835"/><path d="m68.81 44.88s2.96-1.99 8.73-2.2 8.15 2.33 8.15 2.33l-8.48 9.12z" fill="url(#n)" opacity=".42"/><path d="m57.86 97.77s-1.61 9.66-5.58 15.98c-1.94 2.57-5.1 4.68-6.74 9.09-.75 2.03 3.63 3.96 7.04 2.09 2.05-1.13 5.15-8.03 5.15-8.03 2.74-4.98 10.9-12.92 10.9-12.92-1.57-7.3-10.77-6.21-10.77-6.21z" fill="url(#o)"/><path d="m53.4 37.29s5.69-7.18 15.85-5.13c7.55 1.52 5.96 6.37 5.96 6.37s-3.81.03-7.24-.76c-3.47-.8-6.56-2.41-8.4-2.22z" fill="#ed4132"/><path d="m75.21 38.53s.47-4.91 3.79-6.1 10.76-2.29 10.76-2.29-2.33 4.56-4.13 6c-3.8 3.04-10.42 2.39-10.42 2.39z" fill="#ed4132"/><path d="m57.13 40.69s3.26-2.94 8.22-1.75c7.14 1.71 9.86-.41 9.86-.41s5.25 1.89 10.22-.5c3.41-1.64 4.34-7.89 4.34-7.89l-1.17 1.32s-4.38 4.77-8.74 6.06c-3.19.95-4.64 1.01-4.64 1.01s-11.76-4.03-14.44-2.91c-2.7 1.12-3.65 5.07-3.65 5.07z" fill="#212121" opacity=".4"/><path d="m75.01 31.25-3.3.09.1 2.56c0 3.23 3.45 4.61 3.45 4.61s3.15-1.69 3.15-4.66l-.1-2.69z" fill="#e59600"/><path d="m75.03 34.35c4.91-.13 9.31-5.51 9.1-13.06-.21-7.51-4.99-11.1-9.76-10.97s-9.35 3.97-9.15 11.48c.21 7.56 4.9 12.68 9.81 12.55z" fill="#ffca28"/><ellipse cx="70.15" cy="24.47" fill="#404040" rx="1.39" ry="1.44" transform="matrix(.9996 -.0273 .0273 .9996 -.64 1.92)"/><ellipse cx="79.42" cy="24.21" fill="#404040" rx="1.39" ry="1.44" transform="matrix(.9996 -.0273 .0273 .9996 -.63 2.18)"/><path d="m77.24 29.42c-.88.56-3.83.64-4.74.13-.52-.29-1.04.19-.81.65.22.45 1.86 1.48 3.25 1.44s2.95-1.15 3.14-1.62c.2-.46-.33-.92-.84-.6z" fill="#795548"/><path d="m75.76 26.87c-.03-.01-.06-.02-.09-.02l-2 .06c-.03 0-.06.01-.09.03-.18.08-.27.27-.18.47s.5.75 1.3.72c.8-.02 1.18-.59 1.26-.79.08-.22-.02-.41-.2-.47z" fill="#e59600"/><path d="m72.21 21.79c-.27-.34-.9-.84-2.09-.81s-1.79.56-2.04.92c-.11.16-.08.34.01.44.08.1.3.19.55.1s.72-.35 1.52-.38c.8-.02 1.29.22 1.54.3s.47-.02.54-.13.09-.29-.03-.44z" fill="#6d4c41"/><path d="m81.49 21.54c-.27-.34-.9-.84-2.09-.81s-1.79.56-2.04.92c-.11.16-.08.34.01.44.08.1.3.19.55.1s.72-.35 1.52-.38c.8-.02 1.29.22 1.54.3s.47-.02.54-.13c.06-.11.09-.29-.03-.44z" fill="#6d4c41"/><path d="m62.1 27.48c.16-3.78.09-6.4.28-8.01.16-1.37 1.76-11.19 11.65-11.65 11.3-.52 12.92 10.81 12.92 10.81l.07 4.4s-.25 2.15-1.33 4.77c-1.1 2.63-2.86 3.33-2.54 2 .35-1.47.7-3.48.61-5.42-.04-.85.09-4.01-1.71-4.32-6.57-1.16-10.41-4.45-10.41-4.45-.86 2.13-3.76 4.32-4.8 5.13-.86.68-.61 3.29-.54 4.41l.63 5.08c-1.1-.63-4.21-1.6-4.83-2.75z" fill="#543930"/><path d="m92.68 25.08c-.14-.93-1.91-15.14-5.23-15.88 0 0-1.76.02-3.56.18-1.41.05-2.35-.32-2.62-1.22-.33-.68.01-2.2.58-3.9.57-1.71 1.59-1.92 2.4-1.94 1.57-.04 4.25 1.55 7.93 4.73 7.08 6.12 10.95 15.35 10.95 15.35-.14.01-4.7 6.24-10.45 2.68z" fill="url(#p)"/><path d="m92.68 25.08c-.14-.93-1.91-15.14-5.23-15.88 0 0-1.76.02-3.56.18-1.41.05-2.35-.32-2.62-1.22-.33-.68.01-2.2.58-3.9.57-1.71 1.59-1.92 2.4-1.94 1.57-.04 4.25 1.55 7.93 4.73 7.08 6.12 10.95 15.35 10.95 15.35-.14.01-4.7 6.24-10.45 2.68z" fill="none" opacity=".29"/></svg>