<svg enable-background="new 0 0 128 128" viewBox="0 0 128 128" xmlns="http://www.w3.org/2000/svg"><path d="m64.8 120.71c3.68 0 32.11-24.18 48.7-44.07 15.96-19.14 10.2-41.74 6.69-48.03-4.15-7.43-56.94 17.01-56.94 17.01s-49.18-27.63-52.86-21.63c-4.99 8.14-11.98 29.55 2.13 49.46 14.98 21.15 48.33 47.26 52.28 47.26z" fill="#db0a28"/><path d="m64.55 114.2s52.26-38.68 56.75-62.3c4.25-22.37-4.45-33.22-15.16-38.45-27.15-13.26-40.85 12.76-42.14 12.76s-14.05-26.07-40.3-14.79c-14.46 6.21-20.52 23.11-14.79 42.15 8.41 27.94 55.64 60.63 55.64 60.63z" fill="#ff262e"/></svg>