<svg enable-background="new 0 0 128 128" viewBox="0 0 128 128" xmlns="http://www.w3.org/2000/svg"><path d="m116.87 32.29h-105.74l-7.13 17.67h120z" fill="#f44336"/><path d="m99.9 26.61h-71.8c-1.34 0-2.68.24-3.93.72l-13.05 4.96h105.75l-13.05-4.96c-1.25-.48-2.58-.72-3.92-.72z" fill="#ff7555"/><path d="m119.97 117.61h-111.94c-2.23 0-4.03-1.8-4.03-4.03v-63.62h120v63.62c0 2.23-1.8 4.03-4.03 4.03z" fill="#c62828"/><path d="m4 70.1h120" fill="none" stroke="#a80707" stroke-miterlimit="10" stroke-width="2.13"/><path d="m41.05 65.28h-16.52c-.94 0-1.71.66-1.71 1.47v9.71c0 .81.76 1.47 1.71 1.47h2.45v5.06c0 2.16 2.03 3.91 4.54 3.91h2.55c2.5 0 4.54-1.75 4.54-3.91v-5.06h2.45c.94 0 1.71-.66 1.71-1.47v-9.71c-.02-.81-.78-1.47-1.72-1.47z" fill="#a80707"/><path d="m39.88 75.92h-14.19c-.6 0-1.08-.48-1.08-1.08v-10.26c0-.6.48-1.08 1.08-1.08h14.18c.6 0 1.08.48 1.08 1.08v10.26c.01.6-.48 1.08-1.07 1.08z" fill="#558ea0"/><path d="m28.02 70.03h9.53" fill="none" stroke="#332424" stroke-miterlimit="10" stroke-width="2.83"/><path d="m37.55 68.62h-9.53v-5.31c0-1.58 1.28-2.87 2.87-2.87h3.8c1.58 0 2.87 1.28 2.87 2.87v5.31z" fill="#82aec0"/><path d="m28.02 71.28h9.53v10.58c0 1.58-1.28 2.87-2.87 2.87h-3.8c-1.58 0-2.87-1.28-2.87-2.87v-10.58z" fill="#82aec0"/><path d="m35.83 79.59c.43 0 .94.36 1.06 1 .06.36-.14 1.1-.42 1.34-.51.43-1.19.71-1.9.88-1.1.27-2.3.32-3.39.03-1.09-.28-2.23-.83-2.56-1.74-.5-1.39 1.37-1.49 7.21-1.51z" fill="#a1d5e5"/><path d="m103.47 65.28h-16.52c-.94 0-1.71.66-1.71 1.47v9.71c0 .81.76 1.47 1.71 1.47h2.45v5.06c0 2.16 2.03 3.91 4.54 3.91h2.55c2.5 0 4.54-1.75 4.54-3.91v-5.06h2.45c.94 0 1.71-.66 1.71-1.47v-9.71c-.01-.81-.77-1.47-1.72-1.47z" fill="#a80707"/><path d="m102.31 75.92h-14.19c-.6 0-1.08-.48-1.08-1.08v-10.26c0-.6.48-1.08 1.08-1.08h14.18c.6 0 1.08.48 1.08 1.08v10.26c0 .6-.48 1.08-1.07 1.08z" fill="#558ea0"/><path d="m90.45 70.03h9.53" fill="none" stroke="#332424" stroke-miterlimit="10" stroke-width="2.83"/><path d="m99.98 68.62h-9.53v-5.31c0-1.58 1.28-2.87 2.87-2.87h3.8c1.58 0 2.87 1.28 2.87 2.87v5.31z" fill="#82aec0"/><path d="m90.45 71.28h9.53v10.58c0 1.58-1.28 2.87-2.87 2.87h-3.8c-1.58 0-2.87-1.28-2.87-2.87v-10.58z" fill="#82aec0"/><path d="m98.55 79.59c.3.01.85.1 1.05.69s-.2 1.21-.71 1.64-1.19.71-1.9.88c-1.1.27-2.3.32-3.39.03-1.09-.28-2.07-.9-2.56-1.74-.78-1.33 1.83-1.74 7.51-1.5z" fill="#a1d5e5"/><path d="m90.53 27.05c-.47-.63-2.01-1.27-2.46-1.53-3.01-1.79-2.7-6.72-4.72-9.92-1.8-2.86-5.01-5.2-8.39-5.2 0 0-4.63 0-9.32 0-.08 0-.15 0-.23 0-4.7 0-9.32 0-9.32 0-3.38 0-6.59 2.35-8.39 5.2-2.02 3.2-1.71 8.13-4.72 9.92-.44.26-1.99.91-2.46 1.53-.58.78 0 1.6 0 1.6s4.47 0 5.46 0c2.67 0 4.17-4.49 4.4-5.1.91-2.5 2.57-6.19 5.71-6.19h9.32.23 9.32c3.14 0 4.8 3.7 5.71 6.19.22.61 1.72 5.1 4.4 5.1h5.46s.58-.82 0-1.6z" fill="#424242"/><path d="m51.22 13.39c1.43-1.19 3.28-1.9 5.14-1.88.51.01 1.04.07 1.47.35s.73.81.6 1.31c-.14.53-.69.84-1.2 1.04-1.85.72-3.99.88-5.46 2.2-1.01.91-1.54 2.22-2.26 3.37-.35.56-.82 1.13-1.48 1.2-.23.02-.48-.03-.63-.2-.26-.3-.1-.76.07-1.11.55-1.14.87-2.34 1.46-3.45.62-1.14 1.43-1.92 2.29-2.83z" fill="#616161"/><g fill="#a1d5e5"><path d="m33.2 63.45c-1.28.05-2.52.72-3.16 1.72-.15.23-.36.51-.64.45-.22-.05-.31-.28-.36-.48-.21-.84-.28-1.81.21-2.58.51-.81 1.5-1.28 2.46-1.4 1.94-.23 3.38-.32 3.71.89.39 1.43-1.2 1.36-2.22 1.4z"/><path d="m95.58 63.45c-1.28.05-2.52.72-3.16 1.72-.15.23-.36.51-.64.45-.22-.05-.31-.28-.36-.48-.21-.84-.28-1.81.21-2.58.51-.81 1.5-1.28 2.46-1.4 1.94-.23 3.38-.32 3.71.89.4 1.43-1.2 1.36-2.22 1.4z"/></g></svg>