<svg enable-background="new 0 0 128 128" viewBox="0 0 128 128" xmlns="http://www.w3.org/2000/svg"><path d="m4 4h120v120h-120z" fill="#fff"/><g fill="none" stroke="#b0bec5" stroke-miterlimit="10" stroke-width="2"><path d="m124 24.35h-118.43"/><path d="m124 43.67h-118.53"/><path d="m124 62.99h-118.64"/><path d="m124 82.31h-118.74"/><path d="m124 101.64h-118.85"/></g><path d="m38.72 121.91h-16.83v-66.53c0-1.36 1.1-2.46 2.46-2.46h11.91c1.36 0 2.46 1.1 2.46 2.46z" fill="#9ccc65"/><path d="m72.42 121.91h-16.84v-47.07c0-1.36 1.1-2.46 2.46-2.46h11.91c1.36 0 2.46 1.1 2.46 2.46v47.07z" fill="#f44336"/><path d="m103.64 121.91h-11.91c-1.36 0-2.46-1.1-2.46-2.46v-93.59c0-1.36 1.1-2.46 2.46-2.46h11.91c1.36 0 2.46 1.1 2.46 2.46v93.59c0 1.36-1.1 2.46-2.46 2.46z" fill="#0091ea"/><path d="m124 120h-116v-116h-4v120h120z" fill="#b0bec5"/><path d="m122 6v116h-116v-116zm2-2h-120v120h120z" fill="#b0bec5"/></svg>