<svg enable-background="new 0 0 128 128" viewBox="0 0 128 128" xmlns="http://www.w3.org/2000/svg"><path d="m123.87 118.8-6.18-16.49-4.25-11.35c-.96-2.93-1.14-4.14-2.77-5.77l-11.82-11.82-25.46 25.46 11.83 11.83c.97.97 2.83 1.8 5.76 2.76l11.35 4.25 16.49 6.18c3.11 1.01 6.06-1.94 5.05-5.05z" fill="#ffecb3"/><path d="m85.65 106.83-.03-.03z" fill="none"/><path d="m106.8 85.6.21.21c-.07-.07-.12-.16-.19-.23z" fill="none"/><path d="m118.82 123.85-13.66-5.12s5.64-.32 9.45-4.13 4.14-9.46 4.14-9.46l5.12 13.66c1.01 3.11-1.94 6.06-5.05 5.05z" fill="#616161"/><path d="m43.18 17.71-5.41 19.29-20.04 6.16-11.32-11.31c-3.12-3.12-4.6-9.34 3.67-17.61l4.99-4.99c7.15-7.15 13.68-5.98 16.8-2.86z" fill="#ef5350"/><path d="m34.27 44.64 10.37-10.37 60.23 60.23s1.23 5.12-1.9 8.25-8.47 2.12-8.47 2.12z" fill="#ffc107"/><path d="m26.73 52.18 58.58 58.58c9.46 2.06 9.05-6.03 9.05-6.03l-60.09-60.09z" fill="#ffa000"/><path d="m44.65 34.26 60.09 60.09s10.82 0 5.87-9.21l-58.42-58.42z" fill="#fdd835"/><path d="m94.27 106.04-60.61-60.61 1.41-1.41 61 61-1.57-.16z" fill="#d1762c"/><path d="m105.11 96.15-64.96-64.96 1.42-1.41 64.47 64.47-1.17.24z" fill="#f19534"/><path d="m52.19 26.72s-5.47 8.09-10 12.67c-8.67 8.74-15.46 12.79-15.46 12.79l1.75 1.75c2.49-.97 8.86-3.88 15.22-10.23 6.4-6.4 9.42-12.65 10.43-15.04z" fill="#4e342e" opacity=".2"/><path d="m23.49 51.9c.56.56 1.35.81 2.13.68 0 0 8.19-2.5 16.33-10.64s10.83-16.07 10.83-16.07c.13-.78-.12-1.58-.68-2.14l-8.58-8.58c-.36-.36-.86-.55-1.36-.49-.17.02-.34.04-.52.07-.68.1-1.22.6-1.41 1.26 0 0-3.92 7.6-10.38 14.05s-14.34 10.21-14.34 10.21c-.66.18-1.17.71-1.27 1.39v.02c-.08.54.1 1.08.48 1.46z" fill="#94d1e0"/><ellipse cx="15.05" cy="15.04" fill="#ff8383" rx="15.03" ry="4.45" transform="matrix(.7071 -.7071 .7071 .7071 -6.23 15.05)"/><g fill="#b9e4ea"><path d="m41.61 21.74c-3.29 6.3-8.7 11.47-15.14 14.46-.42.19-1.01.33-1.26-.05-.19-.3-.02-.68.17-.98.84-1.3 2-2.35 3.12-3.42 2.92-2.8 5.6-5.84 8.01-9.08 1.23-1.65 2.38-3.35 3.46-5.1.6-.96 1.67-2.99 3.04-1.56 1.19 1.23-.77 4.52-1.4 5.73z"/><path d="m37.88 33.47c-.26.27-.53.54-.66.89s-.08.8.22 1.02c.25.19.59.17.9.12 1.73-.27 3.26-1.25 4.61-2.35 2.95-2.39 5.45-5.71 5.69-9.5.03-.45.02-.92-.18-1.32-1.27-2.51-3.96 3.1-4.49 3.89-1.77 2.63-3.88 4.99-6.09 7.25z"/></g></svg>