<svg enable-background="new 0 0 128 128" viewBox="0 0 128 128" xmlns="http://www.w3.org/2000/svg"><path d="m71.8 8.78h-5.83l.02-7.16h-4.4l.01 7.16h-5.96v4.06h5.97l.04 13.19 4.28-1.78.03-11.41h5.84z" fill="#614f46"/><path d="m49.69 59.86s-33.63 30.89-33.55 31.37 3.62 3.06 3.62 3.06l33.24-10.56z" fill="#896159"/><path d="m78 58.32s34.27 32.47 34.1 33.1c-.12.47-3.76 1.97-3.76 1.97s-35.64-17.34-35.55-18.16 5.21-16.91 5.21-16.91z" fill="#896159"/><path d="m49.75 66.45-30.06 27.78s-.01 27.26-.01 28.2.5 1.33 1.35 1.42 86.87.29 87.34.11c.07-.03.19-1.46.17-2.5-.09-6.45-.07-28.13-.07-28.13l-30.95-28.7z" fill="#c0b8b3"/><path d="m45.4 44.39c-.22-1.2 2.22-2.08 3.08-3.22s10.52-14.96 11.66-16.47c1.15-1.5 2.22-3.36 3.51-3.36s3.25 3 4.29 4.37c1.57 2.08 10.46 14.38 11.02 15.03.86 1 3.08 2.22 3.08 3.08 0 .79-4.65 4.51-4.65 4.51l-28.13-1.15s-3.58-1.22-3.86-2.79z" fill="#896159"/><path d="m48.61 45.07s29.72-.61 29.86-.25.13 4.82.13 4.82l-18.1 2.12-11.95-2.08z" fill="#bdb8b1"/><path d="m48.77 121.38-.22-71.7 30.05-.08 1.03 71.78z" fill="#5f4d4e"/><g fill="#efebea"><path d="m106.08 95.87-23.87-21.7.54 47.12 23.42.09z"/><path d="m45.07 75.99-23.15 20.88-.9 16.43 1.09 8.08h23.33z"/><path d="m50.98 49.57.45 71.81 25.83.01-.68-71.79z"/></g><path d="m106.08 95.87 2.44 2.36.03 23.22-2.38-.07z" fill="#5f4d4e"/><path d="m21.92 96.87-2.24 2.2v22.38l2.43-.07z" fill="#5f4d4e"/><path d="m54.44 121.38s-.21-18.88-.16-24.07c.06-5.18 3.19-10.16 9.74-10.14 6.99.02 9.86 4.88 9.86 10.32 0 5.02.18 23.9.18 23.9z" fill="#d27856"/><path d="m69.55 100.05h-3.76v-6.78h-3.3v6.78h-3.82v3.41h3.82v13.73h3.3v-13.73h3.76z" fill="#ac5832"/><path d="m72.35 120-16.32-.13v-.74c0-.86-.04-21.17 0-22.08.08-1.83.89-7.8 7.91-8.01 2.49-.06 4.47.6 5.92 2.01 2.26 2.2 2.38 5.41 2.38 6.04 0 1.31.11 22.16.11 22.16zm-14.82-1.61 13.31.1c-.02-3.76-.11-20.25-.11-21.41 0-.32-.05-3.15-1.92-4.96-1.14-1.11-2.78-1.64-4.83-1.58-5.57.16-6.37 4.65-6.45 6.58-.03.68-.01 13.8 0 21.27z" fill="#ac5832"/><path d="m70.4 104.6c-.87.03-.87.86-.87 2.34s-.03 2.36.93 2.38c.99.03.89-1.04.85-2.47-.02-1.13.17-2.29-.91-2.25z" fill="#f5bf0a"/><path d="m29.83 96.41.01 10.53 2.91 8.33h2.15l2.91-9.04.09-9.82z" fill="#e4bbab"/><path d="m29.84 106.68s1.61.86 2.22 3.18.69 5.42.69 5.42-1.66.03-2.15 0c-.69-.04-.67-.72-.72-1.25s-.04-7.35-.04-7.35z" fill="#6da5b0"/><path d="m37.81 106.23s-1.51.55-2.28 3.4c-.67 2.47-.63 5.64-.63 5.64s1.84 0 2.33 0 .67-.72.67-1.16c0-.45-.09-7.88-.09-7.88z" fill="#6da5b0"/><path d="m37.85 101.07s-1.75 1.55-4.06 1.55c-2.56 0-3.96-1.75-3.96-1.75v3.56s1.17.24 2.46 1.34c.87.75 1.44 2.26 1.44 2.26s.35-1.36 1.5-2.46c1.32-1.26 2.58-1.47 2.58-1.47z" fill="#fccb7e"/><path d="m29.8 96.23c-.05 1.5.85 4.19 4.15 4.2 2.94.01 3.94-2.26 3.94-4.11s-1.03-4.14-4.13-4.18c-2.43-.02-3.89 1.96-3.96 4.09z" fill="#9f7cdc"/><path d="m33.86 94.57c-.97.02-1.66.58-1.75 1.61s.76 1.87 1.8 1.87 1.8-.87 1.73-1.89c-.05-.9-.78-1.62-1.78-1.59z" fill="#d05e53"/><path d="m90.18 96.5.06 10.22 2.94 8.3h2.12l2.97-9.12-.03-9.72z" fill="#e4bbab"/><path d="m95.19 115.02s.08-3.89.61-5.32c.73-1.97 2.48-3.8 2.48-3.8s0 7.34 0 7.83-.05 1.25-.48 1.27c-.6.04-2.61.02-2.61.02z" fill="#6da5b0"/><path d="m90.24 106.72s1.48.6 2.28 2.73c.81 2.17.67 5.56.67 5.56s-1.85-.04-2.22-.05c-.77-.04-.78-.61-.75-1.58.01-.87.02-6.66.02-6.66z" fill="#6da5b0"/><path d="m90.21 100.67.03 3.28s1.52.69 2.31 1.45c.85.81 1.62 2.31 1.62 2.31s.86-1.81 1.66-2.52c1.25-1.12 2.43-1.52 2.43-1.52l-.01-2.93s-1.63 1.8-4.15 1.73-3.89-1.8-3.89-1.8z" fill="#fccb7e"/><path d="m94.21 91.99c-1.81-.04-3.94 1.3-4.02 4.22-.08 2.76 2.25 4.06 4.14 3.98s3.82-1.18 3.92-4.02c.09-3.07-2.31-4.14-4.04-4.18z" fill="#9f7cdc"/><path d="m94.24 94.36c-.95 0-1.74.71-1.7 1.85s.8 1.73 1.75 1.73c1.02 0 1.75-.55 1.76-1.92.02-1.03-.65-1.66-1.81-1.66z" fill="#d05e53"/><path d="m63.66 55.32c-7.3-.04-10.92 5.75-10.61 11.29.34 6.05 4.45 10.37 10.85 10.29 6.75-.09 10.51-4.93 10.46-11.11-.04-6.14-4.42-10.44-10.7-10.47z" fill="#63697f"/><path d="m63.43 56.79c-5.1.13-8.99 4.15-9.04 9.56-.04 5.28 4.15 9.04 9.21 9.08 4.84.04 9.12-3.24 9.34-9.08.23-6.21-4.46-9.69-9.51-9.56z" fill="#6da5b0"/><path d="m63.85 61.51c-2.83-.1-4.71 1.9-4.69 4.58.02 2.31 1.32 4.77 4.6 4.78 3.06.02 4.7-2.18 4.74-4.51.02-2.09-.92-4.72-4.65-4.85z" fill="#e4bbab"/><path d="m69.1 63.22 1.6-.94c-.76-1.43-1.93-2.5-3.35-3.16l-.72 1.83c1.02.48 1.89 1.25 2.47 2.27z" fill="#9f7cdc"/><path d="m69.64 67.75 1.64.64c.17-.63.28-1.3.3-2.02.03-.8-.05-1.55-.21-2.24l-1.73.47c.13.55.2 1.14.18 1.79-.01.49-.08.94-.18 1.36z" fill="#fccb7e"/><path d="m68.99 69.33c-.5.82-1.21 1.45-2.02 1.9l.93 1.65c1.08-.63 2-1.52 2.65-2.67z" fill="#9f7cdc"/><path d="m65.63 71.76c-.59.16-1.22.25-1.86.24-.45 0-.89-.06-1.31-.15l-.48 1.96c.54.11 1.1.18 1.67.18.9.01 1.76-.13 2.58-.38z" fill="#fccb7e"/><path d="m58.86 69.43-1.75 1.19c.76 1.12 1.82 2.01 3.07 2.59l.98-1.81c-.94-.45-1.73-1.12-2.3-1.97z" fill="#9f7cdc"/><path d="m58.09 64.64-1.97-.42c-.18.68-.28 1.4-.29 2.15-.01.98.18 1.89.49 2.72l1.91-.9c-.2-.56-.32-1.15-.35-1.79-.01-.62.06-1.21.21-1.76z" fill="#fccb7e"/><path d="m59.71 59.42c-1.21.71-2.2 1.72-2.88 2.98l1.76 1c.51-.94 1.28-1.7 2.21-2.22z" fill="#9f7cdc"/><path d="m63.51 58.35c-.74.02-1.45.14-2.12.34l.69 1.94c.52-.15 1.06-.24 1.63-.26.51-.01 1.01.04 1.5.13l.39-1.95c-.68-.15-1.38-.22-2.09-.2z" fill="#fccb7e"/></svg>