<svg enable-background="new 0 0 128 128" viewBox="0 0 128 128" xmlns="http://www.w3.org/2000/svg"><path d="m50.1 60.55c-.09.86-.15 1.57-.16 2.07-.08 3.96-.8 10.94-.74 11.25.11.63 1.3 1.84 1.62 5.27.1 1.08-.06 2.32-.24 2.48-.49.44-1.09-.07-1.36-1.53-.16-.88-.66-1.2-.86-.67-.3.81-.17 1.44.19 2.92.32 1.3.72 1.9.56 2.65-.09.4-.74 1.1-1.06.39-.23-.5-.36-.7-.36-.7s-.32.37-1.03-.21c-1.63-1.34-3.57-3.04-3.66-4.8-.13-2.66.79-4.76.86-5.73s-.6-5.55-.35-9.4c.07-1.1.64-3.96.78-5.86.05-.64.13-1.33.24-2.08 2.53 2.05 3.9 2.91 5.58 3.92z" fill="#ba8d68"/><path d="m77.38 46.76s-2.01-2.11-4.6-.95c-.63.28 3.2 12.39 3.71 16.5s1.91 10.8 1.89 11.11c-.04.64-1.11 1.97-1.07 5.41.01 1.08.3 2.3.5 2.45.54.39 1.08-.18 1.2-1.66.07-.89.53-1.26.78-.75.38.77.32 1.41.11 2.92-.18 1.33-.52 1.96-.28 2.7.13.39.85 1.02 1.1.28.18-.52.28-.73.28-.73s.36.34 1.01-.31c1.48-1.5 3.24-3.39 3.14-5.15-.14-2.66-1.27-4.65-1.44-5.61s.03-5.58-.61-9.38c-.18-1.09-1.04-3.87-1.38-5.75-1.08-6.02-4.33-11.06-4.33-11.06z" fill="#ba8d68"/><path d="m44.33 57.51-.16 2.27s1.42 1.68 3.32 2.71c1.23.67 1.48 2.52 1.43 3.44s-.59 7.07-.43 7.66 1.3 1.45 1.57 2.21-.81-2.58-.81-2.58.59-6.74.7-8.47.22-5.02.22-5.02l-5.82-2.21z" fill="#99674f"/><path d="m77.18 66.67s-.13-3.37.34-4.45c.53-1.21 1.84-1.87 2.61-2.28s1.83-.88 1.83-.88l-.59-2.86-5.52 3.67s.53 2.03.63 2.43.42 3.53.69 4.36z" fill="#99674f"/><g fill="#824e3a"><path d="m47.45 84.27s-2.21-2.81-1.94-3.62c.09-.27.58-.18.72.25.3.98 1.22 3.38 1.22 3.37z"/><path d="m45.77 83.71s-2.43-2.63-1.84-2.93c.25-.12.57.8.88 1.37s.96 1.56.96 1.56z"/><path d="m81.18 83.58s1.91-3.02 1.56-3.8c-.12-.26-.6-.12-.69.32-.2 1.01-.87 3.48-.87 3.48z"/><path d="m82.79 82.85s2.15-2.87 1.53-3.1c-.26-.1-.48.85-.74 1.45s-.79 1.65-.79 1.65z"/><path d="m49.8 81.55c0-.09-.29-1.47-.33-1.83s-.23-1.28-.77-1.16c-.65.14-.99.7-.86 1.49.28 1.66.86 3.23 1.02 3.5s-.5-2.13-.55-2.95c-.05-.88.03-1.35.3-1.41.43-.09.52.98.8 1.74.23.62.38.61.38.61h.01z"/><path d="m78.75 80.77s.13-.32.19-.75.18-1.35.5-1.38.56.53.6 1.01-.16 2.51-.4 3.45-.03 1.53.14 1.66c.05-.34.11-1.1.24-1.68.19-.84.55-2.74.4-3.69s-.53-1.48-1.22-1.27c-.56.17-.56 1.19-.56 1.59s.12 1.06.12 1.06z"/></g><path d="m74.89 40.31s3.05-6.43 2.95-18.59-6.81-17.29-14.23-17.69-16.62 4.7-16.16 19.8c.25 8.44 1.98 14.38 3.42 17.91 5.06.09 12.24.09 12.24.09s11.78-1.52 11.78-1.52z" fill="#543930"/><path d="m55 38.95 3.85-1.59s.07-.57.05-1.23c-.04-1.53-.04-3.04-.04-3.04l8.32.04s-.01.92 0 2.61c0 .44.06 1.11.05 1.52l3.84.88-8.37 4.09-7.7-3.27z" fill="#99674f"/><path d="m53.67 110.08s.32 2.64-.46 4.58c-.71 1.74-2.66 3.69-3.02 6.31-.15 1.11 1.35 2.06 1.79 2.3 2.7 1.51 6.04.52 6.95-1.91.54-1.43.72-2.38 1.15-3.14s1.05-1.67 1.05-2.53.02-6 .02-6l-7.48.38z" fill="#359"/><path d="m74.71 109.82s-.32 2.64.46 4.58c.71 1.74 2.66 3.69 3.02 6.31.15 1.11-1.35 2.06-1.79 2.3-2.7 1.51-6.04.52-6.95-1.91-.54-1.43-.72-2.38-1.15-3.14s-1.05-1.67-1.05-2.53-.02-6-.02-6l7.48.38z" fill="#359"/><path d="m52.02 69.37s-.47 6.5-.18 21.72c.19 10.08.79 19.68.88 20.06s2.1.88 4.11.86c2.67-.02 4.63-.53 4.77-1.04s1.14-6.87 1.23-13.26c.04-2.61.06-4.87.11-6.93.1-4.05.34-6.84 1.17-6.8.67.03.79 3.16.92 6.43.12 2.85.29 5.82.29 6.95 0 2.44 1.17 12.82 1.19 13.19s2.24 1.3 4.65 1.2 4.37-.52 4.41-.91.6-11.57.6-19.7-.48-22.39-.48-22.39l-14.09-3.9-9.6 4.51h.02z" fill="#7c7c7c"/><path d="m63.49 62.63-11.49 7.27-.12 2.82s6.56 2.49 11.84 2.29c7.86-.3 12.09-2.62 12.09-2.62l-.09-3.17z" fill="#686868"/><path d="m74.43 39.11c-2.12-1.31-7.18-2.01-7.18-2.01s-.08 3.07-4.04 3.19c-3.53.1-4.43-3.06-4.43-3.06s-4.27.73-7.39 2.23c-2.6 1.26-3.51 3.28-4.76 6.97s-4.03 9.57-3.76 10.03c.38.64 1.2 1.26 2.83 2.51s3.27 1.87 3.27 1.87l1.88-1.13 1.13 2.13s.06 1.84 0 2.65-.41 5.3.09 5.61 5.5 2.91 12.01 2.66 11.36-2.34 11.63-3.19c.19-.6-.06-4.64-.09-5.62-.06-1.88-.19-3.12-.19-3.12l1.13-2.94 1.81 1.5s1.28-.64 2.97-1.89 2.53-1.99 2.53-2.55-3.35-6.71-5.09-9.48c-1.69-2.69-2.1-4.97-4.35-6.36z" fill="#583ee2"/><path d="m75.43 60.84s-.26-4.04-.29-5.65-.7-5.71.33-6.07c1.21-.43 1.62 3.21 1.84 4.86s1.07 5.42 1.07 5.42-.74.44-1.49.8c-.67.33-1.46.64-1.46.64z" fill="#4b0fce"/><path d="m48.97 60.84s.6-3.39.82-5.52.48-5.12.81-5.68 1.18-.52 1.32.35 0 6.68 0 7.85.08 4.17.08 4.17-.62-.24-1.41-.51c-1.02-.34-1.62-.66-1.62-.66z" fill="#4b0fce"/><path d="m65.61 10.76c-.2 0-2.44 2.76-6.48 4.82-4.58 2.33-6.88 2.67-6.88 2.67s-.44 4.33.34 8.99c.69 4.14 4.41 8.73 10.46 8.92 6.5.21 9.99-5.55 10.39-9.59.41-4.19-.3-8.93-.3-8.93s-2.67-1.47-4.51-3.38c-1.83-1.91-3.01-3.49-3.02-3.5z" fill="#ba8d68"/><path d="m63.04 26.56c-1.09.02-1.5-.35-1.88.04-.35.36-.04.87.55 1.33.8.62 2.03.6 2.67.03s.91-1.05.5-1.4-.73-.02-1.84 0z" fill="#99674f"/><path d="m54.25 19.8c.28.46 1.24-.26 2.77-.31 1.25-.04 2.34.85 2.59.04.31-.96-.72-1.37-2.57-1.29s-3.17.93-2.79 1.56z" fill="#613e31"/><path d="m66.26 19.75c.63.17 1.11-.28 2.4-.2 1.2.08 2.38.61 2.72.22s-.55-1.33-2.53-1.53c-1.79-.17-2.88.31-3.01.7s.15.73.42.81z" fill="#613e31"/><g fill="#49352e"><path d="m57 21.11c-1.46-.02-2.03 1.24-1.94 2.14s.76 1.74 2.05 1.72 1.9-.83 1.9-1.9-.65-1.94-2.01-1.96z"/><path d="m68.7 21.07c-1.09-.12-2.09.65-2.05 1.96.05 1.46 1.33 1.92 2.03 1.92 1 0 1.81-.74 1.83-1.81.02-1.2-.59-1.94-1.81-2.07z"/><path d="m63.16 29.97c-1.58 0-3.09-.59-3.37.03-.42.92 1.15 1.97 3.43 1.97 2.92 0 3.88-1.47 3.51-1.99s-1.74 0-3.57 0z"/></g></svg>