<svg enable-background="new 0 0 128 128" viewBox="0 0 128 128" xmlns="http://www.w3.org/2000/svg"><path d="m40.05 80.51v-46.34c0-16.97 6.02-29.31 12.97-29.94 6.02-.55 11.45 1.47 17.97 5.83 9.38 6.27 16.96 16.09 16.96 26.11v44.34s-7.04 1.44-23.95 1.44-23.95-1.44-23.95-1.44z" fill="#c62828"/><path d="m54.21 25.21c7.98 12.97 19.96 15.97 26.95 12.97 4.94-2.12 5.56-5.8 3.99-9.98-5.99-15.96-23.96-25.94-31.94-23.95-4.94 1.24-5.7 10.08 1 20.96z" fill="#f44336"/><path d="m68.34 36.84c.75.51.05 1.07-.8.75-3.3-1.23-8.84-2.92-14.51-9.72-3.39-4.07-5.37-9.4-5-14.68.12-1.66.85-4.47 2.07-6.35.51-.79.86-.42.7.74-.67 4.9.77 9.27 2.11 12.19 4.39 9.53 10.98 14.03 15.43 17.07z" fill="#ff8383"/><path d="m93.47 96.85s-9.75 2.65-29.74 2.65-29.2-2.65-29.2-2.65v-16.83l58.93-.07v16.9z" fill="#e2a610"/><path d="m91.05 95.11-11.52 1.85v-13.54l11.52-1.86z" fill="#9e740b"/><path d="m87.95 79.9s-8.09 2.1-25.36 2.1-22.54-2.1-22.54-2.1v-11.24s3.3 7.42 23.38 5.81c21.39-1.71 24.53-12.42 24.53-12.42v17.85z" fill="#a12524"/><path d="m87.96 76.67c0 2.24-10.81 4.05-23.96 4.05s-24-1.81-24-4.05c0 0-5.47 2.16-5.47 3.26 0 2.77 13.19 5.02 29.47 5.02s29.47-2.25 29.47-5.02c0-1.11-5.51-3.43-5.51-3.26z" fill="#ffca28"/><path d="m50.99 83.9c-3.44-.23-5.85-.88-6.59-1.79-1.12-1.37.19-2.18 1.62-2.02 1.94.22 2.22.43 6.1.81 4.53.44 7.92.44 6.85 1.79-.72.9-3.98 1.48-7.98 1.21z" fill="#fff59d"/><path d="m100.19 96.29s-11.83 4.6-35.92 4.6-36.45-4.55-36.45-4.55l.04 21.82c.97 3.25 16.78 5.84 36.14 5.84s35.17-2.59 36.14-5.85z" fill="#424242"/><path d="m96.5 120.56c-2.09.91-9.92 2.4-16.02 2.75v-21.81l16.05-2.59z" fill="#212121"/><path d="m93.42 92.21c0 2.75-13.28 4.97-29.42 4.97s-29.48-2.23-29.48-4.97c0 0-6.71 2.65-6.71 4 0 3.4 16.2 6.16 36.19 6.16s36.19-2.76 36.19-6.16c0-1.35-6.77-4.2-6.77-4z" fill="#757575"/><path d="m55.42 101.12c-3.87.11-10.42-.27-14.17-1.46-3.62-1.15-1.95-3.79 1.25-3.24 2.95.51 7.32 1.37 17.77 1.49 3.13.03 3.29 1.08 3.09 1.75-.28.95-1.57 1.29-7.94 1.46z" fill="#90a4ae"/></svg>