<svg enable-background="new 0 0 128 128" viewBox="0 0 128 128" xmlns="http://www.w3.org/2000/svg"><path d="m53 7.71s-18.09-5.23-24.78 2.14-7.03 16.07-7.7 21.43 2.34 16.74 4.35 21.76 5.36 13.39 5.02 19.42.76 21.55 1.34 25.11c1.31 8.04 7.37 22.77 13.73 24.44s8.37-1.34 8.37-7.7 2.01-42.52 13.39-41.18c11.38 1.33 10.71 14.72 11.05 21.42.33 6.7 3.38 28.41 9.07 27.74s12.69-15.69 13.03-28.41-3.01-18.41 0-28.12 7.7-19.08 7.7-29.13c0-7.8.45-20.57-7.37-26.78-7.1-5.64-12.1-4.21-15.74-4.02-9.08.48-14.1 6.89-31.46 1.88z" fill="#e1e7ea"/><path d="m67.15 24.05c4.28 0 19.83-7.54 18-9.46-2.79-2.93-14.74 3.63-19.2 3.34-4.66-.3-9.47-2.2-13.97-2.69-1.55-.17-3.54.33-1.85 2.32 1.23 1.44 12.74 6.49 17.02 6.49z" fill="#95cbde"/><path d="m50.17 24.16c2.26 1.5 4.51 3.39 5.22 6.01.1.37.17.77.04 1.14-.12.33-.39.59-.67.8-1.35 1-3.1 1.26-4.78 1.28-4.75.05-9.5-1.62-13.17-4.63-2.32-1.9-7.57-9.53-1.65-10.3 4.9-.65 11.13 3.14 15.01 5.7z" fill="#fff"/><path d="m90.95 20.34c1.11-.35 2.41-.63 3.37.03.44.3.74.77.95 1.26.78 1.81.4 3.97-.6 5.67s-2.56 3-4.18 4.13c-2.43 1.68-5.13 3.04-8.03 3.59s-6.03.22-8.58-1.27c-.33-.19-.66-.42-.84-.75-.39-.73.1-1.63.72-2.17 5.1-4.41 10.69-8.42 17.19-10.49z" fill="#fff"/><path d="m35.7 6.28c-2.95.5-5.64 1.55-7.48 3.57-6.69 7.37-7.03 16.07-7.7 21.43s2.34 16.74 4.35 21.76c.22.55.49 1.26.73 1.87-2.19-16.19-1.74-36 10.1-48.63zm10.55.07c6.13 2.49 12.25 6.73 19.17 6.73 4 0 9.6-3.72 14.7-6.57-6.79 1.65-12.7 5.36-27.12 1.2 0 0-2.88-.82-6.75-1.36zm48.05.09c7.57 7.92 10.88 19.9 8.83 33.02-.66 4.27.33 8.76 1.55 12.36 1.63-4.97 2.89-9.99 2.89-15.19 0-7.8.45-20.57-7.37-26.78-2.16-1.71-4.11-2.77-5.9-3.41z" fill="#c9d4da"/><path d="m103.35 55.72c-6.25 2.96-11.16 11.77-11.16 16.43 0 3.52 2.83 4.05 3.34 6.45 1.99 9.48 1.99 18.9-.5 27.75-2.51 8.9-7.12 13.05-9.38 13.45-.96.17-1.92-.22-2.79-1.08 1.14 2.3 2.46 3.75 3.98 3.57 5.69-.67 12.69-15.69 13.03-28.41s-3.01-18.41 0-28.12c1.04-3.37 2.29-6.71 3.48-10.04zm-76.03 3.33.02.5c1.48 4.27 2.77 9.06 2.55 12.91-.34 6.03.76 21.55 1.34 25.11 1.31 8.04 7.37 22.77 13.73 24.44s8.37-1.34 8.37-7.7 2.01-42.52 13.39-41.18c11.38 1.33 10.71 14.72 11.05 21.42.12 2.46.62 6.95 1.47 11.61-.03-2.58.18-5.44.73-8.57 3.88-21.88-8.72-27.78-13.19-27.78-7.46 0-12.66 5.54-15.6 22.21-1.67 9.45 1.69 28.13-4.19 28.13-3.22 0-8.61-5.79-11.32-15.31-1.62-5.74-2.57-12.07-3-20.61-.2-3.96 3.61-7.75 3.61-12.8 0-4.16-4.52-10.27-8.96-12.38z" fill="#a3b6c3"/></svg>