<svg enable-background="new 0 0 128 128" viewBox="0 0 128 128" xmlns="http://www.w3.org/2000/svg" xmlns:xlink="http://www.w3.org/1999/xlink"><linearGradient id="a" gradientUnits="userSpaceOnUse" x1="-153" x2="-85.92" y1="-607.79" y2="-607.79"><stop offset="0" stop-color="#fff" stop-opacity="0"/><stop offset=".2869" stop-opacity=".29"/><stop offset=".5251"/><stop offset=".7529" stop-opacity=".25"/><stop offset="1" stop-color="#fff" stop-opacity="0"/></linearGradient><linearGradient id="b" gradientUnits="userSpaceOnUse" x1="5.37" x2="122.37" y1="22.66" y2="105.16"><stop offset="0" stop-color="#fff" stop-opacity="0"/><stop offset=".1646" stop-color="#c8c8c8" stop-opacity=".16"/><stop offset=".3934" stop-color="#828282" stop-opacity=".39"/><stop offset=".5997" stop-color="#4a4a4a" stop-opacity=".6"/><stop offset=".7759" stop-color="#222" stop-opacity=".78"/><stop offset=".9151" stop-color="#090909" stop-opacity=".92"/><stop offset="1"/></linearGradient><path d="m-153-651.76h67.08v87.93h-67.08z" fill="url(#a)" opacity=".2"/><path d="m124 35.2c-1.85 1.12-3.66 2.06-5.43 2.85-1.78.8-3.52 1.45-5.24 1.98s-3.4.95-5.06 1.26c-1.66.32-3.29.54-4.89.68s-3.19.2-4.75.2-3.1-.06-4.62-.18-3.02-.28-4.5-.48c-1.48-.21-2.95-.45-4.4-.73s-2.89-.58-4.32-.91-2.85-.68-4.25-1.05c-1.41-.37-2.81-.76-4.21-1.15s-2.79-.81-4.17-1.22c-1.39-.41-2.77-.83-4.16-1.25-1.38-.42-2.77-.84-4.16-1.25s-2.78-.82-4.17-1.22c-1.4-.4-2.8-.78-4.21-1.15s-2.83-.72-4.25-1.05-2.87-.64-4.32-.91c-1.45-.28-2.92-.52-4.4-.73s-2.98-.37-4.5-.48-3.06-.18-4.62-.18-3.14.06-4.75.2-3.24.36-4.89.68c-1.66.32-3.34.73-5.06 1.26s-3.46 1.18-5.24 1.98c-1.77.8-3.58 1.74-5.43 2.85v-5.01s0-2.88 0-4.37v-5.01c1.85-1.12 3.66-2.06 5.43-2.85s3.52-1.45 5.24-1.98 3.4-.95 5.06-1.26c1.66-.32 3.29-.54 4.89-.68 1.61-.14 3.19-.2 4.75-.2s3.1.06 4.62.18c1.52.11 3.02.28 4.5.48s2.95.45 4.4.73 2.89.58 4.32.91 2.85.68 4.25 1.05c1.41.37 2.81.76 4.21 1.15s2.79.81 4.17 1.22 2.77.83 4.16 1.25c1.38.42 2.77.84 4.16 1.25s2.78.82 4.17 1.22 2.8.78 4.21 1.15 2.83.72 4.25 1.05c1.43.33 2.87.64 4.32.91 1.45.28 2.92.52 4.4.73s2.98.37 4.5.48 3.06.18 4.62.18 3.14-.06 4.75-.2 3.24-.36 4.89-.68c1.66-.32 3.34-.73 5.06-1.26s3.46-1.18 5.24-1.98 3.59-1.74 5.43-2.85v5.01 4.37s0 3.09 0 5.01z" fill="#f00"/><path d="m124 49.6c-1.85 1.12-3.66 2.06-5.43 2.85-1.78.8-3.52 1.45-5.24 1.98s-3.4.95-5.06 1.26c-1.66.32-3.29.54-4.89.68s-3.19.2-4.75.2-3.1-.06-4.62-.18-3.02-.28-4.5-.48c-1.48-.21-2.95-.45-4.4-.73s-2.89-.58-4.32-.91-2.85-.68-4.25-1.05c-1.41-.37-2.81-.76-4.21-1.15s-2.79-.81-4.17-1.22c-1.39-.41-2.77-.83-4.16-1.25s-2.77-.84-4.16-1.25-2.78-.82-4.17-1.22c-1.4-.4-2.8-.78-4.21-1.15s-2.83-.72-4.25-1.05c-1.43-.33-2.87-.64-4.32-.91-1.45-.28-2.92-.52-4.4-.73s-2.98-.37-4.5-.48-3.06-.18-4.62-.18-3.14.06-4.75.2-3.24.36-4.89.68c-1.66.32-3.34.73-5.06 1.26s-3.46 1.18-5.24 1.98-3.58 1.73-5.43 2.85v-5.01s0-2.88 0-4.37 0-3.09 0-5.01c1.85-1.12 3.66-2.06 5.43-2.85 1.78-.8 3.52-1.45 5.24-1.98s3.4-.95 5.06-1.26c1.66-.32 3.29-.54 4.89-.68 1.61-.14 3.19-.2 4.75-.2s3.1.06 4.62.18c1.52.11 3.02.28 4.5.48s2.95.45 4.4.73 2.89.58 4.32.91 2.85.68 4.25 1.05c1.41.37 2.81.76 4.21 1.15 1.4.4 2.79.81 4.17 1.22 1.39.41 2.77.83 4.16 1.25 1.38.42 2.77.84 4.16 1.25s2.78.82 4.17 1.22 2.8.78 4.21 1.15 2.83.72 4.25 1.05c1.43.33 2.87.64 4.32.91 1.45.28 2.92.52 4.4.73s2.98.37 4.5.48 3.06.18 4.62.18 3.14-.06 4.75-.2 3.24-.36 4.89-.68c1.66-.32 3.34-.73 5.06-1.26s3.46-1.18 5.24-1.98 3.59-1.74 5.43-2.85v5.01s0 2.88 0 4.37 0 3.09 0 5.01z" fill="#fb8d00"/><path d="m124 64c-1.85 1.12-3.66 2.06-5.43 2.85-1.78.8-3.52 1.45-5.24 1.98s-3.4.95-5.06 1.26c-1.66.32-3.29.54-4.89.68s-3.19.2-4.75.2-3.1-.06-4.62-.18-3.02-.28-4.5-.48c-1.48-.21-2.95-.45-4.4-.73s-2.89-.58-4.32-.91-2.85-.68-4.25-1.05c-1.41-.37-2.81-.76-4.21-1.15s-2.79-.81-4.17-1.22c-1.39-.41-2.78-.83-4.16-1.25s-2.77-.84-4.16-1.25-2.78-.82-4.17-1.22c-1.4-.4-2.8-.78-4.21-1.15s-2.83-.72-4.25-1.05-2.87-.64-4.32-.91c-1.45-.28-2.92-.52-4.4-.73s-2.98-.37-4.5-.48-3.06-.18-4.62-.18-3.14.06-4.75.2-3.24.36-4.89.68c-1.66.32-3.34.73-5.06 1.26s-3.46 1.18-5.24 1.98c-1.77.79-3.58 1.73-5.43 2.85v-5.01s0-2.88 0-4.37v-5.01c1.85-1.12 3.66-2.06 5.43-2.85s3.52-1.45 5.24-1.98 3.4-.95 5.06-1.26c1.66-.32 3.29-.54 4.89-.68 1.61-.14 3.19-.2 4.75-.2s3.1.06 4.62.18c1.52.11 3.02.28 4.5.48 1.48.21 2.95.45 4.4.73s2.89.58 4.32.91 2.85.68 4.25 1.05c1.41.37 2.81.76 4.21 1.15 1.4.4 2.79.81 4.17 1.22 1.39.41 2.77.83 4.16 1.25s2.77.84 4.16 1.25 2.78.82 4.17 1.22 2.8.78 4.21 1.15 2.83.72 4.25 1.05c1.43.33 2.87.64 4.32.91 1.45.28 2.92.52 4.4.73s2.98.37 4.5.48 3.06.18 4.62.18 3.14-.06 4.75-.2 3.24-.36 4.89-.68c1.66-.32 3.34-.73 5.06-1.26s3.46-1.18 5.24-1.98 3.59-1.74 5.43-2.85v5.01 4.37s0 3.09 0 5.01z" fill="#ffe000"/><path d="m124 78.4c-1.85 1.12-3.66 2.06-5.43 2.85-1.78.8-3.52 1.45-5.24 1.98s-3.4.95-5.06 1.26-3.29.54-4.89.68c-1.61.14-3.19.2-4.75.2s-3.1-.06-4.62-.18c-1.52-.11-3.02-.28-4.5-.48-1.48-.21-2.95-.45-4.4-.73s-2.89-.58-4.32-.91-2.85-.68-4.25-1.05c-1.41-.37-2.81-.76-4.21-1.15s-2.79-.81-4.17-1.22c-1.39-.41-2.77-.83-4.16-1.25-1.38-.42-2.77-.84-4.16-1.25s-2.78-.82-4.17-1.22c-1.4-.4-2.8-.78-4.21-1.15s-2.83-.72-4.25-1.05-2.87-.64-4.32-.91c-1.45-.28-2.92-.52-4.4-.73s-2.98-.37-4.5-.48-3.06-.18-4.62-.18-3.14.06-4.75.2-3.24.36-4.89.68c-1.66.32-3.34.73-5.06 1.26s-3.46 1.18-5.24 1.98c-1.77.8-3.58 1.74-5.43 2.85v-5.01s0-2.88 0-4.37v-5.01c1.85-1.12 3.66-2.06 5.43-2.85 1.78-.8 3.52-1.45 5.24-1.98s3.4-.95 5.06-1.26c1.66-.32 3.29-.54 4.89-.68 1.61-.14 3.19-.2 4.75-.2s3.1.06 4.62.18c1.52.11 3.02.28 4.5.48 1.48.21 2.95.45 4.4.73s2.89.58 4.32.91 2.85.68 4.25 1.05c1.41.37 2.81.76 4.21 1.15 1.4.4 2.79.81 4.17 1.22 1.39.41 2.77.83 4.16 1.25 1.38.42 2.77.84 4.16 1.25s2.78.82 4.17 1.22 2.8.78 4.21 1.15 2.83.72 4.25 1.05c1.43.33 2.87.64 4.32.91 1.45.28 2.92.52 4.4.73s2.98.37 4.5.48 3.06.18 4.62.18 3.14-.06 4.75-.2 3.24-.36 4.89-.68c1.66-.32 3.34-.73 5.06-1.26s3.46-1.18 5.24-1.98 3.59-1.74 5.43-2.85v5.01 4.37s0 3.09 0 5.01z" fill="#43a047"/><path d="m124 92.8c-1.85 1.12-3.66 2.06-5.43 2.85-1.78.8-3.52 1.45-5.24 1.98s-3.4.95-5.06 1.26-3.29.54-4.89.68c-1.61.14-3.19.2-4.75.2s-3.1-.06-4.62-.18c-1.52-.11-3.02-.28-4.5-.48-1.48-.21-2.95-.45-4.4-.73s-2.89-.58-4.32-.91-2.85-.68-4.25-1.05c-1.41-.37-2.81-.76-4.21-1.15-1.4-.4-2.79-.81-4.17-1.22-1.39-.41-2.77-.83-4.16-1.25-1.38-.42-2.77-.84-4.16-1.25s-2.78-.82-4.17-1.22c-1.4-.4-2.8-.78-4.21-1.15s-2.83-.72-4.25-1.05-2.87-.64-4.32-.91c-1.45-.28-2.92-.52-4.4-.73s-2.98-.37-4.5-.48-3.06-.18-4.62-.18-3.14.06-4.75.2-3.24.36-4.89.68-3.34.73-5.06 1.26-3.46 1.18-5.24 1.98-3.58 1.73-5.43 2.85v-5.01s0-2.88 0-4.37v-5.01c1.85-1.12 3.66-2.06 5.43-2.85 1.78-.8 3.52-1.45 5.24-1.98s3.4-.95 5.06-1.26c1.66-.32 3.29-.54 4.89-.68 1.61-.14 3.19-.2 4.75-.2s3.1.06 4.62.18c1.52.11 3.02.28 4.5.48 1.48.21 2.95.45 4.4.73s2.89.58 4.32.91 2.85.68 4.25 1.05c1.41.37 2.81.76 4.21 1.15 1.4.4 2.79.81 4.17 1.22 1.39.41 2.77.83 4.16 1.25 1.38.42 2.77.84 4.16 1.25s2.78.82 4.17 1.22 2.8.78 4.21 1.15 2.83.72 4.25 1.05c1.43.33 2.87.64 4.32.91 1.45.28 2.92.52 4.4.73s2.98.37 4.5.48 3.06.18 4.62.18 3.14-.06 4.75-.2 3.24-.36 4.89-.68c1.66-.32 3.34-.73 5.06-1.26s3.46-1.18 5.24-1.98 3.59-1.74 5.43-2.85v5.01 4.37s0 3.09 0 5.01z" fill="#1565c0"/><path d="m124 107.2c-1.85 1.12-3.66 2.06-5.43 2.85-1.78.8-3.52 1.45-5.24 1.98s-3.4.95-5.06 1.26c-1.66.32-3.29.54-4.89.68-1.61.14-3.19.2-4.75.2s-3.1-.06-4.62-.18c-1.52-.11-3.02-.28-4.5-.48-1.48-.21-2.95-.45-4.4-.73s-2.89-.58-4.32-.91-2.85-.68-4.25-1.05-2.81-.76-4.21-1.15c-1.4-.4-2.79-.81-4.17-1.22-1.39-.41-2.77-.83-4.16-1.25-1.38-.42-2.77-.84-4.16-1.25s-2.78-.82-4.17-1.22c-1.4-.4-2.8-.78-4.21-1.15s-2.83-.72-4.25-1.05-2.87-.64-4.32-.91c-1.45-.28-2.92-.52-4.4-.73s-2.98-.37-4.5-.48-3.06-.18-4.62-.18-3.14.06-4.75.2-3.24.36-4.89.68c-1.66.32-3.34.73-5.06 1.26s-3.46 1.18-5.24 1.98-3.59 1.74-5.43 2.85v-5.01s0-2.88 0-4.37v-5.01c1.85-1.12 3.66-2.06 5.43-2.85s3.52-1.45 5.24-1.98 3.4-.95 5.06-1.26 3.29-.54 4.89-.68c1.61-.14 3.19-.2 4.75-.2s3.1.06 4.62.18c1.52.11 3.02.28 4.5.48s2.95.45 4.4.73 2.89.58 4.32.91 2.85.68 4.25 1.05c1.41.37 2.81.76 4.21 1.15 1.4.4 2.79.81 4.17 1.22 1.39.41 2.77.83 4.16 1.25 1.38.42 2.77.84 4.16 1.25s2.78.82 4.17 1.22c1.4.4 2.8.78 4.21 1.15s2.83.72 4.25 1.05c1.43.33 2.87.64 4.32.91 1.45.28 2.92.52 4.4.73s2.98.37 4.5.48 3.06.18 4.62.18 3.14-.06 4.75-.2 3.24-.36 4.89-.68 3.34-.73 5.06-1.26 3.46-1.18 5.24-1.98 3.59-1.74 5.43-2.85v5.01 4.37s0 3.09 0 5.01z" fill="#7a1fa6"/><path d="m120 26.98v5.44 4.72 4.48s0 3.06 0 4.72v5.44 5.33s0 3.2 0 4.69v4.37 4.37 4.69s0 3.41 0 5.33v5.44s0 3.21 0 4.72v4.48 4.72s0 3.45 0 5.44c-1.87.91-3.69 1.66-5.49 2.27-1.79.61-3.55 1.09-5.27 1.45s-3.42.63-5.08.8-3.3.26-4.9.28-3.19-.03-4.75-.14-3.09-.27-4.61-.47-3.01-.45-4.49-.72-2.95-.59-4.4-.92-2.89-.69-4.32-1.06-2.85-.77-4.26-1.17-2.82-.81-4.22-1.23l-4.2-1.26c-1.4-.42-2.8-.85-4.2-1.26s-2.81-.83-4.22-1.23-2.83-.79-4.26-1.17c-1.43-.37-2.87-.73-4.32-1.06s-2.92-.64-4.4-.92-2.98-.52-4.49-.72c-1.52-.2-3.05-.36-4.61-.47s-3.14-.16-4.75-.14-3.24.1-4.9.28c-1.66.17-3.35.43-5.08.8-1.72.37-3.48.84-5.27 1.45s-3.62 1.36-5.49 2.27v-5.44-4.72-4.48-4.72-5.44-5.33s0-3.2 0-4.69 0-2.93 0-4.37v-4.37s0-3.04 0-4.69 0-3.41 0-5.33v-5.43-4.72s0-2.97 0-4.48v-4.72-5.43c1.87-.91 3.69-1.66 5.49-2.27s3.55-1.09 5.27-1.45c1.72-.37 3.42-.63 5.08-.8s3.3-.26 4.9-.28c1.61-.02 3.19.03 4.75.14s3.09.27 4.61.47 3.01.45 4.49.72c1.48.28 2.95.59 4.4.92s2.89.69 4.32 1.06 2.85.77 4.26 1.17 2.82.81 4.22 1.23 2.8.84 4.2 1.26 2.8.85 4.2 1.26c1.4.42 2.81.83 4.22 1.23s2.83.79 4.26 1.17c1.43.37 2.87.73 4.32 1.06s2.92.64 4.4.92 2.98.52 4.49.72c1.52.2 3.05.36 4.61.47s3.14.16 4.75.14 3.24-.1 4.9-.28c1.66-.17 3.35-.43 5.08-.8 1.72-.37 3.48-.84 5.27-1.45s3.62-1.38 5.49-2.29m4-6.18c-1.85 1.12-3.66 2.06-5.43 2.85-1.78.8-3.52 1.45-5.24 1.98s-3.4.95-5.06 1.26c-1.66.32-3.29.54-4.89.68s-3.19.2-4.75.2-3.1-.06-4.62-.18c-1.52-.11-3.02-.28-4.5-.48-1.48-.21-2.95-.45-4.4-.73s-2.89-.58-4.32-.91-2.85-.68-4.25-1.05c-1.41-.37-2.81-.76-4.21-1.15s-2.79-.81-4.17-1.22c-1.39-.41-2.77-.83-4.16-1.25-1.38-.42-2.77-.84-4.16-1.25s-2.78-.82-4.17-1.22-2.8-.78-4.21-1.15-2.83-.72-4.25-1.05c-1.43-.33-2.87-.64-4.32-.91-1.45-.28-2.92-.52-4.4-.73s-2.98-.37-4.5-.48-3.06-.18-4.62-.18-3.14.06-4.75.2-3.24.36-4.89.68c-1.66.32-3.34.73-5.06 1.26s-3.46 1.18-5.24 1.98-3.58 1.73-5.43 2.85v5.33s0 3.2 0 4.69v4.37 4.37 4.69s0 3.41 0 5.33v.02 5.33s0 3.2 0 4.69v4.37 4.37 4.69s0 3.41 0 5.33v5.33s0 3.2 0 4.69 0 2.93 0 4.37 0 2.88 0 4.37 0 3.04 0 4.69 0 3.41 0 5.33c1.85-1.12 3.66-2.06 5.43-2.85 1.78-.8 3.52-1.45 5.24-1.98s3.4-.95 5.06-1.26c1.66-.32 3.29-.54 4.89-.68 1.61-.14 3.19-.2 4.75-.2s3.1.06 4.62.18c1.52.11 3.02.28 4.5.48 1.48.21 2.95.45 4.4.73s2.89.58 4.32.91 2.85.68 4.25 1.05c1.41.37 2.81.76 4.21 1.15 1.4.4 2.79.81 4.17 1.22s2.77.83 4.16 1.25c1.38.42 2.77.84 4.16 1.25s2.78.82 4.17 1.22c1.4.4 2.8.78 4.21 1.15s2.83.72 4.25 1.05c1.43.33 2.87.64 4.32.91 1.45.28 2.92.52 4.4.73s2.98.37 4.5.48 3.06.18 4.62.18 3.14-.06 4.75-.2 3.24-.36 4.89-.68c1.66-.32 3.34-.73 5.06-1.26s3.46-1.18 5.24-1.98 3.59-1.74 5.43-2.85v-5.33s0-3.2 0-4.69 0-2.93 0-4.37 0-2.88 0-4.37 0-3.04 0-4.69 0-3.41 0-5.33v-5.33s0-3.2 0-4.69v-4.37-4.37-4.69s0-3.41 0-5.33v-.02-5.33s0-3.2 0-4.69v-4.37-4.37-4.69s0-3.41 0-5.33z" fill="#424242" opacity=".2"/><path d="m124 107.2c-1.85 1.12-3.66 2.06-5.43 2.85-1.78.8-3.52 1.45-5.24 1.98s-3.4.95-5.06 1.26c-1.66.32-3.29.54-4.89.68-1.61.14-3.19.2-4.75.2s-3.1-.06-4.62-.18c-1.52-.11-3.02-.28-4.5-.48-1.48-.21-2.95-.45-4.4-.73s-2.89-.58-4.32-.91-2.85-.68-4.25-1.05-2.81-.76-4.21-1.15c-1.4-.4-2.79-.81-4.17-1.22-1.39-.41-2.77-.83-4.16-1.25-1.38-.42-2.77-.84-4.16-1.25s-2.78-.82-4.17-1.22c-1.4-.4-2.8-.78-4.21-1.15s-2.83-.72-4.25-1.05-2.87-.64-4.32-.91c-1.45-.28-2.92-.52-4.4-.73s-2.98-.37-4.5-.48-3.06-.18-4.62-.18-3.14.06-4.75.2-3.24.36-4.89.68c-1.66.32-3.34.73-5.06 1.26s-3.46 1.18-5.24 1.98-3.59 1.74-5.43 2.85v-5.61-5.32-5.07-4.86-4.68s0-3.05 0-4.54v-4.43s0-2.92 0-4.36 0-2.89 0-4.33v-4.33-4.36-4.43s0-3 0-4.54 0-3.09 0-4.68v-4.86s0-3.34 0-5.07v-5.32-5.61c1.85-1.12 3.66-2.06 5.43-2.85s3.52-1.45 5.24-1.98 3.4-.95 5.06-1.26c1.66-.32 3.29-.54 4.89-.68 1.61-.14 3.19-.2 4.75-.2s3.1.06 4.62.18c1.52.11 3.02.28 4.5.48s2.95.45 4.4.73 2.89.58 4.32.91 2.85.68 4.25 1.05c1.41.37 2.81.76 4.21 1.15s2.79.81 4.17 1.22 2.77.83 4.16 1.25c1.38.42 2.77.84 4.16 1.25s2.78.82 4.17 1.22 2.8.78 4.21 1.15 2.83.72 4.25 1.05c1.43.33 2.87.64 4.32.91 1.45.28 2.92.52 4.4.73s2.98.37 4.5.48 3.06.18 4.62.18 3.14-.06 4.75-.2 3.24-.36 4.89-.68c1.66-.32 3.34-.73 5.06-1.26s3.46-1.18 5.24-1.98 3.59-1.74 5.43-2.85v5.61 5.32 5.07s0 3.27 0 4.86v4.68s0 3.05 0 4.54 0 2.97 0 4.43v4.36 4.33 4.33s0 2.9 0 4.36 0 2.94 0 4.43v4.54s0 3.09 0 4.68v4.86 5.07 5.32z" fill="url(#b)" opacity=".3"/></svg>