<svg enable-background="new 0 0 128 128" viewBox="0 0 128 128" xmlns="http://www.w3.org/2000/svg" xmlns:xlink="http://www.w3.org/1999/xlink"><linearGradient id="a"><stop offset=".4053" stop-color="#e7ebeb"/><stop offset=".6119" stop-color="#e3e9e9"/><stop offset=".815" stop-color="#d7e1e4"/><stop offset=".9777" stop-color="#c8d8dd"/></linearGradient><radialGradient id="b" cx="100.2976" cy="-12.5055" gradientUnits="userSpaceOnUse" r="39.7301" xlink:href="#a"/><radialGradient id="c" cx="48.2753" cy="-9.3212" gradientUnits="userSpaceOnUse" r="63.6998" xlink:href="#a"/><radialGradient id="d" cx="93.3341" cy="-65.5305" fx="82.0278" fy="-62.9666" gradientUnits="userSpaceOnUse" r="135.286"><stop offset=".7844" stop-color="#f4f4f5"/><stop offset=".8337" stop-color="#eef1f2"/><stop offset=".9002" stop-color="#dde7ea"/><stop offset=".9762" stop-color="#c1d8dc"/><stop offset=".9777" stop-color="#c0d8dc"/></radialGradient><radialGradient id="e" cx="12.5401" cy="22.3881" gradientTransform="matrix(.2531 .9674 -1.5506 .4056 44.0823 1.175)" gradientUnits="userSpaceOnUse" r="108.7081"><stop offset=".4708" stop-color="#f1f1f0"/><stop offset=".5774" stop-color="#eceeee"/><stop offset=".7028" stop-color="#dee7e8"/><stop offset=".8371" stop-color="#c6dbdf"/><stop offset=".8671" stop-color="#c0d8dc"/></radialGradient><radialGradient id="f" cx="78.1122" cy="91.2683" gradientTransform="matrix(.3939 .9191 -2.2871 .9802 256.0816 -69.9879)" gradientUnits="userSpaceOnUse" r="35.9261"><stop offset=".2664" stop-color="#f1f1f0"/><stop offset=".6494" stop-color="#d9e5e6"/><stop offset="1" stop-color="#c0d8dc"/></radialGradient><path d="m116.62 124.26h-105.3c-4.15 0-7.52-3.37-7.52-7.52v-105.3c0-4.15 3.37-7.52 7.52-7.52h70.37 34.93c4.15 0 7.52 3.37 7.52 7.52v24.32 80.98c.01 4.15-3.36 7.52-7.52 7.52z" fill="#cfd9db"/><path d="m69.27 17.28s4.67-6.34 7.54-9.22 4.87-4.15 4.87-4.15h34.93c4.15 0 7.52 3.37 7.52 7.52v24.32z" fill="url(#b)"/><path d="m40.03 3.91h-28.7c-4.15 0-7.52 3.37-7.52 7.52v59.81s69.54 8.1 83.28 6.07l3.21-58.73s-6.87-7.78-22.63-8.07c-7.2-.13-16.53 2.8-17.65 2.08-1.29-.82-3.92-6.84-9.99-8.68z" fill="url(#c)"/><path d="m47.63 102.24-25.26-48.57s2.06-17.44 19.64-25.26c15.55-6.91 26.99-1.73 26.99-1.73s11.66-14.94 31.52-13.82c19 1.08 23.63 9.28 23.63 9.28v94.59c0 4.16-76.52-14.49-76.52-14.49z" fill="url(#d)"/><path d="m124.15 77.69v39.05c0 4.15-3.37 7.52-7.52 7.52h-105.31c-4.15 0-7.52-3.37-7.52-7.52v-75.95s5.32.46 12.94 4.58c7.58 4.09 12.05 10.07 12.05 10.07s11.4-7.14 27.91-4.12c18 3.29 28.67 20.59 28.67 20.59s9-2.59 20.44-.92 18.34 6.7 18.34 6.7z" fill="url(#e)"/><path d="m124.15 85.01v31.73c0 4.15-3.37 7.52-7.52 7.52h-88.03s8.57-10.52 22.5-15.16c14.34-4.78 22.7-4.18 22.7-4.18s7.83-10.97 21.9-16.13c14.14-5.18 28.45-3.78 28.45-3.78z" fill="url(#f)"/></svg>