<svg enable-background="new 0 0 128 128" viewBox="0 0 128 128" xmlns="http://www.w3.org/2000/svg"><path d="m95.2 6.3-54.9 52c-20.8 4.3-33.2 17.5-33.2 17.5l44.9 44.9s14.3-10.7 17.5-33.1l51.9-55.2c4.6-5.4 2.7-15-4.5-21.8-6.9-6.5-16.5-8.5-21.8-4.2z" fill="#2f7889"/><path d="m10 78.4c5.7-5.7 19.2-1.5 30.1 9.4s15.1 24.4 9.4 30.1-19.2 1.5-30.1-9.4-15.1-24.4-9.4-30.1" fill="#9e740b"/><path d="m14.3 77.1c4.6-4.6 15.8.6 25.9 10.7s15.3 21.3 10.7 25.9-16.5.2-26.6-9.9-14.5-22-9.9-26.6" fill="#ffee58"/><path d="m22.8 74.5s10.1 3.6 18.5 12 12 18.5 12 18.5c-4.9 4.9-15.8 2.1-24.2-6.3s-11.3-19.3-6.3-24.2" fill="#fff"/><path d="m9.7 80.3c5-5 17.5-.5 28 9.9s14.9 23 9.9 28-17.5.5-28-9.9c-10.5-10.5-14.9-23-9.9-28m-2.6-4.4c-3.4 3.4-4 9.1-1.6 16 2.2 6.1 6.5 12.6 12.2 18.3s12.2 10.1 18.3 12.2c6.9 2.4 12.5 1.9 16-1.6 3.4-3.4 4-9.1 1.6-16-2.2-6.1-6.5-12.6-12.2-18.3s-12.2-10.1-18.3-12.2c-6.9-2.4-12.5-1.9-16 1.6z" fill="#80deea"/><path d="m40.7 109.7c.2 1.6.3 3-1 2.6-10.5-3-19.7-13.3-22.8-20.7-.7-1.7 1.7-1 3.1-.8s2.2.6 2.6 1.4c2.2 4.1 8.3 12 16.4 14.8s1.4 1.1 1.6 2.7z" fill="#ffff8d"/><path d="m41 116.7c.4 1.3 1.3 2.7 0 2.4-14.8-2.8-27.3-15.5-31.4-27.9s.4-.7 2.4-.4c1.9.3 2.1.7 2.4 1.2 3.9 7.5 11.6 18 24.5 22.9s1.6.5 2.1 1.9z" fill="#e2a610"/><path d="m72.1 47-9.4 10.4c-1.5 1.5-3.9 1.5-5.3 0l-1.6-1.4c-1.5-1.5-1.5-3.9 0-5.3l10-10c1.5-1.5 3.9-1.5 5.3 0l1 1c1.5 1.5 1.5 3.9 0 5.3z" fill="#212121"/><circle cx="60.2" cy="52.9" fill="#49a4ba" r="3.3"/><path d="m34.5 74c3.8 0 2.8-3.2 9.5-6.2 2.5-1.1 1.8-2.5.8-3.2-4.5-3.2-5.5-2.6-9.8-1.5s-11.7 4.3-11.9 5.9 1.6 1.6 3.2 2.1c4.5 1.2 6.2 3 8.2 3z" fill="#49a4ba"/><path d="m68.8 91.5s-1.8-10.5-12.7-21.5c-10.9-10.9-19.3-10.8-19.6-10.8l3.7-.8s8.6-1.5 18.9 8.8 10.4 20.6 10.4 20.6z" fill="#212121"/></svg>