<svg enable-background="new 0 0 128 128" viewBox="0 0 128 128" xmlns="http://www.w3.org/2000/svg"><path d="m65.72 44.04 18.5 18.4c1.05 1.07 1.03 2.8-.04 3.85-.02.02-.04.04-.06.05l-18.4 18.6c-1.11 1.1-2.89 1.1-4 0l-18.4-18.5c-1.08-1.06-1.12-2.78-.1-3.9l18.5-18.4c1.01-1.13 2.75-1.23 3.88-.21.05.03.08.07.12.11z" fill="#f77e00"/><path d="m62.72 46.64 16.1 16.1c.91.95.88 2.45-.06 3.37-.01.01-.02.02-.04.03l-16 16.2c-.92.97-2.45 1-3.42.08-.03-.03-.05-.05-.08-.08l-16.1-16.1c-.97-.9-1.02-2.41-.12-3.38.01-.01.01-.01.02-.02l16.2-16.1c.95-.98 2.5-1.02 3.5-.1z" fill="#ff9800"/><g fill="#ffbd52"><path d="m59.82 48.04c-.5.4-11.7 11.5-11.7 11.5-.5.42-.62 1.14-.3 1.7.6.8 1.5.4 2 0s10.5-10.3 10.9-10.8c.41-.55.48-1.28.2-1.9-.04-.38-.38-.66-.77-.62-.12 0-.23.05-.33.12z"/><circle cx="46.62" cy="63.24" r="1.2"/></g></svg>