<svg enable-background="new 0 0 128 128" viewBox="0 0 128 128" xmlns="http://www.w3.org/2000/svg" xmlns:xlink="http://www.w3.org/1999/xlink"><linearGradient id="a"><stop offset="0" stop-color="#80ffee"/><stop offset=".1557" stop-color="#85fced"/><stop offset=".34" stop-color="#93f1e8"/><stop offset=".5386" stop-color="#abe1e1"/><stop offset=".7476" stop-color="#ccc9d8"/><stop offset=".9624" stop-color="#f7accb"/><stop offset="1" stop-color="#ffa6c9"/></linearGradient><linearGradient id="b" gradientTransform="matrix(-.9779 -.2092 .2092 -.9779 242.3158 303.0994)" gradientUnits="userSpaceOnUse" x1="181.1517" x2="210.3171" xlink:href="#a" y1="182.7275" y2="197.8754"/><linearGradient id="c" gradientTransform="matrix(-.9691 -.2466 .2466 -.9691 241.4844 326.0096)" gradientUnits="userSpaceOnUse" x1="195.165" x2="238.7543" xlink:href="#a" y1="252.4599" y2="211.4346"/><linearGradient id="d" gradientTransform="matrix(.9779 -.2092 -.2092 -.9779 -1629.3513 303.0994)" gradientUnits="userSpaceOnUse" x1="1662.6469" x2="1691.8123" xlink:href="#a" y1="-134.19" y2="-119.0421"/><linearGradient id="e" gradientTransform="matrix(.9691 -.2466 -.2466 -.9691 -1628.52 326.0096)" gradientUnits="userSpaceOnUse" x1="1663.9629" x2="1707.5522" xlink:href="#a" y1="-118.9965" y2="-160.0218"/><linearGradient id="f"><stop offset="0" stop-color="#5c4037"/><stop offset=".5752" stop-color="#70534a"/></linearGradient><linearGradient id="g" gradientTransform="matrix(.9955 .0952 .0952 -.9955 -2.722 124.9153)" gradientUnits="userSpaceOnUse" x1="46.5233" x2="57.6314" xlink:href="#f" y1="34.1745" y2="34.1745"/><linearGradient id="h" gradientTransform="matrix(1 0 0 -1 0 130)" gradientUnits="userSpaceOnUse" x1="62.4816" x2="70.5048" y1="38.594" y2="37.8265"><stop offset="0" stop-color="#5c4037"/><stop offset=".5752" stop-color="#70534a" stop-opacity="0"/></linearGradient><linearGradient id="i" gradientTransform="matrix(1 0 0 -1 0 130)" gradientUnits="userSpaceOnUse" x1="68.859" x2="67.6193" xlink:href="#f" y1="64.867" y2="35.8215"/><linearGradient id="j" gradientTransform="matrix(1 0 0 -1 0 130)" gradientUnits="userSpaceOnUse" x1="59.6394" x2="48.6394" xlink:href="#f" y1="61.9025" y2="9.5692"/><linearGradient id="k" gradientTransform="matrix(1 0 0 -1 0 130)" gradientUnits="userSpaceOnUse" x1="51.2626" x2="19.4325" xlink:href="#f" y1="70.105" y2="70.105"/><linearGradient id="l" gradientTransform="matrix(1 0 0 -1 0 130)" gradientUnits="userSpaceOnUse" x1="76.6579" x2="102.6147" xlink:href="#f" y1="74.6146" y2="74.6146"/><linearGradient id="m" gradientTransform="matrix(1 0 0 -1 0 130)" gradientUnits="userSpaceOnUse" x1="107.2816" x2="99.6769" xlink:href="#f" y1="82.707" y2="77.7303"/><linearGradient id="n" gradientTransform="matrix(.988 -.1544 -.1544 -.988 13.4341 145.2768)" gradientUnits="userSpaceOnUse" x1="98.8318" x2="102.1435" y1="77.9733" y2="76.7582"><stop offset=".4369" stop-color="#70534a" stop-opacity="0"/><stop offset="1" stop-color="#5c4037"/></linearGradient><linearGradient id="o" gradientTransform="matrix(1 0 0 -1 0 130)" gradientUnits="userSpaceOnUse" x1="64" x2="64" y1="100.8633" y2="53.246"><stop offset="0" stop-color="#ffab00"/><stop offset=".1722" stop-color="#ff8d00"/><stop offset=".4082" stop-color="#ff6a00"/><stop offset=".6315" stop-color="#ff5100"/><stop offset=".8348" stop-color="#ff4200"/><stop offset="1" stop-color="#ff3d00"/></linearGradient><linearGradient id="p"><stop offset="0" stop-color="#ff8f00"/><stop offset="1" stop-color="#d32f2f"/></linearGradient><radialGradient id="q" cx="63.9018" cy="112.2849" gradientTransform="matrix(1 0 0 -1 0 130)" gradientUnits="userSpaceOnUse" r="14.1236" xlink:href="#p"/><linearGradient id="r" gradientUnits="userSpaceOnUse" x1="63.925" x2="63.925" y1="39.4094" y2="48.3171"><stop offset="0" stop-color="#5c4037"/><stop offset=".63" stop-color="#70534a"/></linearGradient><radialGradient id="s" cx="66.049" cy="126.0427" gradientTransform="matrix(1 0 0 -1 0 130)" gradientUnits="userSpaceOnUse" r="18.5798" xlink:href="#p"/><linearGradient id="t" gradientTransform="matrix(1 0 0 -1 0 130)" gradientUnits="userSpaceOnUse" x1="104.3788" x2="108.7043" xlink:href="#f" y1="77.3157" y2="77.3157"/><linearGradient id="u" gradientTransform="matrix(1 0 0 -1 0 130)" gradientUnits="userSpaceOnUse" x1="104.3788" x2="108.7043" xlink:href="#f" y1="79.4514" y2="79.4514"/><linearGradient id="v" gradientTransform="matrix(1 0 0 -1 0 130)" gradientUnits="userSpaceOnUse" x1="104.3788" x2="108.7043" xlink:href="#f" y1="81.797" y2="81.797"/><linearGradient id="w" gradientTransform="matrix(1 0 0 -1 0 130)" gradientUnits="userSpaceOnUse" x1="104.3788" x2="108.7043" xlink:href="#f" y1="83.785" y2="83.785"/><linearGradient id="x" gradientTransform="matrix(1 0 0 -1 0 130)" gradientUnits="userSpaceOnUse" x1="106.2116" x2="100.3512" xlink:href="#f" y1="83.8323" y2="80.4834"/><path d="m103.62 85.2c-11.04 11.24-47.55-18.37-39.7-24.6 9.49-7.54 54.74 9.29 39.7 24.6z" fill="url(#b)"/><path d="m102.66 82.21c-8.1-11.48-17.21-17.02-30.16-22.11-.29-.11-.6-.33-.58-.64s.64-.29.51-.01" style="fill:none;stroke:#87cdde;stroke-width:.9563;stroke-linecap:round;stroke-linejoin:round;stroke-miterlimit:10"/><path d="m92.82 84.66c-2.44-.98-20.06-17.74-27.16-25.47.16.11.33.23.49.34" style="fill:none;stroke:#87cdde;stroke-width:.9563;stroke-linecap:round;stroke-linejoin:round;stroke-miterlimit:10"/><path d="m95.31 80.89c-1.81-6.25-4.28-8.96-6.43-12.49" style="fill:none;stroke:#87cdde;stroke-width:.9563;stroke-linecap:round;stroke-linejoin:round;stroke-miterlimit:10"/><path d="m118.54 35.52c6.64 19.8-55.96 37.47-58.55 26.1-3.57-15.61 50.34-50.56 58.55-26.1z" fill="url(#c)"/><g style="fill:none;stroke:#87cdde;stroke-width:.9563;stroke-linecap:round;stroke-linejoin:round;stroke-miterlimit:10"><path d="m110.46 31.56c-18.26 6.95-32.69 17.46-46.31 31.14"/><path d="m115.77 37.47c-15.38 12.46-31.5 20.92-50.79 26.35"/><path d="m97.43 31.02c-5.33 4.8-7.72 8.38-10.12 12.42"/><path d="m113.74 33.26c-4.72 3.95-8.3 7.58-10.26 13.35"/><path d="m91.42 53.37c-5.97 1.22-10.36 1.32-15.62-.61"/></g><path d="m24.38 85.2c11.04 11.24 47.55-18.37 39.7-24.6-9.49-7.54-54.74 9.29-39.7 24.6z" fill="url(#d)"/><path d="m25.39 80.43c8.97-10.2 17.84-14.49 30.11-20.32.28-.13.6-.33.58-.64s-.64-.29-.51-.01" style="fill:none;stroke:#87cdde;stroke-width:.9563;stroke-linecap:round;stroke-linejoin:round;stroke-miterlimit:10"/><path d="m39.54 80.89c3.72-2.49 15.7-13.97 22.79-21.7-.16.11-.33.23-.49.34" style="fill:none;stroke:#87cdde;stroke-width:.9563;stroke-linecap:round;stroke-linejoin:round;stroke-miterlimit:10"/><path d="m31.5 81.54c1.08-3.71 10.56-12.46 12.57-15.75" style="fill:none;stroke:#87cdde;stroke-width:.9563;stroke-linecap:round;stroke-linejoin:round;stroke-miterlimit:10"/><path d="m9.47 33.3c-6.65 19.8 55.95 37.48 58.55 26.1 3.56-15.6-50.35-50.56-58.55-26.1z" fill="url(#e)"/><path d="m17.26 29.35c18.27 6.95 32.96 17.46 46.58 31.14" style="fill:none;stroke:#87cdde;stroke-width:.9563;stroke-linecap:round;stroke-linejoin:round;stroke-miterlimit:10"/><path d="m13.11 39.11c15.39 12.46 30.62 17.06 49.9 22.49" style="fill:none;stroke:#87cdde;stroke-width:.9563;stroke-linecap:round;stroke-linejoin:round;stroke-miterlimit:10"/><path d="m29.36 29.5c4.23 2.82 6.09 4.91 7.84 9.61" style="fill:none;stroke:#87cdde;stroke-width:.9563;stroke-linecap:round;stroke-linejoin:round;stroke-miterlimit:10"/><path d="m16.77 33.75c4.72 3.95 7.3 8.23 9.26 14" style="fill:none;stroke:#87cdde;stroke-width:.9563;stroke-linecap:round;stroke-linejoin:round;stroke-miterlimit:10"/><path d="m30.94 42.72c7.32 3.4 16.19 9.65 21.26 9.82" style="fill:none;stroke:#87cdde;stroke-width:.9563;stroke-linecap:round;stroke-linejoin:round;stroke-miterlimit:10"/><path d="m50.58 88.82c-1.64.3-3.18 1.64-3.43 3.29-.12.82.12 1.64.36 2.43.65 2.11 1.33 4.2 2.04 6.28.39 1.14.96 2.43 2.13 2.71.78.19 1.61-.17 2.18-.74s.92-1.31 1.23-2.05c1.44-3.44 3.12-4.93 3.18-8.65.07-4.74-4.17-3.91-7.69-3.27z" fill="url(#g)"/><path d="m68.64 85.79-10.37 3.52 1.38 8.02s7.55-.6 11.85-1.51c4.3-.9-2.86-10.03-2.86-10.03z" fill="url(#h)"/><path d="m55.64 90.21 13-4.42c0-.43-4.1-11.29-4.1-11.29l8.23-14.6c1.75 3.3 7.11 18.7 8.84 26.71.65 3.01-.48 6.94-4.98 8.11-5.02 1.3-9.87 1.92-16.25 2.58-6.37.66-8.57-5.38-4.74-7.09z" fill="url(#i)"/><path d="m65.46 74.38c-.3-4.5-1.21-9.32-2.13-13.95l-.42-.26-11.06 8.87-1.49 24.46-3.22 15.87c-1.56.2-3.17.85-3.78 2.27-.32.76-.3 1.62-.26 2.45.1 2.2.23 4.4.4 6.6.09 1.2.32 2.59 1.38 3.16.71.38 1.6.24 2.29-.17.69-.4 1.22-1.04 1.7-1.67 1.47-1.94 3.65-6.32 3.65-6.32s6.21-11.51 8.47-19.36c3.12-10.88 4.32-21.98 4.47-21.95z" fill="url(#j)"/><path d="m30.01 75.09c-2.86-.68-5.05-1.69-6.54-2.19-1.5-.5-1.55-3.35 1.59-2.43 1.79.52 1.08-.68-.39-1.45-1.47-.78-5.2 1.08-6.08.25-.61-.57-.52-1.39-.18-1.7 1.15-1.02 3.9-1.99 6.32-1.88 2.16.1 5.55 3.29 7.63 2.74.01 0 3.97-7.04 7.59-13.47 3.05-5.42 5.86-10.41 5.86-10.41l10.88 4.62s-18.5 21.87-19.47 22.77c-2.17 2.01-4.17 3.87-7.21 3.15z" fill="url(#k)"/><path d="m104.34 49.19c-.08-.09-.17-.17-.26-.26-.62-.56-1.52-.8-2.34-.62-.16.03-.31.08-.46.14-1.25.49-5.64 3.46-6.71 4.1-1.68 1.01-3.36 2.02-5.04 3.03l-5.86-9.76-9.25 4.78 10.65 12.45c1.14 1.71 3.57 2.44 5.39 1.48 0 0 .08-.06.21-.15.27-.12.54-.28.78-.46 3.08-2.44 9.6-7.91 10.56-8.83 1.49-1.47 4.27-3.79 2.33-5.9z" fill="url(#l)"/><path d="m106.38 53.59c-1.68 1.36-5.35 1.1-6.94-1.5-2.88-4.72 2.68-7.65 4.84-7.5 2.25.16 5.72 6.17 2.1 9z" fill="url(#m)"/><path d="m103.61 47.87 1.04 1.27-1.12 5.44-1.14.12-4.65 4.05 1-8.51s-.28-.06 1.68-.32c1.95-.26 3.19-2.05 3.19-2.05z" fill="url(#n)"/><path d="m110.46 21.27-.09-.03-9.15 40.97c-.06.26.1.52.36.58s.52-.1.58-.36v-.01z" fill="#6d4c41" stroke="#6d4c41" stroke-miterlimit="10"/><path d="m111.39 14.69-2.5 3.44-4.24-.11 2.5 3.44-1.41 4.01 4.04-1.32 3.37 2.58v-4.25l3.5-2.41-4.05-1.31z" fill="#ffd600"/><path d="m104.55 50.74c.22-.05.38-.12.56-.26l-.79 3.89c-.62.02-1.24.04-1.85.06l.93-4.17c.31.27.67.59 1.15.48z" fill="#6d4c41"/><path d="m76.33 53.51.14 15.76-8.47 6.61c-.8.44-1.7.67-2.61.67-.88.01-1.75-.19-2.54-.58l-11.01-6.48-.13-15.77-7.64-6.97s1.05-4.06 8.4-6.3c2.7-.82 6.25-1.4 10.91-1.44 5.15-.04 9.06.59 12 1.51 6.97 2.16 8.55 5.88 8.55 5.88z" fill="url(#o)"/><path d="m77.46 31.58c-.4-.81-.08-1.62 1.18-2.98 1.57-1.68 3.58-6.01 1.53-10.42 0 0 0-.01 0-.02h-.41c-.1-.25-.22-.51-.35-.76-.44-.07-6.88.03-8.5.03-1.45 0-4.6 0-6.95 0-.62 0-1.35 0-2.1 0-1.66 0-3.49 0-4.84 0-1.63 0-8.06-.1-8.5-.03-.13.25-.25.51-.35.76h-.69c.01.02.02.05.03.07-1.68 4.3.13 8.54 1.79 10.37 1.05 1.15 1.61 2.06 1.18 3-.22.47-.55.75-1.03.85l-.83.17.45.74c.16.27.39.5.64.66.72.45 1.59.56 2.2.58.07 0 .17.08.32.26 1.96 2.26 3.5 2.99 8.26 3.17v-.06c1 .04 2.14.06 3.47.06 1.31 0 2.43-.02 3.41-.06v.06c4.81-.18 6.36-.9 8.32-3.17.15-.17.25-.25.32-.26.61-.01 1.48-.13 2.2-.58.26-.16.48-.39.64-.66l.45-.74-.83-.17c-.43-.1-.77-.38-1.01-.87z" fill="url(#q)"/><path d="m68.17 39.18v-4.58h-4.34-4.34v4.58c-2.81.24-5.12.69-7.01 1.26.88 3.35 5.03 6.97 11.56 6.92 6.35-.05 10.39-3.56 11.35-6.85-1.96-.61-4.34-1.09-7.22-1.33z" fill="url(#r)"/><path d="m74.12 21.47-2.71-.06-14.66-.31-2.71-.06c-2.16-.05-3.97 1.8-4.02 4.11s1.68 4.23 3.85 4.27l2.71.06 14.66.31 2.71.06c2.16.05 3.97-1.8 4.02-4.11.05-2.3-1.68-4.22-3.85-4.27z" fill="#3c2b24"/><path d="m64.39 6.8c-6.39-.13-12.46 6.58-12.66 16.42-.21 9.78 5.79 14.75 12 14.88s12.41-4.58 12.62-14.36c.21-9.84-5.57-16.8-11.96-16.94z" fill="#70534a"/><path d="m67.76 21.27c.33-.42 1.09-1.01 2.54-.97 1.44.04 2.17.68 2.47 1.12.14.19.09.41-.01.54-.1.12-.37.22-.66.12-.3-.11-.87-.43-1.84-.46-.97-.02-1.56.26-1.87.36-.3.09-.57-.03-.65-.15-.1-.16-.13-.38.02-.56z" fill="#1a1717"/><path d="m55.56 20.94c.33-.42 1.09-1.01 2.54-.97 1.44.04 2.17.68 2.47 1.12.14.19.09.41-.01.54-.1.12-.37.22-.66.12-.3-.11-.87-.43-1.84-.46-.97-.02-1.56.26-1.87.36-.3.09-.57-.03-.65-.15-.09-.15-.12-.37.02-.56z" fill="#1a1717"/><ellipse cx="57.98" cy="24.21" fill="#1a1717" rx="1.87" ry="1.81" transform="matrix(.0209 -.9998 .9998 .0209 32.5628 81.6739)"/><ellipse cx="70.05" cy="24.46" fill="#1a1717" rx="1.87" ry="1.81" transform="matrix(.0209 -.9998 .9998 .0209 44.1317 93.9924)"/><path d="m65.37 27.77c-.04-.02-.08-.03-.12-.03l-2.6-.05c-.04 0-.08.01-.12.03-.24.09-.37.33-.27.59.11.26.61 1 1.65 1.02s1.58-.7 1.69-.95c.12-.27 0-.51-.23-.61z" fill="#33251f"/><path d="m67.14 30.77c-1.18.67-5.02.59-6.18-.13-.66-.41-1.36.18-1.1.8.26.61 2.33 2.04 4.13 2.08 1.81.04 3.9-1.31 4.19-1.91.31-.6-.36-1.22-1.04-.84z" fill="#1a1717"/><path d="m79.2 12.11c-2.31-3.95-5.25-3.44-5.36-3.41.09-1.99-2.5-4.18-4.19-4.81-.99-.37-1.95-.52-2.85-.52-3.3 0-5.87 2-6.94 2.42-1 .4-1.81.55-2.45.55-2.28 0-2.56-1.94-2.56-1.94-1.54.92-1.81 2.86-1.15 4.26 0 0-2.31-.68-3.91 1.16s-.75 4.85-.75 4.85-2.06.5-1.78 3.82c.13 2.12 3.62 3.89 3.62 3.89s.29 2.01 1.17 4.75c.54-2.79 1.61-6.74 1.61-6.74.03-.01 2.84-.65 5.99-2.65.66-.42 1.26-.86 1.84-1.3 1.38-1.03 2.69-2 4.52-2.46.53-.13 1.03-.2 1.5-.2 2.06 0 3.18 1.3 3.61 2.25h.08c1.09 0 3.74.5 4.64 5.13.3 1.56.45 4.1.24 6.37 3.19-2.62 3.83-7.75 3.83-7.75.83-3.66-.2-6.81-.71-7.67z" fill="url(#s)"/><path d="m104.05 52.19c-.16.66.25 1.33.9 1.48l1.69.41c.66.16 1.32-.24 1.48-.9.16-.66-.25-1.33-.9-1.48l-1.69-.41c-.65-.17-1.32.23-1.48.9z" fill="url(#t)"/><path d="m104.14 50.31c-.07.68.43 1.28 1.11 1.35l2.26.23c.68.07 1.28-.43 1.35-1.11.07-.68-.43-1.28-1.11-1.35l-2.26-.23c-.68-.06-1.28.43-1.35 1.11z" fill="url(#u)"/><path d="m103.98 48.17s.55 1.3 1.21 1.3l2.52-.01c.67-.01 1.21-.55 1.2-1.22v-.1c0-.67-.55-1.21-1.22-1.2l-2.52.01c-.66.01-1.2.55-1.19 1.22z" fill="url(#v)"/><path d="m103.46 46.8c.15.65.8 1.06 1.45.91l2.68-.62c.11-.03.22-.07.32-.13.45-.26.71-.79.59-1.33-.15-.65-.8-1.06-1.45-.91l-2.68.62c-.66.15-1.05.8-.91 1.46z" fill="url(#w)"/><path d="m107.65 51.9c-.46-.34-.96-.47-1.46-.56-.51-.07-1.02-.09-1.57.08.46.34.96.48 1.46.56.51.07 1.02.09 1.57-.08z" fill="#4a2f27"/><path d="m107.84 49.45c-.49-.25-.98-.31-1.47-.31-.49.01-.98.08-1.46.35.49.26.98.31 1.47.31.48-.02.97-.09 1.46-.35z" fill="#4a2f27"/><path d="m104.77 47.81c.59.11 1.13.02 1.66-.11.52-.15 1.03-.35 1.49-.74-.59-.11-1.13-.03-1.66.11-.52.15-1.03.35-1.49.74z" fill="#4a2f27"/><path d="m107.03 48.06c.49.78-.49 1.55-1.08 1.66-.58.11-1-.38-1.26-.91-.49-.97-.87-1.39-1.22-1.56-.32-.16-.03 2.03-2.18 2.48-1.24.26-2.28-.62-2.29-1.51-.01-1.19 2.06-3.13 4.71-3.6 2.49.2 3.08 3.06 3.32 3.44z" fill="url(#x)"/><path d="m100.41 49.91c1.43.24 2.87-.93 3.29-2.32l.04-.13.02-.07c.01-.03.02-.06 0 0-.03.07-.11.12-.18.12-.07.01-.18-.07-.19-.12l.23.47c.16.31.33.61.51.91.31.56.85 1.36 1.76 1.41.85.04 1.72-.69 1.57-1.63-.17-.71-.43-1.37-.83-1.96-.79-1.17-1.29-2.18-2.9-1.98 1.37.19 1.96 1.03 2.54 2.2.3.58.53 1.22.65 1.84.08.47-.49.96-.98.89-.25-.02-.49-.14-.7-.34-.21-.19-.36-.47-.54-.76-.17-.29-.33-.58-.49-.88l-.23-.44c-.04-.12-.23-.26-.39-.25-.16 0-.32.1-.39.24-.04.09-.03.11-.04.12l-.01.06-.03.11c-.17.61-.51 1.16-.96 1.6-.23.21-.51.39-.8.52-.32.14-.63.21-.95.39z" fill="#4a2f27"/></svg>