<svg enable-background="new 0 0 128 128" viewBox="0 0 128 128" xmlns="http://www.w3.org/2000/svg" xmlns:xlink="http://www.w3.org/1999/xlink"><radialGradient id="a" cx="63.6" cy="62.9" gradientUnits="userSpaceOnUse" r="56.9597"><stop offset=".5" stop-color="#fde030"/><stop offset=".92" stop-color="#f7c02b"/><stop offset="1" stop-color="#f4a223"/></radialGradient><path d="m63.6 118.8c-27.9 0-58-17.5-58-55.9s30.1-55.9 58-55.9c15.5 0 29.8 5.1 40.4 14.4 11.5 10.2 17.6 24.6 17.6 41.5s-6.1 31.2-17.6 41.4c-10.6 9.3-25 14.5-40.4 14.5z" fill="url(#a)"/><path d="m111.49 29.67c5.33 8.6 8.11 18.84 8.11 30.23 0 16.9-6.1 31.2-17.6 41.4-10.6 9.3-25 14.5-40.4 14.5-18.06 0-37-7.35-48.18-22.94 10.76 17.66 31 25.94 50.18 25.94 15.4 0 29.8-5.2 40.4-14.5 11.5-10.2 17.6-24.5 17.6-41.4 0-12.74-3.47-24.06-10.11-33.23z" fill="#eb8f00"/><path d="m71 101c-.57 0-1.14-.12-1.66-.36-3.68-1.63-7.87-1.66-11.56-.06-1.97.99-4.38.19-5.37-1.78s-.19-4.38 1.78-5.37c5.87-2.66 12.58-2.68 18.47-.07 2.01.92 2.9 3.29 1.98 5.3-.65 1.43-2.07 2.34-3.64 2.34z" fill="#422b0d"/><path d="m43 47.7c9.58.03 17.33 7.82 17.3 17.4s-7.82 17.33-17.4 17.3-17.33-7.82-17.3-17.4c.06-9.57 7.83-17.29 17.4-17.3" fill="#fff"/><circle cx="42.7" cy="62.8" fill="#422b0d" r="15.4"/><g fill="#fff"><ellipse cx="48.13" cy="68.62" rx="2.6" ry="2.4" transform="matrix(.7659 -.6429 .6429 .7659 -32.8541 47.0076)"/><ellipse cx="38.69" cy="58.01" rx="9" ry="7.3" transform="matrix(.8022 -.5971 .5971 .8022 -26.9821 34.5782)"/><path d="m86 47.7c9.58.03 17.33 7.82 17.3 17.4s-7.82 17.33-17.4 17.3-17.33-7.82-17.3-17.4c.06-9.57 7.83-17.29 17.4-17.3"/></g><circle cx="85.7" cy="62.8" fill="#422b0d" r="15.4"/><ellipse cx="91.21" cy="68.56" fill="#fff" rx="2.6" ry="2.4" transform="matrix(.7659 -.6429 .6429 .7659 -22.7305 74.6885)"/><ellipse cx="81.7" cy="58.02" fill="#fff" rx="9" ry="7.3" transform="matrix(.8022 -.5971 .5971 .8022 -18.4797 60.2586)"/><path d="m27.4 39.8c-2.2.4-2.3 3.6.1 3.7 5.3.07 10.42-1.9 14.3-5.5 1.48-1.28 2.73-2.8 3.7-4.5.58-.83.38-1.97-.45-2.55s-1.97-.38-2.55.45l-.1.1c-3.92 4.38-9.21 7.31-15 8.3z" fill="#422b0d"/><path d="m84.5 31.4c-.58-.83-1.72-1.03-2.55-.45s-1.03 1.72-.45 2.55c.97 1.7 2.22 3.22 3.7 4.5 3.9 3.57 9.01 5.54 14.3 5.5 2.5-.1 2.3-3.3.1-3.7-5.86-.96-11.19-3.93-15.1-8.4z" fill="#422b0d"/></svg>