<svg enable-background="new 0 0 128 128" viewBox="0 0 128 128" xmlns="http://www.w3.org/2000/svg"><circle cx="64" cy="64" fill="#c33" r="60"/><circle cx="60.1" cy="63.1" fill="#f44336" r="56.1"/><path d="m24.4 29.7c4.5-7.1 14.1-13 24.1-14.8 2.5-.4 5-.6 7.1.2 1.6.6 2.9 2.1 2 3.8-.7 1.4-2.6 2-4.1 2.5-9.4 3.1-17.5 9.2-23 17.4-2 3-5 11.3-8.7 9.2-3.9-2.3-3.2-9.5 2.6-18.3z" fill="#ff8a80" opacity=".65"/><path d="m35.6 104.5c-2.6 0-4-1.3-4-4v-28c-2.7 2.7-5.1 4.9-7.3 6.6-1.4 1-2.5 1.4-3.4 1.3s-1.8-1-2.5-2.4c-.6-1.3-.9-2.4-.6-3.3.2-.9 1-1.8 2.2-2.6 4.2-3 8.2-6.7 11.9-11 3.8-4.4 6.9-9 9.2-13.7h-10.7-7c-2.5 0-3.7-1.2-3.7-3.7s1.2-3.7 3.7-3.7h8.3v-11.3c0-2.6 1.3-4 4-4 2.6 0 4 1.3 4 4v11.2h6.1c1.7 0 2.9.5 3.5 1.6s.7 2.6.1 4.5c-1.8 4.8-4.4 9.7-7.8 14.9 2.8 2.5 6.3 5.7 10.5 9.8.9.8 1.3 1.6 1.1 2.3-.1.5-.5 1.3-1.4 2.5-1.1 1.4-2 2.1-2.8 2.2-1 0-1.9-.7-3-1.9-1.8-2.2-4-4.6-6.4-7.2v32c0 2.6-1.4 3.9-4 3.9zm12.9-2.4c-2-2.5-1.3-4.8 2.1-6.9 4-3.1 6.9-7.4 8.5-12.8 1.3-4.2 2.1-10.2 2.5-18.1h-4.3c-1.1 0-2-.3-2.7-1s-1-1.6-1-2.7v-25.5c0-1.7.5-3.1 1.6-4.1 1.1-1.1 2.4-1.6 4.1-1.6h14.9 15c1.7 0 3.1.5 4.1 1.6 1.1 1.1 1.6 2.4 1.6 4.1v23.5c0 1.7-.5 3.1-1.6 4.1-1.1 1.1-2.4 1.6-4.1 1.6h-4.8v29.7c0 1.3.1 2.2.3 2.6s.7.5 1.5.5h4.6c.5 0 .9-.2 1.2-.7.3-.4.5-1.3.6-2.6.1-2.2.5-4 1.1-5.4.9-1.8 2-2.3 3.4-1.7.9.4 1.5 1.4 1.8 3.1.3 1.3.4 2.6.3 4-.4 3.8-1.2 6.4-2.3 7.9-1.1 1.4-2.9 2.2-5.4 2.2h-6.8c-3.3 0-5.6-.7-6.7-2.1-1.1-1.3-1.6-3.9-1.6-7.7v-29.8h-7c-.5 9.7-1.7 17.2-3.4 22.4-2.3 6.7-6.1 11.9-11.5 15.8-2.5 1.5-4.5 1.4-6-.4zm14.8-45.2h21.5c1.4 0 2.1-.7 2.1-2.1v-15.9c0-1.4-.7-2.1-2.1-2.1h-10.7-10.8c-1.4 0-2.1.7-2.1 2.1v15.9c0 1.4.7 2.1 2.1 2.1z" fill="#fafafa"/><path d="m24.4 29.7c4.5-7.1 14.1-13 24.1-14.8 2.5-.4 5-.6 7.1.2 1.6.6 2.9 2.1 2 3.8-.7 1.4-2.6 2-4.1 2.5-9.4 3.1-17.5 9.2-23 17.4-2 3-5 11.3-8.7 9.2-3.9-2.3-3.2-9.5 2.6-18.3z" fill="#ff8a80" opacity=".3"/></svg>