<svg enable-background="new 0 0 128 128" viewBox="0 0 128 128" xmlns="http://www.w3.org/2000/svg"><path d="m32.59 3.72h63.1c2.15 0 4.1 1.24 5.02 3.19l4.18 10.51h-81.79l4.53-10.64c.95-1.88 2.86-3.06 4.96-3.06z" fill="#c62828"/><path d="m52.89 87.12h22.22v36.88h-22.22z" fill="#78a3ac"/><path d="m74.99 95.37h-22.1v18.99s3.4-2.26 10.7-1.29c7.83 1.03 11.4 6.46 11.4 6.46z" fill="#4b727b"/><path d="m101.84 107.87h-75.68c-1.91 0-3.45-1.54-3.45-3.45v-85.41c0-1.91 1.54-3.45 3.45-3.45h75.67c1.91 0 3.45 1.54 3.45 3.45v85.41c.01 1.9-1.54 3.45-3.44 3.45z" fill="#f44336"/><path d="m94.51 99.57h-61.02c-1.85 0-3.35-1.5-3.35-3.35v-31.16c0-1.85 1.5-3.35 3.35-3.35h61.03c1.85 0 3.35 1.5 3.35 3.35v31.16c-.01 1.85-1.51 3.35-3.36 3.35z" fill="none" stroke="#c62828" stroke-miterlimit="10" stroke-width="1.8609"/><path d="m45.24 82.45c-.08.79.54 1.47 1.33 1.47h49.65c.85 0 1.48-.78 1.31-1.61l-6.73-37.2s5.62-.18 5.88-2.56-.11-2.75-.19-5.21c-.08-2.47-7.3-8.02-7.3-8.02l-52.92 2.5 4.49 10.85 7.28.13.38 12.34z" fill="#c62828"/><path d="m85.15 43.63h-42.3c-1.15 0-2.09-.93-2.09-2.09v-5.96h46.48v5.96c0 1.15-.93 2.09-2.09 2.09z" fill="#4e342e"/><path d="m82.07 31.63 9.63 39.78c.24 1.22-.81 1.44-1.81 1.44h-51.26c-1 0-2.06-.33-1.81-1.44l9.11-39.78c0-.79.81-1.44 1.81-1.44h32.53c.99 0 1.43.31 1.8 1.44z" fill="#fff"/><path d="m84.71 42.26-41.24.11 2.05-8.94 36.72-1.12z" fill="#e0e0e0"/><path d="m89.79 70.74-25.95-15.79 3.32-2.52c2.07-1.78 2.04-4.43-.07-6.18l-3.48-2.9 16.81-11.81c.3-.23.42-.43.22-.64-.13-.13-.37-.1-.64.09l-18.02 11.01-13.28-11.08c-.24-.21-1.08-.14-.41.5l16.42 15.64c1.45 1.36 1.39 3.08-.45 4.66l-25.51 19.12c-.24.21-.58.48-.4.76.21.33.72.15.95-.07l21.57-14.8 28.48 14.56s.64.43.85.11-.41-.66-.41-.66z" fill="#6fbff0" stroke="#6fbff0" stroke-miterlimit="10"/><path d="m88.37 35.58h-49.9c-1.22 0-2.21-.99-2.21-2.21v-1.56l53.74-4.78.79 6.11c.01 1.35-1.08 2.44-2.42 2.44z" fill="#f44336"/><path d="m86.86 33.37h-46.76c-1.88 0-3.26-1.45-2.81-2.95 0 0 .92-3.74 2.21-3.74h48.3c1.29 0 1.26 3.88 1.26 3.88.45 1.5-.32 2.81-2.2 2.81z" fill="#ff7555"/><path d="m38.73 26.87c.66-.36 3.93-.63 3.77.53-.07.5-.63 3.67-.91 4.39-.23.58-.17 1.6-1.49 1.59-.51 0-2.67-.01-3.07-.22-.76-.4-.28-1.25-.1-1.84.67-2.12 1.31-4.19 1.8-4.45z" fill="#ff9d83"/><path d="m93.92 62.64h-4.25l-.47-1.86h4.41z" fill="#4e342e" opacity=".3"/></svg>