<svg enable-background="new 0 0 128 128" viewBox="0 0 128 128" xmlns="http://www.w3.org/2000/svg"><path d="m116.46 3.96h-104c-4.42 0-8 3.58-8 8v104c0 4.42 3.58 8 8 8h104c4.42 0 8-3.58 8-8v-104c0-4.42-3.58-8-8-8z" fill="#689f38"/><path d="m110.16 3.96h-98.2c-4.13.03-7.47 3.37-7.5 7.5v97.9c-.01 4.14 3.34 7.49 7.48 7.5h.02 98.1c4.14.01 7.49-3.34 7.5-7.48 0-.01 0-.01 0-.02v-97.9c.09-4.05-3.13-7.41-7.18-7.5-.07 0-.15 0-.22 0z" fill="#7cb342"/><path d="m40.16 12.86c0-2.3-1.6-3-10.8-2.7-7.7.3-11.5 1.2-13.8 4s-2.9 8.5-3 15.3c0 4.8 0 9.3 2.5 9.3 3.4 0 3.4-7.9 6.2-12.3 5.4-8.7 18.9-10.6 18.9-13.6z" fill="#fff" opacity=".3"/><path d="m43.26 109.46c-3.96.11-7.51-2.42-8.7-6.2l-15.1-45.5c-1.46-4.81 1.26-9.9 6.07-11.36 4.65-1.41 9.59 1.08 11.23 5.66l9.8 29.5 47.1-59.6c3.12-3.95 8.85-4.62 12.8-1.5s4.62 8.85 1.5 12.8l-57.6 72.7c-1.71 2.19-4.32 3.48-7.1 3.5z" fill="#fbf9f9"/></svg>