<svg enable-background="new 0 0 128 128" viewBox="0 0 128 128" xmlns="http://www.w3.org/2000/svg"><path d="m116 4h-104c-4.42 0-8 3.58-8 8v104c0 4.42 3.58 8 8 8h104c4.42 0 8-3.58 8-8v-104c0-4.42-3.58-8-8-8z" fill="#f77e00"/><path d="m109.7 4h-98.2c-4.13.03-7.47 3.37-7.5 7.5v97.9c-.01 4.14 3.34 7.49 7.48 7.5h.02 98.1c4.14.01 7.49-3.34 7.5-7.48 0-.01 0-.01 0-.02v-97.9c.09-4.05-3.13-7.41-7.18-7.5-.07 0-.15 0-.22 0z" fill="#ff9800"/><path d="m39.7 12.9c0-2.3-1.6-3-10.8-2.7-7.7.3-11.5 1.2-13.8 4s-2.9 8.5-3 15.3c0 4.8 0 9.3 2.5 9.3 3.4 0 3.4-7.9 6.2-12.3 5.4-8.7 18.9-10.6 18.9-13.6z" fill="#ffbd52" opacity=".75"/><path d="m52.8 37.5c-1.3 2.5-2.5 5-3.9 7.5-.28.48-.11 1.09.37 1.37.16.09.35.14.53.13h40.3c1.66 0 3 1.34 3 3v44.4c0 4.8-.9 7.4-4.4 8.8-3 1.3-7.5 1.4-14.1 1.4-1.36.03-2.56-.88-2.9-2.2-.2-.7-.4-1.4-.7-2.2-.55-1.56.27-3.28 1.83-3.83.34-.12.71-.18 1.07-.17 3.9.1 7.2.1 8.4 0 1.6 0 2.1-.5 2.1-1.9v-7.2c.03-.52-.36-.97-.88-1-.04 0-.08 0-.12 0h-36.5c-.48-.01-.9.33-1 .8-1.1 5.76-3.61 11.15-7.3 15.7-1.06 1.27-2.96 1.44-4.23.37-.14-.11-.26-.24-.37-.37-.68-.81-1.42-1.58-2.2-2.3-1.11-1.13-1.15-2.92-.1-4.1 6.1-7.1 6.7-16.4 6.7-24.4v-8.6c-.01-.55-.46-.99-1.01-.99-.26 0-.5.11-.69.29-2.9 3.27-6.12 6.25-9.6 8.9-1.3 1.02-3.18.79-4.2-.5l-1.8-2.1c-1.05-1.28-.87-3.17.4-4.22.03-.03.06-.05.1-.08 8.7-6.6 15.6-15.7 20.9-25.6.28-.48.11-1.09-.37-1.37-.16-.09-.35-.14-.53-.13h-18.7c-1.1 0-2-.9-2-2v-4.3c0-1.1.9-2 2-2h23.4c.4.03.78-.22.9-.6 1.2-3.2 2.3-6.3 3.2-9.4.32-1.02 1.36-1.62 2.4-1.4l5.1 1.2c1.12.32 1.78 1.47 1.5 2.6-.7 2.1-1.4 4.2-2.2 6.4-.22.51.01 1.1.52 1.32.12.05.25.08.38.08h43.9c1.1 0 2 .9 2 2v4.3c0 1.1-.9 2-2 2h-48.3c-.4-.2-.7 0-.9.4zm31.6 39.6v-6.3c.03-.52-.36-.97-.88-1-.04 0-.08 0-.12 0h-35.1c-.55 0-1 .45-1 1v.6c0 1.8-.1 3.7-.2 5.6-.06.55.35 1.04.89 1.09.03 0 .07.01.11.01h35.3c.52.03.97-.36 1-.88 0-.04 0-.08 0-.12zm-1-22.8h-35.1c-.54.04-.96.46-1 1v6.2c.04.54.46.96 1 1h35.1c.55 0 1-.45 1-1v-6.2c.03-.52-.36-.97-.88-1-.04 0-.08 0-.12 0z" fill="#fafafa"/></svg>