<svg enable-background="new 0 0 128 128" viewBox="0 0 128 128" xmlns="http://www.w3.org/2000/svg"><path d="m64 28c19.8 0 36 16.2 36 36s-16.2 36-36 36-36-16.2-36-36 16.2-36 36-36m0-24c-33.1 0-60 26.9-60 60s26.9 60 60 60 60-26.9 60-60-26.9-60-60-60z" fill="#f44336"/><path d="m64 4c-23.9 0-44.6 14-54.2 34.3 9.1-18.5 28.2-31.3 50.3-31.3 31 0 56.1 25.1 56.1 56.1s-25.1 56.1-56.1 56.1c-30.8 0-55.8-24.9-56.1-55.7v.5c0 33.1 26.9 60 60 60s60-26.9 60-60-26.9-60-60-60z" fill="#c33"/><path d="m65.6 26.7c-15 0-28 8.8-34 21.5 5.7-11.6 17.7-19.7 31.6-19.7 19.4 0 35.2 15.8 35.2 35.2s-15.8 35.2-35.2 35.2c-19.3 0-35-15.6-35.2-34.9v.3c0 20.8 16.9 37.6 37.6 37.6s37.6-16.9 37.6-37.6-16.8-37.6-37.6-37.6z" fill="#c33"/><path d="m24 29.7c4.5-7.1 14.1-13 24.1-14.8 2.5-.4 5-.6 7.1.2 1.6.6 2.9 2.1 2 3.8-.7 1.4-2.6 2-4.1 2.5-9.3 3-17.8 9.5-23 17.4-2 3-5 11.3-8.7 9.2-3.9-2.3-3.1-9.5 2.6-18.3z" fill="#fff" opacity=".2"/></svg>