<svg enable-background="new 0 0 128 128" viewBox="0 0 128 128" xmlns="http://www.w3.org/2000/svg"><path d="m42.98 21.58h29.79" fill="none" stroke="#616161" stroke-miterlimit="10" stroke-width="3"/><path d="m42.98 36.82h29.79" fill="none" stroke="#616161" stroke-miterlimit="10" stroke-width="3"/><path d="m64.79 124.32h-11.49v-116.83s1.07-2.49 5.75-2.49 5.75 2.49 5.75 2.49v116.83z" fill="#9e9e9e"/><path d="m61.84 5.37v94.39h-8.54v8.59c1.45.01 2.76.18 3.94.44 2.69.59 4.61 2.96 4.61 5.71v9.82h2.95v-11.67-12.89-92.27c-.01 0-.63-1.43-2.96-2.12z" fill="#757575"/><path d="m92.64 4.32c-13.39 0-24.22 10.83-24.22 24.31s10.83 24.22 24.22 24.22 24.22-10.83 24.22-24.22-10.83-24.31-24.22-24.31z" fill="#2196f3"/><path d="m103.22 13.37c-1.52-.38-4.55-.78-10.57-.78s-9.05.39-10.57.78c-.9.23-3.91 1.48-3.91 4.85v20.78c0 1.14.92 2.07 2.07 2.07h.76v2.3c0 .67.54 1.21 1.21 1.21h2.45c.67 0 1.21-.54 1.21-1.21v-2.3h13.54v2.3c0 .67.54 1.21 1.21 1.21h2.45c.67 0 1.21-.54 1.21-1.21v-2.3h.78c1.14 0 2.07-.92 2.07-2.07 0 0 0-17.55 0-20.78s-3.01-4.63-3.91-4.85zm-17.11 1.65c0-.51.41-.92.92-.92h11.22c.51 0 .92.41.92.92v1.63c0 .51-.41.92-.92.92h-11.22c-.51 0-.92-.41-.92-.92zm.19 21.89c0 .34-.28.62-.62.62h-2.47c-1.16 0-2.11-.94-2.11-2.11v-1.11c0-.34.28-.62.62-.62h2.47c1.16 0 2.11.94 2.11 2.11zm17.88-1.49c0 1.16-.94 2.11-2.11 2.11h-2.47c-.34 0-.62-.28-.62-.62v-1.11c0-1.16.94-2.11 2.11-2.11h2.47c.34 0 .62.28.62.62zm.56-9.03c0 1.34-2.9 3.68-12.1 3.68-9.21 0-12.1-2.17-12.1-3.68s0-6.14 0-6.14c0-.4.4-1.4 1.4-1.4h21.56c1 0 1.24 1.01 1.24 1.4z" fill="#fff"/><path d="m76.88 102.94h-35.67c-1.26 0-2.28-1.02-2.28-2.28v-41.2c0-1.26 1.02-2.28 2.28-2.28h35.66c1.26 0 2.28 1.02 2.28 2.28v41.2c0 1.26-1.02 2.28-2.27 2.28z" fill="#f5f5f5"/><path d="m73.03 96.13h-27.97l-.08-32.56h27.98z" fill="#82aec0" opacity=".8"/><path d="m58.97 63.57v32.99" fill="none" stroke="#f5f5f5" stroke-miterlimit="10" stroke-width="2"/><path d="m44.98 63.57h12.99v2.72h-12.99z" fill="#616161"/><path d="m44.95 89.96h28.19" fill="none" stroke="#f5f5f5" stroke-miterlimit="10"/><path d="m44.95 83.36h28.19" fill="none" stroke="#f5f5f5" stroke-miterlimit="10"/><path d="m44.98 76.76h27.98" fill="none" stroke="#f5f5f5" stroke-miterlimit="10"/><path d="m44.95 70.17h28.01" fill="none" stroke="#f5f5f5" stroke-miterlimit="10"/><path d="m59.96 75.41h12.99v2.72h-12.99z" fill="#616161"/><path d="m45.08 82h12.95v2.72h-12.95z" fill="#616161"/><path d="m76.88 102.94h-35.67c-1.26 0-2.28-1.02-2.28-2.28v-41.2c0-1.26 1.02-2.28 2.28-2.28h35.66c1.26 0 2.28 1.02 2.28 2.28v41.2c0 1.26-1.02 2.28-2.27 2.28z" style="fill:none;stroke:#9e9e9e;stroke-width:3;stroke-linecap:round;stroke-linejoin:round;stroke-miterlimit:10"/><path d="m41.36 101.46c-1.55.14-1.55-.88-1.55-1.16v-40.35c0-1.13.92-2.05 2.05-2.05h34.62c.94 0 1.37.57 1.18 1.73 0 0-.12-.74-1.02-.74h-34.77c-.58 0-1.06.48-1.06 1.06v40.36c0 .94.55 1.15.55 1.15z" fill="#757575"/><path d="m13.13 14.2h34.08v29.6h-34.08z" fill="#ffca28"/><path d="m45.31 14.2c1.05 0 1.9.85 1.9 1.9v25.8c0 1.05-.85 1.9-1.9 1.9h-30.27c-1.05 0-1.9-.85-1.9-1.9v-25.8c0-1.05.85-1.9 1.9-1.9zm0-2h-30.27c-2.15 0-3.9 1.75-3.9 3.9v25.8c0 2.15 1.75 3.9 3.9 3.9h30.27c2.15 0 3.9-1.75 3.9-3.9v-25.8c.01-2.15-1.75-3.9-3.9-3.9z" fill="#9e9e9e"/><path d="m13.13 23.89h34.09" fill="none" stroke="#fffde7" stroke-miterlimit="10" stroke-width="2"/><path d="m13.13 34.11h34.09" fill="none" stroke="#fffde7" stroke-miterlimit="10" stroke-width="2"/><g fill="#757575"><path d="m15.23 17.49h8.57v2.26h-8.57z"/><path d="m15.23 38.22h6.46v2.26h-6.46z"/><path d="m37.96 38.22h6.46v2.26h-6.46z"/><path d="m37.96 17.49h6.46v2.26h-6.46z"/><path d="m34.64 27.86h3.72v2.26h-3.72z"/><path d="m40.7 27.86h3.72v2.26h-3.72z"/><path d="m15.23 27.86h11.88v2.26h-11.88z"/></g></svg>