<svg enable-background="new 0 0 128 128" viewBox="0 0 128 128" xmlns="http://www.w3.org/2000/svg" xmlns:xlink="http://www.w3.org/1999/xlink"><clipPath id="a"><path d="m54.8 14.4s3.2-3.8 5.1-6c4.7-5.5 13.8-2.8 11.7 5-1.6 5.5-6.3 14.7-7.4 16.6.4 1.7.9 3.6 1.1 4.4 4.5-1.4 12.7 1.9 10.8 11.6 5.8-6.7 17.4-.9 13.6 10.5 2-2.1 7.3-.8 9.3 1.8 1.8 2.2 2.7 3.7 2.8 6.9.1 3.1-.1 5.1-2.3 7.2-.1 4.7-1.2 9.6-1.9 10.4 2.8 7.6-.6 17.5-5.5 22.1-1.5 3.6-3.4 8.4-4.2 11-.7 2.6-6.4 5.1-9 5.5-5.6.9-19.9.4-27-4-3-1.8-5.5-3.2-5.3-6 .1-2.1.9-8.4 1-9.7s.1-4.2-1.9-6.4c-3.9-4.3-12.7-10.6-18.6-21.3-1.9-3.5-1.5-10.6.4-16.2s8.3-16.7 17-28.2c-2.8-5.1-5.7-11.1-6.8-15.3-1.8-6.9 4.3-9.9 8.7-7.9 3.9 1.7 8.4 8 8.4 8z"/></clipPath><clipPath id="b"><path d="m54.8 14.4s3.2-3.8 5.1-6c4.7-5.5 13.8-2.8 11.7 5-1.6 5.5-6.3 14.7-7.4 16.6.4 1.7.9 3.6 1.1 4.4 4.5-1.4 12.7 1.9 10.8 11.6 5.8-6.7 17.4-.9 13.6 10.5 2-2.1 7.3-.8 9.3 1.8 1.8 2.2 2.7 3.7 2.8 6.9.1 3.1-.1 5.1-2.3 7.2-.1 4.7-1.2 9.6-1.9 10.4 2.8 7.6-.6 17.5-5.5 22.1-1.5 3.6-3.4 8.4-4.2 11-.7 2.6-6.4 5.1-9 5.5-5.6.9-19.9.4-27-4-3-1.8-5.5-3.2-5.3-6 .1-2.1.9-8.4 1-9.7s.1-4.2-1.9-6.4c-3.9-4.3-12.7-10.6-18.6-21.3-1.9-3.5-1.5-10.6.4-16.2s8.3-16.7 17-28.2c-2.8-5.1-5.7-11.1-6.8-15.3-1.8-6.9 4.3-9.9 8.7-7.9 3.9 1.7 8.4 8 8.4 8z"/></clipPath><path d="m54.8 14.4s3.2-3.8 5.1-6c4.7-5.5 13.8-2.8 11.7 5-1.6 5.5-6.3 14.7-7.4 16.6.4 1.7.9 3.6 1.1 4.4 4.5-1.4 12.7 1.9 10.8 11.6 5.8-6.7 17.4-.9 13.6 10.5 2-2.1 7.3-.8 9.3 1.8 1.8 2.2 2.7 3.7 2.8 6.9.1 3.1-.1 5.1-2.3 7.2-.1 4.7-1.2 9.6-1.9 10.4 2.8 7.6-.6 17.5-5.5 22.1-1.5 3.6-3.4 8.4-4.2 11-.7 2.6-6.4 5.1-9 5.5-5.6.9-19.9.4-27-4-3-1.8-5.5-3.2-5.3-6 .1-2.1.9-8.4 1-9.7s.1-4.2-1.9-6.4c-3.9-4.3-12.7-10.6-18.6-21.3-1.9-3.5-1.5-10.6.4-16.2s8.3-16.7 17-28.2c-2.8-5.1-5.7-11.1-6.8-15.3-1.8-6.9 4.3-9.9 8.7-7.9 3.9 1.7 8.4 8 8.4 8z" fill="#ffca28"/><g clip-path="url(#a)" fill="#faa700"><path d="m48.7 116.1s1.1-12.1 1.2-14.6c4 4.1 14.8 15.6 33 20.6 10.1 2.8 18.1-28 18.1-28l-.5-13.7s-3.6-3.1-5.1 2-4.2 11.1-8.1 13.3c-2.9 1.6-5.8.8-7.2.3-1.4-.6-3.7-2-6.6-1.7-3.8.4-8.1-.5-10.1-2.3s-4.9-3.7-9.5-3.9-7.7-1.1-9.7-3.9c-1.9-2.6-4.3-4.3-7.2-4.8-3.5-.5-6.3-1.9-7.7-5.4s-1.1-9.5.8-14.3c3.2-8.4 12.5-23.3 14-26.1 1.6-2.9-4.8-2.3-4.8-2.3l-24.7 32.7 17.9 53.7 10.7 1.5z"/><path d="m37.7 18.6c.7.8 3.8.6 2.7-3.6-1.8-7 4.7-8 7.2-5.4 1.2 1.3 2.2 2.5 2.7 3.1.2.3.3.6.1 1-.4 1-1.9 3.4-7.1 9.3-2 2.2 2.5 6.2 5.7 2.4 3.6-4.1 10.6-13.4 12.3-15.4 3.9-4.9 9.1-2.1 8.2 3.4s1.7 5.3 1.7 5.3l5.4-10.7-13.4-6.3-27.7 2.1z"/><path d="m69.3 32.1c-7.6-.7-9.1 5.5-6.8 5.2 4.1-.5 12.4.6 12.3 9.3 0 1.5 1.1 1.4 1.7 1 3.8-2.2 13.6-1.2 11.9 9.6-.2 1.5 1.1 1.5 1.5 1.1 1.8-1.6 6.8-1.4 8.2 2.4.5 1.2.4 3.2.5 4.6s.2 7 .2 7.6 1.4 1.5 2.3 0c1.2-1.9 4.6-6 4.5-11-.1-4.9-7.4-27-36.3-29.8z"/></g><g clip-path="url(#b)" fill="#b55e19"><path d="m25.2 73c1.6-.6 3-.4 4.9 2.7 2.4 3.9 9.8 11.4 16.5 17.3 1.7 1.5 3.7 3.9 3.3 8.4-.2 2.6.1 7.2-3.1 7.7-3.2.6-6.2-7.3-6.2-7.3s-16.6-26.1-16.6-26.9 1.2-1.9 1.2-1.9z"/><path d="m89.7 113s.8-7.3 1.1-10.2c1.5-1.6 6.6-6.7 5.2-16.3-.3-2.2-.8-4 .1-6.2 1.3-3.3 2.3-14 2.3-14.7 0-1 1.5-1 1.5 0 0 .8-.3 6.8-.3 6.8l1.9 2.3 1.9 23.6-8.3 15.1z"/><path d="m39.4 6.7c-.2 1.7-.5 5.2.6 7.6 1.7 4 3.7 7.7 4.3 8.5.5.6 1.2.6 1.6.3 1-.7 4.5-2.9 5.1-3.3.8-.6 2.5-.3 1.5 1.5-1.1 1.7-8.5 12.7-9.8 14.7-1.4 2-3.7 2.6-4.6 2s-4.8-28.7-4.8-28.7z"/><path d="m69.1 5.8c.7 1.7 1.4 5 .2 7.7-2.2 4.9-15.1 29.1-21 39.7-.7 1.3-1.8 2-2.2 2.9-1.6 3 2.8 5.6 4.6 2.7 1.1-1.8 0-2.6 1-4.3 1.4-2.5 7.9-15 8.9-16.5 1-1.6 2.8-3 4.8-3.6 1.8-2.2 4.6-5.6 4.6-5.6l8.1-16.8-4.4-8z"/><path d="m64.5 63.7c-.5.9-1.9 1.5-2.4 2.4-1.4 2.6 2.8 4.6 4.2 2.4.7-1.2.3-2.3.8-3.3s9-16.9 9.2-17.9c.3-1-.7-1.6-1.3-.9-.7.9-10 16.4-10.5 17.3z"/><path d="m80.5 73.1c-.4.7-1.3.9-1.8 1.8-1.3 2.5 3.1 4.8 4.3 2.2.4-.9 0-1.7.3-2.5.4-.8 4.1-10.6 6.6-16.8.4-1.1-.7-1.7-1.3-.6-1.9 3.8-8.1 15.9-8.1 15.9z"/></g></svg>