<svg enable-background="new 0 0 128 128" viewBox="0 0 128 128" xmlns="http://www.w3.org/2000/svg"><path d="m89.7 75.1c.1.4.5.5.8.2 3.7-4.5 13.6-17 25-13.7 3.6 1 5.3 5.1 3.9 8.2-2.3 4.9-14.7 13.2-21.1 24-1 1.7-9.6 21.6-24.1 27.4s-39.5 5.1-46.9-23c-3.8-14.5-1.7-17.9-5.6-37.1-.8-3.8-3.6-20-4.1-24.7-.7-6.3 8.2-8.5 10.4-3.1 1 2.6 8.7 27.2 9 28.2.6 1.9 3 1.3 2.9-.4-1.7-19.9-3.8-38.4-3.5-44.7s9.9-7.3 11.2-.8c.8 4.4 5.8 39.2 6 40.7s2.6 1.3 2.8-.3 2-38.8 3.2-46.8c1.1-7 12.4-6.9 12.6 1.1.2 6.4-.9 45.7-1 47-.1 2 2.2 2.2 2.5.1.2-1.4 8.1-36.8 9.2-40.3 1.8-6.1 12.1-5.7 11.8 2.5-.6 11.3-7.1 42.2-5 55.5z" fill="#ffca28"/><path d="m66.24 4.13c-2.99-.15-6.09 1.57-6.64 5.07-1.2 8-3 45.2-3.2 46.8-.09.73-.64 1.15-1.23 1.27 2.07-.19 3.73-.4 3.73-3.27 0-2 2.5-39.2 2.7-42.8.2-5.3 7.1-5.7 8.1-1.7.29 1.06 1.55 1.07 2.48.62-.19-3.87-3-5.85-5.94-5.99zm-23.64 7.06c-2.92-.2-6.03 1.67-6.2 5.21-.3 6.3 1.8 24.8 3.5 44.7.03.5-.17.89-.47 1.17 1.74-.74 2.75-1.27 2.57-4.07-.2-3-3.1-38.3-3.3-40.3-.4-4.9 5.2-5.4 6.3-3.3.61 1.17 1.71.99 2.4.33-.76-2.38-2.72-3.59-4.8-3.74zm45.94 1.75c-2.44.07-4.85 1.49-5.64 4.16-1.1 3.5-9 38.9-9.2 40.3-.16 1.11-.87 1.56-1.49 1.46 0 0-.01.04-.01.04 1.6.2 3.3-.1 3.7-1.8s7.8-35.2 8.4-37.7c1.2-4.6 6.2-5.5 8.1-2.5.56.87 1.4.77 2.03.35-.79-2.98-3.35-4.39-5.89-4.31zm-64.98 17.31c-3.08-.12-6.4 2.21-5.96 6.15.5 4.7 3.3 20.9 4.1 24.7 3.9 19.2 1.8 22.6 5.6 37.1 5.1 19.38 18.57 25.72 31.2 25.89v-1.19c-19-2.4-26.4-14.7-29-26.1-2.9-12.9-2.2-22.4-4.3-30.7-.7-2.9-5.2-27-5.2-30.7 0-3 5.1-5 6.7-1.1.46 1.11 1.28 1.25 1.95.96-.19-.57-.56-1.72-.65-1.96-.82-2.02-2.59-2.98-4.44-3.05zm87.74 30.81c-9.58.24-17.56 10.3-20.8 14.24-.3.3-.7.2-.8-.2-.13-.85-.23-1.77-.3-2.75l-1.6 1.65c-16.9 1.9-30.1 11.7-29.5 30.9 0 1.6 2.4 1.6 2.5-.1.5-9.1 5.5-23 26.6-27.3 1.1 1.7 3.8 1.3 4.8.1 6.4-7.8 11.8-14.1 20.7-14.1 3.4 0 5.9 3.1 3.7 6.9 0 0 .89.69 1.61 1.24.51-.66.92-1.27 1.19-1.84 1.4-3.1-.3-7.2-3.9-8.2-1.42-.41-2.83-.58-4.2-.54z" fill="#faa700"/><path d="m66.24 4.13c-.05-.01-.1 0-.15 0 2.04.45 3.31 2.9 3.31 4.77-.2 24.4-1.1 44.9-1.1 46.8 0 2.8 1.6 2.9 3.9 3.2v-.04c-.56-.09-1.05-.62-1-1.56.1-1.3 1.2-40.6 1-47-.1-4-2.97-6.02-5.96-6.17zm-23.64 7.06c-.55-.04-1.11.01-1.66.12.11.04.22.09.36.09 2.4 0 3.9 2.5 4.1 4.6.3 2 4.6 35.6 5 38.7.4 3.17 2.56 2.71 4.45 2.6-.6.01-1.16-.31-1.25-1-.2-1.5-5.2-36.3-6-40.7-.57-2.84-2.73-4.25-5-4.41zm47.69 1.95c1 1.24 2.24 3.65 1.91 7.46-.4 4.6-4.6 30.4-4.8 33.3-.3 3-2.2 16.5-.5 22.2.5 1.6 2.5 1.2 2.9 0 .06-.18.15-.36.27-.64-.17-.02-.32-.14-.37-.36-2.1-13.3 4.4-44.2 5-55.5.14-3.75-1.95-5.85-4.41-6.46zm-66.73 17.11c-.42-.02-.84.03-1.26.1 2.1.61 3.3 2.65 3.6 3.85.4 1.6 7.5 24.1 8.4 26.4.78 1.98 2.23 2.29 3.84 2.03-.48-.1-.93-.45-1.14-1.13-.3-1-8-25.6-9-28.2-.82-2.02-2.59-2.98-4.44-3.05zm95.92 35.12c-.44 1.4-1.28 3.16-3.08 5.03-8.8 9.1-16 13-22.2 24.9-11.49 22.2-28.87 33.59-55.62 21.89 10.76 8.91 25.66 7.99 35.62 4.01 14.5-5.8 23.1-25.7 24.1-27.4 6.4-10.8 18.8-19.1 21.1-24 .63-1.4.6-3 .08-4.43z" fill="#b55e19"/></svg>