<svg enable-background="new 0 0 128 128" viewBox="0 0 128 128" xmlns="http://www.w3.org/2000/svg" xmlns:xlink="http://www.w3.org/1999/xlink"><radialGradient id="a" cx="63.6" cy="67.1" gradientTransform="matrix(1 0 0 -1 0 130)" gradientUnits="userSpaceOnUse" r="56.9597"><stop offset=".5" stop-color="#fde030"/><stop offset=".92" stop-color="#f7c02b"/><stop offset="1" stop-color="#f4a223"/></radialGradient><linearGradient id="b" gradientTransform="matrix(1 0 0 -1 0 130)" gradientUnits="userSpaceOnUse" x1="97.85" x2="97.85" y1="55.4" y2="72.9"><stop offset=".02" stop-color="#fcc21b"/><stop offset=".7" stop-color="#fde030"/><stop offset="1" stop-color="#f4a223"/></linearGradient><linearGradient id="c" gradientTransform="matrix(1 0 0 -1 0 130)" gradientUnits="userSpaceOnUse" x1="63.6" x2="101.1" y1="64.15" y2="64.15"><stop offset=".4" stop-color="#fde030"/><stop offset="1" stop-color="#f4a223" stop-opacity="0"/></linearGradient><linearGradient id="d" gradientTransform="matrix(1 0 0 -1 0 130)" gradientUnits="userSpaceOnUse" x1="110.22" x2="127.7" y1="64.15" y2="64.15"><stop offset="0" stop-color="#f4a223" stop-opacity="0"/><stop offset=".6" stop-color="#fcc21b"/></linearGradient><path d="m63.6 118.8c-27.9 0-58-17.5-58-55.9s30.1-55.9 58-55.9c15.5 0 29.8 5.1 40.4 14.4 11.5 10.2 17.6 24.6 17.6 41.5s-6.1 31.2-17.6 41.4c-10.6 9.3-25 14.5-40.4 14.5z" fill="url(#a)"/><path d="m111.49 29.67c5.33 8.6 8.11 18.84 8.11 30.23 0 16.9-6.1 31.2-17.6 41.4-10.6 9.3-25 14.5-40.4 14.5-18.06 0-37-7.35-48.18-22.94 10.76 17.66 31 25.94 50.18 25.94 15.4 0 29.8-5.2 40.4-14.5 11.5-10.2 17.6-24.5 17.6-41.4 0-12.74-3.47-24.06-10.11-33.23z" fill="#eb8f00"/><path d="m126.22 60.82c-.31-.45-.67-.87-1.06-1.25-.19-.19-.4-.37-.61-.54-1.54-1.25-3.47-1.93-5.45-1.93h-49.1c-1.1 0-2 .9-2 2v13.5c0 .27.05.53.16.78.05.12.11.23.18.34.15.21.33.39.54.54.33.22.72.34 1.12.34h48.8c.89 0 1.78-.13 2.64-.39.55-.17 1.09-.39 1.6-.66 2.85-1.49 4.64-4.43 4.66-7.65v-.4c0-1.67-.52-3.31-1.48-4.68z" fill="url(#b)"/><path d="m63.6 57.1h37.5v17.5h-37.5z" fill="url(#c)"/><path d="m110.22 57.1h8.88c1.98-.01 3.9.66 5.45 1.9.21.17.42.35.61.54.39.38.75.8 1.06 1.25.96 1.37 1.48 3.01 1.48 4.68v.4c-.01 3.24-1.83 6.19-4.7 7.68-.51.27-1.05.49-1.6.66-.86.26-1.75.39-2.64.39h-7.76" fill="url(#d)"/><g fill="#422b0d"><path d="m59.3 90.5c7.1-2.3 13.4-.3 15.7 1.6.82.56 1.28 1.51 1.2 2.5-.13.64-.58 1.17-1.2 1.4-.22.08-.46.12-.7.1-8.48.18-16.73 2.86-23.7 7.7-.2.1-.4.3-.6.3-.63.22-1.33.07-1.8-.4-.64-.75-.83-1.78-.5-2.7.6-2.8 4.5-8.1 11.6-10.5z"/><path d="m90.8 54.4c0-5.9-3.8-9.4-8-9.4s-8 3.5-8 9.4c0 .91.1 1.81.3 2.7h15.4c.2-.89.3-1.79.3-2.7z"/><path d="m45.2 45c-4.2 0-8 3.5-8 9.4s3.8 9.4 8 9.4 8-3.5 8-9.4-3.8-9.4-8-9.4z"/></g><path d="m72.63 74.05c9.79-.52 19.59-.8 29.39-1 4.9-.12 9.8-.14 14.7-.21h1.81c.52-.02 1.04-.09 1.55-.21 1.02-.26 1.97-.73 2.79-1.39 1.65-1.32 2.6-3.33 2.57-5.44.04-1.04-.17-2.06-.62-3-.21-.47-.49-.91-.84-1.29l-.5-.59c-.19-.18-.38-.36-.58-.52-.81-.68-1.76-1.16-2.79-1.4-.52-.11-1.04-.17-1.57-.17h-1.84c-4.89-.13-9.79-.21-14.69-.38-9.8-.31-19.59-.7-29.38-1.34 9.8-.41 19.6-.57 29.4-.63 4.89-.06 9.79 0 14.69 0h1.84c2.13-.02 4.2.69 5.87 2 .27.22.54.45.79.69l.69.81c.47.53.87 1.13 1.17 1.77.61 1.28.91 2.68.88 4.1.01 2.87-1.3 5.58-3.55 7.36-1.1.87-2.38 1.48-3.75 1.79-.68.17-1.38.26-2.08.27h-1.86c-4.9-.07-9.8-.09-14.7-.21-9.8-.21-19.6-.49-29.39-1.01z" fill="#eb8f00"/><path d="m31.06 40.49c-1.65 1.51-4.26-.35-2.88-2.32 3.15-4.23 7.8-7.1 13-8 1.91-.42 3.88-.51 5.82-.27 1.01.04 1.8.89 1.76 1.9s-.89 1.8-1.9 1.76h-.14c-5.85.48-11.37 2.92-15.66 6.93z" fill="#422b0d"/><path d="m94.75 34.35c1.54 1.62 4.27-.05 3-2.11-2.83-4.49-7.28-7.71-12.43-9-1.88-.54-3.84-.75-5.79-.63-1.01-.03-1.86.76-1.89 1.77s.76 1.86 1.77 1.89h.14c5.84.88 11.2 3.74 15.2 8.08z" fill="#422b0d"/></svg>