<svg enable-background="new 0 0 128 128" viewBox="0 0 128 128" xmlns="http://www.w3.org/2000/svg" xmlns:xlink="http://www.w3.org/1999/xlink"><radialGradient id="a" cx="17.77" cy="49.31" gradientUnits="userSpaceOnUse" r="17.35"><stop offset=".4448" stop-color="#6da3af"/><stop offset=".5973" stop-color="#659aa6"/><stop offset=".8464" stop-color="#50838d"/><stop offset="1" stop-color="#40727b"/></radialGradient><radialGradient id="b" cx="-.34" cy="43.02" gradientUnits="userSpaceOnUse" r="36.01"><stop offset=".5557" stop-color="#6da3af"/><stop offset=".6547" stop-color="#699eaa"/><stop offset=".7701" stop-color="#5d919c"/><stop offset=".8932" stop-color="#487b85"/><stop offset=".9353" stop-color="#40727b"/></radialGradient><path d="m34.38 77.93-5.82 15.2s.28 1.13 2.82.84 5.82-2.72 5.82-2.72 3.08-.08 4.6-.38c3.1-.6 5.4-1.4 5.4-1.4s-.14 2.15.42 3.55 2.91 4.04 2.91 7.51-3.43 9.55-2.49 11.61 3.05 5.28 7.65 5 10.61-2.53 10.61-2.53.94-10.61.56-13.61-3.19-6.66-3.66-7.98c-.47-1.31-.47-7.23-.47-7.23l3.28 1.31s19.05 2.72 21.02 2.72 4.6.19 4.6.19.84 2.44.84 4.69-.84 4.41-2.06 5.44-2.34 4.06-1.5 5.35c.82 1.27 3.1 3.1 8.82 3.1s10.23-1.97 10.23-1.97l-1.69-8.63s-1.88-1.69-2.16-3.19 2.35-9.67 2.35-9.67l15.58-21.68-.38-4.97-56.96-7.2z" fill="#40727b"/><path d="m60.94 36.82s1.97-8.17-1.41-9.01-5.51 3.25-6.29 6.1c-.59 2.15-.38 4.79-.38 4.79s-2.06-1-4.22-.93c-1.97.06-4.04.93-4.04.93s-.09-4.32-1.5-6.85-3.85-4.69-5.82-4.13-2.64 4.73-1.69 7.6c1.15 3.47 4.22 5.73 4.22 5.73s-3.75 4.04-4.69 5.54-7.41 11.45-7.41 11.45-4.79 7.6-6.76 9.2-9.2 9.48-9.95 12.11-1.31 6.48-.56 9.1c.54 1.88 1.69 4.13 3.57 5.07s2.72.19 3.85.66 3.1 1.78 5.73 1.88c2.63.09 5.1-1.5 5.42-2.03s.77-1.9 1.44-2.6 3.98-3.8 4.43-4.26 1.38-.8 1.83-.25c.55.68-1.09 2.08-1.58 2.46s-3.91 2.82-3.41 2.89c.49.07 4.16-1.48 4.92-2.56.3-.42 3.21.02 6.87-.86s8.62-3.73 9.78-5.1 4.08-4.68 5.14-6.58 2.82-4.93 3.41-7.92.81-4.79.92-5.21.28-1.13 1.02-.99.84.53.74 1.44-.5 3.37-.81 4.93c-.33 1.65-.63 3.03-1.65 5.14s-2.04 3.41-2.04 3.41 2.32.11 5.14-1.79 4.15-3.48 5.17-5.14c1.02-1.65 2.01-4.26 2.15-5s.39-1.16 1.02-1.09.74 1.06.53 1.76-1.18 3.67-2.24 5.4c-1.06 1.72-3.71 4.53-5.78 5.76-2.08 1.23-3.5 1.64-4.38 1.82s-2.52.4-2.52.4-3.06 2.85-2.82 4.33 1.87 2.11 3.98 2.25 4.68.32 5.84.92 2.15 1.41 2.18 3.24.14 3.13-.56 5.6c-.7 2.46-1.44 4.36-1.79 5.88-.35 1.51-.35 2.43-.35 2.43s-1.76 1.27-3.1 4.61-1.62 6.26-1.23 6.83c.39.56 2.57 3.1 8.8 3.31s9.1-.4 10.72-.96c1.51-.53 2.21-1.89 2.4-2.31.67-1.44-.04-4.54-.04-5.98s.11-3.59.21-4.12c.11-.53 2.42-2.82 3.31-5.03 1.62-4.05.14-11.97.42-12.46s5.74.77 9.54-1.51c3.8-2.29 7.6-8.45 9.43-11.97s3.94-7.25 5.67-9.68c1.72-2.43 4.68-5.81 6.41-5.81 1.72 0 3.45 1.02 2.99 1.94s-2.36-.42-3.73.35-3.84 3.52-4.89 5.42-3.55 6.19-4.12 7.36c-.56 1.16-2.53 5.56-2.53 5.56s-.46 3.38.32 6.62c.22.9.63 2.6.46 5-.18 2.39-1.58 6.19-2.36 7.81-.77 1.62-1.69 4.4-1.48 6.83s1.16 3.8 3.38 4.79 9.29 1.15 11.68.84c2.22-.28 4.14-1.01 5-2.46 1.1-1.88.98-4.9.7-6.05-.56-2.32-1.3-2.29-1.41-3.8s.63-14.29.67-17.98c.04-3.7.97-11.18.93-17.8s-1.88-16.51-6.57-22.52c-2.56-3.28-6.57-5.4-9.6-7.58-2.81-2.03-4.36-3.38-6.69-3.45-2.32-.07-7.53 1.34-11.05 3.59s-5.7 2.96-7.04 3.03-6.83-3.8-10.7-4.22c-3.87-.48-11.15 3.88-11.15 3.88z" fill="#6da3af"/><path d="m76.71 79.76c-6.01-.14-8.96 2.67-10.18 3.99-1.22 1.31-1.03 1.92-.56 2.39s1.08-.14 1.88-.75 4.13-3.61 8.82-3.19 7.65 2.58 8.68 3.33 2.25 2.35 3 1.55.05-1.69-1.13-2.86-5.82-4.35-10.51-4.46z" fill="#40727b"/><ellipse cx="43.68" cy="69.6" fill="#352a2d" rx="4.14" ry="3.3" transform="matrix(.2732 -.9619 .9619 .2732 -35.21 92.6)"/><path d="m25.42 89.43c1.09-.04 1.74-3.28 2.96-3.89s1.31.23 1.97-.52c.31-.35.7-3.8-2.58-3.85s-3.92 4.2-3.85 5.16c.09 1.31.33 3.14 1.5 3.1z" fill="#45494f"/><path d="m21.57 48.6c-.45-.15-2.11 3.43-1.97 8.35.16 5.45 1.88 9.81 3.28 10.04s3.61-.23 5.54-1.74c1.92-1.5 3.24-3.89 3.24-4.69s-3.52-2.11-5.4-4.65c-2.2-2.96-3.98-7.07-4.69-7.31z" fill="url(#a)"/><path d="m7.73 43.21c-1.36-.14-3.72 7.68-3.47 14.03.26 6.55 1.88 11.92 2.82 14.78.6 1.82 3.14 7.32 4.08 7.46 1.59.24 4.74-.05 7.51-2.77 3.29-3.23 2.72-8.12 1.69-8.96-1.81-1.48-4.74-3.52-6.57-7.32s-3.6-10.48-4.13-12.53c-.48-1.83-1.03-4.6-1.93-4.69z" fill="url(#b)"/><g fill="#a6cdd1"><path d="m75.54 113.5c-3.43-.05-4.04 3.24-4.32 3.24s-.33-3.24-3.47-3.66-4.88 4.5-4.88 4.5 1.24 1.57 7.67 1.99c6 .39 9.13-.77 9.13-.77s.28-5.24-4.13-5.3z"/><path d="m121.41 111.06s-.73-4.93-4.11-5.11-4.04 2.53-4.22 2.49c-.19-.05.14-3.85-4.13-3.94-3.14-.07-5.49 4.55-5.49 4.55s1.17 1.95 3.19 2.67c2.45.88 4.6.9 7.84.94 4.5.04 6.92-1.6 6.92-1.6z"/></g></svg>