<svg enable-background="new 0 0 128 128" viewBox="0 0 128 128" xmlns="http://www.w3.org/2000/svg"><path d="m80 97.3c-1.7 7.6-6.2 12.3-13.5 12.6.4 3.2-3.3 10.4-16.7 10.4-3.2 0-11.3-.1-19.1-6.9-4.7-4.1-16.2-13.1-20.7-23.4-2.1-4.9-3.7-9.4-2.3-13 2.5-6.6 8.4-5 7.1-13.9-.5-3.5.6-10.6 7.8-13.1 2.7-.9 6.1-4.2 5.4-9s2.2-11.8 11.8-14.2c10.8-2.8 6.5-12 15.8-16.6 9.8-5 17.9-1.7 22.2 5.4 1.6 2.6 3.1 5 3.7 11.2 7.6 9.1 13.5 22.3 22.7 26.7 2.7 1.3 8.9 2.4 12 10.5 1.6 4.1 3.2 8.6 3.8 10.2 2 5.5-.4 13.3-5.5 16.3-6.5 3.8-13.5 9.2-16.3 12.1-.9.8-11.3 8.7-18.2-5.3z" fill="#ffca28"/><path d="m64.22 7.81c-2.66.08-5.56.83-8.62 2.39-9.3 4.6-5 13.8-15.8 16.6-9.6 2.4-12.5 9.4-11.8 14.2s-2.7 8.1-5.4 9c-7.2 2.5-8.3 9.6-7.8 13.1 1.3 8.9-4.6 7.3-7.1 13.9-1.4 3.6.2 8.1 2.3 13 4.5 10.3 16 19.3 20.7 23.4 7.8 6.8 15.9 6.9 19.1 6.9 13.4 0 17.1-7.2 16.7-10.4 7.3-.3 11.8-5 13.5-12.6 6.9 14 17.3 6.1 18.2 5.3 1.56-1.61 4.46-4 7.8-6.45 3.91-4.49 7.83-9.05 8.5-9.95 2-2.9 0-4.7-.8-5.6-.8-.8-4.7-5-5.6-6.2s-2.3-2.8-5.5-2.1-7.5 3.4-10.3 5.6c-2.2 1.8-2.5-1-1.2-2.8.5-.7 3.1-3.8 3.7-6.2 2.7-10.7-1.1-11-2-8.9-1.7 3.9-3.9 5.7-4.6 4.1-1.6-3.5 3.1-7.7-4.4-26.7-.9-2.1 1.1-2.5 2-1.1.6 1 5.4 7 8.5 11.6s9.8 7.2 14.2 9c1.44.59 2.4.62 3.08.42-2.76-2.3-5.73-3.02-7.38-3.82-9.2-4.4-15.1-17.6-22.7-26.7-.04-.46-.1-.86-.16-1.28l-.64.08-10.6 23.6s9.3 11.1 10.4 14.2c2.9 8.4 1 9.7-3 14.3-4.5 5.4-9.1 6.9-13.8 3.9-2.2-1.4-1 1.9.9 4.9 3.7 5.8 2.1 8.8-.4 11.6-5.8 6.5-11.2 4.9-13.4 3.3s-4.1.4-2.9 1.9c4.1 5.2-.9 11.3-5.3 10.8-14.6-1.6-28.7-20.7-31.5-28.9-2.1-6.1 1-9.7 2.2-10.6 4.1-2.8 5.2-6.2 4.3-11.1-1.3-6.7 3.8-9.9 5.9-10.5 6.7-2 7.8-7.4 7.4-11.4-.8-8.8 5.3-11 9.5-12 8.7-2 9.2-7 10.3-9.8 3.5-9 11.5-9.8 14.4-9.6 10.5.6 13.8 12.5 14.4 15.7l1.64-1.76c-.73-4.28-1.99-6.35-3.34-8.54-2.96-4.88-7.71-7.97-13.58-7.79zm3.27 8.56c-6.24.08-11.27 3.77-13.79 10.43-.7 1.8 1.3 2.3 2 1.3 3.6-5.3 8.3-8.6 15.8-8.6 2.1 0 2-2.2.5-2.6-1.56-.37-3.06-.55-4.51-.53z" fill="#faa700"/><path d="m78.49 16.77c-.26.35-.31.83-.19 1.33 3.9 13.5-3.4 18.8-6.4 20.4-2.7 1.5-12.1 4.9-18-5.9-.5-.9-1.8-.8-1.5.6 2.6 10.9 11.2 18.7 16.2 18.5 16.2 15.7 16.4 19.4 17.1 22.8.8 3.9.1 6.6-3.1 10.8-4.1 5.3-6.1 4.6-7.8 4.3-5.5-.9-10.4-7.4-22.6-22.3-1.6-1.9-.9-2.1-2-3.4-1.1-1.2-2.6-.3-3.7.4-1.1.8-3.2 2.4-2 4.2.9 1.4 2.4.4 4.1 2.2 13.5 14.4 19.8 21.6 28.4 24.2-.9 9.1-8.7 12.7-11.7 12.3-12.9-1.8-13.4-4.8-27.9-20.6-3.6-3.8-1.7-3.8-3.4-5.6-1.1-1.2-2.8-.5-3.9.8-.5.6-2 2.4-1.1 3.5 1.6 2 3.1.6 6.1 4.2 14.8 17.9 17.3 17.9 28.3 20.5-.4 3.2-2.2 4.5-4.6 6-2 1.3-16.75 5.38-33.91-7.63 2.3 2.05 4.38 3.79 5.81 5.03 7.8 6.8 15.9 6.9 19.1 6.9 13.4 0 17.1-7.2 16.7-10.4 7.3-.3 11.8-5 13.5-12.6 1.59 3.23 3.37 5.25 5.17 6.51.12-.51.08-1.24-.47-2.21-2.6-4.3-2.5-11.2 0-15.1.5-.8 6.1-9.3 7.6-11.1 3.5-4.4 7.3-5 9.7-5.8 1.6-.6 1.1-1.8-.2-2-3.9-.4-8.2 2-10.2 3.9-.5.5-1.8.8-1.7-.9.3-6.5 4.1-9.5 4.8-10.3s-.1-1.3-1-1.1c-.7.2-5.4 1.8-6.4 8.2-.4-1.5-4.2-6.5-12.8-17 8.72-5.91 7.68-19.9 7.15-23.4-.05-.07-.1-.14-.15-.2-.51-5.28-1.68-7.79-3.01-10.03zm19.84 32.45c-.26.9.22 1.83.77 2.38.7.7 4.8 3.7 7.1 4.8 4.8 2.3 6.7 5.8 7.4 7.8.4 1.2 3.1 8.7 3.7 11 1.9 7.4-3.8 12.8-7.1 14.8-2.3 1.3-6.1 3.6-8.2 6.8-1.87 2.85-4.26 5.55-5.36 6.86.78-.47 1.39-.91 1.56-1.06 2.8-2.9 9.8-8.3 16.3-12.1 5.1-3 7.5-10.8 5.5-16.3-.6-1.6-2.2-6.1-3.8-10.2-3.1-8.1-9.3-9.2-12-10.5-2.11-1.01-4.05-2.5-5.87-4.28z" fill="#b55e19"/></svg>