<svg enable-background="new 0 0 128 128" viewBox="0 0 128 128" xmlns="http://www.w3.org/2000/svg" xmlns:xlink="http://www.w3.org/1999/xlink"><linearGradient id="a" gradientUnits="userSpaceOnUse" x1="11.839" x2="30.5044" y1="72.8573" y2="18.649"><stop offset=".1824" stop-color="#c9c7c8"/><stop offset=".2561" stop-color="#bdbcbd"/><stop offset=".411" stop-color="#a8a8aa"/><stop offset=".4982" stop-color="#9e9ea1"/><stop offset=".6479" stop-color="#828487"/><stop offset=".7993" stop-color="#606468"/></linearGradient><linearGradient id="b" gradientUnits="userSpaceOnUse" x1="117.2001" x2="94.4197" y1="67.0827" y2="15.917"><stop offset=".164" stop-color="#c9c7c8"/><stop offset=".2437" stop-color="#bdbcbd"/><stop offset=".411" stop-color="#a8a8aa"/><stop offset=".4861" stop-color="#96979a"/><stop offset=".6741" stop-color="#6f7276"/><stop offset=".7721" stop-color="#606468"/></linearGradient><radialGradient id="c" cx="64.6425" cy="78.8829" gradientUnits="userSpaceOnUse" r="24.1911"><stop offset=".784" stop-color="#febdbb"/><stop offset=".8205" stop-color="#f5bebc"/><stop offset=".88" stop-color="#dcc1c0"/><stop offset=".9223" stop-color="#c7c3c3"/></radialGradient><path d="m62.18 22.88c5.55-.08 11.05 1.02 16.09 3 8.7 3.42 28.4 5.23 32.31 12.32 4.63 8.4-2.68 29.11-2.27 32.51.39 3.29.48 7.47.07 10.68-.72 5.6-2.93 11.04-6.75 15.94-3.86 4.94-9.88 9.18-18.24 11.64-17.63 5.17-41.08 1.87-50.28-5.75-3.45-2.85-6.01-5.86-7.84-9.08-3.06-5.36-4.12-11.29-3.94-18.02.29-10.77-11.4-26.77-3.35-35.82s28.2-13.84 28.2-13.84 6.37-3.43 16-3.58z" fill="#b0b0b0"/><path d="m92.96 34.76c.24 1.01 2.78 4.31 5.94 10.44 3.03 5.87 5.46 11.97 5.94 12.07 1.14.23 12.93-3.45 13.02-3.83.1-.38-4.02-20.11-4.02-20.11l-18.67-5.17z" fill="#febdbe"/><path d="m28.18 45.87c3.16-7.43 5.7-9.53 5.99-10.77s-11.01-3.5-11.01-3.5l-12.36 7.37 3.06 14.75s8.52 7.04 9.1 6.94c.58-.09 2.06-7.37 5.22-14.79z" fill="#febdbe"/><path d="m46.71 26.43c.38-3.55-13.79-7.18-18.1-4.69-3.15 1.82.19 3.45-1.15 4.6-.89.76-9-3.06-15.03 1.53-4.59 3.49-2.01 3.83-2.3 4.98s-3.16 2.97-4.98 5.75-2.78 6.75-2.2 7.37c.71.77 2.79-.77 3.06.77.29 1.63-3.23 6.98-1.63 11.87 1.53 4.69 2.87 1.15 3.93 2.59 1.05 1.44.1 3.54 2.59 8.04 1.66 3 3.6 3.94 4.31 4.12 1.15.29.96-1.15 2.39-1.24 1.44-.1 3.73 4.02 3.73 4.02s-.1-3.45.53-8.81c.63-5.4 1.77-7.09 1.68-7.95-.1-.86-9.38-6.51-6.13-16.18s12.16-7.95 13.31-7.66 2.97.96 5.65.29c2.68-.69 9.96-5.86 10.34-9.4z" fill="url(#a)"/><path d="m77.83 25.95c-.15 1.21 3.56 4.07 6.03 5.65 3.45 2.2 7.18 3.54 8.62 3.54s11.87-5.94 17.24 3.06c5.36 9-4.6 17.72-4.88 19.06-.05 1.87.73 2.93 1.77 6.99.96 3.73 1.39 5.12 1.63 6.61.36.62 4.47-2.65 6.75-6.13 1.63-2.49 1.72-5.08 2.68-5.36.96-.29 1.53 2.68 2.78 2.49 1.24-.19 3.49-6.7 3.02-11.2-.67-6.32-4.45-8.43-3.3-10.44s3.73.38 4.6-1.24c.86-1.63-1.24-6.22-4.41-8.43s-6.32-1.92-6.8-3.06c-.48-1.15 1.63-1.72 1.63-2.97 0-1.24-3.45-3.16-9.48-3.45-5.18-.25-9.86 2.49-10.15.96s1.05-1.44.96-2.11c-.1-.67-3.68-2.25-9-.77-4.13 1.15-9.5 5.29-9.69 6.8z" fill="url(#b)"/><path d="m84.82 59.2c-3.6.18-4.24 4.24-4.02 6.97.23 2.95 1.01 6.46 4.74 6.39 3.81-.07 4.74-4.09 4.81-7.18.08-3.09-1.14-6.39-5.53-6.18z" fill="#2f2f2f"/><path d="m43.74 58.99c-3.6.18-4.55 3.08-4.45 5.82.14 4.24 2.59 7.47 5.17 7.54 3.81.11 4.6-3.45 4.67-6.54s-1.01-7.04-5.39-6.82z" fill="#2f2f2f"/><path d="m85.69 63.73c-.62 1.45-2.06 2.54-2.94 2.17s-1.08-1.85-.46-3.3 1.83-2.32 2.7-1.94c.88.37 1.32 1.62.7 3.07z" fill="#dfdfdf"/><path d="m44.68 64.37c-.75 1.3-2.59 2.22-3.45 1.72-.86-.49-.69-2.2.06-3.5s2.05-1.96 2.91-1.46c.85.49 1.23 1.94.48 3.24z" fill="#dfdfdf"/><path d="m67.73 94.47-7.47-.14-6.18-2.08s-.12 3.9.07 6.25c.22 2.59 2.73 8.05 10.92 7.9 7.97-.14 10.63-5.01 10.7-7.97.07-2.94-.07-5.24-.07-5.24z" fill="url(#c)"/><path d="m64.93 92.89c-2.3.07-5.46-.57-6.68-1.01-1.22-.43-3.02-1.72-4.17-.36s.5 3.16 3.16 4.02 4.67 1.36 7.54 1.29c3.59-.09 6.89-.72 8.04-1.08s3.85-1.53 3.09-3.38c-.86-2.08-2.37-.72-4.31-.22-1.93.52-4.23.66-6.67.74z" fill="#2f2f2f"/><path d="m64.86 59.99c-7.18-.15-9.41 5.67-9.98 9.48s-1.14 7.74-.12 12.4c1.01 4.6 4.64 7.22 10.03 7.13 4.74-.07 7.48-1.74 8.91-4.52 1.58-3.09 1.51-6.18 1.22-12.86-.29-6.67-3.38-11.49-10.06-11.63z" fill="#303030"/><g fill="#afafaf"><path d="m66.26 85.74c0 .69 1.03 1.09 2.19.75 1.22-.36 3.12-1.47 3.7-2.77.31-.69.07-1.72-.68-1.4s-1.36 1.04-2.41 1.69c-1.04.65-2.8 1.19-2.8 1.73z"/><path d="m60.69 83.94c-1.6-.97-2.12-1.76-2.84-1.51s-.32 1.69.43 2.33 2.08 1.65 3.45 1.94c1.07.22 1.8-.61 1.44-1.08-.36-.46-1.29-.96-2.48-1.68z"/></g></svg>