<svg enable-background="new 0 0 128 128" viewBox="0 0 128 128" xmlns="http://www.w3.org/2000/svg" xmlns:xlink="http://www.w3.org/1999/xlink"><clipPath id="a"><path d="m52.2 43.8c2.5-2 13.4-10 13.9-19.9.1-2.5-1.4-10.7-8.7-7.2-5.1 2.5-8.3 11.8-26.6 21.5-5.6 3-23.8 13-23.8 33.7 0 10.4 4.9 25 21.1 29.7 12.9 3.8 27.7 4.7 63.2-.6 10.6-1.6 7.8-10.2 2.2-10.9 5.9-.5 11.3-.7 14.4-1.5 4.8-1.1 6.5-3.6 6.6-6 .2-3.1-2.4-6.1-6.8-6.6 3.6-.4 6.4-.7 7.4-.8 7.5-1.2 7.7-10.8.3-12.3-3.3-.7-6.6-1-9.9-1 12.5-.8 10.6-11.7 3.1-12.8-12.4-1.8-45.4-3.1-56.4-5.3z"/></clipPath><clipPath id="b"><path d="m52.2 43.8c2.5-2 13.4-10 13.9-19.9.1-2.5-1.4-10.7-8.7-7.2-5.1 2.5-8.3 11.8-26.6 21.5-5.6 3-23.8 13-23.8 33.7 0 10.4 4.9 25 21.1 29.7 12.9 3.8 27.7 4.7 63.2-.6 10.6-1.6 7.8-10.2 2.2-10.9 5.9-.5 11.3-.7 14.4-1.5 4.8-1.1 6.5-3.6 6.6-6 .2-3.1-2.4-6.1-6.8-6.6 3.6-.4 6.4-.7 7.4-.8 7.5-1.2 7.7-10.8.3-12.3-3.3-.7-6.6-1-9.9-1 12.5-.8 10.6-11.7 3.1-12.8-12.4-1.8-45.4-3.1-56.4-5.3z"/></clipPath><path d="m52.2 43.8c2.5-2 13.4-10 13.9-19.9.1-2.5-1.4-10.7-8.7-7.2-5.1 2.5-8.3 11.8-26.6 21.5-5.6 3-23.8 13-23.8 33.7 0 10.4 4.9 25 21.1 29.7 12.9 3.8 27.7 4.7 63.2-.6 10.6-1.6 7.8-10.2 2.2-10.9 5.9-.5 11.3-.7 14.4-1.5 4.8-1.1 6.5-3.6 6.6-6 .2-3.1-2.4-6.1-6.8-6.6 3.6-.4 6.4-.7 7.4-.8 7.5-1.2 7.7-10.8.3-12.3-3.3-.7-6.6-1-9.9-1 12.5-.8 10.6-11.7 3.1-12.8-12.4-1.8-45.4-3.1-56.4-5.3z" fill="#ffca28"/><g clip-path="url(#a)" fill="#faa700"><path d="m63.4 27.7c1.9-3.1.2-12.2-5.5-8.4-4.6 3.1-8.2 10.3-16.9 15.7-5.5 3.4-20.3 9.7-26.8 20.8-6.5 11.2-6 22.8-1.6 31.5s-2.8 2.6-2.8 2.6l-6-19.5 3.3-17.4 49.3-38.6 9.7-.3 3.3 13.2z"/><path d="m53.1 40c-4.9.5-4.4 5.8-.9 6.3 1.4.2 6 .8 10.8 1.3 16.1 1.6 44.3 3.5 45.2 3.6 5.5.7 4.6 8-.3 8.3-2 .1-1.2 1.7-.2 1.7 1.1-.1 7.9-.3 7.9-.3v-12.5z"/><path d="m91.3 61.2c.1.8.8 2.1 2.7 2.1s17.4 1.2 19 1.3c7.4.5 6.7 7.4 3 8.4-1.9.5-.9 2.7.2 2.6 1.2-.1 6.3-.8 6.2-6s-3-7.7-6.1-7.7c-3.1-.2-25-.7-25-.7z"/><path d="m88 76c.1.4 1.3 1.3 3 1.4s15 .9 16.6 1.1c7 .8 5.1 7.8 1.1 8.3-1.6.2-1.2 2.3-.2 2.3s8.2-.4 8.2-6.2-5.7-6.9-5.7-6.9-23 0-23 0z"/><path d="m75 90.1c.3.5.7 1.5 2.6 1.5 1.8 0 14.4.8 15.2.8 4.9.3 4.1 5.8.8 6.2-1.8.2-1.2 3.3 0 3.2 1.2 0 6.9-1 6.6-6.5-.3-5.4-5.4-6-5.4-6z"/><path d="m59.8 53.8c2.4.1 2.6 1.9 1 2.9-2.3 1.3-5.7 1.2-7.7-.2-1.1-.7-1.1-2 .2-2.5 1.2-.5 6.1-.2 6.5-.2z"/><path d="m59.1 68.8c2.4.1 2.6 1.9 1 2.9-2.3 1.3-5.7 1.2-7.7-.2-1.1-.7-1.1-2 .2-2.5 1.2-.6 6.1-.2 6.5-.2z"/><path d="m58.3 82.6c2.3.1 2.5 1.9.9 2.9-2.2 1.3-5.4 1.2-7.4-.2-1-.7-1-2 .2-2.5s5.9-.2 6.3-.2z"/><path d="m56.8 94.9c2 .1 2.2 1.8.8 2.7-1.9 1.3-4.7 1.1-6.4-.2-.9-.7-.9-1.9.2-2.4 1-.4 5.1-.1 5.4-.1z"/></g><g clip-path="url(#b)" fill="#b55e19"><path d="m57.4 42.5c-1.7 1.3-4.3 1.3-5.2 1.3s-2.9-1.3-1.4-2.9 12.1-8.7 14.5-19.3c.3-1.2 1.6-.7 1.5.7s2.8 10.8-9.4 20.2z"/><path d="m105.6 61.9c-3 .1-34.8.3-35.6.3s-1.8.6-2.5.6c-1.3 0-1.3-1.1-1.4-2.3s-.3-2.4 1-2.4c1.1 0 1.3.8 2.7.7s36.5.7 38 .7 4.5-.3 6-2.4c.6-.8 1.4.2 1.1.7s-1.2 2.9-3.2 3.3c-2 .6-6.1.8-6.1.8z"/><path d="m107.8 76.1c-2.9-.1-37.1.6-37.8.7-1.5.1-1.7.8-2.9.8-1.3 0-1.1-1.1-1.1-2.3 0-1.1-.1-2.3 1.1-2.3 1.4 0 .8.7 3 .7 1.5 0 40.4 0 43.4-.4 5.2-.7 6.4-2.5 6.7-2.9s1.1-.5.8.5c-.2.7-.6 3.7-3.4 4.6-2.8 1.1-9.8.6-9.8.6z"/><path d="m93.6 90.2c-2.4.1-25.4.5-26.3.6s-1.3.6-2.5.6c-1.3 0-1.1-1-.9-2s.3-1.9 1.4-2c1.3-.1.9.8 2.3.7s36.2-.7 39.9-1.3c2-.3 5.5-1.2 6.7-3.6.2-.4 1.1-.6 1.1.4s-.6 4.3-4.3 5.6c-2.5.8-17.4 1-17.4 1z"/><path d="m7.5 71c2.3 9.7 3.7 31.5 44.8 31 16.9-.2 38.6-2.9 41.4-3.5 1.5-.3 3.4-1 4.1-2.2.2-.4.8-.3.7.4s-.6 5.7-3.1 6.1-53.7 5.9-53.7 5.9l-31.2-10.4-4-17.9s.1-8.8 0-9.3.8-1.1 1-.1z"/></g></svg>