<svg enable-background="new 0 0 128 128" viewBox="0 0 128 128" xmlns="http://www.w3.org/2000/svg" xmlns:xlink="http://www.w3.org/1999/xlink"><radialGradient id="a" cx="63.5391" cy="64.9305" gradientTransform="matrix(.3979 .9174 -3.1047 1.3466 239.8435 -80.7973)" gradientUnits="userSpaceOnUse" r="33.8256"><stop offset=".119" stop-color="#e8d59a"/><stop offset=".2967" stop-color="#e9d297"/><stop offset=".4456" stop-color="#eac78c"/><stop offset=".5837" stop-color="#edb67b"/><stop offset=".6206" stop-color="#eeb075"/><stop offset=".9032" stop-color="#f5a97f"/></radialGradient><radialGradient id="b" cx="49.8919" cy="39.0121" gradientTransform="matrix(.4505 .8928 -2.512 1.2675 125.4157 -54.978)" gradientUnits="userSpaceOnUse" r="62.2276"><stop offset=".2187" stop-color="#e3dda6"/><stop offset=".278" stop-color="#e4d9a0"/><stop offset=".3544" stop-color="#e8cd90"/><stop offset=".3841" stop-color="#eac788"/></radialGradient><radialGradient id="c" cx="60.6606" cy="68.5246" gradientUnits="userSpaceOnUse" r="26.6043"><stop offset=".4216" stop-color="#f6dfb4"/><stop offset=".9843" stop-color="#f9d4a4"/></radialGradient><radialGradient id="d" cx="81.2859" cy="66.7397" gradientUnits="userSpaceOnUse" r="37.8186"><stop offset="0" stop-color="#f6dfb4"/><stop offset=".8693" stop-color="#f9d4a4"/></radialGradient><path d="m48.54 35.12c-14.34 7.35-20.32 22.82-17.35 37.19.69 3.32 1.85 6.57 3.49 9.66 8.17 15.32 29.33 20.43 45.83 11.38 14.31-7.85 22.62-26.71 14.45-43.34-1.47-2.99-3.39-5.8-5.7-8.3-9.18-9.95-24.37-14.96-40.72-6.59z" fill="url(#a)"/><path d="m89.25 41.71c-9.17-9.95-24.37-14.96-40.71-6.59-14.34 7.35-20.32 22.82-17.35 37.19 0 0 8.89.32 32.53-13.4s25.53-17.2 25.53-17.2z" fill="url(#b)"/><path d="m38.59 42.88s10.88-.66 13.45-1.86c1.81-.85 9.04-9.87 9.04-9.87s-6.16.44-12.65 3.88c-6.39 3.38-9.84 7.85-9.84 7.85z" fill="#c6ddcb"/><path d="m31.19 72.31s9.09-.8 30.29-12.35 26.89-19.17 26.89-19.17 3.37 3.29 5.52 7.19c2.21 4.03 3.27 7.58 3.27 7.58l-19.74 13.54s-1.12-3.96 1.47-7.33c2.59-3.36 6.98-5.86 6.38-7.58s-5.43 0-9.48 3.36-8.01 7.15-9.48 6.12 2.84-4.14 1.03-4.57-5.17 1.64-9.91 5.69-7.58 7.58-14.74 9.22c-6.24 1.43-11.15-.15-11.15-.15z" fill="#f8dbaf"/><path d="m34.16 80.99s5.03.89 10.92-1.29c9.05-3.35 11.53-7.56 15.49-9.67 2.01-1.07 4.59-1.24 4.21 2.48-.4 4.03-8.43 9.17-8.43 9.17l-17.38 6.38s-1.47-1.64-2.67-3.27c-.94-1.3-2.14-3.8-2.14-3.8z" fill="url(#c)"/><path d="m45.49 93.16s12.37-2.13 29.44-12.25 23.23-16.98 23.23-16.98-.01 1.71-.09 2.61-.28 2.1-.28 2.1-8.17 9.01-21.19 16.5c-15.11 8.7-25.85 10.5-25.85 10.5s-1.53-.57-2.67-1.1c-.98-.44-2.59-1.38-2.59-1.38z" fill="url(#d)"/><path d="m32.36 53.63s-.48 1.4-.78 2.59-.61 2.81-.61 2.81 7.6-.89 25.18-10.04 21.49-15.55 21.49-15.55-1.37-.58-2.77-1.05c-1.11-.37-2.6-.71-2.6-.71s-7.8 7.35-18.42 12.71c-13.31 6.7-21.49 9.24-21.49 9.24z" fill="#f6cb89"/><path d="m30.68 60.82s-.07.75-.12 1.26c-.07.73-.09 1.52-.09 1.52s9.59-.78 27.25-10.57 24.22-17.36 24.22-17.36-.77-.49-1.48-.86c-.84-.45-1.4-.71-1.4-.71s-6.41 8.21-22.76 16.55c-18.35 9.35-25.62 10.17-25.62 10.17z" fill="#f6cb89"/><path d="m87.19 39.63s33.25-14.36 38.81-6.93c5.56 7.44-25.64 28.82-57.51 45.96s-62.57 28.16-66.29 20.33 28.62-28.66 28.62-28.66.09.52.21 1.15c.11.59.31 1.58.31 1.58l-14.36 12.09-1.81 8.2 17.77-3.32s20.18-7.14 33.29-13.96 40.63-26.51 40.63-26.51l7.89-13.18-25.85 4.94s-.36-.37-.81-.82c-.48-.48-.9-.87-.9-.87z" fill="#94c7ea"/><path d="m31.09 71.79s-26.22 15.51-22.87 23.78c3.04 7.5 36.22-4.7 63.81-20.44 25.35-14.47 52.64-32.03 47.95-39.85-4.13-6.89-31.89 5.23-31.89 5.23s.3.28.63.63c.24.26.51.53.51.53s20.68-5.19 22.21-2.13-19.21 22.56-41.05 33.89-51.37 23.63-53.08 18.67c-2.46-7.13 14.12-18.7 14.12-18.7s-.16-.69-.2-.91c-.07-.3-.14-.7-.14-.7z" fill="#6ba5af"/><path d="m89.09 41.54s24.24-9.34 27.58-4.46-15.83 20.98-46.5 37.28-56.14 25.3-58.97 19.41 20.03-21.28 20.03-21.28.1.45.21.92c.11.48.41 1.57.41 1.57s-14.08 10.66-11.86 13.17 18.46.19 48.01-14.86c29.85-15.21 41.3-28.44 38.2-31.43-2.02-1.94-15.52 1.5-15.52 1.5s-.47-.56-.79-.93c-.31-.38-.8-.89-.8-.89z" fill="#a7ced6"/><path d="m90.32 42.93s16.37-6.61 18.98-1.45c3.03 6-22.32 22.61-41.52 33.07-18.7 10.18-46.78 20.1-49.68 14.98-2.39-4.23 13.5-15.41 13.5-15.41s.13.51.3 1.1c.09.31.28.91.28.91s-10.65 7.59-8.67 10.55 22.24-2.38 43.27-13.36c25.32-13.21 40.19-26.42 38.05-29.92-2.14-3.49-13.39.91-13.39.91s-.31-.4-.5-.64c-.25-.31-.62-.74-.62-.74z" fill="#ddecf6"/></svg>