<svg enable-background="new 0 0 128 128" viewBox="0 0 128 128" xmlns="http://www.w3.org/2000/svg"><path d="m87.4 124h-46.8c-4.7 0-8.6-3.8-8.6-8.6v-102.8c0-4.7 3.9-8.6 8.6-8.6h46.8c4.7 0 8.6 3.8 8.6 8.6v102.9c0 4.7-3.9 8.5-8.6 8.5z" fill="#424242"/><path d="m86.77 120.11h-46.84c-2.15 0-3.89-1.74-3.89-3.89v-96.57c0-2.14 1.74-3.88 3.88-3.88h48.15c2.15 0 3.89 1.74 3.89 3.89v95.93c0 .93-1.4 4.52-5.19 4.52z"/><path d="m73.65 11.59h-19.2c-.7 0-1.2-.6-1.2-1.2s.6-1.2 1.2-1.2h19.1c.7 0 1.2.6 1.2 1.2s-.5 1.2-1.1 1.2z" fill="#212121"/><path d="m87.4 6c3.64 0 6.6 2.96 6.6 6.6v102.9c0 3.58-2.96 6.5-6.6 6.5h-46.8c-3.64 0-6.6-2.96-6.6-6.6v-102.8c0-3.58 3.02-6.6 6.6-6.6zm0-2h-46.8c-4.7 0-8.6 3.9-8.6 8.6v102.8c0 4.8 3.9 8.6 8.6 8.6h46.8c4.7 0 8.6-3.8 8.6-8.5v-102.9c0-4.8-3.9-8.6-8.6-8.6z" fill="#757575"/><path d="m48.35 29.96h-6.36c-.73 0-1.32-.59-1.32-1.32v-6.36c0-.73.59-1.32 1.32-1.32h6.36c.73 0 1.32.59 1.32 1.32v6.36c0 .73-.59 1.32-1.32 1.32z" fill="#eab56e"/><path d="m60.9 29.96h-6.36c-.73 0-1.32-.59-1.32-1.32v-6.36c0-.73.59-1.32 1.32-1.32h6.36c.73 0 1.32.59 1.32 1.32v6.36c0 .73-.59 1.32-1.32 1.32z" fill="#fb8c00"/><path d="m73.45 29.96h-6.35c-.73 0-1.32-.59-1.32-1.32v-6.36c0-.73.59-1.32 1.32-1.32h6.36c.73 0 1.32.59 1.32 1.32v6.36c0 .73-.59 1.32-1.33 1.32z" fill="#ff80ab"/><path d="m86.01 29.96h-6.36c-.73 0-1.32-.59-1.32-1.32v-6.36c0-.73.59-1.32 1.32-1.32h6.36c.73 0 1.32.59 1.32 1.32v6.36c0 .73-.59 1.32-1.32 1.32z" fill="#0288d1"/><path d="m48.35 44.12h-6.36c-.73 0-1.32-.59-1.32-1.32v-6.36c0-.73.59-1.32 1.32-1.32h6.36c.73 0 1.32.59 1.32 1.32v6.36c0 .73-.59 1.32-1.32 1.32z" fill="#00bfa5"/><path d="m60.9 44.12h-6.36c-.73 0-1.32-.59-1.32-1.32v-6.36c0-.73.59-1.32 1.32-1.32h6.36c.73 0 1.32.59 1.32 1.32v6.36c0 .73-.59 1.32-1.32 1.32z" fill="#81d4fa"/><path d="m73.45 44.12h-6.35c-.73 0-1.32-.59-1.32-1.32v-6.36c0-.73.59-1.32 1.32-1.32h6.36c.73 0 1.32.59 1.32 1.32v6.36c0 .73-.59 1.32-1.33 1.32z" fill="#fb8c00"/><path d="m86.01 44.12h-6.36c-.73 0-1.32-.59-1.32-1.32v-6.36c0-.73.59-1.32 1.32-1.32h6.36c.73 0 1.32.59 1.32 1.32v6.36c0 .73-.59 1.32-1.32 1.32z" fill="#eab56e"/><path d="m48.35 58.28h-6.36c-.73 0-1.32-.59-1.32-1.32v-6.36c0-.73.59-1.32 1.32-1.32h6.36c.73 0 1.32.59 1.32 1.32v6.36c0 .73-.59 1.32-1.32 1.32z" fill="#fb8c00"/><path d="m60.9 58.28h-6.36c-.73 0-1.32-.59-1.32-1.32v-6.36c0-.73.59-1.32 1.32-1.32h6.36c.73 0 1.32.59 1.32 1.32v6.36c0 .73-.59 1.32-1.32 1.32z" fill="#ff80ab"/><path d="m73.45 58.28h-6.35c-.73 0-1.32-.59-1.32-1.32v-6.36c0-.73.59-1.32 1.32-1.32h6.36c.73 0 1.32.59 1.32 1.32v6.36c0 .73-.59 1.32-1.33 1.32z" fill="#00bfa5"/><path d="m86.01 58.28h-6.36c-.73 0-1.32-.59-1.32-1.32v-6.36c0-.73.59-1.32 1.32-1.32h6.36c.73 0 1.32.59 1.32 1.32v6.36c0 .73-.59 1.32-1.32 1.32z" fill="#0288d1"/><path d="m48.35 72.44h-6.36c-.73 0-1.32-.59-1.32-1.32v-6.36c0-.73.59-1.32 1.32-1.32h6.36c.73 0 1.32.59 1.32 1.32v6.36c0 .73-.59 1.32-1.32 1.32z" fill="#0288d1"/><path d="m60.9 72.44h-6.36c-.73 0-1.32-.59-1.32-1.32v-6.36c0-.73.59-1.32 1.32-1.32h6.36c.73 0 1.32.59 1.32 1.32v6.36c0 .73-.59 1.32-1.32 1.32z" fill="#81d4fa"/><path d="m48.35 114.92h-6.36c-.73 0-1.32-.59-1.32-1.32v-6.36c0-.73.59-1.32 1.32-1.32h6.36c.73 0 1.32.59 1.32 1.32v6.36c0 .72-.59 1.32-1.32 1.32z" fill="#81d4fa"/><path d="m60.9 114.92h-6.36c-.73 0-1.32-.59-1.32-1.32v-6.36c0-.73.59-1.32 1.32-1.32h6.36c.73 0 1.32.59 1.32 1.32v6.36c0 .72-.59 1.32-1.32 1.32z" fill="#0288d1"/><path d="m73.45 114.92h-6.35c-.73 0-1.32-.59-1.32-1.32v-6.36c0-.73.59-1.32 1.32-1.32h6.36c.73 0 1.32.59 1.32 1.32v6.36c0 .72-.59 1.32-1.33 1.32z" fill="#00bfa5"/><path d="m86.01 114.92h-6.36c-.73 0-1.32-.59-1.32-1.32v-6.36c0-.73.59-1.32 1.32-1.32h6.36c.73 0 1.32.59 1.32 1.32v6.36c0 .72-.59 1.32-1.32 1.32z" fill="#ff80ab"/></svg>