<svg enable-background="new 0 0 128 128" viewBox="0 0 128 128" xmlns="http://www.w3.org/2000/svg" xmlns:xlink="http://www.w3.org/1999/xlink"><radialGradient id="a" cx="63.5497" cy="56.074" gradientUnits="userSpaceOnUse" r="68.6716"><stop offset=".2994" stop-color="#fff7b3"/><stop offset=".3995" stop-color="#fff5a9"/><stop offset=".5678" stop-color="#fff08f"/><stop offset=".7823" stop-color="#ffe865"/><stop offset=".8426" stop-color="#ffe558"/><stop offset="1" stop-color="#fbc02d"/></radialGradient><linearGradient id="b"><stop offset="0" stop-color="#fbc02d"/><stop offset="1" stop-color="#fbc02d" stop-opacity="0"/></linearGradient><radialGradient id="c" cx="87.7647" cy="63.3666" gradientTransform="matrix(.9201 -.3918 .3131 .7354 -12.8273 51.15)" gradientUnits="userSpaceOnUse" r="16.3698" xlink:href="#b"/><radialGradient id="d" cx="-2353.0198" cy="63.6501" gradientTransform="matrix(-.9201 -.3918 -.3131 .7354 -2108.6545 -905.011)" gradientUnits="userSpaceOnUse" r="16.1348" xlink:href="#b"/><circle cx="64" cy="64" fill="url(#a)" r="60"/><path d="m42.51 59.81c-1.53 1.25-4.18 1.39-6.42.44-2.66-1.14-3.87-2.9-3.91-5.65-.04-3.41 2.8-7.05 8.42-7.41 9.26-.59 12.82 7.71 12.92 8.02.22.65-.1 1.58-1.95.12-5.63-4.45-7.65-3.71-7.65-3.71s3.24 4.37-1.41 8.19z" fill="#5d4037"/><path d="m84.74 59.81c-1.53 1.25-4.18 1.39-6.42.44-2.66-1.14-3.87-2.9-3.91-5.65-.04-3.41 2.8-7.05 8.42-7.41 9.26-.59 12.82 7.71 12.92 8.02.22.65-.1 1.58-1.95.12-5.63-4.45-7.65-3.71-7.65-3.71s3.24 4.37-1.41 8.19z" fill="#5d4037"/><path d="m58.4 72.22c-1.44-1.62-.11-2.46 1.47-1.98 2 .61 5.2.32 6.02-1.48 1.58-3.46-.39-5.41-2.84-11.39-2.56-6.25.65-13.06 4.35-13.41 2.97-.28 1.98 1.27 1.05 1.93-1.82 1.3-3.73 5.6-.8 10.42 4.99 8.19 5.4 12.12 2.42 15.98-1.85 2.4-7.61 4.49-11.67-.07z" fill="#e2b013"/><path d="m80.04 77.94-.12-.07c-.6-.36-1.39-.29-1.92.16-1.57 1.34-8.08 3.82-14.01 3.94-5.93-.12-12.44-2.6-14.01-3.94-.53-.45-1.31-.53-1.92-.16l-.12.07c-.76.46-.9 1.4-.37 2.08 2.06 2.58 7.52 6.46 16.41 6.59 8.89-.12 14.34-4.01 16.41-6.59.56-.68.41-1.62-.35-2.08z" fill="#5d4037"/><path d="m61.8 93.24c-.72.21-1.57.75-1.39 1.48.06.24.22.43.4.6.57.52 1.31.82 2.05 1.01 2.09.53 4.35.15 6.25-.85 1.94-1.02 4.57-3.19 3.8-4.83-.62-1.33-3.01.52-3.94.91-2.31.97-4.77.99-7.17 1.68z" fill="#ffcb38"/><path d="m78.44 73.44c1.55 3.75 7.63 4.79 13.58 2.32 5.95-2.46 9.52-7.5 7.97-11.24-1.55-3.75-7.63-4.79-13.58-2.32-5.95 2.46-9.52 7.5-7.97 11.24z" fill="url(#c)"/><path d="m45.3 73.44c-1.55 3.75-7.63 4.79-13.58 2.32-5.95-2.46-9.52-7.5-7.97-11.24 1.55-3.75 7.63-4.79 13.58-2.32 5.95 2.46 9.52 7.5 7.97 11.24z" fill="url(#d)"/></svg>