<svg enable-background="new 0 0 128 128" viewBox="0 0 128 128" xmlns="http://www.w3.org/2000/svg"><path d="m49.8 88.1 1.8-80c.1-2.2-1.8-4.1-4-4.1h-11.7c-2.3 0-4.1 1.9-4 4.1l1.8 80c.1 2.2 1.8 3.9 4 3.9h8c2.2 0 4-1.7 4.1-3.9z" fill="#f44336"/><path d="m44 50c.3-1.9-.5-26.2-.5-26.2s.1-3.5-2.8-3.8c-2.8-.3-3.8 2.3-3.8 4.1s.4 21.5.6 23.3c.1 1.8 1.9 3.7 3.6 4.2s2.7-.2 2.9-1.6z" fill="#fff" opacity=".2"/><circle cx="39.6" cy="13.4" fill="#fff" opacity=".2" r="3.3"/><circle cx="44.1" cy="112" fill="#c33" r="12"/><circle cx="42.4" cy="112" fill="#f44336" r="10.3"/><path d="m36.5 108.4c1.2-1.8 3.8-3.3 6.5-3.7.7-.1 1.3-.1 1.9.1.4.2.8.6.5 1-.2.4-.7.5-1.1.6-2.5.7-4.8 2.4-6.2 4.4-.5.8-1.4 2.9-2.4 2.4-1-.7-.7-2.6.8-4.8z" fill="#fff" opacity=".2"/><path d="m51.9 4h-4.3c2.3 0 4.1 1.9 4 4.1l-1.8 80c-.1 2.2-1.8 3.9-4 3.9h4.3c2.2 0 4-1.7 4-3.9l1.8-80c.1-2.2-1.8-4.1-4-4.1z" fill="#c33"/><path d="m89.8 88.1 1.8-80c.1-2.2-1.8-4.1-4-4.1h-11.7c-2.3 0-4.1 1.9-4 4.1l1.8 80c.1 2.2 1.8 3.9 4 3.9h8c2.2 0 4-1.7 4.1-3.9z" fill="#f44336"/><path d="m84 50c.3-1.9-.5-26.2-.5-26.2s.1-3.5-2.8-3.8c-2.8-.3-3.8 2.3-3.8 4.1s.4 21.5.6 23.3c.1 1.8 1.9 3.7 3.6 4.2s2.7-.2 2.9-1.6z" fill="#fff" opacity=".2"/><circle cx="79.6" cy="13.4" fill="#fff" opacity=".2" r="3.3"/><circle cx="84.1" cy="112" fill="#c33" r="12"/><circle cx="82.4" cy="112" fill="#f44336" r="10.3"/><path d="m76.5 108.4c1.2-1.8 3.8-3.3 6.5-3.7.7-.1 1.3-.1 1.9.1.4.2.8.6.5 1-.2.4-.7.5-1.1.6-2.5.7-4.8 2.4-6.2 4.4-.5.8-1.4 2.9-2.4 2.4-1-.7-.7-2.6.8-4.8z" fill="#fff" opacity=".2"/><path d="m91.9 4h-4.3c2.3 0 4.1 1.9 4 4.1l-1.8 80c-.1 2.2-1.8 3.9-4 3.9h4.3c2.2 0 4-1.7 4-3.9l1.8-80c.1-2.2-1.8-4.1-4-4.1z" fill="#c33"/></svg>