<svg enable-background="new 0 0 128 128" viewBox="0 0 128 128" xmlns="http://www.w3.org/2000/svg"><path d="m116 4h-104c-4.42 0-8 3.58-8 8v104c0 4.42 3.58 8 8 8h104c4.42 0 8-3.58 8-8v-104c0-4.42-3.58-8-8-8z" fill="#427687"/><path d="m109.7 4h-98.2c-4.13.03-7.47 3.37-7.5 7.5v97.9c-.01 4.14 3.34 7.49 7.48 7.5h.02 98.1c4.14.01 7.49-3.34 7.5-7.48 0-.01 0-.01 0-.02v-97.9c.09-4.05-3.13-7.41-7.18-7.5-.07 0-.15 0-.22 0z" fill="#8cafbf"/><path d="m106.6 41-24-24c-1.68-1.44-4.2-1.24-5.64.44-.61.71-.95 1.62-.96 2.56v14c0 1.1-.9 2-2 2h-20c-1.1 0-2-.9-2-2v-14c-.02-2.21-1.83-3.98-4.04-3.96-.94.01-1.85.35-2.56.96l-24 24c-1.66 1.46-1.82 3.99-.35 5.65.11.13.23.24.35.35l24 24c1.68 1.44 4.2 1.24 5.64-.44.61-.71.95-1.62.96-2.56v-14c0-1.1.9-2 2-2h20c1.1 0 2 .9 2 2v14c.02 2.21 1.83 3.98 4.04 3.96.94-.01 1.85-.35 2.56-.96l24-24c1.66-1.35 1.91-3.79.56-5.44-.17-.21-.36-.39-.56-.56z" fill="#fafafa"/><path d="m39.7 12.9c0-2.3-1.6-3-10.8-2.7-7.7.3-11.5 1.2-13.8 4s-2.9 8.5-3 15.3c0 4.8 0 9.3 2.5 9.3 3.4 0 3.4-7.9 6.2-12.3 5.4-8.7 18.9-10.6 18.9-13.6z" fill="#b4e1ed" opacity=".5"/><g fill="#fafafa"><path d="m56.52 97.71c0 4.61-1.14 8.15-3.43 10.63s-5.56 3.71-9.83 3.71-7.54-1.24-9.83-3.71-3.43-6.03-3.43-10.66 1.15-8.17 3.44-10.62c2.29-2.44 5.58-3.67 9.85-3.67s7.55 1.23 9.82 3.69c2.27 2.47 3.41 6.01 3.41 10.63zm-20.32 0c0 3.11.59 5.45 1.77 7.03s2.95 2.36 5.29 2.36c4.71 0 7.06-3.13 7.06-9.39 0-6.27-2.34-9.41-7.03-9.41-2.35 0-4.12.79-5.31 2.37-1.19 1.59-1.78 3.93-1.78 7.04z"/><path d="m85.62 111.67h-7.5l-12.11-21.06h-.17c.24 3.72.36 6.37.36 7.96v13.1h-5.27v-27.84h7.45l12.09 20.85h.13c-.19-3.62-.29-6.18-.29-7.67v-13.18h5.31z"/><path d="m90.19 108.95c0-.6.09-1.1.26-1.51s.41-.75.71-1 .66-.44 1.07-.55.84-.17 1.31-.17c.44 0 .87.06 1.27.17s.75.3 1.06.55.54.59.72 1 .27.92.27 1.51c0 .57-.09 1.06-.27 1.47s-.42.74-.72 1.01-.66.46-1.06.58-.82.18-1.27.18c-.47 0-.91-.06-1.31-.18-.41-.12-.76-.31-1.07-.58-.3-.27-.54-.6-.71-1.01s-.26-.9-.26-1.47zm5.69-6.51h-4.65l-.97-18.61h6.59z"/></g></svg>