<svg enable-background="new 0 0 128 128" viewBox="0 0 128 128" xmlns="http://www.w3.org/2000/svg" xmlns:xlink="http://www.w3.org/1999/xlink"><radialGradient id="a" cx="124.4848" cy="47.0852" gradientUnits="userSpaceOnUse" r="43.4902"><stop offset=".4104" stop-color="#e3dda6"/><stop offset=".8704" stop-color="#e3dda6" stop-opacity="0"/></radialGradient><radialGradient id="b" cx="106.7662" cy="84.5232" gradientTransform="matrix(-.7456 -.6664 1.145 -1.281 89.5911 263.9478)" gradientUnits="userSpaceOnUse" r="41.9848"><stop offset=".3735" stop-color="#e3dda6"/><stop offset=".8263" stop-color="#e3dda6" stop-opacity="0"/></radialGradient><path d="m116.63 124.22h-105.31c-4.15 0-7.52-3.37-7.52-7.52v-105.31c0-4.15 3.37-7.52 7.52-7.52h105.3c4.15 0 7.52 3.37 7.52 7.52v105.3c.01 4.16-3.36 7.53-7.51 7.53z" fill="#1f87fd"/><g fill="#7add8a"><path d="m91.31 6.04c-1.49.05-2.13 2.67-1.87 3.98s.92 5.11.82 6.42c-.1 1.36-2.1 3.32-2.27 4.46s.15 2.43-.03 2.91-1.31 1.78-1.84 1.6-1.78-1.49-2.97-1.66c-1.19-.18-1.55.83-1.43 1.37.12.53.71 1.43.3 2.14s-1.9 1.37-2.79 2.56-.83 2.32-.71 2.79c.12.48.65 1.55 1.07 2.08s1.13.89 1.01 1.96-1.13 2.73-.36 3.63 2.2-.18 2.56-.53.83-1.07 1.72-1.31 2.5-.71 2.5-1.78-1.9-1.6-2.91-1.78-2.08-1.55-1.96-2.26.83-1.19 1.66-1.19 1.07 1.55 2.61 1.6 2.61-2.67 4.1-2.61 2.26 2.08 4.04 3.03 2.97 1.25 3.39 1.37.77.83 1.9.83 2.2-3.86 2.56-4.46c.36-.59 1.9-2.67 2.61-2.79s3.21.18 5.35-.65 4.58-1.78 4.7-2.61-3.15-2.08-3.09-4.22 1.31-3.03.71-3.68c-.59-.65-1.43-.3-2.5.48-1.07.77-2.02 1.78-2.5 1.6s-2.02-1.9-2.79-2.08-2.02.06-2.5-.3-2.26-1.66-5.17-5.41c-2.54-3.29-4.18-5.55-5.92-5.49z"/><path d="m10.85 108.88c-.76.15-2.51.75-2.59 1.45-.1.91.47 1.18 1.82 1.18s1.92-1.11 1.92-1.55-.81-1.14-1.15-1.08z"/><path d="m20.07 109.79c-.36-.55-1.72-.32-2.22.47-.4.64-.24 2.99.84 2.76.86-.19.84-1.24 1.04-1.48s.91-.87.34-1.75z"/><path d="m23.57 98.78c-.57-.2-1.42 0-2.52.81s-2.12 2.48-2.52 2.69c-.41.2-2.44 1.02-2.85 1.34s-.61 2.85.41 3.58 1.67.77 2.6.85 2.28-.2 2.48.24.08 2.81-.2 3.3-1.34 1.42-1.46 2.85c-.12 1.42-.28 3.34-.16 3.74s3.62 1.71 4.03 1.79 3.42-2.93 3.7-3.82c.28-.9.65-4.15.77-4.52s2.03-3.87 2.12-4.68-.28-2.52-.61-2.93-.45-1.75-1.1-2.4-2.52-.49-2.52-.49z"/><path d="m70.93 65.33c-.75-.3-1.28 1.04-1.64 1.4s-.88 1.44-.44 2.08 1.32 1 1.56.76 1.18-1.19 1.08-2.16c-.12-1.16-.36-2-.56-2.08z"/><path d="m39.53 98.22c.58-.66 1.56-2.73 3.08-2.85 1.13-.09 3.12 1.09 3.51 1.52s1.33 1.83 1.17 2.42c-.16.58-1.13 2.03-2.07 3.08s-1.64 1.91-2.3 1.75-1.25-.9-2.26-.9-2.96 3.04-3.35 3.7-.86 1.68-1.52 1.68-2.38-2.07-2.88-3.2c-.51-1.13-1.01-1.79-.86-2.61.08-.4 1.95-2.49 2.07-2.77.12-.27.51-1.99 1.75-2.3s1.25.58 2.26.7 1.27-.07 1.4-.22z"/><path d="m22.99 96.42c-.22.4.22 2.59.7 2.69.48.11 4.58-.48 6.73-.81 2.15-.32 8.89-3.39 9.8-3.39s1.45.32 1.89.05c.43-.27 1.83-1.56 2.32-1.83.48-.27 2.15-.7 2.15-.7s1.62 1.02 2.69 1.13c1.08.11 2.32-1.24 2.59-.92s-.48 1.78-.97 2.69c-.48.92-1.51 2.42-1.35 3.02.16.59.92 2.32 1.56 2.91s1.78 1.78 2.42 1.67 3.93-5.71 4.2-5.76 3.39-.59 3.34-1.35c-.05-.75-1.35-.65-1.51-.97s-1.83-1.4-1.67-1.89c.16-.48.81-1.62 1.78-1.67s2.91 2.1 3.82 2.15c.92.05 3.77.48 4.52.22.75-.27 1.94-1.78 2.48-1.89s1.45.22 1.45.22 0 1.78 1.02 1.67 1.13-.81 1.29-1.83.81-1.83.81-1.83 1.35-1.45 2.26-2.15c.92-.7 1.35-2.42 1.83-2.42s1.02.92.86 2.15-.97 1.94-.97 2.91.16 1.94.81 1.94.97-1.4 1.29-2.05 2.85-3.72 2.96-4.25c.11-.54-.43-4.79-.22-5.39.22-.59 1.78-2.69 2.21-5.6s-.43-7.11.38-8.24 2.32-.38 2.91-1.24.7-3.18 1.29-4.58 2.26-3.99 2.26-6.25-4.42-7.86-4.25-9.16c.16-1.29.7-2.69.38-3.45-.32-.75-2.32-2.37-3.34-2.32s-1.02 1.99-.59 2.26.97-.43 1.51-.32 1.56 1.24.11 2.37-2.32.27-2.48 0-.16-2.53-.86-2.48-1.45.65-1.51 1.13c-.05.48.32 1.18-.05 1.83s-1.72 1.35-2.15 2.1.16 10.18.11 11.15-1.35 2.64-1.83 4.2-1.56 4.52-2.37 5.12c-.81.59-1.4.54-1.99 1.24s-2.37 3.55-3.18 4.15-4.36 3.39-5.66 3.18-2.64-1.02-2.53-1.99 1.62-1.78 1.18-2.32c-.43-.54-3.18.54-3.88 1.51s.11 2.91-.05 3.55c-.16.65-1.02 2.91-1.29 3.45s-2.1 1.94-2.48 2.91-.22 2.21-.43 2.59c-.22.38-2.32 1.62-3.12 1.56-.81-.05-2.42-1.89-3.45-1.89s-2.59 1.13-3.82 1.4c-1.24.27-5.49 0-7.11-.16s-3.82 1.89-4.9 2.75-4.31 3.44-4.9 4.09c-1.5 1.68-4.68 2.54-5 3.14z"/></g><path d="m91.31 6.04c-1.49.05-2.13 2.67-1.87 3.98s.92 5.11.82 6.42c-.1 1.36-2.1 3.32-2.27 4.46s.15 2.43-.03 2.91-1.31 1.78-1.84 1.6-1.78-1.49-2.97-1.66c-1.19-.18-1.55.83-1.43 1.37.12.53.71 1.43.3 2.14s-1.9 1.37-2.79 2.56-.83 2.32-.71 2.79c.12.48.65 1.55 1.07 2.08s1.13.89 1.01 1.96-1.13 2.73-.36 3.63 2.2-.18 2.56-.53.83-1.07 1.72-1.31 2.5-.71 2.5-1.78-1.9-1.6-2.91-1.78-2.08-1.55-1.96-2.26.83-1.19 1.66-1.19 1.07 1.55 2.61 1.6 2.61-2.67 4.1-2.61 2.26 2.08 4.04 3.03 2.97 1.25 3.39 1.37.77.83 1.9.83 2.2-3.86 2.56-4.46c.36-.59 1.9-2.67 2.61-2.79s3.21.18 5.35-.65 4.58-1.78 4.7-2.61-3.15-2.08-3.09-4.22 1.31-3.03.71-3.68c-.59-.65-1.43-.3-2.5.48-1.07.77-2.02 1.78-2.5 1.6s-2.02-1.9-2.79-2.08-2.02.06-2.5-.3-2.26-1.66-5.17-5.41c-2.54-3.29-4.18-5.55-5.92-5.49z" fill="url(#a)"/><path d="m22.99 96.42c-.22.4.22 2.59.7 2.69.48.11 4.58-.48 6.73-.81 2.15-.32 8.89-3.39 9.8-3.39s1.45.32 1.89.05c.43-.27 1.83-1.56 2.32-1.83.48-.27 2.15-.7 2.15-.7s1.62 1.02 2.69 1.13c1.08.11 2.32-1.24 2.59-.92s-.48 1.78-.97 2.69c-.48.92-1.51 2.42-1.35 3.02.16.59.92 2.32 1.56 2.91s1.78 1.78 2.42 1.67 3.93-5.71 4.2-5.76 3.39-.59 3.34-1.35c-.05-.75-1.35-.65-1.51-.97s-1.83-1.4-1.67-1.89c.16-.48.81-1.62 1.78-1.67s2.91 2.1 3.82 2.15c.92.05 3.77.48 4.52.22.75-.27 1.94-1.78 2.48-1.89s1.45.22 1.45.22 0 1.78 1.02 1.67 1.13-.81 1.29-1.83.81-1.83.81-1.83 1.35-1.45 2.26-2.15c.92-.7 1.35-2.42 1.83-2.42s1.02.92.86 2.15-.97 1.94-.97 2.91.16 1.94.81 1.94.97-1.4 1.29-2.05 2.85-3.72 2.96-4.25c.11-.54-.43-4.79-.22-5.39.22-.59 1.78-2.69 2.21-5.6s-.43-7.11.38-8.24 2.32-.38 2.91-1.24.7-3.18 1.29-4.58 2.26-3.99 2.26-6.25-4.42-7.86-4.25-9.16c.16-1.29.7-2.69.38-3.45-.32-.75-2.32-2.37-3.34-2.32s-1.02 1.99-.59 2.26.97-.43 1.51-.32 1.56 1.24.11 2.37-2.32.27-2.48 0-.16-2.53-.86-2.48-1.45.65-1.51 1.13c-.05.48.32 1.18-.05 1.83s-1.72 1.35-2.15 2.1.16 10.18.11 11.15-1.35 2.64-1.83 4.2-1.56 4.52-2.37 5.12c-.81.59-1.4.54-1.99 1.24s-2.37 3.55-3.18 4.15-4.36 3.39-5.66 3.18-2.64-1.02-2.53-1.99 1.62-1.78 1.18-2.32c-.43-.54-3.18.54-3.88 1.51s.11 2.91-.05 3.55c-.16.65-1.02 2.91-1.29 3.45s-2.1 1.94-2.48 2.91-.22 2.21-.43 2.59c-.22.38-2.32 1.62-3.12 1.56-.81-.05-2.42-1.89-3.45-1.89s-2.59 1.13-3.82 1.4c-1.24.27-5.49 0-7.11-.16s-3.82 1.89-4.9 2.75-4.31 3.44-4.9 4.09c-1.5 1.68-4.68 2.54-5 3.14z" fill="url(#b)"/></svg>