<svg enable-background="new 0 0 128 128" viewBox="0 0 128 128" xmlns="http://www.w3.org/2000/svg"><path d="m56.96 30.28-53.24 18.15s.37 3.53 1.93 6.57c1.95 3.79 5.78 8.42 13.16 10.08 10.91 2.45 23.92-1.52 36.49-9.94s19.4-22.4 16.89-33.34c-2.33-10.14-8.65-12.76-13.31-13.23-1.83-.18-4.87-.03-6.22.45-2.1.73 4.3 21.26 4.3 21.26z" fill="#871e0c"/><path d="m33 23.16c-7.38 5.29-20.69 3.76-27.4 15.52-5.98 10.5 1.8 21.7 11.81 21.7 9.9 0 23-4.58 32.77-11.05 10.2-6.76 23.93-28.06 12.94-36.98-12.39-10.06-20.53 3.94-30.12 10.81z" fill="#a62714"/><path d="m41.47 20.55c-1.14-.2-2.13 2.5-7.25 5.85-6.92 4.53-11.13 3.71-10.63 6.02.4 1.85 4.36 3.02 9.64 1.32 8.98-2.89 11.04-12.69 8.24-13.19z" fill="#fbcb89"/><path d="m46.59 19.96c-2.26-1.23-1.02-4.23 1.73-6.68 2.97-2.64 6.43-2.39 7.25-1.07 1.04 1.66-1.54 3.74-3.05 5.11-1.81 1.66-3.21 4.13-5.93 2.64z" fill="#d16250"/><path d="m17.06 35.91c-1.82-2.28-5.39-.11-7.5 2.72-2.39 3.21-3.62 11.04-.33 11.37 2.47.25 2.47-4.37 4.12-6.51s5.68-5.11 3.71-7.58z" fill="#d16250"/><path d="m86.53 35.06s1.99-6.14 4.77-5.85c2.89.3 5.67.64 9.4 5.72 4.2 5.71 5.74 13.74 8.84 17.63 8.36 10.47 13.4 11.42 14.68 22.14 1.22 10.2-6.02 23.42-20.94 20.63-18.05-3.37-25.87-25.27-25.87-25.27z" fill="#871e0c"/><path d="m77 34.63c-4.58 5.51-4.63 14.32-3.97 19.43s4.56 21.48 11.4 28.65 16.83 11.38 24 8.91 10.91-7.88 9.61-16.45c-.7-4.62-3.63-8.63-7.83-11.68s-11.46-11.04-11.46-11.04-2.06-10.71-2.47-14.5-.38-7.37-3.49-8.44c-2.28-.8-10.93-.73-15.79 5.12z" fill="#a62714"/><path d="m85.81 35.06c-1.55-1.42-3.44-.37-4.18.92-.66 1.15-1.04 2.57.16 3.51 1.48 1.15 2.68.27 3.85-.96.88-.94 1.16-2.57.17-3.47z" fill="#d16250"/><path d="m78.89 42.76c-1.52.25-3.15 2.47-2.19 10.95 1.15 10.13 5.92 18.18 9.31 22.84 3.51 4.82 6.92 4.01 6.96 3.51.11-1.42-2.14-3.56-4.87-8.82-4.1-7.87-6.55-16.06-6.9-20.37-.5-6.13-.34-8.43-2.31-8.11z" fill="#d16250"/><path d="m95.95 43.47c-.81.66-1.93 5.59 3.15 13.94 5.93 9.75 11.06 8.05 11.5 7.01s-3.54-4.34-5.31-6.78c-3.17-4.37-4.16-6.53-6.22-10.62-.89-1.77-2.25-4.26-3.12-3.55z" fill="#fbcb89"/><path d="m50.42 95.6c-.25-.08-35.94-10.62-35.94-10.62s-.36 1.07-.56 2.82c-.41 3.56 0 9.63 3.04 14.88 2.58 4.45 6.81 7.94 12.61 10.56 3.57 1.62 8.14 2.97 14.39 4.27 18.21 3.78 40.29-1.34 42.55-18.47.92-6.95-3.1-12.4-6.57-15.08-5.08-3.93-10.55-3.21-10.55-3.21z" fill="#871e0c"/><path d="m56.04 80.83c-11.83 0-17.12-7.64-27.36-6.97-7.07.46-11.25 4.45-12.93 7.81s-3.41 9.22.67 13.85c4.45 5.04 11.41 12.34 32.9 16.03 21.81 3.75 32.57-9.4 33.49-16.95s-3.27-12.67-9.48-13.6-15.01-.17-17.29-.17z" fill="#a62714"/><path d="m42.44 81.42c-1.12 1.15 2.07 7.48 10.02 7.95s11.02-4.62 10.02-5.28c-.59-.39-6.86-.16-9.88-.47-5.22-.52-9.51-2.86-10.16-2.2z" fill="#fbcb89"/><path d="m34.85 80.66c-1.06 3.69-7.46.69-11.34 3.1-4.16 2.57-5.48 7.32-6.46 7.32-1.45 0-1.55-8.38 5.87-12.53 5.54-3.1 12.68-.49 11.93 2.11z" fill="#d16250"/></svg>