<svg enable-background="new 0 0 128 128" viewBox="0 0 128 128" xmlns="http://www.w3.org/2000/svg"><path d="m116 4h-104c-4.42 0-8 3.58-8 8v104c0 4.42 3.58 8 8 8h104c4.42 0 8-3.58 8-8v-104c0-4.42-3.58-8-8-8z" fill="#bdbdbd"/><path d="m109.7 4h-98.2c-4.13.03-7.47 3.37-7.5 7.5v97.9c-.01 4.14 3.34 7.49 7.48 7.5h.02 98.1c4.14.01 7.49-3.34 7.5-7.48 0-.01 0-.01 0-.02v-97.9c.09-4.05-3.13-7.41-7.18-7.5-.07 0-.15 0-.22 0z" fill="#e0e0e0"/><path d="m39.7 12.9c0-2.3-1.6-3-10.8-2.7-7.7.3-11.5 1.2-13.8 4-1.9 2.3-2.3 5.6-2.6 8.4-.2 2.2-2.2 14.9 3.5 11.2.68-.45 1.23-1.07 1.6-1.8 1.2-2.1 1.9-3.5 3.3-5.6 5.3-8.6 18.8-10.5 18.8-13.5z" fill="#fff"/><circle cx="63.88" cy="37.88" r="15.22"/><path d="m43.71 68.28c9.5-1.06 17.66 5.93 18.5 15.01.08.88.83 1.56 1.7 1.56s1.62-.68 1.7-1.56c.84-9.08 9-16.07 18.5-15.01.56.06 1.11.16 1.65.28-.46-8.13-6.98-11.85-18.86-11.85h-7.61c-9.8 0-16.25 4.01-17.21 11.84.54-.11 1.08-.21 1.63-.27z"/><circle cx="82.22" cy="84.85" r="12.27"/><path d="m70.03 110.81c-1 0-1.75-.95-1.49-1.91 1.36-4.97 6.95-9.01 13.65-9.01 6.73 0 12.33 3.93 13.67 9.02.25.96-.49 1.91-1.49 1.91z"/><circle cx="45.61" cy="84.85" r="12.27"/><path d="m33.42 110.81c-1 0-1.75-.95-1.49-1.91 1.36-4.97 6.95-9.01 13.65-9.01 6.73 0 12.33 3.93 13.67 9.02.25.96-.49 1.91-1.49 1.91z"/><path d="m69.7 94.88c-.84-.95-2.9-1.42-4.45-.17-.58.47-1.35 1.47-1.35 1.47s-.77-1-1.35-1.47c-1.55-1.25-3.61-.78-4.45.17-1.33 1.51-1.12 3.49.55 5.54 2.29 2.81 5.25 5.49 5.25 5.5 0 0 2.96-2.68 5.25-5.5 1.67-2.05 1.88-4.03.55-5.54z"/></svg>