<svg enable-background="new 0 0 128 128" viewBox="0 0 128 128" xmlns="http://www.w3.org/2000/svg"><path d="m29.7 41.3c-1.9 0-3.7 1.5-3.7 3.7v7.6c0 1.4-1.1 2.5-2.5 2.5h-15c-2.5-.1-4.5 1.9-4.5 4.4v9.9c0 2.5 2.1 4.6 4.6 4.6h14.9c1.4 0 2.5 1.1 2.5 2.5v6.5c0 2.2 1.8 3.7 3.7 3.7.9 0 1.8-.3 2.6-1.1l18.3-18.3c1.8-1.8 1.9-4.8 0-6.7l-18.3-18.2c-.8-.8-1.7-1.1-2.6-1.1z" fill="#b0bec5"/><path d="m113.74 124h-46.8c-4.7 0-8.6-3.8-8.6-8.6v-102.8c0-4.7 3.9-8.6 8.6-8.6h46.8c4.7 0 8.6 3.8 8.6 8.6v102.9c0 4.7-3.9 8.5-8.6 8.5z" fill="#424242"/><path d="m113.11 120.11h-46.85c-2.15 0-3.89-1.74-3.89-3.89v-96.57c0-2.14 1.74-3.88 3.88-3.88h48.15c2.15 0 3.89 1.74 3.89 3.89v95.93c.01.93-1.39 4.52-5.18 4.52z"/><path d="m99.99 11.59h-19.2c-.7 0-1.2-.6-1.2-1.2s.6-1.2 1.2-1.2h19.1c.7 0 1.2.6 1.2 1.2s-.5 1.2-1.1 1.2z" fill="#212121"/><path d="m113.74 6c3.64 0 6.6 2.96 6.6 6.6v102.9c0 3.58-2.96 6.5-6.6 6.5h-46.8c-3.64 0-6.6-2.96-6.6-6.6v-102.8c0-3.58 3.02-6.6 6.6-6.6zm0-2h-46.8c-4.7 0-8.6 3.9-8.6 8.6v102.8c0 4.8 3.9 8.6 8.6 8.6h46.8c4.7 0 8.6-3.8 8.6-8.5v-102.9c0-4.8-3.9-8.6-8.6-8.6z" fill="#757575"/><path d="m74.68 29.96h-6.36c-.73 0-1.32-.59-1.32-1.32v-6.36c0-.73.59-1.32 1.32-1.32h6.36c.73 0 1.32.59 1.32 1.32v6.36c0 .73-.59 1.32-1.32 1.32z" fill="#eab56e"/><path d="m87.24 29.96h-6.36c-.73 0-1.32-.59-1.32-1.32v-6.36c0-.73.59-1.32 1.32-1.32h6.36c.73 0 1.32.59 1.32 1.32v6.36c0 .73-.59 1.32-1.32 1.32z" fill="#fb8c00"/><path d="m99.79 29.96h-6.36c-.73 0-1.32-.59-1.32-1.32v-6.36c0-.73.59-1.32 1.32-1.32h6.36c.73 0 1.32.59 1.32 1.32v6.36c0 .73-.59 1.32-1.32 1.32z" fill="#ff80ab"/><path d="m112.34 29.96h-6.36c-.73 0-1.32-.59-1.32-1.32v-6.36c0-.73.59-1.32 1.32-1.32h6.36c.73 0 1.32.59 1.32 1.32v6.36c.01.73-.59 1.32-1.32 1.32z" fill="#0288d1"/><path d="m74.68 44.12h-6.36c-.73 0-1.32-.59-1.32-1.32v-6.36c0-.73.59-1.32 1.32-1.32h6.36c.73 0 1.32.59 1.32 1.32v6.36c0 .73-.59 1.32-1.32 1.32z" fill="#00bfa5"/><path d="m87.24 44.12h-6.36c-.73 0-1.32-.59-1.32-1.32v-6.36c0-.73.59-1.32 1.32-1.32h6.36c.73 0 1.32.59 1.32 1.32v6.36c0 .73-.59 1.32-1.32 1.32z" fill="#81d4fa"/><path d="m99.79 44.12h-6.36c-.73 0-1.32-.59-1.32-1.32v-6.36c0-.73.59-1.32 1.32-1.32h6.36c.73 0 1.32.59 1.32 1.32v6.36c0 .73-.59 1.32-1.32 1.32z" fill="#fb8c00"/><path d="m112.34 44.12h-6.36c-.73 0-1.32-.59-1.32-1.32v-6.36c0-.73.59-1.32 1.32-1.32h6.36c.73 0 1.32.59 1.32 1.32v6.36c.01.73-.59 1.32-1.32 1.32z" fill="#eab56e"/><path d="m74.68 58.28h-6.36c-.73 0-1.32-.59-1.32-1.32v-6.36c0-.73.59-1.32 1.32-1.32h6.36c.73 0 1.32.59 1.32 1.32v6.36c0 .73-.59 1.32-1.32 1.32z" fill="#fb8c00"/><path d="m87.24 58.28h-6.36c-.73 0-1.32-.59-1.32-1.32v-6.36c0-.73.59-1.32 1.32-1.32h6.36c.73 0 1.32.59 1.32 1.32v6.36c0 .73-.59 1.32-1.32 1.32z" fill="#ff80ab"/><path d="m99.79 58.28h-6.36c-.73 0-1.32-.59-1.32-1.32v-6.36c0-.73.59-1.32 1.32-1.32h6.36c.73 0 1.32.59 1.32 1.32v6.36c0 .73-.59 1.32-1.32 1.32z" fill="#00bfa5"/><path d="m112.34 58.28h-6.36c-.73 0-1.32-.59-1.32-1.32v-6.36c0-.73.59-1.32 1.32-1.32h6.36c.73 0 1.32.59 1.32 1.32v6.36c.01.73-.59 1.32-1.32 1.32z" fill="#0288d1"/><path d="m74.68 72.44h-6.36c-.73 0-1.32-.59-1.32-1.32v-6.36c0-.73.59-1.32 1.32-1.32h6.36c.73 0 1.32.59 1.32 1.32v6.36c0 .73-.59 1.32-1.32 1.32z" fill="#0288d1"/><path d="m87.24 72.44h-6.36c-.73 0-1.32-.59-1.32-1.32v-6.36c0-.73.59-1.32 1.32-1.32h6.36c.73 0 1.32.59 1.32 1.32v6.36c0 .73-.59 1.32-1.32 1.32z" fill="#81d4fa"/><path d="m74.68 114.92h-6.36c-.73 0-1.32-.59-1.32-1.32v-6.36c0-.73.59-1.32 1.32-1.32h6.36c.73 0 1.32.59 1.32 1.32v6.36c0 .72-.59 1.32-1.32 1.32z" fill="#81d4fa"/><path d="m87.24 114.92h-6.36c-.73 0-1.32-.59-1.32-1.32v-6.36c0-.73.59-1.32 1.32-1.32h6.36c.73 0 1.32.59 1.32 1.32v6.36c0 .72-.59 1.32-1.32 1.32z" fill="#0288d1"/><path d="m99.79 114.92h-6.36c-.73 0-1.32-.59-1.32-1.32v-6.36c0-.73.59-1.32 1.32-1.32h6.36c.73 0 1.32.59 1.32 1.32v6.36c0 .72-.59 1.32-1.32 1.32z" fill="#00bfa5"/><path d="m112.34 114.92h-6.36c-.73 0-1.32-.59-1.32-1.32v-6.36c0-.73.59-1.32 1.32-1.32h6.36c.73 0 1.32.59 1.32 1.32v6.36c.01.72-.59 1.32-1.32 1.32z" fill="#ff80ab"/></svg>