<svg enable-background="new 0 0 128 128" viewBox="0 0 128 128" xmlns="http://www.w3.org/2000/svg"><path d="m17.08 107.39v-100.81h94.87v99.47h-77.98c-.88 0-1.63.62-1.79 1.48-.68 3.69-2.91 12.97-8.31 12.97-2.91 0-6.79-3.66-6.79-13.11z" fill="#fff"/><g fill="none" stroke="#b0bec5" stroke-linecap="round" stroke-miterlimit="10" stroke-width="3.8648"><path d="m33.34 28.42h61.16"/><path d="m33.34 43.05h61.16"/><path d="m33.34 57.68h61.16"/><path d="m33.34 72.3h61.16"/><path d="m33.34 86.93h26.15"/></g><path d="m120.96 104.98h-7.18v-98.15c0-1.56-1.27-2.83-2.83-2.83h-93.89c-1.56 0-2.83 1.27-2.83 2.83v99.46c-.01 4.83-.87 17.71 14.29 17.71h80.85c11.49 0 13.15-12.4 13.36-17.18.05-1.01-.76-1.84-1.77-1.84zm-102.72 1.31v-98.28h91.51v96.96h-76c-.86 0-1.59.61-1.75 1.45-.66 3.59-2.84 12.64-8.1 12.64-4.13 0-5.66-3.56-5.66-12.77z" fill="#6fbff0"/></svg>