<svg enable-background="new 0 0 128 128" viewBox="0 0 128 128" xmlns="http://www.w3.org/2000/svg"><circle cx="64" cy="64" fill="#98c0d0" r="60"/><circle cx="64" cy="64" fill="#fcebcd" r="48.14"/><path d="m50.3 15.06c-6.42 1.86-15.41 4.71-25.03 16.2-9.5 11.37-11.46 24.58-12.07 33.69 0 0-5.49 6.87-5.75 5.59-2.07-9.95 2.11-32.19 13.04-43.95 12.72-13.68 29.26-18.53 35.24-19.44 1.03-.16-3.48 7.35-5.43 7.91z" fill="#c2e3f0"/><circle cx="64" cy="64" fill="#fff" r="45.59"/><path d="m64 64.07v29" fill="none" stroke="#563428" stroke-linecap="round" stroke-miterlimit="10" stroke-width="4"/><circle cx="64" cy="64" fill="#563428" r="5.06"/><g fill="none" stroke-miterlimit="10"><path d="m64.05 64.07-20.47 5.64" stroke="#563428" stroke-linecap="round" stroke-width="6"/><g stroke="#6596a3" stroke-width="5"><path d="m64 100v5"/><path d="m64 23v5"/><path d="m64 100v5"/><path d="m64 23v5"/><path d="m28 64h-5"/><path d="m105 64h-5"/><path d="m28 64h-5"/><path d="m105 64h-5"/></g><g stroke="#b0bec5" stroke-width="3"><path d="m46 95.18-2.5 4.33"/><path d="m84.5 28.49-2.5 4.33"/><path d="m46 95.18-2.5 4.33"/><path d="m84.5 28.49-2.5 4.33"/><path d="m82 95.18 2.5 4.33"/><path d="m43.5 28.49 2.5 4.33"/><path d="m82 95.18 2.5 4.33"/><path d="m43.5 28.49 2.5 4.33"/><path d="m95.18 82 4.33 2.5"/><path d="m28.49 43.5 4.33 2.5"/><path d="m95.18 82 4.33 2.5"/><path d="m28.49 43.5 4.33 2.5"/><path d="m32.82 82-4.33 2.5"/><path d="m99.51 43.5-4.33 2.5"/><path d="m32.82 82-4.33 2.5"/><path d="m99.51 43.5-4.33 2.5"/></g></g></svg>