<svg enable-background="new 0 0 128 128" viewBox="0 0 128 128" xmlns="http://www.w3.org/2000/svg" xmlns:xlink="http://www.w3.org/1999/xlink"><radialGradient id="a" cx="69.83" cy="25.15" gradientTransform="matrix(.8673 .4978 -.3764 .6558 18.73 -26.11)" gradientUnits="userSpaceOnUse" r="15.91"><stop offset=".3641" stop-color="#00838f"/><stop offset=".9697" stop-color="#00838f" stop-opacity="0"/></radialGradient><radialGradient id="b" cx="63.43" cy="31.14" gradientUnits="userSpaceOnUse" r="24.6"><stop offset=".5252" stop-color="#00838f" stop-opacity="0"/><stop offset="1" stop-color="#00838f"/></radialGradient><radialGradient id="c" cx="47.64" cy="28.1" gradientTransform="matrix(.8359 -.5488 .777 1.1835 -14.02 20.99)" gradientUnits="userSpaceOnUse" r="19.5"><stop offset=".7228" stop-color="#00838f" stop-opacity="0"/><stop offset="1" stop-color="#00838f"/></radialGradient><radialGradient id="d" cx="54.91" cy="43.55" gradientUnits="userSpaceOnUse" r="20.74"><stop offset=".4299" stop-color="#00838f" stop-opacity="0"/><stop offset="1" stop-color="#00838f"/></radialGradient><radialGradient id="e" cx="30.8" cy="114.55" gradientUnits="userSpaceOnUse" r="57.26"><stop offset=".1112" stop-color="#29b6f6"/><stop offset="1" stop-color="#0277bd"/></radialGradient><linearGradient id="f" gradientTransform="matrix(1 0 0 -1 0 129.78)" gradientUnits="userSpaceOnUse" x1="47.89" x2="22.55" y1="47.87" y2="20.16"><stop offset="0" stop-color="#005584" stop-opacity="0"/><stop offset=".8412" stop-color="#005584"/></linearGradient><linearGradient id="g" gradientUnits="userSpaceOnUse" x1="89.89" x2="124.63" y1="98.5" y2="73.39"><stop offset="0" stop-color="#b28fff"/><stop offset=".4115" stop-color="#a880ff"/><stop offset=".7921" stop-color="#8e5aff"/><stop offset="1" stop-color="#6a26ff"/></linearGradient><linearGradient id="h"><stop offset="0" stop-color="#651fff"/><stop offset=".7047" stop-color="#5914f2"/><stop offset="1" stop-color="#530eeb"/></linearGradient><linearGradient id="i" gradientTransform="matrix(1 0 0 -1 0 129.78)" gradientUnits="userSpaceOnUse" x1="78.62" x2="63.82" xlink:href="#h" y1="58.97" y2="21.59"/><linearGradient id="j" gradientUnits="userSpaceOnUse" x1="37.19" x2="57.82" xlink:href="#h" y1="71.13" y2="71.13"/><linearGradient id="k" gradientUnits="userSpaceOnUse" x1="7.13" x2="31.28" xlink:href="#h" y1="69.53" y2="69.53"/><linearGradient id="l" gradientTransform="matrix(1 0 0 -1 0 129.78)" gradientUnits="userSpaceOnUse" x1="106.09" x2="102.1" xlink:href="#h" y1="18.74" y2="7"/><radialGradient id="m" cx="110.2" cy="17.19" gradientTransform="matrix(.9726 -.2326 -.2175 -.9094 6.17 155.58)" gradientUnits="userSpaceOnUse" r="8.7"><stop offset=".2716" stop-color="#febc12"/><stop offset=".4999" stop-color="#fea709"/><stop offset=".809" stop-color="#ff9000"/></radialGradient><radialGradient id="n" cx="106.66" cy="28.76" gradientTransform="matrix(.9596 .2812 .2812 -.9596 -.39 99.37)" gradientUnits="userSpaceOnUse" r="3.77"><stop offset="0" stop-color="#febc12"/><stop offset="1" stop-color="#ff8f00"/></radialGradient><radialGradient id="o" cx="106.61" cy="8.4" gradientTransform="matrix(.9596 .2812 .2812 -.9596 -.39 99.37)" gradientUnits="userSpaceOnUse" r="4.39"><stop offset="0" stop-color="#fef59f"/><stop offset=".9044" stop-color="#fac537"/><stop offset="1" stop-color="#f9bf2c"/></radialGradient><radialGradient id="p" cx="34.93" cy="26.23" gradientUnits="userSpaceOnUse" r="18.31"><stop offset=".6107" stop-color="#00838f" stop-opacity="0"/><stop offset="1" stop-color="#00838f"/></radialGradient><path d="m56.47 58.7c-5 0-10.7-1.5-16.9-4.6-5.1-2.5-4.6-9-4.1-15.3 0-.7.1-1.3.2-2v-.2l-12.5-20.9c.1-4.9 5-12 12.4-12 5.23 0 12.3 0 19.7 11.5 9 14.1 13.3 16 16.6 16 4.3 0 7.3-1.2 8.8-3.6 1.8-2.8 1.2-6.4.5-8.4 1.7.9 4.6 2.7 6.2 5.9 1.7 3.4 1.6 7.5-.1 12.2-3.1 8.6-13.92 11.57-13.92 11.57-.49.96-1.57 2.82-3.38 4.63-3.6 3.5-8.1 5.2-13.5 5.2z" fill="#0f3b7c"/><path d="m65.24 38.36c-.91-.39-1.78-.87-2.59-1.44-3.33-2.33-5.54-6.02-6.66-9.92s-1.23-8.03-.96-12.09l2.11 3.14c2.61 3.88 5.44 8 9.16 10.92 1.62 1.27 3.47 2.23 5.58 2.23 4.3 0 7.3-1.2 8.8-3.6.2-.31 1.78-2.97 1.71-3.2.54 1.69.81 3.46.82 5.23 0 1.22-.13 2.46-.63 3.56-.45.99-1.18 1.84-1.99 2.57-2.39 2.18-5.54 3.51-8.76 3.72-2.26.15-4.53-.25-6.59-1.12z" fill="url(#a)"/><path d="m87.37 25.1c-1.6-3.2-4.5-5-6.2-5.9.7 2 1.3 5.6-.5 8.4-1.5 2.4-4.5 3.6-8.8 3.6-2.05 0-3.86-.91-5.46-2.14-1.04-.8-16.76 7.37-19.41 9.81 0 0 1.13 5.84 8.52 9.49 8.43 4.17 26.4 1.77 31.76-11.06 1.91-4.61 1.79-8.8.09-12.2z" fill="url(#b)"/><path d="m35.67 36.6-12.5-20.9c.1-4.9 5-12 12.4-12 5.23 0 12.3 0 19.7 11.5 2.81 4.4-19.6 21.4-19.6 21.4z" fill="url(#c)"/><path d="m47 40.25c-.53-.7-1.03-1.81-1.53-3.2-.01 0-.02 0-.04.01-1.92.39-3.84.8-5.74 1.3-1.17.31-3.43.54-4.17 1.62-1.13 1.66-.42 6.22-.08 8.09.48 2.57 1.71 4.83 4.12 6.03 6.2 3.1 11.9 4.6 16.9 4.6 5.4 0 9.9-1.7 13.5-5.2.84-.84 2.99-2.9 3.19-4.56-6.33 2.14-17.03 3.36-26.15-8.69z" fill="url(#d)"/><path d="m34.37 5.5h.4c2.2 0 3.9 1.8 3.8 4v.4c0 2.2-1.8 3.9-4 3.8h-.4c-2.2 0-3.9-1.8-3.9-4v-.4c.1-2.1 1.9-3.9 4.1-3.8z" fill="#fcb316"/><path d="m111.17 87.23c-1.61 1.17-13.65 3.19-6.15-1.04 4.93-2.78 7.47-12.01-3.68-14.8-11.41-2.83-23.6 17.07-25.34 21.24-4.13 9.89-9.85 18.2-21.58 24.17-10.49 5.35-20.28 5.85-32.53-.08-9.98-4.83-13.16-13.96-11.79-25.88.17-1.51.36-2.83.56-3.99.14-.82.28-1.56.42-2.24 1.39-6.75 2.75-7.67.64-16.95l18.23-2.03 3.12-.35 25.61-2.86c0 6.72-.77 11.82-10.54 21.28-3.88 3.76-10.54 6.96-11.9 11.89-.45 1.65-.75 3.41.72 5.6 1.68 2.52 13.54 8.51 24.79-7.46 1.15-1.63 7.52-11.3 9.25-13.91 4.26-6.43 8.9-12.1 16-15.64 25-12.48 36.92 13.78 24.17 23.05z" fill="url(#e)"/><path d="m37.79 79.63c-3.48 3.22-7.56 5.71-11.37 8.54s-7.45 6.11-9.57 10.35-2.46 9.63.15 13.59c1.16 1.76 4.5 5.43 13.12 7.74 0 0-13.46-6.56-5.76-17.6 2.44-3.5 12.48-9.35 15.72-12.12s2.52-1.64 5.48-4.71c3.37-3.49 7.68-8.67 9.43-13.19 1.23-3.18 2.97-8.37-2.41-8.37s-11.71 12.93-14.79 15.77z" fill="url(#f)"/><path d="m91.05 103.88c-.61-.2-1.31-.42-1.49-.78-2.36-4.79-.74-10.09 3.95-12.9 1.65-.98 4.67-1.87 6.88-2.51.53-.15 1.02-.3 1.45-.43 6.59-2.02 10.95-5.1 12.95-9.16.94-1.91 1.14-3.36 1.13-4.78.25 1.08.5 2.27.5 4.46 0 6.35-3.71 9.17-7.73 11.26-2.2 1.15-4.47 1.58-6.87 2.03-2.35.45-4.79.91-7.11 2.11-2.33 1.21-3.8 2.77-4.35 4.66-.52 1.76-.24 3.8.82 6.09-.05-.02-.09-.03-.13-.05z" fill="url(#g)"/><path d="m49.23 119.06c3.15-3.02 10.55-10.57 13.37-18.86 6.64-19.59 9.45-22.73 13.71-27.5l.07-.08c4.77-5.57 10.3-9.01 16.02-10.62-5.02 3.77-8.31 10.41-11.19 18.28-2.86 7.84-6.11 16.74-12.89 26.01-4.28 5.85-11.66 10.64-19.09 12.77z" fill="url(#i)"/><path d="m49.24 118.98c14.76-9.98 21.76-26.98 27.58-42.31 1.04-2.59 2.27-5.09 3.66-7.49s2.94-4.71 4.59-6.94c.86-1.15 1.84-2.23 2.91-3.22 1.09-.97 2.28-1.85 3.56-2.58 2.58-1.44 5.53-2.26 8.49-2.29 2.97-.02 5.9.75 8.49 2.12 2.57 1.39 4.91 3.38 6.36 6.04.74 1.32 1.18 2.83 1.37 4.25.21 1.44.23 2.9.09 4.33-.32 2.86-1.28 5.63-2.9 7.99-.81 1.17-1.82 2.22-2.87 3.11-1.05.91-2.15 1.73-3.29 2.5-2.28 1.52-4.68 2.92-7.29 3.71 1.26-.52 2.43-1.21 3.55-1.96 1.13-.74 2.22-1.55 3.26-2.4 2.05-1.72 4.16-3.49 5.4-5.75 1.29-2.24 1.98-4.81 2.08-7.36.11-2.53-.31-5.18-1.54-7.2-1.26-2.08-3.24-3.75-5.47-4.87s-4.74-1.68-7.21-1.63c-2.47.04-4.9.74-7.06 1.97-1.07.63-2.07 1.38-3.01 2.22-.91.87-1.77 1.8-2.55 2.81-1.6 2.11-3.1 4.32-4.47 6.6-.01.02-.03.05-.04.07-1.94 3.24-3.49 6.71-4.75 10.27-5.26 14.93-12.97 27.91-27.06 37.11-.58.38-1.19.75-1.88.9z" fill="#b39ddb"/><path d="m63.98 68.72-6.28-.11-18.93-.33-1.24-.03h-.18l-2.04-.04-1.04-.01-1.22-.02-1.36-.03h-.49l-1.3-.03-1.21-.02-14.5-.26-4.09-.07c1.22-6.53 4.09-9.41 7.27-11 2.73-1.37 5.69-1.79 8.01-2.75.32-.12.62-.26.91-.42.42-.22.81-.47 1.17-.76.12-.1.24-.21.36-.33h.01c0-.01.01-.02.01-.02 1.04-1.02 1.7-2.49 1.77-4.77l11.74-.62c-.14 2.65.73 4.3 2.2 5.44.07.06.14.11.21.16.17.12.35.24.53.35.45.26.93.5 1.45.72.31.12.62.24.95.35.27.1.55.19.84.27.04.02.08.03.12.04.15.05.3.09.45.14.08.02.16.04.25.06 1.62.46 3.37.85 5.1 1.38.25.08.52.17.81.27.62.2 1.24.44 1.85.7.21.1.4.18.57.26.06.02.12.05.18.08 3.64 1.78 6.62 4.87 7.12 11.4z" fill="#039be5"/><path d="m46.87 87.3c-.51.74-1.12.97-1.66 1-.63.03-1.16-.23-1.28-.3-.01 0-.01-.01-.02-.01 0 0-11.78-7.36-9.64-19.79.78-4.57 3.45-9.83 9.28-15.66.07.06.14.11.21.16.17.12.35.24.53.35.45.26.93.5 1.45.72-.28.34-.96 1.14-1.78 2.2-3.15 3.99-5.66 8.04-6.43 12.28-.31 1.69-.34 3.41-.02 5.18 1.03 5.62 4.83 9.49 7.06 11.91.94.93 2.3 1.94 2.3 1.96z" fill="#212121" opacity=".35"/><path d="m57.7 68.61c-.12 1.38-.34 2.69-.7 3.81-.12.39-.26.75-.42 1.09-.67 1.43-1.63 2.87-2.6 4.26-.17.24-.33.48-.5.72l-.32.46c-1.27 1.81-3.74 5.49-5.44 8.03l-1.25 1.86-.25.37c-.25-.21-.59-.52-1.01-.91-2.38-2.3-7.02-7.64-7.88-15.08 0-.01 0-.01 0-.02-.16-1.37-.18-2.74-.06-4.13.02-.27.05-.54.08-.82.57-5.01 2.89-10.11 6.94-15.2.45.26.93.5 1.45.72.31.12.62.24.95.35.27.1.55.19.84.27.04.02.08.03.12.04.14.05.29.1.45.14.08.02.16.04.25.06 1.62.46 3.37.85 5.1 1.38.25.08.52.17.81.27.75.25 1.36.5 1.85.7.21.1.4.18.57.26.06.02.12.05.17.07l.01.01c.44.86 1.27 6.46.84 11.29z" fill="url(#j)"/><path d="m47.72 86.98-1.25 1.86-.25.37-.3.44c-.42-.31-1.13-.87-1.99-1.65-.01 0-.01-.01-.02-.01-3.6-3.26-9.8-10.36-8.6-19.78.6-4.67 3.01-9.89 8.45-15.51.17.12.35.24.53.35.45.26.93.5 1.45.72.31.12.62.24.95.35-.34.41-.87 1.06-1.49 1.85-3.15 4-5.67 8.06-6.43 12.31-.31 1.68-.34 3.39-.02 5.15 1.03 5.62 4.83 9.49 7.06 11.91.63.62 1.44 1.27 1.91 1.64z" fill="#fcb316"/><path d="m33.05 68.18c-.12 1.18-.39 2.47-.87 3.88-1.88 5.47-5.07 14.59-21.52 14.79.01-.09.03-.17.04-.25.03-.17.06-.34.09-.5.1-.53.19-1.02.29-1.49.42-.48 1.03-.87 1.89-.94 10.99-1.15 14.41-6.8 16.12-11.8.45-1.31.7-2.56.81-3.75.09-.87.1-1.71.05-2.49-.08-1.53-.37-2.86-.69-3.93-.06-.21-.14-.51-.24-.87-.58-2.15-1.37-4.39-1.68-5.05-.35-.74-.78-1.62-1.05-2.18.42-.22.81-.47 1.17-.76.12-.1.24-.21.36-.33h.01c.01.01.03.02.04.04 2.44 2.08 3.83 6.86 4.26 8.29.37 1.24.79 2.7.94 4.44.08.89.09 1.85-.02 2.9z" fill="#212121" opacity=".35"/><path d="m31.2 68.15c-.02.28-.06.57-.1.86-.16 1.13-.42 2.3-.84 3.51-.3.89-.67 1.82-1.12 2.76-2.33 4.86-7.01 10-18.35 10.82-1.04.08-2.13.12-3.29.12-.12-.01-.25-.01-.37-.01.51-.65 1.13-1.58 1.78-2.7h.01c1.04-1.79 2.19-4.07 3.1-6.42.72-1.86 1.3-3.78 1.57-5.53l.02-.14.03-.16c.18-1.16.35-2.3.55-3.42.51-2.99 1.16-5.89 2.35-8.79.03-.08.09-.26.18-.51.12-.35.4-1.19.65-1.77 2.73-1.37 5.69-1.79 8.01-2.75.32-.12.62-.26.91-.42.42-.22.81-.47 1.17-.76 1.42 2.13 2.34 5.54 2.78 7.18.09.33.16.6.22.8.55 1.84 1.01 4.39.74 7.33z" fill="url(#k)"/><path d="m31.69 68.15c-.12 1.41-.42 2.93-.96 4.52-1.76 5.16-5.72 12.93-20.03 13.93-1.01.07-2.08.11-3.2.11-.29 0-.57 0-.86-.01.19-.21 1.62-2.03 2.27-3.19h.01c.55 0 1.44.11 2.85-.01 10.99-1.15 14.41-6.8 16.12-11.8.43-1.25.68-2.46.8-3.6.28-2.63-.13-4.92-.63-6.57-.06-.21-.14-.51-.24-.87-.58-2.15-1.37-4.39-1.68-5.05-.24-.51-.52-1.09-.76-1.59.32-.12.62-.26.91-.42.42-.22.81-.47 1.17-.76.12-.1.24-.21.36-.33h.01c0-.01.01-.02.01-.02l.03.06c1.74 2.59 2.7 6.91 3.06 8.11.53 1.78 1.06 4.39.76 7.49z" fill="#fcb316"/><path d="m57 72.42c-.12.39-.26.75-.42 1.09-.67 1.43-1.63 2.87-2.6 4.26-5.95-.09-12.27-1.93-16-4.27l-.65-.28-.99-.43c-1.64.55-4.2 1.55-7.2 2.49-5.2 1.63-11.74 3.09-17.12 1.81.72-1.86 1.3-3.78 1.57-5.53l.02-.14c2.37-1.75 12.59-2.45 13.01-2.45.13 0 1.93.02 4.48.04 1.79.02 3.95.04 6.17.06 6.14.06 12.67.13 12.67.13z" fill="#212121" opacity=".35"/><path d="m63.07 63.87c.38.45 2.66 2.58 2.64 4.76-.02 1.79-.76 4.07-3.25 5.28-6.59 3.22-18.85.65-24.47-2.9-6.99-4.4-11.74-6.99-11.74-6.99-6.14 1.3-11.25-1.74-11.25-1.74s-6.67 1.28-7.78 1.25c-1.75-.04-2.18-2.4-.73-2.9 2.86-.99 9.7-5.02 12.36-4.87 1.45.08 16.13 2.9 20.35 4.1 1.36.39 9.53 1.85 9.53 1.85" fill="#4fc3f7"/><path d="m39.49 59.94s12.81-4.24 15.7-3.6c7.22 1.6 10.66 7.25 10.77 8.28-.4 1.21-2.99 1.99-5.55 1.36-3.42-.84-7.29-3.35-11.7-4.27 0 0-9.02-1.59-9.22-1.77z" fill="#4fc3f7"/><path d="m65.96 64.62c-.11.61-.65 1.09-1.19 1.4-.55.32-1.16.51-1.78.64-1.25.22-2.56.18-3.83-.28-1.29-.43-2.3-1.33-3.2-2.05-.89-.76-1.68-1.29-2.53-1.32l-.34-.01h-.46c-.31 0-.63.01-.93 0-.62-.02-1.23-.05-1.84-.12-1.21-.16-2.4-.33-3.57-.61-2.34-.55-4.66-1.21-6.8-2.34 2.37.32 4.72.55 7.05.8 1.17.09 2.32.22 3.48.26.57.02 1.15.06 1.71.05.29.01.56-.01.84-.02l.43-.01h.56c.75.06 1.5.32 2.1.69.61.37 1.11.79 1.55 1.2.87.84 1.64 1.56 2.57 2.04.91.46 2.03.72 3.13.74.56.02 1.12-.04 1.66-.17.51-.15 1.08-.37 1.39-.89z" fill="#0277bd"/><path d="m36.73 70.23c-1.46 1.08-15.26 6.36-24.71 4.24-2.19-.49-5.15-1.1-5.84-3.69-.84-3.18 2.91-7.44 2.91-7.44l5.9-1.04 3.51 1.32c1.06.4 2.18.58 3.31.55l4.43-.14c0-.01 11.01 6.2 10.49 6.2z" fill="#4fc3f7"/><path d="m62.45 73.91c-2.87 1.63-6.32 2.06-9.61 2-3.32-.07-6.62-.63-9.81-1.62-1.59-.51-3.17-1.11-4.67-1.93-.77-.42-1.45-.85-2.14-1.28l-2.08-1.26c-2.75-1.71-5.56-3.37-8.34-5l.62.09c-1.01.17-2.03.3-3.05.28-1.02-.01-2.03-.12-3.02-.31s-1.97-.45-2.9-.82c-.94-.36-1.83-.77-2.72-1.32l.36.06c-1.31.18-2.61.34-3.93.49l-1.97.19c-.66.04-1.32.1-1.98.06.65-.07 1.29-.24 1.93-.38l1.92-.45 3.83-.92.16-.04.21.1c.8.4 1.71.73 2.6.98.9.25 1.81.45 2.73.56.92.12 1.84.16 2.76.11.92-.01 1.82-.17 2.71-.35l.32-.06.3.15c2.92 1.52 5.72 3.19 8.52 4.87l2.08 1.3c.69.44 1.38.88 2.04 1.25 1.36.74 2.81 1.38 4.3 1.92 1.5.52 3.03.96 4.59 1.33 1.56.34 3.14.63 4.73.8 3.15.31 6.42.31 9.51-.8z" fill="#0277bd"/><path d="m20.8 40.67c-1.06-.23-2.92-.81-4.21-2.16-2.36-2.49-3.08-7.49-3.26-9.31 1.31.12 4.28.58 5.81 2.39z" fill="#039be5"/><path d="m18.04 38.42c-.14 1.64-.96 3.01-2.2 3.03-1.24.03-2.27-1.3-2.3-2.95-.02-1.25.53-2.33 1.34-2.79l.47.97c-.41.28-.76.95-.74 1.81.02 1.14.65 1.92 1.21 1.91s1.16-.81 1.15-1.95c-.01-.94-.14-1.23-.38-1.75-.39-.88.26-1.56.88-.7 0 0 .7.84.57 2.42z" fill="#fcb316"/><path d="m51.28 31.59c1.53-1.82 4.5-2.27 5.81-2.39-.18 1.82-.9 6.82-3.26 9.31-1.29 1.36-3.15 1.94-4.21 2.16z" fill="#039be5"/><path d="m34.93 52.22c8.4.1 16.3-8.8 16.5-21.7s-7.7-19.4-15.9-19.5-16.3 6.1-16.5 19c-.2 13 7.5 22.1 15.9 22.2z" fill="#4fc3f7"/><path d="m30.76 29.8c-.31.28-.79.09-1.23-.08-.98-.37-1.44-.66-2.53-.87-.91-.17-2.05-.22-2.94.05-.81.24-.72-.05-.17-.52 1.15-.98 2.14-1.15 3.63-1.09 2.19.1 4.28 1.57 3.24 2.51z" fill="#01579b"/><path d="m39.7 29.8c.31.28.79.09 1.23-.08.98-.37 1.44-.66 2.53-.87.91-.17 2.05-.22 2.94.05.81.24.72-.05.17-.52-1.15-.98-2.14-1.15-3.63-1.09-2.18.1-4.27 1.57-3.24 2.51z" fill="#01579b"/><path d="m37.11 38.19c-.05-.02-.1-.03-.15-.04l-3.42-.05c-.05.01-.1.02-.16.04-.31.12-.49.44-.35.78s.81 1.31 2.18 1.33 2.07-.93 2.22-1.27-.02-.66-.32-.79z" fill="#0277bd"/><path d="m39.31 42.13c-1.55.89-6.6.82-8.12-.12-.88-.54-1.79.25-1.44 1.06.35.79 3.08 2.67 5.46 2.7s5.13-1.76 5.5-2.54c.37-.8-.51-1.61-1.4-1.1z" fill="#4e342e"/><path d="m52.95 36c.62-.86 1.27-.18.88.7-.24.52-.37.81-.38 1.75-.01 1.14.59 1.94 1.15 1.95s1.19-.77 1.21-1.91c.02-.86-.33-1.53-.74-1.81l.47-.97c.81.46 1.36 1.54 1.34 2.79-.03 1.65-1.06 2.98-2.3 2.95-1.24-.02-2.06-1.39-2.2-3.03-.13-1.58.57-2.42.57-2.42z" fill="#fcb316"/><circle cx="27.29" cy="33.6" fill="#212121" r="2.38"/><circle cx="43.17" cy="33.6" fill="#212121" r="2.38"/><path d="m116.24 113.57c-5.58-.89-5.1-2.6-5.63-4.19l-5.33-1.56c-1.22 1.05-2.38 3.23-6.97.99-1.41-.69-6.17-4.72-6.17-4.72l-3.59-.91c.46.42 4.37 5.45 7.7 9.66 4.16 5.27 6.65 6.25 8.48 6.78 2.74.8 5.92.4 5.92.4s5.34.58 9-.76c3.8-1.39 5.53-4.9 5.53-4.9s-6.42-.55-8.94-.79zm2.81 4.06c-1.38.5-3.06.7-4.54.76 1.28-.93 2.13-2.06 2.66-2.98 1.02.09 2.51.23 4.71.42-.72.69-1.66 1.38-2.83 1.8z" fill="url(#l)"/><path d="m121.88 115.84c-.72.69-1.66 1.37-2.83 1.8-1.38.5-3.06.7-4.54.76 1.08-.79 2.13-2.16 2.66-2.98-3 .16-6.87-.14-10.79-1.29-7.36-2.16-13.58-8.93-14.64-10.14l-3.19-.81c.46.42 4.37 5.45 7.7 9.66 2.81 3.55 4.85 5.15 6.45 5.98-3.41-.11-5.44 1.97-5.44 1.97l13.17 3.86s-.59-2.87-3.56-4.62c2.03.22 3.78 0 3.78 0s5.34.58 9-.76c3.8-1.39 5.53-4.9 5.53-4.9z" fill="url(#m)"/><path d="m108.34 104.94-3.27 3.12 5.65 1.66-1.5-4.48 1.16-.95c.33-.27.5-.68.46-1.1l-.21-2.42c-.04-.48-.64-.68-.96-.31l-1.61 1.85c-.31.35-.4.85-.23 1.29 0 0 .51 1.34.51 1.34z" fill="url(#n)"/><path d="m110.04 123.59-11.85-3.48 1.48-.78 9.51 2.79z" fill="url(#o)"/><path d="m35.16 9.25c-11.64 0-15.95 7.33-17.38 15.49-.87 4.97.79 9.59 1.59 10.87-.3-3.1 1.7-13.2 4.6-15.8l11.3 6.4 11.3-6.4c2.9 2.5 4.8 12.6 4.6 15.8.68-1.67 2.65-5.2 1.33-11.42-1.94-9.15-5.89-14.94-17.34-14.94z" fill="#0d47a1"/><path d="m35.16 9.25c-11.64 0-15.95 7.33-17.38 15.49-.87 4.97.79 9.59 1.59 10.87-.3-3.1 1.7-13.2 4.6-15.8l11.3 6.4 11.3-6.4c2.9 2.5 4.8 12.6 4.6 15.8.68-1.67 2.65-5.2 1.33-11.42-1.94-9.15-5.89-14.94-17.34-14.94z" fill="url(#p)"/></svg>