<svg enable-background="new 0 0 128 128" viewBox="0 0 128 128" xmlns="http://www.w3.org/2000/svg"><path d="m31.95 63.46h55.89v9.3h-55.89z" transform="matrix(-.7071 -.7071 .7071 -.7071 54.09 158.62)"/><path d="m30.13 73.39c3.24 12.48-3.08 16.56-6.37 18.49s-5.43 2.57-9.52 3.99c-2.1.73-4.09 1.94-5.79 3.64-5.77 5.77-5.95 14.92-.42 20.45s14.68 5.35 20.45-.42c1.7-1.7 2.91-3.68 3.64-5.79 1.42-4.1 2.07-6.23 3.99-9.52 1.93-3.29 6.01-9.61 18.49-6.37 11.84 3.07 17.7 1.58 22.85-3.57l3.64-3.64-.02-.02 42.29-44.22c.63-.63.91-1.8.21-2.49-.7-.7-1.95-.25-2.51.24l-42.96 41.11c-.68.65-1.75.64-2.41-.03-.66-.66-.67-1.73-.03-2.41l41.12-42.99c.61-.62.91-1.8.21-2.5s-1.94-.28-2.51.23l-42.97 41.11c-.68.65-1.75.64-2.41-.03-.66-.66-.67-1.73-.03-2.41l41.12-42.99c.59-.61.92-1.8.22-2.5s-1.92-.31-2.5.23l-42.98 41.12c-.68.65-1.75.64-2.41-.03-.66-.66-.67-1.73-.03-2.41l41.12-42.99c.56-.59.92-1.8.22-2.5s-1.91-.34-2.5.22l-42.99 41.12c-.68.65-1.75.64-2.41-.03-.66-.66-.67-1.73-.03-2.41l41.11-42.99c.54-.58.93-1.81.23-2.5-.7-.7-1.89-.37-2.5.22l-42.99 41.12c-.68.65-1.75.64-2.41-.03-.66-.66-.67-1.73-.03-2.41l41.11-42.98c.51-.57.93-1.81.23-2.51s-1.88-.39-2.5.21l-42.98 41.14c-.68.65-1.75.64-2.41-.03-.66-.66-.67-1.73-.03-2.41l41.1-42.98c.49-.56.93-1.81.24-2.51-.7-.7-1.86-.42-2.49.21l-44.22 42.29-.02-.02-3.64 3.64c-5.15 5.17-6.65 11.02-3.57 22.86zm-8.38 32.86c1.76 1.76 1.76 4.62 0 6.39-1.76 1.76-4.62 1.76-6.39 0-1.76-1.76-1.76-4.62 0-6.39 1.76-1.76 4.62-1.76 6.39 0z" fill="#4c4c4c"/><path d="m38.34 54.33c1.49 1.49.04 3.37-1.07 5.37s-1.65 7.11-.68 13.01c.71 4.35-.07 7.83-1.58 10.47-1.11 1.93-2.72 1.73-1.48-.87 1.24-2.61 1.26-5.65.61-9.22-1-5.46-2.52-10.9-1.04-15.11.79-2.25 3.33-5.56 5.24-3.65z" fill="#2f7889"/><path d="m13.27 114.73c2.27 2.27 5.95 2.27 8.21 0 1.43-1.43 1.95-3.41 1.59-5.25-.01 1.14-.45 2.29-1.32 3.16-1.76 1.76-4.62 1.76-6.39 0-1.76-1.76-1.76-4.62 0-6.39.87-.87 2.01-1.31 3.16-1.32-1.84-.37-3.82.16-5.25 1.59-2.27 2.27-2.27 5.94 0 8.21z"/><path d="m13.45 117.38c-3.5-1.65-4.72-5.08-4.21-8.56.51-3.47 1.92-6.16 6.45-7.06.52-.1 1.03-.28 1.03-.95 0-.69-.79-.94-1.3-.94-4.93 0-8.26 4.16-8.97 9.02s1.94 9.84 5.96 11.42c1.03.4 2.53.47 2.85-.64.37-1.34-1.1-1.96-1.81-2.29z" fill="#2f7889"/></svg>