<svg enable-background="new 0 0 128 128" viewBox="0 0 128 128" xmlns="http://www.w3.org/2000/svg"><path d="m75.8 43.8c-2.5-2-13.4-10-13.9-19.9-.1-2.5 1.4-10.7 8.7-7.2 5.1 2.5 8.3 11.8 26.6 21.5 5.6 3 23.8 13 23.8 33.7 0 10.4-4.9 25-21.1 29.7-12.9 3.8-27.7 4.7-63.2-.6-10.6-1.6-7.8-10.2-2.2-10.9-5.9-.5-11.3-.7-14.4-1.5-4.8-1.1-6.5-3.6-6.6-6-.2-3.1 2.4-6.1 6.8-6.6-3.6-.4-6.4-.7-7.4-.8-7.6-1.1-7.8-10.7-.4-12.2 3.3-.7 6.6-1 9.9-1-12.5-.8-10.6-11.7-3.1-12.8 12.5-1.9 45.5-3.2 56.5-5.4z" fill="#ffca28"/><path d="m67.08 15.85c-4.29.22-5.26 6.02-5.18 8.05.06 1.27.3 2.5.67 3.7l2.03.1c-1.9-3.1-.2-12.2 5.5-8.4 4.6 3.1 8.2 10.3 16.9 15.7 5.5 3.4 20.3 9.7 26.8 20.8 6.5 11.2 6 22.8 1.6 31.5-1.7 3.36-1.66 4.5-.98 4.65 4.82-6.19 6.58-13.86 6.58-20.05 0-20.7-18.2-30.7-23.8-33.7-18.3-9.7-21.5-19-26.6-21.5-1.37-.66-2.53-.9-3.52-.85zm6.52 24.75-1.46.19c1.6 1.39 2.97 2.45 3.66 3.01-11 2.2-44 3.5-56.5 5.4-6.63.97-8.87 9.6-.65 12.14.61.02 1.44.06 1.65.06 1 0 1.8-1.6-.2-1.7-4.9-.3-5.8-7.6-.3-8.3.9-.1 29.1-2 45.2-3.6 4.8-.5 9.4-1.1 10.8-1.3.4-.1.9-.2 1.3-.3.2 8.6 5.2 26.2 26.4 26.6 1.5 0 1.6-2.2.1-2.4-16.1-2.6-22.9-13.6-23.9-26.9-.1-1.3-3.9-2.7-6.1-2.9zm-36.9 20.6s-9.51.22-16.91.43c.8.17 1.65.31 2.61.37-3.3 0-6.6.3-9.9 1-7.33 1.49-7.19 10.9.19 12.15.54-.64.63-1.8-.69-2.15-3.7-1-4.4-7.9 3-8.4 1.6-.1 17.1-1.3 19-1.3s2.6-1.3 2.7-2.1zm-16.4 14.8c-4.4.5-7 3.5-6.8 6.6.1 2.4 1.8 4.9 6.6 6 .03.01.07.01.1.02.35-.63.21-1.68-.9-1.82-4-.5-5.9-7.5 1.1-8.3 1.6-.2 14.9-1.1 16.6-1.1 1.7-.1 2.9-1 3-1.4zm12.9 13.3s-.81.11-1.79.56c1.06.08 1.98.15 3.09.24-5.36.67-8.12 8.56.93 10.64.25-.89.04-2.02-1.03-2.14-3.3-.4-4.1-5.9.8-6.2.8 0 13.4-.8 15.2-.8 1.9 0 2.3-1 2.6-1.5z" fill="#faa700"/><path d="m62.26 20.99c-.28 1.15-.39 2.24-.36 2.91.5 9.9 11.4 17.9 13.9 19.9.6.5 1.1.9 1.6 1.3 1.4 1.1 3.3-1 1.9-2.3-1.6-1.5-14.2-10.7-16.6-21.2-.08-.34-.25-.53-.44-.61zm-48.53 35.81c-.07 0-.13.01-.2.03.6 2.18 2.67 4.16 6.68 4.9 1.19.11 2.19.17 2.19.17 3 .1 34.8.3 35.6.3s1.8.6 2.5.6c1.3 0 1.3-1.1 1.4-2.3s.3-2.4-1-2.4c-1.1 0-1.3.8-2.7.7s-36.5.7-38 .7-4.5-.3-6-2.4c-.15-.2-.31-.29-.47-.3zm-6.55 13.33c.42 2.4 2.33 4.58 5.72 5.07 1 .1 3.8.4 7.4.8-.24.03-.45.09-.68.13.21-.01.58-.03.58-.03 2.9-.1 37.1.6 37.8.7 1.5.1 1.7.8 2.9.8 1.3 0 1.1-1.1 1.1-2.3 0-1.1.1-2.3-1.1-2.3-1.4 0-.8.7-3 .7-1.5 0-40.4 0-43.4-.4-5.2-.7-6.4-2.5-6.7-2.9-.15-.2-.42-.32-.62-.27zm113.76.33c-.19.02-.36.17-.44.54-2.3 9.7-3.7 31.5-44.8 31-16.9-.2-38.6-2.9-41.4-3.5-1.5-.3-3.4-1-4.1-2.2-.13-.26-.42-.28-.58-.09.43 2.1 2.5 4.1 7.08 4.79 35.5 5.3 50.3 4.4 63.2.6 16.2-4.7 21.1-19.3 21.1-29.7 0-.49-.02-.96-.04-1.44-.01 0-.02 0-.02 0zm-107.4 12.5c.25 2.28 2 4.59 6.56 5.64 3.1.8 8.5 1 14.4 1.5-.15.02-.28.06-.42.09.01 0 .32.01.32.01 2.4.1 25.4.5 26.3.6s1.3.6 2.5.6c1.3 0 1.1-1 .9-2s-.3-1.9-1.4-2c-1.3-.1-.9.8-2.3.7-1.4 0-36.2-.7-39.9-1.3-2-.3-5.5-1.2-6.7-3.6-.05-.1-.14-.19-.26-.24z" fill="#b55e19"/></svg>