<svg enable-background="new 0 0 128 128" viewBox="0 0 128 128" xmlns="http://www.w3.org/2000/svg" xmlns:xlink="http://www.w3.org/1999/xlink"><linearGradient id="a" gradientUnits="userSpaceOnUse" x1="64" x2="64" y1="146.44" y2="19.02"><stop offset="0" stop-color="#ffb300"/><stop offset=".102" stop-color="#ffb809"/><stop offset=".3707" stop-color="#ffc21a"/><stop offset=".6592" stop-color="#ffc825"/><stop offset="1" stop-color="#ffca28"/></linearGradient><path d="m20.9 112.77c-8.45 0-15.32-7.37-15.32-16.42s6.87-16.42 15.32-16.42h86.2c8.45 0 15.32 7.37 15.32 16.42s-6.87 16.42-15.32 16.42z" fill="#e59600"/><path d="m107.1 81.51c7.58 0 13.74 6.66 13.74 14.85s-6.17 14.85-13.74 14.85h-86.2c-7.58 0-13.74-6.66-13.74-14.85s6.17-14.85 13.74-14.85zm0-3.16h-86.2c-9.29 0-16.9 8.1-16.9 18s7.6 18 16.9 18h86.2c9.29 0 16.9-8.1 16.9-18s-7.6-18-16.9-18z" fill="#cc8600"/><path d="m128 0h-4c-.55 0-1 .45-1 1s.45 1 1 1h4zm-12 0h-4c-.55 0-1 .45-1 1s.45 1 1 1h4c.55 0 1-.45 1-1s-.45-1-1-1zm-12 0h-4c-.55 0-1 .45-1 1s.45 1 1 1h4c.55 0 1-.45 1-1s-.45-1-1-1zm-12 0h-4c-.55 0-1 .45-1 1s.45 1 1 1h4c.55 0 1-.45 1-1s-.45-1-1-1zm-12 0h-4c-.55 0-1 .45-1 1s.45 1 1 1h4c.55 0 1-.45 1-1s-.45-1-1-1zm-12 0h-4c-.55 0-1 .45-1 1s.45 1 1 1h4c.55 0 1-.45 1-1s-.45-1-1-1zm-12 0h-4c-.55 0-1 .45-1 1s.45 1 1 1h4c.55 0 1-.45 1-1s-.45-1-1-1zm-12 0h-4c-.55 0-1 .45-1 1s.45 1 1 1h4c.55 0 1-.45 1-1s-.45-1-1-1zm-12 0h-4c-.55 0-1 .45-1 1s.45 1 1 1h4c.55 0 1-.45 1-1s-.45-1-1-1zm-12 0h-4c-.55 0-1 .45-1 1s.45 1 1 1h4c.55 0 1-.45 1-1s-.45-1-1-1zm-12 0h-4c-.55 0-1 .45-1 1s.45 1 1 1h4c.55 0 1-.45 1-1s-.45-1-1-1zm-7 3c-.55 0-1 .45-1 1v4c0 .55.45 1 1 1s1-.45 1-1v-4c0-.55-.45-1-1-1zm0 12c-.55 0-1 .45-1 1v4c0 .55.45 1 1 1s1-.45 1-1v-4c0-.55-.45-1-1-1zm0 12c-.55 0-1 .45-1 1v4c0 .55.45 1 1 1s1-.45 1-1v-4c0-.55-.45-1-1-1zm0 12c-.55 0-1 .45-1 1v4c0 .55.45 1 1 1s1-.45 1-1v-4c0-.55-.45-1-1-1zm0 12c-.55 0-1 .45-1 1v4c0 .55.45 1 1 1s1-.45 1-1v-4c0-.55-.45-1-1-1zm0 12c-.55 0-1 .45-1 1v4c0 .55.45 1 1 1s1-.45 1-1v-4c0-.55-.45-1-1-1zm0 12c-.55 0-1 .45-1 1v4c0 .55.45 1 1 1s1-.45 1-1v-4c0-.55-.45-1-1-1zm0 12c-.55 0-1 .45-1 1v4c0 .55.45 1 1 1s1-.45 1-1v-4c0-.55-.45-1-1-1zm0 12c-.55 0-1 .45-1 1v4c0 .55.45 1 1 1s1-.45 1-1v-4c0-.55-.45-1-1-1zm0 12c-.55 0-1 .45-1 1v4c0 .55.45 1 1 1s1-.45 1-1v-4c0-.55-.45-1-1-1zm0 12c-.55 0-1 .45-1 1v4h2v-4c0-.55-.45-1-1-1zm11 3h-4c-.55 0-1 .45-1 1s.45 1 1 1h4c.55 0 1-.45 1-1s-.45-1-1-1zm12 0h-4c-.55 0-1 .45-1 1s.45 1 1 1h4c.55 0 1-.45 1-1s-.45-1-1-1zm12 0h-4c-.55 0-1 .45-1 1s.45 1 1 1h4c.55 0 1-.45 1-1s-.45-1-1-1zm12 0h-4c-.55 0-1 .45-1 1s.45 1 1 1h4c.55 0 1-.45 1-1s-.45-1-1-1zm12 0h-4c-.55 0-1 .45-1 1s.45 1 1 1h4c.55 0 1-.45 1-1s-.45-1-1-1zm12 0h-4c-.55 0-1 .45-1 1s.45 1 1 1h4c.55 0 1-.45 1-1s-.45-1-1-1zm12 0h-4c-.55 0-1 .45-1 1s.45 1 1 1h4c.55 0 1-.45 1-1s-.45-1-1-1zm12 0h-4c-.55 0-1 .45-1 1s.45 1 1 1h4c.55 0 1-.45 1-1s-.45-1-1-1zm12 0h-4c-.55 0-1 .45-1 1s.45 1 1 1h4c.55 0 1-.45 1-1s-.45-1-1-1zm12 0h-4c-.55 0-1 .45-1 1s.45 1 1 1h4c.55 0 1-.45 1-1s-.45-1-1-1zm7-3c-.55 0-1 .45-1 1v4h2v-4c0-.55-.45-1-1-1zm0-12c-.55 0-1 .45-1 1v4c0 .55.45 1 1 1s1-.45 1-1v-4c0-.55-.45-1-1-1zm0-12c-.55 0-1 .45-1 1v4c0 .55.45 1 1 1s1-.45 1-1v-4c0-.55-.45-1-1-1zm0-12c-.55 0-1 .45-1 1v4c0 .55.45 1 1 1s1-.45 1-1v-4c0-.55-.45-1-1-1zm0-12c-.55 0-1 .45-1 1v4c0 .55.45 1 1 1s1-.45 1-1v-4c0-.55-.45-1-1-1zm0-12c-.55 0-1 .45-1 1v4c0 .55.45 1 1 1s1-.45 1-1v-4c0-.55-.45-1-1-1zm0-12c-.55 0-1 .45-1 1v4c0 .55.45 1 1 1s1-.45 1-1v-4c0-.55-.45-1-1-1zm0-12c-.55 0-1 .45-1 1v4c0 .55.45 1 1 1s1-.45 1-1v-4c0-.55-.45-1-1-1zm0-12c-.55 0-1 .45-1 1v4c0 .55.45 1 1 1s1-.45 1-1v-4c0-.55-.45-1-1-1zm0-12c-.55 0-1 .45-1 1v4c0 .55.45 1 1 1s1-.45 1-1v-4c0-.55-.45-1-1-1zm0-12c-.55 0-1 .45-1 1v4c0 .55.45 1 1 1s1-.45 1-1v-4c0-.55-.45-1-1-1z"/><path d="m63.99 17.84c-34.51 0-51.291 21.37-51.291 65.35 0 15.812 3.7446 29.739 10.881 40.811h80.826c7.1322-11.07 10.873-24.994 10.873-40.801 0-21.72-3.8997-37.539-11.93-48.369-8.46-11.43-21.339-16.99-39.359-16.99z" fill="url(#a)"/><path d="m64 16.26c-37.86 0-52.869 25.37-52.869 66.93 0 16.536 4.0657 30.247 10.611 40.811h3.7539c-7.3367-10.951-11.195-24.892-11.195-40.801 0-20.82 3.9089-36.69 11.629-47.18 8.19-11.18 20.65-16.6 38.07-16.6 17.48 0 29.95 5.3496 38.1 16.35 7.71 10.41 11.621 26.36 11.621 47.43 0 15.915-3.8586 29.856-11.193 40.801h3.7266c6.5476-10.565 10.615-24.276 10.615-40.811 0-42.24-15.009-66.93-52.869-66.93z" fill="#eda600"/></svg>