<svg enable-background="new 0 0 128 128" viewBox="0 0 128 128" xmlns="http://www.w3.org/2000/svg"><path d="m89.49 22.4-10.7 10.22 10.01 55.45c8.47-2.99 14.26-8.59 18.91-11.48 2.7-1.68 5.63-2.59 5.63-2.59z" fill="#00796b"/><path d="m93.09 30.13 6.98 15.16s-7.43-6.74-8.31 1.45c-.87 8.19-2.69 16.24-2.69 16.24l-9.13-34.54z" fill="#00695c"/><path d="m112.43 72.2c-3.91.9-7.01 3.21-10.42 5.61-3.8 2.71-7.91 5.62-13.6 7.35l.75 3.88c7.31-1.98 12.36-5.55 16.46-8.42 3.11-2.2 5.81-4.11 8.52-4.71z" fill="#e2a610"/><path d="m104.52 24.1c-2.5-3.21-7.54-10.05-12.76-13.29-6.31-3.81-13.09-6.15-13.09-6.15s-5.04 8.53-12.52 9.92-13.33-3.11-14.73-5.01c-1.5-2.2-2.3-4.61-3.81-4.11-2.5.9-6.41 1.96-10.62 5.01-3.53 2.56-10.23 10.43-12.73 13.63-.6.7-.5 1.8.2 2.4l8.52 8.52c.7.7 1.9.7 2.61 0l6.11-5.81 1 4.31c1.2 5.01 1.6 7.21 1.5 9.42 0 .09 40.38.09 40.38 0-.1-2.2.3-4.41 1.5-9.42l1-4.31 6.11 5.81c.7.7 1.9.7 2.61 0l8.52-8.52c.7-.59.8-1.7.2-2.4z" fill="#c62828"/><path d="m34.28 91.74-3.11 25.35c6.41 4.11 14.03 1.2 18.34 2.2s8.52 4.11 16.03 4.11 9.62-3.11 13.93-4.11 10.22 2 19.34-3.41l-14.03-76.25c.05-.1-8.92 17.93-21.89 31.33-12.29 12.69-28.61 20.78-28.61 20.78z" fill="#26a69a"/><path d="m44.35 92.88c.82-.49 4.53-2.46 4.19 2.87-.54 8.3-2.29 23.88-2.29 23.88s1.96-.02 3.25.43c1.45.51 5.3 1.86 5.3 1.86s2.11-18.97 3.41-28.42c1.85-13.41 7.02-17.22 8.57-18.16 1.54-.93 4.08-1.12 5.52 2.14 3.08 6.99 5.61 25.83 6.08 29.86s1.48 3.48 1.52-.27c.12-12.15.38-40.84 1.37-48.51 1.85-14.34 4.15-15.42 4.15-15.42l-.65-3.51c.02-.04.86-.05-1.3-.05-3.48 7.33-10.97 21.25-22.31 32.61-17.2 17.24-26.88 19.55-26.88 19.55l-.8 6.61s2.79-.6 10.87-5.47z" fill="#00796b"/><path d="m65.54 124c-7.65-.03-11.13-2.59-16.73-4.21-5.49-.55-12.26 1.61-17.84-2.2l.75-5.03c5.5 3.88 12.47 1.72 18.28 2.72 5.41 1.43 8.85 4.11 15.43 4.11 6.51.05 7.67-3.27 13.33-4.01 6.94-.9 11.18 1.62 19.2-4.05l1.06 5.25c-8.82 5.25-12.55 2.67-19.06 3.4-5.07 1.53-6.66 3.99-14.42 4.02z" fill="#ffca28"/><path d="m60.34 13.76c-6.51-.9-8.92-5.91-9.92-8.02-.3-.6-1-.9-1.7-.7l-3.28 1.23s1.98 5.39 5.08 8.09c6.11 5.41 15.13 5.31 20.54 2l.8-6.41c-4.3 3.21-5.91 4.51-11.52 3.81z" fill="#ff7555"/><path d="m78 4.38c-12.78 13.21-37.07 32.21-37.07 32.21l1.93 8.65-2.55 5.35.06 11.5-2.75 5.98-3.34 23.67s24.95-11.36 38.55-33.1c14.81-23.21 16.35-34.61 18.67-48.29 0 0-7.91-4.71-13.5-5.97z" fill="#80ddd2"/><path d="m40.93 36.59s1.45 8.03 1.54 8.76-2.62 4.31-2.62 5.7-.03 9.61-.03 10.59-2.54 5.22-2.66 6.18c-.12.95-2.89 23.93-2.89 23.93s3.23-.48 7.05-2.7c.92-16.5-.83-21.92 2.49-24.72 3.32-2.79 9.84-7.26 18.09-21.38.35-.59.76-1.81-.06-2-.68-.16-1.47 1.31-1.62 1.52-2.4 3.45-6.21 8.27-13.65 12.06-3.2 1.63-3.05-6.15-1.57-6.96 2.69-1.59 10.06-7.6 15.27-14.29.18-.24 1.12-1.32.7-1.72-.38-.35-1.42.67-1.42.68 0 0-7.07 6.54-10.15 7.8-3.64 1.57-3.25-1.97-3.5-7.4-3.81 3.08-4.97 3.95-4.97 3.95z" fill="#29b3a6"/><path d="m46.5 80.29-2.91-3.6 2.91-3.6 2.92 3.6z" fill="#ffe36c"/><path d="m38.35 84.97-2.36-2.93 2.36-2.92 2.37 2.92z" fill="#ffca28"/><path d="m62.04 65.98-3.51-4.21 3.51-4.21 3.4 4.31z" fill="#ffe36c"/><path d="m76.3 45.8-3.51-4.21 3.51-4.2 3.4 4.3z" fill="#ffe36c"/><path d="m81.25 35.97-3.04-3.65 3.04-3.64 2.95 3.73z" fill="#ffe36c"/><path d="m54.57 73.91-3.31-3.97 3.21-3.96 3.31 3.96z" fill="#ffe36c"/><path d="m41.86 108.37-3.51-4.21 3.51-4.21 3.41 4.21z" fill="#ffca28"/><path d="m87.12 108.37-3.51-4.21 3.51-4.21 3.51 4.21z" fill="#ffca28"/><path d="m98.76 72-3.41-4.21 3.41-4.21 3.5 4.21z" fill="#e2a610"/><path d="m65.49 114.48-3.5-4.21 3.5-4.21 3.51 4.21z" fill="#ffe36c"/><path d="m37.89 32.92-11.45-11.66c-.77.87-1.78 2.34-2.19 2.84-.6.7-.5 1.8.2 2.4l8.52 8.52c.7.7 1.9.7 2.61 0-.1.1 2.31-2.1 2.31-2.1z" fill="#ff7555"/><path d="m90.89 32.84 11.42-11.52c.68.77 1.87 2.28 2.2 2.81.63.79.5 1.8-.2 2.4l-8.52 8.52c-.7.7-1.9.7-2.61 0 .12.09-2.29-2.21-2.29-2.21z" fill="#ff7555"/><path d="m53.61 16.56c-2.15-1.05-3.99-2.67-5.32-4.66-.27-.41-.12-.96.31-1.2l2.01-1.12c.36-.2.83-.12 1.08.21 1.04 1.33 1.99 2.27 3.5 3.16.37.21.51.67.35 1.06l-.8 2.1c-.17.45-.7.67-1.13.45z" fill="#ffa996"/><path d="m30.04 30.79-2.75-2.81c-.34-.34-.36-.88-.06-1.26l1.4-1.73c.36-.44 1.02-.47 1.41-.07l3.16 3.22c.4.41.35 1.09-.12 1.43l-1.81 1.32c-.38.28-.9.24-1.23-.1z" fill="#ffa996"/><path d="m84.62 27.32-2.63-3.22 2.56-3.08 2.63 3.15z" fill="#ffe36c"/><path d="m87.33 18.49-2.26-2.78 2.19-2.65 2.27 2.71z" fill="#ffe36c"/><path d="m69.79 55.98-3.65-4.38 3.55-4.38 3.65 4.38z" fill="#ffe36c"/><path d="m62.05 120.1-.2 2.31c-.03.47.29.89.76.96 1.42.21 4.41.34 7.36-.21.46-.09.77-.54.7-1.01l-.4-2.42c-.07-.5-.54-.88-1.03-.77-2.98.65-5.05.43-6.21.31-.51-.06-.95.32-.98.83z" fill="#fff59d"/><path d="m99.7 29.76 2.75-2.81c.34-.34.36-.88.06-1.26l-1.4-1.73c-.36-.44-1.02-.47-1.41-.07l-3.16 3.22c-.4.41-.35 1.09.12 1.43l1.81 1.32c.38.28.9.24 1.23-.1z" fill="#ffa996"/><path d="m79.35 4.71-2.18-.71c-14.13 14.01-35.04 29.74-35.04 29.74-1.23 1.03-1.36 2.21-1.07 4.01 16.26-9.89 38.29-33.04 38.29-33.04z" fill="#ffe36c"/><path d="m91.11 10.29s-.17 19-19.49 47.48c-13.81 20.35-31.8 29.53-37.18 32-.14 1.29-.3 2.68-.41 3.72 0 0 23.74-8.93 40.14-34.14 18.14-27.88 18.96-47.86 18.96-47.86-1.08-.76-1.47-.99-2.02-1.2z" fill="#ffe36c"/><path d="m86.54 7.65-1.44-.64c-11.72 36.54-37.01 58.3-48.68 66.96-.03.13-.05.25-.08.38-.17.97-.36 2.24-.55 3.65 10.51-7.04 37.74-28.66 50.75-70.35z" fill="#ffe36c"/><g fill="#ffca28"><path d="m50.91 26.89c-5.2 4.15-9.34 7.06-9.34 7.06-1.23 1.03-.8 2-.51 3.8 3.23-1.97 6.7-4.46 10.17-7.19-.09-1.23-.21-2.55-.32-3.67z"/><path d="m41.47 86.08c-2.59 1.48-5.7 3.09-7.02 3.7-.14 1.29-.3 2.68-.41 3.72 0 0 3.4-1.42 7.43-3.62z"/><path d="m36.42 73.97c-.03.13-.05.25-.08.38-.17.97-.36 2.24-.55 3.65 1.24-.83 4.2-3.01 5.85-4.25l.1-3.95c-1.43 1.16-4.14 3.29-5.32 4.17z"/><path d="m71.17 9.7c.74.18 2.97.29 2.97.29 1.67-1.69 5.21-5.28 5.21-5.28l-2.18-.71c-.92.92-5.02 4.78-6 5.7z"/><path d="m81.99 15.5 1.67.48c.6-1.42 2.52-7.18 2.88-8.32l-1.44-.65c-.35 1.09-3.11 8.49-3.11 8.49z"/><path d="m89.53 19.89 2.03 1.05c1.32-4.61 1.58-9.45 1.58-9.45s-1.32-1.05-2.03-1.37c0 0-.22 4.44-1.58 9.77z"/></g><path d="m55.37 117.15c-4.18-2.29-7.51-2.12-8.62-2.15-.3 2.77-.5 4.7-.5 4.7 3.13.08 4.02.85 8.55 2.22 0-.01.23-1.89.57-4.77z" fill="#e2a610"/><path d="m84.38 115.18c-1.54-.02-3.83-.03-5.61.2-.07.01-.74.12-.81.13l.32 5.06c.31-.11 1.78-.87 7-.65z" fill="#e2a610"/></svg>