<svg enable-background="new 0 0 128 128" viewBox="0 0 128 128" xmlns="http://www.w3.org/2000/svg"><path d="m106.63 124h-76.28c-1.6 0-4.55 0-8.36-3.49-3.07-2.81-6.59-5.44-6.52-8.7l82.28-97.37c4.48 0 6.51 1.31 9.35 3.01 5.37 3.22 5.55 4.85 5.55 6.67v93.87c-.01 3.32-2.7 6.01-6.02 6.01z" fill="#b9e4ea"/><path d="m69.17 87.62v29h28.85c3.17 0 5.74-2.57 5.74-5.74v-23.26z" fill="#82aec0"/><path d="m75.11 116.62c-5.21 0 4.25-21.3 4.25-21.3s24.4-22.4 24.4-6.85-23.45 28.15-28.65 28.15z" fill="#b9e4ea"/><path d="m85.12 96.44s18.64-1.19 18.64-8.55v-67.44c0-3.32-2.35-6.01-6.01-6.01h-76.39c-3.95 0-6.01 2.69-6.01 6.01v90.16c0 3.32 2.69 6.01 6.01 6.01h52.82c11.53-2.72 10.94-20.18 10.94-20.18z" fill="#f5f5f5"/><ellipse cx="28.13" cy="20.52" fill="#2f7889" rx="3.11" ry="3.47"/><path d="m29.57 17.67c-.43-.9-.72-2.02-.72-3.24 0-2.81 1.46-5.18 3.19-5.18s3.2 2.37 3.2 5.18h4.7c0-5.75-3.54-10.43-7.89-10.43s-7.9 4.68-7.9 10.43c0 2.05.45 3.96 1.22 5.57.7 1.46 2.21 2.11 3.54 1.4 1.13-.59 1.27-2.47.66-3.73z" fill="#94d1e0"/><path d="m36.59 5.91c.02.06.6 1.56-.22 3-.83 1.47-2.55 1.24-2.55 1.24.85.94 1.42 2.52 1.42 4.28h4.72c0-3.52-1.35-6.63-3.37-8.52z" fill="#2f7889"/><ellipse cx="49.12" cy="20.52" fill="#2f7889" rx="3.11" ry="3.47"/><path d="m50.56 17.67c-.43-.9-.72-2.02-.72-3.24 0-2.81 1.46-5.18 3.19-5.18s3.2 2.37 3.2 5.18h4.7c0-5.75-3.54-10.43-7.9-10.43-4.35 0-7.9 4.68-7.9 10.43 0 2.05.45 3.96 1.22 5.57.7 1.46 2.21 2.11 3.54 1.4 1.14-.59 1.28-2.47.67-3.73z" fill="#94d1e0"/><path d="m57.58 5.91c.02.06.6 1.56-.22 3-.83 1.47-2.55 1.24-2.55 1.24.85.94 1.42 2.52 1.42 4.28h4.74c0-3.52-1.37-6.63-3.39-8.52z" fill="#2f7889"/><ellipse cx="70.11" cy="20.52" fill="#2f7889" rx="3.11" ry="3.47"/><path d="m71.55 17.67c-.43-.9-.72-2.02-.72-3.24 0-2.81 1.46-5.18 3.19-5.18s3.2 2.37 3.2 5.18h4.7c0-5.75-3.54-10.43-7.9-10.43-4.35 0-7.9 4.68-7.9 10.43 0 2.05.45 3.96 1.22 5.57.7 1.46 2.21 2.11 3.54 1.4 1.13-.59 1.28-2.47.67-3.73z" fill="#94d1e0"/><path d="m78.57 5.91c.02.06.6 1.56-.22 3-.83 1.47-2.55 1.24-2.55 1.24.85.94 1.42 2.52 1.42 4.28h4.75c0-3.52-1.38-6.63-3.4-8.52z" fill="#2f7889"/><ellipse cx="91.08" cy="20.52" fill="#2f7889" rx="3.11" ry="3.47"/><path d="m92.53 17.67c-.43-.9-.72-2.02-.72-3.24 0-2.81 1.46-5.18 3.19-5.18s3.2 2.37 3.2 5.18h4.7c0-5.75-3.55-10.43-7.9-10.43s-7.9 4.68-7.9 10.43c0 2.05.45 3.96 1.22 5.57.7 1.46 2.21 2.11 3.54 1.4 1.13-.59 1.27-2.47.67-3.73z" fill="#94d1e0"/><path d="m99.54 5.91c.02.06.6 1.56-.22 3-.83 1.47-2.55 1.24-2.55 1.24.85.94 1.42 2.52 1.42 4.28l1.61.11s1.6.13 3.16.73c0 0 .54-6.05-3.42-9.36z" fill="#2f7889"/><g opacity=".9"><path d="m84.34 104.03h-68.87v-2.01h69.25c-.09 1.09-.38 2.01-.38 2.01z" fill="#4fc3f7"/><path d="m101.02 92.22h-85.55v-2.01h87.67c-.89 1.38-2.12 2.01-2.12 2.01z" fill="#4fc3f7"/><g fill="none" stroke="#4fc3f7" stroke-miterlimit="10" stroke-width="2.0063"><path d="m103.76 79.41h-88.29"/><path d="m103.76 67.59h-88.29"/><path d="m103.76 55.78h-88.29"/><path d="m103.76 43.97h-88.29"/><path d="m103.76 32.16h-88.29"/></g></g><g fill="#2f7889"><path d="m112.61 38.13-8.85-4.97v-2.02l8.89 4.99z" opacity=".75"/><path d="m112.61 49.94-8.85-4.96v-2.02l8.89 4.99z" opacity=".75"/><path d="m112.61 61.76-8.85-4.97v-2.02l8.89 4.99z" opacity=".75"/><path d="m112.61 73.57-8.85-4.97v-2.02l8.89 5z" opacity=".75"/><path d="m112.61 85.39-8.85-4.97v-2.02l8.89 4.99z" opacity=".75"/><path d="m112.61 97.2-8.85-4.97v-2.02l8.89 4.99z" opacity=".75"/><path d="m112.61 109.01-8.85-4.97v-2.02l8.89 5z" opacity=".75"/></g></svg>