<svg enable-background="new 0 0 128 128" viewBox="0 0 128 128" xmlns="http://www.w3.org/2000/svg"><path d="m116 4h-104c-4.4 0-8 3.6-8 8v104c0 4.4 3.6 8 8 8h104c4.4 0 8-3.6 8-8v-104c0-4.4-3.6-8-8-8z" fill="#f77e00"/><path d="m109.7 4h-98.2c-4.1 0-7.5 3.4-7.5 7.5v97.9c0 4.1 3.3 7.5 7.5 7.5h98.1c4.1 0 7.5-3.3 7.5-7.5v-97.9c.1-4.1-3.1-7.4-7.2-7.5-.1 0-.1 0-.2 0z" fill="#ff9800"/><path d="m63.6 109.2c-3.1 0-4.7-1.5-4.7-4.6v-21.4h-26.5c-1.9 0-3.4-.6-4.6-1.8s-1.8-2.7-1.8-4.6v-38.3c0-1.9.6-3.4 1.8-4.6s2.7-1.8 4.6-1.8h26.6v-8.2c0-3.1 1.6-4.6 4.7-4.6s4.6 1.5 4.6 4.6v8.2h17 10.6c1.9 0 3.4.6 4.6 1.8s1.8 2.7 1.8 4.6v38.3c0 1.9-.6 3.4-1.8 4.6s-2.7 1.8-4.6 1.8h-27.7v21.4c0 3-1.5 4.6-4.6 4.6zm-28.7-56.1h12 12.1v-12.2h-21.7c-1.6 0-2.4.8-2.4 2.4zm2.4 21.4h21.7v-13h-12.1-12v10.6c0 1.6.8 2.4 2.4 2.4zm30.9-21.4h12.2 12.3v-9.9c0-1.6-.8-2.4-2.4-2.4h-22.1zm0 21.4h22.2c1.6 0 2.4-.8 2.4-2.4v-10.6h-12.3-12.3z" fill="#fafafa"/><path d="m39.7 12.9c0-2.3-1.6-3-10.8-2.7-7.7.3-11.5 1.2-13.8 4s-2.9 8.5-3 15.3c0 4.8 0 9.3 2.5 9.3 3.4 0 3.4-7.9 6.2-12.3 5.4-8.7 18.9-10.6 18.9-13.6z" fill="#ffbd52" opacity=".75"/></svg>