<svg enable-background="new 0 0 128 128" viewBox="0 0 128 128" xmlns="http://www.w3.org/2000/svg" xmlns:xlink="http://www.w3.org/1999/xlink"><linearGradient id="a"><stop offset=".5993" stop-color="#ba8d68"/><stop offset="1" stop-color="#a47b62"/></linearGradient><linearGradient id="b" gradientUnits="userSpaceOnUse" x1="82.2091" x2="82.2091" xlink:href="#a" y1="51.9331" y2="90.4592"/><linearGradient id="c" gradientUnits="userSpaceOnUse" x1="45.7918" x2="45.7918" xlink:href="#a" y1="51.9331" y2="90.4592"/><linearGradient id="d" gradientUnits="userSpaceOnUse" x1="64.015" x2="64.015" y1="43.571" y2="76.9683"><stop offset="0" stop-color="#00bfa5"/><stop offset=".7047" stop-color="#00b29a"/><stop offset="1" stop-color="#00ab94"/></linearGradient><radialGradient id="e" cx="64.0008" cy="20.887" gradientTransform="matrix(1 0 0 1.1282 0 -.8431)" gradientUnits="userSpaceOnUse" r="16.3617"><stop offset=".7945" stop-color="#6d4c41" stop-opacity="0"/><stop offset="1" stop-color="#6d4c41"/></radialGradient><path d="m86.56 90.88c-.18 0-.34-.05-.46-.14-.53-.4-.44-2.61-.41-3.34.04-1-.53-2.23-1.08-2.81-.28-.29-.58-.44-.88-.44h-.04l-.11.01-.13.04c-.67.15-.68.98-.69 1.79-.01.56-.02 1.18-.2 1.71-.1.3-.47.31-.54.31-.44 0-.92-.28-.94-.9 0-.08-.02-.18-.06-.33-.07-.35-.23-1.07-.15-2.54.1-1.76.31-3.77 1.11-5.38l.1-.19-5.36-19.3-2.1-6.87c.76-.4 2.6-1.25 4.45-1.25 2.15 0 3.66 1.14 4.5 3.38 1.38 3.6 2.23 7.95 2.68 13.7.35 4.42.94 8.1 1.21 8.96.08.25.24.76.24.76.31 1.01.43 1.39 1.72 4.1.68 1.43.41 2.87.09 4.54-.11.56-.21 1.12-.29 1.7-.19 1.27-1.67 2.49-2.66 2.49z" fill="url(#b)"/><path d="m41.44 90.88c-.99 0-2.47-1.23-2.64-2.48-.08-.59-.19-1.16-.29-1.7-.32-1.67-.59-3.12.08-4.55 1.28-2.69 1.41-3.1 1.71-4.07.07-.22.14-.47.25-.78.27-.81.86-4.47 1.22-8.96.46-5.76 1.31-10.11 2.67-13.69.85-2.24 2.37-3.37 4.51-3.37 1.86 0 3.7.85 4.45 1.24l-2.1 6.85-5.36 19.31.1.19c.81 1.61 1.01 3.62 1.11 5.38.07 1.47-.08 2.19-.16 2.54-.03.15-.05.25-.05.33-.03.62-.51.9-.94.9-.28 0-.48-.11-.54-.31-.18-.52-.19-1.15-.2-1.7-.01-.81-.03-1.65-.77-1.82 0 0-.18-.02-.18-.02-.33 0-.62.15-.91.44-.55.57-1.12 1.81-1.08 2.8.03.73.12 2.94-.42 3.35-.12.08-.28.12-.46.12z" fill="url(#c)"/><path d="m70.72 121.41-5.15-35.06c-.15-.76-.81-1.27-1.56-1.27s-1.41.51-1.55 1.22l-5.17 35.11-6.2.24-1.03-46.03h27.88l-1.02 46.03z" fill="#7c7c7c"/><path d="m74.02 124h4.45c.82-.02 1.41-.96 1.17-1.78-.74-2.49-2.99-4.32-5.62-4.32-2.68 0-4.96 1.9-5.66 4.46-.22.82.39 1.63 1.21 1.63h4.45z" fill="#424242"/><path d="m53.98 124h-4.45c-.82-.02-1.41-.96-1.17-1.78.74-2.49 2.99-4.32 5.62-4.32 2.68 0 4.96 1.9 5.66 4.46.22.82-.39 1.63-1.21 1.63h-4.45z" fill="#424242"/><path d="m73.67 44.87c-2.41-.64-5.58-1.06-9.54-1.06h-.08-.08c-3.96 0-7.18.42-9.57 1.06-7.55 2.01-9.46 6.56-11.71 12.65l7.37 3.2v17.28h28v-17.28l7.28-3.2c-2.25-6.09-4.12-10.64-11.67-12.65z" fill="url(#d)"/><path d="m64 40.72h-5v5.3c0 2.4 2.03 4.34 4.54 4.34h.91c2.51 0 4.54-1.94 4.54-4.34v-5.3z" fill="#99674f"/><path d="m75.97 24.34h-3.23-17.48-3.23c-2.58 0-4.69 2.25-4.69 5s2.11 5 4.69 5h3.23 17.49 3.23c2.58 0 4.69-2.25 4.69-5s-2.11-5-4.7-5z" fill="#99674f"/><path d="m64 6.66c-7.62 0-14.69 8.15-14.69 19.89 0 11.67 7.28 17.44 14.69 17.44s14.69-5.77 14.69-17.44c0-11.74-7.07-19.89-14.69-19.89z" fill="#ba8d68"/><path d="m64.01 4.01c-.01 0-.01 0-.01 0-19.47.1-15.48 22.34-15.48 22.34s1.05 3.85 1.05 3.77c0 0 2.31-8.61 3.19-10.95.44-1.18 1.67-1.87 2.91-1.64 1.91.34 4.95.77 8.3.77h.04.04c3.35 0 6.39-.43 8.3-.77 1.24-.23 2.47.46 2.91 1.64.88 2.34 3.18 10.95 3.18 10.95 0 .08 1.06-3.77 1.06-3.77s3.98-22.24-15.49-22.34z" fill="#543930"/><path d="m79.49 26.35s3.99-22.24-15.48-22.34 0 0-.01 0 0 0-.01 0c-.3 0-.6.01-.89.02-.58.03-1.14.07-1.68.13-.01 0-.01 0-.02 0-.04.01-.08.01-.11.01-16.38 2.07-12.78 22.18-12.78 22.18s1.05 3.85 1.05 3.77c0 0 2.31-8.61 3.19-10.95.44-1.18 1.67-1.87 2.91-1.64 1.91.34 4.95.77 8.3.77h.04.04c3.35 0 6.39-.43 8.3-.77 1.24-.23 2.47.46 2.91 1.64.88 2.34 3.18 10.95 3.18 10.95-.01.08 1.06-3.77 1.06-3.77z" fill="url(#e)"/><path d="m67.69 35.99c-1.4.83-5.97.83-7.37 0-.8-.48-1.62.25-1.29.98.33.72 2.82 2.38 4.98 2.38s4.62-1.66 4.95-2.38c.34-.73-.47-1.46-1.27-.98z" fill="#5d4037"/><path d="m65.69 32.4c-.05-.02-.09-.03-.14-.04h-3.1c-.05.01-.1.02-.14.04-.28.11-.44.4-.3.72s.75 1.18 1.99 1.18 1.86-.87 1.99-1.18c.14-.31-.02-.6-.3-.72z" fill="#99674f"/><ellipse cx="56.8" cy="28.33" fill="#49362e" rx="2.16" ry="2.24"/><ellipse cx="71.2" cy="28.33" fill="#49362e" rx="2.16" ry="2.24"/><g fill="#613e31"><path d="m68 24.32c.41-.54 1.36-1.34 3.21-1.34s2.8.79 3.21 1.34c.18.24.14.52.01.69-.12.16-.46.3-.84.17s-1.13-.51-2.37-.52c-1.25.01-1.99.39-2.37.52s-.73-.01-.84-.17c-.15-.18-.19-.45-.01-.69z"/><path d="m53.59 24.32c.41-.54 1.36-1.34 3.21-1.34s2.8.79 3.21 1.34c.18.24.14.52.01.69-.12.16-.46.3-.84.17s-1.13-.51-2.37-.52c-1.25.01-1.99.39-2.37.52s-.73-.01-.84-.17c-.15-.18-.19-.45-.01-.69z"/></g></svg>