<svg enable-background="new 0 0 128 128" viewBox="0 0 128 128" xmlns="http://www.w3.org/2000/svg" xmlns:xlink="http://www.w3.org/1999/xlink"><linearGradient id="a" gradientTransform="matrix(-.7071 -.7071 -.7071 .7071 153.3439 56.6399)" gradientUnits="userSpaceOnUse" x1="58.7002" x2="58.7002" y1="72.5945" y2="40.2974"><stop offset=".5456" stop-color="#fdd835"/><stop offset=".8933" stop-color="#f9a825"/></linearGradient><linearGradient id="b"><stop offset="0" stop-color="#5d4037" stop-opacity="0"/><stop offset="1" stop-color="#5d4037"/></linearGradient><linearGradient id="c" gradientUnits="userSpaceOnUse" x1="74.4437" x2="75.653" xlink:href="#b" y1="51.8117" y2="50.5094"/><linearGradient id="d" gradientUnits="userSpaceOnUse" x1="55.6176" x2="56.827" xlink:href="#b" y1="32.9857" y2="31.6834"/><linearGradient id="e" gradientUnits="userSpaceOnUse" x1="46.1934" x2="47.4178" xlink:href="#b" y1="23.5841" y2="22.2655"/><linearGradient id="f" gradientUnits="userSpaceOnUse" x1="93.2697" x2="94.479" xlink:href="#b" y1="70.6378" y2="69.3354"/><linearGradient id="g" gradientUnits="userSpaceOnUse" x1="112.095" x2="113.3043" xlink:href="#b" y1="89.4631" y2="88.1608"/><linearGradient id="h" gradientUnits="userSpaceOnUse" x1="65.0194" x2="66.2438" xlink:href="#b" y1="42.4101" y2="41.0915"/><linearGradient id="i" gradientUnits="userSpaceOnUse" x1="83.8473" x2="85.0717" xlink:href="#b" y1="61.238" y2="59.9195"/><linearGradient id="j" gradientUnits="userSpaceOnUse" x1="102.6715" x2="103.8959" xlink:href="#b" y1="80.0622" y2="78.7436"/><linearGradient id="k" gradientUnits="userSpaceOnUse" x1="36.7916" x2="38.0009" xlink:href="#b" y1="14.1597" y2="12.8573"/><path d="m31.22 4.78 92.16 92.16c.87.87.87 2.29 0 3.17l-21.84 21.84c-.87.87-2.29.87-3.17 0l-92.16-92.16c-.87-.87-.87-2.29 0-3.17l21.84-21.84c.87-.88 2.29-.88 3.17 0z" fill="#eaa700"/><path d="m31.22 4.78 88.04 88.04c.87.87-19.07 19.47-19.95 20.34l1.01 9.41s-1.08.25-1.95-.63l-92.16-92.15c-.87-.87-.87-2.29 0-3.17l21.84-21.84c.87-.88 2.29-.88 3.17 0z" fill="#bf8400"/><path d="m31.22 4.78 89.69 89.69c.87.87 2.86 2.86 2.86 2.86s-2.7.14-5.99 3.42-16.4 16.4-16.4 16.4c-.87.87-2.29.87-3.17 0l-89.69-89.68c-.87-.87-.87-2.29 0-3.17l19.53-19.52c.87-.88 2.29-.88 3.17 0z" fill="url(#a)"/><path d="m72.17 56.85c-.31.31-.81.31-1.12 0l-1.71-1.71c-.31-.31-.31-.81 0-1.12l5.14-5.14 2.83 2.83z" fill="#795548"/><path d="m77.73 51.29-1.99 1.99-2.83-2.83 1.99-1.99z" fill="url(#c)"/><path d="m53.34 38.02c-.31.31-.81.31-1.12 0l-1.71-1.71c-.31-.31-.31-.81 0-1.12l5.14-5.14 2.83 2.83z" fill="#795548"/><path d="m58.9 32.46-1.99 1.99-2.83-2.82 1.99-2z" fill="url(#d)"/><path d="m41.32 31.92c-.31.31-.81.31-1.12 0l-2.42-2.42c-.31-.31-.31-.81 0-1.12l8.52-8.52 3.54 3.54z" fill="#795548"/><path d="m49.84 23.4-1.99 1.99-3.54-3.53 2-1.99z" fill="url(#e)"/><path d="m91 75.67c-.31.31-.81.31-1.12 0l-1.71-1.71c-.31-.31-.31-.81 0-1.12l5.14-5.14 2.83 2.83z" fill="#795548"/><path d="m96.55 70.11-1.99 2-2.83-2.83 2-1.99z" fill="url(#f)"/><path d="m109.82 94.5c-.31.31-.81.31-1.12 0l-1.71-1.71c-.31-.31-.31-.81 0-1.12l5.14-5.14 2.83 2.83z" fill="#795548"/><path d="m115.38 88.94-1.99 1.99-2.83-2.83 1.99-1.99z" fill="url(#g)"/><path d="m60.15 50.75c-.31.31-.81.31-1.12 0l-2.42-2.42c-.31-.31-.31-.81 0-1.12l8.52-8.52 3.54 3.54z" fill="#795548"/><path d="m68.67 42.23-1.99 1.99-3.54-3.53 1.99-2z" fill="url(#h)"/><path d="m78.98 69.57c-.31.31-.81.31-1.12 0l-2.42-2.42c-.31-.31-.31-.81 0-1.12l8.52-8.52 3.54 3.54z" fill="#795548"/><path d="m87.5 61.06-2 1.99-3.53-3.54 1.99-1.99z" fill="url(#i)"/><path d="m97.8 88.4c-.31.31-.81.31-1.12 0l-2.42-2.42c-.31-.31-.31-.81 0-1.12l8.52-8.52 3.54 3.54z" fill="#795548"/><path d="m106.32 79.88-1.99 1.99-3.54-3.53 1.99-1.99z" fill="url(#j)"/><path d="m34.52 19.19c-.31.31-.81.31-1.12 0l-1.71-1.71c-.31-.31-.31-.81 0-1.12l5.14-5.14 2.83 2.83z" fill="#795548"/><path d="m40.08 13.64-2 1.99-2.82-2.83 1.99-1.99z" fill="url(#k)"/><path d="m34.52 19.19c-.31.31-.81.31-1.12 0l-1.71-1.71c-.31-.31-.31-.81 0-1.12l5.14-5.14 2.83 2.83z" fill="#795548"/><path d="m40.08 13.64-2 1.99-2.82-2.83 1.99-1.99z" fill="url(#k)"/></svg>