<svg enable-background="new 0 0 128 128" viewBox="0 0 128 128" xmlns="http://www.w3.org/2000/svg" xmlns:xlink="http://www.w3.org/1999/xlink"><clipPath id="a"><path d="m97.7 75.3c3.6 3.7 6.4 9.1 4.7 17.1-.7 3.3-6.8 21.8-20.3 27.9-15.2 6.8-43.7 5.4-50.7-24-4.3-17.9-2-19.2-6-38.4-.8-4.1-3.7-22.7-4.4-27.7-1-7.6 8.9-9.8 11.5-3.1 1.1 2.8 9.5 27.3 9.8 28.4 1.9-11.1 7-13.9 12.4-13.7 4 .1 6.5 2.1 7.7 4.2 2.1-3.5 5.8-4.8 9.8-4.1 3.4.6 7.2 3.2 8.8 8.2.2-1.5 7.2-35.7 8.3-39.4 2.8-9 14.2-7.1 13.3 2.8-1.6 17.6-3.3 43.4-4.9 61.8z"/></clipPath><clipPath id="b"><path d="m97.7 75.3c3.6 3.7 6.4 9.1 4.7 17.1-.7 3.3-6.8 21.8-20.3 27.9-15.2 6.8-43.7 5.4-50.7-24-4.3-17.9-2-19.2-6-38.4-.8-4.1-3.7-22.7-4.4-27.7-1-7.6 8.9-9.8 11.5-3.1 1.1 2.8 9.5 27.3 9.8 28.4 1.9-11.1 7-13.9 12.4-13.7 4 .1 6.5 2.1 7.7 4.2 2.1-3.5 5.8-4.8 9.8-4.1 3.4.6 7.2 3.2 8.8 8.2.2-1.5 7.2-35.7 8.3-39.4 2.8-9 14.2-7.1 13.3 2.8-1.6 17.6-3.3 43.4-4.9 61.8z"/></clipPath><path d="m97.7 75.3c3.6 3.7 6.4 9.1 4.7 17.1-.7 3.3-6.8 21.8-20.3 27.9-15.2 6.8-43.7 5.4-50.7-24-4.3-17.9-2-19.2-6-38.4-.8-4.1-3.7-22.7-4.4-27.7-1-7.6 8.9-9.8 11.5-3.1 1.1 2.8 9.5 27.3 9.8 28.4 1.9-11.1 7-13.9 12.4-13.7 4 .1 6.5 2.1 7.7 4.2 2.1-3.5 5.8-4.8 9.8-4.1 3.4.6 7.2 3.2 8.8 8.2.2-1.5 7.2-35.7 8.3-39.4 2.8-9 14.2-7.1 13.3 2.8-1.6 17.6-3.3 43.4-4.9 61.8z" fill="#ffca28"/><g clip-path="url(#a)" fill="#faa700"><path d="m80.3 50.4c0 3.5.3 4.9.6 9.7.8-.3 1.4-.9 1.6-1.9.3-1.9 9-43.6 9.6-46.4 1-5 6.8-6.1 8.5-1.6.8 2 3.2-2 2.6-2.9s-1.7-3.9-7-4.2c-9.6-.5-10 10.3-10.8 16.3s-5.1 29.2-5.1 31z"/><path d="m65.1 122.5c-20.3-2.6-28.2-15.7-30.9-27.9-3.1-13.8-2.8-24-5-32.8-.9-3.1-5.2-28.9-5.2-32.8 0-3.2 5.4-5.3 7.2-1.1 1.1 2.6 3.9.4 3.1-1.2s-2.8-5.1-7.5-4.8-7.4 4.4-7.5 6.2 12.2 85 12.2 85l19.3 11.7 14.2.3z"/><path d="m78 48.5c-1.4-3.2-9.3-8.2-14.5 0-.8 1.2-2 .6-2.2 0-1-3.5-9.3-8.1-14.4.7-1.5 2.6-1.6 8.3-1.5 9.6s-2.8 2.4-3.1.6-1.4-11.6-1.4-11.6l7.5-7.5 26.8-1.1 4.6 6.4z"/><path d="m84.5 90.5c-1.4-.4-8.4-4.8-9.3-6s-1.7-1.4-3.6-.9c-3.8 1-7.1 8.7-8 13.7-13.6-2.4-20.9-12.8-19-31.7 0 0 1.2 1 2.6 2.1 0-.4.1-4.3 1.9-.1.7 1.5 3.9 2.5 7 2.2-1.6 1.5-4.3 7.1-.9 10.6s0 0 0 0c1.7 1.8 4.2 2.4 4.5 2.5.4.1 1.4-.6.2-1.3-1.1-.6-.6-1.5.2-1.4 5.4.2 12.9-4.3 14.1-5 3.7-2.1 6.2.4 6.9 1.1s7.9 8.2 8.9 9.7c1.3 1.8-.4 6-5.5 4.5z"/></g><g clip-path="url(#b)"><path d="m107 99.6s-15.6 22.4-15.8 22.6c-.1.2-28.4 4.1-28.4 4.1s-22-9.1-22.7-9.4c-1.6-.7-1-3.3 2-1.9 16.1 7.7 29 7.7 39.6 2.3 7.1-4.2 10.9-9.6 13.8-14.6 5-8.6 5.4-16.8 2.7-21.5s-13.4-13-16.9-15.8c-2-1.6-5.2-1.6-8-.5-2.7 1.1-13.8 5.1-16 6-4 1.7-2.7 9.9 2 10.7 7.2 1.2 14.9.3 18.1-3.2.3-.3 1.1-.1.9.6-.5 2.3-3 3.8-3 3.8 1.8 2 3.5 3.6 5.2 4.7 2.9 1.9 5.5 1.5 5.7 1.5.6 0 1.1.5.5 1-4.2 3.7-12.5-3-13.7-5.4-.2-.5-.9-.5-1.4-.1-.7.5-7.8 8.2-8.4 20.6 0 .4-.4.8-.7.2-2.7-5 2.8-18 4.2-20-6.2.4-10-1.1-12.2-3.3-9-.6-9-11.4-9.5-15-5-6.2-4.6-10.4-5.2-11.8-.9-2.5-8.5-26-9-27.7s-2.6-5-6.4-4.2c-1.5.3-2-2.1-.6-2.4 1.5-.4 9.2-2.2 10.9 3.4s7.6 31.2 7.6 31.2-.1 2.5 1.2 4c-.1-1.4 0-2.1.1-2.4.3-1.1 1.7-1 1.8.3.2 5.1 2 9.5 2.1 10.7.4 2.9.4 5.3 1.2 7.3.7 1.7 2.1 2.9 3.8 3.5-1.5-4.4.8-9.7 3.9-10.6 2.5-.8 4.5-1.5 6.3-2.2.3-7.9-.6-18.6-4.4-22.3-.9-.9.1-1.8.3-2 1.4.7 3.9.6 3.8 4.2 1.8 3.1 2.8 11.4 2.9 19 4.5-2 7.1-3.4 11.9-3.4.6 0 1.2 0 2.1.1 0-.6 0-1 0-1.6 0-3-.2-11.6-4.2-16.3-.4-.5.1-1.6.3-1.7 1.5.3 5.4 1.6 5.6 8 1.1 3.9 1.1 7.8.9 12.4.9.6 1.5 1 2.2 1.5 4.7 3.4 8.4 6.5 10.8 8.6.5-8.6 1.2-19.7 1.5-22.6.3-3.2 3.6-32.2 3.9-37.1s-1.4-7.5-2.5-8.5l4-3.5 7.7 4.3s-9.6 68-9.8 70.4l2.4.4z" fill="#b55e19"/></g></svg>