<svg enable-background="new 0 0 128 128" viewBox="0 0 128 128" xmlns="http://www.w3.org/2000/svg"><path d="m107 52.3c0-5.39-.1-9.76-2.52-14.7-1.47-3.01-7.34-11.2-8.51-12.3h-62.6c-1.17 1.03-7.04 9.25-8.51 12.3-2.42 4.93-2.52 9.31-2.52 14.7 0 7.73.03 56.2-.01 57-.11 2.72 1.83 4.85 4.93 6.84 9.95 6.38 28.6 7.81 37.4 7.81s27.4-1.43 37.4-7.81c3.11-1.99 5.04-4.12 4.93-6.84-.03-.83 0-49.3 0-57z" fill="#9fe1ea" opacity=".8" stroke="#44aed1" stroke-opacity=".922" stroke-width="2"/><ellipse cx="64" cy="110" fill="#1492c4" opacity=".6" rx="35.9" ry="8.47"/><path d="m41 91.6c.64 8.18-8.75 11.5-11.3 3.32-.86-2.73-.43-5.67-.16-8.52.65-6.69.49-13.4-.46-20.1-.9-5.85-2.01-19.5 3.88-22.4 2.58-1.3 4.62-.67 6.57.32 2.85 1.66 3.18 5.58 3.1 8.87-.15 5.66-.76 11.3-1.2 16.9-.48 6.23-1.89 10.8-1.17 15.8.27 1.92.69 3.85.78 5.77z" fill="#fff" opacity=".8"/><path d="m33 25.1c-1.1 1.96-3.96 3.41-1.97 4.71 4.28 2.65 21.8 11.9 51.8 7.23 19.6-3.01 14.7-8.85 14.7-8.85l-2.82-4.33-59.7 1.21z" fill="#1492c4" opacity=".6"/><path d="m99.8 12.1h-71.6s-.82 2.18-.77 5.9c.07 6.72 1.94 7.26 4.36 8.4 5.89 2.77 17.1 4.68 32.2 4.68s26.3-1.9 32.2-4.68c2.42-1.14 4.29-1.68 4.36-8.4.04-3.72-.67-5.9-.67-5.9z" fill="#e2a610"/><ellipse cx="64" cy="12.5" fill="#9e740b" rx="35.9" ry="8.47"/><path d="m40.9 20.9c5.35.65 6.23.65 6.72 2.27.22.75.05 1.63-.53 2.14-2.79 2.46-9.47 1.28-12.2-.8-.98-.74-2.23-2.74-.71-4.09 1.43-1.26 4.5.21 6.75.48z" fill="#ffe36c"/></svg>