<svg enable-background="new 0 0 128 128" viewBox="0 0 128 128" xmlns="http://www.w3.org/2000/svg" xmlns:xlink="http://www.w3.org/1999/xlink"><clipPath id="a"><path d="m101.2 103.1c-.8 1.6-2.8 5.2-12.9 7.3-11.1 2.2-6.6 9.9-24.2 11.1-17.7-1.1-13.2-8.8-24.2-11.1-10.1-2.1-12.2-5.7-12.9-7.3-6.4-12.7 9.4-25.5 10.5-26.1s1.3-1.3 1.6-2c4.9-11.4 8.2-42.9 10.5-56.2s14.4-12.4 14.4-12.4 12.1-.9 14.4 12.4 5.6 44.7 10.5 56.2c.3.7.6 1.4 1.6 2 1.1.6 16.9 13.4 10.7 26.1z"/></clipPath><clipPath id="b"><path d="m101.2 103.1c-.8 1.6-2.8 5.2-12.9 7.3-11.1 2.2-6.6 9.9-24.2 11.1-17.7-1.1-13.2-8.8-24.2-11.1-10.1-2.1-12.2-5.7-12.9-7.3-6.4-12.7 9.4-25.5 10.5-26.1s1.3-1.3 1.6-2c4.9-11.4 8.2-42.9 10.5-56.2s14.4-12.4 14.4-12.4 12.1-.9 14.4 12.4 5.6 44.7 10.5 56.2c.3.7.6 1.4 1.6 2 1.1.6 16.9 13.4 10.7 26.1z"/></clipPath><path d="m101.2 103.1c-.8 1.6-2.8 5.2-12.9 7.3-11.1 2.2-6.6 9.9-24.2 11.1-17.7-1.1-13.2-8.8-24.2-11.1-10.1-2.1-12.2-5.7-12.9-7.3-6.4-12.7 9.4-25.5 10.5-26.1s1.3-1.3 1.6-2c4.9-11.4 8.2-42.9 10.5-56.2s14.4-12.4 14.4-12.4 12.1-.9 14.4 12.4 5.6 44.7 10.5 56.2c.3.7.6 1.4 1.6 2 1.1.6 16.9 13.4 10.7 26.1z" fill="#ffca28"/><g clip-path="url(#a)" fill="#faa700"><path d="m50.5 11.9c1 1.4 1.2 4 1 5.8-1.2 19.3-5.3 54.8-5.6 57.3-1.1 8.8-7.4 11-9.1 7.8-3.6 1.9-9.9 12.1-6.5 16 2.4 2.8 7.1.5 9.7.5 9.4 0 13.9 11 24 11 10.2 0 14-10.8 23.2-11 6.6-.1 12.4 3.8 13.2-5.4.2-2.2 4.4-1.8 4.4-.3s.1 13.5.1 13.5l-37.3 17.2-19.9-2.9-25.5-17.9 2.3-17.4 12.2-15.7 11.9-57.9z"/><path d="m64.4 5.3c.3.8.7 2.4 2.2 2.8 4.5 1.1 8.1 4.2 9.7 14.4.7 4.1 1.5 23.4 5.3 50.1 2.3 16 9.8 11.8 11.2 8.3 1.6-4.1-8.3-66.8-8.3-66.8l-8.2-9.9z"/></g><g clip-path="url(#b)" fill="#b55e19"><path d="m42.8 55c.9.3 2.6.6 2.3 3.3s-1.9 14-2.3 15.9c-.6 3-3.9 5.8-7 2.7-1.9-1.8 7-21.9 7-21.9z"/><path d="m106.1 98.7-5 12.3-7.7 7.8-10.3 6.2-12.8.6-6.2.3-6.2-.3-12.8-.6-10.3-6.1-7.7-7.8-2.7-10.7c.5-.4 1.5-1.3 3 .5 1 1.2 2.7 4.7 6.7 5.7-.9-4.6 13-10.8 17.2 7.5 2.7 3.1 7.6 5.2 12.8 5.3 5.2-.1 10.1-2.1 12.8-5.3 3.8-16.6 15.5-13.1 17.1-8.9.2.4 6.3-1.5 6.2-7.5-.2-10-8.8-17-12-18.8-1.3-.7-2.5-2.2-2.8-3.7-.6-3.6-1.4-10.7-2.3-17.5-.2-1.6 1.3-2.6 2-2.7 3.8-.5 8.3-.2 10.3.8.2 2.1 10.7 42.5 10.7 42.9z"/></g></svg>