<svg enable-background="new 0 0 128 128" viewBox="0 0 128 128" xmlns="http://www.w3.org/2000/svg"><path d="m116 4h-104c-4.42 0-8 3.58-8 8v104c0 4.42 3.58 8 8 8h104c4.42 0 8-3.58 8-8v-104c0-4.42-3.58-8-8-8z" fill="#427687"/><path d="m121.7 6.3c-1.54-1.46-3.58-2.28-5.7-2.3h-104c-4.42 0-8 3.58-8 8v104c.02 2.12.84 4.16 2.3 5.7l16.8-16.8h76c3.26-.01 5.89-2.64 5.9-5.9v-76z" fill="#8cafbf"/><path d="m39.7 12.9c0-2.3-1.6-3-10.8-2.7-7.7.3-11.5 1.2-13.8 4s-2.9 8.5-3 15.3c0 4.8 0 9.3 2.5 9.3 3.4 0 3.4-7.9 6.2-12.3 5.4-8.7 18.9-10.6 18.9-13.6z" fill="#b4e1ed" opacity=".5"/><path d="m51.4 67.7-20.3-5.9c-.93-.23-1.49-1.17-1.26-2.09.02-.07.04-.14.06-.21l3.3-10c.3-.94 1.3-1.46 2.23-1.16.06.02.11.04.17.06l20 7.7c.95.37 2.01-.11 2.38-1.05.09-.24.13-.49.12-.75l-1-23.1c-.04-1 .73-1.85 1.74-1.9h.06 10.7c.97-.03 1.78.74 1.81 1.71 0 .06 0 .12-.01.19l-1 23.6c-.05 1.02.74 1.88 1.75 1.92.25.01.51-.03.75-.12l19.6-7.6c.95-.36 2 .12 2.36 1.07.02.04.03.09.04.13l3.2 10.2c.28.98-.28 2.01-1.26 2.29-.01 0-.02.01-.04.01l-20.7 5.9c-1.03.39-1.55 1.55-1.15 2.58.04.11.09.22.15.32l13.5 17.9c.59.83.41 1.98-.4 2.6l-8.6 6.3c-.87.61-2.08.39-2.69-.48 0-.01-.01-.01-.01-.02l-11.9-19.1c-.53-.86-1.65-1.12-2.5-.6-.24.15-.45.35-.6.6l-11.8 18.5c-.55.85-1.68 1.1-2.53.55-.02-.02-.05-.03-.07-.05l-8.7-6.1c-.81-.5-1.06-1.57-.56-2.38.05-.08.1-.15.16-.22l14-18.4c.57-.95.26-2.18-.68-2.75-.1-.06-.21-.11-.32-.15z" fill="#fafafa"/></svg>