<svg enable-background="new 0 0 128 128" viewBox="0 0 128 128" xmlns="http://www.w3.org/2000/svg"><path d="m44.57 73.85-24.73-2.21s-.09 2.85-.09 5.54c0 3.1.61 5.63.61 5.63s-15.07 3.71-16.34 15.25 21.4 26.33 55.47 25.9 54.9-13.66 56.03-25.76-18.16-14.92-18.16-14.92l.84-6.48s20.13-1.13 21.12-11.12-8.73-9.15-8.73-9.15 3.24 3.38 3.1 6.05-1.97 5.63-6.62 6.9-11.26 1.97-11.26 1.97z" fill="#bbced3"/><path d="m101.72 52.31-4.65 3.1.56 2.11s9.15-.84 12.81.56c3.66 1.41 7.18 7.32 7.18 7.32l4.36-5.91-15.35-8.59z" fill="#6aa5ac"/><path d="m40.2 95.2s-11.71-2.98-12.76-.47c-.75 1.78 4.25 7.18 7.79 9.95 3.47 2.72 12.18 7.79 23.37 7.79 12.2 0 19.99-4.5 24.59-7.98 3.92-2.96 7.88-9.39 6.95-10.42-.95-1.03-49.94 1.13-49.94 1.13z" fill="#6aa5ac"/><g fill="#e0e0e0"><path d="m21.01 86.42s-12.79 3.87-12.53 11.78c.28 8.63 16.89 20.93 51.34 20.84 34.44-.09 50.59-14.55 51.43-22.24.84-7.7-14.73-10.14-14.73-10.14s-4.32 24.78-36.8 25.34c-31.26.54-38.71-25.58-38.71-25.58z"/><path d="m96.61 47.9s8.4-.71 12.86-.19c5.63.66 14.45 4.88 14.27 14.92s-9.39 14.73-15.02 16.61c-4.09 1.36-14.36 1.78-14.36 1.78l1.03-6.19s8.63 0 12.95-1.6 8.54-5.26 8.63-10.7c.11-6.22-7.13-8.07-12.48-7.98s-10.42 1.31-10.42 1.31z"/><path d="m58.5 29.08c-25.76.65-39.84 11.83-40.26 19.85s1.7 30.29 4.65 37.73c3.24 8.17 12.53 22.1 37.73 21.12s32.38-15.06 34.49-23.79c1.54-6.37 4.79-30.23 3.94-36.32-.85-6.06-12.53-19.29-40.55-18.59z"/></g><g fill="#fff"><path d="m96.61 90.41c.08 1.27 3.65 2.06 2.82 6.01-.94 4.41-5.16 5.16-5.07 6.85.11 1.99 10.7.47 11.17-6.38.46-6.85-9.02-7.88-8.92-6.48z"/><path d="m20.59 91.73c1.12.98-1.02 2.28-1.78 4.32-1.13 3 3.28 7.7 8.63 10.32 3.77 1.85 9.32 3.5 9.2 5.26-.19 2.63-25.06-4.12-25.06-12.95 0-7.52 7.5-8.27 9.01-6.95z"/><path d="m23.5 62.91c-1.47 1.68-1 13.47 1.6 20.93 2.25 6.48 4.79 10.32 7.32 10.42 2.53.09-1.6-10.51-1.41-17.36s0-8.73-1.41-10.32c-1.41-1.6-4.79-5.17-6.1-3.67z"/></g><path d="m59.25 36.07c-17.17.24-35.19 7.32-34.82 16.52.38 9.2 18.3 14.08 35.57 14.17s32.94-7.04 33.04-14.64c.09-7.6-13.61-16.33-33.79-16.05z" fill="#6d4b41"/><path d="m28.75 50.71c0 3 4.22 4.17 7.04 4.32 3.57.19 6.19-.94 6.48-2.72.28-1.78-1.41-3.38.94-4.79s5.2-.6 8.73.47c4.04 1.22 10.42 5.44 13.89 3.75s-.28-4.6 1.31-5.73 5.16-1.13 10.14.66c4.97 1.78 9.48 4.88 11.17 3.57s-3.99-7.38-17.08-9.67c-11.83-2.06-24.93-.71-31.91 1.78-6.58 2.36-10.71 5.74-10.71 8.36z" fill="#b59075"/><path d="m70.42 54.94c-5.82 2.25-15.58-3.85-21.12-3.19-2.91.35-3.75 3.66-1.03 4.79s3.15-.97 6.57.28c4.48 1.65 13.79 3.45 16.99 2.25 4.42-1.66 3.85-3.94 5.54-4.22 2.8-.47 5.6 2.58 7.13.84 1.41-1.6-.02-3.48-4.69-5.16-3.66-1.31-6.5-1.64-7.32-.56-.94 1.21.78 3.86-2.07 4.97z" fill="#b59074"/><path d="m82.9 3.51c-.86 2.23 3.66 4.22.75 8.35-2.42 3.43-22.4-.93-30.69 9.29-7.23 8.92-1.31 18.4.38 21.12s5.44 7.04 8.26 6.29-1.5-10.98 6.38-16.14 19-5.23 23.93-11.64c3.75-4.88 1.41-12.11-2.16-15.77-2.59-2.67-5.91-3.95-6.85-1.5z" fill="#b8ced4" opacity=".4"/></svg>