<svg enable-background="new 0 0 128 128" viewBox="0 0 128 128" xmlns="http://www.w3.org/2000/svg" xmlns:xlink="http://www.w3.org/1999/xlink"><linearGradient id="a" gradientTransform="matrix(1 0 0 -1 0 127.8898)" gradientUnits="userSpaceOnUse" x1="54" x2="54" y1="34.1398" y2="30.1218"><stop offset="0" stop-color="#ff1744"/><stop offset="1" stop-color="#d50000"/></linearGradient><linearGradient id="b" gradientTransform="matrix(1 0 0 -1 0 127.8898)" gradientUnits="userSpaceOnUse" x1="54" x2="54" y1="26.1398" y2="22.1198"><stop offset="0" stop-color="#76ff03"/><stop offset="1" stop-color="#64dd17"/></linearGradient><path d="m32 80-12-16h-8c-4.42 0-8 3.58-8 8v44c0 4.42 3.58 8 8 8h8l12-16h20v-28z" fill="#595858"/><path d="m16 64h3v60h-3z" fill="#3a3a3a"/><path d="m121.11 73.45-5.11 2.55h-16v12h16l5.11 2.55c1.33.66 2.89-.3 2.89-1.79v-13.52c0-1.49-1.56-2.46-2.89-1.79z" fill="#595858"/><path d="m64 48h28v28h-28z" fill="#3f3f3f"/><path d="m31.5 80h3v28h-3z" fill="#787676" opacity=".5"/><path d="m40.75 80h3v28h-3z" fill="#3a3a3a"/><g fill="#504f4f"><circle cx="48" cy="36" r="32"/><circle cx="101" cy="46" r="22"/><path d="m104 120h-52c-4.42 0-8-3.58-8-8v-36c0-4.42 3.58-8 8-8h52c4.42 0 8 3.58 8 8v36c0 4.42-3.58 8-8 8z"/></g><path d="m54 94c1.1 0 2 .9 2 2s-.9 2-2 2-2-.9-2-2 .9-2 2-2m0-2c-2.21 0-4 1.79-4 4s1.79 4 4 4 4-1.79 4-4-1.79-4-4-4z" fill="#3a3a3a"/><path d="m54 102c1.1 0 2 .9 2 2s-.9 2-2 2-2-.9-2-2 .9-2 2-2m0-2c-2.21 0-4 1.79-4 4s1.79 4 4 4 4-1.79 4-4-1.79-4-4-4z" fill="#3a3a3a"/><path d="m64 107c-1.65 0-3-1.35-3-3v-8c0-1.65 1.35-3 3-3h32c1.65 0 3 1.35 3 3v8c0 1.65-1.35 3-3 3z" fill="#504f4f"/><path d="m96 94.5c.83 0 1.5.67 1.5 1.5v8c0 .83-.67 1.5-1.5 1.5h-32c-.83 0-1.5-.67-1.5-1.5v-8c0-.83.67-1.5 1.5-1.5zm0-3h-32c-2.48 0-4.5 2.02-4.5 4.5v8c0 2.48 2.02 4.5 4.5 4.5h32c2.48 0 4.5-2.02 4.5-4.5v-8c0-2.48-2.02-4.5-4.5-4.5z" fill="#3a3a3a"/><circle cx="48" cy="36" fill="#504f4f" r="22.5"/><path d="m48 15c11.58 0 21 9.42 21 21s-9.42 21-21 21-21-9.42-21-21 9.42-21 21-21m0-3c-13.25 0-24 10.75-24 24s10.75 24 24 24 24-10.75 24-24-10.75-24-24-24z" fill="#3a3a3a"/><circle cx="101" cy="46" fill="#504f4f" r="12.5"/><path d="m101 35c6.07 0 11 4.93 11 11s-4.93 11-11 11-11-4.93-11-11 4.93-11 11-11m0-3c-7.73 0-14 6.27-14 14s6.27 14 14 14 14-6.27 14-14-6.27-14-14-14z" fill="#3a3a3a"/><circle cx="48" cy="36" fill="#636262" r="8"/><circle cx="101" cy="46" fill="#636262" r="8"/><circle cx="54" cy="96" fill="url(#a)" r="2"/><circle cx="54" cy="104" fill="url(#b)" r="2"/></svg>