<svg enable-background="new 0 0 128 128" viewBox="0 0 128 128" xmlns="http://www.w3.org/2000/svg"><path d="m114.66 61.1c-.6-1.4-2.3-3.1-4.4-4-3.8-1.5-9.7-2.7-16.7 2.9l-.8-32.2c0-3.4-1.2-6.5-3.6-8.3-4.9-3.8-9.5-2.5-12.2-1-2.34 1.3-2.58 2.23-2.6 2.45.01-.37.1-2.82.1-4.85 0-2.2-.2-12.1-10.5-12.1s-10.4 9.4-10.4 11.8v4.9s-1.1-1.6-3.1-2.5-7.1-2.2-11.6 1.4c-2.4 1.8-3.6 4.9-3.6 8.3l-.8 32.2c-7-5.6-12.9-4.4-16.7-2.9-2.1.8-3.9 2.9-4.4 4s-.6 2.6.7 3.1c3.3 1.5 9.3 6 12.4 17.4 2.4 9.3 4.7 42.3 37.4 42.3s35.19-32.97 37.59-42.27c3-11.5 8.91-15.94 12.21-17.44.54-.27.88-.6 1.08-.94.59-1.05-.08-2.25-.08-2.25z" fill="#1851ed"/><path d="m64.16 75.3c14.4 0 20.5 13.05 20.5 13.05s-7 12.95-20.5 12.95-20.5-12.95-20.5-12.95 6.2-13.05 20.5-13.05" fill="#f5f5f5"/><circle cx="64.16" cy="88.3" fill="#5ac7f0" r="11.9"/><circle cx="64.16" cy="88.3" fill="#212121" r="5.5"/><path d="m59.56 79.6c.6.2.9 1 .8 1.6s-.5 1.2-.9 1.7c-.4.6-.9 1.1-1.4 1.6-.3.3-.6.6-1 .5-.4 0-.7-.5-.8-.8-.6-1.8.7-5.5 3.2-4.7z" fill="#fff"/><g fill="#00cfff"><path d="m43.96 20.6c-.3-.7-1-.5-1.6-.2-1.9.9-4.4 2.9-4.4 9v7.8c0 1.4.16 2.48 1.2 1.6.91-.76 2.5-2.6 2.5-9.2s.2-6 1.4-7.4c.2-.2 1.1-1.1.9-1.6z" opacity=".55"/><path d="m64.46 6.5c-1.9-.2-3.4.4-4.7 1.3-1.4 1.1-2.4 3-2.6 5.3-.1 1.5 0 5.7.2 8.4 0 .4.3 1 1 1s.9-.6.9-1c.7-5.7 1.2-8.8 2.1-10.2s2.9-2.4 3.6-2.8c.3-.1.7-.2.7-.9s-.5-1-1.3-1.1z" opacity=".55"/><path d="m34.06 63.3c-2.7-4.4-6.7-6.1-11.6-5-.4 0-.7.4-.7.8 0 .3.2.6.7.7 1.2.2 3.4.6 5.6 1.5 2.5 1 4.1 2.3 5 3 .2.2.68.38 1.1 0 .33-.3-.1-1-.1-1z" opacity=".55"/></g><path d="m111.36 65.42c-3.41 1.6-6.08 4.45-7.53 7.92-.68 1.64-1.3 3.54-1.88 5.76-2.5 9.2-5.1 40.8-37.8 40.8s-35.3-31.6-37.8-40.8c-1.7-6.5-3.7-10.3-6.8-12.6-3-2.2-4.61-1.65-6.51-3.45 0 0 .2 2.2.2 3.3s2.21 2.05 3.71 3.15c2.3 1.7 7.4 6 9.7 15.2s4.7 39.3 37.4 39.4c32.7 0 35.2-30.5 37.4-39.4 2.2-8.8 7.4-13.5 9.7-15.2 1.5-1.1 3.61-2.13 3.61-3.23s.2-3.68.2-3.68c-.07.96-1.93 2.05-3.6 2.83z" fill="#093068"/><path d="m74.36 21s0-.02 0-.05z" fill="#1851ed"/><g fill="#002691"><path d="m49.7 17.9.09.03c-.02-.01-.05-.02-.09-.03z" opacity=".77"/><path d="m48.83 17.63c.01 0 .02 0 .03.01-.02 0-.03 0-.03-.01z" opacity=".77"/><path d="m93.56 60-.06-2.58z" opacity=".77"/><path d="m34.53 57.38-.08 2.71.01.01z" opacity=".77"/></g><g fill="#1851ed"><path d="m49.8 17.94c.25.09.47.18.66.26-.19-.09-.42-.18-.66-.26z"/><path d="m48.85 17.64c.31.08.59.17.85.26-.25-.09-.54-.18-.85-.26z"/><path d="m46.62 17.26c.81.07 1.56.21 2.21.38-.65-.18-1.4-.32-2.21-.38z"/><path d="m74.36 21s0-.02 0-.05z"/></g><path d="m39.06 69.8.5 4.4 2.9-3.4s7.6-8.6 21.5-8.6 20.6 7.2 20.6 7.2l2.3 2.6 1-3.4s2.1-5.09 5.7-8.59v-.01l-.06-2.58-.06-2.32c-4.28 2.49-7.05 6.56-8.26 9.56-1.69-1.26-4.29-2.85-7.82-4.14-.03-8.08-.16-34.9.2-36.73.4-2 1-3.9 2.5-5.3.56-.47 1.97-1.38 2.13-1.49-2.08.05-3.89.74-5.23 1.49-2.34 1.3-2.58 2.23-2.6 2.45v.05s0-.02 0-.05c0-.08.01-.26.02-.52-.54.8-.82 2.05-.82 5.77v33.19c-2.75-.66-5.91-1.09-9.5-1.09-3.39 0-6.42.44-9.1 1.13 0-8.29.02-28.37 0-33.23-.02-4.42-1.4-5.5-1.4-5.5s-1.1-1.6-3.1-2.5c-.19-.09-.42-.18-.66-.26-.03-.01-.06-.02-.09-.03-.26-.09-.54-.18-.85-.26-.01 0-.02 0-.03-.01-.65-.17-1.4-.31-2.21-.38.45.28 1.4.87 1.85 1.24 1.5 1.4 2.1 3.3 2.5 5.3.37 1.84.23 28.94.2 36.85-4.03 1.56-7.02 3.59-9 5.15-1-3.2-2.73-6.1-7.63-8.5v.09l-.07 2.72s0 0-.01-.01c3.49 4.2 4.6 9.71 4.6 9.71z" fill="#002691" opacity=".77"/><path d="m63.96 72.3h.1.1z" fill="#002691" opacity=".77"/><path d="m64.16 102.9c-.03 0-.07 0-.1 0s-.07 0-.1 0z" fill="#f5f5f5"/><path d="m64.16 102.9c-.03 0-.07 0-.1 0s-.07 0-.1 0z" fill="#002691" opacity=".77"/><path d="m64.16 75.3c14.4 0 20.5 13.05 20.5 13.05s-7 12.95-20.5 12.95-20.5-12.95-20.5-12.95 6.2-13.05 20.5-13.05m0-3c-16.1 0-23 14.2-23.3 14.8l-.7 1.25.7 1.55c.3.6 8 14.6 23.2 14.6s22.9-14.05 23.2-14.65l.7-1.5-.7-1.25c-.3-.6-7.2-14.8-23.3-14.8z" fill="#002691" opacity=".77"/><path d="m64.16 101.3c-13.5 0-20.5-12.95-20.5-12.95h-3.5l.7 1.55c.3.6 8 14.5 23.2 14.5s22.9-13.95 23.2-14.55l.7-1.5h-3.3s-7.1 13.05-20.6 13.05z" fill="#093068"/></svg>