<svg enable-background="new 0 0 128 128" viewBox="0 0 128 128" xmlns="http://www.w3.org/2000/svg"><path d="m52.44 15.53c4.95-.79 7.44 3.62 9.93 4.71 4.26 1.87 7.49.71 7.76 1.95.39 1.81-8 7.36-12.97 6.06-2.96-.77-3.19-2.46-5.04-3.47-2.98-1.63-5.32.25-5.32.25s.2-3.37.6-4.73c.6-2.05 2.65-4.39 5.04-4.77z" fill="#62453b"/><path d="m61.5 58.26-6.05-2.16s-4.96 2.99-4.51 6.83 3.97 9.02 5.12 10.82 6.85 10.56 6.85 10.56l5.18-2.11.77-14.08s-7.36-9.86-7.36-9.86z" fill="#f0a007"/><path d="m66.93 81.37-4.34 2.71s.9 1.52 1.21 2.03 1.14 2.14 1.14 2.14l1.17 2.25-.83 1.73.06 2.24 2.94 2.62 2.82-5.89-4.16-9.84z" fill="#858585"/><path d="m67.32 88.01-2.42.22s.29 1.27.37 2.21 0 2.13 0 2.13l3.91-.28-1.86-4.29z" fill="#583ee2"/><path d="m27.03 56.04s5.75-3.03 7.97-3.93c3.15-1.28 5.31-1.48 5.31-1.48l1.08 9.64s-14.36-4.23-14.36-4.23z" fill="#f09e00"/><path d="m106.54 102.63c.96-2.53.91-6.2-2.56-7.69s-6.57.38-7.55 2.19-1.5 6.3 2.03 8.15 7.03.15 8.08-2.65z" fill="#9a9a9a"/><path d="m100.58 123.24c-12.84 0-23.28-10.43-23.28-23.25s10.44-23.24 23.28-23.24 23.28 10.43 23.28 23.24-10.44 23.25-23.28 23.25zm0-42.17c-10.46 0-18.96 8.49-18.96 18.92s8.51 18.93 18.96 18.93 18.96-8.49 18.96-18.93-8.51-18.92-18.96-18.92z" fill="#606265"/><path d="m27.51 124.24c-12.88 0-23.37-10.5-23.37-23.4s10.48-23.4 23.37-23.4 23.37 10.5 23.37 23.4-10.48 23.4-23.37 23.4zm0-42.48c-10.5 0-19.04 8.56-19.04 19.07s8.54 19.07 19.04 19.07 19.04-8.56 19.04-19.07-8.54-19.07-19.04-19.07z" fill="#606265"/><path d="m25.3 104.61c2.36 1.42 5.3.57 6.52-1.8 1.23-2.36.72-4.91-1.72-6.34s-5.03-.37-6.22 1.71c-1.08 1.87-1.09 4.93 1.42 6.43z" fill="#9a9a9a"/><path d="m102.07 94.03c-1.23-1.89-16.06-23.28-16.06-23.28l3.69-10.31s3.5-1.13 3.5-3.4-4.92-3.03-4.92-3.03l-7.09 17.4s-12.77-1.04-20.99-1.99c-8.23-.95-13.62-1.42-14.66-1.8s-.54-1.19-.16-2.8 1.77-4.96 1.77-4.96l-4.44-1.61s-15.22 37.45-15.79 38.96-1.89 4.16 0 5.11c1.6.8 2.93-.66 3.97-3.22 1.04-2.55 9.93-22.79 9.93-22.79l23.26 24.21 13.81 3.31s17.28-.1 19.65-.1 4.44-.66 5.6-2.73c1.46-2.59.17-5.1-1.06-6.99zm-35.35.55-21.75-22.98 33 3.03-6.81 21.09-4.44-1.13zm30.85 5.13c-1.04.09-19.5.17-19.5.17l-2.84-1.04s8.61-23.74 8.79-23.74c0 0 14.59 20.27 15.21 21.52.34.67.4 1.5.04 2.09s-1.18.95-1.7 1z" fill="#b0b0b0"/><path d="m34.37 56.58s-2.41-.97-5.8-1.01c-2.83-.03-4.8.76-5.25.56-.96-.43-2.68-1.51-3.74-1.82-.97-.28-2.52 1.26-2.17 2.37.25.77 2.02 2.62 2.02 3.08s-2.57 6.16.35 10.9c2.93 4.74 10.8 4.59 11.51 4.54s1.68-1.53 1.87-2.52c.2-1.06.2-2.17-.3-2.47s-2.68.1-5.15-.81c-1.8-.66-1.92-1.62-1.92-1.62z" fill="#5f6366"/><path d="m63.15 106.18s-2.94-3.97-.52-8.17c2.53-4.4 6.56-3.66 6.56-3.66l2.09 9.36-8.13 2.48z" fill="#5e6367"/><path d="m28.64 24.23-6.12 1.31s.38.66.68 1.31.78 1.17.55 2.3 11.4 8.27 11.4 8.27 1.39-.06 2.21.22 2.14 1.18 2.14 1.18l2.87-6.68 1.11-11.26-14.84 3.36z" fill="#f09e00"/><path d="m34.38 25.95s-3.24 1.29-5.55 2.06c-1.17.39-5.08 1.13-5.08 1.13s-.36.86-.79 1.47c-.48.68-.88.97-.92 1.61s.27.96.92 1.25 1.44.46 1.8.75.94 1.69 1.41 2.44 1.46 3.07 3.8 3.04 4.06-1.17 5.41-2.12 1.9-2.14 1.9-2.14v-4.42z" fill="#ffca26"/><path d="m38.32 21.72-4.49 2.35 2.1 3.04s.09-1.22.69-2.1c.48-.71 1.35-1.08 2.32-.94s1.31 1.06 1.34 1.77c.08 1.87-.97 2.72-.97 2.72l-.15 2.35s.16 1.24 1.19 1.48c1.23.29 2.03-.25 2.03-.25s4.85-3.03 5.57-7.84c.28-1.9.07-3.34-1.23-4.13s-8.39 1.56-8.4 1.55z" fill="#62453b"/><path d="m72.82 89.41 3.93 6.81 1.5-3.59s.55-5.23.42-7.8-.44-5.46-.35-6.16 1.57-3.53 1.57-3.53l-3.58-3.54z" fill="#f09e00"/><path d="m79.11 69.54-13.16 3.17s-.14.98-.25 3.38c-.17 3.62.54 7.7.87 10 .39 2.75 1.43 8.2 1.43 8.2l4.68 1.32 3.32-2.18s-.09-6.16-.31-9.78-.22-5.68.13-6.59c.54-1.42 1.53-3.01 1.53-3.01l1.75-4.5z" fill="#ffca26"/><path d="m70.86 100.68-2.46-2.67-.39-3.71s1.37.27 3.95.03c3.11-.29 6.29-1.69 6.29-1.69l-.03 3.56z" fill="#858585"/><path d="m68.75 113.17c.54.49 7.8-.73 8.08-1.55.26-.74-.03-2.92-.54-3.23-.95-.59-7.43 1.07-7.86 1.93-.25.51-.1 2.47.32 2.85z" fill="#5e6367"/><path d="m71.35 104.46-10.37 5.29s.06.92.95 1.33 1.71.35 2.82.06 5.71-1.39 7.64-1.9 3.26-1 4.22-1.43c.86-.38 1.47-1.22 1.62-1.9.13-.6.13-1.3.13-1.3l-7.01-.16z" fill="#868686"/><path d="m27.7 62-8.79-1.08s-1.2.59-1.3 1.19-.61 2.35.32 5.2c.3.93 1.08 2.55 1.55 2.74 1.97.81 6.4-.85 6.72-1.21.53-.6.86-1.41.86-1.41s12.99-2.9 16.19-3.88 4.01-2.09 4.61-3.13c.84-1.48 1.11-4.43 1.11-4.43l-1.92-2.88-19.33 8.89z" fill="#f09e00"/><path d="m44.92 48.45-6.24 1.97v2.42 1.44s-2.45 1.01-4.7 1.9-7.3 3.49-8.03 3.65c-.53.11-1.05-.78-1.75-.85s-5.08 1.44-5.28 1.94-.42 2.77-.18 3.65c.34 1.22 1.05 2.7 1.97 3.13.46.21 2.56-.34 2.87-.57s1.75-1.75 1.98-1.94 7.68-1.75 13.62-3.61c4.08-1.28 6.16-2 7.57-2.91 1.2-.78 1.9-1.67 2.21-2.68.2-.63.66-4.35.66-4.35l-4.7-3.18z" fill="#ffca26"/><path d="m47.51 40.52 2.77 7.33s3.48.81 6.14 1.63c2.66.81 6.3 2.06 6.24 2.44s-.98.66-3.47 1.92c-1.61.81-3.88 2.26-3.88 2.26s4.04 5.11 5.99 7.66 5.43 6.19 5.43 6.19l18.63-25.2-3.57-7.38-2.61-1.8-31.67 4.94z" fill="#5e6268"/><path d="m68.32 55.59c-.25.37-1.12 7.16-1.49 9.59s-.87 7.53-.87 7.53 4.67.81 7.59 1.43c2.93.62 6.35 1 6.35 1s7.35-11.27 8.9-17.68c1.56-6.41 1.77-8.86-.25-13.07-1.61-3.36-6.78-7.05-6.78-7.05s-.37 5.63-4.36 10.6-9.1 7.65-9.09 7.65z" fill="#858585"/><path d="m41.5 31.83c-2.44 3.32-2.86 7.37-2.91 9.6s.06 5.3.06 5.3l7.97 2.12 3.62-.36s.26-2.19.5-3.42 11.86-1.44 11.86-1.44l12.22 1.97s1.97-2.57 3.06-5.5c.83-2.24 1.3-4.51 1.3-4.51s-5.7-4.66-12.61-6.74c-5.78-1.74-11.74-3.43-16.69-2.12-4.28 1.13-7.01 3.26-8.37 5.11z" fill="#858585"/><path d="m32.96 24.43s.93 1.66 1.62 3.04 2.23 4.02 2.23 4.02-.51 5.64-.49 6.04c.04.65 1.5.69 1.58.04.06-.44.49-5.8.49-5.8s1.67-1.65 3.45-4.5c2.15-3.45 2.27-5.44 2.27-5.44l-1.54.49s-1.18 3.04-2.11 4.58-2.64 3.12-2.64 3.12-.89-1.79-1.65-3.28-1.73-3.44-1.73-3.44l-1.49 1.12z" fill="#2f2f2f"/><path d="m23.95 24.34-3.24-1.54s-1.69-3.08-.48-7.29 4.88-9.29 11.97-11.07c9.22-2.3 17.39 2.03 17.39 2.03l-3.87 10.75z" fill="#b0b0b0"/><path d="m23.12 23.14s-1.43-2.73-.6-6.14 3.33-7.39 8.08-9.25c9.63-3.76 15.19-.32 15.45.19s-.05 2.39.13 2.54c.65.51 3.12 1.71 3.12 1.71l-.04 1.43-15.16 7.79-10.98 1.74z" fill="#dfdfdf"/><g fill="#5e6367"><path d="m30.79 7.43c-1.77.83-3.76 2.39-2.85 3.53.84 1.05 1.95-.7 3.86-1.55s3.65-1.22 3.32-2.31-3.06-.25-4.32.34z"/><path d="m38.55 6.97c.2 1.25 1.51.8 3.65 1.05s4.28 1.18 4.49.13-2.52-1.93-3.99-2.14-4.37-.34-4.15.96z"/><path d="m32.76 11.59c-2.85 1.43-6.21 4.91-5.21 6s4.04-1.85 7.47-3.32c4.11-1.76 7.72-1.47 7.68-2.98s-5.67-1.85-9.94.3z"/><path d="m25.36 12.86c-1.16-.38-2.32 1.62-2.95 3.58s-.76 4.49.41 4.48 1.08-2.11 1.68-3.86 2.23-3.76.86-4.2z"/></g><path d="m20.71 22.8s8.98-1.22 15.53-4.03 12.76-6.32 12.76-6.53-2.85-1.36-2.85-1.82 3.02-3.99 3.44-3.95 1.18.59 1.09.97-1.81 2.43-1.81 2.43 2.05 1.57 2.13 1.99c.19.91-3.01 4.02-2.97 4.77s.81 2.65.63 3.53c-.19.93-5.57 2.38-12.64 4.03-7.12 1.66-13.97 1.45-13.97 1.45s-.43-.48-.8-1.27c-.35-.74-.55-1.57-.54-1.57z" fill="#2f2f2f"/><g fill="#583ee2"><path d="m72.79 104.21-4.09-.43-.1-2.46-.2-3.31s2.94.39 5.31-.06 4.51-1.75 4.51-1.75v6.11l-5.43 1.91z"/><path d="m51.54 40.2c-.21.13-.81 4.88-.81 4.88s5.65.91 10.21 2.24 8.4 3.75 8.71 3.75c.95 0 5.28-5.14 5.17-5.47-.49-1.55-7.75-3.6-12.67-4.61-5.26-1.08-10.13-1.09-10.61-.79z"/><path d="m76.32 49.22s1.6 2 1.17 5.84-1.55 7.73-2.8 11.05-2.57 7.75-2.57 7.75l2.88.57s3.01-8.77 4.11-12.55 1.67-9.43 1.19-11.97-1.56-3.8-1.56-3.8-1.02 1.51-1.32 1.83-1.09 1.28-1.09 1.28z"/><path d="m38.65 46.73v3.95s3.28-.45 5.87-.15 5.17 1.77 5.17 1.77l.58-3.86s-1.43-1.59-5.71-1.92c-3.99-.31-5.9.22-5.9.22z"/></g><path d="m68.59 101.32c-.29-.1-4.06 3.3-5.01 4.06s-1.96 1.54-2.41 2.28c-.6.98-.19 2.09-.19 2.09s2.02.1 8.31-1.81c7.96-2.41 9.07-3.33 9.07-3.33s-.03-2.12-.13-2.31-1.81.89-5.42.48c-2.66-.3-4.22-1.46-4.22-1.46z" fill="#e0e0e0"/><path d="m27.75 26.28c-.78.42-.6 1.5-.21 2.22.42.78 1.08 1.18 1.79.85.78-.37.54-1.6.17-2.26s-1.08-1.16-1.74-.8z" fill="#3f4040"/><path d="m25.65 35.8s1.13-.63 1.84-1.13 1.39-1.01 1.86-.45-.38 1.67-1.04 2.19-1.45 1.07-1.69.98c-.79-.3-.97-1.59-.97-1.59z" fill="#563c31"/><g fill="#e0e0e0"><path d="m109.32 115.33c-.27 0-.54-.14-.69-.39l-4.31-7.18c-.23-.38-.1-.87.28-1.1s.87-.1 1.1.28l4.31 7.18c.23.38.1.87-.28 1.1-.13.08-.27.11-.41.11z"/><path d="m114.88 110.7c-.17 0-.35-.05-.49-.17l-7.03-5.46c-.35-.27-.41-.77-.14-1.12s.78-.41 1.12-.14l7.03 5.46c.35.27.41.77.14 1.12-.16.2-.39.31-.63.31z"/><path d="m117.6 103.74c-.07 0-.14 0-.22-.03l-8.31-2.34c-.43-.12-.67-.56-.55-.99s.56-.68.99-.55l8.31 2.34c.43.12.67.56.55.99-.1.35-.42.58-.77.58z"/><path d="m94.5 98.77c-.08 0-.15-.01-.23-.03l-10.65-3.17c-.42-.13-.66-.57-.54-1 .13-.42.57-.66 1-.54l10.65 3.17c.42.13.66.57.54 1-.1.35-.42.57-.77.57z"/><path d="m96.01 95.98c-.21 0-.41-.08-.57-.24l-7.53-7.88c-.31-.31-.31-.82 0-1.13s.82-.31 1.13 0l7.53 7.88c.31.31.31.82 0 1.13-.16.15-.36.23-.56.24z"/><path d="m21.63 99.81c-.12 0-.25-.03-.37-.09l-10.27-5.29c-.39-.2-.55-.68-.34-1.08.2-.39.69-.55 1.08-.35l10.27 5.29c.39.2.55.68.34 1.08-.14.28-.42.43-.71.44z"/><path d="m23.51 97.32c-.19 0-.37-.06-.52-.19l-8.76-7.55c-.33-.29-.37-.79-.08-1.13s.79-.37 1.13-.08l8.76 7.55c.33.29.37.79.08 1.13-.16.18-.38.28-.61.27z"/><path d="m25.55 95.58c-.27 0-.54-.14-.69-.4l-5.59-9.52c-.22-.38-.1-.87.28-1.09.38-.23.87-.1 1.1.28l5.59 9.52c.22.38.1.87-.28 1.09-.13.08-.27.11-.41.12z"/><path d="m15.89 114.92c-.18 0-.37-.06-.52-.19-.34-.29-.38-.79-.09-1.13l7.4-8.69c.29-.34.79-.38 1.13-.09s.38.79.09 1.13l-7.4 8.69c-.16.19-.38.28-.61.28z"/><path d="m37.87 115.9c-.23 0-.46-.1-.62-.29l-7.1-8.61c-.28-.34-.23-.85.11-1.13s.85-.23 1.13.11l7.1 8.61c.28.34.23.85-.11 1.13-.15.12-.33.18-.51.18z"/><path d="m42.02 111.82c-.17 0-.34-.05-.49-.17l-9.06-6.95c-.35-.27-.42-.77-.15-1.12s.77-.42 1.12-.15l9.06 6.95c.35.27.42.77.15 1.12-.16.2-.4.31-.64.31z"/><path d="m44.82 106.53c-.1 0-.2-.02-.3-.06l-10.5-4.23c-.41-.17-.61-.63-.44-1.04s.63-.61 1.04-.44l10.5 4.23c.41.17.61.63.44 1.04-.13.31-.43.5-.74.5z"/></g></svg>