<svg enable-background="new 0 0 128 128" viewBox="0 0 128 128" xmlns="http://www.w3.org/2000/svg"><g fill="#fff" stroke="#000" stroke-miterlimit="10"><path d="m120.44 51.23c1.9-3.94 2.96-8.35 2.96-13.02 0-16.6-13.45-30.05-30.05-30.05-3.89 0-7.61.75-11.03 2.1-4.37-3.81-10.1-6.16-16.32-6.16-7.6 0-14.4 3.4-18.9 8.7-3.5-1.9-7.5-3-11.7-3-13.4.1-24.3 10.9-24.3 24.3 0 5 1.5 9.7 4.2 13.6-5 4-8.5 9.9-9.2 16.8-1.3 13.4 8.6 25.5 22.2 26.8 3.2.3 6.2 0 9.1-.8 1.1 10.7 10.1 19 21.1 19 7 0 13.2-3.4 17-8.6 3.6 2.8 8.1 4.6 13.1 4.6 11 0 20.1-8.5 20.9-19.2 8.5-3.9 14.5-12.5 14.5-22.5 0-4.59-1.33-8.92-3.56-12.57z" stroke-width="6"/><g stroke-width="4.5"><path d="m24.3 97.3c-4.5-.5-8.5 2.8-9 7.3s2.8 8.5 7.3 8.9c4.5.5 8.5-2.8 9-7.3s-2.8-8.5-7.3-8.9z"/><path d="m9 114.3c-3-.3-5.7 1.9-6 4.9s1.9 5.6 4.9 5.9 5.7-1.9 6-4.9c.3-2.9-1.9-5.6-4.9-5.9z"/></g></g></svg>