<svg enable-background="new 0 0 128 128" viewBox="0 0 128 128" xmlns="http://www.w3.org/2000/svg" xmlns:xlink="http://www.w3.org/1999/xlink"><radialGradient id="a" cx="73.18" cy="57.37" gradientTransform="matrix(.878 -.4786 .0826 .1516 4.19 83.7)" gradientUnits="userSpaceOnUse" r="70.53"><stop offset=".3342" stop-color="#e1f5fe"/><stop offset="1" stop-color="#b3e5fc"/></radialGradient><radialGradient id="b" cx="-127.71" cy="-465.2" gradientTransform="matrix(.8866 -.4625 -.2243 -.4299 61.62 -167.95)" gradientUnits="userSpaceOnUse" r="157.91"><stop offset=".2141" stop-color="#fff"/><stop offset="1" stop-color="#b3e5fc"/></radialGradient><linearGradient id="c" gradientUnits="userSpaceOnUse" x1="28.52" x2="116.17" y1="89.5" y2="89.5"><stop offset=".1712" stop-color="#fb8c00"/><stop offset=".5625" stop-color="#f67f00"/><stop offset=".9831" stop-color="#ef6c00"/></linearGradient><linearGradient id="d" gradientTransform="matrix(1 0 0 -1 0 130)" gradientUnits="userSpaceOnUse" x1="18.29" x2="31.19" y1="91.19" y2="91.19"><stop offset=".3652" stop-color="#90caf9"/><stop offset=".9874" stop-color="#42a5f5"/></linearGradient><radialGradient id="e" cx="54.05" cy="57.9" gradientUnits="userSpaceOnUse" r="21.39"><stop offset="0" stop-color="#616161"/><stop offset=".5695" stop-color="#6e6e6e"/><stop offset="1" stop-color="#7b7b7b"/></radialGradient><linearGradient id="f" gradientTransform="matrix(1 0 0 -1 0 130)" gradientUnits="userSpaceOnUse" x1="50" x2="109" y1="67.3" y2="94.97"><stop offset=".2671" stop-color="#ef6c00"/><stop offset=".5465" stop-color="#f67f00"/><stop offset=".8064" stop-color="#fb8c00"/></linearGradient><linearGradient id="g" gradientUnits="userSpaceOnUse" x1="31.14" x2="41.26" y1="72.15" y2="66.29"><stop offset=".5" stop-color="#ffca28"/><stop offset="1" stop-color="#ffb300"/></linearGradient><radialGradient id="h" cx="32.29" cy="46.69" gradientUnits="userSpaceOnUse" r="12.46"><stop offset=".3622" stop-color="#f78c1f"/><stop offset=".6776" stop-color="#f37f21"/><stop offset="1" stop-color="#ed6d23"/></radialGradient><radialGradient id="i" cx="58.71" cy="36.61" gradientTransform="matrix(1 0 0 .5815 0 15.32)" gradientUnits="userSpaceOnUse" r="19.78"><stop offset=".3628" stop-color="#f78c1f"/><stop offset=".6779" stop-color="#f37f21"/><stop offset="1" stop-color="#ed6d23"/></radialGradient><radialGradient id="j" cx="48.66" cy="45.07" gradientUnits="userSpaceOnUse" r="16.99"><stop offset=".3657" stop-color="#f78c1f"/><stop offset=".6794" stop-color="#f37f21"/><stop offset="1" stop-color="#ed6d23"/></radialGradient><path d="m101.76 50.94c-13.56 14.16-18.66 17.41-54.56 34.77-10.22 4.94-20.52 7.2-28.79 9.03-6.08 1.34-10.88 2.4-13.48 4.08-.3.2-.59.39-.87.58v.6.61 17.23c.15.03.26.05.26.05h46.38l73.27-28.94v-62.54-.85-.83c-5.28 7.01-12.9 16.5-22.21 26.21z" fill="url(#a)"/><path d="m123.96 88.41-73.37 28.98-46.2.01c-.01 0-.14-.02-.34-.06v1.01c.12.02.22.04.26.04h46.38c.06 0 .12-.01.18-.04l73.09-28.87z" fill="#b3e5fc"/><path d="m123.96 42.87c-5.93 3.16-12.55 7.35-17.68 12.37-30.62 30.03-58.27 31.81-77 42.81-10.44 6.14-20.03 11.96-25.23 15.14v10.77h119.91z" fill="url(#b)"/><path d="m123.96 69.26v-8.58c-24.42 13.48-48.85 26.98-73.27 40.46-3.67 2.03-7.33 4.05-11 6.08-4.23 2.34-.45 8.82 3.79 6.48 25.83-14.26 51.66-28.53 77.49-42.79 1-.55 1.99-1.1 2.99-1.65z" fill="#b3e5fc"/><path d="m115.88 67.37c-.62-1.13-2.04-1.54-3.17-.92l-73.59 40.68c-.7.39-2.6-.55-3.99-1.24-1.07-.53-2-.99-2.67-1.07-1.85-.24-3.55.93-3.88 2.66-.17.91.03 1.82.57 2.57.53.74 1.31 1.21 2.21 1.35.88.31 4.19 1.44 6.38 1.44.59 0 1.09-.08 1.45-.28l75.77-42.02c1.13-.61 1.54-2.04.92-3.17z" fill="url(#c)"/><path d="m43.48 17.9c-2.67-2.18-5.9-3.16-9.16-3.16-3.25 0-6.54.97-9.37 2.7-8.5 5.19-7.18 13.99-7.18 13.99s-1.56 2.64-1.88 4.66c-.17 1.13.21 1.89.76 1.89.16 0 .33-.06.5-.2l9.99-7.22c.27-.09.55-.14.83-.14 3.62 0 8.36 7 11.3 7 .17 0 .33-.02.49-.07l-1.85-5.33s.38-.07.94-.07c1.33 0 3.66.41 3.99 3.22.29 2.45 2.17 3.53 3.94 4.83 2.97-7.02 3.02-16.94-3.3-22.1z" fill="#039be5"/><path d="m48.79 29.12c-.21-.88-.43-3.49-1.36-3.95-.14-.06-.27-.09-.4-.09-.79 0-1.51 1.11-2.13 1.54-1.18.83-2.46 1.51-3.75 2.13-2.52 1.22-5.16 2.22-7.53 3.73-.82.52-1.78.93-2.5 1.58-.67.6-1.23 1.35-1.88 1.97-1.73 1.67-3.53 3.27-5.39 4.79-.79.64-2.76 2.23-2.76 2.23s.73 1.02.36 2.98c-.18.96.42 1.92 1.27 2.1 1.59.34 2.15-.16 3.39.92 1.1.95 2.17 1.8 3.69 1.88.08 0 .16.01.24.01 1.44 0 2.81-.67 4.15-1.24 3.12-1.34 6.43-2.22 9.8-2.61-.08 0-.04-5.38.12-5.9.38-1.21 1.55-2.31 2.43-3.2 1.05-1.07 3.35-1.91 3.94-3.33.58-1.37-1.35-4.11-1.69-5.54z" fill="#4568ad"/><path d="m38.82 33.76 9.18-7.47c.47-.36.65-.99.44-1.54-.3-.79-1.25-1.11-1.96-.67l-9.78 6.17-.56-.92c-.78-1.28-2.41-1.74-3.74-1.06l-4.32 2.21 6.97 12.81 4.47-3.64c1.1-.9 1.37-2.47.64-3.69z" fill="#444"/><path d="m17.15 37.78c.31-.22 6.8-4.85 10.47-7.45 1.32-.94 3.15-.53 3.95.87l4.22 7.35c.92 1.6.38 3.64-1.2 4.59l-4.2 2.51c-2.69 1.24-6.02-.89-6.02-.89-.92-.57-2.05-.66-3.05-.26l-.18.07-.31.22-1.17-1.81.4-.25-1.75-2.99-.4.26-1.23-1.89s.47-.33.47-.33z" fill="#e3f2fd"/><path d="m18.29 39.76c.3-.22 4.67-3.15 7.44-5.03 1.06-.72 2.5-.39 3.15.71l2 3.4c.61 1.04.28 2.38-.75 3.01l-1.91 1.09c-.64.39-1.43.44-2.11.15 0 0-3.83-1.97-6.02-.38z" fill="url(#d)"/><path d="m86.57 38.38-1.01-1.4-28.73 14.2.03.04c-.91.25-1.78.68-2.55 1.32-2.91 2.41-3.32 6.73-.91 9.64.13.16.27.3.41.45l-.95.51 11.79 21.52 12.27-6.69-7.95-16.78 14.05-5.74c6.27-2.5 8.02-10.92 3.55-17.07z" fill="url(#e)"/><path d="m37.85 70.2c-.56 0-1.1-.31-1.35-.85-.36-.75-.04-1.64.71-2l70.93-33.87c.75-.36 1.64-.04 2 .71s.04 1.64-.71 2l-70.93 33.86c-.21.1-.43.15-.65.15z" fill="url(#f)"/><path d="m105.07 43.13-4.66-3.71c-.26-.21-.4-.54-.37-.87l.52-5.75c.09-1.03 1.5-1.26 1.91-.31l4.14 9.46c.42.95-.72 1.83-1.54 1.18z" fill="#616161"/><path d="m44.35 70.41-3.83-6.6c-.11-.19-.32-.29-.54-.24l-.38.08-4.19-1.41c-.4-.13-.84-.11-1.18.04-.03.01-.08.03-.11.04-.04.02-.09.04-.11.06-.38.18-.67.46-.83.78l-.87 1.58c-.14.3-.27.91-.24 1.4-1.15.75-1.84 1.37-2.06 1.84-.42.9-.51 1.56-.27 2.03.79 1.52 3.19 5.62 4.81 6.31.52.22 1.05.33 1.58.33.66 0 1.33-.17 2.01-.5 2.21-.83 5.99-4.97 6.15-5.15.14-.16.17-.4.06-.59z" fill="url(#g)"/><path d="m53.25 32.09c-.23-.03-1.39-.84-2.59-1.66-1.19-.81-.35-3.17-1.79-3.17h-.04c-1.1.03-8.21 5.54-10.75 7.42-3.87 2.85-11.18 11.14-9.56 16.81.02.08.11.12.26.12 1.14 0 5.86-2.25 12.22-2.25 1.16 0 2.37.07 3.62.25.66-3.06 1.21-5.32 2.8-8.05 1.8-3.08 8.23-9.2 5.83-9.47z" fill="url(#h)"/><path d="m81.89 34.56c0 .01-9.5-2.83-21.46-2.83v.49-.49c-5.33 0-11.14.56-16.83 2.19-2.07.59-6.43 4.79-2.56 9.3s16.19 10.02 16.19 10.02l30.14-13.63c-.77-1.82-3.05-4.18-5.48-5.05z" fill="url(#i)"/><path d="m63 53.74c-.29-.56-10.12-19.25-19.01-19.25-1.46 0-2.89.5-4.24 1.66-7.59 6.48 4.11 16.69 9.5 20.78l-8.03 4.21c-2.08 1.37-2.57 5.16-1.2 7.25 1 1.52 3.35 2.73 5.35 2.73.73 0 1.42-.16 1.98-.53l13.85-8.97c.38-.25.67-.57.87-.92 1.66-1.86 2.11-4.6.93-6.96z" fill="url(#j)"/><path d="m81.22 82.95-8.86-15.65-13.79 7.8 4.08 7.16c.39.68.19 1.54-.46 1.98l-4.14 2.7c-3.12 2.51-1.09 5.65-1.09 5.65l1.69 2.97c.37.65 1.04 1.01 1.74 1.01.33 0 .66-.08.97-.25l19.1-10.64c.96-.54 1.31-1.76.76-2.73z" fill="#4568ad"/><g fill="#fff"><path d="m104.48 77.78c.01-.01.02-.01.03-.03 1.23-1.08.39-3.2-1.31-2.93-.05 0-.09.01-.13.02-.98.24-1.63 1.08-1.91 2.01-.14.48-.26.96-.36 1.45-.05.24-.11.49-.13.73-.01.14.06.39.22.42.23.05.65-.14.87-.22.98-.31 1.94-.75 2.72-1.45z"/><path d="m116.51 65.88c.01-.01.01-.02.03-.03 1.1-1.22 3.21-.35 2.91 1.35 0 .04-.02.09-.03.13-.25.98-1.1 1.62-2.04 1.89-.48.14-.97.25-1.46.34-.24.05-.49.1-.73.12-.14.01-.39-.07-.42-.23-.05-.23.15-.65.23-.86.34-.98.8-1.94 1.51-2.71z"/><path d="m98.54 65.13c.01-.01.01-.02.01-.04.68-1.69-1.22-3.38-2.77-2.25l-.12.09c-.85.72-1.09 1.89-.9 2.96.1.55.22 1.09.37 1.62.08.26.14.54.24.79.06.14.26.35.43.31.26-.06.57-.46.75-.65.82-.83 1.55-1.76 1.99-2.83z"/><path d="m111.88 55.83c.01-.01.01-.02.02-.03 1.1-1.16.1-3.14-1.53-2.73-.04.01-.09.02-.13.04-.93.31-1.49 1.19-1.68 2.11-.1.48-.17.96-.23 1.44-.02.24-.06.48-.06.72 0 .13.1.37.25.39.23.03.61-.19.82-.28.95-.41 1.84-.92 2.54-1.66z"/><path d="m110.62 64.96.03-.03c1.37-1.48.07-3.96-1.97-3.41-.05.01-.11.03-.16.05-1.16.41-1.86 1.53-2.08 2.7-.11.6-.2 1.21-.25 1.82-.03.3-.07.61-.07.91.01.16.13.46.32.48.29.04.78-.25 1.03-.37 1.16-.54 2.28-1.21 3.15-2.15z"/></g></svg>