<svg enable-background="new 0 0 128 128" viewBox="0 0 128 128" xmlns="http://www.w3.org/2000/svg"><circle cx="64.46" cy="63.96" fill="#f2a600" r="60"/><circle cx="60.56" cy="63.06" fill="#ffcc32" r="56.1"/><path d="m76.96 64.36h32.7c1.01-.04 1.81-.88 1.8-1.9-.61-15.42-8.76-29.55-21.8-37.8-.83-.53-1.94-.28-2.47.55-.01.02-.02.03-.03.05l-16.5 28.3c-.46.78-.24 1.78.5 2.3 2.16 1.75 3.59 4.25 4 7 .15.87.91 1.51 1.8 1.5z"/><path d="m64.46 75.16c-1.4-.01-2.79-.29-4.1-.8-.83-.32-1.77.02-2.2.8l-16.3 28.3c-.5.87-.2 1.98.67 2.48.01.01.02.01.03.02 6.76 3.54 14.27 5.39 21.9 5.4 7.6.04 15.1-1.82 21.8-5.4.88-.49 1.2-1.59.72-2.47-.01-.01-.01-.02-.02-.03l-16.3-28.3c-.43-.78-1.37-1.12-2.2-.8-1.27.53-2.63.8-4 .8z"/><circle cx="64.46" cy="64.36" r="7.2"/><path d="m24.46 29.66c4.5-7.1 14.1-13 24.1-14.8 2.5-.4 5-.6 7.1.2 1.6.6 2.9 2.1 2 3.8-.7 1.4-2.6 2-4.1 2.5-9.38 3.1-17.47 9.21-23 17.4-2 3-5 11.3-8.7 9.2-3.9-2.3-3.1-9.5 2.6-18.3z" fill="#fff170" opacity=".65"/><path d="m58.26 53.46-16.4-28.2c-.52-.85-1.63-1.13-2.49-.61 0 0-.01.01-.01.01-13.03 8.27-21.21 22.38-21.9 37.8-.01 1.02.79 1.86 1.8 1.9h32.7c.88 0 1.64-.63 1.8-1.5.41-2.75 1.84-5.25 4-7 .69-.59.9-1.58.5-2.4z"/><path d="m24.46 29.66c4.5-7.1 14.1-13 24.1-14.8 2.5-.4 5-.6 7.1.2 1.6.6 2.9 2.1 2 3.8-.7 1.4-2.6 2-4.1 2.5-9.38 3.1-17.47 9.21-23 17.4-2 3-5 11.3-8.7 9.2-3.9-2.3-3.1-9.5 2.6-18.3z" fill="#fff" opacity=".3"/></svg>