<svg enable-background="new 0 0 128 128" viewBox="0 0 128 128" xmlns="http://www.w3.org/2000/svg" xmlns:xlink="http://www.w3.org/1999/xlink"><radialGradient id="a" cx="64" cy="62.9" gradientUnits="userSpaceOnUse" r="56.96"><stop offset="0" stop-color="#fde030"/><stop offset=".1899" stop-color="#f0dd36"/><stop offset=".5342" stop-color="#d0d648"/><stop offset=".991" stop-color="#9dcc64"/><stop offset="1" stop-color="#9ccc65"/></radialGradient><linearGradient id="b"><stop offset="0" stop-color="#ed7770"/><stop offset=".2" stop-color="#ed7770" stop-opacity=".9"/><stop offset=".3" stop-color="#ed7770" stop-opacity=".7"/><stop offset=".5" stop-color="#ed7770" stop-opacity=".6"/><stop offset=".7" stop-color="#ed7770" stop-opacity=".3"/><stop offset=".9" stop-color="#ed7770" stop-opacity="0"/></linearGradient><radialGradient id="c" cx="345.23" cy="-1240.4" gradientTransform="matrix(.9 0 0 -.8 -215.3 -909.8)" gradientUnits="userSpaceOnUse" r="15.8" xlink:href="#b"/><radialGradient id="d" cx="277.93" cy="-1242.2" gradientTransform="matrix(.9 0 0 -.8 -215.3 -909.2)" gradientUnits="userSpaceOnUse" r="15.8" xlink:href="#b"/><path d="m64 118.8c-27.9 0-58-17.5-58-55.9s30.1-55.9 58-55.9c15.5 0 29.8 5.1 40.4 14.4 11.5 10.2 17.6 24.6 17.6 41.5s-6.1 31.2-17.6 41.4c-10.6 9.3-25 14.5-40.4 14.5z" fill="url(#a)"/><path d="m111.89 29.67c5.33 8.6 8.11 18.84 8.11 30.23 0 16.9-6.1 31.2-17.6 41.4-10.6 9.3-25 14.5-40.4 14.5-18.06 0-37.04-7.35-48.18-22.94 10.76 17.66 30.99 25.94 50.18 25.94 15.4 0 29.8-5.2 40.4-14.5 11.5-10.2 17.6-24.5 17.6-41.4 0-12.74-3.47-24.06-10.11-33.23z" fill="#789e46"/><ellipse cx="94" cy="81.3" fill="url(#c)" opacity=".6" rx="13" ry="11.9"/><ellipse cx="34" cy="83.3" fill="url(#d)" opacity=".6" rx="13" ry="11.9"/><g fill="none" stroke="#35220b" stroke-linecap="round" stroke-linejoin="round" stroke-width="5.3"><path d="m41.1 72.3c2.6 2 5.7 4.9 6.8 7.6.9 2.2 1.1 4.5.6 6.8"/><path d="m86.9 71.6c-2.4 1.1-8.7 6.9-6.2 14.8"/><path d="m47.9 79.4s3.7-4.8 16.2-5c11.3-.2 16 3.4 16 3.4"/></g><path d="m28.7 43.2c-2 .9-1.4 4 1 3.6 5.2-1.2 9.7-4.3 12.6-8.8 1.1-1.6 2-3.4 2.5-5.3.4-.9-.1-2-1-2.4s-2 .1-2.4 1c-2.8 5.3-7.2 9.4-12.6 11.8z" fill="#422b0d"/><path d="m86.4 31.7c-.4-.9-1.4-1.4-2.4-1-.9.4-1.4 1.4-1 2.4.5 1.9 1.4 3.7 2.5 5.3 2.9 4.4 7.4 7.5 12.6 8.7 2.5.5 3-2.7 1-3.6-5.5-2.3-9.9-6.5-12.7-11.7" fill="#422b0d"/><path d="m46.8 43.1c-4.2 0-8 3.5-8 9.4s3.8 9.4 8 9.4 8-3.5 8-9.4-3.8-9.4-8-9.4z" fill="#3f2c13"/><path d="m46.4 47c-1-.7-2.6-.5-3.6 1s-.7 3 .4 3.7c1 .7 2.6.5 3.6-1 1-1.4.7-3-.4-3.7z" fill="#83622f"/><path d="m82.2 43.1c-4.2 0-8 3.5-8 9.4s3.8 9.4 8 9.4 8-3.5 8-9.4-3.8-9.4-8-9.4z" fill="#3f2c13"/><path d="m81.8 47c-1-.7-2.6-.5-3.6 1s-.7 3 .4 3.7c1 .7 2.6.5 3.6-1s.7-3-.4-3.7z" fill="#83622f"/></svg>