<svg enable-background="new 0 0 128 128" viewBox="0 0 128 128" xmlns="http://www.w3.org/2000/svg" xmlns:xlink="http://www.w3.org/1999/xlink"><radialGradient id="a" cx="50.3" cy="96.7" gradientTransform="matrix(-.84 .542 .347 .538 59.1 -48.1)" gradientUnits="userSpaceOnUse" r="20.3"><stop offset=".782" stop-color="#6d4c41" stop-opacity="0"/><stop offset="1" stop-color="#6d4c41"/></radialGradient><linearGradient id="b" gradientTransform="matrix(1 0 0 -1 0 128)" gradientUnits="userSpaceOnUse" x1="57" x2="55.7" y1="78" y2="92.5"><stop offset=".0739" stop-color="#ffca28"/><stop offset="1" stop-color="#ffb300"/></linearGradient><linearGradient id="c"><stop offset=".232" stop-color="#ffca28"/><stop offset="1" stop-color="#ffb300"/></linearGradient><linearGradient id="d" gradientTransform="matrix(1 0 0 -1 0 128)" gradientUnits="userSpaceOnUse" x1="75.8" x2="67.7" xlink:href="#c" y1="104" y2="98.6"/><linearGradient id="e" gradientTransform="matrix(1 0 0 -1 0 128)" gradientUnits="userSpaceOnUse" x1="37.3" x2="48.4" xlink:href="#c" y1="64.4" y2="75.4"/><linearGradient id="f" gradientTransform="matrix(1 0 0 -1 0 128)" gradientUnits="userSpaceOnUse" x1="94.3" x2="93.7" y1="60.9" y2="60.5"><stop offset="0" stop-color="#bc1b00"/><stop offset=".29" stop-color="#e31c00"/><stop offset=".693" stop-color="#bc1b00"/><stop offset=".914" stop-color="#dd1c00"/></linearGradient><linearGradient id="g" gradientTransform="matrix(1 0 0 -1 0 128)" gradientUnits="userSpaceOnUse" x1="50.6" x2="58.6" y1="88.1" y2="47.2"><stop offset="0" stop-color="#bc1b00"/><stop offset=".213" stop-color="#e31c00"/><stop offset=".507" stop-color="#bc1b00"/><stop offset=".875" stop-color="#dd1c00"/></linearGradient><radialGradient id="h" cx="67.2" cy="-633" gradientTransform="matrix(1 0 0 -1 0 -534)" gradientUnits="userSpaceOnUse" r="47.4"><stop offset="0" stop-color="#892002"/><stop offset=".537" stop-color="#b42002"/><stop offset="1" stop-color="#892002"/></radialGradient><linearGradient id="i" gradientTransform="matrix(1 0 0 -1 0 128)" gradientUnits="userSpaceOnUse" x1="83.4" x2="95.3" y1="40.5" y2="18.1"><stop offset="0" stop-color="#ffb300"/><stop offset=".401" stop-color="#ffca28"/></linearGradient><radialGradient id="j" cx="52.7" cy="106" gradientTransform="matrix(0 1 .917 0 -44.4 -30.5)" gradientUnits="userSpaceOnUse" r="17.7"><stop offset=".869" stop-color="#6d4c41" stop-opacity="0"/><stop offset="1" stop-color="#6d4c41"/></radialGradient><path d="m64.6 10.7c-2.74-4.14-7.7-6.38-12.9-5.85s-9.65 3.73-11.5 8.34c-1.13 2.81-1.51 6.17-1.14 10.3.34 3.88.17 4.9-2.45 6.84-3.87 2.89-5.44 6.86-4.1 10.4 1.27 3.34 4.84 5.37 9.27 5.37.43 0 .87-.02 1.32-.06 9.36-.82 16.2-5.08 20.4-12.7.11-.19.19-.34.25-.45 3.65-5.88 5.22-15.7.9-22.2z" fill="#543930"/><path d="m67 23.7c-.33 3.66-2.34 7.71-3.25 9.15-.06.11-.14.26-.25.45-4.18 7.58-11 11.8-20.4 12.7-.44.04-.88.06-1.31.06-4.44 0-8.14-1.98-9.27-5.37-1.54-4.62 1.39-8.31 3.18-9.62 2.75-2.01 3.85-2.98 3.46-6.89 2.24 14.8 27.2 3.32 27.7.23.04-.22.08-.45.1-.67z" fill="url(#a)"/><path d="m68.4 33.7c-1.81 1.1-4.12 1.51-5.93 1.51-.61 0-1.17-.05-1.62-.13-1.83-.34-3.51-.48-5.05-.48-8.68 0-12.9 4.51-12.9 4.51l5.91 9.2c2.86.88 5.84 1.37 8.43 1.37 1.3 0 2.5-.12 3.55-.38 5.94-1.47 8.77-5.94 8.77-5.94l-1.13-9.66z" fill="url(#b)"/><path d="m84.9 27.9h.01c-2.11-6.35-5.38-9.88-7.45-14.9-.03-.09-.06-.15-.09-.24.42-.38.87-.8 1.42-1.32 0 0 2.87-3.1 5.01-4.71.44-.34.23-1.19-.4-1.19h-.06c-1.49.29-5.02 3.31-5.02 3.31-.16-.46-.49-.63-.85-.63-.55 0-1.2.38-1.6.73l-3.05 2.69c-.84.74-.87 1.72-.47 2.43.03.14.07.29.13.46l3.38 10.2c.34 1.07.65 2.16.93 3.25-3.65 2.58-12.1 7.51-12.1 7.51s2.36 7.46 3.19 7.46h.05c1.08 0 2.98-.62 3.82-1.28 4.7-3.65 9.63-7.67 11.9-9.57l-.01.01c.59-.45 1.05-1.05 1.29-1.81.27-.84.21-1.69-.08-2.46z" fill="url(#d)"/><path d="m47.8 64.4c-.01-.03-.03-.05-.05-.08l-.41.3c-.01-.01-.01-.01-.01-.02l.42-.28c-.03-.05-.06-.09-.1-.14-.04-.06-.09-.11-.14-.16-.06-.08-.11-.14-.19-.23l-7.29-7.92c-.48-.53-.93-1.08-1.39-1.63 3.55-3.15 10.4-8.34 10.4-8.34s-3.23-6.94-4.08-6.94h-.02c-1.07 0-2.9.93-3.66 1.7-4.2 4.22-8.57 8.8-10.6 11l.01-.03c-.52.52-.9 1.17-1.05 1.95-.22 1.2.17 2.35.93 3.18h-.01l.11.11c.01.01.02.03.04.04 4.48 4.8 8.68 6.59 12.6 10.2.14.14.28.25.43.34-.12.58-.25 1.23-.39 2.02 0 0-.48 4.19-1.25 6.76-.13.42.25.85.66.85.14 0 .28-.05.4-.16 1.03-1.11 2.09-5.64 2.09-5.64.19.13.38.19.55.19.72 0 1.22-1.02 1.37-1.72l.87-3.97c.05-.25.06-.48.04-.69.02-.22-.05-.46-.21-.72z" fill="url(#e)"/><path d="m94 67 .02.39c.24-.21.24-.37-.02-.39z" fill="url(#f)"/><path d="m94.1 67.4c-1.27 1.15-9.31 4.05-19.6-1.7-4-2.22-6.48-5.38-7.01-9.01s1.85-5.97 2.1-9.25c.08-1.08-.02-1.98-.25-2.74 1.54-.74 3.31-2.2 3.32-2.56.07-1.47-.68-2.85-1.47-4.08-.85-1.33-1.81-2.61-3.08-3.54-.33-.24-1.07-.68-1.47-.56-3.34 1-3.97.93-6.89.93l-.9-.11c1.58 1.83 5.33 9.87 1.7 11.6s-11.6-10.7-11.6-10.7c-2.46.68-7.59 3.63-10 6.47-.15.17.09.45.2.65 1.25 2.37 3.45 4.71 5.55 6.38.22.18.46.36.73.41.24.05 1.09-.5 1.69-.93 1.37 1.58 2.61 3.08 3.35 4.11.84 1.04 3.06 5.01 2.25 8.28-5.88 12.4-.26 14.8.37 19.1 1.29 8.85-9.04 30.6-26.5 30.6l8.25 4.75 15.7-1.03 8.66-7.45 11.9-1.78 4.2-8.61 4.17-11.6 15.2-10-.43-7.56z" fill="url(#g)"/><g fill="#ff8f00"><path d="m53.2 96.6c-1.4.82-2.87 2.35-4.38 4.9-1.31 2.21-4.43 7.82-6.84 8.28-1.8.34-4.16-.25-5.61-1.55-.63.33-1.26.63-1.92.9 1.53 1.74 3.99 2.55 6.25 2.55.57 0 1.12-.05 1.64-.15 3.44-.66 6.07-6.02 7.37-8.27.96-1.66 1.93-2.82 2.92-3.61-.09-.97.12-2.02.57-3.04z"/><path d="m74 70.3c2.17-.12 4.13.53 4.13.53l-.75-.5c-1.17-.56-3.69-1.83-5.92-1.67.74.9 1.72 1.24 2.54 1.64z"/><path d="m65.8 85c2.01 4.69 5.68 12.8 2.33 15.2-.67.47-2.14.23-4.08-.79-1.49-.78-3.13-2.06-4.9-2.87.24.79.46 1.59.54 2.37 1.41.56 2.75 1.35 3.98 2 2.22 1.17 4 1.78 5.7.32 4.3-3.69.18-9.96-1.82-15-1.93-4.83-1.76-8.36-.23-11.1-.82-.23-1.59-.51-2.33-.77-1.24 3.23-.72 7.1.81 10.7z"/></g><path d="m70.5 71.5c1.02-.79 2.29-1.09 3.49-1.16-.83-.4-1.8-.74-2.53-1.64-.55.04-1.09.16-1.58.41-2.55 1.29-4.11 3.12-4.93 5.22.73.26 1.51.54 2.33.77.76-1.37 1.86-2.55 3.22-3.6z" fill="#ffb600"/><path d="m53.2 96.6c-.46 1.02-.66 2.08-.58 3.04 2.36-1.89 4.76-1.62 7-.73-.09-.78-.3-1.58-.54-2.37-1.82-.84-3.78-1.17-5.88.06z" fill="#ffb600"/><path d="m89 69c-.59.07-1.23.11-1.91.13.21 1.34.44 4.2-2.12 4.68v.49c0 .03 2.43-.21 2.91-.72 1.23-1.3 1.23-3.41 1.12-4.57z" fill="#ff8f00"/><path d="m97.9 64.4c5.55-.68 9.85 5.23 7.83 10.5-.67 1.73-1.9 2.77-3.24 3.29-.01.01-.03.01-.04.02-1.03.42-.91 1.96.16 2.27.81.24 2.14-.58 3.51.18 1.56.86 2.8 2.2 2.76 4.64-.05 2.76-1.21 5.44-3.76 6.12-3.81 1-4.62 4.45-4.75 8.74-.05 1.72-.49 4.42-2.65 5.91-7.39 5.11-12.2-1.95-17.8 1.08-9.77 5.23-3.73 16.1-28.3 8.81-5.86-1.73-15.6 10.5-24 5.39-6.7-4.07-4.69-9.06-2.09-10.8 5.22-3.51 6.08 3.65 17.8 3 6.06-.34 4.6-10.6 12.8-13 6.43-1.93 9.08 7.28 14 3 7.75-6.75-3.5-17.2-.5-24.8 1.86-4.66 5.75-7.25 9.75-6.25s3.67 4.08 6.25 4.83c2.83.83 4.56-1.95 5.17-4 1.02-3.43 1.75-8.26 7.25-8.94z" fill="url(#h)"/><path d="m100 116c1.62 1.02 4.79 4.18 5.66 5.88.25.49.48 1.68.15 2.11-.28.36-6.55.73-11-1.82-.39-.22-.89-1.04-1.05-1.36-.3-.6-.75-.67-.82-.04-.59-.03-1.01.02-1.6-.01-.42-4.09-1.12-3.64-1.05-6.51.06-2.33 1.66-2.83 2.29-3.07.1-.04 5.08 3.06 7.47 4.82z" fill="#dd2c00"/><path d="m100 114c-.88-2.1-1.77-4.21-2.65-6.31-3.5-8.34-5.11-12-9.02-20.1-.37-.81-1.06-1.12-1.87-1.12-1.14 0-2.53.61-3.67 1.31-2.03 1.25-3.86 2.42-2.45 4.66 2.83 4.47 9.18 11.7 11.4 16.6 1.2 2.64 1.2 5.43 3.13 7.58.86.96 1.48 1.61 2.75 1.83.43.08.87.13 1.28.13.92 0 1.69-.27 1.85-1.15.15-.81-.4-2.6-.72-3.36z" fill="url(#i)"/><path d="m60.1 121c-.42-2.54-2.56-6.71-4.87-6.71s-4.64 4.17-5.06 6.71c-.06.34-.08 1.44-.08 1.71 0 .01.01.02.01.02.02.38.43.9 1.01.9 1.4 0 2.71 0 4.01.01 1.3 0 2.61-.01 4.01-.01.61 0 1.03-.57 1.01-.95v-.01c0-.26.01-1.34-.04-1.67z" fill="#b41301"/><path d="m57.6 108c-1.21 0-2.29.28-2.45.88-.37 1.41-1.47 5.1-1.84 7.13-.57 2 .13 2.75 2.17 3.13.22.04.42.06.61.06 1.33 0 1.89-1.01 2.34-2.54l2.78-6.84c.36-1.17-1.77-1.82-3.61-1.82z" fill="#eda600"/><path d="m57.6 33.1-5.94.52.29 3.26c.12 1.39 1.3 2.44 2.69 2.44.08 0 .16 0 .24-.01l.54-.05c1.49-.13 2.59-1.43 2.46-2.91z" fill="#e59600"/><path d="m64.5 21.3c-.74-8.35-5.72-12.1-11-12.1-.32 0-.65.01-.98.04-5.62.49-10.5 5.13-9.68 14 .62 7.13 5.41 11 9.37 12 .73.19 1.43.28 2.07.28.18 0 .36-.01.54-.02.78-.07 1.65-.31 2.54-.71 3.72-1.69 7.76-6.29 7.14-13.4z" fill="#ffca28"/><path d="m52.8 26.3c.03-.02.07-.03.1-.04l2.28-.2c.04 0 .07.01.11.02.21.07.35.27.27.51s-.48.92-1.39 1c-.92.08-1.43-.52-1.54-.74-.13-.22-.03-.45.17-.55z" fill="#e59600"/><g fill="#404040"><ellipse cx="59.1" cy="22.7" rx="1.6" ry="1.65" transform="matrix(.996 -.0872 .0872 .996 -1.76 5.24)"/><ellipse cx="48.4" cy="23.7" rx="1.6" ry="1.65" transform="matrix(.996 -.0872 .0872 .996 -1.88 4.31)"/></g><g fill="#6d4c41"><path d="m56.4 20c.27-.43.92-1.07 2.28-1.19s2.11.4 2.45.78c.15.17.13.37.05.51-.08.12-.32.25-.61.18s-.86-.31-1.78-.23c-.92.09-1.44.42-1.72.54-.27.12-.54.04-.63-.07-.11-.13-.16-.33-.04-.52z"/><path d="m45.8 20.9c.27-.43.92-1.07 2.28-1.19s2.11.4 2.45.78c.15.17.13.37.05.51-.08.12-.32.25-.61.18s-.86-.31-1.78-.23c-.92.09-1.44.42-1.72.54-.27.12-.54.04-.63-.07-.1-.13-.16-.34-.04-.52z"/></g><path d="m51.5 29.1c1.08.52 4.45.23 5.43-.47.56-.4 1.21.08 1.01.64-.19.55-1.93 1.93-3.52 2.07s-3.51-.93-3.8-1.43c-.29-.52.26-1.11.88-.81z" fill="#795548"/><path d="m40.6 27.5c.47-5.01-.18-6.73-.04-8.56.12-1.55.62-11.8 11.7-12.7 12.7-1.11 13.4 10.5 13.4 10.5l.31 4.15s-.09 2.48-1.19 5.48c-1.11 3.01-1.98 4.13-1.68 2.62.33-1.67.62-3.95.43-6.12-.08-.95-.09-4.51-2.12-4.78-7.45-1-11.9-4.52-11.9-4.52-.87 2.44-4.03 5.03-5.16 6-.93.8-.53 3.73-.4 4.98l.95 5.69c-1.26-.66-3.57-1.5-4.32-2.76z" fill="#543930"/><path d="m67 23.7c0 .02 0 .03-.01.05-.02.22-.06.45-.1.67-.54 3.09-25.5 14.6-27.7-.23-.04-.23-.07-.47-.09-.71-.01-.09-.02-.18-.02-.26-.02-.17-.03-.33-.03-.49-.3-3.77.13-6.9 1.2-9.54 1.85-4.61 6.26-7.81 11.5-8.34s10.2 1.71 12.9 5.85c2.46 3.72 3.01 8.49 2.35 13z" fill="url(#j)"/></svg>