<svg enable-background="new 0 0 128 128" viewBox="0 0 128 128" xmlns="http://www.w3.org/2000/svg"><path d="m102.29 125.43-76.02-.37c-3.45 0-6.25-2.8-6.25-6.25l12.2-92.13 70.19-22.18c6.13-.33 6.48 2.53 6.48 5.98l-.37 108.69c.02 3.47-2.78 6.26-6.23 6.26z" fill="#d9cdc9"/><path d="m101.83 122.06s-57.76.98-76.47-.08c-3.58-.2-5.33-1.62-5.34-3.16l-.17-108.49c0-3.45 2.8-6.25 6.25-6.25l75.64.32c3.45 0 4.76 2.86 4.76 6.31l-.57 105.4c-.02 3.45-.65 5.95-4.1 5.95z" fill="#f1edec"/><path d="m29.82 12.56s1.52-3.52 2.23-3.56c.63-.04 2.29 3.62 2.29 3.62s3.44.06 3.74.54-2.47 3.74-2.47 3.74 1.15 3.98.66 4.29c-.48.3-4.16-1.81-4.16-1.81s-3.86 2.11-4.47 1.69c-.6-.42.66-4.59.66-4.59s-2.56-2.65-2.29-3.32c.25-.61 3.81-.6 3.81-.6z" fill="#da0e21"/><path d="m98.27 113.61s-1.5 3.53-2.21 3.58c-.63.04-2.32-3.61-2.32-3.61s-3.57.02-3.87-.46 2.35-3.8 2.35-3.8-.9-3.93-.46-4.29c.61-.49 4.18 1.78 4.18 1.78s3.85-2.14 4.46-1.72-.63 4.59-.63 4.59 2.57 2.63 2.31 3.3c-.25.62-3.81.63-3.81.63z" fill="#da0e21"/><path d="m67.14 27.16c-1.59-.19-5.54 7.32-7.51 12.03-2.71 6.47-2.6 9.4-2.6 9.4l-.14 8.49 16.36-.13s.57-4.58.57-7.19-.55-6.93-1.78-11.46c-1.14-4.2-3.31-10.95-4.9-11.14z" fill="#ffb803"/><path d="m67.78 20.44c-2.14-.07-4.5.77-4.92 4.21-.38 3.08 2.29 4.89 4.39 4.96 3.49.11 5.07-2.37 5.07-5 0-2.3-2.29-4.1-4.54-4.17z" fill="#fd8f01"/><path d="m72.52 57.56 7.62 3.23s1.1-8.05 4.82-11.03c4.27-3.43 7.01-2.26 7.01-2.26l2.68-2.87s-3.23-6.16-11.03-5c-7.19 1.07-10.09 6.07-10.09 6.07s.2 2.29-.21 6.17c-.36 3.24-.8 5.69-.8 5.69z" fill="#00c1ec"/><path d="m91.72 45.06c-1.95 1.84-1.88 5.49.55 7.25 2.26 1.65 5.67 1.59 7.25-1.04 1.47-2.43.87-5.65-1.16-6.77-2.43-1.33-4.5-1.45-6.64.56z" fill="#016aa9"/><path d="m35.75 45.67 2.68 2.44s4.5-2.63 7.93 1.4c3.48 4.08 4.33 10.36 4.33 10.36l7.96-3.95s-.16-7.9-1.02-10.34c-.62-1.78-3.34-6.43-11.58-6.37-6.94.05-10.3 6.46-10.3 6.46z" fill="#ff605e"/><path d="m32.69 52.02c1.8 2.03 5.3 1.84 6.72-.19 1.32-1.89 1.09-4.49-.52-5.96s-4.07-1.94-6.15.09c-1.87 1.84-1.12 4.85-.05 6.06z" fill="#da0e21"/><path d="m50.46 59.41s4.18-4.62 14.99-4.4c11.12.22 14.92 4.48 14.92 4.48s1.85 6.39 0 12.36-3.1 6.32-2.95 7.89c.14 1.56 1.39 3.91 4.59 5.97s6.11 1.99 6.25 2.91-1.63 2.49-5.82 2.13-7.03-1.99-7.25-1.63.64 3.48 2.56 5.82 4.55 3.76 4.19 4.62-6.96 1.21-11.08-2.63-5-6.74-5.78-6.67-2.4 3.42-6.44 6.53c-4.62 3.56-8.67 4.19-9.45 2.84-.92-1.59 2.91-3.13 4.33-6.46 1.42-3.34 2.06-5.47 1.78-5.75s-1.42 2.56-5.47 3.27-6.89 0-6.96-1.07 2.63-1.21 5.9-4.33c3.2-3.06 4.25-4.6 4.2-6.13-.06-1.88-2.12-2.69-3.11-9.21-.78-5.12.6-10.54.6-10.54z" fill="#7958c2"/><path d="m53.08 61.26s2.16-3.82 11.84-3.75c10.13.07 13.22 4.15 13.22 4.15s1.98 19.77-12.62 19.47c-15.49-.34-12.44-19.87-12.44-19.87z" fill="#f1edec"/><g fill="#4f322c"><path d="m71.61 60.68c-.82 0-1.17 1.36-1.3 4.07-.12 2.63.3 4.23 1.21 4.23s1.38-1.43 1.45-3.73c.11-3.06-.42-4.57-1.36-4.57z"/><path d="m68.19 64.76c0 .63 1.26 1.33 3.51 1.37s3.32-.36 3.41-1.16c.07-.63-.84-1.19-3.51-1.26s-3.41.31-3.41 1.05z"/><path d="m58.78 60.8c.82 0 1.17 1.36 1.3 4.07.12 2.63-.3 4.23-1.21 4.23s-1.38-1.43-1.45-3.73c-.11-3.06.43-4.57 1.36-4.57z"/><path d="m62.2 64.89c0 .63-1.26 1.33-3.51 1.37s-3.32-.36-3.41-1.16c-.07-.63.84-1.19 3.51-1.26 2.68-.08 3.41.31 3.41 1.05z"/><path d="m60.36 72.13c-.4.79.6 3.87 5.06 3.93s5.48-2.91 5.2-3.73c-.33-.97-2.2-.43-5.26-.47-2.94-.03-4.6-.53-5 .27z"/></g></svg>