<svg enable-background="new 0 0 128 128" viewBox="0 0 128 128" xmlns="http://www.w3.org/2000/svg" xmlns:xlink="http://www.w3.org/1999/xlink"><linearGradient id="a"><stop offset=".5319" stop-color="#f8cd7f"/><stop offset=".6296" stop-color="#fad593"/><stop offset=".8473" stop-color="#fee4bb"/><stop offset=".9605" stop-color="#ffeaca"/></linearGradient><radialGradient id="b" cx="79.6982" cy="71.5718" gradientUnits="userSpaceOnUse" r="51.1552" xlink:href="#a"/><radialGradient id="c" cx="79.6065" cy="68.2169" gradientUnits="userSpaceOnUse" r="45.1423" xlink:href="#a"/><linearGradient id="d"><stop offset=".5319" stop-color="#f6af3d"/><stop offset=".9585" stop-color="#f6af3d" stop-opacity="0"/></linearGradient><radialGradient id="e" cx="46.6324" cy="78.7651" gradientUnits="userSpaceOnUse" r="9.4423" xlink:href="#d"/><radialGradient id="f" cx="66.0223" cy="80.6235" gradientTransform="matrix(-.4024 -.9155 2.0944 -.9206 -76.2668 215.2872)" gradientUnits="userSpaceOnUse" r="4.4988" xlink:href="#d"/><radialGradient id="g" cx="82.6285" cy="63.218" gradientUnits="userSpaceOnUse" r="4.7157" xlink:href="#d"/><radialGradient id="h" cx="64.6563" cy="34.4346" gradientUnits="userSpaceOnUse" r="7.3087" xlink:href="#d"/><radialGradient id="i" cx="72.6217" cy="40.4065" gradientUnits="userSpaceOnUse" r="9.1781" xlink:href="#d"/><path d="m45.79 74.25s-18.68 2.79-17.25 4.65c2.23 2.9 19.94 18.59 30.25 26.94 9.76 7.91 18.65 16.63 25.32 17.78 10.07 1.74 24.68-1.06 35.33-15.2 6.13-8.14 1.87-19.82-1.06-25.56s-32.45-24.8-32.45-24.8z" fill="#9a9a9a"/><path d="m54.2 84.96s1.27 6.37 4.84 8.54 5.73 1.66 9.56 4.97c3.82 3.31 6.37 9.17 8.54 10.83s6.5 2.93 9.56 5.1 4.08 4.84 7.64 5.35 20.76-3.63 25.97-12.66c5.03-8.71 3.46-17.43 2.18-21.38-1.27-3.95-20.25-28.31-25.35-34.68s-12.36-16.64-12.36-16.64z" fill="#b0b0b0"/><path d="m83.76 62.53s.82 3.83 1.78 8.19c.81 3.7 2.58 9.47 4.87 10.36s5.2.18 5.2.18 3.65 12.75 5.73 14.27c1.4 1.02 5.61 0 6.37.89s4.2 10.57 6.37 10.57 4.02-3.01 5.73-8.79c2.04-6.88.09-11.28-3.57-16.56-4.59-6.63-17.71-23.95-21.15-27.9s-5.73-6.63-6.75-5.99c-1.01.64-4.58 14.78-4.58 14.78z" fill="#e0e0e0"/><path d="m115.12 95.26c-1.49 0-2.33 2.37-2 4.89s.75 3.97 2.56 3.81c2.11-.19 1.78-3.18 1.74-4.89s-.63-3.81-2.3-3.81z" fill="#fff"/><path d="m97.3 77.45c2.35 2.52 5.6 4.09 8.4 7s5.26 7.5 7.45 8.62c2.18 1.12 4.03 1.01 4.59-.62.56-1.62-.84-4.31-2.52-5.6s-2.97-2.07-3.58-3.36-.34-3.25-2.46-5.43c-2.13-2.18-7.11-3.42-8.45-5.09-1.34-1.68-.73-5.99-2.74-7.78-2.02-1.79-4.42-1.12-4.42 1.74s1.18 3.14 1.74 5.09c.53 1.96.36 3.69 1.99 5.43z" fill="#fff"/><path d="m89.57 67.82c2.36.34 3.58-2.63 3.75-6.38s.58-7.91-2.63-8.45c-2.97-.5-3.47 7.33-3.58 10.25-.08 1.89.11 4.24 2.46 4.58z" fill="#fff"/><path d="m33.42 65.45s-12.58 7.82-3.48 14.87 18.01 8.93 31.62 4.99c14.96-4.33 23.46-18.24 26.09-27.51 2.63-9.26 1.78-17.51-2.04-23.2s-8.41-9.77-10.62-10.28-21.16 35.7-21.16 35.7z" fill="#807f7d"/><path d="m74.89 68.73 3.33-.11s2.58-3.57 2.89-4.34c.31-.78-9.33-27.37-9.23-27.89s-5.01-26.89-14.62-30.58c-6.74-2.59-10.89-1.56-13.79-1.76s-4.58-.96-8.81-.41c-5.6.73-13.06 1.87-22.19 12.44-8.8 10.2-7.14 17.2-6.94 24.35s-1.21 13.07 2.52 18.26 12.41 8.59 12.41 8.59z" fill="#f6b140"/><path d="m61.71 18.32c-.16-1.21-.38-6.85-8.4-6.97-3.98-.06-6.64 2.09-6.64 2.09s-7.65-2.06-13.6.26c-3.4 1.32-11.27 15.3-11.27 15.3l9.72 2.19z" fill="#a1c23c"/><path d="m52.91 24.45c.06-.31 8.73-5.86 8.73-5.86s.5-1.98-4.21-2.4c-3.49-.31-5.27 2.15-5.27 2.15s-4.33-2.08-7.55.69c-2.19 1.88-.5 3.62-.5 3.62z" fill="#95a61d"/><path d="m24.02 29.31s.23-3.54 3.43-8.24c3.74-5.49 9.73-6.68 9.86-7.49.13-.87-4.93-1.5-9.73 1.56-4 2.55-7.4 7.02-7.9 12.08-.58 5.86 4.34 2.09 4.34 2.09z" fill="#95a61d"/><path d="m27.3 32.1c.04 1.16-10.43 2.58-11.86 2.58s-3.19-1.42-2.64-3.37c.68-2.45 4.15-2.93 6.26-2.93 2.72 0 8.1.12 8.24 3.72z" fill="#ffd61c"/><path d="m26.41 33.35s-3.81-1.23-8.44.27c-4.52 1.46-6.38 3.7-7.49 7.83-1.53 5.72 1.36 12.32 1.36 12.32l9.19 6.13s7.49-5.79 7.21-6.53-1.83-20.02-1.83-20.02z" fill="#fffffe"/><path d="m11.91 48.26c-.98.63-2.04 3.33.61 7.76 2.47 4.12 4.56 4.76 5.99 3.33s-1.75-3.47-3.27-6.74c-.71-1.53-1.63-5.44-3.33-4.35z" fill="#ffd61c"/><path d="m20.01 49.55s-3.47-2.72-2.11-8.58 8.24-9.39 8.24-9.39-.41-8.3 6.87-11.3 15.72 4.22 15.72 4.22l3.88 21.1z" fill="#fab16e"/><path d="m36.13 27.15c-.9 2.26-2.27 6.29.19 7.02s4.8-3.26 5.53-5.15 1.97-4.92-.25-6.13-4.45 1.7-5.47 4.26z" fill="#d27857"/><path d="m32.07 26.67c-1.98-.15-3.26 1.96-3.19 5.66.05 2.56.63 4.26 2.66 4.31 2.23.05 2.47-3.34 2.61-5.27s.31-4.52-2.08-4.7z" fill="#d27857"/><path d="m21.13 46.07c.74 1.47 3.63 1.94 7.26-.29 2.83-1.73 4.06-4.06 3.68-5.56-.39-1.5-4.11-1.98-7.31.05-3.19 2.03-4.45 4.16-3.63 5.8z" fill="#d27857"/><path d="m44.02 18.3c-1.72.39-3.73 1.84-3.29 4.6.37 2.33 3.24 2.56 5.23 2.13 1.7-.37 3.97-2.56 3.53-4.69-.44-2.14-2.71-2.67-5.47-2.04z" fill="#543630"/><path d="m35.26 40.07c1.5 2.84 5.57.57 6.97-.34 1.47-.96 3.15-3 2.47-4.74s-2.95-2.37-6.1-.77-4.31 4.01-3.34 5.85z" fill="#543630"/><path d="m61.65 18.58s-3.14-.11-7.39 3.1c-9.53 7.19-11.29 23.12-11.29 23.12l-4.13 1.2s-2.58-.25-4.63.22c-2.9.64-5.21 2.81-5.21 2.81l-8.43 12.17s4.33 1.96 10.7 1.3c3.85-.4 19.45.27 19.45.27s15.69-1.64 15.47-2-3.51-4.8-4.59-7.47c-1.09-2.68.92-21.64.92-21.64l-1.16-6.51z" fill="#6d4c41"/><path d="m43.96 41.01c2.14.68 3.43-1.22 3.97-2.39.85-1.83 1.58-3.97 3.7-6.09 2.46-2.47 4.8-3.12 3.56-5.56-1.45-2.86-7.13 3.13-7.13 3.13s1.42-3.09 3.47-4.96c1.77-1.61.55-4.9-2.62-2.75-3.3 2.24-5.37 5.91-6.18 8.71-.69 2.39-1.34 9.1 1.23 9.91z" fill="#ffd61c"/><g fill="#8d6256"><path d="m58.45 30.45c-2.54-.68-5.02.77-6.68 5.28-1.13 3.07.05 6.36 1.94 6.86 3.32.87 6.68-3.84 6.99-7.13.32-3.3-.4-4.51-2.25-5.01z"/><path d="m37.55 47.87c.54 1.95 5.14 2.53 7.94 1.35 3.43-1.44 4.87-4.51 4.06-6.63s-4.54-2.74-7.67-1.22c-3.06 1.49-5.05 3.88-4.33 6.5z"/><path d="m47.21 53.69c.72 2.43 4.06 2.21 5.51 1.71 1.44-.5 3.88-1.58 3.34-4.29s-3.56-2.3-5.19-2.03c-1.63.28-4.38 2.17-3.66 4.61z"/><path d="m29.48 56.85c.31 1.38-.05 3.83-4.87 4.47-3.42.45-6.36-.14-6.63-2.71-.48-4.58 4.6-4.33 4.6-4.33s-4.02-.14-4.15-3.75c-.1-2.62 2.8-4.24 6.5-4.87s6.58.72 6.99 3.25c.63 3.84-5.14 5.46-5.14 5.46s2.32.84 2.7 2.48z"/></g><path d="m40.22 52.6c.23 2.98-3.52 3.84-6.09 3.7-1.8-.09-5.41-1.25-4.74-4.11.81-3.43 5.32-3.25 7.08-2.98s3.6 1.46 3.75 3.39z" fill="#fab16e"/><path d="m19.46 68.67c2.01 1.73 10.17 9.58 13.58 11.75 3.42 2.17 10.08 5.75 21.5 3.42s17.5-8.83 19.91-11c2.42-2.17 3.35-4.09 3.34-4.21s-18.34-9.7-24.09-9.29c-5.75.42-16.75 4.75-22.75 5.75s-19.83-3.08-19.83-3.08 4.84 3.66 8.34 6.66z" fill="url(#b)"/><path d="m63.12 50.01v-23.06l2.04-11.47-2.6-6.27s10.91 12.89 14.56 17.83c3.65 4.93 6.89 8.45 7.69 11.51.92 3.51 1.05 11.19-.35 16.72-1.7 6.69-4.02 10.18-4.02 10.18s-5.2-2.46-10.13-6.21-7.19-9.23-7.19-9.23z" fill="url(#c)"/><path d="m72.97 34.72c-1.64.39-2.13 4.58-1.58 7.9.62 3.7 1.58 6.32 4.03 5.84 2.45-.47 1.89-5.92 1.18-9.63s-1.97-4.51-3.63-4.11z" fill="#f6c977"/><path d="m66.42 42.45c-1.74-.55-3.55 1.58-3.71 5.84s1.82 4.11 2.53 4.26 2.68-1.5 2.84-4.82c.12-2.67-.23-4.82-1.66-5.28z" fill="#f6c977"/><path d="m55.05 72.54c-2.43 2.06-2.61 5.76-1.42 7.82 1.18 2.05 2.29 3.16 2.29 3.16s5.17-1.26 7.95-2.68c2.52-1.29 5.86-3.87 5.86-3.87s-5.12-4.89-8.6-5.68-5.06.38-6.08 1.25z" fill="#f6c977"/><path d="m76.34 54.99c-.22 1.79.46 3.55 1.9 4.62 1.68 1.25 5.1 0 3.14-3.79-1.91-3.7-4.8-2.79-5.04-.83z" fill="#f7bf5e"/><path d="m36.78 72.1c-1.32 2.01-.68 5.6 4.07 7.01 3.29.98 5.57-.47 6.28-2.01s.62-5.07-3.97-6.52c-3.2-1.02-5.25-.2-6.38 1.52z" fill="#f6c977"/><path d="m38.6 74.42c-.52 1.62 1.13 3.44 3.91 3.79s4.27-.36 4.74-1.96-1.78-3.38-4.33-3.67c-2.24-.25-3.85.36-4.32 1.84z" fill="url(#e)"/><path d="m55.96 76.62c-.69.84-.71 3.32 1.48 4.21s3.56-.36 3.85-1.3c.3-.95-.26-2.53-1.66-3.26-1.25-.66-2.84-.66-3.67.35z" fill="#f7bd5c"/><path d="m60.27 82.23s-.88-3.26 1.14-4.34 3.23.13 3.23.13.47-1.38 2.19-1.63c1.72-.26 2.84.6 2.84.6s-2.63 2.13-4.55 3.23c-1.96 1.13-4.85 2.01-4.85 2.01z" fill="url(#f)"/><path d="m83.17 59.58s-3.31-1.46-4.24.82c-.96 2.34 1.87 4.54 1.87 4.54s.9-1.76 1.33-2.8c.52-1.25 1.04-2.56 1.04-2.56z" fill="url(#g)"/><path d="m67.72 27.85c-1.43 0-2.43 2.2-2.34 4.03s1.1 3.62 2.7 3.53c2.25-.13 2.35-2.43 2.29-4.21-.04-1.43-.86-3.35-2.65-3.35z" fill="url(#h)"/><path d="m78.14 37c.15-.61.16-1.31.03-2-.32-1.65-1.72-2.94-3.39-2.38-1.79.6-1.74 3.3-1.33 4.4.19.49.54.95 1.01 1.28-.41 1.13-.36 2.58-.23 3.58.23 1.83 1.01 3.66 2.7 4.17 1.45.43 2.7-.41 2.84-2.93.11-2-.15-5-1.63-6.12z" fill="url(#i)"/><path d="m47.67 57.9c-5.74 1.15-13.27 3.63-20.48 5.01-7.18 1.37-14.7-1.55-16.52-1.7s5.46 5.11 6.78 5.82c1.08.58 5.37 1.47 15.49-.8s14.18-4.21 18.7-4.13c6.83.12 11.45 1.17 17.11 4.57 5.26 3.15 5.83 4.05 6.96 4.94.89-.93 2.96-3.6 2.96-3.6s-15.3-13.27-31-10.11z" fill="#ffebc8"/><path d="m68.85 57.76c-.24.49-2.99.13-4.94-1.17-1.94-1.3-3.69-5.13-4.19-9.88-.57-5.42.16-14.63 1.62-21.56s2.09-9.19 1.45-12.21c-.7-3.31-2.39-3.76-2.87-5.37-.33-1.1 3.02 1.71 4.5 3.36 4.89 5.44 1.24 9.51.43 17.61-.69 6.89-1.45 15.12.09 20.14s3.91 9.08 3.91 9.08z" fill="#ffebc8"/></svg>