<svg enable-background="new 0 0 128 128" viewBox="0 0 128 128" xmlns="http://www.w3.org/2000/svg"><path d="m60.55 98.3c-16.79 4.83-26.01-18.83-29.53-27.27-7.02-16.86-25.33-28.62-23.98-41.03s16.6-11.17 16.6-11.17" fill="none" stroke="#bdbdbd" stroke-linejoin="round" stroke-miterlimit="10" stroke-width="6"/><path d="m59.5 98.3c16.89-4.48 11.39-28.91 10.07-37.96-2.63-18.08 7.04-37.57-.49-47.52s-19.98-1.06-19.98-1.06" fill="none" stroke="#bdbdbd" stroke-linejoin="round" stroke-miterlimit="10" stroke-width="6"/><circle cx="101.84" cy="32.23" fill="#878787" r="15.25"/><circle cx="102.38" cy="31.13" fill="#bdbdbd" r="13.41"/><path d="m69.39 58.93c-.89 6.74 10.14 31.36-6.97 38.1-19.16 7.56-26.31-20.55-31.39-26" fill="none" stroke="#03a9f4" stroke-miterlimit="10" stroke-width="8"/><path d="m32.63 73.54s10.77 11.36 23.4 6.15c11.97-4.94 13.83-18.05 13.83-18.05" fill="none" stroke="#03a9f4" stroke-miterlimit="10" stroke-width="5"/><path d="m100.96 21.43c-5.24 1.22-8.49 6.45-7.28 11.69.18.78.46 1.54.83 2.26.29.57.68 1.34.68 1.34-1.92 2.51-3.48 3.47-4.01 6.38 1.36 1.33 2.95 2.39 4.69 3.13 0-.01.01-.02.01-.03 0 .01.01.02.01.04 2.87 1.22 6.14 1.59 9.42.83.37-.09.72-.2 1.07-.31l-.31-2.8s.4-3.55.49-3.74c.23-.45 1.16-.69 1.64-.97 1.16-.7 2.17-1.65 2.95-2.76 1.57-2.25 2.12-5.11 1.5-7.78-1.22-5.24-6.46-8.5-11.69-7.28z" fill="#212121" opacity=".22"/><path d="m60.42 96.03c9.59 21.97 24.29 25.08 35.15 23.19 9.54-1.67 22.17-10.22 22.14-25.72-.04-18.68-12.5-17.5-19.25-29.47-8.41-14.92 3.05-28.62 3.05-28.62" fill="none" stroke="#03a9f4" stroke-miterlimit="10" stroke-width="8"/><path d="m94.74 38.77s1.9-.97 3.72.07c2.88 1.64 3.16 3.98 3.16 3.98s1.74-3.46 2.67-4.4c.92-.95-5.57-5.66-7.04-3.85s-2.51 4.2-2.51 4.2z" fill="#212121" opacity=".22"/><path d="m27.83 14.04c-1.5.01-2.82.73-3.69 1.82l-1.24-.98c-1.13-.89-2.79-.08-2.78 1.36l.04 5.19c.01 1.44 1.68 2.23 2.79 1.32l1.21-.98c.88 1.09 2.22 1.8 3.73 1.79 2.63-.02 4.75-2.17 4.73-4.8s-2.16-4.74-4.79-4.72z" fill="#616161"/><path d="m53.13 12.22-2.65-4.46c-.74-1.24-2.58-1.07-3.08.27l-.55 1.48c-1.31-.49-2.81-.42-4.1.35-2.26 1.34-3.01 4.27-1.66 6.53 1.34 2.26 4.27 3.01 6.53 1.66 1.3-.77 2.08-2.07 2.27-3.46l1.54.21c1.42.19 2.44-1.34 1.7-2.58z" fill="#616161"/><circle cx="104.19" cy="29.3" fill="#424242" r="9.12"/><circle cx="104.65" cy="28.59" fill="#d1d1d1" r="7.08"/><g fill="#757575"><path d="m42.37 15.11c-.83-1.19-.67-3.41.76-4.42s3.59-.57 4.42.76c.93 1.48-1.5.15-2.93 1.16s-1.25 3.94-2.25 2.5z"/><path d="m25.01 17.25c.36-1.41 2.13-2.74 3.83-2.32s2.78 2.33 2.32 3.83c-.51 1.67-1.1-1.04-2.8-1.45-1.69-.42-3.78 1.64-3.35-.06z"/></g></svg>