<svg enable-background="new 0 0 128 128" viewBox="0 0 128 128" xmlns="http://www.w3.org/2000/svg" xmlns:xlink="http://www.w3.org/1999/xlink"><clipPath id="a"><path d="m80 97.3c-1.7 7.6-6.2 12.3-13.5 12.6.4 3.2-3.3 10.4-16.7 10.4-3.2 0-11.3-.1-19.1-6.9-4.7-4.1-16.2-13.1-20.7-23.4-2.1-4.9-3.7-9.4-2.3-13 2.5-6.6 8.4-5 7.1-13.9-.5-3.5.6-10.6 7.8-13.1 2.7-.9 6.1-4.2 5.4-9s2.2-11.8 11.8-14.2c10.8-2.8 6.5-12 15.8-16.6 9.8-5 17.9-1.7 22.2 5.4 1.6 2.6 3.1 5 3.7 11.2 7.6 9.1 13.5 22.3 22.7 26.7 2.7 1.3 8.9 2.4 12 10.5 1.6 4.1 3.2 8.6 3.8 10.2 2 5.5-.4 13.3-5.5 16.3-6.5 3.8-13.5 9.2-16.3 12.1-.9.8-11.3 8.7-18.2-5.3z"/></clipPath><clipPath id="b"><path d="m80 97.3c-1.7 7.6-6.2 12.3-13.5 12.6.4 3.2-3.3 10.4-16.7 10.4-3.2 0-11.3-.1-19.1-6.9-4.7-4.1-16.2-13.1-20.7-23.4-2.1-4.9-3.7-9.4-2.3-13 2.5-6.6 8.4-5 7.1-13.9-.5-3.5.6-10.6 7.8-13.1 2.7-.9 6.1-4.2 5.4-9s2.2-11.8 11.8-14.2c10.8-2.8 6.5-12 15.8-16.6 9.8-5 17.9-1.7 22.2 5.4 1.6 2.6 3.1 5 3.7 11.2 7.6 9.1 13.5 22.3 22.7 26.7 2.7 1.3 8.9 2.4 12 10.5 1.6 4.1 3.2 8.6 3.8 10.2 2 5.5-.4 13.3-5.5 16.3-6.5 3.8-13.5 9.2-16.3 12.1-.9.8-11.3 8.7-18.2-5.3z"/></clipPath><path d="m80 97.3c-1.7 7.6-6.2 12.3-13.5 12.6.4 3.2-3.3 10.4-16.7 10.4-3.2 0-11.3-.1-19.1-6.9-4.7-4.1-16.2-13.1-20.7-23.4-2.1-4.9-3.7-9.4-2.3-13 2.5-6.6 8.4-5 7.1-13.9-.5-3.5.6-10.6 7.8-13.1 2.7-.9 6.1-4.2 5.4-9s2.2-11.8 11.8-14.2c10.8-2.8 6.5-12 15.8-16.6 9.8-5 17.9-1.7 22.2 5.4 1.6 2.6 3.1 5 3.7 11.2 7.6 9.1 13.5 22.3 22.7 26.7 2.7 1.3 8.9 2.4 12 10.5 1.6 4.1 3.2 8.6 3.8 10.2 2 5.5-.4 13.3-5.5 16.3-6.5 3.8-13.5 9.2-16.3 12.1-.9.8-11.3 8.7-18.2-5.3z" fill="#ffca28"/><g clip-path="url(#a)" fill="#faa700"><path d="m79.5 25.9c-.6-3.2-3.9-15.1-14.4-15.7-2.9-.2-10.9.6-14.4 9.6-1.1 2.8-1.6 7.8-10.3 9.8-4.2 1-10.3 3.2-9.5 12 .4 4-.7 9.4-7.4 11.4-2.1.6-7.2 3.8-5.9 10.5.9 4.9-.2 8.3-4.3 11.1-1.2.9-4.3 4.5-2.2 10.6 2.8 8.2 16.9 27.3 31.5 28.9 4.4.5 9.4-5.6 5.3-10.8-1.2-1.5.7-3.5 2.9-1.9s7.6 3.2 13.4-3.3c2.5-2.8 4.1-5.8.4-11.6-1.9-3-3.1-6.3-.9-4.9 4.7 3 9.3 1.5 13.8-3.9 4-4.6 5.9-5.9 3-14.3-1.1-3.1-10.4-14.2-10.4-14.2l10.6-23.6 1.7-.2 30.7 30.1s-.2 3.2-4.6 1.4-11.1-4.4-14.2-9-7.9-10.6-8.5-11.6c-.9-1.4-2.9-1-2 1.1 7.5 19 2.8 23.2 4.4 26.7.7 1.6 2.9-.2 4.6-4.1.9-2.1 4.7-1.8 2 8.9-.6 2.4-3.2 5.5-3.7 6.2-1.3 1.8-1 4.6 1.2 2.8 2.8-2.2 7.1-4.9 10.3-5.6s4.6.9 5.5 2.1 4.8 5.4 5.6 6.2c.8.9 2.8 2.7.8 5.6-1.4 1.9-17.1 19.8-17.1 19.8l-40.3 16.8h-22l-29.6-31.7-2.5-18.7 22.8-45 32.4-22.9 19.2 1.7 5 16.6z"/><path d="m71.5 19.5c-7.5 0-12.2 3.3-15.8 8.6-.7 1-2.7.5-2-1.3 3.1-8.2 10-11.9 18.3-9.9 1.5.4 1.6 2.6-.5 2.6z"/></g><g clip-path="url(#b)" fill="#b55e19"><path d="m96.1 104.3c.8-1 3.8-4.3 5.9-7.5s5.9-5.5 8.2-6.8c3.3-2 9-7.4 7.1-14.8-.6-2.3-3.3-9.8-3.7-11-.7-2-2.6-5.5-7.4-7.8-2.3-1.1-6.4-4.1-7.1-4.8s-1.3-2-.4-3.1c.9-1.2 2.9-.4 2.9-.4l17 9.1 6.6 24.4-5.1 10s-22.4 13.7-23.2 14.1-1.6-.4-.8-1.4z"/><path d="m24.8 108.3c17.2 13.1 32 9 34 7.7 2.4-1.5 4.2-2.8 4.6-6-11-2.6-13.5-2.6-28.3-20.5-3-3.6-4.5-2.2-6.1-4.2-.9-1.1.6-2.9 1.1-3.5 1.1-1.3 2.8-2 3.9-.8 1.7 1.8-.2 1.8 3.4 5.6 14.5 15.8 15 18.8 27.9 20.6 3 .4 10.8-3.2 11.7-12.3-8.6-2.6-14.9-9.8-28.4-24.2-1.7-1.8-3.2-.8-4.1-2.2-1.2-1.8.9-3.4 2-4.2 1.1-.7 2.6-1.6 3.7-.4 1.1 1.3.4 1.5 2 3.4 12.2 14.9 17.1 21.4 22.6 22.3 1.7.3 3.7 1 7.8-4.3 3.2-4.2 3.9-6.9 3.1-10.8-.7-3.4-.9-7.1-17.1-22.8-5 .2-13.6-7.6-16.2-18.5-.3-1.4 1-1.5 1.5-.6 5.9 10.8 15.3 7.4 18 5.9 3-1.6 10.3-6.9 6.4-20.4-.2-.8 0-1.6.9-1.8 2.7-.6 6.5 6.1 2.4 10.3.5 2.9 1.9 17.7-7.1 23.8 8.6 10.5 12.4 15.5 12.8 17 1-6.4 5.7-8 6.4-8.2.9-.2 1.7.3 1 1.1s-4.5 3.8-4.8 10.3c-.1 1.7 1.2 1.4 1.7.9 2-1.9 6.3-4.3 10.2-3.9 1.3.2 1.8 1.4.2 2-2.4.8-6.2 1.4-9.7 5.8-1.5 1.8-7.1 10.3-7.6 11.1-2.5 3.9-2.6 10.8 0 15.1 1.2 2.1 0 3.1 0 3.1l-22.5 17.8-26.5-.2-14.8-16.7z"/></g></svg>