<svg enable-background="new 0 0 128 128" viewBox="0 0 128 128" xmlns="http://www.w3.org/2000/svg"><path d="m116.46 3.96h-104c-4.42 0-8 3.58-8 8v104c0 4.42 3.58 8 8 8h104c4.42 0 8-3.58 8-8v-104c0-4.42-3.58-8-8-8z" fill="#f77e00"/><path d="m110.16 3.96h-98.2c-4.13.03-7.47 3.37-7.5 7.5v97.9c-.01 4.14 3.34 7.49 7.48 7.5h.02 98.1c4.14.01 7.49-3.34 7.5-7.48 0-.01 0-.01 0-.02v-97.9c.09-4.05-3.13-7.41-7.18-7.5-.07 0-.15 0-.22 0z" fill="#ff9800"/><path d="m40.16 12.86c0-2.3-1.6-3-10.8-2.7-7.7.3-11.5 1.2-13.8 4s-2.9 8.5-3 15.3c0 4.8 0 9.3 2.5 9.3 3.4 0 3.4-7.9 6.2-12.3 5.4-8.7 18.9-10.6 18.9-13.6z" fill="#ffbd52" opacity=".75"/><g fill="#fafafa"><path d="m82.56 91.96h-10.2c-1.05 0-1.9-.85-1.9-1.9v-52.2c0-1.05.85-1.9 1.9-1.9h10.3c1.05 0 1.9.85 1.9 1.9v52.3c-.1 1.03-.97 1.81-2 1.8z"/><path d="m104.56 91.96h-10.2c-1.05 0-1.9-.85-1.9-1.9v-52.2c0-1.05.85-1.9 1.9-1.9h10.3c1.05 0 1.9.85 1.9 1.9v52.3c-.1 1.03-.97 1.81-2 1.8z"/><path d="m18.46 63.96v-25.7c-.03-1.25.96-2.28 2.21-2.31.42-.01.83.1 1.19.31l43.4 25.7c1.13.72 1.47 2.22.75 3.35-.19.3-.45.55-.75.75l-43.4 25.6c-1.08.63-2.46.27-3.09-.81-.21-.36-.32-.77-.31-1.19z"/></g></svg>