<svg enable-background="new 0 0 128 128" viewBox="0 0 128 128" xmlns="http://www.w3.org/2000/svg"><path d="m63.38 20.45c-23.91.53-42.58 11.32-50.77 37.62s8.19 65.31 50.43 65.95 63.8-41.81 50-73.07c-10.39-23.56-33.29-30.86-49.66-30.5z" fill="#efe4af"/><g fill="#b4de58"><path d="m82.04 112.09c-1.03.57-5.63 10.61-5.63 10.61s1.52-.34 2.37-.56c.78-.2 2.2-.68 2.2-.68s3.77-6.66 3.59-7.89c-.17-1.21-1.75-1.91-2.53-1.48z"/><path d="m89.03 109.47c-1.38.55-1.66 5.25.35 5.68 2.01.44 3.24-1.75 3.41-2.97.18-1.22-2.01-3.41-3.76-2.71z"/><path d="m79.59 108.95c.78.12 4.2-8.57 4.11-9.36s-3.93-2.89-5.33-2.27-2.89 4.81-2.27 7.52c.6 2.71 2.35 3.93 3.49 4.11z"/><path d="m81.69 87.7c-.96.16-2.61 4.89-2.36 5.6.87 2.45 5.07 2.8 5.68 2.45s1.49-5.25 1.14-5.95-3.41-2.28-4.46-2.1z"/><path d="m68.92 91.72c-.05.27 2.62.09 2.62.09s3.06 1.66 3.15 3.41-2.36 5.25-2.71 4.63c-.35-.61-2.97-8.65-3.06-8.13z"/><path d="m74.87 109.56c-.44.87-.09 4.11 1.14 4.46 1.22.35 2.27-.87 2.1-2.8-.18-1.92-2.72-2.71-3.24-1.66z"/><path d="m88.16 94.87c-1.15.18-2.19 3.85-1.4 4.9s3.67.7 4.28-.44-1.75-4.64-2.88-4.46z"/><path d="m85.45 103.61c-1.36.6-1.49 3.41-1.4 4.02s1.4 1.57 2.19 1.49c.79-.09 2.1-2.27 2.1-3.76-.01-1.49-2.11-2.1-2.89-1.75z"/><path d="m91.74 103.79c.04.9 1.05 2.54 1.75 2.54s2.89-4.37 2.89-4.37l-1.66-5.77c0-.01-3.15 3.57-2.98 7.6z"/><path d="m88.95 91.89c-.03.55.96 1.49 1.66.26.7-1.22 3.06-7.52 3.32-8.48s-.7-2.62-1.92-2.62c-1.23 0-2.98 9.36-3.06 10.84z"/><path d="m70.14 85.51s2.36 3.85 4.9 3.76 3.76-2.8 3.59-3.24-4.55-4.37-5.33-4.11c-.79.27-3.16 3.59-3.16 3.59z"/><path d="m69.62 57.44s4.63-.52 5.25 3.06-4.72 12.42-4.72 12.42l-3.06-10.14z"/><path d="m66.82 44.76s3.67-.87 3.76-.26-3.93 9.53-4.02 8.39c-.09-1.13.26-8.13.26-8.13z"/><path d="m70.58 52.2c.64 1.92 4.2 3.24 5.16 3.15s3.06-3.15 3.24-4.02c.17-.87-.61-6.03-2.27-6.21s-6.65 5.5-6.13 7.08z"/><path d="m78.36 65.05c.68 1.37 5.25 1.75 5.42 1.14s1.31-3.93.61-5.42-5.42-1.4-5.86-.61c-.43.78-.86 3.49-.17 4.89z"/><path d="m73.82 72.39c-.42.66-1.4 3.93-.52 3.59.87-.35 9.53-4.11 9.27-5.6s-2.62-1.4-3.59-1.4-4.55 2.45-5.16 3.41z"/><path d="m75.48 79.04c.31.86 2.62 2.01 3.59 1.92.96-.09 4.63-4.72 4.98-5.51s0-2.19-1.75-1.92-7.17 4.55-6.82 5.51z"/><path d="m86.15 74.41c-.07.8 1.92 3.93 4.46 3.41s2.27-9.62 1.49-10.06c-.79-.44-2.97 3.15-3.59 4.02s-2.28 1.66-2.36 2.63z"/><path d="m85.1 78.6c-.83 0-3.5 4.72-3.15 5.42s3.67 2.89 4.98 2.1.96-5.77.79-6.38-2.1-1.14-2.62-1.14z"/><path d="m96.29 52.37s1.84-.96 2.45-.35 2.27 2.36 1.66 2.97-3.76 4.11-3.76 3.85-.35-6.47-.35-6.47z"/><path d="m82.3 50.1c-.74.25-2.62 6.03-2.36 6.82s4.28.09 4.81-.35.35-4.55 0-5.16-1.93-1.49-2.45-1.31z"/><path d="m86.23 68.55c-.03.7 1.05 1.05 1.57.61s2.71-4.28 2.62-5.25c-.09-.96-1.84-1.75-2.27-1.14-.43.62-1.74 2.1-1.92 5.78z"/><path d="m70.41 40.92c.46.08 2.89-2.1 2.62-3.5s-2.36-3.24-2.89-2.62c-.52.61-.26 6.03.27 6.12z"/><path d="m80.81 32.26c-.82.61.87 2.71 1.92 2.8s2.8-.44 2.89-1.22c.09-.79.44-2.8-.96-3.24s-3.15 1.13-3.85 1.66z"/><path d="m88.07 29.11s.26 5.42 1.49 5.6c1.22.17 2.8-4.55 2.8-4.55z"/><path d="m91.31 39.08c.07.7 3.85.7 4.46.17.61-.52-.26-5.42-.79-5.6s-3.76 4.55-3.67 5.43z"/><path d="m92.09 43.8c-.44.87.35 2.71 1.66 2.8s2.19-2.27 1.84-2.89c-.35-.61-3.18-.54-3.5.09z"/><path d="m99.35 42.84c-.91.36-2.71 5.07-2.36 5.68s2.36 1.57 3.06 1.49c.7-.09 2.8-4.72 2.45-5.68-.35-.97-2.27-1.84-3.15-1.49z"/><path d="m104.09 47.86c-.38-.13-2.49 3.76-2.43 4.05s.52 1.45 1.33 1.1 2.31-2.49 2.31-3.01-.69-1.96-1.21-2.14z"/><path d="m102.12 57.17c-.54 1.08.75 1.85.4 3.18s-1.1 3.58-.64 4.11c.46.52 4.8-.52 5.15-.93.35-.4.75-4.68.35-5.61s-4.33-2.6-5.26-.75z"/><path d="m105.65 54.11c.32.68 5.09.46 5.03.12-.06-.35-1.1-3.87-1.1-3.87s-4.33 2.88-3.93 3.75z"/><path d="m110.28 60.64c-.52.47-1.73 4.45-1.5 6.01s1.91 5.26 2.66 5.32.23-7.98.12-9.14c-.13-1.15-.65-2.77-1.28-2.19z"/><path d="m103.74 68.16c-.05.83 1.62 8.04 3.01 8.33s2.78-1.04 2.83-1.97c.06-.93-2.43-6.82-2.89-7.81-.46-.98-2.89.41-2.95 1.45z"/><path d="m106.4 80.07c-.62.82-1.85 3.35-1.16 4.22s2.02 1.1 3.93.69c1.91-.4 2.08-1.39 2.2-1.91s.58-3.12-.06-3.87c-.63-.75-4.56.41-4.91.87z"/><path d="m104.84 91.57c1.74 0 1.79-1.1 3.58-1.79s2.89-1.16 3.06-1.56.75-2.6.35-2.78-1.33.93-2.78 1.21c-1.45.29-2.43.12-3.24.52s-2.14 1.62-2.08 2.66c.07 1.05.65 1.74 1.11 1.74z"/><path d="m105.13 95.74c-1 1.45.64 3.18 1.39 3.35s2.8-.05 2.8-.05 1.29-2.06 1.84-3.21c.42-.89 1.26-2.66 1.26-2.66s.18-1.48-.46-2-2.78.52-3.82 1.45-2.49 2.37-3.01 3.12z"/><path d="m48.4 22.34s2.05-.48 2.74-.62c1.24-.27 2.38-.4 2.38-.4s0 1.21-.81 1.45c-.8.22-4.31-.43-4.31-.43z"/><path d="m65.34 20.43s6.63-.02 11.28 1.3c3.98 1.13 9.14 2.83 9.14 2.83l-6.13 1.04s2.14-.81 1.62-1.5-3.12-1.68-3.64-1.04.29 2.2.29 2.2l-2.05.75s.53-1.86-.34-2.26-1.52-.28-2.3-.98c-.62-.56-3.19-2.8-6.11-1.14-2.05 1.17-1.76-1.2-1.76-1.2z"/><path d="m35.69 28.53 14.22-2.37s.81-.87-.4-1.27-4.22-.23-4.22-.23-.39-.42-.93-.59c-.55-.18-1.12-.17-1.12-.17s-4.47 1.66-6.38 2.76-2.96 2.22-2.96 2.22z"/><path d="m36.27 32.65s.66 2.44 2.2 2.08c1.5-.35 1.91-1.27 2.43-2.66.17-.46.46-1.68.46-1.68z"/><path d="m42.97 29.71c-.06.17.46.81.06 1.97s-1.62 3.06-.64 3.58 3.12-1.91 3.7-2.37-.12-3.41-.12-3.41z"/><path d="m33.14 35.72c.07.75 2.83 3.53 3.53 3.64.69.12 1.79-.87 1.33-1.62s-2.72-2.83-3.3-3.18c-.57-.34-1.67-.11-1.56 1.16z"/><path d="m32.05 39.48c-.35-.32-1.45.4-1.39 1.27s1.39 1.85 1.5 3.06-.59 3.3.12 4.11c1.21 1.39 3.64-1.5 3.41-3.35s-3.01-4.51-3.64-5.09z"/><path d="m24.99 42.83c0 .29 1.45 4.22 2.31 4.51.87.29 1.62-2.08 1.56-3.01s-2.6-6.36-2.6-6.36z"/><path d="m28.4 51.91c-.41.9-.35 3.87.12 4.16.46.29 2.89-.98 3.53-1.45.64-.46 2.31-1.27 2.26-2.02-.06-.75.23-3.64-.4-3.76s-2.2 1.33-3.24 1.73c-1.05.41-1.92.59-2.27 1.34z"/><path d="m17.24 53.01c.12.17 1.5 1.39 1.5 1.39s2.26-2.08 3.06-2.6c.81-.52 1.45-.93 1.45-2.2s.17-2.54-.29-2.72c-.46-.17-3.7-.35-3.7.12s-2.02 6.01-2.02 6.01z"/><path d="m20.83 55.73c-.33 1.89.98 4.68 1.73 4.8s1.39-1.56 1.97-1.85 1.33-.29 1.62-.69-.12-2.89-.23-3.58c-.12-.69-.06-2.14-1.1-1.97-1.04.16-3.64 1.32-3.99 3.29z"/><path d="m26.38 62.2c-.72 0-2.26 1.21-2.6 1.85-.35.64-.75 1.79-1.1 2.2-.35.4-1.39 1.16-.93 2.26s2.49 2.43 3.82 2.31 2.02-2.83 2.02-4.57-.46-4.05-1.21-4.05z"/><path d="m16.38 72.32c0 .75 2.2 2.49 3.12 3.41s2.6 2.54 3.24 2.54 2.83-2.26 2.6-3.06c-.23-.81-2.02-2.54-2.66-3.35s-2.02-2.14-3.12-2.08c-1.1.05-3.18 1.85-3.18 2.54z"/><path d="m13.37 69.54c.4-.17 3.01-1.56 4.45-2.66s2.26-1.85 2.26-2.43-.29-1.85-.69-2.83-2.08-3.24-2.08-3.24-4.11 4.22-4.11 5.38.17 5.78.17 5.78z"/><path d="m31.76 70.99c-.87.46-3.41 1.91-3.3 4.22.12 2.31 1.5 3.53 1.5 3.53l2.95-4.57z"/><path d="m20.25 82.61c-1.56-.17-2.6-.58-3.06.58s.93 2.72 1.68 3.58 3.64 3.93 5.15 3.93 3.41-1.91 3.41-2.72c0-1.06-3.78-5.04-4.05-5.15-.47-.16-1.57-.04-3.13-.22z"/><path d="m19.73 91.98c-.75.21.29 3.18 1.27 4.63s2.49 2.37 3.01 2.49 2.95-1.21 2.89-1.56-1.79-1.56-2.83-2.66-1.45-1.97-2.2-2.37c-.75-.41-1.74-.65-2.14-.53z"/><path d="m26.55 93.08c-.1.52.98 1.52 2.02 2.14 1.56.93 5.38 1.27 5.38 1.27s-3.06-8.04-3.3-7.81-2.49 2.2-2.83 2.6c-.34.41-1.09.93-1.27 1.8z"/><path d="m23.72 101.69c.26.58 1.1 2.49 3.01 2.49 1.5 0 2.02-3.35 1.68-3.76-.35-.4-5.5-.52-4.69 1.27z"/><path d="m22.28 105.38s.98-.58 2.95.4c4.86 2.43 4.51 6.98 4.51 6.98s-3.29-2.76-4.51-4.09-2.95-3.29-2.95-3.29z"/><path d="m45 113.43c-.61.79 1.45 3.41 1.45 3.41s-.17 3.12.35 3.76 2.66 1.21 3.93 1.33c1.89.18 2.43-.98 2.37-1.33s-.29-1.97-1.85-4.68c-1.17-2.04-2.2-3.18-2.78-3.41s-3.07.4-3.47.92z"/><path d="m49.05 108.98c-.23 1.02 2.66 3.18 3.53 3.93s1.62 1.68 2.37 1.5c.75-.17 1.5-2.02 2.02-2.54s1.21-1.5 1.21-2.14-.93-3.99-1.39-4.39-4.91-.93-5.44-.64c-.52.29-1.16 1.21-1.27 1.73-.11.53-.92 2.03-1.03 2.55z"/><path d="m58.24 114.59c.45.07 2.43 2.66 2.49 3.3s-1.19 4.15-1.73 4.34c-.54.18-3.01.17-3.35-.35s-.52-4.68.12-5.32 2.12-2.03 2.47-1.97z"/><path d="m46.79 98.17c-.12.75 1.33 1.97 2.02 2.66s1.21 1.79 2.72 1.39c1.5-.4 2.72-1.33 3.35-3.06s1.39-5.15 1.27-5.49c-.12-.35-3.3-2.72-3.93-2.31s-5.31 6.05-5.43 6.81z"/><path d="m58.93 96.08c-.81.12-2.49 4.86-2.37 5.32s1.33 1.85 2.49 1.68 2.83-2.83 2.83-3.35-2.17-3.76-2.95-3.65z"/><path d="m44.59 101.81c.31.19 1.45 1.68 1.1 2.83-.35 1.16-1.68 6.19-2.31 6.07-.64-.12-1.91-4.97-1.91-5.38s2.83-3.69 3.12-3.52z"/><path d="m40.2 96.49c-.36.25-1.39 2.26-1.45 2.95s0 3.01 1.1 3.18c1.72.27 3.58-3.41 3.58-3.82 0-.4-1.27-1.73-1.68-1.97-.4-.22-.97-.75-1.55-.34z"/><path d="m39.39 90.88c.06.98 2.89 3.58 4.91 3.7s3.7-2.83 3.58-3.47-5.44-5.2-5.96-5.09c-.52.12-1.16 2.2-1.16 2.2s-1.43 1.74-1.37 2.66z"/><path d="m47.95 76.14c-.5.18-1.39 3.18-1.68 4.05s-.64 3.06-.35 3.47c.29.4 2.2 1.45 4.11 1.27 1.91-.17 2.83-1.97 3.12-2.49s1.5-4.74 1.21-5.61c-.28-.87-5.31-1.1-6.41-.69z"/><path d="m42.8 74.17c-.87 0-2.72 2.95-2.72 3.87s1.68 2.72 2.6 2.72c.93 0 1.91-1.73 2.14-2.6s-.06-2.37-.06-2.6-.75-1.39-1.96-1.39z"/><path d="m36.84 82.03c-.37.69 1.21 3.47 2.02 3.82s2.02-.69 2.14-2.49c.12-1.79-.46-2.89-1.73-3.12-.41-.07-1.96.93-2.43 1.79z"/><path d="m54.48 87.3c-.05.64 3.35 2.08 3.93 2.08.35 0 2.2-3.53 2.26-4.8.12-2.49-.35-4.57-2.43-5.2-1.38-.42-1.33 1.79-1.68 2.6s-1.85 2.37-2.08 5.32z"/><path d="m57.89 72.61c-.18 1.46 1.1 3.7 1.79 4.16s4.63 2.95 4.63 2.95l-.12-7.92s-6.07-1.04-6.3.81z"/><path d="m62.17 61.97s-3.76-.93-4.97-.52c-1.21.4-2.31 1.79-2.43 2.08s1.39 3.35 2.02 3.47c.64.12 5.96 1.45 5.96.4s-.58-5.43-.58-5.43z"/><path d="m44.65 68.45c-.53.03-1.27 1.62.17 2.37 1.45.75 5.38 1.04 6.53 1.1 1.16.06 4.39.58 4.39-.35s-.4-3.18-.64-3.58c-.23-.4-2.43-3.12-2.89-3.06s-3.41 2.2-4.28 2.54-2.24.92-3.28.98z"/><path d="m37.71 63.59c1.79-.58 2.37-1.91 4.05-2.43s3.87-1.91 4.39-1.79 3.41 2.72 3.47 3.06c.06.35-2.95 1.97-3.7 2.26s-4.02 1.76-4.02 1.76l-2.98 2.34z"/><path d="m39.85 52.83s4.22-.43 4.63-.46c1.72-.12 1.73.69 1.73.98s.17 3.24-1.62 3.99-3.35.81-3.53 1.04c-.17.23-2.95 2.08-2.89 1.85s1.68-7.63 1.68-7.4z"/><path d="m48.7 54.4c-.41.96.75 3.7.98 3.99s2.37 1.97 4.11 1.97 5.15-3.82 5.38-4.45-1.97-4.05-2.54-4.16c-.58-.12-2.78 1.04-2.78 1.04s-4.98 1.2-5.15 1.61z"/><path d="m48.24 44.28c-.46.5-1.04 6.77-.58 6.88.46.12 2.95-1.04 2.95-1.04s1.79.17 2.43 0 1.85-.87 2.02-1.39-1.73-5.15-2.26-5.44-3.93.29-4.56.99z"/><path d="m55.41 41.15c-.15.27 1.79 6.53 2.49 6.53s2.02-2.31 2.08-2.66-.93-4.39-2.14-4.86c-1.22-.45-2.15.47-2.43.99z"/><path d="m54.94 37.74c.33.66 2.31.81 3.35.4 1.04-.4 2.6-.87 2.54-1.68s-2.02-2.66-3.7-2.49c-.52.05-1.27.75-1.73 1.56-.46.83-.75 1.63-.46 2.21z"/><path d="m101.28 101.6s3.41-.17 4.23-.12 1.69.79 1.69.79-1.12 1.58-1.97 2.65c-1.06 1.33-3.12 3.56-3.12 3.56l-1.78-6.11z"/></g><path d="m52.44 34.78c-1.61-1.68-10.58 2.07-13.84 6.04s-1.99 8.44-3.82 12.16-5.09 5.38-5.25 9.84 1.11 7.11.48 11.33c-.64 4.22-3.5 5.79-2.15 11.75s3.34 10.59 2.94 13.32-1.59 5.29-.8 8.27c.8 2.98 1.67 3.56 1.75 4.63.08 1.08.19 2.43.19 2.43s2.58 1.97 4.42 3.03c2.25 1.29 6.68 3 6.68 3s-1.19-4.9-2.7-7.96-4.13-5.54-4.06-10.51 1.99-4.88 1.19-10.26-2.78-7.2-2.7-11c.08-3.81 4.29-6.95 4.53-11.91s-.95-6.45-.16-10.51c.8-4.05 3.82-7.03 4.85-10.34s.61-4.24 1.91-6.45c1.77-2.97 8.61-4.71 6.54-6.86z" fill="#a8ce5f"/><path d="m65.88 37.18c-1.34-.38-1.95.46-3.68 3.99-1.83 3.72-2.04 7.08-1.58 9.15s2.2 4.71 1.59 8.27-3.02 4.48-2.18 10.11 2.89 8.11 2.43 12.16-1.9 7.53-1.37 11 1.9 3.89 1.83 8.02c-.08 4.14-1.83 6.78-1.22 10.26.61 3.47 1.52 5.38.99 8.02-.53 2.65-1.6 5.79-1.6 5.79s2.11.13 5.48 0c2.06-.08 5.06-.56 5.06-.56s1.56-2.75 1.56-5.56-1.75-4.8-1.52-8.27.99-6.04.61-9.93-1.75-7.2-1.52-10.26.91-5.54.61-10.67-2.37-8.35-1.84-11.74 1.06-5.71.68-9.68-2.66-4.72-3.04-8.85c-.37-4.14 1.34-10.51-1.29-11.25z" fill="#a8ce5f"/><path d="m76.65 33.95c-.8 1.21.53 4.9.8 5.79 1.29 4.31 3.95 5.37 6.55 7.61.31.26 1.92 1.17 2.08 2.32.32 2.32.24 3.23 1.36 5.87 1.12 2.65 2.96 4.88 3.84 6.54.88 1.65 2.32 3.06 2.4 5.96s-.16 6.29.8 8.85 2.32 4.8 1.76 7.53-3.68 7.86-2.72 12.24 2.56 5.96 2.24 9.1-1.59 5.69-2 7.45c-.38 1.63-.5 2.71-.5 2.71s4.78-3.15 7.3-5.69c1.74-1.76 3.44-3.39 3.36-7.2s-3.44-4.8-2.72-10.09 3.28-11.43 2.64-16.54c-.96-7.61-4.4-9.1-5.12-11.91s.88-7.69-1.2-13.15-6.31-3.64-8.31-6.29-1.92-4.47-3.6-6.87c-1.69-2.41-8.08-5.55-8.96-4.23z" fill="#a8ce5f"/><path d="m74.7 28.08c.6 1.2 1.99 1.84 6.38 1.68 4.38-.17 6.36-.43 8.84 1.22s2.23 2.98 5.21 5.05 5.29 2.15 7.53 5.29 4.47 10.09 6.12 12.66 4.05 4.63 4.8 9.18.25 9.18 0 14.15c-.25 4.96-1.19 15.88-1.19 15.88s3.56-7.4 4.44-15.94c.69-6.7 1.58-19.1-6.72-32.29-8.65-13.75-19.52-18.49-24.35-20.39-.04-.02-3.22-.08-4.85.04-3.6.27-7.36 1.15-6.21 3.47z" fill="#a8ce5f"/><path d="m31.69 35.19c2.23-2.05 3.31-1.08 6.7-2.32s2.81-2.23 5.71-2.65c2.9-.41 8.77.83 9.02-1.57s-3.56-3.89-8.69-3.14c-5.13.74-7.4 1.07-7.4 1.07s-9.37 4.86-14.85 12.25c-5.03 6.78-12.33 17.37-11.66 35.9.63 17.75 10.51 28.95 10.51 28.95s-2.08-6.82-2.5-8.15c-.41-1.32-1.93-4.92-2.37-6.96-1.17-5.4.72-5.38-.18-9.3-.37-1.61-1.08-4.47-1.24-7.78-.17-3.31 3.23-6.29 3.56-9.93s-.17-6.29 1.9-10.75 4.96-5.29 6.78-7.94c1.81-2.63 1.65-4.87 4.71-7.68z" fill="#a8ce5f"/><path d="m55.81 20.98s2.26-.25 3.19-.34c.93-.08 2.62-.11 2.62-.11l2.17 1.92s-3.81-.11-4.88-.79-3.1-.68-3.1-.68z" fill="#b4de58"/><path d="m60.4 14.7.19 10.46s-4.4 1.15-4.27 3.7 3.44 3.89 7.84 3.76 7.59-1.91 7.78-4.21-3.25-2.93-3.25-2.93l.26-11.16s7.32-.07 14.22-1.66c6.63-1.53 10.27-2.36 10.78-4.4s.7-5.36-1.21-5.74-12.13 3.99-29.15 4.34c-18.75.38-23.97-1.85-24.8-1.47s-2.36 4.21-.83 6.63 9.63 2.55 12.31 2.61c2.67.07 10.13.07 10.13.07z" fill="#5e8a28"/></svg>