<svg enable-background="new 0 0 128 128" viewBox="0 0 128 128" xmlns="http://www.w3.org/2000/svg" xmlns:xlink="http://www.w3.org/1999/xlink"><linearGradient id="a" gradientUnits="userSpaceOnUse" x1="88.6417" x2="46.9709" y1="32.7507" y2="33.8769"><stop offset="0" stop-color="#01ab46"/><stop offset=".396" stop-color="#128a3c"/><stop offset="1" stop-color="#2f502a"/></linearGradient><path d="m103.13 54.42s3.5-.66 6.57-2.96c2.75-2.06 6.77-5.88 5.4-7.32-1.48-1.55-3.87 2.53-4.43 1.55-.37-.65 2.32-2.89 3.52-6.34 1.07-3.07-.15-6.11-2.89-2.75-.85 1.04-1.49 2.17-1.9 1.76-.44-.44.61-3 1.38-5.39 1.29-4.04-.68-6.72-4.05-1.83-1.44 2.08-2.09 4.82-3.17 4.62-.77-.14-.38-1.7-.51-3.25-.27-3.23-3.36-2.87-4.42 2.83-.47 2.52-.06 5.43-.63 5.63-.99.35-.77-3.94-2.39-3.52-1.18.31-1.62 3.24-1.55 6.34s2.04 8.09 2.04 8.09l2.75 5z" fill="#bdce44"/><path d="m95.46 52.19s-2.21 5.16.82 11.8c2.21 4.85 5.37 8.27 3.5 10.21-2.77 2.86-12.53-3.33-22.15-.49-7.49 2.21-11.06 6.47-13.24 14.29-1.63 5.85-3.24 8.12-5.96 8.92-2.12.62-5.44.16-7.2-1.45-3.72-3.42-3.63-7.37-2.23-10.69 1.31-3.11 5.64-6.15 7.65-7.19 5.56-2.89 19.22-7.11 23.09-14.5 3.45-6.59 4.36-14.15 2.25-19.08s-5.49-3.17-5.49-3.17l.77 11.68-13.44 14.08-19.36 13.23-2.67 14.08 6.76 11.4 13.94-1.06 14.22-21.4 13.73-.99 13.02-.7 4.93-13.8z" fill="#6d8038"/><path d="m105.59 40.13c-2.32-1.57-10.23 5.63-10.3 13.73-.07 8.09 4.81 13.8 5.8 15.42s4.11 7.3.07 9.85c-3.24 2.06-18.37-4.58-26.19.42-7.81 5-5.16 13.59-12.34 20.53-2.69 2.61-17.15 5.02-18.35-9.34s16.19-15.06 24.78-21.33c8.59-6.26 11.33-11.54 11.05-18.93s-2.46-9.71-2.46-9.71l-13.8 5.63-6.34 10.28s-8.27 3.03-15.58 7.95c-8.61 5.8-10.14 10-10.14 10s-2.02-.63-2.02-1.13 7.09-8.57 6.48-12.11c-.75-4.34-3.14-5.51-4.55-5.65s-2.21 1.08-1.17 2.67c1.03 1.6 1.55 3 1.36 3.61s-.81 1.25-.94.19c-.14-1.17-.99-3.17-1.6-3.99-.5-.67-2.06-2.63-3.99-2.3s-2.06 2.16-.47 3.66c1.6 1.5 3.14 3.61 2.35 4.55-.8.94-2.11-2.09-2.96-3.21-.84-1.13-2.93-1.56-4.18-1.81-1.31-.26-3.47 1.19-2.21 3.28.94 1.55 2.21.8 3.75 2.44s1.6 2.25 1.55 2.67-2.96 2.58-3.28 4.55c-.33 1.97.23 3.19-.52 3.89s-3.94.56-4.97.89-2.16 2.96-.19 3.8 5.58.99 7.27.47c1.23-.38 1.6-.94 2.11-.84.52.09 4.6 3.1 4.6 3.1s-.58 4.34-.49 8.02c.12 4.79 1.55 8.54 1.55 8.54s1.43 2.04.82 2.02c-1.74-.07-6.48-4.79-8.82-5.3-2.35-.52-4.22-.37-5.12.66-.82.94-1.12 3.01.52 3.14 1.79.14 2.63-.23 2.63.42 0 .43-.58.78-1.74 1.17-1.67.56-2.14 1.89-1.74 3.52.38 1.53 2.49 1.08 3.1.61s.84-.94 1.17-.52-1.11 1.5-1.55 2.49c-.89 1.99.36 2.85 1.69 2.96 1.83.14 2.11-2.21 2.96-3.1.84-.89 1.92-1.6 2.3-1.55s.23 1.55 1.92 3.38 3.99.8 4.36 1.13-.28 2.77 1.17 4.08 3.8.75 3.8-1.27.19-2.86.19-2.86 2.84 2.49 6.55 3.8 8.78 2.42 8.78 2.42-.51.91-.4 2.7c.05.73.21 2.96 2.37 2.91 1.55-.03 1.62-3 2.18-3.1.56-.09-.54 3.87 2.32 4.06s1.95-3.54 2.46-3.64c.52-.09.53 4.84 4.27 3.14 1.97-.89-.66-5.24-.47-5.63.12-.23 1.97-.52 3.19-1.31.81-.53 1.31-1.69 1.31-1.69s5.91-1.67 8.35-6.08c3.33-6.02 2.77-13.16 5.4-15.46s7.7-.47 10.14-.19 2.67.19 2.82.28c.14.09.42 1.22.19 1.55s-6.9 2.72-8.49 5.4c-1.6 2.67-1.37 4.58-1.22 5.3.33 1.55 1.85 1.76 2.53.47.67-1.27 1.03-2.39 1.6-2.21.56.19-.54 2.29-.09 3.28.66 1.45 2.3 1.22 2.96.7s.82-2.58 1.29-2.35 0 1.13.87 2.65c.77 1.35 3.31.12 2.93-1.88-.23-1.22-1.24-2.14.21-3.31s2.63-1.13 4.13-2.06c1.5-.94 1.36-2.3 3.05-1.69s1.74 2.14 3 1.27c1.9-1.31.99-3.94-.61-5.21s-3.94-1.41-4.27-1.55-.47-1.92-.47-1.92 9.48-3.71 10.56-13.05-9.67-19.43-10.37-25.48c-.68-6.01 3.62-11.52 1.59-12.89z" fill="#00aa48"/><g fill="#7bd989"><path d="m40.64 113.46c1.28.69 2.64 1.29 3.97 1.73 3.82 1.26 7.7 1.97 7.7 1.97s.8-1.64 3.47-2.86c1.51-.69 4.79-1.22 4.79-1.22s-4.83-.14-9.71-.94c-2.1-.34-4.73-1.24-7.12-2.82z"/><path d="m51.75 66.25c3.05-1.62 5.98-3 8.26-3.99l-2.72-5.43c-2.17.75-5 1.91-8.44 3.71z"/><path d="m36.34 80.43c1.34-2.89 3.25-5.47 5.41-7.57l-3.76-5.36c-3.48 2.91-5.93 6.02-7.56 9.32z"/><path d="m29.75 78.3c-1.68 4.04-2.17 7.32-2.08 12.2l6.66-.38c-.14-2.87.39-5.64 1.37-8.21z"/><path d="m32.26 105.7c1.19 1.64 2.55 3.12 4 4.61.77.79 1.79 1.59 2.95 2.32l3.24-4.23c-.83-.66-1.6-1.41-2.3-2.26-.96-1.17-1.9-2.41-2.75-3.9z"/><path d="m31.38 104.41c-1.97-3.11-3.34-6.88-3.65-12.36l6.69-.61c.33 4.15 1.19 7.13 2.32 9.5z"/><path d="m42.91 71.8c.93-.8 1.9-1.52 2.88-2.13 1.49-.93 3.03-1.83 4.57-2.67l-2.82-5.76c-1.48.81-3.32 1.83-5.01 2.89-1.33.84-2.53 1.69-3.42 2.47z"/><path d="m61.24 61.73c.46-.19.88-.36 1.25-.51 3.38-1.31 4.41-3.33 3.75-4.88s-3.24-1.17-3.85-.94c-.25.09-1.54.29-3.79.99z"/></g><path d="m34.43 24.11s-.42-5.3 3.14-8.12c3.57-2.82 9.2-.94 12.29-.38s7.13.47 10.04-.19 4.04-1.22 5.82-1.31 4.36-.28 6.62-.47c1.91-.16 5.73-.66 6.34 1.13.46 1.33-.84 2.67-2.91 3.19-2.06.52-2.67.75-2.25 1.69s3.85.33 4.6.09c.75-.23 5.12-1.13 5.12 1.41s-3.57 3.28-5.87 3.85c-2.3.56-3.7.23-3.61 1.41.14 1.88 6.01.09 7.79-.14s4.04-.56 4.27 1.13-1.55 3.52-4.93 4.08-5.58 1.13-5.54 2.02 4.2-.02 5.4-.23c1.55-.28 3.75-.32 3.99 1.27.56 3.75-6.1 3.1-6.24 4.6-.13 1.34 5.3-.09 5.96 2.11.66 2.21-1.41 4.13-4.69 4.41-2.28.2-10.09-1.36-11.31-.05s2.96 1.61 4.36 1.92c1.88.42 5.02.66 3.61 3.52-.92 1.88-4.36 1.36-6.87 1.48s-6.97.4-6.97.4l-10.04.47-8.4-.99-5.3-1.97-4.04-1.69-1.27-1.36 11.68-14.41z" fill="url(#a)"/><path d="m66.88 50.8c0 3.25-2.22 6.86-6.83 6.9s-6.97-2.78-7.71-2.99-.99 2.67-3.55 2.82c-2.57.14-6.37-3.2-6.86-3.31s-.63 2.53-3.41 2.53c-1.94 0-4.19-3.03-5.67-4.4s-4.12-3.38-4.12-3.38h7.46s2.5-.28 5.63 0c3.04.27 5.53 2.67 10.56 2.57 2.82-.06 4.15-.32 4.15-.32s1.02-3.68 5.67-3.91c4.33-.21 4.68 2.75 4.68 3.49z" fill="#bece44"/><path d="m51.49 20.75s4.86-1.85 5.47-3.17c.61-1.31 2.53-6.24 5.02-7.13s3.94 1.6 2.21 3.52-4.27 3.52-2.86 4.41 4.5-3.47 5.3-4.5 2.63-3.71 4.69-3.66 3.34 3.58-.61 6.85c-4.08 3.38-6.1 4.18-10.79 4.5-4.69.33-6.95.63-6.95.63z" fill="#ffba02"/><path d="m27.48 20.96s-2.35-7.79 1.78-11.17 9.53-1.27 12.81.75c3.01 1.85 8.9 1.54 8.68-1.88-.19-2.96-3.44-2.13-3.71-.8-.23 1.17-.73 1.92-1.17 1.78-.5-.15-.81-1.16-.75-1.78.23-2.67 2.49-3.47 4.27-3.28 1.4.15 3.75 1.17 3.52 4.93s-4.15 4.81-7.93 4.18c-2.99-.5-5.68-2.58-8.39-3.31-1.66-.44-4-.08-5.43.96-1.67 1.22-2.11 3.15-2.1 4.74.01 1.01.2 1.94.29 2.63.21 1.57 1.97 6.34 1.97 6.34z" fill="#7cdb8b"/><path d="m54.61 26.5s2.39.52 2.49 3.28-.33 3-.09 3.1 2.16-1.03 3.19.28c1.3 1.66-1.03 4.36-2.35 5.26-1.31.89-2.11 1.03-2.3 1.45s-1.96 5.87-4.36 6.85c-2.77 1.13-10.75.66-11.83.66s-2.16 1.06-3.17 1.58-1.99.86-3.17.57c-1.17-.28-2.96-1.6-2.96-1.6z" fill="#7cdb8b"/><path d="m38.61 38.79 2.86.14 1.45-5.12s-3.99-1.36-5.4-1.08-4.46 1.45-5.44 1.97c-.99.52-1.78 1.83-3.66 1.55s-5.91-1.03-8.31 1.69c-2.07 2.36-1.69 4.36.09 5.21 1.78.84 4.04-1.83 5.49-2.06s3.66.8 3.66.8z" fill="#d43330"/><path d="m28.05 32.88s.89 4.08 1.97 4.08 1.08-1.31 1.08-1.31 4.13-1.08 4.93-1.55 1.78-2.39 1.78-2.39l-7.32-.52z" fill="#fff"/><path d="m27.95 44s-.84-1.83-.52-2.63c.33-.8.61-2.25 1.55-2.16 1.03.1 1.17 1.69 1.17 1.69s2.72-2.49 4.83-3.33c1.13-.45 3.05-.61 3.19.28s-.52 3.43-.52 3.43z" fill="#fff"/><path d="m24.86 40.62c-.35.64-.66 3-.09 4.69.56 1.69 2.44 4.32 5.35 4.5s8.31-6.01 8.63-6.19c.33-.19 9.48 1.03 12.06-2.63s1.23-10.1 2.53-12.11c1.41-2.16 3.47-.75 3.47-.75s-.23-1.5-1.27-2.53c-1.03-1.03-2.49-.84-2.06-2.06.42-1.22 3.61-.09 3.8-.99.19-.89-1.09-1.79-2.55-2.06-.69-.13-2.43.19-2.52-.23s1.36-.47 1.41-1.45c.05-.99-3.71-.61-5.26-.42s-3.57 1.08-3.71.7 2.53-1.78 2.44-2.25-2.21-.89-5.35.8-7.23 5.82-7.23 5.82l-3.1-.23s-4.32-5.11-7.09-4.46c-2.92.69-3.89 3.52-3.85 7.51s1.74 6.19 6.05 6.99c2.44.45 8.78-.22 10.09-.28 3.43-.16 4.08 1.36 4.27 2.67s-2.35 2.77-3.57 3.05-2.86.56-4.18 1.45c-1.31.89-2.82 3.38-3.71 3.33s-1.08-1.6-1.55-2.53c-.43-.95-2.17-1.88-3.01-.34z" fill="#02ab47"/><path d="m48.61 23.45c-.04.39-1.09 3.94-3.8 5.49s-5.46 1.09-6.19-1.16c-.82-2.51.56-5.1 3.84-4.65 2.96.42 6.36-1.55 6.15.32z" fill="#79da89"/><ellipse cx="41.61" cy="26.21" fill="#2f2e2f" rx="2.24" ry="1.94" transform="matrix(.6249 -.7807 .7807 .6249 -4.858 42.3191)"/><path d="m24.74 21.69c-.62.56.42 1.98.49 2.79s-.31 2.28.75 2.21 1.38-1.31 1.16-2.75c-.3-1.94-1.31-3.24-2.4-2.25z" fill="#2f2e2f"/></svg>