<svg enable-background="new 0 0 128 128" viewBox="0 0 128 128" xmlns="http://www.w3.org/2000/svg" xmlns:xlink="http://www.w3.org/1999/xlink"><radialGradient id="a" cx="39.37" cy="79.96" gradientUnits="userSpaceOnUse" r="44.29"><stop offset=".4687" stop-color="#ed6c66"/><stop offset="1" stop-color="#bb303d"/></radialGradient><path d="m59.72 95.31c1.57-7.88-.76-15.69-6.82-21.76s-14.81-7.25-22.7-5.69c-7.25 1.44-10.13 6.27-19.68 5.69 0 0-10.08 13.73 8.93 33.45 19.71 19.01 33.45 8.93 33.45 8.93-.58-9.56 5.38-13.37 6.82-20.62z" fill="url(#a)"/><ellipse cx="50.14" cy="77.29" fill="#b22d2d" rx="9.22" ry="12.09" transform="matrix(.6844 -.7291 .7291 .6844 -40.53 60.95)"/><ellipse cx="51.09" cy="76.28" fill="#ff8480" rx="7.53" ry="11.67" transform="matrix(.6844 -.7291 .7291 .6844 -39.49 61.33)"/><path d="m58.23 78.71 64.01-62.24c2.2-2.2 2.71-6.93-.63-10.28-3.38-3.38-8.73-1.27-10.7.7l-62.42 63.9c-1.97 1.97-1.04 5.37 1.31 7.46 3.38 3.01 7.44 1.45 8.43.46z" fill="#a06841"/><path d="m54.14 107.81c-2.01 2.53-1.66 6.84-1.66 6.84-12.52 4.94-25.41-5.14-31.12-10.4-4.64-4.27-14.88-19.8-8.75-30.47 0 0 4.7.3 7.39-1.77 0 0-3.69-3.08-7.44-2.97-1.3.04-5.92-.78-7.77 6.05-.73 2.68-4.11 17.15 11.88 35.13 17.35 17.05 30.86 13.17 33.44 12.6 6.3-1.4 6.77-5.93 6.97-7.56.58-4.44-2.94-7.45-2.94-7.45z" fill="#ff8480"/><path d="m36.93 74.82c1.34 2.09 1.21 5.14-.59 6.85-1.2 1.14-2.88 1.57-4.42 2.2-1.9.78-3.64 1.92-5.58 2.59s-4.23.81-5.92-.35c-3.82-2.6-3.04-7.31.5-10.87 2.23-2.24 6.3-3.55 9.32-3.64 2.55-.07 5.26 1.01 6.69 3.22z" fill="#ff9f9f" opacity=".63"/><path d="m66.58 70.59c-3.09 1.33-8.5 3.45-12.17 3.64-3.33.18-5.5-1.24-6.68-2.35-.87 1.98.1 4.62 2.06 6.36 3.38 3.01 7.45 1.45 8.44.46z" fill="#874d36"/></svg>