<svg enable-background="new 0 0 128 128" viewBox="0 0 128 128" xmlns="http://www.w3.org/2000/svg"><path d="m67.96 38.21 28 48.5c.91 1.86.14 4.11-1.72 5.02-.49.24-1.03.37-1.58.38h-56c-2.03.03-3.7-1.6-3.73-3.63-.01-.62.14-1.22.43-1.77l28-48.5c.85-1.82 3.01-2.61 4.84-1.76.77.36 1.4.98 1.76 1.76z" fill="#c33"/><path d="m64.6 43.01 25.5 44.2c.84 1.67.17 3.7-1.5 4.54-.47.23-.98.36-1.5.36h-51c-1.86.01-3.37-1.49-3.37-3.35 0-.54.13-1.07.37-1.55l25.5-44.2c.73-1.66 2.67-2.41 4.33-1.67.74.32 1.34.92 1.67 1.67z" fill="#f44336"/><path d="m60.72 47.85c-1.02 1.14-18.79 30.98-18.79 30.98s-1.52 2.29.25 3.68c1.78 1.4 3.43 0 4.19-1.14s16.89-27.93 17.52-29.2c.56-1.45.32-3.09-.63-4.32-.89-.89-1.9-.89-2.54 0z" fill="#ff8a80"/></svg>