<svg enable-background="new 0 0 128 128" viewBox="0 0 128 128" xmlns="http://www.w3.org/2000/svg" xmlns:xlink="http://www.w3.org/1999/xlink"><linearGradient id="a" gradientTransform="matrix(1 -.0021 .0021 1 -1014.5 1339.6)" gradientUnits="userSpaceOnUse" x1="1022.9" x2="1139.5" y1="-1273.3" y2="-1273.3"><stop offset=".1277" stop-color="#a47b62"/><stop offset=".6418" stop-color="#ba8d68"/></linearGradient><path d="m78.23 108.17c-15.57 0-24.59-.54-26.8-1.59-5.12-2.45-5.57-7.65-4.98-9.79.75-2.73-1.77-5.1-2.89-5.99-1.06-.85-2.5-2.25-3.31-4.14-1-2.34-1.19-4.5-.56-6.43.73-2.22.03-4.72-1.74-6.23-2.35-2-4.76-5.65-2.94-11.71.14-.46.05-.95-.23-1.33s-.73-.6-1.2-.6l-19.59.04c-2.61 0-8.34-2.21-8.34-8.79 0-5.59 5.92-6.85 7.99-6.85l57.07-.12c.82 0 1.48-.66 1.5-1.48.01-.82-.63-1.5-1.45-1.52-.03-.01-1.79-.25-8.53-4.13-6.71-3.88-10.73-7.76-8.48-14.1 1.15-3.23 4.8-3.58 6.31-3.58 1.92 0 3.52.49 4.2.94 5.37 3.58 10.57 5.69 16.08 7.93 5.82 2.36 11.85 4.8 18.69 9.25 1.27.83 2.4 1.85 3.33 3.04 4.37 5.55 10.05 9.27 16.42 10.75l1.29.3c1.12.26 1.92 1.25 1.93 2.41l.34 39.69c.01 1.13-.73 2.13-1.82 2.44-.09.02-.17.06-.25.1-.24.11-23.68 11.46-40.13 11.49z" fill="url(#a)"/><g fill="#91674d"><path d="m60.06 21.33c1.76 0 3.03.46 3.37.69 5.5 3.67 10.77 5.81 16.35 8.07 5.76 2.34 11.71 4.75 18.44 9.12 1.14.74 2.14 1.65 2.97 2.71 4.59 5.82 10.55 9.72 17.25 11.29l1.29.3c.45.1.77.5.77.96l.35 39.7c0 .45-.29.85-.73.97-.17.05-.34.11-.5.19-.23.11-23.35 11.31-39.47 11.34h-1.91c-20.14 0-25.04-.91-26.17-1.45-4.22-2.02-4.64-6.36-4.18-8.04.69-2.53-.55-5.28-3.41-7.56-.93-.74-2.18-1.96-2.86-3.55-.85-2-1.03-3.8-.51-5.37.93-2.84.07-5.91-2.19-7.84-2.92-2.49-3.75-5.9-2.48-10.14.27-.91.1-1.89-.47-2.66-.57-.76-1.46-1.21-2.41-1.21h-.01l-19.58.04c-1.36 0-6.84-1.3-6.84-7.29 0-5.12 6.43-5.35 6.5-5.35l57.05-.12h.03c.08 0 .16 0 .24-.01 1.61-.12 2.82-1.5 2.76-3.11-.06-1.51-1.25-2.73-2.73-2.87-.3-.07-2.25-.62-8.01-3.95-8.42-4.86-9.23-8.31-7.81-12.3.8-2.22 3.42-2.56 4.9-2.56m0-3c-3.09 0-6.51 1.14-7.73 4.58-2.23 6.28.58 10.96 9.14 15.9 7.14 4.12 8.99 4.33 9.23 4.33h.03-.01-.01l-57.07.12c-3.15 0-9.49 2-9.49 8.35 0 7.67 6.67 10.29 9.84 10.29l19.59-.04c-2.09 6.96.88 11.13 3.4 13.28 1.32 1.13 1.82 2.97 1.28 4.62-.57 1.74-.77 4.26.61 7.48.9 2.1 2.43 3.67 3.75 4.72s2.83 2.8 2.38 4.42c-.82 2.98.16 8.85 5.78 11.54 3.17 1.51 16.28 1.74 27.47 1.74h1.92c17-.04 40.78-11.64 40.78-11.64 1.74-.49 2.93-2.09 2.91-3.89l-.35-39.69c-.02-1.84-1.3-3.43-3.09-3.85l-1.29-.3c-6.24-1.45-11.61-5.19-15.58-10.22-.94-1.19-2.15-2.36-3.69-3.37-13.46-8.74-23.88-9.92-34.76-17.17-1.02-.68-2.95-1.2-5.04-1.2z"/><path d="m53.71 59.36-21.17-.46 1.7 2.45c0 .59.77 1.04 1.65.97l17.84-.77c1.78-.14 1.76-2.1-.02-2.19z"/><path d="m78.73 43.2-6.97-2.81-2.47-.94.87 3.32.94 3.23 7.48-.09c1.38.01 1.24-2.15.15-2.71z"/><path d="m54.11 76.47-13.07-.77c-.59-.05-.25 2.52-.25 2.52 0 .59.53 1.04 1.13.97l12.23-.77c1.21-.13 1.18-1.85-.04-1.95z"/><path d="m53.88 93.1-7.04-.77c-.32-.05-.13 2.52-.13 2.52 0 .59.28 1.04.61.97l6.58-.77c.65-.14.63-1.86-.02-1.95z"/></g></svg>