<svg enable-background="new 0 0 128 128" viewBox="0 0 128 128" xmlns="http://www.w3.org/2000/svg" xmlns:xlink="http://www.w3.org/1999/xlink"><linearGradient id="a"><stop offset=".7275" stop-color="#6d4c41" stop-opacity="0"/><stop offset="1" stop-color="#6d4c41"/></linearGradient><radialGradient id="b" cx="108.89" cy="44.97" gradientTransform="matrix(.9656 -.2599 .1277 .4743 -38.69 89.91)" gradientUnits="userSpaceOnUse" r="22.99" xlink:href="#a"/><radialGradient id="c" cx="109.02" cy="44.88" gradientTransform="matrix(-.9656 -.2599 -.1277 .4743 141.87 90.07)" gradientUnits="userSpaceOnUse" r="22.84" xlink:href="#a"/><linearGradient id="d"><stop offset=".7247" stop-color="#6d4c41" stop-opacity="0"/><stop offset="1" stop-color="#6d4c41"/></linearGradient><radialGradient id="e" cx="106.37" cy="61.69" gradientTransform="matrix(-.0746 -.9972 .8311 -.0622 31.46 176.22)" gradientUnits="userSpaceOnUse" r="26.41" xlink:href="#d"/><linearGradient id="f"><stop offset=".6628" stop-color="#6d4c41"/><stop offset="1" stop-color="#6d4c41" stop-opacity="0"/></linearGradient><radialGradient id="g" cx="90.95" cy="49.2" gradientTransform="matrix(-.9437 .3361 -.2455 -.7109 188.12 83.09)" gradientUnits="userSpaceOnUse" r="9.16" xlink:href="#f"/><radialGradient id="h" cx="106.53" cy="61.5" gradientTransform="matrix(.0746 -.9972 -.8311 -.0622 71.47 176.56)" gradientUnits="userSpaceOnUse" r="26.23" xlink:href="#d"/><radialGradient id="i" cx="91.19" cy="49.09" gradientTransform="matrix(.9437 .3361 .2455 -.7109 -85.13 83.04)" gradientUnits="userSpaceOnUse" r="9.1" xlink:href="#f"/><radialGradient id="j" cx="26.72" cy="83.07" gradientTransform="matrix(.9907 .1371 .1915 -1.4003 -15.66 157.66)" gradientUnits="userSpaceOnUse" r="16.89"><stop offset=".5981" stop-color="#6d4c41" stop-opacity="0"/><stop offset="1" stop-color="#6d4c41"/></radialGradient><radialGradient id="k" cx="76.74" cy="80.42" gradientTransform="matrix(.3076 .9515 .706 -.2282 -3.65 -7.09)" gradientUnits="userSpaceOnUse" r="24.99"><stop offset=".6985" stop-color="#6d4c41" stop-opacity="0"/><stop offset="1" stop-color="#6d4c41"/></radialGradient><linearGradient id="l" gradientTransform="matrix(1 0 0 -1 0 128)" gradientUnits="userSpaceOnUse" x1="51.72" x2="51.72" y1="4" y2="29.98"><stop offset="0" stop-color="#709e3b"/><stop offset=".3283" stop-color="#73a13e"/><stop offset=".5949" stop-color="#7dab47"/><stop offset=".8391" stop-color="#8dbc57"/><stop offset="1" stop-color="#9ccc65"/></linearGradient><linearGradient id="m"><stop offset="0" stop-color="#1e88e5"/><stop offset="1" stop-color="#1565c0"/></linearGradient><linearGradient id="n" gradientTransform="matrix(1 0 0 -1 0 128)" gradientUnits="userSpaceOnUse" x1="51.79" x2="51.79" xlink:href="#m" y1="3.48" y2="28.07"/><linearGradient id="o" gradientTransform="matrix(1 0 0 -1 0 128)" gradientUnits="userSpaceOnUse" x1="28.33" x2="28.33" xlink:href="#m" y1="4.01" y2="27.39"/><linearGradient id="p" gradientTransform="matrix(-1 0 0 -1 141.16 128)" gradientUnits="userSpaceOnUse" x1="65.91" x2="65.91" xlink:href="#m" y1="4.01" y2="27.39"/><linearGradient id="q"><stop offset="0" stop-color="#aed581"/><stop offset="1" stop-color="#8bc34a"/></linearGradient><linearGradient id="r" gradientTransform="matrix(1 0 0 -1 0 128)" gradientUnits="userSpaceOnUse" x1="43.18" x2="43.18" xlink:href="#q" y1="27.73" y2="12.95"/><linearGradient id="s" gradientTransform="matrix(1 0 0 -1 0 128)" gradientUnits="userSpaceOnUse" x1="60.27" x2="60.27" xlink:href="#q" y1="29.91" y2="12.48"/><linearGradient id="t"><stop offset=".0028" stop-color="#fff59d"/><stop offset=".5532" stop-color="#fee565"/><stop offset=".9964" stop-color="#fdd835"/></linearGradient><linearGradient id="u" gradientTransform="matrix(1 0 0 -1 0 128)" gradientUnits="userSpaceOnUse" x1="51.47" x2="51.47" xlink:href="#t" y1="120.43" y2="96.64"/><linearGradient id="v" gradientTransform="matrix(1 0 0 -1 0 128)" gradientUnits="userSpaceOnUse" x1="51.47" x2="51.47" xlink:href="#t" y1="101.45" y2="72.42"/><linearGradient id="w" gradientTransform="matrix(1 0 0 -1 0 128)" gradientUnits="userSpaceOnUse" x1="106.78" x2="106.78" y1="19.53" y2="78.2"><stop offset="0" stop-color="#757575"/><stop offset=".4818" stop-color="#9e9e9e"/></linearGradient><path d="m51.47 37.93c-26.12-.69-56.85-29.17-46.46 1.27 5.98 17.5 26.2 26.03 46.46 25.77 20.26.26 40.48-8.26 46.46-25.77 10.39-30.44-20.34-1.96-46.46-1.27z" fill="#e59600"/><path d="m86.54 80.78c-1.04-1.98-.2-3.94 3.07-7.26 4.06-4.11 9.41-14.79 4.1-25.56 0 0-.84-1.62-.83-1.66l-.75.83c-.15-.3-.31-.61-.49-.91-1.15-.16-78.99-.16-80.14 0-.32.56-.6 1.12-.86 1.68l-.99-.08c-4.9 11.84-.45 21.23 3.87 25.69 2.72 2.81 4.18 5.01 3.06 7.31-.56 1.15-1.43 1.82-2.67 2.07l-2.15.42 1.17 1.81c.42.66 1 1.21 1.67 1.6 1.87 1.09 4.13 1.36 5.71 1.4.18 0 .44.2.83.62 5.08 5.53 9.08 7.29 21.42 7.74l17.85.01c12.48-.44 16.49-2.19 21.59-7.74.39-.43.65-.62.83-.62 1.58-.04 3.85-.31 5.71-1.4.67-.39 1.24-.94 1.67-1.6l1.17-1.81-2.15-.42c-1.19-.25-2.07-.94-2.69-2.12z" fill="#543930"/><path d="m52.3 96.39-.05-9.33 28.21-2.37 2.02 3.53s-3.98 4.76-8.43 6.25c-3.31 1.11-6.93 1.84-13.86 2.02z" fill="url(#b)"/><path d="m50.64 96.39.05-9.27-28.03-2.36-2.01 3.51s3.95 4.73 8.38 6.21c3.29 1.1 6.89 1.83 13.77 2.01z" fill="url(#c)"/><path d="m51.72 90.68h-8.92v10.68c0 4.83 3.63 8.74 8.11 8.74h1.62c4.48 0 8.11-3.92 8.11-8.74v-10.68z" fill="#99674f"/><path d="m91.03 71.78c-1.61 2.15-4.27 4.58-4.57 6.47 2.98-16.16-10.03-14.24-12.72-21.62-.54-1.49-1.04-3.02-1.1-4.61-.05-1.19 7.31-12.45 8-13.46.84-1.24 12.93 8.95 12.93 8.95-.01.02 6.81 11.78-2.54 24.27z" fill="url(#e)"/><path d="m80.18 84.32c-7.11-10.35 10.67-12.33 10.67-12.33-2.33 2.28-5.43 6.1-4.36 8.54 1.27 2.88 4.94 2.65 4.94 2.65s-6.43 5.88-11.25 1.14z" fill="url(#g)"/><path d="m78.31 51.78h-7.24-39.2-7.24c-5.79 0-10.52 5.04-10.52 11.21s4.73 11.21 10.52 11.21h7.24 39.21 7.24c5.79 0 10.52-5.04 10.52-11.21s-4.74-11.21-10.53-11.21z" fill="#99674f"/><path d="m51.47 13.11c-17.1 0-32.93 18.28-32.93 44.59 0 26.17 16.31 39.1 32.93 39.1s32.93-12.93 32.93-39.1c0-26.31-15.83-44.59-32.93-44.59z" fill="#ba8d68"/><ellipse cx="36.17" cy="60.01" fill="#49362e" rx="4.84" ry="5.01"/><ellipse cx="66.77" cy="60.01" fill="#49362e" rx="4.84" ry="5.01"/><path d="m59.85 77.04c-3.13 1.86-13.39 1.86-16.52 0-1.8-1.07-3.63.57-2.89 2.2.73 1.61 6.33 5.33 11.17 5.33s10.36-3.72 11.1-5.33c.75-1.64-1.06-3.27-2.86-2.2z" fill="#5d4037"/><path d="m43.36 51.13c-.91-1.21-3.02-2.96-7.1-2.96s-6.19 1.75-7.1 2.96c-.4.53-.3 1.15-.02 1.52.26.35 1.02.67 1.87.38s2.49-1.14 5.26-1.16c2.76.02 4.41.87 5.26 1.16s1.61-.03 1.87-.38c.26-.37.36-.99-.04-1.52z" fill="#613e31"/><path d="m73.79 51.13c-.91-1.21-3.02-2.96-7.1-2.96s-6.19 1.75-7.1 2.96c-.4.53-.3 1.15-.02 1.52.26.35 1.02.67 1.87.38s2.49-1.14 5.26-1.16c2.76.02 4.41.87 5.26 1.16s1.61-.03 1.87-.38c.26-.37.36-.99-.04-1.52z" fill="#613e31"/><path d="m55.26 69.09c-.1-.04-.21-.07-.32-.08h-6.94c-.11.01-.21.04-.32.08-.63.26-.98.91-.68 1.6s1.68 2.64 4.47 2.64 4.17-1.95 4.47-2.64-.05-1.34-.68-1.6z" fill="#99674f"/><path d="m12.16 71.94c1.61 2.13 4.25 4.55 4.54 6.43-2.96-16.05 9.97-14.15 12.64-21.48.54-1.48 1.03-3 1.1-4.58.05-1.18-7.27-12.37-7.94-13.37-.83-1.23-12.85 8.9-12.85 8.9s-6.25 12.54 2.51 24.1z" fill="url(#h)"/><path d="m22.94 84.4c7.06-10.28-10.6-12.25-10.6-12.25 2.32 2.27 5.4 6.07 4.33 8.48-1.26 2.86-4.91 2.63-4.91 2.63s6.39 5.85 11.18 1.14z" fill="url(#i)"/><path d="m90.86 28.86c-.16-.24-.34-.5-.53-.75-.35.06-.74.13-1.12.19-.38-.72-.72-1.29-.97-1.66-.06-.08-4.83.82-11.92 1.74h-51.74c-6.01-.81-10.02-1.61-10.34-1.74-.2.6-.35 1.18-.46 1.74h-1.02c-1.42 4.01-.57 4.92.03 6.61-2.48 2.1-5.84 6.67-3.45 12.38 2.41 5.78 8.03 6.38 8.03 6.38-.61 10.55 2.72 15.67 2.72 15.67s4.13-18.12 3.75-20.89c0 0 7.62-1.51 16.27-6.46 5.85-3.35 9.84-7.27 16.41-8.75 10-2.25 12.23 4.99 12.23 4.99s9.25-1.78 12.05 11.07c1.15 5.29 1.64 14.12 2.27 19.49-.05-.47 3.44-6.28 4.05-12.18.17-1.64 2.07-5.04 3.43-8.32.57 1.07 1.22 2.36 1.41 3.01 0 0 1.1-4.46 1.18-4.77 2.2-8.78-.55-15.13-2.28-17.75z" fill="#543930"/><path d="m12.56 35.13c-2.37 2.12-5.56 6.84-3.21 12.68 1.77 4.41 8.09 6.33 8.09 6.33 0 .02 1.26.4 1.91.4l1.48-22.02c-3.03 0-5.94.91-7.82 2.23.02.03-.46.35-.45.38z" fill="url(#j)"/><path d="m86.75 57.5c.16-1.55 4.34-3.6 6.14-10.26.19-.71.35-1.43.5-2.15 1.46-8.09-1.16-15.52-2.79-17.98-2.26-3.41-11.76 3.37-10.14 6.08 5.06 8.47 4.9 16.19 6.29 24.31z" fill="url(#k)"/><path d="m95.73 120.81c0-17.79-25.56-21.89-34.66-22.78l-7.67 10.54h-3.33l-7.55-10.56c-9.85.93-18.23 3.27-24.28 6.78-6.98 4.05-10.51 9.44-10.51 16.01v3.2h88.02v-3.19z" fill="url(#l)"/><path d="m83.64 120.08-7.17-5.52.25-.39-25.99.49-23.87-.49.25.39-7.17 5.52-.17 3.92h64.04z" fill="url(#n)"/><path d="m33.78 107.13-.11-7.82s-5.79 1.2-7.87 2.1l-2.92 6.6 3.78 5.86z" fill="url(#o)"/><path d="m69.8 107.13.11-7.82s5.79 1.2 7.87 2.1l2.92 6.6-3.79 5.86z" fill="url(#p)"/><path d="m72.97 115.61 5.17.98c1.38.26 2.71-.65 2.98-2.03.26-1.38-.65-2.71-2.03-2.98l-5.17-.98c-1.38-.26-2.71.65-2.98 2.03-.26 1.39.64 2.72 2.03 2.98z" fill="#bdbdbd"/><path d="m30.61 115.61-5.17.98c-1.38.26-2.72-.65-2.98-2.03s.65-2.71 2.03-2.98l5.17-.98c1.38-.26 2.71.65 2.98 2.03.26 1.39-.64 2.72-2.03 2.98z" fill="#bdbdbd"/><path d="m42.38 98.03c-2.61.25-5.11.61-7.5 1.05l-.25 20.95 17.09-11.53z" fill="url(#r)"/><path d="m68.56 99.11c-2.96-.56-5.59-.89-7.49-1.08l-9.34 10.48 17.09 11.53z" fill="url(#s)"/><path d="m77.49 29.04c-4.82-11.99-9.56-21.45-15.63-22.18-1.62-.19-5.86-.73-10.15-.74-4.45 0-8.95.54-10.62.74-6.07.73-10.81 10.19-15.64 22.17-2.62 6.5 54.66 6.5 52.04.01z" fill="url(#u)"/><path d="m91.57 24.72c-9.43 1.71-25.18 3.7-39.53 3.76-.19 0-.38 0-.57 0s-.38 0-.57 0c-14.35-.06-30.1-2.05-39.53-3.76-8.14-1.48-8.43 3.84-8.43 3.84s2.58-3.19 7.11 1.23c7.03 6.86 18.48 17.75 40.77 17.84.22 0 .43-.01.65-.01s.43.01.65.01c22.3-.1 33.74-10.98 40.77-17.84 4.53-4.42 7.11-1.23 7.11-1.23s-.29-5.32-8.43-3.84z" fill="url(#v)"/><path d="m51.47 20.37c-15.18 0-25.05 6.55-25.05 6.55s14.37 1.47 25.05 1.47 25.05-1.47 25.05-1.47-9.87-6.55-25.05-6.55z" fill="#78909c"/><path d="m107.48 109.01v14.99" fill="none" stroke="#d18100" stroke-miterlimit="10" stroke-width="5"/><path d="m108.64 116.76h-2.32c-1.39 0-2.51 0-2.51-2.51v-12.01h7.33v12.01c.01 2.13-1.12 2.51-2.5 2.51z" fill="#636363"/><path d="m116.73 99.5c-1.84 0-7.74.06-9.07.06-2.12 0-7.74-.19-10.03-.19-7.48 0-7.54-26.69-7.54-26.69v24.71c0 6.69 3.42 8.83 9.42 9.05h15.38c5.42 0 7.35-3.71 7.35-8.15l-.38-4.86c-.02.01-1.47 6.07-5.13 6.07z" fill="#616161"/><path d="m123.37 38.4c-.11-.42-.73-.41-.83.01l-1.15 4.68-2 52.18s-.01.27-.01.41c0 1.54-1.19 2.64-2.73 2.64s-2.81-1.12-2.81-2.66c0-.22.6-52.38.6-52.38l-1.19-5.13c-.11-.42-.72-.42-.83-.01l-1.35 5.05-.62 52.15c0 1.7-1.03 2.99-2.73 2.99s-3.08-1.38-3.08-3.08l-.3-52.17-1.18-4.94c-.11-.41-.71-.41-.83 0l-1.5 5.15.03 51.86c0 1.76-1.22 3.19-2.98 3.19-1.96 0-3.4-1.43-3.4-3.19l-2.04-52.06-1.34-4.97c-.11-.42-.6-.34-.72.07l-1.37 5 1.6 53.63c0 4.52 2.88 7.94 8.88 8.17h15.38c5.42 0 7.5-3.73 7.5-8.17l2.16-53.4z" fill="url(#w)"/></svg>