<svg enable-background="new 0 0 128 128" viewBox="0 0 128 128" xmlns="http://www.w3.org/2000/svg" xmlns:xlink="http://www.w3.org/1999/xlink"><radialGradient id="a" cx="66.5225" cy="139.6644" gradientTransform="matrix(-.003215 -1 1.2847 -.004131 -112.6888 206.7635)" gradientUnits="userSpaceOnUse" r="134.8811"><stop offset=".2828" stop-color="#89af7c"/><stop offset=".3935" stop-color="#649e6e"/><stop offset=".451" stop-color="#588f6e"/><stop offset=".5615" stop-color="#3a676d"/><stop offset=".5623" stop-color="#3a676d"/><stop offset=".7767" stop-color="#245379"/><stop offset=".9672" stop-color="#0c3d86"/></radialGradient><path d="m116.62 124.26h-105.3c-4.15 0-7.52-3.37-7.52-7.52v-105.3c0-4.15 3.37-7.52 7.52-7.52h105.3c4.15 0 7.52 3.37 7.52 7.52v105.3c.01 4.15-3.36 7.52-7.52 7.52z" fill="url(#a)"/><path d="m16.51 121.06-12.71-12.53v-11.05s9.82-.07 15.93 1.49c7.72 1.97 15.05 5.98 15.05 5.98s10.43-4.99 22.2-6.61c9.53-1.31 27.57-3.99 43.01-1.69 10.21 1.52 18.24 7.76 18.24 7.76s2.46-.72 3.9-1.01 2.02-.51 2.02-.51l-.02 5.48-9.46 11.65z" fill="#2d2d2d"/><path d="m22.45 56.94h48.32v1.5h-48.32z" fill="#f86e49" transform="matrix(.005208 -1 1 .005208 -11.3206 104.0085)"/><path d="m35.31 45.18h1.5v35.41h-1.5z" fill="#f86e49"/><path d="m25.3 54.45h1.5v25.57h-1.5z" fill="#f86e49"/><path d="m15.78 61.24h1.5v19.2h-1.5z" fill="#f86e49"/><path d="m4.94 65.94h1.5v13.83h-1.5z" fill="#f86e49"/><path d="m78.84 47.77h1.5v33.31h-1.5z" fill="#f86e49"/><path d="m88.43 56.45h1.5v24.63h-1.5z" fill="#f86e49" transform="matrix(1 -.008246 .008246 1 -.564 .7377)"/><path d="m98.47 64.97h1.5v15.26h-1.5z" fill="#f86e49"/><path d="m108.52 71.51h1.5v9.21h-1.5z" fill="#f86e49"/><path d="m3.78 64.81c4.83-2.41 14.75-7.89 25.72-16.98 17.36-14.39 26.04-27.76 26.15-27.95.01-.01 1.49.19 2.17.23.68.01 2.2-.9 2.53-.3.1.19 9.84 17.04 29.95 34.82 13.36 11.81 28.29 17.87 33.83 19.85l.02 4.03c-4.48-1.48-21.17-7.6-36.37-21.04-16.3-14.42-26.05-29.27-29.73-35.2-3.46 5.14-12.37 17.07-26.12 28.48-12.83 10.64-24.05 16.37-28.15 18.29z" fill="#a42718"/><path d="m124.15 108.37v8.37c0 4.15-3.37 7.52-7.52 7.52h-105.31c-4.15 0-7.52-3.37-7.52-7.52v-8.21z" fill="#024fac"/><path d="m44 124.26h41.83s.73-.21.66-1.5c-.1-2.02-3.18-2.25-3.18-2.25s7.21-.27 9.06-2.06c1.38-1.34.93-3.57.02-3.78s-55.42-1.05-55.42-1.05-1.57.22-1.29 2.67c.21 1.81 2.81 3.17 5.32 3.41 1.69.16 4.64.36 4.64.36s-2.07.54-2.26 2.45c-.1 1.17.62 1.75.62 1.75z" fill="#1a1a1d"/><path d="m60.24 102 10.32-10.91" fill="none" stroke="#fe5317" stroke-miterlimit="10" stroke-width="2.3"/><path d="m60.14 91.52 9.88 10.7" fill="none" stroke="#fe5317" stroke-miterlimit="10" stroke-width="2.3"/><path d="m3.79 79.55h120.35v9.05h-120.35z" fill="#ff5117"/><g fill="#f86e49"><path d="m6.65 78.05h1.5v10.9h-1.5z"/><path d="m17.91 72.48h1.5v16.84h-1.5z"/><path d="m27.6 66.18h1.5v23.26h-1.5z"/><path d="m38.02 57.58h1.5v31.5h-1.5z"/><path d="m48.2 47.77h1.5v41.43h-1.5z"/><path d="m81.15 30.45h1.5v58.87h-1.5z"/><path d="m90.59 41.23h1.5v47.73h-1.5z"/><path d="m100.41 50.8h1.5v37.92h-1.5z"/><path d="m111.07 58.31h1.5v30.04h-1.5z"/><path d="m120.76 64.85h1.5v23.86h-1.5z"/></g><path d="m124.15 62.17c-4.49-1.89-14.31-6.56-24.87-15.01-17.23-13.78-23.94-27.16-24-27.29l-3.36 1.71c.27.58 7.01 14.17 24.99 28.55 12.37 9.89 23.49 14.7 27.24 16.16z" fill="#a42718"/><path d="m53.58 101.6.46-59.63h1.6v-22.09l1.34-.04s0-1.11.01-2.13c.01-1.06.52-1.78 1.3-1.81 1.86-.07 1.87 3.32 1.87 3.32s2.06 1.66 5.82 1.61 4.73-1.43 4.73-1.43-.02-3.7 1.39-3.69c1.01 0 1.63.63 1.67 1.76.03 1.14.05 2.4.05 2.4l1.47.01-.21 22.24 1.23-.01-.39 59.98-6.15-.37-.07-11.88-.02-3.82-.39-60.01h-8.1l-.55 59.76-.04 4.45-.1 11.32z" fill="#fe5314"/><path d="m59.06 63.13h14.55l-3.64-7.07s-2.56 1.21-4.99 1.21-5.46-2.56-5.46-2.56z" fill="#fe5314"/><path d="m60.27 45.48s1.06-1.03 1.95-1.48c1.21-.61 4.85-.61 6.2 0 .8.36 2.43 2.49 2.43 2.49l-.67-11.97s-.89 3.97-4.72 4.35c-1.74.17-5.12-2.09-5.12-2.09z" fill="#fe5314"/><path d="m58.99 20.21c1.3 1.18 3.94 1.94 6.14 1.88 3.02-.07 5.89-.96 6.87-1.57.19-.12.11-4.81.11-4.81s-.8-.13-1.22.67c-.44.84-.32 2.85-.32 2.85s-1.66 1.49-5.44 1.43c-3.25-.06-4.71-1.28-4.71-1.28s-.28-2.28-.72-2.93c-.5-.73-1.34-.56-1.34-.56s.3 4.02.63 4.32z" fill="#f86e49"/><path d="m60.98 36.29c-.6-.2-.52.87.29 1.84 1.12 1.36 6 1.21 7.22.21.86-.71.89-1.44.84-2.01-.03-.37-2.11.93-4.26.88-2.16-.04-3.49-.72-4.09-.92z" fill="#f86e49"/><path d="m60.98 55.44c-.58.17-.22 1.41.85 2.3 1.47 1.22 5.44 1.07 6.59.17 1.1-.85 1.38-2.08 1.04-2.37-.33-.29-2.42.96-4.09.98-2.56.03-3.86-1.24-4.39-1.08z" fill="#f86e49"/><path d="m124.16 92.88-120.37-.01v-4.41l120.35-.04z" fill="#a42718"/><path d="m57.23 37.17h1.5v51.27h-1.5z" fill="#f86e49"/><path d="m3.78 77.57c4.91-2.16 18.55-8.93 35.81-24.02 21.63-18.9 28.63-32.79 29.56-33.53.04-.04 1.42-.84 1.42-.84l1.08.47c-.05.12-.15 1.98-.17 2.01-2.65 4.52-10.84 18.55-29.38 34.75-19.97 17.44-34.95 23.95-38.32 25.29z" fill="#a42718"/><path d="m51.39 111.85s-9.55 0-11.87.26c-1.55.17-3.6.91-3.75 2.35-.19 1.78 1.73 3.02 6.59 3.02s42.32.08 45.77-.07 5.01-.9 4.89-2.66c-.14-1.92-3.75-2.22-6.07-2.52-2.04-.26-9.28-.42-9.28-.42s.24-8.43-.16-9.28-13.69-.77-13.69-.77-12.15-.13-12.27.62c-.13.79-.16 9.47-.16 9.47z" fill="#4f838f"/><path d="m52.16 101.02c-.89.28-.71 2-.71 2l26.17.05s.07-1.8-1.04-1.97c-1.5-.24-23.34-.42-24.42-.08z" fill="#79aec0"/><circle cx="67.06" cy="8.7" fill="#ffbb23" r="1.51"/><ellipse cx="21.88" cy="20.04" fill="#fac018" rx="1.8" ry="1.64" transform="matrix(.385 -.9229 .9229 .385 -5.0451 32.5168)"/><ellipse cx="36.78" cy="19.48" fill="#ffbb23" rx="1.38" ry="1.41"/><circle cx="88.6" cy="23.51" fill="#ffbb23" r="1.26"/><path d="m98.37 35.54c.07 1.03-.67 1.49-1.43 1.54-.76.04-1.42-.59-1.47-1.42s.53-1.54 1.29-1.59c.77-.05 1.53.34 1.61 1.47z" fill="#ffbb23"/><ellipse cx="117.79" cy="25.96" fill="#ffbb23" rx="1.51" ry="1.57" transform="matrix(.9634 -.2682 .2682 .9634 -2.6478 32.547)"/><ellipse cx="11.78" cy="33.76" fill="#ffbb23" rx="1.43" ry="1.51" transform="matrix(.7071 -.7071 .7071 .7071 -20.4187 18.2205)"/><path d="m30.33 33s-1.52-2.57-1.99-2.47c-.49.11-.36 3.27-.36 3.27s-2.81.64-2.88 1.06c-.06.42 2.95 1.44 2.95 1.44s-.1 3.14.26 3.17 2.24-2.34 2.24-2.34 2.66.87 2.92.58c.15-.17-1.44-2.76-1.44-2.76s1.6-2.18 1.38-2.56-3.08.61-3.08.61z" fill="#ffbb23"/><path d="m99.75 16.86s1.93-2.31 2.2-2.18c.27.14.05 2.94.05 2.94s2.8-.03 2.83.35c.03.39-2.21 1.74-2.21 1.74s1.06 2.48.98 2.57c-.24.26-2.69-.94-2.69-.94s-1.15 2.37-1.55 2.37-.74-2.87-.74-2.87-2.54.07-2.62-.23 1.98-2.04 1.98-2.04-1.55-2.47-1.2-2.83c.36-.35 2.97 1.12 2.97 1.12z" fill="#ffbb23"/></svg>