<svg enable-background="new 0 0 128 128" viewBox="0 0 128 128" xmlns="http://www.w3.org/2000/svg"><path d="m74.69 26.69s5.69-14.35 12.25-13.09c7.32 1.41 3.24 18.72 3.24 18.72z" fill="#ffb903"/><path d="m55.27 24.29s-6.9-13.66-12.67-11.68-1.55 19.99-1.55 19.99z" fill="#ffb903"/><path d="m47.94 25.28s1.97-2.39 18.44-1.83 25.62 6.34 25.62 6.34 5.68-4.35 11.22-6.24c8.23-2.8 19.3 1.91 20.17 3.71.67 1.37-3.1 13.57-8.02 17.74-5.49 4.65-11.4 4.36-11.4 4.36s-1.3 8.55-1.55 14.92c-.14 3.66.36 7.48.99 9.43 1.27 3.94 1.99 6.65 2.62 11.48.53 4.03.62 7.94.62 7.94l-65.32-16.47z" fill="#dfdfdf"/><path d="m38.79 75.54s10.23-2.72 12.95-4.18c2.32-1.24 15.35-6.95 16.33-24.54s-11.44-22.71-13.13-23.14c-1.69-.42-7.79 1.22-11.36 3-1.52.76-4.79 2.96-4.79 2.96s-6.48-6.76-16.61-7.74c-10.13-.99-17.74 4.36-17.88 5.07-.14.7 3.8 14.53 11.01 19.34 2.1 1.4 4.8 2.03 6.65 2.28 4.84.66 6.69.06 6.69.06s-.7 7.46-.84 11.26-.22 9.17-.66 13.05c-.28 2.49-3.66 9.1-3.75 13.98-.06 3.24 15.39-11.4 15.39-11.4z" fill="#bc8954"/><g fill="#ffd3b0"><path d="m65.74 74.41c12.16.29 14.99-1.83 23.28-1.27s18.85 9.29 17.85 21.82-11.42 21.54-22.56 24.07-35.99 2.82-47.7-3.52c-11.76-6.36-14.28-14.92-14.42-22.95s5.85-19.56 18.84-20.96 12.71 2.53 24.71 2.81z"/><path d="m97.92 39.64c-2.08-3.64 0-9.39 6.57-10.89s13.14 1.5 13.14 1.5-2.01 7.7-6.57 10.7c-3.85 2.54-10.14 3.94-13.14-1.31z"/><path d="m25.09 29.13c-5.85-1.82-13.46.55-13.46.55s.24 3.38 2.64 6.65c1.44 1.96 3.59 4.31 6.99 5.43 7.98 2.63 10.96-2.12 11.61-4.28.67-2.16-.55-6.1-7.78-8.35z"/></g><ellipse cx="49.52" cy="57.29" fill="#0a0a0a" rx="6.85" ry="5.37" transform="matrix(.1426 -.9898 .9898 .1426 -14.253 98.1324)"/><ellipse cx="83.64" cy="57.73" fill="#0a0a0a" rx="5.37" ry="6.86" transform="matrix(.9881 -.1539 .1539 .9881 -7.8897 13.5647)"/><path d="m73.14 99.52c-3-2.35-1.32-8.55 3.66-12.01 5.26-3.66 10.73-2.32 11.73-.09 1.31 2.91-.19 4.69-1.78 5.91-1.51 1.15-3.57.94-4.88 1.69s-1.88 2.72-3.66 4.32c-1.65 1.47-4.07.95-5.07.18z" fill="#2e2f31"/><path d="m40.48 87.88c.94-4.22 7.67-4.06 12.48-.38 5.08 3.89 6.1 9.39 3.94 11.26-2.46 2.14-4.84 1.07-6.32-.21-1.44-1.24-1.95-2.24-3.07-3.27-1.11-1.02-3.1-1.32-5.16-2.53-1.9-1.11-2.27-3.07-1.87-4.87z" fill="#2e2f31"/></svg>