<svg enable-background="new 0 0 128 128" viewBox="0 0 128 128" xmlns="http://www.w3.org/2000/svg"><path d="m116 4h-104c-4.42 0-8 3.58-8 8v104c0 4.42 3.58 8 8 8h104c4.42 0 8-3.58 8-8v-104c0-4.42-3.58-8-8-8z" fill="#bdbdbd"/><path d="m109.7 4h-98.2c-4.13.03-7.47 3.37-7.5 7.5v97.9c-.01 4.14 3.34 7.49 7.48 7.5h.02 98.1c4.14.01 7.49-3.34 7.5-7.48 0-.01 0-.01 0-.02v-97.9c.09-4.05-3.13-7.41-7.18-7.5-.07 0-.15 0-.22 0z" fill="#e0e0e0"/><path d="m39.7 12.9c0-2.3-1.6-3-10.8-2.7-7.7.3-11.5 1.2-13.8 4-1.9 2.3-2.3 5.6-2.6 8.4-.2 2.2-2.2 14.9 3.5 11.2.68-.45 1.23-1.07 1.6-1.8 1.2-2.1 1.9-3.5 3.3-5.6 5.3-8.6 18.8-10.5 18.8-13.5z" fill="#fff"/><path d="m99.74 102.72c1 0 1.75-.95 1.49-1.91-1.36-4.97-6.95-9.01-13.65-9.01-6.73 0-12.33 3.93-13.67 9.02-.25.96.49 1.91 1.49 1.91 0-.01 24.34-.01 24.34-.01z"/><path d="m66.36 79.4c-1.72-5.63-1.04-10.06 3.43-11.52 3.77-1.22 7.02 1.46 7.61 2.23 2.2-3.31 5.95-5.48 10.22-5.48s8.02 2.18 10.22 5.48c.59-.76 3.84-3.45 7.61-2.23 4.47 1.45 5.15 5.89 3.43 11.52-.48 1.56-.48 3.21.27 5.07.19.48-.24.99-.73.85-6.2-1.75-6.25-7.56-6.47-9.87-.25-2.69-1.76-2.77-2.75-2.57.59 1.71.84 3.58.59 5.55-.77 6.01-6 10.68-12.07 10.74-6.82.06-12.38-5.46-12.38-12.27 0-1.41.25-2.75.68-4.01-.99-.21-2.35-.16-2.75 2.57-.32 2.22-.29 7.78-5.94 9.7-.68.23-1.34-.42-1.11-1.1.61-1.7.58-3.22.14-4.66z"/><path d="m34.14 56.72h9.17c10.64 0 17.35 4.71 17.35 13.93v25.13c0 3.83-3.11 6.94-6.94 6.94h-29.99c-3.84 0-6.94-3.11-6.94-6.94v-25.13c0-9.22 6.71-13.93 17.35-13.93z"/><circle cx="38.72" cy="37.88" r="15.22"/></svg>