<svg enable-background="new 0 0 128 128" viewBox="0 0 128 128" xmlns="http://www.w3.org/2000/svg"><path d="m69.54 6.37 52.2 52c2.99 3.13 2.9 8.08-.2 11.1l-52 52.2c-3.12 3.12-8.18 3.12-11.3 0l-52-52.2c-3.04-3.04-3.13-7.95-.2-11.1l52.2-52c3.12-3.12 8.18-3.12 11.3 0z" fill="#1976d2"/><path d="m64.64 10.47 48.5 48.4c2.79 2.89 2.71 7.49-.18 10.28-.01.01-.01.01-.02.02l-48.4 48.5c-2.9 2.9-7.59 2.9-10.49.01 0 0 0 0-.01-.01l-48.3-48.5c-2.9-2.79-2.99-7.39-.21-10.29 0 0 0 0 .01-.01l48.6-48.4c2.89-2.9 7.59-2.91 10.5 0-.01-.01 0-.01 0 0z" fill="#2196f3"/><g fill="#90caf9"><path d="m52.84 17.67c-1.6 1.1-33.1 32.3-33.1 32.3s-2.6 2.3-.8 4.7c1.7 2.2 4.3 1.1 5.6-.1s29.7-29 30.9-30.4c1.19-1.59 1.42-3.69.6-5.5-.8-1.6-2.1-1.8-3.2-1z"/><circle cx="15.44" cy="60.48" r="3.3"/></g></svg>