<svg enable-background="new 0 0 128 128" viewBox="0 0 128 128" xmlns="http://www.w3.org/2000/svg" xmlns:xlink="http://www.w3.org/1999/xlink"><radialGradient id="a" cx="69.7" cy="65.9" gradientUnits="userSpaceOnUse" r="47.6"><stop offset=".356" stop-color="#ffca28"/><stop offset=".505" stop-color="#ffb300"/></radialGradient><radialGradient id="b" cx="62.6" cy="83.1" gradientTransform="matrix(.972 .234 -.317 1.31 28 -40.8)" gradientUnits="userSpaceOnUse" r="35.1"><stop offset="0" stop-color="#ffb300"/><stop offset=".689" stop-color="#ffca28"/><stop offset="1" stop-color="#ffb300"/></radialGradient><radialGradient id="c" cx="1698" cy="-796" gradientTransform="matrix(-.808 -.266 -.631 1.92 959 1992)" gradientUnits="userSpaceOnUse" r="22.7"><stop offset="0" stop-color="#ffca28"/><stop offset=".5" stop-color="#ffb300"/></radialGradient><linearGradient id="d"><stop offset=".599" stop-color="#ffca28"/><stop offset="1" stop-color="#ffb300"/></linearGradient><radialGradient id="e" cx="-137" cy="-39" gradientTransform="matrix(.0108 1.05 -.664 .0104 30.1 194)" gradientUnits="userSpaceOnUse" r="21.6" xlink:href="#d"/><radialGradient id="f" cx="-141" cy="-33.3" gradientTransform="matrix(-.00188 1.05 -.68 -.0018 11.6 204)" gradientUnits="userSpaceOnUse" r="18.2" xlink:href="#d"/><radialGradient id="g" cx="-753" cy="-1177" gradientTransform="matrix(.659 2.01 -.135 .0426 404 1568)" gradientUnits="userSpaceOnUse" r="88.8"><stop offset="0" stop-color="#ffca28"/><stop offset=".112" stop-color="#ffc41e"/><stop offset=".369" stop-color="#ffbb0d"/><stop offset=".65" stop-color="#ffb503"/><stop offset="1" stop-color="#ffb300"/></radialGradient><path d="m63.8 123c-25.1 0-37.3-12.9-37.3-39.3v-22.3c0-.8.06-1.29.12-1.59.73.42 2.08 1.58 3.11 2.48 3.42 2.96 8.09 7 13.5 7h29.7c.48 0 1.2-.01 2.09-.03 1.45-.03 3.37-.07 5.51-.07 16.7 0 17.8 2.49 17.9 2.77.28.97.65 1.96 1.04 3 1.11 2.95 2.36 6.28 2.36 11.1 0 13.8-4.93 36.9-38 36.9z" fill="url(#b)"/><path d="m28 62.4c.26.22.51.44.75.64 3.59 3.11 8.52 7.37 14.5 7.37h29.7c.49 0 1.21-.01 2.12-.03 1.42-.03 3.36-.07 5.49-.07 13 0 16 1.53 16.6 1.96.28.93.63 1.86 1 2.84 1.06 2.83 2.27 6.03 2.27 10.6 0 7-1.34 16.9-7.7 24.4-6.15 7.27-15.8 11-28.8 11-13.1 0-22.6-3.65-28.4-10.9-4.92-6.14-7.41-15.2-7.41-26.9v-20.9m-1.76-4.62c-.81 0-1.26.9-1.26 3.24v22.3c0 22.4 8.58 40.8 38.8 40.8s39.5-19.2 39.5-38.4c0-6.91-2.47-11-3.46-14.5-.95-3.34-11.6-3.86-19.4-3.86-3.45 0-6.35.1-7.6.1h-29.7c-7.67.01-14.3-9.63-17-9.63z" fill="#eda600"/><path d="m71.4 80.1c-.88 0-1.76-.14-2.61-.42-4.36-1.44-6.75-6.16-5.31-10.5l19.1-58c1.13-3.43 4.31-5.73 7.91-5.73.88 0 1.76.14 2.61.42 4.36 1.44 6.75 6.16 5.31 10.5l-19.1 58c-1.13 3.42-4.31 5.73-7.92 5.73z" fill="url(#c)"/><path d="m90.5 6.86c.72 0 1.44.12 2.14.35 1.73.57 3.14 1.78 3.96 3.41s.96 3.48.39 5.21l-19.1 58c-.93 2.81-3.53 4.7-6.49 4.7-.72 0-1.44-.12-2.14-.35-1.73-.57-3.14-1.78-3.96-3.41s-.96-3.48-.39-5.21l19.1-58c.93-2.81 3.53-4.7 6.49-4.7m0-3c-4.13 0-7.98 2.62-9.34 6.76l-19.1 58c-1.7 5.16 1.11 10.7 6.26 12.4 1.02.34 2.06.5 3.08.5 4.13 0 7.98-2.62 9.34-6.76l19.1-58c1.7-5.16-1.11-10.7-6.26-12.4-1.02-.34-2.06-.5-3.08-.5z" fill="#eda600"/><path d="m54.7 79.1c-4.72 0-8.56-3.84-8.56-8.56v-18.4c0-4.72 3.84-8.56 8.56-8.56s8.56 3.84 8.56 8.56v18.4c0 4.72-3.84 8.56-8.56 8.56z" fill="url(#e)"/><path d="m54.7 45c3.89 0 7.06 3.17 7.06 7.06v18.4c0 3.89-3.17 7.06-7.06 7.06s-7.06-3.17-7.06-7.06v-18.5c0-3.89 3.17-7.05 7.06-7.05m0-3c-5.55 0-10.1 4.5-10.1 10.1v18.4c0 5.55 4.5 10.1 10.1 10.1 5.55 0 10.1-4.5 10.1-10.1v-18.5c0-5.55-4.5-10-10.1-10z" fill="#eda600"/><path d="m34.7 80.3c-4.68 0-8.49-3.81-8.49-8.49v-14.1c0-4.68 3.81-8.49 8.49-8.49s8.49 3.81 8.49 8.49v14.1c0 4.68-3.81 8.49-8.49 8.49z" fill="url(#f)"/><path d="m34.7 50.7c3.85 0 6.99 3.14 6.99 6.99v14.1c0 3.85-3.14 6.99-6.99 6.99s-6.99-3.14-6.99-6.99v-14.1c0-3.85 3.13-6.99 6.99-6.99m0-3c-5.52 0-9.99 4.47-9.99 9.99v14.1c0 5.52 4.47 9.99 9.99 9.99s9.99-4.47 9.99-9.99v-14.1c0-5.52-4.48-9.99-9.99-9.99z" fill="#eda600"/><path d="m91 84c-3.61 0-6.79-2.3-7.91-5.73l-20.4-61.9c-.7-2.11-.53-4.37.48-6.36 1-1.99 2.72-3.46 4.83-4.16.85-.28 1.73-.42 2.61-.42 3.6 0 6.78 2.3 7.91 5.73l20.4 61.9c.7 2.11.53 4.37-.48 6.36-1 1.99-2.72 3.46-4.83 4.16-.84.28-1.72.42-2.6.42z" fill="url(#g)"/><path d="m70.6 7c2.96 0 5.56 1.89 6.49 4.7l20.4 61.9c1.18 3.58-.77 7.45-4.35 8.63-.7.23-1.42.35-2.14.35-2.96 0-5.56-1.89-6.49-4.7l-20.4-61.9c-1.18-3.58.77-7.45 4.35-8.63.7-.23 1.42-.35 2.14-.35m0-3c-1.02 0-2.06.16-3.08.5-5.16 1.7-7.96 7.26-6.26 12.4l20.4 61.9c1.36 4.14 5.21 6.76 9.34 6.76 1.02 0 2.06-.16 3.08-.5 5.16-1.7 7.96-7.26 6.26-12.4l-20.4-61.9c-1.37-4.13-5.21-6.76-9.34-6.76z" fill="#eda600"/><path d="m87.9 89.9c-3.71-1.09-7.79-1.48-11.4.26-3.7 1.8-5.57 5.42-7.06 9.06-.73 1.79 2.17 2.56 2.89.8 1.23-3 2.8-6.05 5.96-7.35 2.85-1.18 5.91-.72 8.78.13 1.86.54 2.65-2.35.8-2.9z" fill="#eda600"/><path d="m79.5 69.4c-2.55.29-21.3 2.36-24.6 2.36-2.13 0-3.73.77-4.75 2.27-1.49 2.2-1.42 5.46-.58 7.55 1.35 3.37 5.41 6.01 9.23 6.01.24 0 .49-.0112.73-.0312 3.33-.3 6.15-.449 8.65-.449 8.92 0 13.3 1.88 15.6 6.7 1.24 2.58 2.75 4.8 4.29 6.46 1.45.462 2.96.426 4.47.258 5.28-.58 6.98-9.89 7.2-18.9.0462-1.82-.569-3.42-1.6-4.83-5.78-3.69-14.3-6.34-18.6-7.38z" fill="url(#a)"/><path d="m79.6 67.9s-3.53.388-7.69.828c-5.8.622-12.4 1.3-15.8 1.49-.253.0149-.476.0273-.678.0352-.161.00551-.45.0273-.57.0273-4.99 0-7.12 3.57-7.39 7.21-.0247.329-.036.657-.0312.984.000027.00195-.000028.00392 0 .00586.00493.326.024.65.0566.969.099.967.322 1.89.648 2.7.108.27.229.536.363.795s.282.512.439.76c.151.237.313.468.484.693.0358.0472.0747.092.111.139.145.184.294.366.451.541.0349.039.0719.0767.107.115.172.187.35.369.535.545.0137.013.0273.0261.041.0391.201.189.41.373.625.549.0205.0168.0419.0322.0625.0488.222.179.449.35.684.514.00194.00135.00392.00256.00586.00391.247.172.501.336.76.49.26.155.525.302.795.438 1.89.952 4.01 1.42 6.03 1.24 1.67-.153 3.18-.252 4.6-.326.626-.0324 1.23-.0585 1.81-.0762.201-.00636.394-.011.59-.0156.498-.0112.992-.0213 1.46-.0215.015-.000012.0319 0 .0469 0 .0809 0 .152.00358.232.00391 1.08.00472 2.09.0366 3 .0996.0156.00106.0333.000876.0488.00195.00188.000132.00398-.000131.00586 0 .396.0277.768.0654 1.13.104.147.0152.297.03.439.0469.336.0399.662.0839.975.133.147.023.289.0473.432.0723.304.0536.607.109.889.172.0931.0206.177.0449.268.0664.51.121.984.258 1.42.408.135.0461.276.0899.404.139.194.0736.374.153.555.232.131.0575.261.115.385.176.182.089.356.182.523.277.0918.0522.18.106.268.16.172.106.343.211.5.324.0491.0352.0929.0735.141.109.357.268.682.555.973.859.0148.0155.0323.0293.0469.0449.00218.00233.00368.00548.00586.00781.148.159.286.324.42.492.0227.0287.046.057.0684.0859.14.181.273.367.398.559.264.403.506.821.721 1.27 2.45 5.09 5.3 6.19 8.26 6.19-1.81-1.45-3.89-4.03-5.54-7.48-2.58-5.36-7.49-7.54-17-7.54-2.54 0-5.42.151-8.79.461-.19.02-.39.0293-.6.0293-3.25 0-6.7-2.23-7.84-5.07-.67-1.68-.75-4.4.43-6.15.73-1.08 1.88-1.61 3.51-1.61 3.34-.01 20.7-1.92 24.5-2.34 1.55.39 6.59 1.73 11.7 3.89 3.61 1.54 6.47 3.18 8.45 4.8-.827-3.31-3.91-5.8-7.41-7.62-6.33-2.68-12.5-4.12-12.5-4.12z" fill="#eda600"/></svg>