<svg enable-background="new 0 0 128 128" viewBox="0 0 128 128" xmlns="http://www.w3.org/2000/svg"><path d="m36.6 59.5c-2.2.9-5.4 2.4-8.1 5.2s-1.7 9.4-1.4 11.1c1 5.5 1.1 12.5 3 15.5 3.1 5 10.2 10.8 13.6 14.5.7.7 1.5 1.2 1.7 3.4s.6 7.2.8 8.1c.1.9.5 2.6 2.1 3 10.1 2.3 35.6.6 39.4-.3 1-.2 1.6-.8 1.6-1.9 0-1.7.2-6.2.2-7.5 0-1.2.7-3.7 2-5.1 3.6-3.9 7.4-12.6 8.6-16.3s2.3-6.7 1.4-13.6c-1.3-10-2.7-22.3-5.3-26.8-3.2-5.4-9.7-2.8-10.8.8-.6-8.9-10.7-11.4-14.6-4.7-.6-10.9-.6-30.6-2.3-34.9-2.1-5.3-9.6-5.8-12.3.8-.8 1.9-1.4 19.3-2 33.9-1.1-5-10.4-6.1-13.4 0-1.2 2.5-2.6 7.1-4.2 14.8z" fill="#ffca28"/><path d="m62.57 5.94c-2.47.04-5.02 1.56-6.37 4.86-.8 1.9-1.4 19.3-2 33.9-1.1-5-10.4-6.1-13.4 0-1.2 2.5-2.6 7.1-4.2 14.8-2.2.9-5.4 2.4-8.1 5.2s-1.7 9.4-1.4 11.1c1 5.5 1.1 12.5 3 15.5 3.1 5 10.2 10.8 13.6 14.5.7.7 1.5 1.2 1.7 3.4s.6 7.2.8 8.1c.1.9.5 2.6 2.1 3 10.1 2.3 35.6.6 39.4-.3 1-.2 1.6-.8 1.6-1.9 0-1.7.2-6.2.2-7.5 0-1.2.7-3.7 2-5.1 3.6-3.9 7.4-12.6 8.6-16.3.96-2.97 1.84-5.51 1.7-9.95-.82.02-1.69.44-2.1 1.55-.9 2.4-3.7 4-6.4 4.1-2.7 0-3.5-1.8-6.9-1.6-3.3.2-4.1 2.7-8.5 2.7-3.3 0-5.2-2.7-9.5-2.8-4.2-.1-5.1 2.5-10 2.4-4.1-.1-4.5-3.3-8.5-3.8-3.3-.4-4.9 1.4-7.8 1.3s-5-2.5-4.9-4.3c.9-18.4 4-28.8 5-31.9 1.6-5.2 9-4.3 9.4-1.2.2 1.6.8 5.8 1.1 12.8 3.5-1.2 3.3-3.6 3.4-5 1.2-25.9 1.4-38.8 2.2-41.7 1.4-5 7.8-4 8.4-.9l2.51 2.59c-.2-1.48-.42-2.76-.71-3.49-1.05-2.65-3.45-4.1-5.93-4.06zm8.05 34.38c-2.85 3.28-2.62 9.69-2.62 10.78 0 1.2 1.8 1.9 2.3-.1 2.9-10.7 11.7-7.6 12.6-2.1.2 1.5.8 4.3 1 6.1s1.6 2.1 1.8 0c1-8.5 8.7-9.1 10.9-1.5 0 0 .69.34 1.43.36-.54-2.1-1.14-3.87-1.83-5.06-3.2-5.4-9.7-2.8-10.8.8-.6-8.9-10.7-11.4-14.6-4.7-.07-1.32-.12-3.04-.18-4.58z" fill="#faa700"/><path d="m64.34 6.17c-.09.33-.08.66.26.83 1 .7 1.8 2.5 1.9 5.2.1 2.8.8 48.2.9 49.3.1 2.2 3.5 2.2 3.5 0 0-2.1-.1-14.5-.1-16.5 0-.02.01-.1.01-.12 0 .01-.01.01-.01.02-.6-10.9-.6-30.6-2.3-34.9-.8-2.01-2.37-3.33-4.16-3.83zm-13.72 34.86c.41.83.68 1.99.68 4.17 0 2.9-.9 15.9-1 16.6-.2 2.2 2.8 2.6 3 0s1.1-15.1.9-17c-.01-.06-.02-.14-.03-.2-.42-1.71-1.8-2.93-3.55-3.57zm30.28 1.04c.62.77 1.04 1.66 1.2 2.93.4 3.1 1.3 15.6 1.5 17.3.1 1.7 2.9 1.8 2.7-.3s-.8-9.9-1-12.4c-.04-.5-.07-.95-.1-1.44-.58-2.91-2.25-4.97-4.3-6.09zm13.43 4.66c.79 1.71 1.81 5 2.27 8.47.4 3 2 20.6 2 25 0 2.3-.1 4.1-.8 6.1s-4 11.3-8.9 17.7c-1.4 1.8-2.3 3.3-2.2 5.8.1 2.4-.1 5.5 0 6.9.09 1.35 1.39 3.15 2.45 2.21.09-.24.15-.5.15-.81 0-1.7.2-6.2.2-7.5 0-1.2.7-3.7 2-5.1 3.6-3.9 7.4-12.6 8.6-16.3s2.3-6.7 1.4-13.6c-1.3-10-2.7-22.3-5.3-26.8-.54-.91-1.18-1.58-1.87-2.07zm-57.73 12.77c-.55.23-1.17.49-1.82.8-2.36 2.83-2.85 6.85-2.58 8.4.5 3.2 3.5 1.8 3.5.3 0-.9.7-7.6.9-9.5z" fill="#b55e19"/></svg>