<svg enable-background="new 0 0 128 128" viewBox="0 0 128 128" xmlns="http://www.w3.org/2000/svg"><path d="m36.61 123.93 48.56-69.33-7.99-15.61c-6.69 4.63-21.21 14.68-23.41 16.07-.59.37-1.04.9-1.3 1.54 0 0-16.48 42.97-19.16 49.93-2.91 7.57-2.96 10.64-2.21 12.9.65 1.99 5.51 4.5 5.51 4.5z" fill="#82aec0"/><path d="m112.73 5.68c-10.25-4.65-22.88 1.09-28.21 12.83-2.13 4.69-2.17 10.11-2.15 12.14.03 2.8-4.29 6.87-5.66 8.08-.24.21-.29.56-.13.83l8.4 14.64c.22.38.73.45 1.05.15l1.68-1.6c4.65-3.59 8.96-3.37 10.63-3.13 9.08 1.29 18.79-4.35 23.29-14.26 5.34-11.74 1.35-25.03-8.9-29.68zm-15.44 34c-6.15-2.79-8.54-10.76-5.35-17.8 3.2-7.04 10.77-10.49 16.92-7.7s8.54 10.76 5.35 17.8c-3.19 7.05-10.77 10.5-16.92 7.7z" fill="#de3e31"/><circle cx="64" cy="62.87" fill="#a8e3f0" r="4.55"/><path d="m49.17 65.19 11.48 24.42 3.82-5.46-14.57-20.86z" fill="#2f7889"/><path d="m77.82 65.09 2.61-3.72-1.89-5.18c-.68-2-.97-3.01-2.27-3.63l-11.53-4.98-1.24.86z" fill="#2f7889"/><path d="m91.39 123.93-48.56-69.33 7.72-15.8c6.56 4.54 21.45 14.85 23.68 16.25.59.37 1.04.9 1.3 1.54 0 0 16.48 42.97 19.16 49.93 2.91 7.57 2.96 10.64 2.21 12.9-.65 2-5.51 4.51-5.51 4.51z" fill="#82aec0"/><path d="m60.05 76.15-3.02-1.29 34.36 49.06s3.7-3.95-1.02-11.23l-20.96-28.73c-2.29-3.46-5.54-6.18-9.36-7.81z" fill="#b9e4ea"/><circle cx="64" cy="62.87" fill="#b9e4ea" r="4.55"/><path d="m6.36 35.36c4.5 9.92 14.21 15.55 23.29 14.26 1.67-.24 5.97-.46 10.63 3.13l1.68 1.6c.32.3.83.23 1.05-.15l8.4-14.64c.16-.28.11-.62-.13-.83-1.36-1.21-5.69-5.28-5.66-8.08.02-2.03-.02-7.45-2.15-12.14-5.32-11.74-17.95-17.48-28.2-12.83s-14.24 17.94-8.91 29.68zm7.43-3.37c-3.2-7.04-.8-15.01 5.35-17.8s13.72.65 16.92 7.7c3.2 7.04.8 15.01-5.35 17.8s-13.73-.66-16.92-7.7z" fill="#de3e31"/><g fill="#ff7555"><path d="m92.67 10.75c-.6.71-.95 1.76-.38 2.65.63.99 3.45 1.1 9.37-3.02 1.65-1.15 1.23-2.83-.8-3.1-2.93-.45-6.39 1.17-8.19 3.47z"/><path d="m17.71 11.7c-2.5 1.43-3.56 2.27-5.58 5.62-.63 1.04-2.06 3.73-3.49 2.51-.94-.8-.87-2.65-.28-4.33 1.21-3.41 3.29-5.91 6.21-7.39 1.05-.53 3.63-1.36 5.06-.8 2.8 1.09.28 3.14-1.92 4.39z"/></g></svg>