<svg enable-background="new 0 0 128 128" viewBox="0 0 128 128" xmlns="http://www.w3.org/2000/svg"><path d="m9.41 23.72-5.1 2.38s-.53 3.6.29 7.57c.64 3.07 5.29 10.78 9.46 16.94 12.12 17.86 29.91 52.73 55.62 61.75 18.38 6.45 33.34 4.45 41.7-.07 10.12-5.47 11.67-13.72 11.67-13.72l-101.15-74.7s-12.49-.15-12.49-.15z" fill="#006ca8"/><path d="m43.7 36.64-35.18-20.83s-2.35 1.92-3.45 5.72c-.61 2.11-.77 4.68-.77 4.68s17.88 29.72 30.92 48.59c7.92 11.46 19.01 24.17 32.54 30.69 13.53 6.51 29.51 6.82 40.8 3.37 12.14-3.71 14.5-10.28 14.5-10.28s2.31-8.08-2.06-14.45z" fill="#34a9ae"/><path d="m17.48 11.91c-9.18 1.5-12.05 6.13-10.3 10.49 3 7.49 33.72 52.82 41.77 61.62s32.16 30.07 63.5 17.04c12.58-5.23 12.56-13 5.95-20.13-9.71-10.49-32.06-20.28-36.3-24.07-7.12-6.37-21.73-18.92-29.22-27.72-4.08-4.79-10.18-12.17-17.42-15.55-6.06-2.82-13.25-2.46-17.98-1.68z" fill="#86cdc7"/><path d="m68.99 37.26-12.53 1.15s3.13 3.9 4.51 5.43 1.99 2.75 4.2 2.75 9.55-1.22 16.73.46 11.61 6.42 11.61 6.42l5.65-1.38-9.47-11.69-20.71-3.13z" fill="#144e92"/><path d="m90.87 65.67-2.57 5.05s-4.63.54-14.23-3.12c-6.98-2.66-17.64-8.41-22.86-10.28-12.03-4.31-18.18-2.2-19.28-2.57s-6.7-8.26-6.52-8.63 7.9-2.48 7.9-2.48l14.69 1.47 17.53 7.53 13.5 4.31 10.65 1.74s1.19 6.98 1.19 6.98z" fill="#1fa9eb"/><path d="m56.71 36.66c-1.07.78-.28 2.3.92 2.39s20.84-.92 26.9 1.56 10.28 5.51 12.21 10.47-8.54 6.15-8.54 6.15-13.86-2.39-22.95-6.33c-8.93-3.88-12.99-6.37-21.67-7.99-8.35-1.56-14.87.09-17.26 1.19s-1.01 3.12 1.1 2.3 9.46-1.47 16.16-.64c5.37.66 16.34 5.97 20.11 7.71s11.75 4.22 15.42 4.96c3.67.73 7.16 1.1 7.16 1.1s.83 3.21 1.29 5.6.73 5.6.73 5.6 3.18.14 5.42-.64c3.43-1.2 10.92-1.84 10.28-11.2s-9.62-17.33-14.41-20.01c-8.35-4.68-31.21-3.4-32.87-2.2z" fill="#0d6bdb"/><path d="m98.49 75.5-8.26 8.45s-1.09 5.29 2.75 5.6c3.4.28 8.35-2.39 9.27-13.13.31-3.61-3.76-.92-3.76-.92z" fill="#0d6bdb"/><path d="m88.2 57.23c-.21 1.46 2.48 7.07 2.48 12.3s-.46 14.41-.46 14.41 1.84 2.11 5.6.64 7.71-6.43 7.16-16.52c-.55-10.1-4.22-16.16-5.51-16.34s-9 3.58-9.27 5.51z" fill="#00a5ff"/></svg>