<svg enable-background="new 0 0 128 128" viewBox="0 0 128 128" xmlns="http://www.w3.org/2000/svg"><path d="m90.6 71.1c.1.4.6.5.8.2 3.9-4.8 14.6-18.1 26.7-14.7 3.9 1.1 5.7 5.5 4.1 8.8-2.4 5.2-15.8 14.1-22.5 25.6-1.1 1.8-10.3 23.1-25.8 29.3-15.4 6.2-42.2 5.4-50.1-24.6-4.1-15.5-1.8-19.1-6-39.7-.8-4-4.1-21.1-4.6-26.2-.7-6.8 9.4-9.1 11.8-3.3 1.1 2.8 9.4 26.6 9.7 27.7 2.3-10.5 6.8-13 12.2-12.8 4 .1 6.5 2.1 7.7 4.2 2.1-3.5 5.8-4.8 9.8-4.1 3.4.6 6.7 2.9 8.5 7.6.1-1.5 9.1-36.1 10.2-39.9 2-6.5 13.2-6 12.6 2.7-1.3 17.4-7.9 44-5.1 59.2z" fill="#ffca28"/><path d="m89.25 4.79c-2.64.06-5.28 1.57-6.15 4.41-1.1 3.8-10.1 38.4-10.2 39.9-.17-.46-.37-.87-.58-1.28-.38 1.88-1.22 6.08-1.22 6.08 1.7.2 3.5-.1 3.9-2s9.4-37.7 10.1-40.3c1.2-4.9 6.5-5.6 8.4-2.1.5.94 1.36.75 2.05.2-.67-3.37-3.47-4.98-6.3-4.91zm-69.22 18.41c-3.49-.14-7.27 2.35-6.83 6.6.5 5.1 3.8 22.2 4.6 26.2 4.2 20.6 1.9 24.2 6 39.7 5.45 20.7 19.9 27.49 33.4 27.68v-1.18c-20.2-2.6-28.2-15.8-30.9-27.9-3.1-13.8-2.3-24-4.5-32.8-.8-3.1-5.6-28.9-5.6-32.8 0-3.2 5.4-5.3 7.2-1.1.57 1.34 1.58 1.4 2.32.93-.14-.39-.64-1.83-.72-2.03-.9-2.17-2.88-3.21-4.97-3.3zm42.89 18.13c-3.42-.17-6.48 1.21-8.32 4.27-1.2-2.1-3.7-4.1-7.7-4.2-5.4-.2-9.9 2.3-12.2 12.8-.05-.17-1.03-2.97-1.4-4.05.33 2.87.88 7.61 1.1 8.95.3 1.8 3.2.7 3.1-.6s0-7 1.5-9.6c5.1-8.8 13.4-4.2 14.4-.7.2.6 1.4 1.2 2.2 0 5.2-8.2 13.1-3.2 14.5 0l1.27-2.05c-1.85-2.74-4.38-4.19-6.97-4.65-.5-.09-1-.14-1.48-.17zm50.72 14.73c-10.21.33-18.83 11.04-22.24 15.24-.2.3-.7.2-.8-.2-.17-.92-.3-1.88-.4-2.88l-1.7 1.78c-18 2-32.1 12.4-31.6 33 0 1.7 2.6 1.7 2.7-.1.6-9.7 5.9-24.6 28.4-29.2 1.1 1.8 4.1 1.4 5.1.1 6.8-8.4 12.6-15.1 22.1-15.1 3.6 0 6.3 3.3 3.9 7.3 0 0-1.5 2.2-2.1 3.2-.25.43 1.45-.18 2.93-.63 1.04-1.17 1.84-2.23 2.27-3.17 1.6-3.3-.2-7.7-4.1-8.8-1.51-.43-3-.59-4.46-.54zm-57.23 5.39c-.54.02-1.06.4-1.01 1.05.3 8.9-12.7 8-14.1 4.8-1.8-4.1-2.6-2.9-3-2.8-.6.2-.5 15.6 9.1 15.6 5.9 0 7.9-5.8 7.9-5.8s.9 5.7 7 5.2c9.6-.7 10.8-11.1 10.8-15.6.1-2.8-1.4-.9-1.4-.9.4 7.8-14.3 9.3-14.2-.5 0-.75-.55-1.08-1.09-1.05z" fill="#faa700"/><path d="m91.58 5.13c1 1.43 2.02 3.86 1.72 7.57-.4 5-4.9 32.4-5.3 35.6-.3 3.2-2.3 17.7-.6 23.8.5 1.7 2.6 1.3 3.1-.1.06-.17.14-.37.25-.65-.07-.06-.12-.14-.15-.25-2.8-15.2 3.8-41.8 5.1-59.2.26-3.75-1.68-5.97-4.12-6.77zm-71.55 18.07c-.46-.02-.93.03-1.39.1 2.51.48 3.96 2.84 4.36 4.2.5 1.7 8.1 25.2 9 27.7.6 1.4.2 5.6 5.2 11.8.5 3.7.5 14.9 10.2 14.9 3.1 0 5.1-.6 7.7-3.8 4.5 6.2 14.9 3.4 17.4-4.7 2-6.5 2.4-17.2.4-24.3-1.27-3.33-3.31-5.44-5.59-6.61-.16.39-.25.9-.01 1.21 4.1 4.7 4.3 13.3 4.3 16.3-.1 5.3-.4 10.7-2.2 13.9-3.6 6.2-10.5 5.9-12.9 1.2 2.1-7.6.8-24.6-1.9-29.5-.8-1.39-2.17-2.73-4.17-3.51-.23.39-.35.89.17 1.41 5.5 5.4 4.9 25.6 3.3 30.3-2.4 7-10.7 6.4-12.9 1.3-.9-2-.9-4.4-1.2-7.3-.1-1.2-1.9-5.6-2.1-10.7-.1-1.3-1.5-1.4-1.8-.3-.1.3-.2 1-.1 2.4-1.3-1.5-1.1-5-1.1-5-.3-1.1-8.6-24.9-9.7-27.7-.9-2.17-2.88-3.21-4.97-3.3zm102.61 38.32c-.54 1.3-1.38 2.76-2.84 4.28-9.4 9.7-17.1 13.9-23.7 26.6-12.6 24.29-31.79 36.59-61.67 22.31 11.59 10.87 28.45 10.03 39.47 5.59 15.5-6.2 24.7-27.5 25.8-29.3 6.7-11.5 20.1-20.4 22.5-25.6.59-1.22.71-2.58.44-3.88z" fill="#b55e19"/></svg>