<svg enable-background="new 0 0 128 128" viewBox="0 0 128 128" xmlns="http://www.w3.org/2000/svg" xmlns:xlink="http://www.w3.org/1999/xlink"><radialGradient id="a" cx="-1686.1" cy="37.6" gradientTransform="matrix(-1 0 0 -1 -1661.5 130)" gradientUnits="userSpaceOnUse" r="21.6"><stop offset="0" stop-color="#fff"/><stop offset="0" stop-color="#fef8ef"/><stop offset=".3" stop-color="#fdeed8"/><stop offset=".5" stop-color="#fce7c8"/><stop offset=".7" stop-color="#fce3be"/><stop offset="1" stop-color="#fce2bc"/></radialGradient><linearGradient id="b" gradientTransform="matrix(-1 0 0 -1 -1661.5 130)" gradientUnits="userSpaceOnUse" x1="-1736.61" x2="-1689.01" y1="90.39" y2="29.89"><stop offset="0" stop-color="#ae7237"/><stop offset=".2" stop-color="#af743a"/><stop offset=".4" stop-color="#b57c44"/><stop offset=".5" stop-color="#bf8b54"/><stop offset=".7" stop-color="#cd9e6c"/><stop offset=".8" stop-color="#dfb88a"/><stop offset=".9" stop-color="#f4d7af"/><stop offset="1" stop-color="#fce2bc"/></linearGradient><linearGradient id="c" gradientTransform="matrix(-1 0 0 -1 -1661.5 130)" gradientUnits="userSpaceOnUse" x1="-1680.17" x2="-1741.97" y1="11.52" y2="98.52"><stop offset="0" stop-color="#cecece"/><stop offset=".3" stop-color="#a69b99"/><stop offset=".5" stop-color="#83706b"/><stop offset=".7" stop-color="#6a5049"/><stop offset=".8" stop-color="#5b3d35"/><stop offset=".9" stop-color="#56362e"/></linearGradient><path d="m15.8 105.5s-4.8-7.7-5.3-11.1-1.3-9-.6-9 3.4 5.5 3.8 5.2-2.3-8.9-2-12 2.3-8.4 2.7-8.2 3.1 8.7 4.2 10.7 4.4 7 4.4 7 8.6.7 13.5 3.1 14.1 8 13.9 9.3-14.1 1.7-18.3 1.4-7.9-1.4-7.9-1.4 6.6 3.9 6.3 4.8-5.1 1.3-8.3 1.3-6.5-1.1-6.5-1.1z" fill="url(#a)" opacity=".8"/><path d="m24 57.8c5.5-7.3 16.8-21.7 44.2-39.3 25.4-16.3 50.5-16.9 53.9-13.8s2.4 4.3 1.8 9.9-2.6 10.6-6.8 14.5-3.4 2.3-6.1 3.3c-4 1.5-7.1 1.6-7.1 2.7s3 2 5.8 1.5 5.8-1.5 5.8-1.5l-7 8.2s-4.2-.3-6.6-.8-5.6-2.3-6.2-1 1.9 2.5 4.2 3.5 5.4 1.6 5.4 1.6-16.9 13.7-21.4 19-19.6 22-23.7 24.5-7.2 5.2-14.5 5.1-27.7 0-27.7 0 .4-14.3.4-19.9 3-13.9 5.8-17.6z" fill="url(#b)"/><path d="m39.3 60.3s2-5.8 1.2-8.7-4.5-6.4-4.5-6.4-5.6 6.6-6.8 10.8c-1.7 6.1-1 9.1 1.1 13.1s13.6 5.9 19.6 4.8 9.7-3.1 9.7-3.1-5.6-8.2-10.7-9.9-9.5-.6-9.5-.6z" fill="#6f4838"/><path d="m57.1 27.2s2.4 1.8 3 6.8-.8 7.4-.8 7.4 4.9-.2 9.4 1.7c6.9 2.8 10.1 8.6 10.1 8.6s-5.1 2.4-10.6 3.2-10.1.4-15.9-3.2c-3.4-2.1-4.1-2.4-4.1-2.4s-.9-9.6 1.7-14.6 7.2-7.5 7.2-7.5z" fill="#6f4838"/><path d="m70.6 31.1s-1.1-4 .5-7.9 6.8-9.1 6.8-9.1 2.7 4.8 3.3 7c.8 3.2-1.7 7.3-1.7 7.3s4.7.7 7.5 2.7c6.3 4.4 7.2 10.4 7.2 10.4s-8.6-1-13.2-2.3c-6.6-1.8-10.6-5.2-10.6-5.2s.2-2.9.2-2.9z" fill="#734b42"/><path d="m90.7 20.9s2.5 3.2 8.1 4.1 11.6.8 11.6.8-2.8-3.9-5.1-6.5-7.2-2.5-7.2-2.5 3.1-4.5 3-5.8-1.1-3.9-1.1-3.9-4.2 1.5-6.6 5.9-2.6 8-2.6 8z" fill="#734b42"/><path d="m5.4 121.6c-1-.4-1-2-1-3.2s15.3-37 28.6-53.6c12.5-15.6 30.7-28.3 39.6-35 14.6-11 45.5-23.4 47.5-24s3.1.3 1.1 1.6-22.4 8.4-47 24.9c-20 13.4-29.5 23.8-36.7 34.3-7.2 10.4-15.9 25.7-18.9 32.8s-7.4 17.5-8 18.9-3.7 3.9-5.2 3.3z" fill="url(#c)"/></svg>