<svg enable-background="new 0 0 128 128" viewBox="0 0 128 128" xmlns="http://www.w3.org/2000/svg"><path d="m116 4h-104c-4.42 0-8 3.58-8 8v104c0 4.42 3.58 8 8 8h104c4.42 0 8-3.58 8-8v-104c0-4.42-3.58-8-8-8z" fill="#689f38"/><path d="m109.7 4h-98.2c-4.13.03-7.47 3.37-7.5 7.5v97.9c-.01 4.14 3.34 7.49 7.48 7.5h.02 98.1c4.14.01 7.49-3.34 7.5-7.48 0-.01 0-.01 0-.02v-97.9c.09-4.05-3.13-7.41-7.18-7.5-.07 0-.15 0-.22 0z" fill="#7cb342"/><path d="m39.7 12.9c0-2.3-1.6-3-10.8-2.7-7.7.3-11.5 1.2-13.8 4s-2.9 8.5-3 15.3c0 4.8 0 9.3 2.5 9.3 3.4 0 3.4-7.9 6.2-12.3 5.4-8.7 18.9-10.6 18.9-13.6z" fill="#aed581"/><path d="m53.4 69.2-8.8 2.6c-.43.14-.72.55-.7 1v23.6c0 4.5-.9 6.7-3.6 8.1-2.5 1.2-6 1.5-11.3 1.6-.85.01-1.6-.57-1.8-1.4-.32-1.36-.72-2.69-1.2-4-.36-.96.13-2.02 1.08-2.38.2-.07.41-.11.62-.12 2.8 0 5.2 0 6-.1 1.2 0 1.7-.4 1.7-1.7v-20.7c.03-.55-.4-1.02-.95-1.05-.12-.01-.24.01-.35.05-3 .8-5.8 1.6-8.4 2.3-.98.28-2.01-.28-2.29-1.26 0-.01-.01-.02-.01-.04-.4-1.4-.9-3.3-1.3-4.7-.29-.9.21-1.86 1.11-2.15.06-.02.13-.04.19-.05 3.3-.8 7.1-1.7 11.2-2.8.46-.12.78-.53.8-1v-16.1c-.04-.54-.46-.96-1-1h-9.4c-.99.01-1.79-.79-1.8-1.78 0-.01 0-.01 0-.02v-4.5c-.01-.99.79-1.79 1.78-1.8h.02 9.4c.54-.04.96-.46 1-1v-15c-.01-.99.79-1.79 1.78-1.8h.02 4.8c.99-.01 1.79.79 1.8 1.78v.02 14.9c.04.54.46.96 1 1h6.9c.99-.01 1.79.79 1.8 1.78v.02 4.5c.01.99-.79 1.79-1.78 1.8-.01 0-.01 0-.02 0h-6.9c-.54.04-.96.46-1 1v13.3c-.03.55.4 1.02.95 1.05.12.01.24-.01.35-.05l6.6-1.8c.94-.29 1.94.23 2.23 1.17.03.11.06.22.07.33l.6 4.3c.23.91-.3 1.84-1.2 2.1zm18.6-10.6c-10.3 0-13.6-3.2-13.6-12.3v-22.3c-.01-.99.79-1.79 1.78-1.8h.02 4.8c.99-.01 1.79.79 1.8 1.78v.02 6.8c-.01.99.79 1.79 1.78 1.8h.02 32.5c.99-.01 1.79.79 1.8 1.78v.02 3.7c.01.99-.79 1.79-1.78 1.8-.01 0-.01 0-.02 0h-32.4c-.99-.01-1.79.79-1.8 1.78v.02 4.7c0 3.6 1 4.9 5 4.9h22.5c2.5 0 6.3-.1 8.9-.4.99-.11 1.89.6 2 1.6.1 1.2.3 2.5.4 3.7.14.96-.52 1.85-1.48 1.99-.04.01-.08.01-.12.01-2.4.2-6 .3-9.3.3zm-11.2 7h39.8c.99-.01 1.79.79 1.8 1.78v.02 36.3c.01.99-.79 1.79-1.78 1.8-.01 0-.01 0-.02 0h-4.8c-.99.01-1.79-.79-1.8-1.78 0-.01 0-.01 0-.02.01-.99-.79-1.79-1.78-1.8-.01 0-.01 0-.02 0h-23.4c-.99-.01-1.79.79-1.8 1.78v.02.5c.01.99-.79 1.79-1.78 1.8-.01 0-.01 0-.02 0h-4.4c-.99.01-1.79-.79-1.8-1.78 0-.01 0-.01 0-.02v-36.8c-.07-.93.63-1.73 1.55-1.8.08-.01.17-.01.25 0zm6.2 8.9v4c-.01.99.79 1.79 1.78 1.8h.02 23.3c.99.01 1.79-.79 1.8-1.78 0-.01 0-.01 0-.02v-4c.01-.99-.79-1.79-1.78-1.8-.01 0-.01 0-.02 0h-23.3c-.99-.01-1.79.79-1.8 1.78zm26.9 18.7v-4.3c.01-.99-.79-1.79-1.78-1.8-.01 0-.01 0-.02 0h-23.3c-.99-.01-1.79.79-1.8 1.78v.02 4.3c-.01.99.79 1.79 1.78 1.8h.02 23.3c.99.01 1.79-.79 1.8-1.78 0-.01 0-.01 0-.02z" fill="#fafafa"/></svg>