<svg enable-background="new 0 0 128 128" viewBox="0 0 128 128" xmlns="http://www.w3.org/2000/svg"><path d="m79.69 62.69c7.36 15.65 30.45 32.94 32.41 42.77 1.34 6.7-3.33 12.26-9.19 11.2-6.6-1.19-6.91-10.69-4.31-17.99 6.54-18.38 8.79-28.99 6.53-38.95l-1.08-4.68" fill="none" stroke="#616161" stroke-miterlimit="10" stroke-width="6"/><path d="m80.82 56.1c-1.87 0-1.14-1.61-1.14-3.6v-26.58c0-1.99-.73-3.6 1.14-3.6s5.12 1.11 5.12 3.6 0 24.59 0 26.58-3.25 3.6-5.12 3.6z" fill="#82aec0"/><path d="m82.1 113.93v-85.97c0-13.23-10.73-23.96-23.96-23.96h-23.18c-13.24 0-23.96 10.73-23.96 23.96v85.97c-3.3.97-5.71 4.02-5.71 7.63v.3c0 1.18.96 2.14 2.14 2.14h7.02 64.2 7.02c1.18 0 2.14-.96 2.14-2.14v-.3c0-3.62-2.41-6.66-5.71-7.63z" fill="#f44336"/><path d="m65.68 56.57h-38.75c-1.77 0-3.21-1.44-3.21-3.21v-30.94c0-1.77 1.44-3.21 3.21-3.21h38.75c1.77 0 3.21 1.44 3.21 3.21v30.93c0 1.78-1.43 3.22-3.21 3.22z" fill="#fff"/><path d="m32.22 29.6h29.31v7.64h-29.31z" fill="#9e9e9e"/><path d="m32.22 41.36h29.31v7.64h-29.31z" fill="#9e9e9e"/><path d="m24.13 47c-.05.52-.81.52-.86.01-.74-7.27-1.16-14.55-1.48-21.82-.47-4.02 2.63-7.49 6.78-7.21 11.79-.35 23.64-.35 35.43-.01 4.14-.28 7.27 3.19 6.79 7.21-.32 7.28-.75 14.57-1.49 21.85-.05.52-.81.52-.86 0-.77-7.53-1.19-15.07-1.53-22.59-.01-.16-.05-.31-.09-.45-.25-.9-1.12-1.65-2.02-1.56-.48.02-36.58.01-37.04-.01-.9-.09-1.77.66-2.02 1.57-.04.15-.07.3-.09.45-.34 7.51-.75 15.04-1.52 22.56z" fill="#82aec0"/><ellipse cx="46.31" cy="84.08" fill="#f5f5f5" rx="16.79" ry="17.89"/><path d="m38.87 86.6c0-4.37 7.43-12.95 7.43-12.95s7.43 8.58 7.43 12.95-3.33 7.92-7.43 7.92-7.43-3.55-7.43-7.92z" fill="#212121"/><path d="m11 110.03h71.1v3.89h-71.1z" fill="#c62828"/><path d="m17.45 22.04c.88-4.96 5.2-11.1 14.13-11.1" fill="none" stroke="#ff7555" stroke-linecap="round" stroke-miterlimit="10" stroke-width="5"/><path d="m101.69 55.91h5.98v3.88h-5.98z" fill="#9e9e9e" transform="matrix(-.9692 .2462 -.2462 -.9692 220.382 88.132)"/><path d="m104.77 29.85 6.73-12.2c.5-.9 1.16-1.7 1.95-2.35 2.46-2.02 7.97-6.58 9.13-7.84 1.51-1.64-1.29-5.1-3.28-3.73-1.56 1.08-7.3 6.12-9.69 8.23-.7.61-1.28 1.34-1.73 2.16l-7.07 12.82z" fill="#9e9e9e"/><path d="m100.66 37.73 9.42-1.95 3.32 11.82c.53 2.08-.43 2.68-2.27 3.15l-6.66 1.85m-5.22-15.27 8.05 18.35 7.62-2.13c3.19-.93 3.1-3.53 2.61-5.46l-3.93-14.4z" fill="#757575"/><path d="m103.82 21.12 4.87 2.74c.65.36.89 1.17.56 1.83l-.97 1.94 2.25 1.7c1.57 1.18 2.68 2.86 3.16 4.77l.27 1.05-6.96 1.79c-1.46.39-2.33 1.88-1.95 3.34l3.21 12.63c.32 1.36.4 2.48-.97 2.78l-5.55 1.38c-1.32.29-2.63-.52-2.96-1.83l-3.88-15.29c-1.74-6.85.94-9.17 1.5-10.3s3.5-4.21 3.5-4.21l2.01-3.76c.37-.69 1.23-.94 1.91-.56z" fill="#f44336"/><path d="m106.8 29.34-4.83-2.42" fill="none" stroke="#ff7555" stroke-linecap="round" stroke-miterlimit="10" stroke-width="4"/></svg>