<svg enable-background="new 0 0 128 128" viewBox="0 0 128 128" xmlns="http://www.w3.org/2000/svg" xmlns:xlink="http://www.w3.org/1999/xlink"><linearGradient id="a"><stop offset=".7275" stop-color="#454140" stop-opacity="0"/><stop offset="1" stop-color="#454140"/></linearGradient><radialGradient id="b" cx="111.53" cy="45.85" gradientTransform="matrix(1 0 0 .4912 -44.83 59.63)" gradientUnits="userSpaceOnUse" r="23.42" xlink:href="#a"/><linearGradient id="c"><stop offset=".6628" stop-color="#454140"/><stop offset="1" stop-color="#454140" stop-opacity="0"/></linearGradient><radialGradient id="d" cx="88.46" cy="49.33" gradientTransform="matrix(-.9057 .4238 -.3144 -.6719 185.39 74.32)" gradientUnits="userSpaceOnUse" r="6.92" xlink:href="#c"/><linearGradient id="e"><stop offset=".7247" stop-color="#454140" stop-opacity="0"/><stop offset="1" stop-color="#454140"/></linearGradient><radialGradient id="f" cx="106.4" cy="68.91" gradientTransform="matrix(-.0746 -.9972 .8311 -.0622 22.49 169.48)" gradientUnits="userSpaceOnUse" r="30.4" xlink:href="#e"/><radialGradient id="g" cx="32.42" cy="68.91" gradientTransform="matrix(.0746 -.9972 -.8311 -.0622 87.27 95.71)" gradientUnits="userSpaceOnUse" r="30.4" xlink:href="#e"/><radialGradient id="h" cx="37.55" cy="45.85" gradientTransform="matrix(-1 0 0 .4912 75.1 59.63)" gradientUnits="userSpaceOnUse" r="23.42" xlink:href="#a"/><radialGradient id="i" cx="14.49" cy="49.33" gradientTransform="matrix(.9057 .4238 .3144 -.6719 -14.14 105.67)" gradientUnits="userSpaceOnUse" r="6.92" xlink:href="#c"/><radialGradient id="j" cx="53.2" cy=".83" gradientTransform="matrix(1 0 0 -.6035 0 127.67)" gradientUnits="userSpaceOnUse" r="68.22"><stop offset=".5595" stop-color="#f5f5f5"/><stop offset="1" stop-color="#c6c6c6"/></radialGradient><linearGradient id="k" gradientTransform="matrix(1 0 0 -1 0 128)" gradientUnits="userSpaceOnUse" x1="87.79" x2="102.25" y1="13.6" y2="11.68"><stop offset="0" stop-color="#9e9e9e" stop-opacity="0"/><stop offset=".788" stop-color="#9e9e9e"/></linearGradient><linearGradient id="l" gradientTransform="matrix(1 0 0 -1 0 128)" gradientUnits="userSpaceOnUse" x1="52.08" x2="52.08" y1="22.84" y2="3.81"><stop offset=".0032" stop-color="#80cbc4"/><stop offset=".3326" stop-color="#73c6be"/><stop offset=".9409" stop-color="#51b8ae"/><stop offset="1" stop-color="#4db6ac"/></linearGradient><linearGradient id="m"><stop offset=".335" stop-color="#e0e0e0"/><stop offset=".668" stop-color="#d0d0d0"/><stop offset=".9874" stop-color="#bdbdbd"/></linearGradient><linearGradient id="n" gradientTransform="matrix(1 0 0 -1 0 128)" gradientUnits="userSpaceOnUse" x1="38.53" x2="38.53" xlink:href="#m" y1="11.2" y2="31.41"/><linearGradient id="o" gradientTransform="matrix(-1 0 0 -1 104.16 128)" gradientUnits="userSpaceOnUse" x1="38.68" x2="38.68" xlink:href="#m" y1="11.2" y2="31.41"/><linearGradient id="p" gradientTransform="matrix(1 0 0 -1 0 128)" gradientUnits="userSpaceOnUse" x1="51.65" x2="51.65" y1="83.69" y2="59.5"><stop offset=".2028" stop-color="#b3e5fc" stop-opacity=".5"/><stop offset="1" stop-color="#b3e5fc" stop-opacity=".2"/></linearGradient><linearGradient id="q"><stop offset="0" stop-color="#bdbdbd"/><stop offset="1" stop-color="#e0e0e0"/></linearGradient><linearGradient id="r" gradientTransform="matrix(1 0 0 -1 0 128)" gradientUnits="userSpaceOnUse" x1="80.21" x2="80.21" xlink:href="#q" y1="72.22" y2="84.85"/><linearGradient id="s" gradientTransform="matrix(1 0 0 -1 0 128)" gradientUnits="userSpaceOnUse" x1="25" x2="25" xlink:href="#q" y1="72.39" y2="84.51"/><radialGradient id="t" cx="52.11" cy="71.87" gradientTransform="matrix(0 1 1.4084 0 -49.11 4.02)" gradientUnits="userSpaceOnUse" r="22.9"><stop offset="0" stop-color="#f5f5f5"/><stop offset=".6761" stop-color="#eee"/><stop offset="1" stop-color="#e0e0e0"/></radialGradient><linearGradient id="u" gradientTransform="matrix(1 0 0 -1 0 128)" gradientUnits="userSpaceOnUse" x1="97.84" x2="123.59" y1="23.33" y2="19.92"><stop offset=".4369" stop-color="#f5f5f5"/><stop offset="1" stop-color="#c6c6c6"/></linearGradient><linearGradient id="v" gradientTransform="matrix(1 0 0 -1 0 128)" gradientUnits="userSpaceOnUse" x1="118.44" x2="95.96" y1="75.98" y2="23.27"><stop offset="0" stop-color="#b3e5fc" stop-opacity=".8"/><stop offset=".0826" stop-color="#aee3fc" stop-opacity=".82"/><stop offset=".6744" stop-color="#8dd8fa" stop-opacity=".93"/><stop offset="1" stop-color="#81d4fa"/></linearGradient><radialGradient id="w" cx="112.17" cy="40.38" gradientTransform="matrix(.9732 .2302 .2302 -.9732 -8.13 102.84)" gradientUnits="userSpaceOnUse" r="25.37"><stop offset="0" stop-color="#ce93d8"/><stop offset=".2054" stop-color="#ca8ad5"/><stop offset=".5366" stop-color="#bf73cc"/><stop offset=".9503" stop-color="#ad4cbe"/><stop offset="1" stop-color="#ab47bc"/></radialGradient><linearGradient id="x"><stop offset=".6985" stop-color="#454140" stop-opacity="0"/><stop offset="1" stop-color="#454140"/></linearGradient><radialGradient id="y" cx="70.13" cy="84.95" gradientTransform="matrix(.3076 .9515 .706 -.2282 -11.42 -4.29)" gradientUnits="userSpaceOnUse" r="35.63" xlink:href="#x"/><radialGradient id="z" cx="35.39" cy="123.8" gradientTransform="matrix(.8813 .4726 .5603 -1.045 -65.16 116.85)" gradientUnits="userSpaceOnUse" r="9.34"><stop offset=".58" stop-color="#454140"/><stop offset="1" stop-color="#454140" stop-opacity="0"/></radialGradient><radialGradient id="A" cx="164.43" cy="52.21" gradientTransform="matrix(-.9378 -.3944 -.2182 .5285 221.87 58.42)" gradientUnits="userSpaceOnUse" r="28.72" xlink:href="#x"/><radialGradient id="B" cx="31.64" cy="115.28" gradientTransform="matrix(1 0 0 -1.2233 0 153.74)" gradientUnits="userSpaceOnUse" r="8.58"><stop offset=".7016" stop-color="#454140" stop-opacity="0"/><stop offset="1" stop-color="#454140"/></radialGradient><radialGradient id="C" cx="30.46" cy="100.14" gradientTransform="matrix(-.9657 -.2598 -.2432 .9037 84.23 -54.72)" gradientUnits="userSpaceOnUse" r="16.08"><stop offset=".6605" stop-color="#454140" stop-opacity="0"/><stop offset="1" stop-color="#454140"/></radialGradient><radialGradient id="D" cx="26.64" cy="84.61" gradientTransform="matrix(.9907 .1363 .1915 -1.3921 -15.95 157.54)" gradientUnits="userSpaceOnUse" r="16.89"><stop offset=".5981" stop-color="#454140" stop-opacity="0"/><stop offset="1" stop-color="#454140"/></radialGradient><path d="m87.01 79.85c-1.25-2.27.34-4.58 3.06-7.44 4.31-4.54 9-15.07 4.64-25.76.03-.06-.86-1.86-.83-1.92l-1.79-.09c-.57-.08-20.26-.12-39.97-.12s-39.4.04-39.97.12c0 0-2.65 1.95-2.63 2.01-4.36 10.69.33 21.21 4.64 25.75 2.71 2.86 4.3 5.17 3.06 7.44-1.21 2.21-4.81 2.53-4.81 2.53s.83 2.26 2.83 3.48c1.85 1.13 4.13 1.39 5.7 1.43 0 0 6.15 8.51 22.23 8.51h8.95 8.95c16.08 0 22.23-8.51 22.23-8.51 1.57-.04 3.85-.3 5.7-1.43 2-1.22 2.83-3.48 2.83-3.48s-3.61-.31-4.82-2.52z" fill="#312d2d"/><path d="m52.1 95.79v-9.44l28.57-2.26 2.6 3.2s-6.15 8.51-22.23 8.51z" fill="url(#b)"/><path d="m83.21 83.16c-4.28-6.5 5.21-8.93 5.21-8.93s.01.01.01.01c-1.65 2.05-2.4 3.84-1.43 5.61 1.21 2.21 4.81 2.53 4.81 2.53s-4.91 4.36-8.6.78z" fill="url(#d)"/><path d="m94.73 46.65c4.25 10.35-.22 21.01-4.41 25.51-.57.62-3.01 3.01-3.57 4.92 0 0-9.54-13.31-12.39-21.13-.57-1.58-1.1-3.2-1.17-4.88-.05-1.26.14-2.76.87-3.83.89-1.31 20.16-1.7 20.16-1.7 0 .01.51 1.11.51 1.11z" fill="url(#f)"/><path d="m9.51 46.65c-4.24 10.35.23 21.01 4.41 25.5.57.62 3.01 3.01 3.57 4.92 0 0 9.54-13.31 12.39-21.13.58-1.58 1.1-3.2 1.17-4.88.05-1.26-.14-2.76-.87-3.83-.89-1.31-1.93-.96-3.44-.96-2.88 0-15.49-.74-16.47-.74.01.02-.76 1.12-.76 1.12z" fill="url(#g)"/><path d="m52.14 95.79v-9.44l-28.57-2.26-2.6 3.2s6.15 8.51 22.23 8.51z" fill="url(#h)"/><path d="m21.04 83.16c4.28-6.5-5.21-8.93-5.21-8.93s-.01.01-.01.01c1.65 2.05 2.4 3.84 1.43 5.61-1.21 2.21-4.81 2.53-4.81 2.53s4.9 4.36 8.6.78z" fill="url(#i)"/><path d="m51.79 95.9c-23.62.07-48.12 7.33-48.12 25.06v3.04h96.23v-3.04c.01-17.73-24.49-24.99-48.11-25.06z" fill="url(#j)"/><path d="m89.9 104.59-5.83 19.41h15.83v-3.04c.01-7.04-3.86-12.43-10-16.37z" fill="url(#k)"/><path d="m52 92.53h-9.08v9.98c0 4.51 3.7 8.17 8.26 8.17h1.65c4.56 0 8.26-3.66 8.26-8.17v-9.98z" fill="#edc391"/><path d="m79.44 50.64h-54.66c-5.89 0-10.71 5.14-10.71 11.41s4.82 11.41 10.71 11.41h54.65c5.89 0 10.71-5.14 10.71-11.41s-4.81-11.41-10.7-11.41z" fill="#edc391"/><path d="m52.11 11.27c-17.4 0-33.52 18.61-33.52 45.4 0 26.64 16.61 39.81 33.52 39.81s33.52-13.17 33.52-39.81c0-26.79-16.12-45.4-33.52-45.4z" fill="#f9ddbd"/><path d="m55.86 68.26c-.11-.04-.21-.07-.32-.08h-7.08c-.11.01-.22.04-.32.08-.64.26-.99.92-.69 1.63s1.71 2.69 4.55 2.69 4.25-1.99 4.55-2.69-.05-1.37-.69-1.63z" fill="#dba689"/><path d="m60.53 76.35c-3.19 1.89-13.63 1.89-16.81 0-1.83-1.09-3.7.58-2.94 2.24.75 1.63 6.44 5.42 11.37 5.42s10.55-3.79 11.3-5.42c.75-1.67-1.09-3.33-2.92-2.24z" fill="#444"/><path d="m43.77 49.97c-.93-1.23-3.07-3.01-7.23-3.01s-6.31 1.79-7.23 3.01c-.41.54-.31 1.17-.02 1.55.26.35 1.04.68 1.9.39s2.54-1.16 5.35-1.18c2.81.02 4.49.89 5.35 1.18s1.64-.03 1.9-.39c.29-.37.39-1-.02-1.55z" fill="#454140"/><path d="m74.92 49.97c-.93-1.23-3.07-3.01-7.23-3.01s-6.31 1.79-7.23 3.01c-.41.54-.31 1.17-.02 1.55.26.35 1.04.68 1.9.39s2.54-1.16 5.35-1.18c2.81.02 4.49.89 5.35 1.18s1.64-.03 1.9-.39c.28-.37.38-1-.02-1.55z" fill="#454140"/><ellipse cx="36.54" cy="59.02" fill="#312d2d" rx="4.93" ry="5.1"/><ellipse cx="67.68" cy="59.02" fill="#312d2d" rx="4.93" ry="5.1"/><path d="m62.65 105.16h-21.14l2.41 18.84h16.57z" fill="url(#l)"/><path d="m42.92 96.22c-5.92.43-8.69.94-8.69.94l-3.13 7.3 5.25 4.39-4.88 6.15 7.12 9h7.38z" fill="url(#n)"/><path d="m61.09 96.22c5.92.43 8.69.94 8.69.94l3.13 7.3-5.25 4.39 4.88 6.15-7.12 9h-7.38z" fill="url(#o)"/><path d="m55.92 68.21c-.1-.04-.21-.07-.32-.08h-6.99c-.11.01-.21.04-.32.08-.63.26-.98.91-.68 1.61s1.69 2.66 4.49 2.66 4.19-1.96 4.49-2.66c.32-.69-.03-1.35-.67-1.61z" fill="#dba689"/><path d="m31.1 44.31h42.65l5.79 5.1v15.03s-3.94 5.5-13.44 3.19-8.23-8.05-13.88-8.05-8.25 9.17-20.62 8.92c0 0-6.38-.56-7.56-4.56l-.27-16.61z" fill="url(#p)"/><path d="m88.28 54.76c.01.67-.19 1.32-.57 1.87l-5.47 8.05c-2.06 2.85-9.3 4.43-9.3 4.43l8.18-9.14-1.56-11.5-7.43-5.8s3.07.3 5.24.3 4.33 1.39 5.44 2.16l4.02 2.77c.88.61 1.4 1.6 1.41 2.67z" fill="url(#r)"/><path d="m18.15 59.02 3.85 5.66c2.06 2.85 9.3 4.43 9.3 4.43l-8.18-9.14 1.56-11.5 7.43-5.8s-3.07.3-5.24.3-4.33 1.39-5.44 2.16l-2.85 1.97c-.87.6-.8 11.36-.43 11.92z" fill="url(#s)"/><path d="m71.58 45.63c1.1 0 2.93.35 4.48 1.34 2.1 1.34 2.16 2.89 2.18 3.4.03.77.06 1.51.1 2.25.1 2.31.2 4.49.2 6.61 0 4.35-3.91 7.38-9.5 7.38-3.95 0-8.42-3.33-10.46-5.57-1.6-1.75-3.96-2.76-6.48-2.76s-4.88 1.01-6.48 2.76c-2.04 2.24-6.51 5.57-10.46 5.57-5.59 0-9.5-3.03-9.5-7.38 0-2.13.1-4.31.2-6.61.03-.74.07-1.49.1-2.25.02-.51.08-2.06 2.18-3.4 1.55-.99 3.38-1.34 4.48-1.34zm0-3h-38.94c-3.58 0-9.44 2.3-9.66 7.62-.13 3.2-.3 6.1-.3 8.99 0 6 5.21 10.38 12.5 10.38 5 0 10.15-3.78 12.67-6.55 1.08-1.18 2.67-1.78 4.26-1.78s3.19.6 4.26 1.78c2.53 2.77 7.67 6.55 12.67 6.55 7.29 0 12.5-4.38 12.5-10.38 0-2.88-.17-5.79-.3-8.99-.21-5.32-6.07-7.62-9.66-7.62z" fill="url(#t)"/><path d="m122.19 73.46c1.14 7.79-.11 16.87-.11 16.87l-10.26-.9s-.39-5.91 0-5.92z" fill="#80cbc4"/><path d="m111.86 87.8c-6.66-.81-9.59-1.6-9.59-1.6l-11.34 37.8h28.19l4.14-36.21s-3.15 1.01-11.4.01z" fill="url(#u)"/><path d="m110.36 112.59c-2.27 1.4-9.11.12-15.75-2.25-5.12-1.83-9.23-4.16-9.27-4.17-.53-.25-5.5-2.95-5.5-5.74 0-2.32 1.96-3.89 2.44-4.43.07-.07.1-.1.1-.1l17.46-17.6 13.14-31.8.02-.01s2.36-.81 5.67.49 5.01 3.46 5.01 3.46l-.02.01-11.85 32.62s.03 23.38 0 25.39c-.04 2.73-.36 3.45-1.45 4.13z" fill="url(#v)" opacity=".86"/><path d="m106.76 111.03c-5.64-2.2-17.38-6.85-23.03-9.14-1.53-.63-1.93-2.6-.77-3.77l7.43-7.49 19.51-.94v19.19c.01 1.61-1.62 2.74-3.14 2.15z" fill="url(#w)" opacity=".8"/><g fill="#fff"><path d="m99.24 96.72h2v6.8h-2z" transform="matrix(.3862 -.9224 .9224 .3862 -30.83 153.92)"/><path d="m101.26 91.28h2v6.8h-2z" transform="matrix(.3862 -.9224 .9224 .3862 -24.56 152.44)"/><path d="m103.29 85.84h2v6.8h-2z" transform="matrix(.3862 -.9224 .9224 .3862 -18.31 150.97)"/><path d="m105.31 80.4h2v6.8h-2z" transform="matrix(.3862 -.9224 .9224 .3862 -12.05 149.5)"/><path d="m107.33 74.96h2v6.8h-2z" transform="matrix(.3862 -.9224 .9224 .3862 -5.79 148.02)"/><path d="m109.35 69.52h2v6.8h-2z" transform="matrix(.3861 -.9224 .9224 .3861 .47 146.56)"/><path d="m111.37 64.08h2v6.8h-2z" transform="matrix(.3861 -.9224 .9224 .3861 6.74 145.08)"/><path d="m113.88 57.76h2v6.8h-2z" transform="matrix(.3861 -.9224 .9224 .3861 14.11 143.52)"/><path d="m115.91 52.32h2v6.8h-2z" transform="matrix(.3861 -.9224 .9224 .3861 20.37 142.05)"/></g><path d="m98.6 79.55s-2.53-2.14-2.52-4.09c.01-1.56 1.89-3.04 1.89-3.04s-1.8-2.77-1.14-4.28c.94-2.14 3.41-2.55 3.41-2.55s-1.12-2.79.65-4.43c1.26-1.17 4.9-.68 4.9-.68s.36-4.58 4.82-3.43c1.74.45 7.91 3.99 10.21 11.46 1.44 4.67 2 6.06 1.54 13.06-.2 2.97-7.71 2.97-10.54 1.95-7.05-2.54-9.05-5.64-10.02-5.62-.98.02-3.2 1.65-3.2 1.65z" fill="#80cbc4"/><g fill="#26a69a"><path d="m99.47 70.68c-.72.13-1.28.71-1.44 1.43l-.07.31 4.18-1.43c-.97-.46-1.94-.44-2.67-.31z"/><path d="m104.56 65.87c-.57-.63-1.23-.99-1.82-1.2-.94-.33-1.98.07-2.5.92z"/><path d="m107.85 59.82c-.73-.29-1.6-.07-2.04.58-.01.02-.02.04-.03.05 1.78.22 4.45 1.34 4.45 1.34-.55-1.06-1.56-1.65-2.38-1.97z"/></g><ellipse cx="95.85" cy="105.1" fill="#8f5d9b" rx="3.35" ry="14.43" transform="matrix(.3668 -.9303 .9303 .3668 -37.09 155.72)"/><ellipse cx="118.24" cy="48.8" fill="#81d4fa" rx="3.09" ry="5.73" transform="matrix(.3664 -.9305 .9305 .3664 29.51 140.94)"/><path d="m92.18 25.11c-2.44-3.69-7.91-8.64-12.82-8.97-.79-4.72-5.84-8.72-10.73-10.27-13.23-4.19-21.84.51-26.46 3.03-.96.52-7.17 3.97-11.51 1.5-2.72-1.55-2.67-5.74-2.67-5.74s-8.52 3.25-5.61 12.3c-2.93.12-6.77 1.36-8.8 5.47-2.42 4.9-1.56 8.99-.86 10.95-2.52 2.14-5.69 6.69-3.52 12.6 1.64 4.45 8.17 6.5 8.17 6.5-.46 8.01 1.03 12.94 1.82 14.93.14.35.63.32.72-.04.99-3.97 4.36-17.8 4.03-20.21 0 0 11.34-2.25 22.17-10.22 2.2-1.62 4.59-3 7.13-4.01 13.59-5.41 16.43 3.82 16.43 3.82s9.42-1.81 12.26 11.27c1.07 4.9 1.79 12.75 2.4 18.24.04.39.57.47.72.11.95-2.18 2.85-6.5 3.3-10.91.16-1.55 4.34-3.6 6.14-10.26 2.41-8.88-.54-17.42-2.31-20.09z" fill="#312d2d"/><path d="m88.33 55.5c.16-1.55 4.34-3.6 6.14-10.26.19-.71.35-1.43.5-2.15 1.46-8.09-1.16-15.52-2.79-17.98-2.26-3.41-7.1-7.89-11.69-8.81-.4-.05-.79-.1-1.16-.12 0 0 .33 2.15-.54 3.86-1.12 2.22-3.41 2.75-3.41 2.75 11.97 11.98 11.12 22 12.95 32.71z" fill="url(#y)"/><path d="m45.06 7.39c-1.1.53-2.06 1.06-2.9 1.51-.96.52-7.17 3.97-11.51 1.5-2.67-1.52-2.67-5.58-2.67-5.72-1.23 1.57-4.95 12.78 5.93 13.53 4.69.32 7.58-3.77 9.3-7.23.62-1.26 1.59-3.1 1.85-3.59z" fill="url(#z)"/><path d="m67.27 5.47c7.32 1.98 10.89 5.71 12.08 10.68.35 1.46.77 15.08-25.23-.4-9.67-5.76-7.03-9.36-5.9-9.77 4.42-1.6 10.85-2.73 19.05-.51z" fill="url(#A)"/><path d="m27.95 4.68c-.01.01-.03.01-.06.03-.93.39-8.24 3.78-5.51 12.25l7.78 1.25c-6.89-6.98-2.17-13.55-2.17-13.55s-.02.01-.04.02z" fill="url(#B)"/><path d="m27.18 17.73-4.81-.77c-.19 0-.83.06-1.18.11-2.71.38-5.9 1.78-7.63 5.36-1.86 3.86-1.81 7.17-1.3 9.38.15.74.45 1.58.45 1.58s2.38-2.26 8.05-2.41z" fill="url(#C)"/><path d="m12.48 33.58c-2.37 2.1-5.56 6.79-3.21 12.61 1.77 4.39 8.09 6.29 8.09 6.29 0 .02 1.26.4 1.91.4l1.48-21.9c-3.03 0-5.94.91-7.82 2.22.03.03-.46.35-.45.38z" fill="url(#D)"/></svg>