<svg enable-background="new 0 0 128 128" viewBox="0 0 128 128" xmlns="http://www.w3.org/2000/svg" xmlns:xlink="http://www.w3.org/1999/xlink"><linearGradient id="a"><stop offset=".255" stop-color="#b71c1c"/><stop offset="1" stop-color="#d32f2f"/></linearGradient><linearGradient id="b" gradientTransform="matrix(1 0 0 -1 0 128)" gradientUnits="userSpaceOnUse" x1="85.7" x2="85.7" xlink:href="#a" y1="83.4" y2="30.6"/><linearGradient id="c" gradientTransform="matrix(1 0 0 -1 0 128)" gradientUnits="userSpaceOnUse" x1="42.9" x2="42.9" xlink:href="#a" y1="83.4" y2="30.6"/><linearGradient id="d"><stop offset=".831" stop-color="#6d4c41" stop-opacity="0"/><stop offset="1" stop-color="#6d4c41"/></linearGradient><radialGradient id="e" cx="63.8" cy="44.3" gradientTransform="matrix(0 1 .688 0 33.3 19.9)" gradientUnits="userSpaceOnUse" r="51.3" xlink:href="#d"/><linearGradient id="f" gradientTransform="matrix(1 0 0 -1 0 128)" gradientUnits="userSpaceOnUse" x1="12" x2="116" y1="17.9" y2="17.9"><stop offset="0" stop-color="#f44336"/><stop offset=".359" stop-color="#e73b32"/><stop offset="1" stop-color="#c62828"/></linearGradient><linearGradient id="g" gradientTransform="matrix(1 0 0 -1 0 128)" gradientUnits="userSpaceOnUse" x1="64" x2="64" y1="43.9" y2=".08"><stop offset="0" stop-color="#ffeb3b"/><stop offset=".636" stop-color="#ffdd12"/><stop offset="1" stop-color="#ffd600"/></linearGradient><radialGradient id="h" cx="64" cy="104" gradientTransform="matrix(1 0 0 -.731 0 133)" gradientUnits="userSpaceOnUse" r="42.6" xlink:href="#d"/><radialGradient id="i" cx="64" cy="96.2" gradientTransform="matrix(1 0 0 -1 0 128)" gradientUnits="userSpaceOnUse" r="34.6"><stop offset="0" stop-color="#f44336"/><stop offset=".299" stop-color="#eb3e33"/><stop offset=".784" stop-color="#d3302c"/><stop offset=".998" stop-color="#c62828"/></radialGradient><linearGradient id="j" gradientTransform="matrix(1 0 0 -1 0 128)" gradientUnits="userSpaceOnUse" x1="46.5" x2="81.5" y1="103" y2="103"><stop offset="0" stop-color="#ffee58"/><stop offset=".366" stop-color="#fee84f"/><stop offset=".961" stop-color="#fdd937"/><stop offset="1" stop-color="#fdd835"/></linearGradient><g fill="#ef5350"><path d="m111 59.2v-.04c.01.02.04.06.04.06s2.39 14.4 2.39 17.3c0 17.6-23.3 24.7-48.7 24.7v-55.3c19.3.12 30.1 4.58 37.3 8.29 3.36 1.74 8.98 5.03 8.98 5.03z"/><path d="m17 59.2v-.04c-.01.02-.04.06-.04.06s-2.39 14.4-2.39 17.3c0 17.6 23.3 24.7 48.7 24.7v-55.3c-19.3.12-30.1 4.58-37.3 8.29-3.36 1.74-8.98 5.03-8.98 5.03z"/></g><path d="m100 48.4c2.62 2.85 7.14 6.77 7.85 10.5 1.13 5.96 1.15 15.2 1.15 17 0 8.92-7.34 14.7-16.8 18.7-14.3 6.08-30.4-4.13-30.4-19.1v-13.5c0-19.1 24.7-28.2 37.9-13.9.1.12.2.23.3.33z" fill="url(#b)"/><path d="m28 48.4c-2.62 2.85-6.52 6.77-7.23 10.5-1.13 5.96-1.31 14.7-1.31 16.5 0 8.92 6.88 15.2 16.4 19.2 14.3 6.08 30.4-4.13 30.4-19.1v-13.5c0-19.1-24.7-28.2-37.9-13.9-.11.12-.21.23-.31.33z" fill="url(#c)"/><path d="m99.2 82.7c-2.48-14.4-8.06-42.4-35.2-43.4-27.2 1.05-32.8 29-35.2 43.4-2.38 13.8-.65 25.7 7.85 34.9 3.69 4 11.4 4.01 11.4 4.01l16-.02 16 .02s7.74-.01 11.4-4.01c8.49-9.21 10.2-21 7.85-34.9z" fill="#543930"/><path d="m99.2 82.7c-2.48-14.4-8.06-42.4-35.2-43.4-27.2 1.05-32.8 29-35.2 43.4-2.38 13.8-.65 25.7 7.85 34.9 3.69 4 11.4 4.01 11.4 4.01l16-.02 16 .02s7.74-.01 11.4-4.01c8.49-9.21 10.2-21 7.85-34.9z" fill="url(#e)"/><path d="m64.1 96.1h-.14c-25.6.03-52 7.1-52 25v3h104v-3c0-16.9-26.1-25-51.9-25z" fill="url(#f)"/><path d="m64 90.16h-9.08v9.98c0 4.51 3.7 8.17 8.26 8.17h1.65c4.56 0 8.26-3.66 8.26-8.17v-9.98z" fill="#e59600"/><path d="m94 124v-6.1c0-1.37-1.11-2.48-2.48-2.48h-25.5v-5.06l13.4-6.18c2.95-1.36 5.03-4.24 5.51-7.6l1.69-12-15.6 8.86c-4.05 2.42-6.71 6.69-7.22 11.5h-.17c-.51-4.77-3.17-9.05-7.22-11.5l-14.9-9.46 1.18 12.3c.34 3.54 2.47 6.62 5.56 8.05l13.3 6.13v4.98h-25c-1.37 0-2.48 1.11-2.48 2.48v6.1c0 .02 60 .02 60 .02z" fill="url(#g)"/><path d="m22.6 47.9c0-21.2 82.9-21.2 82.9 0s-18.5 35.5-41.4 35.5-41.4-14.2-41.4-35.5z" fill="#543930"/><path d="m22.6 47.9c0-21.2 82.9-21.2 82.9 0s-18.5 35.5-41.4 35.5-41.4-14.2-41.4-35.5z" fill="url(#h)"/><path d="m63.7 16.1c-17.2 0-33.1 12.8-33.1 39.9 0 21.8 13.5 34.7 25.2 38.8 2.8.99 5.5 1.49 7.9 1.49 2.38 0 5.07-.49 7.85-1.47 11.8-4.14 25.3-17 25.3-38.8 0-27.1-15.9-39.9-33.1-39.9z" fill="#ffca28"/><path d="m99.3 42c0-5.25 2.97-31.9-35.9-31.9s-38 32.6-38 32.6.47 7.46 2.47 14.7 4.09 10.6 4.09 10.6-.1-4.16.32-9.1.31-11.9 6.4-13.2c22.4-5.03 35-16.9 35-16.9 3.29 7.18 13.6 14.2 17.3 16.9 3.03 2.19 4.53 21.8 4.53 21.8s3.73-5.12 3.73-25.4z" fill="#543930"/><path d="m67.8 68.1c-.11-.04-.21-.07-.32-.08h-6.99c-.11.01-.21.04-.32.08-.63.26-.98.91-.68 1.61s1.69 2.66 4.49 2.66 4.2-1.96 4.49-2.66c.31-.7-.03-1.36-.67-1.61z" fill="#e59600"/><g fill="#404040"><ellipse cx="47.8" cy="58.9" rx="4.87" ry="5.04"/><ellipse cx="80.2" cy="58.9" rx="4.87" ry="5.04"/></g><g fill="#6d4c41"><path d="m55 49.8c-.93-1.23-3.07-3.01-7.23-3.01s-6.31 1.79-7.23 3.01c-.41.54-.31 1.17-.02 1.55.26.35 1.04.68 1.9.39s2.54-1.16 5.35-1.18c2.81.02 4.49.89 5.35 1.18s1.64-.03 1.9-.39c.28-.38.38-1.01-.02-1.55z"/><path d="m87.5 49.8c-.93-1.23-3.07-3.01-7.23-3.01s-6.31 1.79-7.23 3.01c-.41.54-.31 1.17-.02 1.55.26.35 1.04.68 1.9.39s2.54-1.16 5.35-1.18c2.81.02 4.49.89 5.35 1.18s1.64-.03 1.9-.39c.29-.38.39-1.01-.02-1.55z"/></g><path d="m72.3 76.1c-3.15 1.87-13.5 1.87-16.6 0-1.81-1.07-3.65.57-2.9 2.21.74 1.61 6.37 5.36 11.2 5.36s10.4-3.75 11.2-5.36c.75-1.64-1.08-3.29-2.88-2.21z" fill="#795548"/><path d="m64.4 8.08c-46.8 0-43.2 47.4-43.2 47.4s12.2-11 43.5-11 42.1 9.99 42.1 9.99 4.4-46.3-42.4-46.3z" fill="url(#i)"/><path d="m54.1 8.96c-2.42.43-4.65 1.02-6.73 1.74 3.38 3.77 5.35 11.1 6.73 21.2v-22.9z" fill="#c62828"/><path d="m74.8 9.03v22.8c1.38-10.1 3.33-17.3 6.7-21.1-2.06-.7-4.29-1.27-6.7-1.7z" fill="#c62828"/><path d="m69.6 43h-10.6c-2.82 0-5.1-2.28-5.1-5.1v-28.7c0-2.82 2.28-5.1 5.1-5.1h10.6c2.82 0 5.1 2.28 5.1 5.1v28.7c0 2.83-2.28 5.11-5.1 5.11z" fill="#e53935"/><path d="m79.8 25.6c-3.86-6.68 1.03-9.56 1.03-9.56l-4.11-5.25s-3.26 1.02-6.69.51c-3.31-.49-5.81-3.26-5.98-3.45v-.02l-.01.01-.01-.01v.02c-.17.19-2.67 2.96-5.98 3.45-3.43.51-6.69-.51-6.69-.51l-4.11 5.25s4.89 2.88 1.03 9.56-1.49 13.8 9.34 15.1c2.87.34 5.74 1.52 5.74 1.52l.16.04v.29l.52-.14.52.15v-.29l.16-.04s2.88-1.19 5.74-1.52c10.8-1.29 13.2-8.39 9.34-15.1z" fill="url(#j)"/><ellipse cx="64" cy="25.7" fill="#6d4c41" rx="12.5" ry="11.8"/><path d="m62.8 19.2c-.56-.51-.85-1.27-.75-2-.37.43-.54 1.01-.59 1.43-.21 1.93 2.03 2.54 2.07 2.5.07-.09.21-.33.04-.8-.26-.7.42-1.09.42-1.09s-.26.56-.07.8c.3.38.57.36.7.55.14.2-.02.51-.16.58 1.01-.08 1.81-.95 2.02-1.88s-.06-1.9-.46-2.78c-.06.71-.79 1.3-1.55 1.27.22-.27.57-1.02.35-1.84s-1.51-1.26-1.51-1.26.36.37.38 1.12c0 .77-1.76 1.65-.89 3.4z" fill="#ffeb3b"/><g fill="#ffeb3b"><path d="m69.3 32.8-9.93-9.68-1.79 1.27 9.96 9.66c.14.14.38.22.63.22.26 0 .53-.07.74-.22.29-.2.5-.54.53-.83.02-.2-.06-.34-.14-.42z"/><path d="m60.2 22c-.14-.1-.42-.12-.58-.14.03-.06.33-.69.75-.81.35-.1.26-.54-.06-.65-.7-.23-2.15-.2-3.37.88-.14.12-1.97 1.79-2.88 2.65-.06.05-.13.09-.23.11-.54.14-.88.64-.74 1.13.13.47.44 1.2 1.16 1.68.68.46 1.91.76 1.94.76.51 0 .95-.22 1.1-.67.09-.27-.12-.43.17-.78 0 0 2.92-2.6 3.21-3 .29-.41.05-.78-.47-1.16z"/><path d="m58.7 32.8 9.93-9.68 1.79 1.27-9.96 9.66c-.14.14-.38.22-.63.22-.26 0-.53-.07-.74-.22-.29-.2-.51-.54-.53-.83-.02-.2.06-.34.14-.42z"/><path d="m67.8 22c.14-.1.42-.12.58-.14-.03-.06-.33-.69-.75-.81-.35-.1-.26-.54.06-.65.7-.23 2.15-.2 3.37.88.14.12 1.97 1.79 2.88 2.65.06.05.13.09.23.11.54.14.88.64.74 1.13-.13.47-.44 1.2-1.16 1.68-.68.46-1.91.76-1.94.76-.5 0-.95-.22-1.1-.67-.09-.27.12-.43-.17-.78 0 0-2.92-2.6-3.21-3-.29-.41-.05-.78.47-1.16z"/></g><g fill="#ef5350"><path d="m64.1 38.3c-.24 0-.46 0-.69.01-17.4.09-28.3 3.36-35.1 7.29-10 5.77-11.2 13-11.3 13.5v.04l3.5 1.9s2.37-4.81 5.52-6.94c7.59-5.13 18.1-8.17 37.4-8.29.24 0 .47-.01.72-.01v-7.52c-.03.01-.04 0-.05 0z"/><path d="m64 38.3c.24 0 .46 0 .69.01 17.4.09 28.3 3.36 35.1 7.29 10 5.77 11.2 13 11.3 13.5v.04l-2.65 1.9s-3.22-4.81-6.36-6.94c-7.59-5.13-18.1-8.17-37.4-8.29-.24 0-.47-.01-.72-.01v-7.52c.03.01.03 0 .04 0z"/></g></svg>