<svg enable-background="new 0 0 128 128" viewBox="0 0 128 128" xmlns="http://www.w3.org/2000/svg" xmlns:xlink="http://www.w3.org/1999/xlink"><radialGradient id="a" cx="-485.4" cy="-2681.4" gradientTransform="matrix(-.0709 -.8662 -.6571 .0538 -1707.7 -203.1)" gradientUnits="userSpaceOnUse" r="47.281"><stop offset=".3" stop-color="#ffca28"/><stop offset=".8" stop-color="#ffb300"/></radialGradient><radialGradient id="b" cx="48.48" cy="32.937" gradientUnits="userSpaceOnUse" r="91.087"><stop offset=".4" stop-color="#ffca28"/><stop offset="1" stop-color="#ffb300"/></radialGradient><path d="m80.88 73.92c.24 3.11-1.7 5.91-4.74 6.68-1.87.47-1.08 3.37.8 2.89 4.25-1.08 7.28-5.18 6.95-9.57-.15-1.92-3.15-1.93-3.01 0z" fill="#eda600"/><path d="m69.18 114.71c-7.22-.12-12.37-10.58-11.06-17.22 1.49-7.5 6.4-12.24 15.37-11.14 20.81 2.55 25.39-1.71 27.58-8.14 3.03-8.87 6.07-49.2 6.07-49.2s6.32 9.8 10.4 27.84c1.64 7.23 2.96 13.98 3.94 19.4 1.87 10.27.26 20.93-4.9 30-2.21 3.89-4.82 7.07-7.64 7.73-8.2 1.92-7.28-2.11-17.86-1.98-9.95.14-16.02 4.26-21.9 2.71z" fill="url(#a)"/><path d="m112.5 60.73c-1.57-19.41-1.88-42.43-17.89-42.46-2.6-.01-5.05.7-7.18 1.75-2.3 1.14-5.05.6-6.66-1.4-2.78-3.46-7.1-5.68-11.97-5.68-5.21 0-9.81 2.55-12.55 6.45-1.51 2.15-4.37 2.74-6.63 1.39-1.71-1.02-3.62-1.64-5.66-1.75-4.11-.22-8 1.63-11.03 4.83-.84.89-2.06 1.29-3.25 1.03-11.12-2.47-14.42 5.77-17.3 15.65 0 0-15.72 43.69 3.28 47.36 1.45.28 5.11.87 6.43.73 2.38-.26 4.72.66 6.47 2.29 2.78 2.59 6.2 4.21 9.67 4.4 3.42.19 7-.59 10.13-2.28 2.21-1.19 4.9-.4 6.3 1.69 2.98 4.45 7.68 6.85 13.33 6.85 4.52 0 9.73-1.32 12.85-4.36 3.34-3.26 8.44-3.7 12.32-1.11 2.15 1.43 5.5 2.35 11.17 1.14 11.67-2.52 10.09-12.77 8.17-36.52z" fill="url(#b)"/><path d="m55.48 92.98c1.31 2.8 4.45 6.39 13.51 7.76 8.16 1.24 13.44-4.18 15.17-5.1 6.66-3.53 12.69 3.19 20.15 2.13 11.04-1.58 12.25-11.34 8.83-31.53" style="fill:none;stroke:#eda600;stroke-linecap:round;stroke-linejoin:round;stroke-miterlimit:10;stroke-width:3"/><path d="m68.8 15.94c3.74 0 7.21 1.62 9.54 4.45 1.67 2.03 4.11 3.19 6.7 3.19 1.3 0 2.55-.29 3.72-.87 1.94-.96 3.9-1.44 5.85-1.44 5.46.01 9.07 3.58 12.08 11.93.49 1.35 1.03 2.75 1.61 4.23 1.92 4.94 4.31 11.09 6.34 20.09 1.39 6.15 2.71 12.64 3.92 19.27 1.77 9.76.16 19.7-4.56 27.98-2.93 5.16-4.98 6.12-5.72 6.29-1.26.3-2.31.44-3.19.44-1.3 0-2.17-.31-3.49-.79-2.14-.76-4.79-1.72-9.98-1.72h-.55c-5 .06-9.15 1.08-12.48 1.9-2.51.62-4.68 1.15-6.57 1.15-.74 0-1.41-.08-2.05-.25-.23-.06-.47-.1-.72-.1-2.03-.03-3.69-1.45-4.72-2.62-2.43-2.78-3.92-7.18-3.53-10.45.12-1.04-.31-2.07-1.13-2.72-1.06-.83-1.96-1.8-2.68-2.87-1.5-2.24-3.97-3.57-6.6-3.57-1.26 0-2.51.32-3.62.92-2.35 1.27-5.02 1.94-7.7 1.94-.28 0-.56-.01-.84-.02-2.69-.15-5.46-1.42-7.79-3.6-2.18-2.03-4.91-3.14-7.71-3.14-.38 0-.76.02-1.13.06-.05 0-.11.01-.17.01-1.21 0-3.91-.41-5.36-.69-2.23-.43-3.81-1.57-4.95-3.57-5.22-9.17 1.06-31.86 3.92-39.82.02-.06.04-.12.06-.17 2.7-9.24 5.09-13.94 10.7-13.94.93 0 1.97.13 3.07.37.21.05.43.07.65.07h.12c1.93 0 4.29-.99 5.73-2.4 2.33-2.27 5.01-3.48 7.75-3.48.17 0 .34 0 .51.01 1.5.08 2.95.53 4.29 1.33 1.25.75 2.68 1.14 4.12 1.14 2.58 0 5.01-1.27 6.5-3.39 2.24-3.22 6.01-5.15 10.06-5.15m0-3c-5.21 0-9.81 2.55-12.55 6.45-.97 1.38-2.48 2.11-4.04 2.11-.88 0-1.77-.23-2.58-.72-1.71-1.02-3.62-1.64-5.66-1.75-.22-.01-.45-.02-.67-.02-3.64 0-7.07 1.62-9.85 4.33-.84.82-2.45 1.54-3.63 1.54h-.12c-1.35-.3-2.59-.44-3.72-.44-8.19 0-11.04 7.41-13.58 16.1 0 0-15.72 43.69 3.28 47.36 1.3.25 4.35.75 5.93.75.19 0 .36-.01.5-.02.27-.03.54-.04.81-.04 2.1 0 4.11.89 5.67 2.34 2.78 2.59 6.2 4.21 9.67 4.4.33.02.67.03 1 .03 3.11 0 6.3-.78 9.12-2.3.7-.38 1.45-.56 2.19-.56 1.6 0 3.16.82 4.11 2.24.94 1.4 2.07 2.58 3.33 3.56-.79 6.65 4.24 16.32 11.18 16.43.93.25 1.86.35 2.82.35 5.08 0 10.71-2.94 19.09-3.05h.52c8.07 0 9.16 2.5 13.47 2.5 1.05 0 2.29-.15 3.87-.52 2.82-.66 5.43-3.84 7.64-7.73 5.16-9.07 6.77-19.73 4.9-30-.98-5.42-2.31-12.17-3.94-19.4-2.7-11.92-5.96-18.87-8.05-24.68-2.8-7.77-6.85-13.9-14.89-13.91h-.03c-2.59 0-5.03.7-7.15 1.75-.76.38-1.58.56-2.39.56-1.65 0-3.28-.75-4.38-2.09-2.8-3.4-7.07-5.57-11.87-5.57z" fill="#eda600"/><g style="fill:none;stroke:#eda600;stroke-linecap:round;stroke-linejoin:round;stroke-miterlimit:10;stroke-width:3"><path d="m29.65 49.85c-3.13 12.11-4.35 24.72-3.59 37.21"/><path d="m53.15 48.86c-1.44 10.6-1.5 39.33-.01 42.65"/><path d="m81.17 44.5c2.85 17.29 3.99 31.96 4.23 49.49"/></g></svg>