<svg enable-background="new 0 0 128 128" viewBox="0 0 128 128" xmlns="http://www.w3.org/2000/svg" xmlns:xlink="http://www.w3.org/1999/xlink"><radialGradient id="a" cx="-240.78" cy="288.72" gradientTransform="matrix(.71 -.71 .71 .71 28.09 -314.89)" gradientUnits="userSpaceOnUse" r="56.96"><stop offset=".5" stop-color="#fde030"/><stop offset=".92" stop-color="#f7c02b"/><stop offset="1" stop-color="#f4a223"/></radialGradient><linearGradient id="b"><stop offset=".46" stop-color="#29b6f6"/><stop offset="1" stop-color="#1e88e5"/></linearGradient><radialGradient id="c" cx="-641.59" cy="-742.5" gradientTransform="matrix(-.13 -.99 -1.53 .21 -1141.95 -448.74)" gradientUnits="userSpaceOnUse" r="31.6" xlink:href="#b"/><radialGradient id="d" cx="-764.22" cy="-690.26" gradientTransform="matrix(-1 .08 -.13 -1.53 -814.51 -921.26)" gradientUnits="userSpaceOnUse" r="30.26" xlink:href="#b"/><path d="m103.13 102.43c-19.73 19.73-53.39 28.64-80.54 1.48s-18.25-60.81 1.48-80.54c10.93-10.96 24.68-17.46 38.75-18.37 15.35-.92 29.84 4.95 41.79 16.9s17.75 26.37 16.83 41.72c-.92 14.06-7.44 27.92-18.31 38.81z" fill="url(#a)"/><path d="m74 5.54c9.84 2.31 19 7.59 27.11 15.64 12 12 17.75 26.38 16.83 41.72-.94 14.1-7.46 27.93-18.35 38.82-12.77 12.77-31.38 21-50.29 17.85 20.1 4.88 40.26-3.57 53.83-17.14 10.87-10.89 17.39-24.75 18.31-38.82.92-15.35-4.88-29.77-16.83-41.72-9.01-9.01-19.47-14.56-30.61-16.35z" fill="#eb8f00"/><g fill="#422b0d"><path d="m96.71 39.56c-2.77-.8-5.71.57-6.88 3.21-5.15 9.37-11.62 17.94-19.21 25.47-7.52 7.59-16.1 14.06-25.47 19.2-2.63 1.18-3.99 4.11-3.21 6.88.82 2.75 3.57 4.1 6.16 5.07 14.51 5.43 30.48 1.39 42.75-10.81l.12-.11c12.19-12.27 16.23-28.24 10.8-42.76-.96-2.58-2.32-5.34-5.06-6.15z"/><path d="m90.08 87.58-.06.06v.06z"/><path d="m71.61 69-.11.1-.1.11z"/><path d="m71.61 69-.11.1-.1.11z"/><path d="m90.08 87.58-.06.06v.06z"/></g><path d="m97.92 74.49c4.34-8.69 4.88-18.79 1.51-27.9-1.06-2.85-2.09-4.24-3.43-4.59-1.63-.44-3.33.42-3.95 2-5.23 9.56-11.8 18.31-19.52 26l-.2.21c-7.7 7.7-16.46 14.25-26.02 19.45-.42.21-.81.49-1.14.82-.87.79-1.2 2.01-.84 3.13.41 1.39 1.79 2.39 4.67 3.44 8.93 3.3 18.83 2.84 27.41-1.29.64-5.57 3.2-10.75 7.24-14.63 3.76-3.91 8.85-6.28 14.27-6.64z" fill="none"/><path d="m99.4 74.38c-.51 0-1 .07-1.48.11-5.43.35-10.53 2.72-14.3 6.64-4.04 3.88-6.6 9.06-7.24 14.63-.06.49-.12 1-.15 1.48s.08.88.14 1.28c5.41-2.38 10.32-5.75 14.48-9.94l.12-.11c4.01-3.99 7.27-8.67 9.62-13.81-.39-.12-.79-.21-1.19-.28z" fill="#ed7770"/><path d="m89.83 42.77c-5.15 9.37-11.62 17.94-19.21 25.47-7.52 7.59-16.1 14.06-25.47 19.2-2.63 1.18-3.99 4.11-3.21 6.88.13.41.3.8.52 1.17.41-.14.8-.3 1.19-.49 12.77-4.24 24.35-11.46 33.76-21.08 9.23-9.03 16.27-20.04 20.59-32.21.17-.41.32-.83.45-1.26-.52-.4-1.11-.71-1.74-.89-2.77-.8-5.71.57-6.88 3.21z" fill="#fff"/><path d="m71.4 69.74c5.87-5.68 9.71-11.26 14.33-18.06 1.15-1.7 2.24-3.44 3.29-5.23l.76-1.35c.2-.35.42-.69.68-1 .46-.57 1.05-1.01 1.73-1.29 1.58-.58 3.31-.61 4.91-.08 3.25 1.56 6.08 7.12 5.72 6.08 0 0-.59-2.33-.61-2.36-.8-2-1.62-4.26-3.69-6-2.22-1.69-5.18-2.03-7.72-.88-1.19.54-2.22 1.37-3 2.41-.38.48-.72 1-1 1.55l-.67 1.32c-.93 1.75-1.92 3.48-3 5.17-3.84 6.41-8.37 12.38-13.51 17.8l-.16.16c-5.31 5.08-11.16 9.55-17.46 13.33-1.7 1-3.42 2-5.17 3l-1.36.69c-.55.28-1.07.61-1.55 1-1.05.78-1.88 1.81-2.42 3-1.07 2.52-.69 5.43 1 7.59 2.69 3.51 8.83 4 8.86 4 1 .36-5.06-2.22-6.62-5.47-.55-1.54-.55-3.23 0-4.77.26-.7.69-1.32 1.26-1.8.31-.26.65-.48 1-.67l1.35-.76c1.78-1 3.52-2.15 5.23-3.3 6.79-4.62 12-8 17.65-13.92" fill="#eb8f00"/><path d="m115.13 31.34c1.2 7.64-5.82 14.88-12.19 15.74-4.48.6-9.48-.43-17-2.3-1.11-.21-2.24-.54-3.48-.85-4.58-1.27-9.08-2.8-13.49-4.58-.87-.32-1.35-1.24-1.13-2.13.13-.38.39-.71.72-.93 3.37-3.46 7.17-6.48 11.29-9 10.41-6.44 14.37-7.31 18.85-7.91 6.18-1.01 15.13 3.62 16.43 11.96z" fill="url(#c)"/><path d="m105.52 24.19c2.91 1.38 2.93 5.37-1.51 6-2.85.38-17.52 1.76-15.81-.95 2.8-4.45 13.21-7 17.32-5.05z" fill="#81d4fa"/><path d="m72.65 31.1-9.23 8.28 3.42-13.15c.03-.16.06-.31.07-.47.38-2.28-1.17-4.44-3.45-4.81-.54-.09-1.1-.07-1.64.05-2.43.67-4.19 2.79-4.39 5.3-.57 5.81-1.91 19.5-2.43 24.83-.16.53.14 1.09.67 1.25.35.11.73.01.99-.25l20.69-13.08.41-.29c2.5-1.92 3.11-5.58 1.09-7.7-1.54-1.62-4.2-1.49-6.2.04z" fill="#422b0d"/><path d="m25.9 104c-.36-4.31-.37-8.19 3.52-19.26 1.52-4.38 3.58-8.55 6.13-12.42.14-.36.4-.66.73-.86.79-.4 1.75-.13 2.23.61 2.57 3.76 4.92 7.66 7.06 11.68.54 1.1 1.08 2.08 1.51 3.08 3.3 6.69 5.29 11.16 5.65 15.47.51 6.13-4.82 14.19-12.21 14.65-8.05.46-14.24-6.95-14.62-12.95z" fill="url(#d)"/><path d="m33 92.17c2.17-2.17 3.9 11.83 4.13 14.58.35 4.28-3.39 5.08-5.27 2.65-2.68-3.4-2.43-13.71 1.14-17.23z" fill="#81d4fa"/><path d="m30.17 78.76 6.66-10.47-12.41 5.54-.42.17c-2.19.74-4.57-.43-5.32-2.62-.18-.52-.25-1.07-.21-1.62.26-2.51 2.06-4.59 4.51-5.2l24.02-6.51c.5-.24 1.1-.03 1.34.47.16.33.13.72-.09 1.01l-9.47 22.55c-.06.16-.13.31-.21.46-1.48 2.78-5 4-7.42 2.34-1.85-1.26-2.15-3.88-.98-6.12z" fill="#422b0d"/></svg>