<svg enable-background="new 0 0 128 128" viewBox="0 0 128 128" xmlns="http://www.w3.org/2000/svg"><g fill="#bdccd4"><path d="m19.7 85.2c-1.2.1-10.6.5-12 .6-2.6.2-2.4 4.6.2 4.5 1.4-.1 12-.6 12-.6 2.8-.3 2.5-4.7-.2-4.5z"/><path d="m29 100.2c-.4 1.2-3.4 10-3.9 11.4-.8 2.5 3.4 3.9 4.2 1.4.5-1.4 3.9-11.4 3.9-11.4.8-2.5-3.4-3.9-4.2-1.4z"/><path d="m111.4 18.4c-.9.8-8.2 6.7-9.2 7.7-2 1.7.8 5.1 2.8 3.4 1.1-.9 9.2-7.7 9.2-7.7 2.1-1.8-.8-5.2-2.8-3.4z"/><path d="m81 12.2c.4 1.2 2.9 10.2 3.3 11.5.7 2.5 5 1.3 4.3-1.2-.4-1.4-3.3-11.5-3.3-11.5-.8-2.6-5.1-1.4-4.3 1.2z"/><path d="m23.1 93.1c-1 .7-14 9.8-15.2 10.7-2.1 1.5.5 5.2 2.6 3.6 1.2-.9 15.2-10.7 15.2-10.7 2.2-1.7-.5-5.3-2.6-3.6z"/><path d="m99.6 5.8c-.4 1.2-5.8 16.2-6.2 17.6-.8 2.5 3.4 4 4.2 1.5.5-1.4 6.2-17.6 6.2-17.6.8-2.6-3.4-4-4.2-1.5z"/></g><path d="m99 44.7c1.9-4.5 5.5-7.7 9.7-6.7 2.9.6 3.5 3.3 3.3 4.9-2.3 15.9 1.1 28.1.2 39.9-1.1 14.9-10.5 30.3-30.2 31.7-12.5 3-26.4.9-37.6-10-6.2-6-11.6-10.6-19.1-22.8-3.1-5.1-7.9-13.2-7.9-18.5 0-4.5 4.5-5.9 6.8-3.8-3-4.8-4.4-8.3-4.5-12.4-.1-3.4 4.1-5.8 6.8-3.2-2.3-3.7-5.5-10.2-.7-13.5 1.5-1 5.3-2.3 9.9 3.5-1.2-2.3-2.5-6.2.7-8.8 1.7-1.4 5-1.8 7.8 1.4-.2-1.2 1.5-4.2 4.3-4.3 3.4-.2 6.1 2.9 8.1 5.2-2-8 6.3-10.3 10.9-4.9 2.4 2.7 8 9.5 16.4 23.5-.2-8.4 3.9-15.8 9.9-14.7 2.1.4 4.2 1.8 4.4 5.7.4 3.5.8 7.8.8 7.8z" fill="#ffca28"/><path d="m61.5 19.47c-3.38.06-6.15 2.83-4.9 7.83-2-2.3-4.7-5.4-8.1-5.2-2.8.1-4.5 3.1-4.3 4.3-2.8-3.2-6.1-2.8-7.8-1.4-3.2 2.6-1.9 6.5-.7 8.8-4.6-5.8-8.4-4.5-9.9-3.5-4.8 3.3-1.6 9.8.7 13.5-2.7-2.6-6.9-.2-6.8 3.2.1 4.1 1.5 7.6 4.5 12.4-2.3-2.1-6.8-.7-6.8 3.8 0 5.3 4.8 13.4 7.9 18.5 7.5 12.2 12.9 16.8 19.1 22.8 9.81 9.55 21.69 12.34 32.89 10.87-.01-.68-.44-1.32-1.59-1.37-7.6-.2-20.6.3-37-17.9-2.9-3.2-13.7-16.3-19.4-31.3-.5-1.2-.4-3.9 1.6-4.6s3.4 1.1 4.5 2.8c.8 1.2 5.1 8.3 7.6 11.2 1 1.1 1.5.3 1.7.1-5.7-9.7-13.3-22.1-13.3-26.8 0-2.6 2.8-4.3 4.8-1.7 1.6 2 8.7 10.9 9.6 12.1.9 1.1 1.6.2 1.9 0-4.1-5.3-13.1-19.1-12.4-23.5.4-2.6 3.9-4.5 6.3-2.1 1.8 1.8 11.7 12.8 11.7 12.8s1 1.1 1.8.1c-4.8-6-11.5-15.3-7.5-18.6 1.6-1.3 3.7-1.9 8 2.7 2.8 3 21.6 20 38.2 31 1.6 1 2.7-.6 2.6-2.1-1.4-14.9.1-25.6 6.4-25.7 2.9 0 4.1 2.2 4.3 5.2.2 2.9 1.1 11 3.2 19.3 2.1 8.4 5.2 20.1 4.3 28.9s-7.2 19.4-13.1 23c-6 3.6-10.1 4.5-10.8 4.7-.38.11-.83.81-.78 1.34.7-.13 1.39-.28 2.08-.44 19.7-1.4 29.1-16.8 30.2-31.7.9-11.8-2.5-24-.2-39.9.2-1.6-.4-4.3-3.3-4.9-4.2-1-7.8 2.2-9.7 6.7 0 0-.4-4.3-.8-7.8-.2-3.9-2.3-5.3-4.4-5.7-6-1.1-10.1 6.3-9.9 14.7-8.4-14-14-20.8-16.4-23.5-1.72-2.02-3.97-2.97-6-2.93z" fill="#faa700"/><path d="m58.07 20.73c-1.12.97-1.81 2.49-1.75 4.52.13.61.26 1.12.38 1.75.8 4.5 10.6 15.6 14.1 24 1.7 1.3 2.8 2.2 4.2 3.2-4.8-11.9-12.4-19-16.1-26.7-1.5-3.07-1.26-5.25-.83-6.77zm-24.17 11.11c-.2.26-.3.71.1 1.46 4.8 9 17.4 23.2 22.3 27.2.5.4 1.3 1.5 1.6 2.4.6 1.9 2.1 1.8 2.9.8.4-.5.8-1 1-1.6.3-.5.1-1.2-.7-1.9-14.3-12.3-25.3-26.6-25.3-26.6-.22-.36-.36-.54-.63-.94.17.41.35.8.53 1.14-.62-.78-1.22-1.42-1.8-1.96zm61.88.13c.07.14.12.27.22.43.5.8.9 1.8.8 4.4-.4 20 6.8 28.3 6.4 47.2-.4 20.3-15.8 32.5-40.4 29.6-1.08-.13-1.52.23-1.7.68 6.73 1.89 13.68 1.84 20.27.35.49-.2.73-.33.73-.33 12.3-2.6 24.2-14.5 24.2-30.5 0-12.9-5.7-28.1-7.2-39.2 0-.03 0-.06-.01-.09-.03.06-.06.12-.09.19 0 0-.4-4.3-.8-7.8-.14-2.63-1.14-4.11-2.42-4.93zm-70.54 11.01c-.13.25-.13.62.16 1.32 4.3 9.5 17.8 23.5 21.1 26.7.8.8.9 1.3 1.1 2 .7 2.6 2.3 2.3 2.9 1.2.4-.8.8-1.5.9-1.9s.2-.9-.4-1.4c-8.3-7.3-17.8-18.3-24.5-27.2-.07-.09-.14-.18-.22-.27.07.12.15.26.22.37-.39-.38-.82-.64-1.26-.82zm-1.86 15.87c-.23.15-.33.55-.08 1.05.6 1.2 5.7 12.5 16.6 24.7.5.5 1 1.5 1.1 1.9.3 1.4 2 1.2 2.3 0 .1-.5.3-1 .4-1.5.1-.3.2-1-.4-1.6-6.5-6.5-12.8-13.9-19-24.1-.13-.22-.28-.35-.42-.42.11.17.21.34.32.52-.25-.23-.52-.4-.82-.55z" fill="#b55e19"/></svg>