<svg enable-background="new 0 0 128 128" viewBox="0 0 128 128" xmlns="http://www.w3.org/2000/svg" xmlns:xlink="http://www.w3.org/1999/xlink"><linearGradient id="a"><stop offset=".7275" stop-color="#444140" stop-opacity="0"/><stop offset="1" stop-color="#444140"/></linearGradient><radialGradient id="b" cx="47.61" cy="33.71" gradientTransform="matrix(.9754 -.1186 -.0588 -.4745 63 123.07)" gradientUnits="userSpaceOnUse" r="16.1" xlink:href="#a"/><linearGradient id="c"><stop offset=".6628" stop-color="#444140"/><stop offset="1" stop-color="#444140" stop-opacity="0"/></linearGradient><radialGradient id="d" cx="31.76" cy="31.32" gradientTransform="matrix(-.8327 .5168 .3871 .6117 136.95 61.67)" gradientUnits="userSpaceOnUse" r="4.76" xlink:href="#c"/><linearGradient id="e"><stop offset=".7247" stop-color="#444140" stop-opacity="0"/><stop offset="1" stop-color="#444140"/></linearGradient><radialGradient id="f" cx="44.08" cy="17.86" gradientTransform="matrix(-.1922 -.9544 -.8032 .1586 131.82 124.94)" gradientUnits="userSpaceOnUse" r="20.89" xlink:href="#e"/><radialGradient id="g" cx="107.05" cy="17.86" gradientTransform="matrix(-.0466 -.9721 .8181 -.0385 72.97 193.67)" gradientUnits="userSpaceOnUse" r="20.89" xlink:href="#e"/><radialGradient id="h" cx="110.58" cy="33.71" gradientTransform="matrix(-.9754 .1186 -.0588 -.4745 197.76 106.68)" gradientUnits="userSpaceOnUse" r="16.1" xlink:href="#a"/><radialGradient id="i" cx="94.73" cy="31.32" gradientTransform="matrix(.9342 .302 -.2262 .6863 -9.24 53.28)" gradientUnits="userSpaceOnUse" r="4.76" xlink:href="#c"/><linearGradient id="j" gradientUnits="userSpaceOnUse" x1="98.24" x2="98.24" y1="123.52" y2="110.87"><stop offset="0" stop-color="#ed6d23"/><stop offset="1" stop-color="#f78c1f"/></linearGradient><linearGradient id="k"><stop offset=".6985" stop-color="#444140" stop-opacity="0"/><stop offset="1" stop-color="#444140"/></linearGradient><radialGradient id="l" cx="130" cy="10.38" gradientTransform="matrix(.4121 .9069 -.6582 .3126 59.97 -47.15)" gradientUnits="userSpaceOnUse" r="25.07" xlink:href="#k"/><linearGradient id="m"><stop offset=".58" stop-color="#444140"/><stop offset="1" stop-color="#444140" stop-opacity="0"/></linearGradient><radialGradient id="n" cx="105.56" cy="-16.96" gradientTransform="matrix(.912 .3617 -.4195 1.1055 -23.66 30.41)" gradientUnits="userSpaceOnUse" r="6.57" xlink:href="#m"/><radialGradient id="o" cx="109.31" cy="29.08" gradientTransform="matrix(-.9575 -.2772 .1489 -.5511 195.74 106.23)" gradientUnits="userSpaceOnUse" r="20.21" xlink:href="#k"/><linearGradient id="p"><stop offset=".7016" stop-color="#444140" stop-opacity="0"/><stop offset="1" stop-color="#444140"/></linearGradient><radialGradient id="q" cx="102.92" cy="-10.96" gradientTransform="matrix(.9709 -.1219 .1458 1.2142 -20.46 81.96)" gradientUnits="userSpaceOnUse" r="6.03" xlink:href="#p"/><linearGradient id="r"><stop offset=".6605" stop-color="#444140" stop-opacity="0"/><stop offset="1" stop-color="#444140"/></linearGradient><radialGradient id="s" cx="102.09" cy="-.31" gradientTransform="matrix(-.9685 -.1402 .1284 -.9266 177.25 80.82)" gradientUnits="userSpaceOnUse" r="11.32" xlink:href="#r"/><linearGradient id="t"><stop offset=".5981" stop-color="#444140" stop-opacity="0"/><stop offset="1" stop-color="#444140"/></linearGradient><radialGradient id="u" cx="99.4" cy="10.62" gradientTransform="matrix(.9781 .0146 -.02 1.4051 -19.98 61.59)" gradientUnits="userSpaceOnUse" r="11.88" xlink:href="#t"/><radialGradient id="v" cx="151.4" cy="171.17" gradientTransform="matrix(.9751 .1209 .0577 -.4746 -118.52 166.78)" gradientUnits="userSpaceOnUse" r="16.1" xlink:href="#a"/><radialGradient id="w" cx="135.54" cy="168.78" gradientTransform="matrix(-.933 .3 .2276 .6872 142.76 -53.2)" gradientUnits="userSpaceOnUse" r="4.76" xlink:href="#c"/><radialGradient id="x" cx="147.87" cy="155.32" gradientTransform="matrix(.0444 -.9725 -.8177 -.0404 164.73 239.04)" gradientUnits="userSpaceOnUse" r="20.89" xlink:href="#e"/><radialGradient id="y" cx="3.27" cy="155.32" gradientTransform="matrix(.1899 -.9545 .8031 .1606 -107.48 63.86)" gradientUnits="userSpaceOnUse" r="20.89" xlink:href="#e"/><radialGradient id="z" cx="6.79" cy="171.17" gradientTransform="matrix(-.9751 -.1209 .0577 -.4746 16.2 183.48)" gradientUnits="userSpaceOnUse" r="16.1" xlink:href="#a"/><radialGradient id="A" cx="-9.06" cy="168.78" gradientTransform="matrix(.8334 .519 -.3855 .6112 76.89 -1.26)" gradientUnits="userSpaceOnUse" r="4.76" xlink:href="#c"/><linearGradient id="B" gradientTransform="matrix(-1 0 0 1 1241.64 0)" gradientUnits="userSpaceOnUse" x1="1211.8" x2="1211.8" y1="123.52" y2="110.87"><stop offset="0" stop-color="#4d7d23"/><stop offset="1" stop-color="#67b730"/></linearGradient><radialGradient id="C" cx="26.31" cy="143.83" gradientTransform="matrix(.1804 .9797 -.7143 .144 142.88 30.56)" gradientUnits="userSpaceOnUse" r="25.07" xlink:href="#k"/><radialGradient id="D" cx="1.86" cy="116.49" gradientTransform="matrix(.7974 .5715 -.6744 .9711 101.63 -67.11)" gradientUnits="userSpaceOnUse" r="6.57" xlink:href="#m"/><radialGradient id="E" cx="289.68" cy="67.95" gradientTransform="matrix(-.8621 -.5006 .2778 -.4987 268.18 239.53)" gradientUnits="userSpaceOnUse" r="20.21" xlink:href="#k"/><radialGradient id="F" cx="-.78" cy="122.49" gradientTransform="matrix(.9715 .1166 -.1522 1.2134 40.64 -95.81)" gradientUnits="userSpaceOnUse" r="6.03" xlink:href="#p"/><radialGradient id="G" cx="-1.61" cy="133.14" gradientTransform="matrix(-.9058 -.3704 .3487 -.868 -28.77 178.15)" gradientUnits="userSpaceOnUse" r="11.32" xlink:href="#r"/><radialGradient id="H" cx="-4.29" cy="144.06" gradientTransform="matrix(.9455 .2507 -.3593 1.3585 70.96 -120.92)" gradientUnits="userSpaceOnUse" r="11.88" xlink:href="#t"/><path d="m120.89 98.25c-1.02-1.41-.15-3.07 1.44-5.19 2.51-3.37 4.79-10.74.99-17.48.01-.04-.73-1.17-.72-1.21l-1.21.09c-.39-.01-13.59 1.57-26.81 3.18-13.21 1.61-26.41 3.24-26.79 3.34 0 0-1.62 1.51-1.6 1.55-2.04 7.45 1.97 14.06 5.23 16.72 2.05 1.68 3.31 3.08 2.66 4.69-.63 1.56-3.02 2.07-3.02 2.07s.74 1.43 2.19 2.08c1.34.6 2.88.59 3.94.48 0 0 4.82 5.15 15.6 3.84l6-.73 6-.73c10.78-1.31 14.2-7.46 14.2-7.46 1.05-.15 2.56-.51 3.71-1.41 1.24-.97 1.61-2.54 1.61-2.54s-2.43.07-3.42-1.29z" fill="#232020"/><path d="m98.8 111.68-.78-6.27 18.97-3.83 2.01 1.91s-3.42 6.15-14.2 7.46z" fill="url(#b)"/><path d="m118.61 100.75c-3.41-3.97 2.76-6.35 2.76-6.35s.01 0 .01 0c-.94 1.5-1.29 2.75-.5 3.84.99 1.37 3.43 1.29 3.43 1.29s-2.93 3.3-5.7 1.22z" fill="url(#d)"/><path d="m123.33 75.57c3.7 6.53 1.58 13.97-.86 17.29-.33.46-1.77 2.24-1.99 3.56 0 0-7.49-8.06-10.05-13.02-.52-1-1-2.04-1.19-3.15-.14-.83-.13-1.84.27-2.61.49-.94 13.38-2.77 13.38-2.77.01.02.44.7.44.7z" fill="url(#f)"/><path d="m66.2 82.52c-1.99 7.22 1.88 13.93 5.06 16.58.44.36 2.27 1.75 2.8 2.98 0 0 5.3-9.61 6.57-15.04.26-1.1.47-2.22.38-3.34-.07-.84-.32-1.82-.9-2.47-.7-.8-1.37-.48-2.38-.36-1.93.23-10.44.77-11.1.85 0 .01-.43.8-.43.8z" fill="url(#g)"/><path d="m98.83 111.67-.78-6.27-19.34.83-1.48 2.33s4.82 5.15 15.6 3.84z" fill="url(#h)"/><path d="m76.93 105.82c2.34-4.66-4.23-5.5-4.23-5.5s0 0-.01.01c1.28 1.23 1.93 2.35 1.42 3.61-.62 1.56-3.01 2.06-3.01 2.06s3.65 2.5 5.83-.18z" fill="url(#i)"/><path d="m102 111.11h-3.76-3.76c-8.7-.66-21.57 3.25-24.48 12.89h28.23 28.23c-2.89-9.64-15.77-13.55-24.46-12.89z" fill="url(#j)"/><path d="m98 117.83c-3.76 0-6.8-3.05-6.8-6.8v-4.54h13.61v4.54c-.01 3.76-3.06 6.8-6.81 6.8z" fill="#3c2b24"/><path d="m114.19 78.47-38.28 4.7c-4.13.51-7.06 4.52-6.52 8.91.54 4.4 4.36 7.58 8.49 7.07l38.28-4.7c4.13-.51 7.06-4.52 6.52-8.91-.54-4.4-4.36-7.58-8.49-7.07z" fill="#3c2b24"/><path d="m91.67 53.24c-12.19 1.5-21.88 15.92-19.57 34.68 2.29 18.66 15.05 26.45 26.9 25s22.34-12.11 20.05-30.77c-2.31-18.75-15.2-30.4-27.38-28.91z" fill="#70534a"/><g fill="#1a1717"><path d="m88.49 81.16c-.76-.79-2.43-1.86-5.37-1.5s-4.3 1.81-4.85 2.76c-.24.42-.11.85.12 1.1.22.23.79.39 1.38.11.58-.28 1.69-1.04 3.68-1.3 1.99-.23 3.25.24 3.88.37s1.15-.17 1.31-.44c.17-.3.19-.75-.15-1.1z"/><path d="m111.71 78.31c-.76-.79-2.43-1.86-5.37-1.5s-4.3 1.81-4.85 2.76c-.24.42-.11.85.12 1.1.22.23.79.39 1.38.11.58-.28 1.69-1.04 3.68-1.3 1.99-.23 3.25.24 3.88.37s1.15-.17 1.31-.44c.17-.3.19-.75-.15-1.1z"/><ellipse cx="84.16" cy="88.14" rx="3.51" ry="3.63" transform="matrix(.9925 -.1219 .1219 .9925 -10.11 10.91)"/><ellipse cx="107.38" cy="85.29" rx="3.51" ry="3.63" transform="matrix(.9925 -.1219 .1219 .9925 -9.59 13.72)"/><path d="m103.22 98.23c-2.09 1.61-9.46 2.52-11.88 1.46-1.39-.61-2.56.73-1.88 1.84.67 1.09 5.02 3.27 8.5 2.85s7.12-3.59 7.51-4.81c.4-1.25-1.05-2.27-2.25-1.34z"/></g><path d="m99.3 92.91c-.08-.02-.16-.03-.23-.03l-5 .61c-.08.02-.15.05-.22.09-.43.24-.62.74-.35 1.21.28.47 1.44 1.75 3.45 1.51 2.01-.25 2.83-1.77 2.98-2.3.15-.52-.15-.96-.63-1.09z" fill="#33251f"/><path d="m120.27 59.57c-1.98-2.37-6.13-5.36-9.51-5.16-.93-3.23-4.72-5.59-8.19-6.25-9.39-1.79-14.88 2.23-17.83 4.39-.61.45-4.56 3.38-7.74 2.03-1.99-.85-2.31-3.78-2.31-3.78s-5.55 3-2.8 9.07c-1.99.34-4.51 1.53-5.56 4.57-1.24 3.63-.31 6.41.33 7.72-1.54 1.71-3.33 5.16-1.35 9.1 1.49 2.97 6.13 3.84 6.13 3.84.36 5.63 1.49 9.07 2.19 10.39.12.23.46.17.49-.09.34-2.85 1.79-12.92 1.36-14.57 0 0 7.56-2.54 14.29-9.04 1.37-1.32 2.88-2.49 4.53-3.42 8.83-4.94 11.55 1.26 11.55 1.26s6.28-2.07 9.32 6.82c1.14 3.33 2.91 8.57 3.78 12.36.06.27.43.28.5.02.47-1.6.79-4.61.73-7.72-.02-1.1 2.66-2.89 3.33-7.69.92-6.42-1.81-12.13-3.24-13.85z" fill="#232020"/><path d="m120.18 81.13c-.02-1.1 2.66-2.89 3.33-7.69.07-.51.12-1.03.16-1.55.32-5.78-2.1-10.74-3.41-12.31-1.83-2.19-5.51-4.9-8.73-5.15-.28 0-.55 0-.8.01 0 0 .4 1.47-.05 2.74-.58 1.65-2.1 2.21-2.1 2.21 9.2 7.34 9.45 14.41 11.6 21.74z" fill="url(#l)"/><path d="m86.59 51.24c-.7.46-1.32.91-1.85 1.3-.61.45-4.56 3.38-7.74 2.03-1.95-.83-2.29-3.67-2.3-3.77-.71 1.2-2.31 9.35 5.18 8.94 3.23-.18 4.86-3.28 5.74-5.85.32-.92.83-2.28.97-2.65z" fill="url(#n)"/><path d="m101.6 47.99c5.17.76 7.92 3.05 9.15 6.42.36.99 1.79 10.47-17.27 1.89-7.09-3.19-5.59-5.94-4.85-6.32 2.89-1.49 7.18-2.83 12.97-1.99z" fill="url(#o)"/><path d="m74.68 50.81c-.01.01-.02.01-.04.02-.6.35-5.32 3.34-2.74 9.03l5.42.21c-5.29-4.29-2.62-9.28-2.62-9.28s-.02.02-.02.02z" fill="url(#q)"/><path d="m75.24 60-3.35-.13c-.13.02-.56.11-.8.18-1.82.5-3.88 1.75-4.76 4.4-.95 2.85-.63 5.16-.1 6.66.16.51.44 1.06.44 1.06s1.44-1.78 5.3-2.37z" fill="url(#s)"/><path d="m66.53 72.32c-1.44 1.67-3.23 5.22-1.13 9.08 1.58 2.91 6.06 3.7 6.06 3.7 0 .01.9.17 1.34.11l-.83-15.41c-2.07.26-3.98 1.14-5.15 2.22.01.02-.3.28-.29.3z" fill="url(#u)"/><path d="m52.79 104.01c-.65-1.61.6-3.01 2.65-4.69 3.25-2.66 7.25-9.26 5.19-16.72.02-.04-.42-1.31-.4-1.34l-1.2-.21c-.38-.1-13.57-1.77-26.78-3.4-13.21-1.65-26.41-3.26-26.8-3.25 0 0-1.94 1.07-1.92 1.12-3.78 6.74-1.49 14.12 1.03 17.49 1.59 2.12 2.47 3.79 1.45 5.2-.99 1.37-3.43 1.28-3.43 1.28s.37 1.57 1.62 2.54c1.15.9 2.66 1.27 3.71 1.42 0 0 3.44 6.16 14.21 7.5l6 .74 6 .75c10.77 1.34 15.58-3.81 15.58-3.81 1.06.11 2.6.12 3.94-.47 1.44-.64 2.18-2.07 2.18-2.07s-2.4-.52-3.03-2.08z" fill="#232020"/><path d="m28.1 111.69.76-6.27 19.33.87 1.48 2.34s-4.81 5.14-15.58 3.81z" fill="url(#v)"/><path d="m49.97 105.89c-2.35-4.67 4.22-5.49 4.22-5.49s0 0 .01.01c-1.27 1.23-1.92 2.35-1.41 3.6.63 1.57 3.02 2.08 3.02 2.08s-3.65 2.48-5.84-.2z" fill="url(#w)"/><path d="m60.64 82.6c2.01 7.23-1.85 13.94-5.02 16.57-.44.36-2.26 1.75-2.79 2.97 0 0-5.32-9.63-6.6-15.06-.26-1.1-.48-2.22-.39-3.34.07-.84.32-1.82.89-2.47.7-.8 13.65.55 13.65.55.01.01.26.78.26.78z" fill="url(#x)"/><path d="m3.53 75.52c-3.68 6.52-1.55 13.97.9 17.31.34.46 1.77 2.25 1.99 3.57 0 0 7.47-8.04 10.01-13 .51-1 1-2.04 1.18-3.15.14-.83.13-1.84-.27-2.61-.49-.95-1.21-.8-2.23-.92-1.93-.24-10.32-1.78-10.98-1.86 0 0-.6.66-.6.66z" fill="url(#y)"/><path d="m28.13 111.7.76-6.27-18.97-3.88-2 1.91s3.44 6.16 14.21 7.5z" fill="url(#z)"/><path d="m8.3 100.72c3.4-3.96-2.77-6.36-2.77-6.36s-.01 0-.01 0c.94 1.5 1.3 2.75.51 3.84-.99 1.37-3.43 1.28-3.43 1.28s2.94 3.31 5.7 1.24z" fill="url(#A)"/><path d="m51.07 83.19-38.28-4.7c-4.13-.51-7.95 2.68-8.49 7.07s2.4 8.41 6.52 8.91l38.28 4.7c4.13.51 7.95-2.68 8.49-7.07s-2.39-8.4-6.52-8.91z" fill="#3c2b24"/><path d="m26.08 111.11h3.76 3.76c8.69-.66 21.56 3.24 24.47 12.89h-28.22-28.24c2.91-9.64 15.78-13.55 24.47-12.89z" fill="url(#B)"/><path d="m29.61 117.83c-3.76 0-6.8-3.05-6.8-6.8v-4.54h13.61v4.54c-.01 3.76-3.06 6.8-6.81 6.8z" fill="#3c2b24"/><path d="m35.32 53.27c-12.19-1.5-25.08 10.15-27.38 28.91-2.29 18.66 8.21 29.31 20.05 30.77s24.61-6.34 26.9-25c2.31-18.76-7.38-33.18-19.57-34.68z" fill="#70534a"/><g fill="#1a1717"><path d="m25.49 79.59c-.55-.95-1.91-2.4-4.85-2.76s-4.61.71-5.37 1.5c-.34.35-.32.8-.15 1.09.16.27.68.57 1.31.44s1.89-.6 3.88-.37c1.99.26 3.1 1.02 3.68 1.3s1.16.12 1.38-.11c.23-.24.36-.67.12-1.09z"/><path d="m48.71 82.44c-.55-.95-1.91-2.4-4.85-2.76s-4.61.71-5.37 1.5c-.34.35-.32.8-.15 1.09.16.27.68.57 1.31.44s1.89-.6 3.88-.37c1.99.26 3.1 1.02 3.68 1.3s1.16.12 1.38-.11c.23-.23.36-.67.12-1.09z"/><ellipse cx="19.6" cy="85.32" rx="3.63" ry="3.51" transform="matrix(.1219 -.9925 .9925 .1219 -67.47 94.37)"/><ellipse cx="42.82" cy="88.17" rx="3.63" ry="3.51" transform="matrix(.1219 -.9925 .9925 .1219 -49.91 119.92)"/><path d="m35.65 99.71c-2.41 1.06-9.79.16-11.88-1.46-1.2-.93-2.66.09-2.27 1.33.39 1.22 4.08 4.39 7.56 4.82s7.78-1.76 8.45-2.85c.69-1.11-.47-2.44-1.86-1.84z"/></g><path d="m33.13 93.61c-.07-.04-.15-.07-.22-.09l-5-.61c-.08 0-.16.01-.23.03-.48.13-.78.57-.63 1.09.15.53.97 2.05 2.98 2.3s3.17-1.03 3.45-1.51c.27-.47.08-.97-.35-1.21z" fill="#33251f"/><path d="m61.54 66.33c-1.35-2.78-4.65-6.68-7.98-7.31-.12-3.36-3.23-6.56-6.44-8.05-8.68-4.01-14.97-1.44-18.36-.06-.7.29-5.25 2.18-8 .1-1.72-1.3-1.32-4.22-1.32-4.22s-6.11 1.57-4.91 8.12c-2.01-.16-4.75.39-6.5 3.09-2.08 3.22-1.85 6.15-1.55 7.57-1.91 1.28-4.48 4.2-3.51 8.51.74 3.25 5.03 5.21 5.03 5.21-1.02 5.55-.75 9.16-.38 10.61.06.25.41.27.5.03 1.02-2.69 4.87-12.1 4.85-13.81 0 0 7.95-.64 16.05-5.31 1.65-.95 3.4-1.72 5.22-2.22 9.76-2.66 10.9 4.01 10.9 4.01s6.6-.49 7.4 8.87c.3 3.51.75 9.02.68 12.9 0 .27.35.37.49.14.84-1.44 1.88-4.28 2.58-7.32.25-1.07 3.28-2.16 5.09-6.66 2.4-5.99 1.13-12.19.16-14.2z" fill="#232020"/><path d="m56.24 87.23c.25-1.07 3.28-2.16 5.09-6.66.19-.48.37-.97.53-1.46 1.71-5.53.56-10.93-.33-12.77-1.24-2.57-4.16-6.09-7.22-7.11-.27-.07-.53-.13-.78-.18 0 0 .04 1.52-.71 2.65-.96 1.46-2.57 1.64-2.57 1.64 7.14 9.33 5.68 16.26 5.99 23.89z" fill="url(#C)"/><path d="m30.88 50.1c-.8.28-1.5.57-2.11.82-.7.29-5.25 2.18-8 .1-1.69-1.28-1.34-4.11-1.32-4.21-.98.99-4.5 8.51 2.87 9.93 3.18.61 5.51-2.01 6.99-4.29.52-.83 1.35-2.03 1.57-2.35z" fill="url(#D)"/><path d="m46.23 50.58c4.83 1.98 6.94 4.88 7.32 8.45.11 1.05-.8 10.59-17.21-2.35-6.11-4.81-3.99-7.11-3.18-7.3 3.16-.76 7.66-1.02 13.07 1.2z" fill="url(#E)"/><path d="m19.42 46.8c-.01 0-.02.01-.04.01-.67.2-5.97 1.96-4.84 8.1l5.21 1.51c-4.1-5.44-.3-9.63-.3-9.63s-.02.01-.03.01z" fill="url(#F)"/><path d="m17.75 55.85-3.22-.94c-.13-.02-.57-.03-.81-.02-1.88.04-4.19.76-5.68 3.12-1.61 2.54-1.86 4.86-1.71 6.44.03.53.17 1.14.17 1.14s1.83-1.38 5.71-1.02z" fill="url(#G)"/><path d="m6.32 65.7c-1.8 1.27-4.4 4.28-3.3 8.54.83 3.21 4.98 5.05 4.98 5.05 0 .01.83.38 1.27.43l2.93-15.16c-2.07-.25-4.14.15-5.54.91.01.03-.35.21-.34.23z" fill="url(#H)"/><path d="m78.41 3.74c-10.54 0-14.41 10.76-14.41 10.76s-3.82-10.76-14.43-10.76c-7.97 0-17.07 6.32-13.71 20.68s28.16 32.26 28.16 32.26 24.72-17.9 28.08-32.26-5.08-20.68-13.69-20.68z" fill="#ef5592"/><path d="m47.94 4.81c8.27 0 12.38 8.89 13.71 12.5.19.51.91.53 1.12.03l1.21-2.83c-1.71-5.45-6.4-10.77-14.41-10.77-3.32 0-6.82 1.1-9.55 3.41 2.4-1.59 5.23-2.34 7.92-2.34z" fill="#da2e75"/><path d="m78.41 3.74c-2.55 0-4.7.74-6.51 1.85 1.27-.49 2.68-.78 4.23-.78 7.8 0 14.77 5.91 11.62 19.58-2.7 11.73-18.5 25.96-23.32 31.39-.31.35-.41.91-.41.91s24.72-17.9 28.08-32.26c3.36-14.37-5.72-20.69-13.69-20.69z" fill="#da2e75"/><g fill="#f386ab"><path d="m41.4 11.36c1.8-2.25 5.03-4.11 7.76-1.97 1.48 1.16.83 3.54-.49 4.54-1.93 1.46-3.6 2.34-4.77 4.63-.7 1.38-1.13 2.88-1.34 4.42-.08.61-.88.75-1.18.22-2.04-3.6-2.61-8.55.02-11.84z"/><path d="m70.31 16.09c-.85 0-1.44-.82-1.13-1.61.57-1.45 1.31-2.86 2.2-4.11 1.32-1.85 3.82-2.92 5.41-1.81 1.63 1.15 1.42 3.43.27 4.54-2.45 2.39-5.53 2.99-6.75 2.99z"/></g></svg>