<svg enable-background="new 0 0 128 128" viewBox="0 0 128 128" xmlns="http://www.w3.org/2000/svg" xmlns:xlink="http://www.w3.org/1999/xlink"><linearGradient id="a"><stop offset=".6628" stop-color="#6d4c41"/><stop offset="1" stop-color="#6d4c41" stop-opacity="0"/></linearGradient><radialGradient id="b" cx="91.7241" cy="50.3728" gradientTransform="matrix(-.9057 .4238 -.3144 -.6719 186.8943 75.389)" gradientUnits="userSpaceOnUse" r="6.9209" xlink:href="#a"/><linearGradient id="c"><stop offset=".7247" stop-color="#6d4c41" stop-opacity="0"/><stop offset="1" stop-color="#6d4c41"/></linearGradient><radialGradient id="d" cx="110.2503" cy="67.0522" gradientTransform="matrix(-.0746 -.9972 .8311 -.0622 22.5434 174.9548)" gradientUnits="userSpaceOnUse" r="30.3992" xlink:href="#c"/><radialGradient id="e" cx="32.5635" cy="69.4452" gradientTransform="matrix(.0746 -.9972 -.8311 -.0622 85.926 97.6335)" gradientUnits="userSpaceOnUse" r="30.3992" xlink:href="#c"/><radialGradient id="f" cx="12.375" cy="49.2301" gradientTransform="matrix(.9057 .4238 .3144 -.6719 -13.9815 108.2508)" gradientUnits="userSpaceOnUse" r="6.9209" xlink:href="#a"/><linearGradient id="g" gradientTransform="matrix(1 0 0 -1 0 130)" gradientUnits="userSpaceOnUse" x1="53" x2="53" y1="34.7402" y2="-4.3297"><stop offset=".1609" stop-color="#606060"/><stop offset=".2878" stop-color="#606060"/><stop offset=".449" stop-color="#595959"/><stop offset=".6836" stop-color="#464646"/><stop offset=".962" stop-color="#262626"/><stop offset="1" stop-color="#212121"/></linearGradient><linearGradient id="h"><stop offset=".1252" stop-color="#757575"/><stop offset=".2997" stop-color="#707070"/><stop offset=".5018" stop-color="#626262"/><stop offset=".7177" stop-color="#4b4b4b"/><stop offset=".9419" stop-color="#2b2b2b"/><stop offset="1" stop-color="#212121"/></linearGradient><linearGradient id="i" gradientTransform="matrix(1 0 0 -1 0 -1158.0001)" gradientUnits="userSpaceOnUse" x1="33.95" x2="33.95" xlink:href="#h" y1="-1252.8019" y2="-1294.0343"/><linearGradient id="j" gradientTransform="matrix(1 0 0 -1 0 -1158.0001)" gradientUnits="userSpaceOnUse" x1="66.05" x2="66.05" xlink:href="#h" y1="-1252.775" y2="-1294.0343"/><radialGradient id="k" cx="24.7372" cy="84.4659" gradientTransform="matrix(.9907 .1363 .1915 -1.3921 -15.8158 159.355)" gradientUnits="userSpaceOnUse" r="16.8856"><stop offset=".5981" stop-color="#6d4c41" stop-opacity="0"/><stop offset="1" stop-color="#6d4c41"/></radialGradient><linearGradient id="l"><stop offset=".0032" stop-color="#757575"/><stop offset=".3326" stop-color="#686868"/><stop offset=".9409" stop-color="#464646"/><stop offset="1" stop-color="#424242"/></linearGradient><radialGradient id="m" cx="117.2041" cy="-1548.2715" gradientTransform="matrix(.9182 0 0 -.7823 -57.6668 -1176.2109)" gradientUnits="userSpaceOnUse" r="61.7378" xlink:href="#l"/><radialGradient id="n" cx="140.2542" cy="998.9203" gradientTransform="matrix(0 .9331 1.4131 0 -1362.2303 -123.9102)" gradientUnits="userSpaceOnUse" r="33.4313" xlink:href="#l"/><radialGradient id="o" cx="191.424" cy="-1029.1537" gradientTransform="matrix(.9938 .1109 .1109 -.9938 -14.8125 -1002.5296)" gradientUnits="userSpaceOnUse" r="41.908"><stop offset="0" stop-color="#fafafa"/><stop offset="1" stop-color="#eee"/></radialGradient><radialGradient id="p" cx="42.4873" cy="-1219.8276" gradientTransform="matrix(.9997 -.0234 -.0234 -.9997 1.0401 -1186.1471)" gradientUnits="userSpaceOnUse" r="48.964"><stop offset="0" stop-color="#e0e0e0"/><stop offset=".2274" stop-color="#dbdbdb"/><stop offset=".4939" stop-color="#cdcdcd"/><stop offset=".7789" stop-color="#b5b5b5"/><stop offset="1" stop-color="#9e9e9e"/></radialGradient><radialGradient id="q" cx="93.1976" cy="48.4152" gradientTransform="matrix(1 0 0 -1 0 130)" gradientUnits="userSpaceOnUse" r="13.6102"><stop offset="0" stop-color="#ffa726"/><stop offset=".0404" stop-color="#ffa623"/><stop offset=".5168" stop-color="#ff9800"/><stop offset="1" stop-color="#fb8c00"/></radialGradient><radialGradient id="r" cx="-14.4023" cy="165.9153" gradientTransform="matrix(-.635 -.7725 -.8167 .6714 227.4518 -7.6063)" gradientUnits="userSpaceOnUse" r="21.6846"><stop offset=".3074" stop-color="#ffca28"/><stop offset="1" stop-color="#ffb300"/></radialGradient><linearGradient id="s"><stop offset="0" stop-color="#ffb300"/><stop offset="1" stop-color="#ffca28"/></linearGradient><radialGradient id="t" cx="75.2149" cy="-22.3479" gradientTransform="matrix(.5293 -.8484 -.8484 -.5293 59.3647 147.1015)" gradientUnits="userSpaceOnUse" r="15.8888" xlink:href="#s"/><radialGradient id="u" cx="94.5887" cy="-24.9644" gradientTransform="matrix(.9078 -.4835 -.4667 -.8846 12.2787 114.8262)" gradientUnits="userSpaceOnUse" r="15.8727" xlink:href="#s"/><radialGradient id="v" cx="89.4019" cy="-31.4644" gradientTransform="matrix(.7524 -.6587 -.6587 -.7524 34.0669 128.7977)" gradientUnits="userSpaceOnUse" r="18.06" xlink:href="#s"/><radialGradient id="w" cx="97.0415" cy="-34.2785" gradientTransform="matrix(.8382 -.5454 -.5454 -.8382 21.8559 118.5421)" gradientUnits="userSpaceOnUse" r="17.2586" xlink:href="#s"/><radialGradient id="x" cx="80.9732" cy="-26.3028" gradientTransform="matrix(.6377 -.7703 -.7703 -.6377 48.0684 139.4478)" gradientUnits="userSpaceOnUse" r="17.2647" xlink:href="#s"/><path d="m85.23 81.6c-1.25-2.27.34-4.58 3.06-7.44 4.31-4.54 9-15.07 4.64-25.76.03-.06-.86-1.86-.83-1.92l-1.79-.09c-.57-.08-20.26-.12-39.97-.12s-39.4.04-39.97.12c0 0-2.65 1.95-2.63 2.01-4.35 10.69.34 21.22 4.64 25.76 2.71 2.86 4.3 5.17 3.06 7.44-1.21 2.21-4.81 2.53-4.81 2.53s.83 2.26 2.83 3.48c1.85 1.13 4.13 1.39 5.7 1.43 0 0 6.15 3.51 22.23 3.51h8.95 8.95c16.08 0 22.23-3.51 22.23-3.51 1.57-.04 3.85-.3 5.7-1.43 2-1.22 2.83-3.48 2.83-3.48s-3.61-.32-4.82-2.53z" fill="#543930"/><path d="m81.43 84.91c-4.28-6.5 5.21-8.93 5.21-8.93s.01.01.01.01c-1.65 2.05-2.4 3.84-1.43 5.61 1.21 2.21 4.81 2.53 4.81 2.53s-4.91 4.36-8.6.78z" fill="url(#b)"/><path d="m92.95 48.4c4.25 10.35-.22 21.01-4.41 25.51-.57.62-3.01 3.01-3.57 4.92 0 0-9.54-13.31-12.39-21.13-.57-1.58-1.1-3.2-1.17-4.88-.05-1.26.14-2.76.87-3.83.89-1.31 20.16-1.7 20.16-1.7 0 .02.51 1.11.51 1.11z" fill="url(#d)"/><path d="m7.73 48.4c-4.24 10.35.23 21.01 4.41 25.5.57.62 3.01 3.01 3.57 4.92 0 0 9.54-13.31 12.39-21.13.58-1.58 1.1-3.2 1.17-4.88.05-1.26-.14-2.76-.87-3.83-.89-1.31-1.93-.96-3.44-.96-2.88 0-15.49-.74-16.47-.74.01.03-.76 1.12-.76 1.12z" fill="url(#e)"/><path d="m19.26 84.91c4.28-6.5-5.21-8.93-5.21-8.93s-.01.01-.01.01c1.65 2.05 2.4 3.84 1.43 5.61-1.21 2.21-4.81 2.53-4.81 2.53s4.9 4.36 8.6.78z" fill="url(#f)"/><path d="m50.1 95.4h-.1c-18.1 0-36.8 3.7-46 12.2v2.3 2.1 11.9h95 1.5 1.5v-3.4c0-16.8-26.3-25.1-51.9-25.1z" fill="url(#g)"/><path d="m50.1 79.99c-15.96 0-28.99 4.06-28.99 8.97 0 3.12 4.91 5.76 12.37 7.37 4.06.85 7.46 22.1 12.28 27.57h5.95c8.4-5.57 16.9-27.57 21.53-29.56 3.59-1.51 5.76-3.4 5.76-5.38-.01-5-12.94-8.97-28.9-8.97z" fill="#404042"/><path d="m59.4 93.42h-18.16v9.98c0 4.51 3.7 8.17 8.26 8.17h1.65c4.56 0 8.26-3.66 8.26-8.17v-9.98z" fill="#e59600"/><path d="m58.58 123.9 2.02-18.9h-21.2l2.68 18.9z" fill="#bdbdbd"/><path d="m116.99 123.9-2.19-11.5-9.9-2.5c-3.3-.8-6.5 1.3-7 4.7 0 0-.71 2.8-2.21 9.3z" fill="#616161"/><ellipse cx="106.5" cy="114.4" fill="#404042" rx="8.7" ry="8"/><path d="m24.55 97.46-.3-.15c-.59-.29-12.34-1.25-18.81 6.56-.87 1.04-.96 2.32-.2 3.38l3.1 3.7c.71.85 1.69 1.51 2.61 1.51.36 0 .72-.1 1.04-.33 8.17-5.79 12.84-6.06 15.32-5.26l2.25.72z" fill="#808080"/><circle cx="11.3" cy="105.5" fill="#757575" r="2.7" stroke="#9e9e9e" stroke-miterlimit="10"/><circle cx="12.2" cy="105.6" fill="#424242" r=".6"/><circle cx="10.4" cy="105.3" fill="#424242" r=".6"/><path d="m92.67 103.86c-6.57-7.8-18.24-6.85-18.82-6.55l-.3.15-4.99 10.12 2.25-.72c2.48-.8 7.15-.53 15.25 5.22.32.27.68.38 1.05.38 1 0 2.07-.81 2.65-1.5l3.15-3.76c.72-1.02.63-2.3-.24-3.34z" fill="#808080"/><circle cx="86.7" cy="105.5" fill="#757575" r="2.7" stroke="#9e9e9e" stroke-miterlimit="10"/><circle cx="85.8" cy="105.6" fill="#424242" r=".6"/><circle cx="87.7" cy="105.3" fill="#424242" r=".6"/><path d="m46.6 123.9-3.2-27.4c-.2-.8-.8-1.4-1.5-1.4-.8.1-1.6.1-2.3.1-7.8 0-14.8-3.2-18.3-5.2l11.4 33.9z" fill="url(#i)"/><path d="m67.4 123.9 11.4-33.9c-3.5 2-10.6 5.2-18 5.2-.9 0-1.8 0-2.6-.2h-.1c-.6 0-1.2.6-1.4 1.4l-3.4 27.5z" fill="url(#j)"/><path d="m77.36 50.37h-54.66c-5.89 0-10.71 5.14-10.71 11.41 0 6.28 4.82 11.41 10.71 11.41h54.65c5.89 0 10.71-5.14 10.71-11.41.01-6.28-4.81-11.41-10.7-11.41z" fill="#e59600"/><path d="m50.03 11c-17.4 0-33.52 18.61-33.52 45.39 0 26.64 16.61 39.81 33.52 39.81s33.52-13.17 33.52-39.81c0-26.78-16.12-45.39-33.52-45.39z" fill="#ffca28"/><ellipse cx="34.46" cy="58.75" fill="#404040" rx="4.93" ry="5.1"/><ellipse cx="65.86" cy="60.13" fill="#404040" rx="5.92" ry="6.13"/><path d="m41.89 50.83c-.93-1.23-3.07-3.01-7.23-3.01s-6.31 1.79-7.23 3.01c-.41.54-.31 1.17-.02 1.55.26.35 1.04.68 1.9.39s2.54-1.16 5.35-1.18c2.81.02 4.49.89 5.35 1.18s1.64-.03 1.9-.39c.29-.38.39-1-.02-1.55z" fill="#6d4c41"/><path d="m75.48 50.59c-1.11-1.47-3.68-3.61-8.67-3.61s-7.56 2.14-8.67 3.61c-.49.65-.37 1.4-.03 1.86.32.42 1.25.81 2.28.46s3.05-1.39 6.42-1.42c3.37.02 5.39 1.07 6.42 1.42s1.96-.04 2.28-.46c.33-.46.46-1.21-.03-1.86z" fill="#6d4c41"/><path d="m53.89 67.8c-.11-.04-.21-.07-.32-.08h-7.07c-.11.01-.22.04-.32.08-.64.26-.99.92-.69 1.63s1.71 2.69 4.55 2.69 4.25-1.99 4.55-2.69c.29-.7-.06-1.37-.7-1.63z" fill="#e59600"/><path d="m58.56 75.89c-3.19 1.89-13.63 1.89-16.81 0-1.83-1.09-3.7.58-2.94 2.24.75 1.63 6.45 5.42 11.37 5.42s10.55-3.79 11.3-5.42c.75-1.67-1.09-3.33-2.92-2.24z" fill="#795548"/><path d="m66.86 7.62c-13.23-4.19-21.84.51-26.47 3.03-.96.52-30.16 22.51-29.46 24.48-2.52 2.14-5.69 6.69-3.52 12.6 1.64 4.45 8.17 6.5 8.17 6.5-.46 8.01 1.03 12.94 1.82 14.93.14.35.63.32.72-.04.99-3.96 4.36-17.8 4.03-20.21 0 0 11.34-2.25 22.17-10.22 2.2-1.62 4.59-3 7.13-4.01 13.6-5.41 16.45 3.82 16.45 3.82s9.42-1.81 12.26 11.27c1.07 4.9 1.79 12.75 2.4 18.24.04.39.57.47.72.11.95-2.18 2.85-6.5 3.3-10.91.16-1.55 3.81-5.62 5.6-12.27 2.41-8.88-20.43-35.76-25.32-37.32z" fill="#543930"/><path d="m10.7 35.33c-2.37 2.1-5.56 6.79-3.21 12.61 1.77 4.39 8.09 6.29 8.09 6.29 0 .02 1.26.4 1.91.4l1.48-21.9c-3.03 0-5.94.91-7.82 2.22.03.03-.46.35-.45.38z" fill="url(#k)"/><path d="m83.5 26.76c-4.5-1.14-10.9-2.08-17-2.7-5.1-.52-10.7.52-16.5.52s-11.4-1.04-16.5-.52c-6.1.52-13.7 2.7-18.2 3.84-7.8 1.98-11.3 4.05-11.3 6.96s4.1 4.26 12 6.23c4.5 1.14 8 3.74 15.9 4.67 5.1.62 13.6-1.25 19.3-1.25 5.8 0 13.4 1.87 18.5 1.35 6.1-.52 9.7-3.01 14.2-4.15 7.9-1.97 12-4.05 12-6.96s-4.5-6.02-12.4-7.99z" fill="url(#m)"/><path d="m64.6 4.44c-2.8-.73-7.4-.41-10.2 0-7.1 1.25-6.1.52-12.8-.1-2.7-.31-6.3-.52-8.9.31-10 3.12-11.2 11.94-17.5 25.44.1 12.36 70 12.25 69.9 0-6.1-12.88-10.1-22.85-20.5-25.65z" fill="url(#n)"/><path d="m38.8 10.35c3.2 2.28 7.1 3.43 11 2.91 3.5-.41 6.9-1.77 10.1-3.32.5-.31 1.1.31.9.94-.5 1.35-5.5 6.44-11.4 6.44-5.5 0-9.2-2.39-11.1-5.82-.4-.52-.2-1.66.5-1.15z" fill="#eee" opacity=".2"/><path d="m82.1 23.44c-11.6 6.85-52.3 6.85-63.8-.1-1 2.18-2 4.47-3 6.75.1 12.36 70 12.25 69.9 0-1.1-2.19-2.1-4.47-3.1-6.65z" fill="#404042"/><path d="m90.3 43.4c7.3 9.2 5.8 22.7-3.3 30.1s-22.6 5.8-30-3.4-5.8-22.7 3.4-30.1 22.5-5.8 29.9 3.4z" fill="url(#o)" opacity=".6"/><path d="m101.16 85.78-5.68 4.52-12.64-15.78 5.68-4.52z" fill="#c7c7c7"/><path d="m92.5 41.3c-8.4-10.6-23.7-12.3-34.2-3.8s-12.2 23.9-3.8 34.4 23.7 12.3 34.2 3.8 12.2-23.9 3.8-34.4zm-7.36 29.87c-8.04 6.43-19.78 5.2-26.21-2.93s-5.11-19.87 2.93-26.4 19.78-5.2 26.21 2.93c6.44 8.13 5.11 19.96-2.93 26.4z" fill="url(#p)"/><path d="m113.1 100.6-.4-.5c-.4-3.4-2.4-7.9-5.8-12.2-3-3.8-6.4-6.6-9.4-7.9-.8-.4-1.5-1-2.1-1.7l-.8-1-6.2 5 .8 1c.6.7 1 1.5 1.2 2.4.6 3.3 2.6 7.3 5.6 11 3.4 4.3 7.3 7.3 10.5 8.4l.4.5c.4.5 1 .8 1.7.8.5 0 .9-.2 1.3-.5l.9-.7c.2-.1.4-.2.6-.4.2-.1.3-.3.5-.5l.9-.7c.9-.7 1.1-2.1.3-3z" fill="url(#q)"/><path d="m96.6 80.4-5.8 4.6c-.7.5-1.6.4-2.1-.2l-.4-.6c-.5-.7-.4-1.6.2-2.1l5.8-4.7c.7-.5 1.6-.4 2.1.2l.4.6c.6.7.5 1.6-.2 2.2z" fill="#ababab"/><path d="m101.53 97.62c-.82.87-1.56 1.81-2.12 2.86-.81 1.5-8.06 4.3-4.06 10.29 1.17 1.61 4.82 6.69 8.02 8.1 6.69 2.95 16.21-6.33 17.1-6.82 5.6-3.05-8.94-17.41-13.34-17.3-.53.04-1.32.19-2.03.3-1.37.24-2.71 1.67-3.57 2.57z" fill="url(#r)"/><path d="m119.9 107.09-5.74 4.2c-.75.52-.98 1.47-.58 2.23.42.84 1.49 1.12 2.37.68l6.22-3.44c1.01-.53 1.41-1.77.84-2.71l-.29-.48c-.6-.96-1.89-1.18-2.82-.48z" fill="url(#t)"/><path d="m98.35 114.61s1.74-.08 4.02-.72c6.9-1.96 2.59-8.93 1.94-10.03-3.31-5.64 2.14-7.99 5.8-11.2.76-.67 3.18-3.19 2.54-5.57-1.53-3.61-4.58-1.2-11.4 3.39-1.86 1.25-3.6 2.63-5.17 4.23-7.5 7.59-.97 16.25 2.27 19.9z" fill="url(#u)"/><path d="m114.64 96.58-7.56 6.87c-1.02.91-.41 1.75.32 2.82.78 1.18 1.64 2.04 2.88 1.21l8.41-5.83c1.42-.98 1.79-2.91.77-4.21l-.52-.66c-1.06-1.32-3.02-1.42-4.3-.2z" fill="url(#v)"/><path d="m110.88 91.9-6.19 6.28c-.93.92-1.03 2.33-.28 3.32.8 1.09 2.4 1.23 3.54.38l7.06-5.32c1.31-1 1.57-2.87.53-4.07l-.53-.61c-1.08-1.21-2.97-1.21-4.13.02z" fill="url(#w)"/><path d="m117.65 102.04-6.13 5.25c-.93.76-1.13 2.04-.52 3 .64 1.06 2.08 1.32 3.19.63l6.85-4.31c1.28-.81 1.67-2.49.81-3.67l-.43-.6c-.89-1.17-2.61-1.32-3.77-.3z" fill="url(#x)"/><path d="m118.86 101.51c-.6-.97-7.14 5.5-8.6 5.44-1.67-.07-2.82-1.81-2.01-3.33.92-1.71 7.58-7.21 7.28-7.59-.56-.71-7.88 8.24-10.39 5.07-1.56-1.96.55-3.56 1.77-4.9.72-.79 4.2-3.9 4-4.16-.2-.25-1.04.52-1.15.59-.72.45-4.77 4.08-5.72 5.24-1.57 1.92-1.21 3.35-.61 4.21.7 1.01 1.43 2.5 1.83 3.66.84 2.47-.16 6.13-.03 6.45.14.34 1.12-1.69 1.31-3.51.11-1.07 1.15-1.4 1.99-.72.51.42.96.82 1.12 1.04.34.46 2.36 3.15 2.91 4.18.21.4.4.7.81 1.01.3.23.64.4 1.01.5 1.64.45 3.17-.58 4.41-1.44.74-.52 3.86-2.4 4.23-3.3-1.61 1.2-7.11 5.64-8.55 3.28-.78-1.34.6-1.85 1.48-2.41 1-.63 2.77-1.95 3.63-2.76.24-.23 1.63-1.25 1.48-1.45-.23-.29-3.13 1.87-3.46 2.11-1.19.85-3.49 2.91-5.08 1.94-.58-.36-.99-1.04-.99-1.73 0-1.66 7.64-6.92 7.33-7.42z" fill="#eda600"/></svg>