<svg enable-background="new 0 0 128 128" viewBox="0 0 128 128" xmlns="http://www.w3.org/2000/svg"><g fill="#b8885a"><path d="m26.66 120.32c-1.35.45-1.89.95-1.89 2.02s1.39 1.96 3.16 1.77 2.59-.38 3.72-.38 2.46.38 4.54.38 2.84-.63 5.74-.63 6.63.38 8.65.25 4.61-1.45 4.48-3.98-.82-4.36-1.14-5.36-.44-5.05-.44-5.05l-12.31.57s.06 2.84-.38 3.79-1.33 1.33-1.96 1.58-5.68 2.46-6.69 2.78-4.54 1.96-5.48 2.26z"/><path d="m86.68 107.63s-.19 2.08-.44 3.53-.44 3.47-1.51 4.42-3.47 1.39-4.1 1.83-.82 1.01-.82 1.01-1.61.41-1.65 1.61 1.06 2.26 3 2.36 2.36-.42 2.93-.42 4.38.46 6.25-.39 2.72-3.21 3.07-4.16.92-2.72 1.76-3.32 2.75-1.59 4.16-3.99 1.55-4.2-.25-5.61-6.53-4.34-6.53-4.34l-7.13 5.72s1.26 1.75 1.26 1.75z"/><path d="m93.56 64.96s.71 1.43 2.52 2.85c1.55 1.22 3.51 2.14 4.94 2.03s3.9-1.48 4.28-3.9c.35-2.2.93-5.16-.71-6.26-1.87-1.25-8.62-.6-8.62-.6l-2.41 5.87z"/><path d="m26.55 56.18s-3.46 2.58-4.34 4.66-.77 3.9.99 5.71c1.6 1.65 4.23 2.25 5.65 1.15s2.69-4.66 2.36-6.31-2.96-6.09-2.96-6.09-1.7.88-1.7.88z"/></g><path d="m39.73 105.74s-.06 3.88.05 5.38c.07.92.67 1.79 1.87 1.73 1.59-.08 2.02-1.68 2.02-1.68s-.05 3.07 2.5 3.03 4.23-3.36 4.23-3.36.67 1.54 2.26 1.49 2.55-1.58 2.88-2.88.48-2.21 1.01-3.27 2.26-4.27 1.87-7.83-1.1-5.76-.91-6.53 2.65-1.65 4.8-2.79c2.55-1.34 3.41-3.17 3.84-2.98s1.63 4.56 2.11 5.81.77 3.17 1.82 3.89 2.35.48 2.35.48.59 2.26 2.11 3.17c.96.58 2.11.34 2.11.34s1.34 1.92 3.17 3.75 4.08 3.6 4.08 3.6l5.95-7.16-6.77-12.34 1.54-14.45s1.34-1.39 2.26-3.22.86-3.07.86-3.07l-16.23-1.2-24.35 17.43-7.44 22.67z" fill="#52362d"/><path d="m40.84 85.14c-.55 2.47-.29 5.47-.29 7.49s-.62 6.43-.77 8.79-.05 4.32-.05 4.32 1.92.91 3.51-.67 3.17-5.62 3.75-7.59 1.97-3.84 2.02-4.99-.38-1.87.1-3.17 1.49-2.5 2.74-2.98 13.21-5.28 19.45-8.31 15.61-8.6 16.47-11.19-.91-7.02-1.97-8.64c-.74-1.14-5.67-5.71-5.67-5.71l-1.87-1.73 1.34-1.34s1.34.24 1.82.29l.96.1s1.2 2.21 2.55 4.23 2.45 2.55 3.17 3.7 2.06 4.03 3.03 5.71 2.4 2.75 5.81 1.45 3.86-5.13 2.07-9.74c-1.61-4.16-3.65-8.42-5-10.72s-3.31-4.37-3.31-4.37l-13.83-10.85-12.34-12.68-3.03-4.23s-3.81-5.2-7.07-7.12-7.28-1.65-9.39.08c-1.55 1.27-2.29 2.37-3.12 4.81-.48 1.42-.5 3.81-.5 3.81l5.22 12.89-2.47 8.01.05 2.5s-1.97 2.4-3.03 4.47-1.34 3.51-1.34 3.51l-3.75 5.28-9.99 5.91s.58 3.84 2.55 5.23 7.4-1.54 7.4-1.54 1.56.12 2.71-.26 2.6-1.43 2.6-1.43l4.1-7.24 4.18 2.79s.48 2.35 1.2 4.18 2.93 5.57 3.84 6.1 1.63.77 1.44 1.3-2.88 2.59-5.52 6.05-5.09 7.54-5.62 8.26-3.6 2.93-4.13 5.28z" fill="#6d4c40"/><path d="m82.47 75.23s-.19 4.93-.9 7.82-1.99 8.07-1.99 8.07 2.75 2.04 2.65 3.44-.63 1.89-.7 2.3 1.78 3.6 2.2 6.25.18 3.97.18 3.97 3.03 3.12 5.96 1.72 2.86-5.59 2.86-5.59 2.06.87 3.07-.21.16-3.07-1.36-5.45c-1.75-2.72-2.95-6.51-4.61-8.28-2.1-2.23-5.1-3.07-5.03-4.16.08-1.26.77-2.93.77-5.83s-.95-6.17-.95-6.17-.82.9-1.15 1.21c-.49.45-1.02.89-1.02.89z" fill="#6e4b41"/><g fill="#865c51"><path d="m39.93 44.91s-5.54 3.89-7.03 5.03-5.21 3.25-6.31 4.7c-.6.79-.49 1.78-.49 1.78s.65.57 2.49.41 4.7-1.73 5.65-2.23 2.08-1.29 2.08-1.29.47.47 1.25.31 1.61-1.72 1.92-3.06c.59-2.51.44-5.66.44-5.66z"/><path d="m44.15 34.77s-.11-2.9.4-4.55 1.73-2.27 1.73-2.27.27 3.84.27 4.67c0 1.15-.67 1.69-1.18 1.96s-1.22.2-1.22.2z"/><path d="m61.49 12.29s.11 2.67 1.17 4.91 2.2 3.88 3.14 4.23 1.61.16 1.92.55 0 7.17 1.37 10.7 3.45 6.31 5.57 6.27c1.85-.03 1.8-1.76 2.2-1.76s1.76.65 4.19.72c2.68.08 4.28-.53 4.59.02s-.12 1.73-.16 3.02.12 4.63.31 5.65 2.04 5.76 2.67 6.51 2.12 1.1 2.39-.08-.31-3.45.12-3.69.86.78 1.65.67 1.25-1.37 1.1-2.82-1.02-4.59-1.37-5.29-.78-1.41-.78-1.41.9-.78-.35-2.74-4.31-5.06-6.59-6.94-5.96-4.16-5.96-4.16-1.49-3.14-4.63-5.68-6.39-3.1-6.39-3.1-.86-2.12-2.51-3.29-3.64-2.28-3.64-2.28z"/></g><g fill="#52362d"><path d="m53.06 41.02c-.96.43-.63 1.96-.21 3.26s1.43 3.73 2.46 4 1.54-.56 1.54-.56.91 1.02 3.26 1.58 3.75-.46 3.51-1.93-2.6-1.72-3.65-2.07-3.12-1.3-3.96-2.07-1.93-2.67-2.95-2.21z"/><path d="m79.59 49.41s-3.09-1.09-5.93-2.74-5.96-4.56-6.91-4.49-.84 1.26-.56 2.39.7 2.28 1.47 2.18.6-.77.95-.77.48 3.02 2.06 4.28 2.54.49 2.54.49.81 1.68 2.67 2.84 3.58 2.14 5.4 3.05 2.48 1.11 3.3 1.33c.7.19 1.1.13 1.1.13-.2-.37-.75-1.37-1.87-2.69-1.01-1.2-2.48-2.62-3.05-3.44-.81-1.17-1.15-2.55-1.15-2.55z"/><path d="m41.1 58.61s-.56-4.64 1.23-10.43 2.77-6.39 3.3-6.81 1.26-.6 1.61-.07-.41 3.27-.25 4.84 1.72 2.32 1.96 2.67.67 5.17.67 5.17-.93 1.73-2.87 2.17c-1.34.3-1.94-.29-1.94-.29s-.8.86-1.79 1.59-1.93 1.17-1.93 1.17z"/><path d="m45.57 8.43c-2.17.59-4.22 3.31-4.18 5.84s.46 5.96.91 7.41 1.08 3.19 1.74 3.73 1.74.29 1.74.29-.08 3.56 1.61 6.17 4.64 4.72 9.4 3.27 7.62-6 8.32-7.62.62-3.68-.95-4.06-1.57 1.04-3.02 0 0-3.77-1.24-4.72-1.66.99-2.73.08-.33-3.23-1.78-5.92c-1.36-2.53-5.55-5.63-9.81-4.47z"/></g><path d="m50.88 20.02c-4.45 1.54-5.03 4.06-4.66 5.15s1.2.86 1.2.86-.15 2.55.86 3.53 1.88.34 1.88.34.11 3.13 2.25 3.16c3.27.04 2.71-4.51 2.71-4.51s1.14.27 1.8-.53c1.16-1.39-.08-4.25-.08-4.25s.68-.38.68-1.31-1.77-4.13-6.65-2.44z" fill="#b99277"/><path d="m49.72 18.55c-1.32.4-1.92 2.59-1.73 3.01s1.56.77 2.71.45c1.5-.41 2.18-1.31 2.1-1.95s-1.95-1.84-3.08-1.5z" fill="#b6895a"/><path d="m46.86 10.62c-1.32.31-1.2 3.08-1.69 3.83s-1.88 1.73-1.43 3.08 2.14 1.39 5.56.26 4.7-1.69 4.55-3.34c-.17-1.85-2.18-1.35-3.53-2.03-.86-.43-2.03-2.14-3.46-1.8z" fill="#b6895a"/><path d="m48.72 25.77c1.13.89 1.71-.96 3.13-1.35s2.67.48 3.05-.55-1.47-1.95-3.73-1.42c-2.04.48-3.28 2.67-2.45 3.32z" fill="#51362d"/><path d="m27.98 58.35c-.6 0-.84.66-.84 1.63 0 1.24-.09 1.78-.53 2.36s-.53 1.15-.11 1.56c.57.57 1.5.2 1.98-.57s.73-2.38.66-3.24-.33-1.74-1.17-1.74z" fill="#52362d"/></svg>