<svg enable-background="new 0 0 128 128" viewBox="0 0 128 128" xmlns="http://www.w3.org/2000/svg"><path d="m116.46 3.96h-104c-4.42 0-8 3.58-8 8v104c0 4.42 3.58 8 8 8h104c4.42 0 8-3.58 8-8v-104c0-4.42-3.58-8-8-8z" fill="#427687"/><path d="m122.16 6.26c-1.54-1.46-3.58-2.28-5.7-2.3h-104c-4.42 0-8 3.58-8 8v104c.02 2.12.84 4.16 2.3 5.7l16.8-16.8h76c3.26-.01 5.89-2.64 5.9-5.9v-76z" fill="#8cafbf"/><path d="m68.96 97.86h-8.9c-.66-.01-1.19-.54-1.2-1.2v-52.4c.04-.66-.47-1.23-1.13-1.27-.16-.01-.32.01-.47.07l-13.6 4.6c-.62.22-1.31-.1-1.53-.73-.05-.15-.08-.31-.07-.47v-7c0-.52.32-1 .8-1.2l25.8-9.5c.12-.08.26-.11.4-.1.66.01 1.19.54 1.2 1.2v66.5c.07.76-.49 1.43-1.25 1.5-.02 0-.04 0-.05 0z" fill="#fafafa"/><path d="m40.16 12.86c0-2.3-1.6-3-10.8-2.7-7.7.3-11.5 1.2-13.8 4s-2.9 8.5-3 15.3c0 4.8 0 9.3 2.5 9.3 3.4 0 3.4-7.9 6.2-12.3 5.4-8.7 18.9-10.6 18.9-13.6z" fill="#b4e1ed" opacity=".5"/></svg>