<svg enable-background="new 0 0 128 128" viewBox="0 0 128 128" xmlns="http://www.w3.org/2000/svg" xmlns:xlink="http://www.w3.org/1999/xlink"><linearGradient id="a" gradientTransform="matrix(.9905 -.1374 .1374 .9905 -74.08 -112.65)" gradientUnits="userSpaceOnUse" x1="98.15" x2="107.76" y1="210.74" y2="200.86"><stop offset=".225" stop-color="#814d3c"/><stop offset="1" stop-color="#51362d"/></linearGradient><linearGradient id="b" gradientTransform="matrix(.9884 -.1521 .1521 .9884 -74.87 -112.81)" gradientUnits="userSpaceOnUse" x1="68.83" x2="68.83" y1="161.76" y2="220.99"><stop offset=".2013" stop-color="#cf7756"/><stop offset=".2529" stop-color="#c87354"/><stop offset=".5534" stop-color="#a15e47"/><stop offset=".7943" stop-color="#8a523f"/><stop offset=".9438" stop-color="#814d3c"/></linearGradient><linearGradient id="c" gradientTransform="matrix(-.1374 .9905 .9905 .1374 208.72 -395.45)" gradientUnits="userSpaceOnUse" x1="460.22" x2="469.84" y1="-63.1" y2="-72.98"><stop offset=".2284" stop-color="#814d3c"/><stop offset="1" stop-color="#51362d"/></linearGradient><linearGradient id="d" gradientTransform="matrix(-.1521 .9884 .9884 .1521 208.56 -396.24)" gradientUnits="userSpaceOnUse" x1="434.91" x2="434.91" y1="-106.69" y2="-47.46"><stop offset=".2013" stop-color="#cf7756"/><stop offset=".253" stop-color="#c87354"/><stop offset=".5539" stop-color="#a15e47"/><stop offset=".7952" stop-color="#8a523f"/><stop offset=".9449" stop-color="#814d3c"/></linearGradient><linearGradient id="e" gradientTransform="matrix(.7071 -.7071 .7071 .7071 -34.02 60.86)" gradientUnits="userSpaceOnUse" x1="67.35" x2="67.35" y1="124.77" y2="69.96"><stop offset=".3189" stop-color="#cf7756"/><stop offset="1" stop-color="#814d3c"/></linearGradient><linearGradient id="f"><stop offset=".4957" stop-color="#734434"/><stop offset="1" stop-color="#51362d"/></linearGradient><linearGradient id="g" gradientTransform="matrix(-.0253 .9997 .9997 .0253 146.6 -358.74)" gradientUnits="userSpaceOnUse" x1="439.86" x2="425.08" xlink:href="#f" y1="-54.75" y2="-72.03"/><linearGradient id="h" gradientTransform="matrix(.9997 -.0253 .0253 .9997 -93.48 -118.66)" gradientUnits="userSpaceOnUse" x1="168.94" x2="154.16" xlink:href="#f" y1="202.8" y2="185.51"/><path d="m78.4 73.18-28.19-24.82-.9.62-7.02 11.22s-6.29 2.84-7.05 2.65c-.75-.19-9.46-9.52-10.68-9.93s-4.7.14-6.48.46c-1.42.26-6.11.9-5.72 2.76.22 1.06 2.05 1.68 4.55 1.33 2.29-.32 4.43-.54 4.43-.54s10.54 11.04 12.21 11.53c1.67.5 7.74-.78 10.39-1.59 2.65-.8 8.87-3.12 8.87-3.12l-2.65 3.93s-9.81 8.41-10.09 10.05 5.56 14.93 5.78 16.5-.73 5.19-.59 9.38c.15 4.19-.17 10.65 1.9 9.48 1.35-.77 2.1-8.43 2.64-12.43.37-2.77.84-6.51.73-8.39-.11-1.87-3.68-11.84-3.75-12.34s6.32-3.71 7.07-4.54c.76-.83 2.54-3.7 2.54-3.7l3.1 4.51s-4.97 13.98-4.69 15.97c.28 2 8.77 7.64 10.78 9.54s2.92 3.79 3.9 6.14c1.41 3.37 3.97 8.17 5.4 10.08 1.31 1.76 5.23 4.76 6.52 5.08 2.63.65-1.95-6.22-4.84-12.36s-3.82-9.72-4.6-11.14-9.32-7.41-9.44-8.27 4.63-9.13 4.63-9.13z" fill="url(#a)"/><path d="m36.75 41.47s-.64 2.49-1.51 3.97c-.14.25-12.56-8.68-21.29-3.25-13.48 8.37 1.56 33.8.01 45.79-1.08 8.37-3.95 10.19-4.81 9.77-1.36-.66 2.77-4.12 1.36-15.16-1.6-12.48-12.87-33.18-.16-42.61 12.38-9.19 26.4 1.49 26.4 1.49z" fill="url(#b)"/><path d="m73.55 78.02-24.82-28.18.62-.9 11.22-7.02s2.84-6.29 2.65-7.05c-.19-.75-9.52-9.46-9.93-10.68s.14-4.7.46-6.48c.26-1.42.9-6.11 2.76-5.72 1.06.22 1.68 2.05 1.33 4.55-.32 2.29-.54 4.43-.54 4.43s11.04 10.54 11.53 12.21c.5 1.67-.78 7.74-1.59 10.39-.8 2.65-3.12 8.87-3.12 8.87l3.93-2.65s8.41-9.81 10.05-10.09 14.93 5.56 16.5 5.78 5.19-.73 9.38-.59c4.19.15 10.65-.17 9.48 1.9-.77 1.35-8.43 2.1-12.43 2.64-2.77.37-6.51.84-8.39.73-1.87-.11-11.84-3.68-12.34-3.75s-3.71 6.32-4.54 7.07c-.83.76-3.7 2.54-3.7 2.54l4.51 3.1s13.98-4.97 15.97-4.69c2 .28 7.64 8.77 9.54 10.78s3.79 2.92 6.14 3.9c3.37 1.41 8.17 3.97 10.08 5.4 1.76 1.31 4.76 5.23 5.08 6.52.65 2.63-6.22-1.95-12.36-4.84s-9.72-3.82-11.14-4.6-7.41-9.32-8.27-9.44-9.13 4.63-9.13 4.63z" fill="url(#c)"/><path d="m41.84 36.38s2.49-.64 3.97-1.51c.25-.14-8.68-12.56-3.25-21.29 8.37-13.48 33.8 1.56 45.79.01 8.37-1.08 10.19-3.95 9.77-4.81-.66-1.38-4.12 2.76-15.16 1.35-12.48-1.59-33.17-12.87-42.61-.15-9.19 12.38 1.49 26.4 1.49 26.4z" fill="url(#d)"/><g fill="#cf7756"><path d="m105.69 118.48c-.63.08-1.25-.29-1.47-.9l-2.82-7.87c-.26-.72.12-1.51.83-1.77.72-.26 1.51.12 1.77.83l2.82 7.87c.26.72-.12 1.51-.83 1.77-.1.04-.2.06-.3.07z"/><path d="m118.94 105.24c.08-.63-.29-1.25-.9-1.47l-7.87-2.82c-.72-.26-1.51.12-1.77.83-.26.72.12 1.51.83 1.77l7.87 2.82c.72.26 1.51-.12 1.77-.83.03-.11.06-.2.07-.3z"/><path d="m42.78 57.91s-5.38-4.9-7.04-9.18c-1.46-3.77-1.8-7.46 2.12-11.32 4.36-4.29 8.78-3.66 13.15-1.61 3.53 1.65 7.98 6 7.98 6z"/></g><g fill="#2f2f2f"><ellipse cx="38.95" cy="45.82" rx="2.3" ry="2.75" transform="matrix(.9003 -.4353 .4353 .9003 -16.06 21.52)"/><ellipse cx="46.45" cy="38.13" rx="2.3" ry="2.75" transform="matrix(.4423 -.8969 .8969 .4423 -8.29 62.93)"/><path d="m42.56 37.68c-.16-1.08-2.65-.87-3.9.41-1.25 1.29-1.12 3.86-.03 3.91.91.04.77-1.53 1.67-2.44.9-.89 2.39-.98 2.26-1.88z"/></g><path d="m62.89 43.2c-6.75-5.69-14.32-3.02-18.32.91-3.94 4.01-6.6 11.57-.91 18.32 6.59 7.83 12.43 6.12 12.43 6.12l8.23-4.69 4.69-8.23s1.7-5.84-6.12-12.43z" fill="#734434"/><path d="m59.99 62.34c-5.96-1.32-11.58 1.29-13.94 2.62 5.6 5.02 10.13 3.7 10.13 3.7l6.85-4.3s-1.13-1.59-3.04-2.02z" fill="#cf7756"/><path d="m62.8 59.53c-1.32-5.96 1.29-11.58 2.62-13.94 5.02 5.6 3.7 10.13 3.7 10.13l-4.3 6.85c-.01.01-1.6-1.13-2.02-3.04z" fill="#cf7756"/><path d="m78.09 56.62c-3.19-2.33-6.98-2.22-6.98-2.22s-3.9 6.85-6.63 9.72c-2.87 2.73-9.72 6.63-9.72 6.63s-.11 3.79 2.22 6.98 8.49 9.12 13.42 13.32c5.11 4.35 30.82 28.6 40.21 19.21s-14.86-35.1-19.21-40.21c-4.19-4.95-10.12-11.1-13.31-13.43z" fill="url(#e)"/><path d="m96.93 105.98c0-.05 0-.11 0-.16-.02-.2-1.06-7.14-4.95-19.32-1.48-4.63-6.25-14.35-11.17-20.73-4.88-6.34-9.78-10.03-9.98-10.19-.68-.51-1.64-.37-2.15.31s-.37 1.64.31 2.15c.05.04 4.78 3.62 9.39 9.6 4.5 5.84 9.13 15.28 10.7 19.86 3.61 10.49 4.79 18.51 4.79 18.55.07.84.81 1.47 1.65 1.41.78-.06 1.39-.71 1.41-1.48z" fill="url(#g)"/><path d="m106.92 95.98c-.05 0-.11 0-.16 0-.2-.02-7.14-1.06-19.32-4.95-4.63-1.48-14.35-6.25-20.73-11.17-6.34-4.88-10.03-9.78-10.19-9.98-.51-.68-.37-1.64.31-2.15s1.64-.37 2.15.31c.04.05 3.62 4.78 9.6 9.39 5.84 4.5 15.28 9.13 19.86 10.7 10.49 3.61 18.51 4.79 18.55 4.79.84.07 1.47.81 1.41 1.65-.05.79-.7 1.39-1.48 1.41z" fill="url(#h)"/><path d="m68.83 51.86s-1.96 6.94-5.5 10.77c-3.33 3.61-10.44 6.28-10.44 6.28s-.01.91.34 1.55c.35.63.97 1.26 1.71 1.33 1.08.11 8.05-2.94 11.87-7.57s5.95-10.52 3.79-11.89c-1.18-.74-1.77-.47-1.77-.47z" fill="#51362d"/></svg>