<svg enable-background="new 0 0 128 128" viewBox="0 0 128 128" xmlns="http://www.w3.org/2000/svg" xmlns:xlink="http://www.w3.org/1999/xlink"><radialGradient id="a" cx="63.6" cy="62.9" gradientUnits="userSpaceOnUse" r="56.9597"><stop offset=".5" stop-color="#fde030"/><stop offset=".92" stop-color="#f7c02b"/><stop offset="1" stop-color="#f4a223"/></radialGradient><linearGradient id="b"><stop offset="0" stop-color="#ed7770"/><stop offset=".9" stop-color="#ed7770" stop-opacity="0"/></linearGradient><radialGradient id="c" cx="66.2449" cy="-1690.4537" gradientTransform="matrix(.98 0 0 .88 -30.72 1552.7098)" gradientUnits="userSpaceOnUse" r="19.4611" xlink:href="#b"/><radialGradient id="d" cx="123.12" cy="-2397.5901" gradientTransform="matrix(1 0 0 -1 0 130)" gradientUnits="userSpaceOnUse" r="19.46" xlink:href="#b"/><path d="m63.6 118.8c-27.9 0-58-17.5-58-55.9s30.1-55.9 58-55.9c15.5 0 29.8 5.1 40.4 14.4 11.5 10.2 17.6 24.6 17.6 41.5s-6.1 31.2-17.6 41.4c-10.6 9.3-25 14.5-40.4 14.5z" fill="url(#a)"/><path d="m111.49 29.67c5.33 8.6 8.11 18.84 8.11 30.23 0 16.9-6.1 31.2-17.6 41.4-10.6 9.3-25 14.5-40.4 14.5-18.06 0-37-7.35-48.18-22.94 10.76 17.66 31 25.94 50.18 25.94 15.4 0 29.8-5.2 40.4-14.5 11.5-10.2 17.6-24.5 17.6-41.4 0-12.74-3.47-24.06-10.11-33.23z" fill="#eb8f00"/><path d="m64.4 83.3c-3.58 0-7.13-.6-10.5-1.8-4.15-1.43-8.66.78-10.09 4.92-.81 2.34-.48 4.92.89 6.98 4.3 6.6 11.1 10.2 19.7 10.2s15.4-3.6 19.7-10.2c2.43-3.65 1.43-8.58-2.22-11.01-2.06-1.37-4.64-1.7-6.98-.89-3.37 1.2-6.92 1.8-10.5 1.8z" fill="#422b0d"/><ellipse cx="34.2" cy="72.7" fill="url(#c)" opacity=".8" rx="17.5" ry="16.5"/><ellipse cx="94.6" cy="72.7" fill="url(#d)" opacity=".8" rx="17.5" ry="16.5"/><path d="m107.59 34.37c-8.21-2.31-14.24 4.4-14.24 4.4s-.7-7.61-7.72-10c-8.42-2.89-17.31 1.71-17.84 13.64-.6 13.59 17.38 31.43 17.38 31.43s22.32-6 29.63-18.72c5.95-10.35-1-19.01-7.21-20.75z" fill="#f44336"/><path d="m107.59 34.37c-1.01-.27-2.05-.39-3.09-.37 2.94 1.97 5.27 4.72 6.72 7.94 1.41 3.39 1.78 7.77-.9 13-5.81 11.37-23.7 18.41-25 18.9 1.63-.46 22.49-6.46 29.52-18.69 5.91-10.38-1.04-19.04-7.25-20.78z" fill="#c62828"/><path d="m93.34 40c-.06-1.04-.22-2.08-.46-3.1-.58-2.94-2.4-5.49-5-7-1.78-1.04-3.75-1.7-5.79-1.95 0 0 3 .91 5.14 5.06 1.09 2.18 1.74 4.56 1.9 6.99-.01.89.15 1.76.47 2.59.36.83 1.24 1.32 2.14 1.18 1.37-.35 1.67-2.06 1.6-3.77z" fill="#c62828"/><path d="m73.9 35.23c1.87-2.32 4.94-4.53 7.88-2.49 1.56 1.09 1.58 4.18-.33 5.57-3.22 2.36-3.37 3.91-3.73 5.21-.44 1.55-.72 3.4-2.13 4.18s-2.65 0-3.39-2.23c-1.26-3.48-.62-7.36 1.7-10.24z" fill="#ff847a"/><path d="m40.72 28.57c-8.11 2.63-9.41 11.56-9.41 11.56s-4.8-6-12-4.06c-8.59 2.26-13.44 11.02-7.31 21.23 7.1 11.7 31.94 16.55 31.94 16.55s15.25-17.36 14.29-32c-.79-11.92-11.38-15.27-17.51-13.28z" fill="#f44336"/><path d="m40.72 28.57c-.99.32-1.94.78-2.81 1.36 3.54.01 7 1.01 10 2.89 3.06 2 5.79 5.48 6.47 11.33 1.47 12.69-9.53 28.46-10.38 29.61 1.11-1.28 15.14-17.84 14.22-31.92-.78-11.91-11.37-15.26-17.5-13.27z" fill="#c62828"/><path d="m32 41.18c-.62-.85-1.32-1.63-2.1-2.33-2.1-2.14-5.01-3.28-8-3.12-2.05.12-4.06.65-5.9 1.58 0 0 3-.91 7.08 1.37 2.13 1.23 3.98 2.88 5.46 4.84.48.75 1.1 1.39 1.83 1.9.76.49 1.76.4 2.43-.21.89-1.08.2-2.66-.8-4.03z" fill="#c62828"/><path d="m13.2 48c.04-.84.19-1.67.44-2.47.41-1.68 1.6-3.07 3.19-3.74 1.53-.48 3.65-.14 4.47 1.39.73 1.36.2 3-.2 4.5-.36 1.72-.56 3.48-.6 5.24.01 1.44-1.14 2.61-2.58 2.63-1.36 0-2.42-1.18-3.18-2.31-1.06-1.54-1.6-3.37-1.54-5.24z" fill="#ff847a"/></svg>