<svg enable-background="new 0 0 128 128" viewBox="0 0 128 128" xmlns="http://www.w3.org/2000/svg"><path d="m13.63 58.55c-1.64.09-2.24.89-2.27 5.58-.02 2.76.26 56.44.18 57.65-.11 1.65 1.13 2.16 2.85 2.15.27 0 99.57-.18 99.78-.17 1.21.01 1.3-.95 1.38-2.59.09-1.64.96-60.95.96-61.9s0-1.73-1.73-1.81c-.46-.02-2.29.05-4.84-.03-3.29-.11-5.35-3.05-9.09-3.16-4.35-.14-10.18 2.56-10.18 2.56l-21.36-26.81s-.01-6.39-.15-8.64c-.17-2.76-2.16-4.49-5.18-4.41-3.28.09-5.2 1.9-5.27 4.58-.09 3.11-.17 8.21-.17 8.21l-22.12 28.26-8.72 3.27s-5.37-2.7-9.87-2.73c-2.1-.03-3.83-.03-4.2-.01z" fill="#875b52"/><path d="m16.25 28.04 10.74 4.84 9.73-4.95s-2.19-2.65-2.14-2.99c.06-.34 3.25-1.73 3.2-6.91-.06-6.43-8.51-14.21-10.98-14.21s-11.23 7.52-11.23 13.88c0 4.89 2.97 7.21 2.97 7.72 0 .5-2.29 2.62-2.29 2.62z" fill="#875b52"/><path d="m90.64 27.93s2.58-2.65 2.58-3.06c0-1.01-3.55-2.03-3.25-7.97.29-5.8 8.67-13.44 11.13-13.39 2.57.05 10.98 8.41 10.83 13.9s-3.08 7.13-3.03 7.75 2.41 2.57 2.41 2.57-12.67 6.52-12.72 6.36-7.95-6.16-7.95-6.16z" fill="#875b52"/><path d="m35.8 67.91s27.12-34.68 28.03-34.68 27.51 32.47 27.51 32.47l.52 27.24-56.32-1.98z" fill="#e4c5b0"/><path d="m16.42 123.94-.18-95.89 20.46-.11s.29 60.38.68 60.64c.4.26 52.37.4 52.76 0 .4-.4.48-60.65.48-60.65l20.68-.21-.57 96.07z" fill="#b79277"/><g fill="#e4c5b0"><path d="m20.12 62.87h13.35v32.01h-13.6z"/><path d="m94.53 60.52h13.1v32.76h-13.1z"/><path d="m90.65 30.99 20.67-.02-.18 25.95-20.59-.23z"/><path d="m16.26 30.96 20.46-.03.18 26.5-20.59.15z"/></g><path d="m24.53 51.6v-14.99h4.9v14.89c-.01 0-4.8.2-4.9.1z" fill="#69769c"/><path d="m24.55 71.07 4.91-.13v15.2h-4.98z" fill="#69769c"/><path d="m98.91 35.38h4.98v15.32h-5.04z" fill="#69769c"/><path d="m98.78 68.74h4.72v15.13h-4.98c.01.01.46-15.13.26-15.13z" fill="#69769c"/><path d="m38.03 123.89s.03-20.01.11-22.6c.07-2.24 1.26-6.99 7.41-6.99 6.01 0 7.06 4.41 7.06 7.2 0 2.24.03 22.42.03 22.42z" fill="#865c50"/><path d="m57.41 123.83s-.22-19.6-.13-22.33c.14-3.92 2.18-7.46 7.15-7.59 5.31-.14 7.54 3.54 7.68 7.1s.19 22.82.19 22.82-14.89-.03-14.89 0z" fill="#865c50"/><path d="m76.77 123.83s-.07-20.21-.07-22.51c0-2.8 2.1-7.27 6.99-7.27 5.31 0 7.34 4.06 7.34 7.34s.04 22.44.04 22.44z" fill="#865c50"/><path d="m63.44 50.34c-9.04.15-17.31 6.61-17.4 18-.08 10.18 7.82 17.4 18 17.55 11.32.17 17.93-7.98 18-18.08.09-9.65-6.9-17.67-18.6-17.47z" fill="#504644"/><path d="m65.39 84.69c-.31.56-1.26.63-1.59.08l-14.51-23.42c-.65-1.21-.13-2.69.35-2.68l27.85.13c.5 0 1.5.77.56 2.95zm-11.37-23.33 10.49 17.33 9.59-17.23z" fill="#ff8c02"/><path d="m49.14 76.07 14.8-23.23 14.78 23.07c.19.32.38 1.6-.69 1.64l-28 .21c-1.14-.19-1.06-1.39-.89-1.69zm14.81-19.31-10.01 17.08 20.29-.06z" fill="#ff8c02"/><path d="m64.09 83.26-14.74-23.8c-.25-.4.04-.92.51-.91l27.75.17c.5 0 .81.54.57.97l-13.05 23.54c-.22.41-.8.42-1.04.03zm-11.7-22.69 12.15 19.62 10.8-19.47z" fill="#ffd324"/><path d="m49.19 75.91 14.27-24.2c.18-.3.62-.3.8 0l14.33 24.02c.18.31-.04.7-.39.7l-28.6.18c-.37 0-.59-.39-.41-.7zm14.28-20.28-10.77 18.26c-.18.31.04.7.4.7l21.58-.13c.36 0 .58-.39.39-.7l-10.81-18.13c-.18-.3-.61-.3-.79 0z" fill="#ffd324"/></svg>