<svg enable-background="new 0 0 128 128" viewBox="0 0 128 128" xmlns="http://www.w3.org/2000/svg" xmlns:xlink="http://www.w3.org/1999/xlink"><linearGradient id="a" gradientTransform="matrix(1 0 0 -1 0 128)" gradientUnits="userSpaceOnUse" x1="63.9935" x2="63.9935" y1="99.4816" y2="-6.7508"><stop offset="0" stop-color="#eee"/><stop offset="1" stop-color="#bdbdbd"/></linearGradient><linearGradient id="b" gradientTransform="matrix(1 0 0 -1 0 128)" gradientUnits="userSpaceOnUse" x1="63.998" x2="63.998" y1="28.0398" y2="5.8538"><stop offset=".1785" stop-color="#fafafa"/><stop offset=".8279" stop-color="#e0e0e0"/></linearGradient><linearGradient id="c"><stop offset=".7275" stop-color="#6d4c41" stop-opacity="0"/><stop offset="1" stop-color="#6d4c41"/></linearGradient><radialGradient id="d" cx="100.0223" cy="45.8498" gradientTransform="matrix(1 0 0 .4912 -21.8237 59.6284)" gradientUnits="userSpaceOnUse" r="23.419" xlink:href="#c"/><linearGradient id="e"><stop offset=".6628" stop-color="#6d4c41"/><stop offset="1" stop-color="#6d4c41" stop-opacity="0"/></linearGradient><radialGradient id="f" cx="76.9571" cy="49.3316" gradientTransform="matrix(-.9057 .4238 -.3144 -.6719 186.4769 79.1968)" gradientUnits="userSpaceOnUse" r="6.9209" xlink:href="#e"/><linearGradient id="g"><stop offset=".7247" stop-color="#6d4c41" stop-opacity="0"/><stop offset="1" stop-color="#6d4c41"/></linearGradient><radialGradient id="h" cx="94.8934" cy="68.9104" gradientTransform="matrix(-.0746 -.9972 .8311 -.0622 33.1381 158.0051)" gradientUnits="userSpaceOnUse" r="30.3992" xlink:href="#g"/><radialGradient id="i" cx="43.9259" cy="68.9104" gradientTransform="matrix(.0746 -.9972 -.8311 -.0622 97.9186 107.1798)" gradientUnits="userSpaceOnUse" r="30.3992" xlink:href="#g"/><radialGradient id="j" cx="49.0549" cy="45.8498" gradientTransform="matrix(-1 0 0 .4912 98.1097 59.6284)" gradientUnits="userSpaceOnUse" r="23.419" xlink:href="#c"/><radialGradient id="k" cx="25.9896" cy="49.3316" gradientTransform="matrix(.9057 .4238 .3144 -.6719 -13.0598 100.7977)" gradientUnits="userSpaceOnUse" r="6.9209" xlink:href="#e"/><linearGradient id="l"><stop offset=".6985" stop-color="#6d4c41" stop-opacity="0"/><stop offset="1" stop-color="#6d4c41"/></linearGradient><radialGradient id="m" cx="81.6346" cy="84.9462" gradientTransform="matrix(.3076 .9515 .706 -.2282 -3.4497 -15.239)" gradientUnits="userSpaceOnUse" r="35.6328" xlink:href="#l"/><radialGradient id="n" cx="46.8957" cy="123.7996" gradientTransform="matrix(.8813 .4726 .5603 -1.045 -63.7977 111.4093)" gradientUnits="userSpaceOnUse" r="9.3426"><stop offset=".58" stop-color="#6d4c41"/><stop offset="1" stop-color="#6d4c41" stop-opacity="0"/></radialGradient><radialGradient id="o" cx="159.2288" cy="62.5181" gradientTransform="matrix(-.9378 -.3944 -.2182 .5285 230.7429 50.928)" gradientUnits="userSpaceOnUse" r="28.7211" xlink:href="#l"/><radialGradient id="p" cx="43.1445" cy="115.2758" gradientTransform="matrix(1 0 0 -1.2233 0 153.7415)" gradientUnits="userSpaceOnUse" r="8.5755"><stop offset=".7016" stop-color="#6d4c41" stop-opacity="0"/><stop offset="1" stop-color="#6d4c41"/></radialGradient><radialGradient id="q" cx="41.9647" cy="100.139" gradientTransform="matrix(-.9657 -.2598 -.2432 .9037 106.843 -51.7313)" gradientUnits="userSpaceOnUse" r="16.0834"><stop offset=".6605" stop-color="#6d4c41" stop-opacity="0"/><stop offset="1" stop-color="#6d4c41"/></radialGradient><radialGradient id="r" cx="38.1491" cy="84.6091" gradientTransform="matrix(.9907 .1363 .1915 -1.3921 -15.8451 155.9751)" gradientUnits="userSpaceOnUse" r="16.8856"><stop offset=".5981" stop-color="#6d4c41" stop-opacity="0"/><stop offset="1" stop-color="#6d4c41"/></radialGradient><linearGradient id="s" gradientTransform="matrix(.9998 -.0182 -.0182 -.9998 -6.5318 145.556)" gradientUnits="userSpaceOnUse" x1="72.6451" x2="72.6451" y1="123.9031" y2="113.4206"><stop offset=".2533" stop-color="#fff"/><stop offset="1" stop-color="#e0e0e0"/></linearGradient><path d="m63.79 9c-63.94 0-59.95 115-59.95 115h1.51 1.5 114.31 1.5 1.5s3.58-115-60.37-115z" fill="url(#a)"/><path d="m113.13 98.06c-1.54-1.96-3.87-3.05-6.3-3.05-.62 0-1.25.07-1.86.22-2.28.54-4.82 1.34-6.42 2.48-1.12.79-2.43 1.24-3.76 1.24-.61 0-1.21-.09-1.81-.28-8.69-2.8-19.11-4.22-29.56-4.22-.01 0-.02 0-.02 0-.03 0-.07 0-.11 0-10.2.01-20.42 1.21-29.04 3.78-.57.17-1.15.25-1.73.25-1.19 0-2.38-.35-3.37-1.05-1.55-1.09-4.03-1.83-6.25-2.31-.56-.12-1.13-.18-1.69-.18-2.42 0-4.75 1.1-6.29 3.05-2.95 3.74-6.98 9.54-6.98 13.4 0 3.77 3.32 6.57 3.32 8.5v4.11h1.5 1.5 97 1.5 1.5v-4.11c0-1.64 5.78-4.22 5.78-8.5.01-3.84-3.96-9.58-6.91-13.33z" fill="url(#b)"/><path d="m98.51 79.85c-1.25-2.27.34-4.58 3.06-7.44 4.31-4.54 9-15.07 4.64-25.76.03-.06-.86-1.86-.83-1.92l-1.79-.09c-.57-.08-20.26-.12-39.97-.12s-39.4.04-39.97.12c0 0-2.65 1.95-2.63 2.01-4.35 10.69.33 21.21 4.64 25.76 2.71 2.86 4.3 5.17 3.06 7.44-1.21 2.21-4.81 2.53-4.81 2.53s.83 2.26 2.83 3.48c1.85 1.13 4.13 1.39 5.7 1.43 0 0 6.15 8.51 22.23 8.51h8.95 8.95c16.08 0 22.23-8.51 22.23-8.51 1.57-.04 3.85-.3 5.7-1.43 2-1.22 2.83-3.48 2.83-3.48s-3.61-.32-4.82-2.53z" fill="#543930"/><path d="m63.6 95.79v-9.44l28.57-2.26 2.6 3.2s-6.15 8.51-22.23 8.51z" fill="url(#d)"/><path d="m94.71 83.16c-4.28-6.5 5.21-8.93 5.21-8.93s.01.01.01.01c-1.65 2.05-2.4 3.84-1.43 5.61 1.21 2.21 4.81 2.53 4.81 2.53s-4.9 4.36-8.6.78z" fill="url(#f)"/><path d="m106.24 46.65c4.25 10.35-.22 21.01-4.41 25.51-.57.62-3.01 3.01-3.57 4.92 0 0-9.54-13.31-12.39-21.13-.57-1.58-1.1-3.2-1.17-4.88-.05-1.26.14-2.76.87-3.83.89-1.31 20.16-1.7 20.16-1.7 0 .01.51 1.11.51 1.11z" fill="url(#h)"/><path d="m21.02 46.65c-4.25 10.35.22 21.01 4.41 25.5.58.62 3.01 3.01 3.57 4.92 0 0 9.54-13.31 12.39-21.13.58-1.58 1.1-3.2 1.17-4.88.05-1.26-.14-2.76-.87-3.83-.89-1.31-1.93-.96-3.44-.96-2.88 0-15.49-.74-16.47-.74.01.02-.76 1.12-.76 1.12z" fill="url(#i)"/><path d="m63.65 95.79v-9.44l-28.57-2.26-2.6 3.2s6.15 8.51 22.23 8.51z" fill="url(#j)"/><path d="m32.54 83.16c4.28-6.5-5.21-8.93-5.21-8.93s-.01.01-.01.01c1.65 2.05 2.4 3.84 1.43 5.61-1.21 2.21-4.81 2.53-4.81 2.53s4.9 4.36 8.6.78z" fill="url(#k)"/><path d="m78.43 99.5c-3.93-2.33-3.59-8.08-3.59-8.08-.52-1.67-2.94-1.34-4.69-1.34h-6.15-6.14c-1.75 0-4.17-.33-4.69 1.34 0 0 .33 5.75-3.59 8.08-3.07 1.82-6.54 4.53-6.54 8.31 0 5.38.04 2.77.1 3.67.05.73 10.46 1.01 20.87.93 10.41.08 20.82-.2 20.87-.93.06-.9.1 1.71.1-3.67-.01-3.78-3.48-6.49-6.55-8.31z" fill="#e59600"/><path d="m54.51 111.97c-1.21-2.95-4.94.24-10.26 2.42-5.32 2.19-10.22 2.54-9 5.49.45 1.09 1.79 2.67 3.56 4.11h14.07c2.27-3.9 2.52-9.86 1.63-12.02z" fill="#c2185b"/><ellipse cx="44.84" cy="114.52" fill="#ec407a" rx="10.42" ry="4.17" transform="matrix(.925 -.38 .38 .925 -40.1555 25.6286)"/><ellipse cx="45.82" cy="115.31" fill="#d81b60" rx="4.01" ry="1.61" transform="matrix(.925 -.38 .38 .925 -40.3814 26.0602)"/><path d="m74.72 109.38c.27-1.35 0-2.33 0-2.33-1.54-2-6.45-1.94-11.45-2.1-4.69-.15-9.37-.74-11.2.82-.65.55-.42 1.99-.38 2.88.18 3.86 4.52 14.77 10.72 15.34h1.04c8.3-.67 10.51-10.9 11.27-14.61z" fill="#c2185b"/><path d="m63.44 124h-1.04c.11.01.22.03.33.03.24.01.48-.01.71-.03z" fill="#c2185b"/><ellipse cx="63.27" cy="107.06" fill="#ec407a" rx="4.12" ry="11.52" transform="matrix(.0313 -.9995 .9995 .0313 -45.7201 166.9425)"/><ellipse cx="63.28" cy="107.81" fill="#d81b60" rx="1.48" ry="4.14" transform="matrix(.0313 -.9995 .9995 .0313 -46.4618 167.6845)"/><path d="m92.17 119.89c1.21-2.95-3.68-3.31-9-5.49s-9.05-5.38-10.26-2.42c-.89 2.16-.64 8.12 1.64 12.03h14.07c1.77-1.46 3.1-3.04 3.55-4.12z" fill="#c2185b"/><ellipse cx="83.07" cy="114.64" fill="#ec407a" rx="5.51" ry="10.42" transform="matrix(.38 -.925 .925 .38 -54.5405 147.9133)"/><ellipse cx="83.07" cy="115.76" fill="#d81b60" rx="2.25" ry="4.25" transform="matrix(.38 -.925 .925 .38 -55.5709 148.604)"/><path d="m61.74 121c-2.37-4.36-9.38-5.13-9.38-5.13s-2.12 4.21-1.59 8.13h11.81c-.08-1.04-.32-2.07-.84-3z" fill="#2e7d32"/><path d="m49.62 122.43c-4.46-2.18-10.62 1.27-10.62 1.27s.02.11.06.31h12.65c-.59-.64-1.28-1.19-2.09-1.58z" fill="#43a047"/><path d="m77.07 118.89s-6.99.77-9.37 5.11h10.92c-.39-2.79-1.55-5.11-1.55-5.11z" fill="#2e7d32"/><path d="m73.12 116.56s-7.05-.25-10.02 3.73c-.82 1.1-1.23 2.4-1.42 3.71h12.04c.68-3.59-.6-7.44-.6-7.44z" fill="#43a047"/><path d="m79.29 122.8c-.64.31-1.19.73-1.7 1.2h12.24c-.71-.38-6.37-3.25-10.54-1.2z" fill="#43a047"/><path d="m91.33 50.43h-54.66c-5.89 0-10.71 5.14-10.71 11.41s4.82 11.41 10.71 11.41h54.65c5.89 0 10.71-5.14 10.71-11.41s-4.81-11.41-10.7-11.41z" fill="#e59600"/><path d="m64 11.07c-17.4 0-33.52 18.61-33.52 45.4 0 26.64 16.61 39.81 33.52 39.81s33.52-13.18 33.52-39.82c0-26.78-16.12-45.39-33.52-45.39z" fill="#ffca28"/><ellipse cx="47.56" cy="58.81" fill="#404040" rx="4.93" ry="5.1"/><ellipse cx="80.44" cy="58.81" fill="#404040" rx="4.93" ry="5.1"/><path d="m54.8 49.82c-.93-1.23-3.07-3.01-7.23-3.01s-6.31 1.79-7.23 3.01c-.41.54-.31 1.17-.02 1.55.26.35 1.04.68 1.9.39s2.54-1.16 5.35-1.18c2.81.02 4.49.89 5.35 1.18s1.64-.03 1.9-.39c.28-.38.39-1.01-.02-1.55z" fill="#6d4c41"/><path d="m87.67 49.82c-.93-1.23-3.07-3.01-7.23-3.01s-6.31 1.79-7.23 3.01c-.41.54-.31 1.17-.02 1.55.26.35 1.04.68 1.9.39s2.54-1.16 5.35-1.18c2.81.02 4.49.89 5.35 1.18s1.64-.03 1.9-.39c.28-.38.39-1.01-.02-1.55z" fill="#6d4c41"/><path d="m72.42 76.14c-3.18 1.89-13.63 1.89-16.81 0-1.83-1.09-3.7.58-2.94 2.24.75 1.63 6.44 5.42 11.37 5.42s10.55-3.79 11.3-5.42c.75-1.66-1.09-3.33-2.92-2.24z" fill="#795548"/><path d="m67.86 68.06c-.11-.04-.21-.07-.32-.08h-7.08c-.11.01-.22.04-.32.08-.64.26-.99.92-.69 1.63s1.71 2.69 4.55 2.69 4.25-1.99 4.55-2.69c.3-.71-.05-1.37-.69-1.63z" fill="#e59600"/><path d="m103.69 25.11c-2.44-3.69-7.91-8.64-12.82-8.97-.79-4.72-5.84-8.72-10.73-10.27-13.23-4.19-21.84.51-26.47 3.03-.96.52-7.17 3.97-11.51 1.5-2.72-1.55-2.67-5.74-2.67-5.74s-8.52 3.25-5.61 12.3c-2.93.12-6.77 1.36-8.8 5.47-2.42 4.9-1.56 8.99-.86 10.95-2.52 2.14-5.69 6.69-3.52 12.6 1.64 4.45 8.17 6.5 8.17 6.5-.46 8.01 1.03 12.94 1.82 14.93.14.35.63.32.72-.04.99-3.97 4.36-17.8 4.03-20.21 0 0 11.35-2.25 22.17-10.22 2.2-1.62 4.59-3 7.13-4.01 13.59-5.41 16.43 3.82 16.43 3.82s9.42-1.81 12.26 11.27c1.07 4.9 1.79 12.75 2.4 18.24.04.39.57.47.72.11.95-2.18 2.85-6.5 3.3-10.91.16-1.55 4.34-3.6 6.14-10.26 2.42-8.88-.54-17.42-2.3-20.09z" fill="#543930"/><path d="m99.83 55.5c.16-1.55 4.34-3.6 6.14-10.26.19-.71.35-1.43.5-2.15 1.46-8.09-1.16-15.52-2.79-17.98-2.26-3.41-7.1-7.89-11.69-8.81-.4-.05-.79-.1-1.16-.12 0 0 .33 2.15-.54 3.86-1.12 2.22-3.41 2.75-3.41 2.75 11.98 11.97 11.12 22 12.95 32.71z" fill="url(#m)"/><path d="m56.57 7.39c-1.1.53-2.06 1.06-2.9 1.51-.96.52-7.17 3.97-11.51 1.5-2.67-1.52-2.67-5.58-2.67-5.72-1.23 1.57-4.95 12.78 5.93 13.53 4.69.32 7.58-3.77 9.3-7.23.61-1.26 1.59-3.1 1.85-3.59z" fill="url(#n)"/><path d="m78.77 5.47c7.32 1.98 10.89 5.71 12.08 10.68.35 1.46.77 15.08-25.23-.4-9.67-5.76-7.03-9.36-5.9-9.77 4.43-1.6 10.85-2.73 19.05-.51z" fill="url(#o)"/><path d="m39.46 4.68c-.01.01-.03.01-.06.03 0 0 0 0-.01 0-.93.39-8.24 3.78-5.51 12.25l7.78 1.25c-6.89-6.98-2.17-13.55-2.17-13.55s-.02.01-.03.02z" fill="url(#p)"/><path d="m38.69 17.73-4.81-.77c-.19 0-.83.06-1.18.11-2.71.38-5.9 1.78-7.63 5.36-1.86 3.86-1.81 7.17-1.3 9.38.15.74.45 1.58.45 1.58s2.38-2.26 8.05-2.41z" fill="url(#q)"/><path d="m23.99 33.58c-2.37 2.1-5.56 6.79-3.21 12.61 1.77 4.39 8.09 6.29 8.09 6.29 0 .02 1.26.4 1.91.4l1.48-21.9c-3.03 0-5.94.91-7.82 2.22.02.03-.46.35-.45.38z" fill="url(#r)"/><path d="m62.99 20.02c-12.34.01-24.86 3.68-31.85 6.29-4.6 1.72-8.68 7.58-9.61 12.24-.01.03 18.73-10.12 41.6-10.53 22.88-.42 43.66 9.01 43.66 8.99-1-6-5.76-9.84-10.18-11.38-6.97-2.43-19.11-5.62-33.62-5.61z" fill="url(#s)"/></svg>