<svg enable-background="new 0 0 128 128" viewBox="0 0 128 128" xmlns="http://www.w3.org/2000/svg"><path d="m49.11 50.19c0-1.63.05-3.35.17-4.68.24-2.6 1.31-4.1 3.94-4.09 2.03 0 24.76.03 26.55 0 2.52-.04 3.22 2.38 3.37 3.55s.57 5.5.41 5.5c-.6 0-34.53-.32-34.44-.28z" fill="#b9a074"/><path d="m42.54 48.93s-1.17-2.26-2-2.76-20.79-1.97-26.3 6.48-6.74 23.85-7.25 30.64-.51 11.27-.51 11.27l67.49 2.94 46.72-2.69s-.44-20.95-.55-26.45c-.11-5.51-.25-14.65-2.89-16.95s-4.25-1.79-8.84-1.92-65.86-.56-65.86-.56z" fill="#f4daad"/><path d="m6.49 94.03 114.29.43s.4 15.15.4 16.56-.4 3.03-2.39 3.14-91.68.76-91.68.76l-20.17-.97s-2.33-.87-2.88-2.81.67-12.12.67-12.12l1.77-4.98z" fill="#ffb803"/><path d="m4.31 102.59c-.31 2.41-.69 7.87-.26 9.14.55 1.64 2.88 2.37 2.88 2.37l20.17.82s89.7-.55 91.68-.64c1.99-.09 2.39-1.46 2.39-2.65 0-.69-.13-5.24-.24-8.96 0 0-116.62-.08-116.62-.08z" fill="#ff6110"/><path d="m3.91 107.44c0 1.06-.12 3.33-.06 3.81.32 2.71 3.33 2.9 3.33 2.9l19.93.77s89.71-.38 91.69-.52c1.99-.15 2.38-1.33 2.38-3.22 0-.31-.04-2.61-.05-3.74z" fill="#464c4f"/><path d="m4 105.82s3.08.27 3.62-.6c1.02-1.66 1.81-10.07 1.01-10.94-.52-.56-2.3-.32-2.3-.32s-1.45 3.02-1.95 6.08c-.54 3.28-.37 5.77-.37 5.77z" fill="#f1edec"/><path d="m35.2 114.9s.5-5.53-1.57-9.59-6.99-6.98-12.12-7.05c-9.24-.12-12.83 6.7-13.5 10.38-.58 3.18-.18 5.54-.18 5.54s3.46.13 6.85.35c2.3.15 4.06.43 6.66.43 8.74 0 13.86-.06 13.86-.06z" fill="#84765f"/><path d="m83 114.66s-.33-5.26 1.23-8.42c2.17-4.37 6.32-7.84 12.7-7.84s10.54 3.59 12.03 6.22c2.56 4.52 2.15 9.88 2.15 9.88s-28.11.16-28.11.16z" fill="#84765f"/><path d="m9.65 112.84c.07 4.52 3.68 11.03 11.53 11.08s11.93-5.96 11.68-12.13-5.12-10.68-12.13-10.49c-6.56.19-11.18 5.27-11.08 11.54z" fill="#4e433d"/><path d="m15.12 112.46c.04 2.38 1.98 5.82 6.19 5.84s6.26-2.96 6.13-6.21-2.83-5.76-6.37-5.71c-3.52.05-6.01 2.78-5.95 6.08z" fill="#b2b1b2"/><path d="m85.67 112.92c.07 4.49 3.6 10.95 11.28 11s11.67-5.92 11.43-12.03c-.25-6.22-5.01-10.6-11.87-10.41-6.42.18-10.94 5.23-10.84 11.44z" fill="#4e433d"/><path d="m91.07 112.83c.04 2.38 1.98 5.82 6.19 5.84s6.26-2.96 6.13-6.21c-.14-3.3-2.83-5.76-6.37-5.71s-6.01 2.78-5.95 6.08z" fill="#b2b1b2"/><path d="m54.78 88.74s56.12.12 57.82 0 3.93-2.84 4.03-6.75-.42-20.37-.64-22.26-1.26-5.69-6.48-5.68c-4.14 0-84.94-.47-87.07-.47s-5.31 1.26-6.73 4.69-4.02 9.74-4.64 16.85-.59 10.27-.12 12.17.95 4.03 5.33 4.03h20.49l.25 23.51 17.74-.07v-26z" fill="#454c52"/><g fill="#8e7f66"><path d="m117.29 95.5-6.78-.04c-.68 0-1.24-.56-1.23-1.25 0-.68.56-1.23 1.24-1.23l6.78.04c.68 0 1.24.56 1.23 1.25 0 .68-.56 1.23-1.24 1.23z"/><path d="m117.21 99.96-6.78-.04c-.68 0-1.24-.56-1.23-1.25 0-.68.56-1.23 1.24-1.23l6.78.04c.68 0 1.24.56 1.23 1.25 0 .68-.56 1.23-1.24 1.23z"/><path d="m117.16 104.45-6.78-.04c-.68 0-1.24-.56-1.23-1.25 0-.68.56-1.23 1.24-1.23l6.78.04c.68 0 1.24.56 1.23 1.25 0 .68-.56 1.23-1.24 1.23z"/></g><path d="m36.5 59.51s-14.88 0-16.08.09-2.36 1.55-3.4 5.14c-1.09 3.77-3.03 9.94-2.57 18.85.09 1.65 1.65 2.11 2.94 2.11h19.2l-.09-26.2z" fill="#afe3fb"/><path d="m20.33 78.16-.28 11.57s4.87.92 5.7-.37.83-9.36.18-10.38c-1.29-2.02-5.6-.83-5.6-.83z" fill="#858585"/><g fill="#afe3fb"><path d="m39.99 61.23h11.76v45.87h-11.67s-.09-46.24-.09-45.87z"/><path d="m55.42 82.75v-23.05h27.63v22.96z"/><path d="m86.6 59.79v22.78h22.73c2.31 0 3.14-1.54 3.39-4.29.25-2.76-.04-13.18-.26-15.09-.25-2.11-1.47-3.17-3.64-3.28-2.27-.11-22.14-.21-22.22-.12z"/></g><path d="m119.89 94.05c.06-.49 3.02-.85 3.64.51s.75 10.43-.18 10.83-3.35.09-3.35.09-.18-10.88-.12-11.43z" fill="#ff2a23"/><g fill="#96c8ec"><path d="m27.27 85.71 3.92-15.51 5.36.03.05 15.48z"/><path d="m107.9 77.36h-21.3v5.21h22.73c2.31 0 3.14-1.54 3.39-4.29.18-1.97.08-7.87-.07-11.77 0 0-4.75 10.85-4.75 10.85z"/><path d="m55.42 77.36v5.39l27.63-.09v-5.3z"/></g></svg>