<svg enable-background="new 0 0 128 128" viewBox="0 0 128 128" xmlns="http://www.w3.org/2000/svg" xmlns:xlink="http://www.w3.org/1999/xlink"><linearGradient id="a" gradientUnits="userSpaceOnUse" x1="77" x2="120.07" y1="74.79" y2="94.11"><stop offset=".1093" stop-color="#ffbfd6" stop-opacity=".04"/><stop offset=".6002" stop-color="#ffbfd6"/></linearGradient><linearGradient id="b" gradientUnits="userSpaceOnUse" x1="75.83" x2="8.22" y1="24.65" y2="32.64"><stop offset=".1178" stop-color="#ffbfd6" stop-opacity=".04"/><stop offset=".5329" stop-color="#ffbfd6"/></linearGradient><path d="m117.99 47.08c-3.02 9.38-5.29 29.06-36.93 35.58l-24.61 30.85c64.67-2.57 65.79-47.27 64.49-66.05-.13-1.68-2.43-1.99-2.95-.38z" fill="url(#a)"/><path d="m77.1 12.12s-15.99-7.03-41.05 4.02c-15.9 7.01-23.19 20.3-24.93 31.72-.17 1.1.91 1.46 2.03 0 5.79-7.53 12.4-14.5 29.04-18.04 22.47-5.31 34.91 3.04 34.91 3.04z" fill="url(#b)"/><path d="m65.19 49.14c-15.05 0-20.58 15.38-20.58 15.38s-5.46-15.38-20.62-15.38c-11.39 0-24.38 9.03-19.58 29.55s40.23 46.09 40.23 46.09 35.31-25.57 40.11-46.09-7.26-29.55-19.56-29.55z" fill="#ef5592"/><path d="m21.66 50.67c11.82 0 17.69 12.7 19.58 17.85.27.73 1.29.76 1.6.04l1.73-4.04c-2.44-7.79-9.14-15.38-20.59-15.38-4.74 0-9.75 1.57-13.64 4.87 3.44-2.26 7.48-3.34 11.32-3.34z" fill="#da2e75"/><path d="m65.19 49.14c-3.64 0-6.71 1.06-9.29 2.65 1.81-.7 3.82-1.12 6.05-1.12 11.14 0 21.1 8.44 16.61 27.96-3.86 16.76-26.43 37.09-33.32 44.85-.44.49-.59 1.29-.59 1.29s35.31-25.57 40.11-46.09c4.79-20.51-8.18-29.54-19.57-29.54z" fill="#da2e75"/><path d="m12.31 60.04c2.58-3.22 7.18-5.87 11.08-2.81 2.11 1.65 1.19 5.05-.7 6.48-2.75 2.09-5.14 3.35-6.81 6.62-1.01 1.97-1.61 4.11-1.92 6.31-.12.86-1.26 1.08-1.68.32-2.9-5.15-3.72-12.23.03-16.92z" fill="#f386ab"/><path d="m53.62 66.8c-1.21 0-2.06-1.17-1.62-2.29.82-2.07 1.88-4.08 3.15-5.87 1.88-2.64 5.46-4.18 7.73-2.58 2.32 1.64 2.02 4.91.39 6.49-3.5 3.38-7.91 4.25-9.65 4.25z" fill="#f386ab"/><path d="m109.21 5.22c-11.23 0-15.36 11.48-15.36 11.48s-4.07-11.48-15.38-11.48c-8.5 0-18.2 6.74-14.61 22.05 3.58 15.31 30.03 34.4 30.03 34.4s26.35-19.08 29.93-34.39c3.58-15.32-5.42-22.06-14.61-22.06z" fill="#ef5592"/><path d="m76.73 6.37c8.82 0 13.2 9.48 14.61 13.32.2.55.97.57 1.2.03l1.29-3.02c-1.82-5.82-6.82-11.48-15.37-11.48-3.54 0-7.27 1.17-10.18 3.63 2.57-1.68 5.58-2.48 8.45-2.48z" fill="#da2e75"/><path d="m109.21 5.22c-2.71 0-5.01.79-6.94 1.98 1.35-.52 2.85-.83 4.51-.83 8.31 0 15.75 6.3 12.39 20.87-2.87 12.5-19.71 27.68-24.85 33.46-.33.37-.44.97-.44.97s26.35-19.08 29.93-34.39c3.59-15.32-6.1-22.06-14.6-22.06z" fill="#da2e75"/><g fill="#f386ab"><path d="m69.76 13.35c1.92-2.4 5.36-4.38 8.27-2.1 1.57 1.24.89 3.77-.52 4.84-2.05 1.56-3.84 2.5-5.08 4.94-.75 1.47-1.2 3.07-1.43 4.71-.09.65-.94.8-1.26.24-2.17-3.85-2.79-9.13.02-12.63z"/><path d="m100.58 18.4c-.9 0-1.54-.87-1.21-1.71.61-1.55 1.4-3.05 2.35-4.38 1.4-1.97 4.08-3.12 5.77-1.93 1.73 1.22 1.51 3.66.29 4.84-2.61 2.53-5.9 3.18-7.2 3.18z"/></g></svg>