<svg enable-background="new 0 0 128 128" viewBox="0 0 128 128" xmlns="http://www.w3.org/2000/svg"><path d="m19.16 48.94v-20.36l-1.64.1v-12.54l15.82-.1v12.35h-1.64v11.96z" fill="#ab5832"/><path d="m64.11 23.33-45.44 45.66.35 42.21 89.75-.85.13-45z" fill="#fff3e1"/><path d="m16.97 103.79 3.14-1.73v-34.08l-2.92 1.95c-.01 0 .32 33.86-.22 33.86z" fill="#5f4e47"/><path d="m107.2 69.82v32.03l3.14 1.73v-32.57z" fill="#5f4e47"/><path d="m64.42 28.21-47.24 44.21v-11.15l47.29-44.79 45.87 47.5v9.41z" fill="#bcaa93"/><path d="m12.55 59.36-2.77 5.11 7.43-.11s46.35-45.08 47.35-45.12c1.21-.05 45.76 45.91 45.76 45.91l6.59-.1-49.44-53.26-7.26-.48z" fill="#ab5832"/><path d="m4 63.19c-.78.95-.01 1.45.62 1.45s7.89-.21 7.89-.21l50.04-48.69s1.15-1.18 1.97-1.14c.89.04 2.04 1.17 2.04 1.17l50.28 49.29s5.73.02 6.64-.21c.99-.24.49-1.18-.73-2.49-.9-.97-51.73-51.25-52.57-52.12-2.5-2.58-3.72-4.08-6.08-3.98-2.37.1-3.77 1.85-6.14 4.03-.7.66-53.63 52.5-53.96 52.9z" fill="#ed6c31"/><g fill="#a6cfd5"><path d="m93.5 80.83h10.25v-8.53c0-1.59-1.29-2.87-2.87-2.87h-7.38z"/><path d="m90.42 80.83v-11.4h-8c-1.59 0-2.87 1.29-2.87 2.87v8.54h10.87z"/><path d="m90.42 84.07h-10.87v8c0 1.59 1.29 2.87 2.87 2.87h8z"/><path d="m93.5 84.07v10.87h7.38c1.59 0 2.87-1.29 2.87-2.87v-8z"/><path d="m36.75 80.83h10.25v-8.53c0-1.59-1.29-2.87-2.87-2.87h-7.38z"/><path d="m33.66 80.83v-11.4h-8c-1.59 0-2.87 1.29-2.87 2.87v8.54h10.87z"/><path d="m33.66 84.07h-10.86v8c0 1.59 1.29 2.87 2.87 2.87h8v-10.87z"/><path d="m36.75 84.07v10.87h7.38c1.59 0 2.87-1.29 2.87-2.87v-8z"/></g><path d="m50.34 106.73s-.15-24.74 0-30.99c.15-6.24 6.01-11.64 12.8-11.41 8.4.29 12.72 5.01 13.03 11.1s.31 31.68.31 31.68z" fill="#d27857"/><path d="m53.47 108.07s-.12-26.36 0-31.24c.15-6.05 4.71-9.23 10.01-8.93 6.17.35 9.22 3.63 9.46 8.4.24 4.76.24 31.79.24 31.79z" fill="#ab5932"/><path d="m69.99 86.58c-.02-4.34-.06-8.17-.12-9.34-.16-3.15-2.4-5.6-6.75-5.75-3.51-.12-6.4 2.62-6.48 5.85-.03 1.19-.02 4.93 0 9.19z" fill="#d27857"/><path d="m56.67 91.45c.04 5.81.09 11.16.09 11.16l13.27.04s0-5.33-.02-11.14z" fill="#d27857"/><path d="m70.03 88.81c-.05 1.41.52 2.55 2.19 2.55s2.28-.78 2.4-2.29c.1-1.35-.83-2.55-2.4-2.45-1.56.11-2.15 1.2-2.19 2.19z" fill="#ffba02"/><path d="m79.61 116.31s10.88.11 18.74-.12 13.55.12 14.72-1.06c1.17-1.17 1.15-11.14-4.3-13.84-5.01-2.48-8.25.04-9.97.21-2.27.23-5.08-1.18-7.14-1.22-8.51-.18-11.49 6.51-11.49 6.51z" fill="#728037"/><path d="m14.53 115.49c.91.85 7.86.88 16.25.82s15.14.02 15.14.02l1.4-8.47-1.7-1.41s.19-4.24-5.16-5.69c-3.7-1-6.92.65-10.03.7-3.11.06-5.98-1.35-9.44-.53-3.22.76-5.73 2.86-6.75 7.1-.71 2.94-.53 6.69.29 7.46z" fill="#728037"/><path d="m44.92 125.17.07-8.85h.65l-.01-9.86h34.73l-.12 9.86h.76v8.62c-.01-.01-36.08.28-36.08.23z" fill="#b0b0b0"/><path d="m80.99 121.3v3.63l-36.08.24.03-3.9z" fill="#9b9b9b"/><path d="m45.62 112.48 34.65.01v3.82h-34.65z" fill="#9b9b9b"/></svg>