<svg enable-background="new 0 0 128 128" viewBox="0 0 128 128" xmlns="http://www.w3.org/2000/svg" xmlns:xlink="http://www.w3.org/1999/xlink"><linearGradient id="a" gradientTransform="matrix(1 0 0 -1 0 128)" gradientUnits="userSpaceOnUse" x1="11.0013" x2="51.8944" y1="28.6827" y2="2.1438"><stop offset=".4876" stop-color="#ededed"/><stop offset=".6745" stop-color="#ddd"/><stop offset=".9642" stop-color="#bdbdbd"/></linearGradient><radialGradient id="b" cx="54.5738" cy="-2.8524" gradientTransform="matrix(1 0 0 -.786 0 128.6124)" gradientUnits="userSpaceOnUse" r="53.0528"><stop offset=".5572" stop-color="#fafafa" stop-opacity="0"/><stop offset=".6877" stop-color="#eaeaea" stop-opacity=".3206"/><stop offset=".941" stop-color="#c1c1c1" stop-opacity=".943"/><stop offset=".9642" stop-color="#bdbdbd"/></radialGradient><radialGradient id="c" cx="53.919" cy="80.4636" gradientTransform="matrix(1 0 0 -1.1282 0 138.3143)" gradientUnits="userSpaceOnUse" r="38.1639"><stop offset=".7945" stop-color="#554138" stop-opacity="0"/><stop offset="1" stop-color="#554138"/></radialGradient><radialGradient id="d" cx="54.6692" cy="115.1084" gradientTransform="matrix(1 0 0 -.455 0 65.2658)" gradientUnits="userSpaceOnUse" r="60.295"><stop offset=".3344" stop-color="#fafafa"/><stop offset=".5478" stop-color="#eaeaea"/><stop offset=".9621" stop-color="#c1c1c1"/><stop offset="1" stop-color="#bdbdbd"/></radialGradient><radialGradient id="e" cx="54.0041" cy="94.4212" gradientTransform="matrix(1 .0065 .0064 -.9763 -.604 125.4092)" gradientUnits="userSpaceOnUse" r="40.6534"><stop offset=".2884" stop-color="#f8f8f7"/><stop offset=".494" stop-color="#e8e8e7"/><stop offset=".8931" stop-color="#bfbfbf"/><stop offset="1" stop-color="#b3b3b3"/></radialGradient><linearGradient id="f"><stop offset="0" stop-color="#757575" stop-opacity="0"/><stop offset="1" stop-color="#757575" stop-opacity=".9"/></linearGradient><linearGradient id="g" gradientTransform="matrix(1 0 0 -1 0 128)" gradientUnits="userSpaceOnUse" x1="29.3735" x2="36.8735" xlink:href="#f" y1="118.9034" y2="97.4034"/><linearGradient id="h" gradientTransform="matrix(1 0 0 -1 0 128)" gradientUnits="userSpaceOnUse" x1="10.9991" x2="25.4991" xlink:href="#f" y1="110.2844" y2="95.1594"/><linearGradient id="i" gradientTransform="matrix(-1 0 0 -1 351.9712 128)" gradientUnits="userSpaceOnUse" x1="273.0456" x2="280.5456" xlink:href="#f" y1="118.9035" y2="97.4035"/><linearGradient id="j" gradientTransform="matrix(-1 0 0 -1 351.9712 128)" gradientUnits="userSpaceOnUse" x1="254.6712" x2="269.1712" xlink:href="#f" y1="110.2846" y2="95.1596"/><linearGradient id="k" gradientTransform="matrix(1 0 0 -1 0 128)" gradientUnits="userSpaceOnUse" x1="54.151" x2="54.151" xlink:href="#f" y1="120.616" y2="99.844"/><radialGradient id="l" cx="53.4352" cy="89.2428" gradientTransform="matrix(1 0 0 -.509 0 84.1818)" gradientUnits="userSpaceOnUse" r="66.065"><stop offset=".7518" stop-color="#fafafa" stop-opacity="0"/><stop offset=".8314" stop-color="#eaeaea" stop-opacity=".3206"/><stop offset=".9859" stop-color="#c1c1c1" stop-opacity=".943"/><stop offset="1" stop-color="#bdbdbd"/></radialGradient><linearGradient id="m" gradientTransform="matrix(1 0 0 -1 0 128)" gradientUnits="userSpaceOnUse" x1="106.9459" x2="102.6514" y1="74.5142" y2="28.8655"><stop offset=".1194" stop-color="#757575"/><stop offset=".2256" stop-color="#7a7a7a"/><stop offset=".3593" stop-color="#8a8a8a"/><stop offset=".4788" stop-color="#9e9e9e"/><stop offset=".488" stop-color="#969696"/><stop offset=".5244" stop-color="#7b7b7b"/><stop offset=".5662" stop-color="#656565"/><stop offset=".6151" stop-color="#545454"/><stop offset=".6756" stop-color="#494949"/><stop offset=".7604" stop-color="#424242"/><stop offset=".9959" stop-color="#404040"/></linearGradient><linearGradient id="n" gradientTransform="matrix(1 0 0 -1 0 128)" gradientUnits="userSpaceOnUse" x1="103.0118" x2="108.5103" y1="41.9796" y2="71.6714"><stop offset="0" stop-color="#212121"/><stop offset=".9959" stop-color="#404040"/></linearGradient><linearGradient id="o" gradientTransform="matrix(.9982 -.0594 -.0594 -.9982 -12.5668 150.8044)" gradientUnits="userSpaceOnUse" x1="122.228" x2="122.228" y1="77.0171" y2="67.4588"><stop offset="0" stop-color="#ffca28"/><stop offset=".3408" stop-color="#ffc825"/><stop offset=".6293" stop-color="#ffc21a"/><stop offset=".898" stop-color="#ffb809"/><stop offset="1" stop-color="#ffb300"/></linearGradient><radialGradient id="p" cx="34.1072" cy="138.8746" gradientTransform="matrix(-.0347 -.9994 -1.0566 .0367 235.3496 144.0109)" gradientUnits="userSpaceOnUse" r="19.8329"><stop offset=".3074" stop-color="#a56c43"/><stop offset="1" stop-color="#8d5738"/></radialGradient><linearGradient id="q"><stop offset="0" stop-color="#8d5738"/><stop offset="1" stop-color="#a56c43"/></linearGradient><radialGradient id="r" cx="113.9065" cy="15.1211" gradientTransform="matrix(.936 -.352 -.352 -.936 9.5204 164.3681)" gradientUnits="userSpaceOnUse" r="14.532" xlink:href="#q"/><radialGradient id="s" cx="108.5628" cy="26.5577" gradientTransform="matrix(1.0148 .1678 .1671 -.9861 -7.6601 110.5846)" gradientUnits="userSpaceOnUse" r="14.5173" xlink:href="#q"/><radialGradient id="t" cx="114.9103" cy="15.9743" gradientTransform="matrix(.9978 -.0658 -.0658 -.9978 .9104 134.6742)" gradientUnits="userSpaceOnUse" r="16.5179" xlink:href="#q"/><radialGradient id="u" cx="115.4625" cy="16.476" gradientTransform="matrix(.9971 .0764 .0764 -.9971 -2.4216 119.2554)" gradientUnits="userSpaceOnUse" r="15.7848" xlink:href="#q"/><radialGradient id="v" cx="113.9987" cy="16.1659" gradientTransform="matrix(.9746 -.2241 -.2241 -.9746 5.3693 151.5126)" gradientUnits="userSpaceOnUse" r="15.7904" xlink:href="#q"/><path d="m54.25 89.08h-9.08v7.02s7.99.92 7.99 11.14h2.7c.3-11.24 7.48-11.24 7.48-11.24v-6.91z" fill="#7a4c32"/><path d="m54.38 106.73c-.04.48-.08.86-.09.98l-2.74.8-12.97 3.78c-1.63.6-2.72 2.15-2.72 3.89v7.78h-30.23v-3.44c0-12.06 13.53-19.19 30.45-22.06v-3.73c0-.8.52-1.46 1.15-1.46l10.28 2.17c.74.17 1.45.44 2.11.83 2.32 1.34 4.08 3.97 4.5 7.75.03.31.17 1.72.26 2.71z" fill="url(#a)"/><path d="m103.13 120.52v3.44h-67.27v-7.78c0-1.74 1.09-3.29 2.72-3.89l15.71-4.58c.04-.36.3-3.23.36-3.69.41-3.78 2.17-6.42 4.5-7.75.66-.39 1.37-.67 2.11-.83l10.28-2.17c.63 0 1.14.66 1.14 1.46v3.39c17.09 3 30.45 10.78 30.45 22.4z" fill="#ededed"/><path d="m72.68 98.12v-3.39c0-.8-.51-1.46-1.14-1.46l-10.28 2.17c-.74.16-1.45.44-2.11.83-2.33 1.33-4.09 3.97-4.5 7.75-.06.46-.32 3.33-.36 3.69.01-.12.05-.5.09-.98-.09-.99-.23-2.4-.26-2.71-.42-3.78-2.18-6.41-4.5-7.75-.66-.39-1.37-.66-2.11-.83l-10.28-2.17c-.63 0-1.15.66-1.15 1.46v3.73c-16.92 2.87-30.45 10-30.45 22.06v3.44h30.23 67.27v-3.44c0-11.62-13.36-19.4-30.45-22.4z" fill="url(#b)"/><circle cx="44.56" cy="118.4" fill="#757575" r="2.27"/><circle cx="72.01" cy="118.4" fill="#757575" r="2.27"/><path d="m81.27 50.48h-7.37-39.91-7.37c-5.89 0-10.71 5.13-10.71 11.41s4.82 11.41 10.71 11.41h7.37 39.91 7.37c5.89 0 10.71-5.14 10.71-11.41s-4.82-11.41-10.71-11.41z" fill="#7a4c32"/><path d="m53.94 11.11c-17.4 0-33.52 18.61-33.52 45.4 0 26.64 16.61 39.81 33.52 39.81s33.52-13.17 33.52-39.81c0-26.79-16.11-45.4-33.52-45.4z" fill="#a56c43"/><path d="m62.47 76.19c-3.19 1.89-13.63 1.89-16.81 0-1.83-1.09-3.7.58-2.94 2.24.75 1.63 6.44 5.42 11.37 5.42s10.55-3.79 11.3-5.42c.76-1.67-1.09-3.33-2.92-2.24z" fill="#473530"/><g fill="#42312c"><path d="m30.78 50.73c3.18-4.54 10.66-4.67 14.43-.84.68.69 1.38 1.62.78 2.59-.64 1.03-1.72.74-2.63.37-2.41-.98-4.96-1.37-7.53-.81-1.12.24-2.11.78-3.2 1.09-1.41.4-2.66-1.11-1.85-2.4z"/><path d="m75.16 53.13c-2.29-1-4.58-1.52-7.1-1.21-1.06.13-2.1.41-3.1.81-.82.33-1.73.86-2.58.27-2.45-1.7 1.9-4.43 3.17-4.98 2.72-1.18 5.94-1.1 8.59.23 1.11.56 2.33 1.38 2.99 2.48.81 1.34-.4 3.04-1.97 2.4z"/><ellipse cx="38.37" cy="58.86" rx="4.93" ry="5.1"/><ellipse cx="69.52" cy="58.86" rx="4.93" ry="5.1"/></g><path d="m57.8 68.1c-.11-.04-.21-.07-.32-.08h-7.08c-.11.01-.22.04-.32.08-.64.26-.99.92-.69 1.63s1.71 2.69 4.55 2.69 4.25-1.99 4.55-2.69c.31-.7-.05-1.37-.69-1.63z" fill="#875334"/><path d="m53.98 6.77c-.01 0-.01 0-.02 0s-.01 0-.02 0c-46.03.25-36.6 48.83-36.6 48.83s2.07 5.42 3.01 7.82c.14.35.64.31.72-.06.98-4.4 4.52-19.99 6.31-24.73 1.05-2.79 3.95-4.42 6.88-3.88 4.51.82 11.7 1.83 19.63 1.83h.08s.06 0 .08 0c7.93 0 15.11-1.01 19.63-1.83 2.94-.53 5.83 1.09 6.89 3.88 1.78 4.72 5.29 20.22 6.28 24.68.08.36.58.4.72.05l3.02-7.77c0 .01 9.43-48.57-36.61-48.82z" fill="#3c2c23"/><path d="m90.54 55.59s9.43-48.58-36.61-48.83c-.01 0-.01 0-.02 0-.01 0-.01 0-.02 0-.72 0-1.42.02-2.1.05-1.37.06-2.69.16-3.97.32-.01 0-.03 0-.04 0-.09.01-.18.03-.27.04-38.74 4.88-30.22 48.42-30.22 48.42l3.02 7.78c.13.34.63.31.71-.05.99-4.44 4.52-19.97 6.3-24.69 1.05-2.79 3.95-4.42 6.89-3.88 4.51.82 11.7 1.83 19.63 1.83h.08s.06 0 .08 0c7.93 0 15.11-1.01 19.63-1.83 2.94-.53 5.83 1.09 6.89 3.88 1.79 4.74 5.32 20.36 6.3 24.74.08.36.57.4.71.05.93-2.38 3.01-7.83 3.01-7.83z" fill="url(#c)"/><path d="m94.88 14.46c-9.65-6.4-28.49-10.45-40.84-10.5-.04 0-.08 0-.12 0s-.08 0-.12 0v.01c-12.36.05-31.19 4.1-40.84 10.49-6.07 4.02-8.66 9.79-7.2 15.18 1.09 4.01 10.24 10.54 10.24 10.54 11.16 5.24 12.22-3.69 37.92-3.72 25.7.03 26.76 8.96 37.92 3.72 0 0 9.15-6.53 10.24-10.55 1.46-5.39-1.13-11.15-7.2-15.17z" fill="url(#d)"/><path d="m16.28 47.83-1.05-8.22s6.93-11.29 39.26-11.29 38.21 11.23 38.21 11.23l-1.16 7.78c-24.7-5.46-50.64-4.95-75.26.5z" fill="url(#e)"/><path d="m31.69 10.48s2.55 9.74 8.7 18.82c-11.35-.35-13.64-12.59-8.7-18.82z" fill="url(#g)"/><path d="m17.09 15.55c.54 5.17.1 10.5 9.44 16.93-12.67 3.82-17.92-8.1-9.44-16.93z" fill="url(#h)"/><path d="m76.61 10.48s-2.55 9.74-8.7 18.82c11.34-.35 13.64-12.59 8.7-18.82z" fill="url(#i)"/><path d="m91.21 15.55c-.54 5.17-.1 10.5-9.44 16.93 12.67 3.82 17.92-8.1 9.44-16.93z" fill="url(#j)"/><path d="m54.15 7.38c1.45 1.73 2.2 3.46 2.74 5.19.53 1.73.75 3.46.76 5.19 0 1.73-.22 3.46-.75 5.19-.54 1.73-1.29 3.46-2.75 5.19-1.46-1.73-2.21-3.46-2.75-5.19-.53-1.73-.75-3.46-.75-5.19.01-1.73.23-3.46.76-5.19.54-1.72 1.29-3.46 2.74-5.19z" fill="url(#k)"/><path d="m94.88 14.46c-9.65-6.4-28.49-10.45-40.84-10.5-.04 0-.08 0-.12 0s-.08 0-.12 0v.01c-12.36.05-31.19 4.1-40.84 10.49-6.07 4.02-8.66 9.79-7.2 15.18 1.09 4.01 10.24 10.54 10.24 10.54 11.16 5.24 12.22-3.69 37.92-3.72 25.7.03 26.76 8.96 37.92 3.72 0 0 9.15-6.53 10.24-10.55 1.46-5.39-1.13-11.15-7.2-15.17z" fill="url(#l)"/><path d="m106.68 53.57c-10.25-.82-19.23 6.82-20.05 17.07-.75 9.28 5.46 17.5 14.25 19.58l-1.25 9.78c.01 0 7.07.8 7.16.82l.81-10.23c8.54-1.11 15.44-8.05 16.15-16.97.83-10.25-6.82-19.22-17.07-20.05z" fill="url(#m)"/><circle cx="105.38" cy="73.26" fill="url(#n)" r="15.3"/><path d="m116.22 71.95c2.1 7.47-3.29 15.26-10.41 10.57s-13.41-3.51-11.15-10.2 4.04-12.57 9.29-11.38c5.25 1.18 10.17 3.54 12.27 11.01z" fill="#fff"/><circle cx="105.17" cy="71.77" fill="url(#o)" r="5.16"/><path d="m116.22 71.95c.99 2.92.9 6.35-.76 9.15-.81 1.39-2.13 2.57-3.75 3.06-1.62.5-3.37.2-4.85-.47-1.47-.79-2.65-1.63-4.03-2.32-1.35-.71-2.77-1.28-4.18-1.91-1.39-.64-2.93-1.23-3.99-2.54-.47-.69-.65-1.53-.59-2.32.04-.39.12-.78.2-1.16l.39-1.1-.24 1.13c-.04.38-.09.76-.09 1.14.02.75.26 1.47.71 2.02.98 1.07 2.47 1.59 3.9 2.13 1.45.53 2.9 1.1 4.32 1.78 1.4.67 2.77 1.61 4.03 2.26 1.32.61 2.79.86 4.16.47 1.37-.36 2.54-1.35 3.37-2.56.83-1.22 1.33-2.68 1.54-4.18.23-1.52.14-3.06-.14-4.58z" fill="#f7cb4d"/><path d="m99.29 101.57c0-.37 1.59-11.35 1.59-11.35l.21-.11c1.94-.97 4.24-.89 6.1.23l.4.24-.81 11.86z" fill="#757575"/><path d="m97.36 102.71c-1.08.18-2.14.45-3.13.9-1.42.64-8.25-1.36-8.67 5.22-.04 1.82-.21 7.54 1.33 10.34 3.22 5.86 15.29 4.41 16.21 4.56 5.76.9 3.18-17.62-.07-19.98-.41-.26-1.07-.6-1.64-.91-1.14-.61-2.91-.31-4.03-.13z" fill="url(#p)"/><path d="m105.44 119.79-6.5-.14c-.83-.04-1.52.52-1.66 1.29-.16.84.46 1.64 1.35 1.81l6.43.96c1.03.18 2.01-.5 2.12-1.5l.06-.51c.08-1.02-.73-1.9-1.8-1.91z" fill="url(#r)"/><path d="m85.61 113.27s1.31.91 3.32 1.71c6.1 2.42 6.84-5.05 6.99-6.21.74-5.93 5.99-4.61 10.44-4.91.93-.06 4.08-.54 4.94-2.63.89-3.47-2.66-3.42-10.16-3.87-2.04-.12-4.08-.09-6.11.19-9.68 1.36-9.75 11.27-9.42 15.72z" fill="url(#s)"/><path d="m107.46 109.23-9.31.79c-1.25.09-1.27 1.04-1.33 2.23-.09 1.29.06 2.39 1.42 2.48l9.35.44c1.58.08 2.92-1.12 2.9-2.63l-.01-.77c-.04-1.55-1.42-2.71-3.02-2.54z" fill="url(#t)"/><path d="m107.33 103.75-7.99 1.12c-1.19.15-2.04 1.12-2.04 2.25-.02 1.24 1.06 2.23 2.36 2.24l8.09.06c1.51 0 2.74-1.21 2.64-2.66l-.05-.74c-.11-1.48-1.48-2.52-3.01-2.27z" fill="url(#u)"/><path d="m106.61 114.88-7.37.41c-1.1.04-1.95.85-2.05 1.89-.12 1.12.78 2.11 1.97 2.23l7.37.68c1.38.12 2.59-.88 2.63-2.21l.02-.68c0-1.36-1.16-2.42-2.57-2.32z" fill="url(#v)"/><path d="m107.78 115.16c.11-1.04-8.25.03-9.27-.83-1.17-.98-1.05-2.88.4-3.54 1.62-.73 9.51-1.02 9.51-1.46-.01-.82-10.3 1.6-10.37-2.1-.04-2.29 2.38-2.28 4-2.57.96-.18 5.22-.5 5.22-.8s-1.05-.2-1.16-.21c-.78-.07-5.74.31-7.07.63-2.21.52-2.74 1.76-2.79 2.72-.06 1.12-.35 2.61-.71 3.67-.76 2.26-3.52 4.36-3.61 4.66-.09.33 1.75-.6 2.9-1.82.68-.72 1.62-.38 1.84.58.14.59.24 1.13.24 1.38-.01.52-.04 3.6-.21 4.66-.07.41-.1.73.03 1.18.09.33.25.64.46.92.94 1.24 2.62 1.35 4 1.41.83.04 4.14.4 4.91-.04-1.83-.02-8.3.14-8.03-2.37.18-1.4 1.46-1.01 2.42-.93 1.08.09 3.09.13 4.17.01.3-.03 1.88 0 1.88-.23 0-.34-3.32-.38-3.69-.39-1.34-.04-4.15.18-4.77-1.41-.23-.58-.14-1.31.25-1.81.92-1.2 9.4-.78 9.45-1.31z" fill="#875334"/></svg>