<svg enable-background="new 0 0 128 128" viewBox="0 0 128 128" xmlns="http://www.w3.org/2000/svg"><path d="m24.05 78.61-15.9 6.45s6.17 19.86 23.83 30.49c13.23 7.96 35.27 12.5 57.23 3.7 21.44-8.59 31.12-26.82 33.44-42.05 4.71-30.97-9.38-47.14-9.38-47.14l-10 26.95-14.06 45.27-32.92 9.77-32.23-33.44z" fill="#5e5e5e"/><path d="m63.83 120.79c-11.86 0-26.38-3.46-38.06-12.86-12.82-10.3-20.82-23.38-21.43-41.15-.64-18.55 5.61-34.61 19.55-47.5 8.04-7.43 23.4-16.01 42.01-15.09 14.99.75 30.17 3.73 45.61 23.32 17.9 22.71 9.26 59.5-2.57 73.56-9.42 11.19-25.54 19.72-45.09 19.72zm1.44-92.16c-9.6 0-18.5 4.24-23.27 8.64-8.22 7.59-12.53 17.78-12.16 28.69.36 10.43 5.03 20.24 12.48 26.23 18.74 15.06 40.72 4.31 48.33-4.79 6.92-8.27 13.77-30.57-.83-47.07-6.45-7.29-14.17-11.21-22.94-11.65-.54-.03-1.08-.04-1.61-.04z" fill="#464646"/><path d="m27.64 73.29 27.51 21.48 23.57-1.41 16.27-17.3 4.14-25.76s6.98 13.45 2.73 28.28c-2.75 9.59-10.95 21.38-25.84 25.93-14.7 4.49-28.7.99-38.58-8.9-9.05-9.07-9.8-22.32-9.8-22.32z" fill="#2f2f2f"/><path d="m63.34 101.9c-7.34 0-15.09-2.29-22.33-8.11-7.94-6.38-12.91-16.77-13.29-27.77-.4-11.49 4.14-22.21 12.77-30.19 4.98-4.6 14.91-9.76 26.44-9.19 9.28.47 17.75 4.74 24.49 12.36 15.42 17.42 8.17 40.98.86 49.72-5.81 6.95-16.83 13.2-28.94 13.2zm1.68-65.74c-7.57 0-14.6 3.34-18.36 6.82-6.48 5.99-9.89 14.03-9.59 22.63.28 8.23 3.96 15.97 9.85 20.69 14.78 11.88 32.13 3.4 38.14-3.78 5.46-6.53 10.86-24.12-.66-37.14-5.09-5.75-11.18-8.84-18.1-9.19-.43-.02-.85-.03-1.27-.03z" fill="#676c70"/><g fill="#858585"><path d="m32.42 78.07 21.6-6.16-1.61-5.09-23.03 4.11z"/><path d="m67.86 77.25-.27 22.42-6.16-.36 1.78-22.05z"/><path d="m73.66 74.05 17.05 13.84 2.77-3.66-18.66-14.82z"/><path d="m73.17 58.34 3.57 2.41 18.12-11.51-3.92-6.97z"/><path d="m50.18 32.45-8.56 4.73 12.4 17.23 6.07-4.02z"/></g><g fill="#b0b0b0"><path d="m45.18 33.26 12.51 19.25 6.69-2.83-4.47-21.6z"/><path d="m29.29 61.11 1.52 13.48 20.18-5.18-.18-7.74z"/><path d="m57.23 76.46-6.26 19.68.82 2.37 11.96 1.78.89-22.22z"/><path d="m75.62 71.28 17.23 13.48 5.45-13.03-21.07-6.25z"/><path d="m75.62 57.54 18.93-12.41-9.37-9.74-14.09 18.06z"/><path d="m63.32 102.88c-7.53 0-15.48-2.35-22.91-8.32-8.15-6.55-13.25-17.2-13.64-28.49-.41-11.79 4.25-22.79 13.1-30.97 5.11-4.72 15.3-10.01 27.12-9.43 9.52.48 18.21 4.86 25.13 12.68 15.81 17.87 8.38 42.04.88 51-5.96 7.13-17.26 13.54-29.69 13.54zm1.91-73.05c-9.28 0-17.88 4.1-22.49 8.35-7.94 7.34-12.12 17.19-11.75 27.73.35 10.08 4.86 19.56 12.06 25.35 18.11 14.55 39.37 4.16 46.72-4.63 6.68-8 13.31-29.55-.81-45.5-6.23-7.05-13.7-10.83-22.18-11.26-.52-.03-1.04-.04-1.55-.04z"/><path d="m57.25 51.52c-6.8 2.74-9.5 13.2-5.79 20.31 3.7 7.1 14 9.75 20.31 5.38 6.91-4.77 8.53-14.12 4.88-20.21-3.51-5.86-11.85-8.53-19.4-5.48z"/></g><path d="m63.71 60.01c-2.9.13-4.53 1.91-4.47 4.47.06 2.38 2.03 4.23 4.52 4.23s4.29-1.8 4.35-4.29-1.8-4.52-4.4-4.41z" fill="#464c4f"/><g fill="#5e6367"><path d="m65.94 53.75c-1.53 0-2.76 1.23-2.7 2.7s1.45 2.64 2.67 2.64 2.73-1.1 2.73-2.51-1.04-2.82-2.7-2.82z"/><path d="m72.17 61.29c-1.68 0-2.61 1.57-2.55 2.73s1.04 2.61 2.67 2.55 2.55-1.45 2.61-2.73-1.22-2.55-2.73-2.55z"/><path d="m68.4 69.99c-1.74-.06-2.74 1.28-2.78 2.67-.06 1.8 1.62 2.73 2.84 2.73s2.61-.87 2.61-2.44-.87-2.9-2.67-2.96z"/><path d="m57.67 68.13c-1.62.06-2.49 1.39-2.44 2.78.05 1.22.99 2.61 2.61 2.61s2.61-1.28 2.61-2.78-1.22-2.67-2.78-2.61z"/><path d="m56.46 57.46c-1.74.06-2.62 1.39-2.67 2.73-.06 1.62 1.33 2.84 2.78 2.84s2.67-1.16 2.67-2.67-.81-2.97-2.78-2.9z"/></g><g fill="#e0e0e0"><path d="m51.11 71.57c-.07-.12-6.3-11.67 4.43-19.36 11.12-7.97 19.45 2.29 19.54 2.4.34.42.63 1.19.21 1.53s-1.03.28-1.38-.14c-.3-.37-7.62-9.09-17.23-2.2-9.33 6.69-3.97 17.19-3.73 17.64.25.48.11 1.19-.41 1.32-.83.2-1.25-.85-1.43-1.19z"/><path d="m57.17 52.66c-.32 0-.64-.16-.83-.45l-10.83-17.04c-.29-.46-.16-1.06.3-1.35s1.06-.16 1.35.3l10.83 17.04c.29.46.16 1.06-.3 1.35-.16.1-.34.15-.52.15z"/><path d="m71.69 53.66c-.21 0-.42-.07-.6-.21-.43-.33-.5-.95-.17-1.37l12.88-16.51c.33-.43.95-.5 1.37-.17.43.33.5.95.17 1.37l-12.88 16.51c-.19.25-.48.38-.77.38z"/><path d="m49.83 62.64-18.3-.2c-.54 0-.97-.45-.97-.99s.44-.97.98-.97h.01l18.29.2c.54 0 .97.45.97.99s-.44.97-.98.97z"/><path d="m51.29 96.19c-.11 0-.21-.02-.32-.05-.51-.18-.78-.73-.61-1.24l6.06-17.9c.64.41 1.83.9 1.84.87l-6.04 17.66c-.14.41-.52.66-.93.66z"/></g><path d="m83.85 94.21c-.31 0-.61-.15-.8-.42-.31-.44-.2-1.05.24-1.36.05-.03 4.66-3.13 7.58-7.2 2.82-3.94 4.96-9.41 4.98-9.46.2-.5.77-.74 1.27-.55.5.2.75.77.55 1.27-.09.22-2.14 5.66-5.27 9.95-3.12 4.28-7.79 7.45-7.99 7.59-.17.12-.37.18-.56.18z" fill="#fff"/><path d="m29.33 75.1c-.4 0-.77-.24-.92-.63-.08-.2-7.51-20.65 9.23-37.5 17.11-17.22 37.1-9.63 37.3-9.55.5.2.75.77.55 1.27s-.76.75-1.27.55c-.05-.02-4.81-1.84-11.5-1.63-8.94.29-16.91 3.91-23.7 10.73-15.86 15.96-8.86 35.23-8.79 35.43.19.51-.07 1.07-.57 1.26-.11.04-.23.06-.33.07z" fill="#fff"/><g fill="#707070"><path d="m41.31 24.43c-20.62 11.57-27.03 35.62-19.86 56.5 1.78 5.18 2.18 8.97-1.28 10.76s-7.08-2.98-8.07-5.38c-9.22-22.42-3.86-56.26 26.52-72.39 29.21-15.5 62.4.49 71.41 21.32 2.49 5.74.31 8.33-1.19 9.05-4.76 2.27-6.65-3.41-7.96-5.39-15.3-23.16-40.17-25.34-59.57-14.47z"/><path d="m109.16 48.63c-3.8 1.11-4.95 5.69-3.48 9.7 1.47 4.02 4.62 4.55 7.23 3.61s3.81-3.48 3.21-7.7-3.75-6.56-6.96-5.61z"/></g></svg>