<svg enable-background="new 0 0 128 128" viewBox="0 0 128 128" xmlns="http://www.w3.org/2000/svg"><path d="m93.3 23.6c-6.6 1.3-14.5 7.6-20.6-.6-2.8-3.8-5.6-8.3-9.6-11.7-7.7-6.8-13.9-8.3-24.4-8.2-20.6.3-20.7 20.3-10.5 24.4l-.9 76.6s-6.6 2.3-5.7 7.6c.5 2.7 1.2 6.7 1.6 8 2.1 8.3 23.5 4.5 26.7.4 3.4-4.4 56.8-71.5 59.2-74.6 6.3-7.8-.1-24.9-15.8-21.9zm.3 16.8c-1.5 1.6-48.2 45.9-51.7 49.2-.1.1-.2 0-.2-.1l-.3-62.9c.6-.2 1.3-.5 1.9-.9 1.1-.7 5.8-.1 8.3 2 2.8 2.4 10.9 9 12.9 10.6 4.9 3.8 14.2 4.5 21.9 1.7 1.7-.6 6.4-2.3 6.4-2.3 1-.5 2.2 1.3.8 2.7z" fill="#f4ae3b"/><path d="m94.63 43.23c-.52.04-1.12.26-1.53.67-1.1 1.2-53.7 53.3-53.7 53.3l2.2 4.6s52.7-56 53.8-57.4c.75-.81.09-1.23-.77-1.17z" fill="#df7f14"/><path d="m44.2 3.4c-5 0-10.2 1.8-13.3 5.2-4.6 5.3-4.8 14.7 3.1 18.1 0 0-.5 76.8-.5 79 0 2.4-3.6 2.1-4.5 1.4-1.2-.8-2 .6-1.1 1.5 4.7 4.3 14 .6 13.9-3.4l-.1-15.4s-.3-61.1-.3-63.2c.6-.2 1.3-.5 1.9-.9 1.1-.7 5.8-.1 8.3 2 2.8 2.4 10.9 9 12.9 10.6 4.39 3.4 12.3 4.31 19.44 2.45 2.72-.9 5.62-1.93 8.86-3.15 3.1-1.2 5-1.4 6.6.6 1.2 1.5.9 3.7-.7 5.6-1.1 1.3-54.8 66.8-56.1 68.4-2 2.6-16.7 6.4-21-.9-.01-.02-.03-.04-.04-.06.01.15.01.3.04.46.5 2.7 1.2 6.7 1.6 8 2.1 8.3 23.5 4.5 26.7.4 3.4-4.4 56.8-71.5 59.2-74.6 4.52-5.59 2.5-15.96-4.78-20.28-.47-.24-.92-.48-1.42-.72-7.5-3.6-14.7 6.3-24.9 2.6-1.13-.42-2.09-.99-2.93-1.67-.27-.21-.53-.44-.78-.68-.54-.5-1.07-1.05-1.59-1.75-2.8-3.8-5.6-8.3-9.6-11.7-5.64-4.98-10.5-7.11-16.81-7.85-.68-.03-1.37-.05-2.09-.05z" fill="#ac5810"/><path d="m47.42 16.75c-.43-.01-.87.01-1.32.05 2.1 7.9-4.7 9.6-4.7 9.6s.17.13.18.13c.56-.2 1.18-.47 1.72-.83 1.1-.7 5.8-.1 8.3 2 2.8 2.4 10.9 9 12.9 10.6 4.39 3.41 12.32 4.31 19.46 2.45 5.03-1.92 9.86-3.72 11.74-4.15 3.8-.9 2.1-5-.8-4.3-3 .8-9.2 3.1-13.2 3.8-19.18 3.29-21-19.13-34.28-19.35z" fill="#b78759"/><path d="m49 89.7v-77.4c0-.9 2-.9 2 0v77.4c0 .8-2 .8-2 0zm10.4-8.6v-65.1c0-.9-2-.9-2 0v65.1c0 .9 2 .8 2 0zm7.4-7.6v-48.9c0-.9-2-.9-2 0v48.9c.1.8 2 .8 2 0zm7.7-8.1v-34.6c0-.9-2-.9-2 0v34.6c0 .8 2 .8 2 0zm8.2-8.3v-23.8c0-.9-2-.9-2 0v23.9c0 .8 2 .7 2-.1zm7.9-8.4v-17.3c0-.9-2-.9-2 0v17.3c0 .8 2 .8 2 0z" fill="#6ca4ae"/><g fill="#464c50"><circle cx="50" cy="11.1" r="2.5"/><circle cx="58.4" cy="15.3" r="2.4"/><circle cx="65.9" cy="23.4" r="2.4"/><circle cx="73.5" cy="30.1" r="2.2"/><circle cx="81.7" cy="32.2" r="2.1"/><circle cx="89.6" cy="30.7" r="2.1"/></g></svg>