<svg enable-background="new 0 0 128 128" viewBox="0 0 128 128" xmlns="http://www.w3.org/2000/svg"><path d="m22.46 58.56-18.81 7.22s.36 56.07.29 56.86.21 1.5 1.07 1.57 116.72 0 117.81 0 1.41-.58 1.41-1.41 0-56.69 0-56.69l-58.37-9.37z" fill="#f7b03c"/><path d="m7.08 60.8v60.53h24.13v-60.43z" fill="#f9dfb1"/><path d="m97.26 62.36v58.29h23.74v-59.36z" fill="#f9dfb1"/><path d="m10.41 89.36v19.6c0 .51.05 1.32 1.01 1.32s15.24 0 15.74 0 .96-.46.96-1.42 0-19.55 0-19.55z" fill="#6ba4ae"/><path d="m18.15 90.61v19.67h2.08v-20.58z" fill="#a7d0d6"/><path d="m10.36 82.49c-.81-.05-1.21.71-1.42 1.47s-2.08 7.29-2.18 8.45c-.09 1.02.4 1.11 2.18 1.06 1.77-.05 20.7.15 21.72.1.92-.05 1.57-.3 1.06-2.33-.31-1.23-1.77-6.38-2.02-7.24-.28-.97-.56-1.52-1.32-1.52-.66.01-17.21.06-18.02.01z" fill="#024fac"/><path d="m100.48 90.04s-.11 18.8-.11 19.42.11 1.3 1.19 1.42c1.08.11 15.4.23 15.97.23s.74-.85.74-1.64.06-20.21.06-20.21z" fill="#6ba4ae"/><path d="m108.47 88.58-.06 22.41h2.61v-22.12z" fill="#a7d0d6"/><path d="m100.83 82.3c-.81-.05-1.21.71-1.42 1.47s-2.33 6.99-2.43 8.15c-.09 1.02.66 1.14 2.43 1.19 1.93.06 20.19.09 21.2.04.92-.05 1.21-.76.6-2.76-.41-1.33-2.24-5.76-2.49-6.63-.28-.97-.56-1.52-1.32-1.52-.66.01-15.76.11-16.57.06z" fill="#024fac"/><path d="m36.28 53.27-.45 67.63 56.74-.11.78-68.3-26.93-25.81z" fill="#f9dfb1"/><g fill="#866054"><path d="m35.67 119.5v4.69h56.91l.07-4.53z"/><path d="m36.09 75.54v5.9l56.94.07v-5.61z"/><path d="m3.65 65.78h32.59v-10.03l28.33-25.44 28.74 25.39-.1 10.75 31.02-.33s-3.01-8.35-3.01-8.96-.31-1.3-2.68-1.38-24.19 0-24.19 0 5.43-4.74 5.36-5.05c-.08-.31-30.93-27.89-31.46-28.35-.54-.46-2-2.07-3.39-2.07-1.15 0-2.74 1.54-3.81 2.53s-31.84 28.49-30.45 27.24c.17-.15 4.47 5.16 4.47 5.16s-26.87-.31-27.18-.15c-.3.15-4.24 10.69-4.24 10.69z"/></g><path d="m53.52 124.29s.23-39.04.23-39.59c0-.56.15-1.04.77-1.04s19.76.08 20.22.08.61.48.61 1.12-.08 39.27-.08 39.27z" fill="#395661"/><path d="m56.97 87-.23 30.32h15.32l-.08-30.32z" fill="#6ba4ae"/><path d="m68.75 104.12c-.3 0-.44.91-.48 1.87s.22 1.83.35 1.83 5.31 0 5.48 0 .39-.91.39-1.7c0-1.26-.44-1.96-.57-1.96s-5.17-.04-5.17-.04z" fill="#e0a614"/><path d="m49.22 56.39s-.07-2.37-.84-2.51c-.72-.14-3.46 2.11-3.29 2.82.18.71 2.37 1.12 2.37 1.12z" fill="#e2a613"/><path d="m85.57 63.79-4.27-1.39-6.76.97s.42-1.36.62-2.44c.37-2.06 0-3.8 0-3.8s-3.47-8.08-10.48-8.21-9.04 5.9-9.04 5.9l-.79 6.98s-1.96-1.69-2.48-2.25c-.53-.55-3.17-3.63-3.17-3.63l-2.24 1.78s2.6 4.42 7.1 8.67c6.51 6.16 11.97 5.2 15.69 4.67 5.16-.74 12.28-5.64 12.28-5.64s.84-.03 3.04-.25c2.24-.23 2.61-.81 2.61-.81zm-20.44 2.92c-7.1.87-6.77-3.8-6.77-3.8s-1.01-2.08-.97-4.32c.02-1.26.41-2.95 1.56-4.34 1.07-1.31 2.74-2.36 5.28-2.36 5.66 0 7.14 4.46 7.1 7.51-.05 3.59-2.83 6.9-6.2 7.31z" fill="#9e730a"/><path d="m74.71 59.4c-.71.04-1.21-1.09-2.02-3.1-1.06-2.6-3.89-5.56-7.56-5.9-1.92-.18-4.62.37-6.28 2.06-2.51 2.57-2.7 6.12-1.32 8.96 1.37 2.84 3.47 4.97 6.98 4.95 5.91-.03 11.6-4.67 12.18-6.81.58-2.15.78-6.23 1.61-6.89s4.05-.08 7.18 4.58 2.87 6.53 2.2 7.09-5.5-.44-6.86-.19-8.3 6.36-16.39 5.74c-3.03-.23-5.5-1.22-7.43-2.97-2.96-2.69-4.71-7.68-3.01-12.22 3.24-8.68 13.39-8.4 17.55-4.62 2.77 2.52 3.14 4.58 3.47 6.11.23 1.1.4 3.17-.3 3.21z" fill="#e2a613"/><path d="m79.54 54.24c-.2.03.29 3.1 2.31 5.49 1.88 2.23 4.34 3.43 4.62 3.3.29-.12-.33-2.48-2.39-5.24-2.19-2.93-4.29-3.59-4.54-3.55z" fill="#9e730a"/><path d="m61.54 65.72c-.12.12-.08 5.74.17 5.82s6.32.12 6.48.04c.17-.08.25-5.86.21-5.99-.05-.12-6.86.13-6.86.13z" fill="#f83c30"/></svg>