<svg enable-background="new 0 0 128 128" viewBox="0 0 128 128" xmlns="http://www.w3.org/2000/svg"><path d="m116.46 3.96h-104c-4.42 0-8 3.58-8 8v104c0 4.42 3.58 8 8 8h104c4.42 0 8-3.58 8-8v-104c0-4.42-3.58-8-8-8z" fill="#427687"/><path d="m122.16 6.26c-1.54-1.46-3.58-2.28-5.7-2.3h-104c-4.42 0-8 3.58-8 8v104c.02 2.12.84 4.16 2.3 5.7l16.8-16.8h76c3.26-.01 5.89-2.64 5.9-5.9v-76z" fill="#8cafbf"/><path d="m80.86 73.26h4.9c1.05 0 1.9.85 1.9 1.9v5.5c0 1.05-.85 1.9-1.9 1.9h-4.9c-1.05 0-1.9.85-1.9 1.9v11.6c0 1.05-.85 1.9-1.9 1.9h-7.8c-1.05 0-1.9-.85-1.9-1.9v-11.7c0-1.05-.85-1.9-1.9-1.9h-26.1c-.99-.04-1.8-.81-1.9-1.8l-.2-4.6c-.01-.39.1-.77.3-1.1l28.9-45.3c.34-.56.95-.9 1.6-.9h9c1.05 0 1.9.85 1.9 1.9v40.7c.05 1.03.87 1.85 1.9 1.9zm-28.1 0h12.8c1.05 0 1.9-.85 1.9-1.9v-27l-.9 1.5-15.4 24.5c-.53.93-.21 2.12.72 2.65.27.15.57.24.88.25z" fill="#fafafa"/><path d="m40.16 12.86c0-2.3-1.6-3-10.8-2.7-7.7.3-11.5 1.2-13.8 4s-2.9 8.5-3 15.3c0 4.8 0 9.3 2.5 9.3 3.4 0 3.4-7.9 6.2-12.3 5.4-8.7 18.9-10.6 18.9-13.6z" fill="#b4e1ed" opacity=".5"/></svg>