<svg enable-background="new 0 0 128 128" viewBox="0 0 128 128" xmlns="http://www.w3.org/2000/svg"><path d="m39.92 75.22s.47 6.72.28 10.14c-.2 3.42-.61 6.28-.61 6.28l3.2 25.85.17 2.7s5.63 3.25 17.33 3.25c17.54 0 25.28-2.78 27.9-8.35 2.11-4.51-1.57-14.73-2.32-18.25-2.47-11.6-1.04-19.98-1.04-19.98z" fill="#c4a878"/><path d="m34.91 112.88c1.23 5.47 8.67 7.59 8.67 7.59s10.83.61 17.69-.32c7.04-.96 12.84-2.62 13.44-6.72s.44-6.86.16-11.2c-.12-1.92-.32-7.2-.32-7.2s-7.99.41-18.67-.44c-10.52-.84-16.22-3.34-16.22-3.34s-1.51 6.93-2.57 9.71c-1.07 2.77-3.41 6.45-2.18 11.92z" fill="#e8d4af"/><path d="m62.66 3.98c-39.18-.05-56.77 26.4-56.09 52.78.61 23.71 36.82 26.65 54.89 26.91 26.97.39 59.19-5.08 59.81-27.59.71-26.16-18.3-52.06-58.61-52.1z" fill="#a05a2c"/><ellipse cx="47.96" cy="2.74" fill="#deaa87" rx="12.75" ry="18.71" stroke-linecap="round" stroke-linejoin="round" stroke-width="4" transform="matrix(.7873 .6165 -.6165 .7873 0 0)"/></svg>