<svg enable-background="new 0 0 128 128" viewBox="0 0 128 128" xmlns="http://www.w3.org/2000/svg"><path d="m22.75 20.03h82.2c1.6 0 2.9 1.3 2.9 2.9v82.2c0 1.6-1.3 2.9-2.9 2.9h-82.2c-1.6 0-2.9-1.3-2.9-2.9v-82.1c-.08-1.58 1.14-2.92 2.72-3z" fill="#bdbdbd"/><path d="m22.65 20.03h74.9c1.53.03 2.77 1.27 2.8 2.8v74.9c-.03 1.53-1.27 2.77-2.8 2.8h-74.9c-1.53-.03-2.77-1.27-2.8-2.8v-74.8c-.04-1.56 1.18-2.85 2.74-2.9z" fill="#e0e0e0"/><path d="m44.25 27.33c0-1.5-1-1.9-6.9-1.7-4.9.2-7.3.8-8.8 2.6s-1.9 5.4-1.9 9.8c0 3.1 0 5.9 1.6 5.9 2.2 0 2.2-5 4-7.9 3.3-5.5 12-6.7 12-8.7z" fill="#fff"/></svg>