<svg enable-background="new 0 0 128 128" viewBox="0 0 128 128" xmlns="http://www.w3.org/2000/svg"><path d="m116.46 4h-104c-4.42 0-8 3.58-8 8v104c0 4.42 3.58 8 8 8h104c4.42 0 8-3.58 8-8v-104c0-4.42-3.58-8-8-8z" fill="#f77e00"/><path d="m110.16 4h-98.2c-4.13.03-7.47 3.37-7.5 7.5v97.9c-.01 4.14 3.34 7.49 7.48 7.5h.02 98.1c4.14.01 7.49-3.34 7.5-7.48 0-.01 0-.01 0-.02v-97.9c.09-4.05-3.13-7.41-7.18-7.5-.07 0-.15 0-.22 0z" fill="#ff9800"/><path d="m40.16 12.9c0-2.3-1.6-3-10.8-2.7-7.7.3-11.5 1.2-13.8 4s-2.9 8.5-3 15.3c0 4.8 0 9.3 2.5 9.3 3.4 0 3.4-7.9 6.2-12.3 5.4-8.7 18.9-10.6 18.9-13.6z" fill="#ffbd52" opacity=".75"/><path d="m67.76 61.95h22.3c1.13-.13 2.15.69 2.28 1.82.05.45-.05.9-.28 1.28l-25.6 39.9c-.76 1.1-2.28 1.38-3.38.62-.24-.17-.45-.38-.62-.62l-25.7-39.9c-.58-.98-.26-2.24.72-2.82.39-.23.84-.33 1.28-.28h22.3l-24.4-37c-.9-1.4.2-3 2-3h51.5c1.8 0 2.9 1.7 2 3z" fill="#fafafa"/></svg>