<svg enable-background="new 0 0 128 128" viewBox="0 0 128 128" xmlns="http://www.w3.org/2000/svg"><path d="m31.94 62.79 35.37 36.96 4.3-6.93-36.36-36.28-5.05 3.58z" fill="#7eaab3"/><path d="m121.52 123.78c2.42-.76 1-5.17 1-5.17l-102.99-6.78-9.19-103.58-1.69-4.07s-3.56-1.02-3.66 2.73c-.09 3.31.25 112.05.31 113.53s1.96 3.46 3.7 3.46 111.32.25 112.54-.13z" fill="#7eaab3"/><path d="m16.3 37.25-7.57-12.33s-.74-19.78-.09-20.65 113.88 114.34 113.88 114.34l-20.36.26-60.1-55.55-25.76-26.06z" fill="#c9e3e6"/><path d="m32.93 95.65s-.03-35.88.26-36c.38-.16 8.61 8.36 17.34 17.27 8.72 8.9 17.83 18.46 17.77 18.93-.05.38-35.37-.19-35.37-.2zm-24.2-70.73s-.18 93.5.04 94.16c.28.83 93.39-.22 93.39-.22z" fill="#a6cfd6"/><g fill="#367a8b"><path d="m13.04 8.26-3.95 3.87 2.21 2.02 3.94-3.76z"/><path d="m15.9 19.51 4.19-4.33 1.84 1.84-4.01 4.47z"/><path d="m18.33 29.72 8.37-7.94 2.82 2.78-8.43 7.92z"/><path d="m30.15 33.72 4.34-4.17 1.9 1.9-4.35 4.25z"/><path d="m32.5 44.35 8.65-8.13 2.75 2.78-8.6 8.29z"/><path d="m44.37 49.09 4.85-4.74 2.11 2.14-4.94 4.67z"/><path d="m47.82 59.39 8.21-8.18 2.64 2.67-8 8.41z"/><path d="m59.45 64.22 4.82-4.68 1.86 1.88-4.79 4.73z"/><path d="m62.46 74.11 8.36-7.96 2.81 2.85-8.41 7.87z"/><path d="m74.22 78.97 4.8-4.51 1.84 1.87-4.76 4.62z"/><path d="m77.75 89.67 8.2-8.19 2.95 2.98-8.35 8.08z"/><path d="m88.43 93.53 4.83-4.64 1.99 2.01-4.8 4.7z"/><path d="m92.51 104.5 8.18-8.06 2.68 2.7-7.98 8.15z"/><path d="m103.28 108.65 4.76-4.76 1.85 1.87-4.69 4.88z"/><path d="m111.38 115.56 4.03-4.19 1.92 1.95-3.79 3.99z"/></g></svg>