<svg enable-background="new 0 0 128 128" viewBox="0 0 128 128" xmlns="http://www.w3.org/2000/svg" xmlns:xlink="http://www.w3.org/1999/xlink"><linearGradient id="a"><stop offset="0" stop-color="#ffb300"/><stop offset=".4007" stop-color="#ffca28"/></linearGradient><linearGradient id="b" gradientTransform="matrix(1 0 0 -1 0 128)" gradientUnits="userSpaceOnUse" x1="86.3" x2="87.04" xlink:href="#a" y1="23.29" y2="12.22"/><linearGradient id="c" gradientTransform="matrix(1 0 0 -1 0 128)" gradientUnits="userSpaceOnUse" x1="107.77" x2="108.89" xlink:href="#a" y1="30.43" y2="13.81"/><linearGradient id="d" gradientTransform="matrix(1 0 0 -1 0 128)" gradientUnits="userSpaceOnUse" x1="90.6" x2="96.09" xlink:href="#a" y1="37.58" y2="25.21"/><linearGradient id="e"><stop offset="0" stop-color="#515151"/><stop offset=".9439" stop-color="#313131"/></linearGradient><linearGradient id="f" gradientUnits="userSpaceOnUse" x1="90.12" x2="90.12" xlink:href="#e" y1="51.86" y2="98.47"/><linearGradient id="g"><stop offset=".1719" stop-color="#ffb300"/><stop offset=".518" stop-color="#ffca28"/></linearGradient><linearGradient id="h" gradientTransform="matrix(1 0 0 -1 0 128)" gradientUnits="userSpaceOnUse" x1="100.07" x2="109.74" xlink:href="#g" y1="61.93" y2="50.58"/><linearGradient id="i" gradientTransform="matrix(1 0 0 -1 0 128)" gradientUnits="userSpaceOnUse" x1="80.61" x2="70.19" xlink:href="#g" y1="61.32" y2="50.9"/><linearGradient id="j" gradientUnits="userSpaceOnUse" x1="90.15" x2="90.15" xlink:href="#e" y1="50.81" y2="97.41"/><linearGradient id="k"><stop offset="0" stop-color="#ffb300"/><stop offset=".6846" stop-color="#ffca28"/></linearGradient><linearGradient id="l" gradientTransform="matrix(1 0 0 -1 0 128)" gradientUnits="userSpaceOnUse" x1="90.14" x2="90.14" xlink:href="#k" y1="75.14" y2="68.31"/><linearGradient id="m" gradientTransform="matrix(1 0 0 -1 0 128)" gradientUnits="userSpaceOnUse" x1="30.45" x2="31.19" xlink:href="#a" y1="23.29" y2="12.22"/><linearGradient id="n" gradientTransform="matrix(1 0 0 -1 0 128)" gradientUnits="userSpaceOnUse" x1="51.92" x2="53.04" xlink:href="#a" y1="30.43" y2="13.81"/><linearGradient id="o" gradientTransform="matrix(1 0 0 -1 0 128)" gradientUnits="userSpaceOnUse" x1="34.75" x2="40.24" xlink:href="#a" y1="37.58" y2="25.21"/><linearGradient id="p" gradientUnits="userSpaceOnUse" x1="34.27" x2="34.27" xlink:href="#e" y1="51.86" y2="98.47"/><linearGradient id="q" gradientTransform="matrix(1 0 0 -1 0 128)" gradientUnits="userSpaceOnUse" x1="44.22" x2="53.89" xlink:href="#g" y1="61.93" y2="50.58"/><linearGradient id="r" gradientTransform="matrix(1 0 0 -1 0 128)" gradientUnits="userSpaceOnUse" x1="24.76" x2="14.34" xlink:href="#g" y1="61.32" y2="50.9"/><linearGradient id="s" gradientUnits="userSpaceOnUse" x1="34.3" x2="34.3" xlink:href="#e" y1="50.81" y2="97.41"/><linearGradient id="t" gradientTransform="matrix(1 0 0 -1 0 128)" gradientUnits="userSpaceOnUse" x1="34.29" x2="34.29" xlink:href="#k" y1="75.14" y2="68.31"/><linearGradient id="u"><stop offset=".7945" stop-color="#6d4c41" stop-opacity="0"/><stop offset="1" stop-color="#6d4c41"/></linearGradient><radialGradient id="v" cx="34.26" cy="94.98" gradientTransform="matrix(1 0 0 -1.1282 0 140.18)" gradientUnits="userSpaceOnUse" r="14.91" xlink:href="#u"/><linearGradient id="w"><stop offset="0" stop-color="#504f4f"/><stop offset="1" stop-color="#212121"/></linearGradient><linearGradient id="x" gradientUnits="userSpaceOnUse" x1="34.26" x2="34.26" xlink:href="#w" y1="10.74" y2="36.12"/><radialGradient id="y" cx="90.29" cy="94.98" gradientTransform="matrix(1 0 0 -1.1282 0 140.18)" gradientUnits="userSpaceOnUse" r="14.91" xlink:href="#u"/><linearGradient id="z" gradientUnits="userSpaceOnUse" x1="90.29" x2="90.29" xlink:href="#w" y1="11.54" y2="36.92"/><path d="m75.84 75.4 2.33-2.38c.17-.12 1.1-.14 1.29-.08.06 0 .45.69.51.7l.9.16c.38.09.63.48.54.87l-.04.21c-.08.39-.46.64-.84.55l-1.37-.32-2.38 1.68c-.32.23-.76.14-.99-.19l-.12-.18c-.23-.35-.15-.8.17-1.02z" fill="#eda600"/><path d="m120.72 113.17c-.56-2.43-3.24-5.12-5.87-7.72-1.7-1.68-4.76-1.33-6.43.38s-1.97 4.78-.27 6.46c2.63 2.6 5.36 5.24 7.79 5.76 1.91.41 3.5-.2 4.07-.78.57-.59 1.15-2.19.71-4.1z" fill="#504f4f"/><path d="m91.18 123.82h-6.06l-3.28-19.28c.65 1.7 2.3 2.91 4.24 2.91 2.5 0 4.53-2.02 4.54-4.51z" fill="url(#b)"/><path d="m115.44 113.47c-1 .56-2.24.49-3.17-.19l-12.15-10.64c-.11-.1-.22-.2-.32-.31.84.83 1.99 1.35 3.27 1.35 2.57 0 4.65-2.08 4.65-4.65 0-.5-.08-.99-.23-1.44.01.01.02.03.03.04l8.55 11.16c1.39 1.38 1.08 3.72-.63 4.68z" fill="url(#c)"/><path d="m107.72 99.03c0 2.57-2.08 4.65-4.65 4.65-1.28 0-2.43-.52-3.27-1.35-.13-.13-.25-.26-.36-.4-.21-.25-.4-.53-.56-.81l-6.83-12.65c-.04-.22-1.21-.37-1.41-.37s-.37.16-.41.37l.39 14.34v.11.02c-.01 2.49-2.04 4.51-4.54 4.51-1.94 0-3.59-1.21-4.24-2.91l-.29-1.76-3.43-20.16 11.34-8.03 12.7 8.02 4.67 13.7.1.29c.14.35.32.69.56.99.15.45.23.94.23 1.44z" fill="url(#d)"/><path d="m104.77 75.14-2.64-2.22c-.17-.12-.72.24-.91.29-.06 0-.52.15-.58.16l-.9.16c-.38.09-.63.48-.54.87l.04.21c.08.39.46.64.84.55l1.37-.32 2.38 1.68c.32.23.76.14.99-.19l.12-.18c.23-.33.15-.78-.17-1.01z" fill="#eda600"/><path d="m108.65 60.34s-2.07-7.41-19.04-7.41-17.96 7.41-17.96 7.41l6.35 4.83h23.25z" fill="#444"/><path d="m109.62 60.34s-3.07-7.41-20.04-7.41-18.96 7.41-18.96 7.41l7.42 6.89v15.42l9.74 6.43c.77.39 1.62.59 2.48.59.89 0 1.77-.22 2.56-.63l9.31-6.39v-15.42z" fill="url(#f)"/><path d="m115.59 69.01-7.39-9.77-6.18 4.36 7.42 6.95-5.19 4.31c-.54-.02-1.47-.16-2.66-.16h-.39l-.02-.01s-1.67.12-2.11.46c-.4.31-.36.85-.18 1.05.21.24.16.66-.05.89-.21.24-.34.53-.32.83.02.29.15.46.44.68.14.1.21.38.14.53-.12.24-.31.65-.27.87.09.43.53.52.63.85.04.13-.37.57.05.94.39.35 1.06.63 2.08.63.91 0 2.1-.22 3.61-.82.04-.02 10.39-8.44 10.39-8.44 1.05-1.11 1-2.99 0-4.15z" fill="url(#h)"/><path d="m82.1 77.94c.02-.3-.11-.59-.32-.83s-.26-.66-.05-.89c.18-.2.21-.75-.18-1.05-.44-.34-2.11-.46-2.11-.46l-.02.01h-.39c-1.19 0-2.12.13-2.66.16l-5.19-4.31 7.42-6.95-6.19-4.38-7.38 9.79c-1 1.15-1.05 3.04 0 4.15 0 0 10.35 8.42 10.39 8.44 1.51.59 2.7.82 3.61.82 1.01 0 1.69-.28 2.08-.63.42-.38.01-.81.05-.94.1-.33.53-.42.63-.85.05-.21-.15-.63-.27-.87-.08-.15 0-.43.14-.53.29-.22.42-.39.44-.68z" fill="url(#i)"/><path d="m109.65 60.34s-3.07-7.41-20.04-7.41-18.96 7.41-18.96 7.41l7.35 6.83h24.25z" fill="url(#j)"/><path d="m100.64 54.35c-.09 3-3.82 7.22-10.5 7.22-6.76 0-10.5-4.33-10.5-7.33 0-.05 0-.1.01-.15 2.48-.7 5.72-1.16 9.96-1.16 4.75 0 8.34.58 11.03 1.42z" fill="url(#l)"/><path d="m87.87 124h-4.38c-.81-.02-1.39-.95-1.15-1.75.73-2.46 2.95-4.27 5.53-4.27 2.64 0 4.89 1.88 5.57 4.41.22.81-.38 1.61-1.19 1.61z" fill="#504f4f"/><path d="m19.99 75.4 2.33-2.38c.17-.12 1.1-.14 1.29-.08.06 0 .45.69.51.7l.9.16c.38.09.63.48.54.87l-.04.21c-.08.39-.46.64-.84.55l-1.37-.32-2.38 1.68c-.32.23-.76.14-.99-.19l-.12-.18c-.23-.35-.15-.8.17-1.02z" fill="#eda600"/><path d="m64.87 113.17c-.56-2.43-3.24-5.12-5.87-7.72-1.7-1.68-4.76-1.33-6.43.38s-1.97 4.78-.27 6.46c2.63 2.6 5.36 5.24 7.79 5.76 1.91.41 3.5-.2 4.07-.78.57-.59 1.15-2.19.71-4.1z" fill="#504f4f"/><path d="m35.33 123.82h-6.06l-3.28-19.28c.65 1.7 2.3 2.91 4.24 2.91 2.5 0 4.53-2.02 4.54-4.51z" fill="url(#m)"/><path d="m59.59 113.47c-1 .56-2.24.49-3.17-.19l-12.15-10.64c-.11-.1-.22-.2-.32-.31.84.83 1.99 1.35 3.27 1.35 2.57 0 4.65-2.08 4.65-4.65 0-.5-.08-.99-.23-1.44.01.01.02.03.03.04l8.55 11.16c1.39 1.38 1.08 3.72-.63 4.68z" fill="url(#n)"/><path d="m51.87 99.03c0 2.57-2.08 4.65-4.65 4.65-1.28 0-2.43-.52-3.27-1.35-.13-.13-.25-.26-.36-.4-.21-.25-.4-.53-.56-.81l-6.83-12.65c-.04-.22-1.21-.37-1.41-.37s-.37.16-.41.37l.39 14.34v.11.02c-.01 2.49-2.04 4.51-4.54 4.51-1.94 0-3.59-1.21-4.24-2.91l-.29-1.76-3.43-20.16 11.34-8.03 12.7 8.02 4.67 13.7.1.29c.14.35.32.69.56.99.15.45.23.94.23 1.44z" fill="url(#o)"/><path d="m48.92 75.14-2.64-2.22c-.17-.12-.72.24-.91.29-.06 0-.52.15-.58.16l-.9.16c-.38.09-.63.48-.54.87l.04.21c.08.39.46.64.84.55l1.37-.32 2.38 1.68c.32.23.76.14.99-.19l.12-.18c.23-.33.15-.78-.17-1.01z" fill="#eda600"/><path d="m52.8 60.34s-2.07-7.41-19.04-7.41-17.96 7.41-17.96 7.41l6.35 4.83h23.25z" fill="#444"/><path d="m53.77 60.34s-3.07-7.41-20.04-7.41-18.96 7.41-18.96 7.41l7.42 6.89v15.42l9.74 6.43c.77.39 1.62.59 2.48.59.89 0 1.77-.22 2.56-.63l9.31-6.39v-15.42z" fill="url(#p)"/><path d="m59.74 69.01-7.39-9.77-6.18 4.36 7.42 6.95-5.19 4.31c-.54-.02-1.47-.16-2.66-.16h-.39l-.02-.01s-1.67.12-2.11.46c-.4.31-.36.85-.18 1.05.21.24.16.66-.05.89-.21.24-.34.53-.32.83.02.29.15.46.44.68.14.1.21.38.14.53-.12.24-.31.65-.27.87.09.43.53.52.63.85.04.13-.37.57.05.94.39.35 1.06.63 2.08.63.91 0 2.1-.22 3.61-.82.04-.02 10.39-8.44 10.39-8.44 1.05-1.11 1-2.99 0-4.15z" fill="url(#q)"/><path d="m26.25 77.94c.02-.3-.11-.59-.32-.83s-.26-.66-.05-.89c.18-.2.21-.75-.18-1.05-.44-.34-2.11-.46-2.11-.46l-.02.01h-.39c-1.19 0-2.12.13-2.66.16l-5.19-4.31 7.42-6.95-6.19-4.38-7.38 9.79c-1 1.15-1.05 3.04 0 4.15 0 0 10.35 8.42 10.39 8.44 1.51.59 2.7.82 3.61.82 1.01 0 1.69-.28 2.08-.63.42-.38.01-.81.05-.94.1-.33.53-.42.63-.85.05-.21-.15-.63-.27-.87-.08-.15 0-.43.14-.53.29-.22.42-.39.44-.68z" fill="url(#r)"/><path d="m53.8 60.34s-3.07-7.41-20.04-7.41-18.96 7.41-18.96 7.41l7.35 6.83h24.25z" fill="url(#s)"/><path d="m44.79 54.35c-.09 3-3.82 7.22-10.5 7.22-6.76 0-10.5-4.33-10.5-7.33 0-.05 0-.1.01-.15 2.48-.7 5.72-1.16 9.96-1.16 4.75 0 8.34.58 11.03 1.42z" fill="url(#t)"/><path d="m32.02 124h-4.38c-.81-.02-1.39-.95-1.15-1.75.73-2.46 2.95-4.27 5.53-4.27 2.64 0 4.89 1.88 5.57 4.41.22.81-.38 1.61-1.19 1.61z" fill="#504f4f"/><path d="m33.85 57.3c-1.97 0-3.57-1.52-3.57-3.4v-4.26h7.96v4.26c0 1.87-1.6 3.4-3.57 3.4z" fill="#e59600"/><path d="m44.98 34.37h-21.45c-2.31 0-4.21 2.02-4.21 4.48s1.89 4.48 4.21 4.48h21.45c2.31 0 4.21-2.02 4.21-4.48s-1.9-4.48-4.21-4.48z" fill="#e59600"/><path d="m34.21 18.53c-6.83 0-13.16 7.31-13.16 17.82 0 10.46 6.52 15.63 13.16 15.63s13.16-5.17 13.16-15.63c0-10.52-6.33-17.82-13.16-17.82z" fill="#ffca28"/><path d="m24.83 34.49s.05-.08.15-.2c.03-.03.05-.06.08-.1.04-.04.09-.08.14-.13s.11-.1.17-.15.12-.09.19-.14.14-.09.21-.14c.08-.04.16-.08.24-.13s.17-.08.26-.12.18-.07.28-.1c.19-.05.39-.11.6-.14.21-.04.42-.04.64-.05.21.01.43.01.64.05.21.03.41.09.6.14.1.03.19.07.28.1s.18.07.26.12c.08.04.16.09.24.13.07.04.14.09.21.14s.13.09.19.13c.05.05.11.09.16.14.05.04.09.08.13.12s.07.08.1.12c.12.14.18.23.18.23.2.28.14.66-.14.86-.17.12-.38.15-.56.08l-.11-.04s-.08-.03-.19-.08c-.03-.01-.06-.03-.1-.04s-.08-.03-.12-.04c-.08-.03-.17-.07-.28-.1-.05-.02-.1-.04-.16-.05s-.11-.03-.17-.04c-.03-.01-.06-.02-.09-.02-.03-.01-.06-.01-.09-.02-.06-.01-.12-.03-.19-.04-.13-.01-.26-.04-.39-.05-.13-.02-.27-.01-.41-.02-.14.01-.27 0-.41.02-.14.01-.26.03-.39.05-.06.01-.12.03-.19.04-.03.01-.06.01-.09.02s-.06.02-.09.02c-.06.01-.11.03-.17.04-.05.01-.1.04-.16.05-.05.02-.1.03-.14.04s-.08.03-.11.04c-.04.01-.07.03-.11.03-.04.02-.08.04-.11.06l-.22.11c-.32.13-.7-.02-.83-.34-.08-.2-.05-.43.07-.6z" fill="#6d4c41"/><path d="m42.91 35.43-.22-.11c-.03-.02-.08-.04-.11-.06-.03-.01-.07-.02-.11-.03s-.07-.03-.11-.04c-.05-.01-.09-.03-.14-.04-.05-.02-.1-.04-.16-.05-.05-.01-.11-.03-.17-.04-.03-.01-.06-.02-.09-.02-.03-.01-.06-.01-.09-.02-.06-.01-.12-.03-.19-.04-.13-.01-.26-.04-.39-.05-.13-.02-.27-.01-.41-.02-.14.01-.27 0-.41.02-.14.01-.26.03-.39.05-.06.01-.12.03-.19.04-.03.01-.06.01-.09.02s-.06.02-.09.02c-.06.01-.11.03-.17.04-.05.01-.1.04-.16.05-.1.03-.19.06-.28.1-.04.02-.08.03-.12.04s-.07.03-.1.04c-.12.05-.19.08-.19.08l-.11.04c-.32.11-.67-.06-.79-.38-.07-.2-.03-.41.08-.56 0 0 .06-.08.18-.23.03-.03.06-.08.1-.12s.08-.08.13-.12.1-.09.16-.14.12-.09.19-.13c.07-.05.14-.09.21-.14.08-.04.16-.08.24-.13s.17-.08.26-.12.18-.07.28-.1c.19-.05.39-.11.6-.14.21-.04.42-.04.64-.05.21.01.43.01.64.05.21.03.41.09.6.14.1.03.19.07.28.1s.18.07.26.12c.08.04.16.09.24.13.07.04.14.09.21.14s.13.09.19.14.12.1.17.15.1.09.14.13.06.07.08.1c.1.12.15.2.15.2.2.29.12.68-.17.88-.16.13-.39.14-.58.06z" fill="#6d4c41"/><ellipse cx="27.8" cy="38.05" fill="#404040" rx="1.93" ry="2"/><ellipse cx="40.71" cy="38.05" fill="#404040" rx="1.93" ry="2"/><path d="m37.47 45.21c-1.25.74-5.35.74-6.6 0-.72-.43-1.45.23-1.15.88.29.64 2.53 2.13 4.46 2.13s4.14-1.49 4.43-2.13c.3-.66-.42-1.31-1.14-.88z" fill="#795548"/><path d="m35.5 41.6c-.04-.02-.08-.03-.13-.03h-2.77c-.04.01-.08.02-.13.03-.25.1-.39.36-.27.64s.67 1.06 1.79 1.06c1.11 0 1.67-.78 1.79-1.06.11-.28-.03-.54-.28-.64z" fill="#e59600"/><path d="m34.26 16.16c-.01 0-.01 0-.01 0-17.78.09-14.14 20.41-14.14 20.41s.8 2.1 1.16 3.02c.05.13.25.12.28-.02.38-1.7 1.75-7.72 2.43-9.55.41-1.08 1.52-1.71 2.66-1.5 1.74.32 4.52.71 7.58.71h.03s.02 0 .03 0c3.06 0 5.84-.39 7.58-.71 1.13-.21 2.25.42 2.66 1.5.69 1.82 2.04 7.81 2.43 9.53.03.14.23.15.28.02l1.17-3s3.64-20.32-14.14-20.41z" fill="#543930"/><path d="m48.4 36.57s3.64-20.31-14.14-20.41 0 0-.01 0 0 0-.01 0c-.28 0-.55.01-.81.02-.53.02-1.04.06-1.53.12h-.01c-.03 0-.07.01-.1.01-14.97 1.89-11.68 20.26-11.68 20.26l1.17 3c.05.13.24.12.27-.02.38-1.72 1.75-7.71 2.43-9.54.41-1.08 1.52-1.71 2.66-1.5 1.74.32 4.52.71 7.58.71h.03s.02 0 .03 0c3.06 0 5.84-.39 7.58-.71 1.13-.21 2.25.42 2.66 1.5.69 1.83 2.06 7.86 2.43 9.56.03.14.22.15.27.02.38-.92 1.18-3.02 1.18-3.02z" fill="url(#v)"/><path d="m49.84 5.34c-.17-1-1.2-1.59-2.14-1.24-2.22.82-5.98 2.63-7.88 5.93-1.43 2.48-2.03 6.16-2.27 9.18-.09 1.1-1.04 1.92-2.14 1.84-.37-.03-1.94-.03-2.31 0-1.1.08-2.06-.73-2.14-1.84-.24-3.02-.84-6.7-2.27-9.18-1.9-3.31-5.68-5.11-7.89-5.93-.94-.35-1.95.24-2.12 1.23-.4 2.33-.73 6.52 1.18 9.82 1.43 2.49 4.3 4.84 6.79 6.56.56.39.56 1.2.02 1.62-1.01.77-1.77 1.67-2.36 2.57-.58.9.45 1.99 1.35 1.41 1.78-1.15 4.49-2.09 8.59-2.09s6.81.94 8.59 2.09c.9.58 1.94-.51 1.35-1.41-.59-.91-1.35-1.8-2.35-2.58-.54-.42-.54-1.23.02-1.62 2.48-1.72 5.35-4.07 6.79-6.56 1.91-3.29 1.59-7.46 1.19-9.8z" fill="url(#x)"/><path d="m42.16 11.77c-1.04 1.8-1.25 4.86-1.3 6.18-.01.29.29.47.54.31 1.12-.7 3.65-2.41 4.69-4.22.91-1.58.83-3.54.68-4.63-.06-.47-.52-.73-.95-.55-1.02.42-2.75 1.33-3.66 2.91z" fill="#ff4081"/><path d="m26.35 11.77c1.04 1.8 1.26 4.86 1.3 6.19.01.29-.29.47-.53.31-1.12-.7-3.65-2.41-4.69-4.22-.91-1.58-.83-3.54-.69-4.63.06-.47.52-.73.95-.55 1.01.41 2.75 1.32 3.66 2.9z" fill="#ff4081"/><path d="m89.88 57.3c-1.97 0-3.57-1.52-3.57-3.4v-4.26h7.96v4.26c0 1.87-1.6 3.4-3.57 3.4z" fill="#e59600"/><path d="m101.02 34.37h-21.45c-2.31 0-4.21 2.02-4.21 4.48s1.89 4.48 4.21 4.48h21.45c2.31 0 4.21-2.02 4.21-4.48s-1.9-4.48-4.21-4.48z" fill="#e59600"/><path d="m90.25 18.53c-6.83 0-13.16 7.31-13.16 17.82 0 10.46 6.52 15.63 13.16 15.63s13.16-5.17 13.16-15.63c0-10.52-6.33-17.82-13.16-17.82z" fill="#ffca28"/><path d="m80.87 34.49s.05-.08.15-.2c.03-.03.05-.06.08-.1.04-.04.09-.08.14-.13s.11-.1.17-.15.12-.09.19-.14.14-.09.21-.14c.08-.04.16-.08.24-.13s.17-.08.26-.12.18-.07.28-.1c.19-.05.39-.11.6-.14.21-.04.42-.04.64-.05.21.01.43.01.64.05.21.03.41.09.6.14.1.03.19.07.28.1s.18.07.26.12c.08.04.16.09.24.13.07.04.14.09.21.14s.13.09.19.13c.05.05.11.09.16.14.05.04.09.08.13.12s.07.08.1.12c.12.14.18.23.18.23.2.28.14.66-.14.86-.17.12-.38.15-.56.08l-.11-.04s-.08-.03-.19-.08c-.03-.01-.06-.03-.1-.04s-.08-.03-.12-.04c-.08-.03-.17-.07-.28-.1-.05-.02-.1-.04-.16-.05s-.11-.03-.17-.04c-.03-.01-.06-.02-.09-.02-.03-.01-.06-.01-.09-.02-.06-.01-.12-.03-.19-.04-.13-.01-.26-.04-.39-.05-.13-.02-.27-.01-.41-.02-.14.01-.27 0-.41.02-.14.01-.26.03-.39.05-.06.01-.12.03-.19.04-.03.01-.06.01-.09.02s-.06.02-.09.02c-.06.01-.11.03-.17.04-.05.01-.1.04-.16.05-.05.02-.1.03-.14.04s-.08.03-.11.04c-.04.01-.07.03-.11.03-.04.02-.08.04-.11.06l-.22.11c-.32.13-.7-.02-.83-.34-.08-.2-.05-.43.07-.6z" fill="#6d4c41"/><path d="m98.95 35.43-.22-.11c-.03-.02-.08-.04-.11-.06-.03-.01-.07-.02-.11-.03s-.07-.03-.11-.04c-.05-.01-.09-.03-.14-.04-.05-.02-.1-.04-.16-.05-.05-.01-.11-.03-.17-.04-.03-.01-.06-.02-.09-.02-.03-.01-.06-.01-.09-.02-.06-.01-.12-.03-.19-.04-.13-.01-.26-.04-.39-.05-.13-.02-.27-.01-.41-.02-.14.01-.27 0-.41.02-.14.01-.26.03-.39.05-.06.01-.12.03-.19.04-.03.01-.06.01-.09.02s-.06.02-.09.02c-.06.01-.11.03-.17.04-.05.01-.1.04-.16.05-.1.03-.19.06-.28.1-.04.02-.08.03-.12.04s-.07.03-.1.04c-.12.05-.19.08-.19.08l-.11.04c-.32.11-.67-.06-.79-.38-.07-.2-.03-.41.08-.56 0 0 .06-.08.18-.23.03-.03.06-.08.1-.12s.08-.08.13-.12.1-.09.16-.14.12-.09.19-.13c.07-.05.14-.09.21-.14.08-.04.16-.08.24-.13s.17-.08.26-.12.18-.07.28-.1c.19-.05.39-.11.6-.14.21-.04.42-.04.64-.05.21.01.43.01.64.05.21.03.41.09.6.14.1.03.19.07.28.1s.18.07.26.12c.08.04.16.09.24.13.07.04.14.09.21.14s.13.09.19.14.12.1.17.15.1.09.14.13.06.07.08.1c.1.12.15.2.15.2.2.29.12.68-.17.88-.16.13-.39.14-.58.06z" fill="#6d4c41"/><ellipse cx="83.84" cy="38.05" fill="#404040" rx="1.93" ry="2"/><ellipse cx="96.75" cy="38.05" fill="#404040" rx="1.93" ry="2"/><path d="m93.51 45.21c-1.25.74-5.35.74-6.6 0-.72-.43-1.45.23-1.15.88.29.64 2.53 2.13 4.46 2.13s4.14-1.49 4.43-2.13c.3-.66-.42-1.31-1.14-.88z" fill="#795548"/><path d="m91.54 41.6c-.04-.02-.08-.03-.13-.03h-2.77c-.04.01-.08.02-.13.03-.25.1-.39.36-.27.64s.67 1.06 1.79 1.06c1.11 0 1.67-.78 1.79-1.06.11-.28-.03-.54-.28-.64z" fill="#e59600"/><path d="m90.3 16.16c-.01 0-.01 0-.01 0-17.79.09-14.14 20.41-14.14 20.41s.8 2.1 1.16 3.02c.05.13.25.12.28-.02.38-1.7 1.75-7.72 2.43-9.55.41-1.08 1.53-1.71 2.66-1.5 1.74.32 4.52.71 7.58.71h.03.03c3.06 0 5.84-.39 7.58-.71 1.13-.21 2.25.42 2.66 1.5.69 1.82 2.04 7.81 2.43 9.53.03.14.23.15.28.02l1.17-3s3.64-20.32-14.14-20.41z" fill="#543930"/><path d="m104.44 36.57s3.64-20.31-14.14-20.41 0 0-.01 0 0 0-.01 0c-.28 0-.55.01-.81.02-.53.02-1.04.06-1.53.12h-.01c-.04 0-.07.01-.1.01-14.97 1.89-11.68 20.26-11.68 20.26l1.17 3c.05.13.24.12.28-.02.38-1.72 1.75-7.71 2.43-9.54.41-1.08 1.53-1.71 2.66-1.5 1.74.32 4.52.71 7.58.71h.03.03c3.06 0 5.84-.39 7.58-.71 1.13-.21 2.25.42 2.66 1.5.69 1.83 2.06 7.86 2.43 9.56.03.14.22.15.27.02.37-.92 1.17-3.02 1.17-3.02z" fill="url(#y)"/><path d="m105.88 5.34c-.17-1-1.2-1.59-2.14-1.24-2.22.82-5.98 2.63-7.88 5.93-1.43 2.48-2.03 6.16-2.27 9.18-.09 1.1-1.04 1.92-2.14 1.84-.37-.03-1.94-.03-2.31 0-1.1.08-2.06-.73-2.14-1.84-.24-3.02-.84-6.7-2.27-9.18-1.9-3.31-5.68-5.11-7.89-5.93-.94-.35-1.95.24-2.12 1.23-.4 2.33-.73 6.52 1.18 9.82 1.43 2.49 4.3 4.84 6.79 6.56.56.39.56 1.2.02 1.62-1.01.77-1.77 1.67-2.36 2.57-.58.9.45 1.99 1.35 1.41 1.78-1.15 4.49-2.09 8.59-2.09s6.81.94 8.59 2.09c.9.58 1.94-.51 1.35-1.41-.59-.91-1.35-1.8-2.35-2.58-.54-.42-.54-1.23.02-1.62 2.48-1.72 5.35-4.07 6.79-6.56 1.91-3.29 1.59-7.46 1.19-9.8z" fill="url(#z)"/><g fill="#ff4081"><path d="m98.2 11.77c-1.04 1.8-1.25 4.86-1.3 6.18-.01.29.29.47.54.31 1.12-.7 3.65-2.41 4.69-4.22.91-1.58.83-3.54.68-4.63-.06-.47-.52-.73-.95-.55-1.02.42-2.75 1.33-3.66 2.91z"/><path d="m82.39 11.77c1.04 1.8 1.26 4.86 1.3 6.19.01.29-.29.47-.53.31-1.12-.7-3.65-2.41-4.69-4.22-.91-1.58-.83-3.54-.69-4.63.06-.47.52-.73.95-.55 1.01.41 2.75 1.32 3.66 2.9z"/></g></svg>