<svg enable-background="new 0 0 128 128" viewBox="0 0 128 128" xmlns="http://www.w3.org/2000/svg" xmlns:xlink="http://www.w3.org/1999/xlink"><radialGradient id="a" cx="53.4441" cy=".3467" gradientTransform="matrix(1 0 0 -.6035 0 127.8624)" gradientUnits="userSpaceOnUse" r="68.2194"><stop offset=".5595" stop-color="#f5f5f5"/><stop offset="1" stop-color="#c6c6c6"/></radialGradient><linearGradient id="b" gradientTransform="matrix(1 0 0 -1 0 128)" gradientUnits="userSpaceOnUse" x1="88.0388" x2="102.4966" y1="13.1171" y2="11.2018"><stop offset="0" stop-color="#9e9e9e" stop-opacity="0"/><stop offset=".788" stop-color="#9e9e9e"/></linearGradient><linearGradient id="c" gradientTransform="matrix(1 0 0 -1 0 128)" gradientUnits="userSpaceOnUse" x1="52.326" x2="52.326" y1="22.36" y2="3.331"><stop offset=".0032" stop-color="#80cbc4"/><stop offset=".3326" stop-color="#73c6be"/><stop offset=".9409" stop-color="#51b8ae"/><stop offset="1" stop-color="#4db6ac"/></linearGradient><linearGradient id="d"><stop offset=".335" stop-color="#e0e0e0"/><stop offset=".668" stop-color="#d0d0d0"/><stop offset=".9874" stop-color="#bdbdbd"/></linearGradient><linearGradient id="e" gradientTransform="matrix(1 0 0 -1 0 128)" gradientUnits="userSpaceOnUse" x1="38.7805" x2="38.7805" xlink:href="#d" y1="10.7216" y2="30.925"/><linearGradient id="f" gradientTransform="matrix(-1 0 0 -1 104.1574 128)" gradientUnits="userSpaceOnUse" x1="38.4369" x2="38.4369" xlink:href="#d" y1="10.7216" y2="30.925"/><linearGradient id="g" gradientTransform="matrix(1 0 0 -1 0 128)" gradientUnits="userSpaceOnUse" x1="98.0896" x2="123.8328" y1="22.8497" y2="19.4393"><stop offset=".4369" stop-color="#f5f5f5"/><stop offset="1" stop-color="#c6c6c6"/></linearGradient><linearGradient id="h" gradientTransform="matrix(1 0 0 -1 0 128)" gradientUnits="userSpaceOnUse" x1="118.6836" x2="96.2075" y1="75.4954" y2="22.7843"><stop offset="0" stop-color="#b3e5fc" stop-opacity=".8"/><stop offset=".0826" stop-color="#aee3fc" stop-opacity=".8165"/><stop offset=".6744" stop-color="#8dd8fa" stop-opacity=".9349"/><stop offset="1" stop-color="#81d4fa"/></linearGradient><radialGradient id="i" cx="112.5214" cy="39.9643" gradientTransform="matrix(.9732 .2302 .2302 -.9732 -8.1274 102.8444)" gradientUnits="userSpaceOnUse" r="25.3664"><stop offset="0" stop-color="#ce93d8"/><stop offset=".2054" stop-color="#ca8ad5"/><stop offset=".5366" stop-color="#bf73cc"/><stop offset=".9503" stop-color="#ad4cbe"/><stop offset="1" stop-color="#ab47bc"/></radialGradient><radialGradient id="j" cx="52.2155" cy="80.9011" gradientTransform="matrix(1 0 0 -1.1282 0 138.3704)" gradientUnits="userSpaceOnUse" r="38.0924"><stop offset=".7945" stop-color="#6d4c41" stop-opacity="0"/><stop offset="1" stop-color="#6d4c41"/></radialGradient><linearGradient id="k" gradientTransform="matrix(1 0 0 -1 0 128)" gradientUnits="userSpaceOnUse" x1="51.8695" x2="51.8695" y1="83.691" y2="59.498"><stop offset=".2028" stop-color="#b3e5fc" stop-opacity=".5"/><stop offset="1" stop-color="#b3e5fc" stop-opacity=".2"/></linearGradient><linearGradient id="l"><stop offset="0" stop-color="#bdbdbd"/><stop offset="1" stop-color="#e0e0e0"/></linearGradient><linearGradient id="m" gradientTransform="matrix(1 0 0 -1 0 128)" gradientUnits="userSpaceOnUse" x1="80.4241" x2="80.4241" xlink:href="#l" y1="72.2195" y2="84.847"/><linearGradient id="n" gradientTransform="matrix(1 0 0 -1 0 128)" gradientUnits="userSpaceOnUse" x1="24.2559" x2="24.2559" xlink:href="#l" y1="72.3862" y2="84.5081"/><radialGradient id="o" cx="52.3258" cy="71.8694" gradientTransform="matrix(0 1 1.4084 0 -48.8958 3.8022)" gradientUnits="userSpaceOnUse" r="22.8964"><stop offset="0" stop-color="#f5f5f5"/><stop offset=".6761" stop-color="#eee"/><stop offset="1" stop-color="#e0e0e0"/></radialGradient><path d="m52.04 96.39c-23.62.07-48.12 7.33-48.12 25.06v3.04h96.23v-3.04c.01-17.74-24.49-25-48.11-25.06z" fill="url(#a)"/><path d="m90.14 105.07-5.82 19.41h15.83v-3.04c.01-7.04-3.87-12.43-10.01-16.37z" fill="url(#b)"/><path d="m52.33 92.53h-9.08v9.98c0 4.51 3.7 8.17 8.26 8.17h1.65c4.56 0 8.26-3.66 8.26-8.17v-9.98z" fill="#99674f"/><path d="m62.9 105.64h-21.15l2.42 18.84h16.57z" fill="url(#c)"/><path d="m43.16 96.7c-5.92.43-8.69.94-8.69.94l-3.13 7.3 5.25 4.39-4.88 6.15 7.12 9h7.38z" fill="url(#e)"/><path d="m61.34 96.7c5.92.43 8.69.94 8.69.94l3.13 7.3-5.25 4.39 4.88 6.15-7.12 9h-7.38z" fill="url(#f)"/><path d="m122.43 73.94c1.14 7.79-.11 16.87-.11 16.87l-10.26-.9s-.39-5.91 0-5.92z" fill="#80cbc4"/><path d="m112.1 88.28c-6.66-.81-9.59-1.6-9.59-1.6l-11.34 37.8h28.19l4.14-36.21c.01 0-3.14 1.01-11.4.01z" fill="url(#g)"/><path d="m110.61 113.07c-2.27 1.4-9.11.12-15.75-2.25-5.12-1.83-9.23-4.16-9.27-4.17-.53-.25-5.5-2.95-5.5-5.74 0-2.32 1.96-3.89 2.44-4.43.07-.07.1-.1.1-.1l17.46-17.59 13.14-31.8.02-.01s2.36-.81 5.67.49 5.01 3.46 5.01 3.46l-.02.01-11.85 32.62s.03 23.38 0 25.39c-.04 2.72-.36 3.44-1.45 4.12z" fill="url(#h)" opacity=".86"/><path d="m107.01 111.51c-5.64-2.2-17.38-6.85-23.03-9.14-1.53-.63-1.93-2.6-.77-3.77l7.43-7.49 19.51-.94v19.19c0 1.61-1.63 2.74-3.14 2.15z" fill="url(#i)" opacity=".8"/><g fill="#fff"><path d="m99.49 97.2h2v6.8h-2z" transform="matrix(.3862 -.9224 .9224 .3862 -31.119 154.4424)"/><path d="m101.51 91.76h2v6.8h-2z" transform="matrix(.3862 -.9224 .9224 .3862 -24.857 152.9664)"/><path d="m103.53 86.32h2v6.8h-2z" transform="matrix(.3862 -.9224 .9224 .3862 -18.599 151.4953)"/><path d="m105.56 80.88h2v6.8h-2z" transform="matrix(.3862 -.9224 .9224 .3862 -12.3392 150.0228)"/><path d="m107.58 75.44h2v6.8h-2z" transform="matrix(.3862 -.9224 .9224 .3862 -6.0776 148.5466)"/><path d="m109.6 70h2v6.8h-2z" transform="matrix(.3861 -.9224 .9224 .3861 .1835 147.0816)"/><path d="m111.62 64.56h2v6.8h-2z" transform="matrix(.3861 -.9224 .9224 .3861 6.4438 145.6049)"/><path d="m114.13 58.24h2v6.8h-2z" transform="matrix(.3861 -.9224 .9224 .3861 13.8184 144.0393)"/><path d="m116.16 52.8h2v6.8h-2z" transform="matrix(.3861 -.9224 .9224 .3861 20.0775 142.5688)"/></g><path d="m98.85 80.03s-2.53-2.14-2.52-4.09c.01-1.56 1.89-3.04 1.89-3.04s-1.8-2.77-1.14-4.28c.94-2.14 3.41-2.55 3.41-2.55s-1.12-2.79.65-4.43c1.26-1.17 4.9-.68 4.9-.68s.36-4.58 4.82-3.43c1.74.45 7.91 3.99 10.21 11.46 1.44 4.67 2 6.06 1.54 13.06-.2 2.97-7.71 2.97-10.54 1.95-7.05-2.54-9.05-5.64-10.02-5.62-.98.02-3.2 1.65-3.2 1.65z" fill="#80cbc4"/><path d="m99.72 71.16c-.72.13-1.28.71-1.44 1.43l-.07.31 4.18-1.43c-.97-.46-1.94-.44-2.67-.31z" fill="#26a69a"/><path d="m104.81 66.35c-.57-.63-1.23-.99-1.82-1.2-.94-.33-1.98.07-2.5.92z" fill="#26a69a"/><path d="m108.1 60.3c-.73-.29-1.6-.07-2.04.58-.01.02-.02.04-.03.05 1.78.22 4.45 1.34 4.45 1.34-.55-1.06-1.57-1.65-2.38-1.97z" fill="#26a69a"/><ellipse cx="96.09" cy="105.59" fill="#8f5d9b" rx="3.35" ry="14.43" transform="matrix(.3668 -.9303 .9303 .3668 -37.3799 156.2521)"/><ellipse cx="118.49" cy="49.28" fill="#81d4fa" rx="3.09" ry="5.73" transform="matrix(.3664 -.9305 .9305 .3664 29.2179 141.4725)"/><path d="m79.65 50.64h-54.65c-5.89 0-10.71 5.14-10.71 11.41s4.82 11.41 10.71 11.41h54.65c5.89 0 10.71-5.14 10.71-11.41s-4.82-11.41-10.71-11.41z" fill="#99674f"/><path d="m52.33 11.27c-17.4 0-33.52 18.61-33.52 45.4 0 26.64 16.61 39.81 33.52 39.81s33.52-13.17 33.52-39.81c0-26.79-16.12-45.4-33.52-45.4z" fill="#ba8d68"/><path d="m56.07 68.26c-.11-.04-.21-.07-.32-.08h-7.08c-.11.01-.22.04-.32.08-.64.26-.99.92-.69 1.63s1.71 2.69 4.55 2.69 4.25-1.99 4.55-2.69c.31-.7-.04-1.37-.69-1.63z" fill="#99674f"/><path d="m60.74 76.35c-3.19 1.89-13.63 1.89-16.81 0-1.83-1.09-3.7.58-2.94 2.24.75 1.63 6.44 5.42 11.37 5.42s10.55-3.79 11.3-5.42c.76-1.67-1.09-3.33-2.92-2.24z" fill="#5d4037"/><path d="m29.2 50.73c2.99-4.23 9.78-4.63 13.67-1.48.62.5 1.44 1.2 1.68 1.98.4 1.27-.82 2.26-2.01 1.96-.76-.19-1.47-.6-2.22-.83-1.37-.43-2.36-.55-3.59-.55-1.82-.01-2.99.22-4.72.92-.71.29-1.29.75-2.1.41-.93-.39-1.28-1.58-.71-2.41z" fill="#613e31"/><path d="m73.53 53.13c-.29-.13-.57-.29-.86-.41-1.78-.74-2.79-.93-4.72-.92-1.7.01-2.71.24-4.04.69-.81.28-1.84.98-2.74.71-1.31-.4-1.28-1.84-.56-2.76.86-1.08 2.03-1.9 3.29-2.44 2.9-1.26 6.44-1.08 9.17.55.89.53 1.86 1.26 2.4 2.18.79 1.3-.4 3.03-1.94 2.4z" fill="#613e31"/><ellipse cx="36.75" cy="59.02" fill="#49362e" rx="4.93" ry="5.1"/><ellipse cx="67.9" cy="59.02" fill="#49362e" rx="4.93" ry="5.1"/><path d="m52.23 4.03c-.01 0-.01 0-.02 0s-.01 0-.02 0c-45.43.24-36.12 52.14-36.12 52.14s2.04 5.35 2.97 7.71c.13.34.63.3.71-.05.97-4.34 4.46-19.73 6.22-24.41 1.04-2.76 3.9-4.36 6.8-3.83 4.45.81 11.55 1.81 19.37 1.81h.08s.06 0 .08 0c7.83 0 14.92-1 19.37-1.81 2.9-.53 5.76 1.08 6.79 3.83 1.75 4.66 5.22 19.96 6.2 24.36.08.36.58.39.71.05l2.98-7.67c.01.01 9.32-51.89-36.12-52.13z" fill="#543930"/><path d="m88.36 56.17s9.31-51.9-36.13-52.14c-.01 0-.01 0-.02 0-.01 0-.01 0-.02 0-.71 0-1.4.02-2.08.05-1.35.06-2.66.16-3.92.31-.01 0-.03 0-.04 0-.09.01-.17.03-.26.04-38.23 4.81-29.82 51.74-29.82 51.74l2.98 7.68c.13.34.62.31.7-.05.98-4.39 4.46-19.71 6.22-24.37 1.04-2.76 3.9-4.36 6.8-3.83 4.45.81 11.55 1.81 19.37 1.81h.08s.06 0 .08 0c7.83 0 14.92-1 19.37-1.81 2.9-.53 5.76 1.08 6.79 3.83 1.76 4.68 5.25 20.1 6.22 24.42.08.36.57.39.7.05.93-2.36 2.98-7.73 2.98-7.73z" fill="url(#j)"/><path d="m31.32 44.31h42.65l5.79 5.1v15.03s-3.94 5.5-13.44 3.19-8.23-8.05-13.88-8.05-8.25 9.17-20.62 8.92c0 0-6.38-.56-7.56-4.56l-.27-16.61z" fill="url(#k)"/><path d="m88.5 54.76c.01.67-.19 1.32-.57 1.87l-5.47 8.05c-2.06 2.85-9.3 4.43-9.3 4.43l8.18-9.14-1.56-11.5-7.43-5.8s3.07.3 5.24.3 4.33 1.39 5.44 2.16l4.02 2.77c.88.61 1.4 1.6 1.41 2.67z" fill="url(#m)"/><path d="m16.18 54.76c-.01.67.19 1.32.57 1.87l5.47 8.05c2.06 2.85 9.3 4.43 9.3 4.43l-8.18-9.14 1.56-11.5 7.43-5.8s-3.07.3-5.24.3-4.33 1.39-5.44 2.16l-4.02 2.77c-.88.61-1.4 1.6-1.41 2.67z" fill="url(#n)"/><path d="m71.8 45.63c1.1 0 2.93.35 4.48 1.34 2.1 1.34 2.16 2.89 2.18 3.4.03.77.06 1.51.1 2.25.1 2.31.2 4.49.2 6.61 0 4.35-3.91 7.38-9.5 7.38-3.95 0-8.42-3.33-10.46-5.57-1.6-1.75-3.96-2.76-6.48-2.76s-4.88 1.01-6.48 2.76c-2.04 2.24-6.51 5.57-10.46 5.57-5.59 0-9.5-3.03-9.5-7.38 0-2.13.1-4.31.2-6.61.03-.74.07-1.49.1-2.25.02-.51.08-2.06 2.18-3.4 1.55-.99 3.38-1.34 4.48-1.34zm0-3h-38.95c-3.58 0-9.44 2.3-9.66 7.62-.13 3.2-.3 6.1-.3 8.99 0 6 5.21 10.38 12.5 10.38 5 0 10.15-3.78 12.67-6.55 1.08-1.18 2.67-1.78 4.26-1.78 1.58 0 3.19.6 4.26 1.78 2.53 2.77 7.67 6.55 12.67 6.55 7.29 0 12.5-4.38 12.5-10.38 0-2.88-.17-5.79-.3-8.99-.21-5.32-6.07-7.62-9.65-7.62z" fill="url(#o)"/></svg>