<svg enable-background="new 0 0 128 128" viewBox="0 0 128 128" xmlns="http://www.w3.org/2000/svg"><path d="m60.3 47.1c-2.2-7-5.9-10.8-6.8-14.1-1.1-3.8 3.3-6.4 5.7-3.3-1.2-3-5-5.6-5.4-10.8-.1-1.6.5-4.4 4.2-4.9-.7-4.1.7-6 2-6.8 1.7-1 3.5-.5 4.6.3 10 7.6 24.3 24.8 31.3 49.1.7 2.4 1.2 4.5 1.3 6.6.1 1.8.3 3.9.3 8.3 0 7.8-.8 17.3-1.8 32.6 0 .7.1 1.7.3 2.3.3.6.4 1.2-.2 2-4.6 5.1-19.7 13.2-29.3 14.6-1 .1-1.4-.3-1.8-.7-4.7-4.2-11.5-4.3-17.9-9.1-8.4-6.4-15.6-14.6-18.7-30.7-.5-2.8 2.1-7 6.9-5.6 10.8 3.3 5.5 14.7 18.8 18.5 10.1 2.9 19.9-5.7 19.8-14-.1-6.8-2.4-14.2-11.4-16.3-11.7-2.8-18.8 11.3-25.6 10.8-4.4-.4-6.2-2.4-6.6-4.7-.5-2.9 2.9-7.2 12.2-15.2 3.8-3.2 10.4-7.4 18.1-8.9z" fill="#ffca28"/><path d="m61.91 6.64c-.62.02-1.27.18-1.91.56-1.3.8-2.7 2.7-2 6.8-3.7.5-4.3 3.3-4.2 4.9.4 5.2 4.2 7.8 5.4 10.8-2.4-3.1-6.8-.5-5.7 3.3.9 3.3 4.6 7.1 6.8 14.1-.77.15-1.51.34-2.26.54.58.5 1.42.79 2.66.36 7.4-2.5 12.8 2 12.8 2s3.2 2.8 2.6.5c-4.1-16.1-8.7-21.3-11.7-26.9-1.2-2.4-3.1-6.5-4.5-9.2s0-4.7.9-5.3c.8-.6 2.3-.5 3.2.3 5.7 5.2 12 12.6 15 16.5s4.5 5.8 5.7 8.3c.58 1.21 1.56 1.38 2.52 1.18-7.11-13.17-15.85-22.73-22.62-27.88-.69-.5-1.65-.88-2.69-.86zm-14.06 45.37c-2.24 1.34-4.17 2.74-5.65 3.99-9.3 8-12.7 12.3-12.2 15.2.4 2.3 2.2 4.3 6.6 4.7.11.01.22 0 .33 0 .37-.56.2-1.49-1.93-2.3-3.4-1.3-2.7-4.2-1.6-5.5 7-8.2 12.1-12 14.3-13.9.59-.53.46-1.38.15-2.19zm-14.55 24.61c-3.7-.09-5.64 3.43-5.2 5.88.8 4.16 1.88 7.78 3.18 10.99 1.05.07 1.97-.87 1.02-3.49-1.7-4.8-1.8-6.5-1.9-7.7-.3-3.1 2.2-3.4 2.2-3.4 1.7-.4 4.6 1.2 5.7 2.5 1 1.4 2.2 3.5 3.2 5.9 5.8 14.9 22.4 9.9 24.3 8.8 1.16-.65 1.32-2.04 1.09-3.06-3.63 2.52-8.32 3.73-13.09 2.36-13.3-3.8-8-15.2-18.8-18.5-.6-.17-1.17-.26-1.7-.28z" fill="#faa700"/><path d="m57.91 14.02s-.01 0-.02.01c-1.43 4.12 13.02 16.51 16.61 35.57-2-1.5-3.8-2.5-5.9-3.1-.4-.1-.7-.4-.9-.8-2.4-6.8-5.8-12.1-6.4-12.8s-.9-.1-.8.2c.3 1 3.4 6.7 4.6 13.2-1.7 0-3.2.3-4.9.9-.06-.02-.06-.03-.12-.05-7.6 1.54-14.12 5.68-17.88 8.85-1.09.93-2.08 1.81-3 2.65 1 .29 2.36.3 4.2-.95 3.8-2.6 10.3-8 21.8-8.9 2.1-.2 6.2.3 17.2 9 1.4 1.1 3.4-1.1 1.6-2.4-.7-.5-3.7-2.4-5.4-3.6-.4-.3-.7-.7-.8-1.2-5.29-22.16-18.05-33.36-19.89-36.58zm17.71 4.23c-.37 1.59-.03 3.5.98 4.75 8.5 9.9 14.8 26.9 16.5 33 .5 1.8 1.4 5.4 1.6 8.7.5 9.8-.5 26.5-1.6 41-.07 1.27.46 2.97 1.02 4.29.65-.55 1.23-1.09 1.68-1.59.6-.8.5-1.4.2-2-.2-.6-.3-1.6-.3-2.3 1-15.3 1.8-24.8 1.8-32.6 0-4.4-.2-6.5-.3-8.3-.1-2.1-.6-4.2-1.3-6.6-4.66-16.19-12.56-29.2-20.28-38.35zm-15.89 43.64c-1.73-.01-3.58.23-5.53.81-3.7 1.1-6.9 3.9-8.4 5.1-3.2 2.8-7.1 8-12.6 5.3-.73-.33-1.63-.25-2.15.41 1 1.22 2.74 2.13 5.55 2.39 6.8.5 13.9-13.6 25.6-10.8 9 2.1 11.3 9.5 11.4 16.3.1 8.3-9.7 16.9-19.8 14-.19-.05-.36-.12-.54-.17.25.98.79 1.59 2.14 1.87 6.6 1.2 13.3-1 17.2-5.9 3.9-5 6.1-13.7 1.8-21.2-1.87-3.17-7.17-8.05-14.67-8.11zm-26.43 14.73c-.89-.02-1.68.18-2.36.51 1.13 3.54 5.08 5.93 10.56 4.82-1.29-2.16-3.09-4.01-6.5-5.05-.6-.17-1.17-.26-1.7-.28zm-4.99 3.57c-.26.78-.34 1.59-.21 2.31 3.1 16.1 10.3 24.3 18.7 30.7 6.4 4.8 13.2 4.9 17.9 9.1.4.4.8.8 1.8.7.81-.12 1.68-.3 2.56-.51-.46-.68-.95-1.4-1.36-1.89-4.9-5.9-16.2-2.7-30.3-21.1-5.2-6.9-7.1-15.9-7.3-17.1-.23-1.39-1-1.97-1.79-2.21z" fill="#b55e19"/></svg>