<svg enable-background="new 0 0 128 128" viewBox="0 0 128 128" xmlns="http://www.w3.org/2000/svg"><path d="m110.4 98.3c0 2.7.3 17.9.3 17.9-3.6 0-25.1 0-25.1 0s.1-11.9.1-14.3c-.3-10-3.1-5.8-7.7-13.4-7.5-12.4-4.5-12-8.1-16.5-2.1-2.6-5.2-3.8-6.1-6.5-.8 2.6-4 3.9-6 6.5-3.7 4.6-.7 4.2-8.1 16.5-4.6 7.6-7.4 3.4-7.6 13.4-.1 2.4 0 14.3 0 14.3s-21.5 0-25.1 0c0 0 .3-15.2.3-17.9-.1-6.4-8.4-3.8-9.1-23.6-.7-20.1-.1-27.7.7-32.2.5-2.7 5.1-2.7 5.5.1.2 1.2 1.1 18.2 1.2 18.9 0 .7.9.5 1 0 0-.6.8-26.8.9-28.1.6-4.2 6.7-4.3 7-.1.1 1.3 1.1 26 1.2 26.6s.8.4.8 0 .6-28.6.7-30.2c.4-4.7 7.1-4.8 7.6-.1.2 1.4.7 29.9.7 30.7.1.8 1 .7 1 0 0-.4 1.5-23.3 1.5-25.4 0-5.9 7.9-6 8-.2 0 1.7-.2 31.4-.2 32.2s.2 3.1.5 3.9c4.5-2.7 5.5-9.2 14-9.5 1.8-.1 3 .7 3.5 1.9.5-1.2 1.8-2 3.5-1.9 8.5.4 9.5 6.9 14 9.5.2-.8.5-3 .5-3.9s-.2-30.6-.1-32.2c.1-5.8 8-5.7 7.9.2 0 2.1 1.5 25 1.5 25.4 0 .7.9.8 1 0s.6-29.2.7-30.7c.5-4.7 7.2-4.6 7.6.1.1 1.6.7 29.8.7 30.2s.7.7.8 0c.1-.6 1.1-25.3 1.2-26.6.4-4.2 6.4-4.1 7 .1.2 1.2.9 27.5 1 28.1 0 .6.9.7 1 0 0-.7 1-17.7 1.2-18.9.4-2.8 5-2.8 5.5-.1.8 4.5 1.4 12 .8 32.2-.7 19.8-9.1 17.2-9.2 23.6z" fill="#ffca28"/><path d="m30.96 26.13c-1.78.02-3.56 1.22-3.76 3.57-.1 1.6-.7 29.8-.7 30.2s-.7.6-.8 0c-.01-.05-.09-1.96-.11-2.38l-1.79 1.88c0 2 4.1 2 4.2 0s.7-27.6.7-29.3c.1-3.2 4.4-3 4.6-.8.11 1.2.87 1.52 1.54 1.33-.01-.19-.03-.96-.04-1.03-.25-2.35-2.05-3.5-3.84-3.47zm65.68 0c-1.79-.03-3.59 1.12-3.84 3.47-.1 1.5-.6 29.9-.7 30.7s-1 .7-1 0c0-.04-.13-2.14-.17-2.68l-1.43 2.78c.9 1.6 4.1 1.5 4.3-.6.2-2 .4-29 .4-30 0-2.4 4.3-3.4 4.6-.2 0 0 .92.65 1.62.77 0-.06-.02-.64-.02-.67-.2-2.35-1.98-3.55-3.76-3.57zm-75.53 4.07c-1.63.02-3.31 1.1-3.61 3.2-.1 1.3-.9 27.5-.9 28.1-.1.5-1 .7-1 0-.01-.07-.09-1.48-.11-1.84l-1.59 1.44c.4 2 4.1 1.8 4.5 0s.4-25.3.5-26.6c.1-3.6 4.1-3.3 4.3-1 .11 1.15.79 1.44 1.36 1.22-.01-.19-.05-1.35-.06-1.42-.15-2.1-1.75-3.13-3.39-3.1zm85.42 0c-1.63-.03-3.23 1-3.43 3.1-.1 1.3-1.1 26-1.2 26.6-.1.7-.8.4-.8 0 0-.05-.06-2.93-.08-3.79l-1.72 3.09c.3 2.4 4.5 2 4.5 0 0-3 .7-24.5.8-25.4.3-3 4-2.4 4-.6 0 .96.83 1.24 1.54 1.07-.01-.15-.03-.82-.04-.87-.3-2.1-1.95-3.18-3.57-3.2zm-64.57.21c-1.98.04-3.96 1.54-3.96 4.49 0 2.1-1.5 25-1.5 25.4 0 .7-.9.8-1 0 0-.05-.03-1.61-.03-1.85l-1.57 1.65c.3 2.1 4 1.6 4.1 0 .2-1.6 1.6-24.6 1.6-25.8.3-3.5 4.5-2.7 4.7-.8.2 1.31 1.07 1.45 1.68 1.04-.12-2.79-2.07-4.16-4.02-4.13zm43.76 0c-1.97-.04-3.97 1.39-4.02 4.29-.1 1.6.1 31.3.1 32.2s-.3 3.1-.5 3.9c-4.5-2.6-5.5-9.1-14-9.5-1.7-.1-3 .7-3.5 1.9-.5-1.2-1.7-2-3.5-1.9-8.5.3-9.5 6.8-14 9.5-.26-.69-.42-2.37-.46-3.36-.87.75-1.58 1.32-1.84 1.36-1.3.2-14.7 1.4-14.9 18.6 0 1 1.5.9 1.7-.2 2.5-13.5 11.5-15.8 13.7-16.3.3 1.1 1.5 1.3 2.8.8 4.3-1.6 4.6-7.1 11.3-8.9 4-1.1 4.9 2.7 2.6 4.7l.8.58c.82-.76 1.49-1.57 1.8-2.58.34 1.02 1 1.83 1.8 2.58l.8-.58c-2.3-2-1.4-5.8 2.6-4.7 6.6 1.8 7 7.2 11.3 8.9 1.2.5 2.5.4 2.8-.8 2.2.5 11.2 2.8 13.7 16.3.2 1.1 1.7 1.2 1.7.2-.3-16.9-13.2-18.3-14.8-18.6.1-.6.1-1.3.1-1.3l-.5-33c.2-3.4 4.7-3.5 5-.3l1.39 2.48c-.03-.52-.09-1.58-.09-1.78.05-2.95-1.9-4.45-3.88-4.49zm-74.03 10.08c-1.26-.01-2.54.66-2.79 2.01-.8 4.5-1.4 12.1-.7 32.2.05 1.49.16 2.82.29 4.07.51-.17.96-.67.91-1.27-.9-16.7.3-30.3.6-33.9.1-1.9 3.1-2.4 3.3 0l.6 1.3.65-.36c-.05-.74-.12-1.77-.15-1.94-.2-1.4-1.45-2.1-2.71-2.11zm104.32 0c-1.26.01-2.51.71-2.71 2.11-.2 1.2-1.2 18.2-1.2 18.9-.1.7-1 .6-1 0-.01-.05-.07-2.07-.08-2.5l-1.52 2.1c0 1.7 4.2 1.6 4.2 0 0-1.8.9-17 .9-17.9.1-1.5 2.5-1.8 2.7 0 .13 1.37 1.11 1.45 1.78 1.1-.09-.66-.18-1.25-.28-1.8-.25-1.35-1.53-2.02-2.79-2.01z" fill="#faa700"/><path d="m97.17 26.18c-.12.16-.11.43.23.82.3.3 1.1 1.5 1.2 3.2s.5 26 .5 27.1c.07 2.71 1.3 3.06 2.01 2.62 0-.01-.01-.01-.01-.02 0-.4-.6-28.6-.7-30.2-.18-2.12-1.64-3.29-3.23-3.52zm-64.89.15c-.04.11-.02.27.12.47.5.6.8 1.8.8 2.9s.4 28.8.5 29.5c.08 1.87 1.42 2.03 2.01 1.54-.1-.09-.18-.23-.21-.44 0-.8-.5-29.3-.7-30.7-.19-1.76-1.25-2.85-2.52-3.27zm-10.07 4.02c-.08.1-.08.24.09.45.5.6.7 1.5.7 2.4s.5 24.5.6 25.2c.16 2 1.59 2.26 2.16 1.67-.03-.05-.05-.1-.06-.17-.1-.6-1.1-25.3-1.2-26.6-.12-1.62-1.1-2.6-2.29-2.95zm85.43.04c-.13.19-.17.43-.04.61.3.4.7.8.8 2.3 0 0 .5 25.1.6 26.1.16 2.34 1.52 2.72 2.21 2.4-.07-.07-.11-.17-.11-.3-.1-.6-.8-26.9-1-28.1-.23-1.61-1.26-2.62-2.46-3.01zm-21.03.15c.03.08.08.17.19.26.6.5 1.1 2 1.2 3.6s.7 23.5.8 24.4c.24 2.5 1.83 2.58 2.5 1.95-.12-.1-.2-.24-.2-.45 0-.4-1.5-23.3-1.5-25.4.04-2.5-1.36-3.95-2.99-4.36zm-43.54.02c.01.09.05.18.13.24.4.3 1.2 1.7 1.2 2.8 0 1-.4 32.4-.4 34.6 0 2.58 1.38 2.89 2.28 2.51-.29-.86-.48-3.03-.48-3.81 0-.8.2-30.5.2-32.2-.04-2.36-1.37-3.72-2.93-4.14zm73.23 9.97c-.12.15-.11.37.1.67.8 1.1.8 4.2.8 4.6 0 4.4 1.1 22 .1 31.2s-3.8 15.3-9.9 18.5c-.4.3-.1.7.2.7h1.3c-.93.74-.33 17.52-.23 20h2.03s-.3-15.2-.3-17.9c.1-6.4 8.5-3.8 9.2-23.6.6-20.2 0-27.7-.8-32.2-.23-1.25-1.34-1.89-2.5-1.97zm-103.91.06c-.14.11-.15.31.11.61.5.7.5 1.4.5 2 0 .7.6 16.1.6 16.8 0 1.53 1.45 2.12 2.14 1.87-.08-.08-.14-.19-.14-.37-.1-.7-1-17.7-1.2-18.9-.16-1.14-1.02-1.79-2.01-2.01zm51.41 23.01c-.2 0-.6.1-.7.7-.4 2.2-7.7 4.4-9.9 11.5-1 3.2-3.7 14-14.5 19.6-.4.2-.3.7.1.7.6 0 1.8-.1 2.4-.3-1.52 2.75-1.76 18.69-1.79 20.4h2.69s-.1-11.9 0-14.3c.2-10 3-5.8 7.6-13.4 7.4-12.3 4.4-11.9 8.1-16.5 2-2.6 5.2-3.9 6-6.5.9 2.7 4 3.9 6.1 6.5 3.6 4.5.6 4.1 8.1 16.5 4.6 7.6 7.4 3.4 7.7 13.4 0 2.4-.1 14.3-.1 14.3h2.59c-.03-1.71-.27-17.74-1.79-20.4.6.2 1.9.3 2.4.3.4 0 .5-.5.1-.7-10.8-5.7-13.5-16.4-14.5-19.6-2.2-7.1-9.5-9.3-9.9-11.5-.1-.6-.5-.7-.7-.7zm-55.58 11.4c.78 19.45 8.98 16.94 9.08 23.3 0 2.7-.3 17.9-.3 17.9h1.93c.1-2.48.7-19.26-.23-20h1.3c.3 0 .6-.4.2-.7-6.1-3.2-9-8-10.7-18.5-.2-1.05-.74-1.64-1.28-2z" fill="#b55e19"/><g fill="#b0bec5"><path d="m61.9 8c0-2 3.5-2.1 3.5.1v17.2c-.1 2.2-3.6 2.3-3.5 0 0-.9 0-17.3 0-17.3z"/><path d="m42.9 18.5c-1.2-1.6 1.5-3.8 2.8-2 .7.9 8.1 10.7 8.6 11.3 1.3 1.8-1.5 3.9-2.8 2.1-.5-.7-8.6-11.4-8.6-11.4z"/><path d="m84.4 18.5c1.2-1.6-1.5-3.8-2.8-2-.7.9-8.1 10.7-8.6 11.3-1.3 1.8 1.5 3.9 2.8 2.1.5-.7 8.6-11.4 8.6-11.4z"/></g></svg>