<svg enable-background="new 0 0 128 128" viewBox="0 0 128 128" xmlns="http://www.w3.org/2000/svg"><path d="m79.5 28.9c1.9 2 2.3 4.5 1.5 5.9-.9 1.6-2 2.4-3.7 2.4-.7 0-4-.1-5.8 1-2 1.2-6.3 3.3-11.3 2.8-3.3-.3-7.6-3.6-9.6-1.2-1 1.2-2.6 5.7-2.7 12-.1 4.4.6 19.9-1.4 29.8-.1.7.5 1.4 1.2 1.4 1.9-.1 4.1-.9 6-5.5 10.1-24.7 51.5-23.1 57.6 4.7 2.3 10.2 5.4 31.2-14.7 37.2-14.9 4.4-35.9.8-47.1-.1-7-.6-32.4-1.7-34.6-15.9-.7-4.1.3-11.2 1.6-20.6.4-3.2 1.4-12.2 4.7-22.1 2.8-8 6.8-15.4 11.8-23.7 1.8-3 4-7.9 9.8-13.9 8.1-8.4 18-14.2 23.7-16.8 4.2-1.9 6.6 1.4 7.7 4 .9 2.2 6.1 9.2 8.5 12.5.7 1 1.2 3.2-.3 4.2-1.4 1.1-2.9 1.9-2.9 1.9z" fill="#ffca28"/><path d="m68.68 5.74c-.67.03-1.39.2-2.18.56-5.7 2.6-15.6 8.4-23.7 16.8-5.8 6-8 10.9-9.8 13.9-5 8.3-9 15.7-11.8 23.7-3.3 9.9-4.3 18.9-4.7 22.1-1.3 9.4-2.3 16.5-1.6 20.6 2.2 14.2 27.6 15.3 34.6 15.9 11.2.9 32.2 4.5 47.1.1 20.1-6 17-27 14.7-37.2-.74-3.39-2.02-6.38-3.69-8.99-3.32-.23-8.44.18-9.01 6.49-.4 4.3.7 14.5-6.5 20.2s-15.9 9-28.1 3c-1.1-.6-1.5-.2-.5 1 1 1.1 5.1 4.7 8.2 6.4 2.4 1.3 1.6 4.2-1.4 4.6-9.6 1.2-16.1-2.7-24.4-2.9-18.2-.5-20.1-.2-23.8-2.7 0 0-5-3.3-4.8-8.3.8-27.5 8.5-46.1 16.9-60 4.1-6.8 10.3-20.4 32.7-33.4 1.1-.6 3-1.1 4.6 1.4 2.2 3.5 3.4 5.1 5.1 7.7.88 1.27 1.97 1.6 2.86 1.62-2.31-3.21-4.66-6.56-5.26-8.02-.89-2.11-2.65-4.69-5.52-4.56zm8.82 22.96s.1 1.2.3 3.8-2.1 3-3.1 2.9-3.8-.6-6.3 1.3-7.7 3.1-10.2 3l.4.96c.55.16 1.09.29 1.6.34 5 .5 9.3-1.6 11.3-2.8 1.8-1.1 5.1-1 5.8-1 1.7 0 2.8-.8 3.7-2.4.79-1.38.4-3.83-1.43-5.82zm-27.4 10.4c-1.3 1-5.8 4.3-5.6 13.2.6 27.8-5.6 25.4-5.6 31.6 0 2.8 8.7 0 8.7 0l.18-.91c-.03 0-.06.01-.08.01-.7 0-1.3-.7-1.2-1.4 2-9.9 1.3-25.4 1.4-29.8.09-5.37 1.26-9.42 2.23-11.24zm31.58 20.99c-4.3.01-8.58.83-12.53 2.42.39.74 1.38 1.56 3.95.89 11.1-3 16.7-.3 19.8.3 1.57.3 2.45-.03 2.99-.55-4.4-2.04-9.3-3.07-14.21-3.06z" fill="#faa700"/><path d="m74.91 11.63c-.14.7.02 1.57.29 1.97.3.7 5.8 9.6 6.3 10.4.5.7.2 1.6-.3 2-.7.5-2.1 1.5-2.9 2.1-.6-.5-2.1-.9-3.5-.9-.9 0-2.4.6-3.9.5-1.9-.2-3.2-.6-2.1-3.8.4-1.1 1.2-1.1 1.9-1 1.4.2 2.5 2.9 2.8 3.3.6.8 1.4-.1.9-.7-.2-.3-.7-1-.9-1.6s.6-.8 1.1-.8c.7 0 1.8 0 3.8.7.4.1.7-.3.2-.8-2.1-1.7-4.6-.7-8.2-3.6 1.2-3.1.4-6 .1-6.9-.1-.3-.8-.7-.8.3 0 6-3.8 8.2-3.3 13.7-.8-.1-1.7-.2-2.7-.2-.5 0-.9.9.2 1 2.5.3 4.1 1.7 5.7 2.3 2.7 1.1 4.7-.9 8-.2s3.8 6.7-.5 6.8c-1.8.1-5.7.1-7 .9-2.4 1.4-9.2 5.3-20.5-2.1-1.4-.9-2.1.6-1.2 1.6 1 1.2.7 2.3.5 2.8s-.8 2.6-1.3 4.8c-.34 1.51.07 2.64.59 3.53.53-4.13 1.64-7.01 2.41-7.93 2-2.4 6.3.9 9.6 1.2 5 .5 9.3-1.6 11.3-2.8 1.8-1.1 5.1-1 5.8-1 1.7 0 2.8-.8 3.7-2.4.8-1.4.4-3.9-1.5-5.9 0 0 1.5-.8 2.9-1.9 1.5-1 1-3.2.3-4.2-2.04-2.8-6.06-8.23-7.79-11.17zm1.63 48.87c-9.78 1.48-18.81 7.14-22.84 17-1.9 4.6-4.1 5.4-6 5.5-.7 0-1.3-.7-1.2-1.4.45-2.22.75-4.74.96-7.33-1.05 1.43-1.91 4.34-3.06 7.33-.2.8-.9 1.3-1.7 1.4-6.9.9-8 5.7-8.5 8.8-.2.8 1 1.4 1.5.2 2.9-7.6 10.7-5.7 12.5-5.8 1.8-.2 6.4-1.1 8.1-5.7 4.9-13.1 15.7-16.8 16.9-17 2.16-.41 2.99-1.85 3.34-3zm23.03 22.3c-.57.03-1.12.45-1.17 1.2-.9 17.5-20.6 25.8-34.8 17-1.5-.9-2.7.5-1.4 1.5 12.9 10.5 27.6 5.6 34.3-2.7 3.6-4.5 5.2-10.8 4.4-15.8-.15-.85-.75-1.22-1.33-1.2z" fill="#b55e19"/></svg>