<svg enable-background="new 0 0 128 128" viewBox="0 0 128 128" xmlns="http://www.w3.org/2000/svg"><path d="m16.21 45.77h6.66v9.91h-6.66z" fill="#5c6567"/><path d="m57 46.9h6.9v9.16h-6.9z" fill="#5c6567"/><path d="m11.03 73.73h106.39v45.62h-106.39z" fill="#e1e1e1"/><path d="m6.97 122.72c0 .9.51 1.16 2.18 1.16s109.35-.13 110.25-.13 1.8-.77 1.8-1.93.3-3.68-.12-4.72-3.86-2.35-3.86-2.35h-106.52s-2.91 1.46-3.47 2.57-.26 4.37-.26 5.4z" fill="#9a9a9a"/><path d="m46.54 74.86s-1.83.59-1.93 1.77 0 36.62 0 37.21.3 1.38 1.52 1.38h36.34s1.32-.59 1.32-1.28 0-36.62 0-37.41-1.22-1.58-1.93-1.67c-.7-.09-35.32 0-35.32 0z" fill="#00c1ec"/><path d="m44.51 95.27h39.39v3.76h-39.39z" fill="#178bfd"/><path d="m44.51 92.23h39.38v3.35h-39.38z" fill="#00aa46"/><path d="m62.58 74.76h3.65v40.47h-3.65z" fill="#b0e4ff"/><path d="m64.74 59.72-58.72 12.37s.2 2.39 1.76 3.21c.87.46 3.24.32 3.24.32s108.46 0 109.19 0 1.69-.82 1.78-1.87 0-2.1 0-2.1z" fill="#016da7"/><path d="m6.02 72.1-.03-4.63 2.51-3.67 113.56 4.16-.02 4.09s-115.81-.17-116.02.05z" fill="#178bfd"/><path d="m5.99 67.47v-6.72l55.33-3.6 60.79 3.6-.05 7.2c0 .01-115.99-.4-116.07-.48z" fill="#e1e1e1"/><path d="m5.99 60.75s0-2.57 0-3.92.63-2.7 2.7-2.7 109.21 0 110.64 0 2.85.72 2.85 1.99-.07 4.63-.07 4.63z" fill="#02ab46"/><path d="m11.1 4.28 56.99-.05c1.36 0 2.47 1.1 2.47 2.47v39.8c0 1.68-1.36 3.03-3.03 3.03h-56.06c-1.41 0-2.55-1.13-2.57-2.53l-.15-40.34c-.02-1.31 1.04-2.38 2.35-2.38z" fill="#ed6d30"/><path d="m21.99 21.55c.77-.35 2.65-3.43 5-3.25s2.39 3.26.42 5.84c-1.93 2.53-3.73 4.52-6.75 8.61-3.07 4.17-3.07 8.19-2.53 8.85s1.81.54 5 .6 12.53.06 12.95-.3.24-4.7.24-5.24-.72-1.45-1.57-1.45c-.84 0-7.41.06-7.41.06s2-2.73 4.1-5.72c3.13-4.46 5.29-8.6 4.94-11.62-.6-5.24-4.04-8.01-10.36-7.23-5.46.68-8.91 6.56-8.61 7.29.59 1.41 3.8 3.92 4.58 3.56z" fill="#fff"/><path d="m60.41 28.66c-.04-.54-1.2-.54-2.11-.54-.9 0-2.05-.06-2.05-.06s-.12-16.26-.12-17.22-1.32-1.63-2.89-1.57c-1.45.06-2.11 0-3.25 1.51-.93 1.22-11.36 17.36-12.23 18.67-1.14 1.75-2.23 4.88.96 5.24s10.84 0 10.84 0 0 5.48 0 6.08.18 1.08 1.14 1.08h4.64c.6 0 .9-.3.9-1.51 0-1.2 0-5.66 0-5.66s2.53.06 3.25 0 .9-1.14.9-1.75.14-2.77.02-4.27zm-14.63-.31 3.73-6.08c-.12 0 0 5.96 0 5.96z" fill="#fff"/><g fill="#a7d0d6"><path d="m89.14 79.29h23.03v17.71h-23.03z"/><path d="m16.63 79.53h22.91v17.83h-22.91z"/></g></svg>