<svg enable-background="new 0 0 128 128" viewBox="0 0 128 128" xmlns="http://www.w3.org/2000/svg" xmlns:xlink="http://www.w3.org/1999/xlink"><linearGradient id="a" gradientUnits="userSpaceOnUse" x1="62.0645" x2="62.0645" y1="20.9372" y2="126.1978"><stop offset="0" stop-color="#b2dfdb"/><stop offset="1" stop-color="#80cbc4"/></linearGradient><linearGradient id="b" gradientUnits="userSpaceOnUse" x1="64.8372" x2="64.8372" y1="90.7185" y2="49.5457"><stop offset=".3341" stop-color="#0277bd"/><stop offset="1" stop-color="#01579b"/></linearGradient><radialGradient id="c" cx="59.012" cy="40.8238" gradientTransform="matrix(.9795 -.2016 .1373 .6672 -4.3942 25.4841)" gradientUnits="userSpaceOnUse" r="31.0098"><stop offset="0" stop-color="#40bdf6"/><stop offset="1" stop-color="#039be5"/></radialGradient><path d="m94.17 48.8c0-18.11-8.13-40.74-31.87-44.3-17.42-2.61-35.5 4.47-31.87 32.8 2.37 18.57 9.39 18.98 7.3 51.16-1.68 25.84 9.91 35.54 24.57 35.54s24.18-6.76 26.54-27.31 5.33-36.44 5.33-47.89z" fill="url(#a)"/><path d="m87.56 46.58c-4.88-13.15-24.15-20.9-30.54-22.47l-3.85-5.56c-1.3-1.99-2.8-2.61-4.3-1.69-1.72 1.05-.78 2.49-.11 4.39l1.91 6c-3.72 4.64-12.08 15.03-10.35 33.76 1.48 15.95 7.68 25 7.9 25.46.62 1.33 3.09 2.59 4.84 1.78s1.99-3.02 1.14-4.85c-.03-.07-3.14-9.39-5.24-15.71-1.28-3.84-1.25-8 .1-11.82 2.15-6.06 4.88-15.13 9.39-20.12 0 0 10.18 6.37 17.12 12.8 4.3 3.98 6.76 9.54 6.05 15.36-.72 5.88-1.76 13.81-2.57 17.82-.45 2.24-.7 4.52 1.56 5.39s3.56-1.04 4.41-3.24c.35-.93 8.15-22.19 2.54-37.3z" fill="url(#b)"/><path d="m87.56 46.58c-4.88-13.15-24.15-20.9-30.54-22.47l-3.85-5.56c-1.3-1.99-2.8-2.61-4.3-1.69-1.72 1.05-.78 2.49-.11 4.39l1.91 6c-3.72 4.64-12.08 15.03-10.35 33.76.55 5.95 3.06 14.88 3.06 14.88-.01-5.98-.06-7.79 2.12-15.27 2.17-7.47 5.21-18.99 12.38-26.94 0 0 13.94 7.91 22.72 18.01 8.83 10.16 7.67 20.25 7.67 20.25 1.73-8.46 1.68-18.93-.71-25.36z" fill="url(#c)"/></svg>