<svg enable-background="new 0 0 128 128" viewBox="0 0 128 128" xmlns="http://www.w3.org/2000/svg"><circle cx="63.93" cy="64" fill="#f77e00" r="60"/><circle cx="60.03" cy="63.1" fill="#ff9800" r="56.1"/><path d="m23.93 29.7c4.5-7.1 14.1-13 24.1-14.8 2.5-.4 5-.6 7.1.2 1.6.6 2.9 2.1 2 3.8-.7 1.4-2.6 2-4.1 2.5-9.38 3.1-17.47 9.21-23 17.4-2 3-5 11.3-8.7 9.2-3.9-2.3-3.1-9.5 2.6-18.3z" fill="#ffbd52" opacity=".65"/><path d="m102.23 38h-6.8c-1.1 0-2 .9-2 2v55.4c0 5.4-1.4 8.3-5.2 9.5-3.7 1.4-9.5 1.6-17.8 1.6-.87 0-1.64-.57-1.9-1.4-.5-1.6-1.1-3.17-1.8-4.7-.44-1.01.02-2.19 1.03-2.63.27-.12.57-.18.87-.17 5.8.2 11.4.1 13.3.1s2.6-.6 2.6-2.5v-55.3c0-1.1-.9-2-2-2h-57c-1.1 0-2-.9-2-2v-4.5c0-1.1.9-2 2-2h76.6c1.1 0 2 .9 2 2v4.4c.11 1.1-.69 2.08-1.79 2.19-.04.01-.08.01-.11.01zm-61.5 48v3.1c0 1.1-.9 2-2 2h-4.2c-1.1 0-2-.9-2-2v-37.3c0-1.1.9-2 2-2h33.4c1.1 0 2 .9 2 2v30.2c0 1.1-.9 2-2 2h-25.2c-1.11 0-2 .9-2 2zm0-26.2v14.2c0 1.1.9 2 2 2h16.9c1.1 0 2-.9 2-2v-14.2c0-1.1-.9-2-2-2h-16.9c-1.11 0-2 .9-2 2z" fill="#fafafa"/><path d="m23.93 29.7c4.5-7.1 14.1-13 24.1-14.8 2.5-.4 5-.6 7.1.2 1.6.6 2.9 2.1 2 3.8-.7 1.4-2.6 2-4.1 2.5-9.38 3.1-17.47 9.21-23 17.4-2 3-5 11.3-8.7 9.2-3.9-2.3-3.1-9.5 2.6-18.3z" fill="#ffbd52" opacity=".3"/></svg>