<svg enable-background="new 0 0 128 128" viewBox="0 0 128 128" xmlns="http://www.w3.org/2000/svg" xmlns:xlink="http://www.w3.org/1999/xlink"><radialGradient id="a" cx="63.6" cy="-2088.8999" gradientTransform="matrix(1 0 0 -1 0 -2026)" gradientUnits="userSpaceOnUse" r="56.9597"><stop offset=".5" stop-color="#fde030"/><stop offset=".9188" stop-color="#f7c02b"/><stop offset="1" stop-color="#f4a223"/></radialGradient><linearGradient id="b"><stop offset="0" stop-color="#ed7770"/><stop offset=".9" stop-color="#ed7770" stop-opacity="0"/></linearGradient><radialGradient id="c" cx="25.7006" cy="68.0232" gradientTransform="matrix(.9791 0 0 .9301 2.0871 8.5603)" gradientUnits="userSpaceOnUse" r="19.4444" xlink:href="#b"/><radialGradient id="d" cx="100.7714" cy="68.0232" gradientTransform="matrix(.9791 0 0 .9301 2.0871 8.5603)" gradientUnits="userSpaceOnUse" r="19.4444" xlink:href="#b"/><path d="m63.6 118.8c-27.9 0-58-17.5-58-55.9s30.1-55.9 58-55.9c15.5 0 29.8 5.1 40.4 14.4 11.5 10.2 17.6 24.6 17.6 41.5s-6.1 31.2-17.6 41.4c-10.6 9.3-25 14.5-40.4 14.5z" fill="url(#a)"/><path d="m111.49 29.67c5.33 8.6 8.11 18.84 8.11 30.23 0 16.9-6.1 31.2-17.6 41.4-10.6 9.3-25 14.5-40.4 14.5-18.06 0-37.04-7.35-48.18-22.94 10.76 17.66 30.99 25.94 50.18 25.94 15.4 0 29.8-5.2 40.4-14.5 11.5-10.2 17.6-24.5 17.6-41.4 0-12.74-3.47-24.06-10.11-33.23z" fill="#eb8f00"/><circle cx="27.25" cy="71.83" fill="url(#c)" opacity=".8" r="17.5"/><circle cx="100.75" cy="71.83" fill="url(#d)" opacity=".8" r="17.5"/><g fill="#422b0d"><path d="m48.96 56.89s-.05-.07-.16-.2c-.1-.13-.24-.31-.42-.54-.15-.16-.33-.35-.54-.57-.21-.24-.47-.49-.73-.75-.27-.25-.55-.51-.84-.72-.28-.23-.59-.4-.84-.54-.26-.16-.5-.2-.65-.25-.08-.03-.15-.03-.21-.04-.03.01-.06-.01-.09 0l-.04.01h-.02-.01c.12 0-.27.01.27-.01l-.55.02c-.14 0-.05.01-.04.01.03 0 .05 0 .07-.01.08-.03 0 0-.02 0-.03 0-.07.01-.11.03-.16.05-.4.09-.65.25-.25.14-.56.31-.84.54-.28.22-.57.47-.84.72-.52.51-.98 1.02-1.3 1.39-.33.38-.51.6-.51.6l-.23.27c-1.37 1.6-3.89 1.87-5.62.61-1.18-.86-1.69-2.2-1.47-3.48 0 0 .07-.41.27-1.12.21-.71.56-1.72 1.25-2.91.69-1.18 1.69-2.57 3.38-3.84.83-.62 1.84-1.24 3.04-1.66.29-.11.6-.21.92-.29.33-.08.59-.17 1.04-.23l.62-.09c.19-.02.47-.05.51-.05l.55-.04.31-.01h.03.06l.13.01h.24l.51.03c.34.03.67.09 1 .14.65.12 1.3.29 1.89.51 1.2.42 2.21 1.03 3.04 1.66 1.69 1.27 2.69 2.66 3.38 3.84.35.59.61 1.15.8 1.64.21.47.36.97.48 1.34.11.36.11.55.16.72.03.16.04.25.04.25.37 2.02-1.12 3.93-3.31 4.26-1.57.25-3.08-.38-3.95-1.5z"/><path d="m88.46 56.89s-.05-.07-.16-.2c-.1-.13-.24-.31-.42-.54-.15-.16-.33-.35-.54-.57-.21-.24-.47-.49-.73-.75-.27-.25-.55-.51-.84-.72-.28-.23-.59-.4-.84-.54-.26-.16-.5-.2-.65-.25-.08-.03-.15-.03-.21-.04-.03.01-.06-.01-.09 0l-.04.01h-.02-.01-.01c.12 0-.27.01.27-.01l-.55.02c-.14 0-.05.01-.04.01.03 0 .05 0 .07-.01.08-.03 0 0-.02 0-.03 0-.07.01-.11.03-.16.05-.4.09-.65.25-.25.14-.56.31-.84.54-.28.22-.57.47-.84.72-.52.51-.98 1.02-1.3 1.39-.33.38-.51.6-.51.6l-.23.27c-1.37 1.6-3.89 1.87-5.62.61-1.18-.86-1.69-2.2-1.47-3.48 0 0 .07-.41.27-1.12.21-.71.56-1.72 1.25-2.91.69-1.18 1.69-2.57 3.38-3.84.83-.62 1.84-1.24 3.04-1.66.29-.11.6-.21.92-.29.33-.08.59-.17 1.04-.23l.62-.09c.19-.02.47-.05.51-.05l.55-.04.31-.01h.03.06l.13.01h.24l.51.03c.34.03.67.09 1 .14.65.12 1.3.29 1.89.51 1.2.42 2.21 1.03 3.04 1.66 1.69 1.27 2.69 2.66 3.38 3.84.35.59.61 1.15.8 1.64.21.47.36.97.48 1.34.11.36.11.55.16.72.03.16.04.25.04.25.37 2.02-1.12 3.93-3.31 4.26-1.57.25-3.08-.38-3.94-1.5z"/><path d="m64.02 93.99c-12.57 0-22.51-5.95-27.99-12.32-.55-.64-.68-1.5-.33-2.25.35-.77 1.11-1.27 1.93-1.27.37 0 .75.1 1.08.29 5.65 3.26 15.14 7.29 25.28 7.29h.16c10.15 0 19.63-4.04 25.28-7.29.34-.19.71-.3 1.08-.29.82 0 1.58.5 1.93 1.27.34.75.22 1.62-.33 2.25-5.48 6.36-15.43 12.32-27.99 12.32"/></g></svg>