<svg enable-background="new 0 0 128 128" viewBox="0 0 128 128" xmlns="http://www.w3.org/2000/svg" xmlns:xlink="http://www.w3.org/1999/xlink"><radialGradient id="a" cx="63.6" cy="63" gradientUnits="userSpaceOnUse" r="56.96"><stop offset=".5" stop-color="#fde030"/><stop offset=".92" stop-color="#f7c02b"/><stop offset="1" stop-color="#f4a223"/></radialGradient><path d="m63.6 118.8c-27.9 0-58-17.5-58-55.9s30.1-55.9 58-55.9c15.5 0 29.8 5.1 40.4 14.4 11.5 10.2 17.6 24.6 17.6 41.5s-6.1 31.2-17.6 41.4c-10.6 9.3-25 14.5-40.4 14.5z" fill="url(#a)"/><path d="m43 47.7c9.58.03 17.33 7.82 17.3 17.4s-7.82 17.33-17.4 17.3-17.33-7.82-17.3-17.4c.06-9.57 7.83-17.29 17.4-17.3" fill="#fff"/><circle cx="42.7" cy="62.8" fill="#422b0d" r="15.4"/><g fill="#fff"><ellipse cx="-7.2581" cy="83.499" rx="2.5999" ry="2.3999" transform="matrix(.765932 -.642921 .642921 .765932 0 0)"/><ellipse cx="-3.5995" cy="69.639" rx="9.0002" ry="7.3002" transform="matrix(.802182 -.597079 .597079 .802182 0 0)"/><path d="m86 47.7c9.58.03 17.33 7.82 17.3 17.4s-7.82 17.33-17.4 17.3-17.33-7.82-17.3-17.4c.06-9.57 7.83-17.29 17.4-17.3"/></g><circle cx="85.7" cy="62.8" fill="#422b0d" r="15.4"/><ellipse cx="25.777" cy="111.15" fill="#fff" rx="2.5999" ry="2.3999" transform="matrix(.765932 -.642921 .642921 .765932 0 0)"/><ellipse cx="30.899" cy="95.326" fill="#fff" rx="9.0002" ry="7.3002" transform="matrix(.802182 -.597079 .597079 .802182 0 0)"/><g fill="none"><path d="m43 47.7c-9.58.03-17.33 7.82-17.3 17.4s7.82 17.33 17.4 17.3 17.33-7.82 17.3-17.4c-.06-9.57-7.83-17.29-17.4-17.3"/><circle cx="43.3" cy="62.8" r="15.4"/><ellipse cx="37.79" cy="68.56" rx="2.4" ry="2.6" transform="matrix(.6429 -.7659 .7659 .6429 -39.022 53.426)"/><ellipse cx="47.29" cy="58.01" rx="7.3" ry="9" transform="matrix(.5971 -.8022 .8022 .5971 -27.48 61.31)"/></g><path d="m71.119 68.391c-.7083.017119-1.383.1586-2.0117.39453 1.7147 7.8052 8.6774 13.641 16.992 13.615 8.34-.026117 15.291-5.9356 16.932-13.785-.21607-.06522-.43573-.12457-.66211-.16602l-.01953.021484c-2.16-.36-4.349.47898-5.709 2.209-.97 1.27-2.4898 1.9912-4.0898 1.9512h-.27148c-1.1 0-2.1889.29914-3.1289.86914-1.48.9-3.3501.9-4.8301 0-.94-.57-2.0309-.86914-3.1309-.86914-.24-.02-.46898-.02-.70898 0-1.71.25-3.4205-.43102-4.4805-1.791-1.14-1.55-2.9509-2.4592-4.8809-2.4492z" fill="#29b6f6"/><path d="m28.641 68.35c-.89306.021585-1.7355.23818-2.4941.59961 1.7759 7.7223 8.697 13.477 16.953 13.451 8.3838-.026255 15.366-5.997 16.959-13.908-.053234-.006051-.10452-.016795-.1582-.021485-2.16-.36-4.3512.48898-5.7012 2.209-.98 1.27-2.4996 1.9912-4.0996 1.9512h-.25976c-1.1-.01-2.1889.28914-3.1289.86914-1.49.9-3.3518.9-4.8418 0-.94-.58-2.0289-.87914-3.1289-.86914-.23-.01-.47117-.01-.70117 0-1.73.26-3.4693-.44008-4.5293-1.8301-1.14-1.55-2.9491-2.4612-4.8691-2.4512z" fill="#29b6f6"/><g fill="#422b0d"><path d="m27.4 39.8c-2.2.4-2.3 3.6.1 3.7 5.3.07 10.42-1.9 14.3-5.5 1.48-1.28 2.73-2.8 3.7-4.5.58-.83.38-1.97-.45-2.55s-1.97-.38-2.55.45l-.1.1c-3.92 4.38-9.21 7.31-15 8.3z"/><path d="m84.5 31.4c-.58-.83-1.72-1.03-2.55-.45s-1.03 1.72-.45 2.55c.97 1.7 2.22 3.22 3.7 4.5 3.9 3.57 9.01 5.54 14.3 5.5 2.5-.1 2.3-3.3.1-3.7-5.86-.96-11.19-3.93-15.1-8.4"/></g><path d="m111.49 29.67c5.33 8.6 8.11 18.84 8.11 30.23 0 16.9-6.1 31.2-17.6 41.4-10.6 9.3-25 14.5-40.4 14.5-18.06 0-37-7.35-48.18-22.94 10.76 17.66 31 25.94 50.18 25.94 15.4 0 29.8-5.2 40.4-14.5 11.5-10.2 17.6-24.5 17.6-41.4 0-12.74-3.47-24.06-10.11-33.23z" fill="#eb8f00"/><path d="m64 103.2c10.8 0 17.8-7.9 19.7-11.6.7-1.4.7-2.6.1-3.1-.64-.4-1.46-.4-2.1 0-.32.13-.62.3-.9.5-4.9 3.52-10.77 5.44-16.8 5.5-6.01-.08-11.87-1.96-16.8-5.4-.28-.2-.58-.37-.9-.5-.64-.4-1.46-.4-2.1 0-.6.6-.6 1.7.1 3.1 1.9 3.6 8.9 11.5 19.7 11.5z" fill="#422b0d"/></svg>