<svg enable-background="new 0 0 128 128" viewBox="0 0 128 128" xmlns="http://www.w3.org/2000/svg" xmlns:xlink="http://www.w3.org/1999/xlink"><linearGradient id="a" gradientTransform="matrix(1 0 0 -1 0 128)" gradientUnits="userSpaceOnUse" x1="64" x2="64" y1="4.2633" y2="31.0502"><stop offset=".00051609" stop-color="#e3e3e3"/><stop offset="1" stop-color="#c9c9c9"/></linearGradient><linearGradient id="b"><stop offset=".0167" stop-color="#eee"/><stop offset=".3279" stop-color="#e3e3e3"/><stop offset=".8795" stop-color="#c5c5c5"/><stop offset="1" stop-color="#bdbdbd"/></linearGradient><linearGradient id="c" gradientUnits="userSpaceOnUse" x1="64.1592" x2="64.1592" xlink:href="#b" y1="4.2475" y2="55.6003"/><linearGradient id="d" gradientTransform="matrix(1 0 0 -1 0 128)" gradientUnits="userSpaceOnUse" x1="64.1844" x2="64.1844" xlink:href="#b" y1="123.7195" y2="74.4289"/><path d="m116 120.99v3.01h-104v-3.01c0-14.66 17.69-22.05 38.2-24.25 4.52-.5 9.17-.73 13.8-.74h.14c4.59 0 9.2.26 13.66.78 20.58 2.4 38.2 10.36 38.2 24.21z" fill="url(#a)"/><path d="m77.8 96.78v7.12c0 5.47-5.61 9.91-12.54 9.91h-2.51c-6.93 0-12.55-4.44-12.55-9.92v-7.15c4.52-.5 9.17-.73 13.8-.74h.14c4.59 0 9.2.26 13.66.78z" fill="#b9bbbd"/><path d="m61.78 111.5h4.54v12.5h-4.54z" fill="#b9bbbd"/><path d="m73.08 90.17h-18.16v9.98c0 4.51 3.7 8.17 8.26 8.17h1.65c4.56 0 8.26-3.66 8.26-8.17v-9.98z" fill="#c48e6a"/><path d="m91.33 50.52h-54.66c-5.89 0-10.71 5.14-10.71 11.41s4.82 11.41 10.71 11.41h54.65c5.89 0 10.71-5.14 10.71-11.41s-4.81-11.41-10.7-11.41z" fill="#c48e6a"/><path d="m64 11.16c-17.4 0-33.52 18.61-33.52 45.39 0 26.64 16.61 39.81 33.52 39.81s33.52-13.17 33.52-39.81c.01-26.78-16.12-45.39-33.52-45.39z" fill="#e0bb95"/><ellipse cx="47.56" cy="58.9" fill="#5d4037" rx="4.93" ry="5.1"/><ellipse cx="80.44" cy="58.9" fill="#5d4037" rx="4.93" ry="5.1"/><path d="m67.86 68.15c-.11-.04-.21-.07-.32-.08h-7.07c-.11.01-.22.04-.32.08-.64.26-.99.92-.69 1.63s1.71 2.69 4.55 2.69 4.25-1.99 4.55-2.69c.3-.71-.06-1.37-.7-1.63z" fill="#c48e6a"/><path d="m72.43 76.23c-3.19 1.89-13.63 1.89-16.81 0-1.83-1.09-3.7.58-2.94 2.24.75 1.63 6.45 5.42 11.37 5.42s10.55-3.79 11.3-5.42c.75-1.66-1.1-3.33-2.92-2.24z" fill="#6d4c41"/><path d="m64.07 5.92h-.02s-.01 0-.02 0c-45.43.25-36.17 50.34-36.17 50.34s5.1 8.99 5.1 8.81c-.16-7.25 2.74-20.09 4.8-25.55 1.04-2.76 3.9-4.36 6.79-3.83 4.46.8 11.55 1.8 19.38 1.8h.08.08c7.83 0 14.92-1 19.37-1.81 2.9-.53 5.76 1.08 6.79 3.83 2.06 5.47 4.96 18.3 4.8 25.55 0 .18 5.1-8.81 5.1-8.81s9.35-50.08-36.08-50.33z" fill="#ab872f"/><path d="m88.1 50.88c0-.01-2.29-3.61-7.6-3.61s-7.6 3.6-7.6 3.6v.01c-.19.26-.3.58-.3.92 0 .87.71 1.58 1.57 1.58.18 0 .62-.13.66-.15 3.18-1.31 5.67-1.32 5.67-1.32s2.47.01 5.65 1.32c.04.02.48.15.66.15.87 0 1.57-.71 1.57-1.58.02-.35-.1-.67-.28-.92z" fill="#ab872f"/><path d="m55.09 50.88c.01-.01-2.29-3.61-7.59-3.61s-7.6 3.6-7.6 3.6l.01.01c-.19.26-.3.58-.3.92 0 .87.71 1.58 1.58 1.58.18 0 .62-.13.66-.15 3.18-1.31 5.67-1.32 5.67-1.32s2.47.01 5.65 1.32c.04.02.48.15.66.15.87 0 1.58-.71 1.58-1.58-.02-.35-.13-.67-.32-.92z" fill="#ab872f"/><path d="m104.51 43.89s-5.72-8.44-30.88-16.69c-19.9-6.53-37.98-6.73-46.06-5.61 0 0-.25.23-.91 1.25 0 0 22.46-2.37 49.08 7.99 9.78 3.81 22.83 8.57 28.23 16.47z" fill="#b9bbbd"/><path d="m64.36 39.18c-23.05-5.1-36-6.83-40.52-2.29-.62-6.69 1.07-11.28 2.85-13.89 2.05-3.01 4.66-6.72 7.55-8.83 10.27-7.5 19.04-10.17 29.21-10.17 9.96 0 22.17 6.24 31.22 12.73 2.91 2.09 4.87 3.69 6.92 6.69 7.8 11.42-.3 34.26-.3 34.26s-9.97-12.54-36.93-18.5z" fill="none"/><path d="m60.22 40.53c23.15-4.54 37.45-7.4 44.77-3.08.61-6.69-1.47-11.53-3.39-14.03-8.18-10.67-28.11-19.42-38.29-19.42-9.96 0-27.31 4.67-36.77 19-7.63 11.55.3 34.26.3 34.26s6.33-11.43 33.38-16.73z" fill="url(#c)"/><path d="m23.64 43.47s4.34-8.02 29.51-16.27c19.9-6.52 39.36-6.31 47.43-5.19 0 0 .25.23.91 1.25 0 0-23.84-2.79-50.46 7.57-9.78 3.81-21.45 8.15-26.85 16.05z" fill="#b9bbbd"/><path d="m104.98 36.73c0 .24 0 .48-.01.72-.01 1.87-.15 3.74-.37 5.55-.13 1.17-.3 2.3-.49 3.4-1.09 6.39-2.82 11.28-2.82 11.28s-9.65-12.13-35.63-18.21c-.43-.09-.86-.19-1.31-.29-1.47-.33-2.91-.64-4.31-.93-.8-.17-1.59-.33-2.37-.49-19.14-3.88-29.77-4.95-33.84-.87-.61-6.69 1.08-11.28 2.86-13.89.1-.15.21-.3.32-.45.31-.44.66-.89 1.03-1.36 2.16-2.69 3.85-5.31 6.2-7.02 6.42-4.69 12.24-7.49 18.19-8.93h.01c2.78-.67 5.6-1.05 8.5-1.18.4-.02.8-.03 1.19-.04.4-.02.8-.02 1.18-.02.31 0 .63.01.95.02 1.62.05 3.29.26 5 .6.33.06.67.13 1.01.21 8.34 1.91 17.34 6.83 24.41 11.9 1.46 1.05 2.67 1.97 3.78 3 .07.06.14.13.21.2 1.03.99 1.97 2.08 2.93 3.49 1.97 2.89 2.93 6.53 3.25 10.34.08.98.12 1.98.13 2.97z" fill="#c4c6c7"/><path d="m104.61 43c-.13 1.17-.3 2.3-.49 3.4-6.12-7.26-18.52-11.8-27.99-15.49-23.38-9.09-43.29-8.79-49.12-8.36.31-.44.66-.89 1.03-1.36 9.14-.95 26.64-.34 45.91 5.98 19.72 6.46 27.87 13.03 30.66 15.83z" fill="#b9bbbd"/><path d="m105.04 36.76c-.02-.01-.04-.02-.06-.03-6.14-3.23-36.35-.76-44.94 1.52-.22.06-.42.11-.61.17-32.83 9.97-32.55 18.33-32.59 18.82v.02s0 0-.01-.01c-.05-.16-.55-1.61-1.15-3.88-.54-1.97-1.15-4.55-1.63-7.44-.18-1.09-.34-2.23-.48-3.4-.39-3.46-.52-7.15-.06-10.63.16-1.28.4-2.53.74-3.73v-.01c.52-1.87 1.26-3.61 2.28-5.16 6.87-10.39 15.96-15.5 25.91-17.76h.01c2.52-.57 5.02-.94 7.42-1.12.36-.02.72-.04 1.08-.06.4-.02.8-.03 1.19-.04.39-.02.79-.02 1.17-.02.31 0 .63.01.95.02.39.02.81.04 1.22.07 1.2.11 2.46.28 3.77.53.33.06.67.13 1.01.21 3.43.73 7.11 1.94 10.74 3.51.9.39 1.79.8 2.68 1.24h.01c5.58 2.7 10.87 6.21 14.76 10.15.07.06.14.13.21.2.55.55 1.05 1.12 1.54 1.69.38.45.73.9 1.06 1.35.11.15.23.3.33.45 1.54 2.17 3.36 5.4 3.53 10.37.04.93.01 1.92-.08 2.97z" fill="url(#d)"/><g fill="#b9bbbd"><path d="m101.27 22.97c-5.64-.42-27.08-1.23-50.64 7.94-9.44 3.68-20.44 7.79-26.57 15.02-.18-1.09-.34-2.23-.48-3.4 2.82-2.81 9.62-8.93 29.23-15.36 19.34-6.34 38.29-6.51 47.39-5.55.38.45.74.9 1.07 1.35z"/><path d="m105.04 36.76c-.02-.01-.04-.02-.06-.03 0 .24 0 .48-.01.72-4.61-.34-21.37-1.09-39.31 2.02-4.07.71-8.2 1.62-12.27 2.77-9.71 2.76-20.42 7.78-26.55 15l-.01.01c-.05-.16-.55-1.61-1.15-3.88 3.65-3.19 12.09-10.34 26.42-14.25 1.81-.49 3.67-.95 5.57-1.36 19.18-4.18 42.04-4.44 47.17-4 .09.01.19.02.27.03.05.93.02 1.92-.07 2.97z"/><path d="m83.68 9.58c-8.35.07-23.84 1.72-37.55 7.78-6.75 2.99-18.27 10.01-22.61 14.54.16-1.28.4-2.53.74-3.73v-.01c2.31-2.3 7.31-7.33 20.23-12.7 14.04-5.83 29.26-7.53 36.51-7.12.91.39 1.79.8 2.68 1.24z"/></g></svg>