<svg enable-background="new 0 0 128 128" viewBox="0 0 128 128" xmlns="http://www.w3.org/2000/svg"><path d="m28.19 121.77s-1.75 2.23-6.3 2.23-6.3-2.23-6.3-2.23v-78.06h12.6z" fill="#9e9e9e"/><path d="m28.19 121.77s-1.75 2.23-6.3 2.23-6.3-2.23-6.3-2.23v-30.07s1.28-2.44 5.96-2.44 6.64 2.44 6.64 2.44z" fill="#bdbdbd"/><path d="m112.4 121.77s-1.75 2.23-6.3 2.23-6.3-2.23-6.3-2.23v-78.06h12.6z" fill="#9e9e9e"/><path d="m112.4 121.77s-1.75 2.23-6.3 2.23-6.3-2.23-6.3-2.23v-30.07s1.28-2.44 5.96-2.44 6.64 2.44 6.64 2.44z" fill="#bdbdbd"/><path d="m121.27 81.86h-114.54c-1.51 0-2.73-1.22-2.73-2.73v-34.96c0-1.51 1.22-2.73 2.73-2.73h114.54c1.51 0 2.73 1.22 2.73 2.73v34.96c0 1.51-1.22 2.73-2.73 2.73z" fill="#9e9e9e"/><path d="m121.27 43.44h-114.54c-1.51 0-2.73 1.22-2.73 2.73v34.96c0 1.51 1.22 2.73 2.73 2.73h114.54c1.51 0 2.73-1.22 2.73-2.73v-34.96c0-1.51-1.22-2.73-2.73-2.73z" fill="#ffd600"/><g fill="#212121"><path d="m17.43 43.44-13.43 13.43v19.8l33.23-33.23z"/><path d="m55.1 43.44-40.41 40.42h19.8l40.41-40.42z"/><path d="m92.78 43.44-40.42 40.42h19.8l40.41-40.42z"/><path d="m124 49.89-33.97 33.97h19.8l14.17-14.17z"/></g><path d="m113.8 45.19h-15.39c-1.44 0-2.5-.94-2.16-1.9l1.07-6.71h17.55l1.07 6.71c.36.97-.7 1.9-2.14 1.9z" fill="#e2a610"/><circle cx="106.1" cy="23.71" fill="#ffca28" r="12.71"/><circle cx="106.1" cy="23.71" fill="#ff5722" r="9.39"/><path d="m114.88 36.68h-17.55s.06-2.8 5.08-2.8h7.44c5.31 0 5.03 2.8 5.03 2.8z" fill="#ffca28"/><path d="m107.21 19.21 2.4-3.1c.11-.14.33-.03.29.14l-.93 3.81c-.22.89.46 1.75 1.38 1.73l3.92-.06c.18 0 .23.24.07.32l-3.56 1.65c-.83.39-1.07 1.45-.49 2.16l2.49 3.03c.11.14-.04.33-.2.25l-3.51-1.75c-.82-.41-1.8.06-2 .96l-.82 3.84c-.04.18-.29.18-.32 0l-.82-3.84c-.19-.9-1.18-1.37-2-.96l-3.51 1.75c-.16.08-.32-.12-.2-.25l2.49-3.03c.58-.71.34-1.77-.49-2.16l-3.56-1.65c-.16-.08-.11-.32.07-.32l3.92.06c.92.01 1.6-.84 1.38-1.73l-.93-3.81c-.04-.17.18-.28.29-.14l2.4 3.1c.59.72 1.68.72 2.24 0z" fill="#ffd5ca"/><path d="m29.59 45.19h-15.39c-1.44 0-2.5-.94-2.16-1.9l1.07-6.71h17.55l1.07 6.71c.36.97-.7 1.9-2.14 1.9z" fill="#e2a610"/><circle cx="21.9" cy="23.71" fill="#ffca28" r="12.71"/><circle cx="21.9" cy="23.71" fill="#ff5722" r="9.39"/><path d="m30.67 36.68h-17.55s.06-2.8 5.08-2.8 7.44 0 7.44 0c5.31 0 5.03 2.8 5.03 2.8z" fill="#ffca28"/><path d="m23 19.21 2.4-3.1c.11-.14.33-.03.29.14l-.93 3.81c-.22.89.46 1.75 1.38 1.73l3.92-.06c.18 0 .23.24.07.32l-3.56 1.65c-.83.39-1.07 1.45-.49 2.16l2.49 3.03c.11.14-.04.33-.2.25l-3.51-1.75c-.82-.41-1.8.06-2 .96l-.82 3.84c-.04.18-.29.18-.32 0l-.82-3.84c-.19-.9-1.18-1.37-2-.96l-3.51 1.75c-.16.08-.32-.12-.2-.25l2.49-3.03c.58-.71.34-1.77-.49-2.16l-3.56-1.65c-.16-.08-.11-.32.07-.32l3.92.06c.92.01 1.6-.84 1.38-1.73l-.93-3.81c-.04-.17.18-.28.29-.14l2.4 3.1c.59.72 1.68.72 2.24 0z" fill="#ffd5ca"/></svg>