<svg enable-background="new 0 0 128 128" viewBox="0 0 128 128" xmlns="http://www.w3.org/2000/svg" xmlns:xlink="http://www.w3.org/1999/xlink"><linearGradient id="a" gradientUnits="userSpaceOnUse" x1="42.2342" x2="-3.6563" y1="41.4291" y2="163.1163"><stop offset=".3085" stop-color="#d3cac3"/><stop offset=".7444" stop-color="#6d94a5"/></linearGradient><linearGradient id="b"><stop offset=".2923" stop-color="#d3cac3"/><stop offset=".9998" stop-color="#6d94a5"/></linearGradient><linearGradient id="c" gradientUnits="userSpaceOnUse" x1="53.6493" x2="53.6493" xlink:href="#b" y1="100.495" y2="122.0381"/><linearGradient id="d"><stop offset="0" stop-color="#fff"/><stop offset=".921" stop-color="#cdd7db" stop-opacity="0"/></linearGradient><radialGradient id="e" cx="26.6683" cy="105.7215" gradientUnits="userSpaceOnUse" r="10.0236" xlink:href="#d"/><linearGradient id="f" gradientUnits="userSpaceOnUse" x1="67.4783" x2="123.5049" xlink:href="#b" y1="90.9669" y2="90.9669"/><radialGradient id="g" cx="95.8207" cy="81.8918" gradientUnits="userSpaceOnUse" r="20.2565" xlink:href="#d"/><radialGradient id="h" cx="61.144" cy="5.6809" gradientTransform="matrix(.9775 .2108 -.2108 .9775 5.7795 -9.0382)" gradientUnits="userSpaceOnUse" r="6.5677" xlink:href="#d"/><radialGradient id="i" cx="71.1254" cy="23.3634" gradientTransform="matrix(.9775 .2108 -.2108 .9775 5.7795 -9.0382)" gradientUnits="userSpaceOnUse" r="5.3865" xlink:href="#d"/><radialGradient id="j" cx="48.5663" cy="29.2326" gradientTransform="matrix(.9775 .2108 -.2108 .9775 5.7795 -9.0382)" gradientUnits="userSpaceOnUse" r="6.5677" xlink:href="#d"/><path d="m69.19 71.88c-19.34-.75-25.48 11.45-32.74 16.57-5.57 3.93-14.76 3.28-14.76 3.28-6.98 1.2-11.57 5.04-11.57 11.94 0 6.55 3.53 12.91 12.93 12.91l63.22-2.2s2.58-41.74-17.08-42.5z" fill="#d3cac3"/><path d="m9.96 84.32 19.91-50.01 13.81 5.3s-4.6 24.51-5.13 30.6 5.13 20.37 3.95 32.98c-1.32 14.13-6.89 17.83-17.52 19.04-7.44.85-15.83-2.52-18.16-6.79-3.44-6.3-4.43-14.18 3.14-31.12z" fill="#90a4ae"/><path d="m28.43 37.83c.77-.05 1.92-.37 3.97 2.11 1.52 1.84 4.92 4.98 8.9 5.19.69-3.36 1.19-5.71 1.19-5.71l-12.63-5.1z" fill="#466b7d"/><path d="m14.13 98.73s15.13-45.62 21.08-62.25l-5.35-2.16-19.9 50c-7.57 16.94-6.58 24.81-3.14 31.12 2.33 4.28 9.16 7.86 16.6 7.01 1.84-.21 3.48-.57 4.97-1.07-5.3-8.63-14.26-22.65-14.26-22.65z" fill="url(#a)"/><path d="m28.43 37.83c.77-.05 1.92-.37 3.97 2.11 1.52 1.84 6.11 5.86 10.09 6.07.69-3.36 1.18-6.39 1.18-6.39l-13.81-5.3z" fill="#466b7d"/><path d="m39.09 76.07s.06 5.87-4.94 10.17c-7.74 6.66-23.47 2.86-26.26 21.28-.74 4.87-2.74 4.06-2.74 4.06s2.6 11.75 17.94 10.9c11.31-1.01 17.63-9.15 19.07-18.43 1.51-9.65-3.07-27.98-3.07-27.98z" fill="#466b7d"/><path d="m81.58 71.13c-25.26 0-32.72 7.64-38.7 13.78-2.92 3-5.23 5.37-9.31 6.43-3.6.94-9.18 2.09-10.8 2.42-.02 0-.04.01-.06.01-7.86 1.36-12.54 6.85-12.54 14.68 0 3.93 1.31 7.35 3.79 9.87 1.95 1.99 5.64 4.35 12.1 4.35h.05.05l68.95-2.27s6.21-33.08-3.09-44.41c-2.62-3.18-6.23-4.86-10.44-4.86z" fill="url(#c)"/><path d="m76.08 80.35c-17.38-3.08-24.15 5.86-33.58 13.21-4.28 3.34-15.86 4.56-15.86 4.56-6.98 1.2-11.57 5.04-11.57 11.94 0 7.18 3.53 12.56 12.93 12.56l63.22-2.2c0 .01 4.23-36.64-15.14-40.07z" fill="#90a4ae"/><path d="m70.82 88.15c.03-4.01-.08-7.17-.16-9.47v-.12c-.1-2.86-.46-5.05-.93-6.75-.2.03-.41.05-.61.08-4.25-.27-8.48.6-8.48.6s4.87 1.23 5.41 9.04c.18 2.59.25 3.26.19 7.5-.47 34.51 27.89 31.43 27.89 31.43l.31-1.71c-16.92-3.08-23.76-11.94-23.62-30.6z" fill="#466b7d"/><circle cx="28.27" cy="110.96" fill="#466b7d" r="7.42"/><circle cx="28.45" cy="109.74" fill="#a38e7a" r="6.55"/><circle cx="28.45" cy="109.74" fill="url(#e)" r="6.55"/><circle cx="29.39" cy="110.16" fill="#c6b3a1" r="5.39"/><path d="m121.79 88.89h.02c.01-17.13-14.62-28.3-31.06-27.66-15.19.6-23.27 10.67-23.27 10.67s4.67 4.46 2.5 16.15l.02.02c-.08.32-.15.65-.22.98-2.83 14.38 6.53 28.33 20.9 31.16s28.31-6.54 31.13-20.92c.7-3.55.66-7.07-.02-10.4z" fill="#90a4ae"/><path d="m121.79 88.89 1.71.17c-.45-16.8-16.31-28.47-32.75-27.83-15.19.6-23.27 10.67-23.27 10.67s.83.66 1.19 7.76c.12 2.37.19 5.45.16 9.47-.12 16.06 7.49 28.25 21.86 31.08s29.3-6.08 32.12-20.46c.69-3.55-.34-7.53-1.02-10.86z" fill="url(#f)"/><circle cx="98.03" cy="92.75" fill="#90a4ae" r="25.74"/><circle cx="100.55" cy="94.98" fill="#466b7d" r="15.37"/><circle cx="101.06" cy="92.86" fill="#a38e7a" r="14.25"/><circle cx="101.06" cy="92.86" fill="url(#g)" r="14.25"/><circle cx="102.82" cy="93.28" fill="#c6b3a1" r="12.5"/><path d="m68.35 20.1-8.67-4.53-7.93 8.47-.25 6.79 12.76 4.65s6.56-3.38 6.83-3.51-.11-5.54-.11-5.54z" fill="#212121"/><path d="m57.25 22.24c1.38-3.39 2.68-3.27 4.19-2.84 1.54.44 2.57 2.24 1.38 4.89l-2.05 6.11 6.88-2.1 2.88 2.99 1.65 3.62s-6.4 2.36-10.42 2.52-6.23-3.14-6.23-3.14l-2.82-1.3c.01 0 4.12-9.7 4.54-10.75z" fill="#466b7d"/><path d="m64.23 13.41c.12-2.62.26-5.99.26-6.06l-.06-.02c-.4-.08-3.03-.59-6.42-.98-3.92-.45-6.04.24-7.96 2.45l-11.15 11.29c-3.13 3.9-.64 9.19-.64 9.19l14.1 2.44s8.82-11.54 11.13-14.57c.13-.63.42-2.11.74-3.74z" fill="#6d94a5"/><path d="m38.26 29.28s-2.48-5.29.64-9.19l11.16-11.3c1.91-2.21 4.04-2.9 7.96-2.45 3.68.43 6.47.99 6.47.99s-.35 8.92-.45 9.08c-.11.16-11.68 15.3-11.68 15.3z" fill="#d3cac3"/><path d="m45.97 22.63 14.59-14.7 1.65 11.34-8.8 11.13-4.92-4.76z" fill="#90a4ae"/><path d="m68.4 11.42c-.81-2.65-1.68-3.47-3.91-4.08-4.32-1.19-7.45 3.49-4.81 8.23 2.87 5.16 7 13.66 7 13.66l6.36 5.09c.92-.34 1.97-1.95 1.19-4.57z" fill="#90a4ae"/><path d="m67.33 9.54c-.12-.11-.03-.76-.95-1.42-.56-.4-1.24-.61-1.9-.79-4.32-1.19-7.45 3.49-4.81 8.23 2.34 4.21 6.89 13.56 6.89 13.56s.68 2.4 1.12 2.52c.54.14 1.11-.2 1.39-.68s.08-.95.05-1.5c0 0-6.37-13.02-7-14.21s4.22-6.61 5.21-5.71z" fill="#466b7d"/><circle cx="64.55" cy="12.72" fill="#466b7d" r="4.6"/><circle cx="64.94" cy="12.22" fill="#a38e7a" r="4.29"/><circle cx="64.94" cy="12.22" fill="url(#h)" r="4.29"/><circle cx="65.7" cy="12.25" fill="#c6b3a1" r="3.46"/><circle cx="70.66" cy="31.29" fill="#466b7d" r="3.96"/><circle cx="70.86" cy="31.11" fill="#a38e7a" r="3.52"/><circle cx="70.86" cy="31.11" fill="url(#i)" r="3.52"/><circle cx="71.58" cy="31.3" fill="#c6b3a1" r="2.84"/><path d="m27.73 27.46c1.25-6.16 6.84-8.05 12.21-7.55 4.69.43 7.59 1.15 7.59 1.15-.57 2.14-.59 17.32-1.83 19.16-1.38 2.03-8.15.61-12.48-2.65-2.57-1.93-4.07-1.47-4.07-1.47s-2.19-4.88-1.42-8.64z" fill="#d9c6b6"/><ellipse cx="43.51" cy="30.68" fill="#90a4ae" rx="10.44" ry="9.86" transform="matrix(.2576 -.9662 .9662 .2576 2.6603 64.8204)"/><path d="m38.13 29.42c.8-3.18 4.02-5.63 8.01-4.38 3.17.99 18.86 6.8 18.86 6.8l.36 7.67s-18.16-.72-19.9-.92c-7.53-.87-8.14-5.95-7.33-9.17z" fill="#466b7d"/><path d="m67.91 36.95c.39-1.8-.69-3.56-2.42-4.08v-.03s-14.51-5.46-17.76-6.17c-3.25-.7-6.45 1.36-7.15 4.61s1.36 6.45 4.61 7.15c1.59.34 16.94 1.16 19.15 1.28.04 0 .09.01.13.01.09 0 .14.01.14.01v-.02c1.58-.08 2.95-1.17 3.3-2.76z" fill="#90a4ae"/><circle cx="47.29" cy="33.09" fill="#466b7d" r="4.6"/><circle cx="47.68" cy="32.6" fill="#a38e7a" r="4.29"/><circle cx="47.68" cy="32.6" fill="url(#j)" r="4.29"/><circle cx="48.42" cy="32.86" fill="#c6b3a1" r="3.46"/></svg>