<svg enable-background="new 0 0 128 128" viewBox="0 0 128 128" xmlns="http://www.w3.org/2000/svg" xmlns:xlink="http://www.w3.org/1999/xlink"><linearGradient id="a"><stop offset=".6985" stop-color="#d1d1d1" stop-opacity="0"/><stop offset="1" stop-color="#d1d1d1"/></linearGradient><radialGradient id="b" cx="95.25" cy="21.35" gradientTransform="matrix(1 0 0 .4912 -12.28 95.13)" gradientUnits="userSpaceOnUse" r="30.47" xlink:href="#a"/><linearGradient id="c"><stop offset=".5838" stop-color="#d1d1d1"/><stop offset="1" stop-color="#d1d1d1" stop-opacity="0"/></linearGradient><radialGradient id="d" cx="66.72" cy="29.71" gradientTransform="matrix(-.9057 .4238 -.3144 -.6719 182.75 92.77)" gradientUnits="userSpaceOnUse" r="9" xlink:href="#c"/><radialGradient id="e" cx="90.65" cy="52.28" gradientTransform="matrix(-.0746 -.9972 .8311 -.0622 52.96 169.26)" gradientUnits="userSpaceOnUse" r="39.55" xlink:href="#a"/><radialGradient id="f" cx="40.31" cy="54.67" gradientTransform="matrix(.0746 -.9972 -.8311 -.0622 80.81 119.21)" gradientUnits="userSpaceOnUse" r="39.55" xlink:href="#a"/><radialGradient id="g" cx="47.06" cy="21.35" gradientTransform="matrix(-1 0 0 .4912 92.11 95.13)" gradientUnits="userSpaceOnUse" r="30.47" xlink:href="#a"/><radialGradient id="h" cx="14.72" cy="28.56" gradientTransform="matrix(.9057 .4238 .3144 -.6719 -7.26 114.04)" gradientUnits="userSpaceOnUse" r="9" xlink:href="#c"/><radialGradient id="i" cx="87.18" cy="73.38" gradientTransform="matrix(.3076 .9515 .706 -.2282 8.82 -11.46)" gradientUnits="userSpaceOnUse" r="46.36" xlink:href="#a"/><radialGradient id="j" cx="41.89" cy="125.14" gradientTransform="matrix(.8813 .4726 .5603 -1.045 -64.79 115.18)" gradientUnits="userSpaceOnUse" r="12.16" xlink:href="#c"/><radialGradient id="k" cx="165.88" cy="66.11" gradientTransform="matrix(-.9378 -.3944 -.2182 .5285 239.41 56.76)" gradientUnits="userSpaceOnUse" r="37.36" xlink:href="#a"/><radialGradient id="l" cx="37.37" cy="114.53" gradientTransform="matrix(1 0 0 -1.2233 0 155.39)" gradientUnits="userSpaceOnUse" r="11.16" xlink:href="#a"/><radialGradient id="m" cx="38.06" cy="93.26" gradientTransform="matrix(-.9657 -.2598 -.2432 .9037 95.26 -39.41)" gradientUnits="userSpaceOnUse" r="20.93" xlink:href="#a"/><radialGradient id="n" cx="30.74" cy="74.42" gradientTransform="matrix(.9907 .1363 .1915 -1.3921 -13.84 154.6)" gradientUnits="userSpaceOnUse" r="21.97" xlink:href="#a"/><path d="m109.4 102.62c-1.62-2.96.45-5.96 3.98-9.68 5.6-5.91 11.7-19.6 6.04-33.51.03-.08-1.12-2.42-1.08-2.5l-2.34-.12c-.75-.11-26.36-.16-52-.16s-51.25.05-52 .16c0 0-3.45 2.54-3.42 2.61-5.66 13.91.44 27.6 6.04 33.51 3.53 3.72 5.6 6.73 3.98 9.68-1.57 2.87-6.26 3.29-6.26 3.29s1.08 2.94 3.69 4.52c2.41 1.46 5.37 1.81 7.42 1.86 0 0 8 11.07 28.92 11.07h11.64 11.64c20.92 0 28.92-11.07 28.92-11.07 2.05-.05 5.01-.39 7.42-1.86 2.61-1.58 3.69-4.52 3.69-4.52s-4.7-.41-6.28-3.28z" fill="#9e9e9e"/><path d="m63.99 123.36v-12.29l37.18-2.94 3.38 4.16s-8 11.07-28.92 11.07z" fill="url(#b)"/><path d="m104.46 106.93c-5.57-8.46 6.78-11.61 6.78-11.61s.01.01.01.01c-2.15 2.67-3.12 5-1.86 7.29 1.57 2.87 6.26 3.29 6.26 3.29s-6.38 5.68-11.19 1.02z" fill="url(#d)"/><path d="m119.45 59.42c5.53 13.47-.29 27.34-5.74 33.19-.75.8-3.92 3.92-4.64 6.4 0 0-12.42-17.31-16.12-27.49-.75-2.05-1.43-4.17-1.52-6.35-.07-1.64.19-3.59 1.13-4.98 1.16-1.71 26.23-2.21 26.23-2.21 0 .02.66 1.44.66 1.44z" fill="url(#e)"/><path d="m8.58 59.42c-5.52 13.47.29 27.34 5.74 33.19.75.8 3.92 3.92 4.64 6.4 0 0 12.42-17.31 16.12-27.49.75-2.05 1.43-4.17 1.52-6.35.07-1.64-.19-3.59-1.13-4.98-1.16-1.71-2.51-1.25-4.47-1.25-3.75 0-20.15-.96-21.42-.96 0 .02-1 1.44-1 1.44z" fill="url(#f)"/><path d="m64.04 123.36v-12.29l-37.18-2.94-3.38 4.16s8 11.07 28.92 11.07z" fill="url(#g)"/><path d="m23.57 106.93c5.57-8.46-6.78-11.61-6.78-11.61s-.01.01-.01.01c2.15 2.67 3.12 5 1.86 7.29-1.57 2.87-6.26 3.29-6.26 3.29s6.38 5.68 11.19 1.02z" fill="url(#h)"/><path d="m99.55 64.37h-9.59-51.92-9.59c-7.67 0-13.94 6.68-13.94 14.85s6.27 14.85 13.94 14.85h9.59 51.93 9.59c7.67 0 13.94-6.68 13.94-14.85s-6.28-14.85-13.95-14.85z" fill="#3c2b24"/><path d="m64 13.15c-22.64 0-43.61 24.21-43.61 59.06 0 34.66 21.61 51.79 43.61 51.79s43.61-17.13 43.61-51.79c0-34.84-20.97-59.06-43.61-59.06z" fill="#70534a"/><g fill="#4a2f27"><path d="m42.98 57.37c-.6 0-1.16-.36-1.4-.95-.31-.77.07-1.64.84-1.95.37-.15 9.1-3.54 21.24-3.54 12.13 0 21.48 3.39 21.87 3.53.78.29 1.18 1.15.89 1.92s-1.15 1.18-1.93.89c-.09-.03-9.27-3.35-20.84-3.35-11.58 0-20.06 3.3-20.14 3.33-.16.09-.35.12-.53.12z"/><path d="m49.03 48.96c-.64 0-1.23-.41-1.43-1.05-.25-.79.19-1.63.98-1.88.29-.09 7.29-2.28 15.42-2.28s15.13 2.18 15.43 2.28c.79.25 1.23 1.09.98 1.88s-1.09 1.22-1.88.98c-.07-.02-6.86-2.14-14.52-2.14-7.68 0-14.45 2.12-14.52 2.14-.16.04-.31.07-.46.07z"/><path d="m41.91 90.49c-2.63 0-5.27-.85-7.27-2.53-.63-.53-.71-1.48-.18-2.11s1.48-.71 2.11-.18c2.94 2.48 7.74 2.48 10.68 0 .63-.53 1.58-.45 2.11.18s.45 1.58-.18 2.11c-2 1.69-4.64 2.53-7.27 2.53z"/><path d="m86.09 90.49c-2.64 0-5.27-.85-7.28-2.53-.63-.53-.71-1.48-.18-2.11s1.48-.71 2.11-.18c2.94 2.48 7.74 2.48 10.68 0 .63-.53 1.58-.45 2.11.18s.45 1.58-.18 2.11c-1.99 1.69-4.62 2.53-7.26 2.53z"/><path d="m40.63 105.31c-.38 0-.77-.15-1.06-.44-.59-.59-.59-1.54 0-2.12l9.53-9.53c.59-.59 1.53-.59 2.12 0s.59 1.54 0 2.12l-9.53 9.54c-.29.29-.68.43-1.06.43z"/><path d="m87.37 105.31c-.38 0-.77-.15-1.06-.44l-9.53-9.53c-.59-.59-.59-1.54 0-2.12s1.54-.59 2.12 0l9.54 9.54c.59.59.59 1.54 0 2.12-.3.29-.69.43-1.07.43z"/></g><path d="m69.02 89.59c-.14-.06-.28-.09-.42-.11h-9.2c-.14.02-.28.05-.42.11-.83.34-1.29 1.2-.9 2.12.4.92 2.23 3.5 5.92 3.5s5.52-2.58 5.92-3.5c.39-.92-.06-1.79-.9-2.12z" fill="#33251f"/><g fill="#1a1717"><path d="m74.95 100.02c-4.14 2.46-17.73 2.46-21.87 0-2.38-1.42-4.81.75-3.82 2.91.97 2.12 8.38 7.06 14.79 7.06s13.72-4.93 14.7-7.06c.98-2.16-1.42-4.33-3.8-2.91z"/><ellipse cx="42.07" cy="77.34" rx="6.48" ry="6.71"/><ellipse cx="85.93" cy="77.34" rx="6.48" ry="6.71"/></g><g fill="#9e9e9e"><path d="m51.46 65.27c-1.2-1.59-3.99-3.91-9.39-3.91s-8.19 2.32-9.39 3.91c-.53.71-.4 1.52-.03 2.01.34.46 1.35.88 2.47.5s3.3-1.51 6.95-1.53c3.65.03 5.84 1.15 6.95 1.53s2.13-.04 2.47-.5c.37-.49.5-1.3-.03-2.01z"/><path d="m95.32 65.27c-1.2-1.59-3.99-3.91-9.39-3.91s-8.19 2.32-9.39 3.91c-.53.71-.4 1.52-.03 2.01.34.46 1.35.88 2.47.5s3.3-1.51 6.95-1.53c3.65.03 5.84 1.15 6.95 1.53 1.12.38 2.13-.04 2.47-.5.37-.49.51-1.3-.03-2.01z"/><path d="m116.14 31.41c-3.18-4.81-10.29-11.25-16.68-11.67-1.02-6.14-7.6-11.34-13.96-13.36-17.21-5.45-28.42.66-34.43 3.94-1.25.68-9.33 5.16-14.98 1.95-3.54-2.01-3.47-7.46-3.47-7.46s-11.09 4.22-7.3 16c-3.81.16-8.81 1.76-11.45 7.11-3.15 6.37-2.03 11.7-1.12 14.25-3.28 2.78-7.4 8.71-4.57 16.4 2.13 5.79 10.63 8.45 10.63 8.45-.6 10.42 1.34 16.84 2.37 19.43.18.45.83.41.94-.06 1.28-5.16 5.68-23.15 5.24-26.29 0 0 14.76-2.93 28.84-13.29 2.87-2.11 5.97-3.91 9.27-5.22 17.68-7.04 21.38 4.97 21.38 4.97s12.25-2.35 15.95 14.67c1.39 6.38 2.33 16.59 3.12 23.73.06.5.74.61.94.14 1.24-2.83 3.71-8.46 4.3-14.19.21-2.02 5.65-4.69 7.98-13.35 3.14-11.57-.71-22.68-3-26.15z"/></g><path d="m111.12 70.95c.21-2.02 5.65-4.69 7.98-13.35.25-.92.46-1.86.65-2.8 1.9-10.53-1.51-20.19-3.63-23.39-2.94-4.44-9.24-10.27-15.22-11.46-.52-.07-1.03-.13-1.51-.16 0 0 .43 2.79-.7 5.02-1.46 2.89-4.43 3.57-4.43 3.57 15.59 15.59 14.48 28.63 16.86 42.57z" fill="url(#i)"/><path d="m54.83 8.35c-1.42.69-2.68 1.38-3.77 1.97-1.25.68-9.33 5.16-14.98 1.95-3.48-1.98-3.48-7.26-3.47-7.45-1.6 2.04-6.44 16.63 7.71 17.6 6.1.42 9.87-4.9 12.09-9.41.81-1.63 2.08-4.02 2.42-4.66z" fill="url(#j)"/><path d="m83.72 5.85c9.52 2.58 14.68 7.81 15.72 13.9.46 1.9 1 19.62-32.83-.52-12.58-7.49-9.15-12.18-7.67-12.71 5.75-2.09 14.11-3.56 24.78-.67z" fill="url(#k)"/><path d="m32.57 4.82c-.02.01-.04.02-.08.03h-.01c-1.21.51-10.73 4.91-7.17 15.94l10.13 1.63c-8.96-9.07-2.83-17.62-2.83-17.62s-.02.01-.04.02z" fill="url(#l)"/><path d="m31.57 21.81-6.26-1.01c-.24 0-1.08.08-1.53.14-3.52.49-7.68 2.31-9.92 6.98-2.42 5.02-2.35 9.33-1.7 12.21.19.97.58 2.05.58 2.05s3.1-2.94 10.47-3.13z" fill="url(#m)"/><path d="m12.44 42.42c-3.08 2.74-7.24 8.84-4.17 16.4 2.31 5.71 10.53 8.19 10.53 8.19 0 .03 1.64.51 2.49.51l1.92-28.49c-3.94 0-7.72 1.18-10.17 2.88.02.06-.61.47-.6.51z" fill="url(#n)"/></svg>