<svg enable-background="new 0 0 128 128" viewBox="0 0 128 128" xmlns="http://www.w3.org/2000/svg" xmlns:xlink="http://www.w3.org/1999/xlink"><linearGradient id="a"><stop offset="0" stop-color="#616161"/><stop offset="1" stop-color="#2f2829"/></linearGradient><linearGradient id="b" gradientUnits="userSpaceOnUse" x1="46.08" x2="46.08" xlink:href="#a" y1="109.86" y2="123.17"/><linearGradient id="c" gradientUnits="userSpaceOnUse" x1="95.53" x2="90.23" y1="59.55" y2="48.55"><stop offset="0" stop-color="#b2947c"/><stop offset="1" stop-color="#b2947c" stop-opacity="0"/></linearGradient><linearGradient id="d"><stop offset="0" stop-color="#a1887f"/><stop offset="1" stop-color="#a1887f" stop-opacity="0"/></linearGradient><linearGradient id="e" gradientUnits="userSpaceOnUse" x1="100.45" x2="95.49" xlink:href="#d" y1="48.22" y2="39.83"/><radialGradient id="f" cx="92.73" cy="42.34" gradientTransform="matrix(.7334 .6798 -.4257 .4593 42.74 -40.14)" gradientUnits="userSpaceOnUse" r="30.36"><stop offset=".3893" stop-color="#a1887f" stop-opacity="0"/><stop offset="1" stop-color="#b2947c"/></radialGradient><linearGradient id="g"><stop offset=".0994" stop-color="#874d36" stop-opacity="0"/><stop offset=".7109" stop-color="#874d36"/></linearGradient><linearGradient id="h" gradientUnits="userSpaceOnUse" x1="47.96" x2="51.63" xlink:href="#g" y1="19.01" y2="23.81"/><linearGradient id="i" gradientUnits="userSpaceOnUse" x1="54.82" x2="60.57" xlink:href="#g" y1="19.57" y2="28.04"/><linearGradient id="j"><stop offset=".1429" stop-color="#75a768"/><stop offset="1" stop-color="#75a768" stop-opacity="0"/></linearGradient><linearGradient id="k" gradientUnits="userSpaceOnUse" x1="49.32" x2="46.94" xlink:href="#j" y1="29.38" y2="30.57"/><linearGradient id="l" gradientTransform="matrix(-1 0 0 1 144.4 0)" gradientUnits="userSpaceOnUse" x1="62.21" x2="59.82" xlink:href="#j" y1="29.38" y2="30.57"/><linearGradient id="m"><stop offset=".5097" stop-color="#5b3127" stop-opacity="0"/><stop offset="1" stop-color="#5b3127"/></linearGradient><radialGradient id="n" cx="17.96" cy="27" gradientTransform="matrix(.8273 0 0 .5042 44.18 13.39)" gradientUnits="userSpaceOnUse" r="3.36" xlink:href="#m"/><radialGradient id="o" cx="33.96" cy="27" gradientTransform="matrix(.8273 0 0 .5042 44.18 13.39)" gradientUnits="userSpaceOnUse" r="3.36" xlink:href="#m"/><radialGradient id="p" cx="66.74" cy="32.28" gradientTransform="matrix(1.0776 -.0036 .0036 .9138 -4.44 3.03)" gradientUnits="userSpaceOnUse" r="29.43"><stop offset=".2988" stop-color="#2f2829"/><stop offset="1" stop-color="#3f518e"/></radialGradient><linearGradient id="q" gradientUnits="userSpaceOnUse" x1="42.99" x2="46.21" xlink:href="#d" y1="61.19" y2="49.93"/><linearGradient id="r" gradientUnits="userSpaceOnUse" x1="39.73" x2="44.46" xlink:href="#d" y1="48.72" y2="41.8"/><linearGradient id="s" gradientUnits="userSpaceOnUse" x1="86.02" x2="86.02" xlink:href="#a" y1="109.86" y2="123.17"/><path d="m65.72 18.65c-40.65-2.5-33.1 55.49-33.05 61.56l74.05.82c1.2-9.96 9.62-59.26-41-62.38z" fill="#a0c787"/><path d="m54.58 46.65c1.66 3.5 5.66 5.53 9.54 5.53 5.42.01 10.64-3.76 12.33-8.91-5.84 1.96-12.23 2.24-18.21.79" fill="#75a768"/><path d="m16.38 47.71s-1.63 13.25-.98 17.03 3.45 10.24 9.53 11.07 9.27-2.68 9.27-2.68 7.1-7.79 7.1-8.06c0-.28-3.58-28.88-3.58-28.88z" fill="#a0c787"/><path d="m78.78 62.55c-11.61-6.6-19.01-13.35-24.72-25.41-.88 1-4.17 2.91-3.98 3.49 5.45 16.53 13.52 23.86 13.52 23.86s-13.94-.31-31.02 12.3c-.99.73-.98 2.24-.69 3.44.97 3.88 2.28 10.15 1.85 13.23-1.37 9.81-2.97 10.24 3.69 16.06l-3.37 2.65s.96 4.16 11.22 4.91c10.52.77 14.19-2.47 14.19-2.47-.21.15-3.11-3.18-3.11-3.18s3.73-1.28 4.34-3.48c.48-1.74.8-5.77 1.41-7.61 0 0 .61-3.38 1.88-5.43 1.04-1.67 2.55-1.67 3.49 0 1.5 2.66 1.88 5.43 1.88 5.43.44 1.9.92 5.87 1.41 7.61.61 2.2 4.34 3.48 4.34 3.48s-2.91 3.32-3.11 3.18c0 0 3.66 3.24 14.19 2.47 10.25-.75 11.22-4.91 11.22-4.91l-3.37-2.65c6.65-5.82 5.06-6.24 3.69-16.06 0 0 6.03-12.96 2.94-17.75-2.28-3.51-16.74-10.23-21.89-13.16z" fill="#9e705a"/><path d="m46.04 124h-10.15c-1.87-.04-3.22-1.74-2.67-3.21 1.69-4.51 6.83-7.81 12.82-7.81 6.11 0 11.32 3.44 12.91 8.07.51 1.48-.88 2.95-2.76 2.95z" fill="url(#b)"/><path d="m85.46 105.93c1.84-.6 3.26-2.05 4.78-3.25 1.49-1.17 5.98-3.93 8.36-3.3 0 0 .58 2.46.38 3.47-.29 1.44-.36 2.67-4.93 6.67-11.51-1.97-18.49 1.57-18.96 1.92-.37-.16-2.21-.75-3.32-1.85-.73-.72-1.02-1.4-1.17-2.26-.1-.54.29-1.06.84-1.06.43-.01 7.21 1.88 14.02-.34z" fill="#875845"/><path d="m33.42 46.89c-.45 2.5.26 5.17 1.87 7.13.48.59 1.06 1.12 1.77 1.39s1.57.24 2.17-.23c.69-.55.88-1.51.95-2.39.08-1.07.07-2.15-.04-3.22-.14-1.29-.44-2.61-1.24-3.63s-2.21-1.65-3.43-1.23" fill="#7d8e5f"/><path d="m39.98 66.86s.7 5.38 1.1 8.02c6.84-5.1 8.81-9.86 9.83-15.74 1.77 1.39 1.95 5.01 1.95 5.01s8.89-9.67 8.85-22.73c-.01-3.1.97-6.66-1.12-9.38-2.17-2.82-6-4.18-9.46-3.8-3.8.42-7.2 2.63-9.84 5.39-2.32 2.43-3.87 3.5-5.49 6.44-6.04 10.95-4.49 20.23-4.49 20.23l3.72-2.82c-6.26 9.94-3.24 22.22-3.24 22.22 4.96-3.4 8.19-12.84 8.19-12.84z" fill="#757575"/><path d="m39.98 66.86s.7 5.38 1.1 8.02c6.84-5.1 8.81-9.86 9.83-15.74 1.77 1.39 1.95 5.01 1.95 5.01s8.89-9.67 8.85-22.73c-.01-3.1-2.64-13.04-10.58-13.18-3.82-.07-7.2 2.63-9.84 5.39-2.32 2.43-3.87 3.5-5.49 6.44-6.04 10.95-4.49 20.23-4.49 20.23l3.72-2.82c-6.26 9.94-3.24 22.22-3.24 22.22 4.96-3.4 8.19-12.84 8.19-12.84z" fill="#757575"/><path d="m37.11 49.04c.91-2.84 2.96-6.61 4.79-8.96 1.04-1.33 2.24-2.58 3.74-3.36-.87-.6-5.72-.39-11.72 4.36-1.54 1.22 3.19 7.96 3.19 7.96z" fill="#515151"/><path d="m97.42 37.35s-4 5.2-2.11 16.32 4.23 19.05 4.23 19.05l-.74 16.77s-3.2 6.17-4 7.49.91 3.42 2.62 3.09 4.16-4.7 5.13-4.56c.4.06 1.47 5.7 0 7.49s-3.03 3.09-3.55 3.58-.36 4.4 1.59 4.4 10.42-4.72 11.73-6.51c1.3-1.79 3.24-6.19 2.18-15.23-.34-2.89 2.29-15.93 2.54-20.76.86-16.19-3.26-26.48-9.12-30.18-5.86-3.69-10.5-.95-10.5-.95z" fill="#a0c787"/><path d="m85.61 64.27c.52-1.34 1.05-2.69 1.57-4.03 1.97 6.64 6.33 12.55 12.11 16.38.45-3.93.4-15.17-.5-18.4 1.35 3.46 5.18 5.96 5.18 5.96 1.91-8.56-.9-16.25-.9-16.25l4.55 4.16s.67-6.09-.78-10.83c0 0 2.87 1.51 4.25 2.01-.96-8.29-5.2-10.05-9.38-11.88l4.4-.01c-3.04-5.43-6.46-5.67-11.25-6.17l2.63-1.87s-7.93-6.48-24.65-6.39c0 0-.71 26-.6 28.28.26 5.04.98 10.36 4.07 14.52 1.02-2.09 2.03-4.18 3.05-6.27-.01.01 1.39 6.92 6.25 10.79z" fill="#757575"/><g fill="#515151"><path d="m52.87 64.15s3.94-4.65 6.32-9.92c1.82-4.03 2.4-8.43 2.24-8.66-.06-.09-5.28-4.94-8.25-6.65.22 5.66 3.22 9.77 3.22 13.95-.01 4.61-3.3 10.31-3.53 11.28z"/><path d="m39.98 66.86s.7 5.38 1.1 8.02c2.33-1.74 4.5-3.73 6.17-6.12 1.41-2.01 2.39-4.27 3.02-6.64.16-.59.61-2.31.73-2.91 0 0-.71-1.49-.75-3.8-.01-.49.02-2.19.02-2.19-1.02.35-2.46 3.14-3.2 4.99-.93 2.35-1.28 4.89-1.98 7.32-.71 2.43-1.69 4.44-3.8 5.84.04-2.4-1.85-7.64-.92-10.27 0 0-4.16 4-5.53 8.11s-3.02 10.51-3.02 10.51 3.24-2.59 5.45-6.55c1.67-2.99 2.71-6.31 2.71-6.31z"/><path d="m89.5 56.57c-3.09 1.77-4.12 6.89-4.12 6.89-3.24-6.57-2.1-11.88-1.74-14.42 0 0-2.33.52-4.54 3.78-1.6 2.36-2.65 5.71-2.65 5.71s-.68-1.43-.99-5.36c-.29-3.54 1.14-8.5 3.06-12.83l-6.45 5.01c.26 5.04 1.1 10.46 4.19 14.62 1.02-2.09 2.06-4.39 3.08-6.48.67 4.18 3.18 8.66 6.26 10.78.52-1.34 1.05-2.69 1.57-4.03.19.64.76 4.58 5.08 9.84s7.03 6.54 7.03 6.54-6.08-6.88-9.78-20.05z"/></g><path d="m88.17 50.99c1.14 3.71 3.56 7 6.76 9.2.1-3.21.1-6.47-.67-9.59s-2.41-6.13-5.03-7.99" fill="url(#c)"/><path d="m92.7 40.25c2.22 2.98 4.66 5.8 7.28 8.43.57-2.71.22-5.94-1.15-8.35-1.36-2.41-2.35-3.65-4.72-5.08" fill="url(#e)"/><path d="m107.59 52.07h.03c.03-.29.63-6.18-.79-10.8 0 0 2.87 1.51 4.25 2.01-.96-8.29-5.2-10.05-9.38-11.88l4.4-.01c-3.04-5.43-6.46-5.67-11.25-6.17l2.63-1.87s-6.06-4.92-18.7-6.12c.01.28.14 7.89.05 8.25-.32 1.33 28.76 26.59 28.76 26.59z" fill="url(#f)"/><path d="m8.47 59.48-1.04-.87c-.72-.6-.79-1.69-.15-2.38 0 0 26.34-28.95 28.29-30.78s9.54-4.23 9.54-4.23 17.32-14.52 20.57-16.23c.77-.41 1.88-.64 2.76-.65 1.54-.01 2.44.97 3.03.98.32.01 3.1-.98 5.12-.99 2.02 0 2.67.89 4.58 1.03 2.44.17 3.85-.17 6.29 0 .38.03 1.21.01 1.71.68s-.39 1.75-.38 1.9c.01.3.96 1.29 1 1.66.08.67.2 3.79-.24 4.53-.37.63-8.83 5.79-10.11 6.76-1.59 1.21-3.16 2.46-4.68 3.76l-28.58 9.28-35.69 25.63c-.61.44-1.45.41-2.02-.08z" fill="#b7855f"/><path d="m58.38 15.91c3.23-2.03 6.64-3.82 9.38-6.45 1.85-1.77 3.23-3.57 5.26-4.48-1.56.33-2.52.66-3.92 1.68-3.11 2.26-5.83 4.78-9.29 6.52-3.59 1.8-7.33 3.4-10.48 5.93-3.53 2.58-5.52 6.83-9.13 9.26-3.39 2.09-8.17 1.8-10.51 5.42l-2.58 4.76 6.05-4c4.96-3.07 10.23-5.77 14.7-9.56 3.42-3.14 6.43-6.75 10.52-9.08z" fill="url(#h)"/><path d="m76.58 10.44c3.22-2.74 7.69-.65 11.31-1.86.48-.17 1.08-.69 1.33-1.54 0 0-.29.48-2.09.59-2.9.17-6.02-.84-8.84.13s-5.25 2.77-7.95 4.01c-2.24 1.03-4.66 1.66-6.84 2.83-2.66 1.43-13.06 11.82-23.28 19.59-4.48 3.4-7.1 2.19-11.53 10.12 5.08-5.62 23.52-12.38 32.37-21.44 2.72-2.78 6.36-4.67 10.12-5.66 4.78-1.18 11-1.14 13.86-5.81.39-.59 1.5-.7 2.14-.93.93-.34 1.31-.2 2.28-1.11-2.02.49-3.89.61-5.56 1.85-.46.35-.89.74-1.39 1.03-1.46.83-8.01 2.15-9.41 1.64 1.02-1.27 2.21-2.46 3.48-3.44z" fill="url(#i)"/><path d="m35.56 44.61c.83-1.11.35-2.43-.63-4.23-.99-1.8-3.99-5.2-6.41-7.26-1.89-1.61-4.33-1.44-5.53-.13-.52.58-.69 1.32-.76 2.08-.08.89-.29 1.12-1.18 1.09-.98-.03-1.93.22-2.59.95-.59.65-.73 1.49-.74 2.35-.01.84-.26 1.2-1.13 1.24-.86.04-1.66.29-2.23.92-.56.62-.79 1.44-.71 2.29.07.7-.42 1.24-1.12 1.21-1.21-.05-1.8.07-2.33.96-.91 1.52-.27 3.41.52 4.82.84 1.48 5.01 4.87 7.87 5.85 1.76.61 3.28.93 4.82.05 2.64-1.51 6.89-4.87 6.89-4.87.88 1.17 1.87 1.23 3.58.27 1.66-.94 2.71-2.03 3.09-2.64 1.4-2.22.54-4.18-1.41-4.95zm-3.47.58c-.01 0-.01 0-.02-.01 0 0 .01.01.02.01z" fill="#bee29f"/><path d="m80.6 17.88c3.4 1.61 4.68 4.26 5.33 5.81 1.43 3.4 1.53 9.53 6.47 10.84-3.05 4.59-7.45 3.4-7.45 3.4l2.24 2.68s-4.57 2.02-7.98-2.3c-4.99-6.31-8.21-13.52-3.41-19.11" fill="#2f2829"/><path d="m51.05 17.88c-3.4 1.61-4.68 4.26-5.33 5.81-1.43 3.4-1.53 9.53-6.47 10.84 3.05 4.59 7.45 3.4 7.45 3.4l-2.24 2.68s4.57 2.02 7.98-2.3c4.99-6.31 8.21-13.52 3.41-19.11" fill="#2f2829"/><path d="m52.24 27.84c-1.77-3.2-5.6-2.78-7.72-1.85-.93.41-.67 1.09-.16 1.97 1.05 1.82 1.28 4.46 3.76 5.96 2.22 1.35 4.76 0 4.76 0s1.89-1.51-.64-6.08z" fill="#a0c787"/><path d="m79.12 27.84c1.77-3.2 5.6-2.78 7.72-1.85.93.41.67 1.09.16 1.97-1.05 1.82-1.28 4.46-3.76 5.96-2.22 1.35-4.76 0-4.76 0s-1.89-1.51.64-6.08z" fill="#a0c787"/><path d="m50.37 30.42c-1.3-.94-2.02-4.55-5.15-3.7.81 1.61 1.25 3.07 2.15 4.71.98 1.8 2.8 2.23 2.8 2.23z" fill="url(#k)"/><path d="m81.14 30.42c1.3-.94 2.02-4.55 5.15-3.7-.81 1.61-1.25 3.07-2.15 4.71-.98 1.8-2.8 2.23-2.8 2.23z" fill="url(#l)"/><path d="m65.68 47.65c-9.18 0-14.36-4.63-14.36-16.39 0-9.44 6.45-17.47 14.36-17.47s14.36 8.02 14.36 17.47c0 11.76-5.18 16.39-14.36 16.39z" fill="#a0c787"/><path d="m54.88 26.73c-.44-1.88.72-3.76 2.6-4.2s3.76.72 4.2 2.6-1.18 3.87-3.02 3.29c-2.87-.92-3.34.18-3.78-1.69z" fill="#75a768"/><path d="m76.22 26.73c.44-1.88-.72-3.76-2.6-4.2s-3.76.72-4.2 2.6 1.18 3.87 3.02 3.29c2.87-.92 3.34.18 3.78-1.69z" fill="#75a768"/><ellipse cx="72.29" cy="26.53" fill="#2f2829" rx="1.78" ry="1.85"/><ellipse cx="59.07" cy="26.53" fill="#2f2829" rx="1.78" ry="1.85"/><path d="m57.41 26.9c-.13-1.23.73-2.06 1.64-2.06s1.72.89 1.64 2.06" fill="url(#n)"/><path d="m70.65 26.9c-.13-1.23.73-2.06 1.64-2.06s1.72.89 1.64 2.06" fill="url(#o)"/><path d="m69.92 36.04c-2.6 1.29-5.73 1.09-8.43 0-.99-.4-1.86.29-1.47 1.12.37.82 3.23 2.72 5.7 2.72s5.29-1.9 5.67-2.72c.37-.83-.29-1.7-1.47-1.12z" fill="#4a261f"/><path d="m62.6 37.13c.26 0 .69.17.79.65l.21 1.71s-1.21-.42-2.16-1.07c0 0 .21-.48.34-.85.15-.44.56-.44.82-.44z" fill="#fff8e1"/><path d="m68.81 37.13c-.26 0-.69.17-.79.65l-.21 1.71s1.21-.42 2.16-1.07c0 0-.21-.48-.34-.85-.15-.44-.56-.44-.82-.44z" fill="#fff8e1"/><path d="m54.13 4c-.98 1.36-1.22 6.67-1.22 6.67l-4.77-3.35s-1.76 2.5-2 7.75c-.21 4.53 1.74 7.45 3.84 10.09.17.22.55.45.44.71-3.65 8.66-1.04 15.29 2.28 18.74-.02-1.2-1.1-11.63-.47-16.77.31-2.49.45-3.84 2.96-4.52 8.87-2.4 16.98-7.45 16.82-7.9 1.23 3.62 4.29 7.17 6.81 10.05 2.08 2.38.09 18.97 0 19.1 7.63-9.15 2.58-18.16 2.58-18.16-.15-.46-.22-.36-.03-.79 1.11-2.4 2.93-6.04 1.24-10.97-1.58-4.64-7.72-8.59-12.12-7.36-12.61 3.54-16.36-3.29-16.36-3.29z" fill="#2f2829"/><path d="m54.13 4c-.96 1.35-1.22 6.67-1.22 6.67l-4.77-3.35c-1.26 2.29-.99 5.34-.07 7.76.88 2.31 2.5 4.33 4.57 5.67.16.11.34.23.4.41.06.21-.06.43-.17.63-1.37 2.26-2.72 4.35-3.45 6.91-.62 2.18-.9 4.46-.72 6.72.15 1.86.61 3.69 1.4 5.39.34.73.74 1.43 1.2 2.1.22.31 1.39 1.4 1.39 1.71-.02-1.2-1.1-11.63-.47-16.77.31-2.49.45-3.84 2.96-4.52 8.87-2.4 16.98-7.45 16.82-7.9 1.23 3.62 4.29 7.17 6.81 10.05 2.08 2.38.09 18.97 0 19.1 3.5-4.19 5.05-9.63 3.74-14.98-.42-1.73-1.44-3.3-1.61-5.06-.18-1.79-.35-3.6-.03-5.37.9.95 1.54 2.14 1.83 3.42-.09-.41.25-1.34.34-1.78.12-.6.19-1.22.21-1.83.05-1.46-.21-2.92-.68-4.3-1.58-4.64-7.72-8.59-12.12-7.36-12.61 3.51-16.36-3.32-16.36-3.32z" fill="url(#p)"/><path d="m69.15 31.38c-.09.03-1.93-.39-3.47-.39s-3.45.42-3.54.39c-.52-.21-.38-.44-.13-1.02.25-.57 1.39-2.19 3.7-2.19s3.45 1.61 3.7 2.19c.24.58.26.81-.26 1.02z" fill="#75a768"/><circle cx="74.01" cy="67.88" fill="#784d30" r="3.76"/><ellipse cx="74.36" cy="67.31" fill="#82aec0" rx="3.18" ry="3.41" transform="matrix(.1016 -.9948 .9948 .1016 -.16 134.44)"/><path d="m43.74 49.18c-1.94 3.38-1.51 6.82-1.17 9.7 1.03-1.59 2.56-2.78 3.79-4.22 1.47-1.71 3.75-4.35 2.98-8.43" fill="url(#q)"/><path d="m46.27 42.51c-1.26 2.54-3.49 4.44-5.67 6.26.17-4.01.95-7.69 4.64-10.84" fill="url(#r)"/><path d="m85.98 124h-10.15c-1.87-.04-3.22-1.74-2.67-3.21 1.69-4.51 6.83-7.81 12.82-7.81 6.11 0 11.32 3.44 12.91 8.07.51 1.48-.88 2.95-2.76 2.95z" fill="url(#s)"/><path d="m58.35 106.5c-1.28.31-6.08 1.82-12.32-.57-1.81-.69-3.81-2.1-5.58-2.86-3.32-1.42-8.35-.82-6.99 2.03 1.14 2.41 3.98 4.41 3.98 4.41 11.51-1.97 17.86 1.81 19.12 1.85.37-.16 2.05-.68 3.16-1.78.73-.72 1.02-1.4 1.17-2.26.1-.54-.29-1.06-.84-1.06-.43 0-.98.07-1.7.24z" fill="#875845"/><path d="m35.45 44.71s-1.96.98-3.07-.76c-.66-1.35-1.74-3.08-2.4-3.79-.67-.7-1.41-1.34-2.27-1.87-.85-.54-1.78-1-2.95-1.22 0 0 2.49 3 3.8 4.44 1.17 1.19 2.33 2.41 3.51 3.59.32 1.97-1.16 4.13-3.86 4.26-.26-.8-.63-1.49-1.04-2.13-.54-.86-1.18-1.61-1.9-2.28s-1.5-1.27-2.4-1.74c-.88-.49-1.85-.9-3.03-1.06 0 0 2.41 2.87 3.82 4.24 1.37 1.24 3 2.51 4.39 3.72.36 1.32.51 2.62-1.01 3.73-1.92 1.41-6.5-1.99-7.64-2.97-1.34-1.06-2.7-2.32-3.96-3.56 0 0 .28 2.51 2.76 4.68 1.44 1.26 3.88 1.95 4.95 1.96.29.83.11 1.82-.52 2.44-.6.6-1.5.82-2.35.75s-3.37-1.09-4.15-1.56l-.56.36-.06.67c1.01.62 3.25 1.59 4.41 1.84 2.14.45 4.4-.15 6.28-1.27s3.49-2.83 4.9-4.5c-.44-.65-.59-1.37-.52-2.16.23-2.77 3.83-5.4 4.87-5.81z" fill="#75a768"/><path d="m54.13 4s-.52 2.89.53 5.3 2.54 3.2 2.54 3.2c-1.84.15-4.29-1.84-4.29-1.84s0-1.91.35-3.75c.27-1.47.87-2.91.87-2.91z" fill="#2f2829"/></svg>