<svg enable-background="new 0 0 128 128" viewBox="0 0 128 128" xmlns="http://www.w3.org/2000/svg" xmlns:xlink="http://www.w3.org/1999/xlink"><linearGradient id="a"><stop offset="0" stop-color="#fff9c4" stop-opacity=".6"/><stop offset=".9495" stop-color="#fff9c4" stop-opacity="0"/></linearGradient><linearGradient id="b" gradientUnits="userSpaceOnUse" x1="34.66" x2="31.03" xlink:href="#a" y1="44.49" y2="50.35"/><linearGradient id="c"><stop offset="0" stop-color="#fff9c4" stop-opacity=".6"/><stop offset=".9888" stop-color="#fff9c4" stop-opacity=".01"/><stop offset="1" stop-color="#fff9c4" stop-opacity="0"/></linearGradient><linearGradient id="d" gradientUnits="userSpaceOnUse" x1="38.14" x2="48.93" xlink:href="#c" y1="40.9" y2="31.7"/><linearGradient id="e"><stop offset="0" stop-color="#ffc2c8" stop-opacity=".8"/><stop offset=".9304" stop-color="#ffcdd2" stop-opacity="0"/></linearGradient><linearGradient id="f" gradientTransform="matrix(.9934 .115 -.115 .9934 1.57 1.64)" gradientUnits="userSpaceOnUse" x1="34.1" x2="33.58" xlink:href="#e" y1="48.86" y2="56.28"/><linearGradient id="g" gradientTransform="matrix(.9934 .115 -.115 .9934 1.57 1.64)" gradientUnits="userSpaceOnUse" x1="34.48" x2="41.06" xlink:href="#e" y1="45.13" y2="32.51"/><linearGradient id="h"><stop offset="0" stop-color="#80deea" stop-opacity=".5"/><stop offset=".9264" stop-color="#80deea" stop-opacity="0"/></linearGradient><linearGradient id="i" gradientUnits="userSpaceOnUse" x1="45.49" x2="39.35" xlink:href="#h" y1="33.6" y2="38.2"/><linearGradient id="j"><stop offset="0" stop-color="#80deea" stop-opacity=".5"/><stop offset=".9466" stop-color="#80deea" stop-opacity="0"/></linearGradient><linearGradient id="k" gradientUnits="userSpaceOnUse" x1="53.4" x2="63.45" xlink:href="#j" y1="31.36" y2="28.66"/><linearGradient id="l"><stop offset="0" stop-color="#fff" stop-opacity=".5"/><stop offset=".907" stop-color="#fff" stop-opacity="0"/></linearGradient><linearGradient id="m" gradientUnits="userSpaceOnUse" x1="96.53" x2="99.37" xlink:href="#l" y1="49.73" y2="60.43"/><linearGradient id="n" gradientUnits="userSpaceOnUse" x1="93.39" x2="91.11" xlink:href="#l" y1="45.48" y2="41.48"/><linearGradient id="o" gradientUnits="userSpaceOnUse" x1="36.14" x2="37.35" xlink:href="#l" y1="84.39" y2="86.34"/><linearGradient id="p" gradientUnits="userSpaceOnUse" x1="32.58" x2="28.86" xlink:href="#l" y1="80.69" y2="69.62"/><linearGradient id="q" gradientTransform="matrix(-.9999 .0167 -.0167 -.9999 73.96 77.06)" gradientUnits="userSpaceOnUse" x1="-19.45" x2="-23.08" xlink:href="#a" y1="-6.24" y2="-.38"/><linearGradient id="r" gradientTransform="matrix(-.9999 .0167 -.0167 -.9999 73.96 77.06)" gradientUnits="userSpaceOnUse" x1="-15.92" x2="-5.13" xlink:href="#c" y1="-9.9" y2="-19.11"/><linearGradient id="s" gradientTransform="matrix(-.9952 -.0984 .0984 -.9952 72.36 75.44)" gradientUnits="userSpaceOnUse" x1="-25.56" x2="-26.08" xlink:href="#e" y1="4.78" y2="12.2"/><linearGradient id="t" gradientTransform="matrix(-.9952 -.0984 .0984 -.9952 72.36 75.44)" gradientUnits="userSpaceOnUse" x1="-25.18" x2="-18.59" xlink:href="#e" y1=".9" y2="-11.72"/><linearGradient id="u" gradientTransform="matrix(-.9999 .0167 -.0167 -.9999 73.96 77.06)" gradientUnits="userSpaceOnUse" x1="-8.45" x2="-14.59" xlink:href="#h" y1="-17.09" y2="-12.49"/><linearGradient id="v" gradientTransform="matrix(-.9999 .0167 -.0167 -.9999 73.96 77.06)" gradientUnits="userSpaceOnUse" x1="-.5" x2="9.55" xlink:href="#j" y1="-19.39" y2="-22.08"/><path d="m54.79 7.76c-31.03 5.08-52.12 34.42-47.03 65.45s34.43 52.11 65.46 47.03 52.11-34.43 47.03-65.46c-5.09-31.02-34.43-52.11-65.46-47.02zm11.51 70.3c-7.78 1.27-15.09-3.98-16.36-11.76s3.98-15.09 11.76-16.36 15.09 3.98 16.36 11.76c1.37 7.76-3.88 15.07-11.76 16.36z" fill="#fad56e"/><path d="m10.77 43.61 39.28 17.38s.37-1.46 1.05-3.05 1.77-2.87 1.77-2.87l-34.97-24.62s-1.97 2.69-4.04 6.43c-2.06 3.75-3.09 6.73-3.09 6.73z" fill="url(#b)"/><path d="m62.53 49.83-17.73-39.5s-7.16 2.24-14.78 7.91c-7.41 5.52-12.12 12.21-12.12 12.21l34.97 24.62s1.33-1.82 4.05-3.45 5.61-1.79 5.61-1.79z" fill="url(#d)"/><path d="m7.35 57.71 42.4 7.51s-.03-1.23.07-2.69c.11-1.46.46-2.42.46-2.42l-40.21-14.54s-.92 2.29-1.71 5.83-1.01 6.31-1.01 6.31z" fill="url(#f)"/><path d="m51.94 56.39c.94-1.59 2.28-2.77 2.28-2.77l-32.23-28.11s-3.63 3.88-6.87 9.32c-3.71 6.23-5.05 10.74-5.05 10.74l40.21 14.54s.52-1.78 1.66-3.72z" fill="url(#g)"/><path d="m28.4 19.46c-3.89 3.05-6.94 6.57-6.94 6.57l31.34 29.06s1.12-1.3 2.6-2.45 3.05-1.77 3.05-1.77l-21.53-37.03s-4.64 2.57-8.52 5.62z" fill="url(#i)"/><path d="m69.07 50.68-8.79-43.55s-5.7.33-11.57 1.96c-6.16 1.72-11.8 4.75-11.8 4.75l21.53 37.01s2.48-1.09 5.38-1.11 5.25.94 5.25.94z" fill="url(#k)"/><path d="m114.72 38.01-38.78 17.92c3.67 5.3 2.34 10.38 2.34 10.38l42.58-6.2c-.48-9.19-3.76-17.46-6.14-22.1z" fill="url(#m)"/><path d="m103.42 22.86-32.05 28.95c1.72 1.04 3.41 2.44 4.57 4.12l38.78-17.92c-1.92-3.67-5.78-9.97-11.3-15.15z" fill="url(#n)"/><path d="m52.95 72.99-37.1 21.51c3.23 5.08 7.23 9.57 11.8 13.35l30.45-30.87c-1.99-.91-3.75-2.28-5.15-3.99z" fill="url(#o)"/><path d="m49.94 66.3c-.18-1.07-.22-2.14-.15-3.18l-42.17 9.09c.05.33.08.67.14 1 1.28 7.81 4.1 15 8.1 21.29l37.1-21.51c-1.53-1.86-2.6-4.13-3.02-6.69z" fill="url(#p)"/><path d="m117.16 83.31-39.14-16.28s-.34 1.46-1 3.07-1.73 2.9-1.73 2.9l34.96 23.58s1.93-2.72 3.93-6.5 2.98-6.77 2.98-6.77z" fill="url(#q)"/><path d="m65.72 78.4 17.96 38.75s7.12-2.36 14.65-8.16c7.33-5.65 11.93-12.42 11.93-12.42l-34.96-23.58s-1.3 1.84-3.99 3.51c-2.7 1.68-5.59 1.9-5.59 1.9z" fill="url(#r)"/><path d="m120.35 69.15-41.88-6.44s.05 1.23-.03 2.69-.42 2.43-.42 2.43l39.81 13.51s.88-2.3 1.61-5.86c.74-3.56.91-6.33.91-6.33z" fill="url(#s)"/><path d="m76.46 71.57c-.91 1.61-2.23 2.81-2.23 2.81l32.03 27.21s3.56-3.94 6.71-9.43c3.61-6.29 4.87-10.82 4.87-10.82l-39.79-13.51s-.48 1.78-1.59 3.74z" fill="url(#t)"/><path d="m99.94 107.75c3.84-3.11 6.83-6.69 6.83-6.69l-31.6-28.07s-.82 1.19-2.28 2.37c-1.46 1.17-3.52 1.85-3.52 1.85l22.15 36.29s4.59-2.64 8.42-5.75z" fill="url(#u)"/><path d="m58.75 77.57 9.51 43.04s5.7-.42 11.53-2.16c6.13-1.82 11.72-4.95 11.72-4.95l-22.14-36.29s-2.46 1.13-5.36 1.2-5.26-.84-5.26-.84z" fill="url(#v)"/><path d="m64 41.2c-12.77 0-23.04 10.16-23.04 22.8s10.27 22.8 23.04 22.8 23.04-10.17 23.04-22.8-10.27-22.8-23.04-22.8zm0 36.95c-7.97 0-14.4-6.36-14.4-14.25s6.43-14.26 14.4-14.25 14.4 6.36 14.4 14.25c.09 7.89-6.34 14.25-14.4 14.25z" fill="#d3792f" opacity=".25"/><path d="m64 9.86c29.83 0 54.14 24.32 54.14 54.14s-24.31 54.14-54.14 54.14-54.14-24.31-54.14-54.14 24.31-54.14 54.14-54.14m0 71.24c9.4 0 17.1-7.69 17.1-17.1s-7.7-17.1-17.1-17.1-17.1 7.7-17.1 17.1 7.7 17.1 17.1 17.1m0-74.09c-31.44 0-56.99 25.55-56.99 56.99s25.55 56.99 56.99 56.99 56.99-25.55 56.99-56.99-25.55-56.99-56.99-56.99zm0 71.24c-7.88 0-14.25-6.36-14.25-14.25s6.37-14.25 14.25-14.25 14.25 6.37 14.25 14.25c.09 7.88-6.27 14.25-14.25 14.25z" fill="#f4a55d"/></svg>