<svg enable-background="new 0 0 128 128" viewBox="0 0 128 128" xmlns="http://www.w3.org/2000/svg" xmlns:xlink="http://www.w3.org/1999/xlink"><linearGradient id="a"><stop offset=".3759" stop-color="#80deea" stop-opacity="0"/><stop offset="1" stop-color="#80deea" stop-opacity=".8"/></linearGradient><radialGradient id="b" cx="31.84" cy="51.57" gradientTransform="matrix(.9796 .2007 -.2025 .9884 13.25 -12.11)" gradientUnits="userSpaceOnUse" r="16.66" xlink:href="#a"/><radialGradient id="c" cx="27.83" cy="22.08" gradientTransform="matrix(.9957 .0926 -.0926 .9957 10.72 -9.33)" gradientUnits="userSpaceOnUse" r="6.96" xlink:href="#a"/><radialGradient id="d" cx="11.27" cy="40.38" gradientTransform="matrix(.9957 .0926 -.0926 .9957 10.72 -9.33)" gradientUnits="userSpaceOnUse" r="8.83" xlink:href="#a"/><radialGradient id="e" cx="96.39" cy="89.96" gradientTransform="matrix(.9796 .2007 -.2007 .9796 13.16 -11.66)" gradientUnits="userSpaceOnUse" r="11.39"><stop offset=".2003" stop-color="#80deea" stop-opacity="0"/><stop offset="1" stop-color="#80deea" stop-opacity=".8"/></radialGradient><radialGradient id="f" cx="114.62" cy="92.91" gradientTransform="matrix(.9796 .2007 -.2007 .9796 13.16 -11.66)" gradientUnits="userSpaceOnUse" r="6.03"><stop offset=".3119" stop-color="#80deea" stop-opacity="0"/><stop offset="1" stop-color="#80deea"/></radialGradient><path d="m122.68 46.87-41.8-14.44s-76.85 34.14-76.85 34.14c-.17 4.45.38 15.13 1.12 16.2.78 1.12 3.86 3.63 3.43 4.92-.33.99-1.4 1.51-2.1 2.29-2.36 2.63 1.05 7.91 2.78 10.1 1.91 2.42 4.4 4.36 7.01 5.98 2.6 1.62 9.26 6.18 12.38 4.85.45-.19.82-.53 1.22-.81.81-.57 1.78-.96 2.77-.93.99.02 1.99.49 2.53 1.32 1.56 2.41 1.99 3.49 4.98 4.25 3.12.8 6.43 1.21 9.63 1.52 4.97.48 10.09.49 14.98-.66 6.68-1.57 12.55-5.64 14.57-12.44 3.33-11.19 19.65-15.81 26.57-17.11 1.42-.27 2.83-.56 4.23-.9.88-.22 3.58-.48 4.1-1.23.19-.28.24-.63.31-.96.25-1.16.89-2.28 1.91-2.88s2.44-.58 3.31.23c.09.08.17.17.28.23.79.37 2.31-1.85 2.64-2.38.83-1.32 1.27-2.84 1.3-4.4.16-8.35-1.3-26.89-1.3-26.89z" fill="#eebd1c"/><path d="m102.71 29.18c-16.67-6.8-28.58-7.83-37.05-6.06-.38.08-.6.47-.49.84.06.19.1.41.11.66.01 1.21-2.09 2.62-4.92 2.84-1.07.08-2.07-.03-2.91-.28-.75-.22-1.57-.04-2.21.42-3.84 2.78-6.23 6.24-7.66 9.26-1.19 2.51-3.5 4.2-5.91 5.46-4.77 2.49-10.08 3.91-15.15 5.66-13.6 4.69-15.94 7.55-16.42 8.87-.2.55-.32 1.13-.61 1.63-.77 1.31-2.45 1.7-3.74 2.5-.59.37-1.58 2.48-1.72 5.17-.48 9.75 9.69 15.87 17.23 19.05 21.96 9.29 36.02 12.57 47.86-.62 4.97-5.53 8.51-10.61 11.72-12.19-1.24-.41-2.99-1.53-2.39-2.79 1.83-3.85 10.8-1.45 10.98-1.41.29.07 3.06-2.47 16.07-3.02 10.99-.46 34.37-20.83-2.79-35.99z" fill="#ffeb3b"/><path d="m28.19 88.01c.18 2.41-1.31 4.11-3.33 3.81-2.02-.31-3.81-2.51-3.99-4.91-.05-.6.01-1.16.16-1.65 0 0 5.18-2.56 8.72-.82s-1.56 3.57-1.56 3.57z" fill="#d19600"/><path d="m28.19 87.98c-1.23.4-2.57.45-3.8.05-.69-.22-1.33-.57-1.91-1.01-.3-.23-1.53-1.15-1.49-1.56.04-.43 1.23-.7 1.61-.83 2.23-.76 4.95-1.27 7.15-.19 1.76.86 1.31 2.04-.14 2.9-.45.27-.93.48-1.42.64z" fill="#eebd1c"/><g fill="#d19600"><path d="m19.23 99.91c.16 2.19-1.19 3.72-3.02 3.45-1.83-.28-3.45-2.27-3.61-4.45s1.19-3.72 3.02-3.45 3.45 2.28 3.61 4.45z"/><path d="m42.84 101.6c.19 2.49-1.18 4.29-3.07 4.01-1.88-.28-3.55-2.51-3.74-4.99s1.18-4.29 3.07-4.01c1.88.27 3.55 2.5 3.74 4.99z"/><path d="m53.33 109.71c.11 1.51-.73 2.61-1.87 2.45s-2.17-1.53-2.28-3.05c-.11-1.51.73-2.61 1.87-2.45s2.17 1.52 2.28 3.05z"/><path d="m69.85 93.43c.04 2.62-1.31 5.34-3.01 6.08s-3.12-.78-3.16-3.41c-.04-2.62 1.31-5.34 3.01-6.08 1.7-.73 3.11.8 3.16 3.41z"/><path d="m110.7 79.26c-.05 2.01-1.17 4.05-2.49 4.56-1.33.51-2.37-.69-2.32-2.71.05-2.01 1.17-4.05 2.49-4.56 1.33-.51 2.37.71 2.32 2.71z"/><path d="m120.22 68.23c-.05 2.01-1.17 4.05-2.49 4.56s-2.37-.69-2.32-2.71c.05-2.01 1.17-4.05 2.49-4.56 1.33-.51 2.37.71 2.32 2.71z"/><path d="m100.22 74.1c-.07 2.95-1.84 5.99-3.94 6.8s-3.75-.9-3.68-3.85 1.84-5.99 3.94-6.8 3.76.91 3.68 3.85z"/></g><g fill="#eebd1c"><ellipse cx="23.76" cy="59.6" rx="6.92" ry="3.8" transform="matrix(.9972 -.0753 .0753 .9972 -4.42 1.96)"/><ellipse cx="51.4" cy="62.06" rx="10.53" ry="5.16" transform="matrix(.9972 -.0753 .0753 .9972 -4.53 4.04)"/><ellipse cx="62.56" cy="36.08" rx="7.41" ry="4.07" transform="matrix(.9972 -.0753 .0753 .9972 -2.54 4.81)"/><ellipse cx="42.15" cy="51.38" rx="4.15" ry="2.28" transform="matrix(.9972 -.0753 .0753 .9972 -3.75 3.32)"/><ellipse cx="38.62" cy="73.03" rx="4.15" ry="2.28" transform="matrix(.9972 -.0753 .0753 .9972 -5.39 3.11)"/><ellipse cx="50.92" cy="80.27" rx="5.87" ry="3.22" transform="matrix(.9972 -.0753 .0753 .9972 -5.9 4.06)"/><ellipse cx="62.83" cy="48.11" rx="3.81" ry="2.09" transform="matrix(.9972 -.0753 .0753 .9972 -3.44 4.87)"/><ellipse cx="60.75" cy="71.51" rx="3.81" ry="2.09" transform="matrix(.9972 -.0753 .0753 .9972 -5.21 4.78)"/><ellipse cx="77.99" cy="30.67" rx="3.81" ry="2.09" transform="matrix(.9972 -.0753 .0753 .9972 -2.09 5.96)"/><ellipse cx="107.91" cy="52.8" rx="6.82" ry="3.74" transform="matrix(.9994 -.0349 .0349 .9994 -1.77 3.79)"/><ellipse cx="99.29" cy="45.87" rx="3.23" ry="1.78" transform="matrix(.9994 -.0349 .0349 .9994 -1.54 3.49)"/><ellipse cx="83.27" cy="38.35" rx="3.23" ry="1.78" transform="matrix(.9972 -.0753 .0753 .9972 -2.65 6.38)"/><ellipse cx="80.89" cy="53.38" rx="7.41" ry="4.07" transform="matrix(.9972 -.0753 .0753 .9972 -3.79 6.24)"/></g><path d="m83.94 69.59c1.66-.03 3.28-.53 4.8-1.19.11.95-.3 1.87-.7 2.74-.39.83-.8 1.69-1.53 2.24-.88.66-2.09.74-3.16.47s-2.02-.86-2.95-1.46c-.89-.57-3.16-2.69-1.33-3.7.58-.32 1.22.1 1.76.3 1.02.38 2.01.62 3.11.6z" fill="#d19600"/><circle cx="33.74" cy="43.62" fill="url(#b)" r="16.49"/><circle cx="35.47" cy="14.24" fill="url(#c)" r="6.72"/><circle cx="17.98" cy="31.79" fill="url(#d)" r="7.96"/><path d="m27.61 32.31c.02.5.55.84 1.04.94 1.56.31 3.7-.22 5.3-.11 1.69.12 2.72.24 4.56.83 1.07.34 3.22.4 2.8-1.3-.36-1.47-2.91-2.56-4.17-2.87-2.93-.74-5.91-.6-8.03.45-1.4.69-1.51 1.79-1.5 2.06z" fill="#fff" opacity=".8"/><circle cx="87.81" cy="92.88" fill="url(#e)" r="10.93"/><circle cx="106.38" cy="102.66" fill="url(#f)" opacity=".7" r="5.32"/><g fill="#fff"><path d="m96.07 91.48c.14.72.17 1.51-.17 2.17s-1.12 1.13-1.82.9c-.59-.19-.95-.77-1.3-1.29-1.16-1.67-2.84-2.9-4.75-3.57-1.18-.42-3.88-.97-3.45-2.84.64-2.74 5.77-1.85 7.88-.47 1.8 1.18 3.2 2.99 3.61 5.1z" opacity=".8"/><path d="m30.66 13.41c.56-.02 1.02-.87 2.03-1.64.91-.7 2.25-1.03 3.06-1.08.44-.03 1.09-.17 1.35-.64.14-.26-.09-1.59-1.96-1.34-2.22.3-4.16 1.76-4.65 3.08-.33.9-.36 1.64.17 1.62z" opacity=".8"/></g></svg>