<svg enable-background="new 0 0 128 128" viewBox="0 0 128 128" xmlns="http://www.w3.org/2000/svg"><path d="m87.85 6.19h-71.05v115.45h94.62v-92.84z" fill="#fff"/><g fill="none" stroke="#b0bec5" stroke-linecap="round" stroke-miterlimit="10" stroke-width="3.86"><path d="m33.34 41.05h61.16"/><path d="m33.34 55.68h61.16"/><path d="m33.34 70.3h61.16"/><path d="m33.34 84.93h61.16"/><path d="m33.34 99.56h26.15"/></g><path d="m109.45 23.59-16.66-16.71c-1.96-1.85-4.55-2.88-7.25-2.88h-68.5c-1.55 0-2.81 1.26-2.81 2.81v114.38c0 1.55 1.26 2.81 2.81 2.81h93.93c1.55 0 2.81-1.26 2.81-2.81v-89.91c-.01-2.91-2.21-5.69-4.33-7.69zm.32 96.41h-91.54v-112h64.66c2.12 0 3.85 1.72 3.85 3.85v17.88h17.34c3.14 0 5.69 1.73 5.69 5.69z" fill="#6fbff0"/></svg>