<svg enable-background="new 0 0 128 128" viewBox="0 0 128 128" xmlns="http://www.w3.org/2000/svg"><g fill="#e53935"><path d="m112.3 6.13c-6.73 1.66-13.83 1.87-19.18 1.7-16.89-.54-32.6-4.41-44.71 5.25-9.53 7.61-6.72 22.35-9.54 25.17-.01.01-.02.02-.03.03s-.02.02-.03.03c-2.81 2.81-17.56 0-25.17 9.54-9.65 12.11-4.77 26.43-5.44 42.42-.22 5.35-.66 14.47-2.32 21.19-.99 4.01 1.54 7.06 5.15 5.07 12.98-7.16 21-22.75 27.04-36.6 2.29-5.24 5.9-5.75 10.76-7.93 5.2-2.34 9.35-3.72 14.65-9.02.01-.01.02-.02.03-.03s.02-.02.03-.03c5.3-5.3 6.69-9.45 9.02-14.65 2.18-4.86 2.69-8.47 7.93-10.76 13.85-6.04 29.44-14.06 36.6-27.04 2-3.61-.79-5.33-4.79-4.34z"/><path d="m118.74 21.92c-.41-2.44-3.33-2.99-5.14-1.18-8.71 8.69-16.34 17.24-21.87 28.77-4.48 9.34-6.53 17.44-13.81 25.08-8.6 9.03-20.57 14.29-29.95 18.69-13.03 6.1-20.53 13.6-28.61 21.83-1.89 1.92-1.15 4.99 1.47 5.18 6.37.45 16.52 1.13 28.27 1.72 18.28.92 36.49-2.1 53.12-17.66 17.37-16.25 17.37-32.69 18.01-50.44.43-11.75-.53-26.23-1.49-31.99z"/></g></svg>