<svg enable-background="new 0 0 128 128" viewBox="0 0 128 128" xmlns="http://www.w3.org/2000/svg"><path d="m116 4h-104c-4.42 0-8 3.58-8 8v104c0 4.42 3.58 8 8 8h104c4.42 0 8-3.58 8-8v-104c0-4.42-3.58-8-8-8z" fill="#194fa5"/><path d="m109.7 4h-98.2c-4.13.03-7.47 3.37-7.5 7.5v97.9c-.01 4.14 3.34 7.49 7.48 7.5h.02 98.1c4.14.01 7.49-3.34 7.5-7.48 0-.01 0-.01 0-.02v-97.9c.09-4.05-3.13-7.41-7.18-7.5-.07 0-.15 0-.22 0z" fill="#2262dd"/><path d="m39.7 12.9c0-2.3-1.6-3-10.8-2.7-7.7.3-11.5 1.2-13.8 4-1.9 2.3-2.3 5.6-2.6 8.4-.2 2.2-2.2 15.9 3.5 12.2.68-.45 1.23-1.07 1.6-1.8 1.2-2.1 1.9-4.5 3.3-6.6 5.3-8.6 18.8-10.5 18.8-13.5z" fill="#68abe6"/><g fill="#fff"><path d="m43 70h-2c-1.1 0-2-.9-2-2v-2c0-1.1.9-2 2-2h2c1.1 0 2 .9 2 2v2c0 1.1-.9 2-2 2z"/><path d="m33 82h-2c-1.1 0-2-.9-2-2v-2c0-1.1.9-2 2-2h2c1.1 0 2 .9 2 2v2c0 1.1-.9 2-2 2z"/><path d="m39 94h-2c-1.1 0-2-.9-2-2v-2c0-1.1.9-2 2-2h2c1.1 0 2 .9 2 2v2c0 1.1-.9 2-2 2z"/><circle cx="83" cy="26" r="10"/><path d="m108.8 71.3-9.5-26.8c-2.2-4.5-7.2-6.5-14.3-6.5-5.7 0-10.6 1.8-13 4.5l-10.2 9.5c-.69.61-1.58.97-2.5 1h-12.5c-1.89-.03-3.51 1.34-3.8 3.2-.2 1.99 1.25 3.78 3.24 3.98.12.01.24.02.36.02h16.3c.98 0 1.92-.4 2.6-1.1l6.1-6.3c.17-.19.46-.2.65-.03.09.08.15.2.15.33v54.1c-.07 2.4 1.72 4.45 4.1 4.7 2.42.27 4.6-1.47 4.87-3.89.02-.2.03-.41.03-.61v-32.7c0-.99.81-1.8 1.8-1.8s1.8.81 1.8 1.8v32.6c-.07 2.4 1.72 4.45 4.1 4.7 2.42.27 4.6-1.47 4.87-3.89.02-.2.03-.41.03-.61v-54.4c.02-.26.25-.47.51-.45.16.01.31.1.39.25l7.1 21c.72 1.93 2.87 2.91 4.8 2.2 1.79-.86 2.65-2.92 2-4.8z"/><path d="m44.3 112h-17.6c-3.07.01-5.73-2.11-6.4-5.1l-7.2-32.9c-.31-1.35.53-2.69 1.88-3h.02c1.35-.29 2.69.55 3 1.9l7.3 32.9c.17.69.79 1.18 1.5 1.2h17.6c.71-.02 1.33-.51 1.5-1.2l7.1-32.8c.31-1.35 1.65-2.19 3-1.9 1.33.27 2.19 1.57 1.92 2.9-.01.03-.01.07-.02.1l-7.3 32.9c-.64 2.95-3.28 5.05-6.3 5z"/></g></svg>