<svg enable-background="new 0 0 128 128" viewBox="0 0 128 128" xmlns="http://www.w3.org/2000/svg" xmlns:xlink="http://www.w3.org/1999/xlink"><linearGradient id="a" gradientTransform="matrix(-1 0 0 -1 -1662 -42.1)" gradientUnits="userSpaceOnUse" x1="-1736" x2="-1736" y1="-135.9" y2="-139.9"><stop offset="0" stop-color="#ff1744"/><stop offset="1" stop-color="#d50000"/></linearGradient><linearGradient id="b" gradientTransform="matrix(-1 0 0 -1 -1662 -42.1)" gradientUnits="userSpaceOnUse" x1="-1736" x2="-1736" y1="-143.9" y2="-147.9"><stop offset="0" stop-color="#76ff03"/><stop offset="1" stop-color="#64dd17"/></linearGradient><path d="m76 80v28h20l12 16h8c4.4 0 8-3.6 8-8v-44c0-4.4-3.6-8-8-8h-8l-12 16z" fill="#595858"/><path d="m109 64h3v60h-3z" fill="#3a3a3a"/><path d="m4 75.2v13.5c0 1.5 1.6 2.5 2.9 1.8l5.1-2.6h16v-12h-16l-5.1-2.6c-1.3-.7-2.9.3-2.9 1.8z" fill="#595858"/><path d="m36 48h28v28h-28z" fill="#3f3f3f"/><path d="m93.5 80h3v28h-3z" fill="#787676" opacity=".5"/><path d="m84.2 80h3v28h-3z" fill="#3a3a3a"/><g fill="#504f4f"><circle cx="80" cy="36" r="32"/><circle cx="27" cy="46" r="22"/><path d="m16 112v-36c0-4.4 3.6-8 8-8h52c4.4 0 8 3.6 8 8v36c0 4.4-3.6 8-8 8h-52c-4.4 0-8-3.6-8-8z"/></g><path d="m74 94c1.1 0 2 .9 2 2s-.9 2-2 2-2-.9-2-2 .9-2 2-2m-4 2c0 2.2 1.8 4 4 4s4-1.8 4-4-1.8-4-4-4-4 1.8-4 4z" fill="#3a3a3a"/><path d="m74 102c1.1 0 2 .9 2 2s-.9 2-2 2-2-.9-2-2 .9-2 2-2m-4 2c0 2.2 1.8 4 4 4s4-1.8 4-4-1.8-4-4-4-4 1.8-4 4z" fill="#3a3a3a"/><path d="m32 107c-1.7 0-3-1.3-3-3v-8c0-1.7 1.3-3 3-3h32c1.7 0 3 1.3 3 3v8c0 1.7-1.3 3-3 3z" fill="#504f4f"/><path d="m32 94.5h32c.8 0 1.5.7 1.5 1.5v8c0 .8-.7 1.5-1.5 1.5h-32c-.8 0-1.5-.7-1.5-1.5v-8c0-.8.7-1.5 1.5-1.5m0-3c-2.5 0-4.5 2-4.5 4.5v8c0 2.5 2 4.5 4.5 4.5h32c2.5 0 4.5-2 4.5-4.5v-8c0-2.5-2-4.5-4.5-4.5z" fill="#3a3a3a"/><circle cx="80" cy="36" fill="#504f4f" r="22.5"/><path d="m80 15c11.6 0 21 9.4 21 21s-9.4 21-21 21-21-9.4-21-21 9.4-21 21-21m0-3c-13.2 0-24 10.7-24 24 0 13.2 10.7 24 24 24s24-10.7 24-24c0-13.2-10.7-24-24-24z" fill="#3a3a3a"/><circle cx="27" cy="46" fill="#504f4f" r="12.5"/><path d="m27 35c6.1 0 11 4.9 11 11s-4.9 11-11 11-11-4.9-11-11 4.9-11 11-11m0-3c-7.7 0-14 6.3-14 14s6.3 14 14 14 14-6.3 14-14-6.3-14-14-14z" fill="#3a3a3a"/><circle cx="80" cy="36" fill="#636262" r="8"/><circle cx="27" cy="46" fill="#636262" r="8"/><circle cx="74" cy="96" fill="url(#a)" r="2"/><circle cx="74" cy="104" fill="url(#b)" r="2"/></svg>