<svg enable-background="new 0 0 128 128" viewBox="0 0 128 128" xmlns="http://www.w3.org/2000/svg" xmlns:xlink="http://www.w3.org/1999/xlink"><clipPath id="a"><path d="m107.1 77.9c6.9.9 11.2 2.1 13.8 4.2 3.5 2.8 3.3 6.7-1.1 7.3-2 .3-22.5-.2-26.1 0-13.8.7-17.3 2.9-23.2 3.5-3.3.4-11.1 1-14.1 1.3s-31.4 4.3-47.5 3.5c-1.7-.1-1.8-1.2-2.1-2.3-1-2.8-2.4-12-2-19.1.2-2.2 1.2-2.6 2-3.9 3.2-4.7 9.6-14.7 17.2-19.3 3-1.8 11.7-5.7 14.7-8 6.6-4.8 12.2-9.7 14.2-11.1 3.8-2.7 10.4.4 7.7 8.9-1.8 5.9-11.3 10.7-13.4 16.1-1 2.7-1 5.8 1.8 8.1 14-1.4 23.5-5.1 26.8-6.7 4.1-2 7.2-5.8 13.2-6.3 3.7-.3 5.4 2.2 4 4s-7 5.9-7 5.9 3.8-.7 7.5-2.6c4-2.1 9.5-4 14-2.5 3.7 1.2 2.9 4.5 1 5.3-3.3 1.3-11.5 5-12.3 5.3 6-.4 14-3.8 20.7-1.6 3.3 1.1 4.7 4.8 1.8 6.4-3 1.6-11.6 3.6-11.6 3.6z"/></clipPath><clipPath id="b"><path d="m107.1 77.9c6.9.9 11.2 2.1 13.8 4.2 3.5 2.8 3.3 6.7-1.1 7.3-2 .3-22.5-.2-26.1 0-13.8.7-17.3 2.9-23.2 3.5-3.3.4-11.1 1-14.1 1.3s-31.4 4.3-47.5 3.5c-1.7-.1-1.8-1.2-2.1-2.3-1-2.8-2.4-12-2-19.1.2-2.2 1.2-2.6 2-3.9 3.2-4.7 9.6-14.7 17.2-19.3 3-1.8 11.7-5.7 14.7-8 6.6-4.8 12.2-9.7 14.2-11.1 3.8-2.7 10.4.4 7.7 8.9-1.8 5.9-11.3 10.7-13.4 16.1-1 2.7-1 5.8 1.8 8.1 14-1.4 23.5-5.1 26.8-6.7 4.1-2 7.2-5.8 13.2-6.3 3.7-.3 5.4 2.2 4 4s-7 5.9-7 5.9 3.8-.7 7.5-2.6c4-2.1 9.5-4 14-2.5 3.7 1.2 2.9 4.5 1 5.3-3.3 1.3-11.5 5-12.3 5.3 6-.4 14-3.8 20.7-1.6 3.3 1.1 4.7 4.8 1.8 6.4-3 1.6-11.6 3.6-11.6 3.6z"/></clipPath><path d="m107.1 77.9c6.9.9 11.2 2.1 13.8 4.2 3.5 2.8 3.3 6.7-1.1 7.3-2 .3-22.5-.2-26.1 0-13.8.7-17.3 2.9-23.2 3.5-3.3.4-11.1 1-14.1 1.3s-31.4 4.3-47.5 3.5c-1.7-.1-1.8-1.2-2.1-2.3-1-2.8-2.4-12-2-19.1.2-2.2 1.2-2.6 2-3.9 3.2-4.7 9.6-14.7 17.2-19.3 3-1.8 11.7-5.7 14.7-8 6.6-4.8 12.2-9.7 14.2-11.1 3.8-2.7 10.4.4 7.7 8.9-1.8 5.9-11.3 10.7-13.4 16.1-1 2.7-1 5.8 1.8 8.1 14-1.4 23.5-5.1 26.8-6.7 4.1-2 7.2-5.8 13.2-6.3 3.7-.3 5.4 2.2 4 4s-7 5.9-7 5.9 3.8-.7 7.5-2.6c4-2.1 9.5-4 14-2.5 3.7 1.2 2.9 4.5 1 5.3-3.3 1.3-11.5 5-12.3 5.3 6-.4 14-3.8 20.7-1.6 3.3 1.1 4.7 4.8 1.8 6.4-3 1.6-11.6 3.6-11.6 3.6z" fill="#ffca28"/><g clip-path="url(#a)" fill="#faa700"><path d="m59 41.4c1.3-3.4-1.8-8.1-5.3-5-3.7 3.2-12.8 12.2-20.6 15.4s-13.2 6.6-19.5 15.4c-6.6 9.4-6.6 11.5-9.4 12.6 0-5.5 0-9.9 0-9.9l14.8-19.7 19.5-10 17.1-11.5 8.4 4.4-1.7 11.3z"/><path d="m110.3 78.2c-.8 2 14.9 4.8 8.5 9.9-2.4 1.9 3.5 2.4 3.5 2.4l3.3-3.9-1.2-6.3z"/><path d="m107.1 77.9s-20.7-.8-22.5-.9c-5.6-.2-9.7-1.8-15.1-2.2-5.5-.3-11.9-.5-17.9-4.5-3.1-2-3.8-3.2-3.8-3.2l5.2-5.9s38.4-10 38.5-10.2c.1-.1 21 6.3 21 6.3l10.9 14.5-3.4 4.2z"/></g><g clip-path="url(#b)" fill="#b55e19"><path d="m58.8 33.4c.8 1.8 1.6 5.5-1.1 9.8-5 8.1-13.8 10.3-13.8 18.4 0 5.6 7 9.3 9.5 10.1.7.3.9-.4.4-.6-.5-.3-3.6-2.4-4.7-3.9s-2.3-4.6-.3-6.9 12.7-12.1 12.7-12.1l3.1-8.8-4.3-7.2z"/><path d="m92.7 60.6-6.7 3.4s-13.6 4.7-14.1 4.8c-.4.1-1.1.4-1.5.1s-.8-.8-1.1-1-.2-.9.6-.8 1.9.4 3.6-.2 9.4-3.2 11.6-4.9 6.4-5.1 6.8-5.5 1-.9.3-2.2c-.5-.9.5-1.1.8-.8.3.2 2.3 2.7 2.3 2.7z"/><path d="m106.5 66.3c-1.2.4-9.3 2.9-10.4 3.2-1 .2-16.7 4-17.3 4.1-.6.2-1.4.3-2-.2-.3-.3-.9-.9-1.2-1.1-.2-.2-.4-1 1.1-.9s4-.1 7.2-.9c5.9-1.4 9.2-2.1 11.6-3.1 5.9-2.6 11.7-4.5 13.2-5.3.9-.5.9-1.3.7-2.1-.3-1 .7-1.1 1.1-.8.3.4 1.6 4.1 1.6 4.1z"/><path d="m120.5 76.6c-1.3.1-12.2 1.3-13.4 1.3s-7.3-.3-7.3-.3 10.4-3.2 14.8-4.1c3.1-.7 5.4-1.5 5.5-3.6s1.4-1.3 1.6-.9c.3.5-1.2 7.6-1.2 7.6z"/><path d="m123.6 85.4c-.4.9-1.2 1.9-2.7 1.9s-29.8.2-34.2.3c-8 .1-11.3 2.3-20.9 2.8-10.3.5-21.2 4.3-60.3 4.4.8 2.4 1.5 5 1.7 4.9.2-.2 28.8-.5 28.8-.5l49.9-6.7 37.4-.6 2.8-4.6z"/></g></svg>