<svg enable-background="new 0 0 128 128" viewBox="0 0 128 128" xmlns="http://www.w3.org/2000/svg" xmlns:xlink="http://www.w3.org/1999/xlink"><linearGradient id="a" gradientTransform="matrix(1 0 0 -1 0 128)" gradientUnits="userSpaceOnUse" x1="64" x2="64" y1="32.2259" y2="5.4338"><stop offset="0" stop-color="#00bfa5"/><stop offset=".4701" stop-color="#00b29a"/><stop offset="1" stop-color="#009e89"/></linearGradient><radialGradient id="b" cx="64.0005" cy="80.7176" gradientTransform="matrix(1 0 0 -1.1282 0 138.3469)" gradientUnits="userSpaceOnUse" r="38.0924"><stop offset=".7945" stop-color="#bfa055" stop-opacity="0"/><stop offset="1" stop-color="#bfa055"/></radialGradient><linearGradient id="c"><stop offset=".5988" stop-color="#e0bb95"/><stop offset="1" stop-color="#cca47a"/></linearGradient><linearGradient id="d" gradientTransform="matrix(1 0 0 -1 0 128)" gradientUnits="userSpaceOnUse" x1="31.1525" x2="31.1525" xlink:href="#c" y1="124.2996" y2="65.6625"/><linearGradient id="e" gradientTransform="matrix(1 0 0 -1 0 128)" gradientUnits="userSpaceOnUse" x1="96.8429" x2="96.8429" xlink:href="#c" y1="124.163" y2="65.6975"/><path d="m64.13 96c-.04 0-.09 0-.13 0-25.49.03-52 7.28-52 25.06v2.94h1.5 1.5 98 1.5 1.5v-2.94c0-16.76-26.26-25.06-51.87-25.06z" fill="url(#a)"/><path d="m91.33 50.43h-54.66c-5.89 0-10.71 5.14-10.71 11.41s4.82 11.41 10.71 11.41h54.65c5.89 0 10.71-5.14 10.71-11.41s-4.81-11.41-10.7-11.41z" fill="#c48e6a"/><path d="m54.92 90.08v9.98c0 4.51 3.46 8.17 9.08 8.17s9.08-3.66 9.08-8.17v-9.98z" fill="#c48e6a"/><path d="m64 11.07c-17.4 0-33.52 18.61-33.52 45.4 0 26.64 16.61 39.81 33.52 39.81s33.52-13.18 33.52-39.82c0-26.78-16.12-45.39-33.52-45.39z" fill="#e0bb95"/><path d="m72.32 76.14c-3.15 1.87-13.47 1.87-16.61 0-1.81-1.07-3.65.57-2.9 2.21.74 1.61 6.37 5.36 11.23 5.36s10.42-3.75 11.16-5.36c.75-1.64-1.08-3.29-2.88-2.21z" fill="#6d4c41"/><path d="m67.86 68.06c-.11-.04-.21-.07-.32-.08h-7.08c-.11.01-.22.04-.32.08-.64.26-.99.92-.69 1.63s1.71 2.69 4.55 2.69 4.25-1.99 4.55-2.69c.3-.71-.05-1.37-.69-1.63z" fill="#c48e6a"/><path d="m47.63 60.3c-2.06 0-3.9-.5-5.18-1.29-.55-.34-.87-.14-.77.5.37 2.48 2.9 4.4 5.95 4.4 3.06 0 5.58-1.92 5.95-4.4.1-.64-.22-.84-.77-.5-1.28.79-3.12 1.29-5.18 1.29z" fill="#5d4037"/><path d="m80.25 60.3c-2.06 0-3.9-.5-5.18-1.29-.55-.34-.87-.14-.77.5.38 2.48 2.9 4.4 5.95 4.4s5.58-1.92 5.95-4.4c.1-.64-.22-.84-.77-.5-1.28.79-3.13 1.29-5.18 1.29z" fill="#5d4037"/><g fill="#ab872f"><path d="m40.02 50.73c3.18-4.51 10.66-4.66 14.41-.82.65.67 1.34 1.53.85 2.5-.54 1.07-1.65.9-2.56.53-2.43-.98-4.94-1.42-7.55-.89-1.13.23-2.1.7-3.17 1.08-1.44.49-2.91-1.01-1.98-2.4z"/><path d="m86.08 53.13c-2.23-.97-4.49-1.53-6.95-1.25-1.12.13-2.22.42-3.26.83-.83.33-1.72.86-2.58.28-2.45-1.69 1.89-4.44 3.17-4.99 2.76-1.19 6.05-1.08 8.72.31 1.06.55 2.21 1.35 2.84 2.4.79 1.31-.39 3.05-1.94 2.42z"/><path d="m64.02 4.21c-.01 0-.01 0-.02 0s-.01 0-.02 0c-45.43.25-36.13 52.14-36.13 52.14s2.04 5.35 2.97 7.71c.13.34.63.3.71-.05.97-4.34 4.46-16.73 6.22-21.4 1.04-2.76 3.9-4.36 6.79-3.83 4.45.81 11.55 1.81 19.37 1.81h.08s.06 0 .08 0c7.82 0 14.92-1 19.37-1.81 2.9-.53 5.76 1.08 6.79 3.83 1.75 4.66 5.22 16.96 6.2 21.36.08.36.58.39.71.05l2.98-7.67c.03 0 9.34-51.89-36.1-52.14z"/></g><path d="m100.15 56.35s9.31-51.9-36.13-52.14c-.01 0-.01 0-.02 0-.01 0-.01 0-.02 0-.71 0-1.4.02-2.08.05-1.35.06-2.66.16-3.92.31-.01 0-.03 0-.04 0-.09.01-.17.03-.26.04-38.24 4.82-29.83 51.74-29.83 51.74l2.98 7.68c.13.34.62.31.7-.05.98-4.38 4.46-16.71 6.22-21.37 1.04-2.76 3.9-4.36 6.79-3.83 4.45.81 11.55 1.81 19.37 1.81h.08s.06 0 .08 0c7.82 0 14.92-1 19.37-1.81 2.9-.53 5.76 1.08 6.79 3.83 1.76 4.68 5.25 17.1 6.21 21.42.08.36.57.39.7.05.96-2.36 3.01-7.73 3.01-7.73z" fill="url(#b)"/><path d="m43.28 35.44c-.88 1.44-3.02 2.36-4.78 2.36-.33 0-.64-.03-.93-.1-1.27-.28-2.88-.76-4.38-.76-.69 0-1.36.1-1.96.37-1.91.85-3.14 2.75-3.14 4.85l-.27 15.99c-.25 3.31-1.06 5.67-3.79 5.67-2.13 0-2.89-1.32-3-2.67l-2.13-18.6-.54-15.55c0-.07 2.01-11.85 2.01-11.85l.49-11.15h13.92l-2.41 14.21c-.42 2.98.99 6.43 2.4 8.33 2.29 3.11 5.25 3.51 5.93 3.69 1.86.26 2.51.89 2.92 1.7.44.85.5 2.09-.34 3.51z" fill="url(#d)"/><path d="m109.63 27-.52 15.55-2.14 18.6c-.11 1.35-.87 2.67-3 2.67-2.73 0-3.54-2.36-3.79-5.67l-.26-15.99c0-2.1-1.24-4-3.15-4.85-.6-.27-1.27-.37-1.96-.37-1.5 0-3.1.48-4.37.76-.29.07-.61.1-.93.1-1.76 0-3.91-.92-4.78-2.36-.86-1.42-.8-2.66-.36-3.51.42-.81 1.06-1.44 2.93-1.7.68-.18 3.63-.58 5.93-3.69 1.41-1.9 2.81-5.35 2.39-8.33l-2.4-14.21h13.91l.5 11.15s2 11.72 2 11.85z" fill="url(#e)"/></svg>