<svg enable-background="new 0 0 128 128" viewBox="0 0 128 128" xmlns="http://www.w3.org/2000/svg" xmlns:xlink="http://www.w3.org/1999/xlink"><radialGradient id="a" cx="64" cy="98.3" gradientTransform="matrix(1 0 0 -.981 0 128)" gradientUnits="userSpaceOnUse" r="34.6"><stop offset="0" stop-color="#ff0"/><stop offset=".325" stop-color="#fff600"/><stop offset=".854" stop-color="#ffde00"/><stop offset=".998" stop-color="#ffd600"/></radialGradient><linearGradient id="b" gradientTransform="matrix(1 0 0 -1 0 130)" gradientUnits="userSpaceOnUse" x1="64.3" x2="64.3" y1="125" y2="88.2"><stop offset="0" stop-color="#ff0"/><stop offset=".446" stop-color="#fff900"/><stop offset="1" stop-color="#ffea00"/></linearGradient><linearGradient id="c"><stop offset=".0032" stop-color="#ff9100"/><stop offset=".44" stop-color="#ff8400"/><stop offset="1" stop-color="#ff6d00"/></linearGradient><linearGradient id="d" gradientTransform="matrix(1 0 0 -1 0 130)" gradientUnits="userSpaceOnUse" x1="44" x2="44" xlink:href="#c" y1="31.8" y2="-5.87"/><linearGradient id="e"><stop offset=".0032" stop-color="#ff0"/><stop offset=".678" stop-color="#fff200"/><stop offset="1" stop-color="#ffea00"/></linearGradient><linearGradient id="f" gradientTransform="matrix(1 0 0 -1 0 130)" gradientUnits="userSpaceOnUse" x1="43.1" x2="43.1" xlink:href="#e" y1="32.1" y2="-6.66"/><linearGradient id="g" gradientTransform="matrix(1 0 0 -1 0 130)" gradientUnits="userSpaceOnUse" x1="84" x2="84" xlink:href="#c" y1="31.8" y2="-5.85"/><linearGradient id="h" gradientTransform="matrix(1 0 0 -1 0 130)" gradientUnits="userSpaceOnUse" x1="84.9" x2="84.9" xlink:href="#e" y1="32" y2="-6.61"/><linearGradient id="i" gradientTransform="matrix(1 0 0 -1 0 130)" gradientUnits="userSpaceOnUse" x1="64" x2="64" y1="34.2" y2="-7.6"><stop offset=".0032" stop-color="#448aff"/><stop offset=".404" stop-color="#3b7dff"/><stop offset="1" stop-color="#2962ff"/></linearGradient><linearGradient id="j"><stop offset=".728" stop-color="#6d4c41" stop-opacity="0"/><stop offset="1" stop-color="#6d4c41"/></linearGradient><radialGradient id="k" cx="99.7" cy="45.2" gradientTransform="matrix(1 0 0 .491 -21.2 59.6)" gradientUnits="userSpaceOnUse" r="23.6" xlink:href="#j"/><linearGradient id="l"><stop offset=".663" stop-color="#6d4c41"/><stop offset="1" stop-color="#6d4c41" stop-opacity="0"/></linearGradient><radialGradient id="m" cx="78.4" cy="52.5" gradientTransform="matrix(-.906 .424 -.314 -.672 189 80.3)" gradientUnits="userSpaceOnUse" r="6.93" xlink:href="#l"/><linearGradient id="n"><stop offset=".725" stop-color="#6d4c41" stop-opacity="0"/><stop offset="1" stop-color="#6d4c41"/></linearGradient><radialGradient id="o" cx="97.2" cy="69" gradientTransform="matrix(-.0746 -.997 .831 -.0622 33 160)" gradientUnits="userSpaceOnUse" r="30" xlink:href="#n"/><radialGradient id="p" cx="46.8" cy="71.4" gradientTransform="matrix(.0746 -.997 -.831 -.0622 101 110)" gradientUnits="userSpaceOnUse" r="30" xlink:href="#n"/><radialGradient id="q" cx="51.5" cy="45.2" gradientTransform="matrix(-1 0 0 .491 101 59.6)" gradientUnits="userSpaceOnUse" r="23.6" xlink:href="#j"/><radialGradient id="r" cx="26.4" cy="51.3" gradientTransform="matrix(.906 .424 .314 -.672 -13.3 102)" gradientUnits="userSpaceOnUse" r="6.93" xlink:href="#l"/><path d="m98.5 79.5c-1.28-2.3.24-4.63 2.84-7.5 4.12-4.54 8.41-15 3.88-25.4.02-.06-.88-1.8-.86-1.86l-1.74-.09c-.56-.08-19.6-.12-38.7-.12s-38.1.04-38.7.12c0 0-2.62 1.89-2.59 1.95-4.53 10.4-.24 20.9 3.88 25.4 2.61 2.87 4.12 5.2 2.84 7.5-1.25 2.24-4.83 2.57-4.83 2.57s.77 2.3 2.73 3.54c1.82 1.15 4.07 1.42 5.64 1.46 0 0 5.98 8.75 22 8.75h17.9c16.1 0 22-8.75 22-8.75 1.57-.04 3.82-.31 5.64-1.46 1.96-1.24 2.73-3.54 2.73-3.54s-3.58-.33-4.82-2.57z" fill="#543930"/><path d="m64 95.8v-9.7l28.4-2.31 2.64 3.26s-5.98 8.75-22 8.75z" fill="url(#k)"/><path d="m94.8 82.8c-4.36-6.58 4.96-9.02 4.96-9.02l.01.01c-1.58 2.07-2.28 3.87-1.29 5.66 1.25 2.24 4.83 2.57 4.83 2.57s-4.76 4.43-8.51.78z" fill="url(#m)"/><path d="m105 46.6c4.42 10.1.34 20.7-3.66 25.2-.55.62-2.9 3.02-3.4 4.95 0 0-9.64-13.3-12.5-21-.58-1.55-1.11-3.14-1.2-4.78-.07-1.23.1-2.68.79-3.72.84-1.27 19.5-1.65 19.5-1.65 0 .01.52 1.07.52 1.07z" fill="url(#o)"/><path d="m22.7 46.6c-4.42 10.1-.34 20.7 3.66 25.2.55.62 2.9 3.02 3.4 4.95 0 0 9.64-13.3 12.5-21 .58-1.55 1.11-3.14 1.2-4.78.07-1.23-.1-2.68-.79-3.72-.84-1.27-1.85-.93-3.32-.93-2.79 0-15-.71-15.9-.71.01 0-.76 1.06-.76 1.06z" fill="url(#p)"/><path d="m64 95.8v-9.7l-28.4-2.31-2.64 3.26s5.98 8.75 22 8.75z" fill="url(#q)"/><path d="m33.2 82.8c4.36-6.58-4.96-9.02-4.96-9.02l-.01.01c1.58 2.07 2.28 3.87 1.29 5.66-1.25 2.24-4.83 2.57-4.83 2.57s4.76 4.43 8.51.78z" fill="url(#r)"/><path d="m116 124v-3.12c0-16.8-26.4-25.1-52-25.1-25.5.03-52 7.28-52 25.1v3.12z" fill="url(#i)"/><path d="m64 90.1h-9.08v9.98c0 4.51 3.7 8.17 8.26 8.17h1.65c4.56 0 8.26-3.66 8.26-8.17v-9.98z" fill="#e59600"/><path d="m58.5 124h-29v-22.7c1.79-.7 3.68-1.32 5.64-1.86 2.89-.82 5.94-1.49 9.1-2.01 2.14-.36 4.33-.65 6.55-.88z" fill="url(#d)"/><path d="m51 124h-14.7l-1.1-24.6c2.89-.82 5.94-1.49 9.1-2.01z" fill="url(#f)"/><path d="m98.4 102v22.4h-29l7.65-27.4c2.21.24 4.4.56 6.53.94 3.17.57 6.23 1.27 9.12 2.13 1.97.58 3.86 1.23 5.65 1.94z" fill="url(#g)"/><path d="m92.8 99.6-1.09 24.4h-14.7l6.64-26.5c3.17.57 6.23 1.27 9.12 2.13z" fill="url(#h)"/><path d="m91.3 50.4h-54.7c-5.89 0-10.7 5.14-10.7 11.4s4.82 11.4 10.7 11.4h54.6c5.89 0 10.7-5.14 10.7-11.4s-4.81-11.4-10.7-11.4z" fill="#e59600"/><path d="m64 11.1c-17.4 0-33.5 18.6-33.5 45.4 0 26.6 16.6 39.8 33.5 39.8s33.5-13.2 33.5-39.8c0-26.8-16.1-45.4-33.5-45.4z" fill="#ffca28"/><g fill="#404040"><ellipse cx="48.4" cy="58.8" rx="4.93" ry="5.1"/><ellipse cx="79.6" cy="58.8" rx="4.93" ry="5.1"/></g><g fill="#6d4c41"><path d="m55.6 49.8c-.93-1.23-3.07-3.01-7.23-3.01s-6.31 1.79-7.23 3.01c-.41.54-.31 1.17-.02 1.55.26.35 1.04.68 1.9.39s2.54-1.16 5.35-1.18c2.81.02 4.49.89 5.35 1.18s1.64-.03 1.9-.39c.28-.38.39-1.01-.02-1.55z"/><path d="m86.8 49.8c-.93-1.23-3.07-3.01-7.23-3.01s-6.31 1.79-7.23 3.01c-.41.54-.31 1.17-.02 1.55.26.35 1.04.68 1.9.39s2.54-1.16 5.35-1.18c2.81.02 4.49.89 5.35 1.18s1.64-.03 1.9-.39c.28-.38.39-1.01-.02-1.55z"/></g><path d="m67.9 68.1c-.11-.04-.21-.07-.32-.08h-7.08c-.11.01-.22.04-.32.08-.64.26-.99.92-.69 1.63s1.71 2.69 4.55 2.69 4.25-1.99 4.55-2.69c.3-.71-.05-1.37-.69-1.63z" fill="#e59600"/><path d="m72.4 76.1c-3.18 1.89-13.6 1.89-16.8 0-1.83-1.09-3.7.58-2.94 2.24.75 1.63 6.44 5.42 11.4 5.42s10.6-3.79 11.3-5.42c.75-1.66-1.09-3.33-2.92-2.24z" fill="#795548"/><path d="m64 11.1c-37.3 0-34.7 41.4-34.7 41.4-.46 8.01 1.03 12.9 1.82 14.9.14.35.63.32.72-.04.99-3.97 4.36-17.8 4.03-20.2 0 0 11.4-2.25 22.2-10.2 2.2-1.62 4.59-3 7.13-4.01 13.6-5.41 16.4 3.82 16.4 3.82s9.42-1.81 12.3 11.3c1.07 4.9 1.79 12.8 2.4 18.2.04.39.57.47.72.11.95-2.18 3.1-6.48 3.3-10.9.69-14.8-8.06-44.4-36.2-44.4z" fill="#543930"/><path d="m64.4 7.92c-46.8 0-43.2 46.4-43.2 46.4s12.2-10.8 43.5-10.8 42.1 9.8 42.1 9.8 4.4-45.4-42.4-45.4z" fill="url(#a)"/><path d="m74.7 42.2h-20.8v-33.1c0-2.79 2.26-5.05 5.05-5.05h10.7c2.79 0 5.05 2.26 5.05 5.05z" fill="url(#b)"/><g fill="#edbf00"><path d="m54.1 8.78c-2.41.425-4.65.997-6.72 1.7 3.38 3.72 5.34 10.9 6.72 20.7z" opacity=".5"/><path d="m74.8 8.77v22.5c1.38-9.87 3.35-17.1 6.75-20.8-2.08-.696-4.32-1.26-6.75-1.69z" opacity=".5"/></g><path d="m110 51c-.25-.42-.64-.74-1.07-.99-18.1-10.4-44.5-10.1-44.5-10.1s-26.4-.35-44.5 10.1c-.44.25-.82.57-1.07.99-.53.9-.97 2.61.75 5.08 0 0 11-10.8 44.8-11.5 33.8.69 44.8 11.5 44.8 11.5 1.72-2.47 1.28-4.18.75-5.08z" fill="#ffea00"/></svg>