<svg enable-background="new 0 0 128 128" viewBox="0 0 128 128" xmlns="http://www.w3.org/2000/svg" xmlns:xlink="http://www.w3.org/1999/xlink"><radialGradient id="a" cx="52.5513" cy="68.9784" gradientTransform="matrix(1 0 0 -1.1901 0 141.1106)" gradientUnits="userSpaceOnUse" r="47.5316"><stop offset=".7936" stop-color="#454140" stop-opacity="0"/><stop offset="1" stop-color="#454140"/></radialGradient><radialGradient id="b" cx="53.3278" cy=".2822" gradientTransform="matrix(1 0 0 -.6035 0 127.888)" gradientUnits="userSpaceOnUse" r="68.2194"><stop offset=".5595" stop-color="#f5f5f5"/><stop offset="1" stop-color="#c6c6c6"/></radialGradient><linearGradient id="c" gradientTransform="matrix(1 0 0 -1 0 128)" gradientUnits="userSpaceOnUse" x1="87.9225" x2="102.3804" y1="13.0522" y2="11.1369"><stop offset="0" stop-color="#9e9e9e" stop-opacity="0"/><stop offset=".788" stop-color="#9e9e9e"/></linearGradient><linearGradient id="d" gradientTransform="matrix(1 0 0 -1 0 128)" gradientUnits="userSpaceOnUse" x1="52.21" x2="52.21" y1="22.296" y2="3.267"><stop offset=".0032" stop-color="#80cbc4"/><stop offset=".3326" stop-color="#73c6be"/><stop offset=".9409" stop-color="#51b8ae"/><stop offset="1" stop-color="#4db6ac"/></linearGradient><linearGradient id="e"><stop offset=".335" stop-color="#e0e0e0"/><stop offset=".668" stop-color="#d0d0d0"/><stop offset=".9874" stop-color="#bdbdbd"/></linearGradient><linearGradient id="f" gradientTransform="matrix(1 0 0 -1 0 128)" gradientUnits="userSpaceOnUse" x1="38.665" x2="38.665" xlink:href="#e" y1="10.6571" y2="30.8605"/><linearGradient id="g" gradientTransform="matrix(-1 0 0 -1 104.1574 128)" gradientUnits="userSpaceOnUse" x1="38.5529" x2="38.5529" xlink:href="#e" y1="10.6571" y2="30.8605"/><linearGradient id="h" gradientTransform="matrix(1 0 0 -1 0 128)" gradientUnits="userSpaceOnUse" x1="97.9733" x2="123.7165" y1="22.7848" y2="19.3744"><stop offset=".4369" stop-color="#f5f5f5"/><stop offset="1" stop-color="#c6c6c6"/></linearGradient><linearGradient id="i" gradientTransform="matrix(1 0 0 -1 0 128)" gradientUnits="userSpaceOnUse" x1="118.5669" x2="96.0909" y1="75.4311" y2="22.72"><stop offset="0" stop-color="#b3e5fc" stop-opacity=".8"/><stop offset=".0826" stop-color="#aee3fc" stop-opacity=".8165"/><stop offset=".6744" stop-color="#8dd8fa" stop-opacity=".9349"/><stop offset="1" stop-color="#81d4fa"/></linearGradient><radialGradient id="j" cx="112.4231" cy="39.8748" gradientTransform="matrix(.9732 .2302 .2302 -.9732 -8.1274 102.8444)" gradientUnits="userSpaceOnUse" r="25.3664"><stop offset="0" stop-color="#ce93d8"/><stop offset=".2054" stop-color="#ca8ad5"/><stop offset=".5366" stop-color="#bf73cc"/><stop offset=".9503" stop-color="#ad4cbe"/><stop offset="1" stop-color="#ab47bc"/></radialGradient><linearGradient id="k" gradientTransform="matrix(1 0 0 -1 0 128)" gradientUnits="userSpaceOnUse" x1="51.6545" x2="51.6545" y1="83.691" y2="59.498"><stop offset=".2028" stop-color="#b3e5fc" stop-opacity=".5"/><stop offset="1" stop-color="#b3e5fc" stop-opacity=".2"/></linearGradient><linearGradient id="l"><stop offset="0" stop-color="#bdbdbd"/><stop offset="1" stop-color="#e0e0e0"/></linearGradient><linearGradient id="m" gradientTransform="matrix(1 0 0 -1 0 128)" gradientUnits="userSpaceOnUse" x1="80.2091" x2="80.2091" xlink:href="#l" y1="72.2195" y2="84.847"/><linearGradient id="n" gradientTransform="matrix(1 0 0 -1 0 128)" gradientUnits="userSpaceOnUse" x1="24.0409" x2="24.0409" xlink:href="#l" y1="72.3862" y2="84.5081"/><radialGradient id="o" cx="52.1109" cy="71.87" gradientTransform="matrix(0 1 1.4084 0 -49.1107 4.0171)" gradientUnits="userSpaceOnUse" r="22.8959"><stop offset="0" stop-color="#f5f5f5"/><stop offset=".6761" stop-color="#eee"/><stop offset="1" stop-color="#e0e0e0"/></radialGradient><radialGradient id="p" cx="52.8846" cy="64.9539" gradientTransform="matrix(1 0 0 -1.2135 0 141.8707)" gradientUnits="userSpaceOnUse" r="49.788"><stop offset=".7945" stop-color="#454140" stop-opacity="0"/><stop offset="1" stop-color="#454140"/></radialGradient><path d="m53.12 3.45c-41.01 0-40.68 37.92-40.68 38.52 0 24.56 1.88 59.25 11.71 72.9 3.9 5.41 11.43 5.71 11.43 5.71l16.97-.03 16.97.03s7.54-.3 11.43-5.71c9.83-13.65 11.71-48.34 11.71-72.9 0-.6 1.47-38.52-39.54-38.52z" fill="#312d2d"/><path d="m53.12 3.45c-41.01 0-40.68 37.92-40.68 38.52 0 24.56 1.88 59.25 11.71 72.9 3.9 5.41 11.43 5.71 11.43 5.71l16.97-.03 16.97.03s7.54-.3 11.43-5.71c9.83-13.65 11.71-48.34 11.71-72.9 0-.6 1.47-38.52-39.54-38.52z" fill="url(#a)"/><path d="m51.92 96.45c-23.62.07-48.11 7.33-48.11 25.05v3.04h96.23v-3.04c0-17.72-24.5-24.98-48.12-25.05z" fill="url(#b)"/><path d="m90.03 105.14-5.82 19.41h15.83v-3.04c0-7.05-3.87-12.43-10.01-16.37z" fill="url(#c)"/><path d="m52 92.53h-9.08v9.98c0 4.51 3.7 8.17 8.26 8.17h1.65c4.56 0 8.26-3.66 8.26-8.17v-9.98z" fill="#edc391"/><path d="m62.78 105.7h-21.14l2.42 18.85h16.56z" fill="url(#d)"/><path d="m43.05 96.77c-5.92.43-8.69.94-8.69.94l-3.13 7.3 5.25 4.39-4.88 6.15 7.12 9h7.38z" fill="url(#f)"/><path d="m61.22 96.77c5.92.43 8.69.94 8.69.94l3.13 7.3-5.25 4.39 4.88 6.15-7.12 9h-7.38z" fill="url(#g)"/><path d="m122.32 74.01c1.14 7.79-.11 16.87-.11 16.87l-10.26-.9s-.39-5.91 0-5.92z" fill="#80cbc4"/><path d="m111.99 88.35c-6.66-.81-9.59-1.6-9.59-1.6l-11.34 37.8h28.19l4.14-36.21s-3.15 1.01-11.4.01z" fill="url(#h)"/><path d="m110.49 113.13c-2.27 1.4-9.11.12-15.75-2.25-5.12-1.83-9.23-4.16-9.27-4.17-.53-.25-5.5-2.95-5.5-5.74 0-2.32 1.96-3.89 2.44-4.43.07-.07.1-.1.1-.1l17.46-17.59 13.14-31.8.02-.01s2.36-.81 5.67.49 5.01 3.46 5.01 3.46l-.02.01-11.85 32.62s.03 23.38 0 25.39c-.04 2.72-.36 3.45-1.45 4.12z" fill="url(#i)" opacity=".86"/><path d="m106.89 111.57c-5.64-2.2-17.38-6.85-23.03-9.14-1.53-.63-1.93-2.6-.77-3.77l7.43-7.49 19.51-.94v19.19c.01 1.62-1.62 2.74-3.14 2.15z" fill="url(#j)" opacity=".8"/><g fill="#fff"><path d="m99.37 97.27h2v6.8h-2z" transform="matrix(.3862 -.9224 .9224 .3862 -31.2497 154.3743)"/><path d="m101.39 91.82h2v6.8h-2z" transform="matrix(.3862 -.9224 .9224 .3862 -24.9876 152.898)"/><path d="m103.42 86.39h2v6.8h-2z" transform="matrix(.3862 -.9224 .9224 .3862 -18.7294 151.4282)"/><path d="m105.44 80.95h2v6.8h-2z" transform="matrix(.3862 -.9224 .9224 .3862 -12.4697 149.9556)"/><path d="m107.46 75.5h2v6.8h-2z" transform="matrix(.3862 -.9224 .9224 .3862 -6.2081 148.4794)"/><path d="m109.48 70.07h2v6.8h-2z" transform="matrix(.3861 -.9224 .9224 .3861 .0518 147.0136)"/><path d="m111.5 64.63h2v6.8h-2z" transform="matrix(.3861 -.9224 .9224 .3861 6.3133 145.5377)"/><path d="m114.01 58.3h2v6.8h-2z" transform="matrix(.3861 -.9224 .9224 .3861 13.6879 143.9722)"/><path d="m116.04 52.86h2v6.8h-2z" transform="matrix(.3861 -.9224 .9224 .3861 19.9471 142.5016)"/></g><path d="m98.74 80.1s-2.53-2.14-2.52-4.09c.01-1.56 1.89-3.04 1.89-3.04s-1.8-2.77-1.14-4.28c.94-2.14 3.41-2.55 3.41-2.55s-1.12-2.79.65-4.43c1.26-1.17 4.9-.68 4.9-.68s.36-4.58 4.82-3.43c1.74.45 7.91 3.99 10.21 11.46 1.44 4.67 2 6.06 1.54 13.06-.2 2.97-7.71 2.97-10.54 1.95-7.05-2.54-9.05-5.64-10.02-5.62-.98.01-3.2 1.65-3.2 1.65z" fill="#80cbc4"/><path d="m99.61 71.23c-.72.13-1.28.71-1.44 1.43l-.07.31 4.18-1.43c-.98-.46-1.95-.44-2.67-.31z" fill="#26a69a"/><path d="m104.69 66.42c-.57-.63-1.23-.99-1.82-1.2-.94-.33-1.98.07-2.5.92z" fill="#26a69a"/><path d="m107.98 60.37c-.73-.29-1.6-.07-2.04.58-.01.02-.02.04-.03.05 1.78.22 4.45 1.34 4.45 1.34-.54-1.06-1.56-1.65-2.38-1.97z" fill="#26a69a"/><ellipse cx="95.98" cy="105.65" fill="#8f5d9b" rx="3.35" ry="14.43" transform="matrix(.3668 -.9303 .9303 .3668 -37.5134 156.1842)"/><ellipse cx="118.37" cy="49.35" fill="#81d4fa" rx="3.09" ry="5.73" transform="matrix(.3664 -.9305 .9305 .3664 29.0836 141.4058)"/><path d="m52.11 16.04c-17.2 0-33.13 12.79-33.13 39.91 0 21.78 13.49 34.67 25.23 38.83 2.8.99 5.5 1.49 7.9 1.49 2.38 0 5.07-.49 7.85-1.47 11.76-4.14 25.28-17.03 25.28-38.84 0-27.13-15.93-39.92-33.13-39.92z" fill="#f9ddbd"/><path d="m55.86 68.26c-.11-.04-.21-.07-.32-.08h-7.08c-.11.01-.22.04-.32.08-.64.26-.99.92-.69 1.63s1.71 2.69 4.55 2.69 4.25-1.99 4.55-2.69-.05-1.37-.69-1.63z" fill="#dba689"/><path d="m60.53 76.35c-3.19 1.89-13.63 1.89-16.81 0-1.83-1.09-3.7.58-2.94 2.24.75 1.63 6.44 5.42 11.37 5.42s10.55-3.79 11.3-5.42c.75-1.67-1.09-3.33-2.92-2.24z" fill="#444"/><path d="m43.77 49.97c-.93-1.23-3.07-3.01-7.23-3.01s-6.31 1.79-7.23 3.01c-.41.54-.31 1.17-.02 1.55.26.35 1.04.68 1.9.39s2.54-1.16 5.35-1.18c2.81.02 4.49.89 5.35 1.18s1.64-.03 1.9-.39c.29-.37.39-1-.02-1.55z" fill="#454140"/><path d="m74.92 49.97c-.93-1.23-3.07-3.01-7.23-3.01s-6.31 1.79-7.23 3.01c-.41.54-.31 1.17-.02 1.55.26.35 1.04.68 1.9.39s2.54-1.16 5.35-1.18c2.81.02 4.49.89 5.35 1.18s1.64-.03 1.9-.39c.28-.37.38-1-.02-1.55z" fill="#454140"/><ellipse cx="36.54" cy="59.02" fill="#312d2d" rx="4.93" ry="5.1"/><ellipse cx="67.68" cy="59.02" fill="#312d2d" rx="4.93" ry="5.1"/><path d="m31.1 44.31h42.65l5.79 5.1v15.03s-3.94 5.5-13.44 3.19-8.23-8.05-13.88-8.05-8.25 9.17-20.62 8.92c0 0-6.38-.56-7.56-4.56l-.27-16.61z" fill="url(#k)"/><path d="m88.28 54.76c.01.67-.19 1.32-.57 1.87l-5.47 8.05c-2.06 2.85-9.3 4.43-9.3 4.43l8.18-9.14-1.56-11.5-7.43-5.8s3.07.3 5.24.3 4.33 1.39 5.44 2.16l4.02 2.77c.88.61 1.4 1.6 1.41 2.67z" fill="url(#m)"/><path d="m15.97 54.76c-.01.67.19 1.32.57 1.87l5.46 8.05c2.06 2.85 9.3 4.43 9.3 4.43l-8.18-9.14 1.56-11.5 7.43-5.8s-3.07.3-5.24.3-4.33 1.39-5.44 2.16l-4.02 2.77c-.88.61-1.4 1.6-1.41 2.67z" fill="url(#n)"/><path d="m71.58 45.63c1.1 0 2.93.35 4.48 1.34 2.1 1.34 2.16 2.89 2.18 3.4.03.77.06 1.51.1 2.25.1 2.31.2 4.49.2 6.61 0 4.35-3.91 7.38-9.5 7.38-3.95 0-8.42-3.33-10.46-5.57-1.6-1.75-3.96-2.76-6.48-2.76s-4.88 1.01-6.48 2.76c-2.04 2.24-6.51 5.57-10.46 5.57-5.59 0-9.5-3.03-9.5-7.38 0-2.13.1-4.31.2-6.61.03-.74.07-1.49.1-2.25.02-.51.08-2.06 2.18-3.4 1.55-.99 3.38-1.34 4.48-1.34zm0-3h-38.94c-3.58 0-9.44 2.3-9.66 7.62-.13 3.2-.3 6.1-.3 8.99 0 6 5.21 10.38 12.5 10.38 5 0 10.15-3.78 12.67-6.55 1.08-1.18 2.67-1.78 4.26-1.78s3.19.6 4.26 1.78c2.53 2.77 7.67 6.55 12.67 6.55 7.29 0 12.5-4.38 12.5-10.38 0-2.88-.17-5.79-.3-8.99-.21-5.32-6.07-7.62-9.66-7.62z" fill="url(#o)"/><path d="m53.12 3.45c-41.01 0-40.68 37.92-40.68 38.52 0 7.76.19 16.53.75 25.32l6.72-.02c-.06-2.92 1.99-20.97 8.08-22.34 22.36-5.03 35.01-16.89 35.01-16.89 3.29 7.18 13.58 14.19 17.27 16.86 3.03 2.19 3.96 18.55 3.9 22.38h7.71c0-.05.02-.1.02-.16.56-8.75.74-17.46.74-25.17.02-.58 1.49-38.5-39.52-38.5z" fill="#312d2d"/><path d="m53.12 3.45c-41.01 0-40.68 37.92-40.68 38.52 0 7.76.19 16.53.75 25.32l6.72-.02c-.06-2.92 1.99-20.97 8.08-22.34 22.36-5.03 35.01-16.89 35.01-16.89 3.29 7.18 13.58 14.19 17.27 16.86 3.03 2.19 3.96 18.55 3.9 22.38h7.71c0-.05.02-.1.02-.16.56-8.75.74-17.46.74-25.17.02-.58 1.49-38.5-39.52-38.5z" fill="url(#p)"/></svg>