<svg enable-background="new 0 0 128 128" viewBox="0 0 128 128" xmlns="http://www.w3.org/2000/svg" xmlns:xlink="http://www.w3.org/1999/xlink"><linearGradient id="a"><stop offset=".4345" stop-color="#ffca28"/><stop offset=".8723" stop-color="#ffb300"/></linearGradient><radialGradient id="b" cx="24.1339" cy="90.6779" gradientUnits="userSpaceOnUse" r="58.4885" xlink:href="#a"/><radialGradient id="c" cx="85.48" cy="90.6913" gradientUnits="userSpaceOnUse" r="58.4858" xlink:href="#a"/><g style="fill:none;stroke:#b0bec5;stroke-width:4;stroke-linecap:round;stroke-linejoin:round;stroke-miterlimit:10"><path d="m78.76 31.75 9.65-13.34"/><path d="m49.66 31.66-9.06-11.61"/><path d="m64.04 27.84.04-18.22"/></g><path d="m39.66 105.16c.92-1.78 6.15-2.09 9.93-11.54 1.95-4.87.45-10.22 9.2-13.21 3.19-1.09 4.16-7.27-1.69-7.27-11.33 0-13.59 7.56-13.59 7.56s-.37-28.87-.55-33.3c-.14-3.4-1.7-6.28-3.71-6.77-3.44-.83-5.08 1.7-5.08 1.7s-.04-.8-.04-4.01c0-4.47-2.46-6.13-5.27-6.33-2.82-.2-5.83 1.45-6.01 6.02l.14 2.98s-1.05-1.58-4.24-1.8c-2.52-.17-4.12 1.76-4.37 4.57l-.65 4.42s-.86-.42-3.31.26c-2.93.82-3.11 5.96-3.11 5.96s-.97 13.57-1.95 30.16c-.58 9.78 4.53 17.49 6.77 20.52 1.32 1.78.43 14.32.06 18.92h27.01c-.3-3.42-.61-10.9-.63-11.38-.06-2.4-.01-5.32 1.09-7.46z" fill="url(#b)"/><path d="m40.64 106.18c1.14-1.91 4.6-3.12 7.34-6.83 2.45-3.32 3.33-7.7 3.6-8.95.79-3.62 1.48-6.75 7.54-8.82 2.11-.74 3.52-3.22 3.14-5.54-.38-2.28-2.3-3.64-5.15-3.64-6.98 0-11.76 3.42-12.95 5.55-.27-6.3-.52-30.62-.53-30.7-.5-5.07-1.5-7.11-3.9-8.04-1.83-.71-3.78-.18-5.18.73 0 0 .73-8.93-5.62-8.93-7.18 0-6.84 7.96-6.84 8.02-.85-.48-1.99-.92-3.39-.82-6.02.42-5.75 8.59-5.75 8.59-1.37-.36-5.58-.96-6.67 4.97-.55 2.99-1.89 32.72-1.89 32.72-.57 9.7 4.19 17.43 6.64 20.74l.32.43c.78 1.06.57 12.07-.09 18.34h1.96c.48-4.62 1.15-17.54-.32-19.52l-.32-.43c-2.33-3.13-6.79-10.46-6.26-19.46l1.53-30.7c.41-6.59 4.95-5.89 5.15-3.64v22.27c-.9.56-1.42.96-1.5 1.02-.42.33-.5.94-.16 1.37.19.24.48.37.77.37.21 0 .42-.07.6-.21.08-.06 7.27-5.2 19.22-5.85 0 0 2.02-.35 2.05-2.87 0-.42.29-19.69.34-21.48.06-2.09 2.15-4.28 4.58-3.34 1.67.65 2.07 1.87 2.56 5.9.01.13.02 31.68.02 31.68-10.64 1.1-15.34 4.88-17.58 13.71-.2.78-.01 1.06.39 1.45.04.03.69.18 1.16-1.19 2.77-7.95 7.78-9.69 12.3-10.58 1.51-.3 2.81-.18 4.06-.43 3.79 0 4.27-7.35 15.3-7.72 1.87-.06 3.01.71 3.23 2.01.22 1.37-.65 2.94-1.86 3.36-7.1 2.43-7.97 6.4-8.81 10.25-.26 1.17-.55 2.37-.98 3.52-2.52 6.79-8.33 9.16-9.89 11.45-1.27 1.88-1.45 5.26-1.2 7.93.19 2.12.39 8.84.5 11.13h2.32c-.31-3.85-.84-10.56-.87-11.16-.05-2.4.14-5.08 1.09-6.66zm-18.54-37.6c-2.99.86-5.4 1.91-7.15 2.83l.04-26.19c.08-2.48 1.12-4.91 3.81-5.06 1.73-.08 2.91.93 3.3 1.3zm9.84-1.6c-3.28.1-5.31.48-7.89 1.09v-29.12c.2-2.52 1.29-6 4.74-6 3.2 0 3.45 3.15 3.45 6.5 0 3.2-.3 27.53-.3 27.53z" fill="#eda600"/><path d="m115.87 105.08c2.24-3.03 7.35-10.74 6.77-20.52-.98-16.58-1.95-30.15-1.95-30.15s-.18-5.14-3.11-5.96c-2.45-.68-3.31-.26-3.31-.26l-.65-4.42c-.25-2.81-1.85-4.74-4.37-4.57-3.19.22-4.24 1.8-4.24 1.8l.14-2.98c-.18-4.57-3.19-6.22-6.01-6.02-2.81.2-5.27 1.86-5.27 6.33 0 3.21-.04 4.01-.04 4.01s-1.64-2.53-5.08-1.7c-2.01.49-3.57 3.37-3.71 6.77-.18 4.43-.55 33.3-.55 33.3s-2.26-7.56-13.59-7.56c-5.85 0-4.88 6.18-1.69 7.27 8.75 2.99 7.25 8.34 9.2 13.21 3.78 9.45 9.01 9.76 9.93 11.54 1.1 2.14 1.15 5.06 1.09 7.46-.02.48-.32 7.94-.62 11.37h27.01c-.38-4.6-1.27-17.14.05-18.92z" fill="url(#c)"/><path d="m116.66 105.65.32-.43c2.46-3.3 7.21-11.03 6.64-20.74 0 0-1.34-29.73-1.89-32.72-1.09-5.94-5.3-5.33-6.67-4.97 0 0 .27-8.17-5.75-8.59-1.39-.1-2.54.33-3.39.82 0-.07.34-8.02-6.84-8.02-6.35 0-5.62 8.93-5.62 8.93-1.4-.91-3.35-1.44-5.18-.73-2.4.93-3.4 2.97-3.9 8.04-.01.09-.25 24.4-.53 30.7-1.19-2.13-5.98-5.55-12.95-5.55-2.85 0-4.77 1.36-5.15 3.64-.39 2.33 1.02 4.81 3.14 5.54 6.06 2.07 6.74 5.2 7.54 8.82.27 1.25 1.15 5.63 3.6 8.95 2.75 3.72 6.21 4.93 7.34 6.83.94 1.58 1.13 4.26 1.08 6.66-.01.6-.55 7.32-.86 11.17h2.32c.12-2.3.31-9 .5-11.11.25-2.68.07-6.06-1.2-7.93-1.56-2.29-7.37-4.66-9.89-11.45-.43-1.15-.72-2.35-.98-3.52-.84-3.85-1.71-7.82-8.81-10.25-1.22-.44-2.09-2.01-1.86-3.38.22-1.29 1.36-2.07 3.23-2.01 11.03.37 11.52 7.72 15.3 7.72 1.25.25 2.55.13 4.06.43 4.52.89 9.53 2.63 12.3 10.58.48 1.37 1.13 1.23 1.16 1.19.4-.39.59-.67.39-1.45-2.25-8.83-6.94-12.61-17.58-13.71 0 0 .01-31.55.02-31.68.49-4.02.9-5.25 2.56-5.9 2.42-.94 4.52 1.26 4.58 3.34.05 1.79.34 21.06.34 21.48.02 2.52 2.05 2.87 2.05 2.87 11.94.65 19.14 5.78 19.22 5.85.18.14.39.21.6.21.29 0 .58-.13.77-.37.33-.42.26-1.03-.16-1.37-.08-.06-.6-.46-1.5-1.02v-22.27c.2-2.25 4.74-2.96 5.14 3.66l1.53 30.7c.53 9-3.93 16.33-6.26 19.46l-.32.43c-1.47 1.98-.8 14.86-.32 19.5h1.97c-.66-6.26-.88-17.28-.09-18.35zm-12.71-37.58c-2.57-.61-4.61-.99-7.89-1.09 0 0-.3-24.33-.3-27.53 0-3.35.26-6.5 3.45-6.5 3.45 0 4.54 3.48 4.74 6zm1.95.51v-27.12c.38-.38 1.57-1.39 3.3-1.3 2.69.15 3.73 2.58 3.81 5.06l.04 26.19c-1.75-.92-4.16-1.97-7.15-2.83z" fill="#eda600"/></svg>