<svg enable-background="new 0 0 128 128" viewBox="0 0 128 128" xmlns="http://www.w3.org/2000/svg"><path d="m116 4h-104c-4.42 0-8 3.58-8 8v104c0 4.42 3.58 8 8 8h104c4.42 0 8-3.58 8-8v-104c0-4.42-3.58-8-8-8z" fill="#427687"/><path d="m109.7 4h-98.2c-4.13.03-7.47 3.37-7.5 7.5v97.9c-.01 4.14 3.34 7.49 7.48 7.5h.02 98.1c4.14.01 7.49-3.34 7.5-7.48 0-.01 0-.01 0-.02v-97.9c.09-4.05-3.13-7.41-7.18-7.5-.07 0-.15 0-.22 0z" fill="#8cafbf"/><path d="m39.7 12.9c0-2.3-1.6-3-10.8-2.7-7.7.3-11.5 1.2-13.8 4s-2.9 3.47-3 10.27c0 4.8 0 9.3 2.5 9.3 3.4 0 3.4-2.87 6.2-7.27 5.4-8.7 18.9-10.6 18.9-13.6z" fill="#b4e1ed" opacity=".5"/><g fill="#fafafa"><path d="m20.22 89.32c-2.84-1.77-5.04-4.34-6.6-7.69-1.57-3.35-2.35-7.32-2.35-11.9v-31.85h9.12v32.45c0 3.65.85 6.59 2.55 8.83s4.12 3.36 7.25 3.36 5.55-1.12 7.25-3.36 2.55-5.19 2.55-8.83v-32.45h9.12v31.86c0 4.39-.77 8.25-2.31 11.61-1.54 3.35-3.74 5.96-6.6 7.84-2.86 1.87-6.2 2.81-10.01 2.81-3.81-.01-7.14-.9-9.97-2.68z"/><path d="m59.4 37.88h17.16c3.08 0 5.9.7 8.44 2.11 2.54 1.4 4.54 3.38 5.99 5.91 1.45 2.54 2.18 5.43 2.18 8.69 0 3.25-.73 6.16-2.18 8.72s-3.45 4.55-5.99 5.95-5.36 2.11-8.44 2.11h-7.97v19.43h-9.19zm17.43 24.02c2.27 0 4.05-.71 5.34-2.14s1.94-3.15 1.94-5.17-.65-3.73-1.94-5.14c-1.29-1.4-3.08-2.11-5.34-2.11h-8.24v14.56z"/><path d="m100.9 88.92c-1.16-1.26-1.74-2.77-1.74-4.55 0-1.77.58-3.28 1.74-4.51s2.55-1.85 4.19-1.85c1.63 0 3.03.62 4.19 1.85s1.74 2.74 1.74 4.51-.58 3.29-1.74 4.55-2.55 1.88-4.19 1.88-3.04-.63-4.19-1.88zm-.38-35.82v-15.22h9.12v15.22l-.82 19.52h-7.49z"/></g></svg>