<svg enable-background="new 0 0 128 128" viewBox="0 0 128 128" xmlns="http://www.w3.org/2000/svg"><path d="m118.8 76.8c-2.9-.3-6.9-1-9.6-3-15.1-11-28-19.7-39.4-29.6-4.6-4-11.3-7.8-20.9-4.1-8 3-21.6 8.2-28.3 10.1-6.1 1.7-10 4.9-10 13.1 0 5 1.6 14.5-.7 20.8-1.5 4.2-3 8.1-1.8 10.5s3.5 2.8 5.4 3c-.5 2.5.2 7 4.8 7.1 3.1 0 6-1.6 6-1.6 1.1.7 2.3 1.2 3.5 1.5 2.9 4.5 4.6 9.1 7.8 9.7 1 .2 3.5.1 5.2-1 4.3-2.8 3-8.7 2.4-10.5 1.1-.4 2-1 2.8-1.3 3.1 3 6.6 7.4 8.2 8.6 1.9 1.5 4.9 1.6 6.9.3 1.9-1.3 3.2-3.3 2.4-6.9 6.2 4.9 14.8 10.7 27.6 11 6.1.2 8.8-1.1 15.2-1.2 4.2-.1 7.2 1 9.1.9.8 0 1.2-.5 1.7-1 2.8-3.5 5.6-27.2 3.3-35.1-.3-1-.8-1.3-1.6-1.3z" fill="#ffca28"/><path d="m57.07 38.61c-2.45-.09-5.17.33-8.17 1.49-8 3-21.6 8.2-28.3 10.1-6.1 1.7-10 4.9-10 13.1 0 5 1.6 14.5-.7 20.8-1.5 4.2-3 8.1-1.8 10.5s3.5 2.8 5.4 3c-.5 2.5.2 7 4.8 7.1.75 0 1.49-.1 2.17-.24l-.27-10.46s-3.8 1.1-7 1.1c-4.3 0-3.9-5.5-2-8.8 3.4-6 1.5-16.6 2.4-26.3.4-3.7 3.9-5.6 6-6.3 1.3-.4 30.4-10.7 33.9-11.6s4.7.4 5.6.8c.52.23 2.14-1.58 3.47-3.19-1.67-.62-3.5-1.03-5.5-1.1zm10.16 3.61-21.93 20.88-16 4.8v12.8l20.9-6.1s7.8.5 8.2-.6c4.7-12.9 20.1-19.9 20.1-19.9s28.9 21.7 31.3 23.3 4.4 1.6 5.3 1.7c.76.08 3.56.22 5.59.27-.09-.45-.18-.89-.29-1.27-.3-1-.8-1.3-1.6-1.3-2.9-.3-6.9-1-9.6-3-15.1-11-28-19.7-39.4-29.6-.78-.68-1.65-1.34-2.57-1.98zm-16.6 47.94c-1.67-.04-2.99.37-3.93 1.24-1.5 1.5-6.7 6.9-14.4 7.8-1.5.2-2.5.6-2.5 2.8 0 .59-.6 2.26-1.2 3.93 2.42 4.03 4.12 7.83 7 8.37 1 .2 3.5.1 5.2-1 4.3-2.8 3-8.7 2.4-10.5 1.1-.4 2-1 2.8-1.3 3.1 3 6.6 7.4 8.2 8.6 1.9 1.5 4.9 1.6 6.9.3 1.9-1.3 3.2-3.3 2.4-6.9 6.2 4.9 14.8 10.7 27.6 11 6.1.2 8.8-1.1 15.2-1.2 4.2-.1 7.2 1 9.1.9.8 0 1.2-.5 1.7-1 1.09-1.36 2.16-5.79 2.95-11.13-10.35-2.89-14.86 6.88-31.45 2.93-9.6-2.3-18-10.9-24.5-12.2 0 0-8.9-1.8-10.1-2.1-1.24-.34-2.36-.52-3.37-.54z" fill="#faa700"/><path d="m71.95 46.01c-.49.78-.67 1.06-1.45 2.39 1.3 1 13.4 10 18.1 13.3 1.71 1.19 3.19 1.03 4.44.45-7.57-5.46-14.61-10.68-21.09-16.14zm-25.65 13.29s-14.7 6-15.3 6.2-1.2.5-1.8-.3-3.3-4.9-6.4-5.1c-.9 0-1.2.8-.7 1.3 1.6 1.7 4.8 5 5 9.5.5 8.9-3.2 17.8-10.2 23-1.58 1.12-5.67 2.49-9.05.02.06.23.14.46.25.68 1.2 2.4 3.5 2.8 5.4 3 2.4-.3 4.9-1.5 6-3.1-.87 4.79.85 7.32 4.57 8.71.07-.03.23-.11.23-.11.26.16.52.31.78.45 1.69.5 3.7.83 6.02 1.05 4.1.4 8.6-.2 12.2-1.9 1-.4 1.7-.8 2.8-1.3s2.4-1 2.7-1.2.8-.5 1.5-.3c.7.1 8.6.9 9.1 1s1-.1 1.6.4 1.7 1.3 2.6 2c.09.07.26.35.43.61 6.16 4.81 14.62 10.3 27.07 10.59 6.1.2 8.8-1.1 15.2-1.2 4.2-.1 7.2 1 9.1.9.8 0 1.2-.5 1.7-1 .26-.33.52-.88.78-1.53-2.68-.47-6.25-.97-7.18-1.17-1.4-.3-4.1-.3-6.2-.1-7.6 1-15.2 1.2-21.6-.6-8.5-2.4-15.1-7.4-21-11.1-.9-.6-1.5-1-2.8-1.1s-7.9-.8-8.4-.9-2 0-2.9.5c-10.6 6.3-25.3 7-26.1-4.5-.1-1.9.7-3.9 2.9-5.6 1.7-1.3 19.1-11.1 19.1-11.1l7.3 1.1s9.6.4 13 .5c.6 0 1.1-.1 1.7-.3 2.8-1.2 8.2-2.8 14.5-2.2 1.8.2 1.8-1.8.4-2.1-.7-.1-7.7-1.6-14.8 1.2-1.4.6-1.8.4-5.5.5-.6 0-1.1-.2-1.5-.6l-5.9-4.8-16.3 2.8-6.2 3.4s.4-2.2.2-4.8c3.5-1.5 12.8-5 12.8-5z" fill="#b55e19"/><path d="m85.5 6.8c-1.2-.1-2.5.4-3.3 1.5 0 0-46.91 64.2-57.75 79.07.43-.3.83-.54 1.15-.67 5.9-2.2 13.5-6.2 16.8-8.4 2.72-1.78 5.21-1.37 8.56-1.23 18.99-26 43.64-59.77 43.64-59.77.8-1.1.9-2.5.3-3.7-1.2-2.8-5.8-6.4-9.4-6.8zm-65.53 86.7c-.13.19-1.95 2.67-1.97 2.7-.7 1-1.3 2.4-1.5 3.4-.1 1-2.5 12-2.6 12.4-.2 1.3 1.5 2.8 2.9 2s9.9-5.6 11-6.4c1-.8 1.7-1.2 2.7-2.5.01-.01.44-.6.45-.62-8.77-.75-11.25-6.3-11.05-10.38.01-.2.04-.4.07-.6z" fill="#78909c"/><path d="m84.9 8.68c-.58.03-1.15.27-1.6.82l-40.7 57c-.5.9-.3 1.9.4 2.4s1.7.4 2.3-.4c6.2-8.2 40.3-54.4 42.3-56.9.9-1.2-.96-3.02-2.7-2.92z" fill="#82aec0"/></svg>