<svg enable-background="new 0 0 128 128" viewBox="0 0 128 128" xmlns="http://www.w3.org/2000/svg" xmlns:xlink="http://www.w3.org/1999/xlink"><radialGradient id="a" cx="50.79" cy="68.23" gradientTransform="matrix(1.015 0 0 -1.1901 -3.31 140.97)" gradientUnits="userSpaceOnUse" r="46.35"><stop offset=".7936" stop-color="#554138" stop-opacity="0"/><stop offset="1" stop-color="#554138"/></radialGradient><linearGradient id="b"><stop offset="0" stop-color="#651fff"/><stop offset=".7047" stop-color="#5914f2"/><stop offset="1" stop-color="#530eeb"/></linearGradient><linearGradient id="c" gradientTransform="matrix(1 0 0 -1 0 128)" gradientUnits="userSpaceOnUse" x1="50.13" x2="50.13" xlink:href="#b" y1="32" y2="4"/><radialGradient id="d" cx="51.12" cy="64.59" gradientTransform="matrix(1.015 0 0 -1.2135 -3.31 141.79)" gradientUnits="userSpaceOnUse" r="48.67"><stop offset=".7945" stop-color="#554138" stop-opacity="0"/><stop offset="1" stop-color="#554138"/></radialGradient><linearGradient id="e" gradientTransform="matrix(1 0 0 -1 0 128)" gradientUnits="userSpaceOnUse" x1="79.32" x2="71.61" y1="14.53" y2="16.18"><stop offset=".2651" stop-color="#262626"/><stop offset="1" stop-color="#262626" stop-opacity="0"/></linearGradient><linearGradient id="f" gradientTransform="matrix(1 0 0 -1 0 128)" gradientUnits="userSpaceOnUse" x1="108.16" x2="100.16" y1="64.13" y2="52.88"><stop offset=".5" stop-color="#a56c43"/><stop offset="1" stop-color="#8d5738"/></linearGradient><linearGradient id="g" gradientTransform="matrix(1 0 0 -1 0 128)" gradientUnits="userSpaceOnUse" x1="90.05" x2="90.05" xlink:href="#b" y1="55.9" y2="10.66"/><path d="m48.81 5.63c-40.55 0-40.36 36.68-40.36 37.27-.09 23.89 1.66 57.82 11.43 71.23 3.88 5.32 11.41 5.62 11.41 5.62l16.96-.03 16.96.03s7.53-.29 11.41-5.62c9.77-13.41 11.52-47.34 11.43-71.23-.02-.59 1.31-37.27-39.24-37.27z" fill="#3c2c23"/><path d="m48.81 5.63c-40.55 0-40.36 36.68-40.36 37.27-.09 23.89 1.66 57.82 11.43 71.23 3.88 5.32 11.41 5.62 11.41 5.62l16.96-.03 16.96.03s7.53-.29 11.41-5.62c9.77-13.41 11.52-47.34 11.43-71.23-.02-.59 1.31-37.27-39.24-37.27z" fill="url(#a)"/><path d="m96.25 124v-2.88c0-16.68-23.56-25.15-47.63-25.12-18.3.02-36.88 4.38-44.62 14.32v13.68z" fill="url(#c)"/><path d="m38.93 88.95v9.98c0 4.51 3.7 8.17 8.26 8.17h1.65c4.56 0 8.26-3.66 8.26-8.17v-9.98z" fill="#7a4c32"/><path d="m48.25 96.27c17.4 0 33.52-18.61 33.52-45.4 0-26.64-16.61-39.81-33.52-39.81s-33.52 13.18-33.52 39.82c0 26.78 16.12 45.39 33.52 45.39z" fill="#a56c43"/><ellipse cx="31.82" cy="58.81" fill="#42312c" rx="4.93" ry="5.1"/><ellipse cx="64.69" cy="58.81" fill="#42312c" rx="4.93" ry="5.1"/><path d="m56.67 76.14c-3.19 1.89-13.63 1.89-16.81 0-1.83-1.09-3.7.58-2.94 2.24.75 1.63 6.44 5.42 11.37 5.42s10.55-3.79 11.3-5.42c.76-1.66-1.09-3.33-2.92-2.24z" fill="#473530"/><path d="m52.11 68.06c-.11-.04-.21-.07-.32-.08h-7.08c-.11.01-.22.04-.32.08-.64.26-.99.92-.69 1.63s1.71 2.69 4.55 2.69 4.25-1.99 4.55-2.69c.31-.71-.05-1.37-.69-1.63z" fill="#875334"/><path d="m48.81 5.63c-40.55 0-40.36 36.68-40.36 37.27-.03 7.53.13 16.07.66 24.64l6.68-.02c-.05-2.84 2.03-20.41 8.09-21.74 22.19-4.88 34.72-16.37 34.72-16.37 3.27 6.96 13.48 13.76 17.16 16.35 3.02 2.12 3.98 18.04 3.94 21.78h7.66c0-.05.02-.1.02-.15.52-8.52.68-17 .65-24.49 0-.59 1.33-37.27-39.22-37.27z" fill="#3c2c23"/><path d="m48.81 5.63c-40.55 0-40.36 36.68-40.36 37.27-.03 7.53.13 16.07.66 24.64l6.68-.02c-.05-2.84 2.03-20.41 8.09-21.74 22.19-4.88 34.72-16.37 34.72-16.37 3.27 6.96 13.48 13.76 17.16 16.35 3.02 2.12 3.98 18.04 3.94 21.78h7.66c0-.05.02-.1.02-.15.52-8.52.68-17 .65-24.49 0-.59 1.33-37.27-39.22-37.27z" fill="url(#d)"/><path d="m81.54 102.67c-1.62-1.42-7.23-3.04-7.23-3.04l-5.48 24.37h9.5z" fill="url(#e)" opacity=".28"/><path d="m91.32 74.16c2.6.2 6.29.95 8.14.64 1.64-.27 2-1.82 3.71-2.21 3.62-.82 18.26-4.12 19.78-4.49 2.14-.53 2.89-4.53-1.67-5.28-4.52-.75-13.88 1.18-13.88 1.18s.5-1.43.15-2.38c-.88-2.29-3.87-1.52-5.65-1.1l-10.56 2.99c-5.44 1.87-5.18 10.39-.02 10.65z" fill="url(#f)"/><path d="m102.6 73.69c-.03-.9-.73-1.63-1.63-1.69l-12.72-.76c-.93-.07-1.75.61-1.86 1.54l-10.81 51.22h28.93z" fill="url(#g)"/><g fill="#42312c"><path d="m39.24 49.82c-.93-1.23-3.07-3.01-7.23-3.01s-6.31 1.79-7.23 3.01c-.41.54-.31 1.17-.02 1.55.26.35 1.04.68 1.9.39s2.54-1.16 5.35-1.18c2.81.02 4.49.89 5.35 1.18s1.64-.03 1.9-.39c.28-.38.39-1.01-.02-1.55z"/><path d="m71.73 49.82c-.93-1.23-3.07-3.01-7.23-3.01s-6.31 1.79-7.23 3.01c-.41.54-.31 1.17-.02 1.55.26.35 1.04.68 1.9.39s2.54-1.16 5.35-1.18c2.81.02 4.49.89 5.35 1.18s1.64-.03 1.9-.39c.29-.38.39-1.01-.02-1.55z"/></g></svg>