<svg enable-background="new 0 0 128 128" viewBox="0 0 128 128" xmlns="http://www.w3.org/2000/svg" xmlns:xlink="http://www.w3.org/1999/xlink"><clipPath id="a"><path d="m8.6 96.6c3.1-13.8 14.7-11.8 23.4-9.8 9.8 2.2 30.2 6.2 30.2 6.2s16.7-8.6 27.6-16.8c3-2.2 6.8-3 10.2.7 3.8 4.1 7.2 13.1 2.3 18.3 0 0-26 21.4-33.3 24.9-3.6 1.7-9.4 2.2-13.3 2-11.9-.5-31.3-3.5-34.8-4.5-4.2-1.2-15.4-7-12.3-21z"/></clipPath><clipPath id="b"><path d="m108.6 70.1c-.1.6-.2 1.1-.3 1.6-.1.4-.2.8-.4 1.2-1.9 5.8-7.2 16.9-8.9 18-2.1 1.3-6.4-.3-8-3.7-.7-1.5-1.7-3.7-1.6-6.3.2-2.6 1-3.5 1-3.5.2-.2.3-.4.5-.6.4-.5.8-1 1.3-1.5-.6-.3-1.2-.6-2-.7-3.2-.4-9.7-.5-12.3-1.2-2.9-.8-2.9-4.5 0-4.7s7.6-.3 10-.8 6-1 5.8-2.6-4.1-4.4-5.5-4.9-3.5-.5-5.6-.8c-2.2-.3-5.5.2-6.6-2.5-1.3-3.3 2.8-3.8 2.8-3.8s-3.5-.1-4.2-2.8c-.4-1.6.7-2.9 2.8-3.1 3.2-.6 6-1.3 9.3-1.3 4.9 0 10.7 2.8 10.7 2.8-1.4-2.4-3.4-4.6-5.5-5.9-2.2-1.5-10.9-3.3-11.9-7-1-3.6 1.4-3.9 3.8-3s9.4 2.6 12.7 4.5c3.4 1.9 8.3 8 8.6 9.7 1.9 4.8 3.2 13.1 3.5 18.2.2 1.7.2 3.2 0 4.7z"/></clipPath><path d="m8.6 96.6c3.1-13.8 14.7-11.8 23.4-9.8 9.8 2.2 30.2 6.2 30.2 6.2s16.7-8.6 27.6-16.8c3-2.2 6.8-3 10.2.7 3.8 4.1 7.2 13.1 2.3 18.3 0 0-26 21.4-33.3 24.9-3.6 1.7-9.4 2.2-13.3 2-11.9-.5-31.3-3.5-34.8-4.5-4.2-1.2-15.4-7-12.3-21z" fill="#f78c1f"/><path clip-path="url(#a)" d="m59.2 89.4c-8.5 7.1-7.1 17.5-6.8 18.5s1.4.9 1.5 0c.7-7.7 3.4-11.5 8.2-14.9 2.4-1.6-2.9-3.6-2.9-3.6z" fill="#d36600"/><path d="m95.8 67.7-16.2 1.1c-5.5 1-5.9-2.3-5.8-5l2.7-51.4c.2-3.5 1.3-4.6 2.7-5.6 2-1.4 6.1-.8 6.1-.8 4.9.8 14.4 9.3 14.2 11.9l1.9 45.4c0 2.6-2.6 4.6-5.6 4.4z" fill="#757575"/><path d="m98 69.1-15.9-.9c-2.7-.1-5-1.6-4.8-4.2l2.8-53.5c.1-2.6 2.5-4.7 5.3-4.6l14.3 3.4c2.7.1 4.9 2.3 4.8 5l-1.1 50.3c-.2 2.6-2.6 4.6-5.4 4.5z" fill="#9e9e9e"/><ellipse cx="87.34" cy="13.46" fill="#424242" rx="2.7" ry="2.4" transform="matrix(.0554 -.9985 .9985 .0554 69.06 99.91)"/><path d="m80.7 37.3c1.3 4.9 8.9 6.7 10.8 9.3 1.8 2.7 4.1 9 4.1 9s-21.8-1-19.3 2.7 8.7 3 11.4 4.7c1.1.7 3.2 2.6 2.4 3.1-1.1.7-6.9 1.7-10.7 1.7s12.9 3.8 16.2 2 3.1-11.5 3.1-11.5-.7-11-.7-11.3-5.6-6.1-5.6-6.1-12.8-7.7-11.7-3.6z" fill="#757575"/><path d="m102.8 81.5c1.2 5.1-.2 11.2-3.7 12s-7.9-3.9-9.1-9c-.5-2.1-.5-4.2 0-6 0 0 3-1.3 5-1.8 3.5-.7 6.6-.2 7.8 4.8z" opacity=".7"/><path d="m108.6 70.1c-.1.6-.2 1.1-.3 1.6-.1.4-.2.8-.4 1.2-1.9 5.8-7.2 16.9-8.9 18-2.1 1.3-6.4-.3-8-3.7-.7-1.5-1.7-3.7-1.6-6.3.2-2.6 1-3.5 1-3.5.2-.2.3-.4.5-.6.4-.5.8-1 1.3-1.5-.6-.3-1.2-.6-2-.7-3.2-.4-9.7-.5-12.3-1.2-2.9-.8-2.9-4.5 0-4.7s7.6-.3 10-.8 6-1 5.8-2.6-4.1-4.4-5.5-4.9-3.5-.5-5.6-.8c-2.2-.3-5.5.2-6.6-2.5-1.3-3.3 2.8-3.8 2.8-3.8s-3.5-.1-4.2-2.8c-.4-1.6.7-2.9 2.8-3.1 3.2-.6 6-1.3 9.3-1.3 4.9 0 10.7 2.8 10.7 2.8-1.4-2.4-3.4-4.6-5.5-5.9-2.2-1.5-10.9-3.3-11.9-7-1-3.6 1.4-3.9 3.8-3s9.4 2.6 12.7 4.5c3.4 1.9 8.3 8 8.6 9.7 1.9 4.8 3.2 13.1 3.5 18.2.2 1.7.2 3.2 0 4.7z" fill="#ffca28"/><g clip-path="url(#b)" fill="#faa700"><path d="m82.2 68c-2.4 0-2.6 4.4-.1 4.6 2.1.1 7.3.4 8.1.5 4.6.7 3.3 2.8 7.1 3.4 1.8.3 1.6 2.3-.1 2.3-1.9 0-4.6 0-6.8-2.3-.6-.7-13.7-.3-13.7-.3l-3.7-6.4 3.8-4.3h5.9z"/><path d="m96.6 92.4c0-.1 5.5-7.3 9-17.2 0 0 1.2-2.7 1.1-5.8-.4-10.1-1.7-17.1-3.2-21.9-.3-1.1-1-2-1.9-3-.8-.9-1.9-2.1-2.3-2.5-.7-.7-1.8-2-2.2-5.2-.2-2.1 2.3-2.5 3.2-1.6.9 1 8.5 10.4 8.5 10.4l3.4 26.7-11.6 22.3z"/><path d="m73.3 51.7c3.1-.4 9.3 0 11.4-.1 1.9 0 4.7-.2 6.5.6s6.1 3.1 7.3 3.7c1.3.7.4 2.3-.9 1.6-.6-.4-5.3-2.6-6.4-3.2-1-.6-2-.7-3.5-.8-1.9-.1-6.9-.3-9-.4-1.6-.1-5.8.1-5.8.1s-2.7-1.1.4-1.5z"/></g></svg>