<svg enable-background="new 0 0 128 128" viewBox="0 0 128 128" xmlns="http://www.w3.org/2000/svg" xmlns:xlink="http://www.w3.org/1999/xlink"><linearGradient id="a" gradientUnits="userSpaceOnUse" x1="64" x2="64" y1="87.19" y2="96.22"><stop offset=".4217663" stop-color="#c9c9c9" stop-opacity=".8"/><stop offset=".824168" stop-color="#c9c9c9" stop-opacity="0"/></linearGradient><g fill="#ffc022"><path d="m110.47 59.02c9.51-24.83 3.65-43.83.29-49.28-1.33-2.16-3.89-2.76-6.25-2.02-6.22 1.96-23.01 15.68-30.43 34.88"/><path d="m17.53 59.02c-9.51-24.83-3.65-43.83-.29-49.28 1.33-2.16 3.89-2.76 6.25-2.02 6.22 1.96 23.01 15.68 30.43 34.88"/><path d="m114.11 70.76c-1.8-25.98-19.67-44.46-50.11-44.46s-48.31 18.48-50.11 44.46c-1.05 15.14 5.05 28.01 17.09 36.21 0 0 12.21 9.88 33.02 10.14 20.81-.26 33.02-10.14 33.02-10.14 12.03-8.2 18.14-21.07 17.09-36.21z"/></g><path d="m54.12 45.02c1.13.96 3.42.82 4.75-.72 1.61-1.87 3.29-8.17 2.24-17.91-4.67.17-9.09.84-13.21 1.97 3.33 5.46 4.13 14.88 6.22 16.66z" fill="#ff7043" opacity=".47"/><path d="m73.88 45.02c-1.13.96-3.42.82-4.75-.72-1.61-1.87-3.29-8.17-2.24-17.91 4.67.17 9.09.84 13.21 1.97-3.33 5.46-4.13 14.88-6.22 16.66z" fill="#ff7043" opacity=".47"/><g fill="none" stroke="#9e9e9e" stroke-linecap="round" stroke-miterlimit="10" stroke-width="3"><path d="m122.41 64.63-16.92 8.33"/><path d="m124.51 76.83-18.15 3.16"/><path d="m122.41 92.97-16.92-5.78"/><path d="m5.59 64.63 16.92 8.33"/><path d="m3.49 76.83 18.15 3.16"/><path d="m5.59 92.97 16.92-5.78"/></g><path d="m32.56 70.26c-.3 0-.6-.06-.89-.19-1.12-.49-1.64-1.8-1.14-2.92.35-.8 3.6-7.85 9.35-7.85 5.68 0 9.17 6.74 9.55 7.51.54 1.1.09 2.43-1.01 2.97s-2.17-.12-2.97-1.01c-.97-1.08-3.08-3.5-5.57-3.5-2.5 0-4.58 2.59-5.28 3.65-.51.77-1.19 1.34-2.04 1.34z"/><path d="m95.44 70.26c.3 0 .6-.06.89-.19 1.12-.49 1.64-1.8 1.14-2.92-.35-.8-3.6-7.85-9.35-7.85-5.68 0-9.17 6.74-9.55 7.51-.54 1.1-.09 2.43 1.01 2.97s2.17-.12 2.97-1.01c.97-1.08 3.08-3.5 5.57-3.5 2.5 0 4.58 2.59 5.28 3.65.51.77 1.19 1.34 2.04 1.34z"/><path d="m92.16 36.23c-1.54-1.29-1.5-3.37-.6-5.16 2.16-4.31 7.33-8.78 9.16-10.23 3-2.38 5.32-3.18 6.21.65 1.65 7.08 1.52 16.69-.25 21.99-.62 1.87-2.54 2.86-4.02 1.57z" fill="#ffd1d1"/><path d="m35.84 36.23c1.54-1.29 1.5-3.37.6-5.16-2.16-4.31-7.33-8.78-9.16-10.23-3-2.38-5.32-3.18-6.21.65-1.65 7.08-1.52 16.69.25 21.99.62 1.87 2.54 2.86 4.02 1.57z" fill="#ffd1d1"/><path d="m55.97 76.98c-.05-2.86 4.06-4.24 7.95-4.3 3.89-.07 8.07 1.2 8.12 4.06s-4.86 6.64-7.95 6.64-8.07-3.54-8.12-6.4z"/><path d="m38.81 89.54c-.55 0-1.41.32-2 1.02-.64.77-.86 1.83-.64 3.17.48 2.99 8.31 13.58 27.79 13.58 19.54 0 27.39-10.59 27.87-13.58.22-1.34 0-2.41-.64-3.17-.59-.7-1.45-1.02-2-1.02-1.87 0-3.27.54-5.04 1.21-2.45.94-5.49 2.1-10.73 2.1-4.61 0-7.54-2.05-9.2-4.81-1.74 3.08-5.09 4.81-9.64 4.81-5.24 0-8.28-1.17-10.73-2.1-1.77-.67-3.17-1.21-5.04-1.21z"/><path d="m88.43 88.07s-7.72 3.77-13.62 3.68c-5.91-.1-10.81-3.68-10.81-3.68s-4.9 3.59-10.81 3.68c-5.9.09-13.62-3.68-13.62-3.68l-3.04 5.13s1.91.93 5.99 1.91l4.42 5.18c.37.43 1.01.48 1.44.11l4.28-3.65c3.24.32 7.01.53 11.34.53s8.1-.21 11.35-.53l4.28 3.65c.43.37 1.08.32 1.44-.11l4.42-5.18c4.08-.98 5.99-1.91 5.99-1.91z" fill="#fff"/><path d="m88.43 88.07s-7.72 3.77-13.62 3.68c-5.91-.1-10.81-3.68-10.81-3.68s-4.9 3.59-10.81 3.68c-5.9.09-13.62-3.68-13.62-3.68l-3.04 5.13s1.91.93 5.99 1.91l4.42 5.18c.37.43 1.01.48 1.44.11l4.28-3.65c3.24.32 7.01.53 11.34.53s8.1-.21 11.35-.53l4.28 3.65c.43.37 1.08.32 1.44-.11l4.42-5.18c4.08-.98 5.99-1.91 5.99-1.91z" fill="url(#a)"/><path d="m37.71 128.17c-.01-.09-.05-.18-.08-.27v1.15h.36c-.14-.34-.24-.64-.28-.88z" fill="#d1d1d1"/><path d="m63.96 109.65c-10.51 0-17.44-3.08-21.39-5.67-5.19-3.39-7.46-7.23-7.82-9.48-.44-2.68.46-4.41 1.28-5.38 1.26-1.48 2.98-2 4.17-2 2.31 0 4.01.64 5.82 1.32 2.19.83 4.67 1.76 9.08 1.76 4.91 0 7.4-2.31 7.4-6.85v-1.1h3c0 1.87.53 7.96 7.4 7.96 4.4 0 6.88-.94 9.08-1.76 1.8-.68 3.51-1.32 5.82-1.32 1.19 0 2.92.53 4.18 2 .83.97 1.72 2.69 1.28 5.38-.84 5.1-10.57 15.14-29.3 15.14zm-23.75-19.54c-.52 0-1.34.3-1.89.95-.61.71-.81 1.71-.61 2.95.45 2.79 7.85 12.64 26.25 12.64 18.46 0 25.87-9.85 26.33-12.64.2-1.25 0-2.24-.61-2.95-.55-.65-1.37-.95-1.89-.95-1.76 0-3.08.5-4.76 1.13-2.31.87-5.19 1.96-10.13 1.96-4.36 0-7.12-1.9-8.69-4.48-1.65 2.87-4.8 4.48-9.1 4.48-4.95 0-7.82-1.08-10.13-1.96-1.69-.63-3.01-1.13-4.77-1.13z"/></svg>