<svg enable-background="new 0 0 128 128" viewBox="0 0 128 128" xmlns="http://www.w3.org/2000/svg"><path d="m64.67-13.34h10.03v143.32h-10.03z" fill="#e0e0e0" transform="matrix(.7071 .7071 -.7071 .7071 61.6461 -32.1926)"/><path d="m97.72 37.37s-.13-2.82-2.2-4.89-4.89-2.2-4.89-2.2l26.18-26.18s1.89-.8 4.89 2.2c3.01 3.01 2.2 4.89 2.2 4.89z" fill="#646464"/><path d="m22.56 112.54-7.09-7.09 27.65-27.65s2.79-.52 5.21 1.89c2.41 2.41 1.89 5.21 1.89 5.21z" fill="#f44336"/><path d="m121.7 6.3c-3.01-3.01-4.89-2.2-4.89-2.2s3.38.56 4.26 2.82c.88 2.27-.55 4.31-.55 4.31-3.09 3.09-65.53 65.53-90.06 90.06 0 0-3.34 3.3-7.04 2.29-3.31-.9-3.66-2.43-3.66-2.43l-2.9 2.9 1.36 5.74 4.33 2.73 99.05-99.05.01.03 2.31-2.31c-.02 0 .79-1.88-2.22-4.89z" fill="#2686c6" opacity=".33"/><path d="m121.06 6.92c.88 2.27-.55 4.31-.55 4.31-1.16 1.16-10.71 10.71-23.49 23.49 0 0 .61.8.69 2.62l23.87-23.87.01.03 2.31-2.31s.8-1.89-2.2-4.89-4.89-2.2-4.89-2.2 3.38.55 4.25 2.82z" fill="#444"/><circle cx="14.15" cy="113.85" fill="#e0e0e0" r="10.15"/><path d="m23.65 110.28c.21 2.7-.72 5.48-2.79 7.55-3.76 3.76-9.86 3.76-13.62 0-1.9-1.9-2.84-4.4-2.82-6.9-1.03 3.46-.19 7.36 2.55 10.1 3.97 3.97 10.39 3.97 14.36 0 2.91-2.91 3.68-7.14 2.32-10.75z" fill="#2686c6" opacity=".33"/><path d="m118.92 44.61c3.99-6.72 4.76-22.58-.46-35.47-.37-.91-1.39-1.33-2.29-.97s-1.33 1.39-.97 2.29c5.2 12.84 3.71 27.27.69 32.35-.84 1.41-1.47 1.59-1.64 1.61-.47.05-.79-.05-1.11-.42-2.24-2.45-2.08-11.72-.74-21.31-1.23 1.23-2.74 2.74-4.02 4.02-.15 1.48-.28 3.01-.36 4.55-.43 7.84.4 12.78 2.53 15.11.06.06.11.12.17.18 1.06 1.06 2.42 1.53 3.93 1.36 1.13-.12 2.78-.8 4.27-3.3z" fill="#90a4ae"/></svg>