<svg enable-background="new 0 0 128 128" viewBox="0 0 128 128" xmlns="http://www.w3.org/2000/svg"><path d="m83.49 99.04c-1.82.36-44.99 5.83-44.99 5.83s-.91 7.65.36 10.2 9.47 8.38 24.95 8.38 24.04-4.92 25.32-7.83-.55-15.3-.55-15.3z" fill="#77a3ab"/><path d="m34.07 42.84-29.39 13.61s2.35 27.69 20.73 42.85c26.45 21.81 66.05 15.31 84.3-6.03 16.66-19.48 13.61-45.32 13.61-45.32z" fill="#a7d0d6"/><path d="m3.95 50.5c-.82 11.87 11 26.38 59.73 26.93 50.82.57 68.83-24.46 57.45-37.54s-39.06-14.6-58.21-14.41-57.64 5.75-58.97 25.02z" fill="#77a3ac"/><path d="m10.36 55.34s-.53-2.47.33-5.05 2.4-3.33 2.62-4.16-1.89-5.22 1.67-10.99 5.87-4.55 6.85-5.77.93-5.34 5.35-9.27 8.47-3.56 8.47-3.56 1.97-5.16 6.75-7.12 9.6-.75 9.6-.75 4.3-3.93 10.32-4.05 7.74 1.6 9.09 1.72 4.54-1.47 10.19.61c5.65 2.09 5.73 5.26 7 5.77s4.67-.49 9.83 3.68 4.31 6.09 5.04 6.88c.72.79 5.57.82 8.23 7.61 1.96 5 .91 8.67 1.11 9.21s2.98 3.43 4.18 6.39c1.11 2.76 1.6 6.63 1.6 6.63s-2.58 4.52-8.83 8.63c-6.61 4.35-80.84 4.54-85.76 2.97-8.5-2.69-13.64-9.38-13.64-9.38z" fill="#cdcbc0"/><path d="m18.47 47.85s-.55-6.18 1.11-9.58c2.33-4.79 6.88-5.28 6.88-5.28s.51-5.46 4.42-8.47c4.79-3.68 6.63-2.7 8.23-4.18 1.6-1.47 2.58-4.05 6.51-5.77s7.12-.61 8.47-1.23 3.51-3.14 7.81-3.43c5.53-.37 5.89 1.77 9.06 2.11 2.25.24 3.93-1.09 8.72.38s4.95 4.37 6.47 5.36 5.27.08 9.33 3.19c3.68 2.82 3.64 5.43 4.67 6.51 1.02 1.08 4.05 1.47 6.26 7.25 1.84 4.81.48 6.23.98 7.74s3.24 3.09 4.91 7.61c2.09 5.65 1.47 8.6 1.47 8.6s-10.07 13.41-54.77 12.89c-32.18-.37-43.72-11.54-43.72-11.54s-.49-6.02.74-8.35 2.45-3.81 2.45-3.81z" fill="#fff"/><g fill="#d4d4d4"><path d="m61.17 68.25c.99 2.23 4.89 2.6 8.17-1.07 2.94-3.3 1.22-8.38-1.93-7.95-2.87.39-1.93 3.37-3.3 4.51s-3.8 2.57-2.94 4.51z"/><path d="m76.5 54.64c.85 1.82 5.95 1.43 7.88-1.93 1.93-3.37 1.65-8.29-1.15-8.24-3.65.07-2.29 3.8-3.58 4.94s-4.58 2.15-3.15 5.23z"/><path d="m96.2 36.08c-2.1.68-1 3.44-1.86 5.3s-3.15 3.94-1.36 5.52 5.87-1 6.45-4.94c.56-3.94-1.01-6.59-3.23-5.88z"/><path d="m87.34 61c-1.34 2.15-3.87 1.07-4.37 3.3-.5 2.22 4.66 3.01 7.52.36 2.87-2.65 2.08-7.16.29-7.52-1.79-.37-2.37 2.14-3.44 3.86z"/><path d="m79.26 36.46c1.18 1.32 5.91-.08 7.48-4.79s-1.53-7.75-3.62-6.68-.6 3.34-1.1 4.81-5.07 4.08-2.76 6.66z"/></g></svg>