<svg enable-background="new 0 0 128 128" viewBox="0 0 128 128" xmlns="http://www.w3.org/2000/svg"><path d="m59.4 21.9c3.8-2.7 6.9-.2 8.3 3.2 2.1 4.9 4.9 6.7 10.7 6.5 5.9-.2 7.6-2.6 8.1-6.5 0 0 2.8-13.7 3.6-16.1 2.8-8.9 15.7-6.3 12.9 4-3.2 11.5-16.7 19.7-7.6 27.7 3.7 3.2 8.3 3.1 11.2.8 8.3-6.5 17.3-3.4 18.5 2.7 1.2 5.9-2.9 7.7-5.4 8.5-4.6 1.5-15.8 2-16.3 12.4-.3 6.7 6.9 8.1 8.1 13s-.9 7-2.5 8.7-1.7 4-.2 6.1c5.1 7.2 12.7 10.7 10.3 17.3-2.4 6.5-14.9 8.9-19-1.4-8.8-22-14.8-12.4-19.6-11.4-12.6 2.6-13.1-6.1-22.4-1.3-9.4 4.9-6.6 28.1-20.9 26.4-5.3-.6-8.9-7.8-4.2-14.2 5.9-8 21.5-16.7 16.5-22-2.5-2.6-5.9-.4-7 .2-11.5 6.2-23.7-9.6-11.9-19.7 6.1-5.2 15.3-4 14.7-10.4-.4-4.7-6-5.9-11.9-9.3-12.4-7.1-19-10.2-21.2-15-5.3-11.2 10.7-20.5 17.8-9.6 3.4 5.3 5.6 5.7 8.3 5.9s11.3.7 11.3-4.1c0-1.8-1.7-3.2-3.1-5-1.9-2.5-3.3-5.8-2.2-8.6 1.6-4.3 7.3-3.9 9-1.5s6.1 12.7 6.1 12.7zm18.2 85.8c0 1.7-.3 7.4.6 10.5 3.6 12.8 18.6 5 12.8-6.8-.9-1.8-3-5.6-3.7-6.7-2.9-4.5-9.7-2.1-9.7 3zm-69.6-49.1c-7 2.8-4.7 14.1 2.7 13.6 4.3-.3 15-8 15-8 2.9-2 1.7-7.1-2.3-7-1.2-.1-11-.3-15.4 1.4z" fill="#907bf3"/><path d="m101.71 6.95c-1.08.12-2.01 1-1.81 2.65.3 2-.6 4.6-1.6 6.4-2.5 4.3-4.8 7.5-7.3 11.5-1.13 1.79-2.61 5.97 1.4 6.29.76-6 8.31-12.55 10.6-20.79.66-2.44.43-4.43-.33-5.95-.32-.09-.64-.14-.96-.1zm21.33 35.33c-1.52-.09-3.08 1.19-2.74 2.82 1 5.4-11.6 3.3-16.6 9-1.71 1.94-1.3 4.77.93 6.28 3.11-5.88 11.3-6.45 15.07-7.68 2.5-.8 6.6-2.6 5.4-8.5-.06-.32-.16-.62-.26-.92-.49-.65-1.14-.95-1.8-1zm-97.13 16.6c-.99.05-1.91.62-2.01 1.72-.2 2.7-6.4 4.4-10.7 6.8-.82.46-2.84 2.17-.85 4.43 4.9-1.56 13.35-7.63 13.35-7.63 1.77-1.22 2.01-3.6 1.01-5.24-.26-.07-.53-.1-.8-.08zm84.09 19.08c-1.26.21-2.09 1.42-1.9 2.54.5 2.9-4.2 3.8-4 8 .09 1.52.94 3.72 4.18 3.52-.92-1.84-.66-3.75.72-5.22 1.59-1.69 3.66-3.77 2.52-8.59-.54-.24-1.06-.32-1.52-.25zm-23.89 11.7c-.55-.02-1.15.05-1.81.24-3.48.97-3.53 4.83-12.49 7.44 2.18.59 4.88.85 8.69.06 2.58-.54 5.52-3.54 9.05-2.78.66-2-.48-4.86-3.44-4.96zm-28.6 3.71c-.6.03-1.28.23-2.01.63-9.2 5.4-6.2 17.4-14.6 23.5-2.16 1.52-2.63 3.6-1.41 5.04 11.72-.95 9.75-21.82 18.61-26.44.67-.34 1.28-.6 1.86-.82-.21-1.22-1.13-1.98-2.45-1.91zm60.1 11.38c-1.06.08-2.06.8-2.01 2.55.1 2.1-.6 4.6-5.7 4.6-1.36 0-3.84.44-3.33 3.34 5.05 1.69 10.96-.78 12.53-5.04.71-1.95.53-3.62-.18-5.2-.4-.18-.85-.28-1.31-.25zm-26.21 10.25c-1.1-.1-2.5.7-2.9 2.7s-2.1 2.9-3.2 2.8c-1.07-.1-3.85.11-3.98 2.92 4.71 3.79 11.9-.76 10.89-8.14-.23-.13-.5-.23-.81-.28z" fill="#004fac"/><path d="m10.9 62.5c-.3.4-1.1.9-1.4 2.2-.3 1.6-3.1 1.3-3.2-.4s1.2-3.4 3.3-3.6c1.6-.2 1.9 1.1 1.3 1.8zm23.6 6.7c-5.3.5-6.5 5.2-6 7.2.3 1.4 3.5 1.3 3.4-.6 0-3.3 2.7-4.4 3.3-5.1.5-.6.1-1.6-.7-1.5zm14.6-9.9c-.8 2.4-2.3 3.3-3 4.1-1.3 1.6.9 3.6 2.6 2.5 1.3-.8 2.9-3.4 2.4-6.3-.2-.8-1.7-1.2-2-.3zm-25.8-38.1c-.8-.6-5.7-2.5-8.3 1.9-.6 1-.3 2.1.4 2.7.8.6 2.1.5 2.6-.3 1.6-2.5 3.6-2.5 5-2.6.7 0 1.1-1.1.3-1.7zm28.2 6.3c-.2.6-2 2.2-3 2.6-2.9 1-.9 4.5 1.3 3.1 3.3-2 3.1-4.7 3.1-5.4.1-.8-1.1-1.2-1.4-.3zm-2.4-18.2c-3.4.2-3.3 3.9-3.2 5.1.2 1.7 3.1 1.5 2.9-.3-.2-2 .9-2.7 1.4-3.2.7-.8-.1-1.7-1.1-1.6zm-6.1 92.8c-1.5 1.1-6.8 6.3-7.6 7.2-1.8 1.8-2.1 4.1-1.4 5.9.6 1.8 3.2.9 3.1-.6-.1-1.2-.1-2.1.4-2.8s6.5-7.6 6.8-7.9c.8-1.5-.4-2.5-1.3-1.8zm51.5-96.2c-3.4 2.5-3.3 5.5-3 6.8s2 .8 2.1.2c.5-2 2.6-4.5 3-5 .9-1.3-.6-3.1-2.1-2z" fill="#d8bdf4"/></svg>