<svg enable-background="new 0 0 128 128" viewBox="0 0 128 128" xmlns="http://www.w3.org/2000/svg" xmlns:xlink="http://www.w3.org/1999/xlink"><linearGradient id="a"><stop offset=".7275" stop-color="#454140" stop-opacity="0"/><stop offset="1" stop-color="#454140"/></linearGradient><radialGradient id="b" cx="628.717" cy="33.9951" gradientTransform="matrix(-.8776 .4793 -.3113 -.57 643.6991 -187.9951)" gradientUnits="userSpaceOnUse" r="33.7217" xlink:href="#a"/><radialGradient id="c" cx="46.7548" cy="34.3691" gradientTransform="matrix(.8776 .4793 .3113 -.57 -4.9738 90.8076)" gradientUnits="userSpaceOnUse" r="34.0045" xlink:href="#a"/><linearGradient id="d"><stop offset=".6985" stop-color="#454140" stop-opacity="0"/><stop offset="1" stop-color="#454140"/></linearGradient><radialGradient id="e" cx="26.6195" cy="80.1389" gradientTransform="matrix(.0746 -.9972 -.8311 -.0622 91.2358 79.3913)" gradientUnits="userSpaceOnUse" r="34.3282" xlink:href="#d"/><radialGradient id="f" cx="172.2214" cy="61.1276" gradientTransform="matrix(-.9378 -.3944 -.2182 .5285 236.4617 66.99)" gradientUnits="userSpaceOnUse" r="46.468" xlink:href="#d"/><radialGradient id="g" cx="161.2834" cy="92.1732" gradientTransform="matrix(.5235 .852 .6321 -.3884 -48.207 -37.2646)" gradientUnits="userSpaceOnUse" r="48.129" xlink:href="#d"/><radialGradient id="h" cx="183.6044" cy="211.3525" gradientTransform="matrix(.9968 .0796 .0943 -1.182 -185.8959 247.3334)" gradientUnits="userSpaceOnUse" r="8.7425"><stop offset=".58" stop-color="#454140"/><stop offset="1" stop-color="#454140" stop-opacity="0"/></radialGradient><radialGradient id="i" cx="340.3055" cy="96.0319" gradientTransform="matrix(.6211 -.7838 -1.2436 -.9854 -70.4253 384.055)" gradientUnits="userSpaceOnUse" r="7.2204"><stop offset=".7016" stop-color="#454140" stop-opacity="0"/><stop offset="1" stop-color="#454140"/></radialGradient><path d="m28 15c-11.23 4.24-16 1-16 1 0 11 5 11 5 11s-13 10.89-13 29c0 21 10.49 28.22 10.49 28.22.54.56 1.41 1.83 1.41 1.83s.3 1.53.29 2.31c-.07 5.48-.19 11.64 5.81 17.64s13.19 6.22 16 7c6.18 1.72 40.04 1.06 47.15.59 8.85-.59 16.28-3.57 22.14-9.43 7.44-7.44 4.29-17.48 4.69-18.57.4-1.1 13.12-15.62 12.03-33.58-2-33-26-32-26-32s-6.01-16.01-30.01-16.01c-28 0-36.07 9.52-40 11z" fill="#312d2d"/><path d="m64.03 114.11c11.02.06 21.72.25 25.1-.68 2.82-.78 11.05-2.42 17.84-8.95 5.12-4.93 6.23-11.84 4.57-17.96-.18-.68-47.51 27.59-47.51 27.59z" fill="url(#b)"/><path d="m64.03 114.11c-11.02.06-22.65-.17-26.03-1.11-2.82-.78-10-1-16-7s-5.88-12.16-5.81-17.64c.01-.69-.22-1.95-.28-2.25l.09-.11z" fill="url(#c)"/><path d="m11.56 81.33s9.54-13.31 12.39-21.13c.58-1.58 2.44-22.49 1.55-25.16-1.66-5.02-3.74-11.63-8.5-8.04-9.01 8.55-12.51 18.1-12.93 26.75-.74 15.21 4.82 24.44 7.49 27.58z" fill="url(#e)"/><path d="m101.77 67.91h-10.17-55.09-10.17c-8.13 0-14.79 6.4-14.79 14.23s6.65 14.23 14.79 14.23h10.17 55.09 10.17c8.13 0 14.79-6.4 14.79-14.23s-6.66-14.23-14.79-14.23z" fill="#edc391"/><path d="m63.77 9.21c-23.86 0-45.96 25.07-45.96 61.14 0 35.88 22.77 53.62 45.96 53.62s45.96-17.74 45.96-53.62c0-36.07-22.1-61.14-45.96-61.14z" fill="#f9ddbd"/><path d="m68.89 87.13c-.14-.06-.28-.09-.42-.11h-9.3c-.14.02-.28.05-.42.11-.84.34-1.31 1.21-.91 2.14s2.25 3.54 5.98 3.54 5.58-2.61 5.98-3.54-.07-1.8-.91-2.14z" fill="#dba689"/><path d="m32.51 68.42s.17-.25.5-.67c.09-.1.16-.21.28-.34.14-.14.31-.28.48-.44.18-.15.37-.32.57-.5.2-.17.41-.3.63-.46.22-.15.45-.31.7-.46.26-.14.52-.28.79-.42.27-.15.56-.28.87-.39.3-.12.61-.24.93-.35.65-.18 1.32-.38 2.02-.47.7-.14 1.42-.15 2.14-.18.72.04 1.44.05 2.14.18.7.09 1.38.29 2.02.47.32.11.63.23.93.35s.59.24.87.39c.27.14.54.29.79.42.25.15.48.31.7.46.22.16.43.29.62.45.18.16.36.32.52.46.16.15.31.28.44.41.13.14.24.27.34.39.4.47.61.75.61.75.67.93.46 2.22-.47 2.88-.56.41-1.26.49-1.88.28l-.38-.13s-.25-.09-.65-.26c-.1-.04-.2-.1-.32-.14-.13-.04-.25-.09-.39-.14-.27-.11-.58-.22-.92-.32-.17-.05-.34-.12-.52-.17-.19-.04-.37-.09-.57-.14-.1-.03-.19-.05-.29-.08-.1-.02-.2-.04-.31-.06-.21-.03-.41-.09-.62-.13-.43-.05-.86-.14-1.31-.16-.45-.06-.9-.04-1.36-.07-.46.03-.91.01-1.36.07-.45.02-.88.11-1.31.16-.21.04-.41.1-.62.13-.1.02-.21.04-.31.06-.1.03-.19.05-.29.08-.19.05-.38.1-.57.14-.18.05-.35.12-.52.17s-.33.1-.48.15c-.13.05-.26.09-.38.14-.12.04-.24.08-.36.11-.13.05-.27.13-.38.19-.47.24-.75.36-.75.36-1.08.45-2.33-.06-2.78-1.15-.28-.69-.17-1.45.21-2.02z" fill="#454140"/><path d="m92.55 71.58s-.28-.12-.75-.36c-.11-.06-.25-.14-.38-.19-.12-.03-.23-.07-.36-.11-.12-.04-.25-.09-.38-.14-.15-.05-.32-.1-.48-.15-.17-.05-.34-.12-.52-.17s-.37-.1-.57-.14c-.1-.03-.19-.05-.29-.08-.1-.02-.2-.04-.31-.06-.21-.03-.41-.09-.62-.13-.43-.05-.86-.14-1.31-.16-.45-.06-.9-.04-1.36-.07-.46.03-.91.01-1.36.07-.45.02-.88.11-1.31.16-.21.04-.41.1-.62.13-.1.02-.21.04-.31.06-.1.03-.19.05-.29.08-.19.05-.38.1-.57.14-.18.05-.35.12-.52.17-.34.1-.65.21-.92.32-.14.05-.26.11-.39.14-.12.05-.22.1-.32.14-.39.18-.64.26-.64.26l-.37.13c-1.08.38-2.25-.19-2.63-1.27-.23-.66-.1-1.36.27-1.89 0 0 .2-.28.61-.75.1-.12.21-.25.34-.39.13-.13.29-.26.44-.41.16-.14.34-.3.52-.46.19-.16.4-.29.62-.45.22-.15.45-.31.7-.46.26-.14.52-.28.79-.42.27-.15.56-.28.86-.39.3-.12.61-.24.93-.35.65-.18 1.32-.38 2.02-.47.7-.14 1.42-.15 2.14-.18.72.04 1.44.04 2.14.18.7.08 1.38.29 2.02.47.32.11.63.23.93.35s.59.24.86.39c.27.14.54.29.79.42.25.15.48.31.7.46.22.16.43.29.63.46s.39.34.57.5c.17.16.34.3.48.44.12.13.2.24.28.34.33.41.5.67.5.67.66.97.41 2.29-.56 2.95-.6.43-1.37.48-2 .22z" fill="#454140"/><ellipse cx="41.96" cy="80.34" fill="#312d2d" rx="6.48" ry="6.71"/><ellipse cx="85.68" cy="80.34" fill="#312d2d" rx="6.48" ry="6.71"/><path d="m75.01 97.97c-4.19 2.49-17.91 2.49-22.1 0-2.4-1.43-4.86.76-3.86 2.94.98 2.15 8.47 7.13 14.95 7.13s13.87-4.98 14.85-7.13c.99-2.19-1.43-4.37-3.84-2.94z" fill="#444"/><path d="m64 7c-19.81 0-35.08 11.32-42.3 29.48-2.9 7.29-5.26 15.05-5.26 22.89 0 13.63 2.56 25.63 2.56 25.63 7-9 5-18 5-18 9-12 35.82-21.64 36-22-.01.02-5.4 10.81-5.4 10.81-.68 1.35.48 2.97 1.95 2.65 25.45-5.46 36.63-15.27 36.63-15.27s.82 14.81 11.82 24.81c0 0 0 8 3 17 0 0 5-18 1.58-37.28-2.25-12.66-9.52-24.83-20.04-32.67-7.39-5.51-16.39-8.05-25.54-8.05z" fill="#312d2d"/><path d="m81.19 5.93c9.95 3.28 16.06 9.58 17.95 17.49.56 2.32.15 23.66-41.22-.97-15.39-9.16-11.18-14.9-9.38-15.55 7.04-2.53 19.81-5.2 32.65-.97z" fill="url(#f)"/><path d="m116.24 79.21s14.72-20.84 3.79-44.33c-7.13-15.3-21.61-14.95-22.03-14.88 0 0 1.57 3.84 1.01 6.77-.95 5-5.11 6.44-5.11 6.44 16.38 9.98 10.8 35.53 22.34 46z" fill="url(#g)"/><path d="m27.28 15.27c-10.55 3.77-15.23.81-15.26.73-.32 1.23.37 8.7 6.9 6.37 2.81-1.02 8.33-6.75 8.36-7.1z" fill="url(#h)"/><path d="m11.98 15.99c0 .01-.01.03-.01.06-.03 1.17-.01 10.13 5.03 10.95l7.61-3.35c-9.49-.19-12.62-7.69-12.62-7.69s-.01.02-.01.03z" fill="url(#i)"/></svg>