<svg enable-background="new 0 0 128 128" viewBox="0 0 128 128" xmlns="http://www.w3.org/2000/svg"><path d="m116 4h-104c-4.42 0-8 3.58-8 8v104c0 4.42 3.58 8 8 8h104c4.42 0 8-3.58 8-8v-104c0-4.42-3.58-8-8-8z" fill="#c33"/><path d="m109.7 4h-98.2c-4.13.03-7.47 3.37-7.5 7.5v97.9c-.01 4.14 3.34 7.49 7.48 7.5h.02 98.1c4.14.01 7.49-3.34 7.5-7.48 0-.01 0-.01 0-.02v-97.9c.09-4.05-3.13-7.41-7.18-7.5-.07 0-.15 0-.22 0z" fill="#f44336"/><path d="m39.7 12.9c0-2.3-1.6-3-10.8-2.7-7.7.3-11.5 1.2-13.8 4s-2.9 8.5-3 15.3c0 4.8 0 9.3 2.5 9.3 3.4 0 3.4-7.9 6.2-12.3 5.4-8.7 18.9-10.6 18.9-13.6z" fill="#ff8a80"/><path d="m77.6 87.5h-31.3c-.84 0-1.59.52-1.9 1.3l-6.2 17.8c-.3.79-1.06 1.31-1.9 1.3h-11.5c-1.1.01-2.01-.87-2.03-1.97 0-.25.04-.49.13-.73l31.7-84c.3-.79 1.06-1.31 1.9-1.3h11c.84 0 1.59.52 1.9 1.3l31.8 84c.39 1.03-.14 2.19-1.17 2.57-.23.09-.48.13-.73.13h-11.7c-.84 0-1.59-.52-1.9-1.3l-6.2-17.8c-.31-.78-1.06-1.3-1.9-1.3zm-25.6-12.3h19.9c1.13-.02 2.03-.96 2.01-2.09 0-.21-.04-.41-.11-.61l-9.9-28.4c-.34-1.05-1.48-1.62-2.52-1.28-.6.2-1.08.67-1.28 1.28l-9.9 28.4c-.39 1.03.14 2.19 1.17 2.57.2.08.42.12.63.13z" fill="#fafafa"/></svg>