<svg enable-background="new 0 0 128 128" viewBox="0 0 128 128" xmlns="http://www.w3.org/2000/svg" xmlns:xlink="http://www.w3.org/1999/xlink"><linearGradient id="a" gradientTransform="matrix(1 0 0 -1 0 128)" gradientUnits="userSpaceOnUse" x1="63.9995" x2="63.9995" y1="116.6047" y2="39.5107"><stop offset="0" stop-color="#26a69a"/><stop offset="1" stop-color="#00796b"/></linearGradient><linearGradient id="b" gradientTransform="matrix(1 0 0 -1 0 128)" gradientUnits="userSpaceOnUse" x1="63.9995" x2="63.9995" y1="119.455" y2="37.224"><stop offset="0" stop-color="#8d6e63"/><stop offset=".7789" stop-color="#795548"/></linearGradient><radialGradient id="c" cx="64.0002" cy="69.5615" gradientTransform="matrix(1 0 0 -1.1901 0 141.2215)" gradientUnits="userSpaceOnUse" r="47.5315"><stop offset=".7936" stop-color="#454140" stop-opacity="0"/><stop offset="1" stop-color="#454140"/></radialGradient><linearGradient id="d" gradientTransform="matrix(1 0 0 -1 0 128)" gradientUnits="userSpaceOnUse" x1="64" x2="64" y1="18.3431" y2="4.8496"><stop offset="0" stop-color="#b3e5fc"/><stop offset="1" stop-color="#70afe3"/></linearGradient><linearGradient id="e"><stop offset="0" stop-color="#651fff"/><stop offset=".7047" stop-color="#5914f2"/><stop offset="1" stop-color="#530eeb"/></linearGradient><linearGradient id="f" gradientTransform="matrix(1 0 0 -1 0 128)" gradientUnits="userSpaceOnUse" x1="30.39" x2="30.39" xlink:href="#e" y1="32.2966" y2="4.9909"/><linearGradient id="g" gradientTransform="matrix(1 0 0 -1 0 128)" gradientUnits="userSpaceOnUse" x1="98" x2="98" xlink:href="#e" y1="30.9943" y2="5.0327"/><linearGradient id="h"><stop offset="0" stop-color="#d1c4e9" stop-opacity=".2"/><stop offset=".7848" stop-color="#d1c4e9" stop-opacity=".6"/></linearGradient><linearGradient id="i" gradientTransform="matrix(1 0 0 -1 0 128)" gradientUnits="userSpaceOnUse" x1="39.001" x2="39.001" xlink:href="#h" y1="29" y2="5.422"/><linearGradient id="j" gradientTransform="matrix(-1 0 0 -1 1086.4766 128)" gradientUnits="userSpaceOnUse" x1="997.4766" x2="997.4766" xlink:href="#h" y1="30.2368" y2="5.6115"/><linearGradient id="k"><stop offset="0" stop-color="#e1f5fe"/><stop offset="1" stop-color="#81d4fa"/></linearGradient><linearGradient id="l" gradientTransform="matrix(1 0 0 -1 0 128)" gradientUnits="userSpaceOnUse" x1="54.339" x2="55.1762" xlink:href="#k" y1="16.8755" y2="37.1545"/><linearGradient id="m" gradientTransform="matrix(1 0 0 -1 0 128)" gradientUnits="userSpaceOnUse" x1="72.97" x2="73.8072" xlink:href="#k" y1="16.1063" y2="36.3853"/><linearGradient id="n" gradientTransform="matrix(1 0 0 -1 0 128)" gradientUnits="userSpaceOnUse" x1="79.1499" x2="72.8167" y1="21.1171" y2="-5.5496"><stop offset=".0017" stop-color="#212121" stop-opacity=".2"/><stop offset="1" stop-color="#212121" stop-opacity=".6"/></linearGradient><linearGradient id="o" gradientTransform="matrix(1 0 0 -1 0 128)" gradientUnits="userSpaceOnUse" x1="81.8878" x2="76.7212" y1="17.2594" y2="-.0739"><stop offset="0" stop-color="#ef5350"/><stop offset="1" stop-color="#e53935"/></linearGradient><linearGradient id="p" gradientTransform="matrix(.9612 .2758 -.3192 1.1123 -136.5551 1216.4104)" gradientUnits="userSpaceOnUse" x1="-117.4402" x2="-73.9951" y1="-972.3115" y2="-972.3115"><stop offset=".0102" stop-color="#bdbdbd"/><stop offset=".9869" stop-color="#f5f5f5"/></linearGradient><clipPath id="q"><path d="m105.67 118.03-44.5-12.66c-3.53-1-3.9.22-4.81 3.43l-4.34 15.18 51.97-.02z"/></clipPath><linearGradient id="r" gradientTransform="matrix(1 0 0 -1 0 128)" gradientUnits="userSpaceOnUse" x1="52.5551" x2="56.9301" y1="5.954" y2="19.704"><stop offset="0" stop-color="#212121"/><stop offset="1" stop-color="#424242"/></linearGradient><radialGradient id="s" cx="64.3333" cy="65.537" gradientTransform="matrix(1 0 0 -1.2135 0 141.9952)" gradientUnits="userSpaceOnUse" r="49.788"><stop offset=".7945" stop-color="#454140" stop-opacity="0"/><stop offset="1" stop-color="#454140"/></radialGradient><path d="m6.36 10.9h115.29v77.52h-115.29z" fill="url(#a)"/><path d="m119.29 13.26v72.81h-110.58v-72.81zm4.71-4.71h-120v82.23h120z" fill="url(#b)"/><path d="m64.57 2.87c-41.01 0-40.68 37.92-40.68 38.52 0 24.56 1.88 59.25 11.71 72.9 3.9 5.41 11.43 5.71 11.43 5.71l16.97-.02 16.97.02s7.54-.3 11.43-5.71c9.83-13.65 11.71-48.34 11.71-72.9-.01-.6 1.47-38.52-39.54-38.52z" fill="#312d2d"/><path d="m64.57 2.87c-41.01 0-40.68 37.92-40.68 38.52 0 24.56 1.88 59.25 11.71 72.9 3.9 5.41 11.43 5.71 11.43 5.71l16.97-.02 16.97.02s7.54-.3 11.43-5.71c9.83-13.65 11.71-48.34 11.71-72.9-.01-.6 1.47-38.52-39.54-38.52z" fill="url(#c)"/><path d="m114.5 123.94v-3.18c0-15.47-25.34-23.56-50.36-23.56h-.14c-25.14.03-50.5 7.32-50.5 23.56v3.18z" fill="url(#d)"/><path d="m15 123.94v-3.18c0-15.2 24.61-22.03 49-22.06h.13c12.9 0 25.42 2.19 34.36 6 6.62 2.83 14.51 7.91 14.51 16.05v3.18h3v-3.18c0-16.75-26.26-25.05-51.87-25.05-.04 0-.09 0-.13 0-25.49.03-52 7.28-52 25.06v3.18z" fill="#3488c1"/><path d="m12 120.75v3.18h1.5 1.5 26.6 1.5 1.5c.78-21.78 4.18-28.01 4.18-28.01-16.95 3.7-36.03 8.08-36.78 24.83z" fill="url(#f)"/><path d="m79.61 95.93s3.39 6.23 4.18 28.01h1.5 1.5 26.6 1.5 1.5v-3.18c-.75-16.76-19.83-21.14-36.78-24.83z" fill="url(#g)"/><path d="m38.45 123.94c.03-4.94.58-15.24 4.12-26.67l-3.38.82c-3.22 11.18-3.74 20.96-3.75 25.85z" fill="url(#i)"/><path d="m92.56 123.94c-.01-4.89-.53-14.67-3.75-25.85l-3.38-.82c3.54 11.43 4.09 21.73 4.12 26.67z" fill="url(#j)"/><path d="m64 92.33h-9.08v9.98c0 4.51 3.7 8.17 8.26 8.17h1.65c4.56 0 8.26-3.66 8.26-8.17v-9.98z" fill="#edc391"/><path d="m54 91.88 9.98 12.81s.5-.38 0 0l-16.23 6.64-2.41-14.54z" fill="url(#l)"/><path d="m74.21 91.88-9.98 12.81s-.5-.38 0 0l16.23 6.64 2.41-14.54z" fill="url(#m)"/><path d="m100.99 123.94.76-2.65.63-2.18-.06-.02.01-.05-1.55-.44 1.64-5.72c.1-.35.09-.7 0-1.02 0-.01-.01-.03-.01-.04-.01-.04-.02-.07-.04-.1-.17-.54-.56-.97-1.09-1.13l-.15-.04s0 0-.01 0l-3.75-1.08-34.93-10.05c-.05-.01-.09-.01-.13-.03-3.24-.85-6.58 1.03-7.51 4.27l-1.44 5.03c-.1.34-.21.71-.33 1.11l-1.32 4.61-2.74 9.53z" fill="url(#n)"/><path d="m102.29 123.94 3.46-12.06c.29-1.01-.29-2.06-1.3-2.34l-38.69-11.1c-3.28-.94-6.71.96-7.65 4.24l-6.1 21.27z" fill="#424242"/><path d="m104.04 123.94 1.04-3.63c.35-1.22-.38-2.5-1.62-2.85l-41.52-11.9c-4.53-1.3-5.32 2.35-6.59 6.78l-3.33 11.6z" fill="url(#o)"/><path d="m64.33 101.57c.18 0 .38.02.59.07l37.25 10.7-.31 1.08c-11.79-3.29-34.29-9.62-38.94-11.16.24-.33.71-.69 1.41-.69m0-3.33c-4.52 0-6.78 5.57-3.12 6.94 4.03 1.5 42.93 12.32 42.93 12.32l1.58-5.52c.31-1.06-.19-2.14-1.11-2.4l-38.84-11.16c-.5-.12-.98-.18-1.44-.18z" fill="#424242" opacity=".2"/><path d="m103.37 112.12-39.8-11.42c-1.08-.31-2.26.46-2.62 1.71l-.06.22c-.36 1.25.23 2.53 1.31 2.84l39.8 11.42s-.34-.83.07-2.3c.41-1.48 1.3-2.47 1.3-2.47z" fill="url(#p)"/><path clip-path="url(#q)" d="m55.88 123.94 7.75-26.99-6.43-1.85-8.28 28.84z" fill="url(#r)"/><path d="m64.31 16.04c-17.2 0-33.13 12.79-33.13 39.91 0 21.78 13.49 34.67 25.23 38.83 2.8.99 5.5 1.49 7.9 1.49 2.38 0 5.07-.49 7.85-1.47 11.76-4.14 25.28-17.03 25.28-38.84 0-27.13-15.93-39.92-33.13-39.92z" fill="#f9ddbd"/><path d="m68.37 68.06c-.11-.04-.21-.07-.32-.08h-6.99c-.11.01-.21.04-.32.08-.63.26-.98.91-.68 1.61s1.69 2.66 4.49 2.66 4.19-1.96 4.5-2.66c.3-.7-.05-1.36-.68-1.61z" fill="#dba689"/><ellipse cx="49.31" cy="58.87" fill="#312d2d" rx="4.87" ry="5.04"/><ellipse cx="79.8" cy="58.87" fill="#312d2d" rx="4.87" ry="5.04"/><path d="m55.54 49.82c-.93-1.23-3.07-3.01-7.23-3.01s-6.31 1.79-7.23 3.01c-.41.54-.31 1.17-.02 1.55.26.35 1.04.68 1.9.39s2.54-1.16 5.35-1.18c2.81.02 4.49.89 5.35 1.18s1.64-.03 1.9-.39c.29-.38.39-1.01-.02-1.55z" fill="#454140"/><path d="m88.04 49.82c-.93-1.23-3.07-3.01-7.23-3.01s-6.31 1.79-7.23 3.01c-.41.54-.31 1.17-.02 1.55.26.35 1.04.68 1.9.39s2.54-1.16 5.35-1.18c2.81.02 4.49.89 5.35 1.18s1.64-.03 1.9-.39c.28-.38.38-1.01-.02-1.55z" fill="#454140"/><path d="m72.62 76.14c-3.15 1.87-13.47 1.87-16.61 0-1.81-1.07-3.65.57-2.9 2.21.74 1.61 6.37 5.36 11.23 5.36s10.42-3.75 11.16-5.36c.75-1.64-1.07-3.29-2.88-2.21z" fill="#444"/><path d="m93.93 52.93c-.07-1.19-.12-1.31-1.69-1.81-1.23-.39-7.95-.94-13.01-.66-.36.02-.71.04-1.04.07-4.59.39-10.1 2.24-14.24 2.34-1.76.04-9.01-1.86-14.14-2.26-.33-.02-.66-.05-1-.06-5.07-.26-11.82.33-13.05.73-1.57.51-1.62.63-1.68 1.82-.07 1.18.13 2.2 1.06 2.51 1.27.42 1.28 2 2.13 6.54.77 4.14 2.62 7.41 10.57 7.98.34.02.66.04.98.04 7.03.1 9.45-4.53 10.25-6.07 1.49-2.86 1.02-6.8 4.96-6.81 3.93-.01 3.56 3.86 5.07 6.71.81 1.53 3.17 6.18 10.14 6.08.34 0 .69-.02 1.05-.05 7.94-.62 9.78-3.9 10.52-8.04.82-4.55.83-6.14 2.09-6.56.91-.3 1.1-1.31 1.03-2.5zm-40.56 15.24c-1.22.57-2.85.86-4.57.86-3.59-.01-7.57-1.27-9.01-3.81-2.04-3.62-2.57-10.94.03-12.47 1.14-.67 4.99-1.13 8.97-.96 4.13.18 8.4 1.04 9.94 3.06 2.56 3.33-1.5 11.5-5.36 13.32zm34.9-3.1c-1.43 2.56-5.44 3.85-9.05 3.86-1.7.01-3.31-.27-4.51-.83-3.87-1.8-7.97-9.94-5.45-13.29 1.53-2.04 5.82-2.92 9.96-3.12 3.97-.19 7.81.25 8.94.91 2.62 1.52 2.13 8.84.11 12.47z" fill="#212121" stroke="#212121" stroke-miterlimit="10" stroke-width=".5499"/><path d="m64.57 2.87c-41.01 0-40.68 37.92-40.68 38.52 0 7.76.19 16.53.75 25.32l6.72-.02c-.06-2.92 1.99-20.97 8.08-22.34 22.36-5.03 35.01-16.89 35.01-16.89 3.29 7.18 13.58 14.19 17.27 16.86 3.03 2.19 4.58 18.55 4.52 22.38h7.09c0-.05.02-.1.02-.16.56-8.75.74-17.46.74-25.17.01-.58 1.49-38.5-39.52-38.5z" fill="#312d2d"/><path d="m64.57 2.87c-41.01 0-40.68 37.92-40.68 38.52 0 7.76.19 16.53.75 25.32l6.72-.02c-.06-2.92 1.99-20.97 8.08-22.34 22.36-5.03 35.01-16.89 35.01-16.89 3.29 7.18 13.58 14.19 17.27 16.86 3.03 2.19 4.58 18.55 4.52 22.38h7.09c0-.05.02-.1.02-.16.56-8.75.74-17.46.74-25.17.01-.58 1.49-38.5-39.52-38.5z" fill="url(#s)"/></svg>