<svg enable-background="new 0 0 128 128" viewBox="0 0 128 128" xmlns="http://www.w3.org/2000/svg"><path d="m84.3 57.8c-.1 10.8-.4 53.3-.4 54.9-.3 12.8-16.7 12.7-16.9.7 0-1.5-1.1-25-1.3-32.2-2 5.2-11.9 7.5-14.9-3.1-2.6 5-12.9 6.4-14.7-4.2-2.5 3.8-10.9 4.3-14.2-6-2.7-8.4-2-28.2 2.3-40.3 3.3-9.1 5.8-8.4 5.6-16.7 0-1.4 1.1-2.1 2.4-2.4 5.8-1.2 26.3-1.9 33.8-.2 1.6.4 1.8 1.7 1.9 2.2.4 2.1 2.5 4.2 4.3 5 6.4 3.2 12.8 12.8 18.2 23.4 2.8 5.5 8.8 9.2 18.3 10.4 6.3.8 7.7 8.6 2.5 11.8-3.6 2.2-7 2.9-10.4 2.9-6.2.1-10.1-1.7-16.5-6.2z" fill="#ffca28"/><path d="m63.73 7.92c.31 15.2 11.77 13.63 18.87 24.58 10.1 15.4 11.1 16.3 25.2 19.7 4.9 1.2 4.4 5.7 2.1 7.7-.81.7-.88 1.51-.58 2.21.62-.3 1.24-.62 1.88-1.01 5.2-3.2 3.8-11-2.5-11.8-9.5-1.2-15.5-4.9-18.3-10.4-5.4-10.6-11.8-20.2-18.2-23.4-1.8-.8-3.9-2.9-4.3-5-.1-.5-.3-1.8-1.9-2.2-.65-.15-1.44-.27-2.27-.38zm20.56 51.3c-.66.04-1.09.23-1.09.98 0 1-2.1 43.6-2.3 51.6-.2 9.2-7.6 8.7-10.1 5.9-1.02-1.14-2.24-.69-2.76.2 3.62 7.25 15.6 5.72 15.86-5.2 0-1.56.28-41.41.39-53.48zm-62.29 5.07c-.33-.05-.64.03-.91.17.22 1.28.49 2.45.81 3.44 3.3 10.3 11.7 9.8 14.2 6 1.8 10.6 12.1 9.2 14.7 4.2 3 10.6 12.9 8.3 14.9 3.1.02.75.11 2.75.15 3.81.63-4.53 1.1-8.01 1.25-9.71.1-.7.6-2.9-1.2-2.9-1.6.1-2.9 2.8-6.4 2.8-3.7 0-4.7-3-7.5-3.1-2.7-.1-3.8 2-7.7 1.5-4.5-.6-4-4.1-7.1-4.2-2.7 0-3.2 1.8-6.6 1.8-3.1 0-5.8-3-7-5.5-.45-.94-1.04-1.34-1.6-1.41z" fill="#faa700"/><path d="m31.16 8.88c-.79.4-1.36 1.03-1.36 2.02.2 8.3-2.3 7.6-5.6 16.7-4.3 12.1-5 31.9-2.3 40.3 1.62 5.07 4.48 7.51 7.26 8.24-.03-.21-.16-.44-.46-.64-1.1-.8-3-2.9-4.4-7.5-1.1-3.7-1.9-21.3.7-32.5.5-2.3 3-9.9 5.3-13.6s1.6-7.3 1.4-8.3c-.14-.72-.39-3.12-.54-4.72zm53.86 46.54c-.49-.12-.72.18-.72.48v1.9c6.4 4.5 10.3 6.3 16.5 6.2 3.4 0 6.8-.7 10.4-2.9 1.31-.81 2.2-1.9 2.7-3.1-.2-.15-.51-.16-.9.1-4.7 2.9-9.2 3.4-12.4 3.4-7 0-14.1-5.2-15-5.8-.23-.15-.42-.24-.58-.28zm-47.86 14.82c-.64.04-1.26.46-1.26 1.26 0 1.1.1 2.4.1 2.4l.01.11c.03-.04.06-.07.09-.11.78 4.6 3.17 6.94 5.83 7.7-.05-.19-.17-.39-.43-.6-2-1.5-2.8-3.5-3-9.7-.05-.75-.7-1.1-1.34-1.06zm14.79 2.75c-.68-.01-1.35.36-1.35 1.21 0 .7.1 4 .1 4v.06c.03-.06.07-.11.1-.16 1.23 4.34 3.62 6.49 6.14 7.19-.02-.2-.1-.41-.34-.59-2-1.5-3.5-4.6-3.3-10.6 0-.7-.68-1.1-1.35-1.11zm14.41.06c-.46 0-.91.3-.86.95.1 1.7.2 7.2.2 7.2.2 7.2 1.3 30.7 1.3 32.2.1 6.04 4.3 9.05 8.49 8.94-.04-.36-.21-.75-.99-1.14-1.5-.7-4.4-3.1-4.7-8.4s-2.5-38.1-2.5-38.9c0-.55-.47-.85-.94-.85z" fill="#b55e19"/></svg>