<svg enable-background="new 0 0 128 128" viewBox="0 0 128 128" xmlns="http://www.w3.org/2000/svg" xmlns:xlink="http://www.w3.org/1999/xlink"><radialGradient id="a" cx="63.6" cy="-2088.8999" gradientTransform="matrix(1 0 0 -1 0 -2026)" gradientUnits="userSpaceOnUse" r="56.9597"><stop offset=".5" stop-color="#fde030"/><stop offset=".9188" stop-color="#f7c02b"/><stop offset="1" stop-color="#f4a223"/></radialGradient><path d="m63.6 118.8c-27.9 0-58-17.5-58-55.9s30.1-55.9 58-55.9c15.5 0 29.8 5.1 40.4 14.4 11.5 10.2 17.6 24.6 17.6 41.5s-6.1 31.2-17.6 41.4c-10.6 9.3-25 14.5-40.4 14.5z" fill="url(#a)"/><path d="m111.49 29.67c5.33 8.6 8.11 18.84 8.11 30.23 0 16.9-6.1 31.2-17.6 41.4-10.6 9.3-25 14.5-40.4 14.5-18.06 0-37.04-7.35-48.18-22.94 10.76 17.66 30.99 25.94 50.18 25.94 15.4 0 29.8-5.2 40.4-14.5 11.5-10.2 17.6-24.5 17.6-41.4 0-12.74-3.47-24.06-10.11-33.23z" fill="#eb8f00"/><path d="m44.04 40.94c-4.19 0-8 3.54-8 9.42s3.81 9.42 8 9.42c4.19 0 8-3.54 8-9.42s-3.8-9.42-8-9.42z" fill="#422b0d"/><path d="m43.65 44.87c-1.03-.72-2.58-.49-3.58.95-1 1.45-.67 2.97.36 3.69 1.03.72 2.58.49 3.58-.95s.68-2.97-.36-3.69z" fill="#896024"/><path d="m82.4 40.94c-4.19 0-8 3.54-8 9.42s3.81 9.42 8 9.42c4.19 0 8-3.54 8-9.42s-3.81-9.42-8-9.42z" fill="#422b0d"/><path d="m82.01 44.87c-1.03-.72-2.58-.49-3.58.95-1 1.45-.67 2.97.36 3.69 1.03.72 2.58.49 3.58-.95 1.01-1.45.67-2.97-.36-3.69z" fill="#896024"/><path d="m39.38 93.99h50.09c6.32 0 11.44-5.12 11.44-11.44 0-6.32-5.12-11.44-11.44-11.44h-50.09c-6.32 0-11.44 5.12-11.44 11.44-.01 6.32 5.12 11.44 11.44 11.44z" fill="#fff"/><g fill="#b3b3b3"><path d="m100.74 80.67h-72.64c-.1.61-.17 1.24-.17 1.88 0 .73.07 1.43.2 2.12h72.57c.13-.69.2-1.39.2-2.12.01-.65-.06-1.27-.16-1.88z"/><path d="m89.46 71.1h-.55v22.89h.55c.91 0 1.8-.12 2.65-.32v-22.25c-.85-.2-1.73-.32-2.65-.32z"/><path d="m62.58 71.1h3.2v22.89h-3.2z"/><path d="m39.38 71.1c-1.09 0-2.14.16-3.14.45v21.99c1 .29 2.05.45 3.14.45h.06v-22.89z"/><path d="m49.41 71.1h3.2v22.89h-3.2z"/><path d="m75.74 71.1h3.2v22.89h-3.2z"/></g><path d="m100.91 82.55c-.34-3.59-2.27-6.84-5.13-8.64-1.4-.93-3-1.51-4.63-1.68-1.56-.16-3.43.01-5.21.04-3.58.14-7.17.17-10.75.25l-10.77.08-10.75-.08c-3.58-.08-7.17-.11-10.75-.25-1.78-.03-3.65-.2-5.21-.04-1.63.17-3.24.74-4.63 1.68-2.86 1.8-4.8 5.05-5.14 8.64-.34-3.59 1.27-7.44 4.27-9.83 1.48-1.21 3.28-2.05 5.19-2.43l.72-.14.73-.06c.5-.05.94-.05 1.39-.07l2.69-.09c3.58-.14 7.17-.17 10.75-.25l10.75-.08 10.75.08c3.58.08 7.17.11 10.75.25l2.69.09c.45.02.88.02 1.39.07l.73.06.72.14c1.91.38 3.71 1.22 5.19 2.43 2.99 2.39 4.6 6.23 4.26 9.83z" fill="#de7321"/></svg>