<svg enable-background="new 0 0 128 128" viewBox="0 0 128 128" xmlns="http://www.w3.org/2000/svg"><path d="m41.21 75.56s-5.57-1.35-8.44-7.93-3.23-17.58-.34-32.9 9.98-26.05 23.48-29.59 25.7 1.46 30.85 12.04c7.63 15.66 6.92 25.82 5.23 36.44-1.69 10.63-7 16.86-7 16.86z" fill="#543930"/><path d="m44.66 72.55s-4.15-3.55-4.5-9.36c-.36-5.8 1.9-11.25 1.9-11.25l19.49-14.24 22.81-2.58s3.91 10.19 3.2 16.94-2.49 11.37-2.49 11.37l-13.27 6.04-27.13 3.08z" fill="#3c2c23"/><path d="m88.73 64.04s-4.94-2.63-8.01-3.51-25.57 2.93-25.57 2.93-2.55 1.22-5.48 2.93-6.64 4.54-6.64 4.54l-14.02 17.47-9.08 16.92 12.79 4.81s5.28-6.92 7.58-10.09 5.34-8.2 5.34-8.2.78 2.55 1.13 3.7 1.47 4.7 1.47 4.7l53.95-8.13-13.47-28.07z" fill="#4b0fce"/><path d="m25.74 120.27s-9.14-3.38-9.82-10.16c-.55-5.5.84-11.27 5.26-18.02 4.43-6.74 10.93-12.35 15.41-16.29 3.86-3.4 6.44-4.87 6.44-4.87s4.53-.43 10.01.73 9.27 3.48 9.27 3.48l15.49 5.9 7.69-10.75s1.37-1.69 2.21-3.27 1.02-2.98 1.02-2.98 7.16 2.72 13 10.79 7.79 15.73 7.79 15.73 2.37 8.07 2.64 14.61c.18 4.17-.52 6.4-.52 6.4l-59.6-19.2s-1.49-2.14-2.32-3.89-1.52-4.67-3.08-4.48c-1.56.18-3.16 4.46-7.53 9.46-5.6 6.41-6.58 7.15-7.85 7.08-1.09-.06-1.87-1.42-3.28-2.06-1.48-.67-3.22-.51-3.22.51s1.99.45 3.54 1.67 3.28 3.49 3.8 5.08c1.09 3.35.9 6.31.9 6.31l-7.26 8.23z" fill="#583ee2"/><path d="m65.6 89.75s-2.08-5.43-2.95-8.97c-.46-1.89-1.08-6.14-1.08-6.14l23.93-4.35s2.08 2.33 3.74 5.29 2.75 5.78 2.75 5.78l-8.81 12.35-17.57-3.96z" fill="#ba8d68"/><path d="m60.84 65.18s.07 3.4.14 4.84.58 4.62.58 4.62 5.78 2.6 12.64.87 11.28-5.22 11.28-5.22-2.11-2.22-3.7-3.3-3.03-2.17-3.03-2.17v-3.97z" fill="#99674f"/><path d="m42.05 51.93s.52 2.1 2.76 3.41c1.55.91 3.86.75 3.86.75l-1.08-10.02-2.16-.62s-1.08 1.78-1.93 3.4-1.44 3.07-1.45 3.08z" fill="#99674f"/><path d="m45.42 45.46s.23 8.42 6.26 14.67 12.43 8.73 20.16 6.57c7.72-2.16 13.44-9.65 13.75-18.92s-1.24-12.67-1.24-12.67-6.19-2.8-11.91-7.36-7.86-8.17-7.86-8.17-.08 3.48-3.78 7.65c-3.71 4.17-8.67 9.25-10.66 11.66-2.93 3.55-4.71 6.57-4.71 6.57z" fill="#ba8d68"/><path d="m69.5 35.26c.36 1.18 1.52.73 4.86.06 3.33-.68 5.08-.79 4.91-1.92-.18-1.23-2.43-1-5.31-.9-3.44.11-4.86 1.47-4.46 2.77z" fill="#613e31"/><path d="m48.27 41.87c.62 1.24 3.39-.73 5.03-1.41s4.86-1.3 4.69-2.65-3.33-.96-5.59-.06c-1.79.72-2.26 1.15-2.26 1.15l-.91 1.08-.85 1.11s-.31.41-.11.79z" fill="#613e31"/><path d="m50.7 46.78c-.22 1.06 1.86 2.82 5.31 2.32s5.53-3.05 4.74-4.23-2.32.56-5.19 1.13c-2.44.48-4.63-.28-4.86.79z" fill="#49352e"/><path d="m70.74 42.63c-.62 1.49 2.09 2.65 5.25 2.09s5.91-3.53 4.23-4.69c-.73-.51-1.92.85-4.57 1.58-2.3.64-4.35-.34-4.91 1.02z" fill="#49352e"/><path d="m63.9 52.13c.31 1.2 3.4 2.13 4.81 1.79 1.98-.48 3.61-3.19 2.82-3.92-.97-.88-2.86 1.08-3.47 1.17-1.24.17-4.53-.48-4.16.96z" fill="#99674f"/><path d="m63.42 58.21c.43 1.17 3.74 1.55 6.05 1.2 2.3-.34 6.39-3.33 5.05-4.43-1.17-.96-3.02 1.03-5.12 1.48-1.05.22-2.46.35-3.71.48-.67.07-1.35 0-1.79.24-.38.2-.62.65-.48 1.03z" fill="#49352e"/><path d="m82.13 90.94s0-.45.12-1.18c.41-2.7 2.27-9.22 10.55-10.88 5.53-1.11 10.2 1.61 12.92 4.61s3.54 6.43 3.54 6.43l-23.42 12.38-3.7-11.36z" fill="#fdfefa"/><path d="m82.28 89.3s.09 1.08 2.52 2.87c1.6 1.18 3.73 1.52 3.73 1.52l-2.51 8.06-3.9-10.81s0-.38.05-.62c.09-.48.11-1.03.11-1.03z" fill="#dfd7c5"/><path d="m87.49 99.95s-2.61-10.5 6.06-15.44c6.59-3.75 12.49-.64 12.49-.64 1.72.96 4.72 5.52 4.99 10.99s-2.57 8.36-2.57 8.36z" fill="#c6e1a5"/><path d="m87.29 93.92s5.68 5.71 13.48 5.84c9.01.15 10.17-5.86 10.17-5.86s.97 5.68-3.05 10.96c-1.31 1.73-21.02 2.33-21.02 2.33s-.41-3.51-.18-6.02c.12-1.35.23-3.59.37-5.15.11-1.33.24-2.1.23-2.1z" fill="#a1c07d"/><path d="m90.65 105.29c.07-1.53-5.24-11.49-8.8-14.69-2.33-2.09-5.09-2.62-6.04-2.76-.5-.08-10.41 4.93-19.13 12.73-7.64 6.84-14.26 16.58-14.26 16.58l8.51 6.11 35.86-11.64s3.78-4.8 3.85-6.33z" fill="#9a9a9a"/><path d="m82.44 94.82-26.55 21.17s-1.96 2.98-2.84 4.29-1.6 3.13-1.6 3.13 12.22-.87 17.97-2.69 8.73-4 8.73-4l9.82-11.71s-1.89-5.53-5.53-10.19z" fill="#c7c7c7"/><path d="m77.78 89.95c-.49-.13-4.8 3.64-8.51 8-3.51 4.13-3.56 5.75-3.56 5.75l9.67 2.33s2.55-2.04 4.58-5.24c2.04-3.2 2.91-4.87 2.47-5.96s-2.98-4.44-4.66-4.87z" fill="#e0e0e0"/><path d="m75.82 87.84s-5.89-1.09-10.62.22-6.18 2.69-6.18 2.69-10.22 1.4-16.44 5.24c-10.62 6.55-9.6 15.06-9.6 15.06l3.09 1.55 8.98-2.49 3.13-2.84 10.91-1.38 4.95-6.47s2.11-3.2 5.24-5.96 6.55-5.6 6.55-5.6z" fill="#e0e0e0"/><path d="m35.28 116.11 11.84 4.69s3.08-4.46 4.38-5.77 4.46-4.54 4.46-4.54l-9.69-1.92s-4.85 2.92-6.54 3.69-4.46 3.85-4.45 3.85z" fill="#c7c7c7"/><path d="m32.39 123.14c3.98 1.05 10.14.83 13.33.83s5 .02 5.55-.32.54-1.3-.16-2-7.2-2.68-8.17-3.02-4.93-1.32-4.72-2.5 1.49-1.23 3.16-1.85 3.23-1.48 3.64-2.52.28-1.87-.83-2.01-14.37 3.61-15.97 4.44-3.54 3.19-3.54 3.96c0 1.31-.21 2.92 7.71 5z" fill="#824e3a"/><path d="m28.96 111.78c-4.54 2.73-4.28 6.37-4.28 6.37s4.33 2.72 10.54 3.55 16.36.76 16.36.76-.46-2.16-3.34-2.89c-2.64-.67-6.44-1.16-8.62-1.81s-3.8-1.76-3.71-2.92c.11-1.4 2.32-1.85 3.57-1.99s3.43-.56 4.22-1.67.49-1.43.49-1.43-6.33-.14-9.53.41c-3.2.56-4.27.76-5.7 1.62z" fill="#ba8d68"/><path d="m65.2 104.86-.51-4.22-7.64-3.42s-1.6.51-1.38 2.47 2.91 3.56 2.91 3.56l2.44.59-3.11.64-9.37-2.17s-2.33 0-2.33 1.82c0 1.03 1.75 2.18 1.75 2.18l13.53 3.49.78-5.65s2.93.71 2.93.71z" fill="#c7c7c7"/><path d="m73.33 117.02-2.39.9s-2.37.02-6.13-.07c-3.66-.08-6.32-.38-11.02-1.41-2.52-.55-5.29-2.2-5.15-2.83s.48-.93 1.35-.85 1.33.25 1.34-.1c.01-.4-3.69-1.33-4.94-2.24-1.17-.85-1.01-1.54-1.01-1.79 0-.55.84-.84.84-.84s-.65-.48-.49-1.38c.04-.22.33-.62.65-.73 1.56-.52 5.59.43 5.88.47.4.04.48-.36.07-.53-.38-.16-2.22-.84-3.37-1.37s-2.17-1.17-1.99-2.2c.03-.17.11-.82.71-.76 2.59.22 9.39 2.68 9.39 2.68s3.1-.42 3.22-.99-2.64-2.43-3.11-3.58-.63-1.69-.38-2.42c.31-.92 1.19-1.03 1.19-1.03l9.07 7.37 9.31 6.66z" fill="#824e3a"/><path d="m73.33 104.64s-2.29-2-5.95-3.77-6.49-3.25-7.85-4.01-1.57-1.2-1.91-.69.26 2.28 1.5 3.4 2.77 2.48 2.48 3.25-4.54-.18-7.38-.65c-2.83-.47-6.49-1.53-7.02-.71s.73 1.39 1.62 1.74 4.51 1.65 5.76 2.15c1.51.61 3.64 1.16 3.54 1.77-.07.42-3.3-.39-5.02-.77-.69-.15-2.64-.78-4.34-.96-1.27-.14-2.44-.02-2.81.6-.62 1.04 4.37 2.25 5.73 2.6s5.98 1.24 5.96 1.83c-.03 1.05-6.63-.91-7.87-1.27s-3.55-1.37-3.55-1.37-1.04.14-.79 1.07 3.01 1.73 4.84 2.37 6.96 1.65 7.03 2.02c.16.87-3.66.35-4.48.12s-2.88-.63-2.88-.63-.62-.14-1.03.3c-.23.25-.25.56-.25.56s5.24 1.51 8.65 1.97c8.59 1.15 16.36-.35 16.36-.35l2.29-6.64-2.61-3.95z" fill="#ba8d68"/><path d="m111.77 111.01s1.81-7.24-9.99-7.96c-9.48-.58-12.45 2.24-17.74 2.32s-10.71-.72-10.71-.72.18 1.5-.04 3.97c-.19 2.14-.58 3.37-.58 3.37l16.26 7.72 18.66-2.63s3.53-3.59 4.15-6.06z" fill="#583ee2"/><path d="m94.32 122.89c-9.48.22-16-3.04-18.32-3.91s-5.09-1.04-5.09-1.04.4-1.14.93-2.78c.41-1.29.87-3.18.87-3.18s3.73-.09 6.84.7c3.11.8 6.59 3.62 15.42 3.4s16.8-5.07 16.8-5.07-1.34 7.73-6.92 9.97c-5.57 2.24-10.53 1.9-10.53 1.9z" fill="#4b0fce"/></svg>