<svg enable-background="new 0 0 128 128" viewBox="0 0 128 128" xmlns="http://www.w3.org/2000/svg"><path d="m64.17 30s-7.92-1.56-13.58 1.98-12.88 12.45-17.97 16.98-25.19 11.6-27.6 23.35 2.34 22.43 12.59 33.25c10.19 10.75 25.05 15.99 34.53 13.16s14.58-16.56 22.5-24.2 14.05-12.31 17.67-19.72c4.35-8.91 1.73-14.66 1.73-14.66z" fill="#bbced4"/><path d="m75.07 45.71c-2.12-2.12-6.64-9.94-10.04-10.65s-10.81.17-16.85 6.12c-4.92 4.85-10.05 10.47-14.86 14.01s-13.98 8.41-16.7 10.47c-1.98 1.51-6.57 5.04-6.97 12.14-.32 5.59 1.7 13.45 11.36 23.8 9.84 10.55 20.1 12.4 26.22 11.95 8.58-.62 12.4-8.16 13.97-10.48 1.99-2.93 8.2-11.66 11.46-14.21 3.25-2.55 11.32-9.55 14.29-15.42 4.36-8.61 2.53-13.44 2.53-13.44z" fill="#f5f3e7"/><path d="m40.94 58.72c1.27 1.79 4.15 1.95 7.82-1.14 3.66-3.09 7.41-5.94 9.93-7.33 2.52-1.38 7.74-4.64 4.07-9.12-3.66-4.48-8.31-.33-10.42 1.79-2.12 2.12-4.7 6.21-7.17 9.12-2.28 2.69-6.02 4.16-4.23 6.68z" fill="#fff"/><path d="m70.31 20.37c-5.88 4.93-7.61 7.51-7.87 10.06-.25 2.55 2.04 10.71 11.05 20.73s18.1 15.04 21.84 14.45 6.18-3.38 9.62-6.89c1.43-1.46 5.64-6.11 5.81-8.41.17-2.29-1.49-11.17-10.03-20.95-10.21-11.71-18.33-13.48-20.44-13.63-3.76-.27-6.83 2.01-9.98 4.64z" fill="#37b4e5"/><g fill="#1e88fe"><path d="m78.08 20.3c-.13 4.61 3.56 12.28 10.44 19.77 8.42 9.16 13.6 11.77 17.58 12.69 2.03.47 3.89-.19 3.81-1.41s-1.15-.66-5.42-2.22c-1.97-.72-7.33-3.56-13.83-10.89-6.5-7.34-9.12-12.99-9.51-16.87-.4-3.95.73-4.53-.73-5.06-1.45-.55-2.26 1.24-2.34 3.99z"/><path d="m76.4 20.91c.69 1.44-1.99 3.75-4.28 5.96-2.76 2.67-4.73 4.56-5.66 3.29-.99-1.38 2.29-3.9 3.9-5.5 2.45-2.45 5.28-5.35 6.04-3.75z"/><path d="m73.63 34.34c-3.53 3.23-5.14 4.29-3.94 5.59 1.21 1.3 4.18-1.84 5.46-3.06 1.29-1.23 5.46-4.37 4.42-5.75-1.31-1.74-3.85 1.3-5.94 3.22z"/><path d="m80.55 43.67c-2.93 2.88-5.62 5.12-4.16 6.41 1.29 1.13 4.32-2.32 6.19-4.16s4.86-4.21 3.67-5.52c-1.38-1.53-3.42 1.03-5.7 3.27z"/><path d="m84.94 57.78c1.33 1.28 3.37-.96 5.72-3.44 2.16-2.28 5.11-4.22 3.68-5.68-1.33-1.36-3.85 1.42-5.88 3.36-2.35 2.25-4.78 4.57-3.52 5.76z"/><path d="m97.73 57.62c-3.25 3.25-4.68 4.43-3.31 5.49s4.06-2.31 5.93-3.93 3.99-3.49 2.81-4.62c-1.18-1.12-3.24.87-5.43 3.06z"/></g><path d="m121.48 19.8c2.53-2.45 4.34-7.76.33-11.31-3.39-3.01-8.55-2.09-11.25 1.13-2.67 3.2-2.4 5.82-5.37 6.39-3.2.61-6.58-3.17-14.13-1.8-2.71.49-5.23 2.56-7.07 4.54.31 1.28-.18 7.47 8.52 17.44 7.52 8.62 14.97 11.2 16.95 10.76 2.04-1.89 4.54-4.91 5.25-8.73 1.54-8.27-2.49-11-1.15-13.27 1.75-2.98 4.62-1.95 7.92-5.15z" fill="#ffa828"/><g fill="#ffcc8a"><path d="m111.5 14.71c1.31 1.73 3.29.39 4.82-1.25 1.23-1.33 2.92-2.76 2.02-3.84-1.28-1.54-3.51-.87-4.89.19-1.39 1.06-2.92 3.62-1.95 4.9z"/><path d="m90.22 19.25c-.54 2.81 3.33 3.26 4.93 3.46s5.25.34 5.39-2.2c.13-2.33-2.54-3.33-4.86-3.59-2.33-.26-5.06.27-5.46 2.33z"/></g></svg>