<svg enable-background="new 0 0 128 128" viewBox="0 0 128 128" xmlns="http://www.w3.org/2000/svg"><path d="m44.74 107.31s-.46 2.87-1.62 4.34-2.41 2.18-2.33 3.57 1.7 2.72 4.5 2.49 4.73-1.62 4.73-1.62-.47 4.31 2.1 4.73c2.87.46 5.9-3.57 5.9-3.57s1.62 6.75 5.27 6.75 4.73-6.52 4.73-6.52 3.41 3.88 6.44 3.26 2.18-4.27 2.18-4.27 2.72 1.78 5.59 1.55 4.19-1.16 4.27-2.25-1.62-2.02-2.49-3.65c-.95-1.81-1.87-4.96-1.87-4.96l-19.24 2.18-18.15-2.02z" fill="#9cecac"/><path d="m102.62 44.01s4.34-3.96 6.52-3.72 5.21 3.97 5.82 10.78c.77 8.76-5.12 11.94-3.65 13.58 1.47 1.63 5.43-1.55 7.76.31 2.33 1.87-.23 7.45-4.96 11.4-4.73 3.96-14.58 8.22-18.46 10.09-1.91.91-7.76 5.04-7.76 5.04s14.73-47.48 14.73-47.48z" fill="#63c776"/><path d="m39.2 91.44s-5.01-3.19-8.66-5.19-9.98-3.19-15.04-7.2c-5.28-4.19-8.48-11.21-7.11-12.95s8.11 1.45 8.57-.45c.45-1.92-4.18-6.89-4.83-11.12-.82-5.37 1.09-12.86 4.01-14.04s11.21 4.83 11.21 4.83l11.85 46.14z" fill="#63c776"/><path d="m60.65 26.24s-.29-2.65-.32-5.02c-.03-1.98.47-4.59-.94-5.48s-5.69.1-8.61 2.35c-2.39 1.83-5.01 4.83-5.01 4.83l3.33 9.47 11.57-6.16c-.01 0-.02.01-.02.01z" fill="#73dc86"/><path d="m65.74 26.33s.47-1.95.49-5.38c.02-2.85-.67-4.58 1.03-5.34s6.33 1.12 9.52 3.87 4.01 5.1 4.01 5.1l-3.3 8.78c.01 0-11.75-7.03-11.75-7.03z" fill="#73dc86"/><path d="m46.25 78.45-5.91-1.51-3.49 4.24 11.59 26.58 31.19-.84 11.66-29.76z" fill="#af0c1a"/><g fill="#f9f9fc"><path d="m47.38 101.55s1.43-5.53 2.88-5.61c1.67-.09 2.5 3.71 3.56 3.94s3.86-1.43 9.69-1.36c6.21.08 9.17 2.05 9.92 1.9s1.13-3.71 3.11-4.62c1.65-.76 3.41 6.29 3.41 6.29l-.6 7.19-31.27-.68-.68-7.04c-.01-.01-.02-.01-.02-.01z"/><path d="m68.43 87.31s1.36 7.87 3.86 8.02c1.21.08 2.41-2.14 3.11-4.39.78-2.52.91-5.14.91-5.14l-7.87 1.51z"/><path d="m54.04 85.34s-3.15-1.62-3.41-.83c-.45 1.36 1.06 9.17 3.63 10.3 1 .44 2.33-1.65 3.11-3.71.63-1.65.83-3.33.83-3.33s-4.16-2.43-4.16-2.43z"/></g><path d="m105.77 56.06-3.81-6.28-1.81-3.15 5.36-21.91s-1.32-1.02-4.33.52c-1.29.66-5.04 2.16-7.06 3.68-2.77 2.09-4.94 4.22-4.94 4.22l-12.85-1.62s-4.43-6.52-13.4-6.18c-8.95.34-13.07 6.33-13.07 6.33l-17.72-3.97s-5.84-5.13-9.79-4.84c-1 .07-1.37.75-1.53 1.16-.36.91 4.45 14.19 4.45 14.19l6.54 5.45-5.46.94-.99 4.55-.26 1.05-3.06 8.94 2.83 15.96 7.54 7.34s3.64 4.38 5.73 8.22 3.18 5.68 3.91 7.95c1.2 3.74 1.76 7.64 2.02 9.43.46 3.28 3.14 7.59 9.2 8.73 6.07 1.14 15.88.44 19.79-.09 3.91-.54 7.34-2.6 8.73-6.23 1.4-3.65 1.54-8.67 4.78-15 3.23-6.33 9.92-14.68 9.92-14.68l9.82-11.19-.54-13.54zm-20.45 31.33c-2.05 3.41-5.48 8.76-6.01 12.39-.34 2.36.14 4.73-2.32 6.16-4.31 2.5-8.4-.98-13.71-1.06-5.99-.09-9.74 2.44-12.56.83-3.33-1.9-2.28-3.41-2.88-6.14s-3.32-8.02-4.84-10.68c-1.51-2.65-5.5-9.03-2.95-9.85 3.28-1.04 5.66 1.16 7.49 3.05 1.68 1.73 4.12 6.06 9.88 6.06 4.56 0 5.35-3.97 6.42-3.97 1.06 0 2.03 4.4 6.73 4.02 4.69-.38 6.57-1.8 9.54-6.14 2.58-3.75 5.83-4.46 7.8-3.11 1.58 1.1-.53 4.99-2.58 8.4 0 .01-.01.04-.01.04z" fill="#06aa46"/><path d="m25.1 50.22s-8.1 3.57-7.09 15.58c.93 11.11 13.75 17.58 14.13 17.08.49-.66-7.34-10.18-8.05-19.59-.61-8.15 1.01-13.07 1.01-13.07z" fill="#2e5128"/><path d="m49.63 35.54s2.21-3.27.3-8.2-7.14-7.22-8.96-11.55-1.83-11.79-5.48-11.79-7.03 7.25-5.86 15.73c1.29 9.28 6.01 14.44 6.01 14.44l11.7 5.63 2.28-4.25s.01-.01.01-.01z" fill="#fdb20d"/><path d="m75.2 32.8s-.95-1.85.67-5.21 5.36-4.24 7.72-8.09c2.77-4.51 3.28-8.5 3.73-11.12s1.6-3.94 3.62-4.33c2.26-.44 3.97 2.73 4.73 6.33.75 3.61.72 9.76-.2 14.02-1.18 5.48-4.94 9.77-4.94 9.77l-10.54 4.51-4.77-5.88c0-.01-.02 0-.02 0z" fill="#fdb20d"/><path d="m52.39 41.05 4.03 10.52s.74 2.21.2 5.25c-.75 4.3-3.36 4.86-3.36 4.86l-3.95 3.53s-2.19 2.94-6.56 2.19-7.77-3.86-9.63-10.99c-2.05-7.85-5.81-10.52-5.81-10.52s-.54.75-.95 1.29-1.01 1.98-1.01 1.98-3.31-4.63-4.38-12.14c-.95-6.67-.41-12.63-.07-13.11s1.17.06 1.44.43c.83 1.11 2.61 4.3 3.65 6.98 1.32 3.4 2.39 7.01 2.39 7.01l12.24.67 11.74 2.05z" fill="#2e5128"/><path d="m100.13 32.82c2.46-4.98 4.76-8.09 5.37-8.09s1.22 1.37 1.29 2.4c.07 1.02-.31 8.05-1.26 11.6s-3.35 10.2-3.97 10.41c-.42-.65-.93-1.55-1.54-2.43-.48-.67-1.44-1.68-1.44-1.68s-2.8 2.72-3.99 5.97c-1.43 3.89-1.9 10.96-6.84 14.3-3.72 2.52-8.26 2.19-11.33-.34s-3.48-3.96-3.48-3.96-3.14-.21-3.28-5.81c-.08-3.47 1.92-6.76 1.92-6.76l7.17-8.53 12.63.07 3.77.09s2.53-2.24 4.98-7.22c0-.01 0-.02 0-.02z" fill="#2e5128"/><path d="m59.04 46.95s-1.13-8.42-6.75-13.32-8.58-4.16-9.62-3.28c-.77.65-.56 2.24-.71 2.09-.71-.65-5.95-4.3-8.36-1.31-1.25 1.55-.3 3.82-.3 3.82s-7.11-.3-7.52 4.06c-.31 3.27 3.94 3.7 3.94 3.7l3.23-2.63 15.76-.12s10.33 6.99 10.33 6.99z" fill="#728035"/><path d="m67.46 48.98c-.36-2.51-.18-9.08 4.12-13.92 4.35-4.89 6.79-4.2 7.7-3.76 1.49.71 1.49 2.61 1.73 2.67s3.57-6.7 8.13-5.19c2.21.73.43 4.97 1.08 5.01.84.05 4.19-3.68 7.14-2.14 2.42 1.27.33 6.07.33 6.07l-16.26 1.51z" fill="#728035"/><path d="m91.4 51.44c.17 1.1-.49 9.62-5.58 12.68-3.58 2.16-10.36 2.88-12.97-2.79-2.79-6.07.59-13.5 6.28-15.48 8.99-3.14 12.06 4.18 12.27 5.58.01 0 0 .01 0 .01z" fill="#9cecac"/><path d="m34.37 51.44c-.17 1.1.7 8.99 5.86 12.61 3.43 2.41 10.43 3.3 13.04-2.37 2.79-6.07-.52-14.05-6.21-16.03-9-3.13-12.49 4.4-12.69 5.79z" fill="#9cecac"/><path d="m45.39 71.45s2.03-7.81 8.99-7.67 7.11 3.35 9.49 3.35 4.13-3.77 9.42-3.35c6.97.56 8.02 8.22 8.02 8.22l-17.92 4.46-17.99-5.02s-.01.01-.01.01z" fill="#5edf70"/><path d="m63.79 72.94c-.66 0-4.1-5.81-9.92-5.97-5.58-.15-7.96 3.98-7.96 3.98s-8.31-1.11-12.45 6.23c-5.07 8.99.2 17.38 1.69 23.43 2.12 8.54-3.38 11.85-8.71 11.97-5.15.12-8.09-3.27-8.52-6.6-.49-3.76 2.23-7.44 8.58-5.81 1.72.44 1.95-.89.89-2.1-2.56-2.94-13.41-3.03-13.18 7.62.11 5.34 3.4 8.86 8.26 10.23 4.85 1.36 11.05.54 14.97-4.52 3.24-4.17 2.18-9.55.88-13.86-1.76-5.88-4.71-11.33-1.64-17.68 2.7-5.58 9.21-4.07 9.21-4.07s3.53 6.96 8.55 8.53c6.28 1.97 9.19-1.71 9.19-1.71s2.92 3.76 9.52 1.65c5.34-1.7 8.16-8.82 8.16-8.82s7.66-.77 10.51 4.83c4.54 8.96-6.19 17.02-3.94 28.39 1.39 7.04 9.42 10.2 15.72 8.57 6.37-1.63 10.65-8.31 8.41-14.86-2.62-7.66-10.65-5.28-12.21-2.28-.95 1.83.43 2.34 1.35 1.59s7.34-3.57 8.04 3.5c.31 3.07-2.59 7.71-6.76 8.78-4.62 1.18-10.32-2.05-10.8-6.49-.99-9.29 5.71-14.33 5.21-22.49-.97-16.18-15.84-13.92-15.84-13.92s-2.58-4.07-8.22-3.82c-5.66.25-8.17 5.67-8.99 5.66z" fill="#bcce45"/><path d="m43.21 48.95c-2.11 1.99-2.6 6.06-1.42 9.93.85 2.8 3.04 4.57 4.93 2.87s2.4-6.91 1.45-10.3c-.81-2.83-3.07-4.28-4.96-2.5z" fill="#272c34"/><path d="m79.45 48.95c-2.11 1.99-2.6 6.06-1.42 9.93.85 2.8 3.04 4.57 4.93 2.87s2.4-6.91 1.45-10.3c-.81-2.83-3.07-4.28-4.96-2.5z" fill="#272c34"/><path d="m69.71 80.07c2.26.96 2.74-1.44 4.87-3.75 2.77-2.98 4.1-4.78 1.83-5.95s-5.14.21-6.81 3c-1.09 1.84-1.43 6.04.11 6.7z" fill="#2f502a"/><path d="m50.26 70.63c-.97 2.04.91 2.84 3.06 5.36s2.52 4 4.23 3.7c1.83-.32 2.2-5.2-.43-8.2-2.34-2.66-6.27-2.08-6.86-.86z" fill="#2f502a"/><path d="m44.77 41.63c4.78.99 8.83 4.71 9.85 7.28.66 1.66 1.25 3.11 2.87 2.99 2.16-.16 1.79-3.88 1.55-4.95s-2.91-7.04-6.33-10.15c-3.34-3.05-6.89-4.88-8.12-4.12s-.6 2.33-.95 2.63-5.98-4.71-8.12-2.57c-1.73 1.73 1.55 4.65 1.25 5.07s-6.75-2.33-8.77.95c-1.29 2.09 1.73 3.94 1.73 3.94s6.08-2.92 15.04-1.07z" fill="#bdcd43"/><path d="m68.77 51.42c-1.55-.29-2.31-4.17.65-10.45 2.57-5.43 6.34-6.7 7.52-6.57 3.23.36 2.21 3.34 3.82 2.93 2.5-.65 3.33-6.45 6.33-5.74 2.49.59-.15 4.74 1.19 5.25.99.38 2.25-1.13 3.58-2.03 1.68-1.13 3.54-1.83 5.37-1.19 3.07 1.06-1.25 7.58-1.92 7.7s-8-1.92-14.15.18c-5.59 1.9-7.76 5.19-9.14 7.05-.91 1.22-1.07 3.28-3.28 2.87.02.01.03 0 .03 0z" fill="#bdcd43"/><path d="m101.87 49.64s2.41 5.27 1.72 13.2c-.3 3.54-1.12 6.92-2.33 9.56-2.03 4.46-4.78 8.4-4.78 8.4s12.85-5.32 13.11-18.16c.2-10.04-7.73-13-7.73-13s.01 0 .01 0z" fill="#2e5128"/></svg>