<svg enable-background="new 0 0 128 128" viewBox="0 0 128 128" xmlns="http://www.w3.org/2000/svg" xmlns:xlink="http://www.w3.org/1999/xlink"><radialGradient id="a" cx="91.47" cy="109.1" gradientTransform="matrix(.9388 .3444 .1982 -.5403 -16.03 46.35)" gradientUnits="userSpaceOnUse" r="25.06"><stop offset=".5617" stop-color="#6d4c41" stop-opacity="0"/><stop offset="1" stop-color="#6d4c41"/></radialGradient><radialGradient id="b" cx="416.33" cy="932.16" gradientTransform="matrix(.7245 -.6893 -.8884 -.9338 603.61 1176.49)" gradientUnits="userSpaceOnUse" r="13.2"><stop offset=".5795" stop-color="#6d4c41" stop-opacity="0"/><stop offset="1" stop-color="#6d4c41"/></radialGradient><radialGradient id="c" cx="426.92" cy="920.4" gradientTransform="matrix(-.6233 .782 1.198 .9548 -743.76 -1191.29)" gradientUnits="userSpaceOnUse" r="12.66"><stop offset="0" stop-color="#6d4c41"/><stop offset=".5264" stop-color="#6d4c41" stop-opacity="0"/></radialGradient><linearGradient id="d"><stop offset=".5979" stop-color="#ba8d68"/><stop offset="1" stop-color="#a47b62"/></linearGradient><linearGradient id="e" gradientTransform="matrix(1 0 0 -1 0 128)" gradientUnits="userSpaceOnUse" x1="40.4" x2="52.15" xlink:href="#d" y1="78.95" y2="78.95"/><radialGradient id="f" cx="58.55" cy="41.92" gradientTransform="matrix(.9985 .0543 .0543 -.9985 -.93 54.47)" gradientUnits="userSpaceOnUse" r="12.71"><stop offset=".5264" stop-color="#6d4c41" stop-opacity="0"/><stop offset="1" stop-color="#6d4c41"/></radialGradient><linearGradient id="g" gradientTransform="matrix(.9625 .2714 .2714 -.9625 125.35 -228.69)" gradientUnits="userSpaceOnUse" x1="5.48" x2="32.06" y1="-286.84" y2="-286.84"><stop offset="0" stop-color="#651fff"/><stop offset=".7047" stop-color="#5914f2"/><stop offset="1" stop-color="#530eeb"/></linearGradient><linearGradient id="h" gradientTransform="matrix(1 0 0 -1 0 128)" gradientUnits="userSpaceOnUse" x1="68" x2="74.56" xlink:href="#d" y1="61.1" y2="80.78"/><linearGradient id="i" gradientTransform="matrix(1 0 0 -1 0 128)" gradientUnits="userSpaceOnUse" x1="71.7" x2="78.26" xlink:href="#d" y1="59.87" y2="79.54"/><linearGradient id="j"><stop offset=".5" stop-color="#ba8d68"/><stop offset="1" stop-color="#a47b62"/></linearGradient><linearGradient id="k" gradientTransform="matrix(-.7037 .7105 -.7105 -.7037 2023.71 -704.48)" gradientUnits="userSpaceOnUse" x1="1928.84" x2="1931.69" xlink:href="#j" y1="888.07" y2="888.07"/><linearGradient id="l" gradientTransform="matrix(.6649 -.7469 -.7469 -.6649 180.75 1207.87)" gradientUnits="userSpaceOnUse" x1="769.99" x2="779.39" y1="881.72" y2="881.72"><stop offset="0" stop-color="#a47b62"/><stop offset=".1375" stop-color="#ba8d68"/><stop offset=".831" stop-color="#ba8d68"/></linearGradient><linearGradient id="m" gradientTransform="matrix(-.7195 .6945 -.6945 -.7195 2024.78 -702.1)" gradientUnits="userSpaceOnUse" x1="1945.17" x2="1947.89" xlink:href="#j" y1="847.05" y2="847.05"/><linearGradient id="n" gradientTransform="matrix(-.7037 .7105 -.7105 -.7037 2023.71 -704.48)" gradientUnits="userSpaceOnUse" x1="1927.8" x2="1927" xlink:href="#j" y1="886.9" y2="880.72"/><radialGradient id="o" cx="37.34" cy="84.46" gradientTransform="matrix(1 0 0 -1 0 128)" gradientUnits="userSpaceOnUse" r="3.11"><stop offset="0" stop-color="#a47b62"/><stop offset="1" stop-color="#ba8d68"/></radialGradient><path d="m87.41 21.45c-4.51-5.82-4.06-11.98-11.32-13.34-4.79-.9-8.55 4.27-8.46 6.08.16 3.49 3.39 3.31 4.91 3.85 0 0 1.31 6.32 8.88 9.76 11.87 5.39 16.94-.3 16.94-.3s-6.61-.45-10.95-6.05z" fill="#543930"/><path d="m87.41 21.45c-4.51-5.82-3.89-11.9-11.32-13.34-4.72-.91-8.55 4.27-8.46 6.08.16 3.49 3.39 3.31 4.91 3.85 0 0 1.31 6.32 8.88 9.76 11.87 5.39 16.94-.3 16.94-.3s-6.61-.45-10.95-6.05z" fill="url(#a)"/><path d="m85.6 18.42c-2.69-4.84-3.45-9.18-9.51-10.31-4.79-.9-8.47 4.13-8.39 5.94 0 0 2.53-3.26 8.4-1.86 5.86 1.4 9.5 6.23 9.5 6.23z" fill="url(#b)"/><path d="m87.41 21.45c-1.13-1.45-2.02-3.06-2.83-4.71-.72-1.46-1.27-2.76-2.98-3.22-2.71-.73-6.47 2.74-5.89 6.11.36 2.08 3.01 6.14 10.5 9.1 8.1 3.2 12.14-1.24 12.14-1.24s-6.6-.44-10.94-6.04z" fill="url(#c)"/><path d="m98.86 82.64-18.57 3.71-5.17-17.87-12.43 8.33 9.06 18.2.04-.03c.72 1.29 1.94 2.32 3.49 2.8.45.14.9.22 1.36.25v.02l.15-.01c.56.03 1.11-.01 1.64-.12l22.92-8.71z" fill="#616161"/><path d="m102.84 78.83c-.32-.54-1.01-.71-1.55-.39l-2.37 1.42c-1.61.96-2.48 3.69-2.48 3.69l3.52 5.91 4.93 4.28c1.27.99 3.02 1.1 4.41.29l1.07-.63c.47-.28.63-.89.35-1.36z" fill="#325599"/><path d="m44.86 113.8 11.41-21.8s14.21-11.76 15.45-12.59c4.63-3.1 5.55-7.41 5.09-10.54-.36-2.43-1.97-5.66-1.97-5.66l-18.65 5.56.88 3.42s-5.71 7.38-7.04 8.92-3.61 3.69-5.38 9.76c-1.87 6.4-6.56 21.83-6.56 21.83z" fill="#7c7c7c"/><path d="m44.85 120.59c.62.1 1.2-.32 1.3-.93l.44-2.73c.31-1.85-1.22-4.27-1.22-4.27l-6.79-1.12-6.45 1.01c-1.58.34-2.79 1.6-3.06 3.19l-.21 1.23c-.09.54.27 1.05.81 1.14z" fill="#4568ad"/><path d="m70.54 13.01c-2.25-4.27-7.75-7.85-12.56-7.4-5.38.5-8.51 4.13-9.6 8.93-.4 1.74-.47 3.5-.26 4.76.03.15.24 1.25.24 1.6.11 1.32-2.52 2.45-2.92 3.87-.3 1.07 1.92 1.92 2.08 2.13.82 1.04-.91 5.55 5.28 6.49 2.09.31 2.25.13 2.98.29 1.91.42 2.85 4.69 2.85 4.69s.88 4.24 5.08 3.26c4.8-1.12 3.68-5.44 3.68-5.44s-3.18-4.75.03-9.64c2.47-3.73 4.57-10.79 3.12-13.54z" fill="#ba8d68"/><path d="m47.99 29.55c.86.11 1.73-.03 2.49-.52.84-.53.34-1.24-.6-.91-.57.2-1.36.26-2.06.08z" fill="#5d4037"/><ellipse cx="52.17" cy="21.9" fill="#49362e" rx="1.76" ry="1.14" transform="matrix(.0384 -.9993 .9993 .0384 28.29 73.19)"/><path d="m50.06 49.02-8.96-6.82-4.36 4.66 9.04 8.76.01-.01c1.77 1.85 5.92 3.11 9.37-.03 3.28-2.99 7.33-9.36 7.33-9.36l-7.01-5.62z" fill="url(#e)"/><path d="m51.54 19.45c-1.1.36-1.39-.36-1.03-.97.26-.44.92-.83 2.23-.62 1.23.2 1.76.89 2.1 1.31s.32.85.04.89c-.38.08-1.97-1.05-3.34-.61z" fill="#613e31"/><path d="m71.13 9.32c-2.21-3-5.95-5.05-10.02-5.46-3.54-.37-8.44.24-11.59 3.03-1.89 1.68-3.09 3.96-2.93 6.57.09 1.57 1.33 2.44 1.33 2.44s1.67-3.47 5.24-2.38c3.75 1.15 5.45.47 5.45.47-1.44 2.95-.41 4.67.53 5.67.54.57 1.03 1.24 1.31 1.63.14.2.28.2.35 0 .17-.48.5-1.34.73-1.75.78-1.35 1.88-.8 1.89-.79 1.51.62 1.88 3.81-.74 5.52-.06.04-.24.15-.16.47.82 3.25 4.6 3.58 4.84 3.47h.01c.02-.01.04-.02.06-.03.52-.2.84-.61.96-1.19.43-2.11 1.39-2.67 2.11-3.56.83-1.02 1.77-2.18 2.45-5.5.65-3.14.02-6.11-1.82-8.61z" fill="#543930"/><path d="m71.13 9.32c-2.21-3-5.95-5.05-10.02-5.46-3.54-.37-8.44.24-11.59 3.03-1.89 1.68-3.09 3.96-2.93 6.57.09 1.57 1.33 2.44 1.33 2.44s1.67-3.47 5.24-2.38c3.75 1.15 5.45.47 5.45.47-1.44 2.95-.41 4.67.53 5.67.54.57 1.03 1.24 1.31 1.63.14.2.28.2.35 0 .17-.48.5-1.34.73-1.75.78-1.35 1.88-.8 1.89-.79 1.51.62 1.88 3.81-.74 5.52-.06.04-.24.15-.16.47.82 3.25 4.6 3.58 4.84 3.47h.01c.02-.01.04-.02.06-.03.52-.2.84-.61.96-1.19.43-2.11 1.39-2.67 2.11-3.56.83-1.02 1.77-2.18 2.45-5.5.65-3.14.02-6.11-1.82-8.61z" fill="url(#f)"/><path d="m50.27 44.94c2.57 7.19 8.87 7.41 8.87 7.41l5.02-8.6c1.35-2.31.57-5.29-1.74-6.64l-.83-.49c-2.31-1.35-4.27-.69-7.38 3.85-2.79 4.09-3.94 4.47-3.94 4.47z" fill="#3615af"/><path d="m56.19 68.76c-2.48-9.84-2.94-16.75-2.38-22.29.72-6.98 4.05-11.15 7.79-12.47 4.62-1.63 7.82.72 9.11 4.9.88 2.85.71 5.04.64 6.4 0 0-.64 7.47 5.3 16.82 0 0-.57 4.06-10.05 6.29-4.22.99-10.41.35-10.41.35z" fill="url(#g)"/><path d="m71.46 59.61s-4.34-2.16-4.39-2.18c-.55-.29-1.23-.09-1.52.46l-.93 1.74c-.15.29-.16.61-.06.9-.5.29-1.73 1.05-1.99 1.56-.3.58.04 1.19.36 1.33.37.16.54.68.43 1.07-.12.4-.11.81.08 1.14s.43.46.89.55c.22.04.45.32.45.54-.01.34-.01.93.16 1.15.34.45.9.31 1.19.64.11.13.12.7.35.91.68.64 2.89-.54 2.89-.54l4.22-3.91z" fill="#91674d"/><path d="m70.06 58.93 2.67.75 1.83 5.05s-5.71 5.62-6.68 4.05c-.31-.49.26-1.02-.57-1.33-.59-.22-1.03-.5-.86-1.41.07-.34-.2-.76-.44-.79-1.08-.13-1.36-.73-1.04-1.49.18-.42.14-1.13-.47-1.45-.22-.12-.53-.61-.39-1.31.23-1.09 5.95-2.07 5.95-2.07z" fill="url(#h)"/><path d="m73.73 65.36 9.89-6.67v-.01c1.19-1.18 1.61-2 1.85-2.99.76-3.1-1.26-5.26-1.26-5.26l-9.15-10.23-5.64 5.83 8.04 8.04-6.01 5.55z" fill="url(#i)"/><path d="m73.93 52.01s6.06-5.99 5.9-10.6c0 0-2.89-.01-7.19-3.26-2.71-2.04-6.31-2.21-7.76.17-1.29 2.1-1.08 4.69 1.4 7.66 1.86 2.21 7.65 6.03 7.65 6.03z" fill="#3615af"/><path d="m36.29 43.39-.03.02c-.43.54-1.17.69-1.65.32l-1.95-1.47c-.48-.36-.52-1.1-.09-1.64s1.17-.69 1.65-.32l1.95 1.47c.49.37.56 1.08.12 1.62z" fill="url(#k)"/><path d="m37.93 37.24c.03.02.04.04.04.04.89.95 1.68 1.74 2.02 1.95.9.57 1.74 1.29 2.26 2.3.97 1.89-.27 3.75-1.72 5.12-1.44 1.38-2.35 1.68-3.92 1.42-1.28-.21-3.99-3.08-3.99-3.08-.28-.33-.6-.67-.92-.99-.12-.12-.25-.24-.37-.37l-.01-.01c-.37-.36-.42-.84-.01-1.34.54-.66 1.07-.32 1.13-.27 0 0 .01.01.01.01.25.23.52.54.72.69.58.43.9.51.9.51l2.74-3.48-.93-1.24s-.01-.02-.04-.05c-.1-.16-.49-.73.25-1.4.82-.7 1.67.03 1.84.19z" fill="url(#l)"/><path d="m37.84 41.96c-.48.51-1.23.59-1.68.19l-2.07-1.85c-.45-.4-.43-1.14.05-1.65s1.23-.59 1.68-.19l2.07 1.85c.44.41.42 1.14-.05 1.65z" fill="url(#m)"/><path d="m35.15 42.26c.45-.65 1-1.45 1.61-2.14.09-.1.17-.19.26-.28.84-.87 1.94-1.02 3.32-.27.05.03.09.05.14.08.08.05.16.1.25.15 0 0 .01.01.01.01.12.08.24.16.36.25.41.3.72.67.91 1.03.76 1.21.54 2.36.54 2.36s-.88 2.68-2.18 2.21-1.97-2.32-1.97-2.32l.34-1.34c-.39-.04-.73.13-1.19.65-.15.17-.32.38-.52.63-.02.03-.27.34-.29.36-.3.33-.64.49-1.05.46-.53-.03-.98-.54-1.23-.74.19-.24.44-.75.69-1.1z" fill="url(#n)"/><path d="m34.56 45.35 1.62-1.33.86-.98 1.12-.98.39.17-.24 1.28.84 1.26.53.45-2.75 1.95z" fill="url(#o)"/><path d="m34.67 44.62c-.03.62-.63.96-.59.97.17.07 1.01-.14 1.94-1.18.72-.81 1.41-1.86 2.25-2.11-.29 1.42.34 2.51 1.5 2.94-.89-.83-1.61-2.23-.8-3.35-.66-.4-1.43.26-1.82.74-.45.54-.85 1.38-1.68 1.27-.57-.07-.78-.43-.58-.97.5-1.32 1.67-2.67 2.87-3.42.44-.27 1.34-.34 2.5-.11-.85-.66-2.3-.45-2.85-.19-.47.22-.35.13-.77-.14-.21-.14-.42-.28-.62-.41.17.28.47.62.52.95.06.41-.33.76-.57 1.05-.62.74-1.16.1-1.8-.3.43.51.53.67.75 1.03.29.49-.15.89-.47 1.27-.65.78-1.99-.81-2.08-.71-.1.12 2.33 1.99 2.3 2.67z" fill="#91674d"/></svg>