<svg enable-background="new 0 0 128 128" viewBox="0 0 128 128" xmlns="http://www.w3.org/2000/svg"><path d="m31.2 27.1c-2.9 10.8-1.5 17.9-1.5 17.9s-7 5.7-6.1 14.8c.9 8.8 6.9 10.2 6.8 14.2s-3.9 4.5-3.8 6.2 1.8 3.2 3.9 4.2c3.1 1.5 5.8.6 5.8.6s2.6 3.4 8.4 4.8c6.3 1.4 9.4-1.6 9.4-1.6l10.3-5.8s8.2 7.5 17.9 7.7 11.3-2.5 11.3-3.1-2.1-3.9-2.1-3.9 4.1 1.6 7 .5c3.8-1.4 4.1-4.7 3.6-5.7s-4.6-1.8-4.1-6.2c.7-6.8 4.4-6.7 4.7-15.4.6-14.9-11.3-21.3-11.3-21.3s-10.3-12-25.7-15.2-33.4 3-34.6 7.1v.2z" fill="#543930"/><path d="m63.3 91.7s-17.2-1.4-29.1 6.9c-8.5 6-12.2 11.2-12.2 11.2l30 13.8h41.9s14.7 0 14.9-1.4-5.3-12.1-13.1-19.8-18.4-10.1-18.4-10.1l-13.9-.7z" fill="#e0e0e0"/><path d="m9.1 122.8s-9.4-14.4-.6-22.7 27.4 2.2 35.1 10.2c6.8 7.1 9.2 13 8.5 13.3s-41.6-.7-43-.8z" fill="#f2a259"/><path d="m45.6 120.8-1-.6s-2.8-.6-4.2 1.5c-.6.9-.4 2-.4 2h2c.3 0 3.6-2.9 3.6-2.9z" fill="#e07f14"/><path d="m43.7 120.1c4-.2 4.8 3.6 4.8 3.6h-6.5c0-.2-.7-3.4 1.7-3.6z" fill="#ffed5a"/><path d="m22.2 107.3-9.4-4.1s-2.5 2-.8 4.5c.7 1.1 2.9 1.8 4.1 2.6s3.1 2.1 5 2.1c2.9 0 3.5-3.6 3.5-3.6z" fill="#c62727"/><path d="m12.4 105.6c.8 1.3 3.3 1.8 4.8 2.5 2.5 1.1 5.5 4.8 7.1 1.7s-1.8-5.4-4.2-6.7-4.4-1.2-5.8-.7c-2.7.9-2.2 2.7-1.9 3.2z" fill="#f44236"/><path d="m13.6 115.4s-2.8 1.6-1.3 4.8c1 2.1 2.3 2.8 2.3 2.8l4.7.2s-5.7-7.8-5.7-7.8z" fill="#00579c"/><path d="m24.6 123.4s0-3.6-4-6.4c-4.4-2.9-6.2-2.1-7-1.6s-1.2 2.7 1.7 5.6c2.2 2.2 4 2.2 4 2.2s5.3.2 5.3.2z" fill="#2885c6"/><path d="m71.7 116.6v7.1h3.5v-6.4z" fill="#b0b0b0"/><path d="m40.6 96.2-.3-4.7s1.6-1.1 3.6-1.7c2.5-.7 3.2-.7 3.2-.7s1.2-3.2 5.4-3.8c3.8-.5 25.2 1.6 25.2 1.6s10.3 3.5 9.7 8.7c-.5 4.2-4.7 4-4.7 4l.5.4 7.9 15.2s-1.1.4-5.3-1.7-7.7-3.5-7.7-3.5l-1.1 9.2-6.6-5.4-2.2-7.4s.8-2.3 1.9-3.3-5.5-2.2-5.5-2.2l-24.1-4.5v-.2z" fill="#007d33"/><g fill="#99674f"><path d="m52.2 90.5s2 4.7 11.8 4.8c8.8 0 10.1-3.7 10.1-3.7v-4.7h-21.8v3.6z"/><path d="m32.5 54.2s-6 1-4.5 9c1.7 9.6 10.8 7.1 10.8 7.1l-4.4-5.5s-.9-2.8-1.3-5.7-.5-4.9-.5-4.9z"/><path d="m94.4 54.9c1-.4 5.5.4 5 7.3-.6 8.7-6.4 8.9-7.9 8.9s-4.7-3.9-4.7-3.9 2 0 4.1-1.2 2.4-1.9 2.5-2.3c.6-1.5 1-8.7 1-8.7z"/></g><path d="m37.9 45.5c-.9 1-.6 17.8-1.7 19-.9 1-1.9 0-1.9 0s4 24.2 28.1 25.4c19.7.7 30.2-15.3 31-26.2 0 .2-.4 1-1.3.9-.6 0-1.1 0-1.4-1.6-.3-1.7-.2-16.4-6.1-23.4-4.4-5.2-10.4-7.4-14.3-7.1-9.7.7-11.5 2.8-20.3 8.1-5.1 3.1-12.1 4.9-12.1 4.9z" fill="#ba8d68"/><path d="m59.3 64.6c-.8 1 .2 2.1 1.3 3 1.8 1.5 4.2 1.5 5.8.2s2.3-2.6 1.4-3.4-2.2 0-4.1 0-3.6-.8-4.4.2z" fill="#99674f"/><path d="m64.1 73.7c-4.7 0-8.2-2-9-.7-.4.6-.3 1.8 1 2.8 1.5 1.3 4.3 2.4 7.8 2.4 7.4 0 10-4.1 8.9-5.3s-4 .8-8.7.8z" fill="#49352e"/><path d="m42.4 48.4c1.2 0 3.2-1.1 6-1.2 3.2 0 6 2.1 6.6 0 .8-2.3-1.8-3.4-6.5-3.2-3.6.2-6.2 1.5-7 2.6s.4 1.7.9 1.7z" fill="#613e31"/><path d="m73.6 47.9c.7-.2 2.4-.7 4.7-.5 3.1.2 6.1 1.5 6.9.5.9-1-1.4-3.4-6.4-3.9-4.6-.4-7.2.6-7.6 1.6-.7 1.6.8 2.7 2.4 2.3z" fill="#613e31"/><path d="m48.4 51c-3.7 0-5.2 3.2-4.9 5.4s1.9 4.4 5.2 4.4 4.8-2.1 4.8-4.8-1.7-4.9-5.1-5z" fill="#49352e"/><path d="m78.5 50.9c-2.8-.3-5.3 1.7-5.2 5 0 3.7 3.4 4.9 5.2 4.9 2.6 0 4.6-1.9 4.7-4.6 0-3-1.5-4.9-4.6-5.3z" fill="#49352e"/><path d="m61.4 106.3c-2.7.2-3.3 2.1-3.2 3.7s1.7 3.1 3.4 3.1 3.7-1 3.7-3.2-1.2-3.8-3.8-3.6z" fill="#9a9a9a"/><g fill="#02ab47"><path d="m68.2 106.4s-1.7 3.8 0 6.9 8 6.6 9 7.3 2 .4 2.3-1-.2-6.4-.3-7.8-1.6-4.2-2.5-4.2 1 8-1.8 7.8c-1.9 0-1.7-3.5-2.9-5.4-1.8-2.7-3.8-3.6-3.8-3.6z"/><path d="m81.8 104.5s3.2 3.7 5.1 5.7 4.2 5 4.2 5 .8-.2.7-2.7 0-6.1-3.3-9.8c-2.7-3-5.8-3.1-5.8-3.1s.2 1.2 0 2.2-.9 2.7-.9 2.7z"/><path d="m67.9 98.7s.3-2.9.7-3.8 1.3-1.8 2.9-1.8 6.9 1 7.3 6c0 .7-.4 4.1-2.3 5.5s-4.7.7-5.8.2-2-1.2-3.2-1.4-14.2-.3-22.4-2.7-7.4-5.4-7-6.4c.8-2.1 2.3-2.9 2.3-2.9s3.2 3.7 9.3 5.3c8.4 2.1 18.2 1.9 18.2 1.9z"/></g><path d="m99.9 103s-2.2 3.9-4 9.3c-2.4 7.1-3.2 11.4-3.2 11.4s3.3.3 5.7.3c4.4 0 6.7-.8 6.7-.8s2.1-3.5 3.4-7.8 2.3-8.1 2.3-8.1l-8.9-4.7-1.9.2v.2z" fill="#1465c0"/><path d="m106.5 88.3s-1.4.6-2.8 4.1c-.6 1.7-1.3 4-1.3 4s-1.4.8-2.2 2.8-.4 3.9-.4 3.9 1.4 1.3 5 2.7 5.9 1.6 5.9 1.6 1.3-.7 2.3-3.7c.6-1.7.2-3.7.2-3.7s.9-1.9 1.5-3.3 1.7-4.4 1.5-4.9-9.9-3.3-9.9-3.3.2-.2.2-.2z" fill="#bdbdbd"/><path d="m111.6 75.8-4.8 2.9s-6.1 8.5 3.3 12.6c11.5 5 13.4-6.7 13.2-10.3v-3.6l-3.1-6.1-8.5 4.5z" fill="#c67100"/><path d="m109.5 75.9s-2.1 1.8-2.7 2.8c-.5.8-.9 7 4.5 8.9 5.8 2.1 8.6-2.2 8.7-3.7s0-8.6-.2-10.7-10.3 2.7-10.3 2.7z" fill="#f09300"/><path d="m114.5 77.3s-3 4.1-1.4 5 6.2-8.2 6.2-8.2z" fill="#c67100"/><path d="m116.7 65.1c-2.4 0-1 2.9-2.8 5.3s-4 2.3-5.1 4.1-.8 3.2 1.1 3.8 4.4 0 6.2-1.1 2.1-2.3 3.7-2 3.5 2.2 3.5 2.2.5-4.7-1.8-8.2c-.9-1.4-3.1-4.2-4.8-4.1z" fill="#2a85c6"/><path d="m108.4 93.8c.3-.7.9-2.8-.2-3.2s-2.1.9-2.6 2.1-.7 1.9-.6 2.7 1.3 1 1.8.6 1.3-1.5 1.6-2.2z" fill="#eee"/><path d="m104.8 101c-1.4-.7-3.1-1.8-3.6-.4-.5 1.2.8 1.8 2.6 2.6s3.3 1 3.6.3-1.5-1.9-2.6-2.5z" fill="#eee"/><path d="m104.9 100.1c.9.6 2.1 1.1 3.5 1.6 3.5 1.3 4.8 1.4 4.8 1.4s.3-.9.2-1.9-.2-1.2-.2-1.2-1.6 0-4.4-1-5.3-1.9-5.6-1.1.9 1.8 1.7 2.2z" fill="#9e9e9e"/><path d="m100.3 107.4c-.6.6-1.3 2-2.2 4.7-1.4 4.2-2.2 6.6-1.2 6.9s1.6-.3 3.5-5.9c1-2.9 1.4-4.5 1.3-5.3 0-1.2-1-.8-1.4-.4z" fill="#2096f3"/><g fill="#fff"><path d="m13.2 105c.3.4 1.4 0 2.3-.4 1.4-.6 2.2-.6 2-1.4s-1.6-.7-2.7-.2c-1.6.6-1.9 1.6-1.6 2z"/><path d="m16.2 117.9c1.1 0 1.8-.3 1.7-1.2s-1-.9-2.1-.9-1.8 0-1.8 1.1 1.6 1 2.2 1z"/><path d="m44.9 122.7c1.1.2 1.5 0 1.5-.6s-.5-1-1.1-1.1-1.2 0-1.5.5 0 1 1.1 1.2z"/></g><path d="m78 27-20.4 6.7s11.3 0 21.2 1.3c9.3 1.2 14.7 4.9 17.1 4.9s2.9-2.1 3.4-4.5c.5-2.5 1.2-6 1.2-6l-22.5-2.5s0 .1 0 0z" fill="#373c3f"/><path d="m46.6 27.6-22 7.2s.2 2.4 1.4 4.3c1.3 1.9 3.4 2.5 3.4 2.5s10.3-3.8 19.8-6c9.1-2 13.3-2.6 17.4-3.5 5.3-1.2 12.5-2.3 19.3-2.5s14.6-.2 14.6-.2.8-3.3.6-7-54.6 5.2-54.6 5.2.1 0 .1 0z" fill="#2f2f2f"/><path d="m24.2 24.4-11.5 2.4s-2.3 7.2 11.5 8.3 28.2-2.8 34.1-4.8 8.6-4 18.8-5c6.3-.6 19.7.6 24.4-1.6 3.4-1.5 4.4-5.8 4.4-8.9s-1.1-5-1.1-5l-49.6 4.4-30.9 10.1h-.1z" fill="#464c4f"/><path d="m12.7 26.8c-.4-1.2-1.3-11 41.3-19.1 19.7-3.8 34.5-4 41.8-2.7 8.4 1.5 9 4.9 9 4.9s-2 4.4-9 5.3-25-1-34.7 2.1-15.5 7.3-26.7 9.6-20.5 3.6-21.7-.1z" fill="#5e6367"/><path d="m55.2 4.2c-2.9.8-2.9 3.8-2.5 4.9s1.7 2.8 4.6 2.2 3.3-3.3 3-4.3-1.5-3.8-5.1-2.8z" fill="#464c4f"/><path d="m30.4 109s-.6.7-1 1.2c-.7 1.1-1.2 3 1 5.3 2.8 2.9 5.6 2.9 7.1 2.3 1.2-.4 1.9-1.2 2.1-2.3.3-2-1.6-4.2-1.6-4.2z" fill="#548b2e"/><path d="m30.6 108.8c-.2.2-.7.9-.7 1.5 0 1.1.6 2.5 1.9 3.9 2.1 2.1 4.5 2.4 6.4 1.1s.7-4.4-2.1-6.2-4.5-1.3-5.5-.3z" fill="#7db343"/><path d="m33.3 111.1c.4-.5.6-1.3 0-1.8s-1.3-.3-2.1.4-.5 1.5-.2 1.8c.7.8 1.9.2 2.3-.4z" fill="#fff"/></svg>