<svg enable-background="new 0 0 128 128" viewBox="0 0 128 128" xmlns="http://www.w3.org/2000/svg"><path d="m26.05 70.79s.33 3.83 1.94 4.54c1.62.71 3.09.6 3.86-.05s1.92-4.03 1.92-4.03l-3.85-.25z" fill="#feeed1"/><g fill="#a8a8a8"><path d="m24.26 62.78c-.12 0-.25-.02-.37-.07-.02-.01-2.51-.93-5.49-1.39-2.84-.44-5.25-.39-5.27-.39-.57.03-1.08-.45-1.09-1.04s.45-1.08 1.04-1.09c.11 0 2.61-.05 5.64.41 3.2.49 5.8 1.46 5.91 1.5.55.21.83.82.63 1.38-.16.42-.57.69-1 .69z"/><path d="m12.54 68.15c-.38 0-.75-.21-.95-.57-.28-.52-.08-1.17.44-1.45.11-.06 2.72-1.44 5.55-2.1 2.8-.66 5.71-.75 5.83-.75.58-.02 1.08.45 1.1 1.04s-.45 1.08-1.04 1.1c-.03 0-2.82.09-5.4.69-2.56.6-5.02 1.9-5.04 1.91-.15.09-.32.13-.49.13z"/><path d="m14.79 74.17c-.31 0-.62-.14-.83-.4-.37-.46-.3-1.13.16-1.5.09-.07 2.15-1.73 4.41-3.26 2.27-1.54 5.65-3.35 5.79-3.43.52-.28 1.17-.08 1.45.44s.08 1.17-.44 1.45c-.03.02-3.43 1.84-5.6 3.31-2.18 1.48-4.24 3.14-4.26 3.16-.21.16-.44.23-.68.23z"/><path d="m58.99 35.81c0 6.87-4.13 12.42-11.05 12.42s-13.58-3.74-13.77-11.98c-.16-6.87 3.71-12.1 10.96-12.94 8.31-.97 13.86 5.63 13.86 12.5z"/></g><path d="m94.85 91.45s6.38 1.44 9.39 5.18c1.76 2.19 2.53 7.67-.12 10.19-2.65 2.53-6.26 4.37-17.1 4.13s-16.25-.6-21.31-.24c-3.09.22-8.19.84-11.44 5.06-2 2.59-3.72 6.82-2.17 7.46 1.44.6 3.59-5.72 8.19-7.1 6.38-1.93 18.82.45 24.68.9 8.49.66 19.34 1.4 25.24-6.36 2.44-3.21 3.08-6.68 3.15-9.77.12-5.15-2.57-9.77-6.48-12.71-6.26-4.7-9.63-4.58-9.63-4.58z" fill="#feacab"/><path d="m78.56 98.83s-6.38.6-8.79 1.69c-2.41 1.08-3.97 3.13-3.01 4.45s4.09-.36 7.83-.48c3.73-.12 9.15.48 12.4-.24s4.21-3.49 4.7-4.7c.48-1.2-13.13-.72-13.13-.72z" fill="#feacab"/><path d="m47.66 99.15-2.29.96s-1.83.4-2.69 2.01c-.96 1.81 1.85 1.97 3.41 1.97s2.21-.32 2.21-.32.8.92 2.61 1.04 3.97-.12 5.06-.84c1.08-.72.96-2.77.96-2.77z" fill="#feacab"/><path d="m48.14 82.3s-2.77-2.05-2.77.24 1.57 9.39 1.57 10.59-1.87 3.04-2.21 5.02c-.32 1.89.44 3.01 2.81 3.09 2.29.08 4.09-1 4.09-1l3.85-11.68z" fill="#a9a9a9"/><path d="m50.87 41.56s.88-12.84 12.64-13.4c10.1-.48 15.77 7.99 14.33 17.02s-9.87 10.47-9.87 10.47 6.5-.06 9.81.3c3.55.39 14.03 1.99 18.84 9.93 4.82 7.95 5.66 16.49 2.89 23.72-2.41 6.29-6.02 8.43-7.95 9.15s-7.22 1.69-9.51 1.69-7.1-3.13-7.1-3.13l-11.32.6s-4.08 3.15-5.41 3.75c-1.32.6-7.44 1.41-9.78-.1-1.34-.86.14-2.57.62-5.58s.68-3.61.6-4.78c-.08-1.16-3.97-4.62-5.42-8.95-.89-2.66-1.93-6.74-1.93-6.74l-.36-1.93-7.22-1.93s-3.13 1.2-5.78.6-4.09-2.65-4.94-4.45c-.84-1.81-1.03-5.29-.9-6.43.17-1.43 3.52-6.56 8.82-11.51 4.32-4.03 8.53-6.3 12.62-7.26s6.32-1.04 6.32-1.04z" fill="#dfdfdf"/><path d="m70.94 35.74c-2.77-2.89-8.67-3.37-12.4.96-3.12 3.62-2.71 8.96 0 11.68 2.89 2.89 9.28 3.16 12.76-1.08 2.77-3.37 2.17-8.91-.36-11.56z" fill="#ffa7a6"/><path d="m62.83 96.38s-1.99 1.92-3.45 2.85c-3.09 1.97-5.78 1.81-5.7 2.93.03.48 3.69.52 6.46-.92 2.42-1.26 3.53-2.33 3.53-2.33l12.32-.12s3.37 2.29 7.54 2.41c7.46.22 10.43-2.77 12.12-4.45 1.69-1.69 3.49-5.02 2.05-4.05-1.44.96-6.43 5.33-11.24 5.58-3.68.19-7.22-.28-9.66-3.33-1.46-1.83-1.71-4.65-.9-8.31 1.24-5.58 5.79-7.63 8.07-7.1 4.13.96 4.13-1.61-.04-3.05-4.53-1.57-9.76 1.28-11.72 8.71-1.68 6.37 1.09 10.7 1.09 10.7s-9.03 0-10.47.48z" fill="#a9a9a9"/><path d="m45.77 58.98c-.63 1.82-2.69 2.7-4.17 2.17-1.49-.53-2.04-2.55-1.39-4.37s2.38-2.86 3.87-2.32c1.49.53 2.58 1.95 1.69 4.52z" fill="#2a2a2a"/><path d="m23.32 65.41 2.63-.01 3.29-2.97s-1.69-1.77-3.13-2.25-2.36-.34-2.36-.34-.86 1.15-.93 2.75c-.06 1.42.5 2.82.5 2.82z" fill="#ffa7a6"/><path d="m48.26 72.12c4.45-.54 8.67-2.53 10.51-5.12 1.35-1.9 2.49-3.85 3.69-3.05s-.66 3.68-2.93 5.66c-2.19 1.91-6.34 4.68-11.52 4.78-4.44.09-8.65-.18-11.16-.84-2.29-.6-4.82-1.73-4.82-1.73s-1.85 1.12-3.13.56-4.09-1.57-4.82-3.61c-.26-.75-1.37-3.07-.48-3.29 1.44-.36 1.4.52 1.69 1.2.28.68.72 2.09 1.36 2.57s2.33 1.93 3.29 1.93 5.46-.72 5.46-.72 7.47 2.32 12.86 1.66z" fill="#a9a9a9"/><path d="m29.72 62.27c-.8-.52-1.57.32-2.57 1.08s-1.93 1.28-2.65 1.32-2.05.04-1.93 1.16 1.28 1 2.13.92c.84-.08 2.69-.76 3.53-1.44.85-.67 2.8-2.19 1.49-3.04z" fill="#434b55"/><path d="m24.74 68.53c-.81.69-.16 1.44.88 2.49 1.2 1.2 3.05 1.91 4.41 1.97 1.81.08 3.85-.56 5.58-2.25 1.63-1.59-.04-2.93-1.53-2.17s-3.41 1.89-4.09 1.85c-1-.06-2.69-1.2-3.21-1.53-.51-.32-1.23-1.04-2.04-.36z" fill="#434b55"/></svg>