<svg enable-background="new 0 0 128 128" viewBox="0 0 128 128" xmlns="http://www.w3.org/2000/svg"><path d="m116 4h-104c-4.42 0-8 3.58-8 8v104c0 4.42 3.58 8 8 8h104c4.42 0 8-3.58 8-8v-104c0-4.42-3.58-8-8-8z" fill="#427687"/><path d="m121.7 6.3c-1.54-1.46-3.58-2.28-5.7-2.3h-104c-4.42 0-8 3.58-8 8v104c.02 2.12.84 4.16 2.3 5.7l16.8-16.8h76c3.26-.01 5.89-2.64 5.9-5.9v-76z" fill="#8cafbf"/><path d="m99.5 68.7c0 9.6-1.8 16.8-5.4 21.7s-9.1 7.3-16.4 7.3-12.7-2.4-16.3-7.1-5.5-11.8-5.6-21.1v-11.6c0-9.6 1.8-16.8 5.4-21.6s9.1-7.2 16.5-7.2c7.3 0 12.8 2.3 16.4 7s5.4 11.7 5.5 21c0 0-.1 11.6-.1 11.6zm-11.2-12.5c0-6.3-.9-10.9-2.6-13.8s-4.4-4.4-8.2-4.4c-3.6 0-6.3 1.4-8 4.2s-2.6 7.1-2.7 13v15.1c0 6.2.9 10.9 2.6 13.9 1.6 3.01 4.8 4.81 8.2 4.6 3.21.2 6.27-1.43 7.9-4.2 1.7-2.8 2.6-7.3 2.7-13.3z" fill="#fafafa"/><path d="m46.4 97.9h-8.9c-.66-.01-1.19-.54-1.2-1.2v-52.2c.01-.68-.54-1.25-1.23-1.25-.13 0-.25.02-.37.05l-9.9 3.3c-.62.22-1.31-.1-1.53-.73-.05-.15-.08-.31-.07-.47v-7c0-.52.32-1 .8-1.2l22.1-8.2c.1 0 .3-.1.4-.1.64-.02 1.18.48 1.2 1.12v.08 66.3c.07.76-.49 1.43-1.25 1.5-.02 0-.03 0-.05 0z" fill="#fafafa"/><path d="m39.7 12.9c0-2.3-1.6-3-10.8-2.7-7.7.3-11.5 1.2-13.8 4s-2.9 8.5-3 15.3c0 4.8 0 9.3 2.5 9.3 3.4 0 3.4-7.9 6.2-12.3 5.4-8.7 18.9-10.6 18.9-13.6z" fill="#b4e1ed" opacity=".5"/></svg>