<svg enable-background="new 0 0 128 128" viewBox="0 0 128 128" xmlns="http://www.w3.org/2000/svg"><path d="m34.09 88.52s.63-.69 1.11-1.09 1.76-1.39 1.76-1.39-.05-2.51 0-4.94.2-4.52.2-4.52l9.84 4.11-.07 9.16-.74 3.27-4.67 3.46-7.44-8.06z" fill="#875334"/><path d="m82.79 78.56 8.57-3.44s.73 3.63 1.01 5.92.37 3.44.37 3.44.6.28 1.52 1.19 1.44 1.77 1.44 1.77l-6.08 7.78-3.63-2.85-2.53-2.48-.67-11.35" fill="#875334"/><path d="m74.43 8.9s-.3-5.02-8.55-5.2-11.24 6.28-14.53 5.5c-3.46-.82-2.03-3.35-2.81-3.59s-3.23 1.32-3.29 3.89.42 2.87.42 2.87-3.53.57-4.84 5.2c-1.67 5.92 1.79 8.61 1.79 8.61s-3.22 2.7-1.43 8.37c1.23 3.89 3.65 3.73 3.59 5.94s-1.74 2.26-1.68 3.21 1.02 1.76 2.21 2.33c1.76.85 3.17.24 3.17.24s1.09 2.03 3.83 2.69c5.51 1.33 8.35-1.2 8.35-1.2l1.89-1.83s4.95 3.04 10.51 3.16 7.6-1.51 7.6-1.81-1.02-1.37-1.02-1.37 1.79.48 3.83-.54 1.85-2.57 1.55-3.11-2.72-.73-2.45-3.11c.42-3.71 3.93-3.5 3.89-9.74-.04-4.92-2.99-6.46-2.99-6.46s3.23-4.18-.96-9.98c-3.69-5.11-8.07-4.07-8.07-4.07z" fill="#3c2c23"/><path d="m52.72 52.13 3.96-1.29s1.35-.55 1.47-2.65c.12-2.13-.06-4.24-.06-4.24l11.61.06s-.05 2.01-.06 4.35c0 1.38 1.73 2.29 1.73 2.29l5.51 1.37-13.43 4.66-10.74-4.56z" fill="#875334"/><path d="m51.5 89.17-3.05 1.94s.1 2.2-.23 2.98c-.25.59-3.17 1.97-4.77 2.68-1.43.63-3.33 1.4-3.33 1.4l-4.69 2.2 16.16 15.07 34.11-5.16 6.98-11.32s-5.19-2.65-7.75-3.74c-2.2-.94-3.24-1.51-3.36-1.89s-.26-2.28-.26-2.28l-29.78-1.87z" fill="#595959"/><path d="m66.91 115.92s-16.73 8.96-30.84 7.86c-9.39-.73-12.61-5.9-12.61-5.9l-1.28-8.23s1.18-1.89 4.02-5.58 9.84-5.06 11.55-4.87 4.09 2.51 4.09 2.51l15.77.87 9.3 13.36z" fill="#875334"/><path d="m85.15 99.99-6.81 1.55-10.26-1.89s-.67.6-.95.92-.94 1.05-.94 1.05l3.67 4.97 28.1 1.78h5.66l-.89-2.88-5.45-4.09s-3.3-1.73-4.04-2.04-2.52.79-2.52.79-5.57-.16-5.57-.16z" fill="#875334"/><path d="m21.8 109.35s-.62 1.89-.14 4.35 1.8 4.16 1.8 4.16 2.98 2.51 11.17 2.56 18.17-3.45 18.31-3.79-1.85-4.64-6.48-7c-4.64-2.37-9.42-.97-9.42-.97l-.18-1.87s-1.8-1.72-5.11-1.51c-3.83.24-6.44 1.8-6.44 1.8z" fill="#a56c43"/><path d="m31.08 112.15c1.18 1.23 3.31-1.8 5.96-3.12s5.63-2.89 10.17-1.85 19.69 8.72 19.69 8.72l3.57-1.79-11.47-7.36-17.18-1.7s-3.98.76-7.43 2.84c-2.2 1.32-4.27 3.27-3.31 4.26z" fill="#63351e"/><path d="m84.06 111.19-17.38 2.99s8.89 6.05 19.09 8.85c10.2 2.81 16.54.42 19.72-2.12 2.76-2.21 3.25-5.09 3.11-7.14s-.55-2.81-.55-2.81z" fill="#875334"/><path d="m94.17 101.12c.23-.69-.88-2.49-2.81-2.74-2.28-.3-3.52 1.25-3.52 1.25s-.9-1.19-2.93-1.01-3.15 1.83-6.02 1.77-4.31-2.13-7.12-2.07c-2.39.05-3.7 1.34-3.7 1.34s2.14 1.64 5.08 2.36c3.64.9 11.1.84 12.95.72s4.6.42 4.6.42.74-.66 1.58-1.1 1.79-.66 1.89-.94z" fill="#a56c43"/><path d="m65.64 102.24s2.63 1.52 5.69 2.39 12.07 1.27 14.78 1.27 7.56.75 7.56.75 1.33-.98 4.56-1.1 5.6 1.04 5.6 1.04l2.83 1.56s.66 1.17.87 1.6.53 1.22.53 1.22-2.14 4.74-5.65 6.9-8.87 3.04-17.1 1.76-16.14-4.32-18.62-5.43-13.31-6.34-16.43-7.42c-6.21-2.14-10.74-1.27-11.64-1.5-.52-.13-.84-2.97 1.18-4.07 1.74-.95 2.72-.26 2.93-.34.3-.11 2.13-2.93 4.84-2.86s3.38 2.1 5.78 1.87 3.34-2.21 7.13-1.65c3.05.46 5.16 4.01 5.16 4.01" fill="#a56c43"/><path d="m66.23 101.57-.59.66s.38.46 1.25 1.09c.65.47 2.44 1.44 4.52 1.93 4.03.96 7.78 1.09 11.68 1.33 4.84.29 6.79.59 8.99 1.76 4.06 2.17 5.03 4.2 5.52 4.69s1.72.8 1.91.15c.24-.88-.06-1.21-.88-2.54-1.17-1.91-2.98-3.42-6.6-4.74-1.79-.65-5.6-.66-9.14-.73s-7.33-.31-10.16-.93c-4.07-.88-6.5-2.67-6.5-2.67z" fill="#63351e"/><path d="m42.71 95.38s-.25-3.16-3.23-5.43-5.39-1.44-5.39-1.44-4.1 4.38-4.49 4.46-3.56-1.15-5.64-.11-2.38 1.95-3.81 2.21-4.26-.12-4.29.48c-.03.48-.12 1.23.34 1.77s2.1.62 2.1.62l2.5-.05 3.05-.5 1.02 1.27-1.38 1.75-1.72.83-1.72-.36-1.29-2.08-1.37.07-.57 1.47.93 1.4.33 1.71s-1.44.38-2.99.27-4.02-1.23-4.45-1.23-.63.24-.63.24l.41 1.06 1.37 1.01-.11 1.44 2.73 1.26 1.11.93 1.83.93 4.17-.5 4.71-2.48 3.77-4.24 8.55-3.2 4.17-3.56z" fill="#a56c43"/><path d="m88.15 94.24s.44-2.76 2.98-4.96 4.57-1.82 4.57-1.82 3.53 4.19 4.13 4.19 1.54-1.05 3.53-.66 3.23 1.94 4.5 2.27 3.22.32 3.66.04 1.71-.56 1.57.41-1.94 2-1.94 2l-3.05.67-2.54.44-.83 1.21.99 1.21h2.48l2.04-2.54 1.49-.22.72 1.27-.5 2.31-.44 1.27s1.7-.2 2.64-.64 1.62-1.2 2.89-1.46c.92-.19 1.09.55 1.09.55l-1.17 1.25-.21 1.57-1.43 1.76-.78.36-.32 1.18-3.53 1.43h-4.41l-3.14-1.38-4.3-3.25-3.09-3.53-7.61-4.96z" fill="#a56c43"/><path d="m113.09 93.36c-.23-.16-.82 1.73-3.21 2.37-1.26.34-3.16-.29-4.41.34s-1.51 2.37-.94 2.75c.98.64.74-1.4 2.03-1.65s2.72-.01 3.99-.23c1.74-.3 3.31-3.03 2.54-3.58z" fill="#63351e"/><g fill="#875334"><path d="m10 102.73c-.36.53.02 1.3.3 1.62.38.44.99.63.99.63s-.39.35.02 1.32c.28.65 1.05 1.56 3.73 1.82s5.38-.57 5.84-.93.65-.75.26-.82c-.27-.05-1.09.22-1.75.35s-1.8.61-4.04.54c-1.78-.05-3.08-.81-3.21-1.24s.13-.76.13-.76 1.31.71 2.86.78 2.68-.25 2.84-.45.26-.58-.43-.58-1.63.57-4.34-.27c-2.49-.76-3.21-2.02-3.2-2.01z"/><path d="m18.07 103.45s1.32-.16 1.35-.47-1.63-.44-1.92-2.01c-.21-1.19 0-1.79.66-1.82s.54 1.7 1.45 2.26c1.38.85 2.68.55 2.68.55s-.57.97-1.14 1.57-1.47 1.37-1.04 1.83c.55.59 2.69-1.06 3.58-2.16 1.23-1.51 2.21-3.31 4.41-4.72s4.05-1.21 4.05-1.74-1.73-1.15-4.29-.01c-1.92.85-2.41 1.43-2.41 1.43s-.65-1.1-1.41-1.17.03 1.32.03 1.77-1.19 2.29-2.67 2.04-1.91-2.01-1.91-2.01l-.23-.75-1.48-.47-.72.68s-1.04.74-.98 2.21c.1 2.35 1.98 3.02 1.98 3.02z"/><path d="m109.15 101.69c.25.98 2.94.06 3.75-1.97s-.21-4.09-1.74-4.01c-1.94.11-1.56 1.95-2.78 2.62-1.93 1.05-2.71.16-2.98.06-.09.22-.24.42-.36.47-.17.08-.29.04-.43 0-.02.19.15.37.48.63.58.45 2.32.7 3.3.22 2.62-1.29 1.99-2.86 2.68-2.87 1.23-.02 1.13 1.91.42 2.91s-2.52 1.15-2.33 1.94z"/><path d="m108.51 105.77c.14.68 2.71.96 5.58-.28 3.07-1.33 3.31-2.95 3.39-3.27s-.08-1.21-.53-1.17-.32 2.02-3.31 3.27-5.33.48-5.13 1.45z"/><path d="m109.4 103.59c-.04.81 3.31.65 5.42-.53 2.1-1.17 3.52-2.75 3.31-3.27-.16-.42-2.47 1.74-4.24 2.47-1.78.73-4.45.62-4.49 1.33z"/><path d="m95.86 96.24c.43.67 2.14-.36 3.96.77s2.47 3.11 4.2 4.93c1.54 1.61 3.35 3.03 3.6 2.3s-1.42-1.37-2.79-2.91c-1.86-2.1-2.14-3.76-4.32-5.21-1.55-1.03-3.72-.77-4.08-.77s-.85.44-.57.89z"/></g><path d="m15.04 108.11c-.39.52.24 2.13 3.94 1.99 6.29-.24 9.68-6.37 11.47-7.5 1.01-.64 2.47-.9 4.5-1.66 2.15-.8 4.9-2.12 7.3-3.82 4.67-3.31 4.94-4.4 5.18-5.44.32-1.37.32-3.24.36-8.07.05-4.59-1.51-1.19-1.51-1.19s.3 7.22-.38 8.92-2.29 3.36-5.95 5.48c-3.65 2.12-5.14 2.76-6.97 3.27s-3.48 1.02-5.01 2.72c-1.92 2.13-3.36 3.61-5.48 4.84s-3.19 1.19-4.54 1.1-2.68-.98-2.92-.65z" fill="#63351e"/><path d="m83.52 81.06s.26 6.98 1.13 8.82c.36.78 1.5 1.91 3.38 3.29 3.13 2.29 7.42 4.48 9.42 6.55s4.73 5.05 7.31 6.34c5.82 2.91 9.36-1.35 9.78-1.32s.8.52.4 1.01-2.66 2.89-6.71 2.61c-5.29-.36-8.41-4.16-11.48-7.56-1.96-2.16-12.53-7.68-13.5-10.22s-1.57-9.68-1.57-9.68z" fill="#63351e"/><path d="m46 29.04s-3.34.53-2.53 5.05c.96 5.36 6.05 3.97 6.05 3.97l-2.46-3.07s-.52-1.56-.76-3.21-.31-2.74-.3-2.74z" fill="#875334"/><path d="m80.7 29.43c.57-.24 3.09.23 2.8 4.09-.36 4.9-3.61 5-4.42 5s-2.63-2.21-2.63-2.21 3.41-1.19 3.73-2.03.51-4.85.52-4.85z" fill="#875334"/><path d="m49.08 24.05c-.52.57-.42 10.1-1.02 10.76-.53.57-1.05-.04-1.05-.04s2.43 14.2 16.69 14.2c6.33 0 9.95-2.49 12.36-5.42 3.59-4.36 4.14-9.27 4.14-9.27s-.2.58-.72.51c-.32-.04-.63-.07-.77-.89-.15-.95-.71-10.18-2.97-12.31-2.53-2.38-4.61-1.93-4.61-1.93s-.93-2.46-4.83-3.07c-3.08-.48-5.47 1.73-10.42 4.73-2.87 1.74-6.79 2.74-6.79 2.74z" fill="#a56c43"/><path d="m63.92 40.24c-2.28 0-4.44-.84-4.96.04s1.23 2.79 4.96 2.82c4.22.03 5.58-2.16 5.04-2.95s-2.41.1-5.04.09z" fill="#473530"/><path d="m51.51 26.35c.43.63 2.03-.23 4.2-.37 1.77-.12 3.45.84 3.77-.33.38-1.38-1.47-1.88-4.1-1.65-2.68.23-4.44 1.5-3.87 2.35z" fill="#3c2c23"/><path d="m68.18 25.9c.88.29 1.71-.24 3.52-.03 1.7.19 3.22.92 3.74.39s-.69-1.92-3.49-2.33c-2.52-.36-4.1.25-4.31.79s.17 1.05.53 1.17z" fill="#3c2c23"/><path d="m51.98 30.74c-.41 1 1.28 2.35 3.74 2.32 2.11-.03 4.57-1 3.81-2.39-.59-1.08-2 .12-3.84.14-1.88.02-3.22-1.25-3.7-.07z" fill="#42312c"/><path d="m67.56 30.49c-.83.88 1.06 2.48 3.67 2.42 2.97-.07 4.34-1.66 3.57-2.6s-1.45.43-3.6.45c-1.89.01-2.79-1.18-3.64-.28z" fill="#42312c"/><path d="m63.98 35.32c-1.57.03-2.16-.5-2.72.06-.51.52-.05 1.26.79 1.91 1.15.89 2.93.86 3.86.04s1.31-1.51.72-2.01-1.05-.03-2.65 0z" fill="#875334"/><path d="m16.03 97.45c.32.43.99.8.99.8s.44-.44 1.27-.31 1.2.82 1.2.82.63.1 1.58-.1 1.44-.48 2.19-.35.86.79 1.61.35.03-1.82-1.47-1.92-3.01 1.2-5.58.31c-.96-.33-1.68-1.57-1.94-1.49-.32.09-.4 1.12.16 1.89z" fill="#63351e"/><path d="m79.84 52.35c-3.25-1.25-9.65-2.71-9.65-2.71s-.49 4.13-6.01 4.36c-5.33.22-6.64-4.11-6.64-4.11s-5.49.86-9.84 2.96c-3.63 1.75-7.12 4.41-8.86 9.56-1.75 5.15-1.8 9.07-2.24 10.55s-1.17 2.96-.79 3.6c.52.89 1.68 1.75 3.95 3.5s4.56 2.61 4.56 2.61l2.62-1.57 1.57 2.97s.09 3.58 0 4.71-.69 3.09 0 3.53 7.68 4.06 16.75 3.71c9.08-.35 15.85-3.26 16.23-4.45.27-.83 0-1.43-.03-2.79-.08-2.63-.23-6.11-.23-6.11l1.57-4.1 2.53 2.09s1.79-.89 4.14-2.64 3.54-2.77 3.54-3.56-.64-1.22-1.07-3.05-2.35-8.79-4.78-12.66-4.26-5.23-7.32-6.4z" fill="#f06e00"/><g fill="#da4c00"><path d="m81.22 82.66s-.41-4.77-.46-6.66-.97-6.75.46-7.18c1.69-.51 2.26 3.8 2.57 5.75s1.53 6.09 1.53 6.09-1.12.78-2.05 1.19-2.05.81-2.05.81z"/><path d="m44.31 82.66s.8-4 1.1-6.51.67-6.05 1.13-6.72 1.64-.62 1.85.41 0 7.9 0 9.29.11 4.93.11 4.93-.86-.29-1.97-.6c-1.42-.41-2.21-.79-2.21-.79z"/><path d="m63.94 59.62c-4.52.04-6.89-1.71-9.51-3.49-2.75-1.88-4.79-4.1-4.79-4.1s1.72-.69 3.55-1.21 4.35-.94 4.35-.94 1.68 4.22 6.64 4.11c5.19-.11 6.01-4.36 6.01-4.36s2.54.61 4.26 1.02 4.32 1.32 4.32 1.32-4.26 3.37-5.74 4.41c-1.48 1.05-4.1 3.18-9.08 3.23z"/></g></svg>