<svg enable-background="new 0 0 128 128" viewBox="0 0 128 128" xmlns="http://www.w3.org/2000/svg" xmlns:xlink="http://www.w3.org/1999/xlink"><radialGradient id="a" cx="77.1215" cy="66.6941" gradientTransform="matrix(.9979 -.065 .065 .9979 -1.4539 -39.5353)" gradientUnits="userSpaceOnUse" r="76.1837"><stop offset=".1041" stop-color="#ce93d8"/><stop offset="1" stop-color="#ab47bc"/></radialGradient><radialGradient id="b" cx="53.3492" cy="46.1346" gradientUnits="userSpaceOnUse" r="69.3892"><stop offset=".2804" stop-color="#81d4fa" stop-opacity="0"/><stop offset=".9643" stop-color="#81d4fa" stop-opacity=".9"/></radialGradient><linearGradient id="c" gradientUnits="userSpaceOnUse" x1="74.6902" x2="35.9418" y1="10.651" y2="111.0067"><stop offset="0" stop-color="#673ab7"/><stop offset=".9367" stop-color="#673ab7" stop-opacity="0"/></linearGradient><linearGradient id="d" gradientUnits="userSpaceOnUse" x1="80.8782" x2="80.8782" y1="24.9339" y2="108.0774"><stop offset=".2348" stop-color="#1d44b3"/><stop offset=".8842" stop-color="#2044b3" stop-opacity=".074"/><stop offset=".936" stop-color="#2144b3" stop-opacity="0"/></linearGradient><linearGradient id="e" gradientTransform="matrix(-.9658 .2591 .2591 .9658 -2567.8049 261.1978)" gradientUnits="userSpaceOnUse" x1="-2575.3552" x2="-2575.3552" y1="437.5194" y2="471.2064"><stop offset=".2271" stop-color="#fff"/><stop offset="1" stop-color="#fff" stop-opacity="0"/></linearGradient><linearGradient id="f" gradientUnits="userSpaceOnUse" x1="85.8711" x2="85.8711" y1="28.9603" y2="52.3872"><stop offset=".2614" stop-color="#fff"/><stop offset="1" stop-color="#fff" stop-opacity="0"/></linearGradient><linearGradient id="g" gradientUnits="userSpaceOnUse" x1="76.221" x2="76.221" y1="58.1607" y2="85.2307"><stop offset="0" stop-color="#fff"/><stop offset="1" stop-color="#fff" stop-opacity="0"/></linearGradient><path d="m31.13 110.55c0-4.3 6.01-19.49 6.01-19.49 5.79-1.79 47.6-.27 53.97-.27 0 0 5.76 12.33 5.76 19.76s-17.68 13.45-32.81 13.45-32.93-6.02-32.93-13.45z" fill="#8b5738"/><ellipse cx="64.06" cy="93.5" fill="#ffb17a" rx="27.05" ry="11.75"/><path d="m38.67 106.15c3.02 1.72 7.8 1.59 11.51 2.26 4.72.86 7.39 4.46 16.49 4.3 3.25-.06 10.83-.43 10.41-.42-.26-.53-1.74-1.04-4.62-1.49-2.64-.42-4.54-.38-7.6-.38-2.34 0-5.55-.7-8.79-2.48-1.48-.81-3.78-1.71-6.03-2.17-3.46-.71-5.87.04-10.7-2.25-2.31-1.09-4.18-3.35-4.62-5.98l-1.14 3.28c1.5 2.75 2.87 4.07 5.09 5.33z" fill="#cc8552"/><path d="m88.44 103.46c-7.74 4.92-14.28 4.37-14.28 4.37-.55.36 3.96 1.33 7.31.77 6.58-1.1 10.58-4.4 13.18-8.82-.36-1.12-1.15-3.24-1.15-3.24-.75 1.81-1.62 4.73-5.06 6.92z" fill="#cc8552"/><g fill="#a86d44"><path d="m74.51 117.42c-4.28.78-8.38-.55-12.59-1.54-5.77-1.35-16.61-1.16-16.61-1.16-.65.32 5.11 2.41 7.91 2.65 2.55.22 5.25 0 7.67.99 3.41 1.39 6.71 2.09 10.01 2.09 6.27 0 14.46-3.78 16.41-8.69 0 0-3.58 2.1-6.36 3.51-2.02 1.03-4.2 1.75-6.44 2.15z"/><path d="m35.82 111.48c.85 1.36 1.72 2.62 2.86 3.75 1.93 1.92 4.37 3.03 5.94 2.75 0 0-5.56-4.49-4.97-5.66.3-.6 11.84.35 11.84.35s-3.5-1.84-6.91-2.5c-2.21-.43-6.25.43-9.93-2.16-2.03-1.43-2.34-3.15-2.34-3.15s-.73 2.49-.88 3.44c2.13 2.23 4.11 2.73 4.39 3.18z"/><path d="m94.3 106.54c-2.02 1.81-5.21 5.47-5.21 7.36 0 0 3.58-3.47 5.99-5.06.6-.39 1.03-.89 1.5-1.42 0 0-.24-1.79-.62-3.06-.15.85-.76 1.38-1.66 2.18z"/></g><circle cx="64" cy="52.76" fill="url(#a)" r="48.76"/><circle cx="64" cy="52.76" fill="url(#b)" r="48.76"/><path d="m45.91 22.37c4.54.39 13.84 3.79 7.07 12.51-4.45 5.73-10.01 11.06-11.98 15.67-5.69 13.33 8.57 18.77 13 20.16 3.84 1.21 11.24 3.91 13.32 7.36 8.03 13.3-16.39 16.93-16.39 16.93s17.97 6.55 32.77-3.46c5.6-3.79 10.53-12.61 5.71-20.55-2.34-3.85-8.79-7.32-10.37-8.56-6.76-5.34-10.93-10.86-7.57-17.05 1.36-2.5 4.2-3.8 6.95-4.56 7.7-2.13 17.31-1.75 19.82-11.26 2.17-8.2-13.67-26.52-38.24-23.54-10.2 1.23-19.38 5.5-26.89 12.52-13.86 12.97-12.66 23.7-12.66 23.7s9.03-21.3 25.46-19.87z" fill="url(#c)" opacity=".7"/><path d="m99.77 24.22c-3.48-5.06-8.29-9.08-13.36-12.55-8.09-5.53-18.55-5.98-18.55-5.98 12.84 6.14 11.4 14.28 7.21 20.1-5.1 7.09-15.33 11.88-18 20.51-1.56 5.04-.6 10.34 4.31 13.56s22.58 11.77 23.19 21.89c.46 7.62-5.6 12.42-5.6 12.42 7.09-1.53 22.01-11.97 17.59-22.71-2.14-5.2-11.87-8.65-6.97-14.58 1.82-2.21 14.53-3.39 15.72-16.25.55-6.01-2.69-12.27-5.54-16.41z" fill="url(#d)" opacity=".39"/><path d="m24.71 61.66s-7.3-19.36 7.69-37.29c12.35-14.78 23.5-8.8 21.78-2.5-1.73 6.3-7.1 8.24-15.19 14.57-10.69 8.36-14.28 25.22-14.28 25.22z" fill="url(#e)" opacity=".85"/><path d="m92.96 34.77c-1.95-.97-3.51-2.19-4.19-4.26l-2.89-9.57-2.89 9.57c-.68 2.06-2.25 3.29-4.19 4.26l-4.83 2.09 4.97 2.06c1.95.97 3.37 2.3 4.06 4.36l2.89 9.49 2.89-9.49c.68-2.06 2.11-3.39 4.06-4.36l4.97-2.06z" fill="url(#f)"/><path d="m83.31 69.37c-1.95-.97-3.51-2.19-4.19-4.26l-2.89-9.57-2.89 9.57c-.68 2.06-2.25 3.29-4.19 4.26l-4.83 2.09 4.97 2.06c1.95.97 3.37 2.3 4.06 4.36l2.89 9.49 2.89-9.49c.68-2.06 2.11-3.39 4.06-4.36l4.97-2.06z" fill="url(#g)"/><path d="m106.34 53.97c-1.47-.73-2.65-1.66-3.17-3.21l-2.18-7.23-2.18 7.23c-.52 1.56-1.7 2.48-3.17 3.21l-3.64 1.58 3.75 1.56c1.47.73 2.55 1.73 3.06 3.29l2.18 7.16 2.18-7.16c.52-1.56 1.59-2.56 3.06-3.29l3.75-1.56z" fill="#fff"/></svg>