<svg enable-background="new 0 0 128 128" viewBox="0 0 128 128" xmlns="http://www.w3.org/2000/svg"><path d="m110.65 19.14c-.29-.13.43-1.31-10.57-1.61-.96-.03-4.13 1.66-7.75 1.71-3.75.05-6.1-1.51-7.36-2.72-.56-.54-1.45-.4-1.85.26-.71 1.19-2.06 2.73-4.54 3.62-2.87 1.03-5.46-.09-6.92-1-.61-.38-1.43-.11-1.7.56-.64 1.59-2.09 4.05-5.22 5.23-2.85 1.08-5.14.18-6.55-.74-.7-.46-1.64-.05-1.79.77-.39 2.09-1.33 5.18-3.61 6.41-2.72 1.46-5.33.52-6.98-.46-.76-.46-1.74.02-1.81.91-.16 2.39-.82 6.11-3.18 8.2-2.55 2.26-6.4 1.65-8.53 1.07-.75-.2-1.47.36-1.48 1.14-.02 1.89-.33 4.96-1.93 6.67-2.15 2.29-5.65 2.88-5.65 2.88l50.08 48.96c1.17-1.25 7.92-10.42 26.08-13.62 1.73-.31 9.52-1.32 10.27-1.82 1.02-.69.02-7.39.07-9.03.13-4.73.26-9.46.39-14.2.25-9.26.51-18.52.76-27.78.09-3.22.18-6.45.26-9.67.03-1.16.21-2.41.1-3.57-.12-1.46.06-1.88-.59-2.17z" fill="#fce8b2"/><path d="m31.26 41.57c-.26.21-.44.54-.45.92-.02 1.89-.33 4.96-1.93 6.67-.06.06-.12.11-.17.17l48.47 47.72z" fill="#ffbd66"/><path d="m44.71 31.1c-.38.16-.67.51-.71.98-.16 2.39-.82 6.11-3.18 8.2-.05.04-.1.08-.15.12 11.92 15.48 40.57 53.09 40.57 53.09z" fill="#ffbd66"/><path d="m56.4 25.22c-.39 2.09-1.33 5.18-3.61 6.41-.08.04-.15.06-.23.1 7.51 14.31 24.74 46.72 32.04 60.43.2-.1.4-.2.6-.3l-28.19-67.46c-.3.16-.54.45-.61.82z" fill="#ffbd66"/><path d="m69.96 19.96c-.62 1.56-2.04 3.94-5.03 5.15 5.39 14.95 18.61 50.29 24.14 65.06.22-.08.45-.16.67-.25l-18.72-70.68c-.45.01-.88.27-1.06.72z" fill="#ffbd66"/><path d="m83.12 16.78c-.71 1.19-2.06 2.73-4.54 3.62-.15.05-.3.08-.45.12l14.31 68.5c.44-.13.89-.27 1.35-.39l-9.97-72.39c-.29.08-.54.26-.7.54z" fill="#ffbd66"/><path d="m99.53 17.62c-1.33.34-4.1 1.58-7.2 1.62-.38.01-.74-.02-1.1-.04 1.15 17.13 3.54 52.75 4.91 68.83.25-.06.51-.11.77-.17.12-3.94.17-9.04.17-9.04z" fill="#ffbd66"/><path d="m78.41 97.6c-.46 0-.91-.19-1.23-.56l-46.66-54.17c-.58-.68-.51-1.7.17-2.28s1.7-.51 2.28.17l46.67 54.17c.58.68.51 1.7-.17 2.28-.31.26-.68.39-1.06.39z" fill="#6d4c41"/><path d="m82.33 95.02c-.55 0-1.08-.28-1.38-.78l-37.92-62.42c-.46-.76-.22-1.76.54-2.22s1.76-.22 2.22.54l37.92 62.42c.46.76.22 1.76-.54 2.22-.27.16-.55.24-.84.24z" fill="#6d4c41"/><path d="m84.78 92.12-29.01-66.77c-.35-.82.02-1.77.84-2.13.82-.35 1.77.02 2.13.84l29.01 66.77s.42 1.34-.91 1.98c-1.37.67-2.06-.69-2.06-.69z" fill="#6d4c41"/><path d="m90.51 91.56c-.71 0-1.36-.47-1.56-1.18l-19.6-70.12c-.24-.86.26-1.75 1.12-1.99s1.75.26 1.99 1.12l19.6 70.12c.24.86-.26 1.75-1.12 1.99-.14.04-.29.06-.43.06z" fill="#6d4c41"/><path d="m94.24 90.44c-.79 0-1.49-.59-1.6-1.4l-10-72.17c-.12-.89.5-1.7 1.38-1.82.88-.13 1.7.5 1.82 1.38l10 72.17c.12.88-.5 1.7-1.38 1.82-.07.01-.14.02-.22.02z" fill="#6d4c41"/><path d="m96.48 87.37c-.03 1.33.99 2.44 2.32 2.51l15.38.59c4.63.12 8.48-3.53 8.6-8.16l1.46-55.94c.12-4.63-3.53-8.48-8.16-8.6l-15.11-.57c-1.45-.08-2.68 1.06-2.72 2.51z" fill="#cf381a"/><path d="m66.91 109.56-9.75 10.07c-1.69 1.75-4.48 1.79-6.22.1l-45.84-44.39c-1.75-1.69-1.79-4.48-.1-6.22l9.75-10.07c1.69-1.75 4.48-1.79 6.22-.1l45.83 44.39c1.75 1.69 1.8 4.47.11 6.22z" fill="#cf381a"/><path d="m9.83 69.85c-1.54 1.59-1.5 4.12.09 5.66.92.89 2.16 1.24 3.35 1.07-.13 1.19.25 2.42 1.18 3.31.92.89 2.16 1.24 3.35 1.07-.13 1.19.25 2.42 1.18 3.31.92.89 2.16 1.24 3.35 1.07-.13 1.19.25 2.42 1.18 3.31.92.89 2.16 1.24 3.35 1.07-.13 1.19.25 2.42 1.18 3.31s2.16 1.24 3.35 1.07c-.13 1.19.25 2.42 1.18 3.31.92.89 2.16 1.24 3.35 1.07-.13 1.19.25 2.42 1.18 3.31s2.16 1.24 3.35 1.07c-.13 1.19.25 2.42 1.18 3.31s2.16 1.24 3.35 1.07c-.13 1.19.25 2.42 1.18 3.31s2.16 1.24 3.35 1.07c-.13 1.19.25 2.42 1.18 3.31 1.59 1.54 4.12 1.5 5.66-.09l9.8-10.12-46.46-45z" fill="#822322"/><path d="m10.64 69.01c-1.54 1.59-1.5 4.12.09 5.66.92.89 2.16 1.24 3.35 1.07-.13 1.19.25 2.42 1.18 3.31.92.89 2.16 1.24 3.35 1.07-.13 1.19.25 2.42 1.18 3.31.92.89 2.16 1.24 3.35 1.07-.13 1.19.25 2.42 1.18 3.31.92.89 2.16 1.24 3.35 1.07-.13 1.19.25 2.42 1.18 3.31.92.89 2.16 1.24 3.35 1.07-.13 1.19.25 2.42 1.18 3.31s2.16 1.24 3.35 1.07c-.13 1.19.25 2.42 1.18 3.31.92.89 2.16 1.24 3.35 1.07-.13 1.19.25 2.42 1.18 3.31s2.16 1.24 3.35 1.07c-.13 1.19.25 2.42 1.18 3.31.92.89 2.16 1.24 3.35 1.07-.13 1.19.25 2.42 1.18 3.31 1.59 1.54 4.12 1.5 5.66-.09l9.8-10.12-46.46-45z" fill="#fff3e0"/><path d="m13.38 66.11 46.45 44.99 7.06-7.22-46.46-45z" fill="#ffcc80"/><path d="m24.06 66.79-7.11 7.34c-.31.32-.83.33-1.15.02l-1.13-1.1c-.32-.31-.33-.83-.02-1.15l7.11-7.34c.31-.32.83-.33 1.15-.02l1.13 1.1c.32.31.33.83.02 1.15z" fill="#6d4238"/><path d="m27.15 69.79-7.11 7.34c-.31.32-.83.33-1.15.02l-1.13-1.1c-.32-.31-.33-.83-.02-1.15l7.11-7.34c.31-.32.83-.33 1.15-.02l1.13 1.1c.32.31.33.82.02 1.15z" fill="#6d4238"/><path d="m33.33 75.78-7.11 7.34c-.31.32-.83.33-1.15.02l-1.13-1.1c-.32-.31-.33-.83-.02-1.15l7.11-7.34c.31-.32.83-.33 1.15-.02l1.13 1.1c.33.31.34.82.02 1.15z" fill="#6d4238"/><path d="m36.43 78.77-7.11 7.34c-.31.32-.83.33-1.15.02l-1.13-1.1c-.32-.31-.33-.83-.02-1.15l7.11-7.34c.31-.32.83-.33 1.15-.02l1.13 1.1c.32.32.33.83.02 1.15z" fill="#6d4238"/><path d="m39.52 81.77-7.11 7.34c-.31.32-.83.33-1.15.02l-1.13-1.1c-.32-.31-.33-.83-.02-1.15l7.11-7.34c.31-.32.83-.33 1.15-.02l1.13 1.1c.32.31.33.83.02 1.15z" fill="#6d4238"/><path d="m45.7 87.76-7.1 7.34c-.31.32-.83.33-1.15.02l-1.13-1.1c-.32-.31-.33-.83-.02-1.15l7.11-7.34c.31-.32.83-.33 1.15-.02l1.13 1.1c.32.31.33.83.01 1.15z" fill="#6d4238"/><path d="m48.8 90.75-7.11 7.34c-.31.32-.83.33-1.15.02l-1.13-1.1c-.32-.31-.33-.83-.02-1.15l7.11-7.34c.31-.32.83-.33 1.15-.02l1.13 1.1c.32.32.33.83.02 1.15z" fill="#6d4238"/><path d="m54.98 96.75-7.11 7.34c-.31.32-.83.33-1.15.02l-1.13-1.1c-.32-.31-.33-.83-.02-1.15l7.11-7.34c.31-.32.83-.33 1.15-.02l1.13 1.1c.33.31.34.82.02 1.15z" fill="#6d4238"/><path d="m58.08 99.74-7.11 7.34c-.31.32-.83.33-1.15.02l-1.13-1.1c-.32-.31-.33-.83-.02-1.15l7.11-7.34c.31-.32.83-.33 1.15-.02l1.13 1.1c.32.31.33.83.02 1.15z" fill="#6d4238"/><path d="m61.17 102.74-7.11 7.34c-.31.32-.83.33-1.15.02l-1.13-1.1c-.32-.31-.33-.83-.02-1.15l7.11-7.34c.31-.32.83-.33 1.15-.02l1.13 1.1c.32.31.33.82.02 1.15z" fill="#6d4238"/><path d="m74.47 101.75-8.25 8.52c-1.15 1.19-3.05 1.22-4.24.07l-47.84-46.35c-1.19-1.15-1.22-3.05-.07-4.24l8.25-8.52c1.15-1.19 3.05-1.22 4.24-.07l47.85 46.34c1.19 1.16 1.22 3.06.06 4.25z" fill="#cf381a"/><path d="m69.98 100.06-5.52 5.7c-1.15 1.19-3.05 1.22-4.24.07l-43.52-42.15c-1.19-1.15-1.22-3.05-.07-4.24l5.52-5.7c1.15-1.19 3.05-1.22 4.24-.07l43.51 42.15c1.21 1.15 1.24 3.05.08 4.24z" fill="#ff5722"/><path d="m111.26 86.85-6.8-.15c-3.4-.08-6.09-2.89-6.02-6.29l1.24-56.1c.08-3.4 2.89-6.09 6.29-6.02l6.8.15c3.4.08 6.09 2.89 6.02 6.29l-1.24 56.1c-.08 3.4-2.89 6.09-6.29 6.02z" fill="#ff5722"/><g fill="#6d4238"><circle cx="104.18" cy="44.61" r="2.18"/><circle cx="103.95" cy="53.93" r="2.18"/><circle cx="103.72" cy="63.25" r="2.18"/><circle cx="103.49" cy="72.56" r="2.18"/><circle cx="114.38" cy="35.18" r="2.18"/><circle cx="114.15" cy="44.5" r="2.18"/><circle cx="113.92" cy="53.81" r="2.18"/><circle cx="113.68" cy="63.13" r="2.18"/><circle cx="109.28" cy="39.9" r="2.18"/><circle cx="109.05" cy="49.21" r="2.18"/><circle cx="108.82" cy="58.53" r="2.18"/><circle cx="108.59" cy="67.85" r="2.18"/></g></svg>