<svg enable-background="new 0 0 128 128" viewBox="0 0 128 128" xmlns="http://www.w3.org/2000/svg" xmlns:xlink="http://www.w3.org/1999/xlink"><linearGradient id="a" gradientUnits="userSpaceOnUse" x1="38" x2="60.4" y1="57.4" y2="87.5"><stop offset="0" stop-color="#c0bfbc"/><stop offset=".346" stop-color="#9a9996"/><stop offset="1" stop-color="#5e5c64"/></linearGradient><linearGradient id="b" gradientUnits="userSpaceOnUse" x1="37.5" x2="114" y1="37.5" y2="37.5"><stop offset="0" stop-color="#212121"/><stop offset="1" stop-color="#212121" stop-opacity="0"/></linearGradient><radialGradient id="c" cx="66.2" cy="-2.51" gradientTransform="matrix(.917 .398 -.222 .513 4.91 -27.6)" gradientUnits="userSpaceOnUse" r="117"><stop offset="0" stop-color="#c0bfbc"/><stop offset="1" stop-color="#5e5c64"/></radialGradient><radialGradient id="d" cx="45.8" cy="20" gradientUnits="userSpaceOnUse" r="43.8"><stop offset=".00212" stop-color="#212121" stop-opacity="0"/><stop offset="1" stop-color="#212121"/></radialGradient><radialGradient id="e" cx="57.1" cy="82.9" gradientUnits="userSpaceOnUse" r="65.7"><stop offset="0" stop-color="#ffd54f"/><stop offset=".747" stop-color="#ffc107"/></radialGradient><radialGradient id="f" cx="58.9" cy="60.8" gradientTransform="matrix(1 0 0 1.34 0 -21)" gradientUnits="userSpaceOnUse" r="28.9"><stop offset=".486" stop-color="#ffca28" stop-opacity=".8"/><stop offset=".86" stop-color="#ffb300"/></radialGradient><path d="m44.1 73.3c-5.32-5.33-32.1-20.3-22.6-46 5.51-14.7 18.3-16.9 18.3-16.9l2.07 9.3c-4.75 2.03-8.85 6.68-10.3 11.2-5.57 16.8 13.6 28.5 16.8 34.9l-4.26 7.46z" fill="#fff"/><path d="m44.1 73.3c-5.32-5.33-32.1-20.3-22.6-46 5.51-14.7 18.3-16.9 18.3-16.9l2.07 9.3c-4.75 2.03-8.85 6.68-10.3 11.2-5.57 16.8 13.6 28.5 16.8 34.9l-4.26 7.46z" fill="#fff" opacity=".54"/><circle cx="101" cy="28" fill="#3d3846" r="10.1"/><path d="m82.2 17c-2.04-1.18-1.67-3.78-.49-5.82l2.97-4.53c.56-.86 1.67-1.16 2.59-.7l2.88 1.44c1.03.52 1.42 1.79.85 2.8l-2.99 5.25c-1.17 2.04-3.78 2.74-5.81 1.56z" fill="#3d3846"/><g fill="#212121" opacity=".2"><path d="m101 18.9c5.03 0 9.12 4.09 9.12 9.12s-4.09 9.12-9.12 9.12-9.12-4.09-9.12-9.12 4.09-9.12 9.12-9.12m0-1c-5.59 0-10.1 4.53-10.1 10.1s4.53 10.1 10.1 10.1 10.1-4.53 10.1-10.1-4.54-10.1-10.1-10.1z"/><path d="m86.4 6.75c.16 0 .31.04.45.11l2.88 1.44c.25.13.44.34.52.61s.05.55-.09.8l-2.98 5.24c-.58 1.01-1.66 1.63-2.83 1.63-.57 0-1.13-.15-1.63-.44-.63-.36-.94-.93-.95-1.74-.01-.79.28-1.77.81-2.69l2.95-4.51c.21-.28.53-.45.87-.45m0-1c-.66 0-1.3.33-1.69.91l-2.97 4.53c-1.18 2.04-1.54 4.64.49 5.82.67.39 1.4.57 2.13.57 1.47 0 2.9-.76 3.69-2.13l2.98-5.25c.57-1.01.18-2.28-.85-2.8l-2.88-1.44c-.29-.14-.6-.21-.9-.21z"/></g><path d="m85.9 10.1c-13.7-6.03-25.4-5.4-32.5-4.31-1.96.3-13.6 2.99-13.6 2.99-1.8.27-2.59 1.82-2.33 3.61l1.4 9.51c.27 1.8 1.5 2.94 3.29 2.68l3.96-.59-.02 5.88 29.3 25.1c2.29 8.73 10.2 15.2 19.7 15.2 11.2 0 20.4-7.45 19.3-24.5-.6-9.63-5.02-25.3-28.4-35.6z" fill="url(#c)"/><g opacity=".2"><path d="m61.6 12.6c-8.02.34-16.5 3.61-23.1 9.21.29 1.77 1.95 2.98 3.72 2.71l3.96-.59-.02 5.88 29.3 25.1c2.29 8.73 10.2 15.2 19.7 15.2 1.3 0 2.57-.11 3.8-.31 2.26-5.87 3.78-12.7 3.78-21 0-17.1-16-37.3-41-36.2z" fill="url(#d)"/><path d="m62.8 6.96c7.51 0 14.8 1.61 22.4 4.93 16.9 7.44 26.3 19.2 27.3 33.9.47 7.59-1.19 13.6-4.8 17.5-3.01 3.2-7.33 4.89-12.5 4.89-8.33 0-15.6-5.63-17.7-13.7l-.16-.6-.47-.41-28.6-24.5.02-4.95.01-2.33-6.26.93c-.03 0-.06.01-.1.01-.49 0-1.04-.7-1.15-1.42l-1.17-9.09c-.06-.43-.02-.81.12-1.05.07-.12.19-.24.52-.29l.11-.02.1-.03 6.29-1.65c3.35-.77 6.64-1.36 8.16-1.54 2.05-.23 4.8-.51 7.95-.51m0-2c-3.09 0-5.81.26-8.19.54-1.64.2-5.05.81-8.4 1.58l-6.32 1.66c-1.8.27-2.59 1.82-2.33 3.61l1.16 9.05c.25 1.66 1.52 3.17 3.13 3.17.13 0 .26-.01.39-.03l3.96-.59-.02 5.88 29.3 25.1c2.29 8.73 10.2 15.2 19.7 15.2 11.2 0 20.4-7.45 19.3-24.5-.6-9.62-5.02-25.2-28.4-35.6-9.16-4.05-16.9-5.11-23.2-5.11z" fill="url(#b)"/></g><path d="m57.3 121c-11.8 0-17.1-7.03-17.1-13.6 0-3.19.47-5.49.92-7.71.78-3.82 1.51-7.43-.53-14.2-.77-2.54-2.62-4.88-4.77-7.59-2.17-2.73-4.63-5.83-6.47-9.8-5.98-12.9-5.69-25.6.81-35.8 6.24-9.77 17.5-16.1 28.6-16.1 10.6 0 21.3 4.57 28.7 12.2 5.73 5.94 8.76 12.9 8.53 19.6-.67 18.9-8.16 31.2-14.2 41.1-3.03 4.97-5.65 9.26-6.77 13.4-3.45 13-6.68 18.4-17.8 18.4z" fill="url(#e)"/><path d="m58.7 17.6c10.2 0 20.6 4.42 27.8 11.8 5.4 5.59 8.37 12.4 8.15 18.6-.65 18.6-8.04 30.7-14 40.4-3.09 5.06-5.75 9.43-6.92 13.8-3.48 13-6.35 17.4-16.5 17.4-10.8 0-15.8-6.33-15.8-12.2 0-3.05.45-5.28.89-7.44.81-3.99 1.58-7.76-.56-14.9-.84-2.79-2.77-5.22-5-8.03-2.12-2.67-4.53-5.7-6.31-9.53-5.77-12.4-5.51-24.7.73-34.5 6-9.4 16.8-15.5 27.5-15.5m0-2.68c-21.1 0-45.2 22.5-30.6 53.8 3.71 8 9.74 12.5 11.2 17.2 3.1 10.3-.45 12.6-.45 21.5 0 7.75 6.56 14.9 18.5 14.9s15.5-5.96 19.1-19.4c3.2-12 20-25.9 21-54.8.58-16.3-17.5-33.2-38.6-33.2z" fill="#eda600"/><path d="m88.1 50.6c.42-12.1-12.8-24.7-28.4-24.7s-33.2 16.7-22.5 39.9c2.73 5.94 9.27 8.67 10.8 12.4 1.54 3.71-.9 7.43-1.79 11.1-.91 3.75-1.39 7.1 1.4 9.03 6.26 4.34 6.92-9.2 15.4-9.63 8.35-.43 7.57 8.42 11.8-3.21 3.13-8.69 12.5-13.5 13.2-35z" fill="url(#f)"/><path d="m46.6 52.8c-.21-.3-.57.15-.39.47 1.42 2.45 4.46 5.9 7.67 6.68 4.73 1.16 9.8 2.89 12.6 7.26 5.8 8.92 2.09 19.2-7.56 22-1.61.47-1.33 1.04.28.57 9.76-2.85 15.6-11.5 11.4-21.4-4.93-11.8-17.1-5.81-24.1-15.6z" fill="#eda600" opacity=".8"/><path d="m36.1 42.8s13-17 31.2-11.6c8.54 2.57 15.4 10.7 16.8 19.6 1.49 10.1-10.2 36-10.2 36l2.93-4.15s14.5-21.7 11-35c-8.66-32.3-42.7-22.5-47.7-11.8-2.51 5.39-3.95 6.85-3.95 6.85z" fill="#eda600"/><path d="m44.2 71c-.94.01-1.92.22-2.9.7 2.67 2.18 5.56 3.8 6.72 7.41 1.67 5.23-.51 7.35-1.54 10.6.3.08.77.04 1.55-.27 1.61-.63 3.73-2.78 4.31-5.21.7-2.91.82-6.34-.99-9.26-1.07-1.74-3.9-4.06-7.15-4.01z" fill="#d48322"/><path d="m49.4 64.8-4.26 5.32.32 3.94h.01c-.14.24-.27.48-.39.73 1.26 1.16 2.33 2.49 2.94 4.37 1.14 3.57.48 5.69-.39 7.71 1.77 1.5 4.05 2.41 6.56 2.41 5.59 0 10.1-4.53 10.1-10.1-.01-2.69-1.06-5.12-2.77-6.93-.01-.01-.01-.01-.01-.02-2.54-3.16-12.1-7.42-12.1-7.42z" fill="url(#a)"/><path d="m49.4 64.8-4.26 5.32.32 3.94s-.16.28-.36.74c.54.5 1.05 1.03 1.5 1.63.29-.81.59-1.37.6-1.38l.3-.54-.05-.61-.26-3.14 2.8-3.49c3.54 1.68 8.43 4.36 9.93 6.14l.05.07.12.14c1.43 1.52 2.22 3.49 2.22 5.56 0 4.47-3.64 8.12-8.12 8.12-2.28 0-4.35-.95-5.83-2.47-.18.72-.44 1.39-.72 2.05 1.77 1.5 4.05 2.41 6.55 2.41 5.59 0 10.1-4.53 10.1-10.1 0-2.69-1.06-5.12-2.77-6.94-.01-.01-.01-.01-.01-.02-2.54-3.15-12.1-7.41-12.1-7.41z" opacity=".2"/><path d="m40.4 15.3s-10.6 4.26-13.8 13.9c-6.68 20.3 8 25 19.1 40.4" fill="none" stroke="#5d4037" stroke-miterlimit="10" stroke-width="3.19"/><g opacity=".54"><path d="m44 72.5c-.84-.77-2-1.68-3.41-2.79-9.27-7.3-26.5-20.9-18.6-42.2 4.75-12.7 15.1-15.9 17.4-16.4l1.87 8.42c-4.59 2.11-8.67 6.6-10.2 11.3-4.17 12.6 4.98 22.1 11.7 29.1 2.22 2.32 4.14 4.33 5.03 5.94l-3.81 6.66z" fill="#c0bfbc"/><path d="m39.1 11.7 1.67 7.53c-4.56 2.23-8.57 6.73-10.1 11.4-4.26 12.8 5.39 22.9 11.8 29.6 2.08 2.18 3.91 4.08 4.82 5.6l-3.36 5.88c-.8-.69-1.8-1.48-2.97-2.4-9.17-7.22-26.2-20.6-18.4-41.6 4.45-11.9 13.6-15.2 16.6-16m.76-1.2s-12.8 2.13-18.3 16.9c-9.59 25.6 17.2 40.6 22.6 46l4.26-7.45c-3.19-6.39-22.4-18.1-16.8-34.9 1.49-4.49 5.59-9.14 10.3-11.2l-2.07-9.31z" fill="#757575"/></g><path d="m42 71.2 3.1 3.3 6.5-8.7-4.3-2.1z" fill="#3d3846"/><path d="m47.6 65.1 2.31 1.15-4.92 6.61-1.68-1.77zm-.34-1.36-5.32 7.45 3.15 3.33 6.43-8.65z" fill="#212121" opacity=".2"/><path d="m48.4 16.9-9.68 4.53-1.05-8.38c-.53-1.96.06-3.87 2.66-4.41l5.94-1.32z" fill="#77767b"/><path d="m38.9 21.5-1.27-8.3c-.21-1.53-.26-3.88 2.25-4.45l6.32-1.66.49 2.07-4.58 1.01s-2.57.5-2.38 2.72l1.11 7.52z" fill="#212121" opacity=".2"/></svg>