<svg enable-background="new 0 0 128 128" viewBox="0 0 128 128" xmlns="http://www.w3.org/2000/svg"><path d="m123.96 22.25v93.12c0 1.93-.64 3.72-1.71 5.16-1.57 2.11-4.09 3.47-6.92 3.47h-102.66c-3.15 0-5.9-1.69-7.41-4.2-.77-1.29-1.22-2.81-1.22-4.42v-59.75l12.12-4.69 5.64-8.84s3.19-.15 7.2.97c4.01 1.11 12.18 4.75 13.15 5.12s19.09 2.75 19.09 2.75l24.52-9.72 12.47-30.75s1.56-.86 4.51-.37 6.93 2.99 6.93 2.99 4.91 1.99 8.54 4.48c4.28 2.93 5.76 4.69 5.76 4.69z" fill="#c0c0c0"/><path d="m98.23 10.46s9.12 19.99 9.66 22.58 1.09 5.18 1.5 6.41 4.91 15.4 4.36 16.36-9.13 2.18-10.77 3.14-8.86 12.95-9.81 14.04-4.77 6.54-4.77 6.54l-11.04 1.77-14.59-14.45-1.53-15.91s5.35-3.72 7.8-5.63 9.41-19.36 11.18-21.4 9.54-9.27 12.13-10.91 5.88-2.54 5.88-2.54z" fill="#dcdcdc"/><path d="m4.04 115.37v-59.75s6.52-6.23 8.7-8.28 5.32-5.18 6.54-5.18 2.51-.07 2.51-.07 2.8 11.93 3.89 16.02 2.86 7.63 2.86 7.63 0 1.64.55 2.45 17.45 25.63 17.45 25.63-12.68 7.77-14.72 8.72-14.04 7.77-16.49 7.91-9.91 1.78-11.29 4.91z" fill="#dcdcdc"/><path d="m122.25 120.53c-1.57 2.11-4.09 3.47-6.92 3.47h-102.66c-3.15 0-5.9-1.69-7.41-4.2 0 0 13.35.11 16.94-.05s13.48.48 17 .4 19.23-.72 22.18-.96 3.51-.16 5.03-.4 6.86-3.19 8.94-3.27 14.44 1.2 22.02 1.91 16.04 1.76 17.87 1.84c1.84.08 3.67-.19 4.23-.19s2.78 1.46 2.78 1.46z" fill="#899394"/><path d="m70.93 80.53-7.32-1.09 4.01 12.18 6.75-2.55-.85-6.19z" fill="#99674f"/><path d="m44.55 19.94-4.62 1.56s-.05.73.18 1.53c.17.59.51 1.34.32 2.31s9.82 7.13 9.82 7.13 1.2-.05 1.9.19 1.85 1.02 1.85 1.02l4.19-5.73-.75-9.73z" fill="#99674f"/><path d="m49.67 22.81s-2.87.89-4.87 1.55c-1.01.34-4.38.97-4.38.97s-.31.74-.68 1.27c-.42.58-.76.83-.8 1.39s.23.82.79 1.07 1.24.39 1.55.64.81 1.45 1.21 2.11 1.26 2.64 3.27 2.62c2.05-.02 3.5-1.01 4.66-1.83s1.63-1.85 1.63-1.85v-3.81l-2.41-4.14z" fill="#ba8d68"/><path d="m68.2 93.29s.52.98-.23 1.49-2.12 1.32-2.12 1.32l-3.91 2.58s-1.49.54-.63 2.41c.63 1.38 4.82.57 5.92.46s4.42-.8 4.42-.8l5.57-.92 2.07-13.04-10.45.92-.63 5.57z" fill="#5f6467"/><path d="m98.22 117.36c-11.09 0-20.11-9.26-20.11-20.63s9.02-20.63 20.11-20.63 20.11 9.25 20.11 20.63-9.02 20.63-20.11 20.63zm0-37.43c-9.03 0-16.14 7.29-16.14 16.56s7.11 17.04 16.14 17.04 16.38-7.54 16.38-16.8-7.35-16.8-16.38-16.8z" fill="#858585"/><path d="m98.33 119.04c-12.21 0-22.14-10-22.14-22.29s8.89-22.3 22.14-22.29c12.21 0 22.14 10 22.14 22.29s-9.93 22.29-22.14 22.29zm-.12-41.19c-10.54 0-18.33 7.4-18.33 18.02s7.79 19.87 18.33 19.87 18.71-8.27 18.71-18.89-8.17-18.99-18.71-18.99z" fill="#464c4f"/><path d="m98.26 90.39c4.04-.15 6.06 3.06 5.97 6.16-.09 2.81-2.32 5.85-5.72 5.77-4.24-.1-6.26-3.94-5.92-6.51.35-2.56 1.57-5.27 5.67-5.42z" fill="#9e9fa1"/><path d="m83.17 96.16-5.57.44.05 3.21 4.39.98z" fill="#454b4e"/><path d="m91.21 99.02 3.9-.25s1.23 1.38 3.55 1.33c1.82-.04 3.65-1.92 3.6-4.19s-1.87-3.6-3.94-3.65-3.16 1.38-3.16 1.38l-3.2-1.08-2.02 5.77 1.28.69z" fill="#5e6367"/><path d="m69.01 63.71-4.34.52s-3.03 3.64-3.07 7.32c-.04 3.56 1.74 6.63 1.74 6.63l8.9.4-.77-11.73-2.45-3.15z" fill="#5f6467"/><path d="m44.16 53.1-8.87 2.97-1.79 4.66s1.08 1.9 1.64 2.05 3.38-1.44 3.38-1.44l5.95-2.31 5.38-5.74-1.79-2.51z" fill="#99674f"/><path d="m37.24 68.02s-2.31-2.05-1.54-5.38 3.62-4.24 5.59-4.15c2.26.1 4.77.46 4.51 2.92s-2.1 1.64-2.46 1.64-2.06-.37-2.51 1.64c-.51 2.26 2.99 3.93 2.99 3.93l-5.15 2.63z" fill="#464c4f"/><path d="m29.39 120.32c-11.09 0-20.11-9.08-20.11-20.23s9.02-20.23 20.11-20.23 20.11 9.07 20.11 20.23-9.02 20.23-20.11 20.23zm0-36.7c-9.03 0-16.14 7.15-16.14 16.23s7.11 16.71 16.14 16.71 16.38-7.39 16.38-16.47-7.35-16.47-16.38-16.47z" fill="#858585"/><path d="m29.5 121.98c-12.21 0-22.14-9.81-22.14-21.86s8.89-21.86 22.14-21.86c12.21 0 22.14 9.81 22.14 21.86s-9.93 21.86-22.14 21.86zm-.12-40.39c-10.54 0-18.33 7.25-18.33 17.66s7.79 19.48 18.33 19.48 18.71-8.11 18.71-18.52-8.17-18.62-18.71-18.62z" fill="#464c4f"/><path d="m28.98 98.96s-.72 1.97.65 2.47c1.47.54 2.2-1.52 2.2-1.52l8.25-24.35s.8.41 1.1.76 20.57 21.91 21.4 22.57 1.6.95 3.44.95 5.76-.3 5.76-.3l4.16-12.29 3.16 1.3 2.04-7.24-34.72-12.34-2.6-.36 1.37 4.57s26.13 9.6 26.63 9.83.85.73.56 1.47-4.12 11.12-4.12 11.12l-4.12-.06-22.36-24.17-4.91 1.58-7.9 26z" fill="#464c4f"/><path d="m74.61 93.96c-2.45-.28-5.58.97-5.64 4.97-.04 3.22 2.37 4.92 5.1 4.92 3.09 0 5-1.48 5.06-5.19.04-2.73-2.15-4.43-4.52-4.7z" fill="#858585"/><path d="m84.07 101.08c-.13.42 1.12 2.2 1.49 2.24s6.61-3.82 6.68-4.21-.82-2.38-1.3-2.38-6.7 3.82-6.87 4.35z" fill="#474d51"/><path d="m73.33 76.46-.47 3.79 8.01 11.23 6.17-3.83s-3.2-5.32-4.16-6.99-3.27-5.5-3.27-5.5-6.28 1.3-6.28 1.3z" fill="#ba8d68"/><path d="m39.69 22.49c-.05.61-.02 1.98.66 3.05.1.16.59 0 1.07.46 1.56 1.49 2.44 1.78 3.15 1.68s1.98-1.37 2.89-2.74.86-2.34.46-3.1-.96-1.02-2.39-.91-5.77.74-5.84 1.56z" fill="#626667"/><path d="m26.94 104.97c3.18 2.23 6.71.99 8.19-1.81s.51-6.12-2.42-7.82-6.04-.44-7.47 2.02c-1.29 2.21-1.16 5.6 1.7 7.61z" fill="#9e9fa1"/><g fill="#9fa0a2"><path d="m25.29 99.57c-.11 0-.23-.03-.33-.08l-9.82-5.06c-.36-.18-.5-.62-.31-.98.18-.35.62-.5.98-.31l9.82 5.06c.36.18.5.62.31.98-.13.25-.38.39-.64.39z"/><path d="m25.97 97.32c-.18 0-.35-.06-.49-.2l-7.41-6.92c-.29-.27-.31-.73-.03-1.02.27-.29.73-.31 1.02-.04l7.41 6.92c.29.27.31.73.03 1.02-.14.15-.34.23-.53.24z"/><path d="m27.82 95.89c-.26 0-.5-.14-.64-.38l-5.04-9.23c-.19-.35-.06-.79.29-.98s.79-.06.98.29l5.04 9.23c.19.35.06.79-.29.98-.11.06-.23.09-.35.09z"/><path d="m19 111.77c-.19 0-.37-.07-.51-.21-.28-.28-.28-.74 0-1.02l7.09-7.1c.28-.28.74-.28 1.02 0s.28.74 0 1.02l-7.09 7.1c-.14.14-.33.21-.51.21z"/><path d="m38.25 113.22c-.22 0-.44-.1-.58-.29l-5.75-7.82c-.24-.32-.17-.78.15-1.01.32-.24.78-.17 1.01.15l5.75 7.82c.24.32.17.78-.15 1.01-.13.1-.28.14-.43.14z"/><path d="m42.16 109c-.14 0-.29-.04-.41-.13l-7.38-5.09c-.33-.23-.41-.68-.19-1.01.23-.33.68-.41 1.01-.19l7.38 5.09c.33.23.41.68.19 1.01-.14.2-.37.31-.6.31z"/><path d="m44.54 102.62s-.07 0-.1 0l-9.86-1.41c-.4-.06-.67-.42-.61-.82.06-.39.42-.67.82-.61l9.86 1.41c.4.06.67.42.61.82-.05.36-.36.62-.72.62z"/></g><path d="m32.36 84.78c-.56.13-4.52 12.93-4.33 13.74s4.46 2.26 4.89 1.95 4.46-13.41 4.46-13.81c0-.75-3.7-2.2-5.02-1.88z" fill="#5e6367"/><path d="m41.21 22.94c0 .69.71 1.83 1.37 2.44s1.37 1.02 1.93.71c.36-.2 1.53-1.41 1.93-2.44.21-.55.08-1.15-.1-1.47-.16-.28-1.28-.2-2.44 0-1.32.22-2.69.6-2.69.77z" fill="#e0e0e0"/><path d="m72.77 85.8c-.05-.29-2.62-1.28-3.31-1.24s-3.14 7.55-3 8.14 2.86 1.45 3.31 1.24 3.07-7.76 3-8.14z" fill="#858585"/><path d="m37.14 67.52c-.44.19-1.03.89-1.42 2.85-.33 1.64.51 2.61.68 2.75s4.37.88 5.05.98 20.17 21.46 20.48 21.52 4.81.19 4.91-.03-20.72-22.42-20.94-22.71c-.34-.44-.4-.93-.09-1.34s1.06-.22 1.6-.07 6.98 2.23 7.55 2.41c1.79.56 4.29 1.31 4.46.77.42-1.31-5.53-3.04-5.53-3.04s-7.28-2.59-9.41-3.33-6.25-1.22-7.35-.75z" fill="#5e6367"/><g fill="#9fa0a2"><path d="m102.24 112.08c-.33 0-.62-.22-.7-.55l-1.9-7.78c-.1-.39.14-.78.53-.88.39-.09.78.14.88.53l1.9 7.78c.1.39-.14.78-.53.88-.06.01-.12.02-.17.02z"/><path d="m108.12 108.47c-.21 0-.42-.09-.56-.26l-4.78-5.82c-.25-.31-.21-.77.1-1.02s.77-.21 1.02.1l4.78 5.82c.25.31.21.77-.1 1.02-.14.11-.3.16-.46.16z"/><path d="m111.97 103.48c-.12 0-.23-.03-.34-.09l-6.17-3.35c-.35-.19-.48-.63-.29-.98s.63-.48.98-.29l6.17 3.35c.35.19.48.63.29.98-.13.24-.38.38-.64.38z"/><path d="m95.27 90.69c-.25 0-.5-.13-.63-.37l-4.18-7.46c-.2-.35-.07-.79.28-.99s.79-.07.99.28l4.18 7.46c.2.35.07.79-.28.99-.11.06-.23.09-.35.09z"/></g><path d="m77.08 76.5 5.5-1.91s1.97 3.32 2.94 5.11c.97 1.78 3.42 6.25 3.42 6.25l-1.82 2.9z" fill="#99674f"/><path d="m48.31 49.87-5.02-1.23s-4 4.77-4.41 5.02-3.18.41-3.69 1.03-2.15 4.61-2.15 5.02.46 1.03.46 1.03 3.23-4 4-4.46c.38-.23 1.72-.2 3.13.21s3.15.85 3.38.72c.46-.26 4.82-5.07 4.82-5.07l-.51-2.26z" fill="#ba8d68"/><path d="m52.97 18.94-4.32.83 2.26 3.81s.08-1.05.59-1.81c.42-.61 1.16-.93 1.99-.81s1.13.91 1.15 1.53c.07 1.61-.83 2.34-.83 2.34l-.13 2.02s.14 1.07 1.03 1.28c1.06.25 1.75-.22 1.75-.22l8.77-4.06s1.21-1.05-.04-1.92c-.5-.34-1.38-.23-1.95-.58-1.4-.87-1.91-3.07-3.04-3.75s-7.23 1.34-7.23 1.34z" fill="#543930"/><path d="m42.06 31.08s.98-.55 1.59-.97 1.2-.87 1.6-.39-.32 1.44-.89 1.89-1.27.97-1.46.84c-.7-.47-.84-1.37-.84-1.37z" fill="#49352e"/><path d="m48.07 20.52s1.09 2.19 1.68 3.38 1.92 3.46 1.92 3.46-.44 4.86-.42 5.21c.03.56 1.29.59 1.36.03.05-.38.42-5 .42-5s1.44-1.42 2.97-3.88c1.85-2.97 2.46-4.68 2.46-4.68l-1.84.42s-1.23 2.59-2.03 3.92-2.06 2.72-2.06 2.72-.77-1.54-1.42-2.82-1.49-2.96-1.49-2.96l-1.57.2z" fill="#2f2f2f"/><path d="m36.03 18.58s.51 1.88 1.42 2.84 3.76.81 3.76.81l5.94-1.17s4.57-.46 6.75-.46 7.92.61 8.48.3 1.32-1.57 1.32-2.29v-1.68l-2.95-5.38-4.42-5.74-11.68.2s-.87.49-1.98 1.27c-1.02.71-1.42 1.32-1.42 1.32l-5.23 9.95z" fill="#2f2f2f"/><path d="m48.93 9.84 2.69 3.96-2.03 1.07s1.02 1.93 1.32 1.98 8.48-4.32 8.48-4.32 1.02 1.17 2.18 2.49c1.08 1.22 2.13 1.93 2.13 1.93s-.5-4.74-2.34-7.26-3.3-3.45-3.3-3.45l-1.73-.41-.15.61s2.29 3.5 2.18 3.76c-.05.13-1.18.71-2.34 1.27-1.07.52-2.16 1.04-2.34 1.02-.36-.05-2.74-4.11-2.74-4.11l-2.03 1.47z" fill="#5f6467"/><path d="m38.57 12.89-8.02 5.43s.25.48.81.51c1.88.1 4.47.03 8.58-.05 8.23-.15 8.84-.05 8.89-.46s-4.67-6.5-4.67-6.5-5.59 1.07-5.59 1.07z" fill="#5f6467"/><path d="m30.55 18.32c-.38-.88 2.48-3.54 6.86-6.86 2.74-2.08 3.86-2.84 3.86-2.84s2.49-.25 2.79 0 2.08 2.59 2.08 2.84-4.98 3.1-8.12 4.42c-3.15 1.32-7.16 3.15-7.46 2.44z" fill="#858585"/><path d="m44.67 6.03 3.45 4.67s3.76-1.93 5.99-2.89 3.96-1.57 3.96-1.57-1.57-2.17-6.5-2.23c-4.11-.05-6.91 2.03-6.9 2.02z" fill="#858585"/><path d="m47.18 44.08s-3.9 4.25-3.9 4.56 5.95 5.07 6.31 5.18 4.46-4.41 4.46-4.41z" fill="#2f2f2f"/><path d="m80.88 91.48 8.07-5.54 1.86 3.21 1.54 2.65-9.24 2.58z" fill="#5e6367"/><path d="m82.74 94.49c.05-.68 3.35-1.38 5.43-2 2.36-.71 4.13-.82 4.13-.82s1.56 2.38 1.41 3.16-3.79 2.97-5.88 4.46-7.1 4.12-8.74 4.39c-1.12.19-1.38-1.56-.45-2.94s3.64-4.46 4.02-4.91.04-.86.08-1.34z" fill="#2f2f2f"/><path d="m83.25 64.6-14.71-1.07.74 4.19s-1.54 2-1.21 3.8 1.33 4.06 2.4 5.59 1.86 3.13 2.4 3.13 4.59-2.73 6.06-3.66 3.6-1.71 3.66-2-.67-1.67-.67-2.01 1.8-2.65 1.8-2.65l-.47-5.33z" fill="#2f2f2f"/><path d="m73.52 51s-3.78 5.36-5.62 7.91-4.09 5.33-4 5.68 3.12 1.96 4 2.49 1.38.65 1.38.65l1.47-2.35 8.14-1.29 1.67 6.06s2.28 1.14 3.6 1.41 2.37-.44 3.16-1.67 8.26-13.44 10.02-18.98c1.19-3.76 1.32-5.62.79-7.56s-1.34-3.01-1.34-3.01l-13.42-.95-9.84 11.6z" fill="#de4e00"/><path d="m59.44 45.58s4.84 1.63 8.99 3.31 8.57 3.89 8.57 3.89 4.26-4.84 4.68-5.31-17.09-12.04-17.09-12.04-5.15 10.15-5.15 10.15z" fill="#5e6367"/><path d="m64.12 39.48s2.58.26 6.26 1.89 6.63 3 8.36 4.1c1.74 1.1 2.94 2 2.94 2s2.96-3.48 3.45-3.95-1.3-5.62-1.3-5.62l-15.78-5.1-3.94 6.68z" fill="#f77300"/><path d="m70.74 65.38s6.76-11.49 7.17-11.95 5.8-6.15 6.81-6.81 5.53-1.89 6.26-1.68.81 4.17.1 6.1-10.63 19.02-10.63 19.02-4.32-1.58-6.76-3c-1.26-.73-2.95-1.68-2.95-1.68z" fill="#f77300"/><path d="m46.6 44.27c-.25-.58 6.45-9.12 7-10.7s2.95-5.92 4.22-7.19 3.18-2.51 6.03-2.3c2.86.21 9.85 3.15 13.24 4.53s13.34 6.03 16.2 8.15 3.49 3.6 3.49 3.6-5.29.12-7.2.64c-2.75.74-4.45 2.54-4.45 2.54s-1.25-1.36-3.6-2.65c-4.92-2.68-11.42-5.76-11.9-5.76s-5.52 5.18-6.57 6.34-7.2 9.47-7.94 9.57-8.22-6.05-8.52-6.77z" fill="#858585"/></svg>