<svg enable-background="new 0 0 128 128" viewBox="0 0 128 128" xmlns="http://www.w3.org/2000/svg" xmlns:xlink="http://www.w3.org/1999/xlink"><clipPath id="a"><path d="m77.6 48.8c7-1.4 13.8-.7 17.2-.2 3.8.5 9.1 1.3 13.2 3.2 4.7 2.1 5.9 5.7 6 10 .1 4-1.1 6.4-2.5 7.7 4.2 2.3 5.2 5 5 9.5-.2 4-2 7.1-5.6 8.9 2.9 3.1 3.5 5.5 3 10.2-.4 4.4-2.1 7-9 9 1.3 1.4 1.7 3.8 1.6 6-.2 2.6-1 5.1-4.6 6.9-1 .5-6.9 3.4-19.2-.5-10.4 1.8-24.9.9-36.4-4.6-10.9-.1-23.8-1-24.8-1-1.1 0-3.2-.5-4.2-3.3s-4.1-23.9-1.2-36.6c.4-1.8 1.9-2.8 3.2-2.9s8.6-.9 10.3-1.1c9-1.1 6.8-8.9 17.2-21.3 4.9-5.9 14.9-10 15.5-23.1.2-4.4.5-11.6.5-12.6 0-6.3 12.2-7.5 16.6 1.2 7.9 15.5 1.4 23.1-1.8 34.6z"/></clipPath><clipPath id="b"><path d="m77.6 48.8c7-1.4 13.8-.7 17.2-.2 3.8.5 9.1 1.3 13.2 3.2 4.7 2.1 5.9 5.7 6 10 .1 4-1.1 6.4-2.5 7.7 4.2 2.3 5.2 5 5 9.5-.2 4-2 7.1-5.6 8.9 2.9 3.1 3.5 5.5 3 10.2-.4 4.4-2.1 7-9 9 1.3 1.4 1.7 3.8 1.6 6-.2 2.6-1 5.1-4.6 6.9-1 .5-6.9 3.4-19.2-.5-10.4 1.8-24.9.9-36.4-4.6-10.9-.1-23.8-1-24.8-1-1.1 0-3.2-.5-4.2-3.3s-4.1-23.9-1.2-36.6c.4-1.8 1.9-2.8 3.2-2.9s8.6-.9 10.3-1.1c9-1.1 6.8-8.9 17.2-21.3 4.9-5.9 14.9-10 15.5-23.1.2-4.4.5-11.6.5-12.6 0-6.3 12.2-7.5 16.6 1.2 7.9 15.5 1.4 23.1-1.8 34.6z"/></clipPath><path d="m77.6 48.8c7-1.4 13.8-.7 17.2-.2 3.8.5 9.1 1.3 13.2 3.2 4.7 2.1 5.9 5.7 6 10 .1 4-1.1 6.4-2.5 7.7 4.2 2.3 5.2 5 5 9.5-.2 4-2 7.1-5.6 8.9 2.9 3.1 3.5 5.5 3 10.2-.4 4.4-2.1 7-9 9 1.3 1.4 1.7 3.8 1.6 6-.2 2.6-1 5.1-4.6 6.9-1 .5-6.9 3.4-19.2-.5-10.4 1.8-24.9.9-36.4-4.6-10.9-.1-23.8-1-24.8-1-1.1 0-3.2-.5-4.2-3.3s-4.1-23.9-1.2-36.6c.4-1.8 1.9-2.8 3.2-2.9s8.6-.9 10.3-1.1c9-1.1 6.8-8.9 17.2-21.3 4.9-5.9 14.9-10 15.5-23.1.2-4.4.5-11.6.5-12.6 0-6.3 12.2-7.5 16.6 1.2 7.9 15.5 1.4 23.1-1.8 34.6z" fill="#ffca28"/><g clip-path="url(#a)" fill="#faa700"><path d="m16 72.2c.1 1.5 0 3.7 2.8 3.7s9.5-.7 10.9-.9c2.7-.3 7-2.5 8.6-6 1.4-2.9 4.7-10.5 4.7-10.5s7-20 9.6-20.3c4.1-.5 11.9-1.4 11.9-13 0-3.6.4-9 .4-10 .3-7.7 8.9-4.8 12.3-1.1l3.6-3-6.4-5.7s-13.4.7-13.3.8c.3.1-45.1 66-45.1 66z"/><path d="m16.6 110.8 27.5 1v4.2l-26.7-1.4z"/><path d="m111.4 48.6 7 12.6-1.8 41.7-13.4 20.3-20-.5s-5.6-11.3-6.4-13.4c-.8-2-3-6-7.3-12.2-4.2-6.2-1.3-11.6 1.6-13.7 1.7-1.2 3.1-5.2 3.3-7.6s1-20.7 1.2-26.1 5.1-6.7 7.2-6.7zm-19.8 7c-3.6.4-5.4 4.5-5.4 8.8.1 7.2 2.9 7.1 5.9 7.7.8.2 1.2 1.5 0 1.7-5.2.5-6.2 5-6.2 8.5 0 6.6 4.8 7.2 5.6 7.2 1.3.1 1.7 1.7 0 1.8-3.3.2-5.3 3.5-5.3 7.4 0 3 .9 6.1 6.1 7.6.6.2 1.5 1.6-.2 1.8-4.5.7-4.6 2.9-4.7 5.8 0 3.3 1.6 4.3 3.6 4.9 1.7.4 5.1.5 7 .2 4.6-.8 8.4-5.9 4.4-11.4-.8 0-5.8 0-6.4 0s-.6-.8.2-.8c10.9-.6 14.1-4.5 14.7-8.9.4-3.2-.5-6.5-3.2-8.9-.4-.4-1-.2-1.7-.2 12-6.5 7.6-16.6 1.8-17.6-1.1-.2-2.1-.3-1.1-.7 5.9-2.1 7.4-18.5-6-18 .2 0-6.2 2.8-9.1 3.1z"/></g><g clip-path="url(#b)" fill="#b55e19"><path d="m31.3 68.3c.8 2.7 4 2.5 5.8.6 4.4-4.9 7.7-14.3 11.9-18.6 6.9-7.1 14.6-12.6 14.6-20 0-2.4 1-8.8-2.1-10.1-1.6-.7-2.8.5-2.8 1.4 0 1-.7 10.5-.7 10.5z"/><path d="m72.7 7.1c-.4 1.1-.2 2.4 1.4 3.9 15.1 14-.7 31.5-.5 40.6.1 2.5 0 18.6-.2 20.3-1.6 10.9-8 14.8-11.6 16.9-.5.3-.4 1.4.4 1.2.7-.2 8-1.6 11.9-9 .3 2.2 2.6 6.2 4.5 7-2 .9-7.5 9.1 1.4 16.5-3.4 1.3-5.8 7.9-.9 12.2-3.5 1.1-22 1.4-32.7-5.6-1-.7-2.7-.5-3.5.3-.9.8-1.4.8-1.9.7s-14.9.6-15.9.6-3.2.2-3.2 1.6 24.6 1.6 24.6 1.6l13.6 6 23.3-.9s13.9 1.3 12.1.9-10.6-2.4-14.5-6.5c-4.5-4.9-.6-8.1.5-8.4.7-.2 1.5-.4 2.6 0 1.2.4 14 3.5 20.2.6.8-.4.5-.9-.2-.9-10.2.5-18.9-1.2-23-4.7-5.9-5.1-3.3-10.6-1.3-11.8.7-.4 1.5-.3 1.9-.1 8 3.4 24.1 1.5 28.7-1.4.5-.3.3-1-.4-.8-1.5.4-22.2 4.1-29.4-1.8-5-4.1-5.9-8.6-2.6-12.1 1-1.1 2.8-.8 3.2-.7 13.2 2.7 27.2 0 29.7-2.6.6-.6.3-1.4-.7-1.1-3.5 1.1-17.5 3-23.8 2.2-1.6-.2-3.2-.4-5.4-1.9-1.2-.8-2.6-1.8-3.6-2.8s-1.9-2.9-1.5-6.4c.2-2 1.3-4 4.8-4.7 2-.4 5.2.3 6.1.5s2.6.2 3.7-.1c1.8-.5 7.8-2.1 11.6-2.4 1.2-.1 1.4-1.5-.1-1.6-1.4-.1-6.8-.2-10.9.8-.5.1-.8-.2-.5-.5.3-.4 1.1-1 1.3-1.2.3-.2.4-1.2-1.1-.8-.9.2-2.5 1.3-3.3 2.4-.4.6-1.1.7-1.5.7-4.8-.3-7.8.2-9.4 1.9-.1-2.5.3-5.2.8-6.6.3-.9 8.9-9 8.2-23.4-.7-14.8-11.2-22.9-12.9-18.6z"/></g></svg>