<svg enable-background="new 0 0 128 128" viewBox="0 0 128 128" xmlns="http://www.w3.org/2000/svg" xmlns:xlink="http://www.w3.org/1999/xlink"><clipPath id="a"><path d="m93.3 60c.2.3.7.1.7-.2.6-5.4 2.2-20.3 12.8-23.5 3.4-1 6.8 1.4 7.2 4.5.7 5-5 17.9-4.5 29.7.1 1.9 3.3 22-5.2 33.9s-28.7 24-48.8 5.6c-10.4-9.5-10.4-13.3-23.3-26.6-2.6-2.6-13-14-15.8-17.5-3.7-4.7 2.2-10.9 6.7-7.7 2.1 1.5 20.7 17.1 21.4 17.8 1.4 1.2 3.1-.5 2.1-1.7-11.4-15-22.4-28.5-25.4-33.7s4.2-10.8 8.4-6.3c2.9 3 24.4 28.1 25.4 29.2s2.7-.3 2.1-1.7c-.7-1.3-18.1-31.6-21.2-38.5-2.7-6.1 6.3-11.8 10.5-5.5 3.4 5 22.4 36.6 23.1 37.7.9 1.6 2.9.6 2.1-1.2-.6-1.3-12.3-33.3-13.2-36.6-1.6-5.8 6.7-10.6 10.6-4 5.3 9.1 15.8 36.9 24.3 46.3z"/></clipPath><clipPath id="b"><path d="m93.3 60c.2.3.7.1.7-.2.6-5.4 2.2-20.3 12.8-23.5 3.4-1 6.8 1.4 7.2 4.5.7 5-5 17.9-4.5 29.7.1 1.9 3.3 22-5.2 33.9s-28.7 24-48.8 5.6c-10.4-9.5-10.4-13.3-23.3-26.6-2.6-2.6-13-14-15.8-17.5-3.7-4.7 2.2-10.9 6.7-7.7 2.1 1.5 20.7 17.1 21.4 17.8 1.4 1.2 3.1-.5 2.1-1.7-11.4-15-22.4-28.5-25.4-33.7s4.2-10.8 8.4-6.3c2.9 3 24.4 28.1 25.4 29.2s2.7-.3 2.1-1.7c-.7-1.3-18.1-31.6-21.2-38.5-2.7-6.1 6.3-11.8 10.5-5.5 3.4 5 22.4 36.6 23.1 37.7.9 1.6 2.9.6 2.1-1.2-.6-1.3-12.3-33.3-13.2-36.6-1.6-5.8 6.7-10.6 10.6-4 5.3 9.1 15.8 36.9 24.3 46.3z"/></clipPath><path d="m93.3 60c.2.3.7.1.7-.2.6-5.4 2.2-20.3 12.8-23.5 3.4-1 6.8 1.4 7.2 4.5.7 5-5 17.9-4.5 29.7.1 1.9 3.3 22-5.2 33.9s-28.7 24-48.8 5.6c-10.4-9.5-10.4-13.3-23.3-26.6-2.6-2.6-13-14-15.8-17.5-3.7-4.7 2.2-10.9 6.7-7.7 2.1 1.5 20.7 17.1 21.4 17.8 1.4 1.2 3.1-.5 2.1-1.7-11.4-15-22.4-28.5-25.4-33.7s4.2-10.8 8.4-6.3c2.9 3 24.4 28.1 25.4 29.2s2.7-.3 2.1-1.7c-.7-1.3-18.1-31.6-21.2-38.5-2.7-6.1 6.3-11.8 10.5-5.5 3.4 5 22.4 36.6 23.1 37.7.9 1.6 2.9.6 2.1-1.2-.6-1.3-12.3-33.3-13.2-36.6-1.6-5.8 6.7-10.6 10.6-4 5.3 9.1 15.8 36.9 24.3 46.3z" fill="#ffca28"/><g clip-path="url(#a)" fill="#faa700"><path d="m91.2 60.2c-12.4 10.1-17.9 24.5-7.7 39.5.9 1.3 2.8.1 2-1.4-4.2-7.5-7.3-21 7.2-35.1 1.7.8 3.7-.9 3.8-2.4 1.1-9.4 2.2-17.2 9.2-21.6 2.7-1.7 6.2-.5 6.4 3.6 0 0 2.2.2 3.1.3.5-2.1 1.5-5.9 1.5-6s-11.8-4.5-11.8-4.5l-10.3 10.2z"/><path d="m71.2 56.1c1.4-.7 2.6-1.8 2-3.3-.6-1.6-11.7-31.8-12.4-34.1-1.4-4.2 2.1-7.5 5.2-6.1 1.7.8 2.5-1.9 1.6-2.3s-3-2.3-7.2-.2c-7.5 3.8-3.1 12.2-1.1 17.1s11.9 28.9 11.9 28.9z"/><path d="m56.7 63.6c1.7-1.2 3-2.2 1.5-4.6-1-1.6-17.9-32.3-19.6-35.3-2.5-4.3 2.7-8.1 5.6-5.4 1.3 1.2 3.3-1.4 2.3-2.4s-4.5-3.9-8.9-1-4.5 6.4-3.9 7.9c.5 1.5 23 40.8 23 40.8z"/><path d="m46.7 75.9c1.2-1.8 2-2.7.3-5s-21.9-28.7-23-30.2c-2.8-3.7 1.3-6.9 3.3-5.8 1.9 1.1 3-2 1.4-2.8s-4.2-1.7-6.6 0-3.8 5.2-3.4 7.2c.3 2 28 36.6 28 36.6z"/><path d="m92.8 113.6c-16.2 7.7-28.3 1.7-36.1-5.9-8.9-8.7-13.1-16.7-19-22.1-2-1.9-17.8-18.7-19.7-21.6-1.5-2.4 1.5-6.5 4.8-4.2 2.1 1.4 3.1-1.6 1.7-2.4s-4.5-2.5-7.8 0c-3.3 2.4-3.4 6.7-2.6 8.1s49.4 57.2 49.4 57.2l19.8-.5 10.6-6.5z"/></g><g clip-path="url(#b)" fill="#b55e19"><path d="m111.5 36c.5 1.3 1.1 3.6.5 6.7-2.3 11.6-6.1 18.4-4.9 30.9 2.2 24-6.2 42.2-35.1 45.8-2.9.4-2.1 2.6-.6 2.4.7-.1 21.3-3.8 21.3-3.8s19.1-16.3 19.1-16.5 4.8-62.4 4.8-62.4z"/><path d="m61.5 10.5c1.3.2 4.1 1.3 6.1 5.2s11.8 26.4 13.1 28.8 6.6 14.3 10.9 17.9c1.4 1.1 2.1-.8 2.1-.8l.1-3.1-23.2-52.8-7.7.3z"/><path d="m71.2 56.1c-1.9.9-3.3 1.7-4.7-.5-.9-1.6-10.6-18.2-22.8-37.6-1-1.5-3.3-2.8-5.1-2.1-1.8.8-2.2-1.5-1.3-2s6.5-3.6 10.3 2.8 23.6 39.4 23.6 39.4z"/><path d="m56.7 63.6c-1.5 1.1-3 2.5-4.9.2-1.8-2.2-22.3-26.6-23.5-28.1s-3.7-2.8-5.6-1.6c-1.3.8-2.5-1.6-1.7-2.2s5.3-4.6 8.3-1.2 27.4 32.9 27.4 32.9z"/><path d="m46.7 75.9c-1.3 1.4-2.7 2.2-4.6.8s-18.9-15.7-20-16.7-4.3-2.5-6.7-.1c-.9.9-2.5-.6-1.6-1.5.9-1 5.8-6 9.7-2.7s23.2 20.2 23.2 20.2z"/></g><g fill="#b0bec5"><path d="m10.6 81.3c3.1 9.2 7.8 14.9 15.5 20.1 1.4 1 .6 3-1 2.3-7.2-2.9-15.2-9.3-17.1-22-.3-1.7 2.1-2 2.6-.4z"/><path d="m16.6 75.8c3.1 9.2 7.8 14.9 15.5 20.1 1.4 1 .6 3-1 2.3-7.2-2.9-15.2-9.3-17.1-22-.2-1.7 2.1-2 2.6-.4z"/><path d="m93.5 34.6c-2.4-9.4-6.8-15.4-14.1-21-1.4-1-.4-3 1.2-2.3 7 3.3 14.6 10.3 15.6 23.1.1 1.7-2.3 1.9-2.7.2z"/><path d="m100 29.8c-2.4-9.4-6.8-15.4-14.1-21-1.4-1-.4-3 1.2-2.3 7 3.3 14.6 10.3 15.6 23.1.1 1.6-2.2 1.8-2.7.2z"/></g></svg>