<svg enable-background="new 0 0 128 128" viewBox="0 0 128 128" xmlns="http://www.w3.org/2000/svg" xmlns:xlink="http://www.w3.org/1999/xlink"><radialGradient id="a" cx="55.2159" cy="35.0908" gradientTransform="matrix(1 0 0 1.0089 0 -.3121)" gradientUnits="userSpaceOnUse" r="22.3828"><stop offset=".5219" stop-color="#80deea" stop-opacity="0"/><stop offset="1" stop-color="#80deea"/></radialGradient><radialGradient id="b" cx="35.8091" cy="43.7572" gradientTransform="matrix(1 0 0 1.0089 0 -.3891)" gradientUnits="userSpaceOnUse" r="11.565"><stop offset=".545" stop-color="#80deea" stop-opacity="0"/><stop offset="1" stop-color="#80deea"/></radialGradient><radialGradient id="c" cx="50.3678" cy="26.2434" gradientTransform="matrix(1 0 0 1.0089 0 -.2334)" gradientUnits="userSpaceOnUse" r="21.3675"><stop offset=".6007" stop-color="#fff" stop-opacity="0"/><stop offset="1" stop-color="#fff" stop-opacity=".8"/></radialGradient><linearGradient id="d"><stop offset=".3759" stop-color="#80deea" stop-opacity="0"/><stop offset="1" stop-color="#80deea" stop-opacity=".8"/></linearGradient><radialGradient id="e" cx="85.5637" cy="97.9075" gradientUnits="userSpaceOnUse" r="9.1951" xlink:href="#d"/><radialGradient id="f" cx="99.1163" cy="87.032" gradientUnits="userSpaceOnUse" r="14.931" xlink:href="#d"/><linearGradient id="g"><stop offset=".5573" stop-color="#fff" stop-opacity="0"/><stop offset="1" stop-color="#fff" stop-opacity=".8"/></linearGradient><radialGradient id="h" cx="101.3854" cy="61.0873" gradientUnits="userSpaceOnUse" r="7.785" xlink:href="#g"/><radialGradient id="i" cx="75.8437" cy="30.8364" gradientTransform="matrix(1 0 0 1.0089 0 -.2742)" gradientUnits="userSpaceOnUse" r="9.5558" xlink:href="#g"/><radialGradient id="j" cx="44.8989" cy="46.9596" gradientTransform="matrix(1.0499 -.6062 .4922 .8525 -26.9927 36.7772)" gradientUnits="userSpaceOnUse" r="9.7446" xlink:href="#g"/><radialGradient id="k" cx="57.5404" cy="49.9874" gradientTransform="matrix(1 0 0 1.0089 0 -.4445)" gradientUnits="userSpaceOnUse" r="7.8247" xlink:href="#g"/><path d="m53.31 14.36c9.72 0 19.58 6.6 19.58 16.32s-9.87 18.86-19.58 18.86c-5.23 0-11.72-1.59-14.95-5.22 0 0-2.91-3.84-2.65-12.37.31-9.71 7.89-17.59 17.6-17.59z" fill="url(#a)" opacity=".7"/><circle cx="34.29" cy="42.17" fill="url(#b)" opacity=".7" r="11.78"/><path d="m11.92 54.31c13.95-13.66 98.74-20.54 104.77-13.37 3.46 4.11 7.12 10.99 7.29 16.05.28 8.53-3.05 15.16-7.81 19.47-2.58 2.33-7.4 6.03-10.3 7.94-12.72 8.39-26.11 17.4-37.5 23.75-10.74 5.99-19.96 7.57-28.96 2.24-2.77-1.64-16.85-9.86-25.35-16.94-6.49-5.39-10.26-15.87-10.05-22.81.14-4.87 3.24-11.76 7.91-16.33z" fill="#f47fac"/><path d="m15.45 51.44c16.34-10.68 48.44-28.83 54.3-31.52 4.86-2.23 10.98-3.1 21.66 2.18 0 0 9.9 4.82 17.25 10.64 7.06 5.59 13.4 12.03 6.97 20.1-2.16 2.72-7.4 6.03-10.3 7.94-12.72 8.39-26.11 17.4-37.5 23.75-10.74 5.99-19.96 7.57-28.96 2.24-2.77-1.64-16.39-10.46-25.35-16.94-10.06-7.27-3.45-14.87 1.93-18.39z" fill="#f47fac"/><path d="m18.23 51.54c15.29-9.99 45.62-26.91 51.11-29.42 4.55-2.08 10.28-2.9 20.27 2.04 0 0 9.26 4.51 16.14 9.95 6.61 5.23 12.54 11.25 6.52 18.81-2.02 2.55-6.93 5.64-9.64 7.43-11.9 7.85-24.43 16.28-35.09 22.22-10.05 5.6-18.68 7.08-27.1 2.1-2.59-1.54-15.34-9.79-23.72-15.85-9.42-6.8-3.52-14 1.51-17.28z" fill="#ffb6c1"/><path d="m8.05 71.15c-.78 1.15-1.01 2.74-1.04 4.2-.24 11.81 14.27 20.21 22.88 26.23 4.28 3 8.64 5.51 14.05 5.41 2.04-.04 4.16-.7 5.54-2.21 1.9-2.09 1.98-5.22 1.85-8.05-.06-1.24-.18-2.59-1.04-3.48-.56-.57-1.35-.86-2.1-1.14-7.33-2.74-23.02-13.48-30.39-18.85-2.62-1.9-6.73-6.57-9.75-2.11z" fill="#ff97ab"/><path d="m114.85 53.61c-.83 1.2-1.93 2.29-2.26 3.71-.45 1.96.71 3.89 1.2 5.84.63 2.54.14 5.31 1.1 7.74.17.43.43.88.86 1.05.69.26 1.4-.31 1.87-.88 2.31-2.78 4.2-7.57 4.26-11.18.04-2.68-.93-7.7-2.67-9.89-2.11-2.65-3.31 2.08-4.36 3.61z" fill="#ff97ab"/><path d="m21.43 85.23c-.44-1.07-1.37-1.88-2.36-2.47-.24-.14-.49-.28-.66-.5-.42-.53-.25-1.28-.27-1.95-.05-1.44-1.19-2.76-2.61-3.02-.68-.12-1.47 0-1.91.54-1.12 1.4-.12 3.32.62 3.97.45.39 1.65.62 1.43 1.68-.04.19-.13.36-.21.53-.36.76-.43 1.66-.19 2.47.45 1.51 1.86 2.35 3.37 2.49.75.07 1.56-.07 2.14-.54.92-.75 1.09-2.13.65-3.2z" fill="#ffb6c1"/><path d="m55.21 103.43c.99.2 1.93.99 1.98 2 .04.76-.42 1.49-1.03 1.94-.61.46-3.45 2.45-6.31.55-.45-.3-.69-.84-1.04-1.26s-.83-.79-1.37-.78c-2.5.03-1.13-3.08 1.03-2.13.83.37 1.47.71 2.41.52 1.48-.29 2.75-1.16 4.33-.84z" fill="#ff97ab"/><path d="m64.43 93.49c-.93.8-1.64 1.86-2.02 3.02-.17.52-.26 1.15.1 1.56.3.35.82.42 1.28.39 1.35-.07 2.63-.72 3.67-1.58.99-.82 2.69-3.1 1.09-4.19-1.17-.79-3.2.01-4.12.8z" fill="#ff97ab"/><path d="m53.31 14.36c9.72 0 19.58 6.6 19.58 16.32s-9.87 18.86-19.58 18.86c-5.23 0-11.72-1.59-14.95-5.22 0 0-2.91-3.84-2.65-12.37.31-9.71 7.89-17.59 17.6-17.59z" fill="url(#c)"/><path d="m76.37 95.24c2.47-7.08 9.59-5.7 9.59-5.7 6.59.63 9.46 11.32 9.46 11.32s-5.72 7.85-14.71 4.85c-4.52-1.52-6.02-5.65-4.34-10.47z" fill="url(#e)"/><path d="m86.04 89.54c1.79-10.41 9.7-16.02 19.19-14.98 4.98.55 10.37 8.63 7.43 17.68-2.52 7.75-11.62 9.9-17.23 8.61-9.88-2.25-9.39-11.31-9.39-11.31z" fill="url(#f)"/><circle cx="101.25" cy="61.06" fill="url(#h)" r="8.12"/><path d="m57.64 18.2c2.61.99 4.89 3.02 5.84 5.65.55 1.53.5 3.53-.84 4.45-.84.57-2.48.94-5.78-1.5-5.19-3.84-6.64-.5-11.27-1.63-3.59-.87-1.96-3.81-1.32-4.55 3.13-3.63 9.17-4.02 13.37-2.42z" fill="#fff" opacity=".9"/><path d="m25.91 40.7c.43.26 1 .12 1.43-.15.98-.6.65-2.25 2.61-4.05.36-.33 1.69-1.63.83-2.5-1.13-1.14-3.23-.29-4.56 1.48-1.49 2-1.68 4.4-.31 5.22z" fill="#fff" opacity=".9"/><path d="m69.02 41.08s-2.91-3.12-2.35-10.69c.41-5.52 3.65-8.03 3.65-8.03s9.14-1.43 13.66 3.48c3.62 3.93 2.82 9.03-1.58 12.29-6.72 4.97-13.38 2.95-13.38 2.95z" fill="url(#i)"/><path d="m54.2 48.61c.61 3.3-1.48 7.76-5.34 9.99-4.63 2.67-13.01 1.28-15.16-2.71-1.71-3.18-2.27-12.87 5.9-15.91 11.03-4.13 14.47 7.97 14.6 8.63z" fill="url(#j)"/><path d="m63.24 55.27c-4.67 5.02-11.74 1.17-11.74 1.17-4.11-6.41-.18-13.54-.18-13.54s9.98-2.71 13.4 2.55c.01.01 3.36 4.63-1.48 9.82z" fill="url(#k)"/><path d="m42.68 44.69c-.03.64-.41 1.2-.77 1.72-.8 1.14-1.59 2.27-2.39 3.41-.37.53-1.48 2.38-3.09 1.75-.53-.21-.87-.73-1.06-1.27-.73-2.05.27-5.4 2.17-7.03 1.87-1.61 5.25-1.05 5.14 1.42z" fill="#fff" opacity=".9"/><path d="m101.26 55.42c.57.28.99.92.86 1.55-.15.75-.95 1.15-1.58 1.59-.6.41-1.12.92-1.53 1.52-.27.39-.5.82-.82 1.18s-.76.65-1.24.64c-.45-.01-.87-.28-1.12-.64-1.92-2.82 2.61-7.23 5.43-5.84z" fill="#fff" opacity=".9"/><path d="m86.04 89.54s3.64.19 6.24 4.48c2.28 3.75 3.14 6.84 3.14 6.84s-4.69-.83-7.29-4.55c-2.27-3.26-2.09-6.77-2.09-6.77z" fill="#80deea" opacity=".43"/><path d="m36.24 38.68s-.87-4.16-.41-8.19c0 0 2.36.23 4.33 1.46 2.31 1.45 3.13 2.61 3.13 2.61z" fill="#80deea" opacity=".5"/><g fill="#fff"><path d="m71.01 25.33c-1.45 1.07-2.51 2.34-2.62 4.14-.04.6.06 1.27.51 1.66 1.67 1.41 3.19-1.51 5.88-1.89 4.73-.66 3.98-3.51 1.64-4.49-1.56-.66-3.52-.81-5.41.58z" opacity=".8"/><path d="m101.68 77.44c2.87 1.21 1.74 3.72.77 3.99-3.32.94-3.87 2.44-4.71 3.09-.84.66-1.78 1.25-2.83 1.42s-2.25-.18-2.83-1.07c-1.27-1.95.81-4.51 2.23-5.79 1.97-1.78 4.86-2.7 7.37-1.64z" opacity=".8"/><path d="m84.92 91.44c4.26 0 4.88 2.5 4.73 3.02-.47 1.64-2.35 1.03-2.92.98-.89-.07-1.79 0-2.66.21-.65.16-1.29.4-1.96.44-1.44.1-2.71-1.19-1.9-2.58.74-1.27 3.4-2.07 4.71-2.07z" opacity=".8"/></g></svg>