<svg enable-background="new 0 0 128 128" viewBox="0 0 128 128" xmlns="http://www.w3.org/2000/svg"><path d="m118.9 9.2c.1-1.3-.9-2.3-2.2-2-4.5 1-14.4 2.9-23.7 2.7-8.1-.2-13.3-1.4-16.2-2.3-1.3-.4-2.4.5-2.3 1.9.8 12.5 2.3 35.6 2.3 38.9-.1 3.4.2 8.3-4.7 14.2s-15 14-21.4 17.9c-8.8 5.5-24.3 13-26.6 14.2-4.6 2.3-10.7 3.5-15.3 4.5-4.2.9-4.1 6.2-1.3 8.6.9.8 2.3 1.5 4.2 1.8-.1.5-.9 3.6 2.4 4.4 2.5.6 3.9-.9 3.9-.9-.6 2.6 1.6 4.7 4.1 4.9s4.3-2 4.3-2-1.4 4.9 4.5 4.8c3.4-.1 4.5-3.4 4.5-3.4s-.8 2.5 1.3 4.1c1.2.8 3.8 1.2 4.5 1s6-3.1 9.2-3.1c3.3 0 8.3.1 13.5-1.5 5.1-1.6 13.7-5.6 17.5-7.4 3.7-1.8 16.2-6.5 28.4-10.1 12.3-3.7 12.9-12.5 12.9-16.6 0-4.9-4.5-13-5.7-17.4-2.2-8.9-1.9-13.5-1.9-17.9 0-3.1 2.6-27.8 3.7-39.3z" fill="#ffca28"/><path d="m117.17 7.15c-.15 0-.31.01-.47.05-1.56.35-3.77.8-6.39 1.24-.32 9.28-1.38 41.09-1.21 46.46.1 2 1.5 9.4 1.9 11.4 1.6 7.3-.9 8.6-1.6 10-1.4 2.9 5.6 15.1-10.1 21.1-1.9.7-3.8 1.3-5.7 1.9-12.5 4-22.7 13.3-36 15.3-1.5.1-9-.1-14.4 3.4-1.2.7-2.5 1.7-4.9 1.3-4-.7-2.4-2.3-2.5-3.4 0-.4-.1-1.3-1.4-.7-1.3.4-6.1.8-7.4-1.9-.3-.6-.1-1.7-.9-1.3s-2.7 1.5-4.9.3c-2.8-1.6-.7-2.3-1.6-3.5-.2-.3-.6-.4-.8-.3-2.9 1.7-5.8-.6-5.1-2.7.1-.9 2.9-2.1 3.1-2.9l-.1-.3c-2.3.1-4.6.1-6.6.1s-1.4-1.9.1-2.1 4-.5 7-1c2-.3 4.8-1.2 8.3-2.9 11.9-6.1 30.5-15.3 36.6-21.3.97-.97.64-2.13-.12-3.11-3.94 3.25-8.08 6.26-11.28 8.21-8.8 5.5-24.3 13-26.6 14.2-4.6 2.3-10.7 3.5-15.3 4.5-4.2.9-4.1 6.2-1.3 8.6.9.8 2.3 1.5 4.2 1.8-.1.5-.9 3.6 2.4 4.4 2.5.6 3.9-.9 3.9-.9-.6 2.6 1.6 4.7 4.1 4.9s4.3-2 4.3-2-1.4 4.9 4.5 4.8c3.4-.1 4.5-3.4 4.5-3.4s-.8 2.5 1.3 4.1c1.2.8 3.8 1.2 4.5 1s6-3.1 9.2-3.1c3.3 0 8.3.1 13.5-1.5 5.1-1.6 13.7-5.6 17.5-7.4 3.7-1.8 16.2-6.5 28.4-10.1 12.3-3.7 12.9-12.5 12.9-16.6 0-4.9-4.5-13-5.7-17.4-2.2-8.9-1.9-13.5-1.9-17.9 0-3.1 2.6-27.8 3.7-39.3h.1c.09-1.14-.67-2.05-1.73-2.05z" fill="#faa700"/><g fill="#b55e19"><path d="m83.46 107.13c-.57 0-1.16.13-1.76.47-28.1 14.9-26.9 5.3-39.2 12.1-1.62.9-5.03 1.07-7.08 0 .19.61.57 1.26 1.28 1.8 1.2.8 3.8 1.2 4.5 1s6-3.1 9.2-3.1c3.3 0 8.3.1 13.5-1.5 5.1-1.6 13.7-5.6 17.5-7.4 1.06-.52 2.84-1.27 5.14-2.17-.71-.53-1.83-1.19-3.08-1.2zm-40.89 2.99c-1.18.05-2.2.93-2.87 1.08-.9.4-3.6 1-5.4 3.5-1.6 2.3-2.1 3.7-4.1 4.1-1.07.27-2.46.54-3.82-.55.33 1.27 1.42 2.6 4.52 2.55 3.4-.1 4.5-3.4 4.5-3.4s-.05.17-.1.45c.18-.72.64-2.03 1.8-3.05 1.9-1.8 5.1-2.4 6.1-2.8s1.9-1 .6-1.6c-.42-.22-.84-.3-1.23-.28z"/><path d="m26.2 102.88c-.22.01-.43.05-.6.12-.5.2-1.3 1.4-2.6 2-1.6.9-3.9 2.3-4.9 3.6s-1.6 2.5-2.8 3c-.62.27-1.87.85-3.68.07.2.94.82 1.93 2.48 2.33 1.41.34 2.47.01 3.13-.35.18-.23.31-.39.37-.45.6-1.5 1.6-3.2 2.5-4.2.6-.6 1.3-1.3 2.1-1.8 1.9-1.3 5.9-2.9 5.5-3.7-.15-.37-.86-.64-1.5-.62zm7.63 2.94c-.15 0-.3.02-.43.08-.4.1-1.1.9-1.9 1.4-1.5.9-3.8.9-6.4 5-.8 1.3-1.2 2.7-2.9 3.3-.4.1-2.8.4-3.7-.2-.14-.1-.28-.2-.41-.29.55 1.61 2.2 2.75 4.01 2.89 1.3.1 2.4-.44 3.17-.98.36-.49.62-.88.73-1.02.7-3.3.6-3.3 2.2-4.9s3.6-2.1 5.9-3.4c.6-.4 1.7-.9 1.3-1.3-.16-.16-.92-.59-1.57-.58z"/><path d="m19.18 100.2c-.3.02-.6.11-.88.3-.6.5-3 2.2-4.3 3.1-1.9 1.4-2.7 2-4.8 2.2-1.67.2-2.98-1.02-3.67-1.86.14 1.44.84 2.89 1.97 3.86.82.73 2.05 1.37 3.7 1.71.25 0 .4-.01.4-.01s.3-2 2.2-3.8c1-.9 4.8-3 6.3-3.7 1.46-.65.35-1.89-.92-1.8z"/><path d="m109.3 56.5c2 4.2 3.1 6.9 3.7 8.3 1.8 5.4 1 8-5.2 13.6-1.3 1.2-2.5-.4-1.7-1.4 6.7-7.2 2.3-14 1.6-19.9-.2-1.5 1-1.7 1.7-.6z"/><path d="m76.1 7.51c-.97.05-1.68.85-1.6 1.99.8 12.5 2.3 35.6 2.3 38.9-.1 3.4.2 8.3-4.7 14.2-3.68 4.43-10.3 10.1-16.07 14.31 1.51.3 3.41.43 4.67-.41 19-13 19-20 19-25.6-.09-3.58-1.7-35.07-2.11-43.06-.28-.08-.54-.16-.79-.24-.24-.08-.48-.1-.7-.09z"/></g></svg>