<svg enable-background="new 0 0 128 128" viewBox="0 0 128 128" xmlns="http://www.w3.org/2000/svg"><path d="m63.4 62.24s-56.4 5.03-56.14 8.87.93 17.87 4.37 21.98 16.42 12.18 26.22 17.34 27.67 13.9 37.6 13.64 27.94-16.02 28.73-20.12-.26-18.8-.26-18.8z" fill="#c9cabb"/><path d="m44.6 29.4-17.34 5.96s.44 5.07 1.32 8.47c1.06 4.1 3.57 13.77 12.05 17.34 8.47 3.57 54.81 13.9 57.59 13.11s11.39-7.81 14.56-10.46c3.18-2.65-30.72-36.67-30.72-36.67z" fill="#c9cabb"/><path d="m51.75 28.08-19.99 4.1s2.38 18.93 6.49 21.98 53.49 15.49 56.53 15.09c3.05-.4 14.3-8.74 14.3-8.74s3.05-10.59 2.91-10.99c-.13-.39-60.24-21.44-60.24-21.44z" fill="#fff"/><path d="m12.17 72.43s.79 14.3 2.78 16.81c1.99 2.52 12.84 11.12 27.14 18.01s28.07 11.12 33.63 11.25 22.51-13.24 23.83-15.89-1.46-17.61-1.46-17.61z" fill="#fff"/><path d="m24.74 39.59c4.53 2.07 7.55-7.02 21.45-7.15s26.48 7.28 35.22 11.65 26.74 18.93 32.17 20.52 10.46-3.84 10.33-11.12-3.18-26.88-23.04-39.59-45.5-11.8-60.86-4.39c-15.41 7.46-23.78 26.19-15.27 30.08z" fill="#ff6110"/><g fill="#d4d3d4"><path d="m37.43 40.35c.21 1.55 2.33 1.75 4.56 1.38 1.64-.27 3.82-1.11 3.5-2.97-.23-1.37-2.81-1.75-4.72-1.32s-3.55 1.37-3.34 2.91z"/><path d="m74.95 50.57c-.31 1.84 1.96 2.54 4.4 2.81 2.44.26 4.24.21 4.61-1.54s-2.12-2.6-3.97-2.81-4.73-.36-5.04 1.54z"/><path d="m90.9 56.51c-1.14.99-.69 2.54 1.54 4.56 2.23 2.01 3.71 2.01 4.56 1.06s-.53-3.18-1.8-4.35c-1.28-1.16-3.09-2.33-4.3-1.27z"/><path d="m16.76 85.18c-1.36 1.6-.05 3.5 2.28 5.46s4.27 3.8 5.72 2.38c1.96-1.91-1.01-4.56-2.65-5.99s-3.86-3.6-5.35-1.85z"/><path d="m26.2 85.6c-.7 1.29.09 2.67 2.49 3.87 2.33 1.17 3.6 1.11 4.4-.16s-1.06-3.02-2.86-3.82c-1.81-.79-3.35-1.16-4.03.11z"/><path d="m28.21 96.01c-.09 1.5.45 2.68 5.02 3.12 4.57.45 5.43-.95 5.47-2.12.06-1.67-1.56-2.62-4.91-2.85-3.35-.22-5.47-.05-5.58 1.85z"/></g><g fill="#fe8e6e"><path d="m31.38 37.22c-.53-2.82-1.15-6.63-.27-11.24 1.4-7.35 6.75-14.2 15.91-19.17 4.08-1.33 8.89-2.12 12.71-2.46 1.44-.13 2.74-.19 3.81-.2-2.19.71-6.87 1.8-11.49 3.96-9.8 4.58-15.49 11.44-16.79 18.27-.62 3.26-.5 6.3-.18 8.63-1.3.73-2.64 1.48-3.7 2.21z"/><path d="m53.64 33.05c-.03-3.42.68-8.18 4.13-12.15 5.69-6.55 14.73-9.9 20.52-11.45 3.05-.82 6.58-1.32 10.02-1.61 1.55.53 4.35 1.53 7.77 3.31-4.39-.06-10.04.2-14.77 1.47-9.1 2.45-16.64 6.47-20.29 10.67-2.95 3.39-3.4 7.73-3.29 10.64-1.69-.4-2.72-.62-4.09-.88z"/><path d="m73.26 39.96c1.04-3.01 3-6.81 6.72-9.87 9.67-7.94 20.18-8.85 23.45-9.19 2.03-.21 4.03-.31 5.84-.33 1.24 1.2 2.77 2.83 3.65 3.97-2.22-.1-5.16-.11-8.18.22-2.13.23-13.75 1.7-21.79 8.3-3.26 2.68-5.01 6.15-5.94 8.8-1.3-.64-2.19-1.13-3.75-1.9z"/><path d="m91.01 50.03c1.5-2.22 4.15-5.5 8.12-8.07 6.64-4.31 12.71-5.78 20.16-5.78.23 0 .46 0 .69.01.73 1.61 1.22 3.11 1.56 4.1-.7-.07-1.45-.11-2.25-.11-6.63 0-12.01 1.46-17.96 5.32-3.39 2.2-5.7 4.99-6.99 6.83-1.6-1.09-2.59-1.77-3.33-2.3z"/></g><g fill="#f6fffe"><path d="m30.37 19.98c.98.53.62 3.05-.62 4.96-1.24 1.9-2.52 3.41-3.94 2.74-1.42-.66-.44-3.72.44-5.13.89-1.42 2.49-3.45 4.12-2.57z"/><path d="m49.76 16.4c1.94 2.22-1.77 3.76-1.99 5.84s1.53 1.21 1.42 3.41c-.13 2.52-9.25 4.29-10.49-.22-1.25-4.52 8.36-12.13 11.06-9.03z"/><path d="m70.19 21.68c-1.47-1.51-5.18-.22-7.35 2.08s-2.74 6.28 1.19 7.74c3.94 1.46 4.87-.71 4.6-1.64-.17-.61-.66-2.04-.09-3.05.59-1.01 3.42-3.31 1.65-5.13z"/></g><path d="m40.59 57.91s-35.55 4.12-36.26 7.39c-.84 3.88-.19 6.75 1.38 8.67 2.72 3.33 14.01 4.51 29.2 11.66 13.83 6.51 19.37 10.02 27.5 14.14s14.14 5.79 20.04 4.34 12.69-3.9 18.37-8.46c4.29-3.45 5.84-8.32 5.45-13.25-.33-4.2-2.56-8.68-5.34-10.91-2.79-2.23-60.23-14.03-60.34-13.58z" fill="#cc1935"/><path d="m31.57 47.33c-20.37 3.78-27.68 15.71-27.19 18.36.31 1.67 4.57.84 21.19 6.69 24.05 8.46 43.22 18.54 50.01 19.66 9.34 1.53 18.87-3.82 22.6-6.57 6.03-4.45 6.75-9.08 4.53-12.08-2.24-3.01-15.25-15.39-34.62-22.28-15.44-5.48-25.45-5.84-36.52-3.78z" fill="#ff605f"/><path d="m17.16 55.13c-2.32-.26-10.7 4.99-7.74 9.71 2.97 4.73 16.93 4.04 17.23.56.35-4.01-7.82-4-8.98-5.72-1.16-1.71 2.22-4.24-.51-4.55z" fill="#f9ffff"/></svg>