<svg enable-background="new 0 0 128 128" viewBox="0 0 128 128" xmlns="http://www.w3.org/2000/svg"><path d="m103.27 123.99s5.29.61 13.72-7.81 6.45-12.8 6.45-12.8l-18.51-20.2-21.56 22.54z" fill="#82aec0"/><path d="m122.01 101.81-2.55-2.78c-2.03 5.97-5 11.56-8.78 16.56-1.09 1.44-3.21 1.58-4.51.33l-.31-.3c-1.12-1.08-1.24-2.83-.27-4.06 4.08-5.18 7.34-10.97 9.61-17.19l-2.88-3.14c-2.04 6.23-5.12 12.04-9.06 17.22-1.09 1.44-3.21 1.58-4.51.32-1.12-1.08-1.24-2.84-.27-4.06 4.23-5.34 7.59-11.33 9.9-17.78l-2.43-2.68-21.3 22.66 18.59 17.07s2.82.46 8.15-3.07c-.01-.02 5.47-2.92 10.62-19.1z" fill="#2f7889"/><path d="m100.84 52.4 10.85 10.85c1.25 1.25 1.83 3.04 1.55 4.79l-2.38 14.7c-.19 1.15-.73 2.2-1.55 3.02l-23.19 23.19c-.82.82-1.88 1.36-3.03 1.55l-14.69 2.37c-1.75.28-3.53-.29-4.78-1.55l-10.85-10.85z" fill="#82aec0"/><path d="m81.98 54.91 16.35-3.35c1.97-.4 3.72 1.34 3.32 3.32l-3.12 15.24c-.26 1.26-.88 2.42-1.79 3.33l-22.93 22.92c-.91.91-2.07 1.53-3.33 1.79l-15.24 3.12c-1.97.4-3.72-1.34-3.32-3.32l3.35-16.35c.11-.54.38-1.03.77-1.42l24.52-24.52c.39-.38.88-.65 1.42-.76z" fill="#b9e4ea"/><path d="m62.49 86.04s6.53 3.92 17.41-6.95 5.95-16.21 5.95-16.21l-21.05-22.38-25.06 25.76z" fill="#82aec0"/><path d="m84.64 61.6-3.04-3.23c-2.22 6.81-5.49 13.2-9.65 18.97-1.26 1.75-3.79 1.94-5.34.45l-.33-.32c-1.3-1.25-1.45-3.27-.37-4.71 4.52-5.98 8.12-12.64 10.64-19.75l-3.43-3.64c-2.24 7.06-5.58 13.66-9.88 19.59-1.26 1.74-3.79 1.93-5.34.44-1.3-1.25-1.45-3.28-.36-4.71 4.67-6.13 8.38-12.97 10.94-20.29l-2.76-2.95-25.16 25.53 21.93 19.06s1.71 1.19 5.69.42c3.71-.72 6.98-3.31 6.98-3.31s-.53-.05-.83-.3c-.3-.26-.77-1.07-.19-1.85 4.44-5.89 8-12.42 10.5-19.4z" fill="#2f7889"/><path d="m58.95 4.97 11.18 11.18c1.72 1.72 2.53 4.15 2.18 6.55l-2.23 15.51c-.24 1.65-1 3.18-2.18 4.36l-24.99 24.98c-1.17 1.17-2.69 1.94-4.34 2.18l-15.57 2.28c-2.41.35-4.85-.45-6.57-2.18l-11.17-11.17z" fill="#82aec0"/><path d="m39.74 7.45 16.56-3.39c2.1-.43 3.95 1.42 3.52 3.52l-3.5 17.12c-.29 1.44-1 2.75-2.04 3.79l-25.43 25.43c-1.04 1.04-2.35 1.75-3.79 2.04l-17.12 3.51c-2.1.43-3.95-1.42-3.52-3.52l3.39-16.56c.37-1.8 1.26-3.45 2.56-4.75l24.63-24.63c1.29-1.3 2.94-2.19 4.74-2.56z" fill="#b9e4ea"/><path d="m17.27 59.53c-4.4 1.59-6.51 4.64-6.51 4.64l5.66 5.66c1.72 1.72 4.16 2.53 6.57 2.18l15.58-2.28-10.83-10.84s-6.07-.95-10.47.64z" fill="#2f7889"/><path d="m74.89 100.57s-7.95 0-12.77 1.42c-2.6.77-3.97 1.97-4.69 3.13l6.19 6.19c1.25 1.25 3.03 1.83 4.78 1.55l14.69-2.37c.49-.08.96-.24 1.41-.44z" fill="#2f7889"/><g fill="#94d1e0"><path d="m59.62 15.42c-1.4 5.82.17 14.28.17 14.28l9.58 10.8c.35-.72.6-1.49.71-2.3l2.23-15.51c.35-2.41-.46-4.83-2.18-6.55l-6.28-6.28c-.01 0-3.11.91-4.23 5.56z"/><path d="m105.02 56.59c-.91 1.25-2.39 2.94-3.32 6.39-1.05 3.87-.35 12.26-.35 12.26l9.02 9.02c.23-.48.4-.99.49-1.52l2.38-14.7c.28-1.75-.29-3.53-1.55-4.79z"/></g></svg>