<svg enable-background="new 0 0 128 128" viewBox="0 0 128 128" xmlns="http://www.w3.org/2000/svg"><path d="m66.87 22.9s1.77-1.09 1.79-3.5c.02-2.64-2.09-3.43-2.09-3.43s1.31-.54 1.33-2.17c.02-1.74-2.25-2.17-2.25-2.17s1.12-1.35 1.04-3.61c-.08-2.33-1.94-4.99-2.57-5.05-.31-.03-.22 9-.22 9l-.44 10.49 3.1 3.69z" fill="#ffa72b"/><path d="m61.31 22.77s-2.06-1.25-1.92-3.55c.17-2.74 2.66-3.32 2.66-3.32s-1.81-.59-1.7-2.14c.15-1.99 2.44-2.22 2.44-2.22s-1.1-1.18-.96-3.4c.22-3.62 2.29-5.17 2.29-5.17l.08 20.76z" fill="#ffc020"/><path d="m50.94 28.54s2.7-7.05 12.95-7c11.34.06 13.18 7.34 13.18 7.34l-16.84 3.13z" fill="#8c1b0d"/><path d="m51.72 33.3-.05 4.53 12.93 1.23 11.75-.35.04-5.27z" fill="#513630"/><path d="m47.61 31.38c-.01 2.11 1.64 2.97 3.65 3.02 2.02.06 24.49-.21 26.6-.25s2.43-1.87 2.45-3.05c.02-1.57-1.04-2.73-2.66-2.8-1.62-.06-25.87.09-27.15.12-1.28.02-2.89 1.04-2.89 2.96z" fill="#d35113"/><path d="m24.88 116.41.2-19.61 2.41-.41-.1-10.37 2.71-.26v-8.88l1.95-1.61-.08-7.45 1.86-.68.08-7.79 5.76-.51-1.44 59.53z" fill="#a62714"/><path d="m89.46 60.87 4.15.51-.09 6.27 1.87 1.35-.09 7.96 1.78 1.27v8.05l1.95 1.86.08 8.3 1.95 1.69-.09 19.14-13.22.34z" fill="#a62714"/><g fill="#503730"><path d="m89.87 62.41 3.84.1s2.34-1.1 2.26-3.5c-.14-3.93-4.85-5.95-4.85-5.95s1.1-.38 1.01-2.16c-.08-1.39-1.1-2.02-2.21-2.06-1.1-.05-2.06.91-2.06 1.87s2.01 11.7 2.01 11.7z"/><path d="m39.92 53.39-.69-1.12s.62-.41.62-2.02c0-.82-.66-1.94-2.1-1.94s-2.19 1.05-2.19 2.16c0 1.2 1 2 1 2s-5.02 2.28-4.94 5.85c.05 2.21 2.06 2.54 2.06 2.54l5.28.14z"/><path d="m37.65 65.64s-5.52-.16-6-.11-1.36.78-1.32 1.81c.05 1.03.71 1.57 1.57 1.63s5.95.16 5.95.16z"/><path d="m37.02 74.2-7.6-.27s-1.5.1-1.53 1.83c-.03 1.74 1.68 1.72 1.68 1.72l7.82.28z"/><path d="m36.85 84.11s-9.79-.28-10.75-.28-1.49.72-1.49 1.72.62 1.72 1.68 1.77c1.06.06 10.51.28 10.51.28z"/><path d="m36.99 95.41s-12.38-.27-12.96-.27-1.44.44-1.54 1.7.53 1.81 1.63 1.87c.73.04 13.48.38 13.48.38z"/><path d="m90.2 66.92s4.29.05 5.27.15 1.67.81 1.67 1.58-.64 1.84-1.8 1.84-6.47.1-6.47-.05 1.33-3.52 1.33-3.52z"/><path d="m90.03 75.33s6.35.17 7.38.23c1.3.08 1.85.84 1.85 1.7s-.75 1.77-1.95 1.72c-1.21-.05-9.02-.09-9.02-.09z"/><path d="m89.96 85.08s8.41.02 8.94.06c.54.04 2.41.28 2.4 1.77-.01 1.43-1.34 1.79-2.28 1.79s-9.64-.04-9.64-.04z"/><path d="m89.81 95.85s11.46 0 12.49.06c1.34.08 1.77.92 1.75 1.68-.02.65-.27 1.56-1.92 1.61-1.65.04-13.21 0-13.21 0z"/></g><path d="m51.36 37.65c.19-.01 24.68.1 24.68.1s5.42 1.77 11.08 11.13c4.76 7.88 3.98 17.96 3.98 29.61s-.45 37.5-.45 37.5l-26.84 3.95-27.49-3.66s-.13-26.05-.13-38.16 1.89-24.33 5.91-30.61c4.56-7.15 9.26-9.86 9.26-9.86z" fill="#d55113"/><g fill="#fa8960"><path d="m77.68 40.12c-.01 0-.01 0-.02 0l-5.18-.08c-.72-.01-1.3-.61-1.29-1.33s.59-1.29 1.31-1.29h.02l5.18.08c.72.01 1.3.61 1.29 1.33-.01.71-.59 1.29-1.31 1.29z"/><path d="m56.42 39.67h-5.48c-.72 0-1.31-.59-1.31-1.31s.59-1.31 1.31-1.31h5.48c.72 0 1.31.59 1.31 1.31s-.58 1.31-1.31 1.31z"/><path d="m49.59 46.65c-.01 0-.01 0-.02 0l-5.33-.07c-.72-.01-1.3-.61-1.29-1.33s.63-1.31 1.33-1.29l4.13.06.11-1.13c.07-.68.6-1.2 1.33-1.18l7.74.15c.72.01 1.3.61 1.28 1.34-.01.72-.58 1.31-1.34 1.28l-6.53-.13-.11 1.12c-.06.67-.63 1.18-1.3 1.18z"/><path d="m84.52 46.8c-.01 0-.01 0-.02 0l-5.97-.07c-.67-.01-1.23-.52-1.29-1.19l-.08-.93-6.64-.13c-.72-.01-1.3-.61-1.28-1.34.01-.72.6-1.33 1.34-1.28l7.81.15c.67.01 1.22.53 1.28 1.19l.08.92 4.79.06c.72.01 1.3.6 1.29 1.33-.01.72-.6 1.29-1.31 1.29z"/><path d="m69.65 42.72h-.01l-10.9-.12c-.72-.01-1.3-.6-1.3-1.33.01-.72.6-1.31 1.33-1.3l10.89.12c.72.01 1.3.6 1.3 1.33-.01.72-.59 1.3-1.31 1.3z"/><path d="m45.91 54.09c-.01 0-.02 0-.04 0l-5.48-.15c-.72-.02-1.29-.62-1.27-1.35.02-.72.61-1.28 1.35-1.27l4.18.11.03-1.03c.02-.72.62-1.28 1.35-1.27l8.04.23c.72.02 1.29.62 1.27 1.35-.02.72-.63 1.28-1.35 1.27l-6.73-.19-.03 1.02c-.03.72-.62 1.28-1.32 1.28z"/><path d="m43.28 62.5c-.01 0-.02 0-.04 0l-5.63-.15c-.72-.02-1.29-.62-1.27-1.35.02-.72.64-1.27 1.35-1.27l4.34.12.03-.73c.03-.72.59-1.27 1.35-1.26l7.89.23c.72.02 1.29.62 1.27 1.35-.02.72-.62 1.28-1.35 1.27l-6.59-.19-.03.73c-.04.7-.62 1.25-1.32 1.25z"/><path d="m41.85 71.44h-5.11c-.72 0-1.31-.59-1.31-1.31s.59-1.31 1.31-1.31h3.8v-1.09c0-.72.59-1.31 1.31-1.31h8.26c.72 0 1.31.59 1.31 1.31s-.59 1.31-1.31 1.31h-6.95v1.09c0 .72-.58 1.31-1.31 1.31z"/><path d="m41.93 80.38h-.01l-5.67-.06c-.72-.01-1.3-.6-1.3-1.32.01-.73.59-1.3 1.33-1.3l4.34.05v-1c0-.35.14-.69.39-.93.25-.25.58-.36.94-.38l11.87.15c.72.01 1.3.6 1.29 1.33-.01.72-.59 1.29-1.31 1.29-.01 0-.01 0-.02 0l-10.54-.13v1c0 .35-.14.69-.39.93-.25.23-.58.37-.92.37z"/><path d="m82.95 54.6c-.72 0-1.3-.58-1.31-1.29l-.01-1.05-7.28-.1c-.72-.01-1.3-.6-1.29-1.33.01-.72.59-1.29 1.31-1.29h.02l8.56.12c.71.01 1.28.58 1.29 1.29l.01 1.03 4.18-.03h.01c.72 0 1.3.58 1.31 1.3s-.58 1.31-1.3 1.32l-5.49.04c0-.01 0-.01-.01-.01z"/><path d="m90.22 62.96c-.01 0-.01 0-.02 0l-5.63-.07c-.72-.01-1.29-.6-1.29-1.31v-.73l-6.59-.07c-.72-.01-1.3-.6-1.3-1.32.01-.72.59-1.3 1.31-1.3h.01l7.89.09c.72.01 1.3.59 1.3 1.31v.73l4.34.06c.72.01 1.3.6 1.29 1.33-.01.7-.59 1.28-1.31 1.28z"/><path d="m90.45 71.9c-.01 0-.03 0-.04 0l-5.11-.15c-.72-.02-1.29-.62-1.27-1.35l.03-1.09-6.95-.2c-.72-.02-1.29-.62-1.27-1.35.02-.71.6-1.27 1.31-1.27h.04l8.26.24c.72.02 1.29.62 1.27 1.35l-.03 1.09 3.8.11c.72.02 1.29.62 1.27 1.35-.02.71-.6 1.27-1.31 1.27z"/><path d="m90.92 80.99c-.01 0-.02 0-.04 0l-5.56-.15c-.72-.02-1.28-.61-1.27-1.33l.01-1-10.54-.02c-.72 0-1.31-.59-1.31-1.31s.59-1.31 1.31-1.31l11.87.02c.35 0 .69.14.93.39.25.25.38.59.38.94l-.01 1.04 4.26.12c.72.02 1.29.62 1.27 1.35-.01.7-.59 1.26-1.3 1.26z"/><path d="m73.55 50.11c-.01 0-.02 0-.03 0l-18.62-.38c-.72-.01-1.3-.61-1.28-1.34.01-.72.62-1.33 1.34-1.28l18.63.38c.72.01 1.3.61 1.28 1.34-.02.71-.61 1.28-1.32 1.28z"/><path d="m76.85 67.61c-.01 0-.02 0-.02 0l-26.44-.45c-.72-.01-1.3-.61-1.29-1.33s.6-1.29 1.31-1.29h.02l26.44.45c.72.01 1.3.61 1.29 1.33s-.59 1.29-1.31 1.29z"/><path d="m90.45 104.12c-.01 0-.01 0-.02 0l-53.97-.69c-.72-.01-1.3-.6-1.29-1.33.01-.72.58-1.34 1.33-1.29l53.97.69c.72.01 1.3.6 1.29 1.33 0 .72-.59 1.29-1.31 1.29z"/><path d="m90.07 115.37-54.45-.35c-.72 0-1.31-.59-1.3-1.32 0-.72.59-1.3 1.31-1.3h.01l54.44.35c.72 0 1.31.59 1.3 1.32 0 .72-.59 1.3-1.31 1.3z"/></g><path d="m61.22 59.74c-.16.24-15.15 29.11-15.15 29.11l-.58 28.41 35.54.46.61-26.2-14.67-31.78z" fill="#ee6d33"/><path d="m58.75 63.08c-.29.08-3.33 5-3.08 5.42.12.21 3.93.26 8.03.26 4.23 0 8.22.13 8.29 0 .13-.26-2.35-5.38-2.61-5.51-.25-.12-10.33-.25-10.63-.17z" fill="#fdbba0"/><path d="m53.88 71.28c-.38.21-4.74 7.73-4.48 8.07.23.31 6.89.25 13.67.34 7.09.1 14.3.34 14.44.21.26-.26-3.76-8.11-4.19-8.33-.21-.1-4.81-.18-9.44-.26-4.88-.06-9.8-.13-10-.03z" fill="#fdbba0"/><path d="m44.91 91.15-.38 25.14 2.43-.12.37-26.14z" fill="#8b200d"/><path d="m80.13 91.84v25.07l2.67-.68v-25.02z" fill="#8b200d"/><path d="m47.65 82.82c-.63.4-4.87 8.41-4.57 8.8.15.19 10.07.23 20.16.34 10.43.12 21.03.3 21.14.17.21-.26-4.83-8.58-5.17-8.8s-31.22-.73-31.56-.51z" fill="#fdbba0"/><path d="m15.75 114.91c-.92.46-1.01 8.71-.57 9.44s94.4.63 95.12.34.28-8.71-.15-9.29c-.11-.15-23.97-.07-47.73-.18-23.28-.12-46.45-.42-46.67-.31z" fill="#ee6d33"/><path d="m53.02 97.23c-.14.24-.38 18.84-.38 18.84l21.34-.01s.39-18.14.26-18.45c-.13-.32-21.03-.7-21.22-.38z" fill="#51362f"/><path d="m51.83 115.87c-.06.62 0 3.87 0 3.87s-1.19-.06-1.25.11c-.14.38-.01 3.35-.01 3.35l24.91 1.16s.11-4.08-.1-4.25c-.15-.12-.99-.1-.99-.1s.17-4-.14-4c-.85.01-6.04.02-11.62-.07-5.55-.07-10.79-.17-10.8-.07z" fill="#fa8960"/><path d="m50.6 124.88 24.88.14.03-2.51-24.98-.19z" fill="#d05314"/><path d="m51.78 117.86 22.67.21-.05 1.95-22.58-.27z" fill="#d05314"/><path d="m76.43 58.82c-.01 0-.02 0-.03 0l-25.3-.48c-.72-.01-1.3-.61-1.28-1.34.01-.72.62-1.33 1.34-1.28l25.3.48c.72.01 1.3.61 1.29 1.34-.03.71-.61 1.28-1.32 1.28z" fill="#fa8960"/><g fill="#fdbba0"><path d="m59.84 58.35s1.12-2.65 4.22-2.69c3.33-.04 4.66 2.85 4.66 2.85s1.52.39 1.77 1.49c.16.72-.21 1.28-1.56 1.27-.94-.01-2.33-.01-4.79-.06-2.21-.05-3.8-.07-4.74-.09-1.17-.02-1.82-.51-1.6-1.43.28-1.25 2.04-1.34 2.04-1.34z"/><path d="m64.22 51.81c-1.45 0-2.01 1.04-2.01 2.17s.76 2.01 2.13 2.01 1.97-.96 2.01-2.13c.02-.89-.93-2.05-2.13-2.05z"/></g></svg>