<svg enable-background="new 0 0 128 128" viewBox="0 0 128 128" xmlns="http://www.w3.org/2000/svg"><path d="m117.39 124h-106.78c-3.65 0-6.61-2.96-6.61-6.61v-101.39h120v101.39c0 3.65-2.96 6.61-6.61 6.61z" fill="#82aec0"/><g fill="#fff"><path d="m27.7 116.35h-14.83c-2.8 0-5.06-2.27-5.06-5.06v-85.8h24.95v85.8c0 2.8-2.27 5.06-5.06 5.06z"/><path d="m56.84 116.35h-14.82c-2.8 0-5.06-2.27-5.06-5.06v-85.8h24.94v85.8c0 2.8-2.26 5.06-5.06 5.06z"/><path d="m85.98 116.35h-14.82c-2.8 0-5.06-2.27-5.06-5.06v-85.8h24.95v85.8c-.01 2.8-2.27 5.06-5.07 5.06z"/><path d="m115.13 116.35h-14.83c-2.8 0-5.06-2.27-5.06-5.06v-85.8h24.95v85.8c0 2.8-2.27 5.06-5.06 5.06z"/></g><path d="m124 8.47c0-2.47-2-4.47-4.47-4.47h-111.06c-2.47 0-4.47 2-4.47 4.47v19.53h22.54v52.4c0 1.21 1.15 2.2 2.56 2.2h5.75 5.75c1.42 0 2.56-.98 2.56-2.2v-52.4h12.51v52.4c0 1.21 1.15 2.2 2.56 2.2h5.77 5.75c1.42 0 2.56-.98 2.56-2.2v-52.4h12.51v52.4c0 1.21 1.15 2.2 2.56 2.2h5.75 5.75c1.42 0 2.56-.98 2.56-2.2v-52.4h22.56z"/><path d="m4 4h120v6.65h-120z" fill="#757575"/><path d="m97.42 80.25h-8.55c-.84 0-1.52-.68-1.52-1.52v-7.21c0-.84.68-1.52 1.52-1.52h8.55c.84 0 1.52.68 1.52 1.52v7.21c-.01.84-.69 1.52-1.52 1.52z" fill="#757575"/><path d="m68.27 80.25h-8.55c-.84 0-1.52-.68-1.52-1.52v-7.21c0-.84.68-1.52 1.52-1.52h8.55c.84 0 1.52.68 1.52 1.52v7.21c0 .84-.68 1.52-1.52 1.52z" fill="#757575"/><path d="m39.13 80.25h-8.55c-.84 0-1.52-.68-1.52-1.52v-7.21c0-.84.68-1.52 1.52-1.52h8.55c.84 0 1.52.68 1.52 1.52v7.21c0 .84-.68 1.52-1.52 1.52z" fill="#757575"/></svg>