<svg enable-background="new 0 0 128 128" viewBox="0 0 128 128" xmlns="http://www.w3.org/2000/svg"><path d="m28.59 24.18-6.13 1.31s.38.66.68 1.31.78 1.17.55 2.3 11.41 8.28 11.41 8.28 1.4-.06 2.21.22 2.15 1.18 2.15 1.18l2.88-6.69 1.11-11.28z" fill="#edbd82"/><path d="m38.28 21.66-4.49 2.35 2.1 3.04s.09-1.23.69-2.1c.48-.71 1.35-1.09 2.32-.94s1.31 1.06 1.34 1.77c.08 1.87-.97 2.72-.97 2.72l-.15 2.35s.16 1.24 1.2 1.48c1.23.29 2.03-.25 2.03-.25l10.25-5.8s.47-.76-.11-1.16-1.55-.13-2.21-.54c-1.63-1.01-2.28-3.69-3.59-4.49s-8.4 1.56-8.4 1.56z" fill="#312d2d"/><path d="m61.49 58.25-6.06-2.16s-4.96 2.99-4.51 6.84c.45 3.84 3.97 9.04 5.13 10.83s6.86 10.57 6.86 10.57l5.19-2.11.77-14.1z" fill="#edbd82"/><path d="m26.99 56.03s5.76-3.04 7.98-3.94c3.15-1.28 5.32-1.48 5.32-1.48l1.08 9.65s-14.38-4.23-14.38-4.23z" fill="#edbd82"/><path d="m34.34 25.9s-3.24 1.3-5.56 2.06c-1.18.39-5.09 1.13-5.09 1.13s-.36.86-.79 1.47c-.48.68-.88.97-.93 1.61s.27.96.92 1.25 1.44.46 1.81.75.94 1.69 1.41 2.45 1.47 3.07 3.8 3.04 4.07-1.18 5.42-2.12 1.9-2.15 1.9-2.15v-4.42z" fill="#f9ddbd"/><path d="m66.94 81.39-4.35 2.71s.9 1.52 1.21 2.04 1.14 2.15 1.14 2.15l1.17 2.26-.83 1.73.06 2.24 2.95 2.63 2.82-5.9-4.17-9.85z" fill="#858585"/><path d="m67.33 88.05-2.43.22s.29 1.27.37 2.22 0 2.13 0 2.13l3.91-.28z" fill="#f77300"/><path d="m106.6 102.68c.96-2.54.91-6.21-2.57-7.7s-6.58.38-7.56 2.19-1.5 6.31 2.04 8.16 7.04.15 8.09-2.65z" fill="#9a9a9a"/><path d="m100.62 123.32c-12.85 0-23.31-10.44-23.31-23.28s10.46-23.27 23.31-23.27 23.31 10.44 23.31 23.27-10.46 23.28-23.31 23.28zm0-42.23c-10.47 0-18.99 8.5-18.99 18.95s8.52 18.95 18.99 18.95 18.99-8.5 18.99-18.95-8.52-18.95-18.99-18.95z" fill="#606265"/><path d="m27.46 124.31c-12.9 0-23.4-10.51-23.4-23.43s10.5-23.43 23.4-23.43 23.4 10.51 23.4 23.43-10.5 23.43-23.4 23.43zm0-42.53c-10.51 0-19.06 8.57-19.06 19.1s8.55 19.1 19.06 19.1 19.06-8.57 19.06-19.1-8.55-19.1-19.06-19.1z" fill="#606265"/><path d="m25.25 104.66c2.37 1.42 5.3.57 6.53-1.8s.73-4.91-1.72-6.35-5.04-.37-6.23 1.71c-1.08 1.87-1.09 4.93 1.42 6.44z" fill="#9a9a9a"/><path d="m102.12 94.07c-1.23-1.89-16.08-23.31-16.08-23.31l3.69-10.32s3.5-1.14 3.5-3.41-4.92-3.03-4.92-3.03l-7.1 17.42s-12.78-1.04-21.02-1.99-13.63-1.42-14.68-1.8-.54-1.19-.16-2.8 1.77-4.96 1.77-4.96l-4.45-1.61s-15.24 37.49-15.81 39.01-1.89 4.17 0 5.11c1.61.8 2.94-.66 3.98-3.22s9.94-22.82 9.94-22.82l23.29 24.24 13.82 3.31s17.31-.1 19.67-.1 4.44-.66 5.61-2.73c1.46-2.59.17-5.11-1.06-7zm-35.4.55-21.78-23.01 33.04 3.03-6.82 21.11-4.45-1.14zm30.89 5.13c-1.04.09-19.53.17-19.53.17l-2.84-1.04s8.62-23.77 8.81-23.77c0 0 14.6 20.3 15.23 21.55.34.67.4 1.5.04 2.09s-1.18.95-1.71 1z" fill="#b0b0b0"/><path d="m34.34 56.57s-2.42-.97-5.81-1.01c-2.83-.03-4.8.76-5.26.56-.96-.43-2.68-1.52-3.74-1.82-.97-.28-2.53 1.26-2.17 2.38.25.77 2.02 2.63 2.02 3.08s-2.58 6.17.35 10.92 10.82 4.6 11.52 4.55 1.68-1.53 1.87-2.53c.2-1.06.2-2.17-.3-2.48s-2.68.1-5.15-.81c-1.8-.66-1.92-1.62-1.92-1.62s8.59-11.22 8.59-11.22z" fill="#5f6366"/><path d="m63.15 106.23s-2.94-3.98-.52-8.18 6.57-3.67 6.57-3.67l2.09 9.37s-8.14 2.48-8.14 2.48z" fill="#5e6367"/><path d="m68.75 113.24c.54.5 7.81-.73 8.09-1.56.26-.74-.03-2.92-.54-3.24-.95-.6-7.44 1.07-7.87 1.94-.25.51-.1 2.48.32 2.86z" fill="#5e6367"/><path d="m47.49 40.49 2.77 7.34s3.48.82 6.14 1.63c2.66.82 6.31 2.06 6.25 2.44s-.98.66-3.47 1.92c-1.61.81-3.89 2.26-3.89 2.26s4.04 5.12 6 7.67 5.44 6.2 5.44 6.2l18.65-25.23-3.57-7.39-2.62-1.8-31.71 4.95z" fill="#5e6268"/><path d="m41.47 31.79c-2.44 3.32-2.86 7.38-2.92 9.61s.06 5.31.06 5.31l7.98 2.12 3.63-.36s.26-2.19.5-3.43 11.88-1.44 11.88-1.44l12.23 1.97s1.97-2.57 3.06-5.51c.83-2.25 1.31-4.52 1.31-4.52s-5.71-4.67-12.63-6.75c-5.79-1.74-11.76-3.43-16.71-2.12-4.28 1.13-7.02 3.27-8.39 5.12z" fill="#858585"/><path d="m32.92 24.38s.93 1.67 1.62 3.05 2.23 4.02 2.23 4.02-.51 5.65-.49 6.05c.04.65 1.5.69 1.58.04.06-.44.49-5.81.49-5.81s1.67-1.65 3.45-4.51c2.15-3.45 2.27-5.44 2.27-5.44l-1.54.49s-1.18 3.05-2.11 4.59-2.64 3.13-2.64 3.13-.9-1.79-1.65-3.28-1.73-3.44-1.73-3.44l-1.49 1.12z" fill="#2f2f2f"/><path d="m23.9 24.29-3.24-1.54s-1.69-3.08-.48-7.3 4.88-9.31 11.99-11.08c9.23-2.31 17.42 2.03 17.42 2.03l-3.88 10.76z" fill="#b0b0b0"/><path d="m23.07 23.09s-1.43-2.73-.6-6.15 3.34-7.4 8.09-9.26c9.64-3.77 15.21-.33 15.47.19s-.05 2.4.13 2.54c.65.51 3.12 1.71 3.12 1.71l-.04 1.43-15.18 7.79-11 1.74z" fill="#dfdfdf"/><g fill="#5e6367"><path d="m30.75 7.36c-1.78.83-3.77 2.39-2.86 3.53.84 1.05 1.96-.71 3.87-1.56s3.66-1.22 3.32-2.31-3.07-.25-4.33.34z"/><path d="m38.52 6.9c.2 1.25 1.51.8 3.66 1.05s4.29 1.18 4.5.13-2.52-1.93-3.99-2.14-4.37-.34-4.17.96z"/><path d="m32.72 11.52c-2.86 1.43-6.22 4.92-5.21 6.01s4.04-1.85 7.48-3.32c4.12-1.77 7.73-1.47 7.69-2.98s-5.67-1.85-9.96.29z"/><path d="m25.31 12.8c-1.17-.38-2.33 1.62-2.95 3.58s-.77 4.49.41 4.48 1.08-2.11 1.68-3.86 2.23-3.76.86-4.2z"/></g><g fill="#e0e0e0"><path d="m109.38 115.39c-.27 0-.54-.14-.69-.39l-4.31-7.19c-.23-.38-.1-.87.28-1.1s.87-.1 1.1.28l4.31 7.19c.23.38.1.87-.28 1.1-.13.08-.27.11-.41.11z"/><path d="m114.95 110.76c-.17 0-.35-.05-.49-.17l-7.04-5.46c-.35-.27-.41-.78-.14-1.12.27-.35.78-.41 1.12-.14l7.04 5.46c.35.27.41.78.14 1.12-.16.2-.39.31-.63.31z"/><path d="m117.67 103.79c-.07 0-.14 0-.22-.03l-8.32-2.34c-.43-.12-.67-.56-.55-.99s.56-.68.99-.55l8.32 2.34c.43.12.67.56.55.99-.1.35-.42.58-.77.58z"/><path d="m94.54 98.81c-.08 0-.15-.01-.23-.03l-10.66-3.18c-.42-.13-.67-.57-.54-1 .13-.42.57-.66 1-.54l10.66 3.18c.42.13.67.57.54 1-.1.35-.42.57-.77.57z"/><path d="m96.05 96.02c-.21 0-.41-.08-.57-.24l-7.54-7.89c-.31-.31-.31-.82 0-1.13s.82-.31 1.13 0l7.54 7.89c.31.31.31.82 0 1.13-.16.16-.36.23-.56.24z"/><path d="m21.57 99.85c-.12 0-.25-.03-.37-.09l-10.29-5.29c-.39-.2-.55-.69-.35-1.08s.69-.55 1.08-.35l10.29 5.29c.39.2.55.69.35 1.08-.14.28-.42.44-.71.44z"/><path d="m23.46 97.36c-.19 0-.37-.06-.52-.19l-8.77-7.56c-.34-.29-.37-.8-.08-1.13.29-.34.79-.37 1.13-.08l8.77 7.56c.34.29.37.8.08 1.13-.16.18-.38.28-.61.27z"/><path d="m25.51 95.62c-.27 0-.54-.14-.69-.4l-5.6-9.53c-.22-.38-.1-.87.28-1.1s.87-.1 1.1.28l5.6 9.53c.22.38.1.87-.28 1.1-.13.08-.27.11-.41.11z"/><path d="m15.82 114.98c-.18 0-.37-.06-.52-.19-.34-.29-.38-.79-.09-1.13l7.41-8.7c.29-.34.79-.38 1.13-.09s.38.79.09 1.13l-7.41 8.7c-.16.19-.38.28-.61.28z"/><path d="m37.83 115.96c-.23 0-.46-.1-.62-.29l-7.11-8.62c-.28-.34-.23-.85.11-1.13s.85-.23 1.13.11l7.11 8.62c.28.34.23.85-.11 1.13-.15.12-.33.18-.51.18z"/><path d="m41.99 111.88c-.17 0-.34-.05-.49-.17l-9.08-6.96c-.35-.27-.42-.77-.15-1.12s.77-.42 1.12-.15l9.08 6.96c.35.27.42.77.15 1.12-.16.21-.4.31-.64.31z"/><path d="m44.79 106.59c-.1 0-.2-.02-.3-.06l-10.51-4.24c-.41-.17-.61-.63-.44-1.04s.63-.61 1.04-.44l10.51 4.24c.41.17.61.63.44 1.04-.13.31-.43.5-.74.5z"/></g><path d="m72.83 89.44 3.94 6.82 1.5-3.6s.55-5.23.42-7.81-.44-5.47-.35-6.17 1.58-3.54 1.58-3.54l-3.59-3.55z" fill="#edbd82"/><path d="m27.66 61.99-8.8-1.09s-1.2.59-1.3 1.19-.61 2.35.32 5.21c.3.93 1.08 2.55 1.55 2.75 1.98.81 6.41-.85 6.73-1.21.53-.6.86-1.42.86-1.42s13-2.9 16.21-3.89c3.2-.99 4.02-2.09 4.61-3.13.84-1.48 1.11-4.44 1.11-4.44l-1.92-2.88-19.36 8.9z" fill="#edbd82"/><path d="m79.13 69.55-13.17 3.17s-.14.99-.25 3.39c-.17 3.63.55 7.71.87 10.01.39 2.75 1.44 8.21 1.44 8.21l4.69 1.32 3.32-2.19s-.09-6.17-.31-9.79c-.23-3.76-.22-5.68.13-6.6.54-1.43 1.53-3.02 1.53-3.02s1.75-4.5 1.75-4.5z" fill="#f9ddbd"/><path d="m44.9 48.43-6.25 1.97v2.42 1.44s-2.45 1.01-4.7 1.9-7.31 3.5-8.04 3.65c-.53.11-1.05-.78-1.75-.85s-5.09 1.44-5.29 1.94-.42 2.78-.18 3.66c.34 1.22 1.05 2.71 1.97 3.13.46.21 2.56-.34 2.87-.57s1.75-1.75 1.98-1.94 7.69-1.75 13.64-3.61c4.08-1.28 6.16-2 7.58-2.91 1.2-.78 1.9-1.67 2.22-2.68.2-.64.66-4.35.66-4.35l-4.7-3.19z" fill="#f9ddbd"/><path d="m70.87 100.72-2.47-2.68-.39-3.72s1.37.27 3.95.03c3.12-.29 6.3-1.69 6.3-1.69l-.03 3.57-7.37 4.49z" fill="#858585"/><path d="m68.32 55.58c-.25.37-1.12 7.17-1.5 9.6-.37 2.43-.87 7.54-.87 7.54s4.67.81 7.6 1.43 6.36 1 6.36 1 7.35-11.28 8.91-17.7 1.77-8.87-.25-13.09c-1.61-3.36-6.78-7.06-6.78-7.06s-.37 5.64-4.36 10.62-9.11 7.66-9.11 7.66z" fill="#858585"/><g fill="#f77300"><path d="m72.8 104.26-4.1-.43-.1-2.46-.2-3.32s2.94.39 5.32-.06 4.52-1.75 4.52-1.75v6.12l-5.44 1.91z"/><path d="m51.52 40.17c-.21.14-.81 4.89-.81 4.89s5.65.91 10.23 2.24 8.42 3.75 8.72 3.75c.95 0 5.29-5.15 5.18-5.48-.49-1.55-7.76-3.61-12.69-4.62-5.26-1.08-10.15-1.09-10.63-.78z"/><path d="m76.34 49.2s1.6 2.01 1.17 5.85-1.55 7.74-2.8 11.06-2.57 7.76-2.57 7.76l2.88.57s3.01-8.78 4.11-12.56 1.67-9.44 1.19-11.98c-.48-2.55-1.57-3.81-1.57-3.81s-1.03 1.51-1.32 1.84-1.09 1.28-1.09 1.27z"/><path d="m38.61 46.71v3.96s3.29-.45 5.87-.15 5.17 1.77 5.17 1.77l.58-3.87s-1.43-1.59-5.71-1.92c-3.99-.31-5.91.22-5.91.22z"/></g><path d="m71.36 104.51-10.38 5.3s.06.92.95 1.33 1.71.35 2.82.06 5.71-1.4 7.65-1.9 3.26-1 4.22-1.43c.86-.38 1.47-1.22 1.62-1.9.13-.6.13-1.3.13-1.3s-7.01-.16-7.01-.16z" fill="#868686"/><path d="m68.6 101.37c-.29-.1-4.06 3.3-5.01 4.06s-1.96 1.55-2.41 2.29c-.6.98-.19 2.09-.19 2.09s2.02.1 8.32-1.81c7.97-2.41 9.08-3.33 9.08-3.33s-.03-2.13-.13-2.32-1.81.89-5.43.48c-2.66-.3-4.22-1.46-4.22-1.46z" fill="#e0e0e0"/><path d="m20.66 22.74s8.99-1.22 15.55-4.03 12.77-6.33 12.77-6.54-2.86-1.36-2.86-1.82 3.03-3.99 3.45-3.95 1.18.59 1.09.97-1.81 2.44-1.81 2.44 2.05 1.58 2.14 1.99c.19.91-3.02 4.02-2.98 4.78s.81 2.65.63 3.53c-.19.93-5.58 2.38-12.65 4.03-7.13 1.66-13.99 1.45-13.99 1.45s-.43-.48-.8-1.27c-.35-.75-.55-1.57-.55-1.57z" fill="#2f2f2f"/><path d="m25.6 35.76s1.13-.63 1.84-1.13 1.39-1.01 1.86-.45-.38 1.68-1.04 2.2-1.45 1.07-1.7.98c-.79-.3-.97-1.59-.96-1.6z" fill="#444"/><path d="m27.7 26.23c-.78.42-.6 1.5-.21 2.22.42.78 1.09 1.18 1.79.85.78-.37.54-1.6.17-2.27s-1.09-1.16-1.75-.8z" fill="#3f4040"/></svg>