<svg enable-background="new 0 0 128 128" viewBox="0 0 128 128" xmlns="http://www.w3.org/2000/svg"><path d="m39 48.8s4.2-2 9.8-2.6 7.8-1.4 17.4.3 13 3.4 15.2 4.2 4.9 2.7 6.9 3.3 7 1.1 7.2 3.8c.1 2.3-5.1 2.5-9.8 2.5s-36.7 1.2-36.7 1.2l-8.5-6.7-1.5-5.8z" fill="#85e4ff"/><path d="m50.6 62.6 2.4-.7 6.9 4.3-7.6 3.2z" fill="#f8ab16"/><path d="m70.9 47 6.7 1 2.1-3.1c.6-.9 1.2-2.4 1.6-2.4s4.5 2.7 6.6 4.3 5.3 4.4 6.7 5.9 3.9 5 7.3 6.5c2.6 1.1 5.8 1.3 9.3 0s6.1-2.5 5.8-4.1-8.3-3-8.3-3l-28.3-21.7z" fill="#f8ab19"/><path d="m74.3 46.7s1.7-2.3 3.6-4.9c1.1-1.5 2.2-3 3.4-3s7.8 5.6 10.1 7.6 8.7 9.7 12.8 10.6c3.8.9 5.1.3 5.1.3l7.7-2.6v-.5c-.1 0 .2-1.7-.9-2.7-1.7-1.5-6-1.3-6-1.3s-1.3-1.9-4.1-3.5c-1.9-1-4-1.7-4-1.7s-8.8-12.7-11.7-16.2c-2.9-3.4-6.3-6.9-9.1-6.8-3.4 0-9.4 6.1-11.5 8.4s-5.5 7.1-5.5 7.1l1.3 6 8.9 3.2z" fill="#fec925"/><path d="m107.7 53.8c0 .7 1.2.9 4.5.6 3-.3 4.3-.9 4.6-1 0 0-.1-1.1-.3-1.2-.2 0-1.3.5-4.5.8-1.5.1-4.4-.2-4.3.8z" fill="#e89d05"/><path d="m107.6 57.1c-.1 1 3.2.7 5.6-.2s3.7-1.6 3.8-1.9-.1-.9-.2-.9c0 0-2.5 1.1-4.2 1.6s-4.8.4-4.9 1.3z" fill="#e89d05"/><path d="m80 57.9c-2-.7-4.7-2-4.4-4.3s2.1-5.6 2.1-5.6-3.5-1.5-7.4-4.5-6.2-5.9-6.2-5.9l-2.9 4.3s-5.8 4.6-8.2 8.8c-1.9 3.5-2.3 8.3-2.3 8.3v2.9s3.2 2.4 4.1 3.1c.8.7 2 3 2 3l17 11.4h16.8l7.6-14.5s-16.2-6.2-18.1-6.9z" fill="#fec925"/><path d="m58.6 91.8c-5.1.1-12.3 3-11.7 5s4.1.7 10.4 1.7 11.8 6.4 21.8 7.3 22-4 26.2-10.1 3.9-8.9 2.1-9.9c-2.8-1.6-4.5 5.7-18.4 8.8s-21-3.1-30.5-2.8z" fill="#85e4ff"/><path d="m108.8 40.5c1.2 1.5 4.2-.5 7.2-.7s6.6.6 7.6-2.9-1.9-5.9-6.7-5.3c-5.6.6-9.8 6.6-8.1 8.9z" fill="#0fcaff"/><path d="m101.1 36.2c1.1 1.2 3.6-.4 5.8-1.7 1.6-1 3.9-2.4 2.9-4.7-1.2-2.8-4.3-1.9-6.2-.2s-3.7 5.4-2.5 6.7z" fill="#0fcaff"/><path d="m103.8 32.5c.8.9 1.7 0 2.8-.7s2-1.3 1.4-2.3-2.1-.3-2.9.2-2 1.9-1.3 2.7z" fill="#77f7ff"/><path d="m110.8 37.7c.6.9 2.1 0 4.2-.8s4.8-1.1 4.7-2.5-3.1-1.3-5.2-.4-4.3 2.7-3.7 3.7z" fill="#77f7ff"/><path d="m50.6 58.8s9.6 2.3 20 2.3 12.3-2.2 12.3-2.2 7.2 2.6 11.9 4.4 4.8 2.9 4.8 2.9l-8.8 10.8-14.7 3.2-14.4-8.1s-2.3-3.4-5.6-5.2c-1.5-3-5.5-4.6-5.5-4.6s-.2-.8-.2-2c0-.5 0-1.1.1-1.5z" fill="#4b0fce"/><path d="m19.8 75.9 2.3-23.8 10.2-4.5s.8-2 3.9-1.2c4.2 1.1 6 6.6 6 6.6s3.6 1.6 7.5 6.2 4.2 9.5 4.2 9.5l-6.5 11.7-21.5.2-6-4.9z" fill="#fec925"/><path d="m17.9 69.5 2.9.3s7.9 3.6 14.8 4.3c7 .7 14.4-.7 14.4-.7l-5.6 9-22.1-4.6-4.5-8.4z" fill="#f8ab16"/><path d="m32.3 47.6s-.1.9-.6 1.3c-1.7 1.2-5.9 4.5-7.8 10.8-1.3 4.5-1.6 8.6-1.5 10.4.1 3.4 1.2 7.3 1.2 7.3l-14.9-2.5s-4.3-7.4-2-15c5.4-18 25.8-12.4 25.8-12.4z" fill="#909090"/><path d="m9.1 75.6-.8-1.1s-1.8-3.5-2.2-7.1.5-7.5.5-7.5 4.2 5 8.2 7.5c5 3.1 7.6 3.5 7.6 3.5s.2 1.8.6 3.8.6 2.7.6 2.7l-14.4-1.8z" fill="#7b7b7b"/><path d="m33.3 47.6c-.8-.6-2.2.5-2.8 2.1s-.6 2.9-.6 2.9-3.6 1.7-3.9 6.2c-.3 4.8 2.1 6.2 2.1 6.2s-.8.6-.8 1.9c0 1.4.4 2 .4 2s-2.9 1.2-3.2 5.1c-.4 4 1 5.4 1 5.4l6.2.3s2.1-1.2 2.1-5.2-2.8-5.8-2.8-5.8-.2-.5-.1-1.4c0-1 .4-1.8.4-1.8s4.2-.2 4.4-6-3-7.1-3-7.1 0-1.4.3-2.3 1.1-2 .2-2.7z" fill="#52575c"/><path d="m41.2 67.6c-.2 2.3 1.5 4.1 4.3 4 3.1 0 4.3-2 4.2-3.6 0-1.7-1.2-3.5-4.2-3.7-1.3 0-4.1.2-4.4 3.3z" fill="#403f42"/><path d="m28.8 78.8c.3 0 3.2.2 3.3-3.7.2-3.9-2.3-4.2-2.9-4.1-.6 0-2.9.5-3 4.2-.1 3.1 2.3 3.6 2.6 3.6z" fill="#afd7e9"/><path d="m27.8 72.4c0 .2.6.9 1.3 1.7s1.2 1.6 1.4 1.7c.4.1 1.9-1.6.2-3.4-1.5-1.6-2.8-.4-2.9 0z" fill="#ebf8ff"/><path d="m28.3 75.8c.5.6 2.1 2.6 2.1 2.6s-2 1.1-3.4-.4c-1.5-1.7-.7-4.2-.7-4.2s1.3 1.4 1.9 2.1z" fill="#82bad2"/><path d="m28 58.8c-.1 1.2 0 4.5 2.4 4.8 2.8.3 3.5-2.6 3.5-4.3s-.4-4.2-2.4-4.4-3.4 1.4-3.6 3.9z" fill="#afd7e9"/><path d="m30 56.2c-.2.5 2.5 4.1 2.8 4s.5-3.5-.5-4.2c-1.4-1-2.2 0-2.3.3z" fill="#ebf8ff"/><path d="m29.8 60.3c.8 1 2.3 3 2.3 3s-1.7.9-3.1-.5c-1.7-1.7-.8-5-.8-5z" fill="#82b9d1"/><path d="m38.6 64.5c-.7-.2-2.8.4-2.8 3 0 2.4 1.9 3.2 2.6 3.2s.9-1.5.9-3.2-.2-2.9-.7-3z" fill="#e89d05"/><path d="m34.8 48.7c-.7.7-.4 2.1.9 2.8s2.4.7 2.8.2 0-2.1-.9-2.8-2-1.1-2.8-.3z" fill="#f8ab16"/><path d="m25.9 85.8-9-4.6-6-.8s-3.6-.2-4.9-.4c-2.2-.4-2.1-2.3-1.4-3.2s2.8-2.2 9.4-1.8c6.5.3 14.3 3.2 19.2 3.5s10-.3 13.4-2.6 7.2-8 11.7-10.9c3.7-2.4 8.6-3 9.9-.7s-3.2 7.1-3.2 7.1 8.9-5 11.3-1.2-3.6 5.3-3.3 6.3 6.8 1.8 10.3 1c7.7-1.7 8.6-8.7 13.4-11.9s9.6-.8 13.6.7 8.2.3 8.9 1.9c.3.6-.3 2.2-1.2 3.5-.7.9-2.2 1.5-2.2 1.5l-12-.9-13 11.7-14.8.7-16.2-3.8-20.9 6.1-13-1.1z" fill="#85e4ff"/><path d="m11 80.4s4 .8 5.9 2.1 7.7 6.5 16.8 7c12.9.7 21.4-6.6 27-5.8 5.8.8 16.1 4.8 24.4 3.6 12.2-1.7 14-11.6 19-13.3 2.7-.9 4.8.2 7.4.2 4.1 0 6.3-2.4 6.3-2.4s-3 .6-5.8 0c-2.2-.5-3.6-1.8-7.6-1.7-6.5.2-9.9 10.9-19.2 12.4-6.9 1.1-17.6-1.1-18-2.3-.3-1 3.3-3.8 1.2-6-2.4-2.4-6.8 2-6.8 2s2.4-4.7 0-6.1c-2.8-1.7-4.8.7-9.9 5.6s-13.8 9-19.7 8.9c-5.9-.2-9.4-2.9-12.8-3.6-5.7-1.3-8.2-.6-8.2-.6z" fill="#0fcaff"/><path d="m74.6 46.2s-3.8 4.6-2 8.8c1.4 3.3 8.1 4.2 8.6 3.7.6-.6-3.6-1.3-4.8-3.1-1.1-1.5-.4-3.3-.2-4.1.4-1.5 1.4-3.2 2.5-5 1.2-2 2.5-4 2.5-4l-2.5 1.1-4 2.6z" fill="#f8ab19"/></svg>