<svg enable-background="new 0 0 128 128" viewBox="0 0 128 128" xmlns="http://www.w3.org/2000/svg"><path d="m111.33 69.06h6.33c.68 0 1.31-.34 1.65-.93.56-.95 1.24-2.74 1.24-5.83 0-3.23-.74-5.23-1.32-6.3-.33-.61-.99-.98-1.68-.98h-6.23c-1.07 0-1.93.87-1.93 1.93v10.17c0 1.08.87 1.94 1.94 1.94z" fill="#b0bec5"/><path d="m111.33 69.06h6.33c.68 0 1.31-.34 1.65-.93.56-.95 1.24-2.74 1.24-5.83 0-3.23-.74-5.23-1.32-6.3-.33-.61-.99-.98-1.68-.98h-6.23c-1.07 0-1.93.87-1.93 1.93v10.17c0 1.08.87 1.94 1.94 1.94z" fill="#90a4ae"/><path d="m106.85 69.06h3.99c.43 0 .82-.34 1.04-.93.35-.95.78-2.74.78-5.83 0-3.23-.47-5.23-.83-6.3-.21-.61-.62-.98-1.06-.98h-3.93c-.67 0-1.22.87-1.22 1.93v10.17c.02 1.08.56 1.94 1.23 1.94z" fill="#607d8b"/><path d="m97.39 25.29c-1.38-6.08-5.83-8.46-8.73-8.46h-24.66-24.66c-2.9 0-7.35 2.38-8.73 8.46-1.17 5.13-1.88 11.04-1.88 11.04l35.27-1.21 35.28 1.21c-.01 0-.73-5.91-1.89-11.04z" fill="#78909c"/><path d="m89.63 4.02h-51.47l-3.65 15.24c-1.08 3.8 1.78 7.59 5.73 7.59h47.43c3.98 0 6.84-3.82 5.71-7.64z" fill="#a06841"/><path d="m30.6 102.76c1.38 6.08 5.83 8.46 8.73 8.46h24.67 24.66c2.9 0 7.35-2.38 8.73-8.46 1.17-5.13 1.88-11.04 1.88-11.04l-35.27 1.21-35.28-1.21s.72 5.91 1.88 11.04z" fill="#78909c"/><path d="m38.36 124.02h51.47l3.65-15.24c1.08-3.8-1.78-7.59-5.73-7.59h-47.43c-3.98 0-6.84 3.82-5.71 7.64z" fill="#a06841"/><path d="m87.75 101.2h-47.43c-3.98 0-6.84 3.82-5.71 7.64l1.28 5.17c3.62-6.4 19.89.91 29.57-.12 11.99-1.27 17.37-5.05 21.93-2.36 1.48.87 2.84 2.21 4.56 2.27.12 0 .22-.02.34-.03l1.19-4.98c1.08-3.81-1.78-7.59-5.73-7.59z" fill="#784d30"/><path d="m40.32 26.85h47.43c3.98 0 6.84-3.82 5.71-7.64l-1.28-5.17c-3.62 6.4-19.89-.91-29.57.12-11.99 1.27-17.37 5.05-21.93 2.36-1.48-.87-2.84-2.21-4.56-2.27-.12 0-.22.02-.34.03l-1.19 4.98c-1.09 3.81 1.77 7.59 5.73 7.59z" fill="#784d30"/><circle cx="64" cy="64" fill="#b0bec5" r="47.27"/><circle cx="64.23" cy="64" fill="#fff3e0" r="37.92"/><path d="m53.2 25.45c-5.06 1.46-12.14 3.71-19.72 12.77-7.49 8.95-9.03 19.36-9.51 26.54 0 0-4.32 5.41-4.53 4.4-1.63-7.84 1.66-25.36 10.27-34.62 10.02-10.78 23.06-14.6 27.76-15.32.82-.13-2.73 5.78-4.27 6.23z" fill="#eceff1" opacity=".64"/><circle cx="64" cy="64" fill="#fff" r="35.92"/><circle cx="64.26" cy="64" fill="#563428" r="3.99"/><g fill="#b2947c"><path d="m64 36.97c-.73 0-1.32-.59-1.32-1.32v-3.95c0-.73.59-1.32 1.32-1.32s1.32.59 1.32 1.32v3.95c-.01.73-.6 1.32-1.32 1.32z"/><path d="m64 97.61c-.73 0-1.32-.59-1.32-1.32v-3.95c0-.73.59-1.32 1.32-1.32s1.32.59 1.32 1.32v3.95c-.01.73-.6 1.32-1.32 1.32z"/><path d="m96.29 65.32h-3.95c-.73 0-1.32-.59-1.32-1.32s.59-1.32 1.32-1.32h3.95c.73 0 1.32.59 1.32 1.32s-.59 1.32-1.32 1.32z"/><path d="m35.65 65.32h-3.95c-.73 0-1.32-.59-1.32-1.32s.59-1.32 1.32-1.32h3.95c.73 0 1.32.59 1.32 1.32s-.59 1.32-1.32 1.32z"/><path d="m64 36.97c-.73 0-1.32-.59-1.32-1.32v-3.95c0-.73.59-1.32 1.32-1.32s1.32.59 1.32 1.32v3.95c-.01.73-.6 1.32-1.32 1.32z"/><path d="m64 97.61c-.73 0-1.32-.59-1.32-1.32v-3.95c0-.73.59-1.32 1.32-1.32s1.32.59 1.32 1.32v3.95c-.01.73-.6 1.32-1.32 1.32z"/><path d="m48.68 40.11-1.97-3.42c-.36-.63-.15-1.44.48-1.8s1.44-.15 1.8.48l1.97 3.42c.36.63.15 1.44-.48 1.8-.63.37-1.43.15-1.8-.48z"/><path d="m79 92.63-1.97-3.42c-.36-.63-.15-1.44.48-1.8s1.44-.15 1.8.48l1.97 3.42c.36.63.15 1.44-.48 1.8s-1.43.15-1.8-.48z"/><path d="m48.68 40.11-1.97-3.42c-.36-.63-.15-1.44.48-1.8s1.44-.15 1.8.48l1.97 3.42c.36.63.15 1.44-.48 1.8-.63.37-1.43.15-1.8-.48z"/><path d="m79 92.63-1.97-3.42c-.36-.63-.15-1.44.48-1.8s1.44-.15 1.8.48l1.97 3.42c.36.63.15 1.44-.48 1.8s-1.43.15-1.8-.48z"/><path d="m38.79 50.97-3.42-1.97c-.63-.36-.85-1.17-.48-1.8.36-.63 1.17-.85 1.8-.48l3.42 1.97c.63.36.85 1.17.48 1.8-.37.62-1.17.84-1.8.48z"/><path d="m91.31 81.29-3.42-1.97c-.63-.36-.85-1.17-.48-1.8.36-.63 1.17-.85 1.8-.48l3.42 1.97c.63.36.85 1.17.48 1.8s-1.17.84-1.8.48z"/><path d="m77.51 40.59c-.63-.36-.85-1.17-.48-1.8l1.97-3.42c.36-.63 1.17-.85 1.8-.48.63.36.85 1.17.48 1.8l-1.97 3.42c-.36.63-1.17.84-1.8.48z"/><path d="m47.19 93.11c-.63-.36-.85-1.17-.48-1.8l1.97-3.42c.36-.63 1.17-.85 1.8-.48.63.36.85 1.17.48 1.8l-1.97 3.42c-.37.63-1.17.84-1.8.48z"/><path d="m87.4 50.48c-.36-.63-.15-1.44.48-1.8l3.42-1.97c.63-.36 1.44-.15 1.8.48s.15 1.44-.48 1.8l-3.42 1.97c-.63.37-1.43.16-1.8-.48z"/><path d="m34.89 80.81c-.36-.63-.15-1.44.48-1.8l3.42-1.97c.63-.36 1.44-.15 1.8.48s.15 1.44-.48 1.8l-3.42 1.97c-.63.36-1.44.15-1.8-.48z"/></g><path d="m49.45 55.74 14.55 8.26" fill="none" stroke="#563428" stroke-linecap="round" stroke-miterlimit="10" stroke-width="4.49"/><path d="m84.78 52.08-20.12 11.92" fill="none" stroke="#563428" stroke-linecap="round" stroke-miterlimit="10" stroke-width="3.14"/><path d="m47.07 11.99c6.75.15 13.5-.87 20.25-.54.96.05 1.93.12 2.88-.05s1.89-.61 2.44-1.4.6-1.96-.05-2.67c-.37-.41-.91-.61-1.44-.77-2.83-.83-5.85-.56-8.79-.38-4.92.3-9.85.34-14.77.12-1.82-.08-4.42-.82-6.04.25-1.12.74-1.79 2.28-.98 3.48 1.26 1.85 4.54 1.91 6.5 1.96z" fill="#b7855f"/><g fill="#fff3e0"><path d="m113.87 60.44c-.39-.09-.62-1.11.25-1.34 1.09-.28 3.61-.16 4.83.03.64.1.86 1.35-.33 1.44-.98.07-4.37-.04-4.75-.13z" opacity=".75"/><path d="m113.8 57.69c-.82-.07-1.84-1.68-.43-1.76 1.88-.11 3.62-.03 4.59.03 1.17.08 1.38 1.7.14 1.72-1.15.01-3.34.1-4.3.01z" opacity=".75"/></g></svg>