<svg enable-background="new 0 0 128 128" viewBox="0 0 128 128" xmlns="http://www.w3.org/2000/svg" xmlns:xlink="http://www.w3.org/1999/xlink"><radialGradient id="a" cx="2218.4" cy="26.96" gradientTransform="matrix(-1.0422 0 0 1 2371.6 0)" gradientUnits="userSpaceOnUse" r="74.73"><stop offset=".5993" stop-color="#ffca28"/><stop offset="1" stop-color="#ffb300"/></radialGradient><path d="m50.98 122.96c-3.16 0-6.86-1.72-6.86-6.57 0-5.09-.42-10.72-5.45-13.19-3.46-1.7-12.44-13.2-13.11-22.8-.4-5.7 1.91-6.53 6.09-8.03.42-.15.85-.3 1.28-.46 1.07-.4 1.07-.4.93-8.93 0-5.96 2.32-9.28 7.1-10.13.47-.08.98-.12 1.53-.12 1.71 0 3.47.41 4.75.7.89.21 1.53.35 2.05.35 1.82 0 2.64-1.39 2.75-2.32.01-.06.01-.11.01-.17l.07-38c0-3.62 2.15-7.52 6.87-7.52 4.44 0 7.09 2.8 7.09 7.5l.84 37.15c0 .09.01.18.03.27.33 1.59.68 2.51 1.61 2.79.3.09.61.13.94.13.59 0 1.15-.13 1.79-.29.83-.2 1.86-.45 3.29-.45.87 0 1.81.09 2.81.28 2.92.54 4.55 2.27 5.86 3.65.94.99 1.75 1.85 2.87 2.07.35.07.69.1 1.05.1.68 0 1.32-.12 2.07-.26 1.19-.23 2.67-.51 5.26-.51 4.33 0 7.99 3.34 7.99 7.28l-.34 29.73c0 3.31-2.94 6.81-4.14 8.17-3.05 3.43-4.99 7.81-4.99 12.33v2.03c0 4.14-3.98 5.03-7.38 5.05z" fill="url(#a)"/><g fill="#eda600"><path d="m59 7h.2c4.86 0 5.8 4.04 5.8 6.28v.07l.62 37.11c0 .18-.08.36-.05.53.25 1.25.63 3.33 2.6 3.92.44.13.87.2 1.35.2.77 0 1.45-.17 2.13-.33.83-.2 1.68-.41 2.93-.41.78 0 1.63.08 2.53.25 2.44.45 3.76 1.85 5.04 3.21 1.02 1.08 2.08 2.2 3.67 2.52.44.09.88.13 1.34.13.82 0 1.56-.14 2.35-.29 1.13-.21 2.53-.48 4.98-.48 3.46 0 6.49 2.7 6.49 5.75l-.34 29.78c0 1.93-1.25 4.6-3.51 7.15-3.29 3.7-5.12 8.43-5.12 13.3v2.02c0 .91-.22 3.55-6.13 3.57l-34.83.17c-2.59 0-5.38-1.33-5.38-5.07 0-4-.01-11.44-6.3-14.54-3.15-1.55-11.66-12.61-12.28-21.56-.32-4.57.93-5.02 5.09-6.51.42-.15.86-.31 1.3-.47 1.97-.74 1.97-2.47 1.97-4 0-.71-.01-1.66-.02-2.61-.02-1.85-.05-3.7-.05-3.7 0-6.84 3.34-8.23 5.86-8.68.38-.07.81-.1 1.27-.1 1.54 0 3.2.38 4.41.66.98.23 1.7.39 2.38.39 2.51 0 4.03-1.83 4.24-3.64.01-.11.02-.23.02-.34l.07-38.14c0-2.23 1.13-6.16 5.37-6.16m-.02-2.7c-5.49 0-8.37 4.4-8.37 9.02l-.07 38s-.11.99-1.26.99c-.95 0-3.84-1.06-6.79-1.06-.6 0-1.2.04-1.79.15-6.82 1.21-8.33 6.78-8.33 11.63 0 0 .12 7.47.05 7.5-4.8 1.79-8.86 2.5-8.34 10 .69 9.99 9.8 22 13.94 24.04s4.61 6.46 4.61 11.62c0 5.14 3.73 7.84 8.36 7.84h.05l34.85.06c4.93-.02 9.12-1.59 9.12-6.32v-2c0-4.17 1.54-8.19 4.36-11.36.8-.9 4.32-5.02 4.32-9.14l.31-29.76c0-4.85-4.44-8.78-9.5-8.78-4.32 0-5.86.77-7.33.77-.25 0-.5-.02-.76-.07-1.79-.36-3.4-4.74-8.75-5.73-1.19-.22-2.2-.3-3.08-.3-2.63 0-4.02.74-5.08.74-.18 0-.35-.02-.51-.07-.25-.08-.57-1.65-.57-1.65l-.84-37.11c-.01-5.27-3.1-9.01-8.6-9.01z"/><path d="m32.73 67.68s-.1.37-.23 1.01l.08 3.15-.24.03c-.08.01-.15.02-.23.03-.11 1.99 0 4.48.75 7.03 1.47 4.99 6.33 7.96 7.6 7.08 1.23-.85-.91-4.67-3.65-9.83-1.23-2.32-4.08-8.5-4.08-8.5z"/></g></svg>