<svg enable-background="new 0 0 128 128" viewBox="0 0 128 128" xmlns="http://www.w3.org/2000/svg"><circle cx="64" cy="66.58" fill="#d68f30" r="57.36"/><path d="m10.54 81.48v5.86c.6 1.55 1.27 3.08 2 4.56v-10.42z" fill="#bc6f00"/><path d="m17.08 92.51v7.04c.8 1.13 1.63 2.24 2.5 3.31v-10.35z" fill="#bc6f00"/><path d="m25.74 101.71v7.59c.97.87 1.97 1.7 3 2.5v-10.09z" fill="#bc6f00"/><path d="m36.4 108.7v8.16c.98.54 1.98 1.05 3 1.54v-9.7z" fill="#bc6f00"/><path d="m48.49 113.15v8.64c.99.28 1.99.53 3 .76v-9.4z" fill="#bc6f00"/><path d="m62.64 114.69v9.21c.45.01.9.03 1.36.03.55 0 1.1-.03 1.64-.04v-9.2z" fill="#bc6f00"/><path d="m76.79 113.08v9.4c1.01-.23 2.01-.49 3-.77v-8.63z" fill="#bc6f00"/><path d="m88.85 108.57v9.71c1.02-.49 2.02-1.02 3-1.57v-8.14z" fill="#bc6f00"/><path d="m99.48 101.52v10.1c1.03-.81 2.03-1.64 3-2.52v-7.58z" fill="#bc6f00"/><path d="m111.09 92.29h-2.5v10.35c.87-1.08 1.71-2.19 2.5-3.33z" fill="#bc6f00"/><path d="m117.59 81.22h-2v10.44c.73-1.51 1.4-3.06 2-4.63z" fill="#bc6f00"/><circle cx="64" cy="61.42" fill="#fff176" r="57.36"/><circle cx="64" cy="61.42" fill="#f2bc1a" r="52.25"/><path d="m11.65 63.42c-.37-6.88.82-13.86 3.22-20.4 2.5-6.52 6.33-12.55 11.16-17.67 9.7-10.26 23.78-16.21 37.97-16.28 14.19.08 28.28 6.02 37.96 16.29 4.84 5.11 8.66 11.15 11.16 17.66 2.41 6.55 3.6 13.52 3.22 20.4h-.2c-.02-6.85-1.38-13.68-4-20-2.61-6.32-6.48-12.12-11.29-16.97-4.82-4.85-10.59-8.75-16.9-11.38-6.3-2.64-13.13-4-19.96-4s-13.66 1.36-19.96 4c-6.31 2.63-12.08 6.53-16.9 11.38s-8.68 10.65-11.29 16.97c-2.62 6.32-3.98 13.15-4 20z" fill="#e08f00"/><path d="m64 4.07c-31.68 0-57.36 25.68-57.36 57.36s25.68 57.36 57.36 57.36 57.36-25.68 57.36-57.36-25.68-57.36-57.36-57.36zm0 109.61c-28.86 0-52.25-23.39-52.25-52.25 0-28.87 23.39-52.26 52.25-52.26s52.25 23.39 52.25 52.25-23.39 52.26-52.25 52.26z" fill="#fff176"/><path d="m37.99 21.35 1.27 3.93 4.14-1.58v1.58l-3.35 2.43 1.28 2.34v1.59l-3.34-2.43-3.35 2.43v-1.59l1.28-2.34-3.34-2.43v-1.58l4.13 1.58z" fill="#d38200"/><path d="m22.01 43.91 1.28 3.93 4.13-1.58v1.58l-3.34 2.43 1.28 2.35v1.58l-3.35-2.43-3.34 2.43v-1.58l1.28-2.35-3.35-2.43v-1.58l4.14 1.58z" fill="#d38200"/><path d="m21.54 71.72 1.28 3.93 4.13-1.58v1.58l-3.34 2.43 1.28 2.35v1.58l-3.35-2.43-3.34 2.43v-1.58l1.28-2.35-3.35-2.43v-1.58l4.14 1.58z" fill="#d38200"/><path d="m38.6 93.8 1.28 3.93 4.13-1.58v1.58l-3.34 2.43 1.28 2.34v1.59l-3.35-2.43-3.34 2.43v-1.59l1.28-2.34-3.35-2.43v-1.58l4.14 1.58z" fill="#d38200"/><path d="m90.01 21.35-1.27 3.93-4.14-1.58v1.58l3.35 2.43-1.28 2.34v1.59l3.34-2.43 3.35 2.43v-1.59l-1.28-2.34 3.34-2.43v-1.58l-4.13 1.58z" fill="#d38200"/><path d="m105.99 43.91-1.28 3.93-4.13-1.58v1.58l3.34 2.43-1.28 2.35v1.58l3.35-2.43 3.34 2.43v-1.58l-1.28-2.35 3.35-2.43v-1.58l-4.14 1.58z" fill="#d38200"/><path d="m106.46 71.72-1.28 3.93-4.13-1.58v1.58l3.34 2.43-1.28 2.35v1.58l3.35-2.43 3.34 2.43v-1.58l-1.28-2.35 3.35-2.43v-1.58l-4.14 1.58z" fill="#d38200"/><path d="m89.4 93.8-1.28 3.93-4.13-1.58v1.58l3.34 2.43-1.28 2.34v1.59l3.35-2.43 3.34 2.43v-1.59l-1.28-2.34 3.35-2.43v-1.58l-4.14 1.58z" fill="#d38200"/><path d="m89.4 92.21 1.27 3.93h4.14l-3.35 2.43 1.28 3.93-3.34-2.43-3.35 2.43 1.28-3.93-3.34-2.43h4.13z" fill="#fff176"/><path d="m106.46 70.14 1.27 3.93h4.14l-3.35 2.43 1.28 3.93-3.34-2.43-3.35 2.43 1.28-3.93-3.34-2.43h4.13z" fill="#fff176"/><path d="m105.99 42.33 1.27 3.93h4.14l-3.35 2.43 1.28 3.93-3.34-2.43-3.35 2.43 1.28-3.93-3.34-2.43h4.13z" fill="#fff176"/><path d="m90.01 19.76 1.28 3.93h4.13l-3.34 2.43 1.28 3.93-3.35-2.43-3.34 2.43 1.28-3.93-3.35-2.43h4.14z" fill="#fff176"/><path d="m64.05 102.5 1.28 3.93 4.13-1.58v1.58l-3.34 2.43 1.28 2.35v1.58l-3.35-2.43-3.34 2.43v-1.58l1.28-2.35-3.35-2.43v-1.58l4.14 1.58z" fill="#d38200"/><path d="m64.05 100.4 1.28 3.93h4.13l-3.34 2.43 1.28 3.93-3.35-2.43-3.34 2.43 1.28-3.93-3.35-2.43h4.14z" fill="#fff176"/><path d="m64.05 12.89 1.28 3.93 4.13-1.58v1.58l-3.34 2.43 1.28 2.35v1.58l-3.35-2.43-3.34 2.43v-1.58l1.28-2.35-3.35-2.43v-1.58l4.14 1.58z" fill="#d38200"/><path d="m64.05 11.31 1.28 3.93h4.13l-3.34 2.43 1.28 3.93-3.35-2.43-3.34 2.43 1.28-3.93-3.35-2.43h4.14z" fill="#fff176"/><path d="m38.6 92.21-1.27 3.93h-4.14l3.35 2.43-1.28 3.93 3.34-2.43 3.35 2.43-1.28-3.93 3.34-2.43h-4.13z" fill="#fff176"/><path d="m21.54 70.14-1.27 3.93h-4.14l3.35 2.43-1.28 3.93 3.34-2.43 3.35 2.43-1.28-3.93 3.34-2.43h-4.13z" fill="#fff176"/><path d="m22.01 42.33-1.27 3.93h-4.14l3.35 2.43-1.28 3.93 3.34-2.43 3.35 2.43-1.28-3.93 3.34-2.43h-4.13z" fill="#fff176"/><path d="m37.99 19.76-1.28 3.93h-4.13l3.34 2.43-1.28 3.93 3.35-2.43 3.34 2.43-1.28-3.93 3.35-2.43h-4.14z" fill="#fff176"/><path d="m95.22 48.2c0-.35-62.38 0-62.38 0l-.56 1.68v2.87c0 .52.42.94.94.94h30.99 30.57c.52 0 .94-.42.94-.94v-2.79z" fill="#d38200"/><path d="m95.31 85.5h-62.21l-4.16 2.09.05 2.69c.01.29.25.53.55.53h68.93c.29 0 .54-.23.55-.53l.05-2.64z" fill="#d38200"/><path d="m43.13 77.32h-3.58c-.59 0-1.07-1.86-1.07-2.45l5.71-.18c0 .59-.48 2.63-1.06 2.63z" fill="#d38200"/><path d="m44.35 58.01h-6.03c-.45 0-.84-.3-.97-.73l-.47-3.93h8.83l-.4 3.93c-.12.43-.51.73-.96.73z" fill="#d38200"/><path d="m38.32 78.51h6.03c.45 0 1.34.28 1.46.71 0 0-.03 1.87-.03 2.61s-.3 1.28-.97 1.28h-6.95c-.67 0-.97-.6-.97-1.28s-.03-2.59-.03-2.59c.13-.43 1.01-.73 1.46-.73z" fill="#d38200"/><path d="m89.63 77.32h-3.58c-.59 0-1.07-1.86-1.07-2.45l5.71-.18c0 .59-.47 2.63-1.06 2.63z" fill="#d38200"/><path d="m90.85 58.01h-6.03c-.45 0-.84-.3-.97-.73l-.47-3.93h8.83l-.4 3.93c-.12.43-.51.73-.96.73z" fill="#d38200"/><path d="m84.82 78.51h6.03c.45 0 1.34.28 1.46.71 0 0-.03 1.87-.03 2.61s-.3 1.28-.97 1.28h-6.95c-.67 0-.97-.6-.97-1.28s-.03-2.59-.03-2.59c.13-.43 1.01-.73 1.46-.73z" fill="#d38200"/><path d="m74.13 77.32h-3.58c-.59 0-1.07-1.86-1.07-2.45l5.71-.18c0 .59-.47 2.63-1.06 2.63z" fill="#d38200"/><path d="m75.35 58.01h-6.03c-.45 0-.84-.3-.97-.73l-.47-3.93h8.83l-.4 3.93c-.12.43-.51.73-.96.73z" fill="#d38200"/><path d="m69.32 78.51h6.03c.45 0 1.34.28 1.46.71 0 0-.03 1.87-.03 2.61s-.3 1.28-.97 1.28h-6.95c-.67 0-.97-.6-.97-1.28s-.03-2.59-.03-2.59c.13-.43 1.01-.73 1.46-.73z" fill="#d38200"/><path d="m58.63 77.32h-3.58c-.59 0-1.07-1.86-1.07-2.45l5.71-.18c0 .59-.47 2.63-1.06 2.63z" fill="#d38200"/><path d="m59.85 58.01h-6.03c-.45 0-.84-.3-.97-.73l-.47-3.93h8.83l-.4 3.93c-.12.43-.51.73-.96.73z" fill="#d38200"/><path d="m53.82 78.51h6.03c.45 0 1.34.28 1.46.71 0 0-.03 1.87-.03 2.61s-.3 1.28-.97 1.28h-6.95c-.67 0-.97-.6-.97-1.28s-.03-2.59-.03-2.59c.13-.43 1.01-.73 1.46-.73z" fill="#d38200"/><path d="m95.67 45.52c0-.35-.18-.68-.45-.84l-31.18-17.7-31.22 17.68c-.3.18-.49.51-.49.86l-.05 4.37c0 .55.45 1 1 1h61.43c.55 0 1-.45 1-1z" fill="#fff176"/><path d="m87.84 44.33-23.84-13.53-23.84 13.53z" fill="#f2bc1a"/><g fill="#fff176"><path d="m79.07 42.68-15.07-8.56-15.07 8.56z"/><path d="m93.39 82.02h-58.78c-.58 0-1.13.25-1.52.68l-4.04 4.51c-.28.31-.06.8.36.8h69.18c.41 0 .63-.49.36-.8l-4.05-4.51c-.38-.43-.94-.68-1.51-.68z"/><path d="m89.63 75.51h-3.58c-.59 0-1.07-.48-1.07-1.07v-15.98c0-.59.48-1.07 1.07-1.07h3.58c.59 0 1.07.48 1.07 1.07v15.99c0 .59-.48 1.06-1.07 1.06z"/><path d="m90.86 56.2h-6.03c-.45 0-.84-.3-.97-.73l-.46-1.59c-.19-.64.3-1.28.97-1.28h6.95c.67 0 1.15.64.97 1.28l-.46 1.59c-.13.43-.53.73-.97.73z"/><path d="m84.82 76.71h6.03c.45 0 .84.3.97.73l.46 1.59c.19.64-.3 1.28-.97 1.28h-6.95c-.67 0-1.15-.64-.97-1.28l.46-1.59c.13-.44.53-.73.97-.73z"/><path d="m43.13 75.51h-3.58c-.59 0-1.07-.48-1.07-1.07v-15.98c0-.59.48-1.07 1.07-1.07h3.58c.59 0 1.07.48 1.07 1.07v15.99c-.01.59-.49 1.06-1.07 1.06z"/><path d="m44.35 56.2h-6.03c-.45 0-.84-.3-.97-.73l-.46-1.59c-.19-.64.3-1.28.97-1.28h6.95c.67 0 1.15.64.97 1.28l-.46 1.59c-.13.43-.52.73-.97.73z"/><path d="m38.32 76.71h6.03c.45 0 .84.3.97.73l.46 1.59c.19.64-.3 1.28-.97 1.28h-6.95c-.67 0-1.15-.64-.97-1.28l.46-1.59c.13-.44.52-.73.97-.73z"/><path d="m58.63 75.51h-3.58c-.59 0-1.07-.48-1.07-1.07v-15.98c0-.59.48-1.07 1.07-1.07h3.58c.59 0 1.07.48 1.07 1.07v15.99c-.01.59-.48 1.06-1.07 1.06z"/><path d="m59.85 56.2h-6.03c-.45 0-.84-.3-.97-.73l-.46-1.59c-.19-.64.3-1.28.97-1.28h6.95c.67 0 1.15.64.97 1.28l-.46 1.59c-.13.43-.52.73-.97.73z"/><path d="m53.82 76.71h6.03c.45 0 .84.3.97.73l.46 1.59c.19.64-.3 1.28-.97 1.28h-6.95c-.67 0-1.15-.64-.97-1.28l.46-1.59c.13-.44.52-.73.97-.73z"/><path d="m74.13 75.51h-3.58c-.59 0-1.07-.48-1.07-1.07v-15.98c0-.59.48-1.07 1.07-1.07h3.58c.59 0 1.07.48 1.07 1.07v15.99c-.01.59-.48 1.06-1.07 1.06z"/><path d="m75.35 56.2h-6.03c-.45 0-.84-.3-.97-.73l-.46-1.59c-.19-.64.3-1.28.97-1.28h6.95c.67 0 1.15.64.97 1.28l-.46 1.59c-.13.43-.52.73-.97.73z"/><path d="m69.32 76.71h6.03c.45 0 .84.3.97.73l.46 1.59c.19.64-.3 1.28-.97 1.28h-6.95c-.67 0-1.15-.64-.97-1.28l.46-1.59c.13-.44.53-.73.97-.73z"/></g></svg>