<svg enable-background="new 0 0 128 128" viewBox="0 0 128 128" xmlns="http://www.w3.org/2000/svg"><path d="m39 75.9c-2-2.5-10-13.4-19.9-13.9-2.5-.1-10.7 1.4-7.2 8.7 2.5 5.1 11.8 8.3 21.5 26.6 3 5.6 13 23.8 33.7 23.8 10.4 0 25-4.9 29.7-21.1 3.8-12.9 4.7-27.7-.6-63.2-1.6-10.6-10.2-7.8-10.9-2.2-.5-5.9-.7-11.3-1.5-14.4-1.1-4.8-3.6-6.5-6-6.6-3.1-.2-6.1 2.4-6.6 6.8-.4-3.6-.7-6.4-.8-7.4-1.2-7.5-10.8-7.7-12.3-.3-.7 3.3-1 6.6-1 9.9-.8-12.6-11.7-10.7-12.8-3.2-1.8 12.5-3.1 45.6-5.3 56.5z" fill="#ffca28"/><path d="m64.36 7.26c-2.73-.06-5.51 1.74-6.26 5.44-.7 3.3-1 6.6-1 9.9-.04-.68-.13-1.3-.23-1.9-.21 7.44-.47 16.1-.47 16.1.8-.1 2.1-.8 2.1-2.7s1.2-17.4 1.3-19c.5-7.4 7.4-6.7 8.4-3 .35 1.32 1.5 1.23 2.15.69-.67-3.6-3.3-5.47-5.99-5.53zm-13.55 6.2c-2.96-.16-5.96 2.19-6.51 5.94-1.8 12.5-3.1 45.6-5.3 56.5-.6-.75-1.8-2.29-3.38-4.05l-.42 3.15c.5 4.9 5.8 4.4 6.3.9.2-1.4.8-6 1.3-10.8 1.7-16.1 3.6-44.2 3.7-45.1.7-5.5 8-4.6 8.3.3.1 2 1.7 1.2 1.7.2 0-.21-.04-1.06-.06-1.68-1.11-3.6-3.35-5.23-5.63-5.36zm26.99.14c-3.1-.2-6.1 2.4-6.6 6.8v19.7c.4-.1 1.3-1.3 1.4-3s.9-15 1.1-16.6c.8-7 7.8-5.1 8.3-1.1.14 1.11 1.19 1.25 1.82.89-.01-.03-.01-.06-.02-.09-1.1-4.8-3.6-6.5-6-6.6zm12.61 16.03c-2.44.07-4.76 2.17-5.11 4.97-.1-1.17-.17-2.15-.25-3.26-.52 1.06-.65 1.96-.65 1.96l.8 19.8c.5-.3 1.5-.7 1.5-2.6 0-1.8.8-14.4.8-15.2.3-4.9 5.8-4.1 6.2-.8.12 1.11 1.34 1.3 2.23 1.01-.99-4.3-3.29-5.95-5.52-5.88zm-71.31 32.37c-2.5-.1-10.7 1.4-7.2 8.7 2.5 5.1 11.8 8.3 21.5 26.6 3 5.6 13 23.8 33.7 23.8 6.19 0 13.86-1.76 20.05-6.58-.15-.68-1.29-.72-4.65.98-8.7 4.4-20.3 4.9-31.5-1.6-11.1-6.5-17.4-21.3-20.8-26.8-5.4-8.7-12.6-12.3-15.7-16.9-3.8-5.7 5.3-7.4 8.4-5.5l-.14-2.04c-1.18-.36-2.41-.6-3.66-.66zm31.47 4.38c-.78-.12-1.51.52-1.57 2.02 0 .3-.3 5.2.2 6.5s1.8 1.3 2.5.2c1.4-2 1.5-5.4.2-7.7-.37-.6-.86-.95-1.33-1.02zm15 .6c-.78-.12-1.51.52-1.57 2.02-.1.4-.4 5.3.2 6.5.5 1.3 1.8 1.3 2.5.2 1.4-2 1.5-5.4.2-7.7-.37-.6-.86-.95-1.33-1.02zm13.8.99c-.78-.13-1.51.49-1.57 1.93 0 .3-.3 5 .2 6.3.5 1.2 1.8 1.2 2.5.2 1.4-2 1.5-5.2.2-7.4-.38-.6-.86-.95-1.33-1.03zm12.21 1.64c-.73-.11-1.42.44-1.48 1.69 0 .3-.3 4.4.1 5.4.5 1.1 1.7 1.1 2.4.2 1.3-1.7 1.5-4.5.2-6.4-.34-.53-.79-.82-1.22-.89z" fill="#faa700"/><path d="m65.43 7.39c-.05.2.07.46.27.61.5.2 2.3 1.5 2.8 6.6.4 3 .4 41.9.4 43.4 0 2.2-.7 1.6-.7 3 0 1.2 1.2 1.1 2.3 1.1 1.2 0 2.3.2 2.3-1.1 0-1.2-.7-1.4-.8-2.9 0-.8-.7-34.9-.7-37.8 0 0 .02-.36.02-.55-.03.22-.09.42-.12.65-.4-3.6-.7-6.4-.8-7.4-.52-3.26-2.63-5.14-4.97-5.61zm12.72 6.25c.06.12.15.21.25.26 2.4 1.2 3.3 4.7 3.6 6.7.6 3.7 1.3 38.5 1.3 39.9.1 1.4-.8 1-.7 2.3.1 1.1 1 1.2 2 1.4s2 .4 2-.9c0-1.2-.5-1.6-.6-2.5s-.5-23.9-.6-26.3c0 0-.01-.31-.01-.32-.03.14-.07.27-.09.42-.5-5.9-.7-11.3-1.5-14.4-1.05-4.57-3.36-6.31-5.65-6.56zm-26.12.05c-.05.19.01.41.27.61 2.1 1.5 2.4 4.5 2.4 6s-.8 36.6-.7 38-.7 1.6-.7 2.7c0 1.3 1.2 1.1 2.4 1s2.3-.1 2.3-1.4c0-.7-.6-1.7-.6-2.5s-.2-32.43-.3-35.53v.03c-.35-5.43-2.57-8.16-5.07-8.91zm39.38 16.03c-.19.16-.17.45.09.58 1.2.7 1.9 2.6 2.2 4.1.6 2.8 3.3 24.5 3.5 41.4.5 41.1-21.3 42.5-31 44.8-.37.07-.52.26-.54.46.48.02.95.04 1.44.04 10.4 0 25-4.9 29.7-21.1 3.8-12.9 4.7-27.7-.6-63.2-.69-4.58-2.69-6.65-4.79-7.08zm-72.31 32.28c-.67-.03-1.76.08-2.91.36.08.19.27.36.61.44 10.6 2.4 17.7 13 19.3 14.5s2.9-.5 2.9-1.4c-2-2.5-10-13.4-19.9-13.9z" fill="#b55e19"/></svg>