<svg enable-background="new 0 0 128 128" viewBox="0 0 128 128" xmlns="http://www.w3.org/2000/svg"><g fill="#70853c"><path d="m32.6 5.38c-.47.86.09 1.97 2.16 2.82 2.06.84 6.48 2.72 7.79 4.79s1.97 3.75.56 7.23 1.97 4.04 1.97 4.04 3.47-4.13 1.41-10.04-9.2-8.35-10.23-8.73c-1.03-.39-3.1-1.14-3.66-.11z"/><ellipse cx="36.52" cy="99.58" rx="5.24" ry="5.43" transform="matrix(.7621 -.6475 .6475 .7621 -55.7881 47.3415)"/><ellipse cx="52.01" cy="109.29" rx="5.24" ry="5.43" transform="matrix(.4345 -.9007 .9007 .4345 -69.0267 108.6516)"/><ellipse cx="72.28" cy="112.95" rx="5.24" ry="5.43" transform="matrix(.1597 -.9872 .9872 .1597 -50.7695 166.2591)"/><ellipse cx="91.28" cy="116.75" rx="5.24" ry="5.43" transform="matrix(.1597 -.9872 .9872 .1597 -38.5525 188.2141)"/><ellipse cx="23.8" cy="53.01" rx="5.14" ry="4.93"/><ellipse cx="24.5" cy="68.36" rx="5.14" ry="4.93" transform="matrix(.9964 -.085 .085 .9964 -5.7186 2.3289)"/><ellipse cx="28.16" cy="84.7" rx="5.4" ry="5.52" transform="matrix(.9453 -.3262 .3262 .9453 -26.0837 13.8162)"/></g><path d="m55.41 73.57c6.19 10.42 25.34 10.28 43.5 16.19 11.92 3.88 19.29 13.09 17.88 21.68s-7.47 10.8-12.67 10.56c-6.19-.28-13.66-5.49-19.29-6.76s-27.92-3.47-33.79-5.91c-6.76-2.82-15.49-8.87-20.69-17.88-4.92-8.52-5.91-23.93-6.05-30.97s.14-13.8-.42-15.49-10.03-1.77-11.97-10.28c-2.11-9.29 4.65-19.15 14.64-20.98s22.52 2.96 25.9 14.5c3.38 11.55-1.75 37.42 2.96 45.34z" fill="#b7d019"/><path d="m30.72 62.26c-.64 1.52 1.18 2.65 3.75 2.86 3.38.28 8.47-1.06 12.34-2.53 4.04-1.54 6.55-3.45 6.55-3.45l-.07-4.29s-2.75 2.67-9.06 4.6c-3.02.92-7.32 1.88-8.78 1.92-1.44.04-4.21-.33-4.73.89z" fill="#70853c"/><path d="m45.13 4.77c-.93.72-.35 1.94.42 3 .89 1.22 2.96 3.94 3.05 6.52.06 1.55-.47 5.71-1.17 6.85-1.17 1.92 1.36 3.33 2.63 2.53 1.55-.97 2.2-7.33 1.92-10.04-.47-4.69-3.14-6.9-4.08-7.84-.76-.74-1.93-1.67-2.77-1.02z" fill="#70853c"/><path d="m98.06 89.47s.19 6.79-.84 10.37c-1.17 4.08-2.63 7.27-3.38 8.78-.32.64-.56 1.55.23 2.16s2.16.14 2.72-.7c.67-1.01 2.96-4.79 3.99-9.48 1.39-6.33.94-9.9.94-9.9s-1.36-.56-1.88-.7c-.51-.15-1.78-.53-1.78-.53z" fill="#70853c"/><path d="m81.07 85.25s.19 5.21-.99 9.62c-.8 3-2.86 7.13-3.28 7.98-.42.84-1.34 2.25-.47 3.33 1.25 1.56 3.26-.33 3.92-1.78.43-.96 2.4-4.19 3.59-8.78 1.36-5.26.99-9.53.99-9.53z" fill="#70853c"/><path d="m64.32 80.7s-.49 6.73-2.11 9.76c-2.53 4.74-5.77 7.32-6.19 7.74s-2.02 1.82-.47 2.91c1.27.89 2.82 0 3.24-.38s5.02-3.41 7.23-9.34c1.78-4.79 1.88-9.39 1.88-9.39s-1.45-.56-1.83-.7c-.39-.13-1.75-.6-1.75-.6z" fill="#70853c"/><path d="m54.49 71.45s-3.87 4.6-6.55 6.48c-3.31 2.33-7.41 3.61-8.78 3.75-1.36.14-3.24.28-3 2.06.23 1.78 2.81 1.69 4.18 1.69 2.11 0 7.13-1.99 10.35-4.34 3.07-2.24 5.91-5.77 5.91-5.77s-1.2-1.5-1.34-1.97c-.14-.46-.77-1.9-.77-1.9z" fill="#70853c"/><circle cx="32.17" cy="55.01" fill="#fe6014" r="3.1"/><circle cx="32.87" cy="74.93" fill="#fe6014" r="3.1"/><circle cx="46.39" cy="94.74" fill="#fe6014" r="3.1"/><ellipse cx="68.48" cy="103.34" fill="#fe6014" rx="2.88" ry="2.83"/><ellipse cx="87.01" cy="107.78" fill="#fe6014" rx="2.85" ry="2.72"/><ellipse cx="103.69" cy="112.98" fill="#fe6014" rx="2.85" ry="2.72"/><path d="m109.1 96.05c-2.22-1.09-3.84 2.56-4.81 6.49s-1.87 6.58.57 7.37c2.98.96 5.12-3.45 5.86-6.85s.41-6.02-1.62-7.01z" fill="#2e2e27"/><path d="m92.99 88.84c-3.52-.99-4.02 3.79-4.86 7.53-.88 3.94-3.1 7.42.07 8.38 3.94 1.2 5.98-3.85 6.69-7.04.74-3.31 1.46-7.93-1.9-8.87z" fill="#2e2e27"/><path d="m74.83 84.34c-3.68-.99-4.18 3.71-5.35 7.72-1.17 4.04-1.65 7.47.56 8.26 2.63.94 4.83-2.06 6.05-6.15 1.23-4.09 2.55-8.82-1.26-9.83z" fill="#2e2e27"/><path d="m49.87 92.69c2.5 2.7 6.44-.68 8.49-3.57 1.97-2.77 5.53-7.39 2.39-9.76-2.67-2.02-6.02 2.2-8.02 4.83-1.78 2.35-5.25 5.92-2.86 8.5z" fill="#2e2e27"/><path d="m36.26 73.66c.6 2.41 6.29 3.1 10.75.52 3.15-1.82 6.8-4.65 5.96-7.93-.88-3.44-6.29-.33-9.43.94-3.15 1.26-8.31 2.34-7.28 6.47z" fill="#2e2e27"/><path d="m52.8 48.16c-.7-2.39-4.48.12-8.66 1.48-3.73 1.22-8.87.99-8.59 4.88.25 3.42 8.01 2 10.98.89 3.53-1.32 7.27-3.87 6.27-7.25z" fill="#2e2e27"/><ellipse cx="31.08" cy="26.95" fill="#2e2e27" rx="3.43" ry="3.19" transform="matrix(.5 -.866 .866 .5 -7.8044 40.3903)"/></svg>