<svg enable-background="new 0 0 128 128" viewBox="0 0 128 128" xmlns="http://www.w3.org/2000/svg" xmlns:xlink="http://www.w3.org/1999/xlink"><linearGradient id="a" gradientTransform="matrix(1 0 0 -1 0 -2176)" gradientUnits="userSpaceOnUse" x1="65.3786" x2="65.3786" y1="-2267.1399" y2="-2296.8545"><stop offset=".33" stop-color="#97715c"/><stop offset=".48" stop-color="#a47d66"/><stop offset=".72" stop-color="#b48c72"/><stop offset=".9" stop-color="#ba9176"/></linearGradient><linearGradient id="b"><stop offset=".17" stop-color="#97715c"/><stop offset=".26" stop-color="#a07962"/><stop offset=".54" stop-color="#b38b71"/><stop offset=".73" stop-color="#ba9176"/></linearGradient><linearGradient id="c" gradientTransform="matrix(1 0 0 -1 0 -2176)" gradientUnits="userSpaceOnUse" x1="98.8989" x2="100.0789" xlink:href="#b" y1="-2256.6499" y2="-2283.22"/><linearGradient id="d" gradientTransform="matrix(1 0 0 -1 0 -2176)" gradientUnits="userSpaceOnUse" x1="46.4123" x2="47.5722" xlink:href="#b" y1="-2267.7979" y2="-2293.6753"/><linearGradient id="e" gradientTransform="matrix(1 0 0 -1 0 -2176)" gradientUnits="userSpaceOnUse" x1="81.3612" x2="80.6612" y1="-2216.1599" y2="-2271.9099"><stop offset=".27" stop-color="#855a4a"/><stop offset=".43" stop-color="#956c5a"/><stop offset=".64" stop-color="#ad8671"/><stop offset=".75" stop-color="#b18873"/><stop offset=".85" stop-color="#bb8d7a"/><stop offset=".95" stop-color="#ce9686"/><stop offset="1" stop-color="#da9c8e"/></linearGradient><radialGradient id="f" cx="1097.688" cy="1240.126" gradientTransform="matrix(-.12 .99 1.73 .21 -1952.97 -1282.13)" gradientUnits="userSpaceOnUse" r="25.09"><stop offset=".51" stop-color="#ad8671" stop-opacity="0"/><stop offset=".65" stop-color="#b48975" stop-opacity=".28"/><stop offset=".85" stop-color="#c79382" stop-opacity=".7"/><stop offset="1" stop-color="#da9c8e"/></radialGradient><radialGradient id="g" cx="-1499.1415" cy="1248.2665" gradientTransform="matrix(.55 -.83 .58 .39 134.15 -1668.34)" gradientUnits="userSpaceOnUse" r="38.98"><stop offset="0" stop-color="#845a4a"/><stop offset=".26" stop-color="#8b6352"/><stop offset=".68" stop-color="#a07d68"/><stop offset="1" stop-color="#b2947c"/></radialGradient><radialGradient id="h" cx="982.5405" cy="-960.4694" gradientTransform="matrix(.91 .41 .58 -1.29 -285.63 -1563.8601)" gradientUnits="userSpaceOnUse" r="7.34"><stop offset="0" stop-color="#da9c8e"/><stop offset=".3" stop-color="#d69a8b" stop-opacity=".7"/><stop offset=".6" stop-color="#ca9484" stop-opacity=".4"/><stop offset=".89" stop-color="#b78b77" stop-opacity=".11"/><stop offset="1" stop-color="#ad8671" stop-opacity="0"/></radialGradient><path d="m75.4 91.2-15.5 1.7s.2 13.9 0 16.3c-.4 4.2-6.5 7.3-3.9 10.1 1.9 2.2 11 2.1 14-.2 2.92-2.1 4.72-5.41 4.9-9-.1-5.5.5-19.6.5-18.9z" fill="url(#a)"/><path d="m99.1 88.5s.3 8.7-.6 10.8c-1.8 4.2-12 6.1-14.9 2.2-2.2-2.8 1.3-3.9 1.7-6.1s.4-10 .4-10l30-5.6s.8 14.8.6 17.5-1.1 8.3-7.2 9.3-8.6-.7-8.7-1.7c-.3-2 2.5-3.4 2.7-5.1s-.1-13.4-.1-13.4z" fill="url(#c)"/><path d="m41.9 92s1.5 11.4.1 14.6-4.3 7.6-3 9.2c2.4 2.8 9 2.4 12.4.3s3.2-3.8 3.5-5.6-.1-8.3-.1-10.8.4-7.5.4-7.5z" fill="url(#d)"/><g fill="#835a4a"><path d="m60.4 115.8c-1.8-2.1-6.4 1.7-4 3.7 1.9 1.7 5.4-2 4-3.7z"/><path d="m64.8 116.5c-2.5-.6-5.4 3.8-2.2 4.2s4.3-3.7 2.2-4.2z"/><path d="m46.9 113.1c-2.3-.6-5 3.6-2.2 4.6 3 1.1 5.1-3.9 2.2-4.6z"/><path d="m42 112.1c-2-.7-5.2 2.8-2.5 4.4 2.4 1.6 5.3-3.4 2.5-4.4z"/><path d="m86.7 98.4c2.2.9.4 6.1-2.3 4.2-2.2-1.4.1-5 2.3-4.2z"/><path d="m91.7 99.3c2.1.4.7 5.1-2 4.7s-.6-5.2 2-4.7z"/><path d="m103.3 102.4c-1.4-1-4.2 2.5-2.5 3.7s4.3-2.5 2.5-3.7z"/><path d="m107 103.4c-2-.3-4.6 3.2-2.2 3.8s4.6-3.4 2.2-3.8z"/></g><path d="m57.2 49.9s19.6-15.9 37.3-11.5c19.8 5 21.5 24.2 24.2 24.2 2.2 0 2.1-2.9 3.5-2.4s1.3 6.5-1.3 7.9c-.96.49-2.02.73-3.1.7.12 2.54-.02 5.09-.4 7.6-.6 2.3-1.6 5.8-1.6 5.8-2.64-.2-5.27.46-7.5 1.9-4.7 3-5.8 7.8-18.8 11-7.9 2-10.9 2.1-13.5 2-2.8-.1-4.7-2-8.5-1.7s-4.9 1.9-7.4 2c-2.86.09-5.7-.35-8.4-1.3l-13-5 15.2-40.5z" fill="url(#e)"/><path d="m39.2 91s3.2 6.3 13 2.5 17.2-19.4 17.2-19.4l6.3-13.2-25.8-4.1z" fill="url(#f)"/><path d="m54.8 57.8c1.6-1.77 2.89-3.8 3.8-6 1.4-3.7 1.6-8.9-1.2-10.2-6.9-3.2-9 6.4-9.3 6.4s-3.2-2.1-5.6-2.4c-1.48-.17-2.98-.04-4.4.4 0 0 4.4-7.4-1.1-8.7-5.3-1.2-6.1 8-6.1 8-1.54.98-2.96 2.16-4.2 3.5-1.5 1.8-2.2 3.8-3.4 4.2s-6 .6-7.3 5.2 1.2 8.6.1 11.7c-1.3 3.8-3 3.6-5.3 4.6-6.2 2.5-6.8 5-7.2 9.7-.4 5.4 3.4 12.6 12.1 15.1s14.6-.1 17.9-2.2c3-2 3.9-4.7 6-5.1 4.05-1 7.77-3.04 10.8-5.9 4.9-4.4 8.5-8.4 6.6-19-.46-3.16-1.19-6.27-2.2-9.3z" fill="#b89379"/><path d="m34.8 41.3c-1.1 3.7-5.3 6.2-7.3 10.3s-2.4 8.9-3.9 12.4c-1.9 4.6-6.6 7.3-9.4 8.9-3.7 2.2-5.6 1.7-7.7 3.5-3.3 2.8-2.7 5.7-2.7 5.7l29.5 3.7s2.3-1.8 2.1-3.2c-.6-4.6-6.2-11.4-4.4-16.8s6.4-8.8 11.6-10.4c4.5-1.4 7.7-2.3 7.7-2.3.41-2.31 1.25-4.52 2.5-6.5 1.26-1.85 2.66-3.58 4.2-5.2-1.7-.81-3.7-.7-5.3.3-1.6 1.1-3.3 4.9-3.8 6-1.48-1.02-3.14-1.74-4.9-2.1-1.66-.27-3.36-.2-5 .2 0 0 4.7-7.7-1.4-8.8-.75 1.37-1.35 2.81-1.8 4.3z" fill="url(#g)"/><path d="m53.9 63.8c-3.8-1.4-8.9 3.5-10.6 8.9s-1.5 11.1 3.2 12c3.9.7 7.9-3 9.9-7.4s2.2-11.8-2.5-13.5z" fill="url(#h)"/><path d="m41.5 78.8s4 1 4-.7-2.4-2.2-2.9-2.1-2.7.3-1.1 2.8z" fill="#0b0b0b"/><path d="m36.4 89.8c1.22-1.81 2.23-3.76 3-5.8.7-2.8-.3-5.6.6-7.2.86-1.22 2.52-1.57 3.8-.8.8.4-1.9.3-1.8 2.2s.6 3.9-.3 7.1c-.96 3.15-2.8 5.96-5.3 8.1-1.2.9 0-3.6 0-3.6z" fill="#6b4433"/><path d="m19 79.3c3.76-.81 7.64-.81 11.4 0 6 1.4 7.9 5.2 7.4 10.8-.3 3.4-4.9 7.9-12.2 7.4s-10.2-5.1-10.2-5.1-4.1 3.2-9.4-.2c-2.5-1.6-3.3-5.8-2.7-9.3.4-2.7 1.4-3.9 2.3-4.6 2.34-2.02 5.55-2.7 8.5-1.8 1.84.51 3.53 1.47 4.9 2.8z" fill="#845a4a"/><path d="m22.8 85c-1 1.1-2 2.4-1 3.4s2.6-.3 3.7-1.5 1.6-2.2.7-3.1-2.1-.3-3.4 1.2z" fill="#0b0c0c"/><path d="m13.2 82.6c-1.3-1.9-2.2-2.4-3.3-1.5s.1 2.6.8 3.6 2.1 2.4 3.1 1.6c1.5-1.3.3-2.4-.6-3.7z" fill="#0b0c0c"/><path d="m44.2 66.5c.1 2.8-1.6 4-3.5 4-2.04-.15-3.58-1.93-3.43-3.97.13-1.83 1.59-3.29 3.43-3.43 1.9-.02 3.47 1.5 3.5 3.4z" fill="#0b0c0c"/><path d="m21.7 61.1c0 2.6-1.1 3.7-2.5 3.7s-2.4-1.5-2.4-3.4 1.1-3.4 2.4-3.4 2.4 1.2 2.5 3.1z" fill="#0b0c0c"/></svg>