<svg enable-background="new 0 0 128 128" viewBox="0 0 128 128" xmlns="http://www.w3.org/2000/svg" xmlns:xlink="http://www.w3.org/1999/xlink"><linearGradient id="a"><stop offset="0" stop-color="#8d5738"/><stop offset=".5" stop-color="#a56c43"/></linearGradient><linearGradient id="b" gradientUnits="userSpaceOnUse" x1="77.02" x2="77.02" xlink:href="#a" y1="73.38" y2="111.71"/><linearGradient id="c" gradientUnits="userSpaceOnUse" x1="50.98" x2="50.98" xlink:href="#a" y1="73.38" y2="111.71"/><linearGradient id="d"><stop offset=".7275" stop-color="#554138" stop-opacity="0"/><stop offset="1" stop-color="#554138"/></linearGradient><radialGradient id="e" cx="109.65" cy="42.86" gradientTransform="matrix(1 0 0 -.4912 -41.07 62.88)" gradientUnits="userSpaceOnUse" r="7.24" xlink:href="#d"/><linearGradient id="f"><stop offset=".6628" stop-color="#554138"/><stop offset="1" stop-color="#554138" stop-opacity="0"/></linearGradient><radialGradient id="g" cx="104" cy="37.96" gradientTransform="matrix(-.9057 .4238 .3144 .6719 157.97 -28.83)" gradientUnits="userSpaceOnUse" r="2.14" xlink:href="#f"/><linearGradient id="h"><stop offset=".7247" stop-color="#554138" stop-opacity="0"/><stop offset="1" stop-color="#554138"/></linearGradient><radialGradient id="i" cx="110.13" cy="34.8" gradientTransform="matrix(-.0746 -.9972 -.8311 .0622 107.3 142.35)" gradientUnits="userSpaceOnUse" r="9.4" xlink:href="#h"/><radialGradient id="j" cx="59.9" cy="32.41" gradientTransform="matrix(.0746 -.9972 .8311 .0622 26.57 92.41)" gradientUnits="userSpaceOnUse" r="9.4" xlink:href="#h"/><radialGradient id="k" cx="61.56" cy="42.86" gradientTransform="matrix(-1 0 0 -.4912 121.12 62.88)" gradientUnits="userSpaceOnUse" r="7.24" xlink:href="#d"/><radialGradient id="l" cx="52.1" cy="39.1" gradientTransform="matrix(.9057 .4238 -.3144 .6719 17.53 -7.6)" gradientUnits="userSpaceOnUse" r="2.14" xlink:href="#f"/><linearGradient id="m" gradientUnits="userSpaceOnUse" x1="80.67" x2="93.51" xlink:href="#a" y1="43.66" y2="22.63"/><linearGradient id="n" gradientUnits="userSpaceOnUse" x1="47.2" x2="34.27" xlink:href="#a" y1="43.48" y2="22.73"/><linearGradient id="o" gradientUnits="userSpaceOnUse" x1="64" x2="64" y1="46.12" y2="71.62"><stop offset="0" stop-color="#f78c1f"/><stop offset=".4936" stop-color="#f37f20"/><stop offset="1" stop-color="#ed6d23"/></linearGradient><linearGradient id="p"><stop offset=".6985" stop-color="#554138" stop-opacity="0"/><stop offset="1" stop-color="#554138"/></linearGradient><radialGradient id="q" cx="69.38" cy="29.6" gradientTransform="matrix(.3076 .9515 -.706 .2282 69.2 -43.04)" gradientUnits="userSpaceOnUse" r="11.02" xlink:href="#p"/><radialGradient id="r" cx="58.54" cy="16.38" gradientTransform="matrix(.8813 .4726 -.5603 1.045 16.48 -27.06)" gradientUnits="userSpaceOnUse" r="2.89"><stop offset=".58" stop-color="#554138"/><stop offset="1" stop-color="#554138" stop-opacity="0"/></radialGradient><radialGradient id="s" cx="164.4" cy="66.86" gradientTransform="matrix(-.9378 -.3944 .2182 -.5285 204.94 123.14)" gradientUnits="userSpaceOnUse" r="8.88" xlink:href="#p"/><radialGradient id="t" cx="57.73" cy="18.54" gradientTransform="matrix(1 0 0 1.2233 0 -2.32)" gradientUnits="userSpaceOnUse" r="2.65"><stop offset=".7016" stop-color="#554138" stop-opacity="0"/><stop offset="1" stop-color="#554138"/></radialGradient><radialGradient id="u" cx="59.6" cy="24.79" gradientTransform="matrix(-.9657 -.2598 .2432 -.9037 108.89 62.93)" gradientUnits="userSpaceOnUse" r="4.97"><stop offset=".6605" stop-color="#554138" stop-opacity="0"/><stop offset="1" stop-color="#554138"/></radialGradient><radialGradient id="v" cx="56.06" cy="28.23" gradientTransform="matrix(.9907 .1363 -.1915 1.3921 6.06 -17.1)" gradientUnits="userSpaceOnUse" r="5.22"><stop offset=".5981" stop-color="#554138" stop-opacity="0"/><stop offset="1" stop-color="#554138"/></radialGradient><radialGradient id="w" cx="35.39" cy="21.2" gradientUnits="userSpaceOnUse" r="5.68" xlink:href="#a"/><linearGradient id="x" gradientUnits="userSpaceOnUse" x1="64" x2="64" y1="15.38" y2="21.44"><stop offset="0" stop-color="#bdbdbd"/><stop offset="1" stop-color="#757575"/></linearGradient><linearGradient id="y"><stop offset=".3956" stop-color="#9e9e9e"/><stop offset=".7899" stop-color="#646464"/></linearGradient><radialGradient id="z" cx="-102.26" cy="115.86" gradientTransform="matrix(0 .9016 .507 0 -37.87 100.88)" gradientUnits="userSpaceOnUse" r="24.35" xlink:href="#y"/><radialGradient id="A" cx="-1251.92" cy="123.75" gradientTransform="matrix(0 .9016 -.507 0 169.88 1137.5)" gradientUnits="userSpaceOnUse" r="24.35" xlink:href="#y"/><linearGradient id="B"><stop offset=".4406" stop-color="#9e9e9e"/><stop offset=".9854" stop-color="#646464"/></linearGradient><radialGradient id="C" cx="-172.46" cy="114.08" gradientTransform="matrix(1.3333 0 0 -2.3062 240.16 275.93)" gradientUnits="userSpaceOnUse" r="3.54" xlink:href="#B"/><radialGradient id="D" cx="-1204.1" cy="114.08" gradientTransform="matrix(-1.3333 0 0 -2.3062 -1487.73 275.93)" gradientUnits="userSpaceOnUse" r="3.54" xlink:href="#B"/><linearGradient id="E" gradientUnits="userSpaceOnUse" x1="34.8" x2="34.9" xlink:href="#a" y1="16.63" y2="13.31"/><linearGradient id="F"><stop offset="0" stop-color="#8d5738"/><stop offset=".4693" stop-color="#a56c43"/></linearGradient><linearGradient id="G" gradientUnits="userSpaceOnUse" x1="35.01" x2="40.31" xlink:href="#F" y1="20.33" y2="17.68"/><radialGradient id="H" cx="39.39" cy="19.2" gradientTransform="matrix(-1 0 0 1 132.12 2)" gradientUnits="userSpaceOnUse" r="5.68" xlink:href="#a"/><linearGradient id="I" gradientTransform="matrix(-1 0 0 1 132.12 2)" gradientUnits="userSpaceOnUse" x1="38.8" x2="38.9" xlink:href="#a" y1="14.63" y2="11.31"/><linearGradient id="J" gradientTransform="matrix(-1 0 0 1 132.12 2)" gradientUnits="userSpaceOnUse" x1="39.01" x2="44.31" xlink:href="#F" y1="18.33" y2="15.68"/><path d="m87.45 86.8c-1.78-1.92-4.11-4.42-6.15-6.58-3.96-4.17-8.8-7.29-8.8-7.29l-8.05 8.64s3.13 5.76 7.12 9.19c1.95 1.68 4.39 3.39 6.38 4.71-.3.99-.6 2.28-.73 3.82-.38 4.78.36 11.08.39 11.78.12 3.66.16 6.37.16 6.37l6.34-.02 5.28-23.42c.58-2.57-.14-5.27-1.94-7.2z" fill="url(#b)"/><path d="m55.49 72.93s-4.84 3.12-8.79 7.3c-2.04 2.16-4.37 4.66-6.15 6.58-1.8 1.93-2.52 4.63-1.94 7.2l5.28 23.42 6.34.02s.04-2.71.16-6.37c.02-.7.77-7 .39-11.78-.12-1.54-.43-2.83-.73-3.82 1.99-1.32 4.43-3.03 6.38-4.71 3.99-3.43 7.12-9.19 7.12-9.19z" fill="url(#c)"/><path d="m42.29 111.07 1.61 6.35 6.34.02.14-6.37z" fill="#e0e0e0"/><path d="m52.42 119.94c-.01-1.92-1.66-4.1-1.66-4.1h-7.75l-5.98 2.11c-1.54.61-2.56 2.09-2.56 3.75v1.28c0 .56.45 1.02 1.01 1.02l15.79-.05c.64 0 1.16-.52 1.16-1.17z" fill="#4568ad"/><path d="m77.61 111.07.17 6.37 6.33-.02 1.6-6.35z" fill="#e0e0e0"/><path d="m90.97 117.95-5.97-2.11h-7.75s-1.66 2.18-1.66 4.11l-.01 2.84c0 .64.52 1.16 1.16 1.17l15.78.04c.56 0 1.01-.45 1.01-1.02v-1.28c0-1.66-1.02-3.14-2.56-3.75z" fill="#4568ad"/><path d="m74.86 41.11c-.39-.7.11-1.42.94-2.3 1.33-1.4 2.78-4.66 1.44-7.97.01-.02-.26-.58-.26-.59l-.56-.03c-.18-.03-6.27-.04-12.36-.04s-12.18.01-12.36.04c0 0-.82.6-.81.62-1.35 3.31.1 6.56 1.44 7.97.84.88 1.33 1.6.94 2.3-.37.68-1.49.78-1.49.78s.26.7.88 1.08c.57.35 1.28.43 1.76.44 0 0 1.9 2.63 6.87 2.63h2.77 2.77c4.97 0 6.87-2.63 6.87-2.63.49-.01 1.19-.09 1.76-.44.62-.38.88-1.08.88-1.08s-1.11-.09-1.48-.78z" fill="#3c2c23"/><path d="m64.06 46.04v-2.92l8.84-.7.8.99s-1.9 2.63-6.87 2.63z" fill="url(#e)"/><path d="m73.68 42.14c-1.32-2.01 1.61-2.76 1.61-2.76s0 0 0 0c-.51.63-.74 1.19-.44 1.73.37.68 1.49.78 1.49.78s-1.52 1.35-2.66.25z" fill="url(#g)"/><path d="m77.24 30.85c1.31 3.2-.07 6.5-1.36 7.89-.18.19-.93.93-1.1 1.52 0 0-2.95-4.12-3.83-6.53-.18-.49-.34-.99-.36-1.51-.02-.39.04-.85.27-1.18.28-.41 6.24-.52 6.24-.52-.01-.01.14.33.14.33z" fill="url(#i)"/><path d="m50.89 30.85c-1.31 3.2.07 6.5 1.36 7.89.18.19.93.93 1.1 1.52 0 0 2.95-4.12 3.83-6.53.18-.49.34-.99.36-1.51.02-.39-.04-.85-.27-1.18-.28-.41-.6-.3-1.06-.3-.89 0-4.79-.23-5.09-.23.01 0-.23.34-.23.34z" fill="url(#j)"/><path d="m64.07 46.04v-2.92l-8.84-.7-.8.99s1.9 2.63 6.87 2.63z" fill="url(#k)"/><path d="m54.46 42.14c1.33-2.01-1.61-2.76-1.61-2.76s0 0 0 0c.51.63.74 1.19.44 1.73-.37.68-1.49.78-1.49.78s1.51 1.35 2.66.25z" fill="url(#l)"/><path d="m96.26 23.12-4.54-2.29c-3.63 3.56-5.35 6.61-6.97 11.92-3.43 1.63-6.39 4.62-8.31 7.71-2.04 2.81-3.32 4.37-4.79 7.16-1.11 2.12-.31 4.48 1.7 5.95.95.7 1.72 1 2.47 1 .84 0 1.64-.39 2.62-1.05 2.07-1.18 4.88-4.3 6.68-6.62l-.05-.03c2.29-2.85 4.6-6.87 5.75-10.67 3.22-3.36 5.44-7.77 5.44-13.08z" fill="url(#m)"/><path d="m56.35 47.63c-1.47-2.79-2.75-4.35-4.79-7.16-1.92-3.09-4.88-6.08-8.31-7.71-1.63-5.33-3.35-8.37-6.98-11.93l-4.53 2.3c0 5.31 2.22 9.71 5.44 13.08 1.15 3.79 3.45 7.82 5.75 10.67l-.05.03c1.8 2.32 4.61 5.44 6.68 6.62.98.66 1.78 1.05 2.62 1.05.75 0 1.52-.31 2.47-1 2-1.47 2.81-3.84 1.7-5.95z" fill="url(#n)"/><path d="m76.44 40.46c-1.79 2.46-2.99 3.97-4.25 6.18-1.23-.32-2.62-.5-4.16-.5h-8.17c-1.51 0-2.86.18-4.06.49-1.26-2.21-2.46-3.72-4.25-6.18l-8.67 6.45c1.8 2.32 5.68 6.62 5.68 6.62.83 4.06 5.61 20.2 5.61 20.2h20.27l5.17-20.28s3.75-4.28 5.51-6.53z" fill="url(#o)"/><path d="m60.53 46.84c0 1.66 1.41 3.01 3.15 3.01h.63c1.74 0 3.15-1.35 3.15-3.01v-3.67h-6.93z" fill="#7a4c32"/><path d="m55.54 38.6c-1.55 0-2.82-1.36-2.82-3.03s1.26-3.03 2.82-3.03h16.92c1.55 0 2.82 1.36 2.82 3.03s-1.26 3.03-2.82 3.03z" fill="#7a4c32"/><path d="m64 19.95c-5.36 0-10.32 5.73-10.32 13.97 0 8.2 5.11 12.25 10.32 12.25s10.32-4.05 10.32-12.25c0-8.24-4.96-13.97-10.32-13.97z" fill="#a56c43"/><path d="m65.19 37.49c-.03-.01-.07-.02-.1-.03h-2.19c-.03 0-.07.01-.1.03-.2.08-.31.29-.21.51.09.22.53.83 1.41.83s1.31-.61 1.41-.83c.09-.22-.02-.43-.22-.51z" fill="#875334"/><path d="m66.6 39.97c-.99.59-4.22.59-5.2 0-.57-.34-1.15.18-.91.69.23.51 2 1.68 3.52 1.68s3.27-1.17 3.5-1.68-.34-1.03-.91-.69z" fill="#473530"/><g fill="#42312c"><ellipse cx="58.98" cy="34.62" rx="1.5" ry="1.56"/><ellipse cx="69.02" cy="34.62" rx="1.5" ry="1.56"/><path d="m61.21 31.82c-.29-.38-.95-.93-2.23-.93-1.29 0-1.95.55-2.23.93-.13.17-.09.36-.01.48.08.11.32.21.59.12s.78-.36 1.65-.37c.87.01 1.39.27 1.65.37.27.09.51-.01.59-.12.09-.12.12-.31-.01-.48z"/><path d="m71.25 31.82c-.29-.38-.95-.93-2.23-.93-1.29 0-1.95.55-2.23.93-.13.17-.09.36-.01.48.08.11.32.21.59.12s.78-.36 1.65-.37c.87.01 1.39.27 1.65.37.27.09.51-.01.59-.12.09-.12.12-.31-.01-.48z"/></g><path d="m76.46 24.19c-.75-1.14-2.45-2.67-3.96-2.77-.24-1.46-1.81-2.7-3.32-3.17-4.09-1.3-6.75.16-8.19.94-.3.16-2.22 1.23-3.56.46-.84-.48-.83-1.77-.83-1.77s-2.64 1-1.74 3.8c-.9.04-2.09.42-2.72 1.69-.75 1.51-.48 2.78-.27 3.39-.78.66-1.76 2.07-1.09 3.9.51 1.38 2.53 2.01 2.53 2.01-.14 2.48.32 4 .56 4.62.04.11.2.1.22-.01.31-1.23 1.35-5.5 1.25-6.25 0 0 3.51-.7 6.85-3.16.68-.5 1.42-.93 2.2-1.24 4.2-1.67 5.08 1.18 5.08 1.18s2.91-.56 3.79 3.49c.33 1.52.56 3.94.74 5.64.01.12.18.15.22.03.29-.67.88-2.01 1.02-3.37.05-.48 1.34-1.11 1.9-3.17.78-2.78-.14-5.42-.68-6.24z" fill="#3c2c23"/><path d="m75.27 33.58c.05-.48 1.34-1.11 1.9-3.17.06-.22.11-.44.15-.67.45-2.5-.36-4.8-.86-5.56-.7-1.06-2.2-2.44-3.62-2.73-.12-.02-.24-.03-.36-.04 0 0 .1.66-.17 1.19-.35.69-1.05.85-1.05.85 3.7 3.72 3.44 6.82 4.01 10.13z" fill="url(#q)"/><path d="m61.89 18.71c-.34.16-.64.33-.9.47-.3.16-2.22 1.23-3.56.46-.83-.47-.83-1.73-.83-1.77-.38.49-1.53 3.95 1.83 4.18 1.45.1 2.35-1.17 2.88-2.24.19-.38.5-.95.58-1.1z" fill="url(#r)"/><path d="m68.75 18.11c2.26.61 3.37 1.76 3.74 3.3.11.45.24 4.66-7.8-.12-2.99-1.78-2.17-2.9-1.82-3.02 1.36-.49 3.35-.84 5.88-.16z" fill="url(#s)"/><path d="m56.59 17.87c-.01 0-.01 0-.02.01-.29.12-2.55 1.17-1.71 3.79l2.41.39c-2.12-2.16-.67-4.2-.68-4.19.01-.01.01 0 0 0z" fill="url(#t)"/><path d="m56.36 21.91-1.49-.24c-.06 0-.26.02-.36.03-.84.12-1.82.55-2.36 1.66-.57 1.19-.56 2.22-.4 2.9.04.23.14.49.14.49s.74-.7 2.49-.74z" fill="url(#u)"/><path d="m51.81 26.81c-.73.65-1.72 2.1-.99 3.9.55 1.36 2.5 1.95 2.5 1.95 0 .01.39.12.59.12l.46-6.78c-.94 0-1.84.28-2.42.68.01.02-.14.12-.14.13z" fill="url(#v)"/><path d="m40.26 17.16c-.9-.53-5.17-1.2-8.12-1.2-1.62 0-2.83.21-2.83.76l-.01 3.43c-.01 3.45 2.24 6.27 5.96 6.28h.01c6.74 0 7.27-7.94 4.99-9.27z" fill="url(#w)"/><path d="m40.02 20.82c-.04.13-.39.26-.77.36h-.01c-.44.11-.96.33-1.93.6-1.35.38-1.46 2.19-1.46 2.19-.25-.94.39-2.59 1.28-2.97v-.01c.42-.2.89-.31 1.39-.39.08-.01.28-.02.53-.01h.01c.45.01 1.01.07.96.23z" fill="#875334"/><path d="m124 18.5c0 1.38-.73 2.5-1.64 2.5h-116.72c-.9 0-1.64-1.12-1.64-2.5s.74-2.5 1.64-2.5h116.71c.91 0 1.65 1.12 1.65 2.5z" fill="url(#x)"/><path d="m20.92 32.99c3.31 0 6-2.69 6-6v-16.85c0-3.31-2.69-6-6-6s-6 2.69-6 6v16.85c0 3.31 2.68 6 6 6z" fill="url(#z)"/><path d="m107.08 32.99c-3.31 0-6-2.69-6-6v-16.85c0-3.31 2.69-6 6-6s6 2.69 6 6v16.85c0 3.31-2.68 6-6 6z" fill="url(#A)"/><path d="m10 27.22c2.21 0 4-1.79 4-4v-9.31c0-2.21-1.79-4-4-4s-4 1.79-4 4v9.31c0 2.21 1.79 4 4 4z" fill="url(#C)"/><path d="m118 27.22c-2.21 0-4-1.79-4-4v-9.31c0-2.21 1.79-4 4-4s4 1.79 4 4v9.31c0 2.21-1.79 4-4 4z" fill="url(#D)"/><path d="m38.61 21h-9.33l-.8-5h10.13z" fill="#646464"/><path d="m41.22 15.04-.29 1.55-.06.34-.14.75-.08.44c-.17.9-.96 1.53-1.84 1.53-.11 0-.23-.01-.34-.03-.46-.08-.85-.32-1.12-.68-.33.3-.76.47-1.23.47-.28 0-1.16-.39-1.31-.54-.04-.04-.08-.08-.11-.13-.04.03-.08.07-.12.1-.02.01-.59.35-1.17.34-.54-.01-1.08-.34-1.24-.5-.16.23-.38.43-.64.57-.18.11-.38.18-.6.21-.1.02-.2.03-.3.03-.4 0-.79-.13-1.11-.37-.42-.3-.69-.74-.76-1.24l-.13-.85v-.01l-.17-1.09c-.08-.5.04-1 .34-1.41.3-.42.74-.69 1.24-.76.12-.02.24-.03.36-.02.03 0 .07 0 .1.01.32.02.64.13.92.33.04.03.07.06.1.08.06-.23.18-.45.33-.63.04-.06.08-.11.13-.16.06-.07.11-.1.13-.12.01 0 .01-.01.01-.01.3-.26.69-.42 1.12-.44.14-.01.28 0 .41.02.1.02.19.05.28.08.26.08.49.21.69.39.06-.08.13-.16.2-.23.1-.1.21-.19.32-.26.06-.04.13-.07.19-.11.25-.12.53-.18.82-.17.32 0 .63.08.91.24.05.02.09.05.13.08.1.07.19.15.28.24.16.16.29.35.38.55.12-.18.28-.35.47-.48.04-.03.09-.06.14-.08.2-.11.41-.19.63-.22.21-.03.42-.03.63.01.5.09.92.37 1.21.78.28.42.38.91.29 1.4z" fill="url(#E)"/><path d="m75.45 74.12-.7-1.96h-20.97l-.38 2-9 7.91 10.04 10.43s6.79-5.67 7.4-6.21c.67-.6 1.48-.67 1.97-.68.49.01 1.3.08 1.97.68.61.55 7.4 6.21 7.4 6.21l10.42-10.43z" fill="#7c7c7c"/><path d="m41.03 16.12c-.35.9-2.25.04-2.97-.33-.11-.88-.22-1.46-.22-1.46s0 0 0 .01c.03.5-.47.86-.94.68-.53-.21-1.14-.38-1.58-.36-.17.01-.31.04-.44.08-.12-.39-.19-.65-.19-.65s0 .04 0 .11c-.02.34-.18.66-.46.85-1.09.71-1.37 2.05-.08 3.48-.44.3-1.13.28-1.52-.12-.5-.5-.71-2.09-1-3.27.09.84.34 2.34.22 2.92-.15.7-.85 1.14-1.55.97-.61-.15-1.33-.64-1.68-1.99l.13.85c.07.5.34.94.76 1.24.32.24.71.37 1.11.37.1 0 .2-.01.3-.03.19-.03.36-.09.52-.17.01-.01.03-.01.04-.02s.03-.01.04-.02c.42-.23.63-.55.64-.57.05.08.57.51 1.2.51.87 0 1.21-.35 1.21-.35.08.05.16.09.24.12.06.02 2.4.81 2.31 1.7-.01.11 0 .22.01.33v.04.01c.03.26.09.51.18.74l.01-.01c.24-.19.82-.03.87-.37.19-1.29.14-2.83.02-4.15l2.52.42z" fill="#875334"/><path d="m41.51 19.38c-.49-2.69-3.74-3.81-4.96-4.24-.15-.05-2.38-.58-2.65 1.4-.12.86.53 1.8 1.36 2.12 2.27.87 2.26 1.35 2.26 1.67-.01.83.45 2.4 1.17 2.87.15.1.32.16.48.16.1 0 .2-.02.3-.06 1.41-.59 2.32-2.35 2.04-3.92z" fill="url(#G)"/><path d="m87.86 17.16c.9-.53 5.17-1.2 8.12-1.2 1.62 0 2.83.21 2.83.76l.01 3.43c.01 3.45-2.24 6.27-5.96 6.28h-.01c-6.74 0-7.28-7.94-4.99-9.27z" fill="url(#H)"/><path d="m88.1 20.82c.04.13.39.26.77.36h.01c.44.11.96.33 1.93.6 1.35.38 1.46 2.19 1.46 2.19.25-.94-.39-2.59-1.28-2.97v-.01c-.42-.2-.89-.31-1.39-.39-.08-.01-.28-.02-.53-.01h-.01c-.45.01-1.01.07-.96.23z" fill="#875334"/><path d="m89.51 16h10.13l-.8 5h-9.33z" fill="#646464"/><path d="m86.9 15.04.29 1.55.06.34.14.75.08.44c.17.9.96 1.53 1.84 1.53.11 0 .23-.01.34-.03.46-.08.85-.32 1.12-.68.33.3.76.47 1.23.47.28 0 1.16-.39 1.31-.54.04-.04.08-.08.11-.13.04.03.08.07.12.1.02.01.59.35 1.17.34.54-.01 1.07-.34 1.24-.5.16.23.38.43.64.57.18.11.38.18.6.21.1.02.2.03.3.03.4 0 .79-.13 1.11-.37.42-.3.69-.74.76-1.24l.13-.85v-.01l.17-1.09c.08-.5-.04-1-.34-1.41-.3-.42-.74-.69-1.24-.76-.12-.02-.24-.03-.36-.02-.03 0-.07 0-.1.01-.32.02-.64.13-.92.33-.04.03-.07.06-.1.08-.06-.23-.18-.45-.33-.63-.04-.06-.08-.11-.13-.16-.06-.07-.11-.1-.13-.12-.01 0-.01-.01-.01-.01-.3-.26-.69-.42-1.12-.44-.14-.01-.28 0-.41.02-.1.02-.19.05-.28.08-.26.08-.49.21-.69.39-.06-.08-.13-.16-.2-.23-.1-.1-.21-.19-.32-.26-.06-.04-.13-.07-.19-.11-.25-.12-.53-.18-.82-.17-.32 0-.63.08-.91.24-.05.02-.09.05-.13.08-.1.07-.19.15-.28.24-.16.16-.29.35-.38.55-.12-.18-.28-.35-.47-.48-.04-.03-.09-.06-.14-.08-.2-.11-.41-.19-.63-.22-.21-.03-.42-.03-.63.01-.5.09-.92.37-1.21.78-.28.42-.38.91-.29 1.4z" fill="url(#I)"/><path d="m87.09 16.12c.35.9 2.25.04 2.97-.33.11-.88.22-1.46.22-1.46s0 0 0 .01c-.03.5.47.86.94.68.53-.21 1.14-.38 1.58-.36.17.01.31.04.44.08.12-.39.19-.65.19-.65s0 .04 0 .11c.02.34.18.66.46.85 1.09.71 1.37 2.05.08 3.48.44.3 1.13.28 1.52-.12.5-.5.71-2.09 1-3.27-.09.84-.34 2.34-.22 2.92.14.7.85 1.14 1.55.97.61-.15 1.33-.64 1.68-1.99l-.13.85c-.07.5-.34.94-.76 1.24-.32.24-.71.37-1.11.37-.1 0-.2-.01-.3-.03-.19-.03-.36-.09-.52-.17-.01-.01-.03-.01-.04-.02s-.03-.01-.04-.02c-.42-.23-.63-.55-.64-.57-.05.08-.57.51-1.2.51-.87 0-1.21-.35-1.21-.35-.08.05-.16.09-.24.12-.07.02-2.39.81-2.31 1.7.01.11 0 .22-.01.33v.04.01c-.03.26-.09.51-.18.74l-.01-.01c-.24-.19-.82-.03-.87-.37-.19-1.29-.14-2.83-.02-4.15l-2.52.42z" fill="#875334"/><path d="m86.61 19.38c.49-2.69 3.74-3.81 4.96-4.24.15-.05 2.38-.58 2.65 1.4.12.86-.53 1.8-1.36 2.12-2.27.87-2.26 1.35-2.26 1.67.01.83-.45 2.4-1.17 2.87-.15.1-.32.16-.48.16-.1 0-.2-.02-.3-.06-1.41-.59-2.32-2.35-2.04-3.92z" fill="url(#J)"/></svg>