<svg enable-background="new 0 0 128 128" viewBox="0 0 128 128" xmlns="http://www.w3.org/2000/svg" xmlns:xlink="http://www.w3.org/1999/xlink"><radialGradient id="a" cx="31.2" cy="113" gradientTransform="matrix(1 0 0 -1 0 128)" gradientUnits="userSpaceOnUse" r="17.7"><stop offset=".209" stop-color="#ffa726"/><stop offset=".792" stop-color="#b33f00"/></radialGradient><linearGradient id="b" gradientTransform="matrix(1 0 0 -1 0 128)" gradientUnits="userSpaceOnUse" x1="60.5" x2="71.3" y1="44.7" y2="73.5"><stop offset="0" stop-color="#ffb300"/><stop offset=".5" stop-color="#ffca28"/></linearGradient><radialGradient id="c" cx="72.3" cy="87.7" gradientTransform="matrix(1 0 0 -1 0 128)" gradientUnits="userSpaceOnUse" r="19.8"><stop offset="0" stop-color="#00bfa5"/><stop offset="1" stop-color="#00ab94"/></radialGradient><linearGradient id="d" gradientTransform="matrix(.722 .513 .579 -.815 1084 -1632)" gradientUnits="userSpaceOnUse" x1="223" x2="222" y1="-1980" y2="-1991"><stop offset=".5" stop-color="#ffca28"/><stop offset="1" stop-color="#ffb300"/></linearGradient><path d="m109 91.3c-.09.12-10.2 11.8-10.2 11.8l-7.23-5.65 5.12-7.68.41-.62s-.36-.15-.97-.4c-2.33-.94-8.28-3.3-11-3.93-3.5-.82-4.35 1.14-5.61 4.24-2.73 6.69-6.25 16.3-6.25 16.3-12.5-1.42-25.4-3.77-38-4.32 4.24-6.87 9.39-22.2 10.1-24.2 1.36-3.59-1.52-4.22-6.26-5.56-3.47-.98-7.74-2.08-11.8-3.74-5.25-2.17-5.24-7.69-4.25-10.5 2.09-5.95 8.86-15.2 9.2-16.1 1.13-2.9-2.37-2.9-4.25-7.06-.81-1.81-.02-3.47 1-5.17 1.25-2.08 3.77-3.01 6.17-3.38 2.42-.36 4.97-.29 7.19.72.47.22 1.1.42 1.5.77.36.33.41.71.87.91.58.25 1.17-.05 1.77.35.46.31.8.81.95 1.33.27.87.87 1.52.6 2.38-.83 2.67-3.04 4.72-4.6 7.62-.97 1.79-1.66 3.72-2.47 5.59-1.43 3.3-3.02 6.63-4.12 10.1-.08.24-.16.48-.23.72 0 0 .24.06.67.16 2.71.67 13.1 3.17 20 4.92 7.36 1.85 13.9 3.5 20.9 6.12 19.7 7.46 25.2 11.2 28.1 12.8 4.04 2.29 6.21 6.75 2.62 11.4z" fill="url(#b)"/><path d="m37.5 56.1-4.64 2.58c-.04.02-.09.01-.12-.03-.02-.04-.01-.09.03-.11l4.29-3.32c-.08.24-.16.48-.23.72 0 0 .24.06.67.16z" fill="#eda600"/><path d="m66.8 72.6c-2.82-.55-4.66-3.29-4.11-6.11l.92-4.69 10.2 2-.92 4.69c-.55 2.82-3.29 4.66-6.11 4.11z" fill="#e59600"/><circle cx="35.9" cy="20" fill="#ff9100" r="16"/><circle cx="35.9" cy="20" fill="url(#a)" opacity=".4" r="16"/><path d="m35.9 4.01a16 16 0 0 0 -.04 0c-1.22 2.55-1.91 5.41-1.91 8.44 0 2.74.56 5.36 1.58 7.73l.72-.31c-.98-2.27-1.52-4.78-1.52-7.42 0-3.03.72-5.89 1.99-8.42a16 16 0 0 0 -.82-.02z" fill="#6d4c41"/><path d="m36 7.07c-.34 0-.68.01-1 .03l.05.79c.31-.02.63-.03.96-.03 6.36 0 12 3.15 15.4 7.98l.01-.01a16 16 0 0 0 -.78-2.22c-3.58-4.01-8.79-6.54-14.6-6.54z" fill="#5d4037"/><path d="m36 13.8c-.53 0-1.05.02-1.57.06l.06.79c.5-.04 1-.06 1.51-.06 6.49 0 12.2 3.28 15.6 8.29l.09-.06a16 16 0 0 0 .14-.97c-3.55-4.88-9.32-8.04-15.8-8.04z" fill="#5d4037"/><path d="m35.9 19.6-.09.78c2.46.29 4.91 1.08 7.18 2.39 2.62 1.51 4.75 3.57 6.3 5.94a16 16 0 0 0 .44-.77c-1.6-2.33-3.74-4.35-6.34-5.86-2.37-1.37-4.92-2.18-7.48-2.49z" fill="#4e342e"/><path d="m46.9 25.3c-.15.29-.3.57-.46.84-3.15 5.46-8.63 8.73-14.5 9.31a16 16 0 0 0 2.36.42c5.19-1.14 9.91-4.37 12.8-9.34.18-.29.33-.59.48-.88l-.7-.36z" fill="#3e2723"/><path d="m41.3 21.5c-.22.45-.45.9-.71 1.34-3.24 5.62-8.94 8.92-15 9.35l.01.08a16 16 0 0 0 .84.63c5.97-.66 11.6-4.06 14.8-9.66.27-.46.51-.93.73-1.4l-.71-.34z" fill="#4e342e"/><path d="m35.6 19.8c-1.48 1.99-3.38 3.71-5.66 5.02-2.61 1.5-5.42 2.31-8.23 2.48a16 16 0 0 0 .42.76c2.8-.23 5.6-1.07 8.2-2.56 2.38-1.37 4.36-3.16 5.9-5.24l-.63-.47z" fill="#4e342e"/><path d="m24.5 8.85a16 16 0 0 0 -1.55 1.84c-1.61 5.07-1.17 10.8 1.69 15.7.16.29.34.57.53.85l.65-.44c-.17-.26-.34-.53-.5-.81-3.15-5.47-3.25-11.8-.83-17.2z" fill="#6d4c41"/><path d="m30.5 5.01a16 16 0 0 0 -.97.36c-2.43 5.51-2.29 12.1.95 17.7.27.47.54.91.84 1.34l.65-.45c-.28-.41-.55-.83-.8-1.28-3.24-5.61-3.25-12.2-.62-17.6l-.05-.03z" fill="#795548"/><path d="m112 92.2c-6.57 0-9.93 7.19-16 7.19-6.06 0-9.43-7.19-16-7.19s-9.93 7.19-16 7.19-9.43-7.19-16-7.19-9.94 7.19-16 7.19-9.43-7.19-16-7.19c-4.98 0-8.13 4.12-12 6.12v25.7h120v-25.7c-3.85-2-7-6.13-12-6.13z" fill="#039be5"/><path d="m112 112c-6.57 0-9.94-7.19-16-7.19s-9.43 7.19-16 7.19-9.94-7.19-16-7.19-9.43 7.19-16 7.19-9.94-7.19-16-7.19-9.43 7.19-16 7.19c-4.97 0-8.11-4.11-12-6.11v18.2h120v-18.2c-3.86 2-7.04 6.12-12 6.12z" fill="#29b6f6"/><path d="m101 85.6c.02.02.01.04-.01.06l-4.65 4.15.41-.62s-.36-.15-.97-.4l5.15-3.21c.03-.01.06-.01.07.02z" fill="#eda600"/><path d="m76.2 25.2c-8.39-1.64-17.9 5.8-20.4 18.7-2.52 12.8 4.24 20.8 12.4 22.4s17.4-3.18 19.9-16c2.53-12.9-3.48-23.4-11.9-25z" fill="#ffca28"/><g fill="#404040"><ellipse cx="63.6" cy="47.6" rx="2.51" ry="2.42" transform="matrix(.192 -.981 .981 .192 4.64 101)"/><ellipse cx="79.4" cy="50.7" rx="2.51" ry="2.42" transform="matrix(.192 -.981 .981 .192 14.4 119)"/></g><path d="m73.4 58.8c-1.71.61-6.75-.38-8.1-1.59-.78-.7-1.84-.07-1.63.8.21.86 2.59 3.22 4.97 3.69s5.44-.83 5.96-1.55c.51-.73-.22-1.71-1.2-1.35z" fill="#795548"/><path d="m72.2 53.8c-.05-.03-.1-.05-.15-.07l-3.41-.67c-.05 0-.11 0-.16.01-.33.06-.57.35-.49.72s.57 1.46 1.94 1.73 2.23-.56 2.45-.87c.21-.31.1-.66-.18-.85z" fill="#e59600"/><path d="m90.6 51.7c.42.7.64 1.35-.41 3.36-2.11 4.04-5.74 4.76-5.9 4.79-.03.01-.06.01-.09.01-.16 0-.31-.07-.4-.2-.12-.16-.13-.36-.04-.53.03-.07 3.37-6.53.81-12.2-1.66-3.68-5.41-6.26-11.2-7.66-5.42-1.32-9.66-.77-12.6 1.67-4.99 4.13-4.64 12.4-4.63 12.4 0 .18-.08.35-.23.45-.14.09-.33.11-.49.03s-3.82-1.91-3.06-8.09c.18-1.44.52-2.03.92-2.35.12-.11.25-.19.38-.26.17-.09.2-.11.2-.4v-.05c.2-7.7 3.33-14.6 8.38-18.5 4.21-3.24 9.56-4.22 15.5-2.83 5.57 1.32 9.62 4.19 12 8.54 4.41 7.95 1.72 17.5.79 20.2-.34 1-.17 1.26.04 1.6z" fill="url(#c)"/><path d="m55.4 48.4s-.34-1.73-.86-3.11c-.4-1.02-.97-1.64-1.25-1.9.12-.11.25-.19.38-.26.17-.09.2-.11.2-.4.23.12.8.52 1.43 1.71.7 1.34.1 3.96.1 3.96z" fill="#009984"/><path d="m86.2 55.5s1.46-2.03 2.63-2.92c1.19-.91 1.82-.79 1.82-.79s-.18-.37-.2-.59.02-.52.02-.52-.63.06-1.85.79c-1.95 1.2-2.42 4.03-2.42 4.03z" fill="#009984"/><g fill="#6d4c41"><path d="m84 47.1s-.76-1.95-3.31-2.45-3.99 1.01-3.99 1.01c-.11.11-.2.25-.23.41-.08.42.19.82.61.9.09.02.31-.01.33-.01 1.65-.33 2.85-.1 2.85-.1s1.19.24 2.59 1.17c.02.01.22.12.3.13.42.08.82-.19.9-.61.04-.14.01-.3-.05-.45z"/><path d="m68.1 44s-.76-1.95-3.31-2.45-3.99 1.01-3.99 1.01c-.11.11-.2.25-.23.41-.08.42.19.82.61.9.09.02.31-.01.33-.01 1.65-.33 2.85-.1 2.85-.1s1.19.24 2.59 1.17c.02.01.22.12.3.13.42.08.82-.19.9-.61.04-.14.02-.3-.05-.45z"/></g><path d="m92 106-2.1-1.49c-2.67-1.9-3.3-5.63-1.4-8.3l.26-.37c1.9-2.67 5.63-3.3 8.3-1.4l2.1 1.49c2.67 1.9 3.3 5.63 1.4 8.3l-.26.37c-1.89 2.66-5.63 3.29-8.3 1.4z" fill="url(#d)"/></svg>