<svg enable-background="new 0 0 128 128" viewBox="0 0 128 128" xmlns="http://www.w3.org/2000/svg"><path d="m106.88 22.97-2.97-2.97 13.94-13.94c.69-.69 1.27-.93 1.84-.94l3.96.2c.32.02.47.42.24.65z" fill="#848484"/><ellipse cx="18.69" cy="108.19" fill="#b9e4ea" rx="3.14" ry="17.17" transform="matrix(.7071 -.7071 .7071 .7071 -71.0311 44.9034)"/><path d="m16.58 110.3c-5.18-5.18-10.86-12.76-10.03-14.25 0 0-1.74 1.74-2.02 2.02-2.14 2.14 2.47 8.4 9.17 15.1s12.96 11.31 15.1 9.17c.24-.24 2.02-2.02 2.02-2.02-1.05 1.07-9.06-4.84-14.24-10.02z" fill="#82aec0"/><path d="m26.99 114.45s-2.32-.43-8.22-6.34c-5.9-5.9-6.34-8.22-6.34-8.22l22.62-22.62 14.56 14.56z" fill="#b9e4ea"/><path d="m62.58 88.59 43.35-43.35c.52-.52.52-1.37 0-1.89l-22.41-22.39c-.52-.52-1.37-.52-1.89 0l-43.31 43.31s-2.48.86-6.02-1.28c-2.02-1.23-3.64-2.08-5.43-.29 0 0-.76 2.99 16.65 20.4s20.8 16.7 20.8 16.7c1.02-1.02.57-2.73-.63-5.4-1.46-3.22-1.11-5.81-1.11-5.81z" fill="#b9e4ea"/><path d="m106.51 20.37c-1.56-1.56-4.08-1.56-5.63 0l-9.06 9.06 5.63 5.63 9.06-9.06c1.56-1.55 1.56-4.08 0-5.63z" fill="#00937a"/><path d="m94.06 30.74-1.4-1.4 7.3-7.3c.39-.39 1.02-.39 1.4 0 .39.39.39 1.02 0 1.4z" fill="#12d8b7"/><path d="m55.9 85.54s-2.32-.43-8.22-6.34-6.34-8.22-6.34-8.22l17.52-17.52 14.56 14.56z" fill="#82aec0"/><path d="m63.49 100.67c.33-.39.65-.78 1.02-1.13-.25.06-.52.03-.76-.06-.25-.09-.46-.23-.66-.4-1.43-1.19-2.86-2.38-4.27-3.59-2.2-1.89-4.37-3.81-6.51-5.77-2.66-2.43-5.27-4.92-7.82-7.47-2.54-2.54-5.02-5.14-7.45-7.78-1.94-2.11-3.85-4.26-5.72-6.43-.68-.79-1.36-1.59-2.03-2.39-.6-.72-1.44-1.48-1.73-2.37-.11-.35-.15-.72-.05-1.07-1.16.79-2.07 1.93-3.07 2.92-.32.32-.36.82-.08 1.19 1.46 1.94 6.5 8.3 17.32 19.12 10.8 10.8 17.02 15.7 18.92 17.13.36.27.86.23 1.18-.08.36-.36.72-.72 1.08-1.08.22-.26.43-.5.63-.74z" fill="#82aec0"/><path d="m83.52 25.81c1.84 1.84-.69 4.01-.69 4.01s-33.94 33.68-37.61 37.32c-1.14 1.14-2.36 2.69-4.02 2.92-2.5.25-4.94-1.29-6.39-3.25-.19-.26-.21-.64.18-.57 3.66.78 4.85-.16 7.23-2.79 1.93-1.91 34.73-34.5 37.37-37.12 1.03-1.02 2.44-2.02 3.93-.52z" fill="#fff"/><path d="m81.45 66.77-21.28-21.14-5.53 5.51 21.21 21.23z" fill="#455a64"/><path d="m59.83 52.65 1.85-1.87c1.02-1.02 2.67-1.02 3.69 0l12.62 12.54c1.03 1.03 1.01 2.71-.02 3.74l-1.85 1.85c-1.03 1.03-2.7 1.03-3.72 0l-12.58-12.57c-1.01-1.02-1.01-2.67.01-3.69z" fill="#212121"/></svg>