<svg enable-background="new 0 0 128 128" viewBox="0 0 128 128" xmlns="http://www.w3.org/2000/svg"><path d="m71.38 14.81c-16.74 11.23-23.25 33.4-27.17 36.4-9.22 7.04-26 7.88-36.4 26.16-9.27 16.3-2.18 30.53 5.03 37.07s21.64 1.51 21.64 1.51 23.65-13.75 23.65-15.09 16.27-25.34 23.82-33.05 37.07-22.14 37.07-22.14 5.3-22.8 4.03-26.33c-1.52-4.2-24.67-22.65-51.67-4.53z" fill="#f3ae38"/><path d="m71.26 68c-11.45 15.16-12.32 27.72-26.36 37.58s-32.05 8.85-32.05 8.85 9.69 10.48 28.11 6.18c20.58-4.81 26.83-18.36 33.88-31.91 3.08-5.91 3.7-8.5 5.17-9.98 1.48-1.48 19.34-8.62 26.98-13.8s14.95-14.83 16.63-25.75c1.97-12.81-.59-19.84-.59-19.84s-.73 16.78-11.11 26.61c-11.7 11.1-33.56 12.68-40.66 22.06z" fill="#d97a08"/><path d="m13.87 77.4c-1.95 3.13-2.15 5.57-.44 6.58 1.93 1.15 4.37-1.14 5.57-3.23s2.02-5 .44-6.01c-1.77-1.14-3.79-.19-5.57 2.66z" fill="#f7c875"/><path d="m25.33 69.55c1.47 2.47 4.56 1.27 7.28-.57s4.43-4.11 3.35-5.89c-1.08-1.77-4.49-.7-6.71.82-2.21 1.53-5.31 3.3-3.92 5.64z" fill="#f7c875"/><path d="m53.3 51.26c2.12 1.34 4.25-.95 6.02-3.93 1.77-2.97 2.89-6.21.81-7.4-1.95-1.12-3.99.33-6.1 4.22-2.4 4.43-2.43 6.03-.73 7.11z" fill="#f7c875"/><g fill="#d97a08"><path d="m15.7 106.14c.66 2.02 3.27 1.73 5.04 1.18 2.9-.9 4.01-2.68 3.64-4.17s-2.87-2.02-5.32-.98c-1.57.67-4.01 1.97-3.36 3.97z"/><path d="m29.18 101.76c1.33 1.75 3.61 1.38 7.1-1.3 2.71-2.08 3.78-4.89 2.58-6.34s-2.54-.29-5.46 1.88c-2.71 2.01-5.32 4.32-4.22 5.76z"/><path d="m31.96 89.73c1.14 1.77 3.82 1.08 6.56-1.12 2.55-2.05 3.57-4.14 2.01-5.82-1.49-1.61-4.07.69-5.44 1.77-1.67 1.32-4.49 3.06-3.13 5.17z"/><path d="m45.01 87.15c-2.44 2.31-3.98 4.42-2.09 6.04s4.7-1.07 5.86-2.17c1.16-1.11 3.7-3.83 2.01-5.69-1.68-1.85-4.62.72-5.78 1.82z"/><path d="m52.41 68.89c-1.61 1.98-4 4.43-2.86 6.01 1.19 1.64 4.13 1.06 6.69-2.22 1.61-2.07 2.17-4.98.78-6.18-1.38-1.2-3.19.65-4.61 2.39z"/><path d="m69.7 56.26c.99 2.28 4.51 1.1 7.11-.42 2.6-1.53 4.71-3.54 3.8-5.32-.83-1.63-3.74-1.53-6.79.29-3.06 1.81-4.97 3.5-4.12 5.45z"/><path d="m90.83 47.92c1.07 1.85 3.59 1.22 6.43-.9 2.79-2.08 4.05-4.06 2.79-5.85-1.27-1.79-3.52-.19-6.1 1.66-2.51 1.78-4.16 3.31-3.12 5.09z"/><path d="m103.52 41.2c1.44 1.36 3.67.11 5.88-2.23 2.32-2.45 2.89-4.4 1.78-5.6-1.1-1.2-3.1-.4-5.7 2.33-2.41 2.53-3.2 4.33-1.96 5.5z"/><path d="m103.99 25.02c-2.03 2.61-4.24 4.66-2.33 6.34 1.43 1.26 4.25-.32 6.2-2.91 1.75-2.33 2.26-5.74.62-6.46-1.64-.71-2.61.62-4.49 3.03z"/><path d="m113.94 24.63c-.78 2.76-2.41 4.45-.8 5.91 1.9 1.74 4.54-.53 5.48-4.64.86-3.79.13-5.58-1.74-5.51-1.87.06-2.3 2-2.94 4.24z"/></g></svg>