<svg enable-background="new 0 0 128 128" viewBox="0 0 128 128" xmlns="http://www.w3.org/2000/svg"><path d="m81.59 27.47c-9.01-1.39-14.63 2.8-16.29 3.71-.56.31-.96.49-1.3.58-.34-.09-.74-.27-1.3-.58-1.65-.92-7.28-5.1-16.29-3.71-16.06 2.48-34.42 28.67-41.53 39.73-1.66 2.58-.92 6.02 1.66 7.69 3.18 2.06 7.6 5.23 12.12 9.41 9.48 8.64 20.31 18.57 45.34 18.61 25.04-.04 35.86-9.97 45.34-18.61 4.52-4.18 8.94-7.35 12.12-9.41 2.57-1.67 3.31-5.11 1.66-7.69-7.11-11.06-25.47-37.25-41.53-39.73z" fill="#ef4d8f"/><path d="m63.9 76.79c-32.66 0-48.11-6.78-48.11-6.78s21.18-24.56 48.11-24.56 48.21 24.45 48.21 24.45-15.55 6.89-48.21 6.89z" fill="#bdbdbd"/><path d="m63.9 63.95c-24.88 0-30.49-8.68-30.49-8.68 7.83-3.9 20.24-6.53 30.64-6.53 10.69 0 22.82 2.69 30.73 6.71 0 .01-6 8.5-30.88 8.5z" fill="#fff"/><path d="m112.11 70.01s-15.55 6.89-48.21 6.89-48.11-6.78-48.11-6.78 6.47-8.45 16.8-15.97c8.35-6.16 19.3-11.69 31.31-11.69 12.31 0 23.37 5.74 31.83 12 10.01 7.3 16.38 15.55 16.38 15.55z" fill="none"/><path d="m94.78 55.46c-5.52 1.56-16.05 4.22-30.78 4.22-14.86 0-25.28-2.78-30.59-4.4-10.8 6.84-17.62 14.73-17.62 14.73s15.44 8.64 48.11 8.64c32.66 0 48.21-8.75 48.21-8.75s-6.7-7.69-17.33-14.44z" fill="#3e2723"/><path d="m46.77 86c-2.71-1.98-1.08-5.43 2.16-4.83 9.92 1.84 20.93 1.92 30.2.49 3.27-.5 4.8 3.05 2 4.9 0 0-6.91 3.99-17.05 3.99-11.11 0-17.31-4.55-17.31-4.55z" fill="#ff80ab"/></svg>