<svg enable-background="new 0 0 128 128" viewBox="0 0 128 128" xmlns="http://www.w3.org/2000/svg" xmlns:xlink="http://www.w3.org/1999/xlink"><radialGradient id="a" cx="12.9192" cy="55.8138" gradientUnits="userSpaceOnUse" r="17.4902"><stop offset=".6623" stop-color="#ffa8a6"/><stop offset=".9142" stop-color="#ffa8a6" stop-opacity="0"/></radialGradient><path d="m47.81 3.52c-.07 1.44-1.35 120.61-1.2 121.22s8.91.44 8.91.09c0-.77 1.55-120.44 1.52-121.22-.03-.48-9.21-.63-9.23-.09z" fill="#ffd51d"/><g fill="#fda726"><path d="m47.79 4.43s3.04 4.12 4.94 6.59c1.7 2.21 4.17 5.01 4.17 5.01l-.08 6s-3.84-4.3-5.78-6.61c-2.1-2.49-3.32-4.47-3.32-4.47z"/><path d="m47.52 26.71s1.94 3.41 4.46 6.64c2.05 2.63 4.61 5 4.61 5l-.13 11.86-9.23-1.73z"/><path d="m46.92 84.88-.03 4.17s1.84 3.07 4.18 5.73c1.95 2.21 4.76 5.2 4.76 5.2l.19-15.1-3.78-1.85z"/><path d="m46.73 105.38s2.95 3.85 5 6.15c1.63 1.83 3.91 4.23 3.91 4.23l-.08 5.73s-3.83-3.87-5.56-5.73-3.33-3.72-3.33-3.72z"/></g><path d="m8.85 99.37s-1.5-2.24-.58-5.11c.97-3.04 3.17-4.16 4.2-6.59 1.42-3.36 1.09-6.08 3.75-8.6 2.39-2.26 5.69-1.42 8.6-2.26s4.14-2.59 4.14-2.59l6.79 2.07s-.9 7.56-3.62 7.43-12.09 1.62-12.28 2c-.19.39-8.53 13.51-8.53 13.51z" fill="#8a867e"/><path d="m72 82.95c.13.58 2.33 3.75 5.82 6.59s8.66 4.91 10.41 6.21c1.75 1.29 3.04 1.87 5.17 4.72s2.84 4.59 4.4 6.79c1.55 2.2 3.17 3.75 4.59 4.85 1.47 1.13 4.46 2.91 4.98 2.84.52-.06 2.78-4.78 2.78-4.78s-6.83-7.78-8.36-10.42c-1.53-2.63-4.59-6.8-7.99-8.75-1.7-.98-12.81-14.83-12.81-14.83z" fill="#8a867e"/><path d="m93.39 53.5s1.11-1.3 1.83-1.8c.91-.64 1.65-1.01 3.09-1.04 1.3-.02 5.3 3.46 5.3 3.46s9.46 17.53 9.49 17.5 6.15 6.98 6.04 6.84c-.11-.15 3.76 1.84 3.76 1.84s-.66 4.36-8.38 4.13c-7.55-.22-12.32-4.51-15-10.21-1.29-2.74-1.49-7.71-1.49-7.71z" fill="#7a57bd"/><path d="m96.47 50.97s.54 2.41 2.5 4.15c1.96 1.73 3.68 3.25 5.04 5.43s4.43 10.13 8.37 14.77 5.43 4.94 6.96 5.5c1.29.47 2.54.42 3 .24.71-.26 1.38-1.64-1.86-4.63s-5.27-6.53-7.05-10.09-2.67-11.51-7.56-14.81c-4.89-3.29-9.4-.56-9.4-.56z" fill="#a47fcc"/><path d="m96.34 55.43s3.1 4.03 2.97 9.55-2.82 9.43-2.82 12.7.71 5.52 3.91 6.48c3.21.96 4.94 1.54 5.52 2.89s.45 4.75 1.92 7.57 2.59 3.47 3.27 4.94c.77 1.64.9 4.36.9 4.36s-1.6 7.76-3.46 4.49-8.28-16.55-10.07-18.09c-1.8-1.54-11.42-12.13-11.42-12.7s9.28-22.19 9.28-22.19z" fill="#aca399"/><path d="m14.21 100.7 3.64.51.17-2.63s1.19-2.46 2.37-4.07c1.19-1.61 2.29-3.39 4.57-3.73 2.29-.34 16.77 0 17.96-.68s3.64-3.73 3.64-3.73 8.75.76 17.79-1.1c6.44-1.33 10.67-1.78 10.67-1.78l6.35-.59s6.69-2.96 6.52-3.56c-.17-.59-5.17-9.66-5.68-9.4-.51.25-38.71 3.81-39.3 4.49s-7.54 7.79-7.54 7.79-15.25 3.98-15.5 4.07c-.25.08-6.61 13.3-6.61 13.3z" fill="#aca399"/><path d="m24.21 65.9s-.04-3.11.45-6.99c.47-3.76 1.34-7.93 1.43-11.15.1-3.59-.31-5.72-.69-5.84-.37-.12-2.18 4.16-2.18 4.16s.11 1.94-.72 3.85c-.98 2.25-2.54 1.45-2.54 1.45l-1.85-6.28 3.61-9.97 1.93-13.58 6.42 4.55 4.3 17.14-1.5 16.26-4.31 8.1z" fill="#aca399"/><path d="m81.8 48.43-4.21 10.12 4.71 21.61-4.03 3.14s2.96 5.68 7.57 7.92c4.62 2.24 8.73 1.88 10.1 1.8 1.37-.07 2.29.52 3.1 1.66 3.84 5.35 3.61 10.2 4.68 12.19 1.87 3.46 4.19 3.75 4.19 3.75s4.18-1.52 4.04-1.8c-.14-.29-1.95-3.54-1.95-3.54s-.72-3.17-2.38-6.06-2.6-4.33-3.03-7.36-.58-4.47-3.82-5.19c-3.25-.72-7.43-2.74-7.14-6.85s5.45-12.85 4.69-19.19c-.65-5.41-5.34-10.53-12.7-11.69-2.03-.32-3.82-.51-3.82-.51z" fill="#f1edec"/><path d="m112.1 102.33c-.45.08-1.59 2.81-2.45 4.26-.68 1.14-2.45 3.75-2.31 4.11s5.78 5.81 6.13 6.06c.51.36 1.52 0 1.95-1.59s2.53-10.68 2.53-10.68-4.98-2.31-5.85-2.16z" fill="#5e6367"/><path d="m86.49 52.54c-.37 1.1.65 1.88 2.45 3.61s2.89 3.82 3.1 6.28c.22 2.45.63 4.27 1.95 4.33 1.59.07 3.35-3.61.65-9.09-2.88-5.85-7.93-5.78-8.15-5.13z" fill="#fff"/><path d="m82.37 49.9-.14 29.8s-2.49.97-5.61 0-4.16-2.91-4.16-2.91-2.22 3.74-8.25 3.67-7.55-2.91-7.55-2.91-1.05 2.34-5.47 2.91c-2.5.32-4.63.32-5.05-.65s-7.41-22.65-7.41-22.65l23.68-6.15z" fill="#b0e4fe"/><path d="m49.32 57.87-.21 18.98s2.07.02 3.95-1.25c1.96-1.33 2.84-2.66 3.19-2.63.48.04 2.98 3.89 7.76 4.02 5.34.14 7.69-4.43 8.11-4.43.55 0 1.72 1.98 2.91 2.63 2.15 1.18 3.74.62 3.74.62l.07-21.55z" fill="#34b6e2"/><path d="m8.16 27.76s-.95-5.93 1.26-9.41 5.61-4.43 5.61-4.43l6.25-1.58s2.42-1.01 7.04-.87c4.56.14 8.47 2.48 10.59 3.72 2.45 1.42 4.74 4.51 3.95 5.85s-2.92.4-2.92.4 5.77 4.03 8.54 11.3c2.3 6.05 2.61 12.17 2.61 12.17l7.43 11.62 22.45-11.07s1.51-.09 2.45.63c1.34 1.03 1.59 2.67 1.59 2.67s-1.45.4-3.02 2.63c-4.35 6.17-6.88 21.03-18.89 20-10.44-.89-12.25-11.38-12.97-14.07-.71-2.69-10.06-11.26-10.06-11.26l-8.91-20.36-9.41-8.62-10.2 10.04z" fill="#7a57bd"/><path d="m29.2 79.38s-2.02 1.15-4.62 1.52c-2.6.36-5.34-.07-7.43 2.16s-1.23 5.41-2.89 7.86-3.03 3.97-4.4 5.48-1.66 3.25-1.59 4.69 1.3 3.97 1.3 3.97l6.93-.51-.07-4.47s-.93-1.61.36-3.82c.83-1.42 3.1-5.19 3.82-6.13s1.2-2.04 2.89-2.31c1.83-.3 16.45-.43 17.82-1.08s4.33-3.82 4.55-6.2.36-21.72.36-21.72l1.35-10.65s-.79-2.16-1.6-4.33c-2.74-7.36-6.1-15.06-12.46-22.38-6.25-7.19-12.54-6.43-12.54-6.43s-9.74-8.87-10.25-9.6-1.22-1.44-1.37-.87.29 6.78.29 6.78l3.61 6.2s-.72 2.96-1.95 5.92-3.15 4.29-3.15 4.29l-.73 13.12s-1.53 2.39-1.58 5.5c-.05 3.06 12.15-.32 12.2-.58s4.17-11.48 4.12-12.05 3.07-9.55 3.07-9.55 5.54 7.96 4.66 17.21c-.3 3.2-.83 6.59-1.28 9.32-1.47 8.98-2.55 15.03-2.55 15.03l3.13 11.23z" fill="#f1edec"/><path d="m20.87 103.19c0 .43-1.31 2.67-4.05 6.35s-3.72 4.88-4.75 3.42-1.41-3.94-1.8-5.25c-.35-1.18-.94-3.08-.94-3.08l8.69-5.97c.01 0 2.85 3.59 2.85 4.53z" fill="#5e6367"/><path d="m14.35 34.05c-.45.2-.85 2.19.71 4.15s3.35 2.9 3.35 2.9l1.38-3.03s-1.91-1.2-2.99-2.19c-1.11-1.03-2.05-2.01-2.45-1.83z" fill="#fff"/><path d="m9.36 4.56c-.28.13-1.95 2.29-.8 6.66.68 2.59 5.54 7.39 5.54 7.39l2.9 2.03s-.43-3.02-2.16-5.05-3.76-4.31-4.31-6.22-.24-5.24-1.17-4.81z" fill="#aca399"/><path d="m7.4 40.86s-1.69 2.99-1.62 5.9c.06 2.66.91 4.09 2.55 5.54 1.63 1.44 4.45 2.49 6.21 1.78.24-.1.34-1.78.91-3.03.44-.95 1.97-2.48 1.97-2.48s.74 1.6.86 2.4.2 2.39.49 2.46c1.11.28 2.64-.83 3.61-3.23 1.04-2.57.83-4.07.83-4.07l1.66-3.8s-.86-6.65-6.53-8.19-10.63 1.3-10.63 1.3z" fill="url(#a)"/><path d="m9.78 43.14c-1.58-.18-2.21 1.59-2.21 3.56s1.06 2.79 2.07 2.79 1.93-1.3 1.93-3.13c-.01-1.82-.54-3.07-1.79-3.22z" fill="#845b51"/><path d="m10.86 29.95c.18.45.72 1.17 1.49 1.44s1.67.14 1.67.14.23 1.94 1.62 1.99c1.46.05 1.58-2.53 1.35-3.79s-.99-2.12-.99-2.12-2.3-.32-3.75.68c-1.06.72-1.39 1.66-1.39 1.66z" fill="#464d50"/><path d="m18.12 12.43s2.42 1.94 2.72 5.29c.33 3.75.32 4.6.32 4.6l-8.81-5.54s-.42.97-.44 2.05c-.02 1.17.15 2.38.15 2.38l9.15 5.62s-.35 5.01-1.83 10.25c-1.31 4.62-3.11 8.06-3.41 8.7s-1.35 3.38 1.14 4c2.18.54 2.62-2.57 3.26-3.96s2.19-5.3 3.11-8.75c2.52-9.44 2.03-15.08 1.48-18.98-.58-4.17-1.86-4.97-3.39-5.62-1.1-.45-2.72-.75-3.45-.04z" fill="#34b6e2"/><path d="m24.12 63.99s-.23 2.8.38 6.98c.49 3.31 3.05 8.74 4.74 8.33.41-.1-.65-5.27.98-7.33 1.11-1.41 3.13-1.66 8.32-4.6 4.34-2.46 8.19-7.27 8.19-7.27l-.81-7.1-5.47 1.34s-4 3.87-8.69 6.4c-4.17 2.26-7.64 3.25-7.64 3.25z" fill="#d853c9"/><path d="m43.64 52.69c-.03.01-1.95-.77-3.19 1.31-1.53 2.57-1.54 7.22-1.69 7.57s-1.08 1.46-.15 1.65c.92.19 4.5-.12 6.8-1.77 2.31-1.65 2.73-3.92 2.73-3.92z" fill="#34b6e2"/><path d="m82.06 45.58s-1.39-.07-4.47 3.85c-4.18 5.31-6.32 16.23-13.78 16.23s-8.65-6.5-10.62-11.52-5.61-7.76-5.61-7.76-1.91-1.19-.89-2.74c.78-1.19 3.32-.12 4.75.54s4.01 2.33 5.63 2.97c4.47 1.77 8.6.67 10.93.14 2.33-.54 4.49-1.54 8-1.91 3.92-.43 6.06.2 6.06.2z" fill="#a47fcc"/><path d="m45.36 47.99c-1.95 1.35-4.05 4.44-1.61 8.39 2.23 3.6 6.97 2.45 8.33 1.09 1.71-1.71 2.39-5.02.61-7.88s-5.51-2.87-7.33-1.6z" fill="#ffa6a3"/><path d="m47.56 50.58c-1.03.26-2.01 1.73-1.49 3.31.45 1.39 2.08 1.96 3.12 1.46 1.1-.53 1.8-2.01 1.18-3.33-.51-1.11-1.62-1.74-2.81-1.44z" fill="#f182a7"/></svg>