<svg enable-background="new 0 0 128 128" viewBox="0 0 128 128" xmlns="http://www.w3.org/2000/svg" xmlns:xlink="http://www.w3.org/1999/xlink"><radialGradient id="a" cx="88.1946" cy="51.5014" gradientTransform="matrix(0 -1 1.8259 0 -5.8393 139.696)" gradientUnits="userSpaceOnUse" r="56.3819"><stop offset=".1579" stop-color="#febc45"/><stop offset=".2011" stop-color="#f8ae44"/><stop offset=".328" stop-color="#e98b40"/><stop offset=".4321" stop-color="#e0763e"/><stop offset=".4996" stop-color="#dd6e3d"/><stop offset=".76" stop-color="#c05e5d"/><stop offset=".9897" stop-color="#a95e75"/></radialGradient><radialGradient id="b" cx="25.5287" cy="113.0933" gradientUnits="userSpaceOnUse" r="140.5797"><stop offset=".8171" stop-color="#dd6e3d" stop-opacity="0"/><stop offset=".9361" stop-color="#b86365" stop-opacity=".6509"/><stop offset="1" stop-color="#a95e75"/></radialGradient><radialGradient id="c" cx="87.8704" cy="113.7097" gradientUnits="userSpaceOnUse" r="112.1932"><stop offset=".4108" stop-color="#fd960c"/><stop offset=".6099" stop-color="#f2811b" stop-opacity=".662"/><stop offset=".8331" stop-color="#ea7028" stop-opacity=".2833"/><stop offset="1" stop-color="#e76a2c" stop-opacity="0"/></radialGradient><radialGradient id="d" cx="56.9885" cy="23.2792" gradientUnits="userSpaceOnUse" r="100.3943"><stop offset=".5105" stop-color="#911f4e"/><stop offset=".9338" stop-color="#6d0c36"/></radialGradient><radialGradient id="e" cx="91.8179" cy="49.5288" gradientTransform="matrix(.0364 -1.3108 1.1462 .0376 31.6056 168.0452)" gradientUnits="userSpaceOnUse" r="22.8543"><stop offset=".1983" stop-color="#fff6b2"/><stop offset=".7669" stop-color="#fff6b2" stop-opacity="0"/></radialGradient><path d="m116.62 124.26h-105.3c-4.15 0-7.52-3.37-7.52-7.52v-105.3c0-4.15 3.37-7.52 7.52-7.52h105.3c4.15 0 7.52 3.37 7.52 7.52v105.3c.01 4.15-3.36 7.52-7.52 7.52z" fill="url(#a)"/><path d="m116.62 124.26h-105.3c-4.15 0-7.52-3.37-7.52-7.52v-105.3c0-4.15 3.37-7.52 7.52-7.52h105.3c4.15 0 7.52 3.37 7.52 7.52v105.3c.01 4.15-3.36 7.52-7.52 7.52z" fill="url(#b)"/><path d="m116.62 124.26h-105.3c-4.15 0-7.52-3.37-7.52-7.52v-105.3c0-4.15 3.37-7.52 7.52-7.52h105.3c4.15 0 7.52 3.37 7.52 7.52v105.3c.01 4.15-3.36 7.52-7.52 7.52z" fill="url(#c)"/><circle cx="91.87" cy="49.17" fill="#fef7b2" r="13.26"/><path d="m121.3 62.39h-19v21.86h-42.11v-65.41h-31.54v65.41h-4.48v-35.12h-11.83v42.65h9.5v25.44h97.13v-11.11h2.33z" fill="#d17757"/><path d="m32.41 25.13h2.37v7.59h-2.37z" fill="#3f737b"/><path d="m37.46 25.13h2.47v7.59h-2.47z" fill="#3f737b"/><path d="m45.27 25.13h-2.42v7.59l2.36-.02z" fill="#3f737b"/><g fill="#ffe066"><path d="m50.44 25.13-2.6.01.07 7.58h2.51z"/><path d="m32.41 25.13h2.37v7.59h-2.37z"/><path d="m37.46 25.13h2.47v7.59h-2.47z"/><path d="m45.31 25.13h-2.46v7.59l2.43-.02z"/><path d="m50.44 37.13-2.6.01.07 7.58h2.51z"/><path d="m32.41 37.13h2.37v7.59h-2.37z"/><path d="m37.46 37.13h2.47v7.59h-2.47z"/><path d="m45.31 37.13h-2.46v7.59l2.43-.02z"/><path d="m32.41 49.13h2.37v7.59h-2.37z"/><path d="m37.46 49.13h2.47v7.59h-2.47z"/><path d="m45.31 49.13h-2.46v7.59l2.43-.02z"/><path d="m53.36 25.13-.01 7.59h2.56v-7.59z"/></g><path d="m105.55 81.2h2.88v3.94h-2.88z" fill="#ffb65a"/><path d="m111.3 81.2h2.88v3.94h-2.88z" fill="#ffb65a"/><path d="m105.55 73.83h2.88v3.94h-2.88z" fill="#ffc55c"/><path d="m111.3 73.83h2.88v3.94h-2.88z" fill="#ffc55c"/><path d="m105.55 66.83h2.88v3.94h-2.88z" fill="#ffd360"/><path d="m111.3 66.83h2.88v3.94h-2.88z" fill="#ffd360"/><path d="m115 49.4c-.36.73 0 42.7 0 42.7h-15.87v-24h-5.11v-7.67h-4.53v-6.51h-8.16v6.84h-5.19v7.17h-5.36v34.95h-5.04v-39h2.35v-7.44h-2.35v-15.41h-2.65l-3.61-11.16h-7.11l-3.57 11.16h-2.79v15.41h-2.48v7.44h2.48v39h-7.18v-35.05h-21.64v-39.36s-13.35-.09-13.39-.05v88.32c0 4.15 3.37 7.52 7.52 7.52h105.3c4.15 0 7.52-3.37 7.52-7.52v-67.34z" fill="url(#d)"/><path d="m5.71 116.21h29.97v2.35h-29.97z" fill="#fc7143"/><path d="m5.71 107.86h29.97v2.35h-29.97z" fill="#fc7444"/><path d="m5.71 99.21h29.97v2.35h-29.97z" fill="#fc7c47"/><path d="m5.71 90.86h29.97v2.35h-29.97z" fill="#fd894a"/><path d="m5.71 81.21h29.97v2.35h-29.97z" fill="#fda152"/><path d="m5.71 72.86h29.97v2.35h-29.97z" fill="#fcb95a"/><path d="m5.71 63.32h1.76v3.7h-1.76z" fill="#fedc61"/><path d="m11.71 63.32h1.76v3.7h-1.76z" fill="#fedc61"/><path d="m5.71 55.89h1.76v3.7h-1.76z" fill="#fedc61"/><path d="m11.71 55.89h1.76v3.7h-1.76z" fill="#fedc61"/><path d="m5.71 48.46h1.76v3.7h-1.76z" fill="#fedc61"/><path d="m11.71 48.46h1.76v3.7h-1.76z" fill="#fedc61"/><path d="m5.71 41.03h1.76v3.7h-1.76z" fill="#fedc61"/><path d="m11.71 41.03h1.76v3.7h-1.76z" fill="#fedc61"/><path d="m5.71 33.59h1.76v3.7h-1.76z" fill="#fedc61"/><path d="m11.71 33.59h1.76v3.7h-1.76z" fill="#fedc61"/><path d="m49.8 64.51h2.27v4.76h-2.27z" fill="#fece60"/><path d="m55.18 64.51h2.27v4.76h-2.27z" fill="#fece60"/><path d="m60.36 64.51h2.27v4.76h-2.27z" fill="#fece60"/><path d="m49.8 97.7h2.27v4.76h-2.27z" fill="#fe7a47"/><path d="m55.18 97.7h2.27v4.76h-2.27z" fill="#fe7a47"/><path d="m60.36 97.7h2.27v4.76h-2.27z" fill="#fe7a47"/><path d="m49.8 73.51h2.27v4.76h-2.27z" fill="#fcb757"/><path d="m55.18 73.51h2.27v4.76h-2.27z" fill="#fcb757"/><path d="m60.36 73.51h2.27v4.76h-2.27z" fill="#fcb757"/><path d="m49.8 82.51h2.27v4.76h-2.27z" fill="#fe9c51"/><path d="m55.18 82.51h2.27v4.76h-2.27z" fill="#fe9c51"/><path d="m60.36 82.51h2.27v4.76h-2.27z" fill="#fe9c51"/><path d="m54.01 53.96h4.66v-6.92s.17-2.6-2.35-2.66c-2.37-.06-2.4 2.6-2.4 2.6s.15 6.98.09 6.98z" fill="#fdcb61"/><path d="m79.85 64.16h2.27v9.69h-2.27z" fill="#ffcf62"/><path d="m88.36 64.16h2.27v9.69h-2.27z" fill="#ffcf62"/><path d="m84.15 64.16h2.27v9.69h-2.27z" fill="#ffcf62"/><path d="m76.37 77.58h2.27v3.09h-2.27z" fill="#feb359"/><path d="m84.19 77.58h2.27v3.09h-2.27z" fill="#feb359"/><path d="m92.01 77.58h2.27v3.09h-2.27z" fill="#feb359"/><path d="m76.37 87.58h2.27v3.09h-2.27z" fill="#ff9a4f"/><path d="m84.19 87.58h2.27v3.09h-2.27z" fill="#ff9a4f"/><path d="m92.01 87.58h2.27v3.09h-2.27z" fill="#ff9a4f"/><path d="m76.37 97.03h2.27v3.09h-2.27z" fill="#ff844b"/><path d="m84.19 97.03h2.27v3.09h-2.27z" fill="#ff844b"/><path d="m92.01 97.03h2.27v3.09h-2.27z" fill="#ff844b"/><path d="m76.37 107.03h2.27v3.09h-2.27z" fill="#ff7942"/><path d="m84.19 107.03h2.27v3.09h-2.27z" fill="#ff7942"/><path d="m92.01 107.03h2.27v3.09h-2.27z" fill="#ff7942"/><path d="m76.37 116.5h2.27v3.09h-2.27z" fill="#fc7544"/><path d="m84.19 116.5h2.27v3.09h-2.27z" fill="#fc7544"/><path d="m92.01 116.5h2.27v3.09h-2.27z" fill="#fc7544"/><path d="m23.14 49.17h2v18.65h-2z" fill="#fff6b2" transform="matrix(1 -.003168 .003168 1 -.1852 .0768)"/><path d="m16.17 28.46h2v39.39h-2z" fill="#fff6b2" transform="matrix(1 -.001488 .001488 1 -.0716 .0256)"/><path d="m107.23 56.44h2v11.86h-2z" fill="#fff6b2" transform="matrix(.002964 -1 1 .002964 45.5461 170.4147)"/><path d="m99.13 93.11-.01-2 14.88-.01v-42.7l10.16.01-.01 2-8.15-.01v42.7z" fill="#fff6b2"/><path d="m94.02 67.1h5.11v2h-5.11z" fill="#fff6b2"/><path d="m76.12 59.76h5.19v2h-5.19z" fill="#fff6b2"/><path d="m70.77 66.93h5.36v2h-5.36z" fill="#fff6b2"/><path d="m67.72 102.88h-2v-40h2.35v-5.44h-2.35v-15.41h-2.38l-3.88-12 .03-11.18h2l-.03 10.86.25.74 3.09 9.58h2.92v15.41h2.35v9.44h-2.35z" fill="#fff6b2"/><ellipse cx="92.29" cy="49.46" fill="url(#e)" opacity=".63" rx="28.37" ry="30.07"/></svg>