<svg enable-background="new 0 0 128 128" viewBox="0 0 128 128" xmlns="http://www.w3.org/2000/svg"><path d="m92.78 99.16 24.51 24.99s3.54.94 5.66-1.41c2.12-2.36 1.89-4.71 1.89-4.71l-30.18-31.6z" fill="#f3c975"/><path d="m69.06 67.05c-8.9 8.57-13.84 21.41-4.12 33.11 8.83 10.63 26.11 6.63 33.85-1.77s11.95-19.65 2.93-30.8c-9.33-11.51-24.67-8.24-32.66-.54z" fill="#919f50"/><path d="m71.89 94.44c3.11-1.29 1.57-5.29 1.07-8.91-.49-3.62-.03-6.87-2.67-6.7-2.64.16-4.69 2.75-4.28 8.4.33 4.61 3.44 8.22 5.88 7.21z" fill="#fffffe"/><path d="m41.29 38.64c-8.04 7.3-14.42 21.05-4.97 32.55 11.35 13.8 26.37 10.13 36.64-.26s7.96-24.8-1.07-32.96-22.5-6.68-30.6.67z" fill="#ffebcc"/><path d="m42.07 49.95c-3.89.73-4.5 5.81-4.09 8.96s2.01 6.99 5.58 6.95 1.71-3.84 1.32-8.32 1.27-8.36-2.81-7.59z" fill="#fffffe"/><path d="m44.75 44.33c5.94-6.56 13.22-20.11.94-32.09-11.92-11.64-25.96-4.99-33.22 2.15-6.93 6.8-11.13 22.39-.62 32.04s25.84 5.69 32.9-2.1z" fill="#ffa8a7"/><path d="m14.87 21.73c-3.79.65-4.71 4.76-4.42 8.3.31 3.71 3.01 6.74 5.62 6.33 3.43-.53 1.77-3.43 1.39-8.25-.28-3.82 1.12-7.02-2.59-6.38z" fill="#fff"/><path d="m4.05 4.25c-1.57 1.26 6.93 13.36 6.93 13.36s2.6-.37 4.33-1.98 2.23-4.58 2.23-4.58-11.63-8.29-13.49-6.8z" fill="#f8c972"/></svg>