<svg enable-background="new 0 0 128 128" viewBox="0 0 128 128" xmlns="http://www.w3.org/2000/svg" xmlns:xlink="http://www.w3.org/1999/xlink"><linearGradient id="a" gradientUnits="userSpaceOnUse" x1="64" x2="64" y1="66.7761" y2="141.5314"><stop offset="0" stop-color="#424242"/><stop offset=".3055" stop-color="#222"/><stop offset=".8701"/></linearGradient><linearGradient id="b" gradientUnits="userSpaceOnUse" x1="64.1153" x2="64.1153" y1="50.815" y2="112.9698"><stop offset="0" stop-color="#bdbdbd"/><stop offset=".5591" stop-color="#919191"/><stop offset=".9629" stop-color="#757575"/></linearGradient><ellipse cx="64" cy="82" fill="url(#a)" rx="57.07" ry="29.74"/><path d="m117.95 95.7c25.01-27.3-28.72-49.4-65.53-44.38-41.89 3.58-68.95 33.41-28.93 53.74 30.38 15.44 79.32 7.93 94.46-9.36-.01 0-.01 0 0 0zm-53.95 13.57c-24.1 0-45.21-7.87-52.9-18.51 13.71-34.17 93.92-32.23 105.8 0-7.69 10.63-28.8 18.51-52.9 18.51z" fill="url(#b)"/><g fill="#757575"><path d="m11.1 90.76c1.8-4.48 4.75-8.34 8.53-11.59l-.67-14.21c-8.38 4.74-11.69 11.27-11.69 16.54 0 4.37 3.83 9.26 3.83 9.26z"/><path d="m116.91 90.76c-1.8-4.48-4.55-8.4-8.52-11.63l.66-14.16c8.37 4.74 11.69 11.27 11.69 16.54 0 4.36-3.83 9.25-3.83 9.25z"/></g></svg>