<svg enable-background="new 0 0 128 128" viewBox="0 0 128 128" xmlns="http://www.w3.org/2000/svg"><path d="m38.44 35.48-32.14 41.92s4.9 3.82 6.18 5.1 7.68 10.12 9.86 11.65 4.74 2.95 5.63 3.46 3.58 5.86 6.5 8.05 9.52 8.25 15.07 10.29 12.82 4.02 19.53 5.04c6.72 1.02 16.5 1.17 22.05.29s8.47-1.75 12.12-2.04 9.05-.29 12.12-.73 5.19-1.81 6.53-3.25c1.96-2.1 2.06-7.41 1.22-8.04-1.11-.83-32.57-4.19-32.57-4.19z" fill="#bf0578"/><path d="m110.14 94.76c-2.01-4.21-1.97-15.23-5.08-24.9-3.11-9.66-16.38-29.81-27.35-38.33s-16.54-14.41-22.27-14.9-19.82 1.64-36.52 20.47c-16.71 18.85-16.88 35.97-12.62 40.3 4.72 4.79 10.97 4.09 14.25 3.6s5.57-1.47 7.7-.49 8.84 6.22 10.97 8.35 7.86 8.03 14.9 12.94 13.27 5.4 15.07 5.9 12.12 1.64 13.43 1.64 7.04-.49 11.96-.16c4.91.33 12.94.98 14.9 1.8s6.88 1.97 9.34 1.47 4.59-1.97 4.75-3.77-1.97-3.93-3.6-5.08-3.16-1.24-3.63-1.66-2.34-3.02-3.2-3.95c-1.13-1.22-2.54-2.26-3-3.23z" fill="#d3578b"/><path d="m21.82 38.35c-10.53 12.15-19.2 30.5-11.24 36.9s24.35-4.05 35.77-18.41 17.65-29.42 11.59-34.78-22.63.71-36.12 16.29z" fill="#fad674"/><g fill="#a7281d"><path d="m57.43 62.74c-.35 1.7 2.78 3.18 1.59 4.47s-6.06.3-6.65-4.86 2.58-5.05 3.57-4.86c1.59.3 2.18 1.89 1.49 5.26z"/><path d="m46.01 84.78c.3 2.86 3.57 1.99 5.56 3.18s0 2.68 2.48 3.28 5.12-4.16.2-7.35c-5.06-3.28-8.44-.99-8.24.89z"/><path d="m65.86 94.81c.99 2.48 3.67.79 5.36 1.29s2.38 2.78 4.47 1.89c2.57-1.1.79-5.46-3.38-6.65s-7.1 1.86-6.45 3.47z"/><path d="m95.11 88.61c-2.43-.85-4.68 2.97-2.82 6.62 1.9 3.73 5.71 4.26 6.7 3.12s-2.51-2.97-2.51-4.57.38-4.57-1.37-5.17z"/><path d="m79.2 66.91c-2.25-.98-5.02 2.89-3.5 6.78 1.52 3.88 5.81 3.71 6.7 2.36 1.75-2.66-2.06-3.12-2.06-4.49s.61-3.88-1.14-4.64z"/></g></svg>