<svg enable-background="new 0 0 128 128" viewBox="0 0 128 128" xmlns="http://www.w3.org/2000/svg" xmlns:xlink="http://www.w3.org/1999/xlink"><linearGradient id="a"><stop offset="0" stop-color="#424242"/><stop offset="1" stop-color="#212121"/></linearGradient><linearGradient id="b" gradientUnits="userSpaceOnUse" x1="22.5233" x2="22.5233" xlink:href="#a" y1="46.6759" y2="82.0828"/><linearGradient id="c" gradientUnits="userSpaceOnUse" x1="82.2093" x2="82.2093" xlink:href="#a" y1="46.6759" y2="82.0828"/><path d="m34.16 106.51c-15.43 0-27.97-19.07-27.97-42.51s12.55-42.51 27.97-42.51 27.97 19.07 27.97 42.51-12.55 42.51-27.97 42.51z" fill="#fafafa"/><path d="m34.16 23.49c6.63 0 12.98 4 17.87 11.27 5.22 7.75 8.1 18.14 8.1 29.24s-2.88 21.49-8.1 29.24c-4.89 7.27-11.24 11.27-17.87 11.27s-12.98-4-17.87-11.27c-5.23-7.75-8.1-18.14-8.1-29.24s2.88-21.49 8.1-29.24c4.89-7.27 11.23-11.27 17.87-11.27m0-4c-16.55 0-29.97 19.93-29.97 44.51s13.42 44.51 29.97 44.51 29.97-19.93 29.97-44.51-13.42-44.51-29.97-44.51z" fill="#b0bec5"/><path d="m25.63 59.84c-2.7-2.54-2.1-7.58 1.36-11.26.18-.19.36-.37.55-.54-1.54-.87-3.23-1.36-5.01-1.36-7.19 0-13.02 7.93-13.02 17.7s5.83 17.7 13.02 17.7 13.02-7.93 13.02-17.7c0-1.75-.19-3.45-.54-5.05-3.24 2.33-7.11 2.64-9.38.51z" fill="url(#b)"/><ellipse cx="93.84" cy="64" fill="#eee" rx="29.97" ry="44.51"/><path d="m93.84 106.51c-15.42 0-27.97-19.07-27.97-42.51s12.55-42.51 27.97-42.51 27.97 19.07 27.97 42.51-12.54 42.51-27.97 42.51z" fill="#fafafa"/><path d="m93.84 23.49c6.63 0 12.98 4 17.87 11.27 5.22 7.75 8.1 18.14 8.1 29.24s-2.88 21.49-8.1 29.24c-4.89 7.27-11.24 11.27-17.87 11.27s-12.98-4-17.87-11.27c-5.22-7.75-8.1-18.14-8.1-29.24s2.88-21.49 8.1-29.24c4.89-7.27 11.24-11.27 17.87-11.27m0-4c-16.55 0-29.97 19.93-29.97 44.51s13.42 44.51 29.97 44.51 29.97-19.93 29.97-44.51-13.42-44.51-29.97-44.51z" fill="#b0bec5"/><path d="m85.31 59.84c-2.7-2.54-2.1-7.58 1.36-11.26.18-.19.36-.37.55-.54-1.54-.87-3.23-1.36-5.01-1.36-7.19 0-13.02 7.93-13.02 17.7s5.83 17.7 13.02 17.7 13.02-7.93 13.02-17.7c0-1.75-.19-3.45-.54-5.05-3.23 2.33-7.11 2.64-9.38.51z" fill="url(#c)"/></svg>