<svg enable-background="new 0 0 128 128" viewBox="0 0 128 128" xmlns="http://www.w3.org/2000/svg" xmlns:xlink="http://www.w3.org/1999/xlink"><linearGradient id="a" gradientUnits="userSpaceOnUse" x1="64" x2="64" y1="29.17" y2="93.73"><stop offset=".3691" stop-color="#374c57"/><stop offset=".5463" stop-color="#263238"/></linearGradient><linearGradient id="b"><stop offset=".1055" stop-color="#374c57"/><stop offset=".5463" stop-color="#263238"/></linearGradient><linearGradient id="c" gradientUnits="userSpaceOnUse" x1="102.97" x2="102.97" xlink:href="#b" y1="118.99" y2="70.37"/><linearGradient id="d" gradientTransform="matrix(-1 0 0 1 49.76 0)" gradientUnits="userSpaceOnUse" x1="24.94" x2="24.94" xlink:href="#b" y1="118.99" y2="70.37"/><path d="m100.82 98.25s17.91-2.78 22.86-34.1c1.63-10.32 1.14-25.1.72-28.82-.05-.43-.5-.69-.9-.51 0 0-6.82 3.71-9.39 3.22-1.68-.32 12.52-5.65 9.57-29.09-.19-1.53-.91-1.41-1.13-1.15-1.72 1.96-6.95 7.7-9.9 8.47 0 0 1.94-5.97.21-11.94-.1-.35-.51-.52-.85-.38-12.84 5.58-13.83-2.45-29 5.98-3.41 1.9-6.08 6.38-6.08 6.38s-3.36-6.52-10.94-10.93c-5.4-3.15-12.99-1.94-15.9-1.31-.43.09-.54.65-.18.91 1.89 1.36 3.94 7.59 2.54 13.04-5.25-8.33-10.05-14.7-24.1-13.07-5.05.58-10.64 3.3-18.49.9-.59-.18-.96.19-.82.79 1.74 7.5 9.86 10.3 10.12 16.59.03.71-.84 1.08-1.33.57-2.05-2.13-6.56-6.18-12.09-7.1-.49-.08-.95.44-.69.86 1.99 3.12 6.88 8.23 8.05 15.86.15 1 .32 2.1-1.05 1.4s-3.35-2.09-5.16-4.6c-.24-.33-1.6-1.6-2.11 1.76-.9 5.88-5.05 35.99 5.19 50.92 11.83 17.26 17.37 16.26 17.37 16.26z" fill="url(#a)"/><path d="m112.52 44.05c.73-.75 1.49-1.45 2.23-1.94 2.14-1.42 3.07.75 2.82 2.83-.9 7.56 1.96 15.13 1.59 22.74-.35 7.22-4.09 14.54-10.38 17.54-.36.17-.79.33-1.15.14-.39-.21-.5-.73-.56-1.18-.69-4.76-.05-10.34-1.01-15.03-.91-4.45-1.43-7.69-.69-12.36.69-4.31 2.25-7.24 5-10.36.65-.74 1.39-1.59 2.15-2.38z" fill="#c33"/><path d="m15.26 44.05c-.73-.75-1.49-1.45-2.23-1.94-2.14-1.42-3.07.75-2.82 2.83.9 7.56-1.96 15.13-1.59 22.74.35 7.22 4.09 14.54 10.38 17.54.36.17.79.33 1.15.14.39-.21.5-.73.56-1.18.69-4.76.05-10.34 1.01-15.03.91-4.45 1.43-7.69.69-12.36-.69-4.31-2.25-7.24-5-10.36-.65-.74-1.38-1.59-2.15-2.38z" fill="#c33"/><path d="m102.97 47.46s13.68 21.05 13.71 42.01c.03 15.33-15.25 32.23-15.25 32.23s-1.7-19.89-3.22-31.22 4.76-43.02 4.76-43.02z" fill="#374c57"/><path d="m103.76 65.09s3.64 11.41 4.47 20.12c1.43 15.09-6.89 37.48-6.89 37.48l-3.79-26.21 4.19-19.5z" fill="url(#c)"/><path d="m26.47 45.78s-15.33 22.73-15.37 43.69c-.03 15.33 15.25 32.23 15.25 32.23s1.7-19.89 3.22-31.22-3.1-44.7-3.1-44.7z" fill="#374c57"/><path d="m24.03 65.09s-3.64 11.41-4.47 20.12c-1.43 15.09 6.89 37.48 6.89 37.48l3.79-26.21-4.19-19.5z" fill="url(#d)"/><path d="m85.27 30.74c-9.58 0-14.14 3.55-21.29 3.58-7.15-.03-11.71-3.58-21.29-3.58-17.88 0-21.39 43.26-21.39 44.99 0 32.34 21.45 48.96 42.67 48.96s42.67-16.62 42.67-48.96c.02-1.73-3.48-44.99-21.37-44.99z" fill="#f04e3e"/><path d="m98.25 62.33c.57 6.73-3.98 13.15-11.81 14.58s-14.88-2.87-16.54-9.41c-2.75-10.88 3.91-13.61 11.81-14.58 8.32-1.02 15.95 2.42 16.54 9.41z" fill="#a81919"/><ellipse cx="83.52" cy="66.95" fill="#ffecb3" rx="9.81" ry="8.92" transform="matrix(.9665 -.2565 .2565 .9665 -14.38 23.67)"/><ellipse cx="83.25" cy="67.46" fill="#212121" rx="4.06" ry="4.3" transform="matrix(.9975 -.0713 .0713 .9975 -4.6 6.1)"/><path d="m30.44 62.33c-.57 6.73 3.98 13.15 11.81 14.58s14.88-2.87 16.54-9.41c2.75-10.88-3.91-13.61-11.81-14.58-8.32-1.02-15.94 2.42-16.54 9.41z" fill="#a81919"/><ellipse cx="45.17" cy="66.95" fill="#ffecb3" rx="8.92" ry="9.81" transform="matrix(.2565 -.9665 .9665 .2565 -31.12 93.43)"/><ellipse cx="45.45" cy="67.46" fill="#212121" rx="4.3" ry="4.06" transform="matrix(.0713 -.9975 .9975 .0713 -25.07 107.98)"/><path d="m92.39 89.75c-.3 0-.61.05-.92.15-5.27 1.71-15.63 4.51-27.58 4.51s-22.31-2.79-27.58-4.51c-.31-.1-.62-.15-.92-.15-1.75 0-3.28.79-2.83 2.59.99 3.96 3.8 11.15 6.62 14.88 4.92 6.52 7.64 8.59 11.61 8.69.18 0 .35.01.52.01 4.99 0 5.91-1.8 12.59-1.8s7.6 1.8 12.59 1.8c.17 0 .34 0 .52-.01 3.97-.09 6.68-2.16 11.61-8.69 2.82-3.73 5.82-10.65 6.62-14.94.44-1.79-1.09-2.53-2.85-2.53z" fill="#281010"/><g fill="#fff8e1"><path d="m60.65 101.1c0-1.1 0-3.85 0-3.85s5.72 0 6.38 0v3.85s-1.43 2.53-3.19 2.53-3.19-.77-3.19-2.53z"/><path d="m51.83 99.98c.2-1.08.69-3.79.69-3.79s5.62 1.02 6.27 1.14c0 0-.37 2.06-.69 3.79-.31 1.73-1.86 2.23-3.59 1.92-1.73-.32-3-1.33-2.68-3.06z"/><path d="m75.96 99.98c-.2-1.08-.69-3.79-.69-3.79s-5.62 1.02-6.27 1.14c0 0 .37 2.06.69 3.79.31 1.73 1.86 2.23 3.59 1.92 1.73-.32 2.99-1.33 2.68-3.06z"/><path d="m67.08 107.5v3.85s-5.72 0-6.38 0c0 0 0-2.09 0-3.85s1.43-2.53 3.19-2.53 3.19.77 3.19 2.53z"/><path d="m76.48 107.53v3.85s-5.72 0-6.38 0c0 0 0-2.09 0-3.85s1.43-2.53 3.19-2.53 3.19.77 3.19 2.53z"/><path d="m57.69 107.5v3.85s-5.72 0-6.38 0c0 0 0-2.09 0-3.85s1.43-2.53 3.19-2.53 3.19.77 3.19 2.53z"/><path d="m84.68 94.49c-.53 2.37-.49 4.06.91 7.09.33.72.67 1.58.18 2.21-.55.71-1.58.66-2.55.33-3.18-1.09-5.71-3.91-6.45-7.19"/><path d="m43.11 94.49c.53 2.37.49 4.06-.91 7.09-.33.72-.67 1.58-.18 2.21.55.71 1.58.66 2.55.33 3.18-1.09 5.71-3.91 6.45-7.19"/></g><path d="m35.94 93.89s1.23.29 1.94.62c3.52 1.67 12 4.79 26.01 4.79s22.48-3.13 26.01-4.79c.71-.33 1.93-.35 1.93-.35-1.24 3.36-3.79 8.59-5.59 11.05-4.3 6.16-9.13 6.16-13.72 4.94-1.95-.54-4.82-1.21-8.62-1.21-3.95 0-6.68.67-8.62 1.21-4.95 1.21-9.42.63-13.72-4.94-1.81-2.46-4.43-7.83-5.62-11.32zm57.44-5c-.31 0-.63.05-.95.16-5.45 1.83-16.17 4.82-28.54 4.82s-23.08-2.99-28.54-4.82c-.32-.11-.64-.16-.95-.16-1.81 0-3.4.85-2.93 2.77 1.02 4.23 3.93 11.93 6.85 15.92 5.09 6.98 7.9 9.19 12.01 9.29.18 0 .36.01.53.01 5.16 0 6.12-1.93 13.03-1.93s7.87 1.93 13.03 1.93c.17 0 .35 0 .53-.01 4.1-.1 6.92-2.31 12.01-9.29 2.91-3.99 6.03-11.39 6.85-15.98.47-1.92-1.12-2.71-2.93-2.71z" fill="#b31b1b"/><path d="m92.43 89.05c-5.47 1.79-16.17 4.82-28.54 4.82s-23.04-3.12-28.54-4.82c-1.57-.49-3.81-.73-3.89 1.29-.08 2.01 5.5 3.95 5.84 4.08 3.89 1.56 12.58 4.88 26.59 4.88s22.46-3.01 26.1-4.4c1.92-.73 6.43-2.55 6.32-4.6-.08-1.72-2.04-1.85-3.88-1.25z" fill="#cc2d2d"/><path d="m79.08 80.67c-.94-1.95-3.94-3.09-6.46-1-.8.66-1.95.08-2.72-1.03-1.73-2.48-2.91-8.88-6.01-8.88s-4.28 6.4-6.01 8.88c-.78 1.11-2.14 1.51-2.72 1.03-2.52-2.08-5.52-.94-6.46 1-1.11 2.31-.31 4.33 1.43 5.48 1.47.98 3.25.81 4.49.2 1.21-.6 1.76.12 2.83.92 2.35 1.75 4.7 2.59 6.43 2.59s4.08-.83 6.43-2.59c1.07-.8 1.62-1.52 2.83-.92 1.24.61 3.02.78 4.49-.2 1.77-1.15 2.57-3.17 1.45-5.48z" fill="#ff8a66"/><path d="m56.31 84.45c-.41-.39-.87-.74-1.41-.9s-1.29-.05-1.74.51c-.48.59-.46 1.56.13 2.04.76.63 1.67.37 2.37.07 1.35 1.38 3.77 2.36 3.77 2.36s-2.56-3.55-3.12-4.08z" fill="#cc2d2d"/><path d="m71.48 84.45c.41-.39.87-.74 1.41-.9s1.29-.05 1.74.51c.48.59.46 1.56-.13 2.04-.76.63-1.67.37-2.37.07-1.35 1.38-3.65 2.3-3.65 2.3s2.44-3.49 3-4.02z" fill="#cc2d2d"/><path d="m88.31 78.43c-3.01 2.96-2.23 6.76.55 7.51 2.1.57 4.39.42 6.49-.16 1.89-.52 3.73-1.28 5.11-2.49 2.74-2.41 2.67-7.17-1.82-8.15-3.48-.76-8.29 1.29-10.33 3.29z" fill="#ff8a66"/><path d="m39.47 78.43c3.01 2.96 2.23 6.76-.55 7.51-2.1.57-4.39.42-6.49-.16-1.89-.52-3.73-1.28-5.11-2.49-2.74-2.41-2.67-7.17 1.82-8.15 3.48-.76 8.29 1.29 10.33 3.29z" fill="#ff8a66"/><path d="m95.96 42.65c4.93-9.08 6.03-21.23 4.24-29.32-.38-1.72-2.16-6.47-5.06-6.1-3.08.4-1.86 4.45-2.35 8.08-1.63 12.07-7.57 15.23-9.84 17.57-1.44 1.48-2.05 4.88 2.53 8.83 4.58 3.97 9.42 2.88 10.48.94z" fill="#f2a600"/><path d="m97.6 30.36c-1.25 2.86-5.79 8.87-10.57 6.43-1.56-.8-2.36-3.32-1.4-4.78 1.37-2.11 2.42-3.8 3.24-5.32 1.65-2.41 3.18-5.9 3.92-11.39.49-3.63-.73-7.67 2.35-8.08 6.37.02 5.2 16.87 2.46 23.14z" fill="#ffca28"/><path d="m32.4 42.72c-4.93-9.08-6.6-21.3-4.81-29.39.38-1.72 2.16-6.47 5.06-6.1 3.08.4 1.86 4.45 2.35 8.08 1.63 12.07 7.64 15.35 9.91 17.69 1.44 1.48 1.98 4.76-2.6 8.72s-8.86 2.94-9.91 1z" fill="#f2a600"/><path d="m30.19 30.36c1.25 2.86 5.79 8.87 10.57 6.43 1.56-.8 2.36-3.32 1.4-4.78-1.37-2.11-2.42-3.8-3.24-5.32-1.65-2.41-3.18-5.9-3.92-11.39-.49-3.63.73-7.67-2.35-8.08-6.37.02-5.2 16.87-2.46 23.14z" fill="#ffca28"/></svg>