<svg enable-background="new 0 0 128 128" viewBox="0 0 128 128" xmlns="http://www.w3.org/2000/svg" xmlns:xlink="http://www.w3.org/1999/xlink"><linearGradient id="a" gradientTransform="matrix(1 0 0 -1 0 128)" gradientUnits="userSpaceOnUse" x1="53" x2="53" y1="32" y2="4"><stop offset=".0032" stop-color="#616161"/><stop offset=".2772" stop-color="#545454"/><stop offset=".7831" stop-color="#323232"/><stop offset="1" stop-color="#212121"/></linearGradient><linearGradient id="b" gradientTransform="matrix(1 0 0 -1 0 128)" gradientUnits="userSpaceOnUse" x1="53" x2="53" y1="4.6387" y2="36.6927"><stop offset="0" stop-color="#bfbebe"/><stop offset=".236" stop-color="#212121" stop-opacity="0"/></linearGradient><linearGradient id="c"><stop offset=".7275" stop-color="#444140" stop-opacity="0"/><stop offset="1" stop-color="#444140"/></linearGradient><radialGradient id="d" cx="113.638" cy="45.9868" gradientTransform="matrix(1 0 0 .4912 -49.0551 59.4242)" gradientUnits="userSpaceOnUse" r="23.419" xlink:href="#c"/><linearGradient id="e"><stop offset=".6628" stop-color="#444140"/><stop offset="1" stop-color="#444140" stop-opacity="0"/></linearGradient><radialGradient id="f" cx="90.5728" cy="49.4686" gradientTransform="matrix(-.9057 .4238 -.3144 -.6719 185.2367 73.3813)" gradientUnits="userSpaceOnUse" r="6.9209" xlink:href="#e"/><linearGradient id="g"><stop offset=".7247" stop-color="#444140" stop-opacity="0"/><stop offset="1" stop-color="#444140"/></linearGradient><radialGradient id="h" cx="108.5091" cy="69.0473" gradientTransform="matrix(-.0746 -.9972 .8311 -.0622 20.4246 171.4544)" gradientUnits="userSpaceOnUse" r="30.3992" xlink:href="#g"/><radialGradient id="i" cx="30.3103" cy="69.0473" gradientTransform="matrix(.0746 -.9972 -.8311 -.0622 85.4328 93.4736)" gradientUnits="userSpaceOnUse" r="30.3992" xlink:href="#g"/><radialGradient id="j" cx="35.4392" cy="45.9868" gradientTransform="matrix(-1 0 0 .4912 70.8783 59.4242)" gradientUnits="userSpaceOnUse" r="23.419" xlink:href="#c"/><radialGradient id="k" cx="12.3739" cy="49.4686" gradientTransform="matrix(.9057 .4238 .3144 -.6719 -14.3862 106.5233)" gradientUnits="userSpaceOnUse" r="6.9209" xlink:href="#e"/><linearGradient id="l"><stop offset=".6985" stop-color="#444140" stop-opacity="0"/><stop offset="1" stop-color="#444140"/></linearGradient><radialGradient id="m" cx="68.0189" cy="85.0832" gradientTransform="matrix(.3076 .9515 .706 -.2282 -12.9739 -2.3892)" gradientUnits="userSpaceOnUse" r="35.6328" xlink:href="#l"/><radialGradient id="n" cx="33.28" cy="123.9366" gradientTransform="matrix(.8813 .4726 .5603 -1.045 -65.4908 117.8499)" gradientUnits="userSpaceOnUse" r="9.3426"><stop offset=".58" stop-color="#444140"/><stop offset="1" stop-color="#444140" stop-opacity="0"/></radialGradient><radialGradient id="o" cx="165.2462" cy="50.2678" gradientTransform="matrix(-.9378 -.3944 -.2182 .5285 220.0974 59.6379)" gradientUnits="userSpaceOnUse" r="28.7211" xlink:href="#l"/><radialGradient id="p" cx="29.5288" cy="115.4127" gradientTransform="matrix(1 0 0 -1.2233 0 153.7721)" gradientUnits="userSpaceOnUse" r="8.5755"><stop offset=".7016" stop-color="#444140" stop-opacity="0"/><stop offset="1" stop-color="#444140"/></radialGradient><radialGradient id="q" cx="28.349" cy="100.276" gradientTransform="matrix(-.9657 -.2598 -.2432 .9037 80.1125 -55.5299)" gradientUnits="userSpaceOnUse" r="16.0834"><stop offset=".6605" stop-color="#444140" stop-opacity="0"/><stop offset="1" stop-color="#444140"/></radialGradient><radialGradient id="r" cx="24.5334" cy="84.7461" gradientTransform="matrix(.9907 .1363 .1915 -1.3921 -15.9984 157.8846)" gradientUnits="userSpaceOnUse" r="16.8856"><stop offset=".5981" stop-color="#444140" stop-opacity="0"/><stop offset="1" stop-color="#444140"/></radialGradient><linearGradient id="s"><stop offset="0" stop-color="#fff"/><stop offset="1" stop-color="#bdbdbd"/></linearGradient><linearGradient id="t" gradientTransform="matrix(1 0 0 -1 0 128)" gradientUnits="userSpaceOnUse" x1="42.741" x2="42.741" xlink:href="#s" y1="22.0398" y2="31.2491"/><linearGradient id="u" gradientTransform="matrix(1 0 0 -1 0 128)" gradientUnits="userSpaceOnUse" x1="57.2415" x2="57.2415" xlink:href="#s" y1="22.0398" y2="31.2491"/><radialGradient id="v" cx="33.3485" cy="135.0711" gradientTransform="matrix(-.0347 -.9994 -1.0566 .0367 235.3496 144.0109)" gradientUnits="userSpaceOnUse" r="19.3111"><stop offset=".3074" stop-color="#70534a"/><stop offset="1" stop-color="#5c4037"/></radialGradient><linearGradient id="w"><stop offset="0" stop-color="#5c4037"/><stop offset="1" stop-color="#70534a"/></linearGradient><radialGradient id="x" cx="116.8536" cy="13.2141" gradientTransform="matrix(.936 -.352 -.352 -.936 9.5204 164.3681)" gradientUnits="userSpaceOnUse" r="14.1497" xlink:href="#w"/><radialGradient id="y" cx="112.1016" cy="26.2017" gradientTransform="matrix(1.0148 .1678 .1671 -.9861 -7.6601 110.5846)" gradientUnits="userSpaceOnUse" r="14.1353" xlink:href="#w"/><radialGradient id="z" cx="118.188" cy="15.037" gradientTransform="matrix(.9978 -.0658 -.0658 -.9978 .9104 134.6742)" gradientUnits="userSpaceOnUse" r="16.0833" xlink:href="#w"/><radialGradient id="A" cx="118.8535" cy="16.0261" gradientTransform="matrix(.9971 .0764 .0764 -.9971 -2.4216 119.2554)" gradientUnits="userSpaceOnUse" r="15.3695" xlink:href="#w"/><radialGradient id="B" cx="117.1223" cy="14.6832" gradientTransform="matrix(.9746 -.2241 -.2241 -.9746 5.3693 151.5126)" gradientUnits="userSpaceOnUse" r="15.375" xlink:href="#w"/><path d="m50.14 96c-.05 0-.09 0-.14 0-18.21.02-36.76 3.6-46 12.07v2.09 2.29 11.55h95 1.5 1.5v-3.01c0-16.87-26.1-24.99-51.86-24.99z" fill="url(#a)"/><path d="m84.02 110.26c-.32.11-5.23 3.04-12.05 5.56-3.21 1.19-13.11 3.08-21.95 2.88-15.88-.38-27.44-5.31-34.09-8.77-2.51-1.3-5.48-3.91-7.05-5.38l-1.93 1.26c1.24 1.21 3.67 3.34 7.45 5.61-4.11 4.5-5.3 10.6-5.59 12.59h2.03c.35-2.1 1.59-7.68 5.34-11.57 2.61 1.44 5.76 2.88 9.48 4.16-2.09 3.27-2.39 6.5-2.43 7.41h2c.05-.86.38-3.86 2.4-6.77 6.03 1.86 13.43 3.24 22.35 3.45.69.02 1.37.02 2.04.02 8.08 0 14.81-1.17 20.34-2.86 1.65 2.7 1.95 5.35 2 6.15h2c-.04-.85-.31-3.74-2.06-6.79 3.75-1.3 6.89-2.83 9.47-4.38 3.46 3.86 4.64 9.14 4.97 11.16h2.03c-.28-1.93-1.42-7.78-5.28-12.25 3.6-2.37 5.9-4.64 7.07-5.93l-1.77-1.06c-1.19 1.28-3.4 3.34-6.77 5.51z" fill="#fff" opacity=".19"/><path d="m50.14 95.96c-.05 0-.09 0-.14 0-18.21.02-36.76 3.6-46 12.07v2.09 2.29 11.56h95 1.5 1.5v-3.01c0-16.88-26.1-25-51.86-25z" fill="url(#b)" opacity=".3"/><path d="m84.9 79.71c-1.25-2.27.34-4.58 3.06-7.44 4.31-4.54 9-15.07 4.64-25.76.03-.06-.86-1.86-.83-1.92l-1.79-.09c-.58-.08-20.27-.12-39.98-.12s-39.4.04-39.97.12c0 0-2.65 1.95-2.63 2.01-4.35 10.69.34 21.21 4.65 25.76 2.71 2.86 4.3 5.17 3.06 7.44-1.21 2.21-4.81 2.53-4.81 2.53s.83 2.26 2.83 3.48c1.85 1.13 4.13 1.39 5.7 1.43 0 0 6.15 8.51 22.23 8.51h8.94 8.95c16.08 0 22.23-8.51 22.23-8.51 1.57-.04 3.85-.3 5.7-1.43 2-1.22 2.83-3.48 2.83-3.48s-3.6-.32-4.81-2.53z" fill="#232020"/><path d="m49.99 95.65v-9.44l28.57-2.26 2.6 3.2s-6.15 8.51-22.23 8.51z" fill="url(#d)"/><path d="m81.1 83.02c-4.28-6.5 5.21-8.93 5.21-8.93s.01.01.01.01c-1.65 2.05-2.4 3.84-1.43 5.61 1.21 2.21 4.81 2.53 4.81 2.53s-4.91 4.36-8.6.78z" fill="url(#f)"/><path d="m92.62 46.51c4.25 10.35-.22 21.01-4.41 25.51-.57.62-3.01 3.01-3.57 4.92 0 0-9.54-13.31-12.39-21.13-.57-1.58-1.1-3.2-1.17-4.88-.05-1.26.14-2.76.87-3.83.89-1.31 20.16-1.7 20.16-1.7 0 .02.51 1.11.51 1.11z" fill="url(#h)"/><path d="m7.4 46.51c-4.25 10.35.22 21.01 4.41 25.51.57.62 3.01 3.01 3.57 4.92 0 0 9.54-13.31 12.39-21.13.58-1.58 1.1-3.2 1.17-4.88.05-1.26-.14-2.76-.87-3.83-.89-1.31-1.93-.96-3.44-.96-2.88 0-15.49-.74-16.47-.74.01.02-.76 1.11-.76 1.11z" fill="url(#i)"/><path d="m50.03 95.65v-9.44l-28.57-2.26-2.6 3.2s6.15 8.51 22.23 8.51z" fill="url(#j)"/><path d="m18.92 83.02c4.28-6.5-5.21-8.93-5.21-8.93s-.01.01-.01.01c1.65 2.05 2.4 3.84 1.43 5.61-1.21 2.21-4.81 2.53-4.81 2.53s4.91 4.36 8.6.78z" fill="url(#k)"/><path d="m50 89.94h-9.08v9.98c0 4.51 3.7 8.17 8.26 8.17h1.65c4.56 0 8.26-3.66 8.26-8.17v-9.98c-.01 0-9.09 0-9.09 0z" fill="#3c2b24"/><path d="m77.33 50.29h-54.66c-5.89 0-10.71 5.14-10.71 11.41s4.82 11.41 10.71 11.41h54.65c5.89 0 10.71-5.14 10.71-11.41s-4.81-11.41-10.7-11.41z" fill="#3c2b24"/><path d="m50 10.93c-17.4 0-33.52 18.61-33.52 45.4 0 26.64 16.61 39.81 33.52 39.81s33.52-13.17 33.52-39.81c0-26.79-16.12-45.4-33.52-45.4z" fill="#70534a"/><g fill="#1a1717"><path d="m40.8 49.68c-.93-1.23-3.07-3.01-7.23-3.01s-6.31 1.79-7.23 3.01c-.41.54-.31 1.17-.02 1.55.26.35 1.04.68 1.9.39s2.54-1.16 5.35-1.18c2.81.02 4.49.89 5.35 1.18s1.64-.03 1.9-.39c.28-.38.39-1.01-.02-1.55z"/><path d="m73.67 49.68c-.93-1.23-3.07-3.01-7.23-3.01s-6.31 1.79-7.23 3.01c-.41.54-.31 1.17-.02 1.55.26.35 1.04.68 1.9.39s2.54-1.16 5.35-1.18c2.81.02 4.49.89 5.35 1.18s1.64-.03 1.9-.39c.28-.38.39-1.01-.02-1.55z"/><ellipse cx="33.56" cy="58.67" rx="4.93" ry="5.1"/><ellipse cx="66.44" cy="58.67" rx="4.93" ry="5.1"/></g><path d="m53.86 67.92c-.11-.04-.21-.07-.32-.08h-7.08c-.11.01-.22.04-.32.08-.64.26-.99.92-.69 1.63s1.71 2.69 4.55 2.69 4.25-1.99 4.55-2.69c.3-.71-.05-1.37-.69-1.63z" fill="#33251f"/><path d="m90.07 24.97c-2.44-3.69-7.91-8.64-12.82-8.97-.79-4.72-5.84-8.72-10.73-10.27-13.23-4.19-21.84.51-26.46 3.04-.96.52-7.17 3.97-11.51 1.5-2.72-1.55-2.67-5.74-2.67-5.74s-8.52 3.25-5.61 12.3c-2.93.12-6.77 1.36-8.8 5.47-2.42 4.9-1.56 8.99-.86 10.95-2.52 2.14-5.69 6.69-3.52 12.6 1.64 4.45 8.17 6.5 8.17 6.5-.62 10.74 2.28 15.95 2.28 15.95s4.69-18.45 4.3-21.27c0 0 7.76-1.54 16.57-6.58 5.95-3.41 10.02-7.4 16.71-8.91 10.18-2.29 12.45 5.08 12.45 5.08s9.42-1.81 12.26 11.27c1.17 5.38 1.93 14.3 2.57 19.77-.06-.48 3.24-6.33 3.86-12.33.16-1.55 4.34-3.6 6.14-10.26 2.39-8.89-.56-17.43-2.33-20.1z" fill="#232020"/><path d="m86.22 55.37c.16-1.55 4.34-3.6 6.14-10.26.19-.71.35-1.43.5-2.15 1.46-8.09-1.16-15.52-2.79-17.98-2.26-3.41-7.1-7.89-11.69-8.81-.4-.05-.79-.1-1.16-.12 0 0 .33 2.15-.54 3.86-1.12 2.22-3.41 2.75-3.41 2.75 11.97 11.97 11.12 21.99 12.95 32.71z" fill="url(#m)"/><path d="m42.95 7.26c-1.1.53-2.06 1.06-2.9 1.51-.96.52-7.17 3.97-11.51 1.5-2.67-1.52-2.67-5.58-2.67-5.72-1.23 1.57-4.95 12.78 5.93 13.53 4.69.32 7.58-3.77 9.3-7.23.62-1.27 1.59-3.1 1.85-3.59z" fill="url(#n)"/><path d="m65.16 5.33c7.32 1.98 10.89 5.71 12.08 10.68.35 1.46.77 15.08-25.23-.4-9.67-5.76-7.03-9.36-5.9-9.77 4.42-1.6 10.85-2.73 19.05-.51z" fill="url(#o)"/><path d="m25.84 4.54c-.01.01-.03.01-.06.03-.93.39-8.24 3.78-5.51 12.26l7.78 1.25c-6.89-6.98-2.17-13.55-2.17-13.55s-.03 0-.04.01z" fill="url(#p)"/><path d="m25.07 17.6-4.81-.77c-.19 0-.83.06-1.18.11-2.71.38-5.9 1.78-7.63 5.36-1.86 3.86-1.81 7.17-1.3 9.38.15.74.45 1.58.45 1.58s2.38-2.26 8.05-2.41z" fill="url(#q)"/><path d="m10.37 33.44c-2.37 2.11-5.56 6.8-3.21 12.61 1.77 4.39 8.09 6.29 8.09 6.29 0 .02 1.26.4 1.91.4l1.48-21.9c-3.03 0-5.94.91-7.82 2.22.03.03-.46.35-.45.38z" fill="url(#r)"/><path d="m50 118.25s6.12-3.24 10.47-10.19c-3.79-.92-10.83-2.56-10.47-2.06l-10.51 2.29c4.33 6.69 10.51 9.96 10.51 9.96z" fill="#d8d8d8"/><path d="m40.95 96.31c-1.84.13-3.66.3-5.47.5.64 7.08 4.13 12.37 7.53 15.92l6.98-6.74c-6.34-4.67-8.45-8.4-9.04-9.68z" fill="url(#t)"/><path d="m59.03 96.33c-.59 1.29-2.72 5-9.03 9.67l6.92 6.68c3.27-3.5 6.66-8.72 7.58-15.81-1.81-.22-3.63-.4-5.47-.54z" fill="url(#u)"/><path d="m57.77 78.88c-1.08 0-14.46 0-15.55 0-3.31 0-2.72 1.94-1.12 2.62 2.51 1.07 6.06 1.36 8.87 1.37h.02s.01 0 .02 0c2.81-.01 6.36-.3 8.87-1.37 1.61-.68 2.2-2.62-1.11-2.62z" fill="#1a1717"/><path d="m99.21 119.57 4.57-24.84c.04-.29.06-.57.03-.86l-.67-8.86c-.18-2.33 1.63-2.63 3.95-2.39 2.32.24 4.03.9 3.39 3.14l-2.46 8.54c-.08.28-.13.56-.14.85l-.6 25.16z" fill="#dd8a3e"/><path d="m106.4 75.98 2.34.24c1.71.18 2.97 1.72 2.8 3.44l-.06.56c-.18 1.71-1.72 2.97-3.44 2.8l-2.34-.24c-1.71-.18-2.97-1.72-2.8-3.44l.06-.56c.18-1.72 1.73-2.98 3.44-2.8z" fill="#dd8a3e"/><path d="m103.05 57.25h12.45v23.63h-12.45z" fill="#995f33" transform="matrix(.1021 -.9948 .9948 .1021 29.4152 170.7157)"/><path d="m112.42 76.97-9.62-.99c-1.37-.14-2.37-1.36-2.23-2.74l1.04-10.16c.14-1.37 1.36-2.37 2.74-2.23l9.62.99c1.37.14 2.37 1.37 2.23 2.73l-1.04 10.16c-.15 1.39-1.37 2.39-2.74 2.24z" fill="#dd8a3e"/><path d="m99.35 67.99c.59-5.76.62-7.94-1.62-8.17s-4.42 3.13-4.87 7.51 1 8.11 3.24 8.34 2.66-1.92 3.25-7.68z" fill="#dd8a3e"/><path d="m117.42 69.85c.59-5.76 1.01-7.9 3.25-7.67s3.69 3.96 3.24 8.34-2.63 7.74-4.87 7.51-2.21-2.42-1.62-8.18z" fill="#dd8a3e"/><path d="m101.14 103.65c-1.05.17-2.08.44-3.05.88-1.39.63-8.03-1.32-8.44 5.08-.04 1.77-.21 7.34 1.29 10.07 3.13 5.71 14.89 4.3 15.78 4.44 5.61.87 3.1-17.15-.07-19.46-.4-.26-1.04-.58-1.6-.89-1.09-.58-2.81-.29-3.91-.12z" fill="url(#v)"/><path d="m109.01 120.28-6.33-.14c-.81-.04-1.48.51-1.62 1.26-.16.82.44 1.6 1.31 1.76l6.26.93c1 .18 1.96-.49 2.06-1.46l.05-.5c.1-.98-.69-1.84-1.73-1.85z" fill="url(#x)"/><path d="m89.7 113.94s1.28.89 3.23 1.66c5.94 2.35 6.66-4.92 6.8-6.04.72-5.78 5.83-4.49 10.16-4.78.9-.06 3.98-.53 4.81-2.56.87-3.38-2.59-3.33-9.9-3.77-1.99-.12-3.97-.09-5.95.19-9.4 1.31-9.47 10.97-9.15 15.3z" fill="url(#y)"/><path d="m110.98 110-9.06.77c-1.22.09-1.24 1.01-1.3 2.17-.09 1.25.06 2.33 1.39 2.41l9.1.43c1.54.08 2.84-1.09 2.82-2.56l-.01-.75c-.04-1.5-1.38-2.64-2.94-2.47z" fill="url(#z)"/><path d="m110.86 104.66-7.77 1.09c-1.16.15-1.99 1.09-1.99 2.19-.02 1.2 1.03 2.17 2.3 2.18l7.87.06c1.47 0 2.67-1.18 2.57-2.59l-.05-.72c-.12-1.43-1.45-2.45-2.93-2.21z" fill="url(#A)"/><path d="m110.15 115.5-7.18.4c-1.07.04-1.9.83-1.99 1.84-.12 1.09.76 2.06 1.92 2.18l7.17.66c1.34.12 2.53-.86 2.56-2.15l.02-.66c0-1.33-1.13-2.37-2.5-2.27z" fill="url(#B)"/><path d="m111.29 115.78c.11-1.01-8.03.03-9.03-.81-1.14-.95-1.02-2.81.39-3.44 1.57-.71 9.26-.99 9.26-1.43-.01-.8-10.03 1.56-10.1-2.04-.04-2.23 2.32-2.22 3.9-2.51.94-.17 5.08-.49 5.08-.78s-1.02-.2-1.13-.21c-.75-.07-5.58.3-6.88.61-2.15.51-2.67 1.71-2.71 2.65-.06 1.09-.34 2.54-.69 3.58-.75 2.21-3.43 4.25-3.51 4.54-.09.32 1.71-.58 2.82-1.77.66-.7 1.57-.37 1.79.57.13.57.24 1.1.23 1.34-.01.5-.04 3.5-.21 4.53-.07.4-.1.71.03 1.15.09.32.24.63.44.89.92 1.2 2.56 1.31 3.9 1.37.81.04 4.03.39 4.78-.04-1.79-.02-8.08.14-7.82-2.31.17-1.37 1.43-.99 2.35-.9 1.05.09 3.01.12 4.06.01.29-.03 1.83 0 1.83-.22 0-.33-3.23-.37-3.59-.38-1.31-.04-4.04.17-4.65-1.38-.22-.57-.14-1.27.24-1.76.92-1.16 9.17-.74 9.22-1.26z" fill="#4a2f27"/></svg>