<svg enable-background="new 0 0 128 128" viewBox="0 0 128 128" xmlns="http://www.w3.org/2000/svg"><g fill="#464c4f"><path d="m5.68 37.74-1.75 2.63s-.13 3.12.55 3.83c.91.96 4.6.66 7.22.77 2.63.11 5.91.77 5.91.77l6.79-5.36z"/><path d="m6.48 68.74c.11 1.59-.32 8.23 4.99 17.41 3.55 6.13 10.92 13.03 21.25 13.21 24.95.44 29.71-25.21 28.2-32.71-1.07-5.33-17.26 20.56-17.26 20.56s-20.17 2.59-21.16 1.06c-.98-1.53-16.02-19.53-16.02-19.53z"/><path d="m66.31 66.31s-1.31 11.48 4.49 21.01c3.84 6.3 10.84 12.04 22 12.48s19.7-5.36 24.41-14.12c6.04-11.23 2.7-22.38 2.7-22.38l-11.79 21.95-18.5 6.79s-19.26-20.25-19.37-20.58-3.94-5.15-3.94-5.15z"/></g><path d="m124.21 27.78c-.3-.57-2.37-.55-4.16-.66-1.2-.07-9.93-.1-15.76 1.42-8.58 2.24-13.09 4.39-13.09 4.39s-12.63-4.93-28.17-5.04-28.67 5.25-28.67 5.25-9.36-3.58-15.55-4.7c-7.6-1.38-14.33-.92-14.33-.92-.33.66-.61 13.12-.61 13.12s5.5-.13 8.59.39c3.31.56 5.91 1.64 5.91 1.64s-12.61 12.39-11.81 26.92c.66 11.93 11.16 27.03 28.13 26.7 16.96-.33 25.98-15.43 26.27-28.02.32-14.33-11.72-25.27-11.72-25.27l5.36-2.3 18.5-.22 3.23 3.17s-10.67 11.28-10.01 24.63 10.94 28.46 27.36 28.57c17.18.11 26.7-15.65 26.7-29.22 0-12.38-11.36-24.81-11.36-24.81l-.35-1.35 15.37-1.68c-.01-.01.38-11.61.17-12.01zm-90.18 57.35c-9.19.33-15.72-9.02-14.01-18.28 2.08-11.27 13.57-18.39 13.57-18.39s12.05 7.94 13.94 19.3c1.21 7.28-2.54 16.97-13.5 17.37zm59.43.33c-8.8-.4-13.51-6.67-13.24-16.09.33-11.71 11.38-20.79 12.59-20.79 0 0 13.46 8.1 14.34 20.58.58 8.4-5.27 16.68-13.69 16.3z" fill="#606265"/><path d="m76.33 43.67s2.77-2.87 2.8-2.94c.4-1.12-19.17-5-35.88.8-10.77 3.74-16.14 8.8-19.37 13.86-4.04 6.32-4.03 12.33-4.03 12.33s4.66-18.57 26.85-23.81c19.86-4.67 29.63-.24 29.63-.24z" fill="#464c4f"/><path d="m80.81 64.93s5.46-15.31 20.74-20.55c9.79-3.36 22.25-1.01 22.39-1.29s.09-3.37.09-3.37-13.83-3.05-26.23 3.2c-6.66 3.36-10.53 7.64-12.66 11.05-3.63 5.81-4.33 10.96-4.33 10.96z" fill="#464c4f"/><g fill="#9a9a99"><path d="m7.26 30.41c-1.14.89-.97 5.36.73 5.68 2.19.42 3.57-1.62 4.95-1.87 1.38-.24 4.38-.32 4.46-2.19s-7.55-3.65-10.14-1.62z"/><path d="m12.66 58.09c2.45 1.4 6.05-7.71 16.3-14.29 8.42-5.4 16.27-7.27 15.87-9.03-.53-2.28-10.78-.18-19.81 6.57-8.44 6.32-14.81 15.35-12.36 16.75z"/><path d="m37.7 88.77c.83 2.36 5.76 1.17 8.86-1.89 3.09-3.04 4.08-6.85 2.25-7.5-2.22-.79-2.95 2.3-5.67 4.55-2.47 2.04-6.09 2.98-5.44 4.84z"/><path d="m109.84 76.66c-2.25-.24-2.01 2.6-4.02 5.2-1.92 2.48-5.08 3.64-4.61 5.44.6 2.26 5.47.77 7.92-2.78 2.36-3.43 3.14-7.6.71-7.86z"/><path d="m83.9 40.56c-10.24 8.3-13 16.31-11.4 17.55s6.32-8.15 14.18-14.42c7.77-6.19 17.31-7.44 16.07-10.28-1.27-2.9-11.99 1.6-18.85 7.15z"/></g></svg>