<svg enable-background="new 0 0 128 128" viewBox="0 0 128 128" xmlns="http://www.w3.org/2000/svg" xmlns:xlink="http://www.w3.org/1999/xlink"><clipPath id="a"><path d="m54.8 85.4c-.4.5-.5 1.2-.1 1.7 2.3 2.7 9.5 11.3 10.7 13 1.4 1.8 0 3.1-.8 3.9-27.1 27.4-47 20.6-53.4 19.4-4.1-.8-6-2.8-6.6-6.7-1.2-8.3-5.1-27.7 21.3-53 1.4-1.3 2.9-1.2 4-.3.9.7 9.6 8.8 12.1 11.2.4.4 1 .3 1.4 0 .9-.9 2.5-2.5 3.2-3.1 3.6-3.1 14.7 7.6 11 11.1-.7.7-2 2-2.8 2.8z"/></clipPath><clipPath id="b"><path d="m84.6 34.9s-34.8 35.4-36.1 36.8c-2.6 2.8 6 11.6 8.9 8.9 2-1.8 37.4-35.8 37.4-35.8z"/></clipPath><clipPath id="c"><path d="m87.8 30.4s-3.3 3.3-4.4 4.4c-3 3.1 8.2 14.3 11.3 11.3 1-1 3.1-3 4-3.9 4.7 4.2 10.2 3 13.3 1.5 4.8-2.3 14.8-10.7 13.1-13.2-.4-.6-1.3-1.6-1.3-1.6s-.8-.8-1.8.1c0 0-8.7 7.9-10.2 9-2.2 1.6-5.3 1.9-8.1 0-2.6-1.7-9.3-9.2-11.4-12.2-1.7-2.5-2.8-5-.9-7.7 1.5-2 9.9-10.2 10.5-11 .9-1 .8-2 .2-2.6-.4-.5-.9-.9-1.5-1.3-1.7-1.5-11 6.7-15.1 14.3-2.8 5 .3 10.2 2.3 12.9z"/></clipPath><clipPath id="d"><path d="m100.9 6.4c7 3.7 17.9 16.7 21.2 22.8.2.4.2.8 0 1.1-1.4 2.4-4.1 4.7-7 6.5-.5.3-1.1.3-1.6-.1-6.1-4.2-16-14.4-20.4-22.3-.3-.5-.2-1.1 0-1.5 1.5-2.8 4.2-5.4 6.6-6.5.4-.2.9-.1 1.2 0z"/></clipPath><path d="m54.8 85.4c-.4.5-.5 1.2-.1 1.7 2.3 2.7 9.5 11.3 10.7 13 1.4 1.8 0 3.1-.8 3.9-27.1 27.4-47 20.6-53.4 19.4-4.1-.8-6-2.8-6.6-6.7-1.2-8.3-5.1-27.7 21.3-53 1.4-1.3 2.9-1.2 4-.3.9.7 9.6 8.8 12.1 11.2.4.4 1 .3 1.4 0 .9-.9 2.5-2.5 3.2-3.1 3.6-3.1 14.7 7.6 11 11.1-.7.7-2 2-2.8 2.8z" fill="#82aec0"/><path clip-path="url(#a)" d="m28.3 61.4-1.8 3.5c-.3.6-.2 1.4.3 1.9l13.8 13.4c.4.4.4 1 0 1.3l-2.4 2.3c-.4.4-1 .4-1.4 0l-13.9-13.7c-1-1-1.2-2.6-.3-3.8l4.1-5.8zm30.1 20.5c-1.6 1.6-4.5 1.9-6.6.2-.3-.3-.8-.2-1.1 0-4.2 3.9-21.2 19.5-21.7 20-.6.6-.1 1.3.6.8 9.8-7.3 17.5-8.4 18.8-6.9 2 2.2 7.3 8.3 9.1 10.3.3.3.3.8 0 1.1-6.4 6.2-17.5 14.8-33.8 17.6-1.4.2-1 1.3-.3 1.3s18.4 0 18.4 0l28.4-26.1-7 2.7c-.7.3-1.4.1-1.9-.4-2.6-2.8-10.7-11.7-12.9-14-.3-.3-.3-.7 0-1 .8-.8 2.1-1.1 8.5-1.4 1.7-.1 1.5-4.2 1.5-4.2z" fill="#2f7889"/><path d="m84.6 34.9s-34.8 35.4-36.1 36.8c-2.6 2.8 6 11.6 8.9 8.9 2-1.8 37.4-35.8 37.4-35.8z" fill="#a06841"/><path clip-path="url(#b)" d="m86.5 56.3c-4.5-4.2-6.3-14.2-1.8-21.1l11.1 11z" fill="#7d5133"/><path d="m87.8 30.4s-3.3 3.3-4.4 4.4c-3 3.1 8.2 14.3 11.3 11.3 1-1 3.1-3 4-3.9 4.7 4.2 10.2 3 13.3 1.5 4.8-2.3 14.8-10.7 13.1-13.2-.4-.6-1.3-1.6-1.3-1.6s-.8-.8-1.8.1c0 0-8.7 7.9-10.2 9-2.2 1.6-5.3 1.9-8.1 0-2.6-1.7-9.3-9.2-11.4-12.2-1.7-2.5-2.8-5-.9-7.7 1.5-2 9.9-10.2 10.5-11 .9-1 .8-2 .2-2.6-.4-.5-.9-.9-1.5-1.3-1.7-1.5-11 6.7-15.1 14.3-2.8 5 .3 10.2 2.3 12.9z" fill="#82aec0"/><path clip-path="url(#c)" d="m86.9 46.1 6.9-6.5c.5-.5 1.2-.5 1.7 0l3.3 2.7.7 2.6-6.7 6.6zm16.5-41.4c-3.5-2.2-13.1 9.7-14.7 12.4-1.3 2.2-1.4 5.6.3 8.9 2.2 4.2 8.1 11.1 13.2 14.2 3 1.8 6.5 1.7 9 .4 3.2-1.6 13.4-9.9 12.2-12.7s-20-23.2-20-23.2z" fill="#2f7889"/><path d="m100.9 6.4c7 3.7 17.9 16.7 21.2 22.8.2.4.2.8 0 1.1-1.4 2.4-4.1 4.7-7 6.5-.5.3-1.1.3-1.6-.1-6.1-4.2-16-14.4-20.4-22.3-.3-.5-.2-1.1 0-1.5 1.5-2.8 4.2-5.4 6.6-6.5.4-.2.9-.1 1.2 0z" fill="#a06841"/><path clip-path="url(#d)" d="m104.5 7.2c-2.5.4-9.3 5.1-8.6 12.6-4.4-2.2-7.2-6.3-7.2-6.3l11.2-10.9z" fill="#7d5133"/></svg>