<svg enable-background="new 0 0 128 128" viewBox="0 0 128 128" xmlns="http://www.w3.org/2000/svg" xmlns:xlink="http://www.w3.org/1999/xlink"><linearGradient id="a" gradientUnits="userSpaceOnUse" x1="42.08" x2="83.81" y1="34.55" y2="48.06"><stop offset="0" stop-color="#fff9c4" stop-opacity=".1"/><stop offset=".001516624" stop-color="#fff9c4" stop-opacity=".1"/><stop offset=".3781" stop-color="#fffca6" stop-opacity=".26"/><stop offset=".7007" stop-color="#fffe94" stop-opacity=".4"/><stop offset=".93" stop-color="#ffff8d" stop-opacity=".5"/></linearGradient><linearGradient id="b" gradientUnits="userSpaceOnUse" x1="102.03" x2="91.14" y1="57.3" y2="42.94"><stop offset=".1096" stop-color="#fff9c4" stop-opacity="0"/><stop offset="1" stop-color="#ffff8d"/></linearGradient><path d="m81.13 29.99-18.34.18 15.68-8.55-3.71-13.24 10.41 7.9 10.47-8.01-2.75 10.78 17.26 1.98-17.96 7-7.16 12.5z" fill="#ffe36c"/><path d="m92.27 13.37-.76 2.96-1.13 4.45 4.56.52 6.94.79-9.76 3.81-1.32.51-.7 1.23-4.68 8.17-1.92-5.2-.98-2.65-2.82.04-8.91.09 7.24-3.95 2.8-1.53-.86-3.07-1.67-5.96 4.44 3.37 2.43 1.84 2.42-1.85zm-7.11.39-12.67-9.61c-.41-.31-.98.08-.84.57l4.46 15.91-19.44 10.6c-.49.27-.3 1.01.26 1l22.81-.23 4.5 12.17c.16.43.74.47.97.08l8.37-14.62 22.82-8.9c.52-.2.42-.97-.13-1.03l-20.87-2.38 3.22-12.65c.13-.49-.44-.87-.84-.56z" fill="#ff8f00"/><path d="m94.59 44.29c-1.27-.18-7.6 6.13-12.17 2.17 0 0-.01.01-.01.01-2.63-2.13-5.53-3.99-8.72-5.51-21.75-10.37-47.8-1.15-58.18 20.61-10.37 21.75-1.15 47.8 20.61 58.18 21.75 10.37 47.8 1.15 58.18-20.61 3.37-7.06 4.67-14.57 4.14-21.85-.04-.51-.13-1.64.12-2.48 1.71-5.74 7.93-8.6 7.8-8.87-.13-.28-10.49-21.47-11.77-21.65z" fill="#4d4d4d"/><ellipse cx="100.46" cy="55.12" fill="#757575" rx="5.83" ry="12.33" transform="matrix(.8667 -.4988 .4988 .8667 -14.1 57.45)"/><ellipse cx="102.35" cy="55.1" fill="#212121" rx="2.29" ry="3.52" transform="matrix(.866 -.5 .5 .866 -13.84 58.56)"/><path d="m53.9 52.57c2.74 7.78-1.27 12.42-6.46 15.39-2.48 1.42-5.36 2.04-7.87 3.41-4.88 2.66-7.84 7.79-12.09 11.36-1.06.89-2.27 1.71-3.65 1.86-1.84.2-3.64-.88-4.74-2.37-1.09-1.5-5.56-15.72 10.76-30.27 7.29-6.5 21.05-7.91 24.05.62z" fill="#757575" opacity=".9"/><path d="m41.86 38.72c3.69.12 11.23.17 20.77 3.92 3.21 1.26 5.92 3.02 8.83 4.82 2.35 1.45 5.02 2.66 7.77 2.4.97-.09 2.04-.47 2.42-1.37.23-.56.21-1.13.01-1.69-.24-.66-1.06-1.58-2.32-2.61-1.77-1.19-3.65-2.28-5.64-3.23-10.36-4.94-21.69-5.43-31.84-2.24z" fill="url(#a)"/><path d="m102.13 47.64c-.05-.05-.1-.11-.15-.16-.01-.01-.01-.02-.02-.02-.23-.23-.46-.45-.69-.67-.03-.03-.07-.06-.1-.1-2.53-2.29-5.12-3.26-6.86-2.27-2.79 1.6-2.3 7.69 1.1 13.59.73 1.26 1.53 2.41 2.37 3.43-.1-.29-3.84-11.52-1.51-14.53 1.99-2.54 5.51.43 5.86.73z" fill="url(#b)"/><path d="m88.16 74.53c-2.42-1.59-4.79-3.75-6.26-9.18-.19-.69-.83-4.12 1.02-4.67 1.6-.48 2.79 2.15 4.17 4.46 1.5 2.53 3.93 4.72 6.54 6.15.76.41 4.29 2 1.97 4.22-1.53 1.45-6.02-.04-7.44-.98z" fill="#212121"/><path d="m100.85 53.44c.1-.04 10.25-4.65 9.37-11.34-.58-4.42-2.3-6.62-11.4-8.78-8.9-2.11-13.25-6.24-13.43-6.42-.89-.86-.92-2.29-.05-3.19.86-.89 2.28-.92 3.18-.06.07.06 3.77 3.48 11.35 5.28 8.82 2.09 13.79 4.72 14.83 12.57 1.16 8.78-8.52 14.25-11.29 15.7-1.72.91-3.7-3.26-2.56-3.76z" fill="#c69461"/><path d="m88.5 23.66c-.89-.86-2.32-.83-3.18.06-.86.9-.84 2.32.05 3.19.13.13 2.5 2.37 7.25 4.39l.95-1.66 3.66-1.43c-5.81-1.86-8.67-4.5-8.73-4.55z" fill="#f6bc41"/></svg>