<svg enable-background="new 0 0 128 128" viewBox="0 0 128 128" xmlns="http://www.w3.org/2000/svg"><g stroke-width=".91" transform="matrix(1.0933 0 0 1.0933 -4.47 -9.94)"><path d="m51.91 53.87h-.01c-.29-.05-6.1-1.1-13.08-1.37-7.83-.3-14.21.24-19.06.6-5.38.4-7.86.02-9.19-.63-1.25-.63-1.17-1.42-1.17-1.42-.4-1.68 4.3-13.2 15.06-19.16 7.08-3.92 18-7.51 30.81-7.55 2.91-.02 5.89.17 8.88.59 6.7.93 10.55-1.31 14.98-4.34 4.16-2.85 9.04-6.63 16.55-6.55 3.02.03 6.44.93 8.77 2.15 2.32 1.21 3.23 2.55 1.34 3.31-2.19.88-6.86 2.66-10.24 6.03-3.26 3.26-4.43 7.14-.47 11.19.51.52 1.08 1.08 1.7 1.69 5.65 5.57 17.15 17.23 17.89 34.88.36 8.97-2.22 18.18-8.37 26.37 5.6 4.24 6.87 11.85 6.09 19.96-2.08-2.96-10.22-3.93-13.1-10.67-4.5 1.6-9.08.43-18.18.91 2.31-6.32 10.77-10.71 16.94-12.24 1.62-.4 5.5-8.11 1.79-18.35-1.65-5.02-5.03-9.67-9.48-12.62-3.26-2.15-6.39-3.74-9.09-4.89-8.8-4.01-14.78-4.83-14.78-4.83" fill="#4b4a56" stroke-width="1.43"/><g fill="#f0ebe1" stroke-width="5.63" transform="matrix(-.2539 0 0 .2539 134.23 -27.83)"><path d="m407.75 272.98c-5.4-10.81-30.49-29.37-81.35-23.76 0 0 11.2 16.09 31.7 22.22 20.2 6.04 49.65 1.54 49.65 1.54z"/><path d="m324.49 321.67c.46-1.03.92-2.06 1.39-3.09 0 0 18.37-3.25 40.58-4.61 25.27-1.55 44.96-.63 60.72-.14 26.67.82 31.24-4.5 31.92-6.98-16.96-2.12-37.14-8.68-57.95-12.6-20.91-3.95-42.03-5.19-58.88 1.74-10.84 4.46-9.47 14.33-17.78 25.69z"/></g><g stroke-width="1.43"><path d="m66.85 52.9s-.57 3.69-1.42 7.48c-.85 3.78-1.97 7.67-2.64 8.17-.53.4-2.02-1.62-4.12-4.52-1.74-2.41-5.2-7.2-6.79-9.94-1-1.69-1.71-3.25-1.8-4.5-.08-1.11.93-1.83 2.55-2.13 4.41-.79 11.98 1.56 14.22 5.44z" fill="#6b676e"/><path d="m73.27 58.78c3.48-1.74 7.42-2.4 11.32-2 5.79.49 10.89 3.37 13.71 6.74 2.12 2.54 3.58 5.66 4.24 8.56.65 2.86.46 5.2-.23 6.21-.3.45-.7.63-1.2.49-.42-.12-.9-.47-1.47-1.08-1.25-1.34-2.78-4.31-4.83-6.97-2.08-2.7-4.5-4.95-6.42-5.32-2.53-1.53-4.95-2.72-7.11-3.64-2.98-1.35-5.82-2.31-8.01-2.98z" fill="#f0ebe1"/><path d="m91.83 44.4c-12.39-9.67-26.69-12.67-37.38-12.89-18.11-.37-30.47 6.34-36.53 10.91-6.55 4.94-8.47 8.95-8.47 8.95-.06-.19-.05-.32-.05-.32-.4-1.68 4.3-13.2 15.06-19.16 7.08-3.92 18-7.51 30.81-7.55 2.91-.02 5.89.17 8.88.59 6.7.93 10.55-1.3 14.98-4.34 4.16-2.85 9.04-6.63 16.55-6.55 3.02.03 6.44.93 8.77 2.15 2.32 1.21 3.23 2.55 1.34 3.31-2.19.88-6.86 2.66-10.24 6.03-3.26 3.26-4.43 7.14-.47 11.19.51.52 1.08 1.08 1.7 1.69 5.65 5.57 17.16 17.23 17.89 34.88.36 8.97-2.22 18.18-8.37 26.37-1.27-3.04-.78-5.24.34-8.74.97-3.06 2.93-8.43 2.59-15.43-.32-7.88-3.58-19.97-16.75-30.59-.21-.17-.42-.34-.64-.5z" fill="#5f5b62"/></g><path d="m32.07 41.75c.07 1.12-.98 2.11-2.35 2.22s-2.56-.7-2.66-1.83c-.1-1.12.95-2.14 2.35-2.24 1.4-.11 2.58.73 2.66 1.85z"/></g></svg>