<?xml version="1.0" encoding="UTF-8" standalone="no"?>
<svg
   id="emoji"
   viewBox="0 0 72 72"
   version="1.1"
   sodipodi:docname="u1FAA7.svg"
   inkscape:version="1.1.2 (b8e25be833, 2022-02-05)"
   xmlns:inkscape="http://www.inkscape.org/namespaces/inkscape"
   xmlns:sodipodi="http://sodipodi.sourceforge.net/DTD/sodipodi-0.dtd"
   xmlns="http://www.w3.org/2000/svg"
   xmlns:svg="http://www.w3.org/2000/svg">
  <defs
     id="defs21" />
  <sodipodi:namedview
     id="namedview19"
     pagecolor="#ffffff"
     bordercolor="#666666"
     borderopacity="1.0"
     inkscape:pageshadow="2"
     inkscape:pageopacity="0.0"
     inkscape:pagecheckerboard="0"
     showgrid="true"
     showguides="true"
     inkscape:guide-bbox="true"
     inkscape:snap-bbox="true"
     inkscape:snap-bbox-midpoints="true"
     inkscape:snap-object-midpoints="true"
     inkscape:bbox-nodes="true"
     inkscape:zoom="9.9861111"
     inkscape:cx="21.980529"
     inkscape:cy="41.057024"
     inkscape:window-width="1680"
     inkscape:window-height="998"
     inkscape:window-x="-8"
     inkscape:window-y="-8"
     inkscape:window-maximized="1"
     inkscape:current-layer="emoji"
     inkscape:snap-smooth-nodes="true">
    <inkscape:grid
       type="xygrid"
       id="grid840" />
    <sodipodi:guide
       position="36,44"
       orientation="1,0"
       id="guide1362" />
    <sodipodi:guide
       position="35,61"
       orientation="0,-1"
       id="guide1364" />
    <sodipodi:guide
       position="39,65"
       orientation="0,-1"
       id="guide1448" />
    <sodipodi:guide
       position="39,7"
       orientation="0,-1"
       id="guide1450" />
    <sodipodi:guide
       position="61,52"
       orientation="1,0"
       id="guide1452" />
  </sodipodi:namedview>
  <rect
     style="fill:#c17d11;stroke:#8f5902;stroke-width:1.99998;stroke-linecap:square;stroke-linejoin:miter;stroke-miterlimit:4;stroke-dasharray:none;stop-color:#000000"
     id="rect958"
     width="6"
     height="56.000008"
     x="33"
     y="7.99999" />
  <rect
     style="fill:#eeeeec;stroke:#888a85;stroke-width:2;stroke-linecap:square;stroke-linejoin:miter;stroke-miterlimit:4;stroke-dasharray:none;stop-color:#000000"
     id="rect868"
     width="48"
     height="30.000002"
     x="12"
     y="11.999999" />
  <path
     style="fill:none;stroke:#000000;stroke-width:2;stroke-linecap:round;stroke-linejoin:miter;stroke-miterlimit:4;stroke-dasharray:none;stroke-opacity:1"
     d="m 22,23 c 1.586367,-1.720928 2.092328,-4 4,-4 2,0 3.451739,4 6,4 1,0 2.076185,-5 3,-5 1,0 3,5 4,5 2,0 3,-4 5,-4 0.630124,0 0,2.999439 2,3 1.999594,5.6e-4 2,-4 4,-4 1,0 1.603409,3.329539 2,4"
     id="path1731"
     sodipodi:nodetypes="csssssssc" />
  <path
     style="fill:none;stroke:#000000;stroke-width:2;stroke-linecap:round;stroke-linejoin:miter;stroke-miterlimit:4;stroke-dasharray:none;stroke-opacity:1"
     d="m 22,34 c 1.716205,-2.116762 3,-4 4,-4 1.531617,0 -1,6 1,6 1,0 4,-6 5,-6 1,0 0.262471,4 3,4 3,0 4,-4 5,-4 1,0 0.803898,4 2,4 2,0 3,-4 5,-4 1,0 3,2 4,3"
     id="path1733"
     sodipodi:nodetypes="csszssssc" />
</svg>
