<svg height="64" viewBox="0 0 64 64" width="64" xmlns="http://www.w3.org/2000/svg"><g stroke-width="2"><path d="m29 3h6v58h-6z" fill="#986a44" stroke="#63452c" stroke-linecap="square"/><path d="m7 7h50v32h-50z" fill="#f6f5f4" stroke="#77767b" stroke-linecap="square"/><g fill="none" stroke="#241f31" stroke-linecap="round"><path d="m17 19c2-2 2-4 4-4s4 4 6 4c1 0 3-5 4-5s3 5 4 5c2 0 3-4 5-4 1 0-.06 3 2 3 2 0 2.06-4.1 4.12-4.1 1.03 0 1.47 3.41 1.88 4.1"/><path d="m17 30c1-2 2.97-4 4-4 1.58 0-1.06 6 1 6 1.03 0 4-6 5-6s0 4 3 4c2 0 4-4 5-4s1 4 2 4c2 0 4-4 6-4 1 0 3 3 4 4"/></g></g></svg>