<?xml version="1.0" encoding="UTF-8" standalone="no"?>
<!-- Created with Inkscape (http://www.inkscape.org/) -->

<svg
   width="64"
   height="64"
   viewBox="0 0 64 64"
   version="1.1"
   id="svg839"
   inkscape:version="1.2.1 (9c6d41e410, 2022-07-14)"
   sodipodi:docname="u1fabf.svg"
   xml:space="preserve"
   xmlns:inkscape="http://www.inkscape.org/namespaces/inkscape"
   xmlns:sodipodi="http://sodipodi.sourceforge.net/DTD/sodipodi-0.dtd"
   xmlns="http://www.w3.org/2000/svg"
   xmlns:svg="http://www.w3.org/2000/svg"><sodipodi:namedview
     id="namedview841"
     pagecolor="#ffffff"
     bordercolor="#666666"
     borderopacity="1.0"
     inkscape:pageshadow="2"
     inkscape:pageopacity="0.0"
     inkscape:pagecheckerboard="0"
     inkscape:document-units="px"
     showgrid="true"
     units="px"
     showguides="true"
     inkscape:guide-bbox="true"
     inkscape:zoom="11.313708"
     inkscape:cx="26.870058"
     inkscape:cy="31.466252"
     inkscape:window-width="1680"
     inkscape:window-height="998"
     inkscape:window-x="-8"
     inkscape:window-y="-8"
     inkscape:window-maximized="1"
     inkscape:current-layer="layer1"
     inkscape:snap-grids="true"
     inkscape:snap-bbox="true"
     inkscape:snap-bbox-midpoints="true"
     inkscape:bbox-nodes="true"
     inkscape:snap-smooth-nodes="true"
     scale-x="1"
     inkscape:snap-bbox-edge-midpoints="true"
     inkscape:lockguides="true"
     inkscape:snap-global="true"
     inkscape:object-paths="true"
     inkscape:snap-center="true"
     inkscape:showpageshadow="2"
     inkscape:deskcolor="#d1d1d1"><sodipodi:guide
       position="2,64"
       orientation="-1,0"
       id="guide900"
       inkscape:label="minX"
       inkscape:locked="true"
       inkscape:color="rgb(0,0,255)" /><inkscape:grid
       type="xygrid"
       id="grid902" /><sodipodi:guide
       position="62,64"
       orientation="-1,0"
       id="guide904"
       inkscape:label="maxX"
       inkscape:locked="true"
       inkscape:color="rgb(0,0,255)" /><sodipodi:guide
       position="-5,62"
       orientation="0,1"
       id="guide906"
       inkscape:label="minY"
       inkscape:locked="true"
       inkscape:color="rgb(0,0,255)" /><sodipodi:guide
       position="-5,2"
       orientation="0,1"
       id="guide908"
       inkscape:label="maxY"
       inkscape:locked="true"
       inkscape:color="rgb(0,0,255)" /><sodipodi:guide
       position="-5,58"
       orientation="0,1"
       id="guide1009"
       inkscape:label="minSqY"
       inkscape:locked="true"
       inkscape:color="rgb(0,0,255)" /><sodipodi:guide
       position="-5,6"
       orientation="0,1"
       id="guide1091"
       inkscape:label="maxSqY"
       inkscape:locked="true"
       inkscape:color="rgb(0,0,255)" /><sodipodi:guide
       position="6,64"
       orientation="-1,0"
       id="guide1093"
       inkscape:label="minSqX"
       inkscape:locked="true"
       inkscape:color="rgb(0,0,255)" /><sodipodi:guide
       position="58,64"
       orientation="-1,0"
       id="guide1095"
       inkscape:label="maxSqX"
       inkscape:locked="true"
       inkscape:color="rgb(0,0,255)" /><sodipodi:guide
       position="32,64"
       orientation="-1,0"
       id="guide1097"
       inkscape:label="midX"
       inkscape:locked="true"
       inkscape:color="rgb(0,0,255)" /><sodipodi:guide
       position="-5.0000001,32"
       orientation="0,1"
       id="guide1099"
       inkscape:label="midY"
       inkscape:locked="true"
       inkscape:color="rgb(0,0,255)" /><sodipodi:guide
       position="57,64"
       orientation="-1,0"
       id="guide832"
       inkscape:label=""
       inkscape:locked="true"
       inkscape:color="rgb(229,165,10)" /><sodipodi:guide
       position="7,64"
       orientation="-1,0"
       id="guide834"
       inkscape:label=""
       inkscape:locked="true"
       inkscape:color="rgb(229,165,10)" /><sodipodi:guide
       position="-5,57"
       orientation="0,1"
       id="guide836"
       inkscape:label=""
       inkscape:locked="true"
       inkscape:color="rgb(229,165,10)" /><sodipodi:guide
       position="-5,7"
       orientation="0,1"
       id="guide838"
       inkscape:label=""
       inkscape:locked="true"
       inkscape:color="rgb(229,165,10)" /></sodipodi:namedview><defs
     id="defs836" /><g
     inkscape:label="Layer 1"
     inkscape:groupmode="layer"
     id="layer1"><path
       style="fill:#e66100;stroke:none;stroke-width:1px;stroke-linecap:butt;stroke-linejoin:miter;stroke-opacity:1"
       d="m 19.963563,59 c -2.12132,0 -2,3 -2,3 h 12 c 0.664384,0 1,-0.467832 1,-1 l -1,-9 h -2 l -2,7 z"
       id="path3804"
       sodipodi:nodetypes="cccccccc" /><path
       style="fill:none;stroke:#c64600;stroke-width:2;stroke-linecap:round;stroke-linejoin:miter;stroke-dasharray:none;stroke-opacity:1"
       d="m 27.963563,52 c 0,3 0.306204,4.61279 -0.890625,6.578125 C 26.184785,60.036578 19.963563,60 19.963563,60"
       id="path3802"
       sodipodi:nodetypes="csc" /><path
       id="path3800"
       style="fill:#9a9996;stroke:none;stroke-width:1px;stroke-linecap:butt;stroke-linejoin:miter;stroke-opacity:1"
       d="m 32,38 c 0,0 5,2.000003 5,5 0,1 -0.03657,3.964083 -2,6 -1.628274,1.688391 -5,0.922876 -5,3 h -3 l -2,-5 3.255859,0.361328 z"
       sodipodi:nodetypes="cssccccc" /><path
       style="fill:#9a9996;stroke:#5e5c64;stroke-width:2;stroke-linecap:round;stroke-linejoin:round;stroke-dasharray:none;stroke-opacity:1"
       d="m 41,37 c -2,-1 -7.87868,-5.292893 -10,-6 -3,-1 -7,-2 -10,-3 -2.090143,-0.696714 -2,-3.843406 -2,-5 0,-3 2,-9 2,-13 0,-4.8509515 -2,-7 -5,-7 -3,0 -4,2 -5,3 -1.546796,1.3258252 -0.767767,0.5415923 1,2 1,0 4,2 4,4 0,4 -0.80437,7.050291 -3,11 -1.751832,3.151362 -1.956687,6.247703 -2,8 -0.264454,7.607949 5.724907,13.921402 13,16 3,1 3,2 4,5"
       id="path3431"
       sodipodi:nodetypes="csssssccssccc" /><path
       style="fill:#deddda;stroke:none;stroke-width:1px;stroke-linecap:butt;stroke-linejoin:miter;stroke-opacity:1"
       d="m 34,49 h 11 l 8,3 -6,-5 -11,-5 z"
       id="path3935"
       sodipodi:nodetypes="cccccc" /><path
       style="fill:#ff7800;stroke:none;stroke-width:1px;stroke-linecap:butt;stroke-linejoin:miter;stroke-opacity:1"
       d="m 13,5 c 0,0 0,2.0537472 0,3.0268736 C 13,8.5138641 12.697165,9.0255761 11.936777,9.074563 9.848034,9.1497934 7.959987,8.7839948 6,8 L 7,6 Z"
       id="path3808"
       sodipodi:nodetypes="cscccc" /><path
       style="fill:#9a9996;stroke:none;stroke-width:1px;stroke-linecap:butt;stroke-linejoin:miter;stroke-opacity:1"
       d="m 33,44 c 8,1 17,4 22,7 -1,-2 -3,-4 -4,-5 l 6,3 -8,-7 -8,-5 z"
       id="path3559"
       sodipodi:nodetypes="ccccccc" /><path
       style="fill:none;stroke:#3d3846;stroke-width:2;stroke-linecap:round;stroke-linejoin:miter;stroke-dasharray:none;stroke-opacity:1"
       d="m 41,37 c 4,2 7,4 8,5 1,1 7,6 8,7"
       id="path3561"
       sodipodi:nodetypes="csc" /><circle
       style="opacity:1;fill:#000000;stroke:none;stroke-width:2;stroke-linecap:round;stroke-linejoin:round;stroke-dasharray:none;stop-color:#000000"
       id="path3640"
       cx="-15"
       cy="6"
       r="1"
       transform="scale(-1,1)" /><path
       style="fill:none;stroke:#e66100;stroke-width:2;stroke-linecap:round;stroke-linejoin:miter;stroke-dasharray:none;stroke-opacity:1"
       d="M 12,5 C 12,5 7,7 6,7"
       id="path3806"
       sodipodi:nodetypes="cc" /><path
       style="fill:#f6f5f4;stroke:#c0bfbc;stroke-width:2;stroke-linecap:round;stroke-linejoin:miter;stroke-dasharray:none;stroke-opacity:1"
       d="m 34,49 c 5.237437,-0.972272 14,1 19,4"
       id="path3933"
       sodipodi:nodetypes="cc" /><path
       style="fill:none;stroke:#3d3846;stroke-width:1;stroke-linecap:round;stroke-linejoin:miter;stroke-dasharray:none;stroke-opacity:1"
       d="M 49,46 C 47,44 38,38 35,37"
       id="path6841"
       sodipodi:nodetypes="cc" /><path
       style="fill:none;stroke:#3d3846;stroke-width:1;stroke-linecap:round;stroke-linejoin:miter;stroke-dasharray:none;stroke-opacity:1"
       d="M 45,45.5 C 42,43 36,40 33,39"
       id="path6843"
       sodipodi:nodetypes="cc" /><path
       style="fill:none;stroke:#3d3846;stroke-width:1px;stroke-linecap:round;stroke-linejoin:miter;stroke-opacity:1"
       d="m 32,33.5 c -0.48144,1.79676 -2.071922,3.46967 -4,5"
       id="path8297"
       sodipodi:nodetypes="cc" /><path
       style="fill:none;stroke:#3d3846;stroke-width:1px;stroke-linecap:round;stroke-linejoin:miter;stroke-opacity:1"
       d="m 29,32.5 c 0,1 -1.690641,3.204505 -4,5"
       id="path8299"
       sodipodi:nodetypes="cc" /><path
       style="fill:none;stroke:#3d3846;stroke-width:1px;stroke-linecap:round;stroke-linejoin:miter;stroke-opacity:1"
       d="m 26,31.5 c -0.648232,2.322407 -3.285904,4.451418 -4,5"
       id="path8301" /><path
       style="fill:none;stroke:#3d3846;stroke-width:1px;stroke-linecap:round;stroke-linejoin:miter;stroke-opacity:1"
       d="m 23,30.5 c 0,1 -1,2 -2,3"
       id="path9029" /></g></svg>
