<?xml version="1.0" encoding="UTF-8" standalone="no"?>
<svg
   width="500"
   height="1000"
   id="svg2241"
   sodipodi:version="0.32"
   inkscape:version="1.4.2 (f4327f4, 2025-05-13)"
   sodipodi:docname="13025.svg"
   inkscape:output_extension="org.inkscape.output.svg.inkscape"
   sodipodi:modified="true"
   version="1.1"
   xmlns:inkscape="http://www.inkscape.org/namespaces/inkscape"
   xmlns:sodipodi="http://sodipodi.sourceforge.net/DTD/sodipodi-0.dtd"
   xmlns="http://www.w3.org/2000/svg"
   xmlns:svg="http://www.w3.org/2000/svg"
   xmlns:rdf="http://www.w3.org/1999/02/22-rdf-syntax-ns#"
   xmlns:cc="http://creativecommons.org/ns#"
   xmlns:dc="http://purl.org/dc/elements/1.1/">
  <metadata
     id="metadata2248">
    <rdf:RDF>
      <cc:Work
         rdf:about="">
        <dc:format>image/svg+xml</dc:format>
        <dc:type
           rdf:resource="http://purl.org/dc/dcmitype/StillImage" />
      </cc:Work>
    </rdf:RDF>
  </metadata>
  <defs
     id="defs2246" />
  <sodipodi:namedview
     inkscape:window-height="998"
     inkscape:window-width="1680"
     inkscape:pageshadow="2"
     inkscape:pageopacity="0.0"
     guidetolerance="10.0"
     gridtolerance="10.0"
     objecttolerance="10.0"
     borderopacity="1.0"
     bordercolor="#666666"
     pagecolor="#ffffff"
     id="base"
     inkscape:showpageshadow="2"
     inkscape:pagecheckerboard="0"
     inkscape:deskcolor="#d1d1d1"
     showguides="true"
     inkscape:zoom="0.70710678"
     inkscape:cx="181.72644"
     inkscape:cy="526.79455"
     inkscape:window-x="-8"
     inkscape:window-y="-8"
     inkscape:window-maximized="1"
     inkscape:current-layer="svg2241">
    <sodipodi:guide
       position="0,1000"
       orientation="0,-1"
       id="guide1"
       inkscape:locked="false" />
    <sodipodi:guide
       position="500,0"
       orientation="0,-1"
       id="guide2"
       inkscape:locked="false" />
  </sodipodi:namedview>
  <path
     style="fill:#000000;stroke:none;stroke-width:1"
     d="m 319.6465,452.02344 -85.94531,17.60156 -18.63864,14.49805 c -29.68384,83.5289 -50.73831,158.42836 -63.16407,224.69922 -11.04517,51.77411 -1.38003,81.45723 28.99415,89.05078 30.37414,7.59355 68.33091,16.96488 111.13086,41.8164 15.80542,49.76489 10.80446,99.56018 -3.00196,106.8086 -13.80644,7.24835 -39.09743,15.51179 -56.35547,19.30859 -17.25807,3.79676 -28.99219,3.7846 -35.20507,9.65234 -6.2129,5.86769 -7.42175,10.6993 -3.625,14.4961 3.79679,3.79674 8.11113,6.73203 12.94336,8.80273 h 82.83789 c 12.42576,-4.14187 21.9185,-4.83374 28.47656,-2.07226 6.55806,2.76195 14.84188,3.79785 24.85156,3.10742 10.00962,-0.69036 15.01367,-8.28448 15.01367,-22.78125 -10.3548,-31.06446 -16.73829,-81.91531 -4.3125,-108.83789 14.49675,12.42586 41.62166,38.16185 33.67774,72.19726 -3.81965,42.34694 -22.52664,14.75565 -26.77539,47.49805 -0.62382,17.76166 12.50525,12.12703 32.61718,4.80664 21.39998,-7.78919 32.09961,-32.80647 32.09961,-42.58594 0,-31.0644 2.93501,-51.42921 8.80274,-61.09375 5.86774,-9.66451 8.28351,-20.70895 7.24804,-33.13476 -1.03548,-12.42604 -14.67011,-12.82359 -40.90234,-14.89453 -15.18709,-1.38061 -37.37065,-26.81165 -47.03516,-33.71485 4.83227,-23.47093 2.58247,-31.87521 -7.08203,-70.5332 1.83743,-13.40988 -3.17704,-26.81959 13.73438,-27.89648 V 560.74805 c 6.21288,-39.34828 -0.69159,-76.28077 -20.71094,-110.79688 z m 5.17774,16.5664 c 14.49674,24.85157 20.01996,56.2608 16.56836,94.22852 V 689.14844 H 179.85744 c 9.66452,-55.22573 27.26668,-121.84131 52.80859,-199.84766 z m -85.36719,240.23243 h 33.64844 c -2.07099,17.25804 6.09353,43.38168 10.92578,55.11718 -2.76128,-2.7613 -30.49914,-15.76953 -37.40235,-15.76953 -30.97197,0 -27.88157,-13.11539 -7.17187,-39.34765 z"
     id="path6"
     sodipodi:nodetypes="ccccscsssscccsccccssssccccccccccccccccsc" />
  <path
     style="fill:#000000;stroke:none;stroke-width:1"
     d="m 341.11916,415.30273 c -1.32435,0.39767 -2.71888,0.91582 -2.79492,1.03907 l -0.002,0.002 v 0.002 l -0.002,0.002 v 0.002 0.002 0.002 l 0.002,0.002 0.002,0.002 v 0.002 h 0.002 c 0.021,0.0116 0.0879,0.0109 0.20703,-0.008 0.85961,-0.13518 1.69908,-0.36954 2.53516,-0.61914 0.0167,-0.1435 0.0339,-0.28582 0.0508,-0.42969 z"
     id="path5" />
  <path
     style="fill:#000000;stroke:none;stroke-width:1"
     d="m 231.41603,125.50977 c -2.79094,0.0944 -5.47966,0.89618 -8.06836,2.40625 l -7.24804,5.17773 v 5.17773 h 3.10547 c 9.66451,5.52257 20.36416,5.86743 32.09961,1.03516 l 11.39062,3.10742 v -6.21289 l -11.39062,-1.03711 c -7.11895,-6.64434 -13.7486,-9.86193 -19.88868,-9.65429 z m -1.85547,3.4414 c -2.07097,2.76127 -2.07097,5.17907 0,7.25 -3.45159,-0.69033 -5.86743,-1.38193 -7.24804,-2.07226 1.38063,-1.38065 3.79646,-3.10675 7.24804,-5.17774 z m 9.31836,2.07227 8.28516,5.17773 c -4.14192,0.69028 -7.93902,1.03516 -11.39062,1.03516 3.45171,-1.38066 4.48606,-3.45161 3.10546,-6.21289 z"
     id="path9" />
  <path
     style="fill:#000000;stroke:none;stroke-width:1"
     d="m 286.31838,59.865234 c -6.16969,0.06458 -12.49113,0.485111 -18.96289,1.261719 -25.88705,3.106429 -44.6981,21.572689 -56.4336,55.398437 -6.90321,8.28387 -14.4974,18.98545 -22.78125,32.10156 -4.14195,8.97415 -4.14195,14.15058 0,15.53125 4.14193,1.38062 7.24934,3.10675 9.32032,5.17774 -2.98002,1.78802 -10.91675,7.43618 4.14062,9.31836 -0.58804,1.17491 -11.02,4.11612 -5.17773,7.76758 2.76128,1.72577 4.14257,6.72983 4.14257,15.01367 0,8.28389 3.10744,13.11546 9.32032,14.49609 6.21291,1.38066 13.28787,1.20824 21.22656,-0.51758 7.9387,-1.7258 11.39096,1.38158 10.35547,9.32032 l 16.04906,1.55243 c -1.38066,-19.32897 -9.83691,-27.78527 -25.36914,-25.36914 -15.53224,2.41612 -21.91752,-2.24308 -19.15625,-13.97852 10.35483,-5.52259 14.1519,-9.49205 11.39062,-11.9082 -2.76129,-2.41614 -8.28453,-4.31471 -16.56836,-5.69531 0.6903,-3.45161 -2.75997,-7.2487 -10.35351,-11.39063 7.59354,-15.87741 15.18575,-27.26671 22.77929,-34.16992 7.59355,-3.45163 15.01531,-3.2792 22.26367,0.51758 7.24839,3.79676 14.66819,6.72981 22.26172,8.80078 v -5.17773 c -4.83223,-0.69032 -11.0451,-3.27853 -18.63867,-7.76563 -7.59353,-4.48709 -15.18579,-5.34918 -22.7793,-2.58789 2.76125,-4.14193 5.52188,-7.59417 8.28321,-10.35547 20.01929,2.07094 35.89733,7.59416 47.63281,16.56836 0,8.28383 3.62274,8.80109 10.87109,1.55273 14.80772,-14.80768 32.26885,-5.83471 22.26368,13.46094 -4.83223,9.31934 -11.21756,17.25837 -19.15625,23.81641 -7.9387,6.55808 -9.83728,13.11579 -5.69532,19.67383 4.14192,6.55809 6.55771,12.25372 7.24805,17.08593 -0.42521,6.86502 -0.006,11.58592 -0.006,18.28775 l 18.15898,-4.48836 c -0.23813,-4.63425 0.2688,-9.92481 1.52077,-15.87165 12.42581,-4.14196 24.3343,-12.7706 35.72461,-25.88672 11.39027,-13.11608 17.43074,-31.40989 18.12109,-54.88086 0.69029,-23.470894 -9.49203,-39.346981 -30.54687,-47.630859 -15.79111,-6.212881 -32.94017,-9.223033 -51.44922,-9.029297 z m -7.89649,12.232422 c 12.29635,-0.582469 26.72914,1.45556 43.29688,6.115235 22.0903,6.212898 33.13476,19.330291 33.13476,39.349609 -0.69035,20.01935 -8.62935,37.1043 -23.8164,51.25586 -15.18708,14.15161 -24.85221,17.77626 -28.99414,10.87305 -4.83223,-6.2129 -1.03517,-15.18838 11.39062,-26.92383 24.09298,-22.75456 13.53985,-57.578847 -27.95703,-38.3125 -6.90323,-7.59352 -23.12605,-13.46159 -48.66797,-17.603518 5.52259,-12.425803 15.53254,-20.190444 30.0293,-23.296874 3.62418,-0.776618 7.4852,-1.262875 11.58398,-1.457032 z M 217.13478,174.51367 c 1.24485,0.24893 5.16369,1.0356 4.14059,1.0356 h -16.56641 c -0.66625,0 -2.69469,-2.61261 1.11034,-2.72362 3.8486,0 7.53904,0.94598 11.31548,1.68802 z m 3.10547,3.10547 c -3.8976,3.8976 -11.47709,4.15508 -12.42578,4.14258 -1.85971,-0.0245 -4.15002,0.007 -1.03515,-3.10742 z"
     id="path11"
     sodipodi:nodetypes="csccsccssssccscscccsccscccssscccccsssccsscsccccsscsscccscc" />
  <path
     style="fill:#000000;stroke:none;stroke-width:1"
     d="m 303.08205,121.81641 c -1.09803,0.009 -2.30798,0.1405 -3.62695,0.40429 -11.34242,2.2685 -20.67126,20.2687 -18.1211,25.36914 -6.12745,2.45097 -10.9961,10.15852 -2.58789,13.98047 8.6595,3.93611 26.14006,-16.52166 30.02735,-24.85156 4.2004,-9.00091 1.99476,-14.9657 -5.69141,-14.90234 z m -1.31055,6.51757 c 1.96571,0.0568 2.74824,1.2977 2.34375,3.72461 -0.69031,4.14193 -2.58884,8.28385 -5.69531,12.42579 -3.10643,4.14189 -6.21385,6.73014 -9.32031,7.76562 -3.10642,1.03547 -3.10642,-0.17144 0,-3.62305 3.10646,-3.4516 3.10646,-4.83292 0,-4.14257 -3.10642,0.69032 -3.62373,-0.69096 -1.55274,-4.14258 2.07095,-3.4516 4.83161,-6.90193 8.28321,-10.35352 2.32983,-1.03549 4.17413,-1.58567 5.5332,-1.65039 0.14157,-0.007 0.27716,-0.008 0.4082,-0.004 z m -20.4375,24.4336 c 2.7613,2.07094 3.10613,3.79707 1.03516,5.17773 -2.07095,1.38061 -3.2778,1.03578 -3.62305,-1.03515 -0.34514,-2.071 0.51695,-3.45225 2.58789,-4.14258 z"
     id="path8" />
  <path
     style="fill:#000000;stroke:none;stroke-width:1"
     d="m 28.045411,0.00195324 c 4.2714,-0.06472742 7.1851,1.32624096 8.7383,4.17382806 2.071,3.7967459 1.3793,8.8027247 -2.0723,15.0156247 -6.2129,11.735487 -10.01,23.643985 -11.3906,35.72461 -1.3807,12.080625 1.0371,26.402983 7.25,42.970703 6.2129,-8.283878 8.8011,-18.811093 7.7656,-31.582031 -1.0354,-12.77094 2.2425,-18.811408 9.836,-18.121094 7.593501,32.44513 4.832901,59.022776 -8.2832,79.732426 9.6645,54.53539 18.293202,98.7172 25.886701,132.54296 56.606398,-0.69032 89.569338,-4.4874 98.888668,-11.39062 9.31937,-6.90321 26.05945,-10.70027 50.2207,-11.39063 18.70918,-0.55026 26.42456,-3.64978 26.58349,-12.94335 6.27782,-3.04313 10.12251,-2.63101 16.04906,1.55243 -0.20337,7.53601 -3.36983,14.3023 -9.16608,19.03149 -4.87462,3.97723 -11.60921,6.51368 -20.00553,6.85549 -24.84063,1.01126 -42.28137,4.65986 -52.29102,11.9082 -8.12428,12.25324 -3.11908,26.38156 11.26368,38.63477 9.4896,7.67405 19.60348,20.8679 28.7539,47.09179 1.40355,-1.79913 3.42349,-2.41665 6.06055,-1.85156 4.83225,1.03548 9.14661,3.62372 12.94336,7.76563 3.79679,4.14193 11.21853,8.11141 22.26367,11.9082 11.04517,3.79674 25.54188,4.65883 43.49023,2.58789 -6.21289,-8.28387 -15.53122,-13.28787 -27.95703,-15.01367 -12.42576,-1.7258 -17.25934,-5.35049 -14.49804,-10.87305 32.44508,-1.38067 54.88084,5.52385 67.30664,20.71094 l 12.42578,1.03515 33.78319,-100.24609 c -8.74528,-10.49432 -21.77197,-15.2197 -51.39354,-16.43516 -5.45177,-0.2237 -20.1187,-6.63076 -22.53843,-15.66133 -1.42874,-5.33211 -3.16999,-10.42281 -3.16999,-16.08282 2.76243,-4.78466 5.15704,-0.63089 6.45939,-4.1742 l 11.69959,-0.31416 c 0,21.4168 13.42365,23.13338 33.44299,22.44306 22.78062,-0.69031 35.10259,5.71657 48.21879,22.97461 13.116,17.25803 33.3387,43.17436 51.2871,68.37109 17.9483,25.19676 36.14323,55.692 52.71093,97.11133 -21.3999,6.90321 -43.14603,8.28454 -65.23633,4.14258 -20.0193,-3.4516 -48.666,-11.39063 -85.94338,-23.81641 -4.77857,27.98892 -6.85639,54.29072 -6.23437,78.9043 L 322.57645,469.6244 c 1.38063,-19.32899 3.79639,-43.14407 7.24804,-71.44727 0.69034,0 -2.41709,-1.03649 -9.32031,-3.10742 -22.0903,1.38062 -42.45506,0.001 -61.09375,-4.14062 -14.77308,-2.73575 -27.37616,-10.45964 -37.8125,-23.16992 5.72413,21.03658 14.04439,56.17642 12.10326,101.86583 l -18.63864,14.49805 C 215.75286,463.41339 209.68374,403.5507 202.4354,370.07011 195.187,336.5895 171.22456,308.12815 164.32135,308.12815 81.482712,312.96042 47.481911,311.92589 19.178811,305.02268 10.204611,269.12594 5.5435111,250.10214 5.1983111,227.32151 4.8532111,204.54094 6.7517111,170.71587 10.893611,125.84494 3.3001111,103.75468 -0.3225889,82.872616 0.0225111,63.198459 c 0.3452,-19.67419 8.1099,-40.556214 23.2968999,-62.64648451 1.7258,-0.3451663 3.3008,-0.52920546 4.7246,-0.55078125 z M 373.02203,314.14648 l -16.27542,52.9668 c 29.68382,2.76129 59.67342,8.58226 69.33792,9.96289 -14.4968,-17.94836 -37.1851,-47.05227 -53.0625,-62.92969 z"
     id="path2"
     sodipodi:nodetypes="cscscscccscccsscccssscsccccssccccsscccccccccccsccscsccccccc" />
</svg>
