<?xml version="1.0" encoding="UTF-8" standalone="no"?>
<!-- Created with Inkscape (http://www.inkscape.org/) -->

<svg
   width="16"
   height="16"
   viewBox="0 0 16 16"
   version="1.1"
   id="svg5"
   inkscape:version="1.2.2 (732a01da63, 2022-12-09)"
   sodipodi:docname="0780.svg"
   inkscape:export-filename="..\0000.png"
   inkscape:export-xdpi="96"
   inkscape:export-ydpi="96"
   xmlns:inkscape="http://www.inkscape.org/namespaces/inkscape"
   xmlns:sodipodi="http://sodipodi.sourceforge.net/DTD/sodipodi-0.dtd"
   xmlns="http://www.w3.org/2000/svg"
   xmlns:svg="http://www.w3.org/2000/svg">
  <sodipodi:namedview
     id="namedview7"
     pagecolor="#ffffff"
     bordercolor="#666666"
     borderopacity="1.0"
     inkscape:pageshadow="2"
     inkscape:pageopacity="0"
     inkscape:pagecheckerboard="0"
     inkscape:document-units="px"
     showgrid="true"
     width="16mm"
     units="px"
     inkscape:zoom="64"
     inkscape:cx="7.7109375"
     inkscape:cy="5.40625"
     inkscape:window-width="1680"
     inkscape:window-height="998"
     inkscape:window-x="-8"
     inkscape:window-y="-8"
     inkscape:window-maximized="1"
     inkscape:current-layer="layer1"
     showguides="true"
     inkscape:guide-bbox="true"
     inkscape:snap-bbox="true"
     inkscape:bbox-paths="true"
     inkscape:bbox-nodes="true"
     inkscape:snap-global="true"
     inkscape:showpageshadow="2"
     inkscape:deskcolor="#ffffff">
    <inkscape:grid
       type="xygrid"
       id="grid828"
       originx="0"
       originy="0" />
  </sodipodi:namedview>
  <defs
     id="defs2" />
  <g
     inkscape:label="Layer 1"
     inkscape:groupmode="layer"
     id="layer1">
    <path
       d="M 7.2807863,8.8793792 C 6.3940866,9.6272504 5.9507367,10.172309 5.9507367,10.514556 c 0,0.09507 0.078818,0.193305 0.2364532,0.294711 0.1642037,0.101407 0.5155995,0.269361 1.0541876,0.503864 0.6568146,0.272529 1.1297211,0.541889 1.4187196,0.80808 0.2955665,0.259854 0.4433498,0.560904 0.4433498,0.90315 0,0.621113 -0.6896554,1.270747 -2.0689661,1.948902 -1.3727427,0.684493 -2.5878498,1.026739 -3.6453213,1.026739 -0.4400659,0 -0.7816095,-0.07922 -1.0246309,-0.237671 -0.2430215,-0.158447 -0.3645322,-0.377105 -0.3645322,-0.655972 0,-0.545059 0.4564862,-0.849278 1.3694585,-0.912656 0.7422007,-0.05071 1.4679809,-0.196478 2.1773407,-0.437315 0.7159279,-0.234502 1.0738919,-0.434146 1.0738919,-0.598931 0,-0.08239 -0.055829,-0.155278 -0.1674876,-0.218657 C 6.3481095,12.88176 6.1280766,12.786691 5.7931011,12.653594 4.9523784,12.324024 4.4006541,12.032481 4.1379283,11.778965 3.8817704,11.519112 3.7536915,11.173697 3.7536915,10.74272 c 0,-0.8366021 0.9162565,-2.031295 2.7487695,-3.5840787 1.839081,-1.5527838 3.497538,-2.3291757 4.975371,-2.3291757 0.742201,0 1.34647,0.2408399 1.812808,0.7225198 C 13.763547,6.0336653 14,6.6357651 14,7.3582849 14,8.3216446 13.671593,9.129726 13.014778,9.782529 c -0.656815,0.652803 -1.573071,0.979204 -2.748769,0.979204 -0.5123155,0 -1.0410513,-0.171123 -1.5862074,-0.513369 C 8.1346453,9.9061179 7.6683069,9.4497896 7.2807863,8.8793792 Z M 8.5517226,7.8241201 c 0.223317,0.3675977 0.5188836,0.6749855 0.8866999,0.9221634 0.3743844,0.2408399 0.7192125,0.3612598 1.0344835,0.3612598 0.505747,0 0.899836,-0.1394336 1.182266,-0.4183009 0.288999,-0.2852052 0.433498,-0.6718166 0.433498,-1.1598343 0,-0.3168947 -0.0821,-0.5735793 -0.246306,-0.770054 C 11.684728,6.5628794 11.471263,6.464642 11.201969,6.464642 c -0.755336,0 -1.6387515,0.4531594 -2.6502464,1.3594781 z M 10.274165,1.0552592 c 0,-0.24717784 0.111658,-0.48484883 0.334975,-0.71301298 C 10.832457,0.11408207 11.072195,0 11.328352,0 c 0.288998,0 0.522167,0.08556155 0.699508,0.25668466 0.17734,0.17112311 0.26601,0.39611831 0.26601,0.6749856 0,0.25985364 -0.108374,0.49435564 -0.325123,0.70350604 -0.210181,0.2091505 -0.446634,0.3137258 -0.709361,0.3137258 -0.302134,0 -0.541871,-0.082393 -0.719211,-0.2471778 C 10.362837,1.536939 10.274168,1.3214507 10.274168,1.0552592 Z M 8,3.5270286 C 8,3.2798508 8.1083744,3.0421798 8.3251232,2.8140157 8.5484403,2.5858516 8.7881777,2.4717695 9.0443354,2.4717695 c 0.2955666,0 0.5320199,0.085561 0.7093598,0.2566846 0.1773399,0.1711231 0.2660098,0.3992873 0.2660098,0.6844925 0,0.2598536 -0.1083743,0.4943556 -0.3251231,0.7035061 C 9.4844012,4.3192653 9.247948,4.4206716 8.9852221,4.4206716 8.6830873,4.4206716 8.4433499,4.338279 8.2660099,4.1734937 8.08867,4.0087085 8,3.7932201 8,3.5270286 Z m 4,0 c 0,-0.2471778 0.111658,-0.4848488 0.334975,-0.7130129 0.223317,-0.2281641 0.463055,-0.3422462 0.719213,-0.3422462 0.295567,0 0.528736,0.085561 0.699507,0.2566846 0.17734,0.1711231 0.26601,0.3992873 0.26601,0.6844925 0,0.2598536 -0.10509,0.4943556 -0.31527,0.7035061 -0.210181,0.2028126 -0.446635,0.3042189 -0.709361,0.3042189 -0.302135,0 -0.545156,-0.082393 -0.729064,-0.2471779 C 12.08867,4.0087085 12,3.7932201 12,3.5270286 Z"
       id="path2269"
       style="font-size:19.7236px;line-height:1.25;font-family:'MV Boli';-inkscape-font-specification:'MV Boli';text-align:center;letter-spacing:0px;word-spacing:0px;text-anchor:middle;fill:#008000;stroke-width:1.98205"
       sodipodi:nodetypes="cscccscsssccscccscscsssscccscscsccsssscssccscsssssssssscscscs" />
  </g>
</svg>
