<?xml version="1.0" encoding="UTF-8" standalone="no"?>
<!-- Created with Inkscape (http://www.inkscape.org/) -->

<svg
   width="12"
   height="12"
   viewBox="0 0 12 12"
   version="1.1"
   id="svg5"
   inkscape:version="1.4 (86a8ad7, 2024-10-11)"
   sodipodi:docname="kawi.svg"
   inkscape:export-filename="..\0000.png"
   inkscape:export-xdpi="96"
   inkscape:export-ydpi="96"
   xml:space="preserve"
   xmlns:inkscape="http://www.inkscape.org/namespaces/inkscape"
   xmlns:sodipodi="http://sodipodi.sourceforge.net/DTD/sodipodi-0.dtd"
   xmlns="http://www.w3.org/2000/svg"
   xmlns:svg="http://www.w3.org/2000/svg"><sodipodi:namedview
     id="namedview7"
     pagecolor="#ffffff"
     bordercolor="#666666"
     borderopacity="1.0"
     inkscape:pageshadow="2"
     inkscape:pageopacity="0"
     inkscape:pagecheckerboard="0"
     inkscape:document-units="px"
     showgrid="true"
     width="16mm"
     units="px"
     inkscape:zoom="23.5625"
     inkscape:cx="-1.33687"
     inkscape:cy="14.111406"
     inkscape:window-width="1680"
     inkscape:window-height="998"
     inkscape:window-x="-8"
     inkscape:window-y="-8"
     inkscape:window-maximized="1"
     inkscape:current-layer="layer1"
     showguides="true"
     inkscape:guide-bbox="true"
     inkscape:snap-bbox="true"
     inkscape:bbox-paths="true"
     inkscape:bbox-nodes="true"
     inkscape:snap-global="true"
     inkscape:showpageshadow="2"
     inkscape:deskcolor="#ffffff"><inkscape:grid
       type="xygrid"
       id="grid828"
       originx="0"
       originy="0"
       spacingy="1"
       spacingx="1"
       units="px"
       visible="true" /></sodipodi:namedview><defs
     id="defs2" /><g
     inkscape:label="Layer 1"
     inkscape:groupmode="layer"
     id="layer1"><path
       fill="currentColor"
       d="m 1.737105,8.108456 c 0,0.77399 0.1938566,1.222634 1.3377706,1.597427 l -0.579035,1.496323 C 0.636751,10.756288 0,9.97266 0,8.068014 V 2.9926469 C 0,1.6285479 0.5877306,0 3.3943432,0 H 8.605658 C 10.281987,0 12,0.5868522 12,2.9926469 V 11 H 10.262896 V 3.1139705 c 0,-1.0260958 -0.544133,-1.5772058 -1.557404,-1.5772058 H 3.2945096 c -0.2775056,0 -1.5574046,0.018008 -1.5574046,1.5772058 z M 4.9034934,2.5073528 C 6.658732,3.1256397 7,3.7373328 7,5.338235 V 11 H 5.2628945 V 5.6011027 c 0,-1.0138136 -0.1005551,-1.3425964 -1.0582364,-1.6783087 z"
       id="path243"
       style="fill:#c01c28;fill-opacity:1;stroke-width:0.999998"
       sodipodi:nodetypes="sccsssssccssssscsccscc" /></g></svg>
