<svg xmlns="http://www.w3.org/2000/svg" xmlns:xlink="http://www.w3.org/1999/xlink" version="1.1" baseProfile="full" viewBox="0 0 200 200" width="200" height="200">
<g fill="black">
<path d="M 113.7 183.3 L 90.3 181.3 L 71.9 177.9 L 57.7 173.0 L 47.2 166.6 L 40.0 158.7 L 35.8 149.7 L 34.54630546569824 143.55689659118653 L 33.7 148.0 L 32.4 153.9 L 31.1 159.6 L 29.7 164.9 L 28.3 170.0 L 26.8 174.8 L 25.3 179.3 L 25.248028659820555 179.44551973342897 L 27.4 182.9 L 23.8 183.5 L 12.1 180.4 L 12.9 178.6 L 14.8 174.9 L 16.8 170.8 L 18.8 166.5 L 20.9 161.8 L 23.0 156.9 L 25.2 151.6 L 27.4 146.1 L 29.8 140.2 L 32.3 134.1 L 33.3450704574585 131.7112675666809 L 33.2 129.1 L 34.58876399993896 128.8685393333435 L 35.1 127.7 L 36.8 128.2 L 36.21659393310547 133.23187770843506 L 37.8 139.0 L 41.3 147.5 L 45.8 154.4 L 52.2 159.9 L 61.3 164.4 L 74.1 167.9 L 91.5 170.3 L 114.2 171.5 L 142.7 171.6 L 177.7 170.4 L 189.1 169.9 L 178.2 183.5 L 142.8 184.1 Z M 16.0 56.0 L 48.0 56.0 L 48.0 15.0 L 60.0 17.0 L 63.0 19.0 L 60.0 20.8 L 60.0 56.0 L 80.0 56.0 L 86.0 51.0 L 97.0 60.0 L 92.0 63.0 L 90.38181819915772 63.674242401123045 L 88.7 69.0 L 85.3 78.5 L 81.6 88.0 L 77.6 97.4 L 73.4 106.8 L 68.8 116.3 L 63.9 125.7 L 58.6 135.0 L 52.9 144.3 L 46.7 153.4 L 45.2 152.5 L 49.5 142.5 L 53.8 132.6 L 57.9 122.8 L 61.8 113.2 L 65.5 103.6 L 69.0 94.0 L 72.2 84.5 L 75.1 75.1 L 77.8 65.7 L 79.2709677696228 60.0 L 16.0 60.0 Z M 184.8 141.0 L 184.8 145.0 L 97.1 145.0 L 97.1 141.0 L 162.8 141.0 L 172.8 131.0 Z M 175.6 60.4 L 175.6 64.4 L 106.3 64.4 L 106.3 60.4 L 153.6 60.4 L 163.6 50.4 Z " />
</g>
</svg>
