<svg xmlns="http://www.w3.org/2000/svg" xmlns:xlink="http://www.w3.org/1999/xlink" version="1.1" baseProfile="full" viewBox="0 0 200 200" width="200" height="200">
<g fill="black">
<path d="M 65.4 176.9 L 80.3 176.9 L 81.0 176.8 L 81.6 176.5 L 82.0 176.1 L 82.2 175.6 L 82.4 174.9 L 82.6 173.8 L 82.6 63.9 L 71.2 63.9 L 71.2 167.6 L 61.2 172.6 L 61.2 63.9 L 51.0 63.9 L 51.0 167.6 L 41.0 172.6 L 41.0 63.9 L 31.4 63.9 L 31.4 182.8 L 20.4 188.3 L 20.4 54.4 L 31.4 59.9 L 46.794285678863524 59.9 L 47.5 58.0 L 48.5 54.4 L 50.5 47.6 L 52.3 41.2 L 53.1 38.1 L 53.8 35.1 L 54.21999998092652 33.0 L 14.9 33.0 L 14.9 29.0 L 84.4 29.0 L 94.4 19.0 L 106.4 29.0 L 106.4 33.0 L 66.30666666030884 33.0 L 65.0 35.8 L 63.6 38.7 L 62.0 41.6 L 60.3 44.6 L 58.5 47.5 L 56.6 50.5 L 54.6 53.5 L 52.4 56.4 L 50.0 59.3 L 49.55483875274658 59.9 L 82.6 59.9 L 88.1 54.9 L 98.6 63.9 L 93.6 67.4 L 93.6 172.4 L 93.5 174.9 L 93.2 177.2 L 92.5 179.5 L 91.5 181.6 L 90.1 183.6 L 88.3 185.2 L 86.3 186.5 L 84.0 187.3 L 81.7 187.8 L 79.4 187.9 L 79.4 182.4 L 65.4 179.7 Z M 153.5 184.0 L 143.6 181.6 L 135.2 177.5 L 128.7 171.8 L 123.8 164.8 L 120.6 156.7 L 118.6 147.5 L 118.18368711471558 142.73553075790406 L 117.3 148.6 L 116.1 155.4 L 114.8 161.6 L 113.5 167.3 L 112.2 172.4 L 110.9 177.0 L 109.72769908905029 180.78743362426758 L 111.7 184.5 L 108.2 184.9 L 96.6 181.1 L 97.5 179.3 L 99.2 176.6 L 100.9 173.2 L 102.8 169.1 L 104.7 164.5 L 106.7 159.2 L 108.7 153.4 L 110.9 147.0 L 115.7 132.6 L 117.7 126.6740740776062 L 117.7 125.8 L 118.00063695907593 125.78329792022706 L 118.4 124.6 L 120.2 124.9 L 119.9307936668396 127.76031742095947 L 121.8 136.7 L 124.3 146.2 L 126.14646291732788 150.96506547927856 L 134.4 136.4 L 139.4 127.2 L 144.1 118.0 L 148.7 108.5 L 153.1 98.9 L 157.2 89.0 L 161.2 79.0 L 164.9 68.7 L 167.05384616851808 62.3 L 104.0 62.3 L 104.0 58.3 L 138.2 58.3 L 138.2 14.6 L 150.2 16.6 L 153.2 18.6 L 150.2 20.4 L 150.2 58.3 L 168.0 58.3 L 174.0 53.3 L 185.0 62.3 L 180.0 65.3 L 178.169491481781 66.06271190643311 L 175.5 72.8 L 171.1 83.1 L 166.4 93.1 L 161.5 102.9 L 156.3 112.4 L 150.8 121.6 L 145.0 130.6 L 138.9 139.3 L 132.5 147.6 L 127.1750566482544 153.6195011138916 L 127.4 154.2 L 131.0 160.5 L 135.3 165.3 L 140.4 168.7 L 146.8 171.0 L 154.9 172.3 L 165.0 172.4 L 177.3 171.2 L 187.7 170.1 L 178.8 184.3 L 165.2 184.9 Z " />
</g>
</svg>
