<svg xmlns="http://www.w3.org/2000/svg" xmlns:xlink="http://www.w3.org/1999/xlink" version="1.1" baseProfile="full" viewBox="0 0 200 200" width="200" height="200">
<g fill="black">
<path d="M 130.1 181.7 L 111.8 180.6 L 96.7 178.8 L 84.5 176.1 L 74.7 172.6 L 66.9 168.3 L 60.8 163.3 L 56.2 157.6 L 54.044444465637206 153.8277777671814 L 54.03333330154419 153.8333333015442 L 48.2 159.5 L 44.6 162.6 L 41.1 165.6 L 37.5 168.5 L 33.9 171.3 L 30.3 174.0 L 26.8 176.7 L 23.3 179.2 L 23.219141960144043 179.2554455757141 L 23.0 183.2 L 19.8 181.6 L 12.0 172.3 L 13.7 171.3 L 17.5 169.4 L 21.3 167.6 L 25.1 165.6 L 29.0 163.6 L 33.0 161.6 L 37.0 159.5 L 43.7 156.15 L 43.7 107.0 L 13.9 107.0 L 13.9 103.0 L 43.7 103.0 L 49.7 98.0 L 60.7 107.0 L 55.7 111.0 L 55.7 151.6754716873169 L 59.3 154.8 L 64.6 158.8 L 70.5 162.1 L 77.6 164.8 L 86.7 167.0 L 98.1 168.6 L 112.5 169.6 L 130.3 169.9 L 151.9 169.5 L 177.8 168.4 L 189.1 167.9 L 178.3 181.5 L 152.1 182.0 Z M 133.8 143.4 L 131.6 140.5 L 129.2 137.7 L 126.5 134.9 L 123.5 132.1 L 120.2 129.3 L 116.7 126.5 L 114.5 124.77567567825318 L 114.5 160.0 L 102.5 166.0 L 102.5 121.72941179275513 L 99.7 125.6 L 95.9 130.1 L 91.8 134.4 L 87.4 138.6 L 82.6 142.5 L 77.4 146.3 L 71.8 149.7 L 65.8 152.9 L 64.8 151.4 L 69.5 146.7 L 73.9 142.2 L 78.1 137.7 L 81.9 133.3 L 85.4 128.8 L 88.6 124.4 L 91.4 119.9 L 93.8 115.4 L 96.0 110.9 L 96.0380952835083 110.8 L 85.1 110.8 L 85.1 117.8 L 73.1 123.8 L 73.1 71.3 L 85.1 77.3 L 102.5 77.3 L 102.5 61.2 L 65.3 61.2 L 65.3 57.2 L 102.5 57.2 L 102.5 34.9 L 114.5 36.9 L 117.5 38.9 L 114.5 40.7 L 114.5 57.2 L 130.7 57.2 L 140.7 47.2 L 152.7 57.2 L 152.7 61.2 L 114.5 61.2 L 114.5 77.3 L 130.1 77.3 L 136.1 72.3 L 147.1 81.3 L 142.1 85.3 L 142.1 110.8 L 130.1 116.8 L 130.1 110.8 L 114.5 110.8 L 114.5 120.7 L 119.1 122.3 L 123.5 124.1 L 127.6 126.2 L 131.5 128.5 L 135.1 130.9 L 138.5 133.5 L 141.7 136.3 L 144.7 139.3 L 147.4 142.4 L 148.3 146.9 L 145.8 150.8 L 141.3 151.6 L 137.4 149.2 L 135.8 146.3 Z M 168.5 151.1 L 164.5 143.3 L 161.4 133.6 L 158.9 121.7 L 157.1 107.6 L 155.8 91.2 L 155.1 72.5 L 155.0 51.4 L 155.36410255432128 30.1 L 71.6 30.1 L 71.6 26.1 L 155.4 26.1 L 161.4 21.1 L 172.4 30.1 L 167.4 33.1 L 167.31627902984619 33.13488368988037 L 167.0 51.4 L 167.1 72.2 L 167.8 90.5 L 169.0 106.4 L 170.8 119.8 L 173.0 130.6 L 175.6 138.8 L 177.44725894927979 142.42854442596436 L 182.0 122.7 L 184.0 122.7 L 182.09215688705444 147.50196075439453 L 182.8 147.8 L 186.7 150.1 L 187.9 154.5 L 185.6 158.4 L 181.2 159.7 L 174.0 156.8 Z M 85.1 81.3 L 85.1 106.8 L 102.5 106.8 L 102.5 81.3 Z M 114.5 81.3 L 114.5 106.8 L 130.1 106.8 L 130.1 81.3 Z M 38.1 75.2 L 35.9 72.7 L 33.5 70.1 L 31.0 67.7 L 28.3 65.3 L 25.6 63.0 L 22.7 60.6 L 19.7 58.3 L 16.4 56.2 L 17.1 54.5 L 21.0 55.6 L 24.8 56.6 L 28.5 58.0 L 32.1 59.5 L 35.6 61.3 L 38.9 63.2 L 42.2 65.3 L 45.3 67.6 L 48.3 70.1 L 51.3 72.7 L 52.7 77.1 L 50.7 81.2 L 46.3 82.6 L 42.2 80.6 L 40.2 77.9 Z M 45.7 37.3 L 43.6 34.8 L 41.3 32.3 L 38.9 29.8 L 36.3 27.4 L 33.5 24.9 L 30.6 22.4 L 27.3 20.2 L 28.1 18.6 L 31.9 19.9 L 35.7 21.1 L 39.4 22.6 L 42.8 24.3 L 46.2 26.1 L 49.4 28.2 L 52.4 30.4 L 55.3 32.7 L 58.1 35.3 L 60.7 38.0 L 61.7 42.4 L 59.5 46.4 L 55.0 47.4 L 51.1 45.1 L 47.7 39.9 Z " />
</g>
</svg>
