<svg xmlns="http://www.w3.org/2000/svg" xmlns:xlink="http://www.w3.org/1999/xlink" version="1.1" baseProfile="full" viewBox="0 0 200 200" width="200" height="200">
<g fill="black">
<path d="M 164.5 178.1 L 158.6 168.6 L 154.0 156.3 L 150.3 141.3 L 147.6 123.5 L 145.7 102.8 L 144.6 79.1 L 144.4 52.4 L 144.95540542602538 25.0 L 16.0 25.0 L 16.0 21.0 L 145.0 21.0 L 151.0 16.0 L 162.0 25.0 L 157.0 28.0 L 156.8153582572937 28.07693405151367 L 156.4 52.5 L 156.6 78.8 L 157.6 102.0 L 159.5 122.1 L 162.1 139.1 L 165.5 152.8 L 169.4 163.4 L 173.8 170.5 L 176.85838146209716 173.28034677505494 L 182.0 151.0 L 184.0 151.0 L 182.09028959274292 175.8262351036072 L 182.6 176.0 L 186.6 178.2 L 187.9 182.6 L 185.7 186.6 L 181.3 187.9 L 172.1 184.8 Z M 117.1 177.6 L 115.2 179.1 L 113.3 180.5 L 111.2 181.6 L 109.0 182.6 L 106.7 183.3 L 104.4 183.9 L 102.0 184.2 L 99.5 184.3 L 99.5 178.3 L 79.5 175.3 L 79.5 172.3 L 99.5 172.3 L 101.0 172.2 L 103.6 171.8 L 104.7 171.4 L 105.8 170.9 L 106.9 170.3 L 107.9 169.6 L 108.9 168.8 L 109.8 167.8 L 110.8 166.7 L 112.3 164.2 L 113.9 160.6 L 115.5 155.8 L 116.9 150.0 L 118.3 143.2 L 119.4 135.4 L 120.4 126.6 L 121.3 116.8 L 121.9 106.1 L 122.30598287582397 96.6 L 107.68695650100707 96.6 L 106.6 109.1 L 94.1 113.9 L 100.59573173522949 50.3 L 82.34059410095215 50.3 L 81.8 68.5 L 80.5 87.2 L 78.5 104.6 L 75.8 120.6 L 72.4 135.2 L 68.3 148.4 L 63.5 160.1 L 58.0 170.4 L 51.7 179.0 L 44.6 186.0 L 43.3 184.8 L 48.6 176.8 L 53.3 167.8 L 57.5 157.6 L 61.1 146.1 L 64.2 133.2 L 66.6 119.0 L 68.5 103.4 L 69.8 86.5 L 70.4 68.1 L 70.4 50.3 L 55.5 50.3 L 55.5 46.3 L 100.8 46.3 L 106.8 41.3 L 117.8 50.3 L 112.8 53.3 L 111.40150375366211 53.88270673751831 L 108.03478260040283 92.6 L 122.4 92.6 L 128.4 87.6 L 139.4 96.6 L 134.4 99.6 L 134.19472560882568 99.68553104400635 L 133.9 106.7 L 133.2 117.7 L 132.4 127.8 L 131.3 137.0 L 130.1 145.2 L 128.7 152.6 L 127.0 159.1 L 125.1 164.8 L 122.9 169.8 L 120.3 173.9 L 118.8 175.8 Z M 31.2 185.7 L 27.1 183.6 L 25.5 179.3 L 26.1 173.1 L 26.2 167.4 L 26.0 162.3 L 25.4 157.7 L 24.5 153.6 L 23.742532444000243 151.44413089752197 L 22.6 151.2 L 23.128846168518066 149.75769233703613 L 21.6 146.7 L 19.6 143.7 L 17.1 141.0 L 14.0 138.5 L 14.7 136.9 L 18.9 138.0 L 22.9 139.9 L 25.9875 142.3699999809265 L 27.1 139.7 L 29.4 134.0 L 32.3 127.2 L 35.6 119.4 L 39.4 110.6 L 43.7 100.8 L 48.6 90.0 L 54.2 78.3 L 55.9 78.9 L 52.2 91.4 L 48.7 102.7 L 45.5 112.9 L 42.7 122.0 L 40.2 130.1 L 38.2 137.0 L 36.6 142.9 L 35.4 147.7 L 34.6 151.3 L 34.3 153.7 L 33.41750144958496 153.51143198013307 L 34.2 155.3 L 35.8 160.7 L 36.8 166.6 L 37.4 173.1 L 37.5 180.1 L 35.5 184.2 Z M 26.0 92.9 L 25.3 91.3 L 24.3 89.5 L 23.0 87.8 L 21.5 86.0 L 19.8 84.1 L 17.8 82.3 L 15.5 80.4 L 12.9 78.9 L 13.5 77.2 L 16.5 78.2 L 19.6 78.8 L 22.4 79.7 L 25.1 80.8 L 27.7 82.0 L 30.0 83.5 L 32.3 85.1 L 34.3 86.9 L 36.2 88.9 L 37.8 91.1 L 38.0 95.7 L 34.9 99.1 L 30.3 99.2 L 26.9 96.2 L 26.6 94.6 Z M 36.2 52.1 L 35.4 50.3 L 34.4 48.6 L 33.2 46.8 L 31.8 45.0 L 30.1 43.2 L 28.3 41.3 L 26.3 39.4 L 23.8 38.0 L 24.5 36.3 L 27.3 37.3 L 30.2 38.0 L 32.9 38.8 L 35.5 39.9 L 37.9 41.2 L 40.2 42.6 L 42.4 44.2 L 44.5 46.0 L 46.3 47.9 L 48.0 50.0 L 48.3 54.6 L 45.4 58.1 L 40.8 58.4 L 37.3 55.5 L 36.9 53.8 Z " />
</g>
</svg>
