<svg xmlns="http://www.w3.org/2000/svg" xmlns:xlink="http://www.w3.org/1999/xlink" version="1.1" baseProfile="full" viewBox="0 0 200 200" width="200" height="200">
<g fill="black">
<path d="M 154.1 176.2 L 144.8 169.9 L 136.6 162.8 L 134.12871446609498 160.11987352371216 L 126.8 166.6 L 116.1 173.8 L 104.3 179.9 L 91.4 184.7 L 77.4 188.3 L 76.9 186.6 L 90.1 181.2 L 101.9 175.1 L 112.5 168.3 L 121.9 160.8 L 128.59635314941406 153.85563383102416 L 123.4 146.7 L 118.4 137.7 L 114.5 128.0 L 111.9 117.7 L 111.08668403625488 111.42584857940673 L 106.4 116.3 L 101.1 121.2 L 95.3 125.6 L 94.0 124.3 L 98.3 118.6 L 102.3 112.9 L 106.2 107.1 L 109.8 101.3 L 113.1 95.3 L 116.1 89.2 L 118.9 82.9 L 121.4 76.5 L 123.6 69.9 L 125.21943759918213 64.1041181564331 L 125.2 64.1 L 125.42399997711182 63.37200002670288 L 125.5 63.1 L 125.50703363418579 63.102140712738034 L 126.0 61.5 L 137.0 66.6 L 139.3 69.4 L 135.5885527610779 70.31158351898193 L 134.3 73.7 L 131.3 80.6 L 128.0 87.2 L 124.3 93.6 L 122.26721315383911 96.7 L 163.0 96.7 L 173.0 86.7 L 185.0 96.7 L 185.0 100.7 L 164.84492750167846 100.7 L 161.9 113.4 L 157.3 126.2 L 151.6 138.0 L 144.5 148.6 L 140.83462896347046 152.89116611480713 L 143.4 155.2 L 151.2 160.9 L 159.9 165.9 L 169.4 170.3 L 179.8 174.1 L 187.0 176.6 L 175.4 186.6 L 164.2 181.7 Z M 72.5 165.8 L 68.2 161.9 L 65.69110794067383 159.78138008117676 L 60.1 164.9 L 52.3 170.8 L 44.0 176.2 L 35.0 180.9 L 25.4 184.9 L 15.2 188.3 L 14.5 186.6 L 23.8 181.5 L 32.4 176.2 L 40.3 170.7 L 47.7 164.8 L 54.3 158.6 L 58.46259202957153 154.1644510269165 L 53.5 150.7 L 47.9 147.1 L 42.0 143.5 L 35.8 139.8 L 29.4 136.1 L 30.0 134.4 L 37.3 136.3 L 44.3 138.6 L 51.0 141.2 L 57.3 144.1 L 63.3 147.2 L 63.90831604003906 147.55218296051027 L 65.8 145.1 L 70.6 137.8 L 74.7 130.1 L 78.3 122.0 L 78.34551725387573 122.01986207962037 L 78.9 120.8 L 89.3 126.8 L 91.3 129.9 L 87.45662651062011 130.3638554573059 L 84.8 135.5 L 79.6 143.7 L 73.7 151.3 L 72.44602909088135 152.6697220802307 L 74.4 153.9 L 79.4 157.6 L 84.2 161.5 L 88.7 165.5 L 90.3 169.8 L 88.4 174.0 L 84.1 175.6 L 79.9 173.7 L 76.4 169.7 Z M 119.55862064361573 100.7 L 116.0 105.5 L 113.15211610794067 108.96698913574218 L 115.9 116.6 L 120.0 125.8 L 124.7 134.2 L 130.2 141.9 L 134.38985290527344 146.6304790496826 L 137.0 143.2 L 142.7 133.2 L 147.3 122.3 L 150.9 110.5 L 152.64406776428223 100.7 Z M 74.6 108.2 L 70.3 104.5 L 66.23609018325806 101.38721799850464 L 65.7 101.9 L 58.3 108.0 L 50.5 113.5 L 42.3 118.5 L 33.7 122.8 L 24.6 126.4 L 15.2 129.3 L 14.6 127.7 L 23.1 123.0 L 31.1 118.1 L 38.8 112.9 L 46.0 107.4 L 52.8 101.5 L 58.43785753250122 95.95023403167724 L 55.0 93.7 L 49.1 90.2 L 42.9 86.6 L 36.3 83.0 L 29.4 79.3 L 30.0 77.6 L 37.7 79.5 L 45.0 81.7 L 52.0 84.3 L 58.5 87.0 L 64.11165599822998 89.71531744003296 L 65.2 88.5 L 70.8 81.4 L 75.9 73.9 L 80.7 65.9 L 81.2 65.0 L 91.0 72.1 L 92.5 75.4 L 88.73373489379883 75.4 L 85.3 80.4 L 79.2 88.1 L 73.19139785766602 94.65483875274658 L 76.1 96.4 L 81.3 99.8 L 86.1 103.4 L 90.6 107.2 L 92.3 111.5 L 90.6 115.7 L 86.4 117.4 L 82.1 115.7 L 78.6 111.9 Z M 186.0 55.1 L 186.0 59.1 L 14.0 59.1 L 14.0 55.1 L 164.0 55.1 L 174.0 45.1 Z M 168.0 25.4 L 168.0 29.4 L 32.0 29.4 L 32.0 25.4 L 146.0 25.4 L 156.0 15.4 Z " />
</g>
</svg>
