<svg xmlns="http://www.w3.org/2000/svg" xmlns:xlink="http://www.w3.org/1999/xlink" version="1.1" baseProfile="full" viewBox="0 0 200 200" width="200" height="200">
<g fill="black">
<path d="M 135.1 178.6 L 116.5 176.3 L 100.0 172.6 L 85.7 167.2 L 73.5 160.3 L 63.7 151.9 L 56.2 141.9 L 51.4 130.6 L 51.13968486785889 129.1209366798401 L 49.7 133.4 L 45.3 143.6 L 40.3 153.3 L 34.5 162.3 L 27.9 170.8 L 20.6 178.6 L 12.6 185.6 L 11.3 184.3 L 17.8 176.1 L 23.6 167.6 L 28.9 158.8 L 33.5 149.8 L 37.5 140.3 L 40.9 130.4 L 43.6 120.1 L 45.7 109.4 L 47.1 98.2 L 47.83108768463135 87.59922924041749 L 47.8 87.6 L 48.0 84.3 L 59.9 87.3 L 62.7 89.5 L 59.41993865966797 91.23650302886963 L 58.4 99.6 L 56.2 111.4 L 53.3 122.7 L 53.09568576812744 123.3072672843933 L 55.3 129.1 L 61.2 138.6 L 68.7 146.7 L 78.0 153.3 L 89.3 158.6 L 102.7 162.7 L 118.1 165.4 L 135.7 166.8 L 155.5 166.8 L 177.4 165.4 L 188.3 164.5 L 178.5 178.5 L 155.7 179.3 Z M 157.1 118.0 L 148.5 108.9 L 141.1 98.8 L 135.1 87.5 L 130.4 75.3 L 127.0 61.9 L 125.14459238052368 49.26555738449097 L 125.1 49.6 L 121.5 64.8 L 116.7 78.6 L 110.5 91.2 L 103.1 102.3 L 94.4 111.9 L 84.4 120.1 L 73.2 126.6 L 60.8 131.5 L 60.2 129.9 L 71.3 123.3 L 81.1 115.9 L 89.6 107.4 L 96.9 97.8 L 103.1 87.2 L 108.0 75.3 L 111.8 62.2 L 114.5 47.9 L 115.9 32.2 L 116.2 15.3 L 116.2 12.9 L 128.2 15.3 L 131.2 17.3 L 128.00185403823852 19.218887615203858 L 127.70634326934814 25.06343278884888 L 128.4 32.0 L 130.8 46.8 L 134.1 60.2 L 138.3 72.4 L 143.5 83.4 L 149.6 93.1 L 156.7 101.6 L 164.8 109.0 L 173.8 115.3 L 183.9 120.5 L 189.5 123.2 L 178.2 132.4 L 167.0 125.8 Z M 85.4 74.4 L 83.4 71.7 L 81.2 68.9 L 78.6 66.0 L 75.8 63.1 L 72.6 60.0 L 69.1 56.9 L 65.4 53.5 L 62.830463600158694 51.38013248443603 L 62.4 53.4 L 58.6 64.7 L 53.7 74.9 L 47.8 84.0 L 40.7 92.1 L 32.6 98.9 L 23.4 104.5 L 13.3 108.8 L 12.6 107.1 L 21.4 101.3 L 29.2 94.8 L 35.9 87.6 L 41.5 79.7 L 46.2 71.0 L 49.9 61.5 L 52.6 51.1 L 54.4 39.7 L 55.2 27.4 L 55.01501312255859 15.0983736038208 L 55.0 15.1 L 54.9 11.8 L 67.0 13.8 L 70.0 15.7 L 66.86222982406616 17.685119915008546 L 66.5 27.9 L 65.0 41.2 L 63.30944204330444 49.132618045806886 L 67.2 50.8 L 71.8 52.9 L 76.1 55.1 L 80.2 57.4 L 83.9 59.9 L 87.4 62.4 L 90.5 64.9 L 93.4 67.6 L 96.1 70.4 L 98.4 73.2 L 99.1 77.7 L 96.5 81.5 L 92.0 82.2 L 88.3 79.6 L 87.0 77.1 Z " />
</g>
</svg>
