<svg xmlns="http://www.w3.org/2000/svg" xmlns:xlink="http://www.w3.org/1999/xlink" version="1.1" baseProfile="full" viewBox="0 0 200 200" width="200" height="200">
<g fill="black">
<path d="M 69.1 17.9 L 71.2 20.9 L 67.58101396560669 21.598400783538818 L 64.5 29.1 L 59.8 39.9 L 54.8 50.6 L 49.6 61.0 L 44.2 71.1 L 43.09677419662476 73.01612901687622 L 49.0 74.0 L 52.0 76.0 L 49.0 77.8 L 49.0 183.0 L 37.0 189.0 L 37.0 83.44067792892456 L 32.6 90.6 L 26.4 99.9 L 19.8 108.9 L 12.9 117.5 L 11.4 116.4 L 16.7 106.8 L 21.8 97.1 L 26.9 87.3 L 31.8 77.4 L 36.6 67.3 L 41.2 57.0 L 45.7 46.5 L 49.9 35.8 L 53.9 24.9 L 57.8 13.8 L 57.82973680496216 13.810789489746094 L 58.3 12.4 Z M 65.0 176.2 L 117.0 176.2 L 117.0 147.0 L 58.3 147.0 L 58.3 143.0 L 117.0 143.0 L 117.0 116.87326736450196 L 109.2 117.8 L 98.7 118.9 L 87.8 119.7 L 76.7 120.2 L 65.1 120.4 L 65.0 118.6 L 76.2 116.4 L 87.2 114.4 L 97.8 112.4 L 108.0 110.3 L 117.8 108.3 L 127.4 106.1 L 136.5 103.9 L 145.3 101.6 L 153.7 99.2 L 160.73825998306273 97.00054378509522 L 160.7 96.9 L 160.79767446517945 96.9819766998291 L 161.7 96.7 L 162.09284105300904 98.06899166107178 L 171.9 106.3 L 172.2 109.3 L 167.9543716430664 107.38647737503052 L 165.0 108.2 L 156.5 110.2 L 147.7 112.0 L 138.6 113.7 L 129.1 115.2 L 129.0 115.21428575515748 L 129.0 143.0 L 165.6 143.0 L 175.6 133.0 L 187.6 143.0 L 187.6 147.0 L 129.0 147.0 L 129.0 176.2 L 158.9 176.2 L 168.9 166.2 L 180.9 176.2 L 180.9 180.2 L 65.0 180.2 Z M 89.0 23.0 L 157.0 23.0 L 163.0 18.0 L 174.0 27.0 L 169.0 31.0 L 169.0 85.2 L 157.0 91.2 L 157.0 85.2 L 89.0 85.2 L 89.0 97.2 L 77.0 103.2 L 77.0 17.0 Z M 89.0 56.1 L 89.0 81.2 L 157.0 81.2 L 157.0 56.1 Z M 89.0 27.0 L 89.0 52.1 L 157.0 52.1 L 157.0 27.0 Z " />
</g>
</svg>
