<svg xmlns="http://www.w3.org/2000/svg" xmlns:xlink="http://www.w3.org/1999/xlink" version="1.1" baseProfile="full" viewBox="0 0 200 200" width="200" height="200">
<g fill="black">
<path d="M 56.0 179.8 L 55.0 175.3 L 57.2 171.4 L 58.5 170.7 L 59.9 169.5 L 61.3 167.7 L 62.8 165.4 L 64.2 162.5 L 65.4 159.0 L 66.6 155.0 L 67.7 150.5 L 68.8 145.5 L 69.5 140.0 L 71.3 140.0 L 71.8 145.6 L 72.3 150.9 L 72.4 155.8 L 72.2 160.3 L 71.8 164.5 L 71.1 168.4 L 70.1 172.0 L 68.6 175.3 L 66.8 178.3 L 64.4 180.9 L 60.0 182.0 Z M 89.64689512252808 104.0 L 154.71818180084227 104.0 L 162.9 95.0 L 172.9 104.0 L 172.9 108.0 L 89.14154176712036 108.0 L 86.99379014968872 125.0 L 170.1 125.0 L 176.1 120.0 L 187.1 129.0 L 182.1 132.0 L 182.0225806236267 132.03225803375244 L 182.0 133.5 L 181.8 139.7 L 181.4 145.4 L 180.9 150.9 L 180.2 155.9 L 179.4 160.6 L 178.4 165.0 L 177.2 169.0 L 175.8 172.7 L 174.2 176.0 L 172.9 178.2 L 171.4 180.1 L 169.8 181.9 L 167.9 183.5 L 165.9 184.9 L 163.8 186.0 L 161.5 186.9 L 159.1 187.5 L 156.7 187.8 L 154.2 188.0 L 154.2 182.0 L 134.2 179.0 L 134.2 176.0 L 154.2 176.0 L 155.6 175.9 L 156.8 175.7 L 157.9 175.4 L 158.9 175.1 L 159.8 174.6 L 160.6 174.0 L 161.4 173.3 L 162.2 172.5 L 162.9 171.5 L 163.7 170.3 L 164.8 168.0 L 165.8 165.2 L 166.8 161.9 L 167.6 158.2 L 168.4 154.1 L 169.0 149.5 L 169.5 144.5 L 169.8 139.1 L 170.0 133.2 L 170.06774196624755 129.0 L 86.488436794281 129.0 L 86.4 129.7 L 73.7 134.1 L 79.94559688568116 85.0 L 56.00196075439453 85.0 L 54.4 89.3 L 50.7 98.8 L 47.2 107.4 L 43.8 115.4 L 40.6 122.6 L 37.6 129.0 L 34.7 134.8 L 32.0 139.9 L 31.170632934570314 141.1958860397339 L 32.7 144.2 L 34.9 149.9 L 36.5 155.8 L 37.6 161.9 L 38.0 168.2 L 37.9 174.6 L 35.7 178.6 L 31.3 179.9 L 27.3 177.7 L 26.0 173.3 L 26.7 167.9 L 26.9 162.6 L 26.6 157.4 L 25.9 152.2 L 24.7 147.1 L 23.1 142.0 L 20.9 136.9 L 18.3 131.8 L 15.3 126.6 L 11.8 121.3 L 13.1 120.0 L 18.2 124.2 L 22.7 128.7 L 24.021067714691164 130.35980300903321 L 24.9 129.1 L 28.1 123.9 L 31.7 118.0 L 35.5 111.3 L 39.5 103.8 L 43.8 95.6 L 48.4 86.7 L 53.3 77.0 L 58.6 66.6 L 64.3 55.6 L 65.9 56.3 L 62.1 68.1 L 58.2 79.1 L 57.49215688705444 81.0 L 79.5 81.0 L 79.5 43.0 L 91.5 45.0 L 94.5 47.0 L 91.5 48.8 L 91.5 81.0 L 114.5 81.0 L 114.5 31.0 L 59.2 31.0 L 59.2 27.0 L 159.7 27.0 L 169.7 17.0 L 181.7 27.0 L 181.7 31.0 L 126.5 31.0 L 126.5 54.0 L 151.7 54.0 L 161.7 44.0 L 173.7 54.0 L 173.7 58.0 L 126.5 58.0 L 126.5 81.0 L 166.0 81.0 L 176.0 71.0 L 188.0 81.0 L 188.0 85.0 L 92.04732332229614 85.0 Z M 115.5 161.6 L 115.2 158.7 L 114.7 155.9 L 114.1 153.2 L 113.3 150.5 L 112.5 147.9 L 111.4 145.3 L 110.2 142.6 L 108.6 140.3 L 109.9 139.0 L 112.2 140.9 L 114.7 142.8 L 117.0 145.0 L 119.1 147.4 L 121.0 150.1 L 122.7 152.9 L 124.2 156.0 L 125.6 159.2 L 126.7 162.7 L 127.6 166.3 L 126.4 170.6 L 122.4 172.9 L 118.0 171.6 L 115.7 167.7 L 115.7 164.6 Z M 91.0 176.8 L 87.5 173.9 L 86.9 169.4 L 87.9 167.3 L 88.7 165.0 L 89.3 162.5 L 89.8 159.9 L 90.1 157.1 L 90.3 154.1 L 90.2 150.9 L 90.1 147.5 L 89.8 143.9 L 89.0 140.2 L 90.6 139.6 L 92.3 143.0 L 94.1 146.4 L 95.6 149.7 L 96.8 153.0 L 97.7 156.4 L 98.4 159.7 L 98.8 163.0 L 99.0 166.3 L 98.8 169.5 L 98.4 172.8 L 95.5 176.3 Z M 141.9 155.6 L 141.3 153.2 L 140.5 150.9 L 139.5 148.6 L 138.3 146.3 L 136.9 144.0 L 135.3 141.6 L 133.5 139.3 L 131.2 137.2 L 132.1 135.7 L 135.0 137.2 L 137.9 138.5 L 140.7 140.2 L 143.2 142.0 L 145.6 144.1 L 147.7 146.4 L 149.7 148.9 L 151.4 151.7 L 153.0 154.6 L 154.2 157.7 L 153.4 162.2 L 149.8 164.9 L 145.3 164.1 L 142.5 160.4 L 142.3 158.0 Z M 36.4 52.7 L 35.1 50.2 L 33.6 47.7 L 31.8 45.2 L 29.8 42.7 L 27.6 40.3 L 25.2 37.9 L 22.5 35.4 L 19.4 33.2 L 20.3 31.6 L 23.9 33.0 L 27.5 34.2 L 30.9 35.8 L 34.1 37.6 L 37.1 39.6 L 40.0 41.8 L 42.6 44.2 L 45.1 46.8 L 47.3 49.6 L 49.3 52.7 L 49.5 57.2 L 46.5 60.7 L 41.9 60.8 L 38.5 57.8 L 37.6 55.2 Z " />
</g>
</svg>
