<svg xmlns="http://www.w3.org/2000/svg" xmlns:xlink="http://www.w3.org/1999/xlink" version="1.1" baseProfile="full" viewBox="0 0 200 200" width="200" height="200">
<g fill="black">
<path d="M 182.0 148.0 L 184.0 148.0 L 182.0 173.0 L 185.6 175.4 L 188.0 179.0 L 185.6 182.6 L 182.0 185.0 L 42.0 185.0 L 39.4 184.8 L 36.9 184.4 L 34.5 183.6 L 32.2 182.3 L 30.2 180.7 L 28.6 178.7 L 27.3 176.4 L 26.5 174.0 L 26.1 171.5 L 26.0 169.0 L 26.0 78.08181819915771 L 24.4 82.3 L 20.9 90.8 L 17.0 99.2 L 12.8 107.3 L 11.1 106.6 L 13.5 97.8 L 15.9 89.1 L 18.2 80.3 L 20.5 71.4 L 22.6 62.6 L 26.4 44.6 L 28.0 35.4 L 29.5 26.2 L 30.7622540473938 17.905187797546386 L 30.7 17.9 L 31.2 15.0 L 42.7 18.9 L 45.3 21.4 L 41.88556699752807 22.72783508300781 L 40.7 28.3 L 38.5 37.6 L 36.830434799194336 44.0 L 78.0 44.0 L 84.0 39.0 L 95.0 48.0 L 90.06386289596557 50.96168222427368 L 90.3 58.4 L 90.5 70.1 L 90.5 80.9 L 90.4 90.8 L 90.1 99.8 L 89.7 107.9 L 89.1 115.2 L 88.4 121.5 L 87.5 127.1 L 86.4 131.9 L 85.6 134.3 L 84.5 136.6 L 83.2 138.7 L 81.6 140.7 L 79.7 142.3 L 77.7 143.7 L 75.4 144.7 L 73.0 145.4 L 70.5 145.8 L 68.0 146.0 L 68.0 140.0 L 50.0 137.0 L 50.0 134.0 L 68.0 134.0 L 69.3 133.9 L 70.3 133.7 L 71.2 133.5 L 71.9 133.1 L 72.5 132.8 L 73.0 132.3 L 73.5 131.7 L 74.0 130.9 L 74.4 130.0 L 74.8 128.7 L 75.7 124.8 L 76.5 119.9 L 77.2 114.0 L 77.7 107.1 L 78.1 99.3 L 78.4 90.5 L 78.5 80.8 L 78.5 70.2 L 78.3 58.6 L 78.23524751663209 55.90198020935058 L 78.0 56.0 L 78.0 48.0 L 35.7703296661377 48.0 L 33.6 55.9 L 30.7 64.8 L 29.957281589508057 66.97864074707032 L 38.0 71.0 L 57.0 71.0 L 63.0 66.0 L 74.0 75.0 L 69.0 79.0 L 69.0 122.0 L 57.0 128.0 L 57.0 116.0 L 38.0 116.0 L 38.0 170.2 L 38.2 171.1 L 38.5 172.0 L 38.9 172.4 L 39.8 172.7 L 40.7 172.9 L 42.0 173.0 L 176.0 173.0 Z M 173.8 98.7 L 171.7 96.2 L 169.5 93.6 L 167.0 91.1 L 164.4 88.7 L 161.6 86.2 L 158.6 83.7 L 155.5 81.2 L 155.4 81.13428573608398 L 155.4 159.3 L 143.4 165.3 L 143.4 22.7 L 155.4 24.7 L 158.4 26.7 L 155.4 28.5 L 155.4 78.08000001907348 L 156.8 78.5 L 160.8 79.8 L 164.6 81.3 L 168.3 82.9 L 171.7 84.8 L 175.1 86.8 L 178.2 89.0 L 181.3 91.4 L 184.1 93.9 L 186.8 96.5 L 188.0 100.9 L 185.8 104.9 L 181.3 106.1 L 177.3 103.9 L 175.6 101.3 Z M 139.5 23.4 L 141.7 26.3 L 138.05044450759888 27.00430021286011 L 135.8 32.6 L 131.8 41.6 L 127.7 50.4 L 123.4 59.0 L 118.9 67.4 L 118.16810503005982 68.66135082244872 L 123.2 69.5 L 126.2 71.5 L 123.2 73.3 L 123.2 159.3 L 111.2 165.3 L 111.2 80.3979591369629 L 109.3 83.5 L 104.1 91.1 L 98.6 98.5 L 92.8 105.6 L 91.3 104.6 L 99.5 88.4 L 107.5 72.0 L 111.3 63.6 L 115.0 55.0 L 118.5 46.3 L 121.9 37.5 L 125.2 28.5 L 128.2 19.3 L 128.26601753234863 19.323953247070314 L 128.8 17.9 Z M 38.0 75.0 L 38.0 112.0 L 57.0 112.0 L 57.0 75.0 Z " />
</g>
</svg>
