<svg xmlns="http://www.w3.org/2000/svg" xmlns:xlink="http://www.w3.org/1999/xlink" version="1.1" baseProfile="full" viewBox="0 0 200 200" width="200" height="200">
<g fill="black">
<path d="M 104.6 23.1 L 104.6 27.1 L 29.8 27.1 L 29.8 167.8 L 87.7 167.8 L 97.7 157.8 L 109.7 167.8 L 109.7 168.51363639831544 L 112.6 163.9 L 116.4 156.1 L 119.5 147.5 L 122.0 138.1 L 123.9 127.9 L 125.0 116.7 L 125.55010442733764 105.69791231155395 L 125.5 105.7 L 125.6 102.4 L 137.5 105.2 L 140.5 107.3 L 137.15924787521362 109.1341383934021 L 136.4 117.9 L 134.4 129.7 L 131.7 140.6 L 128.3 150.7 L 124.1 159.8 L 119.1 167.9 L 113.3 175.1 L 106.8 181.1 L 99.6 186.1 L 91.7 189.7 L 90.8 188.2 L 97.4 183.0 L 103.1 177.2 L 107.4714285850525 171.8 L 29.8 171.8 L 29.8 183.8 L 17.8 189.8 L 17.8 17.1 L 29.8 23.1 L 82.6 23.1 L 92.6 13.1 Z M 182.8 148.0 L 184.8 148.0 L 182.8 173.0 L 186.4 175.4 L 188.8 179.0 L 186.4 182.6 L 182.8 185.0 L 161.8 185.0 L 159.2 184.8 L 156.7 184.4 L 154.3 183.6 L 152.0 182.3 L 150.0 180.7 L 148.4 178.7 L 147.1 176.4 L 146.3 174.0 L 145.9 171.5 L 145.8 169.0 L 145.8 100.0 L 98.0 100.0 L 98.0 96.0 L 135.7 96.0 L 135.7 17.0 L 147.7 19.0 L 150.7 21.0 L 147.7 22.8 L 147.7 96.0 L 165.9 96.0 L 175.9 86.0 L 187.9 96.0 L 187.9 100.0 L 157.8 100.0 L 157.8 170.2 L 158.0 171.1 L 158.3 172.0 L 158.7 172.4 L 159.6 172.7 L 160.5 172.9 L 161.8 173.0 L 176.8 173.0 Z M 33.0 145.9 L 59.3 145.9 L 59.3 101.6 L 40.1 101.6 L 40.1 97.6 L 59.3 97.6 L 59.3 54.0 L 36.7 54.0 L 36.7 50.0 L 71.9 50.0 L 81.9 40.0 L 93.9 50.0 L 93.9 54.0 L 71.3 54.0 L 71.3 97.6 L 76.27777776718139 97.6 L 82.5 90.6 L 90.5 97.6 L 90.5 101.6 L 71.3 101.6 L 71.3 145.9 L 75.6 145.9 L 85.6 135.9 L 97.6 145.9 L 97.6 149.9 L 33.0 149.9 Z M 178.9 37.8 L 181.1 40.7 L 177.3561074256897 41.488187885284425 L 177.1 42.1 L 175.2 46.4 L 173.1 50.9 L 170.9 55.4 L 168.6 60.1 L 166.1 64.8 L 163.5 69.6 L 160.7 74.5 L 157.6 79.4 L 154.2 84.3 L 152.6 83.6 L 154.2 77.8 L 155.8 72.3 L 157.5 67.0 L 159.2 61.8 L 160.8 56.8 L 162.3 52.0 L 163.8 47.3 L 165.1 42.7 L 166.4 38.2 L 167.31956520080567 34.90489130020141 L 167.3 34.9 L 167.4285714149475 34.51428575515747 L 167.6 33.9 L 167.62989416122437 33.91031742095947 L 168.1 32.5 Z M 116.5 68.3 L 115.7 63.8 L 114.7 59.6 L 113.6 55.5 L 112.3 51.6 L 110.9 47.9 L 109.3 44.3 L 107.5 40.7 L 105.6 37.3 L 106.9 36.1 L 110.2 38.6 L 113.3 41.4 L 116.2 44.7 L 118.8 48.3 L 121.1 52.3 L 123.3 56.5 L 125.2 61.0 L 126.9 65.8 L 128.3 70.8 L 129.5 76.1 L 128.4 80.5 L 124.5 82.9 L 120.0 81.7 L 117.7 77.8 L 117.2 73.0 Z " />
</g>
</svg>
