<svg xmlns="http://www.w3.org/2000/svg" xmlns:xlink="http://www.w3.org/1999/xlink" version="1.1" baseProfile="full" viewBox="0 0 200 200" width="200" height="200">
<g fill="black">
<path d="M 41.4 183.8 L 38.9 183.4 L 36.5 182.6 L 34.2 181.3 L 32.2 179.7 L 30.6 177.7 L 29.3 175.4 L 28.5 173.0 L 28.1 170.5 L 28.0 168.0 L 28.0 30.0 L 12.0 30.0 L 12.0 26.0 L 166.0 26.0 L 176.0 16.0 L 188.0 26.0 L 188.0 30.0 L 40.0 30.0 L 40.0 169.2 L 40.2 170.1 L 40.5 171.0 L 40.9 171.4 L 41.8 171.7 L 42.7 171.9 L 44.0 172.0 L 180.0 172.0 L 183.6 174.4 L 186.0 178.0 L 183.6 181.6 L 180.0 184.0 L 44.0 184.0 Z M 62.0 161.4 L 58.1 159.1 L 56.9 154.7 L 57.5 150.9 L 57.9 147.1 L 57.9 143.4 L 57.5 139.7 L 56.7 136.0 L 55.5 132.2 L 54.0 128.4 L 52.0 124.5 L 49.7 120.5 L 46.8 116.5 L 48.1 115.2 L 52.1 118.3 L 55.9 121.6 L 56.75333337783813 122.53333330154419 L 59.5 119.1 L 63.0 114.0 L 67.1 107.4 L 71.8 99.4 L 77.2 89.9 L 83.1 79.1 L 89.8 66.8 L 97.2 53.2 L 98.9 54.0 L 93.3 68.4 L 88.0 81.4 L 83.1 92.8 L 78.6 102.9 L 74.6 111.5 L 71.1 118.7 L 68.0 124.5 L 65.3 129.0 L 63.43136730194092 131.6160858154297 L 64.3 133.1 L 66.2 137.4 L 67.6 141.9 L 68.4 146.5 L 68.8 151.4 L 68.7 156.3 L 66.4 160.2 Z M 143.6 144.1 L 153.6 144.1 L 154.9 144.0 L 155.8 143.9 L 156.4 143.7 L 156.7 143.5 L 156.9 143.4 L 157.2 142.8 L 157.4 142.3 L 157.6 141.3 L 157.6 111.1 L 128.0 111.1 L 128.0 162.3 L 116.0 168.3 L 116.0 111.1 L 89.6 111.1 L 89.6 107.1 L 157.6 107.1 L 163.6 102.1 L 174.6 111.1 L 169.6 115.1 L 169.6 140.1 L 169.5 142.7 L 169.1 145.2 L 168.3 147.6 L 167.0 149.8 L 165.4 151.9 L 163.4 153.5 L 161.1 154.7 L 158.7 155.5 L 156.2 156.0 L 153.6 156.1 L 153.6 150.1 L 143.6 147.1 Z M 163.0 84.9 L 158.0 80.2 L 153.2 75.3 L 148.7 70.1 L 144.4 64.7 L 140.3 58.9 L 136.5 52.9 L 133.1 46.5 L 132.94634513854982 46.13970584869385 L 129.7 51.8 L 125.6 58.2 L 121.2 64.4 L 116.5 70.2 L 111.6 75.7 L 106.5 80.9 L 101.1 85.7 L 95.4 90.0 L 89.3 93.8 L 88.2 92.4 L 92.8 87.2 L 97.3 81.8 L 101.6 76.5 L 105.8 70.9 L 109.7 65.2 L 113.5 59.2 L 117.0 53.0 L 120.3 46.6 L 123.4 40.0 L 125.91898517608642 34.006552410125735 L 125.9 34.0 L 126.8 31.9 L 137.2 37.9 L 139.2 41.0 L 135.39534406661988 41.45918264389038 L 134.93564443588258 42.36581230163574 L 136.6 44.2 L 141.3 49.4 L 146.0 54.4 L 150.7 59.2 L 155.5 63.7 L 160.3 67.9 L 165.3 71.9 L 170.3 75.6 L 175.5 79.1 L 180.8 82.2 L 184.8 84.8 L 173.7 93.3 L 168.3 89.3 Z M 156.8 85.8 L 156.8 89.8 L 103.2 89.8 L 103.2 85.8 L 134.8 85.8 L 144.8 75.8 Z M 65.6 64.5 L 64.7 62.7 L 63.6 60.8 L 62.2 58.9 L 60.7 57.0 L 59.0 55.1 L 57.1 53.1 L 55.0 51.1 L 52.5 49.5 L 53.2 47.9 L 56.1 48.9 L 59.1 49.7 L 61.9 50.7 L 64.5 51.9 L 67.1 53.3 L 69.5 54.8 L 71.7 56.5 L 73.8 58.3 L 75.8 60.4 L 77.6 62.5 L 78.0 67.1 L 75.1 70.7 L 70.6 71.1 L 67.0 68.2 L 66.4 66.4 Z " />
</g>
</svg>
