<svg xmlns="http://www.w3.org/2000/svg" xmlns:xlink="http://www.w3.org/1999/xlink" version="1.1" baseProfile="full" viewBox="0 0 200 200" width="200" height="200">
<g fill="black">
<path d="M 114.8 130.8 L 155.1 130.8 L 161.1 125.8 L 172.1 134.8 L 167.1 138.8 L 167.1 181.4 L 155.1 187.4 L 155.1 179.4 L 114.8 179.4 L 114.8 182.4 L 102.8 188.4 L 102.8 124.8 Z M 81.3 144.3 L 83.3 144.3 L 81.3 169.3 L 84.9 171.7 L 87.3 175.3 L 84.9 178.9 L 81.3 181.3 L 41.0 181.3 L 38.4 181.1 L 35.9 180.7 L 33.5 179.9 L 31.3 178.7 L 29.3 177.0 L 27.6 175.0 L 26.4 172.7 L 25.6 170.3 L 25.1 167.8 L 25.0 165.3 L 25.0 78.86666669845582 L 24.6 80.0 L 21.3 88.4 L 17.7 96.7 L 13.7 104.7 L 12.0 104.0 L 16.2 86.8 L 18.3 78.1 L 20.3 69.5 L 22.1 60.7 L 23.8 51.9 L 25.4 43.0 L 26.8 34.0 L 28.0 25.0 L 28.901091861724854 16.800063705444337 L 28.9 16.8 L 28.90625 16.753125 L 29.0 15.9 L 29.019647789001464 15.902641677856446 L 29.3 13.8 L 40.9 17.5 L 43.6 19.9 L 40.19085502624512 21.379440307617188 L 39.2 26.8 L 37.3 36.0 L 35.83000001907349 42.3 L 72.9 42.3 L 78.9 37.3 L 89.9 46.3 L 84.92543716430664 49.28473768234253 L 85.1 56.5 L 85.2 68.0 L 85.2 73.80169486999512 L 89.6 69.7 L 95.3 64.1 L 100.8 58.4 L 106.0 52.5 L 111.0 46.4 L 115.6 40.1 L 120.0 33.5 L 124.1 26.6 L 127.9 19.5 L 131.4 12.2 L 131.4401487350464 12.219702625274659 L 132.0 11.1 L 142.2 17.5 L 144.0 20.6 L 140.21979360580445 20.920356464385986 L 139.4510516166687 22.24818353652954 L 141.1 24.2 L 145.7 29.7 L 150.4 34.9 L 155.0 39.7 L 159.7 44.2 L 164.5 48.3 L 169.3 52.1 L 174.2 55.5 L 179.2 58.5 L 184.3 61.2 L 189.1 63.9 L 177.9 72.7 L 172.4 69.0 L 167.2 65.0 L 162.2 60.6 L 157.4 55.8 L 152.9 50.6 L 148.6 45.1 L 144.6 39.3 L 140.9 33.0 L 137.5 26.4 L 137.2975009918213 25.886520290374754 L 133.2 32.3 L 128.2 39.2 L 123.0 45.8 L 117.4 51.9 L 111.5 57.8 L 105.3 63.2 L 98.8 68.2 L 96.54339618682862 69.6716980934143 L 107.0 74.9 L 162.9 74.9 L 168.9 69.9 L 179.9 78.9 L 174.9 82.9 L 174.9 116.6 L 162.9 122.6 L 162.9 116.6 L 107.0 116.6 L 95.0 122.6 L 95.0 70.67826089859008 L 91.9 72.7 L 85.2 76.4222222328186 L 85.2 78.7 L 85.1 88.4 L 84.9 97.2 L 84.5 105.2 L 83.9 112.3 L 83.2 118.6 L 82.4 124.0 L 81.4 128.7 L 80.6 131.1 L 79.6 133.4 L 78.3 135.6 L 76.7 137.5 L 74.9 139.2 L 72.8 140.6 L 70.5 141.6 L 68.1 142.3 L 65.6 142.7 L 63.1 142.9 L 63.1 136.9 L 45.1 133.9 L 45.1 130.9 L 63.1 130.9 L 64.4 130.8 L 65.4 130.6 L 66.3 130.4 L 67.0 130.0 L 67.5 129.7 L 68.5 128.7 L 69.0 127.9 L 69.4 126.9 L 69.8 125.7 L 70.6 121.9 L 71.3 117.0 L 72.0 111.2 L 72.5 104.5 L 72.9 96.8 L 73.1 88.1 L 73.2 78.6 L 73.2 68.1 L 73.1 56.7 L 73.05989236831665 54.23337821960449 L 72.9 54.3 L 72.9 46.3 L 34.867777824401855 46.3 L 32.9 54.0 L 30.3 62.8 L 29.561194038391115 65.18059701919556 L 37.0 68.9 L 52.2 68.9 L 58.2 63.9 L 69.2 72.9 L 64.2 76.9 L 64.2 119.2 L 52.2 125.2 L 52.2 113.2 L 37.0 113.2 L 37.0 165.3 L 37.1 166.5 L 37.2 167.4 L 37.4 168.0 L 37.6 168.3 L 37.7 168.5 L 37.9 168.7 L 38.3 168.9 L 38.9 169.0 L 39.8 169.2 L 41.0 169.3 L 75.3 169.3 Z M 114.8 157.1 L 114.8 175.4 L 155.1 175.4 L 155.1 157.1 Z M 114.8 134.8 L 114.8 153.1 L 155.1 153.1 L 155.1 134.8 Z M 107.0 78.9 L 107.0 112.6 L 129.0 112.6 L 129.0 78.9 Z M 141.0 78.9 L 141.0 112.6 L 162.9 112.6 L 162.9 92.64655170440673 L 159.39772300720216 92.8277039527893 L 159.0 93.3 L 157.4 95.3 L 155.7 97.3 L 152.1 101.5 L 148.1 105.7 L 145.8 107.8 L 143.9 110.1 L 142.4 109.1 L 143.8 106.4 L 145.6 100.8 L 146.6 98.2 L 147.5 95.6 L 148.4 93.1 L 150.0 88.3 L 150.8 86.1 L 151.18874816894532 84.87821998596192 L 151.0 84.8 L 152.0 82.8 L 162.1 89.4 L 162.9 90.90588235855103 L 162.9 78.9 Z M 37.0 72.9 L 37.0 109.2 L 52.2 109.2 L 52.2 72.9 Z M 115.2 100.6 L 114.8 98.6 L 113.8 94.6 L 113.1 92.6 L 112.4 90.7 L 111.6 88.6 L 110.7 86.6 L 109.4 84.9 L 110.6 83.6 L 112.4 85.0 L 114.4 86.2 L 116.4 87.6 L 118.2 89.1 L 119.9 90.8 L 121.6 92.6 L 124.6 96.6 L 125.9 98.8 L 127.2 101.1 L 126.7 105.6 L 123.3 108.6 L 118.7 108.1 L 115.7 104.7 L 115.5 102.6 Z M 156.6 59.0 L 156.6 63.0 L 113.3 63.0 L 113.3 59.0 L 138.4181818008423 59.0 L 146.6 50.0 Z " />
</g>
</svg>
