<svg xmlns="http://www.w3.org/2000/svg" xmlns:xlink="http://www.w3.org/1999/xlink" version="1.1" baseProfile="full" viewBox="0 0 200 200" width="200" height="200">
<g fill="black">
<path d="M 39.5 26.0 L 166.0 26.0 L 176.0 16.0 L 188.0 26.0 L 188.0 30.0 L 39.5 30.0 L 39.5 91.0 L 38.9 105.1 L 38.0 118.3 L 36.5 130.5 L 34.6 141.9 L 32.2 152.3 L 29.4 161.8 L 26.0 170.3 L 22.1 177.8 L 17.6 184.2 L 12.6 189.5 L 11.3 188.4 L 14.7 182.3 L 17.7 175.6 L 20.4 168.1 L 22.7 159.8 L 24.7 150.6 L 26.2 140.5 L 27.4 129.5 L 28.2 117.6 L 28.5 104.7 L 28.5 20.5 Z M 145.5 40.5 L 147.4 43.6 L 143.23137521743774 44.10310983657837 L 142.1 45.9 L 140.3 48.6 L 138.6 51.2 L 132.9 59.0 L 130.9 61.5 L 128.7 64.0 L 128.55384616851808 64.2 L 165.8 64.2 L 171.8 59.2 L 182.8 68.2 L 177.8 72.2 L 177.8 177.8 L 165.8 183.8 L 165.8 173.8 L 113.6 173.8 L 113.6 180.8 L 102.6 186.3 L 102.6 58.7 L 113.6 64.2 L 125.76774196624756 64.2 L 126.3 62.7 L 127.1 59.6 L 128.9 53.4 L 129.9 50.4 L 130.8 47.4 L 131.8 44.4 L 132.7 41.5 L 133.6 38.5 L 134.20883798599243 36.538188743591306 L 134.1 36.5 L 134.44653463363647 35.77227725982666 L 134.5 35.6 L 134.52357139587403 35.610499954223634 L 135.1 34.4 Z M 113.6 138.6 L 113.6 169.8 L 165.8 169.8 L 165.8 138.6 Z M 62.9 60.4 L 81.6 60.4 L 87.1 55.4 L 97.6 64.4 L 92.6 67.9 L 92.6 148.4 L 81.6 153.9 L 81.6 142.4 L 62.9 142.4 L 62.9 154.4 L 51.9 159.9 L 51.9 54.9 Z M 62.9 64.4 L 62.9 138.4 L 81.6 138.4 L 81.6 64.4 Z M 113.6 103.4 L 113.6 134.6 L 165.8 134.6 L 165.8 103.4 Z M 113.6 68.2 L 113.6 99.4 L 165.8 99.4 L 165.8 68.2 Z " />
</g>
</svg>
