<svg xmlns="http://www.w3.org/2000/svg" xmlns:xlink="http://www.w3.org/1999/xlink" version="1.1" baseProfile="full" viewBox="0 0 200 200" width="200" height="200">
<g fill="black">
<path d="M 51.0 120.2 L 149.0 120.2 L 155.0 115.2 L 166.0 124.2 L 161.0464684486389 127.17211894989013 L 161.1 132.9 L 161.7 142.5 L 162.7 151.0 L 164.2 158.3 L 166.1 164.2 L 168.5 168.9 L 171.1 172.3 L 174.1 174.6 L 176.4800000190735 175.6199999809265 L 182.0 151.7 L 184.0 151.7 L 182.07715740203858 176.69695434570312 L 182.1 176.7 L 186.3 178.6 L 187.9 182.9 L 186.0 187.0 L 181.8 188.7 L 174.5 187.7 L 168.1 185.0 L 162.6 180.8 L 158.3 175.2 L 155.0 168.7 L 152.6 161.2 L 150.9 152.9 L 149.8 143.6 L 149.1 133.3 L 149.08975315093994 132.16260280609131 L 149.0 132.2 L 149.0 124.2 L 51.0 124.2 L 51.0 137.2 L 50.3 144.5 L 49.0 151.4 L 47.0 157.9 L 44.4 163.9 L 41.1 169.3 L 37.1 174.1 L 32.5 178.4 L 27.4 181.9 L 21.6 184.8 L 15.3 186.9 L 14.6 185.3 L 19.7 181.5 L 24.1 177.7 L 28.0 173.6 L 31.2 169.4 L 33.8 164.9 L 35.9 160.0 L 37.5 154.9 L 38.5 149.4 L 39.0 143.5 L 39.0 114.2 Z M 106.0 126.6 L 109.0 128.6 L 106.0 130.4 L 106.0 137.2 L 123.81818180084228 137.2 L 132.0 128.2 L 142.0 137.2 L 142.0 141.2 L 106.0 141.2 L 106.0 154.2 L 124.0 154.2 L 134.0 144.2 L 146.0 154.2 L 146.0 158.2 L 106.0 158.2 L 106.0 178.4 L 94.0 184.4 L 94.0 158.2 L 54.0 158.2 L 54.0 154.2 L 94.0 154.2 L 94.0 141.2 L 58.0 141.2 L 58.0 137.2 L 94.0 137.2 L 94.0 124.6 Z M 43.6 115.2 L 43.6 66.6 L 55.6 72.6 L 144.4 72.6 L 150.4 67.6 L 161.4 76.6 L 156.4 80.6 L 156.4 109.2 L 144.4 115.2 L 144.4 109.2 L 55.6 109.2 Z M 55.6 92.9 L 55.6 105.2 L 94.0 105.2 L 94.0 92.9 Z M 106.0 92.9 L 106.0 105.2 L 144.4 105.2 L 144.4 92.9 Z M 55.6 76.6 L 55.6 88.9 L 94.0 88.9 L 94.0 76.6 Z M 106.0 76.6 L 106.0 88.9 L 144.4 88.9 L 144.4 76.6 Z M 166.1 32.2 L 169.1 34.2 L 166.1 36.0 L 166.1 63.6 L 154.1 69.6 L 154.1 63.6 L 45.8 63.6 L 33.8 69.6 L 33.8 30.2 L 45.8 32.2 L 48.8 34.2 L 45.8 36.0 L 45.8 59.6 L 154.1 59.6 L 154.1 30.2 Z M 70.2 22.0 L 129.7 22.0 L 135.7 17.0 L 146.7 26.0 L 141.7 30.0 L 141.7 46.8 L 129.7 52.8 L 129.7 46.8 L 70.2 46.8 L 58.2 52.8 L 58.2 16.0 Z M 70.2 26.0 L 70.2 42.8 L 129.7 42.8 L 129.7 26.0 Z " />
</g>
</svg>
