<svg xmlns="http://www.w3.org/2000/svg" xmlns:xlink="http://www.w3.org/1999/xlink" version="1.1" baseProfile="full" viewBox="0 0 200 200" width="200" height="200">
<g fill="black">
<path d="M 24.9 173.5 L 92.5 173.5 L 92.5 129.7 L 36.0 129.7 L 36.0 125.7 L 92.5 125.7 L 92.5 96.7 L 104.5 98.7 L 107.5 100.7 L 104.5 102.5 L 104.5 125.7 L 138.9 125.7 L 148.9 115.7 L 160.9 125.7 L 160.9 129.7 L 104.5 129.7 L 104.5 173.5 L 150.0 173.5 L 160.0 163.5 L 172.0 173.5 L 172.0 177.5 L 24.9 177.5 Z M 52.7 82.7 L 51.2 79.1 L 49.6 75.6 L 47.8 72.2 L 45.9 68.8 L 43.9 65.5 L 41.8 62.3 L 39.6 59.0 L 37.1 55.9 L 38.25890407562256 54.547945213317874 L 37.6 55.1 L 36.3 53.9 L 38.8 49.9 L 41.2 45.8 L 43.5 42.0 L 45.7 38.2 L 47.8 34.5 L 49.7 30.9 L 51.6 27.4 L 54.8 20.6 L 55.80018510818481 18.242420768737794 L 55.7 18.2 L 56.7 16.3 L 66.8 22.9 L 68.5 26.1 L 64.52644987106324 26.305528450012208 L 62.3 29.5 L 59.8 32.7 L 57.2 36.0 L 54.4 39.2 L 51.4 42.5 L 48.3 45.7 L 44.9 48.9 L 41.3 52.0 L 38.30921535491943 54.50579252243042 L 41.8 56.7 L 45.2 59.0 L 48.4 61.6 L 51.5 64.5 L 54.4 67.5 L 57.1 70.8 L 59.7 74.3 L 62.1 77.9 L 64.3 81.7 L 66.4 85.7 L 66.3 90.3 L 63.1 93.5 L 58.5 93.4 L 55.3 90.2 L 54.0 86.4 Z M 99.7 82.7 L 98.2 79.1 L 96.6 75.6 L 94.8 72.2 L 92.9 68.8 L 90.9 65.5 L 88.8 62.3 L 86.6 59.0 L 84.1 55.9 L 85.25890407562255 54.547945213317874 L 84.6 55.1 L 83.3 53.9 L 85.8 49.9 L 88.2 45.8 L 90.5 42.0 L 92.7 38.2 L 94.8 34.5 L 96.7 30.9 L 98.6 27.4 L 101.8 20.6 L 102.80018510818482 18.242420768737794 L 102.7 18.2 L 103.7 16.3 L 113.8 22.9 L 115.5 26.1 L 111.52644987106324 26.305528450012208 L 109.3 29.5 L 106.8 32.7 L 104.2 36.0 L 101.4 39.2 L 98.4 42.5 L 95.3 45.7 L 91.9 48.9 L 88.3 52.0 L 85.30921535491943 54.50579252243042 L 88.8 56.7 L 92.2 59.0 L 95.4 61.6 L 98.5 64.5 L 101.4 67.5 L 104.1 70.8 L 106.7 74.3 L 109.1 77.9 L 111.3 81.7 L 113.4 85.7 L 113.3 90.3 L 110.1 93.5 L 105.5 93.4 L 102.3 90.2 L 101.0 86.4 Z M 146.7 82.7 L 145.2 79.1 L 143.6 75.6 L 141.8 72.2 L 139.9 68.8 L 137.9 65.5 L 135.8 62.3 L 133.6 59.0 L 131.1 55.9 L 132.25890407562255 54.547945213317874 L 131.6 55.1 L 130.3 53.9 L 132.8 49.9 L 135.2 45.8 L 137.5 42.0 L 139.7 38.2 L 141.8 34.5 L 143.7 30.9 L 145.6 27.4 L 148.8 20.6 L 149.80018510818482 18.242420768737794 L 149.7 18.2 L 150.7 16.3 L 160.8 22.9 L 162.5 26.1 L 158.52644987106322 26.305528450012208 L 156.3 29.5 L 153.8 32.7 L 151.2 36.0 L 148.4 39.2 L 145.4 42.5 L 142.3 45.7 L 138.9 48.9 L 135.3 52.0 L 132.30921535491944 54.50579252243042 L 135.8 56.7 L 139.2 59.0 L 142.4 61.6 L 145.5 64.5 L 148.4 67.5 L 151.1 70.8 L 153.7 74.3 L 156.1 77.9 L 158.3 81.7 L 160.4 85.7 L 160.3 90.3 L 157.1 93.5 L 152.5 93.4 L 149.3 90.2 L 148.0 86.4 Z " />
</g>
</svg>
