<svg xmlns="http://www.w3.org/2000/svg" xmlns:xlink="http://www.w3.org/1999/xlink" version="1.1" baseProfile="full" viewBox="0 0 200 200" width="200" height="200">
<g fill="black">
<path d="M 150.4 182.9 L 138.8 180.8 L 128.6 177.7 L 119.7 173.6 L 112.2 168.6 L 106.2 162.6 L 101.8 155.8 L 99.9119888305664 150.48559818267822 L 97.9 155.3 L 94.7 161.6 L 90.9 167.4 L 86.7 172.8 L 82.1 177.6 L 76.9 182.0 L 71.3 185.7 L 65.2 188.7 L 64.3 187.2 L 69.0 182.7 L 73.3 178.0 L 77.2 173.2 L 80.7 168.2 L 83.7 163.0 L 86.4 157.4 L 88.6 151.5 L 90.5 145.4 L 91.9 138.8 L 92.83777694702148 133.00283327102662 L 92.8 133.0 L 93.3 130.0 L 104.8 133.9 L 107.5 136.4 L 103.88058919906616 137.7819568634033 L 103.0 141.5 L 102.06524066925049 144.38556146621704 L 103.1 146.8 L 106.8 152.7 L 111.4 157.7 L 117.0 161.8 L 123.8 165.3 L 125.3 165.80625 L 125.3 121.0 L 80.4 121.0 L 80.4 117.0 L 168.21818180084227 117.0 L 176.4 108.0 L 186.4 117.0 L 186.4 121.0 L 137.3 121.0 L 137.3 143.0 L 159.9181818008423 143.0 L 168.1 134.0 L 178.1 143.0 L 178.1 147.0 L 137.3 147.0 L 137.3 169.1956521987915 L 141.0 170.0 L 151.6 171.2 L 163.6 171.7 L 176.9 171.4 L 188.4 171.0 L 177.3 184.5 L 163.2 184.2 Z M 14.3 151.0 L 19.4 149.4 L 24.8 147.7 L 30.6 145.8 L 36.6 143.7 L 40.5 142.359375 L 40.5 72.0 L 15.3 72.0 L 15.3 68.0 L 40.5 68.0 L 40.5 17.0 L 52.5 19.0 L 55.5 21.0 L 52.5 22.8 L 52.5 68.0 L 57.4 68.0 L 67.4 58.0 L 79.4 68.0 L 79.4 72.0 L 52.5 72.0 L 52.5 137.96000003814697 L 56.7 136.4 L 64.0 133.7 L 71.8 130.9 L 79.9 128.1 L 80.7 129.8 L 73.4 134.4 L 66.3 138.6 L 59.4 142.4 L 52.8 146.0 L 46.4 149.3 L 40.2 152.3 L 34.3 155.1 L 28.7 157.7 L 23.3 160.1 L 22.098109626770018 160.6184624671936 L 21.1 164.5 L 18.2 162.3 L 12.4 151.6 Z M 109.2 56.0 L 153.4 56.0 L 159.4 51.0 L 170.4 60.0 L 165.4 64.0 L 165.4 102.9 L 153.4 108.9 L 153.4 102.9 L 109.2 102.9 L 97.2 108.9 L 97.2 50.0 Z M 109.2 80.8 L 109.2 98.9 L 153.4 98.9 L 153.4 80.8 Z M 109.2 60.0 L 109.2 76.8 L 153.4 76.8 L 153.4 60.0 Z M 91.7 44.2 L 91.4 48.0 L 90.8 51.8 L 90.0 55.4 L 88.9 58.8 L 87.5 62.0 L 85.9 65.1 L 82.0 67.4 L 77.5 66.4 L 75.2 62.4 L 76.3 58.0 L 77.9 56.2 L 79.5 54.1 L 81.0 51.8 L 82.4 49.1 L 83.8 46.2 L 85.0 42.9 L 86.1 39.3 L 87.1 35.5 L 88.2 31.4 L 88.8 27.0 L 90.6 27.0 L 91.1 31.5 L 91.6 35.9 L 91.65238094329834 37.0 L 125.3 37.0 L 125.3 12.0 L 137.3 14.0 L 140.3 16.0 L 137.3 17.8 L 137.3 37.0 L 170.0 37.0 L 170.63157892227173 36.47368421554565 L 170.7 36.2 L 170.86080923080445 36.28265895843506 L 176.0 32.0 L 187.0 41.0 L 182.0 44.0 L 177.4064516067505 45.91397848129272 L 175.6 47.6 L 174.0 49.0 L 172.3 50.4 L 170.6 51.7 L 168.8 52.9 L 166.8 54.1 L 165.3 55.6 L 163.9 54.3 L 165.2 52.6 L 166.8 48.6 L 167.5 46.7 L 168.2 44.9 L 169.4 41.3 L 169.48333330154418 41.0 L 91.77804880142212 41.0 Z " />
</g>
</svg>
