<svg xmlns="http://www.w3.org/2000/svg" xmlns:xlink="http://www.w3.org/1999/xlink" version="1.1" baseProfile="full" viewBox="0 0 200 200" width="200" height="200">
<g fill="black">
<path d="M 14.0 176.5 L 94.0 176.5 L 94.0 154.1 L 27.0 154.1 L 27.0 150.1 L 94.0 150.1 L 94.0 136.1 L 83.2 141.5 L 83.2 96.2 L 95.2 102.2 L 153.7 102.2 L 159.7 97.2 L 170.7 106.2 L 165.7 110.2 L 165.7 134.5 L 153.7 140.5 L 153.7 132.5 L 97.6 132.5 L 106.0 133.9 L 109.0 135.9 L 106.0 137.7 L 106.0 150.1 L 154.8181818008423 150.1 L 163.0 141.1 L 173.0 150.1 L 173.0 154.1 L 106.0 154.1 L 106.0 176.5 L 164.0 176.5 L 174.0 166.5 L 186.0 176.5 L 186.0 180.5 L 14.0 180.5 Z M 83.0 37.5 L 82.8 40.8 L 82.3 44.1 L 81.4 47.2 L 80.2 50.2 L 78.7 52.9 L 76.7 55.5 L 74.5 57.8 L 70.08792371749878 58.682415294647214 L 67.0 64.8 L 62.0 74.3 L 57.5 82.8 L 53.5 90.4 L 49.9 97.1 L 47.0 102.9 L 44.5 107.8 L 42.7 111.8 L 41.4 114.9 L 41.248760318756105 115.33211336135864 L 41.5 115.7 L 43.6 120.3 L 45.0 125.5 L 45.6 131.1 L 45.5 137.1 L 43.2 141.0 L 38.8 142.2 L 34.9 139.9 L 33.6 135.5 L 34.3 130.9 L 34.5 126.7 L 34.2 122.9 L 33.4 119.4 L 32.1 116.3 L 30.2 113.3 L 27.6 110.5 L 24.3 107.8 L 20.3 105.3 L 15.5 103.1 L 15.9 101.4 L 21.4 102.2 L 26.5 103.5 L 31.1 105.5 L 33.14207620620728 106.84478187561035 L 33.3 106.6 L 35.8 102.8 L 38.9 98.2 L 42.7 92.7 L 47.0 86.5 L 51.9 79.4 L 57.4 71.5 L 63.7 62.8 L 67.8132402420044 57.354301643371585 L 66.1 56.3 L 65.2 51.8 L 67.7 47.9 L 69.3 47.2 L 70.8 46.2 L 72.4 44.9 L 73.8 43.3 L 75.3 41.4 L 76.6 39.1 L 77.8 36.4 L 78.9 33.4 L 80.0 30.1 L 80.4 26.4 L 82.2 26.4 L 82.5 30.2 L 82.71621618270873 32.2 L 118.5 32.2 L 118.5 13.4 L 130.5 15.4 L 133.5 17.4 L 130.5 19.2 L 130.5 32.2 L 167.5 32.2 L 168.37857141494752 31.46785717010498 L 168.5 30.8 L 168.87525081634521 31.053957653045654 L 173.5 27.2 L 184.5 36.2 L 179.5 39.2 L 170.0615385055542 43.13269233703613 L 168.8 44.0 L 166.9 45.1 L 165.0 46.3 L 163.3 47.9 L 162.0 46.7 L 163.4 44.9 L 164.3 42.8 L 165.1 40.9 L 165.9 39.1 L 166.6 37.4 L 166.975 36.2 L 82.96388893127441 36.2 Z M 95.2 106.2 L 95.2 128.5 L 153.7 128.5 L 153.7 106.2 Z M 130.5 41.7 L 133.5 43.7 L 130.5 45.5 L 130.5 47.64444446563721 L 136.9 46.4 L 143.8 45.1 L 150.4 43.7 L 155.70560579299928 42.52097644805908 L 155.7 42.5 L 155.72119092941284 42.51751317977905 L 156.7 42.3 L 156.9141731262207 43.50344886779785 L 167.8 52.5 L 168.2 55.5 L 163.75742835998534 53.218679428100586 L 158.8 54.1 L 152.3 54.9 L 145.4 55.7 L 138.3 56.4 L 130.9 57.0 L 130.5 57.03116884231567 L 130.5 69.4 L 154.3181818008423 69.4 L 162.5 60.4 L 172.5 69.4 L 172.5 73.4 L 130.5 73.4 L 130.5 85.4 L 164.11818180084228 85.4 L 172.3 76.4 L 182.3 85.4 L 182.3 89.4 L 130.5 89.4 L 130.5 96.1 L 118.5 102.1 L 118.5 89.4 L 66.6 89.4 L 66.6 85.4 L 118.5 85.4 L 118.5 73.4 L 76.4 73.4 L 76.4 69.4 L 118.5 69.4 L 118.5 57.83797464370728 L 115.3 58.0 L 107.0 58.4 L 98.4 58.6 L 89.6 58.7 L 80.4 58.4 L 80.3 56.6 L 89.3 54.9 L 97.9 53.3 L 106.3 51.9 L 114.4 50.5 L 118.5 49.76410255432129 L 118.5 39.7 Z M 34.7 67.2 L 33.2 65.7 L 31.4 64.1 L 29.2 62.5 L 26.7 60.8 L 23.9 59.1 L 20.8 57.4 L 17.3 55.6 L 13.5 54.2 L 13.9 52.5 L 18.0 53.1 L 22.0 53.4 L 25.7 54.0 L 29.2 54.7 L 32.5 55.6 L 35.5 56.6 L 38.4 57.7 L 41.0 59.0 L 43.4 60.5 L 45.7 62.3 L 47.1 66.6 L 45.1 70.7 L 40.7 72.1 L 36.6 70.1 L 35.8 68.7 Z M 48.4 33.6 L 47.1 32.0 L 45.4 30.4 L 43.4 28.8 L 41.1 27.2 L 38.5 25.5 L 35.7 23.8 L 32.6 22.0 L 29.2 20.7 L 29.6 18.9 L 33.3 19.6 L 37.0 19.9 L 40.5 20.5 L 43.7 21.2 L 46.8 22.1 L 49.6 23.1 L 52.3 24.2 L 54.9 25.5 L 57.2 27.0 L 59.4 28.7 L 60.8 33.0 L 58.8 37.2 L 54.4 38.5 L 50.3 36.5 L 49.5 35.1 Z " />
</g>
</svg>
