<svg xmlns="http://www.w3.org/2000/svg" xmlns:xlink="http://www.w3.org/1999/xlink" version="1.1" baseProfile="full" viewBox="0 0 200 200" width="200" height="200">
<g fill="black">
<path d="M 143.0 175.9 L 163.0 175.9 L 164.2 175.8 L 165.1 175.7 L 165.7 175.5 L 166.0 175.3 L 166.2 175.1 L 166.4 175.0 L 166.5 174.6 L 166.7 174.0 L 166.9 173.1 L 167.0 171.9 L 167.0 82.93043479919433 L 162.5 81.3 L 155.8 78.5 L 149.4 75.3 L 143.3 71.9 L 137.4 68.1 L 131.7 64.0 L 126.4 59.5 L 121.5 54.6 L 117.59811325073242 49.9 L 87.88648653030396 49.9 L 87.7 50.1 L 79.8 57.1 L 70.9 63.5 L 61.1 69.5 L 56.20268230438232 71.97154350280762 L 60.5 74.6 L 62.3 77.7 L 58.60060358047485 78.01891345977783 L 56.5 81.8 L 52.4 88.8 L 48.0 95.7 L 43.5 102.4 L 38.8 109.0 L 38.64813079833984 109.19135513305665 L 43.5 110.0 L 46.5 112.0 L 43.5 113.8 L 43.5 179.8 L 31.5 185.8 L 31.5 118.05098037719726 L 28.7 121.4 L 23.3 127.4 L 17.6 133.0 L 11.6 138.3 L 10.3 137.1 L 14.7 130.5 L 23.5 117.5 L 27.7 110.9 L 31.7 104.2 L 35.6 97.5 L 39.4 90.6 L 43.0 83.6 L 46.4 76.6 L 46.439540195465085 76.51103448867798 L 38.6 79.7 L 25.9 84.0 L 12.2 87.7 L 11.7 86.0 L 24.6 80.5 L 36.5 74.8 L 47.3 69.0 L 57.2 63.0 L 66.0 56.6 L 73.7 50.0 L 73.7985294342041 49.9 L 17.0 49.9 L 17.0 45.9 L 77.73970584869384 45.9 L 80.4 43.2 L 86.1 36.1 L 90.8 28.7 L 92.25882349014282 25.6 L 33.0 25.6 L 33.0 21.6 L 145.0 21.6 L 155.0 11.6 L 167.0 21.6 L 167.0 25.6 L 105.66000003814698 25.6 L 105.4 26.1 L 100.5 34.7 L 94.6 42.7 L 91.61621618270874 45.9 L 161.0 45.9 L 171.0 35.9 L 183.0 45.9 L 183.0 49.9 L 121.6714285850525 49.9 L 124.2 51.4 L 129.9 54.8 L 135.7 57.9 L 141.6 60.9 L 147.5 63.6 L 153.6 66.0 L 159.8 68.2 L 166.2 70.1 L 172.7 71.7 L 179.4 73.1 L 188.2 75.1 L 179.0 83.67094020843506 L 179.0 171.9 L 178.8 174.5 L 178.4 176.9 L 177.6 179.4 L 176.3 181.6 L 174.7 183.6 L 172.7 185.3 L 170.4 186.5 L 168.0 187.3 L 165.5 187.8 L 163.0 187.9 L 163.0 181.9 L 143.0 178.9 Z M 87.4 138.0 L 86.5 136.4 L 85.4 134.8 L 83.9 133.1 L 82.2 131.3 L 80.2 129.5 L 78.0 127.7 L 75.5 125.7 L 74.55724382400513 125.1798586845398 L 72.9 127.5 L 68.0 133.4 L 62.7 138.8 L 56.8 143.6 L 50.5 147.7 L 49.4 146.4 L 54.2 140.8 L 58.7 135.1 L 62.9 129.3 L 66.6 123.3 L 70.0 117.0 L 73.0 110.4 L 75.6 103.5 L 77.8 96.3 L 79.6 88.8 L 80.44179105758667 84.1 L 61.0 84.1 L 61.0 80.1 L 115.0 80.1 L 125.0 70.1 L 137.0 80.1 L 137.0 84.1 L 92.575 84.1 L 90.7 91.6 L 88.0 99.6 L 86.12368421554565 104.2 L 113.0 104.2 L 119.0 99.2 L 130.0 108.2 L 125.0 111.2 L 123.66729860305786 111.75529222488403 L 121.8 119.1 L 117.7 130.1 L 112.6 140.2 L 106.6 149.4 L 99.6 157.7 L 91.7 165.1 L 82.9 171.4 L 73.2 176.7 L 62.6 181.0 L 51.2 184.1 L 50.7 182.4 L 61.2 177.5 L 70.6 172.0 L 79.1 166.0 L 86.7 159.4 L 93.3 152.1 L 99.0 144.2 L 103.8 135.5 L 107.7 126.1 L 110.8 116.0 L 112.44587154388428 108.2 L 84.41388893127441 108.2 L 81.4 114.4 L 77.4 121.2 L 75.88932380676269 123.31494665145874 L 76.5 123.5 L 79.7 124.1 L 82.7 125.0 L 85.5 126.0 L 88.2 127.0 L 90.7 128.3 L 92.9 129.6 L 95.1 131.2 L 97.0 132.9 L 98.7 134.8 L 99.2 139.3 L 96.4 143.0 L 91.9 143.4 L 88.2 140.7 L 87.9 139.4 Z M 147.0 91.1 L 150.0 93.1 L 147.0 94.9 L 147.0 156.8 L 135.0 162.8 L 135.0 89.1 Z " />
</g>
</svg>
