<svg xmlns="http://www.w3.org/2000/svg" xmlns:xlink="http://www.w3.org/1999/xlink" version="1.1" baseProfile="full" viewBox="0 0 200 200" width="200" height="200">
<g fill="black">
<path d="M 148.6 177.1 L 144.9 173.1 L 140.7 169.3 L 135.8 165.5 L 130.3 161.8 L 124.3 158.2 L 117.6 154.7 L 110.4 151.2 L 102.6 147.6 L 102.75377445220947 147.16430568695068 L 102.4 147.3 L 101.5 145.6 L 107.9 141.2 L 114.0 136.9 L 119.8 132.9 L 125.3 128.9 L 130.4 125.1 L 135.3 121.3 L 139.7 117.6 L 143.9 113.9 L 146.5789605140686 111.36203746795654 L 142.0 108.8 L 133.3 104.4 L 124.1 100.2 L 114.4 96.2 L 112.07365016937256 95.32473964691162 L 108.8 97.4 L 95.6 103.4 L 83.16764621734619 107.59900693893432 L 90.6 115.3 L 91.3 118.9 L 87.53212556838989 117.97455720901489 L 86.7 118.7 L 82.6 122.0 L 78.2 125.2 L 73.5 128.5 L 68.5 131.7 L 63.2 134.9 L 57.5 138.0 L 51.5 141.1 L 45.2 144.0 L 40.76468467712402 145.76108112335206 L 47.0 147.2 L 54.3 149.5 L 61.1 152.0 L 67.5 154.9 L 73.4 158.1 L 78.9 161.6 L 83.9 165.3 L 88.5 169.3 L 92.7 173.6 L 96.3 178.2 L 97.1 182.7 L 94.6 186.5 L 90.1 187.3 L 86.3 184.7 L 83.7 180.7 L 80.7 176.7 L 77.2 172.8 L 73.2 168.9 L 68.7 165.2 L 63.6 161.5 L 58.1 157.9 L 52.1 154.3 L 45.6 150.8 L 38.6 147.1 L 38.79678068161011 146.54245471954346 L 38.4 146.7 L 37.5 145.2 L 43.2 140.7 L 48.7 136.5 L 54.0 132.5 L 58.9 128.6 L 63.5 124.8 L 67.9 121.1 L 71.9 117.5 L 75.6 113.9 L 78.9 110.4 L 80.60893449783325 108.46320753097534 L 80.5 108.5 L 63.4 112.6 L 44.2 115.6 L 23.1 117.5 L 22.8 115.7 L 43.6 111.8 L 62.1 107.3 L 78.5 102.2 L 92.7 96.5 L 101.75764331817626 91.55254774093628 L 93.8 88.9 L 82.9 85.5 L 71.6 82.2 L 63.57202024459839 80.02292079925537 L 54.2 94.1 L 40.9 92.5 L 67.83300247192383 52.0 L 14.0 52.0 L 14.0 48.0 L 70.49305210113525 48.0 L 94.5 11.9 L 103.4 20.2 L 104.8 23.6 L 100.8908763885498 23.968785285949707 L 84.89174556732178 48.0 L 164.0 48.0 L 174.0 38.0 L 186.0 48.0 L 186.0 52.0 L 143.56379308700562 52.0 L 141.3 62.1 L 136.4 72.6 L 129.3 82.0 L 120.98200263977051 89.42358903884887 L 127.4 91.5 L 137.3 95.2 L 146.7 99.2 L 155.8 103.5 L 164.5 108.2 L 167.2 111.9 L 166.5 116.4 L 162.8 119.0 L 159.93450288772584 118.61793375015259 L 160.0 119.0 L 156.22868757247926 118.0075493812561 L 155.1 118.9 L 150.6 122.3 L 145.8 125.6 L 140.6 128.9 L 135.1 132.2 L 129.3 135.4 L 123.1 138.5 L 116.6 141.6 L 109.7 144.5 L 105.07323942184448 146.27464790344237 L 111.7 147.6 L 119.6 149.7 L 127.0 152.3 L 133.9 155.1 L 140.3 158.3 L 146.1 161.8 L 151.5 165.5 L 156.3 169.6 L 160.6 174.0 L 164.4 178.7 L 165.1 183.2 L 162.6 187.0 L 158.1 187.7 L 154.3 185.2 L 151.7 181.1 Z M 82.22868738174438 52.0 L 65.09692811965942 77.7324595451355 L 72.3 78.5 L 84.1 80.3 L 95.5 82.5 L 106.6 85.2 L 109.94110355377197 86.14559535980224 L 114.3 83.0 L 121.7 75.4 L 127.1 67.3 L 130.5 58.7 L 131.50114946365358 52.0 Z " />
</g>
</svg>
