<svg xmlns="http://www.w3.org/2000/svg" xmlns:xlink="http://www.w3.org/1999/xlink" version="1.1" baseProfile="full" viewBox="0 0 200 200" width="200" height="200">
<g fill="black">
<path d="M 63.2 147.6 L 59.9 143.5 L 56.2 139.5 L 54.843323707580566 138.2450744628906 L 53.8 140.5 L 46.8 152.8 L 38.9 163.8 L 30.2 173.5 L 20.6 181.8 L 10.2 188.7 L 9.2 187.2 L 18.1 179.0 L 26.2 169.9 L 33.6 159.9 L 40.2 148.9 L 46.1 136.9 L 47.94927377700806 132.2412525177002 L 47.9 132.2 L 43.1 128.8 L 38.1 125.5 L 32.90291538238525 122.47624168395996 L 30.9 133.1 L 18.0 136.8 L 31.93132629394531 63.0 L 14.9 63.0 L 14.9 59.0 L 32.68641176223755 59.0 L 41.2 13.9 L 52.6 18.0 L 55.2 20.6 L 51.923324775695804 21.589184951782226 L 44.870199871063235 59.0 L 64.3 59.0 L 70.3 54.0 L 81.3 63.0 L 76.3 66.0 L 75.46555118560791 66.34768705368042 L 73.4 79.7 L 69.8 96.7 L 65.3 112.5 L 60.0 127.1 L 58.675422763824464 129.96279592514037 L 62.3 132.5 L 67.0 136.4 L 71.4 140.7 L 75.4 145.3 L 79.0 150.3 L 79.7 154.8 L 77.0 158.5 L 72.5 159.2 L 68.8 156.5 L 66.1 152.0 Z M 170.5 157.2 L 171.0 148.6 L 171.4 139.3 L 171.8 129.3 L 172.1 118.6 L 172.3 107.2 L 172.5 95.1 L 172.5 82.4 L 172.5850746154785 71.0 L 95.54736843109131 71.0 L 94.7 73.3 L 92.3 78.9 L 91.2814814567566 81.14074077606202 L 102.6 86.8 L 149.4 86.8 L 155.4 81.8 L 166.4 90.8 L 161.4 94.8 L 161.4 169.4 L 161.2 171.9 L 160.8 174.4 L 160.0 176.8 L 159.8956521987915 177.0 L 164.4 177.0 L 165.7 176.9 L 166.6 176.7 L 167.3 176.5 L 167.8 176.3 L 168.4 175.7 L 168.6 175.3 L 168.9 174.6 L 169.2 173.7 L 169.4 172.4 L 170.0 165.2 Z M 102.6 116.6 L 102.6 139.0 L 120.0 139.0 L 120.0 116.6 Z M 132.0 116.6 L 132.0 139.0 L 149.4 139.0 L 149.4 116.6 Z M 44.11607294082641 63.0 L 33.61153869628906 118.71759910583496 L 34.0 118.8 L 40.3 120.7 L 46.3 123.0 L 50.74987115859985 125.1859016418457 L 51.3 123.8 L 55.7 109.6 L 59.3 94.3 L 62.2 77.8 L 63.976000022888186 63.0 Z M 102.6 90.8 L 102.6 112.6 L 120.0 112.6 L 120.0 90.8 Z M 132.0 90.8 L 132.0 112.6 L 149.4 112.6 L 149.4 90.8 Z M 157.8 14.4 L 160.8 16.4 L 157.8 18.2 L 157.8 32.2 L 164.7 32.2 L 174.7 22.2 L 186.7 32.2 L 186.7 36.2 L 157.8 36.2 L 157.8 51.2 L 145.8 57.2 L 145.8 36.2 L 124.6 36.2 L 124.6 51.2 L 112.6 57.2 L 112.6 36.2 L 83.6 36.2 L 83.6 32.2 L 112.6 32.2 L 112.6 12.4 L 124.6 14.4 L 127.6 16.4 L 124.6 18.2 L 124.6 32.2 L 145.8 32.2 L 145.8 12.4 Z M 180.3 178.5 L 179.3 180.9 L 177.9 183.0 L 176.2 184.9 L 174.1 186.4 L 171.9 187.6 L 169.5 188.4 L 167.0 188.8 L 164.4 189.0 L 164.4 183.0 L 156.2526315689087 181.77789478302003 L 155.1 182.7 L 152.8 184.0 L 150.4 184.8 L 147.9 185.2 L 145.4 185.4 L 145.4 180.15 L 144.4 180.0 L 144.4 179.15 L 133.4 176.4 L 133.4 173.4 L 145.4 173.4 L 146.6 173.3 L 147.5 173.1 L 148.4 172.8 L 148.8 172.4 L 149.0 172.1 L 149.1 171.5 L 149.3 170.6 L 149.4 169.4 L 149.4 143.0 L 132.0 143.0 L 132.0 172.8 L 120.0 178.8 L 120.0 143.0 L 102.6 143.0 L 102.6 178.8 L 90.6 184.8 L 90.6 82.63999996185302 L 89.8 84.4 L 87.1 89.8 L 84.2 95.1 L 81.0 100.3 L 77.5 105.3 L 75.9 104.6 L 77.6 98.7 L 79.3 93.0 L 81.1 87.3 L 82.7 81.7 L 84.3 76.0 L 85.8 70.4 L 87.2 64.7 L 88.5 59.0 L 90.50684003829956 48.60091962814331 L 90.5 48.6 L 90.57058820724487 48.27058820724487 L 90.7 47.6 L 90.71363639831543 47.60303030014038 L 91.1 45.8 L 102.4 50.2 L 104.9 52.8 L 101.29168376922607 54.04650926589966 L 100.7 56.1 L 98.8 61.9 L 97.01052627563476 67.0 L 172.6 67.0 L 178.6 62.0 L 189.6 71.0 L 184.6 74.0 L 184.56257019042968 74.01559572219848 L 184.5 82.4 L 184.4 95.3 L 184.3 107.4 L 184.1 118.9 L 183.8 129.6 L 183.4 139.8 L 183.0 149.2 L 182.5 158.0 L 181.9 166.1 L 181.3 173.5 L 180.9 176.1 Z " />
</g>
</svg>
