<svg xmlns="http://www.w3.org/2000/svg" xmlns:xlink="http://www.w3.org/1999/xlink" version="1.1" baseProfile="full" viewBox="0 0 200 200" width="200" height="200">
<g fill="black">
<path d="M 22.2 183.8 L 22.7 179.3 L 26.1 176.3 L 28.9 175.7 L 31.3 175.0 L 33.6 174.1 L 35.6 173.0 L 37.5 171.7 L 39.2 170.2 L 40.8 168.3 L 42.3 166.1 L 43.6 163.5 L 44.3 160.5 L 46.1 160.6 L 46.1 167.2 L 45.7 170.4 L 44.7 173.5 L 43.3 176.4 L 41.4 179.2 L 39.1 181.7 L 36.4 184.0 L 33.2 186.0 L 29.7 187.7 L 25.2 187.3 Z M 166.1 179.7 L 164.9 177.8 L 163.4 175.8 L 161.4 173.7 L 159.0 171.4 L 156.2 169.0 L 153.1 166.5 L 149.6 163.8 L 145.6 161.4 L 146.4 159.8 L 150.8 161.3 L 155.1 162.7 L 159.1 164.2 L 162.7 165.8 L 166.0 167.4 L 169.0 169.2 L 171.7 171.1 L 174.1 173.1 L 176.2 175.2 L 178.0 177.7 L 178.2 182.2 L 175.1 185.6 L 170.6 185.8 L 167.2 182.8 L 166.8 181.4 Z M 120.6 177.8 L 120.2 176.3 L 119.5 174.6 L 118.4 172.8 L 116.9 170.8 L 115.0 168.7 L 112.8 166.4 L 110.3 164.0 L 107.1 162.0 L 108.0 160.4 L 111.5 161.9 L 114.9 163.1 L 118.0 164.4 L 120.9 165.8 L 123.5 167.4 L 125.8 169.1 L 127.9 170.9 L 129.7 173.0 L 131.2 175.3 L 132.3 177.9 L 131.2 182.3 L 127.3 184.8 L 122.9 183.7 L 120.4 179.8 L 120.6 178.9 Z M 81.2 184.8 L 77.4 182.3 L 76.3 177.9 L 76.8 177.1 L 77.2 176.2 L 77.4 175.0 L 77.4 173.6 L 77.1 172.0 L 76.5 170.3 L 75.5 168.3 L 74.3 166.2 L 72.7 163.9 L 70.5 162.0 L 71.5 160.5 L 74.1 162.2 L 76.7 163.5 L 79.1 164.9 L 81.3 166.4 L 83.2 168.2 L 84.8 170.1 L 86.2 172.2 L 87.2 174.6 L 87.9 177.1 L 88.1 179.8 L 85.7 183.7 Z M 19.3 155.0 L 94.0 155.0 L 94.0 142.8 L 36.6 142.8 L 36.6 138.8 L 94.0 138.8 L 94.0 123.8 L 53.2 123.8 L 41.2 129.8 L 41.2 79.3 L 53.2 85.3 L 94.0 85.3 L 94.0 74.5 L 21.2 74.5 L 21.2 70.5 L 94.0 70.5 L 94.0 61.767241382598876 L 83.7 62.3 L 71.7 62.9 L 59.4 63.2 L 46.7 63.4 L 33.8 63.2 L 33.7 61.4 L 46.5 59.6 L 59.0 57.9 L 71.1 56.3 L 83.0 54.8 L 94.5 53.2 L 105.7 51.7 L 116.5 50.1 L 127.0 48.4 L 137.2 46.8 L 147.0 45.0 L 147.17694492340087 46.16980266571045 L 158.5 55.5 L 158.9 58.4 L 154.40146484375 56.09154119491577 L 148.8 56.9 L 138.7 58.0 L 128.4 59.1 L 117.7 60.0 L 106.7 60.9 L 106.0 60.94912281036377 L 106.0 70.5 L 155.7 70.5 L 165.7 60.5 L 177.7 70.5 L 177.7 74.5 L 106.0 74.5 L 106.0 85.3 L 146.8 85.3 L 152.8 80.3 L 163.8 89.3 L 158.8 93.3 L 158.8 123.8 L 146.8 129.8 L 146.8 123.8 L 106.0 123.8 L 106.0 138.8 L 149.01818180084229 138.8 L 157.2 129.8 L 167.2 138.8 L 167.2 142.8 L 106.0 142.8 L 106.0 155.0 L 157.6 155.0 L 167.6 145.0 L 179.6 155.0 L 179.6 159.0 L 19.3 159.0 Z M 53.2 89.3 L 53.2 119.8 L 94.0 119.8 L 94.0 89.3 Z M 106.0 89.3 L 106.0 119.8 L 109.43529415130615 119.8 L 111.5 117.1 L 113.8 113.7 L 116.1 110.4 L 118.3 107.3 L 120.4 104.2 L 122.3 101.2 L 124.2 98.3 L 125.9 95.5 L 127.6 92.8 L 128.56517190933226 90.93859701156616 L 128.5 90.9 L 128.88333330154418 90.325 L 129.0 90.1 L 129.02268514633178 90.1159722328186 L 129.5 89.4 L 138.8 97.0 L 140.1 100.4 L 136.0069857597351 100.11772317886353 L 134.2 102.0 L 131.7 104.4 L 129.1 106.9 L 126.3 109.4 L 123.4 111.9 L 120.3 114.4 L 117.1 116.9 L 113.6 119.3 L 112.91999998092652 119.8 L 146.8 119.8 L 146.8 89.3 Z M 74.0 111.5 L 73.2 109.7 L 72.1 107.8 L 70.8 105.7 L 69.3 103.6 L 67.5 101.3 L 65.6 98.9 L 63.5 96.3 L 60.9 94.1 L 61.9 92.6 L 64.9 94.4 L 68.0 95.8 L 70.9 97.3 L 73.5 98.8 L 76.0 100.4 L 78.3 102.0 L 80.4 103.6 L 82.3 105.3 L 84.0 107.1 L 85.6 108.9 L 86.0 113.5 L 83.1 117.0 L 78.6 117.4 L 75.0 114.6 L 74.6 113.1 Z M 13.2 58.8 L 13.1 54.2 L 16.1 50.8 L 18.1 50.1 L 19.9 49.2 L 21.7 48.0 L 23.3 46.4 L 24.9 44.4 L 26.3 42.0 L 27.6 39.1 L 28.7 35.7 L 29.7 31.9 L 30.1 27.7 L 31.9 27.6 L 32.4 32.0 L 32.65609760284424 34.1 L 94.0 34.1 L 94.0 12.8 L 106.0 14.8 L 109.0 16.8 L 106.0 18.6 L 106.0 34.1 L 170.0 34.1 L 170.5 33.68333330154419 L 170.5 33.6 L 170.56449699401855 33.62958583831787 L 176.0 29.1 L 187.0 38.1 L 182.0 41.1 L 176.68571424484253 43.31428575515747 L 169.8 50.2 L 167.6 52.3 L 165.7 54.8 L 164.2 53.9 L 165.7 51.1 L 166.7 48.2 L 167.6 45.6 L 168.4 43.2 L 169.1 41.0 L 169.7 39.0 L 169.91176471710205 38.1 L 32.95 38.1 L 33.0 40.1 L 32.6 43.9 L 31.9 47.4 L 30.7 50.8 L 29.0 54.0 L 26.9 56.9 L 24.3 59.5 L 21.2 61.6 L 16.7 61.8 Z " />
</g>
</svg>
