<svg xmlns="http://www.w3.org/2000/svg" xmlns:xlink="http://www.w3.org/1999/xlink" version="1.1" baseProfile="full" viewBox="0 0 200 200" width="200" height="200">
<g fill="black">
<path d="M 108.8 179.0 L 96.8 185.0 L 96.8 147.45196075439452 L 88.5 150.3 L 78.7 153.5 L 69.2 156.5 L 60.1 159.2 L 51.4 161.8 L 43.1 164.2 L 35.3 166.5 L 27.8 168.6 L 20.7 170.7 L 17.909167957305907 171.49142999649047 L 16.6 175.0 L 14.0 172.6 L 9.2 161.3 L 11.2 160.9 L 18.0 159.6 L 23.0 158.64109592437745 L 23.0 33.0 L 33.024561405181885 38.01228065490723 L 34.5 37.3 L 40.3 34.7 L 45.9 32.2 L 51.5 29.8 L 57.0 27.3 L 62.3 24.9 L 67.5 22.4 L 72.6 20.0 L 77.6 17.4 L 81.62584590911865 15.345996952056884 L 81.6 15.3 L 81.64119930267334 15.338163566589355 L 82.5 14.9 L 83.48404703140258 17.04522247314453 L 91.1 24.1 L 91.3 27.4 L 87.46075525283814 25.815549755096434 L 82.2 27.9 L 76.8 29.8 L 71.3 31.7 L 65.6 33.6 L 59.9 35.3 L 54.0 36.9 L 48.0 38.4 L 41.9 39.8 L 35.6 40.9 L 35.0 40.984375 L 35.0 78.0 L 70.7 78.0 L 80.7 68.0 L 92.7 78.0 L 92.7 82.0 L 68.7 82.0 L 68.7 149.91443300247192 L 77.4 148.3 L 87.6 146.7 L 96.8 145.31132078170776 L 96.8 57.0 L 108.8 59.0 L 111.8 61.0 L 108.8 62.8 L 108.8 163.0 L 135.5 163.0 L 135.5 17.0 L 147.5 19.0 L 150.5 21.0 L 147.5 22.8 L 147.5 163.0 L 174.1 163.0 L 174.1 57.0 L 186.1 59.0 L 189.1 61.0 L 186.1 62.8 L 186.1 173.0 L 174.1 179.0 L 174.1 167.0 L 108.8 167.0 Z M 35.0 82.0 L 35.0 156.2851851463318 L 41.0 155.1 L 49.4 153.5 L 56.7 152.10561800003052 L 56.7 82.0 Z " />
</g>
</svg>
