<svg xmlns="http://www.w3.org/2000/svg" xmlns:xlink="http://www.w3.org/1999/xlink" version="1.1" baseProfile="full" viewBox="0 0 200 200" width="200" height="200">
<g fill="black">
<path d="M 165.4 125.8 L 161.39292364120485 120.8856611251831 L 160.5 121.6 L 160.5 180.4 L 148.5 186.4 L 148.5 176.4 L 112.8 176.4 L 112.8 183.4 L 100.8 189.4 L 100.8 118.6 L 95.7 124.6 L 86.2 133.4 L 75.8 140.8 L 74.7 139.4 L 83.6 130.6 L 91.6 121.1 L 98.8 110.9 L 105.1 99.8 L 109.53697481155396 90.2 L 76.6 90.2 L 76.6 86.2 L 111.2109375 86.2 L 115.2 75.1 L 117.98840579986572 64.7 L 88.7 64.7 L 88.7 60.7 L 119.01836738586425 60.7 L 121.8 46.6 L 122.74871797561646 39.2 L 84.2 39.2 L 84.2 35.2 L 123.2615385055542 35.2 L 123.8 31.0 L 124.83418760299682 15.299152374267578 L 124.8 15.3 L 125.0 12.1 L 136.9 15.0 L 139.8 17.2 L 136.49240894317626 18.91740303039551 L 135.1 32.3 L 134.60184049606323 35.2 L 155.7 35.2 L 165.7 25.2 L 177.7 35.2 L 177.7 39.2 L 133.91472396850585 39.2 L 132.3 48.6 L 129.3738561630249 60.7 L 151.2 60.7 L 161.2 50.7 L 173.2 60.7 L 173.2 64.7 L 140.88292684555054 64.7 L 143.7 71.7 L 147.2 79.5 L 150.45945949554442 86.2 L 163.4 86.2 L 173.4 76.2 L 185.4 86.2 L 185.4 90.2 L 152.63857145309447 90.2 L 154.7 93.9 L 159.0 100.4 L 163.6 106.6 L 168.5 112.3 L 173.8 117.6 L 179.5 122.5 L 185.5 127.0 L 188.4 129.2 L 177.5 137.5 L 171.2 131.9 Z M 112.8 147.0 L 112.8 172.4 L 148.5 172.4 L 148.5 147.0 Z M 25.1 161.0 L 14.1 166.5 L 14.1 50.0 L 25.1 52.0 L 27.8 54.0 L 25.1 55.723404216766355 L 25.1 145.0 L 36.5 145.0 L 36.5 20.0 L 47.5 22.0 L 50.2 24.0 L 47.5 25.723404216766358 L 47.5 145.0 L 60.0 145.0 L 60.0 50.0 L 72.0 52.0 L 75.0 54.0 L 72.0 55.8 L 72.0 155.0 L 60.0 161.0 L 60.0 149.0 L 25.1 149.0 Z M 112.8 117.6 L 112.8 143.0 L 148.5 143.0 L 148.5 117.6 Z M 118.81428575515747 90.2 L 118.3 91.4 L 111.7 103.6 L 106.89491529464722 110.64745759963989 L 112.8 113.6 L 148.5 113.6 L 153.47897987365724 109.45085010528564 L 151.0 105.3 L 147.3 97.7 L 144.35696201324464 90.2 Z M 128.34084510803223 64.7 L 124.0 78.1 L 120.5285714149475 86.2 L 143.0722891807556 86.2 L 141.6 81.5 L 139.7 72.9 L 138.6977777481079 64.7 Z " />
</g>
</svg>
