<svg xmlns="http://www.w3.org/2000/svg" xmlns:xlink="http://www.w3.org/1999/xlink" version="1.1" baseProfile="full" viewBox="0 0 200 200" width="200" height="200">
<g fill="black">
<path d="M 140.3 173.6 L 134.1 169.6 L 128.4 165.3 L 123.0 160.5 L 118.1 155.3 L 113.7 149.6 L 109.7 143.6 L 106.3 137.2 L 106.0 136.4333333015442 L 106.0 182.0 L 94.0 188.0 L 94.0 143.3 L 92.3 145.7 L 86.8 152.4 L 81.0 158.5 L 74.8 164.1 L 68.4 169.1 L 61.6 173.5 L 54.5 177.3 L 47.0 180.4 L 39.3 182.8 L 38.6 181.1 L 45.4 177.0 L 51.8 172.7 L 57.8 168.1 L 63.6 163.2 L 69.1 157.8 L 74.2 152.1 L 79.0 146.0 L 83.5 139.5 L 87.7 132.5 L 89.03333330154419 130.0 L 69.0 130.0 L 69.0 142.0 L 57.0 148.0 L 57.0 88.0 L 69.0 94.0 L 94.0 94.0 L 94.0 79.0 L 39.0 79.0 L 39.0 75.0 L 94.0 75.0 L 94.0 53.0 L 106.0 55.0 L 109.0 57.0 L 106.0 58.8 L 106.0 75.0 L 136.8181818008423 75.0 L 145.0 66.0 L 155.0 75.0 L 155.0 79.0 L 106.0 79.0 L 106.0 94.0 L 132.0 94.0 L 138.0 89.0 L 149.0 98.0 L 144.0 102.0 L 144.0 136.0 L 132.0 142.0 L 132.0 130.0 L 106.0 130.0 L 106.0 130.3361701965332 L 109.9 134.9 L 114.5 140.1 L 119.2 144.9 L 124.0 149.4 L 129.1 153.4 L 134.4 157.0 L 139.9 160.2 L 145.7 163.1 L 151.8 165.6 L 158.1 167.7 L 165.3 170.3 L 153.8 180.2 L 146.8 177.1 Z M 69.0 98.0 L 69.0 126.0 L 94.0 126.0 L 94.0 98.0 Z M 106.0 98.0 L 106.0 126.0 L 132.0 126.0 L 132.0 98.0 Z M 173.3 98.0 L 172.4 95.3 L 171.3 92.6 L 170.0 90.0 L 168.4 87.4 L 166.5 84.8 L 164.5 82.2 L 162.1 79.6 L 159.4 77.2 L 160.3 75.7 L 163.7 77.3 L 167.1 78.8 L 170.3 80.7 L 173.3 82.8 L 176.0 85.2 L 178.5 87.8 L 180.8 90.7 L 182.8 93.7 L 184.5 97.0 L 186.0 100.5 L 185.3 105.0 L 181.7 107.9 L 177.2 107.2 L 174.4 103.6 L 173.9 100.8 Z M 19.1 99.8 L 15.6 96.9 L 15.0 92.4 L 16.5 89.4 L 18.1 86.4 L 19.9 83.6 L 21.9 80.9 L 24.0 78.3 L 26.4 75.8 L 28.9 73.4 L 31.7 71.2 L 34.7 69.2 L 37.6 67.0 L 38.8 68.3 L 36.6 71.1 L 34.8 74.1 L 33.2 76.9 L 31.7 79.7 L 30.4 82.5 L 29.3 85.2 L 28.4 87.9 L 27.6 90.6 L 27.0 93.2 L 26.6 95.8 L 23.6 99.3 Z M 173.7 69.3 L 172.5 67.0 L 171.2 64.7 L 169.7 62.4 L 167.9 60.0 L 165.9 57.5 L 163.6 55.1 L 161.2 52.5 L 158.4 50.2 L 159.3 48.7 L 162.7 50.3 L 166.1 51.7 L 169.3 53.3 L 172.2 55.0 L 175.0 56.9 L 177.6 59.0 L 180.1 61.2 L 182.3 63.6 L 184.3 66.1 L 186.1 68.7 L 186.3 73.3 L 183.2 76.7 L 178.7 76.8 L 175.2 73.8 L 174.6 71.6 Z M 59.5 57.7 L 47.5 63.7 L 47.5 22.0 L 59.5 24.0 L 62.5 26.0 L 59.5 27.8 L 59.5 46.7 L 94.0 46.7 L 94.0 12.7 L 106.0 14.7 L 109.0 16.7 L 106.0 18.5 L 106.0 46.7 L 139.7 46.7 L 139.7 22.0 L 151.7 24.0 L 154.7 26.0 L 151.7 27.8 L 151.7 54.7 L 139.7 60.7 L 139.7 50.7 L 59.5 50.7 Z " />
</g>
</svg>
