<svg xmlns="http://www.w3.org/2000/svg" xmlns:xlink="http://www.w3.org/1999/xlink" version="1.1" baseProfile="full" viewBox="0 0 200 200" width="200" height="200">
<g fill="black">
<path d="M 186.7 87.0 L 186.7 91.0 L 129.54285717010498 91.0 L 129.5 91.1 L 125.8 99.1 L 121.6 107.0 L 116.9 114.8 L 111.7 122.5 L 111.48388624191284 122.79194316864013 L 111.9 123.0 L 161.7 123.0 L 167.7 118.0 L 178.7 127.0 L 173.7 131.0 L 173.7 178.0 L 161.7 184.0 L 161.7 174.0 L 111.9 174.0 L 111.9 181.0 L 99.9 187.0 L 99.9 137.5790322303772 L 99.8 137.7 L 93.1 145.2 L 85.8 152.5 L 77.9 159.7 L 69.5 166.6 L 68.2 165.3 L 75.2 157.0 L 81.8 148.9 L 88.1 140.9 L 93.8 133.1 L 99.1 125.2 L 99.9 123.91666669845581 L 99.9 117.0 L 103.18712873458863 118.64356431961059 L 103.9 117.5 L 108.3 109.7 L 112.1 102.0 L 115.5 94.4 L 116.75925922393799 91.0 L 79.3 91.0 L 79.3 87.0 L 164.7 87.0 L 174.7 77.0 Z M 111.9 127.0 L 111.9 170.0 L 161.7 170.0 L 161.7 127.0 Z M 26.1 161.0 L 14.1 167.0 L 14.1 50.0 L 26.1 52.0 L 29.1 54.0 L 26.1 55.8 L 26.1 145.0 L 39.7 145.0 L 39.7 20.0 L 51.7 22.0 L 54.7 24.0 L 51.7 25.8 L 51.7 145.0 L 67.2 145.0 L 67.2 50.0 L 79.2 52.0 L 82.2 54.0 L 79.2 55.8 L 79.2 149.0 L 67.2 155.0 L 67.2 149.0 L 26.1 149.0 Z M 106.7 72.6 L 94.7 78.6 L 94.7 25.7 L 106.7 27.7 L 109.7 29.7 L 106.7 31.5 L 106.7 61.6 L 131.3 61.6 L 131.3 12.3 L 143.3 14.3 L 146.3 16.3 L 143.3 18.1 L 143.3 61.6 L 167.2 61.6 L 167.2 25.7 L 179.2 27.7 L 182.2 29.7 L 179.2 31.5 L 179.2 69.6 L 167.2 75.6 L 167.2 65.6 L 106.7 65.6 Z " />
</g>
</svg>
