<svg xmlns="http://www.w3.org/2000/svg" xmlns:xlink="http://www.w3.org/1999/xlink" version="1.1" baseProfile="full" viewBox="0 0 200 200" width="200" height="200">
<g fill="black">
<path d="M 62.0 181.9 L 62.0 143.5 L 51.9 143.5 L 51.9 176.9 L 41.9 181.9 L 41.9 143.5 L 31.8 143.5 L 31.8 182.0 L 20.8 187.5 L 20.8 97.0 L 31.8 102.5 L 82.1 102.5 L 87.6 97.5 L 98.1 106.5 L 93.1 110.0 L 93.1 173.2 L 93.0 175.6 L 92.6 178.0 L 92.0 180.2 L 91.0 182.4 L 89.6 184.3 L 87.8 186.0 L 85.7 187.2 L 83.5 188.1 L 81.2 188.5 L 78.9 188.7 L 78.9 183.2 L 64.9714285850525 180.41428575515747 Z M 97.8 178.0 L 112.6 178.0 L 112.6 28.0 L 97.8 28.0 L 97.8 24.0 L 166.6 24.0 L 176.6 14.0 L 188.6 24.0 L 188.6 28.0 L 124.6 28.0 L 124.6 69.0 L 165.8 69.0 L 171.8 64.0 L 182.8 73.0 L 177.8 77.0 L 177.8 137.0 L 165.8 143.0 L 165.8 131.0 L 124.6 131.0 L 124.6 178.0 L 166.6 178.0 L 176.6 168.0 L 188.6 178.0 L 188.6 182.0 L 97.8 182.0 Z M 31.8 106.5 L 31.8 139.5 L 41.9 139.5 L 41.9 106.5 Z M 51.9 106.5 L 51.9 139.5 L 62.0 139.5 L 62.0 106.5 Z M 72.0 106.5 L 72.0 139.5 L 82.1 139.5 L 82.1 106.5 Z M 124.6 73.0 L 124.6 127.0 L 165.8 127.0 L 165.8 73.0 Z M 84.4 80.3 L 79.9 74.6 L 75.7 68.4 L 71.7 61.7 L 67.9 54.5 L 64.3 46.8 L 61.0 38.5 L 58.58593053817749 31.338260650634766 L 55.2 39.4 L 50.7 48.9 L 45.9 57.8 L 40.9 66.1 L 35.6 73.8 L 30.0 80.8 L 24.1 87.2 L 17.8 92.8 L 11.3 97.6 L 10.1 96.3 L 15.1 90.1 L 20.0 83.7 L 24.7 76.8 L 29.3 69.6 L 33.6 61.8 L 37.7 53.5 L 41.6 44.7 L 45.3 35.4 L 48.7 25.5 L 51.713438987731934 16.003101348876953 L 51.7 16.0 L 52.5 13.5 L 63.4 18.7 L 65.6 21.6 L 62.00380115509033 22.43483190536499 L 60.67500295639038 25.98936700820923 L 61.8 28.0 L 66.3 36.0 L 70.7 43.4 L 75.1 50.3 L 79.6 56.7 L 84.0 62.4 L 88.5 67.6 L 93.0 72.2 L 97.6 76.3 L 104.8 81.9 L 93.9 90.1 L 89.0 85.5 Z M 80.4 79.0 L 80.4 83.0 L 33.6 83.0 L 33.6 79.0 L 62.21818180084229 79.0 L 70.4 70.0 Z M 72.0 143.5 L 72.0 176.9 L 70.4 177.7 L 78.9 177.7 L 79.8 177.6 L 80.5 177.5 L 81.3 177.1 L 81.5 176.8 L 81.7 176.3 L 81.9 175.6 L 82.0 174.5 L 82.1 173.2 L 82.1 143.5 Z " />
</g>
</svg>
