<svg xmlns="http://www.w3.org/2000/svg" xmlns:xlink="http://www.w3.org/1999/xlink" version="1.1" baseProfile="full" viewBox="0 0 200 200" width="200" height="200">
<g fill="black">
<path d="M 148.8 65.0 L 151.8 67.0 L 148.8 68.8 L 148.8 111.0 L 165.9 111.0 L 165.9 73.0 L 177.9 75.0 L 180.9 77.0 L 177.9 78.8 L 177.9 115.0 L 165.9 121.0 L 165.9 115.0 L 148.8 115.0 L 148.8 169.0 L 170.5 169.0 L 170.5 129.0 L 182.5 131.0 L 185.5 133.0 L 182.5 134.8 L 182.5 177.0 L 170.5 183.0 L 170.5 173.0 L 114.5 173.0 L 114.5 180.0 L 102.5 186.0 L 102.5 129.0 L 114.5 131.0 L 117.5 133.0 L 114.5 134.8 L 114.5 169.0 L 136.8 169.0 L 136.8 115.0 L 118.1 115.0 L 108.1 120.0 L 108.1 73.0 L 118.1 75.0 L 120.6 77.0 L 118.1 78.66666669845581 L 118.1 111.0 L 136.8 111.0 L 136.8 63.0 Z M 100.5 23.0 L 169.2 23.0 L 175.2 18.0 L 186.2 27.0 L 181.2 31.0 L 181.2 58.0 L 169.2 64.0 L 169.2 56.0 L 100.5 56.0 L 100.5 87.0 L 100.0 99.6 L 99.1 111.7 L 97.7 123.1 L 95.9 133.9 L 93.6 144.1 L 90.9 153.7 L 87.6 162.7 L 83.9 171.0 L 79.6 178.5 L 74.8 185.3 L 73.6 184.6 L 77.1 177.2 L 80.2 169.3 L 83.0 161.0 L 85.4 152.2 L 87.4 142.8 L 89.0 132.8 L 90.3 122.2 L 91.1 111.0 L 91.5 99.3 L 91.5 18.5 Z M 57.2 140.5 L 65.2 140.5 L 66.1 140.4 L 66.8 140.3 L 67.4 140.0 L 67.8 139.6 L 68.0 139.1 L 68.2 138.4 L 68.4 137.3 L 68.4 54.0 L 54.6 54.0 L 54.6 183.0 L 42.6 189.0 L 42.6 54.0 L 29.2 54.0 L 29.2 147.0 L 17.2 153.0 L 17.2 44.0 L 29.2 50.0 L 42.6 50.0 L 42.6 13.0 L 54.6 15.0 L 57.6 17.0 L 54.6 18.8 L 54.6 50.0 L 68.4 50.0 L 73.9 45.0 L 84.4 54.0 L 79.4 57.5 L 79.4 136.0 L 79.3 138.4 L 79.0 140.7 L 78.3 143.0 L 77.3 145.1 L 75.9 147.1 L 74.1 148.7 L 72.1 150.0 L 69.8 150.8 L 67.5 151.3 L 65.2 151.5 L 65.2 146.0 L 57.2 143.2 Z M 100.5 27.0 L 100.5 52.0 L 169.2 52.0 L 169.2 27.0 Z " />
</g>
</svg>
