<svg xmlns="http://www.w3.org/2000/svg" xmlns:xlink="http://www.w3.org/1999/xlink" version="1.1" baseProfile="full" viewBox="0 0 200 200" width="200" height="200">
<g fill="black">
<path d="M 166.4 179.6 L 165.1 181.7 L 163.5 183.7 L 161.6 185.3 L 159.5 186.7 L 157.2 187.7 L 154.8 188.4 L 152.4 188.8 L 149.8 189.0 L 149.8 183.0 L 131.8 180.0 L 131.8 177.0 L 149.8 177.0 L 151.1 176.9 L 152.2 176.7 L 153.1 176.5 L 153.8 176.1 L 154.3 175.8 L 154.9 175.3 L 155.3 174.7 L 155.8 173.9 L 156.3 173.0 L 156.7 171.7 L 158.3 165.1 L 159.8 156.8 L 161.1 146.9 L 162.4 135.5 L 163.5 122.6 L 164.5 108.1 L 165.4 92.1 L 166.2 74.5 L 166.8 55.4 L 167.24660196304322 37.0 L 112.8 37.0 L 112.8 33.0 L 167.3 33.0 L 173.3 28.0 L 184.3 37.0 L 179.3 40.0 L 179.10373373031615 40.081777572631836 L 178.8 55.8 L 178.1 74.9 L 177.4 92.6 L 176.5 108.8 L 175.5 123.5 L 174.3 136.7 L 173.0 148.4 L 171.6 158.7 L 170.0 167.5 L 168.3 174.9 L 167.5 177.3 Z M 78.2 156.0 L 86.2 156.0 L 87.4 155.9 L 88.3 155.7 L 89.2 155.4 L 89.6 155.0 L 89.9 154.1 L 90.1 153.2 L 90.2 152.0 L 90.2 96.0 L 73.1 96.0 L 73.1 183.0 L 61.1 189.0 L 61.1 96.0 L 45.2 96.0 L 45.2 161.0 L 33.2 167.0 L 33.2 101.83636360168457 L 29.3 108.1 L 22.1 118.5 L 14.2 128.5 L 12.8 127.4 L 18.9 116.4 L 24.7 105.4 L 30.0 94.4 L 33.2 87.15102043151856 L 33.2 86.0 L 33.616236209869385 86.20811805725097 L 34.9 83.3 L 39.3 72.1 L 43.2 60.8 L 46.393043518066406 50.0 L 14.6 50.0 L 14.6 46.0 L 47.39655170440674 46.0 L 49.4 37.7 L 51.8 25.9 L 53.44819278717041 15.00361442565918 L 53.4 15.0 L 53.9 12.0 L 65.4 15.9 L 68.1 18.3 L 64.62439260482788 19.715988159179688 L 62.9 28.2 L 59.8 40.3 L 58.075630283355714 46.0 L 87.8 46.0 L 97.8 36.0 L 109.8 46.0 L 109.8 50.0 L 56.865546226501465 50.0 L 56.2 52.2 L 52.0 63.9 L 47.2 75.3 L 41.8 86.5 L 40.19283151626587 89.49641580581665 L 45.2 92.0 L 61.1 92.0 L 61.1 63.0 L 73.1 65.0 L 76.1 67.0 L 73.1 68.8 L 73.1 92.0 L 90.2 92.0 L 96.2 87.0 L 107.2 96.0 L 102.2 100.0 L 102.2 152.0 L 102.0 154.5 L 101.6 157.0 L 100.8 159.4 L 99.5 161.7 L 97.9 163.7 L 95.9 165.3 L 93.6 166.6 L 91.2 167.4 L 88.7 167.8 L 86.2 168.0 L 86.2 162.0 L 78.2 159.0 Z " />
</g>
</svg>
