<svg xmlns="http://www.w3.org/2000/svg" xmlns:xlink="http://www.w3.org/1999/xlink" version="1.1" baseProfile="full" viewBox="0 0 200 200" width="200" height="200">
<g fill="black">
<path d="M 78.9 150.1 L 78.00303030014038 153.8 L 124.0 153.8 L 124.0 131.9 L 136.0 133.9 L 139.0 135.9 L 136.0 137.7 L 136.0 153.8 L 163.0 153.8 L 173.0 143.8 L 185.0 153.8 L 185.0 157.8 L 136.0 157.8 L 136.0 183.2 L 124.0 189.2 L 124.0 157.8 L 76.88524589538574 157.8 L 75.0 162.8 L 71.8 168.4 L 67.9 173.3 L 63.3 177.6 L 58.1 181.2 L 52.2 184.2 L 45.8 186.4 L 38.7 188.0 L 31.1 188.8 L 30.8 187.0 L 37.7 184.4 L 43.8 181.5 L 49.2 178.4 L 53.7 175.0 L 57.6 171.4 L 60.7 167.4 L 63.2 163.3 L 65.0 158.7 L 65.24375 157.8 L 16.0 157.8 L 16.0 153.8 L 66.31320753097535 153.8 L 67.0 148.6 L 67.0 131.9 L 79.0 133.9 L 82.0 135.9 L 79.0 137.7 L 79.0 149.3 L 78.50025835037232 150.04961242675782 Z M 174.1 105.3 L 173.0 103.5 L 172.32173910140992 102.42608699798583 L 166.6 103.4 L 157.8 104.7 L 150.0 105.7214285850525 L 150.0 128.5 L 138.0 134.5 L 138.0 107.14383563995361 L 134.3 107.6 L 127.5 108.3 L 122.81266813278198 108.74641256332397 L 130.3 114.8 L 131.6 118.1 L 127.09595279693603 117.78937606811523 L 126.2 118.6 L 123.9 120.4 L 118.9 123.8 L 116.2 125.3 L 113.3 126.8 L 110.3 128.1 L 107.1 129.3 L 103.9 130.7 L 103.0 129.2 L 105.7 127.1 L 108.0 124.7 L 110.2 122.4 L 112.2 120.2 L 114.0 118.0 L 115.6 115.9 L 117.1 113.8 L 118.4 111.8 L 119.5 109.8 L 119.90175952911378 109.03665685653687 L 115.5 109.5 L 110.3 110.0 L 109.7132158279419 110.04889869689941 L 107.6 113.3 L 105.5 110.4 L 103.4 98.4 L 105.4 98.4 L 110.0 98.6 L 115.1 98.7 L 120.8 98.9 L 127.1 99.0 L 131.48196516036987 99.06444063186646 L 131.9 98.7 L 135.6 95.5 L 137.39292268753053 94.03735256195068 L 133.2 95.5 L 129.0 93.7 L 128.2 92.3 L 127.3 90.8 L 126.2 89.3 L 124.9 87.8 L 123.4 86.3 L 121.8 84.8 L 120.0 83.2 L 118.1 81.7 L 116.0 80.0 L 113.6 78.8 L 114.2 77.1 L 116.9 77.9 L 119.6 78.2 L 122.2 78.7 L 124.7 79.3 L 126.91902017593384 80.01008644104004 L 128.4 78.2 L 130.2 76.1 L 133.6 72.1 L 135.1 70.2 L 136.6 68.2 L 138.0 66.4 L 139.2 64.5 L 139.80829496383666 63.58755760192871 L 139.7 63.5 L 140.2 63.0 L 140.4 62.7 L 140.45087718963623 62.74912281036377 L 140.8 62.4 L 149.1 71.1 L 149.8 74.6 L 145.46092710494995 73.5927152633667 L 145.0 73.9 L 142.8 75.2 L 140.6 76.6 L 138.2 77.8 L 135.8 79.1 L 133.3 80.3 L 130.7 81.4 L 130.64489793777466 81.42040815353394 L 131.7 81.9 L 133.8 83.0 L 135.9 84.2 L 137.8 85.5 L 139.3 89.8 L 137.53294801712036 93.92312135696412 L 139.4 92.4 L 143.0 89.3 L 146.5 86.3 L 149.9 83.4 L 153.2 80.5 L 159.4 74.7 L 161.55029239654542 72.54970760345459 L 161.5 72.5 L 162.4 71.7 L 170.1 81.0 L 170.5 84.5 L 166.86533670425416 83.31047382354737 L 166.6 83.5 L 162.9 86.0 L 159.2 88.4 L 155.3 90.8 L 151.3 93.1 L 147.1 95.4 L 142.8 97.7 L 139.7001902580261 99.17945470809937 L 141.2 99.2 L 149.1 99.3 L 157.5 99.4 L 166.4 99.6 L 170.3742120742798 99.76733522415161 L 168.9 97.9 L 167.1 96.0 L 165.3 94.0 L 163.3 92.0 L 160.9 90.4 L 161.8 88.8 L 164.5 89.9 L 167.3 90.7 L 170.0 91.7 L 172.6 92.8 L 175.1 94.0 L 177.4 95.4 L 179.7 96.9 L 181.8 98.4 L 183.8 100.1 L 185.7 101.9 L 186.6 106.4 L 184.2 110.3 L 179.7 111.2 L 175.8 108.8 L 175.0 107.0 Z M 83.2 117.2 L 81.1 115.3 L 78.7 113.4 L 76.0 111.4 L 73.1 109.4 L 69.9 107.4 L 66.4 105.2 L 64.0 103.77297296524048 L 64.0 128.4 L 52.0 134.4 L 52.0 103.84516124725342 L 50.9 105.3 L 47.5 109.2 L 43.8 112.8 L 39.6 116.3 L 35.2 119.5 L 30.4 122.4 L 25.2 125.1 L 19.6 127.5 L 13.7 129.5 L 12.9 127.8 L 17.8 124.2 L 22.4 120.6 L 26.6 117.0 L 30.5 113.5 L 34.0 110.0 L 37.1 106.4 L 39.8 102.8 L 42.2 99.1 L 43.76756753921509 96.2 L 14.8 96.2 L 14.8 92.2 L 52.0 92.2 L 52.0 64.0 L 64.0 66.0 L 67.0 68.0 L 64.0 69.8 L 64.0 92.2 L 78.6 92.2 L 88.6 82.2 L 100.6 92.2 L 100.6 96.2 L 64.0 96.2 L 64.0 100.35581398010254 L 68.0 101.1 L 72.1 102.1 L 76.0 103.3 L 79.6 104.5 L 83.0 105.8 L 86.2 107.2 L 89.2 108.6 L 92.0 110.2 L 94.6 111.9 L 96.5 116.0 L 95.1 120.4 L 90.9 122.3 L 86.6 120.8 L 85.1 119.1 Z M 171.7 125.2 L 170.6 123.4 L 169.4 121.7 L 168.0 119.9 L 166.4 118.0 L 164.7 116.2 L 162.8 114.2 L 160.8 112.2 L 158.4 110.6 L 159.3 109.0 L 162.0 110.1 L 164.8 110.9 L 167.5 111.9 L 170.1 112.9 L 172.5 114.1 L 174.8 115.3 L 177.0 116.7 L 179.1 118.1 L 181.1 119.6 L 183.0 121.3 L 184.0 125.7 L 181.7 129.7 L 177.3 130.8 L 173.3 128.5 L 172.6 126.8 Z M 32.7 83.9 L 32.0 82.1 L 31.2 80.4 L 30.2 78.5 L 29.1 76.7 L 27.7 74.8 L 26.2 72.9 L 24.6 70.9 L 22.5 69.4 L 23.4 67.8 L 25.8 69.0 L 28.4 69.8 L 30.9 70.9 L 33.2 72.1 L 35.4 73.4 L 37.5 74.9 L 39.4 76.5 L 41.2 78.3 L 42.9 80.2 L 44.5 82.3 L 44.6 86.8 L 41.6 90.2 L 37.0 90.4 L 33.6 87.3 L 33.2 85.6 Z M 90.6 72.2 L 92.1 75.5 L 87.55666666030884 75.34333333969116 L 87.3 75.6 L 85.6 77.2 L 81.8 80.6 L 79.8 82.2 L 77.7 83.9 L 75.5 85.5 L 73.2 87.0 L 71.1 88.9 L 69.8 87.7 L 71.4 85.5 L 72.6 83.0 L 73.8 80.6 L 74.9 78.3 L 76.0 76.1 L 77.0 73.9 L 78.0 71.8 L 78.9 69.7 L 79.7 67.7 L 80.11563882827758 66.71285772323608 L 79.9 66.6 L 81.0 65.0 Z M 163.7 40.3 L 156.5 38.4 L 151.59745759963988 36.816101741790774 L 155.0 39.6 L 150.1 42.53999996185303 L 150.1 43.0 L 150.0 45.7 L 149.8 48.2 L 149.4 50.5 L 148.8 52.8 L 148.0 54.9 L 146.9 56.9 L 145.4 58.7 L 143.6 60.3 L 141.6 61.6 L 139.6 62.7 L 137.6 63.7 L 135.4 64.6 L 133.3 65.3 L 131.1 65.9 L 128.8 66.4 L 126.6 66.7 L 124.3 66.9 L 122.0 67.0 L 122.0 61.0 L 102.0 58.0 L 102.0 55.0 L 122.0 55.0 L 125.2 54.8 L 126.7 54.6 L 128.3 54.2 L 129.8 53.8 L 131.2 53.3 L 132.7 52.7 L 135.5 51.3 L 136.8 50.4 L 136.9 50.3 L 137.1 49.9 L 137.4 49.2 L 137.6 48.1 L 137.9 46.6 L 138.0 44.9 L 138.0 39.6 L 91.41186437606811 39.6 L 90.1 43.9 L 86.5 48.7 L 81.5 52.5 L 75.4 55.5 L 68.2 58.0 L 59.8 60.1 L 50.2 61.7 L 39.4 62.9 L 27.3 63.7 L 14.0 63.9 L 13.9 62.1 L 26.9 59.9 L 38.6 57.6 L 49.0 55.3 L 57.9 52.7 L 65.4 50.0 L 71.4 47.1 L 75.8 44.2 L 78.5 41.4 L 79.51739130020141 39.6 L 44.0 39.6 L 44.0 36.20819673538208 L 42.0 36.7 L 35.4 38.0 L 28.2 39.2 L 20.5 40.1 L 12.1 40.8 L 11.8 39.0 L 19.7 36.4 L 27.0 34.0 L 33.7 31.7 L 39.9 29.4 L 45.4 27.2 L 50.3 25.0 L 54.6 22.8 L 58.2 20.6 L 61.1 18.5 L 62.650203704833984 17.15199670791626 L 62.6 17.1 L 63.5 16.4 L 71.0 25.8 L 71.3 29.4 L 67.35692310333252 27.966153812408447 L 67.3 28.0 L 63.3 30.0 L 58.7 31.9 L 53.7 33.6 L 48.1 35.2 L 46.47333335876465 35.6 L 138.0 35.6 L 141.5625 32.63125 L 139.3 31.5 L 135.0 28.8 L 131.6 25.9 L 131.23483142852783 25.432584285736084 L 128.5 26.8 L 128.5 21.1307692527771 L 128.0 19.823076915740966 L 128.0 19.9 L 74.0 19.9 L 74.0 15.9 L 123.58000001907348 15.9 L 128.5 11.8 L 139.5 20.8 L 137.4 22.060000038146974 L 138.5 22.5 L 142.6 23.9 L 147.4 25.2 L 152.8 26.4 L 159.0 27.6 L 165.9 28.7 L 173.5 29.6 L 181.8 30.5 L 192.0 31.8 L 180.1 43.6 L 171.5 42.0 Z M 128.0 19.16666669845581 L 128.5 18.83333330154419 L 128.5 18.8 L 128.0 18.63333330154419 Z " />
</g>
</svg>
