<svg xmlns="http://www.w3.org/2000/svg" xmlns:xlink="http://www.w3.org/1999/xlink" version="1.1" baseProfile="full" viewBox="0 0 200 200" width="200" height="200">
<g fill="black">
<path d="M 114.2 162.1 L 116.7 160.6 L 119.2 159.0 L 119.6 158.7692307472229 L 119.6 103.3 L 117.00731706619263 103.3 L 116.5 113.7 L 115.5 125.3 L 114.3 136.0 L 112.7 146.0 L 110.9 155.3 L 108.7 163.7 L 106.2 171.3 L 103.4 178.2 L 100.1 184.1 L 96.4 189.0 L 94.8 188.1 L 96.6 182.5 L 98.3 176.3 L 99.9 169.5 L 101.3 162.0 L 102.5 153.8 L 103.5 144.8 L 104.3 135.0 L 104.8 124.5 L 105.1 113.3 L 105.1 103.3 L 96.7 103.3 L 96.7 99.3 L 122.91818180084229 99.3 L 131.1 90.3 L 141.1 99.3 L 141.1 103.3 L 131.6 103.3 L 131.6 152.04285717010498 L 132.8 151.4 L 135.7 150.0 L 138.8 148.7 L 141.7 147.1 L 142.8 148.5 L 140.4 150.8 L 138.3 153.3 L 136.1 155.8 L 131.6 160.7285714149475 L 131.6 161.2 L 131.16956520080566 161.2 L 129.8 162.7 L 127.7 164.9 L 125.7 167.0 L 124.82383422851562 168.01450777053833 L 125.3 172.3 L 121.9 171.3 L 112.6 163.4 Z M 186.7 122.1 L 188.7 125.0 L 185.09428071975708 125.63258228302001 L 182.7 130.9 L 178.5 139.3 L 174.0 147.2 L 169.4 154.6 L 164.5 161.6 L 159.4 167.9 L 154.1 173.8 L 148.5 179.1 L 142.6 183.7 L 136.5 187.7 L 135.4 186.2 L 140.1 180.9 L 144.6 175.4 L 149.1 169.5 L 153.3 163.4 L 157.5 156.8 L 161.4 149.8 L 165.2 142.5 L 168.8 134.6 L 172.2 126.4 L 175.15260066986085 118.61587085723878 L 175.1 118.6 L 176.0 116.3 Z M 76.8 146.5 L 78.8 146.5 L 76.8 171.5 L 80.4 173.9 L 82.8 177.5 L 80.4 181.1 L 76.8 183.5 L 48.3 183.5 L 45.7 183.3 L 43.2 182.9 L 40.8 182.1 L 38.6 180.9 L 36.6 179.2 L 34.9 177.2 L 33.7 174.9 L 32.9 172.5 L 32.4 170.0 L 32.3 167.5 L 32.3 130.8 L 44.3 132.8 L 47.3 134.8 L 44.3 136.6 L 44.3 167.5 L 44.4 168.7 L 44.5 169.6 L 44.7 170.2 L 44.9 170.5 L 45.0 170.7 L 45.2 170.9 L 45.6 171.1 L 46.2 171.2 L 47.1 171.4 L 48.3 171.5 L 70.8 171.5 Z M 13.6 176.2 L 11.5 172.2 L 12.7 167.8 L 14.0 166.6 L 15.3 164.9 L 16.6 162.5 L 17.9 159.7 L 19.0 156.3 L 20.1 152.4 L 21.1 148.0 L 22.0 143.1 L 23.0 137.8 L 23.6 131.9 L 25.4 131.9 L 26.1 137.8 L 26.8 143.3 L 27.1 148.5 L 27.1 153.3 L 26.9 157.7 L 26.5 161.8 L 25.9 165.6 L 24.9 169.1 L 23.7 172.4 L 22.0 175.4 L 18.0 177.5 Z M 85.0 160.2 L 84.5 156.7 L 83.8 153.3 L 83.1 150.0 L 82.2 146.7 L 80.0 140.3 L 78.8 137.1 L 77.2 134.1 L 78.6 132.9 L 81.1 135.4 L 83.8 138.0 L 86.1 140.8 L 88.3 143.8 L 90.3 147.0 L 92.1 150.4 L 93.7 154.0 L 95.1 157.7 L 96.4 161.5 L 97.5 165.6 L 96.3 170.0 L 92.4 172.4 L 88.0 171.2 L 85.6 167.3 L 85.4 163.7 Z M 54.8 143.9 L 54.2 141.4 L 53.4 138.9 L 52.6 136.6 L 51.7 134.2 L 50.8 132.0 L 49.8 129.7 L 48.4 127.8 L 49.6 126.5 L 51.6 128.0 L 53.9 129.5 L 56.0 131.2 L 58.0 133.1 L 59.9 135.3 L 61.7 137.6 L 63.4 140.1 L 65.0 142.8 L 66.5 145.7 L 67.9 148.7 L 67.4 153.3 L 63.8 156.2 L 59.3 155.6 L 56.4 152.1 L 55.4 146.5 Z M 69.9 15.0 L 72.4 17.0 L 69.9 18.66666669845581 L 69.9 36.0 L 79.1777777671814 36.0 L 85.4 29.0 L 93.4 36.0 L 93.4 40.0 L 69.9 40.0 L 69.9 65.0 L 73.9777777671814 65.0 L 80.2 58.0 L 88.2 65.0 L 88.2 69.0 L 69.9 69.0 L 69.9 96.0 L 79.1777777671814 96.0 L 85.4 89.0 L 93.4 96.0 L 93.4 100.0 L 69.9 100.0 L 69.9 128.5 L 59.9 133.5 L 59.9 13.0 Z M 182.6 73.1 L 184.7 76.1 L 180.96352071762084 76.67979850769044 L 179.4 80.1 L 176.0 86.7 L 172.4 93.1 L 168.7 99.3 L 164.9 105.1 L 160.8 110.7 L 156.6 116.0 L 152.2 120.9 L 147.5 125.4 L 142.6 129.6 L 141.3 128.3 L 144.6 123.0 L 148.0 117.6 L 151.3 112.2 L 154.5 106.5 L 157.6 100.7 L 160.6 94.7 L 163.5 88.5 L 166.3 82.1 L 169.0 75.5 L 171.13393869400025 69.61032915115356 L 171.1 69.6 L 172.0 67.3 Z M 52.2 68.4 L 51.5 78.3 L 50.3 87.4 L 48.6 95.7 L 46.3 103.2 L 43.4 110.0 L 40.0 115.8 L 36.0 120.8 L 31.4 124.7 L 26.4 127.6 L 25.5 126.3 L 29.3 122.4 L 32.5 118.0 L 35.3 113.1 L 37.6 107.5 L 39.6 101.2 L 41.0 94.1 L 41.117423343658444 93.26736192703247 L 37.7 96.4 L 35.2 98.6 L 32.6 100.8 L 29.9 103.0 L 27.1 105.1 L 24.77026195526123 107.01371335983276 L 24.6 111.1 L 21.3 109.6 L 13.5 100.3 L 15.2 99.3 L 18.5 97.8 L 24.9 94.8 L 31.1 92.0 L 34.2 90.7 L 37.2 89.5 L 40.1 88.4 L 41.88789234161377 87.8040358543396 L 42.1 86.3 L 42.6 77.7 L 42.692553234100345 69.0 L 22.6 69.0 L 22.6 65.0 L 42.570588207244874 65.0 L 42.3 58.1 L 42.365359497070315 58.09803924560547 L 42.3 58.0 L 42.3 40.0 L 19.8 40.0 L 19.8 36.0 L 42.3 36.0 L 42.3 13.0 L 52.3 15.0 L 54.8 17.0 L 52.3 18.66666669845581 L 52.3 58.0 L 52.298086166381836 58.002870845794675 Z M 179.6 25.2 L 181.6 28.2 L 177.90154943466186 28.710131072998045 L 176.6 31.4 L 173.4 37.3 L 170.1 43.2 L 166.7 48.8 L 163.1 54.3 L 159.4 59.6 L 155.6 64.7 L 151.5 69.6 L 147.2 74.2 L 142.7 78.5 L 141.2 77.4 L 144.2 71.9 L 147.1 66.5 L 150.1 61.1 L 153.0 55.6 L 158.6 44.4 L 161.2 38.6 L 163.7 32.7 L 166.2 26.7 L 168.12593660354614 21.508344841003417 L 168.1 21.5 L 168.25789470672606 21.152631568908692 L 168.5 20.5 L 168.5457417488098 20.519368171691895 L 169.1 19.3 Z M 136.7 61.8 L 136.7 65.8 L 102.3 65.8 L 102.3 61.8 L 122.4777777671814 61.8 L 128.7 54.8 Z M 96.4 56.3 L 93.3 53.0 L 93.3 48.5 L 94.0 47.6 L 94.7 46.0 L 95.5 43.8 L 96.3 41.1 L 97.1 37.8 L 97.8 34.0 L 99.3 25.0 L 100.1 19.8 L 100.7 14.2 L 102.5 14.1 L 103.1 19.8 L 103.58867921829224 23.5 L 133.8 23.5 L 139.8 18.5 L 150.8 27.5 L 145.8 30.5 L 143.88214282989503 31.299107170104982 L 143.3 32.9 L 142.3 35.3 L 141.3 37.8 L 140.3 40.4 L 137.9 46.0 L 136.4 49.0 L 135.4 52.1 L 133.6 51.7 L 134.0 48.4 L 134.0 35.41666669845581 L 133.8 35.5 L 133.8 27.5 L 104.05 27.5 L 104.3 29.9 L 104.7 34.4 L 104.9 38.4 L 105.1 42.0 L 105.1 45.2 L 105.0 48.1 L 104.8 50.7 L 104.3 53.2 L 101.0 56.3 Z " />
</g>
</svg>
