<svg xmlns="http://www.w3.org/2000/svg" xmlns:xlink="http://www.w3.org/1999/xlink" version="1.1" baseProfile="full" viewBox="0 0 200 200" width="200" height="200">
<g fill="black">
<path d="M 112.8993182182312 61.57909088134765 L 111.3 65.5 L 107.9 72.8 L 104.4 79.9 L 100.7 86.8 L 96.8 93.4 L 95.08282356262207 96.0804705619812 L 100.6 97.0 L 103.6 99.0 L 100.6 100.8 L 100.6 182.0 L 88.6 188.0 L 88.6 105.71162786483765 L 88.4 106.0 L 83.9 111.8 L 79.0 117.4 L 73.9 122.5 L 72.5 121.4 L 76.0 115.1 L 82.8 102.5 L 86.1 96.0 L 89.3 89.4 L 92.3 82.7 L 95.3 75.7 L 98.0 68.6 L 100.7 61.3 L 102.80746145248413 54.80199403762818 L 102.8 54.8 L 102.86000003814698 54.63999996185303 L 103.1 53.9 L 103.13310546875 53.91171875 L 103.7 52.4 L 114.4 57.9 L 115.3 59.08636360168457 L 115.3 40.0 L 127.3 46.0 L 141.9 46.0 L 141.9 12.0 L 153.9 14.0 L 156.9 16.0 L 153.9 17.8 L 153.9 46.0 L 172.7 46.0 L 178.7 41.0 L 189.7 50.0 L 184.7 53.0 L 182.13318386077881 54.06950674057007 L 181.9 54.5 L 180.5 57.0 L 178.9 59.7 L 177.2 62.5 L 175.4 65.4 L 173.4 68.4 L 171.2 71.6 L 168.8 74.8 L 166.6 78.3 L 165.0 77.6 L 166.3 73.6 L 167.3 69.8 L 168.3 66.1 L 169.2 62.7 L 170.1 59.4 L 170.9 56.4 L 171.6 53.5 L 172.2 50.8 L 172.36000003814698 50.0 L 153.9 50.0 L 153.9 93.0 L 164.7 93.0 L 170.7 88.0 L 181.7 97.0 L 176.7 100.0 L 175.48467741012573 100.50638437271118 L 173.0 110.1 L 168.8 123.1 L 164.1 135.0 L 158.8 146.0 L 156.2271056175232 150.31722955703736 L 158.8 154.0 L 164.3 160.4 L 170.2 165.8 L 176.5 170.4 L 183.1 174.1 L 188.1 176.8 L 176.8 185.8 L 169.2 180.6 L 162.3 174.6 L 156.0 167.6 L 150.4 159.8 L 150.24735202789307 159.53208723068238 L 146.4 164.8 L 139.4 172.6 L 131.8 179.2 L 123.6 184.6 L 114.9 188.7 L 114.1 187.2 L 121.4 181.5 L 128.2 175.2 L 134.5 168.1 L 140.3 160.3 L 145.6 151.5 L 145.63296928405762 151.43337459564208 L 145.5 151.2 L 141.3 141.8 L 137.8 131.6 L 134.9 120.6 L 132.9 108.7 L 131.78571424484252 97.0 L 127.3 97.0 L 127.3 106.0 L 126.8 117.8 L 125.9 128.8 L 124.6 139.1 L 122.8 148.7 L 120.7 157.4 L 118.0 165.4 L 115.0 172.6 L 111.4 178.9 L 107.4 184.2 L 102.8 188.5 L 101.5 187.4 L 104.2 182.1 L 106.7 176.4 L 108.9 170.1 L 110.8 163.2 L 112.4 155.5 L 113.7 147.1 L 114.6 137.9 L 115.2 128.0 L 115.4 117.4 L 115.3 106.0 L 115.3 61.073684215545654 Z M 42.2 155.2 L 44.3 158.1 L 40.31177644729614 158.7876247406006 L 40.2 159.0 L 38.0 162.7 L 35.7 166.3 L 33.1 169.8 L 30.3 173.2 L 27.4 176.5 L 24.2 179.6 L 20.9 182.6 L 17.3 185.4 L 13.5 188.2 L 12.3 186.9 L 14.9 183.2 L 17.3 179.4 L 21.7 172.2 L 23.7 168.6 L 25.5 165.0 L 27.1 161.5 L 28.6 157.9 L 29.9 154.3 L 30.79055118560791 151.62834644317627 L 30.7 151.6 L 31.6 149.4 Z M 63.3 170.2 L 62.2 167.9 L 61.0 165.6 L 59.6 163.3 L 58.0 161.1 L 56.4 158.8 L 52.6 154.4 L 50.2 152.5 L 51.1 151.0 L 54.0 152.2 L 56.9 153.3 L 59.8 154.7 L 62.5 156.3 L 65.0 158.1 L 67.5 160.1 L 69.8 162.3 L 72.0 164.6 L 74.0 167.2 L 75.9 169.9 L 76.1 174.4 L 73.1 177.9 L 68.6 178.1 L 65.1 175.1 L 64.3 172.7 Z M 11.5 142.0 L 24.6 142.0 L 24.6 83.7 L 12.9 83.7 L 12.9 79.7 L 24.6 79.7 L 24.6 62.6 L 36.6 64.6 L 39.6 66.6 L 36.6 68.4 L 36.6 79.7 L 56.6 79.7 L 56.6 62.6 L 68.6 64.6 L 71.6 66.6 L 68.6 68.4 L 68.6 79.7 L 71.3 79.7 L 75.23707866668701 74.45056180953979 L 73.9 73.4 L 76.4 68.2 L 79.1 62.9 L 84.3 52.1 L 86.9 46.5 L 89.4 40.7 L 91.8 34.7 L 94.2 28.6 L 96.4 22.3 L 98.6 15.8 L 98.6115502357483 15.804293060302735 L 99.1 14.4 L 109.9 20.0 L 112.0 22.9 L 108.29243698120118 23.603158473968506 L 107.0 26.5 L 104.0 32.8 L 100.9 38.9 L 97.7 44.8 L 94.4 50.4 L 90.9 55.8 L 87.3 60.9 L 83.6 65.8 L 79.6 70.3 L 75.9576470375061 73.8576470375061 L 81.8 79.7 L 81.8 83.7 L 68.6 83.7 L 68.6 142.0 L 72.0 142.0 L 76.5 136.0 L 82.5 142.0 L 82.5 146.0 L 11.5 146.0 Z M 36.6 125.0 L 36.6 142.0 L 56.6 142.0 L 56.6 125.0 Z M 137.0 107.9 L 140.6 119.0 L 144.6 129.2 L 148.9 138.4 L 150.59590425491334 141.33250112533568 L 154.8 131.3 L 158.6 119.7 L 162.0 107.2 L 164.11555557250978 97.0 L 133.8471074104309 97.0 Z M 36.6 104.7 L 36.6 121.0 L 56.6 121.0 L 56.6 104.7 Z M 36.6 83.7 L 36.6 100.7 L 56.6 100.7 L 56.6 83.7 Z M 127.3 50.0 L 127.3 93.0 L 141.9 93.0 L 141.9 50.0 Z M 31.0 52.8 L 30.8 50.7 L 30.5 48.6 L 30.1 46.4 L 29.7 44.3 L 29.1 42.2 L 28.5 40.0 L 27.8 37.8 L 27.765145206451415 37.74481325149536 L 27.4 39.0 L 25.5 44.3 L 23.5 49.3 L 21.2 54.2 L 18.8 58.9 L 16.0 63.4 L 12.9 67.5 L 11.3 66.7 L 12.5 61.8 L 15.1 52.0 L 16.3 47.0 L 17.4 41.9 L 18.3 36.7 L 19.2 31.4 L 19.9 26.0 L 20.5 20.5 L 20.91195602416992 15.803701019287109 L 20.8 15.8 L 21.2 12.7 L 32.9 16.2 L 35.6 18.6 L 32.17572011947632 20.15061731338501 L 31.8 22.2 L 30.5 27.9 L 29.267857170104982 32.5 L 35.8777777671814 32.5 L 42.1 25.5 L 50.1 32.5 L 50.1 36.5 L 29.73333330154419 36.5 L 31.6 37.9 L 33.4 39.5 L 35.2 41.4 L 36.7 43.3 L 38.2 45.4 L 39.6 47.6 L 40.8 49.9 L 41.9 52.3 L 42.9 54.9 L 41.9 59.3 L 38.1 61.9 L 33.7 60.9 L 31.1 57.1 L 31.1 54.9 Z M 62.9 52.8 L 62.8 50.7 L 62.5 48.6 L 62.1 46.4 L 61.1 42.2 L 60.5 40.0 L 59.8 37.8 L 59.5381817817688 37.38545455932617 L 59.3 38.1 L 57.5 43.0 L 55.4 47.8 L 53.2 52.2 L 50.7 56.4 L 47.9 60.3 L 44.8 63.8 L 43.3 62.9 L 44.5 58.5 L 45.8 54.2 L 47.1 49.7 L 48.3 45.2 L 49.4 40.5 L 50.3 35.7 L 51.2 30.7 L 51.9 25.6 L 52.5 20.3 L 52.82719030380249 15.801132965087891 L 52.8 15.8 L 52.8625 15.315625 L 52.9 14.8 L 52.92856760025025 14.803600978851318 L 53.2 12.7 L 64.8 16.3 L 67.6 18.6 L 64.0518123626709 20.17697229385376 L 63.7 22.0 L 62.4 27.6 L 61.129629611968994 32.5 L 68.27777776718139 32.5 L 74.5 25.5 L 82.5 32.5 L 82.5 36.5 L 61.73333330154419 36.5 L 63.6 37.9 L 65.4 39.5 L 67.1 41.4 L 68.7 43.3 L 70.2 45.4 L 71.5 47.6 L 72.8 49.9 L 73.9 52.3 L 74.9 54.9 L 73.9 59.3 L 70.1 61.9 L 65.6 60.9 L 63.1 57.1 L 63.1 54.9 Z " />
</g>
</svg>
