<svg xmlns="http://www.w3.org/2000/svg" xmlns:xlink="http://www.w3.org/1999/xlink" version="1.1" baseProfile="full" viewBox="0 0 200 200" width="200" height="200">
<g fill="black">
<path d="M 92.9 80.0 L 157.2 80.0 L 163.2 75.0 L 174.2 84.0 L 169.2 88.0 L 169.2 126.0 L 157.2 132.0 L 157.2 124.0 L 92.60454549789429 124.0 L 92.4 127.6 L 91.4277777671814 135.8638889312744 L 101.9 141.1 L 158.6 141.1 L 164.6 136.1 L 175.6 145.1 L 170.6 149.1 L 170.6 179.8 L 158.6 185.8 L 158.6 175.8 L 101.9 175.8 L 101.9 182.8 L 89.9 188.8 L 89.9 143.15882349014282 L 89.7 144.1 L 87.4 151.6 L 84.5 158.8 L 80.9 165.5 L 76.7 171.6 L 71.9 177.3 L 66.5 182.3 L 60.4 186.6 L 59.3 185.3 L 63.8 179.6 L 67.7 173.9 L 71.2 168.1 L 74.2 162.0 L 76.6 155.6 L 78.5 149.0 L 79.9 142.0 L 80.7 134.7 L 81.1 127.1 L 80.9 119.1 L 80.96557378768921 119.09836063385009 L 80.9 119.0 L 80.9 74.0 Z M 68.0 58.7 L 69.7 61.9 L 65.95819635391236 62.02902774810791 L 63.4 66.2 L 58.5 73.6 L 53.4 80.6 L 48.0 87.5 L 42.4 94.1 L 40.7258581161499 95.88764305114746 L 47.4 97.0 L 50.4 99.0 L 47.4 100.8 L 47.4 182.0 L 35.4 188.0 L 35.4 101.5 L 30.4 106.5 L 23.9 112.2 L 17.2 117.6 L 10.1 122.6 L 8.9 121.3 L 14.6 114.9 L 20.2 108.4 L 25.6 102.0 L 30.8 95.4 L 35.8 88.8 L 40.6 81.9 L 45.1 74.9 L 49.5 67.8 L 53.6 60.5 L 57.4 53.0 L 57.457430362701416 53.030882358551025 L 58.0 52.0 Z M 101.9 145.1 L 101.9 171.8 L 158.6 171.8 L 158.6 145.1 Z M 92.83181819915771 120.0 L 157.2 120.0 L 157.2 104.0 L 92.9 104.0 L 92.9 119.0 L 92.88757762908935 119.01863355636597 Z M 92.9 84.0 L 92.9 100.0 L 157.2 100.0 L 157.2 84.0 Z M 168.4 69.5 L 161.6 64.8 L 155.2 59.7 L 148.9 54.2 L 143.0 48.2 L 137.3 41.8 L 132.0 34.9 L 127.0 27.5 L 126.1918909072876 26.04907684326172 L 124.7 28.3 L 118.5 36.4 L 112.0 44.0 L 105.1 51.0 L 97.9 57.6 L 90.3 63.6 L 82.3 69.1 L 73.9 74.0 L 65.1 78.3 L 56.0 81.8 L 55.2 80.2 L 63.3 75.0 L 71.0 69.5 L 78.4 63.8 L 85.5 57.8 L 92.1 51.4 L 98.4 44.6 L 104.4 37.5 L 110.0 29.9 L 115.2 22.0 L 120.1 13.6 L 120.6 12.7 L 130.4 19.7 L 132.0 23.0 L 128.3615385055542 23.0 L 130.3 25.0 L 136.4 31.1 L 142.6 36.8 L 148.7 42.2 L 155.0 47.1 L 161.3 51.6 L 167.8 55.6 L 174.3 59.3 L 181.0 62.5 L 187.8 65.3 L 194.0 68.0 L 182.6 77.4 L 175.3 73.7 Z M 61.1 20.8 L 62.8 24.0 L 59.041354751586915 24.063705825805663 L 57.0 27.3 L 52.7 33.6 L 48.2 39.6 L 43.6 45.5 L 38.9 51.0 L 33.9 56.4 L 28.8 61.4 L 23.5 66.2 L 17.9 70.6 L 12.1 74.6 L 10.9 73.3 L 15.3 67.9 L 19.6 62.5 L 23.9 57.0 L 28.1 51.5 L 32.2 45.8 L 36.2 39.9 L 40.0 33.9 L 43.7 27.8 L 47.2 21.4 L 50.21233730316162 15.805659294128418 L 50.2 15.8 L 51.2 13.9 Z M 149.7 62.1 L 149.7 66.1 L 96.5 66.1 L 96.5 62.1 L 127.7 62.1 L 137.7 52.1 Z " />
</g>
</svg>
