<svg xmlns="http://www.w3.org/2000/svg" xmlns:xlink="http://www.w3.org/1999/xlink" version="1.1" baseProfile="full" viewBox="0 0 200 200" width="200" height="200">
<g fill="black">
<path d="M 48.4 16.0 L 51.4 18.0 L 48.4 19.8 L 48.4 183.0 L 36.4 189.0 L 36.4 14.0 Z M 147.9 176.3 L 167.1 176.3 L 168.0 176.1 L 168.6 175.9 L 168.9 175.7 L 169.1 175.6 L 169.3 175.4 L 169.6 174.5 L 169.8 173.6 L 169.9 172.3 L 169.9 112.2 L 88.1 112.2 L 88.1 183.9 L 76.1 189.9 L 76.1 102.2 L 88.1 108.2 L 169.9 108.2 L 175.9 103.2 L 186.9 112.2 L 181.9 116.2 L 181.9 172.3 L 181.7 174.9 L 181.3 177.4 L 180.5 179.8 L 179.2 182.1 L 177.6 184.1 L 175.6 185.7 L 173.3 187.0 L 170.9 187.8 L 168.4 188.2 L 165.9 188.3 L 165.9 182.3 L 147.9 179.3 Z M 114.2 127.7 L 143.7 127.7 L 149.7 122.7 L 160.7 131.7 L 155.7 135.7 L 155.7 165.4 L 143.7 171.4 L 143.7 161.4 L 114.2 161.4 L 114.2 168.4 L 102.2 174.4 L 102.2 121.7 Z M 114.2 131.7 L 114.2 157.4 L 143.7 157.4 L 143.7 131.7 Z M 130.0 18.9 L 132.0 21.8 L 128.3831371307373 22.43453731536865 L 125.7 28.3 L 123.35333337783814 32.7 L 164.4 32.7 L 174.4 22.7 L 186.4 32.7 L 186.4 36.7 L 121.21999998092652 36.7 L 120.9 37.3 L 115.8 45.8 L 110.2 53.8 L 106.26603775024414 58.78301887512207 L 106.5 58.9 L 159.1 58.9 L 165.1 53.9 L 176.1 62.9 L 171.1 66.9 L 171.1 94.3 L 159.1 100.3 L 159.1 92.3 L 106.5 92.3 L 106.5 95.3 L 94.5 101.3 L 94.5 71.60294113159179 L 91.0 75.0 L 83.7 81.0 L 76.0 86.3 L 67.9 91.0 L 66.8 89.6 L 73.7 83.3 L 80.2 76.9 L 86.3 70.3 L 92.1 63.4 L 94.5 60.2 L 94.5 52.9 L 98.3910891532898 54.845544528961184 L 102.5 48.6 L 107.2 40.6 L 109.17349395751953 36.7 L 71.6 36.7 L 71.6 32.7 L 111.19759035110474 32.7 L 111.4 32.3 L 115.3 23.6 L 118.44824714660645 15.414557361602784 L 118.4 15.4 L 119.3 13.1 Z M 14.2 96.5 L 11.6 92.7 L 12.3 88.2 L 13.8 86.4 L 15.2 84.0 L 16.7 81.2 L 18.2 78.0 L 19.6 74.3 L 21.0 70.3 L 22.4 65.8 L 23.8 60.9 L 25.3 55.6 L 26.6 49.9 L 28.4 50.0 L 28.6 56.0 L 28.6 61.6 L 28.4 66.8 L 28.1 71.7 L 27.5 76.3 L 26.8 80.5 L 26.0 84.5 L 25.0 88.1 L 23.8 91.5 L 22.5 94.6 L 18.7 97.2 Z M 106.5 62.9 L 106.5 88.3 L 159.1 88.3 L 159.1 62.9 Z M 62.4 71.8 L 61.7 69.0 L 60.8 66.0 L 59.8 63.0 L 58.6 60.0 L 57.2 56.9 L 55.7 53.7 L 54.1 50.4 L 52.0 47.3 L 53.4 46.1 L 56.2 48.7 L 59.2 51.1 L 61.8 53.7 L 64.3 56.5 L 66.5 59.3 L 68.6 62.2 L 70.5 65.2 L 72.1 68.2 L 73.6 71.4 L 74.9 74.6 L 74.2 79.1 L 70.5 81.9 L 66.0 81.1 L 63.3 77.5 L 62.9 74.7 Z " />
</g>
</svg>
