<svg xmlns="http://www.w3.org/2000/svg" xmlns:xlink="http://www.w3.org/1999/xlink" version="1.1" baseProfile="full" viewBox="0 0 200 200" width="200" height="200">
<g fill="black">
<path d="M 50.8 16.0 L 53.8 18.0 L 50.8 19.8 L 50.8 183.0 L 38.8 189.0 L 38.8 14.0 Z M 163.6 178.0 L 157.8 173.4 L 152.3 168.4 L 147.3 162.9 L 142.6 157.0 L 138.4 150.7 L 134.7 144.0 L 131.5 136.9 L 129.35625 130.55120191574096 L 129.3 130.8 L 125.3 141.3 L 119.8 151.0 L 113.1 159.7 L 105.0 167.4 L 95.6 174.1 L 85.0 179.7 L 73.2 184.3 L 60.2 187.8 L 59.6 186.1 L 71.8 180.8 L 82.5 175.0 L 91.9 168.6 L 99.9 161.7 L 106.6 154.2 L 111.9 146.1 L 116.0 137.4 L 118.25894737243652 130.0 L 68.6 130.0 L 68.6 126.0 L 119.21980199813842 126.0 L 120.6 117.8 L 121.14559841156006 107.79736204147339 L 121.1 107.8 L 121.2 104.5 L 133.2 107.1 L 136.1 109.1 L 132.7818102836609 111.02455005645751 L 131.9 119.3 L 130.38521738052367 126.0 L 164.8 126.0 L 174.8 116.0 L 186.8 126.0 L 186.8 130.0 L 131.6546875 130.0 L 135.1 134.9 L 139.7 140.9 L 144.3 146.5 L 149.0 151.7 L 154.0 156.4 L 159.1 160.8 L 164.5 164.7 L 170.1 168.2 L 175.9 171.3 L 182.0 174.0 L 187.9 176.6 L 176.5 185.9 L 169.9 182.2 Z M 71.9 99.9 L 121.7 99.9 L 121.7 77.2 L 81.8 77.2 L 81.8 73.2 L 121.7 73.2 L 121.7 50.5 L 76.5 50.5 L 76.5 46.5 L 138.725 46.5 L 139.6 44.4 L 140.7 40.8 L 141.9 37.3 L 143.1 33.9 L 144.2 30.6 L 145.2 27.4 L 146.2 24.3 L 147.1 21.3 L 148.43997230529786 16.44260025024414 L 148.3 16.4 L 149.2 14.2 L 159.8 19.9 L 161.9 22.9 L 157.74346628189087 23.616643714904786 L 156.6 25.5 L 154.9 28.4 L 153.1 31.2 L 149.1 37.0 L 146.9 40.0 L 144.6 42.9 L 142.0 45.8 L 141.45806455612183 46.5 L 156.9 46.5 L 166.9 36.5 L 178.9 46.5 L 178.9 50.5 L 133.7 50.5 L 133.7 73.2 L 151.7 73.2 L 161.7 63.2 L 173.7 73.2 L 173.7 77.2 L 133.7 77.2 L 133.7 99.9 L 161.5 99.9 L 171.5 89.9 L 183.5 99.9 L 183.5 103.9 L 71.9 103.9 Z M 14.7 101.4 L 12.4 97.5 L 13.4 93.0 L 14.9 91.4 L 16.4 89.3 L 17.9 86.7 L 19.4 83.7 L 20.9 80.3 L 22.3 76.4 L 23.8 72.1 L 25.2 67.4 L 26.7 62.4 L 28.1 56.9 L 29.9 57.0 L 29.9 68.2 L 29.7 73.2 L 29.3 78.0 L 28.7 82.4 L 27.9 86.5 L 27.0 90.3 L 25.9 93.8 L 24.6 97.1 L 23.1 100.0 L 19.2 102.4 Z M 66.3 78.4 L 65.5 75.6 L 64.5 72.8 L 63.4 69.9 L 62.1 67.0 L 60.6 63.9 L 59.0 60.7 L 57.2 57.4 L 55.0 54.3 L 56.3 53.1 L 59.3 55.6 L 62.3 58.0 L 65.1 60.6 L 67.7 63.2 L 70.0 65.9 L 72.2 68.7 L 74.1 71.5 L 75.9 74.4 L 77.4 77.4 L 78.8 80.5 L 78.2 85.0 L 74.6 87.8 L 70.1 87.2 L 67.2 83.7 L 66.8 81.1 Z M 105.9 36.1 L 105.3 33.5 L 104.7 31.0 L 103.9 28.5 L 103.0 26.0 L 101.0 21.0 L 99.8 18.4 L 98.2 16.2 L 99.5 14.9 L 101.7 16.8 L 104.1 18.5 L 106.4 20.4 L 108.5 22.6 L 110.4 24.8 L 112.3 27.2 L 114.0 29.7 L 115.5 32.4 L 117.0 35.2 L 118.3 38.1 L 117.6 42.6 L 114.1 45.4 L 109.5 44.8 L 106.7 41.2 L 106.3 38.6 Z " />
</g>
</svg>
