<svg xmlns="http://www.w3.org/2000/svg" xmlns:xlink="http://www.w3.org/1999/xlink" version="1.1" baseProfile="full" viewBox="0 0 200 200" width="200" height="200">
<g fill="black">
<path d="M 47.6 16.0 L 50.6 18.0 L 47.6 19.8 L 47.6 183.0 L 35.6 189.0 L 35.6 14.0 Z M 153.6 181.2 L 142.8 177.6 L 132.9 173.0 L 124.0 167.3 L 122.41139240264893 165.98939876556398 L 116.3 170.0 L 105.8 175.4 L 94.5 180.0 L 82.3 183.6 L 69.1 186.2 L 55.2 187.8 L 54.9 186.1 L 68.3 182.5 L 80.7 178.5 L 92.1 173.9 L 102.4 168.7 L 111.7 162.8 L 115.36928272247314 160.0043560028076 L 109.2 153.2 L 103.4 144.7 L 98.7 135.4 L 95.65882349014282 126.0 L 65.1 126.0 L 65.1 122.0 L 117.8 122.0 L 117.8 99.0 L 127.8 101.0 L 130.3 103.0 L 127.8 104.66666669845581 L 127.8 122.0 L 158.6 122.0 L 168.6 112.0 L 180.6 122.0 L 180.6 126.0 L 149.14126987457274 126.0 L 154.7 129.4 L 156.6 132.5 L 152.6817777633667 132.90533332824708 L 149.0 139.3 L 142.3 148.3 L 134.5 156.4 L 130.18545656204225 160.06234502792358 L 137.4 163.8 L 146.5 167.2 L 156.4 169.8 L 167.1 171.5 L 178.7 172.4 L 189.7 173.1 L 177.8 185.5 L 165.3 183.9 Z M 102.4 133.5 L 108.2 141.4 L 114.5 148.4 L 121.5 154.4 L 121.88837594985962 154.6606206893921 L 127.4 149.3 L 133.8 141.6 L 139.3 133.3 L 143.03111114501954 126.0 L 97.93370790481568 126.0 Z M 63.9 91.0 L 73.5 88.2 L 78.1 86.8 L 87.3 84.2 L 91.8 83.0 L 96.2 81.8 L 100.6 80.8 L 103.44550895690918 80.21796407699586 L 103.5 80.0 L 104.7 72.6 L 105.3 64.6 L 105.3 63.0 L 72.0 63.0 L 72.0 59.0 L 105.3 59.0 L 105.3 37.0 L 67.4 37.0 L 67.4 33.0 L 105.3 33.0 L 105.3 14.0 L 117.3 16.0 L 120.3 18.0 L 117.3 19.8 L 117.3 56.0 L 116.6 65.4 L 115.3 74.3 L 113.3 82.5 L 110.6 90.0 L 107.1 96.9 L 103.0 103.0 L 98.2 108.3 L 92.8 112.7 L 86.7 116.2 L 80.1 118.8 L 79.3 117.1 L 84.7 113.0 L 89.3 108.6 L 93.3 103.9 L 96.7 98.7 L 99.6 93.0 L 101.8 86.8 L 102.03623189926148 85.85507249832153 L 98.5 87.8 L 90.3 92.0 L 86.0 94.1 L 81.6 96.1 L 77.2 98.2 L 72.7 100.2 L 71.94162712097167 100.52271184921264 L 71.0 104.4 L 68.0 102.2 L 62.1 91.7 Z M 143.2 16.0 L 145.7 18.0 L 143.2 19.66666669845581 L 143.2 33.0 L 160.8181818008423 33.0 L 169.0 24.0 L 179.0 33.0 L 179.0 37.0 L 143.2 37.0 L 143.2 59.0 L 157.01818180084229 59.0 L 165.2 50.0 L 175.2 59.0 L 175.2 63.0 L 143.2 63.0 L 143.2 87.0 L 163.9181818008423 87.0 L 172.1 78.0 L 182.1 87.0 L 182.1 91.0 L 143.2 91.0 L 143.2 109.5 L 133.2 114.5 L 133.2 14.0 Z M 14.6 101.5 L 12.1 97.7 L 12.8 93.2 L 14.2 91.5 L 15.6 89.4 L 17.0 86.9 L 18.4 83.8 L 19.8 80.4 L 21.1 76.5 L 22.5 72.2 L 23.8 67.5 L 25.2 62.4 L 26.5 56.9 L 28.3 57.0 L 28.4 62.7 L 28.5 68.1 L 28.4 73.2 L 28.1 77.9 L 27.6 82.3 L 27.0 86.3 L 26.2 90.1 L 25.3 93.6 L 24.2 96.8 L 22.9 99.7 L 19.1 102.2 Z M 60.3 78.2 L 59.7 75.5 L 58.9 72.6 L 58.0 69.8 L 55.6 63.8 L 54.2 60.7 L 52.7 57.4 L 50.7 54.3 L 52.1 53.1 L 54.8 55.7 L 57.6 58.1 L 60.2 60.7 L 62.5 63.3 L 64.7 66.1 L 66.7 68.8 L 68.5 71.7 L 70.1 74.6 L 71.5 77.6 L 72.8 80.6 L 72.1 85.1 L 68.4 87.9 L 63.9 87.1 L 61.1 83.5 L 60.8 80.9 Z " />
</g>
</svg>
