<svg xmlns="http://www.w3.org/2000/svg" xmlns:xlink="http://www.w3.org/1999/xlink" version="1.1" baseProfile="full" viewBox="0 0 200 200" width="200" height="200">
<g fill="black">
<path d="M 23.0 175.0 L 37.0 175.0 L 38.2 174.9 L 39.1 174.7 L 40.0 174.4 L 40.4 174.0 L 40.7 173.1 L 40.9 172.2 L 41.0 171.0 L 41.0 115.58095235824585 L 38.0 117.2 L 31.7 120.5 L 25.3 123.8 L 22.489024353027343 125.18386487960815 L 21.8 129.0 L 18.8 127.0 L 12.1 116.9 L 13.9 116.1 L 20.6 113.4 L 27.2 110.8 L 33.8 108.1 L 40.3 105.4 L 41.0 105.11999998092651 L 41.0 57.0 L 14.7 57.0 L 14.7 53.0 L 41.0 53.0 L 41.0 14.0 L 53.0 16.0 L 56.0 18.0 L 53.0 19.8 L 53.0 53.0 L 58.0 53.0 L 68.0 43.0 L 80.0 53.0 L 80.0 57.0 L 53.0 57.0 L 53.0 100.22461538314819 L 53.3 100.1 L 59.9 97.5 L 66.4 94.9 L 72.9 92.4 L 79.43959732055664 90.22013425827026 L 80.6 86.8 L 82.6 81.1 L 84.5 75.3 L 86.2 69.3 L 87.9 63.1 L 89.3 56.6 L 90.7 50.0 L 91.9 43.2 L 92.85766525268555 37.105766487121585 L 92.8 37.1 L 93.3 34.2 L 104.11456956863404 38.05562915802002 L 110.3 36.2 L 125.9 31.6 L 133.5 29.1 L 140.9 26.6 L 148.3 23.9 L 155.5 21.2 L 162.5 18.3 L 168.51754388809204 15.63508768081665 L 168.5 15.6 L 168.53236837387084 15.628522586822509 L 169.5 15.2 L 170.26982154846192 17.159545707702637 L 178.6 24.5 L 178.8 27.6 L 174.9192092895508 25.987979221343995 L 173.9 26.4 L 166.5 28.9 L 159.0 31.3 L 151.4 33.5 L 143.6 35.5 L 135.7 37.3 L 127.7 38.9 L 119.6 40.3 L 111.3 41.5 L 103.819753074646 42.220987701416014 L 103.0 45.5 L 101.1 52.6 L 99.0 59.3 L 96.7 65.8 L 94.2 72.1 L 91.5 78.1 L 88.6 83.8 L 85.5 89.2 L 82.0 94.2 L 78.2 98.9 L 76.7 97.9 L 78.4544303894043 93.07531642913818 L 74.6 95.8 L 68.8 99.7 L 62.8 103.4 L 56.7 106.9 L 53.0 108.98870964050293 L 53.0 171.0 L 52.8 173.5 L 52.4 176.0 L 51.6 178.4 L 50.3 180.7 L 48.7 182.7 L 46.7 184.3 L 44.4 185.6 L 42.0 186.4 L 39.5 186.8 L 37.0 187.0 L 37.0 181.0 L 23.0 178.0 Z M 99.5 183.8 L 97.1 183.4 L 94.6 182.6 L 92.4 181.4 L 90.4 179.7 L 88.7 177.7 L 87.5 175.4 L 86.7 173.0 L 86.2 170.5 L 86.1 168.0 L 86.1 89.9 L 98.1 95.9 L 162.3 95.9 L 168.3 90.9 L 179.3 99.9 L 174.3 103.9 L 174.3 140.2 L 162.3 146.2 L 162.3 134.2 L 98.1 134.2 L 98.1 168.0 L 98.2 169.2 L 98.3 170.1 L 98.5 170.7 L 98.7 171.0 L 98.9 171.2 L 99.0 171.4 L 99.4 171.6 L 100.0 171.7 L 100.9 171.9 L 102.1 172.0 L 173.7 172.0 L 179.7 147.0 L 181.7 147.0 L 179.7 172.0 L 183.3 174.4 L 185.7 178.0 L 183.3 181.6 L 179.7 184.0 L 102.1 184.0 Z M 98.1 99.9 L 98.1 130.2 L 162.3 130.2 L 162.3 99.9 Z M 172.1 77.3 L 170.8 72.9 L 169.3 68.6 L 167.6 64.2 L 165.8 59.7 L 163.7 55.2 L 161.6 50.6 L 159.3 45.9 L 157.0 41.0 L 158.4 39.9 L 162.4 43.7 L 166.0 47.7 L 169.3 51.8 L 172.4 56.1 L 175.2 60.4 L 177.7 64.7 L 180.1 69.1 L 182.2 73.6 L 184.1 78.1 L 185.7 82.6 L 185.1 87.1 L 181.5 90.0 L 177.0 89.3 L 174.1 85.8 L 173.2 81.5 Z M 129.2 75.4 L 128.7 71.8 L 127.3 64.8 L 126.4 61.3 L 124.4 54.5 L 123.3 51.1 L 121.8 47.7 L 123.3 46.7 L 125.8 49.5 L 128.4 52.3 L 130.7 55.4 L 132.7 58.6 L 134.7 62.0 L 136.4 65.5 L 138.0 69.2 L 139.4 73.0 L 140.6 76.9 L 141.7 81.0 L 140.5 85.4 L 136.6 87.8 L 132.2 86.6 L 129.8 82.7 L 129.5 79.0 Z " />
</g>
</svg>
