<svg xmlns="http://www.w3.org/2000/svg" xmlns:xlink="http://www.w3.org/1999/xlink" version="1.1" baseProfile="full" viewBox="0 0 200 200" width="200" height="200">
<g fill="black">
<path d="M 122.6 167.3 L 122.9 170.9 L 119.27438554763793 169.4900387763977 L 118.5 170.0 L 114.3 172.6 L 109.9 175.2 L 105.3 177.6 L 100.6 180.0 L 95.7 182.3 L 90.7 184.4 L 85.5 186.5 L 80.1 188.2 L 74.4 189.8 L 73.7 188.1 L 78.4 184.8 L 83.1 181.7 L 87.6 178.6 L 92.0 175.7 L 96.3 172.7 L 100.4 169.7 L 104.4 166.8 L 108.2 163.8 L 111.8 160.8 L 114.5438232421875 158.44815149307252 L 114.5 158.4 L 115.3 157.8 Z M 168.9 182.8 L 166.3 180.4 L 163.3 178.0 L 160.1 175.6 L 156.7 173.0 L 152.9 170.5 L 149.0 167.8 L 144.8 165.0 L 140.3 162.2 L 141.0 160.5 L 146.1 162.0 L 151.1 163.4 L 155.7 165.0 L 160.1 166.7 L 164.3 168.5 L 168.2 170.4 L 171.8 172.3 L 175.3 174.3 L 178.5 176.4 L 181.4 178.5 L 183.3 182.7 L 181.8 187.0 L 177.6 188.9 L 173.3 187.3 L 171.3 185.1 Z M 24.6 176.0 L 38.6 176.0 L 39.8 175.9 L 40.7 175.7 L 41.6 175.4 L 42.0 175.0 L 42.3 174.1 L 42.5 173.2 L 42.6 172.0 L 42.6 120.0 L 12.2 120.0 L 12.2 116.0 L 42.6 116.0 L 42.6 76.0 L 15.4 76.0 L 15.4 72.0 L 42.6 72.0 L 42.6 33.96000003814697 L 38.9 34.7 L 31.3 35.9 L 23.3 37.0 L 14.8 37.8 L 14.4 36.1 L 22.5 33.3 L 30.1 30.7 L 37.2 28.3 L 43.9 26.0 L 50.1 23.8 L 55.8 21.5 L 60.9 19.4 L 65.6 17.2 L 69.8 15.1 L 72.51127014160156 13.518425750732423 L 72.5 13.5 L 72.51623525619507 13.515529441833497 L 73.4 13.0 L 74.70416669845581 15.608333301544189 L 81.7 22.3 L 81.9 25.6 L 78.13495550155639 24.056948947906495 L 74.4 25.5 L 69.6 27.2 L 64.4 28.8 L 58.7 30.4 L 54.6 31.391935443878175 L 54.6 72.0 L 59.7 72.0 L 69.7 62.0 L 81.7 72.0 L 81.7 76.0 L 54.6 76.0 L 54.6 116.0 L 62.9 116.0 L 72.9 106.0 L 84.9 116.0 L 84.9 120.0 L 54.6 120.0 L 54.6 172.0 L 54.4 174.5 L 54.0 177.0 L 53.2 179.4 L 52.0 181.7 L 50.3 183.7 L 48.3 185.3 L 46.0 186.6 L 43.6 187.4 L 41.1 187.8 L 38.6 188.0 L 38.6 182.0 L 24.6 179.0 Z M 101.9 85.0 L 161.4 85.0 L 167.4 80.0 L 178.4 89.0 L 173.4 93.0 L 173.4 153.0 L 161.4 159.0 L 161.4 153.0 L 101.9 153.0 L 101.9 156.0 L 89.9 162.0 L 89.9 79.0 Z M 101.9 132.0 L 101.9 149.0 L 161.4 149.0 L 161.4 132.0 Z M 101.9 110.0 L 101.9 128.0 L 161.4 128.0 L 161.4 110.0 Z M 101.9 89.0 L 101.9 106.0 L 161.4 106.0 L 161.4 89.0 Z M 159.3 41.0 L 162.1 43.0 L 159.3 44.75 L 159.3 60.0 L 166.6 60.0 L 176.6 50.0 L 188.6 60.0 L 188.6 64.0 L 159.3 64.0 L 159.3 76.2 L 148.3 81.7 L 148.3 64.0 L 114.9 64.0 L 114.9 76.2 L 103.9 81.7 L 103.9 64.0 L 81.1 64.0 L 81.1 60.0 L 103.9 60.0 L 103.9 39.0 L 114.9 41.0 L 117.7 43.0 L 114.9 44.75 L 114.9 60.0 L 148.3 60.0 L 148.3 39.0 Z M 136.3 13.0 L 138.8 15.0 L 136.3 16.66666669845581 L 136.3 30.0 L 157.6 30.0 L 167.6 20.0 L 179.6 30.0 L 179.6 34.0 L 136.3 34.0 L 136.3 47.5 L 126.3 52.5 L 126.3 34.0 L 84.3 34.0 L 84.3 30.0 L 126.3 30.0 L 126.3 11.0 Z " />
</g>
</svg>
