<svg xmlns="http://www.w3.org/2000/svg" xmlns:xlink="http://www.w3.org/1999/xlink" version="1.1" baseProfile="full" viewBox="0 0 200 200" width="200" height="200">
<g fill="black">
<path d="M 23.6 175.0 L 37.6 175.0 L 38.8 174.9 L 39.7 174.7 L 40.6 174.4 L 41.0 174.0 L 41.3 173.1 L 41.5 172.2 L 41.6 171.0 L 41.6 115.55 L 32.0 120.5 L 25.5 123.8 L 22.640983200073244 125.2075159072876 L 22.0 129.0 L 19.0 127.0 L 12.3 116.9 L 14.1 116.1 L 20.9 113.4 L 27.6 110.8 L 34.2 108.1 L 40.9 105.4 L 41.6 105.12424240112304 L 41.6 57.0 L 14.9 57.0 L 14.9 53.0 L 41.6 53.0 L 41.6 14.0 L 53.6 16.0 L 56.6 18.0 L 53.6 19.8 L 53.6 53.0 L 59.0 53.0 L 69.0 43.0 L 77.63955221176147 50.19962682723999 L 85.13018045425414 53.69934663772583 L 85.6 53.3 L 87.4 51.7 L 89.1 50.2 L 90.7 48.8 L 92.2 47.4 L 93.5 46.1 L 94.7 44.8 L 95.7 43.7 L 95.94399528503418 43.401783561706544 L 95.7 43.1 L 95.95864486694336 43.383878517150876 L 96.6 42.6 L 100.51475095748901 48.38448276519775 L 103.9 52.1 L 104.0 55.6 L 99.48984031677246 53.713933277130124 L 98.1 54.1 L 94.1 55.1 L 91.9 55.6 L 89.6 56.1 L 87.7378249168396 56.472434997558594 L 88.10171823501587 71.6 L 93.0 71.6 L 97.5 65.6 L 103.5 71.6 L 103.5 75.6 L 88.19793815612793 75.6 L 88.5443299293518 90.0 L 93.0 90.0 L 97.5 84.0 L 103.5 90.0 L 103.5 94.0 L 88.64054985046387 94.0 L 89.05188999176025 111.1 L 105.1 111.1 L 105.1 43.2 L 114.1 47.7 L 141.8 47.7 L 146.3 42.7 L 155.2 51.13157892227173 L 155.2 50.5 L 168.2 50.5 L 174.2 45.5 L 185.2 54.5 L 180.2 57.5 L 179.1702748298645 57.92905216217041 L 178.83487062454225 107.90427446365356 L 181.0 106.1 L 192.0 115.1 L 187.0 118.1 L 183.59072847366332 119.5205298423767 L 183.1 120.2 L 181.8 122.1 L 180.3 124.1 L 178.6 126.3 L 176.8 128.6 L 174.9 131.0 L 172.8 133.6 L 170.9 136.5 L 169.3 135.7 L 170.6 132.5 L 171.4 129.3 L 172.2 126.3 L 172.9 123.5 L 173.6 120.9 L 174.1 118.6 L 174.6 116.4 L 174.86000003814698 115.1 L 78.58055553436279 115.1 L 78.9 117.4 L 79.2 120.8 L 79.4 124.0 L 79.4 127.0 L 79.2 129.9 L 78.9 132.6 L 78.3 135.1 L 77.5 137.5 L 73.8 140.2 L 69.3 139.6 L 66.6 135.8 L 67.3 131.3 L 68.2 130.5 L 69.1 129.2 L 70.1 127.5 L 71.0 125.4 L 71.9 123.0 L 72.7 120.2 L 73.5 117.1 L 74.3 113.7 L 75.1 109.9 L 75.4 105.9 L 76.91760721206666 105.81568851470948 L 76.6487135887146 95.07674922943116 L 75.6 95.8 L 69.6 99.7 L 63.5 103.4 L 57.4 106.9 L 53.6 109.01111106872558 L 53.6 171.0 L 53.4 173.5 L 53.0 176.0 L 52.2 178.4 L 50.9 180.7 L 49.3 182.7 L 47.3 184.3 L 45.0 185.6 L 42.6 186.4 L 40.1 186.8 L 37.6 187.0 L 37.6 181.0 L 23.6 178.0 Z M 69.5 178.6 L 91.4 178.6 L 91.4 119.6 L 103.4 125.6 L 152.6 125.6 L 158.6 120.6 L 169.6 129.6 L 164.6 133.6 L 164.6 178.6 L 168.21818180084227 178.6 L 176.4 169.6 L 186.4 178.6 L 186.4 182.6 L 69.5 182.6 Z M 103.4 164.5 L 103.4 178.6 L 152.6 178.6 L 152.6 164.5 Z M 103.4 147.0 L 103.4 160.5 L 152.6 160.5 L 152.6 147.0 Z M 103.4 129.6 L 103.4 143.0 L 152.6 143.0 L 152.6 129.6 Z M 114.1 51.7 L 114.1 111.1 L 141.8 111.1 L 141.8 82.48000001907349 L 139.0 83.6 L 139.0 99.9 L 131.0 103.9 L 131.0 99.9 L 124.9 99.9 L 116.9 103.9 L 116.9 73.6 L 124.9 77.6 L 131.0 77.6 L 135.0 72.6 L 141.8 79.4 L 141.8 51.7 Z M 150.8 54.2 L 150.8 111.1 L 166.846204662323 111.1 L 167.24125413894654 94.0 L 152.4 94.0 L 152.4 90.0 L 167.3336633682251 90.0 L 167.6663366317749 75.6 L 152.4 75.6 L 152.4 71.6 L 167.75874586105346 71.6 L 168.153795337677 54.5 L 155.2 54.5 L 155.2 52.0 Z M 53.6 57.0 L 53.6 100.30454549789428 L 54.1 100.1 L 60.7 97.5 L 67.2 94.9 L 73.9 92.4 L 76.5588360786438 91.4872652053833 L 75.69530515670776 57.0 Z M 124.9 81.6 L 124.9 95.9 L 131.0 95.9 L 131.0 81.6 Z M 140.2 64.3 L 140.2 68.3 L 115.7 68.3 L 115.7 64.3 L 125.9777777671814 64.3 L 132.2 57.3 Z M 73.1 32.8 L 122.3 32.8 L 122.3 10.9 L 134.3 12.9 L 137.3 14.9 L 134.3 16.7 L 134.3 32.8 L 169.2777777671814 32.8 L 175.5 25.8 L 183.5 32.8 L 183.5 36.8 L 73.1 36.8 Z " />
</g>
</svg>
