<svg xmlns="http://www.w3.org/2000/svg" xmlns:xlink="http://www.w3.org/1999/xlink" version="1.1" baseProfile="full" viewBox="0 0 200 200" width="200" height="200">
<g fill="black">
<path d="M 102.8 184.0 L 90.8 190.0 L 90.8 113.0 L 102.8 115.0 L 105.8 117.0 L 102.8 118.8 L 102.8 168.0 L 128.0 168.0 L 128.0 99.0 L 79.6 99.0 L 79.6 95.0 L 128.0 95.0 L 128.0 48.0 L 106.27260274887085 48.0 L 103.3 55.0 L 99.9 62.0 L 96.3 68.9 L 92.4 75.4 L 88.1 81.6 L 83.5 87.4 L 82.0 86.5 L 87.6 72.9 L 90.4 66.0 L 93.0 59.1 L 95.4 51.9 L 97.6 44.6 L 99.7 37.1 L 101.6 29.5 L 103.3 21.7 L 104.61221370697021 14.701526737213134 L 104.6 14.7 L 104.7 14.233333301544189 L 104.8 13.7 L 104.81366529464722 13.702895164489746 L 105.2 11.9 L 116.6 16.2 L 119.1 18.8 L 115.57580642700195 20.017448711395264 L 114.4 24.4 L 112.0 32.4 L 109.3 40.1 L 107.8118420600891 44.0 L 156.1 44.0 L 166.1 34.0 L 178.1 44.0 L 178.1 48.0 L 140.0 48.0 L 140.0 95.0 L 166.4 95.0 L 176.4 85.0 L 188.4 95.0 L 188.4 99.0 L 140.0 99.0 L 140.0 168.0 L 165.1 168.0 L 165.1 113.0 L 177.1 115.0 L 180.1 117.0 L 177.1 118.8 L 177.1 178.0 L 165.1 184.0 L 165.1 172.0 L 102.8 172.0 Z M 68.8 177.1 L 67.4 179.1 L 65.7 180.9 L 63.7 182.5 L 61.6 183.8 L 59.3 184.8 L 57.0 185.4 L 54.5 185.8 L 52.0 186.0 L 52.0 180.0 L 36.0 177.0 L 36.0 174.0 L 52.0 174.0 L 53.3 173.9 L 54.4 173.7 L 55.4 173.4 L 56.2 173.1 L 56.8 172.7 L 57.5 172.2 L 58.0 171.6 L 58.6 170.8 L 59.2 169.7 L 59.7 168.5 L 60.7 164.9 L 61.8 160.1 L 62.7 154.3 L 63.4 147.5 L 64.1 139.7 L 64.5 130.9 L 64.9 121.1 L 65.0 110.4 L 65.1 98.7 L 65.07848262786865 95.96729888916016 L 65.0 96.0 L 65.0 88.0 L 47.654676246643064 88.0 L 47.4 93.9 L 46.2 107.1 L 44.5 119.7 L 42.2 131.5 L 39.3 142.7 L 35.8 153.2 L 31.8 163.0 L 27.1 172.0 L 21.7 180.2 L 15.7 187.5 L 14.2 186.4 L 18.5 178.2 L 22.3 169.6 L 25.7 160.6 L 28.6 150.9 L 31.1 140.7 L 33.1 129.8 L 34.5 118.3 L 35.5 106.2 L 36.0 93.4 L 36.0 53.0 L 48.0 55.0 L 51.0 57.0 L 48.0 58.8 L 48.0 80.0 L 47.82733812332153 84.0 L 65.0 84.0 L 71.0 79.0 L 82.0 88.0 L 77.0 91.0 L 76.9798189163208 91.00840883255005 L 77.1 98.7 L 77.0 110.5 L 76.9 121.4 L 76.5 131.4 L 76.0 140.5 L 75.4 148.6 L 74.6 155.9 L 73.6 162.3 L 72.4 167.8 L 71.0 172.6 L 70.0 174.9 Z M 15.0 49.0 L 43.0 49.0 L 43.0 16.0 L 55.0 18.0 L 58.0 20.0 L 55.0 21.8 L 55.0 49.0 L 67.0 49.0 L 77.0 39.0 L 89.0 49.0 L 89.0 53.0 L 15.0 53.0 Z " />
</g>
</svg>
