<svg xmlns="http://www.w3.org/2000/svg" xmlns:xlink="http://www.w3.org/1999/xlink" version="1.1" baseProfile="full" viewBox="0 0 200 200" width="200" height="200">
<g fill="black">
<path d="M 63.1 104.8 L 61.8 102.5 L 60.3 100.2 L 58.7 98.0 L 54.9 93.6 L 51.7 90.4 L 51.7 183.0 L 39.7 189.0 L 39.7 97.06999998092651 L 38.8 99.8 L 35.4 108.6 L 31.8 117.2 L 27.8 125.5 L 23.4 133.5 L 18.7 141.1 L 13.5 148.4 L 11.9 147.5 L 15.3 139.3 L 18.6 131.1 L 21.8 122.8 L 24.7 114.4 L 27.4 105.8 L 29.9 97.0 L 32.1 88.0 L 34.1 78.9 L 35.8 69.5 L 36.79411764144898 63.0 L 12.7 63.0 L 12.7 59.0 L 39.7 59.0 L 39.7 14.0 L 51.7 16.0 L 54.7 18.0 L 51.7 19.8 L 51.7 59.0 L 58.018181800842285 59.0 L 66.2 50.0 L 76.2 59.0 L 76.2 63.0 L 51.7 63.0 L 51.7 86.7625 L 51.8 86.8 L 55.0 87.9 L 58.0 89.2 L 60.9 90.7 L 63.7 92.3 L 66.4 94.2 L 68.9 96.2 L 71.3 98.4 L 73.6 100.8 L 75.7 103.3 L 76.3 107.8 L 73.6 111.5 L 69.1 112.2 L 65.4 109.5 L 64.3 107.1 Z M 173.2 108.3 L 171.2 105.3 L 169.0 102.3 L 166.6 99.4 L 164.1 96.5 L 161.4 93.7 L 158.5 90.8 L 155.7 88.09333333969116 L 155.7 183.0 L 143.7 189.0 L 143.7 18.0 L 155.7 20.0 L 158.7 22.0 L 155.7 23.8 L 155.7 84.73999996185303 L 161.1 86.9 L 165.0 88.9 L 168.6 91.1 L 172.1 93.5 L 175.4 96.1 L 178.5 98.8 L 181.5 101.8 L 184.3 104.9 L 187.0 108.2 L 187.7 112.7 L 185.1 116.5 L 180.6 117.2 L 176.8 114.6 L 175.1 111.5 Z M 67.2 166.9 L 73.4 165.6 L 79.8 164.2 L 86.5 162.7 L 93.3 161.2 L 96.8 160.41126756668092 L 96.8 124.0 L 72.0 124.0 L 72.0 120.0 L 96.8 120.0 L 96.8 91.0 L 108.8 93.0 L 111.8 95.0 L 108.8 96.8 L 108.8 120.0 L 113.0 120.0 L 123.0 110.0 L 135.0 120.0 L 135.0 124.0 L 108.8 124.0 L 108.8 157.6119999885559 L 115.1 156.1 L 122.8 154.4 L 130.8 152.7 L 139.0 151.1 L 139.6 152.8 L 131.9 156.3 L 124.4 159.5 L 117.0 162.4 L 109.8 165.1 L 102.8 167.7 L 95.9 170.1 L 89.2 172.4 L 82.7 174.6 L 76.3 176.6 L 74.07723407745361 177.28117017745973 L 72.8 180.9 L 70.1 178.5 L 65.2 167.4 Z M 67.0 82.0 L 96.8 82.0 L 96.8 48.0 L 72.0 48.0 L 72.0 44.0 L 96.8 44.0 L 96.8 13.0 L 108.8 15.0 L 111.8 17.0 L 108.8 18.8 L 108.8 44.0 L 113.0 44.0 L 123.0 34.0 L 135.0 44.0 L 135.0 48.0 L 108.8 48.0 L 108.8 82.0 L 116.6 82.0 L 126.6 72.0 L 138.6 82.0 L 138.6 86.0 L 67.0 86.0 Z " />
</g>
</svg>
