<svg xmlns="http://www.w3.org/2000/svg" xmlns:xlink="http://www.w3.org/1999/xlink" version="1.1" baseProfile="full" viewBox="0 0 200 200" width="200" height="200">
<g fill="black">
<path d="M 168.6 94.3 L 164.3 89.7 L 160.2 84.9 L 156.3 79.6 L 152.5 74.1 L 149.0 68.2 L 145.6 62.0 L 142.5 55.3 L 139.9 48.3 L 140.4333333015442 48.0 L 125.6944444656372 48.0 L 124.8 50.1 L 119.7 60.2 L 113.9 69.9 L 107.6 78.9 L 100.6 87.4 L 93.0 95.2 L 84.8 102.3 L 79.63748035430908 106.01237363815308 L 79.9 107.7 L 77.4 111.5 L 72.9 112.2 L 69.1 109.7 L 67.9 107.3 L 66.6 105.0 L 65.1 102.6 L 63.5 100.4 L 61.7 98.1 L 59.7 95.9 L 57.5 93.6 L 55.2 91.4 L 53.6 89.92799997329712 L 53.6 183.0 L 41.6 189.0 L 41.6 95.065625 L 39.9 99.9 L 36.4 108.7 L 32.5 117.3 L 28.3 125.5 L 23.7 133.5 L 18.6 141.2 L 13.2 148.4 L 11.6 147.5 L 15.3 139.3 L 18.9 131.1 L 22.3 122.8 L 25.5 114.3 L 28.4 105.7 L 31.1 96.9 L 33.5 88.0 L 35.6 78.8 L 37.5 69.4 L 38.49047622680664 63.0 L 12.4 63.0 L 12.4 59.0 L 41.6 59.0 L 41.6 14.0 L 53.6 16.0 L 56.6 18.0 L 53.6 19.8 L 53.6 59.0 L 58.2 59.0 L 68.2 49.0 L 80.2 59.0 L 80.2 63.0 L 53.6 63.0 L 53.6 86.65882349014282 L 54.0 86.8 L 57.4 87.8 L 60.6 89.1 L 63.6 90.6 L 66.6 92.3 L 69.4 94.1 L 72.1 96.1 L 74.6 98.3 L 76.9 100.7 L 78.92814140319824 102.9045015335083 L 82.2 99.5 L 89.1 91.5 L 95.5 83.2 L 101.3 74.6 L 106.6 65.5 L 111.4 56.0 L 114.79393939971924 48.0 L 80.5 48.0 L 80.5 44.0 L 116.33398056030273 44.0 L 119.2 35.8 L 122.3 24.9 L 124.66783056259155 14.609044075012207 L 124.6 14.6 L 125.3 11.8 L 136.6 16.2 L 139.1 18.8 L 135.53457612991332 20.009697341918944 L 133.3 28.0 L 129.4 39.3 L 127.3981481552124 44.0 L 161.5 44.0 L 171.5 34.0 L 183.5 44.0 L 183.5 48.0 L 141.9758620262146 48.0 L 146.1 53.2 L 150.6 58.8 L 154.9 64.1 L 159.2 69.1 L 163.5 73.7 L 167.8 78.0 L 172.1 81.9 L 176.5 85.5 L 180.8 88.7 L 185.2 91.6 L 188.6 93.9 L 177.6 102.3 L 173.0 98.5 Z M 109.1 109.0 L 112.1 111.0 L 109.1 112.8 L 109.1 130.0 L 108.63246755599975 136.0 L 150.7 136.0 L 150.7 107.0 L 162.7 109.0 L 165.7 111.0 L 162.7 112.8 L 162.7 136.0 L 165.6 136.0 L 175.6 126.0 L 187.6 136.0 L 187.6 140.0 L 162.7 140.0 L 162.7 183.0 L 150.7 189.0 L 150.7 140.0 L 108.0648648262024 140.0 L 107.1 145.1 L 105.0 152.2 L 102.1 158.8 L 98.6 165.0 L 94.3 170.8 L 89.4 176.1 L 83.8 180.9 L 77.6 185.1 L 70.7 188.7 L 69.7 187.2 L 75.3 182.1 L 80.2 176.9 L 84.5 171.7 L 88.2 166.4 L 91.2 160.9 L 93.6 155.2 L 95.4 149.2 L 96.5 143.1 L 96.790625 140.0 L 76.4 140.0 L 76.4 136.0 L 97.1 136.0 L 97.1 107.0 Z M 135.9 65.0 L 138.9 67.0 L 135.9 68.8 L 135.9 92.0 L 140.9 92.0 L 150.9 82.0 L 162.9 92.0 L 162.9 96.0 L 135.9 96.0 L 135.9 118.0 L 123.9 124.0 L 123.9 96.0 L 100.0 96.0 L 100.0 92.0 L 123.9 92.0 L 123.9 63.0 Z " />
</g>
</svg>
