<svg xmlns="http://www.w3.org/2000/svg" xmlns:xlink="http://www.w3.org/1999/xlink" version="1.1" baseProfile="full" viewBox="0 0 200 200" width="200" height="200">
<g fill="black">
<path d="M 61.7 103.7 L 60.4 101.4 L 59.0 99.2 L 57.5 96.9 L 53.9 92.5 L 51.1 89.5666666984558 L 51.1 182.0 L 39.1 188.0 L 39.1 97.1833333015442 L 38.6 98.7 L 35.4 107.6 L 31.8 116.1 L 28.0 124.4 L 23.8 132.4 L 19.1 140.1 L 14.1 147.4 L 12.5 146.5 L 15.8 138.4 L 18.9 130.2 L 21.9 121.9 L 24.7 113.4 L 27.4 104.8 L 29.7 96.1 L 31.9 87.1 L 33.7 77.9 L 35.4 68.6 L 36.32093019485474 62.0 L 13.3 62.0 L 13.3 58.0 L 39.1 58.0 L 39.1 13.0 L 51.1 15.0 L 54.1 17.0 L 51.1 18.8 L 51.1 58.0 L 56.31818180084228 58.0 L 64.5 49.0 L 74.5 58.0 L 74.5 62.0 L 51.1 62.0 L 51.1 85.93225803375245 L 54.1 86.9 L 57.1 88.2 L 59.9 89.7 L 62.6 91.4 L 65.2 93.3 L 67.6 95.3 L 70.0 97.5 L 72.2 99.8 L 74.2 102.3 L 74.8 106.9 L 72.0 110.5 L 67.5 111.1 L 63.8 108.4 L 62.8 106.0 Z M 173.3 173.9 L 172.4 170.4 L 171.3 166.9 L 170.0 163.3 L 168.4 159.6 L 166.6 155.8 L 164.6 152.0 L 162.4 148.0 L 159.9 144.1 L 161.2 142.8 L 164.9 146.0 L 168.4 149.1 L 171.6 152.4 L 174.4 155.8 L 177.1 159.4 L 179.4 163.0 L 181.5 166.7 L 183.3 170.5 L 184.9 174.4 L 186.2 178.4 L 185.2 182.9 L 181.4 185.4 L 177.0 184.5 L 174.4 180.7 L 174.0 177.3 Z M 70.0 184.3 L 68.8 179.9 L 71.1 175.9 L 72.9 174.8 L 74.7 173.2 L 76.5 171.2 L 78.2 168.6 L 79.8 165.5 L 81.3 161.9 L 82.7 157.9 L 84.0 153.3 L 85.2 148.3 L 86.1 142.7 L 87.9 142.8 L 88.4 148.5 L 88.7 153.8 L 88.6 158.9 L 88.2 163.6 L 87.4 168.0 L 86.4 172.1 L 85.0 175.9 L 83.2 179.4 L 81.0 182.6 L 78.4 185.4 L 73.9 186.6 Z M 140.3 171.7 L 139.9 168.6 L 139.4 165.4 L 138.7 162.1 L 137.7 158.8 L 136.6 155.5 L 135.2 152.0 L 133.7 148.5 L 131.8 145.0 L 133.2 143.9 L 136.1 146.8 L 139.0 149.6 L 141.5 152.6 L 143.8 155.8 L 145.9 159.1 L 147.7 162.5 L 149.2 166.0 L 150.5 169.6 L 151.6 173.3 L 152.3 177.1 L 150.8 181.5 L 146.8 183.5 L 142.4 182.0 L 140.4 178.0 L 140.4 174.9 Z M 113.4 183.5 L 109.4 181.5 L 107.9 177.1 L 108.4 174.0 L 108.7 170.9 L 108.9 167.8 L 108.8 164.7 L 108.7 161.5 L 108.3 158.3 L 107.8 155.1 L 107.1 151.8 L 106.3 148.3 L 105.0 145.0 L 106.5 144.1 L 108.8 147.0 L 111.0 150.0 L 113.0 153.1 L 114.7 156.3 L 116.2 159.7 L 117.4 163.2 L 118.4 166.7 L 119.1 170.4 L 119.6 174.1 L 119.8 178.0 L 117.8 182.0 Z M 146.2 126.5 L 166.2 126.5 L 167.4 126.4 L 168.3 126.3 L 168.9 126.1 L 169.2 125.9 L 169.4 125.8 L 169.6 125.6 L 169.7 125.2 L 169.9 124.7 L 170.1 123.7 L 170.2 122.5 L 170.2 13.5 L 182.2 15.5 L 185.2 17.5 L 182.2 19.3 L 182.2 122.5 L 182.0 125.1 L 181.6 127.6 L 180.8 130.0 L 179.6 132.2 L 177.9 134.3 L 175.9 135.9 L 173.6 137.1 L 171.2 137.9 L 168.7 138.4 L 166.2 138.5 L 166.2 132.5 L 146.2 129.5 Z M 94.2 89.4 L 93.6 87.7 L 92.8 86.0 L 91.7 84.3 L 90.5 82.5 L 88.9 80.7 L 87.1 79.0 L 85.1 77.1 L 84.9642424583435 77.03212118148804 L 84.0 78.4 L 79.3 84.0 L 74.1 89.1 L 68.5 93.6 L 67.2 92.3 L 71.3 86.6 L 75.0 80.8 L 78.5 74.8 L 81.7 68.6 L 84.5 62.1 L 87.1 55.4 L 89.3 48.4 L 91.2 41.1 L 92.7 33.5 L 93.48571424484253 28.5 L 67.9 28.5 L 67.9 24.5 L 112.2 24.5 L 122.2 14.5 L 134.2 24.5 L 134.2 28.5 L 105.57380952835084 28.5 L 103.9 35.9 L 101.5 44.0 L 98.8 51.6 L 98.58767127990723 52.1 L 116.5 52.1 L 122.5 47.1 L 133.5 56.1 L 128.5 59.1 L 127.58672561645508 59.48053092956543 L 126.1 67.1 L 123.0 78.6 L 119.0 89.2 L 114.2 99.1 L 108.5 108.0 L 102.0 116.0 L 94.7 123.1 L 86.7 129.2 L 77.8 134.3 L 68.3 138.3 L 67.5 136.6 L 75.9 131.1 L 83.4 125.0 L 90.2 118.4 L 96.2 111.2 L 101.4 103.3 L 105.9 94.8 L 109.6 85.6 L 112.7 75.6 L 115.0 64.9 L 116.21379308700561 56.1 L 96.88904113769532 56.1 L 95.7 58.9 L 92.2 65.8 L 88.3 72.3 L 86.34622592926026 75.07163295745849 L 88.9 75.6 L 91.6 76.4 L 94.2 77.5 L 96.7 78.8 L 98.9 80.4 L 101.0 82.1 L 103.0 84.2 L 104.7 86.4 L 106.1 88.8 L 105.8 93.4 L 102.4 96.5 L 97.9 96.2 L 94.8 92.8 L 94.6 91.1 Z M 152.6 26.1 L 155.6 28.1 L 152.6 29.9 L 152.6 108.3 L 140.6 114.3 L 140.6 24.1 Z " />
</g>
</svg>
