<svg xmlns="http://www.w3.org/2000/svg" xmlns:xlink="http://www.w3.org/1999/xlink" version="1.1" baseProfile="full" viewBox="0 0 200 200" width="200" height="200">
<g fill="black">
<path d="M 93.9 114.0 L 130.5688073158264 114.0 L 128.50993547439575 95.29858064651489 L 128.5 95.3 L 128.48674697875975 95.08795185089112 L 128.4 94.3 L 128.4373638153076 94.29782047271729 L 128.3 92.1 L 140.4 93.6 L 143.5 95.4 L 140.792901802063 97.26113004684449 L 142.58926830291747 114.0 L 162.2 114.0 L 172.2 104.0 L 184.2 114.0 L 184.2 118.0 L 143.4589285850525 118.0 L 146.3 130.9 L 151.1 144.3 L 151.6349066734314 145.30173435211182 L 152.4 144.2 L 157.0 136.4 L 160.96198921203614 128.92624769210815 L 160.9 128.9 L 161.9 127.0 L 172.0 133.6 L 173.7 136.8 L 169.97210636138917 136.99282207489014 L 166.8 142.3 L 161.2 150.3 L 157.16539239883423 155.36035528182984 L 162.4 162.4 L 168.1 167.9 L 173.4 171.5 L 177.47834100723267 173.49385557174682 L 182.9 150.0 L 184.9 150.0 L 182.97446804046632 175.0319149017334 L 187.1 176.8 L 188.9 181.0 L 187.1 185.2 L 182.9 187.0 L 178.8 186.5 L 173.6 184.9 L 167.4 181.9 L 160.5 177.2 L 153.4 170.3 L 148.96917686462402 164.3280210494995 L 142.4 170.3 L 135.4 175.6 L 128.2 180.1 L 120.6 183.9 L 112.7 186.8 L 104.5 188.8 L 104.0 187.1 L 111.2 183.3 L 118.1 179.1 L 124.6 174.6 L 130.8 169.6 L 136.6 164.0 L 142.2 158.0 L 143.82192153930663 155.94140729904174 L 140.2 149.1 L 134.8 134.2 L 131.21988954544068 118.0 L 93.9 118.0 L 93.9 135.0 L 93.4 142.8 L 92.6 150.1 L 91.4 157.0 L 89.9 163.4 L 88.0 169.4 L 85.8 174.8 L 83.1 179.7 L 80.1 184.0 L 76.6 187.7 L 72.8 190.6 L 71.5 189.3 L 73.6 185.4 L 75.5 181.2 L 77.2 176.9 L 78.7 172.1 L 79.9 167.0 L 80.8 161.5 L 81.5 155.6 L 81.9 149.1 L 82.0 142.3 L 81.9 135.0 L 81.9 108.0 Z M 67.8 105.0 L 66.3 102.7 L 64.6 100.4 L 62.8 98.1 L 60.7 95.9 L 58.5 93.7 L 56.1 91.4 L 54.4 89.83599996566772 L 54.4 183.0 L 42.4 189.0 L 42.4 94.66060609817505 L 40.5 99.9 L 36.9 108.7 L 33.0 117.3 L 28.7 125.6 L 24.0 133.6 L 18.9 141.2 L 13.3 148.4 L 11.8 147.5 L 15.6 139.3 L 19.3 131.1 L 22.7 122.8 L 26.0 114.3 L 29.0 105.7 L 31.7 96.9 L 34.1 87.9 L 36.3 78.8 L 38.2 69.4 L 39.26666669845581 63.0 L 12.6 63.0 L 12.6 59.0 L 42.4 59.0 L 42.4 14.0 L 54.4 16.0 L 57.4 18.0 L 54.4 19.8 L 54.4 59.0 L 59.5 59.0 L 69.5 49.0 L 81.5 59.0 L 81.5 63.0 L 54.4 63.0 L 54.4 86.53823528289794 L 58.3 87.8 L 61.5 89.1 L 64.7 90.6 L 67.6 92.2 L 70.5 94.1 L 73.2 96.1 L 75.7 98.3 L 78.1 100.6 L 80.4 103.1 L 81.2 107.6 L 78.7 111.5 L 74.2 112.3 L 70.4 109.7 L 69.2 107.4 Z M 110.3 157.1 L 109.0 154.0 L 107.5 151.0 L 105.9 148.1 L 104.1 145.2 L 102.2 142.4 L 100.1 139.6 L 97.9 136.8 L 95.4 134.3 L 96.4 132.8 L 99.7 134.5 L 103.0 136.3 L 106.2 138.4 L 109.1 140.7 L 112.0 143.2 L 114.6 145.9 L 117.1 148.9 L 119.5 152.0 L 121.6 155.3 L 123.7 158.8 L 123.6 163.4 L 120.5 166.7 L 115.9 166.7 L 112.6 163.5 L 111.5 160.3 Z M 151.3 104.2 L 150.1 100.6 L 149.3 98.7 L 147.5 94.9 L 146.5 92.9 L 145.0 91.3 L 146.2 89.9 L 148.0 91.3 L 150.1 92.3 L 152.1 93.5 L 154.0 94.8 L 155.8 96.3 L 157.5 97.8 L 159.2 99.4 L 160.7 101.1 L 162.2 102.9 L 163.6 104.8 L 163.6 109.4 L 160.5 112.7 L 155.9 112.7 L 152.6 109.6 L 151.8 106.0 Z M 125.66485414505004 17.01007957458496 L 132.2 23.4 L 132.3 26.7 L 128.57228994369507 25.183643341064453 L 126.5 26.0 L 123.1 27.3 L 115.9 29.7 L 112.1 30.7 L 108.2 31.8 L 104.2 32.7 L 100.1 33.5 L 97.2 33.904651165008545 L 97.2 55.7 L 110.31818180084228 55.7 L 118.5 46.7 L 128.5 55.7 L 128.5 59.7 L 97.2 59.7 L 97.2 83.1 L 163.8 83.1 L 163.8 59.7 L 136.3 59.7 L 136.3 55.7 L 163.8 55.7 L 163.8 32.2 L 137.0 32.2 L 137.0 28.2 L 163.8 28.2 L 169.8 23.2 L 180.8 32.2 L 175.8 36.2 L 175.8 93.1 L 163.8 99.1 L 163.8 87.1 L 97.2 87.1 L 97.2 99.1 L 85.2 105.1 L 85.2 26.0 L 95.17468357086182 30.987341785430907 L 98.5 29.1 L 102.2 27.2 L 105.7 25.3 L 109.1 23.4 L 115.5 19.6 L 118.5 17.8 L 121.4 16.0 L 123.25968351364136 14.691333866119384 L 123.2 14.6 L 123.27929515838623 14.677533054351807 L 124.1 14.1 Z " />
</g>
</svg>
