<svg xmlns="http://www.w3.org/2000/svg" xmlns:xlink="http://www.w3.org/1999/xlink" version="1.1" baseProfile="full" viewBox="0 0 200 200" width="200" height="200">
<g fill="black">
<path d="M 59.2 91.0 L 61.3 93.9 L 57.53019561767578 94.62750606536865 L 56.3 97.3 L 53.1 103.3 L 51.37758617401123 106.0 L 82.0 106.0 L 88.0 101.0 L 99.0 110.0 L 94.0 113.0 L 92.4450704574585 113.64788732528686 L 90.1 121.0 L 85.3 132.0 L 79.6 142.1 L 72.9 151.4 L 65.3 159.9 L 56.7 167.5 L 47.2 174.2 L 36.8 180.0 L 25.5 184.9 L 13.3 188.8 L 12.6 187.1 L 23.9 181.5 L 34.1 175.4 L 43.4 168.8 L 51.8 161.7 L 59.1 154.0 L 65.5 145.8 L 71.0 136.9 L 75.6 127.5 L 79.3 117.3 L 81.19259262084961 110.0 L 48.7618182182312 110.0 L 45.5 114.6 L 41.2 119.8 L 36.6 124.7 L 31.6 129.3 L 26.3 133.5 L 20.6 137.3 L 14.5 140.7 L 13.4 139.2 L 18.2 134.4 L 22.7 129.5 L 26.9 124.6 L 30.9 119.7 L 34.5 114.6 L 37.8 109.3 L 40.8 104.0 L 43.5 98.4 L 45.9 92.7 L 47.67233648300171 87.72057847976684 L 47.6 87.7 L 48.26521739959717 86.0 L 14.2 86.0 L 14.2 82.0 L 31.1 82.0 L 31.1 29.2 L 43.1 31.2 L 46.1 33.2 L 43.1 35.0 L 43.1 82.0 L 57.1 82.0 L 57.1 13.5 L 69.1 15.5 L 72.1 17.5 L 69.1 19.3 L 69.1 45.0 L 84.1777777671814 45.0 L 90.4 38.0 L 98.4 45.0 L 98.4 49.0 L 69.1 49.0 L 69.1 82.0 L 83.7 82.0 L 93.7 72.0 L 105.7 82.0 L 105.7 86.0 L 49.64642858505249 86.0 Z M 160.5 184.9 L 156.3 186.7 L 154.1 187.4 L 149.7 188.4 L 147.4 188.7 L 145.2 188.9 L 142.8 189.0 L 142.8 183.0 L 122.8 180.0 L 122.8 177.0 L 142.8 177.0 L 144.5 176.9 L 146.1 176.8 L 147.7 176.5 L 149.2 176.2 L 150.8 175.8 L 152.3 175.4 L 153.7 174.8 L 155.2 174.1 L 156.6 173.4 L 158.0 172.5 L 159.6 171.1 L 161.5 168.2 L 163.5 163.7 L 165.4 157.7 L 167.1 150.2 L 168.6 141.3 L 169.9 131.0 L 170.9 119.3 L 171.6 106.2 L 172.0236110687256 94.0 L 123.7463768005371 94.0 L 120.6 107.0 L 107.5 110.0 L 124.41666669845581 40.0 L 97.2 40.0 L 97.2 36.0 L 170.3181818008423 36.0 L 178.5 27.0 L 188.5 36.0 L 188.5 40.0 L 136.81594200134276 40.0 L 124.71449279785156 90.0 L 172.1 90.0 L 178.1 85.0 L 189.1 94.0 L 184.1 97.0 L 183.93093729019165 97.07044277191162 L 183.6 106.8 L 182.8 120.1 L 181.8 132.2 L 180.5 143.0 L 178.9 152.5 L 177.0 160.8 L 174.7 167.9 L 172.0 173.9 L 168.7 178.9 L 164.5 182.6 L 162.5 183.8 Z M 51.4 141.5 L 50.3 139.2 L 49.0 137.0 L 47.6 134.8 L 46.1 132.6 L 44.4 130.5 L 42.6 128.3 L 40.7 126.1 L 38.4 124.2 L 39.3 122.7 L 42.1 123.9 L 45.0 125.0 L 47.8 126.3 L 50.4 127.8 L 53.0 129.5 L 55.4 131.4 L 57.7 133.4 L 59.9 135.6 L 61.9 138.0 L 63.8 140.5 L 64.2 145.0 L 61.4 148.6 L 56.8 149.0 L 53.2 146.1 L 52.4 143.8 Z " />
</g>
</svg>
