<svg xmlns="http://www.w3.org/2000/svg" xmlns:xlink="http://www.w3.org/1999/xlink" version="1.1" baseProfile="full" viewBox="0 0 200 200" width="200" height="200">
<g fill="black">
<path d="M 168.1 74.8 L 163.8 69.7 L 159.6 64.0 L 155.6 58.0 L 151.9 51.4 L 148.4 44.4 L 145.1 36.9 L 142.80410537719726 30.566497707366942 L 139.5 37.9 L 135.0 46.4 L 130.4 54.4 L 125.4 61.8 L 120.2 68.7 L 114.7 75.0 L 108.9 80.7 L 102.8 85.7 L 96.4 90.0 L 95.2 88.5 L 97.43214282989501 86.0 L 47.778181838989255 86.0 L 57.4 90.9 L 59.5 93.8 L 55.69648475646973 94.60074005126953 L 54.5 97.2 L 51.4 103.3 L 49.74210529327392 106.0 L 78.9 106.0 L 84.9 101.0 L 95.9 110.0 L 90.9 113.0 L 89.36470584869384 113.63970584869385 L 87.1 121.0 L 82.6 131.9 L 77.0 142.0 L 70.6 151.3 L 63.2 159.8 L 54.9 167.4 L 45.7 174.2 L 35.6 180.0 L 24.6 184.9 L 12.8 188.8 L 12.2 187.1 L 23.0 181.5 L 32.9 175.4 L 41.8 168.8 L 49.8 161.8 L 56.9 154.1 L 63.0 145.9 L 68.3 137.0 L 72.7 127.5 L 76.3 117.4 L 78.15 110.0 L 47.209090900421145 110.0 L 44.1 114.5 L 39.9 119.7 L 35.4 124.6 L 30.6 129.2 L 25.5 133.5 L 19.9 137.3 L 14.0 140.7 L 12.9 139.2 L 17.5 134.4 L 21.8 129.5 L 25.9 124.7 L 29.7 119.7 L 33.1 114.6 L 36.3 109.4 L 39.2 104.0 L 41.8 98.5 L 44.1 92.8 L 45.761256504058835 87.81623039245605 L 45.7 87.8 L 46.375 86.0 L 13.7 86.0 L 13.7 82.0 L 29.8 82.0 L 29.8 29.2 L 41.8 31.2 L 44.8 33.2 L 41.8 35.0 L 41.8 82.0 L 54.9 82.0 L 54.9 13.5 L 66.9 15.5 L 69.9 17.5 L 66.9 19.3 L 66.9 45.0 L 80.77777776718139 45.0 L 87.0 38.0 L 95.0 45.0 L 95.0 49.0 L 66.9 49.0 L 66.9 82.0 L 80.0 82.0 L 90.0 72.0 L 101.36363639831544 81.46969699859619 L 105.0 77.0 L 109.6 70.9 L 114.0 64.3 L 118.3 57.3 L 122.3 49.8 L 126.1 41.9 L 129.7 33.5 L 133.0 24.7 L 135.85479173660278 16.31404914855957 L 135.8 16.3 L 136.7 13.9 L 147.5 19.3 L 149.7 22.2 L 146.01774969100953 22.91060972213745 L 144.97159671783447 25.45893096923828 L 146.0 27.1 L 150.4 34.2 L 154.7 40.8 L 159.0 47.0 L 163.3 52.6 L 167.6 57.7 L 172.0 62.3 L 176.4 66.4 L 180.8 70.0 L 185.3 73.1 L 188.5 75.4 L 177.5 83.8 L 172.7 79.5 Z M 184.1 136.7 L 185.0 140.2 L 181.2779715538025 139.48171377182007 L 177.1 143.6 L 169.5 150.2 L 161.5 156.4 L 153.0 162.1 L 143.9 167.5 L 134.4 172.5 L 124.4 177.0 L 114.0 181.2 L 103.0 184.8 L 91.5 187.8 L 90.9 186.1 L 101.6 181.2 L 111.8 176.2 L 121.6 171.1 L 130.8 165.8 L 139.5 160.3 L 147.7 154.5 L 155.3 148.4 L 162.5 142.1 L 169.1 135.5 L 174.5428376197815 129.4325744628906 L 174.5 129.4 L 175.6 128.3 Z M 168.7 107.5 L 169.7 111.0 L 165.98718357086182 110.41376581192017 L 163.3 113.3 L 157.7 118.8 L 151.6 124.1 L 145.3 129.2 L 138.7 134.0 L 131.7 138.6 L 124.4 142.9 L 116.8 146.9 L 108.8 150.5 L 100.4 153.8 L 99.6 152.1 L 107.0 147.2 L 114.0 142.3 L 120.8 137.4 L 127.3 132.4 L 133.5 127.3 L 139.3 122.1 L 144.9 116.7 L 150.0 111.3 L 154.9 105.7 L 159.4 99.9 L 159.4094464302063 99.90771961212158 L 159.8 99.4 Z M 49.4 141.4 L 48.3 139.2 L 47.2 136.9 L 45.9 134.8 L 44.4 132.6 L 42.8 130.4 L 41.1 128.3 L 39.3 126.0 L 37.0 124.2 L 37.9 122.7 L 40.6 124.0 L 43.5 125.0 L 46.2 126.4 L 48.8 127.9 L 51.3 129.6 L 53.6 131.4 L 55.9 133.5 L 58.0 135.7 L 60.0 138.0 L 61.8 140.5 L 62.1 145.1 L 59.2 148.6 L 54.7 148.9 L 51.1 146.0 L 50.3 143.7 Z M 154.1 82.4 L 155.3 85.8 L 151.49355754852294 85.34060173034668 L 150.2 86.8 L 146.0 91.0 L 141.5 95.1 L 136.9 99.0 L 131.9 102.7 L 126.8 106.2 L 121.3 109.5 L 115.6 112.6 L 109.7 115.3 L 103.4 117.7 L 102.5 116.2 L 107.7 112.1 L 112.7 108.0 L 117.6 104.1 L 122.2 100.1 L 126.5 96.1 L 130.7 92.1 L 134.5 87.9 L 138.1 83.7 L 141.5 79.4 L 144.01588554382323 75.91022329330444 L 144.0 75.9 L 145.0 74.5 Z " />
</g>
</svg>
