<svg xmlns="http://www.w3.org/2000/svg" xmlns:xlink="http://www.w3.org/1999/xlink" version="1.1" baseProfile="full" viewBox="0 0 200 200" width="200" height="200">
<g fill="black">
<path d="M 157.0 176.2 L 148.0 170.6 L 139.9 164.1 L 138.30945034027098 162.44317741394042 L 129.4 169.9 L 119.3 176.5 L 108.4 181.9 L 96.7 186.0 L 84.3 188.8 L 83.8 187.1 L 95.4 182.5 L 106.1 177.1 L 115.8 171.0 L 124.6 164.0 L 132.44973487854003 156.24962882995607 L 126.7 148.2 L 121.6 138.9 L 117.7 128.8 L 114.8 117.9 L 113.41440677642822 107.0 L 103.2 107.0 L 103.2 103.0 L 159.4 103.0 L 165.4 98.0 L 176.4 107.0 L 171.4 110.0 L 169.756502532959 110.68479061126709 L 166.5 119.9 L 160.9 132.1 L 154.3 143.2 L 146.9 153.2 L 145.14428825378417 155.10378379821776 L 146.5 156.3 L 154.0 161.4 L 162.2 165.6 L 171.2 169.0 L 181.1 171.5 L 189.7 173.6 L 178.0 184.4 L 167.1 180.8 Z M 45.0 91.8 L 73.0 91.8 L 79.0 86.8 L 90.0 95.8 L 85.0 99.8 L 85.0 163.2714285850525 L 88.1 161.5 L 91.6 159.6 L 95.0 157.8 L 98.4 156.1 L 101.8 154.6 L 105.1 153.1 L 106.2 154.6 L 103.7 157.2 L 98.5 162.6 L 95.7 165.3 L 89.9 170.7 L 86.8 173.4 L 83.7 176.2 L 80.5 179.0 L 80.43166866302491 179.0600486755371 L 80.6 183.1 L 77.2 181.9 L 68.5 173.4 L 70.1 172.3 L 73.0 170.41891889572145 L 73.0 95.8 L 45.0 95.8 L 45.0 137.8 L 44.4 144.1 L 43.0 150.2 L 41.0 156.0 L 38.3 161.4 L 34.9 166.5 L 30.9 171.1 L 26.3 175.4 L 21.0 179.3 L 15.2 182.7 L 8.7 185.6 L 7.8 184.0 L 13.0 179.6 L 17.6 175.1 L 21.6 170.7 L 25.0 166.3 L 27.8 161.8 L 29.9 157.2 L 31.5 152.6 L 32.6 147.8 L 33.1 142.9 L 33.0 137.8 L 33.0 85.8 Z M 115.42935781478882 107.0 L 118.9 116.7 L 123.2 126.6 L 128.0 135.5 L 133.5 143.4 L 138.45012140274048 148.9090061187744 L 139.6 147.5 L 145.8 137.9 L 151.2 127.4 L 155.8 115.8 L 158.47519998550416 107.0 Z M 124.1 26.0 L 150.3 26.0 L 156.3 21.0 L 167.3 30.0 L 162.3 34.0 L 162.3 73.0 L 162.2 74.2 L 162.3 75.1 L 162.4 75.8 L 162.5 76.2 L 162.7 76.6 L 162.9 76.9 L 163.3 77.2 L 163.9 77.5 L 164.9 77.8 L 166.3 78.0 L 177.8 78.0 L 182.8 61.0 L 184.8 61.0 L 182.8 78.0 L 185.8 80.0 L 187.8 83.0 L 185.8 86.0 L 182.8 88.0 L 166.3 88.0 L 163.8 87.9 L 161.4 87.6 L 159.1 86.9 L 156.9 85.8 L 154.9 84.3 L 153.2 82.5 L 151.9 80.3 L 151.1 78.0 L 150.5 75.5 L 150.3 73.0 L 150.3 30.0 L 124.1 30.0 L 124.1 52.0 L 123.5 58.0 L 122.3 63.9 L 120.6 69.5 L 118.3 74.9 L 115.4 80.0 L 112.0 84.8 L 108.1 89.3 L 103.6 93.5 L 98.5 97.3 L 92.9 100.7 L 91.8 99.2 L 96.0 94.5 L 99.7 89.8 L 102.9 85.2 L 105.7 80.6 L 107.9 75.9 L 109.7 71.3 L 111.0 66.6 L 111.8 61.8 L 112.2 56.9 L 112.1 52.0 L 112.1 20.0 Z M 20.1 73.9 L 53.0 73.9 L 53.0 44.3 L 13.6 44.3 L 13.6 40.3 L 53.0 40.3 L 53.0 12.7 L 65.0 14.7 L 68.0 16.7 L 65.0 18.5 L 65.0 40.3 L 82.3 40.3 L 92.3 30.3 L 104.3 40.3 L 104.3 44.3 L 65.0 44.3 L 65.0 73.9 L 75.8 73.9 L 85.8 63.9 L 97.8 73.9 L 97.8 77.9 L 20.1 77.9 Z " />
</g>
</svg>
