<svg xmlns="http://www.w3.org/2000/svg" xmlns:xlink="http://www.w3.org/1999/xlink" version="1.1" baseProfile="full" viewBox="0 0 200 200" width="200" height="200">
<g fill="black">
<path d="M 85.1 111.2 L 87.1 114.2 L 82.92324056625367 114.77610473632812 L 82.3 115.8 L 80.8 118.1 L 79.3 120.5 L 76.1 125.3 L 74.4 127.8 L 72.6 130.2 L 70.7 132.7 L 70.51538457870484 133.0 L 80.3 133.0 L 90.3 123.0 L 102.3 133.0 L 102.3 137.0 L 64.5 137.0 L 64.5 157.0 L 75.8 157.0 L 85.8 147.0 L 97.8 157.0 L 97.8 161.0 L 64.5 161.0 L 64.5 183.0 L 52.5 189.0 L 52.5 161.0 L 20.9 161.0 L 20.9 157.0 L 52.5 157.0 L 52.5 137.0 L 15.5 137.0 L 15.5 133.0 L 67.99655170440674 133.0 L 68.4 131.7 L 68.9 128.6 L 70.1 122.8 L 70.8 119.9 L 71.4 117.2 L 72.1 114.4 L 72.7 111.8 L 73.4 109.2 L 73.77901620864868 107.55759649276733 L 73.6 107.5 L 74.5 105.3 Z M 182.2 147.0 L 184.2 147.0 L 182.2 172.0 L 185.8 174.4 L 188.2 178.0 L 185.8 181.6 L 182.2 184.0 L 147.4 184.0 L 144.9 183.8 L 142.4 183.4 L 140.0 182.6 L 137.7 181.3 L 135.7 179.7 L 134.0 177.7 L 132.8 175.4 L 132.0 173.0 L 131.6 170.5 L 131.4 168.0 L 131.4 124.94103164672852 L 101.5 130.9 L 100.7 127.0 L 131.4 120.88159437179566 L 131.4 90.37580642700195 L 104.0 95.9 L 103.2 92.0 L 131.4 86.31451616287231 L 131.4 50.790909099578855 L 128.9 51.7 L 120.9 54.3 L 112.6 56.7 L 103.9 58.8 L 103.3 57.1 L 111.2 53.1 L 118.9 49.3 L 126.3 45.6 L 133.4 41.9 L 140.2 38.3 L 146.7 34.6 L 152.9 30.9 L 158.8 27.1 L 164.3 23.4 L 168.77435836791992 20.19196949005127 L 168.7 20.1 L 168.77947244644164 20.18830270767212 L 169.6 19.6 L 173.692760181427 25.647511291503907 L 176.8 29.1 L 177.0 32.7 L 173.4255027770996 31.205210208892822 L 170.4 33.0 L 164.2 36.4 L 157.7 39.7 L 151.0 42.8 L 143.9 45.9 L 143.4 46.10547943115235 L 143.4 83.89516124725341 L 156.0539876937866 81.34395408630371 L 163.8 69.6 L 177.6 77.0 L 178.4 80.9 L 143.4 87.95645160675049 L 143.4 118.4900351524353 L 164.4347454071045 114.29788188934326 L 172.3 102.5 L 186.0 110.0 L 186.8 113.9 L 143.4 122.54947242736816 L 143.4 168.0 L 143.5 169.2 L 143.6 170.1 L 143.8 170.7 L 144.0 171.0 L 144.2 171.2 L 144.3 171.4 L 144.7 171.5 L 145.3 171.7 L 146.2 171.9 L 147.4 172.0 L 176.2 172.0 Z M 39.0 124.2 L 38.8 122.1 L 38.4 119.9 L 38.1 117.7 L 36.6 110.8 L 36.0 108.4 L 35.0 106.3 L 36.5 105.3 L 38.0 107.2 L 39.9 109.0 L 41.6 110.8 L 43.2 112.7 L 44.7 114.7 L 46.2 116.8 L 48.8 121.0 L 51.0 125.6 L 50.3 130.1 L 46.7 132.9 L 42.1 132.2 L 39.4 128.5 L 39.2 126.4 Z M 11.9 101.0 L 52.5 101.0 L 52.5 84.0 L 22.7 84.0 L 22.7 80.0 L 52.5 80.0 L 52.5 61.0 L 64.5 63.0 L 67.5 65.0 L 64.5 66.8 L 64.5 80.0 L 76.11818180084228 80.0 L 84.3 71.0 L 94.3 80.0 L 94.3 84.0 L 64.5 84.0 L 64.5 101.0 L 83.0 101.0 L 93.0 91.0 L 105.0 101.0 L 105.0 105.0 L 11.9 105.0 Z M 28.7 66.0 L 17.7 71.5 L 17.7 15.7 L 28.7 21.2 L 88.2 21.2 L 93.7 16.2 L 104.2 25.2 L 99.2 28.7 L 99.2 63.0 L 88.2 68.5 L 88.2 59.0 L 28.7 59.0 Z M 28.7 25.2 L 28.7 55.0 L 41.7 55.0 L 41.7 25.2 Z M 51.7 25.2 L 51.7 55.0 L 65.2 55.0 L 65.2 25.2 Z M 75.2 25.2 L 75.2 55.0 L 88.2 55.0 L 88.2 25.2 Z " />
</g>
</svg>
