<svg xmlns="http://www.w3.org/2000/svg" xmlns:xlink="http://www.w3.org/1999/xlink" version="1.1" baseProfile="full" viewBox="0 0 200 200" width="200" height="200">
<g fill="black">
<path d="M 166.1 180.3 L 160.5 176.1 L 155.4 171.5 L 150.8 166.4 L 146.7 160.8 L 143.1 154.8 L 140.0 148.4 L 137.5 141.5 L 135.98630132675171 135.0 L 124.3 135.0 L 124.3 169.6 L 133.9 167.6 L 138.6 166.6 L 143.5 165.8 L 148.4 165.1 L 148.9 166.8 L 144.7 169.3 L 140.3 171.6 L 135.9 173.7 L 126.9 177.7 L 113.1 183.1 L 108.4 184.8 L 107.69930820465088 185.03853340148925 L 106.5 188.8 L 103.7 186.4 L 98.6 175.5 L 100.5 174.9 L 105.3 173.9 L 110.0 172.8 L 112.3 172.27291669845582 L 112.3 135.0 L 103.31111106872558 135.0 L 103.0 138.5 L 101.9 146.9 L 100.5 154.8 L 98.6 162.1 L 96.5 168.9 L 93.9 175.0 L 91.0 180.6 L 87.6 185.4 L 83.8 189.5 L 82.4 188.4 L 84.3 183.5 L 86.1 178.3 L 87.8 172.8 L 89.2 166.8 L 90.4 160.3 L 91.3 153.3 L 91.9 145.8 L 92.3 137.7 L 92.5 129.1 L 92.3 120.0 L 92.3 112.97124996185303 L 53.4 122.21000003814697 L 53.4 165.59130430221558 L 54.8 164.8 L 59.5 161.9 L 64.2 158.9 L 69.0 155.7 L 74.0 152.3 L 79.0 148.8 L 84.3 145.3 L 85.6 146.6 L 81.6 151.7 L 77.5 156.4 L 73.2 160.7 L 68.9 164.9 L 64.5 168.8 L 60.1 172.4 L 55.6 175.8 L 51.2 179.0 L 46.7 182.0 L 45.74509286880493 182.5941644668579 L 45.3 186.6 L 42.2 184.8 L 34.9 175.1 L 36.7 174.2 L 41.1 172.1 L 41.4 171.95333337783813 L 41.4 125.06000003814697 L 12.6 131.9 L 11.7 128.0 L 41.4 120.94624996185303 L 41.4 85.43779067993164 L 16.7 91.9 L 15.6 88.0 L 41.4 81.25 L 41.4 48.31999998092651 L 37.2 50.0 L 30.5 52.3 L 23.6 54.2 L 16.4 55.8 L 15.9 54.1 L 28.5 47.3 L 34.5 44.0 L 40.3 40.6 L 45.9 37.1 L 51.3 33.6 L 56.5 29.9 L 61.4 26.0 L 66.2 22.1 L 69.91520881652832 18.715032005310057 L 69.9 18.7 L 70.16000003814698 18.492000007629393 L 70.7 18.0 L 70.73031091690063 18.035751342773438 L 70.9 17.9 L 78.5 27.2 L 78.9 30.8 L 75.29847717285156 29.555837535858153 L 73.2 31.1 L 67.7 34.8 L 62.0 38.3 L 56.1 41.5 L 53.4 42.872131156921384 L 53.4 78.11046514511108 L 63.135222625732425 75.56345920562744 L 70.3 63.4 L 84.4 70.0 L 85.5 73.9 L 53.4 82.29825582504273 L 53.4 118.09624996185303 L 70.28108787536621 114.08699159622192 L 77.7 102.0 L 91.7 109.0 L 92.3 111.6 L 92.3 93.0 L 104.3 99.0 L 167.51818180084229 99.0 L 175.7 90.0 L 185.7 99.0 L 185.7 103.0 L 104.3 103.0 L 104.3 120.0 L 103.8 129.5 L 103.66666669845581 131.0 L 167.51818180084229 131.0 L 175.7 122.0 L 185.7 131.0 L 185.7 135.0 L 138.35806455612183 135.0 L 141.3 139.8 L 145.2 145.6 L 149.1 150.9 L 153.2 155.7 L 155.22886600494385 157.68275537490845 L 156.6 156.0 L 158.7 153.4 L 160.7 151.0 L 162.6 148.6 L 164.3 146.3 L 165.9 144.1 L 167.4 141.9 L 168.8 139.8 L 169.4840000152588 138.66000003814696 L 169.4 138.6 L 169.8285714149475 138.08571424484253 L 170.0 137.8 L 170.0390658378601 137.83312101364135 L 170.4 137.4 L 179.2 145.6 L 180.1 149.1 L 175.81813802719117 148.3487961769104 L 174.9 149.1 L 172.6 150.8 L 170.2 152.5 L 167.7 154.2 L 165.0 155.9 L 162.2 157.6 L 159.2 159.2 L 157.61922674179078 160.0158829689026 L 162.2 163.8 L 167.1 167.2 L 172.2 170.2 L 177.6 172.7 L 183.3 174.8 L 190.1 177.4 L 178.6 187.1 L 172.1 184.0 Z M 177.2 115.0 L 177.2 119.0 L 107.8 119.0 L 107.8 115.0 L 159.01818180084229 115.0 L 167.2 106.0 Z M 96.6 90.5 L 96.6 28.5 L 107.6 34.0 L 120.9 34.0 L 120.9 14.0 L 130.9 16.0 L 133.4 18.0 L 130.9 19.66666669845581 L 130.9 34.0 L 144.6 34.0 L 144.6 14.0 L 154.6 16.0 L 157.1 18.0 L 154.6 19.66666669845581 L 154.6 34.0 L 166.9 34.0 L 172.4 29.0 L 182.9 38.0 L 177.9 41.5 L 177.9 85.0 L 166.9 90.5 L 166.9 85.0 L 107.6 85.0 Z M 107.6 60.0 L 107.6 81.0 L 120.9 81.0 L 120.9 60.0 Z M 130.9 60.0 L 130.9 81.0 L 144.6 81.0 L 144.6 60.0 Z M 154.6 60.0 L 154.6 81.0 L 166.9 81.0 L 166.9 60.0 Z M 107.6 38.0 L 107.6 56.0 L 120.9 56.0 L 120.9 38.0 Z M 130.9 38.0 L 130.9 56.0 L 144.6 56.0 L 144.6 38.0 Z M 154.6 38.0 L 154.6 56.0 L 166.9 56.0 L 166.9 38.0 Z " />
</g>
</svg>
