<svg xmlns="http://www.w3.org/2000/svg" xmlns:xlink="http://www.w3.org/1999/xlink" version="1.1" baseProfile="full" viewBox="0 0 200 200" width="200" height="200">
<g fill="black">
<path d="M 59.0 164.7 L 57.8 161.9 L 56.5 159.3 L 55.2 156.8 L 53.8 154.5 L 52.3 152.2 L 50.8 150.0 L 50.0 148.8800000190735 L 50.0 182.0 L 38.0 188.0 L 38.0 156.775 L 37.3 157.9 L 34.3 162.2 L 30.9 166.3 L 27.3 170.1 L 23.4 173.7 L 19.1 176.8 L 14.5 179.6 L 13.4 178.3 L 16.5 174.1 L 19.5 170.0 L 22.3 165.9 L 24.8 161.8 L 27.1 157.7 L 29.2 153.4 L 31.1 149.0 L 32.7 144.6 L 34.0 140.0 L 35.02127656936646 136.0 L 15.0 136.0 L 15.0 132.0 L 38.0 132.0 L 38.0 125.41891889572143 L 34.6 127.9 L 30.1 127.1 L 27.4 123.4 L 27.4 121.6 L 27.3 119.9 L 27.1 118.1 L 26.7 116.2 L 25.5 112.4 L 24.7 110.4 L 23.7 108.3 L 22.7 106.1 L 21.1 104.3 L 22.3 103.0 L 24.3 104.5 L 26.5 105.8 L 28.6 107.2 L 30.5 108.8 L 32.3 110.5 L 33.9 112.3 L 35.5 114.2 L 36.8 116.2 L 38.0 118.2307692527771 L 38.0 94.0 L 50.0 96.0 L 53.0 98.0 L 50.0 99.8 L 50.0 132.0 L 54.0 132.0 L 64.0 122.0 L 76.0 132.0 L 76.0 136.0 L 50.0 136.0 L 50.0 145.4791666984558 L 50.7 145.8 L 53.4 146.8 L 56.0 148.3 L 58.6 150.0 L 61.0 152.0 L 63.4 154.2 L 65.7 156.8 L 67.9 159.5 L 70.0 162.5 L 72.1 165.7 L 72.3 170.2 L 69.2 173.7 L 64.7 173.8 L 61.2 170.8 L 60.1 167.7 Z M 145.6 158.7 L 157.6 158.7 L 158.9 158.6 L 159.8 158.4 L 160.7 158.1 L 160.9 157.9 L 161.0 157.7 L 161.2 157.4 L 161.4 156.8 L 161.6 155.9 L 161.6 128.0 L 115.5 128.0 L 115.5 164.4 L 110.48214282989503 166.90892858505248 L 112.7 168.1 L 119.1 170.2 L 126.5 171.5 L 135.0 172.0 L 177.0 172.0 L 183.0 147.0 L 185.0 147.0 L 183.0 172.0 L 186.6 174.4 L 189.0 178.0 L 186.6 181.6 L 183.0 184.0 L 135.0 184.0 L 125.2 183.4 L 116.2 181.9 L 108.0 179.2 L 100.7 175.3 L 94.4 170.3 L 89.2 164.1 L 85.1 157.0 L 82.1 148.9 L 80.2 139.9 L 79.4 130.2 L 78.23602895736694 95.90165462493897 L 78.0 96.0 L 78.0 88.94666662216187 L 77.96787328720093 88.0 L 20.0 88.0 L 20.0 84.0 L 78.0 84.0 L 84.0 79.0 L 95.0 88.0 L 91.03159847259522 90.38104085922241 L 91.4 129.8 L 92.1 138.2 L 93.6 145.6 L 96.0 151.9 L 99.0 157.2 L 102.7 161.6 L 103.5 162.22608699798585 L 103.5 82.9 L 115.5 88.9 L 161.6 88.9 L 167.6 83.9 L 178.6 92.9 L 173.6 96.9 L 173.6 154.7 L 173.5 157.2 L 173.0 159.7 L 172.2 162.1 L 171.0 164.4 L 169.4 166.4 L 167.4 168.0 L 165.1 169.3 L 162.7 170.1 L 160.2 170.5 L 157.6 170.7 L 157.6 164.7 L 145.6 161.7 Z M 37.63939390182495 136.0 L 38.0 136.1034782409668 L 38.0 136.0 Z M 70.7 107.7 L 72.4 110.9 L 67.97682247161865 111.05252332687378 L 66.0 113.4 L 64.3 115.4 L 62.5 117.4 L 60.7 119.3 L 56.7 123.3 L 54.5 125.2 L 52.7 127.4 L 51.2 126.5 L 52.5 123.9 L 54.3 118.5 L 55.3 116.0 L 56.2 113.5 L 57.0 111.1 L 57.9 108.7 L 59.5 104.1 L 59.90316619873047 102.89050130844116 L 59.7 102.8 L 60.7 101.0 Z M 115.5 92.9 L 115.5 124.0 L 132.1 124.0 L 132.1 92.9 Z M 144.1 92.9 L 144.1 124.0 L 161.6 124.0 L 161.6 92.9 Z M 38.8 15.6 L 41.5 18.0 L 38.16829118728638 19.50869836807251 L 37.2 25.5 L 35.4 34.9 L 34.182954502105716 40.0 L 73.0 40.0 L 83.0 30.0 L 95.0 40.0 L 95.0 44.0 L 33.21785717010498 44.0 L 31.0 52.1 L 28.5 59.9 L 25.7 67.2 L 22.7 73.9 L 19.4 80.1 L 15.7 85.6 L 11.7 90.4 L 10.2 89.5 L 12.4 83.8 L 14.5 77.8 L 16.6 71.5 L 18.5 64.7 L 20.3 57.5 L 22.0 49.8 L 23.5 41.7 L 24.8 33.0 L 25.9 23.9 L 26.9 14.2 L 27.1 12.2 Z M 88.9 70.9 L 132.1 70.9 L 132.1 55.1 L 99.6 55.1 L 99.6 51.1 L 132.1 51.1 L 132.1 35.3 L 95.1 35.3 L 95.1 31.3 L 132.1 31.3 L 132.1 12.5 L 144.1 14.5 L 147.1 16.5 L 144.1 18.3 L 144.1 31.3 L 160.7834711074829 31.3 L 170.8 21.2 L 182.8 31.3 L 182.8 35.3 L 144.1 35.3 L 144.1 51.1 L 159.3181818008423 51.1 L 167.5 42.1 L 177.5 51.1 L 177.5 55.1 L 144.1 55.1 L 144.1 70.9 L 170.9181818008423 70.9 L 179.1 61.9 L 189.1 70.9 L 189.1 74.9 L 88.9 74.9 Z M 87.0 62.0 L 87.0 66.0 L 31.0 66.0 L 31.0 62.0 L 68.81818180084228 62.0 L 77.0 53.0 Z " />
</g>
</svg>
