<svg xmlns="http://www.w3.org/2000/svg" xmlns:xlink="http://www.w3.org/1999/xlink" version="1.1" baseProfile="full" viewBox="0 0 200 200" width="200" height="200">
<g fill="black">
<path d="M 183.0 22.8 L 183.0 26.8 L 123.0 26.8 L 123.0 47.0 L 156.0 47.0 L 162.0 42.0 L 173.0 51.0 L 168.0 55.0 L 168.0 175.2 L 156.0 181.2 L 156.0 169.2 L 43.0 169.2 L 43.0 181.2 L 31.0 187.2 L 31.0 41.0 L 43.0 47.0 L 74.0 47.0 L 74.0 26.8 L 17.0 26.8 L 17.0 22.8 L 161.0 22.8 L 171.0 12.8 Z M 76.0 149.7 L 90.0 149.7 L 91.2 149.6 L 92.1 149.4 L 92.7 149.3 L 93.0 149.1 L 93.4 148.7 L 93.7 147.8 L 93.9 146.9 L 94.0 145.7 L 94.0 110.96000003814697 L 92.6 111.8 L 90.65242366790771 112.61149015426636 L 90.0 114.2 L 87.4 119.6 L 84.4 124.6 L 81.0 129.4 L 77.4 133.9 L 73.4 138.1 L 69.1 142.0 L 64.4 145.5 L 59.4 148.6 L 54.1 151.2 L 53.0 149.8 L 57.1 145.6 L 60.9 141.5 L 64.4 137.3 L 67.7 133.1 L 70.6 128.8 L 73.3 124.3 L 75.6 119.7 L 77.6 115.0 L 79.4 110.1 L 79.78235292434692 108.8 L 58.2 108.8 L 58.2 104.8 L 80.6 104.8 L 86.6 99.8 L 94.0 105.85454549789429 L 94.0 84.2 L 106.0 86.2 L 109.0 88.2 L 106.0 90.0 L 106.0 111.64736843109131 L 107.5 110.7 L 111.2 108.5 L 114.8 106.3 L 118.1 104.2 L 121.3 102.0 L 124.3 99.9 L 127.1 97.8 L 129.7 95.7 L 131.48517017364503 94.20045709609985 L 131.4 94.1 L 131.48634977340697 94.19946622848511 L 132.2 93.6 L 138.2796597480774 102.02467126846314 L 139.3 103.2 L 139.4 106.8 L 135.72799997329713 105.23599996566773 L 132.6 106.8 L 129.1 108.4 L 125.5 109.9 L 121.7 111.4 L 117.7 112.7 L 113.6 114.0 L 109.3 115.1 L 106.0 115.76000003814697 L 106.0 116.21639347076416 L 107.3 116.6 L 113.0 118.5 L 118.2 120.7 L 123.1 123.1 L 127.6 125.5 L 131.7 128.1 L 135.5 130.9 L 138.9 133.8 L 141.9 136.8 L 144.6 140.1 L 145.3 144.6 L 142.7 148.3 L 138.2 149.1 L 134.5 146.5 L 133.0 143.8 L 131.0 141.0 L 128.7 138.2 L 125.9 135.3 L 122.7 132.3 L 119.1 129.3 L 115.0 126.3 L 110.6 123.1 L 106.0 120.09591836929322 L 106.0 145.7 L 105.8 148.2 L 105.4 150.7 L 104.6 153.1 L 103.3 155.4 L 101.7 157.4 L 99.7 159.1 L 97.4 160.3 L 95.0 161.1 L 92.5 161.5 L 90.0 161.7 L 90.0 155.7 L 76.0 152.7 Z M 43.0 51.0 L 43.0 165.2 L 156.0 165.2 L 156.0 51.0 L 123.0 51.0 L 123.0 76.1 L 123.2 77.0 L 123.4 77.6 L 123.5 78.0 L 123.7 78.2 L 123.9 78.3 L 124.2 78.5 L 124.8 78.7 L 125.7 78.8 L 127.0 78.9 L 143.0 78.9 L 149.0 53.9 L 151.0 53.9 L 149.0 78.9 L 152.6 81.3 L 155.0 84.9 L 152.6 88.5 L 149.0 90.9 L 127.0 90.9 L 124.4 90.8 L 121.9 90.3 L 119.5 89.5 L 117.2 88.3 L 115.2 86.6 L 113.6 84.6 L 112.3 82.4 L 111.5 80.0 L 111.1 77.5 L 111.0 74.9 L 111.0 51.0 L 86.0 51.0 L 86.0 56.4 L 85.2 63.4 L 83.7 69.9 L 81.3 76.0 L 78.2 81.4 L 74.2 86.3 L 69.5 90.5 L 64.2 94.1 L 58.1 96.9 L 51.5 99.1 L 44.2 100.5 L 43.7 98.8 L 50.1 95.6 L 55.7 92.2 L 60.5 88.6 L 64.5 84.9 L 67.7 80.9 L 70.2 76.6 L 72.1 72.1 L 73.3 67.3 L 73.9 62.1 L 74.0 56.4 L 74.0 51.0 Z M 86.0 26.8 L 86.0 47.0 L 111.0 47.0 L 111.0 26.8 Z " />
</g>
</svg>
