<svg xmlns="http://www.w3.org/2000/svg" xmlns:xlink="http://www.w3.org/1999/xlink" version="1.1" baseProfile="full" viewBox="0 0 200 200" width="200" height="200">
<g fill="black">
<path d="M 166.2 170.9 L 160.4 166.1 L 154.9 161.0 L 149.6 155.5 L 144.7 149.8 L 140.1 143.7 L 135.8 137.3 L 132.0 130.5 L 131.5 129.40909090042115 L 131.5 183.4 L 119.5 189.4 L 119.5 136.61875 L 117.4 139.9 L 112.1 146.8 L 106.5 153.3 L 100.5 159.4 L 94.1 165.0 L 87.3 170.0 L 80.1 174.6 L 72.5 178.5 L 64.5 181.8 L 63.7 180.3 L 70.6 175.3 L 77.1 170.2 L 83.2 164.9 L 89.0 159.3 L 94.4 153.5 L 99.4 147.3 L 104.0 140.9 L 108.3 134.0 L 112.3 126.9 L 113.6020408630371 124.0 L 67.6 124.0 L 67.6 120.0 L 119.5 120.0 L 119.5 95.0 L 131.5 97.0 L 134.5 99.0 L 131.5 100.8 L 131.5 120.0 L 161.3 120.0 L 171.3 110.0 L 183.3 120.0 L 183.3 124.0 L 131.75964908599855 124.0 L 135.5 128.1 L 140.5 133.7 L 145.6 139.0 L 150.8 144.1 L 156.2 148.8 L 161.6 153.3 L 167.2 157.4 L 173.0 161.3 L 179.0 164.9 L 185.1 168.1 L 189.8 170.8 L 178.6 179.6 L 172.3 175.4 Z M 38.4 186.9 L 34.3 184.8 L 32.9 180.5 L 33.5 173.5 L 33.5 167.1 L 33.0 161.3 L 32.0 156.1 L 30.5 151.5 L 28.973366832733156 148.4467336654663 L 28.8 148.4 L 28.86610174179077 148.23220338821412 L 28.4 147.3 L 25.8 143.6 L 22.6 140.2 L 18.7 137.0 L 14.0 134.1 L 14.6 132.4 L 20.3 133.6 L 25.6 135.7 L 30.4 138.8 L 32.213289737701416 140.5690631866455 L 34.7 135.5 L 37.9 129.0 L 41.7 121.5 L 46.2 112.7 L 51.3 102.8 L 57.2 91.8 L 63.8 79.7 L 71.2 66.6 L 72.9 67.3 L 67.2 81.4 L 62.0 94.1 L 57.3 105.6 L 53.1 115.9 L 49.4 124.9 L 46.4 132.8 L 43.9 139.4 L 42.1 144.8 L 40.9 148.9 L 40.3 151.5 L 39.93542242050171 151.4017225265503 L 40.8 153.1 L 42.8 159.3 L 44.2 166.1 L 44.8 173.5 L 44.8 181.4 L 42.7 185.5 Z M 140.0 97.9 L 137.5 97.5 L 135.2 96.7 L 132.9 95.6 L 130.9 94.0 L 129.3 92.1 L 128.0 89.9 L 127.2 87.5 L 126.7 85.0 L 126.5 82.5 L 126.5 51.9 L 123.2 59.6 L 118.3 67.5 L 112.2 74.6 L 104.9 80.9 L 96.5 86.6 L 86.9 91.6 L 76.2 95.8 L 64.4 99.3 L 63.8 97.6 L 74.8 92.4 L 84.4 86.9 L 92.9 81.2 L 100.0 75.2 L 105.9 68.8 L 110.6 62.2 L 114.1 55.4 L 116.5 48.1 L 117.8 40.5 L 117.8125 40.0 L 68.3 40.0 L 68.3 36.0 L 117.9125 36.0 L 118.0 32.5 L 118.0 12.0 L 130.0 14.0 L 133.0 16.0 L 130.0 17.8 L 130.0 32.5 L 129.671875 36.0 L 160.6 36.0 L 170.6 26.0 L 182.6 36.0 L 182.6 40.0 L 129.296875 40.0 L 129.1 42.1 L 129.01915645599365 42.419859409332275 L 138.5 44.0 L 141.5 46.0 L 138.5 47.8 L 138.5 83.7 L 138.6 84.6 L 138.8 85.2 L 138.9 85.6 L 139.1 85.9 L 139.6 86.4 L 140.3 86.6 L 141.2 86.8 L 142.5 87.0 L 176.4 87.0 L 181.9 66.0 L 183.9 66.0 L 181.9 87.0 L 185.2 89.2 L 187.4 92.5 L 185.2 95.8 L 181.9 98.0 L 142.5 98.0 Z M 33.3 83.5 L 31.9 81.5 L 30.1 79.4 L 28.0 77.4 L 25.6 75.3 L 22.8 73.2 L 19.7 71.1 L 16.3 68.9 L 12.4 67.1 L 13.0 65.4 L 17.2 66.3 L 21.4 67.1 L 25.2 68.2 L 28.9 69.4 L 32.2 70.9 L 35.4 72.5 L 38.3 74.4 L 41.0 76.5 L 43.4 78.8 L 45.6 81.3 L 46.1 85.9 L 43.4 89.5 L 38.9 90.1 L 35.2 87.4 L 34.4 85.5 Z M 47.7 37.6 L 46.2 35.5 L 44.5 33.4 L 42.4 31.3 L 40.1 29.3 L 37.5 27.2 L 34.6 25.1 L 31.4 22.9 L 27.9 21.1 L 28.5 19.4 L 32.4 20.4 L 36.3 21.2 L 40.0 22.2 L 43.5 23.5 L 46.7 25.0 L 49.8 26.6 L 52.7 28.4 L 55.3 30.5 L 57.8 32.7 L 60.0 35.2 L 60.7 39.7 L 58.2 43.5 L 53.7 44.2 L 49.9 41.7 L 48.9 39.6 Z " />
</g>
</svg>
