<svg xmlns="http://www.w3.org/2000/svg" xmlns:xlink="http://www.w3.org/1999/xlink" version="1.1" baseProfile="full" viewBox="0 0 200 200" width="200" height="200">
<g fill="black">
<path d="M 108.1 130.9 L 107.15531911849976 138.3 L 139.1 138.3 L 139.1 104.6 L 151.1 106.6 L 154.1 108.6 L 151.1 110.4 L 151.1 138.3 L 164.6 138.3 L 174.6 128.3 L 186.6 138.3 L 186.6 142.3 L 151.1 142.3 L 151.1 183.6 L 139.1 189.6 L 139.1 142.3 L 106.48620691299439 142.3 L 105.1 149.0 L 102.8 157.0 L 99.9 164.3 L 96.4 170.8 L 92.3 176.5 L 87.6 181.4 L 82.5 185.3 L 76.8 188.2 L 70.7 190.1 L 70.0 188.4 L 74.9 185.0 L 79.1 181.1 L 82.9 176.9 L 86.1 172.1 L 88.9 166.8 L 91.2 160.8 L 93.1 154.2 L 94.6 146.9 L 95.175 142.3 L 59.0 142.3 L 59.0 138.3 L 95.63409090042114 138.3 L 96.1 130.1 L 96.1 104.95 L 90.0 108.0 L 90.0 89.74655170440674 L 87.7 90.5 L 82.3 92.2 L 77.2 93.8 L 72.6 95.3 L 72.24634895324706 95.4151421546936 L 71.0 99.1 L 68.3 96.7 L 63.4 85.5 L 65.3 85.0 L 69.8 84.2 L 74.6 83.3 L 79.9 82.4 L 85.5 81.4 L 90.0 80.65 L 90.0 62.4 L 66.6 62.4 L 66.6 58.4 L 90.0 58.4 L 90.0 37.3 L 64.3 37.3 L 64.3 33.3 L 90.0 33.3 L 90.0 13.8 L 102.0 15.8 L 105.0 17.8 L 102.0 19.6 L 102.0 33.3 L 105.0 33.3 L 115.0 23.3 L 127.0 33.3 L 127.0 37.3 L 102.0 37.3 L 102.0 58.4 L 105.01818180084229 58.4 L 113.2 49.4 L 123.2 58.4 L 123.2 62.4 L 102.0 62.4 L 102.0 78.63676471710205 L 104.7 78.2 L 111.9 77.2 L 119.5 76.2 L 127.5 75.3 L 127.9 77.1 L 120.4 79.9 L 113.1 82.4 L 106.2 84.6 L 102.0 85.95692310333251 L 102.0 102.0 L 96.625 104.6875 L 108.1 106.6 L 111.1 108.6 L 108.1 110.4 L 108.1 130.5 L 107.84468088150024 130.88297872543336 Z M 34.5 186.9 L 30.4 184.9 L 28.9 180.6 L 29.4 173.5 L 29.5 167.0 L 29.1 161.2 L 28.3 155.9 L 27.0 151.3 L 25.96969699859619 148.7545454978943 L 25.3 148.6 L 25.587323951721192 147.80985918045045 L 25.3 147.1 L 23.2 143.4 L 20.5 140.1 L 17.3 137.0 L 13.5 134.1 L 14.1 132.4 L 19.2 133.7 L 23.9 135.9 L 28.1 139.0 L 28.805021476745605 139.78335723876953 L 30.5 135.7 L 33.3 129.3 L 36.7 121.7 L 45.2 103.0 L 50.3 92.0 L 56.2 79.8 L 62.7 66.6 L 64.4 67.3 L 59.7 81.3 L 55.3 94.0 L 51.3 105.5 L 47.7 115.7 L 44.6 124.7 L 42.0 132.6 L 40.0 139.2 L 38.4 144.5 L 37.4 148.6 L 37.0 151.3 L 36.25194396972656 151.12737169265748 L 37.2 153.3 L 39.0 159.4 L 40.2 166.1 L 40.8 173.5 L 40.9 181.4 L 38.8 185.4 Z M 175.7 91.7 L 174.1 93.6 L 172.3 95.3 L 170.3 96.7 L 168.1 97.9 L 165.9 98.8 L 163.5 99.4 L 161.0 99.8 L 158.5 99.9 L 158.5 93.9 L 144.5 90.9 L 144.5 87.9 L 158.5 87.9 L 159.9 87.8 L 161.1 87.6 L 162.1 87.4 L 163.1 87.0 L 164.7 86.0 L 165.4 85.3 L 166.1 84.5 L 166.8 83.5 L 167.4 82.3 L 168.2 80.3 L 169.0 77.5 L 169.7 73.9 L 170.4 69.5 L 171.0 64.3 L 171.5 58.4 L 171.8 51.8 L 172.1 44.5 L 172.3 36.5 L 172.3 29.9 L 157.72727270126342 29.9 L 157.0 37.9 L 155.7 47.1 L 153.8 55.8 L 151.4 63.8 L 148.5 71.2 L 145.1 78.0 L 141.1 84.0 L 136.6 89.3 L 131.6 93.8 L 126.0 97.4 L 124.9 96.0 L 128.9 91.1 L 132.4 86.0 L 135.5 80.5 L 138.3 74.6 L 140.6 68.2 L 142.5 61.2 L 144.0 53.7 L 145.0 45.6 L 145.7 36.9 L 145.7777777671814 29.9 L 130.8 29.9 L 130.8 25.9 L 172.3 25.9 L 178.3 20.9 L 189.3 29.9 L 184.3 32.9 L 184.3 36.7 L 184.1 44.9 L 183.8 52.4 L 183.4 59.3 L 182.9 65.5 L 182.3 71.0 L 181.5 76.0 L 180.6 80.3 L 179.6 84.1 L 178.2 87.5 L 177.0 89.7 Z M 29.3 83.1 L 28.2 81.2 L 26.8 79.2 L 25.1 77.1 L 23.1 75.1 L 20.8 73.1 L 18.2 71.0 L 15.3 68.9 L 12.0 67.1 L 12.7 65.5 L 16.4 66.5 L 20.0 67.3 L 23.4 68.3 L 26.6 69.6 L 29.6 71.1 L 32.4 72.8 L 35.0 74.6 L 37.4 76.7 L 39.6 79.0 L 41.5 81.6 L 41.8 86.1 L 38.8 89.6 L 34.3 89.9 L 30.8 87.0 L 30.2 85.1 Z M 41.8 37.2 L 40.6 35.2 L 39.2 33.1 L 37.5 31.1 L 35.6 29.1 L 33.4 27.0 L 31.1 25.0 L 28.4 22.9 L 25.4 21.2 L 26.1 19.5 L 29.5 20.5 L 32.9 21.3 L 36.2 22.4 L 39.3 23.7 L 42.2 25.2 L 44.9 26.8 L 47.5 28.7 L 49.8 30.7 L 52.0 33.0 L 54.0 35.4 L 54.4 40.0 L 51.6 43.6 L 47.1 44.0 L 43.5 41.2 L 42.7 39.2 Z " />
</g>
</svg>
