<svg xmlns="http://www.w3.org/2000/svg" xmlns:xlink="http://www.w3.org/1999/xlink" version="1.1" baseProfile="full" viewBox="0 0 200 200" width="200" height="200">
<g fill="black">
<path d="M 91.5 175.5 L 111.5 175.5 L 112.7 175.4 L 113.6 175.3 L 114.2 175.1 L 114.5 174.9 L 114.7 174.7 L 114.9 174.6 L 115.0 174.2 L 115.2 173.6 L 115.4 172.7 L 115.5 171.5 L 115.5 115.9 L 85.1 115.9 L 85.1 127.9 L 73.1 133.9 L 73.1 46.8 L 85.1 52.8 L 101.49210529327392 52.8 L 103.4 50.3 L 106.0 46.4 L 108.4 42.9 L 110.6 39.7 L 114.4 34.0 L 115.9 31.6 L 117.2 29.4 L 118.2 27.5 L 118.5522388458252 26.79552240371704 L 118.4 26.7 L 119.4 25.3 L 128.6 33.1 L 129.8 36.5 L 125.27644786834716 36.0320463180542 L 125.2 36.1 L 123.2 37.9 L 120.9 39.8 L 118.4 41.9 L 115.6 44.2 L 112.5 46.7 L 109.2 49.4 L 105.5 52.2 L 104.80625 52.8 L 157.8 52.8 L 163.8 47.8 L 174.8 56.8 L 169.8 60.8 L 169.8 119.9 L 157.8 125.9 L 157.8 115.9 L 127.5 115.9 L 127.5 171.5 L 127.3 174.0 L 126.9 176.5 L 126.1 178.9 L 124.8 181.2 L 123.2 183.2 L 121.2 184.9 L 118.9 186.1 L 116.5 186.9 L 114.0 187.3 L 111.5 187.5 L 111.5 181.5 L 91.5 178.5 Z M 36.9 186.9 L 32.9 184.8 L 31.4 180.5 L 32.0 173.5 L 32.0 167.0 L 31.6 161.2 L 30.6 156.0 L 29.2 151.4 L 28.011475372314454 148.626775932312 L 27.5 148.5 L 27.718947410583496 147.9442105293274 L 27.4 147.2 L 25.0 143.5 L 22.1 140.1 L 18.5 137.0 L 14.2 134.1 L 14.8 132.4 L 20.2 133.6 L 25.3 135.8 L 29.7 138.9 L 31.001288414001465 140.23465480804444 L 33.1 135.6 L 36.1 129.1 L 39.7 121.6 L 43.9 112.8 L 48.7 102.9 L 54.2 91.9 L 60.5 79.8 L 67.5 66.6 L 69.1 67.3 L 63.9 81.3 L 59.2 94.1 L 54.8 105.6 L 50.9 115.8 L 47.5 124.8 L 44.7 132.7 L 42.4 139.3 L 40.8 144.7 L 39.7 148.7 L 39.2 151.4 L 38.57597255706787 151.24532651901245 L 39.5 153.2 L 41.4 159.3 L 42.7 166.1 L 43.3 173.5 L 43.4 181.4 L 41.3 185.5 Z M 100.3 138.5 L 102.0 141.7 L 98.11837148666382 141.90077390670777 L 96.9 143.8 L 93.4 148.9 L 89.6 153.7 L 85.5 158.3 L 81.2 162.6 L 76.7 166.6 L 72.0 170.4 L 67.0 173.8 L 61.7 176.9 L 56.2 179.5 L 55.2 178.0 L 59.5 173.8 L 63.6 169.7 L 67.6 165.5 L 71.4 161.2 L 75.0 156.9 L 78.3 152.4 L 81.5 147.7 L 84.4 143.0 L 87.2 138.0 L 89.24871273040772 133.82062606811525 L 89.2 133.8 L 90.2 131.9 Z M 169.4 166.3 L 167.4 163.0 L 164.8 159.5 L 161.8 155.8 L 158.3 152.0 L 154.4 147.9 L 150.0 143.7 L 145.2 139.1 L 140.1 134.3 L 141.1 132.8 L 147.5 136.1 L 153.3 139.4 L 158.6 142.9 L 163.4 146.3 L 167.7 149.8 L 171.6 153.2 L 175.1 156.6 L 178.2 160.1 L 180.8 163.6 L 183.0 167.1 L 183.1 171.7 L 180.1 175.1 L 175.5 175.2 L 172.1 172.1 L 171.0 169.3 Z M 85.1 85.5 L 85.1 111.9 L 157.8 111.9 L 157.8 85.5 Z M 31.8 83.3 L 30.5 81.3 L 28.9 79.3 L 27.0 77.3 L 24.8 75.2 L 22.3 73.1 L 19.4 71.1 L 16.3 68.9 L 12.7 67.1 L 13.3 65.4 L 17.3 66.4 L 21.2 67.2 L 24.8 68.3 L 28.2 69.5 L 31.4 71.0 L 34.4 72.6 L 37.2 74.5 L 39.7 76.6 L 42.0 78.9 L 44.0 81.5 L 44.5 86.0 L 41.6 89.6 L 37.1 90.0 L 33.5 87.2 L 32.8 85.3 Z M 85.1 56.8 L 85.1 81.5 L 157.8 81.5 L 157.8 56.8 Z M 45.2 37.4 L 43.9 35.3 L 42.3 33.3 L 40.5 31.2 L 38.3 29.2 L 36.0 27.1 L 33.3 25.0 L 30.4 22.9 L 27.1 21.1 L 27.8 19.5 L 31.5 20.4 L 35.1 21.3 L 38.6 22.3 L 41.9 23.6 L 44.9 25.1 L 47.8 26.7 L 50.6 28.6 L 53.1 30.6 L 55.4 32.8 L 57.5 35.3 L 58.1 39.8 L 55.4 43.5 L 50.9 44.1 L 47.2 41.5 L 46.3 39.4 Z M 185.7 21.0 L 185.7 25.0 L 57.2 25.0 L 57.2 21.0 L 163.7 21.0 L 173.7 11.0 Z " />
</g>
</svg>
