<svg xmlns="http://www.w3.org/2000/svg" xmlns:xlink="http://www.w3.org/1999/xlink" version="1.1" baseProfile="full" viewBox="0 0 200 200" width="200" height="200">
<g fill="black">
<path d="M 70.3 177.0 L 90.3 177.0 L 91.5 176.9 L 92.4 176.7 L 93.3 176.4 L 93.7 176.0 L 93.9 175.7 L 94.0 175.1 L 94.2 174.2 L 94.3 173.0 L 94.3 90.63999996185302 L 93.7 91.0 L 93.19473686218262 91.21052627563476 L 92.5 98.1 L 90.9 109.3 L 88.8 119.9 L 86.1 129.7 L 83.0 138.8 L 79.4 147.2 L 75.2 154.8 L 70.5 161.7 L 65.3 167.6 L 59.5 172.6 L 58.2 171.3 L 62.3 165.2 L 66.0 158.7 L 69.4 151.8 L 72.4 144.2 L 75.0 136.1 L 77.2 127.3 L 78.9 117.9 L 80.3 107.8 L 81.2 97.1 L 81.59912281036377 88.0 L 62.70157480239868 88.0 L 60.3 94.1 L 55.7 105.6 L 51.6 115.9 L 48.1 124.9 L 45.2 132.7 L 42.8 139.3 L 41.0 144.7 L 39.9 148.8 L 39.4 151.5 L 38.84196138381958 151.35214366912842 L 39.7 153.1 L 41.7 159.3 L 43.1 166.1 L 43.7 173.5 L 43.7 181.4 L 41.6 185.5 L 37.3 186.9 L 33.2 184.8 L 31.7 180.5 L 32.3 173.5 L 32.4 167.1 L 31.9 161.3 L 30.9 156.1 L 29.5 151.4 L 28.086545372009276 148.50241804122925 L 27.7 148.4 L 27.856564044952393 148.03095626831055 L 27.5 147.3 L 25.0 143.5 L 21.9 140.1 L 18.2 137.0 L 13.7 134.1 L 14.2 132.4 L 19.8 133.6 L 25.0 135.8 L 29.6 138.9 L 31.202240180969238 140.46316118240355 L 33.5 135.5 L 36.6 129.1 L 40.3 121.5 L 44.7 112.8 L 49.7 102.9 L 55.4 91.9 L 61.8 79.8 L 69.1 66.6 L 70.7 67.3 L 65.3 81.4 L 64.27637796401977 84.0 L 81.7 84.0 L 87.7 79.0 L 94.3 84.4 L 94.3 54.0 L 66.2 54.0 L 66.2 50.0 L 94.3 50.0 L 100.3 45.0 L 111.3 54.0 L 106.3 58.0 L 106.3 77.1292682647705 L 106.9 80.1 L 110.53999996185303 93.61999998092651 L 112.2 90.3 L 113.8 86.9 L 115.5 83.5 L 118.5 77.1 L 119.9 74.0 L 121.1 71.0 L 122.3 68.1 L 122.97895879745484 66.13101949691773 L 122.9 66.1 L 123.18888893127442 65.5222222328186 L 123.3 65.2 L 123.34014873504638 65.21970262527466 L 123.9 64.1 L 132.6 69.55882349014283 L 132.6 23.4 L 144.6 29.4 L 170.6 29.4 L 176.6 24.4 L 187.6 33.4 L 182.6 37.4 L 182.6 147.5 L 170.6 153.5 L 170.6 141.5 L 144.6 141.5 L 144.6 153.5 L 142.28549613952637 154.6572519302368 L 148.4 160.5 L 158.1 167.2 L 168.7 172.2 L 180.2 175.5 L 189.0 177.6 L 177.2 188.4 L 164.0 183.8 L 151.9 177.3 L 141.1 168.8 L 131.6 158.5 L 123.4 146.4 L 116.4 132.6 L 110.6 117.1 L 106.3 100.56888885498047 L 106.3 173.0 L 106.1 175.5 L 105.7 178.0 L 104.9 180.4 L 103.7 182.7 L 102.0 184.7 L 100.0 186.3 L 97.7 187.6 L 95.3 188.4 L 92.8 188.8 L 90.3 189.0 L 90.3 183.0 L 70.3 180.0 Z M 131.72887134552002 73.95958003997802 L 128.2 78.9 L 126.0 81.7 L 123.6 84.6 L 121.1 87.4 L 118.5 90.2 L 115.8 92.9 L 112.8 95.7 L 111.45073680877685 97.00273685455322 L 111.8 98.3 L 117.4 114.7 L 123.9 129.0 L 131.3 141.5 L 132.6 143.16913576126097 L 132.6 73.88448276519776 Z M 144.6 85.9 L 144.6 137.5 L 170.6 137.5 L 170.6 85.9 Z M 32.2 83.4 L 30.8 81.4 L 29.1 79.4 L 27.1 77.3 L 24.8 75.2 L 22.1 73.2 L 19.1 71.1 L 15.8 68.9 L 12.1 67.1 L 12.7 65.4 L 16.8 66.4 L 20.8 67.2 L 24.6 68.2 L 28.1 69.5 L 31.4 70.9 L 34.5 72.6 L 37.3 74.5 L 40.0 76.5 L 42.3 78.8 L 44.4 81.4 L 44.9 85.9 L 42.1 89.6 L 37.6 90.1 L 34.0 87.3 L 33.2 85.4 Z M 144.6 33.4 L 144.6 81.9 L 170.6 81.9 L 170.6 33.4 Z M 46.1 37.5 L 44.7 35.4 L 43.0 33.4 L 41.1 31.3 L 38.8 29.2 L 36.3 27.1 L 33.5 25.1 L 30.5 22.9 L 27.1 21.1 L 27.7 19.4 L 31.5 20.4 L 35.3 21.2 L 38.9 22.3 L 42.3 23.5 L 45.5 25.0 L 48.5 26.7 L 51.2 28.5 L 53.8 30.5 L 56.2 32.8 L 58.4 35.2 L 59.1 39.8 L 56.5 43.5 L 51.9 44.2 L 48.2 41.6 L 47.3 39.5 Z M 92.0 31.8 L 90.5 30.0 L 88.9 28.2 L 87.1 26.4 L 85.2 24.6 L 83.1 22.9 L 80.9 21.2 L 78.5 19.4 L 75.8 18.1 L 76.3 16.4 L 79.4 17.1 L 82.4 17.5 L 85.4 18.2 L 88.3 19.0 L 91.1 20.0 L 93.8 21.2 L 96.4 22.6 L 98.9 24.2 L 101.3 25.9 L 103.6 27.8 L 105.0 32.1 L 103.0 36.2 L 98.6 37.6 L 94.5 35.6 L 93.3 33.7 Z " />
</g>
</svg>
