<svg xmlns="http://www.w3.org/2000/svg" xmlns:xlink="http://www.w3.org/1999/xlink" version="1.1" baseProfile="full" viewBox="0 0 200 200" width="200" height="200">
<g fill="black">
<path d="M 63.3 81.3 L 58.5 94.1 L 54.1 105.6 L 50.2 115.8 L 46.8 124.9 L 43.9 132.7 L 41.7 139.3 L 40.0 144.7 L 38.9 148.8 L 38.4 151.4 L 37.775972557067874 151.24532651901245 L 38.7 153.2 L 40.6 159.3 L 41.9 166.1 L 42.6 173.5 L 42.6 181.4 L 40.5 185.5 L 36.2 186.9 L 32.1 184.8 L 30.6 180.5 L 31.2 173.5 L 31.2 167.0 L 30.8 161.2 L 29.9 156.0 L 28.4 151.4 L 27.211475372314453 148.626775932312 L 26.7 148.5 L 26.92741117477417 147.96395940780639 L 26.6 147.2 L 24.2 143.5 L 21.2 140.1 L 17.6 137.0 L 13.3 134.1 L 13.9 132.4 L 19.3 133.6 L 24.4 135.8 L 28.9 138.9 L 30.201288414001464 140.23465480804444 L 32.3 135.6 L 35.4 129.1 L 39.0 121.5 L 43.2 112.8 L 48.1 102.9 L 53.6 91.9 L 59.9 79.8 L 64.49096689224243 71.14274806976319 L 64.4 71.0 L 64.61457901000976 70.90965089797973 L 66.9 66.6 L 68.6 67.3 L 67.69120388031006 69.7005934715271 L 70.2 68.8 L 74.2 67.5 L 78.4 66.0 L 82.6 64.6 L 86.9 63.1 L 91.3 61.5 L 95.8 60.0 L 100.4 58.4 L 104.5 57.20416669845581 L 104.5 39.6 L 70.4 39.6 L 70.4 35.6 L 104.5 35.6 L 104.5 14.0 L 116.5 16.0 L 119.5 18.0 L 116.5 19.8 L 116.5 79.7 L 104.5 85.7 L 104.5 61.70243902206421 L 102.6 63.0 L 98.5 65.7 L 94.4 68.2 L 90.4 70.6 L 86.4 72.9 L 82.4 75.1 L 78.5 77.2 L 74.7 79.3 L 74.665625 79.3171875 L 73.9 83.2 L 70.9 81.2 L 66.15606641769409 73.75567350387573 Z M 188.0 177.0 L 188.0 181.0 L 63.0 181.0 L 63.0 177.0 L 166.0 177.0 L 176.0 167.0 Z M 93.3 113.6 L 156.7 113.6 L 162.7 108.6 L 173.7 117.6 L 168.7 121.6 L 168.7 158.3 L 156.7 164.3 L 156.7 154.3 L 93.3 154.3 L 93.3 161.3 L 81.3 167.3 L 81.3 107.6 Z M 93.3 117.6 L 93.3 150.3 L 156.7 150.3 L 156.7 117.6 Z M 183.0 91.0 L 183.0 95.0 L 68.0 95.0 L 68.0 91.0 L 164.8181818008423 91.0 L 173.0 82.0 Z M 31.0 83.3 L 29.7 81.3 L 28.1 79.3 L 26.2 77.3 L 24.0 75.2 L 21.4 73.1 L 18.6 71.1 L 15.4 68.9 L 11.8 67.1 L 12.4 65.4 L 16.4 66.4 L 20.3 67.2 L 23.9 68.3 L 27.4 69.5 L 30.6 71.0 L 33.6 72.6 L 36.4 74.5 L 38.9 76.6 L 41.2 78.9 L 43.3 81.4 L 43.7 86.0 L 40.9 89.6 L 36.3 90.0 L 32.7 87.2 L 32.0 85.3 Z M 180.8 57.7 L 182.8 57.7 L 180.8 70.7 L 183.5 72.5 L 185.3 75.2 L 183.5 77.9 L 180.8 79.7 L 145.6 79.7 L 143.3 79.4 L 141.0 78.8 L 138.8 77.8 L 136.8 76.4 L 135.2 74.5 L 133.9 72.4 L 132.9 70.1 L 132.3 67.7 L 132.1 65.2 L 132.1 14.0 L 144.1 16.0 L 147.1 18.0 L 144.1 19.8 L 144.1 43.225641059875485 L 145.7 42.2 L 149.4 39.9 L 153.0 37.5 L 156.5 35.3 L 159.9 33.0 L 163.1 30.7 L 166.1 28.4 L 169.0 26.1 L 170.94011220932006 24.447311782836913 L 170.9 24.4 L 170.9406644821167 24.446841335296632 L 171.7 23.8 L 177.8326530456543 32.38571424484253 L 178.8 33.5 L 179.0 37.1 L 175.3188328742981 35.53209552764893 L 175.2 35.6 L 171.7 37.4 L 168.0 39.2 L 164.2 40.9 L 160.2 42.5 L 156.2 44.0 L 151.9 45.4 L 147.6 46.6 L 144.1 47.43695650100708 L 144.1 65.2 L 144.0 66.4 L 144.0 67.4 L 144.1 68.1 L 144.2 68.6 L 144.3 68.9 L 144.5 69.3 L 144.9 69.7 L 145.6 70.1 L 146.7 70.4 L 148.1 70.7 L 176.3 70.7 Z M 44.5 37.4 L 43.2 35.4 L 41.6 33.3 L 39.7 31.2 L 37.6 29.2 L 35.2 27.1 L 32.5 25.0 L 29.6 22.9 L 26.3 21.1 L 26.9 19.4 L 30.6 20.4 L 34.3 21.3 L 37.8 22.3 L 41.1 23.6 L 44.2 25.0 L 47.1 26.7 L 49.8 28.5 L 52.4 30.6 L 54.7 32.8 L 56.8 35.3 L 57.4 39.8 L 54.8 43.5 L 50.2 44.1 L 46.5 41.5 L 45.6 39.4 Z " />
</g>
</svg>
