<svg xmlns="http://www.w3.org/2000/svg" xmlns:xlink="http://www.w3.org/1999/xlink" version="1.1" baseProfile="full" viewBox="0 0 200 200" width="200" height="200">
<g fill="black">
<path d="M 104.0 113.0 L 104.0 139.0 L 141.0 139.0 L 141.0 113.0 Z M 168.7 125.7 L 164.5 121.0 L 160.5 116.2 L 156.7 111.1 L 153.2 105.8 L 150.0 100.3 L 147.1 94.6 L 144.6 88.6 L 142.85 83.0 L 111.64347829818726 83.0 L 111.5 83.3 L 107.9 90.4 L 104.0 97.2 L 99.8 103.9 L 98.25714282989502 106.12857141494752 L 104.0 109.0 L 141.0 109.0 L 147.0 104.0 L 158.0 113.0 L 153.0 117.0 L 153.0 149.0 L 141.0 155.0 L 141.0 143.0 L 104.0 143.0 L 104.0 170.2 L 104.2 171.1 L 104.5 172.0 L 104.9 172.4 L 105.8 172.7 L 106.7 172.9 L 108.0 173.0 L 164.0 173.0 L 170.0 148.0 L 172.0 148.0 L 170.0 173.0 L 173.6 175.4 L 176.0 179.0 L 173.6 182.6 L 170.0 185.0 L 108.0 185.0 L 105.4 184.8 L 102.9 184.4 L 100.5 183.6 L 98.2 182.3 L 96.2 180.7 L 94.6 178.7 L 93.3 176.4 L 92.5 174.0 L 92.1 171.5 L 92.0 169.0 L 92.0 114.64285717010497 L 90.4 116.7 L 85.2 122.8 L 79.6 128.7 L 73.7 134.3 L 67.3 139.6 L 60.6 144.6 L 59.3 143.3 L 64.7 136.9 L 69.8 130.6 L 74.6 124.4 L 79.2 118.1 L 83.5 111.7 L 87.5 105.3 L 91.2 98.7 L 94.6 92.1 L 97.7 85.4 L 98.62727270126342 83.0 L 68.525 83.0 L 63.8 94.2 L 58.9 105.7 L 54.5 115.9 L 50.7 125.0 L 47.6 132.8 L 45.0 139.4 L 43.1 144.8 L 41.9 148.9 L 41.3 151.6 L 41.00812187194824 151.51624364852904 L 41.8 153.1 L 43.9 159.2 L 45.3 166.1 L 46.0 173.5 L 46.0 181.4 L 43.8 185.5 L 39.5 186.9 L 35.5 184.8 L 34.0 180.5 L 34.6 173.5 L 34.6 167.1 L 34.1 161.3 L 33.1 156.1 L 31.5 151.5 L 29.3 147.4 L 26.6 143.6 L 23.3 140.2 L 19.2 137.0 L 14.4 134.1 L 14.9 132.4 L 20.8 133.6 L 26.3 135.7 L 31.1 138.8 L 33.21546697616577 140.7678762435913 L 35.8 135.4 L 39.1 129.0 L 43.0 121.4 L 47.6 112.7 L 52.9 102.8 L 58.9 91.8 L 65.8 79.7 L 73.4 66.5 L 75.0 67.4 L 70.19428567886352 79.0 L 103.0 79.0 L 103.0 15.0 L 115.0 17.0 L 118.0 19.0 L 115.0 20.8 L 115.0 79.0 L 134.0 79.0 L 134.0 15.0 L 146.0 17.0 L 149.0 19.0 L 146.0 20.8 L 146.0 79.0 L 164.0 79.0 L 174.0 69.0 L 186.0 79.0 L 186.0 83.0 L 145.45490198135377 83.0 L 148.2 86.5 L 152.1 91.5 L 156.0 96.3 L 159.9 100.9 L 163.9 105.2 L 168.1 109.4 L 172.3 113.3 L 176.7 116.9 L 181.2 120.4 L 185.9 123.7 L 188.9 125.9 L 178.0 134.2 L 173.2 130.1 Z M 34.4 83.6 L 32.9 81.5 L 31.1 79.5 L 28.9 77.4 L 26.4 75.3 L 23.5 73.2 L 20.3 71.1 L 16.7 69.0 L 12.7 67.1 L 13.3 65.4 L 17.7 66.3 L 21.9 67.1 L 25.9 68.1 L 29.6 69.4 L 33.1 70.9 L 36.3 72.5 L 39.3 74.4 L 42.0 76.4 L 44.5 78.7 L 46.7 81.3 L 47.3 85.8 L 44.7 89.5 L 40.1 90.1 L 36.4 87.5 L 35.6 85.5 Z M 180.0 31.4 L 181.8 34.5 L 177.80033559799193 34.9137583732605 L 175.9 37.9 L 173.7 41.3 L 171.4 44.7 L 168.9 48.2 L 166.2 51.8 L 163.4 55.4 L 160.4 59.1 L 157.1 62.7 L 153.7 66.4 L 152.2 65.5 L 154.3 60.9 L 156.2 56.4 L 158.2 52.2 L 160.0 48.1 L 161.8 44.1 L 163.5 40.3 L 165.1 36.6 L 166.5 33.0 L 167.9 29.6 L 168.76406803131104 27.223812866210938 L 168.7 27.2 L 169.6 25.1 Z M 82.6 55.6 L 81.8 52.9 L 80.8 50.0 L 79.6 47.0 L 78.1 43.7 L 76.4 40.4 L 74.5 36.8 L 72.4 33.0 L 69.9 29.3 L 71.3 28.1 L 74.7 31.2 L 78.0 34.1 L 81.0 37.0 L 83.8 39.9 L 86.3 42.9 L 88.5 45.8 L 90.5 48.7 L 92.3 51.7 L 93.8 54.6 L 95.0 57.6 L 94.3 62.1 L 90.7 64.9 L 86.2 64.1 L 83.4 60.5 L 83.1 58.2 Z M 49.3 37.6 L 47.7 35.6 L 45.9 33.5 L 43.8 31.4 L 41.3 29.3 L 38.6 27.2 L 35.6 25.1 L 32.3 22.9 L 28.7 21.1 L 29.2 19.4 L 33.3 20.4 L 37.3 21.2 L 41.1 22.2 L 44.6 23.5 L 48.0 24.9 L 51.1 26.6 L 54.1 28.4 L 56.8 30.4 L 59.3 32.7 L 61.6 35.1 L 62.4 39.6 L 59.9 43.5 L 55.4 44.3 L 51.6 41.8 L 50.6 39.7 Z " />
</g>
</svg>
