<svg xmlns="http://www.w3.org/2000/svg" xmlns:xlink="http://www.w3.org/1999/xlink" version="1.1" baseProfile="full" viewBox="0 0 200 200" width="200" height="200">
<g fill="black">
<path d="M 172.8 166.2 L 170.0 154.7 L 167.7 141.8 L 165.8 127.4 L 164.3 111.5 L 163.3 94.1 L 162.8 75.2 L 162.8 54.8 L 163.5633027076721 34.0 L 133.6 34.0 L 133.6 30.0 L 159.58000001907348 30.0 L 164.5 25.9 L 175.5 34.9 L 170.5 37.9 L 165.93451328277587 40.18274335861206 L 167.0 54.7 L 168.7 74.9 L 170.5 93.5 L 172.6 110.6 L 175.0 126.0 L 177.7 139.9 L 180.7 152.1 L 184.1 162.7 L 187.6 171.6 L 191.4 178.7 L 181.9 188.7 L 179.9 185.2 L 176.1 176.4 Z M 95.1 176.4 L 91.0 167.2 L 88.66089496612548 159.1133797645569 L 87.2 162.5 L 82.5 171.4 L 77.5 178.7 L 72.1 184.5 L 66.4 188.6 L 65.3 187.3 L 69.3 182.0 L 73.0 175.7 L 76.7 168.3 L 80.2 159.6 L 83.6 149.6 L 85.20038251876831 143.8986372947693 L 84.4 140.0 L 81.7 121.7 L 80.80935316085815 113.3743881225586 L 78.1 115.0 L 78.1 154.0 L 68.1 159.0 L 68.1 150.0 L 60.7 150.0 L 50.7 155.0 L 50.7 139.2 L 49.3 148.1 L 47.6 156.5 L 45.5 164.2 L 43.1 171.3 L 40.2 177.7 L 37.0 183.5 L 33.3 188.4 L 31.7 187.5 L 33.6 181.9 L 35.2 175.8 L 36.8 169.4 L 38.1 162.4 L 39.2 154.9 L 40.1 146.9 L 40.7 138.3 L 41.1 129.1 L 41.2 119.3 L 41.0 109.0 L 41.0 70.2 L 39.2 81.0 L 37.0 93.6 L 35.0 105.0 L 33.1 115.2 L 31.6 124.1 L 30.2 131.9 L 29.2 138.5 L 28.5 143.8 L 28.0 148.0 L 27.9 150.8 L 26.568820190429687 150.60983142852783 L 27.5 153.9 L 28.6 159.8 L 29.4 166.3 L 29.9 173.5 L 30.1 181.2 L 28.1 185.3 L 23.8 186.9 L 19.7 185.0 L 18.1 180.7 L 18.5 173.5 L 18.7 166.8 L 18.7 160.8 L 18.3 155.4 L 17.8 150.6 L 17.556643390655516 149.32237758636475 L 16.0 149.1 L 16.8 146.0 L 16.842615032196044 145.8334140777588 L 16.0 142.8 L 14.8 139.6 L 13.4 136.8 L 11.7 134.2 L 12.7 132.7 L 16.0 134.1 L 19.1 136.6 L 19.282260608673095 136.81601257324218 L 19.4 136.4 L 21.2 129.9 L 23.3 122.3 L 25.7 113.5 L 28.6 103.5 L 31.8 92.4 L 35.5 80.1 L 39.7 66.7 L 41.0 67.06111106872558 L 41.0 46.0 L 53.0 52.0 L 75.9792857170105 52.0 L 75.7 47.4 L 74.44145078659058 17.194818687438964 L 74.4 17.2 L 74.3 13.9 L 86.4 15.7 L 89.5 17.6 L 86.55968704223633 19.52020444869995 L 87.7 46.8 L 88.0179856300354 52.0 L 91.0 52.0 L 101.0 42.0 L 113.0 52.0 L 113.0 56.0 L 88.26258993148804 56.0 L 89.4 74.6 L 91.3 99.0 L 92.58184232711793 110.8152419090271 L 95.1 95.9 L 97.35667448043823 80.1032787322998 L 97.3 80.1 L 97.8 77.1 L 109.4 80.8 L 112.0 83.2 L 108.70131368637085 84.63150539398194 L 106.3 97.8 L 103.0 113.5 L 99.5 127.8 L 96.40103874206542 138.4017095565796 L 99.2 152.3 L 102.3 163.2 L 104.28987340927124 167.67721519470214 L 108.6 149.0 L 110.6 149.0 L 108.67446804046631 174.0319149017334 L 112.8 175.8 L 114.6 180.0 L 113.90909090042115 181.61212120056152 L 115.4 179.5 L 119.6 171.7 L 123.5 162.6 L 126.8 152.3 L 129.7 140.7 L 132.0 127.7 L 133.8 113.3 L 135.1 97.5 L 135.9 80.4 L 136.1 61.9 L 136.1 59.5 L 148.1 62.0 L 151.1 64.1 L 147.9349314689636 65.89974489212037 L 147.3 80.9 L 145.8 98.4 L 143.8 114.6 L 141.2 129.3 L 137.9 142.7 L 134.0 154.7 L 129.5 165.2 L 124.3 174.3 L 118.4 181.8 L 111.9 187.6 L 110.6 186.3 L 111.77108430862427 184.64096384048463 L 108.6 186.0 L 100.6 183.0 Z M 60.7 112.0 L 60.7 146.0 L 68.1 146.0 L 68.1 112.0 Z M 53.0 87.0 L 53.0 104.15 L 60.7 108.0 L 68.1 108.0 L 73.1 103.0 L 80.40262479782105 109.57236232757569 L 79.4 100.2 L 78.33548383712768 87.0 Z M 18.5 81.9 L 18.1 80.0 L 17.6 78.2 L 16.9 76.3 L 16.1 74.5 L 15.1 72.6 L 14.0 70.7 L 12.7 68.7 L 10.9 67.2 L 11.9 65.7 L 14.0 66.9 L 16.4 67.8 L 18.6 69.0 L 20.7 70.4 L 22.7 71.9 L 24.5 73.7 L 26.3 75.6 L 27.8 77.7 L 29.3 80.0 L 30.5 82.4 L 30.0 86.9 L 26.4 89.8 L 21.9 89.3 L 19.0 85.7 L 18.8 83.8 Z M 53.0 56.0 L 53.0 83.0 L 64.6777777671814 83.0 L 70.9 76.0 L 77.94555311203003 82.16485900878907 L 77.4 75.4 L 76.22214288711548 56.0 Z M 25.7 36.0 L 25.3 34.0 L 24.7 32.1 L 24.1 30.3 L 23.3 28.4 L 22.4 26.5 L 21.3 24.7 L 20.2 22.7 L 18.6 21.3 L 19.6 19.8 L 21.6 21.0 L 23.8 21.9 L 26.0 23.1 L 28.0 24.4 L 29.9 26.0 L 31.7 27.7 L 33.4 29.6 L 35.0 31.7 L 36.4 33.9 L 37.7 36.3 L 37.3 40.8 L 33.8 43.8 L 29.3 43.4 L 26.3 39.9 L 26.0 37.9 Z M 95.5 33.7 L 95.0 32.1 L 94.4 30.5 L 93.7 28.8 L 92.9 27.1 L 91.9 25.4 L 90.8 23.6 L 89.6 21.7 L 87.9 20.3 L 88.9 18.8 L 90.9 20.0 L 93.1 20.8 L 95.2 21.7 L 97.2 22.8 L 99.1 24.0 L 100.9 25.3 L 102.6 26.8 L 104.2 28.3 L 107.0 31.7 L 107.2 36.3 L 104.1 39.7 L 99.5 39.8 L 96.1 36.7 L 95.9 35.2 Z " />
</g>
</svg>
