<svg xmlns="http://www.w3.org/2000/svg" xmlns:xlink="http://www.w3.org/1999/xlink" version="1.1" baseProfile="full" viewBox="0 0 200 200" width="200" height="200">
<g fill="black">
<path d="M 94.0 176.4 L 114.0 176.4 L 115.2 176.3 L 116.1 176.2 L 116.7 176.0 L 117.0 175.8 L 117.2 175.6 L 117.4 175.5 L 117.5 175.1 L 117.7 174.5 L 117.9 173.6 L 118.0 172.4 L 118.0 107.0 L 130.0 109.0 L 130.0 66.4 L 141.0 71.9 L 166.9 71.9 L 172.9 66.9 L 183.9 75.9 L 178.9 79.9 L 178.9 104.7 L 166.9 110.7 L 166.9 104.7 L 141.0 104.7 L 131.02857141494752 109.68571424484253 L 133.0 111.0 L 130.0 112.8 L 130.0 124.75833330154418 L 131.7 128.3 L 135.5 135.2 L 139.7 141.5 L 142.13369073867798 144.46275396347045 L 142.9 143.8 L 146.4 140.5 L 149.9 137.4 L 153.2 134.4 L 156.4 131.5 L 159.4 128.6 L 162.3 125.7 L 165.0 122.9 L 167.6 120.1 L 169.38418321609498 118.1730821609497 L 169.3 118.1 L 170.3 117.1 L 178.4 126.0 L 179.1 129.5 L 175.3 128.5 L 172.0 130.9 L 168.6 133.3 L 165.0 135.7 L 161.3 138.0 L 157.4 140.3 L 153.4 142.5 L 149.2 144.6 L 144.7 146.6 L 144.09805536270142 146.85415439605714 L 144.3 147.1 L 149.3 152.1 L 154.8 156.6 L 160.8 160.5 L 167.4 163.9 L 174.5 166.8 L 182.1 169.2 L 189.9 171.5 L 178.3 181.8 L 169.8 178.4 L 161.9 174.4 L 154.8 169.7 L 148.3 164.5 L 142.6 158.6 L 137.7 152.2 L 133.5 145.3 L 130.2 137.8 L 130.0 137.13333330154418 L 130.0 172.4 L 129.8 174.9 L 129.4 177.4 L 128.6 179.8 L 127.3 182.1 L 125.7 184.1 L 123.7 185.8 L 121.4 187.0 L 119.0 187.8 L 116.5 188.2 L 114.0 188.4 L 114.0 182.4 L 94.0 179.4 Z M 36.8 186.9 L 32.8 184.8 L 31.3 180.5 L 31.9 173.5 L 31.9 167.0 L 31.5 161.2 L 30.5 156.0 L 29.1 151.4 L 27.725058174133302 148.51262226104737 L 27.3 148.4 L 27.475 147.9875 L 27.1 147.2 L 24.7 143.5 L 21.6 140.1 L 17.9 137.0 L 13.5 134.1 L 14.1 132.4 L 19.6 133.6 L 24.8 135.8 L 29.3 138.9 L 30.818181800842286 140.4181818008423 L 33.0 135.6 L 36.1 129.1 L 39.8 121.5 L 44.1 112.8 L 49.0 102.9 L 54.7 91.9 L 61.0 79.8 L 68.2 66.6 L 69.0 66.95 L 69.0 65.9 L 81.0 71.9 L 106.9 71.9 L 112.4 66.9 L 122.9 75.9 L 117.9 79.4 L 117.9 108.7 L 106.9 114.2 L 106.9 104.7 L 81.0 104.7 L 81.0 111.7 L 69.0 117.7 L 69.0 69.41320753097534 L 64.5 81.3 L 59.6 94.1 L 55.0 105.6 L 51.0 115.8 L 47.6 124.9 L 44.7 132.7 L 42.3 139.3 L 40.6 144.7 L 39.5 148.8 L 39.0 151.5 L 38.424249458312985 151.34745073318481 L 39.3 153.2 L 41.3 159.3 L 42.6 166.1 L 43.3 173.5 L 43.3 181.4 L 41.1 185.5 Z M 117.7 132.5 L 112.7 135.5 L 111.3843165397644 136.0482014656067 L 110.9 137.9 L 108.4 144.1 L 105.1 149.9 L 101.0 155.3 L 96.3 160.2 L 90.8 164.7 L 84.6 168.8 L 77.8 172.4 L 70.3 175.5 L 62.0 178.0 L 61.4 176.4 L 68.6 172.1 L 75.1 167.7 L 80.9 163.4 L 85.9 158.9 L 90.1 154.4 L 93.6 149.7 L 96.4 144.9 L 98.5 139.9 L 100.0 134.9 L 100.36226415634155 132.5 L 70.0 132.5 L 70.0 128.5 L 100.7 128.5 L 106.7 123.5 Z M 141.0 75.9 L 141.0 100.7 L 166.9 100.7 L 166.9 75.9 Z M 81.0 75.9 L 81.0 100.7 L 106.9 100.7 L 106.9 75.9 Z M 31.7 83.4 L 30.4 81.4 L 28.7 79.3 L 26.8 77.3 L 24.5 75.2 L 21.8 73.2 L 18.9 71.1 L 15.7 68.9 L 12.0 67.1 L 12.5 65.4 L 16.6 66.4 L 20.6 67.2 L 24.3 68.2 L 27.8 69.5 L 31.1 71.0 L 34.1 72.6 L 37.0 74.5 L 39.5 76.6 L 41.9 78.9 L 44.0 81.4 L 44.4 86.0 L 41.6 89.6 L 37.1 90.0 L 33.5 87.2 L 32.7 85.3 Z M 102.4 22.8 L 144.8 22.8 L 150.8 17.8 L 161.8 26.8 L 156.8 30.8 L 156.8 57.1 L 144.8 63.1 L 144.8 57.1 L 102.4 57.1 L 90.4 63.1 L 90.4 16.8 Z M 102.4 26.8 L 102.4 53.1 L 144.8 53.1 L 144.8 26.8 Z M 45.5 37.5 L 44.1 35.4 L 42.5 33.3 L 40.5 31.3 L 38.3 29.2 L 35.9 27.1 L 33.1 25.1 L 30.2 22.9 L 26.8 21.1 L 27.4 19.4 L 31.2 20.4 L 34.9 21.2 L 38.5 22.3 L 41.8 23.6 L 45.0 25.0 L 47.9 26.7 L 50.7 28.5 L 53.3 30.6 L 55.6 32.8 L 57.8 35.3 L 58.4 39.8 L 55.8 43.5 L 51.3 44.2 L 47.5 41.5 L 46.6 39.5 Z " />
</g>
</svg>
