<svg xmlns="http://www.w3.org/2000/svg" xmlns:xlink="http://www.w3.org/1999/xlink" version="1.1" baseProfile="full" viewBox="0 0 200 200" width="200" height="200">
<g fill="black">
<path d="M 77.4 25.0 L 105.4 25.0 L 111.4 20.0 L 122.4 29.0 L 117.4 33.0 L 117.4 80.0 L 105.4 86.0 L 105.4 78.0 L 77.4 78.0 L 77.4 183.0 L 65.4 189.0 L 65.4 19.0 Z M 146.5 176.0 L 166.5 176.0 L 167.7 175.9 L 168.6 175.7 L 169.2 175.5 L 169.6 175.4 L 169.7 175.2 L 169.9 175.0 L 170.1 174.7 L 170.3 174.1 L 170.4 173.2 L 170.5 172.0 L 170.5 78.0 L 142.5 78.0 L 142.5 81.0 L 130.5 87.0 L 130.5 19.0 L 142.5 25.0 L 170.5 25.0 L 176.5 20.0 L 187.5 29.0 L 182.5 33.0 L 182.5 172.0 L 182.4 174.5 L 181.9 177.0 L 181.1 179.4 L 179.9 181.7 L 178.2 183.7 L 176.2 185.3 L 174.0 186.6 L 171.5 187.4 L 169.1 187.8 L 166.5 188.0 L 166.5 182.0 L 146.5 179.0 Z M 33.3 186.9 L 29.2 184.9 L 27.7 180.6 L 28.2 173.5 L 28.3 167.0 L 27.9 161.2 L 27.1 155.9 L 25.8 151.2 L 24.78775930404663 148.758713722229 L 24.1 148.6 L 24.39059829711914 147.80085468292236 L 24.1 147.1 L 22.0 143.4 L 19.4 140.1 L 16.2 137.0 L 12.4 134.1 L 13.0 132.5 L 18.1 133.7 L 22.7 135.9 L 26.9 139.0 L 27.62724142074585 139.80586204528808 L 29.3 135.7 L 32.1 129.3 L 35.4 121.7 L 43.9 103.0 L 49.0 92.0 L 54.8 79.8 L 61.3 66.6 L 63.0 67.3 L 58.3 81.3 L 53.9 94.0 L 50.0 105.5 L 46.4 115.7 L 43.4 124.7 L 40.8 132.6 L 38.7 139.2 L 37.2 144.5 L 36.2 148.6 L 35.8 151.3 L 35.051943969726565 151.12737169265748 L 36.0 153.3 L 37.8 159.4 L 39.0 166.1 L 39.6 173.5 L 39.6 181.4 L 37.6 185.4 Z M 102.0 166.9 L 114.0 166.9 L 115.2 166.8 L 116.1 166.7 L 116.7 166.5 L 117.0 166.3 L 117.2 166.1 L 117.4 166.0 L 117.5 165.6 L 117.7 165.0 L 117.9 164.1 L 118.0 162.9 L 118.0 121.4 L 82.6 121.4 L 82.6 117.4 L 143.3 117.4 L 153.3 107.4 L 165.3 117.4 L 165.3 121.4 L 130.0 121.4 L 130.0 162.9 L 129.8 165.4 L 129.4 167.9 L 128.6 170.3 L 127.3 172.6 L 125.7 174.6 L 123.7 176.3 L 121.4 177.5 L 119.0 178.3 L 116.5 178.7 L 114.0 178.9 L 114.0 172.9 L 102.0 169.9 Z M 110.9 138.4 L 112.9 141.4 L 108.94679555892944 142.01342830657958 L 108.9 142.1 L 106.7 145.7 L 104.4 149.2 L 101.8 152.6 L 99.1 155.8 L 96.2 158.9 L 93.1 161.9 L 89.9 164.7 L 86.3 167.3 L 82.7 169.8 L 81.5 168.5 L 84.1 165.1 L 86.4 161.5 L 88.6 158.0 L 90.6 154.6 L 92.5 151.2 L 94.3 147.8 L 95.9 144.3 L 97.3 140.9 L 98.6 137.4 L 99.7 133.9 L 99.77889966964722 133.93170080184936 L 100.3 132.6 Z M 150.7 158.5 L 149.5 155.5 L 148.1 152.5 L 146.7 149.6 L 145.1 146.7 L 143.4 143.7 L 141.6 140.8 L 139.7 137.8 L 137.6 135.0 L 138.8 133.7 L 141.7 135.8 L 144.8 137.8 L 147.7 140.1 L 150.4 142.5 L 153.0 145.0 L 155.4 147.7 L 157.7 150.6 L 159.9 153.5 L 161.9 156.6 L 163.8 159.8 L 163.9 164.3 L 160.8 167.7 L 156.2 167.7 L 152.8 164.6 L 151.8 161.5 Z M 155.7 93.5 L 155.7 97.5 L 92.2 97.5 L 92.2 93.5 L 137.51818180084229 93.5 L 145.7 84.5 Z M 28.1 83.1 L 27.0 81.1 L 25.6 79.1 L 23.9 77.1 L 21.9 75.1 L 19.6 73.1 L 17.1 71.0 L 14.2 68.9 L 11.0 67.1 L 11.6 65.5 L 15.3 66.5 L 18.9 67.3 L 22.3 68.4 L 25.5 69.6 L 28.5 71.1 L 31.3 72.8 L 33.9 74.6 L 36.2 76.7 L 38.4 79.1 L 40.3 81.6 L 40.5 86.1 L 37.6 89.6 L 33.0 89.9 L 29.5 87.0 L 28.9 85.0 Z M 142.5 53.0 L 142.5 74.0 L 170.5 74.0 L 170.5 53.0 Z M 77.4 53.0 L 77.4 74.0 L 105.4 74.0 L 105.4 53.0 Z M 142.5 29.0 L 142.5 49.0 L 170.5 49.0 L 170.5 29.0 Z M 77.4 29.0 L 77.4 49.0 L 105.4 49.0 L 105.4 29.0 Z M 40.4 37.2 L 39.3 35.2 L 37.9 33.1 L 36.2 31.1 L 34.3 29.1 L 32.2 27.0 L 29.8 25.0 L 27.3 22.9 L 24.2 21.2 L 24.9 19.5 L 28.3 20.5 L 31.7 21.3 L 35.0 22.4 L 38.0 23.7 L 40.9 25.2 L 43.6 26.8 L 46.2 28.7 L 48.5 30.7 L 50.7 33.0 L 52.7 35.4 L 53.1 40.0 L 50.3 43.6 L 45.7 44.0 L 42.1 41.2 L 41.4 39.2 Z " />
</g>
</svg>
