<svg xmlns="http://www.w3.org/2000/svg" xmlns:xlink="http://www.w3.org/1999/xlink" version="1.1" baseProfile="full" viewBox="0 0 200 200" width="200" height="200">
<g fill="black">
<path d="M 170.6 152.0 L 169.2 149.3 L 167.81595096588134 146.96441717147826 L 158.7 148.4 L 146.5 150.1 L 134.8 151.6 L 130.0 152.15221242904664 L 130.0 185.1 L 118.0 191.1 L 118.0 153.46542053222657 L 112.8 154.0 L 102.6 155.1 L 92.9 156.0 L 83.7 156.9 L 75.0 157.6 L 70.87246046066284 157.94810571670533 L 68.9 161.2 L 66.7 158.3 L 64.2 146.4 L 66.2 146.3 L 74.4 146.3 L 83.1 146.1 L 92.3 146.0 L 102.0 145.8 L 112.3 145.6 L 116.77260446548462 145.47459983825684 L 118.2 143.7 L 121.8 139.3 L 125.4 135.2 L 128.8 131.2 L 132.1 127.4 L 135.2 123.7 L 138.2 120.1 L 141.0 116.7 L 143.7 113.3 L 145.54841928482057 110.83544092178344 L 145.5 110.8 L 146.5 109.6 L 155.2 117.9 L 156.1 121.4 L 152.27648515701293 120.72920789718628 L 152.1 120.9 L 148.9 124.0 L 145.5 127.1 L 141.8 130.3 L 138.0 133.5 L 134.0 136.7 L 129.8 140.0 L 125.4 143.3 L 122.43941516876221 145.31571731567382 L 123.0 145.3 L 134.3 145.0 L 146.1 144.8 L 158.4 144.6 L 166.30785341262816 144.66178007125853 L 165.8 143.9 L 163.7 141.1 L 161.4 138.3 L 158.9 135.5 L 156.2 132.6 L 153.2 129.8 L 154.1 128.3 L 157.9 130.2 L 161.6 132.0 L 165.1 134.0 L 168.4 136.2 L 171.4 138.5 L 174.3 140.9 L 176.9 143.5 L 179.4 146.3 L 181.6 149.1 L 183.6 152.2 L 183.8 156.7 L 180.7 160.2 L 176.2 160.3 L 172.7 157.3 L 171.8 154.7 Z M 104.5 165.2 L 105.8 168.6 L 101.74426231384277 168.25036745071412 L 99.0 170.9 L 95.9 173.6 L 92.6 176.3 L 89.1 178.8 L 85.3 181.2 L 81.4 183.6 L 77.2 185.7 L 72.8 187.7 L 68.2 189.7 L 67.3 188.1 L 71.0 185.0 L 74.5 181.7 L 77.8 178.6 L 80.9 175.6 L 83.8 172.6 L 86.5 169.7 L 88.9 166.7 L 91.1 163.9 L 93.1 161.0 L 94.29645147323609 158.95899457931517 L 94.2 158.9 L 94.7160493850708 158.2432098388672 L 94.8 158.1 L 94.8181393623352 158.11327724456788 L 95.3 157.5 Z M 163.2 180.5 L 161.4 177.8 L 159.4 175.0 L 157.2 172.2 L 154.7 169.4 L 152.1 166.5 L 149.2 163.7 L 146.2 160.7 L 142.8 157.9 L 143.8 156.3 L 147.9 158.1 L 151.9 159.9 L 155.6 161.9 L 159.2 164.1 L 162.5 166.3 L 165.7 168.8 L 168.7 171.3 L 171.4 174.0 L 174.0 176.9 L 176.4 179.8 L 177.0 184.3 L 174.4 188.1 L 169.8 188.7 L 166.1 186.1 L 164.7 183.3 Z M 63.3 93.9 L 68.9 93.3 L 74.6 92.7 L 80.6 92.0 L 86.7 91.3 L 88.7 91.0777777671814 L 88.7 73.7 L 68.24893617630005 73.7 L 65.3 81.4 L 60.3 94.1 L 55.7 105.6 L 51.6 115.9 L 48.1 124.9 L 45.2 132.7 L 42.8 139.3 L 41.0 144.7 L 39.9 148.8 L 39.4 151.5 L 38.84196138381958 151.35214366912842 L 39.7 153.1 L 41.7 159.3 L 43.1 166.1 L 43.7 173.5 L 43.7 181.4 L 41.6 185.5 L 37.3 186.9 L 33.2 184.8 L 31.7 180.5 L 32.3 173.5 L 32.4 167.1 L 31.9 161.3 L 30.9 156.1 L 29.5 151.4 L 28.086545372009276 148.50241804122925 L 27.7 148.4 L 27.856564044952393 148.03095626831055 L 27.5 147.3 L 25.0 143.5 L 21.9 140.1 L 18.2 137.0 L 13.7 134.1 L 14.2 132.4 L 19.8 133.6 L 25.0 135.8 L 29.6 138.9 L 31.202240180969238 140.46316118240355 L 33.5 135.5 L 36.6 129.1 L 40.3 121.5 L 44.7 112.8 L 49.7 102.9 L 55.4 91.9 L 61.8 79.8 L 67.1 70.21643838882446 L 67.1 69.7 L 67.38560609817505 69.7 L 69.1 66.6 L 70.7 67.3 L 69.78085107803345 69.7 L 88.7 69.7 L 88.7 54.0 L 100.7 56.0 L 103.7 58.0 L 100.7 59.8 L 100.7 69.7 L 105.41818180084229 69.7 L 113.6 60.7 L 123.6 69.7 L 123.6 73.7 L 100.7 73.7 L 100.7 89.74477615356446 L 106.1 89.1 L 112.9 88.4 L 120.0 87.9 L 127.3 87.4 L 127.7 89.2 L 120.8 91.6 L 114.0 93.7 L 107.3 95.6 L 100.8 97.3 L 94.5 99.0 L 88.3 100.5 L 82.3 101.9 L 76.4 103.3 L 70.7 104.5 L 69.28701658248902 104.80828733444214 L 67.6 108.4 L 65.2 105.7 L 61.4 94.2 Z M 101.6 135.8 L 100.1 133.3 L 98.4 130.8 L 96.5 128.4 L 94.3 125.9 L 91.8 123.5 L 89.2 121.0 L 86.3 118.5 L 83.0 116.2 L 83.8 114.6 L 87.6 116.0 L 91.4 117.3 L 95.0 118.8 L 98.4 120.6 L 101.6 122.5 L 103.1207823753357 123.56454763412475 L 104.8 120.7 L 106.5 117.9 L 108.2 115.3 L 109.8 112.6 L 111.4 110.1 L 114.4 105.1 L 115.7 102.7 L 116.59801797866821 101.16054058074951 L 116.5 101.1 L 117.5 99.6 L 126.7 107.4 L 127.9 110.8 L 123.66507940292358 110.43492059707641 L 122.5 111.6 L 117.9 115.6 L 115.6 117.7 L 113.1 119.7 L 110.5 121.6 L 107.9 123.6 L 105.31188201904297 125.20641803741455 L 107.3 126.9 L 109.9 129.4 L 112.3 132.1 L 114.4 134.9 L 114.9 139.5 L 112.1 143.1 L 107.5 143.5 L 103.9 140.7 L 102.9 138.2 Z M 136.9 99.0 L 156.9 99.0 L 158.2 98.9 L 159.1 98.7 L 160.0 98.4 L 160.2 98.2 L 160.3 98.0 L 160.5 97.7 L 160.7 97.1 L 160.9 96.2 L 160.9 43.1 L 122.2 43.1 L 122.2 39.1 L 160.9 39.1 L 160.9 10.7 L 172.9 12.7 L 175.9 14.7 L 172.9 16.5 L 172.9 39.1 L 175.0777777671814 39.1 L 181.3 32.1 L 189.3 39.1 L 189.3 43.1 L 172.9 43.1 L 172.9 95.0 L 172.8 97.5 L 172.3 100.0 L 171.5 102.4 L 170.3 104.7 L 168.7 106.7 L 166.7 108.4 L 164.4 109.6 L 162.0 110.4 L 159.5 110.8 L 156.9 111.0 L 156.9 105.0 L 136.9 102.0 Z M 32.2 83.4 L 30.8 81.4 L 29.1 79.4 L 27.1 77.3 L 24.8 75.2 L 22.1 73.2 L 19.1 71.1 L 15.8 68.9 L 12.1 67.1 L 12.7 65.4 L 16.8 66.4 L 20.8 67.2 L 24.6 68.2 L 28.1 69.5 L 31.4 70.9 L 34.5 72.6 L 37.3 74.5 L 40.0 76.5 L 42.3 78.8 L 44.4 81.4 L 44.9 85.9 L 42.1 89.6 L 37.6 90.1 L 34.0 87.3 L 33.2 85.4 Z M 139.9 71.4 L 139.1 69.4 L 138.0 67.4 L 136.7 65.3 L 135.0 63.2 L 133.1 60.9 L 130.9 58.6 L 128.5 56.2 L 125.5 54.1 L 126.34375 52.6 L 62.6 52.6 L 62.6 48.6 L 88.7 48.6 L 88.7 31.5 L 67.1 31.5 L 67.1 27.5 L 88.7 27.5 L 88.7 10.7 L 100.7 12.7 L 103.7 14.7 L 100.7 16.5 L 100.7 27.5 L 105.41818180084229 27.5 L 113.6 18.5 L 123.6 27.5 L 123.6 31.5 L 100.7 31.5 L 100.7 48.6 L 112.6777777671814 48.6 L 118.9 41.6 L 126.9 48.6 L 126.9 52.6 L 126.62666664123535 52.6 L 129.8 54.0 L 133.2 55.2 L 136.3 56.6 L 139.2 58.2 L 141.9 59.9 L 144.3 61.7 L 146.6 63.7 L 148.6 65.8 L 150.4 68.1 L 152.0 70.6 L 151.8 75.2 L 148.5 78.4 L 143.9 78.2 L 140.8 74.9 L 140.5 73.2 Z M 46.1 37.5 L 44.7 35.4 L 43.0 33.4 L 41.1 31.3 L 38.8 29.2 L 36.3 27.1 L 33.5 25.1 L 30.5 22.9 L 27.1 21.1 L 27.7 19.4 L 31.5 20.4 L 35.3 21.2 L 38.9 22.3 L 42.3 23.5 L 45.5 25.0 L 48.5 26.7 L 51.2 28.5 L 53.8 30.5 L 56.2 32.8 L 58.4 35.2 L 59.1 39.8 L 56.5 43.5 L 51.9 44.2 L 48.2 41.6 L 47.3 39.5 Z " />
</g>
</svg>
