<svg xmlns="http://www.w3.org/2000/svg" xmlns:xlink="http://www.w3.org/1999/xlink" version="1.1" baseProfile="full" viewBox="0 0 200 200" width="200" height="200">
<g fill="black">
<path d="M 113.9 153.6 L 160.0 153.6 L 166.0 148.6 L 177.0 157.6 L 172.0 161.6 L 172.0 181.7 L 160.0 187.7 L 160.0 179.7 L 113.9 179.7 L 113.9 182.7 L 101.9 188.7 L 101.9 147.6 Z M 84.3 122.9 L 83.2 132.2 L 81.7 141.0 L 79.8 149.4 L 77.5 157.3 L 74.9 164.7 L 71.8 171.5 L 68.2 177.8 L 64.2 183.5 L 59.7 188.5 L 58.2 187.4 L 60.9 181.5 L 63.4 175.4 L 65.7 169.0 L 67.7 162.3 L 69.4 155.1 L 70.7 147.5 L 71.8 139.5 L 72.5 131.1 L 72.9 122.2 L 73.0 112.8 L 73.0 55.08545455932617 L 69.4 57.9 L 63.6 62.0 L 57.5 65.7 L 56.4 64.2 L 61.2 59.0 L 65.9 54.0 L 70.3 48.9 L 73.0 45.760465145111084 L 73.0 41.0 L 75.8 42.4 L 78.6 38.9 L 82.5 33.8 L 86.0 28.6 L 89.3 23.4 L 92.4 18.2 L 94.72687292098999 13.712459278106689 L 94.7 13.7 L 94.91999998092652 13.339999961853028 L 95.2 12.8 L 95.23705883026123 12.821176433563233 L 95.8 11.9 L 105.7 18.8 L 107.3 22.0 L 103.46284532546997 22.065036487579345 L 102.0 24.2 L 99.99245281219483 27.0 L 139.0 27.0 L 139.38360652923583 26.680327892303467 L 140.3 25.2 L 140.73704919815063 25.552459049224854 L 145.0 22.0 L 156.0 31.0 L 151.0 34.0 L 145.579660987854 36.25847454071045 L 145.3 36.5 L 143.0 38.3 L 140.6 40.0 L 138.0 41.8 L 135.3 43.4 L 132.5 45.0 L 129.6 46.6 L 128.71428575515748 47.0 L 170.0 47.0 L 176.0 42.0 L 187.0 51.0 L 182.0 55.0 L 182.0 70.0 L 170.0 76.0 L 170.0 70.0 L 85.0 70.0 L 85.0 113.0 L 84.89662923812867 113.15505619049073 Z M 37.3 186.9 L 33.2 184.8 L 31.7 180.5 L 32.3 173.5 L 32.4 167.1 L 31.9 161.3 L 30.9 156.1 L 29.5 151.4 L 28.086545372009276 148.50241804122925 L 27.7 148.4 L 27.856564044952393 148.03095626831055 L 27.5 147.3 L 25.0 143.5 L 21.9 140.1 L 18.2 137.0 L 13.7 134.1 L 14.2 132.4 L 19.8 133.6 L 25.0 135.8 L 29.6 138.9 L 31.202240180969238 140.46316118240355 L 33.5 135.5 L 36.6 129.1 L 40.3 121.5 L 44.7 112.8 L 49.7 102.9 L 55.4 91.9 L 61.8 79.8 L 69.1 66.6 L 70.7 67.3 L 65.3 81.4 L 60.3 94.1 L 55.7 105.6 L 51.6 115.9 L 48.1 124.9 L 45.2 132.7 L 42.8 139.3 L 41.0 144.7 L 39.9 148.8 L 39.4 151.5 L 38.84196138381958 151.35214366912842 L 39.7 153.1 L 41.7 159.3 L 43.1 166.1 L 43.7 173.5 L 43.7 181.4 L 41.6 185.5 Z M 113.9 157.6 L 113.9 175.7 L 160.0 175.7 L 160.0 157.6 Z M 86.3 140.5 L 131.0 140.5 L 131.0 125.9 L 99.7 125.9 L 99.7 121.9 L 131.0 121.9 L 131.0 110.5 L 143.0 112.5 L 146.0 114.5 L 143.0 116.3 L 143.0 121.9 L 156.01818180084229 121.9 L 164.2 112.9 L 174.2 121.9 L 174.2 125.9 L 143.0 125.9 L 143.0 140.5 L 169.4181818008423 140.5 L 177.6 131.5 L 187.6 140.5 L 187.6 144.5 L 86.3 144.5 Z M 89.0 101.2 L 92.2 100.7 L 95.5 100.2 L 102.3 99.0 L 105.8 98.5 L 109.4 97.9 L 113.1 97.3 L 116.9 96.8 L 119.5 96.53333330154419 L 119.5 88.4 L 91.9 88.4 L 91.9 84.4 L 119.5 84.4 L 119.5 73.1 L 130.5 75.1 L 133.2 77.1 L 130.5 78.82340421676636 L 130.5 108.1 L 119.5 113.6 L 119.5 100.39411764144897 L 118.3 101.1 L 114.8 102.8 L 111.5 104.4 L 108.1 106.0 L 104.8 107.5 L 101.6 108.9 L 98.4 110.2 L 96.25279159545899 111.10044221878051 L 94.9 115.1 L 92.2 112.8 L 87.1 101.7 Z M 155.4 111.2 L 153.0 110.9 L 150.8 110.3 L 148.7 109.2 L 146.7 107.8 L 145.1 106.0 L 143.9 103.9 L 143.0 101.6 L 142.5 99.2 L 142.3 96.8 L 142.3 73.1 L 153.3 75.1 L 156.0 77.1 L 153.3 78.82340421676636 L 153.3 88.5151515007019 L 154.3 88.0 L 157.4 86.5 L 160.4 84.9 L 163.3 83.5 L 168.7 80.5 L 173.5 77.7 L 174.84705142974855 76.78155584335327 L 174.8 76.7 L 174.87066345214845 76.76545667648315 L 175.7 76.2 L 176.8013635635376 78.55389471054077 L 184.3 85.5 L 184.5 88.7 L 180.69545450210572 87.1298701286316 L 178.0 87.9 L 175.1 88.7 L 172.1 89.4 L 169.0 90.1 L 162.4 91.3 L 159.0 91.8 L 155.4 92.1 L 153.3 92.27027025222779 L 153.3 96.8 L 153.2 98.1 L 153.3 99.1 L 153.5 99.8 L 153.6 100.3 L 153.8 100.7 L 154.1 101.1 L 154.6 101.4 L 155.3 101.8 L 156.4 102.1 L 157.8 102.3 L 178.6 102.3 L 183.1 89.3 L 185.1 89.3 L 183.1 102.3 L 185.8 104.1 L 187.6 106.8 L 185.8 109.5 L 183.1 111.3 L 157.8 111.3 Z M 32.2 83.4 L 30.8 81.4 L 29.1 79.4 L 27.1 77.3 L 24.8 75.2 L 22.1 73.2 L 19.1 71.1 L 15.8 68.9 L 12.1 67.1 L 12.7 65.4 L 16.8 66.4 L 20.8 67.2 L 24.6 68.2 L 28.1 69.5 L 31.4 70.9 L 34.5 72.6 L 37.3 74.5 L 40.0 76.5 L 42.3 78.8 L 44.4 81.4 L 44.9 85.9 L 42.1 89.6 L 37.6 90.1 L 34.0 87.3 L 33.2 85.4 Z M 85.0 51.0 L 85.0 66.0 L 170.0 66.0 L 170.0 51.0 Z M 96.9884614944458 31.0 L 94.0 34.7 L 89.6 39.6 L 85.0 44.5 L 83.2867133140564 46.14335660934448 L 85.0 47.0 L 123.7043478012085 47.0 L 124.9 45.9 L 127.0 43.3 L 129.1 40.9 L 131.1 38.5 L 132.9 36.1 L 134.6 33.9 L 136.2 31.6 L 136.60909090042114 31.0 Z M 46.1 37.5 L 44.7 35.4 L 43.0 33.4 L 41.1 31.3 L 38.8 29.2 L 36.3 27.1 L 33.5 25.1 L 30.5 22.9 L 27.1 21.1 L 27.7 19.4 L 31.5 20.4 L 35.3 21.2 L 38.9 22.3 L 42.3 23.5 L 45.5 25.0 L 48.5 26.7 L 51.2 28.5 L 53.8 30.5 L 56.2 32.8 L 58.4 35.2 L 59.1 39.8 L 56.5 43.5 L 51.9 44.2 L 48.2 41.6 L 47.3 39.5 Z " />
</g>
</svg>
