<svg xmlns="http://www.w3.org/2000/svg" xmlns:xlink="http://www.w3.org/1999/xlink" version="1.1" baseProfile="full" viewBox="0 0 200 200" width="200" height="200">
<g fill="black">
<path d="M 113.9 155.9 L 160.0 155.9 L 166.0 150.9 L 177.0 159.9 L 172.0 163.9 L 172.0 181.6 L 160.0 187.6 L 160.0 179.6 L 113.9 179.6 L 113.9 182.6 L 101.9 188.6 L 101.9 149.9 Z M 84.3 122.9 L 83.2 132.2 L 81.7 141.0 L 79.8 149.4 L 77.5 157.3 L 74.9 164.7 L 71.8 171.5 L 68.2 177.8 L 64.2 183.5 L 59.7 188.5 L 58.2 187.4 L 60.9 181.5 L 63.4 175.4 L 65.7 169.0 L 67.7 162.3 L 69.4 155.1 L 70.7 147.5 L 71.8 139.5 L 72.5 131.1 L 72.9 122.2 L 73.0 112.8 L 73.0 53.316363620758054 L 69.4 56.0 L 63.6 60.0 L 57.5 63.7 L 56.4 62.2 L 61.2 57.1 L 65.9 52.0 L 70.4 47.1 L 73.0 44.06666669845581 L 73.0 40.0 L 75.42589931488037 41.212949657440184 L 78.7 37.3 L 82.5 32.4 L 86.1 27.5 L 89.4 22.6 L 92.5 17.6 L 94.83326425552369 13.5167875289917 L 94.8 13.5 L 95.8 11.8 L 105.5 18.9 L 107.0 22.2 L 103.17058820724488 22.2 L 101.9 24.0 L 99.57346935272217 27.0 L 139.0 27.0 L 139.30612249374389 26.74489793777466 L 140.5 25.0 L 140.9357997894287 25.386833477020264 L 145.0 22.0 L 156.0 31.0 L 151.0 34.0 L 144.52808990478516 36.696629238128665 L 142.9 37.9 L 140.5 39.5 L 137.9 41.1 L 135.3 42.6 L 132.5 44.1 L 129.6 45.6 L 128.71428575515748 46.0 L 168.8181818008423 46.0 L 177.0 37.0 L 187.0 46.0 L 187.0 50.0 L 85.0 50.0 L 85.0 113.0 L 84.89662923812867 113.15505619049073 Z M 37.3 186.9 L 33.2 184.8 L 31.7 180.5 L 32.3 173.5 L 32.4 167.1 L 31.9 161.3 L 30.9 156.1 L 29.5 151.4 L 28.086545372009276 148.50241804122925 L 27.7 148.4 L 27.856564044952393 148.03095626831055 L 27.5 147.3 L 25.0 143.5 L 21.9 140.1 L 18.2 137.0 L 13.7 134.1 L 14.2 132.4 L 19.8 133.6 L 25.0 135.8 L 29.6 138.9 L 31.202240180969238 140.46316118240355 L 33.5 135.5 L 36.6 129.1 L 40.3 121.5 L 44.7 112.8 L 49.7 102.9 L 55.4 91.9 L 61.8 79.8 L 69.1 66.6 L 70.7 67.3 L 65.3 81.4 L 60.3 94.1 L 55.7 105.6 L 51.6 115.9 L 48.1 124.9 L 45.2 132.7 L 42.8 139.3 L 41.0 144.7 L 39.9 148.8 L 39.4 151.5 L 38.84196138381958 151.35214366912842 L 39.7 153.1 L 41.7 159.3 L 43.1 166.1 L 43.7 173.5 L 43.7 181.4 L 41.6 185.5 Z M 113.9 159.9 L 113.9 175.6 L 160.0 175.6 L 160.0 159.9 Z M 86.3 144.3 L 131.0 144.3 L 131.0 131.8 L 99.7 131.8 L 99.7 127.8 L 131.0 127.8 L 131.0 117.8 L 143.0 119.8 L 146.0 121.8 L 143.0 123.6 L 143.0 127.8 L 159.9777777671814 127.8 L 166.2 120.8 L 174.2 127.8 L 174.2 131.8 L 143.0 131.8 L 143.0 144.3 L 173.37777776718139 144.3 L 179.6 137.3 L 187.6 144.3 L 187.6 148.3 L 86.3 148.3 Z M 89.1 108.8 L 92.3 108.3 L 95.6 107.8 L 102.4 106.8 L 105.9 106.3 L 109.5 105.8 L 116.9 104.8 L 119.5 104.6 L 119.5 97.2 L 91.9 97.2 L 91.9 93.2 L 119.5 93.2 L 119.5 82.6 L 130.5 84.6 L 133.2 86.6 L 130.5 88.32340421676636 L 130.5 115.4 L 119.5 120.9 L 119.5 108.43142852783203 L 118.2 109.1 L 114.8 110.8 L 111.4 112.4 L 108.1 113.9 L 104.8 115.3 L 101.5 116.6 L 98.3 117.9 L 96.22182626724243 118.7714921951294 L 94.8 122.8 L 92.1 120.4 L 87.2 109.3 Z M 183.07498693466187 96.97226009368896 L 180.92103319168092 96.06356086730958 L 180.6 96.2 L 177.8 97.0 L 175.0 97.7 L 172.0 98.4 L 168.9 99.0 L 165.7 99.5 L 162.4 100.0 L 158.9 100.4 L 155.4 100.7 L 153.3 100.81351346969605 L 153.3 104.4 L 153.2 105.7 L 153.3 106.7 L 153.5 107.4 L 153.6 107.9 L 153.8 108.3 L 154.1 108.7 L 154.6 109.0 L 155.3 109.4 L 156.4 109.7 L 157.8 109.9 L 178.6 109.9 Z M 32.2 83.4 L 30.8 81.4 L 29.1 79.4 L 27.1 77.3 L 24.8 75.2 L 22.1 73.2 L 19.1 71.1 L 15.8 68.9 L 12.1 67.1 L 12.7 65.4 L 16.8 66.4 L 20.8 67.2 L 24.6 68.2 L 28.1 69.5 L 31.4 70.9 L 34.5 72.6 L 37.3 74.5 L 40.0 76.5 L 42.3 78.8 L 44.4 81.4 L 44.9 85.9 L 42.1 89.6 L 37.6 90.1 L 34.0 87.3 L 33.2 85.4 Z M 87.9 76.7 L 131.0 76.7 L 131.0 65.7 L 95.3 65.7 L 95.3 61.7 L 131.0 61.7 L 131.0 51.8 L 143.0 53.8 L 146.0 55.8 L 143.0 57.6 L 143.0 61.7 L 164.37777776718139 61.7 L 170.6 54.7 L 178.6 61.7 L 178.6 65.7 L 143.0 65.7 L 143.0 76.7 L 171.7777777671814 76.7 L 178.0 69.7 L 186.0 76.7 L 186.0 80.7 L 87.9 80.7 Z M 93.9 33.7 L 89.6 38.4 L 84.9 43.0 L 82.82014389038086 44.91007194519043 L 85.0 46.0 L 123.7043478012085 46.0 L 124.9 44.9 L 127.1 42.4 L 129.1 39.9 L 131.1 37.6 L 133.0 35.3 L 134.7 33.1 L 136.4 31.0 L 96.2625 31.0 Z M 46.1 37.5 L 44.7 35.4 L 43.0 33.4 L 41.1 31.3 L 38.8 29.2 L 36.3 27.1 L 33.5 25.1 L 30.5 22.9 L 27.1 21.1 L 27.7 19.4 L 31.5 20.4 L 35.3 21.2 L 38.9 22.3 L 42.3 23.5 L 45.5 25.0 L 48.5 26.7 L 51.2 28.5 L 53.8 30.5 L 56.2 32.8 L 58.4 35.2 L 59.1 39.8 L 56.5 43.5 L 51.9 44.2 L 48.2 41.6 L 47.3 39.5 Z M 187.6 114.4 L 185.8 117.1 L 183.1 118.9 L 157.8 118.9 L 155.4 118.8 L 153.0 118.5 L 150.8 117.9 L 148.7 116.8 L 146.7 115.4 L 145.1 113.6 L 143.9 111.5 L 143.0 109.2 L 142.5 106.8 L 142.3 104.4 L 142.3 82.6 L 153.3 84.6 L 156.0 86.6 L 153.3 88.32340421676636 L 153.3 97.08484849929809 L 154.3 96.6 L 160.5 93.6 L 166.1 90.8 L 168.7 89.4 L 171.2 88.0 L 173.6 86.6 L 174.95417900085448 85.79980335235595 L 174.9 85.7 L 174.98798875808717 85.77982482910156 L 175.8 85.3 L 176.69210901260377 87.32583084106446 L 184.6 94.5 L 184.75 96.9 L 185.1 96.9 L 183.1 109.9 L 185.8 111.7 Z " />
</g>
</svg>
