<svg xmlns="http://www.w3.org/2000/svg" xmlns:xlink="http://www.w3.org/1999/xlink" version="1.1" baseProfile="full" viewBox="0 0 200 200" width="200" height="200">
<g fill="black">
<path d="M 95.0 176.6 L 115.0 176.6 L 116.2 176.5 L 117.1 176.4 L 117.7 176.2 L 118.0 176.0 L 118.2 175.9 L 118.4 175.7 L 118.5 175.3 L 118.7 174.7 L 118.9 173.8 L 119.0 172.6 L 119.0 152.8 L 62.7 152.8 L 62.7 148.8 L 169.01818180084229 148.8 L 177.2 139.8 L 187.2 148.8 L 187.2 152.8 L 131.0 152.8 L 131.0 172.6 L 130.8 175.2 L 130.4 177.7 L 129.6 180.1 L 128.3 182.3 L 126.7 184.3 L 124.7 186.0 L 122.4 187.2 L 120.0 188.0 L 117.5 188.5 L 115.0 188.6 L 115.0 182.6 L 95.0 179.6 Z M 101.8 164.5 L 102.8 168.0 L 98.7175087928772 167.29612216949462 L 96.0 169.4 L 92.8 171.6 L 89.3 173.7 L 85.6 175.8 L 81.6 177.7 L 77.3 179.5 L 72.8 181.2 L 68.1 182.6 L 63.1 184.1 L 62.3 182.4 L 66.7 179.7 L 70.7 176.9 L 74.4 174.2 L 77.9 171.6 L 81.1 169.0 L 84.1 166.5 L 86.7 164.0 L 89.0 161.5 L 91.0 159.1 L 92.21297836303711 157.48269548416138 L 92.1 157.4 L 93.1 156.2 Z M 168.6 177.6 L 166.6 175.5 L 164.2 173.4 L 161.6 171.3 L 158.6 169.1 L 155.3 166.9 L 151.7 164.7 L 147.9 162.4 L 143.6 160.4 L 144.2 158.7 L 148.9 159.6 L 153.4 160.5 L 157.7 161.6 L 161.7 162.9 L 165.4 164.4 L 169.0 165.9 L 172.3 167.7 L 175.3 169.5 L 178.2 171.6 L 180.8 173.8 L 182.2 178.2 L 180.2 182.3 L 175.8 183.7 L 171.7 181.7 L 170.3 179.6 Z M 37.3 186.9 L 33.2 184.8 L 31.7 180.5 L 32.3 173.5 L 32.4 167.1 L 31.9 161.3 L 30.9 156.1 L 29.5 151.4 L 28.086545372009276 148.50241804122925 L 27.7 148.4 L 27.856564044952393 148.03095626831055 L 27.5 147.3 L 25.0 143.5 L 21.9 140.1 L 18.2 137.0 L 13.7 134.1 L 14.2 132.4 L 19.8 133.6 L 25.0 135.8 L 29.6 138.9 L 31.202240180969238 140.46316118240355 L 33.5 135.5 L 36.6 129.1 L 40.3 121.5 L 44.7 112.8 L 49.7 102.9 L 55.4 91.9 L 61.8 79.8 L 69.1 66.6 L 70.5 67.2125 L 70.5 37.9 L 82.5 43.9 L 108.1 43.9 L 113.6 38.9 L 124.1 47.9 L 119.1 51.4 L 119.1 67.8 L 108.1 73.3 L 108.1 67.8 L 82.5 67.8 L 70.5 73.8 L 70.5 67.8222222328186 L 65.3 81.4 L 60.3 94.1 L 55.7 105.6 L 51.6 115.9 L 48.1 124.9 L 45.2 132.7 L 42.8 139.3 L 41.0 144.7 L 39.9 148.8 L 39.4 151.5 L 38.84196138381958 151.35214366912842 L 39.7 153.1 L 41.7 159.3 L 43.1 166.1 L 43.7 173.5 L 43.7 181.4 L 41.6 185.5 Z M 74.7 128.9 L 74.7 71.9 L 86.7 77.9 L 163.2 77.9 L 169.2 72.9 L 180.2 81.9 L 175.2 85.9 L 175.2 122.9 L 163.5714285850525 128.71428575515748 L 170.0 134.5 L 170.0 138.5 L 80.0 138.5 L 80.0 134.5 L 151.8181818008423 134.5 L 160.0 125.5 L 163.2 128.3800000190735 L 163.2 122.9 L 86.7 122.9 Z M 86.7 81.9 L 86.7 118.9 L 100.2 118.9 L 100.2 81.9 Z M 112.2 102.1 L 112.2 118.9 L 137.0 118.9 L 137.0 102.1 Z M 149.0 81.9 L 149.0 118.9 L 163.2 118.9 L 163.2 81.9 Z M 112.2 81.9 L 112.2 98.1 L 137.0 98.1 L 137.0 81.9 Z M 32.2 83.4 L 30.8 81.4 L 29.1 79.4 L 27.1 77.3 L 24.8 75.2 L 22.1 73.2 L 19.1 71.1 L 15.8 68.9 L 12.1 67.1 L 12.7 65.4 L 16.8 66.4 L 20.8 67.2 L 24.6 68.2 L 28.1 69.5 L 31.4 70.9 L 34.5 72.6 L 37.3 74.5 L 40.0 76.5 L 42.3 78.8 L 44.4 81.4 L 44.9 85.9 L 42.1 89.6 L 37.6 90.1 L 34.0 87.3 L 33.2 85.4 Z M 141.9 43.9 L 167.4 43.9 L 173.4 38.9 L 184.4 47.9 L 179.4 51.9 L 179.4 67.8 L 167.4 73.8 L 167.4 67.8 L 141.9 67.8 L 130.9 73.3 L 130.9 38.4 Z M 141.9 47.9 L 141.9 63.8 L 167.4 63.8 L 167.4 47.9 Z M 82.5 47.9 L 82.5 63.8 L 108.1 63.8 L 108.1 47.9 Z M 46.1 37.5 L 44.7 35.4 L 43.0 33.4 L 41.1 31.3 L 38.8 29.2 L 36.3 27.1 L 33.5 25.1 L 30.5 22.9 L 27.1 21.1 L 27.7 19.4 L 31.5 20.4 L 35.3 21.2 L 38.9 22.3 L 42.3 23.5 L 45.5 25.0 L 48.5 26.7 L 51.2 28.5 L 53.8 30.5 L 56.2 32.8 L 58.4 35.2 L 59.1 39.8 L 56.5 43.5 L 51.9 44.2 L 48.2 41.6 L 47.3 39.5 Z M 61.2 29.6 L 119.0 29.6 L 119.0 11.8 L 131.0 13.8 L 134.0 15.8 L 131.0 17.6 L 131.0 29.6 L 174.4777777671814 29.6 L 180.7 22.6 L 188.7 29.6 L 188.7 33.6 L 61.2 33.6 Z " />
</g>
</svg>
