<svg xmlns="http://www.w3.org/2000/svg" xmlns:xlink="http://www.w3.org/1999/xlink" version="1.1" baseProfile="full" viewBox="0 0 200 200" width="200" height="200">
<g fill="black">
<path d="M 20.4 180.1 L 19.7 175.6 L 22.3 171.9 L 24.8 170.5 L 27.1 168.8 L 29.3 166.8 L 31.3 164.3 L 33.1 161.4 L 34.7 158.0 L 36.1 154.1 L 37.4 149.7 L 38.4 144.9 L 39.1 139.6 L 40.9 139.5 L 41.6 145.0 L 42.1 150.2 L 42.0 155.1 L 41.5 159.8 L 40.6 164.3 L 39.2 168.5 L 37.3 172.4 L 34.9 176.0 L 32.0 179.2 L 28.7 182.1 L 24.1 182.8 Z M 158.6 65.6 L 149.9 61.1 L 141.5 56.1 L 133.4 50.7 L 125.5 44.8 L 118.0 38.4 L 110.9 31.6 L 104.2 24.3 L 102.12070455551148 21.61703805923462 L 98.7 25.5 L 90.8 33.3 L 82.5 40.7 L 73.7 47.6 L 64.5 54.0 L 54.8 59.8 L 44.6 65.2 L 44.33500003814697 65.31750001907349 L 53.1 69.7 L 136.8 69.7 L 146.8 59.7 L 158.8 69.7 L 158.8 73.7 L 53.1 73.7 L 53.1 98.0 L 134.8 98.0 L 144.8 88.0 L 156.8 98.0 L 156.8 102.0 L 53.1 102.0 L 53.1 126.3 L 165.5 126.3 L 171.5 121.3 L 182.5 130.3 L 177.5 133.3 L 177.4270959854126 133.33037662506104 L 177.4 135.2 L 176.8 141.7 L 175.9 147.9 L 174.7 153.7 L 173.0 159.1 L 171.0 164.2 L 168.5 168.9 L 165.6 173.1 L 162.3 177.0 L 158.6 180.3 L 156.7 181.8 L 152.7 184.2 L 150.6 185.2 L 148.5 186.0 L 146.3 186.7 L 144.0 187.2 L 141.7 187.6 L 139.4 187.8 L 137.0 187.9 L 137.0 181.9 L 117.0 178.9 L 117.0 175.9 L 137.0 175.9 L 140.2 175.7 L 141.7 175.5 L 144.5 174.7 L 145.9 174.1 L 147.2 173.5 L 148.5 172.8 L 151.1 171.0 L 153.7 168.6 L 156.1 165.9 L 158.2 162.7 L 160.1 159.2 L 161.7 155.1 L 163.1 150.7 L 164.1 145.8 L 164.9 140.4 L 165.4 134.5 L 165.46774196624756 130.3 L 53.1 130.3 L 41.1 136.3 L 41.1 66.75188674926758 L 34.0 69.9 L 22.8 74.0 L 11.3 77.4 L 10.6 75.7 L 21.4 70.5 L 31.6 65.1 L 41.5 59.4 L 50.8 53.4 L 59.6 47.0 L 68.0 40.3 L 75.8 33.2 L 83.2 25.8 L 90.2 17.9 L 96.26315793991088 10.131578922271729 L 97.0 9.1 L 106.1 17.1 L 107.2 20.5 L 105.89547538757324 20.3425573348999 L 107.1 21.3 L 114.8 27.2 L 122.5 32.8 L 130.4 38.0 L 138.4 42.8 L 146.6 47.2 L 154.9 51.2 L 163.4 54.8 L 172.1 58.0 L 181.0 60.8 L 188.5 63.3 L 176.9 73.4 L 167.6 69.7 Z M 67.4 176.9 L 63.6 174.4 L 62.5 169.9 L 63.2 167.5 L 63.8 165.0 L 64.1 162.4 L 64.3 159.6 L 64.2 156.8 L 64.0 153.8 L 63.5 150.8 L 62.9 147.5 L 62.0 144.1 L 60.7 140.8 L 62.2 139.9 L 64.4 142.9 L 66.7 145.8 L 68.6 148.8 L 70.3 151.9 L 71.7 155.1 L 72.8 158.4 L 73.6 161.7 L 74.2 165.1 L 74.4 168.5 L 74.4 172.0 L 71.9 175.8 Z M 96.1 161.0 L 95.5 158.3 L 94.8 155.7 L 93.8 153.1 L 92.6 150.4 L 91.2 147.8 L 89.5 145.1 L 87.6 142.4 L 85.2 139.9 L 86.3 138.4 L 89.3 140.3 L 92.4 142.1 L 95.3 144.1 L 97.9 146.4 L 100.3 148.9 L 102.4 151.7 L 104.3 154.6 L 105.9 157.7 L 107.3 161.0 L 108.4 164.4 L 107.3 168.8 L 103.4 171.3 L 99.0 170.2 L 96.5 166.3 L 96.4 163.6 Z M 128.7 155.0 L 127.6 152.7 L 126.3 150.5 L 124.7 148.2 L 123.0 145.9 L 121.0 143.6 L 118.8 141.4 L 116.3 139.0 L 113.4 137.0 L 114.2 135.4 L 117.6 136.7 L 121.0 137.8 L 124.2 139.2 L 127.2 140.9 L 130.0 142.7 L 132.6 144.7 L 135.1 146.9 L 137.3 149.4 L 139.4 152.0 L 141.2 154.8 L 141.3 159.4 L 138.2 162.7 L 133.6 162.8 L 130.2 159.6 L 129.6 157.3 Z " />
</g>
</svg>
