<svg xmlns="http://www.w3.org/2000/svg" xmlns:xlink="http://www.w3.org/1999/xlink" version="1.1" baseProfile="full" viewBox="0 0 200 200" width="200" height="200">
<g fill="black">
<path d="M 20.3 180.0 L 20.0 175.4 L 22.9 171.9 L 25.4 170.9 L 27.7 169.7 L 29.7 168.2 L 31.6 166.4 L 33.4 164.2 L 35.0 161.6 L 36.4 158.6 L 37.6 155.2 L 38.6 151.4 L 39.1 147.1 L 40.9 147.1 L 41.4 151.5 L 41.9 155.7 L 41.8 159.8 L 41.3 163.8 L 40.4 167.5 L 38.9 171.1 L 37.0 174.4 L 34.6 177.5 L 31.7 180.2 L 28.3 182.6 L 23.8 182.9 Z M 162.6 182.0 L 160.7 183.4 L 158.7 184.6 L 156.5 185.6 L 154.3 186.4 L 152.1 187.1 L 149.7 187.5 L 147.4 187.8 L 145.0 187.9 L 145.0 181.9 L 125.0 178.9 L 125.0 175.9 L 145.0 175.9 L 146.5 175.8 L 147.9 175.7 L 149.3 175.4 L 150.6 175.0 L 151.8 174.6 L 153.0 174.0 L 154.2 173.3 L 155.4 172.5 L 156.5 171.6 L 157.6 170.5 L 158.7 169.1 L 159.9 167.3 L 161.0 165.0 L 162.0 162.2 L 162.8 159.0 L 163.6 155.4 L 164.2 151.3 L 164.6 146.7 L 164.9 141.8 L 164.96296300888062 138.4 L 50.0 138.4 L 38.0 144.4 L 38.0 80.4 L 50.0 86.4 L 146.0 86.4 L 156.0 76.4 L 168.0 86.4 L 168.0 90.4 L 50.0 90.4 L 50.0 110.4 L 147.8181818008423 110.4 L 156.0 101.4 L 166.0 110.4 L 166.0 114.4 L 50.0 114.4 L 50.0 134.4 L 165.0 134.4 L 171.0 129.4 L 182.0 138.4 L 177.0 141.4 L 176.91316928863526 141.43617944717408 L 176.9 142.2 L 176.6 147.6 L 176.1 152.7 L 175.4 157.4 L 174.5 161.8 L 173.4 165.8 L 172.1 169.6 L 170.4 173.0 L 168.5 176.1 L 166.2 178.8 L 164.5 180.5 Z M 96.2 164.6 L 95.7 162.6 L 95.0 160.5 L 94.1 158.4 L 92.9 156.2 L 91.5 154.0 L 89.8 151.7 L 87.8 149.4 L 85.3 147.4 L 86.3 145.8 L 89.2 147.4 L 92.2 148.6 L 95.0 150.1 L 97.6 151.9 L 99.9 153.8 L 102.1 155.9 L 104.0 158.2 L 105.7 160.7 L 107.1 163.3 L 108.3 166.2 L 107.3 170.7 L 103.5 173.2 L 99.1 172.3 L 96.5 168.5 L 96.4 166.6 Z M 67.3 177.8 L 63.6 175.2 L 62.7 170.7 L 63.4 169.0 L 63.9 167.3 L 64.3 165.4 L 64.5 163.3 L 64.4 161.2 L 64.2 158.8 L 63.8 156.3 L 63.1 153.7 L 62.3 150.9 L 60.8 148.2 L 62.3 147.1 L 64.3 149.6 L 66.5 151.8 L 68.5 154.1 L 70.1 156.6 L 71.6 159.1 L 72.7 161.7 L 73.6 164.5 L 74.2 167.3 L 74.5 170.2 L 74.4 173.1 L 71.8 176.9 Z M 128.9 160.2 L 127.8 158.3 L 126.6 156.5 L 125.0 154.5 L 123.3 152.6 L 121.2 150.7 L 119.0 148.7 L 116.5 146.7 L 113.5 145.0 L 114.2 143.4 L 117.5 144.4 L 120.8 145.1 L 123.9 146.1 L 126.8 147.3 L 129.6 148.6 L 132.2 150.1 L 134.6 151.8 L 136.9 153.7 L 138.9 155.7 L 140.8 158.0 L 141.2 162.5 L 138.4 166.1 L 133.8 166.6 L 130.2 163.7 L 129.7 162.0 Z M 145.3 79.1 L 143.2 79.7 L 141.0 80.3 L 138.9 80.7 L 136.7 81.1 L 134.6 81.4 L 132.4 81.6 L 128.0 81.8 L 128.0 75.8 L 108.0 72.8 L 108.0 69.8 L 128.0 69.8 L 129.7 69.7 L 131.5 69.6 L 133.2 69.5 L 138.3 68.6 L 140.0 68.1 L 141.7 67.7 L 143.4 67.1 L 145.0 66.5 L 145.7 66.1 L 146.4 65.5 L 147.1 64.7 L 147.9 63.3 L 148.6 61.5 L 149.2 59.3 L 149.6 56.5 L 149.9 53.2 L 150.0 49.5 L 150.0 47.2 L 89.79090909957885 47.2 L 88.3 50.0 L 82.9 56.8 L 76.1 62.8 L 68.1 67.8 L 58.9 71.9 L 48.5 75.2 L 36.9 77.6 L 24.1 79.2 L 23.8 77.4 L 36.1 73.9 L 46.9 70.1 L 56.3 65.9 L 64.2 61.2 L 70.8 56.2 L 75.9 50.7 L 79.7 44.9 L 82.3 38.7 L 83.7 31.9 L 83.91780824661255 26.6 L 19.0 26.6 L 19.0 22.6 L 163.0 22.6 L 173.0 12.6 L 185.0 22.6 L 185.0 26.6 L 95.76086959838867 26.6 L 94.9 33.8 L 92.4 42.3 L 91.92077922821045 43.2 L 150.0 43.2 L 156.0 38.2 L 167.0 47.2 L 162.0 50.2 L 161.98623323440552 50.20573616027832 L 161.9 54.0 L 161.5 58.0 L 160.9 61.8 L 160.0 65.2 L 158.7 68.4 L 157.1 71.4 L 155.0 73.9 L 152.4 76.1 L 149.5 77.6 L 147.4 78.4 Z " />
</g>
</svg>
