<svg xmlns="http://www.w3.org/2000/svg" xmlns:xlink="http://www.w3.org/1999/xlink" version="1.1" baseProfile="full" viewBox="0 0 200 200" width="200" height="200">
<g fill="black">
<path d="M 58.3 122.2 L 60.4 121.5 L 62.5 120.6 L 64.8 119.5 L 67.2 118.3 L 69.8 116.9 L 72.4 115.3 L 75.2 113.6 L 78.1 111.7 L 79.46751384735107 110.81773300170899 L 79.5 109.9 L 79.5 31.0 L 91.5 37.0 L 125.4 37.0 L 125.4 12.0 L 137.4 14.0 L 140.4 16.0 L 137.4 17.8 L 137.4 37.0 L 165.6 37.0 L 175.6 27.0 L 187.6 37.0 L 187.6 41.0 L 91.5 41.0 L 91.5 98.0 L 90.9 110.4 L 89.8 122.1 L 88.2 133.1 L 86.1 143.4 L 83.5 152.8 L 80.3 161.5 L 76.5 169.4 L 72.2 176.4 L 67.2 182.5 L 61.7 187.6 L 60.4 186.3 L 64.2 180.3 L 67.5 173.7 L 70.5 166.6 L 73.1 158.9 L 75.3 150.6 L 77.0 141.5 L 78.3 131.7 L 79.1 121.2 L 79.24426231384277 117.12459020614624 L 78.9 117.6 L 76.7 120.3 L 74.6 122.8 L 72.5 125.1 L 70.4 127.2 L 68.3 129.2 L 67.65515460968018 129.78343152999878 L 67.2 134.4 L 64.0 132.8 L 56.6 123.1 Z M 109.7 175.5 L 130.9 175.5 L 131.8 175.3 L 132.4 175.1 L 132.7 174.9 L 132.9 174.8 L 133.1 174.6 L 133.4 173.7 L 133.6 172.8 L 133.7 171.5 L 133.7 117.3 L 144.7373134613037 119.13955221176147 L 147.2 116.8 L 151.0 113.2 L 154.8 109.7 L 158.4 106.3 L 161.9 103.1 L 165.1 99.9 L 167.68064517974852 97.4 L 95.8 97.4 L 95.8 93.4 L 130.9 93.4 L 130.9 47.8 L 142.9 49.8 L 145.9 51.8 L 142.9 53.6 L 142.9 69.7 L 158.71818180084227 69.7 L 166.9 60.7 L 176.9 69.7 L 176.9 73.7 L 142.9 73.7 L 142.9 93.4 L 171.68275861740113 93.4 L 174.0 91.0 L 174.37687368392943 91.41927194595337 L 178.0 88.4 L 189.0 97.4 L 184.0 100.4 L 178.0613139152527 102.87445259094238 L 175.2 105.0 L 171.5 107.6 L 167.7 110.3 L 163.6 112.9 L 159.4 115.6 L 154.9 118.4 L 150.3 121.0 L 145.7 123.44081630706788 L 145.7 171.5 L 145.5 174.1 L 145.1 176.6 L 144.3 179.0 L 143.0 181.2 L 141.4 183.3 L 139.4 184.9 L 137.1 186.1 L 134.7 186.9 L 132.2 187.4 L 129.7 187.5 L 129.7 181.5 L 109.7 178.5 Z M 56.6 153.1 L 55.5 149.7 L 54.2 146.2 L 52.6 142.5 L 50.7 138.8 L 48.6 134.9 L 46.3 130.8 L 44.382843589782716 127.57917718887329 L 43.9 130.4 L 41.3 140.7 L 38.1 150.3 L 34.2 159.1 L 29.6 167.1 L 24.3 174.3 L 18.4 180.5 L 11.7 185.6 L 10.5 184.3 L 15.5 177.9 L 20.0 171.1 L 23.9 163.9 L 27.2 156.1 L 30.1 147.6 L 32.3 138.5 L 34.0 128.6 L 35.2 118.1 L 35.7 106.9 L 35.7 17.0 L 47.7 19.0 L 50.7 21.0 L 47.7 22.8 L 47.7 72.07200002670288 L 48.9 70.2 L 51.3 66.5 L 53.6 63.1 L 55.8 59.7 L 57.8 56.6 L 59.7 53.6 L 61.5 50.8 L 62.591407489776614 48.9582498550415 L 62.5 48.9 L 63.012328720092775 48.24794521331787 L 63.1 48.1 L 63.11788539886474 48.11360034942627 L 63.6 47.5 L 72.7 55.4 L 73.8 58.8 L 69.80667486190796 58.318046951293944 L 68.36993341445923 59.81465272903442 L 70.1 62.0 L 72.0 64.6 L 73.7 67.5 L 75.2 70.5 L 76.6 73.8 L 77.9 77.3 L 79.0 81.0 L 78.0 85.4 L 74.2 87.9 L 69.7 86.9 L 67.2 83.0 L 66.9 79.7 L 66.6 76.5 L 66.2 73.4 L 65.6 70.5 L 65.0 67.7 L 64.3 65.0 L 64.02923078536988 64.11999998092651 L 62.7 65.4 L 59.8 68.2 L 56.7 71.1 L 53.4 74.1 L 50.0 77.2 L 47.7 79.07631578445435 L 47.7 95.0 L 47.1 107.5 L 45.8 119.3 L 45.09692125320434 123.40746002197265 L 46.3 124.4 L 50.1 127.8 L 53.5 131.2 L 56.7 134.7 L 59.5 138.3 L 62.1 141.9 L 64.4 145.5 L 66.4 149.1 L 68.2 152.8 L 69.7 156.5 L 69.0 161.0 L 65.5 163.8 L 60.9 163.2 L 58.1 159.6 L 57.5 156.4 Z M 14.2 108.6 L 11.5 104.9 L 12.0 100.4 L 13.7 97.6 L 15.2 94.4 L 16.6 90.8 L 17.8 86.8 L 18.8 82.4 L 19.6 77.5 L 20.1 72.3 L 20.5 66.6 L 20.9 60.6 L 21.1 54.1 L 22.9 53.8 L 24.6 60.2 L 25.9 66.3 L 26.7 72.2 L 27.1 77.8 L 27.2 83.2 L 27.0 88.3 L 26.4 93.2 L 25.4 97.8 L 24.1 102.2 L 22.4 106.3 L 18.8 109.1 Z " />
</g>
</svg>
