<svg xmlns="http://www.w3.org/2000/svg" xmlns:xlink="http://www.w3.org/1999/xlink" version="1.1" baseProfile="full" viewBox="0 0 200 200" width="200" height="200">
<g fill="black">
<path d="M 16.1 185.0 L 15.9 180.5 L 19.0 177.0 L 22.0 175.8 L 24.7 174.2 L 27.3 172.3 L 29.6 170.1 L 31.8 167.4 L 33.8 164.2 L 35.6 160.6 L 37.2 156.5 L 38.7 152.0 L 39.7 146.9 L 41.5 147.0 L 41.8 152.3 L 41.9 157.4 L 41.4 162.3 L 40.4 166.9 L 38.9 171.2 L 36.9 175.2 L 34.4 179.0 L 31.5 182.3 L 28.0 185.3 L 24.1 187.9 L 19.6 188.1 Z M 171.6 176.7 L 170.1 173.5 L 168.2 170.2 L 166.0 166.8 L 163.4 163.3 L 160.4 159.7 L 157.0 156.0 L 153.3 152.1 L 149.1 148.2 L 150.2 146.7 L 155.3 149.3 L 160.1 152.1 L 164.5 155.1 L 168.5 158.1 L 172.2 161.3 L 175.5 164.6 L 178.4 168.1 L 180.9 171.6 L 183.1 175.3 L 184.9 179.1 L 184.4 183.6 L 180.9 186.6 L 176.4 186.2 L 173.4 182.7 L 172.7 179.7 Z M 122.4 174.3 L 121.7 171.5 L 120.7 168.6 L 119.4 165.6 L 117.7 162.5 L 115.7 159.2 L 113.3 155.9 L 110.7 152.4 L 107.5 149.1 L 108.6 147.7 L 112.6 150.2 L 116.5 152.7 L 120.0 155.3 L 123.1 158.2 L 126.0 161.1 L 128.4 164.3 L 130.6 167.6 L 132.3 171.0 L 133.7 174.6 L 134.7 178.3 L 133.4 182.7 L 129.4 184.9 L 125.0 183.6 L 122.8 179.6 L 122.7 177.0 Z M 79.9 184.9 L 75.9 182.7 L 74.6 178.3 L 75.1 175.7 L 75.4 173.1 L 75.5 170.4 L 75.3 167.7 L 74.8 164.8 L 74.0 161.9 L 72.9 158.8 L 71.6 155.6 L 70.0 152.3 L 67.7 149.1 L 69.1 147.9 L 75.1 153.1 L 77.7 155.9 L 80.0 158.8 L 81.9 162.0 L 83.6 165.2 L 84.9 168.6 L 85.8 172.2 L 86.3 175.9 L 86.5 179.6 L 84.2 183.6 Z M 132.3 102.6 L 129.8 98.8 L 127.29019603729247 95.70457515716552 L 125.2 101.6 L 120.2 111.6 L 114.3 120.6 L 107.3 128.4 L 99.3 135.1 L 90.4 140.6 L 80.5 144.8 L 79.8 143.1 L 88.4 137.4 L 95.9 131.0 L 102.4 124.0 L 108.1 116.2 L 112.7 107.7 L 116.5 98.3 L 119.4 88.0 L 119.47663583755494 87.5746708869934 L 119.4 87.5 L 115.1 83.6 L 110.3 79.8 L 105.2 75.8 L 99.6 71.7 L 100.4 70.1 L 107.0 72.5 L 113.2 75.2 L 118.8 78.2 L 120.9271282196045 79.52443828582764 L 121.4 76.9 L 122.4 64.8 L 122.6 51.7 L 122.6 50.7 L 96.3 50.7 L 96.3 46.7 L 122.6 46.7 L 122.6 14.0 L 134.6 16.0 L 137.6 18.0 L 134.6 19.8 L 134.6 46.7 L 154.0 46.7 L 160.0 41.7 L 171.0 50.7 L 166.0 54.7 L 166.0 128.4 L 166.2 129.3 L 166.4 129.9 L 166.5 130.3 L 166.7 130.5 L 166.9 130.6 L 167.2 130.8 L 167.8 131.0 L 168.7 131.1 L 170.0 131.2 L 176.8 131.2 L 182.8 106.2 L 184.8 106.2 L 182.8 131.2 L 186.4 133.6 L 188.8 137.2 L 186.4 140.8 L 182.8 143.2 L 170.0 143.2 L 167.4 143.1 L 164.9 142.6 L 162.5 141.8 L 160.2 140.6 L 158.2 138.9 L 156.6 136.9 L 155.3 134.7 L 154.5 132.3 L 154.1 129.8 L 154.0 127.2 L 154.0 50.7 L 134.6 50.7 L 134.6 51.7 L 133.8 65.6 L 132.0 78.6 L 130.22192735671996 85.95754194259644 L 133.4 88.5 L 137.4 92.3 L 141.0 96.3 L 144.2 100.5 L 146.9 104.9 L 147.1 109.4 L 144.2 112.9 L 139.6 113.1 L 136.1 110.1 L 134.4 106.4 Z M 15.1 126.9 L 21.2 126.4 L 27.7 125.8 L 34.7 125.1 L 42.1 124.3 L 50.0 123.5 L 58.4 122.6 L 67.3 121.6 L 76.6 120.7 L 86.5 119.8 L 96.8 119.1 L 97.1 120.8 L 87.1 123.6 L 77.5 126.0 L 68.4 128.1 L 59.6 130.1 L 51.4 131.9 L 43.5 133.5 L 36.2 135.0 L 29.2 136.4 L 22.8 137.6 L 20.8291259765625 137.98771295547485 L 19.1 141.5 L 16.7 138.8 L 13.2 127.1 Z M 36.6 53.0 L 75.3 53.0 L 81.3 48.0 L 92.3 57.0 L 87.3 61.0 L 87.3 105.9 L 75.3 111.9 L 75.3 103.9 L 36.6 103.9 L 36.6 110.9 L 24.6 116.9 L 24.6 47.0 Z M 36.6 79.8 L 36.6 99.9 L 75.3 99.9 L 75.3 79.8 Z M 36.6 57.0 L 36.6 75.8 L 75.3 75.8 L 75.3 57.0 Z M 13.0 36.0 L 50.0 36.0 L 50.0 14.0 L 62.0 16.0 L 65.0 18.0 L 62.0 19.8 L 62.0 36.0 L 85.81818180084228 36.0 L 94.0 27.0 L 104.0 36.0 L 104.0 40.0 L 13.0 40.0 Z " />
</g>
</svg>
