<svg xmlns="http://www.w3.org/2000/svg" xmlns:xlink="http://www.w3.org/1999/xlink" version="1.1" baseProfile="full" viewBox="0 0 200 200" width="200" height="200">
<g fill="black">
<path d="M 100.0 176.0 L 120.0 176.0 L 121.2 175.9 L 122.1 175.7 L 123.0 175.4 L 123.4 175.0 L 123.7 174.1 L 123.9 173.2 L 124.0 172.0 L 124.0 125.2 L 105.1 125.2 L 93.1 131.2 L 93.1 75.3 L 88.6 77.8 L 82.1 80.6 L 75.3 82.9 L 74.5 81.2 L 80.3 77.3 L 85.8 73.2 L 91.1 69.0 L 96.2 64.5 L 101.0 59.7 L 105.6 54.6 L 109.9 49.3 L 114.0 43.6 L 117.9 37.5 L 118.60909090042114 36.2 L 78.8 36.2 L 78.8 32.2 L 124.0 32.2 L 124.0 13.6 L 136.0 15.6 L 139.0 17.6 L 136.0 19.4 L 136.0 32.2 L 159.2 32.2 L 169.2 22.2 L 181.2 32.2 L 181.2 36.2 L 136.0 36.2 L 136.0 36.232653045654295 L 139.3 39.6 L 144.0 44.4 L 148.7 48.9 L 153.3 53.0 L 158.0 56.8 L 162.7 60.2 L 167.5 63.2 L 172.4 65.8 L 177.4 68.1 L 182.4 70.0 L 188.8 72.6 L 177.3 82.2 L 171.8 79.3 L 166.4 76.0 L 161.3 72.3 L 156.4 68.2 L 151.8 63.8 L 147.4 58.9 L 143.3 53.7 L 139.4 48.1 L 136.0 42.27142858505249 L 136.0 73.1 L 124.2 79.0 L 154.8 79.0 L 160.8 74.0 L 171.8 83.0 L 166.8 87.0 L 166.8 125.2 L 154.8 131.2 L 154.8 125.2 L 136.0 125.2 L 136.0 172.0 L 135.8 174.5 L 135.4 177.0 L 134.6 179.4 L 133.3 181.7 L 131.7 183.7 L 129.7 185.3 L 127.4 186.6 L 125.0 187.4 L 122.5 187.8 L 120.0 188.0 L 120.0 182.0 L 100.0 179.0 Z M 68.5 155.8 L 67.0 152.5 L 65.3 149.1 L 63.2 145.6 L 60.8 142.0 L 58.0 138.2 L 55.0 134.2 L 51.7 130.1 L 51.21885976791382 129.5253046989441 L 50.3 133.8 L 47.2 143.7 L 43.3 152.9 L 38.6 161.4 L 33.1 169.0 L 26.7 175.8 L 19.6 181.6 L 11.7 186.4 L 10.7 184.9 L 17.1 178.7 L 22.8 172.1 L 27.8 165.1 L 32.0 157.6 L 35.5 149.5 L 38.4 140.9 L 40.5 131.6 L 42.0 121.6 L 42.8 111.0 L 42.8 25.1 L 54.8 27.1 L 57.8 29.1 L 54.8 30.9 L 54.8 79.76363639831543 L 55.1 79.4 L 58.3 75.6 L 61.5 72.1 L 64.4 68.7 L 67.2 65.5 L 69.9 62.4 L 72.4 59.5 L 74.6 56.8 L 76.16304454803466 54.95276556015015 L 76.1 54.9 L 77.0 53.9 L 85.3 62.6 L 86.0 66.1 L 82.18000001907349 65.14499998092651 L 79.8 67.1 L 76.7 69.5 L 73.5 72.1 L 70.0 74.7 L 66.4 77.4 L 62.5 80.2 L 58.4 83.1 L 54.8 85.39090909957886 L 54.8 99.7 L 54.1 111.7 L 52.6 123.1 L 51.921285724639894 126.25749702453614 L 54.0 127.6 L 58.5 130.7 L 62.5 133.9 L 66.2 137.2 L 69.6 140.5 L 72.7 143.9 L 75.4 147.3 L 77.9 150.8 L 80.0 154.3 L 81.7 157.9 L 81.4 162.5 L 78.0 165.5 L 73.4 165.2 L 70.4 161.8 L 69.6 158.9 Z M 115.0 139.3 L 116.9 142.4 L 113.01745376586913 142.86858320236206 L 112.5 143.8 L 109.6 148.0 L 106.4 152.2 L 102.8 156.2 L 99.0 160.0 L 94.8 163.8 L 90.3 167.3 L 85.4 170.7 L 80.1 173.8 L 74.5 176.7 L 73.4 175.2 L 82.0 166.6 L 85.9 162.4 L 89.5 158.4 L 92.7 154.3 L 95.6 150.3 L 98.2 146.3 L 100.5 142.3 L 102.4 138.3 L 103.70666408538818 135.30235891342164 L 103.7 135.3 L 104.6 133.2 Z M 171.5 165.7 L 169.6 162.5 L 167.4 159.2 L 164.9 155.8 L 162.0 152.3 L 158.8 148.8 L 155.2 145.1 L 151.4 141.2 L 147.3 137.3 L 148.3 135.8 L 153.5 138.4 L 158.4 141.1 L 162.8 144.0 L 167.0 146.9 L 170.8 150.0 L 174.3 153.2 L 177.5 156.4 L 180.3 159.7 L 182.9 163.2 L 185.1 166.7 L 185.3 171.2 L 182.2 174.7 L 177.7 174.8 L 174.2 171.8 L 173.0 168.8 Z M 105.1 104.1 L 105.1 121.2 L 154.8 121.2 L 154.8 104.1 Z M 15.1 112.6 L 12.8 108.7 L 13.8 104.2 L 15.8 101.7 L 17.6 98.7 L 19.2 95.4 L 20.5 91.7 L 21.7 87.6 L 22.5 83.0 L 23.1 78.1 L 23.5 72.7 L 23.7 66.9 L 23.7 60.7 L 25.4 60.4 L 27.3 66.5 L 28.7 72.3 L 29.5 78.0 L 30.0 83.4 L 30.0 88.6 L 29.6 93.6 L 28.7 98.4 L 27.4 102.9 L 25.7 107.2 L 23.5 111.3 L 19.6 113.6 Z M 105.1 83.0 L 105.1 100.1 L 154.8 100.1 L 154.8 83.0 Z M 122.6 50.0 L 117.6 55.8 L 112.3 61.1 L 106.7 66.0 L 101.0 70.4 L 95.25107917785644 74.07553958892822 L 105.1 79.0 L 124.0 79.0 L 124.0 48.22083330154419 Z " />
</g>
</svg>
