<svg xmlns="http://www.w3.org/2000/svg" xmlns:xlink="http://www.w3.org/1999/xlink" version="1.1" baseProfile="full" viewBox="0 0 200 200" width="200" height="200">
<g fill="black">
<path d="M 159.8 181.5 L 152.7 178.3 L 146.6 173.9 L 141.6 168.7 L 137.7 162.7 L 134.7 156.1 L 132.8095582008362 149.61848516464232 L 130.8 157.2 L 128.3 164.9 L 125.5 171.9 L 122.3 178.2 L 118.7 183.7 L 114.7 188.4 L 113.2 187.5 L 115.4 181.9 L 117.4 176.0 L 119.3 169.6 L 121.0 162.7 L 122.6 155.2 L 123.9 147.1 L 125.0 138.4 L 125.9 129.1 L 126.5 119.2 L 126.9 108.6 L 126.93119316101074 108.6018196105957 L 127.0 106.4 L 138.9 109.3 L 141.8 111.4 L 138.50542573928834 113.17400150299072 L 137.8 120.1 L 136.5 130.3 L 135.05555553436278 138.9666666984558 L 135.5 140.3 L 138.3 147.1 L 141.3 153.1 L 144.7 158.2 L 146.0 159.6 L 146.0 82.0 L 128.0 82.0 L 128.0 78.0 L 170.0 78.0 L 176.0 73.0 L 187.0 82.0 L 182.0 85.0 L 179.6631579399109 85.97368421554566 L 178.8 87.7 L 176.2 92.3 L 174.7 94.6 L 173.1 96.9 L 171.3 99.3 L 169.4 101.7 L 167.8 104.4 L 166.1 103.5 L 167.2 100.7 L 167.8 97.7 L 168.3 94.9 L 168.8 92.2 L 169.2 89.6 L 169.6 87.2 L 169.8 84.9 L 170.0 82.7 L 170.0 82.0 L 158.0 82.0 L 158.0 124.0 L 167.7777777671814 124.0 L 174.0 117.0 L 182.0 124.0 L 182.0 128.0 L 158.0 128.0 L 158.0 168.49818181991577 L 163.2 170.2 L 169.6 171.2 L 177.0 171.4 L 188.8 171.4 L 177.0 184.6 L 167.9 183.6 Z M 109.5 176.5 L 108.2 178.6 L 106.6 180.6 L 104.7 182.3 L 102.7 183.6 L 100.4 184.7 L 98.0 185.4 L 95.5 185.8 L 93.0 186.0 L 93.0 180.0 L 73.0 177.0 L 73.0 174.0 L 93.0 174.0 L 94.2 173.9 L 95.3 173.7 L 96.2 173.5 L 96.8 173.2 L 97.4 172.8 L 97.8 172.4 L 98.3 171.8 L 98.8 171.0 L 99.2 170.0 L 99.6 168.8 L 100.3 165.1 L 101.0 160.3 L 101.6 154.4 L 102.2 147.6 L 102.6 139.8 L 102.9 131.0 L 103.0 121.2 L 103.1 110.4 L 103.1 98.7 L 103.07848262786865 95.96729888916016 L 103.0 96.0 L 103.0 88.0 L 94.65467624664306 88.0 L 94.4 93.9 L 93.2 107.1 L 91.4 119.7 L 89.0 131.6 L 86.1 142.8 L 82.5 153.3 L 78.3 163.0 L 73.4 172.1 L 67.9 180.2 L 61.7 187.5 L 60.2 186.4 L 64.7 178.2 L 68.6 169.6 L 71.49389066696168 162.28488750457763 L 69.6 163.8 L 65.1 163.3 L 62.2 159.7 L 61.5 156.5 L 60.6 153.3 L 59.4 149.8 L 57.9 146.3 L 56.2 142.6 L 54.1 138.9 L 51.8 134.9 L 49.3 130.9 L 46.921923065185545 127.1126922607422 L 46.3 130.4 L 43.6 140.8 L 40.2 150.4 L 36.0 159.2 L 31.2 167.2 L 25.6 174.3 L 19.3 180.5 L 12.3 185.6 L 11.2 184.3 L 16.6 177.9 L 21.3 171.1 L 25.5 163.8 L 29.2 156.0 L 32.2 147.5 L 34.6 138.4 L 36.5 128.6 L 37.7 118.1 L 38.3 106.9 L 38.3 17.0 L 50.3 19.0 L 53.3 21.0 L 50.3 22.8 L 50.3 72.7 L 52.1 70.1 L 54.7 66.4 L 57.2 62.9 L 59.6 59.6 L 61.8 56.5 L 63.9 53.5 L 65.8 50.6 L 67.0146788597107 48.77798166275024 L 66.9 48.7 L 68.0 47.4 L 71.0 50.1303370475769 L 71.0 49.0 L 88.0 49.0 L 88.0 16.0 L 100.0 18.0 L 103.0 20.0 L 100.0 21.8 L 100.0 49.0 L 102.81818180084228 49.0 L 111.0 40.0 L 121.0 49.0 L 121.0 53.0 L 74.15308637619019 53.0 L 76.9 55.5 L 77.9 59.0 L 73.97902622222901 58.3808988571167 L 71.9 60.3 L 69.2 62.9 L 66.4 65.6 L 63.3 68.3 L 60.1 71.2 L 56.6 74.2 L 53.0 77.3 L 50.3 79.325 L 50.3 95.0 L 49.7 107.5 L 48.4 119.3 L 47.65625 123.23125 L 49.1 124.4 L 53.1 127.7 L 56.7 131.1 L 60.0 134.6 L 63.0 138.2 L 65.7 141.7 L 68.2 145.4 L 70.3 149.0 L 72.2 152.7 L 73.60201005935669 156.1582914352417 L 75.3 150.9 L 77.8 140.6 L 79.9 129.8 L 81.5 118.3 L 82.5 106.2 L 83.0 93.4 L 83.0 53.0 L 95.0 55.0 L 98.0 57.0 L 95.0 58.8 L 95.0 80.0 L 94.82733812332154 84.0 L 103.0 84.0 L 109.0 79.0 L 120.0 88.0 L 115.0 91.0 L 114.98044328689575 91.00814867019653 L 115.1 98.6 L 115.1 110.5 L 115.0 121.3 L 114.9 131.3 L 114.6 140.3 L 114.1 148.4 L 113.6 155.5 L 112.9 161.8 L 112.1 167.1 L 111.2 171.7 L 110.5 174.1 Z M 15.1 108.5 L 12.4 104.8 L 13.0 100.3 L 14.8 97.5 L 16.5 94.4 L 17.9 90.8 L 19.1 86.8 L 20.2 82.4 L 21.0 77.5 L 21.5 72.3 L 21.9 66.6 L 22.2 60.6 L 22.4 54.1 L 24.2 53.8 L 26.0 60.2 L 27.3 66.3 L 28.1 72.2 L 28.5 77.9 L 28.6 83.2 L 28.3 88.4 L 27.6 93.3 L 26.6 97.9 L 25.2 102.3 L 23.3 106.5 L 19.6 109.1 Z M 146.6 18.1 L 149.2 20.7 L 145.61094646453859 21.93985481262207 L 144.9 24.7 L 143.0 31.2 L 140.9 37.5 L 138.8 43.6 L 137.010169506073 48.0 L 164.0 48.0 L 174.0 38.0 L 186.0 48.0 L 186.0 52.0 L 135.32241382598878 52.0 L 133.9 55.3 L 131.2 60.9 L 128.4 66.3 L 125.2 71.5 L 121.8 76.4 L 120.1 75.5 L 121.8 69.9 L 123.4 64.2 L 125.1 58.5 L 126.8 52.7 L 128.4 46.8 L 129.9 40.9 L 131.3 34.8 L 132.6 28.5 L 133.8 22.2 L 134.73016862869264 16.703549289703368 L 134.7 16.7 L 134.84634141921998 16.017073154449463 L 134.9 15.7 L 134.9136841773987 15.70280704498291 L 135.3 13.9 Z " />
</g>
</svg>
