<svg xmlns="http://www.w3.org/2000/svg" xmlns:xlink="http://www.w3.org/1999/xlink" version="1.1" baseProfile="full" viewBox="0 0 200 200" width="200" height="200">
<g fill="black">
<path d="M 57.3 153.1 L 56.2 149.7 L 54.8 146.2 L 53.2 142.5 L 51.4 138.8 L 49.3 134.9 L 47.0 130.8 L 45.16050939559936 127.70965576171875 L 44.7 130.4 L 42.1 140.7 L 38.9 150.3 L 35.0 159.1 L 30.4 167.1 L 25.2 174.3 L 19.3 180.5 L 12.7 185.6 L 11.5 184.3 L 16.4 177.9 L 20.8 171.2 L 24.7 163.9 L 28.1 156.1 L 30.9 147.6 L 33.1 138.5 L 34.8 128.6 L 35.9 118.1 L 36.5 106.9 L 36.5 17.0 L 48.5 19.0 L 51.5 21.0 L 48.5 22.8 L 48.5 71.825 L 49.5 70.2 L 51.9 66.6 L 54.2 63.1 L 56.4 59.8 L 58.4 56.6 L 60.3 53.6 L 62.1 50.8 L 63.191160106658934 48.95866737365723 L 63.1 48.9 L 64.1 47.5 L 73.2 55.4 L 74.00787401199341 57.68897638320923 L 75.9 58.6 L 78.4 60.0 L 80.8 61.7 L 83.2 63.5 L 85.4 65.4 L 87.6 67.5 L 89.7 69.7 L 91.6 72.0 L 93.5 74.4 L 94.0 79.0 L 91.1 82.6 L 86.6 83.0 L 83.0 80.2 L 82.1 77.8 L 81.1 75.4 L 80.0 73.0 L 78.8 70.7 L 76.2 66.1 L 74.7 63.8 L 73.2 61.6 L 71.7 59.2 L 70.82474012374878 58.36850309371948 L 70.40667486190796 58.318046951293944 L 68.6 60.2 L 66.0 62.8 L 63.3 65.4 L 60.4 68.2 L 57.4 71.1 L 54.1 74.1 L 50.7 77.2 L 48.5 78.99473686218262 L 48.5 95.0 L 47.9 107.5 L 46.6 119.3 L 45.88454704284668 123.47975130081177 L 47.0 124.4 L 50.8 127.8 L 54.2 131.2 L 57.3 134.7 L 60.2 138.3 L 62.7 141.9 L 63.4027777671814 143.0 L 119.7 143.0 L 119.7 122.0 L 131.7 124.0 L 134.7 126.0 L 131.7 127.8 L 131.7 143.0 L 166.0 143.0 L 176.0 133.0 L 188.0 143.0 L 188.0 147.0 L 131.7 147.0 L 131.7 185.0 L 119.7 191.0 L 119.7 147.0 L 65.875 147.0 L 67.1 149.1 L 68.8 152.8 L 70.3 156.5 L 69.6 161.0 L 66.0 163.8 L 61.5 163.2 L 58.7 159.6 L 58.1 156.4 Z M 142.1 114.7 L 141.71297073364258 112.2230125427246 L 137.1 114.2 L 132.2 116.1 L 127.4 117.9 L 122.6 119.5 L 118.0 121.1 L 113.4 122.5 L 108.9 124.0 L 104.5 125.3 L 104.24467163085937 125.37719230651855 L 102.8 129.1 L 100.2 126.6 L 95.7 115.3 L 97.6 114.9 L 102.0 114.2 L 106.5 113.5 L 108.99459733963013 113.12038736343384 L 110.2 110.6 L 113.5 103.9 L 116.9 97.5 L 120.1 91.3 L 123.3 85.2 L 126.3 79.3 L 132.0 67.9 L 134.7 62.4 L 136.76967496871947 57.92950201034546 L 136.7 57.9 L 137.7 56.0 L 147.8 62.6 L 149.5 65.8 L 145.7775231361389 65.99254188537597 L 144.7 67.8 L 141.4 73.1 L 137.9 78.5 L 134.3 84.0 L 130.5 89.6 L 126.6 95.3 L 122.4 101.0 L 118.1 106.8 L 113.58000001907348 112.37787237167359 L 115.8 112.0 L 120.6 111.3 L 125.5 110.5 L 135.7 109.1 L 141.0 108.5 L 141.14386920928956 108.48953676223755 L 141.1 108.2 L 140.4 104.8 L 139.6 101.3 L 138.6 97.7 L 137.6 94.0 L 136.6 90.1 L 135.1 86.3 L 136.7 85.4 L 139.2 88.8 L 141.7 92.0 L 143.9 95.3 L 145.9 98.7 L 147.8 102.1 L 149.4 105.5 L 150.9 108.8 L 152.3 112.2 L 153.4 115.6 L 154.4 119.1 L 153.3 123.5 L 149.4 125.9 L 145.0 124.8 L 142.6 120.9 L 142.4 117.9 Z M 65.1 114.6 L 67.6 113.1 L 70.4 111.4 L 73.4 109.4 L 76.6 107.3 L 80.1 104.9 L 83.9 102.3 L 87.9 99.6 L 92.3 96.6 L 96.9 93.6 L 101.9 90.3 L 103.0 91.6 L 99.2 96.1 L 95.5 100.4 L 92.0 104.3 L 88.6 107.9 L 85.4 111.2 L 82.4 114.3 L 77.0 119.7 L 75.50374393463134 121.13391208648682 L 75.8 125.4 L 72.4 124.2 L 63.5 115.8 Z M 170.2 113.1 L 168.5 110.4 L 166.7 107.8 L 164.7 105.3 L 162.6 102.8 L 160.3 100.3 L 157.9 97.9 L 155.3 95.4 L 152.4 93.2 L 153.3 91.6 L 156.8 93.0 L 160.3 94.2 L 163.6 95.8 L 166.9 97.6 L 170.0 99.6 L 172.9 101.7 L 175.7 104.1 L 178.4 106.6 L 180.9 109.4 L 183.2 112.2 L 183.9 116.8 L 181.3 120.5 L 176.8 121.2 L 173.0 118.6 L 171.7 115.8 Z M 15.2 108.6 L 12.4 104.9 L 12.9 100.4 L 14.6 97.6 L 16.1 94.4 L 17.5 90.8 L 18.7 86.8 L 19.7 82.4 L 20.4 77.5 L 21.0 72.3 L 21.4 66.6 L 21.7 60.6 L 22.0 54.1 L 23.7 53.8 L 25.5 60.2 L 26.7 66.3 L 27.5 72.2 L 28.0 77.8 L 28.1 83.2 L 27.8 88.3 L 27.3 93.2 L 26.3 97.8 L 25.0 102.2 L 23.3 106.3 L 19.7 109.0 Z M 132.3 46.3 L 134.2 49.4 L 129.9991003036499 49.90700511932373 L 128.7 52.0 L 126.7 54.9 L 124.6 57.8 L 122.4 60.7 L 120.1 63.6 L 117.6 66.6 L 114.9 69.5 L 112.15365858078003 72.24634141921997 L 114.1 74.1 L 116.0 76.1 L 117.8 78.3 L 119.5 80.5 L 121.0 82.8 L 121.0 87.4 L 117.9 90.7 L 113.3 90.7 L 110.0 87.6 L 109.5 85.4 L 108.9 83.3 L 108.1 81.1 L 107.2 78.9 L 106.2 76.7 L 105.0 74.5 L 103.7 72.2 L 102.3 69.8 L 100.8 67.4 L 98.9 65.3 L 100.0 63.9 L 102.5 65.6 L 105.1 67.0 L 107.5 68.6 L 109.77951917648315 70.28486194610596 L 111.2 67.0 L 114.2 60.0 L 115.7 56.7 L 117.0 53.4 L 119.4 47.2 L 120.4 44.3 L 121.00883798599243 42.33818874359131 L 120.9 42.3 L 121.04285717010498 42.0 L 67.2 42.0 L 67.2 38.0 L 119.7 38.0 L 119.7 13.0 L 131.7 15.0 L 134.7 17.0 L 131.7 18.8 L 131.7 38.0 L 162.2 38.0 L 172.2 28.0 L 184.2 38.0 L 184.2 42.0 L 124.96885242462159 42.0 Z M 181.5 62.5 L 182.5 66.0 L 178.44585990905762 65.3598726272583 L 176.8 66.8 L 174.2 69.1 L 171.5 71.3 L 168.7 73.6 L 165.6 76.0 L 162.4 78.4 L 159.1 80.7 L 155.4 83.1 L 151.8 85.6 L 150.6 84.3 L 153.4 80.9 L 155.9 77.5 L 158.4 74.2 L 160.8 71.1 L 163.0 68.1 L 165.1 65.3 L 167.1 62.5 L 169.0 59.9 L 171.6309922218323 55.78907470703125 L 171.5 55.7 L 172.6 54.4 Z " />
</g>
</svg>
