<svg xmlns="http://www.w3.org/2000/svg" xmlns:xlink="http://www.w3.org/1999/xlink" version="1.1" baseProfile="full" viewBox="0 0 200 200" width="200" height="200">
<g fill="black">
<path d="M 150.4 178.7 L 139.4 174.0 L 129.7 168.1 L 121.4 161.2 L 114.4 153.1 L 109.0 144.1 L 105.1 134.2 L 103.55338525772095 126.93763513565064 L 102.4 131.7 L 97.4 143.3 L 90.6 153.6 L 82.1 162.5 L 72.0 170.0 L 60.3 176.1 L 47.1 180.9 L 32.3 184.2 L 16.1 186.1 L 15.8 184.3 L 31.5 180.5 L 45.4 175.8 L 57.4 170.2 L 67.7 163.7 L 76.3 156.3 L 83.1 148.0 L 88.4 138.8 L 92.1 128.6 L 94.3 117.3 L 94.9 104.8 L 94.93028774261475 104.80050477981567 L 95.0 102.5 L 106.9 105.0 L 109.9 107.0 L 106.492649269104 109.04441041946411 L 105.60644140243531 117.84318904876709 L 106.9 122.5 L 110.7 132.1 L 115.3 140.6 L 118.87389364242554 145.17709188461305 L 122.9 141.7 L 127.2 138.1 L 131.4 134.7 L 135.4 131.3 L 139.3 128.1 L 143.0 124.9 L 146.6 121.8 L 150.0 118.7 L 153.2 115.7 L 155.55087718963622 113.34912281036377 L 155.5 113.3 L 156.4 112.5 L 164.2 121.7 L 164.6 125.3 L 160.9179916381836 124.09497909545898 L 160.5 124.4 L 156.7 127.1 L 152.7 129.8 L 148.5 132.4 L 144.2 135.0 L 139.7 137.6 L 135.0 140.2 L 130.0 142.6 L 124.9 144.9 L 120.1432149887085 146.80271396636962 L 121.0 147.9 L 127.6 154.2 L 135.3 159.6 L 144.1 164.0 L 154.1 167.5 L 165.3 170.1 L 177.7 171.8 L 188.1 173.0 L 176.2 184.9 L 162.7 182.4 Z M 35.3 152.2 L 34.9 147.7 L 37.8 144.2 L 41.2 142.6 L 44.3 140.7 L 47.2 138.6 L 49.9 136.2 L 52.4 133.4 L 54.7 130.3 L 56.8 126.8 L 58.7 122.9 L 60.5 118.7 L 61.9 114.0 L 63.7 114.2 L 63.7 119.3 L 63.4 124.2 L 62.5 129.0 L 61.1 133.5 L 59.3 137.7 L 57.0 141.8 L 54.2 145.5 L 51.0 148.9 L 47.4 152.0 L 43.4 154.8 L 38.8 155.1 Z M 75.6 110.1 L 66.6 100.1 L 72.1 94.1 L 72.1 67.8 L 83.1 69.8 L 85.8 71.8 L 83.1 73.52340421676635 L 83.1 98.1 L 95.0 98.1 L 95.0 59.8 L 66.0 59.8 L 66.0 55.8 L 95.0 55.8 L 95.0 36.1 L 71.6 36.1 L 71.6 32.1 L 95.0 32.1 L 95.0 12.8 L 105.0 14.8 L 107.5 16.8 L 105.0 18.46666669845581 L 105.0 32.1 L 110.21818180084229 32.1 L 118.4 23.1 L 128.4 32.1 L 128.4 36.1 L 105.0 36.1 L 105.0 55.8 L 115.81818180084228 55.8 L 124.0 46.8 L 134.0 55.8 L 134.0 59.8 L 105.0 59.8 L 105.0 98.1 L 116.9 98.1 L 116.9 67.8 L 127.9 69.8 L 130.6 71.8 L 127.9 73.52340421676635 L 127.9 108.1 L 116.9 113.6 L 116.9 102.1 L 83.1 102.1 Z M 52.2 64.2 L 51.4 62.9 L 50.3 61.6 L 49.1 60.2 L 47.7 58.8 L 46.2 57.4 L 44.5 56.0 L 44.5 104.3 L 32.5 110.3 L 32.5 62.75 L 30.7 65.9 L 27.6 70.6 L 24.2 75.0 L 20.6 79.3 L 16.7 83.3 L 12.3 86.9 L 11.0 85.8 L 13.7 80.9 L 16.3 76.2 L 18.7 71.5 L 21.0 66.8 L 23.1 62.0 L 25.0 57.2 L 26.7 52.3 L 28.2 47.3 L 29.5 42.2 L 29.82162160873413 40.5 L 11.7 40.5 L 11.7 36.5 L 32.5 36.5 L 32.5 12.2 L 44.5 14.2 L 47.5 16.2 L 44.5 18.0 L 44.5 36.5 L 49.077777767181395 36.5 L 55.3 29.5 L 63.3 36.5 L 63.3 40.5 L 44.5 40.5 L 44.5 52.48800001144409 L 45.9 52.6 L 48.3 53.0 L 50.6 53.5 L 52.7 54.0 L 54.8 54.7 L 56.9 55.5 L 58.8 56.5 L 60.6 57.5 L 62.4 58.7 L 63.8 63.0 L 61.9 67.1 L 57.6 68.6 L 53.4 66.7 L 52.9 65.5 Z M 174.1 85.9 L 171.1 81.6 L 168.3 76.9 L 165.9 71.7 L 164.0 66.95 L 164.0 104.3 L 152.0 110.3 L 152.0 62.85333337783813 L 149.4 67.1 L 146.1 71.8 L 142.4 76.2 L 138.5 80.3 L 134.2 84.1 L 129.6 87.5 L 128.3 86.3 L 131.4 81.6 L 134.3 77.0 L 137.1 72.4 L 139.7 67.7 L 142.0 63.0 L 144.1 58.1 L 146.0 53.2 L 147.6 48.1 L 149.0 42.9 L 149.49811325073242 40.5 L 130.0 40.5 L 130.0 36.5 L 152.0 36.5 L 152.0 12.2 L 164.0 14.2 L 167.0 16.2 L 164.0 18.0 L 164.0 36.5 L 166.8181818008423 36.5 L 175.0 27.5 L 185.0 36.5 L 185.0 40.5 L 164.0 40.5 L 164.0 48.01428575515747 L 165.8 52.0 L 168.6 57.6 L 171.3 62.7 L 174.1 67.4 L 177.0 71.5 L 179.9 75.0 L 182.9 78.1 L 185.9 80.6 L 188.9 82.7 L 192.0 85.0 L 181.0 93.3 L 177.4 89.8 Z " />
</g>
</svg>
