<svg xmlns="http://www.w3.org/2000/svg" xmlns:xlink="http://www.w3.org/1999/xlink" version="1.1" baseProfile="full" viewBox="0 0 200 200" width="200" height="200">
<g fill="black">
<path d="M 150.9 183.1 L 140.0 179.6 L 130.3 175.3 L 122.0 170.2 L 114.9 164.3 L 109.4 157.5 L 105.3 150.1 L 103.631067943573 144.53689317703248 L 102.2 148.7 L 97.0 157.3 L 90.1 164.7 L 81.6 171.0 L 71.5 176.3 L 60.0 180.5 L 46.9 183.7 L 32.2 185.9 L 16.0 186.9 L 15.9 185.2 L 31.6 182.1 L 45.6 178.5 L 57.8 174.3 L 68.2 169.5 L 76.8 164.0 L 83.6 158.0 L 88.8 151.5 L 92.3 144.5 L 94.3 136.8 L 94.9 128.4 L 94.92939739227295 128.40048999786376 L 95.0 126.0 L 106.9 128.6 L 109.9 130.7 L 106.35091934204101 132.7181046485901 L 105.69042730331421 137.67179489135742 L 106.9 140.8 L 110.5 147.4 L 115.0 153.1 L 119.1731517791748 156.8178988456726 L 123.1 154.2 L 127.5 151.4 L 131.8 148.7 L 135.9 146.2 L 139.9 143.7 L 143.6 141.3 L 147.2 138.9 L 150.6 136.6 L 153.9 134.3 L 156.15361366271972 132.5722294807434 L 156.1 132.5 L 156.1616291999817 132.5660842895508 L 156.9 132.0 L 159.50389890670778 136.1499638557434 L 164.4 141.4 L 164.6 144.9 L 160.8922329902649 143.40388345718384 L 159.7 144.0 L 155.9 145.8 L 152.0 147.6 L 147.9 149.4 L 143.6 151.1 L 139.2 152.8 L 134.5 154.5 L 129.7 156.1 L 124.6 157.5 L 121.04831600189209 158.37116775512695 L 127.0 162.4 L 134.7 166.1 L 143.5 169.1 L 153.6 171.6 L 164.9 173.4 L 177.5 174.5 L 188.3 175.4 L 176.4 187.7 L 163.0 185.8 Z M 35.1 162.4 L 35.4 157.8 L 38.7 154.6 L 42.0 153.6 L 45.1 152.4 L 48.0 151.1 L 50.6 149.6 L 53.0 147.8 L 55.1 145.8 L 57.1 143.6 L 59.0 141.0 L 60.7 138.2 L 61.9 134.9 L 63.7 135.2 L 63.4 138.9 L 63.0 142.6 L 62.1 146.2 L 60.7 149.6 L 58.8 152.9 L 56.4 156.0 L 53.6 158.8 L 50.4 161.4 L 46.8 163.8 L 42.9 165.9 L 38.3 165.7 Z M 123.4 84.1 L 152.5 84.1 L 158.5 79.1 L 169.5 88.1 L 164.5 92.1 L 164.5 120.8 L 152.5 126.8 L 152.5 118.8 L 123.4 118.8 L 123.4 130.8 L 111.4 136.8 L 111.4 78.1 Z M 47.4 84.1 L 76.5 84.1 L 82.5 79.1 L 93.5 88.1 L 88.5 92.1 L 88.5 124.8 L 76.5 130.8 L 76.5 118.8 L 47.4 118.8 L 47.4 130.8 L 35.4 136.8 L 35.4 78.1 Z M 123.4 103.0 L 123.4 114.8 L 152.5 114.8 L 152.5 103.0 Z M 47.4 103.0 L 47.4 114.8 L 76.5 114.8 L 76.5 103.0 Z M 123.4 88.1 L 123.4 99.0 L 152.5 99.0 L 152.5 88.1 Z M 47.4 88.1 L 47.4 99.0 L 76.5 99.0 L 76.5 88.1 Z M 161.0 68.4 L 161.0 72.4 L 37.0 72.4 L 37.0 68.4 L 146.7777777671814 68.4 L 153.0 61.4 Z M 161.1 62.6 L 152.3 58.9 L 143.8 54.9 L 135.5 50.4 L 127.5 45.4 L 125.77272729873657 44.19545450210571 L 132.0 49.8 L 132.0 53.8 L 66.0 53.8 L 66.0 50.65 L 60.1 53.6 L 49.8 58.2 L 38.7 62.4 L 26.8 66.2 L 14.2 69.5 L 13.7 67.8 L 25.5 62.6 L 36.6 57.4 L 47.0 52.2 L 56.6 46.9 L 65.4 41.5 L 73.4 35.9 L 80.6 30.2 L 87.1 24.3 L 92.7 18.3 L 97.02451238632202 12.916423320770264 L 97.0 12.9 L 98.1 11.6 L 107.0 19.6 L 108.2 23.0 L 105.07635278701783 22.623008060455323 L 108.2 24.6 L 116.0 29.4 L 123.8 34.0 L 131.7 38.2 L 139.8 42.1 L 148.0 45.6 L 156.4 48.7 L 164.9 51.4 L 173.6 53.8 L 182.5 55.8 L 191.2 57.8 L 179.4 68.6 L 170.1 65.8 Z M 101.0 26.1 L 94.3 32.2 L 86.8 38.1 L 78.6 43.6 L 69.7 48.8 L 67.7 49.8 L 113.81818180084228 49.8 L 121.57467060089111 41.26786241531372 L 119.9 40.1 L 112.5 34.2 L 105.6 27.9 L 102.45994062423706 24.51839761734009 Z " />
</g>
</svg>
