<svg xmlns="http://www.w3.org/2000/svg" xmlns:xlink="http://www.w3.org/1999/xlink" version="1.1" baseProfile="full" viewBox="0 0 200 200" width="200" height="200">
<g fill="black">
<path d="M 99.3 175.6 L 98.7 172.4 L 97.9 169.1 L 96.8 165.8 L 95.6 162.5 L 94.2 159.0 L 92.7 155.5 L 91.0 151.8 L 88.9 148.2 L 90.3 147.1 L 93.3 150.0 L 96.4 152.9 L 99.1 155.9 L 101.6 159.1 L 103.9 162.3 L 106.0 165.7 L 107.8 169.1 L 109.4 172.6 L 110.7 176.1 L 111.9 179.7 L 111.08928079605103 183.01657876968383 L 114.5 181.2 L 123.3 176.3 L 131.6 171.2 L 139.5 165.9 L 147.0 160.4 L 154.0 154.7 L 160.6 148.7 L 166.7 142.4 L 172.4 135.9 L 177.0431456565857 129.82819414138794 L 177.0 129.8 L 178.0 128.5 L 187.1 136.4 L 188.2 139.8 L 184.4856252670288 139.35171337127684 L 180.9 143.4 L 174.3 150.0 L 167.2 156.2 L 159.8 162.0 L 151.9 167.4 L 143.6 172.4 L 134.8 177.0 L 125.6 181.1 L 116.0 184.7 L 105.9 187.8 L 105.3819766998291 186.33226747512816 L 102.6 185.7 L 100.1 181.8 L 99.8 178.7 Z M 13.5 185.7 L 12.2 181.3 L 14.2 177.2 L 15.6 176.3 L 17.1 175.0 L 18.6 173.2 L 20.1 170.9 L 21.5 168.0 L 22.9 164.7 L 24.1 161.0 L 25.3 156.7 L 26.4 152.1 L 27.2 146.9 L 29.0 147.0 L 29.4 152.2 L 29.7 157.2 L 29.8 161.8 L 29.6 166.2 L 29.1 170.2 L 28.3 174.0 L 27.3 177.5 L 25.9 180.7 L 24.2 183.7 L 22.0 186.4 L 17.6 187.7 Z M 71.8 173.6 L 71.6 170.7 L 71.2 167.8 L 70.7 164.8 L 70.0 161.7 L 69.1 158.7 L 68.1 155.5 L 67.0 152.2 L 65.4 149.1 L 66.9 148.0 L 69.3 150.7 L 71.8 153.3 L 74.1 156.1 L 76.1 159.0 L 77.9 162.0 L 79.5 165.2 L 80.8 168.4 L 82.0 171.7 L 82.9 175.1 L 83.6 178.6 L 82.1 182.9 L 78.0 184.9 L 73.7 183.4 L 71.7 179.3 L 71.8 176.5 Z M 50.1 184.9 L 46.1 182.9 L 44.5 178.6 L 45.0 175.7 L 45.4 172.9 L 45.6 170.0 L 45.7 167.2 L 45.6 164.2 L 45.4 161.3 L 45.0 158.3 L 44.6 155.2 L 44.0 152.1 L 43.0 149.1 L 44.6 148.2 L 46.5 151.0 L 48.5 153.7 L 50.2 156.5 L 51.7 159.5 L 53.1 162.6 L 54.2 165.8 L 55.1 169.0 L 55.7 172.4 L 56.2 175.8 L 56.5 179.3 L 54.5 183.4 Z M 173.7 107.2 L 175.0 110.6 L 171.15601110458374 110.33939056396484 L 169.0 113.0 L 164.0 118.6 L 158.7 123.9 L 153.2 129.0 L 147.4 133.8 L 141.3 138.4 L 134.8 142.8 L 128.1 146.8 L 121.1 150.5 L 113.7 153.7 L 112.8 152.2 L 119.1 147.2 L 125.1 142.4 L 130.9 137.5 L 136.5 132.5 L 141.7 127.5 L 146.7 122.3 L 151.4 117.0 L 155.9 111.6 L 160.0 106.0 L 163.33755865097046 101.12202959060669 L 163.3 101.1 L 164.4 99.6 Z M 15.1 133.5 L 27.1 133.5 L 28.4 133.4 L 29.3 133.2 L 30.2 132.9 L 30.4 132.7 L 30.5 132.5 L 30.7 132.2 L 30.9 131.6 L 31.1 130.7 L 31.1 118.87600002288818 L 30.4 119.1 L 25.3 120.6 L 20.0 122.1 L 18.673297786712645 122.41939125061035 L 17.1 126.0 L 14.6 123.4 L 10.5 112.0 L 12.4 111.6 L 17.8 110.9 L 23.0 110.1 L 28.1 109.3 L 31.1 108.81999998092651 L 31.1 93.5 L 39.40769233703613 94.88461542129517 L 39.7 94.3 L 40.7 92.4 L 41.7 90.4 L 44.42380952835083 85.2 L 14.3 85.2 L 14.3 81.2 L 46.1 81.2 L 46.746153831481934 80.6615385055542 L 47.3 79.6 L 47.678947353363036 79.88421049118043 L 52.1 76.2 L 63.1 85.2 L 58.1 88.2 L 53.155172443389894 90.26034479141235 L 53.0 90.4 L 51.1 92.1 L 49.2 93.7 L 47.2 95.2 L 45.3 96.5 L 44.945569610595705 96.73037977218628 L 46.1 97.5 L 43.1 99.3 L 43.1 106.6375 L 47.6 105.7 L 52.2 104.8 L 56.8 104.0 L 61.4 103.4 L 62.0 105.0 L 58.1 107.6 L 53.9 109.9 L 49.6 112.0 L 45.0 113.9 L 43.1 114.62765960693359 L 43.1 129.5 L 43.0 132.0 L 42.5 134.5 L 41.7 136.9 L 40.5 139.2 L 38.9 141.2 L 36.9 142.8 L 34.6 144.1 L 32.2 144.9 L 29.7 145.3 L 27.1 145.5 L 27.1 139.5 L 15.1 136.5 Z M 78.03849258422852 101.53297443389893 L 75.2 110.9 L 71.5 119.8 L 67.2 127.8 L 62.3 134.6 L 56.6 140.3 L 50.4 144.7 L 49.3 143.2 L 53.9 137.7 L 57.9 131.5 L 61.4 124.6 L 64.5 116.9 L 67.1 108.4 L 69.1 98.9 L 70.7 88.5 L 70.92934169769288 85.90843839645386 L 69.2 83.0 L 66.7 79.3 L 64.1 75.5 L 61.1 71.8 L 62.3 70.4 L 66.4 73.1 L 70.3 75.9 L 71.70370931625366 77.10874977111817 L 72.2 64.9 L 72.2 50.7 L 59.3 50.7 L 59.3 48.81999998092651 L 55.7 51.7 L 55.7 67.2 L 43.7 73.2 L 43.7 67.2 L 28.1 67.2 L 16.1 73.2 L 16.1 37.7 L 28.1 43.7 L 43.7 43.7 L 49.7 38.7 L 59.477777767181394 46.7 L 72.2 46.7 L 72.2 14.0 L 84.2 16.0 L 87.2 18.0 L 84.2 19.8 L 84.2 46.7 L 90.6 46.7 L 96.6 41.7 L 107.6 50.7 L 102.62983293533325 53.682100200653075 L 102.7 65.4 L 103.1 80.3 L 103.7 93.4 L 104.7 104.7 L 105.8 114.2 L 106.80786237716674 119.59926290512085 L 109.9 106.2 L 111.9 106.2 L 110.04934501647949 130.25851526260377 L 110.2 130.6 L 110.9 131.5 L 109.97518796920777 131.22255640029908 L 109.9744680404663 131.2319149017334 L 114.1 133.0 L 115.9 137.2 L 114.1 141.4 L 109.9 143.2 L 103.8 141.1 L 99.9 136.8 L 97.4 131.2 L 95.5 124.4 L 94.0 116.0 L 92.7 105.9 L 91.8 94.2 L 91.1 80.8 L 90.7 65.6 L 90.65902605056763 58.67540578842163 L 90.6 58.7 L 90.6 50.7 L 84.2 50.7 L 84.2 51.7 L 83.6 65.4 L 82.4 78.2 L 81.07543773651123 86.9568284034729 L 83.0 89.5 L 85.5 93.3 L 87.8 97.3 L 89.8 101.4 L 91.5 105.7 L 90.9 110.2 L 87.4 113.1 L 82.8 112.5 L 80.0 109.0 L 79.1 105.2 Z M 161.0 82.1 L 162.4 85.4 L 158.5525191307068 85.2673282623291 L 157.6 86.5 L 153.9 90.8 L 150.0 94.9 L 145.9 98.8 L 141.5 102.5 L 137.0 106.0 L 132.2 109.4 L 127.2 112.5 L 121.9 115.3 L 116.3 117.7 L 115.3 116.2 L 119.7 112.1 L 124.0 108.1 L 128.1 104.2 L 132.0 100.3 L 135.7 96.3 L 139.2 92.3 L 142.5 88.2 L 145.5 84.0 L 148.4 79.8 L 150.5725209236145 76.34005918502808 L 150.5 76.3 L 151.6 74.7 Z M 171.5 74.5 L 167.8 69.4 L 164.2 63.8 L 160.8 57.7 L 157.7 51.2 L 154.7 44.2 L 152.0 36.8 L 150.5419906616211 31.939968872070313 L 148.2 37.7 L 144.4 46.2 L 140.3 54.2 L 135.9 61.6 L 131.3 68.5 L 126.5 74.9 L 121.4 80.6 L 115.9 85.6 L 110.2 89.9 L 109.0 88.6 L 113.2 83.0 L 117.2 77.2 L 121.1 71.0 L 124.9 64.5 L 128.5 57.5 L 131.9 50.1 L 135.2 42.2 L 138.2 33.8 L 141.1 24.9 L 143.53646669387817 16.507726001739503 L 143.5 16.5 L 144.3 14.0 L 155.3 19.0 L 157.6 21.8 L 153.97001209259034 22.75525999069214 L 152.79062595367432 26.085291385650635 L 153.4 27.2 L 157.4 34.4 L 161.2 41.0 L 165.0 47.2 L 168.8 52.9 L 172.7 58.0 L 176.5 62.6 L 180.4 66.7 L 184.2 70.3 L 188.1 73.4 L 190.5 75.4 L 179.6 83.5 L 175.5 79.2 Z M 28.1 47.7 L 28.1 63.2 L 43.7 63.2 L 43.7 47.7 Z M 10.7 31.0 L 29.9 31.0 L 29.9 12.5 L 41.9 14.5 L 44.9 16.5 L 41.9 18.3 L 41.9 31.0 L 45.31818180084228 31.0 L 53.5 22.0 L 63.5 31.0 L 63.5 35.0 L 10.7 35.0 Z " />
</g>
</svg>
