<svg xmlns="http://www.w3.org/2000/svg" xmlns:xlink="http://www.w3.org/1999/xlink" version="1.1" baseProfile="full" viewBox="0 0 200 200" width="200" height="200">
<g fill="black">
<path d="M 146.2 45.0 L 149.2 47.0 L 146.2 48.8 L 146.2 182.0 L 134.2 188.0 L 134.2 43.0 Z M 118.81176471710205 41.20588235855102 L 119.8 40.8 L 125.3 38.6 L 130.9 36.4 L 141.9 31.6 L 147.4 29.0 L 152.9 26.3 L 158.3 23.4 L 163.7 20.4 L 168.26349039077758 17.695709419250488 L 168.2 17.6 L 168.28490562438964 17.68301887512207 L 169.1 17.2 L 170.63741369247435 19.98324899673462 L 177.2 26.4 L 177.3 29.8 L 173.68362941741944 28.267639636993408 L 168.9 30.5 L 162.9 33.1 L 162.03753213882447 33.44498710632324 L 163.9 53.4 L 166.0 74.0 L 168.2 92.8 L 170.5 109.8 L 173.0 125.0 L 175.7 138.4 L 178.5 149.8 L 181.6 159.4 L 184.8 167.0 L 188.0 172.5 L 178.1 181.6 L 176.7 179.4 L 173.3 171.9 L 170.3 163.0 L 167.8 152.4 L 165.6 140.3 L 163.7 126.4 L 162.2 110.8 L 161.0 93.5 L 160.1 74.4 L 159.8 53.6 L 159.9710479736328 34.27158079147339 L 156.9 35.5 L 150.9 37.6 L 144.9 39.5 L 138.9 41.2 L 132.8 42.6 L 126.8 43.8 L 120.7 44.5 L 120.4 44.514754104614255 L 120.4 106.0 L 119.8 117.1 L 118.7 127.7 L 117.0 137.6 L 114.8 146.9 L 112.0 155.5 L 108.6 163.4 L 104.7 170.7 L 100.1 177.2 L 95.0 182.8 L 89.2 187.6 L 88.0 186.3 L 92.0 180.4 L 95.6 174.2 L 98.8 167.6 L 101.6 160.5 L 103.9 152.9 L 105.7 144.7 L 107.1 135.9 L 108.0 126.6 L 108.4 116.6 L 108.4 36.0 Z M 66.0 161.0 L 76.0 161.0 L 77.3 160.9 L 78.2 160.7 L 79.1 160.4 L 79.3 160.2 L 79.4 160.0 L 79.6 159.7 L 79.8 159.1 L 80.0 158.2 L 80.0 114.0 L 62.0 114.0 L 62.0 181.0 L 50.0 187.0 L 50.0 114.0 L 31.9 114.0 L 31.9 170.0 L 19.9 176.0 L 19.9 104.0 L 31.9 110.0 L 50.0 110.0 L 50.0 83.0 L 62.0 85.0 L 65.0 87.0 L 62.0 88.8 L 62.0 110.0 L 80.0 110.0 L 86.0 105.0 L 97.0 114.0 L 92.0 118.0 L 92.0 157.0 L 91.9 159.5 L 91.5 162.0 L 90.7 164.4 L 89.4 166.7 L 87.8 168.7 L 85.8 170.3 L 83.5 171.6 L 81.1 172.4 L 78.6 172.8 L 76.0 173.0 L 76.0 167.0 L 66.0 164.0 Z M 76.3 90.5 L 68.7 86.4 L 61.7 81.7 L 55.80289840698242 76.63217830657959 L 52.5 79.6 L 45.2 84.9 L 37.4 89.4 L 29.1 92.9 L 20.4 95.4 L 11.3 96.8 L 10.9 95.1 L 19.2 91.8 L 26.9 88.0 L 34.1 83.7 L 40.8 78.8 L 46.9 73.3 L 49.696776962280275 70.2035683631897 L 49.6 70.1 L 44.5 63.3 L 40.2 55.9 L 36.7 47.9 L 34.33908042907715 40.0 L 14.6 40.0 L 14.6 36.0 L 50.0 36.0 L 50.0 12.0 L 62.0 14.0 L 65.0 16.0 L 62.0 17.8 L 62.0 36.0 L 75.3 36.0 L 85.3 26.0 L 97.3 36.0 L 97.3 40.0 L 81.49090909957886 40.0 L 81.4 40.2 L 76.7 49.7 L 71.5 58.4 L 65.7 66.3 L 62.53724327087402 69.86437664031982 L 67.5 73.2 L 74.0 76.7 L 80.9 79.6 L 88.2 81.8 L 96.1 83.5 L 105.1 85.4 L 93.4 96.4 L 84.6 93.8 Z M 40.4 46.0 L 45.2 52.8 L 50.3 58.9 L 54.99549074172974 63.772679042816165 L 57.6 60.3 L 62.3 52.8 L 66.5 44.6 L 68.4515151977539 40.0 L 36.63999996185303 40.0 Z " />
</g>
</svg>
