<svg xmlns="http://www.w3.org/2000/svg" xmlns:xlink="http://www.w3.org/1999/xlink" version="1.1" baseProfile="full" viewBox="0 0 200 200" width="200" height="200">
<g fill="black">
<path d="M 127.6 175.4 L 148.8 175.4 L 149.7 175.2 L 150.3 175.0 L 150.6 174.8 L 150.8 174.7 L 151.0 174.5 L 151.2 174.2 L 151.3 173.6 L 151.5 172.7 L 151.6 171.4 L 151.6 82.7 L 161.1488151550293 84.29146919250488 L 161.5 83.7 L 163.3 80.6 L 164.9 77.7 L 166.4 74.9 L 167.8 72.4 L 168.6 70.8 L 33.14399995803833 70.8 L 33.2 73.6 L 32.9 78.2 L 32.1 82.6 L 31.0 86.7 L 29.4 90.4 L 27.3 93.9 L 24.7 97.0 L 21.6 99.7 L 17.1 100.3 L 13.4 97.6 L 12.8 93.1 L 15.4 89.4 L 17.4 88.4 L 19.3 87.0 L 21.2 85.2 L 22.9 82.9 L 24.6 80.0 L 26.1 76.6 L 27.4 72.7 L 28.5 68.3 L 29.5 63.3 L 30.1 57.8 L 31.9 57.8 L 32.6 63.4 L 32.92692308425903 66.8 L 133.10714282989503 66.8 L 132.4 65.9 L 135.1 63.1 L 137.6 60.1 L 139.9 57.1 L 142.1 54.2 L 144.1 51.2 L 146.0 48.2 L 147.8 45.2 L 149.4 42.1 L 150.8 39.0 L 151.78994283676147 36.737273597717284 L 151.7 36.7 L 152.7 34.8 L 162.8 41.3 L 164.6 44.5 L 160.5193832397461 44.707489013671875 L 158.2 47.8 L 155.6 50.8 L 152.9 53.7 L 150.1 56.4 L 147.0 59.0 L 143.9 61.3 L 140.5 63.5 L 134.42105264663695 66.8 L 170.0 66.8 L 170.64799995422362 66.26000003814697 L 170.9 65.7 L 171.14020385742188 65.84983015060425 L 176.0 61.8 L 187.0 70.8 L 182.0 73.8 L 177.8239999771118 75.53999996185303 L 177.5 75.9 L 175.5 78.0 L 173.3 80.2 L 171.0 82.4 L 168.5 84.8 L 166.46428575515748 86.60952377319336 L 166.6 86.7 L 165.8692307472229 87.1384614944458 L 165.8 87.2 L 163.6 89.09655170440674 L 163.6 171.4 L 163.4 174.0 L 163.0 176.5 L 162.2 178.9 L 161.0 181.1 L 159.3 183.2 L 157.3 184.8 L 155.0 186.0 L 152.6 186.8 L 150.1 187.3 L 147.6 187.4 L 147.6 181.4 L 127.6 178.4 Z M 47.4 90.4 L 78.9 90.4 L 84.9 85.4 L 95.9 94.4 L 90.9 98.4 L 90.9 174.4 L 78.9 180.4 L 78.9 168.4 L 47.4 168.4 L 47.4 180.4 L 35.4 186.4 L 35.4 84.4 Z M 123.2 93.5 L 126.2 95.5 L 123.2 97.3 L 123.2 160.9 L 111.2 166.9 L 111.2 91.5 Z M 47.4 142.7 L 47.4 164.4 L 78.9 164.4 L 78.9 142.7 Z M 47.4 118.6 L 47.4 138.7 L 78.9 138.7 L 78.9 118.6 Z M 47.4 94.4 L 47.4 114.6 L 78.9 114.6 L 78.9 94.4 Z M 51.1 58.1 L 50.1 56.1 L 48.9 54.1 L 47.4 51.9 L 45.5 49.8 L 43.5 47.5 L 41.1 45.2 L 38.5 42.8 L 35.4 40.7 L 36.3 39.1 L 39.8 40.5 L 43.3 41.7 L 46.5 43.1 L 49.6 44.6 L 52.4 46.3 L 55.0 48.1 L 57.4 50.0 L 59.5 52.1 L 61.5 54.3 L 63.2 56.8 L 63.3 61.3 L 60.2 64.7 L 55.6 64.8 L 52.2 61.7 L 51.8 59.9 Z M 97.2 53.2 L 96.5 51.4 L 95.7 49.6 L 94.7 47.8 L 93.6 45.9 L 92.3 44.0 L 90.9 42.0 L 89.3 40.0 L 87.3 38.4 L 88.3 36.9 L 90.6 38.1 L 93.1 39.0 L 95.5 40.1 L 97.8 41.3 L 100.0 42.7 L 102.0 44.2 L 103.9 45.8 L 105.7 47.6 L 107.4 49.4 L 109.0 51.4 L 109.2 56.0 L 106.3 59.5 L 101.7 59.7 L 98.2 56.7 L 97.8 55.0 Z M 166.0380711555481 16.42140874862671 L 176.8 25.3 L 177.2 28.3 L 172.77355375289918 26.08677682876587 L 168.1 27.0 L 154.4 29.2 L 140.5 31.1 L 126.4 32.8 L 112.1 34.1 L 97.6 35.2 L 82.9 35.9 L 67.9 36.3 L 52.8 36.4 L 37.5 36.0 L 22.0 35.1 L 22.0 33.3 L 37.4 32.2 L 52.6 31.0 L 67.6 29.7 L 82.3 28.3 L 96.8 26.7 L 111.1 24.9 L 125.1 22.8 L 138.9 20.5 L 152.5 18.0 L 164.8028253555298 15.409931468963624 L 164.8 15.4 L 164.81016521453859 15.40838623046875 L 165.8 15.2 Z " />
</g>
</svg>
