<svg xmlns="http://www.w3.org/2000/svg" xmlns:xlink="http://www.w3.org/1999/xlink" version="1.1" baseProfile="full" viewBox="0 0 200 200" width="200" height="200">
<g fill="black">
<path d="M 13.5 126.0 L 19.5 123.9 L 25.7 121.8 L 32.1 119.6 L 38.8 117.3 L 45.7 114.9 L 47.2 114.4 L 47.2 66.0 L 29.771052646636964 66.0 L 28.5 70.2 L 26.0 77.6 L 23.3 84.8 L 20.3 91.6 L 16.9 98.2 L 13.1 104.3 L 11.4 103.6 L 13.4 96.7 L 15.2 89.8 L 17.1 82.7 L 18.8 75.5 L 20.3 68.2 L 21.7 60.6 L 22.9 52.8 L 23.9 44.9 L 24.7 36.7 L 25.23489809036255 29.300576782226564 L 25.2 29.3 L 25.5 26.2 L 37.3 29.5 L 40.1 31.8 L 36.71794214248657 33.39531030654907 L 36.0 38.2 L 34.5 46.5 L 32.7 54.7 L 30.944303798675538 62.0 L 47.2 62.0 L 47.2 13.0 L 59.2 15.0 L 62.2 17.0 L 59.2 18.8 L 59.2 62.0 L 64.2 62.0 L 74.2 52.0 L 86.2 62.0 L 86.2 66.0 L 59.2 66.0 L 59.2 110.45675678253174 L 60.3 110.1 L 67.9 107.7 L 75.9 105.3 L 84.1 103.1 L 84.8 104.8 L 77.3 108.9 L 69.9 112.7 L 62.7 116.2 L 59.2 117.9 L 59.2 183.0 L 47.2 189.0 L 47.2 123.59848480224609 L 42.3 125.9 L 35.9 128.9 L 29.7 131.7 L 23.8 134.5 L 21.800246143341063 135.4121684074402 L 21.0 139.2 L 18.1 137.1 L 11.7 126.8 Z M 134.4 54.2 L 132.50525636672972 58.44562931060791 L 134.3 68.0 L 138.1 85.0 L 142.3 100.7 L 145.59993591308594 110.81044206619262 L 146.2 109.9 L 149.1 105.7 L 151.9 101.6 L 154.8 97.6 L 157.5 93.7 L 162.7 86.1 L 165.1 82.5 L 167.4 78.8 L 169.07066345214844 76.14212627410889 L 169.0 76.1 L 170.1 74.6 L 179.4 82.3 L 180.6 85.6 L 176.734285736084 85.33339900970459 L 176.5 85.6 L 173.6 89.0 L 170.5 92.3 L 163.9 99.1 L 160.4 102.5 L 156.7 105.8 L 152.9 109.2 L 148.8 112.4 L 146.64273653030395 114.00540542602539 L 147.0 115.1 L 152.3 128.2 L 158.1 140.1 L 164.5 150.6 L 171.4 159.9 L 178.8 168.0 L 186.8 174.8 L 189.3 176.9 L 178.4 185.1 L 169.8 176.7 L 162.1 167.2 L 155.1 156.5 L 149.0 144.6 L 143.6 131.7 L 139.1 117.6 L 135.3 102.4 L 132.3 86.1 L 130.2 68.6 L 129.93948135375976 64.19486589431763 L 129.0 66.3 L 123.3 77.7 L 117.3 88.3 L 111.1 98.2 L 106.02987012863159 105.4883116722107 L 109.1 106.0 L 112.1 108.0 L 109.1 109.8 L 109.1 162.3774193763733 L 110.0 162.0 L 116.4 159.4 L 122.9 156.8 L 129.6 154.2 L 136.4 151.6 L 143.5 149.1 L 144.3 150.8 L 138.1 155.0 L 132.0 159.0 L 125.8 162.7 L 119.7 166.3 L 113.7 169.7 L 107.8 173.0 L 101.9 176.1 L 96.2 179.2 L 90.5 182.2 L 88.636923122406 183.1315384864807 L 88.0 186.9 L 84.9 185.0 L 78.2 174.9 L 80.0 174.1 L 85.8 171.8 L 91.7 169.5 L 97.1 167.25 L 97.1 116.56857147216797 L 90.9 123.3 L 83.6 130.0 L 76.0 135.8 L 68.1 140.7 L 67.1 139.2 L 73.5 132.9 L 79.9 126.2 L 86.0 118.9 L 91.9 111.0 L 97.7 102.5 L 103.2 93.3 L 108.6 83.5 L 113.7 72.9 L 118.6 61.7 L 121.53711338043213 54.0 L 79.4 54.0 L 79.4 50.0 L 122.9 50.0 L 122.9 14.0 L 134.9 16.0 L 137.9 18.0 L 134.9 19.8 L 134.9 50.0 L 162.8 50.0 L 172.8 40.0 L 184.8 50.0 L 184.8 54.0 L 134.48181819915771 54.0 Z " />
</g>
</svg>
