<svg xmlns="http://www.w3.org/2000/svg" xmlns:xlink="http://www.w3.org/1999/xlink" version="1.1" baseProfile="full" viewBox="0 0 200 200" width="200" height="200">
<g fill="black">
<path d="M 154.6 174.3 L 144.6 167.4 L 135.4 159.6 L 133.51986322402954 157.5822922706604 L 133.3 157.8 L 122.1 166.7 L 109.9 174.2 L 96.8 180.5 L 82.8 185.4 L 67.9 188.8 L 67.5 187.1 L 81.5 181.8 L 94.5 175.6 L 106.5 168.6 L 117.5 160.6 L 127.4 151.6 L 127.6679901123047 151.30223321914673 L 127.2 150.8 L 119.9 141.2 L 113.7 130.7 L 108.4 119.4 L 104.3 107.2 L 101.48461542129516 95.0 L 90.8 95.0 L 90.8 91.0 L 127.4 91.0 L 127.4 54.0 L 89.0 54.0 L 89.0 50.0 L 127.4 50.0 L 127.4 14.0 L 139.4 16.0 L 142.4 18.0 L 139.4 19.8 L 139.4 50.0 L 165.9 50.0 L 175.9 40.0 L 187.9 50.0 L 187.9 54.0 L 139.4 54.0 L 139.4 91.0 L 162.5 91.0 L 168.5 86.0 L 179.5 95.0 L 174.5 98.0 L 172.58966445922852 98.79597311019897 L 168.0 109.9 L 160.9 123.7 L 152.7 136.3 L 143.5 147.7 L 140.67001714706421 150.50223789215087 L 142.2 151.9 L 151.0 158.4 L 160.5 164.0 L 170.7 168.8 L 181.7 172.7 L 189.1 175.2 L 177.5 185.2 L 165.6 180.2 Z M 63.6 180.6 L 61.9 182.3 L 60.0 183.8 L 57.9 185.1 L 55.8 186.1 L 53.5 186.9 L 51.1 187.5 L 48.7 187.8 L 46.2 188.0 L 46.2 182.0 L 32.2 179.0 L 32.2 176.0 L 46.2 176.0 L 47.6 175.9 L 48.9 175.7 L 50.1 175.4 L 51.1 175.1 L 52.1 174.6 L 53.0 174.0 L 53.9 173.3 L 54.8 172.5 L 55.6 171.5 L 56.4 170.3 L 59.5 163.8 L 62.3 153.2 L 64.3 139.5 L 64.9 123.6 L 63.8 106.1 L 62.801584815979005 100.35911254882812 L 61.7 102.3 L 57.2 109.4 L 52.2 116.2 L 46.9 122.8 L 41.1 129.1 L 35.0 135.0 L 28.4 140.7 L 21.4 145.9 L 13.9 150.7 L 12.8 149.2 L 18.9 143.0 L 24.7 136.8 L 30.2 130.5 L 35.4 124.1 L 40.2 117.6 L 44.6 110.9 L 48.6 104.1 L 52.3 97.1 L 55.6 90.0 L 58.5 82.7 L 59.13931550979614 82.95918197631836 L 54.9 69.2 L 51.86513299942017 62.77737445831299 L 45.7 68.6 L 38.3 74.9 L 30.5 80.5 L 22.3 85.5 L 13.8 89.7 L 12.9 88.2 L 20.2 82.3 L 27.2 76.3 L 33.9 69.9 L 40.4 63.2 L 46.6 56.1 L 47.918128967285156 54.42441234588623 L 46.3 51.0 L 34.6 33.7 L 19.7 17.3 L 20.8 15.8 L 38.6 30.2 L 52.2 47.4 L 52.69222793579102 48.32538862228394 L 58.1 40.6 L 63.4 32.2 L 68.4 23.4 L 72.72923154830933 15.012113952636719 L 72.7 15.0 L 73.7 13.0 L 83.8 19.6 L 85.6 22.8 L 81.83658084869384 22.99136028289795 L 78.3 29.1 L 72.4 38.0 L 66.2 46.5 L 59.7 54.4 L 57.30800638198853 57.003051948547366 L 62.2 66.2 L 69.0 85.6 L 69.31718292236329 87.08534440994262 L 69.6 87.2 L 69.4211480140686 87.57220544815064 L 73.1 104.8 L 74.9 123.3 L 74.8 140.3 L 73.2 155.2 L 70.5 167.4 L 66.6 176.7 L 65.2 178.7 Z M 108.2 105.7 L 113.8 116.9 L 119.9 127.0 L 126.7 136.3 L 133.94479026794434 144.32801084518434 L 136.4 141.6 L 144.4 130.6 L 151.5 118.5 L 157.6 105.3 L 161.34545450210572 95.0 L 103.56333332061767 95.0 Z " />
</g>
</svg>
