<svg xmlns="http://www.w3.org/2000/svg" xmlns:xlink="http://www.w3.org/1999/xlink" version="1.1" baseProfile="full" viewBox="0 0 200 200" width="200" height="200">
<g fill="black">
<path d="M 60.9 177.3 L 78.5 177.3 L 78.5 111.5 L 90.5 117.5 L 158.4 117.5 L 164.4 112.5 L 175.4 121.5 L 170.4 125.5 L 170.4 177.3 L 173.7777777671814 177.3 L 180.0 170.3 L 188.0 177.3 L 188.0 181.3 L 60.9 181.3 Z M 90.5 121.5 L 90.5 177.3 L 105.1 177.3 L 105.1 121.5 Z M 117.1 121.5 L 117.1 177.3 L 131.8 177.3 L 131.8 121.5 Z M 143.8 121.5 L 143.8 177.3 L 158.4 177.3 L 158.4 121.5 Z M 56.7 180.1 L 55.1 181.9 L 53.2 183.5 L 51.2 184.9 L 49.1 186.0 L 46.8 186.9 L 44.4 187.5 L 42.0 187.8 L 39.5 188.0 L 39.5 182.0 L 25.5 179.0 L 25.5 176.0 L 39.5 176.0 L 40.8 175.9 L 42.1 175.7 L 43.2 175.4 L 44.2 175.1 L 45.0 174.6 L 45.9 174.0 L 46.7 173.3 L 47.4 172.5 L 48.2 171.5 L 48.9 170.3 L 51.5 163.8 L 54.0 153.2 L 55.7 139.5 L 56.2 123.5 L 55.3 106.0 L 54.77234020233154 102.4040961265564 L 51.0 109.1 L 46.7 116.0 L 42.1 122.6 L 37.1 128.9 L 31.7 134.9 L 26.0 140.5 L 19.9 145.8 L 13.3 150.6 L 12.1 149.3 L 17.2 143.1 L 22.1 136.9 L 26.7 130.7 L 31.0 124.3 L 35.0 117.8 L 38.8 111.2 L 42.2 104.4 L 45.3 97.4 L 48.1 90.3 L 50.5 82.9 L 51.452029132843016 83.24239645004272 L 47.7 69.0 L 45.51767168045044 63.48355894088745 L 41.1 68.4 L 34.6 74.7 L 27.8 80.4 L 20.6 85.4 L 13.2 89.7 L 12.2 88.2 L 18.3 82.4 L 24.2 76.4 L 29.9 70.1 L 35.3 63.4 L 40.6 56.3 L 41.89293193817139 54.321022510528564 L 40.5 50.8 L 30.6 33.6 L 18.1 17.3 L 19.3 16.0 L 34.9 30.4 L 46.37262783050537 47.363800048828125 L 50.3 40.9 L 54.8 32.5 L 59.0 23.7 L 62.702790355682374 15.300987720489502 L 62.7 15.3 L 63.6 13.2 L 74.0 19.3 L 76.0 22.3 L 72.22083492279053 22.82126417160034 L 69.2 28.8 L 64.2 37.7 L 58.8 46.2 L 53.2 54.1 L 50.88096799850464 57.00861644744873 L 55.2 66.4 L 61.1 85.7 L 61.30352735519409 86.78547916412353 L 61.9 87.0 L 61.51150789260864 87.89470901489258 L 64.7 104.9 L 66.3 123.3 L 66.3 140.1 L 65.0 154.9 L 62.7 166.9 L 59.5 176.0 L 58.2 178.1 Z M 94.3 24.3 L 153.9 24.3 L 159.9 19.3 L 170.9 28.3 L 165.9 32.3 L 165.9 100.7 L 153.9 106.7 L 153.9 96.7 L 94.3 96.7 L 94.3 103.7 L 82.3 109.7 L 82.3 18.3 Z M 94.3 28.3 L 94.3 92.7 L 153.9 92.7 L 153.9 28.3 Z M 132.16172103881837 40.6029673576355 L 131.9 43.7 L 130.6 50.5 L 128.8 56.9 L 127.26484375 60.584375 L 127.3 60.6 L 130.9 62.1 L 134.2 63.8 L 137.4 65.7 L 140.4 67.8 L 143.2 70.0 L 145.8 72.3 L 148.3 74.8 L 150.6 77.4 L 152.6 80.1 L 153.1 84.7 L 150.3 88.3 L 145.7 88.7 L 142.1 85.9 L 141.1 83.4 L 139.9 80.9 L 138.5 78.4 L 136.8 75.9 L 135.0 73.4 L 133.0 70.8 L 130.8 68.3 L 128.4 65.7 L 126.08926706314087 63.300392627716064 L 123.3 68.6 L 119.6 73.7 L 115.3 78.4 L 110.5 82.6 L 105.1 86.1 L 99.1 89.1 L 98.2 87.6 L 102.8 83.1 L 106.8 78.7 L 110.3 74.1 L 113.3 69.4 L 115.8 64.5 L 117.7 59.5 L 119.1 54.2 L 120.1 48.6 L 120.5 42.7 L 120.5 34.2 L 132.5 36.6 L 135.5 38.6 Z " />
</g>
</svg>
