<svg xmlns="http://www.w3.org/2000/svg" xmlns:xlink="http://www.w3.org/1999/xlink" version="1.1" baseProfile="full" viewBox="0 0 200 200" width="200" height="200">
<g fill="black">
<path d="M 70.0 178.8 L 84.1 178.8 L 84.1 113.0 L 96.1 119.0 L 116.25 119.0 L 117.3 116.9 L 118.8 113.2 L 120.2 109.8 L 121.5 106.7 L 122.7 103.8 L 123.9 101.2 L 124.9 98.7 L 125.22727270126343 97.9 L 74.0 97.9 L 74.0 93.9 L 163.2 93.9 L 173.2 83.9 L 185.2 93.9 L 185.2 97.9 L 138.5625 97.9 L 137.4 99.1 L 136.0 100.5 L 134.5 102.1 L 132.9 103.8 L 131.1 105.8 L 129.1 107.9 L 127.0 110.3 L 124.7 112.8 L 122.2 115.5 L 119.5 118.3 L 118.953125 119.0 L 161.8 119.0 L 167.8 114.0 L 178.8 123.0 L 173.8 127.0 L 173.8 178.8 L 177.4 178.8 L 181.9 172.8 L 187.9 178.8 L 187.9 182.8 L 70.0 182.8 Z M 96.1 123.0 L 96.1 178.8 L 110.2 178.8 L 110.2 123.0 Z M 122.2 123.0 L 122.2 178.8 L 135.7 178.8 L 135.7 123.0 Z M 147.7 123.0 L 147.7 178.8 L 161.8 178.8 L 161.8 123.0 Z M 60.8 180.4 L 59.1 182.2 L 57.2 183.7 L 55.2 185.0 L 53.0 186.1 L 50.7 186.9 L 48.3 187.5 L 45.9 187.8 L 43.4 188.0 L 43.4 182.0 L 29.4 179.0 L 29.4 176.0 L 43.4 176.0 L 44.8 175.9 L 46.1 175.7 L 48.3 175.1 L 49.2 174.6 L 50.1 174.0 L 51.0 173.3 L 51.8 172.5 L 52.6 171.5 L 53.3 170.3 L 56.3 163.8 L 59.0 153.2 L 60.8 139.5 L 61.4 123.6 L 60.4 106.1 L 59.542635154724124 101.01112489700317 L 58.9 102.2 L 54.6 109.3 L 49.9 116.2 L 44.8 122.7 L 39.3 129.0 L 33.4 135.0 L 27.2 140.6 L 20.5 145.9 L 13.3 150.6 L 12.2 149.3 L 17.9 143.0 L 23.4 136.8 L 28.6 130.5 L 33.5 124.2 L 38.0 117.7 L 42.1 111.0 L 45.9 104.2 L 49.4 97.2 L 52.5 90.1 L 55.3 82.8 L 55.94985408782959 83.04949760437012 L 51.9 69.1 L 49.2129771232605 62.9870228767395 L 43.7 68.5 L 36.6 74.8 L 29.1 80.5 L 21.3 85.4 L 13.2 89.7 L 12.3 88.2 L 19.1 82.4 L 25.7 76.3 L 32.1 70.0 L 38.2 63.3 L 44.1 56.2 L 45.42492227554321 54.36919822692871 L 43.9 50.9 L 32.8 33.7 L 18.8 17.3 L 19.9 15.9 L 36.9 30.2 L 49.8 47.5 L 50.03182706832886 47.956333255767824 L 54.9 40.7 L 59.9 32.3 L 64.7 23.5 L 68.75421104431152 15.12129716873169 L 68.7 15.1 L 69.7 13.1 L 79.9 19.5 L 81.7 22.6 L 78.02998094558716 22.916380977630617 L 74.7 29.0 L 69.1 37.9 L 63.2 46.4 L 57.0 54.3 L 54.62700023651123 57.00156888961792 L 59.3 66.2 L 65.8 85.6 L 66.06972770690918 86.93480615615844 L 66.5 87.1 L 66.22288208007812 87.6927243232727 L 69.7 104.9 L 71.4 123.3 L 71.4 140.2 L 69.9 155.1 L 67.3 167.2 L 63.7 176.4 L 62.3 178.5 Z M 133.2 83.6 L 131.7 81.1 L 129.8 78.5 L 127.4 75.9 L 124.5 73.1 L 121.2 70.3 L 117.5 67.4 L 113.4 64.4 L 108.7 61.4 L 109.5 59.8 L 114.8 61.5 L 119.8 63.3 L 124.4 65.2 L 128.6 67.3 L 132.4 69.6 L 135.80506324768066 71.93490056991577 L 137.1 69.9 L 140.4 64.8 L 143.5 60.0 L 146.5 55.6 L 149.3 51.4 L 151.8 47.5 L 154.1 43.8 L 156.1 40.4 L 156.5064516067505 39.7 L 112.0 39.7 L 107.9 45.6 L 103.5 51.4 L 98.8 57.1 L 93.7 62.7 L 88.2 68.0 L 82.3 73.2 L 76.0 78.1 L 74.7 76.8 L 79.6 70.6 L 84.2 64.4 L 88.6 58.4 L 92.8 52.5 L 96.6 46.5 L 100.1 40.6 L 103.3 34.7 L 106.2 28.8 L 108.7 22.8 L 110.6438066482544 17.813713359832764 L 110.6 17.8 L 111.5 15.6 L 122.1 21.4 L 124.1 24.4 L 120.3 25.0 L 119.0 27.6 L 115.7 33.7 L 114.46666669845581 35.7 L 158.5 35.7 L 158.9 35.36666669845581 L 159.4 34.4 L 159.76992235183715 34.6417314529419 L 164.5 30.7 L 175.5 39.7 L 170.5 42.7 L 166.8744680404663 44.21063833236694 L 164.8 46.7 L 162.1 49.8 L 159.1 53.1 L 155.9 56.6 L 152.3 60.3 L 148.5 64.2 L 144.4 68.2 L 139.9 72.3 L 138.09864130020142 73.84402170181275 L 139.0 74.6 L 141.8 77.4 L 144.2 80.4 L 146.1 83.7 L 146.0 88.2 L 142.8 91.5 L 138.2 91.4 L 135.0 88.2 L 134.3 86.0 Z " />
</g>
</svg>
