<svg xmlns="http://www.w3.org/2000/svg" xmlns:xlink="http://www.w3.org/1999/xlink" version="1.1" baseProfile="full" viewBox="0 0 200 200" width="200" height="200">
<g fill="black">
<path d="M 168.0 180.8 L 161.7 177.6 L 155.6 174.1 L 149.9 170.1 L 144.6 165.8 L 139.7 161.1 L 135.2 156.0 L 131.2 150.5 L 128.19666662216187 145.2 L 126.69090909957886 145.2 L 123.0 148.1 L 118.6 151.5 L 113.8 154.6 L 108.5 157.5 L 104.7 159.3 L 104.7 172.26376810073853 L 111.1 171.8 L 117.9 171.2 L 124.8 170.7 L 131.8 170.2 L 138.8 169.9 L 145.8 169.8 L 146.1 171.5 L 139.4 173.6 L 132.6 175.5 L 125.8 177.2 L 119.1 178.7 L 112.3 180.2 L 105.6 181.5 L 98.8 182.9 L 92.1 184.2 L 82.78985137939453 185.86748933792114 L 81.1 189.3 L 78.7 186.6 L 75.2 174.9 L 77.2 174.7 L 83.9 174.1 L 90.7 173.5 L 92.7 173.32089548110963 L 92.7 164.09393939971923 L 90.1 165.0 L 83.1 167.1 L 75.6 168.9 L 67.6 170.4 L 59.2 171.5 L 58.7 169.8 L 66.6 166.7 L 74.0 163.8 L 80.9 160.9 L 87.3 158.0 L 93.2 155.0 L 98.6 152.0 L 103.4 148.9 L 107.8 145.7 L 108.375 145.2 L 60.5 145.2 L 60.5 141.42727270126343 L 59.5 154.7 L 57.4 166.7 L 54.5 175.6 L 53.3 177.8 L 51.9 179.9 L 50.3 181.7 L 48.5 183.4 L 46.5 184.8 L 44.4 186.0 L 42.1 186.9 L 39.7 187.5 L 37.2 187.8 L 34.7 188.0 L 34.7 182.0 L 20.7 179.0 L 20.7 176.0 L 34.7 176.0 L 36.1 175.9 L 37.3 175.7 L 38.4 175.4 L 39.3 175.1 L 40.2 174.6 L 40.9 174.1 L 41.7 173.4 L 42.4 172.5 L 43.1 171.5 L 43.8 170.3 L 46.2 163.8 L 48.5 153.2 L 50.1 139.5 L 50.6 123.5 L 49.7 105.9 L 49.3949390411377 103.56119966506958 L 46.6 109.0 L 42.6 115.8 L 38.3 122.4 L 33.7 128.7 L 28.7 134.7 L 23.4 140.4 L 17.7 145.7 L 11.5 150.6 L 10.3 149.3 L 14.9 143.1 L 19.3 137.0 L 23.5 130.8 L 27.4 124.4 L 31.1 118.0 L 34.5 111.3 L 37.6 104.6 L 40.4 97.6 L 43.0 90.4 L 45.2 83.1 L 46.32372179031372 83.46471672058105 L 42.8 68.9 L 40.9903507232666 63.90975513458252 L 37.3 68.3 L 31.3 74.6 L 25.0 80.3 L 18.4 85.3 L 11.5 89.7 L 10.4 88.2 L 15.9 82.5 L 21.3 76.5 L 26.4 70.2 L 31.4 63.5 L 36.2 56.5 L 37.51095886230469 54.315068531036374 L 36.2 50.7 L 27.2 33.5 L 15.8 17.3 L 17.1 16.0 L 31.6 30.5 L 41.854782009124754 46.9266414642334 L 45.1 41.1 L 49.2 32.7 L 53.1 23.9 L 56.7 14.6 L 56.75848264694214 14.623709201812744 L 57.3 13.3 L 67.8 19.1 L 69.9 22.1 L 66.14032068252564 22.683398532867432 L 63.4 28.6 L 58.7 37.6 L 53.8 46.0 L 48.6 54.0 L 46.31694250106811 57.07175006866455 L 50.3 66.5 L 55.8 85.8 L 55.93551301956177 86.58433322906494 L 56.6 86.8 L 56.16546974182129 87.9152943611145 L 59.1 104.9 L 60.6 123.2 L 60.6 140.1 L 60.51712331771851 141.2 L 99.5 141.2 L 99.5 131.9 L 74.0 131.9 L 74.0 127.9 L 99.5 127.9 L 99.5 118.6 L 67.2 118.6 L 67.2 114.6 L 99.5 114.6 L 99.5 103.8 L 108.2 105.25 L 108.2 101.1 L 86.7 101.1 L 74.7 107.1 L 74.7 75.8 L 86.7 81.8 L 108.2 81.8 L 113.7 76.8 L 124.2 85.8 L 119.2 89.3 L 119.2 101.1 L 110.225 105.5875 L 111.5 105.8 L 114.5 107.8 L 111.5 109.6 L 111.5 114.6 L 138.5 114.6 L 138.5 103.8 L 150.5 105.8 L 153.5 107.8 L 150.5 109.6 L 150.5 114.6 L 172.2 114.6 L 176.7 108.6 L 182.7 114.6 L 182.7 118.6 L 150.5 118.6 L 150.5 127.9 L 165.5 127.9 L 170.0 121.9 L 176.0 127.9 L 176.0 131.9 L 150.5 131.9 L 150.5 141.2 L 175.2777777671814 141.2 L 181.5 134.2 L 189.5 141.2 L 189.5 145.2 L 169.15346536636352 145.2 L 171.99400815963745 149.68273162841797 L 176.3 154.3 L 176.5 157.8 L 172.54888887405394 156.10666666030883 L 170.7 156.8 L 165.7 158.8 L 163.0 159.7 L 160.2 160.7 L 157.3 161.7 L 155.08382034301758 162.3434069633484 L 160.6 165.2 L 166.4 167.7 L 172.4 169.9 L 178.6 171.7 L 185.1 173.3 L 193.5 175.4 L 181.8 186.0 L 174.8 183.6 Z M 134.3 147.7 L 139.4 151.8 L 144.4 155.6 L 149.6 159.1 L 151.18314371109008 160.03815927505494 L 152.3 159.1 L 154.7 157.0 L 159.3 153.2 L 161.4 151.4 L 163.4 149.7 L 165.3 148.0 L 167.2 146.4 L 168.11016883850098 145.54337043762206 L 168.0 145.4 L 168.1227032661438 145.5315733909607 L 168.475 145.2 L 131.3930233001709 145.2 Z M 111.5 131.9 L 111.5 141.2 L 138.5 141.2 L 138.5 131.9 Z M 111.5 118.6 L 111.5 127.9 L 138.5 127.9 L 138.5 118.6 Z M 141.7 81.8 L 163.2 81.8 L 169.2 76.8 L 180.2 85.8 L 175.2 89.8 L 175.2 101.1 L 163.2 107.1 L 163.2 101.1 L 141.7 101.1 L 130.7 106.6 L 130.7 76.3 Z M 141.7 85.8 L 141.7 97.1 L 163.2 97.1 L 163.2 85.8 Z M 86.7 85.8 L 86.7 97.1 L 108.2 97.1 L 108.2 85.8 Z M 61.2 69.2 L 119.0 69.2 L 119.0 55.6 L 93.5 55.6 L 81.5 61.6 L 81.5 11.7 L 93.5 17.7 L 156.5 17.7 L 162.5 12.7 L 173.5 21.7 L 168.5 25.7 L 168.5 55.6 L 156.5 61.6 L 156.5 55.6 L 131.15 55.6 L 134.0 57.5 L 131.0 59.3 L 131.0 69.2 L 178.2 69.2 L 182.7 63.2 L 188.7 69.2 L 188.7 73.2 L 61.2 73.2 Z M 93.5 38.6 L 93.5 51.6 L 156.5 51.6 L 156.5 38.6 Z M 93.5 21.7 L 93.5 34.6 L 156.5 34.6 L 156.5 21.7 Z " />
</g>
</svg>
