<svg xmlns="http://www.w3.org/2000/svg" xmlns:xlink="http://www.w3.org/1999/xlink" version="1.1" baseProfile="full" viewBox="0 0 200 200" width="200" height="200">
<g fill="black">
<path d="M 167.0 166.4 L 162.4 161.8 L 158.0 156.8 L 154.0 151.3 L 150.3 145.4 L 147.0 139.0 L 144.0 132.2 L 141.4 124.9 L 140.0374764442444 119.58615818023682 L 139.6 119.9 L 134.7 123.1 L 132.68649425506592 124.2616379737854 L 134.8 128.7 L 137.5 137.2 L 138.9 145.6 L 138.8 154.0 L 137.3 162.3 L 134.4 170.4 L 130.0 178.1 L 127.7642105102539 176.54736843109131 L 129.5 177.8 L 128.0 179.7 L 126.3 181.5 L 124.5 183.1 L 122.6 184.5 L 120.5 185.7 L 118.3 186.7 L 116.1 187.5 L 113.7 188.0 L 111.3 188.3 L 108.8 188.4 L 108.8 182.4 L 88.8 179.4 L 88.8 176.4 L 110.3 176.4 L 111.6 176.2 L 112.8 175.9 L 114.0 175.5 L 115.0 175.0 L 116.1 174.5 L 117.0 173.8 L 118.0 172.9 L 118.9 171.9 L 119.68695650100707 170.93816423416138 L 119.2 170.6 L 119.3 170.4 L 123.2 164.7 L 126.1 158.7 L 127.9 152.5 L 128.7 145.9 L 128.4 138.9 L 126.9 131.4 L 126.30366973876953 129.56513757705687 L 124.7 131.0 L 118.8 135.9 L 112.6 140.7 L 106.0 145.3 L 99.1 149.8 L 92.0 154.1 L 84.4 158.3 L 76.6 162.2 L 68.4 165.8 L 59.8 169.2 L 59.0 167.5 L 66.6 162.5 L 73.9 157.5 L 81.0 152.6 L 87.8 147.8 L 94.3 142.9 L 100.4 137.9 L 106.3 132.9 L 111.8 127.8 L 116.9 122.7 L 121.639697265625 117.6701171875 L 120.4 115.0 L 115.4 106.0 L 111.36168584823608 99.53869733810424 L 105.2 104.3 L 98.1 109.2 L 90.6 113.8 L 82.5 118.1 L 73.9 122.0 L 71.38863639831543 122.96590909957885 L 71.8 124.2 L 70.6 128.6 L 66.7 130.9 L 62.3 129.7 L 59.9 125.8 L 60.0 124.0 L 59.9 122.1 L 59.7 120.1 L 59.3 117.9 L 58.7 115.7 L 57.9 113.4 L 56.9 110.9 L 55.8 108.4 L 54.5 105.7 L 52.7 103.3 L 53.9 102.0 L 56.3 104.1 L 58.8 105.9 L 61.1 107.9 L 63.3 109.9 L 65.2 112.1 L 66.9 114.3 L 68.4 116.6 L 69.8 119.0 L 70.19984664916993 119.9087423324585 L 72.2 118.6 L 79.8 113.4 L 87.0 108.3 L 93.7 103.0 L 99.8 97.7 L 105.5 92.3 L 110.7 86.8 L 115.4 81.2 L 119.5 75.5 L 119.8692307472229 74.9 L 64.5 74.9 L 64.5 70.9 L 158.5 70.9 L 168.5 60.9 L 180.5 70.9 L 180.5 74.9 L 134.1625 74.9 L 133.3 76.1 L 128.6 82.3 L 123.5 88.2 L 117.9 93.8 L 113.26839799880982 97.90010662078858 L 118.8 103.5 L 125.5 111.9 L 130.8 120.3 L 131.3011820793152 121.35248222351075 L 132.3 120.2 L 136.1 115.8 L 139.8 111.7 L 143.3 107.8 L 146.7 103.9 L 149.9 100.2 L 152.9 96.5 L 155.7 93.0 L 158.3 89.5 L 160.12773723602294 86.9868613243103 L 160.0 86.9 L 161.1 85.7 L 170.0 93.7 L 171.1 97.2 L 167.1386881828308 96.65361213684082 L 166.9 96.9 L 163.6 100.2 L 160.2 103.4 L 156.5 106.7 L 152.6 110.0 L 148.5 113.3 L 144.2 116.6 L 142.12019634246826 118.09203300476074 L 145.2 123.2 L 149.2 129.5 L 153.2 135.3 L 157.2 140.7 L 161.4 145.5 L 165.6 149.9 L 170.0 153.8 L 174.4 157.2 L 179.0 160.1 L 183.6 162.6 L 188.5 165.2 L 177.3 174.1 L 172.0 170.5 Z M 12.5 154.0 L 18.1 152.3 L 23.9 150.5 L 29.8 148.6 L 33.9 147.30166664123536 L 33.9 95.0 L 16.5 95.0 L 16.5 91.0 L 33.9 91.0 L 33.9 44.0 L 13.6 44.0 L 13.6 40.0 L 51.1 40.0 L 61.1 30.0 L 73.1 40.0 L 73.1 44.0 L 45.9 44.0 L 45.9 91.0 L 48.2 91.0 L 58.2 81.0 L 70.2 91.0 L 70.2 95.0 L 45.9 95.0 L 45.9 143.4 L 54.9 140.4 L 61.6 138.3 L 68.5 136.2 L 75.6 134.1 L 76.4 135.8 L 70.0 139.6 L 63.7 143.2 L 57.4 146.5 L 45.2 152.6 L 39.2 155.4 L 27.6 160.6 L 22.0 163.0 L 20.354481983184815 163.688125705719 L 19.4 167.4 L 16.5 165.3 L 10.7 154.6 Z M 120.2 60.0 L 117.7 56.9 L 115.0 53.9 L 111.9 50.9 L 108.7 48.0 L 105.2 45.1 L 101.4 42.2 L 97.5 39.3 L 93.3 36.4 L 94.0 34.7 L 99.0 36.2 L 103.9 37.8 L 108.5 39.8 L 112.8 42.0 L 116.9 44.4 L 120.8 47.0 L 124.5 49.7 L 125.4692307472229 50.5307692527771 L 130.7 45.3 L 134.4 41.5 L 138.0 38.0 L 141.3 34.5 L 144.4 31.3 L 147.2 28.1 L 149.62666664123535 25.3 L 73.2 25.3 L 73.2 21.3 L 152.7 21.3 L 152.76315793991088 21.24736843109131 L 154.2 19.4 L 154.58235292434694 19.731372547149657 L 158.7 16.3 L 169.7 25.3 L 164.7 28.3 L 160.00344829559327 30.256896591186525 L 157.4 32.6 L 154.1 35.3 L 150.5 38.1 L 146.8 40.9 L 142.7 43.7 L 138.4 46.5 L 133.8 49.3 L 128.9 52.1 L 127.9035927772522 52.61736526489258 L 128.0 52.7 L 131.2 55.9 L 134.2 59.2 L 135.3 63.7 L 132.9 67.6 L 128.5 68.6 L 124.5 66.2 L 122.5 63.1 Z " />
</g>
</svg>
