<svg xmlns="http://www.w3.org/2000/svg" xmlns:xlink="http://www.w3.org/1999/xlink" version="1.1" baseProfile="full" viewBox="0 0 200 200" width="200" height="200">
<g fill="black">
<path d="M 173.7 88.3 L 173.7 92.3 L 136.5 92.3 L 136.5 123.8 L 165.2 123.8 L 175.2 113.8 L 187.2 123.8 L 187.2 127.8 L 136.5 127.8 L 136.5 175.0 L 164.7 175.0 L 164.7 139.1 L 176.7 141.1 L 179.7 143.1 L 176.7 144.9 L 176.7 181.0 L 164.7 187.0 L 164.7 179.0 L 95.5 179.0 L 95.5 182.0 L 83.5 188.0 L 83.5 139.1 L 95.5 141.1 L 98.5 143.1 L 95.5 144.9 L 95.5 175.0 L 124.5 175.0 L 124.5 127.8 L 73.8 127.8 L 73.8 123.8 L 124.5 123.8 L 124.5 92.3 L 87.3 92.3 L 87.3 88.3 L 151.7 88.3 L 161.7 78.3 Z M 13.0 148.9 L 18.7 147.4 L 24.4 145.8 L 30.3 144.1 L 35.7 142.4800000190735 L 35.7 90.0 L 15.9 90.0 L 15.9 86.0 L 35.7 86.0 L 35.7 38.0 L 13.9 38.0 L 13.9 34.0 L 52.6 34.0 L 62.6 24.0 L 74.6 34.0 L 74.6 38.0 L 47.7 38.0 L 47.7 86.0 L 50.6 86.0 L 60.6 76.0 L 72.6 86.0 L 72.6 90.0 L 47.7 90.0 L 47.7 138.7174603462219 L 55.0 136.4 L 61.6 134.2 L 68.3 132.2 L 75.2 130.1 L 75.9 131.8 L 69.8 135.6 L 63.7 139.2 L 57.6 142.4 L 51.5 145.5 L 45.5 148.3 L 39.6 151.0 L 33.7 153.6 L 27.9 156.0 L 22.2 158.3 L 20.516564464569093 158.9312883377075 L 19.4 162.6 L 16.6 160.4 L 11.1 149.5 Z M 98.1 68.8 L 96.9 66.0 L 95.5 63.3 L 93.9 60.5 L 92.3 57.8 L 90.5 55.1 L 88.6 52.4 L 86.6 49.6 L 84.2 47.1 L 84.99375 46.08977270126343 L 84.6 46.4 L 83.3 45.1 L 85.8 41.8 L 87.9 38.3 L 90.0 35.1 L 92.0 31.9 L 93.9 28.8 L 95.6 25.8 L 97.2 22.9 L 98.7 20.0 L 100.1 17.3 L 100.88237285614014 15.539661026000976 L 100.8 15.5 L 101.8 13.7 L 111.6 20.7 L 113.2 23.9 L 109.03253965377807 23.970634937286377 L 107.4 25.9 L 105.1 28.5 L 102.6 31.1 L 100.0 33.7 L 97.2 36.3 L 94.3 38.8 L 91.2 41.4 L 87.9 43.8 L 85.4085000038147 45.76300001144409 L 88.4 47.5 L 91.5 49.2 L 94.5 51.2 L 97.3 53.3 L 102.5 58.1 L 107.1 63.5 L 109.2 66.4 L 111.1 69.5 L 111.3 74.1 L 108.2 77.5 L 103.7 77.6 L 100.2 74.6 L 99.2 71.7 Z M 129.4 68.8 L 128.1 66.0 L 126.8 63.3 L 125.2 60.5 L 123.6 57.8 L 121.8 55.1 L 119.9 52.4 L 117.8 49.6 L 115.5 47.1 L 116.29375 46.08977270126343 L 115.9 46.4 L 114.6 45.1 L 117.0 41.8 L 119.2 38.3 L 121.3 35.1 L 123.3 31.9 L 125.1 28.8 L 126.9 25.8 L 128.5 22.9 L 130.0 20.0 L 132.13553466796876 15.564658737182617 L 132.0 15.5 L 133.1 13.7 L 142.9 20.7 L 144.5 23.9 L 140.25730333328247 23.971910095214845 L 138.7 25.9 L 133.9 31.1 L 131.3 33.7 L 128.5 36.3 L 125.6 38.8 L 122.5 41.4 L 119.2 43.8 L 116.70698690414429 45.7641921043396 L 119.6 47.5 L 122.8 49.2 L 125.7 51.2 L 128.6 53.3 L 131.2 55.7 L 133.7 58.1 L 136.1 60.8 L 138.4 63.5 L 140.5 66.4 L 142.4 69.5 L 142.5 74.1 L 139.5 77.5 L 134.9 77.6 L 131.5 74.6 L 130.5 71.7 Z M 160.7 68.8 L 159.4 66.0 L 158.0 63.3 L 156.5 60.5 L 153.1 55.1 L 151.1 52.4 L 149.1 49.6 L 146.8 47.1 L 147.6148148536682 46.062963008880615 L 147.2 46.4 L 145.9 45.1 L 148.3 41.8 L 150.5 38.3 L 152.6 35.1 L 154.5 31.9 L 156.4 28.8 L 158.2 25.8 L 159.8 22.9 L 161.3 20.0 L 162.6 17.3 L 163.382506275177 15.539360809326173 L 163.3 15.5 L 163.6666666984558 14.9 L 163.8 14.6 L 163.83680696487426 14.621588706970215 L 164.4 13.7 L 174.2 20.7 L 175.7 23.9 L 171.53149394989015 23.971870803833006 L 169.9 25.9 L 167.6 28.5 L 165.2 31.1 L 162.6 33.7 L 159.8 36.3 L 156.9 38.8 L 153.8 41.4 L 150.4 43.8 L 147.99292039871216 45.75575218200684 L 150.9 47.5 L 154.1 49.2 L 157.0 51.2 L 159.8 53.3 L 162.5 55.7 L 165.0 58.1 L 167.4 60.8 L 169.6 63.5 L 171.7 66.4 L 173.7 69.5 L 173.8 74.1 L 170.8 77.5 L 166.2 77.6 L 162.8 74.6 L 161.8 71.7 Z " />
</g>
</svg>
