<svg xmlns="http://www.w3.org/2000/svg" xmlns:xlink="http://www.w3.org/1999/xlink" version="1.1" baseProfile="full" viewBox="0 0 200 200" width="200" height="200">
<g fill="black">
<path d="M 155.5 176.5 L 147.3 173.0 L 139.6 169.2 L 132.4 165.0 L 125.7 160.4 L 119.5 155.5 L 113.9 150.2 L 109.0 144.5 L 106.0 139.96341466903687 L 106.0 182.0 L 94.0 188.0 L 94.0 145.68208951950072 L 87.6 151.7 L 80.4 157.4 L 72.9 162.7 L 64.9 167.6 L 56.6 171.9 L 47.9 175.7 L 38.7 179.0 L 29.2 181.7 L 19.2 183.8 L 18.7 182.1 L 27.9 178.2 L 36.7 174.1 L 45.1 169.8 L 53.0 165.2 L 60.5 160.3 L 67.5 155.2 L 74.1 149.7 L 80.3 143.8 L 86.0 137.7 L 86.54444446563721 137.0 L 53.0 137.0 L 53.0 149.0 L 41.0 155.0 L 41.0 95.0 L 53.0 101.0 L 94.0 101.0 L 94.0 83.0 L 106.0 85.0 L 109.0 87.0 L 106.0 88.8 L 106.0 101.0 L 147.0 101.0 L 153.0 96.0 L 164.0 105.0 L 159.0 109.0 L 159.0 143.0 L 147.0 149.0 L 147.0 137.0 L 106.0 137.0 L 106.0 137.35714282989503 L 106.3 137.1 L 112.0 141.5 L 117.8 145.7 L 123.8 149.7 L 130.2 153.4 L 136.9 156.8 L 144.0 159.9 L 151.5 162.8 L 159.4 165.3 L 167.7 167.6 L 176.5 169.5 L 185.2 171.6 L 173.4 182.4 L 164.2 179.6 Z M 53.0 105.0 L 53.0 133.0 L 94.0 133.0 L 94.0 105.0 Z M 106.0 105.0 L 106.0 133.0 L 147.0 133.0 L 147.0 105.0 Z M 18.2 76.0 L 25.7 75.4 L 33.4 74.7 L 41.3 73.9 L 49.3 73.2 L 50.0 73.13253011703492 L 50.0 53.4 L 23.0 53.4 L 23.0 49.4 L 50.0 49.4 L 50.0 26.7 L 19.0 26.7 L 19.0 22.7 L 75.0 22.7 L 85.0 12.7 L 97.0 22.7 L 97.0 26.7 L 62.0 26.7 L 62.0 49.4 L 74.0 49.4 L 84.0 39.4 L 96.0 49.4 L 96.0 53.4 L 62.0 53.4 L 62.0 72.03333330154419 L 66.0 71.7 L 74.7 71.0 L 83.5 70.3 L 92.6 69.7 L 101.8 69.4 L 102.1 71.1 L 93.1 73.5 L 84.3 75.6 L 75.6 77.5 L 67.1 79.2 L 58.8 80.8 L 50.6 82.4 L 42.6 83.9 L 34.8 85.3 L 27.2 86.6 L 23.830971050262452 87.18396501541137 L 22.1 90.7 L 19.7 87.9 L 16.2 76.3 Z M 100.0 77.2 L 134.0 77.2 L 134.0 53.4 L 107.0 53.4 L 107.0 49.4 L 134.0 49.4 L 134.0 26.7 L 104.0 26.7 L 104.0 22.7 L 160.0 22.7 L 170.0 12.7 L 182.0 22.7 L 182.0 26.7 L 146.0 26.7 L 146.0 49.4 L 158.0 49.4 L 168.0 39.4 L 180.0 49.4 L 180.0 53.4 L 146.0 53.4 L 146.0 77.2 L 165.0 77.2 L 175.0 67.2 L 187.0 77.2 L 187.0 81.2 L 100.0 81.2 Z " />
</g>
</svg>
