<svg xmlns="http://www.w3.org/2000/svg" xmlns:xlink="http://www.w3.org/1999/xlink" version="1.1" baseProfile="full" viewBox="0 0 200 200" width="200" height="200">
<g fill="black">
<path d="M 120.6 128.9 L 122.2 132.1 L 118.22285718917847 132.1 L 118.0 132.4 L 114.9 135.8 L 111.4 139.1 L 110.303125 140.0 L 161.0 140.0 L 171.0 130.0 L 183.0 140.0 L 183.0 144.0 L 159.8333333015442 144.0 L 159.1 145.0 L 153.6 152.4 L 147.0 159.2 L 139.2 165.2 L 137.02597179412842 166.53406276702881 L 139.0 167.2 L 147.8 169.7 L 157.3 171.9 L 167.3 173.8 L 178.0 175.4 L 187.7 177.0 L 175.9 188.5 L 164.8 186.1 L 154.4 183.4 L 144.6 180.3 L 135.5 176.8 L 127.0 172.9 L 126.33154106140137 172.53149061203004 L 120.5 175.3 L 109.5 179.3 L 97.5 182.8 L 84.5 185.5 L 70.3 187.6 L 55.1 188.8 L 54.8 187.1 L 69.7 183.8 L 83.3 180.3 L 95.7 176.5 L 106.9 172.2 L 116.9 167.6 L 117.31738204956055 167.36285104751587 L 112.2 164.0 L 105.9 158.9 L 100.4 153.3 L 97.39835615158081 149.20684928894042 L 93.5 151.5 L 87.9 154.5 L 81.9 157.2 L 75.4 159.7 L 74.5 158.2 L 80.0 153.9 L 85.1 149.9 L 89.8 146.1 L 94.0 142.4 L 97.9 138.9 L 101.3 135.4 L 104.2 132.1 L 106.7 128.8 L 108.7 125.7 L 109.84613065719604 123.62263822555542 L 109.8 123.6 L 109.97647056579589 123.3 L 94.2 123.3 L 82.2 129.3 L 82.2 90.8 L 94.2 96.8 L 163.7 96.8 L 169.7 91.8 L 180.7 100.8 L 175.7 104.8 L 175.7 125.3 L 163.7 131.3 L 163.7 123.3 L 112.76000003814697 123.3 Z M 13.8 148.9 L 19.7 147.4 L 25.7 145.8 L 31.8 144.1 L 37.6 142.442857170105 L 37.6 90.0 L 16.6 90.0 L 16.6 86.0 L 37.6 86.0 L 37.6 38.0 L 14.5 38.0 L 14.5 34.0 L 56.0 34.0 L 66.0 24.0 L 78.0 34.0 L 78.0 38.0 L 49.6 38.0 L 49.6 86.0 L 53.9 86.0 L 63.9 76.0 L 75.9 86.0 L 75.9 90.0 L 49.6 90.0 L 49.6 138.8307692527771 L 51.0 138.4 L 57.6 136.3 L 64.4 134.2 L 71.4 132.1 L 78.6 130.1 L 79.4 131.8 L 72.9 135.6 L 66.5 139.2 L 60.1 142.4 L 53.7 145.5 L 47.4 148.4 L 41.2 151.1 L 35.1 153.6 L 29.0 156.0 L 23.1 158.3 L 21.125206565856935 159.0028925895691 L 20.0 162.7 L 17.2 160.4 L 11.8 149.5 Z M 105.19677419662476 144.0 L 103.3 145.4 L 99.70492544174195 147.77121934890747 L 103.2 150.2 L 109.4 154.1 L 116.0 157.8 L 123.1 161.2 L 125.96752767562866 162.40738010406494 L 133.2 157.2 L 139.6 151.4 L 144.7 145.3 L 145.52727270126343 144.0 Z M 94.2 100.8 L 94.2 119.3 L 109.4 119.3 L 109.4 100.8 Z M 121.4 100.8 L 121.4 119.3 L 136.5 119.3 L 136.5 100.8 Z M 148.5 100.8 L 148.5 119.3 L 163.7 119.3 L 163.7 100.8 Z M 116.9 17.4 L 118.8 20.5 L 114.8659574508667 20.906969928741454 L 114.0 22.4 L 110.7 27.4 L 110.26800003051758 28.0 L 141.0 28.0 L 141.43636360168458 27.63636360168457 L 142.5 26.0 L 142.9357997894287 26.386833477020264 L 147.0 23.0 L 158.0 32.0 L 153.0 35.0 L 146.73658533096312 37.60975608825684 L 145.1 38.8 L 142.9 40.3 L 138.1 43.5 L 135.6 45.0 L 132.9 46.5 L 132.7 46.6 L 160.0 46.6 L 166.0 41.6 L 177.0 50.6 L 172.0 54.6 L 172.0 86.4 L 160.0 92.4 L 160.0 86.4 L 100.0 86.4 L 88.0 92.4 L 88.0 52.9125 L 83.1 57.2 L 77.1 62.0 L 70.6 66.6 L 69.3 65.3 L 74.5 59.2 L 79.3 53.4 L 83.9 47.8 L 88.0 42.43095235824585 L 88.0 40.6 L 89.00410957336426 41.10205478668213 L 92.1 37.0 L 95.6 31.8 L 98.8 26.7 L 101.6 21.8 L 104.0 17.0 L 106.1 12.3 L 106.12332611083984 12.311015129089355 L 106.7 11.1 Z M 100.0 68.5 L 100.0 82.4 L 160.0 82.4 L 160.0 68.5 Z M 100.0 50.6 L 100.0 64.5 L 160.0 64.5 L 160.0 50.6 Z M 107.38800001144409 32.0 L 107.1 32.4 L 103.0 37.4 L 98.6 42.4 L 96.33103446960449 44.765517234802246 L 100.0 46.6 L 127.95217390060425 46.6 L 128.5 46.0 L 130.3 43.5 L 133.7 38.7 L 135.4 36.5 L 138.4 32.1 L 138.47142858505248 32.0 Z " />
</g>
</svg>
