<svg xmlns="http://www.w3.org/2000/svg" xmlns:xlink="http://www.w3.org/1999/xlink" version="1.1" baseProfile="full" viewBox="0 0 200 200" width="200" height="200">
<g fill="black">
<path d="M 152.20674161911012 38.60337076187134 L 155.8 36.3 L 159.5 34.0 L 162.9 31.7 L 166.0 29.6 L 168.9 27.5 L 171.6 25.5 L 173.9 23.6 L 175.9 21.7 L 176.9970760345459 20.602923965454103 L 176.9 20.5 L 177.8 19.8 L 185.2 29.3 L 185.5 32.8 L 181.51897811889648 31.325547409057616 L 179.7 32.3 L 176.6 33.8 L 173.2 35.2 L 169.7 36.6 L 165.9 38.0 L 161.9 39.3 L 157.6 40.5 L 153.1 41.6 L 153.0 41.625 L 153.0 82.0 L 172.61818180084228 82.0 L 180.8 73.0 L 190.8 82.0 L 190.8 86.0 L 177.0 86.0 L 177.0 182.2 L 166.0 187.7 L 166.0 86.0 L 153.0 86.0 L 153.0 107.0 L 152.6 118.5 L 151.8 129.4 L 150.6 139.5 L 149.0 148.8 L 147.1 157.5 L 144.7 165.3 L 141.9 172.4 L 138.7 178.6 L 135.1 184.0 L 131.0 188.4 L 129.8 187.5 L 132.4 182.3 L 134.7 176.7 L 136.8 170.5 L 138.6 163.6 L 140.2 155.9 L 141.4 147.6 L 142.3 138.6 L 142.9 128.8 L 143.1 118.2 L 143.0 107.0 L 143.0 34.0 Z M 116.5 15.0 L 118.5 17.0 L 116.5 18.5 L 116.5 40.0 L 123.3777777671814 40.0 L 129.6 33.0 L 137.6 40.0 L 137.6 44.0 L 116.5 44.0 L 116.5 63.0 L 124.6 63.0 L 129.1 58.0 L 138.6 67.0 L 133.6 69.5 L 133.6 127.0 L 124.6 131.5 L 124.6 123.0 L 116.5 123.0 L 116.5 146.0 L 120.61818180084228 146.0 L 128.8 137.0 L 138.8 146.0 L 138.8 150.0 L 116.5 150.0 L 116.5 184.0 L 108.5 188.0 L 108.5 150.0 L 86.3 150.0 L 86.3 146.0 L 108.5 146.0 L 108.5 123.0 L 101.0 123.0 L 101.0 130.0 L 91.0 135.0 L 91.0 58.0 L 101.0 63.0 L 108.5 63.0 L 108.5 44.0 L 87.4 44.0 L 87.4 40.0 L 108.5 40.0 L 108.5 13.0 Z M 68.9 186.9 L 64.8 185.0 L 63.2 180.7 L 63.7 173.5 L 63.9 166.9 L 63.7 160.9 L 63.2 155.5 L 62.5 150.8 L 62.12562398910522 149.22762060165405 L 60.7 149.0 L 61.47319583892822 146.52577323913573 L 60.2 143.0 L 58.6 139.8 L 56.8 136.9 L 55.79943504333496 135.72542371749878 L 51.3 139.1 L 46.5 142.3 L 41.8 145.3 L 39.3 146.8104166984558 L 39.3 147.0 L 38.98620691299438 147.0 L 37.0 148.2 L 32.3 150.9 L 27.7 153.4 L 23.2 155.8 L 18.6 158.1 L 17.968221569061278 158.40153064727784 L 17.1 162.2 L 14.2 160.2 L 8.0 149.7 L 9.8 149.0 L 14.3 147.5 L 18.9 146.0 L 23.6 144.3 L 27.3 142.9125 L 27.3 90.0 L 12.7 90.0 L 12.7 86.0 L 27.3 86.0 L 27.3 38.0 L 11.1 38.0 L 11.1 34.0 L 41.418181800842284 34.0 L 49.6 25.0 L 59.6 34.0 L 59.6 38.0 L 39.3 38.0 L 39.3 86.0 L 43.7777777671814 86.0 L 50.0 79.0 L 58.0 86.0 L 58.0 90.0 L 39.3 90.0 L 39.3 138.11538457870483 L 43.5 136.5 L 48.8 134.3 L 54.2 132.2 L 59.9 130.2 L 60.8 131.7 L 58.34490957260132 133.6849666595459 L 59.2 134.0 L 62.7 136.3 L 64.0995078086853 137.78979864120484 L 64.6 136.2 L 66.6 129.7 L 69.1 122.1 L 71.9 113.3 L 78.9 92.3 L 83.2 80.0 L 88.1 66.7 L 89.8 67.2 L 86.9 81.1 L 84.1 93.7 L 81.5 105.1 L 79.3 115.3 L 77.3 124.3 L 75.6 132.1 L 74.3 138.7 L 73.4 144.0 L 72.8 148.1 L 72.6 150.9 L 71.33721590042114 150.6983790397644 L 72.3 153.7 L 73.7 159.7 L 74.6 166.3 L 75.1 173.5 L 75.2 181.2 L 73.2 185.3 Z M 101.0 94.0 L 101.0 119.0 L 108.5 119.0 L 108.5 94.0 Z M 116.5 94.0 L 116.5 119.0 L 124.6 119.0 L 124.6 94.0 Z M 101.0 67.0 L 101.0 90.0 L 108.5 90.0 L 108.5 67.0 Z M 116.5 67.0 L 116.5 90.0 L 124.6 90.0 L 124.6 67.0 Z M 63.1 80.4 L 62.3 78.5 L 61.4 76.6 L 60.2 74.7 L 58.9 72.7 L 57.4 70.8 L 55.7 68.8 L 53.5 67.2 L 54.4 65.6 L 56.9 66.8 L 59.6 67.7 L 62.2 68.8 L 64.5 70.1 L 66.8 71.6 L 68.9 73.4 L 70.9 75.3 L 72.7 77.4 L 74.3 79.7 L 75.7 82.2 L 75.4 86.7 L 72.0 89.8 L 67.4 89.5 L 64.4 86.1 L 64.1 84.2 Z M 72.2 36.3 L 71.6 34.4 L 70.8 32.5 L 69.9 30.5 L 68.8 28.6 L 67.6 26.7 L 66.2 24.8 L 64.7 22.8 L 62.7 21.2 L 63.6 19.7 L 66.0 20.8 L 68.5 21.7 L 70.9 22.8 L 73.2 24.2 L 75.4 25.7 L 77.5 27.4 L 79.4 29.3 L 81.2 31.4 L 82.8 33.6 L 84.3 36.0 L 84.1 40.6 L 80.8 43.8 L 76.2 43.6 L 73.1 40.3 L 72.7 38.3 Z " />
</g>
</svg>
