<svg xmlns="http://www.w3.org/2000/svg" xmlns:xlink="http://www.w3.org/1999/xlink" version="1.1" baseProfile="full" viewBox="0 0 200 200" width="200" height="200">
<g fill="black">
<path d="M 149.0 111.3 L 152.0 113.3 L 149.0 115.1 L 149.0 125.7 L 168.8181818008423 125.7 L 177.0 116.7 L 187.0 125.7 L 187.0 129.7 L 149.0 129.7 L 149.0 178.9 L 137.0 184.9 L 137.0 174.9 L 63.0 174.9 L 63.0 181.9 L 51.0 187.9 L 51.0 129.7 L 13.0 129.7 L 13.0 125.7 L 51.0 125.7 L 51.0 109.3 L 63.0 111.3 L 66.0 113.3 L 63.0 115.1 L 63.0 125.7 L 137.0 125.7 L 137.0 109.3 Z M 63.0 151.5 L 63.0 170.9 L 137.0 170.9 L 137.0 151.5 Z M 63.0 129.7 L 63.0 147.5 L 137.0 147.5 L 137.0 129.7 Z M 59.0 76.6 L 141.0 76.6 L 147.0 71.6 L 158.0 80.6 L 153.0 84.6 L 153.0 103.9 L 141.0 109.9 L 141.0 103.9 L 59.0 103.9 L 47.0 109.9 L 47.0 70.6 Z M 59.0 80.6 L 59.0 99.9 L 141.0 99.9 L 141.0 80.6 Z M 158.8 64.5 L 150.1 60.3 L 141.7 55.7 L 133.5 50.7 L 125.7 45.3 L 118.2 39.4 L 111.0 33.1 L 104.3 26.3 L 102.23789138793946 23.91057252883911 L 98.5 27.8 L 90.6 35.0 L 82.3 41.7 L 73.6 47.9 L 64.3 53.7 L 54.6 59.0 L 44.5 63.8 L 33.9 68.1 L 22.8 71.8 L 11.2 74.8 L 10.7 73.1 L 21.4 68.3 L 31.7 63.2 L 41.6 58.0 L 50.9 52.4 L 59.8 46.6 L 68.1 40.4 L 76.0 33.9 L 83.4 27.0 L 90.3 19.9 L 96.7 12.3 L 96.73906583786011 12.333121013641357 L 97.1 11.9 L 105.9 20.1 L 106.6289999961853 22.935000038146974 L 107.0 23.2 L 114.7 28.5 L 122.4 33.6 L 130.3 38.3 L 138.2 42.7 L 146.4 46.7 L 154.7 50.3 L 163.2 53.6 L 171.9 56.5 L 180.8 59.0 L 188.7 61.3 L 177.1 71.6 L 167.8 68.3 Z M 133.0 56.8 L 133.0 60.8 L 64.0 60.8 L 64.0 56.8 L 111.0 56.8 L 121.0 46.8 Z " />
</g>
</svg>
