<svg xmlns="http://www.w3.org/2000/svg" xmlns:xlink="http://www.w3.org/1999/xlink" version="1.1" baseProfile="full" viewBox="0 0 200 200" width="200" height="200">
<g fill="black">
<path d="M 168.2 171.1 L 168.4 171.7 L 168.6 172.1 L 168.9 172.4 L 169.8 172.7 L 170.7 172.9 L 171.9 173.0 L 177.4 173.0 L 183.4 148.0 L 185.4 148.0 L 183.4 173.0 L 187.0 175.4 L 189.4 179.0 L 187.0 182.6 L 183.4 185.0 L 171.9 185.0 L 169.4 184.8 L 166.9 184.4 L 164.5 183.6 L 162.2 182.3 L 160.2 180.7 L 158.5 178.6 L 157.3 176.4 L 156.5 174.0 L 156.1 171.5 L 156.0 168.9 L 156.88161392211913 73.0 L 127.8942445755005 73.0 L 123.28668003082275 167.18403997421265 L 126.1 166.4 L 132.5 164.8 L 139.0 163.1 L 145.8 161.5 L 152.9 160.1 L 153.4 161.8 L 147.1 165.1 L 140.8 168.1 L 134.6 170.9 L 128.7 173.6 L 122.9 176.1 L 117.2 178.5 L 111.8 180.8 L 106.6 183.1 L 101.5 185.2 L 100.46605501174926 185.64311923980713 L 99.5 189.4 L 96.6 187.3 L 92.59232530593872 180.03184423446655 L 92.1 180.7 L 90.3 182.4 L 88.3 183.6 L 86.1 184.5 L 83.8 185.0 L 81.4 185.1 L 81.4 179.6 L 71.4 176.9 L 71.4 175.75 L 63.1 179.9 L 63.1 145.6 L 51.5 145.6 L 51.5 177.1 L 41.5 182.1 L 41.5 145.6 L 30.0 145.6 L 30.0 182.2 L 19.0 187.7 L 19.0 110.2 L 30.0 115.7 L 84.6 115.7 L 90.1 110.7 L 100.6 119.7 L 95.6 123.2 L 95.6 169.6 L 95.5 172.0 L 95.2 174.4 L 94.90678462982177 175.32153396606446 L 97.7 174.5 L 103.0 173.0 L 108.5 171.4 L 111.1170105934143 170.65228271484375 L 117.85107917785645 33.0 L 98.6 33.0 L 98.6 29.0 L 162.4 29.0 L 172.4 19.0 L 184.4 29.0 L 184.4 33.0 L 129.85107917785643 33.0 L 128.08992805480958 69.0 L 156.9 69.0 L 162.9 64.0 L 173.9 73.0 L 168.9 76.0 L 167.90455131530763 76.41477031707764 L 168.0 169.0 L 168.1 170.2 Z M 30.0 119.7 L 30.0 141.6 L 41.5 141.6 L 41.5 119.7 Z M 51.5 119.7 L 51.5 141.6 L 63.1 141.6 L 63.1 119.7 Z M 73.1 119.7 L 73.1 141.6 L 84.6 141.6 L 84.6 119.7 Z M 138.5 124.6 L 137.9 120.7 L 137.2 117.0 L 136.4 113.4 L 134.2 106.4 L 132.9 103.0 L 131.5 99.6 L 129.7 96.3 L 131.1 95.1 L 134.0 97.7 L 136.8 100.5 L 139.3 103.5 L 141.7 106.8 L 143.8 110.4 L 145.6 114.2 L 147.3 118.2 L 148.7 122.4 L 150.0 126.7 L 151.0 131.3 L 149.7 135.7 L 145.7 137.9 L 141.3 136.6 L 139.0 132.7 L 138.8 128.6 Z M 86.7 56.8 L 83.9 52.7 L 80.9 48.6 L 77.6 44.4 L 74.0 40.1 L 70.2 35.6 L 66.1 31.0 L 62.644549655914304 27.133186531066894 L 59.3 31.8 L 54.7 37.8 L 49.7 43.6 L 44.4 49.4 L 38.8 55.1 L 32.9 60.7 L 26.5 66.2 L 19.8 71.5 L 27.2 75.2 L 33.5 75.2 L 37.5 70.2 L 46.5 79.2 L 41.5 81.2 L 41.5 104.7 L 33.5 108.7 L 33.5 104.7 L 27.2 104.7 L 17.2 109.7 L 17.2 73.34166669845581 L 12.6 76.6 L 11.4 75.3 L 17.2 68.7 L 22.8 62.4 L 28.1 56.2 L 33.2 50.0 L 38.0 43.9 L 42.5 37.9 L 46.6 31.8 L 50.4 25.8 L 53.9 19.8 L 56.652819538116454 14.72448902130127 L 56.6 14.7 L 57.7 12.9 L 67.6 19.8 L 69.2 23.0 L 65.42325582504273 23.065116310119627 L 64.94592275619507 23.781115913391112 L 69.7 27.1 L 74.7 30.8 L 79.4 34.7 L 83.8 38.6 L 87.9 42.5 L 91.7 46.4 L 95.2 50.3 L 98.5 54.3 L 101.5 58.2 L 102.2 62.7 L 99.6 66.5 L 95.1 67.2 L 91.3 64.6 L 89.1 60.7 Z M 104.3 79.2 L 99.3 82.2 L 99.3 104.7 L 89.3 109.7 L 89.3 104.7 L 82.9 104.7 L 74.9 108.7 L 74.9 71.2 L 82.9 75.2 L 89.3 75.2 L 94.3 70.2 Z M 74.9 79.2 L 69.9 81.2 L 69.9 104.7 L 61.9 108.7 L 61.9 104.7 L 54.5 104.7 L 46.5 108.7 L 46.5 71.2 L 54.5 75.2 L 61.9 75.2 L 65.9 70.2 Z M 82.9 79.2 L 82.9 100.7 L 89.3 100.7 L 89.3 79.2 Z M 54.5 79.2 L 54.5 100.7 L 61.9 100.7 L 61.9 79.2 Z M 27.2 79.2 L 27.2 100.7 L 33.5 100.7 L 33.5 79.2 Z M 82.3 59.0 L 82.3 63.0 L 37.0 63.0 L 37.0 59.0 L 64.11818180084228 59.0 L 72.3 50.0 Z M 73.1 145.6 L 73.1 174.1 L 81.4 174.1 L 82.4 174.0 L 83.0 173.9 L 83.4 173.8 L 83.7 173.6 L 83.8 173.5 L 84.0 173.2 L 84.2 172.8 L 84.4 172.0 L 84.6 171.0 L 84.6 145.6 Z " />
</g>
</svg>
