<svg xmlns="http://www.w3.org/2000/svg" xmlns:xlink="http://www.w3.org/1999/xlink" version="1.1" baseProfile="full" viewBox="0 0 200 200" width="200" height="200">
<g fill="black">
<path d="M 173.0 177.0 L 171.5 179.1 L 169.9 180.9 L 167.9 182.5 L 165.8 183.8 L 163.5 184.8 L 161.2 185.4 L 158.7 185.8 L 156.1 186.0 L 156.1 180.0 L 136.1 177.0 L 136.1 174.0 L 156.1 174.0 L 157.5 173.9 L 158.6 173.7 L 159.5 173.4 L 160.3 173.1 L 161.0 172.7 L 161.6 172.2 L 162.2 171.6 L 162.7 170.8 L 163.3 169.8 L 163.8 168.5 L 164.7 165.0 L 165.7 159.8 L 166.6 153.0 L 167.3 144.7 L 168.0 135.0 L 168.5 123.8 L 169.0 111.2 L 169.3 97.2 L 169.5 81.8 L 169.5 67.0 L 159.28648653030396 67.0 L 158.7 82.5 L 157.3 99.8 L 155.1 115.7 L 152.1 130.4 L 148.3 143.7 L 143.7 155.6 L 138.3 166.1 L 132.0 175.2 L 124.9 182.8 L 117.1 188.7 L 116.0 187.2 L 122.2 180.2 L 127.6 172.2 L 132.4 163.1 L 136.6 152.8 L 140.1 141.2 L 143.0 128.4 L 145.1 114.3 L 146.6 98.8 L 147.4 82.1 L 147.4 67.0 L 130.0 67.0 L 130.0 63.0 L 147.4 63.0 L 147.4 18.0 L 159.4 20.0 L 162.4 22.0 L 159.4 23.8 L 159.4 63.0 L 169.5 63.0 L 175.5 58.0 L 186.5 67.0 L 181.5 70.0 L 181.5 81.9 L 181.3 97.4 L 181.0 111.6 L 180.5 124.3 L 180.0 135.7 L 179.3 145.7 L 178.5 154.3 L 177.5 161.6 L 176.4 167.6 L 175.1 172.5 L 174.1 174.8 Z M 13.4 163.0 L 19.0 161.0 L 24.5 159.0 L 29.9 157.0 L 35.3 155.1 L 36.4 154.70566034317017 L 36.4 110.0 L 17.9 110.0 L 17.9 106.0 L 36.4 106.0 L 36.4 62.0 L 26.508108139038086 62.0 L 25.9 64.5 L 24.0 71.7 L 21.8 78.7 L 19.4 85.5 L 16.6 92.0 L 13.5 98.2 L 11.8 97.7 L 14.2 84.1 L 15.4 77.1 L 16.5 70.1 L 17.6 62.9 L 18.5 55.5 L 19.3 48.0 L 19.9 40.4 L 20.4 32.5 L 20.7 24.5 L 20.76220836639404 24.504665660858155 L 20.9 22.3 L 32.7 25.4 L 35.6 27.6 L 32.225973987579344 29.28701295852661 L 31.7 33.6 L 30.6 41.6 L 29.2 49.4 L 27.7 57.1 L 27.481081104278566 58.0 L 36.4 58.0 L 36.4 15.0 L 48.4 17.0 L 51.4 19.0 L 48.4 20.8 L 48.4 58.0 L 52.077777767181395 58.0 L 58.3 51.0 L 66.3 58.0 L 66.3 62.0 L 48.4 62.0 L 48.4 106.0 L 51.2777777671814 106.0 L 57.5 99.0 L 65.5 106.0 L 65.5 110.0 L 48.4 110.0 L 48.4 150.51698112487793 L 51.1 149.6 L 56.2 147.9 L 61.4 146.4 L 66.6 145.1 L 67.4 146.8 L 63.0 149.9 L 58.4 152.8 L 53.7 155.6 L 48.9 158.3 L 44.0 161.0 L 39.0 163.6 L 33.9 166.3 L 23.5 171.5 L 21.850432300567626 172.29423627853393 L 21.1 176.1 L 18.1 174.1 L 11.6 163.8 Z M 82.5 156.0 L 71.5 161.5 L 71.5 23.5 L 82.5 29.0 L 116.4 29.0 L 121.9 24.0 L 132.4 33.0 L 127.4 36.5 L 127.4 150.0 L 116.4 155.5 L 116.4 144.0 L 82.5 144.0 Z M 82.5 89.0 L 82.5 140.0 L 94.8 140.0 L 94.8 89.0 Z M 104.8 89.0 L 104.8 140.0 L 116.4 140.0 L 116.4 89.0 Z M 82.5 33.0 L 82.5 85.0 L 94.8 85.0 L 94.8 33.0 Z M 104.8 33.0 L 104.8 85.0 L 116.4 85.0 L 116.4 33.0 Z " />
</g>
</svg>
