<svg xmlns="http://www.w3.org/2000/svg" xmlns:xlink="http://www.w3.org/1999/xlink" version="1.1" baseProfile="full" viewBox="0 0 200 200" width="200" height="200">
<g fill="black">
<path d="M 47.8 159.2 L 49.1 162.6 L 45.08509721755981 162.32311010360718 L 42.4 165.2 L 39.4 168.2 L 36.2 171.1 L 32.8 174.0 L 29.3 176.9 L 25.5 179.7 L 21.6 182.4 L 17.3 185.1 L 12.9 187.7 L 11.8 186.2 L 15.1 182.5 L 18.3 178.7 L 21.3 175.1 L 24.3 171.7 L 27.0 168.3 L 29.6 165.0 L 31.9 161.7 L 34.1 158.5 L 36.2 155.4 L 37.50106430053711 153.15927810668944 L 37.4 153.1 L 38.5 151.6 Z M 160.5 77.3 L 163.5 79.3 L 160.5 81.1 L 160.5 107.5 L 165.6 107.5 L 175.6 97.5 L 187.6 107.5 L 187.6 111.5 L 160.5 111.5 L 160.5 138.1 L 173.7 138.1 L 179.7 133.1 L 190.7 142.1 L 185.7 145.1 L 184.0542857170105 145.78571424484252 L 183.2 148.2 L 180.5 154.2 L 177.5 159.9 L 174.2 165.2 L 170.6 170.1 L 166.7 174.6 L 162.4 178.6 L 157.8 182.1 L 152.9 185.1 L 147.6 187.4 L 146.7 185.9 L 150.6 182.0 L 154.3 178.1 L 157.7 174.0 L 160.8 169.8 L 163.6 165.3 L 166.2 160.5 L 168.6 155.4 L 170.6 150.1 L 172.4 144.4 L 172.98474578857423 142.1 L 160.5 142.1 L 160.5 154.1 L 148.5 160.1 L 148.5 111.5 L 130.6 111.5 L 130.6 144.4 L 118.6 150.4 L 118.6 111.5 L 97.3 111.5 L 97.3 107.5 L 118.6 107.5 L 118.6 75.3 L 130.6 77.3 L 133.6 79.3 L 130.6 81.1 L 130.6 107.5 L 148.5 107.5 L 148.5 75.3 Z M 84.1 172.6 L 83.1 170.8 L 81.9 168.8 L 80.4 166.7 L 78.7 164.5 L 76.7 162.3 L 74.4 159.9 L 71.9 157.4 L 69.0 155.2 L 69.9 153.7 L 73.3 155.3 L 76.7 156.6 L 79.8 158.0 L 82.7 159.5 L 85.4 161.1 L 87.9 162.8 L 90.2 164.6 L 92.3 166.4 L 94.2 168.4 L 95.9 170.6 L 96.2 175.1 L 93.3 178.6 L 88.7 178.9 L 85.2 176.0 L 84.8 174.4 Z M 12.3 143.0 L 38.3 143.0 L 38.3 117.0 L 19.3 117.0 L 19.3 113.0 L 38.3 113.0 L 38.3 89.0 L 50.3 91.0 L 53.3 93.0 L 50.3 94.8 L 50.3 113.0 L 66.9 113.0 L 66.9 89.0 L 78.9 91.0 L 81.9 93.0 L 78.9 94.8 L 78.9 113.0 L 83.77777776718139 113.0 L 90.0 106.0 L 98.0 113.0 L 98.0 117.0 L 78.9 117.0 L 78.9 143.0 L 82.9 143.0 L 92.9 133.0 L 104.9 143.0 L 104.9 147.0 L 12.3 147.0 Z M 50.3 117.0 L 50.3 143.0 L 66.9 143.0 L 66.9 117.0 Z M 34.2 97.1 L 22.2 103.1 L 22.2 16.5 L 34.2 22.5 L 84.0 22.5 L 89.0 17.5 L 99.0 26.5 L 94.0 29.5 L 94.0 89.1 L 84.0 94.1 L 84.0 85.1 L 34.2 85.1 Z M 111.2 82.3 L 101.2 87.3 L 101.2 16.5 L 111.2 21.5 L 172.7 21.5 L 178.7 16.5 L 189.7 25.5 L 184.7 29.5 L 184.7 76.3 L 172.7 82.3 L 172.7 70.3 L 111.2 70.3 Z M 34.2 55.8 L 34.2 81.1 L 52.6 81.1 L 52.6 55.8 Z M 64.6 55.8 L 64.6 81.1 L 84.0 81.1 L 84.0 55.8 Z M 111.2 25.5 L 111.2 66.3 L 124.4 66.3 L 124.4 25.5 Z M 136.4 25.5 L 136.4 66.3 L 148.5 66.3 L 148.5 25.5 Z M 160.5 25.5 L 160.5 66.3 L 172.7 66.3 L 172.7 25.5 Z M 34.2 26.5 L 34.2 51.8 L 52.6 51.8 L 52.6 26.5 Z M 64.6 26.5 L 64.6 51.8 L 84.0 51.8 L 84.0 26.5 Z " />
</g>
</svg>
