<svg xmlns="http://www.w3.org/2000/svg" xmlns:xlink="http://www.w3.org/1999/xlink" version="1.1" baseProfile="full" viewBox="0 0 200 200" width="200" height="200">
<g fill="black">
<path d="M 151.4 179.3 L 149.5 180.7 L 147.5 182.0 L 145.4 183.0 L 143.2 183.9 L 140.9 184.6 L 138.6 185.1 L 136.2 185.4 L 133.8 185.5 L 133.8 179.5 L 113.8 176.5 L 113.8 173.5 L 133.8 173.5 L 135.2 173.4 L 136.7 173.2 L 138.0 173.0 L 139.2 172.6 L 140.4 172.1 L 141.5 171.5 L 142.7 170.8 L 143.7 170.0 L 144.8 169.1 L 145.8 168.0 L 147.9 165.2 L 149.8 161.4 L 151.6 156.8 L 153.2 151.2 L 154.5 144.7 L 155.5 137.3 L 156.3 129.0 L 156.7 119.8 L 156.9 109.8 L 156.8903920173645 108.7623366355896 L 156.8 108.8 L 156.8 100.8 L 116.34090909957885 100.8 L 116.3 101.1 L 112.9 115.5 L 108.3 129.0 L 102.5 141.5 L 95.5 152.9 L 87.2 163.4 L 77.8 172.7 L 67.1 180.9 L 55.3 187.8 L 54.4 186.3 L 64.8 177.9 L 74.0 168.8 L 82.1 159.2 L 89.1 148.8 L 94.9 137.7 L 99.6 125.7 L 103.2 113.0 L 105.44264707565307 100.8 L 58.6 100.8 L 58.6 96.8 L 105.94931507110596 96.8 L 107.1 84.8 L 107.4 69.4 L 107.4 63.9 L 58.6 63.9 L 58.6 59.9 L 161.3 59.9 L 171.3 49.9 L 183.3 59.9 L 183.3 63.9 L 119.4 63.9 L 119.4 69.4 L 118.4 85.7 L 116.88636360168456 96.8 L 156.8 96.8 L 162.8 91.8 L 173.8 100.8 L 168.8 103.8 L 168.79195232391356 103.80335321426392 L 168.9 109.8 L 168.7 120.2 L 168.3 129.8 L 167.5 138.6 L 166.3 146.7 L 164.8 154.0 L 163.0 160.5 L 160.8 166.3 L 158.1 171.5 L 154.8 175.9 L 153.2 177.7 Z M 12.7 122.0 L 15.4 121.2 L 18.3 120.3 L 21.4 119.2 L 24.6 117.9 L 27.9 116.5 L 31.3 114.9 L 34.9 113.2 L 38.6 111.4 L 41.900908660888675 109.79186496734619 L 42.0 98.0 L 42.0 31.0 L 54.0 37.0 L 104.0 37.0 L 104.0 12.0 L 116.0 14.0 L 119.0 16.0 L 116.0 17.8 L 116.0 37.0 L 164.0 37.0 L 174.0 27.0 L 186.0 37.0 L 186.0 41.0 L 54.0 41.0 L 54.0 98.0 L 53.3 110.5 L 52.0 122.3 L 49.9 133.4 L 47.2 143.7 L 43.7 153.2 L 39.5 161.9 L 34.6 169.8 L 28.9 176.7 L 22.6 182.7 L 15.5 187.7 L 14.4 186.2 L 19.9 180.0 L 24.7 173.4 L 29.0 166.3 L 32.7 158.6 L 35.7 150.2 L 38.2 141.2 L 40.0 131.5 L 41.3 121.0 L 41.6436749458313 114.64201288223266 L 41.2 115.1 L 38.1 118.0 L 35.1 120.7 L 32.0 123.2 L 29.0 125.6 L 26.0 127.7 L 23.0 129.7 L 21.009677410125732 130.89419355392457 L 20.1 135.2 L 17.1 133.1 L 10.8 122.8 Z M 24.3 76.9 L 23.6 73.9 L 22.7 70.9 L 21.7 68.1 L 20.5 65.4 L 19.2 62.7 L 17.8 60.1 L 16.2 57.5 L 14.2 55.3 L 15.3 53.8 L 18.0 55.5 L 20.8 57.2 L 23.5 59.2 L 26.0 61.5 L 28.3 64.1 L 30.4 67.0 L 32.3 70.1 L 34.1 73.4 L 35.7 76.9 L 37.1 80.6 L 36.3 85.1 L 32.6 87.9 L 28.1 87.1 L 25.4 83.4 L 24.9 80.1 Z " />
</g>
</svg>
