<svg xmlns="http://www.w3.org/2000/svg" xmlns:xlink="http://www.w3.org/1999/xlink" version="1.1" baseProfile="full" viewBox="0 0 200 200" width="200" height="200">
<g fill="black">
<path d="M 11.5 121.0 L 14.1 120.3 L 16.8 119.4 L 19.6 118.3 L 22.5 117.0 L 25.5 115.6 L 28.6 114.0 L 31.9 112.3 L 35.3 110.5 L 35.901788330078126 110.18238945007325 L 36.0 108.3 L 36.0 28.0 L 48.0 34.0 L 101.0 34.0 L 101.0 12.0 L 113.0 14.0 L 116.0 16.0 L 113.0 17.8 L 113.0 34.0 L 164.0 34.0 L 174.0 24.0 L 186.0 34.0 L 186.0 38.0 L 48.0 38.0 L 48.0 96.0 L 47.3 108.8 L 46.1 120.9 L 44.2 132.3 L 41.7 142.8 L 38.5 152.5 L 34.6 161.4 L 30.1 169.4 L 24.9 176.5 L 19.1 182.6 L 12.5 187.6 L 11.4 186.3 L 16.2 180.1 L 20.6 173.4 L 24.4 166.2 L 27.7 158.4 L 30.4 149.9 L 32.6 140.6 L 34.3 130.6 L 35.4 119.8 L 35.566769218444826 116.60358972549439 L 35.3 116.9 L 32.6 119.6 L 29.9 122.1 L 27.1 124.4 L 24.4 126.6 L 21.7 128.6 L 20.105434799194335 129.66304349899292 L 19.3 134.0 L 16.2 132.1 L 9.7 121.8 Z M 104.4 175.5 L 103.1 177.6 L 101.6 179.6 L 99.9 181.4 L 97.9 182.9 L 95.8 184.2 L 93.5 185.1 L 91.1 185.8 L 88.7 186.2 L 86.2 186.3 L 86.2 180.3 L 66.2 177.3 L 66.2 174.3 L 86.2 174.3 L 87.5 174.2 L 88.6 174.0 L 89.6 173.8 L 90.5 173.4 L 91.2 173.0 L 91.8 172.5 L 92.3382978439331 171.9617021560669 L 93.7 168.6 L 96.3 161.8 L 98.3 154.9 L 98.90720911026001 151.40854787826538 L 95.4 154.2 L 90.2 157.9 L 84.7 161.4 L 78.9 164.6 L 72.7 167.6 L 66.3 170.3 L 59.5 172.6 L 52.4 174.6 L 51.7 172.9 L 58.0 169.2 L 63.9 165.5 L 69.6 161.8 L 74.9 158.1 L 79.9 154.4 L 84.5 150.5 L 88.9 146.5 L 92.9 142.5 L 96.5 138.3 L 99.9 134.1 L 100.00945787429809 134.19042167663574 L 100.0 133.5 L 99.1 126.0 L 98.61455812454224 123.50806493759156 L 96.7 125.2 L 92.2 128.8 L 87.6 132.2 L 82.7 135.4 L 77.7 138.4 L 72.4 141.2 L 67.0 143.7 L 61.4 145.9 L 55.5 147.7 L 54.7 146.1 L 59.6 142.5 L 64.4 139.0 L 69.0 135.6 L 73.4 132.1 L 77.7 128.6 L 81.8 124.9 L 85.7 121.2 L 89.4 117.4 L 92.9 113.5 L 95.39851093292236 110.39578943252563 L 92.5 102.2 L 92.0000566482544 100.93543729782104 L 91.8 101.1 L 85.6 105.9 L 79.2 110.3 L 72.7 114.3 L 66.1 117.8 L 59.3 120.8 L 52.5 123.2 L 51.7 121.6 L 57.5 117.5 L 63.3 113.2 L 69.0 108.9 L 74.6 104.2 L 80.2 99.3 L 85.7 94.2 L 91.1 88.7 L 94.16924848556519 85.3411997795105 L 90.0 84.6 L 87.4 80.8 L 87.4 79.1 L 87.2 77.4 L 86.9 75.7 L 86.4 74.0 L 85.6 72.2 L 84.7 70.4 L 83.6 68.6 L 82.2 66.7 L 81.31824712753296 65.71451148986816 L 80.0 66.4 L 74.9 68.7 L 69.7 70.7 L 64.3 72.6 L 58.8 74.1 L 53.1 75.2 L 52.5 73.5 L 57.4 70.5 L 62.1 67.7 L 66.8 64.8 L 71.4 62.0 L 75.8 59.0 L 80.1 55.9 L 84.3 52.8 L 92.3 46.2 L 95.3707992553711 43.371632194519044 L 95.3 43.3 L 96.2 42.6 L 103.8 51.9 L 104.2 55.4 L 100.61816444396973 54.162638664245605 L 99.3 55.1 L 94.6 58.2 L 89.9 61.1 L 85.0 63.8 L 84.8875 63.8585000038147 L 86.8 64.7 L 89.1 66.0 L 91.2 67.5 L 93.2 69.2 L 95.0 71.2 L 96.6 73.3 L 97.9 75.7 L 99.1 78.3 L 98.71225490570069 80.23872547149658 L 101.7 76.8 L 106.23192262649536 71.22224912643432 L 106.2 71.2 L 107.3 69.9 L 116.1 78.1 L 117.1 81.6 L 113.40238037109376 81.02623147964478 L 110.2 84.5 L 104.1 90.4 L 98.0 96.0 L 94.90655393600464 98.54460887908935 L 96.2 100.3 L 100.8 108.1 L 104.5 116.1 L 104.88637990951538 117.21774196624756 L 105.2 117.5 L 105.03644857406616 117.65186920166016 L 107.3 124.2 L 109.2 132.3 L 110.3 140.5 L 110.5 148.8 L 109.9 157.0 L 108.4 165.2 L 105.9 173.4 L 105.25674505233765 173.52948637008666 Z M 168.8 178.5 L 167.1 180.3 L 165.3 181.9 L 163.3 183.3 L 161.1 184.4 L 158.8 185.2 L 156.5 185.8 L 154.0 186.2 L 151.5 186.3 L 151.5 180.3 L 131.5 177.3 L 131.5 174.3 L 151.5 174.3 L 152.9 174.2 L 154.2 174.0 L 155.3 173.8 L 156.3 173.4 L 157.2 172.9 L 158.0 172.4 L 158.8 171.7 L 159.6 170.8 L 160.4 169.8 L 161.1 168.6 L 162.6 165.4 L 164.1 160.7 L 165.5 154.9 L 166.8 147.8 L 168.0 139.5 L 169.0 130.0 L 169.8 119.4 L 170.5 107.6 L 171.1 94.8 L 171.43758869171143 82.9 L 130.92878789901732 82.9 L 130.6 83.6 L 127.2 89.8 L 123.7 95.7 L 119.8 101.2 L 115.7 106.2 L 111.3 110.7 L 109.9 109.7 L 112.6 104.1 L 115.2 98.4 L 117.9 92.6 L 120.4 86.5 L 122.8 80.2 L 125.1 73.6 L 127.2 66.8 L 129.1 59.7 L 131.0 52.3 L 132.6 44.5 L 132.65568113327026 44.51380128860474 L 133.1 42.8 L 144.3 47.4 L 146.7 50.0 L 143.15796060562133 51.15921287536621 L 141.9 55.3 L 139.4 62.8 L 136.7 70.1 L 133.7 77.0 L 132.80757579803466 78.9 L 171.5 78.9 L 177.5 73.9 L 188.5 82.9 L 183.5 85.9 L 183.3603325843811 85.95819473266602 L 183.1 95.2 L 182.5 108.3 L 181.8 120.2 L 180.9 131.1 L 179.9 140.9 L 178.7 149.7 L 177.3 157.3 L 175.6 164.0 L 173.8 169.7 L 171.6 174.4 L 170.3 176.6 Z M 160.0 125.3 L 160.0 129.3 L 115.2 129.3 L 115.2 125.3 L 141.8181818008423 125.3 L 150.0 116.3 Z M 71.9 89.8 L 71.8 88.3 L 71.5 86.7 L 70.9 85.0 L 70.2 83.3 L 69.2 81.4 L 68.0 79.4 L 66.6 77.3 L 64.6 75.6 L 65.6 74.1 L 67.9 75.5 L 70.4 76.6 L 72.7 77.8 L 74.8 79.2 L 76.7 80.7 L 78.5 82.4 L 80.1 84.3 L 81.5 86.4 L 82.6 88.6 L 83.5 91.0 L 82.2 95.4 L 78.3 97.7 L 73.9 96.4 L 71.6 92.5 L 71.8 91.2 Z M 21.7 73.7 L 21.1 70.7 L 20.3 67.8 L 19.4 65.0 L 18.4 62.3 L 17.1 59.7 L 15.7 57.1 L 14.2 54.5 L 12.2 52.3 L 13.3 50.8 L 16.0 52.5 L 18.8 54.2 L 21.4 56.3 L 23.9 58.6 L 26.1 61.2 L 28.1 64.1 L 30.0 67.2 L 31.6 70.6 L 33.0 74.1 L 34.3 77.9 L 33.3 82.3 L 29.5 84.9 L 25.0 83.9 L 22.5 80.1 L 22.2 76.8 Z " />
</g>
</svg>
