<svg xmlns="http://www.w3.org/2000/svg" xmlns:xlink="http://www.w3.org/1999/xlink" version="1.1" baseProfile="full" viewBox="0 0 200 200" width="200" height="200">
<g fill="black">
<path d="M 12.7 122.0 L 15.4 121.2 L 18.3 120.3 L 21.4 119.2 L 24.6 117.9 L 27.9 116.5 L 31.3 114.9 L 34.9 113.2 L 38.6 111.4 L 42.40296411514282 109.54727392196655 L 42.5 98.0 L 42.5 31.5 L 53.5 37.0 L 164.0 37.0 L 174.0 27.0 L 186.0 37.0 L 186.0 41.0 L 53.5 41.0 L 53.5 98.0 L 52.8 110.5 L 51.5 122.2 L 49.5 133.3 L 46.8 143.6 L 43.3 153.1 L 39.2 161.7 L 34.3 169.6 L 28.8 176.6 L 22.4 182.6 L 15.5 187.6 L 14.4 186.3 L 20.0 180.2 L 24.9 173.5 L 29.2 166.4 L 32.9 158.7 L 36.1 150.3 L 38.6 141.3 L 40.5 131.6 L 41.7 121.1 L 42.13534479141235 114.13448276519776 L 41.2 115.1 L 38.1 118.0 L 35.1 120.7 L 32.0 123.2 L 29.0 125.6 L 26.0 127.7 L 23.0 129.7 L 21.009677410125732 130.89419355392457 L 20.1 135.2 L 17.1 133.1 L 10.8 122.8 Z M 54.2 180.7 L 72.6 180.7 L 72.6 125.0 L 84.6 131.0 L 155.3 131.0 L 161.3 126.0 L 172.3 135.0 L 167.3 139.0 L 167.3 180.7 L 171.4777777671814 180.7 L 177.7 173.7 L 185.7 180.7 L 185.7 184.7 L 54.2 184.7 Z M 84.6 135.0 L 84.6 180.7 L 100.2 180.7 L 100.2 135.0 Z M 112.2 135.0 L 112.2 180.7 L 127.7 180.7 L 127.7 135.0 Z M 139.7 135.0 L 139.7 180.7 L 155.3 180.7 L 155.3 135.0 Z M 106.6 49.3 L 109.6 51.3 L 106.6 53.1 L 106.6 118.4 L 94.6 124.4 L 94.6 47.3 Z M 155.8 111.6 L 154.9 109.1 L 153.8 106.6 L 152.5 104.2 L 150.9 101.7 L 149.0 99.1 L 146.9 96.6 L 144.5 94.0 L 141.7 91.7 L 142.6 90.1 L 146.0 91.7 L 149.4 93.2 L 152.6 95.0 L 155.6 97.0 L 158.3 99.2 L 160.8 101.5 L 163.1 104.1 L 165.1 106.9 L 166.9 109.9 L 168.4 113.0 L 167.9 117.5 L 164.4 120.5 L 159.8 120.0 L 156.9 116.5 L 156.5 114.0 Z M 77.3 56.4 L 80.1 58.4 L 77.3 60.15 L 77.3 113.3 L 66.3 118.8 L 66.3 54.4 Z M 144.1 49.1 L 146.6 51.6 L 143.1234375 52.9519965171814 L 142.3 56.2 L 140.4 63.0 L 138.3 69.6 L 135.9 75.9 L 135.4081967353821 77.1 L 159.0 77.1 L 169.0 67.1 L 181.0 77.1 L 181.0 81.1 L 133.76885242462157 81.1 L 133.4 82.0 L 130.6 87.9 L 127.6 93.5 L 124.4 98.8 L 120.9 103.7 L 117.0 108.3 L 115.4 107.3 L 117.6 101.8 L 119.6 96.3 L 121.7 90.7 L 123.6 85.0 L 125.4 79.1 L 127.1 73.0 L 128.6 66.8 L 130.0 60.4 L 131.2 53.8 L 132.13994293212892 47.90399427413941 L 132.1 47.9 L 132.6 45.0 Z M 24.3 76.9 L 23.6 73.9 L 22.7 70.9 L 21.7 68.1 L 20.5 65.4 L 19.2 62.7 L 17.8 60.1 L 16.2 57.5 L 14.2 55.3 L 15.3 53.8 L 18.0 55.5 L 20.8 57.2 L 23.5 59.2 L 26.0 61.5 L 28.3 64.1 L 30.4 67.0 L 32.3 70.1 L 34.1 73.4 L 35.7 76.9 L 37.1 80.6 L 36.3 85.1 L 32.6 87.9 L 28.1 87.1 L 25.4 83.4 L 24.9 80.1 Z M 107.6 28.9 L 106.9 27.2 L 106.0 25.4 L 104.9 23.6 L 103.5 21.7 L 101.9 19.8 L 100.1 17.8 L 98.0 15.8 L 95.5 14.2 L 96.2 12.6 L 99.1 13.7 L 102.1 14.5 L 104.9 15.5 L 107.5 16.8 L 109.9 18.2 L 112.2 19.7 L 114.3 21.5 L 116.2 23.5 L 118.0 25.6 L 119.5 28.0 L 119.3 32.6 L 116.0 35.8 L 111.5 35.6 L 108.3 32.3 L 108.0 30.6 Z " />
</g>
</svg>
