<svg xmlns="http://www.w3.org/2000/svg" xmlns:xlink="http://www.w3.org/1999/xlink" version="1.1" baseProfile="full" viewBox="0 0 200 200" width="200" height="200">
<g fill="black">
<path d="M 89.1 153.9 L 86.9 150.5 L 85.03518161773681 148.01357555389404 L 85.0 148.1 L 79.8 158.4 L 74.0 167.7 L 67.5 175.8 L 60.4 182.8 L 52.7 188.6 L 51.5 187.2 L 57.7 180.2 L 63.3 172.5 L 68.4 164.2 L 73.0 155.0 L 77.2 144.9 L 78.49111108779907 140.84222221374512 L 75.7 138.4 L 72.3 135.6 L 70.2672908782959 134.11667165756225 L 69.1 141.3 L 56.3 145.4 L 66.34769229888916 83.2 L 55.8 83.2 L 55.8 79.2 L 66.9938461303711 79.2 L 73.1 41.4 L 84.7 45.3 L 87.3 47.8 L 84.13866567611694 48.754365062713624 L 79.19125003814698 79.2 L 89.7 79.2 L 95.7 74.2 L 106.7 83.2 L 101.7 86.2 L 101.05497379302979 86.46876087188721 L 99.6 97.0 L 96.9 111.2 L 93.5 124.5 L 89.6 136.8 L 88.65842218399048 139.11300640106202 L 91.0 140.9 L 94.5 144.1 L 97.7 147.6 L 100.7 151.5 L 103.4 155.6 L 103.8 160.1 L 100.9 163.6 L 96.3 164.0 L 92.8 161.1 L 91.1 157.4 Z M 12.7 122.0 L 15.4 121.2 L 18.3 120.3 L 21.4 119.2 L 24.6 117.9 L 27.9 116.5 L 31.3 114.9 L 34.9 113.2 L 38.6 111.4 L 41.900908660888675 109.79186496734619 L 42.0 98.0 L 42.0 31.0 L 54.0 37.0 L 104.0 37.0 L 104.0 12.0 L 116.0 14.0 L 119.0 16.0 L 116.0 17.8 L 116.0 37.0 L 164.0 37.0 L 174.0 27.0 L 186.0 37.0 L 186.0 41.0 L 141.26800003051758 41.0 L 144.9034782409668 46.42608699798584 L 148.3 50.2 L 148.4 53.7 L 144.6425742149353 52.128712844848636 L 144.5 52.2 L 141.1 53.7 L 137.5 55.1 L 136.1 55.578947353363034 L 136.1 73.3 L 146.3 73.3 L 146.3 60.410526275634766 L 143.1 61.0 L 142.6 59.3 L 146.0 57.7 L 146.3 57.5125 L 146.3 57.4 L 146.4800000190735 57.4 L 149.2 55.7 L 152.3 53.9 L 155.3 52.1 L 158.1 50.3 L 160.8 48.5 L 163.3 46.7 L 165.7 45.0 L 168.0 43.2 L 169.3400361061096 42.05139760971069 L 169.3 42.0 L 169.34442462921143 42.04763603210449 L 170.1 41.4 L 173.28294143676757 46.27086486816406 L 177.6 50.9 L 177.7 54.4 L 173.8814606666565 52.763483142852785 L 173.8 52.8 L 170.8 54.1 L 164.6 56.3 L 161.3 57.3 L 157.9 58.3 L 156.3 58.665714263916016 L 156.3 73.3 L 162.9 73.3 L 172.9 63.3 L 184.9 73.3 L 184.9 77.3 L 156.3 77.3 L 156.3 91.0 L 167.2 91.0 L 172.7 86.0 L 183.2 95.0 L 178.2 98.5 L 178.2 109.4 L 178.3 109.4 L 182.8 103.4 L 188.8 109.4 L 188.8 113.4 L 178.2 113.4 L 178.2 133.9 L 167.2 139.4 L 167.2 131.9 L 156.3 131.9 L 156.3 132.75 L 158.2 135.6 L 161.3 140.4 L 164.4 145.1 L 167.6 149.5 L 170.8 153.6 L 174.0 157.5 L 177.3 161.1 L 180.7 164.4 L 184.2 167.5 L 187.7 170.3 L 189.9 172.2 L 179.1 180.3 L 175.4 176.4 L 172.0 172.4 L 168.8 168.1 L 165.8 163.5 L 163.0 158.8 L 160.4 153.8 L 158.1 148.5 L 156.3 143.78571424484252 L 156.3 182.9 L 146.3 187.9 L 146.3 131.9 L 136.1 131.9 L 136.1 182.6 L 125.1 188.1 L 125.1 151.2555555343628 L 124.9 151.6 L 121.0 157.5 L 116.9 163.0 L 112.4 168.2 L 107.6 172.9 L 102.6 177.3 L 97.1 181.1 L 91.4 184.4 L 90.3 182.9 L 94.7 178.2 L 98.8 173.4 L 102.8 168.5 L 106.5 163.4 L 110.0 158.1 L 113.2 152.6 L 116.1 146.8 L 118.8 140.8 L 121.3 134.5 L 122.09130430221558 131.9 L 106.9 131.9 L 106.9 127.9 L 125.1 127.9 L 125.1 113.4 L 102.3 113.4 L 102.3 109.4 L 125.1 109.4 L 125.1 95.0 L 108.4 95.0 L 108.4 91.0 L 125.1 91.0 L 125.1 77.3 L 103.9 77.3 L 103.9 73.3 L 125.1 73.3 L 125.1 58.74444446563721 L 120.8 59.7 L 116.0 60.6 L 110.9 61.2 L 105.6 61.9 L 105.2 60.2 L 110.0 58.1 L 114.6 56.0 L 118.9 53.9 L 122.9 52.0 L 126.6 50.0 L 130.1 48.1 L 133.3 46.2 L 136.1 44.4 L 138.7 42.5 L 140.22927236557007 41.23668804168701 L 140.2 41.2 L 140.2314214706421 41.23491268157959 L 140.51578950881958 41.0 L 54.0 41.0 L 54.0 98.0 L 53.3 110.5 L 52.0 122.3 L 49.9 133.4 L 47.2 143.7 L 43.7 153.2 L 39.5 161.9 L 34.6 169.8 L 28.9 176.7 L 22.6 182.7 L 15.5 187.7 L 14.4 186.2 L 19.9 180.0 L 24.7 173.4 L 29.0 166.3 L 32.7 158.6 L 35.7 150.2 L 38.2 141.2 L 40.0 131.5 L 41.3 121.0 L 41.6436749458313 114.64201288223266 L 41.2 115.1 L 38.1 118.0 L 35.1 120.7 L 32.0 123.2 L 29.0 125.6 L 26.0 127.7 L 23.0 129.7 L 21.009677410125732 130.89419355392457 L 20.1 135.2 L 17.1 133.1 L 10.8 122.8 Z M 78.54125003814697 83.2 L 70.92402334213257 130.07524099349976 L 74.7 131.2 L 79.1 133.2 L 80.66233768463135 134.01836738586425 L 80.7 133.9 L 83.8 122.0 L 86.3 109.2 L 88.3 95.4 L 89.53648653030396 83.2 Z M 136.1 113.4 L 136.1 127.9 L 146.3 127.9 L 146.3 113.4 Z M 156.3 113.4 L 156.3 127.9 L 167.2 127.9 L 167.2 113.4 Z M 136.1 95.0 L 136.1 109.4 L 146.3 109.4 L 146.3 95.0 Z M 156.3 95.0 L 156.3 109.4 L 167.2 109.4 L 167.2 95.0 Z M 136.1 77.3 L 136.1 91.0 L 146.3 91.0 L 146.3 77.3 Z M 24.3 76.9 L 23.6 73.9 L 22.7 70.9 L 21.7 68.1 L 20.5 65.4 L 19.2 62.7 L 17.8 60.1 L 16.2 57.5 L 14.2 55.3 L 15.3 53.8 L 18.0 55.5 L 20.8 57.2 L 23.5 59.2 L 26.0 61.5 L 28.3 64.1 L 30.4 67.0 L 32.3 70.1 L 34.1 73.4 L 35.7 76.9 L 37.1 80.6 L 36.3 85.1 L 32.6 87.9 L 28.1 87.1 L 25.4 83.4 L 24.9 80.1 Z " />
</g>
</svg>
