<svg xmlns="http://www.w3.org/2000/svg" xmlns:xlink="http://www.w3.org/1999/xlink" version="1.1" baseProfile="full" viewBox="0 0 200 200" width="200" height="200">
<g fill="black">
<path d="M 179.0 176.0 L 179.0 180.0 L 18.0 180.0 L 18.0 176.0 L 157.0 176.0 L 167.0 166.0 Z M 104.1 27.4 L 99.1 30.4 L 96.83982610702515 31.341739177703857 L 92.8 39.7 L 86.4 51.1 L 79.3 61.8 L 71.7 72.0 L 63.4 81.5 L 57.63333330154419 87.26666669845581 L 66.9 91.9 L 135.0 91.9 L 141.0 86.9 L 152.0 95.9 L 147.0 99.9 L 147.0 151.0 L 135.0 157.0 L 135.0 145.0 L 66.9 145.0 L 66.9 157.0 L 54.9 163.0 L 54.9 90.0 L 54.6 90.3 L 45.2 98.5 L 35.1 106.0 L 24.4 112.7 L 13.2 118.5 L 12.3 117.0 L 22.3 109.5 L 31.9 101.7 L 40.8 93.6 L 49.2 85.0 L 57.0 75.9 L 64.3 66.4 L 70.9 56.3 L 77.0 45.7 L 82.6 34.6 L 85.64137935638428 27.4 L 33.3 27.4 L 33.3 23.4 L 87.1 23.4 L 87.45654106140137 23.10288248062134 L 87.5 23.0 L 87.5530466079712 23.022461128234863 L 93.1 18.4 Z M 66.9 95.9 L 66.9 141.0 L 135.0 141.0 L 135.0 95.9 Z M 155.2 97.1 L 146.0 88.9 L 137.5 80.1 L 129.9 70.6 L 123.1 60.4 L 117.2 49.6 L 112.2 38.1 L 108.2 26.1 L 105.2 13.4 L 107.0 12.9 L 112.1 24.6 L 117.6 35.7 L 123.5 46.1 L 128.89755268096923 54.032766819000244 L 129.5 53.0 L 132.1 48.4 L 134.7 44.1 L 137.1 40.1 L 139.4 36.3 L 141.5 32.7 L 143.5 29.4 L 145.3 26.2 L 146.9 23.3 L 147.8038649559021 21.55683183670044 L 147.7 21.5 L 148.24246578216554 20.710958862304686 L 148.3 20.6 L 148.312836933136 20.60860080718994 L 148.8 19.9 L 158.3 27.3 L 159.6 30.6 L 155.61389961242676 30.46254825592041 L 153.9 32.4 L 151.5 35.2 L 148.8 38.1 L 145.9 41.2 L 142.8 44.5 L 139.5 47.9 L 136.0 51.5 L 132.1 55.1 L 130.6411241531372 56.4859320640564 L 137.2 64.8 L 144.82063932418822 72.90914192199708 L 145.2 72.4 L 148.7 67.6 L 152.1 63.2 L 155.3 59.0 L 158.2 55.2 L 160.9 51.6 L 163.4 48.3 L 165.5 45.2 L 167.5 42.5 L 168.60558519363403 40.77252311706543 L 168.5 40.7 L 169.5 39.4 L 178.4 47.5 L 179.5 50.9 L 175.59224996566772 50.36099996566772 L 173.6 52.2 L 170.8 54.9 L 167.7 57.7 L 164.3 60.8 L 160.7 64.1 L 156.7 67.5 L 152.4 71.2 L 147.7 74.9 L 147.31842851638794 75.19762573242187 L 153.4 80.7 L 162.4 87.8 L 172.1 94.1 L 182.5 99.8 L 187.4 102.5 L 176.2 111.5 L 165.3 104.6 Z M 45.7 65.5 L 43.8 62.4 L 41.8 59.4 L 39.6 56.5 L 37.4 53.7 L 35.0 51.0 L 29.8 45.6 L 26.9 43.1 L 27.7 41.6 L 31.4 43.0 L 35.1 44.5 L 38.6 46.4 L 42.0 48.5 L 45.2 50.9 L 48.3 53.5 L 51.3 56.3 L 54.2 59.3 L 56.9 62.5 L 59.5 65.9 L 60.1 70.4 L 57.4 74.1 L 52.8 74.7 L 49.1 72.0 L 47.5 68.7 Z " />
</g>
</svg>
