<svg xmlns="http://www.w3.org/2000/svg" xmlns:xlink="http://www.w3.org/1999/xlink" version="1.1" baseProfile="full" viewBox="0 0 200 200" width="200" height="200">
<g fill="black">
<path d="M 114.1 28.0 L 165.8 28.0 L 171.8 23.0 L 182.8 32.0 L 177.8 36.0 L 177.8 176.0 L 165.8 182.0 L 165.8 170.0 L 114.1 170.0 L 114.1 182.0 L 102.1 188.0 L 102.1 22.0 Z M 57.31682300567627 19.849906158447265 L 56.7 48.4 L 56.14946231842041 58.0 L 82.8 58.0 L 88.8 53.0 L 99.8 62.0 L 94.8 65.0 L 94.8 77.2 L 94.6 93.1 L 94.4 107.4 L 94.0 120.2 L 93.5 131.6 L 93.0 141.5 L 92.3 150.0 L 91.5 157.1 L 90.5 162.8 L 89.4 167.4 L 88.4 169.7 L 87.3 172.0 L 85.9 174.0 L 84.2 175.9 L 82.3 177.4 L 80.2 178.7 L 77.9 179.7 L 75.5 180.4 L 73.0 180.8 L 70.5 181.0 L 70.5 175.0 L 52.5 172.0 L 52.5 169.0 L 70.5 169.0 L 71.8 168.9 L 72.9 168.7 L 73.9 168.4 L 74.6 168.1 L 75.3 167.7 L 75.9 167.2 L 76.4 166.6 L 77.0 165.8 L 77.5 164.8 L 78.0 163.6 L 78.8 160.4 L 79.6 155.5 L 80.3 148.9 L 81.0 140.7 L 81.5 131.0 L 82.0 119.8 L 82.4 107.1 L 82.6 92.9 L 82.8 77.2 L 82.8 62.0 L 55.92007169723511 62.0 L 55.1 76.3 L 52.6 100.0 L 49.3 120.1 L 44.9 136.9 L 39.6 150.8 L 33.3 162.4 L 25.9 171.8 L 17.5 179.4 L 8.2 185.7 L 7.2 184.2 L 15.0 176.6 L 21.8 168.4 L 27.6 159.0 L 32.6 147.9 L 36.8 134.5 L 40.1 118.4 L 42.7 98.9 L 44.4 75.6 L 44.84509086608887 62.0 L 12.4 62.0 L 12.4 58.0 L 44.976000022888186 58.0 L 45.3 48.1 L 45.4 16.0 L 45.4 13.6 L 57.4 16.0 L 60.4 18.0 Z M 114.1 122.0 L 114.1 166.0 L 165.8 166.0 L 165.8 122.0 Z M 114.1 77.0 L 114.1 118.0 L 165.8 118.0 L 165.8 77.0 Z M 114.1 32.0 L 114.1 73.0 L 165.8 73.0 L 165.8 32.0 Z " />
</g>
</svg>
