<svg xmlns="http://www.w3.org/2000/svg" xmlns:xlink="http://www.w3.org/1999/xlink" version="1.1" baseProfile="full" viewBox="0 0 200 200" width="200" height="200">
<g fill="black">
<path d="M 125.0 185.2 L 105.2 184.0 L 89.1 182.0 L 76.2 179.2 L 66.0 175.7 L 58.3 171.4 L 52.8 166.2 L 49.3 160.4 L 47.952538299560544 155.75874290466308 L 46.7 157.4 L 43.9 161.2 L 41.1 164.8 L 38.2 168.1 L 35.3 171.3 L 32.5 174.4 L 26.8 180.1 L 24.528635025024414 182.28724031448365 L 24.7 186.4 L 21.3 185.2 L 12.6 176.7 L 14.2 175.5 L 17.2 173.7 L 20.3 171.8 L 23.4 169.7 L 26.6 167.6 L 30.0 165.3 L 33.4 162.9 L 36.9 160.3 L 40.6 157.7 L 44.4 155.1 L 48.3 152.3 L 49.6 153.6 L 49.43859395980835 153.81149759292603 L 52.8 158.2 L 56.9 162.0 L 62.1 165.2 L 66.94937601089478 167.09758186340332 L 73.5 164.0 L 85.8 158.0 L 97.4 152.2 L 108.5 146.5 L 118.8 140.8 L 128.5 135.2 L 137.5 129.6 L 145.8 124.0 L 153.5 118.4 L 159.7210662841797 113.4231469154358 L 159.7 113.4 L 160.5 112.8 L 167.8 122.3 L 168.1 125.9 L 164.60483121871948 124.54076766967773 L 160.1 127.7 L 151.7 133.0 L 142.7 138.2 L 133.0 143.3 L 122.7 148.4 L 111.8 153.3 L 100.2 158.2 L 87.9 163.0 L 74.9 167.5 L 71.65125160217285 168.52717781066895 L 78.3 170.1 L 90.5 171.8 L 106.0 173.0 L 125.3 173.4 L 148.7 173.2 L 176.8 172.4 L 188.3 172.0 L 177.1 185.5 L 148.8 185.8 Z M 53.5 141.0 L 51.9 138.7 L 49.9 136.2 L 47.4 133.6 L 44.4 130.8 L 41.0 127.9 L 37.3 124.8 L 33.1 121.5 L 28.4 118.2 L 29.3 116.6 L 34.6 118.7 L 39.7 120.7 L 44.3 122.8 L 48.5 125.0 L 52.3 127.2 L 55.8 129.5 L 58.9 131.9 L 61.6 134.3 L 64.0 136.8 L 66.0 139.6 L 66.2 144.1 L 63.3 147.6 L 58.7 147.9 L 55.2 145.0 L 54.6 143.1 Z M 99.2 131.0 L 98.0 128.8 L 96.4 126.4 L 94.3 123.8 L 91.7 121.1 L 88.8 118.1 L 85.4 115.0 L 81.6 111.6 L 77.3 108.2 L 78.3 106.7 L 83.2 109.0 L 87.9 111.2 L 92.2 113.4 L 96.0 115.7 L 99.5 117.9 L 102.6 120.2 L 105.4 122.5 L 107.8 124.8 L 109.8 127.3 L 111.5 130.0 L 111.3 134.6 L 108.0 137.8 L 103.5 137.6 L 100.3 134.3 L 100.0 132.8 Z M 52.0 21.1 L 148.0 21.1 L 154.0 16.1 L 165.0 25.1 L 160.0 29.1 L 160.0 103.7 L 148.0 109.7 L 148.0 103.7 L 52.0 103.7 L 52.0 106.7 L 40.0 112.7 L 40.0 15.1 Z M 52.0 76.4 L 52.0 99.7 L 148.0 99.7 L 148.0 76.4 Z M 52.0 50.7 L 52.0 72.4 L 148.0 72.4 L 148.0 50.7 Z M 52.0 25.1 L 52.0 46.7 L 148.0 46.7 L 148.0 25.1 Z " />
</g>
</svg>
