<svg xmlns="http://www.w3.org/2000/svg" xmlns:xlink="http://www.w3.org/1999/xlink" version="1.1" baseProfile="full" viewBox="0 0 200 200" width="200" height="200">
<g fill="black">
<path d="M 14.0 176.0 L 40.0 176.0 L 40.0 129.6 L 52.0 135.6 L 148.0 135.6 L 154.0 130.6 L 165.0 139.6 L 160.0 143.6 L 160.0 176.0 L 164.0 176.0 L 174.0 166.0 L 186.0 176.0 L 186.0 180.0 L 14.0 180.0 Z M 52.0 139.6 L 52.0 176.0 L 76.0 176.0 L 76.0 139.6 Z M 88.0 139.6 L 88.0 176.0 L 112.0 176.0 L 112.0 139.6 Z M 124.0 139.6 L 124.0 176.0 L 148.0 176.0 L 148.0 139.6 Z M 90.9 23.6 L 90.9 27.6 L 65.8 27.6 L 65.8 44.8 L 76.0 44.8 L 81.0 39.8 L 91.0 48.8 L 86.0 51.8 L 86.0 119.3 L 76.0 124.3 L 76.0 117.3 L 33.6 117.3 L 33.6 129.3 L 21.6 135.3 L 21.6 38.8 L 33.6 44.8 L 40.7 44.8 L 40.7 27.6 L 17.7 27.6 L 17.7 23.6 L 68.9 23.6 L 78.9 13.6 Z M 144.2 14.6 L 147.2 16.6 L 144.2 18.4 L 144.2 28.9 L 159.9181818008423 28.9 L 168.1 19.9 L 178.1 28.9 L 178.1 32.9 L 144.2 32.9 L 144.2 46.8 L 166.7 46.8 L 172.7 41.8 L 183.7 50.8 L 178.7 54.8 L 178.7 128.0 L 166.7 134.0 L 166.7 122.0 L 109.2 122.0 L 98.2 127.5 L 98.2 41.3 L 109.2 46.8 L 132.2 46.8 L 132.2 12.6 Z M 109.2 118.0 L 166.7 118.0 L 166.7 50.8 L 109.2 50.8 Z M 154.6 86.2 L 154.5 85.0 L 154.3 83.7 L 154.0 82.5 L 153.5 81.2 L 152.9 79.9 L 152.2 78.7 L 151.74680347442626 77.99502763748168 L 149.6 80.7 L 145.98393287658692 84.95419664382935 L 149.9 88.7 L 154.3 93.3 L 158.6 97.9 L 162.6 102.7 L 163.7 107.2 L 161.3 111.1 L 156.9 112.2 L 153.0 109.8 L 149.6 105.0 L 146.1 100.2 L 142.5 95.4 L 139.67214488983154 91.99207201004029 L 139.3 92.4 L 134.0 97.7 L 133.07119998931884 98.54280004501342 L 133.3 98.6 L 135.1 98.7 L 136.8 99.1 L 138.6 99.7 L 140.2 100.6 L 141.8 101.7 L 143.3 103.1 L 144.6 104.7 L 145.8 106.5 L 146.8 108.4 L 146.0 112.9 L 142.3 115.6 L 137.8 114.8 L 135.1 111.1 L 135.2 109.8 L 135.3 108.6 L 135.3 107.5 L 135.2 106.3 L 135.0 105.2 L 134.7 104.0 L 134.1 102.9 L 133.4 101.7 L 132.5 100.5 L 131.4489073753357 100.01488037109375 L 128.6 102.6 L 123.0 107.1 L 117.3 111.2 L 111.4 114.7 L 110.3 113.3 L 114.8 108.3 L 119.4 103.2 L 124.0 98.0 L 128.5 92.5 L 132.9 86.9 L 133.9836965560913 85.4222318649292 L 130.3 81.3 L 125.9 76.6 L 121.3 71.9 L 116.7 67.1 L 111.9 62.1 L 113.0 60.7 L 119.0 64.1 L 124.8 67.8 L 130.2 71.7 L 135.5 75.7 L 138.90273523330688 78.62635231018066 L 141.6 74.8 L 145.8 68.3 L 149.9 61.6 L 153.4333333015442 55.41666669845581 L 153.4 55.4 L 154.4 53.7 L 164.2 60.8 L 165.7 64.1 L 161.98111000061036 64.03588123321533 L 159.4 67.8 L 154.6 74.4 L 153.58556537628175 75.67818765640259 L 154.0 75.7 L 155.8 76.2 L 157.5 76.9 L 159.2 77.8 L 160.8 78.9 L 162.3 80.3 L 163.7 81.8 L 165.0 83.6 L 166.1 85.5 L 165.6 90.0 L 162.1 92.9 L 157.6 92.4 L 154.7 88.9 L 154.7 87.6 Z M 33.6 100.7 L 33.6 113.3 L 76.0 113.3 L 76.0 100.7 Z M 76.0 80.85 L 76.0 48.8 L 65.8 48.8 L 65.8 72.8 L 65.9 74.2 L 66.1 75.3 L 66.3 76.1 L 66.6 76.7 L 67.0 77.1 L 67.4 77.4 L 68.0 77.7 L 68.44936170578003 77.86851062774659 L 72.8 65.3 L 74.8 65.3 L 72.8 78.3 L 75.5 80.1 Z M 115.8 86.1 L 115.6 84.8 L 115.0 82.2 L 114.5 80.8 L 113.3 78.2 L 112.5 76.8 L 111.3 76.0 L 112.1 74.4 L 113.5 75.1 L 115.3 75.4 L 117.0 75.9 L 120.2 77.5 L 121.8 78.6 L 123.3 79.8 L 124.7 81.2 L 126.0 82.7 L 127.2 84.4 L 127.1 89.0 L 123.9 92.2 L 119.3 92.1 L 116.1 88.9 L 116.0 87.5 Z M 33.6 48.8 L 33.6 88.95555553436279 L 34.6 87.4 L 36.0 84.4 L 37.3 81.2 L 38.4 77.5 L 39.3 73.5 L 40.0 69.1 L 40.5 64.2 L 40.8 58.9 L 40.8 53.1 L 40.73174600601196 48.8 Z M 132.3 63.2 L 132.1 62.0 L 131.8 60.8 L 131.3 59.5 L 130.7 58.2 L 129.9 56.9 L 129.0 55.5 L 127.6 54.7 L 128.3 53.1 L 129.9 53.8 L 131.7 54.1 L 133.5 54.5 L 135.2 55.2 L 136.9 56.0 L 138.4 57.0 L 139.9 58.2 L 141.3 59.5 L 142.6 61.0 L 143.7 62.7 L 143.4 67.2 L 140.0 70.3 L 135.5 70.0 L 132.4 66.6 L 132.5 65.4 Z M 50.7 27.6 L 50.7 44.8 L 56.8 44.8 L 56.8 27.6 Z M 68.9 87.1 L 66.6 86.7 L 64.4 86.0 L 62.4 84.9 L 60.6 83.4 L 59.1 81.7 L 58.1 79.6 L 57.3 77.4 L 56.9 75.2 L 56.8 72.8 L 56.8 48.8 L 50.58059701919556 48.8 L 50.3 53.5 L 49.6 59.6 L 48.6 65.3 L 47.4 70.6 L 45.9 75.4 L 44.1 79.7 L 42.0 83.5 L 39.5 86.7 L 36.8 89.3 L 33.8 91.3 L 33.6 91.08000001907348 L 33.6 96.7 L 76.0 96.7 L 76.0 84.75 L 75.5 85.5 L 72.8 87.3 L 71.3 87.3 Z " />
</g>
</svg>
