<svg xmlns="http://www.w3.org/2000/svg" xmlns:xlink="http://www.w3.org/1999/xlink" version="1.1" baseProfile="full" viewBox="0 0 200 200" width="200" height="200">
<g fill="black">
<path d="M 178.1 52.5 L 178.1 56.5 L 135.5 56.5 L 135.5 123.0 L 163.6 123.0 L 173.6 113.0 L 185.6 123.0 L 185.6 127.0 L 135.5 127.0 L 135.5 183.2 L 123.5 189.2 L 123.5 127.0 L 73.3 127.0 L 73.3 123.0 L 123.5 123.0 L 123.5 56.5 L 80.8 56.5 L 80.8 52.5 L 156.1 52.5 L 166.1 42.5 Z M 29.8 33.4 L 58.0 33.4 L 64.0 28.4 L 75.0 37.4 L 70.0 41.4 L 70.0 155.9 L 58.0 161.9 L 58.0 149.9 L 29.8 149.9 L 29.8 161.9 L 17.8 167.9 L 17.8 27.4 Z M 29.8 110.8 L 29.8 145.9 L 58.0 145.9 L 58.0 110.8 Z M 114.9 72.7 L 117.0 75.6 L 113.24529485702514 76.3245922088623 L 112.8 77.3 L 110.4 81.7 L 107.8 86.0 L 105.0 90.2 L 101.9 94.3 L 98.5 98.2 L 94.9 102.0 L 90.9 105.6 L 86.7 108.9 L 82.1 112.1 L 80.9 110.7 L 84.0 106.3 L 87.0 102.0 L 89.8 97.8 L 92.5 93.6 L 94.9 89.5 L 97.1 85.3 L 99.0 81.2 L 100.8 77.0 L 102.3 72.9 L 103.31979150772095 69.60528907775878 L 103.3 69.6 L 104.1 67.2 Z M 164.0 100.4 L 162.7 97.0 L 161.2 93.5 L 159.4 90.0 L 157.4 86.4 L 155.2 82.7 L 152.8 78.9 L 150.2 75.0 L 147.4 71.1 L 148.6 69.8 L 152.6 72.7 L 156.4 75.7 L 159.9 78.8 L 163.2 82.1 L 166.1 85.4 L 168.9 88.8 L 171.4 92.3 L 173.6 95.9 L 175.6 99.5 L 177.3 103.2 L 177.0 107.8 L 173.6 110.8 L 169.0 110.5 L 166.0 107.1 L 165.1 103.8 Z M 29.8 74.1 L 29.8 106.8 L 58.0 106.8 L 58.0 74.1 Z M 29.8 37.4 L 29.8 70.1 L 58.0 70.1 L 58.0 37.4 Z M 128.9 37.6 L 127.5 34.9 L 126.0 32.2 L 124.4 29.5 L 122.6 26.8 L 120.8 24.2 L 118.8 21.5 L 116.7 18.7 L 114.2 16.3 L 115.3 14.8 L 118.4 16.6 L 121.6 18.2 L 124.6 20.1 L 127.5 22.2 L 130.2 24.4 L 132.8 26.7 L 135.3 29.2 L 137.6 31.9 L 139.8 34.6 L 141.8 37.5 L 142.2 42.0 L 139.4 45.6 L 134.8 46.0 L 131.2 43.1 L 130.1 40.3 Z " />
</g>
</svg>
