<svg xmlns="http://www.w3.org/2000/svg" xmlns:xlink="http://www.w3.org/1999/xlink" version="1.1" baseProfile="full" viewBox="0 0 200 200" width="200" height="200">
<g fill="black">
<path d="M 98.7 125.9 L 97.9 134.1 L 96.7 141.9 L 95.0 149.3 L 92.9 156.2 L 90.3 162.8 L 87.3 168.9 L 83.8 174.5 L 79.9 179.6 L 75.4 184.0 L 70.6 187.9 L 69.3 186.6 L 72.5 181.6 L 75.5 176.5 L 78.1 171.2 L 80.4 165.7 L 82.3 159.8 L 83.9 153.7 L 85.2 147.2 L 86.0 140.3 L 86.6 133.1 L 86.7 125.5 L 86.7 90.54444446563721 L 82.9 93.5 L 77.2 97.2 L 71.2 100.5 L 70.1 99.0 L 74.9 94.2 L 79.4 89.5 L 83.7 84.7 L 86.7 80.95 L 86.7 80.4 L 87.01428575515747 80.55714282989501 L 87.7 79.7 L 91.5 74.6 L 94.9 69.4 L 98.1 64.0 L 101.0 58.3 L 103.7 52.5 L 105.64896144866944 47.4157527923584 L 105.6 47.4 L 105.95106382369995 46.62765960693359 L 106.0 46.5 L 106.00764989852905 46.5031702041626 L 106.6 45.2 L 117.1 51.1 L 119.1 54.1 L 115.30560750961304 54.68878507614136 L 113.9 57.5 L 111.21666669845581 62.1 L 145.8 62.1 L 146.4375 61.56875 L 146.5 61.4 L 146.58658962249757 61.4445086479187 L 151.8 57.1 L 162.8 66.1 L 157.8 69.1 L 154.64057970046997 70.41642513275147 L 151.1 74.8 L 148.9 77.2 L 146.5 79.6 L 144.1 81.9 L 141.5 84.0 L 138.8 86.0 L 138.18947372436523 86.4 L 168.61818180084228 86.4 L 176.8 77.4 L 186.8 86.4 L 186.8 90.4 L 98.7 90.4 L 98.7 111.9 L 174.37777776718139 111.9 L 180.6 104.9 L 188.6 111.9 L 188.6 115.9 L 98.7 115.9 L 98.7 125.7 L 98.56956520080567 125.89565219879151 Z M 121.8 156.5 L 163.9 156.5 L 169.9 151.5 L 180.9 160.5 L 175.9 164.5 L 175.9 179.0 L 163.9 185.0 L 163.9 179.0 L 121.8 179.0 L 109.8 185.0 L 109.8 150.5 Z M 121.8 160.5 L 121.8 175.0 L 163.9 175.0 L 163.9 160.5 Z M 28.6 33.4 L 53.3 33.4 L 59.3 28.4 L 70.3 37.4 L 65.3 41.4 L 65.3 155.9 L 53.3 161.9 L 53.3 149.9 L 28.6 149.9 L 28.6 161.9 L 16.6 167.9 L 16.6 27.4 Z M 171.5 142.5 L 171.5 146.5 L 114.2 146.5 L 114.2 142.5 L 157.2777777671814 142.5 L 163.5 135.5 Z M 28.6 110.8 L 28.6 145.9 L 53.3 145.9 L 53.3 110.8 Z M 171.5 127.7 L 171.5 131.7 L 114.2 131.7 L 114.2 127.7 L 157.2777777671814 127.7 L 163.5 120.7 Z M 28.6 74.1 L 28.6 106.8 L 53.3 106.8 L 53.3 74.1 Z M 174.1 99.0 L 174.1 103.0 L 111.6 103.0 L 111.6 99.0 L 159.87777776718139 99.0 L 166.1 92.0 Z M 108.69655170440674 66.1 L 106.6 69.3 L 102.5 74.8 L 98.1 80.0 L 94.03333330154419 84.0666666984558 L 98.7 86.4 L 133.69230766296386 86.4 L 134.0 86.0 L 135.7 83.1 L 137.4 80.4 L 138.9 77.7 L 140.4 74.9 L 143.2 69.5 L 144.4 66.8 L 144.68518514633178 66.1 Z M 115.9 20.4 L 118.1 23.3 L 114.30676755905151 24.09857521057129 L 113.1 26.9 L 112.8578125 27.4 L 146.0 27.4 L 152.0 22.4 L 163.0 31.4 L 158.0 34.4 L 155.21951217651366 35.55853662490845 L 154.1 37.3 L 152.1 40.1 L 150.0 42.8 L 147.7 45.5 L 145.3 48.1 L 142.7 50.8 L 139.9 53.3 L 136.9 55.8 L 134.0 58.4 L 132.6 57.2 L 134.8 53.9 L 136.5 50.6 L 138.2 47.4 L 139.8 44.3 L 141.2 41.2 L 142.5 38.3 L 143.7 35.4 L 144.8 32.5 L 145.1666666984558 31.4 L 110.9203125 31.4 L 110.0 33.3 L 106.4 39.6 L 102.5 45.6 L 98.2 51.5 L 93.5 57.2 L 88.4 62.7 L 82.9 68.0 L 77.0 73.0 L 70.6 77.6 L 69.4 76.3 L 74.3 70.3 L 79.0 64.3 L 83.4 58.4 L 87.4 52.6 L 91.2 46.7 L 94.6 40.7 L 97.6 34.8 L 100.3 28.7 L 102.6 22.6 L 104.30453357696533 17.40117244720459 L 104.3 17.4 L 105.1 15.0 Z M 28.6 37.4 L 28.6 70.1 L 53.3 70.1 L 53.3 37.4 Z " />
</g>
</svg>
