<svg xmlns="http://www.w3.org/2000/svg" xmlns:xlink="http://www.w3.org/1999/xlink" version="1.1" baseProfile="full" viewBox="0 0 200 200" width="200" height="200">
<g fill="black">
<path d="M 64.2 177.8 L 76.2 177.8 L 77.4 177.7 L 78.3 177.6 L 78.9 177.4 L 79.2 177.2 L 79.4 177.1 L 79.6 176.9 L 79.7 176.5 L 79.9 176.0 L 80.1 175.1 L 80.2 173.8 L 80.2 150.1 L 42.8 150.1 L 42.8 183.0 L 30.8 189.0 L 30.8 90.9 L 42.8 96.9 L 80.2 96.9 L 86.2 91.9 L 97.2 100.9 L 92.2 104.9 L 92.2 173.8 L 92.0 176.4 L 91.6 178.9 L 90.8 181.3 L 89.5 183.5 L 87.9 185.6 L 85.9 187.2 L 83.6 188.4 L 81.2 189.2 L 78.7 189.7 L 76.2 189.8 L 76.2 183.8 L 64.2 180.8 Z M 138.7 177.7 L 154.7 177.7 L 156.0 177.6 L 156.9 177.5 L 157.5 177.3 L 157.8 177.1 L 158.1 176.8 L 158.3 176.4 L 158.5 175.8 L 158.7 174.9 L 158.7 93.0 L 170.7 95.0 L 173.7 97.0 L 170.7 98.8 L 170.7 173.7 L 170.6 176.2 L 170.2 178.7 L 169.3 181.1 L 168.1 183.4 L 166.5 185.4 L 164.5 187.1 L 162.2 188.3 L 159.8 189.1 L 157.3 189.5 L 154.7 189.7 L 154.7 183.7 L 138.7 180.7 Z M 130.6 103.1 L 133.6 105.1 L 130.6 106.9 L 130.6 164.6 L 118.6 170.6 L 118.6 101.1 Z M 42.8 125.5 L 42.8 146.1 L 80.2 146.1 L 80.2 125.5 Z M 42.8 100.9 L 42.8 121.5 L 80.2 121.5 L 80.2 100.9 Z M 159.9 86.2 L 152.1 83.5 L 152.00159578323365 83.46143617630005 L 154.6 85.8 L 154.6 89.8 L 45.4 89.8 L 45.4 86.39482755661011 L 38.0 88.5 L 25.4 90.8 L 12.1 91.9 L 11.8 90.1 L 24.7 87.0 L 36.5 83.4 L 47.2 79.1 L 56.9 74.2 L 65.6 68.6 L 73.2 62.3 L 77.60285711288452 57.7 L 18.0 57.7 L 18.0 53.7 L 81.08441562652588 53.7 L 85.6 47.6 L 90.5 39.2 L 92.57142858505249 34.2 L 51.7 34.2 L 50.7 35.2 L 47.0 38.5 L 42.9 41.7 L 38.5 44.8 L 33.7 47.7 L 28.5 50.6 L 27.4 49.1 L 31.5 44.9 L 35.2 40.9 L 38.6 37.0 L 41.7 33.3 L 44.5 29.7 L 46.9 26.2 L 49.0 22.8 L 50.7 19.5 L 52.0 16.3 L 52.6908616065979 14.227415180206298 L 52.6 14.2 L 53.5 11.9 L 64.2 17.7 L 66.2 20.7 L 62.24043550491333 21.325194358825684 L 62.2 21.4 L 59.8 24.9 L 57.1 28.4 L 55.511764717102054 30.2 L 142.0 30.2 L 152.0 20.2 L 164.0 30.2 L 164.0 34.2 L 105.59090909957885 34.2 L 105.5 34.4 L 100.5 44.5 L 94.46559143066406 53.7 L 159.0 53.7 L 169.0 43.7 L 181.0 53.7 L 181.0 57.7 L 114.65 57.7 L 116.1 58.4 L 122.1 61.2 L 128.2 63.9 L 134.5 66.4 L 141.2 68.8 L 148.1 71.0 L 155.4 73.0 L 163.0 74.8 L 170.9 76.4 L 179.2 77.8 L 188.5 79.6 L 176.7 90.7 L 168.1 88.6 Z M 91.0231707572937 57.7 L 87.3 62.0 L 79.3 69.3 L 70.3 75.6 L 60.4 80.9 L 49.6 85.2 L 47.49090909957886 85.8 L 136.4181818008423 85.8 L 142.17856492996216 79.46357860565186 L 137.6 77.4 L 131.0 74.0 L 124.8 70.2 L 119.0 66.2 L 113.8 61.8 L 109.8708333015442 57.7 Z " />
</g>
</svg>
