<svg xmlns="http://www.w3.org/2000/svg" xmlns:xlink="http://www.w3.org/1999/xlink" version="1.1" baseProfile="full" viewBox="0 0 200 200" width="200" height="200">
<g fill="black">
<path d="M 52.3 106.4 L 85.1 106.4 L 91.1 101.4 L 102.1 110.4 L 97.1 114.4 L 97.1 176.6 L 85.1 182.6 L 85.1 176.6 L 52.3 176.6 L 52.3 183.6 L 41.3 189.1 L 41.3 100.9 Z M 161.8 177.0 L 155.0 170.8 L 148.8 163.8 L 146.63636360168456 160.86363639831544 L 142.6 164.9 L 133.6 172.1 L 123.8 178.5 L 113.0 184.1 L 101.3 188.8 L 100.6 187.1 L 111.2 180.8 L 120.8 174.1 L 129.5 167.0 L 137.3 159.5 L 141.96793947219848 154.08789625167847 L 138.3 147.8 L 134.0 138.7 L 130.3 128.9 L 127.4 118.4 L 125.3 107.1 L 127.1 106.7 L 131.4 117.1 L 135.8 126.7 L 140.5 135.5 L 145.5 143.5 L 147.6889066696167 146.47360906600952 L 150.1 143.0 L 155.1 134.0 L 159.2 124.4 L 162.5 114.4 L 164.9 103.7 L 164.9136841773987 103.7028070449829 L 165.3 101.9 L 176.6 106.1 L 179.2 108.7 L 175.5333333015442 109.96666669845581 L 173.4 117.7 L 169.1 128.5 L 163.9 138.7 L 157.8 148.2 L 153.3559736251831 153.56986513137818 L 156.5 157.1 L 162.5 162.7 L 168.9 167.5 L 175.6 171.6 L 182.7 175.0 L 188.6 177.7 L 177.2 186.9 L 169.2 182.3 Z M 32.5 70.1 L 56.0 70.1 L 56.0 12.0 L 68.0 14.0 L 71.0 16.0 L 68.0 17.8 L 68.0 70.1 L 89.31818180084228 70.1 L 97.5 61.1 L 107.5 70.1 L 107.5 74.1 L 32.5 74.1 L 32.5 117.5 L 32.1 127.7 L 31.3 137.2 L 30.3 146.1 L 28.9 154.3 L 27.2 161.8 L 25.1 168.7 L 22.7 174.8 L 19.9 180.2 L 16.7 184.8 L 13.1 188.5 L 11.8 187.5 L 13.7 183.1 L 15.4 178.2 L 17.0 172.8 L 18.4 166.8 L 19.6 160.2 L 20.5 153.0 L 21.1 145.1 L 21.5 136.6 L 21.6 127.4 L 21.5 117.5 L 21.5 64.6 Z M 52.3 153.6 L 52.3 172.6 L 85.1 172.6 L 85.1 153.6 Z M 52.3 132.0 L 52.3 149.6 L 85.1 149.6 L 85.1 132.0 Z M 52.3 110.4 L 52.3 128.0 L 85.1 128.0 L 85.1 110.4 Z M 101.0 94.0 L 117.0 94.0 L 117.0 22.0 L 127.33793106079102 27.168965530395507 L 127.5 27.1 L 132.3 25.3 L 137.0 23.6 L 146.2 20.4 L 150.7 18.9 L 155.2 17.3 L 164.0 14.1 L 167.31464500427245 12.837278079986572 L 167.3 12.8 L 167.33498573303223 12.829529285430908 L 168.2 12.5 L 168.6339774131775 13.925925922393798 L 178.2 22.0 L 178.5 25.1 L 174.36199426651 23.180924892425537 L 171.7 24.0 L 167.2 25.0 L 162.5 26.0 L 157.8 26.9 L 153.0 27.8 L 148.2 28.6 L 138.4 30.0 L 133.4 30.5 L 129.0 30.672549057006837 L 129.0 51.0 L 157.0 51.0 L 163.0 46.0 L 174.0 55.0 L 169.0 59.0 L 169.0 94.0 L 173.7777777671814 94.0 L 180.0 87.0 L 188.0 94.0 L 188.0 98.0 L 101.0 98.0 Z M 129.0 55.0 L 129.0 94.0 L 157.0 94.0 L 157.0 55.0 Z M 101.0 89.0 L 101.0 93.0 L 38.0 93.0 L 38.0 89.0 L 82.81818180084228 89.0 L 91.0 80.0 Z M 42.3 52.3 L 42.25062608718872 51.880321979522705 L 39.5 53.3 L 36.5 54.8 L 33.6 56.1 L 30.8 57.4 L 28.1 58.6 L 23.1 60.8 L 22.67584686279297 60.97673044204712 L 21.1 65.2 L 18.4 62.8 L 13.8 51.5 L 15.7 51.1 L 18.1 50.9 L 20.6 50.8 L 21.80558662414551 50.66089382171631 L 22.3 47.2 L 22.9 43.1 L 23.6 39.0 L 24.4 34.9 L 25.1 30.8 L 25.8 26.8 L 26.4 22.8 L 27.1 18.8 L 27.5466721534729 15.822185707092284 L 27.4 15.8 L 28.1 13.1 L 39.3 17.6 L 41.8 20.2 L 38.02933330535889 21.41199998855591 L 38.0 21.5 L 36.6 25.5 L 35.2 29.4 L 33.7 33.3 L 32.1 37.2 L 30.5 41.0 L 28.7 44.9 L 26.8 48.7 L 25.887323951721193 50.308048248291016 L 26.0 50.3 L 28.9 50.1 L 32.0 49.8 L 35.1 49.6 L 38.4 49.3 L 41.78958988189697 49.20315456390381 L 41.7 48.8 L 41.3 46.8 L 40.7 44.7 L 40.0 42.5 L 39.2 40.2 L 38.3 37.7 L 36.9 35.5 L 38.3 34.3 L 40.2 36.3 L 42.3 38.0 L 44.2 39.8 L 46.0 41.5 L 47.6 43.3 L 49.2 45.0 L 50.5 46.8 L 51.8 48.7 L 53.0 50.5 L 54.0 52.4 L 53.3 56.9 L 49.6 59.7 L 45.1 59.0 L 42.3 55.4 L 42.4 53.9 Z M 98.3 52.3 L 98.25062608718872 51.880321979522705 L 95.5 53.3 L 92.5 54.8 L 89.6 56.1 L 86.8 57.4 L 84.1 58.6 L 79.1 60.8 L 78.67584686279297 60.97673044204712 L 77.1 65.2 L 74.4 62.8 L 69.8 51.5 L 71.7 51.1 L 74.1 50.9 L 76.6 50.8 L 77.8055866241455 50.66089382171631 L 78.3 47.2 L 78.9 43.1 L 79.6 39.0 L 80.4 34.9 L 81.1 30.8 L 81.8 26.8 L 82.4 22.8 L 83.1 18.8 L 83.5466721534729 15.822185707092284 L 83.4 15.8 L 84.1 13.1 L 95.3 17.6 L 97.8 20.2 L 94.02933330535889 21.41199998855591 L 94.0 21.5 L 92.6 25.5 L 91.2 29.4 L 89.7 33.3 L 88.1 37.2 L 86.5 41.0 L 84.7 44.9 L 82.8 48.7 L 81.88732395172119 50.308048248291016 L 82.0 50.3 L 84.9 50.1 L 88.0 49.8 L 91.1 49.6 L 94.4 49.3 L 97.78958988189697 49.20315456390381 L 97.7 48.8 L 97.3 46.8 L 96.7 44.7 L 96.0 42.5 L 95.2 40.2 L 94.3 37.7 L 92.9 35.5 L 94.3 34.3 L 96.2 36.3 L 98.3 38.0 L 100.2 39.8 L 102.0 41.5 L 103.6 43.3 L 105.2 45.0 L 106.5 46.8 L 107.8 48.7 L 109.0 50.5 L 110.0 52.4 L 109.3 56.9 L 105.6 59.7 L 101.1 59.0 L 98.3 55.4 L 98.4 53.9 Z " />
</g>
</svg>
