<svg xmlns="http://www.w3.org/2000/svg" xmlns:xlink="http://www.w3.org/1999/xlink" version="1.1" baseProfile="full" viewBox="0 0 200 200" width="200" height="200">
<g fill="black">
<path d="M 90.1 119.6 L 89.1 130.5 L 87.6 140.6 L 85.7 149.9 L 83.5 158.5 L 80.8 166.3 L 77.6 173.2 L 74.0 179.3 L 69.8 184.5 L 65.3 188.6 L 63.9 187.3 L 66.7 182.3 L 69.3 176.7 L 71.5 170.6 L 73.5 163.9 L 75.2 156.4 L 76.6 148.2 L 77.7 139.3 L 78.4 129.6 L 78.7 119.1 L 78.8 107.9 L 78.8 60.67916669845581 L 75.9 63.7 L 70.7 68.4 L 65.2 72.6 L 64.0 71.3 L 68.0 65.8 L 71.8 60.2 L 75.5 54.7 L 78.8 49.56666669845581 L 78.8 48.0 L 79.51643838882447 48.358219146728516 L 82.3 43.4 L 85.4 37.6 L 88.2 31.6 L 90.8 25.5 L 93.2 19.3 L 95.00430955886841 13.801151657104493 L 95.0 13.8 L 95.8 11.4 L 106.6 16.9 L 108.8 19.8 L 105.00491800308228 20.58518934249878 L 103.7 23.6 L 101.084375 29.0 L 142.8 29.0 L 143.3938775062561 28.50510206222534 L 143.5 28.2 L 143.6602325439453 28.283139514923096 L 148.8 24.0 L 159.8 33.0 L 154.8 36.0 L 151.29385471343994 37.46089382171631 L 150.8 38.1 L 149.0 40.3 L 147.0 42.5 L 145.0 44.8 L 142.8 47.1 L 140.5 49.4 L 138.1 51.7 L 135.4 54.0 L 172.7777777671814 54.0 L 179.0 47.0 L 187.0 54.0 L 187.0 58.0 L 90.8 58.0 L 90.8 108.0 L 90.69195232391357 108.15558862686157 Z M 108.7 141.9 L 165.2 141.9 L 171.2 136.9 L 182.2 145.9 L 177.2 149.9 L 177.2 181.0 L 165.2 187.0 L 165.2 179.0 L 108.7 179.0 L 108.7 182.0 L 96.7 188.0 L 96.7 135.9 Z M 108.7 145.9 L 108.7 175.0 L 165.2 175.0 L 165.2 145.9 Z M 26.0 33.4 L 51.3 33.4 L 57.3 28.4 L 68.3 37.4 L 63.3 41.4 L 63.3 155.9 L 51.3 161.9 L 51.3 149.9 L 26.0 149.9 L 26.0 161.9 L 14.0 167.9 L 14.0 27.4 Z M 26.0 110.8 L 26.0 145.9 L 51.3 145.9 L 51.3 110.8 Z M 90.7 125.6 L 122.0 125.6 L 122.0 111.2 L 96.7 111.2 L 96.7 107.2 L 122.0 107.2 L 122.0 94.5 L 101.7 94.5 L 101.7 90.5 L 122.0 90.5 L 122.0 77.8 L 97.3 77.8 L 97.3 73.8 L 122.0 73.8 L 122.0 60.6 L 133.0 62.6 L 135.8 64.6 L 133.0 66.35 L 133.0 125.6 L 142.9 125.6 L 142.9 60.6 L 153.9 62.6 L 156.7 64.6 L 153.9 66.35 L 153.9 73.8 L 164.4777777671814 73.8 L 170.7 66.8 L 178.7 73.8 L 178.7 77.8 L 153.9 77.8 L 153.9 90.5 L 160.0777777671814 90.5 L 166.3 83.5 L 174.3 90.5 L 174.3 94.5 L 153.9 94.5 L 153.9 107.2 L 164.9777777671814 107.2 L 171.2 100.2 L 179.2 107.2 L 179.2 111.2 L 153.9 111.2 L 153.9 125.6 L 171.0777777671814 125.6 L 177.3 118.6 L 185.3 125.6 L 185.3 129.6 L 90.7 129.6 Z M 26.0 74.1 L 26.0 106.8 L 51.3 106.8 L 51.3 74.1 Z M 26.0 37.4 L 26.0 70.1 L 51.3 70.1 L 51.3 37.4 Z M 98.95483875274658 33.0 L 97.2 36.2 L 93.5 42.2 L 89.5 48.0 L 86.54342107772827 51.87171049118042 L 90.8 54.0 L 132.39333333969117 54.0 L 133.3 52.4 L 134.7 49.2 L 136.1 46.3 L 137.4 43.4 L 138.6 40.6 L 139.8 37.9 L 140.9 35.3 L 141.85833330154418 33.0 Z " />
</g>
</svg>
