<svg xmlns="http://www.w3.org/2000/svg" xmlns:xlink="http://www.w3.org/1999/xlink" version="1.1" baseProfile="full" viewBox="0 0 200 200" width="200" height="200">
<g fill="black">
<path d="M 139.5 101.0 L 142.5 103.0 L 139.5 104.8 L 139.5 123.0 L 166.7 123.0 L 176.7 113.0 L 188.7 123.0 L 188.7 127.0 L 139.5 127.0 L 139.5 183.0 L 127.5 189.0 L 127.5 127.0 L 78.2 127.0 L 78.2 123.0 L 127.5 123.0 L 127.5 99.0 Z M 81.3 36.0 L 81.3 40.0 L 55.59405937194824 40.0 L 53.2 49.3 L 50.1 59.2 L 46.8 68.9 L 43.0 78.4 L 40.12127656936646 85.0 L 61.0 85.0 L 67.0 80.0 L 78.0 89.0 L 73.0 93.0 L 73.0 163.0 L 61.0 169.0 L 61.0 157.0 L 41.6 157.0 L 41.6 169.0 L 29.6 175.0 L 29.6 105.81632652282715 L 29.5 106.0 L 24.3 114.8 L 18.5 123.3 L 12.2 131.4 L 10.7 130.5 L 15.2 121.3 L 19.5 112.2 L 23.7 103.0 L 27.5 93.9 L 29.6 88.475 L 29.6 88.0 L 29.78387098312378 88.0 L 31.1 84.6 L 34.3 75.2 L 37.2 65.7 L 39.8 56.2 L 42.1 46.5 L 43.4 40.0 L 16.0 40.0 L 16.0 36.0 L 59.3 36.0 L 69.3 26.0 Z M 41.6 89.0 L 41.6 153.0 L 61.0 153.0 L 61.0 89.0 Z M 159.6 101.0 L 150.2 96.5 L 141.5 91.2 L 133.5 85.1 L 133.1137047767639 84.72458629608154 L 128.4 88.7 L 119.4 94.8 L 109.8 99.9 L 99.7 104.0 L 89.0 106.9 L 77.8 108.8 L 77.4 107.1 L 87.9 103.3 L 97.7 99.0 L 106.8 94.1 L 115.2 88.5 L 123.0 82.2 L 126.70428571701049 78.4957142829895 L 126.4 78.2 L 120.0 70.6 L 114.5 62.2 L 109.9 53.1 L 106.68282823562622 44.0 L 82.0 44.0 L 82.0 40.0 L 127.5 40.0 L 127.5 13.0 L 139.5 15.0 L 142.5 17.0 L 139.5 18.8 L 139.5 40.0 L 162.9 40.0 L 172.9 30.0 L 184.9 40.0 L 184.9 44.0 L 163.96000003814697 44.0 L 163.7 44.5 L 157.9 55.1 L 151.5 64.9 L 144.4 73.8 L 140.10387630462645 78.20771131515502 L 146.9 82.5 L 155.0 86.6 L 163.7 89.9 L 173.0 92.5 L 182.9 94.5 L 192.3 96.2 L 180.5 107.4 L 169.7 104.6 Z M 113.6 51.1 L 119.4 58.9 L 125.6 66.0 L 132.2 72.2 L 132.43180170059205 72.37956466674805 L 136.7 67.4 L 142.6 58.9 L 148.0 49.5 L 150.5666666984558 44.0 L 108.97674417495728 44.0 Z " />
</g>
</svg>
