<svg xmlns="http://www.w3.org/2000/svg" xmlns:xlink="http://www.w3.org/1999/xlink" version="1.1" baseProfile="full" viewBox="0 0 200 200" width="200" height="200">
<g fill="black">
<path d="M 144.8 127.0 L 144.8 87.5 L 121.8 87.5 L 121.8 118.0 L 121.16363639831543 127.0 Z M 84.6 36.0 L 84.6 40.0 L 57.98613862991333 40.0 L 55.5 49.3 L 52.4 59.2 L 48.9 68.9 L 45.1 78.5 L 42.1957447052002 85.0 L 63.9 85.0 L 69.9 80.0 L 80.9 89.0 L 75.9 93.0 L 75.9 163.0 L 63.9 169.0 L 63.9 157.0 L 43.7 157.0 L 43.7 169.0 L 31.7 175.0 L 31.7 105.28000001907348 L 31.3 106.0 L 25.9 114.8 L 20.0 123.3 L 13.6 131.4 L 12.1 130.5 L 16.7 121.3 L 21.2 112.2 L 25.4 103.0 L 29.4 93.8 L 31.7 88.01891889572144 L 31.7 88.0 L 31.707526874542236 88.0 L 33.1 84.5 L 36.4 75.2 L 39.4 65.7 L 42.1 56.1 L 44.5 46.5 L 45.8 40.0 L 17.4 40.0 L 17.4 36.0 L 62.6 36.0 L 72.6 26.0 Z M 43.7 89.0 L 43.7 153.0 L 63.9 153.0 L 63.9 89.0 Z M 168.3 62.1 L 164.9 56.9 L 162.9 54.2 L 160.8 51.5 L 158.6 48.8 L 156.2 46.0 L 154.26451616287233 43.75483875274658 L 154.2 43.9 L 151.1 50.1 L 147.6 56.0 L 143.8 61.8 L 139.6 67.2 L 134.9 72.4 L 129.9 77.2 L 128.5 76.1 L 131.9 70.1 L 135.1 64.2 L 138.2 58.4 L 140.9 52.5 L 143.4 46.5 L 145.6 40.4 L 147.5 34.3 L 149.1 28.1 L 150.4 21.7 L 151.4 15.2 L 151.47015857696533 15.213080406188965 L 151.8 13.3 L 163.2 17.4 L 165.8 19.9 L 162.24327697753907 21.28317003250122 L 161.5 24.3 L 159.4 31.0 L 157.0 37.6 L 155.54470281600953 40.87441864013672 L 158.9 42.6 L 162.3 44.5 L 165.4 46.5 L 168.4 48.7 L 171.2 50.9 L 173.9 53.3 L 176.5 55.7 L 178.8 58.2 L 181.1 60.8 L 181.9 65.3 L 179.3 69.1 L 174.8 69.9 L 171.0 67.3 L 169.7 64.7 Z M 119.6 58.7 L 118.3 56.3 L 116.8 53.8 L 115.2 51.3 L 113.4 48.8 L 111.5 46.3 L 109.5 43.7 L 108.82692308425904 42.83461542129517 L 106.0 48.3 L 102.7 53.9 L 98.9 59.3 L 94.8 64.4 L 90.2 69.2 L 85.1 73.6 L 83.8 72.4 L 87.2 66.8 L 90.4 61.3 L 93.3 55.8 L 96.0 50.2 L 98.4 44.6 L 100.4 39.0 L 102.1 33.2 L 103.6 27.4 L 104.7 21.5 L 105.4 15.4 L 105.46502733230591 15.409836101531983 L 105.8 13.4 L 117.3 17.2 L 120.0 19.7 L 116.3983302116394 21.167346954345703 L 115.8 23.8 L 113.9 30.2 L 111.7 36.4 L 110.30469799041748 39.55234899520874 L 112.2 40.5 L 115.2 42.2 L 118.0 44.1 L 120.7 46.0 L 123.3 48.1 L 125.7 50.3 L 128.0 52.5 L 130.1 54.8 L 132.1 57.2 L 132.8 61.8 L 130.1 65.5 L 125.6 66.1 L 121.9 63.4 L 120.8 61.1 Z M 83.3 87.5 L 83.3 83.5 L 160.6 83.5 L 170.6 73.5 L 182.6 83.5 L 182.6 87.5 L 156.8 87.5 L 156.8 127.0 L 165.0 127.0 L 175.0 117.0 L 187.0 127.0 L 187.0 131.0 L 156.8 131.0 L 156.8 182.6 L 144.8 188.6 L 144.8 131.0 L 120.6 131.0 L 119.6 137.2 L 117.3 146.0 L 114.2 154.2 L 110.3 161.7 L 105.6 168.5 L 100.1 174.7 L 93.9 180.1 L 87.0 184.6 L 79.3 188.3 L 78.4 186.7 L 84.8 181.5 L 90.4 176.1 L 95.2 170.3 L 99.4 164.2 L 102.8 157.7 L 105.5 150.8 L 107.6 143.4 L 109.0 135.4 L 109.36666669845582 131.0 L 78.9 131.0 L 78.9 127.0 L 109.7 127.0 L 109.8 118.0 L 109.8 87.5 Z " />
</g>
</svg>
