<svg xmlns="http://www.w3.org/2000/svg" xmlns:xlink="http://www.w3.org/1999/xlink" version="1.1" baseProfile="full" viewBox="0 0 200 200" width="200" height="200">
<g fill="black">
<path d="M 157.0 135.9 L 168.0 144.9 L 163.0 148.9 L 163.0 179.9 L 151.0 185.9 L 151.0 175.9 L 70.0 175.9 L 70.0 182.9 L 58.0 188.9 L 58.0 149.06000003814697 L 55.7 150.9 L 48.2 156.3 L 40.3 161.4 L 31.8 166.2 L 22.9 170.6 L 13.4 174.7 L 12.5 173.1 L 21.0 167.3 L 29.0 161.6 L 36.5 155.9 L 43.6 150.2 L 50.2 144.4 L 56.4 138.5 L 62.0 132.4 L 67.1 126.3 L 71.8 120.1 L 72.4333333015442 119.1 L 18.0 119.1 L 18.0 115.1 L 160.0 115.1 L 167.57064218521117 107.52935781478882 L 166.8 107.3 L 159.0 104.4 L 151.7 101.0 L 145.0 97.3 L 142.66322593688966 95.72938137054443 L 134.9 99.2 L 125.6 102.4 L 115.6 105.1 L 104.9 107.1 L 93.5 108.5 L 93.1 106.7 L 104.0 103.4 L 114.1 99.9 L 123.4 96.2 L 131.8 92.3 L 135.41226615905762 90.22896747589111 L 133.5 88.6 L 128.8 83.7 L 124.8 78.3 L 121.6 72.6 L 119.65245904922486 67.2 L 108.2 67.2 L 108.2 63.2 L 164.1 63.2 L 164.3739884376526 62.97167625427246 L 164.9 62.1 L 165.2019165992737 62.2817361831665 L 170.1 58.2 L 181.1 67.2 L 176.1 70.2 L 172.77333335876466 71.58611106872559 L 170.4 74.8 L 164.8 80.8 L 158.4 86.2 L 153.31500101089478 89.70936546325683 L 156.2 90.9 L 163.0 93.3 L 170.3 95.2 L 178.2 96.9 L 187.0 98.9 L 175.40868167877198 109.60723476409912 L 182.0 115.1 L 182.0 119.1 L 86.97058820724487 119.1 L 85.9 120.5 L 80.8 127.0 L 75.2 133.4 L 69.2 139.4 L 67.5474575996399 140.9 L 151.0 140.9 Z M 70.0 144.9 L 70.0 171.9 L 151.0 171.9 L 151.0 144.9 Z M 22.6 46.8 L 22.6 20.5 L 34.6 22.5 L 37.6 24.5 L 34.6 26.3 L 34.6 36.8 L 55.1 36.8 L 55.1 14.2 L 67.1 16.2 L 70.1 18.2 L 67.1 20.0 L 67.1 36.8 L 87.5 36.8 L 87.5 20.5 L 98.5 22.5 L 101.2 24.5 L 98.5 26.223404216766358 L 98.5 40.8 L 90.05172414779663 45.0241379737854 L 99.8 53.0 L 94.8 57.0 L 94.8 81.4 L 82.8 87.4 L 82.8 77.4 L 38.435999965667726 77.4 L 37.7 82.0 L 36.4 86.7 L 34.7 91.0 L 32.6 94.9 L 30.1 98.5 L 27.3 101.6 L 24.0 104.3 L 20.4 106.4 L 16.7 108.2 L 15.7 106.7 L 18.5 103.9 L 20.7 101.0 L 22.6 97.9 L 24.2 94.8 L 25.4 91.5 L 26.3 88.1 L 26.9 84.4 L 27.2 80.5 L 27.2 76.4 L 27.0 71.9 L 27.065934085845946 71.8989010810852 L 27.0 71.8 L 27.0 44.6 Z M 122.33695650100708 67.2 L 125.1 70.3 L 129.3 74.6 L 133.9 78.5 L 138.8 82.1 L 143.60192222595214 85.08987607955933 L 146.1 83.4 L 152.0 78.5 L 157.1 73.3 L 161.4 67.9 L 161.82241382598878 67.2 Z M 38.83962268829346 73.4 L 82.8 73.4 L 82.8 64.7 L 39.0 64.7 L 39.0 71.8 L 38.98901100158692 71.81648349761963 Z M 39.0 53.0 L 39.0 60.7 L 82.8 60.7 L 82.8 53.0 Z M 120.6 21.4 L 164.6 21.4 L 170.6 16.4 L 181.6 25.4 L 176.6 29.4 L 176.6 51.7 L 164.6 57.7 L 164.6 51.7 L 120.6 51.7 L 109.6 57.2 L 109.6 15.9 Z M 28.6 43.8 L 39.0 49.0 L 82.8 49.0 L 87.5 45.08333330154419 L 87.5 40.8 L 34.6 40.8 Z M 120.6 25.4 L 120.6 47.7 L 164.6 47.7 L 164.6 25.4 Z " />
</g>
</svg>
