<svg xmlns="http://www.w3.org/2000/svg" xmlns:xlink="http://www.w3.org/1999/xlink" version="1.1" baseProfile="full" viewBox="0 0 200 200" width="200" height="200">
<g fill="black">
<path d="M 159.3 95.4 L 159.0 93.7 L 158.6 92.0 L 158.2 90.4 L 157.7 88.8 L 157.1 87.1 L 156.5 85.5 L 155.62272729873658 84.62272729873658 L 152.3 89.9 L 145.2 100.0 L 137.7 109.2 L 167.4 109.2 L 173.4 104.2 L 184.4 113.2 L 179.4 117.2 L 179.4 178.8 L 167.4 184.8 L 167.4 174.8 L 137.5 174.8 L 137.5 181.8 L 125.5 187.8 L 125.5 121.58048782348632 L 121.6 125.1 L 114.14511680603027 130.73450479507446 L 114.2 139.9 L 113.3 154.4 L 111.8 166.2 L 109.6 174.8 L 108.6 177.1 L 107.3 179.3 L 105.8 181.3 L 104.1 183.1 L 102.2 184.6 L 100.0 185.8 L 97.8 186.8 L 95.4 187.4 L 92.9 187.8 L 90.4 188.0 L 90.4 182.0 L 70.4 179.0 L 70.4 176.0 L 90.4 176.0 L 91.7 175.9 L 92.9 175.7 L 94.7 175.1 L 95.4 174.7 L 96.1 174.1 L 96.7 173.5 L 97.3 172.7 L 97.9 171.7 L 98.4 170.4 L 100.5 163.9 L 102.3 153.2 L 103.6 139.4 L 104.1 123.4 L 103.46737060546874 107.4938895225525 L 103.0 108.6 L 99.7 115.5 L 96.2 122.1 L 92.4 128.4 L 88.3 134.5 L 84.0 140.2 L 79.2 145.6 L 74.1 150.5 L 72.7 149.4 L 76.2 143.3 L 79.5 137.2 L 82.7 131.1 L 85.8 124.8 L 88.6 118.3 L 91.2 111.7 L 93.6 104.9 L 95.8 98.0 L 97.8 90.8 L 99.5 83.4 L 100.85320148468017 83.76163139343262 L 98.1 68.7 L 97.111563205719 65.24047107696533 L 95.3 67.9 L 90.4 74.3 L 85.2 80.1 L 79.8 85.2 L 74.0 89.6 L 72.8 88.3 L 77.0 82.6 L 81.1 76.7 L 85.1 70.5 L 88.9 63.9 L 92.6 56.8 L 93.92299995422363 54.08050003051758 L 92.9 50.5 L 85.8 33.4 L 77.2 17.3 L 78.6 16.2 L 90.5 30.8 L 97.89600343704224 45.33987045288086 L 99.5 41.5 L 102.8 33.1 L 105.8 24.3 L 108.7 15.0 L 108.71807231903077 15.006024074554443 L 109.2 13.5 L 120.1 18.8 L 122.3 21.6 L 118.71447849273682 22.417750549316406 L 116.5 28.2 L 112.7 37.2 L 108.7 45.6 L 104.4 53.6 L 102.36823530197144 57.01705884933472 L 105.7 66.7 L 110.1 85.9 L 110.148886013031 86.24582300186157 L 111.1 86.5 L 110.46781196594239 88.50192890167236 L 112.8 105.0 L 114.1 123.2 L 114.12701072692872 127.71079092025757 L 118.9 122.4 L 125.5 114.46086959838867 L 125.5 103.2 L 131.67959184646605 106.28979587554932 L 132.5 105.2 L 138.9 95.6 L 145.1 85.5 L 148.07706422805785 80.0 L 113.1 80.0 L 113.1 76.0 L 140.5 76.0 L 140.5 45.0 L 120.4 45.0 L 120.4 41.0 L 140.5 41.0 L 140.5 12.0 L 152.5 14.0 L 155.5 16.0 L 152.5 17.8 L 152.5 41.0 L 156.7 41.0 L 161.2 35.0 L 166.17527475357056 39.97527475357056 L 167.1 37.6 L 171.57747898101806 24.8205286026001 L 171.5 24.8 L 172.4 22.4 L 183.2 27.9 L 185.3 30.8 L 181.78403940200806 31.478518676757812 L 177.7 41.8 L 171.8 55.0 L 165.6 67.4 L 160.8222222328186 76.0 L 169.71818180084227 76.0 L 177.9 67.0 L 187.9 76.0 L 187.9 80.0 L 158.5333333015442 80.0 L 156.643065738678 83.00218982696533 L 157.9 83.9 L 159.7 84.7 L 161.4 85.7 L 163.1 86.9 L 164.6 88.3 L 166.1 89.8 L 167.6 91.5 L 168.9 93.3 L 170.2 95.2 L 171.4 97.3 L 170.9 101.9 L 167.4 104.8 L 162.8 104.3 L 159.9 100.9 L 159.7 99.0 Z M 74.6 36.0 L 74.6 40.0 L 52.18400001525879 40.0 L 50.0 49.1 L 47.3 59.0 L 44.2 68.7 L 40.8 78.3 L 38.162765979766846 85.0 L 55.8 85.0 L 61.8 80.0 L 72.8 89.0 L 67.8 93.0 L 67.8 163.0 L 55.8 169.0 L 55.8 157.0 L 39.8 157.0 L 39.8 169.0 L 27.8 175.0 L 27.8 107.55 L 23.9 114.7 L 18.6 123.2 L 12.9 131.4 L 11.4 130.5 L 15.3 121.4 L 19.1 112.3 L 22.7 103.2 L 26.0 94.0 L 27.8 88.76875 L 27.8 88.0 L 28.064516162872316 88.0 L 29.2 84.7 L 32.0 75.4 L 34.6 65.9 L 36.9 56.3 L 38.9 46.6 L 40.051162815093996 40.0 L 16.2 40.0 L 16.2 36.0 L 52.51666669845581 36.0 L 62.6 26.0 Z M 137.5 144.0 L 137.5 170.8 L 167.4 170.8 L 167.4 144.0 Z M 39.8 89.0 L 39.8 153.0 L 55.8 153.0 L 55.8 89.0 Z M 137.5 113.2 L 137.5 140.0 L 167.4 140.0 L 167.4 113.2 Z M 152.5 45.0 L 152.5 71.49285717010498 L 156.6 63.0 L 162.0 50.7 L 164.2190839767456 45.0 Z " />
</g>
</svg>
