<svg xmlns="http://www.w3.org/2000/svg" xmlns:xlink="http://www.w3.org/1999/xlink" version="1.1" baseProfile="full" viewBox="0 0 200 200" width="200" height="200">
<g fill="black">
<path d="M 94.0 30.3 L 164.9834711074829 30.3 L 175.0 20.2 L 187.0 30.3 L 187.0 34.3 L 94.0 34.3 L 94.0 93.7 L 93.5 107.4 L 92.7 120.3 L 91.5 132.2 L 89.9 143.3 L 87.9 153.4 L 85.5 162.6 L 82.8 171.0 L 79.5 178.3 L 75.8 184.6 L 71.6 189.7 L 70.1 188.7 L 72.4 182.8 L 74.6 176.3 L 76.5 169.0 L 78.2 160.9 L 79.6 151.9 L 80.7 142.1 L 81.5 131.3 L 82.0 119.7 L 82.2 107.1 L 82.0 93.7 L 82.0 24.2 Z M 114.5 127.8 L 163.9 127.8 L 169.9 122.8 L 180.9 131.8 L 175.9 135.8 L 175.9 178.7 L 163.9 184.7 L 163.9 174.7 L 114.5 174.7 L 114.5 181.7 L 102.5 187.7 L 102.5 121.8 Z M 76.5 36.0 L 76.5 40.0 L 53.78400001525879 40.0 L 51.6 49.1 L 48.8 59.0 L 45.7 68.8 L 42.3 78.3 L 39.59148931503296 85.0 L 57.5 85.0 L 63.5 80.0 L 74.5 89.0 L 69.5 93.0 L 69.5 163.0 L 57.5 169.0 L 57.5 157.0 L 41.2 157.0 L 41.2 169.0 L 29.2 175.0 L 29.2 107.33673467636109 L 25.1 114.7 L 19.8 123.2 L 14.1 131.4 L 12.5 130.5 L 16.5 121.4 L 20.3 112.3 L 24.0 103.2 L 27.4 94.0 L 29.2 88.76875 L 29.2 88.0 L 29.464516162872314 88.0 L 30.6 84.7 L 33.5 75.3 L 36.1 65.9 L 38.4 56.3 L 40.5 46.6 L 41.57441864013672 40.0 L 17.3 40.0 L 17.3 36.0 L 54.5 36.0 L 64.5 26.0 Z M 114.5 153.2 L 114.5 170.7 L 163.9 170.7 L 163.9 153.2 Z M 41.2 89.0 L 41.2 153.0 L 57.5 153.0 L 57.5 89.0 Z M 114.5 131.8 L 114.5 149.2 L 163.9 149.2 L 163.9 131.8 Z M 171.6 104.8 L 169.2 101.0 L 167.0 97.0 L 165.2 92.9 L 164.0 89.675 L 164.0 119.0 L 152.0 125.0 L 152.0 93.16875 L 150.2 95.7 L 146.6 100.0 L 142.8 104.0 L 138.5 107.7 L 133.9 111.0 L 128.8 113.9 L 127.7 112.5 L 131.4 108.2 L 134.7 103.9 L 137.8 99.7 L 140.6 95.5 L 143.0 91.1 L 145.2 86.7 L 147.1 82.2 L 148.6 77.6 L 149.9 72.9 L 150.1666666984558 71.3 L 140.2 71.3 L 140.2 67.3 L 152.0 67.3 L 152.0 54.332558155059814 L 149.7 54.6 L 145.2 55.0 L 140.5 55.2 L 135.7 55.6 L 135.4 53.8 L 139.9 52.2 L 140.10286436080932 52.11508007049561 L 136.4494990348816 50.54132261276245 L 135.6 50.9 L 132.9 51.5 L 129.9 52.1 L 126.6 52.7 L 123.1 53.3 L 123.1 67.3 L 127.7 67.3 L 132.2 61.3 L 138.2 67.3 L 138.2 71.3 L 123.1 71.3 L 123.1 80.16363639831543 L 123.9 80.2 L 125.9 80.4 L 127.9 80.7 L 129.8 81.1 L 131.6 81.6 L 135.0 82.8 L 136.6 83.6 L 138.1 84.5 L 139.5 88.9 L 137.5 93.0 L 133.2 94.4 L 129.1 92.4 L 128.9 91.6 L 128.5 90.6 L 127.9 89.5 L 127.2 88.4 L 126.3 87.2 L 125.2 86.0 L 123.9 84.7 L 123.1 83.95714282989502 L 123.1 119.0 L 111.1 125.0 L 111.1 93.03928575515747 L 108.4 96.8 L 105.5 100.5 L 102.4 103.9 L 98.9 107.0 L 95.3 109.9 L 94.0 108.7 L 96.2 104.8 L 98.3 100.9 L 100.3 97.0 L 102.1 93.0 L 103.8 89.1 L 105.4 85.0 L 106.8 80.9 L 108.0 76.6 L 109.0 72.3 L 109.16666669845581 71.3 L 94.6 71.3 L 94.6 67.3 L 111.1 67.3 L 111.1 54.66363639831543 L 110.7 54.7 L 105.9 55.0 L 100.8 55.2 L 95.4 55.6 L 95.1 53.8 L 100.3 52.2 L 105.0 50.5 L 109.5 48.9 L 111.1 48.31463413238525 L 111.1 47.8 L 112.50666666030884 47.8 L 113.6 47.4 L 117.4 46.0 L 120.8 44.7 L 123.9 43.4 L 126.7 42.1 L 129.0 40.9 L 130.17757682800294 40.25233268737793 L 130.1 40.1 L 130.23541669845582 40.22052087783813 L 131.0 39.8 L 131.7228946685791 41.54437627792358 L 140.1 49.0 L 140.28980169296264 52.03682718276978 L 144.2 50.4 L 148.3 48.8 L 152.3 47.3 L 156.1 45.8 L 159.7 44.3 L 163.1 42.9 L 166.3 41.5 L 169.3 40.1 L 171.25687732696534 39.12156133651733 L 171.2 39.0 L 171.30918731689454 39.09540634155273 L 172.1 38.7 L 172.70595664978026 40.31588449478149 L 181.5 48.0 L 181.7 51.1 L 177.75720491409302 49.36755971908569 L 176.3 49.9 L 173.0 50.7 L 169.5 51.5 L 165.9 52.2 L 164.0 52.55 L 164.0 67.3 L 166.21818180084227 67.3 L 174.4 58.3 L 184.4 67.3 L 184.4 71.3 L 164.0 71.3 L 164.0 73.38000001907349 L 164.4 74.2 L 166.5 78.1 L 168.6 81.8 L 170.7 85.3 L 173.0 88.6 L 175.4 91.7 L 177.9 94.7 L 180.6 97.5 L 183.4 100.1 L 186.3 102.6 L 187.9 104.1 L 177.2 112.1 L 174.2 108.5 Z " />
</g>
</svg>
