<svg xmlns="http://www.w3.org/2000/svg" xmlns:xlink="http://www.w3.org/1999/xlink" version="1.1" baseProfile="full" viewBox="0 0 200 200" width="200" height="200">
<g fill="black">
<path d="M 95.4 117.0 L 95.4 113.0 L 138.2 113.0 L 138.2 88.0 L 150.2 90.0 L 153.2 92.0 L 150.2 93.8 L 150.2 113.0 L 153.4181818008423 113.0 L 161.6 104.0 L 171.6 113.0 L 171.6 117.0 L 150.2 117.0 L 150.2 126.0 L 149.3 136.8 L 147.0 146.8 L 143.3 155.9 L 140.38917198181153 160.55732488632202 L 145.9 164.1 L 153.8 167.8 L 162.7 170.8 L 172.7 173.0 L 183.7 174.4 L 194.1 175.6 L 182.2 187.5 L 170.2 185.3 L 159.2 182.1 L 149.3 177.9 L 140.5 172.8 L 134.53107690811157 168.0876922607422 L 132.0 170.9 L 124.5 176.8 L 115.9 181.5 L 106.2 185.1 L 95.3 187.6 L 83.4 188.8 L 83.2 187.1 L 94.4 183.9 L 104.3 180.1 L 112.9 175.7 L 120.1 170.6 L 126.0 165.0 L 128.36091232299805 161.83537282943726 L 126.5 159.8 L 121.4 152.0 L 117.6 143.4 L 115.2 134.1 L 114.3 124.1 L 116.1 123.8 L 119.2 133.0 L 123.0 141.0 L 127.5 148.2 L 132.8 154.3 L 132.86971426010132 154.36057138442993 L 134.2 151.7 L 136.6 144.0 L 138.0 135.4 L 138.2 126.0 L 138.2 117.0 Z M 86.0 66.0 L 86.0 70.0 L 52.3 70.0 L 52.3 183.5 L 42.3 188.5 L 42.3 70.0 L 12.9 70.0 L 12.9 66.0 L 64.0 66.0 L 74.0 56.0 Z M 31.8 88.0 L 34.6 90.0 L 31.8 91.75 L 31.8 120.0 L 31.4 128.2 L 30.7 135.9 L 29.7 143.0 L 28.4 149.5 L 26.7 155.4 L 24.8 160.7 L 22.5 165.3 L 19.8 169.2 L 16.8 172.3 L 13.4 174.6 L 12.3 173.3 L 14.1 170.2 L 15.6 166.7 L 17.0 162.8 L 18.2 158.4 L 19.2 153.5 L 20.0 148.0 L 20.5 141.9 L 20.9 135.2 L 21.0 127.9 L 20.8 120.0 L 20.8 86.0 Z M 75.5 88.0 L 78.2 90.0 L 75.5 91.72340421676635 L 75.5 155.2 L 64.5 160.7 L 64.5 86.0 Z M 78.1 114.0 L 76.2 109.9 L 77.6 105.5 L 78.8 104.4 L 80.1 102.5 L 81.5 100.0 L 82.8 96.8 L 84.0 93.0 L 85.1 88.6 L 86.1 83.5 L 87.0 78.0 L 88.0 71.8 L 88.8 65.1 L 90.6 65.1 L 91.4 71.9 L 91.9333333015442 76.7 L 175.7 76.7 L 181.7 71.7 L 192.7 80.7 L 187.7 83.7 L 185.25404253005982 84.71914892196655 L 184.9 85.4 L 183.4 88.1 L 181.9 90.9 L 180.2 93.8 L 178.4 96.8 L 176.5 99.9 L 174.4 103.2 L 172.0 106.6 L 169.8 110.2 L 168.2 109.4 L 169.5 105.4 L 170.4 101.4 L 171.3 97.7 L 172.2 94.2 L 173.0 90.8 L 173.8 87.7 L 174.5 84.7 L 175.1 81.9 L 175.3307692527771 80.7 L 92.22931032180786 80.7 L 92.4 84.0 L 92.4 89.4 L 92.1 94.4 L 91.7 98.9 L 90.9 103.1 L 89.9 106.8 L 88.5 110.3 L 86.6 113.4 L 82.5 115.4 Z M 175.8 43.4 L 178.2 46.1 L 174.3779999732971 47.192000007629396 L 174.3 47.4 L 172.6 51.3 L 170.9 55.1 L 169.0 58.6 L 167.0 62.1 L 164.9 65.3 L 162.6 68.4 L 160.2 71.3 L 157.6 73.9 L 155.1 76.5 L 153.7 75.5 L 155.1 72.3 L 156.3 68.9 L 157.5 65.6 L 158.7 62.2 L 159.8 58.8 L 160.8 55.3 L 161.8 51.7 L 162.7 48.0 L 163.5 44.2 L 164.03721618652344 41.206938648223876 L 164.0 41.2 L 164.11538457870483 40.77142858505249 L 164.2 40.3 L 164.23946800231934 40.31054744720459 L 164.7 38.6 Z M 99.9 61.6 L 98.5 56.8 L 97.6 54.3 L 96.5 51.8 L 95.3 49.3 L 94.0 46.7 L 92.3 44.3 L 93.5 43.0 L 95.9 45.0 L 98.4 46.7 L 100.8 48.7 L 102.9 50.8 L 104.9 53.0 L 106.8 55.4 L 108.5 57.9 L 110.0 60.5 L 111.4 63.2 L 112.6 66.1 L 111.8 70.6 L 108.1 73.3 L 103.6 72.5 L 100.9 68.8 L 100.7 66.4 Z M 129.4 56.0 L 128.6 51.8 L 128.1 49.7 L 126.9 45.5 L 126.3 43.3 L 125.1 41.5 L 126.5 40.4 L 128.1 42.0 L 130.0 43.4 L 131.8 45.0 L 133.5 46.7 L 135.1 48.6 L 136.6 50.5 L 138.0 52.7 L 139.3 54.9 L 140.6 57.2 L 141.7 59.6 L 141.0 64.2 L 137.4 67.0 L 132.9 66.3 L 130.1 62.6 L 129.7 58.2 Z M 174.20595664978026 16.915884494781494 L 183.0 24.6 L 183.2 27.7 L 179.22481117248535 25.979395866394043 L 177.8 26.5 L 169.0 29.3 L 160.0 31.7 L 150.9 33.8 L 141.7 35.5 L 132.3 36.9 L 122.9 37.9 L 113.3 38.5 L 103.6 38.7 L 93.8 38.4 L 83.9 37.6 L 83.9 35.8 L 93.7 34.6 L 103.3 33.4 L 112.7 32.0 L 121.9 30.4 L 130.9 28.5 L 139.8 26.4 L 148.5 24.1 L 157.0 21.4 L 165.4 18.5 L 172.7202649116516 15.64331121444702 L 172.7 15.6 L 172.74052076339723 15.635406494140625 L 173.6 15.3 Z M 76.7 30.0 L 76.7 34.0 L 21.3 34.0 L 21.3 30.0 L 54.7 30.0 L 64.7 20.0 Z " />
</g>
</svg>
