<svg xmlns="http://www.w3.org/2000/svg" xmlns:xlink="http://www.w3.org/1999/xlink" version="1.1" baseProfile="full" viewBox="0 0 200 200" width="200" height="200">
<g fill="black">
<path d="M 88.0 177.0 L 102.0 177.0 L 103.2 176.9 L 104.1 176.7 L 105.0 176.4 L 105.4 176.0 L 105.6 175.7 L 105.8 175.1 L 105.9 174.2 L 106.0 173.0 L 106.0 140.9753846168518 L 99.2 143.8 L 92.7 146.4 L 86.1 148.9 L 83.25457191467285 149.96172685623168 L 82.2 153.6 L 79.4 151.4 L 73.9 140.5 L 75.8 139.9 L 82.5 138.1 L 89.3 136.2 L 96.0 134.3 L 102.6 132.3 L 106.0 131.3358208656311 L 106.0 107.0 L 114.79166669845581 108.46527776718139 L 115.1 107.9 L 116.9 104.7 L 118.7 101.6 L 120.5 98.6 L 122.1 95.6 L 123.8 92.6 L 125.3 89.6 L 125.61034479141236 89.0 L 83.3 89.0 L 83.3 85.0 L 127.3 85.0 L 127.78000001907348 84.6 L 128.2 83.7 L 128.5739999771118 83.93833332061767 L 133.3 80.0 L 144.3 89.0 L 139.3 92.0 L 135.55071773529053 93.56220092773438 L 133.9 95.5 L 131.6 98.1 L 129.2 100.7 L 126.7 103.3 L 124.1 105.9 L 121.4 108.4 L 119.48153848648072 109.9876922607422 L 121.0 111.0 L 118.0 112.8 L 118.0 127.79545450210571 L 122.5 126.5 L 129.2 124.6 L 135.8 122.8 L 142.5 121.1 L 143.2 122.8 L 137.2 126.3 L 131.1 129.6 L 124.9 132.6 L 118.6 135.5 L 118.0 135.771875 L 118.0 173.0 L 117.8 175.5 L 117.4 178.0 L 116.6 180.4 L 115.4 182.7 L 113.7 184.7 L 111.7 186.3 L 109.4 187.6 L 107.0 188.4 L 104.5 188.8 L 102.0 189.0 L 102.0 183.0 L 88.0 180.0 Z M 131.6516948699951 18.227118682861327 L 139.1 25.2 L 139.3 28.4 L 135.58427095413208 26.84179105758667 L 132.1 28.1 L 128.3 29.2 L 124.4 30.3 L 120.3 31.3 L 116.1 32.2 L 111.7 33.0 L 107.1 33.7 L 102.3 34.2 L 101.06830596923828 34.3005464553833 L 97.76807832717896 35.73272075653076 L 97.5 37.0 L 96.1 42.2 L 94.5 47.5 L 92.7 52.9 L 90.6 58.3 L 88.3 63.7 L 85.7 69.1 L 82.8 74.6 L 79.6 80.0 L 76.0 85.3 L 74.4 84.6 L 76.1 78.4 L 77.9 72.5 L 78.63275861740112 70.0 L 50.3 70.0 L 50.3 183.5 L 40.3 188.5 L 40.3 70.0 L 13.2 70.0 L 13.2 66.0 L 59.5 66.0 L 69.5 56.0 L 80.1 64.83333330154419 L 81.1 61.1 L 82.5 55.6 L 83.7 50.3 L 84.8 45.1 L 85.6 40.0 L 86.3 35.0 L 86.69737958908081 31.105680465698242 L 86.6 31.1 L 87.0 28.1 L 96.84748201370239 31.241007232666014 L 101.2 29.5 L 105.5 27.7 L 109.7 26.1 L 113.7 24.4 L 117.5 22.7 L 121.0 21.1 L 124.4 19.4 L 127.6 17.7 L 129.74782609939575 16.48289852142334 L 129.7 16.4 L 129.7731948852539 16.468522930145262 L 130.6 16.0 Z M 184.6 143.9 L 186.6 143.9 L 184.6 168.9 L 188.2 171.3 L 190.6 174.9 L 188.2 178.5 L 184.6 180.9 L 164.2 180.9 L 161.7 180.7 L 159.2 180.3 L 156.8 179.5 L 154.5 178.3 L 152.5 176.6 L 150.9 174.6 L 149.6 172.3 L 148.8 169.9 L 148.4 167.4 L 148.2 164.9 L 148.2 19.3 L 160.2 21.3 L 163.2 23.3 L 160.2 25.1 L 160.2 164.9 L 160.3 166.1 L 160.5 167.0 L 160.8 167.9 L 161.2 168.3 L 161.5 168.5 L 162.1 168.6 L 163.0 168.8 L 164.2 168.9 L 178.6 168.9 Z M 31.2 88.0 L 34.0 90.0 L 31.2 91.75 L 31.2 120.0 L 30.8 128.2 L 30.1 135.9 L 29.2 143.0 L 27.9 149.5 L 26.4 155.3 L 24.5 160.6 L 22.3 165.2 L 19.8 169.1 L 16.9 172.3 L 13.7 174.5 L 12.6 173.4 L 14.2 170.2 L 15.5 166.8 L 16.8 162.9 L 17.9 158.5 L 18.8 153.6 L 19.5 148.0 L 20.0 141.9 L 20.3 135.2 L 20.4 127.9 L 20.2 120.0 L 20.2 86.0 Z M 72.0 88.0 L 74.8 90.0 L 72.0 91.75 L 72.0 155.2 L 61.0 160.7 L 61.0 86.0 Z M 107.0 64.1 L 107.0 59.0 L 106.8 56.4 L 106.6 53.9 L 106.2 51.2 L 105.8 48.6 L 105.3 45.8 L 104.3 43.3 L 105.9 42.4 L 107.5 44.7 L 109.4 46.9 L 111.1 49.3 L 112.6 51.8 L 114.0 54.4 L 115.2 57.1 L 116.3 59.9 L 117.2 62.7 L 118.0 65.7 L 118.6 68.7 L 117.0 73.0 L 112.8 74.9 L 108.6 73.3 L 106.6 69.2 L 106.8 66.7 Z M 130.6 61.2 L 130.2 58.3 L 129.5 55.4 L 128.8 52.6 L 127.9 49.7 L 126.9 46.8 L 125.8 44.0 L 124.6 41.0 L 123.0 38.3 L 124.3 37.1 L 126.7 39.4 L 129.3 41.6 L 131.6 44.0 L 133.7 46.5 L 135.7 49.3 L 137.5 52.1 L 139.1 55.1 L 140.6 58.3 L 141.9 61.5 L 143.0 64.9 L 142.1 69.3 L 138.3 71.9 L 133.8 70.9 L 131.3 67.1 L 131.0 64.2 Z M 72.8 30.0 L 72.8 34.0 L 21.0 34.0 L 21.0 30.0 L 50.8 30.0 L 60.8 20.0 Z " />
</g>
</svg>
