<svg xmlns="http://www.w3.org/2000/svg" xmlns:xlink="http://www.w3.org/1999/xlink" version="1.1" baseProfile="full" viewBox="0 0 200 200" width="200" height="200">
<g fill="black">
<path d="M 88.0 66.0 L 88.0 70.0 L 52.9 70.0 L 52.9 183.5 L 42.9 188.5 L 42.9 70.0 L 12.3 70.0 L 12.3 66.0 L 66.0 66.0 L 76.0 56.0 Z M 78.8 172.3 L 127.0 172.3 L 127.0 143.3 L 87.0 143.3 L 87.0 139.3 L 127.0 139.3 L 127.0 116.3 L 139.0 118.3 L 142.0 120.3 L 139.0 122.1 L 139.0 139.3 L 156.9 139.3 L 166.9 129.3 L 178.9 139.3 L 178.9 143.3 L 139.0 143.3 L 139.0 172.3 L 165.1 172.3 L 175.1 162.3 L 187.1 172.3 L 187.1 176.3 L 78.8 176.3 Z M 31.7 88.0 L 34.4 90.0 L 31.7 91.72340421676635 L 31.7 120.0 L 31.3 128.2 L 30.5 135.9 L 29.5 143.0 L 28.1 149.5 L 26.5 155.4 L 24.5 160.7 L 22.1 165.3 L 19.4 169.2 L 16.2 172.4 L 12.8 174.6 L 11.7 173.3 L 13.6 170.1 L 15.2 166.7 L 16.6 162.8 L 17.9 158.4 L 18.9 153.5 L 19.8 148.0 L 20.4 141.9 L 20.7 135.2 L 20.8 127.9 L 20.7 120.0 L 20.7 86.0 Z M 76.9 88.0 L 79.7 90.0 L 76.9 91.75 L 76.9 155.2 L 65.9 160.7 L 65.9 86.0 Z M 163.5 118.1 L 155.6 113.0 L 148.8 106.8 L 143.0 99.6 L 138.3 91.4 L 134.6 82.4 L 133.35 77.4 L 103.0 77.4 L 103.0 108.02456140518188 L 104.6 107.8 L 110.4 107.0 L 116.2 106.1 L 122.1 105.1 L 128.0 104.2 L 134.1 103.3 L 140.3 102.5 L 140.8 104.2 L 135.1 106.9 L 129.4 109.3 L 123.7 111.5 L 112.3 115.3 L 106.5 116.9 L 100.8 118.5 L 95.1 119.9 L 89.5 121.3 L 87.87070798873901 121.64300880432128 L 86.2 125.2 L 83.8 122.5 L 80.0 110.9 L 82.0 110.6 L 91.0 109.63571424484253 L 91.0 15.4 L 103.0 21.4 L 161.6 21.4 L 167.6 16.4 L 178.6 25.4 L 173.6 29.4 L 173.6 56.0 L 161.6 62.0 L 161.6 52.0 L 142.1754716873169 52.0 L 142.5 60.6 L 143.9 70.1 L 144.74418601989746 73.4 L 161.4 73.4 L 171.4 63.4 L 183.4 73.4 L 183.4 77.4 L 145.76744184494018 77.4 L 146.1 78.7 L 149.1 86.2 L 152.9 92.8 L 157.5 98.6 L 162.9 103.5 L 169.2 107.6 L 176.5 110.9 L 178.07512998580933 111.37443675994874 L 183.4 88.3 L 185.4 88.3 L 183.49936590194702 113.00824279785157 L 184.8 113.4 L 188.4 116.2 L 189.2 120.7 L 186.4 124.3 L 181.9 125.1 L 172.3 122.1 Z M 103.0 52.0 L 103.0 73.4 L 132.35 73.4 L 132.1 72.4 L 130.6 61.7 L 130.18547010421753 52.0 Z M 103.0 25.4 L 103.0 48.0 L 161.6 48.0 L 161.6 25.4 Z M 78.4 30.0 L 78.4 34.0 L 21.0 34.0 L 21.0 30.0 L 56.4 30.0 L 66.4 20.0 Z " />
</g>
</svg>
