<svg xmlns="http://www.w3.org/2000/svg" xmlns:xlink="http://www.w3.org/1999/xlink" version="1.1" baseProfile="full" viewBox="0 0 200 200" width="200" height="200">
<g fill="black">
<path d="M 138.0 176.3 L 158.0 176.3 L 159.2 176.2 L 160.1 176.1 L 160.7 175.9 L 161.0 175.7 L 161.2 175.6 L 161.4 175.4 L 161.5 175.0 L 161.7 174.5 L 161.9 173.5 L 162.0 172.3 L 162.0 147.6 L 106.0 147.6 L 106.0 161.2581395149231 L 119.6 161.1 L 128.2 161.2 L 129.65709629058838 161.25024471282958 L 129.6 161.2 L 126.8 158.9 L 123.7 156.6 L 120.4 154.1 L 116.5 151.9 L 117.2 150.2 L 121.5 151.6 L 125.7 152.7 L 129.6 154.0 L 133.1 155.5 L 136.5 157.0 L 139.6 158.7 L 142.4 160.5 L 145.0 162.5 L 147.4 164.6 L 149.4 166.9 L 150.1 171.4 L 147.5 175.2 L 143.0 175.9 L 139.3 173.3 L 138.5 171.5 L 137.4 169.6 L 136.0 167.6 L 134.2 165.5 L 132.8333333015442 164.13333330154418 L 128.5 165.0 L 120.0 166.5 L 103.0 168.9 L 86.0 170.9 L 77.6 171.9 L 69.1 172.8 L 60.7 173.6 L 56.37960691452027 174.06289930343627 L 54.5 177.3 L 52.3 174.5 L 49.6 162.6 L 51.6 162.5 L 68.4 162.1 L 94.0 161.49764709472657 L 94.0 147.6 L 38.0 147.6 L 38.0 181.3 L 26.0 187.3 L 26.0 137.6 L 38.0 143.6 L 94.0 143.6 L 94.0 134.3 L 52.0 134.3 L 40.0 140.3 L 40.0 95.7 L 52.0 101.7 L 148.0 101.7 L 154.0 96.7 L 165.0 105.7 L 160.0 109.7 L 160.0 134.3 L 148.0 140.3 L 148.0 134.3 L 106.0 134.3 L 106.0 143.6 L 162.0 143.6 L 168.0 138.6 L 179.0 147.6 L 174.0 151.6 L 174.0 172.3 L 173.8 174.9 L 173.4 177.4 L 172.6 179.8 L 171.3 182.0 L 169.7 184.0 L 167.7 185.7 L 165.4 186.9 L 163.0 187.7 L 160.5 188.2 L 158.0 188.3 L 158.0 182.3 L 138.0 179.3 Z M 52.0 120.0 L 52.0 130.3 L 94.0 130.3 L 94.0 120.0 Z M 106.0 120.0 L 106.0 130.3 L 148.0 130.3 L 148.0 120.0 Z M 52.0 105.7 L 52.0 116.0 L 94.0 116.0 L 94.0 105.7 Z M 106.0 105.7 L 106.0 116.0 L 148.0 116.0 L 148.0 105.7 Z M 134.0 74.5 L 137.0 76.5 L 134.0 78.3 L 134.0 84.1 L 168.8181818008423 84.1 L 177.0 75.1 L 187.0 84.1 L 187.0 88.1 L 134.0 88.1 L 134.0 95.2 L 122.0 101.2 L 122.0 88.1 L 78.0 88.1 L 78.0 95.2 L 66.0 101.2 L 66.0 88.1 L 13.0 88.1 L 13.0 84.1 L 66.0 84.1 L 66.0 72.5 L 78.0 74.5 L 81.0 76.5 L 78.0 78.3 L 78.0 84.1 L 122.0 84.1 L 122.0 72.5 Z M 163.3 72.8 L 160.2 71.1 L 156.7 69.4 L 153.0 67.6 L 149.0 65.8 L 144.7 64.0 L 140.2 62.1 L 135.4 60.0 L 134.60373935699462 59.687740898132326 L 131.3 62.3 L 126.4 65.5 L 121.1 68.6 L 115.2 71.5 L 108.9 74.2 L 102.0 76.6 L 94.5 78.7 L 93.8 77.0 L 100.4 73.1 L 106.5 69.4 L 112.0 65.7 L 117.0 62.2 L 121.5 58.6 L 125.3 55.1 L 128.6 51.7 L 131.4 48.3 L 133.5 44.9 L 134.7609889984131 42.52637367248535 L 134.7 42.5 L 135.7 40.6 L 145.8 47.3 L 147.5 50.5 L 143.38872213363646 50.70904798507691 L 142.9 51.4 L 139.5 55.2 L 137.665030670166 56.94086837768555 L 141.4 57.3 L 146.4 58.1 L 151.1 58.9 L 155.6 59.9 L 159.8 60.9 L 163.8 61.9 L 167.5 63.1 L 171.0 64.3 L 174.3 65.5 L 177.2 69.1 L 176.9 73.6 L 173.3 76.5 L 168.8 76.1 L 166.2 74.5 Z M 83.1 70.8 L 80.4 69.2 L 77.5 67.6 L 74.2 65.9 L 70.8 64.3 L 67.1 62.5 L 63.1 60.7 L 59.68461542129516 59.154945087432864 L 56.7 61.5 L 52.1 64.5 L 46.9 67.4 L 41.2 70.1 L 34.9 72.6 L 28.1 74.7 L 20.7 76.6 L 20.0 75.0 L 26.6 71.3 L 32.6 67.7 L 38.1 64.3 L 42.9 60.9 L 47.2 57.6 L 50.8 54.3 L 53.8 51.1 L 56.2 48.0 L 58.0 44.9 L 59.2 42.0 L 59.20765447616577 42.00351123809814 L 59.7 40.8 L 70.1 47.0 L 72.0 50.0 L 67.9170163154602 50.49277391433716 L 67.6 51.0 L 64.5 54.7 L 62.99966478347778 56.15865917205811 L 64.3 56.3 L 68.7 56.9 L 72.9 57.6 L 76.9 58.5 L 80.6 59.3 L 84.1 60.3 L 87.4 61.3 L 90.5 62.3 L 93.4 63.5 L 96.2 67.1 L 95.7 71.6 L 92.1 74.4 L 87.6 73.9 L 85.5 72.4 Z M 163.4 43.9 L 160.2 42.3 L 156.7 40.5 L 153.0 38.8 L 149.0 37.0 L 144.7 35.2 L 140.2 33.3 L 135.4 31.2 L 134.60373935699462 30.887740898132325 L 131.3 33.5 L 126.4 36.7 L 121.1 39.7 L 115.2 42.6 L 108.9 45.3 L 101.9 47.6 L 94.5 49.7 L 93.8 48.1 L 100.4 44.2 L 106.5 40.5 L 112.0 36.9 L 117.0 33.3 L 121.5 29.8 L 125.3 26.3 L 128.6 22.9 L 131.4 19.5 L 133.5 16.2 L 134.7296895980835 13.812955474853515 L 134.7 13.8 L 135.7 11.9 L 145.7 18.6 L 147.4 21.8 L 143.3723627090454 22.008326053619385 L 142.9 22.7 L 139.5 26.5 L 137.71698112487792 28.14586353302002 L 141.4 28.5 L 146.4 29.3 L 151.1 30.1 L 155.6 31.0 L 159.8 32.0 L 163.8 33.1 L 167.5 34.2 L 171.0 35.4 L 174.3 36.6 L 177.2 40.1 L 176.9 44.7 L 173.3 47.6 L 168.8 47.3 L 166.2 45.6 Z M 83.1 42.0 L 80.4 40.4 L 77.5 38.8 L 74.3 37.1 L 70.8 35.4 L 67.1 33.7 L 63.1 31.9 L 59.74313726425171 30.381419277191164 L 56.7 32.7 L 52.1 35.7 L 46.9 38.6 L 41.2 41.2 L 34.9 43.7 L 28.1 45.8 L 20.7 47.7 L 20.0 46.0 L 26.6 42.3 L 32.6 38.8 L 38.1 35.4 L 42.9 32.1 L 47.2 28.8 L 50.8 25.5 L 53.8 22.3 L 56.2 19.2 L 58.0 16.2 L 58.82398509979248 14.208702564239502 L 58.8 14.2 L 59.7 12.1 L 70.1 18.3 L 72.0 21.4 L 67.89723501205444 21.82442398071289 L 67.6 22.3 L 64.5 26.0 L 63.09217872619629 27.36871509552002 L 64.3 27.5 L 68.7 28.1 L 72.9 28.8 L 76.9 29.6 L 80.6 30.5 L 84.1 31.4 L 87.4 32.4 L 90.5 33.5 L 93.4 34.6 L 96.2 38.2 L 95.7 42.7 L 92.1 45.5 L 87.6 45.1 L 85.5 43.5 Z " />
</g>
</svg>
