<svg xmlns="http://www.w3.org/2000/svg" xmlns:xlink="http://www.w3.org/1999/xlink" version="1.1" baseProfile="full" viewBox="0 0 200 200" width="200" height="200">
<g fill="black">
<path d="M 185.8 54.2 L 180.8 58.2 L 180.8 98.3 L 168.8 104.3 L 168.8 98.3 L 87.5 98.3 L 87.5 138.3 L 168.37777776718139 138.3 L 174.6 131.3 L 182.6 138.3 L 182.6 142.3 L 87.5 142.3 L 81.15 145.475 L 92.8 151.3 L 163.1 151.3 L 169.1 146.3 L 180.1 155.3 L 175.1 159.3 L 175.1 181.9 L 163.1 187.9 L 163.1 179.9 L 92.8 179.9 L 92.8 182.9 L 80.8 188.9 L 80.8 145.65 L 77.5 147.3 L 77.5 89.3 L 87.5 94.3 L 168.8 94.3 L 168.8 54.2 L 75.4 54.2 L 75.4 50.2 L 168.8 50.2 L 174.8 45.2 Z M 76.5 66.0 L 76.5 70.0 L 47.6 70.0 L 47.6 183.5 L 37.6 188.5 L 37.6 70.0 L 12.5 70.0 L 12.5 66.0 L 54.5 66.0 L 64.5 56.0 Z M 92.8 155.3 L 92.8 175.9 L 163.1 175.9 L 163.1 155.3 Z M 29.8 88.0 L 32.5 90.0 L 29.8 91.72340421676635 L 29.8 120.0 L 29.4 128.2 L 28.7 135.9 L 27.8 142.9 L 26.6 149.4 L 25.1 155.3 L 23.4 160.5 L 21.3 165.1 L 18.9 169.1 L 16.2 172.3 L 13.1 174.5 L 11.9 173.4 L 13.3 170.2 L 14.6 166.8 L 15.7 163.0 L 16.7 158.6 L 17.5 153.6 L 18.2 148.1 L 18.6 142.0 L 18.9 135.2 L 18.9 127.9 L 18.8 120.0 L 18.8 86.0 Z M 67.5 88.0 L 70.0 90.0 L 67.5 91.66666669845581 L 67.5 155.5 L 57.5 160.5 L 57.5 86.0 Z M 98.7 135.0 L 98.7 101.5 L 109.7 107.0 L 152.4777777671814 107.0 L 158.7 100.0 L 166.7 107.0 L 166.7 111.0 L 142.8 111.0 L 142.8 125.5 L 154.2777777671814 125.5 L 160.5 118.5 L 168.5 125.5 L 168.5 129.5 L 109.7 129.5 Z M 109.7 111.0 L 109.7 125.5 L 130.8 125.5 L 130.8 111.0 Z M 84.5 82.7 L 117.0 82.7 L 117.0 66.1 L 90.3 66.1 L 90.3 62.1 L 141.37777776718139 62.1 L 147.6 55.1 L 155.6 62.1 L 155.6 66.1 L 129.0 66.1 L 129.0 82.7 L 147.1777777671814 82.7 L 153.4 75.7 L 161.4 82.7 L 161.4 86.7 L 84.5 86.7 Z M 77.9 37.6 L 122.0 37.6 L 122.0 27.2 L 69.5 27.2 L 69.5 23.2 L 122.0 23.2 L 122.0 12.0 L 134.0 14.0 L 137.0 16.0 L 134.0 17.8 L 134.0 23.2 L 168.21818180084227 23.2 L 176.4 14.2 L 186.4 23.2 L 186.4 27.2 L 134.0 27.2 L 134.0 37.6 L 163.7777777671814 37.6 L 170.0 30.6 L 178.0 37.6 L 178.0 41.6 L 77.9 41.6 Z M 68.4 30.0 L 68.4 34.0 L 19.9 34.0 L 19.9 30.0 L 50.21818180084229 30.0 L 58.4 21.0 Z " />
</g>
</svg>
