<svg xmlns="http://www.w3.org/2000/svg" xmlns:xlink="http://www.w3.org/1999/xlink" version="1.1" baseProfile="full" viewBox="0 0 200 200" width="200" height="200">
<g fill="black">
<path d="M 167.2 163.5 L 162.8 157.8 L 158.6 151.8 L 154.7 145.5 L 151.2 138.9 L 147.9 132.0 L 145.0 124.7 L 142.6 117.2 L 141.3 111.72631578445434 L 141.3 183.0 L 129.3 189.0 L 129.3 123.93999996185303 L 127.5 127.3 L 122.5 135.4 L 117.1 143.0 L 111.1 150.1 L 104.7 156.8 L 97.8 163.1 L 90.4 168.9 L 82.5 174.1 L 74.0 178.7 L 73.0 177.2 L 80.2 171.0 L 86.9 164.8 L 93.3 158.3 L 99.1 151.7 L 104.5 144.8 L 109.5 137.6 L 114.0 130.1 L 118.0 122.3 L 121.6 114.2 L 123.15806455612183 110.0 L 82.4 110.0 L 82.4 106.0 L 129.3 106.0 L 129.3 78.0 L 92.2 78.0 L 92.2 74.0 L 129.3 74.0 L 129.3 47.02183904647827 L 127.1 47.3 L 118.0 48.1 L 108.5 48.7 L 98.6 49.0 L 88.3 48.8 L 88.2 47.1 L 98.2 45.2 L 107.9 43.4 L 117.1 41.6 L 125.9 39.8 L 129.3 39.03095235824585 L 129.3 13.0 L 141.3 15.0 L 144.3 17.0 L 141.3 18.8 L 141.3 36.12784814834595 L 142.2 35.9 L 149.7 33.7 L 156.7 31.5 L 163.3 29.1 L 168.5350736618042 27.073519897460937 L 168.5 27.0 L 168.5695393562317 27.06017827987671 L 169.5 26.7 L 170.14697513580322 28.42526693344116 L 178.9 36.0 L 179.1 39.1 L 175.12481117248535 37.37939586639404 L 173.7 37.9 L 166.8 40.0 L 159.7 41.8 L 152.1 43.5 L 144.1 44.9 L 141.3 45.33855419158935 L 141.3 74.0 L 154.4 74.0 L 164.4 64.0 L 176.4 74.0 L 176.4 78.0 L 141.3 78.0 L 141.3 106.0 L 166.2 106.0 L 176.2 96.0 L 188.2 106.0 L 188.2 110.0 L 143.13188409805298 110.0 L 146.4 115.5 L 150.4 122.2 L 154.3 128.6 L 158.4 134.6 L 162.5 140.4 L 166.8 145.7 L 171.3 150.8 L 175.9 155.5 L 180.7 159.9 L 185.6 164.0 L 187.8 165.9 L 177.0 173.9 L 172.0 168.9 Z M 72.1 117.2 L 70.4 114.8 L 68.6 112.5 L 66.5 110.2 L 64.3 108.0 L 61.8 105.7 L 59.2 103.5 L 56.8 101.5285714149475 L 56.8 183.0 L 44.8 189.0 L 44.8 107.36000003814698 L 42.0 114.4 L 38.2 122.9 L 34.0 131.0 L 29.4 138.8 L 24.4 146.2 L 19.0 153.1 L 13.1 159.5 L 11.7 158.4 L 15.9 150.9 L 19.9 143.3 L 23.6 135.6 L 27.1 127.7 L 30.4 119.5 L 33.3 111.1 L 35.9 102.4 L 38.3 93.5 L 40.3 84.3 L 41.438554191589354 78.0 L 12.4 78.0 L 12.4 74.0 L 44.8 74.0 L 44.8 40.44054050445557 L 39.9 41.5 L 32.0 43.2 L 23.6 44.6 L 14.6 45.8 L 14.1 44.1 L 22.6 40.9 L 30.6 38.0 L 38.1 35.2 L 45.0 32.6 L 51.4 30.1 L 57.2 27.6 L 62.5 25.1 L 67.2 22.8 L 71.3 20.5 L 74.01208534240723 18.717772483825684 L 74.0 18.7 L 74.01530494689942 18.715656757354736 L 74.8 18.2 L 76.61343870162963 21.373517799377442 L 82.7 27.6 L 82.8 30.9 L 79.17701578140259 29.40083408355713 L 76.4 30.6 L 71.6 32.6 L 66.3 34.4 L 60.5 36.3 L 56.8 37.340625 L 56.8 74.0 L 64.4 74.0 L 74.4 64.0 L 86.4 74.0 L 86.4 78.0 L 56.8 78.0 L 56.8 98.40810813903809 L 57.7 98.7 L 61.3 99.7 L 64.8 101.0 L 68.1 102.5 L 71.2 104.1 L 74.2 106.0 L 77.1 108.0 L 79.8 110.2 L 82.3 112.5 L 84.7 115.0 L 85.7 119.5 L 83.3 123.4 L 78.8 124.3 L 74.9 122.0 L 73.6 119.6 Z " />
</g>
</svg>
