<svg xmlns="http://www.w3.org/2000/svg" xmlns:xlink="http://www.w3.org/1999/xlink" version="1.1" baseProfile="full" viewBox="0 0 200 200" width="200" height="200">
<g fill="black">
<path d="M 164.6 142.5 L 162.7 143.8 L 160.6 145.0 L 158.5 145.9 L 156.3 146.7 L 154.0 147.3 L 151.7 147.8 L 149.4 148.0 L 147.0 148.1 L 147.0 142.1 L 138.9 140.58125 L 138.9 141.2 L 82.81333332061767 141.2 L 85.8 144.0 L 90.6 148.3 L 95.6 152.5 L 100.8 156.4 L 106.2 160.0 L 112.0 163.5 L 118.1 166.7 L 124.5 169.6 L 131.2 172.4 L 138.2 174.9 L 145.1 177.4 L 133.6 187.2 L 126.2 183.9 L 119.2 180.2 L 112.6 176.3 L 106.4 172.1 L 100.7 167.6 L 95.4 162.8 L 90.6 157.7 L 86.2 152.3 L 82.5 146.6 L 82.0 145.5833333015442 L 82.0 188.9 L 70.0 194.9 L 70.0 152.90196075439454 L 69.0 154.0 L 63.5 159.3 L 57.4 164.2 L 50.9 168.7 L 43.9 172.9 L 36.4 176.7 L 28.5 180.1 L 20.1 183.1 L 11.1 185.5 L 10.5 183.8 L 18.6 179.6 L 26.2 175.3 L 33.2 171.0 L 39.8 166.5 L 45.9 161.8 L 51.5 157.0 L 56.5 152.0 L 61.1 146.8 L 65.1 141.5 L 65.28260869979859 141.2 L 13.1 141.2 L 13.1 137.2 L 70.0 137.2 L 70.0 120.183505153656 L 62.8 121.0 L 52.7 121.8 L 42.3 122.5 L 31.6 122.9 L 20.5 123.0 L 20.4 121.2 L 31.2 119.1 L 41.7 117.2 L 51.8 115.3 L 61.7 113.4 L 71.1 111.5 L 80.3 109.6 L 89.1 107.5 L 97.6 105.5 L 105.7 103.3 L 112.51780824661255 101.35205478668213 L 112.5 101.3 L 112.55072956085205 101.34264869689942 L 113.4 101.1 L 113.71614351272584 102.32242155075073 L 123.8 110.8 L 124.1 113.8 L 119.83550510406494 111.817910861969 L 116.4 112.7 L 108.3 114.4 L 99.8 115.9 L 91.0 117.4 L 82.0 118.68571424484253 L 82.0 137.2 L 116.9 137.2 L 126.9 127.2 L 137.58000001907348 136.1 L 148.5 136.1 L 150.0 135.9 L 151.4 135.6 L 152.7 135.3 L 154.0 134.8 L 156.4 133.6 L 157.6 132.8 L 158.8 131.9 L 160.4 130.3 L 161.0 129.1 L 161.7 127.2 L 162.3 124.6 L 162.8 121.3 L 163.2 117.5 L 163.4 113.1 L 163.4 108.1 L 163.36159524917602 105.94933528900147 L 163.0 106.1 L 163.0 98.1 L 62.0 98.1 L 62.0 101.1 L 50.0 107.1 L 50.0 24.6 L 62.0 30.6 L 86.5 30.6 L 87.1 29.9 L 88.5 27.6 L 90.0 25.3 L 91.5 23.1 L 92.9 20.9 L 94.4 18.8 L 97.2 14.6 L 98.5 12.5 L 99.30969972610474 11.28545036315918 L 99.2 11.2 L 99.825 10.5125 L 99.9 10.4 L 99.9147650718689 10.413758373260498 L 100.2 10.1 L 108.7 18.6 L 109.6 22.1 L 105.25491523742676 21.201016902923584 L 104.6 21.7 L 102.5 23.2 L 95.9 27.7 L 93.6 29.1 L 90.8307692527771 30.6 L 139.0 30.6 L 145.0 25.6 L 156.0 34.6 L 151.0 38.6 L 151.0 67.9 L 139.0 73.9 L 139.0 67.9 L 62.0 67.9 L 62.0 79.0 L 166.8181818008423 79.0 L 175.0 70.0 L 185.0 79.0 L 185.0 83.0 L 62.0 83.0 L 62.0 94.1 L 163.0 94.1 L 169.0 89.1 L 180.0 98.1 L 175.22891569137573 100.96265058517456 L 175.3 102.1 L 175.4 108.0 L 175.4 113.4 L 175.1 118.3 L 174.7 122.8 L 174.1 126.9 L 173.2 130.5 L 172.0 133.8 L 170.4 136.8 L 168.3 139.5 L 166.5 141.1 Z M 62.0 51.3 L 62.0 63.9 L 139.0 63.9 L 139.0 51.3 Z M 62.0 34.6 L 62.0 47.3 L 139.0 47.3 L 139.0 34.6 Z " />
</g>
</svg>
