<svg xmlns="http://www.w3.org/2000/svg" xmlns:xlink="http://www.w3.org/1999/xlink" version="1.1" baseProfile="full" viewBox="0 0 200 200" width="200" height="200">
<g fill="black">
<path d="M 156.7 179.7 L 148.3 177.1 L 140.4 174.3 L 133.0 171.3 L 126.1 168.0 L 119.7 164.5 L 113.9 160.7 L 108.7 156.6 L 106.0 153.83999996185304 L 106.0 182.1 L 94.0 188.1 L 94.0 159.6375 L 88.4 162.7 L 81.4 166.0 L 74.0 168.9 L 65.9 171.7 L 57.3 174.2 L 48.2 176.5 L 38.4 178.5 L 28.1 180.1 L 17.1 181.3 L 16.8 179.5 L 27.2 176.4 L 37.1 173.3 L 46.3 170.2 L 55.0 167.0 L 63.0 163.7 L 70.3 160.4 L 77.1 156.9 L 83.1 153.4 L 84.08518514633178 152.7 L 20.0 152.7 L 20.0 148.7 L 94.0 148.7 L 94.0 139.63252029418945 L 82.5 140.1 L 69.8 140.5 L 56.6 140.7 L 43.0 140.7 L 29.0 140.4 L 28.9 138.6 L 42.8 136.9 L 56.3 135.4 L 69.4 134.0 L 82.0 132.6 L 94.1 131.2 L 105.8 129.8 L 117.1 128.3 L 127.9 126.9 L 138.3 125.4 L 147.2126220703125 123.95957622528076 L 147.2 123.9 L 147.26192893981934 123.9516074180603 L 148.2 123.8 L 148.33145542144774 124.84287948608399 L 152.0 127.9 L 152.0 123.0 L 48.0 123.0 L 36.0 129.0 L 36.0 73.4 L 48.0 79.4 L 152.0 79.4 L 158.0 74.4 L 169.0 83.4 L 164.0 87.4 L 164.0 123.0 L 152.825 128.5875 L 159.8 134.4 L 160.2 137.3 L 155.6941129684448 134.92848052978516 L 149.7 135.7 L 139.6 136.7 L 129.1 137.5 L 118.1 138.3 L 106.6 139.0 L 106.0 139.030508518219 L 106.0 148.7 L 157.0 148.7 L 167.0 138.7 L 179.0 148.7 L 179.0 152.7 L 110.0039999961853 152.7 L 110.9 153.1 L 116.8 155.5 L 122.9 158.0 L 129.4 160.3 L 136.3 162.5 L 143.6 164.6 L 151.3 166.5 L 159.5 168.3 L 168.1 169.9 L 177.1 171.3 L 186.6 173.0 L 174.8 184.3 L 165.5 182.1 Z M 48.0 83.4 L 48.0 119.0 L 152.0 119.0 L 152.0 83.4 Z M 82.0 91.3 L 118.0 91.3 L 124.0 86.3 L 135.0 95.3 L 130.0 99.3 L 130.0 109.2 L 118.0 115.2 L 118.0 109.2 L 82.0 109.2 L 70.0 115.2 L 70.0 85.3 Z M 82.0 95.3 L 82.0 105.2 L 118.0 105.2 L 118.0 95.3 Z M 41.4 43.9 L 78.8 43.9 L 84.8 38.9 L 95.8 47.9 L 90.8 51.9 L 90.8 67.8 L 78.8 73.8 L 78.8 67.8 L 41.4 67.8 L 29.4 73.8 L 29.4 37.9 Z M 121.2 43.9 L 158.6 43.9 L 164.6 38.9 L 175.6 47.9 L 170.6 51.9 L 170.6 67.8 L 158.6 73.8 L 158.6 67.8 L 121.2 67.8 L 109.2 73.8 L 109.2 37.9 Z M 121.2 47.9 L 121.2 63.8 L 158.6 63.8 L 158.6 47.9 Z M 41.4 47.9 L 41.4 63.8 L 78.8 63.8 L 78.8 47.9 Z M 15.0 29.6 L 94.0 29.6 L 94.0 11.8 L 106.0 13.8 L 109.0 15.8 L 106.0 17.6 L 106.0 29.6 L 170.7777777671814 29.6 L 177.0 22.6 L 185.0 29.6 L 185.0 33.6 L 15.0 33.6 Z " />
</g>
</svg>
