<svg xmlns="http://www.w3.org/2000/svg" xmlns:xlink="http://www.w3.org/1999/xlink" version="1.1" baseProfile="full" viewBox="0 0 200 200" width="200" height="200">
<g fill="black">
<path d="M 159.3 176.8 L 151.6 170.2 L 144.8 162.9 L 144.0895788192749 161.93671703338623 L 140.0 166.8 L 131.6 174.5 L 122.4 181.0 L 112.3 186.1 L 101.4 189.9 L 100.7 188.2 L 110.5 182.7 L 119.4 176.5 L 127.3 169.6 L 134.3 161.8 L 139.04995985031127 155.1033353805542 L 138.9 154.9 L 133.9 146.2 L 129.8 136.8 L 126.7 126.9 L 124.6 116.3 L 124.14788179397583 110.67363958358764 L 121.0 114.7 L 116.3 119.8 L 111.2 124.5 L 109.9 123.4 L 113.3 117.5 L 116.6 111.6 L 119.7 105.7 L 122.6 99.7 L 125.3 93.5 L 127.7 87.1 L 129.9 80.6 L 131.9 73.9 L 133.6 67.0 L 135.1 59.9 L 135.12113819122314 59.90487804412842 L 135.5 58.2 L 146.8 62.6 L 149.3 65.3 L 145.64834575653077 66.47374601364136 L 144.6 70.0 L 142.1 77.2 L 139.4 84.1 L 136.3 90.8 L 134.28125 94.6 L 164.5 94.6 L 174.5 84.6 L 186.5 94.6 L 186.5 98.6 L 170.2718309402466 98.6 L 167.8 111.6 L 164.1 124.8 L 159.5 136.9 L 153.9 148.0 L 150.25770359039308 153.60353288650512 L 152.4 156.0 L 159.0 161.9 L 166.1 167.2 L 174.0 171.7 L 182.6 175.6 L 188.6 178.3 L 177.2 187.7 L 167.8 182.6 Z M 72.6 175.3 L 88.6 175.3 L 89.8 175.2 L 90.7 175.0 L 91.3 174.8 L 91.7 174.7 L 91.8 174.5 L 92.0 174.3 L 92.2 174.0 L 92.4 173.4 L 92.5 172.5 L 92.6 171.3 L 92.6 77.5 L 29.3 77.5 L 29.3 182.9 L 17.3 188.9 L 17.3 67.5 L 29.3 73.5 L 55.0 73.5 L 55.0 37.0 L 12.0 37.0 L 12.0 33.0 L 55.0 33.0 L 55.0 12.6 L 67.0 14.6 L 70.0 16.6 L 67.0 18.4 L 67.0 33.0 L 89.4 33.0 L 99.4 23.0 L 111.4 33.0 L 111.4 37.0 L 67.0 37.0 L 67.0 73.5 L 92.6 73.5 L 98.6 68.5 L 109.6 77.5 L 104.6 81.5 L 104.6 171.3 L 104.4 173.8 L 104.0 176.3 L 103.2 178.7 L 102.0 181.0 L 100.3 183.0 L 98.3 184.6 L 96.0 185.9 L 93.6 186.7 L 91.1 187.1 L 88.6 187.3 L 88.6 181.3 L 72.6 178.3 Z M 76.9 142.3 L 75.8 140.9 L 74.6 139.5 L 73.2 138.1 L 71.6 136.6 L 69.8 135.2 L 67.9 133.6 L 67.2 133.1 L 67.2 177.0 L 55.2 183.0 L 55.2 140.3 L 52.1 145.2 L 48.7 149.8 L 45.1 154.1 L 41.1 158.2 L 36.8 161.9 L 32.2 165.2 L 30.9 163.9 L 34.0 159.3 L 37.0 154.8 L 39.8 150.2 L 42.4 145.6 L 44.7 140.9 L 46.9 136.1 L 48.8 131.2 L 50.5 126.2 L 51.9 121.0 L 52.31351346969605 119.3 L 31.6 119.3 L 31.6 115.3 L 55.2 115.3 L 55.2 98.74912281036377 L 52.7 99.1 L 46.7 99.7 L 40.2 100.2 L 33.2 100.5 L 32.9 98.7 L 39.4 96.5 L 45.6 94.5 L 51.3 92.7 L 56.7 90.9 L 61.6 89.3 L 66.0 87.7 L 70.1 86.2 L 73.6 84.7 L 76.7 83.3 L 78.44878845214843 82.39322080612183 L 78.4 82.3 L 78.48361043930053 82.37516498565674 L 79.4 81.9 L 80.2579550743103 83.97028284072876 L 88.3 91.2 L 88.5 94.3 L 84.71201906204223 92.70194549560547 L 84.0 93.0 L 80.7 94.0 L 77.0 94.9 L 72.9 95.8 L 68.5 96.7 L 67.2 96.91224489212036 L 67.2 115.3 L 70.41818180084229 115.3 L 78.6 106.3 L 88.6 115.3 L 88.6 119.3 L 67.2 119.3 L 67.2 129.975 L 69.3 130.2 L 71.9 130.6 L 74.3 131.1 L 76.7 131.7 L 79.0 132.5 L 81.2 133.3 L 83.2 134.3 L 85.2 135.4 L 87.1 136.6 L 88.7 140.9 L 86.9 145.1 L 82.6 146.7 L 78.4 144.9 L 77.8 143.6 Z M 132.0737705230713 98.6 L 129.3 103.3 L 126.36307487487792 107.63196449279785 L 128.7 115.3 L 132.3 125.0 L 136.5 133.9 L 141.2 142.0 L 144.23999996185302 146.24452829360962 L 145.7 143.6 L 150.2 133.2 L 153.8 121.7 L 156.6 109.3 L 158.11653547286988 98.6 Z M 145.6 17.2 L 148.1 19.8 L 144.4542260169983 21.059449195861816 L 143.7 23.6 L 141.5 29.9 L 139.0 36.1 L 138.5721311569214 37.0 L 170.0 37.0 L 170.45859870910644 36.617834377288816 L 170.5 36.5 L 170.5649582862854 36.529201412200926 L 176.0 32.0 L 187.0 41.0 L 182.0 44.0 L 179.3357798576355 45.11009178161621 L 177.3 48.6 L 175.0 52.3 L 172.6 56.0 L 170.0 59.7 L 167.3 63.5 L 164.5 67.2 L 161.4 71.0 L 158.1 74.7 L 154.7 78.4 L 153.2 77.5 L 155.2 72.8 L 157.2 68.3 L 159.1 64.0 L 161.0 59.8 L 162.9 55.7 L 164.6 51.7 L 166.2 47.7 L 167.7 43.9 L 168.87567567825317 41.0 L 136.67049179077148 41.0 L 136.1 42.2 L 133.0 48.3 L 129.5 54.2 L 125.6 60.0 L 121.4 65.7 L 116.8 71.2 L 111.7 76.5 L 110.2 75.4 L 113.6 69.0 L 116.9 62.8 L 119.9 56.7 L 122.8 50.6 L 125.3 44.6 L 127.6 38.6 L 129.6 32.6 L 131.3 26.6 L 132.7 20.6 L 133.9 14.6 L 133.91363639831542 14.60303030014038 L 134.3 12.8 Z M 104.1 48.2 L 105.2 51.7 L 101.03671236038208 51.12575340270996 L 99.6 52.5 L 97.1 54.7 L 94.6 57.0 L 91.9 59.3 L 89.1 61.6 L 86.2 64.0 L 83.1 66.4 L 79.9 68.7 L 76.6 71.3 L 75.4 70.0 L 77.8 66.7 L 79.9 63.3 L 82.0 60.1 L 84.1 57.1 L 86.1 54.1 L 88.0 51.2 L 89.9 48.5 L 91.6 45.8 L 93.2 43.2 L 94.26140403747559 41.54155626296997 L 94.2 41.5 L 94.72380952835083 40.81904764175415 L 94.8 40.7 L 94.80949468612671 40.707656955718996 L 95.2 40.2 Z M 30.5 61.4 L 29.7 59.3 L 28.7 57.1 L 27.6 54.9 L 26.3 52.7 L 24.8 50.5 L 23.2 48.3 L 21.4 46.0 L 19.2 44.1 L 20.1 42.6 L 22.8 44.0 L 25.7 45.2 L 28.3 46.6 L 30.8 48.2 L 33.2 50.0 L 35.4 52.0 L 37.5 54.0 L 39.4 56.3 L 41.2 58.7 L 42.8 61.2 L 42.7 65.8 L 39.5 69.1 L 34.9 69.0 L 31.7 65.8 L 31.2 63.6 Z " />
</g>
</svg>
