<svg xmlns="http://www.w3.org/2000/svg" xmlns:xlink="http://www.w3.org/1999/xlink" version="1.1" baseProfile="full" viewBox="0 0 200 200" width="200" height="200">
<g fill="black">
<path d="M 150.8 177.9 L 168.0 177.9 L 168.9 177.7 L 169.5 177.5 L 169.8 177.3 L 170.0 177.2 L 170.2 177.0 L 170.5 176.1 L 170.7 175.2 L 170.8 173.9 L 170.8 144.2 L 142.0 144.2 L 142.0 160.4115385055542 L 147.5 160.2 L 152.7 160.2 L 153.17819547653198 160.21804513931275 L 152.5 158.8 L 151.1 156.5 L 149.6 154.0 L 147.9 151.5 L 145.8 149.3 L 146.9 147.9 L 149.5 149.6 L 152.3 151.1 L 154.9 152.8 L 157.3 154.7 L 159.6 156.6 L 161.7 158.7 L 163.6 160.9 L 165.3 163.2 L 166.9 165.6 L 168.3 168.2 L 167.9 172.7 L 164.5 175.8 L 159.9 175.4 L 156.9 171.9 L 156.6 169.9 L 156.1 167.8 L 155.5 165.6 L 154.64706811904907 163.51505546569825 L 153.3 164.0 L 148.3 165.5 L 143.2 166.9 L 133.2 169.3 L 128.2 170.3 L 123.1 171.4 L 118.2 172.3 L 112.32676544189454 173.35718221664428 L 110.5 176.9 L 108.2 174.1 L 104.9 162.4 L 106.9 162.2 L 111.9 161.9 L 116.9 161.7 L 126.9 161.1 L 130.0 160.91764707565306 L 130.0 144.2 L 101.2 144.2 L 101.2 183.3 L 89.2 189.3 L 89.2 134.2 L 101.2 140.2 L 130.0 140.2 L 130.0 129.1 L 109.6 129.1 L 97.6 135.1 L 97.6 86.6 L 109.6 92.6 L 127.0 92.6 L 127.0 66.0 L 139.0 68.0 L 142.0 70.0 L 139.0 71.8 L 139.0 79.0 L 164.8181818008423 79.0 L 173.0 70.0 L 183.0 79.0 L 183.0 83.0 L 139.0 83.0 L 139.0 92.6 L 162.4 92.6 L 168.4 87.6 L 179.4 96.6 L 174.4 100.6 L 174.4 129.1 L 162.4 135.1 L 162.4 129.1 L 142.0 129.1 L 142.0 140.2 L 170.8 140.2 L 176.8 135.2 L 187.8 144.2 L 182.8 148.2 L 182.8 173.9 L 182.6 176.5 L 182.2 179.0 L 181.4 181.4 L 180.1 183.7 L 178.5 185.7 L 176.5 187.3 L 174.2 188.5 L 171.8 189.4 L 169.3 189.8 L 166.8 189.9 L 166.8 183.9 L 150.8 180.9 Z M 69.8 146.7 L 68.1 144.5 L 66.2 142.3 L 64.1 140.0 L 61.8 137.6 L 59.4 135.2 L 56.7 132.7 L 56.4 132.4214285850525 L 56.4 181.8 L 44.4 187.8 L 44.4 139.28064517974855 L 41.6 144.7 L 38.0 150.5 L 34.2 155.9 L 29.9 160.9 L 25.3 165.7 L 20.3 169.9 L 15.0 173.7 L 13.7 172.3 L 17.6 167.3 L 21.3 162.1 L 24.7 157.0 L 27.8 151.7 L 30.7 146.2 L 33.2 140.6 L 35.5 134.8 L 37.5 128.7 L 39.1 122.5 L 39.707843112945554 119.4 L 15.2 119.4 L 15.2 115.4 L 44.4 115.4 L 44.4 66.4 L 56.4 68.4 L 59.4 70.4 L 56.4 72.2 L 56.4 115.4 L 62.8 115.4 L 72.8 105.4 L 84.8 115.4 L 84.8 119.4 L 56.4 119.4 L 56.4 128.11621618270874 L 59.0 129.1 L 62.5 130.6 L 65.8 132.2 L 68.9 133.9 L 71.8 135.6 L 74.5 137.4 L 77.1 139.3 L 79.6 141.2 L 81.8 143.2 L 83.1 147.6 L 81.1 151.7 L 76.7 153.0 L 72.6 150.9 L 71.3 148.8 Z M 109.6 112.9 L 109.6 125.1 L 130.0 125.1 L 130.0 112.9 Z M 142.0 112.9 L 142.0 125.1 L 162.4 125.1 L 162.4 112.9 Z M 28.3 100.8 L 27.9 98.6 L 27.3 96.2 L 26.6 93.6 L 25.7 90.9 L 24.7 88.0 L 23.5 84.9 L 22.3 81.6 L 20.6 78.4 L 22.1 77.4 L 24.4 80.2 L 27.0 82.7 L 29.3 85.2 L 31.4 87.7 L 33.3 90.1 L 35.0 92.6 L 36.6 94.9 L 38.0 97.3 L 39.2 99.6 L 40.3 102.0 L 39.5 106.5 L 35.9 109.2 L 31.4 108.5 L 28.6 104.8 L 28.5 102.9 Z M 109.6 96.6 L 109.6 108.9 L 130.0 108.9 L 130.0 97.0 L 127.0 97.0 L 127.0 96.6 Z M 142.0 96.6 L 142.0 108.9 L 162.4 108.9 L 162.4 96.6 Z M 82.5 81.3 L 84.3 84.4 L 80.21441173553467 84.75220584869385 L 79.1 86.3 L 77.2 88.9 L 73.0 94.3 L 70.7 97.1 L 68.2 99.9 L 65.5 102.8 L 62.7 105.8 L 59.9 108.9 L 58.4 107.9 L 60.3 104.2 L 61.9 100.4 L 63.4 96.9 L 64.9 93.5 L 66.3 90.3 L 67.6 87.2 L 68.8 84.2 L 69.9 81.3 L 70.9 78.6 L 71.39974555969238 77.03829517364503 L 71.3 77.0 L 71.61111106872559 76.3777777671814 L 71.7 76.1 L 71.74029846191407 76.11940298080444 L 72.3 75.0 Z M 178.0 40.1 L 180.0 40.1 L 178.0 53.1 L 180.7 54.9 L 182.5 57.6 L 180.7 60.3 L 178.0 62.1 L 127.5 62.1 L 125.2 61.8 L 122.9 61.2 L 120.7 60.2 L 118.7 58.8 L 117.1 57.0 L 115.7 54.8 L 114.8 52.5 L 114.2 50.1 L 114.0 47.6 L 114.0 31.6 L 90.71481485366822 31.6 L 90.3 32.3 L 86.4 38.4 L 81.6 43.9 L 76.0 48.8 L 69.6 53.1 L 62.4 56.9 L 54.5 60.1 L 45.8 62.8 L 36.3 64.9 L 26.1 66.5 L 15.1 67.3 L 14.8 65.6 L 25.4 62.7 L 35.0 59.7 L 43.7 56.5 L 51.6 53.1 L 58.5 49.4 L 64.5 45.4 L 69.5 41.1 L 73.7 36.6 L 77.0 31.9 L 77.14347829818726 31.6 L 32.85142860412598 31.6 L 32.9 33.3 L 32.5 36.6 L 31.8 39.8 L 30.5 42.9 L 28.8 45.8 L 26.6 48.3 L 24.0 50.6 L 21.0 52.5 L 16.4 52.4 L 13.2 49.1 L 13.3 44.6 L 16.5 41.4 L 18.5 40.9 L 20.3 40.2 L 22.0 39.3 L 23.6 38.1 L 25.1 36.5 L 26.5 34.5 L 27.7 32.1 L 28.8 29.3 L 29.8 26.1 L 30.1 22.4 L 31.9 22.3 L 32.3 26.1 L 32.502702713012695 27.6 L 94.0 27.6 L 94.0 11.5 L 106.0 13.5 L 109.0 15.5 L 106.0 17.3 L 106.0 27.6 L 170.0 27.6 L 170.67826089859008 27.03478260040283 L 170.7 27.0 L 171.6 25.5 L 172.03171520233155 25.906904029846192 L 176.0 22.6 L 187.0 31.6 L 182.0 34.6 L 173.31764707565307 38.217647075653076 L 172.7 38.6 L 170.4 39.9 L 167.9 41.3 L 165.3 42.7 L 162.5 44.2 L 159.4 45.6 L 156.5 47.5 L 155.4 46.1 L 157.9 43.7 L 160.0 41.1 L 162.0 38.7 L 163.8 36.4 L 165.5 34.3 L 167.1 32.2 L 167.5666666984558 31.6 L 126.0 31.6 L 126.0 47.6 L 125.9 48.8 L 125.9 49.8 L 126.0 50.5 L 126.0 51.0 L 126.2 51.3 L 126.4 51.7 L 126.8 52.1 L 127.5 52.5 L 128.6 52.8 L 130.0 53.1 L 173.5 53.1 Z " />
</g>
</svg>
