<svg xmlns="http://www.w3.org/2000/svg" xmlns:xlink="http://www.w3.org/1999/xlink" version="1.1" baseProfile="full" viewBox="0 0 200 200" width="200" height="200">
<g fill="black">
<path d="M 140.0 165.0 L 155.2 165.0 L 156.1 164.8 L 156.7 164.6 L 157.0 164.4 L 157.2 164.3 L 157.4 164.1 L 157.7 163.2 L 157.9 162.3 L 158.0 161.0 L 158.0 129.8 L 106.0 129.8 L 106.0 183.2 L 94.0 189.2 L 94.0 129.8 L 42.0 129.8 L 42.0 170.9 L 30.0 176.9 L 30.0 119.8 L 42.0 125.8 L 94.0 125.8 L 94.0 109.0 L 56.0 109.0 L 56.0 112.0 L 44.0 118.0 L 44.0 66.6 L 56.0 72.6 L 144.0 72.6 L 150.0 67.6 L 161.0 76.6 L 156.0 80.6 L 156.0 111.0 L 144.0 117.0 L 144.0 109.0 L 106.0 109.0 L 106.0 125.8 L 158.0 125.8 L 164.0 120.8 L 175.0 129.8 L 170.0 133.8 L 170.0 161.0 L 169.8 163.6 L 169.4 166.1 L 168.6 168.5 L 167.3 170.8 L 165.7 172.8 L 163.7 174.4 L 161.4 175.6 L 159.0 176.5 L 156.5 176.9 L 154.0 177.0 L 154.0 171.0 L 140.0 168.0 Z M 56.0 76.6 L 56.0 105.0 L 144.0 105.0 L 144.0 76.6 Z M 66.6 58.2 L 65.3 55.8 L 63.8 53.3 L 62.0 50.8 L 59.8 48.3 L 57.4 45.7 L 54.8 43.1 L 51.8 40.3 L 49.39166669845581 38.6 L 44.975 38.6 L 42.7 42.5 L 38.7 48.3 L 34.3 53.8 L 29.5 59.0 L 24.3 64.0 L 18.7 68.7 L 12.5 72.9 L 11.4 71.6 L 16.0 65.9 L 20.4 60.4 L 24.5 54.8 L 28.2 49.3 L 31.6 43.6 L 34.6 37.9 L 37.2 32.1 L 39.5 26.2 L 41.4 20.2 L 42.65174598693848 15.109566497802735 L 42.6 15.1 L 43.3 12.4 L 54.5 17.3 L 56.9 20.0 L 53.1337477684021 21.057193565368653 L 52.1 23.9 L 49.4 30.3 L 47.18064517974854 34.6 L 84.0 34.6 L 94.0 24.6 L 106.0 34.6 L 106.0 38.6 L 55.019999980926514 38.6 L 57.1 39.4 L 60.8 41.1 L 64.2 43.0 L 67.3 45.1 L 70.2 47.4 L 72.8 49.8 L 75.3 52.4 L 77.4 55.2 L 79.3 58.2 L 79.3 62.8 L 76.1 66.1 L 71.6 66.1 L 68.3 62.9 L 67.5 60.6 Z M 145.6 58.2 L 144.3 55.8 L 142.8 53.3 L 141.0 50.8 L 138.8 48.3 L 136.4 45.7 L 133.8 43.1 L 130.8 40.3 L 128.39166669845582 38.6 L 123.49473686218262 38.6 L 121.6 41.6 L 117.6 47.0 L 113.2 52.1 L 108.4 56.8 L 103.2 61.3 L 97.6 65.3 L 91.5 68.9 L 90.4 67.5 L 95.1 62.4 L 99.5 57.4 L 103.6 52.4 L 107.3 47.3 L 110.7 42.1 L 113.6 36.8 L 116.2 31.3 L 118.5 25.7 L 120.4 20.0 L 121.66785230636597 15.013114261627198 L 121.6 15.0 L 122.4 12.4 L 133.5 17.3 L 135.8 20.0 L 132.11425065994263 21.053071212768554 L 131.1 23.8 L 128.4 30.0 L 125.90508470535278 34.6 L 164.0 34.6 L 174.0 24.6 L 186.0 34.6 L 186.0 38.6 L 134.0199999809265 38.6 L 136.1 39.4 L 139.8 41.1 L 143.2 43.0 L 146.3 45.1 L 149.2 47.4 L 151.8 49.8 L 154.3 52.4 L 156.4 55.2 L 158.3 58.2 L 158.3 62.8 L 155.1 66.1 L 150.6 66.1 L 147.3 62.9 L 146.5 60.6 Z " />
</g>
</svg>
