<svg xmlns="http://www.w3.org/2000/svg" xmlns:xlink="http://www.w3.org/1999/xlink" version="1.1" baseProfile="full" viewBox="0 0 200 200" width="200" height="200">
<g fill="black">
<path d="M 162.8 168.8 L 158.2 164.3 L 154.1 159.5 L 150.3 154.5 L 147.0 149.2 L 144.2 143.7 L 142.9 140.5583333015442 L 142.9 184.1 L 130.9 190.1 L 130.9 143.0731707572937 L 129.0 145.9 L 124.3 151.6 L 119.1 156.9 L 113.4 161.8 L 107.2 166.3 L 100.5 170.4 L 93.3 173.9 L 85.6 176.8 L 84.8 175.2 L 91.4 170.6 L 97.5 165.9 L 103.1 161.1 L 108.3 156.2 L 112.9 151.1 L 117.0 145.8 L 120.7 140.3 L 123.8 134.5 L 126.5 128.6 L 127.23333330154419 126.4 L 95.5 126.4 L 95.5 122.4 L 130.9 122.4 L 130.9 99.6 L 142.9 101.6 L 145.9 103.6 L 142.9 105.4 L 142.9 122.4 L 158.8 122.4 L 168.8 112.4 L 180.8 122.4 L 180.8 126.4 L 142.9 126.4 L 142.9 128.72424240112304 L 143.9 130.3 L 147.1 135.3 L 150.4 140.0 L 153.9 144.5 L 157.6 148.7 L 161.6 152.6 L 165.8 156.3 L 170.3 159.7 L 175.0 162.9 L 180.0 165.9 L 184.1 168.4 L 173.0 177.1 L 167.7 173.1 Z M 66.5 58.2 L 65.3 55.7 L 63.7 53.2 L 61.9 50.7 L 59.8 48.1 L 57.4 45.5 L 54.7 42.8 L 51.8 40.0 L 49.48800001144409 38.3 L 44.937704944610594 38.3 L 42.7 42.2 L 38.7 48.1 L 34.3 53.7 L 29.6 59.1 L 24.4 64.1 L 18.7 68.9 L 12.5 73.2 L 11.4 71.9 L 16.0 66.2 L 20.4 60.5 L 24.5 54.9 L 28.2 49.2 L 31.6 43.5 L 34.6 37.7 L 37.2 31.8 L 39.4 25.8 L 41.4 19.6 L 42.655686950683595 14.409827136993409 L 42.6 14.4 L 43.3 11.7 L 54.5 16.5 L 56.9 19.2 L 53.21134748458862 20.253900718688964 L 52.2 23.2 L 49.4 29.8 L 47.11428575515747 34.3 L 83.98347110748291 34.3 L 94.0 24.2 L 106.0 34.3 L 106.0 38.3 L 55.119999980926515 38.3 L 57.2 39.1 L 60.8 40.9 L 64.2 42.9 L 67.3 45.0 L 70.2 47.4 L 72.9 49.8 L 75.3 52.5 L 77.4 55.4 L 79.3 58.4 L 79.3 62.9 L 76.1 66.2 L 74.66000003814698 66.2 L 86.3 75.9 L 86.3 79.9 L 56.7 79.9 L 56.7 95.7 L 68.7 95.7 L 74.7 90.7 L 85.7 99.7 L 80.7 103.7 L 80.7 140.5 L 68.7 146.5 L 68.7 136.5 L 56.7 136.5 L 56.7 156.7 L 67.0 156.7 L 77.0 146.7 L 89.0 156.7 L 89.0 160.7 L 56.7 160.7 L 56.7 183.7 L 44.7 189.7 L 44.7 160.7 L 13.3 160.7 L 13.3 156.7 L 44.7 156.7 L 44.7 136.5 L 33.5 136.5 L 33.5 143.5 L 21.5 149.5 L 21.5 89.7 L 33.5 95.7 L 44.7 95.7 L 44.7 79.9 L 16.0 79.9 L 16.0 75.9 L 44.7 75.9 L 44.7 59.2 L 56.7 61.2 L 59.7 63.2 L 56.7 65.0 L 56.7 75.9 L 64.3 75.9 L 74.0 66.2 L 71.6 66.2 L 68.3 63.1 L 67.5 60.6 Z M 33.5 118.1 L 33.5 132.5 L 68.7 132.5 L 68.7 118.1 Z M 165.6 105.6 L 160.9 101.6 L 156.4 97.3 L 152.1 92.7 L 148.0 87.7 L 144.2 82.4 L 140.6 76.6 L 137.73280868530273 71.30004034042358 L 133.3 77.9 L 128.7 84.2 L 123.7 90.0 L 118.4 95.4 L 112.9 100.4 L 107.2 104.9 L 101.1 108.9 L 94.8 112.4 L 88.1 115.2 L 87.2 113.7 L 92.7 109.2 L 97.9 104.6 L 102.9 99.9 L 107.7 94.9 L 112.2 89.7 L 116.5 84.1 L 120.5 78.3 L 124.3 72.1 L 127.9 65.6 L 130.7529172897339 59.72126140594482 L 130.7 59.7 L 131.7 57.7 L 141.9 64.2 L 143.7 67.3 L 140.2044319152832 67.54107370376587 L 140.8 68.2 L 145.3 73.1 L 149.8 77.8 L 154.2 82.1 L 158.7 86.1 L 163.2 89.7 L 167.7 92.9 L 172.3 95.8 L 177.0 98.4 L 181.7 100.6 L 187.0 103.3 L 175.7 112.3 L 170.6 109.1 Z M 33.5 114.1 L 68.7 114.1 L 68.7 99.7 L 33.5 99.7 Z M 145.5 58.2 L 144.3 55.7 L 142.7 53.2 L 140.9 50.7 L 138.8 48.1 L 136.4 45.5 L 133.7 42.8 L 130.8 40.0 L 128.4880000114441 38.3 L 123.43157892227173 38.3 L 121.6 41.2 L 117.6 46.7 L 113.2 51.9 L 108.5 56.8 L 103.3 61.3 L 97.6 65.5 L 91.5 69.1 L 90.4 67.7 L 95.1 62.6 L 99.5 57.5 L 103.6 52.4 L 107.3 47.2 L 110.6 41.9 L 113.6 36.5 L 116.2 31.0 L 118.5 25.2 L 120.4 19.4 L 121.67168674468994 14.313253021240234 L 121.6 14.3 L 122.4 11.7 L 133.5 16.5 L 135.8 19.2 L 132.1376811981201 20.24637680053711 L 131.1 23.1 L 128.4 29.4 L 125.82950820922852 34.3 L 163.9834711074829 34.3 L 174.0 24.2 L 186.0 34.3 L 186.0 38.3 L 134.1199999809265 38.3 L 136.2 39.1 L 139.8 40.9 L 143.2 42.9 L 146.3 45.0 L 149.2 47.4 L 151.9 49.8 L 154.3 52.5 L 156.4 55.4 L 158.3 58.4 L 158.3 62.9 L 155.1 66.2 L 150.6 66.2 L 147.3 63.1 L 146.5 60.6 Z " />
</g>
</svg>
