<svg xmlns="http://www.w3.org/2000/svg" xmlns:xlink="http://www.w3.org/1999/xlink" version="1.1" baseProfile="full" viewBox="0 0 200 200" width="200" height="200">
<g fill="black">
<path d="M 63.4 158.2 L 60.3 155.1 L 56.9 152.0 L 55.399591064453126 150.85495109558104 L 54.4 152.6 L 47.6 161.9 L 40.1 170.2 L 31.8 177.5 L 22.7 183.6 L 12.8 188.6 L 11.9 187.0 L 20.5 180.5 L 28.2 173.4 L 35.3 165.7 L 41.5 157.4 L 47.1 148.2 L 48.20030765533447 145.93061542510986 L 44.4 143.7 L 39.6 141.0 L 34.67696285247803 138.538481426239 L 32.9 146.0 L 19.9 149.1 L 33.09554615020752 93.3 L 17.3 93.3 L 17.3 89.3 L 34.04146337509155 89.3 L 42.2 54.8 L 53.5 59.5 L 55.9 62.1 L 52.66260557174682 63.01624374389648 L 46.403121376037596 89.3 L 64.1 89.3 L 70.1 84.3 L 81.1 93.3 L 76.1 96.3 L 75.19129285812377 96.67862796783447 L 73.3 106.0 L 69.8 119.0 L 65.5 131.1 L 60.3 142.3 L 59.831861686706546 143.11725845336915 L 62.2 144.4 L 66.6 147.2 L 70.7 150.4 L 74.5 153.8 L 78.0 157.5 L 79.1 161.9 L 76.9 165.9 L 72.5 167.0 L 68.5 164.8 L 66.1 161.4 Z M 176.2 128.8 L 171.2 132.8 L 171.2 180.7 L 159.2 186.7 L 159.2 178.7 L 104.7 178.7 L 104.7 181.7 L 92.7 187.7 L 92.7 120.84869565963746 L 89.5 121.6 L 77.1 123.6 L 76.7 121.9 L 88.5 118.0 L 99.2 113.8 L 109.1 109.4 L 118.0 104.7 L 125.3747685432434 99.99858503341675 L 124.7 99.4 L 119.7 93.4 L 115.9 87.0 L 113.6 80.2 L 113.38848485946656 78.3228030204773 L 112.5 79.6 L 108.8 83.8 L 104.8 87.6 L 100.5 91.1 L 95.9 94.0 L 90.9 96.5 L 85.5 98.4 L 84.7 96.8 L 88.9 93.3 L 92.7 89.7 L 96.2 86.1 L 99.4 82.4 L 102.2 78.5 L 104.8 74.4 L 107.0 70.1 L 108.9 65.6 L 110.5 60.8 L 111.8 55.8 L 111.8481635093689 55.813701725006105 L 112.3 54.2 L 123.4 59.1 L 125.7 61.9 L 121.90014257431031 62.91781892776489 L 121.2 64.7 L 118.79622640609742 69.6 L 151.6 69.6 L 152.10987129211426 69.17510728836059 L 152.2 69.0 L 152.27605638504028 69.03661975860595 L 157.6 64.6 L 168.6 73.6 L 163.6 76.6 L 160.8679030418396 77.73837375640869 L 158.3 82.0 L 152.6 89.1 L 146.1 95.6 L 140.98560237884521 99.73355417251587 L 143.0 100.8 L 150.9 104.1 L 159.9 107.0 L 169.9 109.5 L 180.9 111.6 L 190.2 113.5 L 178.3 124.6 L 167.7235294342041 121.86470584869384 Z M 104.7 153.4 L 104.7 174.7 L 126.0 174.7 L 126.0 153.4 Z M 138.0 153.4 L 138.0 174.7 L 159.2 174.7 L 159.2 153.4 Z M 104.7 128.8 L 104.7 149.4 L 126.0 149.4 L 126.0 128.8 Z M 138.0 128.8 L 138.0 149.4 L 159.2 149.4 L 159.2 128.8 Z M 45.4505202293396 93.3 L 35.56417474746704 134.8130524635315 L 41.4 136.0 L 47.1 137.6 L 51.44451427459717 139.23943929672242 L 51.9 138.3 L 56.1 127.6 L 59.5 116.1 L 62.2 103.7 L 63.77575759887695 93.3 Z M 130.5 106.8 L 121.5 111.4 L 111.7 115.5 L 101.0 118.9 L 95.48816566467285 120.19408283233642 L 104.7 124.8 L 159.2 124.8 L 164.0641975402832 120.74650201797485 L 156.2 118.2 L 146.7 114.3 L 138.2 109.8 L 132.15560731887817 105.74280490875245 Z M 116.51199998855591 73.6 L 115.7 75.0 L 115.6529987335205 75.06756429672241 L 117.5 78.7 L 121.0 84.0 L 125.2 88.8 L 130.2 93.2 L 132.3973509788513 94.6649006843567 L 133.0 94.2 L 139.2 88.4 L 144.4 82.3 L 148.7 75.8 L 149.83235292434694 73.6 Z M 66.6 56.2 L 65.4 53.9 L 63.9 51.6 L 62.0 49.2 L 59.9 46.8 L 57.5 44.3 L 54.8 41.8 L 51.9 39.2 L 49.465217399597165 37.6 L 45.04285717010498 37.6 L 42.6 41.4 L 38.6 46.9 L 34.3 52.1 L 29.5 57.0 L 24.3 61.7 L 18.6 66.0 L 12.5 70.0 L 11.4 68.6 L 16.1 63.2 L 20.5 57.9 L 24.6 52.7 L 28.3 47.4 L 31.6 42.1 L 34.6 36.7 L 37.2 31.2 L 39.5 25.6 L 41.4 20.0 L 42.65994920730591 15.212193012237549 L 42.6 15.2 L 43.4 12.6 L 54.4 17.6 L 56.8 20.3 L 53.030385684967044 21.29200372695923 L 52.1 23.8 L 49.3 29.9 L 47.35593223571777 33.6 L 84.0 33.6 L 94.0 23.6 L 106.0 33.6 L 106.0 37.6 L 55.6 37.6 L 57.1 38.1 L 60.7 39.7 L 64.1 41.5 L 67.2 43.4 L 70.1 45.5 L 72.7 47.8 L 75.1 50.2 L 77.3 52.8 L 79.2 55.6 L 79.3 60.2 L 76.2 63.6 L 71.6 63.7 L 68.2 60.6 L 67.6 58.5 Z M 145.6 56.2 L 144.4 53.9 L 142.9 51.6 L 141.0 49.2 L 138.9 46.8 L 136.5 44.3 L 133.8 41.8 L 130.9 39.2 L 128.46521739959718 37.6 L 123.5 37.6 L 121.5 40.6 L 117.5 45.6 L 113.2 50.4 L 108.4 54.9 L 103.2 59.1 L 97.5 62.9 L 91.5 66.2 L 90.4 64.7 L 95.2 59.9 L 99.6 55.1 L 103.7 50.3 L 107.4 45.5 L 110.7 40.6 L 113.7 35.6 L 116.3 30.4 L 118.5 25.2 L 120.4 19.8 L 121.63048219680786 15.206199741363525 L 121.6 15.2 L 121.84827585220337 14.393103408813477 L 121.9 14.2 L 121.90705089569092 14.202084636688232 L 122.4 12.6 L 133.4 17.6 L 135.7 20.4 L 131.99502258300782 21.326244354248047 L 131.1 23.7 L 128.3 29.6 L 126.01428575515747 33.6 L 164.0 33.6 L 174.0 23.6 L 186.0 33.6 L 186.0 37.6 L 134.6 37.6 L 136.1 38.1 L 139.7 39.7 L 143.1 41.5 L 146.2 43.4 L 149.1 45.5 L 151.7 47.8 L 154.1 50.2 L 156.3 52.8 L 158.2 55.6 L 158.3 60.2 L 155.2 63.6 L 150.6 63.7 L 147.2 60.6 L 146.6 58.5 Z " />
</g>
</svg>
