<svg xmlns="http://www.w3.org/2000/svg" xmlns:xlink="http://www.w3.org/1999/xlink" version="1.1" baseProfile="full" viewBox="0 0 200 200" width="200" height="200">
<g fill="black">
<path d="M 143.6 185.2 L 127.5 180.0 L 113.4 173.2 L 101.1 164.8 L 91.0 154.7 L 84.0976037979126 144.81508693695068 L 19.1 149.7 L 18.8 145.7 L 81.95681114196778 140.9534321784973 L 77.1 129.9 L 76.19250783920288 126.24482316970825 L 25.1 129.7 L 24.8 125.8 L 75.22640876770019 122.35359077453613 L 73.5 115.4 L 72.09338521957397 100.4898832321167 L 72.0 100.5 L 71.9 97.2 L 84.0 99.2 L 87.0 101.1 L 84.32866458892822 102.79002857208252 L 85.3 113.4 L 87.28436269760132 121.52948598861694 L 141.83653755187987 117.80109996795655 L 151.2 107.1 L 163.8 116.3 L 164.1 120.3 L 88.23653841018677 125.43033485412597 L 88.4 126.1 L 93.4 137.2 L 95.30816831588746 139.95000724792482 L 157.86577768325805 135.24847259521485 L 167.1 124.6 L 179.8 133.6 L 180.1 137.6 L 97.96098260879516 143.77318077087403 L 100.2 147.0 L 108.8 155.5 L 119.3 162.8 L 132.0 168.8 L 146.7 173.6 L 163.5 177.0 L 176.3778307914734 178.36273345947265 L 182.0 154.0 L 184.0 154.0 L 182.0795316696167 178.9660880088806 L 182.4 179.0 L 186.4 181.1 L 187.9 185.4 L 185.9 189.4 L 181.5 191.0 L 161.6 188.8 Z M 144.2 84.7 L 138.0 81.5 L 132.1 78.1 L 126.6 74.5 L 121.4 70.8 L 116.6 67.0 L 112.2 62.9 L 108.2 58.7 L 104.7 54.2 L 104.5 53.8758620262146 L 104.5 87.1 L 94.3 92.2 L 162.0 92.2 L 162.0 78.16869564056397 L 150.7 87.7 Z M 144.6 24.4 L 145.4 28.0 L 141.31493368148804 26.996650409698486 L 139.6 28.3 L 136.9 30.2 L 134.1 32.1 L 131.2 34.1 L 128.1 36.0 L 124.9 37.9 L 121.6 39.7 L 118.0 41.5 L 114.5 43.5 L 113.4 42.0 L 116.3 39.2 L 118.9 36.3 L 121.4 33.5 L 123.8 30.8 L 126.1 28.1 L 128.3 25.6 L 130.4 23.1 L 132.4 20.7 L 135.39281435012816 16.875848293304443 L 135.3 16.8 L 136.3 15.8 Z M 67.9 37.0 L 66.8 35.1 L 65.5 33.0 L 64.0 31.0 L 62.4 28.8 L 60.5 26.7 L 58.4 24.4 L 56.2 22.0 L 53.6 19.9 L 54.5 18.4 L 57.6 19.9 L 60.7 21.1 L 63.7 22.4 L 66.4 23.9 L 69.0 25.4 L 71.5 27.0 L 73.8 28.7 L 75.9 30.5 L 77.9 32.4 L 79.7 34.4 L 80.4 38.9 L 77.7 42.6 L 73.2 43.3 L 69.5 40.7 L 68.8 38.9 Z M 162.0 19.7 L 174.0 21.7 L 177.0 23.7 L 174.0 25.5 L 174.0 100.2 L 162.0 106.2 L 162.0 96.2 L 38.0 96.2 L 38.0 108.2 L 26.0 114.2 L 26.0 19.7 L 38.0 21.7 L 41.0 23.7 L 38.0 25.5 L 38.0 92.2 L 92.5 92.2 L 92.5 60.141176509857175 L 91.6 60.9 L 86.2 64.9 L 80.6 68.7 L 74.6 72.2 L 68.3 75.5 L 61.7 78.5 L 54.8 81.2 L 47.6 83.6 L 40.0 85.5 L 39.4 83.9 L 46.1 80.1 L 52.5 76.4 L 58.7 72.7 L 64.5 68.9 L 70.0 65.1 L 75.2 61.1 L 80.0 57.0 L 84.6 52.8 L 87.23720932006836 50.1 L 40.4 50.1 L 40.4 46.1 L 92.5 46.1 L 92.5 12.3 L 104.5 14.3 L 107.5 16.3 L 104.5 18.1 L 104.5 46.1 L 134.5 46.1 L 144.5 36.1 L 156.5 46.1 L 156.5 50.1 L 105.83999996185302 50.1 L 107.6 51.3 L 112.1 54.3 L 116.7 57.3 L 121.5 60.2 L 126.5 63.0 L 131.7 65.7 L 137.3 68.3 L 143.1 70.8 L 149.1 73.2 L 155.5 75.4 L 162.0 77.92238807678223 Z " />
</g>
</svg>
