<svg xmlns="http://www.w3.org/2000/svg" xmlns:xlink="http://www.w3.org/1999/xlink" version="1.1" baseProfile="full" viewBox="0 0 200 200" width="200" height="200">
<g fill="black">
<path d="M 140.63239440917968 109.96056337356568 L 139.9 120.8 L 137.5 134.3 L 136.65901641845704 137.0 L 166.4 137.0 L 176.4 127.0 L 188.4 137.0 L 188.4 141.0 L 137.9 141.0 L 139.7 143.5 L 143.4 148.2 L 147.3 152.5 L 151.3 156.4 L 155.6 160.0 L 160.3 163.2 L 165.2 166.0 L 170.5 168.6 L 176.1 170.8 L 182.1 172.7 L 189.5 175.2 L 177.9 185.2 L 171.3 182.3 L 165.1 179.1 L 159.4 175.4 L 154.2 171.4 L 149.4 166.9 L 145.2 162.1 L 141.5 156.9 L 138.4 151.4 L 136.0 145.5 L 135.10685691833496 141.98324899673463 L 133.7 146.5 L 128.5 157.3 L 121.9 166.6 L 113.9 174.3 L 104.6 180.4 L 94.2 184.9 L 82.6 187.7 L 69.8 188.8 L 69.7 187.1 L 81.7 184.0 L 92.2 179.9 L 101.3 174.8 L 108.9 168.6 L 115.3 161.3 L 120.4 152.8 L 124.3 143.1 L 124.81545457839965 141.0 L 84.5 141.0 L 84.5 137.0 L 125.79727268218994 137.0 L 127.0 132.1 L 128.5 119.7 L 128.9 106.0 L 128.9 103.6 L 140.9 106.0 L 143.9 108.0 Z M 110.4 64.0 L 110.4 109.5880000114441 L 112.3 106.7 L 114.4 102.6 L 116.2 98.1 L 117.7 93.3 L 118.9 88.0 L 119.8 82.2 L 120.4 76.0 L 120.6 69.2 L 120.52777776718139 64.0 Z M 165.0 99.0 L 162.6 102.6 L 159.0 105.0 L 154.3 105.0 L 151.7 104.8 L 149.2 104.4 L 146.8 103.6 L 144.6 102.3 L 142.6 100.7 L 140.9 98.7 L 139.7 96.4 L 138.9 94.0 L 138.4 91.5 L 138.3 89.0 L 138.3 64.0 L 132.34615383148193 64.0 L 131.9 69.8 L 131.0 77.1 L 129.7 84.0 L 127.9 90.3 L 125.7 96.1 L 123.1 101.4 L 120.0 106.0 L 116.5 110.0 L 112.5 113.3 L 110.4 114.44545450210572 L 110.4 127.0 L 98.4 133.0 L 98.4 66.9222222328186 L 94.0 72.3 L 89.2 77.2 L 85.87861270904541 80.06551055908203 L 91.8 85.0 L 91.8 89.0 L 59.6 89.0 L 59.6 102.3285714149475 L 63.4 104.5 L 67.3 107.0 L 71.0 109.6 L 74.5 112.4 L 77.8 115.2 L 80.9 118.1 L 83.8 121.0 L 86.5 124.1 L 89.0 127.2 L 89.8 131.7 L 87.2 135.5 L 82.7 136.2 L 78.9 133.7 L 77.3 130.6 L 75.4 127.5 L 73.4 124.4 L 71.2 121.3 L 68.7 118.1 L 66.1 114.8 L 63.3 111.6 L 60.3 108.2 L 59.6 107.40967741012574 L 59.6 181.0 L 47.6 187.0 L 47.6 114.26774196624756 L 46.9 116.3 L 43.5 124.9 L 39.6 133.2 L 35.4 141.0 L 30.8 148.4 L 25.7 155.3 L 20.2 161.7 L 14.2 167.5 L 12.8 166.4 L 17.2 159.4 L 21.3 152.3 L 25.1 145.1 L 28.7 137.5 L 31.9 129.7 L 34.8 121.6 L 37.4 113.2 L 39.7 104.4 L 41.6 95.3 L 42.66265058517456 89.0 L 14.4 89.0 L 14.4 85.0 L 47.6 85.0 L 47.6 14.0 L 59.6 16.0 L 62.6 18.0 L 59.6 19.8 L 59.6 85.0 L 69.8 85.0 L 79.8 75.0 L 83.89900989532471 78.41584157943726 L 86.2 74.8 L 89.7 69.1 L 93.0 63.2 L 96.2 57.1 L 99.3 50.7 L 102.2 44.0 L 104.9 37.0 L 107.4 29.7 L 109.8 22.1 L 111.74661664962768 15.109876441955567 L 111.7 15.1 L 112.5 12.6 L 123.5 17.6 L 125.8 20.4 L 122.19063549041748 21.302341175079345 L 120.6 25.8 L 118.90909090042115 30.0 L 141.5 30.0 L 141.5 29.0 L 147.5 24.0 L 158.5 33.0 L 153.5 36.0 L 151.306622505188 36.91390724182129 L 150.5 38.7 L 148.9 41.7 L 147.3 44.8 L 145.5 47.8 L 143.6 50.7 L 141.5 53.7 L 139.3 56.6 L 136.9 59.5 L 136.50344829559327 60.0 L 165.6 60.0 L 171.6 55.0 L 182.6 64.0 L 177.6 68.0 L 177.6 125.0 L 165.6 131.0 L 165.6 64.0 L 150.3 64.0 L 150.3 89.0 L 150.4 90.2 L 150.5 91.1 L 150.7 91.7 L 150.9 92.0 L 151.0 92.2 L 151.2 92.4 L 151.6 92.5 L 152.2 92.7 L 153.02784814834595 92.88396625518799 L 159.0 68.0 L 161.0 68.0 L 159.0 93.0 L 162.6 95.4 Z M 89.1 33.0 L 91.2 35.9 L 87.32543172836304 36.64772367477417 L 87.3 36.7 L 85.4 40.4 L 83.4 44.3 L 81.2 48.3 L 78.9 52.5 L 76.3 56.7 L 73.7 61.0 L 70.8 65.4 L 67.6 69.9 L 64.2 74.4 L 62.6 73.5 L 64.4 68.2 L 66.1 63.0 L 67.9 58.1 L 69.6 53.4 L 71.3 48.9 L 72.8 44.6 L 74.3 40.4 L 75.6 36.3 L 76.8 32.5 L 77.62210521697997 29.734736824035643 L 77.5 29.7 L 78.4 27.4 Z M 29.5 62.8 L 28.8 59.3 L 28.0 55.7 L 27.1 51.9 L 26.0 47.9 L 24.8 43.8 L 23.4 39.5 L 22.0 34.9 L 20.3 30.3 L 21.9 29.4 L 24.9 33.5 L 27.7 37.4 L 30.2 41.3 L 32.5 45.2 L 34.6 49.0 L 36.5 52.7 L 38.2 56.3 L 39.6 59.9 L 40.9 63.4 L 42.0 66.9 L 41.0 71.4 L 37.2 73.9 L 32.8 72.9 L 30.2 69.1 L 29.9 66.0 Z M 117.27333335876465 34.0 L 114.1 41.0 L 110.6 48.0 L 106.8 54.7 L 105.09268293380737 57.34634141921997 L 110.4 60.0 L 133.61764707565308 60.0 L 134.4 58.1 L 135.4 54.6 L 136.5 51.2 L 137.5 47.9 L 138.4 44.6 L 139.2 41.5 L 140.0 38.3 L 140.86000003814698 34.0 Z " />
</g>
</svg>
