<svg xmlns="http://www.w3.org/2000/svg" xmlns:xlink="http://www.w3.org/1999/xlink" version="1.1" baseProfile="full" viewBox="0 0 200 200" width="200" height="200">
<g fill="black">
<path d="M 67.9 127.3 L 66.1 124.2 L 64.1 121.0 L 62.0 117.9 L 59.7 114.7 L 57.2 111.4 L 54.6 108.1 L 54.6 181.0 L 42.6 187.0 L 42.6 117.8125 L 40.0 124.8 L 36.5 133.0 L 32.6 140.9 L 28.4 148.3 L 23.7 155.2 L 18.6 161.6 L 13.1 167.5 L 11.7 166.4 L 15.5 159.5 L 19.1 152.4 L 22.6 145.2 L 25.7 137.7 L 28.6 129.9 L 31.2 121.7 L 33.5 113.3 L 35.5 104.5 L 37.3 95.4 L 38.21428575515747 89.0 L 13.2 89.0 L 13.2 85.0 L 42.6 85.0 L 42.6 14.0 L 54.6 16.0 L 57.6 18.0 L 54.6 19.8 L 54.6 85.0 L 61.3 85.0 L 71.3 75.0 L 83.3 85.0 L 83.3 89.0 L 54.6 89.0 L 54.6 102.71282052993774 L 57.8 104.6 L 61.3 107.2 L 64.7 109.8 L 67.9 112.5 L 71.0 115.3 L 73.8 118.2 L 76.5 121.2 L 79.0 124.2 L 81.3 127.3 L 81.9 131.9 L 79.1 135.5 L 74.6 136.1 L 70.9 133.4 L 69.5 130.3 Z M 188.4 178.0 L 188.4 182.0 L 73.5 182.0 L 73.5 178.0 L 166.4 178.0 L 176.4 168.0 Z M 89.5 170.1 L 89.5 111.2 L 101.5 117.2 L 159.4 117.2 L 165.4 112.2 L 176.4 121.2 L 171.4 125.2 L 171.4 164.1 L 159.4 170.1 L 159.4 164.1 L 101.5 164.1 Z M 101.5 142.3 L 101.5 160.1 L 124.5 160.1 L 124.5 142.3 Z M 136.5 142.3 L 136.5 160.1 L 159.4 160.1 L 159.4 142.3 Z M 101.5 121.2 L 101.5 138.3 L 124.5 138.3 L 124.5 121.2 Z M 136.5 121.2 L 136.5 138.3 L 159.4 138.3 L 159.4 121.2 Z M 184.5 100.0 L 184.5 104.0 L 77.4 104.0 L 77.4 100.0 L 170.2777777671814 100.0 L 176.5 93.0 Z M 89.4 93.1 L 89.4 34.2 L 101.4 40.2 L 158.6 40.2 L 164.6 35.2 L 175.6 44.2 L 170.6 48.2 L 170.6 87.1 L 158.6 93.1 L 158.6 87.1 L 101.4 87.1 Z M 101.4 65.3 L 101.4 83.1 L 124.0 83.1 L 124.0 65.3 Z M 136.0 65.3 L 136.0 83.1 L 158.6 83.1 L 158.6 65.3 Z M 81.4 32.8 L 83.6 35.7 L 79.68960247039794 36.52324161529541 L 78.0 40.3 L 76.1 44.2 L 74.1 48.2 L 71.9 52.3 L 69.6 56.5 L 67.1 60.9 L 64.4 65.3 L 61.5 69.8 L 58.3 74.3 L 56.7 73.6 L 58.2 68.3 L 59.8 63.2 L 61.3 58.3 L 62.8 53.6 L 64.2 49.1 L 65.6 44.7 L 66.9 40.5 L 68.0 36.5 L 69.1 32.7 L 69.7764705657959 29.918954277038573 L 69.7 29.9 L 70.5 27.5 Z M 26.3 62.6 L 25.8 59.2 L 25.1 55.6 L 24.3 51.8 L 23.4 47.8 L 22.3 43.7 L 21.1 39.4 L 19.9 34.9 L 18.5 30.2 L 20.1 29.5 L 25.5 37.5 L 27.8 41.4 L 30.0 45.3 L 31.9 49.1 L 33.6 52.8 L 35.2 56.5 L 36.5 60.0 L 37.7 63.6 L 38.8 67.0 L 37.7 71.4 L 33.8 73.9 L 29.4 72.8 L 26.9 69.0 L 26.7 65.9 Z M 101.4 44.2 L 101.4 61.3 L 124.0 61.3 L 124.0 44.2 Z M 136.0 44.2 L 136.0 61.3 L 158.6 61.3 L 158.6 44.2 Z M 186.4 24.0 L 186.4 28.0 L 75.4 28.0 L 75.4 24.0 L 164.4 24.0 L 174.4 14.0 Z " />
</g>
</svg>
