<svg xmlns="http://www.w3.org/2000/svg" xmlns:xlink="http://www.w3.org/1999/xlink" version="1.1" baseProfile="full" viewBox="0 0 200 200" width="200" height="200">
<g fill="black">
<path d="M 158.5 180.6 L 150.0 177.9 L 141.9 174.9 L 134.3 171.8 L 127.1 168.4 L 120.3 164.7 L 114.0 160.8 L 108.3 156.5 L 106.0 154.33800001144408 L 106.0 181.8 L 94.0 187.8 L 94.0 157.14426231384277 L 90.8 159.4 L 84.3 163.5 L 77.3 167.3 L 69.7 170.8 L 61.6 174.0 L 53.0 176.9 L 43.8 179.5 L 34.1 181.7 L 23.9 183.5 L 13.1 184.9 L 12.8 183.1 L 23.0 179.8 L 32.7 176.5 L 41.8 173.2 L 50.4 169.7 L 58.3 166.1 L 65.7 162.4 L 72.4 158.5 L 78.5 154.5 L 81.1 152.5 L 15.0 152.5 L 15.0 148.5 L 71.4 148.5 L 68.6 147.3 L 68.0 146.2 L 67.0 144.9 L 65.6 143.5 L 63.9 142.0 L 61.8 140.4 L 59.4 138.7 L 56.7 137.0 L 53.7 135.2 L 50.4 133.2 L 46.6 131.6 L 47.2 129.8 L 51.2 130.8 L 55.1 131.3 L 58.6 132.0 L 62.0 132.8 L 65.0 133.6 L 67.9 134.5 L 70.5 135.4 L 72.9 136.5 L 75.1 137.6 L 77.1 139.0 L 78.8 143.2 L 77.0 147.4 L 74.28235292434692 148.5 L 94.0 148.5 L 94.0 124.2 L 106.0 126.2 L 109.0 128.2 L 106.0 130.0 L 106.0 148.5 L 119.01111106872558 148.5 L 120.9 147.0 L 123.9 144.1 L 126.8 141.4 L 129.5 138.9 L 132.0 136.5 L 134.3 134.3 L 136.4 132.2 L 138.2 130.2 L 139.8 128.3 L 140.52709503173827 127.41709880828857 L 140.4 127.3 L 141.4 126.4 L 149.3 135.5 L 149.8 139.1 L 145.54362411499022 137.80788593292237 L 144.7 138.3 L 142.2 139.8 L 139.5 141.3 L 129.9 146.1 L 126.3 147.7 L 124.35 148.5 L 163.0 148.5 L 173.0 138.5 L 185.0 148.5 L 185.0 152.5 L 109.3518518447876 152.5 L 110.5 153.0 L 116.8 155.6 L 123.4 158.2 L 130.3 160.7 L 137.5 163.0 L 145.1 165.2 L 153.1 167.3 L 161.4 169.1 L 170.1 170.8 L 179.2 172.3 L 188.5 174.1 L 176.7 185.3 L 167.4 183.0 Z M 32.2 127.8 L 32.2 74.7 L 44.2 80.7 L 156.7 80.7 L 162.7 75.7 L 173.7 84.7 L 168.7 88.7 L 168.7 127.8 L 156.7 133.8 L 156.7 121.8 L 44.2 121.8 Z M 44.2 84.7 L 44.2 117.8 L 68.3 117.8 L 68.3 84.7 Z M 80.3 109.5 L 80.3 117.8 L 119.6 117.8 L 119.6 109.5 Z M 131.6 84.7 L 131.6 117.8 L 156.7 117.8 L 156.7 84.7 Z M 80.3 97.1 L 80.3 105.5 L 119.6 105.5 L 119.6 97.1 Z M 80.3 84.7 L 80.3 93.1 L 119.6 93.1 L 119.6 84.7 Z M 121.2 44.0 L 158.6 44.0 L 164.6 39.0 L 175.6 48.0 L 170.6 52.0 L 170.6 67.9 L 158.6 73.9 L 158.6 67.9 L 121.2 67.9 L 109.2 73.9 L 109.2 38.0 Z M 41.4 44.0 L 78.8 44.0 L 84.8 39.0 L 95.8 48.0 L 90.8 52.0 L 90.8 67.9 L 78.8 73.9 L 78.8 67.9 L 41.4 67.9 L 29.4 73.9 L 29.4 38.0 Z M 121.2 48.0 L 121.2 63.9 L 158.6 63.9 L 158.6 48.0 Z M 41.4 48.0 L 41.4 63.9 L 78.8 63.9 L 78.8 48.0 Z M 15.0 29.7 L 94.0 29.7 L 94.0 11.8 L 106.0 13.8 L 109.0 15.8 L 106.0 17.6 L 106.0 29.7 L 170.7777777671814 29.7 L 177.0 22.7 L 185.0 29.7 L 185.0 33.7 L 15.0 33.7 Z " />
</g>
</svg>
