<svg xmlns="http://www.w3.org/2000/svg" xmlns:xlink="http://www.w3.org/1999/xlink" version="1.1" baseProfile="full" viewBox="0 0 200 200" width="200" height="200">
<g fill="black">
<path d="M 82.2 105.5 L 81.50653266906738 103.47738695144653 L 79.2 104.4 L 72.5 106.6 L 65.8 108.6 L 61.8 109.64347829818726 L 61.8 183.0 L 49.8 189.0 L 49.8 112.59577465057373 L 44.9 113.7 L 37.8 115.1 L 30.6 116.4 L 23.3 117.7 L 20.05913200378418 118.18835000991821 L 18.3 121.6 L 16.0 118.8 L 12.7 107.1 L 14.7 106.9 L 22.0 106.4 L 32.53710250854492 105.52190809249878 L 35.0 101.9 L 40.2 94.5 L 45.4 87.3 L 50.5 80.0 L 60.7 65.6 L 70.5 51.0 L 79.9 36.4 L 79.92286376953125 36.415704345703126 L 80.4 35.7 L 89.8 43.2 L 91.2 46.5 L 87.52241458892823 46.309780025482176 L 84.6 50.3 L 79.2 57.3 L 73.7 64.3 L 68.1 71.2 L 56.5 84.8 L 50.5 91.4 L 44.3 98.0 L 37.9 104.4 L 37.09676332473755 105.13130502700805 L 43.5 104.5 L 50.6 103.7 L 57.6 103.0 L 71.4 101.4 L 78.3 100.7 L 80.36586828231812 100.52035932540893 L 79.5 98.5 L 77.9 95.2 L 76.0 91.9 L 74.0 88.7 L 71.8 85.5 L 69.5 82.3 L 66.8 79.3 L 67.9 77.8 L 71.5 79.9 L 75.1 82.1 L 78.4 84.7 L 81.5 87.5 L 84.4 90.6 L 87.1 93.9 L 89.6 97.4 L 91.8 101.2 L 93.9 105.1 L 95.7 109.3 L 95.2 113.8 L 91.7 116.8 L 87.2 116.3 L 84.2 112.9 L 83.3 109.1 Z M 40.0 128.7 L 42.7 131.1 L 39.172459030151366 132.63081970214844 L 38.8 134.4 L 37.3 139.9 L 35.4 145.4 L 33.3 150.8 L 30.8 156.1 L 28.1 161.2 L 24.9 166.3 L 21.5 171.2 L 17.6 176.0 L 13.3 180.5 L 11.8 179.4 L 14.4 173.9 L 16.9 168.5 L 19.1 163.2 L 21.2 158.0 L 23.0 152.8 L 24.5 147.7 L 25.8 142.5 L 26.8 137.4 L 27.6 132.3 L 28.001549339294435 128.20419626235963 L 27.9 128.2 L 28.3 125.1 Z M 81.6 151.4 L 80.5 147.5 L 79.2 143.8 L 77.7 140.2 L 76.0 136.7 L 74.2 133.3 L 72.2 129.9 L 70.1 126.5 L 67.6 123.3 L 68.8 121.9 L 72.3 124.2 L 75.8 126.7 L 79.0 129.5 L 81.9 132.7 L 84.7 136.1 L 87.2 139.7 L 89.5 143.6 L 91.5 147.7 L 93.4 152.0 L 95.0 156.6 L 94.3 161.1 L 90.7 163.9 L 86.2 163.1 L 83.4 159.5 L 82.6 155.4 Z M 33.9 69.5 L 32.2 66.4 L 30.3 63.4 L 28.1 60.5 L 25.7 57.6 L 22.9 54.7 L 19.9 51.9 L 16.7 48.9 L 13.0 46.2 L 13.8 44.6 L 18.2 46.2 L 22.5 47.9 L 26.5 49.9 L 30.2 52.2 L 31.76501407623291 53.36258182525635 L 33.0 51.0 L 35.4 46.7 L 37.8 42.5 L 40.1 38.4 L 42.5 34.3 L 44.8 30.2 L 47.1 26.0 L 49.4 21.9 L 51.6 17.8 L 53.23118572235107 14.615304088592529 L 53.2 14.6 L 54.2 12.8 L 64.0 19.9 L 65.5 23.2 L 61.6307692527771 23.2 L 58.4 27.7 L 55.5 31.5 L 52.5 35.3 L 49.4 39.1 L 46.2 42.7 L 42.9 46.4 L 39.5 49.9 L 35.9 53.3 L 33.93927011489868 54.99576644897461 L 37.0 57.5 L 40.0 60.5 L 42.7 63.7 L 45.2 67.1 L 47.4 70.8 L 47.5 75.3 L 44.4 78.7 L 39.8 78.8 L 36.4 75.7 L 35.3 72.5 Z M 143.8 30.5 L 143.5 30.5 L 143.3 30.8 L 143.1 31.0 L 142.8 31.9 L 142.6 32.8 L 142.5 34.0 L 142.5 132.0 L 135.09889192581176 130.76648197174072 L 133.5 133.1 L 129.7 138.4 L 125.9 143.5 L 118.5 153.3 L 114.9 158.1 L 111.5 162.9 L 108.1 167.6 L 105.66086959838867 171.0 L 187.2 171.0 L 187.2 175.0 L 102.80888891220093 175.0 L 101.6 176.7 L 101.16297922134399 176.3641839981079 L 96.8 180.0 L 85.8 171.0 L 90.8 168.0 L 94.70453176498413 166.37311182022094 L 95.8 165.1 L 99.6 160.8 L 103.7 156.5 L 107.9 152.1 L 112.1 147.8 L 116.5 143.4 L 121.0 139.1 L 125.7 134.8 L 130.7 130.5 L 131.18859062194824 130.1147650718689 L 130.5 130.0 L 127.5 128.0 L 130.5 126.2 L 130.5 34.0 L 130.7 31.5 L 131.1 29.0 L 131.9 26.5 L 133.2 24.3 L 134.8 22.3 L 136.8 20.6 L 139.1 19.4 L 141.5 18.5 L 144.0 18.1 L 146.5 18.0 L 146.5 24.0 L 162.5 27.0 L 162.5 30.0 L 145.3 30.0 Z " />
</g>
</svg>
