<svg xmlns="http://www.w3.org/2000/svg" xmlns:xlink="http://www.w3.org/1999/xlink" version="1.1" baseProfile="full" viewBox="0 0 200 200" width="200" height="200">
<g fill="black">
<path d="M 141.5 92.9 L 144.5 94.9 L 141.5 96.7 L 141.5 114.0 L 158.6 114.0 L 168.6 104.0 L 180.6 114.0 L 180.6 118.0 L 141.5 118.0 L 141.5 143.7 L 166.3 143.7 L 176.3 133.7 L 188.3 143.7 L 188.3 147.7 L 141.5 147.7 L 141.5 183.0 L 129.5 189.0 L 129.5 147.7 L 82.6 147.7 L 82.6 143.7 L 129.5 143.7 L 129.5 118.0 L 106.12307691574097 118.0 L 104.4 120.4 L 101.4 124.2 L 98.1 127.9 L 94.5 131.6 L 90.6 135.1 L 86.4 138.4 L 85.1 137.2 L 87.9 132.8 L 90.5 128.4 L 93.0 124.2 L 95.3 120.1 L 97.3 116.0 L 99.2 112.0 L 100.8 108.1 L 102.2 104.2 L 103.3 100.4 L 104.05354108810425 97.61189804077148 L 104.0 97.6 L 104.8 95.1 L 115.7 100.2 L 118.0 103.0 L 114.18766231536866 103.93636360168458 L 114.0 104.4 L 112.0 108.5 L 109.7 112.5 L 108.7625 114.0 L 129.5 114.0 L 129.5 90.9 Z M 73.0 105.3 L 72.49419851303101 103.64464979171753 L 71.0 104.3 L 65.2 106.6 L 59.3 108.6 L 56.2 109.51475410461425 L 56.2 183.0 L 44.2 189.0 L 44.2 112.80161294937133 L 40.9 113.6 L 34.6 115.1 L 28.3 116.4 L 21.9 117.7 L 19.44516725540161 118.11543321609497 L 17.7 121.5 L 15.4 118.8 L 12.0 107.1 L 13.9 106.9 L 20.4 106.4 L 29.605047702789307 105.52332878112793 L 31.7 102.0 L 36.1 94.7 L 40.6 87.4 L 49.6 73.0 L 54.0 65.8 L 58.3 58.6 L 66.7 44.0 L 70.8 36.7 L 71.3 35.8 L 81.1 42.9 L 82.6 46.2 L 78.91549291610718 46.2 L 76.4 50.0 L 71.6 57.1 L 66.7 64.0 L 61.7 71.0 L 56.6 77.8 L 51.4 84.6 L 46.0 91.3 L 40.5 97.9 L 34.7 104.3 L 33.928915691375735 105.09678716659546 L 39.3 104.5 L 45.5 103.8 L 51.7 103.0 L 57.8 102.2 L 64.0 101.4 L 70.1 100.7 L 71.49850883483887 100.56244173049927 L 70.7 98.3 L 69.3 95.0 L 67.8 91.7 L 66.1 88.5 L 64.2 85.4 L 62.3 82.2 L 60.0 79.3 L 61.1 77.9 L 64.4 80.1 L 67.6 82.3 L 70.6 84.9 L 73.5 87.7 L 76.1 90.8 L 78.5 94.1 L 80.7 97.7 L 82.8 101.4 L 84.6 105.3 L 86.2 109.5 L 85.6 114.0 L 82.0 116.8 L 77.5 116.2 L 74.7 112.7 L 73.9 108.9 Z M 37.0 128.6 L 39.8 130.9 L 36.21615295410156 132.59049386978148 L 35.9 134.2 L 34.6 139.8 L 32.9 145.2 L 31.0 150.6 L 28.8 155.9 L 26.2 161.1 L 23.4 166.2 L 20.3 171.1 L 16.8 175.9 L 12.8 180.4 L 11.3 179.5 L 13.5 174.0 L 15.6 168.6 L 17.5 163.4 L 19.2 158.2 L 20.8 153.0 L 22.1 147.8 L 23.2 142.7 L 24.1 137.6 L 24.7 132.4 L 25.021526432037355 128.30053815841674 L 25.0 128.3 L 25.3 125.2 Z M 72.5 151.2 L 71.5 147.3 L 70.4 143.6 L 69.2 140.0 L 67.8 136.5 L 66.2 133.1 L 64.5 129.8 L 62.7 126.4 L 60.7 123.3 L 61.9 122.0 L 65.1 124.3 L 68.2 126.9 L 71.1 129.7 L 73.8 132.9 L 76.3 136.3 L 78.5 139.9 L 80.6 143.8 L 82.5 147.9 L 84.2 152.2 L 85.7 156.7 L 84.8 161.2 L 81.1 163.9 L 76.6 163.0 L 73.9 159.3 L 73.3 155.2 Z M 165.4 88.0 L 163.5 89.2 L 161.4 90.3 L 159.2 91.2 L 157.0 92.0 L 154.8 92.6 L 152.5 93.0 L 150.1 93.2 L 147.7 93.3 L 147.7 87.3 L 127.7 84.3 L 127.7 81.3 L 147.7 81.3 L 149.3 81.2 L 150.8 81.1 L 153.6 80.5 L 156.2 79.5 L 157.5 78.8 L 158.7 78.0 L 160.0 77.2 L 161.2 76.1 L 161.4 75.8 L 162.2 74.4 L 163.0 72.0 L 163.9 68.7 L 164.8 64.6 L 165.5 59.7 L 166.2 54.0 L 166.8 47.6 L 167.3 40.5 L 167.5835443496704 34.9 L 156.5873417854309 34.9 L 154.4 42.1 L 151.4 49.5 L 147.7 56.4 L 143.4 62.9 L 138.6 68.9 L 133.2 74.4 L 127.2 79.4 L 120.7 83.8 L 113.5 87.5 L 105.9 90.7 L 105.1 89.0 L 111.6 84.3 L 117.5 79.4 L 122.9 74.4 L 127.7 69.1 L 132.0 63.6 L 135.7 57.8 L 138.8 51.7 L 141.4 45.4 L 143.5 38.6 L 144.27894735336304 34.9 L 133.3 34.9 L 133.1 35.3 L 130.1 40.9 L 126.7 46.2 L 122.8 51.3 L 118.6 56.2 L 113.9 60.7 L 108.8 65.0 L 103.4 69.0 L 97.5 72.6 L 91.1 75.9 L 84.4 78.7 L 83.5 77.2 L 89.1 72.7 L 94.4 68.2 L 99.3 63.8 L 103.7 59.4 L 107.8 54.8 L 111.5 50.2 L 114.7 45.4 L 117.6 40.6 L 120.0 35.6 L 120.25925922393799 34.9 L 108.00731706619263 34.9 L 105.9 37.3 L 102.1 41.2 L 97.9 45.0 L 93.5 48.6 L 88.8 52.0 L 83.7 55.1 L 78.3 57.9 L 77.3 56.4 L 81.4 52.1 L 85.3 47.9 L 89.1 43.8 L 92.5 39.7 L 95.7 35.6 L 98.6 31.5 L 101.3 27.4 L 103.7 23.2 L 105.8 18.9 L 107.212322807312 15.604580116271972 L 107.2 15.6 L 107.34285717010498 15.3 L 107.6 14.7 L 107.6233654975891 14.710932445526122 L 108.2 13.5 L 118.5 19.8 L 120.3 22.9 L 116.4464485168457 23.29864330291748 L 115.8 24.4 L 112.8 28.9 L 111.26511631011962 30.9 L 167.7 30.9 L 173.7 25.9 L 184.7 34.9 L 179.7 37.9 L 179.46000003814697 38.0 L 179.3 41.2 L 178.8 48.6 L 178.2 55.3 L 177.4 61.3 L 176.6 66.7 L 175.6 71.4 L 174.5 75.6 L 173.2 79.2 L 171.5 82.3 L 169.2 85.1 L 167.4 86.6 Z M 30.3 69.2 L 28.9 66.1 L 27.2 63.2 L 25.4 60.3 L 23.3 57.4 L 21.0 54.6 L 18.4 51.7 L 15.7 48.9 L 12.5 46.2 L 13.4 44.7 L 17.3 46.4 L 21.1 48.1 L 24.7 50.1 L 28.1 52.4 L 29.04008436203003 53.163818550109866 L 30.0 51.1 L 34.0 42.7 L 42.0 26.3 L 47.26932401657105 14.929353427886962 L 47.2 14.9 L 48.2 13.0 L 58.3 19.6 L 60.0 22.8 L 56.17855577468872 22.994310760498045 L 55.8 23.6 L 53.2 27.5 L 50.6 31.3 L 47.9 35.1 L 45.1 38.9 L 42.2 42.5 L 39.3 46.2 L 36.2 49.7 L 32.9 53.1 L 31.134482765197752 54.86551723480225 L 31.3 55.0 L 34.2 57.7 L 36.9 60.7 L 39.4 63.9 L 41.6 67.3 L 43.6 70.9 L 43.5 75.5 L 40.2 78.7 L 35.7 78.6 L 32.4 75.4 L 31.4 72.2 Z " />
</g>
</svg>
