<svg xmlns="http://www.w3.org/2000/svg" xmlns:xlink="http://www.w3.org/1999/xlink" version="1.1" baseProfile="full" viewBox="0 0 200 200" width="200" height="200">
<g fill="black">
<path d="M 60.28478012084961 104.30744085311889 L 55.8 106.5 L 51.2 108.5 L 49.7 109.07446804046631 L 49.7 183.0 L 37.7 189.0 L 37.7 113.3061224937439 L 36.8 113.6 L 27.0 116.4 L 21.9 117.6 L 20.96030149459839 117.80268011093139 L 19.3 121.4 L 16.8 118.7 L 13.1 107.2 L 15.0 106.9 L 20.0 106.4 L 25.0 105.8 L 27.194051456451415 105.53134059906006 L 32.0 94.9 L 35.4 87.7 L 38.8 80.6 L 45.6 66.2 L 48.9 59.0 L 55.3 44.6 L 58.09070158004761 38.233712100982665 L 58.0 38.2 L 59.0 36.1 L 69.3 42.4 L 71.2 45.5 L 67.48418893814087 45.88439426422119 L 65.6 49.5 L 61.7 56.6 L 57.8 63.6 L 53.8 70.6 L 49.7 77.4 L 45.5 84.2 L 41.1 91.0 L 36.6 97.6 L 31.9 104.1 L 31.1875 105.0160714149475 L 39.7 103.8 L 44.5 103.0 L 49.4 102.2 L 54.2 101.4 L 59.1 100.7 L 59.527325534820555 100.64767446517945 L 58.8 97.9 L 57.8 94.6 L 56.7 91.4 L 54.3 85.2 L 52.9 82.1 L 51.2 79.3 L 52.5 78.1 L 55.2 80.3 L 57.9 82.6 L 60.4 85.2 L 62.7 88.1 L 64.9 91.2 L 66.9 94.5 L 68.7 98.0 L 70.4 101.8 L 71.9 105.7 L 73.3 109.7 L 72.4 114.2 L 68.7 116.9 L 64.2 116.0 L 61.6 112.3 L 61.1 108.5 Z M 145.9 38.6 L 150.5 36.1 L 154.9 33.7 L 159.0 31.5 L 162.7 29.4 L 166.2 27.3 L 169.4 25.3 L 172.2 23.3 L 174.7 21.4 L 176.175203704834 20.193015098571777 L 176.1 20.1 L 176.1790238380432 20.18988962173462 L 176.9 19.6 L 181.32863740921022 26.047575092315675 L 184.1 29.2 L 184.3 32.7 L 180.47708330154418 31.10132579803467 L 177.4 32.5 L 173.9 34.0 L 170.1 35.4 L 166.1 36.8 L 161.7 38.2 L 157.1 39.5 L 152.2 40.7 L 147.0 41.7 L 146.7 41.76000003814697 L 146.7 82.0 L 172.9181818008423 82.0 L 181.1 73.0 L 191.1 82.0 L 191.1 86.0 L 174.6 86.0 L 174.6 182.0 L 162.6 188.0 L 162.6 86.0 L 146.7 86.0 L 146.7 107.0 L 146.2 118.6 L 145.3 129.5 L 143.9 139.6 L 142.1 149.0 L 139.9 157.7 L 137.1 165.5 L 133.9 172.6 L 130.2 178.9 L 126.0 184.2 L 121.3 188.5 L 120.1 187.4 L 123.2 182.2 L 125.9 176.5 L 128.4 170.2 L 130.5 163.3 L 132.3 155.7 L 133.8 147.5 L 134.8 138.4 L 135.5 128.7 L 135.8 118.2 L 135.7 107.0 L 135.7 33.5 Z M 60.0 150.8 L 59.4 147.0 L 58.6 143.3 L 57.7 139.7 L 56.7 136.2 L 54.5 129.6 L 53.3 126.3 L 51.7 123.3 L 53.2 122.2 L 55.8 124.6 L 58.4 127.2 L 60.8 130.1 L 63.0 133.2 L 65.1 136.6 L 66.9 140.3 L 68.7 144.2 L 69.375 146.0 L 94.9 146.0 L 94.9 123.0 L 86.1 123.0 L 86.1 130.0 L 75.1 135.5 L 75.1 57.5 L 86.1 63.0 L 94.9 63.0 L 94.9 44.0 L 70.6 44.0 L 70.6 40.0 L 94.9 40.0 L 94.9 13.0 L 104.9 15.0 L 107.4 17.0 L 104.9 18.66666669845581 L 104.9 40.0 L 110.91818180084229 40.0 L 119.1 31.0 L 129.1 40.0 L 129.1 44.0 L 104.9 44.0 L 104.9 63.0 L 114.1 63.0 L 119.1 58.0 L 129.1 67.0 L 124.1 70.0 L 124.1 127.0 L 114.1 132.0 L 114.1 123.0 L 104.9 123.0 L 104.9 146.0 L 108.4 146.0 L 118.4 136.0 L 130.4 146.0 L 130.4 150.0 L 104.9 150.0 L 104.9 183.5 L 94.9 188.5 L 94.9 150.0 L 70.78604650497437 150.0 L 71.6 152.5 L 72.8 157.0 L 71.8 161.4 L 68.0 163.9 L 63.5 162.9 L 61.0 159.0 L 60.6 154.9 Z M 34.6 128.5 L 37.4 130.7 L 33.958415794372556 132.42079210281372 L 33.7 134.0 L 32.5 139.5 L 31.2 145.0 L 29.6 150.3 L 27.8 155.6 L 25.7 160.8 L 23.4 165.9 L 20.8 170.9 L 17.8 175.7 L 14.5 180.4 L 12.9 179.5 L 14.4 174.1 L 15.8 168.8 L 17.2 163.6 L 18.5 158.4 L 19.6 153.3 L 20.6 148.1 L 21.3 143.0 L 21.9 137.8 L 22.4 132.6 L 22.56151885986328 128.40050840377808 L 22.5 128.4 L 22.8 125.2 Z M 86.1 94.0 L 86.1 119.0 L 94.9 119.0 L 94.9 94.0 Z M 104.9 94.0 L 104.9 119.0 L 114.1 119.0 L 114.1 94.0 Z M 86.1 67.0 L 86.1 90.0 L 94.9 90.0 L 94.9 67.0 Z M 104.9 67.0 L 104.9 90.0 L 114.1 90.0 L 114.1 67.0 Z M 26.8 68.6 L 25.8 65.7 L 24.7 62.7 L 23.3 59.9 L 21.8 57.1 L 20.2 54.3 L 18.3 51.6 L 16.4 48.8 L 14.0 46.3 L 15.0 44.8 L 18.2 46.6 L 21.3 48.4 L 24.3 50.5 L 26.99506902694702 52.71380672454834 L 27.5 51.3 L 28.8 47.2 L 30.3 43.0 L 31.7 39.0 L 34.7 30.8 L 36.1 26.8 L 38.9 18.6 L 39.9763970375061 15.524579906463623 L 39.9 15.5 L 40.8 13.3 L 51.4 19.2 L 53.4 22.2 L 49.49455585479736 22.738681983947753 L 45.1 30.9 L 42.9 34.7 L 40.6 38.5 L 38.2 42.2 L 35.7 45.9 L 33.2 49.5 L 30.4 52.9 L 28.977777767181397 54.6777777671814 L 29.7 55.4 L 32.1 58.2 L 34.3 61.2 L 36.3 64.4 L 38.1 67.7 L 39.8 71.3 L 39.3 75.8 L 35.8 78.8 L 31.3 78.3 L 28.3 74.9 L 27.6 71.7 Z " />
</g>
</svg>
