<svg xmlns="http://www.w3.org/2000/svg" xmlns:xlink="http://www.w3.org/1999/xlink" version="1.1" baseProfile="full" viewBox="0 0 200 200" width="200" height="200">
<g fill="black">
<path d="M 168.7 182.5 L 166.3 180.5 L 163.4 178.4 L 160.0 176.4 L 156.3 174.3 L 152.1 172.3 L 147.5 170.2 L 142.6 168.0 L 137.2 165.9 L 137.6 164.1 L 143.4 164.8 L 148.9 165.5 L 154.1 166.5 L 158.9 167.6 L 163.3 168.9 L 167.4 170.4 L 171.2 172.0 L 174.8 173.8 L 178.0 175.7 L 180.9 177.9 L 182.5 182.1 L 180.8 186.4 L 176.6 188.1 L 172.3 186.3 L 170.8 184.4 Z M 121.2 170.1 L 121.5 173.7 L 117.74361162185669 172.23918228149415 L 114.5 174.0 L 110.7 175.9 L 106.6 177.8 L 102.2 179.6 L 97.5 181.3 L 92.4 183.0 L 87.0 184.7 L 81.2 186.1 L 75.0 187.4 L 74.4 185.7 L 79.9 182.7 L 85.0 179.8 L 89.8 177.1 L 94.3 174.6 L 98.5 172.1 L 102.3 169.7 L 105.7 167.3 L 108.8 165.0 L 111.4 162.8 L 112.96610031127929 161.37008228302003 L 112.9 161.3 L 113.8 160.6 Z M 36.2 128.6 L 39.0 130.9 L 35.50681819915771 132.48181819915771 L 35.2 134.2 L 33.9 139.7 L 32.4 145.1 L 30.6 150.5 L 28.6 155.8 L 26.2 161.0 L 23.6 166.1 L 20.7 171.0 L 17.5 175.8 L 13.8 180.4 L 12.3 179.5 L 14.1 174.0 L 15.9 168.7 L 17.6 163.5 L 19.1 158.3 L 20.5 153.1 L 21.7 148.0 L 22.6 142.8 L 23.4 137.7 L 23.9 132.5 L 24.14224729537964 128.3010474205017 L 24.1 128.3 L 24.17652177810669 127.70695648193359 L 24.2 127.3 L 24.228632068634035 127.30310182571411 L 24.5 125.2 Z M 67.2 151.0 L 66.4 147.2 L 65.4 143.5 L 64.3 139.9 L 63.1 136.4 L 61.8 133.0 L 58.8 126.4 L 57.0 123.3 L 58.3 122.1 L 61.2 124.4 L 64.1 127.0 L 66.8 129.9 L 69.3 133.0 L 71.6 136.4 L 73.7 140.1 L 75.6 144.0 L 77.3 148.0 L 78.9 152.3 L 80.2 156.8 L 79.3 161.3 L 75.5 163.9 L 71.1 163.0 L 68.5 159.2 L 67.9 155.0 Z M 103.5 140.2 L 103.5 153.4 L 156.5 153.4 L 156.5 140.2 Z M 103.5 123.1 L 103.5 136.2 L 156.5 136.2 L 156.5 123.1 Z M 103.5 105.9 L 103.5 119.1 L 156.5 119.1 L 156.5 105.9 Z M 166.7 96.6 L 161.5 93.4 L 156.5 89.8 L 151.7 85.9 L 147.1 81.7 L 142.8 77.1 L 138.8 72.3 L 136.0 68.28918914794922 L 136.0 93.0 L 124.0 99.0 L 124.0 74.17735853195191 L 119.3 78.7 L 113.7 83.4 L 107.9 87.8 L 101.9 91.8 L 95.7 95.4 L 93.13999996185302 96.71999998092652 L 103.5 101.9 L 156.5 101.9 L 162.5 96.9 L 173.5 105.9 L 168.5 109.9 L 168.5 157.4 L 156.5 163.4 L 156.5 157.4 L 103.5 157.4 L 91.5 163.4 L 91.5 97.565625 L 89.3 98.7 L 82.6 101.5 L 78.16541357040406 102.97819547653198 L 79.2 105.5 L 80.8 109.6 L 80.0 114.1 L 76.4 116.9 L 71.9 116.1 L 69.1 112.5 L 68.5 108.7 L 67.7 105.1 L 67.36059446334839 103.87813997268677 L 66.5 104.3 L 61.3 106.6 L 55.9 108.6 L 53.6 109.36666669845582 L 53.6 183.0 L 41.6 189.0 L 41.6 112.9839285850525 L 33.7 115.1 L 27.9 116.4 L 22.1 117.6 L 20.34419012069702 117.9571138381958 L 18.6 121.5 L 16.2 118.8 L 12.7 107.1 L 14.7 106.9 L 20.5 106.4 L 28.767685222625733 105.52971735000611 L 34.5 94.8 L 38.6 87.6 L 46.6 73.2 L 54.4 58.8 L 58.2 51.5 L 61.9 44.3 L 65.17711067199707 37.83434925079346 L 65.1 37.8 L 66.1 36.0 L 76.1 42.7 L 77.8 45.9 L 74.13222608566284 46.026474952697754 L 71.9 49.8 L 67.5 56.9 L 63.0 63.9 L 58.5 70.8 L 53.8 77.7 L 49.0 84.4 L 44.1 91.2 L 39.0 97.8 L 33.7 104.2 L 32.93830318450928 105.07248907089233 L 37.6 104.5 L 43.2 103.8 L 48.8 103.0 L 54.3 102.2 L 59.9 101.4 L 65.5 100.7 L 66.43523426055908 100.59979629516602 L 65.7 98.1 L 64.5 94.8 L 61.7 88.4 L 60.1 85.3 L 58.4 82.2 L 56.3 79.3 L 57.6 78.0 L 63.6 82.4 L 66.4 85.0 L 69.0 87.9 L 71.4 91.0 L 73.6 94.3 L 75.7 97.8 L 77.12848100662231 100.65696201324462 L 80.9 98.1 L 86.6 94.1 L 92.1 89.9 L 97.5 85.6 L 102.6 81.1 L 107.5 76.4 L 112.2 71.5 L 116.8 66.4 L 121.1 61.0 L 124.0 56.96829271316528 L 124.0 44.0 L 99.6 44.0 L 99.6 71.0 L 87.6 77.0 L 87.6 34.0 L 99.6 40.0 L 124.0 40.0 L 124.0 30.0 L 76.0 30.0 L 76.0 26.0 L 124.0 26.0 L 124.0 12.0 L 136.0 14.0 L 139.0 16.0 L 136.0 17.8 L 136.0 26.0 L 161.9 26.0 L 171.9 16.0 L 183.9 26.0 L 183.9 30.0 L 136.0 30.0 L 136.0 40.0 L 160.4 40.0 L 166.4 35.0 L 177.4 44.0 L 172.4 48.0 L 172.4 67.0 L 160.4 73.0 L 160.4 44.0 L 136.0 44.0 L 136.0 62.439999961853026 L 138.2 64.2 L 143.0 68.2 L 147.7 71.8 L 152.5 75.3 L 157.3 78.4 L 162.1 81.2 L 167.0 83.8 L 172.0 86.1 L 177.1 88.1 L 182.3 89.8 L 189.3 92.3 L 177.7 102.1 L 172.1 99.5 Z M 29.0 68.9 L 27.7 65.9 L 26.3 63.0 L 24.7 60.1 L 22.9 57.3 L 20.9 54.5 L 18.6 51.7 L 16.2 48.8 L 13.4 46.2 L 14.4 44.7 L 17.9 46.5 L 21.5 48.2 L 24.8 50.3 L 27.9 52.6 L 28.382177066802978 53.01566982269287 L 29.1 51.2 L 30.8 47.0 L 34.4 38.8 L 36.1 34.7 L 37.9 30.6 L 43.0 18.3 L 44.23478260040283 15.21304349899292 L 44.2 15.2 L 44.45 14.675 L 44.6 14.3 L 44.62332611083984 14.311015129089355 L 45.2 13.1 L 55.4 19.4 L 57.3 22.5 L 53.47751369476318 22.895429611206055 L 53.2 23.4 L 50.8 27.3 L 48.4 31.1 L 45.9 34.9 L 43.3 38.7 L 40.7 42.4 L 35.1 49.6 L 32.0 53.1 L 30.424942302703858 54.776674365997316 L 30.8 55.1 L 33.5 57.9 L 36.0 60.9 L 38.3 64.1 L 40.3 67.5 L 42.1 71.1 L 41.9 75.7 L 38.5 78.8 L 34.0 78.5 L 30.8 75.2 L 30.0 72.0 Z " />
</g>
</svg>
