<svg xmlns="http://www.w3.org/2000/svg" xmlns:xlink="http://www.w3.org/1999/xlink" version="1.1" baseProfile="full" viewBox="0 0 200 200" width="200" height="200">
<g fill="black">
<path d="M 134.0 176.0 L 154.0 176.0 L 155.2 175.9 L 156.1 175.7 L 157.0 175.4 L 157.4 175.0 L 157.7 174.1 L 157.9 173.2 L 158.0 172.0 L 158.0 118.0 L 87.0 118.0 L 87.0 114.81142854690552 L 84.6 116.8 L 80.1 116.3 L 77.2 112.7 L 76.4 109.0 L 75.4 105.3 L 74.87175674438477 103.61922588348389 L 73.1 104.4 L 67.0 106.6 L 60.8 108.6 L 57.4 109.57142858505249 L 57.4 183.0 L 45.4 189.0 L 45.4 112.76461534500122 L 41.6 113.7 L 35.0 115.1 L 28.4 116.4 L 21.7 117.7 L 18.928177452087404 118.14838304519654 L 17.2 121.5 L 14.9 118.8 L 11.6 107.1 L 13.5 106.9 L 20.2 106.4 L 26.9 105.8 L 29.9078125 105.5265625 L 32.1 102.0 L 36.8 94.6 L 41.6 87.4 L 46.3 80.2 L 50.9 72.9 L 60.1 58.5 L 68.9 43.9 L 73.2 36.6 L 73.22142553329468 36.613576602935794 L 73.7 35.8 L 83.3 43.0 L 84.8 46.3 L 81.11200189590454 46.23641386032104 L 78.5 50.1 L 73.5 57.1 L 68.4 64.1 L 63.2 71.0 L 57.8 77.9 L 52.4 84.6 L 46.8 91.3 L 41.1 97.9 L 35.1 104.3 L 34.28448276519775 105.11551723480224 L 40.0 104.5 L 46.5 103.7 L 53.0 103.0 L 65.8 101.4 L 72.2 100.7 L 73.82129545211792 100.54800357818604 L 73.0 98.4 L 71.5 95.0 L 69.9 91.8 L 68.1 88.6 L 66.1 85.4 L 64.0 82.3 L 61.6 79.3 L 62.7 77.9 L 66.1 80.0 L 69.5 82.3 L 72.6 84.8 L 75.5 87.7 L 78.2 90.7 L 80.7 94.1 L 83.0 97.6 L 85.1 101.3 L 87.0 105.3 L 88.7 109.4 L 88.1 113.9 L 87.97931032180786 114.0 L 166.0 114.0 L 176.0 104.0 L 188.0 114.0 L 188.0 118.0 L 170.0 118.0 L 170.0 172.0 L 169.8 174.5 L 169.4 177.0 L 168.6 179.4 L 167.3 181.7 L 165.7 183.7 L 163.7 185.3 L 161.4 186.6 L 159.0 187.4 L 156.5 187.8 L 154.0 188.0 L 154.0 182.0 L 134.0 179.0 Z M 37.3 128.6 L 40.1 131.0 L 36.524374294281 132.6191512107849 L 36.2 134.3 L 34.8 139.8 L 33.1 145.3 L 31.1 150.7 L 28.8 156.0 L 26.2 161.1 L 23.3 166.2 L 20.0 171.2 L 16.4 175.9 L 12.3 180.4 L 10.8 179.5 L 13.1 173.9 L 15.3 168.6 L 17.4 163.3 L 19.2 158.1 L 20.9 152.9 L 22.2 147.8 L 23.4 142.6 L 24.3 137.5 L 25.0 132.4 L 25.323017883300782 128.20076723098754 L 25.3 128.2 L 25.354545497894286 127.79090909957885 L 25.4 127.2 L 25.432818508148195 127.2038610458374 L 25.7 125.2 Z M 112.0 130.0 L 130.0 130.0 L 136.0 125.0 L 147.0 134.0 L 142.0 138.0 L 142.0 162.0 L 130.0 168.0 L 130.0 158.0 L 112.0 158.0 L 112.0 165.0 L 100.0 171.0 L 100.0 124.0 Z M 74.9 151.3 L 73.8 147.4 L 72.7 143.7 L 71.3 140.1 L 69.9 136.6 L 68.2 133.2 L 66.4 129.8 L 64.5 126.5 L 62.3 123.3 L 63.5 122.0 L 66.8 124.3 L 70.1 126.8 L 73.1 129.7 L 75.8 132.8 L 78.4 136.2 L 80.8 139.9 L 82.9 143.7 L 84.8 147.8 L 86.6 152.2 L 88.1 156.7 L 87.3 161.2 L 83.6 163.9 L 79.1 163.1 L 76.4 159.4 L 75.7 155.2 Z M 112.0 134.0 L 112.0 154.0 L 130.0 154.0 L 130.0 134.0 Z M 157.4 102.6 L 154.8 100.6 L 152.1 98.6 L 149.2 96.6 L 146.1 94.7 L 142.7 92.8 L 139.3 90.8 L 135.6 88.8 L 134.0173913002014 88.11014490127563 L 132.6 90.0 L 127.6 95.0 L 121.9 99.4 L 115.3 103.2 L 108.1 106.4 L 100.0 108.9 L 91.2 110.8 L 90.7 109.1 L 98.7 105.4 L 105.8 101.5 L 112.0 97.5 L 117.3 93.3 L 121.7 88.9 L 125.3 84.3 L 126.59375 82.0 L 92.0 82.0 L 92.0 78.0 L 128.58823528289795 78.0 L 130.0 74.4 L 131.3 69.1 L 131.86000003814698 63.78000001907348 L 132.1 61.3 L 143.8 64.5 L 146.7 66.7 L 143.00917921066284 68.51059131622314 L 142.4 71.6 L 140.2029850959778 78.0 L 158.0 78.0 L 168.0 68.0 L 180.0 78.0 L 180.0 82.0 L 138.0983606338501 82.0 L 136.8 84.4 L 135.6979274749756 85.86943006515503 L 136.5 86.0 L 140.7 86.5 L 144.8 87.3 L 148.8 88.3 L 152.5 89.5 L 156.2 90.8 L 159.7 92.2 L 163.1 93.8 L 166.3 95.5 L 169.4 97.4 L 171.5 101.4 L 170.3 105.8 L 166.3 108.0 L 161.9 106.8 L 159.7 104.7 Z M 30.8 69.3 L 29.3 66.2 L 27.6 63.3 L 25.6 60.4 L 23.4 57.5 L 21.0 54.6 L 18.3 51.8 L 15.3 48.9 L 12.0 46.2 L 12.9 44.6 L 20.9 48.0 L 24.6 50.1 L 28.1 52.4 L 29.279676914215088 53.29369459152222 L 30.3 51.1 L 32.4 46.8 L 34.6 42.7 L 36.7 38.5 L 38.9 34.4 L 41.0 30.3 L 43.0 26.2 L 45.1 22.1 L 47.1 18.0 L 48.56873741149902 14.83061933517456 L 48.5 14.8 L 49.5 12.9 L 59.5 19.7 L 61.2 22.9 L 57.33483533859253 23.031022548675537 L 56.9 23.7 L 54.3 27.5 L 51.5 31.4 L 48.7 35.2 L 45.9 38.9 L 42.9 42.6 L 39.8 46.2 L 36.6 49.8 L 33.2 53.2 L 31.398319721221924 54.898727130889895 L 31.4 54.9 L 34.4 57.7 L 37.2 60.7 L 39.8 63.9 L 42.1 67.3 L 44.2 70.9 L 44.1 75.4 L 40.9 78.7 L 36.4 78.7 L 33.1 75.5 L 32.1 72.3 Z M 157.3 58.1 L 154.7 56.0 L 152.0 53.9 L 149.1 51.8 L 146.0 49.8 L 142.7 47.8 L 139.2 45.9 L 135.6 43.9 L 134.04732398986818 43.18338031768799 L 132.8 45.1 L 127.8 50.8 L 122.0 55.8 L 115.5 60.1 L 108.2 63.8 L 100.1 66.7 L 91.2 68.8 L 90.7 67.1 L 98.6 63.2 L 105.7 59.0 L 111.8 54.7 L 117.1 50.0 L 121.5 45.1 L 125.1 39.9 L 127.59454545974731 35.0 L 92.0 35.0 L 92.0 31.0 L 129.110169506073 31.0 L 130.0 28.5 L 131.3 22.2 L 131.81045551300048 16.499913597106932 L 131.8 16.5 L 132.1 13.3 L 143.9 16.4 L 146.7 18.6 L 143.2095890045166 20.3452054977417 L 142.5 24.4 L 140.3880000114441 31.0 L 158.0 31.0 L 168.0 21.0 L 180.0 31.0 L 180.0 35.0 L 138.66231880187988 35.0 L 136.9 38.8 L 135.56708946228028 40.848130798339845 L 136.5 41.0 L 140.8 41.6 L 144.9 42.4 L 148.8 43.5 L 152.6 44.7 L 156.3 46.1 L 159.9 47.7 L 163.2 49.5 L 166.5 51.4 L 169.6 53.5 L 171.6 57.6 L 170.2 61.9 L 166.1 63.9 L 161.8 62.5 L 159.6 60.3 Z " />
</g>
</svg>
