<svg xmlns="http://www.w3.org/2000/svg" xmlns:xlink="http://www.w3.org/1999/xlink" version="1.1" baseProfile="full" viewBox="0 0 200 200" width="200" height="200">
<g fill="black">
<path d="M 49.9 184.0 L 37.9 190.0 L 37.9 136.9 L 49.9 138.9 L 52.9 140.9 L 49.9 142.7 L 49.9 173.0 L 94.0 173.0 L 94.0 123.1 L 106.0 125.1 L 109.0 127.1 L 106.0 128.9 L 106.0 173.0 L 150.1 173.0 L 150.1 136.9 L 162.1 138.9 L 165.1 140.9 L 162.1 142.7 L 162.1 181.0 L 150.1 187.0 L 150.1 177.0 L 49.9 177.0 Z M 162.3 127.6 L 155.4 124.3 L 148.9 120.7 L 142.8 116.9 L 137.1 112.8 L 131.8 108.4 L 126.9 103.8 L 122.6 98.7 L 119.46666669845581 94.0 L 90.91290321350098 94.0 L 89.4 96.1 L 81.6 104.6 L 72.8 112.2 L 63.0 118.9 L 52.3 124.8 L 40.6 129.8 L 27.8 133.8 L 14.2 136.8 L 13.7 135.1 L 26.6 130.2 L 38.4 124.8 L 49.2 119.0 L 58.8 112.6 L 67.4 105.7 L 74.9 98.1 L 78.19012346267701 94.0 L 20.0 94.0 L 20.0 90.0 L 81.4 90.0 L 86.9 81.3 L 91.4 72.0 L 91.9515151977539 70.42424240112305 L 81.0 75.9 L 81.0 22.1 L 69.46666669845581 22.1 L 73.77934188842774 28.287751388549804 L 75.9 30.7 L 76.0 34.2 L 72.35480060577393 32.64741506576538 L 71.7 33.0 L 67.6 35.1 L 63.1 37.1 L 58.3 39.1 L 53.2 41.0 L 47.7 42.8 L 41.9 44.5 L 35.7 46.1 L 29.2 47.5 L 22.2 48.7 L 21.7 47.0 L 28.0 43.9 L 33.9 41.0 L 39.6 38.4 L 44.9 35.7 L 49.8 33.2 L 54.4 30.7 L 58.5 28.2 L 62.3 25.8 L 65.7 23.4 L 67.325 22.1 L 21.0 22.1 L 21.0 18.1 L 81.0 18.1 L 87.0 13.1 L 98.0 22.1 L 93.0 26.1 L 93.0 67.42857141494751 L 94.9 62.0 L 94.91807231903076 62.006024074554446 L 95.4 60.5 L 106.3 65.8 L 108.6 68.6 L 104.78480806350709 69.47013149261474 L 101.8 76.7 L 96.1 86.8 L 93.79462366104126 90.0 L 158.0 90.0 L 168.0 80.0 L 180.0 90.0 L 180.0 94.0 L 123.04444446563721 94.0 L 125.5 95.7 L 130.7 99.2 L 136.1 102.6 L 141.6 105.8 L 147.5 108.8 L 153.5 111.6 L 159.9 114.2 L 166.6 116.6 L 173.5 118.7 L 180.8 120.6 L 188.8 122.9 L 177.1 133.3 L 169.5 130.6 Z M 135.8 116.0 L 135.8 120.0 L 72.1 120.0 L 72.1 116.0 L 113.8 116.0 L 123.8 106.0 Z M 182.0 22.1 L 177.0 26.1 L 177.0 69.9 L 165.0 75.9 L 165.0 22.1 L 154.5920000076294 22.1 L 157.21633701324464 26.07626829147339 L 161.2 30.4 L 161.3 33.9 L 157.72904605865477 32.40669193267822 L 156.5 33.1 L 152.2 35.1 L 147.7 37.1 L 142.8 39.1 L 137.7 41.0 L 132.2 42.8 L 126.5 44.5 L 120.4 46.1 L 114.0 47.5 L 107.2 48.7 L 106.7 47.0 L 112.8 43.9 L 118.6 41.0 L 124.2 38.4 L 129.4 35.7 L 134.3 33.2 L 138.9 30.7 L 143.1 28.2 L 147.0 25.7 L 150.6 23.3 L 152.2 22.1 L 105.0 22.1 L 105.0 18.1 L 165.0 18.1 L 171.0 13.1 Z M 160.68603458404542 49.28161430358887 L 162.9 51.8 L 163.0 55.3 L 159.41969366073607 53.77505474090576 L 158.3 54.4 L 153.8 56.8 L 149.0 59.0 L 143.8 61.2 L 138.2 63.4 L 132.4 65.5 L 126.2 67.5 L 119.6 69.3 L 112.6 71.0 L 105.2 72.4 L 104.7 70.7 L 111.3 67.4 L 117.7 64.3 L 123.7 61.3 L 129.4 58.5 L 134.7 55.7 L 139.7 52.9 L 144.3 50.2 L 148.5 47.4 L 152.3 44.8 L 154.95666151046754 42.76843528747558 L 154.9 42.7 L 154.9587553024292 42.76683416366577 L 155.7 42.2 Z M 77.68603458404542 49.28161430358887 L 79.9 51.8 L 80.0 55.3 L 76.42883291244507 53.77894735336304 L 75.5 54.3 L 71.1 56.6 L 66.3 58.8 L 61.1 60.9 L 55.5 63.1 L 49.5 65.2 L 43.1 67.2 L 36.2 69.1 L 29.0 70.9 L 21.2 72.4 L 20.7 70.7 L 27.7 67.3 L 34.4 64.1 L 40.7 61.1 L 46.6 58.1 L 52.0 55.3 L 57.0 52.6 L 61.6 49.9 L 65.8 47.2 L 69.5 44.7 L 71.96284427642823 42.77590284347534 L 71.9 42.7 L 71.96514654159546 42.7741042137146 L 72.7 42.2 Z " />
</g>
</svg>
