<svg xmlns="http://www.w3.org/2000/svg" xmlns:xlink="http://www.w3.org/1999/xlink" version="1.1" baseProfile="full" viewBox="0 0 200 200" width="200" height="200">
<g fill="black">
<path d="M 113.4 92.8 L 110.6 90.4 L 108.35912408828736 88.60729923248292 L 103.8 91.9 L 98.1 95.3 L 92.2 98.1 L 86.0 100.2 L 79.5 101.7 L 78.0 101.85909090042114 L 78.0 104.0 L 46.32307691574097 104.0 L 51.4 105.1 L 54.3 107.2 L 51.09349145889282 109.02330875396729 L 50.4 117.9 L 48.8 129.8 L 48.555555534362796 131.0 L 54.2 131.0 L 64.2 121.0 L 76.2 131.0 L 76.2 135.0 L 48.1222222328186 135.0 L 49.1 135.8 L 52.3 138.5 L 55.3 141.4 L 58.2 144.5 L 60.9 147.8 L 63.5 151.2 L 65.9 154.7 L 68.2 158.3 L 70.4 162.0 L 72.4 165.9 L 72.4 170.5 L 69.2 173.7 L 64.6 173.7 L 61.3 170.5 L 60.1 166.7 L 57.3 159.3 L 54.1 152.1 L 52.3 148.5 L 50.5 145.0 L 48.6 141.4 L 47.01734418869019 138.55121955871581 L 46.6 140.6 L 43.8 150.6 L 40.3 159.5 L 36.1 167.4 L 31.4 174.3 L 25.9 180.1 L 19.8 184.6 L 13.2 187.7 L 12.4 186.2 L 17.5 181.6 L 22.0 176.4 L 26.0 170.5 L 29.4 163.9 L 32.4 156.4 L 34.8 148.0 L 36.8 138.6 L 37.289320373535155 135.0 L 15.5 135.0 L 15.5 131.0 L 37.83300971984863 131.0 L 38.2 128.3 L 39.0 117.0 L 39.367340850830075 105.79610424041748 L 39.3 105.8 L 39.354545497894286 104.0 L 13.7 104.0 L 13.7 100.0 L 39.4 100.0 L 39.4 78.0 L 22.8 78.0 L 22.8 74.0 L 39.4 74.0 L 39.4 52.0 L 17.3 52.0 L 17.3 48.0 L 34.553846168518064 48.0 L 33.2 47.6 L 31.0 43.6 L 31.1 41.0 L 31.1 38.4 L 31.0 35.9 L 30.8 33.3 L 30.6 30.8 L 30.3 28.3 L 29.9 25.8 L 29.4 23.2 L 28.9 20.7 L 27.9 18.3 L 29.5 17.3 L 31.1 19.5 L 33.0 21.5 L 34.7 23.7 L 37.7 28.5 L 39.0 31.1 L 41.2 36.5 L 42.1 39.4 L 42.9 42.3 L 41.5 46.7 L 39.19545450210571 48.0 L 50.31999998092651 48.0 L 50.7 46.1 L 51.2 42.5 L 51.8 39.0 L 53.0 32.2 L 53.5 28.9 L 54.1 25.7 L 54.6 22.5 L 55.453167247772214 17.210363101959228 L 55.4 17.2 L 55.53678159713745 16.691954040527342 L 55.6 16.3 L 55.63938274383545 16.310864162445068 L 56.1 14.6 L 67.2 19.5 L 69.5 22.3 L 65.52531986236572 23.364646434783936 L 64.6 25.5 L 63.2 28.5 L 61.8 31.6 L 60.3 34.7 L 58.7 37.7 L 57.1 40.9 L 55.3 44.0 L 53.4 47.1 L 52.921875 48.0 L 59.1777777671814 48.0 L 65.4 41.0 L 73.4 48.0 L 73.4 52.0 L 51.4 52.0 L 51.4 74.0 L 54.6777777671814 74.0 L 60.9 67.0 L 68.9 74.0 L 68.9 78.0 L 51.4 78.0 L 51.4 100.0 L 56.0 100.0 L 66.0 90.0 L 76.56851444244384 98.80709533691406 L 78.4 98.0 L 84.0 95.2 L 89.2 92.2 L 94.1 88.9 L 98.7 85.2 L 100.7289855003357 83.21932363510132 L 100.7 83.2 L 96.8 80.8 L 92.7 78.3 L 88.3 75.8 L 83.7 73.2 L 84.2 71.5 L 89.5 72.6 L 94.6 73.8 L 99.4 75.2 L 103.9 76.7 L 106.10684289932252 77.57247276306153 L 106.9 76.7 L 110.6 71.9 L 114.0 66.6 L 114.3875 65.9 L 79.8 65.9 L 79.8 61.9 L 116.4 61.9 L 116.77458562850953 61.58784532546997 L 117.1 61.0 L 117.3269624710083 61.12753124237061 L 122.4 56.9 L 133.4 65.9 L 128.4 68.9 L 125.34712648391724 70.17203063964844 L 123.4 73.0 L 119.0 78.5 L 115.60307693481445 82.0384614944458 L 116.1 82.3 L 119.7 84.4 L 123.1 86.6 L 126.3 89.0 L 128.1 93.2 L 126.5 97.5 L 122.3 99.3 L 118.0 97.7 L 115.8 95.3 Z M 74.0 178.7 L 94.4 178.7 L 94.4 115.0 L 106.4 121.0 L 152.5 121.0 L 158.5 116.0 L 165.1 121.4 L 164.9 121.2 L 166.5 119.3 L 167.6 117.0 L 168.7 114.9 L 169.7 113.0 L 170.6 111.1 L 171.4 109.4 L 171.605882358551 108.9 L 86.98620691299439 108.9 L 87.1 110.0 L 87.1 112.7 L 86.9 115.4 L 86.5 117.9 L 85.6 120.3 L 84.4 122.7 L 82.8 124.8 L 80.8 126.6 L 76.2 127.1 L 72.6 124.2 L 72.2 119.7 L 75.0 116.1 L 75.9 116.0 L 76.9 115.8 L 77.9 115.2 L 79.0 114.3 L 80.1 113.0 L 81.1 111.3 L 82.1 109.2 L 83.0 106.8 L 83.9 104.0 L 84.1 101.0 L 85.9 100.9 L 86.1 104.1 L 86.28666667938232 104.9 L 172.5 104.9 L 173.3380952835083 104.20158729553222 L 173.5 103.5 L 173.87275743484497 103.7560354232788 L 176.87942123413086 101.25048227310181 L 175.4 100.7 L 172.5 97.7 L 169.5 94.8 L 166.2 91.9 L 162.7 89.2 L 160.5805435180664 87.59608697891235 L 157.6 89.7 L 152.1 92.8 L 146.4 95.3 L 140.2 97.3 L 133.8 98.6 L 127.1 99.3 L 126.7 97.6 L 132.7 95.0 L 138.3 92.3 L 143.5 89.4 L 148.2 86.3 L 152.6 82.8 L 152.9297511100769 82.48715925216675 L 150.9 81.2 L 146.5 78.6 L 142.0 75.9 L 137.2 73.2 L 137.8 71.5 L 143.3 72.5 L 148.6 73.7 L 153.6 75.3 L 158.34969329833984 77.04478530883789 L 160.1 75.1 L 163.3 70.8 L 166.1 66.2 L 166.25 65.9 L 134.0 65.9 L 134.0 61.9 L 168.0 61.9 L 168.4285714149475 61.54285717010498 L 168.6 61.2 L 168.7484393119812 61.27630062103272 L 174.0 56.9 L 185.0 65.9 L 180.0 68.9 L 177.11219511032104 70.10325202941894 L 175.7 72.3 L 171.8 77.4 L 167.90613050460814 81.47086353302002 L 171.9 83.7 L 176.0 86.3 L 180.0 89.1 L 183.7 92.0 L 185.5 96.2 L 183.9 100.5 L 180.8375 101.8125 L 189.5 108.9 L 184.5 111.9 L 177.23898305892945 114.92542371749877 L 176.0 115.8 L 174.2 117.0 L 172.3 118.2 L 170.3 119.5 L 168.1 120.8 L 166.31675977706908 122.3955307006836 L 169.5 125.0 L 164.5 129.0 L 164.5 178.7 L 166.71818180084227 178.7 L 174.9 169.7 L 184.9 178.7 L 184.9 182.7 L 74.0 182.7 Z M 106.4 163.0 L 106.4 178.7 L 152.5 178.7 L 152.5 163.0 Z M 106.4 144.0 L 106.4 159.0 L 152.5 159.0 L 152.5 144.0 Z M 106.4 125.0 L 106.4 140.0 L 152.5 140.0 L 152.5 125.0 Z M 150.6 49.8 L 146.8 46.9 L 142.3 44.0 L 138.72524576187135 41.99813756942749 L 132.3 45.3 L 124.6 48.8 L 116.3 51.9 L 107.6 54.6 L 98.3 56.9 L 88.4 58.7 L 87.9 57.0 L 97.1 53.3 L 105.8 49.6 L 113.8 45.8 L 121.3 41.9 L 128.2 37.9 L 129.1458127975464 37.26945810317993 L 125.6 35.7 L 118.8 33.0 L 111.6 30.3 L 103.8 27.5 L 104.2 25.7 L 112.5 26.6 L 120.3 27.9 L 127.6 29.5 L 134.4 31.3 L 136.67580642700196 32.05860214233398 L 140.2 29.4 L 145.4 24.9 L 148.84680852890014 21.3 L 94.0 21.3 L 94.0 17.3 L 152.3166666984558 17.3 L 153.9 15.4 L 154.33904552459717 15.767462062835694 L 158.5 12.3 L 169.5 21.3 L 164.5 24.3 L 160.04285717010498 26.15714282989502 L 158.0 28.2 L 152.3 33.0 L 147.7616623878479 36.347953987121585 L 151.9 38.3 L 156.8 41.1 L 161.3 44.1 L 165.3 47.5 L 166.9 51.8 L 165.1 56.0 L 160.8 57.6 L 156.6 55.8 L 153.9 52.8 Z " />
</g>
</svg>
