<svg xmlns="http://www.w3.org/2000/svg" xmlns:xlink="http://www.w3.org/1999/xlink" version="1.1" baseProfile="full" viewBox="0 0 200 200" width="200" height="200">
<g fill="black">
<path d="M 58.0 176.2 L 78.0 176.2 L 79.2 176.1 L 80.1 175.9 L 81.0 175.6 L 81.4 175.2 L 81.7 174.3 L 81.9 173.4 L 82.0 172.2 L 82.0 129.8 L 61.80804595947266 129.8 L 68.5 136.9 L 69.2 140.5 L 65.35155277252197 139.5378882408142 L 64.8 140.0 L 60.9 143.0 L 56.7 145.8 L 52.1 148.6 L 47.3 151.3 L 42.1 153.9 L 36.7 156.3 L 30.9 158.6 L 24.8 160.7 L 18.3 162.6 L 17.6 160.9 L 23.2 157.3 L 28.5 153.8 L 33.6 150.5 L 38.3 147.3 L 42.8 144.1 L 46.9 140.9 L 50.7 137.8 L 54.1 134.7 L 57.2 131.6 L 58.82580642700195 129.8 L 22.0 129.8 L 22.0 125.8 L 82.0 125.8 L 88.0 120.8 L 99.0 129.8 L 94.0 133.8 L 94.0 172.2 L 93.8 174.7 L 93.4 177.2 L 92.6 179.6 L 91.3 181.9 L 89.7 183.9 L 87.7 185.5 L 85.4 186.8 L 83.0 187.6 L 80.5 188.0 L 78.0 188.2 L 78.0 182.2 L 58.0 179.2 Z M 146.0 176.2 L 162.0 176.2 L 163.2 176.1 L 164.1 175.9 L 165.0 175.6 L 165.4 175.2 L 165.7 174.3 L 165.9 173.4 L 166.0 172.2 L 166.0 129.8 L 145.80804595947265 129.8 L 152.5 136.9 L 153.2 140.5 L 149.35155277252198 139.5378882408142 L 148.8 140.0 L 144.9 143.0 L 140.7 145.8 L 136.1 148.6 L 131.3 151.3 L 126.1 153.9 L 120.7 156.3 L 114.9 158.6 L 108.8 160.7 L 102.3 162.6 L 101.6 160.9 L 107.2 157.3 L 112.5 153.8 L 117.6 150.5 L 122.3 147.3 L 126.8 144.1 L 130.9 140.9 L 134.7 137.8 L 138.1 134.7 L 141.2 131.6 L 142.82580642700196 129.8 L 107.0 129.8 L 107.0 125.8 L 166.0 125.8 L 172.0 120.8 L 183.0 129.8 L 178.0 133.8 L 178.0 172.2 L 177.8 174.7 L 177.4 177.2 L 176.6 179.6 L 175.3 181.9 L 173.7 183.9 L 171.7 185.5 L 169.4 186.8 L 167.0 187.6 L 164.5 188.0 L 162.0 188.2 L 162.0 182.2 L 146.0 179.2 Z M 164.9 156.0 L 165.3 159.6 L 161.5956521987915 158.25296440124512 L 160.5 159.0 L 155.7 162.0 L 150.6 164.9 L 145.1 167.7 L 139.3 170.5 L 133.1 173.3 L 126.5 175.9 L 119.5 178.5 L 112.1 180.8 L 104.3 183.0 L 103.6 181.3 L 110.6 177.3 L 117.3 173.6 L 123.7 170.0 L 129.6 166.5 L 135.2 163.1 L 140.5 159.7 L 145.3 156.4 L 149.7 153.1 L 153.8 149.8 L 156.64655561447142 147.34879932403564 L 156.6 147.3 L 157.5 146.6 Z M 80.9 156.0 L 81.3 159.6 L 77.5956521987915 158.25296440124512 L 76.5 159.0 L 71.7 162.0 L 66.6 164.9 L 61.1 167.7 L 55.3 170.5 L 49.1 173.3 L 42.5 175.9 L 35.5 178.5 L 28.1 180.8 L 20.3 183.0 L 19.6 181.3 L 26.6 177.3 L 33.3 173.6 L 39.7 170.0 L 45.6 166.5 L 51.2 163.1 L 56.5 159.7 L 61.3 156.4 L 65.7 153.1 L 69.8 149.8 L 72.64655561447144 147.34879932403564 L 72.6 147.3 L 73.5 146.6 Z M 139.0 114.0 L 137.1 115.4 L 135.0 116.6 L 132.9 117.6 L 130.7 118.4 L 128.4 119.1 L 126.1 119.6 L 123.7 119.8 L 121.3 119.9 L 121.3 113.9 L 101.3 110.9 L 101.3 107.9 L 122.8 107.9 L 124.3 107.7 L 126.9 107.1 L 128.1 106.6 L 129.3 106.0 L 130.5 105.3 L 131.6 104.5 L 132.7 103.6 L 133.8 102.5 L 134.3 101.9 L 134.8 100.9 L 135.4 99.4 L 135.9 97.6 L 136.4 95.3 L 136.8 92.6 L 137.0 89.6 L 137.1 87.85 L 137.1 80.0 L 91.83013696670533 80.0 L 90.7 85.5 L 87.5 92.1 L 82.8 97.9 L 76.8 102.8 L 69.5 107.0 L 61.1 110.4 L 51.6 113.3 L 40.8 115.5 L 28.9 117.1 L 15.8 117.9 L 15.6 116.1 L 28.3 113.3 L 39.6 110.3 L 49.6 107.0 L 58.3 103.4 L 65.4 99.5 L 71.2 95.4 L 75.4 91.1 L 78.2 86.7 L 79.8 82.3 L 80.0 80.0 L 45.1 80.0 L 45.1 76.0 L 137.1 76.0 L 143.1 71.0 L 154.1 80.0 L 149.2 82.93999996185303 L 149.2 86.4 L 149.0 90.3 L 148.7 93.9 L 148.2 97.3 L 147.6 100.5 L 146.7 103.4 L 145.7 106.0 L 144.3 108.5 L 142.5 110.7 L 140.8 112.4 Z M 162.8 78.4 L 156.2 75.6 L 150.1 72.5 L 144.6 69.2 L 139.7 65.7 L 135.4 61.9 L 131.8 57.8 L 129.0 53.6 L 127.47391300201416 49.7 L 74.5 49.7 L 74.5 45.7 L 113.2 45.7 L 122.0 36.9 L 122.0 27.2 L 78.0 27.2 L 78.0 34.7 L 66.0 40.7 L 66.0 27.2 L 13.0 27.2 L 13.0 23.2 L 66.0 23.2 L 66.0 11.3 L 78.0 13.3 L 81.0 15.3 L 78.0 17.1 L 78.0 23.2 L 122.0 23.2 L 122.0 11.3 L 134.0 13.3 L 137.0 15.3 L 134.0 17.1 L 134.0 23.2 L 165.0 23.2 L 175.0 13.2 L 187.0 23.2 L 187.0 27.2 L 134.0 27.2 L 134.0 34.7 L 126.5 38.45 L 135.2 45.7 L 135.2 49.7 L 130.75172414779664 49.7 L 132.2 50.9 L 135.9 53.6 L 139.9 56.2 L 144.3 58.7 L 149.1 61.0 L 154.5 63.3 L 160.3 65.3 L 166.6 67.3 L 173.5 69.0 L 180.9 70.7 L 189.5 72.8 L 177.8 83.5 L 170.0 81.1 Z M 72.7 56.1 L 73.8 59.5 L 69.78461542129517 59.01538457870483 L 69.1 59.7 L 65.1 63.0 L 60.5 66.2 L 55.4 69.1 L 49.9 71.8 L 43.8 74.4 L 37.1 76.7 L 30.0 78.9 L 22.3 80.8 L 14.0 82.3 L 13.5 80.6 L 21.1 77.2 L 28.1 73.9 L 34.6 70.7 L 40.5 67.5 L 45.9 64.3 L 50.6 61.2 L 54.7 58.0 L 58.1 54.9 L 61.0 51.8 L 62.622037982940675 49.514401054382326 L 62.6 49.5 L 62.8 49.26363639831543 L 63.2 48.7 L 63.2463641166687 48.73611516952515 L 63.7 48.2 Z " />
</g>
</svg>
