<svg xmlns="http://www.w3.org/2000/svg" xmlns:xlink="http://www.w3.org/1999/xlink" version="1.1" baseProfile="full" viewBox="0 0 200 200" width="200" height="200">
<g fill="black">
<path d="M 176.0 146.5 L 178.0 146.5 L 176.0 171.5 L 179.6 173.9 L 182.0 177.5 L 179.6 181.1 L 176.0 183.5 L 52.0 183.5 L 49.4 183.4 L 46.9 183.0 L 44.5 182.2 L 42.2 180.9 L 40.2 179.3 L 38.6 177.3 L 37.3 175.0 L 36.5 172.6 L 36.1 170.1 L 36.0 167.5 L 36.0 114.5 L 48.0 120.5 L 151.0 120.5 L 157.0 115.5 L 168.0 124.5 L 163.0 128.5 L 163.0 153.4 L 151.0 159.4 L 151.0 149.4 L 48.0 149.4 L 48.0 168.8 L 48.2 169.7 L 48.5 170.6 L 48.7 170.8 L 48.9 170.9 L 49.2 171.1 L 49.8 171.3 L 50.7 171.5 L 170.0 171.5 Z M 48.0 124.5 L 48.0 145.4 L 94.0 145.4 L 94.0 124.5 Z M 106.0 124.5 L 106.0 145.4 L 151.0 145.4 L 151.0 124.5 Z M 173.0 89.0 L 175.0 89.0 L 173.0 102.0 L 175.7 103.8 L 177.5 106.5 L 175.7 109.2 L 173.0 111.0 L 81.5 111.0 L 79.2 110.7 L 76.9 110.1 L 74.7 109.1 L 72.7 107.7 L 71.1 105.9 L 69.7 103.7 L 68.8 101.4 L 68.2 99.0 L 68.0 96.5 L 68.0 83.2 L 62.6 85.9 L 46.5 93.0 L 29.7 99.6 L 12.3 105.5 L 11.6 103.8 L 28.3 96.1 L 44.3 88.2 L 59.6 80.0 L 68.0 75.14285717010497 L 68.0 66.1 L 79.81963748931885 68.06993961334229 L 88.3 62.8 L 97.40760869979859 56.5 L 15.0 56.5 L 15.0 52.5 L 84.0 52.5 L 84.0 34.2 L 32.0 34.2 L 32.0 30.2 L 84.0 30.2 L 84.0 11.5 L 96.0 13.5 L 99.0 15.5 L 96.0 17.3 L 96.0 30.2 L 109.0 30.2 L 119.0 20.2 L 130.8207130432129 30.05059423446655 L 137.4 24.0 L 148.0 13.4 L 148.05 13.45 L 148.3 13.2 L 156.5 21.9 L 157.2 25.4 L 153.66067419052123 24.515168571472167 L 145.1 32.4 L 133.0 42.5 L 120.3 52.1 L 119.71304349899292 52.5 L 163.0 52.5 L 173.0 42.5 L 185.0 52.5 L 185.0 56.5 L 113.84347829818725 56.5 L 106.8 61.3 L 92.8 70.0 L 80.0 77.09189186096191 L 80.0 87.65841579437256 L 83.9 86.5 L 93.5 83.8 L 102.6 81.3 L 111.2 78.8 L 119.2 76.5 L 126.7 74.2 L 133.6 71.9 L 139.9 69.7 L 145.7 67.5 L 150.03798189163209 65.78117694854737 L 150.0 65.7 L 150.07627267837523 65.76600513458251 L 151.0 65.4 L 151.62442827224731 67.10575523376465 L 160.4 74.7 L 160.6 77.8 L 156.6248656272888 76.05335006713867 L 155.1 76.6 L 149.3 78.3 L 143.1 79.9 L 136.3 81.6 L 129.0 83.2 L 121.2 84.7 L 112.9 86.2 L 104.0 87.7 L 94.6 89.0 L 84.6 90.2 L 80.0 90.6380952835083 L 80.0 96.5 L 79.9 97.7 L 79.9 98.7 L 80.0 99.4 L 80.0 99.9 L 80.2 100.2 L 80.4 100.6 L 80.8 101.0 L 81.5 101.4 L 82.6 101.7 L 84.0 102.0 L 168.5 102.0 Z M 96.0 34.2 L 96.0 52.5 L 103.05894737243652 52.5 L 114.2 44.1 L 126.2 34.3 L 126.3087378501892 34.2 Z " />
</g>
</svg>
