<svg xmlns="http://www.w3.org/2000/svg" xmlns:xlink="http://www.w3.org/1999/xlink" version="1.1" baseProfile="full" viewBox="0 0 200 200" width="200" height="200">
<g fill="black">
<path d="M 157.9 80.5 L 149.9 75.4 L 142.6 69.8 L 139.7488498687744 67.20417671203613 L 138.8 67.9 L 130.6 72.8 L 121.8 77.2 L 112.4 80.9 L 103.73236360549927 83.38872728347778 L 105.0 83.6 L 108.0 85.6 L 105.0 87.4 L 105.0 94.3 L 141.0 94.3 L 147.0 89.3 L 158.0 98.3 L 153.0 102.3 L 153.0 110.7 L 164.8181818008423 110.7 L 173.0 101.7 L 183.0 110.7 L 183.0 114.7 L 153.0 114.7 L 153.0 131.9 L 141.0 137.9 L 141.0 131.9 L 105.0 131.9 L 105.0 145.1 L 147.8181818008423 145.1 L 156.0 136.1 L 166.0 145.1 L 166.0 149.1 L 105.0 149.1 L 105.0 162.3 L 159.0 162.3 L 169.0 152.3 L 181.0 162.3 L 181.0 166.3 L 105.0 166.3 L 105.0 181.9 L 93.0 187.9 L 93.0 166.3 L 20.0 166.3 L 20.0 162.3 L 93.0 162.3 L 93.0 149.1 L 32.0 149.1 L 32.0 145.1 L 93.0 145.1 L 93.0 131.9 L 41.0 131.9 L 41.0 127.9 L 93.0 127.9 L 93.0 114.7 L 21.0 114.7 L 21.0 110.7 L 93.0 110.7 L 93.0 98.3 L 41.0 98.3 L 41.0 94.3 L 93.0 94.3 L 93.0 81.6 L 102.01263160705567 83.10210523605346 L 101.6 82.1 L 110.8 77.4 L 119.3 72.4 L 127.1 67.3 L 134.183996963501 61.812396717071536 L 129.9 57.1 L 124.6 50.0 L 120.0 42.4 L 116.3 34.3 L 113.76046514511108 26.5 L 103.0 26.5 L 103.0 22.5 L 162.0 22.5 L 168.0 17.5 L 179.0 26.5 L 174.0 29.5 L 171.65816326141356 30.475765323638917 L 169.5 34.9 L 164.7 42.6 L 159.3 49.7 L 153.1 56.4 L 147.87317609786987 61.01190347671509 L 148.8 61.7 L 155.9 66.1 L 163.5 70.1 L 171.6 73.7 L 180.2 76.8 L 187.2 79.3 L 175.7 89.2 L 166.5 85.1 Z M 105.0 114.7 L 105.0 127.9 L 141.0 127.9 L 141.0 114.7 Z M 105.0 98.3 L 105.0 110.7 L 141.0 110.7 L 141.0 98.3 Z M 99.0 22.5 L 99.0 26.5 L 58.55636367797852 26.5 L 56.2 31.9 L 53.3 37.2 L 50.1 42.1 L 47.0297872543335 46.0 L 80.0 46.0 L 86.0 41.0 L 97.0 50.0 L 92.0 54.0 L 92.0 79.4 L 80.0 85.4 L 80.0 77.4 L 46.0 77.4 L 46.0 80.4 L 34.0 86.4 L 34.0 58.38333330154419 L 33.2 59.0 L 28.0 62.4 L 22.4 65.3 L 16.4 67.8 L 15.5 66.2 L 20.3 62.1 L 24.8 58.1 L 28.9 54.0 L 32.6 49.9 L 36.0 45.6 L 39.0 41.3 L 41.6 36.8 L 43.8 32.2 L 45.7 27.4 L 45.97931032180786 26.5 L 18.0 26.5 L 18.0 22.5 L 77.0 22.5 L 87.0 12.5 Z M 46.0 50.0 L 46.0 73.4 L 80.0 73.4 L 80.0 50.0 Z M 116.1863013267517 26.5 L 120.0 32.3 L 125.0 39.2 L 130.3 45.5 L 136.0 51.4 L 140.957288646698 55.71763849258423 L 146.3 50.0 L 151.3 43.6 L 155.7 36.8 L 159.3 29.7 L 160.64054050445557 26.5 Z " />
</g>
</svg>
