<svg xmlns="http://www.w3.org/2000/svg" xmlns:xlink="http://www.w3.org/1999/xlink" version="1.1" baseProfile="full" viewBox="0 0 200 200" width="200" height="200">
<g fill="black">
<path d="M 68.2 137.0 L 66.9 134.2 L 65.4 131.5 L 63.7 128.7 L 61.8 126.0 L 59.8 123.3 L 57.5 120.6 L 55.1 117.8 L 55.0 117.70714282989502 L 55.0 182.0 L 43.0 188.0 L 43.0 131.20322580337523 L 41.3 135.7 L 37.9 143.6 L 34.0 151.1 L 29.6 158.1 L 24.8 164.8 L 19.5 170.9 L 13.6 176.5 L 12.3 175.4 L 16.4 168.6 L 20.3 161.8 L 23.9 154.9 L 27.1 147.7 L 30.0 140.3 L 32.6 132.6 L 34.7 124.7 L 36.5 116.5 L 37.9 108.0 L 38.65 102.0 L 14.0 102.0 L 14.0 98.0 L 43.0 98.0 L 43.0 71.0 L 17.0 71.0 L 17.0 67.0 L 43.0 67.0 L 43.0 46.19295778274536 L 37.0 46.7 L 29.6 47.1 L 22.0 47.2 L 14.0 46.8 L 13.9 45.1 L 21.6 43.4 L 29.0 41.8 L 36.0 40.2 L 42.7 38.6 L 43.0 38.5203125 L 43.0 13.0 L 55.0 15.0 L 58.0 17.0 L 55.0 18.8 L 55.0 35.130000019073485 L 55.1 35.1 L 60.8 33.2 L 66.1 31.2 L 71.0 29.1 L 74.71329841613769 27.32407464981079 L 74.7 27.3 L 74.72196702957153 27.31992883682251 L 75.6 26.9 L 76.52349462509156 28.9543044090271 L 84.4 36.1 L 84.6 39.3 L 80.7974575996399 37.670339012145995 L 80.5 37.8 L 75.1 39.7 L 69.5 41.4 L 63.5 42.9 L 57.3 44.1 L 55.0 44.4953125 L 55.0 67.0 L 59.0 67.0 L 69.0 57.0 L 81.0 67.0 L 81.0 71.0 L 55.0 71.0 L 55.0 98.0 L 62.0 98.0 L 72.0 88.0 L 84.0 98.0 L 84.0 102.0 L 55.0 102.0 L 55.0 114.57428569793701 L 56.8 115.5 L 60.3 117.2 L 63.5 119.1 L 66.6 121.2 L 69.5 123.6 L 72.2 126.1 L 74.8 128.7 L 77.1 131.6 L 79.3 134.6 L 81.2 137.8 L 81.3 142.3 L 78.2 145.7 L 73.6 145.8 L 70.2 142.6 L 69.3 139.8 Z M 188.5 30.0 L 183.5 34.0 L 183.5 179.0 L 171.5 185.0 L 171.5 175.0 L 97.5 175.0 L 97.5 182.0 L 87.5 187.0 L 87.5 21.0 L 97.5 26.0 L 171.5 26.0 L 177.5 21.0 Z M 97.5 30.0 L 97.5 171.0 L 171.5 171.0 L 171.5 30.0 Z M 151.0 148.7 L 147.2 139.6 L 146.2742115020752 136.5911873817444 L 141.9 142.7 L 135.5 149.8 L 128.6 155.9 L 121.2 160.9 L 113.3 164.7 L 112.4 163.2 L 119.0 157.8 L 125.0 151.9 L 130.6 145.4 L 135.7 138.2 L 140.4 130.3 L 142.98863639831544 124.93782463073731 L 141.2 117.4 L 138.9 104.3 L 137.0 89.8 L 136.74703788757324 86.92707347869873 L 134.5 88.5 L 134.5 116.0 L 123.5 121.5 L 123.5 116.0 L 114.0 116.0 L 114.0 119.0 L 105.0 123.5 L 105.0 76.5 L 114.0 81.0 L 123.5 81.0 L 129.0 76.0 L 136.3387755393982 82.2903790473938 L 135.6 73.9 L 135.198837184906 67.0 L 100.1 67.0 L 100.1 63.0 L 134.9662790298462 63.0 L 134.6 56.7 L 134.12680368423463 39.0970962524414 L 134.1 39.1 L 134.0 35.7 L 146.1 37.8 L 149.1 39.8 L 146.20413255691528 41.632079410552976 L 146.6 56.2 L 147.00236682891847 63.0 L 153.87777776718139 63.0 L 160.1 56.0 L 168.1 63.0 L 168.1 67.0 L 147.23905324935913 67.0 L 147.6 73.1 L 149.0 88.5 L 150.7 102.5 L 150.97504301071166 104.06274452209473 L 151.7 101.8 L 154.5 90.7 L 156.71806240081787 79.70210723876953 L 156.7 79.7 L 157.3 76.9 L 168.7 81.1 L 171.2 83.7 L 167.7461929321289 84.91522846221923 L 165.6 93.5 L 161.9 105.1 L 157.7 115.8 L 154.6216941833496 122.28409090042115 L 155.5 126.0 L 158.5 135.5 L 161.36591930389403 142.44768314361573 L 164.7 128.0 L 166.7 128.0 L 165.0555347442627 149.37804880142212 L 165.4 150.0 L 169.1 154.9 L 170.6 159.2 L 168.8 163.4 L 164.4 164.9 L 160.3 163.0 L 155.3 156.5 Z M 101.7 136.9 L 108.5 135.3 L 115.5 133.3 L 122.7 131.1 L 126.4 129.9 L 130.2 128.7 L 134.1 127.6 L 137.9 126.2 L 138.8 127.7 L 135.5 130.2 L 132.3 132.8 L 129.0 135.2 L 125.7 137.4 L 122.4 139.5 L 119.0 141.5 L 115.6 143.3 L 112.3 145.1 L 109.43500003814697 146.5324999809265 L 108.4 150.5 L 105.5 148.3 L 99.8 137.6 Z M 114.0 85.0 L 114.0 112.0 L 123.5 112.0 L 123.5 85.0 Z M 155.7 50.1 L 155.4 48.7 L 154.4 45.7 L 153.8 44.2 L 153.2 42.6 L 152.5 41.1 L 151.7 39.4 L 150.5 38.3 L 151.6 36.9 L 153.0 37.9 L 154.8 38.5 L 156.6 39.3 L 158.2 40.2 L 159.8 41.2 L 161.4 42.3 L 162.9 43.5 L 164.3 44.7 L 165.7 46.1 L 167.0 47.6 L 167.3 52.1 L 164.4 55.6 L 159.8 55.9 L 156.3 53.0 L 156.0 51.6 Z " />
</g>
</svg>
