<svg xmlns="http://www.w3.org/2000/svg" xmlns:xlink="http://www.w3.org/1999/xlink" version="1.1" baseProfile="full" viewBox="0 0 200 200" width="200" height="200">
<g fill="black">
<path d="M 112.4 180.4 L 100.4 186.4 L 100.4 28.5 L 112.4 34.5 L 169.3 34.5 L 175.3 29.5 L 186.3 38.5 L 181.3 42.5 L 181.3 174.4 L 169.3 180.4 L 169.3 168.4 L 112.4 168.4 Z M 14.1 166.9 L 20.6 165.6 L 27.3 164.2 L 34.4 162.6 L 41.7 161.0 L 46.5 159.94025974273683 L 46.5 122.0 L 15.4 122.0 L 15.4 118.0 L 46.5 118.0 L 46.5 91.0 L 58.5 93.0 L 61.5 95.0 L 58.5 96.8 L 58.5 118.0 L 67.6 118.0 L 77.6 108.0 L 89.6 118.0 L 89.6 122.0 L 58.5 122.0 L 58.5 157.22195119857787 L 65.5 155.6 L 74.0 153.7 L 82.9 151.9 L 92.1 150.1 L 92.6 151.8 L 84.0 155.5 L 75.6 158.9 L 67.4 161.9 L 59.4 164.8 L 51.7 167.5 L 44.2 170.0 L 37.0 172.3 L 30.0 174.5 L 23.4 176.6 L 20.894450092315672 177.33239154815675 L 19.6 181.0 L 16.9 178.5 L 12.1 167.4 Z M 112.4 103.4 L 112.4 164.4 L 134.8 164.4 L 134.8 103.4 Z M 146.8 103.4 L 146.8 164.4 L 169.3 164.4 L 169.3 103.4 Z M 112.4 38.5 L 112.4 99.4 L 134.8 99.4 L 134.8 38.5 Z M 146.8 38.5 L 146.8 99.4 L 169.3 99.4 L 169.3 38.5 Z M 75.8 80.4 L 74.6 77.1 L 74.27819547653198 76.29548873901368 L 71.2 77.5 L 64.5 80.0 L 58.0 82.1 L 51.6 84.0 L 45.5 85.8 L 39.6 87.4 L 34.0 89.0 L 28.5 90.3 L 23.3 91.6 L 22.33030300140381 91.81333332061767 L 20.7 95.4 L 18.3 92.7 L 14.4 81.2 L 16.4 80.9 L 21.4 80.4 L 26.6 79.8 L 30.656795978546143 79.2741189956665 L 31.0 78.1 L 32.9 71.8 L 34.7 65.8 L 36.5 60.0 L 38.1 54.5 L 39.6 49.1 L 41.0 43.9 L 42.1 39.0 L 43.1 34.2 L 43.325 33.0 L 13.6 33.0 L 13.6 29.0 L 69.5 29.0 L 79.5 19.0 L 91.5 29.0 L 91.5 33.0 L 55.46666669845581 33.0 L 54.1 37.1 L 52.4 42.0 L 50.5 47.0 L 48.4 52.1 L 46.1 57.4 L 43.6 62.8 L 40.8 68.3 L 37.8 73.9 L 34.94014501571655 78.69446277618408 L 37.8 78.3 L 43.8 77.5 L 50.0 76.6 L 56.5 75.7 L 63.3 74.7 L 70.3 73.9 L 73.19376373291016 73.58716068267822 L 71.5 70.1 L 69.6 66.6 L 67.5 62.9 L 65.2 59.1 L 62.7 55.2 L 59.8 51.3 L 61.1 50.0 L 65.0 53.0 L 68.8 56.0 L 72.2 59.1 L 75.4 62.4 L 78.3 65.7 L 80.9 69.1 L 83.3 72.5 L 85.5 76.0 L 87.4 79.6 L 89.0 83.3 L 88.6 87.8 L 85.1 90.8 L 80.6 90.4 L 77.6 86.9 L 76.8 83.7 Z " />
</g>
</svg>
