<svg xmlns="http://www.w3.org/2000/svg" xmlns:xlink="http://www.w3.org/1999/xlink" version="1.1" baseProfile="full" viewBox="0 0 200 200" width="200" height="200">
<g fill="black">
<path d="M 113.2 47.3 L 113.2 43.3 L 138.6 43.3 L 138.6 9.9 L 150.6 11.9 L 153.6 13.9 L 150.6 15.7 L 150.6 43.3 L 162.1 43.3 L 169.67692308425904 35.72307691574097 L 167.0 32.6 L 166.9 31.2 L 166.6 29.6 L 166.1 28.0 L 165.4 26.3 L 164.5 24.5 L 163.4 22.7 L 162.0 20.8 L 160.4 18.9 L 158.6 16.8 L 156.3 15.3 L 157.2 13.7 L 159.8 14.9 L 162.6 15.8 L 165.1 16.8 L 167.5 18.0 L 169.8 19.4 L 171.8 21.0 L 173.8 22.7 L 175.5 24.6 L 177.0 26.6 L 178.4 28.9 L 178.0 33.4 L 175.19806098937988 35.8817174911499 L 184.1 43.3 L 184.1 47.3 L 150.6 47.3 L 150.6 50.2 L 150.2860157966614 50.67097625732422 L 150.6 50.7 L 150.26893787384034 52.76913824081421 L 152.4 59.9 L 155.4 68.0 L 158.6 75.6 L 162.3 82.5 L 166.3 88.8 L 170.8 94.6 L 175.6 99.8 L 180.8 104.5 L 186.4 108.6 L 189.5 110.9 L 178.5 119.2 L 172.4 113.8 L 166.9 107.8 L 161.9 101.2 L 157.6 94.2 L 154.0 86.7 L 150.9 78.7 L 148.5 70.2 L 147.66796560287474 66.08605213165283 L 146.7 70.0 L 143.9 78.7 L 140.4 86.8 L 136.2 94.1 L 131.5 100.7 L 126.1 106.6 L 120.1 111.6 L 113.5 115.8 L 109.98446598052979 117.38446598052978 L 112.2 119.6 L 108.33003301620484 120.93689765930176 L 107.6 123.2 L 105.84137935638428 126.6 L 160.0 126.6 L 166.0 121.6 L 177.0 130.6 L 172.0 134.6 L 172.0 173.3 L 171.8 175.8 L 171.4 178.3 L 170.6 180.7 L 169.3 183.0 L 167.7 185.0 L 165.7 186.7 L 163.4 187.9 L 161.0 188.7 L 158.5 189.1 L 156.0 189.3 L 156.0 183.3 L 136.0 180.3 L 136.0 177.3 L 156.0 177.3 L 157.2 177.2 L 158.1 177.0 L 158.7 176.9 L 159.0 176.7 L 159.4 176.3 L 159.7 175.4 L 159.9 174.5 L 160.0 173.3 L 160.0 130.6 L 103.3764705657959 130.6 L 100.76654024124146 134.01298580169677 L 105.0 134.3 L 110.6 134.8 L 116.0 135.6 L 121.0 136.5 L 125.9 137.6 L 130.5 138.8 L 134.8 140.1 L 138.9 141.5 L 142.8 143.0 L 146.4 144.7 L 149.1 148.3 L 148.5 152.9 L 144.8 155.6 L 140.3 155.0 L 137.5 153.1 L 134.4 151.1 L 131.0 149.2 L 127.2 147.3 L 123.2 145.5 L 118.9 143.6 L 114.3 141.7 L 109.4 139.8 L 104.2 137.8 L 98.938343334198 135.75380020141603 L 95.8 138.7 L 90.0 142.7 L 83.3 146.0 L 75.6 148.8 L 66.9 151.1 L 57.1 152.7 L 46.1 153.8 L 45.8 152.0 L 56.3 149.0 L 65.4 145.9 L 73.3 142.7 L 79.9 139.2 L 85.3 135.6 L 89.6 131.8 L 90.58999996185302 130.6 L 40.0 130.6 L 40.0 182.6 L 28.0 188.6 L 28.0 120.6 L 40.0 126.6 L 93.5731707572937 126.6 L 95.2 123.7 L 96.9 119.3 L 97.0854974746704 118.4467116355896 L 95.7 118.5 L 95.7 112.5 L 85.7 109.5 L 85.7 107.3 L 78.5 107.3 L 78.5 112.8 L 66.5 118.8 L 66.5 107.3 L 51.1 107.3 L 51.1 103.3 L 75.21818180084229 103.3 L 78.83999996185302 99.31599998474121 L 78.2 98.9 L 76.5 97.2 L 75.2 95.2 L 74.2 93.0 L 73.5 90.6 L 73.43599996566772 90.2 L 70.19259262084961 90.2 L 69.7 90.9 L 67.9 93.3 L 65.9 95.4 L 63.7 97.2 L 61.3 98.9 L 58.7 100.3 L 56.0 101.4 L 53.1 102.3 L 50.1 103.0 L 46.9 103.5 L 45.2 103.871875 L 45.2 112.8 L 33.2 118.8 L 33.2 80.2 L 45.1 86.15 L 45.1 65.3 L 34.5 65.3 L 34.5 61.3 L 100.4 61.3 L 102.65 58.3 L 66.7 58.3 L 64.4 58.4 L 62.1 58.3 L 59.9 57.8 L 57.8 56.9 L 55.8 55.7 L 54.1 54.0 L 52.8 52.0 L 51.8 49.7 L 51.1 47.3 L 51.07157192230225 47.122324562072755 L 31.1 48.89114332199097 L 31.1 70.7 L 30.6 77.1 L 29.9 83.1 L 28.8 88.8 L 27.4 94.1 L 25.8 99.0 L 23.8 103.5 L 21.5 107.5 L 18.8 111.1 L 15.8 114.0 L 12.5 116.4 L 11.2 115.2 L 12.9 111.8 L 14.4 108.3 L 15.7 104.7 L 16.8 100.8 L 17.8 96.6 L 18.5 92.1 L 19.0 87.3 L 19.2 82.1 L 19.3 76.6 L 19.1 70.7 L 19.1 23.0 L 31.1 29.0 L 54.2 29.0 L 54.2 9.9 L 66.2 11.9 L 69.2 13.9 L 66.2 15.7 L 66.2 18.0 L 81.61818180084228 18.0 L 89.8 9.0 L 99.8 18.0 L 99.8 22.0 L 66.2 22.0 L 66.2 29.0 L 100.2 29.0 L 100.89375 28.421875 L 101.1 27.7 L 101.46992235183716 27.941731452941895 L 106.2 24.0 L 117.2 33.0 L 112.2 36.0 L 105.42105264663697 38.82456140518188 L 104.5 39.5 L 103.1 40.5 L 101.6 41.6 L 100.0 42.6 L 98.3 43.6 L 97.1 45.0 L 95.7 43.9 L 96.7 42.4 L 97.2 40.5 L 97.8 38.7 L 98.8 35.3 L 99.4 33.7 L 99.58666667938232 33.0 L 83.49550561904907 33.0 L 92.7 39.4 L 93.1 43.4 L 62.498976421356204 46.110235595703124 L 62.4 47.1 L 62.4 47.8 L 62.5 48.4 L 62.6 48.9 L 62.8 49.5 L 63.3 50.0 L 64.1 50.5 L 65.2 51.0 L 66.7 51.3 L 99.2 51.3 L 102.7 46.3 L 104.7 46.3 L 102.7 51.3 L 104.8 52.7 L 106.2 54.8 L 105.48000001907349 55.880000019073485 L 110.9 61.3 L 110.9 65.3 L 95.1444444656372 65.3 L 104.8 73.2 L 99.8 77.2 L 99.8 82.4 L 92.2 86.2 L 99.7 86.2 L 105.7 81.2 L 116.7 90.2 L 111.7 94.2 L 111.7 102.5 L 111.6 105.1 L 111.1 107.5 L 110.3 110.0 L 109.1 112.2 L 107.4 114.2 L 105.7671706199646 115.58790493011475 L 107.18953037261963 116.11193227767944 L 111.4 112.7 L 116.6 107.6 L 121.2 102.2 L 125.3 96.3 L 128.9 89.9 L 131.9 83.0 L 134.4 75.5 L 136.3 67.5 L 137.8 58.8 L 138.6360189437866 50.25402841567993 L 138.6 50.2 L 138.6 47.3 Z M 133.9 172.6 L 130.2 170.8 L 126.4 168.9 L 122.3 167.2 L 118.0 165.4 L 113.5 163.8 L 108.8 162.0 L 103.9 160.3 L 101.25754384994507 159.3673684120178 L 97.2 162.1 L 91.6 165.0 L 85.5 167.6 L 78.8 169.8 L 71.6 171.7 L 63.7 173.3 L 55.2 174.4 L 46.1 175.0 L 45.8 173.3 L 54.4 170.7 L 62.4 168.1 L 69.7 165.4 L 76.2 162.7 L 82.1 159.8 L 87.2 156.9 L 91.6 153.8 L 95.3 150.6 L 98.2 147.4 L 100.5 144.1 L 100.53937501907349 144.128125 L 101.0 143.5 L 110.3 151.1 L 111.6 154.4 L 107.49914426803589 154.12197589874268 L 106.5 155.2 L 104.5456521987915 156.79901189804076 L 104.6 156.8 L 109.9 157.0 L 115.0 157.6 L 120.0 158.3 L 124.8 159.2 L 129.4 160.3 L 133.8 161.5 L 138.1 162.8 L 142.2 164.3 L 146.1 165.9 L 149.0 169.5 L 148.6 174.0 L 145.0 176.9 L 140.5 176.5 L 137.3 174.5 Z M 45.2 90.2 L 45.2 101.57241382598878 L 46.1 101.2 L 48.6 99.4 L 50.8 97.7 L 52.7 96.0 L 54.4 94.2 L 55.8 92.5 L 56.9 90.8 L 57.2 90.2 Z M 99.7 90.2 L 99.36000003814698 90.2 L 97.6 94.6 L 99.7 96.0 Z M 57.1 82.4 L 49.5 86.2 L 87.8 86.2 L 87.8 82.4 Z M 57.1 73.2 L 57.1 78.4 L 87.8 78.4 L 87.8 73.2 Z M 49.3 65.3 L 57.1 69.2 L 87.8 69.2 L 92.48000001907349 65.3 Z M 31.1 33.0 L 31.1 44.85571660995483 L 50.7 43.11980676651001 L 50.7 33.0 Z M 61.5 33.0 L 62.7 33.2 L 65.7 35.2 L 62.7 37.0 L 62.7 42.057004833221434 L 70.8123155593872 41.338522815704344 L 77.80384616851806 33.0 Z M 93.4 103.3 L 93.4 106.5 L 95.7 106.5 L 96.9 106.4 L 97.8 106.3 L 98.4 106.1 L 98.8 105.9 L 99.1 105.6 L 99.3 105.2 L 99.5 104.6 L 99.6 103.7 L 99.7 102.5 L 99.7 100.2 L 97.6 101.6 L 91.51111106872558 101.6 Z M 97.18000001907349 90.2 L 84.81000003814697 90.2 L 84.8 90.3 L 84.8 91.1 L 84.9 91.7 L 85.0 92.2 L 85.2 92.7 L 85.7 93.3 L 86.5 93.8 L 87.6 94.2 L 89.1 94.6 L 94.1 94.6 Z " />
</g>
</svg>
