<svg xmlns="http://www.w3.org/2000/svg" xmlns:xlink="http://www.w3.org/1999/xlink" version="1.1" baseProfile="full" viewBox="0 0 200 200" width="200" height="200">
<g fill="black">
<path d="M 82.4 149.2 L 83.0 152.8 L 79.30291261672974 151.67766990661622 L 76.9 153.6 L 71.2 157.9 L 65.1 162.0 L 58.8 166.0 L 52.3 169.9 L 45.5 173.6 L 38.3 177.2 L 30.9 180.6 L 23.2 183.7 L 15.2 186.5 L 14.4 184.9 L 21.5 180.3 L 28.4 175.9 L 35.1 171.5 L 41.5 167.1 L 47.7 162.8 L 53.6 158.4 L 59.2 153.9 L 64.5 149.4 L 69.6 144.9 L 73.63527050018311 141.03286571502684 L 73.6 141.0 L 74.6 140.1 Z M 166.8 113.5 L 161.6 110.9 L 156.7 108.0 L 151.9 104.9 L 147.3 101.6 L 143.0 98.0 L 138.9 94.1 L 135.45430784225465 90.18867378234863 L 135.19387073516845 90.14377079010009 L 133.5 91.8 L 128.7 95.9 L 123.7 99.7 L 118.4 103.3 L 112.8 106.5 L 106.9 109.4 L 100.8 112.1 L 94.4 114.3 L 88.14666662216186 116.07333335876464 L 100.0 122.0 L 128.0 122.0 L 128.0 106.0 L 140.0 108.0 L 143.0 110.0 L 140.0 111.8 L 140.0 122.0 L 168.0 122.0 L 174.0 117.0 L 185.0 126.0 L 180.0 130.0 L 180.0 145.0 L 168.0 151.0 L 168.0 145.0 L 140.0 145.0 L 140.0 160.0 L 159.8181818008423 160.0 L 168.0 151.0 L 178.0 160.0 L 178.0 164.0 L 140.0 164.0 L 140.0 178.0 L 166.0 178.0 L 176.0 168.0 L 188.0 178.0 L 188.0 182.0 L 78.0 182.0 L 78.0 178.0 L 128.0 178.0 L 128.0 164.0 L 89.0 164.0 L 89.0 160.0 L 128.0 160.0 L 128.0 145.0 L 100.0 145.0 L 88.0 151.0 L 88.0 116.11492538452148 L 87.7 116.2 L 80.7 117.5 L 80.2 115.8 L 86.4 112.6 L 92.3 109.4 L 97.9 106.2 L 103.2 102.8 L 108.3 99.3 L 113.0 95.7 L 117.4 91.9 L 121.6 87.9 L 125.4 83.8 L 128.31884622573853 80.21398897171021 L 128.3 80.2 L 128.58888893127443 79.88222217559814 L 128.9 79.5 L 128.92032384872437 79.51764373779297 L 129.3 79.1 L 136.355779838562 85.83137617111205 L 137.9 86.7 L 142.6 89.5 L 147.2 92.1 L 151.8 94.6 L 156.5 96.9 L 161.3 98.9 L 166.2 100.8 L 171.2 102.5 L 176.2 104.0 L 181.4 105.3 L 189.4 107.7 L 177.7 118.0 L 172.2 115.9 Z M 78.2 112.9 L 78.6 116.5 L 75.04345045089721 115.20670928955079 L 73.0 116.7 L 67.5 120.4 L 61.8 124.0 L 55.9 127.5 L 49.7 130.9 L 43.3 134.2 L 36.7 137.3 L 29.8 140.3 L 22.6 143.0 L 15.2 145.5 L 14.4 143.8 L 21.0 139.6 L 27.3 135.5 L 33.5 131.6 L 39.5 127.6 L 45.3 123.7 L 50.8 119.7 L 56.1 115.7 L 61.2 111.7 L 66.0 107.7 L 69.80681085586548 104.30697298049927 L 69.8 104.3 L 70.7 103.5 Z M 100.0 126.0 L 100.0 141.0 L 128.0 141.0 L 128.0 126.0 Z M 140.0 126.0 L 140.0 141.0 L 168.0 141.0 L 168.0 126.0 Z M 68.61637306213379 12.598784446716309 L 77.4 20.2 L 77.6 23.3 L 73.7120756149292 21.59166955947876 L 72.1 22.2 L 68.9 22.9 L 65.7 23.5 L 62.3 24.1 L 58.8 24.7 L 55.2 25.2 L 51.5 25.6 L 47.6 26.0 L 43.6 26.2 L 41.01956748962402 26.261438846588135 L 41.49752578735352 37.3 L 56.81818180084228 37.3 L 65.0 28.3 L 75.0 37.3 L 75.0 41.3 L 41.67072162628174 41.3 L 42.20329895019531 53.6 L 56.81818180084228 53.6 L 65.0 44.6 L 75.0 53.6 L 75.0 57.6 L 42.37649488449097 57.6 L 42.91340208053589 70.0 L 82.99016389846801 70.0 L 84.0 47.6 L 95.9 50.1 L 98.8 52.2 L 95.7672667503357 53.3298418045044 L 95.08219175338745 70.0 L 109.96116209030151 70.0 L 110.83883790969848 41.3 L 94.90746269226074 41.3 L 94.9 41.5 L 82.6 47.1 L 84.0 12.2 L 95.9 14.7 L 98.8 16.8 L 95.77880392074584 17.94805450439453 L 95.5641791343689 23.7 L 109.81818180084228 23.7 L 118.0 14.7 L 128.0 23.7 L 128.0 27.7 L 95.41492538452148 27.7 L 95.05671644210815 37.3 L 111.0 37.3 L 117.0 32.3 L 128.0 41.3 L 123.0 44.3 L 122.0 44.71666669845581 L 122.0 70.0 L 157.02244901657104 70.0 L 157.78163261413573 57.6 L 131.0 57.6 L 131.0 53.6 L 158.02653064727784 53.6 L 158.77959184646608 41.3 L 131.0 41.3 L 131.0 37.3 L 159.02448978424073 37.3 L 159.77755098342897 25.0 L 133.0 25.0 L 133.0 21.0 L 160.0 21.0 L 166.0 16.0 L 177.0 25.0 L 172.0 28.0 L 170.81272087097167 28.494699668884277 L 169.0833333015442 70.0 L 172.7777777671814 70.0 L 179.0 63.0 L 187.0 70.0 L 187.0 74.0 L 68.24193544387818 74.0 L 73.0 79.9 L 73.4 83.5 L 69.73333330154419 82.23333330154419 L 68.8 82.9 L 64.2 85.7 L 59.3 88.5 L 54.1 91.2 L 48.5 93.9 L 42.6 96.4 L 36.4 98.9 L 29.7 101.3 L 22.7 103.5 L 15.3 105.4 L 14.6 103.8 L 21.2 100.0 L 27.5 96.4 L 33.5 93.0 L 39.2 89.7 L 44.5 86.4 L 49.4 83.2 L 54.0 80.0 L 58.2 76.8 L 61.541935443878174 74.0 L 14.0 74.0 L 14.0 70.0 L 30.814814853668214 70.0 L 28.6 18.0 L 39.766387367248534 22.993100070953368 L 42.6 21.8 L 46.3 20.4 L 49.8 19.0 L 53.2 17.6 L 56.5 16.2 L 59.6 14.9 L 62.5 13.5 L 65.3 12.2 L 67.06878614425659 11.348362255096436 L 67.0 11.2 L 67.13474349975586 11.31660499572754 L 68.0 10.9 Z M 168.3 93.5 L 166.0 91.7 L 163.4 89.7 L 160.4 87.7 L 157.1 85.6 L 153.4 83.5 L 149.5 81.2 L 145.2 78.8 L 140.6 76.5 L 141.2 74.8 L 146.3 75.9 L 151.1 76.9 L 155.7 78.0 L 159.9 79.3 L 163.8 80.5 L 167.5 81.9 L 170.9 83.3 L 174.0 84.7 L 176.9 86.3 L 179.6 87.9 L 181.6 92.0 L 180.2 96.3 L 176.1 98.4 L 171.8 97.0 L 170.2 95.3 Z " />
</g>
</svg>
