<svg xmlns="http://www.w3.org/2000/svg" xmlns:xlink="http://www.w3.org/1999/xlink" version="1.1" baseProfile="full" viewBox="0 0 200 200" width="200" height="200">
<g fill="black">
<path d="M 52.3 176.0 L 70.3 176.0 L 71.6 175.9 L 72.5 175.7 L 73.4 175.4 L 73.8 175.0 L 74.1 174.1 L 74.3 173.2 L 74.3 101.02588233947753 L 69.7 102.0 L 61.1 103.6 L 52.3 105.2 L 43.3 106.7 L 41.912183380126955 106.91351022720337 L 41.8 111.7 L 41.0 123.7 L 39.6 134.9 L 37.8 145.3 L 35.5 154.9 L 32.6 163.7 L 29.2 171.6 L 25.3 178.6 L 20.8 184.6 L 15.7 189.5 L 14.3 188.4 L 17.6 182.5 L 20.6 176.1 L 23.2 169.1 L 25.4 161.4 L 27.2 153.0 L 28.6 143.8 L 29.7 133.8 L 30.2 123.0 L 30.4 111.4 L 30.33439302444458 108.68824453353882 L 25.0 109.5 L 19.687836360931396 110.23466091156006 L 17.9 113.6 L 15.6 110.8 L 12.4 99.1 L 14.4 98.9 L 23.8 98.2 L 30.1 97.7206521987915 L 30.1 34.0 L 42.1 40.0 L 46.3 40.0 L 47.1 38.6 L 48.3 35.6 L 49.4 32.7 L 50.6 29.8 L 51.6 27.1 L 52.5 24.3 L 53.3 21.7 L 54.1 19.0 L 54.7 16.4 L 55.072999000549316 14.845837306976318 L 54.9 14.8 L 55.8 12.4 L 66.6 17.9 L 68.7 20.8 L 64.51913442611695 21.606833744049073 L 63.6 23.2 L 61.9 25.8 L 60.1 28.3 L 58.2 30.8 L 56.2 33.2 L 54.0 35.6 L 51.7 37.9 L 49.31363639831543 40.0 L 74.3 40.0 L 80.3 35.0 L 91.3 44.0 L 86.3 48.0 L 86.3 92.96385545730591 L 94.0 92.5 L 102.3 92.1 L 102.6 93.8 L 94.7 96.2 L 86.5 98.3 L 86.3 98.34578313827515 L 86.3 172.0 L 86.2 174.5 L 85.8 177.0 L 85.0 179.4 L 83.7 181.7 L 82.1 183.7 L 80.1 185.3 L 77.8 186.6 L 75.4 187.4 L 72.9 187.8 L 70.3 188.0 L 70.3 182.0 L 52.3 179.0 Z M 182.3 147.1 L 184.3 147.1 L 182.3 172.1 L 185.9 174.5 L 188.3 178.1 L 185.9 181.7 L 182.3 184.1 L 122.1 184.1 L 119.6 184.0 L 117.1 183.6 L 114.7 182.8 L 112.4 181.5 L 110.4 179.9 L 108.7 177.9 L 107.5 175.6 L 106.7 173.2 L 106.3 170.7 L 106.1 168.1 L 106.1 22.9 L 118.1 28.9 L 165.0 28.9 L 171.0 23.9 L 182.0 32.9 L 177.0 36.9 L 177.0 103.7 L 165.0 109.7 L 165.0 97.7 L 118.1 97.7 L 118.1 168.1 L 118.2 169.4 L 118.3 170.3 L 118.5 170.9 L 118.7 171.2 L 118.9 171.4 L 119.1 171.5 L 119.4 171.7 L 120.0 171.9 L 120.9 172.1 L 176.3 172.1 Z M 62.2 114.0 L 65.2 116.0 L 62.2 117.8 L 62.2 153.0 L 50.2 159.0 L 50.2 112.0 Z M 42.1 44.0 L 42.1 96.7 L 51.1 96.0 L 59.9 95.2 L 68.6 94.5 L 74.3 93.96976747512818 L 74.3 44.0 Z M 118.1 32.9 L 118.1 93.7 L 165.0 93.7 L 165.0 32.9 Z M 55.4 75.2 L 54.8 71.7 L 54.2 68.4 L 53.3 65.3 L 52.3 62.3 L 51.1 59.4 L 49.8 56.6 L 48.3 53.8 L 46.4 51.3 L 47.5 49.9 L 50.3 51.8 L 53.2 53.8 L 55.8 56.2 L 58.2 58.9 L 60.3 61.9 L 62.3 65.3 L 64.0 68.9 L 65.5 72.8 L 66.8 76.9 L 67.8 81.2 L 66.6 85.6 L 62.6 87.9 L 58.2 86.7 L 55.9 82.7 L 55.7 78.9 Z " />
</g>
</svg>
