<svg xmlns="http://www.w3.org/2000/svg" xmlns:xlink="http://www.w3.org/1999/xlink" version="1.1" baseProfile="full" viewBox="0 0 200 200" width="200" height="200">
<g fill="black">
<path d="M 162.1 128.0 L 161.3097086906433 127.59417476654053 L 158.8 129.1 L 158.8 158.7 L 146.8 164.7 L 146.8 154.7 L 104.003125 154.7 L 101.8 159.4 L 97.1 165.0 L 91.0 169.9 L 83.6 174.2 L 74.9 178.0 L 64.8 181.4 L 53.3 184.3 L 40.4 186.8 L 26.1 188.7 L 25.7 186.9 L 39.6 183.1 L 51.9 179.2 L 62.7 175.2 L 71.9 171.1 L 79.5 166.8 L 85.4 162.5 L 89.8 158.2 L 92.05 154.7 L 54.2 154.7 L 54.2 161.7 L 42.2 167.7 L 42.2 123.9551724433899 L 40.6 124.7 L 28.0 129.7 L 14.3 134.2 L 13.6 132.5 L 26.5 126.2 L 38.3 119.9 L 49.0 113.6 L 58.7 107.2 L 67.3 100.7 L 74.8 94.0 L 77.61212120056152 91.1 L 18.0 91.1 L 18.0 87.1 L 81.43823528289795 87.1 L 86.6 80.6 L 90.8 73.8 L 93.88000001907349 67.36000003814698 L 94.6 65.6 L 105.0 71.7 L 107.0 74.8 L 103.00486660003662 75.28217124938965 L 100.6 79.6 L 95.1 87.1 L 160.0 87.1 L 170.0 77.1 L 182.0 87.1 L 182.0 91.1 L 116.61578950881957 91.1 L 119.6 92.9 L 125.9 96.8 L 132.3 100.5 L 138.8 104.2 L 145.5 107.7 L 152.4 111.1 L 159.5 114.2 L 166.9 117.2 L 174.4 120.1 L 182.2 122.7 L 189.2 125.3 L 177.7 135.1 L 169.7 131.7 Z M 106.1 117.6 L 109.1 119.6 L 106.1 121.4 L 106.1 146.0 L 105.22714281082153 150.7 L 146.8 150.7 L 146.8 123.3 L 155.90129871368407 124.8168830871582 L 154.7 124.2 L 147.6 120.1 L 140.8 115.8 L 134.3 111.2 L 128.1 106.5 L 122.3 101.5 L 116.9 96.1 L 112.68947372436523 91.1 L 91.38169012069702 91.1 L 88.5 94.2 L 81.0 101.0 L 72.4 107.4 L 62.8 113.5 L 52.2 119.3 L 43.23636360168457 123.47272729873657 L 54.2 125.3 L 57.2 127.3 L 54.2 129.1 L 54.2 150.7 L 93.65500001907348 150.7 L 93.9 150.0 L 94.1 146.0 L 94.1 115.6 Z M 149.0 14.2 L 152.0 16.2 L 149.0 18.0 L 149.0 45.3 L 165.5 45.3 L 165.5 21.7 L 177.5 23.7 L 180.5 25.7 L 177.5 27.5 L 177.5 53.3 L 165.5 59.3 L 165.5 49.3 L 149.0 49.3 L 149.0 76.3 L 137.0 82.3 L 137.0 49.3 L 120.4 49.3 L 120.4 56.3 L 108.4 62.3 L 108.4 21.7 L 120.4 23.7 L 123.4 25.7 L 120.4 27.5 L 120.4 45.3 L 137.0 45.3 L 137.0 12.2 Z M 66.0 14.2 L 69.0 16.2 L 66.0 18.0 L 66.0 45.3 L 82.5 45.3 L 82.5 21.7 L 94.5 23.7 L 97.5 25.7 L 94.5 27.5 L 94.5 53.3 L 82.5 59.3 L 82.5 49.3 L 65.4 49.3 L 65.1 51.2 L 63.2 56.5 L 60.3 61.3 L 56.5 65.6 L 51.8 69.2 L 46.4 72.4 L 40.3 75.1 L 33.4 77.3 L 25.6 79.0 L 17.2 80.1 L 16.7 78.4 L 24.6 75.3 L 31.5 72.2 L 37.5 69.1 L 42.5 65.9 L 46.6 62.6 L 49.7 59.2 L 51.9 55.8 L 53.3 52.5 L 53.864705848693845 49.3 L 37.4 49.3 L 37.4 56.3 L 25.4 62.3 L 25.4 21.7 L 37.4 23.7 L 40.4 25.7 L 37.4 27.5 L 37.4 45.3 L 54.0 45.3 L 54.0 12.2 Z " />
</g>
</svg>
