<svg xmlns="http://www.w3.org/2000/svg" xmlns:xlink="http://www.w3.org/1999/xlink" version="1.1" baseProfile="full" viewBox="0 0 200 200" width="200" height="200">
<g fill="black">
<path d="M 93.6 135.9 L 95.1 139.2 L 91.32142858505249 139.2 L 90.7 140.1 L 87.7 144.2 L 84.5 148.3 L 81.2 152.4 L 77.7 156.4 L 74.1 160.4 L 70.3 164.4 L 66.3 168.2 L 64.31175165176391 169.99889135360718 L 72.4 169.8 L 85.2 169.4 L 98.5 169.1 L 112.3 168.8 L 126.6 168.5 L 141.5 168.3 L 149.71219511032103 168.3 L 148.9 167.4 L 144.8 163.3 L 140.4 159.3 L 135.8 155.4 L 130.9 151.5 L 125.8 147.5 L 120.4 143.5 L 121.3 141.9 L 127.7 144.2 L 133.7 146.9 L 139.5 150.0 L 145.0 153.3 L 150.2 156.8 L 155.1 160.5 L 159.8 164.4 L 164.1 168.5 L 168.2 172.9 L 172.1 177.4 L 173.1 181.8 L 170.7 185.8 L 166.2 186.7 L 162.3 184.4 L 159.4 180.0 L 156.2 175.7 L 152.6 171.5 L 151.9341794013977 170.76219873428346 L 141.7 172.1 L 127.0 173.8 L 112.7 175.3 L 98.9 176.7 L 85.7 177.9 L 73.0 179.1 L 60.8 180.1 L 49.1 181.1 L 37.9 182.0 L 31.3470871925354 182.48993740081787 L 29.4 185.7 L 27.2 182.8 L 24.7 171.0 L 26.7 170.9 L 37.3 170.6 L 48.5 170.4 L 58.91244020462036 170.13301439285277 L 59.3 169.5 L 62.2 164.8 L 65.2 160.2 L 68.1 155.7 L 70.9 151.3 L 73.6 146.9 L 76.2 142.6 L 78.7 138.3 L 81.1 134.0 L 82.77619047164917 130.8 L 14.0 130.8 L 14.0 126.8 L 94.0 126.8 L 94.0 100.0 L 29.0 100.0 L 29.0 96.0 L 94.0 96.0 L 94.0 73.9 L 106.0 75.9 L 109.0 77.9 L 106.0 79.7 L 106.0 96.0 L 149.0 96.0 L 159.0 86.0 L 171.0 96.0 L 171.0 100.0 L 106.0 100.0 L 106.0 126.8 L 164.0 126.8 L 174.0 116.8 L 186.0 126.8 L 186.0 130.8 L 86.46000003814697 130.8 Z M 174.7 69.7 L 174.7 73.7 L 25.2 73.7 L 25.2 69.7 L 152.7 69.7 L 162.7 59.7 Z M 134.0 13.3 L 137.0 15.3 L 134.0 17.1 L 134.0 35.0 L 165.0 35.0 L 175.0 25.0 L 187.0 35.0 L 187.0 39.0 L 134.0 39.0 L 134.0 57.8 L 122.0 63.8 L 122.0 39.0 L 78.0 39.0 L 78.0 57.8 L 66.0 63.8 L 66.0 39.0 L 13.0 39.0 L 13.0 35.0 L 66.0 35.0 L 66.0 11.3 L 78.0 13.3 L 81.0 15.3 L 78.0 17.1 L 78.0 35.0 L 122.0 35.0 L 122.0 11.3 Z " />
</g>
</svg>
