<svg xmlns="http://www.w3.org/2000/svg" xmlns:xlink="http://www.w3.org/1999/xlink" version="1.1" baseProfile="full" viewBox="0 0 200 200" width="200" height="200">
<g fill="black">
<path d="M 119.2 175.6 L 138.4 175.6 L 139.3 175.4 L 139.9 175.2 L 140.5 174.9 L 140.6 174.7 L 140.8 174.4 L 141.0 173.8 L 141.1 172.9 L 141.2 171.6 L 141.2 145.26363639831544 L 133.0 151.6 L 125.7 145.6 L 119.2 139.1 L 113.7 132.0 L 108.9 124.4 L 105.1 116.3 L 102.2 107.8 L 101.54644546508788 104.99905214309692 L 100.1 109.7 L 97.0 117.0 L 93.3 123.9 L 89.1 130.3 L 84.2 136.2 L 78.8 141.6 L 72.9 146.5 L 66.3 150.7 L 59.2 154.3 L 58.7 153.5 L 58.7 180.9 L 46.7 186.9 L 46.7 85.6 L 58.7 91.6 L 99.25744676589966 91.6 L 99.0 89.4 L 98.8 79.6 L 99.77058820724487 69.7 L 66.2 69.7 L 66.2 65.7 L 96.73999996185303 65.7 L 100.7 62.4 L 111.7 71.4 L 106.7 74.4 L 102.5971697807312 76.45141506195068 L 103.0 79.3 L 104.8 88.5 L 105.62906980514526 91.6 L 141.2 91.6 L 147.2 86.6 L 158.2 95.6 L 153.2 99.6 L 153.2 171.6 L 153.1 174.2 L 152.6 176.7 L 151.8 179.1 L 150.6 181.4 L 148.9 183.4 L 146.9 185.0 L 144.7 186.2 L 142.3 187.1 L 139.8 187.5 L 137.2 187.6 L 137.2 181.6 L 119.2 178.6 Z M 58.7 95.6 L 58.7 152.26779661178588 L 64.1 147.6 L 69.3 142.4 L 74.1 137.1 L 78.3 131.5 L 82.0 125.7 L 85.1 119.5 L 87.7 113.1 L 89.8 106.4 L 91.4 99.4 L 91.95733337402343 95.6 Z M 106.69883718490601 95.6 L 107.1 97.1 L 110.0 105.0 L 113.5 112.4 L 117.7 119.1 L 122.4 125.3 L 127.8 130.9 L 133.8 136.0 L 140.4 140.7 L 141.2 141.23333330154418 L 141.2 95.6 Z M 173.0 97.6 L 171.9 92.0 L 170.6 86.6 L 169.1 81.5 L 167.4 76.7 L 165.5 72.1 L 163.5 67.7 L 161.3 63.5 L 159.0 59.3 L 160.3 58.1 L 164.3 61.1 L 167.9 64.7 L 171.2 68.8 L 174.2 73.3 L 176.9 78.3 L 179.4 83.6 L 181.6 89.2 L 183.5 95.2 L 185.1 101.5 L 186.5 108.2 L 185.3 112.6 L 181.4 114.9 L 177.0 113.7 L 174.6 109.8 L 173.9 103.6 Z M 19.5 118.9 L 15.6 116.5 L 14.5 112.1 L 15.8 106.2 L 17.4 100.4 L 19.1 94.7 L 21.0 89.2 L 23.2 83.8 L 25.5 78.6 L 28.1 73.5 L 31.0 68.5 L 34.2 63.8 L 37.7 59.4 L 39.2 60.3 L 37.5 65.6 L 35.8 70.8 L 34.2 76.0 L 32.6 81.3 L 31.2 86.5 L 29.9 91.9 L 28.8 97.3 L 27.8 102.7 L 27.0 108.3 L 26.3 113.9 L 23.9 117.8 Z M 127.0 13.9 L 130.0 15.9 L 127.0 17.7 L 127.0 32.7 L 143.2 32.7 L 153.2 22.7 L 165.2 32.7 L 165.2 36.7 L 127.0 36.7 L 127.0 52.7 L 115.0 58.7 L 115.0 36.7 L 85.0 36.7 L 85.0 52.7 L 73.0 58.7 L 73.0 36.7 L 34.7 36.7 L 34.7 32.7 L 73.0 32.7 L 73.0 11.9 L 85.0 13.9 L 88.0 15.9 L 85.0 17.7 L 85.0 32.7 L 115.0 32.7 L 115.0 11.9 Z " />
</g>
</svg>
