<svg xmlns="http://www.w3.org/2000/svg" xmlns:xlink="http://www.w3.org/1999/xlink" version="1.1" baseProfile="full" viewBox="0 0 200 200" width="200" height="200">
<g fill="black">
<path d="M 152.4 178.5 L 150.2 179.3 L 148.1 180.0 L 145.9 180.5 L 143.7 180.9 L 143.125 181.0 L 162.0 181.0 L 172.0 171.0 L 184.0 181.0 L 184.0 185.0 L 18.0 185.0 L 18.0 181.0 L 136.8 181.0 L 136.8 175.5 L 116.8 172.5 L 116.8 169.5 L 138.5 169.5 L 141.7 169.1 L 143.3 168.8 L 144.8 168.4 L 147.8 167.4 L 150.8 166.0 L 151.59130430221558 165.54782609939576 L 151.8 165.2 L 152.4 163.5 L 153.0 161.0 L 153.5 157.6 L 154.0 153.4 L 154.3 148.4 L 154.6 142.8 L 154.8 136.4 L 154.8 131.3 L 96.59797983169555 131.3 L 95.8 139.2 L 93.4 147.9 L 89.5 155.4 L 84.1 161.8 L 77.4 166.9 L 69.4 170.9 L 60.2 174.1 L 49.7 176.6 L 37.8 178.5 L 24.5 180.0 L 24.2 178.2 L 37.1 174.8 L 48.4 171.4 L 58.1 167.9 L 66.1 164.1 L 72.6 159.9 L 77.4 155.3 L 80.9 150.2 L 83.3 144.4 L 84.6 137.5 L 84.75121955871582 131.3 L 32.2 131.3 L 32.2 127.3 L 154.8 127.3 L 160.8 122.3 L 171.8 131.3 L 166.8 134.3 L 166.8 136.6 L 166.6 143.2 L 166.3 149.1 L 165.9 154.5 L 165.4 159.1 L 164.7 163.2 L 163.9 166.8 L 162.8 169.9 L 161.2 172.8 L 158.5 175.4 L 154.5 177.6 Z M 152.4 111.0 L 150.2 111.8 L 148.1 112.5 L 145.9 113.0 L 143.7 113.4 L 143.125 113.5 L 162.0 113.5 L 172.0 103.5 L 184.0 113.5 L 184.0 117.5 L 18.0 117.5 L 18.0 113.5 L 136.8 113.5 L 136.8 108.0 L 116.8 105.0 L 116.8 102.0 L 138.5 102.0 L 141.7 101.6 L 143.3 101.3 L 144.8 100.9 L 147.8 99.9 L 150.8 98.5 L 151.59130430221558 98.04782609939575 L 151.8 97.7 L 152.4 96.0 L 153.0 93.5 L 153.5 90.1 L 154.0 85.9 L 154.3 80.9 L 154.6 75.3 L 154.8 68.9 L 154.8 63.8 L 96.59797983169555 63.8 L 95.8 71.7 L 93.4 80.4 L 89.5 87.9 L 84.1 94.3 L 77.4 99.4 L 69.4 103.4 L 60.2 106.6 L 49.7 109.1 L 37.8 111.0 L 24.5 112.5 L 24.2 110.7 L 37.1 107.3 L 48.4 103.9 L 58.1 100.4 L 66.1 96.6 L 72.6 92.4 L 77.4 87.8 L 80.9 82.7 L 83.3 76.9 L 84.6 70.0 L 84.75121955871582 63.8 L 32.2 63.8 L 32.2 59.8 L 154.8 59.8 L 160.8 54.8 L 171.8 63.8 L 166.8 66.8 L 166.8 69.1 L 166.6 75.7 L 166.3 81.6 L 165.9 87.0 L 165.4 91.6 L 164.7 95.7 L 163.9 99.3 L 162.8 102.4 L 161.2 105.3 L 158.5 107.9 L 154.5 110.1 Z M 134.0 14.5 L 137.0 16.5 L 134.0 18.3 L 134.0 32.5 L 165.0 32.5 L 175.0 22.5 L 187.0 32.5 L 187.0 36.5 L 134.0 36.5 L 134.0 51.8 L 122.0 57.8 L 122.0 36.5 L 78.0 36.5 L 78.0 51.8 L 66.0 57.8 L 66.0 36.5 L 13.0 36.5 L 13.0 32.5 L 66.0 32.5 L 66.0 12.5 L 78.0 14.5 L 81.0 16.5 L 78.0 18.3 L 78.0 32.5 L 122.0 32.5 L 122.0 12.5 Z " />
</g>
</svg>
