<svg xmlns="http://www.w3.org/2000/svg" xmlns:xlink="http://www.w3.org/1999/xlink" version="1.1" baseProfile="full" viewBox="0 0 200 200" width="200" height="200">
<g fill="black">
<path d="M 142.88232946395874 124.1144395828247 L 142.926042842865 124.22829761505128 L 143.07307691574096 124.1057692527771 Z M 156.2 122.1 L 154.1 122.6 L 151.9 123.1 L 149.8 123.5 L 147.6 123.8 L 146.68999996185303 123.88272724151611 L 156.0 131.5 L 151.0 134.5 L 139.0 139.5 L 139.0 137.5 L 134.8 138.7 L 130.5 139.8 L 126.1 140.9 L 116.9 142.9 L 112.1 143.8 L 108.88688526153564 144.32459020614624 L 109.0 144.4 L 106.0 146.2 L 106.0 152.8 L 166.0 152.8 L 176.0 142.8 L 188.0 152.8 L 188.0 156.8 L 106.0 156.8 L 106.0 173.7 L 105.8 176.3 L 105.4 178.8 L 104.6 181.2 L 103.3 183.5 L 101.7 185.5 L 99.7 187.1 L 97.4 188.4 L 95.0 189.2 L 92.5 189.6 L 90.0 189.7 L 90.0 183.7 L 70.0 180.7 L 70.0 177.7 L 91.2 177.7 L 92.1 177.5 L 93.0 177.2 L 93.4 176.8 L 93.7 175.9 L 93.9 175.0 L 94.0 173.7 L 94.0 156.8 L 13.0 156.8 L 13.0 152.8 L 94.0 152.8 L 94.0 140.4 L 104.38032789230347 142.1300546646118 L 106.2 141.2 L 110.6 139.0 L 114.9 136.9 L 119.2 135.0 L 126.7526315689087 131.5 L 44.0 131.5 L 44.0 127.5 L 135.3 127.5 L 139.1 125.7 L 142.30529251098633 124.14066848754882 L 141.0 124.2 L 141.0 118.2 L 124.07692308425904 115.6615385055542 L 123.4 116.0 L 123.4 115.56000003814697 L 121.0 115.2 L 121.0 112.2 L 123.4 112.2 L 123.4 106.0 L 70.6 106.0 L 70.6 113.0 L 58.6 119.0 L 58.6 67.8 L 70.6 73.8 L 123.4 73.8 L 129.4 68.8 L 140.4 77.8 L 135.4 81.8 L 135.4 110.0 L 131.0 112.2 L 141.0 112.2 L 142.7 112.1 L 144.5 112.0 L 146.2 111.9 L 151.3 111.0 L 153.0 110.5 L 154.6 110.0 L 156.3 109.5 L 157.9 108.8 L 159.9 107.7 L 161.8 106.1 L 163.6 103.7 L 165.3 100.6 L 166.8 96.6 L 168.0 91.7 L 169.0 86.0 L 169.7 79.5 L 170.0 72.3 L 170.0 66.0 L 59.36842107772827 66.0 L 57.0 68.0 L 52.1 71.6 L 46.8 75.2 L 41.0 78.6 L 34.8 81.9 L 28.1 85.0 L 21.0 87.9 L 13.3 90.5 L 12.6 88.9 L 19.3 84.5 L 25.6 80.3 L 31.4 76.3 L 36.9 72.3 L 41.8 68.3 L 46.3 64.4 L 50.3 60.5 L 53.9 56.6 L 56.9 52.8 L 58.92659044265747 49.91600589752197 L 58.9 49.9 L 60.0 48.4 L 66.0 53.42173910140991 L 66.0 34.6 L 13.0 34.6 L 13.0 30.6 L 66.0 30.6 L 66.0 11.8 L 78.0 13.8 L 81.0 15.8 L 78.0 17.6 L 78.0 30.6 L 122.0 30.6 L 122.0 11.8 L 134.0 13.8 L 137.0 15.8 L 134.0 17.6 L 134.0 30.6 L 165.0 30.6 L 175.0 20.6 L 187.0 30.6 L 187.0 34.6 L 134.0 34.6 L 134.0 48.6 L 122.0 54.6 L 122.0 34.6 L 78.0 34.6 L 78.0 48.6 L 66.88130083084107 54.159349632263186 L 69.2 56.1 L 70.4 59.5 L 66.5091477394104 59.16458168029785 L 65.6 60.2 L 63.755000019073485 62.0 L 170.0 62.0 L 176.0 57.0 L 187.0 66.0 L 182.0 69.0 L 181.9594985961914 69.01687564849854 L 182.0 72.5 L 181.6 80.4 L 180.9 87.6 L 179.8 94.2 L 178.2 100.1 L 176.2 105.5 L 173.7 110.2 L 170.6 114.2 L 166.8 117.5 L 162.5 119.9 L 160.4 120.7 Z M 70.6 91.5 L 70.6 102.0 L 123.4 102.0 L 123.4 91.5 Z M 70.6 77.8 L 70.6 87.5 L 123.4 87.5 L 123.4 77.8 Z " />
</g>
</svg>
