<svg xmlns="http://www.w3.org/2000/svg" xmlns:xlink="http://www.w3.org/1999/xlink" version="1.1" baseProfile="full" viewBox="0 0 200 200" width="200" height="200">
<g fill="black">
<path d="M 165.8 180.0 L 159.7 174.3 L 154.7 167.2 L 150.6 158.8 L 147.5 149.3 L 145.2 138.6 L 143.7 126.6 L 142.9 113.4 L 142.9847222328186 101.2 L 36.0 101.2 L 36.0 97.2 L 143.0 97.2 L 149.0 92.2 L 160.0 101.2 L 155.0 104.2 L 154.9 104.24166669845582 L 154.9 113.1 L 155.6 125.6 L 157.0 136.6 L 159.1 146.2 L 161.8 154.3 L 165.0 161.1 L 168.8 166.5 L 173.1 170.5 L 176.78403358459474 172.80252103805543 L 182.0 150.2 L 184.0 150.2 L 182.1 174.9 L 183.3 175.3 L 187.0 178.1 L 187.8 182.6 L 185.1 186.2 L 180.6 187.0 L 172.8 184.3 Z M 108.1 180.7 L 106.3 182.4 L 104.4 183.9 L 102.4 185.2 L 100.2 186.2 L 97.9 187.0 L 95.6 187.6 L 93.2 187.9 L 90.7 188.0 L 90.7 182.0 L 70.7 179.0 L 70.7 176.0 L 92.1 176.0 L 93.4 175.8 L 94.6 175.5 L 96.6 174.7 L 97.6 174.1 L 98.5 173.4 L 99.3 172.5 L 100.2 171.5 L 101.0 170.4 L 101.3 169.8 L 101.7 168.7 L 102.1 167.1 L 102.5 165.0 L 102.8 162.5 L 103.0 159.5 L 103.2 156.2 L 103.26833715438843 153.6715262413025 L 103.2 153.7 L 103.2 145.7 L 73.72876710891724 145.7 L 72.9 151.2 L 70.5 157.9 L 67.1 164.0 L 62.6 169.3 L 57.1 173.9 L 50.7 177.8 L 43.6 181.0 L 35.5 183.5 L 26.7 185.2 L 17.0 186.2 L 16.7 184.4 L 25.8 181.5 L 33.8 178.4 L 40.8 175.0 L 46.8 171.3 L 51.8 167.3 L 55.7 163.1 L 58.6 158.7 L 60.6 154.0 L 61.7 148.9 L 61.8777777671814 145.7 L 38.2 145.7 L 38.2 141.7 L 103.2 141.7 L 109.2 136.7 L 120.2 145.7 L 115.3 148.63999996185302 L 115.3 152.6 L 115.2 156.6 L 115.0 160.3 L 114.7 163.7 L 114.3 166.8 L 113.8 169.6 L 113.1 172.2 L 112.3 174.6 L 111.1 176.8 L 109.7 178.9 Z M 122.3 143.5 L 117.4 140.5 L 113.0 137.1 L 109.0 133.6 L 105.6 129.8 L 102.6 125.9 L 100.2 121.7 L 99.41886796951295 119.79056606292724 L 98.2 120.4 L 98.2 116.38000001907349 L 97.57391300201417 113.5 L 59.5 113.5 L 59.5 109.5 L 93.28000001907348 109.5 L 98.2 105.4 L 109.2 114.4 L 104.2 117.4 L 104.01956520080566 117.49021739959717 L 104.9 118.4 L 108.0 121.3 L 111.3 123.9 L 114.9 126.5 L 118.8 128.8 L 123.0 131.0 L 127.5 133.0 L 132.4 134.9 L 137.7 136.6 L 144.8 139.1 L 133.2 149.0 L 127.5 146.4 Z M 60.1 119.4 L 61.8 122.5 L 57.751087474822995 122.70587692260742 L 57.4 123.2 L 54.3 126.8 L 50.9 130.3 L 47.0 133.5 L 42.8 136.5 L 38.2 139.3 L 33.2 142.0 L 27.9 144.4 L 22.1 146.5 L 15.8 148.3 L 15.1 146.6 L 20.4 143.1 L 25.3 139.7 L 29.8 136.4 L 33.9 133.1 L 37.6 129.8 L 40.8 126.6 L 43.6 123.4 L 46.0 120.1 L 47.9 116.9 L 49.041111087799074 114.61777782440186 L 49.0 114.6 L 50.0 112.7 Z M 97.8 112.53529415130615 L 98.16052627563477 112.38684206008911 L 97.8 112.26666669845581 Z M 65.2 47.3 L 67.3 50.2 L 63.563033199310304 50.92116899490357 L 61.9 54.6 L 58.414492797851565 61.1 L 159.8181818008423 61.1 L 168.0 52.1 L 178.0 61.1 L 178.0 65.1 L 55.87384614944458 65.1 L 54.0 68.0 L 49.6 74.3 L 44.7 80.1 L 39.4 85.6 L 33.8 90.7 L 27.8 95.4 L 21.3 99.6 L 14.4 103.2 L 13.5 101.7 L 19.0 96.5 L 24.3 91.3 L 29.2 86.0 L 33.8 80.5 L 38.0 74.8 L 41.9 69.0 L 45.5 62.8 L 48.6 56.5 L 51.5 49.9 L 53.662573146820066 44.01780099868775 L 53.6 44.0 L 54.5 41.7 Z M 166.0 79.2 L 166.0 83.2 L 52.0 83.2 L 52.0 79.2 L 147.8181818008423 79.2 L 156.0 70.2 Z M 132.6 15.4 L 135.6 17.4 L 132.6 19.2 L 132.6 31.6 L 160.6 31.6 L 170.6 21.6 L 182.6 31.6 L 182.6 35.6 L 132.6 35.6 L 132.6 52.2 L 120.6 58.2 L 120.6 35.6 L 79.4 35.6 L 79.4 52.2 L 67.4 58.2 L 67.4 35.6 L 17.3 35.6 L 17.3 31.6 L 67.4 31.6 L 67.4 13.4 L 79.4 15.4 L 82.4 17.4 L 79.4 19.2 L 79.4 31.6 L 120.6 31.6 L 120.6 13.4 Z " />
</g>
</svg>
