<svg xmlns="http://www.w3.org/2000/svg" xmlns:xlink="http://www.w3.org/1999/xlink" version="1.1" baseProfile="full" viewBox="0 0 200 200" width="200" height="200">
<g fill="black">
<path d="M 52.0 141.0 L 52.0 177.7 L 76.0 177.7 L 76.0 141.0 Z M 88.0 141.0 L 88.0 177.7 L 112.0 177.7 L 112.0 141.0 Z M 124.0 141.0 L 124.0 177.7 L 148.0 177.7 L 148.0 141.0 Z M 159.9 136.5 L 159.18878049850463 136.24536581039428 L 165.0 141.0 L 160.0 145.0 L 160.0 177.7 L 164.0 177.7 L 174.0 167.7 L 186.0 177.7 L 186.0 181.7 L 14.0 181.7 L 14.0 177.7 L 40.0 177.7 L 40.0 135.1627450942993 L 29.1 137.3 L 12.1 139.5 L 11.8 137.7 L 28.3 133.6 L 42.9 129.2 L 55.7 124.5 L 66.6 119.4 L 75.7 113.9 L 82.8 108.2 L 88.1 102.2 L 89.19016389846801 100.3 L 13.0 100.3 L 13.0 96.3 L 42.0 96.3 L 42.0 59.3 L 54.0 65.3 L 94.0 65.3 L 94.0 51.2 L 106.0 53.2 L 109.0 55.2 L 106.0 57.0 L 106.0 65.3 L 146.0 65.3 L 152.0 60.3 L 163.0 69.3 L 158.0 73.3 L 158.0 96.3 L 165.0 96.3 L 175.0 86.3 L 187.0 96.3 L 187.0 100.3 L 106.67826089859008 100.3 L 110.7 102.8 L 118.0 107.2 L 125.3 111.2 L 132.7 114.8 L 140.1 118.0 L 147.7 120.8 L 155.3 123.1 L 163.1 125.1 L 170.9 126.6 L 179.0 127.7 L 188.8 129.3 L 176.9 140.8 L 168.3 138.9 Z M 101.43999996185303 100.3 L 101.2 100.9 L 96.0 108.5 L 88.9 115.2 L 80.2 121.1 L 69.9 126.2 L 58.0 130.6 L 45.82476186752319 133.91238098144532 L 52.0 137.0 L 148.0 137.0 L 151.99585494995117 133.67012090682982 L 151.8 133.6 L 143.8 130.2 L 136.2 126.4 L 128.7 122.1 L 121.5 117.3 L 114.7 112.0 L 108.2 106.1 L 102.75692310333253 100.3 Z M 103.03999996185303 96.3 L 146.0 96.3 L 146.0 69.3 L 106.0 69.3 L 106.0 83.2 L 104.6 92.4 Z M 134.0 14.3 L 137.0 16.3 L 134.0 18.1 L 134.0 35.1 L 165.0 35.1 L 175.0 25.1 L 187.0 35.1 L 187.0 39.1 L 134.0 39.1 L 134.0 52.8 L 122.0 58.8 L 122.0 39.1 L 78.0 39.1 L 78.0 52.8 L 66.0 58.8 L 66.0 39.1 L 13.0 39.1 L 13.0 35.1 L 66.0 35.1 L 66.0 12.3 L 78.0 14.3 L 81.0 16.3 L 78.0 18.1 L 78.0 35.1 L 122.0 35.1 L 122.0 12.3 Z M 54.0 69.3 L 54.0 96.3 L 91.48524589538575 96.3 L 91.6 96.1 L 93.5 89.8 L 94.0 83.2 L 94.0 69.3 Z " />
</g>
</svg>
