<svg xmlns="http://www.w3.org/2000/svg" xmlns:xlink="http://www.w3.org/1999/xlink" version="1.1" baseProfile="full" viewBox="0 0 200 200" width="200" height="200">
<g fill="black">
<path d="M 177.3 125.6 L 177.3 129.6 L 132.5 129.6 L 132.5 149.7 L 166.2 149.7 L 176.2 139.7 L 188.2 149.7 L 188.2 153.7 L 132.5 153.7 L 132.5 183.1 L 120.5 189.1 L 120.5 153.7 L 64.7 153.7 L 64.7 149.7 L 120.5 149.7 L 120.5 129.6 L 75.6 129.6 L 75.6 125.6 L 159.11818180084228 125.6 L 167.3 116.6 Z M 38.8 188.7 L 34.8 186.5 L 33.4 182.1 L 34.0 177.1 L 34.1 172.6 L 33.7 168.6 L 32.7 164.9 L 31.3 161.5 L 29.3 158.4 L 26.6 155.5 L 23.3 152.7 L 19.2 150.1 L 14.3 147.8 L 14.7 146.1 L 20.3 146.9 L 25.5 148.3 L 30.2 150.4 L 32.58840284347534 152.0491353034973 L 32.8 151.7 L 35.4 147.7 L 38.6 142.8 L 42.4 137.1 L 47.0 130.5 L 52.1 123.0 L 58.0 114.7 L 64.7 105.6 L 72.1 95.7 L 73.7 96.7 L 67.9 107.6 L 62.6 117.6 L 57.7 126.5 L 53.4 134.4 L 49.7 141.4 L 46.6 147.5 L 44.1 152.6 L 42.3 156.7 L 41.1 159.8 L 40.797109031677245 160.95098552703857 L 40.9 161.1 L 43.1 165.9 L 44.6 171.3 L 45.3 177.1 L 45.4 183.3 L 43.1 187.3 Z M 94.2 62.8 L 158.7 62.8 L 164.7 57.8 L 175.7 66.8 L 170.7 70.8 L 170.7 111.7 L 158.7 117.7 L 158.7 109.7 L 94.2 109.7 L 94.2 112.7 L 82.2 118.7 L 82.2 56.8 Z M 34.1 109.9 L 32.7 108.4 L 30.9 106.7 L 28.7 105.0 L 26.2 103.3 L 23.3 101.6 L 20.1 99.9 L 16.6 98.0 L 12.6 96.5 L 13.0 94.8 L 17.3 95.4 L 21.4 95.9 L 25.2 96.5 L 28.8 97.2 L 32.1 98.2 L 35.2 99.2 L 38.0 100.5 L 40.7 101.9 L 43.1 103.6 L 45.3 105.5 L 46.4 109.9 L 44.2 113.9 L 39.8 115.0 L 35.8 112.8 L 35.1 111.4 Z M 94.2 88.3 L 94.2 105.7 L 158.7 105.7 L 158.7 88.3 Z M 94.2 66.8 L 94.2 84.3 L 158.7 84.3 L 158.7 66.8 Z M 48.7 74.8 L 47.2 73.2 L 45.4 71.5 L 43.3 69.8 L 40.9 68.1 L 38.2 66.4 L 35.2 64.6 L 31.9 62.8 L 28.3 61.4 L 28.7 59.6 L 32.7 60.3 L 36.5 60.7 L 40.1 61.3 L 43.5 62.1 L 46.7 63.0 L 49.7 64.1 L 52.5 65.4 L 55.2 66.8 L 57.6 68.3 L 59.9 70.1 L 61.2 74.5 L 59.2 78.6 L 54.8 79.9 L 50.7 77.9 L 49.8 76.4 Z M 134.0 14.2 L 137.0 16.2 L 134.0 18.0 L 134.0 33.7 L 165.0 33.7 L 175.0 23.7 L 187.0 33.7 L 187.0 37.7 L 134.0 37.7 L 134.0 54.3 L 122.0 60.3 L 122.0 37.7 L 78.0 37.7 L 78.0 54.3 L 66.0 60.3 L 66.0 37.7 L 13.0 37.7 L 13.0 33.7 L 66.0 33.7 L 66.0 12.2 L 78.0 14.2 L 81.0 16.2 L 78.0 18.0 L 78.0 33.7 L 122.0 33.7 L 122.0 12.2 Z " />
</g>
</svg>
