<svg xmlns="http://www.w3.org/2000/svg" xmlns:xlink="http://www.w3.org/1999/xlink" version="1.1" baseProfile="full" viewBox="0 0 200 200" width="200" height="200">
<g fill="black">
<path d="M 91.0 91.0 L 91.0 95.0 L 55.5 95.0 L 55.5 182.3 L 44.5 187.8 L 44.5 95.0 L 13.5 95.0 L 13.5 91.0 L 69.0 91.0 L 79.0 81.0 Z M 182.0 146.2 L 184.0 146.2 L 182.0 171.2 L 185.6 173.6 L 188.0 177.2 L 185.6 180.8 L 182.0 183.2 L 154.0 183.2 L 151.4 183.1 L 148.9 182.7 L 146.5 181.8 L 144.2 180.6 L 142.2 179.0 L 140.6 177.0 L 139.3 174.7 L 138.5 172.3 L 138.1 169.8 L 138.0 167.2 L 138.0 115.3 L 126.77950820922851 115.3 L 126.2 125.4 L 124.3 136.8 L 121.1 147.2 L 116.6 156.5 L 110.8 164.8 L 103.9 171.9 L 95.8 177.8 L 86.6 182.6 L 76.4 186.0 L 65.2 188.2 L 64.7 186.5 L 75.1 182.5 L 84.2 177.8 L 92.1 172.4 L 98.6 166.4 L 104.1 159.7 L 108.4 152.1 L 111.6 143.8 L 113.8 134.6 L 114.9 124.5 L 114.98288288116456 115.3 L 108.0 115.3 L 108.0 127.3 L 96.0 133.3 L 96.0 56.9 L 108.0 62.9 L 163.0 62.9 L 169.0 57.9 L 180.0 66.9 L 175.0 70.9 L 175.0 121.3 L 163.0 127.3 L 163.0 115.3 L 150.0 115.3 L 150.0 168.5 L 150.2 169.4 L 150.5 170.3 L 150.7 170.5 L 150.9 170.6 L 151.2 170.8 L 151.8 171.0 L 152.7 171.2 L 176.0 171.2 Z M 33.3 108.8 L 36.0 110.8 L 33.3 112.52340421676635 L 33.3 133.6 L 32.8 140.1 L 32.0 146.2 L 30.9 151.8 L 29.5 157.0 L 27.8 161.7 L 25.7 165.8 L 23.2 169.4 L 20.4 172.4 L 17.3 174.7 L 14.0 176.4 L 13.1 175.0 L 15.2 172.4 L 16.9 169.5 L 18.3 166.5 L 19.6 163.1 L 20.6 159.3 L 21.4 155.0 L 22.0 150.4 L 22.3 145.2 L 22.4 139.6 L 22.3 133.6 L 22.3 106.8 Z M 80.0 108.8 L 83.0 110.8 L 80.0 112.6 L 80.0 160.2 L 68.0 166.2 L 68.0 106.8 Z M 108.0 66.9 L 108.0 111.3 L 163.0 111.3 L 163.0 66.9 Z M 81.2 62.9 L 81.2 66.9 L 22.4 66.9 L 22.4 62.9 L 59.2 62.9 L 69.2 52.9 Z M 134.0 14.4 L 137.0 16.4 L 134.0 18.2 L 134.0 30.2 L 165.0 30.2 L 175.0 20.2 L 187.0 30.2 L 187.0 34.2 L 134.0 34.2 L 134.0 47.4 L 122.0 53.4 L 122.0 34.2 L 78.0 34.2 L 78.0 47.4 L 66.0 53.4 L 66.0 34.2 L 13.0 34.2 L 13.0 30.2 L 66.0 30.2 L 66.0 12.4 L 78.0 14.4 L 81.0 16.4 L 78.0 18.2 L 78.0 30.2 L 122.0 30.2 L 122.0 12.4 Z " />
</g>
</svg>
