<svg xmlns="http://www.w3.org/2000/svg" xmlns:xlink="http://www.w3.org/1999/xlink" version="1.1" baseProfile="full" viewBox="0 0 200 200" width="200" height="200">
<g fill="black">
<path d="M 156.2 184.9 L 147.6 182.3 L 140.2 178.9 L 134.1 174.7 L 129.2 169.8 L 125.4 164.3 L 122.7 158.4 L 122.2815580368042 156.7785373687744 L 122.0 157.7 L 119.6 164.3 L 116.7 170.4 L 113.4 175.9 L 109.8 180.8 L 105.7 185.0 L 101.2 188.4 L 99.9 187.1 L 102.8 182.5 L 105.3 177.8 L 107.7 172.8 L 109.7 167.4 L 111.5 161.5 L 113.1 155.2 L 114.3 148.5 L 115.3 141.2 L 116.0 133.5 L 116.3 125.2 L 116.36227293014527 125.2036325454712 L 116.5 123.0 L 128.3 125.9 L 131.2 128.1 L 127.84701461791992 129.84097318649293 L 127.3 134.6 L 125.9 142.8 L 124.37720565795898 149.69736261367797 L 125.0 150.9 L 128.0 155.8 L 131.4 160.2 L 135.1 163.9 L 138.2 166.10444440841675 L 138.2 111.2 L 106.0 111.2 L 106.0 107.2 L 138.2 107.2 L 138.2 80.4 L 112.2 80.4 L 112.2 76.4 L 138.2 76.4 L 138.2 52.7 L 150.2 54.7 L 153.2 56.7 L 150.2 58.5 L 150.2 76.4 L 155.6 76.4 L 165.6 66.4 L 177.6 76.4 L 177.6 80.4 L 150.2 80.4 L 150.2 107.2 L 162.4 107.2 L 172.4 97.2 L 184.4 107.2 L 184.4 111.2 L 147.2 111.2 L 150.2 111.7 L 153.2 113.7 L 150.2 115.5 L 150.2 138.0 L 162.6777777671814 138.0 L 168.9 131.0 L 176.9 138.0 L 176.9 142.0 L 150.2 142.0 L 150.2 171.5290322303772 L 151.0 171.8 L 158.4 173.3 L 167.2 174.1 L 177.6 174.2 L 189.5 174.2 L 177.6 187.4 L 166.2 186.6 Z M 110.1 88.9 L 111.8 92.1 L 108.01129035949707 92.36129035949708 L 106.6 94.7 L 103.0 100.3 L 99.2 105.7 L 95.2 111.0 L 90.9 116.0 L 89.97228918075561 117.01204814910889 L 95.3 117.9 L 98.3 119.9 L 95.3 121.7 L 95.3 182.4 L 83.3 188.4 L 83.3 124.06956520080567 L 81.9 125.5 L 77.1 129.8 L 72.0 133.9 L 66.6 137.6 L 65.4 136.2 L 69.3 131.1 L 73.2 126.1 L 77.0 121.1 L 80.7 116.0 L 84.2 110.9 L 87.6 105.6 L 90.8 100.2 L 93.8 94.8 L 96.7 89.2 L 99.00133752822876 84.34162073135376 L 98.9 84.3 L 99.9 82.4 Z M 19.0 176.3 L 34.2 176.3 L 35.1 176.1 L 35.7 175.9 L 36.0 175.7 L 36.2 175.6 L 36.4 175.4 L 36.7 174.5 L 36.9 173.6 L 37.0 172.3 L 37.0 133.49636363983154 L 35.3 134.3 L 29.9 137.0 L 24.3 139.6 L 22.55820255279541 140.39172611236572 L 21.7 144.2 L 18.8 142.1 L 12.5 131.7 L 14.4 130.9 L 20.1 129.0 L 25.8 127.0 L 31.5 125.1 L 37.0 123.17017545700074 L 37.0 87.3 L 15.0 87.3 L 15.0 83.3 L 37.0 83.3 L 37.0 53.5 L 49.0 55.5 L 52.0 57.5 L 49.0 59.3 L 49.0 83.3 L 53.418181800842284 83.3 L 61.6 74.3 L 71.6 83.3 L 71.6 87.3 L 49.0 87.3 L 49.0 119.03035717010498 L 54.1 117.3 L 59.7 115.5 L 65.4 113.7 L 71.2 112.2 L 71.9 113.8 L 67.0 117.2 L 61.9 120.4 L 51.5 126.2 L 49.0 127.52075471878052 L 49.0 172.3 L 48.8 174.9 L 48.4 177.4 L 47.6 179.8 L 46.3 182.0 L 44.7 184.1 L 42.7 185.7 L 40.4 186.9 L 38.0 187.7 L 35.5 188.2 L 33.0 188.3 L 33.0 182.3 L 19.0 179.3 Z M 105.1 59.7 L 106.8 62.9 L 102.99607982635499 63.0934196472168 L 102.0 64.7 L 98.7 69.5 L 95.4 74.2 L 91.9 78.6 L 88.4 82.9 L 84.6 86.9 L 80.8 90.8 L 76.7 94.4 L 72.5 97.6 L 68.1 100.6 L 66.8 99.3 L 72.8 90.7 L 75.8 86.5 L 78.7 82.2 L 81.6 77.8 L 84.3 73.3 L 87.0 68.7 L 89.6 63.9 L 92.1 59.1 L 94.05651388168334 55.02392930984497 L 94.0 55.0 L 95.0 53.1 Z M 134.0 14.2 L 137.0 16.2 L 134.0 18.0 L 134.0 31.6 L 165.0 31.6 L 175.0 21.6 L 187.0 31.6 L 187.0 35.6 L 134.0 35.6 L 134.0 50.2 L 122.0 56.2 L 122.0 35.6 L 78.0 35.6 L 78.0 50.2 L 66.0 56.2 L 66.0 35.6 L 13.0 35.6 L 13.0 31.6 L 66.0 31.6 L 66.0 12.2 L 78.0 14.2 L 81.0 16.2 L 78.0 18.0 L 78.0 31.6 L 122.0 31.6 L 122.0 12.2 Z " />
</g>
</svg>
