<svg xmlns="http://www.w3.org/2000/svg" xmlns:xlink="http://www.w3.org/1999/xlink" version="1.1" baseProfile="full" viewBox="0 0 200 200" width="200" height="200">
<g fill="black">
<path d="M 58.0 127.0 L 141.0 127.0 L 147.0 122.0 L 158.0 131.0 L 153.0 135.0 L 153.0 155.5 L 141.0 161.5 L 141.0 153.5 L 125.27600002288818 153.5 L 134.3 160.7 L 135.7 164.1 L 131.44160242080687 163.80631742477416 L 130.4 164.9 L 128.3 167.0 L 126.1 169.1 L 123.8 171.2 L 121.4 173.4 L 118.8 175.6 L 116.2 177.7 L 113.57619047164917 179.6 L 162.0 179.6 L 172.0 169.6 L 184.0 179.6 L 184.0 183.6 L 16.0 183.6 L 16.0 179.6 L 110.23333330154419 179.6 L 111.3 178.0 L 113.0 175.0 L 114.6 172.0 L 116.3 169.2 L 119.3 163.8 L 120.7 161.2 L 122.0 158.7 L 123.3 156.3 L 123.99233808517457 154.85238409042358 L 123.9 154.8 L 124.7125 153.5 L 58.0 153.5 L 58.0 156.5 L 46.0 162.5 L 46.0 121.0 Z M 75.9 171.6 L 75.3 169.8 L 74.5 167.9 L 73.5 166.0 L 72.2 164.0 L 70.6 161.8 L 68.9 159.6 L 66.9 157.3 L 64.3 155.3 L 65.3 153.8 L 68.2 155.3 L 71.2 156.5 L 73.9 157.8 L 76.5 159.3 L 78.9 160.9 L 81.1 162.7 L 83.0 164.5 L 84.8 166.5 L 86.4 168.7 L 87.8 171.1 L 87.3 175.6 L 83.9 178.6 L 79.3 178.2 L 76.3 174.7 L 76.2 173.2 Z M 58.0 131.0 L 58.0 149.5 L 141.0 149.5 L 141.0 131.0 Z M 182.0 111.9 L 182.0 115.9 L 18.0 115.9 L 18.0 111.9 L 163.8181818008423 111.9 L 172.0 102.9 Z M 36.0 107.8 L 36.0 50.8 L 48.0 56.8 L 74.0 56.8 L 74.0 43.6 L 86.0 45.6 L 89.0 47.6 L 86.0 49.4 L 86.0 56.8 L 113.0 56.8 L 113.0 43.6 L 122.0 45.1 L 122.0 34.2 L 78.0 34.2 L 78.0 39.4 L 66.0 45.4 L 66.0 34.2 L 13.0 34.2 L 13.0 30.2 L 66.0 30.2 L 66.0 12.4 L 78.0 14.4 L 81.0 16.4 L 78.0 18.2 L 78.0 30.2 L 122.0 30.2 L 122.0 12.4 L 134.0 14.4 L 137.0 16.4 L 134.0 18.2 L 134.0 30.2 L 165.0 30.2 L 175.0 20.2 L 187.0 30.2 L 187.0 34.2 L 134.0 34.2 L 134.0 39.4 L 122.45 45.175 L 125.0 45.6 L 128.0 47.6 L 125.0 49.4 L 125.0 56.8 L 151.0 56.8 L 157.0 51.8 L 168.0 60.8 L 163.0 64.8 L 163.0 101.8 L 151.0 107.8 L 151.0 101.8 L 48.0 101.8 Z M 48.0 80.0 L 48.0 97.8 L 74.0 97.8 L 74.0 80.0 Z M 86.0 80.0 L 86.0 97.8 L 113.0 97.8 L 113.0 80.0 Z M 125.0 80.0 L 125.0 97.8 L 151.0 97.8 L 151.0 80.0 Z M 48.0 60.8 L 48.0 76.0 L 74.0 76.0 L 74.0 60.8 Z M 86.0 60.8 L 86.0 76.0 L 113.0 76.0 L 113.0 60.8 Z M 125.0 60.8 L 125.0 76.0 L 151.0 76.0 L 151.0 60.8 Z " />
</g>
</svg>
