<svg xmlns="http://www.w3.org/2000/svg" xmlns:xlink="http://www.w3.org/1999/xlink" version="1.1" baseProfile="full" viewBox="0 0 200 200" width="200" height="200">
<g fill="black">
<path d="M 137.0 109.8 L 139.3 112.6 L 134.6262614250183 113.74793577194214 L 133.8 115.1 L 132.6 116.9 L 131.3 118.7 L 130.0 120.6 L 127.0 124.4 L 125.56842107772827 126.1 L 159.1 126.1 L 165.1 121.1 L 176.1 130.1 L 171.1 134.1 L 171.1 180.4 L 159.1 186.4 L 159.1 176.4 L 102.8 176.4 L 102.8 183.4 L 90.8 189.4 L 90.8 120.1 L 102.8 126.1 L 123.05652170181274 126.1 L 123.3 125.4 L 123.6 122.9 L 123.9 120.5 L 124.3 118.3 L 124.6 116.1 L 124.8 114.0 L 125.1 111.9 L 125.3 110.0 L 125.4 108.1 L 125.44160070419312 107.35118656158447 L 125.2 107.3 L 125.49830513000488 106.33050851821899 L 125.5 106.3 L 125.50703363418579 106.30214071273804 L 126.0 104.7 Z M 64.6 130.8 L 63.3 128.9 L 61.8 127.0 L 60.1 125.2 L 58.2 123.3 L 56.1 121.5 L 53.9 119.6 L 52.5 118.4333333015442 L 52.5 181.8 L 40.5 187.8 L 40.5 125.55625 L 39.2 128.4 L 35.8 135.2 L 32.1 141.6 L 28.0 147.8 L 23.6 153.6 L 18.8 159.0 L 13.6 163.9 L 12.2 162.8 L 15.7 156.7 L 19.1 150.6 L 22.4 144.4 L 25.4 138.0 L 28.1 131.5 L 30.6 124.9 L 32.9 118.0 L 34.9 110.9 L 36.6 103.6 L 37.412903213500975 99.4 L 12.9 99.4 L 12.9 95.4 L 40.5 95.4 L 40.5 70.04375 L 37.0 70.7 L 30.0 71.8 L 22.6 72.8 L 14.7 73.6 L 14.4 71.8 L 21.8 69.1 L 28.8 66.6 L 35.3 64.3 L 41.3 62.2 L 46.9 60.0 L 52.0 58.0 L 56.5 56.0 L 60.6 54.1 L 64.2 52.2 L 66.0 51.119999980926515 L 66.0 33.3 L 13.0 33.3 L 13.0 29.3 L 66.0 29.3 L 66.0 12.1 L 78.0 14.1 L 81.0 16.1 L 78.0 17.9 L 78.0 29.3 L 122.0 29.3 L 122.0 12.1 L 134.0 14.1 L 137.0 16.1 L 134.0 17.9 L 134.0 29.3 L 165.0 29.3 L 175.0 19.3 L 187.0 29.3 L 187.0 33.3 L 134.0 33.3 L 134.0 45.8 L 122.0 51.8 L 122.0 33.3 L 78.0 33.3 L 78.0 45.8 L 67.5295880317688 51.03520603179932 L 68.52292966842651 52.94964628219604 L 75.4 59.6 L 75.5 62.9 L 71.79621620178223 61.35675678253174 L 68.9 62.5 L 64.7 64.0 L 60.0 65.4 L 54.9 66.8 L 52.5 67.41090908050538 L 52.5 95.4 L 55.6 95.4 L 65.6 85.4 L 77.6 95.4 L 77.6 99.4 L 52.5 99.4 L 52.5 115.3 L 55.7 116.0 L 58.7 116.8 L 61.6 117.9 L 64.3 119.0 L 67.0 120.4 L 69.5 121.8 L 71.9 123.4 L 74.1 125.2 L 76.3 127.1 L 77.4 131.5 L 75.2 135.5 L 70.8 136.7 L 66.8 134.4 L 65.8 132.6 Z M 102.8 152.8 L 102.8 172.4 L 159.1 172.4 L 159.1 152.8 Z M 102.8 130.1 L 102.8 148.8 L 159.1 148.8 L 159.1 130.1 Z M 75.3 105.8 L 79.7 104.9 L 84.3 103.9 L 86.6 103.43999996185303 L 86.6 48.4 L 98.6 50.4 L 101.6 52.4 L 98.6 54.2 L 98.6 70.5 L 110.81818180084228 70.5 L 119.0 61.5 L 129.0 70.5 L 129.0 74.5 L 98.6 74.5 L 98.6 100.84285717010498 L 100.2 100.5 L 106.2 99.2 L 112.4 97.8 L 119.0 96.4 L 125.9 95.1 L 133.2 93.9 L 133.8 95.6 L 127.1 98.8 L 120.6 101.6 L 114.3 104.1 L 108.3 106.4 L 102.6 108.6 L 97.2 110.6 L 92.1 112.5 L 87.3 114.3 L 82.7 115.9 L 82.45579452514649 115.98721628189087 L 81.2 119.7 L 78.5 117.4 L 73.4 106.3 Z M 182.8 84.7 L 184.8 84.7 L 182.8 101.7 L 185.8 103.7 L 187.8 106.7 L 185.8 109.7 L 182.8 111.7 L 151.8 111.7 L 149.4 111.6 L 147.0 111.3 L 144.6 110.6 L 142.4 109.5 L 140.4 108.0 L 138.8 106.2 L 137.5 104.0 L 136.6 101.7 L 136.1 99.2 L 135.8 96.7 L 135.8 48.4 L 147.8 50.4 L 150.8 52.4 L 147.8 54.2 L 147.8 75.984375 L 151.1 73.2 L 160.4 65.4 L 163.3 62.8 L 166.3 60.2 L 171.17136640548705 55.67658834457397 L 171.1 55.6 L 172.0 54.9 L 179.3 64.4 L 179.6 68.0 L 176.0 66.6 L 172.5 68.7 L 169.0 70.7 L 161.8 74.7 L 158.1 76.5 L 154.2 78.3 L 150.3 79.9 L 147.8 80.8375 L 147.8 97.9 L 147.9 98.8 L 148.0 99.5 L 148.2 100.3 L 148.4 100.6 L 148.8 100.9 L 149.5 101.2 L 150.5 101.5 L 151.8 101.7 L 177.8 101.7 Z " />
</g>
</svg>
