<svg xmlns="http://www.w3.org/2000/svg" xmlns:xlink="http://www.w3.org/1999/xlink" version="1.1" baseProfile="full" viewBox="0 0 200 200" width="200" height="200">
<g fill="black">
<path d="M 145.3 182.7 L 132.6 179.7 L 120.9 175.9 L 110.3 171.4 L 103.01206064224243 167.49306344985962 L 102.8 167.6 L 90.3 172.8 L 76.9 177.3 L 62.7 181.0 L 47.7 183.9 L 31.8 186.0 L 15.0 187.2 L 14.9 185.4 L 31.2 182.3 L 46.6 178.7 L 61.1 174.6 L 74.6 170.1 L 87.1 165.0 L 93.99212083816528 161.61335439682006 L 92.1 160.3 L 84.7 153.6 L 78.5 146.2 L 75.17953186035156 140.47749099731445 L 74.1 141.4 L 68.2 145.8 L 62.0 149.9 L 55.3 153.7 L 48.2 157.2 L 40.7 160.4 L 32.7 163.2 L 24.3 165.5 L 23.6 163.8 L 31.2 159.7 L 38.3 155.6 L 45.0 151.5 L 51.3 147.3 L 57.1 142.9 L 62.5 138.5 L 67.4 133.9 L 71.9 129.1 L 75.9 124.3 L 78.73636360168457 120.28181819915771 L 76.1 121.6 L 76.1 51.8 L 86.1 56.8 L 95.1 56.8 L 95.0 55.0 L 94.9 53.3 L 94.9 51.6 L 94.7 48.4 L 94.5 45.4 L 94.4 44.0 L 94.34957160949708 43.64700126647949 L 94.0 43.6 L 94.20571432113647 42.63999996185303 L 94.2 42.6 L 94.21363639831543 42.60303030014038 L 94.6 40.8 L 105.9 45.2 L 108.4 47.8 L 103.37039470672607 49.446052646636964 L 102.5 50.8 L 101.5 52.1 L 100.5 53.5 L 99.4 54.9 L 97.64615383148194 56.8 L 112.9 56.8 L 118.9 51.8 L 129.9 60.8 L 124.9 64.8 L 124.9 118.6 L 112.9 124.6 L 112.9 116.6 L 86.1 116.6 L 80.7790322303772 119.26048383712768 L 89.2 126.4 L 90.4 129.8 L 86.59104480743409 129.40597019195556 L 84.6 131.7 L 83.1 133.2 L 133.42784814834596 133.2 L 135.6 131.0 L 136.08488750457764 131.4625937461853 L 140.0 128.2 L 151.0 137.2 L 146.0 140.2 L 140.97996215820314 142.29168243408202 L 135.2 147.5 L 125.3 155.0 L 114.5 161.7 L 112.93953971862793 162.48689880371094 L 113.9 162.9 L 124.1 166.2 L 135.2 169.0 L 147.3 171.1 L 160.4 172.6 L 174.4 173.5 L 185.4 174.2 L 173.5 186.7 L 158.9 185.1 Z M 79.01489362716674 137.2 L 77.08068904876708 138.8528657913208 L 81.7 143.4 L 88.6 149.2 L 96.2 154.3 L 101.90606899261475 157.42475204467775 L 109.3 153.1 L 119.0 146.3 L 127.8 138.9 L 129.4784810066223 137.2 Z M 30.7 130.6 L 19.7 136.1 L 19.7 62.7 L 30.7 64.7 L 33.4 66.7 L 30.7 68.42340421676636 L 30.7 114.6 L 40.0 114.6 L 40.0 42.9 L 50.0 44.9 L 52.5 46.9 L 50.0 48.56666669845581 L 50.0 114.6 L 60.3 114.6 L 60.3 62.7 L 69.3 64.7 L 71.5 66.7 L 69.3 68.27142858505249 L 69.3 120.6 L 60.3 125.1 L 60.3 118.6 L 30.7 118.6 Z M 173.0 121.4 L 171.2 123.0 L 169.3 124.4 L 167.2 125.6 L 165.0 126.6 L 162.8 127.3 L 160.4 127.9 L 158.0 128.2 L 155.5 128.3 L 155.5 122.3 L 135.5 119.3 L 135.5 116.3 L 155.5 116.3 L 157.0 116.2 L 158.3 116.1 L 159.5 115.8 L 160.7 115.4 L 161.7 114.9 L 162.7 114.3 L 163.7 113.6 L 164.6 112.8 L 165.5 111.8 L 166.4 110.7 L 166.7 109.7 L 167.1 107.9 L 167.5 105.5 L 167.9 102.4 L 168.3 98.7 L 168.6 94.5 L 168.9 89.7 L 169.1 84.4 L 169.22542371749878 80.7 L 145.78783779144288 80.7 L 143.9 93.4 L 131.2 97.6 L 138.9 45.3 L 150.5 49.0 L 153.2 51.4 L 149.99020080566407 52.42955827713013 L 148.79054050445558 60.5 L 165.61818180084228 60.5 L 173.8 51.5 L 183.8 60.5 L 183.8 64.5 L 148.19594593048095 64.5 L 146.3824324607849 76.7 L 169.3 76.7 L 175.3 71.7 L 186.3 80.7 L 181.3 83.7 L 181.13436622619628 83.76901407241822 L 181.1 84.8 L 180.9 90.3 L 180.6 95.3 L 180.2 99.8 L 179.8 103.7 L 179.4 107.2 L 178.9 110.2 L 178.3 112.9 L 177.5 115.3 L 176.2 117.6 L 174.7 119.6 Z M 86.1 97.2 L 86.1 112.6 L 112.9 112.6 L 112.9 97.2 Z M 86.1 79.0 L 86.1 93.2 L 112.9 93.2 L 112.9 79.0 Z M 86.1 60.8 L 86.1 75.0 L 112.9 75.0 L 112.9 60.8 Z M 134.0 14.4 L 137.0 16.4 L 134.0 18.2 L 134.0 30.4 L 165.0 30.4 L 175.0 20.4 L 187.0 30.4 L 187.0 34.4 L 134.0 34.4 L 134.0 47.7 L 122.0 53.7 L 122.0 34.4 L 78.0 34.4 L 78.0 47.7 L 66.0 53.7 L 66.0 34.4 L 13.0 34.4 L 13.0 30.4 L 66.0 30.4 L 66.0 12.4 L 78.0 14.4 L 81.0 16.4 L 78.0 18.2 L 78.0 30.4 L 122.0 30.4 L 122.0 12.4 Z " />
</g>
</svg>
