<svg xmlns="http://www.w3.org/2000/svg" xmlns:xlink="http://www.w3.org/1999/xlink" version="1.1" baseProfile="full" viewBox="0 0 200 200" width="200" height="200">
<g fill="black">
<path d="M 43.6 157.9 L 43.3 155.8 L 42.9 153.6 L 42.2 151.2 L 41.4 148.8 L 40.5 146.2 L 39.4 143.5 L 38.53970584869385 141.6470588684082 L 35.2 146.1 L 31.4 150.7 L 27.4 154.8 L 23.2 158.4 L 18.8 161.6 L 17.5 160.3 L 20.4 155.9 L 23.3 151.4 L 26.1 146.8 L 28.9 141.9 L 31.5 136.9 L 34.1 131.6 L 36.5 126.0 L 38.9 120.2 L 41.1 114.1 L 43.2 107.7 L 43.22973680496216 107.71078948974609 L 43.53333330154419 106.8 L 22.795744705200196 106.8 L 23.0 109.2 L 23.2 113.5 L 23.2 117.4 L 23.0 121.0 L 22.5 124.3 L 21.9 127.4 L 20.9 130.3 L 19.5 132.9 L 15.4 134.9 L 11.0 133.6 L 9.0 129.5 L 10.3 125.1 L 11.2 124.5 L 12.2 123.3 L 13.3 121.5 L 14.4 119.1 L 15.5 116.2 L 16.4 112.7 L 17.3 108.8 L 18.2 104.4 L 19.1 99.5 L 19.6 94.2 L 21.4 94.2 L 21.9 99.5 L 22.361999988555908 102.8 L 87.0 102.8 L 93.0 97.8 L 104.0 106.8 L 99.0 109.8 L 96.16626510620117 110.98072290420532 L 95.6 112.0 L 94.6 114.1 L 93.5 116.3 L 92.3 118.8 L 91.0 121.5 L 89.4 124.4 L 88.3 127.6 L 86.6 127.2 L 87.2 123.8 L 87.3 120.6 L 87.4 117.6 L 87.5 114.8 L 87.5 114.59166669845581 L 87.0 114.8 L 87.0 106.8 L 44.68181819915772 106.8 L 54.5 111.8 L 56.6 114.7 L 52.943082332611084 115.46987743377686 L 51.7 118.4 L 48.7 124.6 L 48.01694917678833 125.9 L 69.8 125.9 L 75.8 120.9 L 86.8 129.9 L 81.8 132.9 L 80.22412452697753 133.55661478042603 L 78.4 139.2 L 74.4 148.3 L 69.5 156.6 L 63.9 164.0 L 57.4 170.5 L 50.2 176.0 L 42.3 180.6 L 33.6 184.3 L 24.3 186.8 L 14.4 188.3 L 14.0 186.6 L 23.2 183.2 L 31.5 179.3 L 39.0 174.9 L 45.7 170.0 L 49.43749208450318 166.3913869857788 L 46.2 165.6 L 43.7 161.8 L 43.8 159.9 Z M 173.5 133.0 L 173.5 103.7 L 156.0 103.7 L 156.0 123.9 L 155.4484848022461 133.0 Z M 116.2 68.6 L 129.9 68.6 L 134.9 63.6 L 144.9 72.6 L 139.9 75.6 L 139.9 152.8 L 129.9 157.8 L 129.9 146.8 L 116.2 146.8 L 116.2 158.8 L 104.2 164.8 L 104.2 62.6 Z M 45.91525421142578 129.9 L 45.6 130.5 L 42.3 136.0 L 40.1222222328186 139.2977777481079 L 42.5 141.2 L 44.8 143.3 L 46.9 145.5 L 48.8 147.7 L 50.5 150.0 L 52.0 152.3 L 53.4 154.7 L 54.6 157.2 L 55.45924711227417 159.58679761886597 L 56.6 158.2 L 61.0 151.3 L 64.7 143.8 L 67.6 135.5 L 69.03111114501954 129.9 Z M 116.2 109.7 L 116.2 142.8 L 129.9 142.8 L 129.9 109.7 Z M 116.2 72.6 L 116.2 105.7 L 129.9 105.7 L 129.9 72.6 Z M 156.0 70.4 L 156.0 99.7 L 173.5 99.7 L 173.5 70.4 Z M 17.7 92.0 L 17.7 48.2 L 28.7 53.7 L 80.2 53.7 L 85.7 48.7 L 96.2 57.7 L 91.2 61.2 L 91.2 88.5 L 80.2 94.0 L 80.2 86.5 L 28.7 86.5 Z M 28.7 57.7 L 28.7 82.5 L 38.9 82.5 L 38.9 57.7 Z M 48.9 57.7 L 48.9 82.5 L 60.0 82.5 L 60.0 57.7 Z M 70.0 57.7 L 70.0 82.5 L 80.2 82.5 L 80.2 57.7 Z M 165.0 14.2 L 168.0 16.2 L 165.0 18.0 L 165.0 33.7 L 170.3181818008423 33.7 L 178.5 24.7 L 188.5 33.7 L 188.5 37.7 L 165.0 37.7 L 165.0 54.3 L 153.0 60.3 L 153.0 37.7 L 137.0 37.7 L 137.0 54.3 L 125.0 60.3 L 125.0 37.7 L 101.5 37.7 L 101.5 33.7 L 125.0 33.7 L 125.0 12.2 L 137.0 14.2 L 140.0 16.2 L 137.0 18.0 L 137.0 33.7 L 153.0 33.7 L 153.0 12.2 Z M 74.4 14.8 L 77.4 16.8 L 74.4 18.6 L 74.4 29.6 L 78.51818180084229 29.6 L 86.7 20.6 L 96.7 29.6 L 96.7 33.6 L 74.4 33.6 L 74.4 45.7 L 62.4 51.7 L 62.4 33.6 L 47.5 33.6 L 47.5 45.7 L 35.5 51.7 L 35.5 33.6 L 13.2 33.6 L 13.2 29.6 L 35.5 29.6 L 35.5 12.8 L 47.5 14.8 L 50.5 16.8 L 47.5 18.6 L 47.5 29.6 L 62.4 29.6 L 62.4 12.8 Z M 184.9 176.7 L 184.1 179.1 L 182.8 181.4 L 181.2 183.4 L 179.2 185.0 L 176.9 186.2 L 174.5 187.1 L 172.0 187.5 L 169.5 187.6 L 169.5 181.6 L 149.5 178.6 L 149.5 175.6 L 170.7 175.6 L 171.6 175.4 L 172.2 175.2 L 172.5 175.0 L 172.7 174.9 L 172.9 174.7 L 173.2 173.8 L 173.4 172.9 L 173.5 171.6 L 173.5 137.0 L 155.05217390060426 137.0 L 154.4 143.0 L 152.8 151.4 L 150.6 159.1 L 147.8 166.0 L 144.5 172.0 L 140.6 177.2 L 136.2 181.4 L 131.2 184.6 L 125.8 186.8 L 125.1 185.4 L 129.4 182.0 L 133.1 178.2 L 136.3 173.8 L 139.0 168.9 L 141.3 163.3 L 143.2 156.9 L 144.6 149.8 L 145.5 142.0 L 146.0 133.3 L 146.0 61.4 L 156.0 66.4 L 173.5 66.4 L 179.5 61.4 L 190.5 70.4 L 185.5 74.4 L 185.5 171.6 L 185.3 174.2 Z " />
</g>
</svg>
