<svg xmlns="http://www.w3.org/2000/svg" xmlns:xlink="http://www.w3.org/1999/xlink" version="1.1" baseProfile="full" viewBox="0 0 200 200" width="200" height="200">
<g fill="black">
<path d="M 162.1 171.8 L 155.3 162.7 L 150.2570707321167 153.98171548843385 L 150.0 154.4 L 143.5 163.1 L 136.6 170.9 L 129.2 177.6 L 121.3 183.2 L 112.9 187.7 L 112.0 186.2 L 119.0 180.2 L 125.6 173.7 L 131.7 166.5 L 137.4 158.6 L 142.8 150.0 L 145.7510118484497 144.15945568084717 L 144.5 141.3 L 140.5 128.9 L 137.5 115.5 L 135.4 101.1 L 134.6374737739563 90.35531167984009 L 134.6 90.8 L 132.2 107.4 L 129.0 122.8 L 124.9 136.9 L 120.0 149.8 L 114.3 161.4 L 107.6 171.6 L 100.1 180.4 L 91.7 187.6 L 90.5 186.3 L 97.2 177.9 L 103.2 168.6 L 108.4 158.4 L 113.0 147.0 L 116.8 134.5 L 119.9 120.8 L 122.3 105.9 L 123.9 89.8 L 124.7 72.5 L 124.71351346969604 70.0 L 107.3 70.0 L 107.3 66.0 L 124.7351351737976 66.0 L 124.8 54.0 L 124.8 15.0 L 136.8 17.0 L 139.8 19.0 L 136.8 20.8 L 136.8 54.0 L 136.35789470672609 66.0 L 164.7 66.0 L 174.7 56.0 L 186.7 66.0 L 186.7 70.0 L 136.3552146911621 70.0 L 138.5 85.2 L 141.2 100.2 L 144.5 113.9 L 148.5 126.4 L 151.06516647338867 132.64562273025513 L 152.1 130.3 L 156.1 119.2 L 159.8 107.2 L 162.77025327682495 95.41180725097657 L 162.7 95.4 L 163.4 92.7 L 174.6 97.4 L 177.0 100.0 L 173.5042799949646 101.080495262146 L 170.7 110.5 L 166.2 122.8 L 161.3 134.3 L 156.40035572052003 143.82708616256713 L 158.4 147.6 L 164.3 156.3 L 170.8 163.8 L 178.0 170.2 L 185.7 175.3 L 189.9 177.9 L 178.8 186.6 L 170.0 179.8 Z M 86.7 145.85 L 85.0 150.1 L 86.7 151.23333330154418 Z M 38.7 159.725 L 40.4 157.6 L 42.1 155.1 L 43.7 152.6 L 45.0 149.9 L 46.2 147.1 L 47.3 144.2 L 48.1 141.1 L 48.8 137.9 L 38.7 137.9 Z M 49.3 103.2 L 75.6 103.2 L 81.6 98.2 L 92.6 107.2 L 87.6 111.2 L 87.6 123.7 L 75.6 129.7 L 75.6 123.7 L 49.3 123.7 L 37.3 129.7 L 37.3 97.2 Z M 49.3 107.2 L 49.3 119.7 L 75.6 119.7 L 75.6 107.2 Z M 88.94285717010499 54.59428567886353 L 88.0 55.6 L 86.4 57.3 L 85.3 59.2 L 83.6 58.4 L 84.5 56.3 L 84.7 54.0 L 85.1 51.9 L 85.5 49.7 L 85.8 47.7 L 86.2 45.7 L 86.5 43.7 L 86.67368421554565 42.6 L 56.0 42.6 L 59.0 44.6 L 56.0 46.4 L 56.0 56.11333332061768 L 59.40470523834229 55.66567764282227 L 68.0 44.4 L 81.2 52.8 L 81.7 56.7 L 56.0 60.07907409667969 L 56.0 63.0 L 55.9 64.3 L 56.0 65.2 L 56.1 65.9 L 56.2 66.3 L 56.3 66.6 L 56.5 66.9 L 56.9 67.3 L 57.6 67.6 L 58.6 67.9 L 60.0 68.0 L 85.0 68.0 Z M 28.5 42.6 L 28.5 59.72907409667969 L 44.0 57.69111108779907 L 44.0 42.6 Z M 160.4 41.9 L 159.5 39.3 L 158.5 36.7 L 157.3 34.2 L 155.9 31.6 L 154.4 29.0 L 152.7 26.4 L 150.9 23.7 L 148.7 21.3 L 149.8 19.9 L 152.6 21.7 L 155.6 23.4 L 158.4 25.3 L 161.0 27.4 L 163.4 29.6 L 165.7 32.1 L 167.8 34.6 L 169.7 37.3 L 171.4 40.2 L 173.0 43.2 L 172.6 47.7 L 169.3 50.8 L 164.7 50.5 L 161.6 47.1 L 161.1 44.5 Z M 85.0 145.1 L 86.7 145.1 L 86.7 137.9 L 73.9 137.9 L 73.9 143.6 L 73.8 144.9 L 73.7 145.9 L 73.8 146.7 L 73.9 147.4 L 74.1 147.9 L 74.4 148.4 L 74.9 148.9 L 75.7 149.4 L 76.9 149.8 L 78.4 150.1 L 81.5 150.1 Z M 78.71818180084229 89.0 L 86.9 80.0 L 96.9 89.0 L 96.9 93.0 L 28.5 93.0 L 28.5 98.4 L 28.0 110.7 L 27.4 122.3 L 26.878070163726807 127.98903512954712 L 38.7 133.9 L 86.7 133.9 L 92.2 128.9 L 102.7 137.9 L 97.7 141.4 L 97.7 169.5 L 97.6 172.0 L 97.2 174.3 L 96.6 176.6 L 95.6 178.7 L 94.2 180.7 L 92.4 182.3 L 90.3 183.6 L 88.1 184.4 L 85.8 184.9 L 83.5 185.0 L 83.5 179.5 L 75.5 176.8 L 75.5 174.0 L 84.4 174.0 L 85.1 173.8 L 85.5 173.7 L 85.7 173.6 L 85.9 173.4 L 86.0 173.2 L 86.3 172.7 L 86.5 172.0 L 86.6 170.9 L 86.7 169.5 L 86.7 155.9666666984558 L 85.0 157.1 L 76.1 157.1 L 73.9 157.0 L 72.25797100067139 156.55217390060426 L 81.2 164.6 L 81.2 168.6 L 68.5 168.6 L 68.5 182.4 L 56.5 188.4 L 56.5 168.6 L 43.3 168.6 L 43.3 164.6 L 63.018181800842285 164.6 L 70.81682243347169 156.02149534225464 L 69.6 155.5 L 67.7 154.3 L 66.1 152.6 L 64.8 150.6 L 63.9 148.4 L 63.2 146.1 L 62.9 143.6 L 62.9 137.9 L 60.7692307472229 137.9 L 59.5 141.2 L 57.8 144.9 L 55.9 148.3 L 53.7 151.4 L 51.4 154.3 L 48.8 156.8 L 46.1 159.1 L 43.2 160.9 L 40.0 162.4 L 38.7 163.00666666030884 L 38.7 182.4 L 26.7 188.4 L 26.7 129.93000001907347 L 26.4 133.2 L 25.2 143.3 L 23.8 152.7 L 22.1 161.4 L 20.0 169.3 L 17.7 176.4 L 14.9 182.7 L 11.8 188.1 L 10.1 187.4 L 11.3 181.5 L 12.5 175.0 L 13.6 167.9 L 14.6 160.1 L 15.4 151.7 L 16.0 142.5 L 16.4 132.5 L 16.6 121.9 L 16.6 110.5 L 16.5 98.4 L 16.5 32.6 L 28.5 38.6 L 47.0 38.6 L 47.0 12.1 L 59.0 14.1 L 62.0 16.1 L 59.0 17.9 L 59.0 23.3 L 73.27777776718139 23.3 L 79.5 16.3 L 87.5 23.3 L 87.5 27.3 L 59.0 27.3 L 59.0 38.6 L 87.0 38.6 L 87.39183673858642 38.27346935272217 L 87.4 38.2 L 87.45304660797119 38.22246112823486 L 93.0 33.6 L 104.0 42.6 L 99.0 45.6 L 95.13000001907349 47.2125 L 94.9 47.5 L 91.99047622680663 51.08095235824585 L 90.0 68.0 L 93.0 70.0 L 95.0 73.0 L 93.0 76.0 L 90.0 78.0 L 57.5 78.0 L 55.1 77.7 L 52.8 77.0 L 50.6 75.9 L 48.6 74.4 L 46.9 72.5 L 45.6 70.4 L 44.7 68.0 L 44.2 65.6 L 44.0 63.0 L 44.0 61.656851863861085 L 28.5 63.69481477737427 L 28.5 89.0 Z " />
</g>
</svg>
