<svg xmlns="http://www.w3.org/2000/svg" xmlns:xlink="http://www.w3.org/1999/xlink" version="1.1" baseProfile="full" viewBox="0 0 200 200" width="200" height="200">
<g fill="black">
<path d="M 155.3 178.1 L 145.7 171.2 L 137.2 163.4 L 136.60979022979737 162.70610466003419 L 131.2 166.8 L 118.8 174.0 L 105.0 180.1 L 90.0 184.9 L 73.8 188.5 L 73.3 186.8 L 88.8 181.3 L 102.9 175.2 L 115.6 168.3 L 126.8 160.6 L 131.4142548561096 156.59784021377564 L 129.8 154.7 L 123.6 145.3 L 118.5 135.0 L 114.6 123.9 L 111.9 112.1 L 110.69359998703003 100.5 L 94.3 100.5 L 94.3 96.5 L 165.7 96.5 L 171.7 91.5 L 182.7 100.5 L 177.7 103.5 L 176.19218111038208 104.12825784683227 L 173.3 113.7 L 167.7 126.5 L 160.6 138.2 L 152.1 148.9 L 144.56213216781617 156.20711679458617 L 152.4 162.4 L 161.3 168.0 L 171.2 172.8 L 182.0 176.8 L 189.1 179.3 L 177.5 189.2 L 165.9 184.1 Z M 78.6 158.5 L 78.0 154.5 L 77.1 150.6 L 76.70547943115234 149.28493146896363 L 73.5 151.6 L 67.8 155.2 L 62.0 158.6 L 56.0 161.8 L 49.8 164.8 L 43.5 167.7 L 37.1 170.6 L 30.6 173.3 L 24.0 175.9 L 21.15457191467285 176.96172685623168 L 20.1 180.6 L 17.3 178.4 L 11.7 167.5 L 13.7 166.9 L 20.4 165.1 L 27.1 163.1 L 33.7 161.1 L 40.2 159.1 L 46.3 157.003125 L 46.3 112.0 L 30.2 112.0 L 30.2 124.0 L 18.2 130.0 L 18.2 47.0 L 30.2 53.0 L 46.3 53.0 L 46.3 13.0 L 58.3 15.0 L 61.3 17.0 L 58.3 18.8 L 58.3 53.0 L 74.5 53.0 L 80.5 48.0 L 91.5 57.0 L 86.5 61.0 L 86.5 114.0 L 74.5 120.0 L 74.5 112.0 L 58.3 112.0 L 58.3 152.9492063522339 L 59.3 152.6 L 65.5 150.3 L 71.8 148.2 L 75.98173913955688 146.87246379852294 L 75.9 146.6 L 74.4 142.6 L 72.7 138.6 L 70.7 134.6 L 68.5 130.5 L 65.9 126.3 L 67.2 125.1 L 71.1 128.3 L 74.7 131.7 L 77.9 135.3 L 80.8 139.2 L 83.3 143.2 L 85.5 147.3 L 87.4 151.7 L 89.0 156.2 L 90.2 160.8 L 91.1 165.5 L 89.6 169.8 L 85.5 171.9 L 81.2 170.5 L 79.1 166.4 L 79.0 162.4 Z M 112.7384614944458 100.5 L 116.0 111.1 L 120.1 121.9 L 125.0 131.8 L 130.6 140.8 L 137.1 148.8 L 138.42485876083373 150.12485876083375 L 145.1 142.9 L 152.2 132.8 L 158.0 121.8 L 162.5 110.0 L 164.94921875 100.5 Z M 30.2 57.0 L 30.2 108.0 L 46.3 108.0 L 46.3 57.0 Z M 58.3 57.0 L 58.3 108.0 L 74.5 108.0 L 74.5 57.0 Z M 131.9 18.0 L 134.0 20.9 L 130.194015789032 21.63448820114136 L 129.6 22.9 L 126.9 27.8 L 123.8 32.7 L 120.4 37.8 L 118.72799997329712 40.0 L 161.4 40.0 L 171.4 30.0 L 183.4 40.0 L 183.4 44.0 L 161.04761905670165 44.0 L 161.0 44.1 L 158.6 49.0 L 155.8 53.9 L 152.5 58.7 L 148.9 63.5 L 144.9 68.3 L 140.4 73.1 L 135.6 77.8 L 130.3 82.5 L 124.5 87.1 L 118.3 91.6 L 117.0 90.3 L 121.9 84.4 L 126.5 78.8 L 130.7 73.4 L 134.6 68.2 L 138.1 63.1 L 141.3 58.2 L 144.0 53.4 L 146.4 48.7 L 148.3 44.2 L 148.37272729873658 44.0 L 115.6307692527771 44.0 L 112.4 48.0 L 107.8 53.1 L 102.8 58.3 L 97.3 63.5 L 91.3 68.6 L 90.0 67.3 L 94.4 61.0 L 98.7 54.9 L 102.6 49.0 L 106.3 43.4 L 109.6 38.0 L 112.5 32.8 L 115.1 27.8 L 117.3 22.9 L 119.2 18.3 L 120.39133853912354 14.725984287261962 L 120.3 14.7 L 121.2 12.4 Z " />
</g>
</svg>
