<svg xmlns="http://www.w3.org/2000/svg" xmlns:xlink="http://www.w3.org/1999/xlink" version="1.1" baseProfile="full" viewBox="0 0 200 200" width="200" height="200">
<g fill="black">
<path d="M 88.8 175.5 L 87.6 171.7 L 86.2 168.0 L 85.98571424484253 167.48571424484254 L 82.7 168.8 L 76.0 171.1 L 69.2 173.2 L 62.2 175.0 L 55.0 176.7 L 47.7 178.3 L 40.2 179.7 L 32.6 181.1 L 24.9 182.2 L 21.070426845550536 182.73323173522948 L 19.2 186.1 L 17.0 183.3 L 13.9 171.5 L 15.9 171.4 L 23.7 170.9 L 31.3 170.4 L 38.9 169.8 L 46.3 169.1 L 51.5 168.6013698577881 L 51.5 139.3 L 34.6 139.3 L 34.6 146.3 L 22.6 152.3 L 22.6 100.2 L 34.6 106.2 L 51.5 106.2 L 51.5 89.0 L 63.5 91.0 L 66.5 93.0 L 63.5 94.8 L 63.5 106.2 L 80.3 106.2 L 86.3 101.2 L 97.3 110.2 L 92.3 114.2 L 92.3 139.3 L 80.3 145.3 L 80.3 139.3 L 63.5 139.3 L 63.5 167.25774650573732 L 67.9 166.7 L 74.9 165.9 L 81.8 165.1 L 84.86222476959229 164.78933954238892 L 84.7 164.4 L 83.0 160.9 L 81.1 157.4 L 79.0 154.0 L 76.9 150.5 L 74.4 147.2 L 75.6 145.8 L 79.2 148.2 L 82.6 150.8 L 85.8 153.7 L 88.8 156.8 L 91.6 160.2 L 94.2 163.8 L 96.5 167.6 L 98.7 171.6 L 100.6 175.8 L 102.3 180.2 L 101.7 184.7 L 98.2 187.6 L 93.6 187.0 L 90.8 183.5 L 89.9 179.4 Z M 173.6 172.0 L 172.9 167.7 L 172.1 163.4 L 171.88723402023317 162.48510637283326 L 169.1 163.6 L 162.1 166.1 L 155.1 168.4 L 148.0 170.5 L 141.0 172.5 L 133.9 174.5 L 126.9 176.4 L 112.9 180.0 L 109.88993291854858 180.6880153656006 L 108.4 184.2 L 105.9 181.6 L 101.6 170.3 L 103.6 169.9 L 110.6 168.8 L 124.8 166.6 L 132.0 165.4 L 137.5 164.55972223281861 L 137.5 114.0 L 119.0 114.0 L 119.0 126.0 L 107.0 132.0 L 107.0 51.0 L 119.0 57.0 L 137.5 57.0 L 137.5 18.0 L 149.5 20.0 L 152.5 22.0 L 149.5 23.8 L 149.5 57.0 L 169.0 57.0 L 175.0 52.0 L 186.0 61.0 L 181.0 65.0 L 181.0 118.0 L 169.0 124.0 L 169.0 114.0 L 149.5 114.0 L 149.5 162.62638893127442 L 153.6 162.0 L 160.9 160.9 L 168.2 159.9 L 171.2113464355469 159.57878971099854 L 171.1 159.1 L 170.0 154.8 L 168.6 150.5 L 167.1 146.2 L 165.5 141.8 L 163.7 137.3 L 165.2 136.3 L 168.5 139.9 L 171.6 143.8 L 174.3 147.8 L 176.7 151.9 L 178.9 156.2 L 180.9 160.7 L 182.6 165.2 L 184.0 169.8 L 185.2 174.5 L 186.2 179.3 L 184.8 183.7 L 180.8 185.9 L 176.5 184.6 L 174.2 180.6 L 174.0 176.3 Z M 34.6 110.2 L 34.6 135.3 L 51.5 135.3 L 51.5 110.2 Z M 63.5 110.2 L 63.5 135.3 L 80.3 135.3 L 80.3 110.2 Z M 119.0 61.0 L 119.0 110.0 L 137.5 110.0 L 137.5 61.0 Z M 149.5 61.0 L 149.5 110.0 L 169.0 110.0 L 169.0 61.0 Z M 54.5 19.0 L 58.6 23.5 L 58.7 27.0 L 54.94815635681152 25.36283187866211 L 49.3 27.7 L 46.3 28.8 L 43.2 29.8 L 40.0 30.8 L 36.7 31.7 L 33.3 32.5 L 32.0 32.72285718917847 L 32.0 54.2 L 41.6777777671814 54.2 L 47.9 47.2 L 55.9 54.2 L 55.9 58.2 L 32.0 58.2 L 32.0 80.8 L 83.0 80.8 L 83.0 58.2 L 62.2 58.2 L 62.2 54.2 L 83.0 54.2 L 83.0 31.5 L 62.7 31.5 L 62.7 27.5 L 83.0 27.5 L 89.0 22.5 L 100.0 31.5 L 95.0 35.5 L 95.0 88.8 L 83.0 94.8 L 83.0 84.8 L 32.0 84.8 L 32.0 91.8 L 20.0 97.8 L 20.0 25.2 L 29.6235294342041 30.01176471710205 L 31.6 28.6 L 34.5 26.6 L 37.2 24.8 L 39.8 22.9 L 42.3 21.1 L 44.7 19.3 L 47.0 17.5 L 49.2 15.7 L 50.48435716629028 14.608296394348145 L 50.4 14.5 L 50.49242324829102 14.601440238952637 L 51.2 14.0 Z " />
</g>
</svg>
