<svg xmlns="http://www.w3.org/2000/svg" xmlns:xlink="http://www.w3.org/1999/xlink" version="1.1" baseProfile="full" viewBox="0 0 200 200" width="200" height="200">
<g fill="black">
<path d="M 70.7 59.0 L 72.4 62.2 L 68.59753875732422 62.32889699935913 L 65.9 66.6 L 60.9 74.0 L 55.5 81.1 L 49.9 88.0 L 44.1 94.6 L 42.50988759994507 96.26831464767456 L 49.3 97.4 L 52.3 99.4 L 49.3 101.2 L 49.3 182.9 L 37.3 188.9 L 37.3 101.65625 L 31.6 107.0 L 24.9 112.8 L 17.8 118.2 L 10.5 123.3 L 9.3 121.9 L 15.3 115.4 L 21.2 109.0 L 26.9 102.5 L 32.3 95.9 L 37.6 89.2 L 42.6 82.3 L 47.4 75.2 L 51.9 68.1 L 56.2 60.7 L 59.850102710723874 54.022982883453366 L 59.8 54.0 L 60.8 52.2 Z M 136.0 176.0 L 156.0 176.0 L 157.2 175.9 L 158.1 175.7 L 159.0 175.4 L 159.4 175.0 L 159.7 174.1 L 159.9 173.2 L 160.0 172.0 L 160.0 81.0 L 133.0 81.0 L 133.0 77.0 L 167.0 77.0 L 177.0 67.0 L 189.0 77.0 L 189.0 81.0 L 172.0 81.0 L 172.0 172.0 L 171.8 174.5 L 171.4 177.0 L 170.6 179.4 L 169.3 181.7 L 167.7 183.7 L 165.7 185.3 L 163.4 186.6 L 161.0 187.4 L 158.5 187.8 L 156.0 188.0 L 156.0 182.0 L 136.0 179.0 Z M 125.8 89.9 L 124.3 86.6 L 122.6 83.2 L 121.64919357299804 81.61532258987427 L 120.5 82.2 L 114.7 84.8 L 109.0 87.2 L 103.3 89.5 L 97.7 91.6 L 94.42272729873658 92.77045450210571 L 106.0 94.7 L 109.0 96.7 L 106.0 98.5 L 106.0 130.3 L 118.4 130.3 L 128.4 120.3 L 140.4 130.3 L 140.4 134.3 L 106.0 134.3 L 106.0 177.2 L 94.0 183.2 L 94.0 134.3 L 59.5 134.3 L 59.5 130.3 L 94.0 130.3 L 94.0 92.9214285850525 L 92.1 93.6 L 86.6 95.5 L 81.2 97.3 L 75.8 99.0 L 74.56127710342408 99.3973261833191 L 73.2 103.1 L 70.5 100.7 L 65.8 89.5 L 67.7 89.0 L 73.0 88.0 L 78.63179912567139 86.87364015579223 L 79.0 85.7 L 82.4 76.1 L 85.8 66.7 L 87.4 62.1 L 88.9 57.5 L 91.7 48.3 L 91.8384614944458 47.7 L 61.8 47.7 L 61.8 43.7 L 94.5 43.7 L 94.5 15.3 L 106.5 17.3 L 109.5 19.3 L 106.5 21.1 L 106.5 43.7 L 116.7 43.7 L 126.7 33.7 L 138.7 43.7 L 138.7 47.7 L 104.25869569778442 47.7 L 102.4 52.2 L 98.2 61.2 L 95.9 65.7 L 93.5 70.2 L 91.0 74.6 L 88.3 79.0 L 85.4 83.3 L 83.4776535987854 85.9044692993164 L 84.0 85.8 L 89.6 84.7 L 95.3 83.5 L 101.1 82.2 L 107.1 81.0 L 113.1 79.7 L 119.3 78.6 L 119.73207387924194 78.53141679763795 L 118.2 76.2 L 115.6 72.7 L 112.7 69.0 L 109.6 65.2 L 106.1 61.4 L 107.3 60.0 L 111.8 62.7 L 116.0 65.4 L 120.0 68.3 L 123.6 71.4 L 126.9 74.6 L 130.0 78.0 L 132.7 81.4 L 135.2 85.0 L 137.4 88.7 L 139.2 92.5 L 138.9 97.0 L 135.6 100.1 L 131.0 99.8 L 127.9 96.5 L 127.0 93.2 Z M 63.6 20.9 L 65.2 24.2 L 61.45 24.2 L 59.3 27.5 L 54.8 33.8 L 50.1 39.9 L 45.3 45.7 L 40.4 51.4 L 35.2 56.7 L 29.9 61.8 L 24.4 66.6 L 18.6 71.0 L 12.6 75.0 L 11.4 73.6 L 16.1 68.2 L 20.6 62.8 L 25.1 57.3 L 29.5 51.7 L 33.8 46.0 L 38.0 40.1 L 42.0 34.0 L 45.9 27.8 L 49.6 21.4 L 52.745026206970216 15.721480369567871 L 52.7 15.7 L 53.7 14.0 Z M 181.0 24.0 L 181.0 28.0 L 135.0 28.0 L 135.0 24.0 L 162.8181818008423 24.0 L 171.0 15.0 Z " />
</g>
</svg>
