<svg xmlns="http://www.w3.org/2000/svg" xmlns:xlink="http://www.w3.org/1999/xlink" version="1.1" baseProfile="full" viewBox="0 0 200 200" width="200" height="200">
<g fill="black">
<path d="M 71.6 132.3 L 69.9 129.4 L 68.0 126.5 L 65.7 123.5 L 63.3 120.5 L 60.5 117.5 L 55.6 112.6 L 55.6 183.0 L 43.6 189.0 L 43.6 108.91818180084229 L 38.0 114.3 L 29.9 121.5 L 21.1 128.3 L 11.9 134.7 L 10.7 133.2 L 18.7 125.4 L 26.2 117.6 L 33.3 109.8 L 40.0 101.8 L 43.6 97.15483875274658 L 43.6 97.0 L 43.71999998092652 97.0 L 46.2 93.8 L 52.0 85.6 L 57.3 77.3 L 62.2 68.8 L 66.5 60.2 L 68.38275861740112 56.0 L 15.6 56.0 L 15.6 52.0 L 43.6 52.0 L 43.6 12.0 L 55.6 14.0 L 58.6 16.0 L 55.6 17.8 L 55.6 52.0 L 69.9 52.0 L 70.34036693572997 51.63302755355835 L 70.4 51.5 L 70.46516590118408 51.52902841567993 L 75.9 47.0 L 86.9 56.0 L 81.9 59.0 L 79.5014084815979 59.999413108825685 L 76.6 65.5 L 71.4 74.3 L 65.7 82.8 L 59.5 91.1 L 54.63249998092651 97.0 L 55.6 97.0 L 55.6 108.47272729873657 L 56.1 108.7 L 60.3 110.7 L 62.57260274887085 111.98198099136353 L 63.4 110.9 L 65.6 107.4 L 67.6 104.2 L 69.5 101.3 L 71.1 98.5 L 72.6 95.9 L 73.8 93.6 L 74.8 91.4 L 75.6 89.5 L 75.81836223602295 88.80124073028564 L 75.6 88.7 L 76.7 86.9 L 86.6 93.8 L 88.2 97.0 L 83.5192982673645 97.0807017326355 L 81.4 99.2 L 79.3 101.2 L 77.0 103.4 L 74.5 105.6 L 71.7 107.9 L 68.7 110.3 L 65.4 112.7 L 64.75946378707886 113.26289548873902 L 67.9 115.3 L 71.3 117.8 L 74.5 120.5 L 77.5 123.3 L 80.2 126.2 L 82.7 129.3 L 84.69310989379883 132.1990689277649 L 89.4 126.1 L 96.2 116.8 L 102.9 107.2 L 109.2 97.5 L 115.3 87.4 L 121.2 77.1 L 126.7 66.4 L 131.9 55.5 L 136.8 44.2 L 141.03834352493286 33.51200323104858 L 141.0 33.5 L 141.2045454978943 33.0 L 84.9 33.0 L 84.9 29.0 L 166.3 29.0 L 176.3 19.0 L 188.3 29.0 L 188.3 33.0 L 145.00689659118652 33.0 L 152.5 37.1 L 154.5 40.1 L 150.88706607818602 40.6606276512146 L 147.2 48.8 L 141.5 60.2 L 137.0714285850525 68.24523811340332 L 141.6 69.0 L 144.6 71.0 L 141.6 72.8 L 141.6 165.0 L 129.6 171.0 L 129.6 81.02698411941529 L 129.2 81.7 L 122.5 92.0 L 115.5 101.8 L 108.1 111.2 L 100.4 120.2 L 92.2 128.6 L 85.13255376815796 135.1743685722351 L 85.3 137.1 L 82.4 140.6 L 77.8 141.0 L 74.3 138.1 L 73.1 135.2 Z M 186.3 176.0 L 186.3 180.0 L 85.9 180.0 L 85.9 176.0 L 164.3 176.0 L 174.3 166.0 Z M 171.7 112.0 L 169.7 108.5 L 167.5 105.1 L 164.9 101.9 L 162.0 98.8 L 158.7 95.8 L 155.2 92.8 L 151.2 89.9 L 146.9 87.2 L 147.6 85.5 L 152.7 86.8 L 157.6 88.4 L 162.2 90.5 L 166.5 93.0 L 170.5 95.8 L 174.3 99.0 L 177.7 102.5 L 180.7 106.3 L 183.5 110.5 L 185.9 114.9 L 185.8 119.5 L 182.6 122.7 L 178.0 122.6 L 174.7 119.4 L 173.4 115.6 Z " />
</g>
</svg>
