<svg xmlns="http://www.w3.org/2000/svg" xmlns:xlink="http://www.w3.org/1999/xlink" version="1.1" baseProfile="full" viewBox="0 0 200 200" width="200" height="200">
<g fill="black">
<path d="M 83.7 175.7 L 127.5 175.7 L 127.5 130.1 L 93.0 130.1 L 93.0 126.1 L 151.9 126.1 L 161.9 116.1 L 173.9 126.1 L 173.9 130.1 L 139.5 130.1 L 139.5 175.7 L 161.2 175.7 L 171.2 165.7 L 183.2 175.7 L 183.2 179.7 L 83.7 179.7 Z M 167.3 79.3 L 162.0 73.6 L 157.0 67.5 L 152.2 60.8 L 147.7 53.6 L 143.4 45.8 L 139.3 37.5 L 135.71766786575319 28.979858684539796 L 131.1 38.6 L 125.8 48.0 L 120.3 56.9 L 114.5 65.1 L 108.3 72.7 L 101.9 79.7 L 95.1 86.0 L 87.9 91.5 L 80.78354902267456 95.95964260101319 L 81.2 96.7 L 76.47054109573364 97.0206413269043 L 76.4 97.1 L 74.7 99.0 L 72.8 101.0 L 70.7 103.2 L 68.3 105.4 L 65.8 107.7 L 63.1 110.2 L 60.1 112.7 L 59.46842107772827 113.28947372436524 L 62.6 115.5 L 65.7 118.0 L 68.5 120.7 L 71.2 123.5 L 73.7 126.4 L 75.9 129.5 L 77.9 132.7 L 78.0 137.3 L 74.9 140.7 L 70.4 140.8 L 67.0 137.7 L 66.0 134.9 L 64.8 132.0 L 63.3 129.1 L 61.7 126.2 L 59.8 123.3 L 57.7 120.4 L 55.3 117.4 L 52.8 114.4 L 52.0 113.4518518447876 L 52.0 183.0 L 40.0 189.0 L 40.0 110.00882349014282 L 36.2 114.2 L 28.9 121.4 L 21.1 128.2 L 12.8 134.6 L 11.6 133.3 L 18.5 125.5 L 25.0 117.7 L 31.2 109.9 L 37.1 102.0 L 40.0 97.70370368957519 L 40.0 97.0 L 40.475 97.0 L 42.5 94.0 L 47.5 85.8 L 52.2 77.5 L 56.4 69.1 L 60.2 60.5 L 61.93863639831543 56.0 L 16.0 56.0 L 16.0 52.0 L 40.0 52.0 L 40.0 12.0 L 52.0 14.0 L 55.0 16.0 L 52.0 17.8 L 52.0 52.0 L 63.2 52.0 L 69.2 47.0 L 80.2 56.0 L 75.2 59.0 L 73.08137931823731 59.88275861740112 L 70.6 65.2 L 65.9 74.0 L 60.9 82.6 L 55.3 90.9 L 50.801249980926514 97.0 L 52.0 97.0 L 52.0 108.85263156890869 L 55.7 110.8 L 57.40459909439087 111.92016506195068 L 58.0 111.0 L 59.9 107.6 L 61.6 104.4 L 63.1 101.4 L 64.5 98.7 L 65.7 96.1 L 66.8 93.8 L 67.6 91.7 L 68.2 89.8 L 68.35934963226319 89.16260166168213 L 68.2 89.1 L 68.55 88.4 L 68.6 88.2 L 68.64014873504638 88.21970262527466 L 69.2 87.1 L 79.4 93.5 L 79.8288787841797 94.26245107650757 L 85.4 88.6 L 91.3 82.1 L 97.0 75.3 L 102.4 68.0 L 107.5 60.3 L 112.4 52.0 L 117.0 43.2 L 121.4 34.0 L 125.5 24.1 L 129.3 13.8 L 129.3115385055542 13.804326915740967 L 129.8 12.4 L 140.5 18.0 L 142.6 21.0 L 138.91777143478393 21.646005058288573 L 137.78124208450316 24.264964008331297 L 139.4 26.8 L 144.5 34.7 L 149.5 42.0 L 154.6 48.9 L 159.7 55.1 L 164.8 60.8 L 170.0 66.0 L 175.2 70.6 L 180.5 74.6 L 185.9 78.1 L 189.5 80.6 L 178.5 89.1 L 172.7 84.4 Z M 158.7 85.0 L 158.7 89.0 L 108.2 89.0 L 108.2 85.0 L 136.7 85.0 L 146.7 75.0 Z " />
</g>
</svg>
