<svg xmlns="http://www.w3.org/2000/svg" xmlns:xlink="http://www.w3.org/1999/xlink" version="1.1" baseProfile="full" viewBox="0 0 200 200" width="200" height="200">
<g fill="black">
<path d="M 61.3 131.8 L 60.0 129.0 L 58.5 126.1 L 56.8 123.2 L 54.9 120.3 L 52.8 117.3 L 50.4 114.3 L 50.2 114.04166669845581 L 50.2 183.0 L 38.2 189.0 L 38.2 110.7015625 L 35.3 114.1 L 28.4 121.3 L 21.1 128.2 L 13.3 134.6 L 12.0 133.3 L 18.4 125.5 L 24.4 117.8 L 30.2 110.0 L 35.6 102.1 L 38.2 97.93999996185303 L 38.2 97.0 L 38.7875 97.0 L 40.6 94.1 L 45.3 86.0 L 49.6 77.7 L 53.5 69.2 L 57.1 60.6 L 58.73908042907715 56.0 L 16.2 56.0 L 16.2 52.0 L 38.2 52.0 L 38.2 12.0 L 50.2 14.0 L 53.2 16.0 L 50.2 17.8 L 50.2 52.0 L 59.9 52.0 L 65.9 47.0 L 76.9 56.0 L 71.9 59.0 L 69.7959641456604 59.876681613922116 L 67.5 65.1 L 63.2 73.9 L 58.4 82.4 L 53.3 90.7 L 48.944444465637204 97.0 L 50.2 97.0 L 50.2 109.1222222328186 L 53.4 110.9 L 54.836101055145264 111.87148017883301 L 55.4 111.0 L 57.0 107.6 L 58.5 104.5 L 60.0 101.5 L 61.2 98.8 L 62.3 96.3 L 63.2 93.9 L 64.0 91.8 L 64.5 90.0 L 64.67309713363647 89.26433696746827 L 64.5 89.2 L 64.89452056884765 88.3232876777649 L 64.9 88.3 L 64.90413036346436 88.30193252563477 L 65.4 87.2 L 75.8 93.4 L 77.6 96.5 L 72.91257858276367 96.98490562438965 L 72.9 97.0 L 71.3 98.9 L 69.5 100.9 L 67.5 103.1 L 65.3 105.3 L 62.9 107.6 L 60.3 110.1 L 57.4 112.6 L 56.824046516418456 113.21861667633057 L 59.9 115.6 L 62.8 118.1 L 65.5 120.8 L 68.1 123.6 L 70.4 126.6 L 72.5 129.6 L 74.4 132.8 L 74.4 137.4 L 71.2 140.7 L 66.7 140.7 L 63.4 137.6 L 62.4 134.7 Z M 151.5 176.0 L 167.5 176.0 L 168.7 175.9 L 169.6 175.7 L 170.2 175.5 L 170.6 175.4 L 170.7 175.2 L 170.9 175.0 L 171.1 174.7 L 171.3 174.1 L 171.4 173.2 L 171.5 172.0 L 171.5 125.0 L 138.0 125.0 L 138.0 149.93035717010497 L 146.9 148.5 L 152.5 147.7 L 154.29305992126464 147.50788640975952 L 153.5 144.6 L 151.5 138.0 L 150.4 134.6 L 148.9 131.3 L 150.4 130.3 L 152.8 133.1 L 155.3 135.8 L 157.6 138.8 L 159.7 141.8 L 161.6 144.9 L 163.4 148.1 L 165.0 151.5 L 166.5 154.8 L 167.8 158.3 L 168.9 161.8 L 168.0 166.3 L 164.2 168.9 L 159.7 167.9 L 157.2 164.2 L 156.8 160.9 L 156.4 157.7 L 155.9 154.4 L 155.2 151.2 L 155.06393976211547 150.63875131607057 L 153.6 151.4 L 148.4 153.6 L 143.0 155.7 L 137.6 157.7 L 126.4 161.3 L 120.7 163.0 L 114.9 164.6 L 109.0 166.2 L 107.09107656478882 166.68531951904296 L 105.6 170.2 L 103.1 167.7 L 98.8 156.2 L 100.8 155.9 L 106.7 155.0 L 112.7 154.1 L 118.5 153.2 L 124.3 152.2 L 126.0 151.93157892227174 L 126.0 125.0 L 93.7 125.0 L 93.7 183.0 L 81.7 189.0 L 81.7 115.0 L 93.7 121.0 L 126.0 121.0 L 126.0 95.2 L 101.6 95.2 L 101.6 102.2 L 89.6 108.2 L 89.6 50.7 L 101.6 56.7 L 126.0 56.7 L 126.0 34.32022476196289 L 121.7 34.9 L 112.6 35.9 L 103.4 36.6 L 94.0 36.9 L 84.5 36.8 L 84.4 35.1 L 93.6 33.2 L 102.7 31.3 L 111.6 29.4 L 120.4 27.5 L 128.9 25.4 L 137.2 23.1 L 145.3 20.8 L 153.3 18.2 L 161.0 15.5 L 168.6 12.6 L 169.20157012939453 14.299435710906982 L 178.1 22.0 L 178.4 25.1 L 174.28375177383424 23.318340301513672 L 172.6 23.9 L 164.5 26.3 L 156.3 28.5 L 147.9 30.5 L 139.3 32.2 L 138.0 32.4241379737854 L 138.0 56.7 L 162.3 56.7 L 168.3 51.7 L 179.3 60.7 L 174.3 64.7 L 174.3 99.2 L 162.3 105.2 L 162.3 95.2 L 138.0 95.2 L 138.0 121.0 L 171.5 121.0 L 177.5 116.0 L 188.5 125.0 L 183.5 129.0 L 183.5 172.0 L 183.4 174.5 L 182.9 177.0 L 182.1 179.4 L 180.9 181.7 L 179.2 183.7 L 177.2 185.3 L 175.0 186.6 L 172.5 187.4 L 170.1 187.8 L 167.5 188.0 L 167.5 182.0 L 151.5 179.0 Z M 101.6 60.7 L 101.6 91.2 L 126.0 91.2 L 126.0 60.7 Z M 138.0 60.7 L 138.0 91.2 L 162.3 91.2 L 162.3 60.7 Z " />
</g>
</svg>
