<svg xmlns="http://www.w3.org/2000/svg" xmlns:xlink="http://www.w3.org/1999/xlink" version="1.1" baseProfile="full" viewBox="0 0 200 200" width="200" height="200">
<g fill="black">
<path d="M 64.7 132.0 L 63.2 129.2 L 61.5 126.3 L 59.6 123.3 L 57.4 120.4 L 55.1 117.4 L 52.5 114.4 L 51.5 113.25714282989502 L 51.5 183.0 L 39.5 189.0 L 39.5 109.96086959838867 L 35.6 114.2 L 28.2 121.4 L 20.3 128.2 L 11.9 134.6 L 10.7 133.3 L 17.7 125.5 L 24.3 117.7 L 30.6 109.9 L 36.6 102.0 L 39.5 97.78181819915771 L 39.5 97.0 L 40.0375 97.0 L 42.1 94.0 L 47.2 85.8 L 51.9 77.5 L 56.2 69.1 L 60.0 60.5 L 61.78977270126343 56.0 L 15.1 56.0 L 15.1 52.0 L 39.5 52.0 L 39.5 12.0 L 51.5 14.0 L 54.5 16.0 L 51.5 17.8 L 51.5 52.0 L 63.1 52.0 L 69.1 47.0 L 80.1 56.0 L 75.1 59.0 L 72.85724134445191 59.93448276519776 L 70.4 65.2 L 65.7 74.0 L 60.5 82.6 L 55.0 90.9 L 50.348750019073485 97.0 L 51.5 97.0 L 51.5 108.8 L 55.4 110.8 L 57.155090141296384 111.9533450126648 L 57.8 111.0 L 59.6 107.6 L 61.4 104.4 L 63.0 101.4 L 64.4 98.7 L 65.6 96.1 L 66.7 93.8 L 67.5 91.7 L 68.2 89.8 L 68.36283521652221 89.10795021057129 L 68.1 89.0 L 69.1 87.1 L 79.3 93.6 L 81.1 96.7 L 76.37054109573364 97.0206413269043 L 76.3 97.1 L 74.6 99.0 L 72.6 101.1 L 70.5 103.2 L 68.2 105.4 L 65.6 107.7 L 62.8 110.2 L 59.8 112.7 L 59.16842107772827 113.28947372436524 L 62.3 115.5 L 65.4 118.0 L 68.3 120.7 L 71.0 123.5 L 73.5 126.4 L 75.8 129.5 L 77.8 132.7 L 77.9 137.3 L 74.9 140.7 L 70.3 140.8 L 66.9 137.8 L 65.9 134.9 Z M 123.2 161.3 L 123.9 164.8 L 120.1554217338562 163.8638554573059 L 119.4 164.5 L 115.5 167.6 L 111.4 170.6 L 107.1 173.5 L 102.7 176.3 L 98.1 178.9 L 93.3 181.5 L 88.4 183.8 L 83.2 186.0 L 77.8 187.8 L 77.0 186.2 L 85.6 179.2 L 89.8 175.9 L 93.8 172.7 L 97.7 169.4 L 101.5 166.1 L 105.0 162.8 L 108.4 159.5 L 111.7 156.1 L 114.12350120544434 153.52014389038087 L 114.1 153.5 L 115.0 152.5 Z M 166.1 178.7 L 163.7 175.8 L 161.1 172.9 L 158.2 170.1 L 155.1 167.3 L 151.8 164.6 L 148.2 161.9 L 144.5 159.2 L 140.4 156.5 L 141.1 154.9 L 145.9 156.2 L 150.5 157.6 L 154.9 159.4 L 159.1 161.4 L 163.1 163.6 L 166.8 166.0 L 170.4 168.6 L 173.8 171.4 L 176.9 174.4 L 179.9 177.6 L 180.9 182.0 L 178.6 186.0 L 174.1 187.0 L 170.2 184.7 L 168.2 181.6 Z M 73.8 142.4 L 87.5 142.4 L 87.5 44.0 L 99.5 50.0 L 113.3 50.0 L 113.3 18.0 L 125.3 20.0 L 128.3 22.0 L 125.3 23.8 L 125.3 50.0 L 138.3 50.0 L 138.3 18.0 L 150.3 20.0 L 153.3 22.0 L 150.3 23.8 L 150.3 50.0 L 163.4 50.0 L 169.4 45.0 L 180.4 54.0 L 175.4 58.0 L 175.4 142.4 L 178.6 142.4 L 183.1 136.4 L 189.1 142.4 L 189.1 146.4 L 73.8 146.4 Z M 99.5 98.0 L 99.5 142.4 L 113.3 142.4 L 113.3 98.0 Z M 125.3 98.0 L 125.3 142.4 L 138.3 142.4 L 138.3 98.0 Z M 150.3 98.0 L 150.3 142.4 L 163.4 142.4 L 163.4 98.0 Z M 99.5 54.0 L 99.5 94.0 L 113.3 94.0 L 113.3 54.0 Z M 125.3 54.0 L 125.3 94.0 L 138.3 94.0 L 138.3 54.0 Z M 150.3 54.0 L 150.3 94.0 L 163.4 94.0 L 163.4 54.0 Z " />
</g>
</svg>
