<svg xmlns="http://www.w3.org/2000/svg" xmlns:xlink="http://www.w3.org/1999/xlink" version="1.1" baseProfile="full" viewBox="0 0 200 200" width="200" height="200">
<g fill="black">
<path d="M 139.0 176.2 L 160.2 176.2 L 161.1 176.0 L 161.7 175.8 L 162.3 175.5 L 162.4 175.3 L 162.6 175.0 L 162.8 174.4 L 162.9 173.5 L 163.0 172.2 L 163.0 134.3 L 123.5 134.3 L 123.5 130.3 L 163.0 130.3 L 163.0 108.1 L 175.0 110.1 L 178.0 112.1 L 175.0 113.9 L 175.0 130.3 L 177.4 130.3 L 181.9 124.3 L 187.9 130.3 L 187.9 134.3 L 175.0 134.3 L 175.0 172.2 L 174.9 174.8 L 174.4 177.3 L 173.6 179.7 L 172.4 182.0 L 170.7 184.0 L 168.7 185.6 L 166.5 186.8 L 164.1 187.6 L 161.6 188.1 L 159.0 188.2 L 159.0 182.2 L 139.0 179.2 Z M 29.4 133.0 L 58.4 133.0 L 63.9 128.0 L 74.4 137.0 L 69.4 140.5 L 69.4 179.0 L 58.4 184.5 L 58.4 175.0 L 29.4 175.0 L 29.4 182.0 L 17.4 188.0 L 17.4 127.0 Z M 93.3 121.6 L 109.0 121.6 L 115.0 116.6 L 126.0 125.6 L 121.0 129.6 L 121.0 171.1 L 109.0 177.1 L 109.0 165.1 L 93.3 165.1 L 93.3 177.1 L 82.3 182.6 L 82.3 116.1 Z M 29.4 137.0 L 29.4 171.0 L 58.4 171.0 L 58.4 137.0 Z M 139.5 159.6 L 139.1 157.3 L 138.7 155.2 L 138.1 153.0 L 137.4 150.9 L 136.5 148.9 L 135.6 146.8 L 134.4 144.6 L 132.8 142.9 L 133.9 141.5 L 136.0 142.9 L 138.4 144.1 L 140.5 145.6 L 142.5 147.4 L 144.4 149.3 L 146.2 151.5 L 147.8 153.8 L 149.2 156.3 L 150.4 159.0 L 151.5 161.9 L 150.6 166.3 L 146.8 168.9 L 142.4 168.0 L 139.8 164.2 L 139.7 161.8 Z M 93.3 125.6 L 93.3 161.1 L 109.0 161.1 L 109.0 125.6 Z M 69.3 108.0 L 69.3 112.0 L 18.0 112.0 L 18.0 108.0 L 47.3 108.0 L 57.3 98.0 Z M 76.1 100.0 L 152.0 100.0 L 152.0 30.1 L 81.3 30.1 L 81.3 26.1 L 163.3 26.1 L 173.3 16.1 L 185.3 26.1 L 185.3 30.1 L 164.0 30.1 L 164.0 100.0 L 169.71818180084227 100.0 L 177.9 91.0 L 187.9 100.0 L 187.9 104.0 L 76.1 104.0 Z M 100.9 49.0 L 126.6 49.0 L 132.6 44.0 L 143.6 53.0 L 138.6 57.0 L 138.6 82.5 L 126.6 88.5 L 126.6 78.5 L 100.9 78.5 L 100.9 85.5 L 88.9 91.5 L 88.9 43.0 Z M 69.3 82.0 L 69.3 86.0 L 18.0 86.0 L 18.0 82.0 L 47.3 82.0 L 57.3 72.0 Z M 100.9 53.0 L 100.9 74.5 L 126.6 74.5 L 126.6 53.0 Z M 77.4 54.0 L 77.4 58.0 L 14.4 58.0 L 14.4 54.0 L 55.4 54.0 L 65.4 44.0 Z M 69.3 28.0 L 69.3 32.0 L 18.0 32.0 L 18.0 28.0 L 47.3 28.0 L 57.3 18.0 Z " />
</g>
</svg>
