<svg xmlns="http://www.w3.org/2000/svg" xmlns:xlink="http://www.w3.org/1999/xlink" version="1.1" baseProfile="full" viewBox="0 0 200 200" width="200" height="200">
<g fill="black">
<path d="M 31.3 130.0 L 31.234640502929686 130.09803924560546 L 31.3 130.1 L 30.8 137.8 L 29.9 145.2 L 28.8 152.2 L 27.3 158.9 L 25.6 165.1 L 23.6 170.9 L 21.2 176.2 L 18.5 181.2 L 15.5 185.6 L 12.1 189.4 L 10.8 188.5 L 12.8 184.0 L 14.5 179.2 L 16.1 174.2 L 17.5 169.0 L 18.7 163.3 L 19.7 157.4 L 20.5 151.0 L 21.0 144.3 L 21.3 137.3 L 21.3 43.0 L 31.3 48.0 L 51.8 48.0 L 51.8 13.0 L 63.8 15.0 L 66.8 17.0 L 63.8 18.8 L 63.8 31.0 L 79.01818180084229 31.0 L 87.2 22.0 L 97.2 31.0 L 97.2 35.0 L 63.8 35.0 L 63.8 48.0 L 88.6 48.0 L 94.6 43.0 L 105.6 52.0 L 100.6 55.0 L 97.9529411315918 56.1029411315918 L 97.9 56.2 L 96.5 58.4 L 95.1 60.7 L 93.6 62.9 L 92.0 65.2 L 90.3 67.5 L 88.5 69.7 L 86.5 71.9 L 84.9 74.4 L 83.3 73.5 L 84.4 70.8 L 85.0 67.9 L 86.2 62.5 L 86.8 60.0 L 87.8 55.0 L 88.32173910140992 52.0 L 31.3 52.0 Z M 166.9 111.3 L 162.3 106.0 L 158.0 100.1 L 154.1 93.7 L 150.5 86.9 L 147.3 79.5 L 144.5 71.6 L 142.94716548919678 66.16507940292358 L 140.9 71.2 L 136.9 79.7 L 132.4 87.7 L 127.6 95.2 L 122.4 102.1 L 116.9 108.5 L 112.14137935638428 113.02068967819214 L 123.3 118.6 L 158.5 118.6 L 164.5 113.6 L 175.5 122.6 L 170.5 126.6 L 170.5 177.3 L 158.5 183.3 L 158.5 173.3 L 123.3 173.3 L 123.3 180.3 L 111.3 186.3 L 111.3 113.81999998092651 L 110.9 114.2 L 104.6 119.3 L 97.8 123.7 L 97.8 150.0 L 87.8 155.0 L 87.8 150.0 L 79.3 150.0 L 79.3 166.18571424484253 L 82.0 165.8 L 89.8 164.8 L 97.7 163.9 L 105.7 163.1 L 106.2 164.8 L 98.5 167.6 L 90.9 170.0 L 83.3 172.3 L 75.8 174.4 L 68.3 176.3 L 60.9 178.2 L 53.5 179.9 L 46.2 181.6 L 39.0 183.2 L 35.78297872543335 183.8702127456665 L 34.2 187.3 L 31.8 184.7 L 27.9 173.2 L 29.8 172.9 L 37.0 172.0 L 44.3 171.0 L 51.7 170.1 L 53.8 169.78783779144288 L 53.8 150.0 L 44.3 150.0 L 44.3 157.0 L 36.3 161.0 L 36.3 116.0 L 44.3 118.0 L 46.3 120.0 L 44.3 121.5 L 44.3 146.0 L 53.8 146.0 L 53.8 109.0 L 61.8 111.0 L 63.8 113.0 L 61.8 114.5 L 61.8 168.6447368621826 L 66.7 168.0 L 71.3 167.33421049118041 L 71.3 109.0 L 79.3 111.0 L 81.3 113.0 L 79.3 114.5 L 79.3 146.0 L 87.8 146.0 L 87.8 117.0 L 97.8 119.0 L 98.875452709198 119.8603621482849 L 102.0 116.5 L 107.1 110.5 L 111.8 104.3 L 116.3 97.7 L 120.4 90.7 L 124.2 83.3 L 127.8 75.5 L 130.9 67.2 L 133.8 58.4 L 136.14050340652466 50.20823802947998 L 136.1 50.2 L 136.8 47.6 L 147.9 52.6 L 150.2 55.3 L 146.62992744445802 56.256269454956055 L 145.30098876953124 60.08200216293335 L 146.1 61.7 L 149.9 69.3 L 153.8 76.3 L 157.8 82.8 L 161.9 88.6 L 166.2 93.9 L 170.6 98.7 L 175.1 102.8 L 179.7 106.4 L 184.5 109.4 L 188.3 111.9 L 177.3 120.5 L 171.9 116.2 Z M 123.3 122.6 L 123.3 169.3 L 158.5 169.3 L 158.5 122.6 Z M 92.0 68.0 L 94.0 68.0 L 92.0 93.0 L 95.6 95.4 L 98.0 99.0 L 95.6 102.6 L 92.0 105.0 L 63.5 105.0 L 60.9 104.8 L 58.4 104.4 L 56.0 103.6 L 53.7 102.3 L 51.7 100.7 L 50.1 98.7 L 48.8 96.4 L 48.0 94.0 L 47.6 91.5 L 47.5 89.0 L 47.5 80.07441864013671 L 31.8 81.9 L 31.3 78.0 L 47.5 76.11992263793945 L 47.5 55.0 L 59.5 57.0 L 62.5 59.0 L 59.5 60.8 L 59.5 74.72727270126343 L 61.10441551208496 74.54107360839843 L 69.9 63.4 L 83.0 72.0 L 83.4 75.9 L 59.5 78.67906980514526 L 59.5 90.2 L 59.7 91.1 L 60.0 92.0 L 60.4 92.4 L 61.3 92.7 L 62.2 92.9 L 63.5 93.0 L 86.0 93.0 Z M 134.4 25.0 L 136.5 27.9 L 132.7196575164795 28.62953977584839 L 131.9 30.4 L 129.2 35.7 L 126.4 40.7 L 123.3 45.6 L 120.0 50.2 L 116.5 54.6 L 112.8 58.8 L 108.9 62.8 L 104.6 66.4 L 100.1 69.6 L 98.9 68.3 L 101.9 63.8 L 104.8 59.3 L 107.6 54.8 L 110.3 50.3 L 112.8 45.7 L 115.2 40.9 L 117.4 36.1 L 119.5 31.1 L 121.4 26.0 L 122.80527830123901 21.70150156021118 L 122.8 21.7 L 122.89600000381469 21.423999977111816 L 123.1 20.8 L 123.1115502357483 20.804293060302733 L 123.6 19.4 Z M 167.1 51.6 L 163.3 43.8 L 161.2 40.1 L 159.0 36.5 L 156.7 32.9 L 154.3 29.3 L 151.8 25.8 L 149.2 22.3 L 150.4 20.9 L 154.2 23.3 L 157.9 25.9 L 161.3 28.8 L 164.6 31.9 L 167.8 35.3 L 170.8 38.8 L 173.7 42.5 L 176.4 46.4 L 178.9 50.5 L 181.4 54.7 L 181.5 59.3 L 178.4 62.7 L 173.9 62.8 L 170.5 59.7 L 168.9 55.6 Z " />
</g>
</svg>
