<svg xmlns="http://www.w3.org/2000/svg" xmlns:xlink="http://www.w3.org/1999/xlink" version="1.1" baseProfile="full" viewBox="0 0 200 200" width="200" height="200">
<g fill="black">
<path d="M 165.2 183.2 L 160.2 179.9 L 155.5 176.3 L 151.2 172.1 L 147.4 167.6 L 144.0 162.6 L 141.0 157.3 L 138.6 151.5 L 137.02857141494752 146.0 L 136.94782609939574 146.0 L 134.6 152.0 L 130.0 160.4 L 124.6 167.8 L 118.3 174.2 L 111.3 179.5 L 103.5 183.8 L 94.9 186.9 L 85.7 188.8 L 85.3 187.1 L 85.47061119079589 187.02301692962646 L 83.7 187.1 L 80.2 184.2 L 79.3 181.7 L 78.1 179.1 L 76.6 176.6 L 74.9 174.1 L 72.9 171.6 L 70.7 169.1 L 68.2 166.6 L 65.4 164.1 L 62.3 161.5 L 58.9 159.2 L 59.6 157.6 L 63.7 159.0 L 67.6 160.3 L 71.3 161.9 L 74.8 163.7 L 78.1 165.7 L 81.1 168.0 L 84.0 170.4 L 86.5 173.0 L 88.9 175.8 L 91.0 178.8 L 91.2 183.4 L 89.82665557861328 185.05748472213745 L 93.5 183.4 L 100.9 179.1 L 107.4 174.2 L 113.0 168.8 L 117.8 162.6 L 121.9 155.7 L 125.3 148.1 L 125.975 146.0 L 90.1 146.0 L 90.1 142.0 L 127.26071424484253 142.0 L 128.0 139.7 L 129.9 130.4 L 131.08260869979858 120.44637680053711 L 131.3 118.2 L 143.0 121.6 L 145.8 123.9 L 142.33142910003662 125.47067365646362 L 141.1 132.6 L 138.42745094299318 142.0 L 163.8 142.0 L 173.8 132.0 L 185.8 142.0 L 185.8 146.0 L 139.53999996185303 146.0 L 142.2 149.5 L 146.0 154.0 L 149.7 158.2 L 153.6 161.9 L 157.5 165.2 L 161.7 168.1 L 166.0 170.6 L 170.5 172.6 L 175.2 174.3 L 180.1 175.6 L 188.0 177.9 L 176.4 188.3 L 170.6 186.0 Z M 50.6 162.0 L 52.1 165.3 L 47.90178785324097 165.2288438796997 L 45.7 167.6 L 42.9 170.4 L 39.9 173.1 L 36.7 175.7 L 33.3 178.3 L 29.6 180.9 L 25.7 183.4 L 21.5 185.7 L 17.1 188.1 L 16.0 186.6 L 19.5 183.2 L 22.7 179.7 L 25.7 176.3 L 28.5 173.1 L 31.1 170.0 L 33.4 167.0 L 35.5 164.0 L 37.4 161.1 L 39.0 158.3 L 39.926318645477295 156.51352825164795 L 39.9 156.5 L 40.18125 156.021875 L 40.4 155.6 L 40.421482753753665 155.6134793281555 L 40.9 154.8 Z M 38.0 74.1 L 70.0 74.1 L 76.0 69.1 L 87.0 78.1 L 82.0 82.1 L 82.0 147.4 L 70.0 153.4 L 70.0 147.4 L 38.0 147.4 L 38.0 150.4 L 26.0 156.4 L 26.0 68.1 Z M 38.0 124.3 L 38.0 143.4 L 70.0 143.4 L 70.0 124.3 Z M 114.0 63.2 L 161.9 63.2 L 167.9 58.2 L 178.9 67.2 L 173.9 71.2 L 173.9 120.8 L 161.9 126.8 L 161.9 114.8 L 114.0 114.8 L 114.0 126.8 L 102.0 132.8 L 102.0 57.2 Z M 38.0 101.2 L 38.0 120.3 L 70.0 120.3 L 70.0 101.2 Z M 114.0 90.3 L 114.0 110.8 L 161.9 110.8 L 161.9 90.3 Z M 38.0 78.1 L 38.0 97.2 L 70.0 97.2 L 70.0 78.1 Z M 114.0 67.2 L 114.0 86.3 L 161.9 86.3 L 161.9 67.2 Z M 29.1 59.8 L 18.1 65.3 L 18.1 17.8 L 29.1 23.3 L 78.8 23.3 L 84.3 18.3 L 94.8 27.3 L 89.8 30.8 L 89.8 58.8 L 78.8 64.3 L 78.8 56.8 L 29.1 56.8 Z M 159.9 15.0 L 162.9 17.0 L 159.9 18.8 L 159.9 34.0 L 162.3 34.0 L 172.3 24.0 L 184.3 34.0 L 184.3 38.0 L 159.9 38.0 L 159.9 51.0 L 147.9 57.0 L 147.9 38.0 L 128.0 38.0 L 128.0 51.0 L 116.0 57.0 L 116.0 38.0 L 93.1 38.0 L 93.1 34.0 L 116.0 34.0 L 116.0 13.0 L 128.0 15.0 L 131.0 17.0 L 128.0 18.8 L 128.0 34.0 L 147.9 34.0 L 147.9 13.0 Z M 29.1 27.3 L 29.1 52.8 L 38.8 52.8 L 38.8 27.3 Z M 48.8 27.3 L 48.8 52.8 L 59.1 52.8 L 59.1 27.3 Z M 69.1 27.3 L 69.1 52.8 L 78.8 52.8 L 78.8 27.3 Z " />
</g>
</svg>
