<svg xmlns="http://www.w3.org/2000/svg" xmlns:xlink="http://www.w3.org/1999/xlink" version="1.1" baseProfile="full" viewBox="0 0 200 200" width="200" height="200">
<g fill="black">
<path d="M 155.5 185.8 L 143.2 182.6 L 131.4 177.8 L 123.47419357299805 172.95645160675048 L 113.7 175.4 L 99.0 178.4 L 83.6 181.0 L 67.5 183.1 L 50.6 184.7 L 33.0 185.8 L 14.7 186.2 L 14.6 184.4 L 32.7 182.0 L 50.0 179.4 L 66.5 176.6 L 82.2 173.5 L 97.2 170.1 L 111.4 166.4 L 114.27493991851807 165.52035417556763 L 110.8 162.4 L 102.6 151.5 L 101.72727270126343 149.7 L 46.6 149.7 L 46.6 161.7 L 34.6 167.7 L 34.6 108.7 L 46.6 114.7 L 90.85500001907349 114.7 L 89.8148796081543 105.7846827507019 L 89.7 105.8 L 89.6 102.6 L 101.7 104.2 L 104.8 106.1 L 102.12509593963622 107.84687604904175 L 102.92392635345459 114.7 L 152.3 114.7 L 158.3 109.7 L 169.3 118.7 L 164.3 122.7 L 164.3 149.7 L 162.03431730270387 150.83284130096436 L 168.8 157.1 L 169.0 160.3 L 165.211811542511 158.73662061691283 L 153.5 163.6 L 140.9 167.9 L 139.68082942962647 168.26944561004638 L 146.9 171.2 L 157.8 174.0 L 169.2 175.5 L 175.28663654327391 175.7579083442688 L 181.0 151.0 L 183.0 151.0 L 181.07446804046631 176.0319149017334 L 185.2 177.8 L 187.0 182.0 L 185.2 186.2 L 181.0 188.0 L 168.2 187.5 Z M 116.22444448471069 149.7 L 119.7 154.3 L 127.5125 161.33125 L 137.4 157.8 L 149.2 153.0 L 152.3 151.5627272605896 L 152.3 149.7 Z M 46.6 133.7 L 46.6 145.7 L 99.78787879943847 145.7 L 96.2 138.3 L 94.89419355392457 133.7 Z M 107.28823528289794 133.7 L 107.4 134.1 L 112.9 145.3 L 113.2022222518921 145.7 L 152.3 145.7 L 152.3 133.7 Z M 46.6 118.7 L 46.6 129.7 L 93.75870971679687 129.7 L 91.8 122.8 L 91.32166662216187 118.7 Z M 103.39018402099609 118.7 L 103.6 120.5 L 106.17058820724488 129.7 L 152.3 129.7 L 152.3 118.7 Z M 63.7 52.7 L 66.7 54.7 L 63.7 56.5 L 63.7 67.0 L 76.11818180084228 67.0 L 84.3 58.0 L 94.3 67.0 L 94.3 71.0 L 63.7 71.0 L 63.7 85.29512195587158 L 71.5 86.5 L 86.5 87.8 L 104.2 88.7 L 124.5 89.1 L 147.5 89.0 L 173.1 88.3 L 184.7 88.1 L 173.4 101.5 L 147.5 101.5 L 124.3 100.9 L 103.6 99.7 L 85.6 98.0 L 70.1 95.7 L 57.3 92.8 L 47.1 89.2 L 39.5 84.8 L 34.7 79.6 L 34.568365287780765 79.03295831680298 L 33.0 83.0 L 31.0 86.9 L 28.7 90.5 L 26.1 93.7 L 23.3 96.5 L 20.1 98.9 L 16.9 100.9 L 15.7 99.5 L 17.9 96.6 L 19.6 93.6 L 21.2 90.4 L 22.5 87.1 L 23.6 83.7 L 24.6 80.1 L 25.3 76.3 L 25.8 72.2 L 26.1 67.9 L 26.17827491760254 64.29935312271118 L 26.1 64.3 L 26.4 61.1 L 38.2 64.2 L 41.0 66.4 L 37.503225803375244 68.14838705062866 L 37.3 69.3 L 36.2 74.2 L 36.030508518218994 74.70847454071045 L 38.0 77.1 L 42.6 79.8 L 49.6 82.4 L 51.7 82.88125 L 51.7 52.3 L 19.1 52.3 L 19.1 48.3 L 51.7 48.3 L 51.7 35.0 L 21.9 35.0 L 21.9 31.0 L 51.7 31.0 L 51.7 15.2 L 63.7 17.2 L 66.7 19.2 L 63.7 21.0 L 63.7 31.0 L 71.4 31.0 L 81.4 21.0 L 93.4 31.0 L 93.4 35.0 L 63.7 35.0 L 63.7 48.3 L 77.11818180084228 48.3 L 85.3 39.3 L 95.3 48.3 L 95.3 52.3 L 61.3 52.3 Z M 116.4 86.8 L 113.9 86.4 L 111.5 85.5 L 109.2 84.3 L 107.2 82.7 L 105.6 80.7 L 104.3 78.4 L 103.5 76.0 L 103.1 73.5 L 102.9 70.9 L 102.9 15.0 L 114.9 21.0 L 161.0 21.0 L 167.0 16.0 L 178.0 25.0 L 173.0 29.0 L 173.0 53.8 L 161.0 59.8 L 161.0 49.8 L 114.9 49.8 L 114.9 70.9 L 115.0 72.2 L 115.2 73.1 L 115.5 74.0 L 115.7 74.2 L 115.9 74.3 L 116.2 74.5 L 116.8 74.7 L 117.7 74.9 L 169.8 74.9 L 175.8 49.9 L 177.8 49.9 L 175.8 74.9 L 179.4 77.3 L 181.8 80.9 L 179.4 84.5 L 175.8 86.9 L 118.9 86.9 Z M 114.9 25.0 L 114.9 45.8 L 161.0 45.8 L 161.0 25.0 Z " />
</g>
</svg>
