<svg xmlns="http://www.w3.org/2000/svg" xmlns:xlink="http://www.w3.org/1999/xlink" version="1.1" baseProfile="full" viewBox="0 0 200 200" width="200" height="200">
<g fill="black">
<path d="M 159.8 175.5 L 167.8 175.5 L 168.7 175.4 L 169.4 175.3 L 170.0 175.0 L 170.4 174.6 L 170.6 174.1 L 170.8 173.4 L 171.0 172.3 L 171.0 133.0 L 158.1 133.0 L 158.1 180.5 L 148.1 185.5 L 148.1 133.0 L 135.1 133.0 L 135.1 182.2 L 124.1 187.7 L 124.1 65.0 L 106.8 65.0 L 106.8 109.37894735336303 L 110.4 107.8 L 116.3 105.4 L 122.5 103.2 L 123.4 104.7 L 118.2 108.8 L 113.0 112.5 L 107.9 116.0 L 106.8 116.74799995422363 L 106.8 183.0 L 94.8 189.0 L 94.8 124.61063833236695 L 93.3 125.6 L 88.7 128.6 L 84.2 131.4 L 79.9 134.1 L 79.28078813552857 134.4833215713501 L 78.9 138.4 L 75.7 136.7 L 68.3 127.2 L 70.0 126.2 L 74.5 124.1 L 79.1 122.0 L 83.9 119.8 L 88.8 117.5 L 94.0 115.1 L 94.8 114.73773584365844 L 94.8 65.0 L 84.80389614105225 65.0 L 83.7 70.0 L 81.8 77.4 L 79.6 84.5 L 77.2 91.4 L 74.5 98.0 L 71.5 104.2 L 69.8 103.7 L 70.9 96.9 L 72.1 90.0 L 73.2 83.0 L 74.3 75.8 L 75.3 68.4 L 76.3 60.8 L 77.0 53.1 L 77.7 45.1 L 78.3 36.9 L 78.65240173339843 29.49956331253052 L 78.6 29.5 L 78.8 26.3 L 90.6 29.4 L 93.5 31.6 L 90.14938268661498 33.27530860900879 L 89.6 38.0 L 88.4 46.3 L 87.0 54.4 L 85.6632911682129 61.0 L 94.8 61.0 L 94.8 13.0 L 106.8 15.0 L 109.8 17.0 L 106.8 18.8 L 106.8 61.0 L 110.0777777671814 61.0 L 116.3 54.0 L 124.3 61.0 L 124.3 64.6 L 135.1 70.0 L 148.1 70.0 L 148.1 46.0 L 121.6 46.0 L 121.6 42.0 L 148.1 42.0 L 148.1 11.0 L 158.1 13.0 L 160.6 15.0 L 158.1 16.66666669845581 L 158.1 42.0 L 169.01818180084229 42.0 L 175.65454549789428 34.7 L 171.8 34.7 L 168.5 31.6 L 168.0 29.4 L 167.5 27.4 L 167.0 25.6 L 166.4 23.8 L 165.8 22.1 L 165.1 20.5 L 164.4 19.0 L 163.7 17.6 L 162.8 16.1 L 161.6 15.2 L 162.4 13.6 L 164.0 14.3 L 165.9 14.7 L 167.7 15.4 L 169.6 16.4 L 171.4 17.6 L 173.1 19.1 L 174.8 20.7 L 176.4 22.6 L 178.0 24.6 L 179.5 26.8 L 179.5 31.4 L 177.6318554878235 33.38866996765137 L 187.2 42.0 L 187.2 46.0 L 158.1 46.0 L 158.1 70.0 L 171.0 70.0 L 176.5 65.0 L 187.0 74.0 L 182.0 77.5 L 182.0 171.0 L 181.9 173.4 L 181.5 175.7 L 180.9 178.0 L 179.9 180.1 L 178.5 182.1 L 176.7 183.7 L 174.7 185.0 L 172.4 185.8 L 170.1 186.3 L 167.8 186.5 L 167.8 181.0 L 159.8 178.2 Z M 13.8 169.0 L 18.2 167.58867921829224 L 18.2 101.0 L 29.2 103.0 L 32.0 105.0 L 29.2 106.75 L 29.2 163.91509437561035 L 35.1 161.8 L 37.0 161.08301887512206 L 37.0 80.0 L 29.7 80.0 L 29.7 83.0 L 17.7 89.0 L 17.7 22.0 L 29.7 28.0 L 53.3 28.0 L 59.3 23.0 L 70.3 32.0 L 65.3 36.0 L 65.3 86.0 L 53.3 92.0 L 53.3 80.0 L 48.0 80.0 L 48.0 117.0 L 52.577777767181395 117.0 L 58.8 110.0 L 66.8 117.0 L 66.8 121.0 L 48.0 121.0 L 48.0 156.80555553436278 L 51.1 155.6 L 56.5 153.4 L 62.0 151.2 L 67.6 149.2 L 68.5 150.7 L 63.9 154.6 L 59.1 158.1 L 54.1 161.4 L 49.1 164.5 L 44.0 167.5 L 38.9 170.3 L 28.5 175.5 L 23.2 177.9 L 21.801031589508057 178.50709953308106 L 20.8 182.4 L 17.9 180.2 L 12.0 169.7 Z M 135.1 104.0 L 135.1 129.0 L 148.1 129.0 L 148.1 104.0 Z M 158.1 104.0 L 158.1 129.0 L 171.0 129.0 L 171.0 104.0 Z M 135.1 74.0 L 135.1 100.0 L 148.1 100.0 L 148.1 74.0 Z M 158.1 74.0 L 158.1 100.0 L 171.0 100.0 L 171.0 74.0 Z M 29.7 32.0 L 29.7 76.0 L 53.3 76.0 L 53.3 32.0 Z " />
</g>
</svg>
