<svg xmlns="http://www.w3.org/2000/svg" xmlns:xlink="http://www.w3.org/1999/xlink" version="1.1" baseProfile="full" viewBox="0 0 200 200" width="200" height="200">
<g fill="black">
<path d="M 132.7 186.2 L 113.4 185.4 L 96.4 184.0 L 81.8 181.8 L 69.5 178.8 L 59.5 175.1 L 52.0 170.4 L 47.77948532104492 165.66268758773805 L 44.3 169.6 L 40.1 173.5 L 35.5 177.2 L 30.6 180.5 L 25.2 183.4 L 19.5 186.0 L 13.3 188.0 L 12.6 186.4 L 17.6 182.7 L 22.3 178.9 L 26.6 175.2 L 30.6 171.4 L 34.1 167.5 L 37.2 163.6 L 40.0 159.5 L 42.4 155.2 L 44.4 150.9 L 45.67244968414307 147.32123527526855 L 45.6 147.3 L 46.5 145.0 L 57.2 150.7 L 59.2 153.7 L 55.3634614944458 154.37307691574097 L 54.6 155.9 L 51.6 160.7 L 50.39095268249512 162.2890336036682 L 50.4 162.3 L 55.3 165.5 L 62.2 168.4 L 71.5 170.7 L 83.2 172.5 L 91.0 173.21914892196656 L 91.0 140.6 L 54.0 140.6 L 42.0 146.6 L 42.0 110.8 L 54.0 116.8 L 144.0 116.8 L 150.0 111.8 L 161.0 120.8 L 156.0 124.8 L 156.0 140.6 L 144.0 146.6 L 144.0 140.6 L 103.0 140.6 L 103.0 155.5 L 148.0 155.5 L 158.0 145.5 L 170.0 155.5 L 170.0 159.5 L 103.0 159.5 L 103.0 174.0072727203369 L 113.8 174.4 L 132.7 174.4 L 154.0 173.7 L 177.6 172.4 L 188.8 171.8 L 178.3 185.6 L 154.3 186.2 Z M 54.0 120.8 L 54.0 136.6 L 144.0 136.6 L 144.0 120.8 Z M 181.6 93.7 L 179.8 95.3 L 177.8 96.7 L 175.8 97.9 L 173.6 98.9 L 171.3 99.7 L 168.9 100.2 L 166.5 100.5 L 164.1 100.7 L 164.1 94.7 L 154.1 91.7 L 154.1 88.7 L 164.1 88.7 L 165.5 88.6 L 166.8 88.4 L 169.2 87.8 L 170.2 87.3 L 171.2 86.7 L 172.2 86.0 L 173.1 85.2 L 174.0 84.2 L 174.9 83.0 L 175.3 82.6 L 175.8 81.2 L 176.1 79.1 L 175.9 76.5 L 175.0 73.4 L 173.0 69.9 L 169.8 66.1 L 165.0 62.2 L 158.4 58.2 L 149.825 53.81279067993164 L 149.7 53.9 L 148.5 52.6 L 151.7 48.5 L 154.7 44.5 L 157.6 40.7 L 160.3 37.1 L 162.9 33.6 L 165.3 30.2 L 167.4 26.9 L 169.4 23.8 L 169.8064516067505 23.1 L 135.7 23.1 L 135.7 108.9 L 123.7 114.9 L 123.7 13.1 L 135.7 19.1 L 171.8 19.1 L 172.2 18.76666669845581 L 172.7 17.8 L 173.0724021911621 18.039664840698244 L 177.8 14.1 L 188.8 23.1 L 183.8 26.1 L 179.97399101257324 27.69417037963867 L 177.9 30.1 L 175.1 33.1 L 172.2 36.0 L 169.0 39.0 L 165.6 42.0 L 162.0 45.0 L 158.2 48.0 L 154.0 50.9 L 151.9267219543457 52.34647302627563 L 160.2 53.6 L 168.2 56.5 L 174.6 60.2 L 179.5 64.4 L 183.1 69.0 L 185.4 73.6 L 186.6 78.2 L 186.8 82.6 L 186.2 86.4 L 184.7 89.9 L 183.2 91.9 Z M 12.4 46.7 L 51.9 46.7 L 51.9 31.1 L 23.5 31.1 L 23.5 27.1 L 51.9 27.1 L 51.9 11.4 L 63.9 13.4 L 66.9 15.4 L 63.9 17.2 L 63.9 27.1 L 69.71818180084229 27.1 L 77.9 18.1 L 87.9 27.1 L 87.9 27.31549291610718 L 93.8 21.0 L 99.8 14.0 L 100.8 12.8 L 109.5 21.1 L 110.5 24.6 L 106.75662698745728 23.95459089279175 L 102.1 28.8 L 94.2 36.3 L 85.8 43.6 L 81.858571434021 46.7 L 96.31818180084228 46.7 L 104.5 37.7 L 114.5 46.7 L 114.5 50.7 L 76.76176471710205 50.7 L 75.48999996185303 51.619999980926515 L 77.1 51.9 L 79.3 52.4 L 81.4 53.0 L 83.3 53.5 L 85.1 54.2 L 86.8 54.9 L 88.4 55.7 L 89.9 56.7 L 91.3 57.8 L 92.0 62.3 L 89.5 66.1 L 85.5625 66.8 L 91.9 66.8 L 97.9 61.8 L 108.9 70.8 L 103.9 74.8 L 103.9 104.1 L 91.9 110.1 L 91.9 104.1 L 48.4 104.1 L 36.4 110.1 L 36.4 76.3440366744995 L 36.3 76.4 L 24.8 82.1 L 12.8 87.4 L 12.0 85.8 L 23.0 78.8 L 33.5 71.8 L 36.4 69.79009904861451 L 36.4 60.8 L 43.927426147460935 64.56371307373047 L 53.3 57.8 L 62.273611068725586 50.7 L 12.4 50.7 Z M 48.4 87.5 L 48.4 100.1 L 91.9 100.1 L 91.9 87.5 Z M 48.4 70.8 L 48.4 83.5 L 91.9 83.5 L 91.9 70.8 Z M 81.2 62.8 L 80.8 61.8 L 80.2 60.7 L 79.3 59.4 L 78.2 58.0 L 76.9 56.6 L 75.5 55.0 L 73.8 53.4 L 73.36948356628417 53.153990650177 L 67.5 57.4 L 57.6 64.0 L 52.977777767181394 66.8 L 84.85384616851806 66.8 L 81.2 64.3 L 81.3 63.7 Z M 63.9 31.1 L 63.9 46.7 L 67.0583333015442 46.7 L 71.0 43.4 L 79.1 36.0 L 84.13243246078491 31.1 Z " />
</g>
</svg>
