<svg xmlns="http://www.w3.org/2000/svg" xmlns:xlink="http://www.w3.org/1999/xlink" version="1.1" baseProfile="full" viewBox="0 0 200 200" width="200" height="200">
<g fill="black">
<path d="M 70.7 154.6 L 65.1 158.2 L 59.4 161.5 L 53.7 164.6 L 47.9 167.5 L 42.0 170.4 L 36.1 173.0 L 30.1 175.6 L 21.988524627685546 178.84459018707275 L 20.9 182.6 L 18.1 180.4 L 12.5 169.5 L 14.4 168.9 L 19.8 167.48360652923583 L 19.8 101.0 L 30.8 103.0 L 33.5 105.0 L 30.8 106.72340421676635 L 30.8 164.23114757537843 L 32.6 163.7 L 41.1 160.86666669845582 L 41.1 80.0 L 31.3 80.0 L 31.3 83.0 L 19.3 89.0 L 19.3 22.0 L 31.3 28.0 L 59.7 28.0 L 65.7 23.0 L 76.7 32.0 L 71.7 36.0 L 71.7 86.0 L 59.7 92.0 L 59.7 80.0 L 52.1 80.0 L 52.1 117.0 L 59.977777767181394 117.0 L 66.2 110.0 L 74.2 117.0 L 74.2 121.0 L 52.1 121.0 L 52.1 157.11000003814698 L 56.7 155.5 L 62.8 153.3 L 75.2 149.1 L 75.84640121459961 150.32098007202148 L 77.0 149.8 L 80.4 148.1 L 83.9 146.3 L 87.6 144.2 L 89.68695650100707 143.0 L 89.0 143.0 L 89.0 72.0 L 76.0 72.0 L 76.0 68.0 L 89.0 68.0 L 89.0 17.0 L 101.0 19.0 L 104.0 21.0 L 101.0 22.8 L 101.0 68.0 L 104.6 68.0 L 109.1 62.0 L 115.1 68.0 L 115.1 72.0 L 101.0 72.0 L 101.0 136.340425491333 L 104.9 134.1 L 109.9 131.2 L 115.1 128.2 L 116.2 129.7 L 112.1 134.1 L 108.0 138.2 L 104.1 142.0 L 100.2 145.5 L 96.5 148.7 L 92.9 151.8 L 89.4 154.6 L 86.1 157.1 L 83.38937730789185 159.13296699523926 L 83.1 163.3 L 79.9 161.7 L 72.89391756057739 153.05613203048705 Z M 129.2 113.0 L 129.2 155.53636360168457 L 131.2 151.9 L 133.2 147.5 L 134.8 142.7 L 136.1 137.4 L 137.0 131.6 L 137.6 125.3 L 137.8 118.4 L 137.72702703475952 113.0 Z M 165.9 155.4 L 163.5 155.0 L 161.1 154.2 L 158.9 153.1 L 156.9 151.5 L 155.2 149.6 L 154.0 147.4 L 153.1 145.0 L 152.6 142.5 L 152.4 140.0 L 152.4 113.0 L 149.575 113.0 L 149.2 119.0 L 148.3 126.5 L 146.9 133.4 L 145.0 139.8 L 142.7 145.7 L 140.0 150.9 L 136.7 155.5 L 133.0 159.4 L 129.2 162.2731707572937 L 129.2 172.0 L 163.3 172.0 L 173.3 162.0 L 185.3 172.0 L 185.3 176.0 L 129.2 176.0 L 129.2 183.0 L 117.2 189.0 L 117.2 113.0 L 111.1 113.0 L 111.1 109.0 L 126.2 109.0 L 126.2 38.0 L 112.3 38.0 L 112.3 34.0 L 126.2 34.0 L 126.2 13.0 L 138.2 15.0 L 141.2 17.0 L 138.2 18.8 L 138.2 34.0 L 159.5 34.0 L 159.5 13.0 L 171.5 15.0 L 174.5 17.0 L 171.5 18.8 L 171.5 34.0 L 176.1 34.0 L 180.6 28.0 L 186.6 34.0 L 186.6 38.0 L 171.5 38.0 L 171.5 109.0 L 173.6777777671814 109.0 L 179.9 102.0 L 187.9 109.0 L 187.9 113.0 L 164.4 113.0 L 164.4 140.0 L 164.5 141.2 L 164.6 142.1 L 164.7 142.7 L 164.9 143.1 L 165.0 143.4 L 165.2 143.6 L 165.6 143.9 L 166.2 144.1 L 167.2 144.3 L 168.4 144.5 L 172.1 144.5 L 177.6 123.5 L 179.6 123.5 L 177.6 144.5 L 180.9 146.7 L 183.1 150.0 L 180.9 153.3 L 177.6 155.5 L 168.4 155.5 Z M 138.2 88.0 L 138.2 109.0 L 159.5 109.0 L 159.5 88.0 Z M 138.2 63.0 L 138.2 84.0 L 159.5 84.0 L 159.5 63.0 Z M 31.3 32.0 L 31.3 76.0 L 59.7 76.0 L 59.7 32.0 Z M 138.2 38.0 L 138.2 59.0 L 159.5 59.0 L 159.5 38.0 Z " />
</g>
</svg>
