<svg xmlns="http://www.w3.org/2000/svg" xmlns:xlink="http://www.w3.org/1999/xlink" version="1.1" baseProfile="full" viewBox="0 0 200 200" width="200" height="200">
<g fill="black">
<path d="M 42.0 176.0 L 58.0 176.0 L 59.2 175.9 L 60.1 175.7 L 61.0 175.4 L 61.4 175.0 L 61.7 174.1 L 61.9 173.2 L 62.0 172.0 L 62.0 139.37777776718139 L 61.0 140.6 L 53.5 148.9 L 45.8 156.9 L 37.9 164.4 L 29.7 171.4 L 21.3 177.8 L 12.5 183.7 L 11.4 182.2 L 18.8 174.9 L 26.1 167.4 L 33.3 159.7 L 40.3 151.7 L 47.1 143.4 L 53.7 134.8 L 56.8484375 130.440625 L 54.7 131.3 L 48.4 133.6 L 42.5 135.8 L 37.1 137.7 L 32.0 139.5 L 27.3 141.2 L 23.0 142.8 L 19.473728084564208 144.03419513702391 L 18.2 147.8 L 15.5 145.5 L 10.4 134.4 L 12.3 133.9 L 16.0 133.2 L 20.1 132.4 L 24.0 131.6199999809265 L 24.0 37.0 L 36.0 43.0 L 36.94117650985718 43.0 L 38.0 41.0 L 39.4 37.6 L 40.7 34.3 L 42.1 31.2 L 43.3 28.2 L 44.5 25.3 L 45.5 22.6 L 46.5 20.0 L 47.4 17.5 L 47.812621402740476 16.14424409866333 L 47.7 16.1 L 48.022222232818606 15.455555534362793 L 48.1 15.2 L 48.14014873504639 15.219702625274659 L 48.7 14.1 L 58.9 20.5 L 60.7 23.7 L 56.34251356124878 23.995422840118408 L 55.6 25.0 L 53.8 27.3 L 51.9 29.7 L 49.9 32.2 L 47.7 34.7 L 45.4 37.3 L 42.9 39.9 L 40.2 42.6 L 39.85517244338989 43.0 L 62.0 43.0 L 68.0 38.0 L 79.0 47.0 L 74.0 51.0 L 74.0 104.06101694107056 L 78.3 96.7 L 78.32172079086304 96.71307468414307 L 78.8 95.9 L 88.6 102.9 L 90.1 106.1 L 86.44642486572266 106.16299266815186 L 82.0 112.9 L 75.2 122.5 L 74.0 124.09428567886353 L 74.0 172.0 L 73.8 174.5 L 73.4 177.0 L 72.6 179.4 L 71.3 181.7 L 69.7 183.7 L 67.7 185.3 L 65.4 186.6 L 63.0 187.4 L 60.5 187.8 L 58.0 188.0 L 58.0 182.0 L 42.0 179.0 Z M 174.2 168.7 L 173.4 164.2 L 172.4 159.6 L 171.2 155.0 L 169.8 150.4 L 168.3 145.7 L 166.6 141.0 L 164.9 136.2 L 163.0 131.2 L 164.5 130.3 L 168.1 134.3 L 171.3 138.5 L 174.2 142.9 L 176.8 147.4 L 179.1 152.0 L 181.2 156.7 L 183.0 161.5 L 184.6 166.3 L 186.0 171.2 L 187.1 176.2 L 185.9 180.6 L 181.9 183.0 L 177.5 181.7 L 175.2 177.8 L 174.8 173.3 Z M 85.0 182.2 L 83.1 178.0 L 84.6 173.7 L 86.2 172.1 L 87.9 169.8 L 89.6 166.9 L 91.2 163.4 L 92.7 159.2 L 94.0 154.5 L 95.3 149.1 L 96.5 143.2 L 97.7 136.7 L 98.9 129.7 L 100.7 129.7 L 101.4 136.9 L 101.8 143.6 L 101.8 149.9 L 101.5 155.7 L 100.9 161.1 L 100.1 166.0 L 98.9 170.5 L 97.5 174.7 L 95.7 178.4 L 93.4 181.8 L 89.3 183.7 Z M 145.4 166.3 L 145.1 162.1 L 144.6 157.9 L 144.0 153.7 L 142.2 145.3 L 141.1 141.1 L 139.9 136.8 L 138.5 132.5 L 140.1 131.6 L 143.0 135.3 L 145.6 139.1 L 148.0 143.1 L 150.0 147.2 L 151.9 151.5 L 153.4 155.8 L 154.8 160.3 L 155.9 164.9 L 156.8 169.5 L 157.5 174.3 L 155.9 178.5 L 151.8 180.5 L 147.5 178.9 L 145.5 174.8 L 145.5 170.6 Z M 122.8 180.5 L 118.7 178.5 L 117.1 174.3 L 117.6 170.0 L 117.9 165.8 L 118.0 161.6 L 118.0 157.4 L 117.9 153.3 L 117.6 149.1 L 117.1 145.0 L 116.6 140.8 L 116.0 136.6 L 115.2 132.4 L 116.9 131.7 L 119.1 135.5 L 121.3 139.4 L 123.1 143.4 L 124.6 147.6 L 125.9 151.9 L 127.0 156.3 L 127.8 160.8 L 128.5 165.4 L 128.9 170.1 L 129.1 174.8 L 127.1 178.9 Z M 36.0 102.0 L 36.0 129.26842107772828 L 40.5 128.4 L 46.7 127.3 L 53.2 126.1 L 60.3 125.1 L 60.702970314025876 125.04554452896119 L 62.0 123.1 L 62.0 102.0 Z M 166.6 104.8 L 161.5 97.9 L 156.5 90.3 L 151.8 81.9 L 147.3 72.8 L 143.1 62.9 L 139.1 52.2 L 135.4 40.8 L 135.0582109451294 39.47556743621826 L 133.0 45.6 L 128.4 57.3 L 123.3 68.5 L 117.8 79.2 L 111.8 89.4 L 105.3 99.1 L 98.3 108.2 L 90.7 116.6 L 82.6 124.4 L 81.3 123.2 L 87.8 114.2 L 93.9 105.0 L 99.8 95.5 L 105.2 85.7 L 110.2 75.4 L 114.8 64.8 L 119.0 53.7 L 122.8 42.2 L 126.2 30.2 L 128.88461942672728 18.813510704040528 L 128.8 18.8 L 129.5 16.1 L 140.7 20.7 L 143.2 23.3 L 139.6384901046753 24.444771003723144 L 137.1 33.4 L 136.8620454788208 34.10805978775024 L 139.3 39.3 L 144.5 49.9 L 149.6 59.8 L 154.7 68.9 L 159.9 77.2 L 165.0 84.6 L 170.2 91.2 L 175.4 96.9 L 180.7 101.8 L 185.9 105.9 L 188.6 108.0 L 177.7 116.3 L 172.0 110.9 Z M 36.0 73.0 L 36.0 98.0 L 62.0 98.0 L 62.0 73.0 Z M 36.0 47.0 L 36.0 69.0 L 62.0 69.0 L 62.0 47.0 Z " />
</g>
</svg>
