<svg xmlns="http://www.w3.org/2000/svg" xmlns:xlink="http://www.w3.org/1999/xlink" version="1.1" baseProfile="full" viewBox="0 0 200 200" width="200" height="200">
<g fill="black">
<path d="M 57.3 15.0 L 60.3 17.0 L 57.3 18.8 L 57.3 40.0 L 66.9 40.0 L 76.9 30.0 L 88.9 40.0 L 88.9 44.0 L 57.3 44.0 L 57.3 63.0 L 70.0 63.0 L 76.0 58.0 L 87.0 67.0 L 82.0 71.0 L 82.0 127.0 L 70.0 133.0 L 70.0 123.0 L 57.3 123.0 L 57.3 146.0 L 68.6 146.0 L 78.6 136.0 L 90.6 146.0 L 90.6 150.0 L 57.3 150.0 L 57.3 183.0 L 45.3 189.0 L 45.3 150.0 L 11.9 150.0 L 11.9 146.0 L 45.3 146.0 L 45.3 123.0 L 32.5 123.0 L 32.5 130.0 L 20.5 136.0 L 20.5 57.0 L 32.5 63.0 L 45.3 63.0 L 45.3 44.0 L 13.6 44.0 L 13.6 40.0 L 45.3 40.0 L 45.3 13.0 Z M 86.9 177.3 L 120.1 177.3 L 120.1 65.5 L 88.7 65.5 L 88.7 61.5 L 145.35200004577638 61.5 L 146.1 58.1 L 147.3 53.2 L 148.6 48.3 L 149.9 43.6 L 151.1 38.9 L 152.4 34.3 L 154.8 25.3 L 156.74738960266114 17.510441780090332 L 156.7 17.5 L 156.9285714149475 16.78571424484253 L 157.0 16.5 L 157.01817893981934 16.50569076538086 L 157.5 15.0 L 168.5 20.1 L 170.7 23.0 L 166.92571039199828 23.860802841186523 L 166.7 24.4 L 164.9 28.8 L 163.0 33.1 L 161.1 37.5 L 159.0 41.9 L 154.6 50.7 L 152.1 55.1 L 149.5 59.5 L 148.1818181991577 61.5 L 164.2 61.5 L 174.2 51.5 L 186.2 61.5 L 186.2 65.5 L 154.9 65.5 L 154.9 177.3 L 166.0 177.3 L 176.0 167.3 L 188.0 177.3 L 188.0 181.3 L 86.9 181.3 Z M 131.1 65.5 L 131.1 177.3 L 143.9 177.3 L 143.9 65.5 Z M 183.5 91.4 L 186.0 94.1 L 182.44646100997926 95.26297636032105 L 181.7 98.0 L 179.8 104.5 L 177.8 111.1 L 175.7 117.6 L 173.5 124.1 L 171.2 130.5 L 168.8 137.0 L 166.2 143.4 L 163.4 149.8 L 160.3 156.0 L 158.6 155.5 L 159.8 148.6 L 161.1 141.8 L 162.5 135.1 L 163.9 128.5 L 165.3 121.8 L 166.7 115.2 L 168.0 108.6 L 169.3 101.9 L 170.6 95.3 L 171.632976436615 89.70471096038818 L 171.6 89.7 L 172.2 87.0 Z M 102.5 134.1 L 101.9 127.8 L 101.1 121.7 L 100.2 115.7 L 99.2 109.9 L 98.0 104.1 L 96.7 98.5 L 95.5 92.9 L 94.2 87.3 L 95.8 86.6 L 99.0 91.5 L 101.8 96.7 L 104.3 102.2 L 106.5 107.9 L 108.4 113.8 L 110.2 119.9 L 111.8 126.2 L 113.1 132.6 L 114.3 139.3 L 115.2 146.1 L 113.8 150.5 L 109.7 152.6 L 105.4 151.1 L 103.3 147.1 L 103.0 140.5 Z M 32.5 94.0 L 32.5 119.0 L 45.3 119.0 L 45.3 94.0 Z M 57.3 94.0 L 57.3 119.0 L 70.0 119.0 L 70.0 94.0 Z M 32.5 67.0 L 32.5 90.0 L 45.3 90.0 L 45.3 67.0 Z M 57.3 67.0 L 57.3 90.0 L 70.0 90.0 L 70.0 67.0 Z M 117.0 44.6 L 116.4 40.9 L 115.7 37.2 L 114.9 33.7 L 114.0 30.2 L 112.9 26.7 L 111.9 23.3 L 110.7 19.9 L 109.3 16.7 L 110.8 15.6 L 113.3 18.3 L 115.9 21.1 L 118.2 24.1 L 120.3 27.4 L 122.3 30.8 L 124.1 34.4 L 125.7 38.1 L 127.2 42.0 L 128.6 46.1 L 129.7 50.3 L 128.7 54.7 L 124.9 57.2 L 120.4 56.2 L 117.9 52.4 L 117.5 48.4 Z " />
</g>
</svg>
