<svg xmlns="http://www.w3.org/2000/svg" xmlns:xlink="http://www.w3.org/1999/xlink" version="1.1" baseProfile="full" viewBox="0 0 200 200" width="200" height="200">
<g fill="black">
<path d="M 130.7 183.7 L 112.3 182.6 L 97.2 180.8 L 85.0 178.1 L 75.1 174.6 L 67.2 170.3 L 61.1 165.3 L 56.4 159.6 L 54.27821521759033 155.8868766784668 L 52.0 158.1 L 48.4 161.5 L 44.9 164.6 L 41.3 167.7 L 37.7 170.6 L 26.9 178.7 L 23.323113918304443 181.18394861221313 L 23.1 185.2 L 19.8 183.6 L 12.1 174.3 L 13.8 173.3 L 17.6 171.4 L 21.4 169.6 L 29.2 165.6 L 33.2 163.6 L 37.2 161.5 L 44.0 158.1 L 44.0 109.0 L 14.0 109.0 L 14.0 105.0 L 44.0 105.0 L 50.0 100.0 L 61.0 109.0 L 56.0 113.0 L 56.0 153.70384616851806 L 59.5 156.8 L 64.9 160.7 L 70.8 164.1 L 78.0 166.8 L 87.1 169.0 L 98.6 170.6 L 113.0 171.6 L 130.9 171.9 L 152.6 171.5 L 178.7 170.4 L 190.0 169.9 L 179.2 183.5 L 152.9 184.0 Z M 153.8 141.6 L 163.8 141.6 L 165.1 141.5 L 166.0 141.4 L 166.6 141.2 L 166.9 141.0 L 167.1 140.9 L 167.4 140.3 L 167.6 139.8 L 167.8 138.8 L 167.8 96.5 L 138.4 96.5 L 138.4 161.4 L 126.4 167.4 L 126.4 91.00606060028076 L 123.78154983520508 89.89520292282104 L 122.4 90.4 L 118.6 91.5 L 114.8 92.4 L 110.9 93.4 L 107.1 94.3 L 103.3 95.1 L 95.5 96.5 L 91.6 97.1 L 89.5 97.31538457870484 L 89.5 138.8 L 94.5 137.7 L 99.6 136.7 L 104.8 135.7 L 110.1 134.7 L 115.5 133.9 L 121.0 133.3 L 121.5 135.0 L 116.6 137.5 L 111.6 139.8 L 106.7 142.0 L 101.8 144.0 L 97.0 145.9 L 87.4 149.5 L 82.7 151.3 L 78.0 153.0 L 77.34355697631835 153.24259853363037 L 76.2 157.0 L 73.4 154.7 L 68.1 143.8 L 70.0 143.2 L 77.5 141.48125 L 77.5 89.2 L 87.50833330154418 94.20416669845581 L 90.2 92.7 L 93.7 90.9 L 100.7 87.5 L 104.2 85.9 L 111.2 82.5 L 114.7 80.9 L 117.35228538513184 79.6117470741272 L 117.3 79.5 L 117.4008773803711 79.58814525604248 L 118.2 79.2 L 118.80595664978027 80.8158844947815 L 126.4 87.45145635604858 L 126.4 86.5 L 138.4 92.5 L 167.8 92.5 L 173.8 87.5 L 184.8 96.5 L 179.8 100.5 L 179.8 137.6 L 179.7 140.2 L 179.2 142.7 L 178.4 145.1 L 177.2 147.3 L 175.6 149.3 L 173.6 151.0 L 171.3 152.2 L 168.9 153.0 L 166.4 153.5 L 163.8 153.6 L 163.8 147.6 L 153.8 144.6 Z M 38.3 77.2 L 36.1 74.7 L 33.7 72.2 L 31.2 69.7 L 28.5 67.3 L 25.7 65.0 L 22.8 62.6 L 19.8 60.3 L 16.5 58.2 L 17.2 56.5 L 21.1 57.6 L 24.9 58.6 L 28.6 60.0 L 32.2 61.5 L 35.7 63.3 L 39.1 65.2 L 42.4 67.3 L 45.5 69.6 L 48.6 72.1 L 51.5 74.7 L 52.9 79.1 L 50.9 83.2 L 46.6 84.6 L 42.5 82.6 L 40.5 79.9 Z M 97.7 26.1 L 159.2 26.1 L 165.2 21.1 L 176.2 30.1 L 171.2 34.1 L 171.2 76.2 L 159.2 82.2 L 159.2 72.2 L 97.7 72.2 L 97.7 75.2 L 85.7 81.2 L 85.7 20.1 Z M 97.7 51.1 L 97.7 68.2 L 159.2 68.2 L 159.2 51.1 Z M 47.9 41.9 L 46.0 39.3 L 43.9 36.8 L 41.6 34.3 L 39.1 31.8 L 36.5 29.4 L 33.7 26.9 L 30.7 24.4 L 27.5 22.2 L 28.2 20.6 L 32.1 21.8 L 35.9 23.1 L 39.5 24.6 L 43.0 26.2 L 46.4 28.1 L 49.6 30.2 L 52.7 32.4 L 55.6 34.7 L 58.3 37.3 L 61.0 40.0 L 62.0 44.4 L 59.8 48.4 L 55.3 49.4 L 51.4 47.2 L 49.7 44.5 Z M 97.7 30.1 L 97.7 47.1 L 159.2 47.1 L 159.2 30.1 Z " />
</g>
</svg>
