<svg xmlns="http://www.w3.org/2000/svg" xmlns:xlink="http://www.w3.org/1999/xlink" version="1.1" baseProfile="full" viewBox="0 0 200 200" width="200" height="200">
<g fill="black">
<path d="M 19.3 185.1 L 19.0 180.5 L 21.9 177.0 L 26.0 175.2 L 29.9 173.0 L 33.5 170.7 L 36.9 168.1 L 40.1 165.2 L 43.1 162.1 L 46.0 158.7 L 48.7 155.0 L 51.3 151.0 L 53.8 146.6 L 55.5 147.2 L 54.6 152.3 L 53.3 157.2 L 51.4 161.9 L 49.2 166.4 L 46.5 170.6 L 43.4 174.6 L 39.9 178.3 L 36.1 181.7 L 31.9 184.9 L 27.3 187.8 L 22.8 188.0 Z M 168.5 176.7 L 166.9 173.6 L 164.9 170.3 L 162.4 166.9 L 159.5 163.4 L 156.1 159.8 L 152.3 156.1 L 148.0 152.2 L 143.3 148.1 L 144.3 146.6 L 150.0 149.2 L 155.3 151.9 L 160.1 154.9 L 164.5 158.0 L 168.4 161.2 L 172.0 164.5 L 175.1 167.9 L 177.8 171.5 L 180.0 175.2 L 181.8 179.1 L 181.3 183.7 L 177.8 186.6 L 173.3 186.1 L 170.3 182.6 L 169.6 179.8 Z M 106.2 176.7 L 104.7 173.5 L 102.8 170.2 L 100.6 166.8 L 98.0 163.3 L 95.0 159.7 L 91.7 156.0 L 88.2 152.1 L 84.2 148.2 L 85.3 146.7 L 90.3 149.4 L 95.0 152.1 L 99.2 155.1 L 103.2 158.2 L 106.8 161.4 L 110.0 164.7 L 112.9 168.1 L 115.5 171.6 L 117.7 175.2 L 119.6 178.9 L 119.3 183.5 L 115.9 186.6 L 111.4 186.3 L 108.3 182.9 L 107.4 179.9 Z M 130.7 142.4 L 112.4 141.5 L 97.4 140.0 L 85.2 137.9 L 75.4 135.2 L 67.7 131.9 L 61.5 128.0 L 56.7 123.5 L 54.322077941894534 120.28659181594848 L 51.7 122.2 L 48.1 124.9 L 44.5 127.4 L 40.8 129.8 L 37.2 132.1 L 33.6 134.3 L 29.9 136.5 L 26.4 138.5 L 23.038327503204346 140.36759586334227 L 22.3 144.4 L 19.2 142.4 L 12.7 132.2 L 14.5 131.4 L 18.2 130.1 L 22.0 128.9 L 25.8 127.5 L 29.7 126.2 L 37.7 123.4 L 44.0 121.24878044128418 L 44.0 85.7 L 14.0 85.7 L 14.0 81.7 L 44.0 81.7 L 50.0 76.7 L 61.0 85.7 L 56.0 89.7 L 56.0 118.3 L 59.4 120.3 L 64.6 123.0 L 70.5 125.3 L 77.7 127.2 L 86.8 128.7 L 98.4 129.8 L 113.0 130.4 L 130.9 130.6 L 152.7 130.2 L 178.7 129.2 L 190.2 128.9 L 179.2 142.4 L 152.8 142.7 Z M 102.4 29.7 L 101.2 26.3 L 99.6 22.7 L 98.6 20.8 L 97.4 18.9 L 96.2 16.8 L 94.6 15.2 L 95.7 13.8 L 97.7 15.1 L 99.9 16.1 L 104.1 18.5 L 106.0 19.8 L 107.8 21.3 L 109.5 22.8 L 111.1 24.4 L 112.6 26.1 L 114.0 27.9 L 114.1 32.5 L 111.72941179275513 35.1 L 135.6960000038147 35.1 L 136.4 34.0 L 137.7 31.2 L 139.0 28.5 L 140.4 25.9 L 141.8 23.4 L 143.2 21.0 L 146.0 16.4 L 147.3 14.2 L 148.17211656570436 12.82953109741211 L 148.0 12.7 L 149.1 11.6 L 157.7 20.0 L 158.6 23.4 L 154.3327586174011 22.651361179351806 L 153.8 23.1 L 151.7 24.8 L 149.7 26.5 L 147.6 28.3 L 145.4 30.0 L 143.1 31.9 L 140.8 33.7 L 138.8555555343628 35.1 L 163.5 35.1 L 173.5 25.1 L 185.5 35.1 L 185.5 39.1 L 130.54242420196533 39.1 L 129.4 40.4 L 127.7 42.3 L 123.9 45.9 L 122.0 47.6 L 119.9 49.3 L 117.8 50.9 L 115.7 52.4 L 113.4 53.9 L 112.71428575515748 54.3 L 155.2 54.3 L 161.2 49.3 L 172.2 58.3 L 167.2 62.3 L 167.2 120.7 L 155.2 126.7 L 155.2 118.7 L 94.4 118.7 L 94.4 121.7 L 82.4 127.7 L 82.4 48.3 L 94.4 54.3 L 108.76666669845581 54.3 L 109.3 53.6 L 110.6 51.2 L 111.8 49.0 L 113.1 46.7 L 114.3 44.5 L 115.4 42.3 L 116.5 40.2 L 117.0 39.1 L 65.7 39.1 L 65.7 35.1 L 105.41290321350098 35.1 L 103.0 32.9 L 102.8 31.3 Z M 94.4 97.5 L 94.4 114.7 L 155.2 114.7 L 155.2 97.5 Z M 94.4 76.9 L 94.4 93.5 L 155.2 93.5 L 155.2 76.9 Z M 94.4 58.3 L 94.4 72.9 L 155.2 72.9 L 155.2 58.3 Z M 38.7 62.8 L 36.5 60.8 L 34.1 58.8 L 31.6 56.9 L 28.9 55.0 L 26.1 53.1 L 23.1 51.2 L 20.0 49.2 L 16.6 47.6 L 17.2 45.9 L 20.9 46.6 L 24.7 47.1 L 28.3 47.9 L 31.8 48.9 L 35.2 50.0 L 38.5 51.3 L 41.6 52.7 L 44.7 54.3 L 47.7 56.0 L 50.6 57.8 L 52.6 61.9 L 51.2 66.2 L 47.1 68.3 L 42.8 66.9 L 40.8 64.8 Z M 48.3 36.4 L 46.4 34.4 L 44.3 32.4 L 42.0 30.5 L 39.5 28.5 L 36.8 26.6 L 33.9 24.6 L 30.9 22.5 L 27.6 20.8 L 28.2 19.1 L 31.9 20.0 L 35.6 20.7 L 39.2 21.6 L 42.6 22.6 L 45.8 23.8 L 48.9 25.2 L 51.9 26.6 L 54.8 28.2 L 57.5 30.0 L 60.1 31.8 L 61.8 36.1 L 60.1 40.3 L 55.8 42.0 L 51.6 40.4 L 50.0 38.4 Z " />
</g>
</svg>
