<svg xmlns="http://www.w3.org/2000/svg" xmlns:xlink="http://www.w3.org/1999/xlink" version="1.1" baseProfile="full" viewBox="0 0 200 200" width="200" height="200">
<g fill="black">
<path d="M 129.8 185.3 L 112.1 184.6 L 97.7 183.5 L 85.9 182.1 L 76.6 180.2 L 69.1 177.9 L 63.1 175.2 L 58.4 172.1 L 55.69272727966309 169.46589679718016 L 52.9 170.9 L 49.3 172.9 L 45.7 174.7 L 42.2 176.5 L 35.0 179.7 L 28.0 182.7 L 25.070945930480956 183.87162160873413 L 23.8 187.8 L 21.1 185.5 L 15.9 174.5 L 17.8 173.9 L 21.4 173.3 L 25.0 172.6 L 32.4 171.2 L 40.0 169.8 L 43.9 169.1 L 45.5 168.86000003814698 L 45.5 147.8 L 16.5 147.8 L 16.5 143.8 L 45.5 143.8 L 51.5 138.8 L 62.5 147.8 L 57.5 151.8 L 57.5 167.0 L 56.92077922821045 167.28961038589478 L 60.4 168.4 L 65.3 169.8 L 71.0 171.0 L 78.1 172.0 L 87.0 172.8 L 98.3 173.3 L 112.5 173.6 L 129.9 173.5 L 151.1 173.2 L 176.4 172.4 L 188.1 172.2 L 176.7 185.6 L 151.2 185.7 Z M 97.0 125.6 L 97.0 138.2 L 119.7 138.2 L 119.7 125.6 Z M 131.7 125.6 L 131.7 138.2 L 155.0 138.2 L 155.0 125.6 Z M 41.1 134.3 L 38.9 132.9 L 36.5 131.5 L 34.0 130.1 L 31.4 128.6 L 28.6 127.2 L 25.7 125.8 L 22.6 124.3 L 19.3 123.1 L 19.6 121.3 L 23.2 121.7 L 26.7 121.8 L 30.1 122.0 L 33.3 122.4 L 36.5 122.9 L 39.6 123.5 L 42.5 124.1 L 45.4 124.9 L 50.8 126.7 L 53.6 130.3 L 53.1 134.9 L 49.5 137.7 L 44.9 137.2 L 43.1 135.8 Z M 50.3 117.4 L 48.5 116.0 L 46.4 114.6 L 44.2 113.2 L 41.7 111.8 L 39.1 110.3 L 36.2 108.8 L 33.2 107.2 L 29.9 106.0 L 30.3 104.3 L 33.8 104.7 L 37.3 104.9 L 40.6 105.2 L 43.8 105.6 L 46.8 106.2 L 49.7 106.8 L 52.5 107.5 L 55.1 108.3 L 57.6 109.2 L 60.0 110.1 L 62.5 113.9 L 61.7 118.4 L 57.9 121.0 L 53.4 120.2 L 52.0 118.8 Z M 183.9 111.5 L 183.9 115.5 L 131.7 115.5 L 131.7 121.6 L 155.0 121.6 L 161.0 116.6 L 172.0 125.6 L 167.0 129.6 L 167.0 142.2 L 155.0 148.2 L 155.0 142.2 L 133.22727270126342 142.2 L 134.5 142.9 L 138.6 145.0 L 142.8 147.1 L 147.2 149.1 L 151.8 150.9 L 156.6 152.5 L 161.8 154.0 L 167.2 155.4 L 172.9 156.5 L 179.0 157.5 L 188.2 159.4 L 176.4 170.5 L 170.0 168.7 L 163.9 166.7 L 158.2 164.5 L 152.8 162.0 L 147.8 159.3 L 143.1 156.4 L 138.9 153.2 L 135.1 149.8 L 131.8 146.0 L 131.7 145.84230766296386 L 131.7 166.6 L 119.7 172.6 L 119.7 150.41458330154418 L 117.8 151.8 L 112.8 155.1 L 107.4 158.1 L 101.8 160.8 L 95.9 163.2 L 89.8 165.2 L 83.3 166.9 L 76.6 168.1 L 69.7 168.9 L 69.3 167.2 L 75.6 164.5 L 81.6 161.8 L 87.4 159.1 L 92.8 156.2 L 97.9 153.3 L 102.6 150.1 L 107.1 146.8 L 111.2 143.4 L 112.475 142.2 L 97.0 142.2 L 85.0 148.2 L 85.0 115.6 L 97.0 121.6 L 119.7 121.6 L 119.7 115.5 L 68.8 115.5 L 68.8 111.5 L 119.7 111.5 L 119.7 100.8 L 131.7 102.8 L 134.7 104.8 L 131.7 106.6 L 131.7 111.5 L 165.71818180084227 111.5 L 173.64266147613526 102.78307237625123 L 169.0 101.3 L 162.6 98.7 L 156.9 95.9 L 152.0 92.7 L 147.9 89.2 L 144.7 85.4 L 142.4 81.3 L 142.35303030014038 81.13560609817505 L 140.6 83.9 L 137.3 87.5 L 133.6 90.6 L 129.3 93.2 L 124.5 95.3 L 119.3 96.8 L 113.7 98.1 L 113.1 96.4 L 118.1 93.8 L 122.3 91.0 L 125.9 88.1 L 128.8 85.2 L 131.2 82.1 L 133.0 79.0 L 134.2 75.8 L 135.0 72.5 L 135.3 68.9 L 135.22625818252564 66.097811794281 L 135.2 66.1 L 135.2 63.611392402648924 L 131.7 63.7 L 122.9 64.0 L 113.1 64.2 L 105.0 64.35 L 105.0 97.0 L 93.0 103.0 L 93.0 64.55897436141967 L 90.6 64.6 L 77.9 64.8 L 64.1 64.9 L 49.4 64.8 L 33.8 64.5 L 33.7 62.7 L 49.3 61.0 L 63.9 59.5 L 77.5 58.2 L 90.2 57.1 L 101.9 56.0 L 112.6 54.9 L 122.3 54.0 L 131.0 53.0 L 138.7 52.1 L 144.50290842056273 51.41730489730835 L 144.5 51.4 L 144.51845712661742 51.41547565460205 L 145.5 51.3 L 145.5840799331665 52.308959293365476 L 157.5 62.3 L 158.0 65.3 L 153.3505337715149 62.67722415924072 L 146.5 63.3 L 139.6 63.5 L 139.24494380950927 63.508988761901854 L 147.2 65.1 L 150.2 67.1 L 146.72892560958863 69.18264465332031 L 146.6 70.3 L 145.64417181015014 73.64539880752564 L 146.5 75.3 L 148.4 77.9 L 150.7 80.1 L 153.7 82.2 L 157.3 84.2 L 161.6 86.1 L 166.7 87.8 L 172.6 89.4 L 179.2 90.8 L 187.9 92.9 L 176.2 103.6 L 174.52918663024903 103.06626796722412 Z M 58.227433586120604 71.60353984832764 L 58.1 72.4 L 56.5 77.1 L 54.621776485443114 80.3305443763733 L 57.4 80.4 L 61.2 80.7 L 64.7 81.1 L 68.0 81.8 L 71.0 82.6 L 73.9 83.5 L 76.6 84.7 L 79.0 86.1 L 81.3 87.8 L 82.8 92.1 L 80.8 96.2 L 76.5 97.7 L 72.4 95.8 L 71.7 94.5 L 70.6 93.2 L 69.2 91.8 L 67.4 90.3 L 65.2 88.8 L 62.6 87.4 L 59.7 85.9 L 56.5 84.4 L 52.9 82.8 L 52.83135728836059 82.78112325668334 L 50.7 85.3 L 46.8 88.6 L 42.2 91.6 L 37.0 94.1 L 31.2 96.3 L 24.8 98.1 L 17.6 99.5 L 17.1 97.7 L 23.5 94.7 L 29.1 91.6 L 34.0 88.5 L 38.0 85.5 L 41.3 82.4 L 43.7 79.3 L 45.5 76.3 L 46.5 73.3 L 47.0 70.4 L 46.93324098587036 68.39722995758056 L 46.9 68.4 L 46.9 65.0 L 58.9 67.4 L 61.9 69.4 Z M 27.7 56.0 L 27.7 16.5 L 39.7 22.5 L 160.2 22.5 L 166.2 17.5 L 177.2 26.5 L 172.2 30.5 L 172.2 52.0 L 160.2 58.0 L 160.2 50.0 L 39.7 50.0 Z M 39.7 26.5 L 39.7 46.0 L 71.9 46.0 L 71.9 26.5 Z M 83.9 26.5 L 83.9 46.0 L 116.0 46.0 L 116.0 26.5 Z M 128.0 26.5 L 128.0 46.0 L 160.2 46.0 L 160.2 26.5 Z " />
</g>
</svg>
