<svg xmlns="http://www.w3.org/2000/svg" xmlns:xlink="http://www.w3.org/1999/xlink" version="1.1" baseProfile="full" viewBox="0 0 200 200" width="200" height="200">
<g fill="black">
<path d="M 140.0 87.0 L 144.5 81.0 L 149.9 86.4 L 149.9 73.0 L 132.2 73.0 L 132.2 78.0 L 131.86666669845582 87.0 Z M 161.9 99.0 L 164.9 101.0 L 161.9 102.8 L 161.9 115.0 L 166.5 115.0 L 171.0 109.0 L 177.0 115.0 L 177.0 119.0 L 161.9 119.0 L 161.9 136.0 L 167.6777777671814 136.0 L 173.9 129.0 L 181.9 136.0 L 181.9 140.0 L 161.9 140.0 L 161.9 160.0 L 149.9 166.0 L 149.9 140.0 L 127.9 140.0 L 127.9 136.0 L 149.9 136.0 L 149.9 119.0 L 140.9 119.0 L 139.4 122.2 L 137.7 125.2 L 135.9 128.0 L 133.8 130.7 L 131.9 133.4 L 130.3 132.5 L 131.3 129.5 L 131.9 126.3 L 132.5 123.2 L 133.0 120.1 L 133.8 113.7 L 134.0 110.5 L 134.2 107.2 L 134.2 101.4008264541626 L 134.1 101.4 L 134.4 98.3 L 146.2 101.5 L 149.0 103.7 L 145.32419357299804 105.50322580337524 L 144.5 108.8 L 143.4 112.3 L 142.4470588684082 115.0 L 149.9 115.0 L 149.9 97.0 Z M 115.5 113.0 L 115.5 155.0 L 114.45789470672608 155.52105264663697 L 115.8 157.4 L 115.89686889648438 157.520352268219 L 116.1 156.2 L 117.1 149.3 L 118.0 142.1 L 118.8 134.4 L 119.5 126.2 L 120.0 117.5 L 120.27426633834838 109.1805869102478 Z M 30.8 113.0 L 30.8 156.16428575515747 L 31.0 155.9 L 33.4 151.8 L 35.5 147.5 L 37.2 142.6 L 38.6 137.3 L 39.6 131.6 L 40.2 125.2 L 40.5 118.4 L 40.42702703475952 113.0 Z M 69.4 155.4 L 66.9 155.0 L 64.6 154.2 L 62.3 153.1 L 60.3 151.5 L 58.7 149.6 L 57.4 147.4 L 56.6 145.0 L 56.1 142.5 L 55.9 140.0 L 55.9 113.0 L 52.25 113.0 L 51.8 119.0 L 50.9 126.5 L 49.4 133.5 L 47.5 139.9 L 45.1 145.8 L 42.2 151.0 L 38.8 155.6 L 35.0 159.5 L 30.8 162.36363639831544 L 30.8 172.0 L 68.3 172.0 L 78.3 162.0 L 89.88715600967407 171.6559633255005 L 91.3 170.5 L 93.6 168.6 L 96.0 166.6 L 98.4 164.5 L 100.9 162.4 L 103.4 160.2 L 103.5 160.1185185432434 L 103.5 109.0 L 93.0 109.0 L 93.0 113.0 L 67.9 113.0 L 67.9 141.2 L 68.0 142.1 L 68.2 142.7 L 68.3 143.1 L 68.5 143.4 L 69.0 143.9 L 69.7 144.1 L 70.6 144.3 L 71.9 144.5 L 76.7 144.5 L 82.2 123.5 L 84.2 123.5 L 82.2 144.5 L 85.5 146.7 L 87.7 150.0 L 85.5 153.3 L 82.2 155.5 L 71.9 155.5 Z M 40.2 88.0 L 40.2 109.0 L 63.3 109.0 L 63.3 88.0 Z M 40.2 63.0 L 40.2 84.0 L 63.3 84.0 L 63.3 63.0 Z M 99.4 73.4 L 98.3 71.0 L 97.2 68.7 L 96.1 66.5 L 94.9 64.3 L 93.7 62.2 L 92.4 60.0 L 90.8 58.3 L 91.9 56.9 L 94.0 58.2 L 96.4 59.3 L 98.7 60.7 L 100.9 62.3 L 103.1 64.1 L 105.2 66.1 L 107.2 68.2 L 109.2 70.5 L 111.1 73.0 L 112.9 75.6 L 113.2 80.1 L 110.3 83.6 L 105.7 83.9 L 102.2 81.0 L 100.4 75.8 Z M 40.2 38.0 L 40.2 59.0 L 63.3 59.0 L 63.3 38.0 Z M 105.8 40.4 L 105.0 38.0 L 104.1 35.6 L 102.1 31.0 L 100.9 28.8 L 99.7 26.5 L 98.4 24.2 L 96.7 22.3 L 97.9 20.9 L 100.1 22.4 L 102.5 23.7 L 104.9 25.3 L 107.1 27.1 L 109.2 29.0 L 111.2 31.1 L 113.1 33.3 L 114.9 35.7 L 116.6 38.3 L 118.2 40.9 L 118.2 45.5 L 114.9 48.7 L 110.4 48.6 L 107.1 45.4 L 106.5 42.9 Z M 132.2 27.0 L 132.2 48.0 L 171.5 48.0 L 171.5 27.0 Z M 180.2 183.5 L 165.7 184.0 L 153.5 183.7 L 143.1 182.6 L 134.5 180.7 L 127.4 177.9 L 121.7 174.2 L 117.3 169.7 L 114.2 164.7 L 112.0 159.2 L 111.52105264663696 156.98947372436524 L 111.30930233001709 157.09534883499146 L 111.0 157.6 L 109.4 160.8 L 107.7 163.8 L 105.9 166.7 L 104.2 169.5 L 102.5 172.2 L 100.7 174.9 L 98.20880498886109 178.56352205276488 L 99.2 182.9 L 95.7 182.3 L 86.10895519256592 176.0 L 30.8 176.0 L 30.8 183.0 L 18.8 189.0 L 18.8 113.0 L 12.0 113.0 L 12.0 109.0 L 28.2 109.0 L 28.2 38.0 L 13.3 38.0 L 13.3 34.0 L 28.2 34.0 L 28.2 13.0 L 40.2 15.0 L 43.2 17.0 L 40.2 18.8 L 40.2 34.0 L 63.3 34.0 L 63.3 13.0 L 75.3 15.0 L 78.3 17.0 L 75.3 18.8 L 75.3 34.0 L 77.3777777671814 34.0 L 83.6 27.0 L 91.6 34.0 L 91.6 38.0 L 75.3 38.0 L 75.3 109.0 L 78.77777776718139 109.0 L 85.0 102.0 L 89.5 105.9375 L 89.5 105.0 L 103.5 105.0 L 109.5 100.0 L 120.28599224090576 108.82490272521973 L 120.3 108.4 L 120.5 98.7 L 120.4 88.6 L 120.2 78.0 L 120.2 17.0 L 132.2 23.0 L 171.5 23.0 L 177.5 18.0 L 188.5 27.0 L 183.5 31.0 L 183.5 54.0 L 171.5 60.0 L 171.5 52.0 L 132.2 52.0 L 132.2 69.0 L 140.0 69.0 L 144.5 63.0 L 149.9 68.4 L 149.9 59.0 L 161.9 61.0 L 164.9 63.0 L 161.9 64.8 L 161.9 69.0 L 168.1 69.0 L 172.6 63.0 L 178.6 69.0 L 178.6 73.0 L 161.9 73.0 L 161.9 87.0 L 168.1 87.0 L 172.6 81.0 L 178.6 87.0 L 178.6 91.0 L 161.3 91.0 L 161.3 89.3 L 149.9 95.0 L 149.9 91.0 L 131.67307691574098 91.0 L 131.2 99.2 L 130.3 109.0 L 129.2 118.4 L 127.9 127.2 L 126.3 135.5 L 124.4 143.3 L 122.3 150.6 L 119.7 157.2 L 118.17633323669433 160.35241403579712 L 119.1 161.5 L 122.5 164.7 L 126.4 167.3 L 131.1 169.3 L 137.0 170.7 L 144.4 171.6 L 153.8 171.9 L 165.3 171.5 L 179.2 170.4 L 190.0 169.5 Z " />
</g>
</svg>
