<svg xmlns="http://www.w3.org/2000/svg" xmlns:xlink="http://www.w3.org/1999/xlink" version="1.1" baseProfile="full" viewBox="0 0 200 200" width="200" height="200">
<g fill="black">
<path d="M 14.8 183.1 L 13.4 178.8 L 15.5 174.7 L 17.2 173.5 L 18.9 171.8 L 20.6 169.7 L 22.2 167.2 L 23.7 164.1 L 25.0 160.5 L 26.2 156.5 L 27.3 152.0 L 28.2 147.0 L 28.9 141.6 L 30.7 141.6 L 31.3 147.1 L 31.9 152.3 L 32.1 157.2 L 31.9 161.9 L 31.4 166.2 L 30.5 170.3 L 29.3 174.1 L 27.7 177.7 L 25.7 180.9 L 23.2 183.9 L 18.8 185.2 Z M 182.5 145.8 L 184.5 145.8 L 182.5 170.8 L 186.1 173.2 L 188.5 176.8 L 186.1 180.4 L 182.5 182.8 L 131.1 182.8 L 128.5 182.7 L 126.1 182.2 L 123.6 181.4 L 121.4 180.2 L 119.4 178.5 L 117.7 176.5 L 116.5 174.3 L 115.7 171.9 L 115.2 169.4 L 115.1 166.8 L 115.1 76.7 L 127.1 82.7 L 167.8 82.7 L 173.8 77.7 L 184.8 86.7 L 179.8 90.7 L 179.8 134.4 L 167.8 140.4 L 167.8 128.4 L 127.1 128.4 L 127.1 166.8 L 127.2 168.0 L 127.3 168.9 L 127.5 169.5 L 127.8 170.1 L 128.4 170.4 L 129.0 170.6 L 129.9 170.7 L 131.1 170.8 L 176.5 170.8 Z M 50.3 179.5 L 46.3 177.2 L 45.1 172.8 L 45.7 170.1 L 46.2 167.4 L 46.6 164.7 L 46.8 161.8 L 46.9 158.9 L 46.8 155.9 L 46.6 152.7 L 46.3 149.5 L 45.9 146.1 L 45.0 142.8 L 46.7 142.1 L 48.4 145.2 L 50.3 148.2 L 51.9 151.3 L 53.3 154.4 L 54.4 157.6 L 55.4 160.9 L 56.1 164.2 L 56.6 167.5 L 56.9 170.9 L 57.0 174.3 L 54.7 178.2 Z M 70.3 162.9 L 70.0 160.2 L 69.6 157.5 L 69.0 154.8 L 68.2 152.2 L 67.3 149.6 L 66.3 147.0 L 65.1 144.3 L 63.4 141.9 L 64.7 140.7 L 67.1 142.6 L 69.6 144.5 L 71.8 146.7 L 73.9 149.1 L 75.8 151.6 L 77.5 154.4 L 79.1 157.4 L 80.4 160.5 L 81.5 163.7 L 82.4 167.1 L 81.1 171.5 L 77.2 173.8 L 72.8 172.5 L 70.5 168.5 L 70.5 165.7 Z M 94.6 156.6 L 93.9 154.3 L 93.1 152.1 L 92.1 149.8 L 91.0 147.6 L 89.7 145.4 L 88.2 143.2 L 86.6 140.9 L 84.6 139.0 L 85.6 137.6 L 88.1 139.0 L 90.8 140.2 L 93.4 141.7 L 95.8 143.4 L 98.0 145.3 L 100.1 147.4 L 102.1 149.7 L 103.9 152.2 L 105.5 154.8 L 107.0 157.6 L 106.6 162.2 L 103.1 165.2 L 98.6 164.8 L 95.6 161.3 L 95.1 158.9 Z M 95.2 29.1 L 107.2 39.1 L 107.2 43.1 L 93.3 43.1 L 93.3 85.7 L 96.4777777671814 85.7 L 102.7 78.7 L 110.7 85.7 L 110.7 89.7 L 93.3 89.7 L 93.3 130.8 L 99.1 130.8 L 103.6 124.8 L 109.6 130.8 L 109.6 134.8 L 14.1 134.8 L 14.1 130.8 L 27.5 130.8 L 27.5 89.7 L 12.4 89.7 L 12.4 85.7 L 27.5 85.7 L 27.5 54.8 L 25.7 57.6 L 21.9 63.2 L 17.7 68.8 L 13.1 74.2 L 11.6 73.3 L 14.4 66.8 L 17.2 60.6 L 19.9 54.5 L 22.5 48.5 L 25.0 42.6 L 27.3 36.8 L 29.4 31.1 L 31.3 25.5 L 33.1 19.9 L 34.325601768493655 15.406126880645752 L 34.3 15.4 L 34.48461542129517 14.823076915740966 L 34.6 14.4 L 34.61807231903076 14.406024074554443 L 35.1 12.9 L 46.0 18.2 L 48.3 21.0 L 44.56538200378418 21.85175495147705 L 43.8 23.8 L 41.3 29.4 L 38.6 35.0 L 36.51403512954712 39.1 L 85.2 39.1 Z M 38.5 89.7 L 38.5 130.8 L 46.3 130.8 L 46.3 89.7 Z M 56.3 89.7 L 56.3 130.8 L 64.5 130.8 L 64.5 89.7 Z M 74.5 89.7 L 74.5 130.8 L 82.3 130.8 L 82.3 89.7 Z M 127.1 86.7 L 127.1 124.4 L 141.7 124.4 L 141.7 86.7 Z M 153.7 86.7 L 153.7 124.4 L 167.8 124.4 L 167.8 86.7 Z M 38.5 43.1 L 38.5 85.7 L 46.3 85.7 L 46.3 43.1 Z M 56.3 43.1 L 56.3 85.7 L 64.5 85.7 L 64.5 43.1 Z M 74.5 43.1 L 74.5 85.7 L 82.3 85.7 L 82.3 43.1 Z M 132.8 24.3 L 163.3 24.3 L 169.3 19.3 L 180.3 28.3 L 175.3 32.3 L 175.3 67.9 L 163.3 73.9 L 163.3 67.9 L 132.8 67.9 L 120.8 73.9 L 120.8 18.3 Z M 132.8 28.3 L 132.8 63.9 L 163.3 63.9 L 163.3 28.3 Z " />
</g>
</svg>
