<svg xmlns="http://www.w3.org/2000/svg" xmlns:xlink="http://www.w3.org/1999/xlink" version="1.1" baseProfile="full" viewBox="0 0 200 200" width="200" height="200">
<g fill="black">
<path d="M 17.0 113.6 L 17.0 109.6 L 164.8181818008423 109.6 L 173.0 100.6 L 183.0 109.6 L 183.0 113.6 L 116.0 113.6 L 116.0 125.9 L 154.0 125.9 L 160.0 120.9 L 171.0 129.9 L 166.0 133.9 L 166.0 180.8 L 154.0 186.8 L 154.0 178.8 L 46.0 178.8 L 46.0 181.8 L 34.0 187.8 L 34.0 119.9 L 46.0 125.9 L 74.0666666984558 125.9 L 74.0 125.1 L 74.31564989089966 125.07347478866578 L 74.0 124.6 L 74.0 113.6 Z M 46.0 164.1 L 46.0 174.8 L 154.0 174.8 L 154.0 164.1 Z M 117.6 151.0 L 115.4 150.9 L 113.2 150.4 L 111.1 149.6 L 109.1 148.3 L 107.4 146.6 L 106.0 144.6 L 105.0 142.4 L 104.3 140.0 L 104.0 137.4 L 104.0 129.9 L 85.52941179275513 129.9 L 84.4 134.7 L 82.2 139.4 L 79.2 143.4 L 75.4 146.8 L 71.0 149.6 L 65.9 151.7 L 60.3 153.3 L 54.0 154.3 L 47.1 154.8 L 46.8 153.1 L 53.2 151.0 L 58.7 148.6 L 63.3 146.1 L 67.1 143.4 L 70.0 140.7 L 72.0 137.9 L 73.4 135.0 L 74.1 132.0 L 74.22727270126343 129.9 L 46.0 129.9 L 46.0 160.1 L 154.0 160.1 L 154.0 129.9 L 116.0 129.9 L 116.0 137.4 L 115.8 138.7 L 115.7 139.7 L 115.7 141.0 L 115.8 141.6 L 116.0 142.1 L 116.5 142.6 L 117.3 143.1 L 118.5 143.6 L 120.0 143.9 L 140.5 143.9 L 144.0 138.9 L 146.0 138.9 L 144.0 143.9 L 146.1 145.3 L 147.5 147.4 L 146.1 149.5 L 144.0 150.9 L 120.0 150.9 Z M 85.80181818008423 125.9 L 104.0 125.9 L 104.0 113.6 L 86.0 113.6 L 86.0 124.6 L 85.86138610839843 124.80792083740235 Z M 182.0 78.5 L 184.0 78.5 L 182.0 91.5 L 184.7 93.3 L 186.5 96.0 L 184.7 98.7 L 182.0 100.5 L 141.8 100.5 L 139.5 100.2 L 137.2 99.6 L 135.0 98.6 L 133.0 97.2 L 131.3 95.3 L 130.0 93.2 L 129.1 90.9 L 128.5 88.5 L 128.2 86.0 L 128.2 51.4518518447876 L 126.5 58.0 L 122.2 67.4 L 116.4 75.7 L 109.1 83.0 L 100.4 89.1 L 90.3 94.2 L 79.0 98.2 L 66.3 101.1 L 52.2 102.8 L 52.0 101.1 L 65.4 97.4 L 77.2 93.1 L 87.5 88.3 L 96.2 82.8 L 103.4 76.7 L 109.0 70.0 L 113.3 62.7 L 116.2 54.7 L 117.9 46.0 L 118.26210527420044 37.4 L 89.36666669845582 37.4 L 89.5 38.3 L 89.6 40.9 L 89.5 43.3 L 89.0 45.7 L 88.3 48.0 L 87.2 50.2 L 85.7 52.3 L 83.8 54.1 L 79.3 54.5 L 75.7 51.7 L 75.3 47.1 L 78.1 43.5 L 78.8 43.6 L 79.7 43.4 L 80.6 43.0 L 81.6 42.2 L 82.6 41.0 L 83.6 39.5 L 84.6 37.6 L 85.5 35.4 L 86.3 32.8 L 86.5 29.9 L 88.3 29.9 L 88.5 32.8 L 88.62857141494752 33.4 L 118.3 33.4 L 118.3 14.0 L 130.3 16.0 L 133.3 18.0 L 130.3 19.8 L 130.3 33.4 L 168.2 33.4 L 169.1473684310913 32.61052627563477 L 169.3 32.0 L 169.61794023513795 32.218383121490476 L 174.2 28.4 L 185.2 37.4 L 180.2 40.4 L 172.2199999809265 43.725 L 172.1 43.8 L 170.5 44.9 L 168.7 46.1 L 166.7 47.2 L 164.7 48.4 L 162.9 50.0 L 161.6 48.7 L 163.1 46.9 L 164.1 44.8 L 165.1 42.8 L 165.9 41.0 L 166.8 39.2 L 167.5 37.6 L 167.575 37.4 L 130.21081085205077 37.4 L 129.2 47.6 L 128.31244239807128 51.01874036788941 L 140.2 53.0 L 143.2 55.0 L 140.2 56.8 L 140.2 88.9 L 140.3 89.4 L 140.5 89.7 L 140.7 90.1 L 141.1 90.5 L 141.8 90.9 L 142.9 91.2 L 144.2 91.5 L 177.5 91.5 Z M 38.6 102.9 L 34.7 100.5 L 33.6 96.1 L 34.2 93.6 L 34.4 91.4 L 34.1 89.4 L 33.4 87.4 L 32.1 85.3 L 30.1 83.1 L 27.3 81.0 L 23.7 79.0 L 19.4 77.0 L 14.3 75.5 L 14.6 73.7 L 20.1 74.2 L 25.1 74.8 L 29.6 75.9 L 32.414556407928465 76.92971572875976 L 33.3 76.0 L 35.9 73.4 L 39.1 70.3 L 43.0 66.7 L 47.4 62.5 L 52.5 57.8 L 58.4 52.6 L 64.9 46.9 L 72.3 40.8 L 73.5 42.1 L 67.6 49.6 L 62.2 56.3 L 57.3 62.4 L 53.0 67.7 L 49.2 72.4 L 46.1 76.5 L 43.6 80.0 L 41.7 82.7 L 41.31999998092651 83.36499996185303 L 42.8 85.4 L 44.5 89.2 L 45.4 93.4 L 45.5 97.9 L 43.0 101.8 Z M 34.7 52.1 L 33.3 51.0 L 31.4 49.7 L 29.2 48.5 L 26.6 47.2 L 23.6 45.9 L 20.3 44.5 L 16.7 43.0 L 12.7 42.0 L 13.0 40.2 L 17.2 40.5 L 21.1 40.5 L 24.8 40.7 L 28.2 40.9 L 31.4 41.3 L 34.3 41.7 L 37.0 42.3 L 39.5 43.0 L 41.8 43.8 L 44.0 44.9 L 46.0 49.0 L 44.7 53.4 L 40.6 55.4 L 36.2 54.1 L 35.7 53.2 Z M 49.3 29.2 L 47.8 28.0 L 45.9 26.8 L 43.8 25.5 L 41.3 24.2 L 38.5 22.9 L 35.4 21.5 L 32.1 20.0 L 28.4 19.0 L 28.7 17.2 L 32.5 17.6 L 36.3 17.6 L 39.8 17.7 L 43.0 18.0 L 46.1 18.3 L 48.9 18.8 L 51.5 19.4 L 54.0 20.0 L 56.3 20.9 L 58.5 21.9 L 60.7 25.9 L 59.6 30.3 L 55.6 32.5 L 51.2 31.4 L 50.4 30.3 Z " />
</g>
</svg>
