<svg xmlns="http://www.w3.org/2000/svg" xmlns:xlink="http://www.w3.org/1999/xlink" version="1.1" baseProfile="full" viewBox="0 0 200 200" width="200" height="200">
<g fill="black">
<path d="M 175.2 174.6 L 173.8 176.7 L 172.2 178.7 L 170.4 180.3 L 168.3 181.7 L 166.0 182.7 L 163.6 183.4 L 161.1 183.8 L 158.6 184.0 L 158.6 178.0 L 138.6 175.0 L 138.6 172.0 L 158.6 172.0 L 159.9 171.9 L 160.9 171.7 L 161.8 171.5 L 162.5 171.1 L 163.1 170.8 L 163.6 170.3 L 164.1 169.7 L 164.6 168.9 L 165.0 167.9 L 165.5 166.7 L 166.5 162.7 L 167.4 158.3 L 168.3 153.6 L 169.1 148.5 L 169.7 143.1 L 170.3 137.3 L 170.8 131.2 L 171.2 124.8 L 171.5 118.0 L 171.6388889312744 113.0 L 165.81489362716675 113.0 L 163.1 121.8 L 159.7 130.8 L 155.9 139.4 L 151.7 147.6 L 147.0 155.4 L 141.8 162.6 L 136.2 169.5 L 130.1 175.8 L 123.6 181.5 L 116.5 186.6 L 115.4 185.3 L 120.9 178.8 L 126.1 172.2 L 131.0 165.4 L 135.5 158.4 L 139.6 151.0 L 143.4 143.4 L 146.7 135.4 L 149.7 127.1 L 152.2 118.5 L 153.5199999809265 113.0 L 144.14347829818726 113.0 L 144.0 113.3 L 140.1 121.3 L 135.9 128.9 L 131.3 136.2 L 126.3 143.2 L 121.0 149.8 L 115.3 156.0 L 109.3 161.9 L 102.9 167.3 L 96.1 172.3 L 88.9 176.7 L 87.9 175.2 L 93.7 169.3 L 99.3 163.4 L 104.6 157.3 L 109.6 151.1 L 114.3 144.6 L 118.6 137.9 L 122.7 131.0 L 126.4 123.8 L 129.9 116.3 L 131.20754718780518 113.0 L 121.51481485366821 113.0 L 120.7 114.1 L 116.4 119.1 L 111.9 123.6 L 107.2 127.7 L 102.2 131.3 L 96.9 134.3 L 91.4 136.7 L 90.4 135.2 L 94.7 131.2 L 98.8 127.1 L 102.7 122.9 L 106.4 118.5 L 109.8 113.8 L 113.1 108.8 L 116.2 103.4 L 119.1 97.8 L 121.8 91.9 L 123.66666669845581 87.0 L 117.8 87.0 L 117.8 90.0 L 105.8 96.0 L 105.8 15.0 L 117.8 21.0 L 165.1 21.0 L 171.1 16.0 L 182.1 25.0 L 177.1 29.0 L 177.1 91.0 L 165.1 97.0 L 165.1 87.0 L 129.6050847053528 87.0 L 135.3 90.2 L 137.3 93.2 L 133.54074077606202 93.7185185432434 L 132.0 96.8 L 128.5 102.9 L 124.7 108.7 L 124.4777777671814 109.0 L 171.7 109.0 L 177.7 104.0 L 188.7 113.0 L 183.7 116.0 L 183.5642032623291 116.05658197402954 L 183.5 118.4 L 183.2 125.4 L 182.8 132.1 L 182.3 138.4 L 181.7 144.5 L 180.9 150.2 L 180.1 155.6 L 179.2 160.7 L 178.2 165.5 L 177.0 169.9 L 176.2 172.3 Z M 92.9 29.0 L 92.9 33.0 L 64.6 33.0 L 64.6 61.0 L 76.4 61.0 L 81.9 56.0 L 92.4 65.0 L 87.4 68.5 L 87.4 168.0 L 76.4 173.5 L 76.4 168.0 L 28.8 168.0 L 28.8 180.0 L 16.8 186.0 L 16.8 55.0 L 28.8 61.0 L 37.8 61.0 L 37.8 33.0 L 11.9 33.0 L 11.9 29.0 L 70.9 29.0 L 80.9 19.0 Z M 28.8 143.0 L 28.8 164.0 L 76.4 164.0 L 76.4 143.0 Z M 76.4 114.15 L 76.4 65.0 L 64.6 65.0 L 64.6 107.0 L 64.8 108.3 L 65.1 109.4 L 65.4 110.2 L 66.1 110.9 L 66.5 111.1 L 67.0 111.3 L 67.34121036529541 111.34265127182007 L 72.8 90.5 L 74.8 90.5 L 72.8 111.5 L 76.1 113.7 Z M 28.8 65.0 L 28.8 128.0666666984558 L 30.4 124.6 L 32.1 120.2 L 33.5 115.4 L 34.8 109.9 L 35.9 103.7 L 36.8 96.9 L 37.4 89.5 L 37.8 81.3 L 37.9 72.5 L 37.821052646636964 65.0 Z M 117.8 56.0 L 117.8 83.0 L 165.1 83.0 L 165.1 56.0 Z M 47.8 33.0 L 47.8 61.0 L 55.6 61.0 L 55.6 33.0 Z M 117.8 25.0 L 117.8 52.0 L 165.1 52.0 L 165.1 25.0 Z M 67.6 122.2 L 65.2 121.7 L 63.0 120.8 L 60.9 119.6 L 59.1 118.0 L 57.6 116.1 L 56.6 113.9 L 55.9 111.7 L 55.6 109.4 L 55.6 65.0 L 47.71752576828003 65.0 L 47.4 72.7 L 46.7 81.9 L 45.7 90.3 L 44.5 98.1 L 42.9 105.2 L 40.9 111.6 L 38.7 117.2 L 36.1 122.2 L 33.1 126.3 L 29.7 129.4 L 28.8 128.66363639831542 L 28.8 139.0 L 76.4 139.0 L 76.4 119.85 L 76.1 120.3 L 72.8 122.5 L 70.1 122.5 Z " />
</g>
</svg>
