<svg xmlns="http://www.w3.org/2000/svg" xmlns:xlink="http://www.w3.org/1999/xlink" version="1.1" baseProfile="full" viewBox="0 0 200 200" width="200" height="200">
<g fill="black">
<path d="M 91.8 29.0 L 91.8 33.0 L 66.4 33.0 L 66.4 61.0 L 77.3 61.0 L 81.8 56.0 L 91.3 65.0 L 86.3 67.5 L 86.3 174.0 L 77.3 178.5 L 77.3 168.0 L 33.9 168.0 L 33.9 180.0 L 21.9 186.0 L 21.9 55.0 L 33.9 61.0 L 41.1 61.0 L 41.1 33.0 L 17.9 33.0 L 17.9 29.0 L 69.8 29.0 L 79.8 19.0 Z M 186.2 111.7 L 181.2 115.7 L 181.2 176.2 L 169.2 182.2 L 169.2 172.2 L 149.6 172.2 L 149.6 179.2 L 139.6 184.2 L 139.6 102.7 L 149.6 107.7 L 169.2 107.7 L 175.2 102.7 Z M 139.3 111.7 L 134.3 114.7 L 134.3 176.2 L 124.3 181.2 L 124.3 172.2 L 103.7 172.2 L 103.7 179.2 L 93.7 184.2 L 93.7 102.7 L 103.7 107.7 L 124.3 107.7 L 129.3 102.7 Z M 149.6 111.7 L 149.6 168.2 L 169.2 168.2 L 169.2 111.7 Z M 103.7 111.7 L 103.7 168.2 L 124.3 168.2 L 124.3 111.7 Z M 33.9 143.0 L 33.9 164.0 L 77.3 164.0 L 77.3 143.0 Z M 77.3 114.45 L 77.3 65.0 L 66.4 65.0 L 66.4 107.0 L 66.6 108.3 L 66.9 109.4 L 67.2 110.2 L 67.9 110.9 L 68.1273684501648 111.01368417739869 L 73.5 90.5 L 75.5 90.5 L 73.5 111.5 L 76.8 113.7 Z M 33.9 65.0 L 33.9 126.55 L 34.7 124.6 L 36.1 120.3 L 37.4 115.4 L 38.6 109.9 L 39.5 103.8 L 40.3 97.0 L 40.8 89.5 L 41.2 81.3 L 41.3 72.5 L 41.14210529327393 65.0 Z M 119.1 29.0 L 154.2 29.0 L 160.2 24.0 L 171.2 33.0 L 166.2 37.0 L 166.2 91.0 L 154.2 97.0 L 154.2 87.0 L 119.1 87.0 L 119.1 94.0 L 107.1 100.0 L 107.1 23.0 Z M 119.1 33.0 L 119.1 83.0 L 154.2 83.0 L 154.2 33.0 Z M 51.1 33.0 L 51.1 61.0 L 57.4 61.0 L 57.4 33.0 Z M 69.4 122.2 L 67.0 121.7 L 64.8 120.8 L 62.7 119.6 L 60.9 118.0 L 59.4 116.1 L 58.4 113.9 L 57.7 111.7 L 57.4 109.4 L 57.4 65.0 L 51.01752576828003 65.0 L 50.7 72.7 L 50.1 81.8 L 49.2 90.3 L 48.0 98.0 L 46.5 105.1 L 44.7 111.5 L 42.6 117.2 L 40.2 122.1 L 37.4 126.2 L 34.3 129.4 L 33.9 129.1 L 33.9 139.0 L 77.3 139.0 L 77.3 119.55 L 76.8 120.3 L 73.5 122.5 L 71.9 122.5 Z " />
</g>
</svg>
