<svg xmlns="http://www.w3.org/2000/svg" xmlns:xlink="http://www.w3.org/1999/xlink" version="1.1" baseProfile="full" viewBox="0 0 200 200" width="200" height="200">
<g fill="black">
<path d="M 59.5 48.7 L 58.4 46.2 L 57.1 43.8 L 55.5 41.2 L 53.8 38.7 L 51.8 36.1 L 49.6 33.5 L 47.3 30.7 L 46.392452812194826 29.922102451324463 L 45.0 34.0 L 41.9 42.1 L 38.6 50.0 L 35.0 57.6 L 31.1 65.1 L 28.879166698455812 69.0 L 48.918181800842284 69.0 L 57.1 60.0 L 67.1 69.0 L 67.1 73.0 L 50.1 73.0 L 50.1 101.0 L 52.918181800842284 101.0 L 61.1 92.0 L 71.1 101.0 L 71.1 105.0 L 50.1 105.0 L 50.1 161.36909093856812 L 52.4 160.7 L 58.0 159.1 L 63.6 157.6 L 69.4 156.1 L 70.1 157.8 L 65.1 161.1 L 60.0 164.1 L 54.8 166.8 L 49.6 169.4 L 44.3 171.9 L 39.0 174.2 L 33.7 176.4 L 28.4 178.5 L 23.1 180.5 L 21.715719509124757 180.98706169128417 L 20.5 184.8 L 17.7 182.4 L 12.5 171.5 L 14.4 170.9 L 19.7 169.6 L 25.1 168.3 L 30.5 166.9 L 35.9 165.4 L 38.1 164.8 L 38.1 105.0 L 16.5 105.0 L 16.5 101.0 L 38.1 101.0 L 38.1 73.0 L 26.55 73.0 L 22.5 79.3 L 17.7 86.1 L 12.5 92.4 L 11.0 91.5 L 17.8 76.7 L 21.1 69.3 L 24.2 61.8 L 27.2 54.3 L 29.9 46.6 L 32.4 38.7 L 34.8 30.8 L 36.9 22.7 L 38.502352237701416 15.40039529800415 L 38.5 15.4 L 38.515909099578856 15.33863639831543 L 38.7 14.5 L 38.73132066726684 14.507763195037843 L 39.2 12.7 L 50.4 17.4 L 52.8 20.1 L 49.25037317276001 21.114179134368896 L 47.8 25.8 L 47.18760633468628 27.593438625335693 L 48.9 28.5 L 52.3 30.1 L 55.5 31.9 L 58.4 33.9 L 61.2 36.1 L 63.8 38.3 L 66.2 40.8 L 68.4 43.3 L 70.4 46.0 L 72.1 48.9 L 72.1 53.4 L 68.9 56.7 L 64.3 56.7 L 61.1 53.5 L 60.4 51.1 Z M 88.7 186.9 L 84.6 184.9 L 83.0 180.7 L 83.4 173.5 L 83.5 167.0 L 83.2 161.0 L 82.5 155.7 L 81.5 151.0 L 80.80526313781738 148.8089068412781 L 79.9 148.6 L 80.33710289001465 147.33240156173707 L 80.2 146.9 L 78.5 143.2 L 76.4 139.9 L 74.0 137.0 L 71.0 134.2 L 71.7 132.5 L 76.1 133.8 L 80.2 136.1 L 82.87638483047485 138.479008769989 L 83.8 134.9 L 85.8 126.9 L 88.2 117.4 L 91.0 106.1 L 94.1 93.2 L 97.6 78.7 L 101.7 62.5 L 106.3 44.8 L 108.1 45.1 L 105.4 63.3 L 102.9 79.8 L 100.5 94.5 L 98.4 107.6 L 96.5 119.0 L 95.0 128.8 L 93.7 136.9 L 92.7 143.3 L 92.0 148.1 L 91.6 151.3 L 90.6600938796997 151.0830986022949 L 91.6 153.5 L 93.1 159.5 L 94.2 166.2 L 94.8 173.4 L 94.9 181.2 L 92.9 185.4 Z M 163.2 180.7 L 161.4 182.4 L 159.5 183.9 L 157.5 185.1 L 155.3 186.2 L 153.0 187.0 L 150.6 187.5 L 148.2 187.8 L 145.7 188.0 L 145.7 182.0 L 125.7 179.0 L 125.7 176.0 L 145.7 176.0 L 147.2 175.9 L 148.5 175.7 L 150.7 175.1 L 151.7 174.6 L 152.7 174.0 L 153.6 173.3 L 154.5 172.5 L 155.3 171.5 L 156.2 170.3 L 156.9 168.7 L 157.9 164.7 L 159.0 158.8 L 159.40526313781737 156.0 L 124.40130128860474 156.0 L 123.1 168.5 L 110.6 173.2 L 116.74239711761474 114.0 L 102.6 114.0 L 102.6 110.0 L 117.1574239730835 110.0 L 122.2 61.4 L 132.5583333015442 68.0 L 165.0 68.0 L 171.0 63.0 L 182.0 72.0 L 177.0 75.0 L 176.83342771530153 75.06940507888794 L 176.4 88.0 L 175.7 104.1 L 175.3767123222351 110.0 L 179.4 110.0 L 183.9 104.0 L 189.9 110.0 L 189.9 114.0 L 175.15753421783447 114.0 L 174.9 118.7 L 174.0 131.6 L 173.1 142.9 L 172.06804122924805 152.0 L 177.2 152.0 L 181.7 146.0 L 187.7 152.0 L 187.7 156.0 L 171.5382716178894 156.0 L 170.9 160.7 L 169.6 167.3 L 168.2 172.6 L 166.2 176.8 L 164.8 178.9 Z M 23.8 145.2 L 23.6 142.2 L 23.3 139.2 L 22.7 136.3 L 22.1 133.3 L 21.3 130.3 L 20.3 127.3 L 19.2 124.2 L 17.7 121.3 L 19.1 120.2 L 24.0 125.1 L 26.2 127.7 L 28.2 130.6 L 29.9 133.5 L 31.5 136.7 L 32.9 140.0 L 34.0 143.4 L 35.0 146.9 L 35.7 150.6 L 34.2 154.9 L 30.2 156.9 L 25.8 155.4 L 23.8 151.4 L 23.9 148.3 Z M 128.77367362976074 114.0 L 124.81771774291992 152.0 L 159.98421049118042 152.0 L 160.1 151.2 L 161.1 141.8 L 162.1 130.7 L 162.9 118.0 L 163.12222223281861 114.0 Z M 69.8 121.6 L 72.2 124.4 L 68.12642011642455 125.40052843093872 L 65.7 130.6 L 62.5 136.6 L 60.8 139.5 L 59.0 142.5 L 57.1 145.4 L 55.0 148.3 L 53.0 151.3 L 51.4 150.6 L 52.4 147.2 L 53.1 143.7 L 53.8 140.4 L 54.6 137.1 L 55.3 133.8 L 56.0 130.6 L 56.6 127.4 L 57.3 124.3 L 57.8 121.2 L 58.13223142623902 119.20661153793336 L 58.1 119.2 L 58.1875 118.875 L 58.3 118.2 L 58.3641263961792 118.21895914077759 L 58.8 116.6 Z M 144.1 137.3 L 143.6 135.0 L 143.0 132.8 L 142.3 130.7 L 141.4 128.8 L 140.4 127.0 L 139.2 125.2 L 137.8 123.4 L 135.9 122.2 L 136.6 120.5 L 138.9 121.3 L 141.4 122.0 L 143.8 123.1 L 146.1 124.6 L 148.2 126.4 L 150.2 128.5 L 152.0 130.9 L 153.7 133.6 L 155.2 136.5 L 156.5 139.6 L 155.7 144.1 L 152.1 146.9 L 147.6 146.1 L 144.8 142.4 L 144.5 139.8 Z M 133.14604606628419 72.0 L 129.19009008407593 110.0 L 163.3444444656372 110.0 L 163.7 103.6 L 164.4 87.5 L 164.92542371749877 72.0 Z M 146.6 92.5 L 146.0 90.5 L 145.3 88.5 L 144.5 86.6 L 143.5 84.7 L 142.4 82.7 L 141.1 80.8 L 139.3 79.2 L 140.3 77.7 L 142.5 78.9 L 144.8 79.9 L 147.1 81.1 L 149.2 82.5 L 151.2 84.2 L 153.1 86.1 L 154.8 88.1 L 156.4 90.4 L 157.9 92.8 L 159.2 95.4 L 158.6 99.9 L 155.1 102.8 L 150.6 102.3 L 147.7 98.7 L 147.1 94.5 Z M 80.7 84.5 L 80.0 82.5 L 79.1 80.6 L 78.1 78.7 L 76.8 76.7 L 75.4 74.8 L 73.9 72.8 L 72.1 70.8 L 69.9 69.2 L 70.7 67.6 L 73.3 68.8 L 76.0 69.6 L 78.6 70.7 L 81.1 72.1 L 83.4 73.6 L 85.6 75.3 L 87.6 77.2 L 89.5 79.3 L 91.2 81.5 L 92.8 83.9 L 92.6 88.5 L 89.4 91.7 L 84.8 91.6 L 81.6 88.4 L 81.2 86.4 Z M 138.8 17.3 L 141.2 20.0 L 137.59245281219484 21.095148277282714 L 136.7 23.9 L 134.4 30.4 L 131.8 36.9 L 129.5246153831482 42.0 L 163.6 42.0 L 173.6 32.0 L 185.6 42.0 L 185.6 46.0 L 127.61999998092651 46.0 L 125.7 49.9 L 122.2 56.4 L 118.4 62.8 L 114.3 69.1 L 109.8 75.3 L 104.8 81.4 L 103.3 80.5 L 106.5 73.4 L 109.6 66.5 L 112.6 59.7 L 115.4 53.1 L 118.0 46.5 L 120.3 40.0 L 122.4 33.5 L 124.2 27.1 L 125.8 20.8 L 127.1 14.5 L 127.12110004425048 14.50504961013794 L 127.5 12.8 Z M 91.0 36.8 L 90.4 34.9 L 89.6 33.1 L 88.6 31.1 L 87.4 29.2 L 86.0 27.2 L 84.5 25.1 L 82.7 23.0 L 80.5 21.2 L 81.5 19.7 L 84.0 21.0 L 86.8 22.0 L 89.3 23.2 L 91.7 24.6 L 94.0 26.1 L 96.1 27.8 L 98.1 29.6 L 99.9 31.6 L 101.5 33.7 L 103.0 36.0 L 102.8 40.5 L 99.6 43.7 L 95.0 43.6 L 91.8 40.3 L 91.5 38.6 Z " />
</g>
</svg>
