<svg xmlns="http://www.w3.org/2000/svg" xmlns:xlink="http://www.w3.org/1999/xlink" version="1.1" baseProfile="full" viewBox="0 0 200 200" width="200" height="200">
<g fill="black">
<path d="M 160.6 149.5 L 152.6 146.1 L 144.8 142.4 L 137.3 138.3 L 130.0 133.9 L 124.80645160675049 130.33870964050294 L 134.0 138.0 L 134.0 142.0 L 107.0 142.0 L 107.0 155.0 L 139.8181818008423 155.0 L 148.0 146.0 L 158.0 155.0 L 158.0 159.0 L 107.0 159.0 L 107.0 181.0 L 121.36363639831544 181.0 L 122.1 180.1 L 123.4 177.6 L 126.0 173.0 L 127.2 170.7 L 128.4 168.6 L 129.5 166.4 L 130.6 164.4 L 131.6 162.3 L 132.0898820877075 161.21137313842775 L 131.9 161.1 L 132.9 159.6 L 142.3 167.2 L 143.6 170.6 L 139.0506591796875 170.28625230789186 L 138.7 170.6 L 136.9 172.3 L 134.9 173.9 L 132.9 175.6 L 128.5 178.8 L 126.2 180.3 L 125.08000001907348 181.0 L 159.0 181.0 L 169.0 171.0 L 181.0 181.0 L 181.0 185.0 L 22.0 185.0 L 22.0 181.0 L 95.0 181.0 L 95.0 159.0 L 45.0 159.0 L 45.0 155.0 L 95.0 155.0 L 95.0 142.0 L 73.0 142.0 L 73.0 138.0 L 112.0 138.0 L 121.8076271057129 128.1923728942871 L 116.3 124.0 L 110.0 118.4 L 106.40514097213745 114.61920003890991 L 103.9 116.9 L 96.5 122.6 L 88.5 128.0 L 79.8 133.2 L 70.6 138.1 L 60.6 142.7 L 50.0 147.0 L 38.8 151.0 L 26.8 154.6 L 14.2 157.8 L 13.7 156.1 L 25.6 151.1 L 36.8 146.0 L 47.4 141.0 L 57.3 135.9 L 66.5 130.7 L 75.0 125.3 L 82.8 119.8 L 89.9 114.1 L 96.3 108.4 L 101.22013874053955 103.2162823677063 L 101.2 103.2 L 101.45955057144165 102.96404495239258 L 101.9 102.5 L 101.93415594100952 102.5325855255127 L 102.3 102.2 L 110.6 110.8 L 111.28177871704102 114.30629062652588 L 119.7 119.1 L 126.8 122.9 L 134.1 126.6 L 141.5 129.9 L 149.0 133.0 L 156.7 135.8 L 164.5 138.4 L 172.5 140.6 L 180.6 142.6 L 189.0 144.8 L 177.3 155.3 L 168.8 152.6 Z M 67.7 175.3 L 67.2 173.8 L 66.6 172.3 L 65.8 170.7 L 63.8 167.3 L 62.5 165.6 L 61.1 163.7 L 59.3 162.2 L 60.3 160.7 L 62.4 161.9 L 64.7 162.7 L 66.9 163.5 L 68.9 164.5 L 70.9 165.6 L 72.7 166.8 L 74.4 168.1 L 76.1 169.5 L 77.6 171.0 L 79.0 172.6 L 79.2 177.1 L 76.3 180.6 L 71.7 180.9 L 68.2 178.0 L 68.0 176.7 Z M 20.1 102.2 L 35.3 102.2 L 36.2 102.0 L 36.8 101.8 L 37.4 101.5 L 37.5 101.3 L 37.7 101.0 L 37.9 100.4 L 38.0 99.5 L 38.1 98.2 L 38.1 72.9333333015442 L 37.1 75.6 L 35.1 80.1 L 32.8 84.3 L 30.3 88.4 L 27.6 92.1 L 24.7 95.6 L 21.5 98.7 L 18.0 101.5 L 14.3 104.0 L 13.1 102.7 L 15.5 99.2 L 17.6 95.6 L 19.6 92.0 L 21.4 88.3 L 23.1 84.5 L 24.6 80.5 L 25.9 76.4 L 27.0 72.2 L 28.0 67.8 L 28.213333320617675 66.6 L 17.1 66.6 L 17.1 62.6 L 28.7 62.6 L 34.7 57.6 L 38.1 60.38181819915771 L 38.1 44.2 L 50.1 46.2 L 53.1 48.2 L 50.1 50.0 L 50.1 74.13684206008911 L 53.1 75.4 L 53.42639999389648 75.57279996871948 L 54.3 74.2 L 55.8 70.8 L 57.2 67.8 L 58.5 65.1 L 59.5 62.7 L 60.5 60.6 L 61.2 58.8 L 61.7 57.2 L 62.052266693115236 56.14320001602173 L 61.6 55.9 L 62.19680852890015 55.0319149017334 L 62.2 55.0 L 62.21289768218994 55.00851249694824 L 62.7 54.3 L 72.2 61.6 L 71.2 62.3 L 71.0 62.44545450210571 L 72.2 61.6 L 73.6 64.9 L 68.1689567565918 64.71272268295289 L 67.2 65.5 L 65.5 67.0 L 63.5 68.8 L 61.3 70.9 L 58.9 73.1 L 56.2 75.6 L 55.3237964630127 76.577303981781 L 56.5 77.2 L 59.7 78.9 L 62.5 80.7 L 65.2 82.5 L 67.5 84.3 L 69.7 86.2 L 71.5 88.1 L 73.2 90.2 L 73.4 94.8 L 70.4 98.2 L 65.8 98.5 L 62.4 95.5 L 62.1 94.1 L 61.4 92.5 L 60.5 90.6 L 59.1 88.6 L 57.5 86.4 L 55.5 84.0 L 53.2 81.5 L 50.7 78.9 L 50.1 78.3 L 50.1 98.2 L 50.0 100.8 L 49.5 103.3 L 48.7 105.7 L 47.5 108.0 L 45.8 110.0 L 43.8 111.6 L 41.6 112.8 L 39.2 113.7 L 36.7 114.1 L 34.1 114.2 L 34.1 108.2 L 20.1 105.2 Z M 125.2 102.2 L 145.2 102.2 L 146.4 102.1 L 147.9 101.8 L 148.3 101.6 L 148.5 101.4 L 148.6 101.2 L 148.8 100.9 L 149.0 100.3 L 149.1 99.4 L 149.2 98.2 L 149.2 75.2444444656372 L 149.0 75.8 L 146.8 80.6 L 144.3 85.0 L 141.5 89.0 L 138.3 92.7 L 134.8 96.0 L 131.0 98.9 L 126.8 101.3 L 122.4 103.3 L 121.4 101.7 L 124.7 98.5 L 127.6 95.1 L 130.2 91.7 L 132.5 88.2 L 134.5 84.5 L 136.3 80.7 L 137.7 76.7 L 138.9 72.5 L 139.8 68.1 L 140.01702127456664 66.4 L 129.7 66.4 L 129.7 62.4 L 140.3 62.4 L 146.3 57.4 L 149.2 59.77272729873657 L 149.2 44.2 L 161.2 46.2 L 164.2 48.2 L 161.2 50.0 L 161.2 58.3222222328186 L 162.6 63.3 L 164.7 69.1 L 165.41388101577758 70.64674224853516 L 166.3 69.5 L 167.9 67.5 L 169.4 65.6 L 170.8 63.8 L 172.0 62.1 L 173.2 60.5 L 174.2 58.9 L 175.0 57.5 L 175.2144486427307 57.07110261917114 L 175.0 56.9 L 175.6666666984558 56.16666669845581 L 175.7 56.1 L 175.71460552215575 56.11393394470215 L 176.0 55.8 L 184.4 64.4 L 185.2 67.9 L 180.2687023162842 66.8618320465088 L 179.3 67.4 L 177.4 68.4 L 173.2 70.5 L 170.9 71.5 L 168.5 72.5 L 166.6055275917053 73.22864322662353 L 167.1 74.3 L 169.7 79.0 L 172.5 83.1 L 175.7 86.7 L 179.1 89.7 L 182.8 92.3 L 186.8 94.5 L 191.5 97.2 L 180.3 106.0 L 175.4 102.4 L 171.0 98.3 L 167.2 93.7 L 164.0 88.7 L 161.3 83.2 L 161.2 82.90500001907348 L 161.2 98.2 L 161.1 100.7 L 160.6 103.2 L 159.8 105.6 L 158.6 107.9 L 157.0 109.9 L 154.9 111.6 L 152.7 112.8 L 150.3 113.6 L 147.8 114.0 L 145.2 114.2 L 145.2 108.2 L 125.2 105.2 Z M 95.1 83.9 L 94.6 82.4 L 93.8 80.9 L 92.8 79.2 L 91.6 77.5 L 90.3 75.7 L 88.7 73.8 L 86.9 71.7 L 86.73728809356689 71.58166408538818 L 85.4 73.0 L 81.9 76.3 L 78.0 79.4 L 73.9 82.1 L 69.5 84.7 L 68.4 83.3 L 71.6 79.5 L 74.5 75.8 L 77.2 72.1 L 79.7 68.4 L 82.0 64.7 L 84.1 60.9 L 85.9 57.2 L 87.5 53.3 L 88.8 49.5 L 89.71407680511474 46.52925043106079 L 89.6 46.5 L 90.5 44.1 L 101.3 49.5 L 103.5 52.3 L 99.58206300735473 53.19356460571289 L 99.3 53.8 L 98.36904764175415 55.5 L 115.8 55.5 L 121.8 50.5 L 132.8 59.5 L 127.8 62.5 L 126.12246294021607 63.19897375106812 L 124.5 67.7 L 120.8 75.8 L 116.5 83.1 L 111.5 89.8 L 105.9 95.7 L 99.6 100.9 L 92.9 105.4 L 85.5 109.0 L 77.6 111.8 L 69.2 113.7 L 68.7 112.0 L 76.2 108.3 L 83.0 104.3 L 89.2 99.9 L 94.8 95.1 L 99.7 89.9 L 100.21009464263916 89.22760248184204 L 99.1 89.3 L 95.6 86.4 L 95.5 85.2 Z M 96.0625 59.5 L 94.5 62.0 L 91.7 65.9 L 88.7 69.5 L 88.36371164321899 69.85666942596436 L 90.8 70.7 L 93.3 71.7 L 95.6 72.7 L 97.7 73.9 L 99.7 75.1 L 101.6 76.4 L 103.3 77.8 L 104.9 79.3 L 106.12800531387329 80.79114923477172 L 107.9 77.9 L 111.1 71.1 L 113.9 63.8 L 115.04303798675537 59.5 Z M 134.0 14.2 L 137.0 16.2 L 134.0 18.0 L 134.0 27.7 L 165.0 27.7 L 175.0 17.7 L 187.0 27.7 L 187.0 31.7 L 134.0 31.7 L 134.0 42.6 L 122.0 48.6 L 122.0 31.7 L 78.0 31.7 L 78.0 42.6 L 66.0 48.6 L 66.0 31.7 L 13.0 31.7 L 13.0 27.7 L 66.0 27.7 L 66.0 12.2 L 78.0 14.2 L 81.0 16.2 L 78.0 18.0 L 78.0 27.7 L 122.0 27.7 L 122.0 12.2 Z " />
</g>
</svg>
