<svg xmlns="http://www.w3.org/2000/svg" xmlns:xlink="http://www.w3.org/1999/xlink" version="1.1" baseProfile="full" viewBox="0 0 200 200" width="200" height="200">
<g fill="black">
<path d="M 159.7 161.5 L 154.9 158.9 L 149.8 156.3 L 144.6 153.9 L 144.34399995803832 153.7862222671509 L 139.5 157.4 L 132.4 161.2 L 124.6 164.1 L 116.0 166.1 L 106.8 167.2 L 96.9 167.3 L 96.7 165.5 L 106.2 163.4 L 114.7 160.9 L 122.2 157.9 L 128.9 154.4 L 134.6 150.4 L 135.2379084587097 149.80196075439454 L 133.6 149.1 L 127.8 146.8 L 121.9 144.3 L 120.46008586883545 143.70987129211426 L 118.2 147.1 L 115.7 150.6 L 106.0 143.7 L 108.3 140.4 L 110.5 137.1 L 114.7 130.1 L 116.7 126.5 L 116.95675678253174 126.0 L 93.7 126.0 L 93.7 122.0 L 119.01081085205078 122.0 L 120.5 119.1 L 124.1 111.3 L 125.7 107.3 L 125.74508552551269 107.31811475753784 L 126.3 105.9 L 136.9 111.8 L 138.9 114.7 L 135.39840421676635 115.30372343063354 L 135.1 116.0 L 133.2 120.2 L 132.36585369110108 122.0 L 160.2 122.0 L 168.54067792892457 113.65932207107544 L 165.9 112.5 L 164.7 110.7 L 163.3 108.9 L 161.6 107.1 L 159.8 105.3 L 157.8 103.5 L 155.5 101.7 L 153.0 99.9 L 150.4 98.0 L 147.5 96.1 L 144.3 94.5 L 144.9 92.8 L 148.4 93.6 L 151.9 94.2 L 155.3 95.0 L 158.5 95.9 L 161.5 96.9 L 164.4 98.1 L 167.2 99.5 L 169.8 100.9 L 172.3 102.5 L 174.6 104.3 L 176.2 108.6 L 174.3 112.8 L 172.08655738830566 113.57213115692139 L 182.2 122.0 L 182.2 126.0 L 162.28999996185303 126.0 L 159.7 133.4 L 156.0 140.7 L 151.3188250541687 147.07436580657958 L 153.3 147.7 L 158.9 149.7 L 164.4 151.8 L 169.6 154.1 L 174.7 156.5 L 177.5 160.2 L 177.130508518219 163.52542371749877 L 187.3 172.0 L 187.3 176.0 L 89.1 176.0 L 89.1 183.0 L 77.1 189.0 L 77.1 22.0 L 89.1 28.0 L 159.1 28.0 L 169.1 18.0 L 181.1 28.0 L 181.1 32.0 L 89.1 32.0 L 89.1 172.0 L 165.3 172.0 L 170.21176471710206 167.08823528289795 L 168.8 166.9 L 164.4 164.2 Z M 65.7 128.8 L 64.8 131.2 L 63.6 133.4 L 62.1 135.4 L 60.2 137.2 L 58.2 138.6 L 55.9 139.7 L 53.5 140.4 L 51.0 140.8 L 48.4 141.0 L 48.45012464523315 134.98503742218017 L 38.5 132.0 L 38.5 129.0 L 48.5 129.0 L 49.7 128.9 L 50.8 128.7 L 51.6 128.5 L 52.2 128.2 L 52.7 127.9 L 53.30819272994995 127.1397590637207 L 54.0 123.8 L 55.0 119.5 L 55.5 115.2 L 55.6 110.8 L 55.2 106.3 L 54.3 101.7 L 52.9 97.0 L 50.9 92.2 L 48.5 87.1 L 45.6 81.9 L 42.3 76.3 L 42.51010103225708 76.10606060028076 L 41.5 75.5 L 43.7 69.7 L 46.0 64.1 L 48.2 58.8 L 50.2 53.6 L 52.1 48.6 L 53.9 43.8 L 55.4 39.2 L 56.8 34.7 L 58.0 30.4 L 58.09523811340332 30.0 L 32.1 30.0 L 32.1 183.0 L 20.1 189.0 L 20.1 20.0 L 32.1 26.0 L 58.8 26.0 L 64.8 21.0 L 75.8 30.0 L 70.8 33.0 L 68.87888631820678 33.80046405792236 L 68.8 34.0 L 66.9 38.5 L 64.7 43.0 L 62.4 47.6 L 59.8 52.3 L 57.0 57.0 L 54.0 61.8 L 50.7 66.7 L 47.0 71.6 L 43.89168281555176 75.32998065948486 L 48.8 79.2 L 53.3 83.7 L 57.2 88.5 L 60.4 93.5 L 63.1 98.6 L 65.1 103.9 L 66.5 109.4 L 67.3 115.0 L 67.5 120.7 L 66.9 126.5 L 66.13892097473145 127.04431600570679 Z M 130.45 126.0 L 129.3 128.3 L 125.1 136.1 L 122.9 139.9 L 122.41145582199097 140.66467781066893 L 122.8 140.7 L 129.3 141.6 L 135.6 142.8 L 140.87227640151977 144.09646139144897 L 143.4 141.0 L 146.6 135.4 L 149.1 129.3 L 149.90943393707275 126.0 Z M 130.9 99.3 L 131.2 102.9 L 127.39622640609741 101.42075471878051 L 121.6 104.5 L 118.3 106.0 L 114.8 107.5 L 111.2 108.9 L 107.5 110.2 L 103.7 111.4 L 99.6 112.4 L 95.6 113.5 L 94.9 111.9 L 98.4 109.7 L 101.7 107.3 L 104.9 105.1 L 108.0 102.9 L 110.9 100.7 L 113.7 98.5 L 116.4 96.3 L 118.9 94.2 L 121.3 92.0 L 122.86523485183716 90.5708724975586 L 122.8 90.5 L 123.6 89.8 Z M 115.8 43.4 L 160.0 43.4 L 166.0 38.4 L 177.0 47.4 L 172.0 51.4 L 172.0 87.5 L 160.0 93.5 L 160.0 87.5 L 115.8 87.5 L 103.8 93.5 L 103.8 37.4 Z M 115.8 67.4 L 115.8 83.5 L 160.0 83.5 L 160.0 67.4 Z M 115.8 47.4 L 115.8 63.4 L 160.0 63.4 L 160.0 47.4 Z " />
</g>
</svg>
