<svg xmlns="http://www.w3.org/2000/svg" xmlns:xlink="http://www.w3.org/1999/xlink" version="1.1" baseProfile="full" viewBox="0 0 200 200" width="200" height="200">
<g fill="black">
<path d="M 108.5 176.2 L 129.7 176.2 L 130.6 176.0 L 131.2 175.8 L 131.5 175.6 L 131.7 175.5 L 131.9 175.3 L 132.2 174.4 L 132.4 173.5 L 132.5 172.2 L 132.5 128.62558135986328 L 130.5 132.3 L 125.9 139.9 L 121.0 147.1 L 115.9 153.9 L 110.4 160.4 L 104.6 166.4 L 98.5 172.0 L 92.0 177.0 L 90.8 175.7 L 95.8 169.3 L 100.6 162.9 L 105.2 156.3 L 109.7 149.5 L 113.9 142.5 L 117.8 135.2 L 121.6 127.7 L 125.0 119.8 L 128.2 111.7 L 129.70158729553222 107.4 L 96.7 107.4 L 96.7 103.4 L 132.5 103.4 L 132.5 82.0 L 101.0 82.0 L 101.0 78.0 L 132.5 78.0 L 132.5 53.7 L 104.7 53.7 L 104.7 49.7 L 132.5 49.7 L 132.5 28.4 L 102.1 28.4 L 102.1 24.4 L 166.2 24.4 L 172.2 19.4 L 183.2 28.4 L 178.2 32.4 L 178.2 86.0 L 166.2 92.0 L 166.2 82.0 L 144.5 82.0 L 144.5 103.4 L 171.5 103.4 L 171.995867729187 102.98677682876587 L 172.2 102.5 L 172.42938499450685 102.62551250457764 L 177.5 98.4 L 188.5 107.4 L 183.5 110.4 L 180.33764705657958 111.71764707565308 L 178.6 114.2 L 176.3 117.3 L 173.8 120.4 L 171.3 123.6 L 168.5 126.9 L 165.6 130.2 L 162.5 133.6 L 159.2 136.9 L 155.8 140.4 L 154.3 139.3 L 156.6 135.0 L 158.6 130.8 L 160.6 126.8 L 162.6 122.9 L 164.5 119.2 L 166.3 115.6 L 167.9 112.1 L 169.5 108.8 L 170.1125 107.4 L 144.5 107.4 L 144.5 172.2 L 144.3 174.8 L 143.9 177.3 L 143.1 179.7 L 141.8 181.9 L 140.2 184.0 L 138.2 185.6 L 135.9 186.8 L 133.5 187.6 L 131.0 188.1 L 128.5 188.2 L 128.5 182.2 L 108.5 179.2 Z M 79.9 165.0 L 79.3 162.1 L 78.3 159.1 L 78.08693180084228 158.53181819915773 L 72.7 160.8 L 63.8 164.4 L 55.6 167.6 L 48.2 170.4 L 41.4 172.9 L 35.4 175.2 L 30.1 177.2 L 25.5 178.9 L 22.50873785018921 179.97378644943237 L 21.2 183.9 L 18.5 181.5 L 13.4 170.4 L 15.4 169.9 L 18.6 169.3 L 22.5 168.5 L 27.2 167.5 L 30.412273979187013 166.79914026260377 L 30.8 165.8 L 33.3 159.6 L 35.8 153.9 L 38.1 148.6 L 40.2 143.7 L 42.1 139.2 L 43.8 135.2 L 45.3 131.5 L 45.8625 130.0 L 16.0 130.0 L 16.0 126.0 L 70.0 126.0 L 80.0 116.0 L 92.0 126.0 L 92.0 130.0 L 58.68000001907349 130.0 L 58.4 130.5 L 56.8 133.2 L 54.9 136.3 L 52.7 139.8 L 50.3 143.5 L 47.7 147.7 L 44.8 152.2 L 41.6 157.0 L 38.0 162.2 L 35.57875003814697 165.6145833015442 L 39.0 164.8 L 46.0 163.2 L 53.7 161.3 L 62.2 159.3 L 71.6 157.2 L 77.15442018508911 156.04512052536012 L 77.1 155.9 L 75.6 152.5 L 73.8 149.0 L 71.8 145.2 L 69.6 141.3 L 66.9 137.3 L 68.3 136.1 L 71.9 139.3 L 75.4 142.4 L 78.5 145.6 L 81.4 148.7 L 83.9 151.9 L 86.2 155.1 L 88.1 158.3 L 89.8 161.5 L 91.2 164.7 L 92.3 168.0 L 91.3 172.4 L 87.5 174.9 L 83.0 173.9 L 80.5 170.0 L 80.4 167.6 Z M 32.0 26.0 L 75.0 26.0 L 81.0 21.0 L 92.0 30.0 L 87.0 34.0 L 87.0 60.0 L 75.0 66.0 L 75.0 58.0 L 32.0 58.0 L 32.0 76.0 L 75.0 76.0 L 81.0 71.0 L 92.0 80.0 L 87.0 84.0 L 87.0 112.0 L 75.0 118.0 L 75.0 110.0 L 32.0 110.0 L 32.0 113.0 L 20.0 119.0 L 20.0 20.0 Z M 32.0 80.0 L 32.0 106.0 L 75.0 106.0 L 75.0 80.0 Z M 144.5 53.7 L 144.5 78.0 L 166.2 78.0 L 166.2 53.7 Z M 32.0 30.0 L 32.0 54.0 L 75.0 54.0 L 75.0 30.0 Z M 144.5 28.4 L 144.5 49.7 L 166.2 49.7 L 166.2 28.4 Z " />
</g>
</svg>
