<svg xmlns="http://www.w3.org/2000/svg" xmlns:xlink="http://www.w3.org/1999/xlink" version="1.1" baseProfile="full" viewBox="0 0 200 200" width="200" height="200">
<g fill="black">
<path d="M 112.7 182.3 L 100.7 188.3 L 100.7 115.93999996185303 L 97.5 118.5 L 92.8 121.8 L 87.8 124.8 L 82.5 127.5 L 81.4 126.0 L 85.4 121.8 L 89.3 117.7 L 93.1 113.6 L 96.7 109.5 L 100.1 105.3 L 100.7 104.49375 L 100.7 101.5 L 102.32372884750366 102.31186437606812 L 103.3 101.0 L 106.3 96.7 L 109.2 92.2 L 111.8 87.6 L 113.85199556350707 83.82432823181152 L 113.8 83.8 L 114.8 82.0 L 124.7 88.9 L 126.3 92.1 L 122.4077262878418 92.23421630859374 L 121.4 93.7 L 118.0 98.4 L 114.3 102.8 L 110.81219511032104 106.55609760284423 L 112.7 107.5 L 137.4214285850525 107.5 L 138.6 106.0 L 140.3 103.0 L 142.0 100.2 L 143.7 97.5 L 145.3 95.0 L 146.8 92.5 L 148.2 90.2 L 149.5 88.0 L 150.6 85.9 L 151.21691637039186 84.77833395004272 L 151.1 84.7 L 151.557142829895 84.15974025726318 L 151.7 83.9 L 151.74592084884642 83.93663902282715 L 152.2 83.4 L 161.1 91.4 L 162.2 94.8 L 157.87148151397705 94.20296297073364 L 157.4 94.6 L 155.3 96.3 L 153.2 98.1 L 150.9 100.0 L 148.5 101.9 L 146.0 103.8 L 143.3 105.8 L 140.83500003814697 107.5 L 159.8 107.5 L 169.8 97.5 L 181.8 107.5 L 181.8 111.5 L 147.8 111.5 L 147.8 128.9 L 161.71818180084227 128.9 L 169.9 119.9 L 179.9 128.9 L 179.9 132.9 L 147.8 132.9 L 147.8 150.9 L 161.71818180084227 150.9 L 169.9 141.9 L 179.9 150.9 L 179.9 154.9 L 147.8 154.9 L 147.8 175.3 L 163.6 175.3 L 173.6 165.3 L 185.6 175.3 L 185.6 179.3 L 112.7 179.3 Z M 35.9 137.6 L 67.2 137.6 L 73.2 132.6 L 84.2 141.6 L 79.2 145.6 L 79.2 173.9 L 67.2 179.9 L 67.2 169.9 L 35.9 169.9 L 35.9 176.9 L 23.9 182.9 L 23.9 131.6 Z M 112.7 154.9 L 112.7 175.3 L 135.8 175.3 L 135.8 154.9 Z M 35.9 141.6 L 35.9 165.9 L 67.2 165.9 L 67.2 141.6 Z M 112.7 132.9 L 112.7 150.9 L 135.8 150.9 L 135.8 132.9 Z M 75.8 113.4 L 74.0 111.2 L 71.7 108.8 L 69.0 106.3 L 65.9 103.7 L 62.5 101.1 L 58.7 98.3 L 54.5 95.3 L 54.275728130340575 95.15048542022706 L 51.8 98.5 L 48.0 102.9 L 44.0 107.3 L 39.7 111.4 L 35.1 115.4 L 30.2 119.3 L 25.0 122.9 L 19.4 126.3 L 13.5 129.4 L 12.5 127.9 L 21.6 118.8 L 25.8 114.4 L 29.8 110.0 L 33.5 105.6 L 36.9 101.2 L 40.1 96.7 L 43.0 92.3 L 45.6 87.8 L 47.43258190155029 84.21451377868652 L 47.4 84.2 L 47.74137935638428 83.61034479141236 L 47.9 83.3 L 47.915951347351076 83.30881128311157 L 48.5 82.3 L 58.4 89.1 L 60.0 92.4 L 56.155813980102536 92.46627902984619 L 56.144565200805665 92.4831521987915 L 60.9 94.1 L 65.4 95.9 L 69.6 97.8 L 73.5 99.7 L 77.1 101.7 L 80.3 103.8 L 83.2 105.9 L 85.9 108.2 L 88.2 110.6 L 89.2 115.1 L 86.7 119.0 L 82.3 119.9 L 78.4 117.5 L 77.3 115.6 Z M 112.7 111.5 L 112.7 128.9 L 135.8 128.9 L 135.8 111.5 Z M 77.4 120.9 L 77.4 124.9 L 29.9 124.9 L 29.9 120.9 L 59.21818180084229 120.9 L 67.4 111.9 Z M 13.4 69.6 L 12.7 65.1 L 15.2 61.3 L 17.1 60.3 L 18.9 59.0 L 20.7 57.3 L 22.3 55.2 L 23.9 52.7 L 25.3 49.6 L 26.5 46.1 L 27.6 42.2 L 28.6 37.8 L 29.1 32.9 L 30.9 32.8 L 31.5 37.8 L 31.8319149017334 40.4 L 94.0 40.4 L 94.0 26.0 L 34.0 26.0 L 34.0 22.0 L 148.0 22.0 L 158.0 12.0 L 170.0 22.0 L 170.0 26.0 L 106.0 26.0 L 106.0 40.4 L 173.0 40.4 L 173.53478260040282 39.9543478012085 L 173.7 39.5 L 173.9269624710083 39.62753124237061 L 179.0 35.4 L 190.0 44.4 L 185.0 47.4 L 181.01398601531983 49.06083917617798 L 179.1 51.2 L 177.3 53.1 L 175.5 54.9 L 173.6 56.6 L 171.6 58.3 L 169.6 59.9 L 167.5 61.5 L 165.6 63.2 L 164.3 62.1 L 165.6 60.0 L 166.5 57.6 L 167.5 55.2 L 168.5 52.9 L 169.4 50.7 L 170.3 48.4 L 171.2 46.2 L 171.9043478012085 44.4 L 106.0 44.4 L 106.0 85.2 L 94.0 91.2 L 94.0 44.4 L 32.142222213745114 44.4 L 32.2 47.0 L 31.9 51.2 L 31.3 55.2 L 30.3 59.0 L 28.8 62.5 L 26.9 65.8 L 24.5 68.8 L 21.7 71.4 L 17.2 72.1 Z M 84.0 77.4 L 84.0 81.4 L 32.0 81.4 L 32.0 77.4 L 62.0 77.4 L 72.0 67.4 Z M 168.0 77.4 L 168.0 81.4 L 116.0 81.4 L 116.0 77.4 L 149.8181818008423 77.4 L 158.0 68.4 Z M 84.0 59.8 L 84.0 63.8 L 37.0 63.8 L 37.0 59.8 L 65.81818180084228 59.8 L 74.0 50.8 Z M 161.0 59.8 L 161.0 63.8 L 116.0 63.8 L 116.0 59.8 L 142.8181818008423 59.8 L 151.0 50.8 Z " />
</g>
</svg>
