<svg xmlns="http://www.w3.org/2000/svg" xmlns:xlink="http://www.w3.org/1999/xlink" version="1.1" baseProfile="full" viewBox="0 0 200 200" width="200" height="200">
<g fill="black">
<path d="M 41.3 95.0 L 97.9 95.0 L 97.9 81.7 L 109.9 83.7 L 112.9 85.7 L 109.9 87.5 L 109.9 95.0 L 169.9777777671814 95.0 L 176.2 88.0 L 184.2 95.0 L 184.2 99.0 L 41.3 99.0 L 41.3 135.6 L 40.7 142.9 L 39.6 149.8 L 37.9 156.3 L 35.7 162.3 L 33.0 167.9 L 29.7 173.1 L 25.9 177.8 L 21.5 181.9 L 16.6 185.3 L 11.3 188.1 L 10.3 186.7 L 14.2 182.4 L 17.7 178.1 L 20.7 173.7 L 23.2 169.1 L 25.3 164.3 L 27.0 159.2 L 28.2 153.8 L 29.0 148.1 L 29.3 142.1 L 29.3 89.0 Z M 149.1 102.3 L 151.3 104.3 L 149.1 105.87142858505248 L 149.1 116.3 L 161.6 116.3 L 171.6 106.3 L 183.6 116.3 L 183.6 120.3 L 149.1 120.3 L 149.1 183.5 L 140.1 188.0 L 140.1 120.3 L 116.9 120.3 L 116.9 116.3 L 140.1 116.3 L 140.1 100.3 Z M 85.3 102.3 L 87.8 104.3 L 85.3 105.96666669845581 L 85.3 116.3 L 90.9 116.3 L 100.9 106.3 L 112.9 116.3 L 112.9 120.3 L 85.3 120.3 L 85.3 182.8 L 75.3 187.8 L 75.3 120.3 L 46.2 120.3 L 46.2 116.3 L 75.3 116.3 L 75.3 100.3 Z M 67.1 129.3 L 69.9 131.3 L 67.1 133.05 L 67.1 146.3 L 66.6 151.1 L 65.7 155.7 L 64.5 160.1 L 62.8 164.1 L 60.8 167.8 L 58.5 171.2 L 55.8 174.2 L 52.7 176.8 L 49.3 179.0 L 45.8 180.9 L 44.9 179.6 L 47.5 176.9 L 49.7 173.9 L 51.5 170.9 L 53.1 167.9 L 54.3 164.7 L 55.2 161.4 L 55.8 157.9 L 56.2 154.2 L 56.3 150.4 L 56.1 146.3 L 56.1 127.3 Z M 131.7 129.8 L 134.2 131.8 L 131.7 133.4666666984558 L 131.7 146.8 L 131.2 151.6 L 130.3 156.2 L 129.0 160.5 L 127.2 164.5 L 125.1 168.1 L 122.6 171.4 L 119.7 174.2 L 116.5 176.7 L 112.9 178.7 L 109.2 180.4 L 108.4 179.1 L 111.5 176.6 L 114.0 173.8 L 116.1 171.0 L 117.9 168.0 L 119.3 164.9 L 120.4 161.7 L 121.2 158.3 L 121.7 154.7 L 121.8 150.9 L 121.7 146.8 L 121.7 127.8 Z M 181.2 142.8 L 183.2 142.8 L 181.2 167.8 L 184.8 170.2 L 187.2 173.8 L 184.8 177.4 L 181.2 179.8 L 173.3 179.8 L 170.7 179.6 L 168.3 179.1 L 165.9 178.2 L 163.7 177.0 L 161.7 175.3 L 160.1 173.3 L 159.0 171.1 L 158.3 168.7 L 157.9 166.3 L 157.8 163.8 L 157.8 127.3 L 168.8 129.3 L 171.5 131.3 L 168.8 133.02340421676635 L 168.8 163.8 L 168.9 165.1 L 169.1 166.0 L 169.6 167.0 L 169.9 167.2 L 170.5 167.5 L 171.1 167.6 L 172.0 167.8 L 175.2 167.8 Z M 106.2 130.8 L 108.9 132.8 L 106.2 134.52340421676635 L 106.2 165.0 L 95.2 170.5 L 95.2 128.8 Z M 13.3 63.9 L 12.8 59.4 L 15.6 55.8 L 17.5 55.0 L 19.2 53.9 L 20.9 52.5 L 22.5 50.8 L 24.0 48.7 L 25.4 46.1 L 26.7 43.1 L 27.7 39.6 L 28.7 35.8 L 29.1 31.5 L 30.9 31.4 L 31.4 35.8 L 31.68571424484253 37.8 L 94.0 37.8 L 94.0 25.5 L 34.0 25.5 L 34.0 21.5 L 151.8181818008423 21.5 L 160.0 12.5 L 170.0 21.5 L 170.0 25.5 L 106.0 25.5 L 106.0 37.8 L 173.0 37.8 L 173.6300000190735 37.275 L 173.9 36.6 L 174.20469274520875 36.79608936309815 L 179.0 32.8 L 190.0 41.8 L 185.0 44.8 L 180.50588235855102 46.67254905700683 L 178.9 48.1 L 177.2 49.7 L 171.5 54.2 L 169.5 55.5 L 167.4 56.8 L 165.6 58.4 L 164.3 57.2 L 165.7 55.3 L 166.6 53.1 L 167.6 50.9 L 168.6 48.8 L 169.6 46.8 L 170.5 44.7 L 171.4 42.7 L 171.78571424484252 41.8 L 106.0 41.8 L 106.0 77.4 L 94.0 83.4 L 94.0 41.8 L 32.04499998092651 41.8 L 32.1 44.0 L 31.8 47.8 L 31.2 51.4 L 30.1 54.9 L 28.7 58.1 L 26.7 61.1 L 24.3 63.8 L 21.5 66.2 L 17.0 66.7 Z M 168.0 70.6 L 168.0 74.6 L 116.0 74.6 L 116.0 70.6 L 149.8181818008423 70.6 L 158.0 61.6 Z M 84.0 70.6 L 84.0 74.6 L 32.0 74.6 L 32.0 70.6 L 65.81818180084228 70.6 L 74.0 61.6 Z M 84.0 55.0 L 84.0 59.0 L 37.0 59.0 L 37.0 55.0 L 65.81818180084228 55.0 L 74.0 46.0 Z M 161.0 55.0 L 161.0 59.0 L 116.0 59.0 L 116.0 55.0 L 142.8181818008423 55.0 L 151.0 46.0 Z " />
</g>
</svg>
