<svg xmlns="http://www.w3.org/2000/svg" xmlns:xlink="http://www.w3.org/1999/xlink" version="1.1" baseProfile="full" viewBox="0 0 200 200" width="200" height="200">
<g fill="black">
<path d="M 137.9 176.0 L 157.9 176.0 L 159.1 175.9 L 160.0 175.7 L 160.6 175.5 L 161.0 175.4 L 161.2 175.2 L 161.3 175.0 L 161.5 174.7 L 161.7 174.1 L 161.8 173.2 L 161.9 172.0 L 161.9 73.0 L 142.2 73.0 L 142.2 69.0 L 161.9 69.0 L 161.9 16.0 L 173.9 18.0 L 176.9 20.0 L 173.9 21.8 L 173.9 69.0 L 178.0 69.0 L 182.5 63.0 L 188.5 69.0 L 188.5 73.0 L 173.9 73.0 L 173.9 172.0 L 173.8 174.5 L 173.3 177.0 L 172.5 179.4 L 171.3 181.7 L 169.6 183.7 L 167.6 185.3 L 165.4 186.6 L 162.9 187.4 L 160.5 187.8 L 157.9 188.0 L 157.9 182.0 L 137.9 179.0 Z M 66.0 166.1 L 65.5 164.0 L 64.87556753158569 162.28281078338622 L 60.7 164.4 L 54.1 167.7 L 48.0 170.5 L 42.5 173.1 L 37.6 175.3 L 33.2 177.4 L 29.5 179.2 L 26.3 180.7 L 25.534335803985595 181.11228065490724 L 24.6 185.2 L 21.7 183.2 L 15.4 172.7 L 17.3 172.0 L 19.6 171.4 L 22.5 170.7 L 25.9 169.8 L 29.62900228500366 168.79953594207763 L 29.8 168.1 L 30.6 163.7 L 31.5 159.5 L 32.4 155.5 L 33.2 151.7 L 34.0 148.0 L 34.6 144.6 L 35.2 141.4 L 35.587096786499025 139.0 L 14.2 139.0 L 14.2 135.0 L 59.3 135.0 L 69.3 125.0 L 81.3 135.0 L 81.3 139.0 L 47.51034479141235 139.0 L 46.6 141.4 L 45.3 144.4 L 43.9 147.5 L 42.4 150.8 L 40.7 154.2 L 39.0 157.8 L 37.0 161.5 L 35.0 165.3 L 33.50414199829102 167.7307692527771 L 34.7 167.4 L 39.9 165.9 L 45.8 164.3 L 52.2 162.6 L 59.4 160.9 L 64.04285717010498 159.8285714149475 L 63.9 159.4 L 62.9 157.0 L 60.5 151.8 L 59.1 148.9 L 57.2 146.3 L 58.6 145.1 L 61.0 147.3 L 63.6 149.3 L 65.9 151.3 L 68.1 153.3 L 70.2 155.4 L 73.8 159.6 L 76.8 164.0 L 78.0 166.2 L 77.7 170.7 L 74.3 173.8 L 69.7 173.4 L 66.7 170.0 L 66.4 168.1 Z M 82.1 167.9 L 87.5 166.5 L 93.1 164.9 L 98.9 163.3 L 104.6 161.71147537231445 L 104.6 133.0 L 87.4 133.0 L 87.4 129.0 L 104.6 129.0 L 104.6 103.0 L 82.5 103.0 L 82.5 99.0 L 114.46315793991089 99.0 L 115.1 96.8 L 115.9 93.1 L 116.9 89.4 L 117.8 85.9 L 119.8 79.3 L 120.8 76.1 L 121.7 73.1 L 122.7 70.1 L 123.29880475997925 68.23705177307129 L 123.2 68.2 L 123.5406593322754 67.48461542129516 L 123.6 67.3 L 123.62332611083984 67.31101512908936 L 124.2 66.1 L 134.4 72.4 L 136.3 75.5 L 132.16770534515382 75.9274787902832 L 131.2 77.5 L 129.5 80.2 L 127.7 82.9 L 125.9 85.8 L 124.0 88.7 L 122.0 91.7 L 119.9 94.8 L 117.7 98.0 L 117.06363639831542 99.0 L 123.51818180084229 99.0 L 131.7 90.0 L 141.7 99.0 L 141.7 103.0 L 116.6 103.0 L 116.6 129.0 L 121.9777777671814 129.0 L 128.2 122.0 L 136.2 129.0 L 136.2 133.0 L 116.6 133.0 L 116.6 158.40461540222168 L 117.7 158.1 L 124.5 156.3 L 131.4 154.4 L 138.7 152.7 L 146.2 151.1 L 146.8 152.8 L 140.0 156.3 L 133.2 159.5 L 126.6 162.5 L 120.2 165.2 L 114.0 167.9 L 108.0 170.4 L 102.2 172.8 L 96.6 175.1 L 91.2 177.2 L 89.83192224502564 177.7524929046631 L 88.8 181.5 L 86.0 179.3 L 80.2 168.6 Z M 149.0 116.2 L 149.0 113.0 L 148.7 109.8 L 148.2 106.7 L 147.6 103.6 L 146.7 100.5 L 145.7 97.4 L 144.5 94.3 L 142.9 91.3 L 144.2 90.1 L 149.4 95.1 L 151.7 97.9 L 153.8 100.9 L 155.6 104.1 L 157.1 107.6 L 158.4 111.2 L 159.4 114.9 L 160.2 118.9 L 160.7 123.0 L 158.9 127.2 L 154.7 129.0 L 150.5 127.2 L 148.7 123.0 L 148.9 119.5 Z M 71.1 113.0 L 71.1 117.0 L 22.2 117.0 L 22.2 113.0 L 52.918181800842284 113.0 L 61.1 104.0 Z M 53.0 50.0 L 53.0 99.0 L 41.0 105.0 L 41.0 50.0 L 23.55172414779663 50.0 L 23.8 52.4 L 24.0 55.2 L 24.0 57.9 L 23.9 60.5 L 23.6 63.1 L 23.1 65.5 L 19.8 68.7 L 15.2 68.7 L 12.0 65.4 L 12.0 60.8 L 13.0 59.5 L 13.9 57.9 L 14.8 56.0 L 15.7 53.9 L 16.4 51.6 L 17.2 49.1 L 17.8 46.4 L 18.5 43.5 L 19.1 40.3 L 19.2 37.0 L 21.0 36.9 L 21.5 40.2 L 22.4 43.4 L 22.987096786499023 46.0 L 41.0 46.0 L 41.0 27.0 L 20.0 27.0 L 20.0 23.0 L 53.5 23.0 L 63.5 13.0 L 75.5 23.0 L 75.5 27.0 L 53.0 27.0 L 53.0 46.0 L 69.5 46.0 L 75.5 41.0 L 86.5 50.0 L 81.5 53.0 L 78.19759998321533 54.376000022888185 L 77.3 55.6 L 76.2 57.0 L 75.1 58.3 L 73.9 59.6 L 71.3 62.0 L 70.4 63.4 L 68.9 62.5 L 69.5 61.1 L 69.5 50.0 Z M 97.1 88.7 L 96.8 86.4 L 96.3 84.0 L 95.1 79.0 L 94.3 76.4 L 93.3 73.7 L 92.4 70.9 L 90.9 68.3 L 92.4 67.2 L 94.4 69.5 L 96.7 71.5 L 98.8 73.7 L 100.7 76.0 L 102.5 78.3 L 104.1 80.7 L 105.6 83.1 L 106.9 85.6 L 108.1 88.2 L 109.1 90.8 L 108.2 95.3 L 104.4 97.9 L 100.0 97.0 L 97.4 93.2 L 97.3 91.0 Z M 37.5 90.0 L 37.5 94.0 L 15.6 94.0 L 15.6 90.0 L 27.0 90.0 L 31.5 84.0 Z M 78.4 90.0 L 78.4 94.0 L 56.5 94.0 L 56.5 90.0 L 67.9 90.0 L 72.4 84.0 Z M 78.4 70.0 L 78.4 74.0 L 56.5 74.0 L 56.5 70.0 L 67.9 70.0 L 72.4 64.0 Z M 37.5 70.0 L 37.5 74.0 L 17.8 74.0 L 17.8 70.0 L 27.0 70.0 L 31.5 64.0 Z M 82.5 62.0 L 98.8 62.0 L 98.8 51.85 L 98.4 54.1 L 94.8 56.9 L 90.3 56.1 L 87.5 52.4 L 87.3 49.5 L 86.9 46.7 L 86.5 44.0 L 86.1 41.4 L 85.1 36.4 L 84.5 34.0 L 83.9 31.7 L 83.4 29.3 L 82.4 27.3 L 83.8 26.2 L 85.4 28.0 L 87.4 29.7 L 89.1 31.6 L 90.8 33.7 L 92.4 36.0 L 94.0 38.4 L 95.4 41.0 L 96.8 43.7 L 98.0 46.6 L 98.8 48.6 L 98.8 17.0 L 108.8 19.0 L 111.3 21.0 L 108.8 22.66666669845581 L 108.8 62.0 L 114.1 62.0 L 114.1 17.0 L 124.1 19.0 L 126.6 21.0 L 124.1 22.66666669845581 L 124.1 62.0 L 127.4777777671814 62.0 L 133.7 55.0 L 141.7 62.0 L 141.7 66.0 L 82.5 66.0 Z M 143.8 30.1 L 145.8 33.1 L 141.49061660766603 33.78042898178101 L 141.0 34.5 L 139.6 36.9 L 138.0 39.3 L 134.6 44.3 L 132.7 47.0 L 130.7 49.6 L 128.5 52.4 L 126.6 55.3 L 125.0 54.6 L 126.2 51.2 L 127.0 47.8 L 127.8 44.6 L 129.4 38.6 L 130.2 35.8 L 130.9 33.1 L 131.5 30.5 L 132.1 28.0 L 132.4622983932495 26.55080642700195 L 132.3 26.5 L 133.2 24.3 Z " />
</g>
</svg>
