<svg xmlns="http://www.w3.org/2000/svg" xmlns:xlink="http://www.w3.org/1999/xlink" version="1.1" baseProfile="full" viewBox="0 0 200 200" width="200" height="200">
<g fill="black">
<path d="M 154.2 186.7 L 144.1 185.1 L 135.2 182.8 L 127.4 179.8 L 120.8 175.9 L 115.5 171.1 L 111.6 165.7 L 110.90228528976441 163.84953927993774 L 108.7 168.0 L 105.7 172.7 L 102.3 177.2 L 98.5 181.3 L 94.2 185.2 L 89.5 188.6 L 88.2 187.3 L 91.4 182.6 L 94.3 178.0 L 96.9 173.5 L 99.1 168.9 L 101.0 164.4 L 102.6 159.7 L 103.9 155.0 L 104.8 150.3 L 105.3 145.4 L 105.53879528045654 141.49967670440674 L 105.5 141.5 L 105.7 138.3 L 117.5 141.4 L 120.4 143.6 L 116.87428569793701 145.3628571510315 L 116.6 147.1 L 115.2 152.6 L 113.5 158.0 L 113.39205017089844 158.25024728775026 L 116.5 162.3 L 120.4 165.8 L 125.2 168.8 L 130.9 171.1 L 131.6 171.29275360107422 L 131.6 130.0 L 94.1 130.0 L 94.1 126.0 L 171.4 126.0 L 177.4 121.0 L 188.4 130.0 L 183.4 133.0 L 178.9375 134.859375 L 177.7 136.2 L 174.8 139.1 L 173.1 140.5 L 171.7 142.4 L 170.2 141.5 L 171.3 139.5 L 171.6661087989807 137.88912134170533 L 171.4 138.0 L 171.4 130.0 L 143.6 130.0 L 143.6 151.0 L 158.87777776718139 151.0 L 165.1 144.0 L 173.1 151.0 L 173.1 155.0 L 143.6 155.0 L 143.6 173.85925922393798 L 145.9 174.2 L 155.1 174.9 L 165.5 174.9 L 177.0 174.4 L 188.3 173.8 L 177.7 187.5 L 165.4 187.5 Z M 74.2 166.4 L 73.5 164.3 L 72.60120429992676 162.00307760238647 L 67.0 164.5 L 59.4 167.7 L 52.3 170.6 L 46.0 173.1 L 40.2 175.4 L 35.2 177.5 L 30.8 179.3 L 27.0 180.8 L 25.532467555999755 181.4848484992981 L 24.5 185.5 L 21.6 183.3 L 15.9 172.6 L 17.8 171.9 L 20.4 171.4 L 23.7 170.6 L 27.7 169.7 L 31.671661567687988 168.75025482177733 L 31.9 168.0 L 33.0 163.5 L 34.2 159.3 L 35.2 155.3 L 36.3 151.5 L 37.2 147.9 L 38.0 144.4 L 38.7 141.2 L 39.19677419662476 139.0 L 13.7 139.0 L 13.7 135.0 L 69.0 135.0 L 79.0 125.0 L 91.0 135.0 L 91.0 139.0 L 51.265517234802246 139.0 L 50.1 141.6 L 48.7 144.6 L 47.1 147.7 L 45.5 151.0 L 43.7 154.4 L 41.7 158.0 L 39.6 161.6 L 37.3 165.4 L 35.7270676612854 167.75939846038818 L 37.6 167.3 L 43.7 165.9 L 50.4 164.3 L 57.8 162.6 L 65.9 160.8 L 71.513294506073 159.7277976989746 L 71.5 159.7 L 70.2 157.2 L 68.8 154.6 L 67.2 151.9 L 65.5 149.0 L 63.4 146.3 L 64.6 145.0 L 67.3 147.2 L 70.2 149.1 L 72.8 151.1 L 75.3 153.1 L 77.5 155.2 L 79.6 157.3 L 81.5 159.4 L 83.3 161.5 L 84.9 163.7 L 86.3 166.0 L 86.1 170.6 L 82.8 173.7 L 78.3 173.6 L 75.1 170.3 L 74.7 168.4 Z M 115.0 113.0 L 103.0 119.0 L 103.0 62.0 L 115.0 68.0 L 159.7 68.0 L 165.7 63.0 L 168.65129680633544 65.41469736099243 L 169.2 63.7 L 169.9 61.5 L 170.6 59.4 L 171.0 57.4 L 171.4 55.7 L 171.4 54.0 L 102.61290321350097 54.0 L 102.7 54.9 L 102.9 57.9 L 102.8 60.7 L 102.5 63.4 L 101.9 65.9 L 101.0 68.4 L 99.7 70.7 L 98.1 72.8 L 93.6 74.0 L 89.7 71.8 L 88.5 67.4 L 90.7 63.4 L 91.5 63.2 L 92.5 62.7 L 93.6 61.8 L 94.6 60.5 L 95.7 58.8 L 96.7 56.7 L 97.6 54.3 L 98.5 51.5 L 99.4 48.4 L 99.6 45.0 L 101.4 44.9 L 101.7 48.4 L 102.02941179275513 50.0 L 131.6 50.0 L 131.6 35.0 L 92.6 35.0 L 92.6 31.0 L 131.6 31.0 L 131.6 13.0 L 143.6 15.0 L 146.6 17.0 L 143.6 18.8 L 143.6 31.0 L 155.4 31.0 L 165.4 21.0 L 177.4 31.0 L 177.4 35.0 L 143.6 35.0 L 143.6 50.0 L 171.4 50.0 L 177.4 45.0 L 188.4 54.0 L 183.4 57.0 L 179.2991304397583 58.70869569778442 L 178.7 59.4 L 177.3 61.0 L 175.8 62.5 L 174.1 64.1 L 172.2 65.8 L 170.6438201904297 67.04494380950928 L 176.7 72.0 L 171.7 76.0 L 171.7 112.0 L 159.7 118.0 L 159.7 110.0 L 115.0 110.0 Z M 79.2 113.0 L 79.2 117.0 L 23.0 117.0 L 23.0 113.0 L 61.018181800842285 113.0 L 69.2 104.0 Z M 115.0 91.0 L 115.0 106.0 L 131.6 106.0 L 131.6 91.0 Z M 143.6 91.0 L 143.6 106.0 L 159.7 106.0 L 159.7 91.0 Z M 14.9 68.6 L 11.9 65.2 L 12.2 60.6 L 13.2 59.3 L 14.2 57.7 L 15.2 55.9 L 16.1 53.9 L 16.9 51.6 L 17.6 49.1 L 18.3 46.4 L 18.9 43.5 L 19.6 40.3 L 19.6 37.0 L 21.4 36.9 L 22.0 40.2 L 22.9 43.4 L 23.403225803375243 46.0 L 45.5 46.0 L 45.5 27.0 L 20.4 27.0 L 20.4 23.0 L 62.3 23.0 L 72.3 13.0 L 84.3 23.0 L 84.3 27.0 L 57.5 27.0 L 57.5 46.0 L 78.3 46.0 L 84.3 41.0 L 95.3 50.0 L 90.3 53.0 L 86.76000003814697 54.475 L 85.7 55.8 L 84.5 57.1 L 83.3 58.5 L 80.7 60.9 L 79.3 62.0 L 78.3 63.4 L 76.8 62.5 L 77.5 61.0 L 77.6 59.3 L 78.0 55.9 L 78.1 54.3 L 78.2 52.6 L 78.3 51.8 L 78.3 50.0 L 57.5 50.0 L 57.5 99.0 L 45.5 105.0 L 45.5 50.0 L 24.05172414779663 50.0 L 24.3 52.4 L 24.4 55.3 L 24.3 58.0 L 24.0 60.7 L 23.6 63.4 L 22.9 65.9 L 19.5 68.9 Z M 40.6 90.0 L 40.6 94.0 L 15.4 94.0 L 15.4 90.0 L 26.377777767181396 90.0 L 32.6 83.0 Z M 87.6 90.0 L 87.6 94.0 L 62.4 94.0 L 62.4 90.0 L 73.3777777671814 90.0 L 79.6 83.0 Z M 115.0 72.0 L 115.0 87.0 L 131.6 87.0 L 131.6 72.0 Z M 143.6 72.0 L 143.6 87.0 L 159.7 87.0 L 159.7 72.0 Z M 87.6 70.0 L 87.6 74.0 L 62.4 74.0 L 62.4 70.0 L 73.3777777671814 70.0 L 79.6 63.0 Z M 40.6 70.0 L 40.6 74.0 L 17.9 74.0 L 17.9 70.0 L 26.377777767181396 70.0 L 32.6 63.0 Z " />
</g>
</svg>
