<svg xmlns="http://www.w3.org/2000/svg" xmlns:xlink="http://www.w3.org/1999/xlink" version="1.1" baseProfile="full" viewBox="0 0 200 200" width="200" height="200">
<g fill="black">
<path d="M 168.9 181.8 L 165.1 178.1 L 161.6 174.0 L 158.5 169.5 L 155.8 164.6 L 153.3 159.3 L 151.3 153.7 L 149.7 147.7 L 149.02273502349854 143.2977777481079 L 147.6 148.4 L 143.7 157.8 L 138.7 166.0 L 132.7 173.0 L 125.8 178.8 L 117.9 183.2 L 109.1 186.2 L 99.6 187.8 L 99.2 186.1 L 107.8 182.6 L 115.3 178.5 L 121.7 173.6 L 127.2 167.9 L 131.6 161.4 L 135.3 153.9 L 138.0 145.5 L 138.70744676589965 142.0 L 109.1 142.0 L 109.1 138.0 L 139.5159574508667 138.0 L 139.9 136.1 L 141.0 125.6 L 141.03965520858765 121.0 L 114.6 121.0 L 114.6 117.0 L 141.0741379737854 117.0 L 141.1 114.0 L 141.1 100.0 L 126.8 100.0 L 126.8 103.0 L 114.8 109.0 L 114.8 64.0 L 126.8 70.0 L 141.1 70.0 L 141.1 56.0 L 138.6 56.0 L 126.6 62.0 L 126.6 35.0 L 108.4 35.0 L 108.4 31.0 L 126.6 31.0 L 126.6 12.0 L 138.6 14.0 L 141.6 16.0 L 138.6 17.8 L 138.6 31.0 L 155.7 31.0 L 155.7 12.0 L 167.7 14.0 L 170.7 16.0 L 167.7 17.8 L 167.7 31.0 L 171.6777777671814 31.0 L 177.9 24.0 L 185.9 31.0 L 185.9 35.0 L 167.7 35.0 L 167.7 56.0 L 155.7 62.0 L 155.7 56.0 L 153.1 56.0 L 153.1 70.0 L 167.4 70.0 L 173.4 65.0 L 184.4 74.0 L 179.4 78.0 L 179.4 102.0 L 167.4 108.0 L 167.4 100.0 L 153.1 100.0 L 153.1 114.0 L 152.9079999923706 117.0 L 161.51818180084229 117.0 L 169.7 108.0 L 179.7 117.0 L 179.7 121.0 L 152.65200004577636 121.0 L 152.3 126.5 L 150.5 138.0 L 163.2 138.0 L 173.2 128.0 L 185.2 138.0 L 185.2 142.0 L 151.2 142.0 L 153.6 146.2 L 156.7 151.3 L 159.7 155.9 L 162.8 160.1 L 166.0 163.9 L 169.3 167.2 L 172.6 170.0 L 176.0 172.4 L 179.6 174.4 L 183.2 176.0 L 188.8 178.7 L 177.5 187.9 L 173.0 185.1 Z M 65.9 16.0 L 68.9 18.0 L 65.9 19.8 L 65.9 38.0 L 67.1 38.0 L 71.6 32.0 L 77.6 38.0 L 77.6 42.0 L 65.9 42.0 L 65.9 68.0 L 53.9 74.0 L 53.9 64.0 L 50.4 64.0 L 50.4 86.5 L 63.0 86.5 L 68.5 81.5 L 79.0 90.5 L 74.0 94.0 L 74.0 122.4 L 63.0 127.9 L 63.0 122.4 L 50.4 122.4 L 50.4 143.0 L 56.4 143.0 L 66.4 133.0 L 78.4 143.0 L 78.4 147.0 L 50.4 147.0 L 50.4 182.5 L 40.4 187.5 L 40.4 147.0 L 11.6 147.0 L 11.6 143.0 L 40.4 143.0 L 40.4 122.4 L 28.7 122.4 L 28.7 129.4 L 17.7 134.9 L 17.7 81.0 L 28.7 86.5 L 40.4 86.5 L 40.4 64.0 L 36.1 64.0 L 36.1 71.0 L 24.1 77.0 L 24.1 42.0 L 13.2 42.0 L 13.2 38.0 L 24.1 38.0 L 24.1 14.0 L 36.1 16.0 L 39.1 18.0 L 36.1 19.8 L 36.1 38.0 L 53.9 38.0 L 53.9 14.0 Z M 92.2 186.9 L 88.1 185.0 L 86.5 180.7 L 87.0 173.5 L 87.1 166.9 L 87.0 160.9 L 86.6 155.5 L 85.8 150.8 L 85.46125392913818 149.2191849708557 L 84.1 149.0 L 84.83057413101196 146.40240316390992 L 83.6 142.9 L 82.1 139.8 L 80.4 136.9 L 78.2 134.2 L 79.1 132.6 L 82.8 134.0 L 86.2 136.4 L 87.45304069519042 137.69346132278443 L 87.9 136.3 L 89.9 129.8 L 92.2 122.1 L 95.0 113.3 L 98.2 103.4 L 101.9 92.3 L 106.0 80.1 L 110.8 66.7 L 112.5 67.2 L 109.7 81.1 L 107.0 93.7 L 104.6 105.1 L 102.4 115.3 L 100.5 124.3 L 98.9 132.1 L 97.6 138.6 L 96.7 144.0 L 96.1 148.1 L 95.9 150.9 L 94.74208393096924 150.71355590820312 L 95.7 153.7 L 97.0 159.7 L 97.8 166.3 L 98.4 173.5 L 98.5 181.2 L 96.5 185.3 Z M 28.7 90.5 L 28.7 118.4 L 40.4 118.4 L 40.4 90.5 Z M 50.4 90.5 L 50.4 118.4 L 63.0 118.4 L 63.0 90.5 Z M 126.8 74.0 L 126.8 96.0 L 141.1 96.0 L 141.1 74.0 Z M 153.1 74.0 L 153.1 96.0 L 167.4 96.0 L 167.4 74.0 Z M 86.9 82.2 L 86.4 80.3 L 84.8 76.5 L 83.7 74.6 L 82.4 72.7 L 81.0 70.8 L 79.4 68.8 L 77.3 67.2 L 78.1 65.6 L 80.6 66.8 L 83.2 67.7 L 85.7 68.8 L 88.1 70.1 L 90.3 71.7 L 92.3 73.4 L 94.2 75.3 L 96.0 77.5 L 97.6 79.7 L 99.0 82.2 L 98.6 86.7 L 95.2 89.8 L 90.6 89.4 L 87.6 86.0 L 87.3 84.1 Z M 36.1 42.0 L 36.1 60.0 L 53.9 60.0 L 53.9 42.0 Z M 138.6 35.0 L 138.6 52.0 L 155.7 52.0 L 155.7 35.0 Z M 95.2 36.3 L 94.6 34.3 L 93.9 32.4 L 93.0 30.5 L 92.0 28.6 L 90.9 26.7 L 89.5 24.7 L 88.1 22.8 L 86.2 21.2 L 87.1 19.7 L 89.4 20.8 L 91.9 21.7 L 94.2 22.9 L 96.5 24.2 L 98.6 25.8 L 100.6 27.5 L 102.5 29.4 L 104.2 31.4 L 105.8 33.7 L 107.3 36.1 L 107.1 40.6 L 103.7 43.8 L 99.2 43.5 L 96.0 40.2 L 95.7 38.2 Z " />
</g>
</svg>
