<svg xmlns="http://www.w3.org/2000/svg" xmlns:xlink="http://www.w3.org/1999/xlink" version="1.1" baseProfile="full" viewBox="0 0 200 200" width="200" height="200">
<g fill="black">
<path d="M 13.7 174.9 L 21.8 173.0 L 46.4 167.6 L 59.14131183624268 164.8368239402771 L 58.6 164.6 L 60.2 159.6 L 61.6 154.7 L 63.0 150.2 L 64.4 145.9 L 65.7 141.8 L 66.9 137.9 L 68.0 134.3 L 69.0 130.9 L 69.9 127.7 L 70.43096389770508 125.70888528823852 L 70.4 125.7 L 70.54285717010498 125.28928575515747 L 70.7 124.7 L 70.7 120.0 L 34.7 120.0 L 22.7 126.0 L 22.7 79.0 L 34.7 85.0 L 70.7 85.0 L 76.7 80.0 L 87.7 89.0 L 82.7 93.0 L 82.7 120.0 L 73.49634704589843 124.60182647705078 L 81.9 129.0 L 84.0 132.0 L 79.9695484161377 132.70709676742553 L 78.8 134.9 L 77.0 138.1 L 75.1 141.5 L 73.1 145.1 L 70.9 148.8 L 68.5 152.7 L 65.9 156.8 L 63.1 160.9 L 60.732747650146486 164.49169330596925 L 63.0 164.0 L 71.3 162.4 L 79.7 160.7 L 88.1 159.3 L 96.6 158.1 L 97.1 159.8 L 89.1 163.0 L 81.0 165.9 L 73.0 168.7 L 64.9 171.4 L 56.9 174.0 L 48.8 176.5 L 40.8 179.1 L 32.8 181.6 L 24.8 184.0 L 20.706976699829102 185.27906980514527 L 19.5 188.9 L 16.8 186.5 L 11.8 175.4 Z M 132.5 162.0 L 133.0 165.6 L 129.27333335876466 164.53523807525636 L 128.3 165.3 L 123.9 168.4 L 119.1 171.4 L 114.0 174.3 L 108.5 177.0 L 102.8 179.7 L 96.6 182.3 L 90.2 184.7 L 83.3 186.9 L 76.1 188.8 L 75.5 187.1 L 81.9 183.4 L 87.9 179.8 L 93.7 176.4 L 99.2 173.0 L 104.3 169.7 L 109.0 166.4 L 113.4 163.1 L 117.4 159.8 L 121.1 156.5 L 123.6112678527832 153.91025505065917 L 123.6 153.9 L 123.76666669845581 153.75 L 124.3 153.2 L 124.33547592163086 153.2380717277527 L 124.6 153.0 Z M 170.5 176.4 L 167.9 173.6 L 165.2 170.8 L 162.2 168.1 L 159.1 165.4 L 155.7 162.8 L 152.1 160.2 L 148.3 157.6 L 144.3 155.2 L 144.9 153.5 L 149.7 154.6 L 154.3 155.9 L 158.6 157.4 L 162.8 159.3 L 166.9 161.4 L 170.7 163.6 L 174.4 166.1 L 177.9 168.8 L 181.2 171.7 L 184.3 174.8 L 185.5 179.2 L 183.4 183.3 L 179.0 184.5 L 175.0 182.4 L 172.8 179.4 Z M 34.0 151.9 L 33.4 148.9 L 32.6 145.9 L 31.7 142.9 L 30.7 140.0 L 29.5 137.0 L 28.2 134.1 L 26.7 131.1 L 24.9 128.3 L 26.2 127.0 L 28.8 129.3 L 31.6 131.5 L 34.1 133.9 L 36.5 136.6 L 38.6 139.4 L 40.6 142.4 L 42.3 145.5 L 43.9 148.8 L 45.3 152.3 L 46.5 155.9 L 45.5 160.3 L 41.7 162.9 L 37.3 161.9 L 34.7 158.1 L 34.4 155.0 Z M 188.3 26.0 L 188.3 30.0 L 147.5666666984558 30.0 L 147.1 30.7 L 145.1 33.6 L 143.0 36.5 L 140.8 39.3 L 138.6 42.0 L 136.2 44.7 L 133.8 47.2 L 131.2 49.7 L 128.5 52.0 L 125.95454549789429 54.0 L 162.9 54.0 L 168.9 49.0 L 179.9 58.0 L 174.9 62.0 L 174.9 144.0 L 162.9 150.0 L 162.9 144.0 L 114.8 144.0 L 114.8 151.0 L 102.8 157.0 L 102.8 48.0 L 114.8 54.0 L 122.55172414779663 54.0 L 123.6 52.4 L 126.8 46.2 L 131.3 37.2 L 132.7 34.2 L 134.0 31.2 L 134.4800000190735 30.0 L 91.3 30.0 L 91.3 26.0 L 170.11818180084228 26.0 L 178.3 17.0 Z M 114.8 115.0 L 114.8 140.0 L 162.9 140.0 L 162.9 115.0 Z M 34.7 89.0 L 34.7 116.0 L 70.7 116.0 L 70.7 89.0 Z M 114.8 87.0 L 114.8 111.0 L 162.9 111.0 L 162.9 87.0 Z M 114.8 58.0 L 114.8 83.0 L 162.9 83.0 L 162.9 58.0 Z M 17.2 65.0 L 45.7 65.0 L 45.7 41.0 L 12.4 41.0 L 12.4 37.0 L 45.7 37.0 L 45.7 13.0 L 57.7 15.0 L 60.7 17.0 L 57.7 18.8 L 57.7 37.0 L 75.81818180084228 37.0 L 84.0 28.0 L 94.0 37.0 L 94.0 41.0 L 57.7 41.0 L 57.7 65.0 L 71.91818180084229 65.0 L 80.1 56.0 L 90.1 65.0 L 90.1 69.0 L 17.2 69.0 Z " />
</g>
</svg>
