<svg xmlns="http://www.w3.org/2000/svg" xmlns:xlink="http://www.w3.org/1999/xlink" version="1.1" baseProfile="full" viewBox="0 0 200 200" width="200" height="200">
<g fill="black">
<path d="M 33.2 25.0 L 49.2 25.0 L 55.2 20.0 L 66.2 29.0 L 61.2 33.0 L 61.2 71.78214282989502 L 63.1 70.9 L 65.7 69.3 L 66.8 70.6 L 64.7 72.9 L 62.7 75.4 L 61.2 77.125 L 61.2 104.15333337783814 L 62.8 103.3 L 65.6 101.3 L 66.9 102.6 L 64.6 105.3 L 62.6 108.1 L 61.2 109.81818180084228 L 61.2 141.0 L 61.3 142.2 L 61.4 143.1 L 61.6 143.7 L 61.8 144.0 L 61.9 144.2 L 62.1 144.4 L 62.5 144.5 L 63.1 144.7 L 64.0 144.9 L 65.2 145.0 L 69.6 145.0 L 75.6 120.0 L 77.6 120.0 L 75.6 145.0 L 79.2 147.4 L 81.6 151.0 L 79.2 154.6 L 75.6 157.0 L 65.2 157.0 L 62.6 156.8 L 60.1 156.4 L 57.7 155.6 L 55.5 154.3 L 53.5 152.7 L 51.8 150.7 L 50.6 148.4 L 49.8 146.0 L 49.3 143.5 L 49.2 141.0 L 49.2 122.0 L 48.07237358093262 122.93151750564576 L 47.7 127.4 L 44.5 125.7 L 37.0 116.2 L 38.7 115.2 L 41.2 114.3 L 43.6 113.3 L 48.8 110.9 L 49.2 110.68461542129516 L 49.2 88.04782609939575 L 48.79231300354004 88.3314344406128 L 48.1 92.8 L 45.1 91.0 L 38.1 80.9 L 40.0 80.1 L 42.3 79.4 L 44.8 78.6 L 47.2 77.7 L 49.2 76.9307692527771 L 49.2 29.0 L 33.2 29.0 L 33.2 106.0 L 32.7 115.8 L 31.8 125.2 L 30.4 134.3 L 28.7 142.9 L 26.6 151.2 L 24.1 159.0 L 21.1 166.4 L 17.6 173.3 L 13.7 179.6 L 9.2 185.4 L 7.7 184.5 L 10.3 177.9 L 12.7 171.1 L 14.9 164.1 L 16.8 156.8 L 18.3 149.2 L 19.6 141.3 L 20.5 133.0 L 21.1 124.3 L 21.3 115.3 L 21.2 106.0 L 21.2 19.0 Z M 144.2 184.6 L 132.1 183.5 L 122.1 181.6 L 113.9 178.8 L 107.3 175.2 L 102.1 170.8 L 98.3 165.7 L 95.6 160.1 L 94.81571426391602 157.442142868042 L 94.5285714149475 157.58571424484253 L 93.9 158.5 L 91.9 161.7 L 89.8 164.8 L 87.7 167.8 L 83.5 173.4 L 81.4 176.1 L 79.3 178.7 L 77.90618104934693 180.28388519287108 L 78.5 184.5 L 75.0 183.6 L 65.5 176.1 L 67.0 174.7 L 69.5 172.9 L 72.1 171.1 L 74.7 169.2 L 77.4 167.2 L 80.1 165.1 L 82.9 163.0 L 85.8 160.9 L 86.7 160.21724138259887 L 86.7 109.5 L 69.0 109.5 L 69.0 105.5 L 86.7 105.5 L 92.2 100.5 L 102.7 109.5 L 97.7 113.0 L 97.7 156.0 L 97.64029846191406 156.02985076904298 L 99.2 158.0 L 103.0 162.1 L 106.9 165.4 L 111.5 168.0 L 117.1 170.0 L 124.2 171.6 L 133.2 172.5 L 144.5 172.8 L 158.3 172.4 L 175.0 171.2 L 186.0 170.5 L 175.8 184.4 L 158.7 184.9 Z M 117.5 152.8 L 125.5 152.8 L 126.5 152.7 L 127.2 152.6 L 128.0 152.2 L 128.1 151.9 L 128.3 151.5 L 128.6 150.7 L 128.7 149.7 L 128.8 148.3 L 128.8 144.01621618270875 L 127.5 145.0 L 123.0 144.3 L 120.2 140.6 L 120.2 138.9 L 120.1 137.1 L 119.9 135.3 L 119.6 133.5 L 119.3 131.8 L 118.8 130.0 L 118.2 128.2 L 117.6 126.3 L 116.9 124.4 L 116.4 123.775 L 116.4 158.4 L 106.4 163.4 L 106.4 78.7 L 116.4 83.7 L 128.8 83.7 L 134.3 78.7 L 144.8 87.7 L 139.8 91.2 L 139.8 148.3 L 139.7 150.7 L 139.3 153.1 L 138.6 155.3 L 137.6 157.5 L 136.2 159.4 L 134.5 161.1 L 132.4 162.3 L 130.2 163.2 L 127.9 163.6 L 125.5 163.8 L 125.5 158.3 L 117.5 155.5 Z M 166.2 149.0 L 165.6 144.9 L 165.0 141.0 L 164.2 137.3 L 163.3 133.7 L 162.4 130.4 L 161.4 127.1 L 160.3 123.9 L 159.0 120.9 L 160.4 119.8 L 162.9 122.2 L 165.4 124.8 L 167.7 127.7 L 169.8 131.0 L 171.7 134.6 L 173.5 138.4 L 175.1 142.4 L 176.5 146.7 L 177.8 151.2 L 178.9 155.9 L 177.8 160.4 L 173.9 162.7 L 169.5 161.6 L 167.1 157.7 L 166.7 153.2 Z M 149.7 148.6 L 149.2 144.5 L 148.6 140.7 L 147.9 137.0 L 147.1 133.4 L 146.3 130.0 L 145.4 126.6 L 144.5 123.4 L 143.3 120.3 L 144.8 119.3 L 147.1 121.8 L 149.5 124.5 L 151.6 127.6 L 153.6 130.9 L 155.4 134.4 L 157.1 138.2 L 158.6 142.2 L 160.0 146.4 L 161.3 150.8 L 162.4 155.4 L 161.2 159.8 L 157.3 162.2 L 152.9 161.1 L 150.5 157.2 L 150.2 152.8 Z M 121.1 112.9 L 120.9 111.3 L 120.6 109.7 L 120.1 108.1 L 119.6 106.4 L 118.9 104.7 L 118.1 103.0 L 117.2 101.2 L 116.4 100.4 L 116.4 122.14166669845581 L 116.9 121.6 L 118.5 122.9 L 120.4 124.0 L 122.2 125.3 L 123.9 126.6 L 125.5 128.2 L 126.9 129.8 L 128.3 131.6 L 128.8 132.3307692527771 L 128.8 119.95833330154419 L 128.5 120.2 L 124.0 119.5 L 121.2 116.0 L 121.2 114.4 Z M 177.8 83.8 L 180.3 86.4 L 176.40461540222168 87.65208787918091 L 175.1 91.1 L 173.6 94.7 L 172.0 98.4 L 170.3 102.0 L 168.5 105.6 L 166.6 109.2 L 164.5 112.8 L 162.2 116.3 L 159.9 119.9 L 158.3 119.2 L 159.3 115.1 L 161.1 107.1 L 161.9 103.2 L 162.8 99.4 L 163.6 95.6 L 165.0 88.2 L 165.6 84.6 L 166.0343590736389 81.92145233154297 L 165.9 81.9 L 166.6 79.2 Z M 161.1 83.7 L 163.6 86.3 L 159.78181819915773 87.52727270126343 L 158.6 90.8 L 157.2 94.4 L 155.7 97.9 L 154.1 101.5 L 152.4 105.1 L 150.6 108.7 L 148.7 112.2 L 146.5 115.8 L 144.4 119.3 L 142.7 118.7 L 143.6 114.6 L 144.3 110.6 L 145.1 106.7 L 145.8 102.9 L 146.6 99.1 L 147.2 95.4 L 147.9 91.7 L 148.4 88.1 L 149.2699999809265 82.01000003814697 L 149.2 82.0 L 149.8 79.3 Z M 116.4 87.7 L 116.4 99.03636360168457 L 116.9 98.4 L 118.6 99.6 L 120.6 100.4 L 122.5 101.5 L 124.3 102.7 L 126.0 104.0 L 127.6 105.5 L 128.8 106.87142858505248 L 128.8 87.7 Z M 81.4 74.0 L 80.1 71.6 L 78.8 69.3 L 77.3 67.0 L 75.8 64.8 L 72.6 60.4 L 70.6 58.5 L 71.6 57.0 L 74.1 58.3 L 76.8 59.4 L 79.4 60.8 L 81.9 62.4 L 84.3 64.2 L 86.7 66.2 L 89.0 68.4 L 91.2 70.7 L 93.3 73.2 L 95.3 75.8 L 95.8 80.3 L 93.0 84.0 L 88.5 84.5 L 84.9 81.7 L 83.8 79.0 Z M 163.6 62.4 L 159.7 58.2 L 156.0 53.8 L 152.6 49.1 L 149.5 44.1 L 146.6 38.8 L 144.1 33.3 L 143.1642780303955 30.67106685638428 L 140.0 36.5 L 136.0 43.2 L 131.6 49.6 L 127.0 55.7 L 122.1 61.4 L 116.9 66.8 L 111.4 71.8 L 105.5 76.3 L 99.3 80.4 L 98.2 79.0 L 102.9 73.5 L 107.5 68.0 L 111.9 62.4 L 116.1 56.7 L 120.1 50.7 L 123.8 44.6 L 127.3 38.2 L 130.5 31.6 L 133.5 24.7 L 134.56478872299195 21.9 L 116.5 21.9 L 116.5 17.9 L 135.8 17.9 L 141.8 12.9 L 152.8 21.9 L 147.8 24.9 L 145.8546875 25.710546875 L 149.3 30.4 L 152.7 35.0 L 156.3 39.3 L 159.9 43.3 L 163.6 47.0 L 167.4 50.4 L 171.3 53.5 L 175.4 56.3 L 179.5 58.8 L 183.3 61.3 L 172.3 69.8 L 167.8 66.3 Z M 163.3 65.7 L 163.3 69.7 L 118.9 69.7 L 118.9 65.7 L 145.11818180084228 65.7 L 153.3 56.7 Z M 88.9 41.0 L 87.8 38.5 L 86.7 36.1 L 85.5 33.7 L 84.1 31.4 L 82.7 29.0 L 81.2 26.7 L 79.6 24.4 L 77.6 22.4 L 78.7 20.9 L 81.2 22.4 L 83.9 23.7 L 86.5 25.3 L 88.9 27.0 L 91.3 28.9 L 93.5 31.0 L 95.7 33.3 L 97.7 35.7 L 99.6 38.2 L 101.5 40.9 L 101.7 45.4 L 98.7 48.9 L 94.1 49.1 L 90.7 46.1 L 89.8 43.5 Z " />
</g>
</svg>
