<svg xmlns="http://www.w3.org/2000/svg" xmlns:xlink="http://www.w3.org/1999/xlink" version="1.1" baseProfile="full" viewBox="0 0 200 200" width="200" height="200">
<g fill="black">
<path d="M 149.3 180.2 L 139.7 177.2 L 130.6 173.9 L 122.1 170.1 L 114.0 165.9 L 106.6 161.2 L 99.7 156.1 L 93.5 150.5 L 88.71967210769654 145.1 L 67.0 145.1 L 67.0 167.9544303894043 L 72.8 167.0 L 80.5 165.9 L 87.9 164.8 L 95.1 163.9 L 102.0 163.2 L 108.8 162.8 L 109.1 164.5 L 102.8 166.9 L 96.2 169.1 L 89.3 171.2 L 82.1 173.3 L 74.6 175.3 L 66.8 177.4 L 58.8 179.5 L 50.5 181.6 L 42.0 183.8 L 37.15371904373169 185.01157026290895 L 35.8 188.5 L 33.2 186.0 L 28.7 174.7 L 30.7 174.2 L 39.6 172.6 L 48.3 171.1 L 55.0 169.98333330154418 L 55.0 107.6 L 67.0 113.6 L 128.0 113.6 L 134.0 108.6 L 145.0 117.6 L 140.0 121.6 L 140.0 145.1 L 128.0 151.1 L 128.0 145.1 L 92.5380952835083 145.1 L 96.1 147.3 L 103.0 151.2 L 110.2 155.0 L 117.7 158.4 L 122.8100658416748 160.3801505088806 L 122.6 159.9 L 126.6 157.3 L 130.5 154.6 L 134.3 152.2 L 138.1 149.9 L 141.7 147.6 L 145.3 145.4 L 148.7 143.3 L 152.0 141.2 L 155.2 139.2 L 157.4360198020935 137.75740661621094 L 157.4 137.7 L 157.45002202987672 137.74837293624878 L 158.3 137.2 L 159.70055131912233 139.92470903396605 L 166.5 146.5 L 166.7 149.8 L 162.92145748138427 148.25141696929933 L 160.3 149.3 L 156.7 150.7 L 153.0 152.1 L 149.2 153.5 L 145.2 154.9 L 141.1 156.3 L 136.9 157.7 L 132.5 159.1 L 128.0 160.3 L 124.74675216674805 161.13061647415162 L 125.7 161.5 L 134.1 164.2 L 142.8 166.6 L 152.1 168.7 L 161.8 170.4 L 171.9 171.8 L 181.8 173.3 L 170.0 184.9 L 159.4 182.7 Z M 67.0 130.4 L 67.0 141.1 L 128.0 141.1 L 128.0 130.4 Z M 67.0 117.6 L 67.0 126.4 L 128.0 126.4 L 128.0 117.6 Z M 159.8 112.0 L 150.4 109.0 L 141.5 105.6 L 132.9 102.0 L 124.8 98.1 L 117.1 93.8 L 116.75531911849976 93.5797872543335 L 126.0 101.9 L 126.0 105.9 L 72.0 105.9 L 72.0 101.9 L 107.81818180084228 101.9 L 115.88658151626586 93.02476034164428 L 109.9 89.2 L 103.3 84.2 L 100.59198055267333 81.75834312438965 L 94.1 86.7 L 86.7 91.6 L 78.5 96.3 L 69.5 100.9 L 59.7 105.4 L 49.1 109.7 L 37.7 113.9 L 25.4 117.8 L 12.2 121.4 L 11.7 119.7 L 24.1 114.2 L 35.7 108.9 L 46.5 103.7 L 56.4 98.6 L 65.5 93.5 L 73.8 88.3 L 81.1 83.2 L 87.6 78.2 L 93.2 73.1 L 97.9 68.1 L 97.91460552215577 68.11393394470215 L 98.2 67.8 L 106.6 76.4 L 107.4 79.9 L 103.65008068084717 79.04475526809692 L 103.07900629043579 79.55675296783447 L 105.5 80.7 L 112.8 84.1 L 120.4 87.3 L 128.2 90.4 L 136.4 93.3 L 144.8 96.0 L 153.6 98.4 L 162.8 100.6 L 172.3 102.5 L 182.2 104.2 L 191.5 106.0 L 179.7 117.2 L 169.6 114.7 Z M 58.3 62.8 L 57.2 61.7 L 55.7 60.5 L 53.7 59.2 L 51.4 57.9 L 48.7 56.6 L 45.7 55.3 L 42.3 53.8 L 42.0282657623291 53.73564186096191 L 38.4 55.8 L 32.1 58.7 L 25.2 61.3 L 17.9 63.3 L 17.2 61.7 L 23.6 57.8 L 29.5 54.0 L 34.9 50.2 L 39.8 46.4 L 44.1 42.4 L 47.9 38.4 L 51.1 34.3 L 53.8 30.2 L 56.0 26.0 L 56.03333330154419 25.9 L 17.6 25.9 L 17.6 21.9 L 90.3 21.9 L 100.3 11.9 L 112.3 21.9 L 112.3 25.9 L 68.94347829818726 25.9 L 68.8 26.2 L 66.0 31.4 L 62.7 36.2 L 61.258695697784425 37.9 L 89.6 37.9 L 95.6 32.9 L 106.6 41.9 L 101.6 44.9 L 99.50079574584962 45.77466840744019 L 97.9 49.4 L 93.3 56.4 L 87.5 62.8 L 80.7 68.5 L 72.8 73.5 L 63.8 77.9 L 53.9 81.7 L 42.9 84.9 L 30.8 87.4 L 17.7 89.2 L 17.4 87.5 L 29.9 83.7 L 41.3 79.8 L 51.5 75.6 L 60.5 71.1 L 68.3 66.3 L 74.9 61.2 L 80.3 55.8 L 84.6 50.2 L 87.7 44.3 L 88.55161294937133 41.9 L 57.64761905670166 41.9 L 54.4 45.0 L 49.6 48.9 L 45.85 51.4 L 46.5 51.4 L 50.0 51.5 L 53.2 51.8 L 56.2 52.2 L 58.9 52.7 L 61.5 53.4 L 63.8 54.2 L 66.0 55.3 L 68.1 56.7 L 69.5 61.1 L 67.5 65.2 L 63.1 66.6 L 59.0 64.5 L 58.9 63.8 Z M 140.2 72.5 L 160.2 72.5 L 161.5 72.4 L 162.4 72.3 L 163.0 72.1 L 163.3 71.9 L 163.5 71.8 L 163.8 71.2 L 164.0 70.6 L 164.2 69.7 L 164.2 14.7 L 176.2 16.7 L 179.2 18.7 L 176.2 20.5 L 176.2 68.5 L 176.1 71.1 L 175.7 73.6 L 174.9 76.0 L 173.6 78.2 L 172.0 80.2 L 170.0 81.9 L 167.7 83.1 L 165.3 83.9 L 162.8 84.4 L 160.2 84.5 L 160.2 78.5 L 140.2 75.5 Z M 135.4 22.3 L 138.4 24.3 L 135.4 26.1 L 135.4 64.2 L 123.4 70.2 L 123.4 20.3 Z " />
</g>
</svg>
