<svg xmlns="http://www.w3.org/2000/svg" xmlns:xlink="http://www.w3.org/1999/xlink" version="1.1" baseProfile="full" viewBox="0 0 200 200" width="200" height="200">
<g fill="black">
<path d="M 150.8 177.15 L 145.1 180.0 L 145.1 144.5 L 132.4 144.5 L 132.4 177.2 L 121.4 182.7 L 121.4 144.5 L 108.7 144.5 L 108.7 183.3 L 96.7 189.3 L 96.7 97.5 L 108.7 103.5 L 168.8 103.5 L 174.8 98.5 L 185.8 107.5 L 180.8 111.5 L 180.8 172.6 L 180.7 175.1 L 180.3 177.6 L 179.5 180.0 L 178.2 182.3 L 176.6 184.3 L 174.6 186.0 L 172.3 187.2 L 169.9 188.0 L 167.4 188.4 L 164.8 188.6 L 164.8 182.6 L 150.8 179.6 Z M 75.9 50.1 L 74.0 47.1 L 71.9 44.1 L 69.4 41.1 L 66.7 38.2 L 63.8 35.2 L 60.5 32.2 L 57.0 29.2 L 56.22946882247925 28.59168586730957 L 53.0 34.6 L 48.5 42.3 L 43.9 49.6 L 39.2 56.7 L 34.2 63.4 L 29.1 69.8 L 27.629479789733885 71.46473989486694 L 38.7 77.0 L 69.5 77.0 L 75.5 72.0 L 86.5 81.0 L 81.5 85.0 L 81.5 127.0 L 69.5 133.0 L 69.5 125.0 L 38.7 125.0 L 38.7 145.0 L 69.11818180084228 145.0 L 77.3 136.0 L 87.3 145.0 L 87.3 149.0 L 38.7 149.0 L 38.7 168.0 L 66.2 168.0 L 76.2 158.0 L 88.2 168.0 L 88.2 172.0 L 38.7 172.0 L 38.7 183.0 L 26.7 189.0 L 26.7 72.51698112487793 L 23.8 75.8 L 18.3 81.4 L 12.4 86.6 L 11.1 85.3 L 15.4 79.0 L 19.6 72.5 L 23.8 65.9 L 27.9 59.2 L 32.0 52.2 L 35.9 44.9 L 39.7 37.4 L 43.4 29.7 L 47.0 21.7 L 50.11782169342041 14.306308555603028 L 50.1 14.3 L 51.0 12.2 L 61.4 18.3 L 63.4 21.3 L 59.66348638534546 21.815381145477296 L 57.60579862594604 25.98094415664673 L 58.7 26.4 L 63.1 28.2 L 67.3 30.3 L 71.2 32.7 L 74.9 35.2 L 78.3 37.9 L 81.5 40.8 L 84.4 43.8 L 87.0 47.1 L 89.4 50.5 L 89.8 55.1 L 86.9 58.6 L 82.3 59.0 L 78.8 56.1 L 77.4 53.1 Z M 108.7 107.5 L 108.7 140.5 L 121.4 140.5 L 121.4 107.5 Z M 132.4 107.5 L 132.4 140.5 L 145.1 140.5 L 145.1 107.5 Z M 156.1 107.5 L 156.1 140.5 L 168.8 140.5 L 168.8 107.5 Z M 38.7 102.0 L 38.7 121.0 L 69.5 121.0 L 69.5 102.0 Z M 38.7 81.0 L 38.7 98.0 L 69.5 98.0 L 69.5 81.0 Z M 163.2 81.0 L 163.2 85.0 L 110.7 85.0 L 110.7 81.0 L 141.2 81.0 L 151.2 71.0 Z M 167.0 75.8 L 162.2 70.5 L 157.6 64.8 L 153.2 58.7 L 149.1 52.0 L 145.2 44.9 L 141.6 37.3 L 138.6635383605957 30.092321491241456 L 134.6 38.4 L 129.8 47.0 L 124.8 55.1 L 119.4 62.6 L 113.7 69.6 L 107.8 75.9 L 101.5 81.6 L 94.9 86.7 L 88.0 90.9 L 86.9 89.5 L 92.4 83.8 L 97.7 77.8 L 102.9 71.6 L 107.8 64.9 L 112.4 57.8 L 116.8 50.2 L 121.0 42.2 L 125.0 33.7 L 128.7 24.8 L 132.1 15.3 L 132.165634059906 15.324975776672364 L 132.7 13.9 L 143.4 19.6 L 145.5 22.5 L 141.8165822982788 23.135072040557862 L 140.78442430496216 25.439424896240233 L 142.0 27.3 L 146.8 34.5 L 151.4 41.2 L 156.0 47.4 L 160.7 53.1 L 165.4 58.2 L 170.2 62.9 L 174.9 67.0 L 179.8 70.7 L 184.6 73.8 L 188.3 76.3 L 177.2 84.8 L 172.0 80.5 Z M 76.4 59.0 L 76.4 63.0 L 38.2 63.0 L 38.2 59.0 L 58.21818180084229 59.0 L 66.4 50.0 Z M 156.1 144.5 L 156.1 174.5 L 151.9 176.6 L 164.8 176.6 L 166.1 176.5 L 167.0 176.4 L 167.6 176.2 L 167.9 176.0 L 168.1 175.8 L 168.2 175.6 L 168.4 175.3 L 168.6 174.7 L 168.8 173.8 L 168.8 144.5 Z " />
</g>
</svg>
