<svg xmlns="http://www.w3.org/2000/svg" xmlns:xlink="http://www.w3.org/1999/xlink" version="1.1" baseProfile="full" viewBox="0 0 200 200" width="200" height="200">
<g fill="black">
<path d="M 129.8 183.1 L 108.8 181.3 L 90.4 178.3 L 74.5 174.2 L 61.0 168.9 L 50.2 162.4 L 42.2 154.6 L 37.1 145.7 L 36.865210151672365 144.51369333267212 L 35.3 150.7 L 32.7 158.5 L 29.7 165.6 L 26.2 172.2 L 22.2 178.1 L 17.6 183.2 L 12.6 187.6 L 11.3 186.3 L 14.6 180.9 L 17.6 175.2 L 20.3 169.2 L 22.7 162.8 L 24.6 155.9 L 26.3 148.5 L 27.5 140.7 L 28.4 132.3 L 28.8 123.3 L 28.9 113.8 L 28.930280113220213 113.80075702667236 L 29.0 111.5 L 40.9 114.1 L 43.9 116.1 L 40.62699136734009 117.96112260818481 L 40.2 124.0 L 39.0 133.5 L 38.146985912323 138.24489097595216 L 40.8 143.9 L 46.5 150.6 L 53.0 155.4333333015442 L 53.0 101.0 L 15.0 101.0 L 15.0 97.0 L 77.0 97.0 L 87.0 87.0 L 99.0 97.0 L 99.0 101.0 L 65.0 101.0 L 65.0 129.0 L 76.81818180084228 129.0 L 85.0 120.0 L 95.0 129.0 L 95.0 133.0 L 65.0 133.0 L 65.0 161.39047622680664 L 77.0 165.2 L 92.2 168.2 L 110.0 170.3 L 130.3 171.3 L 153.2 171.4 L 178.7 170.4 L 190.0 169.9 L 179.2 183.5 L 153.3 183.9 Z M 173.4 22.5 L 175.0 25.7 L 170.4935252189636 25.933093547821045 L 169.0 27.8 L 167.2 30.1 L 165.2 32.7 L 163.0 35.5 L 160.7 38.5 L 158.0 41.8 L 155.1 45.3 L 154.0948718070984 46.7 L 166.0 46.7 L 176.0 36.7 L 188.0 46.7 L 188.0 50.7 L 147.4285714149475 50.7 L 146.8 51.5 L 143.6 55.5 L 141.8 57.6 L 140.0 59.8 L 138.1 62.0 L 136.0 64.3 L 133.8 66.6 L 131.5 69.0 L 129.0 71.4 L 128.9115385055542 71.5 L 166.5 71.5 L 172.5 66.5 L 183.5 75.5 L 178.5 79.5 L 178.5 157.3 L 166.5 163.3 L 166.5 153.3 L 116.5 153.3 L 116.5 160.3 L 104.5 166.3 L 104.5 65.5 L 116.5 71.5 L 125.97419357299805 71.5 L 126.8 69.9 L 128.1 66.7 L 129.3 63.7 L 130.5 60.8 L 131.7 58.0 L 133.7 52.8 L 134.4875 50.7 L 95.0 50.7 L 95.0 46.7 L 151.39767446517945 46.7 L 152.7 43.9 L 154.3 39.6 L 155.8 35.7 L 157.2 32.1 L 158.5 28.8 L 159.7 25.8 L 160.7 23.1 L 161.6 20.7 L 162.3 18.6 L 162.5231903076172 17.79651470184326 L 162.3 17.7 L 162.78058252334594 16.869902896881104 L 162.8 16.8 L 162.8160545349121 16.80863313674927 L 163.4 15.8 Z M 116.5 125.9 L 116.5 149.3 L 166.5 149.3 L 166.5 125.9 Z M 116.5 99.4 L 116.5 121.9 L 166.5 121.9 L 166.5 99.4 Z M 116.5 75.5 L 116.5 95.4 L 166.5 95.4 L 166.5 75.5 Z M 36.5 23.5 L 77.4 23.5 L 83.4 18.5 L 94.4 27.5 L 89.4 31.5 L 89.4 80.4 L 77.4 86.4 L 77.4 76.4 L 36.5 76.4 L 36.5 83.4 L 24.5 89.4 L 24.5 17.5 Z M 36.5 51.2 L 36.5 72.4 L 77.4 72.4 L 77.4 51.2 Z M 36.5 27.5 L 36.5 47.2 L 77.4 47.2 L 77.4 27.5 Z M 119.9 36.6 L 119.6 34.6 L 119.0 32.5 L 118.2 30.3 L 117.3 28.0 L 116.1 25.7 L 114.8 23.3 L 113.4 20.7 L 111.4 18.4 L 112.6 17.1 L 115.1 19.0 L 117.7 20.6 L 120.1 22.4 L 122.4 24.2 L 124.4 26.2 L 126.3 28.3 L 128.0 30.5 L 129.5 32.7 L 130.8 35.1 L 131.9 37.6 L 131.1 42.1 L 127.4 44.8 L 122.9 44.0 L 120.2 40.3 L 120.2 38.5 Z " />
</g>
</svg>
