<svg xmlns="http://www.w3.org/2000/svg" xmlns:xlink="http://www.w3.org/1999/xlink" version="1.1" baseProfile="full" viewBox="0 0 200 200" width="200" height="200">
<g fill="black">
<path d="M 165.9 172.9 L 161.1 167.3 L 157.78940477371216 162.73873538970946 L 152.4 169.1 L 145.6 175.5 L 138.2 181.0 L 130.2 185.4 L 121.7 188.8 L 120.9 187.1 L 128.3 182.1 L 135.0 176.7 L 141.1 170.7 L 146.6 164.2 L 151.5 157.0 L 152.8354256629944 154.63265438079833 L 152.7 154.4 L 149.2 147.2 L 146.1 139.5 L 143.5 131.2 L 141.5 122.5 L 140.32446804046631 114.0 L 137.0 114.0 L 132.0 117.0 L 130.48786125183105 117.63005781173706 L 128.8 123.2 L 125.4 132.5 L 121.4 141.4 L 119.51875734329224 144.8353126525879 L 122.5 148.3 L 125.7 152.8 L 128.4 157.4 L 130.5 162.1 L 132.1 166.9 L 131.1 171.3 L 127.3 173.9 L 122.9 172.9 L 120.3 169.2 L 119.7 165.5 L 118.6 161.7 L 117.0 157.7 L 114.8 153.6 L 114.60209321975708 153.2726926803589 L 111.8 157.7 L 106.3 165.1 L 100.2 171.9 L 93.7 178.2 L 86.6 183.8 L 78.9 188.7 L 77.8 187.2 L 84.1 180.9 L 89.9 174.4 L 95.2 167.6 L 100.2 160.6 L 104.6 153.2 L 108.6 145.4 L 108.91330795288086 144.69505701065063 L 105.2 140.2 L 101.0 135.5 L 96.3 130.5 L 91.1 125.3 L 92.2 123.8 L 98.7 127.5 L 104.6 131.4 L 109.8 135.5 L 112.10399999618531 137.5159999847412 L 112.2 137.3 L 115.3 128.8 L 117.9 119.9 L 119.295698928833 114.0 L 89.3 114.0 L 89.3 110.0 L 120.0 110.0 L 126.0 105.0 L 136.1 113.26363639831543 L 136.1 110.0 L 167.6 110.0 L 173.6 105.0 L 184.6 114.0 L 179.6 117.0 L 178.29934206008912 117.54194078445434 L 176.6 124.4 L 173.0 135.0 L 168.9 144.8 L 164.0 153.7 L 163.9462677001953 153.78010988235474 L 164.9 155.0 L 169.4 160.0 L 174.1 164.4 L 179.0 168.2 L 184.1 171.4 L 188.1 173.9 L 177.0 182.5 L 171.2 178.0 Z M 71.0 181.1 L 69.3 182.9 L 67.5 184.5 L 65.5 185.9 L 63.3 187.0 L 61.1 187.9 L 58.7 188.5 L 56.2 188.8 L 53.7 189.0 L 53.7 183.0 L 37.7 180.0 L 37.7 177.0 L 53.7 177.0 L 55.1 176.9 L 56.4 176.7 L 57.5 176.4 L 58.5 176.1 L 59.3 175.6 L 60.2 175.0 L 61.0 174.3 L 61.8 173.5 L 62.5 172.5 L 63.2 171.3 L 64.8 167.9 L 66.3 163.9 L 67.5 159.3 L 68.6 154.1 L 69.5 148.2 L 70.2 141.8 L 70.6 134.8 L 70.9 127.1 L 70.9 119.875 L 70.6 120.0 L 70.6 112.0 L 31.0 112.0 L 19.0 118.0 L 19.0 20.0 L 31.0 26.0 L 61.5 26.0 L 71.5 16.0 L 83.5 26.0 L 83.5 30.0 L 58.6 30.0 L 58.6 54.0 L 60.7 54.0 L 70.7 44.0 L 82.7 54.0 L 82.7 58.0 L 58.6 58.0 L 58.6 81.0 L 60.7 81.0 L 70.7 71.0 L 82.7 81.0 L 82.7 85.0 L 58.6 85.0 L 58.6 108.0 L 70.6 108.0 L 76.6 103.0 L 87.6 112.0 L 82.77133617401122 114.89719829559326 L 82.9 118.8 L 82.9 127.3 L 82.6 135.3 L 82.1 142.8 L 81.4 149.8 L 80.4 156.2 L 79.2 162.1 L 77.7 167.6 L 75.9 172.5 L 73.8 177.0 L 72.5 179.2 Z M 13.5 174.1 L 11.7 170.0 L 13.2 165.7 L 14.6 164.5 L 16.0 162.6 L 17.3 160.1 L 18.6 156.9 L 19.8 153.0 L 20.7 148.6 L 21.6 143.6 L 22.3 138.0 L 22.9 131.8 L 23.3 125.0 L 25.1 124.9 L 26.4 131.6 L 27.3 137.9 L 27.8 143.8 L 28.0 149.2 L 27.9 154.3 L 27.5 158.9 L 26.8 163.1 L 25.6 167.0 L 24.1 170.6 L 22.0 173.8 L 17.8 175.7 Z M 36.6 166.9 L 32.7 164.5 L 31.6 160.1 L 32.3 157.6 L 32.8 155.0 L 33.2 152.3 L 33.5 149.3 L 33.6 146.2 L 33.6 142.9 L 33.5 139.5 L 33.3 135.9 L 33.0 132.1 L 32.2 128.2 L 33.9 127.6 L 37.5 134.8 L 39.0 138.3 L 40.3 141.7 L 41.3 145.2 L 42.2 148.6 L 42.8 152.0 L 43.2 155.3 L 43.5 158.6 L 43.5 161.9 L 41.0 165.8 Z M 45.8 144.7 L 45.6 142.1 L 45.2 139.4 L 44.7 136.7 L 44.1 133.9 L 43.4 131.1 L 42.5 128.1 L 41.2 125.3 L 42.7 124.3 L 44.7 126.8 L 47.0 129.1 L 48.9 131.6 L 50.7 134.2 L 52.3 136.9 L 53.8 139.7 L 55.0 142.6 L 56.0 145.5 L 56.9 148.6 L 57.5 151.7 L 55.9 155.9 L 51.8 157.9 L 47.6 156.4 L 45.5 152.3 L 45.8 149.8 Z M 142.45058822631836 114.0 L 145.5 121.2 L 149.1 129.2 L 152.7 136.6 L 156.6 143.3 L 157.7445447921753 145.0740445137024 L 159.7 140.7 L 162.9 131.5 L 165.6 121.5 L 167.0719626426697 114.0 Z M 56.9 136.2 L 56.5 134.1 L 56.0 132.0 L 55.3 129.9 L 54.5 127.7 L 53.5 125.6 L 52.4 123.4 L 51.1 121.2 L 49.3 119.3 L 50.5 117.9 L 52.7 119.4 L 55.1 120.7 L 57.4 122.3 L 59.5 124.0 L 61.5 125.9 L 63.3 127.9 L 64.9 130.2 L 66.4 132.5 L 67.8 135.0 L 68.9 137.7 L 68.1 142.2 L 64.4 144.9 L 59.9 144.1 L 57.2 140.4 L 57.1 138.3 Z M 31.0 85.0 L 31.0 108.0 L 46.6 108.0 L 46.6 85.0 Z M 184.5 26.0 L 184.5 30.0 L 140.31481485366822 30.0 L 139.9 30.7 L 136.2 36.8 L 132.3 42.7 L 128.0 48.6 L 123.71724138259887 54.0 L 164.4 54.0 L 170.4 49.0 L 181.4 58.0 L 176.4 62.0 L 176.4 93.0 L 164.4 99.0 L 164.4 91.0 L 123.4 91.0 L 123.4 94.0 L 111.4 100.0 L 111.4 67.7 L 107.9 71.2 L 102.0 76.5 L 95.8 81.7 L 89.1 86.6 L 87.9 85.3 L 93.1 79.0 L 98.2 72.8 L 103.0 66.8 L 107.6 60.8 L 111.4 55.49767446517944 L 111.4 54.0 L 112.45593223571777 54.0 L 116.0 48.9 L 119.7 42.9 L 123.2 37.0 L 126.3 31.1 L 126.83225803375244 30.0 L 92.4 30.0 L 92.4 26.0 L 162.5 26.0 L 172.5 16.0 Z M 123.4 58.0 L 123.4 87.0 L 164.4 87.0 L 164.4 58.0 Z M 31.0 58.0 L 31.0 81.0 L 46.6 81.0 L 46.6 58.0 Z M 31.0 30.0 L 31.0 54.0 L 46.6 54.0 L 46.6 30.0 Z " />
</g>
</svg>
