<svg xmlns="http://www.w3.org/2000/svg" xmlns:xlink="http://www.w3.org/1999/xlink" version="1.1" baseProfile="full" viewBox="0 0 200 200" width="200" height="200">
<g fill="black">
<path d="M 165.4 174.2 L 160.2 167.8 L 155.5 161.0 L 151.3 153.6 L 147.4 145.7 L 144.0 137.4 L 141.1 128.5 L 138.7 119.1 L 137.52536964416504 112.25950574874878 L 134.8 116.9 L 130.6 123.1 L 125.9 129.0 L 121.3190839767456 134.11984729766846 L 126.6 135.0 L 129.6 137.0 L 126.6 138.8 L 126.6 167.8 L 132.7 166.5 L 138.9 165.3 L 145.2 164.1 L 151.8 163.1 L 152.3 164.8 L 146.4 167.7 L 140.5 170.4 L 134.6 172.8 L 128.8 175.1 L 123.1 177.2 L 117.5 179.2 L 112.0 181.2 L 101.2 184.8 L 100.00971870422363 185.18913040161132 L 98.7 188.9 L 96.0 186.5 L 91.1 175.4 L 93.0 174.9 L 98.3 173.8 L 103.7 172.7 L 114.6 170.36428575515748 L 114.6 140.71833333969116 L 109.3 145.4 L 102.8 150.4 L 95.9 155.2 L 88.5 159.6 L 83.1944444656372 162.3190972328186 L 81.6 167.8 L 79.6 172.8 L 77.3 177.3 L 76.0 179.4 L 74.4 181.3 L 72.8 183.1 L 70.9 184.7 L 68.9 186.0 L 66.7 187.1 L 64.4 187.9 L 62.0 188.5 L 59.6 188.8 L 57.1 189.0 L 57.1 183.0 L 41.1 180.0 L 41.1 177.0 L 57.1 177.0 L 58.5 176.9 L 59.8 176.7 L 60.9 176.4 L 61.9 176.1 L 62.9 175.6 L 63.7 175.0 L 64.6 174.3 L 65.4 173.5 L 66.2 172.5 L 66.9 171.3 L 68.6 167.9 L 70.2 163.9 L 71.6 159.3 L 72.7 154.1 L 73.7 148.2 L 74.4 141.8 L 74.9 134.8 L 75.1 127.1 L 75.18914165496827 119.87952432632446 L 74.9 120.0 L 74.9 112.0 L 31.7 112.0 L 19.7 118.0 L 19.7 20.0 L 31.7 26.0 L 66.3 26.0 L 76.3 16.0 L 88.3 26.0 L 88.3 30.0 L 61.2 30.0 L 61.2 54.0 L 65.4 54.0 L 75.4 44.0 L 87.4 54.0 L 87.4 58.0 L 61.2 58.0 L 61.2 81.0 L 65.4 81.0 L 75.4 71.0 L 87.4 81.0 L 87.4 85.0 L 61.2 85.0 L 61.2 108.0 L 74.9 108.0 L 80.9 103.0 L 91.9 112.0 L 87.07133617401124 114.89719829559326 L 87.2 118.8 L 87.1 127.3 L 86.9 135.4 L 86.4 142.9 L 85.6 149.8 L 84.5 156.3 L 84.04010372161865 158.422598361969 L 86.3 156.5 L 92.6 150.9 L 98.6 145.4 L 104.1 139.9 L 109.2 134.3 L 113.8 128.6 L 118.0 122.9 L 121.7 117.1 L 124.9 111.2 L 125.4625 110.0 L 113.1 110.0 L 113.1 117.0 L 101.1 123.0 L 101.1 73.0 L 113.1 79.0 L 159.6 79.0 L 165.6 74.0 L 176.6 83.0 L 171.6 87.0 L 171.6 114.0 L 159.6 120.0 L 159.6 110.0 L 139.35714282989503 110.0 L 142.7 117.8 L 146.6 126.4 L 150.6 134.4 L 154.8 141.9 L 158.36788902282714 147.3707631111145 L 160.0 145.1 L 162.3 142.2 L 164.5 139.2 L 166.7 136.4 L 168.7 133.7 L 170.5 130.9 L 172.3 128.3 L 174.97714128494263 123.94964542388917 L 174.9 123.9 L 175.9 122.5 L 185.0 130.4 L 186.2 133.8 L 182.07203731536865 133.30179758071898 L 180.3 135.0 L 177.7 137.3 L 175.0 139.6 L 172.2 141.9 L 169.3 144.1 L 166.2 146.3 L 163.0 148.4 L 160.20738077163696 150.04271717071532 L 163.9 155.1 L 168.8 160.8 L 173.9 166.0 L 179.2 170.6 L 184.8 174.6 L 187.9 176.9 L 176.9 185.3 L 170.9 180.0 Z M 13.5 174.1 L 11.8 169.8 L 13.5 165.6 L 14.9 164.4 L 16.4 162.5 L 17.8 160.0 L 19.1 156.8 L 20.3 153.0 L 21.4 148.6 L 22.2 143.6 L 22.9 138.0 L 23.5 131.8 L 24.0 125.0 L 25.8 124.9 L 27.0 131.6 L 28.0 137.9 L 28.5 143.8 L 28.7 149.3 L 28.5 154.3 L 28.0 159.0 L 27.2 163.3 L 25.9 167.2 L 24.2 170.8 L 22.0 174.1 L 17.7 175.8 Z M 38.1 166.9 L 34.3 164.5 L 33.1 160.0 L 33.8 157.6 L 34.4 155.0 L 34.8 152.3 L 35.1 149.3 L 35.2 146.2 L 35.2 143.0 L 35.0 139.5 L 34.7 135.9 L 34.3 132.1 L 33.5 128.2 L 35.2 127.6 L 37.0 131.2 L 38.9 134.7 L 40.4 138.2 L 41.8 141.7 L 42.9 145.1 L 43.7 148.6 L 44.4 152.0 L 44.8 155.3 L 45.0 158.6 L 45.0 162.0 L 42.5 165.8 Z M 48.3 147.3 L 48.2 144.8 L 48.0 142.2 L 47.6 139.5 L 47.0 136.8 L 46.3 134.0 L 45.5 131.1 L 44.5 128.1 L 43.0 125.3 L 44.5 124.2 L 46.7 126.7 L 49.0 129.0 L 51.1 131.5 L 53.0 134.1 L 54.6 136.8 L 56.1 139.6 L 57.4 142.5 L 58.5 145.5 L 59.4 148.5 L 60.1 151.6 L 58.5 155.9 L 54.4 157.9 L 50.1 156.4 L 48.1 152.3 L 48.3 149.8 Z M 60.1 136.3 L 59.7 134.2 L 59.1 132.1 L 58.3 130.0 L 57.4 127.8 L 56.3 125.7 L 55.1 123.5 L 53.6 121.2 L 51.7 119.3 L 52.8 117.8 L 55.2 119.4 L 57.8 120.7 L 60.1 122.2 L 62.4 123.9 L 64.4 125.8 L 66.3 127.8 L 68.1 130.0 L 69.6 132.4 L 71.0 134.9 L 72.2 137.6 L 71.5 142.1 L 67.8 144.9 L 63.3 144.1 L 60.6 140.5 L 60.4 138.4 Z M 31.7 85.0 L 31.7 108.0 L 49.2 108.0 L 49.2 85.0 Z M 113.1 83.0 L 113.1 106.0 L 159.6 106.0 L 159.6 83.0 Z M 31.7 58.0 L 31.7 81.0 L 49.2 81.0 L 49.2 58.0 Z M 90.9 61.0 L 130.8 61.0 L 130.8 40.0 L 100.8 40.0 L 100.8 36.0 L 130.8 36.0 L 130.8 12.0 L 142.8 14.0 L 145.8 16.0 L 142.8 17.8 L 142.8 36.0 L 155.3 36.0 L 165.3 26.0 L 177.3 36.0 L 177.3 40.0 L 142.8 40.0 L 142.8 61.0 L 169.01818180084229 61.0 L 177.2 52.0 L 187.2 61.0 L 187.2 65.0 L 90.9 65.0 Z M 31.7 30.0 L 31.7 54.0 L 49.2 54.0 L 49.2 30.0 Z " />
</g>
</svg>
