<svg xmlns="http://www.w3.org/2000/svg" xmlns:xlink="http://www.w3.org/1999/xlink" version="1.1" baseProfile="full" viewBox="0 0 200 200" width="200" height="200">
<g fill="black">
<path d="M 50.0 174.8 L 60.0 174.8 L 61.3 174.7 L 62.2 174.5 L 63.1 174.2 L 63.5 173.8 L 63.8 172.9 L 64.0 172.0 L 64.0 151.2 L 36.7 151.2 L 36.7 181.6 L 24.7 187.6 L 24.7 91.6 L 36.7 97.6 L 64.0 97.6 L 70.0 92.6 L 74.08356161117554 95.94109592437744 L 74.7 94.4 L 75.1 91.7 L 75.9 86.9 L 76.3 84.7 L 76.6 82.5 L 76.9 80.6 L 77.0 79.65 L 77.0 79.3 L 23.68378381729126 79.3 L 23.9 80.9 L 24.2 84.3 L 24.3 87.5 L 24.2 90.4 L 24.0 93.1 L 23.5 95.6 L 22.7 98.0 L 21.5 100.4 L 17.4 102.3 L 13.1 100.8 L 11.1 96.6 L 12.6 92.3 L 13.2 92.2 L 14.1 91.5 L 15.0 90.3 L 15.9 88.5 L 16.9 86.3 L 17.7 83.6 L 18.6 80.5 L 19.4 77.1 L 20.2 73.2 L 20.6 69.0 L 22.4 68.9 L 22.7 73.2 L 23.067500019073485 75.3 L 25.1 75.3 L 25.1 16.5 L 36.1 22.0 L 64.7 22.0 L 70.2 17.0 L 80.7 26.0 L 75.7 29.5 L 75.7 75.3 L 77.0 75.3 L 83.0 70.3 L 94.0 79.3 L 89.0 82.3 L 85.71409397125244 83.66912755966186 L 85.5 84.0 L 84.3 85.7 L 83.0 87.5 L 81.6 89.4 L 80.1 91.3 L 78.5 93.3 L 76.7 95.4 L 75.66351346969604 97.23378381729125 L 81.0 101.6 L 76.0 105.6 L 76.0 170.8 L 75.9 173.3 L 75.5 175.8 L 74.7 178.2 L 73.4 180.5 L 71.8 182.5 L 69.8 184.2 L 67.5 185.4 L 65.1 186.2 L 62.6 186.6 L 60.0 186.8 L 60.0 180.8 L 50.0 177.8 Z M 152.0 183.7 L 141.2 182.6 L 132.1 180.7 L 124.7 177.9 L 118.7 174.2 L 114.1 169.8 L 110.8 164.8 L 108.5 159.3 L 107.90875911712646 156.89562044143676 L 107.68095235824585 157.00952377319337 L 107.3 157.6 L 105.7 160.8 L 102.1 166.8 L 100.3 169.6 L 98.4 172.3 L 96.6 175.0 L 94.8 177.6 L 93.76444969177246 178.96256618499757 L 94.6 183.2 L 91.1 182.5 L 81.2 175.4 L 82.6 174.0 L 87.2 170.4 L 89.6 168.5 L 92.0 166.5 L 94.5 164.5 L 97.1 162.4 L 99.7 160.2 L 99.7 109.0 L 85.0 109.0 L 85.0 105.0 L 99.7 105.0 L 105.7 100.0 L 116.7 109.0 L 111.7 113.0 L 111.7 155.0 L 110.80909090042114 155.44545450210572 L 112.2 157.3 L 115.7 161.4 L 119.2 164.7 L 123.3 167.2 L 128.2 169.2 L 134.4 170.7 L 142.4 171.6 L 152.4 171.9 L 164.6 171.5 L 179.4 170.4 L 190.3 169.6 L 180.4 183.5 L 165.0 184.0 Z M 171.6 132.4 L 170.1 128.8 L 168.3 125.3 L 166.4 121.8 L 164.3 118.2 L 162.1 114.7 L 161.5177215576172 113.78860759735107 L 162.0 116.2 L 162.8 124.7 L 162.9 133.6 L 162.2 142.9 L 160.8 152.5 L 160.05082063674928 153.0215805053711 L 159.6 154.9 L 158.6 157.2 L 157.4 159.4 L 155.9 161.4 L 154.1 163.2 L 152.0 164.6 L 149.7 165.7 L 147.3 166.4 L 144.8 166.8 L 142.3 167.0 L 142.3 161.0 L 126.3 158.0 L 126.3 155.0 L 142.3 155.0 L 143.6 154.9 L 144.6 154.7 L 145.4 154.5 L 146.0 154.2 L 147.0 153.4 L 147.18759307861328 153.1655086517334 L 147.9 149.8 L 149.8 141.1 L 151.1 132.7 L 151.8 124.8 L 151.8 122.20256414413453 L 150.2 124.5 L 146.1 129.9 L 141.6 135.0 L 137.0 139.9 L 132.0 144.4 L 126.8 148.7 L 121.3 152.5 L 115.4 155.9 L 114.4 154.5 L 123.2 144.7 L 127.3 139.8 L 131.3 134.9 L 135.0 129.7 L 138.5 124.5 L 141.8 119.0 L 144.9 113.5 L 147.7 107.7 L 149.9921540260315 102.49857349395752 L 148.68241758346556 97.62344322204589 L 148.4 98.0 L 145.1 102.0 L 141.6 105.8 L 137.9 109.5 L 133.9 113.2 L 129.6 116.7 L 125.0 120.1 L 120.1 123.2 L 114.9 126.1 L 113.8 124.7 L 117.7 120.3 L 121.5 116.0 L 125.1 111.9 L 128.4 107.9 L 131.6 103.9 L 134.5 99.9 L 137.1 95.9 L 139.5 92.0 L 141.7 88.1 L 143.4570860862732 84.29298009872437 L 143.0 83.3 L 140.85711240768433 79.26632928848267 L 140.4 79.7 L 136.1 83.2 L 131.6 86.6 L 126.7 89.8 L 121.5 92.8 L 116.0 95.5 L 115.0 94.0 L 123.4 85.6 L 127.3 81.6 L 130.9 77.6 L 134.3 73.7 L 137.4 69.8 L 140.2 65.9 L 142.8 62.1 L 144.45128202438354 59.3 L 127.0 59.3 L 127.0 55.3 L 151.3181818008423 55.3 L 159.5 46.3 L 169.5 55.3 L 169.5 59.3 L 158.08965520858766 59.3 L 157.5 60.2 L 154.6 64.4 L 151.5 68.4 L 148.0 72.3 L 144.3 76.0 L 142.81122322082518 77.41242923736573 L 146.5 80.9 L 151.1 86.8 L 152.3877435684204 88.97925834655761 L 154.1 89.9 L 153.48429460525512 90.83496007919311 L 155.0 93.4 L 157.06252002716064 98.12383623123169 L 157.3 97.8 L 159.2 94.7 L 161.1 91.7 L 162.9 88.8 L 164.6 86.0 L 167.6 80.6 L 169.0 78.0 L 170.3 75.5 L 171.0069694519043 73.95752124786377 L 170.9 73.9 L 171.9 72.3 L 181.5 79.6 L 182.9 82.9 L 178.68421850204467 82.75462818145752 L 177.4 84.1 L 175.2 86.4 L 172.9 88.6 L 170.5 90.9 L 167.9 93.1 L 165.2 95.4 L 162.4 97.6 L 159.3 99.7 L 158.1462477684021 100.65482940673829 L 159.41314535140992 104.89618225097657 L 159.7 105.1 L 163.4 107.8 L 166.8 110.7 L 170.0 113.8 L 173.0 117.0 L 175.8 120.3 L 178.5 123.8 L 180.9 127.3 L 183.2 130.9 L 185.3 134.7 L 185.4 139.3 L 182.2 142.6 L 177.7 142.6 L 174.3 139.5 L 173.1 135.9 Z M 36.7 126.4 L 36.7 147.2 L 64.0 147.2 L 64.0 126.4 Z M 36.7 101.6 L 36.7 122.4 L 64.0 122.4 L 64.0 101.6 Z M 96.6 75.9 L 95.5 73.4 L 94.5 71.1 L 92.1 66.5 L 90.9 64.4 L 89.5 62.2 L 88.2 60.0 L 86.4 58.3 L 87.5 56.8 L 89.7 58.1 L 92.2 59.3 L 94.6 60.7 L 96.9 62.3 L 99.1 64.1 L 101.3 66.1 L 103.4 68.2 L 105.4 70.5 L 107.3 73.0 L 109.1 75.6 L 109.4 80.1 L 106.5 83.6 L 101.9 83.9 L 98.4 81.0 L 97.5 78.4 Z M 36.1 26.0 L 36.1 75.3 L 45.8 75.3 L 45.8 40.0 L 55.8 45.0 L 64.7 45.0 L 64.7 26.0 Z M 55.8 49.0 L 55.8 75.3 L 64.7 75.3 L 64.7 49.0 Z M 138.6 35.2 L 140.8 38.1 L 136.8875 38.923684215545656 L 135.0 42.5 L 132.8 46.2 L 130.3 49.9 L 127.7 53.6 L 124.8 57.4 L 121.6 61.1 L 118.2 64.9 L 114.4 68.5 L 110.4 72.2 L 109.0 71.1 L 111.7 66.4 L 114.2 61.9 L 116.5 57.6 L 118.7 53.4 L 120.6 49.4 L 122.4 45.5 L 124.0 41.7 L 125.3 38.1 L 126.4 34.6 L 127.05095167160034 32.21317720413208 L 127.0 32.2 L 127.8 29.8 Z M 170.4 55.3 L 168.0 51.8 L 166.0 48.3 L 164.2 44.7 L 162.7 41.1 L 161.6 37.5 L 160.8 33.9 L 160.5 30.3 L 160.3457142829895 27.6 L 133.3 27.6 L 133.3 23.6 L 150.6777777671814 23.6 L 156.9 16.6 L 164.9 23.6 L 164.9 27.6 L 162.66206893920898 27.6 L 163.6 29.3 L 165.4 32.1 L 167.3 34.8 L 169.4 37.5 L 171.5 40.1 L 173.8 42.6 L 176.3 45.1 L 179.0 47.6 L 181.9 50.0 L 184.9 52.4 L 186.7 54.1 L 176.0 62.1 L 173.0 58.7 Z M 102.1 40.5 L 101.3 38.1 L 100.3 35.7 L 99.3 33.4 L 98.2 31.1 L 97.0 28.8 L 94.4 24.2 L 92.7 22.3 L 93.8 20.9 L 96.1 22.4 L 98.5 23.7 L 100.9 25.3 L 103.1 27.0 L 105.3 29.0 L 107.4 31.0 L 109.3 33.3 L 111.2 35.7 L 113.0 38.2 L 114.6 40.8 L 114.6 45.4 L 111.5 48.7 L 106.9 48.7 L 103.6 45.6 L 102.9 43.0 Z " />
</g>
</svg>
