<svg xmlns="http://www.w3.org/2000/svg" xmlns:xlink="http://www.w3.org/1999/xlink" version="1.1" baseProfile="full" viewBox="0 0 200 200" width="200" height="200">
<g fill="black">
<path d="M 134.2 128.1 L 133.3 136.9 L 131.6 145.3 L 129.1 153.1 L 125.7 160.4 L 121.5 167.0 L 116.5 173.0 L 110.8 178.3 L 104.4 182.9 L 97.2 186.7 L 89.2 189.8 L 88.5 188.1 L 95.2 183.5 L 101.2 178.6 L 106.3 173.5 L 110.7 168.1 L 114.4 162.4 L 117.3 156.3 L 119.6 149.9 L 121.1 143.0 L 122.0 135.7 L 122.2 127.8 L 122.2 109.0 L 134.2 111.0 L 137.2 113.0 L 134.2 114.8 L 134.2 128.0 L 134.13442621231079 128.0983606338501 Z M 69.2 176.5 L 83.2 176.5 L 84.2 176.4 L 84.8 176.3 L 85.2 176.1 L 85.5 176.0 L 85.6 175.8 L 85.8 175.6 L 86.0 175.1 L 86.2 174.4 L 86.4 173.3 L 86.5 172.0 L 86.5 108.0 L 29.5 108.0 L 29.5 183.2 L 18.5 188.7 L 18.5 98.5 L 29.5 104.0 L 86.5 104.0 L 92.0 99.0 L 102.5 108.0 L 97.5 111.5 L 97.5 172.0 L 97.3 174.4 L 97.0 176.7 L 96.3 179.0 L 95.3 181.1 L 93.9 183.1 L 92.1 184.7 L 90.1 186.0 L 87.9 186.8 L 85.6 187.3 L 83.2 187.5 L 83.2 182.0 L 69.2 179.2 Z M 182.8 149.0 L 184.8 149.0 L 182.8 174.0 L 186.4 176.4 L 188.8 180.0 L 186.4 183.6 L 182.8 186.0 L 163.3 186.0 L 160.7 185.8 L 158.2 185.4 L 155.8 184.6 L 153.6 183.3 L 151.6 181.7 L 149.9 179.7 L 148.7 177.4 L 147.9 175.0 L 147.4 172.5 L 147.3 170.0 L 147.3 104.0 L 159.3 106.0 L 162.3 108.0 L 159.3 109.8 L 159.3 170.0 L 159.4 171.2 L 159.5 172.1 L 159.7 172.7 L 159.9 173.0 L 160.0 173.2 L 160.2 173.4 L 160.6 173.5 L 161.2 173.7 L 162.1 173.9 L 163.3 174.0 L 176.8 174.0 Z M 49.5 124.0 L 65.5 124.0 L 71.0 119.0 L 81.5 128.0 L 76.5 131.5 L 76.5 160.0 L 65.5 165.5 L 65.5 156.0 L 49.5 156.0 L 49.5 163.0 L 38.5 168.5 L 38.5 118.5 Z M 49.5 128.0 L 49.5 152.0 L 65.5 152.0 L 65.5 128.0 Z M 146.0 53.0 L 148.1 55.9 L 144.2768292427063 56.637804889678954 L 144.2 56.8 L 142.2 60.7 L 140.0 64.7 L 137.5 69.0 L 134.8 73.4 L 131.9 77.9 L 128.8 82.6 L 125.3 87.5 L 121.5 92.4 L 121.42015581130981 92.49737100601196 L 123.7 92.2 L 130.6 91.4 L 137.6 90.5 L 144.5 89.6 L 151.5 88.8 L 158.6 88.1 L 165.7 87.5 L 168.0269817352295 87.36890239715576 L 167.9 87.1 L 166.0 83.3 L 163.8 79.3 L 161.4 75.2 L 158.9 70.8 L 156.0 66.3 L 157.3 65.1 L 161.4 68.6 L 165.3 72.1 L 168.8 75.7 L 172.0 79.2 L 174.9 82.8 L 177.5 86.3 L 179.8 89.8 L 181.8 93.4 L 183.6 96.9 L 185.1 100.4 L 184.5 105.0 L 181.0 107.8 L 176.4 107.2 L 173.6 103.7 L 173.0 100.7 L 172.1 97.5 L 171.0 94.2 L 169.6 90.7 L 169.34523811340333 90.16050424575806 L 166.4 91.2 L 159.6 93.3 L 152.8 95.3 L 145.9 97.1 L 132.3 100.5 L 118.7 103.7 L 111.9 105.2 L 109.23982944488526 105.7955605506897 L 107.7 109.3 L 105.2 106.7 L 101.2 95.2 L 103.2 94.9 L 116.8 93.1 L 117.24061298370361 93.0425287246704 L 118.3 90.5 L 120.7 84.8 L 123.0 79.4 L 125.2 74.3 L 127.3 69.5 L 129.2 64.9 L 130.9 60.5 L 132.4 56.3 L 133.7 52.4 L 134.52298469543456 49.70659561157227 L 134.5 49.7 L 134.70571432113647 49.108571434020995 L 134.7388889312744 49.0 L 99.6 49.0 L 99.6 45.0 L 134.8 45.0 L 134.8 15.0 L 146.8 17.0 L 149.8 19.0 L 146.8 20.8 L 146.8 45.0 L 169.11818180084228 45.0 L 177.3 36.0 L 187.3 45.0 L 187.3 49.0 L 138.35714282989503 49.0 Z M 41.0 57.0 L 75.0 57.0 L 81.0 52.0 L 92.0 61.0 L 87.0 65.0 L 87.0 89.0 L 75.0 95.0 L 75.0 87.0 L 41.0 87.0 L 41.0 90.0 L 29.0 96.0 L 29.0 51.0 Z M 41.0 61.0 L 41.0 83.0 L 75.0 83.0 L 75.0 61.0 Z M 14.0 38.0 L 52.0 38.0 L 52.0 14.0 L 64.0 16.0 L 67.0 18.0 L 64.0 19.8 L 64.0 38.0 L 84.81818180084228 38.0 L 93.0 29.0 L 103.0 38.0 L 103.0 42.0 L 14.0 42.0 Z " />
</g>
</svg>
