<svg xmlns="http://www.w3.org/2000/svg" xmlns:xlink="http://www.w3.org/1999/xlink" version="1.1" baseProfile="full" viewBox="0 0 200 200" width="200" height="200">
<g fill="black">
<path d="M 129.3 188.1 L 110.5 187.3 L 95.2 186.1 L 82.8 184.4 L 72.9 182.3 L 65.1 179.6 L 58.9 176.5 L 54.0 172.8 L 51.32443857192993 169.91321001052856 L 48.8 171.5 L 45.3 173.8 L 41.8 175.9 L 38.3 177.9 L 34.9 179.7 L 31.4 181.6 L 24.6 185.0 L 21.79032258987427 186.32220115661622 L 20.8 190.4 L 17.9 188.2 L 12.0 177.5 L 13.9 176.9 L 17.4 176.0 L 24.6 174.2 L 28.3 173.3 L 32.0 172.3 L 35.8 171.4 L 39.6 170.4 L 41.0 170.07692308425902 L 41.0 143.5 L 14.0 143.5 L 14.0 139.5 L 41.0 139.5 L 47.0 134.5 L 58.0 143.5 L 53.0 147.5 L 53.0 167.8 L 52.87608699798584 167.86195650100709 L 56.3 169.3 L 61.4 171.1 L 67.3 172.7 L 74.7 174.1 L 83.0 175.08172044754028 L 83.0 142.25 L 82.5 142.5 L 77.4 144.7 L 71.9 146.7 L 66.2 148.5 L 60.0 150.0 L 59.4 148.3 L 64.6 145.0 L 69.6 141.8 L 74.3 138.8 L 78.7 135.9 L 82.8 132.9 L 86.5 130.0 L 89.9 127.1 L 93.0 124.2 L 95.7 121.3 L 97.41428575515747 119.3 L 93.5 119.3 L 81.5 125.3 L 81.5 86.7 L 93.5 92.7 L 156.5 92.7 L 162.5 87.7 L 173.5 96.7 L 168.5 100.7 L 168.5 119.3 L 156.5 125.3 L 156.5 119.3 L 146.06842107772826 119.3 L 152.6 127.8 L 152.8 131.4 L 148.15789470672607 129.59473686218263 L 147.0 130.0 L 144.8 130.8 L 142.5 131.6 L 140.0 132.3 L 137.6375 133.0 L 166.2777777671814 133.0 L 172.5 126.0 L 180.5 133.0 L 180.5 137.0 L 138.5 137.0 L 138.5 144.4 L 160.9777777671814 144.4 L 167.2 137.4 L 175.2 144.4 L 175.2 148.4 L 138.5 148.4 L 138.5 155.5 L 160.9777777671814 155.5 L 167.2 148.5 L 175.2 155.5 L 175.2 158.95 L 175.7 158.4 L 185.7 167.4 L 185.7 171.4 L 95.0 171.4 L 87.04477615356446 175.37761192321778 L 96.0 175.9 L 110.9 176.3 L 129.4 176.3 L 151.9 175.9 L 178.8 175.1 L 190.4 174.9 L 179.1 188.3 L 152.0 188.5 Z M 95.0 159.5 L 95.0 167.4 L 126.5 167.4 L 126.5 159.5 Z M 138.5 159.5 L 138.5 167.4 L 167.51818180084229 167.4 L 174.7 159.5 Z M 95.0 148.4 L 95.0 155.5 L 126.5 155.5 L 126.5 148.4 Z M 95.0 137.0 L 95.0 144.4 L 126.5 144.4 L 126.5 137.0 Z M 99.67209300994872 119.3 L 106.9 126.7 L 107.8 130.2 L 103.84773817062378 129.38229064941407 L 103.6 129.6 L 99.9 132.4 L 99.03333330154419 133.0 L 129.50588235855102 133.0 L 130.3 132.5 L 132.7 130.5 L 134.9 128.6 L 137.0 126.8 L 138.9 125.2 L 140.6 123.6 L 142.0 122.1 L 143.3 120.7 L 144.4 119.5 L 144.5333333015442 119.3 Z M 36.4 126.4 L 34.4 124.8 L 32.2 123.2 L 29.8 121.6 L 27.3 120.0 L 24.7 118.4 L 21.8 116.8 L 18.9 115.1 L 15.7 113.8 L 16.1 112.1 L 19.6 112.6 L 23.1 112.9 L 26.5 113.3 L 29.7 113.9 L 32.8 114.6 L 35.9 115.4 L 38.8 116.4 L 41.6 117.4 L 44.3 118.6 L 47.0 119.9 L 49.4 123.8 L 48.4 128.3 L 44.5 130.6 L 40.0 129.7 L 38.3 128.0 Z M 93.5 108.0 L 93.5 115.3 L 156.5 115.3 L 156.5 108.0 Z M 46.0 106.0 L 44.3 104.4 L 42.4 102.8 L 40.3 101.2 L 37.9 99.6 L 35.4 97.9 L 32.7 96.3 L 29.8 94.5 L 26.7 93.2 L 27.2 91.4 L 30.6 92.1 L 34.1 92.4 L 40.5 93.6 L 43.5 94.4 L 46.3 95.3 L 49.1 96.3 L 51.7 97.3 L 54.1 98.5 L 56.5 99.9 L 58.6 103.9 L 57.3 108.3 L 53.2 110.4 L 48.8 109.1 L 47.5 107.5 Z M 93.5 96.7 L 93.5 104.0 L 156.5 104.0 L 156.5 96.7 Z M 91.1 81.5 L 89.8 79.4 L 88.3 77.3 L 86.6 75.2 L 85.53732967376709 74.01925525665283 L 79.8 76.0 L 71.8 78.6 L 64.2 80.8 L 57.0 82.8 L 50.2 84.6 L 43.9 86.2 L 38.0 87.6 L 32.4 88.9 L 27.3 89.9 L 26.75389156341553 90.00457391738891 L 24.9 93.6 L 22.6 90.8 L 19.3 79.1 L 21.3 78.9 L 25.8 78.6 L 30.8 78.2 L 35.386792469024655 77.78301887512207 L 36.1 76.0 L 37.2 73.2 L 38.3 70.6 L 39.3 68.1 L 40.2 65.7 L 41.0 63.5 L 41.34285717010498 62.3 L 12.0 62.3 L 12.0 58.3 L 32.0 58.3 L 32.0 12.3 L 44.0 18.4 L 90.80180177688598 18.4 L 99.0 9.3 L 109.0 18.4 L 109.0 22.4 L 44.0 22.4 L 44.0 32.0 L 88.77777776718139 32.0 L 95.0 25.0 L 103.0 32.0 L 103.0 36.0 L 44.0 36.0 L 44.0 44.7 L 88.77777776718139 44.7 L 95.0 37.7 L 103.0 44.7 L 103.0 48.7 L 44.0 48.7 L 44.0 58.3 L 93.81818180084228 58.3 L 102.0 49.3 L 112.0 58.3 L 112.0 62.3 L 53.8384614944458 62.3 L 53.4 62.9 L 52.1 64.6 L 49.1 68.2 L 47.4 70.1 L 45.6 72.1 L 43.7 74.1 L 41.6 76.2 L 40.41553134918213 77.28147134780883 L 42.2 77.1 L 48.7 76.3 L 55.5 75.4 L 62.9 74.4 L 70.7 73.3 L 79.0 72.3 L 83.39484539031983 71.79484539031982 L 80.5 68.9 L 78.2 66.8 L 75.5 64.9 L 76.2 63.3 L 79.4 64.5 L 82.6 65.4 L 85.7 66.6 L 88.6 67.9 L 91.4 69.4 L 94.1 71.0 L 96.6 72.8 L 99.0 74.8 L 101.2 76.9 L 103.3 79.1 L 104.1 83.6 L 101.6 87.5 L 97.1 88.3 L 93.3 85.8 L 92.3 83.6 Z M 186.0776762008667 62.7378589630127 L 187.8 64.7 L 188.0 68.3 L 184.4049775123596 66.76878671646118 L 182.3 68.0 L 176.5 70.8 L 170.2 73.5 L 163.3 75.9 L 155.9 78.3 L 147.9 80.4 L 139.3 82.4 L 130.2 84.1 L 120.5 85.6 L 110.1 86.7 L 109.8 84.9 L 119.6 81.9 L 128.9 78.9 L 137.6 76.0 L 145.7 73.2 L 153.1 70.2 L 159.9 67.3 L 166.1 64.3 L 171.6 61.3 L 176.5 58.2 L 180.7 55.1 Z M 175.90775527954102 39.12599668502808 L 179.0 42.6 L 179.1 46.1 L 175.50112543106079 44.59501609802246 L 173.9 45.5 L 168.8 48.1 L 163.4 50.6 L 157.6 52.9 L 151.4 55.2 L 144.8 57.4 L 137.8 59.5 L 130.4 61.4 L 122.5 63.1 L 114.2 64.6 L 113.7 62.8 L 121.4 59.5 L 128.7 56.3 L 135.6 53.3 L 142.0 50.3 L 148.1 47.4 L 153.7 44.5 L 158.9 41.6 L 163.6 38.7 L 167.9 35.8 L 170.9453332901001 33.55607013702392 L 170.9 33.5 L 170.94809637069702 33.55403423309326 L 171.7 33.0 Z M 171.7326530456543 18.68571424484253 L 172.7 19.8 L 172.9 23.4 L 169.29766836166382 21.865673542022705 L 168.4 22.4 L 163.8 24.8 L 158.9 27.3 L 153.6 29.7 L 147.9 32.2 L 141.8 34.6 L 135.3 36.9 L 128.4 39.2 L 121.1 41.3 L 113.3 43.3 L 112.6 41.6 L 119.7 37.8 L 126.3 34.2 L 132.6 30.9 L 138.6 27.7 L 144.1 24.5 L 149.3 21.5 L 154.0 18.5 L 158.3 15.6 L 162.2 12.8 L 164.81788311004638 10.721092891693115 L 164.8 10.7 L 164.8181365966797 10.720891571044922 L 165.6 10.1 Z " />
</g>
</svg>
