<svg xmlns="http://www.w3.org/2000/svg" xmlns:xlink="http://www.w3.org/1999/xlink" version="1.1" baseProfile="full" viewBox="0 0 200 200" width="200" height="200">
<g fill="black">
<path d="M 109.0 175.4 L 130.2 175.4 L 131.1 175.2 L 131.7 175.0 L 132.0 174.8 L 132.2 174.7 L 132.4 174.5 L 132.7 173.6 L 132.9 172.7 L 133.0 171.4 L 133.0 136.6 L 93.4 136.6 L 93.4 132.6 L 133.0 132.6 L 133.0 116.1 L 141.72558135986327 117.55426359176636 L 142.4 116.7 L 145.1 112.8 L 147.7 109.3 L 150.1 105.9 L 152.3 102.7 L 154.3 99.8 L 156.0 97.0 L 157.09615383148193 95.1 L 107.2 95.1 L 107.2 91.1 L 158.9 91.1 L 159.5 90.6 L 159.9 89.8 L 160.2125 90.00625 L 164.9 86.1 L 167.00789470672606 87.82464113235474 L 167.7 86.0 L 168.4 82.9 L 169.0 80.1 L 169.6 77.4 L 170.2 74.9 L 170.7 72.5 L 171.1 70.2 L 171.4619047164917 68.3 L 106.11395349502564 68.3 L 106.3 70.3 L 106.5 74.3 L 106.5 78.0 L 106.3 81.4 L 105.9 84.5 L 105.2 87.4 L 104.1 90.1 L 102.6 92.7 L 98.4 94.5 L 94.2 92.9 L 92.3 88.7 L 93.9 84.5 L 94.7 84.0 L 95.7 83.0 L 96.8 81.4 L 97.9 79.3 L 98.9 76.7 L 99.9 73.5 L 100.8 69.9 L 101.7 65.9 L 102.5 61.4 L 103.0 56.5 L 104.8 56.5 L 105.3 61.4 L 105.67826089859008 64.3 L 133.0 64.3 L 133.0 42.0 L 96.6 42.0 L 96.6 38.0 L 133.0 38.0 L 133.0 13.0 L 145.0 15.0 L 148.0 17.0 L 145.0 18.8 L 145.0 38.0 L 159.4 38.0 L 169.4 28.0 L 181.4 38.0 L 181.4 42.0 L 145.0 42.0 L 145.0 64.3 L 171.6 64.3 L 177.6 59.3 L 188.6 68.3 L 183.6 71.3 L 180.4800000190735 72.6 L 178.4 75.8 L 176.9 77.8 L 175.4 80.0 L 173.7 82.3 L 171.9 84.6 L 169.9 87.0 L 168.5739999771118 89.10600004196166 L 175.9 95.1 L 170.9 98.1 L 166.80877189636232 99.80467834472657 L 165.9 100.8 L 163.5 103.1 L 161.0 105.5 L 158.2 108.0 L 155.2 110.6 L 151.9 113.3 L 148.4 116.0 L 145.28874998092653 118.29250001907349 L 148.0 120.1 L 145.0 121.9 L 145.0 132.6 L 162.5 132.6 L 172.5 122.6 L 184.5 132.6 L 184.5 136.6 L 145.0 136.6 L 145.0 171.4 L 144.8 174.0 L 144.4 176.5 L 143.6 178.9 L 142.3 181.1 L 140.7 183.2 L 138.7 184.8 L 136.4 186.0 L 134.0 186.8 L 131.5 187.3 L 129.0 187.4 L 129.0 181.4 L 109.0 178.4 Z M 79.1 182.1 L 77.3 183.7 L 75.3 185.1 L 73.2 186.3 L 71.1 187.2 L 68.8 188.0 L 66.4 188.5 L 64.0 188.8 L 61.6 189.0 L 61.6 183.0 L 45.5 180.0 L 45.5 177.0 L 61.6 177.0 L 63.0 176.9 L 64.3 176.7 L 65.6 176.4 L 66.7 176.1 L 67.8 175.6 L 68.8 175.0 L 69.8 174.3 L 70.7 173.5 L 71.7 172.5 L 72.6 171.3 L 73.9 169.2 L 75.2 166.3 L 76.4 162.9 L 77.5 158.8 L 78.5 154.1 L 79.3 148.9 L 79.9 143.0 L 80.4 136.5 L 80.7 129.5 L 80.77333335876465 124.0 L 31.2 124.0 L 19.2 130.0 L 19.2 30.0 L 31.2 36.0 L 42.875 36.0 L 43.5 35.0 L 44.5 32.3 L 45.6 29.7 L 46.7 27.2 L 48.7 22.2 L 50.5 17.2 L 51.79949235916138 13.13908634185791 L 51.7 13.1 L 52.01111106872558 12.477777767181397 L 52.1 12.2 L 52.14014873504639 12.219702625274659 L 52.7 11.1 L 62.9 17.5 L 64.7 20.6 L 60.33026418685913 20.97670135498047 L 57.8 24.4 L 55.9 26.6 L 54.0 28.7 L 52.0 30.8 L 49.9 32.8 L 47.8 34.7 L 46.138888931274415 36.0 L 72.0 36.0 L 78.0 31.0 L 89.0 40.0 L 84.0 44.0 L 84.0 86.0 L 72.0 92.0 L 72.0 84.0 L 31.2 84.0 L 31.2 100.0 L 76.61818180084228 100.0 L 84.8 91.0 L 94.8 100.0 L 94.8 104.0 L 31.2 104.0 L 31.2 120.0 L 80.8 120.0 L 86.8 115.0 L 97.8 124.0 L 92.8 127.0 L 92.7355531692505 127.02685289382934 L 92.7 129.8 L 92.4 137.2 L 91.9 144.0 L 91.2 150.4 L 90.3 156.2 L 89.2 161.6 L 87.9 166.5 L 86.3 170.9 L 84.5 174.8 L 82.3 178.4 L 80.7 180.3 Z M 12.8 177.2 L 10.8 173.1 L 12.2 168.8 L 13.6 167.5 L 14.9 165.8 L 16.2 163.7 L 17.5 161.1 L 18.6 158.0 L 19.5 154.4 L 20.4 150.5 L 21.1 146.1 L 21.7 141.2 L 21.9 136.0 L 23.7 135.9 L 24.7 141.1 L 25.6 146.0 L 26.2 150.7 L 26.4 155.1 L 26.4 159.3 L 26.0 163.2 L 25.4 166.9 L 24.4 170.4 L 23.0 173.6 L 21.2 176.6 L 17.1 178.6 Z M 36.4 171.9 L 32.8 169.1 L 32.0 164.6 L 32.8 163.1 L 33.4 161.4 L 33.9 159.4 L 34.3 157.2 L 34.5 154.7 L 34.6 152.0 L 34.6 149.1 L 34.4 146.0 L 34.2 142.6 L 33.4 139.2 L 35.1 138.6 L 36.6 141.9 L 38.3 144.9 L 39.7 147.9 L 40.9 150.8 L 41.9 153.7 L 42.7 156.5 L 43.3 159.3 L 43.7 162.1 L 43.8 164.8 L 43.7 167.5 L 40.9 171.1 Z M 49.4 153.1 L 49.3 150.9 L 49.1 148.8 L 48.3 144.6 L 47.6 142.5 L 46.8 140.3 L 45.9 138.1 L 44.5 136.3 L 45.7 135.0 L 47.6 136.6 L 49.8 138.0 L 51.8 139.6 L 53.7 141.5 L 55.4 143.5 L 56.9 145.8 L 58.2 148.2 L 59.4 150.8 L 60.4 153.5 L 61.2 156.4 L 59.8 160.7 L 55.8 162.9 L 51.5 161.6 L 49.3 157.6 L 49.4 155.3 Z M 63.8 144.5 L 63.4 142.9 L 62.9 141.3 L 62.3 139.8 L 61.5 138.2 L 60.5 136.6 L 59.3 134.9 L 57.9 133.3 L 56.1 132.2 L 56.8 130.5 L 59.0 131.4 L 61.3 131.9 L 63.5 132.7 L 65.6 133.7 L 67.6 134.9 L 69.5 136.4 L 71.3 138.1 L 72.9 140.0 L 74.3 142.0 L 75.6 144.3 L 75.1 148.9 L 71.6 151.8 L 67.1 151.3 L 64.1 147.8 L 64.0 146.2 Z M 31.2 62.0 L 31.2 80.0 L 72.0 80.0 L 72.0 62.0 Z M 31.2 40.0 L 31.2 58.0 L 72.0 58.0 L 72.0 40.0 Z " />
</g>
</svg>
