<?xml version="1.0" encoding="UTF-8" standalone="no"?>
<svg
   width="800"
   height="1000"
   version="1.1"
   id="svg1"
   sodipodi:docname="13014.svg"
   inkscape:version="1.4.2 (f4327f4, 2025-05-13)"
   xmlns:inkscape="http://www.inkscape.org/namespaces/inkscape"
   xmlns:sodipodi="http://sodipodi.sourceforge.net/DTD/sodipodi-0.dtd"
   xmlns="http://www.w3.org/2000/svg"
   xmlns:svg="http://www.w3.org/2000/svg">
  <defs
     id="defs1" />
  <sodipodi:namedview
     id="namedview1"
     pagecolor="#ffffff"
     bordercolor="#666666"
     borderopacity="1.0"
     inkscape:showpageshadow="2"
     inkscape:pageopacity="0.0"
     inkscape:pagecheckerboard="0"
     inkscape:deskcolor="#d1d1d1"
     inkscape:zoom="0.53386562"
     inkscape:cx="641.54721"
     inkscape:cy="351.21198"
     inkscape:window-width="1680"
     inkscape:window-height="998"
     inkscape:window-x="-8"
     inkscape:window-y="-8"
     inkscape:window-maximized="1"
     inkscape:current-layer="svg1"
     showguides="true">
    <sodipodi:guide
       position="800,1000"
       orientation="0,-1"
       id="guide1"
       inkscape:locked="false" />
    <sodipodi:guide
       position="800,0"
       orientation="0,-1"
       id="guide2"
       inkscape:locked="false" />
  </sodipodi:namedview>
  <path
     style="fill:#000000;stroke:none;stroke-width:55.602"
     d="m 516.46278,56.130365 q 28.71783,-6.526789 60.04641,5.874077 31.32858,12.400921 28.71784,23.496419 -2.61052,11.095552 11.7482,11.095552 15.66432,0 15.66432,23.496427 0,23.49641 -11.74826,35.24462 -11.74821,11.74821 11.09556,3.26339 22.84375,-8.48482 42.42412,-37.85537 19.58038,-29.370486 3.91606,-65.267828 -15.66432,-35.897284 -81.58482,-35.897284 -65.92048,0 -80.27943,36.549997 z m -14.35896,19.580368 q -1.30537,14.358891 -22.19105,53.519627 19.58032,7.8321 11.74822,19.58031 -5.22142,5.22148 1.30532,13.05359 l 23.49647,5.22141 v 7.83216 h -11.74822 q 1.30532,9.13753 11.74822,14.35895 l 46.99283,-3.91605 v 54.82493 h -44.38214 q -19.58038,0 -28.71785,39.16074 45.68753,105.73394 45.68753,151.42142 0,45.68751 -1.30543,88.76425 -1.30532,43.07679 -30.02316,43.07679 -91.37499,15.66431 -146.19998,53.51961 121.39819,3.91606 121.39819,30.02327 18.275,-16.96968 142.28389,-16.96968 24.80179,-13.05359 30.02326,-30.02316 0,-36.55004 -26.10715,-165.78041 0,-48.29815 32.63394,-130.53568 15.66426,-19.58036 2.61051,-40.46604 -13.05357,-20.88574 -31.98123,-20.23302 -18.92765,0.65265 -22.84376,-47.64556 -18.27499,-41.77141 -4.56881,-49.60358 13.70623,-7.83215 13.70623,-19.58036 0,-11.7482 -18.27494,-11.7482 -16.9697,0 -14.35901,-12.40087 2.61052,-12.400925 -26.75976,-22.191052 -29.37033,-9.790185 -54.17212,-3.263395 z m 58.74106,22.19105 q -41.77141,19.580367 -50.25625,9.790187 -8.48481,-9.790187 0,-19.580371 8.48484,-9.790184 50.25625,9.790184 z M 464.24847,291.09461 q -83.54284,22.1911 -172.3071,36.55 -28.71789,5.22142 -161.86431,-20.88569 -77.016044,9.13748 -111.608016,-9.79018 -34.591971,-18.92771 -29.370495,-26.10716 5.2214209,-7.17944 16.9696289,-0.65271 11.7482101,6.52679 28.7178401,11.7482 16.969629,5.22148 57.435733,3.91612 -23.496418,-26.10716 -38.508077,-28.71784 -15.011605,-2.61074 -8.484816,-15.66432 28.717894,-1.30537 86.153582,33.93932 97.90178,-6.52679 164.47499,2.61068 58.74103,-13.05358 88.76425,-29.3705 30.0232,-16.31698 59.39375,-23.49641 29.37056,-7.1795 55.47766,-6.52685 26.10716,0.65271 35.24463,0 9.13758,-0.65265 5.22147,-9.13747 -3.91604,-8.48481 -15.01165,-5.22142 -11.0955,3.2634 -21.53834,-0.65266 -10.44289,-3.91611 -7.83211,-16.96968 -16.96969,-2.61068 -5.22147,-15.66427 -14.35889,0 -11.74822,-11.7482 l 1.30537,-11.74821 q -20.88573,-7.83216 -14.35894,-20.88574 24.80179,-40.466047 23.49648,-54.824994 0,-13.053579 19.58031,-42.424075 Q 528.21093,0 607.83777,0 q 80.93209,0 97.24907,65.920549 16.31696,65.920491 -60.69908,108.997281 -14.35894,6.52679 -11.74821,26.10716 2.61052,23.49642 44.3821,23.49642 20.88569,0 58.08839,54.17233 37.20266,54.17229 64.61519,116.82944 2.61051,118.78747 -19.58031,168.39105 7.8321,78.3214 -7.83222,109.64999 -15.66426,31.32857 -39.16067,19.58037 26.10715,-36.55001 16.96962,-73.10001 -18.275,5.22158 -22.19105,25.45444 -3.91605,20.2331 -16.96969,13.70629 -2.61051,-43.07684 35.24469,-83.54288 -6.52678,-82.23746 6.52679,-168.39104 l -67.87857,-90.06962 q -36.55,79.62672 -36.55,120.09283 33.93925,133.14641 32.63394,174.91783 -1.30553,41.77141 -80.93215,41.77141 -73.1,0 -124.00888,23.49642 l -6.52678,11.74822 q 36.54993,41.77141 33.93925,108.99732 -2.61075,67.22587 26.10715,111.60803 28.71785,44.38215 -5.22141,50.90888 -33.93932,6.52678 -87.45895,39.16077 h -50.90894 q -13.05353,0 -22.19106,-18.27497 -9.13753,-18.27505 22.19106,-18.27505 53.51962,0 73.09999,-48.29821 2.61074,-41.77142 -20.88568,-98.55444 -23.49648,-56.78307 -52.21431,-139.02055 -11.74821,0 -11.74821,56.13043 0,56.1303 -35.24462,115.524 -35.24464,59.39377 -18.27502,96.59642 16.96964,37.20271 0.65267,47.64555 -16.31693,10.44294 -35.24462,3.26326 -18.92766,-7.17948 -48.95088,3.26335 H 157.4896 q -9.13754,1.30563 -22.84377,-15.01143 -13.70624,-16.31691 22.84377,-17.62235 75.71066,-10.44282 98.55443,-55.47759 22.84376,-45.03486 28.06519,-118.13486 5.22142,-73.09993 31.32857,-174.91782 65.26784,-58.74105 186.66603,-86.15358 7.83217,-57.43572 7.17945,-101.16512 -0.65265,-43.72949 -45.0348,-140.32591 z"
     id="path1" />
  <path
     style="fill:#000000;stroke:none;stroke-width:55.6001"
     d="m 1369.0814,101.02937 q -44.2921,16.93518 -51.4573,5.86221 -7.1646,-11.073041 1.9572,-20.191953 9.1189,-9.118968 49.5029,14.329743 z m -79.4652,70.34617 -42.9895,2.60542 q 9.1189,29.96226 -1.9516,40.38394 -11.0733,10.42163 -44.9437,9.11892 -9.119,56.0164 -28.6596,128.96799 28.6596,-31.26499 56.6681,-65.13533 28.008,-33.87039 40.3835,-49.50285 12.376,-15.63253 33.8704,-16.28388 21.495,-0.65108 30.614,-0.65108 9.119,0 9.119,-5.21084 -5.2098,-15.63252 -29.3113,-14.32981 -24.0999,1.3027 -22.7972,-29.96227 z m 153.7213,48.20015 32.565,7.81626 q 20.8444,0 57.9686,53.41098 37.1302,53.41099 64.4846,115.9409 2.614,89.88691 -24.7468,152.41698 16.9295,78.16202 -5.2271,106.17056 -22.1452,28.00799 -49.5004,5.86191 l 15.6347,-62.53006 -28.6618,27.35691 q 0,-37.77859 33.8715,-54.71381 -2.6131,-104.21623 11.7205,-161.5354 l -69.0386,-91.18952 q -35.1726,79.46513 -35.1726,121.15178 32.565,131.57314 29.3068,173.91148 -3.2248,42.33779 -77.5121,42.33779 -74.2516,0 -125.0573,22.14606 l -5.2097,11.72439 q 35.1731,42.98942 32.5677,109.42763 -2.6076,66.43763 26.0542,110.07867 28.6596,43.64052 -5.2097,50.15409 -33.8705,6.51349 -87.2816,37.77857 h -49.5029 q -14.3298,0 -23.4488,-17.58684 -9.1189,-17.58629 23.4488,-17.58629 53.411,0 72.9517,-46.89758 1.301,-41.68673 -22.1461,-98.35433 -23.4487,-56.66759 -50.8056,-138.73831 -13.0271,0 -13.0271,57.31923 0,56.01652 -34.5216,114.6379 -34.5215,58.62195 -17.5863,95.74887 16.9347,37.12757 0.651,47.54921 -16.2836,10.42168 -35.1731,3.90869 -18.8891,-6.51358 -48.8514,2.60761 h -79.46531 q -10.42163,1.30108 -23.44879,-14.32978 -13.02706,-15.63249 23.44879,-16.93521 74.25441,-11.72444 97.70321,-56.66758 23.4488,-44.9438 28.6597,-117.89499 5.2096,-72.95174 31.2649,-173.26039 63.8323,-59.92409 184.9843,-79.46474 11.7244,-65.13549 11.7244,-108.77621 0,-43.64066 -36.4759,-113.98688 -19.5407,33.87034 -57.3192,63.18126 -37.7786,29.31091 -61.8785,38.42982 -24.0998,9.11897 -26.7052,-5.86213 -2.6077,-14.98117 -9.7706,-39.7326 -7.1646,-24.75142 30.6134,-121.15172 19.5407,-66.43803 45.5948,-87.28139 16.9352,-13.02705 89.887,-9.11892 v -9.11896 q -28.6596,-11.72433 -16.9352,-28.65956 l 31.265,-50.80557 q -3.9087,-11.724332 18.2379,-43.640665 22.1461,-31.9163331 91.1903,-22.7973649 69.0442,9.1189679 82.0713,72.9515789 13.027,63.832671 -32.5706,100.308421 6.5163,3.90813 6.5163,20.84331 0,16.93523 -22.1455,23.44871 z m -19.5434,-66.43803 q 13.0271,1.30271 19.5434,7.81626 16.9359,-16.93523 25.3981,-35.17311 8.468,-18.23789 -7.1613,-57.31912 -15.6346,-39.081181 -68.3936,-47.548795 -52.7589,-8.467557 -78.8131,55.365054 l -31.265,53.410981 q 16.9352,3.90813 11.7243,13.02711 -5.2096,9.1189 18.238,11.72433 l 2.6077,11.72433 q -11.7245,10.42168 2.6076,23.44878 l 33.8704,-10.42168 9.119,63.83266 h -44.2921 q -19.5407,0 -33.8705,61.2272 h 18.238 q 31.265,82.07054 31.265,128.96798 0,45.59484 -4.5592,88.58426 -4.5592,42.98942 -24.0999,42.98942 -91.1897,14.32926 -147.2062,53.41055 122.4547,14.32981 121.152,40.384 18.2379,-16.93523 148.51,-23.44878 24.7476,-11.72438 29.963,-29.96232 0,-40.38345 -27.3609,-170.65442 0,-48.20015 31.2696,-130.27069 15.6291,-19.5406 2.6131,-40.38395 -13.0271,-20.84325 -33.8715,-19.5406 -15.6292,1.30272 -14.3281,-22.14601 -28.6619,0 -28.6619,-119.84901 -23.446,-19.540593 -18.2352,-42.337958 5.2098,-22.797365 36.4776,-22.797365 32.565,0 33.2154,35.173052 0.6674,35.173101 -13.6776,80.767841 z"
     id="path1-9" />
</svg>
