<?xml version="1.0" encoding="UTF-8" standalone="no"?>
<svg
   width="16.823509"
   height="17.983217"
   version="1.1"
   id="svg1"
   sodipodi:docname="13037.svg"
   inkscape:version="1.4.2 (f4327f4, 2025-05-13)"
   xmlns:inkscape="http://www.inkscape.org/namespaces/inkscape"
   xmlns:sodipodi="http://sodipodi.sourceforge.net/DTD/sodipodi-0.dtd"
   xmlns="http://www.w3.org/2000/svg"
   xmlns:svg="http://www.w3.org/2000/svg">
  <defs
     id="defs1" />
  <sodipodi:namedview
     id="namedview1"
     pagecolor="#ffffff"
     bordercolor="#666666"
     borderopacity="1.0"
     inkscape:showpageshadow="2"
     inkscape:pageopacity="0.0"
     inkscape:pagecheckerboard="0"
     inkscape:deskcolor="#d1d1d1"
     inkscape:zoom="32"
     inkscape:cx="11.859375"
     inkscape:cy="7.953125"
     inkscape:window-width="1680"
     inkscape:window-height="998"
     inkscape:window-x="-8"
     inkscape:window-y="-8"
     inkscape:window-maximized="1"
     inkscape:current-layer="svg1" />
  <path
     style="fill:#000000;stroke:none"
     d="M 10.396846,15.160825 H 9.710318 L 6.983276,11.670975 C 6.589158,11.060728 6.2427157,10.857312 5.943949,11.060727 c -0.2987667,0.203416 -0.1748103,0.746918 0.371869,1.630505 0.54668,0.883586 1.0552193,2.272533 1.525618,4.166842 l -1.849811,0.572108 h 6.865279 l -0.476756,-0.343266 c 0.432259,-1.957875 0.699242,-3.95707 0.80095,-5.997583 0.101707,-2.0405133 -0.190703,-3.06077 -0.877231,-3.06077 -0.394118,0.012713 -0.750095,0.362334 -1.067932,1.048862 -0.483112,1.398483 -0.762808,3.426283 -0.839089,6.0834 z M 10.682899,5.759206 C 10.810034,5.4540827 11.153297,5.473153 11.71269,5.816417 11.102443,6.0961137 10.75918,6.0770433 10.682899,5.759206 Z m 3.375429,3.623342 h 0.476755 c 0.01271,-1.411196 -0.438615,-2.1231507 -1.353985,-2.135864 0.58482,0.241556 0.87723,0.9535107 0.87723,2.135864 z M 10.644758,5.22524 c -0.03814,0.1779887 -0.111243,0.359156 -0.219308,0.543502 -0.108064,0.1843447 -0.238377,0.4354357 -0.390938,0.753273 h 0.381403 c 0,0.5593933 0.203416,0.83909 0.610248,0.83909 0.406831,0 0.610247,0.120778 0.610247,0.362334 0.266983,-0.1779887 0.60389,-0.2733397 1.010721,-0.286053 l 0.114422,-0.209773 -0.78188,-0.495825 c -0.01271,-0.1271353 0.089,-0.305124 0.305125,-0.533966 0.216129,-0.2288427 0.317836,-0.4004747 0.305123,-0.514896 -0.01271,-0.114422 -0.07628,-0.171633 -0.190702,-0.171633 -0.114421,0 -0.222486,0.057211 -0.324194,0.171633 C 11.642767,5.4032293 11.166011,5.2506673 10.644758,5.22524 Z M 16.423035,0.381404 16.346755,0.343264 14.020188,4.30987 H 10.568479 L 10.6829,4.881976 c 0.546679,0 1.017078,0.1334917 1.411196,0.400475 0.381405,-0.152562 0.629317,-0.101708 0.743738,0.152562 0.114421,0.2542693 0.06675,0.492647 -0.143026,0.715133 -0.209773,0.222486 -0.314659,0.378226 -0.314659,0.46722 l 0.400474,0.228843 z M 5.266956,9.916514 c -0.1525613,0.29241 -0.082637,0.489469 0.209773,0.591177 l 0.629317,-0.01907 C 6.2840347,10.196211 6.2395377,10.005509 5.972555,9.916514 Z M 5.190675,9.458829 3.474356,5.492223 2.005949,10.717463 C 1.8661003,11.060728 1.751679,11.21329 1.662685,11.175149 1.421129,11.073441 1.3257777,10.844598 1.376631,10.488621 1.325778,10.603042 1.2526753,10.70475 1.157324,10.793744 1.061973,10.882744 0.9698,10.908166 0.880806,10.870024 0.76638467,10.831884 0.709174,10.749245 0.709174,10.62211 c 0,-0.127135 0.01907,-0.241556 0.05721,-0.343263 -0.21612867,0.292409 -0.451328,0.394117 -0.705598,0.305123 -0.10170733,-0.03814 -0.07628033,-0.222486 0.076281,-0.553037 L 2.692477,5.396872 3.379004,4.176378 5.705571,9.458829 c 0.7246687,0 1.087003,0.343264 1.087003,1.029792 l 3.013095,3.718693 c 0.1144213,-2.568123 0.502182,-4.4687887 1.163283,-5.701996 0.317837,-0.5721067 0.298766,-0.85816 -0.05721,-0.85816 H 10.663829 L 10.282424,7.475526 C 10.206143,7.373818 10.180716,7.1958293 10.206143,6.94156 10.206143,6.8271387 10.098078,6.750858 9.881949,6.712718 9.6658197,6.6745773 9.6880683,6.4361993 9.948695,5.997584 10.209322,5.5589693 10.333278,5.288808 10.320564,5.1871 10.256997,4.843836 10.155289,4.424291 10.015441,3.928465 h 2.822392 C 12.291154,3.585201 11.766723,3.248294 11.264541,2.917744 10.762358,2.5871933 10.412737,2.259821 10.215678,1.935627 10.018619,1.6114337 9.935982,1.3094887 9.967766,1.029792 9.999549,0.75009533 10.110792,0.55303633 10.301495,0.438615 c 0.190701,-0.11442133 0.381403,-0.15891833 0.572106,-0.133491 0.190703,0.0254267 0.336908,0.088994 0.438615,0.190702 0.101708,0.10170733 0.152562,0.228842 0.152562,0.381404 0,0.1398487 -0.03496,0.2606267 -0.104886,0.362334 -0.06992,0.101708 -0.200238,0.1589187 -0.39094,0.171632 -0.190702,0.012713 -0.321015,-0.060389 -0.39094,-0.219307 -0.06992,-0.1589187 -0.04132,-0.263805 0.08582,-0.314659 0.07628,0 0.139848,0.0572107 0.190701,0.171632 0.05086,0.1144213 0.127136,0.1144213 0.228843,0 0.101708,-0.11442133 0.111243,-0.22566433 0.02861,-0.333729 -0.08264,-0.10806467 -0.241557,-0.13984833 -0.476756,-0.095351 -0.235199,0.0444973 -0.349621,0.24155633 -0.343264,0.591177 0.0064,0.3496207 0.153372,0.7308057 0.543502,1.020257 1.583399,1.1747803 2.580836,1.697249 2.898673,1.697249 h 0.133491 L 16.289543,0 c 0.228843,-0.01271333 0.406831,0.06992433 0.533966,0.247913 l -3.661482,6.579226 c 1.182353,0 1.767174,0.9789377 1.754461,2.936813 h -1.220495 c 0,-1.4366227 -0.241556,-2.180361 -0.724668,-2.231215 h 0.01907 c 0.508539,0.5212527 0.731024,1.725855 0.667457,3.613807 -0.06357,1.887951 -0.241556,3.766368 -0.533966,5.63525 l 0.8963,1.201423 H 5.495799 L 5.400448,17.048777 7.040487,16.572021 C 6.6717963,15.10997 6.214111,13.905368 5.667431,12.958215 5.1207517,12.01106 4.9745467,11.365851 5.228816,11.022587 4.8092713,10.66661 4.6757797,10.304275 4.828341,9.935584 4.383369,9.6177473 4.504147,9.458829 5.190675,9.458829 Z M 1.738966,10.240708 3.035741,5.606645 0.690104,9.840234 Z"
     id="path1"
     sodipodi:nodetypes="cccssccccscccccccccccsccsccccsssccccccccsscccccccccccccscscccccccccscccsscccsssssssssscsssssssccccccccscccccsccccccc" />
  <path
     d="M 10.282424,7.475526 C 10.014482,8.4042467 9.7273015,9.0466514 9.2243761,9.1530174 8.5930457,8.8075725 8.3527483,9.7838768 9.1989854,9.7838767 c 0.6689883,0 1.1731616,-1.2665256 1.4648436,-2.1367187"
     style="fill:#000000;stroke:none"
     id="path1-9"
     sodipodi:nodetypes="ccsc" />
</svg>
