<?xml version="1.0" encoding="UTF-8" standalone="no"?>
<svg
   width="600"
   height="1000"
   version="1.1"
   id="svg1"
   sodipodi:docname="13047.svg"
   inkscape:version="1.4.2 (f4327f4, 2025-05-13)"
   xmlns:inkscape="http://www.inkscape.org/namespaces/inkscape"
   xmlns:sodipodi="http://sodipodi.sourceforge.net/DTD/sodipodi-0.dtd"
   xmlns="http://www.w3.org/2000/svg"
   xmlns:svg="http://www.w3.org/2000/svg">
  <defs
     id="defs1" />
  <sodipodi:namedview
     id="namedview1"
     pagecolor="#ffffff"
     bordercolor="#666666"
     borderopacity="1.0"
     inkscape:showpageshadow="2"
     inkscape:pageopacity="0.0"
     inkscape:pagecheckerboard="0"
     inkscape:deskcolor="#d1d1d1"
     inkscape:zoom="1.0677312"
     inkscape:cx="163.43064"
     inkscape:cy="403.19135"
     inkscape:window-width="1680"
     inkscape:window-height="998"
     inkscape:window-x="-8"
     inkscape:window-y="-8"
     inkscape:window-maximized="1"
     inkscape:current-layer="svg1"
     showguides="true">
    <sodipodi:guide
       position="189.87389,587.06193"
       orientation="0,-1"
       id="guide13"
       inkscape:locked="false" />
    <sodipodi:guide
       position="531.00209,608.98171"
       orientation="0,-1"
       id="guide14"
       inkscape:locked="false" />
  </sodipodi:namedview>
  <path
     style="fill:#000000;stroke:none;stroke-width:1"
     d="m 372.10512,388.85279 c 22.16787,35.92728 34.01727,61.91849 35.54611,77.97112 1.5288,16.05263 -1.52842,31.34065 -9.1725,45.86444 l -8.02667,13.75971 c -6.11529,26.75436 -4.58766,65.35584 4.58527,115.80696 l 4.58723,21.78638 22.42166,90.79352 -249.57888,6.87889 C 183.55056,693.17119 200.87775,637.2871 223.04567,558.5528 l 8.02666,-20.63861 0.56151,-62.34568 c -11.2598,28.18545 -22.34036,58.52245 -33.2411,91.01091 -19.49249,58.09523 -37.64697,135.6835 -54.46402,232.76361 h -1.14583 C 136.6676,875.0197 123.67199,924.32432 103.79734,947.25665 59.461538,971.71779 25.063507,985.47623 0.60237152,988.53391 3.6600134,996.17801 10.539216,1000 21.240981,1000 H 163.42153 c 9.17293,0 13.75973,-7.26258 13.75973,-21.78637 -9.17292,-34.39848 -3.4399,-71.47229 17.19917,-111.22167 20.63908,-39.74934 31.72364,-67.64961 33.25251,-83.70222 l 141.03277,-5.73306 c 11.46618,42.80699 16.81776,76.44025 16.05333,100.90139 -0.76442,24.46117 -7.64366,46.63039 -20.63861,66.50501 -35.92732,22.16795 -65.7405,35.16159 -89.43722,38.98361 -6.8797,10.70176 0.7643,16.05331 22.93222,16.05331 h 115.80889 c 21.4035,0 32.10472,-9.17357 32.10472,-27.51943 -15.28821,-25.22554 -17.1992,-57.90333 -5.73306,-98.03485 11.46619,-40.13158 8.21828,-98.41715 -9.7454,-174.8582 -17.96363,-76.44105 -25.80031,-130.71586 -23.50709,-162.82111 12.99498,-19.11028 19.49277,-38.9851 19.49277,-59.62418 0,-21.4035 -6.30514,-42.80595 -18.91792,-64.20944 -6.68052,-11.33662 -11.5918,-21.49371 -14.73391,-30.47132 -1.86001,-5.3144 -20.23931,6.39132 -20.23931,6.39132 z"
     id="path4"
     sodipodi:nodetypes="cscccccccccsccccsscsccsccsscsscsssc" />
  <path
     style="fill:#000000;stroke:none;stroke-width:1"
     d="m 423.52921,383.73747 c -0.0284,0.0211 -0.057,0.0411 -0.0857,0.0623 -0.0296,0.0219 -0.0458,0.0378 -0.0546,0.0448 0.0192,-0.0134 0.0704,-0.0523 0.14029,-0.10718 z"
     id="path8" />
  <path
     style="fill:none;stroke:#613583;stroke-width:20;stroke-linecap:butt;stroke-linejoin:miter;stroke-dasharray:none;stroke-opacity:1"
     d="m 92.518295,391.01829 97.355595,21.91978 28.10138,-115.31271 c 25.31692,58.56594 25.99833,159.63221 4.31969,231.15098"
     id="path11"
     sodipodi:nodetypes="cccc" />
  <path
     style="fill:#000000;stroke:none;stroke-width:1"
     d="m 320.54883,0.07226562 c -3.20525,0.0947823 -6.29799,0.33612307 -9.2793,0.72265626 C 290.40033,3.5006531 275.01467,13.353825 265.11914,30.355469 248.07182,45.694331 239.78899,56.029781 240.26562,61.359375 220.37709,79.254703 210.73681,91.628145 211.34961,98.480469 l 12.33984,9.255861 c -0.0804,7.68183 -0.13941,13.44427 -0.17968,17.28515 -0.0402,3.84091 0.5067,7.82197 1.64257,11.94141 1.13584,4.11946 -9.83019,14.50152 -32.90039,31.14649 0.6809,7.61369 4.44648,11.1128 11.29883,10.5 12.11387,-1.8508 31.6447,-10.88733 58.58984,-27.11133 -0.50141,11.55675 2.18327,17.9684 6.76954,26.37695 -73.3834,-0.76442 -114.27895,10.32163 -122.6875,33.25391 -8.40851,22.93233 -26.75391,84.46767 -55.037113,184.60547 H 106.0918 c -8.408526,26.75439 -3.05755,72.23678 16.05273,136.44726 -3.05764,32.10523 -0.76518,53.31718 6.87891,63.63672 7.64412,10.31957 13.37719,21.97575 17.19922,34.9707 9.17296,1.52883 9.93709,-10.50944 2.29296,-36.11718 -7.64411,-25.60776 -5.7318,-35.73759 5.73438,-30.38672 2.29324,5.35091 4.39365,12.61418 6.30469,21.78711 1.91103,9.17293 5.92378,13.75974 12.03906,13.75976 -3.82207,-14.52384 -4.77823,-27.32817 -2.86719,-38.41211 1.91103,-11.08395 -1.14556,-20.6397 -9.17187,-28.66601 -8.02632,-8.02632 -13.1853,-16.6259 -15.47852,-25.79883 -2.29321,-11.46615 -0.57291,-30.7658 5.16016,-57.90235 5.73309,-27.13658 7.83549,-44.90984 6.30664,-53.31835 l -40.02758,-6.58024 c 27.51878,-91.7293 49.20089,-157.38498 53.78734,-171.14437 4.58649,-13.75941 57.08892,-21.58308 104.48235,-20.81865 19.07468,11.81416 44.87317,11.71644 59.96869,-2.64901 31.98898,-1.50526 98.40752,-0.54457 118.76185,28.05164 8.40851,16.05259 27.13598,71.09077 56.1836,165.11328 l -49.30469,10.32031 c -3.8221,5.35087 -3.8221,21.97595 0,49.87696 3.82202,27.90098 4.20412,47.58464 1.14649,59.05078 -3.05761,8.40851 -8.79068,16.43398 -17.19922,24.07812 -8.4085,7.64411 -12.22927,16.8178 -11.46485,27.51953 0.76439,10.70176 -0.76587,23.69812 -4.58789,38.98633 6.11525,0 10.51205,-4.58679 13.1875,-13.75976 2.67546,-9.17293 5.15794,-16.05222 7.45117,-20.63868 11.46614,-4.58645 12.61433,5.54143 3.44141,30.38477 -9.17292,24.84332 -9.55695,36.88156 -1.14844,36.11719 5.3509,-12.99496 12.23017,-24.26903 20.63868,-33.82422 8.40854,-9.55512 11.84915,-30.38496 10.32031,-62.49024 24.46113,-63.44605 31.67546,-106.80648 28.43187,-132.42454 l 19.56272,-4.45356 0.16556,-8.74299 C 498.23452,283.74722 476.82872,222.59586 466.12695,204.25 455.42522,185.90416 418.35233,176.73047 354.90625,176.73047 h -19.49023 c 50.45107,-0.76443 73.3847,-32.97712 69.43554,-77.13672 C 400.83421,54.672539 392.18934,26.666737 378.91797,15.574219 365.64658,4.4817025 346.19097,-0.68600801 320.54883,0.07226562 Z M 270.30078,36.798828 c 20.96557,2.729795 38.46723,9.608384 52.5,20.632813 l 2.55274,28.550781 c -10.11452,7.044234 -13.65618,14.651478 -10.62305,22.822268 -7.14947,14.45373 0.48488,43.27806 13.39104,67.45005 -12.17933,18.59106 -31.90848,17.68138 -44.75893,2.71394 -3.79446,-8.10275 -6.90568,-21.84499 -7.92703,-33.26556 18.29771,-18.52053 27.94317,-35.11483 28.93359,-49.785151 C 301.40412,88.50853 296.11374,85.143322 288.5,85.824219 l -11.45703,26.351561 c -3.27451,14.87466 -16.19485,24.85523 -38.76367,29.94336 l -1.85938,-7.89258 c 12.80714,-2.68025 18.80341,-8.58619 17.98633,-17.72265 l -15.05078,-0.95703 -5.08008,-5.30274 c 9.5574,-4.692 13.75197,-9.2889 12.58203,-13.789062 -1.16992,-4.500119 -4.8016,-6.476354 -10.89258,-5.93164 l -2.71093,8.300781 -9.54493,-3.751953 c 4.64874,-8.090369 11.20268,-16.350473 19.65821,-24.78125 5.54625,-6.63569 10.53472,-10.920263 14.96679,-12.851563 19.0343,-1.70224 35.32346,4.51629 48.86719,18.654297 l -1.65429,-5.607422 c -6.75946,-15.512193 -22.31971,-22.178866 -46.6836,-20 z m 71.8418,23.03125 c 0.23069,-0.0033 0.58809,0.102606 0.80078,0.09766 1.63344,-0.03816 3.27298,0.301474 4.91992,1.017578 4.39184,1.909614 6.99737,7.431898 7.81445,16.56836 2.19123,15.920735 -5.33307,26.187294 -22.57226,30.798824 -6.85235,0.61281 -10.65499,-1.15705 -11.41016,-5.31055 -0.7552,-4.153481 2.13599,-6.139596 8.67578,-5.957024 6.53972,0.182624 8.67408,-3.845079 6.40235,-12.083984 -3.93065,-9.625488 -4.57641,-16.858647 -1.93946,-21.699219 2.34928,-1.888917 7.30317,-0.874324 7.08985,-3.259766 -0.0115,-0.127791 0.0803,-0.169885 0.21875,-0.171875 z m -76.61914,0.978516 c -0.79068,-0.04927 -1.50063,-0.04916 -2.13086,0.002 -0.72026,0.0584 -1.33699,0.181531 -1.84766,0.371094 -4.08541,1.516546 -8.51983,5.559352 -13.30469,12.126953 5.04483,4.921057 11.78925,7.386039 20.23243,7.398437 9.82975,-1.646549 18.3121,-5.473883 25.44922,-11.484375 -13.39781,-5.265287 -22.86367,-8.069175 -28.39844,-8.414062 z m -1.90625,4.216797 c -4.98913,4.283457 -4.64854,8.091631 1.02148,11.421875 -5.39765,-0.284757 -9.34167,-1.468993 -11.83008,-3.548828 2.01179,-3.249758 5.6152,-5.873696 10.8086,-7.873047 z m 5.8125,0.630859 c 6.15906,0.216665 12.41987,1.575402 18.7832,4.076172 -5.81863,3.590204 -11.77425,5.658409 -17.86523,6.203125 4.22778,-4.215405 3.92259,-7.642345 -0.91797,-10.279297 z m -42.33203,54.43945 16.19336,0.85352 2.69336,4.36328 -17.23243,0.39062 z"
     id="path1"
     sodipodi:nodetypes="sscccccsccccccccscscscsscsccsccsccscsscscscsccccsscssscccccccccccccccscccccccccscsccsscccssscscccssccccccccccccc" />
  <path
     style="fill:none;stroke:#613583;stroke-width:20;stroke-linecap:butt;stroke-linejoin:miter;stroke-dasharray:none;stroke-opacity:1"
     d="M 531.00209,391.01829 443.62923,412.93807 399.49216,286.01849 C 372.37859,333.09891 373.53321,360.10439 384.2259,391.016"
     id="path13"
     sodipodi:nodetypes="cccc" />
</svg>
