<?xml version="1.0" encoding="UTF-8" standalone="no"?>
<svg
   width="1000"
   height="800"
   version="1.1"
   id="svg1"
   sodipodi:docname="13040.svg"
   inkscape:version="1.4.2 (f4327f4, 2025-05-13)"
   xmlns:inkscape="http://www.inkscape.org/namespaces/inkscape"
   xmlns:sodipodi="http://sodipodi.sourceforge.net/DTD/sodipodi-0.dtd"
   xmlns="http://www.w3.org/2000/svg"
   xmlns:svg="http://www.w3.org/2000/svg">
  <defs
     id="defs1" />
  <sodipodi:namedview
     id="namedview1"
     pagecolor="#ffffff"
     bordercolor="#666666"
     borderopacity="1.0"
     inkscape:showpageshadow="2"
     inkscape:pageopacity="0.0"
     inkscape:pagecheckerboard="0"
     inkscape:deskcolor="#d1d1d1"
     showguides="true"
     inkscape:zoom="0.66733202"
     inkscape:cx="164.08624"
     inkscape:cy="192.55782"
     inkscape:window-width="1680"
     inkscape:window-height="998"
     inkscape:window-x="-8"
     inkscape:window-y="-8"
     inkscape:window-maximized="1"
     inkscape:current-layer="svg1">
    <sodipodi:guide
       position="50.405901,512.86453"
       orientation="1,0"
       id="guide3"
       inkscape:locked="false" />
    <sodipodi:guide
       position="985.30367,519.51073"
       orientation="0,-1"
       id="guide4"
       inkscape:locked="false" />
    <sodipodi:guide
       position="149.54492,474.0957"
       orientation="0,-1"
       id="guide5"
       inkscape:locked="false" />
    <sodipodi:guide
       position="985.30367,519.51073"
       orientation="1,0"
       id="guide6"
       inkscape:locked="false" />
  </sodipodi:namedview>
  <path
     id="path1"
     style="fill:#000000;stroke:none;stroke-width:1"
     d="m 50.40625,280.49023 v 69.78321 L 54.835938,479.875 c -2.215399,25.8463 -0.923075,43.20091 3.876953,52.0625 4.800028,8.86159 7.201171,35.81491 7.201171,80.86133 0,45.04641 -8.677301,73.66297 -26.03125,85.84765 -23.261673,15.13856 -34.8925776,32.12225 -34.8925776,50.95313 v 19.93945 H 23.267578 V 800 h 69.785156 v -30.46094 h 13.291016 c 12.18469,-16.61548 16.61607,-31.38544 13.29297,-44.30859 -3.69233,-13.29239 1.66241,-22.15319 16.0625,-26.58399 14.40008,-4.43079 16.98473,-14.95483 7.7539,-31.57031 -8.86159,-16.61548 -12.92401,-35.44591 -12.18554,-56.49219 0.73846,-21.04627 4.8009,-43.38471 12.18554,-67.01562 7.7539,-23.63091 10.15309,-78.64638 7.19922,-165.04688 0,-14.76932 4.06242,-24.18648 12.18555,-28.24804 H 830.7793 c -27.69247,115.20067 -4.79962,192.18562 68.67773,230.95508 3.32309,72.36965 -6.27757,114.83279 -28.80078,127.38671 -22.52321,12.92316 -33.78516,27.69115 -33.78516,44.30665 v 18.83203 h 22.1543 V 800 h 79.20117 v -28.24609 h 16.61524 c 11.44622,-21.78474 10.33935,-40.06272 -3.32227,-54.83203 0,-12.1847 5.72175,-18.2754 17.16797,-18.2754 11.07699,0 12.73826,-10.89299 4.98438,-32.67773 -8.12312,-21.78474 -7.93767,-41.90749 0.55468,-60.36914 8.12313,-18.46165 15.32265,-30.09255 21.59961,-34.89258 6.64623,-4.80003 5.35383,-11.6306 -3.87695,-20.49219 -32.86173,-20.30781 -49.29102,-47.07763 -49.29102,-80.30859 0,-32.86173 14.2136,-62.58515 42.64453,-89.16992 V 252.86526 l -42.98249,14.03973 -37.68447,-14.03973 -308.60562,0 -85.03807,21.06634 -68.18401,-21.06634 -86.16401,0 -3.74627,49.35328 -24.78578,9.36299 -223.38698,-17.17513 z m 902.2207,-7.13278 v 105.16403 c -24.7386,26.21554 -37.10742,57.22933 -37.10742,93.04493 0,35.8156 16.9837,67.20225 50.95313,94.15625 -20.30781,42.09255 -26.03151,73.29179 -17.16993,93.59961 8.8616,20.3078 5.53904,26.95487 -9.96875,19.93945 -2.21539,8.49235 -5.9069,16.79875 -11.07617,24.92187 -4.80002,8.49236 -2.76979,17.16966 6.0918,26.03125 8.49235,8.86159 5.90771,16.43006 -7.75391,22.70704 h -25.47656 l 6.64648,-16.06055 h -13.84765 l -7.75391,16.06055 h -22.70703 c 0,-12.92315 10.15313,-23.81419 30.46094,-32.67579 20.30781,-9.23082 31.56976,-60.36931 33.78515,-153.41601 C 849.79499,538.39914 828.74886,458.08969 864.56445,325.9043 H 149.54492 c -14.40654,0 -22.12115,14.22338 -21.59961,42.64648 1.69398,92.31927 -1.29261,158.9546 -10.52343,199.93945 -9.60006,40.98486 -10.70888,69.23246 -3.32422,84.74024 7.75389,15.13855 5.72365,27.13841 -6.0918,36 -11.446224,8.49236 -15.137735,17.90757 -11.076172,28.24609 4.061562,9.9693 0.553547,20.67683 -10.523438,32.12305 H 60.375 l 7.753906,-18.27734 H 52.621094 l -11.63086,18.27734 h -8.861328 c 0,-11.44622 9.784171,-23.81504 29.353516,-37.10742 19.569345,-12.92316 29.53897,-43.7554 29.908203,-92.49414 0.369233,-49.10798 -2.029958,-78.277 -7.199219,-87.50782 -5.538494,-9.23082 -7.199772,-26.39997 -4.984375,-51.50781 L 75.882812,369.6582 c 0.738467,-43.56948 9.046811,-66.09142 24.923828,-67.56836 l 241.96273,2.92197 18.29027,-30.88529 z"
     sodipodi:nodetypes="cccsscscccccccscsccccccscccccccsccccsccccccccccccccscsccccccccccccssccccccccccccccccccc" />
  <path
     style="fill:#000000;stroke:none;stroke-width:1"
     d="m 366.43647,276.14004 c 25.39658,0 38.1063,-2.0156 64.30913,-6.04682 53.61502,21.36539 96.14421,26.20283 127.58762,14.51235 31.44339,-11.28738 62.32429,-16.12481 189.30723,-14.51235 126.57981,1.61249 172.76083,6.04682 192.91685,13.30297 20.15601,7.25617 35.07148,0.40314 44.74637,-20.55913 V 84.01133 c 0,-16.14496 -13.67114,-11.935112 -20.47927,-2.428941 -30.79715,43.001871 -49.05901,80.273021 -55.10582,98.413431 -6.0468,18.14042 -62.88677,15.7217 -170.51993,-7.25617 -42.85662,-9.18356 -195.24398,-59.36449 -349.49035,-60.51405 -51.73901,-0.3856 -93.71741,4.74552 -115.1833,18.79108 -13.30297,4.83745 -29.02466,13.50454 -47.16508,26.00128 -22.17164,10.48113 -39.70737,9.67487 -52.60722,-2.41872 v -16.32639 c 58.61669,-9.76944 122.61894,-34.74973 131.8272,-74.871305 2.49412,-10.86723 1.59439,-24.568321 -13.61824,-24.568321 -10.89724,0 -20.94735,7.772164 -11.44348,23.575431 -18.82059,41.451355 -101.52491,51.072295 -112.81228,48.653565 -4.03121,-5.64368 -8.66709,-8.0624 -13.90765,-7.25617 -5.64369,1.61249 -9.07022,0.60469 -10.27958,-3.02339 -1.20936,-3.628088 -4.23276,-3.426535 -9.07021,0.60468 -0.80625,-2.418726 -2.01561,-3.829651 -3.62809,-4.232768 -1.61248,-0.403127 -2.41871,1.007798 -2.41871,4.232768 -4.43433,2.41871 -7.05461,0.60468 -7.86085,-5.44213 -0.80625,-6.046809 -4.0312,-8.667086 -9.6749,-7.860852 -9.67489,3.224968 -18.54353,8.062415 -26.605945,14.512342 -7.659288,6.44993 -16.729491,10.48113 -27.21062,12.09361 C 19.349779,122.3496 2.3368997e-7,148.1493 2.3368997e-7,192.08943 c 0,43.537 11.69049476631003,75.38352 35.07148076631003,95.53954 9.271264,7.99247 21.268089,14.43201 35.990475,19.31861 22.405648,7.4368 51.123984,11.27684 86.155014,11.52011 58.45246,0.40311 128.19229,0.60468 209.2195,0.60468 V 297.6062 Z M 229.77865,188.46135 c 9.27176,-9.67489 22.57473,-18.94666 39.90891,-27.81532 25.34328,-14.89244 67.22791,-21.00277 117.98276,-21.25854 163.49085,3.37623 235.42377,39.97527 395.67003,69.633 91.91144,16.93105 140.2859,13.30297 145.12335,-10.88425 5.24056,-24.18723 16.32637,-47.76977 33.25742,-70.74764 v 93.12082 c 0.80625,32.24964 -7.45772,44.5448 -24.7919,36.88552 -17.73731,-7.25616 -65.32925,-11.48894 -197.14962,-12.69829 -131.41727,-1.20937 -161.89506,3.22497 -188.09788,13.30298 -26.20282,10.48113 -65.70862,5.84524 -118.5174,-13.90767 -33.45899,4.83744 -54.23113,6.65149 -88.49636,5.44212 -34.66835,-1.20936 -61.47587,-1.81403 -80.42252,-1.81403 -18.54355,0 -31.64495,-4.83746 -39.30424,-14.51234 -7.25617,-10.07801 -5.64369,-24.99346 4.83745,-44.74636 z m 114.88931,103.40039 c -66.51487,0.80624 -122.75017,1.41091 -168.70589,1.81403 C 130.00633,294.0789 93.120816,288.63678 65.305506,277.3494 37.490195,265.65891 23.582545,235.62643 23.582545,187.25197 c 0,-20.96225 6.449926,-35.27302 19.349778,-42.93231 3.224968,25.39659 12.698299,41.5214 28.419992,48.37445 -11.287374,1.61248 -17.334182,7.86085 -18.140417,18.7451 -0.403117,11.28737 5.442128,16.93105 17.535736,16.93105 11.69049,0 22.171619,-4.23275 31.443386,-12.69828 10.48113,0.80624 15.72169,-0.80625 15.72169,-4.83744 32.24964,3.22496 56.03375,23.78411 71.35234,61.67741 37.08707,0.80625 88.88804,0.80625 155.40291,0 z M 159.63569,164.27412 c -4.83744,12.89985 -14.91546,22.37318 -30.23403,28.41999 -7.65929,-0.80624 -17.13262,-1.61248 -28.41999,-2.41872 l -4.837449,6.04681 c 7.256169,-0.80625 11.287369,0.80623 12.093619,4.83743 0.80624,4.03121 -2.41873,5.6437 -9.674896,4.83745 -8.465532,6.44993 -15.721693,9.87646 -21.768501,10.27959 -6.046809,0.4031 -9.070214,-2.01562 -9.070214,-7.25618 0,-5.24057 6.449926,-8.66709 19.349779,-10.27957 L 81.027209,188.46135 C 59.661824,167.49909 52.405654,149.15711 59.258707,133.4354 l 4.837437,-2.41872 c -4.031203,6.44994 -2.418723,15.92327 4.837447,28.42 3.224968,5.64368 5.643692,11.28737 7.256171,16.93106 l 4.837447,-1.20936 c -2.418724,-6.44994 -5.240565,-13.70611 -8.465533,-21.76851 -3.224968,-7.65929 -3.829649,-14.51234 -1.814042,-20.55915 2.015606,-6.0468 7.457724,-12.0936 16.326374,-18.14041 8.465532,-7.25617 16.326382,-11.69049 23.582552,-13.30297 4.0312,0 6.0468,3.62807 6.0468,10.88424 2.41872,5.24057 7.05461,5.6437 13.90766,1.20937 l 3.62808,17.53573 c 3.22496,2.41872 5.24056,1.61249 6.04681,-2.41871 l 6.0468,-11.48894 c 4.83744,-0.80624 8.86864,0.20156 12.09361,3.02341 3.62809,2.41872 4.83745,9.47333 3.62809,21.16382 -1.61248,12.09361 -2.41872,19.75289 -2.41872,22.97786 z m 6.65148,7.25616 c 16.93107,8.06241 32.04807,10.88426 45.35105,8.46554 -14.10921,13.30297 -16.93105,37.08708 -8.46553,71.35231 -17.33417,-28.62155 -38.69956,-46.96353 -64.09615,-55.02593 12.09361,-5.24057 21.16382,-13.50454 27.21063,-24.79192 z m -80.422524,-45.35104 -4.837437,1.20936 c 0.806234,1.61248 0,3.62808 -2.418724,6.0468 -2.418723,2.41873 -2.821841,6.44994 -1.209362,12.09362 0,4.83745 2.821841,11.48893 8.465523,19.95446 l 1.209362,8.46553 h 5.442128 v -9.67489 c 4.837447,-16.52794 2.620287,-27.61375 -6.65149,-33.25744 z"
     id="path1-9"
     sodipodi:nodetypes="ccccscssscsccccsscccscscscccsssccccccscccccccccscccscscccscccccccccscssccccccccscccccccccccccccccsccccccc" />
</svg>
