<?xml version="1.0" encoding="UTF-8" standalone="no"?>
<svg
   id="svg2"
   version="1.1"
   inkscape:version="1.4.2 (f4327f4, 2025-05-13)"
   width="700"
   height="1000"
   sodipodi:docname="1306D.svg"
   xmlns:inkscape="http://www.inkscape.org/namespaces/inkscape"
   xmlns:sodipodi="http://sodipodi.sourceforge.net/DTD/sodipodi-0.dtd"
   xmlns="http://www.w3.org/2000/svg"
   xmlns:svg="http://www.w3.org/2000/svg"
   xmlns:rdf="http://www.w3.org/1999/02/22-rdf-syntax-ns#"
   xmlns:cc="http://creativecommons.org/ns#"
   xmlns:dc="http://purl.org/dc/elements/1.1/">
  <metadata
     id="metadata12">
    <rdf:RDF>
      <cc:Work
         rdf:about="">
        <dc:format>image/svg+xml</dc:format>
        <dc:type
           rdf:resource="http://purl.org/dc/dcmitype/StillImage" />
      </cc:Work>
    </rdf:RDF>
  </metadata>
  <defs
     id="defs10" />
  <sodipodi:namedview
     pagecolor="#ffffff"
     bordercolor="#666666"
     borderopacity="1"
     objecttolerance="10"
     gridtolerance="10"
     guidetolerance="10"
     inkscape:pageopacity="0"
     inkscape:pageshadow="2"
     inkscape:window-width="1680"
     inkscape:window-height="998"
     id="namedview8"
     showgrid="false"
     inkscape:zoom="0.26693281"
     inkscape:cx="578.79734"
     inkscape:cy="-46.828264"
     inkscape:window-x="-8"
     inkscape:window-y="-8"
     inkscape:window-maximized="1"
     inkscape:current-layer="svg2"
     inkscape:showpageshadow="2"
     inkscape:pagecheckerboard="0"
     inkscape:deskcolor="#d1d1d1"
     showguides="true">
    <sodipodi:guide
       position="0,1000"
       orientation="0,-1"
       id="guide1"
       inkscape:locked="false" />
  </sodipodi:namedview>
  <path
     style="fill:#000000;stroke:none;stroke-width:0.999997"
     d="M 580.15249,4.4112709e-8 C 577.29127,4.4112709e-8 574.65536,0.71820846 572.2343,2.1484881 564.97115,6.4400703 558.02805,16.828715 551.42515,33.336216 c -2.64113,6.602632 -6.931,14.200467 -12.8736,22.784369 -5.94257,8.583533 -19.96646,19.144498 -42.08612,31.690196 -22.11963,12.545339 -39.29637,26.741739 -51.51173,42.588579 -12.2153,15.84682 -20.96737,28.40631 -26.24967,37.65051 -25.75121,-20.46892 -44.23728,-38.30041 -55.46217,-53.48694 -11.22489,-15.186539 -17.49603,-28.400644 -18.8166,-39.625749 -1.32056,-11.224732 0.006,-19.976813 3.96777,-26.249671 3.96172,-6.272852 9.40589,-10.062924 16.33891,-11.383522 1.73323,-0.333483 3.43996,-0.502468 5.11131,-0.502468 5.01408,0 9.75079,1.481194 14.20774,4.452915 5.94258,3.961799 8.25119,10.577332 6.93061,19.821533 -1.32056,7.923236 -6.93702,12.86793 -16.84137,14.848824 -2.47609,-1.374694 -4.48795,-2.061854 -6.04695,-2.061854 -2.18263,0 -3.47865,1.356885 -3.86381,4.054403 -1.98087,6.603006 0.82739,10.065757 8.42068,10.39591 0.54236,0.02334 1.09137,0.03466 1.62869,0.03466 6.98527,0 13.53435,-1.992506 19.6656,-5.977649 6.60292,-4.291953 9.58346,-15.025228 8.92316,-32.192665 -5.28234,-15.186534 -13.5347,-23.61131 -24.75959,-25.262061 -2.55112,-0.374244 -5.05357,-0.554448 -7.50238,-0.554448 -8.32585,0 -16.05709,2.177609 -23.2002,6.514769 -9.24406,5.612181 -14.5332,17.15545 -15.85378,34.653032 -1.32055,17.497957 4.45092,35.329061 17.32652,53.486941 12.87561,18.15789 33.51528,39.12519 61.90765,62.89526 -5.28229,7.9236 -13.53472,23.10158 -24.75959,45.55141 l -42.58858,0.98762 c 7.92343,26.41166 12.21328,49.85942 12.8736,70.32832 -5.28233,17.82774 -14.36168,36.15884 -27.23727,54.97704 -12.03132,17.58429 -9.78436,26.37096 6.72267,26.37096 1.1584,0 2.37431,-0.0472 3.67323,-0.1213 -4.62204,6.60261 -3.95004,10.56538 1.99255,11.886 -5.28232,3.30146 -5.95432,6.28193 -1.99255,8.92314 3.9617,2.64199 5.28836,9.24053 3.96777,19.80421 -4.42652,64.92269 -38.19776,93.182 -52.96716,93.182 -2.02545,0 -4.00904,-0.36651 -5.96031,-1.07423 -4.84215,-1.76009 -8.8434,-2.63364 -11.98996,-2.63364 -7.85822,0 -15.8028,8.96943 2.58165,19.47501 3.28675,1.87865 7.21875,2.82422 11.79936,2.82422 50.94551,-1.78264 70.56502,-57.2449 84.27617,-97.89482 h 27.72243 c 9.244,7.9236 15.84245,19.48385 19.8042,34.67036 -23.77037,76.59336 -42.91108,188.83657 -57.43739,336.74081 L 226.57031,616.73737 c -7.26318,-11.2251 -16.5149,-20.14951 -27.73977,-26.75215 -12.51074,-15.63867 -28.09781,-23.4428 -46.78158,-23.4428 l -36.40302,5.59648 c -38.956973,19.80877 -50.017581,33.35015 -33.180273,40.61336 15.516396,6.69352 28.073953,18.42099 37.702493,35.20747 4.61645,33.05545 18.29769,68.53372 41.02919,106.41952 23.77033,39.61717 44.89232,97.72871 63.3804,174.32204 l -74.27876,32.67781 3.96776,38.62083 h 422.90559 l -42.58856,-51.49448 c 21.12918,-205.34969 28.3996,-336.57824 21.79676,-393.69313 -6.60292,-57.1148 -20.7991,-88.64274 -42.58859,-94.58543 -15.84691,-16.50714 -22.44537,-33.68398 -19.8042,-51.51173 L 699.99998,30.373382 658.39904,7.5890137 557.36814,190.81691 c 5.9426,-15.18652 10.07745,-33.34532 12.38844,-54.47457 2.311,-21.12921 6.27353,-36.634878 11.886,-46.539009 5.61246,-9.904502 10.7293,-17.829277 15.35129,-23.771979 C 609.53932,50.84482 615.96543,39.284224 616.29561,31.360993 616.62539,23.437392 611.18121,15.839928 599.95673,8.5766256 592.47345,2.8543923 585.87501,4.4112707e-8 580.15249,4.4112709e-8 Z M 587.48164,18.79927 c 1.89488,0 3.73737,0.551726 5.54449,1.663345 7.26311,5.942698 4.95456,18.50218 -6.93061,37.650519 -14.52633,17.167428 -23.2784,31.191521 -26.24968,42.086096 -2.97126,10.89496 -5.60715,24.91868 -7.91822,42.08612 -2.31099,17.16742 -10.08107,45.55988 -23.28685,85.17715 H 403.85521 c 9.90433,-21.12925 20.79262,-40.92458 32.67781,-59.41263 27.07176,-34.33486 48.53839,-55.3018 64.38533,-62.89525 15.84688,-7.593079 27.88949,-15.190908 36.14311,-22.784364 8.25359,-7.593449 17.333,-20.96255 27.23729,-40.110884 8.34053,-15.638223 16.07702,-23.460102 23.18289,-23.460102 z m 78.83559,11.574112 10.89841,5.942995 -183.22789,333.778003 c -4.05178,6.75311 -8.11146,10.11868 -12.16322,10.11868 -1.89082,0 -3.77497,-0.72942 -5.66578,-2.20046 L 454.362,364.15138 c 1.98084,-5.28206 7.59732,-12.38028 16.84137,-21.29429 9.24404,-8.91405 11.22533,-19.97461 5.94301,-33.18027 -2.9346,-7.33628 -8.52152,-11.00234 -16.75475,-11.00234 -6.58657,0 -14.86851,2.33952 -24.84623,7.03457 -22.68987,-13.23564 -42.37512,-19.85619 -59.04876,-19.85619 -0.79399,0 -1.57605,0.0217 -2.35641,0.052 -0.6603,-14.52621 -2.96891,-27.39568 -6.93061,-38.62081 H 545.48214 L 666.31723,30.373355 Z M 371.54126,303.68184 c 17.46454,0 39.45304,6.94893 65.97937,20.8438 5.94263,-6.60299 11.88642,-9.89345 17.82899,-9.89345 5.9426,0 9.07818,2.96315 9.40829,8.90585 0.33015,5.94229 -4.7867,13.69513 -15.35129,23.2695 -10.56462,9.57398 -15.50911,17.67147 -14.84882,24.27445 l 2.96283,1.97523 c -2.64112,13.86596 -9.56694,25.09883 -20.79183,33.68274 -11.22489,8.58352 -26.07572,13.2009 -44.56379,13.86122 -1.32056,0.0741 -2.57055,0.10396 -3.74254,0.10396 -10.54812,0 -15.08696,-2.67418 -13.60129,-8.02219 1.65073,-5.94274 0.49645,-10.88706 -3.46531,-14.84882 3.55536,0.18526 6.73996,0.27722 9.52958,0.27722 15.34295,0 19.10145,-3.07194 11.27956,-9.2177 -6.35528,-4.99335 -11.63115,-7.48506 -15.80177,-7.48506 -1.89576,0 -3.56301,0.51199 -5.00737,1.54206 2.64109,-9.24383 -2.6307,-14.20584 -15.83643,-14.86615 11.52608,-18.54176 20.76042,-35.37039 27.72242,-50.48946 v 8.90583 c 8.17742,-2.49004 15.49828,-3.74253 21.95269,-3.74253 5.53236,0 10.42642,0.90716 14.69289,2.73758 9.244,3.96145 21.7863,6.94225 37.63319,8.92316 l -3.95045,-5.94299 c -15.18662,-5.27054 -27.0742,-9.55482 -35.65796,-12.85627 -3.57656,-1.37472 -7.67623,-2.06186 -12.28451,-2.06186 -6.4487,0 -13.89945,1.34328 -22.36853,4.03708 2.20652,-4.79292 4.17792,-9.41212 5.92566,-13.86122 0.77515,-0.0282 1.56258,-0.052 2.35642,-0.052 z m 10.60384,25.53928 c -8.39666,0 -14.37719,3.07136 -17.91563,9.18307 l -8.90583,5.94298 -0.98761,4.93806 8.90583,0.98761 c 4.91799,3.2793 10.85863,4.92073 17.81166,4.92073 9.85015,0 21.74089,-3.27872 35.67528,-9.85878 h 22.78439 l -0.98762,-5.943 H 416.7288 c -14.22158,-6.772 -25.74514,-10.17067 -34.5837,-10.17067 z m -4.03709,6.20291 c -2.64113,4.62207 -2.31385,8.91176 0.98761,12.87359 -4.62204,-1.3191 -8.58454,-2.29957 -11.886,-2.96283 1.32056,-3.96183 4.95581,-7.26954 10.89839,-9.91076 z m 14.84882,0 16.84137,6.9306 c -6.60285,2.64197 -12.54666,4.62314 -17.82898,5.94299 3.96171,-3.96183 4.28906,-8.25152 0.98761,-12.87359 z m 50.5068,41.60096 28.72736,17.82899 c 1.3206,30.37347 7.26441,51.49539 17.82898,63.38039 -5.65961,-0.7559 -10.99691,-1.12623 -16.00969,-1.12623 -3.75958,0 -7.32937,0.20134 -10.72513,0.62375 -7.92346,0.98939 -15.52117,4.46949 -22.78436,10.41324 -6.60285,-20.46889 -14.85526,-37.31846 -24.75959,-50.52411 17.16752,-12.54569 26.40185,-26.06982 27.72243,-40.59603 z m 38.63813,103.00613 c 25.75121,0 41.60136,14.19607 47.54396,42.58857 9.24403,40.27756 10.88065,103.33342 4.93806,189.17088 -7.92344,97.7226 -17.48512,178.28291 -28.71004,241.67023 l 12.8736,18.81666 H 189.92472 l 67.34817,-27.73978 c -19.14836,-97.06225 -43.57823,-168.19815 -73.29115,-213.42803 -29.71296,-45.22979 -34.67479,-74.6215 -14.86616,-88.15731 6.29577,-4.3019 12.57019,-6.44545 18.79926,-6.44545 13.36973,0 26.58065,9.89623 39.64307,29.71499 l 133.70873,190.17584 23.77198,-1.97528 c 14.52633,-147.90451 29.70452,-258.18361 45.5514,-330.81514 8.58376,-29.05286 25.76051,-43.57618 51.51174,-43.57618 z m -335.30274,107.667 c 14.33441,0 28.04442,7.02814 41.13316,21.08633 -24.43066,0.65953 -40.60815,8.25735 -48.53159,22.7844 -6.60289,-16.50725 -14.68294,-25.75895 -24.25711,-27.73978 -9.57417,-1.98242 -4.28501,-6.42755 15.85376,-13.35871 5.35334,-1.84165 10.61174,-2.77224 15.80178,-2.77224 z"
     id="path4"
     inkscape:connector-curvature="0"
     sodipodi:nodetypes="scsccscssscscccsccscccscssccccssccccscscsccccccccscscccccscccccsccccsscccsccccscscccsccssscscccccscsscccccsccsssccccsccccsccsssccccsccccscccccccccccsccccsccccccscsccccssccccs" />
  <path
     d="m 84.26048,405.16733 c 10.88037,-55.23896 8.16028,-87.25226 -8.16027,-96.03987 -16.32056,-8.78811 -28.66538,-5.23091 -37.03493,10.67109 -8.36956,15.90201 6.69535,44.35812 45.1952,85.36878 z M 115.64594,572.1389 86.7713,456.63982 c -33.47822,7.53246 -61.09721,20.5051 -82.85796,38.91792 -12.55457,-17.57572 -17.99477,-36.40709 -16.32056,-56.49413 29.2932,2.50838 58.5864,-1.67224 87.8796,-12.55409 -58.5864,-48.54312 -78.8827,-88.92597 -60.88793,-121.14853 17.99426,-32.22258 43.10293,-39.33648 75.3255,-21.3422 32.22257,17.99428 36.61637,62.9807 13.18191,134.95828 25.94529,-7.53245 52.72766,-20.08702 80.34715,-37.66275 11.71748,16.7391 17.15764,34.73338 16.32055,53.98332 -31.80401,0 -61.93431,5.02163 -90.39091,15.0649 l 52.24336,133.35716 -45.9646,-11.5838 z"
     style="fill:#000000;stroke:none;stroke-width:1"
     id="path1-1"
     sodipodi:nodetypes="ccscccccccsccccccc" />
</svg>
