<?xml version="1.0" encoding="UTF-8" standalone="no"?>
<svg
   width="700"
   height="1000"
   version="1.1"
   id="svg1"
   sodipodi:docname="13072.svg"
   inkscape:version="1.4.2 (f4327f4, 2025-05-13)"
   xmlns:inkscape="http://www.inkscape.org/namespaces/inkscape"
   xmlns:sodipodi="http://sodipodi.sourceforge.net/DTD/sodipodi-0.dtd"
   xmlns:xlink="http://www.w3.org/1999/xlink"
   xmlns="http://www.w3.org/2000/svg"
   xmlns:svg="http://www.w3.org/2000/svg">
  <defs
     id="defs1" />
  <sodipodi:namedview
     id="namedview1"
     pagecolor="#ffffff"
     bordercolor="#666666"
     borderopacity="1.0"
     inkscape:showpageshadow="2"
     inkscape:pageopacity="0.0"
     inkscape:pagecheckerboard="0"
     inkscape:deskcolor="#d1d1d1"
     inkscape:zoom="4.270925"
     inkscape:cx="311.99331"
     inkscape:cy="489.00414"
     inkscape:window-width="1680"
     inkscape:window-height="998"
     inkscape:window-x="-8"
     inkscape:window-y="-8"
     inkscape:window-maximized="1"
     inkscape:current-layer="svg1"
     showguides="true">
    <sodipodi:guide
       position="257.28477,949.33775"
       orientation="0,-1"
       id="guide7"
       inkscape:locked="false" />
    <sodipodi:guide
       position="159.77148,962.01172"
       orientation="0,-1"
       id="guide8"
       inkscape:locked="false" />
    <sodipodi:guide
       position="257.08717,983.61011"
       orientation="0,-1"
       id="guide9"
       inkscape:locked="false" />
    <sodipodi:guide
       position="424.56836,1000"
       orientation="0.98086857,-0.19467113"
       id="guide10"
       inkscape:locked="false" />
    <sodipodi:guide
       position="255.85938,1000"
       orientation="0.98227369,0.18745237"
       id="guide11"
       inkscape:locked="false" />
    <sodipodi:guide
       position="159.33317,715.98658"
       orientation="0,-1"
       id="guide13"
       inkscape:locked="false" />
    <sodipodi:guide
       position="383.22852,642.46875"
       orientation="-0.70710678,0.70710678"
       id="guide14"
       inkscape:locked="false" />
    <sodipodi:guide
       position="297.19727,642.46875"
       orientation="-0.7071052,-0.70710836"
       id="guide15"
       inkscape:locked="false" />
    <sodipodi:guide
       position="339.6543,694.98047"
       orientation="1,0"
       id="guide16"
       inkscape:locked="false" />
  </sodipodi:namedview>
  <path
     id="path1"
     style="fill:#000000;stroke:none;stroke-width:0.999997"
     d="M 255.85938,0 C 240.96223,10.428017 230.90542,28.30375 225.69141,53.628906 202.60083,42.456042 180.62752,37.243434 159.77148,37.988281 c 20.11115,78.210049 42.82911,130.722219 68.1543,157.537109 13.40741,8.19344 19.73899,16.38665 18.99414,24.58008 -17.13172,10.42798 -30.53949,24.20809 -40.22265,41.33984 -2.97943,-2.23458 -8.93672,-3.35156 -17.875,-3.35156 -26.81486,0 -40.22266,12.28883 -40.22266,36.86914 0,32.02886 12.66117,48.04492 37.98633,48.04492 -0.74489,11.17286 0.37409,16.75785 3.35351,16.75781 l 5.58594,6.70508 -6.70312,13.40625 c -10.42798,0.74485 -16.01488,4.65624 -16.75977,11.73243 -0.74485,7.07614 0.37214,12.47685 3.35156,16.20117 l -24.58008,43.57226 c -55.864279,49.90546 -83.796871,83.42492 -83.796871,100.55664 0.744848,22.34574 33.145371,67.03704 97.203121,134.07422 -17.87656,17.13172 -26.81445,39.84971 -26.81445,68.1543 L 158.6543,927.34766 92.734375,944.10742 C 30.911198,944.10742 0,956.02396 0,979.85938 v 20.11132 h 182.11719 c 41.71202,0.7448 62.56836,-13.03527 62.56836,-41.33984 0,-25.32515 -3.72329,-38.3587 -11.17188,-39.10352 17.8766,-64.80264 26.81445,-104.2813 26.81445,-118.43359 10e-6,-16.38687 -3.72524,-30.53928 -11.17382,-42.45703 20.85599,-9.68309 37.24435,-24.95255 49.16211,-45.8086 -1.48974,43.9466 2.23359,98.32242 11.17187,163.125 -8.19343,24.58034 -12.29101,46.92597 -12.29101,67.03711 0,30.53917 14.15244,45.8086 42.45703,45.8086 v -22.34571 c -14.1523,0 -21.22852,-7.82086 -21.22852,-23.46289 -0.74485,-23.83546 2.23575,-45.43646 8.93945,-64.80273 -6.7037,-63.31291 -9.31004,-116.19742 -7.82031,-158.6543 v -62.56836 c -36.49806,46.1812 -70.38981,76.72002 -101.67383,91.61719 16.38688,23.83543 24.58008,41.33886 24.58008,52.51172 0,17.13172 -9.68253,56.98271 -29.04883,119.55078 8.93828,9.68317 13.40625,20.11038 13.40625,31.2832 0.74489,22.3457 -14.15224,33.14716 -44.6914,32.40235 H 22.345703 c 0.744885,-10.42813 19.367213,-16.38723 55.865235,-17.87696 32.773712,-4.46911 65.546562,-13.77934 98.320312,-27.93164 -5.95886,-80.44462 -11.17342,-141.8966 -15.64258,-184.35351 0,-27.5597 14.89709,-55.49226 44.69141,-83.79688 l 59.2168,-65.91992 v -33.51758 l 11.17382,18.99414 -5.58789,8.9375 c 3.72428,5.9589 9.31118,9.31178 16.75977,10.05665 6.7037,-10e-6 9.86853,-3.35291 9.49609,-10.05665 -0.3724,-6.7037 -3.72339,-17.68939 -10.05469,-32.95898 -6.33126,-15.26958 -9.68224,-30.7252 -10.05468,-46.36719 -0.37245,-15.64206 6.14333,-23.83722 19.55078,-24.58203 16.38687,0 24.58203,5.95928 24.58203,17.87695 -14.89714,0 -22.3457,4.46989 -22.3457,13.40821 0,8.93828 5.58495,13.40625 16.75781,13.40625 0,20.85603 8.19324,31.28515 24.58008,31.28515 v -2.23437 c -14.1523,0 -21.22852,-10.80157 -21.22852,-32.40234 -11.17287,0.74485 -16.75781,-2.6061 -16.75781,-10.05469 0,-6.7037 7.07622,-10.05664 21.22851,-10.05664 1.48974,0 2.23438,-1.11695 2.23438,-3.35157 0,-15.64198 -9.68448,-23.46289 -29.05078,-23.46289 -15.64203,0 -24.5798,7.07623 -26.81446,21.22852 -1.48968,16.38687 1.86321,33.70426 10.05665,51.95312 8.19344,18.24902 12.28906,31.09829 12.28906,38.54688 -5.21402,2.97957 -10.42662,1.86244 -15.64063,-3.35156 l 4.46875,-6.70313 c -6.7037,-20.85603 -17.50516,-43.94632 -32.40234,-69.27148 -14.89714,-25.32516 -24.57967,-48.04311 -29.04883,-68.1543 2.23458,1.48973 7.0768,5.77151 14.52539,12.84766 7.44859,7.07614 14.89715,10.61523 22.34571,10.61523 8.19342,0 12.28906,-5.2146 12.28906,-15.64258 v -49.7832 c 2.33952,16.78271 8.97998,30.77065 18.99414,41.96289 -4.46916,0 -6.70313,3.35095 -6.70313,10.05469 0,8.93828 4.46793,13.4082 13.40625,13.4082 8.93825,0 13.40821,-5.2146 13.40821,-15.64258 l -2.23438,-7.82031 c 11.17287,14.15229 22.71705,21.22852 34.63477,21.22852 v -13.40821 c -16.38684,0 -33.51793,-22.34561 -51.39453,-67.03711 17.13172,5.21401 34.26281,7.82032 51.39453,7.82032 v -7.82032 c -17.13172,0 -36.49681,-2.98059 -58.09766,-8.93945 l 18.99414,68.15625 c 2.97943,11.1729 0.74347,16.75781 -6.70508,16.75781 -6.70374,0 -9.31001,-3.72329 -7.82031,-11.17187 0,3.72427 1.86162,5.58594 5.58594,5.58594 2.97942,0 4.46875,-1.86167 4.46875,-5.58594 l -1.11719,-5.58594 c -12.6626,-20.85599 -18.99219,-39.47836 -18.99219,-55.86523 0,-15.64199 4.46797,-26.06919 13.40625,-31.28321 11.17286,3.72428 16.94592,2.79345 17.31836,-2.79297 0.29095,-4.36441 1.49015,-6.56977 3.59961,-6.61523 0.59065,-0.0127 1.25311,0.14287 1.98633,0.46875 3.35187,1.48969 3.72421,4.28414 1.11719,8.38086 -2.60699,4.09672 -0.93152,7.44767 5.02734,10.05469 5.95885,2.60698 13.03508,3.91015 21.22852,3.91015 V 366.4707 h -18.99219 c 4.46912,-8.19343 2.97784,-13.40798 -4.4707,-15.64258 -8.19344,-3.72426 -14.52498,-1.4903 -18.99414,6.70313 l -5.67383,-5.67383 c -12.61611,9.31222 -20.73888,21.12105 -23.375,35.41211 V 367.58789 C 283.04558,348.96644 298.315,339.6543 313.95703,339.6543 v -3.35157 c -15.64203,-1.48973 -29.04981,4.09717 -40.22265,16.75977 -11.17287,12.66256 -23.46174,18.99414 -36.86915,18.99414 -14.15229,0 -23.46443,-8.1932 -27.93359,-24.58008 h 2.23633 c 3.72427,13.40745 12.28982,20.11133 25.69726,20.11133 11.17286,0 22.53087,-5.95924 34.07618,-17.87695 11.54527,-11.91772 25.8839,-17.87696 43.01562,-17.87696 v -5.58593 c -17.87657,0 -32.95985,6.14539 -45.25,18.43554 -12.29015,12.29016 -22.90352,18.4336 -31.8418,18.4336 -11.17286,0 -17.87674,-6.3296 -20.11132,-18.99219 -2.23458,-12.66256 -0.74526,-24.2087 4.46875,-34.63672 l 35.7539,-3.35156 c 0,9.68317 7.44853,14.52539 22.34571,14.52539 h 16.75781 v 3.35156 h 5.58789 c 0,-18.62141 -8.93984,-27.187 -26.81641,-25.69726 l -27.93164,2.23437 c 14.1523,-5.58643 25.93016,-8.47394 35.33399,-8.66016 9.40382,-0.18621 16.43448,2.32896 21.08984,7.54297 9.31073,10.42802 14.33718,15.64063 15.08203,15.64063 3.60628,0.51518 7.0352,-0.2162 10.28516,-2.19531 -3.09405,3.22186 -5.40404,6.93387 -6.93164,11.13476 l 17.875,-1.11719 v -17.87695 c -2.46061,1.23031 -4.6941,2.60073 -6.70313,4.11328 -0.0988,-22.92657 -9.78183,-41.42809 -29.04883,-55.50781 l 35.75196,14.52344 V 253.625 c -14.1523,-10.42801 -35.37901,-15.64258 -63.6836,-15.64258 -32.77374,0 -54.37476,26.44128 -64.80273,79.32617 -10.42802,-0.74484 -21.5024,3.90472 -25.69922,11.17383 -15.64199,-0.74488 -24.14926,-10.79022 -24.58008,-30.16601 -0.31421,-14.13123 1.92961,-24.80203 20.11133,-25.69922 8.93832,0 18.9951,5.95924 30.16797,17.87695 15.64199,-46.926 58.46971,-70.38867 128.48633,-70.38867 v -12.29102 h -81.56055 c 0,-4.46916 -5.58691,-10.79875 -16.75977,-18.99218 h 98.32032 v -8.93946 H 297.19727 C 298.93147,122.78398 300.85918,61.741253 339.6543,16.5625 V 0 C 329.22628,9.6831313 319.91606,22.718596 311.72266,39.105469 296.82548,18.249473 278.2051,5.2140082 255.85938,0 Z m 3.12695,16.390625 c 20.16566,6.883663 32.49631,16.655722 42.68164,37.238281 -9.74661,28.851273 -15.41695,61.742024 -17.87695,92.736324 -10.31934,-29.632 -23.2212,-58.915607 -42.45704,-83.796871 -3.30543,-19.832503 9.56789,-38.334037 17.65235,-46.177734 z m -83.15039,34.271484 c 69.01779,6.863548 87.99675,68.412341 100.13476,129.220701 L 229.91211,179.2207 C 207.29879,147.86791 184.58655,81.46745 175.83594,50.662109 Z M 275.9707,252.50586 c 32.77375,9.68317 49.16016,27.18852 49.16016,52.51367 -1.48973,2.97943 -3.72565,4.09641 -6.70508,3.35156 -9.68313,-23.83546 -24.95256,-33.70414 -45.80859,-29.60742 -20.856,4.09672 -36.49776,10.24016 -46.92578,18.4336 5.35502,-23.85594 25.11806,-43.63813 50.27929,-44.69141 z m -69.27343,115.08203 c 2.97946,5.21401 8.75255,9.49579 17.31835,12.84766 8.56588,3.35183 19.55354,2.42103 32.96094,-2.79297 v 80.44531 c 0,3.72431 -12.10463,-4.46893 -36.3125,-24.58008 -24.20786,-20.11114 -32.9596,-32.96042 -26.25586,-38.54687 6.70371,-5.58642 10.79937,-14.71046 12.28907,-27.37305 z m 94.9707,36.86914 c 11.91775,31.28401 24.57892,46.92578 37.98633,46.92578 v -42.45508 c -17.13172,0 -29.79289,-1.49127 -37.98633,-4.4707 z m 13.40625,8.93945 h 8.93945 l 11.17188,25.69727 c -12.66256,-8.93828 -19.36648,-17.50383 -20.11133,-25.69727 z m -119.87695,20.5625 c 0.12798,-0.007 0.25325,-0.007 0.375,0 0.89906,0.048 1.62885,0.45648 2.1875,1.22461 2.97943,4.09672 8.19399,8.75084 15.64257,13.96485 -8.19344,29.79428 -41.71289,65.1754 -100.55664,106.14258 L 187.70508,659.19922 181,667.01953 C 124.39083,605.19636 95.713597,566.46433 94.96875,550.82227 c 0.744847,-11.91768 27.18807,-44.3182 79.32813,-97.20313 9.96681,-12.89823 16.93273,-19.45227 20.90039,-19.66016 z m 15.9707,66.58594 c 6.7037,25.32516 16.38627,49.90478 29.04883,73.74024 v 23.46289 l -35.75391,43.57422 -59.21484,-77.0918 c 26.07,-20.11119 48.04331,-41.33985 65.91992,-63.68555 z m 116.19726,25.69727 c -5.21396,0 -8.19456,2.60634 -8.93945,7.82031 3.72427,-2.97943 8.93884,-4.09645 15.64258,-3.35156 v -4.46875 z m 0.13868,8.9375 c -1.02418,0 -2.00058,0.74466 -2.93164,2.23437 -1.86214,2.97943 -1.30365,4.65689 1.67578,5.0293 2.97942,0.37244 4.46875,-1.30502 4.46875,-5.0293 -1.11729,-1.48971 -2.18872,-2.23437 -3.21289,-2.23437 z m -0.13868,20.11133 v 3.35156 l 12.28907,4.46875 v -3.35156 z m 12.28907,18.99414 c -11.17287,0.74484 -16.75782,6.70408 -16.75782,17.87695 0,10.42801 5.58495,15.64258 16.75782,15.64258 z"
     sodipodi:nodetypes="ccccccssccccscccccccsccscscccscccccccscccccccccccccsssccsccccsssscscccscsssccsscccccccccscsccscsssssccccccccccssccssccsssccscccccsscccccccccsccscccccccccccccccccccccccccscccscssscccccccccccscccccccccccccscccsssscsccccccscc" />
  <use
     x="0"
     y="0"
     xlink:href="#path1"
     id="use16"
     transform="matrix(-1,0,0,1,679.3086,0)" />
</svg>
