<?xml version="1.0" encoding="UTF-8" standalone="no"?>
<svg
   width="1250"
   height="1000"
   version="1.1"
   id="svg1"
   sodipodi:docname="1314D.svg"
   inkscape:version="1.4.2 (f4327f4, 2025-05-13)"
   xmlns:inkscape="http://www.inkscape.org/namespaces/inkscape"
   xmlns:sodipodi="http://sodipodi.sourceforge.net/DTD/sodipodi-0.dtd"
   xmlns="http://www.w3.org/2000/svg"
   xmlns:svg="http://www.w3.org/2000/svg">
  <defs
     id="defs1" />
  <sodipodi:namedview
     id="namedview1"
     pagecolor="#ffffff"
     bordercolor="#666666"
     borderopacity="1.0"
     inkscape:showpageshadow="2"
     inkscape:pageopacity="0.0"
     inkscape:pagecheckerboard="0"
     inkscape:deskcolor="#d1d1d1"
     showguides="true"
     inkscape:zoom="0.3708"
     inkscape:cx="443.63538"
     inkscape:cy="349.24488"
     inkscape:window-width="1680"
     inkscape:window-height="998"
     inkscape:window-x="-8"
     inkscape:window-y="-8"
     inkscape:window-maximized="1"
     inkscape:current-layer="svg1">
    <sodipodi:guide
       position="59.668285,430.96009"
       orientation="0,-1"
       id="guide4"
       inkscape:locked="false" />
    <sodipodi:guide
       position="0,421.23272"
       orientation="1,0"
       id="guide5"
       inkscape:locked="false" />
    <sodipodi:guide
       position="1196.8341,430.96009"
       orientation="1,0"
       id="guide6"
       inkscape:locked="false" />
    <sodipodi:guide
       position="-8.4277236,430.96009"
       orientation="1,0"
       id="guide7"
       inkscape:locked="false" />
  </sodipodi:namedview>
  <path
     id="path1"
     style="fill:#000000;stroke:none;stroke-width:1"
     d="m 63.072754,586.49745 v 17.50474 H 130.56462 L 82.23948,586.49745 Z m 67.491866,17.50474 98.41353,35.65006 264.6271,223.4936 V 1000 h 82.26699 V 894.68168 c 38.39158,4.5704 66.0433,-2.96995 82.9538,-22.62277 16.91073,-19.65281 26.2804,-38.62196 28.1084,-56.90361 19.19577,-3.65634 36.33559,-13.25358 51.41797,-28.793 15.08241,-15.53941 18.73878,-38.3903 10.96908,-68.55509 -7.76976,-30.16479 -17.59675,-56.21697 -29.47982,-78.15496 h 467.55393 v -53.1548 h -41.1335 v 17.50474 z m 157.37095,35.65006 H 493.60525 V 813.7861 Z m 287.93667,0 h 38.39288 c 17.3676,43.87604 28.33683,85.46631 32.90723,124.77189 4.5704,39.30568 -1.60023,66.04269 -18.51073,80.21098 -16.9106,14.16841 -34.5077,15.76781 -52.78938,4.79884 z m 72.66933,0 h 34.27864 c 13.71124,20.10982 24.45287,46.162 32.22263,78.15496 7.76966,31.99292 -1.59996,51.64471 -28.1084,58.95742 C 676.8795,720.0914 664.08097,674.38744 648.54157,639.65225 Z"
     sodipodi:nodetypes="cccccccccccscssccccccccccccssccccscc" />
  <path
     id="rect1"
     style="fill:#63452c;fill-rule:evenodd;stroke-width:39.9999;stroke-linecap:round;stroke-linejoin:round;stroke-miterlimit:2"
     d="m 1196.8341,569.03991 v 70.61217 H -8.4277236 v -70.61217 z"
     sodipodi:nodetypes="ccccc" />
  <path
     style="fill:#000000;stroke:none;stroke-width:1"
     d="m 166.26556,101.54661 c 0,21.02711 10.5133,31.97865 31.54042,32.85508 21.02711,-0.87545 31.97865,-11.82797 32.85508,-32.85508 -0.87545,-19.274726 -11.82797,-28.912085 -32.85508,-28.912085 -21.02712,0 -31.54042,9.637359 -31.54042,28.912085 z M 354.35715,59.492387 c 35.04519,85.860833 -5.69488,138.428873 -122.2202,157.703593 69.21444,-28.91259 100.09803,-64.83373 92.65078,-107.76438 -7.44726,-42.930172 -34.38835,-64.39551 -80.82329,-64.39551 -56.94825,0 -71.56628,9.637855 -90.84101,28.912594 -3.50674,11.389743 -10.95153,15.770456 -22.34128,13.141631 -2.62635,10.51381 1.7509,24.970105 13.14212,43.368895 h -27.59842 c 25.40784,0 44.02572,19.05561 55.8532,57.16735 11.82797,38.11174 34.82657,66.80472 68.99532,86.07995 -2.62634,64.83323 29.35032,127.91456 95.93642,189.24402 l -55.19635,47.31088 H 61.129985 c -25.407825,30.66447 -25.407825,45.99673 0,45.99673 H 1134.8275 c 19.2747,0.87544 18.837,-14.45581 -1.3158,-45.99673 -36.7974,-5.25665 -78.8517,-14.01808 -126.1626,-26.28377 C 885.56664,430.53367 779.11692,381.47041 687.99942,336.78784 596.88194,292.10479 540.59051,259.25021 519.12519,238.2231 497.66035,217.19598 449.41566,182.1508 421.3795,133.08753 393.34335,84.024268 371.00207,59.492387 354.35567,59.492387 Z M 631.49039,265.82104 c 22.77949,14.89451 69.21443,38.54994 139.3048,70.9668 96.37465,44.68257 171.72168,77.75626 226.04161,99.22159 54.3199,21.46533 99.6598,33.29281 136.0192,35.48341 36.3593,2.1911 54.539,30.44537 54.539,84.7653 0,21.0271 -4.8175,30.66448 -14.4558,28.91258 H 23.018249 C -6.7702857,584.29527 -7.6467247,558.01051 20.3919,506.31893 c 0,-16.6464 13.579856,-24.96962 40.740063,-24.96962 H 250.376 l 30.22625,-17.08462 c -54.31992,-70.96682 -81.0419,-129.22922 -80.16597,-174.78821 -32.41685,-28.91211 -52.56753,-58.48153 -60.45301,-88.70828 -7.88498,-30.22625 -18.39879,-45.33939 -31.54043,-45.33939 -11.389749,-1.7509 -23.217707,1.31564 -35.483405,9.19914 0,-49.06327 14.894027,-78.413579 44.682555,-88.050937 -2.62634,-20.151169 7.00904,-29.350324 28.91259,-27.597928 C 167.5817,19.190535 194.24631,4.0774069 273.53633,3.6391925 352.82586,3.1940466 410.86966,34.303675 447.66673,96.946787 484.46431,159.59042 536.8706,199.23541 557.89771,215.88181 Z"
     id="path2398"
     sodipodi:nodetypes="cccscccssccccsccccccccsssccsssscccccccsscccssccs" />
</svg>
