<?xml version="1.0" encoding="UTF-8" standalone="no"?>
<svg
   version="1.1"
   id="svg2"
   sodipodi:docname="13172.svg"
   width="1100"
   height="1000"
   inkscape:version="1.4.2 (f4327f4, 2025-05-13)"
   xmlns:inkscape="http://www.inkscape.org/namespaces/inkscape"
   xmlns:sodipodi="http://sodipodi.sourceforge.net/DTD/sodipodi-0.dtd"
   xmlns:xlink="http://www.w3.org/1999/xlink"
   xmlns="http://www.w3.org/2000/svg"
   xmlns:svg="http://www.w3.org/2000/svg">
  <defs
     id="defs2" />
  <sodipodi:namedview
     id="namedview2"
     pagecolor="#ffffff"
     bordercolor="#666666"
     borderopacity="1.0"
     inkscape:showpageshadow="2"
     inkscape:pageopacity="0.0"
     inkscape:pagecheckerboard="0"
     inkscape:deskcolor="#d1d1d1"
     showguides="true"
     inkscape:zoom="0.755"
     inkscape:cx="257.61589"
     inkscape:cy="627.15232"
     inkscape:window-width="1680"
     inkscape:window-height="998"
     inkscape:window-x="-8"
     inkscape:window-y="-8"
     inkscape:window-maximized="1"
     inkscape:current-layer="svg2">
    <sodipodi:guide
       position="241.73021,422.66895"
       orientation="1,0"
       id="guide2"
       inkscape:locked="false" />
  </sodipodi:namedview>
  <path
     id="path1"
     style="fill:#000000;stroke:none;stroke-width:1"
     d="M 241.73047 577.33008 C 216.35627 577.33008 2.8421709e-14 581.94288 0 805.04883 L 0 822.56445 L 241.73047 822.56445 L 241.73047 789.2832 L 36.785156 789.2832 C 41.883314 617.93963 211.648 610.61328 241.73047 610.61328 L 241.73047 577.33008 z " />
  <path
     d="m 442.47402,35.524256 c -13.87149,0 -20.80723,8.15969 -20.80723,24.47907 0,13.871462 6.93574,20.807193 20.80723,20.807193 14.68745,-0.815936 22.03117,-8.567635 22.03117,-23.255097 0,-14.687445 -7.34372,-22.031166 -22.03117,-22.031166 z m -80.78099,15.911372 v 22.031161 l -47.73416,8.567707 C 328.64632,66.531065 344.5577,56.331442 361.69303,51.435628 Z m 2.44791,29.374891 c 18.76731,14.687478 22.03119,25.703071 9.79163,33.046781 -18.76727,-6.52776 -32.63875,-15.095451 -41.61442,-25.70307 z m 85.67682,-56.301872 c 38.35056,0 68.94942,14.687443 91.79656,44.062329 22.84712,29.374924 35.08665,74.661234 36.71859,135.858934 59.56573,12.23952 99.14025,39.16651 118.72355,80.78096 3.17078,26.9503 -2.89869,40.42545 -18.20844,40.42545 -0.45024,0 -0.90852,-0.0117 -1.37482,-0.035 -16.31936,-0.81601 -29.17087,-5.30385 -38.55453,-13.46352 -3.41233,-2.96716 -5.98836,-4.45074 -7.7281,-4.45074 -3.04459,0 -3.52844,4.54348 -1.45154,13.63043 3.26375,14.27946 21.21504,31.6188 53.85392,52.01806 32.63883,20.3992 35.29076,37.33055 7.9558,50.79404 -6.78237,3.34057 -14.00429,5.01086 -21.66577,5.01086 -23.21653,0 -50.46932,-15.33776 -81.75838,-46.01328 -41.61443,-40.79851 -63.64561,-71.80535 -66.09353,-93.02053 -2.44799,-21.21519 6.11971,-40.79845 25.70311,-58.74977 11.64409,-10.67378 15.64347,-16.01066 11.99813,-16.01066 -2.48533,0 -8.52464,2.48098 -18.11793,7.44294 -23.66313,12.23957 -36.10667,30.1909 -37.33062,53.85397 -1.22381,23.66313 8.15984,49.57016 28.15097,77.7211 19.9912,28.15094 59.36171,63.8496 118.11151,107.09598 6.00552,3.1333 12.80484,4.69995 20.39796,4.69995 16.1353,0 35.85499,-7.07444 59.15907,-21.22332 34.2707,-20.80724 17.13536,-52.83405 -51.40605,-96.08045 25.29507,-6.52774 38.35057,-17.5433 39.16651,-33.0467 31.82278,10.60757 121.17142,109.33985 268.04592,296.19684 39.16655,26.11101 59.15775,45.28629 59.97375,57.52586 -0.8161,11.4236 -6.9359,18.35933 -18.3593,20.80721 -2.4479,0.52455 -4.9334,0.78682 -7.4561,0.78682 -9.2504,0 -19.0046,-3.52615 -29.26255,-10.57844 -45.6943,22.03118 -89.96063,33.45475 -132.79898,34.27072 -2.25461,0.0448 -4.48833,0.0672 -6.70115,0.0672 -39.83109,0 -72.88805,-6.95721 -99.17088,-20.87162 v 0 c 26.92699,23.66308 36.31065,48.55012 28.15099,74.66114 -3.95626,12.65991 -6.9534,18.98986 -8.99143,18.98986 -2.16537,0 -3.24806,-7.14591 -3.24806,-21.43773 0,-27.74299 -35.49467,-54.26198 -106.484,-79.55698 v 46.51022 c -4.17937,17.55329 -7.50247,26.32993 -9.96932,26.32993 -2.34944,0 -3.92213,-7.96069 -4.7181,-23.88207 -4.89595,-35.08855 -16.52359,-72.82805 -34.88292,-113.21852 -18.35925,-40.3905 -47.53014,-96.2844 -87.51266,-167.68168 -39.9825,-71.39732 -65.48154,-122.80338 -76.4971,-154.21819 -11.01561,-31.41483 -16.11543,-60.58575 -15.29945,-87.51274 0.81596,-26.927 -4.69185,-46.71426 -16.52342,-59.36177 -11.83152,-12.6475 -15.29937,-26.31498 -10.40355,-41.00243 4.89581,-14.687479 -2.44793,-28.558971 -22.03123,-41.614474 V 50.2117 C 404.93943,33.076331 426.97062,24.508647 449.81776,24.508647 Z M 682.36898,729.50615 c 39.98252,11.42359 59.97379,24.88708 59.97379,40.39047 l -40.39053,150.54639 c -3.26374,17.95131 -14.27931,26.92697 -33.04671,26.92697 h -48.95819 v -2.44781 L 682.36898,753.98529 Z M 454.23477,0.00175667 c -1.46106,0 -2.93341,0.00927266 -4.41703,0.02781799 -31.82282,0 -64.05361,13.05550634 -96.69237,39.16651734 -18.7673,6.527752 -37.94259,21.623187 -57.52585,45.286307 26.927,24.479081 51.40607,39.574511 73.43721,45.286321 2.44793,11.42356 10.19964,27.33494 23.25516,47.73415 0.81593,53.85401 8.15965,98.52835 22.03116,134.02303 13.87149,35.49464 60.38176,130.75906 139.53082,285.79325 39.16651,81.59691 58.74976,131.779 58.74976,150.54628 0,28.55897 -17.95133,92.61256 -53.85397,192.16078 0,5.71181 -24.47908,10.19965 -73.43724,13.46351 -73.43726,2.44799 -110.15589,12.64764 -110.15589,30.59891 0,10.60757 4.89582,15.91137 14.68745,15.91137 H 715.4158 c 20.39919,-16.3194 31.82276,-30.19088 34.27067,-41.61443 13.19659,5.49858 25.38794,14.39849 26.64969,25.12323 2.7485,10.99413 6.65427,16.4912 11.71733,16.4912 0.94942,0 1.93951,-0.1932 2.9703,-0.57961 6.52776,-2.44799 9.79164,-7.75179 9.79164,-15.91137 -5.71182,-22.03114 -14.81816,-35.32286 -37.66528,-55.72212 l 39.16651,-165.23377 c 79.14903,-2.448 148.09849,-15.09553 206.84834,-37.94261 10.8796,2.448 20.8525,3.672 29.9188,3.672 18.1326,0 32.6388,-4.89581 43.5184,-14.68741 16.3194,-14.68749 13.0554,-37.53464 -9.7917,-68.54145 C 1023.0363,595.2793 975.70995,540.60925 930.83166,481.04349 838.62713,367.62376 775.38949,301.93822 741.11875,283.98687 729.6952,260.32379 716.02773,241.5565 700.11636,227.68502 684.20495,213.81356 655.44203,196.67821 613.8276,176.27896 613.01162,128.13676 601.79204,86.522314 580.16886,51.435628 559.03713,17.146381 517.0591,0.00175667 454.23477,0.00175667 Z"
     style="fill:#000000;stroke:none;stroke-width:1"
     id="path2"
     sodipodi:nodetypes="sscssccccccccssccssssssssssssccscssccccssccssssssccscssssssccscccsccccscccccscsccsscccscccccsscccscss" />
  <use
     x="0"
     y="0"
     xlink:href="#path1"
     id="use2" />
  <use
     x="0"
     y="0"
     xlink:href="#use2"
     id="use3"
     transform="matrix(-1,0,0,1,483.46094,0)" />
</svg>
