<?xml version="1.0" encoding="UTF-8" standalone="no"?>
<svg
   width="1100"
   height="1000"
   id="svg2693"
   sodipodi:version="0.32"
   inkscape:version="1.4.2 (f4327f4, 2025-05-13)"
   sodipodi:docname="13204.svg"
   inkscape:output_extension="org.inkscape.output.svg.inkscape"
   version="1.0"
   xmlns:inkscape="http://www.inkscape.org/namespaces/inkscape"
   xmlns:sodipodi="http://sodipodi.sourceforge.net/DTD/sodipodi-0.dtd"
   xmlns:xlink="http://www.w3.org/1999/xlink"
   xmlns="http://www.w3.org/2000/svg"
   xmlns:svg="http://www.w3.org/2000/svg"
   xmlns:rdf="http://www.w3.org/1999/02/22-rdf-syntax-ns#"
   xmlns:cc="http://creativecommons.org/ns#"
   xmlns:dc="http://purl.org/dc/elements/1.1/">
  <metadata
     id="metadata2700">
    <rdf:RDF>
      <cc:Work
         rdf:about="">
        <dc:format>image/svg+xml</dc:format>
        <dc:type
           rdf:resource="http://purl.org/dc/dcmitype/StillImage" />
      </cc:Work>
    </rdf:RDF>
  </metadata>
  <defs
     id="defs2698">
    <inkscape:perspective
       sodipodi:type="inkscape:persp3d"
       inkscape:vp_x="0 : -791.00839 : 1"
       inkscape:vp_y="0 : 1000 : 0"
       inkscape:vp_z="31.497665 : -791.00839 : 1"
       inkscape:persp3d-origin="15.748833 : -794.00559 : 1"
       id="perspective2702" />
  </defs>
  <sodipodi:namedview
     inkscape:window-height="998"
     inkscape:window-width="1680"
     inkscape:pageshadow="2"
     inkscape:pageopacity="0.0"
     guidetolerance="10.0"
     gridtolerance="10.0"
     objecttolerance="10.0"
     borderopacity="1.0"
     bordercolor="#666666"
     pagecolor="#ffffff"
     id="base"
     showgrid="false"
     inkscape:zoom="0.43058409"
     inkscape:cx="361.13736"
     inkscape:cy="505.12781"
     inkscape:window-x="-8"
     inkscape:window-y="-8"
     inkscape:current-layer="svg2693"
     inkscape:showpageshadow="2"
     inkscape:pagecheckerboard="0"
     inkscape:deskcolor="#d1d1d1"
     showguides="true"
     inkscape:window-maximized="1">
    <sodipodi:guide
       position="1388.8112,377.58964"
       orientation="1,0"
       id="guide1"
       inkscape:locked="false" />
    <sodipodi:guide
       position="93.681487,255.06572"
       orientation="0,-1"
       id="guide3"
       inkscape:locked="false" />
    <sodipodi:guide
       position="0,0"
       orientation="0,-1"
       id="guide4"
       inkscape:locked="false" />
    <sodipodi:guide
       position="1079.991,22.36424"
       orientation="-0.10960212,-0.99397554"
       id="guide5"
       inkscape:locked="false" />
    <sodipodi:guide
       position="149.29314,255.06573"
       orientation="0.99397554,-0.10960212"
       id="guide6"
       inkscape:locked="false" />
    <sodipodi:guide
       position="149.29314,255.06572"
       orientation="-0.99397554,-0.10960212"
       id="guide7"
       inkscape:locked="false" />
  </sodipodi:namedview>
  <path
     style="fill:#ff7800;stroke:none;stroke-width:1"
     d="m 994.07458,622.08039 c 6.18322,0 12.05232,3.21633 14.92542,5.38928 3.0479,2.30524 5.3783,4.75473 5.3523,8.02881 l 2.6761,259.59794 c 0.08,4.26436 -1.7424,8.15651 -5.3523,10.70501 -2.7747,1.95844 -7.2397,2.94568 -11.8694,2.94568 -1.39477,0 -2.80502,-0.0898 -4.18802,-0.26953 L 179.35708,828.1897 c -49.50136,-4.90145 -86.985051,-39.80448 -85.640535,-85.64054 0.686974,-23.42038 19.924915,-44.88822 40.144035,-56.20164 21.02796,-11.76605 44.19926,-14.9167 64.23038,-16.05761 l 794.85139,-48.17278 c 0.37797,-0.0249 0.75594,-0.0367 1.13205,-0.0367 z m 3.48228,-24.2039 c -1.55897,0 -3.10059,0.0549 -4.61494,0.15422 L 195.4147,646.20349 c -22.89303,1.30393 -50.02712,4.79667 -74.93547,18.73388 -25.71726,14.38984 -49.830818,42.89843 -50.849104,77.61179 -1.747208,59.56322 49.837944,103.79694 109.726954,109.72696 l 813.58527,80.288 c 2.29012,0.29742 4.5096,0.44861 6.67171,0.44861 9.13764,0 17.26014,-2.70137 25.44354,-8.47766 10.1196,-7.143 16.2592,-18.90682 16.0576,-29.43865 l -2.6762,-259.59794 c 0.083,-10.76289 -3.7998,-22.19267 -13.3814,-29.43896 -8.2114,-6.21028 -18.1582,-8.18303 -27.5005,-8.18303 z m 51.34584,-26.83872 c 4.5808,0 8.5647,0.69522 10.9461,2.90652 3.2351,3.00418 5.3901,10.14897 5.3523,16.05762 l 2.6762,358.61982 c 0.1115,7.05594 -1.5615,12.77201 -5.3523,16.05762 -2.6291,2.27853 -6.6522,3.11167 -10.7314,3.11167 -1.8031,0 -3.6168,-0.16296 -5.3263,-0.43559 L 128.50804,857.62866 C 74.721927,851.08967 30.585613,803.19659 32.162426,737.19656 32.986832,702.68917 52.628335,674.94258 74.982664,659.58483 98.383038,643.50857 122.54617,637.03836 144.56565,635.49848 l 899.22585,-64.23045 c 1.7498,-0.14091 3.4687,-0.23026 5.1113,-0.23026 z m -1.3478,-32.03591 c -1.2615,0 -2.5169,0.0506 -3.7636,0.15094 l -899.22565,64.23045 c -26.40077,1.84629 -57.22284,9.91562 -85.640537,29.43896 C 29.461372,653.06406 1.1464092,691.18763 0.04720088,737.19656 -1.8635876,817.17717 53.544631,881.28097 123.1555,889.74382 l 917.9597,109.72702 c 2.2375,0.3569 4.5165,0.52916 6.814,0.52916 12.761,0 26.0937,-5.31995 36.0062,-13.91069 11.6974,-10.13769 16.267,-24.03053 16.0578,-37.46776 l -2.6763,-358.61964 c 0.085,-13.53266 -5.0461,-27.24277 -16.0577,-37.46777 -9.9349,-9.22529 -22.0643,-13.53228 -33.7043,-13.53228 z"
     id="path1" />
  <path
     style="fill:none;fill-rule:evenodd;stroke:#613583;stroke-width:40;stroke-linejoin:round;stroke-miterlimit:2;stroke-dasharray:none"
     id="path4"
     sodipodi:type="arc"
     sodipodi:cx="149.29314"
     sodipodi:cy="744.93427"
     sodipodi:rx="129.29314"
     sodipodi:ry="129.29314"
     sodipodi:start="1.6806124"
     sodipodi:end="4.6025729"
     sodipodi:arc-type="arc"
     d="M 135.12319,873.44858 A 129.29314,129.29314 0 0 1 20,744.93427 129.29314,129.29314 0 0 1 135.12319,616.41996"
     sodipodi:open="true" />
  <path
     style="fill:none;stroke:#613583;stroke-width:40;stroke-linecap:butt;stroke-linejoin:miter;stroke-dasharray:none;stroke-opacity:1"
     d="M 1079.991,744.93428 V 977.63576 L 135.12234,873.44848"
     id="path5"
     sodipodi:nodetypes="ccc" />
  <use
     x="0"
     y="0"
     xlink:href="#path5"
     id="use6"
     transform="matrix(1,0,0,-1,0,1489.8686)" />
  <path
     id="use3"
     style="fill:none;stroke:#613583;stroke-width:50;stroke-linecap:butt;stroke-linejoin:miter;stroke-dasharray:none;stroke-opacity:1"
     d="M 1074.9866,146.04815 V -84.322555 L 139.04814,18.821083 C 74.142207,25.973939 25.013365,80.785618 25.013364,146.04809 c 1e-6,65.26247 49.128839,120.07419 114.034776,127.22704 l 935.93846,103.14368 v -230.3707"
     sodipodi:nodetypes="ccssscc" />
</svg>
