<?xml version="1.0" encoding="UTF-8" standalone="no"?>
<!-- Created with Inkscape (http://www.inkscape.org/) -->

<svg
   width="1100"
   height="1000"
   viewBox="0 0 1100 1000"
   version="1.1"
   id="svg1"
   inkscape:version="1.4.2 (f4327f4, 2025-05-13)"
   sodipodi:docname="1325F.svg"
   xmlns:inkscape="http://www.inkscape.org/namespaces/inkscape"
   xmlns:sodipodi="http://sodipodi.sourceforge.net/DTD/sodipodi-0.dtd"
   xmlns="http://www.w3.org/2000/svg"
   xmlns:svg="http://www.w3.org/2000/svg">
  <sodipodi:namedview
     id="namedview1"
     pagecolor="#ffffff"
     bordercolor="#666666"
     borderopacity="1.0"
     inkscape:showpageshadow="2"
     inkscape:pageopacity="0.0"
     inkscape:pagecheckerboard="0"
     inkscape:deskcolor="#d1d1d1"
     inkscape:document-units="px"
     inkscape:zoom="0.755"
     inkscape:cx="515.89404"
     inkscape:cy="480.13245"
     inkscape:window-width="1680"
     inkscape:window-height="998"
     inkscape:window-x="-8"
     inkscape:window-y="-8"
     inkscape:window-maximized="1"
     inkscape:current-layer="layer1"
     showguides="true"
     showgrid="false">
    <inkscape:grid
       id="grid2"
       units="px"
       originx="0"
       originy="0"
       spacingx="1"
       spacingy="1"
       empcolor="#3f3fff"
       empopacity="0.25098039"
       color="#3f3fff"
       opacity="0.1254902"
       empspacing="5"
       enabled="true"
       visible="false" />
    <sodipodi:guide
       position="203.33301,675.49669"
       orientation="0,-1"
       id="guide4"
       inkscape:locked="false" />
    <sodipodi:guide
       position="550,500"
       orientation="1,0"
       id="guide5"
       inkscape:locked="false" />
  </sodipodi:namedview>
  <defs
     id="defs1" />
  <g
     inkscape:label="Layer 1"
     inkscape:groupmode="layer"
     id="layer1">
    <path
       style="baseline-shift:baseline;display:inline;overflow:visible;opacity:1;vector-effect:none;fill:#000000;fill-rule:evenodd;stroke-linecap:round;enable-background:accumulate;stop-color:#000000;stop-opacity:1"
       d="m 700.11914,459.06055 c -0.86161,0.90096 -3.25542,3.3975 -5.1582,4.87695 0.3754,-0.0623 0.75376,-0.11412 1.1289,-0.17773 4.22125,-4.90556 4.89091,-5.60019 4.0293,-4.69922 z"
       id="path7" />
    <path
       style="baseline-shift:baseline;display:inline;overflow:visible;opacity:1;vector-effect:none;fill:#000000;fill-rule:evenodd;stroke-linecap:round;enable-background:accumulate;stop-color:#000000;stop-opacity:1"
       d="m 348.79883,453.63672 c -0.8351,0.006 -1.53718,0.009 -2.13281,0.01 V 1000 H 753.33398 V 472.17578 c -1.95306,0.0116 -3.9051,-0.0488 -5.85742,-0.32226 -2.15097,-0.30125 -5.51958,-1.15603 -7.64844,-1.66407 -6.58316,-1.33662 -13.22135,-2.39615 -19.8496,-3.48047 -0.72568,-0.11872 -8.50788,-1.39364 -10.01954,-1.54687 -0.86534,-0.088 -1.74001,-0.0531 -2.60937,-0.0801 -3.45194,-0.0158 -6.84636,-0.68214 -10.27734,-0.96289 -0.71255,-0.0583 -1.42585,-0.0892 -2.14063,-0.10352 -0.0208,-4e-4 -0.0465,6e-4 -0.0742,0.002 -0.0866,0.0662 -0.17171,0.12994 -0.25586,0.1914 -0.10414,0.0761 -0.62107,0.0993 -1.26758,0.0977 v 87.45898 H 520 V 940 H 406.66602 V 454.51172 c -1.65148,-0.14399 -3.30353,-0.27791 -4.95899,-0.35352 -6.66702,-0.30446 -13.34386,-0.32427 -20.01562,-0.49609 -10.96268,-0.29348 -21.92885,-0.10719 -32.89258,-0.0254 z M 580,611.76562 H 693.33398 V 940 H 580 Z"
       id="path16" />
    <path
       style="baseline-shift:baseline;display:inline;overflow:visible;opacity:1;vector-effect:none;fill:#000000;fill-rule:evenodd;stroke-linecap:round;enable-background:accumulate;stop-color:#000000;stop-opacity:1"
       d="m 346.66602,0 v 411.20312 c 4.44564,-0.21771 5.83088,-0.25724 5.92187,-0.22656 l 0.002,0.002 h 0.002 v 0.002 l -0.002,0.002 c -0.23248,0.10532 -8.27158,0.64166 6.5586,-0.21484 8.94208,-0.51644 7.56483,-0.72985 16.86133,-0.99219 3.59608,-0.10151 7.19377,-0.0872 10.79101,-0.13086 6.62299,0.20176 13.24448,0.0538 19.86524,-0.11914 V 60 h 286.66796 v 330.72852 h 0.70508 c 0.82781,0 1.65796,0.048 2.48438,0 0.88817,-0.0516 1.76824,-0.19943 2.65234,-0.29883 1.39215,-0.11401 2.78109,-0.265 4.17578,-0.3418 8.88209,-0.48931 1.91745,0.18082 11.57617,-0.50977 2.07343,-0.14823 4.13854,-0.40046 6.21094,-0.5625 4.12633,-0.3226 8.25765,-0.56473 12.38477,-0.87695 3.76551,-0.31027 7.53313,-0.31202 11.30078,-0.23633 2.83589,0.057 5.67324,0.15842 8.50976,0.20704 V 0 Z"
       id="rect2" />
    <path
       style="fill:none;fill-rule:evenodd;stroke:#613583;stroke-width:30;stroke-linecap:round;stroke-dasharray:none"
       id="path4"
       sodipodi:type="arc"
       sodipodi:cx="551.68884"
       sodipodi:cy="324.5033"
       sodipodi:rx="113.63116"
       sodipodi:ry="113.63116"
       sodipodi:start="3.1415927"
       sodipodi:end="0"
       sodipodi:arc-type="slice"
       d="M 438.05769,324.5033 A 113.63116,113.63116 0 0 1 551.68884,210.87214 113.63116,113.63116 0 0 1 665.32,324.5033 H 551.68884 Z" />
    <path
       d="m 1085,435.75382 c 0,21.05949 -159.6836,44.07445 -241.06719,45.69251 C 685.65899,484.59306 528.73277,451.21962 370.25693,452.8577 298.2387,453.60202 213.6421,460.81974 152.45059,488.59348 131.8766,478.60031 110.32247,471.578 91.092016,463.57842 64.505612,452.51883 15.000002,462.56885 15.000002,431.79816 c 0,-30.77061 49.50561,-20.72069 76.092014,-31.78017 19.230454,-7.99957 40.784584,-15.02188 61.358574,-25.0151 61.19151,27.77379 145.78811,34.99144 217.80634,35.73588 158.47584,1.63793 315.40206,-31.73546 473.67588,-28.58872 C 925.3164,383.76805 1085,414.69433 1085,435.75382 Z M 147.99238,390.60627 v 76.85772"
       style="color:#000000;display:inline;overflow:visible;visibility:visible;fill:none;fill-opacity:1;fill-rule:evenodd;stroke:#613583;stroke-width:30;stroke-linecap:round;stroke-linejoin:round;stroke-miterlimit:4;stroke-dasharray:none;stroke-dashoffset:0;stroke-opacity:1;marker:none;marker-start:none;marker-mid:none;marker-end:none"
       id="path1325" />
  </g>
</svg>
