<?xml version="1.0" encoding="UTF-8" standalone="no"?>
<svg
   width="1100"
   height="1000"
   version="1.1"
   id="svg1"
   sodipodi:docname="1326B.svg"
   inkscape:version="1.4.2 (f4327f4, 2025-05-13)"
   xmlns:inkscape="http://www.inkscape.org/namespaces/inkscape"
   xmlns:sodipodi="http://sodipodi.sourceforge.net/DTD/sodipodi-0.dtd"
   xmlns:xlink="http://www.w3.org/1999/xlink"
   xmlns="http://www.w3.org/2000/svg"
   xmlns:svg="http://www.w3.org/2000/svg">
  <defs
     id="defs1" />
  <sodipodi:namedview
     id="namedview1"
     pagecolor="#ffffff"
     bordercolor="#666666"
     borderopacity="1.0"
     inkscape:showpageshadow="2"
     inkscape:pageopacity="0.0"
     inkscape:pagecheckerboard="0"
     inkscape:deskcolor="#d1d1d1"
     showguides="true"
     inkscape:zoom="0.53386562"
     inkscape:cx="746.44252"
     inkscape:cy="667.77104"
     inkscape:window-width="1680"
     inkscape:window-height="998"
     inkscape:window-x="-8"
     inkscape:window-y="-8"
     inkscape:window-maximized="1"
     inkscape:current-layer="svg1">
    <sodipodi:guide
       position="1061.9112,705.24896"
       orientation="1,0"
       id="guide1"
       inkscape:locked="false" />
    <sodipodi:guide
       position="0,705.24896"
       orientation="0,-1"
       id="guide2"
       inkscape:locked="false" />
    <sodipodi:guide
       position="1072.6777,904.44141"
       orientation="1,0"
       id="guide3"
       inkscape:locked="false" />
    <sodipodi:guide
       position="83.399677,711.49878"
       orientation="0,-1"
       id="guide4"
       inkscape:locked="false" />
    <sodipodi:guide
       position="31.34577,30"
       orientation="0,-1"
       id="guide16"
       inkscape:locked="false" />
  </sodipodi:namedview>
  <path
     style="fill:#000000;stroke:none;stroke-width:1"
     d="M 75.369141,0 C 34.992303,3.5890523 10.318334,21.086027 1.3457031,52.490234 10.318334,79.408126 26.469988,92.418706 49.798828,91.521484 32.750829,120.2339 24.226563,150.73954 24.226562,183.04102 c 10e-7,25.12336 11.663348,62.36143 34.992188,111.71093 h 57.875 c -6.28088,-8.0754 -10.76724,-22.43326 -13.45898,-43.07031 -0.89731,-22.43157 6.05646,-44.63813 20.86132,-66.62109 14.80486,-21.98293 24.89767,-51.81687 30.28125,-89.501956 C 154.77734,31.852916 128.3077,0 75.369141,0 Z m 0,24.226562 c 35.890559,0 54.734769,23.777089 56.529299,71.332032 -0.89726,24.226146 -10.09515,48.451626 -27.5918,72.677736 -17.496647,24.2261 -25.7957,52.0411 -24.898437,83.44531 1.309521,17.02378 3.096209,29.35176 5.361328,36.81958 l -2.364955,-2e-5 C 60.45191,245.65977 51.144531,202.80165 51.144531,183.04102 50.247269,140.86965 65.948489,109.91561 98.25,90.175781 L 111.70898,72.677734 C 86.58558,68.191419 65.501124,65.949219 48.453125,65.949219 35.891442,67.743745 29.609375,63.257391 29.609375,52.490234 30.506638,33.64771 45.759459,24.226562 75.369141,24.226562 Z m -14.804688,8.074219 c -7.178115,0 -11.214065,5.385187 -12.111328,16.152344 H 91.521484 C 78.062518,37.685968 67.742568,32.300781 60.564453,32.300781 Z"
     id="path1" />
  <path
     id="path2"
     style="fill:#ff7800;stroke:none;stroke-width:1"
     d="M 0,294.75195 V 1000 H 312.2481 V 928.66797 H 71.3321 V 366.08398 H 991.9239 V 928.66797 H 745.625 V 1000 h 316.2852 V 294.75195 h -55.1817 -148.0468 -312.2481 -25.5722 -94.2129 -30.9551 -26.918 -94.2129 -57.873 -99.5977 -57.873 z" />
  <use
     x="0"
     y="0"
     xlink:href="#path1"
     id="use10"
     transform="translate(917.90036)" />
  <use
     x="0"
     y="0"
     xlink:href="#path1"
     id="use11"
     transform="translate(764.91697)" />
  <use
     x="0"
     y="0"
     xlink:href="#path1"
     id="use12"
     transform="translate(611.93357)" />
  <use
     x="0"
     y="0"
     xlink:href="#path1"
     id="use13"
     transform="translate(458.95018)" />
  <use
     x="0"
     y="0"
     xlink:href="#path1"
     id="use14"
     transform="translate(305.96679)" />
  <use
     x="0"
     y="0"
     xlink:href="#path1"
     id="use15"
     transform="translate(152.98339)" />
  <path
     id="rect15"
     style="fill:none;fill-rule:evenodd;stroke:#613583;stroke-width:60;stroke-miterlimit:2"
     d="M 312.2481,970 H 31.34577 V 324.75104 H 1031.9112 V 970 H 749.66309"
     sodipodi:nodetypes="cccccc" />
  <rect
     style="fill:#e01b24;fill-rule:evenodd;stroke:none;stroke-width:60;stroke-miterlimit:2;stroke-dasharray:none"
     id="rect16"
     width="312.24811"
     height="352.62402"
     x="749.66309"
     y="647.37598" />
</svg>
