<?xml version="1.0" encoding="UTF-8" standalone="no"?>
<svg
   width="1100"
   height="800"
   id="svg2445"
   sodipodi:version="0.32"
   inkscape:version="1.4.2 (f4327f4, 2025-05-13)"
   sodipodi:docname="132A6.svg"
   inkscape:output_extension="org.inkscape.output.svg.inkscape"
   version="1.1"
   xmlns:inkscape="http://www.inkscape.org/namespaces/inkscape"
   xmlns:sodipodi="http://sodipodi.sourceforge.net/DTD/sodipodi-0.dtd"
   xmlns="http://www.w3.org/2000/svg"
   xmlns:svg="http://www.w3.org/2000/svg"
   xmlns:rdf="http://www.w3.org/1999/02/22-rdf-syntax-ns#"
   xmlns:cc="http://creativecommons.org/ns#"
   xmlns:dc="http://purl.org/dc/elements/1.1/">
  <metadata
     id="metadata2452">
    <rdf:RDF>
      <cc:Work
         rdf:about="">
        <dc:format>image/svg+xml</dc:format>
        <dc:type
           rdf:resource="http://purl.org/dc/dcmitype/StillImage" />
      </cc:Work>
    </rdf:RDF>
  </metadata>
  <defs
     id="defs2450">
    <inkscape:perspective
       sodipodi:type="inkscape:persp3d"
       inkscape:vp_x="0 : 791.01121 : 1"
       inkscape:vp_y="0 : 1000 : 0"
       inkscape:vp_z="3.669034 : 791.01121 : 1"
       inkscape:persp3d-origin="1.834517 : 788.01494 : 1"
       id="perspective2454" />
  </defs>
  <sodipodi:namedview
     inkscape:window-height="998"
     inkscape:window-width="1680"
     inkscape:pageshadow="2"
     inkscape:pageopacity="0.0"
     guidetolerance="10.0"
     gridtolerance="10.0"
     objecttolerance="10.0"
     borderopacity="1.0"
     bordercolor="#666666"
     pagecolor="#ffffff"
     id="base"
     showgrid="false"
     inkscape:zoom="0.755"
     inkscape:cx="755.62914"
     inkscape:cy="452.31788"
     inkscape:window-x="-8"
     inkscape:window-y="-8"
     inkscape:current-layer="svg2445"
     inkscape:showpageshadow="2"
     inkscape:pagecheckerboard="0"
     inkscape:deskcolor="#d1d1d1"
     inkscape:window-maximized="1" />
  <path
     style="fill:#000000;stroke:none;stroke-width:1"
     d="m 958.21488,755.90495 c 9.04425,-43.92983 2.58395,-82.69146 -19.38081,-116.28479 -21.96498,-33.5934 -49.4211,-61.04953 -82.36843,-82.36841 -32.9474,-21.3189 -75.26214,-35.20842 -126.94426,-41.66869 l -11.62846,11.62846 c 6.46025,51.68214 20.34981,93.99686 41.66874,126.94424 21.31885,32.94734 48.77496,60.40346 82.3684,82.36838 33.59334,21.96485 72.35497,28.42515 116.28482,19.38081 z m 36.8235,36.82349 C 935.60386,806.94102 882.14517,800.31925 834.6622,772.86311 787.17927,745.40699 751.64781,714.07469 728.06787,678.86624 704.48789,643.65781 688.49871,590.84514 680.10039,520.42826 L 220.7755,86.298401 c -24.54902,-24.549026 -25.51806,-48.129 -2.90713,-70.739933 21.96492,-21.9649029 45.22187,-20.6728414 69.77089,3.876174 L 722.73818,477.79049 c 69.77084,9.04437 122.2605,25.35655 157.46897,48.93652 35.2084,23.57993 66.70222,58.94992 94.48124,106.10984 27.77931,47.16001 34.56261,100.45719 20.34999,159.89159 z"
     id="path2447"
     sodipodi:nodetypes="cssccsscccssccsccsscc" />
  <path
     d="m 419.09365,273.73834 c -13.13051,-0.67872 -21.50376,9.25992 -25.11972,29.81548 -11.34242,62.72974 2.7039,142.31277 42.13339,238.74885 -11.337,7.13784 -31.89686,-8.98126 -42.99796,-30.69292 -43.01791,-74.83268 -57.70796,-149.41515 -44.0702,-223.74788 4.27261,-15.854 7.23588,-31.67101 8.88849,-47.45111 0.60483,-15.75056 -7.9832,-32.02905 -25.76412,-48.83422"
     style="fill:#000000;stroke:none;stroke-width:0.999998"
     id="path1"
     inkscape:transform-center-x="30.287762"
     inkscape:transform-center-y="98.93977"
     sodipodi:nodetypes="ccccccc" />
</svg>
