<?xml version="1.0" encoding="UTF-8" standalone="no"?>
<svg
   width="1100"
   height="1000"
   version="1.1"
   id="svg1"
   sodipodi:docname="132F5.svg"
   inkscape:version="1.4.2 (f4327f4, 2025-05-13)"
   xml:space="preserve"
   xmlns:inkscape="http://www.inkscape.org/namespaces/inkscape"
   xmlns:sodipodi="http://sodipodi.sourceforge.net/DTD/sodipodi-0.dtd"
   xmlns="http://www.w3.org/2000/svg"
   xmlns:svg="http://www.w3.org/2000/svg"><defs
     id="defs1" /><sodipodi:namedview
     id="namedview1"
     pagecolor="#ffffff"
     bordercolor="#666666"
     borderopacity="1.0"
     inkscape:showpageshadow="2"
     inkscape:pageopacity="0.0"
     inkscape:pagecheckerboard="0"
     inkscape:deskcolor="#d1d1d1"
     showguides="true"
     inkscape:zoom="0.53386562"
     inkscape:cx="512.3012"
     inkscape:cy="665.89791"
     inkscape:window-width="1680"
     inkscape:window-height="998"
     inkscape:window-x="-8"
     inkscape:window-y="-8"
     inkscape:window-maximized="1"
     inkscape:current-layer="svg1"><sodipodi:guide
       position="170,1000"
       orientation="-1,0"
       id="guide1"
       inkscape:locked="false"
       inkscape:label=""
       inkscape:color="rgb(0,134,229)" /><sodipodi:guide
       position="889.4702,1000"
       orientation="-1,0"
       id="guide2"
       inkscape:locked="false"
       inkscape:label=""
       inkscape:color="rgb(0,134,229)" /><sodipodi:guide
       position="0,0"
       orientation="1,0"
       id="guide3"
       inkscape:locked="false" /><sodipodi:guide
       position="890.18514,339.86952"
       orientation="0,-1"
       id="guide4"
       inkscape:locked="false" /><sodipodi:guide
       position="24.960556,182.5636"
       orientation="0,-1"
       id="guide5"
       inkscape:locked="false" /><sodipodi:guide
       position="1000,597.35099"
       orientation="1,0"
       id="guide6"
       inkscape:locked="false" /><sodipodi:guide
       position="975.09475,261.22922"
       orientation="0,-1"
       id="guide7"
       inkscape:locked="false" /><sodipodi:guide
       position="975.09475,261.22922"
       orientation="1,0"
       id="guide8"
       inkscape:locked="false" /><sodipodi:guide
       position="550,1000"
       orientation="-1,0"
       id="guide9"
       inkscape:locked="false"
       inkscape:label=""
       inkscape:color="rgb(0,134,229)" /></sodipodi:namedview><path
     id="path1"
     style="baseline-shift:baseline;display:inline;overflow:visible;opacity:1;vector-effect:none;fill:#000000;fill-rule:evenodd;stroke-miterlimit:2;enable-background:accumulate;stop-color:#000000;stop-opacity:1"
     d="M 550,0 C 479.47308,0 419.72461,55.022896 419.72461,124.5 V 1000 h 65 V 124.5 C 484.72461,92.357291 512.52622,65 550,65 c 37.47378,0 65.27539,27.357291 65.27539,59.5 v 614.27148 h 65 V 124.5 C 680.27539,55.022896 620.52692,0 550,0 Z" /><rect
     style="fill:#f9f06b;fill-rule:evenodd;stroke:none;stroke-width:25;stroke-linecap:round;stroke-miterlimit:2"
     id="rect3"
     width="98.488525"
     height="63.385265"
     x="607.9906"
     y="534.50739" /><rect
     style="fill:#f9f06b;fill-rule:evenodd;stroke-width:25;stroke-linecap:round;stroke-miterlimit:2"
     id="rect2"
     width="127.15232"
     height="70.860924"
     x="391.39072"
     y="557.61591" /><path
     style="fill:#000000;stroke:none;stroke-width:1"
     d="m 1099.9996,608.33356 q 0,19.08314 -115.86141,21.80885 -73.60552,6.81586 -203.09794,-8.1784 Q 651.54846,606.97039 511.15193,646.49983 303.96508,680.57659 233.76713,629.46114 163.56855,578.34569 80.421418,600.15516 3.7196965e-6,594.70312 3.7196965e-6,546.99528 q 0,-47.7072 54.5230652803035,-79.05824 -68.153513,-73.60556 -27.261533,-99.50392 40.891981,-13.63108 65.427159,77.69507 25.898365,-91.32615 55.886235,-89.96297 29.98724,1.36127 33.39548,29.30596 3.40635,27.94281 -51.11544,70.19858 65.42716,23.17202 124.03974,58.61194 98.14073,50.43354 243.98994,13.63045 190.83008,-40.89198 291.0159,0 100.18582,40.8926 221.49915,42.25515 57.2488,9.54156 88.5999,38.16626 z M 44.981497,533.36483 q -2.728879,27.2609 23.17202,28.62407 95.415033,-25.89836 181.288493,32.71422 81.7846,36.80246 176.51836,24.53519 94.73313,-12.26792 169.02059,-26.58026 74.28746,-14.31236 161.5241,0 87.23665,14.31234 151.30127,14.31234 64.06399,0 130.85497,-6.81523 -103.59345,-5.45141 -151.30127,-12.2679 -47.70721,-6.81523 -119.95023,-30.66915 -72.24302,-23.85328 -160.84284,-11.586 -88.5998,12.26791 -169.02059,28.6247 -98.14137,19.08314 -174.47328,-20.4463 -104.9566,-59.97511 -154.02761,-58.61194 -49.070365,1.36127 -64.063983,38.16626 z m 94.051863,-8.17839 q -19.08313,17.71997 -44.299584,20.44567 -25.217088,2.72888 -27.94343,-12.26728 -2.722544,-14.99425 20.446302,-22.49074 23.172012,-7.49713 51.796712,14.31235 z"
     id="path1-9" /></svg>
