<?xml version="1.0" encoding="UTF-8" standalone="no"?>
<svg
   width="500"
   height="1000"
   version="1.1"
   id="svg1"
   sodipodi:docname="13353.svg"
   inkscape:version="1.4.2 (f4327f4, 2025-05-13)"
   xmlns:inkscape="http://www.inkscape.org/namespaces/inkscape"
   xmlns:sodipodi="http://sodipodi.sourceforge.net/DTD/sodipodi-0.dtd"
   xmlns="http://www.w3.org/2000/svg"
   xmlns:svg="http://www.w3.org/2000/svg">
  <defs
     id="defs1" />
  <sodipodi:namedview
     id="namedview1"
     pagecolor="#ffffff"
     bordercolor="#666666"
     borderopacity="1.0"
     inkscape:showpageshadow="2"
     inkscape:pageopacity="0.0"
     inkscape:pagecheckerboard="0"
     inkscape:deskcolor="#d1d1d1"
     inkscape:zoom="0.26693281"
     inkscape:cx="-601.2749"
     inkscape:cy="301.57402"
     inkscape:window-width="1680"
     inkscape:window-height="998"
     inkscape:window-x="-8"
     inkscape:window-y="-8"
     inkscape:window-maximized="1"
     inkscape:current-layer="g6"
     showguides="true">
    <sodipodi:guide
       position="500,1000"
       orientation="0,-1"
       id="guide1"
       inkscape:locked="false" />
    <sodipodi:guide
       position="500,0"
       orientation="0,-1"
       id="guide2"
       inkscape:locked="false" />
    <sodipodi:guide
       position="72.07309,394.54688"
       orientation="0.21386719,0.97686275"
       id="guide6"
       inkscape:locked="false" />
  </sodipodi:namedview>
  <path
     style="fill:#000000;stroke:none;stroke-width:0.999999"
     d="m 176.33929,848.21429 q -54.6875,0 -80.357147,-62.50002 Q 70.312493,723.2143 70.312493,585.93752 78.125017,446.4286 95.982143,294.64283 L 136.16072,21.205382 Q 142.85712,0 176.33929,0 q 33.48212,0 40.17858,21.205382 l 40.17857,273.437448 q 17.85713,151.78577 25.6696,291.29469 0,137.27678 -25.6696,199.77675 -25.66965,62.50002 -80.35715,62.50002 z m 176.3393,-6.6964 V 1000 H 0 V 841.51789 q 21.205382,-16.74111 68.638393,16.74101 47.433007,33.48211 107.700897,37.94649 60.26784,-4.46449 109.37501,-37.94649 49.10716,-33.48212 66.96429,-16.74101 z m -179.6875,-45.75896 q 34.59819,0 50.78121,-56.91964 16.18303,-56.91969 16.18303,-152.90177 -3.3482,-139.50892 -22.32139,-291.29469 L 193.08035,71.42856 q -2.23213,-16.741059 -16.74106,-16.741059 -14.50892,0 -16.74106,16.741059 l -24.55358,223.21427 q -18.97325,151.78577 -21.20538,291.29469 -1.11607,95.98208 11.71876,152.90177 12.83482,56.91964 47.43306,56.91964 z m 140.62499,170.7589 v -81.47322 q -64.73216,45.75897 -137.27679,45.75897 -72.54462,0 -137.276782,-45.75897 v 81.47322 z"
     id="path1" />
  <g
     id="g6"
     transform="translate(-769.59683)">
    <path
       style="fill:#000000;stroke:none;stroke-width:1"
       d="m 663.5957,193.65625 c -26.15469,0 -51.7524,6.67714 -74.01172,18.36328 -41.73622,22.81581 -74.01292,62.88286 -85.14257,111.29688 -22.25932,97.94101 41.7371,190.87327 134.11328,219.2539 65.66499,18.36393 137.45025,40.62349 203.11523,62.88281 l 0,-42.29296 C 778.23087,539.78787 712.56537,523.09472 646.90039,505.84375 575.11408,482.47148 525.03044,407.90238 542.83789,332.2207 555.637,274.90295 606.83444,231.49609 663.5957,231.49609 c 8.90374,0 17.8072,1.11392 26.71094,3.33985 52.30939,12.7991 90.15005,67.33335 75.125,120.19922 -8.90373,31.16305 -37.84086,55.09375 -69.00391,55.09375 -6.67779,0 -13.35539,-1.11391 -20.0332,-3.33985 -11.68614,-3.89537 -23.37284,-13.3565 -29.49414,-23.92968 -6.12131,-11.12967 -6.67631,-23.37052 -1.66797,-35.05665 2.22594,-5.00835 8.34729,-10.01822 13.91211,-12.24414 4.45186,3.89539 9.45844,5.56641 14.4668,5.56641 16.69448,0 33.38942,-17.25112 22.25976,-35.05859 -9.46021,-7.79076 -21.14573,-11.13086 -32.27539,-11.13086 -7.23427,0 -13.91188,1.6707 -20.0332,4.45312 -15.02503,6.12132 -26.15424,18.36348 -32.83203,32.83203 -10.57318,23.37229 -7.79177,47.85724 3.33789,67.89063 10.57316,19.47691 28.93778,36.17196 50.64062,43.40625 10.57319,3.89537 21.70222,5.56445 32.2754,5.56445 48.9705,0 92.93364,-36.72825 106.8457,-84.0293 C 824.97644,290.484 772.66717,216.47135 700.88086,198.10742 688.63823,195.325 675.83833,193.65625 663.5957,193.65625 Z"
       id="path3"
       sodipodi:nodetypes="scccccccsccsscccscsccccsccs" />
    <path
       style="fill:#000000;stroke:none;stroke-width:1"
       d="m 1050.2914,651.12719 c 51.1044,10.5179 232.6706,102.34989 298.3356,186.93531 l 27.2675,-40.06641 C 1251.2421,679.46508 1124.3638,627.71339 1050.3516,608.79297 Z"
       id="path6"
       sodipodi:nodetypes="ccccc" />
  </g>
</svg>
