<?xml version="1.0" encoding="UTF-8" standalone="no"?>
<svg
   width="1000"
   height="1000"
   version="1.1"
   id="svg1"
   sodipodi:docname="13467.svg"
   inkscape:version="1.4.2 (f4327f4, 2025-05-13)"
   xmlns:inkscape="http://www.inkscape.org/namespaces/inkscape"
   xmlns:sodipodi="http://sodipodi.sourceforge.net/DTD/sodipodi-0.dtd"
   xmlns="http://www.w3.org/2000/svg"
   xmlns:svg="http://www.w3.org/2000/svg">
  <defs
     id="defs1" />
  <sodipodi:namedview
     id="namedview1"
     pagecolor="#ffffff"
     bordercolor="#666666"
     borderopacity="1.0"
     inkscape:showpageshadow="2"
     inkscape:pageopacity="0.0"
     inkscape:pagecheckerboard="0"
     inkscape:deskcolor="#d1d1d1"
     inkscape:zoom="0.3775"
     inkscape:cx="-313.90728"
     inkscape:cy="287.41722"
     inkscape:window-width="1680"
     inkscape:window-height="998"
     inkscape:window-x="-8"
     inkscape:window-y="-8"
     inkscape:window-maximized="1"
     inkscape:current-layer="svg1"
     showguides="false">
    <sodipodi:guide
       position="1000,1000"
       orientation="0,-1"
       id="guide1"
       inkscape:locked="false" />
    <sodipodi:guide
       position="1000,0"
       orientation="0,-1"
       id="guide2"
       inkscape:locked="false" />
    <sodipodi:guide
       position="566.36523,716.50391"
       orientation="0,-1"
       id="guide13"
       inkscape:locked="false" />
  </sodipodi:namedview>
  <path
     style="fill:#000000;stroke:none;stroke-width:0.999999"
     d="m 610.37109,0.0546875 c -9.88526,0.20546721 -19.9877,0.9934999 -30.30664,2.3632813 -41.27609,5.4791258 -71.04687,37.4389242 -89.31054,95.8828122 -10.22775,13.149919 -21.91454,31.050249 -35.06446,53.697269 -7.30567,15.34156 -7.67261,23.92367 -1.09765,25.75 6.57496,1.82639 12.05629,4.56797 16.43945,8.2207 -11.4728,6.55623 -6.49465,12.97936 1.09375,14.24414 2.19124,-0.73056 1.46115,0.73204 -2.19141,4.38477 -3.65321,3.65273 -3.10593,6.75559 1.64258,9.3125 4.74863,2.55688 7.12305,10.41258 7.12305,23.5625 0,12.41931 6.94184,18.6289 20.82226,18.6289 16.07208,0 27.76096,-0.7323 35.06641,-2.19336 l 4.18359,32.4336 c -81.34623,1.28658 -138.51222,26.02161 -171.49804,74.20312 -23.996,18.37192 -56.23929,53.6162 -96.73242,105.73242 -19.87167,-22.12127 -60.92844,-56.80287 -123.16797,-104.04492 -14.24767,-33.36938 -26.24588,-60.92749 -35.99414,-82.67383 -10.12333,-22.12127 -41.618245,-43.11857 -94.484379,-62.99023 -7.4987325,0.74987 -12.7466935,5.99969 -15.7460935,15.74805 -2.6246467,9.37342 -0.75093321,14.06054 5.6230469,14.06054 16.4972006,4.1243 31.4964076,11.2478 44.9941406,21.3711 13.122667,9.74836 24.745741,27.18392 34.869141,52.30468 -23.995934,-8.62354 -40.493588,-20.05903 -49.492188,-34.30664 -8.6234,-14.62253 -17.434994,-19.49722 -26.433594,-14.62304 12.373,38.24356 45.555942,73.48784 99.546876,105.73242 l 90.54687,110.79297 c 37.49367,47.99192 71.80013,58.48959 102.91993,31.49414 30.74486,-26.62053 70.67618,-60.3643 119.79296,-101.23242 -4.12432,38.99344 1.12357,73.8626 15.7461,104.60742 14.24753,30.74482 38.05631,99.1702 71.42578,205.27734 L 326.21875,591.13086 c -27.37047,-25.12077 -51.36675,-37.68164 -71.98828,-37.68164 -58.865,0.74987 -84.54756,25.30892 -77.04883,73.67578 l 30.93164,221.02539 c -44.61753,11.62305 -64.86457,45.17926 -60.74023,100.66992 -20.62154,4.12431 -39.18041,9.74925 -55.677738,16.87305 -16.871999,7.12381 -33.932487,10.31042 -51.179687,9.56055 C 22.893625,974.12909 11.645618,982.37797 6.7714844,1000 H 894.81055 c -19.12174,-35.61901 -45.1793,-49.86599 -78.17383,-42.74219 -33.36927,6.74887 -56.05474,-8.24834 -68.05274,-44.99219 -11.99793,-36.74382 -32.05551,-44.43 -60.17578,-23.05859 26.62047,-51.36636 27.74385,-105.54476 3.37305,-162.53515 2.43228,-134.60291 6.76887,-172.00973 31.50984,-253.43191 l 74.22258,-85.13645 C 790.38994,316.11562 745.34329,283.17938 660.60742,281.30469 v -53.69727 c 19.72488,-8.03606 38.71875,-23.01127 56.98242,-44.92773 18.26368,-21.91646 27.39453,-52.23406 27.39454,-90.953128 0,-38.719115 -17.16608,-64.652872 -51.50196,-77.802734 C 667.73057,4.0614008 640.02679,-0.56171422 610.37109,0.0546875 Z m 6.67579,19.6210935 c 15.15889,0.91319 31.87109,3.745586 50.13476,8.494141 36.52747,9.497151 54.79102,31.414184 54.79102,65.75 0,33.605238 -12.23755,62.095098 -36.71094,85.472658 -24.47351,23.37757 -39.99731,29.58911 -46.57227,18.63086 -8.03595,-10.22772 -2.0081,-25.20488 18.08203,-44.92969 20.08978,-19.72482 25.02071,-39.08581 14.79297,-58.080078 -10.22774,-18.9943 -31.77765,-20.452963 -64.65234,-4.38086 -10.95811,-12.419351 -37.25917,-21.91919 -78.90039,-28.49414 8.03593,-20.455361 24.10866,-33.604819 48.2168,-39.449219 12.05408,-2.922179 25.65948,-3.926858 40.81836,-3.013672 z m -99.99219,61.091797 c 33.60531,2.191653 61.36674,10.959267 83.2832,26.300782 -1.46111,13.1499 3.65102,13.6986 15.33984,1.64453 23.74064,-24.482586 53.98634,-11.876537 37.25782,20.82031 -8.03605,15.7068 -18.08079,29.0398 -30.13477,39.99805 -12.05418,10.95821 -14.79371,21.91675 -8.21875,32.875 6.57496,10.95822 10.95881,20.45614 13.15039,28.49219 -0.7305,58.44394 4.01694,88.02326 14.24414,88.75976 11.01989,0.79359 16.43602,-0.91941 53.17969,2.08008 36.74393,2.99949 39.36778,39.18159 7.87305,108.54492 -27.16926,71.99989 -41.74792,171.24612 -44.42969,298.63672 l -100.66992,22.4961 C 508.81302,615.31392 478.25588,531.89131 466.25781,501.14648 454.25995,470.7766 450.69813,426.53319 455.57227,368.41797 c 7.49873,-34.86914 28.86921,-51.92762 64.11328,-51.17774 35.24406,0.74988 48.43272,-10.2002 46.67968,-33.74414 -2.3868,-32.05545 -13.51459,-46.75426 -40.54492,-43.83203 -27.03033,2.9222 -38.35396,-5.84347 -33.9707,-26.29883 16.07221,-9.49716 21.73483,-16.25735 16.98633,-20.27539 -4.74853,-4.01804 -13.33459,-6.39054 -25.75391,-7.12109 0,-7.30547 -6.20959,-13.51699 -18.62891,-18.63086 12.41934,-27.76087 24.47338,-47.11987 36.16211,-58.07812 11.68882,-5.84438 23.92626,-5.84438 36.71094,0 12.78467,5.8444 25.38732,9.86301 37.80664,12.05468 v -7.67187 c -8.03606,-0.73055 -18.44773,-4.56563 -31.23242,-11.50586 C 531.11583,95.196505 518.14992,93.91754 505,98.300781 c 4.38326,-7.30546 8.40214,-13.149903 12.05469,-17.533203 z M 640.2832,101.96094 c -2.29134,-0.13166 -5.01166,0.26721 -8.16797,1.27148 -16.7757,5.33774 -34.34185,32.31946 -28.49023,41.0957 -13.32962,5.92448 -16.32715,19.62906 -4.38477,24.10743 12.60324,4.72622 40.23122,-23.86818 47.1211,-41.09375 5.71434,-14.28684 3.85052,-24.81037 -6.07813,-25.38086 z m -121.11132,9.14062 c -4.60875,0.14268 -8.96683,1.35572 -13.07618,3.63867 l -10.95898,9.86133 v 8.76758 h 5.47851 c 15.3416,7.30547 32.50963,7.30547 51.50391,0 l 19.72461,3.28711 v -9.86133 l -18.62695,-1.09765 c -12.55629,-10.04505 -23.90579,-14.90961 -34.04492,-14.59571 z m 116.30078,2.58008 c 3.28743,0.09 4.72536,2.08636 4.31445,5.99024 -0.73059,6.94021 -3.8373,13.51497 -9.31641,19.7246 -5.47912,6.20967 -10.59329,10.59154 -15.34179,13.14844 -4.74841,2.55693 -4.74841,0.54761 0,-6.02734 4.7485,-6.5752 4.7485,-8.9475 0,-7.1211 -4.74841,1.82636 -5.66079,-0.18295 -2.73829,-6.02734 2.9222,-5.84439 6.94083,-11.32362 12.05469,-16.4375 4.79428,-2.23731 8.47042,-3.31991 11.02735,-3.25 z m -119.51563,4.3457 c -2.92251,3.65276 -2.92251,7.67139 0,12.05469 -4.38328,-1.46107 -8.03508,-2.92367 -10.95703,-4.38476 1.4611,-2.92221 5.11255,-5.47828 10.95703,-7.66993 z m 14.24609,2.19141 15.3418,8.76758 c -5.84446,1.46109 -11.68885,2.18945 -17.5332,2.18945 5.1144,-2.92221 5.84398,-6.57372 2.1914,-10.95703 z m 72.32422,32.87305 c 5.11387,3.65272 6.02745,6.7595 2.74024,9.3164 -3.28731,2.55716 -5.66175,2.37536 -7.12305,-0.54687 -1.4612,-2.92222 -3.6e-4,-5.84537 4.38281,-8.76758 z m -104.69726,11.7539 c -1.29007,-0.0347 -2.54882,2.27245 -2.14453,4.68555 0.62704,3.76189 -4.10123,7.67821 -9.86328,1.09375 -7.02914,-8.03382 -10.41005,-3.97649 -10.41016,1.09766 2.92207,-1.4607 6.02735,-0.1819 9.31445,3.83593 7.24115,8.85011 16.0081,0.62173 15.33985,-6.02734 -0.3389,-3.38796 -1.29502,-4.66026 -2.23633,-4.68555 z m -18.29297,26.26758 c 0.88406,0.0259 1.88301,0.13124 2.99805,0.33399 4.01803,0.73058 8.76698,1.46083 14.24609,2.1914 5.47922,0.73051 7.85168,1.09766 7.12109,1.09766 l -26.29687,1.09375 c -4.80458,-1.202 -4.25627,-4.89805 1.93164,-4.7168 z m 23.27148,6.91016 c -2.34915,2.34871 -11.97477,6.84701 -18.6289,7.66992 -6.70857,0.8296 -6.92804,-1.83978 -4.38477,-4.38281 z M 250.85547,619.25195 h 44.43164 l 205.27734,143.41211 -228.89843,69.17578 c 4.87413,-106.85701 -2.06368,-177.71876 -20.81055,-212.58789 z m 412.80664,133.28907 c 15.74727,61.48965 6.18547,114.54461 -28.68359,159.1621 -51.3664,29.99496 -113.98122,34.305 -187.84375,12.9336 -73.86247,-20.99647 -143.9739,-16.68447 -210.33789,12.93555 6.74893,-23.2461 61.48803,-61.677 164.2207,-115.29297 z"
     id="path13"
     sodipodi:nodetypes="ssccscccssscccccccccccccccccccccccccccccsccccccssssssssccsccssccsscscsscccccssscscccsccsccsscssssccccccccsssssssccsccccccccccsccscccccssssccscsccccccccccccc" />
  <path
     style="fill:#000000;stroke:none;stroke-width:0.999999"
     d="m 723.29109,473.23997 c -5.07612,45.72803 -4.26678,78.6736 -3.17981,112.16136 -58.09317,-7.08108 -166.26199,-8.2257 -213.66785,-3.89914 -19.08251,-17.10656 -38.55587,-32.5284 -58.41794,-46.26723 -19.68845,-13.4065 -57.45399,-15.26206 -113.29662,-5.56255 -5.62087,4.62657 -6.91938,11.86158 -3.89582,21.70298 3.18244,9.3355 6.75958,12.54378 10.73318,9.6232 15.83865,-5.30873 32.15487,-7.27272 48.94928,-5.89007 16.46216,1.5561 35.65896,10.77909 57.58865,27.66804 -25.05947,5.47038 -45.04133,4.06069 -59.9445,-4.23088 -15.06207,-7.78567 -25.12013,-7.61019 -30.17614,0.52813 29.80912,26.30988 76.24952,39.91757 139.32165,40.82424 63.72922,15.90743 181.14201,34.0255 247.60049,21.97613 17.19775,-3.11807 28.29339,-19.88518 32.95365,-32.19698 12.7594,-33.7087 33.65163,-128.34753 19.65436,-221.57368 z"
     id="path10"
     sodipodi:nodetypes="ccccccccccccsscc"
     inkscape:transform-center-x="53.778835"
     inkscape:transform-center-y="27.198206" />
</svg>
