<?xml version="1.0" encoding="UTF-8" standalone="no"?>
<svg
   width="800"
   height="1000"
   version="1.1"
   id="svg1"
   sodipodi:docname="13475.svg"
   inkscape:version="1.4.2 (f4327f4, 2025-05-13)"
   xmlns:inkscape="http://www.inkscape.org/namespaces/inkscape"
   xmlns:sodipodi="http://sodipodi.sourceforge.net/DTD/sodipodi-0.dtd"
   xmlns="http://www.w3.org/2000/svg"
   xmlns:svg="http://www.w3.org/2000/svg">
  <defs
     id="defs1" />
  <sodipodi:namedview
     id="namedview1"
     pagecolor="#ffffff"
     bordercolor="#666666"
     borderopacity="1.0"
     inkscape:showpageshadow="2"
     inkscape:pageopacity="0.0"
     inkscape:pagecheckerboard="0"
     inkscape:deskcolor="#d1d1d1"
     inkscape:zoom="0.18875"
     inkscape:cx="-537.74834"
     inkscape:cy="521.8543"
     inkscape:window-width="1680"
     inkscape:window-height="998"
     inkscape:window-x="-8"
     inkscape:window-y="-8"
     inkscape:window-maximized="1"
     inkscape:current-layer="svg1"
     showguides="true">
    <sodipodi:guide
       position="0,1000"
       orientation="0,-1"
       id="guide6"
       inkscape:locked="false" />
    <sodipodi:guide
       position="0,0"
       orientation="0,-1"
       id="guide7"
       inkscape:locked="false" />
    <sodipodi:guide
       position="364.49414,353.63867"
       orientation="-0.93015657,0.36716311"
       id="guide8"
       inkscape:locked="false" />
  </sodipodi:namedview>
  <path
     id="path2248"
     style="fill:#000000;stroke:none;stroke-width:1"
     d="m 331.50899,0.08789062 c -4.7749,0.14561743 -9.514,0.47666338 -14.168,1.02929688 l -0.084,0.00391 c -18.6217,2.2105341 -36.289,8.4268717 -55.0528,15.9824225 -37.5334,15.11167 -54.4687,52.586002 -53.2754,113.65039 -6.3078,15.47308 -12.9958,35.17416 -17.7578,60.37695 -2.1593,16.82439 0.5685,26.30283 7.1035,26.63867 6.7737,0.34095 12.4959,2.69318 17.7579,5.32422 -11.78047,15.18764 5.28753,14.20926 5.3593,14.20508 2.06674,-0.71937 1.0226,1.17221 -1.7617,5.32617 -2.7845,4.15397 -0.5681,3.94336 5.3418,5.32422 5.6257,1.38655 9.0581,8.68403 12.4277,19.5332 3.3528,10.84917 10.8031,16.49895 19.5372,15.98242 8.7285,-0.51143 22.434,-1.96078 40.8398,-7.10351 16.809,12.01923 25.0144,31.05052 17.7578,46.17187 -13.5757,17.71258 -17.8026,33.64952 -21.3086,46.16992 -4.2621,15.25545 -19.4011,70.13849 -33.7383,166.92579 -30.4755,45.70494 -74.0559,100.62533 -131.4101,165.15039 -31.367697,23.30082 -57.524097,41.59119 -78.134797,56.82617 -20.61635,15.23497 -36.2999,49.24219 -47.9492073,101.2207 5.398447,10.75425 14.1099473,15.98242 24.8613273,15.98242 10.75155,0 15.10288,-2.60249 14.20508,-8.8789 0,-16.13112 3.4679,-32.26393 10.6562,-47.94727 7.1714,-15.68335 22.8552,-30.93689 47.949297,-46.17187 -8.967097,22.40469 -20.729697,39.41674 -35.515697,49.72265 -14.7917,10.30593 -18.7072,18.57088 -12.4336,26.63672 40.3293,-17.02725 75.213997,-55.38198 102.996097,-115.42578 85.1363,-61.83605 137.4325,-116.7739 158.0489,-163.375 6.7169,-16.13112 13.4794,-33.98864 19.5312,-55.04883 -6.0518,28.22933 -12.8143,62.25204 -19.5312,99.44336 -30.4755,46.60108 -74.0539,101.52147 -131.4082,165.15039 -31.3678,23.30082 -57.526,41.59119 -78.1368,56.82617 -20.616197,15.23498 -36.299897,49.2422 -47.949197,101.22071 5.3984,10.75427 12.3308,15.98242 23.0879,15.98242 10.7515,0 15.0992,-2.6025 14.2071,-8.87891 0,-16.13112 5.2278,-32.26393 12.427697,-47.94726 7.1713,-15.68334 22.8551,-30.93494 47.9492,-46.16992 -8.967,22.40469 -20.7296,39.41674 -35.5156,49.72265 -14.7917,10.30591 -18.707297,18.57088 -12.4336,26.63672 40.3291,-17.02725 73.4425,-55.38395 101.2246,-115.42773 85.1363,-61.83605 137.4323,-116.77392 158.043,-163.375 12.5473,-28.67768 35.2204,-86.20202 67.4804,-174.02735 38.49483,17.69768 63.83191,105.37477 91.18449,204.3418 l 32.95507,-7.97656 c -24.202,-98.57958 -64.30196,-206.83117 -110.00676,-226.54688 12.547,-28.67768 8.6152,-50.88411 -10.6543,-69.25586 -19.2697,-18.37177 -32.3293,-24.49606 -40.8417,-15.98242 -8.5183,8.51362 -19.4235,27.25235 -31.9649,56.82617 -5.3984,-7.1697 -11.4715,-16.72986 -19.5351,-31.96484 -8.0636,-15.23498 -6.3246,-37.04235 5.3417,-63.92774 -5.6257,-21.4807 -21.0316,-38.08333 -31.9648,-56.82617 -9.2,-2.42646 -26.3857,-0.39777 -35.5176,0 -23.7588,4.14261 -35.1391,3.47229 -37.2929,-17.75781 12.4847,-12.27832 16.4904,-19.80992 10.6543,-23.08594 -5.836,-3.27315 -17.5418,-3.99533 -30.1856,-1.77343 -1.81443,-8.42057 -8.91877,-12.08098 -21.3146,-14.20512 2.5004,-30.10174 7.6213,-52.07486 15.9804,-65.70508 9.2398,-8.40397 21.8776,-12.24527 35.5157,-8.87891 13.6383,3.36409 27.7474,6.10217 40.8457,5.32422 l -3.5235,-8.87891 c -7.5921,1.80138 -19.422,0.81717 -33.7422,-3.55273 -14.32,-4.36989 -26.4466,-2.68057 -37.289,5.32617 1.6479,-8.93755 3.012,-16.87642 5.3418,-21.31054 32.4135,-5.35298 61.5936,-1.40372 87.0175,8.8789 2.4435,12.62271 7.1018,12.33183 14.2051,-1.77344 13.57428,-26.889265 48.50134,-27.457746 42.5799,12.43164 -2.6709,17.71146 -7.8584,32.98295 -15.9844,46.16993 -8.1262,13.18698 -7.8021,22.5886 1.7617,31.96484 21.77,23.06387 36.168,43.34853 74.5821,63.92969 44.2672,17.67053 90.6044,62.80564 127.8594,101.46022 51.5297,60.49214 114.79269,203.37731 121.96409,248.18611 l 34.95118,-9.99004 C 692.12352,502.25231 635.43474,402.98656 583.90524,346.97569 c -51.5296,-56.01085 -92.30565,-83.87263 -119.18985,-90.14563 -26.4808,-9.78312 -41.3128,-20.25053 -56.8262,-35.51563 17.0705,-11.8135 28.673,-30.67665 39.0664,-56.82617 10.3935,-26.14949 10.1338,-59.33503 -1.7598,-97.667964 -8.9331,-28.749857 -25.2036,-46.640725 -47.9511,-56.8261717 -7.5805,-3.3981717 -13.9673,-5.7709469 -23.0821,-7.1035156 -13.6808,-1.99884016 -28.3333,-3.23958664 -42.6582,-2.80273438 z m -5.2012,23.97265638 c 8.2736,-0.234246 17.0792,-0.161051 26.4356,0.144531 h 0.029 c 18.707,0.613724 34.2251,5.586568 46.1699,14.207031 11.9391,8.623292 19.6903,18.880456 24.8613,35.515625 10.3367,33.270346 8.7073,65.132336 -7.1015,94.119146 -15.8147,28.98679 -27.7141,37.78834 -37.2949,28.4121 -10.9617,-9.0495 -10.7853,-24.00204 1.7617,-47.94726 20.85377,-39.76147 -5.00294,-101.730459 -65.7207,-49.722658 -14.8599,-9.677998 -43.0275,-14.030312 -83.459,-10.654296 1.3071,-22.051237 12.762,-40.313031 33.7363,-51.498047 15.7309,-8.388762 35.7613,-11.873434 60.582,-12.576172 z m -77.8867,200.287113 c 1.1586,-0.0469 1.5856,0.0802 1.3555,0.52343 l -24.8613,5.32618 c -6.35181,1.36079 -5.88139,-5.32618 3.5742,-5.32618 h 0.01 c 6.69302,0 13.28065,-0.11727 19.9258,-0.52343 z m 1.3555,2.29687 c -0.7388,2.49464 -1.989,4.75663 -5.3418,7.10352 -3.3526,2.34692 -7.97859,6.03068 -10.6562,7.10351 -6.46628,2.59083 -8.17311,-4.11801 -5.2833,-5.32422 z m -33.85887,-18.17446 c 2.109,-2.78925 6.43127,-1.03687 10.75927,2.19204 8.41932,6.32578 13.49951,-3.65885 10.6426,-10.6543 -3.11023,-7.6197 -5.11084,-3.42047 -3.5235,0 2.2991,4.95463 1.81969,11.93574 -8.875,3.55078 -7.07733,-5.56757 -11.54191,1.13794 -9.00337,4.91148 z M 342.10629,104.11524 c -10.3725,5.95758 -22.31907,37.86594 -12.4453,47.94532 -6.55932,5.41694 -13.05629,22.58151 0,24.86133 14.37646,2.46973 31.49092,-24.96402 33.7441,-53.27344 2.40637,-30.942416 -19.93804,-20.31589 -21.2988,-19.53321 z m 7.1137,8.88085 c 2.5573,-0.11362 4.603,1.81239 5.3418,5.32422 3.49922,17.32726 -9.69685,36.75907 -12.4161,39.06836 -3.8072,3.23339 -4.262,2.24497 -1.7617,-5.32422 2.4435,-7.5726 2.0455,-10.33688 -1.7617,-7.10351 -3.8074,3.2334 -6.1829,1.47783 -5.3418,-5.32422 0.8524,-6.80204 2.0459,-13.32696 5.3418,-19.53516 4.3755,-3.75619 8.099,-6.98109 10.6563,-7.10156 z m -19.5352,47.94727 c 5.7281,1.75024 7.5353,5.25058 5.3418,8.87891 -2.2162,3.63115 -4.7167,2.92651 -7.1035,0 -2.3867,-2.92654 -1.7047,-5.72734 1.7617,-8.87891 z m -83.4609,-24.86133 c -7.9669,-0.17052 -13.0188,2.09716 -17.7579,7.10352 l -8.8808,12.42968 3.5215,8.87891 5.3418,-1.77344 c 16.9567,4.52332 32.4774,1.55755 47.9453,-10.65429 h 19.5351 l -1.7617,-10.6543 -19.5293,3.55078 c -11.2174,-5.10295 -20.4526,-8.72037 -28.414,-8.87891 z m -8.9102,8.87891 h 0.029 c -1.4207,4.99499 -0.568,10.52188 3.5234,14.20703 -4.6029,-0.4546 -8.9973,-2.03548 -12.4296,-3.55274 0.5683,-3.22202 4.0357,-7.17541 8.8772,-10.65429 z m 14.2598,0.006 17.7343,3.54492 c -4.8302,3.47773 -10.4627,5.79482 -15.9804,7.10351 3.919,-4.03828 3.2399,-6.40755 -1.7539,-10.64843 z"
     sodipodi:nodetypes="ccccccccccccccccccccsccccccccccccsccccccccccccccscccccccccccscccccccccccsccccccccsccccccccccssccscsccccsscccccccscccsccccccccccccccccccccccccccccccccc" />
  <path
     style="fill:#000000;stroke:none;stroke-width:0.999999"
     d="m 523.92188,677.81836 c -73.89868,31.95674 -161.1118,89.21179 -261.64063,171.76562 -51.92891,30.6235 -66.90747,71.23477 -44.9375,121.83399 14.6465,37.94723 99.19724,33.95123 253.65234,-11.98633 113.1782,-47.26849 174.75978,-70.90234 184.7461,-70.90234 16.64384,19.9735 16.64384,47.26998 0,81.88867 -27.29588,0 -36.94991,9.65401 -28.96094,28.96094 17.30956,1.33979 35.45171,0.51081 54.42578,-2.48438 18.97406,-2.99527 33.4551,-26.7958 43.44141,-71.40234 9.98719,-44.60654 15.47887,-76.06406 16.47656,-94.3711 0.99857,-18.31145 -7.48957,-27.79683 -25.46484,-28.45898 35.28484,-49.93274 35.28484,-114.5131 0,-193.73828 l -34.95118,9.99004 -123.83203,50.92793 z M 694.68945,645.875 c 28.6273,48.60172 15.64449,106.1902 -38.94726,172.76562 -33.95342,20.63787 -87.71326,34.78438 -161.2793,42.44141 -73.56581,7.65481 -135.9792,34.11777 -187.24219,79.38867 29.29324,-69.23736 54.92478,-114.00957 76.89453,-134.3164 21.96998,-20.30462 63.41169,-44.93724 124.32813,-73.89649 60.91667,-28.96146 122.99945,-57.75459 186.24609,-86.38281 z"
     id="path1-9"
     sodipodi:nodetypes="cccccccscccccccccccccc" />
</svg>
