<?xml version="1.0" encoding="UTF-8" standalone="no"?>
<svg
   width="1200"
   height="700"
   version="1.1"
   id="svg1"
   sodipodi:docname="134B8.svg"
   inkscape:version="1.4.2 (f4327f4, 2025-05-13)"
   xmlns:inkscape="http://www.inkscape.org/namespaces/inkscape"
   xmlns:sodipodi="http://sodipodi.sourceforge.net/DTD/sodipodi-0.dtd"
   xmlns="http://www.w3.org/2000/svg"
   xmlns:svg="http://www.w3.org/2000/svg">
  <defs
     id="defs1" />
  <sodipodi:namedview
     id="namedview1"
     pagecolor="#ffffff"
     bordercolor="#666666"
     borderopacity="1.0"
     inkscape:showpageshadow="2"
     inkscape:pageopacity="0.0"
     inkscape:pagecheckerboard="0"
     inkscape:deskcolor="#d1d1d1"
     inkscape:zoom="0.3775"
     inkscape:cx="880.7947"
     inkscape:cy="33.112583"
     inkscape:window-width="1680"
     inkscape:window-height="998"
     inkscape:window-x="-8"
     inkscape:window-y="-8"
     inkscape:window-maximized="1"
     inkscape:current-layer="svg1"
     showguides="true">
    <sodipodi:guide
       position="82.119205,-500"
       orientation="0,-1"
       id="guide7"
       inkscape:locked="false" />
  </sodipodi:namedview>
  <path
     style="fill:#000000;stroke:none;stroke-width:1"
     d="m 301.20361,137.48866 c -10.48459,0 -18.17648,-27.6397 -9.5436,-40.98143 8.9574,-13.843278 19.68045,-8.478322 25.82388,4.49114 5.33712,11.26735 9.90079,48.44852 -3.92977,52.77051 -11.96411,3.73884 -18.4948,-3.9918 -12.35051,-16.28022 z m -4.49114,-30.31503 c 0,7.48518 0.93566,13.66046 2.80697,18.52583 1.87128,4.86537 3.74257,5.42676 5.61389,1.68417 1.87127,-3.74259 3.36829,-2.24557 4.49108,4.49108 1.12278,6.73665 2.43269,8.04658 3.92971,3.92978 2.11453,-5.81488 3.33504,-23.17261 -5.61389,-34.80612 -3.74258,-4.865375 -7.48517,-2.806949 -11.22776,6.17526 z m -29.19217,-2.24554 c 21.07373,-64.842202 74.10325,-40.075484 74.10325,5.05251 0,23.57832 5.6139,35.74173 16.84171,36.49022 12.7248,2.24557 19.27432,-10.66637 19.64857,-38.73582 0.37428,-28.069397 -10.66636,-51.834841 -33.12194,-71.29633 -22.45554,-20.209982 -48.84079,-21.519885 -79.15576,-3.929708 -30.31501,17.590166 -51.46065,34.993209 -63.43691,52.209129 -11.9763,17.215929 -14.22186,34.806119 -6.73668,52.770569 32.18628,-21.70705 56.13887,-32.56057 71.85776,-32.56057 z m 39.2972,38.17445 c -1.49703,3.74259 -0.74852,6.3624 2.24553,7.85943 2.24557,1.49703 3.7426,0.37425 4.49109,-3.36835 0.74854,-3.74262 -1.497,-5.23965 -6.73662,-4.49108 z m -85.33108,55.01605 -5.61388,-4.49108 1.12274,-13.47338 c 2.99409,-12.72479 15.71891,-20.20997 38.17446,-22.45553 l 12.35056,-11.22778 7.85943,6.73669 -15.71892,8.98223 c -7.48518,15.71885 -19.08719,26.57235 -34.80604,32.56051 z m 1.1228,-12.35057 c 2.24553,0 5.98811,-1.49703 11.22778,-4.49109 -5.23967,0 -8.23374,-2.24556 -8.98223,-6.73668 -2.24557,5.98816 -2.99408,9.73074 -2.24555,11.22777 z m 20.20994,-10.10497 c 2.9941,-2.99406 5.61393,-7.11091 7.85949,-12.35057 l -14.59612,4.49115 c 5.23962,0.74849 7.48516,3.36829 6.73663,7.85942 z m -7.85943,56.1389 c -2.3062,-1.15318 -4.21093,-2.97671 -1.12273,-6.73674 0.47506,-0.57841 2.05841,-1.12274 6.17525,-1.12274 9.63639,0 8.4712,-4.46091 5.61388,-6.17531 -3.5228,-2.11359 -3.85884,-8.0781 2.80692,-2.24554 5.88094,5.14578 3.78509,11.78919 -5.61389,11.78919 -4.49109,0 -7.11089,1.49705 -7.85943,4.49114 z m 31.43777,3.36829 -12.35056,15.71885 c -1.69508,5.08589 3.17177,2.44218 5.61387,0 2.58568,-3.87818 4.47424,-8.93174 6.73669,-15.71885 z m -1.1228,-2.24554 c 0.74853,-1.49707 -1.12276,-0.74855 -5.61389,2.24554 -4.49108,2.99406 -8.42079,5.61389 -11.78913,7.85949 -7.76073,5.17344 -1.48618,7.66128 -0.56137,6.73622 z m 194.39455,-87.46396 c -24.02272,20.15106 -37.45542,27.98965 -49.55629,32.44785 -14.22182,5.23961 -25.82383,3.36832 -34.80604,-5.61389 -7.48518,-3.74258 -17.02881,-6.54951 -28.63086,-8.42079 -11.60201,-1.87131 -16.84163,-9.73076 -15.71885,-23.57834 1.12278,-13.84757 -1.12278,-27.69515 -6.73669,-41.542739 -11.75742,-29.001709 -40.0508,-16.656418 -39.2972,11.227769 0.37426,13.84754 -3.55546,16.28022 -11.78913,7.29806 -23.20408,5.23958 -46.7824,17.21587 -70.73497,35.92885 -0.74854,5.23962 0.7485,11.22777 4.49108,17.96446 3.74259,-11.22777 12.35056,-18.52583 25.82389,-21.89418 13.47333,-3.36833 23.20407,-7.29804 29.19222,-11.78913 l 4.49109,4.49102 c -9.73074,6.73669 -20.77139,12.16347 -33.12194,16.28034 -12.35054,4.11684 -20.39711,11.41488 -24.13972,21.89411 0,13.47334 4.86539,31.81204 14.59613,55.01611 11.22776,-2.99409 17.96443,-1.49707 20.20999,4.49109 10.47923,-7.48518 18.5258,-11.41489 24.13971,-11.78915 5.61391,-0.37417 6.1753,6.92389 1.68417,21.89417 10.47924,14.97037 22.45553,13.09913 35.92886,-5.61371 13.47333,-18.71295 32.93481,-21.33278 58.38444,-7.85948 l 24.70108,8.98222 c 1.49704,29.94076 10.85351,52.2092 28.06943,66.80531 17.21592,14.59607 36.30313,20.39708 57.26165,17.40303 91.31922,-41.16853 163.92548,-48.27946 217.81876,-21.3328 92.81626,36.67741 139.41151,32.37342 139.78576,-12.91194 0.37417,-45.28533 -12.35063,-71.48345 -38.17439,-78.59439 -25.82388,-7.11104 -64.74683,-14.78341 -116.76885,-23.01708 -52.02201,-8.23372 -92.81624,-20.21004 -122.38272,-35.92891 -39.04707,-20.75918 -82.81468,-22.22495 -94.72061,-12.23786 z m 266.50555,31.32511 c 68.48941,6.73669 109.09652,21.707 121.82137,44.91108 135.48177,80.09142 219.31573,136.97878 251.50203,170.66209 88.585,2.32617 150.4136,56.30219 205.4682,119.57581 14.9703,17.59017 34.2447,33.87043 57.8231,48.84079 23.5782,14.97036 25.0753,31.43777 4.4911,49.40222 -20.5841,17.96443 -42.4782,37.42589 -65.6823,58.3844 -23.2041,20.95852 -42.6656,31.43777 -58.3845,31.43777 h -59.5073 c 0,-33.68332 12.7249,-50.52497 38.1745,-50.52497 25.4496,0 48.2793,-22.82979 68.4894,-68.48936 -51.6478,-52.3963 -135.1076,-95.06185 -250.3793,-127.99667 -57.63592,-5.98811 -123.50554,-32.56051 -197.60888,-79.71718 -26.19813,40.41999 -85.33108,94.68756 -177.39884,162.80271 112.99112,-37.28706 152.99328,-36.02772 270.02797,-16.84165 22.82979,3.74247 48.84079,5.8009 78.03305,6.17526 29.1921,0.37417 37.2387,15.34452 24.1397,44.91107 -13.0991,29.56647 -25.4497,58.57156 -37.0517,87.01524 -11.60199,28.4437 -29.00504,42.66555 -52.20911,42.66555 h -60.62993 c 0.74834,-33.68332 11.22758,-50.71212 31.43771,-51.0864 20.21001,-0.37418 29.19224,-20.77127 26.94668,-61.19131 -98.05587,-2.2454 -191.99491,7.48534 -281.8171,29.19223 -11.22777,4.49109 -26.94664,6.54948 -47.15662,6.1752 -20.21003,-0.37421 -35.9289,-14.97028 -47.15663,-43.78822 -11.2278,-28.81798 -8.608,-57.26169 7.85943,-85.33113 16.46739,-28.06944 56.51309,-79.90431 120.13712,-155.50461 -54.64178,-25.44963 -122.38267,-17.59021 -203.22266,23.57828 -1.49702,56.88738 -9.35647,140.34717 -23.57833,250.37934 -20.75816,9.17221 -160.3776,60.68297 -231.05377,71.94797 -25.62383,16.34996 -59.14659,19.63541 -100.56829,9.85639 -1.14192,-10.11669 6.59763,-14.41012 23.21866,-12.88028 16.62102,1.52983 30.40628,-1.70151 41.35577,-9.69402 -26.76858,-9.80915 -56.10948,-17.55372 -101.11572,4.2694 -7.530124,3.65128 -13.476384,5.2317 -19.17585,2.33065 -5.699469,-2.90106 -7.028502,-8.78763 -3.987095,-17.65973 25.611125,-17.73551 69.950645,-45.71096 158.713455,-12.84767 83.8189,-53.97191 118.02189,-57.96914 173.25389,-88.26194 -3.74259,-73.35477 -2.01952,-149.53491 3.2201,-204.17674 -27.69516,-38.92297 -45.28532,-71.48351 -52.7705,-97.68164 -5.23967,-2.24553 -17.96448,-5.61387 -38.17446,-10.10503 -11.9763,11.97634 -21.33277,20.21006 -28.06942,24.70115 -6.73669,4.49112 -14.03475,3.92974 -21.89417,-1.68417 -7.85943,-5.61391 -13.84758,-7.85945 -17.96446,-6.73663 -4.11684,1.12289 -6.17525,-0.56126 -6.17525,-5.05246 0,-4.49108 -0.37427,-5.98815 -1.1228,-4.4912 -7.61844,6.09487 -13.14431,2.3815 -10.10498,-6.73669 -3.74258,-2.99402 -9.16934,-2.80687 -16.28027,0.56144 -7.11094,3.3683 -13.28622,-1.30995 -18.52583,-14.03475 -5.98816,-21.70701 -9.73074,-39.29717 -11.22778,-52.77051 -26.94666,-44.16258 -28.25656,-80.65285 -3.92971,-109.470774 24.32686,-28.817942 52.20916,-50.150724 83.64691,-63.998336 31.43775,-13.8475396 60.2557,-9.9178108 86.45387,11.789196 26.19812,23.204075 40.41997,46.782396 42.66554,70.734963 2.24552,23.952561 -0.74855,44.162571 -8.98223,60.629991 11.11125,6.79019 28.89239,1.22027 54.47102,-24.35836 12.96002,-12.96001 50.18005,-11.81009 63.08404,-8.51728 104.2365,26.59877 60.77844,43.38544 216.47117,58.69952 z"
     id="path1"
     sodipodi:nodetypes="csssccsssssccscscssccccscccccccccccccccccccsssssccccccscccsscsssscccsccscccscsccsccssssssccssssscsccccssssscsccssscccccscssccccccssssccsccsscscsss" />
  <path
     style="fill:#000000;stroke:none;stroke-width:1"
     d="M 376.88732,294.54379 C 342.14557,337.04308 305.93311,389.81584 268.24992,452.86271 243.09673,433.34455 194.2926,409.93752 107.3645,359.71447 88.590314,266.95783 41.481041,243.97796 12.902822,231.52861 -6.8313835,236.02538 -1.3278465,251.03319 12.061061,259.29201 54.61233,285.53937 63.156359,315.06375 68.91193,343.01947 56.352947,337.9162 46.349511,327.89668 38.90192,312.95903 31.454326,298.02141 23.731424,293.69987 15.730486,299.99565 29.217642,340.36253 49.655677,367.13718 77.044506,380.31876 140.37465,445.75989 206.14274,495.94692 280.55976,539.45304 361.18115,462.5733 408.61639,392.7586 439.39622,344.47395 Z"
     id="path7"
     sodipodi:nodetypes="ccccscsccccc" />
</svg>
