<?xml version="1.0" encoding="UTF-8" standalone="no"?>
<svg
   width="800"
   height="1000"
   version="1.1"
   id="svg1"
   sodipodi:docname="134D2.svg"
   inkscape:version="1.4.2 (f4327f4, 2025-05-13)"
   xmlns:inkscape="http://www.inkscape.org/namespaces/inkscape"
   xmlns:sodipodi="http://sodipodi.sourceforge.net/DTD/sodipodi-0.dtd"
   xmlns="http://www.w3.org/2000/svg"
   xmlns:svg="http://www.w3.org/2000/svg">
  <defs
     id="defs1" />
  <sodipodi:namedview
     id="namedview1"
     pagecolor="#ffffff"
     bordercolor="#666666"
     borderopacity="1.0"
     inkscape:showpageshadow="2"
     inkscape:pageopacity="0.0"
     inkscape:pagecheckerboard="0"
     inkscape:deskcolor="#d1d1d1"
     inkscape:zoom="0.26693281"
     inkscape:cx="-372.75298"
     inkscape:cy="-286.58897"
     inkscape:window-width="1680"
     inkscape:window-height="998"
     inkscape:window-x="-8"
     inkscape:window-y="-8"
     inkscape:window-maximized="1"
     inkscape:current-layer="svg1"
     showguides="true">
    <sodipodi:guide
       position="0,0"
       orientation="0,-1"
       id="guide2"
       inkscape:locked="false" />
    <sodipodi:guide
       position="1173.9959,899.27402"
       orientation="0,-1"
       id="guide4"
       inkscape:locked="false" />
    <sodipodi:guide
       position="800,1000"
       orientation="0,-1"
       id="guide9"
       inkscape:locked="false" />
  </sodipodi:namedview>
  <path
     style="fill:#000000;stroke:none;stroke-width:0.999999"
     d="m 245.7522,157.88072 c -5.93462,7.71499 -12.16677,18.39644 -18.69482,32.046 -4.74769,8.30846 -5.19337,13.20547 -1.33591,14.68908 3.85753,1.48365 6.97357,3.11528 9.34741,4.89568 -7.709,6.1671 -1.40509,9.21762 0.88994,9.7914 -2.37384,2.96727 -2.37384,5.19392 0,6.67757 2.37384,1.48366 3.56178,5.48918 3.56178,12.01726 0,6.52805 2.37382,10.38434 7.12155,11.57128 4.74765,1.1869 12.46226,1.1869 23.14456,0 l 0.88994,15.13504 -14.24311,5.33968 c -35.01417,6.52805 -55.63679,24.48036 -61.86813,53.85662 -6.23133,29.37629 -15.77397,65.74674 -24.85903,110.93412 -29.80108,17.74095 -59.71181,38.6567 -103.408225,76.69198 -6.622854,-3.42557 -13.268624,-6.19997 -19.935595,-8.32665 l 43.722339,-368.55281 -26.52001,-3.14751 -43.500347,366.6857 c -7.33662,-0.46501 -14.6989849,-0.15737 -22.0881156,0.92365 -11.9905134,-0.52458 -17.7973184,2.12249 -17.4203564,7.94013 0.377009,5.81761 5.75826,11.55298 16.1439074,17.2063 3.33315746,20.60453 8.8149054,31.36799 16.4431986,32.28782 L -39.464752,1000 h 26.890654 L 40.471867,552.86236 c 10.349839,-2.60825 20.69136,-6.67791 31.027222,-12.20554 59.095411,-34.37518 102.139971,-59.40307 134.193621,-81.00297 18.90128,-35.43985 27.17819,-73.67528 30.26611,-91.68828 10.08883,33.23375 15.13306,80.41283 15.13306,141.53916 -24.92534,63.50023 -45.84449,126.25962 -62.75808,188.2762 -16.91359,62.01659 -33.38147,128.03936 -49.40491,198.06761 39.76184,0 63.20408,0.59295 70.32559,1.77989 l -11.57327,48.07099 c 0,10.68225 -38.27848,20.47423 -114.834808,29.37616 C 76.318353,980.41665 72.758533,988.72427 72.165063,1000 H 210.14443 c 29.9376,-1.20315 25.53927,-18.28986 21.36467,-39.16753 l 25.81439,-61.42415 c 24.33186,0 64.68773,3.56181 121.06641,10.68333 l 3.5598,26.70434 c 0,13.64949 -10.68146,22.84859 -32.04601,27.59627 -21.36456,4.74776 -48.07013,9.19898 -80.11698,13.35316 -3.56074,7.12151 -5.34167,14.53962 -5.34167,22.25458 h 153.11242 c 16.61688,-2.96728 21.06815,-13.50149 13.35316,-31.60199 -7.71499,-18.10057 -8.90093,-39.31619 -3.55978,-63.64803 l -37.38965,-335.601 c 11.27577,-34.42066 9.49683,-64.39159 -5.33968,-89.91036 1.78038,-61.71987 7.41759,-106.22849 16.91295,-133.52766 7.71499,33.82722 21.36525,63.79612 40.94944,89.90839 -9.49536,37.98143 -18.89199,96.06131 -15.33125,137.01005 l 26.01258,10.76269 c 16.02341,-43.91605 23.44151,-91.68999 22.25462,-143.32103 -5.34119,-27.29918 -17.21053,-67.0621 -35.60778,-119.28653 -8.90189,-31.45338 -27.29795,-48.95993 -55.19056,-52.52071 l -40.94942,-5.34167 v -24.0345 c 33.82722,-13.64956 50.74082,-39.46572 50.74082,-77.44715 0,-37.9886 -31.9878,-57.7373 -67.41828,-60.37883 -31.12036,-2.320187 -64.96036,6.42217 -81.24243,56.81905 z m 101.48165,-40.94943 c 20.17761,5.34115 30.26611,20.77232 30.26611,46.29109 0,20.17764 -6.67788,35.90333 -20.03073,47.17906 -13.35285,11.27573 -21.80968,13.64959 -25.37042,7.12155 -4.15425,-5.93458 -0.74165,-14.83713 10.23736,-26.70632 21.27349,-22.99838 10.14634,-57.37091 -28.04025,-38.27761 -6.52809,-5.93458 -21.36429,-11.27532 -44.50921,-16.023 5.34111,-11.8692 14.54012,-19.43655 27.59627,-22.70057 13.74619,-3.43656 30.82241,-1.92112 49.85087,3.1158 z m -82.78881,30.26611 c 18.99067,2.37384 34.12339,7.41806 45.39916,15.13305 0,8.30843 3.11609,8.9034 9.34742,1.78188 12.5201,-14.30876 30.91588,-7.52904 20.92067,12.46123 -4.74768,9.49536 -10.53414,17.35923 -17.3589,23.59052 -6.82481,6.23137 -8.30922,12.61075 -4.45172,19.1388 3.85749,6.52805 6.38062,12.16725 7.56752,16.91493 v 41.8374 c 37.388,1.78037 61.42323,7.41953 72.10548,16.91493 -20.17761,65.28056 -30.26809,125.22044 -30.26809,179.81874 l -96.13999,24.0345 C 272.16007,421.0801 259.40122,354.31512 233.28898,298.52992 l 59.64228,-19.58278 c -2.37384,-29.07955 -10.53418,-42.13686 -24.48047,-39.16954 -13.94632,2.96731 -20.62223,-2.66991 -20.02875,-16.91295 h 14.24311 v -6.23161 H 245.7522 v -7.12156 c 0,-4.5189 -4.24619,-8.00115 -10.68332,-10.68331 7.12151,-16.02341 13.94666,-27.29785 20.47471,-33.8259 6.52805,-3.56078 13.20395,-3.70998 20.02876,-0.44596 6.82476,3.26407 13.79912,5.78715 20.92067,7.56752 v -5.34166 c -4.74771,0 -10.53415,-2.22467 -17.35891,-6.6756 -6.8248,-4.45096 -14.09563,-4.89669 -21.81062,-1.33591 2.96731,-4.74768 5.34114,-8.60595 7.12155,-11.57326 z m 51.18679,24.92643 c -3.85749,6.52805 -4.89617,10.97932 -3.11581,13.35316 -4.1542,1.78037 -6.52807,4.30147 -7.12154,7.56554 -0.55706,3.06372 2.83614,15.70282 18.24885,-0.44399 6.23134,-6.52805 10.3861,-12.31447 12.46322,-17.35891 2.07708,-5.0444 2.37355,-9.04995 0.88994,-12.01725 -2.26409,-4.52813 -12.32361,-6.3989 -21.36466,8.90145 z m -57.4184,-4.45172 -6.23161,6.23161 v 4.45171 h 3.56177 c 8.90189,4.74768 18.39739,4.74768 28.48622,0 l 10.68134,2.66984 v -5.34166 l -9.7914,-0.88994 c -5.57642,-5.24839 -16.1934,-13.59105 -26.70632,-7.12156 z m 71.23734,-0.40236 c 2.24866,0.0464 3.27946,1.36775 3.094,3.96412 -0.29671,4.15421 -2.07759,8.01052 -5.34165,11.5713 -3.26403,3.56074 -6.2309,6.08386 -8.90145,7.56751 -2.67056,1.48366 -2.67056,0.29573 0,-3.56177 2.67055,-3.85749 2.67055,-5.33991 0,-4.44972 -2.67056,0.89021 -3.11628,-0.29775 -1.33591,-3.56178 1.78037,-3.26406 4.15424,-6.67662 7.12155,-10.23735 2.22547,-0.89019 4.01427,-1.32013 5.36346,-1.29231 z m -65.00573,2.18225 c -1.78041,2.37384 -1.78041,5.04621 0,8.01349 -2.96736,-1.1869 -5.04471,-2.37484 -6.23161,-3.56177 0,-1.78037 2.07735,-3.26482 6.23161,-4.45172 z m 8.01151,0.89193 8.90144,6.22963 c -4.15424,0.59343 -8.01055,0.89193 -11.57128,0.89193 3.56073,-1.1869 4.45021,-3.56078 2.66984,-7.12156 z m 94.36009,324.02774 c 11.8692,17.21035 13.05712,42.73002 3.56176,76.5572 l 32.04601,318.68806 c -60.53292,-9.4955 -137.97935,-14.53977 -232.33947,-15.13305 11.27573,-55.19178 24.62951,-110.82959 40.05949,-166.91155 15.42993,-56.08197 35.90339,-118.54294 61.42216,-187.38428 z"
     id="path4"
     sodipodi:nodetypes="ccsccssscccscccccccscccccccccscccccsccccscccsccccccccccccsscssscsccssccsssscccccccsccccsccsccsccscssssscccccccccssssssscsccccccccccccscc" />
  <path
     style="fill:#000000;stroke:none;stroke-width:1"
     d="m 427.15265,572.6294 c -10.76315,13.15475 -18.53563,24.51637 -23.31907,34.08357 v 0.89589 l -309.437742,3e-5 c -14.35052,0 -21.525192,12.85725 -21.525192,38.56897 L 39.68496,885.65276 h 15.248013 l 2.68966,-26.01062 18.835542,-1.79179 v 25.11468 H 90.80836 V 857.8503 l 17.93962,-0.89787 3.58951,25.11274 14.35011,-0.89787 -33.185612,-257.41455 310.331592,10e-5 v 25.11472 c 7.77228,-2.98947 11.95738,-7.17487 12.55643,-12.55636 3.58758,16.7423 11.95799,22.12319 25.11275,16.1439 13.15476,-5.9796 20.18226,-12.10747 21.07926,-18.38562 0.49117,-3.43848 0.57743,-6.87818 0.26162,-10.31664 h 22.6094 v -16.14391 h -26.28222 c -1.59895,-6.12453 -3.60077,-14.19681 -6.00559,-24.21685 z M 78.253964,725.99947 75.564274,842.59832 61.21215,843.49619 Z m 13.454234,0.002 14.348082,115.70296 -15.245992,-0.89788 z"
     id="path7"
     sodipodi:nodetypes="cccccccccccccccccccsscccccccccccccc" />
  <path
     d="M 310.32905,101.34604 V 65.262069 L 285.97203,48.122145 h 24.35702 V 26.471723 c 0,-15.034973 5.11174,-23.604935 15.33579,-25.70982968 10.22349,-2.10467082 24.05602,0.15133463 41.49647,6.76571838 v 4.5103303 c -22.25176,-1.20283 -34.5805,3.307499 -36.98614,13.531492 v 75.776386"
     style="fill:#000000;stroke:none;stroke-width:0.999997"
     id="path1" />
</svg>
