<?xml version="1.0" encoding="UTF-8" standalone="no"?>
<svg
   width="700"
   height="1000"
   version="1.1"
   id="svg1"
   sodipodi:docname="134D7.svg"
   inkscape:version="1.4.2 (f4327f4, 2025-05-13)"
   xmlns:inkscape="http://www.inkscape.org/namespaces/inkscape"
   xmlns:sodipodi="http://sodipodi.sourceforge.net/DTD/sodipodi-0.dtd"
   xmlns="http://www.w3.org/2000/svg"
   xmlns:svg="http://www.w3.org/2000/svg">
  <defs
     id="defs1" />
  <sodipodi:namedview
     id="namedview1"
     pagecolor="#ffffff"
     bordercolor="#666666"
     borderopacity="1.0"
     inkscape:showpageshadow="2"
     inkscape:pageopacity="0.0"
     inkscape:pagecheckerboard="0"
     inkscape:deskcolor="#d1d1d1"
     inkscape:zoom="0.53386562"
     inkscape:cx="482.33112"
     inkscape:cy="441.12224"
     inkscape:window-width="1680"
     inkscape:window-height="998"
     inkscape:window-x="-8"
     inkscape:window-y="-8"
     inkscape:window-maximized="1"
     inkscape:current-layer="svg1"
     showguides="true">
    <sodipodi:guide
       position="283.97337,438.18278"
       orientation="0,-1"
       id="guide1"
       inkscape:locked="false" />
    <sodipodi:guide
       position="283.97337,413.01201"
       orientation="0,-1"
       id="guide2"
       inkscape:locked="false" />
    <sodipodi:guide
       position="638.69747,438.18278"
       orientation="1,0"
       id="guide3"
       inkscape:locked="false" />
  </sodipodi:namedview>
  <path
     id="path1"
     style="fill:#000000;stroke:none;stroke-width:0.999999"
     d="m 416.96093,0.2734375 c -6.20791,0.3908602 -12.38962,1.20775 -18.51562,2.3886719 -27.05199,5.2148066 -45.793,27.0522916 -56.22266,65.5117186 -6.51853,8.474144 -13.68943,20.206573 -21.51172,35.199222 -4.56297,9.77779 -4.88767,15.31931 -0.97656,16.62304 3.91116,1.3037 7.16991,3.25976 9.77734,5.86719 -3.2593,2.60743 -4.39965,4.8882 -3.42187,6.84375 0.97778,1.95556 2.44484,2.93359 4.40039,2.93359 -2.60742,3.2593 -2.60742,5.86671 0,7.82227 2.60743,1.95555 3.91016,6.51904 3.91016,13.68945 0,7.17041 2.77173,11.24488 8.3125,12.22266 5.54076,0.97778 14.17676,1.14015 25.91015,0.48828 l 0.97852,16.62305 c -29.98529,5.21484 -52.80081,14.66651 -68.44531,28.35547 C 271.17092,257.86417 244.1186,301.53713 220,345.86328 c -13.03709,-9.77784 -36.82865,-21.02125 -71.37696,-33.73242 -34.54826,-12.71117 -56.061047,-23.3052 -64.535147,-31.7793 -9.91944,-10.62795 -22.6299,-19.7143 -38.132816,-27.26172 V 70.128906 H 21.509765 V 243.22266 c -6.489618,-2.15982 -13.333872,-4.12433 -20.533203,-5.89258 -4.562983,6.51854 -1.628921,12.71145 8.800781,18.57812 L 0,287.19727 c 0.651822,11.73339 7.820815,19.55567 21.509764,23.46679 V 1000 H 45.955078 V 314.05078 c 10.988377,1.47832 22.396117,2.95723 34.222656,4.43555 73.007686,50.84464 121.244196,75.28954 144.710936,73.33398 16.94824,-3.25928 48.88874,-43.02403 95.82226,-119.29101 18.25194,30.63719 27.37891,92.56411 27.37891,185.77929 -28.02976,70.40031 -51.33426,139.82288 -69.91211,208.26758 -18.57785,68.44471 -36.9922,141.77939 -55.24414,220.00195 44.32611,0 70.40038,0.65139 78.22266,1.95508 l -12.71094,52.80078 c 0,11.96028 -39.51182,22.7038 -118.53711,32.23243 -15.09833,0.72736 -19.24394,12.60336 -21.28516,26.43359 h 161.54102 c 13.44962,-1.10318 19.89919,-8.27407 19.34765,-21.51172 l -3.91015,-20.5332 29.33203,-67.4668 c 26.07417,0 70.72713,4.23684 133.95703,12.71094 l 3.91016,29.33398 c 0,14.99265 -11.89479,24.93337 -35.6875,29.82227 -21.43808,4.40508 -47.77305,8.67789 -79.00196,12.81836 C 362.7939,977.20468 362.75584,992.82959 362.75586,1000 H 531.9121 c 18.25194,-1.95556 23.14208,-12.87428 14.66797,-32.75586 -8.4741,-19.88154 -9.77879,-43.51078 -3.91211,-70.88867 L 500.62304,523.82031 c 13.03713,-37.80755 11.4077,-71.05278 -4.88867,-99.73437 1.95555,-68.44471 8.14847,-117.65921 18.57813,-147.64453 15.64451,29.33346 32.91846,70.72566 51.82226,124.17773 -5.21481,31.94089 2.33841,76.26716 2.99024,132.97852 -33.26051,8.31481 -39.12485,47.17221 -40.0586,56.49023 -1.6443,16.40858 4.1084,19.17266 16.4336,8.2168 1.3694,17.11849 9.58639,22.59622 24.65039,16.43359 15.066,-6.16262 23.33406,-16.08704 24.65039,-29.78711 1.60315,-16.68518 2.29188,-33.41638 2.99023,-50.15625 6e-4,-0.003 10e-4,-0.005 0.002,-0.008 13.03509,-62.57332 10.06162,-105.16252 11.36524,-144.92383 -1.95556,-11.08157 -13.52763,-44.97814 -34.71289,-101.68945 -21.18528,-56.71136 -41.22901,-86.69583 -60.13281,-89.95508 -17.60007,-7.17041 -39.11086,-11.73389 -64.53321,-13.68945 v -26.40039 c 37.80761,-15.64456 56.71094,-44.3243 56.71094,-86.042972 0,-31.289018 -11.24342,-51.986098 -33.73242,-62.0898442 C 454.4457,1.7689092 435.58467,-0.89914311 416.96093,0.2734375 Z m -6.27929,16.6875005 c 12.87305,-0.864784 27.58566,1.106771 43.49804,5.257812 22.48896,5.866675 33.73243,23.14063 33.73242,51.822266 10e-6,22.163048 -7.49564,39.437044 -22.48828,51.822264 -14.99268,12.38526 -24.44435,14.99268 -28.35546,7.82227 -4.56298,-6.51854 -0.81521,-16.29686 11.24414,-29.33399 23.0865,-24.958369 12.78652,-63.135581 -30.80079,-42.044919 -7.17041,-7.170409 -23.46637,-13.036626 -48.88867,-17.59961 5.21481,-13.68895 15.15549,-22.326904 29.82227,-25.912109 3.85846,-0.943172 7.94531,-1.545723 12.23633,-1.833984 z m -47.92578,39.480468 c 20.85935,1.955559 37.80861,7.821776 50.8457,17.59961 -0.65183,8.4741 2.44461,8.798839 9.28906,0.976562 13.87081,-15.852247 33.69198,-6.954065 23.4668,14.177734 -4.8889,10.103747 -11.24414,18.741708 -19.06641,25.912108 -7.82223,7.17042 -9.61596,14.17699 -5.37891,21.02149 4.23704,6.84445 7.00686,13.20168 8.31055,19.06836 v 29.33203 c -13.6889,3.91112 -26.07272,5.21585 -37.15429,3.91211 -1.95558,-22.81487 -10.75593,-32.59323 -26.4004,-29.33399 -15.64455,3.2593 -23.1421,-3.25831 -22.49023,-19.55469 h 15.64453 v -6.8457 h -17.59961 l -0.97656,-6.84375 c 0,-4.56299 -3.58545,-8.79982 -10.75586,-12.71094 C 337.66064,95.552288 344.82959,82.839855 352,75.017578 c 7.17036,-3.259248 14.66795,-3.094967 22.49023,0.490234 7.82227,3.585206 15.64456,6.35499 23.4668,8.310547 v -5.867187 c -5.21486,0 -11.73441,-2.443136 -19.55664,-7.332031 -7.82224,-4.888895 -15.64453,-5.704562 -23.4668,-2.445313 3.25929,-4.562984 5.86674,-8.473173 7.82227,-11.732422 z m 74.89257,14.41211 c -12.30143,-0.917258 -26.57148,21.657915 -22.09179,27.630859 -4.56299,1.955555 -7.1704,4.727285 -7.82227,8.312505 -0.69037,3.79697 4.33112,16.9948 21.02149,-0.49024 22.68249,-23.762731 15.8496,-34.934374 8.89257,-35.453124 z m -81.73633,8.076172 -7.82226,6.84375 v 5.867187 H 352 c 9.77783,4.562984 20.53422,4.562984 32.26757,0 l 11.73438,1.955078 V 87.728516 L 384.26757,86.751953 C 374.99512,78.024904 364.83194,72.983148 355.9121,78.929688 Z m 82.13282,2.933593 c -1.58736,11.111231 -11.28862,19.852379 -15.1543,21.999999 -2.93333,1.62965 -2.93333,0.32496 0,-3.912108 2.93334,-4.237027 2.93334,-5.704081 0,-4.400391 -2.93333,1.303736 -3.58668,0.001 -1.95703,-3.910156 1.62965,-3.911115 4.07474,-7.821306 7.33398,-11.732422 5.6274,-2.557918 10.5547,-3.486357 9.77735,1.955078 z m -76.26563,-0.978515 c -1.30369,2.60738 -1.30369,5.21484 0,7.822265 -3.25929,-0.651867 -5.54201,-1.629903 -6.8457,-2.933593 0.65182,-1.955559 2.93454,-3.584982 6.8457,-4.888672 z m 8.79883,0.978515 9.7793,6.84375 c -4.56294,0.651868 -8.47508,0.978516 -11.73438,0.978516 3.2593,-1.303735 3.91068,-3.91115 1.95508,-7.822266 z m 79.20117,119.289059 c 28.68164,1.95556 51.17047,8.79987 67.4668,20.53321 l -18.57813,47.91211 c -14.99264,39.76311 -22.48828,89.95559 -22.48828,150.57812 l -105.60156,25.42188 c 0.65187,-86.04482 -13.03669,-157.42345 -41.06641,-214.13477 13.6889,-13.68895 26.39942,-22.16258 38.13282,-25.42187 28.02977,0 55.40878,-1.62944 82.13476,-4.88868 z m 25.42188,240.53321 c 13.68895,18.9038 15.31833,46.93415 4.88867,84.08984 l 35.20117,353.95703 C 448.15,869.30294 362.10483,863.76333 257.15625,863.11133 c 13.03708,-60.62248 28.03026,-122.2227 44.97851,-184.80078 16.94819,-62.57799 39.76177,-132.0006 68.44336,-208.26758 z"
     sodipodi:nodetypes="ssccscscsssccccsccccccccccccccccscccccccccccssccsccccccsccscccscccssssssscsccsscccssscccscccccccsccsccscssscccccccccssssscsccccccccccccccccccccscc" />
  <path
     style="fill:#000000;stroke:none;stroke-width:1"
     d="m 286.75084,573.94928 c 0,-5.70211 -13.19633,-14.09238 -39.58899,-25.17079 -0.97751,7.49423 1.62917,12.3003 7.82004,14.41822 6.02795,1.95502 10.91548,4.07295 14.66259,6.3538 3.91003,2.11793 5.86505,3.58418 5.86505,4.39877 0,0.65167 -1.95502,2.1994 -5.86505,4.64317 -3.74711,2.28084 -8.63464,4.48023 -14.66259,6.59816 -6.19087,1.95501 -8.79755,6.76108 -7.82004,14.41822 26.39266,-11.56716 39.58899,-20.12034 39.58899,-25.65955 z m -55.71784,0 c 1.95501,-2.93251 7.24983,-5.37628 15.88448,-7.33129 -6.19088,-4.39877 -8.39027,-11.73007 -6.59818,-21.99389 l -8.06443,-4.39878 c -5.70211,11.40425 -8.63463,22.64557 -8.79755,33.72396 0.16292,10.91549 3.09544,22.23827 8.79755,33.96834 l 8.06443,-4.39877 c -1.79209,-10.26382 0.4073,-17.59512 6.59818,-21.99389 -8.63465,-2.11793 -13.92947,-4.64316 -15.88448,-7.57568 z m 35.19023,0 c -3.42128,-0.81459 -7.00547,-1.62918 -10.75258,-2.44377 -3.74711,-0.81457 -6.59816,2e-5 -8.55317,2.44377 1.95501,2.60669 4.80606,3.50274 8.55317,2.68815 3.74711,-0.81459 7.3313,-1.71064 10.75258,-2.68815 z M 66.567585,535.82655 c 55.392025,8.14588 105.326295,8.14588 149.802815,0 6.84255,-14.33676 12.62612,-20.28326 17.35073,-17.83949 4.88754,2.44377 6.43526,5.37629 4.64315,8.79756 15.96595,14.17383 34.78294,25.74099 56.45099,34.70147 l 332.62392,0.33113 v 25.17077 l -332.62392,-0.33113 c -21.66805,9.12339 -40.48504,20.77201 -56.45099,34.94585 1.79211,3.42127 0.24439,6.35379 -4.64315,8.79756 -4.72461,2.44377 -10.50818,-3.58419 -17.35073,-18.08386 -44.47652,-7.98297 -94.41079,-8.06444 -149.802815,-0.24439 z m 11.241321,14.41821 v 47.40905 c 18.898452,-1.62917 40.077754,-2.52522 63.537904,-2.68815 23.46015,-0.16291 47.16467,0.97751 71.11357,3.42128 -2.7696,-5.05045 -4.1544,-13.19634 -4.1544,-24.43766 0,-11.07839 1.3848,-19.22427 4.1544,-24.43764 -23.9489,2.28083 -47.65342,3.42125 -71.11357,3.42125 -23.46015,0 -44.639452,-0.89604 -63.537904,-2.68813 z"
     id="path1-4"
     sodipodi:nodetypes="scccscccsccccccccccscsccccccccccccccccscscsc" />
</svg>
