<?xml version="1.0" encoding="UTF-8" standalone="no"?>
<svg
   width="700"
   height="1000"
   version="1.1"
   id="svg1"
   sodipodi:docname="1350E.svg"
   inkscape:version="1.4.2 (f4327f4, 2025-05-13)"
   xmlns:inkscape="http://www.inkscape.org/namespaces/inkscape"
   xmlns:sodipodi="http://sodipodi.sourceforge.net/DTD/sodipodi-0.dtd"
   xmlns="http://www.w3.org/2000/svg"
   xmlns:svg="http://www.w3.org/2000/svg">
  <defs
     id="defs1" />
  <sodipodi:namedview
     id="namedview1"
     pagecolor="#ffffff"
     bordercolor="#666666"
     borderopacity="1.0"
     inkscape:showpageshadow="2"
     inkscape:pageopacity="0.0"
     inkscape:pagecheckerboard="0"
     inkscape:deskcolor="#d1d1d1"
     inkscape:zoom="0.75499997"
     inkscape:cx="26.490067"
     inkscape:cy="40.397352"
     inkscape:window-width="1680"
     inkscape:window-height="998"
     inkscape:window-x="-8"
     inkscape:window-y="-8"
     inkscape:window-maximized="1"
     inkscape:current-layer="svg1"
     showguides="true">
    <sodipodi:guide
       position="72.36148,800.93768"
       orientation="0,-1"
       id="guide5"
       inkscape:locked="false" />
  </sodipodi:namedview>
  <path
     style="fill:#000000;stroke:none;stroke-width:1"
     d="m 394.39467,3.1019583 c -12.27491,2.487675 -24.61855,6.4714002 -37.03032,11.9514907 -24.82358,10.960153 -36.40409,36.664773 -34.74348,77.113067 -4.01129,9.622104 -7.84166,22.782734 -11.4907,39.483024 -1.14577,9.61193 0.30345,14.62078 4.35031,15.02783 4.04688,0.40703 7.67535,1.27982 10.88271,2.61691 -6.50677,6.5531 -0.34253,8.69151 4.07203,7.57121 0.97043,1.44656 -6.79346,6.78096 1.54686,8.21 3.3732,0.57797 6.12494,4.36155 8.25672,11.34921 2.13178,6.98763 5.93427,9.96611 11.40879,8.9353 5.4745,-1.03076 13.85349,-3.33527 25.13425,-6.91507 l 8.14355,15.14053 c -16.80948,1.31029 -34.56967,10.88383 -53.77938,28.17164 -7.24347,6.51877 -17.62028,15.0495 -28.20815,26.80357 -31.60898,35.09056 -65.18858,80.67393 -91.57206,113.79195 -47.88746,-1.34607 -123.614375,-0.37016 -148.65549,2.38774 l -0.38868,34.97851 c 54.20089,7.50956 118.04134,7.33786 165.54616,4.42972 56.93824,-46.79417 86.92238,-77.80898 116.75461,-117.99721 40.77176,41.99504 75.08426,69.253 75.08426,143.61612 l -51.08165,258.53315 c -18.76455,109.8072 -33.01167,178.60989 -42.74143,206.40921 -10.42474,27.1043 -21.8915,42.56801 -34.4012,46.39039 -12.50967,3.82245 -33.7068,12.68353 -63.59102,26.58312 -20.84947,3.47493 -33.35815,9.90286 -37.52804,19.28516 -4.16988,9.38216 4.51654,13.37907 26.06098,11.9892 26.40932,0 46.04257,-1.38907 58.89974,-4.16912 12.85719,-2.78002 29.53742,-2.08529 50.03938,2.08456 20.50198,4.16983 30.40492,-2.43281 29.70996,-19.8073 3.47489,-34.74914 17.20011,-76.10138 41.17701,-124.05517 23.9769,-47.9538 34.74912,-83.91797 32.31664,-107.89487 -2.43242,-23.97686 5.38673,-43.26282 23.45628,-57.85747 l 78.18491,1.04229 c 15.98463,109.11225 25.71491,179.30614 29.1898,210.58031 1.38995,26.40935 -2.95422,44.13144 -13.03148,53.16622 -10.07724,9.03462 -30.05781,14.94069 -59.94203,17.72075 -17.37455,9.72971 -26.58291,17.20155 -27.62539,22.41398 -1.04251,5.21232 5.04017,7.81809 18.24487,7.81809 12.50962,0 27.79868,-0.52193 45.86828,-1.5644 18.06953,-1.04248 39.78658,-1.04248 65.15342,0 25.36686,1.04247 33.88062,-6.77473 25.54084,-23.45429 -8.3399,-51.42868 -9.20901,-101.46736 -2.6067,-150.11615 6.60231,-48.64873 2.26007,-94.1706 -13.02949,-136.56451 L 573.99193,529.84427 c 11.1198,-41.00397 9.90512,-78.70664 -3.64698,-113.10825 -1.77188,-37.43084 -20.66396,-90.99213 -22.10923,-169.39562 l 0.72802,-0.27579 c 13.27682,36.67533 36.49848,68.4892 64.35578,110.13201 -1.10382,25.60591 2.37575,54.8568 15.59258,91.21283 13.21708,36.35608 14.93281,62.90429 5.14609,79.64452 -9.78673,16.74023 -9.40336,38.88388 1.15025,66.43361 7.67566,-0.10018 10.41874,-5.62533 8.2307,-16.57735 -2.18806,-10.95206 -1.25858,-20.48247 2.78871,-28.58985 11.17426,18.30269 17.72745,34.96255 5.04969,68.65047 -5.56671,8.29621 -1.88347,17.43979 13.02421,14.36505 19.41708,-34.18657 19.51787,-49.27164 2.60352,-126.04226 -1.1895,-71.84608 -7.71507,-119.88145 -15.17585,-147.44105 -9.00609,-30.87065 -27.99169,-86.71821 -59.7346,-155.2882 -12.60508,-27.22908 -34.6493,-38.31877 -62.28841,-37.04078 -39.92528,6.547 -62.43024,6.16286 -67.51295,-1.15145 -5.08275,-7.31426 -9.57929,-15.85155 -13.4908,-25.61409 11.43137,-8.63709 21.07877,-21.4824 28.94053,-38.53475 7.86162,-17.052342 8.1261,-37.196904 0.79573,-60.432059 C 471.09821,14.690667 455.28995,1.1371881 431.01387,0.12771616 418.87582,-0.37702178 406.66958,0.61427971 394.39467,3.1019583 Z m -8.30965,18.6441087 c 9.22093,-2.160781 19.62637,-3.368209 31.21389,-3.620018 23.17511,-0.503667 38.00122,9.179595 44.47695,29.046556 5.9731,20.711578 3.93414,40.229496 -6.11437,58.553815 -10.04849,18.3243 -18.19953,25.05285 -24.45347,20.18685 -6.92762,-4.69505 -6.28946,-14.89574 1.9142,-30.600841 15.65471,-29.969533 -4.13516,-61.986462 -40.81116,-29.436105 -9.1194,-4.855854 -26.48415,-5.469538 -52.0922,-1.838883 1.6123,-28.082881 30.16872,-38.612924 45.86616,-42.291374 z m -49.10706,54.944386 c 20.88252,-5.299453 39.25707,-4.942071 55.12297,1.069751 1.2068,7.580859 4.06914,6.85447 8.58814,-2.17945 9.11555,-18.222949 29.21015,-15.718795 25.94055,6.859454 -1.563,10.793328 -5.02797,20.456282 -10.39157,28.987552 -5.36365,8.53127 -5.0431,15.44202 0.95954,20.73033 6.00261,5.28829 10.36063,10.45578 13.07548,15.50292 14.12787,38.71844 34.66549,54.65888 61.61064,47.82088 26.9452,-6.83799 31.91205,15.78877 32.26275,70.2472 0.34533,53.62523 14.8171,98.90265 17.99911,138.13642 l -98.4625,21.73089 c -2.77989,-81.31296 -35.56813,-109.551 -52.84226,-132.41373 -17.27417,-22.8627 -30.01158,-38.4506 -38.2162,-46.76516 -8.20465,-8.31455 0.15465,-15.63443 25.07892,-21.95959 24.25067,-6.15419 32.67404,-18.86902 25.27332,-38.1428 -7.40075,-19.27371 -18.33445,-24.92232 -32.80223,-16.94869 -14.46778,7.97363 -22.06258,4.88062 -22.78706,-9.27578 7.21864,-8.28501 9.05531,-13.05285 5.51114,-14.30446 -3.54419,-1.2516 -9.44315,-1.18782 -17.69765,0.18994 -0.35205,-4.21273 -4.91163,-6.64077 -13.67901,-7.28385 2.2916,-19.22391 5.52861,-33.3109 9.71081,-42.259352 6.55518,-5.248619 14.30146,-7.214424 23.23976,-5.897656 8.93828,1.316737 17.61965,1.623813 26.04514,0.919683 l -2.54901,-5.807081 c -4.71543,1.196651 -11.58529,0.968341 -20.60905,-0.68523 -9.02377,-1.653572 -16.81251,0.144906 -23.36771,5.393495 0.65329,-5.901869 1.64889,-10.45831 2.98598,-13.665686 z M 409.896,69.47963 c -9.83595,6.308426 -14.39479,24.140653 -10.13328,29.997322 -2.85528,2.875628 -4.19308,6.083598 -4.01195,9.622728 0.1811,3.53907 2.2949,5.51083 6.34176,5.91785 4.04684,0.40706 8.41664,-3.56835 13.10667,-11.92869 4.73537,-9.160738 12.11978,-24.666801 4.68001,-34.528693 -2.15096,-2.491508 -5.64864,-1.860504 -9.98321,0.919483 z m 3.54138,5.803082 c 5.72994,-1.647238 5.12847,8.394665 1.46586,16.050683 -2.3424,4.896505 -4.47835,8.485175 -6.4087,10.767585 -1.93033,2.28243 -2.22959,1.10324 -0.89756,-3.536857 1.33202,-4.6401 0.82103,-5.943631 -1.5316,-3.912586 -2.35262,2.031052 -3.3251,1.022721 -2.91807,-3.024107 1.11425,-11.077588 5.09624,-14.851606 10.29007,-16.344718 z m -68.43166,19.336612 c -3.47387,0.74713 -6.37635,2.355672 -8.70633,4.82912 l -4.52472,7.602216 1.53875,6.06347 3.52972,-3.04844 c 10.79842,2.99571 21.23966,0.346 31.32373,-7.94916 l 11.37162,-1.80847 -1.28238,-5.0532 -11.11475,2.820636 c -8.96729,-3.550043 -16.34582,-4.701422 -22.13564,-3.456172 z m -1.11937,5.056436 c -1.50802,2.53373 -0.91004,4.89011 1.79464,7.07179 -2.86547,0.0102 -5.39464,-0.0645 -7.58647,-0.22537 0.66345,-3.0364 2.59463,-5.31803 5.79183,-6.84642 z m 8.33843,-1.040765 11.38638,2.487025 c -3.87081,1.69933 -7.40481,3.31275 -10.602,4.84114 2.18168,-2.70471 1.92034,-5.14653 -0.78438,-7.328165 z m 49.07669,6.905415 c 4.55463,0.99518 5.82238,2.46497 3.80658,4.41059 -2.01576,1.94556 -3.57262,2.1605 -4.67364,0.64737 -1.101,-1.5131 -0.81191,-3.19782 0.86706,-5.05796 z m -64.32103,43.21011 c 2.86548,-0.0102 6.04733,-0.57202 9.50095,-1.09009 3.04938,-0.45742 3.27279,-0.26149 3.13685,0.0339 l -14.8994,4.85641 c -2.23528,0.56727 -3.90963,-2.23378 2.26164,-3.7999 z m 13.15052,0.96401 c -0.69552,3.18249 -5.95664,6.65024 -10.58625,9.14049 -3.09084,0.68579 -2.79852,-1.36369 -2.03577,-3.78466 z m 197.71702,277.29525 c 10.70842,31.47985 17.45752,61.48323 0.083,101.79221 l 23.97641,135.52224 h -172.008 l 42.74143,-211.6226 z"
     id="path1"
     sodipodi:nodetypes="ssccsccsssccssccccccccscscsscsscccscsssscscccccccscscccccscscccsssscscsccsccsssscssccssssscscccsccsccscsssssssssssssccccccccscccccccccssccscccccccccccccc" />
  <path
     d="m 62.71031,364.74036 c -26.37351,-6.5848 -53.755121,-12.29148 -80.781252,-6.33594 0.496337,7.54425 6.336486,12.99507 18.509766,13.41992 0.22328,32.1872 8.036317,46.40144 22.843746,43.01172 5.91966,-1.35513 36.45794,-13.34328 39.03906,-15.11719"
     style="fill:#000000;stroke:none;stroke-width:1"
     id="path1-9" />
  <path
     style="fill:#000000;stroke:none;stroke-width:1px;stroke-linecap:butt;stroke-linejoin:miter;stroke-opacity:1"
     d="M 78.750631,-2.328499e-6 90.980083,12.150416 C 48.426585,31.293407 14.599082,62.131127 -2.9695611,93.419494 7.6278598,129.32194 18.405961,148.83211 33.345966,177.3433 40.076424,145.60975 81.889643,105.72554 114.5749,87.472447 l 12.61204,18.134143 c -28.439358,16.68498 -69.022127,54.07831 -77.193501,111.23528 -1.514615,10.5944 -3.334467,23.48308 -4.422302,33.98694 22.925697,-14.10646 39.47681,-19.05362 72.013093,-21.54259 l 0.31722,15.26646 c -26.356729,2.00536 -53.510562,9.95663 -73.498495,27.91348 -4.740192,58.82863 1.838756,112.16708 13.563942,170.56626 l -31.659574,12.503 C 18.460713,400.41365 12.80611,358.59052 16.781327,306.60053 3.5111321,264.22237 -14.960222,231.62795 -33.80514,210.84871 l 10.7828,-13.33359 c 16.8408159,20.4775 29.0249816,33.61584 41.223977,62.86122 1.194446,-17.09931 3.003098,-29.57351 5.455615,-50.0379 C -13.007937,147.02871 -36.775997,84.929007 -39.348812,13.98603 -42.993695,15.027425 -19.963334,-2.328499e-6 -19.963334,-2.328499e-6 -17.528776,33.695206 -14.526184,49.710974 -9.4561981,70.701417 6.4801411,41.791508 38.653442,18.915891 78.750631,-2.328499e-6 Z"
     id="path1-2"
     sodipodi:nodetypes="cccccccccccccccccccccc" />
</svg>
