<?xml version="1.0" encoding="UTF-8" standalone="no"?>
<svg
   width="1250"
   height="1000"
   version="1.1"
   id="svg1"
   sodipodi:docname="1352A.svg"
   inkscape:version="1.4.2 (f4327f4, 2025-05-13)"
   xmlns:inkscape="http://www.inkscape.org/namespaces/inkscape"
   xmlns:sodipodi="http://sodipodi.sourceforge.net/DTD/sodipodi-0.dtd"
   xmlns:xlink="http://www.w3.org/1999/xlink"
   xmlns="http://www.w3.org/2000/svg"
   xmlns:svg="http://www.w3.org/2000/svg">
  <defs
     id="defs1" />
  <sodipodi:namedview
     id="namedview1"
     pagecolor="#ffffff"
     bordercolor="#666666"
     borderopacity="1.0"
     inkscape:showpageshadow="2"
     inkscape:pageopacity="0.0"
     inkscape:pagecheckerboard="0"
     inkscape:deskcolor="#d1d1d1"
     inkscape:zoom="0.53386562"
     inkscape:cx="1059.2553"
     inkscape:cy="577.86077"
     inkscape:window-width="1680"
     inkscape:window-height="998"
     inkscape:window-x="-8"
     inkscape:window-y="-8"
     inkscape:window-maximized="1"
     inkscape:current-layer="svg1"
     showguides="true">
    <sodipodi:guide
       position="207.06305,181.5894"
       orientation="0,-1"
       id="guide7"
       inkscape:locked="false" />
    <sodipodi:guide
       position="957.05994,702.84832"
       orientation="0,-1"
       id="guide10"
       inkscape:locked="false" />
    <sodipodi:guide
       position="618.79848,819.6921"
       orientation="-0.35114446,0.9363213"
       id="guide11"
       inkscape:locked="false" />
    <sodipodi:guide
       position="501.71497,640.31264"
       orientation="-0.36554839,0.93079234"
       id="guide12"
       inkscape:locked="false" />
    <sodipodi:guide
       position="409.71956,482.31261"
       orientation="0.027227561,0.99962926"
       id="guide13"
       inkscape:locked="false" />
    <sodipodi:guide
       position="423.07676,898.782"
       orientation="-0.42984566,0.90290238"
       id="guide14"
       inkscape:locked="false" />
  </sodipodi:namedview>
  <path
     style="fill:#000000;stroke:none;stroke-width:0.999996"
     d="m 423.15321,494.24785 c 13.16617,-4.73981 25.41072,-8.55801 36.73365,-11.45459 11.32294,-2.89643 18.30102,-9.87452 20.93423,-20.93427 l 19.74931,-0.78996 c 12.11291,39.49858 11.32293,78.20719 -2.36994,116.12583 l -20.53927,-0.78994 c -2.1066,-11.05963 -8.68969,-18.43271 -19.74926,-22.11923 -11.05964,-3.68654 -23.17255,-7.89972 -36.33872,-12.63953 -16.32607,-16.32607 -15.7994,-32.12551 1.58,-47.39831 z m 10.26957,36.33871 c 11.58625,5.26649 21.85589,9.08469 30.8089,11.45459 8.95301,2.36976 15.53611,8.8212 19.7493,19.35431 h 3.94987 c 8.95298,-27.38567 9.74295,-55.29802 2.36992,-83.73703 h -3.15989 c -4.73981,8.95301 -11.84956,14.61448 -21.32925,16.98439 -9.47966,2.36993 -20.01262,5.92482 -31.59889,10.66465 -10.53295,7.89972 -10.79627,16.32608 -0.78996,25.27909 z"
     id="path4"
     sodipodi:nodetypes="csccccscccsccccscc" />
  <path
     style="fill:#000000;stroke:none;stroke-width:0.999996"
     d="m 505.34801,332.51741 c 10.53296,-8.95297 20.40761,-16.98433 29.62394,-24.0941 9.21634,-7.10974 12.77121,-16.45774 10.66461,-28.04401 l 18.16936,-7.89969 c 25.80573,31.59888 40.02521,67.67425 42.65846,108.2261 l -19.7493,7.10977 c -6.31979,-9.47967 -15.2728,-13.82451 -26.85903,-13.03454 -11.58625,0.78998 -24.2258,1.44829 -37.91863,1.97494 -21.59256,-8.42637 -27.12236,-23.17252 -16.58941,-44.23847 z m 22.90915,29.22901 c 13.16621,1.05327 24.35749,0.92159 33.57383,-0.39503 9.21633,-1.31663 17.77435,1.7116 25.67405,9.08469 l 3.1599,-0.78996 c -2.63324,-28.9656 -12.63954,-54.77133 -30.01891,-77.41719 l -3.1599,0.78992 c -1.05327,10.00635 -5.39812,17.90607 -13.03454,23.69918 -7.63638,5.79311 -15.93108,13.16617 -24.8841,22.11918 -6.84643,11.05961 -3.94988,18.69602 8.68967,22.90921 z"
     id="path3"
     sodipodi:nodetypes="csccccscccsccccscc" />
  <path
     style="fill:#000000;stroke:none;stroke-width:0.999996"
     d="m 424.11962,69.513574 c 10.53299,-11.059608 20.40763,-21.065917 29.62394,-30.018928 9.21633,-8.953009 12.50789,-20.012616 9.87468,-33.1788212 l 18.95928,-8.6896698 c 32.65217,35.812039 52.13814,77.417206 58.45791,124.815505 l -20.53924,9.4797 c -7.37305,-11.58626 -17.51103,-16.58942 -30.41392,-15.00947 -12.90287,1.57992 -26.9907,2.89653 -42.26347,3.94983 -25.27909,-9.47967 -33.17882,-26.595719 -23.69918,-51.348146 z m 27.64904,34.758726 c 14.21948,0.52665 26.46403,-0.13164 36.73366,-1.97489 10.26964,-1.84327 20.14429,1.44827 29.62394,9.87464 l 3.1599,-1.57996 C 516.01966,76.359998 502.32682,46.07775 480.20764,19.74534 l -3.15989,2.369922 c 0,12.112906 -3.94985,21.592565 -11.84956,28.438978 -7.89972,6.846443 -16.32608,15.799453 -25.27909,26.85903 -6.3198,13.166205 -2.36995,22.119215 11.84956,26.85903 z"
     id="path2"
     sodipodi:nodetypes="csccccscccsccccscc" />
  <path
     style="fill:#000000;stroke:none;stroke-width:0.999996"
     d="m 622.18798,149.5842 c 11.58626,-10.53293 22.25087,-19.88092 31.99384,-28.04399 9.74297,-8.16304 13.56118,-19.09097 11.45462,-32.783796 l 20.53923,-7.109748 c 29.49227,37.391974 45.81836,80.313764 48.97826,128.765354 l -20.53933,7.10972 c -6.84638,-11.58622 -16.72101,-17.11601 -29.62389,-16.58937 -12.90285,0.52666 -27.254,0.78999 -43.05345,0.78999 -24.22579,-11.05961 -30.80888,-28.439 -19.74928,-52.13816 z m 26.859,35.54874 c 14.2195,1.0533 26.59573,1.0533 37.12869,0 10.53295,-1.05329 20.0126,2.89656 28.43893,11.84957 l 3.15989,-0.78998 c -3.15985,-34.23209 -14.74609,-65.3043 -34.75871,-93.21662 l -3.1599,1.57995 c -1.05327,12.11287 -5.66144,21.32921 -13.8245,27.64901 -8.16305,6.31976 -17.24772,14.48279 -27.25401,24.4891 -7.37307,13.1662 -3.94986,22.64586 10.26961,28.43897 z"
     id="path1"
     sodipodi:nodetypes="csccccscccsccccscc" />
  <path
     style="fill:none;stroke:#613583;stroke-width:30;stroke-linecap:butt;stroke-linejoin:miter;stroke-dasharray:none;stroke-opacity:1"
     d="M 203.53116,985 H 24.723211 L 81.676853,823.4106 H 203.53116"
     id="path6"
     sodipodi:nodetypes="cccc" />
  <use
     x="0"
     y="0"
     xlink:href="#path6"
     id="use7"
     transform="matrix(-1,0,0,1,407.06232,0)" />
  <path
     style="fill:none;stroke:#813d9c;stroke-width:25;stroke-linecap:butt;stroke-linejoin:miter;stroke-dasharray:none;stroke-opacity:1"
     d="M 431.03128,97.431082 C 173.67934,219.94888 115.23179,480.72753 115.23179,818.4106"
     id="path7"
     sodipodi:nodetypes="cc" />
  <path
     style="fill:none;stroke:#813d9c;stroke-width:25;stroke-linecap:butt;stroke-linejoin:miter;stroke-dasharray:none;stroke-opacity:1"
     d="M 626.15709,177.54823 C 199.22041,337.66041 169.53642,541.30795 169.53642,818.4106"
     id="path8"
     sodipodi:nodetypes="cc" />
  <path
     style="fill:none;stroke:#9141ac;stroke-width:25;stroke-linecap:butt;stroke-linejoin:miter;stroke-dasharray:none;stroke-opacity:1"
     d="M 510.10458,356.39252 C 238.77455,462.95147 226.37884,603.70862 226.37884,818.4106"
     id="path9"
     sodipodi:nodetypes="cc" />
  <path
     style="fill:none;stroke:#9141ac;stroke-width:25;stroke-linecap:butt;stroke-linejoin:miter;stroke-dasharray:none;stroke-opacity:1"
     d="M 421.13243,517.99825 C 313.6084,515.06955 284.10596,663.64072 284.10596,818.4106"
     id="path10"
     sodipodi:nodetypes="cc" />
  <path
     id="path1-0"
     style="fill:#000000;stroke:none;stroke-width:0.999999"
     d="m 908.9404,371.13187 c -6.31643,0.16847 -12.81477,0.70211 -19.49611,1.60049 -26.72554,3.59329 -45.47963,23.35664 -56.25968,59.2902 -6.73756,8.08507 -13.92311,19.08951 -21.55891,33.01365 -4.49103,8.98457 -4.82751,14.03792 -1.00968,15.15983 3.81796,1.12287 7.07398,3.0309 9.76906,5.72592 -5.83814,3.89014 -3.65733,7.92615 1.34621,8.75934 1.34874,-0.44878 0.78786,0.33838 -1.68281,2.36028 -2.47087,2.0204 -2.24653,3.92986 0.67313,5.72738 2.91961,1.79676 4.37966,6.73674 4.37966,14.82181 0,7.63558 4.49223,11.22895 13.47557,10.78018 9.43257,0.44877 16.39391,10e-6 20.88577,-1.34626 v 18.86638 c -31.44199,0 -50.68707,10.69994 -62.84506,14.91716 v -8.9e-4 c -13.53086,6.7392 -28.50658,17.52455 -44.92771,32.35639 -2.91239,-3.39763 -11.2864,-12.862 -25.12098,-28.39562 -13.8346,-15.53363 -25.84863,-33.49441 -36.04272,-53.88206 0,-33.98004 -12.1355,-60.43689 -36.40672,-79.36851 -10.19372,-11.65004 -16.26101,-17.47389 -18.20335,-17.47389 -2.4249,0 -4.12496,1.70034 -5.09614,5.09757 -0.61991,-0.76053 -1.28195,-1.41978 -2.18406,-1.45604 -1.94087,-0.078 -2.91496,1.70031 -2.91496,5.09757 -3.39662,0 -5.09613,1.70034 -5.09613,5.09759 -4.11394,-0.36125 -6.39099,3.56861 -5.09758,6.55217 28.15488,27.18403 42.23232,45.8721 42.23232,56.06611 0,4.4686 -1.9352,6.59457 -3.6401,3.64155 -10.20839,-17.68146 -16.44825,-28.24237 -20.38597,-30.57969 -3.30138,-1.95962 -8.60684,3.29342 -6.5565,6.55218 8.82339,14.02421 12.37697,27.51151 17.47534,37.86275 4.9668,10.08407 12.43075,14.67857 20.98254,18.73637 16.14343,31.0508 33.64407,62.22037 47.19845,94.50378 l -31.04626,24.37567 c -6.31036,-11.16482 -30.82558,-42.95918 -73.54289,-95.38491 -1.94201,-20.38801 -4.61255,-36.16508 -8.00966,-47.32988 -2.42684,-11.16483 -18.20324,-29.85326 -47.32844,-56.06614 -3.88295,-1.9435 -5.8256,-0.72871 -5.82559,3.6401 -3.39649,-0.48558 -5.0947,0.97085 -5.0947,4.36811 -3.39647,0 -5.09756,1.70032 -5.09757,5.09759 -3.88134,0 -5.68845,0.97114 -5.46159,2.91351 0.24172,1.9416 1.0931,3.88323 2.54807,5.8256 26.21275,25.72766 39.31879,43.44562 39.31879,53.15405 0.97077,5.33997 -0.72865,6.79416 -5.09757,4.36811 -7.28118,-16.98966 -12.4999,-26.45616 -15.65529,-28.39852 -3.15504,-1.94238 -6.43107,-1.4575 -9.82826,1.45604 0,4.85442 2.18332,8.98051 6.55217,12.37776 11.16448,29.61124 20.87308,45.38753 29.12509,47.3299 47.19239,84.9461 71.27146,114.97996 106.30808,141.25731 6.79606,0 27.18394,-10.19347 61.1637,-30.58112 l 30.58257,23.29949 c 10.66421,-3.31469 20.76792,-6.50616 30.4569,-9.63036 2.71489,8.7344 5.63902,17.73506 8.77088,27.00025 10.42647,30.84533 18.75176,69.46337 24.97656,115.85614 L 721.32539,731.5734 c -17.1236,-15.50373 -32.19179,-23.25325 -45.15018,-23.25325 -36.32968,0.46267 -52.36612,15.46319 -48.20091,45.08229 l 17.17345,148.02616 c -2.4381,0.95975 -4.88761,1.92747 -7.34807,2.90048 -26.94754,11.67842 -40.31059,30.43086 -40.08872,56.2583 0.0462,5.30154 0.48578,10.04961 1.31737,14.24399 -4.14064,1.41917 -8.13815,2.98174 -11.99208,4.69456 -10.18164,4.39676 -20.43248,6.14605 -30.84547,5.2204 -10.41299,-0.69427 -17.73321,4.37796 -21.89834,15.25367 h 170.45319 l -0.0346,-1.11798 L 1089.2145,1000 c -12.1275,-22.45847 -28.7467,-31.44117 -49.8576,-26.94969 -21.1111,4.49186 -35.3716,-4.94179 -42.78268,-28.29879 -7.4115,-23.35676 -20.10125,-28.07315 -38.06785,-14.14871 17.0671,-32.78959 17.7403,-67.37458 2.0194,-103.75716 v -0.006 c 0.4484,-28.74705 1.6847,-59.40257 3.7065,-91.96725 2.0214,-32.56494 5.8389,-62.99666 11.4533,-91.29415 5.6147,-28.29776 0.673,-49.74643 -14.8233,-64.34444 -15.4972,-14.598 -22.34667,-37.39333 -20.54914,-68.38611 12.12764,-4.49155 23.80684,-13.5865 35.03594,-27.28625 11.22925,-13.69974 16.84405,-32.22841 16.84405,-55.58511 0,-24.25522 -10.44445,-40.42497 -31.33085,-48.51004 -15.66507,-6.06362 -32.97135,-8.84277 -51.92053,-8.33736 z m 4.67727,12.55689 c 9.37639,0.56156 19.73503,2.30215 31.07655,5.2218 22.68305,5.83906 34.02475,19.08875 34.02475,39.75069 0,20.66169 -7.5242,38.2917 -22.5715,52.88971 -15.04725,14.59801 -24.81557,18.52888 -29.30699,11.7913 -4.49186,-6.28829 -0.67434,-15.60861 11.4532,-27.96083 23.12989,-23.55826 13.38639,-59.13858 -30.31961,-38.74245 v 8.9e-4 c -7.18647,-7.18683 -23.58044,-12.8016 -49.18316,-16.84413 4.94085,-12.57662 14.82255,-20.66221 29.64514,-24.25574 7.41134,-1.79652 15.80524,-2.41339 25.18162,-1.85183 z m -61.56671,37.5594 c 21.11105,1.34753 38.17936,6.73696 51.20548,16.16954 -0.4493,7.63533 2.80681,7.85968 9.76903,0.67313 14.05107,-14.50501 32.7718,-7.05586 22.90944,13.13755 -4.7162,9.65721 -10.89259,17.85476 -18.52844,24.59232 -7.63594,6.73756 -9.43329,13.36313 -5.39072,19.87607 4.04123,6.51292 6.73601,12.23988 8.0847,17.18066 -1.15102,27.6261 3.92526,48.86129 15.2292,63.70454 -53.05487,21.19625 -84.88773,35.1212 -122.12075,49.63817 -0.82264,-4.33634 -1.57521,-8.65407 -2.25778,-12.9541 -0.44918,-29.19601 11.34193,-43.79525 35.37252,-43.79525 24.03059,0 36.0456,-7.86027 36.0456,-23.58116 0,-20.21344 -8.30975,-29.30816 -24.92889,-27.28627 -16.61937,2.02138 -23.58077,-3.48167 -20.88576,-16.50754 10.33081,-5.39003 13.92418,-9.31946 10.78017,-11.78986 -3.14425,-2.47139 -8.53515,-4.15672 -16.17095,-5.05423 0,-4.04255 -3.81752,-7.63615 -11.45332,-10.78018 7.6358,-17.06865 15.04694,-28.97149 22.23343,-35.70903 7.18687,-4.04009 14.71103,-4.15039 22.57149,-0.33223 7.86044,3.81667 15.60851,6.39944 23.24462,7.74819 v -4.71623 c -4.94104,-0.449 -11.34245,-2.8079 -19.20295,-7.07508 -7.86039,-4.26814 -15.83267,-5.05383 -23.9177,-2.35883 3.14325,-4.49178 5.61417,-8.08514 7.41158,-10.78018 z m 76.08953,12.99024 c -1.40014,-0.0419 -3.0681,0.23198 -5.00514,0.82191 -10.97965,3.34157 -20.68972,20.00252 -17.18207,25.26542 -9.34105,3.73669 -10.47457,11.37707 -3.36707,14.48383 7.8056,3.41514 25.54014,-15.21987 29.30845,-25.26545 2.01936,-5.39005 2.356,-9.54476 1.00973,-12.46442 -0.84222,-1.82462 -2.43036,-2.77157 -4.7639,-2.84129 z m -74.40093,5.37059 c -2.78099,0.14036 -5.3648,0.98239 -7.75108,2.52638 l -7.41164,6.06394 v 5.38935 l 3.36853,-0.676 c 9.88188,4.94103 20.66219,4.94103 32.34053,0 l 11.4547,2.69683 v -6.06393 l -10.78011,-0.67312 c -8.02888,-6.48474 -15.10266,-9.57227 -21.22093,-9.26345 z m 70.76658,1.63659 c 2.64932,-0.0522 3.76321,1.25478 3.34255,3.92176 -0.67354,4.26716 -2.69505,8.30995 -6.06391,12.12787 -3.36867,3.81913 -6.51284,6.40192 -9.43249,7.74821 -2.91956,1.34751 -2.91956,0.11139 0,-3.70655 2.91965,-3.8169 2.91965,-5.16354 0,-4.04166 -2.91938,1.1229 -3.48035,-0.11326 -1.68281,-3.70655 1.79682,-3.59327 4.26771,-7.18662 7.4116,-10.78015 v -9e-4 c 2.69478,-1.01027 4.83692,-1.53015 6.42649,-1.56148 z m -72.45373,2.91207 c -1.79754,2.24576 -1.79754,4.71515 0,7.41019 -3.14319,-0.89994 -5.61418,-2.02235 -7.41158,-3.36853 0.89841,-1.79723 3.36947,-3.14423 7.41158,-4.04166 z m 8.75937,0.67458 9.43245,6.06248 c -4.04079,0.89715 -7.85844,1.34589 -11.45043,1.34626 3.14163,-1.79663 3.81495,-4.26533 2.01798,-7.40874 z m 43.79093,20.87998 c 3.59498,1.79578 4.38073,3.5933 2.35877,5.39082 -2.02231,1.79996 -3.59426,1.6882 -4.7162,-0.33369 -1.12189,-2.0199 -0.33473,-3.70405 2.36029,-5.05279 z m -64.22312,6.98408 c -0.62213,6.2e-4 -1.12816,1.25323 -1.12816,2.79074 0,2.60327 -2.81866,5.28044 -6.40336,0.67312 -4.69971,-6.04136 -6.73631,-2.02572 -5.72449,1.0097 v 0.004 c 1.34678,-1.3485 3.03093,-0.78757 5.0528,1.68282 4.38953,5.35972 10.62238,1.2305 9.77043,-3.03342 -0.45389,-2.26971 -1.04885,-3.12799 -1.56432,-3.1273 z m -11.02432,16.20274 c 0.53345,-0.0143 1.13622,0.006 1.80998,0.0621 2.69501,0.22437 5.61531,0.56091 8.75931,1.00969 3.14382,0.44874 4.49042,0.89748 4.04168,1.34625 h -16.17096 c -1.34628,0 -1.79502,-0.44873 -1.34628,-1.34625 0.33697,-0.6713 1.30609,-1.02882 2.90627,-1.07181 z m 13.93638,4.44179 c -1.7903,1.78822 -8.08196,4.71493 -11.32615,5.12214 -3.47853,0.4366 -5.05474,-1.16394 -2.14653,-3.10275 z m 115.25372,133.11911 c -0.2989,4.61438 -1.098,9.4239 -2.3979,14.43037 -6.0636,23.35695 -11.7906,86.01622 -17.18061,187.97766 h -72.09405 c -11.67835,-55.69723 -22.79475,-98.47977 -33.35021,-128.34968 -2.77797,-7.86109 -5.34682,-15.66861 -7.70486,-23.42082 46.1151,-15.33167 84.24952,-29.89081 132.72763,-50.63632 z m -166.54871,2.97563 c 0.35234,1.48389 0.71208,2.97792 1.08047,4.48224 -2.58794,0.9698 -5.21738,1.94818 -7.89698,2.93662 v -2.91208 z M 673.73549,749.6063 h 28.13272 l 117.62272,88.23764 c -39.10746,12.75495 -83.33016,28.55943 -132.66844,47.4137 1.84564,-59.74129 -2.11301,-115.81368 -13.087,-135.65134 z m 196.50874,100.15027 68.72263,0.67313 v 0 c 12.57661,34.13706 7.86041,65.35403 -14.14869,93.65156 -32.78924,18.86516 -78.26793,21.67187 -136.4356,8.42133 -58.16733,-13.25054 -108.13713,-10.44238 -149.90978,8.42277 38.17939,-57.94275 115.43665,-95.0001 231.77144,-111.17018 z" />
</svg>
