<?xml version="1.0" encoding="UTF-8" standalone="no"?>
<svg
   width="1100"
   height="1000"
   id="svg2277"
   sodipodi:version="0.32"
   inkscape:version="1.4.2 (f4327f4, 2025-05-13)"
   sodipodi:docname="13528.svg"
   inkscape:output_extension="org.inkscape.output.svg.inkscape"
   version="1.0"
   sodipodi:modified="true"
   xmlns:inkscape="http://www.inkscape.org/namespaces/inkscape"
   xmlns:sodipodi="http://sodipodi.sourceforge.net/DTD/sodipodi-0.dtd"
   xmlns="http://www.w3.org/2000/svg"
   xmlns:svg="http://www.w3.org/2000/svg"
   xmlns:rdf="http://www.w3.org/1999/02/22-rdf-syntax-ns#"
   xmlns:cc="http://creativecommons.org/ns#"
   xmlns:dc="http://purl.org/dc/elements/1.1/">
  <metadata
     id="metadata2284">
    <rdf:RDF>
      <cc:Work
         rdf:about="">
        <dc:format>image/svg+xml</dc:format>
        <dc:type
           rdf:resource="http://purl.org/dc/dcmitype/StillImage" />
      </cc:Work>
    </rdf:RDF>
  </metadata>
  <defs
     id="defs2282">
    <inkscape:perspective
       sodipodi:type="inkscape:persp3d"
       inkscape:vp_x="0 : -789.77562 : 1"
       inkscape:vp_y="0 : 1000 : 0"
       inkscape:vp_z="11.321417 : -789.77562 : 1"
       inkscape:persp3d-origin="5.6607084 : -793.18375 : 1"
       id="perspective7" />
  </defs>
  <sodipodi:namedview
     inkscape:window-height="998"
     inkscape:window-width="1680"
     inkscape:pageshadow="2"
     inkscape:pageopacity="0.0"
     guidetolerance="10.0"
     gridtolerance="10.0"
     objecttolerance="10.0"
     borderopacity="1.0"
     bordercolor="#666666"
     pagecolor="#ffffff"
     id="base"
     showgrid="false"
     inkscape:zoom="0.755"
     inkscape:cx="758.9404"
     inkscape:cy="184.76821"
     inkscape:window-x="-8"
     inkscape:window-y="-8"
     inkscape:current-layer="svg2277"
     inkscape:showpageshadow="2"
     inkscape:pagecheckerboard="0"
     inkscape:deskcolor="#d1d1d1"
     inkscape:window-maximized="1"
     showguides="true">
    <sodipodi:guide
       position="672.09403,814.73162"
       orientation="0,-1"
       id="guide1"
       inkscape:locked="false" />
    <sodipodi:guide
       position="0,0"
       orientation="0,-1"
       id="guide2"
       inkscape:locked="false" />
    <sodipodi:guide
       position="409.63489,347.72878"
       orientation="0.62113672,0.78370223"
       id="guide3"
       inkscape:locked="false" />
  </sodipodi:namedview>
  <path
     style="fill:#000000;stroke:none;stroke-width:1"
     d="M -0.14790904,-1.2661182e-5 V 343.84722 H 53.339437 v 175.7441 H 108.35499 V 106.97468 h 386.6371 V 50.430917 H 343.69931 V -1.2661182e-5 Z M 27.359864,27.507768 H 313.13512 V 80.995113 H 80.847209 V 314.81122 H 27.359864 Z"
     id="path2279" />
  <path
     style="fill:#000000;stroke:none;stroke-width:0.999999"
     d="m 818.04838,786.71289 -97.99949,-0.95991 C 554.15492,808.81168 443.98597,861.65437 389.54203,944.28104 449.10999,917.37922 520.36747,913.37595 603.31445,932.27122 686.26181,951.16649 751.11432,947.16321 797.872,920.26138 829.25723,879.909 835.9827,835.393 818.04838,786.7134 Z M 770.97001,230.42322 c -5.00455,-7.5034 8.84319,-31.26408 24.50119,-36.02946 7.36592,-2.24329 12.00966,-1.2834 13.93122,2.87969 1.91981,4.16344 1.43985,10.08826 -1.43984,17.7745 -5.37354,14.32503 -30.6633,40.89897 -41.79418,36.02897 -10.13609,-4.43059 -8.51945,-15.32822 4.80372,-20.65631 z m 17.29403,-24.98059 c -4.48339,5.1244 -8.00619,10.24861 -10.56839,15.37265 -2.56326,5.12404 -1.76334,6.88543 2.39975,5.28418 4.16343,-1.59982 4.16343,0.32174 0,5.76467 -4.16343,5.44438 -4.16343,7.20578 0,5.28422 4.16343,-1.91982 8.64702,-5.60278 13.45074,-11.04889 4.80408,-5.44436 7.68641,-11.20904 8.647,-17.29403 0.9599,-6.08499 -3.68384,-7.20663 -13.93122,-3.36492 z m -14.4117,-23.05818 c 62.32498,-29.08498 76.21832,21.65178 43.23509,55.24595 -17.29403,17.61434 -22.7384,30.9051 -16.33308,39.87225 6.40496,9.6078 20.33616,4.00329 41.79363,-16.81354 21.45746,-20.81683 32.18619,-45.95707 32.18619,-75.42073 0,-29.46403 -16.17308,-48.3593 -48.51927,-56.68582 -32.34616,-8.32687 -59.08783,-9.92847 -80.22498,-4.80478 -21.13714,5.12439 -35.2285,16.65373 -42.27409,34.58805 36.5096,5.76469 59.88845,13.77125 70.13651,24.01966 z m -4.80478,55.72485 c -3.84311,1.92331 -4.96474,4.32517 -3.36491,7.20557 1.59983,2.88322 3.84171,3.04145 6.72564,0.47468 2.88322,-2.56325 1.76157,-5.12528 -3.36493,-7.68606 z m -94.15618,-17.29402 v -7.68605 l 10.56841,-8.64705 c 10.88904,-7.04559 24.66027,-3.84311 41.31368,9.60747 l 15.37212,0.95988 v 8.64702 l -16.33308,-3.84487 c -16.65339,7.04595 -32.02586,7.04595 -46.11742,0 z m 8.64701,-7.68605 c 2.56325,1.91979 6.08605,3.52138 10.5684,4.80476 -2.56326,-3.84314 -2.56326,-7.36593 0,-10.56839 -5.76467,1.27986 -9.28746,3.20142 -10.5684,5.76467 z m 20.17636,5.76465 c 5.12405,0 10.56841,-0.63993 16.33308,-1.9198 l -13.45073,-8.64701 c 2.56324,4.48376 1.60335,8.00673 -2.87969,10.56892 z m -45.15645,35.54851 c -1.4428,-4.32853 1.46207,-10.05488 8.16391,-1.43987 5.11183,6.57008 9.13012,2.75237 9.13012,-0.95991 0,-4.00915 2.41101,-6.66296 3.83961,0.47996 1.21473,6.08037 -7.67337,11.96885 -13.9328,4.32586 -2.88322,-3.52278 -5.28507,-4.32269 -7.20558,-2.39973 z m 23.05871,23.05869 -19.21542,2.8797 c -4.14707,2.76475 -1.89976,5.04755 3.06059,4.42494 4.62982,-0.58112 13.61217,-4.76045 16.15745,-7.30992 z m 0.95991,-2.88497 c 0.63992,-0.63994 -1.28163,-1.27989 -5.76468,-1.91981 -4.48341,-0.63995 -8.64666,-1.11989 -12.48978,-1.43985 -3.84311,-0.31644 -6.085,0.1635 -6.72565,1.43985 -0.63993,1.27988 2e-5,1.91981 1.91982,1.91981 z M 818.0468,755.96548 c 7.68623,-145.39747 15.85277,-234.74977 24.49961,-268.05689 8.6472,-33.30679 1.76158,-60.52876 -20.65684,-81.66589 -22.41808,-21.13715 -32.66633,-54.76443 -30.74477,-100.88184 -1.92332,-7.0456 -5.76643,-15.21214 -11.52934,-24.4996 -5.76469,-9.28749 -3.2025,-18.73512 7.68657,-28.3429 10.88871,-9.6078 19.6957,-21.29732 26.42099,-35.06854 14.06379,-28.79592 -12.63124,-39.41913 -32.66824,-18.73493 -9.92812,10.24807 -14.57187,9.92811 -13.93122,-0.95991 -18.5753,-13.4509 -42.9151,-21.13714 -73.01941,-23.0587 -2.56324,3.84312 -6.08604,8.96733 -10.56839,15.37264 11.52934,-3.84311 22.89854,-2.72148 34.10758,3.36492 11.20904,6.085 20.33652,9.44763 27.38245,10.08792 v 6.72564 c -10.88905,-1.92332 -21.93809,-5.60628 -33.14712,-11.04888 -11.20903,-5.44471 -21.93777,-5.28648 -32.18622,0.47469 -10.24807,9.60778 -20.81646,26.58165 -31.70516,50.92164 10.8887,4.4834 16.33306,9.60745 16.33306,15.37213 10.88872,1.27987 18.57495,3.6819 23.0587,7.2061 4.4834,3.5228 -0.64081,9.12732 -15.37263,16.81354 -3.84314,18.57496 6.08497,26.42119 29.78431,23.53868 23.699,-2.88323 35.5485,10.08738 35.5485,38.91181 0,22.41808 -17.13387,33.62712 -51.40162,33.62712 -34.26772,0 -51.08128,20.81682 -50.44066,62.45046 6.40532,40.35273 17.13406,81.82624 32.18622,124.4205 15.05214,42.59459 30.90492,103.60399 47.55831,183.02819 z m 30.74477,-2.88497 c 22.41806,51.88173 21.45816,101.20162 -2.8797,147.95966 25.62054,-19.85621 43.71518,-13.13093 54.28393,20.17585 10.5684,33.30714 30.90475,46.75804 61.00905,40.35273 30.10431,-6.40497 53.80355,6.40548 71.09755,38.43135 l -660.05336,-1.91982 c -26.9018,0.63994 -40.51286,-17.45453 -40.83319,-54.28341 -0.31646,-36.82993 18.73897,-63.5716 57.16629,-80.22499 C 501.95375,818.7354 598.67196,783.8272 678.73679,758.8473 669.76928,689.67118 657.59946,632.34473 642.22734,586.86795 626.85487,541.3912 615.00519,500.39819 606.67833,463.88893 c -41.61169,4.02187 -89.28256,5.63252 -126.84914,7.09013 -37.56622,1.45764 -68.53583,-1.15847 -92.90882,-7.84832 l -0.95356,-0.1103 c -43.22115,-77.8608 -71.63983,-144.5089 -88.68485,-196.89729 -29.99688,12.71027 -44.7532,17.88132 -66.25231,19.25523 -21.49941,1.37388 -51.60419,-15.34123 -90.31431,-50.14535 -2.42476,-6.13288 -0.31947,-12.3166 6.31587,-18.55115 6.63354,-6.23442 10.88677,-6.64541 12.75972,-1.23295 10.81402,11.11154 23.03172,20.14656 36.65306,27.10506 13.62101,6.95812 32.55551,9.12368 56.8035,6.49671 -17.29885,-15.83989 -33.63156,-24.28511 -48.99816,-25.33565 -15.36648,-1.05125 -22.46561,-6.0217 -21.29737,-14.91136 34.12638,-5.59574 70.76524,1.545 122.77663,23.49063 6.10526,2.57605 18.03873,11.25388 21.01701,15.46681 37.7067,53.33791 64.42246,89.48386 87.7344,127.64407 -13.52062,-44.76509 -20.93501,-89.94086 -22.47434,-150.55135 -48.01668,3.21491 -52.68516,0.8584 -74.26948,-2.10539 -21.58476,-2.96312 -47.51885,-25.39823 -77.80233,-67.3053 -0.58811,-6.50542 2.91072,-12.08835 10.49665,-16.74887 7.58698,-4.66039 12.0618,-4.33865 13.42445,0.96519 7.54707,13.6954 17.26135,25.20764 29.14287,34.53671 11.88183,9.32949 29.92288,15.29454 54.12319,17.89512 -13.43669,-18.83751 -27.6604,-30.35126 -42.6711,-34.54129 -15.01058,-4.19106 -20.76315,-10.60692 -17.25766,-19.24758 32.97636,1.73642 71.23897,17.30196 114.78799,46.69649 6.82964,4.60982 19.09412,23.38057 21.26221,28.96045 23.66195,60.89755 44.42486,114.08073 64.35082,181.5094 36.90897,-12.495 78.14328,-18.55597 127.46316,-21.75882 17.33725,-6.01378 44.78174,-21.27232 89.61823,-21.27232 v -26.90198 c -6.40532,1.9198 -16.33343,2.55973 -29.78435,1.91978 -12.81027,0.63995 -19.21539,-4.48427 -19.21539,-15.37264 0,-11.52935 -2.08172,-18.57512 -6.24516,-21.1373 -4.16343,-2.56327 -4.4834,-5.28544 -0.9599,-8.16654 3.52315,-2.88324 4.32307,-4.00487 2.39976,-3.36492 -7.13509,-1.18812 -10.24607,-6.94349 -1.92086,-12.49085 -3.84313,-3.84311 -8.48686,-6.5653 -13.93122,-8.16653 -5.44435,-1.59983 -4.9644,-8.80576 1.43986,-21.6178 10.88871,-19.85587 21.13696,-35.54848 30.74475,-47.07784 15.37247,-51.24144 42.11413,-79.42419 80.22499,-84.54824 38.1105,-5.12438 72.05792,-1.92189 101.84226,9.60747 29.78399,11.52936 44.67597,34.58805 44.67597,69.1761 0,33.30678 -8.00654,59.72812 -24.01965,79.26402 -16.01275,19.53591 -32.66614,32.50634 -49.96016,38.91131 -2.56327,44.19585 7.20468,76.70219 29.30384,97.519 22.09776,20.81684 29.14335,51.40162 21.13679,91.75436 -8.0062,40.35238 -13.45056,83.74742 -16.33308,130.18515 -2.88321,46.43737 -4.64461,90.15275 -5.2842,131.14611 z"
     id="path1"
     sodipodi:nodetypes="cccscsccccccccccccccccccscsscccccccccccccccccccccccccccccccsccccccscccsccsccccccccccccccccccccccsscscccccccccccccscccccccccccssccccccccccsscccccsccccccccssccccccc" />
  <path
     style="fill:#000000;stroke:none;stroke-width:0.999995"
     d="m 365.4911,955.53046 c -17.81871,3.62958 -34.16422,8.67475 -49.0132,15.27424 -14.51897,6.26976 -29.13717,8.76395 -43.98611,7.4439 -14.84896,-0.98994 -25.28576,6.24243 -31.22532,21.75133 h 243.06568 l -1.24782,-40.78282 z"
     id="path3"
     sodipodi:nodetypes="ccccccc" />
  <path
     style="fill:#000000;stroke:none;stroke-width:0.999995"
     d="m 443.5914,584.06313 c -51.80633,0.65979 -74.67388,22.05042 -68.73433,64.28744 l 26.46938,228.15783 56.45689,-15.37091 c 4.61962,-94.0433 -0.51341,-187.1828 -17.67212,-218.20058 h 40.1192 L 674.282,788.50952 700.06801,769.46815 507.97549,617.2219 C 483.55723,595.11347 462.07012,584.06313 443.5914,584.06313 Z"
     id="path7"
     sodipodi:nodetypes="cccccccccc" />
</svg>
