<?xml version="1.0" encoding="UTF-8" standalone="no"?>
<svg
   width="600"
   height="1000"
   version="1.1"
   id="svg1"
   sodipodi:docname="13027.svg"
   inkscape:version="1.4.2 (f4327f4, 2025-05-13)"
   xmlns:inkscape="http://www.inkscape.org/namespaces/inkscape"
   xmlns:sodipodi="http://sodipodi.sourceforge.net/DTD/sodipodi-0.dtd"
   xmlns="http://www.w3.org/2000/svg"
   xmlns:svg="http://www.w3.org/2000/svg">
  <defs
     id="defs1" />
  <sodipodi:namedview
     id="namedview1"
     pagecolor="#ffffff"
     bordercolor="#666666"
     borderopacity="1.0"
     inkscape:showpageshadow="2"
     inkscape:pageopacity="0.0"
     inkscape:pagecheckerboard="0"
     inkscape:deskcolor="#d1d1d1"
     inkscape:zoom="0.53386562"
     inkscape:cx="454.23416"
     inkscape:cy="547.89068"
     inkscape:window-width="1680"
     inkscape:window-height="998"
     inkscape:window-x="-8"
     inkscape:window-y="-8"
     inkscape:window-maximized="1"
     inkscape:current-layer="svg1" />
  <path
     id="path1"
     style="fill:#000000;stroke:none;stroke-width:0.999998"
     d="M 390.08008 0.3125 C 377.91332 1.1878062 365.52826 3.9015329 352.92383 8.453125 C 327.71502 17.556346 312.30899 40.313826 306.70703 76.726562 C 301.80532 85.129501 296.55313 97.034065 290.95117 112.43945 C 288.15019 121.54264 288.85126 126.44429 293.05273 127.14453 C 297.2542 127.84478 300.75566 129.24497 303.55664 131.3457 C 300.75566 134.14668 300.05459 136.59848 301.45508 138.69922 C 302.85557 140.79995 304.6063 141.14854 306.70703 139.74805 C 303.90605 146.7505 304.25658 150.77777 307.75781 151.82812 C 311.25903 152.87851 313.3603 156.90575 314.06055 163.9082 C 315.46104 170.91065 318.7872 174.58541 324.03906 174.93555 C 329.29088 175.28566 337.51875 174.06075 348.72266 171.25977 L 355.02344 192.26758 C 318.6107 199.27003 297.42862 210.64877 291.47656 226.4043 C 285.52446 242.15983 278.173 257.39059 269.41992 272.0957 C 260.66687 286.80084 246.13522 315.16105 225.82812 357.17578 C 191.51612 345.97186 153.70316 336.16857 112.38867 327.76562 L 112.38867 326.71484 C 105.88639 325.58401 99.585229 324.69653 93.482422 324.05078 L 93.482422 46.265625 L 70.375 46.265625 L 70.375 322.76172 C 55.683791 322.74617 42.378928 324.41369 30.460938 327.76562 C 29.060448 337.56906 34.661216 342.4707 47.265625 342.4707 C 47.265625 371.88099 54.969611 385.53432 70.375 383.43359 L 70.375 458.55664 C 55.683793 458.34301 42.378927 459.90978 30.460938 463.26172 C 29.060448 473.06519 34.661216 477.9668 47.265625 477.9668 C 47.265625 508.07729 54.969611 521.73262 70.375 518.93164 L 70.375 772.07031 L 1.0507812 772.07031 L 0 1000 L 158.60547 1000 L 303.55664 1000 C 321.76301 993.69776 323.1632 978.2917 307.75781 953.7832 C 351.17299 871.85447 369.72993 817.76112 363.42773 791.50195 C 357.12552 765.24278 367.97848 735.3071 395.98828 701.69531 L 445.35547 701.69531 C 445.35547 725.50364 452.70891 745.81131 467.41406 762.61719 C 485.62043 817.93654 498.74993 865.5528 506.80273 905.4668 C 514.85556 945.38076 504.00066 965.68842 474.24023 966.38867 C 444.47984 967.08888 418.04562 974.09175 394.9375 987.39648 L 405.44141 1000 L 540.93945 1000 C 566.84852 997.19902 575.07634 984.42008 565.62305 961.66211 C 556.16972 938.90416 553.19408 905.99281 556.69531 862.92773 C 560.19657 819.86265 548.29201 778.02241 520.98242 737.4082 L 520.98242 548.3418 C 539.18879 497.22389 535.3368 449.60762 509.42773 405.49219 L 483.16992 239.5332 C 478.26821 209.42263 460.41039 186.66516 429.59961 171.25977 L 425.39844 141.84961 C 459.71044 122.24275 474.0668 93.531976 468.46484 55.71875 C 463.56313 26.308425 449.38205 8.8031311 425.92383 3.2011719 C 414.19473 0.40019212 402.24684 -0.56280619 390.08008 0.3125 z M 393.95312 17.052734 C 399.07367 17.0965 404.47848 17.381066 410.16797 17.90625 C 432.92595 20.007022 446.40595 34.012812 450.60742 59.921875 C 454.10861 79.528733 449.38224 96.33299 436.42773 110.33789 C 423.47322 124.34278 414.54429 128.19478 409.64258 121.89258 C 404.04062 116.99087 406.31717 107.53811 416.4707 93.533203 C 435.9672 66.641516 419.50644 32.732166 380.23242 59.921875 C 372.52973 54.319915 355.72355 51.517578 329.81445 51.517578 C 333.31568 38.212925 341.89404 28.7602 355.54883 23.158203 C 365.7899 18.956734 378.5915 16.921439 393.95312 17.052734 z M 403.98242 60.761719 C 410.54426 61.076416 414.95415 67.427639 411.21875 79.878906 C 408.06767 90.38258 403.34127 99.309557 397.03906 106.66211 C 390.73685 114.0147 390.03582 120.66708 394.9375 126.61914 C 399.83921 132.57124 403.69117 137.99867 406.49219 142.90039 L 412.79492 183.86523 L 411.74414 183.86523 C 443.95541 197.16989 462.16181 218.52721 466.36328 247.9375 L 490.52148 409.69336 L 395.98828 443.30469 C 390.38635 413.19416 372.88102 369.77846 343.4707 313.05859 C 346.27168 308.15691 351.87242 292.9281 360.27539 267.36914 C 368.67829 241.81018 359.22557 225.87837 331.91602 219.57617 C 344.52046 211.87347 360.27698 207.32236 379.18359 205.92188 C 375.68233 167.40841 365.178 151.47851 347.67188 158.13086 C 330.16575 164.78317 320.71299 160.0568 319.3125 143.95117 L 335.06641 141.84961 L 334.01758 135.54688 L 316.16016 137.64844 L 315.10938 129.24609 C 314.40912 124.34438 310.20855 121.19151 302.50586 119.79102 C 306.70733 102.2849 311.60898 89.681211 317.21094 81.978516 C 324.21339 77.076801 331.74014 75.851895 339.79297 78.302734 C 347.84577 80.75361 355.72504 81.978516 363.42773 81.978516 L 362.37695 77.777344 C 357.47524 78.477589 350.99811 77.077397 342.94531 73.576172 C 334.89248 70.074947 327.36378 70.774066 320.36133 75.675781 C 321.76182 70.774066 323.51255 66.573491 325.61328 63.072266 C 345.92039 61.671776 363.07714 64.121623 377.08203 70.423828 C 378.48256 78.826767 381.98398 79.002054 387.58594 70.949219 C 392.47385 63.922819 398.87877 60.516954 403.98242 60.761719 z M 401.00977 64.632812 C 399.5425 64.680503 397.86561 65.026797 395.98828 65.697266 C 385.16001 69.564575 379.55935 89.932097 383.38477 92.482422 C 374.26215 98.564166 375.84794 105.76712 382.33398 107.71289 C 389.9157 109.98742 404.91595 89.335914 407.54297 78.828125 C 409.79155 69.833826 407.36792 64.426153 401.00977 64.632812 z M 400.32227 72.130859 C 401.81029 72.218385 402.64134 73.224726 402.81641 75.150391 C 403.16652 79.001757 401.94158 83.204286 399.14062 87.755859 C 396.33961 92.30747 393.53727 95.45839 390.73633 97.208984 C 387.93531 98.959615 387.76007 97.559423 390.21094 93.007812 C 392.66178 88.45624 392.48649 87.056048 389.68555 88.806641 C 386.88453 90.557272 386.01016 89.680913 387.06055 86.179688 C 388.11094 82.678462 390.38748 78.828423 393.88867 74.626953 C 396.68965 72.876341 398.83424 72.043333 400.32227 72.130859 z M 333.06055 80.546875 C 329.05875 80.451138 325.52646 81.629221 322.46289 84.080078 L 316.16016 92.482422 L 317.21094 96.683594 L 320.36133 96.683594 C 330.865 98.784329 341.36937 97.0336 351.87305 91.431641 L 363.42773 92.482422 L 362.37695 86.179688 L 350.82227 87.230469 C 344.12615 82.897703 338.20571 80.669965 333.06055 80.546875 z M 328.76562 85.128906 C 326.66489 87.929886 327.01347 90.381687 329.81445 92.482422 C 326.31322 92.482422 323.86338 92.131886 322.46289 91.431641 C 323.16314 89.330906 325.26441 87.229641 328.76562 85.128906 z M 337.16797 85.128906 L 347.67188 89.332031 C 343.47044 90.732521 339.61846 91.782177 336.11719 92.482422 C 339.61846 90.381687 339.96899 87.929886 337.16797 85.128906 z M 332.9668 340.36914 C 357.47541 381.68359 372.53085 419.14605 378.13281 452.75781 C 364.12787 487.06981 338.56806 585.45525 301.45508 747.91211 C 301.45508 778.02264 296.90397 820.38672 287.80078 875.00586 C 278.6976 927.52427 258.91575 956.235 228.45508 961.13672 C 202.43304 965.32417 179.2616 973.85469 158.60547 986.21875 L 158.60547 772.07031 L 93.482422 772.07031 L 93.482422 515.87305 C 101.1961 513.44119 107.14938 509.55989 111.33984 504.22656 L 112.38867 504.22656 C 185.91443 477.61725 242.28434 454.15867 281.49805 433.85156 C 298.30393 412.14397 315.46068 380.98335 332.9668 340.36914 z M 111.33984 368.72852 C 161.75751 389.03563 202.72139 401.29072 234.23242 405.49219 C 217.42654 411.7944 176.81124 431.05045 112.38867 463.26172 C 105.8864 461.98953 99.585218 460.97732 93.482422 460.21875 L 93.482422 380.37695 C 101.1961 377.9451 107.14938 374.06184 111.33984 368.72852 z M 493.67188 429.65039 C 513.27876 455.55949 516.43164 490.92264 503.12695 535.73828 L 502.07617 683.83984 L 343.4707 683.83984 L 401.24023 460.11133 L 493.67188 429.65039 z M 23.107422 795.17773 L 135.49805 795.17773 L 135.49805 976.89258 L 23.107422 976.89258 L 23.107422 795.17773 z " />
</svg>
