<?xml version="1.0" encoding="UTF-8" standalone="no"?>
<svg
   width="700"
   height="1000"
   version="1.1"
   id="svg1"
   sodipodi:docname="13551.svg"
   inkscape:version="1.4.2 (f4327f4, 2025-05-13)"
   xmlns:inkscape="http://www.inkscape.org/namespaces/inkscape"
   xmlns:sodipodi="http://sodipodi.sourceforge.net/DTD/sodipodi-0.dtd"
   xmlns="http://www.w3.org/2000/svg"
   xmlns:svg="http://www.w3.org/2000/svg">
  <defs
     id="defs1" />
  <sodipodi:namedview
     id="namedview1"
     pagecolor="#ffffff"
     bordercolor="#666666"
     borderopacity="1.0"
     inkscape:showpageshadow="2"
     inkscape:pageopacity="0.0"
     inkscape:pagecheckerboard="0"
     inkscape:deskcolor="#d1d1d1"
     inkscape:zoom="0.5338656"
     inkscape:cx="259.42859"
     inkscape:cy="302.51059"
     inkscape:window-width="1680"
     inkscape:window-height="998"
     inkscape:window-x="-8"
     inkscape:window-y="-8"
     inkscape:window-maximized="1"
     inkscape:current-layer="svg1"
     showguides="true">
    <sodipodi:guide
       position="611.39316,685.45363"
       orientation="-0.78007087,-0.62569116"
       id="guide8"
       inkscape:locked="false" />
  </sodipodi:namedview>
  <path
     id="path7"
     style="fill:#000000;stroke:none;stroke-width:0.999999"
     d="m 380.79883,27.054688 c -9.6709,8.72671 -18.87637,20.107383 -27.5586,34.867187 l 2.96485,3.111328 c -23.04388,30.057175 -33.57804,49.053117 -31.57422,57.068357 -27.05146,36.06866 -39.02522,59.53957 -36.01953,70.56055 l 22.53125,12.1543 c 2.00385,12.02289 3.83314,21.20638 5.33594,27.71875 1.50286,6.51238 3.90546,13.05397 7.4121,19.5664 3.50674,6.51237 -11.73984,26.71054 -45.80468,60.77539 4.00762,12.02283 11.51033,16.64241 22.53125,13.63672 19.03627,-7.01335 49.67583,-29.66976 91.75586,-67.74219 l 5.30664,45.81641 c -40.75747,99.34631 -60.72217,247.10472 -59.87305,443.25 L 154.36719,507.14648 c 0,-46.70125 -19.50133,-70.03125 -58.560549,-70.03125 h -52.22461 c -46.7012479,0 -55.176019,10.56513 -25.457031,31.79297 -11.8876097,16.13315 -5.61258,41.66485 19.011719,76.47852 -9.340267,28.02075 2.840821,69.81078 36.380859,125.42773 C 107.05757,726.43141 137.35765,803.855 164.5293,903.20117 L 43.582031,936.41406 49.919922,998.79688 619.25,1000 567.02734,908.33398 c 13.58583,-116.32855 20.78366,-238.20127 21.63282,-365.56836 0,-101.04457 -21.24162,-185.08213 -63.69727,-252.1621 l -3.38867,-21.31446 43.49023,-2.95703 c 2.2438,-0.45482 4.39447,-0.9529 6.45703,-1.49414 l -65.6582,-81.85937 c 25.62862,-18.18354 46.17899,-52.43691 22.63281,-83.406254 -19.52297,-25.677803 -47.34478,-20.03851 -70.77734,-4.511719 l 12.77148,45.126953 c -14.02669,14.02671 -17.05434,26.96149 -9.03906,38.98438 -6.97237,22.66008 1.17959,48.79359 24.52344,78.29296 l 4.68164,33.13868 c -16.98226,15.28403 -36.59296,17.02233 -58.66992,5.13476 l -12.63477,-65.42773 c 17.03245,-21.04004 24.05456,-44.17503 21.04883,-69.22266 -7.01333,-11.02098 -17.06504,-15.01161 -30.08984,-12.00586 l -10.52539,48.17578 c -1.00191,24.04578 -18.55822,44.00274 -52.62305,60.03321 L 339.75,243.80273 c 20.03812,-8.01524 28.02328,-19.51244 24.01562,-34.54101 l -25.49609,2.96484 -9.04297,-7.41015 c 14.02666,-10.01906 19.45886,-18.63121 16.45313,-25.64453 -3.00568,-7.01339 -9.5454,-8.93542 -19.56446,-5.92969 l -1.48437,13.49023 -16.45313,-2.9668 c 5.00951,-16.03048 13.47322,-31.66278 25.4961,-46.6914 5.00955,-13.02474 11.07066,-21.48846 18.08398,-25.4961 32.06102,-9.01716 61.11061,-4.06355 87.16016,14.97266 l -4.59375,-7.41406 C 418.29374,95.090946 390.35164,89.029858 350.27539,101.05273 l 16.45508,-27.126949 c 12.69106,0 32.58613,3.365512 59.72656,10.054688 z m 116.58594,62.865234 c 1.52012,0.0096 3.08128,0.209317 4.68164,0.609375 8.01524,2.003787 13.44736,10.946023 16.45312,26.976563 8.01521,25.04763 -1.40951,43.71345 -28.46094,55.73633 -11.02098,3.0061 -17.56453,0.9372 -19.56836,-6.07617 -2.0038,-7.01333 1.98875,-11.00591 12.00782,-12.00782 10.01908,-1.00192 12.57003,-8.02407 7.56054,-21.04882 -9.01717,-15.02862 -12.52917,-26.52189 -10.52539,-34.537114 5.40118,-6.17275 11.26442,-9.69382 17.85157,-9.652344 z m -150.22266,131.349608 7.56055,6.07617 -30.0918,5.93164 -2.96484,-9.04296 z m 154.9668,106.26172 c 33.11544,35.66279 49.60156,112.1504 49.60156,229.32813 0,118.02684 -9.28824,240.2535 -27.96875,366.77148 l 16.49609,38.24023 H 83.023438 L 205.28125,923.63086 C 174.71314,797.11293 140.93644,704.6006 104,646.01172 67.063542,587.42289 58.820499,551.09436 79.199219,537.08398 99.577939,523.0736 122.90989,536.8856 149.23242,578.49219 l 185.95313,233.04297 h 44.57617 c -0.8491,-237.75189 16.20977,-398.63109 51.02344,-482.69336 24.6243,9.34022 48.41769,8.87879 71.34375,-1.31055 z M 48.607422,467.59766 h 47.199219 c 17.831379,5.9438 20.383179,17.43375 7.646479,34.41601 l -42.062495,5.13281 C 41.860979,500.35356 37.568929,487.12726 48.607422,467.59766 Z"
     sodipodi:nodetypes="ccccccscccccccssccscccccccccccscccccccccccccccscccccccccccscccssccsccccccsccccsscccccccccc" />
  <path
     style="fill:#000000;stroke:none;stroke-width:0.999999"
     d="m 372.21393,113.65357 c -5.75312,0.0941 -9.71286,0.86885 -12.15502,2.37171 -6.51236,4.00761 -13.29443,12.61931 -20.30776,25.64411 11.02097,6.01139 23.476,7.45264 37.50266,4.44698 15.02863,-5.00958 27.63183,-13.95348 37.6509,-26.97822 -18.78575,-3.75716 -33.10221,-5.64111 -42.69078,-5.48458 z m 16.30551,7.26335 c 5.00949,0.25061 10.35033,1.16538 15.86081,2.66817 -8.01525,7.01334 -17.10738,11.96572 -27.12644,14.97141 6.01147,-9.01716 5.05064,-14.44992 -2.96468,-16.45374 4.50861,-1.00188 9.22074,-1.4363 14.23031,-1.18584 z m -24.75473,1.18586 c -7.01336,8.01529 -5.0917,14.0767 5.92927,18.08429 -8.01524,2.00384 -14.88922,1.3752 -20.90069,-1.63053 2.00385,-6.0114 6.95621,-11.44419 14.97142,-16.45376 z"
     id="path3"
     sodipodi:nodetypes="csccccccccccccc" />
  <path
     style="fill:#ffffff;stroke:#000000;stroke-width:24;stroke-linecap:butt;stroke-linejoin:miter;stroke-dasharray:none;stroke-opacity:1"
     d="M 443.9028,105.73033 359.097,0 c 0,0 188.32189,-1.1698871 224.40491,44.808472 36.08302,45.978358 13.7061,252.052778 13.7061,252.052778 L 505.86344,182.97881 C 531.49206,164.79527 552.04253,130.54129 528.49635,99.571941 504.95018,68.60259 469.33264,83.185786 443.9028,105.73033 Z"
     id="path8"
     sodipodi:nodetypes="cczcczc"
     inkscape:transform-center-x="-129.95759"
     inkscape:transform-center-y="160.69887" />
  <path
     style="fill:none;stroke:#000000;stroke-width:30;stroke-linecap:butt;stroke-linejoin:miter;stroke-dasharray:none;stroke-opacity:1"
     d="M 70.11529,455.4355 C 54.352274,250.6919 93.476052,248.32112 -87.915996,97.775728"
     id="path1"
     sodipodi:nodetypes="cc" />
  <path
     style="fill:none;stroke:#000000;stroke-width:16;stroke-linecap:butt;stroke-linejoin:miter;stroke-dasharray:none;stroke-opacity:1"
     d="m -63.86057,127.34038 c -26.23436,35.40459 -54.26447,83.81949 -22.047171,114.15214 32.217308,30.33262 78.8463372,9.52635 114.415189,-19.51987"
     id="path2"
     sodipodi:nodetypes="czc" />
</svg>
