<?xml version="1.0" encoding="UTF-8" standalone="no"?>
<svg
   width="1100"
   height="1000"
   version="1.1"
   id="svg1"
   sodipodi:docname="13572.svg"
   inkscape:version="1.4.2 (f4327f4, 2025-05-13)"
   xmlns:inkscape="http://www.inkscape.org/namespaces/inkscape"
   xmlns:sodipodi="http://sodipodi.sourceforge.net/DTD/sodipodi-0.dtd"
   xmlns:xlink="http://www.w3.org/1999/xlink"
   xmlns="http://www.w3.org/2000/svg"
   xmlns:svg="http://www.w3.org/2000/svg">
  <defs
     id="defs1" />
  <sodipodi:namedview
     id="namedview1"
     pagecolor="#ffffff"
     bordercolor="#666666"
     borderopacity="1.0"
     inkscape:showpageshadow="2"
     inkscape:pageopacity="0.0"
     inkscape:pagecheckerboard="0"
     inkscape:deskcolor="#d1d1d1"
     inkscape:zoom="0.18875"
     inkscape:cx="2037.0861"
     inkscape:cy="765.5629"
     inkscape:window-width="1680"
     inkscape:window-height="998"
     inkscape:window-x="-8"
     inkscape:window-y="-8"
     inkscape:window-maximized="1"
     inkscape:current-layer="svg1"
     showguides="true">
    <sodipodi:guide
       position="0,1000"
       orientation="0,-1"
       id="guide1"
       inkscape:locked="false" />
    <sodipodi:guide
       position="1249.9897,0"
       orientation="0,-1"
       id="guide2"
       inkscape:locked="false" />
    <sodipodi:guide
       position="1328.4911,765.01927"
       orientation="1,0"
       id="guide3"
       inkscape:locked="false" />
    <sodipodi:guide
       position="1252.2362,27.799618"
       orientation="0,-1"
       id="guide4"
       inkscape:locked="false" />
    <sodipodi:guide
       position="1322.8248,699.80473"
       orientation="0,-1"
       id="guide5"
       inkscape:locked="false" />
    <sodipodi:guide
       position="725.10609,0.00090490123"
       orientation="1,0"
       id="guide6"
       inkscape:locked="false" />
    <sodipodi:guide
       position="1320.4538,762.7218"
       orientation="0,-1"
       id="guide7"
       inkscape:locked="false" />
  </sodipodi:namedview>
  <path
     style="fill:#000000;stroke:none;stroke-width:1"
     d="M 187.87453,691.69951 H 41.529404 l 5.853764,-98.53903 C 35.025152,556.73678 33.236494,532.34593 42.017197,519.98791 50.7979,507.62985 56.814312,496.57265 60.06643,486.8163 l 83.90456,11.70763 z M 97.140531,168.75953 c 13.008479,-6.50423 29.269049,-9.43114 48.781729,-8.78071 1.95126,1.95126 4.22775,5.20338 6.82944,9.75635 -7.15465,-3.25212 -14.63452,-3.25212 -22.43956,0 -7.80509,3.25208 -14.30932,4.5529 -19.51271,3.90249 v 4.87817 c 7.15467,-0.65043 14.63453,-2.27648 22.43961,-4.87817 7.80505,-2.60166 14.95969,-1.95123 21.46394,1.95127 6.50423,6.50423 12.35804,17.23623 17.56144,32.19598 -7.15466,2.60166 -10.73199,5.85376 -10.73199,9.7563 -8.45551,0 -13.98411,0.97562 -16.58581,2.9269 -2.60169,1.95127 0.32522,5.5286 8.78072,10.73199 1.95126,11.70763 -4.39035,15.61018 -19.02487,11.70763 -14.63451,-3.90255 -23.90304,2.92689 -27.80559,20.48829 l 10.732,21.46399 c 20.81352,-0.65043 34.79762,1.13823 41.95227,5.36597 7.15463,4.22773 10.56934,19.02487 10.24415,44.39139 -0.3251,25.36646 -5.04065,51.38336 -14.1467,78.05073 -9.10592,26.66735 -12.68326,46.18004 -10.73198,58.53808 L 61.042115,460.47413 C 60.391658,448.76656 56.4891,422.74964 49.334439,382.4234 42.179812,342.09722 45.43193,314.94206 59.090794,300.95798 72.749693,286.97387 79.57914,263.39605 79.57914,230.22447 c -1.300847,-1.30086 0.325211,-4.55297 4.878177,-9.75636 4.552932,-5.20335 3.414682,-11.21976 -3.414748,-18.04923 -6.829432,-6.82943 -12.195419,-14.6345 -16.097961,-23.4152 -8.113017,-18.25426 11.459829,-23.88071 23.415202,-9.26851 5.853812,7.15463 8.780721,6.82941 8.780721,-0.97564 z m -3.902548,20.4883 c 3.807557,-5.07675 -3.78591,-20.44939 -14.146635,-23.90304 -10.175128,-3.39168 -14.043474,3.1851 -10.244198,12.68326 3.289462,8.22362 17.79242,26.58957 25.854318,24.39083 7.196652,-1.96271 6.552712,-9.16309 -1.463485,-13.17105 z M 82.506047,173.63766 c 2.601661,3.25212 4.390318,6.50424 5.36597,9.75635 0.975618,3.25212 0.325195,4.06516 -1.951271,2.43912 -2.276465,-1.62608 -2.276465,-0.32523 0,3.90253 2.276466,4.22775 2.113919,5.36598 -0.487644,3.41471 -2.601827,-1.95128 -5.203571,-4.71557 -7.805233,-8.29287 -2.601728,-3.57735 -4.065189,-7.15468 -4.390384,-10.732 -0.325197,-3.57731 2.764325,-3.73993 9.268562,-0.48784 z m 10.731936,-13.65884 c -39.381719,-21.0974 -52.235247,8.82716 -31.708074,31.22048 10.731973,11.70762 13.496266,20.16312 8.292876,25.36646 -4.552965,5.85383 -12.84586,2.60172 -24.878682,-9.7563 -12.032821,-12.35804 -18.04923,-27.9682 -18.04923,-46.83045 0,-18.86225 11.219783,-30.40727 33.659351,-34.63503 22.439599,-4.22774 40.001026,-4.22774 52.684276,0 12.68324,4.22776 20.00049,11.87023 21.95176,22.92741 -20.1631,1.95127 -34.14719,5.85381 -41.952277,11.70762 z m 0,34.14718 c 1.951269,1.30085 2.439101,2.7643 1.463485,4.39034 -0.97566,1.62608 -2.276506,1.62608 -3.902542,0 -1.626077,-1.62604 -0.813057,-3.08949 2.439057,-4.39034 z m 63.416267,-5.85381 0.97563,-3.90253 -6.82945,-6.82946 c -7.15466,-4.55292 -16.58579,-3.25209 -28.29338,3.90255 h -9.75636 l -0.97563,5.85381 11.70763,-1.95128 c 10.40674,5.20339 20.48829,6.17903 30.24465,2.92691 z m -5.85382,-4.87818 c -1.30085,0.65043 -3.57733,1.30085 -6.82944,1.95127 1.95127,-1.95127 2.27647,-4.22774 0.97563,-6.82945 3.90255,1.95128 5.85381,3.57733 5.85381,4.87818 z m -13.6589,1.95127 c -2.60166,0 -5.85378,-0.65042 -9.75635,-1.95127 l 8.78072,-3.90254 c -1.95124,2.60169 -1.62603,4.55297 0.97563,5.85381 z m 11.70764,38.04974 11.70761,2.9269 c 4.49848,1.12462 3.31042,3.35483 -1.01702,2.48936 -3.86863,-0.77371 -8.38885,-1.82548 -10.69059,-5.41626 z m -0.97565,-1.95126 c 4.397,-0.42922 8.79348,-0.86391 13.17107,-1.46343 6.30317,-0.90014 6.04719,2.66455 2.4391,2.43905 z m 76.09947,494.64659 v 0 L 168.36187,489.7432 c -0.65043,-22.11436 2.9269,-46.66782 10.73194,-73.66039 7.80508,-26.99253 11.70762,-52.52162 11.70762,-76.58726 69.59527,20.16309 103.69129,31.25934 138.8141,35.16189 43.94236,-15.37684 73.40959,-30.65422 127.93833,-58.79245 14.05163,-0.73407 24.82193,-5.4966 32.31089,-14.28762 7.48896,-8.791 13.93368,-14.23078 19.33413,-16.31929 5.40045,-2.08854 7.31419,-4.3562 5.74123,-6.80301 -0.12234,-2.34193 -1.88313,-3.19837 -5.28239,-2.56929 -3.3993,0.62916 -7.12629,2.76575 -11.18099,6.40974 -4.05471,3.644 -7.91717,6.64568 -11.58736,9.00507 -2.34194,0.12235 -4.07217,-0.14853 -5.19069,-0.81265 -1.11854,-0.66414 -0.12234,-2.34195 2.98858,-5.0334 9.99691,-9.19301 18.28108,-14.86437 24.8525,-17.01407 6.57135,-2.14958 15.4235,-5.59251 26.55645,-10.32881 3.00607,-1.24089 4.28191,-2.75266 3.82751,-4.53532 -0.45442,-1.78268 -1.739,-2.16718 -3.85372,-1.15349 3.21579,-4.1421 2.36815,-6.53648 -2.54294,-7.18313 3.44301,-3.25076 2.54293,-4.91983 -2.70023,-5.00721 2.55167,-3.02357 2.65653,-4.47416 0.3146,-4.35182 -0.22721,-0.89134 -1.67782,-0.99621 -4.35183,-0.31459 -7.89969,4.38677 -16.61205,7.91281 -26.13711,10.57809 -9.52502,2.66525 -16.28868,5.45722 -20.29095,8.37591 -6.44908,4.49164 -12.72339,10.59991 -18.82292,18.32483 -6.09951,7.7249 -12.92435,15.39738 -20.47449,23.01741 -51.81977,10.83588 -74.87577,23.04044 -99.37052,35.30781 2.08915,-3.02871 21.14466,-37.20423 54.96666,-89.23807 v -0.97562 c 11.05721,-7.80509 17.56145,-17.23621 19.51272,-28.29338 1.95127,-11.05721 4.87815,-19.02489 8.78066,-23.90304 3.90254,-4.8782 4.55297,-7.96771 1.95128,-9.26857 -1.95128,-1.95127 -4.22774,-1.78872 -6.82941,0.48765 -2.60169,2.27647 -4.87816,6.34161 -6.82943,12.19542 -1.95128,5.8538 -3.90255,10.08156 -5.85382,12.68326 -1.95127,1.95127 -3.25212,2.9269 -3.90255,2.9269 -1.30084,0 -1.30084,-1.95127 0,-5.85381 3.90255,-13.65889 7.96768,-23.09004 12.19542,-28.29342 4.22777,-5.20336 10.24418,-13.00843 18.04924,-23.41521 1.30085,-1.95128 1.46339,-3.41472 0.48763,-4.39034 -0.9755,-0.97552 -2.11369,-0.81286 -3.41455,0.48799 0.65043,-4.55296 -0.97562,-5.85381 -4.87817,-3.90253 0.65043,-4.55298 -0.97561,-5.85383 -4.87813,-3.90255 -0.65042,-2.60169 -1.62605,-3.57733 -2.9269,-2.92691 -1.30084,-1.30085 -2.6017,-1.30085 -3.90255,0 -4.55295,8.45551 -10.24415,16.26059 -17.07359,23.41525 -6.82946,7.15466 -11.21983,13.00846 -13.1711,17.5614 -3.25209,7.15466 -5.52855,15.44755 -6.82941,24.87868 -1.30083,9.43113 -3.25211,19.67529 -5.8538,30.73249 -39.02539,35.77327 -64.39188,66.01795 -76.09948,90.734 -23.41521,-11.05721 -43.09052,-17.72404 -59.02592,-20.0005 -15.93533,-2.27651 -29.75682,-8.45553 -41.46443,-18.53707 -11.70759,-10.08156 -31.87069,-14.79713 -60.48929,-14.1467 -9.75637,-3.25211 -12.03287,-8.1303 -6.82951,-14.63453 11.05721,1.30085 20.00052,1.78867 26.82996,1.46349 6.82946,-0.32512 10.5694,-4.22765 11.21983,-11.70763 0.65038,-7.47986 2.60164,-11.7076 5.85376,-12.68321 3.25212,-0.97567 2.9269,-2.43912 -0.97564,-4.39039 -3.90251,-1.95128 -3.57729,-2.6017 0.97564,-1.95128 4.38771,0 8.34144,-3.38561 0.97569,-7.80509 3.25211,-2.60166 6.66684,-4.22771 10.24414,-4.87816 3.57732,-0.65039 3.73991,-5.20335 0.48778,-13.65885 -6.50419,-13.00848 -12.35799,-23.09002 -17.56137,-30.24465 -7.15466,-35.12284 -23.25264,-55.28596 -48.29394,-60.48936 -25.041258,-5.20338 -49.106902,-4.22775 -72.196927,2.92691 -23.090023,7.15467 -34.635034,22.76481 -34.635034,46.83045 0,22.7648 4.065156,39.18797 12.195469,49.26952 8.130245,10.08156 21.301301,19.02487 39.513164,26.82996 0,16.91098 -7.317258,35.44803 -21.951775,55.61117 -14.634517,20.16311 -18.699656,50.73295 -12.195419,91.70958 6.504203,40.97665 10.406728,69.27008 11.707576,84.88024 0,9.1059 -3.902526,19.67526 -11.707576,31.70808 -7.805084,12.03282 -12.032838,27.96818 -12.683261,47.80609 -0.650425,19.83787 2.926906,34.96021 10.731988,45.36698 l -10.731988,167.8091 c -15.61013553,24.06564 -19.1874491,52.35904 -10.7319414,84.88019 8.4555074,32.52116 11.0572024,55.93641 7.8050844,70.24575 2.601661,15.61011 1.95122,31.38286 -1.951321,47.31824 -3.902509,15.93531 -0.6503908,28.45593 9.756355,37.5619 72.847388,0 114.311836,-0.48781 124.393346,-1.46343 10.08159,-0.97562 13.98414,-4.22774 11.70763,-9.75634 -2.27646,-5.52863 -15.77274,-10.5694 -40.4888,-15.12233 C 92.262389,968.45444 75.188788,961.4624 64.456814,952.68172 53.72484,943.90099 50.960548,928.45344 56.163938,906.33907 61.367295,884.2247 65.595032,835.44297 68.84715,759.99389 79.253928,739.83082 85.432952,725.19632 87.384224,716.09035 h 60.489296 c 5.2034,5.85385 12.35806,14.95977 21.46399,27.31779 9.10589,12.358 13.33363,23.74042 12.68321,34.14719 -5.85379,28.61862 2.76432,62.60321 25.85431,101.95378 23.09004,39.35059 33.17159,66.99358 30.2447,82.92896 -2.92693,15.93531 0.813,28.45593 11.21974,37.5619 72.84738,0 114.47447,-0.48781 124.88124,-1.46343 10.40674,-0.97562 14.30927,-4.22774 11.70758,-9.75634 -2.60167,-5.52863 -15.93534,-10.5694 -40.00101,-15.12233 -24.06564,-10.40678 -42.11488,-18.6997 -54.1477,-24.87873 -12.03281,-6.17901 -20.32572,-21.30135 -24.87867,-45.36703 -4.55293,-24.06561 -14.63449,-61.1397 -30.24465,-111.22226 2.60169,-24.06563 -1.62606,-49.43213 -12.68327,-76.0995 z"
     id="path1"
     sodipodi:nodetypes="cccscccccccccscccscsccsccccsscscsccccssccccsccsccscssccccccsccccccccccccccccccccssccsscsccscccsscsscscscscccccscsccccsscsscscscccccccscsccsscccssscccccsssccsscssccscscsscsscccscsscsscsscs" />
  <path
     id="path1622"
     style="fill:#000000;stroke:none;stroke-width:1"
     d="m 1328.4911,0 c -71.6533,0 -123.987,21.776578 -157.0028,65.330078 49.8758,41.446782 89.9176,105.724502 120.125,192.832032 C 1259.7701,514.79993 1253.2547,573.30438 1252.155,1000 h 76.3361 v -27.79962 h -43.8058 c -0.9692,-177.99952 5.4674,-502.36092 38.1395,-690.26813 h 5.6663 V 237.2782 h -14.9909 c -24.7944,-73.0116 -61.5828,-139.775249 -104.4699,-174.597129 34.7593,-23.833589 67.4285,-37.871843 119.4608,-37.871843 z"
     sodipodi:nodetypes="cccccccccccccc" />
  <use
     x="0"
     y="0"
     xlink:href="#path1622"
     id="use4"
     transform="matrix(-1,0,0,1,2656.9813,0)" />
  <path
     id="use8"
     style="fill:#000000;stroke:none;stroke-width:0.999999"
     d="M 506.48911,12.242656 C 437.30558,33.099768 393.11454,69.359552 373.91459,121.02222 c 60.22149,25.50028 117.59362,75.90722 172.11572,151.21983 43.95773,257.06241 54.69597,315.44737 177.83904,727.75789 L 871.27971,955.55938 C 746.01305,543.88907 722.69174,489.2976 617.24242,250.77338 621.05307,157.8749 641.0046,84.156797 677.09697,29.620279 632.54136,-2.8216749 575.67263,-8.6144549 506.48911,12.242656 Z m 7.22141,23.953616 C 563.94944,21.05049 599.57994,25.096499 640.07883,37.990751 608.80579,84.096402 592.71806,159.26656 590.03076,236.97926 l -28.94728,8.72688 C 515.89095,182.42802 460.93621,128.67539 409.3909,107.53742 436.01459,74.407381 463.4716,51.342055 513.71052,36.196272 Z m 69.37404,249.911108 10.94145,-3.29858 c 86.24316,171.92101 186.87444,483.23192 237.75169,655.37917 l -84.59195,25.50237 C 694.4369,792.10734 606.23547,477.04912 583.08456,286.10738 Z"
     sodipodi:nodetypes="zcccccczzcccczccccc"
     inkscape:transform-center-x="101.27224"
     inkscape:transform-center-y="-500.00003" />
</svg>
