<?xml version="1.0" encoding="UTF-8" standalone="no"?>
<svg
   width="1200"
   height="2000"
   version="1.1"
   id="svg1"
   sodipodi:docname="13576.svg"
   inkscape:version="1.4.2 (f4327f4, 2025-05-13)"
   xmlns:inkscape="http://www.inkscape.org/namespaces/inkscape"
   xmlns:sodipodi="http://sodipodi.sourceforge.net/DTD/sodipodi-0.dtd"
   xmlns="http://www.w3.org/2000/svg"
   xmlns:svg="http://www.w3.org/2000/svg">
  <defs
     id="defs1" />
  <sodipodi:namedview
     id="namedview1"
     pagecolor="#ffffff"
     bordercolor="#666666"
     borderopacity="1.0"
     inkscape:showpageshadow="2"
     inkscape:pageopacity="0.0"
     inkscape:pagecheckerboard="0"
     inkscape:deskcolor="#d1d1d1"
     inkscape:zoom="0.3775"
     inkscape:cx="600"
     inkscape:cy="769.53642"
     inkscape:window-width="1680"
     inkscape:window-height="998"
     inkscape:window-x="-8"
     inkscape:window-y="-8"
     inkscape:window-maximized="1"
     inkscape:current-layer="svg1" />
  <rect
     style="fill:#ad7fa8;stroke:#5c3566;stroke-width:22.2429;stroke-dasharray:none"
     id="rect1"
     width="471.7937"
     height="79.935585"
     x="163.38161"
     y="1058.479"
     transform="rotate(6.8467985)" />
  <path
     style="fill:#000000;stroke:none;stroke-width:111.215"
     d="m 861.67282,829.19351 c -10.81263,0 -16.21889,-10.13689 -16.21889,-30.41055 -1.35162,-97.31363 8.78519,-145.29467 30.41044,-143.94311 h 28.38323 c 10.81262,0 13.51573,-28.38314 8.10944,-85.14944 C 836.6686,579.15145 772.4686,568.67669 719.75705,538.26614 667.0455,507.85566 631.90446,464.94305 614.33395,409.52831 l -46.62945,12.16422 c 37.84415,95.96215 61.83464,184.82845 71.9715,266.59893 10.13689,81.77048 12.83999,171.98834 8.10944,270.6536 -4.73052,98.66524 -13.8536,169.62314 -27.36938,212.87364 -13.51585,43.2505 -30.41059,75.0127 -50.68422,95.2863 -20.2737,20.2737 -48.65686,31.0863 -85.14944,32.4379 -24.32845,-20.2736 -37.84426,-28.0453 -40.54745,-23.3148 -2.70307,4.73 -1.01316,9.461 5.0685,14.1917 6.08212,4.731 9.12317,10.8123 9.12317,18.2462 0,7.4336 -5.74424,12.1643 -17.23272,14.1916 -11.48834,2.0275 -16.89463,5.0681 -16.21889,9.123 0.67619,4.0549 5.74424,5.068 15.20528,3.0406 9.46103,-2.0274 15.54315,0 18.24633,6.0823 2.70307,6.0824 -0.33809,12.5021 -9.12317,19.2601 -8.78529,6.7574 -12.16425,11.4884 -10.13688,14.1915 2.02733,2.7037 8.10944,0.3337 18.24633,-7.0955 10.13689,-7.4335 17.23264,-8.7848 21.28739,-4.0548 4.05477,4.731 2.36531,12.1643 -5.06839,22.3012 -7.43371,10.1372 -9.12328,15.881 -5.0685,17.2325 4.05478,1.3512 10.47476,-3.3787 19.26005,-14.1915 8.78519,-10.8123 14.8673,-10.4753 18.24622,1.0121 3.37904,11.4884 8.10956,14.5294 14.19167,9.1229 6.08211,-5.4061 5.06839,-16.8947 -3.04106,-34.4652 8.10945,-39.1958 42.91265,-57.78 104.4095,-55.7527 61.49677,2.0274 94.94831,20.9495 100.3546,56.7663 5.40626,35.8168 11.15054,53.0496 17.23272,51.698 6.082,-1.3513 11.82624,-18.9222 17.23262,-52.7116 5.40625,-33.7896 33.78944,-44.2643 85.14943,-31.4243 51.35993,12.8401 78.39148,48.3191 81.09467,106.4369 -14.86733,10.8123 -19.25995,19.9358 -13.17784,27.3695 6.082,7.4336 12.16415,6.4204 18.24634,-3.0407 6.08211,-9.461 10.13677,-6.4204 12.16411,9.123 2.02733,15.5431 7.4337,20.9494 16.219,16.2189 8.78529,-4.7311 11.15057,-13.178 7.09583,-25.3421 -4.05478,-12.1642 -1.35159,-13.5158 8.10944,-4.0549 9.46115,9.4611 15.88113,12.84 19.26006,10.1373 3.37892,-2.7037 2.02733,-9.123 -4.05478,-19.26 -6.08211,-10.1372 -7.4337,-16.8947 -4.05478,-20.2736 3.37893,-3.3788 9.79891,-2.3656 19.2599,3.0406 9.4612,5.4061 15.8812,5.7442 19.2601,1.012 3.3789,-4.7311 0,-10.8123 -10.1368,-18.2463 -10.1369,-7.4336 -10.81261,-14.1916 -2.0274,-20.2737 8.7852,-6.0823 11.8263,-12.8401 9.1231,-20.2738 -2.7031,-7.4336 -16.8947,-5.7442 -42.57473,5.0681 -35.14104,-10.8087 -59.13153,-39.1918 -71.9715,-85.1456 -12.84004,-45.9537 -16.89477,-106.7746 -12.16422,-182.4631 4.73049,-75.6884 -5.06846,-170.29891 -29.39683,-283.83149 z m 24.32844,-152.05255 c -9.46114,0 -16.89481,20.27367 -22.30111,60.821 -5.40626,40.54733 -1.68946,60.821 11.15061,60.821 12.83997,0 20.27364,-20.27367 22.301,-60.821 2.02737,-40.54733 -1.68946,-60.821 -11.1505,-60.821 z M 748.14016,190.57254 c -4.05474,-5.40629 -2.02737,-14.52942 6.08211,-27.36938 8.10948,-12.84004 16.55687,-20.61162 25.34217,-23.31472 8.78521,-2.70319 14.52942,-1.35163 17.23261,4.05466 2.70318,5.4063 2.36528,13.85369 -1.01373,25.34217 -3.37892,11.4884 -11.48837,23.65259 -24.32833,36.49255 -12.84004,12.84004 -22.63901,17.90846 -29.39694,15.20528 -6.75785,-2.70319 -9.461,-7.4337 -8.10944,-14.19156 1.35155,-6.75793 6.08207,-12.16425 14.19155,-16.219 z m 24.32844,-34.46522 c -6.75785,6.75797 -11.82624,13.85372 -15.20516,21.28739 -3.37904,7.43371 -2.36532,9.79891 3.04094,7.09572 5.40637,-2.70307 5.40637,8e-5 0,8.10956 -5.40626,8.10944 -5.40626,10.81263 0,8.10944 5.40637,-2.70318 11.15061,-8.10952 17.23272,-16.219 6.08204,-8.10941 9.79888,-16.55675 11.1505,-25.34205 1.35156,-8.7853 -4.05478,-9.79898 -16.219,-3.04106 z m -22.301,-34.46522 c 37.84423,-18.92214 62.51054,-16.5569 73.99894,7.09573 11.48841,23.65262 5.74421,47.98106 -17.23261,72.98533 -22.97688,25.00418 -29.73481,43.58838 -20.27377,55.7526 8.10947,13.51578 25.68003,8.78527 52.71166,-14.19155 27.03155,-22.97689 40.54733,-56.09059 40.54733,-99.34111 0,-54.063105 -20.61157,-86.500992 -61.83472,-97.313658 C 776.86128,35.816849 743.0718,33.451609 716.71599,39.53372 c -26.35574,6.082111 -44.93994,21.963128 -55.7526,47.643053 47.30526,9.461111 77.03999,20.949557 89.20421,34.465327 z m -125.69688,54.73889 v -10.13678 l 14.19167,-14.19166 c 13.51578,-9.46104 31.08629,-4.73049 52.71155,14.19166 l 20.27367,4.05467 v 12.16422 l -22.301,-6.08211 c -20.2737,9.46104 -39.87163,9.46104 -58.79378,0 z m 14.19167,-10.13678 c 1.35159,2.70308 4.73052,4.73052 10.13678,6.08211 -2.70308,-5.40637 -2.70308,-10.81274 0,-16.219 -6.75786,2.70319 -10.13678,6.08212 -10.13678,10.13689 z m 22.301,8.10945 c 6.75796,0 14.19163,-0.67619 22.30111,-2.02734 l -16.219,-14.19166 c 2.70318,8.10944 0.67618,13.51581 -6.08211,16.219 z m -58.79367,49.52158 c 0,-2.70319 0.3381,-3.56788 1.01317,-4.91947 0.67619,-1.3516 3.04094,-2.02745 7.09572,-2.02745 l 4.05478,6.08211 c 2.70307,4.05478 5.40626,5.74424 8.10944,5.0685 2.70319,-0.67618 3.71691,-2.70318 3.04106,-6.08211 -0.67619,-3.37904 0,-5.40637 2.02744,-6.08211 2.02734,-0.67619 3.04095,1.35159 3.04095,6.08211 0,4.73052 -2.02734,8.44732 -6.08211,11.1505 -4.05419,2.70319 -7.43312,1.6895 -10.13622,-3.04106 -2.70319,-4.73055 -6.75793,-7.58265 -12.16423,-6.23102 z M 912.35704,533.19775 C 739.35498,661.59774 623.11921,741.34088 563.64973,772.42718 409.56973,708.90303 304.82237,650.78515 249.40763,598.07352 h 2.02745 c -72.98525,0 -124.00734,-7.77157 -153.066272,-23.31472 C 69.30981,559.21565 36.534014,547.38934 0.04142417,539.27986 -1.3101317,520.35779 30.114071,518.66832 94.31403,534.21147 c 64.19996,15.54315 89.54205,12.50209 76.02627,-9.12317 -14.86733,-5.40629 -33.45153,-9.79894 -55.7526,-13.17794 -22.301003,-3.37893 -32.775725,-11.82627 -31.424169,-25.34205 43.250519,6.75796 76.364179,6.75796 99.340999,0 22.97681,-6.75797 46.29153,1.01316 69.94416,23.31472 23.65262,22.30107 40.20949,38.85794 49.67061,49.67061 v -2.02745 c 24.32836,13.51578 60.82099,29.7347 109.47788,48.65678 48.65681,18.92215 95.28625,39.19585 139.88832,60.8211 90.55578,-77.03999 164.21681,-137.86102 220.9831,-182.4631 56.7663,-44.60207 97.31366,-68.2547 121.64211,-70.95788 -67.57896,-13.51578 -104.74737,-26.69368 -111.50522,-39.53372 -6.75793,-12.83996 -9.46107,-38.18205 -8.10944,-76.02628 -2.70319,-10.81259 -7.77161,-22.6389 -15.20528,-35.47894 -7.43374,-12.83996 -4.05481,-26.35574 10.13678,-40.54733 14.19159,-14.19159 25.68,-30.74842 34.46522,-49.6705 8.78529,-18.92215 7.09583,-31.76214 -5.06839,-38.51999 -12.16422,-6.75793 -24.66631,-2.70322 -37.50628,12.16411 -12.84004,14.8674 -18.58423,14.19163 -17.23261,-2.02734 -24.32844,-17.57051 -55.41477,-29.05892 -93.25899,-34.46522 -4.05467,6.75785 -8.78519,14.86733 -14.19156,24.32845 14.86741,-6.75793 29.39687,-5.40637 43.58839,4.05466 14.19159,9.46104 25.34213,14.19156 33.45161,14.19156 v 10.13689 c -13.51578,-2.70319 -27.36947,-7.77161 -41.56105,-15.20528 -14.19159,-7.43367 -28.04528,-7.77158 -41.56106,-1.01372 -12.16422,13.51584 -25.00421,37.84429 -38.51999,72.98533 13.51578,6.75785 20.27366,14.19152 20.27366,22.30099 v 14.19156 h 32.438 v 14.19166 h -28.38322 c 0,29.73467 14.19159,41.56098 42.57477,35.47895 28.38311,-6.08211 44.60203,8.44731 48.65678,43.58838 4.05474,35.14104 -14.86737,53.38733 -56.76633,54.73889 39.19585,101.36844 126.3727,143.94318 261.53054,127.72421 z m -279.77676,-204.7641 -12.16422,38.52 h -42.57478 l 24.32844,-44.60211 c -2.70318,0 -4.05477,-6.75785 -4.05477,-20.27367 0,-13.51578 -2.36521,-21.96316 -7.09573,-25.34216 -4.73055,-3.37893 -4.39268,-8.44735 1.01362,-15.20528 -4.05475,-1.35156 -6.75789,-3.7168 -8.10945,-7.09572 -1.35156,-3.37901 1.35159,-7.09584 8.10945,-11.1505 -5.4063,-5.40637 -12.16419,-9.46112 -20.27367,-12.16422 -8.10941,-2.70319 -7.43363,-12.84004 2.02733,-30.41056 13.51585,-29.73473 26.35586,-52.71158 38.52,-68.93055 C 631.22865,50.684219 681.23709,6.7579259 762.33183,0 c 100.01681,2.7031851 150.70098,49.332664 152.05254,139.88844 0,79.7431 -34.46525,134.48203 -103.39577,164.21677 l 4.05478,52.71155 c 52.71155,5.40626 95.62416,16.21892 128.73782,32.43788 33.11374,16.21897 35.47902,64.2 7.09584,143.94311 0,95.96214 -9.46104,141.24003 -28.38322,135.83366 9.46114,12.16422 16.219,44.60211 20.27366,97.31366 l -20.27366,2.02744 c -1.35156,41.89889 -8.10945,62.17256 -20.27367,60.821 24.32844,91.90732 33.78948,182.46309 28.38311,271.66729 -5.40626,89.2041 -4.73052,147.3221 2.02745,174.3537 6.75785,27.0315 22.30099,55.4147 46.62944,85.1494 29.73475,-10.8123 47.98105,-8.1098 54.73885,8.1098 6.758,16.2189 4.7307,26.6935 -6.082,31.4241 -10.8126,4.731 -11.1505,10.1372 -1.0131,16.219 10.1369,6.0823 12.5021,14.5294 7.0957,25.342 -5.4063,10.8123 -11.8263,14.8674 -19.26,12.1642 -7.4337,-2.7036 -12.502,-3.0406 -15.20523,-1.012 -2.70308,2.0274 -0.33809,6.7574 7.09583,14.1915 7.4337,7.4336 7.0957,14.8673 -1.0132,22.301 -8.10941,7.4336 -17.57041,3.7168 -28.38307,-11.1505 17.57051,43.2505 22.97687,98.6653 16.21899,166.2442 -8.10944,74.3369 -11.15057,132.4548 -9.12327,174.3537 2.02733,41.8989 10.13689,77.3779 24.32845,106.4368 14.1916,29.059 5.0685,53.7252 -27.3694,73.9989 -160.83792,1.3512 -252.40737,1.3512 -274.70837,0 -22.30219,-1.3534 -31.42535,-8.1113 -27.37061,-20.2755 4.05474,-12.1641 33.11366,-22.9766 87.17677,-32.4378 51.36,-13.5158 87.17685,-30.7484 107.45055,-51.6978 20.2737,-20.9495 23.99054,-66.9032 11.1505,-137.8611 -12.84004,-70.9579 -31.42424,-169.961 -55.75261,-297.0095 -13.51578,-27.0315 -23.65262,-58.1178 -30.41055,-93.2589 -9.46104,-8.1097 -22.30103,10.1373 -38.52,54.739 -5.40626,100.0169 -4.73052,179.4221 2.02745,238.2156 6.75785,58.7938 41.22307,117.2496 103.39566,175.3674 2.70318,18.9222 -7.4336,27.0316 -30.41045,24.3285 -64.87577,-35.1411 -104.07154,-93.259 -117.58732,-174.3537 -13.51578,-81.0948 -15.54315,-169.6231 -6.08211,-265.5852 h -2.02734 c -5.40637,-52.7116 -17.57059,-77.04 -36.49266,-72.9852 -16.21897,22.9768 -34.4653,48.3189 -54.739,76.0262 -20.27363,27.7074 -29.73467,53.7253 -28.38311,78.0538 13.51578,74.3368 -5.06839,152.7284 -55.75261,235.1746 -50.68418,82.4463 -72.98521,141.24 -66.9031,176.3811 6.082,35.141 -2.36532,63.5241 -25.34217,85.1493 -162.1894,0 -254.43463,-1.012 -276.73571,-3.0406 -22.30107,-2.0274 -30.74842,-9.1229 -25.34205,-21.2874 5.40626,-12.1643 35.141,-23.6527 89.20411,-34.4653 52.71163,-24.3283 92.2453,-43.2504 118.60105,-56.7662 26.35581,-13.5158 44.60214,-46.9674 54.73899,-100.3547 10.13689,-53.3874 32.77579,-136.1716 67.91683,-248.3526 -5.40637,-45.9537 -8e-5,-85.1496 16.21889,-117.5875 -10.81263,9.4611 -21.62522,10.4742 -32.43789,3.0418 -10.81263,-7.4336 -11.15046,-16.8949 -1.01316,-28.3833 10.13677,-11.4883 8.44731,-13.5158 -5.0685,-6.0823 -13.51578,7.4336 -22.63891,7.0955 -27.36939,-1.012 -4.73052,-8.1098 -1.68957,-15.8811 9.12305,-23.3148 10.81263,-7.4336 10.81263,-10.1372 0,-8.1097 -10.81262,2.0274 -17.23257,-3.3787 -19.25994,-16.2189 -2.02733,-12.8401 3.37893,-20.6117 16.21889,-23.3147 12.84004,-2.7037 13.51585,-8.7849 2.02744,-18.2465 -11.4884,-9.461 -12.50209,-19.5978 -3.04105,-30.4104 9.46103,-10.8123 29.7347,-5.4062 60.82099,16.2189 l 32.43745,-22.303 c 2.70318,-5.4063 13.85371,-45.6158 33.45161,-120.6284 19.59789,-75.0127 40.20946,-134.82 61.83472,-179.42208 1.35155,-193.27576 -15.54319,-329.7852 -50.68422,-409.52831 -5.4063,54.06312 -20.94944,131.77885 -46.62945,233.14721 5.4063,55.41474 -17.57055,152.05263 -68.93055,289.91368 l -46.62944,4.0548 c 4.05474,-122.99375 16.89474,-220.30741 38.52,-291.94103 18.92207,-121.64214 29.7347,-198.34423 32.43789,-230.10627 2.7031,-31.76211 11.82627,-67.57896 27.36949,-107.45055 15.54315,-39.87159 44.26416,-63.52421 86.16305,-70.95788 41.89896,-7.43367 68.93056,-11.1505 81.09478,-11.1505 l -6.08211,-36.49267 z"
     id="path1"
     sodipodi:nodetypes="cccscsccsssscsssssssssssssssscssssscsssssssssssssscsscssssscsssssssccssssssccsscssssccccccccccccccccccccscssssssscccccscscscssccscscscssssscccsccsccsccccsscccccccsscscsccccccscccccsscssssssssccsscsscsscccsccscccscsscsscssccssssssssssccsccccccsssccc" />
  <path
     style="fill:#000000;stroke:none;stroke-width:111.215"
     d="m 352.62434,1233.8973 2.05958,-37.6098 0.63949,-57.746 c 9.96044,-23.5286 25.36847,-44.8608 46.13688,-64.0364 l 46.62944,-4.0548 19.44302,72.0455 -14.12244,59.2961 c -12.79531,25.7691 -37.79117,31.8251 -75.28871,18.1726 -5.60733,12.7196 -14.06345,17.3298 -25.49745,13.9328 z"
     id="path5"
     sodipodi:nodetypes="cccccccccc" />
</svg>
