<?xml version="1.0" encoding="UTF-8" standalone="no"?>
<svg
   width="22.185358"
   height="17.984793"
   version="1.1"
   id="svg1"
   sodipodi:docname="135B5.svg"
   inkscape:version="1.4.2 (f4327f4, 2025-05-13)"
   xmlns:inkscape="http://www.inkscape.org/namespaces/inkscape"
   xmlns:sodipodi="http://sodipodi.sourceforge.net/DTD/sodipodi-0.dtd"
   xmlns="http://www.w3.org/2000/svg"
   xmlns:svg="http://www.w3.org/2000/svg">
  <defs
     id="defs1" />
  <sodipodi:namedview
     id="namedview1"
     pagecolor="#ffffff"
     bordercolor="#666666"
     borderopacity="1.0"
     inkscape:showpageshadow="2"
     inkscape:pageopacity="0.0"
     inkscape:pagecheckerboard="0"
     inkscape:deskcolor="#d1d1d1"
     inkscape:zoom="22.627417"
     inkscape:cx="15.136505"
     inkscape:cy="3.6018252"
     inkscape:window-width="1680"
     inkscape:window-height="998"
     inkscape:window-x="-8"
     inkscape:window-y="-8"
     inkscape:window-maximized="1"
     inkscape:current-layer="svg1"
     showguides="false" />
  <path
     id="path7"
     style="fill:#000000;stroke:none;stroke-width:0.80471"
     d="m 11.221533,0.00743288 c -0.212121,0.01340174 -0.412939,0.04563333 -0.603371,0.09506483 -0.126954,0.0329508 -0.24947,0.0733653 -0.366679,0.12222622 C 9.7826481,0.42016608 9.449838,0.82004271 9.254273,1.4256449 l 0.058203,0.038802 C 9.0556291,2.0175951 8.9560618,2.3524068 9.015641,2.4713581 8.7168721,3.1330294 8.6116068,3.5445203 8.6974648,3.7072009 l 0.3957801,0.1125258 c 0.073621,0.1819387 0.1359313,0.318094 0.1823693,0.415181 0.046438,0.097087 0.106369,0.1931903 0.1843093,0.2832545 0.077928,0.090066 -0.090336,0.4607998 -0.5063657,1.1155566 0.1051103,0.1749169 0.238921,0.2197251 0.4016005,0.1338669 0.2746243,-0.1769355 0.6768557,-0.6394043 1.2048007,-1.3852305 0.133873,0.1957332 0.200528,0.2993694 0.287135,0.4171212 0.02668,0.1600644 -0.2317,0.3928507 -0.758579,0.8730444 C 9.5617317,6.1527205 9.3190234,6.7697371 9.3590384,7.5233749 9.3990564,8.2770117 9.5520674,9.0178275 9.8188418,9.7447877 10.085616,10.471749 10.159276,11.301322 10.102096,12.233934 8.0212657,9.8329661 6.6259021,8.7747384 6.0162485,8.7747384 5.3408304,8.7747388 4.9244658,9.113029 4.7377235,9.4731739 4.1641589,10.753691 3.6769905,12.889569 3.2768293,15.877439 3.1301036,16.49102 2.8392334,16.831237 2.405725,16.897931 c -0.4335078,0.06669 -1.0364665,0.205642 -1.81011195,0.419062 -0.7202904,-0.02668 -0.78673349,0.19472 -0.19983017,0.661574 H 4.4971514 C 4.6838936,17.805165 4.7081431,17.543514 4.5747554,17.196706 4.4413684,16.849901 4.5017494,16.24391 4.7551846,15.376894 5.6355397,13.456119 5.9296828,12.445196 5.64957,11.578181 6.242338,12.641055 6.9272883,13.221918 7.7409963,13.826755 6.984348,14.301786 6.3365508,14.811742 5.6359893,15.376894 4.9858267,15.90139 4.6884908,16.396396 4.7551846,16.876591 L 5.317813,17.85828 c 0.3201292,0.293451 1.6065532,0.08201 3.8607963,-0.638292 1.8940957,-0.827 2.9268727,-1.241663 3.1002777,-1.241663 0.280112,0.346805 0.280112,0.819911 0,1.420151 -0.45352,0.160067 -0.612592,0.333207 -0.479205,0.519947 0.293452,0.01334 0.599478,-0.0038 0.919608,-0.05044 0.320128,-0.04669 0.561651,-0.461352 0.721716,-1.241663 0.160064,-0.780317 0.24966,-1.328955 0.269673,-1.649085 0.02001,-0.320128 -0.115913,-0.487202 -0.40936,-0.500545 0.266774,-0.453516 0.27697,-1.180267 0.03686,-2.180671 -0.09337,-1.253837 0.295105,-3.0012424 1.162119,-5.242146 0.480193,0.8003231 0.941172,1.480758 1.381351,2.0409837 -0.01907,0.063519 -0.03686,0.1289011 -0.05433,0.19595 l -0.226991,0.8032013 h 0.06597 c -0.09249,0.635439 -0.134525,1.384259 -0.126107,2.242753 -0.173403,0.600242 -0.315382,1.08244 -0.428761,1.449254 -0.113379,0.366815 0.0024,0.877141 0.349217,1.530738 0.146727,0.05336 0.293677,0.01807 0.440402,-0.108646 0.146728,-0.126717 0.18092,-0.210257 0.100886,-0.250272 -0.173403,-0.173405 -0.283128,-0.374674 -0.329817,-0.601431 -0.04669,-0.226759 0.0087,-0.540784 0.168789,-0.940947 0.160062,0.30679 0.203349,0.591598 0.129986,0.851703 -0.07336,0.260104 -0.03008,0.38996 0.129987,0.38996 0.306791,-0.62692 0.347042,-1.3818 0.120286,-2.262155 0.163916,-0.617774 0.226878,-1.095862 0.188189,-1.439554 l 0.232812,1.742208 c 0.08003,0.62692 0.127435,1.135308 0.147448,1.528799 0.02001,0.393492 0.331008,0.85144 0.931248,1.371649 0.186743,0.01334 0.324596,-0.06111 0.4113,-0.221171 0.08669,-0.160064 0.0838,-0.2527 -0.0097,-0.279374 -0.21342,-0.106709 -0.389591,-0.270755 -0.529646,-0.490846 -0.140061,-0.220089 -0.211472,-0.551213 -0.211472,-0.991389 0.293453,0.266774 0.45944,0.537518 0.492786,0.810961 0.03335,0.273444 0.127068,0.391173 0.287134,0.351157 0.04001,-0.693612 -0.243944,-1.426426 -0.857523,-2.200071 0.03848,-0.987453 0.06852,-1.796027 -0.04075,-2.591972 l 0.06597,-0.00194 1.447314,2.809262 0.616952,-0.351157 -1.340609,-2.238874 1.5579,1.623862 0.41712,-0.547107 -1.909024,-1.5365623 C 19.069959,9.2598412 19.542112,8.7526024 19.534856,8.2256905 19.524674,7.4863733 19.023484,7.2203015 18.529885,7.23236 18.233726,7.2396014 17.941653,7.34667 17.757725,7.5117342 17.472354,7.7678649 17.256096,8.3369537 17.109732,9.2151408 17.068003,9.0570242 17.018996,8.8965584 16.962285,8.7339964 15.93522,7.200045 15.332246,6.2367418 15.152173,5.8432495 14.972099,5.4497581 14.557437,5.1729519 13.910509,5.0128872 13.389975,4.8840951 12.962636,4.578492 12.628105,4.0952206 L 13.301319,3.8953904 C 14.413907,3.3993892 14.70914,2.8582544 14.189884,2.2715279 13.670629,1.6848006 13.313488,1.1782042 13.118949,0.75049064 12.924407,0.32277772 12.515622,0.08007241 11.890867,0.02101358 11.656584,-0.00113354 11.433654,-0.00596885 11.221533,0.00743288 Z m 0.473385,1.34642842 c 0.132995,0.00341 0.249683,0.1252647 0.353097,0.3666786 0.213744,0.3655786 0.130812,0.6921186 -0.252213,0.9758696 -0.162678,0.085865 -0.273747,0.076045 -0.329816,-0.027162 -0.05606,-0.1032055 -0.0066,-0.1800166 0.147447,-0.2308716 0.153956,-0.050855 0.168996,-0.1698267 0.04462,-0.3569782 C 11.463672,1.8767961 11.367515,1.7080264 11.370921,1.5750322 11.448781,1.4323348 11.553296,1.350236 11.694918,1.3538613 Z m -1.616103,0.1610282 c 0.246593,-0.00519 0.550289,0.00234 0.909906,0.021341 l 0.38414,0.7081361 c -0.171301,0.2696048 -0.173964,0.48324 -0.0059,0.6441127 -0.02682,0.3382698 0.143703,0.6791214 0.512186,1.0185518 0.05389,0.1037638 0.0962,0.1824151 0.102826,0.1940098 0.346805,0.6069111 0.808876,1.0215744 1.389111,1.2416631 0.580234,0.2200888 0.626549,1.110887 0.139686,2.6715158 -0.491562,1.5756966 -0.841603,3.6140022 -0.671274,4.3419402 0.215406,0.920585 0.240606,1.633784 -0.07955,2.180671 -0.880398,0.506872 -1.941259,0.826962 -3.1817612,0.960349 -1.2404997,0.133388 -2.2934046,0.592426 -3.1604206,1.379411 0.4935317,-1.200485 0.923351,-1.979615 1.2901656,-2.33976 C 8.397109,13.860224 10.214728,12.960438 10.528876,12.810144 10.722883,11.667425 10.676952,10.522301 10.350387,9.3858692 10.112708,8.5587636 9.9584875,7.8740696 9.9584875,7.3138439 c 0,-0.5602258 0.2304895,-1.050425 0.6906745,-1.4705947 C 11.109349,5.4230804 11.419266,5.046854 11.359238,4.6733697 11.329448,4.3222749 11.078794,4.1126301 10.883956,3.8410678 11.077921,3.4507044 11.108211,3.0620813 10.9732,2.6789487 10.824354,2.5303117 10.651308,2.5026435 10.457134,2.5955244 l 0.0039,0.7935003 C 10.529548,3.7704546 10.32327,4.146848 9.8440571,4.5181622 L 9.6810889,4.3319127 C 9.9679401,4.1357234 10.052837,3.9274162 9.9371876,3.7052608 L 9.547228,3.8410678 9.3784394,3.7557033 C 9.5637829,3.5490858 9.6190438,3.3936535 9.547228,3.2939599 9.4754167,3.1942648 9.3662842,3.1883305 9.2193513,3.2706787 l 0.023281,0.2172911 -0.2696737,0.0097 C 8.9955255,3.228169 9.0752942,2.9533981 9.2115909,2.6750684 9.2446877,2.4528078 9.3094177,2.2989475 9.4056008,2.2113849 9.8778959,1.9573187 10.351576,1.9336376 10.827693,2.1415413 l -0.097,-0.100885 C 10.394483,1.7189092 9.9331931,1.7209639 9.3454577,2.0503567 L 9.508426,1.5672721 c 0.133846,-0.029842 0.3237965,-0.047197 0.570389,-0.052383 z m 0.345338,0.5936701 c -0.308414,0.00677 -0.540523,0.027963 -0.6906756,0.064023 -0.090085,0.021638 -0.1492531,0.047366 -0.1823692,0.079544 -0.088312,0.085807 -0.164346,0.2441021 -0.2289317,0.4733843 0.1942778,0.05586 0.39539,0.036248 0.6053108,-0.060143 C 10.146132,2.5339716 10.312328,2.3483734 10.424153,2.1085596 Z m -0.283255,0.1067055 c 0.04322,-0.00224 0.08793,-0.00216 0.133867,0 C 10.173368,2.3535782 10.047259,2.4627343 9.900326,2.5450818 9.9632117,2.3822966 9.9304954,2.300156 9.7975007,2.2967492 9.8648554,2.265203 9.93712,2.2424647 10.016731,2.2288461 c 0.03981,-0.0068 0.08095,-0.011333 0.124167,-0.013581 z m -0.5102458,0.118346 c -0.082142,0.1505496 -0.030116,0.2394882 0.157148,0.2638534 -0.1189511,0.05958 -0.2286842,0.074678 -0.333697,0.048502 0.010425,-0.1014966 0.068132,-0.205538 0.176549,-0.3123554 z M 9.717957,3.9516534 9.8576441,4.0195564 9.4056008,4.2193869 9.3279968,4.0874602 Z m 8.821627,3.7366298 c 0.325638,0.00282 0.60819,0.2374311 0.446223,0.6693341 -0.109777,0.2927288 -0.515832,0.6455938 -1.218381,1.0554136 0.01463,-0.8928229 0.127289,-1.41824 0.339517,-1.5792403 0.128187,-0.097245 0.284624,-0.1467899 0.432641,-0.1455074 z M 5.3022922,9.7215066 c 0.8962924,0.0015 2.6448161,0.9469314 4.3613417,3.0381944 -0.535786,0.235745 -1.16862,0.616181 -1.5986413,0.869164 -0.72656,-0.671996 -2.0669939,-1.733919 -3.0187934,-3.8704966 0.077367,-0.023027 0.1633732,-0.037017 0.256093,-0.036862 z"
     sodipodi:nodetypes="scscccccscccccccscsccscccscccscccccccscccccccccscscscsccccccccccsccccccccccsscccssccscssccccccccsccccsssscscscsssscccccccccccccccccccsccccccscccsscccccccccsscssccccc" />
  <path
     style="fill:none;stroke:#75507b;stroke-width:0.4;stroke-linecap:butt;stroke-linejoin:miter;stroke-dasharray:none;stroke-opacity:1"
     d="M 10.60414,5.5162708 C 8.078125,7.828125 3.0865769,6.1343293 4.7906007,1.955262 L 4.3115735,0.38932022 6.0948046,0.90351772 4.7906007,1.955262"
     id="path4"
     sodipodi:nodetypes="ccccc" />
</svg>
