<?xml version="1.0" encoding="UTF-8" standalone="no"?>
<svg
   width="4500"
   height="2000"
   version="1.1"
   id="svg1"
   sodipodi:docname="135DD.svg"
   inkscape:version="1.4.2 (f4327f4, 2025-05-13)"
   xmlns:inkscape="http://www.inkscape.org/namespaces/inkscape"
   xmlns:sodipodi="http://sodipodi.sourceforge.net/DTD/sodipodi-0.dtd"
   xmlns:xlink="http://www.w3.org/1999/xlink"
   xmlns="http://www.w3.org/2000/svg"
   xmlns:svg="http://www.w3.org/2000/svg">
  <defs
     id="defs1" />
  <sodipodi:namedview
     id="namedview1"
     pagecolor="#ffffff"
     bordercolor="#666666"
     borderopacity="1.0"
     inkscape:showpageshadow="2"
     inkscape:pageopacity="0.0"
     inkscape:pagecheckerboard="0"
     inkscape:deskcolor="#d1d1d1"
     inkscape:zoom="0.24288889"
     inkscape:cx="2250"
     inkscape:cy="998.3989"
     inkscape:window-width="1680"
     inkscape:window-height="998"
     inkscape:window-x="-8"
     inkscape:window-y="-8"
     inkscape:window-maximized="1"
     inkscape:current-layer="svg1" />
  <path
     style="fill:#000000;stroke:none;stroke-width:112.254"
     d="m 977.28139,1289.3675 c -125.56268,58.774 -249.45563,117.2142 -371.67884,175.3203 -122.2232,58.1061 -205.70899,107.1957 -250.45738,147.2689 -44.74838,40.0732 -96.50961,129.5699 -155.28367,268.4903 104.19028,-90.8324 230.08688,-143.5955 377.68981,-158.289 147.60292,-14.6934 255.46657,-43.4126 323.59093,-86.1574 109.53346,-132.2414 134.91326,-247.7858 76.13915,-346.6331 z M 1424.0974,784.44535 c 64.1171,-37.40158 101.1848,-69.46012 111.2032,-96.17558 10.0181,-26.71545 4.007,-45.08234 -18.033,-55.10062 -22.0402,-10.01839 -42.7448,-7.68067 -62.1135,7.01282 -19.3687,14.69345 -29.721,62.78124 -31.0567,144.26338 z M 506.4215,245.461 502.41414,229.43171 c 41.40898,-10.68623 71.46384,-12.02195 90.1646,-4.00727 18.70084,8.01464 40.74111,8.68248 66.12082,2.00363 l 4.00726,12.02196 c -30.7228,9.35039 -54.09882,10.01825 -70.12808,2.00363 -16.02926,-8.01463 -44.74834,-6.67885 -86.15724,4.00734 z m 0,30.05487 -4.00738,-2.00363 c 13.35771,-17.36508 26.71544,-26.38154 40.07321,-27.04937 13.35769,-0.66839 24.04386,-3e-5 32.05849,2.00364 8.01453,2.00363 19.36871,3.6734 34.06222,5.00908 l -2.00364,4.00738 c -13.35775,-1.33576 -25.71365,-3.00546 -37.06769,-5.00912 -11.35411,-2.00365 -22.70818,-1.66975 -34.06222,1.00175 -11.35411,2.67156 -21.03844,10.01833 -29.05299,22.04027 z m -2.00374,30.05487 -6.01097,-8.01459 16.02929,-20.03654 c 13.35769,-20.03665 40.07313,-24.71188 80.14628,-14.02568 l 70.12818,-8.0146 2.00362,14.02558 -70.12806,4.00734 c -26.71546,21.37233 -54.76671,30.05484 -84.15375,26.04752 z m 12.02194,-16.02918 c 6.67885,2.67147 14.02566,3.33931 22.04028,2.00363 -8.01462,-4.00733 -10.68616,-10.01831 -8.01459,-18.03294 -8.01471,5.34307 -12.68994,10.68616 -14.02569,16.02931 z m 40.07319,-4.00736 c 9.35046,-4.00732 18.70087,-9.35041 28.05125,-16.02929 l -30.05486,-2.00362 c 8.01454,5.34305 8.68249,11.35403 2.00361,18.03291 z m -58.1061,88.16098 c -2.67159,-2.67147 -3.33943,-5.34306 -2.00364,-8.01464 1.33568,-2.67147 3.33943,-4.00738 6.01101,-4.00738 2.67148,0 6.67885,2.00364 12.02194,6.01101 5.34306,4.00738 9.68442,5.00908 13.02382,3.00545 3.33942,-2.00363 4.00726,-5.00908 2.00363,-9.01646 -2.00363,-4.00737 -1.66966,-6.67885 1.00204,-8.01464 2.67147,-1.33579 5.00908,1.00093 7.01271,7.01283 2.00364,6.01101 0.33476,11.02009 -5.00908,15.02743 -5.34361,4.00738 -11.68855,3.6734 -19.03534,-1.00204 -7.34638,-4.67491 -12.35553,-5.00887 -15.02709,-1.00156 z m 68.12444,34.06223 -46.08417,14.02568 c -2.67147,2.67148 -3.00545,4.67511 -1.00204,6.01101 2.00363,1.33568 5.00908,1.33568 9.01646,0 4.00782,-1.33579 11.68859,-5.00919 23.0427,-11.0202 11.35403,-6.01101 16.36318,-9.01646 15.02743,-9.01646 z m -2.00364,-4.00738 c 1.33568,-1.33568 -3.00545,-1.66966 -13.02381,-1.00093 -10.01828,0.6684 -18.36695,1.00093 -25.04576,1.00093 -6.67885,0 -10.68622,1.33579 -12.02195,4.00738 -1.33579,2.67158 -8e-5,4.00737 4.00727,4.00737 z M 780.92277,343.64032 C 869.08379,298.22403 905.48359,239.11608 890.12216,166.31648 874.76081,93.516814 837.35919,54.445449 777.91728,49.102386 718.47538,43.759323 664.04263,50.438171 614.61901,69.138927 565.1954,87.839759 539.81572,115.89101 538.47998,153.29267 c 84.15371,-2.67159 131.2397,1.33568 141.25799,12.02195 10.01839,10.68623 25.71364,11.0202 47.08604,1.00093 21.37233,-10.01795 42.41073,2.004 63.11522,36.06621 20.70448,34.06219 17.699,81.14818 -9.01646,141.258 z M 949.23014,1235.2688 C 869.08375,1076.3119 857.39573,917.35487 914.16606,758.39783 970.93646,599.44088 969.60072,518.62661 910.15881,515.95505 850.71691,513.28349 807.30428,488.90563 779.9209,442.82149 752.5376,396.73729 735.50651,348.98338 728.82763,299.55977 767.56503,268.83699 778.2512,241.78761 760.88611,218.41163 743.5211,195.03556 724.1524,197.37318 702.78,225.42446 670.72148,194.70169 605.93651,182.67971 508.42511,189.35852 l -10.01832,44.08054 8.01471,20.03654 c -10.68624,32.0586 -18.03297,57.77224 -22.04029,77.14091 -4.00734,19.36874 -5.67712,31.72464 -5.00921,37.06771 0.66839,5.34317 10.35225,10.01827 29.05311,14.02567 6.67874,2.67148 9.35032,6.67874 8.01464,12.02195 10.68623,-2.67158 17.36504,-2.00374 20.03654,2.00364 l 34.06233,2.00363 4.00727,14.02569 c -2.67147,1.33579 -7.01271,3.6734 -13.02381,7.01282 -6.01101,3.33943 -13.69166,8.34851 -23.04204,15.02744 9.35033,24.04389 29.05305,30.05487 59.10798,18.03291 30.05481,-12.02196 53.76478,-25.37969 71.12987,-40.07321 9.35038,14.69352 20.70442,38.73741 34.06211,72.13168 6.67889,44.08055 -8.01459,78.14277 -44.08044,102.18667 -65.45288,45.41629 -98.17931,117.54805 -98.17931,216.39528 0,80.14638 14.02561,144.26348 42.07682,192.35126 28.05122,48.08775 54.0988,97.51145 78.14277,148.27085 24.0439,50.7593 33.39431,116.8801 28.05125,198.3622 z m 90.16476,10.0193 c 49.4236,122.8911 43.4126,243.1106 -18.0331,360.6587 34.7302,1.3357 51.0935,20.0365 49.0898,56.1024 -2.004,36.0659 -12.6899,99.1811 -32.0586,189.3457 -19.3686,90.1648 -48.08776,137.9187 -86.15726,143.2619 -38.06965,5.3427 -74.46948,6.6795 -109.1995,4.007 -16.02933,-20.0366 3.33931,-39.4053 58.106,-58.1062 32.05861,-68.1243 32.05861,-122.891 0,-164.3 -20.0365,0 -143.59545,48.0877 -370.67685,144.2634 -311.23511,92.1677 -480.878307,99.5144 -508.929589,22.0395 -45.416225,-101.5187 -15.3613107,-183.0008 90.164709,-244.4465 201.70169,-165.6358 376.02004,-279.8443 522.95504,-342.6255 10.68627,-73.4677 6.01109,-136.2491 -14.02556,-188.3442 -20.03657,-52.0951 -46.08413,-104.1903 -78.14266,-156.2855 -32.0586,-52.09507 -48.0879,-102.18651 -48.0879,-150.2743 0,-134.91307 14.69352,-217.73099 44.08055,-248.45376 29.38704,-30.72286 67.45656,-61.44564 114.20861,-92.16834 v -48.0879 c -28.05121,13.35777 -56.10246,21.37244 -84.15374,24.04401 -29.38695,5.34306 -46.08414,1.66966 -50.09152,-11.02019 -4.00733,-12.68986 -6.01098,-25.04577 -6.01098,-37.06772 l -6.0109,-6.01101 c -12.02203,0 -16.02938,-6.67885 -12.02206,-20.03654 -10.68623,-4.00738 -12.68986,-10.68623 -6.01101,-20.03666 l -30.0548,-12.0219 c -9.35037,-4.00732 -11.35403,-19.36871 -6.01096,-46.08417 5.34306,-26.71546 13.35769,-54.76668 24.04389,-84.15363 l -10.01822,-20.03665 18.03292,-70.12806 c 0,-45.4163 22.70811,-84.821626 68.12434,-118.215974 C 597.92183,17.711733 664.04263,0.68064108 750.8679,0.01273046 837.6931,-0.65518013 892.79369,24.724499 916.16968,76.151768 c 23.37605,51.427262 30.05495,106.861852 20.03665,166.303752 -10.01833,59.4419 -56.43637,107.86369 -139.25426,145.26535 21.37233,33.39427 57.43817,50.09141 108.19753,50.09141 49.4236,0 118.216,33.06038 206.3769,99.18117 88.161,66.12079 164.3001,129.90396 228.4172,191.34951 l 24.0439,38.06947 c 13.3577,-80.14639 33.0604,-131.90758 59.1081,-155.28355 26.0474,-23.37607 59.4418,-30.38886 100.1828,-21.03842 40.7412,9.35044 61.4456,38.06949 62.1136,86.15736 0.6672,48.0878 -42.411,94.17197 -129.2361,138.25251 l 174.3183,140.25612 -38.0695,50.09145 -142.2597,-148.27076 122.2231,204.37326 -56.1025,32.0586 -132.2415,-256.4684 c 29.3871,73.46751 53.431,165.6358 72.1318,276.5051 80.1464,69.46 125.5627,141.5917 136.2488,216.395 -14.6935,8.0152 -27.0493,-2.3377 -37.0676,-31.0567 -10.0193,-28.7191 -32.3926,-53.7649 -67.1226,-75.1372 9.3509,48.0879 23.71,82.1501 43.0786,102.1866 19.3687,20.0367 41.075,33.3945 65.1189,40.0732 10.6866,1.3357 13.3577,11.6881 8.0152,31.0568 -5.3438,19.3686 -18.033,30.3888 -38.0695,33.0604 -73.4675,-42.7448 -115.5443,-84.8217 -126.2306,-126.2307 -10.6865,-41.4089 -27.3833,-95.5076 -50.0915,-162.2964 l -74.1358,-178.32554 c -2.6714,37.40154 -13.3578,92.16824 -32.0586,164.29994 22.7081,97.5115 17.365,180.3294 -16.0293,248.4538 -17.3651,-1.3357 -21.7062,-16.0293 -13.0237,-44.0805 8.6825,-28.0513 5.0091,-60.1099 -11.0202,-96.1756 -17.3652,45.4163 -24.044,80.8142 -20.0367,106.1939 4.0071,25.3796 14.6936,48.0878 32.0586,68.1244 8.0152,2.6714 4.3407,11.0202 -11.0202,25.0457 -15.3613,14.0256 -31.0568,17.699 -47.086,11.0202 -34.7301,-72.1317 -45.7502,-128.2341 -33.0603,-168.3073 12.6897,-40.0732 29.053,-93.5043 49.0895,-160.2929 v 0 c 0,-149.60652 12.6899,-255.80047 38.0696,-318.58178 -88.1608,-69.46017 -144.5973,-112.53886 -169.3092,-129.23604 -24.7116,-16.69717 -50.7593,4.00732 -78.1427,62.11348 -27.38323,58.10607 -42.74462,128.5681 -46.0841,211.38605 -3.33942,82.81789 7.01283,149.60659 31.05673,200.36599 24.04387,50.7593 40.74107,84.8215 50.09157,102.1865 z"
     id="path1"
     sodipodi:nodetypes="csscscccssscccsccscccssccsscccccccccccccccccccssssssssscccsssccssscccssscsssccssscsccccsscccccscscccsssccccssscccccccsssscccscccccscccsssscssccssscccccccccscscscsccccscscscssscssssc" />
  <path
     style="fill:none;stroke:#75507b;stroke-width:66.7284;stroke-linecap:butt;stroke-linejoin:miter;stroke-dasharray:none;stroke-opacity:1"
     d="M 3633.282,547.74292 H 460.4033 C 245.70276,545.09394 107.06847,378.90636 107.06847,31.800483"
     id="path4"
     sodipodi:nodetypes="ccc" />
  <use
     x="0"
     y="0"
     xlink:href="#path1"
     id="use1"
     transform="translate(1345.6866)" />
  <use
     x="0"
     y="0"
     xlink:href="#path1"
     id="use2"
     transform="translate(2606.6055)" />
</svg>
