<?xml version="1.0" encoding="UTF-8" standalone="no"?>
<svg
   width="800"
   height="1000"
   version="1.1"
   id="svg1"
   sodipodi:docname="13689.svg"
   inkscape:version="1.4.2 (f4327f4, 2025-05-13)"
   xmlns:inkscape="http://www.inkscape.org/namespaces/inkscape"
   xmlns:sodipodi="http://sodipodi.sourceforge.net/DTD/sodipodi-0.dtd"
   xmlns="http://www.w3.org/2000/svg"
   xmlns:svg="http://www.w3.org/2000/svg">
  <defs
     id="defs1" />
  <sodipodi:namedview
     id="namedview1"
     pagecolor="#ffffff"
     bordercolor="#000000"
     borderopacity="0.25"
     inkscape:showpageshadow="2"
     inkscape:pageopacity="0.0"
     inkscape:pagecheckerboard="0"
     inkscape:deskcolor="#d1d1d1"
     inkscape:zoom="0.65338699"
     inkscape:cx="75.759084"
     inkscape:cy="527.25262"
     inkscape:window-width="1680"
     inkscape:window-height="998"
     inkscape:window-x="-8"
     inkscape:window-y="-8"
     inkscape:window-maximized="1"
     inkscape:current-layer="svg1"
     showguides="true" />
  <path
     style="fill:#000000;stroke:none;stroke-width:54.8462"
     d="m 688.28769,14.001018 q -8.60383,-5.1623406 -18.06809,13.766179 -12.90571,30.973799 -31.83408,43.449216 -18.92853,12.475582 -39.57778,32.264547 -20.64909,19.78866 -28.82276,34.84541 -8.17368,15.05677 -13.33587,41.72864 24.95101,-2.58116 39.57761,9.46427 17.20764,-15.48691 33.55498,-5.59249 16.34719,9.8944 -11.18499,53.77391 l 9.46411,12.90573 q 36.13614,-76.57406 40.00791,-107.11771 3.87161,-30.54365 2.15087,-54.634377 -1.72072,-24.090707 17.20763,-50.762601 10.32471,-18.928519 0.86029,-24.090724 z M 545.46412,211.88926 v -5.16235 l 5.1622,-5.16235 q 9.46426,-6.02264 24.95116,5.16235 h 9.46426 v 4.3019 l -9.46426,-0.86028 q -14.62647,6.88309 -26.6719,0.86028 z m 5.1622,-4.30207 q 2.58117,0.8603 6.02279,1.7209 -2.58117,-3.44162 0,-6.0228 -4.30206,0.86029 -6.02279,4.3019 z m 12.04543,2.58119 q 4.30191,-0.86029 9.46411,-1.72073 l -8.60383,-4.30191 q 2.58119,3.44145 -0.86028,6.02264 z m -25.81161,21.50954 q -0.86028,-1.72074 0,-2.15089 0.86029,-0.43091 2.58119,-1.29121 0.86029,0 3.01132,2.58118 2.15103,2.58118 3.44162,1.72075 1.29121,-0.86029 1.29121,-2.58119 0,-1.72074 0.86029,-2.15087 0.86028,-0.43093 1.72088,2.58116 0.86028,3.01133 -2.15103,4.73206 -3.01133,1.72073 -6.02265,-1.72073 -3.01132,-3.44162 -4.7322,-1.72089 z m 14.62662,12.90571 -11.185,2.58134 q -1.72071,1.72073 -0.86028,2.15088 0.86028,0.43091 1.72073,0.43091 3.44162,-0.86028 6.45294,-2.15101 3.01132,-1.29121 3.87177,-3.01133 z m 0,-1.72072 q 1.72073,0 -2.58118,-0.43092 -4.3019,-0.43093 -7.74353,-1.29121 -3.44146,0 -3.87161,1.29121 -0.43091,1.29121 1.29121,1.29121 z m 50.7626,-18.92837 q 2.58118,0.86029 2.58118,2.58118 0,1.72073 -3.44161,1.72073 -1.72074,0 -1.72074,-1.72073 0,-1.72073 2.58117,-2.58118 z m 2.58118,-10.32454 6.02264,-3.44162 q -4.3019,-4.30191 -4.3019,-7.74337 0,-3.44163 1.29122,-5.16236 1.29119,-1.72073 5.59248,-1.72073 6.8831,0 6.8831,4.30191 0,6.02264 -1.29122,9.03397 -1.29121,3.01146 -10.75485,12.47558 h -0.86029 q 8.60382,-10.32457 10.3247,-14.62647 1.72074,-4.3019 -1.29121,-7.31323 -3.01148,-3.01146 -6.0228,0 -3.01132,3.01133 0.43092,6.88309 3.44162,3.87161 2.58119,4.73204 l -7.74369,6.02264 -6.02264,6.88309 q -2.58117,3.44148 -1.29121,5.16236 1.29121,1.72073 3.87177,1.72073 2.58102,0 9.46409,-6.88309 6.88309,-7.74352 9.46427,-12.90573 2.58118,-5.16234 2.58118,-12.04543 0,-6.88308 -10.32456,-6.88308 -8.60396,0 -9.89456,6.88308 -1.29121,6.88309 1.29121,14.62662 z m 21.50955,87.75905 q -21.50955,9.46425 -45.60027,2.58118 -57.64568,105.82711 -33.55497,275.32273 24.09071,169.49546 34.8454,238.75628 10.75485,69.26083 6.45294,94.21199 -21.50953,38.71734 -113.57065,72.27231 h 141.103 q 15.4869,-2.58117 2.58117,-49.04188 -0.86029,-6.0228 0.86028,-151.42753 -3.44161,-128.19711 5.16221,-190.14471 24.09086,-37.85689 -4.30192,-92.9214 36.13615,-144.54445 6.02281,-199.60897 z m -79.15524,-49.04187 q -3.44162,17.20778 16.34718,12.04543 19.78882,-5.16236 19.78882,20.64909 0.8603,4.30192 20.21911,4.30192 19.35865,0 22.80013,-5.16221 -7.74338,-5.16236 -10.32455,-25.81144 -7.74353,-5.16236 -12.04544,-16.34736 31.83424,-43.87951 19.35866,-50.7626 -12.47558,-6.88307 -20.21895,2.58118 l -8.60398,17.20762 -5.16218,-1.72072 q 11.18499,-24.09072 -36.13616,-22.36999 l -3.44147,6.02264 q 10.32456,-3.44146 20.64911,1.29121 10.32469,4.73206 16.34733,4.73206 l 0.8603,5.16236 q -10.32455,-1.72074 -20.6491,-6.02264 -10.32455,-4.30193 -19.78881,0.86028 -7.74352,8.60381 -16.34735,30.9738 10.32455,3.44145 9.46426,8.60381 10.32456,0.86028 14.19632,3.44147 3.87177,2.58117 -7.31323,10.32454 z m 19.78881,22.36997 q -31.83424,2.58119 -30.54365,-8.60381 1.29121,-11.185 -2.58118,-12.90573 -3.87176,-1.72089 -1.28965,-4.30191 2.58102,-2.58116 1.72073,-2.58116 -3.44163,0 -4.73222,-2.15104 -1.29121,-2.15089 3.01149,-4.73205 -3.44162,-2.58118 -8.17384,-4.30191 -4.73205,-1.72073 -0.42936,-12.90573 9.46426,-18.92852 17.20763,-29.25307 v 0.86029 q 4.30207,-36.13616 14.19646,-56.78539 9.89442,-20.64911 30.5435,-40.868218 20.64927,-20.218954 41.72865,-33.985119 21.0794,-13.766165 29.68322,-40.438059 6.88309,-15.4869003 15.05676,-19.7888061 8.17366,-4.301918 22.80013,0.8602861 12.04528,9.46426 13.76616,18.06807 0.86028,7.743376 -9.46426,24.090724 -16.34735,22.369977 -14.62661,49.47202 1.72089,27.102032 -3.87161,56.355102 -5.59249,29.25308 -41.72864,110.98948 -4.30191,11.185 3.44161,19.78881 30.11335,74.85332 1.72074,219.39778 22.36997,51.62305 5.16219,101.52521 -9.46411,11.185 -8.60366,63.66833 V 934.61091 Q 659.89662,987.09425 637.52663,1000 H 440.49884 q 0.86029,-30.97383 33.55497,-31.83411 77.43451,-30.11337 91.20068,-70.55142 3.44145,-32.69469 -10.32471,-125.61594 -13.76617,-92.92155 -26.6719,-187.99383 -12.90571,-95.07243 -1.72073,-171.64649 11.18499,-76.57421 40.43807,-121.31402 z"
     id="path1" />
  <path
     d="m 553.10748,275.12664 -12.5081,30.01955 c -6.67104,16.67747 -15.56577,24.18235 -26.68402,22.51451 -6.11506,-0.55537 -8.89473,-3.61336 -8.33874,-9.17257 0.55539,-5.5592 5.83706,-8.06073 15.84362,-7.50488 9.45058,-21.12467 14.45378,-35.3006 15.00977,-42.5275 l 0.16133,-10.18795"
     style="fill:#a51d2d;stroke:none;stroke-width:54.8462"
     id="path1-4"
     sodipodi:nodetypes="ccccccc" />
  <path
     style="fill:#63452c;stroke:none;stroke-width:56.6373"
     d="m 626.34009,301.36905 c -15.04619,3.28521 -24.699,13.37838 -30.11585,28.16296 -15.0462,31.21121 -24.15335,57.97221 -37.99582,90.82657 l -19.08254,4.42225 c 1.15063,-14.23721 3.03436,-24.52034 5.24085,-37.47665 -2.16389,-0.85534 -4.30745,-1.78449 -6.51683,-2.51288 -0.22173,1.74523 -0.45417,3.50917 -0.699,5.29108 l -107.9582,1.87128 c -17.45354,-7.11814 -32.80084,-14.51032 -46.0415,-22.17618 l -20.76432,-1.64357 c -10.83353,-1.09542 -15.64694,8e-4 -14.44353,3.28712 1.20372,3.28467 4.51383,5.47485 9.93067,6.57029 -10.8334,-1.64262 -15.047,4.24354 -12.63958,17.65937 2.40743,13.41529 8.12476,20.12274 17.15244,20.12274 v 32.0336 c -13.84272,0.54772 -19.71033,2.6002 -17.60392,6.16038 2.10648,3.56016 5.5673,5.34058 10.38215,5.34058 -10.83317,1.09488 -13.84253,7.80233 -9.02769,20.12274 4.81478,12.31924 10.2312,17.93303 16.24946,16.83759 h 20.76432 c 12.03696,-3.83294 26.17979,-9.85569 42.42962,-18.06928 38.51823,-1.64315 68.91167,-4.37982 91.18002,-8.21384 48.2345,4.82542 69.64063,-7.44929 77.76954,-29.23484 6.00306,-16.08825 24.61294,-57.32386 32.49821,-72.7667 5.86537,-11.48698 14.81743,-21.70882 8.8917,-40.10911 l 5.4863,-17.77877 z M 383.1712,415.77541 c 7.22222,1.09545 24.07311,1.09545 50.55436,0 37.91635,7.66422 67.10532,12.0471 87.56814,13.14254 l -95.69288,22.1762 c -16.24985,0.54772 -30.39267,-0.54655 -42.42962,-3.28515 l -7.07962,-17.83423 z"
     id="path1-8"
     sodipodi:nodetypes="ccccccccccccsccsccccccsscccccccccc" />
  <path
     d="m 352.76201,238.50736 -83.66574,-53.05712 32.16914,-34.94905 -16.67804,-11.96765 -21.65102,38.13012 c -10.82143,-22.07108 -24.07284,-49.69583 -47.27206,-67.73294 -15.35721,-11.940054 -30.12408,-16.52427 -46.15207,4.09083 -16.02797,20.61504 -7.94512,33.79622 7.41208,45.73627 23.19923,18.03712 53.23805,24.07002 77.29557,29.11693 l -31.61643,30.38209 15.70954,13.21333 25.94078,-39.79151 72.04376,68.00518 z M 251.65026,176.56945 c -26.22472,-9.32743 -48.46248,-15.38516 -67.96158,-31.38601 -9.24633,-7.18891 -6.41329,-19.48225 -3.18711,-23.63175 3.22618,-4.14949 11.61211,-11.62585 23.68815,-2.73654 12.07604,8.8893 31.66617,35.01141 47.46054,57.7543 z"
     style="color:#000000;display:inline;overflow:visible;visibility:visible;fill:#000000;fill-opacity:1;fill-rule:evenodd;stroke:none;stroke-width:0.928865;stroke-linecap:butt;stroke-linejoin:miter;stroke-miterlimit:4;stroke-dashoffset:0;stroke-opacity:1;marker:none;marker-start:none;marker-mid:none;marker-end:none"
     id="path1321" />
  <path
     d="m 383.13521,290.05057 v 627.68917 l -10.36391,12.9549 c -9.21238,0 -14.10655,6.33354 -14.68232,19.00063 0,6.33355 3.16677,21.30374 9.5003,44.91064 -9.78821,0 -16.40963,-4.8941 -19.8643,-14.68239 -5.75776,-13.81863 -7.37909,-23.80803 -6.9093,-30.22825 1.2613,-17.23679 7.77299,-27.92514 21.59162,-31.95553 V 428.18062 290.05057 c -2.30311,-13.81862 -5.61382,-19.00059 -9.93215,-15.54594 -4.31832,3.45465 -10.50789,10.36395 -18.56876,20.72794 -8.06085,25.33414 -19.86425,35.41023 -35.41022,30.22823 16.1217,-31.09193 26.62963,-52.25172 31.52374,-63.47934 4.89408,-11.22763 13.67467,-22.02343 26.34172,-32.38738 12.66708,-10.36396 23.31894,-24.47046 31.95558,-42.31953 10.36396,7.48507 11.08366,16.98537 2.15914,28.5009 -8.92455,11.51551 -15.97779,22.74314 -21.15977,33.68288 9.21242,12.66709 13.81863,26.19783 13.81863,40.59224 z"
     style="fill:#000000;stroke:none;stroke-width:53.5632"
     id="path1-6"
     sodipodi:nodetypes="scccccscccscccscscs" />
  <path
     d="m 370.72453,930.69464 c 9.21237,0 14.10646,6.33354 14.68223,19.00063 0,6.33355 -3.16677,21.30374 -9.5003,44.91064 9.78821,0 16.40963,-4.8941 19.8643,-14.68239 5.75777,-13.81863 7.37909,-23.80803 6.9093,-30.22825 -1.2613,-17.23679 -7.77299,-27.92514 -21.59162,-31.95553"
     style="fill:#000000;stroke:none;stroke-width:53.5632"
     id="path1-9" />
</svg>
