<?xml version="1.0" encoding="UTF-8" standalone="no"?>
<svg
   width="700"
   height="1000"
   version="1.1"
   id="svg1"
   sodipodi:docname="136A2.svg"
   inkscape:version="1.4.2 (f4327f4, 2025-05-13)"
   xmlns:inkscape="http://www.inkscape.org/namespaces/inkscape"
   xmlns:sodipodi="http://sodipodi.sourceforge.net/DTD/sodipodi-0.dtd"
   xmlns="http://www.w3.org/2000/svg"
   xmlns:svg="http://www.w3.org/2000/svg">
  <defs
     id="defs1" />
  <sodipodi:namedview
     id="namedview1"
     pagecolor="#ffffff"
     bordercolor="#666666"
     borderopacity="1.0"
     inkscape:showpageshadow="2"
     inkscape:pageopacity="0.0"
     inkscape:pagecheckerboard="0"
     inkscape:deskcolor="#d1d1d1"
     inkscape:zoom="0.53386562"
     inkscape:cx="-73.988657"
     inkscape:cy="630.30843"
     inkscape:window-width="1680"
     inkscape:window-height="998"
     inkscape:window-x="-8"
     inkscape:window-y="-8"
     inkscape:window-maximized="1"
     inkscape:current-layer="svg1"
     showguides="true">
    <sodipodi:guide
       position="0,0"
       orientation="0,-1"
       id="guide1"
       inkscape:locked="false" />
    <sodipodi:guide
       position="0,1000"
       orientation="0,-1"
       id="guide2"
       inkscape:locked="false" />
    <sodipodi:guide
       position="23.818438,474.58996"
       orientation="1,0"
       id="guide3"
       inkscape:locked="false" />
  </sodipodi:namedview>
  <path
     style="fill:#000000;stroke:none;stroke-width:55.6001"
     d="m 356.52054,270.48249 c 22.46822,-28.8054 40.03949,-61.64353 52.71382,-98.51438 H 277.88184 c 1.72834,8.64158 3.74472,18.43541 6.04912,29.38147 21.89209,-0.5761 36.58284,2.88054 44.07224,10.36991 16.70713,-10.94602 28.80539,-11.52213 36.29479,-1.72832 7.48937,9.79384 3.16855,25.92487 -12.96244,48.39308 z M 232.94546,724.16715 H 406.6419 L 386.7662,611.82619 c 14.40269,-33.41425 13.25047,-63.94796 -3.45666,-91.60114 l -85.55201,28.51734 z M 329.73153,238.5085 c -1.15222,-2.88053 -0.14402,-6.91327 3.02458,-12.09824 3.16858,-5.18497 6.91328,-8.49758 11.23412,-9.93785 4.32079,-1.44027 7.0573,-1.0082 8.20952,1.2962 1.15222,2.30444 1.00819,5.90513 -0.43207,10.80205 -1.44027,4.89692 -4.89693,10.2259 -10.36998,15.98696 -5.47301,5.76106 -9.79383,8.0655 -12.96243,6.91332 -3.16858,-1.15222 -4.46482,-3.16859 -3.88873,-6.04912 0.57614,-2.88058 2.30446,-5.18501 5.18499,-6.91332 z m 9.50578,-14.69071 c -2.30444,2.3044 -4.03277,5.18493 -5.18499,8.64159 -1.15222,3.45666 -0.57611,4.60888 1.72833,3.45666 2.30444,-1.15222 2.30444,0 0,3.45666 -2.30444,3.45662 -2.30444,4.46479 0,3.02453 2.30444,-1.44027 4.89692,-3.88873 7.77746,-7.34539 2.88056,-3.45661 4.46487,-7.05728 4.75291,-10.80198 0.28804,-3.7447 -2.73653,-3.88873 -9.07371,-0.43207 z m -65.67627,12.09825 v -5.18499 l 5.185,-5.18492 c 6.33718,-4.03279 14.69074,-2.59253 25.06067,4.32078 l 9.50578,0.86414 v 4.32079 l -9.50578,-1.72832 c -9.79384,5.18496 -18.72351,5.47302 -26.78901,0.86419 z m 5.185,-5.18499 c 1.7283,1.15222 3.74468,2.01637 6.04912,2.59247 -1.72832,-2.30441 -2.01638,-4.32079 -0.8642,-6.04913 -2.3044,0.57613 -4.0327,1.72835 -5.18492,3.45666 z m 12.09824,2.59247 c 2.88053,0 6.04912,-0.28804 9.50577,-0.86414 l -8.64164,-5.18499 c 1.72835,2.30444 1.4403,4.32082 -0.86413,6.04913 z m -25.92482,22.46821 c -0.57613,-1.15222 -0.57613,-2.01639 0,-2.59252 0.5761,-0.57609 1.44025,-0.86413 2.59246,-0.86413 0.57614,0 1.44029,0.86415 2.59247,2.59246 1.15222,1.72834 2.30443,2.30448 3.45665,1.72838 1.15222,-0.57612 1.58431,-1.58432 1.29627,-3.02459 -0.28804,-1.44026 0,-2.16039 0.86414,-2.16039 0.86416,0 1.44028,1.00817 1.72832,3.02453 0.28804,2.01639 -0.5761,3.45668 -2.59246,4.32085 -2.0164,0.86414 -3.88875,0.28803 -5.61706,-1.72833 -1.72831,-2.0164 -3.16857,-2.44848 -4.32079,-1.29626 z m 14.69071,12.96244 -11.23405,1.72832 c -1.15222,1.15222 -1.44029,2.01638 -0.8642,2.59247 0.57614,0.5761 1.15224,0.5761 1.72833,0 2.30444,0 4.32081,-0.57611 6.04913,-1.72833 1.7283,-1.15222 3.16857,-2.01637 4.32079,-2.59246 z m 0,-1.72833 c 0.57613,-0.57609 -0.57609,-0.86413 -3.45665,-0.86413 -2.88054,0 -5.473,-0.28806 -7.7774,-0.8642 -1.72834,0 -2.73655,0.28806 -3.02459,0.8642 -0.28801,0.57608 0.14408,1.15217 1.29626,1.72826 z m -1.72833,-50.12136 c 6.91332,-2.30443 13.68259,-1.87235 20.30782,1.29626 6.62524,3.16858 12.24229,4.75286 16.85116,4.75286 l 0.86414,4.32079 c -7.48941,-0.57608 -14.54672,-2.30439 -21.17196,-5.18492 -6.62523,-2.88058 -13.10644,-2.88058 -19.44362,0 -5.18497,6.33718 -10.65799,16.99516 -16.41905,31.97393 6.91328,2.30444 10.08188,5.18499 9.50579,8.64165 6.91328,0.57609 11.66615,1.72831 14.25863,3.45666 2.59248,1.7283 -0.14401,5.18494 -8.20951,10.36991 -1.72834,11.52212 4.03271,15.55486 17.28317,12.09824 13.2505,-3.45666 19.87576,4.03276 19.87576,22.46822 0,18.43543 -9.79383,27.65314 -29.38148,27.65314 -21.316,0 -28.94943,3.45664 -22.90029,10.36992 6.04915,6.91331 13.8266,21.31601 23.33235,43.2081 9.50576,21.89205 15.41086,66.54037 17.7153,133.94494 l 81.23111,-26.78896 c -4.03274,-26.50097 1.15224,-60.77936 15.55496,-102.83518 14.40268,-42.05587 10.08187,-63.0838 -12.96244,-63.0838 -23.04427,0 -36.29473,-16.70712 -39.75139,-50.12136 -1.15222,-4.60884 -3.31263,-9.07367 -6.48124,-13.3945 -3.16858,-4.3208 -2.16039,-9.93785 3.02459,-16.85117 20.16373,-24.19649 24.19648,-38.31111 12.09825,-42.34385 -10.94606,-1.15222 -20.16378,6.33717 -27.65315,22.46816 l -5.18499,-0.86414 c 5.76109,-15.55489 -7.48937,-23.04431 -39.75139,-22.46821 z m 96.78606,-58.76295 c 8.06554,-1.72834 14.11468,-4.89694 18.14743,-9.50577 0,-33.99037 7.77745,-63.371868 23.33235,-88.144484 14.40268,-10.369934 17.85932,-18.147384 10.36992,-23.332352 -8.0655,-5.761058 -14.69073,-0.288026 -19.8757,16.419093 -17.28325,24.772616 -34.7105,42.343891 -52.28176,52.713823 -17.57129,10.36993 -36.15076,27.65317 -55.73841,51.84969 z M 250.22869,384.55179 c -6.91327,31.68589 -22.46817,74.60589 -46.6647,128.76 -20.16373,6.33718 -39.46334,8.35356 -57.89881,6.04912 -18.43543,-2.30443 -45.51248,-2.01639 -81.231162,0.86414 -13.404565,5.51983 -26.455474,5.18499 -40.61558,5.18499 C 14.600721,515.0401 9.7038174,503.2299 9.1277264,489.97944 1.6383214,488.25114 -1.2422266,481.91396 0.48608435,470.96793 31.155785,467.32867 55.956276,467.25439 76.532258,490.84364 120.31643,483.93032 155.459,478.45729 181.95996,474.42454 c 4.03276,-26.50092 12.96241,-62.7957 26.78896,-108.88431 5.7611,-23.62043 19.87574,-37.44702 42.34391,-41.47977 z m 236.78023,215.17615 c 8.64159,13.82655 13.53849,26.5009 14.69071,38.02306 -1.1524,8.06554 -8.64179,16.56312 -22.46815,25.49275 -13.82664,8.92968 -22.46826,4.7529 -25.92487,-12.53031 -0.57614,5.76109 -4.6089,9.79384 -12.0983,12.09824 v -19.0115 l 1.72832,-21.60408 c 5.7611,-9.79385 12.38632,-20.73989 19.87569,-32.83813 v 0.86402 c 1.72835,-12.09813 4e-5,-29.95741 -5.18492,-53.57785 -5.18497,-23.62039 -5.47303,-45.80052 -0.8642,-66.54039 -16.70708,-25.92484 -28.80532,-54.44216 -36.29472,-85.55196 v -0.86419 c -21.31597,61.06742 -26.35691,106.00382 -15.12284,134.80918 11.23411,28.80537 12.2423,59.91516 3.02459,93.32941 l 19.87569,131.35252 v 0.86402 c 12.67437,35.14256 15.26686,74.31787 7.77745,117.52595 -7.48941,43.20808 -7.20135,77.48647 0.86414,102.83513 9.79384,25.3488 4.32083,37.15899 -16.41903,35.43071 -13.82657,-2.88045 -25.63676,-2.88045 -35.4306,0 h -64.81213 c -12.09824,-6.91324 -6.91327,-14.40263 15.5549,-22.46816 28.22927,-11.52212 46.08861,-20.59581 53.57802,-27.22108 7.4894,-6.62523 9.79384,-17.13918 6.91331,-31.54186 -2.88052,-25.92484 -11.2341,-84.1117 -25.06074,-174.56057 h -63.94787 c -14.97881,11.52214 -21.46004,27.07705 -19.44368,46.6647 2.01639,19.58769 -6.91326,49.40127 -26.78895,89.44074 -19.87574,40.03943 -30.67776,67.54855 -32.40606,82.52736 2.88052,27.65317 -5.04095,39.89545 -23.76442,36.7268 -18.72352,-3.16846 -33.55829,-3.0239 -44.50431,0.43368 h -49.25723 c -17.283212,0 -24.196482,-3.31265 -20.739822,-9.93795 3.45661,-6.6252 13.538482,-11.66612 30.245602,-15.12278 25.34874,-10.94606 43.20809,-18.00339 53.57802,-21.17196 10.36994,-3.16847 19.87569,-16.27488 28.51728,-39.31926 7.48945,-22.46825 19.29966,-79.21487 35.43065,-170.23983 h -36.29478 l 78.63869,-214.31351 c 0,-62.21961 -10.08189,-110.61263 -30.24567,-145.17905 l 0.86414,-60.49133 c 19.58769,0 33.99039,-2.88053 43.2081,-8.64159 l 0.86414,-18.14742 h -14.69071 l -10.0838,38.8554 -20.59533,-2.80923 17.71669,-38.63864 c -3.45665,-1.15222 -4.60887,-4.03274 -3.45665,-8.64158 1.15222,-4.60888 0.43209,-7.48942 -2.1604,-8.64164 -2.59248,-1.15222 -3.02455,-2.73651 -1.2962,-4.75286 1.7283,-2.0164 2.3044,-2.73653 1.72827,-2.16041 -2.30441,-0.57612 -3.88869,-1.4403 -4.75286,-2.59252 -0.86418,-1.15218 -0.14405,-2.59244 2.16039,-4.32078 -1.7283,-2.30444 -4.17677,-3.88873 -7.34537,-4.75287 -3.16858,-0.86417 -3.31261,-5.04096 -0.43207,-12.53036 6.33718,-12.67438 11.81021,-22.46821 16.41909,-29.38148 1.15218,-5.18497 1.00814,-11.8102 -0.43213,-19.8757 -1.44026,-8.06553 -4.46481,-21.02795 -9.07366,-38.88725 h 15.55491 c 2.88054,-4.60887 8.49757,-11.95426 16.8511,-22.03614 8.35358,-10.08189 14.2587,-16.5631 17.71535,-19.44364 -20.7399,-19.587643 -31.10985,-40.039445 -31.10985,-61.355404 0,-21.315996 6.48121,-35.718697 19.44362,-43.208102 12.96243,-7.489405 24.91666,-8.0655144 35.86272,-1.728328 10.94606,6.337186 16.56312,16.275051 16.85117,29.813597 0.28801,13.538509 -7.63348,20.307763 -23.76447,20.307763 -8.64159,0 -14.25864,-3.600661 -16.85112,-10.801983 -2.59248,-7.20136 -1.87234,-12.242305 2.16041,-15.122834 3.45661,0 7.34534,2.880529 11.66617,8.641588 4.32079,5.761095 8.06548,5.761095 11.23405,0 3.16861,-5.761059 1.87238,-11.378095 -3.88872,-16.851106 -5.76106,-5.47305 -13.25045,-5.905137 -22.46816,-1.296261 -9.21772,4.608877 -13.68255,14.834787 -13.39451,30.677734 0.28805,15.842947 9.64981,32.694089 28.08527,50.553426 2.30441,-2.30444 10.3699,-7.345382 24.19649,-15.12283 13.82656,-7.777451 27.65315,-22.036109 41.47977,-42.775978 5.18497,-14.97881 11.52213,-25.204721 19.0115,-30.677734 7.48941,-5.473013 17.85935,-4.176771 31.10981,3.888725 9.21771,8.641624 13.10646,17.139207 11.66623,25.492748 -1.44031,8.35358 -9.07373,18.291445 -22.90029,29.813598 -9.79384,12.674372 -15.26687,33.702291 -16.41909,63.083741 C 419.02818,134.23305 441.78445,87.56835 479.23148,0 h 14.69071 c -60.4913,146.90742 -93.90552,226.12221 -100.24267,237.64436 -5.7611,9.21772 -12.38636,19.58766 -19.87581,31.10981 10.9461,6.91328 28.22935,11.23407 51.84975,12.96238 23.62039,1.72834 45.51248,16.13105 65.67626,43.2081 l -25.92488,13.82657 c -18.43543,-22.46817 -35.57463,-35.57461 -51.41761,-39.31931 -15.84291,-3.74475 -33.27017,-8.78569 -52.28176,-15.12284 2.30443,-2.88057 2.30443,-2.59252 0,0.86413 0.57613,5.76106 2.16044,12.09825 4.75292,19.01156 2.59248,6.91329 20.30779,11.81021 53.14595,14.69077 22.46817,4.60884 36.87084,19.01152 43.20798,43.20804 13.82664,50.12136 22.18021,88.43253 25.06074,114.93349 4.60888,21.89205 4.32087,62.79568 -0.86402,122.71088 z m -361.21943,249.74261 13.82657,-1.72833 2.59246,-111.47682 z m 29.38147,-114.06929 -0.86413,111.47677 14.6907,0.86419 z M 534.53776,637.751 H 156.89929 l 32.83813,248.01428 -14.69076,0.86403 -3.45661,-25.06063 -17.28322,1.72861 v 24.19649 H 140.48026 V 862.4331 l -17.2833,1.72805 -2.59246,25.92487 h -15.5549 l 31.974,-230.73105 c 0,-25.34878 6.91327,-38.02318 20.73983,-38.02318 h 376.77433 z"
     id="path1"
     sodipodi:nodetypes="cccccscccccccccsssssssccsssssscccccccccccccccccccssssssssscccscsccscscccsccscccscsssssccsscscccccccccccsccccscccccccccscsccccccscccscccscccccscccsscscsscsccccccccccccssscscsccsccscsssssscssssscscscsccccccsccsccscccsscccccccccccccccccccccscc" />
  <path
     d="m 44.540421,226.87698 v 693.32237 c 13.814653,4.02925 20.721979,14.96584 20.721979,32.80978 1.15121,6.33165 -1.15123,16.11702 -6.907324,29.35611 -2.878044,9.78533 -9.497571,14.678 -19.858581,14.678 6.907328,-23.02443 10.360992,-37.70246 10.360992,-44.03411 -1.151203,-13.23909 -6.043889,-19.85864 -14.678058,-19.85864 -9.20977,0 -14.102456,6.61955 -14.678057,19.85864 -0.575601,6.33165 2.590262,21.00968 9.497589,44.03411 -10.360973,0 -16.9805,-4.89267 -19.858581,-14.678 C 3.384293,969.12615 0.79405,959.34078 1.369651,953.00913 2.52089,935.16519 10.003819,924.2286 23.818438,920.19935 V 226.87698 C 21.515995,213.06236 18.06235,207.88187 13.457502,211.33552 8.852617,214.78917 2.52089,221.6965 -5.5376769,232.05751 c -7.4829291,25.32683 -18.9951241,35.4 -34.5365831,30.21951 16.117098,-31.08295 26.621981,-52.23663 31.5146481,-63.46102 4.892704,-11.22439 13.6707639,-22.01708 26.3341799,-32.37805 12.663415,-10.36097 23.312189,-24.46343 31.946321,-42.30737 10.361011,7.48293 11.080521,16.9805 2.158533,28.49271 -8.921951,11.51221 -15.97317,22.73661 -21.153656,33.67318 9.20977,13.23905 13.814655,26.76589 13.814655,40.58051 z"
     style="fill:#000000;stroke:none;stroke-width:55.5993"
     id="path1-9" />
</svg>
