<?xml version="1.0" encoding="UTF-8" standalone="no"?>
<svg
   width="10.224672"
   height="17.977446"
   version="1.1"
   id="svg1"
   sodipodi:docname="136D9.svg"
   inkscape:version="1.4.2 (f4327f4, 2025-05-13)"
   xmlns:inkscape="http://www.inkscape.org/namespaces/inkscape"
   xmlns:sodipodi="http://sodipodi.sourceforge.net/DTD/sodipodi-0.dtd"
   xmlns="http://www.w3.org/2000/svg"
   xmlns:svg="http://www.w3.org/2000/svg">
  <defs
     id="defs1" />
  <sodipodi:namedview
     id="namedview1"
     pagecolor="#ffffff"
     bordercolor="#666666"
     borderopacity="1.0"
     inkscape:showpageshadow="2"
     inkscape:pageopacity="0.0"
     inkscape:pagecheckerboard="0"
     inkscape:deskcolor="#d1d1d1"
     inkscape:zoom="32"
     inkscape:cx="0.015625"
     inkscape:cy="10.796875"
     inkscape:window-width="1680"
     inkscape:window-height="998"
     inkscape:window-x="-8"
     inkscape:window-y="-8"
     inkscape:window-maximized="1"
     inkscape:current-layer="svg1" />
  <path
     id="path1"
     style="fill:#000000;stroke:none;stroke-width:0.966299"
     d="M 5.5586178,0 6.1304706,1.2342962 C 5.4594525,1.4089342 5.0902718,1.8048005 5.0226237,2.4232972 4.8744933,2.3290328 4.8944886,2.1371968 5.0830174,1.8476697 5.2715469,1.5581433 5.3761102,1.3590127 5.3963097,1.251282 5.4165086,1.1435512 5.3792227,1.0435779 5.2849588,0.94931348 5.2580261,0.85504906 5.2153335,0.78047709 5.1547349,0.72661171 5.0941364,0.67274633 4.9949791,0.632757 4.8603156,0.6058243 c -0.2558612,0 -0.3958232,0.0872727 -0.4227558,0.26233515 0.026933,0.0942644 0.079623,0.13884435 0.1604207,0.13211125 0.080799,-0.006737 0.1207874,0.015964 0.1207874,0.06983 -0.1615967,0.1211971 -0.2415748,0.4248917 -0.2415748,0.9096801 0,0.4982555 0.1618447,0.7473721 0.4850369,0.7473721 -0.026933,0.080798 -0.039634,0.3026266 -0.039634,0.666218 -0.1885288,0.3635913 -0.2830954,0.6127085 -0.2830954,0.747372 0,0.067331 0.087272,0.1073211 0.2623351,0.1207873 L 4.820682,4.4030777 c 0.026934,0.053865 0.074217,0.088448 0.1415477,0.1019144 -0.040399,0.067331 -0.047693,0.1400164 -0.020761,0.2208145 H 5.043383 C 4.962585,5.1028649 5.109841,5.2919975 5.4868993,5.2919975 H 5.851149 C 5.945413,5.6555889 6.1199587,6.046556 6.3758193,6.4640127 6.3623537,6.4774796 6.2350917,6.6447309 5.9926975,6.9679232 5.7503033,7.2911155 5.5065934,7.6693821 5.2641985,8.1003052 5.0218049,8.5312282 5.0690876,8.962184 5.4057462,9.3931078 5.3518808,10.75321 5.0700683,12.004202 4.5583471,13.148841 L 2.1350499,9.2911934 h -0.02076 C 2.0101599,9.1377393 1.8791325,9.0351465 1.7213153,8.9833184 1.491354,8.9077979 1.3923366,9.1555098 1.0489455,9.295262 0.82183599,9.3876903 0.4629742,9.2870245 0.34789876,9.424092 0.16957055,9.6365005 0.12563057,9.9024295 0.2156626,10.221634 c 1.3466352,3.972573 1.9994197,6.100066 1.9590206,6.38286 -0.040399,0.296259 -0.2395289,0.548079 -0.5963878,0.756808 -0.3568582,0.208728 -0.446834,0.413265 -0.2717716,0.61526 h 8.019151 c 0.2693269,-0.134663 0.2693269,-0.321909 0,-0.564304 C 8.6254243,16.563879 8.399005,15.744659 8.648133,14.956877 8.8972598,14.169097 9.116385,12.280723 9.3049146,9.2911934 H 10.052286 V 6.3432259 c 0,-1.8987555 -0.2045363,-3.2434983 -0.6152603,-4.0312796 C 9.1511786,1.7636817 8.6796953,1.4066525 8.025323,1.2399582 L 8.5877394,0 Z M 6.0134579,0.29064468 H 8.1385612 L 7.7365656,1.1814517 C 7.5280553,1.1482276 7.3033968,1.1304945 7.0627984,1.1304945 c -0.2333125,0 -0.4462838,0.016017 -0.6397958,0.045295 z M 4.8055838,0.74171014 c 0.0404,0 0.082683,0.004999 0.1264493,0.0150984 0.087532,0.0201995 0.1648066,0.0774801 0.2321384,0.17174458 H 4.8206823 c -0.1077307,0 -0.1877094,-0.0199947 -0.2415748,-0.0603937 0,-0.0538654 0.035399,-0.0911513 0.1094636,-0.11135089 0.037033,-0.0100997 0.076613,-0.0150984 0.1170127,-0.0150984 z m -0.084929,0.0113238 c -0.00758,8.4163e-4 -0.014027,0.002091 -0.020761,0.003775 -0.026934,0.006733 -0.044225,0.0240245 -0.050957,0.0509572 -0.00674,0.0269327 0.00597,0.044224 0.039634,0.0509572 0.033666,0.006733 0.070953,0.006733 0.1113509,0 0.040399,-0.006733 0.060393,-0.0240245 0.060393,-0.0509572 0,-0.0269327 -0.019994,-0.0442241 -0.060393,-0.0509572 -0.030298,-0.00505 -0.056542,-0.006299 -0.079267,-0.003775 z M 7.0929953,1.4947441 c 1.0571087,0 1.7471792,0.3809692 2.0703715,1.1418184 0.3231923,0.7608485 0.4723363,1.9964368 0.4454036,3.7066634 V 8.8476772 H 7.0627984 V 4.2615304 C 7.1435965,4.1403333 7.2581572,3.9584941 7.4062876,3.7160999 7.5544168,3.4737057 7.6289894,3.2318824 7.6289894,2.9894882 c 0,-0.2558606 -0.1691386,-0.3831225 -0.5057973,-0.3831225 -0.2019951,0 -0.3238504,0.1272619 -0.3642496,0.3831225 C 6.7589426,2.7201613 6.641678,2.5510227 6.4060169,2.4836909 6.1703559,2.4163593 5.8312627,2.3836639 5.3868733,2.3836639 5.4676713,1.791144 6.0358871,1.4947441 7.0929953,1.4947441 Z M 5.7907561,2.7045054 c 0.1481298,0.00505 0.2880924,0.029839 0.4227559,0.073605 0.2693269,0.087531 0.4057701,0.2720738 0.4057701,0.5548671 h 0.322729 c 0,-0.2558606 0.059984,-0.3831226 0.181181,-0.3831226 0.1211971,0 0.1811812,0.067278 0.1811812,0.2019414 0,0.1346634 -0.087273,0.3046181 -0.2623352,0.5133465 C 6.8669756,3.8738711 6.7324197,4.060301 6.6381552,4.2218972 V 6.1412844 H 6.5777615 C 6.3757663,5.8450248 6.2285097,5.4813469 6.1342453,5.0504232 h -0.566191 c -0.1885288,0 -0.2830955,-0.061871 -0.2830955,-0.1830684 0,-0.2019951 0.094567,-0.3092625 0.2830955,-0.3227288 0,-0.1077308 -0.034582,-0.1623081 -0.1019143,-0.1623081 H 5.1037777 c 0.080799,-0.1615962 0.00623,-0.2688635 -0.2227017,-0.3227288 0,-0.094265 0.1018606,-0.3160931 0.3038558,-0.666218 -0.013466,-0.2558607 0.033817,-0.4703952 0.1415478,-0.6454577 0.1615961,-0.033666 0.3161467,-0.048458 0.4642765,-0.043408 z m -0.081154,0.1887304 c -0.1750625,0.00337 -0.3169125,0.055649 -0.4246433,0.1566461 v 0.162308 C 5.5273531,3.0101948 5.8783309,2.9956068 6.3361866,3.1706693 H 6.4966075 V 3.0291216 H 6.3361866 C 6.0937925,2.9348571 5.8846645,2.8898691 5.7096021,2.8932358 Z m 0.039634,0.2378001 c -0.2558607,10e-8 -0.4177047,0.099974 -0.485037,0.3019685 l 0.020761,0.081154 h 0.1207874 c 0.067331,0.040399 0.1491977,0.060393 0.2434622,0.060393 0.1077307,0 0.3295594,-0.067278 0.666218,-0.2019415 L 6.4966081,3.393371 V 3.2725836 L 6.3154264,3.2914567 C 6.0326331,3.1837259 5.8434999,3.1310359 5.7492361,3.1310359 Z m 0.04152,0.1415477 c 0.1077307,0 0.214998,0.027289 0.3227288,0.081154 -0.067331,0.026933 -0.1818929,0.059628 -0.3434891,0.1000269 0.040399,-0.026933 0.060393,-0.059628 0.060393,-0.1000269 0,-0.026933 -0.012701,-0.054221 -0.039633,-0.081154 z M 5.58504,3.2744636 c -0.011836,0.014203 -0.016986,0.041392 -0.016986,0.079266 0,0.040399 0.027289,0.073094 0.081154,0.1000269 C 5.5684101,3.4672274 5.4738435,3.4545274 5.3661127,3.414128 5.4582973,3.3351125 5.5314912,3.2890894 5.5850401,3.2744685 Z M 6.6381553,6.988681 v 2.3025099 h 2.1609621 c -0.013467,0.8214471 -0.090742,1.8225061 -0.2321383,3.0008131 -0.1413966,1.178305 -0.3186453,2.170183 -0.5341067,2.978164 -0.2154616,0.80798 -0.068205,1.46806 0.4435162,1.97978 H 2.4974121 C 2.6455419,17.101821 2.7428119,16.855406 2.7899441,16.512015 2.8370763,16.168622 2.6798223,15.580412 2.316231,14.745499 L 0.80072656,10.159353 C 0.7199285,9.8630932 0.82449246,9.6612593 1.1140189,9.5535285 1.4035454,9.4457977 1.6153759,9.507669 1.75004,9.736597 l 1.817473,3.070642 0.7681324,0.968186 C 4.7396358,14.044752 5.008747,13.902902 5.143411,13.350782 5.6281996,12.233076 5.8919048,10.880222 5.9323038,9.2911934 5.4609817,8.7794717 5.695511,8.0121257 6.6381552,6.9886836 Z"
     sodipodi:nodetypes="cccsscsccccsccscccccsccssccccsssccscccsccssccccccsccsscscsssccsssssssccccssscscsssccsssccccsscsccccsccccccccscccsccccscccsccscccccccssccsccscccccsc" />
  <path
     style="fill:#000000;stroke:none;stroke-width:1.04287"
     d="m -0.65806178,3.0602982 c -0.28212705,0.010178 -0.51676622,0.1840469 -0.70679012,0.521436 -0.3040382,0.5398232 0.033988,1.2198545 1.01435591,2.0388962 -0.48397882,0.1737355 -0.97422341,0.2429514 -1.47061241,0.2057228 -0.024819,0.3350624 0.068085,0.6513434 0.2790497,0.9491765 0.359882,-0.3102432 0.82440137,-0.5276981 1.39524864,-0.651795 l 0.48477258,1.9533478 c -0.68253469,0 -0.80708551,0.1561982 -0.37274529,0.4664411 -0.17373621,0.235784 -0.0749105,0.5698316 0.29738142,1.0041721 L 0.96124129,9.6128752 1.938934,9.101626 c 0,-0.6825358 -0.3044365,-1.0245404 -0.9125131,-1.0245404 L 0.24426694,6.0300424 C 0.71583624,5.8563061 1.2258832,5.7693244 1.7719116,5.7693244 1.7843207,5.434262 1.6914175,5.1298255 1.4928618,4.8568114 1.0212924,5.1422319 0.56657988,5.3537644 0.13223965,5.4902714 0.51694126,4.2741187 0.43986092,3.5170063 -0.09996226,3.2191732 -0.30239571,3.1074859 -0.48878551,3.0541904 -0.65806178,3.0602982 Z m 0.0651795,0.4949569 c 0.0840565,-0.00203 0.1766694,0.025341 0.27904981,0.083511 0.27301335,0.1551217 0.31650456,0.6907992 0.130359,1.6091189 -0.6453056,-0.6825352 -0.89635023,-1.1588984 -0.75363806,-1.4319119 0.0891947,-0.1706339 0.20413514,-0.2573247 0.34422925,-0.260718 z M 0.39295765,8.525192 H 1.083453 C 1.3440571,8.612063 1.3855115,8.7801044 1.2117752,9.0282964 L 0.59868052,9.1016208 C 0.31325689,9.0023393 0.24404105,8.8106146 0.39295765,8.52519 Z"
     id="path3"
     sodipodi:nodetypes="csccccccccccccccsccscsccccccc" />
</svg>
