<?xml version="1.0" encoding="UTF-8" standalone="no"?>
<svg
   width="700"
   height="1000"
   version="1.1"
   id="svg1"
   sodipodi:docname="13707.svg"
   inkscape:version="1.4.2 (f4327f4, 2025-05-13)"
   xmlns:inkscape="http://www.inkscape.org/namespaces/inkscape"
   xmlns:sodipodi="http://sodipodi.sourceforge.net/DTD/sodipodi-0.dtd"
   xmlns="http://www.w3.org/2000/svg"
   xmlns:svg="http://www.w3.org/2000/svg">
  <defs
     id="defs1" />
  <sodipodi:namedview
     id="namedview1"
     pagecolor="#ffffff"
     bordercolor="#666666"
     borderopacity="1.0"
     inkscape:showpageshadow="2"
     inkscape:pageopacity="0.0"
     inkscape:pagecheckerboard="0"
     inkscape:deskcolor="#d1d1d1"
     showguides="true"
     inkscape:zoom="0.755"
     inkscape:cx="474.83444"
     inkscape:cy="474.83444"
     inkscape:window-width="1680"
     inkscape:window-height="998"
     inkscape:window-x="-8"
     inkscape:window-y="-8"
     inkscape:window-maximized="1"
     inkscape:current-layer="svg1">
    <sodipodi:guide
       position="659.04764,511.42862"
       orientation="1,0"
       id="guide1"
       inkscape:locked="false" />
    <sodipodi:guide
       position="510.47615,780.95238"
       orientation="0.99473836,-0.10244802"
       id="guide2"
       inkscape:locked="false" />
  </sodipodi:namedview>
  <path
     style="fill:#ad7fa8;stroke:none;stroke-width:49.5578"
     d="m 510.47615,219.04762 c -14.27116,24.03051 -29.02432,47.87938 -39.00451,73.88619 -8.21351,19.52384 -3.44317,37.23171 14.31214,53.12415 5.79653,57.7335 6.26822,107.91232 -4.83147,159.65692 l 20.95199,20.95114 c 10.77474,-73.64428 13.97571,-121.49804 5.88463,-188.4372 -24.12644,-18.16978 -21.04276,-49.62385 14.11537,-102.99054 z"
     id="path5"
     sodipodi:nodetypes="cccccccc"
     inkscape:transform-center-x="15.285165"
     inkscape:transform-center-y="153.69842" />
  <path
     style="fill:#000000;stroke:none;stroke-width:55.6253"
     d="M 538.0957,0 C 491.11157,0 465.07936,18.412882 460,55.238281 c -3.17461,12.063485 -4.76172,26.349479 -4.76172,42.857422 -6.98412,16.507947 -10.47656,27.617757 -10.47656,33.332027 0,3.17461 3.49244,5.07994 10.47656,5.71485 l -2.85742,6.66601 c 0.63494,2.53966 2.22205,3.81055 4.76172,3.81055 -1.26985,3.80955 -1.58804,6.98377 -0.95313,9.52344 H 460 c -3.17461,16.50794 2.53943,24.76172 17.14258,24.76172 h 15.23828 c 0,13.33333 6.03218,25.71398 18.0957,37.14258 l 11.42774,16.1914 v 123.8086 H 540 c -2.5397,11.42858 -5.71393,27.93808 -9.52344,49.52539 -28.99147,-6.10351 -52.78175,-8.49018 -135.23828,4.76171 -17.14285,-3.17457 -31.74706,-8.57233 -43.81055,-16.1914 -12.06349,-7.61907 -22.85703,-11.74595 -32.38085,-12.38086 V 177.14258 C 330.47545,146.66639 341.9054,127.61903 353.33398,120 c 6.98412,2.53967 12.06368,3.17415 15.23829,1.9043 3.17461,-1.26981 1.58553,-5.3967 -4.76368,-12.38086 -12.06349,-15.238097 -31.42708,-22.857424 -58.09375,-22.857424 -27.30158,0 -46.98533,7.619329 -59.04882,22.857424 -5.71431,6.98416 -6.98321,11.11105 -3.8086,12.38086 3.17461,1.26985 7.93595,0.63537 14.28516,-1.9043 11.42854,7.61903 22.85657,26.66639 34.28515,57.14258 v 205.71484 c -7.61903,0 -7.61903,4.12689 0,12.38086 v 5.71484 c -13.96824,3.17458 -18.57048,11.90375 -13.80859,26.18946 4.76193,14.28575 9.36417,23.33307 13.80859,27.14258 v 31.42968 h 27.61915 v -30.47656 c 6.98412,-1.26981 21.90455,-6.34937 44.76171,-15.23828 48.6137,13.88967 111.47429,16.82167 192.38282,11.42773 27.30161,-50.15873 43.80916,-94.92005 49.52343,-134.28515 v 41.9043 c -1.26963,48.88889 -3.17499,85.0802 -5.71484,108.57226 -2.53985,24.76188 -2.22158,57.61988 0.95312,98.57227 C 604.1277,607.14383 581.58792,625.0794 533.33398,620 H 281.9043 c -20.31745,0 -30.47657,6.66663 -30.47657,20 0,72.38091 -11.26894,132.22187 -33.80859,179.52344 -22.53968,47.30163 -29.84079,86.66717 -21.9043,118.0957 7.9365,31.42857 1.74519,47.14258 -18.57226,47.14258 l -126.666018,0.95312 c -20.317455,0.63495 -16.825015,-2.53931 10.476563,-9.52343 29.206333,-2.53967 52.696815,-13.01696 70.474605,-31.42969 17.77779,-18.4127 28.88957,-41.26873 33.33399,-68.57031 C 173.6506,809.52473 185.39681,734.60235 200,651.42773 196.82539,613.96742 211.74583,590.79314 244.76172,581.9043 345.71409,549.52332 431.42815,531.11044 501.9043,526.66602 l -20.95118,-20.95118 c -57.77778,2.5397 -142.85733,21.58707 -255.23828,57.14258 -33.65079,13.96828 -49.20768,43.80916 -46.66796,89.52344 -7.61906,62.22222 -18.41261,136.82642 -32.38086,223.81055 -4.44445,24.76191 -14.44447,44.60281 -30,59.52343 C 101.11045,950.6355 72.381327,961.58822 30.476562,968.57227 10.159105,968.57227 0,979.04753 0,1000 h 176.19141 c 19.68251,-1.90479 32.06321,-7.61876 37.14257,-17.14258 5.07937,-9.52383 4.1267,-25.71514 -2.85742,-48.57226 -6.98412,-22.85712 1.74502,-59.20562 26.18946,-109.04688 C 261.11046,775.39701 273.33398,713.65076 273.33398,640 v 360 h 385.7129 V 488.82422 c 0,-6.05038 2.69022,-9.07617 8.06835,-9.07617 6.05041,0 9.07618,3.02579 9.07618,9.07617 v 86.41406 h 22.85547 V 480 c 0,-14.60319 -10.15712,-21.9043 -30.47461,-21.9043 -20.95237,0 -31.42969,7.30111 -31.42969,21.9043 v 8.57227 H 618.0957 c 3.80966,-41.26982 6.3494,-84.44604 7.61914,-129.52539 h 37.14258 V 228.57227 c 0,-79.99998 -9.36557,-138.096623 -28.0957,-174.287114 C 616.03155,18.0947 583.80998,0 538.0957,0 Z M 540,15.714844 c 40.63491,0.317435 68.57054,17.936779 83.80859,52.857422 15.23813,34.920644 22.54116,88.253994 21.90625,160.000004 V 338.0957 h -20.95312 c 0,-88.25399 -10.79355,-132.53999 -32.38086,-132.85742 C 570.79355,204.92081 560,214.28637 560,233.33398 v 36.18946 c -3.80948,6.98412 -9.20725,29.8421 -16.19141,68.57226 H 538.0957 V 137.14258 c 3.80951,-5.07936 9.99891,-13.01496 18.57032,-23.8086 8.57148,-10.79367 12.85742,-21.58722 12.85742,-32.380855 0,-10.793635 -7.30108,-16.191406 -21.9043,-16.191406 -7.61903,0 -12.3804,5.714037 -14.28516,17.142578 0,-12.063485 -5.71595,-19.682815 -17.14453,-22.857422 C 504.76088,55.872268 490.47683,54.603338 473.33398,55.238281 477.14353,28.57161 499.36509,15.397372 540,15.714844 Z m -30.95312,56.666015 c 12.38094,3.809514 18.57226,11.747062 18.57226,23.810547 H 540 C 540,85.397771 542.53981,80 547.61914,80 c 5.71431,0 8.57227,2.857995 8.57227,8.572266 0,5.714271 -4.6042,13.174514 -13.81055,22.380854 -9.20635,9.20636 -16.03211,17.61923 -20.47656,25.23829 v 70.47461 c -10.15873,-6.98412 -15.23828,-18.41213 -15.23828,-34.28516 h -25.7129 c -7.61905,0 -11.42968,-3.17423 -11.42968,-9.52344 0,-8.25394 3.81064,-12.69904 11.42968,-13.33398 10e-6,-4.44442 -1.27081,-6.98419 -3.81054,-7.61914 h -14.28516 c 3.17461,-6.98412 0.31662,-11.7455 -8.57226,-14.28516 0,-3.80955 3.81061,-13.65044 11.42968,-29.523437 0,-10.793672 1.90341,-20.000113 5.71289,-27.619141 12.66147,-2.532306 25.2242,-1.909552 37.61915,1.904297 z m -39.52344,10.476563 v 8.570312 c 9.52378,-8.888878 23.17533,-9.523324 40.95312,-1.904296 h 6.66602 v -6.666016 h -6.66602 c -14.39331,-6.452176 -30.33267,-9.861888 -40.95312,0 z M 468.57227,100 l 0.95117,4.76172 4.76172,-0.95313 c 7.20407,5.40293 16.08512,2.91056 35.23828,-6.666012 l 7.61914,0.953125 v -4.761719 l -7.61914,0.951172 C 495.4473,87.897745 476.53119,82.128287 468.57227,100 Z m 13.33203,-6.666016 c -2.04023,2.943969 -0.67194,5.710203 1.90429,7.619136 -2.53966,0.63492 -6.03015,0.31669 -10.47461,-0.95312 3.17465,-3.809553 6.03066,-6.031109 8.57032,-6.666016 z m 7.61914,0 c 3.80955,0 7.93644,0.952665 12.38086,2.857422 -2.53966,1.26985 -6.98282,2.856965 -13.33203,4.761714 2.32081,-2.206963 2.17977,-4.889937 0.95117,-7.619136 z m -182.85742,9.523436 c 13.33333,0 25.39773,2.2216 36.1914,6.66602 -13.96828,14.60319 -26.03267,34.60318 -36.1914,60 h -0.95118 c -10.79367,-25.39682 -22.8581,-45.39681 -36.1914,-60 10.79363,-4.44442 23.17433,-6.66602 37.14258,-6.66602 z m 310.47656,406.66602 h 20 V 793.33398 H 519.04688 V 978.0957 H 295.23828 V 640.95312 h 239.04688 c 39.36507,-0.6349 64.6037,-7.14443 75.71484,-19.52539 11.11111,-12.38099 13.49179,-49.6821 7.14258,-111.90429 z m -75.23828,305.71484 95.23828,0.95313 V 978.0957 H 541.9043 Z"
     id="path1"
     sodipodi:nodetypes="sccscccccscccccccscccscscscccccscccccccccscsssscccsccccccccscccssscccsssccsssccccssssscccssccccssscscssccssscccssccccccscccccccccccccccccccccccsccccsccccccccscccccc" />
</svg>
