<?xml version="1.0" encoding="UTF-8" standalone="no"?>
<svg
   width="9.423448"
   height="17.972734"
   version="1.1"
   id="svg1"
   sodipodi:docname="13755.svg"
   inkscape:version="1.4.2 (f4327f4, 2025-05-13)"
   xmlns:inkscape="http://www.inkscape.org/namespaces/inkscape"
   xmlns:sodipodi="http://sodipodi.sourceforge.net/DTD/sodipodi-0.dtd"
   xmlns="http://www.w3.org/2000/svg"
   xmlns:svg="http://www.w3.org/2000/svg">
  <defs
     id="defs1" />
  <sodipodi:namedview
     id="namedview1"
     pagecolor="#ffffff"
     bordercolor="#666666"
     borderopacity="1.0"
     inkscape:showpageshadow="2"
     inkscape:pageopacity="0.0"
     inkscape:pagecheckerboard="0"
     inkscape:deskcolor="#d1d1d1"
     inkscape:zoom="32"
     inkscape:cx="6.765625"
     inkscape:cy="6.640625"
     inkscape:window-width="1680"
     inkscape:window-height="998"
     inkscape:window-x="-8"
     inkscape:window-y="-8"
     inkscape:window-maximized="1"
     inkscape:current-layer="svg1" />
  <path
     style="fill:#000000;stroke:none"
     d="m 6.0429688,6.2050781 c -0.021136,-0.00117 -0.041339,1.092e-4 -0.060547,0.00195 C 5.8629078,6.2185045 5.7802685,6.288534 5.734375,6.4160156 5.780997,6.695747 6.0791465,6.7075919 6.6269531,6.4511719 6.386013,6.2962815 6.1909242,6.2132873 6.0429688,6.2050781 Z"
     id="path5" />
  <path
     style="fill:#000000;stroke:none"
     d="m 6.3457031,0 c 0.1515214,1.060648 0.1515214,2.010416 0,2.8496094 -0.2797313,0.139866 -0.3962315,0.256366 -0.3496093,0.3496094 0.046622,0.093244 0.1058485,0.1228562 0.1757812,0.087891 0.268076,0.303042 0.4892305,0.6643876 0.6640625,1.0839844 v 0.4023437 h 0.017578 C 6.1658431,4.7850924 5.6820751,5.1859436 5.4023438,5.9785156 5.4139997,6.083415 5.2994842,6.3065226 5.0605469,6.6445312 4.8216095,6.9825399 4.8018573,7.1800039 5,7.2382812 5.1981433,7.2965586 5.28503,7.5986777 5.2617188,8.1464844 L 4.6328125,9.5800781 C 4.4812912,9.7315995 4.3331927,9.7868884 4.1875,9.7460938 4.0418067,9.7053003 3.9450595,9.7724336 3.8984375,9.9472656 4.3879668,10.343552 4.8144613,10.227052 5.1757812,9.5976562 L 5.9101562,8.3222656 C 6.2365096,8.2872996 6.3925147,8.4452579 6.3808594,8.7949219 5.78643,9.9138472 5.4310078,11.825228 5.3144531,14.529297 L 2.8671875,11.207031 C 2.5408342,10.787434 2.1222157,10.617631 1.609375,10.699219 V 8.0429688 C 1.5977197,7.5417833 1.4160702,7.27917 1.0664062,7.2558594 1.1596496,7.0926827 1.2643047,6.9524922 1.3808594,6.8359375 1.497414,6.7776602 1.5961457,6.6730057 1.6777344,6.5214844 1.7127004,6.3466524 1.6021231,6.2992707 1.3457031,6.3808594 1.1359045,6.5440354 0.94436325,6.7256848 0.76953125,6.9238281 0.51311125,7.1569375 0.36501342,7.3484787 0.32421875,7.5 0.28342475,7.6515207 0.174832,8.0306341 0,8.6367188 0.01165533,8.9747274 0.09261929,9.0102635 0.24414062,8.7421875 0.29076263,8.5906662 0.3578965,8.4011095 0.4453125,8.1738281 0.5327285,7.9465468 0.69267192,7.7747578 0.92578125,7.6582031 c 0.19814265,0 0.29882815,0.1283455 0.29882815,0.3847657 v 2.7265622 h -0.017578 c -0.6643619,0.326354 -0.85193416,0.559353 -0.56054682,0.699219 0.29138666,0.139865 0.51254182,0.366943 0.66406252,0.681641 0.023311,0.209798 0.1990373,0.681721 0.5253906,1.416015 0.3263527,0.734294 0.6343945,1.731443 0.9257813,2.990235 l -1.2753907,0.734375 0.1054688,0.68164 H 9.0566406 L 8.2519531,16.923828 C 8.8695568,14.447211 8.7565092,11.896822 8.6894531,9.3710938 8.6597404,9.0917942 8.587642,8.8821158 8.4746094,8.7421875 8.455532,8.7666839 8.429581,8.8003929 8.390625,8.8496094 8.306685,8.955658 8.2239579,9.0617163 8.1425781,9.1699219 c 0.1126586,0.3064726 0.1484895,1.3355681 0.109375,3.0859371 -0.046622,2.08633 -0.2736999,3.735097 -0.6816406,4.947266 l 0.4375,0.279297 H 2.3417969 L 3.5488281,16.958984 C 3.1408861,15.22232 2.7222676,13.980325 2.2910156,13.234375 1.859763,12.488425 1.8005364,12.040193 2.1152344,11.888672 c 0.3146973,-0.151521 0.5832335,-0.06463 0.8046875,0.261719 l 2.3066406,3.269531 h 0.5957031 c 0.093244,-2.797313 0.3894397,-4.866653 0.890625,-6.2070314 L 6.7480469,8.671875 C 6.6897695,8.438765 6.6285585,8.263039 6.5644531,8.1464844 6.5003485,8.0299304 6.2416727,7.978579 5.7871094,7.9902344 5.6006214,8.0018897 5.5078125,7.867622 5.5078125,7.5878906 c 0.2538707,0.00747 0.3902339,-0.0089 0.4121094,-0.046875 l 0.00195,-0.00195 c 3.863e-4,-0.00147 0.00153,-0.00719 0.00195,-0.00977 v -0.00195 -0.00195 -0.00195 C 5.9169081,7.5055905 5.8899072,7.4817993 5.8476562,7.4570312 5.6786579,7.3579615 5.560167,7.336254 5.4902344,7.3945312 V 7.1679688 L 5.1757812,7.0117188 C 5.292336,6.7786093 5.4048983,6.6028828 5.515625,6.4863281 5.6263523,6.3697735 5.7053311,6.1940468 5.7519531,5.9609375 6.2764491,5.9959042 6.7246816,6.1716308 7.0976562,6.4863281 7.2957996,6.2881848 7.455743,6.2644943 7.578125,6.4160156 7.7005077,6.567537 7.6116356,6.7985519 7.3085938,7.1074219 L 7.9277344,6.7753906 C 8.0268064,6.5131426 7.9873006,6.2959578 7.8066406,6.1269531 7.6259806,5.9579491 7.4008878,5.9322735 7.1328125,6.0488281 6.8297698,5.8273741 6.4684248,5.6812608 6.0488281,5.6113281 6.2236601,5.2383528 6.5731602,5.07841 7.0976562,5.1308594 7.6221524,5.1833094 8.0723378,5.3827265 8.4453125,5.7265625 L 8.6542969,5.3144531 C 8.2113895,4.9764445 7.7631571,4.7967482 7.3085938,4.7734375 V 4.3710938 C 7.4834257,3.9514971 7.7045802,3.5901514 7.9726562,3.2871094 8.0425889,3.3220754 8.099863,3.2924626 8.1464844,3.1992188 8.1931064,3.1059754 8.0825291,2.9894754 7.8144531,2.8496094 7.6512771,2.010416 7.6453543,1.060648 7.796875,0 Z m 0.28125,0.20898438 h 0.890625 c -0.023311,0.37297533 -0.037141,0.78170132 -0.042969,1.22460942 -0.00583,0.4429079 0.013925,0.8911397 0.060547,1.3457031 -0.093243,-0.046622 -0.2452794,-0.070312 -0.4550781,-0.070312 -0.221454,0 -0.3774591,0.023691 -0.4707031,0.070312 0.046622,-0.4545634 0.066374,-0.9027953 0.060547,-1.3457031 -0.00583,-0.4429081 -0.019657,-0.85163409 -0.042969,-1.22460942 z m 0.453125,2.78125002 c 0.2097987,0.011655 0.4269842,0.068929 0.6484375,0.1738281 L 7.640625,3.3222656 C 7.4424817,3.287299 7.3022918,3.3268047 7.2207031,3.4433594 7.1740818,3.2801827 7.1267001,3.1814504 7.0800781,3.1464844 7.0218008,3.1814504 6.9704501,3.2801827 6.9238281,3.4433594 6.8422401,3.3268047 6.7079724,3.287299 6.5214844,3.3222656 L 6.4160156,3.1640625 C 6.649125,3.0591632 6.8702795,3.0018897 7.0800781,2.9902344 Z m 0,0.453125 c 0.046622,0.034967 0.062405,0.08827 0.044922,0.1582031 -0.017483,0.069933 -0.033266,0.139051 -0.044922,0.2089844 -0.023311,-0.069933 -0.043063,-0.1390517 -0.060547,-0.2089844 -0.017483,-0.069933 0.00227,-0.1232365 0.060547,-0.1582031 z m 0.421875,0.011719 c 0.015949,7.077e-4 0.033298,0.00295 0.050781,0.00586 -0.209798,0.48953 -0.3677569,0.734375 -0.4726563,0.734375 -0.1165546,0 -0.2784826,-0.244845 -0.4882812,-0.734375 0.017483,-0.00291 0.032893,-0.00318 0.048828,-0.00391 0.1115467,-0.0051 0.1850084,0.042546 0.2207031,0.1445313 0.040794,0.1165547 0.082253,0.2093642 0.1230469,0.2792969 0.038245,0.065562 0.068919,0.1013711 0.091797,0.1054687 h 0.00195 0.00195 0.00195 0.00195 v -0.00195 h 0.00195 C 7.0998465,3.973721 7.1270112,3.93768 7.1601562,3.8808594 7.2009502,3.8109264 7.2404552,3.7181172 7.28125,3.6015625 7.3169448,3.4995771 7.390312,3.4501243 7.5019531,3.4550784 Z M 1.7910156,11.029297 c 0.233838,0.0044 0.4641248,0.133212 0.6914063,0.386719 -0.4195967,0 -0.6999778,0.128345 -0.8398438,0.384765 -0.1165546,-0.291386 -0.2389775,-0.459237 -0.3671875,-0.505859 -0.026043,-0.0095 -0.043013,-0.02133 -0.050781,-0.0332 l -0.00195,-0.002 c -3.788e-4,-0.0012 1.9e-4,-0.0034 0,-0.0039 -2.731e-4,-9.56e-4 -0.00179,-0.0049 -0.00195,-0.0059 -5.69e-5,-9.85e-4 -5.12e-5,-0.0049 0,-0.0059 v -0.002 -0.002 -0.002 c 0.015776,-0.04374 0.1294174,-0.103035 0.3359375,-0.171875 0.078674,-0.02623 0.156429,-0.03857 0.234375,-0.03711 z"
     id="path1"
     sodipodi:nodetypes="ccscccccssccscccccccccccccsccscsccscscccccccscsccccsscccccsccccccccscccsccsccsccscccccscccccccscccccccccccccscscscsccsscccccccsssccccccccccccccc" />
  <path
     style="fill:#cc0000;stroke:none;stroke-width:1px;stroke-linecap:butt;stroke-linejoin:miter;stroke-opacity:1"
     d="M 6.7128906,9.2128906 C 6.9273189,8.6369025 7.7373086,8.467403 8.1425781,9.1699219 L 8.4746094,8.7421875 C 7.9995888,8.1058207 6.932505,7.9191273 6.3808594,8.7949215 Z"
     id="path6"
     sodipodi:nodetypes="ccccc" />
  <path
     style="fill:#cc0000;stroke:none;stroke-width:1px;stroke-linecap:butt;stroke-linejoin:miter;stroke-opacity:1"
     d="m 8.4453125,5.7265625 c 0.2618376,0.2705874 0.2642296,0.6539273 0.2642296,0.9423091 0,0.4329954 -0.3189404,0.8800715 -0.8120524,0.8800715 -0.6174569,0 0.030244,-0.7735525 0.030244,-0.7735525 L 7.3085938,7.1074219 c -0.167518,0.30778 -0.2039381,0.8045039 0.6393365,0.8045039 0.8529094,0 1.1412581,-0.7711136 1.1412581,-1.3002172 0,-0.516108 -0.020875,-0.9113397 -0.4348915,-1.2972555 z"
     id="path7"
     sodipodi:nodetypes="cssccsscc" />
  <path
     style="fill:#a40000;stroke:none;stroke-width:1px;stroke-linecap:butt;stroke-linejoin:miter;stroke-opacity:1"
     d="M 7.414798,7.6092104 7.6040788,8.4743479 8.034972,8.5516879 7.8346427,7.5429193 Z"
     id="path8"
     sodipodi:nodetypes="ccccc" />
</svg>
