<?xml version="1.0" encoding="UTF-8" standalone="no"?>
<svg
   width="9.785118"
   height="17.972734"
   version="1.1"
   id="svg1"
   sodipodi:docname="1375A.svg"
   inkscape:version="1.4.2 (f4327f4, 2025-05-13)"
   xmlns:inkscape="http://www.inkscape.org/namespaces/inkscape"
   xmlns:sodipodi="http://sodipodi.sourceforge.net/DTD/sodipodi-0.dtd"
   xmlns="http://www.w3.org/2000/svg"
   xmlns:svg="http://www.w3.org/2000/svg">
  <defs
     id="defs1" />
  <sodipodi:namedview
     id="namedview1"
     pagecolor="#ffffff"
     bordercolor="#666666"
     borderopacity="1.0"
     inkscape:showpageshadow="2"
     inkscape:pageopacity="0.0"
     inkscape:pagecheckerboard="0"
     inkscape:deskcolor="#d1d1d1"
     inkscape:zoom="42.008076"
     inkscape:cx="9.4386612"
     inkscape:cy="8.7959277"
     inkscape:window-width="1680"
     inkscape:window-height="998"
     inkscape:window-x="-8"
     inkscape:window-y="-8"
     inkscape:window-maximized="1"
     inkscape:current-layer="svg1" />
  <path
     style="fill:#000000;stroke:none"
     d="M 8.921725,4.338324 C 8.861767,3.8106947 8.891746,3.0612217 9.011662,2.089905 8.891746,1.8021077 8.831788,1.4483563 8.831788,1.028651 V 0.435069 c 0.131908,0.0119913 0.197862,0.101928 0.197862,0.26981 v 0.233836 c 0.023983,0.3117807 0.095932,0.467671 0.215848,0.467671 0.1678813,0 0.251822,-0.2098523 0.251822,-0.629557 0,-0.14389933 -0.017987,-0.263815 -0.053962,-0.359747 C 9.407384,0.32114933 9.377405,0.219221 9.353421,0.111297 9.3414297,0.003373 9.3774047,-0.026606 9.461346,0.02136 9.677194,0.2492 9.785118,0.501023 9.785118,0.776829 c 0,0.431696 -0.107924,0.9353417 -0.323772,1.510937 0.083941,1.0792407 0.131907,1.76276 0.143899,2.050558 0,0.38373 -0.245827,0.575595 -0.737481,0.575595 H 5.953813 C 5.4621583,4.913919 5.216331,4.722054 5.216331,4.338324 5.228323,4.050526 5.2762893,3.3670067 5.36023,2.287766 5.144382,1.7121707 5.036458,1.208525 5.036458,0.776829 5.036458,0.501023 5.144382,0.2492 5.36023,0.02136 5.4441713,-0.026606 5.486142,0.003373 5.486142,0.111297 5.4621587,0.219221 5.4291817,0.32114933 5.387211,0.417082 5.3452403,0.513014 5.324255,0.63292967 5.324255,0.776829 c 0,0.4197047 0.083941,0.629557 0.251823,0.629557 0.119916,0 0.1858697,-0.1558903 0.197861,-0.467671 V 0.704879 c 0,-0.167882 0.071949,-0.25781867 0.215848,-0.26981 v 0.593582 c 0,0.4197053 -0.059958,0.7734567 -0.179873,1.061254 C 5.9298293,3.0612217 5.959808,3.8106947 5.89985,4.338324 6.3195553,4.2663747 6.8232013,4.254383 7.410788,4.302349 7.9863827,4.254383 8.4900283,4.2663747 8.921725,4.338324 Z"
     id="path1"
     sodipodi:nodetypes="ccscscsssccsccssccsccssscscscccc" />
  <path
     id="path5"
     style="fill:#000000;stroke:none;stroke-width:0.999996"
     d="m 7.1119553,4.8952138 h 0.017416 C 6.4480392,4.9067609 5.9687315,5.3039166 5.6915793,6.0891812 5.7031278,6.1931133 5.589668,6.4141639 5.3529339,6.7490562 5.1161994,7.0839483 5.0966294,7.2795916 5.2929451,7.3373317 5.4892615,7.3950717 5.5753472,7.6944053 5.552251,8.2371612 L 4.929143,9.6575372 C 4.7790188,9.8076616 4.6322857,9.8624406 4.4879365,9.8220222 4.3435864,9.7816047 4.2477312,9.8481192 4.2015391,10.021339 4.6865549,10.413972 5.1091172,10.298545 5.4671056,9.6749532 L 6.1947097,8.4113217 C 6.5180541,8.376678 6.6726209,8.53318 6.6610731,8.8796202 6.0721243,9.9882288 5.719979,11.881985 5.604499,14.561125 L 3.1797972,11.26949 C 2.8564529,10.853761 2.441694,10.685525 1.9335817,10.766359 V 8.1346 C 1.922034,7.6380354 1.7420593,7.3778434 1.3956191,7.3547478 1.4880028,7.1930755 1.591693,7.0541776 1.7071731,6.9386976 1.822653,6.8809576 1.9204745,6.777268 2.0013109,6.6271437 2.0359545,6.4539237 1.9263967,6.4069789 1.6723408,6.4878154 1.4644767,6.6494867 1.2747015,6.8294614 1.1014814,7.0257777 0.84742571,7.2567379 0.70069328,7.4465131 0.66027471,7.5966375 0.61985682,7.7467611 0.51226535,8.1223791 0.3390453,8.7228756 0.35059313,9.0577678 0.43081065,9.0929762 0.58093492,8.8273719 0.62712707,8.6772477 0.69364199,8.4894387 0.78025201,8.2642528 0.86686204,8.039067 1.0253307,7.8688619 1.2562908,7.7533819 c 0.1963157,0 0.2960729,0.127162 0.2960729,0.3812181 v 2.701423 h -0.017416 c -0.65823641,0.323346 -0.84407929,0.554196 -0.55537849,0.692773 0.28869999,0.138575 0.50781609,0.363558 0.65793979,0.675357 0.023096,0.207863 0.1972021,0.675434 0.5205465,1.402957 0.3233437,0.727524 0.6285452,1.715479 0.9172455,2.962665 l -1.2636315,0.727604 0.1044963,0.675356 H 9.3121839 L 8.5149152,16.933578 C 9.1268246,14.479795 9.0148193,11.952921 8.9483815,9.4504796 8.9189427,9.1737553 8.8475091,8.9660102 8.7355186,8.8273719 8.6109379,8.6604758 8.4459136,8.5238727 8.2594798,8.430673 L 8.1743349,8.0049472 c 0.013013,2.528e-4 0.02524,0 0.038702,0 0.8450455,0 1.1320433,-0.7645628 1.1320433,-1.2887882 0,-0.5113494 -0.021332,-0.9025601 -0.4315309,-1.2849178 C 8.4747257,5.0963491 8.030626,4.9183096 7.5802537,4.8952138 Z m 0.071599,0.3444509 c 0.05954,-8.15e-5 0.1227489,0.00318 0.1877062,0.00969 0.5196605,0.051967 0.9656951,0.2495449 1.335231,0.5902108 0.2594235,0.2680925 0.2612409,0.6470035 0.2612409,0.9327265 0,0.429003 -0.3145082,0.8727376 -0.8030737,0.8727376 -0.022172,0 -0.044889,5.6e-6 -0.063858,-0.00193 v -0.00387 l -0.00969,0.00193 h -0.00193 C 7.6092277,7.5783048 8.1930225,6.8795014 8.1936858,6.8787089 8.2918444,6.6188789 8.2527027,6.4036965 8.0737085,6.23625 7.8947143,6.0688043 7.6716967,6.0433655 7.4060932,6.1588454 7.1058444,5.9394332 6.747831,5.794667 6.332103,5.7253791 6.4836706,5.4020346 6.766775,5.2402357 7.1835543,5.2396647 Z M 6.0379656,6.0717652 C 6.5576253,6.1064093 7.0017252,6.2805158 7.3712609,6.5923115 7.5675775,6.3959951 7.7260461,6.3725232 7.8472997,6.5226474 7.9685541,6.6727718 7.8805014,6.9016566 7.5802537,7.2076789 7.4567629,7.4345681 7.40537,7.7654651 7.7311928,7.919802 l 0.08321,0.379283 C 7.5228977,8.2662154 7.2188981,8.3344064 6.9629513,8.5371045 6.9239996,8.412509 6.8843733,8.3124321 6.8429739,8.2371612 6.7794604,8.1216818 6.5231696,8.0708039 6.0727973,8.0823519 5.8880288,8.0938997 5.7960757,7.9608699 5.7960757,7.6837177 c 0.2515299,0.0074 0.3866359,-0.00883 0.4083096,-0.046442 l 0.00193,-0.00193 c 3.828e-4,-0.00146 0.00152,-0.00712 0.00193,-0.00969 v -0.00193 -0.00193 -0.00193 c -0.00684,-0.017697 -0.0336,-0.04126 -0.075461,-0.0658 C 5.9653459,7.4559085 5.8479475,7.4344012 5.7786596,7.4921411 V 7.2676676 L 5.4671056,7.1128582 C 5.5825858,6.8818979 5.6941103,6.7077917 5.8038161,6.5923115 5.9135226,6.4768316 5.9917731,6.302725 6.0379656,6.0717652 Z m 0.2573708,0.2418895 c -0.010005,4e-4 -0.019512,0.00102 -0.029026,0.00193 C 6.1478976,6.3269594 6.06602,6.3963412 6.0205497,6.522647 6.066742,6.7997993 6.3621424,6.811535 6.9048982,6.5574782 6.666179,6.4040173 6.4728888,6.3217882 6.3262978,6.3136547 c -0.01047,-5.796e-4 -0.020962,-3.999e-4 -0.030961,0 z M 7.7331283,8.7944749 C 7.9793109,8.8068759 8.2308784,8.9466444 8.4065491,9.2511627 8.518169,9.5548095 8.5536695,10.574417 8.5149156,12.308647 8.4687246,14.375741 8.2437392,16.009307 7.8395598,17.2103 L 8.273026,17.487022 H 2.6592508 L 3.8551532,16.96841 C 3.4509723,15.247758 3.0362134,14.017213 2.6089377,13.278142 2.1816612,12.539069 2.1229806,12.09497 2.4347772,11.944846 c 0.3117957,-0.150124 0.577856,-0.06403 0.7972682,0.259306 l 2.2853733,3.239385 H 6.1076295 C 6.2000139,12.672016 6.4934785,10.621754 6.9900429,9.2937352 7.1095467,8.9727291 7.4166074,8.7785313 7.7331283,8.7944749 Z M 2.113548,11.093394 c 0.2316821,0.0043 0.4598456,0.131985 0.6850315,0.383153 -0.4157278,0 -0.693524,0.127163 -0.8321004,0.381217 -0.1154799,-0.288698 -0.2367742,-0.455003 -0.363802,-0.501194 -0.025803,-0.0095 -0.042617,-0.02112 -0.050314,-0.0329 l -0.00193,-0.002 v -0.002 -0.002 c -2.706e-4,-9.49e-4 -0.00177,-0.0048 -0.00193,-0.0058 -5.65e-5,-9.75e-4 -5.08e-5,-0.0048 0,-0.0058 v -0.002 -0.002 -0.002 c 0.01563,-0.04333 0.1282242,-0.102084 0.3328402,-0.17029 0.077948,-0.02598 0.1549866,-0.03822 0.232214,-0.03676 z"
     sodipodi:nodetypes="cccssccscccccccccccccsccscsccscscccccccccsscccsscsscccccsccsccsccccsccccccccscccscscccssscsccccssccccsccccccccccccccc" />
</svg>
