<?xml version="1.0" encoding="UTF-8" standalone="no"?>
<svg
   width="16.375467"
   height="17.972734"
   version="1.1"
   id="svg1"
   sodipodi:docname="137D4.svg"
   inkscape:version="1.4.2 (f4327f4, 2025-05-13)"
   xmlns:inkscape="http://www.inkscape.org/namespaces/inkscape"
   xmlns:sodipodi="http://sodipodi.sourceforge.net/DTD/sodipodi-0.dtd"
   xmlns="http://www.w3.org/2000/svg"
   xmlns:svg="http://www.w3.org/2000/svg">
  <defs
     id="defs1" />
  <sodipodi:namedview
     id="namedview1"
     pagecolor="#ffffff"
     bordercolor="#666666"
     borderopacity="1.0"
     inkscape:showpageshadow="2"
     inkscape:pageopacity="0.0"
     inkscape:pagecheckerboard="0"
     inkscape:deskcolor="#d1d1d1"
     inkscape:zoom="21.004038"
     inkscape:cx="12.354767"
     inkscape:cy="14.259163"
     inkscape:window-width="1680"
     inkscape:window-height="998"
     inkscape:window-x="-8"
     inkscape:window-y="-8"
     inkscape:window-maximized="1"
     inkscape:current-layer="svg1" />
  <path
     style="fill:#000000;stroke:none;stroke-width:0.948258"
     d="m 6.9685185,3.4066616 q -0.025803,0.090312 -0.116116,0.07741 0,0.1548206 0.1419199,0.3096422 -0.1677228,-0.064509 -0.2322323,0.025802 -0.090312,-0.07741 -0.1161152,0.051607 h 0.090311 Q 7.0846335,3.8582225 7.3039633,4.4904082 7.4716864,4.8645584 7.5749001,4.9548708 7.6781147,5.045183 7.820034,5.0064775 7.8071318,4.8258535 7.7103693,4.6516802 7.6136058,4.4775069 7.4716867,4.4000962 8.3619066,4.2452748 8.3102998,3.7292051 8.2586939,3.2131356 7.8329356,3.2131356 q -0.4128557,0 -0.6257345,0.1032138 Q 6.9943224,3.419563 6.9685185,3.4066616 Z M 7.510392,4.2581771 Q 7.9361503,4.0775526 7.9748548,3.9291823 8.0135602,3.780812 7.9038951,3.6646967 7.7942302,3.5485806 7.6265072,3.5485806 q -0.1677219,0 -0.2709368,0.2064284 -0.025803,0.1032138 -0.012901,0.4257572 -0.012901,0.038705 -0.064508,0.038705 -0.064509,-0.3096421 -0.1290175,-0.3741504 0.012901,-0.038705 0.019352,-0.1032148 0.00646,-0.064507 -0.083862,-0.1290165 0,-0.21933 0.1806253,-0.21933 0.090311,0 0.1419191,0.077409 0.064507,-0.077409 -0.038705,-0.1419192 0.6966941,-0.051607 0.7483009,0.3677002 0.051608,0.4193071 -0.6063819,0.587029 z M 7.1233391,3.6001875 q 0.07741,0.051607 0.1419201,0.064509 0.1032137,-0.025803 0.1032137,-0.116116 0,-0.1032138 -0.1032137,-0.1032138 -0.1032147,0 -0.1419201,0.1548208 z M 7.2652592,3.4711699 q 0.064507,0 0.077409,0.07741 -0.012901,0.064509 -0.077409,0.064509 -0.07741,0 -0.07741,-0.064509 0,-0.07741 0.07741,-0.07741 z M 7.1620445,6.2321441 h 0.167723 Q 7.3039637,5.4451378 7.5878029,5.2645132 7.4071783,5.1225941 7.284611,5.3032187 7.1620445,5.4838432 7.1620445,6.2321441 Z M 7.9877562,5.4451378 Q 7.6394098,5.3161202 7.5749004,5.8837974 q 0.167723,0.1032138 0.4128558,0.064508 z m 1.2385675,0.012901 V 5.9354044 H 9.4069492 L 9.3682437,5.4580392 Z m 0.4902665,0.7741051 0.012902,0.1548214 H 9.9875284 V 6.2321441 Z m -0.7224969,0 V 5.0967902 Q 9.4972614,5.174201 9.9101168,5.3806284 9.9230192,4.5678193 9.4327521,3.9420838 8.9424865,3.3163494 8.4393174,3.2905453 8.8134679,4.1807662 8.207087,4.6323274 V 6.2321441 Z M 7.3168652,6.4772782 7.342669,6.6579026 H 9.4456544 V 6.2321441 H 9.2263237 V 6.4643754 H 7.9748548 V 6.2192425 q -0.2580343,0.07741 -0.4257574,0 V 6.4772779 Z M 15.625592,3.0583139 v -1.535308 q -0.05162,-0.090312 -0.154822,-0.090312 -0.193526,0 -0.270936,0.2967406 -0.0774,0.2967406 -0.387053,0.5741276 Q 14.503139,2.58095 14.012872,2.58095 v 0.012902 q -0.490265,0 -0.793457,-0.2838382 -0.303191,-0.2838383 -0.387051,-0.5805788 -0.08386,-0.2967406 -0.277389,-0.2967406 -0.103214,0 -0.154821,0.090312 v 1.535308 z M 3.9624116,3.0712164 V 1.5359083 Q 3.9108048,1.4326937 3.8075901,1.4326937 q -0.1935259,0 -0.2709367,0.2967406 -0.07741,0.2967405 -0.387052,0.5805787 -0.3096422,0.2838383 -0.7999088,0.2838383 v 0 q -0.4902665,0 -0.7934574,-0.2838383 Q 1.2530443,2.0261748 1.1691824,1.7358855 1.0853212,1.4455962 0.8917953,1.4455962 q -0.0903122,0 -0.15482151,0.090311 V 3.0712155 Z M 7.4071783,7.290088 7.4458837,7.4320071 H 9.6004754 L 9.6649828,7.290088 Z m 0.1548206,0.3225436 q 0.2322313,0.8515146 0.1548216,1.728834 L 9.3424399,8.6060663 Q 9.4198506,8.0125849 9.6004751,7.6126316 Z m 0.2322313,1.9352615 q 0.064509,0.1161161 0,0.2838388 L 9.4198506,9.2769573 9.3811454,8.7737883 Z m -0.2580353,0.374151 q 0.1935269,-0.064508 0.1935269,-0.2128782 0,-0.1483704 -0.1548214,-0.096764 z M 6.9556171,13.173285 6.9427147,13.25069 H 9.677885 L 9.652082,13.17328 Z m 0.3612481,-6.1799376 0.051608,0.141919 H 9.729493 L 9.7811,6.9933474 Z M 2.1690682,5.0838888 Q 1.9626398,5.0709872 1.8787787,4.7548939 1.7949178,4.4388016 1.9239353,4.4129978 1.6788016,4.2452748 1.8852299,4.1549634 q 0.1161154,-0.025803 0.2838383,0 V 3.226037 H 0.58215318 V 1.4455962 Q 0.68536692,1.2907746 0.8917953,1.2907746 q 0.3225436,0 0.4064046,0.2709367 0.083862,0.2709367 0.2902894,0.5612261 0.2064285,0.2902894 0.7612033,0.3160934 v 0 Q 2.91737,2.4132268 3.1237975,2.1229374 3.3302258,1.832648 3.4076357,1.5617113 3.4850465,1.2907746 3.8075901,1.2907746 q 0.2064284,0 0.3225436,0.1419191 V 3.226037 H 2.5174156 v 0.9805333 q 0.219329,0.2967396 0.5934803,0.5547749 1.1740592,0.503168 1.5998165,0.722498 L 6.0395922,5.4451378 Q 6.787894,5.0838888 7.0588308,5.200004 7.2265538,5.0451833 7.2781606,4.9032643 6.9040092,4.0388472 6.6846803,4.0388472 q -0.051608,-0.025803 -0.2193298,0.064507 0,-0.5547749 0.2967396,-0.6579887 0,-0.1032137 0.07096,-0.1354687 0.070959,-0.032255 0.1096639,0.019352 Q 6.929813,3.2776418 7.1620439,3.109919 7.3555698,2.9809023 8.0006579,2.968 q 0.9934348,0 1.5740136,0.670891 0.5805795,0.6708911 0.6579895,1.8449503 h 1.457897 Q 12.116317,5.264512 13.200061,4.7742454 13.445196,4.5420141 13.677426,4.3355856 13.806445,4.2194705 13.858052,4.2323719 V 3.226037 h -1.62562 V 1.4326937 q 0.116115,-0.1548207 0.322543,-0.1548207 0.322544,0 0.406405,0.2773879 0.08386,0.2773871 0.290289,0.5676765 0.206429,0.2902894 0.761203,0.3160934 v -0.012902 q 0.567678,-0.012901 0.774107,-0.3031907 0.206426,-0.2902893 0.283838,-0.5676765 0.07741,-0.2773879 0.399953,-0.2773879 0.206429,0 0.322544,0.1548207 V 3.2260373 H 14.2064 v 0.9547292 l 0.283837,0.012901 q 0.154822,0.064509 -0.129017,0.2322313 0.180624,0.1806254 0.07096,0.419307 -0.109664,0.2386826 -0.187075,0.2451338 -0.0774,0.00646 -0.03871,-0.00646 V 17.972735 H 13.858053 V 5.0580859 l -0.180626,-0.012903 q -1.174059,0.890221 -1.832048,1.1224524 -0.7354,0.038705 -1.625619,0.051607 -0.2322316,0.7999088 -0.4193076,1.2966256 -0.1870757,0.4967169 -0.2773871,0.9998859 0.1677221,0.3225436 0.090311,0.7999088 0.1806245,0.3612479 0.1935268,0.9418284 0.051607,2.696464 0.2064279,3.160928 l -0.1806248,-0.0258 q -0.038705,0.541875 0.2128798,0.935376 0.251584,0.393504 0.187075,2.032026 -0.06451,0.412855 0.02581,0.7354 0.399954,0.903122 -0.3741525,0.728948 -0.7741035,-0.174173 -1.1740588,0.04516 H 7.6136058 q 0,-0.361248 0.2128786,-0.361248 0.2128796,0 0.7031453,-0.09032 Q 9.4714574,17.018007 9.5359668,16.463232 9.4972614,15.86975 9.0069947,14.23123 8.7618609,14.011899 8.7231558,13.560338 8.5683351,13.418419 8.5683351,13.392615 H 7.871641 q -0.2967406,0.657988 -0.1999772,1.161156 0.096763,0.503169 -0.7676546,2.051379 -0.2064273,0.490266 -0.1290166,1.122452 -0.3225445,0.270936 -0.7612033,0.116115 -0.4386597,-0.15482 -0.754752,-0.03225 -0.3160934,0.122567 -0.6902439,0.122567 -0.6063818,0 -0.5676774,-0.06451 0,-0.361248 0.3935041,-0.393504 0.3935031,-0.03224 0.8321628,-0.17417 0.4386589,-0.141918 0.5934804,-0.283839 0.1548206,-0.141919 0.3096421,-0.464461 0.2967397,-0.799911 0.4386589,-1.593367 0.1419191,-0.793459 0.1032136,-1.012788 -0.038705,-0.219327 0.1548217,-0.554774 H 6.6717779 q 0.7612033,-3.4834734 0.7870074,-3.9285832 0.025803,-0.445111 0.025803,-0.8966711 0,-0.4644627 -0.3225444,-1.3482324 Q 6.8395009,6.3353587 6.8007956,6.2063412 L 6.1815123,6.1289304 v 0.012901 Q 5.3557997,6.1676357 4.5687934,6.1676357 3.9108048,5.9225028 2.8141554,5.0967902 L 2.5174156,5.0838888 V 17.972735 H 2.1690682 Z M 7.6910165,10.012357 Q 8.065167,11.663779 9.1489148,13.05717 H 9.6262781 L 9.5746722,10.347802 Q 9.6004751,9.7285185 9.3940477,9.4575809 Z M 6.9814201,13.05717 h 1.922361 Q 7.8458371,11.625074 7.5361949,10.154276 Z"
     id="path1" />
  <circle
     style="fill:none;stroke:#000000;stroke-width:0.2;stroke-dasharray:none"
     id="path2"
     cx="8.0450897"
     cy="1.5269009"
     r="1.4269009" />
</svg>
