<?xml version="1.0" encoding="UTF-8" standalone="no"?>
<svg
   width="20.560665"
   height="17.972734"
   version="1.1"
   id="svg1"
   sodipodi:docname="137F1.svg"
   inkscape:version="1.4.2 (f4327f4, 2025-05-13)"
   xmlns:inkscape="http://www.inkscape.org/namespaces/inkscape"
   xmlns:sodipodi="http://sodipodi.sourceforge.net/DTD/sodipodi-0.dtd"
   xmlns="http://www.w3.org/2000/svg"
   xmlns:svg="http://www.w3.org/2000/svg">
  <defs
     id="defs1" />
  <sodipodi:namedview
     id="namedview1"
     pagecolor="#ffffff"
     bordercolor="#666666"
     borderopacity="1.0"
     inkscape:showpageshadow="2"
     inkscape:pageopacity="0.0"
     inkscape:pagecheckerboard="0"
     inkscape:deskcolor="#d1d1d1"
     inkscape:zoom="32"
     inkscape:cx="3.484375"
     inkscape:cy="8.171875"
     inkscape:window-width="1680"
     inkscape:window-height="998"
     inkscape:window-x="-8"
     inkscape:window-y="-8"
     inkscape:window-maximized="1"
     inkscape:current-layer="svg1"
     showguides="true">
    <sodipodi:guide
       position="19.775387,3.5508555"
       orientation="1,0"
       id="guide1"
       inkscape:locked="false" />
    <sodipodi:guide
       position="19.11523,8.7696051"
       orientation="1,0"
       id="guide2"
       inkscape:locked="false" />
  </sodipodi:namedview>
  <path
     style="fill:#000000;stroke:none"
     d="M 3.5878906,0 C 1.7198206,0 0.78515625,0.86260331 0.78515625,2.5878906 H 0.01757813 L 0.78515625,3.3027344 V 3.640625 H 0.01757813 L 0.78515625,4.4082031 V 4.7480469 H 0.01757813 L 0.78515625,5.4785156 V 5.8183594 H 0 L 0.78515625,6.5332031 V 6.8535156 L 0.01757813,6.8710938 0.78515625,7.5683594 V 7.90625 h -0.75 L 0.625,8.5800781 C 0.631507,8.8388502 0.6596095,9.0117325 0.7109375,9.1015625 H 0.01757813 L 0.78515625,9.8164062 V 10.15625 H 0.01757813 l 0.76757812,0.767578 v 0.337891 H 0.01757813 l 0.76757812,0.732422 v 0.33789 H 0 l 0.78515625,0.714844 v 0.320313 H 0.01757813 l 0.76757812,0.714843 v 0.339844 h -0.75 l 0.75,0.855469 h 3e-8 l 0.66215842,0.309732 -0.002,-6.4816072 c 0.169735,-0.060238 0.2602009,-0.0967 0.2714844,-0.1074219 H 1.71875 C 2.551175,9.7564541 3.6785116,10.113906 5.1035156,10.066406 6.4956436,9.2930025 7.3184901,8.7659441 7.5683594,8.4863281 7.8182287,8.2067121 8.0039715,8.263598 8.1289062,8.65625 c 0.224563,0.7057675 0.4072915,1.3419718 1.0625,3.908203 C 8.001553,11.529281 6.75332,10.949959 5.4433594,10.886719 5.0273951,10.866638 4.7614735,11.10095 4.6484375,11.529297 c -0.113036,0.428347 -0.09786,2.034105 0.044922,4.818359 v 0.01953 c 0,0.226071 -0.1743839,0.385278 -0.5253906,0.480468 C 3.816962,16.942846 3.348653,17.098327 2.765625,17.3125 H 2.4804688 c -0.2498695,0 -0.2612286,0.214231 -0.035156,0.642578 h 3.3378906 c 0.1585933,-0.12335 0.2058092,-0.348227 0.1425781,-0.673828 0.1589933,0.318319 0.4696726,0.541188 0.75,0.691406 H 7.6035156 C 8.5078043,17.603802 9.7628409,16.81326 11.369141,15.599609 l -0.125,1.660157 c -0.475941,0 -0.714844,0.08147 -0.714844,0.248046 v 0.447266 h 1.517578 l 0.482422,-2.765625 c 0,-0.666318 -0.286293,-0.93557 -0.857422,-0.804687 0.547334,-0.72581 0.577688,-1.563742 0.08984,-2.515625 0.234591,-1.9407075 0.382587,-2.816204 0.507812,-3.275391 0.05354,-0.196326 0.197667,-0.1925135 0.429688,0.00977 0.232021,0.202276 0.959998,0.7368776 2.185547,1.605468 1.177955,-0.0238 2.438669,-0.4105482 3.783203,-1.1601555 l 0.447265,0.1542969 0,6.3867146 0.660157,0.515629 0,-0.828125 0.75,-0.855469 h -0.75 v -0.339844 l 0.767578,-0.714843 h -0.767578 v -0.320313 l 0.785156,-0.714844 h -0.785156 v -0.33789 l 0.767578,-0.732422 H 19.775391 V 10.923828 L 20.542969,10.15625 H 19.775391 V 9.8164062 L 20.542969,9.1015625 H 19.775391 V 8.7636719 l 0.75,-0.8574219 h -0.75 V 7.5683594 L 20.542969,6.8710938 19.775391,6.8535156 V 6.5332031 L 20.560547,5.8183594 H 19.775391 V 5.4785156 L 20.542969,4.7480469 H 19.775391 V 4.4082031 L 20.542969,3.640625 H 19.775391 V 3.3027344 L 20.542969,2.5878906 H 19.775391 C 19.775391,0.86260332 18.840726,0 16.972656,0 v 0.4453125 c 1.427825,0 2.142578,0.7261137 2.142578,2.1777344 v 5.4257812 h -0.03516 c -0.32126,0.1308847 -0.577201,0.339436 -0.767578,0.625 -0.618723,0.214174 -1.149599,0.3222656 -1.589844,0.3222657 -0.440245,0 -0.963486,0.04171 -1.570312,0.125 C 14.319451,8.5856597 13.545943,7.9372873 12.832031,7.1757812 12.629756,6.8188246 12.076164,6.6386719 11.171875,6.6386719 V 6.3535156 C 11.377881,6.2684469 11.61293,6.0776793 11.761719,5.8163012 12.219833,5.0115331 12.288662,4.4171023 12.056641,3.828125 11.801559,3.1806094 11.484034,2.5773044 9.7441406,2.6601562 9.2444019,2.6839536 8.882322,2.9986434 8.65625,3.6054688 8.57296,3.9624239 8.426974,4.2884742 8.21875,4.5859375 8.0105253,4.8834015 8.0674112,5.0332031 8.3886719,5.0332031 8.3172806,5.1402898 8.32296,5.1990395 8.40625,5.2109375 8.334859,5.2704305 8.329179,5.3216366 8.388672,5.3632812 c 0.059493,0.041645 0.072219,0.1397953 0.070312,0.2949219 -0.00195,0.1584511 0.2120722,0.2408071 0.4648437,0.25 H 9.28125 c 0.142782,0.1189853 0.2205232,0.3616148 0.2324219,0.7304688 -1.0470707,0 -1.6784042,0.2028712 -1.8925781,0.6074219 C 6.8119936,7.7934256 5.95507,8.4247592 5.0507812,9.1386719 4.2892753,9.0553819 3.6826128,8.9890004 3.2304688,8.9414062 2.778324,8.8938122 2.3915725,8.7876736 2.0703125,8.6210938 1.9028611,8.3846926 1.6943063,8.2042735 1.4453125,8.0820312 V 2.6230469 c 0,-1.4516207 0.7147541,-2.1777344 2.1425781,-2.1777344 z m 6.4335934,2.9589844 c 0.325251,-0.012046 1.292266,0.036514 1.712891,0.9863281 0.18443,0.4164487 0.152214,0.8922989 -0.09766,1.4277344 -0.249872,0.5354325 -0.486818,0.7193144 -0.712891,0.5527343 -0.226072,-0.1665786 -0.339844,-0.3751305 -0.339844,-0.625 0.226072,-0.356956 0.366382,-0.6242556 0.419922,-0.8027343 0.08075,-0.2691695 0.0673,-0.6932326 -0.330078,-0.75 -0.166579,-0.023797 -0.3391,0.023593 -0.517578,0.1425781 C 9.882584,3.747843 9.5432219,3.6170322 9.1386719,3.4980469 9.2316893,3.0701616 9.6851691,2.97144 10.021484,2.9589844 Z M 8.8710938,3.765625 c 0.4164478,0.071391 0.856629,0.2329117 1.2968752,0.4589843 0.120329,-0.12608 0.222863,-0.1933739 0.359373,-0.2031248 0.105858,-0.00757 0.228174,0.1334228 0.154298,0.3867188 -0.04165,0.142782 -0.21035,0.404403 -0.507813,0.7851563 0.09519,0.5711293 0.309419,0.9161709 0.642578,1.0351562 v 0.4101563 c 0,0.142783 -0.166842,0.2148437 -0.5,0.2148437 -0.297464,0 -0.4472658,-0.072061 -0.4472658,-0.2148437 0,-0.4283467 -0.1061392,-0.7487174 -0.3203125,-0.9628907 -0.160897,0.028408 -0.3332075,0.015454 -0.6425688,0.027353 -0.202276,0.011898 -0.2913751,-0.057156 -0.2675781,-0.1523438 0.023797,-0.095189 0.012438,-0.1729298 -0.035156,-0.2324218 0.2007883,0.00669 0.3204722,-0.00623 0.359375,-0.039063 9.557e-4,-9.427e-4 0.00503,-0.00489 0.00586,-0.00586 0.00141,-0.00201 0.00495,-0.00764 0.00586,-0.00977 6.623e-4,-0.00219 0.00179,-0.00745 0.00195,-0.00977 C 8.9757363,5.2313695 8.9521708,5.1995732 8.90625,5.1660156 8.751568,5.0529796 8.6434764,5.0207654 8.5839844,5.0683594 8.6196797,4.9136784 8.5305796,4.8302584 8.3164062,4.8183594 8.566275,4.4257074 8.7521077,4.0749863 8.8710938,3.765625 Z m 0.2285156,0.1855469 c -0.093701,0.00149 -0.1993738,0.017129 -0.3183594,0.046875 v 0.1601562 c 0.2379713,-0.071391 0.4332099,-0.07707 0.5878906,-0.017578 0.1546813,0.059493 0.3632327,0.1012027 0.625,0.125 L 9.90625,4.1933594 C 9.6682793,4.1100694 9.4805833,4.0418244 9.34375,3.9882812 9.2753336,3.9615077 9.1933104,3.9496851 9.0996094,3.9511719 Z m -0.00977,0.2382812 c -0.1398079,-0.00297 -0.237472,0.0473 -0.2910157,0.1484375 L 8.6386719,4.4433594 V 4.515625 L 8.78125,4.5332031 c 0.1903767,0.130884 0.482348,0.108165 0.875,-0.070312 H 9.9941406 V 4.3554688 H 9.6386719 C 9.4125999,4.2483821 9.2296516,4.1924278 9.0898438,4.1894531 Z M 9.0136719,4.3007812 C 8.9660779,4.3721723 8.971757,4.4385549 9.03125,4.4980469 8.959859,4.4861489 8.8934771,4.4671564 8.8339844,4.4433594 8.8577814,4.3957654 8.9184833,4.3483759 9.0136719,4.3007812 Z m 0.2324219,0 0.2851562,0.1074219 c -0.1070867,0.047594 -0.2018664,0.077946 -0.2851562,0.089844 0.071391,-0.059492 0.071391,-0.1258744 0,-0.1972659 z m 0.1953124,2.625 c 0.2855648,0.190377 0.5718568,0.2851563 0.8574218,0.2851563 0.297463,0 0.581802,-0.09478 0.855469,-0.2851563 l 0.947265,0.1425782 c 0.148995,0.022426 -0.0091,0.5469112 -0.107421,0.8027344 -0.294315,0.7652216 -0.497044,2.3658262 -0.660157,4.0332032 L 9.6015625,12.421875 C 9.3397945,11.3986 9.1312432,10.608059 8.9765625,10.048828 8.8218812,9.4895975 8.6569936,8.7331327 8.4785156,7.78125 c -0.081162,-0.4328614 -0.1593858,-0.6892899 0,-0.7128906 z M 5.5175781,11.310547 c 0.033967,-3.35e-4 0.06793,0.0021 0.1035157,0.0059 1.2741464,0.133533 2.433398,0.719094 3.4804687,1.730469 -0.4283473,0.333159 -0.8150989,0.647849 -1.1601563,0.945313 L 6.3359375,12.386719 C 6.0384742,12.20824 5.9019842,12.285982 5.9257812,12.619141 c 0.035696,0.511637 -0.036366,1.156193 -0.2148437,1.935547 -0.178478,0.779353 -0.2675781,1.562352 -0.2675781,2.347656 0.130884,0.440245 0.1138445,0.701866 -0.052734,0.785156 h -2.75 v -0.125 c 0.356956,-0.0119 0.6262095,-0.05743 0.8046875,-0.134766 0.178478,-0.07734 0.6353376,-0.210013 1.3730469,-0.40039 0.118985,-0.0238 0.1796875,-0.215309 0.1796875,-0.572266 -0.059493,-2.415402 -0.052952,-4.005505 0.052734,-4.765625 0.037495,-0.269667 0.229025,-0.376565 0.4667968,-0.378906 z m 6.0839839,1.076172 c 0.297464,0.868592 0.195052,1.54918 -0.304687,2.042969 -0.499738,0.493788 -1.132936,0.753543 -1.9003906,0.777343 -0.7674553,0.0238 -1.4954316,0.45794 -2.1855469,1.302735 -0.059493,0.273667 0.1092118,0.218643 0.5078125,-0.16211 0.3986013,-0.380753 0.9730491,-0.655596 1.7226562,-0.828125 0.7496078,-0.172528 1.2519948,-0.343185 1.5078128,-0.509765 0.255819,-0.166579 0.53048,-0.302735 0.830078,-0.302735 0.252405,0 0.363644,0.196857 0.339844,0.482422 L 11.761719,17.6875 h -0.982422 v -0.107422 l 0.785156,-0.08984 0.179688,-1.605468 c 0,-0.618724 -0.297651,-0.726816 -0.892579,-0.322266 -1.4397217,0.975679 -2.5525874,1.648723 -3.3378901,2.017578 -0.5235353,0.05949 -0.898928,-0.01825 -1.125,-0.232422 -0.2260727,-0.214174 -0.2317523,-0.564895 -0.017578,-1.052734 0.5949265,-0.939985 1.4082771,-1.812084 2.4375,-2.615234 1.0292232,-0.803151 1.9600711,-1.233479 2.7929681,-1.292969 z m -5.2656245,0.570312 1.3027344,1.302735 c -0.535434,0.475941 -0.999927,0.993503 -1.3925781,1.552734 -0.2486057,0.368899 -0.3918814,0.672934 -0.4296876,0.912109 6.511e-4,-0.712577 0.073818,-1.342662 0.2167969,-1.892578 0.1546807,-0.594927 0.2551404,-1.22058 0.3027344,-1.875 z"
     id="path1"
     sodipodi:nodetypes="cccccccccccccccccccccccccccccccccccccccccccsscsscsscscccccccscccccsccccccccccccccccccccccccccccccccccccccccccccscccsccccssscsccsccccccsccsccscssccsccsccccccsssccscccccsccccccsccscsccccccccsscccccccccscscccssscscccccscccccccsscsscssssccccccccscsccccccsc" />
  <path
     style="fill:#000000;stroke:none"
     d="m 1.2382814,14.855413 c -0.016412,6.9e-4 -0.064294,0.01079 -0.070312,0.01172 -0.013966,0.0022 -0.026984,0.0042 -0.041016,0.0059 -0.1142022,0.02862 -0.012077,7.74e-4 -0.1191406,0.0293 -0.00835,0.0022 -0.0353849,0.0078 -0.0468749,0.01367 -0.01166,0.006 -0.021543,0.01548 -0.033203,0.02149 -0.01294,0.0067 -0.027796,0.01148 -0.041016,0.01758 -0.052207,0.01936 -0.10747,0.03282 -0.15625,0.06055 -0.038556,0.02191 -0.073692,0.04982 -0.1054688,0.08008 l 0.1601562,0.181641 v 0.808593 c -0.1003909,0.04948 -0.204903,0.09671 -0.3203124,0.138672 -0.52405615,0.190567 -0.85902848,0.430853 -1.00195318,0.722656 -0.142924,0.291807 -0.17126329,0.5359 -0.0878906,0.732422 0.083372,0.196518 0.18744067,0.291157 0.3125,0.285157 0.12505867,-0.0059 0.35401,-0.0078 0.6875,-0.0078 H 1.4101562 c -0.047641,-0.04765 -0.1478996,-0.07793 -0.3027343,-0.08984 0.2382073,-0.08338 0.3800933,-0.142004 0.4277343,-0.177734 0.018145,-0.0121 0.036418,-0.01756 0.048828,-0.01758 9.094e-4,7.6e-5 0.005,-1.54e-4 0.00586,0 l 0.00195,0.002 h 0.00195 c 0.0041,0.003 0.010765,0.01103 0.013672,0.01563 0.011911,0.02381 -0.00509,0.0503 -0.052734,0.08008 -0.047642,0.02978 -0.081744,0.06193 -0.099609,0.09766 -0.017868,0.03573 -0.014063,0.06602 0.00977,0.08984 h 0.972657 c 0.003,0.0059 0.00667,0.01156 0.00977,0.01758 h 0.1484375 c -0.00654,-0.01654 -0.01313,-0.03379 -0.017578,-0.05078 -0.012492,-0.0318 -0.026139,-0.06102 -0.041016,-0.0918 -0.00566,-0.01171 -0.012078,-0.02337 -0.017578,-0.03516 -0.00197,-0.0042 -0.00439,-0.0093 -0.00586,-0.01367 l -0.00195,-0.002 v -0.002 c -4.034e-4,-0.0056 -1.87e-5,-0.012 0,-0.01758 v -0.002 c 9.51e-5,-0.0093 0.0015,-0.018 0.00195,-0.02734 -0.00187,0.0061 -0.00463,0.012 -0.00586,0.01953 -0.006,-0.0079 -0.013141,-0.01397 -0.019531,-0.02148 -0.00857,-0.01014 -0.016681,-0.02123 -0.025391,-0.03125 -0.005,-0.0067 -0.010845,-0.01273 -0.015625,-0.01953 l -0.00195,-0.002 v -0.002 -0.002 h -0.00195 c -0.00203,-0.0031 -0.00397,-0.0066 -0.00586,-0.0098 v -0.002 c -0.00181,-0.0012 -0.00401,-0.0028 -0.00586,-0.0039 -0.00746,-0.004 -0.010472,-0.0093 -0.015625,-0.01367 v -0.002 h -0.00195 l -0.00195,-0.002 h -0.00195 c -0.00119,-6.64e-4 -0.0039,-0.0031 -0.00586,-0.0039 l -0.00195,-0.002 c -8.877e-4,-2.74e-4 -0.0049,-0.0017 -0.00586,-0.002 -0.00106,-3.5e-4 -0.00468,-0.0014 -0.00586,-0.002 -0.069018,-0.05404 -0.065203,0.03409 -0.074188,0.03879 -0.074851,-0.02121 -0.1234281,-0.0447 -0.1464843,-0.07031 -0.053597,-0.05955 -0.085745,-0.131474 -0.097656,-0.214844 -0.01191,-0.08337 0.044863,-0.168482 0.1699219,-0.257812 0.1250587,-0.08933 0.229127,-0.221831 0.3125,-0.394531 0.083373,-0.1727 0.125,-0.278623 0.125,-0.320313 0,-0.04169 0.022671,-0.08146 0.070312,-0.117187 0.047641,-0.03573 0.09689,-0.109509 0.1445312,-0.222657 0.047641,-0.113148 0.04002,-0.236174 -0.019531,-0.367187 l 0.037109,-0.03516 c -0.071463,-0.202475 -0.1698632,-0.317875 -0.2949219,-0.347657 -0.1250587,-0.02974 -0.2347951,-0.03351 -0.3300781,-0.0098 -0.1429247,-0.08337 -0.2924312,-0.106049 -0.4472656,-0.07031 -0.1548347,0.03573 -0.2437572,0.09437 -0.2675782,0.177735 -0.036438,0.05871 -0.079616,0.113734 -0.125,0.167969 V 14.85856 c -0.025621,0.0017 -0.051561,0.0022 -0.078125,0.002 -0.022635,-2.08e-4 -0.045726,3.55e-4 -0.068359,0 -0.016807,-7e-4 -0.033988,-9.06e-4 -0.050781,-0.002 h -0.00195 c -4.693e-4,-2.09e-4 -0.00266,-0.003 -0.00391,-0.0039 h -0.00195 -0.00195 z m 0.6464844,0.634765 c 0.055302,7.27e-4 0.1288625,0.02537 0.2226563,0.07227 0.178656,-0.02382 0.3016805,-0.01815 0.3671875,0.01758 0.065507,0.03573 0.071175,0.09817 0.017578,0.1875 -0.053596,0.08933 -0.1293264,0.176396 -0.2246095,0.259766 -0.00307,0.0092 -0.00333,0.0203 -0.00195,0.02734 v 0.002 l 0.00195,0.002 v 0.002 l 0.00195,0.002 v 0.002 l 0.00195,0.002 0.00195,0.002 0.00195,0.002 c 0.00976,0.0069 0.026032,0.0098 0.046875,0.0098 0.1071933,-0.07146 0.2017843,-0.177388 0.2851563,-0.320313 0.035728,0.04764 0.039534,0.119564 0.00977,0.214844 -0.029776,0.09528 -0.069546,0.165251 -0.1171875,0.212891 -0.047641,0.04764 -0.079791,0.09874 -0.097656,0.152344 -0.017865,0.0536 -0.063303,0.155807 -0.1347657,0.304687 -0.071462,0.148879 -0.1509064,0.264286 -0.2402343,0.347656 -0.089327,0.08338 -0.151769,0.142005 -0.1875,0.177735 -0.035731,0.03573 -0.054687,0.09065 -0.054688,0.162109 0,0.07146 0.018957,0.164195 0.054688,0.277344 0.035731,0.11315 0.062213,0.177442 0.080078,0.195312 l 0.00195,0.002 v 0.002 l 0.00195,0.002 v 0.002 0.002 0.002 l -0.00195,0.002 -0.00195,0.002 c -0.013958,0.007 -0.051592,0.01172 -0.1074219,0.01172 -0.039081,0 -0.064447,-0.0033 -0.076172,-0.0078 h -0.00194 l -0.00195,-0.002 h -0.00195 v -0.002 l -0.00195,-0.002 v -0.002 h 0.00195 v -0.002 -0.002 l 0.00195,-0.002 0.00195,-0.002 c 0.00573,-0.0036 0.015341,-0.0073 0.025391,-0.01172 l 0.00195,-0.002 c 0.00315,-0.0019 0.0078,-0.0044 0.00977,-0.0059 0.032724,-0.03392 -0.010175,-0.128184 -0.1289063,-0.279297 -0.131014,-0.166744 -0.1480181,-0.386219 -0.052734,-0.660156 -0.1191041,0.07146 -0.1796876,0.213349 -0.1796876,0.427735 -0.01191,0.166745 -0.1121683,0.27081 -0.3027343,0.3125 -0.19056595,0.04166 -0.32111625,0.05683 -0.39257805,0.04492 0.047644,-0.142921 0.043839,-0.258326 -0.00977,-0.347656 -0.053597,-0.08932 -0.1425194,-0.149907 -0.2675781,-0.179687 -0.12505867,-0.02978 -0.24808417,-0.0676 -0.3671875,-0.115235 0.0952827,0.09528 0.19368382,0.172872 0.2949219,0.232422 0.101238,0.05955 0.1618225,0.116322 0.1796875,0.169922 0.017866,0.0536 0.012198,0.112225 -0.017578,0.177734 -0.029776,0.0655 -0.1168417,0.09199 -0.25976568,0.08008 -0.14292466,-0.01187 -0.2867635,-0.01758 -0.4296875,-0.01758 -0.0491306,-0.0164 -0.0814416,-0.01866 -0.0996094,-0.0098 h -0.001953 l -0.001951,0.0017 h -0.001953 l -0.001953,0.002 -0.001953,0.002 v 0.002 l -0.001953,0.002 -0.001953,0.002 v 0.002 c -2.5007e-4,8.78e-4 -0.001767,0.0049 -0.001953,0.0059 v 0.002 0.002 0.002 0.002 c 5.816e-5,4.3e-4 3.853e-5,0.0046 0,0.0059 v 0.002 l 0.001953,0.002 c 0.0100492,0.01898 0.0421066,0.03599 0.0957031,0.04492 0.0532244,0.01451 0.0886218,0.0275 0.10351562,0.03906 v 0.002 l 0.001953,0.002 0.001953,0.002 h 0.001953 v 0.002 h 0.001953 v 0.002 0.0039 0.002 0.002 l -0.001953,0.0039 c -6.6879e-4,7.5e-4 -0.003011,0.0032 -0.003906,0.0039 -0.0101017,0.0064 -0.0320737,0.0145 -0.0605469,0.01953 -0.10123801,0.01786 -0.16367931,0.0122 -0.1875,-0.01758 -0.0238207,-0.02978 -0.044634,-0.06955 -0.0625,-0.117187 -0.017865,-0.04764 -0.0216755,-0.08165 -0.009766,-0.105469 l 0.001953,-0.0039 v -0.002 h 0.001953 v -0.002 l 0.001953,-0.002 c 0.0297652,-0.01723 0.13152458,-0.02218 0.29882813,-0.01172 0.190566,0.01191 0.30978059,-0.0013 0.35742187,-0.04297 0.008933,-0.0078 0.0158325,-0.01667 0.0195313,-0.02344 v -0.002 -0.002 l 0.001953,-0.002 v -0.002 -0.002 -0.002 l 0.001953,-0.002 v -0.002 -0.002 c -2.5587e-4,-9.53e-4 -0.001552,-0.0049 -0.001953,-0.0059 l -0.001953,-0.002 -0.001953,-0.002 -0.001953,-0.002 v -0.002 c -0.0147426,-0.01213 -0.0482478,-0.02371 -0.0957031,-0.0293 -0.101238,-0.01194 -0.19778138,-0.0081 -0.28710938,0.0098 -0.0893273,0.01787 -0.19339599,0.0027 -0.3125,-0.04492 0.071462,-0.190566 0.17934096,-0.357075 0.32226563,-0.5 0.142924,-0.142924 0.28676279,-0.24699 0.42968755,-0.3125 0.142924,-0.06551 0.3056236,-0.137423 0.4902343,-0.214843 0.18461065,-0.07742 0.47414545,-0.295035 0.86718745,-0.652344 0.023821,-0.08338 0.061637,-0.142004 0.1152344,-0.177735 0.013399,-0.0089 0.029846,-0.01534 0.048828,-0.01758 0.00712,-8.37e-4 0.015537,-0.0021 0.023437,-0.002 z m 0.019531,0.02539 c -0.020664,0.003 -0.041004,0.01366 -0.064453,0.0293 -0.083372,0.03573 -0.107996,0.0887 -0.072266,0.160156 0.047641,0.07147 0.1138925,0.09042 0.1972657,0.05469 0.071462,-0.03573 0.088465,-0.09632 0.052734,-0.179687 -0.029776,-0.04466 -0.064435,-0.06631 -0.1035157,-0.06445 -0.0022,1.03e-4 -0.00729,-2.7e-5 -0.00977,0 z"
     id="path7"
     sodipodi:nodetypes="ccccccccccccsscsccccccccsscccccscccccccccccccccccccccccccccccssssssccccccccccccccccccsscccccccccccccssscssscccccccccscccccccccccccccscccccscssccccccccccccccccccccccccccccccccccccssscccccccccccccccccccccccccsssccccccccccscc" />
  <path
     style="fill:#000000;stroke:none"
     d="m 19.11523,15.589844 c -0.03889,-0.04946 -0.07619,-0.101012 -0.107421,-0.154297 -0.03573,-0.09529 -0.126512,-0.157719 -0.275391,-0.1875 -0.14888,-0.02978 -0.296529,-0.0033 -0.439453,0.08008 -0.09528,-0.02382 -0.206878,-0.02382 -0.337891,0 -0.131015,0.02382 -0.233227,0.13737 -0.304687,0.339844 l 0.05469,0.05273 c -0.07146,0.119103 -0.08475,0.236464 -0.03711,0.349609 0.04764,0.113149 0.09874,0.186927 0.152344,0.222657 0.05359,0.03573 0.08008,0.0755 0.08008,0.117187 0,0.04169 0.04163,0.151423 0.125,0.330078 0.08337,0.178657 0.18744,0.30921 0.3125,0.392578 0.125062,0.08337 0.181832,0.170435 0.169922,0.259766 -0.01191,0.08933 -0.04406,0.161245 -0.09766,0.214844 -0.0536,0.0536 -0.254208,0.102752 -0.599609,0.15039 -0.03573,0 -0.0887,0.02463 -0.160156,0.07227 -0.07146,0.04764 -0.107422,0.09494 -0.107422,0.142578 h 0.162109 1.392578 c 0.02379,-0.03573 0.02754,-0.07169 0.0098,-0.107422 -0.01787,-0.03573 -0.05197,-0.06602 -0.09961,-0.08984 -0.02346,-0.01172 -0.03948,-0.02539 -0.04688,-0.03711 l -0.002,-0.002 -0.002,-0.002 v -0.002 -0.002 -0.002 -0.002 -0.002 -0.002 -0.002 c 7.5e-4,-0.0034 0.002,-0.0097 0.0039,-0.01367 l 0.002,-0.002 c 0.01787,-0.02382 0.0463,-0.02382 0.08203,0 0.04764,0.03573 0.183859,0.0887 0.410156,0.160156 -0.154835,0.01191 -0.257047,0.04787 -0.304687,0.107422 h 1.322265 0.419922 c 0.125058,0 0.22913,-0.0984 0.3125,-0.294922 0.08337,-0.196522 0.05122,-0.440618 -0.09766,-0.732422 -0.148879,-0.291802 -0.485711,-0.530232 -1.009766,-0.714843 -0.109178,-0.03846 -0.227015,-0.07909 -0.322236,-0.124534 v -0.828125 c -0.338648,0.05918 -0.655808,-1.670907 -0.660157,0.312496 z m -0.42964,-0.09961 c 0.03433,-0.0017 0.06193,0.0042 0.08203,0.01758 0.0536,0.03573 0.08575,0.09436 0.09766,0.177735 0.393042,0.357309 0.682578,0.578739 0.867188,0.662109 0.184611,0.08337 0.34731,0.153341 0.490234,0.212891 0.142925,0.05955 0.288621,0.165573 0.4375,0.314453 0.14888,0.148879 0.25295,0.317246 0.3125,0.507812 -0.107193,0.0357 -0.207454,0.04521 -0.302734,0.02734 -0.09528,-0.01787 -0.193684,-0.01787 -0.294922,0 -0.04449,0.0079 -0.07715,0.02073 -0.0918,0.0332 -7.44e-4,9.31e-4 -0.0033,0.0049 -0.0039,0.0059 -4.42e-4,9.77e-4 -0.0017,0.0049 -0.002,0.0059 v 0.002 l -0.002,0.002 v 0.002 c 2.44e-4,0.0016 0.0013,0.0072 0.002,0.0098 v 0.002 l 0.002,0.002 c 0.0046,0.007 0.01339,0.01757 0.02344,0.02539 0.0536,0.04173 0.172813,0.05303 0.357422,0.03516 0.161535,-0.01566 0.257799,-0.01628 0.28711,0 l 0.002,0.002 h 0.002 v 0.002 h 0.002 v 0.002 h 0.002 v 0.002 0.002 c 0.01191,0.02382 0.01191,0.05783 0,0.105469 -0.01191,0.04764 -0.04406,0.08927 -0.09766,0.125 -0.0536,0.03573 -0.131184,0.05469 -0.232422,0.05469 -0.02215,0 -0.03674,-0.0024 -0.04492,-0.0059 h -0.0021 l -0.002,-0.002 h -0.002 v -0.002 h -0.002 v -0.002 -0.002 -0.002 l 0.002,-0.002 v -0.002 l 0.002,-0.002 c 0.01888,-0.0178 0.08236,-0.04798 0.183594,-0.08594 0.03629,-0.01451 0.06232,-0.03223 0.07422,-0.04687 0.0012,-0.0019 0.0029,-0.0058 0.0039,-0.0078 l 0.002,-0.002 v -0.002 -0.002 -0.002 -0.002 -0.002 c -6.2e-5,-3.72e-4 -3.9e-5,-0.0046 0,-0.0059 v -0.002 l -0.002,-0.002 v -0.002 l -0.002,-0.002 -0.002,-0.002 -0.002,-0.002 h -0.002 c -0.01675,-0.01117 -0.05383,-0.01467 -0.107422,-0.0059 -0.142925,0.01191 -0.282953,0.0252 -0.419922,0.03711 -0.136968,0.01191 -0.22022,-0.01838 -0.25,-0.08984 -0.02978,-0.07146 -0.03545,-0.1339 -0.01758,-0.1875 0.01787,-0.0536 0.07845,-0.110372 0.179688,-0.169922 0.101211,-0.05954 0.199666,-0.131502 0.294922,-0.214844 -0.11908,0.03572 -0.242155,0.06788 -0.367188,0.09766 -0.125059,0.02978 -0.213978,0.09036 -0.267578,0.179687 -0.0536,0.08933 -0.06307,0.204732 -0.02734,0.347656 -0.07146,0.02382 -0.202012,0.01248 -0.392578,-0.03516 -0.190565,-0.04764 -0.292777,-0.15552 -0.304687,-0.322265 0.01191,-0.202477 -0.04105,-0.344365 -0.160157,-0.427735 0.08337,0.285848 0.06256,0.509133 -0.0625,0.669922 -0.125059,0.160791 -0.16669,0.255376 -0.125,0.285156 0.0078,0.0056 0.01416,0.01106 0.01758,0.01563 l 0.002,0.002 v 0.002 l 0.002,0.002 v 0.002 0.002 0.002 l -0.002,0.002 v 0.002 l -0.002,0.002 h -0.002 l -0.002,0.002 c -0.01254,0.0057 -0.0397,0.0098 -0.07617,0.0098 -0.07328,0 -0.122512,-0.0065 -0.140625,-0.01563 v -0.002 h -0.002 l -0.002,-0.002 -0.002,-0.002 v -0.002 l -0.002,-0.002 v -0.002 -0.002 h 0.002 v -0.002 -0.002 h 0.002 l 0.002,-0.002 c 0.0053,-0.0031 0.01618,-0.0075 0.02734,-0.0098 9.42e-4,-2.9e-4 0.0049,-0.0016 0.0059,-0.002 0.02799,-0.0145 0.06378,-0.07324 0.101563,-0.175781 0.04169,-0.113149 0.0625,-0.205884 0.0625,-0.277344 0,-0.07146 -0.02081,-0.128232 -0.0625,-0.169922 -0.04169,-0.04169 -0.107936,-0.10413 -0.197266,-0.1875 -0.08933,-0.08337 -0.170727,-0.198777 -0.242187,-0.347656 -0.07146,-0.14888 -0.11309,-0.251087 -0.125,-0.304687 -0.01191,-0.0536 -0.04406,-0.104704 -0.09766,-0.152344 -0.0536,-0.04764 -0.09522,-0.115748 -0.125,-0.205078 -0.02978,-0.08933 -0.0203,-0.157438 0.02734,-0.205078 0.07146,0.131014 0.166051,0.238895 0.285157,0.322265 0.0476,-0.01191 0.0666,-0.03654 0.05469,-0.07227 -0.09528,-0.08337 -0.172872,-0.16663 -0.232422,-0.25 -0.05956,-0.08337 -0.05388,-0.14581 0.01758,-0.1875 0.07146,-0.04169 0.190678,-0.05116 0.357422,-0.02734 0.09677,-0.04467 0.173244,-0.06752 0.230469,-0.07031 z m -0.0293,0.03516 c -0.04094,0.0028 -0.07142,0.02565 -0.09375,0.07031 -0.04764,0.07146 -0.03064,0.126383 0.05273,0.162109 0.08338,0.03573 0.143958,0.01677 0.179688,-0.05469 0.03573,-0.07146 0.01677,-0.124426 -0.05469,-0.160156 -0.03127,-0.0134 -0.05942,-0.01925 -0.08398,-0.01758 z"
     id="path11"
     sodipodi:nodetypes="ccscsccscssssscscccccccccccccccccccccssssccccccssscscccccccccccccccccccccsssccccccccccccccccccccccccccccccssssccscsccscccccccccccccsccccccccccccccccssssssssccccscccccssccc" />
  <path
     style="fill:#000000;stroke:none"
     d="M 10.495159,0 C 10.078296,0 9.8701594,0.31034883 9.8701594,0.9296875 v 0.5 h -0.322266 c -0.119105,0 -0.177734,0.077587 -0.177734,0.2324219 0,0.1667453 0.05863,0.2556681 0.177734,0.2675781 h 0.322266 v 0.7148437 c 0.1373746,0.4338017 0.5252416,0.2030849 0.5527716,0.021482 V 0.9296875 c 0,-0.25011733 0.05492,-0.375 0.16211,-0.375 0.107189,0 0.160156,0.12488267 0.160156,0.375 h 0.375 C 11.120159,0.31034883 10.912022,0 10.495159,0 Z"
     id="path14"
     sodipodi:nodetypes="sscssccccssccs" />
</svg>
