<?xml version="1.0" encoding="UTF-8" standalone="no"?>
<svg
   width="700"
   height="1000"
   version="1.1"
   id="svg1"
   sodipodi:docname="1383C.svg"
   inkscape:version="1.4.2 (f4327f4, 2025-05-13)"
   xmlns:inkscape="http://www.inkscape.org/namespaces/inkscape"
   xmlns:sodipodi="http://sodipodi.sourceforge.net/DTD/sodipodi-0.dtd"
   xmlns="http://www.w3.org/2000/svg"
   xmlns:svg="http://www.w3.org/2000/svg">
  <defs
     id="defs1" />
  <sodipodi:namedview
     id="namedview1"
     pagecolor="#ffffff"
     bordercolor="#666666"
     borderopacity="1.0"
     inkscape:showpageshadow="2"
     inkscape:pageopacity="0.0"
     inkscape:pagecheckerboard="0"
     inkscape:deskcolor="#d1d1d1"
     inkscape:zoom="0.3775"
     inkscape:cx="1026.4901"
     inkscape:cy="396.02649"
     inkscape:window-width="1680"
     inkscape:window-height="998"
     inkscape:window-x="-8"
     inkscape:window-y="-8"
     inkscape:window-maximized="1"
     inkscape:current-layer="svg1" />
  <path
     style="fill:#000000;stroke:none;stroke-width:55.6327"
     d="M 77.119634,561.47476 C 86.525006,545.0154 104.94383,536.39383 132.37612,535.61003 112.78163,512.8804 90.247945,506.41422 64.775079,516.21146 c -25.472866,9.79726 -31.93907,15.08777 -19.398614,15.87157 12.540533,0.78389 23.121589,10.58102 31.743169,29.39173 z m 347.998566,-208.0937 -22.33774,41.1485 c 44.67551,29.78366 93.26992,29.39176 145.78322,-1.17558 l -5.87844,-82.29697 c -21.94582,48.59441 -61.13479,62.70245 -117.56704,42.32416 z m 118.74278,75.24293 c -49.37818,28.9999 -99.93205,30.17558 -151.66157,3.52701 -18.81074,65.83754 -23.12154,198.29649 -12.93238,397.37674 H 339.29419 L 180.57861,603.799 c -22.72962,-33.70261 -45.85113,-42.71611 -69.36455,-27.04049 -23.513406,15.67562 -17.635054,50.35792 17.63506,104.0469 35.27012,53.68893 64.6619,138.14128 88.17535,253.35705 l -81.12129,32.9188 h 390.32276 l -35.27017,-18.81074 c 18.02699,-74.45916 31.15529,-159.8912 39.38497,-256.29624 8.2297,-96.40504 12.73645,-184.18845 13.52024,-263.35029 z M 366.3346,97.084842 c 13.32433,3.135128 26.25673,6.662118 38.79718,10.580998 12.54051,3.91893 19.59453,13.32429 21.16206,28.21612 h 2.35142 c 4.7027,-14.89183 13.7162,-22.33775 27.04049,-22.33775 18.81071,0.78382 28.21605,9.01348 28.21605,24.68906 0,9.40537 -2.74324,18.02697 -8.22973,25.8648 7.83781,23.51341 22.33779,42.32413 43.49985,56.43218 12.5405,-10.18913 30.95937,-23.70933 55.25654,-40.56062 24.29719,-16.85129 36.4458,-43.30388 36.4458,-79.35779 0,-36.053906 -13.91211,-58.195711 -41.73634,-66.425414 -27.82418,-8.229705 -62.11461,-12.344557 -102.87116,-12.344557 -41.54038,0 -74.85107,25.08099 -99.93211,75.242973 z m 29.39181,59.959178 c -14.10803,4.70268 -25.2769,7.05405 -33.50661,7.05405 -8.2297,0 -12.34456,-3.13512 -12.34456,-9.40537 0,-3.91893 0.7839,-6.8581 2.35143,-8.81756 1.56753,-1.95942 5.48644,-2.74324 11.75669,-2.35132 6.27028,0.39166 16.85131,4.89862 31.74311,13.52019 z m -49.37818,-37.62144 c -3.13511,18.81071 -12.93237,40.75656 -29.39178,65.83755 -1.56753,2.35132 -2.35143,4.70268 -2.35143,7.054 0,1.56756 3.91888,2.15543 11.75669,1.76356 7.83783,-0.39166 10.58108,-2.15543 8.22973,-5.29056 -1.56753,-2.35132 -0.39168,-3.91887 3.52701,-4.70268 4.7027,0 8.22968,3.13512 10.581,9.40537 0,3.91893 -5.87836,7.05404 -17.63505,9.40537 v 7.054 c 7.05402,2.35137 16.06749,7.83785 27.04042,16.45943 -5.48644,7.054 -15.2837,13.32425 -29.39174,18.81074 1.56753,5.48644 2.74319,9.99319 3.52699,13.52019 0.78389,3.527 4.31082,6.46618 10.58108,8.81755 28.99989,-3.13511 48.98631,-4.70268 59.9592,-4.70268 6.27026,-0.78382 9.79727,1.95945 10.581,8.22969 3.91894,21.94585 9.60135,38.20931 17.04726,48.79034 7.44591,10.58105 20.57424,15.47967 39.385,14.69588 16.45941,0 32.5269,-10.18913 48.20252,-30.56742 -7.83781,-17.2432 -13.3243,-36.83773 -16.45942,-58.78355 -20.37829,-16.45941 -34.48635,-36.44582 -42.32418,-59.95923 -10.9729,10.97292 -19.98637,16.45937 -27.04042,16.45937 -10.18913,0 -15.28369,-4.3108 -15.28369,-12.93237 0,-9.40537 5.87833,-18.41885 17.63502,-27.04043 0,-5.48644 -3.91888,-8.22968 -11.75664,-8.22968 -1.56748,-14.10804 -13.32422,-23.51342 -35.27006,-28.21612 -16.45942,-3.91888 -30.17558,-5.87832 -41.14851,-5.87832 z m 57.60792,28.21606 h 12.93237 v 7.05406 h -12.93237 c -24.29722,-17.24316 -42.71609,-22.33774 -55.25659,-15.28374 -3.13512,-2.35133 -3.13512,-5.48644 0,-9.40538 15.67562,-7.05399 34.09448,-1.17563 55.25659,17.63506 z m 31.74313,32.9188 c 2.35116,0 3.91888,1.56756 4.70267,4.70269 -0.7839,2.35132 -2.74324,3.527 -5.87841,3.527 -2.35143,0 -3.52696,-1.17569 -3.52696,-3.527 0,-3.13512 1.56754,-4.70269 4.7027,-4.70269 z m 5.87831,-18.81074 8.22967,-5.87831 c -4.70267,-5.4865 -7.05399,-9.79731 -7.05399,-12.93243 0,-4.70269 0.97961,-8.42563 2.93919,-11.16887 1.95948,-2.7432 5.29054,-4.11482 9.99324,-4.11482 9.40534,0 14.10801,3.13512 14.10801,9.40537 0,6.27025 -0.97987,11.36481 -2.93919,15.28369 -1.95948,3.91893 -8.42565,11.75672 -19.39855,23.51343 l -2.35143,-1.17569 c 10.18913,-11.7567 16.45936,-20.37829 18.81068,-25.86474 2.35143,-5.48644 1.56753,-9.79725 -2.35143,-12.93237 -3.91887,-3.13513 -7.44588,-2.74325 -10.58105,1.17568 -3.13511,3.91888 -2.93919,7.83777 0.58792,11.75669 3.52701,3.91893 4.89862,6.66214 4.11488,8.22969 l -14.10811,10.58105 -11.75669,12.93237 c -3.13511,4.70269 -3.72298,7.83783 -1.76351,9.40537 1.95948,1.56756 4.31088,2.15538 7.05408,1.76351 2.74324,-0.39166 8.81754,-4.50675 18.22291,-12.34456 7.83778,-8.62158 13.32425,-16.06749 16.45939,-22.33774 3.13511,-6.27025 4.70267,-13.32427 4.70267,-21.16206 0,-8.62158 -6.27023,-12.93237 -18.81068,-12.93237 -10.18916,0 -16.06755,4.11487 -17.63513,12.34455 -1.56753,8.22967 -0.39168,17.04719 3.52701,26.45256 z m -122.26977,55.25654 c -0.7839,3.13513 1.95948,4.70269 8.22968,4.70269 h 15.28375 v 0 z m 28.2161,10.58106 -12.93237,2.35132 h -8.22974 c -3.13511,0 -4.70269,1.56756 -4.70269,4.70269 0,1.56756 0.78389,1.95942 2.35142,1.17569 15.67557,-3.91895 23.51338,-6.66215 23.51338,-8.2297 z M 180.57861,545.0154 339.29419,769.56851 c -0.78363,-143.43177 0.97987,-233.37061 5.29054,-269.81641 4.3108,-36.44578 11.56077,-68.97268 21.74987,-97.58067 10.18921,-28.60803 24.68917,-55.06062 43.49988,-79.35779 -7.05402,-12.54048 -12.14856,-28.2161 -15.2837,-47.02686 -7.83781,2.35143 -21.16211,4.3108 -39.97284,5.87839 l -38.99015,163.29243 -45.78075,-9.50587 50.67647,-166.71894 -4.7027,-22.33775 c -7.05404,-2.35137 -8.6216,-9.01351 -4.70269,-19.98642 -3.91891,-2.35134 -5.48647,-7.05402 -4.70267,-14.10806 6.27025,-1.56756 9.40536,-5.09462 9.40536,-10.58106 -9.40536,0 -14.49996,-2.74324 -15.28375,-8.22969 -1.56753,-3.91887 2.15546,-12.73639 11.16887,-26.45255 9.0135,-13.71617 14.69591,-24.10126 17.04726,-31.1553 2.35143,-7.05404 4.3108,-16.45942 5.87836,-28.21612 C 344.78068,81.801097 360.4563,56.132294 381.6184,30.659425 402.78046,5.1865581 450.39513,-4.4147518 524.46243,1.8554961 598.52965,8.1257436 635.75922,40.260734 636.15109,98.260471 c 0.38931,57.999769 -25.27688,99.148259 -77.00641,123.445459 -14.10806,10.97292 -25.47288,19.5945 -34.09443,25.86474 l 12.23647,39.02696 c 18.8006,1.96712 29.3331,13.73813 31.08086,35.8583 6.1371,77.67217 7.62833,124.19503 3.70958,211.97847 0,87.78341 -11.75674,218.67475 -35.27017,392.67402 L 596.7662,1000 H 94.754693 L 87.700635,954.14888 178.2273,915.35178 C 155.49767,824.43323 130.22075,755.46053 102.39651,708.43367 74.572309,661.40686 58.308875,617.51512 53.606208,576.75851 l 3.527001,10.58105 C 44.592713,565.39374 28.525217,551.87352 8.9307214,546.77891 -10.663814,541.68434 1.6916196,522.33459 48.903522,493.2859 103.30546,459.81331 171.05054,531.51726 180.57861,545.0154 Z"
     id="path1"
     sodipodi:nodetypes="ccsscccccccccccssccccsccscccsccssssccsssscccsccccccccscccsccccsscccccccscccscsssccscsssccsssscccsscssssccsccsccssscccsscccccccccccsscssscccsccccccsccssccssc" />
  <rect
     style="fill:none;stroke:#5c3566;stroke-width:22.2531;stroke-dasharray:none"
     id="rect1"
     width="135.58757"
     height="406.70102"
     x="18.811562"
     y="72.435562" />
</svg>
