<?xml version="1.0" encoding="UTF-8" standalone="no"?>
<svg
   width="1346"
   height="1800"
   id="svg2"
   version="1.1"
   inkscape:version="1.4.2 (f4327f4, 2025-05-13)"
   sodipodi:docname="1383F.svg"
   xmlns:inkscape="http://www.inkscape.org/namespaces/inkscape"
   xmlns:sodipodi="http://sodipodi.sourceforge.net/DTD/sodipodi-0.dtd"
   xmlns="http://www.w3.org/2000/svg"
   xmlns:svg="http://www.w3.org/2000/svg"
   xmlns:rdf="http://www.w3.org/1999/02/22-rdf-syntax-ns#"
   xmlns:cc="http://creativecommons.org/ns#"
   xmlns:dc="http://purl.org/dc/elements/1.1/">
  <metadata
     id="metadata10">
    <rdf:RDF>
      <cc:Work
         rdf:about="">
        <dc:format>image/svg+xml</dc:format>
        <dc:type
           rdf:resource="http://purl.org/dc/dcmitype/StillImage" />
      </cc:Work>
    </rdf:RDF>
  </metadata>
  <defs
     id="defs8" />
  <sodipodi:namedview
     pagecolor="#ffffff"
     bordercolor="#666666"
     borderopacity="1"
     objecttolerance="10"
     gridtolerance="10"
     guidetolerance="10"
     inkscape:pageopacity="0"
     inkscape:pageshadow="2"
     inkscape:window-width="1680"
     inkscape:window-height="998"
     id="namedview6"
     showgrid="false"
     inkscape:snap-page="true"
     inkscape:zoom="0.19307944"
     inkscape:cx="489.43586"
     inkscape:cy="489.43586"
     inkscape:window-x="-8"
     inkscape:window-y="-8"
     inkscape:window-maximized="1"
     inkscape:current-layer="svg2"
     inkscape:showpageshadow="2"
     inkscape:pagecheckerboard="0"
     inkscape:deskcolor="#d1d1d1"
     showguides="true">
    <sodipodi:guide
       position="0,0"
       orientation="0,-1"
       id="guide3"
       inkscape:locked="false" />
    <sodipodi:guide
       position="267.45779,1631.3438"
       orientation="1,0"
       id="guide4"
       inkscape:locked="false" />
    <sodipodi:guide
       position="0,1800"
       orientation="0,-1"
       id="guide1"
       inkscape:locked="false" />
    <sodipodi:guide
       position="880.19992,1552.4569"
       orientation="1,0"
       id="guide8"
       inkscape:locked="false" />
  </sodipodi:namedview>
  <path
     style="fill:#000000;stroke:none;stroke-width:1.00103"
     d="M 490.22852,-0.0625 C 482.67272,-0.23715716 475.24212,0 468.03711,0 414.51425,0 369.83342,10.819009 334.02539,32.470703 288.57666,59.958257 266.40008,105.41651 267.45703,168.83008 l 49.14453,-0.62696 c 0,-44.38447 16.91602,-78.454695 50.73828,-102.228511 24.54848,-17.267307 57.73187,-25.902343 99.54102,-25.902343 v 0.625 c 15.79451,0 33.09864,-0.471923 51.05078,3.691406 L 868.9082,125.78516 c 93.89666,21.77583 137.9551,42.63573 137.9551,85.16992 -29.5948,0 -55.50916,14.28562 -77.7051,42.82422 -10.56972,11.62164 -12.94627,19.0065 -7.13281,22.17968 1.93758,1.10111 4.2759,1.62696 6.97656,1.62696 5.40244,0 12.31593,-2.1161 20.77149,-6.32032 20.08187,14.79483 40.7045,50.20822 61.84376,106.23438 l -1.5957,1394.002 -742.56447,-0.036 V 1800 h 857.85547 v -28.5293 h -64.5508 V 377.46875 c 21.1389,-56.02615 41.7304,-91.43954 61.8125,-106.23437 7.7507,4.2042 14.2294,6.32031 19.3965,6.32031 2.5836,0 4.8501,-0.9951 6.7871,-1.59571 5.8139,-3.2032 3.4054,-10.58927 -7.164,-22.21093 -22.196,-28.5386 -49.1236,-42.79297 -80.8321,-42.79297 0,-44.38448 -46.1536,-101.48385 -133.1992,-120.08008 L 513.17773,2.3457031 C 505.46596,0.69817866 497.78432,0.11215715 490.22852,-0.0625 Z m 545.16408,239.54688 c 25.3665,0 47.036,4.72532 65.0039,14.29492 -23.2529,26.41647 -44.9222,62.34327 -65.0039,107.79882 -19.025,-45.45555 -40.69403,-81.38235 -65.00393,-107.79882 17.96801,-9.50953 39.63703,-14.29493 65.00393,-14.29492 z"
     id="path4"
     sodipodi:nodetypes="sscccccccccccsccccccccccscccccsscccs" />
  <path
     style="fill:#000000;stroke:none;stroke-width:0.999653"
     d="m 481.44652,102.74609 c -27.6912,39.8754 -47.6282,65.62746 -59.8125,77.25782 -12.1841,11.63034 -20.2169,24.91975 -24.0938,39.87304 -3.8767,14.95328 -26.306,56.77094 -67.2891,125.44532 26.5837,-3.32295 55.3842,-32.12356 86.3985,-86.39844 4.4305,-7.75357 6.6465,-9.41502 6.6465,-4.98438 v 258.63672 h -44.0313 c -2.2937,1.8953 -4.5082,4.27826 -4.9961,7.32617 -0.4725,2.81059 0.8997,5.57786 2.7989,7.57227 0.6739,0.74473 1.4379,1.39803 2.1972,2.05273 h 19.7285 c 1.9427,2.38426 2.4222,5.57613 2.5782,8.55664 0.017,0.55176 0.035,1.10414 0.025,1.65625 h -22.332 c -2.2938,1.89524 -4.5085,4.27619 -4.9961,7.32422 -0.4683,2.78232 0.8754,5.52563 2.7461,7.51172 0.6889,0.76684 1.4701,1.44219 2.25,2.11328 h 19.7285 c 1.9428,2.38426 2.4203,5.57419 2.5762,8.55469 0.017,0.55176 0.037,1.10416 0.027,1.65625 h -22.3339 c -2.2937,1.8953 -4.5065,4.27826 -4.9942,7.32617 -0.4727,2.81059 0.8997,5.5759 2.7989,7.57032 0.6739,0.74473 1.436,1.39804 2.1953,2.05273 h 19.7793 c 2.1019,2.24336 2.5972,5.46998 2.6562,8.42773 0,0.59482 -5e-4,1.18917 -0.037,1.78321 h -22.3691 c -2.2861,1.76435 -4.4884,4.04082 -5,6.99414 -0.5338,2.86648 0.861,5.6986 2.7441,7.78125 0.6718,0.78543 1.4389,1.47857 2.1992,2.17578 h 19.6836 c 1.9262,2.79978 2.7899,6.1585 3.5449,9.42773 0.8721,4.06077 1.3735,8.1819 1.7422,12.31641 h -22.4492 c -9.969,3.32295 -13.8461,8.30719 -11.6309,14.95312 2.2154,5.53825 7.7541,9.41556 16.6153,11.63086 -5.5382,4.43066 -5.5382,8.30795 0,11.63086 -6.6459,6.64588 -6.0915,12.7371 1.6621,18.27539 -6.6458,6.64589 -6.6458,12.74101 0,18.2793 -4.4307,8.86118 -2.7692,17.16441 4.9844,24.91797 8.8612,6.64591 18.8278,9.97266 29.9043,9.97266 v 9.96679 c -12.1841,1.10773 -26.0281,1.10773 -41.5352,0 -6.6459,4.43062 -8.8619,9.41288 -6.6465,14.95117 2.2151,5.53821 6.6472,10.52443 13.293,14.95508 -4.4307,4.43055 -5.5394,9.41679 -3.3242,14.95508 2.2153,5.53831 2.2153,10.52256 0,14.95313 -2.2152,4.43065 -1.3846,8.306 2.4922,11.6289 3.8764,3.32304 4.9837,6.92407 3.3222,10.80078 -1.6615,3.87673 -0.5525,7.19766 3.3242,9.9668 3.8767,2.76915 5.8145,7.47724 5.8145,14.12305 0,6.64594 7.7528,11.63024 23.2598,14.95312 v 1.66211 726.06447 c -21.0453,5.5383 -32.1211,21.5998 -33.2286,48.1836 0.8534,32.3386 32.4351,54.1177 38.6309,46.3867 6.1958,-7.7311 -11.8253,-30.502 -12.0449,-46.3887 1.1077,-15.507 11.0358,-23.2578 26.543,-23.2578 15.5071,0 23.121,8.0424 24.9609,23.2578 1.8399,15.2155 -18.8846,37.5444 -10.4668,46.3887 8.4181,8.8443 36.5231,-24.1582 37.0508,-46.3887 0.5327,-22.4354 -11.0774,-42.643 -33.2305,-48.1816 V 875.33203 l 119.627,-14.95312 c 3.323,36.55248 9.9686,98.5816 19.9375,186.08589 9.9689,87.5046 24.0909,191.3473 42.3671,311.5274 18.2763,120.1801 25.2022,200.7593 20.7715,241.7422 -18.83,52.0598 -78.0927,98.0267 -177.7812,137.9023 -30.0679,0 -58.3715,12.8483 -57.7832,31.5684 0.024,0.7558 0.5646,1.5236 0.8574,2.2871 h 393.1562 c 0.3795,-0.7388 0.9745,-1.9201 1.2071,-2.2871 5.9513,-22.7858 0.9501,-55.43 -15.1114,-98.0274 v -518.3789 c -1.1075,-67.5668 4.9855,-108.5497 18.2774,-122.9492 21.0453,-64.24378 17.168,-129.59558 -11.6309,-196.05468 32.1219,-184.97761 32.1219,-321.77275 0,-410.38476 -18.8299,-24.36835 -26.0284,-46.52131 -21.5976,-66.45899 -1.1077,-9.96887 2.7676,-17.72343 11.6289,-23.26172 49.8443,-22.15297 74.7676,-61.19449 74.7676,-117.13086 0,-55.93637 -35.7226,-86.67654 -107.1661,-92.21484 -71.4434,-5.5383 -117.1324,3.87772 -137.0703,28.24609 -19.9376,24.36828 -33.2329,49.28977 -39.8789,74.76563 -2.2152,9.96893 -4.1529,18.55416 -5.8144,25.75391 -1.6615,7.19973 -6.922,16.89205 -15.7832,29.07617 -8.8613,12.1842 -12.7387,19.9368 -11.6309,23.25976 1.1076,6.64588 6.0939,9.96875 14.9551,9.96875 0,4.43055 -2.7702,7.20095 -8.3086,8.3086 -1.1075,6.64592 0.5537,11.07571 4.9844,13.29101 -4.4306,9.96888 -2.7693,16.06015 4.9843,18.27539 l 1.6641,21.60156 -48.9424,109.54454 46.6741,21.37579 35.4968,-119.2914 c 17.7224,-1.10768 29.9049,-2.77107 36.5508,-4.98633 2.2154,17.72238 7.2016,32.67713 14.9551,44.86133 -29.9066,94.15026 -50.9505,177.22335 -63.1348,249.2207 h -63.1387 c -18.785,-22.05215 -37.8724,-35.90764 -57.2597,-41.69921 0.1634,-2.3051 0.3406,-4.61132 0.625,-6.85743 0.6418,-4.91519 1.4864,-9.8904 3.5371,-14.43945 0.5975,-1.28905 1.3204,-2.53276 2.2558,-3.60742 h 20.1192 c 2.3149,-1.70822 4.5921,-3.8958 5.1973,-6.82227 0.6104,-2.7472 -0.6724,-5.52612 -2.4747,-7.54883 -0.8016,-0.94682 -1.7345,-1.77143 -2.6718,-2.58007 h -22.336 c -0.01,-2.98519 0.087,-6.08444 1.2891,-8.86524 0.2547,-0.46427 0.488,-1.07005 0.9258,-1.3457 h 21.4902 c 2.0852,-2.03792 4.0362,-4.55423 4.252,-7.57031 0.2508,-2.90974 -1.3762,-5.61521 -3.4453,-7.5293 -0.7228,-0.66153 -1.484,-1.3538 -2.3067,-1.84961 h -22.207 c -0.01,-3.26799 0.2122,-6.71089 1.8457,-9.62109 0.1894,-0.45945 0.5118,-0.71867 1.0234,-0.58985 h 19.4668 c 2.2927,-1.89539 4.5071,-4.27861 4.9942,-7.32617 0.4729,-2.80989 -0.8966,-5.57732 -2.7969,-7.57031 -0.6737,-0.74497 -1.4371,-1.39882 -2.1973,-2.05274 h -22.3359 c -0.01,-3.268 0.2122,-6.71285 1.8457,-9.62304 0.1894,-0.45946 0.5118,-0.71864 1.0234,-0.58985 h 19.4668 c 2.2929,-1.89491 4.5055,-4.27558 4.9942,-7.32226 0.469,-2.78328 -0.8713,-5.52951 -2.7442,-7.51563 -0.6885,-0.7669 -1.4691,-1.44301 -2.25,-2.11328 h -47.2988 v -14.22851 h -0.1172 V 252.2793 c 0,-25.47606 -5.5368,-37.66227 -16.6133,-36.55469 7.7536,-12.18408 18.8292,-28.52023 33.2285,-49.01172 14.3995,-20.49161 15.5086,-41.81379 3.3243,-63.9668 z m 235.9277,44.85938 c 38.7678,0 71.1695,3.59921 97.1992,10.79883 26.0299,7.19983 39.043,27.96748 39.043,62.30468 0,33.22943 -11.3538,57.60029 -34.0606,73.10743 -22.7069,15.50709 -40.1518,27.69153 -52.3359,36.55273 -19.9377,-12.18412 -33.229,-29.35475 -39.875,-51.50781 4.4309,-6.64588 6.6445,-14.39851 6.6445,-23.25977 0,-15.50702 -8.307,-23.25976 -24.9218,-23.25976 -13.2918,0 -22.1514,7.19818 -26.5821,21.59765 -2.2153,-14.39947 -9.1391,-23.53921 -20.7695,-27.41601 -11.6302,-3.87678 -22.9841,-6.91951 -34.0606,-9.13477 22.1529,-46.52139 52.0588,-69.7832 89.7188,-69.7832 z m -109.6563,89.71875 c 9.9689,0 22.1534,2.21586 36.5528,6.64648 21.0453,3.32295 32.1226,12.18259 33.2304,26.58203 7.7534,0 11.627,2.21782 11.627,6.64844 -11.0765,7.75357 -16.6133,15.50621 -16.6133,23.25977 0,9.96879 4.4337,14.95312 13.2949,14.95312 6.6458,0 15.5036,-5.53873 26.5801,-16.61523 6.6459,21.04537 24.9235,40.9844 54.8301,59.81445 -1.1076,18.83004 2.7697,36.55122 11.6309,53.16602 -8.8612,9.96881 -24.3685,14.67886 -46.5215,14.125 -22.153,-0.55386 -36.8295,-4.15299 -44.0293,-10.79883 -7.1997,-6.64592 -12.4623,-18.27785 -15.7852,-34.89258 -3.3231,-6.6459 -7.7507,-9.9707 -13.289,-9.9707 -9.9689,0 -28.799,1.66147 -56.4903,4.98437 -5.5383,-1.10763 -8.5872,-3.59783 -9.1406,-7.47461 -0.554,-3.87678 -1.3845,-8.58474 -2.4922,-14.12304 13.2919,-4.43061 22.1534,-9.9693 26.584,-16.61524 -9.9689,-7.7535 -18.2739,-12.73786 -24.9199,-14.95312 v -6.64844 c 11.0765,-2.21524 16.6152,-5.53614 16.6152,-9.9668 -3.3228,-5.53819 -7.2003,-8.30664 -11.6309,-8.30664 -3.323,2.21536 -3.8793,3.87674 -1.664,4.98438 1.1077,2.21528 -1.6607,3.59888 -8.3067,4.15234 -6.6459,0.55386 -9.9687,0.27755 -9.9687,-0.83008 0,-2.21526 0.5544,-4.43122 1.6621,-6.64648 15.507,-23.26059 24.9212,-43.75224 28.2441,-61.47461 z m 101.3497,3.32617 c 11.0765,0 16.6152,4.42781 16.6152,13.28906 0,7.75355 -1.3833,14.40126 -4.1524,19.93946 -2.7691,5.5383 -8.0336,12.18391 -15.7871,19.9375 -7.7535,7.75356 -13.2922,11.62889 -16.6152,11.6289 -3.3228,0 -5.5349,-0.82871 -6.6426,-2.49023 -1.1077,-1.66151 -0.555,-4.70803 1.6602,-9.13867 l 11.6289,-11.63086 11.6328,-9.96875 c 2.2153,-1.10767 1.3845,-3.60173 -2.4922,-7.47852 -3.8767,-3.87687 -4.153,-7.4759 -0.8301,-10.79883 3.323,-3.32295 6.6457,-3.32295 9.9688,0 3.3229,3.32293 3.8773,7.20022 1.6621,11.63086 -2.2152,4.43061 -7.754,12.1852 -16.6152,23.26172 l 1.6601,1.66016 c 9.9688,-11.07651 15.7819,-18.27481 17.4434,-21.59766 1.6615,-3.32294 2.4961,-8.30911 2.4961,-14.95508 0,-4.43064 -3.8794,-6.64453 -11.6328,-6.64453 -5.5382,0 -9.1375,1.10701 -10.7989,3.32227 -1.6616,2.21535 -2.4941,4.98369 -2.4941,8.30664 0,4.43061 2.7723,8.30605 8.3105,11.6289 l -9.9687,6.64844 c -3.3231,-7.75356 -4.1537,-15.7844 -2.4922,-24.09179 1.6616,-8.30742 7.4744,-12.45899 17.4434,-12.45899 z m -88.3672,3.94531 c -3.946,0.1385 -7.7185,1.0377 -11.3184,2.69922 -3.3228,4.43062 -3.3228,7.75348 0,9.96875 11.0767,-6.64588 28.2412,-2.21796 51.502,13.28906 h 11.6308 v -6.64453 h -11.6308 c -14.9533,-13.29186 -28.3455,-19.72783 -40.1836,-19.3125 z m 2.8027,14.32813 c -6.0919,0 -9.9713,1.107 -11.6328,3.32226 -1.6616,2.21527 -2.4883,4.98379 -2.4883,8.30664 0,6.6459 3.8754,9.97071 11.6289,9.97071 7.7536,0 17.7222,-2.76833 29.9063,-8.30664 -12.1841,-8.86123 -21.322,-13.29297 -27.4141,-13.29297 z m 65.625,34.89258 c -3.3228,1.10764 -4.9824,2.76714 -4.9824,4.98242 0,1.10773 1.6596,2.21657 4.9824,3.32422 3.323,0 4.9883,-1.10897 4.9883,-3.32422 0,-2.21537 -1.6653,-3.87479 -4.9883,-4.98242 z m -107.9902,34.89062 21.5976,3.32227 v 1.66015 l -13.2949,-1.66015 c -6.6459,1.10754 -9.4105,2.7e-4 -8.3027,-3.32227 z m 28.2441,9.96875 c 10e-5,1.10763 -7.7546,3.32357 -23.2617,6.64649 -2.2155,1.10763 -3.3242,1.10763 -3.3242,0 0,-3.32303 1.6614,-4.98633 4.9843,-4.98633 h 8.3067 z m 172.791,109.6582 c 33.2294,71.99727 28.7997,200.48333 -13.291,385.46094 36.5525,70.88968 39.3208,131.25536 8.3066,181.09958 -13.2918,78.6431 -17.7217,201.04 -13.291,367.1875 -2.2148,186.0855 -2.7699,283.0061 -1.6621,290.7598 16.6146,48.7364 14.9515,74.7671 -4.9863,78.0898 h -191.0684 c 55.3824,-23.2608 100.2429,-57.0477 134.5801,-101.3535 9.9689,-46.5214 8.0293,-114.3612 -5.8164,-203.5273 -13.8457,-89.1656 -32.9501,-225.9631 -57.3184,-410.3867 -24.3683,-184.42405 -5.5382,-378.53995 56.4903,-582.34769 29.9064,8.86119 59.2576,7.20167 88.0566,-4.98243 z m -397.0937,194.39063 c 15.5071,1.10803 28.2479,1.66016 38.2168,1.66016 v 8.31054 h -19.9395 c -9.9689,-1.1077 -16.062,-4.43243 -18.2773,-9.9707 z m 83.0761,6.64648 c 15.5071,2.2153 36.5512,19.93842 63.1348,53.16797 h 66.4609 l -1.664,16.61524 h -28.2461 c -32.1219,7.75387 -64.7979,10.52193 -98.0274,8.30664 3.323,-6.64585 2.2181,-11.07575 -3.3203,-13.29102 6.6458,-1.10763 11.0779,-3.32162 13.293,-6.64453 2.2153,-3.32299 0.5538,-6.64777 -4.9844,-9.9707 7.7535,0 12.1834,-3.32479 13.291,-9.97071 0,-4.43063 -3.3227,-7.75348 -9.9687,-9.96875 5.5378,-3.32303 7.4758,-6.92203 5.8144,-10.79882 -1.6615,-3.87678 -6.922,-6.91951 -15.7832,-9.13477 z M 400.03432,661 l 69.7793,4.98438 c 4.4306,2.21528 4.4306,4.98761 0,8.31054 l -69.7793,-4.98437 c -2.2154,-3.32302 -2.2154,-6.09528 0,-8.31055 z m 0,14.95508 74.7676,8.30664 c 4.4305,2.21526 4.4305,4.43317 0,6.64844 l -74.7676,-6.64844 c -2.2154,-3.3229 -2.2154,-6.09136 0,-8.30664 z m 0,16.61719 68.1211,6.64257 c 3.3231,3.32293 2.7686,6.09529 -1.6621,8.31055 l -66.459,-4.98633 c -2.2154,-4.4306 -2.2154,-7.75152 0,-9.96679 z m 1.6622,19.93554 48.1816,3.32031 c 3.3229,3.32292 3.3229,6.09529 0,8.31055 l -48.1816,-1.66406 c -2.2153,-4.43061 -2.2153,-7.75151 0,-9.9668 z m 164.4843,29.90821 h 24.9219 l -4.9824,51.5039 h -46.5235 c -31.0142,-27.69129 -57.0424,-41.53711 -78.0878,-41.53711 v -6.64453 c 29.9065,4.43046 64.7963,3.32358 104.6718,-3.32226 z m -128.6601,34.99218 c 36.3448,-1.4538 67.6013,12.35776 93.7695,41.4336 h 51.5059 v 14.95312 h -36.5528 c -56.49,12.18418 -94.1505,15.50705 -112.9804,9.96875 -6.6459,-7.75356 -10.2454,-17.16767 -10.7989,-28.24414 -0.5535,-11.07651 -0.83,-23.26091 -0.83,-36.55273 5.3998,-0.83074 10.6945,-1.35092 15.8867,-1.5586 z"
     id="path7"
     sodipodi:nodetypes="csscsscccccccccccccccccccccccccccccccccccccccscssssssccccscsssscccssccsccccccccccssscsscccccccccccccccccccccccccccccccccccccccccccccscsccssssccsscscsccccsscccsscsccccccccccsccsssssscccssssccsssssccsssccccccssssscscscsccccccccssccccccccccssccccccccccccccscccscccccccccccccccccccccccccccccscccccscs" />
</svg>
