<?xml version="1.0" encoding="UTF-8" standalone="no"?>
<svg
   width="600"
   height="1000"
   version="1.1"
   id="svg1"
   sodipodi:docname="1383D.svg"
   inkscape:version="1.4.2 (f4327f4, 2025-05-13)"
   xmlns:inkscape="http://www.inkscape.org/namespaces/inkscape"
   xmlns:sodipodi="http://sodipodi.sourceforge.net/DTD/sodipodi-0.dtd"
   xmlns="http://www.w3.org/2000/svg"
   xmlns:svg="http://www.w3.org/2000/svg">
  <defs
     id="defs1" />
  <sodipodi:namedview
     id="namedview1"
     pagecolor="#ffffff"
     bordercolor="#666666"
     borderopacity="1.0"
     inkscape:showpageshadow="2"
     inkscape:pageopacity="0.0"
     inkscape:pagecheckerboard="0"
     inkscape:deskcolor="#d1d1d1"
     showguides="true"
     inkscape:zoom="3.02"
     inkscape:cx="57.450331"
     inkscape:cy="261.75497"
     inkscape:window-width="1680"
     inkscape:window-height="998"
     inkscape:window-x="-8"
     inkscape:window-y="-8"
     inkscape:window-maximized="1"
     inkscape:current-layer="svg1">
    <sodipodi:guide
       position="502.085,847.43789"
       orientation="1,0"
       id="guide8"
       inkscape:locked="false" />
    <sodipodi:guide
       position="64.959961,883.85742"
       orientation="1,0"
       id="guide10"
       inkscape:locked="false" />
  </sodipodi:namedview>
  <path
     style="fill:#000000;stroke:none;stroke-width:52.7426"
     d="m 232.46875,7.3828125 c -25.95966,0.7381857 -43.24716,6.6420055 -51.85937,17.7148435 -11.48295,14.763784 -19.19192,29.365091 -23.12891,43.800782 -1.31235,6.561674 -2.46106,11.81102 -3.44531,15.748046 -0.98425,3.93699 -4.10024,9.514559 -9.34961,16.732426 -5.24933,7.21786 -7.54678,12.13902 -6.89063,14.76367 0.65619,3.28083 3.61005,4.91992 8.85938,4.91992 0,2.62469 -1.64105,4.59391 -4.92188,5.90625 -0.65615,3.28083 0.32848,5.57632 2.95313,6.88867 -2.62465,5.90549 -1.96824,9.51579 1.96875,10.82813 l 1.96679,12.79492 -29.33203,65.10742 27.61328,12.64649 20.41993,-70.86524 c 11.15485,-0.65619 18.70165,-1.63883 22.63867,-2.95117 0.65615,10.4987 3.60809,19.35636 8.85742,26.57422 -17.71653,55.77427 -30.18253,104.98772 -37.40039,147.63867 h -37.40235 c -15.09188,-17.06041 -30.511728,-25.5918 -46.259761,-25.5918 v -17.71679 l -22.638671,0 v 16.73242 H 30.511719 c -5.905521,2.62469 -8.202967,5.57854 -6.890625,8.85937 1.312341,3.28084 4.266196,5.57636 8.859375,6.88867 -2.624684,2.62468 -2.296462,4.9221 0.984375,6.89063 -3.936991,3.93699 -3.608804,7.54534 0.984375,10.82617 -3.937025,3.93703 -3.937025,7.54534 0,10.82617 -2.624683,5.24933 -1.96824,10.17049 1.96875,14.76368 5.905521,3.93703 12.137545,6.23447 18.699219,6.89062 v 4.92188 c -7.217828,0.65618 -15.419111,0.65618 -24.605469,0 -3.937025,2.62467 -5.578063,5.57658 -4.921875,8.85742 1.968495,3.28083 4.92235,6.23468 8.859375,8.85937 -3.280837,3.28083 -4.265432,6.56096 -2.953125,9.8418 1.312342,3.28083 1.476435,6.23273 0.492187,8.85742 -0.984247,2.62465 -0.327839,4.758 1.96875,6.39844 2.296589,1.6404 2.788905,3.60963 1.476563,5.90625 -1.312341,2.29656 -0.820027,4.26387 1.476562,5.9043 2.296589,1.64039 3.607453,4.43019 3.935547,8.36718 0.328095,3.93703 5.085161,6.88889 14.271485,8.85742 v 0.98438 430.11914 c -13.123349,3.2808 -19.683594,12.79494 -19.683594,28.54297 -0.656153,4.59318 1.311118,9.5143 5.904297,14.76367 4.593143,5.24929 2.954094,11.64737 -4.919922,19.19336 -7.874015,7.54575 -5.250336,8.52856 7.873047,2.95117 13.123348,-5.57746 15.420794,-17.87933 6.890625,-36.9082 0.656153,-9.18633 5.905535,-13.78125 15.748047,-13.78125 8.530204,0 13.123143,4.59492 13.779296,13.78125 -5.905521,19.02887 -3.610027,31.16664 6.888672,36.41601 10.498699,5.24944 13.124324,4.26662 7.875,-2.95117 -5.249367,-7.2179 -6.233962,-13.45188 -2.953125,-18.70117 3.280837,-5.24937 4.921875,-10.17049 4.921875,-14.76367 0,-15.74789 -6.562199,-25.26203 -19.685547,-28.54297 V 452.75586 l 70.865231,-8.85742 c 1.31235,21.65355 5.08674,58.56314 11.32032,110.72851 6.23361,52.16533 14.59895,113.6807 25.09765,184.54688 10.49867,70.86611 14.76342,118.43852 12.79492,142.71679 -11.15485,30.83987 -46.25932,58.0694 -105.314449,81.69141 -24.934389,0 -37.728612,12.13977 -38.384765,36.41797 H 276.57422 c 17.71653,-10.49867 19.02934,-35.76088 3.9375,-75.78711 V 617.12695 c 0,-40.02619 3.60834,-64.30572 10.82617,-72.83593 13.12339,-38.05774 10.8279,-76.77055 -6.88867,-116.14063 19.02891,-109.58007 22.63721,-182.74285 10.82617,-219.48828 v -22.63867 c 2.62468,-11.81104 6.88943,-17.38861 12.79492,-16.73242 2.62469,0 3.9375,2.29744 3.9375,6.89062 l -3.9375,130.9043 h 37.40235 l -9.8418,-136.81055 c -1.35879,-14.94617 -20.11611,-21.43806 -34.44922,-14.27148 -7.21786,3.6089 -14.10825,13.61531 -20.66992,30.01953 -8.53021,-15.09188 -11.48211,-28.54251 -8.85742,-40.35352 1.31234,-5.90552 4.59246,-10.49845 9.84179,-13.7793 29.52757,-13.12335 44.12692,-36.09003 43.79883,-68.898432 C 324.96683,30.183782 303.64115,11.974166 261.31836,8.3652344 250.73764,7.4630016 241.12197,7.1367506 232.46875,7.3828125 Z m -3.13867,14.2714845 c 22.96589,0 41.99605,2.131399 57.08789,6.396484 15.09188,4.265119 22.63672,16.568945 22.63672,36.910157 0,19.685023 -6.5622,34.284375 -19.68555,43.798832 -13.12338,9.51441 -23.29389,16.89715 -30.51172,22.14648 -11.81104,-7.21783 -19.6841,-17.71656 -23.62109,-31.496094 2.62465,-3.93699 3.9375,-8.52993 3.9375,-13.779297 0,-9.186358 -4.92116,-13.78125 -14.76367,-13.78125 -7.87401,0 -13.12336,4.26667 -15.74805,12.796875 h -0.98438 c -0.65615,-8.530205 -4.59464,-13.943645 -11.8125,-16.240234 -7.21783,-2.296555 -13.77807,-4.101721 -19.68359,-5.414062 13.12335,-27.559074 30.83873,-41.337891 53.14844,-41.337891 z m -65.94336,54.132812 c 6.56171,0 14.10655,0.98463 22.63672,2.953125 12.46719,1.968531 19.02939,7.217878 19.68554,15.748047 3.93703,0 5.9043,1.641038 5.9043,4.921875 -5.90552,3.937024 -8.85742,8.529964 -8.85742,13.779294 0,5.24933 2.62567,7.87305 7.875,7.87305 3.93702,0 8.85814,-3.28013 14.76367,-9.8418 4.59317,13.12335 14.76372,24.9349 30.51172,35.4336 -0.65615,11.15485 1.63934,21.98177 6.88867,32.48047 -10.14145,11.59018 -43.00586,7.97608 -50.68945,1.47461 -4.26509,-3.60894 -7.38112,-10.66147 -9.34961,-21.16016 -1.96849,-3.93699 -4.59221,-5.57803 -7.87305,-4.92188 -6.56167,0 -17.71677,0.65641 -33.46484,1.96875 -3.28084,-0.65615 -5.086,-2.13309 -5.41406,-4.42968 -0.32809,-2.29659 -1.1486,-4.75618 -2.46094,-7.38086 8.53021,-3.28084 14.10777,-6.89114 16.73242,-10.82813 -6.56167,-4.59318 -11.48283,-7.54508 -14.76367,-8.85742 v -3.9375 c 6.56167,-1.31231 9.8418,-2.95139 9.8418,-4.91992 -1.96849,-3.93699 -4.264,-5.90625 -6.88868,-5.90625 -1.9685,1.31234 -2.6249,2.29697 -1.96875,2.95312 1.31235,1.9685 -0.16459,2.95313 -4.42968,2.95313 -4.26509,0 -6.39649,-0.32823 -6.39649,-0.98438 0,-1.31235 0.65641,-2.62516 1.96875,-3.9375 9.18633,-13.779534 14.43571,-25.59108 15.74805,-35.433591 z m 61.02344,0.984375 c 6.56167,0 9.84179,2.625667 9.84179,7.875 0,4.593179 -0.98463,8.52971 -2.95312,11.810547 -1.96849,3.280838 -5.24862,7.217369 -9.8418,11.810549 -4.59318,4.59318 -7.71113,7.05472 -9.35156,7.38281 -1.6404,0.32806 -2.78717,-0.16421 -3.44336,-1.47656 -0.65615,-1.31231 -0.32798,-2.95335 0.98437,-4.92188 l 5.9043,-7.87304 7.875,-4.921879 c 1.31235,-1.312341 0.82007,-3.117472 -1.47656,-5.414062 -2.29655,-2.296589 -2.46068,-4.42799 -0.49219,-6.396485 1.96849,-1.968495 3.77167,-1.968495 5.41211,0 1.6404,1.968495 1.96863,4.428082 0.98438,7.38086 -0.98425,2.952743 -4.10028,7.709813 -9.34961,14.271486 6.56167,-6.561673 10.33411,-10.826429 11.31836,-12.794924 0.98425,-1.968531 1.47656,-4.920432 1.47656,-8.857422 0,-2.624684 -2.29549,-3.9375 -6.88867,-3.9375 -3.28083,0 -5.41419,0.656408 -6.39844,1.96875 -0.98425,1.312342 -1.47656,2.951427 -1.47656,4.919922 0,2.624684 1.64103,5.250317 4.92187,7.875 l -5.90625,3.9375 c -1.96849,-5.249332 -2.46081,-10.334586 -1.47656,-15.255859 0.98425,-4.921238 4.43042,-7.382813 10.33594,-7.382813 z m -52.41211,2.707032 c -2.2966,0 -4.51198,0.410259 -6.64453,1.230468 -1.96849,2.624684 -1.96849,4.591956 0,5.904297 6.56167,-3.937025 16.4059,-1.311358 29.52929,7.875 h 7.87305 v -3.9375 h -7.87305 C 186.51668,83.168898 178.88782,79.478516 171.99805,79.478516 Z m -1.69141,8.519531 c -2.15305,0.06151 -3.47664,0.584103 -3.96875,1.568359 -0.65619,1.312342 -0.98437,2.95338 -0.98437,4.921875 0,3.937026 2.29744,5.906249 6.89062,5.906249 4.59318,0 10.49894,-1.312814 17.7168,-3.937499 -7.87401,-5.249367 -13.61568,-8.039128 -17.22461,-8.367187 -0.90223,-0.08202 -1.71201,-0.112301 -2.42969,-0.0918 z m 42.29102,21.253903 c -1.96849,0 -2.95118,0.65641 -2.95118,1.96875 0,1.31234 0.65446,1.96875 1.9668,1.96875 1.96849,0 3.28135,-0.65641 3.9375,-1.96875 -0.65615,-1.31234 -1.64078,-1.96875 -2.95312,-1.96875 z m -63.97657,19.68555 12.79688,1.96875 v 0.98437 l -8.85938,-0.98437 c -3.28084,0.65619 -4.59365,-2.6e-4 -3.9375,-1.96875 z m 15.74805,5.9043 c 0,0.93682 -14.76367,4.52741 -14.76367,3.9375 0,-1.96849 0.98459,-2.95313 2.95312,-2.95313 l 4.92188,0.98438 z m 100.39453,64.96093 c 19.68506,42.65091 17.06135,118.76759 -7.87305,228.34766 22.30971,42.65092 24.27701,78.41182 5.9043,107.2832 -8.53017,47.24409 -11.48211,119.7505 -8.85742,217.51953 -1.31234,110.89242 -1.64052,168.63534 -0.98438,173.22852 9.84251,28.21523 8.85789,43.3069 -2.95312,45.27539 H 139.76367 c 32.80841,-13.7795 59.3834,-33.79229 79.72461,-60.03906 5.90552,-26.90289 4.7568,-66.93047 -3.44531,-120.08008 -8.20211,-53.14958 -19.52134,-134.18545 -33.95703,-243.10937 -14.43569,-108.92388 -3.60877,-224.08159 32.48047,-345.47266 16.40419,5.24933 33.13689,4.2647 50.19726,-2.95313 z M 32.480469,315.94531 h 22.636719 v 4.91992 H 43.306641 c -5.905486,-0.65619 -9.513831,-2.29527 -10.826172,-4.91992 z m 49.21289,2.95313 c 8.530169,1.31235 20.996171,12.13926 37.400391,32.48047 h 39.37109 l -1.96875,8.85742 h -16.73242 c -18.37268,5.24933 -37.40088,6.89036 -57.085936,4.92187 1.968495,-3.93703 1.312087,-6.23447 -1.96875,-6.89062 3.937025,-1.31234 6.560705,-2.78925 7.873047,-4.42969 1.312307,-1.6404 0.329665,-3.77183 -2.951172,-6.39648 3.937025,0 6.560705,-1.96922 7.873047,-5.90625 0,-2.62468 -1.969224,-4.59199 -5.90625,-5.9043 2.624684,-1.31235 3.609314,-3.28157 2.953125,-5.90625 -0.656153,-2.62469 -3.60809,-4.59391 -8.857422,-5.90625 z m -40.355468,6.88867 41.339843,3.9375 c 2.624683,0.65615 2.624683,1.96897 0,3.9375 l -41.339843,-2.95313 c -1.312342,-1.9685 -1.312342,-3.60953 0,-4.92187 z m 0,8.85937 44.292968,4.91993 c 2.624683,1.31234 2.624683,2.95338 0,4.92187 l -44.292968,-4.92187 c -1.312342,-1.96849 -1.312342,-3.60758 0,-4.91993 z m 0,9.8418 40.355468,3.9375 c 1.968495,1.96849 1.640309,3.60758 -0.984375,4.91992 l -39.371093,-1.96679 c -1.312342,-2.62465 -1.312342,-4.9221 0,-6.89063 z m 0.984375,11.81055 27.560546,1.96875 c 2.62465,1.96849 2.62465,3.60952 0,4.92187 l -27.560546,-0.98437 c -1.968495,-2.62469 -1.968495,-4.59391 0,-5.90625 z M 139.76367,375 h 14.76367 l -2.95312,29.52734 h -27.5586 C 104.98675,388.12312 89.5669,379.92188 77.755859,379.92188 v -3.9375 C 95.472385,378.60903 116.14162,378.28084 139.76367,375 Z m -76.970701,19.74609 c 22.032876,-0.86122 40.798791,7.32051 56.300781,24.54493 h 30.51172 v 8.85937 h -21.65235 c -34.120708,7.87402 -56.430983,9.84133 -66.929682,5.9043 -3.937025,-4.59318 -6.232519,-10.17075 -6.888672,-16.73242 -0.656153,-6.56167 -0.984375,-13.77833 -0.984375,-21.65235 3.280837,-0.49213 6.495024,-0.80079 9.642578,-0.92383 z"
     id="path10"
     sodipodi:nodetypes="sscssccccccccccccccccccsccccccccccssssssccccssscscsssscccsscccccscccccccccscscsssssssccssccscsccccsscccscccscccccccssccssssssccccssscsssssccsssccccccsscsscsssssscsccccccscccccccccccssccccccccccccccscccscccccccccccccccccccccccccccccscccccscs" />
  <path
     style="fill:#000000;stroke:none;stroke-width:52.7426"
     d="M 92.519531,0 C 76.771499,23.622047 65.124046,38.877809 57.578125,45.767578 50.032203,52.657346 45.111042,60.532361 42.814453,69.390625 40.517864,78.248888 26.246731,101.37772 0,138.7793 c 15.748032,-1.96849 32.808926,-19.0294 51.181641,-51.181644 2.624649,-4.593179 4.591955,-7.54508 5.904297,-8.857422 1.312342,-1.312307 1.96875,0.985139 1.96875,6.890625 v 30.511721 l 11.810546,0 V 83.662109 C 71.521387,73.819562 70.210525,66.600992 66.929688,62.007812 71.522867,54.789985 78.247206,45.111792 87.105469,32.972656 95.963768,20.833556 97.768899,9.8425113 92.519531,0 Z"
     id="path1"
     sodipodi:nodetypes="csscccscccccc" />
  <path
     id="path8"
     style="fill:#000000;stroke:none;stroke-width:63.9912"
     d="m 64.96017,103.07618 c -9.565787,0 -32.586423,6.8328 -7.251201,52.43616 -4.776621,0 -10.707076,-2.3466 -17.872087,-7.12323 -2.38834,7.9611 -2.38834,15.91099 0,23.87209 7.165011,-3.98056 13.550541,-7.1117 19.123264,-9.50003 0,16.71835 -1.564372,28.58159 -4.748826,35.74655 h -8.374425 v 7.24882 H 32.713633 v 8.24885 c 10.349476,1.59216 15.497674,4.39146 15.497674,8.37205 H 32.713633 v 7.25121 c 9.553339,1.59224 14.248853,4.39152 14.248853,8.37207 H 32.713633 v 8.37443 c 10.349476,3.18447 15.045014,7.55047 14.248853,13.12324 l -9.500016,40.6186 h 54.867436 l -9.497649,-40.6186 c 0,-5.57279 4.818697,-9.93877 14.372072,-13.12324 v -8.37443 H 82.832257 c 0,-3.98058 4.818697,-6.77983 14.372072,-8.37207 v -7.25121 H 82.832257 c 0,-3.98057 4.818697,-6.77987 14.372072,-8.37205 v -8.24885 H 84.081067 v -7.24882 h -8.374425 c -3.184417,-7.16495 -4.874423,-19.0282 -4.874423,-35.74655 7.164973,2.38834 11.986084,4.28219 14.374451,5.87443 2.388351,1.59224 4.405419,2.82949 5.997646,3.6256 1.592228,-7.9611 1.592228,-15.91099 0,-23.87209 -6.368908,4.77656 -12.752037,7.12323 -19.120908,7.12323 28.134642,-50.64236 2.442548,-52.43616 -7.123238,-52.43616 z m 0,13.0664 c 15.745571,0 3.472813,24.67144 0,32.24653 -3.490199,-7.39756 -15.74557,-32.24653 0,-32.24653 z m -9.625625,85.98837 H 74.45782 v 3.62559 H 55.334545 Z m -4.748826,10.74884 h 28.620925 c -3.184453,2.38834 -4.748824,5.51705 -4.748824,9.49765 H 57.708969 c 0,-3.98056 -2.346605,-7.10932 -7.12325,-9.49765 z m 0,15.49767 h 28.620925 c -3.184453,2.38833 -4.748824,5.6427 -4.748824,9.62326 H 56.585733 c 0,-3.98057 -2.019421,-7.23494 -6.000014,-9.62326 z m 1.251189,16.74886 h 27.369736 c -3.184453,3.18441 -5.53101,8.00317 -7.123236,14.37207 l 8.374436,29.87213 H 49.336898 l 8.372071,-29.87213 c 0,-5.57279 -1.891493,-10.39152 -5.872061,-14.37207 z" />
</svg>
