<?xml version="1.0" encoding="UTF-8" standalone="no"?>
<svg
   width="800"
   height="1000"
   version="1.1"
   id="svg1"
   sodipodi:docname="13840.svg"
   inkscape:version="1.4.2 (f4327f4, 2025-05-13)"
   xmlns:inkscape="http://www.inkscape.org/namespaces/inkscape"
   xmlns:sodipodi="http://sodipodi.sourceforge.net/DTD/sodipodi-0.dtd"
   xmlns="http://www.w3.org/2000/svg"
   xmlns:svg="http://www.w3.org/2000/svg">
  <defs
     id="defs1" />
  <sodipodi:namedview
     id="namedview1"
     pagecolor="#ffffff"
     bordercolor="#666666"
     borderopacity="1.0"
     inkscape:showpageshadow="2"
     inkscape:pageopacity="0.0"
     inkscape:pagecheckerboard="0"
     inkscape:deskcolor="#d1d1d1"
     inkscape:zoom="0.755"
     inkscape:cx="399.33775"
     inkscape:cy="500"
     inkscape:window-width="1680"
     inkscape:window-height="998"
     inkscape:window-x="-8"
     inkscape:window-y="-8"
     inkscape:window-maximized="1"
     inkscape:current-layer="svg1"
     showguides="true">
    <sodipodi:guide
       position="0,0"
       orientation="0,-1"
       id="guide1"
       inkscape:locked="false" />
    <sodipodi:guide
       position="338.7251,84.2168"
       orientation="1,0"
       id="guide4"
       inkscape:locked="false" />
    <sodipodi:guide
       position="0,1000"
       orientation="0,-1"
       id="guide2"
       inkscape:locked="false" />
  </sodipodi:namedview>
  <path
     style="fill:#000000;stroke:none;stroke-width:53.4178"
     d="M 185.24609,0.0234375 C 154.03239,0.45525847 127.8161,7.0870873 106.5957,19.917969 78.302003,37.025845 64.482625,65.319121 65.140625,104.79883 c -20.3978,0 -37.504366,8.55427 -51.322266,25.66211 -6.5798996,7.89598 -8.0603059,12.83072 -4.4414059,14.80468 3.6190999,1.97399 9.0471559,0.65673 16.2851559,-3.94921 13.1598,9.86989 25.990388,32.24148 38.492188,67.11523 -18.4238,382.29501 -18.4238,639.90142 0,772.81641 H 0 V 1000 h 838.94336 v -17.76562 h -64.1543 -0.98633 c 18.424,-132.91499 18.424,-390.84973 0,-773.80274 13.8179,-34.87375 26.97847,-56.91505 39.48047,-66.12695 7.2379,3.94796 12.66421,5.10005 16.28321,3.45508 3.6188,-1.64501 2.14034,-6.41656 -4.43946,-14.3125 -13.818,-17.76584 -30.92622,-26.64844 -51.32422,-26.64844 0,-26.977816 -27.6367,-42.440722 -82.9082,-46.388674 C 421.77453,25.510397 264.1846,6.593174 218.125,1.6582031 206.6101,0.42447091 195.65059,-0.12050517 185.24609,0.0234375 Z m 6.66211,25.2910155 c 9.0885,0.185067 18.81424,1.017552 29.17774,2.498047 41.4537,5.921948 186.21324,23.030443 434.27734,51.324219 59.8775,4.605983 88.49919,13.160213 85.86719,25.662111 -18.4238,0 -34.54333,8.8826 -48.36133,26.64844 -6.5799,7.89594 -8.06041,12.66749 -4.44141,14.3125 3.619,1.64497 9.04716,0.49288 16.28516,-3.45508 13.1599,9.2119 25.99029,31.2532 38.49219,66.12695 -18.4239,382.95301 -18.4239,640.88776 0,773.80274 H 634.63672 V 248.89844 h 23.6875 c 7.8959,0 11.84375,-4.27614 11.84375,-12.83008 0,-9.21193 -3.94785,-13.81836 -11.84375,-13.81836 h -23.44141 c 0.82234,-0.54834 3.70146,-3.8373 8.63672,-9.86914 5.9218,-7.23795 23.35895,-12.50301 52.31055,-15.79297 V 157.10938 H 142.12695 v 39.47851 c 28.9517,1.316 46.38855,5.92246 52.31055,13.81836 l 8.88281,11.84375 h -23.6875 c -8.554,0 -12.83203,4.60643 -12.83203,13.81836 0,8.55394 4.27803,12.83008 12.83203,12.83008 h 23.6875 V 982.23438 H 95.738281 c 18.423799,-133.57299 18.423799,-391.50773 0,-773.80274 12.501799,-34.87375 25.332289,-57.24534 38.492189,-67.11523 7.238,4.60594 12.66616,5.9232 16.28515,3.94921 3.6189,-1.97396 2.1385,-6.9087 -4.4414,-14.80468 -14.4759,-17.10784 -31.25414,-25.66211 -50.335939,-25.66211 0,-27.635813 10.528289,-48.855295 31.583989,-63.660158 15.792,-11.103681 37.32023,-16.37941 64.58593,-15.824219 z M 79.947266,122.56445 c 15.7919,0 29.278944,2.63254 40.464844,7.89649 -14.4759,17.10788 -27.962944,39.80775 -40.464844,68.10156 -12.5019,-28.29381 -26.321178,-50.99368 -41.455078,-68.10156 11.8438,-5.26395 25.663178,-7.89649 41.455078,-7.89649 z m 679.048824,0.98633 c 15.7918,0 29.281,2.63254 40.4668,7.89649 -14.4758,16.44987 -27.9648,39.14975 -40.4668,68.10156 -12.502,-28.95181 -25.98904,-51.65169 -40.46484,-68.10156 11.1859,-5.26395 24.67284,-7.89649 40.46484,-7.89649 z m -596.14257,54.28516 h 511.26171 v 0.98633 c -17.1078,0 -31.74897,5.75852 -43.92187,17.27343 -12.1729,11.51491 -18.25781,24.83877 -18.25781,39.97266 V 974.33789 H 601.07812 V 236.06836 H 234.9043 v 738.26953 h -9.8711 V 236.06836 c 0.658,-12.50189 -4.27668,-25.16713 -14.80468,-37.99805 -10.5278,-12.8309 -26.3192,-19.24804 -47.375,-19.24804 z m 93.76367,79.94531 h 322.74804 v 724.45313 h -79.15625 c 1.4181,-2.10632 2.40368,-4.16647 2.79688,-4.78711 2.5684,-9.83339 0.40981,-23.92168 -6.52148,-42.30469 V 711.43359 c -0.47801,-29.15877 2.15247,-46.84647 7.88867,-53.06054 9.0822,-27.72463 7.40867,-55.92487 -5.01953,-84.60547 13.8623,-79.82784 13.8623,-138.86258 0,-177.10352 -8.1262,-10.51621 -11.23232,-20.07749 -9.32032,-28.68164 -0.478,-4.30214 1.19338,-7.64702 5.01758,-10.03711 21.5105,-9.56023 32.26563,-26.41123 32.26563,-50.55078 0,-24.13955 -15.41625,-37.40483 -46.24805,-39.79492 -30.8317,-2.39009 -50.54814,1.67324 -59.15234,12.18945 -8.6042,10.5163 -14.34089,21.27138 -17.20899,32.26563 -0.9561,4.30213 -1.79276,8.00808 -2.50976,11.11523 -0.7171,3.10703 -2.9883,7.28878 -6.8125,12.54688 -3.8241,5.2582 -5.49754,8.6031 -5.01954,10.03711 0.4781,2.86811 2.63098,4.30273 6.45508,4.30273 0,1.91204 -1.19584,3.1079 -3.58593,3.58594 -0.4781,2.86812 0.23839,4.77831 2.15039,5.73437 -1.912,4.30214 -1.19376,6.93271 2.15234,7.88867 0.83084,3.49048 -0.31135,7.61604 1.13281,10.94141 l -20.19741,45.14475 19.87259,9.10027 13.35502,-50.59291 c 3.62046,0 12.38714,-0.97677 16.66902,-2.40403 0.956,7.64818 3.10703,14.10116 6.45313,19.35937 -12.9063,40.6309 -21.9879,76.48206 -27.2461,107.55274 h -27.24805 c -8.10689,-9.51663 -16.34433,-15.4967 -24.71093,-17.9961 0.07,-0.99479 0.14683,-1.99159 0.26953,-2.96093 0.2769,-2.12122 0.64234,-4.26733 1.52734,-6.23047 0.2578,-0.55624 0.56906,-1.09285 0.97266,-1.55664 h 8.68359 c 0.999,-0.73714 1.98099,-1.6804 2.24219,-2.94336 0.2634,-1.18554 -0.29066,-2.38493 -1.06836,-3.25781 -0.346,-0.4086 -0.74784,-0.76623 -1.15234,-1.11524 h -9.63868 c -0.01,-1.28823 0.0362,-2.6262 0.55469,-3.82617 0.11,-0.20039 0.21149,-0.4611 0.40039,-0.58008 h 9.27539 c 0.9,-0.87942 1.74274,-1.96395 1.83594,-3.26562 0.1083,-1.25574 -0.59538,-2.42401 -1.48828,-3.25 -0.3119,-0.28544 -0.64109,-0.58487 -0.99609,-0.79883 h -9.58399 c -0.01,-1.41031 0.0917,-2.8964 0.79688,-4.15235 0.082,-0.19834 0.2207,-0.30949 0.4414,-0.2539 h 8.40235 c 0.9893,-0.81799 1.94409,-1.84503 2.15429,-3.16016 0.204,-1.21264 -0.38693,-2.40757 -1.20703,-3.26758 -0.2906,-0.32152 -0.61926,-0.6045 -0.94726,-0.88672 h -9.64063 c -0.01,-1.41031 0.0917,-2.8965 0.79688,-4.15234 0.082,-0.19825 0.2207,-0.3095 0.4414,-0.25391 h 8.40235 c 0.9894,-0.81779 1.94329,-1.84542 2.15429,-3.16015 0.2024,-1.20114 -0.37539,-2.38706 -1.18359,-3.24414 -0.2973,-0.33098 -0.6338,-0.62287 -0.9707,-0.91211 h -55.95506 c -0.9899,0.81788 -1.94565,1.84679 -2.15625,3.16211 -0.2038,1.21295 0.38753,2.40689 1.20703,3.26758 0.2909,0.32143 0.62142,0.6042 0.94922,0.88671 h 8.51367 c 0.8384,1.02902 1.04403,2.40513 1.11133,3.69141 0.011,0.23805 0.0177,0.4766 0.0137,0.71484 h -9.63867 c -0.99,0.81789 -1.94575,1.84668 -2.15625,3.16211 -0.2021,1.20064 0.37835,2.38316 1.18555,3.24024 0.2973,0.33098 0.6341,0.62257 0.9707,0.91211 h 8.51367 c 0.8384,1.02892 1.04403,2.40514 1.11133,3.6914 0.011,0.23804 0.0177,0.47663 0.0137,0.71485 h -9.63867 c -0.9899,0.818 -1.9437,1.84679 -2.1543,3.16211 -0.2039,1.21293 0.38753,2.40687 1.20703,3.26757 0.2909,0.32142 0.61957,0.60226 0.94727,0.88477 h 8.53516 c 0.9071,0.96817 1.12088,2.36225 1.14648,3.63867 0,0.25667 10e-4,0.5113 -0.0156,0.76758 h -9.65429 c -0.9865,0.76142 -1.93555,1.74496 -2.15625,3.01953 -0.2304,1.23701 0.37089,2.45858 1.18359,3.35742 0.2898,0.33887 0.62102,0.63861 0.94922,0.93946 h 8.49414 c 0.8313,1.20826 1.2034,2.65746 1.5293,4.06836 0.3764,1.75242 0.59275,3.53025 0.75195,5.31445 h -9.6875 c -4.3021,1.43402 -5.97553,3.58695 -5.01953,6.45508 0.956,2.39008 3.34572,4.0616 7.16992,5.01758 -2.3901,1.91214 -2.3901,3.58552 0,5.01953 -2.8682,2.86811 -2.62735,5.49857 0.71875,7.88867 -2.8681,2.86802 -2.8681,5.49664 0,7.88672 -1.9121,3.82409 -1.19571,7.40784 2.15039,10.7539 3.824,2.86812 8.12615,4.30274 12.90625,4.30274 v 4.30273 c -5.2582,0.4779 -11.23358,0.4779 -17.92578,0 -2.8681,1.91204 -3.82514,4.06107 -2.86914,6.45117 0.956,2.3901 2.87018,4.54299 5.73828,6.45508 -1.9121,1.91203 -2.39155,4.06304 -1.43555,6.45313 0.9561,2.39005 0.9561,4.54102 0,6.45312 -0.956,1.91203 -0.59682,3.5855 1.07618,5.01953 1.6729,1.43414 2.15079,2.98713 1.43359,4.66016 -0.7168,1.67303 -0.23941,3.10577 1.43359,4.30078 1.673,1.19508 2.50977,3.22764 2.50977,6.0957 0,2.868 3.34686,5.0192 10.03906,6.45313 v 0.7168 313.33593 c -9.0821,2.39009 -13.86379,9.32266 -14.34179,20.79493 0.36829,13.95586 13.99817,23.35387 16.67187,20.01757 2.6739,-3.3364 -5.10442,-13.16357 -5.19922,-20.01953 0.4779,-6.69207 4.76298,-10.03711 11.45508,-10.03711 6.6922,0 9.97934,3.47081 10.77344,10.03711 0.794,6.56625 -8.14843,16.20267 -4.51563,20.01953 3.6329,3.81677 15.76048,-10.42593 15.98828,-20.01953 0.2299,-9.68211 -4.78169,-18.40278 -14.34179,-20.79297 V 591.69141 l 51.62695,-6.45313 c 1.4341,15.77441 4.30141,42.54375 8.60352,80.30664 4.30209,37.76289 10.3961,82.57522 18.2832,134.43946 7.8872,51.8642 10.87509,86.63978 8.96289,104.32617 -8.1261,22.46659 -33.6997,42.30323 -76.7207,59.51172 -12.9759,0 -25.18925,5.54623 -24.93555,13.625 0.05,1.61007 1.67954,3.26307 4.08984,4.78711 h -79.91992 z m 98.61719,0.49805 c -11.95031,17.20842 -20.55636,28.32261 -25.81446,33.34179 -5.2582,5.01909 -8.72348,10.75385 -10.39648,17.20703 -1.6731,6.45311 -11.35276,24.4981 -29.03906,54.13477 11.47219,-1.434 23.90075,-13.8606 37.28515,-37.2832 1.912,-3.34605 2.86914,-4.06449 2.86914,-2.15235 v 29.70085 l 16.49024,0.11719 v -30.53483 c 0,-10.99433 -2.38963,-16.25342 -7.16993,-15.77539 3.3463,-5.25811 8.12575,-12.30721 14.33985,-21.15039 6.2141,-8.84317 6.69365,-18.04524 1.43555,-27.60547 z m 101.81445,19.35937 c 16.7304,0 30.71406,1.55301 41.94726,4.66016 11.2334,3.10703 16.84961,12.07033 16.84961,26.88867 0,14.34031 -4.90012,24.85662 -14.69922,31.54883 -9.7993,6.69211 -17.32783,11.94935 -22.58593,15.77344 -8.6041,-5.25809 -14.34099,-12.66829 -17.20899,-22.22852 1.912,-2.86803 2.86719,-6.213 2.86719,-10.03711 0,-6.6921 -3.58371,-10.03711 -10.75391,-10.03711 -5.736,0 -9.56055,3.10614 -11.47265,9.32031 -0.956,-6.21417 -3.94379,-10.15899 -8.96289,-11.83203 -5.0192,-1.67303 -9.91912,-2.98543 -14.69922,-3.9414 9.5603,-20.07654 22.46645,-30.11524 38.71875,-30.11524 z m -47.32227,38.71875 c 4.3022,0 9.55934,0.95514 15.77344,2.86719 9.0822,1.43401 13.86184,5.25858 14.33984,11.47266 3.346,0 5.01954,0.9571 5.01954,2.86914 -4.78011,3.34606 -7.16993,6.69105 -7.16993,10.03711 0,4.30203 1.91408,6.45312 5.73828,6.45312 2.8681,0 6.69071,-2.38985 11.47071,-7.16992 2.8681,9.0822 10.75591,17.68627 23.66211,25.8125 -0.4779,8.12622 1.19348,15.77312 5.01757,22.94336 -3.82409,4.30203 -10.51597,6.33471 -20.07617,6.0957 -9.5604,-0.23912 -15.893,-1.79212 -19,-4.66016 -3.1071,-2.86801 -5.3785,-7.88649 -6.8125,-15.05664 -1.434,-2.86803 -3.34437,-4.30273 -5.73437,-4.30273 -4.3021,0 -12.42861,0.71638 -24.37891,2.15039 -2.39,-0.47804 -3.70456,-1.55159 -3.94336,-3.22461 -0.2391,-1.67313 -0.60002,-3.70562 -1.07812,-6.0957 5.7362,-1.91206 9.56065,-4.30385 11.47265,-7.17188 -4.3021,-3.34605 -7.8858,-5.4951 -10.7539,-6.45117 v -2.86914 c 4.7801,-0.95597 7.16992,-2.39069 7.16992,-4.30273 -1.4339,-2.38999 -3.10743,-3.58399 -5.01953,-3.58399 -1.434,0.95607 -1.6729,1.67235 -0.7168,2.15039 0.478,0.95597 -0.71588,1.55415 -3.58398,1.79297 -2.8681,0.23902 -4.30274,0.11867 -4.30274,-0.35937 0,-0.95598 0.2388,-1.91122 0.7168,-2.86719 6.692,-10.03827 10.75545,-18.88112 12.18945,-26.5293 z m 43.73828,1.4336 c 4.7802,0 7.16993,1.91222 7.16993,5.73632 0,3.34605 -0.59797,6.21539 -1.79297,8.60547 -1.1951,2.38999 -3.46455,5.25737 -6.81055,8.60352 -3.346,3.34605 -5.73788,5.01758 -7.17187,5.01758 -1.43401,0 -2.38909,-0.35717 -2.86719,-1.07422 -0.478,-0.71706 -0.23921,-2.03132 0.71679,-3.94336 l 5.01758,-5.01953 5.02149,-4.30078 c 0.956,-0.47813 0.59693,-1.55549 -1.07617,-3.22852 -1.6731,-1.67302 -1.79338,-3.22615 -0.35938,-4.66016 1.4341,-1.434 2.86863,-1.434 4.30273,0 1.4341,1.43401 1.6728,3.1075 0.7168,5.01954 -0.956,1.91205 -3.34572,5.25899 -7.16992,10.03906 l 0.7168,0.71484 c 4.3021,-4.78007 6.81044,-7.88619 7.52734,-9.32031 0.7171,-1.434 1.07813,-3.5851 1.07813,-6.45313 0,-1.91214 -1.67324,-2.86718 -5.01954,-2.86718 -2.3899,0 -3.94511,0.47762 -4.66211,1.43359 -0.717,0.95607 -1.07617,2.15195 -1.07617,3.58594 0,1.91206 1.19594,3.58357 3.58594,5.01758 l -4.30078,2.86914 c -1.434,-3.34605 -1.79337,-6.81142 -1.07617,-10.39649 0.7169,-3.58517 3.22729,-5.37891 7.52929,-5.3789 z m -38.13672,1.70312 c -1.7028,0.0595 -3.33116,0.44907 -4.88476,1.16602 -1.434,1.91205 -1.434,3.34471 0,4.30078 4.7802,-2.86812 12.18826,-0.95578 22.22656,5.73633 h 5.01953 v -2.86915 h -5.01953 c -6.4531,-5.73613 -12.23289,-8.51322 -17.3418,-8.33398 z m 1.20899,6.18555 c -2.6289,0 -4.30048,0.47567 -5.01758,1.43164 -0.717,0.95597 -1.07617,2.15193 -1.07617,3.58594 0,2.86812 1.67343,4.30273 5.01953,4.30273 3.3461,0 7.64815,-1.19399 12.90625,-3.58398 -5.2581,-3.82419 -9.20293,-5.73633 -11.83203,-5.73633 z m 28.32227,15.05664 c -1.43401,0.47794 -2.1504,1.19442 -2.1504,2.15039 0,0.47804 0.7164,0.95555 2.1504,1.43359 1.434,0 2.15234,-0.47762 2.15234,-1.43359 0,-0.95608 -0.71834,-1.67246 -2.15234,-2.15039 z m -46.60547,15.05664 9.32226,1.43359 v 0.71875 l -5.73828,-0.71875 c -2.868,0.47794 -4.06198,1.3e-4 -3.58398,-1.43359 z m 12.18945,4.30273 c 1e-4,0.47804 -3.34491,1.43319 -10.03711,2.86719 -0.9561,0.47804 -1.43555,0.47804 -1.43555,0 0,-1.434 0.71835,-2.15039 2.15235,-2.15039 h 3.58398 z m 74.57031,47.32227 c 14.3403,31.07069 12.42807,86.52177 -5.73633,166.34961 15.7743,30.59274 16.96839,56.64182 3.58399,78.15234 -5.7361,33.9387 -7.64843,86.75938 -5.73633,158.46094 -0.9559,80.30597 -1.1947,122.1324 -0.7168,125.47852 7.1702,21.03245 6.45391,32.26529 -2.15039,33.69921 h -82.45703 c 23.9005,-10.03825 43.25983,-24.61791 58.07813,-43.73828 4.3021,-20.07654 3.46543,-49.35202 -2.50977,-87.83203 -5.9751,-38.47984 -14.22003,-97.51667 -24.73633,-177.10547 -10.5162,-79.58889 -2.38979,-163.35846 24.37891,-251.3125 12.9063,3.82409 25.57365,3.10577 38.00195,-2.15234 z m -171.36719,83.89258 c 6.6923,0.47813 12.18999,0.71484 16.49219,0.71484 v 3.58594 h -8.60547 c -4.3022,-0.47803 -6.93062,-1.9107 -7.88672,-4.30078 z m 35.84961,2.86718 c 6.6922,0.95597 15.77585,8.60492 27.24805,22.94532 h 28.67969 l -0.7168,7.16992 h -12.18945 c -13.8623,3.34616 -27.96429,4.54006 -42.30469,3.58398 1.434,-2.86801 0.95651,-4.78025 -1.43359,-5.73633 2.8681,-0.47793 4.78022,-1.43318 5.73632,-2.86718 0.95601,-1.43401 0.23961,-2.86863 -2.15039,-4.30274 3.3461,0 5.25843,-1.43462 5.73633,-4.30273 0,-1.91205 -1.43463,-3.3448 -4.30273,-4.30078 2.39,-1.43411 3.22686,-2.98908 2.50976,-4.66211 -0.7169,-1.67302 -2.9884,-2.98543 -6.8125,-3.94141 z m -29.39648,5.01758 30.11328,2.15235 c 1.9121,0.95597 1.9121,2.15007 0,3.58398 l -30.11328,-2.15039 c -0.956,-1.434 -0.956,-2.62996 0,-3.58594 z m 0,6.45508 32.26562,3.58399 c 1.9121,0.95596 1.9121,1.91317 0,2.86914 l -32.26562,-2.86914 c -0.956,-1.43402 -0.956,-2.62801 0,-3.58399 z m 0,7.16992 29.39648,2.86719 c 1.434,1.43401 1.19521,2.62996 -0.71679,3.58594 l -28.67969,-2.15039 c -0.956,-1.91205 -0.956,-3.34676 0,-4.30274 z m 0.7168,8.60352 20.79297,1.43359 c 1.4341,1.43411 1.43409,2.62996 0,3.58594 l -20.79297,-0.7168 c -0.9559,-1.91205 -0.9559,-3.34666 0,-4.30273 z m 70.98437,12.90625 h 10.75391 l -2.14844,22.22656 h -20.07813 c -13.3844,-11.95019 -24.61691,-17.92383 -33.69921,-17.92383 v -2.86914 c 12.9064,1.91204 27.96347,1.43447 45.17187,-1.43359 z m -55.52344,15.10351 c 15.6847,-0.62732 29.1738,5.33109 40.4668,17.87891 h 22.22656 v 6.45508 h -15.77539 c -24.3786,5.2581 -40.62976,6.69088 -48.75586,4.30078 -2.868,-3.34607 -4.42135,-7.40945 -4.66015,-12.18945 -0.2388,-4.78024 -0.35938,-10.03728 -0.35938,-15.77344 2.3303,-0.35859 4.61672,-0.58223 6.85742,-0.67188 z"
     id="path1-2"
     sodipodi:nodetypes="scccccccccccccccscccsssscccscccccsssccccccccssscccccscccsscccsscccscccssccccccccccccccccccccccssscccccccccccccccccccccccccccccccccccccccccccccccccccccccccccccccccccccccccccccccccccscssccssccccscsssscccssccccccccccssccscscscscccsscscsccccsscccsscsccccccccccsccsscssscccsssscccsssscccsccccccccsssscscscsccccccccssccccccccccssccccccccccccccscccccccccccccccccccccccccccccccccccccccscc" />
  <path
     style="fill:#000000;stroke:none;stroke-width:60.5392"
     d="m 338.74121,344.85995 c -9.04976,0 -30.82683,6.46451 -6.85833,49.60778 -4.51896,0 -10.12978,-2.22015 -16.90828,-6.7391 -2.2595,7.53163 -2.2595,15.05187 0,22.5835 6.7785,-3.76583 12.81928,-6.72841 18.09138,-8.98791 0,15.81648 -1.47945,27.03995 -4.49212,33.81839 h 20.33469 c -3.01262,-6.77843 -4.61134,-18.00191 -4.61134,-33.81839 6.77846,2.25951 11.33973,4.05149 13.59925,5.55783 2.25951,1.50635 4.16706,2.67691 5.6734,3.43008 1.50633,-7.53163 1.50633,-15.05187 0,-22.5835 -6.02534,4.51888 -12.06425,6.7391 -18.08955,6.7391 26.61691,-47.91044 2.31065,-49.60778 -6.7391,-49.60778 z m 0,12.36113 c 14.89616,0 3.28547,23.34109 0,30.50755 -3.30192,-6.9985 -14.89618,-30.50755 0,-30.50755 z"
     id="path8"
     sodipodi:nodetypes="scccccccscccsscs" />
</svg>
