<?xml version="1.0" encoding="UTF-8" standalone="no"?>
<svg
   width="1000"
   height="1000"
   version="1.1"
   id="svg1"
   sodipodi:docname="1389A.svg"
   inkscape:version="1.4.2 (f4327f4, 2025-05-13)"
   xmlns:inkscape="http://www.inkscape.org/namespaces/inkscape"
   xmlns:sodipodi="http://sodipodi.sourceforge.net/DTD/sodipodi-0.dtd"
   xmlns:xlink="http://www.w3.org/1999/xlink"
   xmlns="http://www.w3.org/2000/svg"
   xmlns:svg="http://www.w3.org/2000/svg">
  <defs
     id="defs1" />
  <sodipodi:namedview
     id="namedview1"
     pagecolor="#ffffff"
     bordercolor="#666666"
     borderopacity="1.0"
     inkscape:showpageshadow="2"
     inkscape:pageopacity="0.0"
     inkscape:pagecheckerboard="0"
     inkscape:deskcolor="#d1d1d1"
     inkscape:zoom="0.53386562"
     inkscape:cx="486.07738"
     inkscape:cy="650.91286"
     inkscape:window-width="1680"
     inkscape:window-height="998"
     inkscape:window-x="-8"
     inkscape:window-y="-8"
     inkscape:window-maximized="1"
     inkscape:current-layer="svg1"
     showguides="true">
    <sodipodi:guide
       position="356.00195,557.93555"
       orientation="1,0"
       id="guide4"
       inkscape:locked="false" />
  </sodipodi:namedview>
  <path
     style="fill:#000000;stroke:none;stroke-width:55.6398"
     d="m 763.57031,0 c 2.4532,6.1331051 7.97226,15.333437 16.5586,27.599609 8.58634,12.266174 15.33184,29.284179 20.23828,51.056641 4.9065,21.77246 11.19302,36.33951 18.85937,43.69922 7.66636,7.3597 14.87274,12.57213 21.61914,15.63867 h -9.19922 c -3.67983,2.45323 -3.67983,4.90614 0,7.35938 h 3.67969 l 3,12.74804 c -5.29251,1.54966 -9.97228,3.43411 -14.03906,5.65235 -5.51977,5.5198 -9.35341,11.80636 -11.5,18.85937 -2.14659,7.05305 -3.52537,12.11312 -4.13867,15.17969 -4.29317,8.58631 -6.44141,18.0913 -6.44141,28.51758 -12.26617,14.7194 -17.4786,23.30656 -15.63867,25.75976 2.45324,2.45327 4.90614,4.29293 7.35937,5.51953 l -0.91992,2.75977 c -3.67987,1.83994 -3.67987,4.29284 0,7.35937 -2.45327,5.51977 -1.22682,8.58592 3.67969,9.19922 0,14.10615 5.82764,21.16016 17.48047,21.16016 h 20.23828 c 2.45323,6.13307 6.1326,12.57195 11.03906,19.31836 -30.05214,0 -52.43683,11.04003 -67.15625,33.11914 -15.946,14.10611 -39.55914,33.42468 -70.83789,57.95703 -20.85251,0.6133 -56.42352,3.68141 -106.71484,9.20117 -12.87948,-15.3327 -25.14596,-26.67935 -36.79883,-34.03906 -9.19964,-4.90647 -13.64649,-5.36738 -13.33984,-1.38086 0.30668,3.98648 1.99401,6.59367 5.06054,7.82031 -8.77483,3.80795 -14.6958,11.35272 -16.56054,15.63867 -2.40986,5.53886 -1.53341,13.18703 2.75976,23 14.71941,6.13307 32.50686,10.7323 53.35938,13.79883 33.11864,4.29318 77.27677,5.51959 132.47461,3.67969 37.41182,-26.37232 65.01089,-52.74491 82.79687,-79.11719 l -20.24023,33.11914 c 3.67983,13.49281 9.81405,23.91959 18.40039,31.2793 v 30.35938 c -6.13307,2.45323 -18.24722,8.73978 -36.33985,18.85937 -18.09262,10.11959 -37.25886,18.2458 -57.49804,24.37891 -22.69241,-15.94604 -41.39774,-23.6133 -56.11719,-23 -9.19964,-0.6133 -10.11951,3.37264 -2.75977,11.95898 -4.53102,2.57006 -4.60201,5.29759 -0.34805,8.37244 1.28877,0.93155 0.4261,1.97148 -0.11093,2.66858 -2.28439,2.96528 -2.30084,5.67177 -0.46094,7.81836 1.83994,2.14658 2.30081,4.29287 1.38086,6.43945 -0.91999,2.14659 0.0985,4.82966 2.75977,8.28125 2.55945,3.31959 6.8485,6.54723 9.6582,6.89844 14.10611,0 29.13209,-2.45294 45.07812,-7.35938 36.79852,-4.29316 68.99874,-11.65188 96.59766,-22.07812 0.6133,1.2266 0.30672,21.15842 -0.91992,59.79687 -41.70499,7.97304 -105.79689,24.83871 -192.27344,50.59766 -29.43881,12.26617 -42.93175,38.33221 -40.47851,78.19726 -6.74641,54.5845 -11.3456,120.20752 -13.79883,196.8711 -0.6133,17.78601 -4.90587,33.12052 -12.87891,46 -7.973,12.87947 -35.8787,24.53076 -83.71679,34.95703 -18.39924,6.13307 -27.29299,15.64006 -26.67969,28.51953 h 154.55469 c 17.78597,-1.8399 27.59756,-7.05233 29.4375,-15.63867 1.83994,-8.5863 0.46114,-17.63239 -4.13868,-27.13867 -4.59982,-9.5063 -3.83424,-31.74057 2.29883,-66.69922 h 23 V 1000 H 959.52148 V 559.33789 c 0,-4.90651 2.45295,-7.35937 7.35938,-7.35937 4.90647,0 7.35937,2.45286 7.35937,7.35937 v 76.35742 h 19.32032 v -83.71679 c 0,-12.87948 -8.58712,-19.32032 -25.75977,-19.32032 -18.39927,0 -27.59766,6.44084 -27.59766,19.32032 v 7.35937 h -11.04101 c 3.06657,-41.09173 5.52143,-84.0234 7.36133,-128.79492 h 31.27734 V 368.9043 c 7.97301,-7.973 11.19344,-17.93891 9.66016,-29.89844 -1.53325,-11.95952 -4.75369,-17.93945 -9.66016,-17.93945 0,-66.23738 -10.42483,-118.98067 -31.27734,-158.23243 -2.4122,-2.41221 -6.15823,-4.39364 -11.23633,-5.94336 l 2.03516,-11.5371 h 4.59961 c 3.06653,-2.45324 3.06653,-4.90615 0,-7.35938 h -9.19922 c 6.74636,-3.06654 13.95278,-8.27897 21.61914,-15.63867 7.66635,-7.35971 13.9529,-21.92676 18.85937,-43.69922 4.90651,-21.772462 11.65394,-38.790467 20.24024,-51.056641 C 992.02775,15.333437 997.5468,6.1331051 1000,0 c -6.74637,1.8399353 -15.94674,9.3529404 -27.59961,22.539062 -10.46433,11.841274 -20.18538,34.191698 -29.16601,67.052735 0.43243,-3.023095 0.64843,-6.207278 0.64843,-9.554688 0,-24.453348 -14.51218,-60.71875 -61.63867,-60.71875 -52.37446,0 -61.63672,41.972928 -61.63672,60.71875 0,3.361013 0.21835,6.55774 0.6543,9.591797 C 812.2503,56.747733 802.37266,34.38476 791.62891,22.539062 779.66938,9.3529404 770.31668,1.8399353 763.57031,0 Z m 118.67383,32.199219 c 33.40394,0 47.83789,25.117011 47.83789,46.917969 0,13.492771 -4.59923,24.839422 -13.79883,34.039062 -9.19964,9.19964 -20.54625,13.79883 -34.03906,13.79883 -14.10611,0 -25.75934,-4.59919 -34.95898,-13.79883 -9.1996,-9.19964 -13.79883,-20.54629 -13.79883,-34.039062 0,-20.269561 12.8021,-46.917969 48.75781,-46.917969 z M 843.60547,145.35352 h 75.4375 l -1.70313,9.65429 c -8.41395,-1.52987 -19.19329,-2.29297 -32.33593,-2.29297 -15.33557,0 -28.49264,1.18764 -39.47071,3.56446 z m 39.09961,23 c 9.0463,0 18.24469,0.61322 27.59765,1.83984 18.70593,2.45324 31.73991,39.55731 39.09961,111.31445 V 413.06445 H 898.80469 V 236.42969 c 0,-17.17264 -6.13418,-25.75782 -18.40039,-25.75781 -12.26614,-10e-6 -18.39844,-2.75953 -18.39844,-8.2793 0,-5.51977 -11.95986,-10.42753 -35.87891,-14.7207 2.4532,-9.19964 12.41911,-15.02528 29.89844,-17.47852 8.73964,-1.22662 17.63338,-1.83984 26.67969,-1.83984 z m -54.45117,32.06836 c 20.66083,1.00622 30.99218,11.16905 30.99218,30.48828 h 4.59961 c 3.06654,-9.19964 7.3591,-13.79883 12.87891,-13.79883 6.13307,0 7.20719,6.59317 3.2207,19.77929 -3.98652,13.18616 -8.12675,19.7793 -12.41992,19.7793 -2.45324,0 -3.67969,-1.8397 -3.67969,-5.51953 v -6.43945 h -4.59961 v 6.43945 c 0,6.74637 2.75953,10.11914 8.2793,10.11914 6.1331,0 10.7323,-5.21244 13.79883,-15.63867 v 64.39648 c -4.90647,4.90648 -12.57181,5.82634 -22.99805,2.75977 -6.7464,-6.74637 -11.04092,-15.63816 -12.88086,-26.67773 H 819.6875 c -9.19964,1.83993 -13.49221,-1.84138 -12.87891,-11.04102 l 13.79883,-7.35938 c 0,-1.22664 -5.21243,-3.98616 -15.63867,-8.27929 l -6.44141,1.83984 3.67969,-5.51953 -3.67969,-1.83984 c -2.45323,-1.22664 -3.83201,-2.75971 -4.13867,-4.59961 -0.30664,-1.83994 3.83362,-8.28078 12.41992,-19.32032 2.45328,-3.67987 3.98631,-6.89832 4.59961,-9.6582 0.6133,-2.75989 3.37283,-5.21474 8.2793,-7.36133 4.90647,-2.14658 10.57977,-2.14658 17.01953,0 6.43971,2.14659 12.41968,3.52733 17.93945,4.14063 v -3.67969 c -7.3597,-1.83993 -14.41379,-3.98621 -21.16015,-6.43945 -6.74641,-2.45324 -13.7985,-1.53341 -21.15821,2.75976 1.2266,-3.67987 3.37288,-6.74598 6.43946,-9.19922 3.3732,-0.22998 6.53478,-0.2746 9.48633,-0.13085 z m 0.44531,15.08593 c -0.84728,0.0502 -7.61672,0.93794 -10.39258,4.82422 -1.53329,2.14658 -3.52528,3.83199 -5.97852,5.05859 v 1.83985 c 3.06654,0.6133 5.51945,1.3808 7.35938,2.30078 1.83993,0.91995 4.90605,1.07228 9.19922,0.45898 4.29313,-0.61334 8.89236,-2.75962 13.79883,-6.43945 h 11.96093 v -2.75976 h -11.96093 c -5.36644,-3.75653 -10.02857,-5.51801 -13.98633,-5.28321 z m -28.33203,33.80274 c 0,3.67983 2.76145,5.51953 8.28125,5.51953 3.06654,-3.67984 0.30509,-5.51953 -8.28125,-5.51953 z m 80.95703,76.35547 v 67.1582 c -9.81293,17.17264 -20.23777,35.2648 -31.27734,54.27734 -10.42625,3.06658 -18.40016,5.21286 -23.91993,6.43946 v -27.59766 c -11.03958,-7.97304 -16.55859,-15.94692 -16.55859,-23.91992 15.94605,-23.91905 22.99814,-42.47209 21.1582,-55.65821 -1.83994,-13.18616 15.02574,-20.08591 50.59766,-20.69921 z m 32.19922,103.95703 5.51953,0.91992 c -1.83989,45.38486 -3.83193,79.1162 -5.97852,101.19531 -2.14658,22.07911 -1.83996,49.83248 0.91993,83.25781 2.75988,33.42534 -13.64684,50.13672 -49.21876,50.13672 H 671.57227 c -17.78598,0 -26.67774,9.50699 -26.67774,28.51953 v 179.39258 h -64.39844 c 1.2266,-43.54492 6.13437,-103.34223 14.72071,-179.39258 -3.06654,-33.11864 9.81316,-53.66371 38.63867,-61.63672 76.05027,-23.30574 140.44684,-39.56016 193.19141,-48.75976 1.22663,-49.67803 1.83984,-78.1969 1.83984,-85.55664 12.87947,-4.29317 28.21211,-11.95851 45.99805,-22.99805 12.8795,-11.65283 25.75919,-26.67884 38.63867,-45.07812 z m 14.71875,148.11328 H 939.2832 V 817.84766 H 836.24609 v 162.83398 h -172.0332 v -287.0293 c 0,-6.13306 2.4529,-9.19921 7.35938,-9.19922 H 863.8457 c 57.03774,0 78.50259,-35.57299 64.39649,-106.71679 z m -72.67578,259.42969 83.71679,0.91992 v 142.5957 l -83.71679,-0.002 z m -275.07032,53.35742 h 24.83985 c -4.90647,36.79855 -5.21306,61.94465 -0.91992,75.4375 4.29316,13.49273 -2.4543,19.93357 -20.24024,19.32031 l -100.27539,0.91992 c -17.17264,0.61334 -14.10653,-2.14814 9.19922,-8.28125 33.73195,-6.7464 56.57758,-17.17127 68.53711,-31.27734 11.95952,-14.10614 18.24603,-32.8134 18.85937,-56.11914 z"
     id="path1"
     sodipodi:nodetypes="csssccccccscccccccsccccccscscccccccscccssssscccccccscccssccccsssccssscccccscccccccssscscssscscssssssscccsccsscccssscsssccssssccssccccccccccsscsssccsccsssccssccccscccccccccscccsssssccccccccccccccscsccccccccscccsc" />
  <path
     id="path3"
     style="fill:#000000;stroke:none;stroke-width:79.761"
     d="m 380.12465,404.3979 c -0.46299,34.81521 29.02455,44.76639 84.35034,9.19958 0,17.64808 -3.92181,34.80381 -11.76553,51.47134 10.78482,3.92176 22.5487,3.43179 35.29452,-1.47043 -5.88237,-14.70653 -7.84307,-32.35242 -5.88174,-52.94178 l 73.53596,5.88175 v -26.47391 l -72.06351,7.3542 c -0.98027,-17.64806 0.49149,-35.7878 4.41333,-54.41624 -11.76531,-2.9412 -23.53322,-2.44928 -35.29856,1.47245 7.84349,17.64807 11.76553,34.80382 11.76553,51.47135 -55.43717,-36.4717 -83.88734,-26.36349 -84.35034,8.45169 z m 12.44571,0.37293 c 0,-25.9868 29.21816,-18.1864 60.1391,-8e-5 -29.53965,19.68839 -60.1391,25.98691 -60.1391,8e-5 z"
     sodipodi:nodetypes="zcccccccccczzcz" />
  <use
     x="0"
     y="0"
     xlink:href="#path3"
     id="use4"
     transform="rotate(180,528.98827,462.10002)" />
</svg>
