<?xml version="1.0" encoding="UTF-8" standalone="no"?>
<svg
   width="600"
   height="1000"
   version="1.1"
   id="svg1"
   sodipodi:docname="138EC.svg"
   inkscape:version="1.4.2 (f4327f4, 2025-05-13)"
   xmlns:inkscape="http://www.inkscape.org/namespaces/inkscape"
   xmlns:sodipodi="http://sodipodi.sourceforge.net/DTD/sodipodi-0.dtd"
   xmlns="http://www.w3.org/2000/svg"
   xmlns:svg="http://www.w3.org/2000/svg">
  <defs
     id="defs1" />
  <sodipodi:namedview
     id="namedview1"
     pagecolor="#ffffff"
     bordercolor="#666666"
     borderopacity="1.0"
     inkscape:showpageshadow="2"
     inkscape:pageopacity="0.0"
     inkscape:pagecheckerboard="0"
     inkscape:deskcolor="#d1d1d1"
     inkscape:zoom="1.0677312"
     inkscape:cx="610.17228"
     inkscape:cy="486.54566"
     inkscape:window-width="1680"
     inkscape:window-height="998"
     inkscape:window-x="-8"
     inkscape:window-y="-8"
     inkscape:window-maximized="1"
     inkscape:current-layer="svg1" />
  <path
     id="path5"
     style="fill:#000000;stroke:none;stroke-width:55.638"
     d="m 303.92188,0.03320312 c -2.90027,0.15105403 -26.31849,2.27598618 -29.4004,31.55468788 -1.85996,17.669541 7.35776,51.80299 42.26368,75.800779 14.70074,10.10675 30.93384,21.59191 48.69726,34.45508 0.6125,1.83761 -1.22599,2.75586 -5.51367,2.75586 h -90.04297 c 7.35037,15.31324 11.63821,34.60857 12.86328,57.88477 -1.83757,6.73786 -2.14301,13.16962 -0.91797,19.29492 -6.73783,11.63809 -10.10742,19.90638 -10.10742,24.80664 0,1.83757 3.06416,3.06325 9.18945,3.67578 -0.48353,2.99615 -2.2009,6.69662 1.83594,7.35156 -2.36823,4.13914 -0.16491,6.89007 2.75782,8.26758 -2.45011,12.25063 2.44859,18.06956 14.69921,17.45703 l 10.10743,0.91992 c -0.61254,6.12534 0.3057,11.63689 2.75586,16.53711 h -21.13086 c -25.7263,0.61254 -42.57225,13.17062 -50.53516,37.67188 -18.16059,31.31012 -32.30211,64.96145 -41.49219,92.52539 -18.87768,11.71699 -48.16929,32.221 -87.87695,61.51367 -6.50968,-5.85977 -13.710768,-10.41476 -20.871095,-13.66797 V 302.63281 c 12.250595,-31.85162 23.583035,-52.06518 33.996095,-60.64062 6.12529,3.67518 10.56588,4.59538 13.32226,2.75781 2.75638,-1.83761 1.68538,-6.12545 -3.21484,-12.86328 -11.02555,-15.92581 -28.78976,-23.88867 -53.291015,-23.88867 -24.501256,0 -42.265462,7.96286 -53.291016,23.88867 -5.512757,6.73783 -6.736476,11.02567 -3.673828,12.86328 3.062647,1.83757 7.655918,0.91737 13.78125,-2.75781 9.80048,8.57544 20.825544,28.789 33.076172,60.64062 v 176.19336 l -15.490234,-0.008 c -1.301647,7.81241 0.650115,12.36935 5.857422,13.66992 -0.650647,15.62302 3.123492,27.01545 9.632812,34.17578 V 998.16211 H 91.203125 V 526.66406 c 9.113335,-3.90712 18.268135,-7.48702 26.730465,-10.74023 56.63233,-21.48134 90.11636,-43.64813 107.40625,-60.53906 25.94105,-37.3485 39.16024,-52.74919 52.85547,-96.70508 3.06265,7.9629 0.6133,17.45687 -7.34961,28.48242 3.06265,7.96291 7.35048,13.3237 12.86328,16.08008 5.51276,2.75641 8.26954,6.27872 8.26954,10.5664 -15.31328,112.70573 -22.35789,181.00191 -21.13282,204.89063 11.6381,66.76586 17.76247,104.74366 18.375,113.93164 0.61254,9.18798 -0.61114,35.67866 -3.67382,79.47461 -3.06266,43.79599 -6.12681,74.57646 -9.18946,92.33984 -2.45011,15.31324 -4.89946,25.72549 -7.34961,31.23828 -9.80048,15.92586 -29.86136,27.71837 -60.18164,35.375 -30.32028,7.65664 -45.17308,14.54659 -44.56055,20.67188 v 6.43164 l 37.66993,0.91797 c 23.88872,-5.51265 44.71513,-5.81823 62.47851,-0.91797 18.98846,1.83775 34.30136,0.61384 45.93946,-3.67383 11.63808,-4.28779 26.64551,-2.45115 45.02148,5.51172 20.21349,-1.83757 25.41962,-13.47549 15.61914,-34.91406 -1.22507,-15.31332 -0.76493,-26.79845 1.37891,-34.45508 2.14388,-7.65664 3.52222,-16.38507 4.13476,-26.18555 6.1253,-75.34134 7.96187,-132.61249 5.51172,-171.81445 -2.45011,-39.20199 -0.30623,-91.57445 6.43164,-157.11524 7.96287,-28.78898 10.41226,-51.14645 7.34961,-67.07226 -11.02555,-28.78894 -17.14993,-51.75927 -18.375,-68.91016 L 381.10156,407.37695 390.28906,389 c 3.14469,18.98846 9.69489,44.40814 19.65271,76.25977 -0.84012,15.92577 2.19682,33.84269 9.10954,53.75 6.91274,19.90722 10.86767,51.70985 13.95712,76.21111 l 18.64626,-5.62235 c 1.53636,-51.45262 -3.97417,-90.34294 -15.15036,-116.06923 -3.04095,-36.13932 -10.3822,-82.38544 -15.89495,-138.73828 -5.51277,-21.43862 -21.43848,-32.77102 -47.77735,-33.9961 -4.90023,-7.9629 -7.04414,-16.53667 -6.43164,-25.72461 L 495.03125,9.5371094 C 489.51846,4.0243138 483.69951,1.5749631 477.57422,2.1875 l -79.01563,140.57617 c -6.73783,3.06265 -36.75276,-16.54005 -90.04297,-58.804686 -14.08823,-14.700738 -21.43824,-29.400823 -22.05078,-44.101562 -0.61254,-14.700739 3.82802,-23.276415 13.32227,-25.726563 9.49425,-2.45011 15.77329,-1.071761 18.83594,4.134766 3.06264,5.20649 2.75527,10.107181 -0.91993,14.701172 -3.67518,4.59399 -6.73737,4.59399 -9.1875,0 -2.45013,-4.593991 -4.89949,-6.890625 -7.3496,-6.890625 -4.90026,1.837611 -5.97318,6.125449 -3.2168,12.863281 2.75641,6.737833 7.80979,9.800037 15.16016,9.1875 13.32937,-0.616761 19.01525,-10.728674 19.29492,-22.970703 0,-17.6874965 -16.39184,-25.75276316 -28.48242,-25.12304688 z M 476.65625,21.482422 480.33203,22.400391 362.72461,254.85547 351.69922,242.91211 c 11.19526,-13.11364 23.58428,-25.91112 16.08008,-44.10352 -3.98146,-8.57544 -14.24294,-9.49369 -30.78125,-2.75586 -12.86316,-7.35033 -27.25778,-9.49429 -43.1836,-6.43164 L 285.54688,155.625 H 405.9082 Z M 311.33008,200.81836 c 15.7344,-0.11485 23.37151,4.42336 22.91211,13.61133 h 7.35156 c 0,-7.35037 3.36764,-11.33279 10.10547,-11.94531 7.35037,1.22506 8.88147,6.43116 4.59375,15.61914 l -20.21289,26.64648 20.21289,20.21289 c -3.06265,11.02559 -2.14245,22.96891 2.75781,35.83203 -12.25063,3.67522 -22.66479,3.67522 -31.24023,0 -5.5128,-1.22507 -8.575,-9.49337 -9.1875,-24.80664 h -15.61914 c -6.73788,0 -10.10743,-2.14395 -10.10743,-6.43164 0.61254,-6.12533 3.98209,-9.49492 10.10743,-10.10742 0,-3.67519 -1.22563,-5.51172 -3.67579,-5.51172 l -11.94531,-0.91992 c 2.45012,-4.90026 7.3e-4,-8.26786 -7.34961,-10.10547 0,-3.06265 3.3696,-10.10726 10.10742,-21.13281 v -10.10742 l 1.8379,2.75781 c 4.90025,-3.06265 8.8807,-4.59375 11.94336,-4.59375 3.67518,0 8.57583,0.91824 14.70117,2.75586 h 11.02539 v -3.67578 h -11.02539 c -5.5128,-2.45012 -10.41346,-3.67579 -14.70117,-3.67579 -4.28774,0 -8.88104,1.83849 -13.78126,5.51368 0,-2.45012 0.91829,-5.20685 2.75586,-8.26953 7.04411,-1.07195 13.1888,-1.62774 18.4336,-1.66602 z m -11.54297,12.23242 c -5.20653,0.30633 -8.72883,4.74686 -10.56641,13.32227 5.12056,3.41374 18.56336,6.4701 23.88868,-5.51172 h 16.53906 v -5.51367 h -14.70117 c -5.31553,-1.99331 -10.43092,-2.57513 -15.16016,-2.29688 z m 2.29687,3.21484 c 3.67519,2e-5 7.04478,0.61282 10.10743,1.8379 -1.83762,3.06264 -4.28697,5.51395 -7.34961,7.35156 1.97245,-2.95868 2.03604,-8.01875 -2.75782,-9.18946 z m -5.51171,0.91993 c -1.93212,3.86429 -1.77325,7.37901 1.83789,9.1875 l -5.51368,-0.91797 c 0,-3.06268 1.22567,-5.81942 3.67579,-8.26953 z m -214.556645,7.34961 c 12.863165,0 23.888235,2.45134 33.076175,7.35156 -12.25063,15.31327 -23.275695,36.13968 -33.076175,62.47851 -9.80048,-26.33883 -20.825544,-47.16524 -33.076172,-62.47851 9.187943,-4.90022 20.213007,-7.35156 33.076172,-7.35156 z m 257.968755,89.35351 c 18.22278,0.15313 36.21706,1.30147 53.98046,3.44531 -7.3504,12.86317 -14.39498,38.59023 -21.13281,77.17969 h -73.50391 c -9.18797,0.61254 -13.78124,-2.45158 -13.78124,-9.18945 15.31331,-29.40148 15.00589,-52.36989 -0.91993,-68.9082 18.6822,-1.83759 37.13462,-2.68047 55.35743,-2.52735 z m -37.9004,87.97461 h 69.82813 l -1.83594,3.67578 h -67.07226 z m 11.94532,14.70117 h 46.85742 c -1.22507,29.40148 2.14451,54.51573 10.10742,75.3418 7.96287,20.82607 9.18854,41.65053 3.67578,62.47656 -5.5128,20.82607 -8.575,44.56197 -9.1875,71.20703 -0.61253,26.64514 -1.83817,52.21945 -3.67578,76.72071 5.5128,49.00244 3.36884,116.07497 -6.43164,201.21679 h -57.88477 c 11.6381,-100.45506 13.32188,-172.88835 5.05274,-217.29687 -8.26917,-44.40852 -12.40235,-71.20659 -12.40235,-80.39453 1.22506,-42.87718 9.1879,-105.96728 23.88868,-189.27149 z m 0.91797,499.82422 h 21.13281 c 3.06264,12.86313 1.68426,23.7374 -4.13477,32.61914 -5.81906,8.88168 -15.16029,14.85334 -28.02343,17.91602 -1.83759,-10.41302 1.83744,-27.25894 11.02539,-50.53516 z"
     sodipodi:nodetypes="ssscscccscccccccccccccscscscccccccccccccsccssccsccccsccscsccccccsccccccccccssssscssssccccscccccscccccccccsccccccccsccccsccsscccccsccccccccscccsscccccscccccccssscccsccccscc" />
  <path
     style="fill:#000000;stroke:none;stroke-width:49.7907"
     d="m 422.16274,651.47252 c 6.19039,1.31557 9.80122,-0.65707 10.83176,-5.92008 12.37935,0.6576 21.40648,-3.1569 27.08017,-9.73586 v -19.50133 c -3.09592,-9.21082 -5.93256,-18.46356 -8.51033,-27.01642 l -18.55591,5.92205 c -4.64316,6.57932 -8.25243,13.85744 -10.83021,21.09437 l -0.009,19.50133 z"
     id="path8"
     sodipodi:nodetypes="ccccccccc" />
  <path
     id="path3"
     style="fill:#000000;stroke:none;stroke-width:79.761"
     d="m 447.97314,620.47504 c -34.81521,-0.46299 -44.76639,29.02455 -9.19958,84.35034 -17.64808,0 -34.80381,-3.92181 -51.47134,-11.76553 -3.92176,10.78482 -3.43179,22.5487 1.47043,35.29452 14.70653,-5.88237 32.35242,-7.84307 52.94178,-5.88174 l -5.88175,73.53596 h 26.47391 l -7.3542,-72.06351 c 17.64806,-0.98027 35.7878,0.49149 54.41624,4.41333 2.9412,-11.76531 2.44928,-23.53322 -1.47245,-35.29856 -17.64807,7.84349 -34.80382,11.76553 -51.47135,11.76553 36.4717,-55.43717 26.36349,-83.88734 -8.45169,-84.35034 z m -0.37293,12.44571 c 25.9868,0 18.1864,29.21816 8e-5,60.1391 -19.68839,-29.53965 -25.98691,-60.1391 -8e-5,-60.1391 z"
     sodipodi:nodetypes="zcccccccccczzcz" />
</svg>
