<?xml version="1.0" encoding="UTF-8" standalone="no"?>
<svg
   width="2277.4395"
   height="1004"
   id="svg2237"
   sodipodi:version="0.32"
   inkscape:version="1.4.2 (f4327f4, 2025-05-13)"
   sodipodi:docname="1392A.svg"
   inkscape:output_extension="org.inkscape.output.svg.inkscape"
   sodipodi:modified="true"
   version="1.1"
   xmlns:inkscape="http://www.inkscape.org/namespaces/inkscape"
   xmlns:sodipodi="http://sodipodi.sourceforge.net/DTD/sodipodi-0.dtd"
   xmlns="http://www.w3.org/2000/svg"
   xmlns:svg="http://www.w3.org/2000/svg"
   xmlns:rdf="http://www.w3.org/1999/02/22-rdf-syntax-ns#"
   xmlns:cc="http://creativecommons.org/ns#"
   xmlns:dc="http://purl.org/dc/elements/1.1/">
  <metadata
     id="metadata2244">
    <rdf:RDF>
      <cc:Work
         rdf:about="">
        <dc:format>image/svg+xml</dc:format>
        <dc:type
           rdf:resource="http://purl.org/dc/dcmitype/StillImage" />
      </cc:Work>
    </rdf:RDF>
  </metadata>
  <defs
     id="defs2242" />
  <sodipodi:namedview
     inkscape:window-height="998"
     inkscape:window-width="1680"
     inkscape:pageshadow="2"
     inkscape:pageopacity="0.0"
     guidetolerance="10.0"
     gridtolerance="10.0"
     objecttolerance="10.0"
     borderopacity="1.0"
     bordercolor="#666666"
     pagecolor="#ffffff"
     id="base"
     inkscape:showpageshadow="2"
     inkscape:pagecheckerboard="0"
     inkscape:deskcolor="#d1d1d1"
     inkscape:zoom="0.38643386"
     inkscape:cx="1432.3279"
     inkscape:cy="505.90805"
     inkscape:window-x="-8"
     inkscape:window-y="-8"
     inkscape:window-maximized="1"
     inkscape:current-layer="svg2237"
     showguides="true">
    <sodipodi:guide
       position="270.81427,817.35773"
       orientation="0,-1"
       id="guide1"
       inkscape:locked="false" />
    <sodipodi:guide
       position="165.61696,649.4762"
       orientation="0,-1"
       id="guide2"
       inkscape:locked="false" />
    <sodipodi:guide
       position="2277.4395,982"
       orientation="0,1"
       id="guide5"
       inkscape:locked="false"
       inkscape:label=""
       inkscape:color="rgb(0,134,229)" />
    <sodipodi:guide
       position="2215.4603,649.4762"
       orientation="1,0"
       id="guide6"
       inkscape:locked="false" />
    <sodipodi:guide
       position="65.01732,649.4762"
       orientation="1,0"
       id="guide7"
       inkscape:locked="false" />
    <sodipodi:guide
       position="232.89885,817.35773"
       orientation="0.70710678,-0.70710678"
       id="guide3"
       inkscape:locked="false" />
    <sodipodi:guide
       position="2047.5788,817.35773"
       orientation="0.70710678,0.70710678"
       id="guide4"
       inkscape:locked="false" />
  </sodipodi:namedview>
  <path
     style="fill:#000000;stroke:none;stroke-width:86.8056"
     d="m 1619.2344,218.55859 c -0.9919,0 -4.1933,1.33264 -4.9063,4.95313 -0.9818,4.98556 -1.7767,11.43273 -5.334,19.05469 -3.5564,7.62194 -5.8428,13.46623 -6.8593,17.53125 -1.0165,6.09757 -1.0165,11.68623 0,16.76757 2.0326,9.14629 3.556,18.80224 4.5722,28.96485 2.0325,38.61789 7.6216,72.15367 16.7676,100.60937 37.6018,8.13012 81.8102,12.19532 132.6231,12.19532 15.2435,4.06499 18.2927,13.21179 9.1464,27.43945 3.0487,7.1138 7.1138,11.6862 12.1954,13.71875 5.0807,2.03255 7.621,5.08146 7.621,9.14648 -14.2277,103.6585 -20.8329,166.1585 -19.8164,187.5 11.179,60.97563 17.0171,95.78173 17.5293,104.41993 0.5087,8.63819 -0.7619,32.77601 -3.8105,72.41015 -3.0486,39.63411 -5.589,67.5797 -7.6211,83.83985 -2.0321,14.2276 -4.5725,23.88324 -7.6211,28.96484 -9.1463,14.22761 -27.4399,24.89801 -54.8789,32.01172 -27.439,7.11381 -40.6513,13.21137 -39.6348,18.29297 v 6.09769 h 33.5371 c 22.3578,-4.06514 41.6676,-4.06514 57.9278,0 17.2764,2.033 31.2492,1.0162 41.9199,-3.04887 10.6707,-4.0651 24.1362,-2.54145 40.3965,4.57227 18.2924,-1.0162 22.8651,-11.68646 13.7187,-32.01172 0,-14.2276 0.7628,-24.6441 2.2871,-31.25 1.5225,-6.60573 2.2871,-14.48264 2.2871,-23.6289 6.0991,-68.08948 7.8748,-120.17281 5.334,-156.25 -2.5401,-36.07727 -0.2523,-84.09531 6.8614,-144.05469 7.1137,-26.42274 9.1462,-46.74694 6.0976,-60.97461 -10.1624,-26.42274 -15.753,-47.25607 -16.7695,-62.5 l 3.0488,-30.48828 c 4.065,-11.17888 9.1466,-22.86541 15.2442,-35.06055 h 24.3867 v -9.14648 c 46.7479,0 88.9238,-4.0652 126.5254,-12.19532 10.1624,-28.45527 15.751,-61.99148 16.7675,-100.60937 1.0157,-10.16261 2.5421,-19.81856 4.5743,-28.96485 1.0164,-5.08132 1.0164,-10.67 0,-16.76757 0,-4.06504 -2.0326,-9.90929 -6.0977,-17.53125 -4.0607,-7.62199 -4.4869,-13.84382 -5.2192,-18.97382 -0.4062,-2.84523 -3.3345,-4.89641 -6.1916,-4.32967 l -13.7396,2.72536 c -1.4935,0.29625 -2.2871,1.52357 -2.2871,4.57227 3.0495,8.13009 5.844,14.73702 8.3848,19.81836 2.5408,5.08131 3.8105,13.20979 3.8105,24.38867 0,2.27662 -1.809,6.2243 -3.0488,0 -0.6275,-3.15051 -1.5234,-7.11398 -1.5234,-12.19531 0,-4.06502 -0.7629,-7.62114 -2.2872,-10.66993 -1.5243,-3.04878 -3.3038,-4.06506 -5.3359,-3.04882 -2.0321,1.01623 -2.0321,4.06514 0,9.14648 0,4.06504 -0.5072,10.4165 -1.5234,19.05469 -1.0162,8.6382 2.0327,19.05486 9.1465,31.25 -7.1138,31.50405 -12.7045,57.41891 -16.7696,77.74414 -29.4716,-2.03255 -59.9588,-2.03255 -91.4629,0 -5.0814,-3.04878 -9.6535,-5.58855 -13.7187,-7.6211 v 0 c 0,-54.87806 -8.1286,-96.03756 -24.3887,-123.47656 -11.1788,-16.26016 -32.0121,-24.39062 -62.5,-24.39062 -31.5041,0 -50.305,14.73544 -56.4023,44.20703 -4.065,18.29264 -8.6391,32.0138 -13.7207,41.16015 -1.0165,4.06502 0.5071,6.09571 4.5722,6.09571 2.0339,1.01623 2.2899,2.28811 0.7656,3.8125 -1.5243,1.52439 -0.7634,3.30142 2.2852,5.33398 -2.033,4.06501 -0.5074,6.09766 4.5742,6.09766 -2.0313,3.04878 -1.7771,6.3533 0.7637,9.91015 2.5405,3.55669 6.6059,4.82678 12.1953,3.81055 5.5893,-1.01658 10.9243,-1.52539 16.0059,-1.52539 2.0326,8.13004 5.5888,15.24423 10.6699,21.3418 h -22.8652 c -12.195,2.03253 -25.9144,7.11402 -41.1583,15.24414 -31.5041,-2.03255 -61.9931,-2.03255 -91.4648,0 -3.0487,-20.32523 -8.6374,-46.24009 -16.7676,-77.74414 7.1143,-12.19514 10.163,-22.6118 9.1465,-31.25 -1.0165,-8.63819 -1.0165,-14.98967 0,-19.05469 1.0165,-5.08134 1.0165,-8.13025 0,-9.14648 -3.0486,-1.01624 -5.3351,4e-5 -6.8594,3.04882 -1.5226,3.04879 -2.2871,6.60491 -2.2871,10.66993 0,8.59254 -1.3544,15.24414 -2.2871,15.24414 -3.8218,0 -2.5457,-19.38549 2.2852,-27.4375 3.0486,-5.08131 6.1223,-11.57325 7.6211,-19.81836 0.5453,-2.99954 -0.8038,-4.21317 -2.2852,-4.57227 l -14.1484,-3.42969 z m 199.3633,20.19727 c 24.3903,0 41.6674,6.09784 51.83,18.29297 16.26,27.43901 24.3887,70.12198 24.3887,128.04883 v 32.01172 h -56.4023 v -97.56055 c 7.1134,-10.16261 10.6718,-18.80025 10.6718,-25.91406 0,-16.26015 -5.0815,-24.39063 -15.2441,-24.39063 -9.1467,0 -13.7207,3.04891 -13.7207,9.14648 -3.0492,1.01627 -6.6048,-1.77903 -10.6699,-8.38476 -4.065,-6.60539 -15.2445,-8.89193 -33.5371,-6.85938 4.065,-16.26015 18.2934,-24.39062 42.6836,-24.39062 z m -34.2989,32.77539 c 11.4329,0 18.2935,2.2862 20.5801,6.85937 3.0487,6.09751 10.67,11.17911 22.8652,15.24415 0,-10.16258 2.0326,-15.24415 6.0977,-15.24415 3.0486,0 4.5723,5.08159 4.5723,15.24415 0,7.11383 -3.5563,15.24232 -10.67,24.38867 v 48.78125 h -13.7207 c -6.0976,-6.09757 -11.6859,-16.26067 -16.7675,-30.48828 -5.0813,-1.01623 -10.9254,-0.76073 -17.5313,0.76367 -6.6058,1.52439 -10.4151,1.01533 -11.4316,-1.52539 -1.0165,-2.54062 -2.0324,-7.87574 -3.0489,-16.00586 1.0165,-3.04879 1.0165,-5.33499 0,-6.85938 -1.0156,-1.52431 -3.5578,-1.77795 -7.623,-0.76172 l 10.6719,-22.86718 c 7.1138,-7.1138 20.3258,-7.62093 39.6347,-1.52344 v -3.04883 c -19.3089,-6.09757 -32.0141,-7.11384 -38.1113,-3.04883 l 1.5254,-9.14648 c 4.8272,-0.50813 9.1461,-0.76172 12.957,-0.76172 z m 0.7893,15.25241 c -0.017,-6.2e-4 -10.1962,-0.27019 -11.4611,3.03861 -1.3967,2.70878 -4.2527,4.03341 -6.8594,5.33593 v 3.04883 h 4.5742 c 7.4017,3.0297 17.0648,2.17052 25.9141,-4.57226 h 10.6699 v -3.04883 h -10.6699 c -5.3354,-2.28659 -8.1659,-3.65351 -12.1678,-3.80228 z m -1.551,2.27689 c 2.7145,0.32347 6.4327,1.17801 10.6699,3.04883 -9.1814,4.93174 -13.2164,7.15147 -22.8652,3.04882 1.0059,-0.14609 2.0323,-0.76272 3.0488,-2.28711 1.0165,-1.52448 2.0324,-2.28515 3.0489,-2.28515 -0.2215,3.16592 1.078,6.09765 4.5722,6.09765 2.6643,0 4.6147,-4.53461 1.5254,-7.62304 z m 0,89.93945 h 44.207 v 48.78125 h 41.1582 l -9.1464,24.38867 h -67.0723 c -9.1467,0 -13.7207,-3.04891 -13.7207,-9.14648 l 4.5742,-13.71875 z m 10.6699,79.26758 h 64.0254 l -1.5254,3.04883 h -62.5 z m 10.6719,13.7207 h 42.6816 c -1.0162,26.42274 2.0323,49.28874 9.1465,68.59766 7.1137,19.30897 8.1305,38.61681 3.0489,57.92578 -5.0816,19.30891 -7.8727,40.905 -8.3848,64.78711 -0.5078,23.88212 -1.2687,47.00167 -2.2852,69.35937 5.0817,44.71545 3.0487,106.1991 -6.0976,184.45118 h -53.3535 c 11.1788,-92.4797 12.9555,-158.78935 5.334,-198.93165 -7.6223,-40.14225 -11.4317,-64.78723 -11.4317,-73.93359 1.0163,-38.61794 8.1304,-96.03642 21.3418,-172.25586 z m 1.5234,455.79297 h 18.293 c 5.9353,23.73543 -3.8218,41.54108 -28.9629,45.73047 v 0 c -2.0325,-9.14626 1.5255,-24.38907 10.6718,-45.73047 z"
     id="path4"
     sodipodi:nodetypes="sscccccccscccsccsccccscccccccccccccccccssscsssssscscccsscscccsccscccccccscccssssscsscscccsscscssscssccccssccccccccssccccccccscccscsccccccscccccccccccscccccccccsscc" />
  <path
     style="fill:#000000;stroke:none;stroke-width:86.8056"
     d="m 244.49414,218.43359 c -0.73756,-0.10775 -3.29198,1.33401 -5.16406,5.07813 0,5.08131 -1.77908,11.43273 -5.33594,19.05469 -3.55694,7.62194 -5.84313,13.46623 -6.85937,17.53125 -1.01623,6.09757 -1.01623,11.17913 0,15.24414 2.03253,10.16256 3.556,20.32567 4.57226,30.48828 2.03253,38.61789 7.62317,72.1541 16.76953,100.60937 37.60162,7.11388 79.77546,11.17906 126.52344,12.19532 v 9.14648 h 24.39062 c 7.11377,12.19514 12.19531,23.88167 15.24415,35.06055 l 3.04882,28.96289 c -1.01621,16.26018 -6.60685,37.09352 -16.76953,62.5 -3.04872,15.24392 -1.01611,36.07726 6.09766,62.5 7.11383,58.94312 9.4,106.45399 6.85937,142.53125 -2.54068,36.07719 -0.76163,88.66771 5.33594,157.77344 0,9.14627 1.0163,17.02317 3.04883,23.6289 2.03252,6.60564 2.54165,17.0224 1.52539,31.25 -9.14636,19.30894 -4.57396,29.97912 13.71875,32.01172 17.27645,-7.1138 31.2492,-8.89271 41.91992,-5.33594 10.67072,3.55904 24.64543,4.82704 41.92188,3.81054 15.24393,-4.06509 34.04464,-4.06509 56.40234,0 h 35.06055 v -6.09569 c 0,-6.09757 -13.7192,-12.45074 -41.15821,-19.05664 -27.43906,-6.60573 -45.73261,-17.5296 -54.8789,-32.77344 -3.04879,-4.06501 -5.58854,-13.21185 -7.6211,-27.43945 -2.03255,-17.27648 -4.57425,-45.7311 -7.62304,-85.36524 -3.04887,-39.63414 -4.31836,-63.77001 -3.81055,-72.4082 0.50816,-8.6382 6.35237,-42.93711 17.53125,-102.89649 1.01626,-22.35775 -5.58874,-84.85775 -19.81641,-187.5 0,-4.06504 2.53979,-7.36752 7.6211,-9.9082 5.08132,-2.54063 9.14653,-7.36859 12.19531,-14.48242 -9.14635,-13.21139 -6.09744,-21.84907 9.14648,-25.91406 50.81296,-1.01626 95.01948,-5.08144 132.6211,-12.19532 10.16262,-28.45527 15.75327,-61.99148 16.76953,-100.60937 1.01626,-10.16261 2.53974,-20.32564 4.57227,-30.48828 1.01623,-4.06505 1.01623,-9.14657 0,-15.24414 -1.01624,-4.06504 -3.30252,-9.90928 -6.85938,-17.53125 -3.55694,-7.62198 -5.33594,-13.97336 -5.33594,-19.05469 -0.90188,-2.94738 -2.76225,-4.65619 -4.19246,-4.51509 l -14.86222,1.46626 c -1.51703,0.14967 -2.28711,1.52552 -2.28711,4.57422 3.04879,8.13009 5.84413,14.98864 8.38476,20.57812 2.54062,5.58941 3.81055,13.4663 3.81055,23.62891 -1.01623,2.03256 -1.77735,3.04883 -2.28516,3.04883 -0.50781,0 -0.76367,-0.50916 -0.76367,-1.52539 -1.01658,-3.04879 -1.52344,-7.62118 -1.52344,-13.71875 0,-4.06501 -0.76272,-7.62114 -2.28711,-10.66992 -1.52439,-3.04879 -3.30338,-3.55795 -5.33593,-1.52539 -2.03255,1.01623 -2.03255,3.55802 0,7.62304 0,5.08131 -0.50718,11.93994 -1.52344,20.57813 -1.01626,8.6382 2.03265,19.05486 9.14648,31.25 -8.13009,30.48779 -13.72075,56.40265 -16.76953,77.74414 -29.47153,-2.0322 -59.95884,-2.54162 -91.46289,-1.52539 -15.24393,-8.13012 -28.96306,-13.20964 -41.1582,-15.24219 h -22.86524 c 5.08131,-5.08131 8.6374,-12.1955 10.66993,-21.3418 5.08131,0 10.67,0.50719 16.76757,1.52344 15.90255,2.65042 14.44827,-10.01258 13.72071,-12.19531 4.06502,0 5.08129,-2.53976 3.04882,-7.6211 3.04871,-2.03255 3.81151,-3.55798 2.28711,-4.57421 -1.52439,-1.01624 -1.27075,-2.53972 0.76172,-4.57227 4.06501,1.01623 6.09766,-0.50725 6.09766,-4.57227 -6.09751,-9.14635 -11.17912,-23.37467 -15.24414,-42.68359 -6.09757,-28.45532 -24.89829,-42.68359 -56.40235,-42.68359 -30.48779,-1.01626 -51.32112,7.11417 -62.5,24.39062 C 383.13047,277.37391 375,318.5334 375,374.42773 c -4.06504,2.03253 -8.63744,4.06319 -13.71875,6.09571 -31.50406,-1.01626 -61.99331,-0.50713 -91.46484,1.52539 -3.04878,-21.34149 -8.63745,-47.25635 -16.76758,-77.74414 7.11381,-12.19514 10.16271,-22.6118 9.14648,-31.25 -1.01658,-8.63819 -1.52539,-15.4968 -1.52539,-20.57813 2.03255,-4.06502 2.03255,-6.60681 0,-7.62304 -2.03256,-2.03256 -3.80959,-1.5234 -5.33398,1.52539 -1.52439,3.04878 -2.28711,6.60491 -2.28711,10.66992 0,6.09757 -0.50916,10.66996 -1.52539,13.71875 0,1.01658 -0.25391,1.52539 -0.76172,1.52539 -0.50816,0 -1.26893,-1.01627 -2.28516,-3.04883 0,-10.16261 1.26987,-18.0395 3.81055,-23.62891 2.54063,-5.58948 5.33402,-12.44811 8.38281,-20.57812 0,-3.0487 -0.77676,-4.35386 -2.28515,-4.57422 z m 217.39648,20.32227 c 24.39022,0 39.12573,8.13044 44.20704,24.39062 -19.30897,-2.03255 -30.99553,9e-5 -35.06055,6.09766 -4.06502,6.09757 -7.6231,9.14648 -10.67188,9.14648 0,-7.11379 -4.06519,-10.67187 -12.19531,-10.67187 -11.17891,0 -16.76758,8.13049 -16.76758,24.39063 0,7.11382 3.5561,15.75145 10.66993,25.91406 v 99.08594 h -56.40235 v -33.53711 c 0,-57.92685 8.1305,-100.10069 24.39063,-126.52344 10.16261,-12.19513 27.43979,-18.29297 51.83007,-18.29297 z m 47.25586,33.53711 1.52344,9.14648 c -6.09757,-5.08131 -18.80041,-4.065 -38.10937,3.04883 v 3.04883 c 19.30896,-7.11378 32.52093,-6.6066 39.63476,1.52344 l 10.66992,22.86718 c -4.06502,-1.01632 -6.60485,-0.76267 -7.62109,0.76172 -1.01623,1.52439 -0.50912,3.30144 1.52344,5.33399 -2.03256,8.13012 -3.55604,13.46718 -4.57227,16.00781 -1.01626,2.54097 -4.82795,3.30139 -11.43359,2.28516 -6.60573,-1.01658 -11.94085,-1.52344 -16.00586,-1.52344 -6.09757,15.24386 -11.68633,25.40694 -16.76758,30.48828 H 452.74414 V 316.5 c -7.1138,-9.14635 -10.67187,-17.27682 -10.67187,-24.39062 0,-9.14627 2.03263,-13.71876 6.09765,-13.71876 3.04878,10e-6 4.57422,4.57246 4.57422,13.71876 12.19514,-4.06505 19.81651,-9.14665 22.86524,-15.24415 3.29504,-6.59008 15.92189,-7.35362 33.5371,-4.57226 z m -12.52929,13.33789 c -4.33532,0.19036 -7.28815,1.90529 -11.86133,3.42969 h -12.19531 v 4.57422 h 12.19531 c 8.72945,8.12919 15.65628,6.76204 25.91406,4.57226 h 3.04883 v -4.57226 l -3.04883,-1.52539 c -1.01624,-10e-6 -2.0326,-0.76272 -3.04883,-2.28711 -2.57843,-3.86778 -7.72751,-4.33529 -11.0039,-4.19141 z m -0.67188,3.38672 c -1.51658,3.33857 0.0514,7.1582 3.71485,7.1582 3.15701,0 4.9585,-2.87191 3.38867,-7.11523 l 6.09765,6.09765 c -7.57523,3.89324 -15.40532,1.1054 -21.13086,-3.04882 1.69437,-0.28239 6.61345,-3.07286 7.92969,-3.0918 z m -43.20117,88.45898 h 44.20703 v 50.30469 l 4.57227,15.24219 c 0,6.09757 -4.06324,9.14648 -12.19336,9.14648 h -68.59766 l -9.14648,-24.38867 h 41.1582 z m -30.48828,80.79102 h 64.02539 v 3.04883 h -62.5 z m 10.67187,13.7207 h 42.68165 c 13.21139,76.21944 20.32553,133.63792 21.34179,172.25586 0,8.1301 -3.81166,32.51958 -11.43359,73.16992 -7.62199,40.65046 -5.84294,106.70845 5.33594,198.17188 H 437.5 c -9.14635,-77.23583 -11.17897,-138.21229 -6.09766,-182.92774 -1.01626,-22.3577 -1.77902,-45.73082 -2.28711,-70.12109 -0.50816,-24.39022 -3.3015,-45.9863 -8.38281,-64.78711 -5.08125,-18.80081 -4.06495,-37.85509 3.04883,-57.16406 7.11383,-19.30892 10.16274,-42.17492 9.14648,-68.59766 z m 22.86524,455.79297 h 18.29297 c 9.14635,21.3414 12.70244,36.58421 10.66992,45.73047 -25.3053,-6.32634 -34.85484,-24.12682 -28.96289,-45.73047 z"
     id="path3"
     sodipodi:nodetypes="scccccccccccccscsccccccssccscccsccccccscsscscscssccsccccccsccsccccccccccccsscscccssscscsscccscsccccccscscccccsscscsccccccccsscsccccccccsccccccccccccscccsssccccc" />
  <path
     style="fill:#000000;stroke:none;stroke-width:86.8056"
     d="m 1160.1289,218.02539 c -2.2583,-0.38185 -3.761,2.84222 -4.6426,5.48633 0,4.06505 -1.7776,9.90929 -5.334,17.53125 -3.5565,7.62193 -5.8428,13.97335 -6.8593,19.05469 -1.0165,5.08131 -1.0165,10.16281 0,15.24414 2.0321,9.1463 3.5557,18.80028 4.5722,28.96289 2.0326,38.61788 7.6233,72.1541 16.7696,100.60937 37.6017,8.13012 81.8081,12.19532 132.6211,12.19532 15.2439,4.06499 18.2928,13.21179 9.1464,27.43945 3.0488,7.11383 7.1132,11.94144 12.1954,14.48242 5.0807,2.54071 7.623,5.84318 7.623,9.9082 -14.2277,102.64225 -20.8349,164.63311 -19.8184,185.97461 11.1789,60.97563 17.0192,95.78369 17.5313,104.42188 0.5087,8.6382 -0.762,32.77406 -3.8106,72.4082 -3.0495,39.63414 -5.5909,67.58165 -7.623,83.8418 -2.0321,14.22761 -4.5725,23.88129 -7.6211,28.96289 -9.1464,14.22769 -27.4399,24.89801 -54.8789,32.01172 -27.439,7.11381 -40.6493,13.72113 -39.6328,19.81836 v 6.09769 h 33.5351 c 22.3577,-5.08164 41.6676,-5.08164 57.9278,0 17.2764,1.0165 31.2492,-0.5091 41.9199,-4.57426 10.6708,-4.0651 24.1363,-2.5395 40.3965,4.57426 18.2924,-1.0163 22.867,-11.68845 13.7207,-32.01371 0,-14.22761 0.7608,-24.64409 2.2851,-31.25 1.5225,-6.60564 2.2872,-14.4806 2.2872,-23.62695 6.0998,-68.08947 7.8767,-120.17281 5.3359,-156.25 -2.541,-36.07726 -0.2543,-84.09532 6.8594,-144.05469 7.1138,-26.42274 9.1462,-46.74889 6.0976,-60.97656 -10.1625,-25.40648 -15.753,-46.23982 -16.7695,-62.5 l 3.0488,-28.96289 c 4.065,-12.19514 9.147,-24.3908 15.2442,-36.58594 h 24.3886 v -9.14648 c 46.7481,-10e-6 88.9219,-4.0652 126.5235,-12.19532 10.1624,-28.45527 15.751,-61.99149 16.7675,-100.60937 1.0156,-10.16261 2.5422,-19.81659 4.5743,-28.96289 1.0165,-5.08131 1.0165,-10.1628 0,-15.24414 0,-5.08131 -2.0326,-11.43273 -6.0977,-19.05469 -4.0608,-7.62199 -3.9801,-13.38312 -4.5723,-17.53125 -0.5178,-3.6271 -4.6918,-5.56515 -6.1511,-5.33399 l -14.427,2.28516 c -1.5039,0.2382 -2.2871,1.52552 -2.2871,4.57422 3.0494,8.13009 5.844,14.73507 8.3848,19.81641 2.5408,5.08131 3.8105,13.21174 3.8105,24.39062 0,2.03256 -0.5069,3.04883 -1.5234,3.04883 -1.0122,0 -1.5254,-0.50916 -1.5254,-1.52539 -1.0122,-4.06505 -1.5234,-8.63741 -1.5234,-13.71875 0,-4.06501 -0.7629,-7.62114 -2.2872,-10.66992 -1.5243,-3.04879 -3.6687,-2.95958 -5.3931,-2.09721 -1.8175,0.90895 -1.9749,3.11352 0.057,8.19486 0,5.08131 -0.5069,11.68629 -1.5234,19.81641 -1.0162,8.13009 2.0328,18.2932 9.1465,30.48828 -7.1138,31.50405 -12.7025,57.41696 -16.7676,77.74219 -29.4716,-2.03255 -59.9608,-2.03255 -91.4649,0 -5.0815,-3.04878 -9.6536,-5.58855 -13.7187,-7.6211 v 0 c 0,-54.87806 -8.1285,-96.03561 -24.3887,-123.47461 -11.1789,-16.26015 -32.0122,-24.39062 -62.5,-24.39062 -31.5041,0 -50.3051,14.73545 -56.4023,44.20703 -4.065,19.30892 -8.6391,33.02808 -13.7207,41.1582 -1.0165,4.06502 0.509,6.09766 4.5742,6.09766 2.0338,1.01623 2.288,2.28616 0.7637,3.81055 -1.5243,1.5244 -0.7635,3.30338 2.2851,5.33593 -2.033,4.06502 -0.5074,6.09766 4.5742,6.09766 -3.5981,5.40074 0.5228,15.97981 12.959,13.71875 5.5895,-1.01658 10.9243,-1.52344 16.0059,-1.52344 2.0328,8.13004 5.5883,15.24423 10.6699,21.3418 h -22.8652 c -12.1952,2.03252 -25.9144,7.11207 -41.1582,15.24219 -31.5041,-2.03255 -61.9934,-2.03255 -91.4649,0 -3.0488,-20.32523 -8.6374,-46.23814 -16.7676,-77.74219 7.1143,-12.19508 10.163,-22.35816 9.1465,-30.48828 -1.0164,-8.1301 -1.0164,-14.73508 0,-19.81641 1.0165,-5.08134 1.0165,-7.62304 0,-7.62304 -3.0494,-2.03256 -5.3351,-1.5234 -6.8594,1.52539 -1.5226,3.04878 -2.2871,6.60491 -2.2871,10.66992 0,5.08134 -0.5089,9.65373 -1.5254,13.71875 0,1.01658 -0.2514,1.52539 -0.7636,1.52539 -0.5078,0 -1.2687,-1.01627 -2.2852,-3.04883 0,-11.17888 1.5237,-19.30929 4.5723,-24.39062 3.0495,-5.08131 5.5909,-11.68629 7.623,-19.81641 0,-3.0487 -0.784,-4.32007 -2.2871,-4.57422 z m 199.627,19.20703 c 24.3902,0 41.6674,6.09588 51.83,18.29102 16.2601,27.439 24.3907,70.12198 24.3907,128.04883 v 32.01367 h -56.4043 v -97.5625 c 7.1134,-10.16261 10.6718,-18.80026 10.6718,-25.91406 0,-16.26015 -5.0815,-24.39063 -15.2441,-24.39063 -9.1465,0 -13.7188,3.04891 -13.7188,9.14648 -3.0493,1.01623 -6.6067,-1.52352 -10.6718,-7.62109 -4.0651,-6.09757 -15.2445,-8.63928 -33.5371,-7.62305 4.065,-16.26015 18.2933,-24.38867 42.6836,-24.38867 z m -34.2989,32.77344 c 11.433,0 18.2935,2.2862 20.5801,6.85937 3.0488,6.0975 10.6702,11.1791 22.8652,15.24415 v 0 c 0,-10.16258 2.0306,-15.24415 6.0957,-15.24415 3.0486,0 4.5742,5.08159 4.5742,15.24415 0,7.11382 -3.5582,15.24427 -10.6719,24.39062 v 48.78125 h -13.7187 c -6.0975,-6.09757 -11.6879,-16.26067 -16.7695,-30.48828 -5.0813,-1.01623 -10.9234,-0.76267 -17.5293,0.76172 -6.6057,1.5244 -10.4171,1.01727 -11.4336,-1.52344 -1.0165,-2.54062 -2.0325,-7.87769 -3.0489,-16.00781 1.0164,-3.04879 1.0164,-5.33498 0,-6.85938 -1.0165,-1.5243 -3.5559,-1.77795 -7.6211,-0.76172 l 10.67,-22.86523 c 7.1138,-7.11381 20.3258,-7.62287 39.6347,-1.52539 v -3.04883 c -19.3089,-6.09756 -32.0121,-7.11385 -38.1093,-3.04883 l 1.5234,-9.14648 c 4.8272,-0.50813 9.1461,-0.76172 12.957,-0.76172 z m -10.6699,19.05469 c -1.6362,2.559 -4.2929,3.28933 -6.8594,4.57422 v 4.57226 l 4.5723,-0.86719 c 9.5401,2.23213 17.5476,0.52126 25.9141,-5.23046 h 10.6699 v -3.04883 h -10.6699 c -8.4083,-3.60346 -18.1582,-7.29232 -23.627,0 z m 9.9082,-1.52344 c 1.0163,0 4.5727,1.01628 10.6699,3.04883 -3.4639,2.52828 -6.9727,4.00905 -11.2109,3.98433 1.3766,-0.98441 2.0645,-2.31157 2.0645,-3.98437 0,-1.01623 -0.507,-2.0326 -1.5235,-3.04883 z m -6.0976,1.52344 c -0.6118,1.81921 -0.601,5.07255 1.8339,5.98242 -2.7327,0.41111 -5.3678,-0.56839 -7.9316,-1.4082 1.0165,0 2.0323,-0.76272 3.0488,-2.28711 1.0165,-1.52448 2.0324,-2.28711 3.0489,-2.28711 z m 6.0976,88.41601 h 44.207 v 48.7793 h 41.1582 l -9.1464,24.39062 h -67.0723 c -9.1465,0 -13.7207,-3.04891 -13.7207,-9.14648 l 4.5742,-13.71875 z m 10.6699,80.79102 h 64.0254 l -1.5254,1.52539 h -62.5 z m 10.6719,12.19531 h 42.6817 c -1.0162,27.43901 2.0326,50.55857 9.1464,69.35938 7.1137,18.8008 8.1305,37.85704 3.0489,57.16601 -5.0808,19.30891 -7.8708,40.90304 -8.3829,64.78516 -0.5077,23.88212 -1.2706,47.00363 -2.2871,69.36133 5.0814,44.71546 3.0484,106.19908 -6.0976,184.45117 h -53.3535 c 11.1788,-91.46343 12.9583,-157.52142 5.3359,-198.17188 -7.6221,-40.65034 -11.4336,-65.03979 -11.4336,-73.16992 1.0163,-39.63414 8.1305,-97.56174 21.3418,-173.78125 z m 1.5234,457.31836 h 18.293 c 5.5998,20.53386 -2.5903,39.81249 -28.9629,44.20703 -2.0325,-9.14627 1.5234,-23.88186 10.6699,-44.20703 z"
     id="path2"
     sodipodi:nodetypes="scssccccccccccccsccccsccccsccccccccccccssscssscssscscccsscscccscccccccccssccscscccssscscccsscscsssssssccccsscsccccccssscccccccssccssscccsccccccsccccccccccscccccscccccc" />
  <path
     style="fill:#000000;stroke:none;stroke-width:86.8056"
     d="m 698.16992,221.9883 c 0,5.08125 -1.77704,11.43273 -5.33398,19.05469 -3.55686,7.62193 -5.84315,13.46428 -6.85938,17.5293 -1.01624,6.09757 -1.01624,11.17912 0,15.24414 2.03252,10.16256 3.55602,20.32567 4.57227,30.48828 2.03253,38.61788 7.62123,72.1541 16.76758,100.60937 37.60162,7.11383 79.77742,11.17898 126.52539,12.19532 v 9.14648 h 24.39062 c 7.11383,12.19514 12.19535,23.88167 15.24414,35.06055 l 3.04688,28.96484 c -1.01623,16.26018 -6.605,37.6007 -16.76758,64.02344 -3.04879,14.22767 -1.01617,34.55239 6.09766,60.97461 7.11145,58.94311 9.40017,106.454 6.85937,142.53125 -2.5408,36.0772 -0.76128,88.6677 5.33594,157.77343 0,9.14635 1.01671,17.02301 3.04883,23.62891 2.03646,6.60565 2.53993,17.02239 1.52343,31.25 -9.14635,19.30894 -4.57387,29.97959 13.71875,32.01169 17.27647,-7.11369 31.25114,-8.89037 41.92188,-5.33396 10.67075,3.55906 24.64353,4.82706 41.91992,3.81056 15.24393,-4.06511 34.04466,-4.06511 56.40236,0 h 35.0625 v -6.09766 c 0,-6.09757 -13.7212,-12.44879 -41.1602,-19.05469 -27.439,-6.60564 -45.73058,-17.53147 -54.87692,-32.77539 -3.04948,-4.06502 -5.59093,-13.2099 -7.62305,-27.4375 -2.03212,-17.27648 -4.57249,-45.47754 -7.6211,-84.60352 -3.04687,-39.12604 -4.3227,-63.00829 -3.81054,-71.64648 0.50816,-8.63819 6.35047,-43.44624 17.52929,-104.42188 1.01623,-21.34149 -5.58879,-83.84149 -19.8164,-187.5 0,-4.06501 2.53949,-7.36749 7.62109,-9.9082 5.08134,-2.54063 9.1467,-7.36862 12.19531,-14.48242 -9.14627,-13.2114 -6.09735,-21.84905 9.14649,-25.91406 50.81293,-1.01633 95.02133,-5.08152 132.62303,-12.19532 10.1624,-28.45527 15.7511,-61.99148 16.7676,-100.60937 1.0156,-10.16261 2.5402,-20.32572 4.5723,-30.48828 1.0165,-4.06504 1.0165,-9.14657 0,-15.24414 -1.0156,-4.06504 -3.3021,-9.90734 -6.8594,-17.5293 -3.5564,-7.62199 -5.334,-13.97344 -5.334,-19.05469 -1.546,-3.09121 -3.2027,-5.05584 -5.6065,-4.64684 l -13.9605,2.37541 c -1.0492,0.17852 -1.8568,1.42422 -1.7728,3.79487 3.0486,8.1301 5.842,14.99059 8.3828,20.58008 2.5408,5.58941 3.8105,13.46434 3.8105,23.62695 -1.0165,2.03255 -1.775,3.04883 -2.2871,3.04883 -0.5122,0 -0.7637,-0.5072 -0.7637,-1.52344 -1.0122,-3.04878 -1.5234,-7.62313 -1.5234,-13.7207 0,-4.06502 -0.7628,-7.62114 -2.2871,-10.66992 -1.5243,-3.04879 -3.3019,-3.55599 -5.334,-1.52344 -2.0322,1.01624 -2.0322,3.55607 0,7.62109 0,5.08131 -0.5089,11.94188 -1.5254,20.58008 -1.0162,8.63825 2.0328,19.05492 9.1465,31.25 -8.1302,30.48785 -13.719,56.40076 -16.7676,77.74219 -29.4716,-2.0322 -59.9607,-2.53967 -91.4648,-1.52344 -15.24395,-8.13012 -28.96317,-13.21159 -41.15823,-15.24414 h -22.86523 c 5.08133,-5.08131 8.63781,-12.19551 10.66992,-21.3418 5.08134,0 10.67231,0.50916 16.76953,1.52539 15.88766,2.64773 14.45477,-9.98773 13.71875,-12.19531 4.0651,0 5.08095,-2.54171 3.04883,-7.62305 3.05035,-2.03255 3.3262,-3.47515 1.8019,-4.49139 -1.52257,-1.01623 -0.78324,-2.62059 1.24888,-4.65314 4.0651,1.01623 6.09766,-0.5092 6.09766,-4.57422 -6.09757,-9.14635 -11.17903,-23.37467 -15.24414,-42.68359 -6.09756,-28.45532 -24.89836,-42.68164 -56.40235,-42.68164 -30.48785,-1.01626 -51.32109,7.11417 -62.5,24.39062 -16.26015,26.42275 -24.39062,67.58028 -24.39062,123.47461 -4.06504,2.03253 -8.63934,4.06513 -13.72071,6.09766 -31.50399,-1.01626 -61.9913,-0.50722 -91.46289,1.52539 -3.04879,-21.34143 -8.63744,-47.2563 -16.76758,-77.74414 7.11381,-12.19508 10.16272,-22.61172 9.14649,-31.25 -1.01658,-8.6382 -1.52539,-15.49874 -1.52539,-20.58008 2.03255,-4.06502 2.03255,-6.60486 0,-7.62109 -2.03255,-2.03255 -3.80959,-1.52534 -5.33399,1.52344 -1.52448,3.04879 -2.2871,6.60685 -2.28711,10.67187 0,6.09757 -0.50916,10.66997 -1.52539,13.71875 0,1.01658 -0.2539,1.52344 -0.76171,1.52344 -0.50808,0 -1.27088,-1.01628 -2.28711,-3.04883 0,-10.16261 1.27187,-18.03754 3.8125,-23.62695 2.54062,-5.58947 5.33403,-12.44996 8.38281,-20.58008 0.78395,-2.69599 -0.0897,-4.4459 -1.39611,-4.59633 l -14.68778,-1.69117 c -1.63333,-0.18806 -3.64981,1.54772 -5.25791,4.76406 z m 222.5625,15.24412 c 24.39019,0 39.12578,8.12849 44.20703,24.38867 -19.30895,-2.03255 -30.99544,9e-5 -35.06054,6.09766 -4.06476,6.09757 -7.62327,9.14648 -10.67188,9.14648 0,-7.11381 -4.0651,-10.66992 -12.19531,-10.66992 -11.17882,0 -16.76758,8.63767 -16.76758,25.91407 0,7.11381 3.55612,15.24427 10.66992,24.39062 v 99.08594 h -56.40234 v -32.01367 c 0,-58.94312 8.13049,-101.62608 24.39062,-128.04883 10.16259,-12.19514 27.4398,-18.29102 51.83008,-18.29102 z m 28.96289,32.03516 c 4.95426,-0.14291 11.05212,0.3567 18.29297,1.5 l 1.52344,9.14648 c -6.09748,-5.08134 -18.80044,-4.06497 -38.10938,3.04883 v 3.04883 c 19.30894,-6.09751 32.52096,-5.58839 39.63477,1.52539 l 10.66992,22.86523 c -4.06423,-1.01632 -6.6046,-0.76267 -7.62109,0.76172 -1.0165,1.52439 -0.50868,3.30339 1.52344,5.33594 -2.03212,9.14635 -3.55578,14.73502 -4.57227,16.76758 -1.01624,2.0322 -4.82769,2.54162 -11.43359,1.52539 -6.60565,-1.01623 -11.94076,-1.01623 -16.00586,0 -6.09757,14.2276 -11.68694,23.88158 -16.76758,28.96289 h -15.24414 v -48.7793 c -7.11354,-8.1301 -10.66992,-15.75338 -10.66992,-22.86718 0,-10.16258 2.0306,-15.24415 6.0957,-15.24415 3.04861,0 4.57422,5.08159 4.57422,15.24415 12.19505,-5.08126 19.81661,-10.67001 22.86523,-16.76758 1.90549,-3.81098 6.98704,-5.83604 15.24414,-6.07422 z m 10.66992,15.2207 c -5.08134,0 -10.67035,1.01636 -16.76757,3.04883 h -12.19532 v 4.57227 h 12.19532 c 6.70042,4.77557 13.2842,7.15297 21.34179,5.33593 2.03211,-0.50781 3.55578,-0.76172 4.57227,-0.76172 h 3.04883 v -4.57421 h -3.04883 c -1.01649,-1.01624 -2.03234,-2.28615 -3.04883,-3.81055 -1.01563,-1.52439 -3.04905,-2.79432 -6.09766,-3.81055 z m 1.52539,3.04883 c 2.03292,2.03153 4.06369,4.06522 6.09571,6.09766 -7.57334,3.89044 -15.26279,0.9784 -21.12891,-3.04883 4.85858,-1.61948 7.00295,-2.59472 8.1875,-2.92383 -1.63819,1.27544 -1.01163,6.54886 3.39747,6.54886 2.78357,0 5.65032,-3.0042 3.44823,-6.67386 z m -50.30468,89.93945 h 44.20703 v 48.7793 L 960.36523,441.5 c 0,6.09757 -4.06511,9.14648 -12.19531,9.14648 h -68.59765 l -9.14454,-24.39062 h 41.15821 z m -30.48828,79.26758 h 64.02343 v 3.04883 h -62.5 z m 10.66992,13.71875 h 42.68359 c 13.21137,76.21951 20.32557,133.63798 21.3418,172.25586 0,8.1301 -3.81165,32.52152 -11.43359,73.17187 -7.62198,40.65046 -5.84228,106.70656 5.33593,198.16993 h -53.35547 c -9.14583,-77.23577 -11.1773,-138.21032 -6.0957,-182.92578 -1.01563,-22.3577 -1.77496,-45.73277 -2.28711,-70.12305 -0.50781,-24.39021 -3.30121,-45.98436 -8.38281,-64.78516 -5.0816,-18.80081 -4.06684,-37.85705 3.04687,-57.16601 7.11415,-19.30892 10.16298,-42.17491 9.14649,-68.59766 z m 22.86719,455.79297 h 18.29296 c 9.14644,21.34141 12.70205,36.58615 10.66993,45.73242 -25.28755,-6.32192 -34.85854,-24.11389 -28.96289,-45.73242 z"
     id="path6"
     sodipodi:nodetypes="cscccccccccccsccccccccssccccccsccccccccsscscscsscccccccccscccccccccccccccsscscscsscscccsscccscssccccccscssccccsscsscccccsscccccccccscccccsccccccccccccsccccscccccc" />
  <path
     style="fill:none;stroke:#75507b;stroke-width:44;stroke-linecap:butt;stroke-linejoin:miter;stroke-dasharray:none;stroke-opacity:1"
     d="M 232.89885,186.64227 65.01732,354.5238 V 22 H 2215.4603 V 354.5238 L 2047.5788,186.64227 Z"
     id="path5"
     sodipodi:nodetypes="ccccccc" />
</svg>
