<?xml version="1.0" encoding="UTF-8" standalone="no"?>
<svg
   width="1100"
   height="600"
   version="1.1"
   id="svg1"
   sodipodi:docname="13A31.svg"
   inkscape:version="1.4.2 (f4327f4, 2025-05-13)"
   xml:space="preserve"
   xmlns:inkscape="http://www.inkscape.org/namespaces/inkscape"
   xmlns:sodipodi="http://sodipodi.sourceforge.net/DTD/sodipodi-0.dtd"
   xmlns="http://www.w3.org/2000/svg"
   xmlns:svg="http://www.w3.org/2000/svg"><defs
     id="defs1" /><sodipodi:namedview
     id="namedview1"
     pagecolor="#ffffff"
     bordercolor="#666666"
     borderopacity="1.0"
     inkscape:showpageshadow="2"
     inkscape:pageopacity="0.0"
     inkscape:pagecheckerboard="0"
     inkscape:deskcolor="#d1d1d1"
     inkscape:zoom="0.3775"
     inkscape:cx="-352.31788"
     inkscape:cy="59.602649"
     inkscape:window-width="1680"
     inkscape:window-height="998"
     inkscape:window-x="-8"
     inkscape:window-y="-8"
     inkscape:window-maximized="1"
     inkscape:current-layer="svg1"
     showguides="true"><sodipodi:guide
       position="1077.1424,32.96683"
       orientation="1,0"
       id="guide2"
       inkscape:locked="false" /></sodipodi:namedview><path
     style="fill:none;stroke:#613583;stroke-width:45;stroke-linecap:butt;stroke-linejoin:miter;stroke-dasharray:none;stroke-opacity:1"
     d="m 399.58922,253.78191 c 80.23483,-2.03363 160.60488,-12.65126 232.37731,-32.15538 195.65305,-53.16862 317.28116,-74.4363 445.11027,-38.8782 V 564.18689 C 985.11367,540.1873 761.20329,506.85457 623.9249,540.1873 486.64653,573.52007 249.58384,614.77905 111.83984,513.52112 50.601286,468.50361 18.564441,386.96124 32.495003,299.68903"
     id="path1"
     sodipodi:nodetypes="csccsac" /><path
     style="fill:none;stroke:#613583;stroke-width:35;stroke-linecap:butt;stroke-linejoin:miter;stroke-dasharray:none;stroke-opacity:1"
     d="m 45.079281,187.10728 c 0,0 -15.675982,40.63285 -26.005428,72.69228 -6.91637,21.46629 8.977198,41.1812 24.12415,45.24419 89.861787,24.10438 227.662497,59.76299 301.952877,37.31121 18.7405,-5.66368 42.22491,-40.41052 54.2201,-93.40959 -58.39696,0 -244.81032,-21.8141 -354.291699,-61.83809 z"
     id="path2"
     sodipodi:nodetypes="csssc" /></svg>
