<?xml version="1.0" encoding="UTF-8" standalone="no"?>
<svg
   width="1250"
   height="1000"
   version="1.1"
   id="svg1"
   sodipodi:docname="13A8B.svg"
   inkscape:version="1.4.2 (f4327f4, 2025-05-13)"
   xmlns:inkscape="http://www.inkscape.org/namespaces/inkscape"
   xmlns:sodipodi="http://sodipodi.sourceforge.net/DTD/sodipodi-0.dtd"
   xmlns="http://www.w3.org/2000/svg"
   xmlns:svg="http://www.w3.org/2000/svg">
  <defs
     id="defs1" />
  <sodipodi:namedview
     id="namedview1"
     pagecolor="#ffffff"
     bordercolor="#666666"
     borderopacity="1.0"
     inkscape:showpageshadow="2"
     inkscape:pageopacity="0.0"
     inkscape:pagecheckerboard="0"
     inkscape:deskcolor="#d1d1d1"
     inkscape:zoom="0.53386562"
     inkscape:cx="175.13771"
     inkscape:cy="362.45076"
     inkscape:window-width="1680"
     inkscape:window-height="998"
     inkscape:window-x="-8"
     inkscape:window-y="-8"
     inkscape:window-maximized="1"
     inkscape:current-layer="svg1"
     showguides="true">
    <sodipodi:guide
       position="0,0"
       orientation="1,0"
       id="guide1"
       inkscape:locked="false" />
    <sodipodi:guide
       position="159.77529,493.2826"
       orientation="0,-1"
       id="guide2"
       inkscape:locked="false" />
  </sodipodi:namedview>
  <path
     style="fill:#000000;stroke:none;stroke-width:55.6074"
     d="M 506.87134,252.82306 645.06699,13.926704 c 13.56957,-19.9973073 29.28174,-14.9979803 47.1365,14.997981 l 167.12033,235.682525 -16.06925,7.49894 -17.14054,-25.7108 -20.35441,8.57026 14.99798,26.78208 -16.06932,7.49904 -13.92664,-26.78213 -20.35437,9.64155 11.7841,28.92468 -17.14053,6.42771 L 664.35008,33.20979 524.01193,274.24875 Z m 258.1795,1.07128 16.0692,-8.57027 -65.34825,-121.05512 z m -34.28113,-136.0531 67.49092,119.98384 16.06925,-6.42771 z M 383.67367,88.916606 c 7.8561,-3.570958 11.78415,-14.640906 11.78415,-33.209845 V 1.0712764 L 411.52707,0 c 32.8527,47.850679 49.27905,88.559479 49.27905,122.1264 0,11.42702 -1.07128,27.13918 -3.21383,47.13649 v -1.07128 c 27.85337,47.85068 57.49222,88.38092 88.91655,121.59073 31.42437,33.20981 68.91932,49.81472 112.48486,49.81472 43.56553,0 92.66606,-9.64156 147.30158,-28.92469 54.63549,-19.28312 98.55812,-26.78209 131.76789,-22.49691 33.20984,4.28511 68.38373,33.92396 105.52153,88.91655 37.1379,54.99259 87.1311,170.33418 149.9797,346.02477 62.8487,175.69059 73.2045,267.82102 31.0673,276.39131 C 1175.3526,1010.2209 1099.2915,845.95733 996.4482,506.7174 H 673.99168 v -26.78214 c 7.14191,-22.13986 28.2105,-31.42431 63.20575,-27.85335 34.99529,3.57092 59.99192,2.49963 74.9899,-3.21388 -5.71351,-8.57025 -6.78481,-21.06857 -3.21389,-37.49495 -56.42096,24.99663 -98.91522,40.88735 -127.48277,47.67216 -28.56759,6.7848 -59.27774,9.46302 -92.13044,8.03465 -32.85273,-1.42837 -59.63483,-3.03531 -80.34628,-4.82083 -20.71153,-1.78544 -43.92271,13.03401 -69.63352,44.45834 l -309.57523,0 c 0,-31.42433 11.06993,-54.2784 33.20979,-68.56219 9.28447,-1.42837 30.88871,-0.53563 64.8127,2.67822 33.92399,3.21381 96.21114,-1.96408 126.92129,-15.53365 32.13855,-60.70607 43.92269,-98.02246 35.3524,-111.94919 -8.57029,-13.92669 -13.74817,-31.42433 -15.53365,-52.49293 -1.78548,-21.06857 -9.28447,-32.49559 -22.49697,-34.28107 -13.2125,-1.78547 -26.425,-6.24915 -39.6375,-13.39103 -13.2125,-7.14192 -37.49493,-8.21322 -72.84729,-3.21389 -35.3524,4.99933 -53.38569,-2.49966 -54.09988,-22.49697 -10.71283,-7.85607 -16.78344,-14.64085 -18.21181,-20.35436 -6.42769,-10.71284 3.39241,-19.28313 29.4603,-25.71086 26.06793,-6.42769 47.49362,-11.96265 64.27708,-16.60486 16.78342,-4.64225 29.81737,-11.78415 39.10184,-21.4257 9.28447,-9.641543 37.13786,-14.462314 83.56017,-14.462314 z m 25.71085,-33.209845 c 0,36.423659 -8.92738,54.992579 -26.78213,55.706759 -44.27976,0 -69.27639,3.3924 -74.9899,10.17721 -5.71351,6.78481 -18.39037,13.03397 -38.03057,18.74748 -19.64023,5.71351 -45.5296,12.8554 -77.66811,21.42569 -0.71419,4.99933 1.42838,10.71284 6.42771,17.14053 12.14121,-0.71418 26.96063,-2.85675 44.45828,-6.42771 17.49764,-3.57092 25.88937,-3.03527 25.17518,1.60694 -0.71418,4.64225 -8.92735,7.32047 -24.63952,8.03466 -15.71217,0.71418 -26.425,1.96401 -32.13851,3.74949 -5.71351,1.78548 -7.67755,4.28514 -5.89211,7.49899 1.78548,3.21385 16.42637,2.49965 43.92267,-2.1426 27.49629,-4.64222 48.56488,-3.57093 63.20575,3.21388 14.64091,6.78477 29.10326,10.53426 43.38705,11.24849 14.28376,0.71418 23.74677,3.92803 28.38902,9.64154 4.64222,5.71351 8.39172,18.39037 11.24849,38.03056 2.85673,19.64023 9.46298,36.60225 19.81875,50.88604 10.35573,14.28376 8.39171,40.17312 -5.89205,77.66807 -14.28379,37.49495 -25.35374,61.95594 -33.20985,73.38296 -43.56553,10.71287 -115.3157,14.28383 -155.31031,10.71288 -39.99461,-3.57096 -59.63483,2.85673 -58.92064,19.28308 l 259.2249,0 c 24.28245,-34.99529 52.85002,-51.60019 85.70272,-49.81471 32.85269,1.78548 71.41892,3.92805 115.69868,6.42771 44.27976,2.49963 119.62675,-22.31845 226.04098,-74.45423 -19.99731,28.56755 -25.17519,51.42161 -15.53364,68.56218 9.64154,17.14053 31.24577,27.85337 64.81269,32.13852 v 3.21388 h -78.20373 c -19.28312,0 -40.70881,-0.89276 -64.27708,-2.67827 -23.56827,-1.78544 -42.13719,3.74953 -55.70676,16.60492 h 293.53184 c 17.85478,-14.28379 19.99738,-28.21048 6.42771,-41.78006 v -22.49697 c 17.14057,7.85607 25.71087,29.28174 25.71087,64.27703 h -1.0716 c 89.9879,270.67776 154.9791,432.79877 194.9737,486.36303 4.2851,-32.85277 -10.1772,-94.98726 -43.387,-186.40347 -33.2097,-91.41625 -62.4913,-170.33419 -87.845,-236.75381 -25.3537,-66.41961 -50.5289,-120.16236 -75.5255,-161.22823 -24.99666,-41.06591 -51.95732,-63.56288 -80.88199,-67.49091 -28.92467,-3.92803 -71.77604,3.74951 -128.55411,23.03263 -56.77807,19.28309 -105.87858,28.92463 -147.30153,28.92463 -40.7088,0 -76.77538,-13.56959 -108.19975,-40.70878 -31.42433,-27.13919 -55.88532,-53.2071 -73.38296,-78.20373 -17.49761,-24.99663 -34.10249,-53.56421 -49.81466,-85.70272 11.42699,-17.14057 17.14048,-30.71019 17.14048,-40.70884 v -7.49899 c 0,-20.711491 -9.99864,-49.993248 -29.99591,-87.845273 h -2.14255 c 15.71217,37.852025 23.56825,68.205079 23.56825,91.059163 0,7.85606 -6.07062,18.2118 -18.21187,31.06723 l -6.42771,-11.78415 c 20.71149,-8.57025 21.0686,-37.13782 1.07133,-85.702719 z m -39.63756,82.488889 c -7.14188,6.4277 -18.74746,11.06994 -34.81673,13.92671 -16.06924,2.85673 -25.53225,-2e-5 -28.38902,-8.57027 0,-11.42706 9.10591,-16.06929 27.31774,-13.9267 18.21183,2.14255 30.1745,4.99931 35.88801,8.57026 z"
     id="path1"
     sodipodi:nodetypes="cccccccccccccccccccccccccsccsccssssssccccsccssscccscsssssccssscccssccsssssssssssscsccsscsccsscccccccsssssssscssccsccccscsc" />
  <path
     id="path3"
     style="baseline-shift:baseline;display:inline;overflow:visible;vector-effect:none;stroke-width:0.845226;enable-background:accumulate;stop-color:#000000"
     d="m 76.037899,54.432274 c 8.074339,57.061516 8.850025,106.053766 0.666005,153.042426 -6.911625,3.58134 -23.17514,10.7576 -18.239595,21.48055 2.308088,4.59899 5.545546,7.95411 10.784845,7.12271 13.350046,15.39269 24.458101,33.3659 33.237956,54.06846 3.5487,35.80115 2.46626,98.00944 -1.46101,186.36639 -0.73977,16.64383 4.57005,30.23418 17.71773,30.20455 13.14768,-0.0296 18.65112,-11.83572 17.81626,-30.03495 -4.0527,-88.34581 -4.98248,-150.74144 -1.62405,-186.56275 8.60444,-20.70459 19.61486,-38.68133 32.94351,-54.08079 5.10875,0.80548 8.37536,-2.33664 10.77607,-7.1303 4.5283,-10.78311 -10.70966,-17.78343 -18.01344,-21.45984 -8.85913,-49.59392 -7.02181,-99.64833 0.80759,-153.049326 z M 98.713017,76.9474 138.58516,76.932317 c -7.83411,48.129033 -3.55482,93.672853 0.71578,123.429413 -11.15344,-3.22437 -29.91097,-3.20189 -40.908951,-0.0317 3.764321,-24.34834 9.689011,-68.35212 0.321028,-123.382712 z m -8.452626,150.18443 c 19.051929,-8.29236 36.492499,-9.08136 56.986449,0.0236 -3.39962,3.99641 -6.64177,8.31228 -8.78649,12.58833 -3.70161,7.38008 -14.29548,29.78852 -19.93896,33.51827 -5.86714,-3.56823 -18.23709,-28.74355 -20.106068,-32.59934 -1.876306,-3.87088 -4.580151,-9.02898 -8.154931,-13.53081 z"
     sodipodi:nodetypes="cccccszscccccccccccccscsc"
     inkscape:transform-center-x="0.229692"
     inkscape:transform-center-y="-226.15892" />
</svg>
