<?xml version="1.0" encoding="UTF-8" standalone="no"?>
<svg
   width="1250"
   height="1000"
   version="1.1"
   id="svg1"
   sodipodi:docname="13B5D.svg"
   inkscape:version="1.4.2 (f4327f4, 2025-05-13)"
   xmlns:inkscape="http://www.inkscape.org/namespaces/inkscape"
   xmlns:sodipodi="http://sodipodi.sourceforge.net/DTD/sodipodi-0.dtd"
   xmlns="http://www.w3.org/2000/svg"
   xmlns:svg="http://www.w3.org/2000/svg">
  <defs
     id="defs1" />
  <sodipodi:namedview
     id="namedview1"
     pagecolor="#ffffff"
     bordercolor="#666666"
     borderopacity="1.0"
     inkscape:showpageshadow="2"
     inkscape:pageopacity="0.0"
     inkscape:pagecheckerboard="0"
     inkscape:deskcolor="#d1d1d1"
     showguides="true"
     inkscape:zoom="0.53386558"
     inkscape:cx="841.97224"
     inkscape:cy="392.42088"
     inkscape:window-width="1680"
     inkscape:window-height="998"
     inkscape:window-x="-8"
     inkscape:window-y="-8"
     inkscape:window-maximized="1"
     inkscape:current-layer="svg1">
    <sodipodi:guide
       position="0,0"
       orientation="0,-1"
       id="guide1"
       inkscape:locked="false" />
  </sodipodi:namedview>
  <path
     style="fill:#000000;stroke:none;stroke-width:59.7337"
     d="m 89.418754,744.77148 -24.98828,10.70899 7.14062,12.49219 21.41797,-8.92383 7.138676,12.49414 c -2.379756,8.32915 -13.088896,12.49414 -32.126956,12.49414 v 16.0625 c 26.17736,0 42.835346,-9.22096 49.974606,-27.66406 7.13929,-18.44314 -2.37929,-27.66407 -28.556636,-27.66407 z"
     id="path10" />
  <path
     style="fill:#000000;stroke:none;stroke-width:59.7337"
     d="m 420.83672,524.56836 c -32.34985,1.33861 -58.3416,14.05536 -77.97461,38.15039 0,13.0887 -9.51859,27.36754 -28.55664,42.83594 l 12.49414,12.49414 19.63281,-16.0625 c 72.58266,1.18986 108.875,-23.79813 108.875,-74.96289 -12.19626,-2.08229 -23.68742,-2.90128 -34.4707,-2.45508 z"
     id="path9" />
  <path
     style="fill:#1a5fb4;stroke:none;stroke-width:59.7337"
     d="M 1012.518,0 C 1004.1204,0.04703281 995.61516,2.0502139 989.64608,3.7694244 888.04111,56.747283 793.92392,107.76123 707.29246,156.81246 620.66099,205.86369 512.67742,300.53697 453.21137,411.76114 L 518.3402,399.06175 C 584.65243,262.26874 936.80297,71.185383 1003.2346,38.27627 l 3.0816,4.610242 C 941.86918,142.65216 851.10615,342.32046 713.15831,364.82885 l -84.60442,5.94624 -60.98846,13.51023 c 84.75898,30.98143 149.17645,29.86303 232.60597,-10.39909 45.50863,-22.87865 93.23257,-77.01882 143.16999,-162.42441 C 993.27879,126.05621 1027.7431,68.45125 1046.7344,38.650593 1045.6643,12.761173 1034.2582,-0.12174739 1012.518,0 Z"
     id="path2"
     sodipodi:nodetypes="scsccccccccscs"
     inkscape:transform-center-x="-296.76152"
     inkscape:transform-center-y="-205.88099" />
  <path
     style="fill:#f8e45c;stroke:none;stroke-width:1px;stroke-linecap:butt;stroke-linejoin:miter;stroke-opacity:1"
     d="M 550.21506,389.28678 773.91294,312.08808 957.21646,338.20289 850.33113,611.92053 540.39735,593.37748 Z"
     id="path19"
     sodipodi:nodetypes="cccccc" />
  <path
     style="fill:#000000;stroke:none;stroke-width:59.7337"
     d="m 583.81328,343.1875 c -50.68201,27.0283 -161.53445,79.32061 -183.20898,86.44141 -19.53956,6.4194 -44.03735,33.82917 -79.16016,75.97656 -8.32915,16.6583 -44.02429,40.45572 -107.08789,71.39258 -41.64575,39.266 -80.91257,71.98671 -117.798826,98.16406 -60.683807,9.51905 -88.0509587,52.3556 -82.10156,128.50781 -10.7089417,20.22795 -15.4672387,40.4556 -14.27734371,60.6836 -1.18989499,29.74696 15.46810971,44.62109 49.97460971,44.62109 0,40.4559 11.897714,60.08834 35.695314,58.89844 29.746936,-1.1899 44.621086,-12.49431 44.621086,-33.91211 42.83566,0 63.65865,-8.32803 62.46875,-24.98633 2.3798,-16.65831 13.68421,-24.98828 33.91211,-24.98828 l 265.9375,-67.82227 c 35.69636,40.45594 53.54492,84.48106 53.54492,132.07617 V 1000 H 1115.6903 C 1095.4624,864.35379 1050.5444,738.8206 980.93636,623.40234 829.17555,371.76487 658.41544,396.64869 587.38359,421.71875 c 0,22.60771 7.13943,33.91211 21.41797,33.91211 44.02555,41.64575 66.03711,92.81033 66.03711,153.49414 -1.18989,66.63325 -42.83584,111.55129 -124.9375,134.75391 -82.10166,23.20265 -194.54462,58.60211 -337.33008,106.19726 -19.03805,-27.36716 -42.24016,-42.2413 -69.60742,-44.62109 l 12.49414,-5.35547 -3.57031,-10.70899 c -28.55711,14.27856 -57.710076,33.31769 -87.457026,57.11524 l 7.14062,7.13867 67.822266,-44.61914 c -11.8988,33.3166 -36.88678,55.92343 -74.962886,67.82227 -14.278554,4.7595 -21.417969,1.78507 -21.417969,-8.92383 -4.759504,-20.22799 -1.189775,-39.86039 10.708984,-58.89844 -1.189856,-54.73442 19.633095,-86.26656 62.468751,-94.5957 L 242.91289,609.125 c 55.92431,-24.98745 88.05171,-45.21518 96.38086,-60.68359 24.98746,-34.5065 47.59432,-55.92476 67.82227,-64.25391 98.75996,-49.97491 168.36834,-85.07673 208.82422,-105.30469 z m 74.96289,108.87305 c 116.60808,10.7089 206.44422,71.68969 269.50781,182.94336 63.06368,111.2537 106.49352,215.66626 130.29102,313.23632 H 599.87578 c 0,-58.30409 -17.25326,-107.08949 -51.75976,-146.35546 C 663.53428,769.75803 718.27045,705.50521 712.32109,609.125 713.51095,546.06144 695.66239,493.7063 658.77617,452.06055 Z M 175.09063,825.08789 h 5.35351 v 24.98828 c 0,32.12675 -10.11385,48.18945 -30.3418,48.18945 l -1.78515,-33.9121 -57.113276,69.60742 c -1.18986,-22.60771 6.54482,-40.45432 23.203116,-53.54297 39.26602,-20.22799 59.4937,-38.67178 60.6836,-55.33008 z"
     id="path8"
     sodipodi:nodetypes="cscccccccccccsccscccscccccccccccccccccscccccccsccccc" />
  <path
     style="fill:#f6d32d;stroke:none;stroke-width:1px;stroke-linecap:butt;stroke-linejoin:miter;stroke-opacity:1"
     d="m 720.21869,526.34967 -8.75049,-170.39209 209.82738,122.25378 -93.1654,32.48681 z"
     id="path20"
     sodipodi:nodetypes="ccccc" />
  <path
     style="fill:#000000;stroke:none;stroke-width:59.7337"
     d="m 1222.9089,336.18828 c -3.6764,-1.7695 -7.7776,-3.40927 -12.3008,-4.91995 -113.7335,-13.96173 -220.18619,-25.29705 -319.35886,-34.00439 -99.17266,-8.70735 -201.65148,6.60089 -307.436,45.92355 l 32.127,35.69532 c 103.34191,-36.46059 185.11189,-44.32962 276.8013,-42.50375 91.68939,1.82592 196.62006,7.40915 314.79236,16.74966 l 7.5594,14.61478 c -252.25878,-17.4229 -453.93148,-0.49387 -580.27875,42.05581 52.25719,73.57391 118.32716,104.80716 209.87936,118.93939 50.45904,6.95359 120.46601,-10.59001 210.02179,-52.63312 89.5558,-42.04315 150.6041,-69.95575 183.1434,-83.73774 15.7669,-25.06685 10.7835,-43.79327 -14.9502,-56.17956 z m -54.2595,41.63353 c -183.81454,98.87038 -313.98009,130.24511 -390.49865,94.1249 l -73.06436,-43.0662 c 78.96939,-20.65532 146.1917,-32.9084 201.66836,-36.76033 55.47655,-3.85193 142.77465,-8.61784 261.89465,-14.29837 z"
     id="path16"
     sodipodi:nodetypes="scsccscccsscscccsc"
     inkscape:transform-center-x="-331.51551"
     inkscape:transform-center-y="69.3701" />
</svg>
