<?xml version="1.0" encoding="UTF-8" standalone="no"?>
<svg
   width="800"
   height="1000"
   id="svg2389"
   sodipodi:version="0.32"
   inkscape:version="1.4.2 (f4327f4, 2025-05-13)"
   sodipodi:docname="13B68.svg"
   inkscape:output_extension="org.inkscape.output.svg.inkscape"
   version="1.1"
   xmlns:inkscape="http://www.inkscape.org/namespaces/inkscape"
   xmlns:sodipodi="http://sodipodi.sourceforge.net/DTD/sodipodi-0.dtd"
   xmlns="http://www.w3.org/2000/svg"
   xmlns:svg="http://www.w3.org/2000/svg"
   xmlns:rdf="http://www.w3.org/1999/02/22-rdf-syntax-ns#"
   xmlns:cc="http://creativecommons.org/ns#"
   xmlns:dc="http://purl.org/dc/elements/1.1/">
  <metadata
     id="metadata2396">
    <rdf:RDF>
      <cc:Work
         rdf:about="">
        <dc:format>image/svg+xml</dc:format>
        <dc:type
           rdf:resource="http://purl.org/dc/dcmitype/StillImage" />
      </cc:Work>
    </rdf:RDF>
  </metadata>
  <defs
     id="defs2394">
    <inkscape:perspective
       sodipodi:type="inkscape:persp3d"
       inkscape:vp_x="0 : 991.01121 : 1"
       inkscape:vp_y="0 : 1000 : 0"
       inkscape:vp_z="11.988919 : 991.01121 : 1"
       inkscape:persp3d-origin="5.9944596 : 988.01494 : 1"
       id="perspective2398" />
  </defs>
  <sodipodi:namedview
     inkscape:window-height="998"
     inkscape:window-width="1680"
     inkscape:pageshadow="2"
     inkscape:pageopacity="0.0"
     guidetolerance="10.0"
     gridtolerance="10.0"
     objecttolerance="10.0"
     borderopacity="1.0"
     bordercolor="#666666"
     pagecolor="#ffffff"
     id="base"
     showgrid="false"
     inkscape:zoom="1.0677312"
     inkscape:cx="350.7437"
     inkscape:cy="88.505418"
     inkscape:window-x="-8"
     inkscape:window-y="-8"
     inkscape:current-layer="svg2389"
     inkscape:showpageshadow="2"
     inkscape:pagecheckerboard="0"
     inkscape:deskcolor="#d1d1d1"
     inkscape:window-maximized="1"
     showguides="true">
    <sodipodi:guide
       position="522.49664,732.63052"
       orientation="0,-1"
       id="guide1"
       inkscape:locked="false" />
  </sodipodi:namedview>
  <path
     style="fill:#000000;stroke:none;stroke-width:0.999998"
     d="m 301.60653,442.67236 c 44.18706,-8.83758 74.23383,-20.91524 90.14114,-36.23341 1.17666,-11.19415 -4.41879,-17.0856 -16.79082,-17.67474 -27.69061,11.7833 -52.14071,29.75241 -73.35032,53.90815 z m 94.55993,-19.44259 c -14.72902,10.60501 -36.52778,21.06263 -65.39667,31.37286 -28.86889,10.31024 -44.18665,9.27933 -45.95408,-3.09433 -1.18074,-20.62046 23.56618,-45.65971 74.23383,-75.11775 -8.83757,-4.71316 -19.73695,-5.59708 -32.69854,-2.65054 v -22.09353 c 60.09437,0 90.14154,24.15533 90.14154,72.4664 z M 335.18858,288.90198 c 32.40376,-19.44218 59.35742,-24.59749 80.8618,-15.46555 21.50438,9.13194 44.62881,9.13194 69.37329,0 24.74488,-9.13194 52.87724,-7.95366 84.39708,3.53405 31.51984,11.48893 52.87684,14.58163 64.07099,9.27933 11.19375,-5.3023 19.1474,-8.5428 23.86096,-9.72109 7.06974,-1.76702 9.72109,1.17666 7.95366,8.83758 -8.24843,24.74447 -26.51232,37.55867 -54.79166,38.44259 -28.27975,0.88352 -50.0785,-1.3273 -65.39667,-6.62797 -15.31816,-5.30271 -35.34948,-4.71357 -60.09436,1.76702 -24.74448,6.48059 -47.72152,6.48059 -68.93113,0 -21.21,-6.48099 -37.70646,-0.88351 -49.48935,16.79082 h -63.62923 c -11.7833,-17.67474 -28.27975,-23.27181 -49.48936,-16.79082 -21.20961,6.48059 -44.92318,6.48059 -71.14072,0 -26.21754,-6.48099 -46.98539,-7.07014 -62.30356,-1.76702 -15.31816,5.3023 -37.116915,7.51149 -65.396664,6.62797 C 26.764314,322.92538 8.5004279,310.11077 0.25199797,285.3663 c -1.17666038,-7.65929 1.76702633,-10.60501 8.83757443,-8.83758 4.1240116,1.17666 11.9302776,4.41879 23.4187986,9.72109 11.488927,5.3023 32.845517,2.21082 64.070989,-9.27933 31.22547,-11.48852 59.94698,-12.66681 86.16452,-3.53405 26.21754,9.13194 50.0785,9.13194 71.58248,0 21.50438,-9.13194 48.45846,-3.97785 80.86222,15.46555 z m -37.11692,60.09396 c -12.96159,0 -22.3883,6.77536 -28.27975,20.32609 -7.06973,1.17667 -12.66681,1.76703 -16.79082,1.76703 10.01546,0.59037 15.02339,5.3023 15.02339,14.13988 0.59036,9.42631 -7.36451,14.13987 -23.86097,14.13987 l -49.48935,29.16326 -2.65054,-2.65054 47.72151,-31.81461 c -2.94775,-4.71316 -3.2409,-10.01546 -0.88351,-15.90731 -7.07014,8.83757 -18.55866,16.20208 -34.46597,22.09353 -7.65888,3.53405 -18.85303,12.37244 -33.58205,26.51231 -1.76703,11.19375 -4.41838,18.1165 -7.95325,20.76786 -3.53405,2.65054 -8.54279,1.9136 -15.02379,-2.21082 -5.3023,4.12401 -7.95366,8.5428 -7.95366,13.25595 0,5.30271 6.18623,7.80668 18.55867,7.5119 12.37244,-0.285 21.06222,-1.03009 26.07015,-2.21082 5.00793,-1.17666 8.24802,-0.88351 9.72109,0.88351 1.47388,1.76703 0.73694,3.68063 -2.21082,5.74447 -2.94369,2.06424 -7.07014,1.9136 -12.37244,-0.44379 l -32.69813,3.53405 c 0.59036,2.94776 4.12401,4.71315 10.6046,5.3023 51.84593,-4.71316 94.8547,-7.06973 129.0259,-7.06973 49.48895,31.22547 74.23383,59.50481 74.23383,84.83884 0,25.33362 11.19415,65.69103 33.58205,121.07184 4.71316,-14.13988 22.38789,-38.58999 53.02421,-73.35032 l 7.06974,33.58205 c -37.70606,44.7762 -58.32651,84.83884 -61.86138,120.18832 -53.61337,43.59791 -94.70732,79.24177 -123.28144,106.93237 -28.57412,27.6902 -31.37286,38.29521 -8.39541,31.81421 22.97704,-6.48059 76.14866,-22.24051 159.51442,-47.27976 C 503.83372,824.58863 539.77235,787.32432 528.28383,737.83497 516.7953,688.34601 528.44669,616.76313 563.19155,523.08712 524.3072,492.45079 496.17484,462.55099 478.79447,433.38773 461.4145,404.22447 443.15062,383.01445 424.00281,369.7585 404.85542,356.50254 380.25793,350.46371 350.21074,351.642 Z m 75.11775,-23.86096 c 40.65178,10.01586 67.75283,21.79916 81.30356,35.34948 13.55073,13.55073 29.8998,34.46597 49.0476,62.74531 19.1474,28.27975 49.93112,60.38874 92.35033,96.32777 -37.11691,97.21088 -47.72192,186.4681 -31.81461,267.77208 -21.20961,38.88435 -48.45805,63.62923 -81.74533,74.23383 -33.28768,10.60501 -79.8313,23.12484 -139.63089,37.55908 -59.79919,14.43424 -88.07894,25.77578 -84.83844,34.02381 3.24091,8.24802 20.47308,10.31023 51.69855,6.18622 31.22547,-4.12401 75.41212,-8.24843 132.56035,-12.37244 38.88476,-24.15533 58.6213,-18.55826 59.21044,16.79123 11.7833,-21.79916 28.27975,-33.87683 49.48936,-36.23341 21.20961,37.70606 36.23341,68.34239 45.07057,91.90858 -63.03968,-5.89145 -128.58373,-8.5428 -196.63133,-7.95366 -68.04802,0.59037 -116.50607,1.32731 -145.37497,2.21082 -28.86848,0.88352 -51.40377,2.06425 -67.60585,3.53405 -16.20168,1.47388 -27.54322,-11.6355 -34.02381,-39.3261 -10.60501,-28.86849 5.00793,-53.02423 46.838,-72.4664 48.90022,-51.84594 105.75409,-105.75368 170.5612,-161.72363 l 5.30271,-21.21001 C 348.44453,640.6302 335.18858,597.03228 335.18858,571.69866 c 0,-25.92317 -20.03132,-52.14071 -60.09437,-78.65262 -4.71316,-2.94776 -12.07766,-4.71315 -22.09312,-5.3023 5.3023,27.6902 2.65054,46.24886 -7.95366,55.67517 -8.24843,-4.12401 -13.25636,-22.68226 -15.02379,-55.67517 -7.65888,2.94369 -16.03067,4.71316 -42.54299,5.3023 10.97877,21.94981 -0.20358,41.52349 1.24995,57.13602 -33.95419,-10.76868 -34.39594,-34.15938 -32.9412,-57.13602 -14.13988,-0.59036 -21.20961,-7.36451 -21.20961,-20.32609 -10.01586,1.17666 -13.55073,-2.94776 -10.60501,-12.37204 0,-15.90731 7.95366,-28.27975 23.86096,-37.11732 31.22548,-27.6902 52.14072,-42.71359 62.74532,-45.07057 7.65928,-2.94776 15.31816,-8.24803 22.97745,-15.90731 1.76702,-2.94369 10.31023,-7.06974 25.62839,-12.37204 l 15.9069,-18.55866 c 5.89186,-5.89144 15.31817,-7.95365 28.27975,-6.18622 17.0856,4.12442 32.10899,6.18622 45.07057,6.18622 z"
     id="path2402"
     sodipodi:nodetypes="cccccscccccccssssscssssccsssscssssscccsscccccscscsssssccccsccccsssscsscccssccssssccccsssccccsscccccccccssccccc" />
  <path
     style="fill:#000000;stroke:none;stroke-width:0.999998"
     d="m 271.7839,21.367715 c 0.9637,2.889905 6.863,5.029972 8.89021,0.395808 0.92233,-2.107509 0.52817,-3.754355 -1.18505,-4.939508 -1.46991,-1.017378 -2.83821,-1.560451 -3.97177,-1.155021 -1.99347,0.712986 -4.69623,2.325255 -3.73339,5.698721 z"
     id="path2"
     sodipodi:nodetypes="cccsc" />
  <path
     id="path1"
     style="baseline-shift:baseline;display:inline;overflow:visible;vector-effect:none;enable-background:accumulate;stop-color:#000000"
     d="m 276.20508,1.5292969 c -8.03737,1.7682213 -24.70887,7.629724 -24.08789,20.2304691 -0.52988,12.880729 16.2757,21.387906 28.67578,20.625 -10.4783,20.502768 -15.08327,54.173015 -14.06445,101.517574 1.05412,48.98601 1.04995,81.66584 0.004,97.8711 -1.07065,16.59617 2.42342,30.87904 10.5332,42.63867 4.30739,6.2461 12.94043,10.5967 25.69727,13.50195 12.75684,2.90525 29.73809,4.33399 51.01172,4.33399 h 1.49805 l 0.004,-14.46875 -1.50976,0.01 c -23.05527,0.13105 -40.29885,-2.72304 -51.63086,-8.34179 -11.33202,-5.61876 -16.80857,-13.73001 -16.99805,-24.95899 -0.39543,-23.43296 -0.66221,-58.07107 -0.79101,-103.90625 1.02502,-24.45558 -4.09375,-101.193896 24.91992,-115.169921 9.59938,-3.415716 19.96557,-3.528803 30.03711,-3.46289 1.03841,-0.103906 3.16114,-0.569118 3.5039,-2.628907 0.28938,-1.738832 -0.6302,-3.083917 -1.96679,-4.923828 -23.1094,-5.972 -42.38742,2.609451 -49.9668,6.207032 -10.53787,2.874476 -20.50425,2.462257 -25.05078,-8.603516 6.94742,-9.108959 18.86401,-13.5978598 28.2539,-5.75 23.88215,-4.274366 37.62193,-0.04062 43.01368,1.794922 11.80001,4.017204 19.83579,14.752046 24.11523,32.908203 4.26325,18.087361 1.76836,36.793183 -7.59766,56.306645 -9.50314,19.79909 -20.64214,45.30729 -33.42578,76.54296 -12.80831,31.29593 -19.27539,54.4802 -19.27539,69.92188 0,4.3658 2.64783,8.40643 6.98828,11.9375 4.34045,3.53107 10.45731,6.661 17.9375,9.3125 14.9604,5.303 35.3909,8.66016 57.76563,8.66016 h 1.5 l -0.002,-15.2793 -1.5293,0.0293 c -20.53757,0.35923 -42.1615,-0.35997 -59.79297,-11.96289 -7.42753,-4.85678 -4.40279,-21.60543 0.60937,-37.41407 16.96778,-53.51592 50.62886,-104.14646 55.37352,-136.566344 l 0.0117,-0.07031 C 383.22564,18.247929 350.97085,7.3155387 345.24805,5.8847656 330.02431,2.0782708 315.89428,1.7194402 302.89062,4.7832031 295.5298,-0.81860775 287.25028,-0.89973903 276.20508,1.5292969 Z"
     sodipodi:nodetypes="cccsccsscccsscccscccccssssssscccscccccc" />
</svg>
