<?xml version="1.0" encoding="UTF-8" standalone="no"?>
<svg
   width="1100"
   height="1000"
   version="1.1"
   id="svg1"
   sodipodi:docname="13B6A.svg"
   inkscape:version="1.4.2 (f4327f4, 2025-05-13)"
   xmlns:inkscape="http://www.inkscape.org/namespaces/inkscape"
   xmlns:sodipodi="http://sodipodi.sourceforge.net/DTD/sodipodi-0.dtd"
   xmlns="http://www.w3.org/2000/svg"
   xmlns:svg="http://www.w3.org/2000/svg">
  <defs
     id="defs1" />
  <sodipodi:namedview
     id="namedview1"
     pagecolor="#ffffff"
     bordercolor="#666666"
     borderopacity="1.0"
     inkscape:showpageshadow="2"
     inkscape:pageopacity="0.0"
     inkscape:pagecheckerboard="0"
     inkscape:deskcolor="#d1d1d1"
     inkscape:zoom="0.53386562"
     inkscape:cx="516.04747"
     inkscape:cy="650.91286"
     inkscape:window-width="1680"
     inkscape:window-height="998"
     inkscape:window-x="-8"
     inkscape:window-y="-8"
     inkscape:window-maximized="1"
     inkscape:current-layer="svg1" />
  <path
     style="fill:#000000;stroke:none;stroke-width:1"
     d="m 493.16543,435.6175 -29.6528,97.19539 q -52.71616,29.6528 -81.54527,155.67731 -28.82913,126.0245 -84.84004,126.0245 v 11.53166 q 11.53167,-11.53166 23.06329,-11.53166 9.88429,3.29457 24.71071,10.70798 14.82638,7.41322 7.41317,31.30019 -7.41317,23.88703 -35.41864,23.88703 21.41596,26.35809 46.12667,26.35809 24.71061,-13.17909 60.953,-65.89519 l 24.71071,16.47376 -29.65285,44.47923 q 14.82642,-1.64727 47.77399,-41.18443 80.72158,-4.94213 165.56162,-56.0109 84.84002,-51.06877 84.84002,-128.49558 0,-32.94761 -23.06328,-88.95847 98.84276,-14.82643 98.84276,-29.65286 13.179,-6.58948 59.30563,-75.77943 -85.66373,-3.29478 -171.32744,93.90061 -46.12662,-41.18446 -64.24783,-141.67462 -62.60037,8.23691 -123.55342,1.64739 z m 31.30024,140.02723 q 49.42138,6.58955 49.42138,69.18992 -54.36353,28.00548 -126.84824,3.29458 0,-49.42139 77.42686,-72.48468 z M 316.89585,837.57804 q -11.53162,8.23691 -4.11846,18.94483 7.41322,10.70804 16.47382,-1.64728 9.0606,-12.35537 -12.35536,-17.2975 z M 620.01362,399.37516 Q 685.90882,394.43303 800.40166,250.28738 914.8945,106.14167 1073.043,104.4943 q 49.4213,6.58951 8.2368,28.00543 -153.20631,62.60043 -227.33831,186.97754 -74.13209,124.37713 -153.2063,182.03542 143.32202,-87.3111 210.86459,-42.83187 -37.88972,52.71616 -74.95575,103.78487 -37.06612,51.06876 -96.37174,51.06876 11.53168,34.59496 11.53168,59.30568 0,154.85363 -227.3383,214.15934 -51.06881,1.64728 -51.06881,19.76852 -16.47377,21.41591 -48.59766,29.65276 -32.12392,8.23691 -42.83184,4.94215 -10.70799,-3.29457 -30.47651,0 -54.36353,0 -92.25325,-97.19539 0,-59.30557 46.12663,-69.18985 41.18448,-56.01096 55.18722,-132.61408 14.00269,-76.60307 66.71883,-127.67187 Q 311.95371,470.21249 241.94011,335.1274 171.92651,200.0423 18.720215,137.44187 q -41.184478,-21.41591 8.236905,-28.00542 158.14838,1.64736 271.81758,145.79301 113.66915,144.1457 182.85906,144.1457 z"
     id="path1" />
  <path
     style="fill:none;stroke:#613583;stroke-width:40;stroke-linecap:round;stroke-linejoin:miter;stroke-dasharray:none;stroke-opacity:1"
     d="m 578.42008,866.79735 c 5.02928,39.41389 21.95374,83.71027 49.8293,113.20265"
     id="path2"
     sodipodi:nodetypes="cc" />
</svg>
