<?xml version="1.0" encoding="UTF-8" standalone="no"?>
<svg
   width="1000"
   height="1000"
   id="svg2440"
   sodipodi:version="0.32"
   inkscape:version="1.4.2 (f4327f4, 2025-05-13)"
   sodipodi:docname="13B64.svg"
   inkscape:output_extension="org.inkscape.output.svg.inkscape"
   version="1.1"
   xmlns:inkscape="http://www.inkscape.org/namespaces/inkscape"
   xmlns:sodipodi="http://sodipodi.sourceforge.net/DTD/sodipodi-0.dtd"
   xmlns:xlink="http://www.w3.org/1999/xlink"
   xmlns="http://www.w3.org/2000/svg"
   xmlns:svg="http://www.w3.org/2000/svg"
   xmlns:rdf="http://www.w3.org/1999/02/22-rdf-syntax-ns#"
   xmlns:cc="http://creativecommons.org/ns#"
   xmlns:dc="http://purl.org/dc/elements/1.1/">
  <metadata
     id="metadata2447">
    <rdf:RDF>
      <cc:Work
         rdf:about="">
        <dc:format>image/svg+xml</dc:format>
        <dc:type
           rdf:resource="http://purl.org/dc/dcmitype/StillImage" />
      </cc:Work>
    </rdf:RDF>
  </metadata>
  <defs
     id="defs2445">
    <inkscape:perspective
       sodipodi:type="inkscape:persp3d"
       inkscape:vp_x="0 : 991.01121 : 1"
       inkscape:vp_y="0 : 1000 : 0"
       inkscape:vp_z="13.952616 : 991.01121 : 1"
       inkscape:persp3d-origin="6.9763079 : 988.01494 : 1"
       id="perspective2449" />
  </defs>
  <sodipodi:namedview
     inkscape:window-height="998"
     inkscape:window-width="1680"
     inkscape:pageshadow="2"
     inkscape:pageopacity="0.0"
     guidetolerance="10.0"
     gridtolerance="10.0"
     objecttolerance="10.0"
     borderopacity="1.0"
     bordercolor="#666666"
     pagecolor="#ffffff"
     id="base"
     showgrid="false"
     inkscape:showpageshadow="2"
     inkscape:pagecheckerboard="0"
     inkscape:deskcolor="#d1d1d1"
     inkscape:zoom="0.75499997"
     inkscape:cx="574.17221"
     inkscape:cy="158.27815"
     inkscape:window-x="-8"
     inkscape:window-y="-8"
     inkscape:window-maximized="1"
     inkscape:current-layer="svg2440" />
  <path
     style="fill:none;stroke:#9141ac;stroke-width:22;stroke-linecap:butt;stroke-linejoin:miter;stroke-dasharray:none;stroke-opacity:1"
     d="M 415.861,383.70074 V 65.912234 c 0,-40.791579 -16.68874,-54.901508 -42.68651,-54.901508 -30.08926,0 -47.7501,15.111144 -47.7501,43.421714 0,15.444285 14.36413,32.594415 37.30705,50.34967 l -71.30572,290.64061"
     id="path1"
     sodipodi:nodetypes="cssscc" />
  <use
     x="0"
     y="0"
     xlink:href="#path1"
     id="use1"
     transform="matrix(-1,0,0,1,880.60033,0)" />
  <path
     style="fill:#000000;stroke:none;stroke-width:0.999996"
     d="m 417.93324,380.46354 c -21.79642,-6.24884 -47.1386,-3.07469 -76.96105,11.54416 -40.04729,-17.04139 -71.49129,-14.67762 -96.20131,5.77208 -46.86388,-21.30179 -80.02575,-28.83292 -100.04937,-21.16429 -20.02367,7.66861 -38.10944,10.25228 -53.872741,7.69611 -15.763266,-2.55621 -26.743946,-8.14962 -32.708449,-15.39221 -5.964501,-7.24264 -13.715568,-9.62011 -23.088315,-9.62014 -17.893465,-5.96446 -23.060815,-1.64917 -15.392211,15.39222 34.082829,51.12418 89.851926,67.69827 167.390296,48.10066 44.30764,19.59761 79.83333,25.41087 105.82144,17.31623 25.98814,-8.0947 42.35604,-8.74061 50.02468,-1.92403 -29.82241,8.52068 -44.2526,21.43912 -44.2526,38.48053 -24.71004,8.52068 -56.78619,30.92178 -94.27729,69.26496 -14.48517,7.66863 -25.46586,14.77374 -32.70845,21.16428 -7.24259,6.39054 -6.59664,22.09877 1.92403,44.25261 -0.85206,12.78107 2.80354,25.91937 9.62014,40.40455 14.48518,9.37275 23.96783,15.83193 30.78441,19.24027 4.26038,57.94077 19.54256,95.6241 44.25261,113.51754 h 13.46818 V 665.21943 l 23.08832,-3.84804 c -4.26032,38.34316 -2.96855,64.82596 3.84805,78.88507 6.81652,14.05913 13.92168,13.41322 21.16429,-1.92402 7.24258,-15.33722 7.88848,-42.46593 1.92402,-80.8091 l 23.08833,-3.84806 c 0,144.8519 41.55884,260.26565 125.06171,346.32472 h 94.27728 V 959.59547 C 542.85745,909.3234 541.56562,850.75068 560.31118,782.58505 579.05673,714.41941 654.20349,659.94219 785.42227,619.04281 v -59.64482 c -65.60942,0 -114.27343,-14.43014 -146.226,-44.2526 -31.95263,-29.82243 -66.18644,-54.14756 -101.97339,-71.18897 15.33725,-11.07691 37.50473,-11.94274 63.49286,-3.84806 25.98814,8.09462 59.58977,2.28138 103.89742,-17.31623 77.53838,19.59761 133.30751,3.02352 167.3903,-48.10066 5.11267,-18.74555 1.86923,-23.06082 -13.46819,-15.39222 -9.37274,0 -17.54983,2.37748 -23.08831,9.62014 -5.53874,7.24259 -16.51918,12.836 -32.70846,15.39221 -16.18934,2.55615 -33.84906,-0.0276 -53.87273,-7.69611 -20.0236,-7.66864 -51.89367,-1.20939 -96.20131,19.24026 -27.26622,-19.59761 -56.97862,-18.52567 -88.50522,1.92403 -40.54657,-18.96538 -73.64076,-24.53539 -98.12533,-15.39222 z m 0,65.4169 c 31.31358,-2.87575 60.06053,3.90297 86.58118,19.24027 35.36092,20.44967 70.03451,46.28653 105.82145,76.96104 35.7869,30.67453 82.07337,45.32458 136.60587,46.17664 -122.69812,39.19522 -198.69696,97.97406 -225.11108,175.08639 -26.41418,77.11233 -29.21775,141.49832 -9.62013,194.32666 -26.41419,0.85199 -53.11685,-23.91285 -80.8091,-75.03703 -27.69231,-51.12424 -41.47656,-131.43833 -42.32858,-240.50329 0.85204,-23.00587 -12.49241,-29.03906 -38.48053,-19.24026 -25.98813,9.79886 -45.36576,14.96622 -57.72079,15.39221 -12.35502,0.42483 -23.98159,1.93758 -34.63247,5.77208 -10.65087,3.83451 -25.94684,3.18865 -48.10066,-1.92403 18.74555,-4.26056 38.12318,-9.64758 57.7208,-17.31624 19.59761,-7.66864 26.9226,-15.1998 23.08831,-21.16429 -3.83433,-5.96478 -13.74303,-1.88276 -30.78443,9.62014 -17.04143,11.50297 -38.56294,17.53615 -61.56884,19.24027 -5.11237,-0.85213 -8.342,-4.94768 -9.62013,-13.46819 -1.27812,-8.5207 4.09543,-15.832 13.46818,-19.24027 l 19.24027,-9.62012 c 11.0769,5.11267 17.11006,4.4662 19.24025,-1.92403 4.83226,-14.49688 -11.61614,-22.71884 -17.31622,-21.16429 -4.68638,1.27811 -10.0599,5.57962 -13.46819,11.54415 l -19.24027,13.46819 -3.84804,-11.54416 59.64481,-38.48053 c 13.63311,-17.89344 38.17814,-32.76338 73.113,-48.10065 0,-25.61138 61.84559,-44.76883 98.12534,-48.10066 z M 473.73,482.43693 c -28.2021,35.7227 -31.61808,56.01329 -26.93636,180.85848 122.81039,-71.99242 88.22529,-155.9066 82.73313,-167.39028 l -17.31624,-3.84806 c 6.81654,53.68046 -8.68555,97.60311 -46.17662,130.83379 2.16474,-49.53399 4.3245,-91.95721 26.93636,-136.60586 z m -151.99808,25.01235 v 19.24027 c -14.48522,8.52069 -28.91534,16.9177 -44.25261,25.01234 -15.33724,8.09463 -23.0883,15.1998 -23.0883,21.16429 l 76.96105,-36.5565 c 3.35724,6.71472 37.3018,6.1715 61.56884,-7.69611 v -7.6961 h -7.6961 c -28.63951,-17.18372 -55.44998,-4.71832 -61.56885,3.84806 5.92686,-12.1337 26.762,-18.12154 65.4169,-17.31625 v -9.62013 c -33.53621,-7.0192 -57.01533,-6.90084 -67.34093,9.62013 z"
     id="path2442"
     sodipodi:nodetypes="cccssscccscccscccccccsscccccsccscsccccssccccssscscscscscssscsccsscccccscccccccccsccccccccc" />
</svg>
