<?xml version="1.0" encoding="UTF-8" standalone="no"?>
<svg
   width="300"
   height="1000"
   id="svg1333"
   sodipodi:version="0.32"
   inkscape:version="1.4.2 (f4327f4, 2025-05-13)"
   sodipodi:docname="13BDD.svg"
   inkscape:output_extension="org.inkscape.output.svg.inkscape"
   version="1.1"
   xmlns:inkscape="http://www.inkscape.org/namespaces/inkscape"
   xmlns:sodipodi="http://sodipodi.sourceforge.net/DTD/sodipodi-0.dtd"
   xmlns:xlink="http://www.w3.org/1999/xlink"
   xmlns="http://www.w3.org/2000/svg"
   xmlns:svg="http://www.w3.org/2000/svg"
   xmlns:rdf="http://www.w3.org/1999/02/22-rdf-syntax-ns#"
   xmlns:cc="http://creativecommons.org/ns#"
   xmlns:dc="http://purl.org/dc/elements/1.1/">
  <metadata
     id="metadata1340">
    <rdf:RDF>
      <cc:Work
         rdf:about="">
        <dc:format>image/svg+xml</dc:format>
        <dc:type
           rdf:resource="http://purl.org/dc/dcmitype/StillImage" />
      </cc:Work>
    </rdf:RDF>
  </metadata>
  <defs
     id="defs1338">
    <inkscape:perspective
       sodipodi:type="inkscape:persp3d"
       inkscape:vp_x="0 : 991.01129 : 1"
       inkscape:vp_y="0 : 1000 : 0"
       inkscape:vp_z="4.882184 : 991.01129 : 1"
       inkscape:persp3d-origin="2.441092 : 988.01506 : 1"
       id="perspective2464" />
  </defs>
  <sodipodi:namedview
     inkscape:window-height="998"
     inkscape:window-width="1680"
     inkscape:pageshadow="2"
     inkscape:pageopacity="0.0"
     borderopacity="1.0"
     bordercolor="#666666"
     pagecolor="#ffffff"
     id="base"
     inkscape:zoom="1.0677312"
     inkscape:cx="358.23622"
     inkscape:cy="721.62354"
     inkscape:window-x="-8"
     inkscape:window-y="-8"
     inkscape:current-layer="g4"
     showgrid="false"
     inkscape:showpageshadow="2"
     inkscape:pagecheckerboard="0"
     inkscape:deskcolor="#d1d1d1"
     inkscape:window-maximized="1"
     showguides="true">
    <sodipodi:guide
       position="146.17993,1e-05"
       orientation="1,0"
       id="guide1"
       inkscape:locked="false" />
    <sodipodi:guide
       position="146.5332,326.89844"
       orientation="0,-1"
       id="guide2"
       inkscape:locked="false" />
  </sodipodi:namedview>
  <g
     id="g4">
    <path
       style="fill:#000000;stroke:none;stroke-width:0.999999"
       d="m 146.17964,757.85742 c -20.16371,0 -58.622999,8.84926 -58.622999,76.98633 l 15.539059,94.64453 15.41992,-5.65039 -5.65039,-55.0918 c -7.54274,-79.19895 32.16449,-81.32882 33.31441,-81.32882 z"
       id="path3"
       sodipodi:nodetypes="ccccccc" />
    <path
       style="fill:#000000;stroke:none;stroke-width:0.999999"
       d="m 146.17993,673.10156 c -27.54564,0 -54.855889,19.54119 -82.636961,58.62305 v 40.9668 c 27.662432,-39.38378 55.207761,-59.15977 82.636671,-59.32795 z"
       id="path2"
       sodipodi:nodetypes="ccccc" />
    <path
       style="fill:#000000;stroke:none;stroke-width:0.999999"
       d="M 107.57031,0 83.556641,598.94141 C 37.411811,617.77602 11.74985,642.96765 6.5703125,674.51562 1.3908115,706.06365 -0.72883682,738.31671 0.21289062,771.27734 1.1546181,804.23791 4.9215425,838.84684 11.513672,875.10352 32.206834,988.9156 133.54021,1000 146.17969,1000 l 0.70694,-40.84761 C 107.33392,953.50208 81.19963,932.07931 68.486238,894.88091 35.420789,798.13372 50.5463,693.80104 52.242098,682.99028 56.009006,658.97618 80.494074,640.37765 125.69718,627.19341 L 134.17179,28.252 H 146.1796 L 146.17969,0 Z"
       id="path1335"
       sodipodi:nodetypes="ccsssccssccccc" />
    <path
       style="fill:none;stroke:#613583;stroke-width:29;stroke-linecap:round;stroke-linejoin:round;stroke-dasharray:none;stroke-opacity:1"
       d="m 110.11551,95.695364 -72.3119,0"
       id="path4"
       sodipodi:nodetypes="cc" />
    <use
       x="0"
       y="0"
       xlink:href="#path4"
       id="use4"
       transform="translate(0,53.642384)" />
  </g>
  <use
     x="0"
     y="0"
     xlink:href="#g4"
     id="use5"
     transform="matrix(-1,0,0,1,292.35957,0)" />
</svg>
