<?xml version="1.0" encoding="UTF-8" standalone="no"?>
<svg
   width="800"
   height="1000"
   version="1.1"
   id="svg1"
   sodipodi:docname="13C9C.svg"
   inkscape:version="1.4.2 (f4327f4, 2025-05-13)"
   xmlns:inkscape="http://www.inkscape.org/namespaces/inkscape"
   xmlns:sodipodi="http://sodipodi.sourceforge.net/DTD/sodipodi-0.dtd"
   xmlns="http://www.w3.org/2000/svg"
   xmlns:svg="http://www.w3.org/2000/svg">
  <defs
     id="defs1" />
  <sodipodi:namedview
     id="namedview1"
     pagecolor="#ffffff"
     bordercolor="#666666"
     borderopacity="1.0"
     inkscape:showpageshadow="2"
     inkscape:pageopacity="0.0"
     inkscape:pagecheckerboard="0"
     inkscape:deskcolor="#d1d1d1"
     inkscape:zoom="0.3775"
     inkscape:cx="-88.741722"
     inkscape:cy="541.72185"
     inkscape:window-width="1680"
     inkscape:window-height="998"
     inkscape:window-x="-8"
     inkscape:window-y="-8"
     inkscape:window-maximized="1"
     inkscape:current-layer="svg1"
     showguides="true" />
  <path
     id="path1"
     style="fill:#000000;stroke:none;stroke-width:1"
     d="M 188.43342,0.00179835 C 140.28243,0.26782548 109.82235,9.4453868 97.053006,27.535266 83.75165,26.471157 77.898665,32.059348 79.49482,44.296597 61.404944,49.617175 52.359783,67.174248 52.359783,96.969316 c 7.448759,-4.256428 14.631191,-6.11916 21.547934,-5.587107 7.980814,0 14.365222,9.311791 19.153717,27.933711 4.788483,18.62191 15.429756,39.10643 31.923466,61.45274 v 0.79685 c -3.72437,7.4488 -5.5871,19.9528 -5.5871,37.51058 0,17.55786 15.16477,42.03257 45.49191,73.42381 30.32714,103.75073 45.22344,179.56905 44.69138,227.45403 0,5.8526 3.9921,9.57624 11.97291,11.17242 l -42.15799,143.33763 27.94576,-7.80971 129.1229,-7.0372 -4.7768,-15.16397 -4.78843,-97.36595 c 26.07071,35.11571 47.08843,45.22549 63.05009,30.32793 -4.78849,-40.43616 -7.18446,-77.14825 -7.18446,-110.13568 l 27.93372,16.75948 c 15.96165,7.44878 50.67862,41.63434 104.15016,102.55465 53.47157,60.92032 84.46308,90.04912 92.97594,87.38882 l 93.3762,-19.95055 c 10.10904,-3.19234 11.97176,-8.24727 5.58711,-15.16398 l -73.42379,-83.00065 c 46.28882,29.26306 80.87156,48.9495 103.74991,59.0585 -11.17315,-12.7693 -30.06155,-28.73213 -56.66431,-47.88611 l 19.95241,7.98133 c 7.44872,-1.59617 10.90753,-7.98059 10.37553,-19.15372 C 596.38611,473.39861 524.02658,403.03424 493.69945,344.77419 463.37229,286.51418 432.77978,242.22062 401.92062,211.89346 l 102.95121,-98.16464 c 6.91671,-6.38465 14.63242,-9.04544 23.14529,-7.98133 7.98086,1.59617 13.8338,7.1825 17.55821,16.75951 l 102.95303,241.02248 c 9.04499,15.96165 15.69414,22.87747 19.95057,20.74925 11.17316,-6.91671 14.36534,-18.88745 9.57687,-35.91322 2.65889,4.78598 15.6238,21.8604 26.33818,15.16397 12.3234,-6.84644 3.9097,-25.93842 0.79687,-31.12662 12.76928,13.3014 24.74186,16.7602 35.91504,10.37554 4.78847,-2.66026 2.39433,-11.70543 -7.18265,-27.13504 L 579.09431,102.55644 537.594,46.690811 378.77531,191.94105 C 340.46733,157.35745 311.20431,116.65512 290.98622,69.834277 270.76813,23.013432 236.58441,-0.26422879 188.43342,0.00179835 Z M 170.4768,25.141053 c 28.19891,-1e-6 44.55895,13.03542 49.0814,39.106114 4.52247,26.070694 -10.24146,44.161013 -44.29296,54.270093 24.888,48.59092 -16.32543,54.12882 -34.31769,34.71612 C 130.83848,142.32623 121.79332,126.89668 113.81251,106.9446 105.8317,86.992533 94.125747,77.016922 78.696147,77.016922 H 95.455649 C 88.538941,65.843783 85.879982,57.065213 87.476147,50.68056 94.392855,51.744669 98.647913,49.08392 100.24408,42.699235 112.48136,30.994041 135.8932,25.141053 170.4768,25.141053 Z m 58.25984,2.394213 c 10.10905,0 24.34153,21.150132 42.69743,63.448518 18.35592,42.298376 48.28275,81.404646 89.78306,117.318356 41.50026,35.91372 74.75357,79.54164 99.76016,130.88493 25.00662,51.34336 74.2227,107.60766 147.64628,168.79396 C 480.39829,446.79473 399.79163,408.75314 366.80424,393.85558 333.8168,378.95802 280.61047,345.17333 207.18688,292.4999 c -42.03236,-30.85922 -63.04826,-55.33393 -63.04826,-73.42381 0,-14.36546 1.59611,-26.86945 4.78843,-37.51058 v -0.79685 c 33.51945,0 50.28032,-17.02569 50.28032,-51.07719 44.69269,-21.81426 54.53588,-55.867411 29.52927,-102.156204 z M 128.1778,41.902383 c -12.7693,0 -19.15371,5.851126 -19.15371,17.556354 0,12.769304 6.38441,19.420346 19.15371,19.9524 12.76933,-0.532054 19.42033,-7.183096 19.95239,-19.9524 -0.53206,-11.705228 -7.18306,-17.556354 -19.95239,-17.556354 z m 435.75255,74.220657 142.85785,194.73189 -48.68298,26.33636 z m -366.32033,214.6843 h 3.1929 c 12.23723,59.59016 43.09641,125.5653 92.57751,197.92479 -15.42957,12.23724 -35.91405,3.45871 -61.45273,-26.33637 0,-32.45537 -11.43929,-89.65196 -34.31768,-171.58842 z m 35.11637,31.92347 c 39.37205,30.32712 83,59.0587 130.88495,86.19355 v 94.17305 C 346.58563,529.79602 329.82655,521.81555 313.33284,519.15527 266.51199,443.07139 239.6431,390.92976 232.72639,362.73081 Z m 41.50033,6.38396 295.29074,147.64627 c 37.77593,43.62851 74.2214,84.06411 109.33701,121.3081 v 1.59554 L 604.63199,651.63758 457.78623,492.02022 C 429.58732,469.14185 368.40049,428.17289 274.22672,369.11477 Z m -30.32794,185.95369 c 17.55782,21.28226 35.91477,22.3469 55.06876,3.19291 l 4.78843,86.19173 c -12.14665,-7.20768 -29.23239,-13.40731 -41.46967,-6.49059 -15.42957,-4.78857 -30.39282,-0.41348 -44.72388,6.49059 z"
     sodipodi:nodetypes="sccccsccscccccccccccsccccccccsccccccccccccccssccsscssccccscssscscsccccssccsccccccccccccccccccccccccc" />
  <path
     id="path1-9"
     style="fill:#000000;stroke:none;stroke-width:1"
     d="m 61.066173,554.26 c -13.41785,0.62296 -8.697627,22.51223 -6.508068,30.54057 20.233953,69.60454 48.967435,115.73726 86.197655,138.39917 l -2.42829,6.06977 -71.627886,-20.63759 c -22.661924,10e-6 -45.728281,7.6882 -69.199584,23.06588 0,42.08649 27.923922,63.12983 83.76936,63.12983 23.4713,-6.47422 40.06297,-6.06895 49.77517,1.21512 9.71221,43.70528 21.4463,79.72101 35.2054,108.04841 2.42814,24.28049 9.30875,42.49142 20.63954,54.63175 0,19.42459 5.26119,29.13566 15.78294,29.13566 10.52159,0 19.82902,2.02496 27.92248,6.0717 8.09361,4.04668 19.02012,6.06973 32.77906,6.06973 12.94971,0 23.47031,-2.02305 31.56392,-6.06973 8.09345,-4.04674 17.40088,-6.0717 27.92247,-6.0717 10.52159,0 15.78294,-9.71107 15.78294,-29.13566 11.33096,-10.52157 18.20946,-28.7325 20.63758,-54.63175 13.75911,-28.3274 25.9009,-64.34314 36.42248,-108.04841 8.90285,-7.28473 25.49451,-7.68998 49.7752,-1.21512 55.03604,0 82.55422,-21.04334 82.55422,-63.12983 -22.66192,-15.37768 -45.3245,-23.06588 -67.98642,-23.06588 l -72.84105,20.63759 -1.21512,-6.06977 c 37.23024,-22.66191 65.96174,-68.79463 86.19569,-138.39917 4.04673,-17.80565 2.02385,-27.92261 -6.06975,-30.35076 -8.90284,-1.61875 -16.18724,6.47322 -21.85271,24.27904 -29.13679,56.65481 -55.03573,89.8401 -77.69764,99.5523 -30.75539,-23.47113 -65.15401,-35.20734 -103.19378,-35.20734 -38.84899,0 -73.65156,11.73621 -104.40694,35.20734 -22.66192,-9.7122 -48.56085,-42.89749 -77.697637,-99.5523 C 75.956009,562.03652 69.222884,553.88113 61.066173,554.26 Z M 344.715,696.4924 c -5.66548,17.80582 -2.8329,31.15918 8.49806,40.06199 l 19.42442,-4.85659 2.42633,7.28489 h -10.92636 v 9.71318 c 25.89927,0 46.53897,-3.23831 61.91665,-9.71318 -24.28067,15.37769 -43.30112,23.06587 -57.06004,23.06587 v 10.92636 c 28.32739,0 58.27435,-14.9726 89.83911,-44.91858 21.85255,0 37.22875,4.85561 46.13175,14.5678 -13.7591,22.66193 -46.53651,32.7789 -98.33522,30.35078 -24.281,2.42812 -36.01724,5.66646 -35.20735,9.71318 -7.2841,52.60697 -20.23426,94.69315 -38.84883,126.25769 -8.90284,-22.66049 -22.6605,-32.37289 -41.27516,-29.13563 -18.61519,3.23751 -37.22989,3.23751 -55.84493,0 -18.6152,-3.23734 -32.78005,6.47565 -42.49225,29.13758 -17.80583,-31.56474 -30.7552,-73.65155 -38.84881,-126.25964 0.80938,-4.04672 -10.92684,-7.28506 -35.20736,-9.71318 -50.989323,2.42812 -83.362953,-7.68885 -97.122051,-30.35078 8.093619,-9.71219 23.06604,-14.5678 44.918582,-14.5678 31.564752,29.94598 61.915509,44.91858 91.052289,44.91858 v -10.92636 c -14.56831,0 -33.99254,-7.68818 -58.273225,-23.06587 16.187055,6.47487 36.826595,9.71318 61.916645,9.71318 v -9.71318 h -10.92636 l 2.42635,-7.28489 19.42441,4.85659 c 12.14035,-8.90281 14.97292,-22.25617 8.49806,-40.06199 63.17476,-41.51458 114.61569,-32.38372 163.89529,0 z m -151.75577,25.49417 v 12.13952 c 43.90847,-19.51512 97.44062,-19.46506 139.61429,0 v -12.13952 c -42.17972,-21.08986 -95.70506,-21.14145 -139.61429,0 z m -14.56783,18.21124 v 10.92636 c 21.04318,0 36.01576,14.16288 44.91859,42.49029 h 14.56782 C 228.97483,758.0028 209.14678,740.19781 178.3914,740.19781 Z m 168.74994,0 c -30.75537,0 -50.58357,17.80499 -59.4864,53.41665 h 14.56782 c 8.90283,-28.32741 23.87542,-42.49029 44.91858,-42.49029 z m -177.40061,32.32314 c -5.15964,0.10124 -6.32354,2.47846 -3.4908,7.13226 5.66548,9.30761 8.50002,17.80534 8.50002,25.49419 0,7.68834 4.85562,11.93821 14.56781,12.74806 11.33097,-0.80936 16.99612,-6.07074 16.99612,-15.78295 12.94972,10.52159 19.42442,30.35158 19.42442,59.48836 h 9.71317 c 0.80937,-46.13321 -11.93819,-73.65321 -38.24223,-82.55619 -13.15203,-4.45135 -22.30886,-6.62496 -27.46851,-6.52373 z m 186.96117,0 c -5.15958,-0.10123 -14.41551,2.07427 -27.76984,6.52568 -26.70931,8.90299 -39.66065,36.42101 -38.85076,82.55424 h 10.92633 c 0,-29.13679 6.0709,-48.96677 18.21124,-59.48836 0,9.71171 5.66517,14.97306 16.99613,15.78295 10.52191,-0.80939 15.58128,-5.05923 15.17635,-12.74806 -0.40478,-7.68886 2.42797,-16.18659 8.49807,-25.49419 3.03511,-4.65388 1.97208,-7.03102 -3.18752,-7.13226 z m -167.38414,22.9113 c 3.83468,3.6e-4 6.94328,2.71902 6.94246,6.07367 -9.6e-4,3.35356 -3.10904,6.07136 -6.94246,6.07173 -3.83342,-3.8e-4 -6.94149,-2.71817 -6.94246,-6.07173 -8.1e-4,-3.35465 3.10779,-6.0733 6.94246,-6.07367 z m 146.89724,0 c 3.83467,3.6e-4 6.94326,2.71902 6.94244,6.07367 -9.4e-4,3.35356 -3.10902,6.07136 -6.94244,6.07173 -3.83343,-3.8e-4 -6.9415,-2.71817 -6.94247,-6.07173 -8.1e-4,-3.35465 3.10779,-6.0733 6.94247,-6.07367 z m -99.55036,105.32073 c 4.45146,-0.20247 8.90324,0.5043 13.35465,2.12305 8.90284,3.23735 17.8063,3.23735 26.7093,0 8.90282,-3.23702 17.40056,-2.83177 25.49417,1.21513 -11.33094,2.42797 -16.99611,8.90281 -16.99611,19.42442 0,13.75926 5.66517,20.43596 16.99611,20.03098 11.33097,-0.4046 16.99611,-5.86797 16.99611,-16.38953 h 4.8566 c 1.61876,19.42509 -1.61957,29.94785 -9.71319,31.56588 -8.09344,1.61942 -18.61421,0.80917 -31.56393,-2.42829 -12.94973,-3.23738 -25.89927,-3.23738 -38.84882,0 -12.94972,3.23615 -23.47245,4.04641 -31.56589,2.42829 -8.09412,-1.61876 -11.73622,-12.1415 -10.92635,-31.56588 h 4.85659 c 0,10.52128 5.66516,15.98464 16.99611,16.38953 11.33097,0.40483 16.99612,-6.27187 16.99613,-20.03098 0,-10.52161 -5.66516,-16.99645 -16.99613,-19.42442 4.45151,-2.0237 8.90319,-3.1357 13.35465,-3.33818 z m 58.27323,72.53972 v 2.42633 c -21.85254,3.23753 -43.29965,3.23753 -64.34298,0 v -2.42633 c 20.9791,-2.4207 42.46422,-2.43103 64.34298,0 z"
     sodipodi:nodetypes="scccccccccsssssccccccccccccsccsccccccccccccccscccccccccccccccccccccccccccccccsssccccssssccccssscscsccscscssccsccccsccccsscsccccc" />
</svg>
