<?xml version="1.0" encoding="UTF-8" standalone="no"?>
<svg
   width="1200"
   height="1000"
   version="1.1"
   id="svg1"
   sodipodi:docname="13C96.svg"
   inkscape:version="1.4.2 (f4327f4, 2025-05-13)"
   xmlns:inkscape="http://www.inkscape.org/namespaces/inkscape"
   xmlns:sodipodi="http://sodipodi.sourceforge.net/DTD/sodipodi-0.dtd"
   xmlns="http://www.w3.org/2000/svg"
   xmlns:svg="http://www.w3.org/2000/svg">
  <defs
     id="defs1" />
  <sodipodi:namedview
     id="namedview1"
     pagecolor="#ffffff"
     bordercolor="#666666"
     borderopacity="1.0"
     inkscape:showpageshadow="2"
     inkscape:pageopacity="0.0"
     inkscape:pagecheckerboard="0"
     inkscape:deskcolor="#d1d1d1"
     showguides="true"
     inkscape:zoom="0.3775"
     inkscape:cx="215.89404"
     inkscape:cy="947.01987"
     inkscape:window-width="1680"
     inkscape:window-height="998"
     inkscape:window-x="-8"
     inkscape:window-y="-8"
     inkscape:window-maximized="1"
     inkscape:current-layer="svg1">
    <sodipodi:guide
       position="1200,0"
       orientation="0,-1"
       id="guide2"
       inkscape:locked="false" />
  </sodipodi:namedview>
  <path
     style="fill:#000000;stroke:none;stroke-width:0.999998"
     d="m 90.404978,363.27608 c -25.771781,0.0299 -50.602902,16.05045 -74.493314,48.06361 -27.181987,37.3752 -19.5378167,115.09877 22.934061,233.17051 L 167.53598,1000 h 56.06246 c -18.6876,-49.26728 -24.21022,-88.76556 -16.56531,-118.49583 7.64493,-29.7303 36.10232,-62.01087 85.36967,-96.83779 L 149.69693,564.23775 c -11.89213,-17.83817 -7.22033,-40.77297 14.01561,-68.80436 28.88084,-39.0741 25.05764,-73.47623 -11.46812,-103.20652 -21.18284,-19.32468 -41.79472,-28.97401 -61.839442,-28.95079 z m 2.208715,46.31249 c 10.289477,-0.37164 20.822247,4.45902 31.599487,14.49298 20.38646,16.98876 16.98981,38.64837 -10.19218,64.98091 -26.332511,28.88082 -27.60767,60.73489 -3.82343,95.56183 l 122.3193,189.84992 c -31.42913,16.1393 -53.93957,42.47295 -67.53058,78.99872 L 73.24789,597.36618 C 42.66814,511.57304 36.296912,458.05938 54.13509,436.82343 66.558106,419.14451 79.384364,410.06638 92.613693,409.58857 Z"
     id="path2" />
  <path
     style="fill:#000000;stroke:none;stroke-width:0.999998"
     d="m 386.58325,0 c -71.42854,0 -117.06279,13.491426 -136.90403,40.475546 -19.04764,-1.58729 -27.38114,7.142708 -25.0002,26.190301 -27.77777,7.936527 -41.66565,34.128543 -41.66565,78.572963 11.9048,-7.14284 22.61906,-9.92206 32.14283,-8.33478 12.69844,0 22.61774,13.69066 29.76059,41.07162 7.14284,27.38092 22.61858,57.73868 46.42808,91.07204 l 1.19215,1.1901 c -5.55555,11.11111 -8.33478,29.76243 -8.33478,55.95294 0,26.19047 22.22348,62.69827 66.6679,109.52363 45.2381,154.76187 67.85594,267.85734 67.85594,339.28587 0,8.73018 5.55642,14.2845 16.66749,16.66545 l -47.62022,161.90629 c -8.73013,-1.58733 -22.41877,0.1977 -41.06957,5.35645 -18.65078,5.1586 -38.49356,4.95952 -59.52527,-0.59607 -21.03177,-5.55559 -48.21384,-5.15706 -81.54717,1.19214 -24.60318,5.55547 -37.30171,19.04698 -38.09536,40.47551 h 561.90548 c 0.79355,-20.63469 -15.08066,-34.92124 -47.62021,-42.85775 -32.53967,11.90467 -59.52253,13.09619 -80.9511,3.57233 l -7.14262,-145.23879 c 38.09519,52.38095 69.44306,67.85667 94.04624,46.42807 -7.14287,-61.11109 -10.7129,-116.26825 -10.7129,-165.47453 l 41.66564,24.99815 c 23.8095,11.11107 75.59586,62.10449 155.35769,152.97751 C 935.53905,944.42066 976.85225,986.28561 998.02467,1000 h 36.03783 l 117.9981,-25.00017 c 15.0796,-4.76197 17.8566,-11.90413 8.3329,-21.42786 L 1049.6796,828.57094 c 69.8412,44.44445 121.8249,73.81004 155.9518,88.09577 -17.4603,-19.04763 -46.031,-42.85688 -85.7136,-71.42828 l 29.7606,11.90505 c 11.9047,-2.38094 17.0646,-11.90585 15.4775,-28.57254 C 995.31459,705.55513 887.17979,599.40459 840.75128,510.11891 794.32273,420.83322 740.15569,348.2141 678.25096,292.26172 616.3462,236.30936 570.11631,173.61164 539.56075,104.16718 509.00519,34.722774 458.0118,0 386.58325,0 Z m -26.1903,36.905262 c 41.26985,0 65.47759,19.444262 72.62043,58.333131 7.14289,38.888867 -15.0806,65.871717 -66.66789,80.951087 16.66665,32.53968 16.2702,53.57176 -1.19009,63.09557 -17.46031,9.52378 -33.73096,5.95375 -48.81033,-10.71291 -15.07936,-16.66665 -28.57079,-39.88227 -40.47555,-69.64417 -11.90479,-29.76188 -29.7612,-44.64189 -53.5707,-44.64189 h 26.1903 C 238.1717,97.619413 233.80668,84.524437 235.39398,75.00062 c 10.31745,2.380973 17.06319,-1.587596 20.23778,-11.905056 18.25398,-17.460303 53.17393,-26.190302 104.76119,-26.190302 z m 85.71558,4.760379 c 15.07933,0 36.30863,31.349888 63.6896,94.048289 27.38092,62.69842 72.023,120.83398 133.92776,174.40538 61.90478,53.5714 111.5096,118.64986 148.81115,195.23716 37.30162,76.5873 110.71361,160.51635 220.23736,251.78618 C 821.5046,665.87282 701.26699,609.12589 652.06067,586.90365 602.85434,564.68143 523.48947,514.28575 413.96571,435.71436 352.06094,389.68262 321.1075,353.17481 321.1075,326.19073 c 0,-20.63493 1.98427,-39.28624 5.95254,-55.95294 v -1.1901 c 50.79365,0 76.19071,-25.39706 76.19071,-76.19072 66.66663,-32.53967 80.95302,-82.93737 42.85778,-151.191329 z M 296.1073,61.905469 c -18.25395,0 -27.77684,8.729999 -28.5705,26.190302 0.79366,19.047629 10.31655,28.966939 28.5705,29.760579 19.04763,-0.79364 28.96898,-10.71295 29.76264,-29.760579 C 325.07628,70.635468 315.15493,61.905469 296.1073,61.905469 Z M 399.6784,492.8574 h 4.76243 c 19.0476,88.88885 65.08033,187.30147 138.0962,295.23799 -23.0159,18.25395 -53.17443,5.55542 -90.47597,-38.09536 0,-49.20633 -17.46201,-134.92043 -52.38266,-257.14263 z m 53.57275,47.61817 c 58.73011,45.23807 123.8086,88.49157 195.23717,129.76141 V 809.52326 C 623.09149,789.68198 598.09085,777.77836 573.4877,773.81014 503.64641,660.31811 463.56858,582.53905 453.25115,540.47557 Z m 60.71333,9.52487 440.47679,220.23737 c 57.14293,65.07934 111.90353,125.39635 164.28433,180.95191 v 2.38225 L 1006.8218,971.42749 788.9647,733.33254 C 746.10756,699.99918 654.44062,638.88929 513.96448,550.00044 Z m -44.04789,277.3804 c 25.39679,31.74602 52.77814,33.33385 82.14325,4.76243 l 7.14262,128.57131 c -24.60318,-4.76186 -46.03171,-2.3811 -64.28566,7.14263 -23.01589,-7.14268 -44.44442,-9.52344 -64.28566,-7.14263 z"
     id="path1" />
</svg>
