<?xml version="1.0" encoding="UTF-8" standalone="no"?>
<svg
   width="1000"
   height="1000"
   id="svg2352"
   sodipodi:version="0.32"
   inkscape:version="1.4.2 (f4327f4, 2025-05-13)"
   sodipodi:docname="13CB4.svg"
   inkscape:output_extension="org.inkscape.output.svg.inkscape"
   sodipodi:modified="true"
   version="1.1"
   xmlns:inkscape="http://www.inkscape.org/namespaces/inkscape"
   xmlns:sodipodi="http://sodipodi.sourceforge.net/DTD/sodipodi-0.dtd"
   xmlns="http://www.w3.org/2000/svg"
   xmlns:svg="http://www.w3.org/2000/svg"
   xmlns:rdf="http://www.w3.org/1999/02/22-rdf-syntax-ns#"
   xmlns:cc="http://creativecommons.org/ns#"
   xmlns:dc="http://purl.org/dc/elements/1.1/">
  <metadata
     id="metadata2359">
    <rdf:RDF>
      <cc:Work
         rdf:about="">
        <dc:format>image/svg+xml</dc:format>
        <dc:type
           rdf:resource="http://purl.org/dc/dcmitype/StillImage" />
      </cc:Work>
    </rdf:RDF>
  </metadata>
  <defs
     id="defs2357" />
  <sodipodi:namedview
     inkscape:window-height="998"
     inkscape:window-width="1680"
     inkscape:pageshadow="2"
     inkscape:pageopacity="0.0"
     guidetolerance="10.0"
     gridtolerance="10.0"
     objecttolerance="10.0"
     borderopacity="1.0"
     bordercolor="#666666"
     pagecolor="#ffffff"
     id="base"
     inkscape:showpageshadow="2"
     inkscape:pagecheckerboard="0"
     inkscape:deskcolor="#d1d1d1"
     showguides="true"
     inkscape:zoom="2.1354625"
     inkscape:cx="565.91957"
     inkscape:cy="129.94843"
     inkscape:window-x="-8"
     inkscape:window-y="-8"
     inkscape:window-maximized="1"
     inkscape:current-layer="svg2352">
    <sodipodi:guide
       position="452.0099,914.29213"
       orientation="1,0"
       id="guide1"
       inkscape:locked="false" />
    <sodipodi:guide
       position="514.58503,973.39086"
       orientation="0,-1"
       id="guide2"
       inkscape:locked="false" />
    <sodipodi:guide
       position="575.42196,914.29213"
       orientation="1,0"
       id="guide3"
       inkscape:locked="false" />
    <sodipodi:guide
       position="514.58503,855.1934"
       orientation="0,-1"
       id="guide4"
       inkscape:locked="false" />
    <sodipodi:guide
       position="429.41333,914.29213"
       orientation="1,0"
       id="guide5"
       inkscape:locked="false" />
    <sodipodi:guide
       position="514.58503,995.98744"
       orientation="0,-1"
       id="guide6"
       inkscape:locked="false" />
    <sodipodi:guide
       position="599.75673,914.29213"
       orientation="1,0"
       id="guide7"
       inkscape:locked="false" />
    <sodipodi:guide
       position="429.41333,914.29213"
       orientation="0,-1"
       id="guide8"
       inkscape:locked="false" />
    <sodipodi:guide
       position="514.58511,973.39086"
       orientation="1,0"
       id="guide9"
       inkscape:locked="false" />
  </sodipodi:namedview>
  <path
     id="path2354"
     style="fill:#000000;stroke:none;stroke-width:1"
     d="M 893.51172,56.158203 848.31836,252.57422 c -28.23913,-7.60286 -49.54074,14.57103 -62.57422,67.79101 2.71548,7.60284 8.03973,8.90716 15.64258,3.47657 7.60285,-5.43058 17.06034,-8.90958 29.55078,-12.16797 0.5451,16.29182 5.10644,25.63826 12.16602,27.81055 l -3.47461,17.38281 C 751.94177,326.78036 722.75294,321.43665 620.61523,318.62695 619.4705,220.54824 575.26402,163.74171 514.75067,163.67731 c -27.78001,-0.0296 -69.99842,3.6407 -87.07489,24.58441 -11.40429,0 -17.27371,3.58813 -15.64453,13.90625 -15.2057,4.34451 -22.5957,20.21062 -22.5957,45.19141 6.51676,-3.80144 11.95028,-6.29901 17.38086,-5.2129 7.05981,0 13.5814,8.58523 17.38281,24.33399 3.69322,15.30039 0.11758,32.54492 -6.95313,50.4082 -81.76627,0 -152.95958,13.76025 -215.53711,39.97852 l -3.47656,-17.38281 c 7.60283,-2.17229 11.6249,-11.51874 12.16797,-27.81055 12.4904,3.25836 23.68425,8.47563 31.28711,13.90625 7.60283,5.43057 11.73403,2.93104 13.90625,-5.21485 -13.03346,-52.67691 -33.14183,-74.85082 -60.83789,-67.79101 L 149.5625,56.158203 C 138.70128,12.17028 115.33409,-4.6772687 80.035156,4.0117188 58.312704,8.8992533 48.423193,18.465903 52.224609,35.300781 c 4.34451,15.2057 14.343129,21.182274 29.548829,17.38086 3.258357,-0.543059 7.171331,5.435468 10.429687,17.382812 L 137.39648,264.74219 c -29.32528,7.60286 -36.82633,37.70985 -24.33593,90.38672 5.43059,6.51675 9.56174,5.2124 13.90625,-3.47657 4.34448,-8.68895 11.62732,-17.38327 20.85937,-26.07226 8.14589,14.66264 14.99284,20.74833 22.59571,19.11914 l 5.21484,22.59766 C 109.09781,400.43056 54.11117,449.06034 29.626953,520.25781 8.9906596,580.26602 -1.0079939,647.70755 0.078125,725.36523 v 205.10743 c 40.186507,16.83488 70.293485,19.00762 90.386719,8.68945 20.093236,-10.31817 50.309296,-53.62929 92.124996,-132.10156 22.69781,-42.59525 47.90601,-76.81838 73.00391,-104.29297 v 3.47656 c -24.1505,31.63815 -43.57729,71.53828 -57.36133,119.93555 -1.08614,7.60285 0.48964,12.38612 3.47656,15.64453 2.98687,3.25836 10.6503,1.73564 22.59766,-6.95313 24.70926,-23.28379 42.55369,-32.87509 55.62109,-29.54882 l 5.21485,26.07226 v 12.16797 c -12.49041,17.37792 -20.75074,31.39864 -27.81055,41.7168 -7.05977,10.31817 -2.82148,23.68672 15.64258,39.97851 h -15.64258 v 29.54883 h 57.35938 L 325.12109,1000 l 26.07422,-5.21484 -8.6914,-39.97852 h 33.02539 v -29.54883 l -15.64453,-1.73828 c 12.4904,-3.80123 16.40333,-13.80009 10.42968,-29.54883 l 6.95313,-15.64453 c -7.05981,-12.49038 -20.21014,-22.59812 -36.50196,-31.28711 v -39.97851 h 26.07227 c 23.89469,0 36.50194,-12.71638 36.50195,-38.24024 7.60283,12.49038 24.99343,27.1633 52.14649,43.45508 L 415.50781,984.35547 H 625.83008 L 582.375,812.27539 c 29.86836,-16.29184 48.0202,-30.96464 55.62305,-43.45508 0,25.52381 13.80256,38.24024 38.24023,38.24024 h 24.33399 v 39.97851 c -16.29184,8.68899 -29.44215,18.79667 -36.50196,31.28711 l 8.69141,15.64453 c -6.51677,15.74874 -4.34397,25.74738 8.68945,29.54883 l -15.64258,1.73828 v 29.54883 h 33.02539 l -8.6914,38.24024 27.8125,6.95312 10.42773,-45.19336 h 57.36133 v -29.54883 h -17.38281 c 17.92102,-16.29179 24.17107,-29.66034 17.38281,-39.97851 -6.78832,-10.31816 -18.25369,-24.33888 -31.28711,-41.7168 l 8.68945,-38.24023 c 12.91105,-2.09196 30.68926,7.26295 53.88477,29.54882 12.49039,8.68893 19.61085,10.21149 22.59766,6.95313 2.98692,-3.25835 4.56092,-8.04168 3.47461,-15.64453 -13.93573,-47.86619 -33.62144,-86.72437 -57.35938,-118.19727 l 1.73828,-5.21484 c 24.67245,27.35239 47.05142,62.11411 69.52735,104.29297 41.81565,78.47227 73.49849,121.78339 93.86328,132.10156 20.36473,10.31811 50.20025,8.14543 90.38675,-8.68945 V 725.36523 c 1.0863,-77.65768 -7.4477,-146.40349 -27.8125,-208.58398 -24.24893,-72.66418 -80.521,-117.85919 -147.74613,-149.48437 l 5.21485,-22.59766 c 7.60285,1.62918 16.73113,-4.45648 24.33398,-19.11914 9.23203,8.68895 16.24334,17.38326 20.85938,26.07226 4.61608,8.68898 8.47361,9.45026 13.90429,3.47657 12.49039,-53.21993 4.99123,-82.78386 -24.33398,-90.38672 L 950.87305,70.064453 c 2.71531,-11.947344 5.43304,-17.92587 8.6914,-17.382812 15.74879,3.801414 25.74744,-2.175161 29.54883,-17.38086 3.80146,-16.834878 -4.89283,-28.1397717 -26.07226,-33.0273435 -24.6697,-6.0725095 -55.68013,-2.89689959 -69.5293,53.8847655 z m -759.5918,3.476563 46.93164,194.677734 -27.8125,8.69141 L 106.10938,66.587891 C 101.2218,46.494656 95.786339,37.148167 88.726562,38.777344 76.77922,42.035701 70.039423,39.970111 67.867188,31.824219 66.23801,24.76441 71.564376,19.438043 83.511719,16.179688 122.20049,7.3135083 131.16439,46.841279 133.91992,59.634766 Z M 959.56445,16.179688 c 11.94734,2.715298 16.07652,8.584722 13.9043,15.644531 -1.62918,8.145891 -7.17179,10.211482 -19.11914,6.953125 -7.60285,-1.629178 -14.7766,7.717312 -19.12109,27.810547 L 890.03516,261.26562 862.22461,254.3125 909.15625,59.634766 C 914.2392,37.94753 927.15048,8.7514614 959.56445,16.179688 Z M 488.51172,186.52344 c 23.35163,0 37.9154,10.75992 41.7168,33.02539 3.80141,22.26551 -9.45801,38.2427 -38.24024,46.93164 4.07265,44.79924 -23.70611,34.23637 -31.28711,26.07226 -7.05977,-7.60287 -12.60437,-21.40535 -19.12109,-38.24023 -6.51675,-16.83488 -16.51536,-24.33399 -29.54883,-24.33398 h 13.90625 c -5.97365,-9.23205 -8.03923,-17.16707 -6.95312,-22.59766 5.43058,1.08612 8.25742,0.21775 10.42968,-5.21289 9.77511,-10.31813 29.7724,-15.64452 59.09766,-15.64453 z m 48.66992,1.73828 c 8.14593,0 19.55797,10.65082 34.76367,31.28711 15.2057,20.63629 24.33594,54.00408 24.33594,99.07812 0,41.27262 3.58635,104.20233 13.9043,189.46289 10.31816,85.26053 17.22037,148.57089 19.12109,191.20118 1.90062,42.63029 -24.45576,73.11791 -78.21875,92.125 L 589.32812,958.2832 H 453.74805 l 31.28711,-166.86718 c -50.50463,-19.00709 -74.90463,-49.49471 -73.00391,-92.125 1.90069,-42.63024 9.56225,-107.13584 22.5957,-192.93946 13.03347,-85.80361 16.9464,-152.6463 10.42969,-199.89258 39.64341,22.80853 62.36038,13.24387 67.79102,-31.2871 38.01423,-18.46407 45.51335,-47.80981 24.33398,-86.91016 z m -83.43359,12.16797 c -11.40423,0 -17.38282,5.86748 -17.38282,15.64258 0,10.8612 5.97857,15.64453 17.38282,15.64453 9.77512,0 15.10147,-4.78332 15.64453,-15.64453 -0.54307,-9.7751 -5.86942,-15.64258 -15.64453,-15.64258 z m 390.875,69.45508 c 3.25389,0.1452 6.5755,0.89403 10.64843,1.81054 l 36.50196,8.69141 c 21.72247,4.34449 29.22345,16.51777 24.33594,38.24023 -12.49041,-19.00716 -23.25228,-23.1383 -33.02735,-13.90625 -6.51672,17.921 -13.90671,25.96318 -22.5957,24.33399 -8.68893,-2.7153 -11.40672,-12.82304 -8.69141,-31.28711 -5.43057,-13.03346 -18.0379,-13.68563 -36.50195,-1.73828 3.66568,-15.88454 12.93895,-24.85037 26.07422,-26.07227 1.09465,-0.10179 2.17123,-0.12063 3.25586,-0.0723 z m -646.16993,0.01 c 1.08463,-0.041 2.16126,-0.0223 3.25586,0.0625 13.13529,1.01823 22.40857,9.78043 26.07422,26.07227 -19.00711,-11.94734 -31.61638,-11.29517 -36.5039,1.73828 2.71529,18.46406 -4.7e-4,30.3101 -8.68946,33.02539 -8.68895,1.62918 -16.08089,-6.41299 -22.59765,-24.33399 -9.77507,-9.23201 -20.53498,-5.10087 -33.02539,13.90625 -4.88757,-21.72245 3.15459,-35.63404 24.33398,-39.97851 l 36.50391,-8.69141 c 4.07297,-1.01822 7.39459,-1.67783 10.64843,-1.80078 z m 218.79297,73.06641 c 5.97366,23.35159 3.36506,66.71802 -6.95312,128.62695 -66.16937,10.2405 -122.17086,24.78764 -170.34375,43.45508 l -31.28711,-133.8418 c 58.03067,-24.907 126.78708,-38.24023 208.58398,-38.24023 z m 205.10743,0 c 85.85207,0 155.83371,11.38469 212.06054,34.76367 l -33.02734,137.31836 c -47.87208,-18.42672 -104.3716,-33.30583 -170.3418,-43.45508 -7.05975,-61.90893 -9.77754,-105.27536 -8.6914,-128.62695 z m 238.13281,48.66992 c 34.32314,18.27111 103.72474,60.07639 128.62695,144.26953 17.10642,57.83594 24.33402,97.56094 24.33402,118.19727 -24.54892,-23.22908 -99.04712,-89.92259 -184.24808,-128.625 z m -677.89649,1.73828 31.28711,132.10352 c -65.59571,29.60399 -127.188644,72.38193 -185.988278,128.625 0,-20.63633 8.967794,-60.36128 26.074219,-118.19727 12.009988,-40.60544 41.079885,-96.27694 128.626949,-142.53125 z m 225.96485,100.81445 -17.38086,112.98438 c -45.34557,2.17205 -86.307,16.46448 -121.67383,41.7168 l -24.33594,-111.2461 c 46.16878,-18.62079 100.35374,-33.33802 163.39063,-43.45508 z m 225.96679,0 c 62.64777,10.11706 115.4545,24.8343 161.65235,43.45508 l -26.07422,111.2461 C 734.94991,624.17236 695.2686,609.31582 650.16406,607.16797 Z M 219.0918,548.06836 246.90234,668.00391 C 221.47308,691.52437 198.6397,721.21733 179.11328,758.39062 128.3371,855.0554 95.893017,907.11611 81.773438,913.08984 67.653858,919.06346 49.611122,916.56393 27.888672,907.875 V 688.86328 C 84.900674,632.51675 146.12833,581.92171 219.0918,548.06836 Z m 604.89258,0 c 71.73795,34.11206 135.49621,86.82828 189.46292,140.79492 V 907.875 c -21.17944,8.68893 -39.49174,11.18846 -53.88285,5.21484 -14.39106,-5.97373 -46.8352,-58.03443 -97.33984,-154.69922 -19.40118,-37.13341 -40.63922,-66.87682 -66.05078,-90.38671 z m -432.81055,93.86328 c -9.77507,27.15299 -13.90625,73.4534 -13.90625,140.79297 h -55.62305 v 62.57617 h -5.21484 L 283.4043,707.98242 c 27.74994,-29.38094 63.23191,-51.3013 107.76953,-66.05078 z m 258.99023,0 c 44.10373,14.60576 78.38973,37.09724 106.03125,66.05078 l -31.28906,137.31836 h -3.47656 v -62.57617 h -57.35938 c 0,-67.33957 -4.67406,-113.63998 -13.90625,-140.79297 z m -387.61718,92.125 10.42773,48.66797 c -11.73972,3.3325 -26.85243,9.45799 -43.45313,19.12109 7.84081,-25.43904 19.09097,-47.66095 33.0254,-67.78906 z m 516.24414,1.73633 c 13.54242,19.83431 25.339,41.11457 33.02539,66.05273 -17.5103,-10.19257 -31.35305,-17.71014 -43.45508,-20.85937 z M 323.38281,876.58789 c 4.94104,0.88106 9.19192,3.72879 13.90625,8.69141 9.23205,11.94729 10.31818,23.90241 0,34.76367 -1.04539,0.71275 -2.43948,1.17104 -3.47656,1.73828 z m 394.57227,1.73828 -10.42969,43.45508 c -1.07629,-0.56735 -2.38358,-1.02576 -3.47656,-1.73828 -10.31811,-10.86126 -10.97031,-22.81638 -1.73828,-34.76367 4.53656,-4.77517 10.79321,-5.95693 15.64453,-6.95313 z m -418.90625,12.16797 6.95312,27.81055 c -1.04812,-0.86453 -2.43836,-0.70009 -3.47656,-1.73828 -6.51675,-8.96048 -7.95681,-18.02817 -3.47656,-26.07227 z m 443.24023,1.73828 c 3.51478,7.63144 3.0496,15.88851 -3.47656,24.33399 -0.60684,0.6391 -1.12366,1.16537 -1.73828,1.73828 z"
     sodipodi:nodetypes="cccsccccsccccsccccscccccccccscccsccsscccsccccsccccccccccccccsccccccsccccccccccccccscccscccssccscccscccccccccccccccccccccccsscssccccscsscsccccsscccssscsscccccccsssccccccccscccccccccccccscccsssccccccccccccssccscccssccccccccccccccccccccccccccccccccccccccccccc" />
  <path
     style="fill:#000000;stroke:none;stroke-width:1"
     d="m 369.50586,157.31445 c -0.0282,0.0734 -0.0578,0.14535 -0.0859,0.21875 0.0383,-0.0443 0.14218,-0.0883 0.14649,-0.13281 v -0.002 -0.002 c -1.3e-4,-8.2e-4 -0.002,-0.005 -0.002,-0.006 v -0.002 c -0.002,-0.003 -0.006,-0.009 -0.008,-0.0117 -0.0174,-0.0207 -0.0336,-0.0414 -0.0508,-0.0625 z"
     id="path16" />
  <path
     style="fill:#ff7800;stroke:none;stroke-width:0.999998"
     d="m 391.42854,31.463508 c -8.21137,0.07319 -19.75166,0.227232 -19.75166,9.774398 0,3.801311 6.17306,6.714007 13.36837,7.800096 -8.52539,5.519012 -12.55486,13.786786 -12.55486,21.525126 0,26.418146 12.5592,81.252462 35.31053,81.252462 14.6622,0 28.3255,-9.87305 33.2129,-24.94257 l -9.99817,-25.35763 c 0,23.58068 -18.7094,29.95357 -21.68706,25.55788 -7.42473,-10.95716 11.62808,-27.440391 11.62808,-62.415762 0.78535,-17.491694 -11.68796,-32.283103 -29.52809,-33.194 z"
     id="path1"
     sodipodi:nodetypes="sscsscccsss" />
  <path
     style="fill:#ff7800;stroke:none;stroke-width:1"
     d="m 584.99885,129.96756 c 17.95824,14.96517 32.92016,24.44501 44.89242,28.49434 10.47565,4.62566 17.22612,6.9577 20.23766,6.9577 0.8854,0 1.43378,-0.20693 1.67442,-0.60603 2.81702,-2.28888 2.48193,-4.5822 -1.03912,-6.87108 -23.59243,-13.02838 -42.2745,-27.90664 -56.00721,-44.63256 z"
     id="path5"
     sodipodi:nodetypes="ccscccc" />
  <path
     id="path17"
     style="fill:#ff7800;fill-rule:evenodd;stroke-width:25;stroke-linecap:round"
     d="M 514.58594 4.0117188 A 85.1717 81.695312 0 0 0 429.41406 85.707031 A 85.1717 81.695312 0 0 0 514.58594 167.40234 A 85.1717 81.695312 0 0 0 599.75586 85.707031 A 85.1717 81.695312 0 0 0 514.58594 4.0117188 z M 513.7168 26.609375 A 61.706032 59.098728 0 0 1 575.42188 85.707031 A 61.706032 59.098728 0 0 1 513.7168 144.80664 A 61.706032 59.098728 0 0 1 452.00977 85.707031 A 61.706032 59.098728 0 0 1 513.7168 26.609375 z " />
</svg>
