<?xml version="1.0" encoding="UTF-8" standalone="no"?>
<svg
   width="600"
   height="1000"
   id="svg2490"
   sodipodi:version="0.32"
   inkscape:version="1.4.2 (f4327f4, 2025-05-13)"
   sodipodi:docname="13E5C.svg"
   inkscape:output_extension="org.inkscape.output.svg.inkscape"
   version="1.0"
   xmlns:inkscape="http://www.inkscape.org/namespaces/inkscape"
   xmlns:sodipodi="http://sodipodi.sourceforge.net/DTD/sodipodi-0.dtd"
   xmlns:xlink="http://www.w3.org/1999/xlink"
   xmlns="http://www.w3.org/2000/svg"
   xmlns:svg="http://www.w3.org/2000/svg"
   xmlns:rdf="http://www.w3.org/1999/02/22-rdf-syntax-ns#"
   xmlns:cc="http://creativecommons.org/ns#"
   xmlns:dc="http://purl.org/dc/elements/1.1/">
  <metadata
     id="metadata2497">
    <rdf:RDF>
      <cc:Work
         rdf:about="">
        <dc:format>image/svg+xml</dc:format>
        <dc:type
           rdf:resource="http://purl.org/dc/dcmitype/StillImage" />
      </cc:Work>
    </rdf:RDF>
  </metadata>
  <defs
     id="defs2495">
    <inkscape:perspective
       sodipodi:type="inkscape:persp3d"
       inkscape:vp_x="0 : 991.32634 : 1"
       inkscape:vp_y="0 : 1000 : 0"
       inkscape:vp_z="6.2389979 : 991.32634 : 1"
       inkscape:persp3d-origin="3.119499 : 988.3301 : 1"
       id="perspective2499" />
  </defs>
  <sodipodi:namedview
     inkscape:window-height="998"
     inkscape:window-width="1680"
     inkscape:pageshadow="2"
     inkscape:pageopacity="0.0"
     guidetolerance="10.0"
     gridtolerance="10.0"
     objecttolerance="10.0"
     borderopacity="1.0"
     bordercolor="#666666"
     pagecolor="#ffffff"
     id="base"
     showgrid="false"
     showguides="true"
     inkscape:guide-bbox="true"
     inkscape:zoom="1.0677312"
     inkscape:cx="245.84839"
     inkscape:cy="125.96803"
     inkscape:window-x="-8"
     inkscape:window-y="-8"
     inkscape:current-layer="svg2490"
     inkscape:showpageshadow="2"
     inkscape:pagecheckerboard="0"
     inkscape:deskcolor="#d1d1d1"
     inkscape:window-maximized="1">
    <sodipodi:guide
       position="394.41024,37.64597"
       orientation="1,0"
       id="guide1"
       inkscape:locked="false" />
    <sodipodi:guide
       position="226.55843,866.0528"
       orientation="0,-1"
       id="guide2"
       inkscape:locked="false" />
    <sodipodi:guide
       position="339.91419,809.69307"
       orientation="1,0"
       id="guide5"
       inkscape:locked="false" />
    <sodipodi:guide
       position="169.9571,732.53438"
       orientation="0,-1"
       id="guide8"
       inkscape:locked="false" />
    <sodipodi:guide
       position="226.55843,886.0528"
       orientation="0,1"
       id="guide9"
       inkscape:label=""
       inkscape:locked="false"
       inkscape:color="rgb(0,134,229)" />
    <sodipodi:guide
       position="226.55843,846.0528"
       orientation="0,1"
       id="guide10"
       inkscape:label=""
       inkscape:locked="false"
       inkscape:color="rgb(0,134,229)" />
  </sodipodi:namedview>
  <path
     style="fill:#ff7800;stroke:none;stroke-width:1"
     d="m 420.32783,811.03441 95.55648,-93.40909 30.06267,31.13636 -106.29315,98.77746 c 57.2623,27.91534 85.53557,78.73564 84.81982,152.46085 H 263.57231 c 0,-73.72521 28.63115,-124.54551 85.89345,-152.46085 l -106.29315,-97.70376 30.06273,-30.06273 95.55642,90.18813 V 306.9148 247.1842 191.41682 143.00973 Z m -112.7351,151.38722 h 172.86049 c -9.30509,-55.11497 -37.93623,-82.67249 -85.8934,-82.67249 -47.24137,0 -76.23041,27.55752 -86.96709,82.67249 z"
     id="path2492"
     sodipodi:nodetypes="cccccccccccccccccsc" />
  <path
     style="fill:#ff7800;stroke:none;stroke-width:1"
     d="m 256.40498,98.936484 v 49.540346 c 31.94511,1.8155 112.13352,-7.0544 113.23509,50.38962 0,211.08816 -10e-6,400.23978 0,611.32793 l -95.54211,-90.23421 -30.07807,30.07807 106.1579,97.3114 c -57.26231,27.91534 -86.69562,78.43444 -86.69562,152.15965 H 525.33831 C 526.05407,925.78408 497.6743,875.26498 440.41199,847.34964 l 106.1579,-99.0807 -30.07807,-30.07807 -95.54211,92.00351 V 176.14866 c 0,-78.872282 -118.2794,-77.651885 -164.54473,-77.212176 z M 394.41024,879.19701 c 47.95717,0 77.39053,28.04205 86.69561,83.15702 H 307.71463 c 10.73668,-55.11497 39.45424,-83.15702 86.69561,-83.15702 z"
     id="path2514"
     sodipodi:nodetypes="ccccccccccccccccccc" />
  <path
     style="fill:#ff7800;stroke:none;stroke-width:1"
     d="m 333.47761,52.650799 -75.05097,73.469921 81.48755,64.18621 C 293.27617,229.8332 256.50009,251.60799 182.24867,267.46562 127.02178,266.70473 83.767396,257.56504 52.485539,240.04655 21.203644,222.52802 3.718686,189.66094 0.03066478,141.44534 -0.76056559,93.865188 13.760068,59.503594 43.592565,38.36057 73.425103,17.217584 115.6632,4.6220937 170.30684,0.57410019 224.95053,-3.4738956 279.34078,13.885004 333.47761,52.650799 Z M 51.551881,139.60068 c 2.446654,52.32544 43.43483,78.14792 122.964539,77.46745 37.16898,-2.20438 66.08008,-12.39501 86.73328,-30.5719 L 179.08512,130.8262 256.73219,66.889171 C 234.57336,52.865793 204.25112,48.20618 165.76548,52.910334 87.477555,64.818492 49.406354,93.715271 51.551881,139.60068 Z"
     id="path2518"
     sodipodi:nodetypes="ccccscsscccccccc" />
  <path
     style="fill:none;stroke:#8ff0a4;stroke-width:50;stroke-linecap:butt;stroke-linejoin:miter;stroke-dasharray:none;stroke-opacity:1"
     d="m 394.41017,865.97413 -0.0277,-638.37961 c 0,-67.89667 -22.89089,-111.27134 -103.54441,-111.27134 l -64.44812,0"
     id="path7"
     sodipodi:nodetypes="ccsc" />
  <path
     style="fill:none;fill-rule:evenodd;stroke:#613583;stroke-width:40;stroke-linejoin:miter;stroke-miterlimit:2;stroke-dasharray:none"
     id="path8"
     sodipodi:type="arc"
     sodipodi:cx="394.41025"
     sodipodi:cy="980.5"
     sodipodi:rx="107.49249"
     sodipodi:ry="118.85995"
     sodipodi:start="3.1415927"
     sodipodi:end="0"
     sodipodi:arc-type="slice"
     d="M 286.91776,980.5 A 107.49249,118.85995 0 0 1 394.41025,861.64005 107.49249,118.85995 0 0 1 501.90274,980.5 H 394.41025 Z" />
  <path
     style="fill:none;stroke:#c061cb;stroke-width:40;stroke-linecap:butt;stroke-linejoin:miter;stroke-dasharray:none;stroke-opacity:1"
     d="M 394.406,861.64005 528.5487,738.2432"
     id="path9"
     inkscape:transform-center-x="-67.07135"
     inkscape:transform-center-y="-61.698425" />
  <use
     x="0"
     y="0"
     xlink:href="#path9"
     inkscape:transform-center-x="67.07135"
     inkscape:transform-center-y="-61.698425"
     id="use9"
     transform="matrix(-1,0,0,1,788.81599,-5.5908203e-6)" />
  <path
     id="path10"
     style="fill:none;stroke:#c061cb;stroke-width:40;stroke-linecap:butt;stroke-linejoin:miter;stroke-dasharray:none;stroke-opacity:1"
     d="m 226.55843,133.9472 79.4081,-80.269684 C 268.83841,31.363388 220.09891,20.280957 171.43708,20.430218 67.362102,20.74945 -16.474443,55.158406 -16.474443,133.9472 c 1.1e-5,78.78879 84.039212,113.31236 188.257953,113.51785 48.54665,0.0956 97.14301,-10.98699 134.18302,-33.24817 z"
     sodipodi:nodetypes="ccszscc" />
  <path
     id="path1"
     style="baseline-shift:baseline;display:inline;overflow:visible;opacity:1;vector-effect:none;fill:#000000;enable-background:accumulate;stop-color:#000000;stop-opacity:1"
     d="m 241.62241,113.9472 v 40 h 49.21548 c 50.97448,0 78.54178,22.31706 78.54492,93.20149 l 0.0274,618.82592 50,-0.002 -0.0274,-618.82397 C 419.38126,212.09472 417.28716,113.9472 290.83789,113.9472 Z"
     sodipodi:nodetypes="ccssccssc" />
</svg>
