<?xml version="1.0" encoding="UTF-8" standalone="no"?>
<svg
   width="400"
   height="1000"
   version="1.1"
   id="svg1"
   sodipodi:docname="13E5F.svg"
   inkscape:version="1.4.2 (f4327f4, 2025-05-13)"
   xmlns:inkscape="http://www.inkscape.org/namespaces/inkscape"
   xmlns:sodipodi="http://sodipodi.sourceforge.net/DTD/sodipodi-0.dtd"
   xmlns="http://www.w3.org/2000/svg"
   xmlns:svg="http://www.w3.org/2000/svg">
  <defs
     id="defs1" />
  <sodipodi:namedview
     id="namedview1"
     pagecolor="#ffffff"
     bordercolor="#666666"
     borderopacity="1.0"
     inkscape:showpageshadow="2"
     inkscape:pageopacity="0.0"
     inkscape:pagecheckerboard="0"
     inkscape:deskcolor="#d1d1d1"
     inkscape:zoom="0.755"
     inkscape:cx="416.55629"
     inkscape:cy="947.68212"
     inkscape:window-width="1680"
     inkscape:window-height="998"
     inkscape:window-x="-8"
     inkscape:window-y="-8"
     inkscape:window-maximized="1"
     inkscape:current-layer="svg1"
     showguides="true">
    <sodipodi:guide
       position="267.84946,856.37034"
       orientation="0,-1"
       id="guide1"
       inkscape:locked="false" />
    <sodipodi:guide
       position="450.24336,357.32813"
       orientation="0,-1"
       id="guide2"
       inkscape:locked="false" />
  </sodipodi:namedview>
  <path
     style="fill:#000000;stroke:none;stroke-width:0.999998"
     d="m 168.12881,46.746404 c 40.37954,0 89.29476,13.144944 144.8593,40.371517 l -57.38115,55.642329 v 1.73883 l 57.38115,53.90351 c -55.10505,27.0015 -102.70228,40.3689 -142.72308,40.3689 -47.80421,0 -125.05563,-28.79881 -125.05563,-95.14183 0,-67.678453 73.84506,-96.883256 122.91941,-96.883256 z M 158.15147,0 C 81.498554,0 0,48.623842 0,142.76025 0,262.95435 127.90491,289.40149 149.53877,285.34373 V 1000 h 57.38115 V 280.12726 c 35.79538,0 96.23008,-22.03269 180.83758,-64.33644 l -73.03054,-71.29174 v -1.73883 L 387.75751,71.468515 C 293.5443,24.361938 217.38704,0 158.15147,0 Z"
     id="path1"
     sodipodi:nodetypes="sccccsssssccccccccs" />
  <path
     style="fill:#000000;stroke:none;stroke-width:1"
     d="M 356.45842,793.08036 H 0 v 57.38086 h 356.45842 z"
     id="path4"
     sodipodi:nodetypes="ccccc" />
</svg>
