<?xml version="1.0" encoding="UTF-8" standalone="no"?>
<svg
   width="700"
   height="1000"
   version="1.1"
   id="svg1"
   sodipodi:docname="13E7D.svg"
   inkscape:version="1.4.2 (f4327f4, 2025-05-13)"
   xmlns:inkscape="http://www.inkscape.org/namespaces/inkscape"
   xmlns:sodipodi="http://sodipodi.sourceforge.net/DTD/sodipodi-0.dtd"
   xmlns="http://www.w3.org/2000/svg"
   xmlns:svg="http://www.w3.org/2000/svg">
  <defs
     id="defs1" />
  <sodipodi:namedview
     id="namedview1"
     pagecolor="#ffffff"
     bordercolor="#666666"
     borderopacity="1.0"
     inkscape:showpageshadow="2"
     inkscape:pageopacity="0.0"
     inkscape:pagecheckerboard="0"
     inkscape:deskcolor="#d1d1d1"
     inkscape:zoom="0.26693281"
     inkscape:cx="-754.87161"
     inkscape:cy="1005.8711"
     inkscape:window-width="1680"
     inkscape:window-height="998"
     inkscape:window-x="-8"
     inkscape:window-y="-8"
     inkscape:window-maximized="1"
     inkscape:current-layer="svg1"
     showguides="true">
    <sodipodi:guide
       position="357.99055,281.65754"
       orientation="0.96554959,-0.26021911"
       id="guide2"
       inkscape:locked="false" />
    <sodipodi:guide
       position="431.65109,235.66878"
       orientation="0,-1"
       id="guide3"
       inkscape:locked="false" />
    <sodipodi:guide
       position="700,1000"
       orientation="0,-1"
       id="guide4"
       inkscape:locked="false" />
    <sodipodi:guide
       position="700,0"
       orientation="0,-1"
       id="guide5"
       inkscape:locked="false" />
  </sodipodi:namedview>
  <path
     style="fill:#000000;stroke:none;stroke-width:1"
     d="m 311.90591,121.0191 c -5.94481,-18.68364 -14.43739,-32.271742 -25.47773,-40.764318 2.54777,-25.477693 11.04034,-42.887467 25.47773,-52.229324 15.28663,9.341857 24.20382,26.751631 26.75159,52.229324 -11.04034,8.492576 -19.95754,22.080678 -26.75159,40.764318 z m 0,89.172 c -30.57326,-6.79405 -47.55839,-22.08068 -50.9554,-45.85989 -3.39705,-23.77921 -13.16351,-46.70915 -29.29938,-68.789835 30.57326,0 49.68154,12.314225 57.32483,36.942675 7.6433,22.08069 15.28662,33.12103 22.92995,33.12103 8.49257,0 16.13589,-11.04034 22.92994,-33.12103 7.6433,-24.62845 27.1762,-36.942675 58.5987,-36.942675 -16.13587,22.080685 -26.11463,45.010625 -29.93628,68.789835 -3.82169,23.77921 -21.01914,39.06584 -51.59236,45.85989 z m -175.96684,96.81524 c -10.19106,-16.13587 -22.08064,-27.1762 -35.66875,-33.12097 -4.246287,-24.62849 -0.424639,-43.31214 11.46495,-56.05097 16.98515,4.24629 30.14863,18.25902 39.49045,42.03819 -8.49257,11.88962 -13.58812,27.60087 -15.28665,47.13375 z m 22.92995,85.35035 c -31.4225,2.54777 -51.80466,-7.43101 -61.146483,-29.93634 -9.341819,-22.50529 -24.628449,-41.82587 -45.859891,-57.96174 29.724018,-8.49257 51.380084,-2.12316 64.968184,19.10824 12.73883,19.53292 22.92991,28.45012 30.57324,26.7516 8.49258,-2.54777 13.16349,-15.28661 14.01273,-38.21654 0.84925,-25.47769 16.13588,-42.03821 45.85989,-49.68154 -9.34185,24.62845 -12.73888,49.04458 -10.19108,73.24839 2.54777,24.20385 -10.19109,43.09982 -38.21659,56.68793 z m 309.95091,0 c -28.02545,-14.43739 -40.55198,-33.54566 -37.57958,-57.32483 2.97241,-23.77921 -0.63694,-48.40766 -10.82804,-73.88535 29.72402,7.64329 45.43529,24.62843 47.13381,50.9554 0.84921,22.92993 5.09548,35.24415 12.73881,36.94267 8.49258,2.54777 19.1083,-5.94481 31.84717,-25.47773 13.58811,-22.08065 35.24415,-28.8747 64.96813,-20.38216 -21.23141,16.98515 -36.73036,36.51807 -46.49685,58.59876 -9.76646,22.08069 -30.36094,32.27177 -61.78345,30.57324 z m 22.92995,-85.35035 c -0.84921,-19.53288 -5.52012,-35.24413 -14.01273,-47.13375 8.49261,-23.77917 21.23146,-37.7919 38.21654,-42.03819 11.88962,11.88959 16.13593,30.57324 12.73892,56.05097 -13.58815,5.09553 -25.90239,16.13586 -36.94273,33.12097 z m -89.39811,496.81528 17.83438,163.05735 h -217.8344 l 21.65602,-163.05735 z m 83.02868,-385.98725 v 0 c 0,0 54.35248,-16.77278 66.2421,-45.22288 11.88955,-28.4501 27.60081,-45.22293 47.13376,-50.3185 13.58807,-5.09553 16.13584,-12.73885 7.6433,-22.92994 -10.1911,-16.13587 -27.60088,-24.20381 -52.22933,-24.20381 2.54777,-50.95543 -7.64331,-79.83017 -30.57324,-86.62422 -22.92993,-5.94477 -45.85987,14.01277 -68.78984,59.87262 -21.2314,-12.73887 -40.7643,-14.43737 -58.5987,-5.09551 -11.88958,4.24625 -13.58808,12.31419 -5.09551,24.20381 14.43735,13.58811 19.53288,35.66879 15.28659,66.24205 -4.24629,30.57323 7.64332,54.77704 35.66881,72.61143 l -96.47198,357.9618 -10.76056,6e-5 V 230.57326 c 30.57323,-10.19109 47.98298,-30.57327 52.22927,-61.14654 4.24629,-30.57322 15.28663,-50.95538 33.12103,-61.14648 11.04034,-8.492577 11.46496,-16.135892 1.27386,-22.929946 C 406.17342,71.762187 386.64052,67.940538 362.86131,73.885349 353.51946,24.62845 336.53432,0 311.90591,0 288.1267,0 271.14157,24.62845 260.95051,73.885349 237.1713,67.940538 217.63838,71.762187 202.35175,85.350294 c -10.1911,6.794054 -9.34184,14.437369 2.54778,22.929946 16.98515,10.1911 27.60086,30.57326 31.84711,61.14648 4.24629,30.57327 22.08068,50.95545 53.50319,61.14654 v 0 533.75796 h -7.81392 l -95.54138,-357.9618 c 27.17622,-16.98515 38.64119,-40.97666 34.39489,-71.97452 -4.24628,-30.99787 0.84925,-53.29085 15.2866,-66.87896 9.34186,-11.04034 7.64335,-19.10828 -5.09552,-24.20381 -17.83439,-8.49258 -36.94267,-6.79408 -57.32483,5.09551 -22.92996,-45.85985 -46.28453,-65.39275 -70.0637,-58.5987 -22.929927,5.94477 -32.696387,34.39487 -29.299379,85.3503 -24.62845,0 -42.462846,8.49257 -53.503187,25.47772 -8.492577,9.34182 -5.944811,16.98512 7.643296,22.92989 19.532919,5.09557 35.244171,21.86841 47.133755,50.3185 11.889622,28.4501 33.970305,43.52441 66.242055,45.22294 l 1.27392,-1.27392 94.26751,346.49685 H 192.16067 L 161.58743,1000 H 460.95047 L 431.65109,764.33122 h -40.5381 z"
     id="path1"
     sodipodi:nodetypes="ccccccsccsccscccccccscccccsccscccccsccccccccccccsscccccccsccccscccscccssccccscccccccsccccccccc" />
  <path
     style="fill:#000000;stroke:none;stroke-width:0.999998"
     d="m 88.73512,568.8589 c -13.59079,0 -37.75516,75.4917 -72.48828,226.50391 -25.6722002,1.50884 -38.33032,18.32179 -37.94727,50.41211 0.38305,32.08988 1.32711,55.306 2.83594,69.65234 1.50884,14.34577 8.79416,22.10671 21.5234398,24.91211 12.5233602,2.76001 20.8704402,-3.4409 26.6230402,-15.2832 6.41863,-13.21341 15.2793,-34.74534 26.60547,-64.57031 11.32611,-29.8248 7.55205,-49.63723 -11.32422,-59.45313 l 46.43555,-180.08593 98.4707,164.1289 29.183,-20.74448 C 143.14366,634.04341 99.82416,568.8589 88.73512,568.8589 Z M 23.0359,820.28859 c 16.31314,3.2225 19.25945,14.33839 7.93359,40.76563 -11.32586,26.42717 -20.01235,45.67697 -26.0527302,57.75781 -0.75442,-13.5908 -1.30876,-34.54312 -1.69141,-62.85742 -0.17222,-12.74297 -0.28922,-39.63654 19.8105502,-35.66602 z"
     id="path11"
     sodipodi:nodetypes="scsssssccccssscss" />
  <path
     style="fill:#000000;stroke:none;stroke-width:0.999998"
     d="m 534.96451,568.8589 c 13.59079,0 37.75516,75.4917 72.48828,226.50391 25.6722,1.50884 38.33032,18.32179 37.94727,50.41211 -0.38305,32.08988 -1.32711,55.306 -2.83594,69.65234 -1.50884,14.34577 -8.79416,22.10671 -21.52344,24.91211 -12.52336,2.76001 -20.87044,-3.4409 -26.62304,-15.2832 -6.41863,-13.21341 -15.2793,-34.74534 -26.60547,-64.57031 -11.32611,-29.8248 -7.55205,-49.63723 11.32422,-59.45313 l -46.43555,-180.08593 -98.4707,164.1289 -29.183,-20.74448 C 480.55597,634.04341 523.87547,568.8589 534.96451,568.8589 Z m 65.69922,251.42969 c -16.31314,3.2225 -19.25945,14.33839 -7.93359,40.76563 11.32586,26.42717 20.01235,45.67697 26.05273,57.75781 0.75442,-13.5908 1.30876,-34.54312 1.69141,-62.85742 0.17222,-12.74297 0.28922,-39.63654 -19.81055,-35.66602 z"
     id="path12"
     sodipodi:nodetypes="scsssssccccssscss" />
</svg>
