<?xml version="1.0" encoding="UTF-8" standalone="no"?>
<svg
   width="1400"
   height="1000"
   version="1.1"
   id="svg1"
   sodipodi:docname="13F51.svg"
   inkscape:version="1.4.2 (f4327f4, 2025-05-13)"
   xmlns:inkscape="http://www.inkscape.org/namespaces/inkscape"
   xmlns:sodipodi="http://sodipodi.sourceforge.net/DTD/sodipodi-0.dtd"
   xmlns="http://www.w3.org/2000/svg"
   xmlns:svg="http://www.w3.org/2000/svg">
  <defs
     id="defs1" />
  <sodipodi:namedview
     id="namedview1"
     pagecolor="#ffffff"
     bordercolor="#666666"
     borderopacity="1.0"
     inkscape:showpageshadow="2"
     inkscape:pageopacity="0.0"
     inkscape:pagecheckerboard="0"
     inkscape:deskcolor="#d1d1d1"
     showguides="true"
     inkscape:zoom="0.75071428"
     inkscape:cx="-79.25785"
     inkscape:cy="823.88202"
     inkscape:window-width="1680"
     inkscape:window-height="998"
     inkscape:window-x="-8"
     inkscape:window-y="-8"
     inkscape:window-maximized="1"
     inkscape:current-layer="svg1">
    <sodipodi:guide
       position="30,371.26546"
       orientation="-1,0"
       id="guide1"
       inkscape:locked="false"
       inkscape:label=""
       inkscape:color="rgb(0,134,229)" />
    <sodipodi:guide
       position="166.50809,0"
       orientation="0,1"
       id="guide2"
       inkscape:locked="false"
       inkscape:label=""
       inkscape:color="rgb(0,134,229)" />
    <sodipodi:guide
       position="166.50809,30"
       orientation="0,1"
       id="guide3"
       inkscape:label=""
       inkscape:locked="false"
       inkscape:color="rgb(0,134,229)" />
    <sodipodi:guide
       position="135,371.26546"
       orientation="-1,0"
       id="guide5"
       inkscape:label=""
       inkscape:locked="false"
       inkscape:color="rgb(0,134,229)" />
    <sodipodi:guide
       position="404.94767,174.11989"
       orientation="1,0"
       id="guide6"
       inkscape:locked="false" />
    <sodipodi:guide
       position="0,308.08413"
       orientation="0,-1"
       id="guide7"
       inkscape:locked="false" />
    <sodipodi:guide
       position="0,278.08413"
       orientation="0,1"
       id="guide8"
       inkscape:label=""
       inkscape:locked="false"
       inkscape:color="rgb(0,134,229)" />
    <sodipodi:guide
       position="299.94767,174.11989"
       orientation="-1,0"
       id="guide9"
       inkscape:label=""
       inkscape:locked="false"
       inkscape:color="rgb(0,134,229)" />
    <sodipodi:guide
       position="217.47384,278.08413"
       orientation="1,0"
       id="guide10"
       inkscape:locked="false" />
  </sodipodi:namedview>
  <path
     style="fill:none;stroke:#813d9c;stroke-width:60;stroke-linecap:butt;stroke-linejoin:miter;stroke-dasharray:none;stroke-opacity:1"
     d="M 135,970 H 30 V 721.91587 H 404.94767 V 970 h -105"
     id="path9"
     sodipodi:nodetypes="cccccc" />
  <path
     style="fill:#000000;stroke:none;stroke-width:1"
     d="m 735.24219,2.0390625 c -2.67259,0 -5.44809,0.054226 -8.33008,0.1640625 -1.03223,-0.014592 -2.06089,-0.021484 -3.08594,-0.021484 -62.46564,0 -111.78887,27.3188064 -114.46484,102.0039094 l 3.81836,587.73047 H 393.08594 c -1.84403,5.3841 -3.6968,10.76762 -5.73047,16.08203 -2.85966,7.47295 -5.40758,15.10544 -9.0332,22.23828 -0.47319,0.93092 -0.96335,1.85269 -1.46875,2.76562 h 40.96289 V 959.90234 H 314.17188 V 1000 h 246.17578 v -40.09766 h -98.5918 V 733.00195 H 838.39844 V 959.90234 H 736.9082 V 1000 H 980.47852 V 959.90234 H 881.86328 V 733.00195 H 1256.373 v 226.90039 h -99.3339 V 1000 h 137.6328 V 691.91602 h -205.5157 l -0.9667,-147.78711 c 32.2895,-37.79519 84.2513,-62.44614 140.4414,-73.94922 l -45.3321,-291.55078 c -1.1106,-19.75224 0.3165,-25.51483 1.0332,-31.29102 36.4246,-16.51156 50.4129,-43.77258 46.9942,-81.384765 -3.2743,-36.017756 -11.226,-63.6230469 -71.5957,-63.6230469 -2.6726,0 -5.4481,0.054226 -8.3301,0.1640625 -1.0322,-0.014664 -2.059,-0.021484 -3.084,-0.021484 -62.4649,0 -111.7674,27.3207588 -114.4434,102.0058638 l 3.7969,587.4375 H 664.66602 l -0.96485,-148.07813 c 32.2895,-37.79526 84.24944,-62.44629 140.43945,-73.94922 L 758.81055,178.33789 c -1.11059,-19.75232 0.29381,-25.51474 1.00976,-31.29101 36.42462,-16.51157 50.43443,-43.77266 47.01563,-81.384771 C 803.56169,29.644281 795.61203,2.0390625 735.24219,2.0390625 Z m -7.38672,34.6445315 c 24.31773,1.796417 44.78697,9.339379 44.99414,31.359375 9.28478,46.977761 -59.80214,35.305471 -47.2168,109.597651 l 38.95117,261.40626 c -49.68946,15.83055 -80.69926,34.22207 -109.21679,55.64062 l -3.70703,-329.87305 c 0.94928,-41.13651 -3.36817,-81.932225 17.52148,-99.93945 20.78268,-17.914999 40.27104,-26.264306 58.67383,-28.191406 z m 424.48833,0.314453 c 24.3176,1.796417 44.7867,9.315941 44.9941,31.335937 9.2845,46.977756 -59.802,35.307416 -47.2168,109.599606 l 38.9512,261.4043 c -49.6896,15.83041 -80.6991,34.2241 -109.2168,55.64258 l -3.6836,-329.87305 c 0.9495,-41.13644 -3.3915,-81.910743 17.498,-99.917967 20.7827,-17.915 40.2712,-26.264306 58.6739,-28.191406 z"
     id="path11" />
  <path
     style="fill:#000000;stroke:none;stroke-width:1"
     d="M 313.92793,0 C 229.11333,0 187.41927,30.074376 188.26035,159.19006 l 3.47032,532.72596 H 243.217 l -0.98827,-150.09961 c 32.28957,-37.79527 84.24936,-62.44622 140.43945,-73.94922 L 337.33809,176.31641 c -1.11079,-19.75232 0.29181,-25.51482 1.00978,-31.29102 36.42468,-16.51156 50.43443,-43.77265 47.01562,-81.384765 C 382.10498,27.791506 374.20262,0.25900511 314.60372,0.00195313 314.37858,0.00101865 314.15444,0 313.92793,0 Z m -7.54492,31.836373 c 24.38398,0 41.993,12.369604 44.99415,34.185111 6.52623,47.439696 -59.80395,35.305466 -47.21875,109.597656 l 38.95118,261.40625 c -49.68939,15.83055 -80.69725,34.22214 -109.21485,55.64063 L 230.18771,162.79297 C 229.11706,67.520517 254.76992,31.836373 306.38301,31.836373 Z"
     id="path1"
     sodipodi:nodetypes="ssccccccssssscccss" />
</svg>
