<?xml version="1.0" encoding="UTF-8" standalone="no"?>
<svg
   width="1200"
   height="1000"
   version="1.1"
   id="svg1"
   sodipodi:docname="1405C.svg"
   inkscape:version="1.4.2 (f4327f4, 2025-05-13)"
   xmlns:inkscape="http://www.inkscape.org/namespaces/inkscape"
   xmlns:sodipodi="http://sodipodi.sourceforge.net/DTD/sodipodi-0.dtd"
   xmlns="http://www.w3.org/2000/svg"
   xmlns:svg="http://www.w3.org/2000/svg">
  <defs
     id="defs1" />
  <sodipodi:namedview
     id="namedview1"
     pagecolor="#ffffff"
     bordercolor="#666666"
     borderopacity="1.0"
     inkscape:showpageshadow="2"
     inkscape:pageopacity="0.0"
     inkscape:pagecheckerboard="0"
     inkscape:deskcolor="#d1d1d1"
     inkscape:zoom="1.0677312"
     inkscape:cx="706.6385"
     inkscape:cy="836.82107"
     inkscape:window-width="1680"
     inkscape:window-height="998"
     inkscape:window-x="-8"
     inkscape:window-y="-8"
     inkscape:window-maximized="1"
     inkscape:current-layer="svg1"
     showguides="true">
    <sodipodi:guide
       position="164.42773,164.31445"
       orientation="0,-1"
       id="guide4"
       inkscape:locked="false" />
    <sodipodi:guide
       position="164.42773,164.31445"
       orientation="1,0"
       id="guide5"
       inkscape:locked="false" />
    <sodipodi:guide
       position="960.79883,164.31445"
       orientation="1,0"
       id="guide6"
       inkscape:locked="false" />
    <sodipodi:guide
       position="164.42773,44.35547"
       orientation="0,-1"
       id="guide7"
       inkscape:locked="false" />
    <sodipodi:guide
       position="281.36328,83.16602"
       orientation="1,0"
       id="guide9"
       inkscape:locked="false" />
    <sodipodi:guide
       position="845.87891,83.16602"
       orientation="1,0"
       id="guide10"
       inkscape:locked="false" />
  </sodipodi:namedview>
  <path
     style="fill:#000000;stroke:none;stroke-width:1"
     d="m 230.95898,0 c 2.01611,4.7043031 6.04928,11.425562 12.09766,20.162109 6.04843,8.736584 10.58325,20.832072 13.60742,36.289063 3.02421,15.456954 7.22525,25.873638 12.60156,31.25 5.37638,5.376363 10.41679,9.073741 15.1211,11.089844 h -6.04883 c -2.01611,1.344084 -2.01611,2.687174 0,4.031254 h 3.02539 l 2.01563,8.06445 c -22.63101,11.31548 -28.22657,59.72387 -28.22657,104.83984 -11.42471,2.0161 -19.8248,9.5768 -25.20117,22.68164 -5.37633,13.10484 -11.42409,40.82534 -18.14453,83.16407 -0.67202,23.52152 4.3684,52.75495 15.12109,87.70117 -0.7657,3.06271 -5.72195,25.19062 6.04688,42.84375 3.36023,5.04031 6.04835,9.57712 8.06445,13.60937 0.67206,2.68816 3.21479,4.37816 5.14538,3.79711 l 10.16404,-3.05906 c 1.32665,-0.39928 3.01472,-1.99961 1.82925,-3.76344 -7.23413,-10.7635 -12.88696,-20.69442 -15.12109,-33.26562 0,-2.95199 3.6915,-4.47085 5.24601,-1.97424 3.2937,5.2898 4.49997,11.38674 7.85751,15.58361 1.34408,1.68009 2.68912,2.18374 4.0332,1.51172 0.67206,-2.01614 0.33631,-4.36844 -1.00781,-7.05664 -2.0161,-3.36019 -3.52904,-8.2328 -4.53711,-14.61719 -1.00807,-6.38443 -5.54485,-13.27354 -13.60938,-20.66601 -2.0161,-16.12905 -2.85554,-31.58421 -2.51953,-46.36914 0.33601,-14.78493 -1.17494,-26.88241 -4.53515,-36.29102 14.11288,-36.29034 21.50372,-56.45212 22.17578,-60.48437 h 8.06445 l 12.09766,27.21875 2.01562,23.18554 c -0.67203,12.09677 -4.70323,28.22543 -12.0957,48.38672 -2.68819,11.42475 -1.34511,27.55341 4.03125,48.38672 8.73655,45.69895 12.26606,82.49304 10.58594,110.38281 -1.6801,27.88977 -0.50494,68.04549 3.52734,120.46485 0.67202,7.39246 1.34356,13.77597 2.01562,19.15234 0.67202,5.37633 4.8e-4,13.44067 -2.01562,24.19336 -5.37637,12.09677 -4.03133,19.48953 4.0332,22.17773 h -45.36328 c -20.16125,-7.3925 -44.35621,-19.15419 -72.58203,-35.2832 51.07527,-34.27421 80.31065,-93.07682 87.70312,-176.41016 L 127.12891,427.41992 C 110.99986,415.32315 105.95942,387.09702 112.00781,342.74219 73.701371,334.67766 42.115597,353.8302 17.25,400.20117 -7.6155967,446.5721 -5.5990496,483.53409 23.298828,511.08789 56.228913,481.51799 82.774247,469.75826 102.93555,475.80664 L 173.5,522.17773 C 174.17202,571.2369 123.76756,619.62284 22.289062,667.33789 161.40198,762.768 286.06621,818.88448 396.28125,835.68555 H 164.42773 v 43.34765 h 94.75782 v 76.61133 H 164.42773 V 1000 h 797.37891 v -44.35547 h -93.75 V 879.0332 h 92.74219 V 835.68555 H 737.00781 C 855.95944,812.8361 979.95205,756.71961 1108.9844,667.33789 1008.1779,619.62284 957.77344,571.2369 957.77344,522.17773 l 70.56446,-46.37109 c 20.1613,-6.04838 46.7066,5.71135 79.6367,35.28125 28.8979,-27.5538 31.0822,-64.51579 6.5527,-110.88672 -24.5296,-46.37097 -56.2832,-65.52351 -95.2617,-57.45898 6.0484,44.35483 1.0079,72.58096 -15.1211,84.67773 l -131.0488,63.50781 c 7.3925,83.33334 36.62589,142.13596 87.70118,176.41016 -29.5699,16.12901 -54.77021,27.89069 -75.60352,35.2832 h -7.05664 c 7.39236,-3.36026 7.72822,-13.44111 1.00781,-30.24218 -2.68817,-10.08063 -3.35989,-21.16886 -2.01562,-33.26563 2.01611,-47.04299 -1.17564,-76.44433 -9.57618,-88.20508 -8.40053,-11.76076 -12.60156,-25.70692 -12.60156,-41.83593 -1.34408,-12.09681 -3.36066,-55.10652 -6.04883,-129.03125 0,-14.11291 -2.68813,-27.89119 -8.06445,-41.33204 v -23.18554 c 0,-4.70427 -1.00722,-6.38311 -3.02344,-5.03906 0.67203,-22.84945 6.38403,-46.03517 17.13672,-69.55665 h 10.08008 c 0.0614,-46.7546 0.0965,-146.992798 -67.53906,-151.20898 -28.89787,0.672059 -46.5394,3.36015 -52.92383,8.064453 -6.38429,4.704307 -9.24031,7.728187 -8.56836,9.072267 -0.67195,-0.67206 -2.01699,-0.67206 -4.0332,0 -2.01621,0.67202 -3.02344,2.35086 -3.02344,5.03906 -10.08067,3.36019 -15.12109,13.10533 -15.12109,29.23438 6.72026,-2.68816 10.75143,-3.69546 12.0957,-3.02344 6.04838,0 12.43385,8.73585 19.1543,26.20898 -12.76883,8.06453 -19.1543,16.46466 -19.1543,25.20117 -3.36019,0 -8.40067,2.01659 -15.12109,6.04883 H 678.53906 C 675.17884,170.69889 667.78604,145.49663 656.36133,119.95898 652.32912,105.84607 649.30527,95.767135 647.28906,89.71875 641.33064,71.843242 635.96905,67.618355 629.14453,62.5 623.7682,58.467756 619.0635,54.098834 615.03125,49.394531 c -1.34427,-0.672059 -3.04442,-1.01249 -3.99023,-0.09961 l -8.58594,8.287109 c -1.30642,1.260927 -0.8638,2.901829 0.48047,4.917969 10.74313,8.454085 19.91109,16.980867 26.20898,29.234375 1.34427,2.6882 1.34427,4.03125 0,4.03125 0,0.672022 -1.00723,0.672022 -3.02344,0 -1.34389,-2.016141 -3.0248,-4.872126 -5.04101,-8.568359 -2.01603,-3.696233 -4.03262,-6.216429 -6.04883,-7.560547 -2.01621,-1.344081 -3.3593,-1.008329 -4.03125,1.007812 -1.3439,1.344081 -0.50461,3.360665 2.51953,6.048828 3.02421,2.688199 5.88016,7.560725 8.56836,14.617192 2.68813,7.05646 8.73784,13.60787 18.14649,19.65625 l 3.02343,50.40429 c -4.7043,-10.75269 -13.77786,-24.86476 -27.21875,-42.33789 -6.72045,-13.44085 -11.5911,-23.0181 -14.61523,-28.73047 -8.44448,-15.949975 -17.46155,-20.575481 -22.68164,-23.185543 -6.04839,-3.024175 -11.4246,-6.21595 -16.12891,-9.576172 -1.34427,-0.672059 -3.58114,-0.739298 -4.67773,1.111328 l -5.43164,9.169922 c -0.73725,1.2442 -0.30893,2.48596 1.03515,3.830078 11.71216,7.22523 22.3951,14.570092 31.25196,25.203127 1.3439,2.01611 1.67976,3.35919 1.00781,4.03125 h -3.02539 c -2.01614,-2.01614 -4.36848,-4.53638 -7.05664,-7.56055 -2.68813,-3.02421 -5.20836,-5.040757 -7.56055,-6.048827 -2.35219,-1.008033 -3.86321,-0.502431 -4.53516,1.513672 -0.67195,1.344085 0.67114,3.190815 4.03125,5.542965 3.36018,2.35215 7.05756,6.72104 11.08985,13.10547 4.03224,6.38439 11.42309,11.59276 22.17578,15.625 10.08063,37.63443 21.84243,68.54865 35.2832,92.74219 29.5699,2.6882 59.47488,2.6882 89.7168,0 12.09681,34.94626 18.14648,63.8439 18.14648,86.69336 0,9.40861 -0.33586,20.49686 -1.00781,33.26562 -0.67206,12.76885 -4.3694,34.9472 -11.08984,66.53321 l -18.14453,96.77344 c -5.37617,10.08063 -7.56066,18.31283 -6.55274,24.69726 1.00792,6.3844 -0.33517,21.16996 -4.03125,44.35547 -3.69627,23.18543 -9.57809,43.8509 -17.64258,61.99609 -5.93642,25.72439 -53.80144,43.19359 -71.57226,44.85938 -10.75269,1.00811 -16.12891,6.88793 -16.12891,17.64062 h -83.66992 v -406.25 c 5.01,-1.25244 11.92066,-16.3059 6.04883,-22.17773 5.37632,-3.36018 8.73596,-6.71985 10.08008,-10.08008 l -16.12891,-3.02539 v -48.38672 c 10.75269,-12.76883 18.48124,-27.21669 23.18555,-43.3457 4.03228,2.68816 7.05809,3.5276 9.07422,2.51953 2.01612,-1.00807 1.34264,-4.19984 -2.01758,-9.57617 -8.73658,-11.42475 -21.5056,-17.13672 -38.30664,-17.13672 -16.80107,0 -29.23232,5.71197 -37.29688,17.13672 -3.36019,5.37633 -4.03369,8.5681 -2.01758,9.57617 2.01614,1.00807 5.04002,0.16863 9.07227,-2.51953 4.70434,16.12901 12.43286,30.57687 23.18555,43.3457 v 52.41992 c -7.39251,0 -15.45681,2.35234 -24.19336,7.05664 -19.48923,4.70431 -37.97023,10.41628 -55.44336,17.13672 -9.4086,-16.12905 -20.16105,-30.91462 -32.25782,-44.35547 -5.37633,-19.48923 -17.80955,-30.57742 -37.29882,-33.26562 h -18.14454 c 4.03227,-4.70431 6.72034,-9.40898 8.06446,-14.11328 4.03224,0 8.23327,0.33574 12.60156,1.00781 7.77089,1.19556 11.00795,-7.59094 10.58398,-11.08789 3.36019,0 4.03174,-2.01655 2.01563,-6.04883 3.36019,-2.01611 4.20157,-3.52708 2.52148,-4.53515 -1.68009,-1.00807 -1.5122,-2.18522 0.50391,-3.5293 3.36022,0.67202 4.70327,-0.67107 4.03125,-4.03125 -4.70431,-6.72045 -8.3997,-17.47288 -11.08789,-32.25781 -2.68817,-12.76883 -8.40017,-21.84239 -17.13672,-27.21875 l 2.01563,-7.05664 h 3.02343 c 2.68817,-1.34408 2.68817,-2.68717 0,-4.031255 h -7.05664 c 4.70434,-2.016103 9.74477,-5.713481 15.1211,-11.089844 5.37636,-5.376362 9.74528,-15.793046 13.10547,-31.25 3.36022,-15.456991 8.06489,-27.552479 14.11328,-36.289063 C 390.23397,11.425564 394.26514,4.7043031 396.28125,0 391.57694,2.0161405 385.02553,7.7281119 376.625,17.136719 c -8.08514,9.05533 -15.39304,26.515272 -21.92188,52.378906 0.83705,-3.936108 1.25586,-8.291274 1.25586,-13.064453 0,-11.424747 -3.69542,-21.337745 -11.08789,-29.738281 -7.39246,-8.400536 -17.80915,-12.59961 -31.25,-12.59961 -14.11291,0 -24.86534,4.199074 -32.25781,12.59961 -7.39247,8.400536 -11.08984,18.313534 -11.08984,29.738281 0,2.514771 0.17491,4.912892 0.52344,7.195312 C 264.16701,40.992386 257.27284,25.489489 250.11328,17.136719 242.04879,7.7281119 235.66329,2.0161405 230.95898,0 Z m 82.66211,23.185547 c 10.08063,0 18.14497,3.191777 24.19336,9.576172 6.04839,6.384433 9.07227,14.280847 9.07227,23.689453 0,9.408569 -3.19177,17.30502 -9.57617,23.689453 -6.38439,6.384395 -14.28085,9.576172 -23.68946,9.576172 -9.40861,0 -17.47292,-3.191777 -24.19336,-9.576172 -6.72041,-6.384433 -9.74623,-14.280884 -9.07421,-23.689453 0,-9.408606 2.85794,-17.30502 8.57031,-23.689453 5.71237,-6.384395 13.94457,-9.576172 24.69726,-9.576172 z m 483.8711,76.613281 c 54.82268,9.523362 53.89283,81.263212 54.43554,122.984372 l -59.47656,1.00782 v -68.54883 c 15.45688,-17.47313 17.13779,-35.95413 5.04102,-55.443362 z m -510.08203,3.023442 h 52.41992 v 4.0332 c -6.04843,-2.6882 -13.44119,-2.0332 -22.17774,-2.0332 -12.09677,0 -21.83995,0.0165 -29.23242,4.04882 z m 484.88086,0 c 10.75254,0 16.96819,7.39276 18.64843,22.17773 1.68009,14.78493 -9.57595,24.86582 -33.76953,30.24219 4.03228,2.01614 7.39191,5.54367 10.08008,10.58398 2.68816,5.04031 4.03125,9.91288 4.03125,14.61719 -3.36029,1.34408 -6.55203,0.67254 -9.57617,-2.01563 -3.02421,-2.6882 -6.55174,-9.07366 -10.58399,-19.15429 -4.15035,-13.18 -10.65729,-28.22461 -26.21093,-28.22461 0,-3.36018 7.6287,-5.80451 14.11328,-3.02539 -4.7043,-4.70431 -7.05664,-9.40703 -7.05664,-14.11133 2.68816,0.67202 4.36906,-0.33723 5.04101,-3.02539 1.34405,0.67206 4.70368,-0.50314 10.08008,-3.52734 5.37633,-3.02421 13.77838,-4.53711 25.20313,-4.53711 z m -20.04227,9.07226 c -5.45692,0 -8.1843,3.27527 -8.1843,9.82373 1.09126,4.36566 3.81865,6.54915 8.1843,6.54915 5.4569,0 8.18643,-2.72934 8.18643,-8.18644 0,-5.45701 -2.72953,-8.18644 -8.18643,-8.18644 z m -434.59641,1.00781 c 18.81721,0 29.90735,6.38547 33.26758,19.1543 -14.78497,-1.34408 -23.52278,0.33672 -26.21094,5.04102 -2.68817,4.70431 -5.37626,7.05468 -8.06445,7.05468 0,-5.37636 -3.02387,-8.06445 -9.07226,-8.06445 -8.73655,0 -13.10547,6.38547 -13.10547,19.1543 0,5.37633 3.02388,11.75988 9.07226,19.15234 v 76.61328 h -41.33008 v -25.20117 c 0,-45.02685 3.74309,-78.88523 16.12891,-98.79102 6.54664,-10.52139 21.1693,-14.11328 39.31445,-14.11328 z m 26.36719,25.32813 c 2.91919,0.084 6.22759,0.37878 9.92383,0.88281 l 1.00781,5.03906 c -4.03225,-2.6882 -10.08001,-2.35045 -18.14453,1.00977 l -10.08203,1.00781 v 2.01563 h 10.08203 c 8.06452,-2.68816 14.44807,-2.68816 19.15234,0 l 1.00782,2.01562 7.05664,17.13672 c 1.34408,2.01611 1.00831,2.6896 -1.00782,2.01758 -2.01612,-0.67206 -3.52903,-0.33627 -4.5371,1.00781 -1.00807,1.34408 -0.83825,2.68717 0.50586,4.03125 v 4.0332 l -1.00977,-2.01562 c -8.73659,2.01611 -10.91907,3.69498 -6.55078,5.03906 4.36829,1.34408 6.21503,3.52853 5.54297,6.55274 -0.67206,3.02421 -3.52805,4.0315 -8.56836,3.02343 -5.04031,-1.00807 -9.57713,-1.17593 -13.60938,-0.5039 -4.03228,9.4086 -8.06346,16.46561 -12.0957,21.16992 H 310.5957 v -38.30664 c -5.37636,-7.39247 -8.06445,-13.44023 -8.06445,-18.14453 0,-7.39247 1.345,-11.08985 4.0332,-11.08985 3.36022,0 5.03907,3.69738 5.03907,11.08985 8.73655,-3.36023 14.28261,-7.39336 16.63476,-12.09766 1.76411,-3.52822 7.02368,-5.16608 15.78125,-4.91406 z m -9.23047,13.98633 h -9.07226 v 3.02539 h 9.07226 c 9.73186,5.49491 16.05361,5.07602 20.16211,4.03125 h 3.02344 v -4.03125 h -3.02344 c -0.67202,0 -1.51146,-0.8394 -2.51953,-2.51953 -3.32516,-5.54191 -10.69144,-3.11255 -17.64258,-0.50586 z m 171.3711,5.04101 c 9.40857,0 17.13716,1.6808 23.18554,5.04102 -5.37632,20.83332 -13.10491,34.27388 -23.18554,40.32226 -9.40861,-6.04838 -16.46363,-19.48894 -21.16797,-40.32226 6.72045,-3.36022 13.77547,-5.04102 21.16797,-5.04102 z m 241.93554,14.11328 c 0.67195,2.68816 2.35285,6.71938 5.04102,12.09571 l -3.02344,5.04101 h -15.12109 c 0,-5.37632 4.36696,-11.08833 13.10351,-17.13672 z m -437.5,50.40235 h 43.34766 c -14.78497,12.09677 -16.80152,28.56317 -6.04883,49.39648 0,4.70434 -11.26357,7.82951 -11.08796,17.13663 h -48.38672 l -9.07388,-29.23431 h 31.25 z m 431.45313,16.1289 h 99.79687 c -2.10367,6.93955 -5.21197,13.50877 -8.06445,20.16211 H 748.0957 c -0.41211,-7.48845 -2.78777,-13.64163 -6.04687,-20.16211 z m -388.10547,14.11328 c 18.14511,25.53761 37.97115,48.7233 59.47656,69.55665 21.50537,-7.3925 44.68909,-18.4807 69.55469,-33.26563 6.04838,3.36022 11.4246,5.71255 16.12891,7.05664 V 702.62109 H 435.5957 v -3.02343 c 0,-4.03225 -9.57528,-9.41042 -28.72851,-16.13086 -19.15322,-6.72045 -31.92221,-13.27186 -38.30664,-19.65625 -6.3844,-6.38443 -10.24967,-15.28818 -11.59375,-26.71289 -2.0161,-12.09677 -4.20055,-33.6036 -6.55274,-64.51758 -11.07509,-74.06562 24.91216,-162.64591 6.55274,-219.25391 -4.03224,-12.43278 -7.72766,-31.41743 -11.08789,-56.95508 0,-4.70427 2.01657,-8.39969 6.04882,-11.08789 4.03228,-2.68816 7.05616,-7.05708 9.07227,-13.10547 -7.39247,-7.39247 -9.74484,-14.1137 -7.05664,-20.16211 z m 398.18555,13.10547 h 78.6289 c -1.3439,6.04838 -2.68893,19.15317 -4.0332,39.31446 l -71.57227,36.29101 c 0.67195,-10.08063 0.67195,-22.68175 0,-37.80273 -0.67195,-15.12095 -1.67916,-27.72208 -3.02343,-37.80274 z m -459.67774,31.25 H 329.75 c 3.36022,20.83335 5.71255,34.27388 7.05664,40.32227 16.34775,48.04989 8.1931,98.60332 -0.50391,147.17773 -5.71237,31.586 -4.53718,81.98856 3.52735,151.20899 h -38.30664 c -7.39247,-58.46774 -8.73556,-105.17487 -4.03125,-140.1211 -3.82654,-47.83206 -8.81103,-80.69329 -15.1211,-103.83007 -4.03225,-14.78497 -3.02495,-29.57054 3.02344,-44.35547 6.04839,-14.78497 8.40072,-31.58514 7.05664,-50.40235 z m 535.28321,19.15235 1.00781,22.17773 -76.61328,28.22656 2.01562,-13.10546 z m -0.002,33.26758 c 2.01584,0.67203 3.86468,4.87111 5.54492,12.5996 1.68025,7.72848 2.51954,16.29843 2.51954,25.70704 l 2.01757,107.86132 H 817.65234 C 788.08247,454.63639 768.2584,413.97901 758.17773,372.98438 Z M 86.806641,370.9668 c -6.048385,34.27421 4.704058,59.14066 32.257809,74.59765 l 113.91016,59.47657 c -8.06452,84.67742 -46.70535,138.77535 -115.92578,162.29687 135.08067,79.30105 284.60941,118.95313 448.58789,118.95313 163.97847,0 313.50727,-39.65208 448.58788,-118.95313 C 945.0042,643.81637 906.36336,589.71844 898.29883,505.04102 L 1012.209,445.56445 c 27.5537,-15.45699 38.3062,-40.32344 32.2578,-74.59765 15.457,-0.67202 30.7462,13.2741 45.8672,41.83593 15.1209,28.56183 18.3127,48.89152 9.5762,60.98829 -25.5377,-24.19357 -52.0831,-28.89826 -79.6368,-14.11329 l -93.74996,51.41016 c 5.37632,61.1559 48.38819,113.23925 129.03316,156.25 -150.53745,103.49463 -313.84464,155.24219 -489.91988,155.24219 -176.07529,0 -339.3823,-51.74756 -489.919923,-155.24219 C 156.36197,624.32714 199.37368,572.24379 204.75,511.08789 L 111,459.67773 C 83.446239,444.89276 56.900937,449.59745 31.363281,473.79102 22.626734,461.69425 25.81851,441.36456 40.939453,412.80273 56.060433,384.2409 71.34965,370.29478 86.806641,370.9668 Z m 665.322269,8.0664 c 8.06452,34.94623 26.88127,73.58705 56.45117,115.92578 h -79.63672 z m 21.16992,130.03907 H 798.5 l 6.04883,8.06445 c 0.67206,12.76883 4.36744,22.51392 11.08789,29.23437 21.50515,47.71505 31.58609,78.96507 30.24219,93.75 -0.67205,16.80107 -9.40987,27.21775 -26.21094,31.25 -20.83332,10.08067 -34.27389,15.1211 -40.32227,15.1211 -6.04839,0 -9.07226,5.37621 -9.07226,16.1289 h -62.5 c 2.68816,-2.6882 3.19196,-8.90385 1.51172,-18.64843 -1.68009,-9.74465 0.84013,-21.0027 7.56054,-33.77149 26.20972,-45.02689 38.1393,-74.93185 35.78711,-89.71679 -2.35215,-14.78495 4.53697,-31.92287 20.66602,-51.41211 z m -456.6543,137.09765 h 11.08985 c 3.36022,10.75269 5.7106,22.51242 7.05468,35.28125 -21.14686,-3.52444 -24.14268,-8.28956 -18.14453,-35.28125 z m -45.36328,67.53906 h 584.67773 c -61.82107,21.14928 -182.05867,48.38868 -290.32226,48.38868 -150.42462,0 -259.18843,-35.32666 -294.35547,-48.38868 z m -88.70898,140.1211 h 761.08789 v 9.07226 h -97.78125 v 107.86328 h 98.79101 v 11.08985 H 182.57227 v -11.08985 h 98.79101 V 862.90234 h -98.79101 z m 111.89453,9.07226 V 970.76562 H 832.77344 V 862.90234 Z m 22.17773,16.13086 h 496.97656 v 76.61133 H 316.64453 Z"
     id="path1"
     sodipodi:nodetypes="csssccccccsccscssscssccscscccccccscscccccccsccccccccccccccccccccccsccccccccscccsccccscscccccccccscsscccccscssccccscccccccsscsscccssccsccsccccccccscscscccccccccsccsccccccccssscscssssscccsssssscssccccccccsccsscscscccccssscsssscscsscccsssscccccccccsscccsssccccsscsscccccccsscscccsccccccccccccccccccccccccssscsscsccccccsccccscccsscccccccscccccccccsccccsccccsccccscccccccccccsccscscccccccscccccccccccccccccccccccc" />
  <path
     style="fill:none;stroke:#813d9c;stroke-width:40;stroke-linecap:butt;stroke-linejoin:miter;stroke-dasharray:none;stroke-opacity:1"
     d="m 164.42773,855.68555 h 796.3711"
     id="path6" />
  <path
     style="fill:none;stroke:#813d9c;stroke-width:40;stroke-linecap:butt;stroke-linejoin:miter;stroke-dasharray:none;stroke-opacity:1"
     d="m 164.42773,969.68427 h 796.3711"
     id="path7" />
  <path
     style="fill:none;stroke:#813d9c;stroke-width:25;stroke-linecap:butt;stroke-linejoin:miter;stroke-opacity:1;stroke-dasharray:none"
     d="M 281.36328,855.68555 V 970.76562"
     id="path9" />
  <path
     style="fill:none;stroke:#9141ac;stroke-width:25;stroke-linecap:butt;stroke-linejoin:miter;stroke-opacity:1;stroke-dasharray:none"
     d="M 845.87891,855.68555 V 970.76562"
     id="path10" />
</svg>
