<?xml version="1.0" encoding="UTF-8" standalone="no"?>
<svg
   width="1250"
   height="900"
   version="1.1"
   id="svg1"
   sodipodi:docname="14067.svg"
   inkscape:version="1.4.2 (f4327f4, 2025-05-13)"
   xmlns:inkscape="http://www.inkscape.org/namespaces/inkscape"
   xmlns:sodipodi="http://sodipodi.sourceforge.net/DTD/sodipodi-0.dtd"
   xmlns="http://www.w3.org/2000/svg"
   xmlns:svg="http://www.w3.org/2000/svg">
  <defs
     id="defs1" />
  <sodipodi:namedview
     id="namedview1"
     pagecolor="#ffffff"
     bordercolor="#666666"
     borderopacity="1.0"
     inkscape:showpageshadow="2"
     inkscape:pageopacity="0.0"
     inkscape:pagecheckerboard="0"
     inkscape:deskcolor="#d1d1d1"
     inkscape:zoom="0.83888889"
     inkscape:cx="578.74172"
     inkscape:cy="649.07285"
     inkscape:window-width="1680"
     inkscape:window-height="998"
     inkscape:window-x="-8"
     inkscape:window-y="-8"
     inkscape:window-maximized="1"
     inkscape:current-layer="svg1"
     showguides="true">
    <sodipodi:guide
       position="402.45508,235.0957"
       orientation="0,-1"
       id="guide6"
       inkscape:locked="false" />
    <sodipodi:guide
       position="133.63867,652.83594"
       orientation="1,0"
       id="guide7"
       inkscape:locked="false" />
    <sodipodi:guide
       position="932.18543,462.51656"
       orientation="1,0"
       id="guide8"
       inkscape:locked="false" />
  </sodipodi:namedview>
  <path
     style="fill:#000000;stroke:none;stroke-width:50.0618"
     d="M 27.505859,0.00976563 C 21.30065,-0.22438616 22.648807,4.1058384 31.546875,13.003906 100.23357,58.586889 140.19589,98.86227 151.43555,133.83008 125.83411,96.988989 80.56321,60.460752 15.623047,24.244141 -1.8608207,20.497579 -4.6706985,24.555831 7.1933594,36.419922 69.0114,78.880783 109.28679,118.84506 128.01953,156.31055 c -1.87328,1.24884 -10.77055,-1.71757 -26.69336,-8.89844 -15.922834,-7.18091 -32.003222,-5.46287 -48.238279,5.15234 l 6.55664,9.36524 c 16.235058,24.35258 30.440906,34.34365 42.617189,29.97265 12.17627,-4.37096 19.82514,-4.0579 22.94726,0.9375 -4.37096,20.606 -1.56108,38.71357 8.42969,54.32422 0,67.43785 10.61524,129.72452 31.84571,186.85938 21.23042,57.13485 56.19915,108.49315 104.90429,154.07617 40.58758,38.71433 84.61011,64.31622 132.06641,76.80469 l 150.89027,11.23986 152.57848,-11.23985 c 43.70976,-11.23966 84.61124,-37.46572 122.70117,-78.67774 4.37087,-4.9954 8.11609,-9.36675 11.23828,-13.11328 l 20.60547,14.98633 c 0.62441,23.72811 9.36707,39.80658 26.22656,48.23633 16.85947,8.42958 34.65597,8.89934 53.38867,1.40625 0.62441,-20.60603 -5.61955,-37.93486 -18.73242,-51.98438 -13.11296,-14.04956 -30.28523,-17.32708 -51.51562,-9.83398 l -19.66992,-14.05078 c 13.11297,-14.36178 24.66551,-28.09804 34.65625,-41.21094 l 18.73242,14.98633 c 1.87322,21.23042 10.92705,36.52812 27.16211,45.89453 16.23509,9.36641 33.72045,10.30364 52.45312,2.81055 0.62444,-20.606 -5.62147,-37.93483 -18.73437,-51.98438 -13.11294,-14.04959 -30.28327,-17.32708 -51.51367,-9.83398 l -18.73243,-14.04883 c 9.36634,-11.86406 17.48291,-24.04081 24.35157,-36.5293 16.23506,-29.34796 18.1076,-47.61209 5.61914,-54.79297 -12.48853,-7.1809 -26.53785,2.65368 -42.14844,29.50391 -6.86872,11.23965 -15.60943,22.4791 -26.22461,33.71875 l -42.14844,-30.9082 c -2.49761,-3.12216 -5.30749,-2.18682 -8.42969,2.80859 -3.74662,4.37097 -4.05968,7.80501 -0.9375,10.30273 l 41.2129,29.97266 c -10.61519,11.86405 -23.41616,24.0408 -38.40235,36.5293 L 767.74219,500.9922 c -2.49762,-3.12209 -5.3075,-2.49792 -8.42969,1.87304 -3.12219,4.99537 -3.12219,8.42943 0,10.30274 l 34.65625,26.22656 c -31.84567,27.47467 -65.25294,47.14369 -100.2207,59.00781 -6.24426,-17.48393 -22.79039,-54.63634 -49.64063,-111.45898 1.87326,-23.10371 -2.96769,-35.12389 -14.51953,-36.06055 -11.55187,-0.93658 -20.76022,-3.90301 -27.62891,-8.89843 l -3.74804,-52.45118 29.03711,18.73242 c 4.37096,1e-5 6.55468,-1.56143 6.55468,-4.68359 -2.49775,-15.61062 -3.74609,-34.3424 -3.74609,-56.19726 l 29.03516,18.73242 c 34.96776,35.5922 60.88268,63.37971 77.74218,83.36133 9.36634,-0.62444 19.51202,-1.71824 30.43946,-3.2793 10.92743,-1.56107 22.01223,-5.15165 33.25195,-10.77149 l -44.02148,-49.64062 55.26171,30.9082 -4.68359,-6.55664 c -14.36177,-9.99077 -22.16713,-15.92359 -23.41601,-17.79687 10.61522,1.87328 16.23494,0.62487 16.85937,-3.7461 -3.12212,-4.371 -32.47109,-25.91262 -88.04492,-64.62695 -18.10827,-29.97236 -42.14871,-64.4715 -72.12109,-103.49805 -29.9724,-39.02655 -52.13824,-60.72669 -66.5,-65.09765 -1.24885,-0.62441 -3.74762,-7.17948 -7.49415,-19.66797 -8.74193,-21.23046 -26.53839,-31.8457 -53.38867,-31.8457 -27.47468,0 -44.33388,10.92638 -50.57812,32.78124 h 9.36718 c 3.1221,0 5.93197,7.8054 8.42969,23.41602 l -2.81054,23.41602 c 0,23.1037 8.42963,44.33422 25.28906,63.6914 16.85946,53.07608 25.28906,94.59987 25.28906,124.57227 0,3.12212 2.18567,5.93201 6.55664,8.42969 l -16.85937,59.00781 c -11.23966,7.49308 -21.54183,11.55333 -30.90821,12.17773 -9.36637,0.62444 -12.80042,11.86389 -10.30273,33.71875 C 451.47226,543.1418 434.3,581.23152 424.93359,599.33985 386.2193,587.4758 347.81649,567.49369 309.72656,539.39454 262.89474,505.67565 228.86324,463.52765 207.63281,412.94923 c -21.23046,-50.57839 -32.15685,-97.72386 -32.78125,-141.4336 4.37097,4.37097 13.11363,7.96155 26.22656,10.77149 13.1129,2.80991 28.09758,7.96199 44.95704,15.45508 8.11753,1.87328 15.92293,-0.3124 23.41601,-6.55664 6.24425,-4.9954 8.42992,-11.08282 6.55664,-18.26367 -1.87328,-7.18091 -3.43475,-12.48949 -4.68359,-15.92383 -1.24885,-3.43435 -8.42812,-11.86395 -21.54102,-25.28907 C 236.67027,218.28387 230.42442,209.3866 231.04883,205.01563 226.67786,191.9027 214.81418,175.97884 195.45703,157.2461 174.2266,92.930372 121.1503,41.104393 36.228516,1.765625 32.48197,0.6728833 29.574263,0.0878162 27.505859,0.00976563 Z M 505.48438,117.9082 c 19.35712,0 32.4692,3.74711 39.33789,11.24024 0,9.99078 -9.36492,16.54585 -28.09766,19.66797 0,1.24884 4.68245,2.02958 14.04883,2.34179 9.36636,0.31222 16.54756,-2.34109 21.54297,-7.96093 l 6.55664,18.73242 c 9.99078,3.12212 27.31765,19.98129 51.98242,50.57812 24.66477,30.5968 59.78999,76.49195 105.37305,137.68555 -79.30194,-38.08989 -131.44297,-65.25127 -156.41993,-81.48633 -33.71896,-26.85024 -50.57812,-47.14547 -50.57812,-60.88281 0,-10.61525 9.05377,-26.22409 27.16211,-46.83008 l -2.8086,-0.9375 c -15.61062,6.24425 -28.41156,19.3563 -38.40234,39.33789 -2.49772,-9.36637 -2.18658,-22.16536 0.93555,-38.40039 0,-6.86868 -3.74519,-18.11008 -11.23828,-33.7207 3.74656,-3.12213 7.18061,-5.30585 10.30273,-6.55469 v 5.61914 c 0,3.12212 2.18567,5.6189 6.55664,7.49219 3.74653,0 6.24328,-2.49678 7.49219,-7.49219 0,-1.87328 -1.24834,-4.68312 -3.74609,-8.42969 z M 79.519531,153.25781 c 6.341806,-0.26831 14.391799,1.84203 24.148439,6.33008 15.61062,7.18091 24.97555,12.33296 28.09765,15.45508 l -3.74609,7.49219 c -4.37097,-3.12213 -12.01983,-3.43324 -22.94726,-0.93555 -10.927448,2.49769 -22.636508,-5.93192 -35.125004,-25.28906 2.575744,-1.87328 5.767182,-2.89175 9.572265,-3.05274 z m 86.550779,10.75 c 0.78053,0.0195 1.67867,0.2641 2.69336,0.73242 4.05878,1.87328 8.58471,2.8086 13.58008,2.8086 20.60603,13.1129 33.09583,29.66099 37.4668,49.64258 l 34.65429,35.59179 c -6.24424,3.12212 -6.24424,8.74184 0,16.85938 3.12212,2.49768 5.15319,2.81075 6.08985,0.9375 0.93662,-1.87328 0.78009,-3.27819 -0.46875,-4.21485 -1.24884,-0.93662 -2.18611,-2.03045 -2.81055,-3.27929 -0.62441,-1.24888 0.31286,-2.49726 2.81055,-3.7461 4.9954,6.24425 6.86802,12.0205 5.61914,17.32813 -1.24884,5.30762 -3.43452,7.64982 -6.55664,7.02539 -3.12212,0 -7.02385,-1.56147 -11.70703,-4.68359 -4.68319,-3.12213 -8.2738,-5.30778 -10.77149,-6.55665 l -0.9375,2.81055 c 1.87326,2.49772 4.05893,4.3703 6.55664,5.61914 2.49769,1.24885 1.56042,1.56191 -2.81054,0.9375 -11.86406,-5.61984 -22.94697,-9.52352 -33.25,-11.70898 -10.303,-2.1855 -17.32766,-5.61955 -21.07422,-10.30274 -3.74654,-4.68318 -12.17613,-9.99179 -25.28907,-15.92382 -13.1129,-5.93203 -19.98102,-15.76657 -20.60546,-29.50391 0,-13.73733 3.12098,-24.66372 9.36523,-32.78125 8.74193,-2.49769 13.26981,-6.40134 13.58203,-11.70899 0.23416,-3.9807 1.52169,-5.94135 3.86328,-5.88281 z m 34.50586,39.08203 c -0.44636,-0.005 -0.90473,0.0137 -1.37305,0.0527 -7.49306,0.62443 -15.92268,4.68265 -25.28906,12.17578 h 4.6836 c 11.86405,5.61978 19.35831,7.49239 22.48046,5.61914 3.12209,-1.87328 7.18038,-2.80859 12.17579,-2.80859 -1.7562,-9.95177 -5.98225,-14.96588 -12.67774,-15.03907 z m -52.88672,51.56641 11.23828,7.49414 c 1.87325,52.45167 13.26926,105.21491 34.1875,158.29102 20.91822,53.07607 55.10621,98.6601 102.5625,136.75 47.45627,38.08992 103.18592,64.00289 167.18946,77.74023 64.0035,13.73734 126.75785,13.73734 188.26367,0 61.50586,-13.73734 113.17725,-40.43108 155.01367,-80.08203 41.83649,-39.65095 69.62399,-71.0291 83.36133,-94.13281 13.7373,-23.10371 22.47801,-33.40589 26.22461,-30.90821 3.74653,2.49768 -1.09246,15.60974 -14.51758,39.33789 -13.42512,23.72812 -41.52373,57.13537 -84.29687,100.22071 -42.77308,43.08529 -96.47362,71.65356 -161.10157,85.70312 -64.62794,14.04952 -130.66173,14.04952 -198.09961,0 C 390.27699,641.02075 332.67473,613.07669 284.90625,571.24023 237.13776,529.40378 202.4821,481.01185 180.93945,426.0625 159.39681,371.11311 148.31389,313.9766 147.68945,254.65625 Z m 378.40039,15.92383 h 1.87305 c 6.86869,29.97236 23.72789,66.18953 50.57813,108.65039 l -10.30274,6.55664 c -6.86865,-7.49309 -14.67405,-13.11477 -23.41601,-16.86133 0,-21.85487 -6.24393,-54.636 -18.73243,-98.3457 z m 19.66993,21.54297 c 26.22583,18.10834 49.01782,34.96754 68.375,50.57812 -0.62444,18.10834 -0.3133,32.47073 0.93554,43.08594 -9.99077,-7.49309 -18.10731,-11.86441 -24.35156,-13.11328 -1.24885,0 -8.5866,-10.92837 -22.01172,-32.78321 -13.42512,-21.85487 -21.07395,-37.77677 -22.94726,-47.76757 z m 41.21289,8.42968 128.31836,62.75391 c 0.6244,0 20.91766,21.54361 60.88086,64.62891 l -35.5918,5.61914 c -12.48846,-13.73734 -35.28048,-38.715 -68.375,-74.93164 -19.35718,-14.98618 -47.76697,-34.03106 -85.23242,-57.13477 z m -34.65625,88.04297 h 1.87304 l 13.11328,13.11328 11.23829,-12.17578 2.81054,51.51368 c -10.61518,-10e-6 -17.48328,0.93726 -20.60547,2.81054 -6.24425,-1.87328 -14.04965,-2.81054 -23.41601,-2.81054 z m -26.22657,78.67774 h 62.75586 c 14.36178,0 29.50298,17.4834 45.42578,52.45117 15.92284,34.96777 27.94302,63.69257 36.06055,86.17187 -3.74657,1.87328 -23.25907,6.86881 -58.53906,14.98633 -35.27999,8.11756 -82.89313,4.9946 -142.83789,-9.36719 -10.61525,-2.49774 -16.85918,-4.05915 -18.73242,-4.68359 10.61521,-23.10371 22.94848,-52.13965 36.99804,-87.10742 14.04956,-34.96777 27.00508,-52.45117 38.86914,-52.45117 z m 407.9336,63.93164 c 6.59671,0.0548 13.14463,2.62774 19.64258,7.7207 11.5518,9.05415 17.32617,21.69852 17.32617,37.9336 -15.61059,3.12211 -29.34688,0.1577 -41.21094,-8.89649 -11.86405,-9.05415 -15.61117,-19.82596 -11.24023,-32.31445 5.19052,-3.0051 10.35164,-4.48602 15.48242,-4.44336 z m -42.53711,53.02148 c 6.411,0.29866 12.77632,2.8384 19.09375,7.61914 11.55184,8.742 17.32812,21.54292 17.32812,38.40235 -14.98618,2.49772 -28.56789,-0.62327 -40.74414,-9.36524 -12.17627,-8.74193 -16.07992,-19.6703 -11.70898,-32.7832 4.44902,-2.34157 8.87613,-3.62914 13.28125,-3.86328 0.91773,-0.0488 1.83414,-0.0522 2.75,-0.01 z"
     id="path1"
     sodipodi:nodetypes="scccccsccsccscccccccscsccccscscccscccccccccccccscccccccscccccccsccscscccsccscccscsccssscccscccsccsccsccccccscccssccscsssccccssscscsccscsssccssscccscssccssssssssssssscccccccccccsccccccccccccccccssscsccsssscscscscscscc" />
  <rect
     style="fill:none;fill-rule:evenodd;stroke:#613583;stroke-width:20;stroke-dasharray:none"
     id="rect6"
     width="778.54681"
     height="46.497181"
     x="143.63867"
     y="674.9043" />
  <text
     xml:space="preserve"
     style="font-size:64px;line-height:1.25;font-family:Ubuntu;-inkscape-font-specification:Ubuntu;letter-spacing:0px;word-spacing:0px;fill:#e01b24"
     x="531.65564"
     y="717.61591"
     id="text8"><tspan
       sodipodi:role="line"
       id="tspan8"
       x="531.65564"
       y="717.61591">↑</tspan><tspan
       sodipodi:role="line"
       x="531.65564"
       y="800.67041"
       id="tspan9">↑dent here</tspan></text>
</svg>
