<?xml version="1.0" encoding="UTF-8" standalone="no"?>
<svg
   width="1400"
   height="800"
   version="1.1"
   id="svg1"
   sodipodi:docname="1406C.svg"
   inkscape:version="1.4.2 (f4327f4, 2025-05-13)"
   xmlns:inkscape="http://www.inkscape.org/namespaces/inkscape"
   xmlns:sodipodi="http://sodipodi.sourceforge.net/DTD/sodipodi-0.dtd"
   xmlns="http://www.w3.org/2000/svg"
   xmlns:svg="http://www.w3.org/2000/svg">
  <defs
     id="defs1" />
  <sodipodi:namedview
     id="namedview1"
     pagecolor="#ffffff"
     bordercolor="#666666"
     borderopacity="1.0"
     inkscape:showpageshadow="2"
     inkscape:pageopacity="0.0"
     inkscape:pagecheckerboard="0"
     inkscape:deskcolor="#d1d1d1"
     inkscape:zoom="1.0616703"
     inkscape:cx="494.97475"
     inkscape:cy="487.43945"
     inkscape:window-width="1680"
     inkscape:window-height="998"
     inkscape:window-x="-8"
     inkscape:window-y="-8"
     inkscape:window-maximized="1"
     inkscape:current-layer="svg1"
     showguides="true">
    <sodipodi:guide
       position="778.7237,219.00134"
       orientation="0,-1"
       id="guide1"
       inkscape:locked="false" />
    <sodipodi:guide
       position="899.5034,219.00134"
       orientation="1,0"
       id="guide2"
       inkscape:locked="false" />
    <sodipodi:guide
       position="71.433925,0"
       orientation="1,0"
       id="guide3"
       inkscape:locked="false" />
  </sodipodi:namedview>
  <path
     style="fill:#000000;stroke:none;stroke-width:1"
     d="m 1036.3906,0 c -1.9935,0 -4.701,0.35631159 -8.1191,1.0683594 C 939.91894,33.652269 882.5853,81.274218 856.26758,143.93555 c -20.67826,16.91856 -33.83705,31.9583 -39.47656,45.11718 0,3.75972 -7.04962,12.06266 -21.14844,24.90821 -14.0988,12.84557 -21.93153,20.83375 -23.49805,23.96679 -1.56638,3.13311 -3.44734,8.14637 -5.64062,15.03907 -2.19322,6.89275 -0.46966,13.1593 5.16992,18.79882 6.01546,6.01552 12.03135,9.02344 18.04687,9.02344 1.50379,0 3.0078,-0.18848 4.51172,-0.56445 18.17181,-6.26615 33.83719,-10.18348 46.9961,-11.75 13.15882,-1.56655 22.24487,-4.22864 27.25781,-7.98828 -4.38633,43.23628 -21.46246,88.03877 -51.22656,134.4082 -29.76414,46.36937 -62.19091,78.32592 -97.28125,95.87109 -35.09035,17.54515 -70.80681,28.19928 -107.1504,31.95899 V 56.523438 c -3.85135,-6.73992 -7.86672,-10.109375 -12.04687,-10.109376 -3.98108,10e-7 -8.11131,3.056612 -12.39063,9.169922 V 99.759766 C 551.42044,73.442009 516.01679,59.970359 482.17969,59.34375 c -34.46374,0 -69.86735,13.784485 -106.21094,41.35547 V 56.523438 c -4.49324,-6.73992 -8.82377,-10.109375 -12.98828,-10.109376 -3.96619,10e-7 -7.78319,3.056612 -11.45117,9.169922 V 522.72461 C 290.7478,503.29955 243.12582,476.98004 208.66211,443.76953 l 49.81641,-34.77539 c 3.13308,-1.87986 3.44592,-4.70128 0.93945,-8.46094 -1.87983,-2.25581 -3.64654,-3.38281 -5.30078,-3.38281 -1.10284,0 -2.15561,0.50131 -3.15821,1.50391 l -52.63671,36.65625 c 0.0508,0.0508 0.084,0.0876 0.0937,0.10351 v 0.002 l 0.002,0.002 v 0.002 h -0.002 v 0.002 h -0.002 c -0.0976,0 -2.63338,-2.07399 -7.60937,-6.22071 -5.63966,-4.69977 -12.2209,-11.74924 -19.74024,-21.14844 l 60.15625,-42.29492 c 3.13308,-1.87982 3.44592,-4.70123 0.93946,-8.46093 -1.82762,-2.55866 -3.54771,-3.8379 -5.16211,-3.8379 -1.15313,0 -2.25251,0.65353 -3.29688,1.95899 l -62.03515,43.23633 c -9.3992,-11.27906 -17.54478,-22.24407 -24.4375,-32.89649 l 64.85351,-45.11719 c 3.75969,-1.87984 4.07449,-4.69933 0.94141,-8.45898 -1.87986,-2.25579 -3.5342,-3.38281 -4.96289,-3.38281 -0.95244,0 -1.8047,0.49941 -2.55664,1.50195 l -64.85547,45.11719 C 126.26205,349.152 122.18928,342.25978 118.4296,334.74041 107.70752,312.27515 96.98562,301.0412 86.263582,301.0412 c -2.43681,0 -4.873708,0.58179 -7.310547,1.74218 -13.15888,6.26616 -12.846036,24.43623 0.939453,54.51368 3.759684,8.14598 7.832457,16.2935 12.21875,24.43945 l -22.55664,15.03906 c -5.926266,-1.72054 -11.56124,-2.58203 -16.904297,-2.58203 -12.170255,0 -22.828353,4.46404 -31.972657,13.39062 C 7.5190489,420.42922 0.62660909,435.62478 0,453.16992 c 6.7674193,2.25582 13.45913,3.38281 20.076172,3.38281 9.925533,0 19.682341,-2.53772 29.269531,-7.61328 15.978651,-8.45928 25.22205,-22.08829 27.728516,-40.88672 l 21.617187,-15.03711 c 5.639514,10.02581 13.159404,21.30364 22.558594,33.83594 l -22.558594,15.03906 c -5.926294,-1.7205 -11.561239,-2.58007 -16.904297,-2.58007 -12.170254,0 -22.826399,4.46208 -31.970703,13.38867 -13.15885,12.84554 -20.053049,28.04074 -20.679687,45.58594 6.375114,2.20687 12.751839,3.31054 19.126953,3.31054 9.916841,0 19.833159,-2.66994 29.75,-8.00976 16.291949,-8.77259 25.690828,-22.55708 28.197268,-41.35547 l 22.55859,-15.03906 c 6.26612,9.39919 13.78406,19.42375 22.55664,30.07617 l -25.37695,17.85937 c -5.55001,-1.43228 -10.84434,-2.14843 -15.88281,-2.14843 -12.596215,0 -23.592995,4.47608 -32.992191,13.42773 -13.158879,12.53224 -20.053078,27.57006 -20.679688,45.11523 6.51677,2.25582 13.009928,3.38477 19.476563,3.38477 9.69998,0 19.342493,-2.53766 28.929686,-7.61328 15.97865,-8.45924 25.53492,-22.08832 28.66797,-40.88672 l 26.31836,-18.79883 c 40.72985,51.38231 91.79892,85.84545 153.20703,103.39063 l 166.54915,12.83541 178.40007,-12.83535 c 31.33063,0 66.42148,-13.00141 105.27148,-39.00586 38.85006,-26.00446 68.77017,-59.52911 89.76172,-100.57227 20.99153,-41.04316 33.9949,-72.21662 39.00782,-93.52148 26.31777,-27.57095 46.99644,-43.5492 62.03515,-47.93555 l 3.75977,34.77734 c 0.62654,5.0129 5.01216,7.51954 13.1582,7.51954 h 18.79883 c 5.01292,-15.03874 8.14518,-27.25901 9.39844,-36.65821 7.51933,-5.6395 12.21983,-15.03838 14.09963,-28.19726 3.9386,1.43226 7.9027,2.14843 11.8926,2.14843 9.9746,0 20.1079,-4.4761 30.4023,-13.42773 8.1459,-6.89273 15.0402,-10.33789 20.6797,-10.33789 1.2531,0.62661 3.445,1.2523 6.5781,1.87891 1.88,-0.62661 1.5671,-2.19276 -0.9394,-4.69922 -3.9766,-2.91612 -8.4016,-4.375 -13.2754,-4.375 -6.6462,0 -14.1268,2.71218 -22.4414,8.13476 -5.6813,2.67355 -11.9871,4.00977 -18.9161,4.00977 -6.0628,0 -12.603,-1.02337 -19.621,-3.07031 L 993.49609,241.6875 c -3.13301,-12.5323 -1.87976,-24.12489 3.75977,-34.77734 11.27904,-15.03871 13.47084,-27.88471 6.57814,-38.53711 -1.2533,-1.25323 -2.1918,-1.87891 -2.8184,-1.87891 -0.6265,0 -0.9414,0.62568 -0.9414,1.87891 0,2.50643 0.3149,4.70022 0.9414,6.58007 0,6.26614 -4.38757,13.78601 -13.16013,22.5586 -10.65244,10.65244 -15.97852,24.12409 -15.97852,40.41601 -4.38626,-8.14598 -14.09801,-18.4853 -29.13672,-31.01757 -6.26615,23.18475 -6.26615,36.97116 0,41.35742 -13.15891,1.87983 -24.75157,8.14446 -34.77734,18.79687 l 4.69922,-31.01562 c 10.02577,-13.15888 13.78573,-30.07761 11.2793,-50.75586 1.76928,-2.359 4.40633,-3.53906 7.91015,-3.53906 3.9418,0 8.98006,1.4929 15.11719,4.47851 2.26798,1.1034 4.66162,1.6543 7.18164,1.6543 10.35967,0 22.8484,-9.32408 37.46484,-27.97266 l 8.45897,-10.33789 c -10.6637,-7.38263 -21.32638,-11.07422 -31.99022,-11.07422 -5.62809,0 -11.25659,1.02756 -16.88476,3.08399 -13.4586,4.91756 -21.99959,7.37695 -25.62305,7.37695 -0.76272,0 -1.30785,-0.11007 -1.63476,-0.32812 21.93146,-36.3436 65.1678,-73.313378 129.70899,-110.910161 10.6525,-8.623396 11.2442,-12.935547 1.7754,-12.935547 -2.228,0 -5.0136,0.239379 -8.3555,0.716797 C 978.76924,56.836611 930.20703,89.733522 901.38281,124.19727 915.79491,89.733522 959.3442,52.450905 1032.0312,12.347656 1041.7155,4.1162409 1043.1695,0 1036.3906,0 Z M 481.23828,86.601562 c 34.46371,0 70.18214,14.412098 107.15234,43.236328 v 47.93555 H 375.96875 v -47.93555 c 36.34359,-28.82423 71.4324,-43.236325 105.26953,-43.236328 z M 968.93164,149.2207 c 5.50361,0 9.93193,1.37168 13.28516,4.11524 -12.11454,15.27485 -22.90136,22.91211 -32.35938,22.91211 -1.79391,0 -3.54024,-0.2748 -5.23828,-0.82422 -5.57985,-1.80525 -10.29958,-2.70899 -14.16016,-2.70899 -3.50962,0 -6.30975,0.74635 -8.39843,2.23828 l -3.75977,-8.45898 c 3.75972,-2.50645 13.63072,-6.73661 29.60938,-12.68945 8.20524,-3.05686 15.21219,-4.58399 21.02148,-4.58399 z m -83.7207,4.05078 c 2.56404,0 3.72449,2.05813 3.48242,6.17383 -0.31328,5.32624 3.91689,9.24161 12.68945,11.74805 5.63954,9.39919 7.8333,20.99186 6.58008,34.77734 -1.87995,13.15888 -9.55522,22.24488 -23.02734,27.25782 -13.47216,5.0129 -22.24535,9.71136 -26.31836,14.09765 -4.07294,4.38627 -11.43542,7.36314 -22.08789,8.92969 -10.65238,1.56655 -21.9322,4.54343 -33.83789,8.92969 -1.46225,0.20885 -2.54037,0.3125 -3.23633,0.3125 -1.39254,0 -1.25343,-0.41647 0.41797,-1.25196 2.50649,-1.25322 5.01315,-3.13419 7.51953,-5.64062 l -1.88086,-2.81836 c -2.5065,1.25322 -6.26642,3.2896 -11.2793,6.10937 -5.01284,2.81974 -8.77085,4.22852 -11.27734,4.22852 -3.13305,0 -5.16946,-2.66208 -6.10938,-7.98828 -0.93982,-5.32621 1.40944,-11.12255 7.04883,-17.38867 2.50649,1.87985 3.28972,3.28863 2.34961,4.22851 -0.93983,0.93995 -2.0376,2.0378 -3.29102,3.29102 -1.25309,1.25322 -1.40857,2.66199 -0.46874,4.22851 0.42718,0.71208 1.08045,1.06836 1.96093,1.06836 1.05642,0 2.43937,-0.51172 4.14844,-1.53711 6.89273,-7.51933 7.20564,-13.16023 0.93945,-16.91992 l 38.53711,-32.89648 c 5.63955,-20.05164 19.11116,-35.71708 40.41602,-46.9961 1.43228,0.17919 2.83973,0.26954 4.2207,0.26954 3.45282,0 6.74587,-0.56071 9.87891,-1.67969 0.99678,-0.35602 1.87088,-0.53321 2.625,-0.53321 z m -37.79492,36.12891 c -6.22008,0 -10.476,4.58357 -12.76758,13.75 5.01292,0.62661 8.93026,2.03734 11.75,4.23047 0.85824,0.66749 2.13634,1 3.83594,1 3.88526,0 9.96977,-1.74324 18.25195,-5.23047 l 4.69922,0.93945 c -8.77259,-8.77258 -16.76272,-13.62844 -23.96875,-14.56836 -0.61765,-0.0807 -1.21754,-0.12109 -1.80078,-0.12109 z M 376.9082,205.03125 h 211.48242 v 323.33203 c -38.22342,5.32618 -75.03775,7.98828 -110.4414,7.98828 -35.40365,0 -69.39656,-2.6621 -101.98047,-7.98828 z m 570.53125,17.85742 c 7.51934,6.26612 13.15825,13.31577 16.91797,21.14844 3.75966,7.83267 6.26631,12.6885 7.51953,14.56836 l 11.2793,-7.51953 c 8.77261,3.75968 15.66481,10.65388 20.67775,20.67968 -1.88,13.15891 -6.57846,22.87063 -14.09767,29.13672 -1.2531,11.27905 -3.13404,21.93123 -5.64063,31.95704 -2.34986,0.70496 -4.65439,1.05859 -6.91601,1.05859 -3.76942,0 -7.41668,-0.97933 -10.94141,-2.9375 -1.2531,-11.27903 -2.19346,-25.37831 -2.82031,-42.29688 -25.06457,3.75969 -46.68372,15.97804 -64.85547,36.65625 l 9.40039,-41.35546 c 11.9056,-15.66533 26.00492,-24.75135 42.29688,-27.25782 6.89273,-1.25322 7.83124,-4.38748 2.81835,-9.40039 -5.01288,-5.01293 -6.89189,-13.15848 -5.63867,-24.4375 z m -50.75586,22.5586 c -5.63953,59.52828 -22.71371,114.82751 -51.22461,165.89648 -28.51092,51.06899 -64.85501,89.91773 -109.03125,116.54883 -44.17623,26.63103 -107.46557,43.5498 -189.86523,50.75586 -22.83365,1.99683 -44.93277,2.99609 -66.29883,2.99609 -55.73756,0 -106.48209,-6.79558 -152.23242,-20.38476 C 264.74331,542.46138 213.3614,509.72174 173.88477,463.03906 134.40813,416.35636 108.71813,380.63987 96.8125,355.88867 84.906839,331.1374 80.989512,317.82123 85.0625,315.94141 c 0.294437,-0.13588 0.609966,-0.20313 0.945312,-0.20313 4.303851,0 11.978454,11.18967 23.023438,33.57031 11.90567,24.12463 37.28278,57.64732 76.13281,100.57032 38.85003,42.92302 88.50838,73.62819 148.97656,92.11328 42.47173,12.98358 89.50461,19.47461 141.09571,19.47461 21.86065,0 44.53912,-1.16493 68.03711,-3.4961 78.95324,-7.83268 140.04883,-23.02786 183.28515,-45.58593 43.23632,-22.55808 78.95278,-58.58935 107.15039,-108.0918 28.19763,-49.50247 45.4292,-100.25671 51.69532,-152.26563 z M 52.394531,406.84766 c 3.711092,0 7.238153,1.02938 10.580078,3.08593 1.879827,9.39923 -2.505759,17.70214 -13.158203,24.90821 -9.074262,6.13846 -19.058106,9.20703 -29.951172,9.20703 -1.894482,0 -3.816141,-0.0936 -5.765625,-0.2793 3.759684,-13.15882 10.807375,-23.34081 21.146485,-30.54687 6.097438,-4.24972 11.813776,-6.375 17.148437,-6.375 z m 29.199219,44.70312 c 3.601089,0 7.106027,0.85279 10.517578,2.5586 1.253218,9.39922 -3.289797,17.85956 -13.628906,25.3789 -8.862059,6.44516 -18.759678,9.66602 -29.69336,9.66602 -1.822363,0 -3.672847,-0.0876 -5.552734,-0.26563 3.759654,-13.78546 10.6519,-24.12482 20.677734,-31.01758 6.126898,-4.21224 12.020834,-6.31836 17.679688,-6.31836 z m 26.33594,43.64844 v 0.002 c 3.65834,0 7.15807,1.02753 10.5,3.08399 1.87982,9.39919 -2.50579,17.70211 -13.15821,24.9082 -9.07428,6.13847 -19.058099,9.20703 -29.951168,9.20703 -1.89448,0 -3.816141,-0.0924 -5.765624,-0.2793 4.386322,-13.15888 11.591382,-23.34083 21.617187,-30.54687 5.91265,-4.24973 11.498955,-6.375 16.757815,-6.375 z"
     id="path1"
     sodipodi:nodetypes="scccssssscscssccscccccscccccsccccccccsscccsccccsscccsccccsccssccccsscssccccsscsccccccsscccscccsccccscsccccsscsccccccsssccsssccscccssccccsscsssccssssccssscscccssscccssccccsssscssccsscccscccscccccscccccsccssssssssssssssssccscsscssccsscscccccsscssc" />
  <rect
     style="fill:none;fill-rule:evenodd;stroke:#613583;stroke-width:20;stroke-linejoin:miter;stroke-dasharray:none"
     id="rect6"
     width="808.06946"
     height="44.468403"
     x="81.433922"
     y="590.99866" />
  <text
     xml:space="preserve"
     style="font-size:64px;line-height:1.25;font-family:Ubuntu;-inkscape-font-specification:Ubuntu;letter-spacing:0px;word-spacing:0px;fill:#e01b24"
     x="455.88541"
     y="704.55011"
     id="text6"><tspan
       sodipodi:role="line"
       id="tspan6"
       x="455.88541"
       y="704.55011">↑ Make a dent here</tspan></text>
</svg>
