<?xml version="1.0" encoding="UTF-8" standalone="no"?>
<svg
   width="1100"
   height="1000"
   version="1.1"
   id="svg1"
   sodipodi:docname="140B1.svg"
   inkscape:version="1.4.2 (f4327f4, 2025-05-13)"
   xmlns:inkscape="http://www.inkscape.org/namespaces/inkscape"
   xmlns:sodipodi="http://sodipodi.sourceforge.net/DTD/sodipodi-0.dtd"
   xmlns:xlink="http://www.w3.org/1999/xlink"
   xmlns="http://www.w3.org/2000/svg"
   xmlns:svg="http://www.w3.org/2000/svg">
  <defs
     id="defs1" />
  <sodipodi:namedview
     id="namedview1"
     pagecolor="#ffffff"
     bordercolor="#666666"
     borderopacity="1.0"
     inkscape:showpageshadow="2"
     inkscape:pageopacity="0.0"
     inkscape:pagecheckerboard="0"
     inkscape:deskcolor="#d1d1d1"
     showguides="true"
     inkscape:zoom="0.755"
     inkscape:cx="649.66887"
     inkscape:cy="350.33113"
     inkscape:window-width="1680"
     inkscape:window-height="998"
     inkscape:window-x="-8"
     inkscape:window-y="-8"
     inkscape:window-maximized="1"
     inkscape:current-layer="svg1">
    <sodipodi:guide
       position="415.31038,43.38153"
       orientation="1,0"
       id="guide1"
       inkscape:locked="false" />
  </sodipodi:namedview>
  <path
     id="path1"
     style="fill:#000000;stroke:none;stroke-width:0.999998"
     d="m 284.07075,448.67179 c -51.92338,0 -82.689,15.33156 -92.29687,45.99497 -9.81229,30.86785 -6.33696,58.56693 10.42571,83.09767 16.96708,24.53073 46.0975,36.79684 87.39091,36.79684 8.79017,0 13.18556,-5.51931 13.18556,-16.55815 0,-11.24325 -4.19153,-16.86504 -12.57286,-16.86504 -22.69093,-0.40885 -36.8975,-7.25703 -42.62134,-20.54451 -5.72383,-13.08306 -5.51997,-25.14425 0.61271,-36.18307 6.3371,-10.83441 18.09197,-16.25126 35.26348,-16.25126 17.78477,0 32.60508,6.02951 44.46159,18.09046 11.85653,12.06095 21.56631,30.35764 29.12995,54.88838 7.35923,24.53073 18.194,36.79577 32.5036,36.79577 -2.90862,94.78233 -26.72471,193.63526 -26.72471,288.35898 0,59.06881 15.03696,93.70717 52.48207,93.70717 l 1.5e-4,-36.91788 c -12.70048,0 -18.04443,-18.43019 -18.04443,-57.57432 0,-51.26609 3.84409,-140.36883 14.38381,-283.2807 h 3.66047 v -23.91817 c -19.62458,0 -32.80969,-11.14111 -39.55565,-33.4232 -6.74594,-22.28208 -16.1494,-41.08897 -28.21033,-56.42069 -12.26537,-15.3317 -33.62754,-22.99748 -64.08652,-22.99748 -29.64131,0 -48.03942,9.30207 -55.19421,27.90454 -7.35922,18.39803 -6.43915,36.48873 2.75987,54.27352 8.99461,17.78477 25.55257,26.67696 49.67446,26.67696 6.3371,1.22654 6.3371,3.47546 0,6.74623 -28.21034,0 -48.75491,-10.01611 -61.63355,-30.04955 -13.08305,-20.03342 -15.02457,-41.19173 -5.82555,-63.47381 8.99461,-22.4865 32.60462,-33.7301 70.83168,-33.7301 h 131.2398 v -25.14356 z"
     sodipodi:nodetypes="sccsscccssccsccscccscsccccccsccs" />
  <use
     x="0"
     y="0"
     xlink:href="#path1"
     id="use1"
     transform="matrix(-1,0,0,1,830.6211,0)" />
  <ellipse
     style="fill:none;fill-rule:evenodd;stroke:#613583;stroke-width:35;stroke-linecap:round;stroke-miterlimit:2;stroke-dasharray:none"
     id="path2"
     cx="415.31039"
     cy="233.08589"
     rx="216.90666"
     ry="215.58589" />
</svg>
