<?xml version="1.0" encoding="UTF-8" standalone="no"?>
<svg
   width="1000"
   height="1000"
   version="1.1"
   id="svg1"
   sodipodi:docname="140BF.svg"
   inkscape:version="1.4.2 (f4327f4, 2025-05-13)"
   xmlns:inkscape="http://www.inkscape.org/namespaces/inkscape"
   xmlns:sodipodi="http://sodipodi.sourceforge.net/DTD/sodipodi-0.dtd"
   xmlns="http://www.w3.org/2000/svg"
   xmlns:svg="http://www.w3.org/2000/svg">
  <defs
     id="defs1" />
  <sodipodi:namedview
     id="namedview1"
     pagecolor="#ffffff"
     bordercolor="#666666"
     borderopacity="1.0"
     inkscape:showpageshadow="2"
     inkscape:pageopacity="0.0"
     inkscape:pagecheckerboard="0"
     inkscape:deskcolor="#d1d1d1"
     inkscape:zoom="0.53386562"
     inkscape:cx="167.64518"
     inkscape:cy="197.61527"
     inkscape:window-width="1680"
     inkscape:window-height="998"
     inkscape:window-x="-8"
     inkscape:window-y="-8"
     inkscape:window-maximized="1"
     inkscape:current-layer="svg1" />
  <path
     style="fill:#000000;stroke:none;stroke-width:1"
     d="m 525.58399,523.35929 v 113.4594 H 942.15796 C 866.14758,590.84168 792.54728,560.43752 721.35707,545.60623 653.13312,530.77494 587.87542,523.35929 525.58399,523.35929 Z M 65.628477,636.81869 H 482.20245 v -113.4594 c -59.32517,0 -124.39748,7.41565 -195.21691,22.24694 -71.19021,14.83129 -144.9759,45.23545 -221.357063,91.21246 z M 240.26696,877.64183 V 666.85206 H 43.381535 v 211.90212 z m 241.93549,1.11235 V 666.85206 H 283.6485 v 210.78977 z m 238.04227,0 V 666.85206 H 525.58399 v 211.90212 z m 244.16018,0 V 666.85206 H 764.7386 V 878.75418 Z M 43.381535,605.67297 C 129.40304,556.7297 204.30107,525.2132 268.07564,511.12347 c 70.81943,-15.57285 141.45347,-22.9885 211.90212,-22.24694 l 0,-139.3387 h 48.94327 l 0,139.3387 c 69.70708,-1.48313 140.34112,5.93252 211.90211,22.24694 71.56099,16.31443 146.08825,47.83093 223.58176,94.5495 v -113.4594 h 43.3815 V 1000 H 964.4049 V 914.34928 H 43.381535 V 1000 H 0 V 492.21357 h 43.381535 z"
     id="path1"
     sodipodi:nodetypes="ccccccccccccccccccccccccccccccccccccscccccccccccc" />
  <path
     style="fill:#000000;stroke:none;stroke-width:1"
     d="M 384.85176,0.80019552 C 377.42255,1.6846273 371.77227,3.3191316 367.35908,6.04519 c -8.82693,5.457723 -13.40581,12.147466 -13.99412,19.241936 4.70762,5.457724 12.16425,5.842269 20.99119,1.746468 8.82693,-4.091876 17.13387,-6.06618 24.48974,-5.244994 7.35589,0.81726 10.79004,10.636652 10.49561,29.737532 -0.27988,19.100879 0,41.256387 0,64.722878 0,24.01226 11.44718,54.62136 34.98532,94.46042 -11.18076,5.45771 -16.88812,15.54859 -19.24194,29.73754 l -54.22726,40.23313 c -16.47669,7.09446 -23.90143,17.9556 -24.48974,33.23607 -0.58776,15.28048 -2.32304,26.68737 -3.49853,33.23608 -1.17549,6.54869 3.97435,10.71951 15.74341,13.99414 8.82693,6.0029 16.56178,9.2921 22.74047,8.74631 6.17868,-0.55976 11.90228,0.39186 17.49266,1.74649 5.59207,1.36581 13.91353,-2.58054 22.74047,-10.49562 6.5571,-5.87864 27.78619,-6.74798 57.72581,-5.24499 l 38.48387,1.74925 c 24.43823,-0.81166 43.93989,-7.09951 55.97654,-20.9912 13.24012,-15.28046 19.24193,-33.48907 19.24193,-54.22726 0,-20.7382 8.01305,-39.49258 24.48975,-54.22727 16.47668,-14.73471 24.19529,-29.38154 24.48972,-45.48094 0.2799,-16.09942 0.58777,-30.52178 0,-41.98239 L 572.0233,191.4675 c 20.0077,-26.19535 31.48681,-51.752 31.48681,-75.21849 0,-24.012258 -1.15871,-45.895171 -1.74648,-64.722878 -0.58776,-18.827708 2.84361,-28.645993 10.49561,-29.737532 7.64975,-1.091538 15.66279,0.884431 24.48974,5.244994 8.82694,4.366169 16.28358,3.705649 20.99119,-1.746468 C 657.15242,18.192656 651.1176,11.775511 641.99678,6.04519 632.87539,0.31487003 619.15554,-1.1125276 598.26512,0.80019552 577.37466,2.708994 566.77832,19.218159 566.77832,49.779663 c 0,90.592437 -20.62066,134.693557 -61.22437,134.693557 -41.19201,0 -61.22434,-44.10112 -61.22434,-134.693557 0,-30.561504 -10.59635,-47.0695478 -31.48681,-48.97946748 -10.44522,-0.9571948 -20.55906,-0.8844318 -27.98826,0 z M 626.25059,173.97762 c 0,16.37201 -7.44041,30.63372 -22.74047,43.73168 -15.30008,13.09794 -33.05863,23.73461 -52.47801,29.73752 l 3.49855,13.99414 17.49264,-6.99707 v 22.74048 c 0,38.74751 -16.02553,58.38352 -48.97946,59.47507 -1.83042,0.056 -3.43137,-0.0437 -5.24501,0 -13.30562,0.33584 -26.05708,0.58217 -38.48386,0 -16.38041,-0.77246 -32.37683,-1.15311 -47.2302,-3.49853 -10.88633,7.09447 -24.95323,22.75054 -33.23608,20.9912 -4.11988,1.06356 -8.12555,0.004 -12.24487,-1.74646 10.59245,-13.09797 18.62116,-19.89968 22.74047,-20.99121 4.11988,-1.09155 6.99707,-3.72244 6.99707,-6.99707 -0.58775,-4.36617 -14.35687,3.09552 -38.48388,22.74047 l -8.74633,-1.74647 c -3.53211,-6.5487 -4.97071,-13.35096 -3.49854,-20.99119 1.47219,-7.64025 5.20022,-12.08422 10.49562,-13.99415 5.29538,-1.90879 5.57526,-0.11197 1.74647,6.99707 -3.82321,7.09447 -2.11032,10.11048 5.24499,8.74633 7.35589,-1.36582 11.06769,-5.53608 12.24487,-13.99412 1.17552,-8.45919 -0.55975,-15.42153 -5.245,-19.24193 17.65387,-16.91779 35.41244,-27.23316 52.47799,-33.23609 2.35663,-15.28047 15.82794,-27.73021 38.48389,-36.7346 22.65595,-9.00495 34.38078,-11.25073 36.73461,-5.24501 2.35661,6.00294 7.50477,8.74634 15.74339,8.74634 8.82694,0 20.01162,-2.08792 31.4868,-6.99706 11.47521,-4.90914 31.8014,-19.83138 61.22435,-45.48095 z m -162.68183,66.47214 c -8.23862,9.82331 -9.07266,16.62504 -5.245,20.9912 3.82318,4.36617 8.09364,5.68163 15.74341,3.49854 7.64975,-2.18309 21.41828,-3.38658 38.48385,-1.74646 -8.82694,-13.64373 -18.00037,-20.17283 -26.23901,-20.99122 -8.23862,-0.81725 -16.26733,-1.2035 -22.74046,-1.74645 z"
     id="path2490"
     sodipodi:nodetypes="ccccccsccccsccccccssscccsscccccsssccccscccsccccccscccsccccccccssccccscccc" />
</svg>
