<?xml version="1.0" encoding="UTF-8" standalone="no"?>
<svg
   width="600"
   height="1000"
   version="1.1"
   id="svg1"
   sodipodi:docname="1413A.svg"
   inkscape:version="1.4.2 (f4327f4, 2025-05-13)"
   xmlns:inkscape="http://www.inkscape.org/namespaces/inkscape"
   xmlns:sodipodi="http://sodipodi.sourceforge.net/DTD/sodipodi-0.dtd"
   xmlns:xlink="http://www.w3.org/1999/xlink"
   xmlns="http://www.w3.org/2000/svg"
   xmlns:svg="http://www.w3.org/2000/svg">
  <defs
     id="defs1" />
  <sodipodi:namedview
     id="namedview1"
     pagecolor="#ffffff"
     bordercolor="#666666"
     borderopacity="1.0"
     inkscape:showpageshadow="2"
     inkscape:pageopacity="0.0"
     inkscape:pagecheckerboard="0"
     inkscape:deskcolor="#d1d1d1"
     inkscape:zoom="0.755"
     inkscape:cx="204.63576"
     inkscape:cy="458.9404"
     inkscape:window-width="1680"
     inkscape:window-height="998"
     inkscape:window-x="-8"
     inkscape:window-y="-8"
     inkscape:window-maximized="1"
     inkscape:current-layer="svg1"
     showguides="true">
    <sodipodi:guide
       position="282.68164,828.69922"
       orientation="1,0"
       id="guide4"
       inkscape:locked="false" />
    <sodipodi:guide
       position="308.82227,828.69922"
       orientation="1,0"
       id="guide5"
       inkscape:locked="false" />
    <sodipodi:guide
       position="295.75196,764.12968"
       orientation="1,0"
       id="guide6"
       inkscape:locked="false" />
  </sodipodi:namedview>
  <path
     style="fill:#000000;stroke:none;stroke-width:1"
     d="m 254.31641,0 c -20.02225,0 -30.77468,16.500371 -32.25782,49.5 l -19.46484,279.75391 -3.89453,36.70898 c -51.16797,-0.74156 -80.08764,-8.34417 -86.76172,-22.80469 -6.3033,-14.46051 4.26328,-45.97635 31.70117,-94.54882 C 171.44735,200.40766 179.04801,163.32977 166.44141,137.375 154.20559,111.42024 137.52132,96.588683 116.38672,92.880859 95.252126,89.543818 76.897077,89.174055 61.324219,91.769531 48.346836,90.286402 37.038779,91.027881 27.398438,93.994141 17.758095,96.960399 10.71306,101.40928 6.2636719,107.3418 c -4.8201706,6.3033 -6.85875224,12.04928 -6.11718752,17.24023 1.48312942,11.86503 7.22911042,19.09593 17.24023462,21.69141 10.011123,2.96626 18.169356,4.44922 24.472656,4.44922 -11.494253,20.7638 -17.056329,56.17484 -16.685547,106.23046 0.370783,50.05564 8.343157,90.84093 23.916016,122.35743 15.943641,31.5165 64.885226,48.75835 146.828126,51.72461 l -2.7793,57.84179 h 85.65039 v 433.81446 c -28.55024,-0.37079 -51.90979,-5.19138 -70.07812,-14.46094 -19.65147,-9.64034 -44.30812,-36.14972 -73.97071,-79.53125 -29.2918,-43.75232 -56.916325,-65.62891 -82.871089,-65.62891 -17.055989,0 -25.583985,16.31452 -25.583985,48.94336 V 1000 H 562.99414 l 1.11133,-187.98633 c 0,-32.62884 -8.89776,-48.94336 -26.69531,-48.94336 -25.95477,0 -53.20758,21.87659 -81.75782,65.62891 -28.55024,43.38153 -52.65126,70.07676 -72.30273,80.08789 -20.02225,10.01112 -43.01203,14.64586 -68.9668,13.9043 V 488.87695 h 85.65235 l -2.78125,-58.39843 c 31.14571,-7.41565 53.2062,14.08922 66.18359,64.51562 12.97738,50.4264 16.12916,97.88697 9.45508,142.38086 -7.04487,44.49388 3.15195,81.57179 30.58984,111.23438 11.12348,6.67407 16.68555,4.07792 16.68555,-7.78711 -13.71895,-39.67372 -13.34918,-84.72204 1.11133,-135.14844 14.08973,-50.79718 13.71996,-104.74718 -1.11133,-161.84766 -14.83129,-57.10048 -57.10152,-83.42595 -126.80859,-78.97656 l -2.7793,-35.5957 L 368.33203,49.5 C 366.8489,16.500371 353.87202,0 329.40039,0 311.23205,0 299.73814,7.2308945 294.91797,21.691406 289.35623,7.2308944 275.82178,0 254.31641,0 Z m 6.67382,19.466797 c 12.97739,0 20.20828,10.010956 21.69141,30.033203 l 0,196.63522 h 26.14063 l 0,-196.63522 c 1.11234,-20.022247 8.15738,-30.033203 21.13476,-30.033203 12.97738,0 19.46485,10.010956 19.46485,30.033203 l 11.125,209.67773 c -10.01113,-4.82016 -17.24202,-8.1578 -21.69141,-10.01171 l -43.9375,5.00586 -40.60156,-6.11915 c -5.93252,2.59548 -12.97745,5.93405 -23.35936,11.125 L 240.41211,49.5 c 0,-20.022247 6.85918,-30.033203 20.57812,-30.033203 z M 43.109375,106.78516 c 3.800519,0.18539 7.278037,1.29858 10.429687,3.33789 19.651466,-4.07861 37.263079,-4.45032 52.835938,-1.11328 15.57286,3.33704 27.80826,15.75829 36.70703,37.26367 9.26956,21.13459 1.48304,53.94948 -23.35937,98.44336 -24.471646,44.49388 -34.482596,79.90297 -30.033207,106.22851 4.449388,26.32555 40.230187,39.11852 107.341797,38.37696 v 16.68359 c -70.81943,0 -113.273552,-14.27398 -127.363281,-42.82422 -13.718948,-28.55025 -20.578125,-63.95932 -20.578125,-106.22852 0,-42.26918 3.335683,-70.44932 10.009765,-84.53906 6.674083,-14.4605 13.719119,-24.47146 21.134766,-30.0332 7.044865,-5.19095 17.427538,-8.15688 31.146485,-8.89844 7.04487,-5.19095 7.04487,-9.08421 0,-11.67969 -18.9099,-3.33704 -38.376191,1.48161 -58.398438,14.45899 -4.820171,-1.11235 -10.937868,-1.48212 -18.353516,-1.11133 -7.415646,0.74156 -12.977723,-3.33755 -16.685547,-12.23633 0,-5.93252 4.263022,-10.56725 12.791016,-13.90429 4.449388,-1.66852 8.574481,-2.41001 12.375,-2.22461 z m -8.619141,4.17187 c -1.761216,0 -3.384057,0.27781 -4.867187,0.83399 -4.820171,3.33704 -6.488991,6.30295 -5.005859,8.89843 1.112345,1.85391 4.078266,2.96711 8.898437,3.33789 4.449388,0.37078 7.601166,-1.29804 9.455078,-5.00586 1.853912,-3.33704 0.926574,-5.74734 -2.78125,-7.23046 -2.039303,-0.55618 -3.938002,-0.83399 -5.699219,-0.83399 z M 295.75196,270.85742 c 41.15684,0 62.19944,18.72286 64.79492,56.17188 l 8.34179,131.25781 H 223.17188 l 9.45507,-131.25781 c 2.59548,-37.44902 24.19286,-56.17188 63.12501,-56.17188 z M 415.25,388.98242 c 46.02915,2.3116 74.88481,26.34067 86.56445,72.08594 13.34817,52.28031 9.26907,121.61552 -12.23633,208.00781 11.12349,-74.15647 9.82637,-137.7457 -3.89257,-190.76758 -14.08974,-52.6511 -43.93869,-76.75212 -89.54493,-72.30273 l -1.66796,-16.68359 c 7.2766,-0.55618 14.20175,-0.67008 20.77734,-0.33985 z M 51.869141,793.66016 c 14.089729,0 32.628678,15.01546 55.617189,45.04882 22.61772,30.03338 44.68015,56.73056 66.18555,80.08985 21.13459,22.9885 61.9199,34.48242 122.35742,34.48242 60.43752,0 101.40869,-11.49392 122.91406,-34.48242 21.1346,-23.35929 42.64142,-50.05647 64.51758,-80.08985 21.87616,-30.03336 39.85948,-45.04882 53.94922,-45.04882 v 27.80859 152.94727 H 52.982422 V 821.46875 c 0,-18.53911 -0.371717,-27.80859 -1.113281,-27.80859 z"
     id="path1"
     sodipodi:nodetypes="sccccccccsccccscccccccsscccsccccccsccccscccscssccccscccccccsscsccscccsccccccccsscccccssccccsssccccscccscsccccsc" />
  <path
     style="fill:#f66151;stroke:none;stroke-width:1px;stroke-linecap:butt;stroke-linejoin:miter;stroke-opacity:1"
     d="m 360.54688,259.17773 c -13.69257,-10.99892 -34.27475,-19.1115 -64.79492,-19.1115 l 0,22.35099 z"
     id="path6"
     sodipodi:nodetypes="cccc" />
  <use
     x="0"
     y="0"
     xlink:href="#path6"
     id="use6"
     transform="matrix(-1,0,0,1,591.50393,0)" />
</svg>
