<?xml version="1.0" encoding="UTF-8" standalone="no"?>
<svg
   width="1000"
   height="1000"
   version="1.1"
   id="svg1"
   sodipodi:docname="14137.svg"
   inkscape:version="1.4.2 (f4327f4, 2025-05-13)"
   xmlns:inkscape="http://www.inkscape.org/namespaces/inkscape"
   xmlns:sodipodi="http://sodipodi.sourceforge.net/DTD/sodipodi-0.dtd"
   xmlns:xlink="http://www.w3.org/1999/xlink"
   xmlns="http://www.w3.org/2000/svg"
   xmlns:svg="http://www.w3.org/2000/svg">
  <defs
     id="defs1" />
  <sodipodi:namedview
     id="namedview1"
     pagecolor="#ffffff"
     bordercolor="#666666"
     borderopacity="1.0"
     inkscape:showpageshadow="2"
     inkscape:pageopacity="0.0"
     inkscape:pagecheckerboard="0"
     inkscape:deskcolor="#d1d1d1"
     showguides="true"
     inkscape:zoom="1.0677312"
     inkscape:cx="730.9892"
     inkscape:cy="379.77722"
     inkscape:window-width="1680"
     inkscape:window-height="998"
     inkscape:window-x="-8"
     inkscape:window-y="-8"
     inkscape:window-maximized="1"
     inkscape:current-layer="svg1">
    <sodipodi:guide
       position="523.3593,854.56062"
       orientation="1,0"
       id="guide1"
       inkscape:locked="false" />
    <sodipodi:guide
       position="546.71859,804.78309"
       orientation="1,0"
       id="guide2"
       inkscape:locked="false" />
    <sodipodi:guide
       position="528.33989,728.39607"
       orientation="0,-1"
       id="guide7"
       inkscape:locked="false" />
    <sodipodi:guide
       position="535.03906,904.33789"
       orientation="1,0"
       id="guide8"
       inkscape:locked="false" />
  </sodipodi:namedview>
  <path
     style="fill:#000000;stroke:none;stroke-width:0.999998"
     d="m 399.99414,265.36328 c -20.09181,0.13916 -42.37407,5.49324 -66.8457,16.06055 -32.99963,13.71894 -56.17332,17.79806 -69.52149,12.23633 -13.71894,-5.93252 -22.98842,-9.63992 -27.80859,-11.12305 -8.15721,-2.59547 -11.49485,0.7402 -10.01172,10.00977 10.75269,25.95476 30.40484,39.48921 58.95508,40.60156 28.92103,0.74156 52.27862,-2.41022 70.07617,-9.45508 18.16833,-7.04487 39.67516,-8.34391 64.51758,-3.89453 25.2132,4.44939 44.67949,8.15874 58.39844,11.125 14.08973,2.96625 21.13281,10.56691 21.13281,22.80273 -86.76307,10.75269 -121.9863,49.31356 -105.67188,115.6836 l 42.82618,164.62695 H 88.431641 c -10.752689,0 -20.393881,-2.96592 -28.921875,-8.89844 C 50.981771,619.57696 46.71875,601.22385 46.71875,570.07812 H 0 c 0,37.44903 8.1562792,64.70183 24.470703,81.75782 16.314424,16.6852 37.263674,25.02734 62.847656,25.02734 H 281.42383 c 53.4372,66.79651 130.37502,122.25896 230.8125,166.38867 V 1000 h 42.82422 V 860.65039 c 94.99117,34.43328 165.62544,27.4904 211.90234,-20.82812 50.42641,-53.02188 30.21863,-107.34163 -60.62305,-162.95899 h 264.1836 V 634.03711 H 627.91992 l 41.71289,-155.17188 c 17.79755,-72.67334 -15.01733,-114.38598 -98.44336,-125.13867 0,-11.49426 6.67528,-18.911 20.02344,-22.24804 13.71895,-3.33704 33.18524,-7.2303 58.39844,-11.67969 25.58398,-4.44938 47.2747,-3.15034 65.07226,3.89453 18.16833,7.04486 41.52788,10.19664 70.07813,9.45508 28.92102,-1.11235 48.20145,-14.64681 57.8418,-40.60156 1.48312,-9.26957 -1.85451,-12.60524 -10.01172,-10.00977 -4.82017,1.48313 -13.90379,5.19053 -27.25196,11.12305 -13.71894,5.56173 -36.70873,1.48261 -68.96679,-12.23633 -32.25807,-14.08974 -61.17774,-18.91033 -86.76172,-14.46094 -40.79294,5.66393 -79.46749,9.7775 -114.715,32.00012 -35.80786,-19.35634 -76.38149,-24.45269 -115.54086,-32.00015 -6.21061,-1.11235 -12.66406,-1.646 -19.36133,-1.59961 z m -0.002,17.41602 c 6.69725,0.11587 13.15267,0.77738 19.36328,1.98242 25.2132,5.19095 45.97659,9.26811 62.29101,12.23437 16.31443,3.33704 33.55629,12.42261 51.72461,27.25391 20.39304,-14.8313 38.56028,-23.91687 54.50391,-27.25391 15.94365,-2.96626 36.52313,-6.85952 61.73633,-11.67968 25.58398,-4.44939 54.50365,-0.55613 86.76172,11.67968 32.25806,12.6066 59.14111,15.57253 80.64648,8.89844 -20.76381,13.71895 -47.461,15.57362 -80.08984,5.5625 -32.62885,-10.38191 -61.73438,-13.34782 -87.31836,-8.89844 -25.2132,4.82018 -45.79268,9.26906 -61.73633,13.34766 -15.94363,4.07861 -27.80732,8.8992 -35.59375,14.46094 -7.78643,5.93252 -11.67969,13.71903 -11.67969,23.35937 h -15.01758 c 0,-9.64034 -3.15177,-17.42685 -9.45507,-23.35937 -6.67408,-5.56174 -18.168,-10.38233 -34.48243,-14.46094 -16.31442,-4.0786 -37.07781,-8.52748 -62.29101,-13.34766 -24.84242,-4.44938 -53.57819,-1.48347 -86.20703,8.89844 -32.99963,10.01112 -60.06658,8.15645 -81.20117,-5.5625 21.13459,6.67409 48.20154,3.52426 81.20117,-9.45312 24.47163,-9.45496 46.75198,-14.00972 66.84375,-13.66211 z m 134.49023,107.65429 c 79.34742,0 112.53207,25.39814 99.55469,76.19532 L 590.6562,634.03711 H 473.85938 l -41.7129,-167.4082 c -11.49424,-50.79718 22.61774,-76.19532 102.33594,-76.19532 z M 334.25977,676.86328 H 512.23633 V 801.18555 C 442.06119,769.72645 382.73498,728.28632 334.25977,676.86328 Z m 220.80078,0 h 86.20703 c 85.27994,51.53875 110.49416,95.29192 75.64062,131.25781 -32.78626,33.83263 -86.73625,37.31546 -161.84765,10.44922 z"
     id="path4"
     sodipodi:nodetypes="scccccccccccsccccscccccccccccccccccccccccssscccccccccsccccsccccssccccssccccccscc" />
  <path
     id="path1-9"
     style="fill:#e01b24;stroke:none;stroke-width:0.999998"
     d="m 465.51758,0 c -35.22433,0 -53.20766,15.201315 -53.94922,45.605469 -0.74157,30.033371 13.16265,47.089362 41.71289,51.167969 l -38.375,163.515622 c 21.50537,0 84.30568,9.75703 108.45313,32.98047 V 271.60352 C 492.10267,253.65035 469.70513,246.0413 442.1582,244.7168 l 38.375,-164.626956 c -31.14572,0 -46.71875,-10.382673 -46.71875,-31.146485 0,-20.39303 14.64765,-30.589843 43.93946,-30.589843 30.40415,0 45.60546,25.769845 45.60547,77.308593 l 15.08503,3.642595 -3.40535,-65.93361 C 525.02794,11.124152 501.48347,0 465.51758,0 Z"
     sodipodi:nodetypes="scccccccsscccs" />
  <use
     x="0"
     y="0"
     xlink:href="#path1-9"
     id="use7"
     transform="matrix(-1,0,0,1,1070.0781,0)" />
  <path
     style="fill:#000000;stroke:none;stroke-width:0.999998"
     d="M 523.35938,95.662109 V 305.78915 h 23.35937 V 95.662109 Z"
     id="path1"
     sodipodi:nodetypes="ccccc" />
</svg>
