<?xml version="1.0" encoding="UTF-8" standalone="no"?>
<svg
   width="500"
   height="1000"
   version="1.1"
   id="svg1"
   sodipodi:docname="14140.svg"
   inkscape:version="1.4.2 (f4327f4, 2025-05-13)"
   xmlns:inkscape="http://www.inkscape.org/namespaces/inkscape"
   xmlns:sodipodi="http://sodipodi.sourceforge.net/DTD/sodipodi-0.dtd"
   xmlns="http://www.w3.org/2000/svg"
   xmlns:svg="http://www.w3.org/2000/svg">
  <defs
     id="defs1" />
  <sodipodi:namedview
     id="namedview1"
     pagecolor="#ffffff"
     bordercolor="#666666"
     borderopacity="1.0"
     inkscape:showpageshadow="2"
     inkscape:pageopacity="0.0"
     inkscape:pagecheckerboard="0"
     inkscape:deskcolor="#d1d1d1"
     inkscape:zoom="0.755"
     inkscape:cx="-192.71523"
     inkscape:cy="529.13907"
     inkscape:window-width="1680"
     inkscape:window-height="998"
     inkscape:window-x="-8"
     inkscape:window-y="-8"
     inkscape:window-maximized="1"
     inkscape:current-layer="svg1" />
  <path
     id="path3"
     style="fill:#000000;stroke:none;stroke-width:1"
     d="m 320.35547,489.80483 26.69726,172.9707 -7.23046,22.24609 c 0,22.61773 11.30806,33.92774 33.92578,33.92774 21.13459,0 31.70312,-11.31001 31.70312,-33.92774 l -5.5625,-22.24609 27.8086,-172.9707 z m 26.69726,21.13476 h 55.06055 l -23.35937,151.83594 7.23047,22.24609 c 0,8.15722 -4.44889,12.23633 -13.34766,12.23633 -8.89878,0 -13.34766,-4.07911 -13.34766,-12.23633 l 8.89844,-22.24609 z"
     sodipodi:nodetypes="cccsccccccccsccc" />
  <path
     style="fill:#000000;stroke:none;stroke-width:1"
     d="M 113.45898,0 C 92.32439,0 81.757813,15.758891 81.757812,47.275391 V 352.05859 C 27.252806,363.55285 0,380.23712 0,402.11328 c 0,8.89878 3.3376361,16.6853 10.011719,23.35938 25.954764,0 44.679575,19.28043 56.173828,57.84179 11.123471,38.56136 30.403901,57.8418 57.841793,57.8418 l -10.56836,428.25391 c 0,20.39302 10.9383,30.58984 32.81446,30.58984 21.13459,0 31.70117,-10.19682 31.70117,-30.58984 L 167.96484,541.15625 c 27.06711,0 46.34755,-19.28044 57.8418,-57.8418 11.12347,-38.56136 30.03414,-57.84179 56.73047,-57.84179 5.93252,-6.67408 8.89844,-14.4606 8.89844,-23.35938 0,-21.87616 -26.88305,-38.19067 -80.64649,-48.94336 l 0,-305.894529 C 210.78906,15.758891 199.85077,0 177.97461,0 156.84002,0 146.27344,10.938294 146.27344,32.814453 146.27344,10.938294 135.33514,0 113.45898,0 Z m 4.44922,18.353516 c 10.75269,0 16.12891,9.641192 16.12891,28.921875 V 345.93945 c -13.71895,0 -24.28553,0.74149 -31.70117,2.22461 V 47.275391 c 0,-19.280683 5.19036,-28.921875 15.57226,-28.921875 z m 57.28711,0 c 10.01113,0 15.01563,9.641192 15.01563,28.921875 V 345.93945 H 158.50977 V 47.275391 c 0,-19.280683 5.56208,-28.921875 16.68554,-28.921875 z M 146.27344,378.75391 c 43.01075,0 77.12274,6.48941 102.33594,19.46679 -27.80868,18.9099 -44.67882,41.52797 -50.61133,67.85352 -5.93252,26.32555 -15.94348,41.52686 -30.03321,45.60547 -14.46051,4.0786 -28.9223,4.0786 -43.38281,0 C 109.75074,507.60108 99.370018,492.39977 93.4375,466.07422 87.875765,439.74867 71.005631,417.1306 42.826172,398.2207 68.780937,385.24332 103.26268,378.75391 146.27344,378.75391 Z m -2.78125,169.63281 h 5.00586 l 5.00586,421.02344 c 0,5.93252 -2.41031,8.89843 -7.23047,8.89843 -4.82018,0 -7.23047,-2.96591 -7.23047,-8.89843 z"
     id="path1"
     sodipodi:nodetypes="sscsccccsccccsccscsssccssssccssscsccccscccscc" />
  <path
     style="fill:none;stroke:#000000;stroke-width:30;stroke-linecap:butt;stroke-linejoin:miter;stroke-dasharray:none;stroke-opacity:1"
     d="m 203.50429,301.48725 c 96.04741,-35.85067 170.52208,26.0632 170.52208,188.31758"
     id="path4"
     sodipodi:nodetypes="cc" />
</svg>
