<?xml version="1.0" encoding="UTF-8" standalone="no"?>
<svg
   width="2000"
   height="1000"
   version="1.1"
   id="svg1"
   sodipodi:docname="14189.svg"
   inkscape:version="1.4.2 (f4327f4, 2025-05-13)"
   xmlns:inkscape="http://www.inkscape.org/namespaces/inkscape"
   xmlns:sodipodi="http://sodipodi.sourceforge.net/DTD/sodipodi-0.dtd"
   xmlns:xlink="http://www.w3.org/1999/xlink"
   xmlns="http://www.w3.org/2000/svg"
   xmlns:svg="http://www.w3.org/2000/svg">
  <defs
     id="defs1" />
  <sodipodi:namedview
     id="namedview1"
     pagecolor="#ffffff"
     bordercolor="#666666"
     borderopacity="1.0"
     inkscape:showpageshadow="2"
     inkscape:pageopacity="0.0"
     inkscape:pagecheckerboard="0"
     inkscape:deskcolor="#d1d1d1"
     inkscape:zoom="0.38714096"
     inkscape:cx="-45.203173"
     inkscape:cy="220.84979"
     inkscape:window-width="1680"
     inkscape:window-height="998"
     inkscape:window-x="-8"
     inkscape:window-y="-8"
     inkscape:window-maximized="1"
     inkscape:current-layer="svg1"
     showguides="true" />
  <path
     style="fill:#000000;stroke:none;stroke-width:1"
     d="m 144.03711,0 c -11.309,0 -23.19003,3.0141999 -35.68945,8.3710938 -26.784475,0 -48.190074,6.5518552 -65.451176,19.6464842 C 21.27814,45.775505 0,65.898399 0,98.814453 0,104.17134 1.7763937,111.94587 5.3476562,122.06445 H 26.15625 v -9.5332 c 8.928157,5.3569 14.926292,8.25391 17.902344,8.25391 0,17.2611 3.001019,30.35163 8.953125,39.875 5.952104,10.11857 8.833984,23.86488 8.833984,42.3164 -11.904209,8.92817 -22.575749,24.38835 -31.503906,45.22071 H 17.902344 v 41.03711 C 17.902344,709.73644 197.60658,1000 699.95312,1000 v -51.84766 c -413.16975,0 -630.318354,-212.41247 -630.318354,-658.91796 H 699.9668 c 0.44045,-13.59121 0.83586,-27.22248 1.27929,-41.03711 H 313.64844 C 313.64844,74.793785 270.66543,0 144.03711,0 Z m 16.04101,20.808594 c 35.11743,0 64.9665,15.551008 90.56055,46.501953 25.59405,30.950942 38.5957,91.009953 38.59571,180.886723 H 57.777344 c 6.547314,-14.88026 14.206608,-24.9849 23.134765,-30.3418 48.897371,0 154.847661,-42.76737 154.847661,-116.7168 0,-61.007408 -47.82437,-76.487697 -75.68165,-80.330076 z m -49.40624,3.603515 c 26.78446,0 64.86914,15.462891 64.86914,15.462891 2.31294,0 3.60351,2.948144 3.60351,9.53125 l -47.05479,-9.652623 c 9.11217,24.475745 -14.68347,37.669922 -45.132809,37.669922 -16.070682,0 -29.189525,-4.864355 -38.71289,-15.578125 1.785631,8.928156 9.533803,16.702685 24.414062,23.25 4.166473,0 6.509766,3.552758 6.509766,10.695313 0,6.547313 -4.762283,11.978553 -14.88086,16.740233 v 5.34766 c 8.332946,2.97605 11.872566,13.05433 11.277344,31.50586 0,14.93308 16.042969,18.71904 16.042969,-4.18555 0,-26.78446 1.891628,-46.965442 5.46289,-61.845703 16.070688,0 27.369678,-4.790611 35.107418,-13.71875 7.73773,-8.928156 14.2896,-13.716797 19.64649,-13.716797 23.49444,0 59.80189,58.39115 -20.22656,97.65039 43.45036,-1.78563 65.44921,-29.76945 65.44922,-83.933593 8.33294,10.118578 12.43945,20.790109 12.43945,31.503903 0,47.84505 -86.23607,97.65235 -135.666018,97.65235 0,-17.26111 -3.014199,-30.94685 -8.371093,-39.875 -5.356894,-8.92816 -7.671874,-24.36198 -7.671875,-46.38477 L 68.472556,98.814174 C 54.310482,90.244103 42.053245,90.357125 27.435547,86.259766 26.397666,85.968847 17.142545,83.85162 15.228516,89.166016 L 16.625,82.189453 c 21.650774,3.936483 30.745486,0.09426 33.945312,-1.277344 L 39.875,54.753906 C 60.707366,34.51675 84.482615,24.412109 110.67188,24.412109 Z m -2.32422,7.091797 c -27.379685,3.571263 -41.037113,10.778893 -41.037113,22.087891 0,10.713786 6.4498,17.280774 18.949219,19.066406 23.808414,-5.356894 35.804684,-13.159733 35.804684,-22.087891 0,-12.499419 -4.78865,-19.066406 -13.71679,-19.066406 z m -73.820316,27.435547 9.53125,19.066406 C 38.946118,81.414153 28.81814,79.164962 19.064453,76.726562 24.421347,67.798406 29.765661,61.915554 34.527344,58.939453 Z"
     id="path1"
     sodipodi:nodetypes="sccsccccccccsccccccscscccscscccsccscccscssccscsccsccccscscsccccc" />
  <use
     x="0"
     y="0"
     xlink:href="#path1"
     id="use6"
     transform="matrix(-1,0,0,1,1399.9062,0)" />
</svg>
