<?xml version="1.0" encoding="UTF-8" standalone="no"?>
<svg
   width="1100"
   height="1000"
   version="1.1"
   id="svg1"
   sodipodi:docname="1421F.svg"
   inkscape:version="1.4.2 (f4327f4, 2025-05-13)"
   xmlns:inkscape="http://www.inkscape.org/namespaces/inkscape"
   xmlns:sodipodi="http://sodipodi.sourceforge.net/DTD/sodipodi-0.dtd"
   xmlns:xlink="http://www.w3.org/1999/xlink"
   xmlns="http://www.w3.org/2000/svg"
   xmlns:svg="http://www.w3.org/2000/svg">
  <defs
     id="defs1" />
  <sodipodi:namedview
     id="namedview1"
     pagecolor="#ffffff"
     bordercolor="#666666"
     borderopacity="1.0"
     inkscape:showpageshadow="2"
     inkscape:pageopacity="0.0"
     inkscape:pagecheckerboard="0"
     inkscape:deskcolor="#d1d1d1"
     inkscape:zoom="0.53386562"
     inkscape:cx="248.1898"
     inkscape:cy="555.38321"
     inkscape:window-width="1680"
     inkscape:window-height="998"
     inkscape:window-x="-8"
     inkscape:window-y="-8"
     inkscape:window-maximized="1"
     inkscape:current-layer="svg1"
     showguides="true">
    <sodipodi:guide
       position="403.84766,440.49023"
       orientation="0,-1"
       id="guide4"
       inkscape:locked="false" />
    <sodipodi:guide
       position="424.70411,440.49023"
       orientation="1,0"
       id="guide5"
       inkscape:locked="false" />
    <sodipodi:guide
       position="424.70412,720.24512"
       orientation="0,-1"
       id="guide6"
       inkscape:locked="false" />
    <sodipodi:guide
       position="599.40177,238.10415"
       orientation="0,-1"
       id="guide7"
       inkscape:locked="false" />
  </sodipodi:namedview>
  <path
     style="fill:#000000;stroke:none;stroke-width:1"
     d="m 403.84766,559.50977 -12.23633,402.66992 c 0,25.21319 10.75244,37.82031 32.25781,37.82031 22.61772,0 33.92578,-12.60712 33.92578,-37.82031 L 445.56055,559.50977 Z"
     id="path4"
     sodipodi:nodetypes="ccsccc" />
  <rect
     style="fill:none;fill-rule:evenodd;stroke:#613583;stroke-width:30;stroke-linecap:round;stroke-miterlimit:2;stroke-dasharray:none"
     id="rect5"
     width="148.09828"
     height="529.51007"
     x="350.655"
     y="14.999999"
     rx="74.049141"
     ry="140.27429" />
  <path
     style="fill:#26a269;stroke:none;stroke-width:1px;stroke-linecap:butt;stroke-linejoin:miter;stroke-opacity:1"
     d="m 403.84766,559.50977 v -19.22499 h 41.7129 v 19.22527 z"
     id="path6" />
  <path
     style="fill:#000000;stroke:none;stroke-width:0.999998"
     d="m 201.90015,41.781278 11.58791,11.587917 4.63516,-38.766861 12.64134,6.320715 -5.6886,44.034043 11.16654,11.166545 5.05657,-38.345453 12.64131,6.320672 -6.10994,43.612713 11.58787,11.587889 4.63519,-38.766832 13.06273,6.742079 -6.10999,43.612675 10.95584,10.95583 5.26724,-38.134778 12.43066,6.110025 -6.10999,43.612673 359.85739,358.59329 -5.05652,-47.19444 3.79242,-3.79242 37.71335,103.86987 -103.44845,-38.13477 3.79242,-3.79243 47.19442,5.05655 -359.22533,-359.22533 -42.9806,5.47793 -6.53141,-12.0093 37.92409,-5.05655 -10.95583,-10.95583 -42.98063,5.47792 -7.16343,-12.64135 38.55613,-4.4245 -11.58788,-11.5879 -42.98064,5.47791 -6.74205,-12.219969 38.13477,-4.845866 -11.16656,-11.166553 -43.40198,5.056564 -6.74208,-12.219987 38.55617,-4.424466 -11.58791,-11.58791 z"
     id="use6" />
  <use
     x="0"
     y="0"
     xlink:href="#use6"
     id="use2"
     transform="matrix(1,0,0,-1,0,559.50976)" />
</svg>
