<?xml version="1.0" encoding="UTF-8" standalone="no"?>
<svg
   width="180"
   height="500"
   version="1.1"
   id="svg1"
   sodipodi:docname="142CC.svg"
   inkscape:version="1.4.2 (f4327f4, 2025-05-13)"
   xml:space="preserve"
   xmlns:inkscape="http://www.inkscape.org/namespaces/inkscape"
   xmlns:sodipodi="http://sodipodi.sourceforge.net/DTD/sodipodi-0.dtd"
   xmlns:xlink="http://www.w3.org/1999/xlink"
   xmlns="http://www.w3.org/2000/svg"
   xmlns:svg="http://www.w3.org/2000/svg"><defs
     id="defs1" /><sodipodi:namedview
     id="namedview1"
     pagecolor="#ffffff"
     bordercolor="#666666"
     borderopacity="1.0"
     inkscape:showpageshadow="2"
     inkscape:pageopacity="0.0"
     inkscape:pagecheckerboard="0"
     inkscape:deskcolor="#d1d1d1"
     inkscape:zoom="0.755"
     inkscape:cx="-235.76159"
     inkscape:cy="247.01987"
     inkscape:window-width="1680"
     inkscape:window-height="998"
     inkscape:window-x="-8"
     inkscape:window-y="-8"
     inkscape:window-maximized="1"
     inkscape:current-layer="svg1"
     showguides="true"><sodipodi:guide
       position="186.09272,339.07284"
       orientation="1,0"
       id="guide1"
       inkscape:locked="false" /><sodipodi:guide
       position="90,500"
       orientation="1,0"
       id="guide2"
       inkscape:locked="false" /><sodipodi:guide
       position="180,0"
       orientation="0,-1"
       id="guide3"
       inkscape:locked="false" /><sodipodi:guide
       position="139.07285,500"
       orientation="0,-1"
       id="guide4"
       inkscape:locked="false" /><sodipodi:guide
       position="423.41992,90.93359"
       orientation="1,0"
       id="guide6"
       inkscape:locked="false" /></sodipodi:namedview><path
     style="fill:none;stroke:#000000;stroke-width:30;stroke-linecap:butt;stroke-linejoin:miter;stroke-dasharray:none;stroke-opacity:1"
     d="M 90,174.43721 V 395.56265"
     id="path5"
     sodipodi:nodetypes="cc" /><path
     style="fill:#000000;stroke:none;stroke-width:1"
     d="m 39.247914,426.86634 7.565324,49.17569 C 52.067136,492.01387 62.049221,500 76.760129,500 L 63.20587,426.86634 C 63.626202,406.90151 72.557072,396.91944 90,396.91944 l 0.265416,-23.82497 c -30.15328,-0.31801 -51.017502,14.96495 -51.017502,53.77187 z"
     id="path6"
     sodipodi:nodetypes="ccccccc" /><use
     x="0"
     y="0"
     xlink:href="#path6"
     id="use6"
     transform="matrix(-1,0,0,1,180,0)" /><path
     id="path1-9"
     style="fill:#000000;stroke:none;stroke-width:1"
     d="m 137.0449,0.03931929 c -4.64299,0.4180634 -8.14715,4.13852041 -10.45435,11.17545971 8.40834,23.174467 -0.39069,46.687812 -26.43644,70.47756 H 90 c -35.684595,0 -61.70143,8.704025 -78.108036,26.136161 -16.4069157,17.63721 -21.3433802,37.51352 -14.78049,59.66258 6.5625803,21.94396 19.761571,32.92559 39.654803,32.92559 19.893242,0 33.879746,-4.59037 41.878023,-13.81914 h 22.71138 c 7.99827,9.22877 21.98478,13.81914 41.87801,13.81914 19.89294,0 33.18729,-10.98163 39.95536,-32.92559 6.76746,-22.14906 1.79654,-42.02537 -15.02106,-59.66258 -12.92027,-13.94569 -29.12416,-22.17308 -48.60702,-24.634086 14.35567,-11.484716 24.45441,-24.39777 30.40204,-38.75365 6.15252,-14.150787 6.15252,-27.254507 0,-39.3544746 C 144.93826,1.407608 140.6564,-0.28593341 137.04488,0.03931929 Z M 90,100.73868 c 26.45582,0 46.67822,6.14052 60.62381,18.44555 14.15079,12.09993 18.93191,25.45443 14.41996,40.01538 -4.30676,14.76604 -13.48754,22.17068 -27.63832,22.17068 -11.89467,0 -20.75429,-3.19562 -26.49643,-9.55323 -5.53726,-6.15252 -12.500692,-9.44345 -20.90902,-9.85362 -8.408649,0.41007 -15.371752,3.7011 -20.909018,9.85362 -5.742457,6.35761 -14.541781,9.55323 -26.436436,9.55323 -14.150785,0 -23.391862,-7.40464 -27.698633,-22.17068 -4.51163,-14.56095 0.276864,-27.91545 14.419958,-40.01538 C 43.321786,106.8792 63.544178,100.73868 90,100.73868 Z"
     sodipodi:nodetypes="sccsccsccscccccssscscccsccss" /><path
     style="fill:none;stroke:#613583;stroke-width:20;stroke-linecap:butt;stroke-linejoin:miter;stroke-dasharray:none;stroke-opacity:1"
     d="M 19.411818,439.07309 H 160.58818"
     id="path9" /></svg>
