<?xml version="1.0" encoding="UTF-8" standalone="no"?>
<svg
   width="1100"
   height="1000"
   version="1.1"
   id="svg1"
   sodipodi:docname="142E3.svg"
   inkscape:version="1.4.2 (f4327f4, 2025-05-13)"
   xmlns:inkscape="http://www.inkscape.org/namespaces/inkscape"
   xmlns:sodipodi="http://sodipodi.sourceforge.net/DTD/sodipodi-0.dtd"
   xmlns:xlink="http://www.w3.org/1999/xlink"
   xmlns="http://www.w3.org/2000/svg"
   xmlns:svg="http://www.w3.org/2000/svg">
  <defs
     id="defs1" />
  <sodipodi:namedview
     id="namedview1"
     pagecolor="#ffffff"
     bordercolor="#666666"
     borderopacity="1.0"
     inkscape:showpageshadow="2"
     inkscape:pageopacity="0.0"
     inkscape:pagecheckerboard="0"
     inkscape:deskcolor="#d1d1d1"
     inkscape:zoom="0.53386562"
     inkscape:cx="535.71534"
     inkscape:cy="345.59259"
     inkscape:window-width="1680"
     inkscape:window-height="998"
     inkscape:window-x="-8"
     inkscape:window-y="-8"
     inkscape:window-maximized="1"
     inkscape:current-layer="svg1"
     showguides="true">
    <sodipodi:guide
       position="85.650724,230.25583"
       orientation="0,-1"
       id="guide1"
       inkscape:locked="false" />
    <sodipodi:guide
       position="85.650724,61.17908"
       orientation="0,-1"
       id="guide2"
       inkscape:locked="false" />
    <sodipodi:guide
       position="103.44828,903.22581"
       orientation="1,0"
       id="guide3"
       inkscape:locked="false" />
    <sodipodi:guide
       position="841.49023,903.22657"
       orientation="1,0"
       id="guide4"
       inkscape:locked="false" />
    <sodipodi:guide
       position="170.48664,145.71747"
       orientation="0,-1"
       id="guide6"
       inkscape:locked="false" />
    <sodipodi:guide
       position="96.032208,871.66432"
       orientation="0,-1"
       id="guide9"
       inkscape:locked="false" />
    <sodipodi:guide
       position="95.369956,858.75041"
       orientation="0,-1"
       id="guide10"
       inkscape:locked="false" />
    <sodipodi:guide
       position="100.74503,782.28477"
       orientation="1,0"
       id="guide12"
       inkscape:locked="false" />
  </sodipodi:namedview>
  <path
     style="fill:#000000;stroke:none;stroke-width:1"
     d="m 407.11914,0 c 7.78643,30.033371 11.67923,58.39844 11.12305,83.982422 H 139.59961 c -12.792,0 -25.5831,5.004586 -36.15039,12.791016 -10.567302,8.342602 -18.354918,19.466292 -20.023439,32.814452 l 17.242189,2.22461 c 0.55617,-7.78643 5.56122,-15.57303 13.34765,-21.13477 7.23028,-6.11791 17.24138,-9.45507 25.58399,-9.45507 h 277.53125 c -0.55618,7.23026 -1.6689,13.90599 -2.78125,20.58007 H 160.17773 c -17.24138,0 -31.14559,1.66716 -41.71289,10.00977 -10.01112,7.78643 -14.46093,21.13557 -14.46093,38.37695 h 17.24218 c 0,-15.01669 2.78155,-21.13412 7.78711,-25.02734 5.00556,-3.89321 15.01549,-6.11914 31.14453,-6.11914 h 249.72266 c -0.55617,3.33704 -1.6689,6.11757 -2.78125,8.89844 -5.56173,4.44939 -11.12382,10.01146 -16.68555,16.68554 -5.00556,7.23026 -2.22503,12.23616 8.89844,16.68555 11.12348,3.89322 20.02218,17.79742 27.80859,41.71289 7.78643,23.35928 13.90562,35.03906 17.79883,35.03906 v 22.2461 l -81.75781,-45.04883 -40.60156,682.42383 h -87.875 L 234.14844,1000 h 473.86133 l -1.11329,-83.42578 h -87.875 l -39.48828,-681.3125 -82.87109,45.04883 v -22.2461 c 3.89322,0 10.0124,-11.67978 17.79883,-35.03906 7.78642,-23.91547 16.68512,-37.81967 27.80859,-41.71289 11.12347,-4.44939 13.904,-9.45529 8.89844,-16.68555 -5.56174,-6.67408 -11.67991,-12.23615 -18.91016,-16.68554 -1.11235,-2.78087 -1.66843,-5.5614 -2.22461,-8.89844 h 254.72852 c 16.12903,0 26.13897,2.22593 31.14453,6.11914 5.00556,3.89322 7.78711,10.01065 7.78711,25.02734 l 17.24023,-1e-5 c 0,-17.24138 -3.89169,-30.59052 -14.45898,-38.37695 -10.5673,-8.34261 -24.47151,-10.00977 -41.71289,-10.00977 H 526.69727 c -0.55617,-6.67408 -1.6704,-13.34981 -2.22657,-20.58007 h 280.86914 c 8.3426,0 18.35374,3.33716 25.58399,9.45507 7.78643,5.56174 12.79148,13.34834 13.34765,21.13477 l 17.24219,-2.22461 c -1.66852,-13.34816 -9.45614,-24.47185 -20.02344,-32.814452 -10.5673,-7.786429 -23.3584,-12.791016 -36.15039,-12.791016 H 523.91602 C 523.91602,58.39844 526.1399,30.033371 532.25781,0 Z m 36.70703,26.697266 h 53.94922 c -3.33704,16.685206 -5.00586,35.0383 -5.00586,55.060546 0,20.578418 1.66882,40.044238 5.00586,57.841798 -8.89878,-2.2247 -18.35318,-3.33789 -27.25195,-3.33789 -9.45495,0 -18.35365,1.11319 -27.8086,3.33789 3.89321,-17.79756 6.11719,-37.26338 6.11719,-57.841798 0,-20.022247 -1.66882,-38.37534 -5.00586,-55.060546 z m 27.25195,137.373044 c 8.34261,0 16.6867,0.55608 25.0293,2.22461 16.6852,3.33704 21.13409,6.67421 13.34766,9.45508 -7.78643,2.78086 -15.01733,13.90501 -21.69141,33.37109 -6.11791,20.02224 -12.23616,29.47657 -16.68555,29.47657 -5.00556,0 -11.12232,-9.45433 -17.24023,-29.47657 -6.67408,-19.46608 -13.90498,-30.59023 -21.69141,-33.37109 -7.78643,-2.78087 -3.33755,-6.11804 13.34766,-9.45508 8.3426,-1.66853 16.68522,-2.22461 25.58398,-2.22461 z m -72.30078,127.36524 57.28516,30.58984 v 595.66016 h -90.65625 z m 145.7168,0 32.81445,626.25 H 486.65234 V 322.02539 Z M 255.2832,942.1582 H 686.875 v 36.15039 H 255.83984 Z"
     id="path1"
     sodipodi:nodetypes="ccsccccsccscccssccccccccccccccccccccccsscccsccsccccscccccscscscssscscsssccccccccccccccc" />
  <g
     id="g12">
    <circle
       style="fill:none;stroke:#613583;stroke-width:35;stroke-miterlimit:2;stroke-dasharray:none"
       id="path4"
       cx="100.74503"
       cy="854.28253"
       r="67.038361" />
    <path
       style="fill:none;stroke:#813d9c;stroke-width:25;stroke-linecap:butt;stroke-linejoin:miter;stroke-dasharray:none;stroke-opacity:1"
       d="M 28.91597,854.28253 95.018744,141.24959 h 8.429536 2.42495 l 66.60362,713.03296"
       id="path6"
       sodipodi:nodetypes="ccccc" />
  </g>
  <use
     x="0"
     y="0"
     xlink:href="#g12"
     id="use12"
     transform="matrix(-1,0,0,1,944.93851,0)" />
  <path
     style="fill:none;stroke:#613583;stroke-width:20;stroke-linecap:butt;stroke-linejoin:miter;stroke-dasharray:none;stroke-opacity:1"
     d="M 695.73999,323.18942 V 128.33568"
     id="path12" />
  <path
     d="m 737.70148,336.16302 -7.70307,8.91936 c -10.94648,-3.24338 -22.29839,-4.45966 -33.24488,-4.45966 -11.35188,0 -22.29836,1.21628 -34.05569,4.45966 l -7.29765,-8.91936 z M 622.1553,374.27299 c 7.70309,2.43256 12.16277,5.27055 14.18991,8.51395 v 5.27052 L 622.1553,377.92183 Z m 148.38563,0 v 3.64884 l -13.78446,10.13563 v -5.27052 c 1.62171,-3.2434 5.67595,-6.08139 13.78446,-8.51395 z m -73.38197,-1.62169 c -20.67668,0 -35.27198,8.51395 -43.3805,23.10925 0,5.67595 2.02714,9.73019 6.4868,11.3519 9.32478,-14.18988 22.29839,-21.48755 36.8937,-21.48755 13.78447,0 24.73095,7.29767 34.05573,21.48755 5.27052,-1.62171 7.70309,-5.67595 7.70309,-11.3519 -8.10851,-14.5953 -21.48754,-23.10925 -41.75882,-23.10925 z m 0,-20.27125 c 26.75807,0 42.16424,10.54106 46.62392,30.40689 -3.2434,49.46186 -7.29767,74.1928 -12.56819,76.21993 -4.45969,-29.19061 -16.21701,-42.97508 -34.05573,-42.97508 -18.24412,0 -30.00146,13.78447 -35.67742,42.97508 -4.86509,-2.02713 -8.91933,-26.75807 -12.56815,-76.21993 5.2705,-19.86583 21.08208,-30.40689 48.24557,-30.40689 z m 0,72.5711 c 11.35191,0 20.27128,14.18989 25.13638,42.97507 -4.05425,6.48682 -12.5682,10.13565 -25.13638,10.13565 -12.9736,0 -22.29838,-3.64883 -26.75806,-10.13565 5.67595,-28.78518 14.59532,-42.97507 26.75806,-42.97507 z m -11.3519,-101.76173 h -47.02932 v 12.9736 l 10.13565,15.00075 c -4.05427,1.21628 -7.29767,6.48678 -10.13565,16.62244 -2.83797,-2.83799 -12.97361,-3.64883 -29.19061,-3.64883 v 21.48752 c 17.02785,10.9465 25.94721,21.08212 26.75808,29.19062 l 7.29766,41.75879 c 3.64882,22.70381 21.89294,34.05573 53.51611,34.05573 30.81232,0 47.84018,-11.35192 51.89443,-34.05573 l 7.7031,-41.75879 c 1.21627,-8.1085 8.91932,-18.24412 25.13634,-29.19062 v -21.48752 c -16.21702,0 -24.73092,0.81084 -27.97433,3.64883 -2.83798,-10.13566 -7.29765,-15.40616 -11.35191,-16.62244 l 11.35191,-15.00075 v -12.9736 h -46.6239"
     style="fill:#000000;stroke:none;stroke-width:1"
     id="path1-9" />
  <text
     xml:space="preserve"
     style="font-size:48px;line-height:1.25;font-family:Ubuntu;-inkscape-font-specification:Ubuntu;letter-spacing:0px;word-spacing:0px;fill:#e01b24"
     x="899.55725"
     y="58.067047"
     id="text1"><tspan
       sodipodi:role="line"
       id="tspan1"
       x="899.55725"
       y="58.067047"
       style="font-style:normal;font-variant:normal;font-weight:bold;font-stretch:normal;font-size:48px;font-family:Ubuntu;-inkscape-font-specification:'Ubuntu Bold'">1. Ungroup!!</tspan><tspan
       sodipodi:role="line"
       x="899.55725"
       y="118.06705"
       id="tspan2"
       style="font-style:normal;font-variant:normal;font-weight:bold;font-stretch:normal;font-size:48px;font-family:Ubuntu;-inkscape-font-specification:'Ubuntu Bold'">2. As usual</tspan><tspan
       sodipodi:role="line"
       x="899.55725"
       y="178.06705"
       id="tspan3"
       style="font-style:normal;font-variant:normal;font-weight:bold;font-stretch:normal;font-size:48px;font-family:Ubuntu;-inkscape-font-specification:'Ubuntu Bold'">3. Hand-simplify ends</tspan></text>
</svg>
