<?xml version="1.0" encoding="UTF-8" standalone="no"?>
<svg
   width="1100"
   height="900"
   version="1.1"
   id="svg1"
   sodipodi:docname="142F6.svg"
   inkscape:version="1.4.2 (f4327f4, 2025-05-13)"
   xmlns:inkscape="http://www.inkscape.org/namespaces/inkscape"
   xmlns:sodipodi="http://sodipodi.sourceforge.net/DTD/sodipodi-0.dtd"
   xmlns="http://www.w3.org/2000/svg"
   xmlns:svg="http://www.w3.org/2000/svg">
  <defs
     id="defs1" />
  <sodipodi:namedview
     id="namedview1"
     pagecolor="#ffffff"
     bordercolor="#666666"
     borderopacity="1.0"
     inkscape:showpageshadow="2"
     inkscape:pageopacity="0.0"
     inkscape:pagecheckerboard="0"
     inkscape:deskcolor="#d1d1d1"
     inkscape:zoom="0.83888889"
     inkscape:cx="234.83444"
     inkscape:cy="383.24503"
     inkscape:window-width="1680"
     inkscape:window-height="998"
     inkscape:window-x="-8"
     inkscape:window-y="-8"
     inkscape:window-maximized="1"
     inkscape:current-layer="svg1"
     showguides="true">
    <sodipodi:guide
       position="162.89028,882.1588"
       orientation="0,-1"
       id="guide1"
       inkscape:locked="false" />
    <sodipodi:guide
       position="102.05174,388.091"
       orientation="1,0"
       id="guide2"
       inkscape:locked="false" />
    <sodipodi:guide
       position="227.89919,310.38533"
       orientation="1,0"
       id="guide3"
       inkscape:locked="false" />
    <sodipodi:guide
       position="0,388.091"
       orientation="0,-1"
       id="guide4"
       inkscape:locked="false" />
    <sodipodi:guide
       position="23.550401,364.54059"
       orientation="0,-1"
       id="guide5"
       inkscape:locked="false" />
  </sodipodi:namedview>
  <path
     style="fill:#000000;stroke:none;stroke-width:1"
     d="m 1076.4496,535.45941 v 40.72257 H 23.550401 v -40.72257 z m -794.82605,166.32471 -10.30329,11.28457 c -14.22838,-3.92507 -28.45674,-5.88761 -43.17574,-5.88761 -14.22837,0 -28.94737,1.96254 -43.66637,5.88761 l -10.30331,-11.28457 z m -149.15254,48.08207 c 9.81267,3.43443 16.1909,7.3595 18.64407,11.7752 v 6.86886 l -18.64407,-13.73773 z m 191.83765,0 v 4.90633 l -19.62533,13.73773 v -6.86886 c 2.45316,-4.4157 9.32202,-8.34077 19.62533,-11.7752 z m -95.67351,-0.98127 c -26.49421,0 -44.64763,9.32204 -55.44157,28.45673 0,7.35951 2.9438,12.26584 8.8314,14.71901 12.26583,-18.15344 27.9661,-27.47548 46.61017,-27.47548 17.6628,0 32.87243,9.32204 45.13827,27.47548 6.37824,-2.45317 9.81267,-7.3595 9.81267,-14.71901 -10.30331,-19.13469 -28.94737,-28.45673 -54.95094,-28.45673 z m 0,-26.98483 c 34.34434,0 54.95094,12.75647 60.83853,38.76003 -4.90632,63.2917 -10.30329,96.65477 -16.68153,99.10795 -5.88759,-37.77877 -20.6066,-56.42285 -44.157,-56.42285 -23.05976,0 -38.26941,18.64408 -45.13827,56.42285 -6.86886,-2.45318 -12.26583,-35.81625 -17.17217,-99.10795 6.86887,-26.00356 27.47547,-38.76003 62.31044,-38.76003 z m 0,93.22033 c 15.20963,0 26.00357,18.64408 32.3818,55.44158 -5.39696,8.34076 -15.70027,12.75647 -32.3818,12.75647 -16.68153,0 -27.9661,-4.41571 -33.8537,-12.75647 7.35949,-36.7975 18.64407,-55.44158 33.8537,-55.44158 z M 0,511.909 v 87.82338 h 219.31311 v 84.87957 h -65.25423 v 15.70027 l 13.73774,20.6066 c -5.39697,1.4719 -9.81268,8.34077 -13.73774,21.09724 -3.92507,-3.43444 -16.1909,-5.39698 -37.28814,-5.39698 v 27.9661 c 22.07851,14.22838 33.36307,26.49421 34.34434,37.28814 l 9.81266,53.96967 c 4.4157,29.438 26.98484,44.15701 67.70741,44.15701 39.7413,0 62.31044,-14.71901 67.21677,-44.15701 l 8.83141,-53.96967 c 1.96252,-10.79393 13.2471,-23.05976 34.34432,-37.28814 v -27.9661 c -21.09722,0 -33.36307,1.96254 -37.28813,5.39698 -3.92507,-12.75647 -8.34077,-19.62534 -13.73773,-21.09724 l 13.73773,-20.6066 v -15.70027 h -64.7636 V 599.73238 H 1100 V 511.909 Z"
     id="path1"
     sodipodi:nodetypes="cccccccscccccccccccccsccsccssccsccsscscsccccccccccccsccccccccccccc" />
  <path
     style="fill:none;stroke:#613583;stroke-width:20;stroke-linecap:butt;stroke-linejoin:miter;stroke-opacity:1;stroke-dasharray:none"
     d="m 227.89919,689.9834 0,-100.36873"
     id="path2"
     sodipodi:nodetypes="cc" />
  <path
     style="fill:none;stroke:#613583;stroke-width:23;stroke-linecap:butt;stroke-linejoin:miter;stroke-dasharray:none;stroke-opacity:1"
     d="m 227.89919,521.181 0,-503.3398"
     id="path3"
     sodipodi:nodetypes="cc" />
  <rect
     style="fill:none;stroke:#613583;stroke-width:23;stroke-linejoin:miter;stroke-miterlimit:2;stroke-dasharray:none"
     id="rect4"
     width="228.6949"
     height="495.08749"
     x="113.55174"
     y="28.871902" />
</svg>
