<?xml version="1.0" encoding="UTF-8" standalone="no"?>
<svg
   width="150"
   height="200"
   id="svg1320"
   sodipodi:version="0.32"
   inkscape:version="1.4.2 (f4327f4, 2025-05-13)"
   sodipodi:docname="14330.svg"
   version="1.1"
   xmlns:inkscape="http://www.inkscape.org/namespaces/inkscape"
   xmlns:sodipodi="http://sodipodi.sourceforge.net/DTD/sodipodi-0.dtd"
   xmlns:xlink="http://www.w3.org/1999/xlink"
   xmlns="http://www.w3.org/2000/svg"
   xmlns:svg="http://www.w3.org/2000/svg"
   xmlns:rdf="http://www.w3.org/1999/02/22-rdf-syntax-ns#"
   xmlns:cc="http://creativecommons.org/ns#"
   xmlns:dc="http://purl.org/dc/elements/1.1/">
  <metadata
     id="metadata1327">
    <rdf:RDF>
      <cc:Work
         rdf:about="">
        <dc:format>image/svg+xml</dc:format>
        <dc:type
           rdf:resource="http://purl.org/dc/dcmitype/StillImage" />
      </cc:Work>
    </rdf:RDF>
  </metadata>
  <defs
     id="defs1325" />
  <sodipodi:namedview
     inkscape:window-height="998"
     inkscape:window-width="1680"
     inkscape:pageshadow="2"
     inkscape:pageopacity="0.0"
     borderopacity="1.0"
     bordercolor="#666666"
     pagecolor="#ffffff"
     id="base"
     inkscape:zoom="1.8339038"
     inkscape:cx="-31.899165"
     inkscape:cy="90.789931"
     inkscape:window-x="-8"
     inkscape:window-y="-8"
     inkscape:current-layer="svg1320"
     inkscape:showpageshadow="2"
     inkscape:pagecheckerboard="0"
     inkscape:deskcolor="#d1d1d1"
     inkscape:window-maximized="1" />
  <path
     style="fill:none;stroke:#613583;stroke-width:8;stroke-linecap:butt;stroke-linejoin:miter;stroke-dasharray:none;stroke-opacity:1"
     d="M 36.353351,200 V 80.773964 c 0,-18.392859 12.789517,-29.872287 37.673676,-29.872287"
     id="path2"
     sodipodi:nodetypes="csc" />
  <use
     x="0"
     y="0"
     xlink:href="#path2"
     id="use3"
     transform="matrix(-1,0,0,1,148.05406,0)"
     style="stroke-width:14;stroke-dasharray:none" />
  <g
     id="g1364"
     transform="matrix(8.6594257,0,0,8.6594257,0.01634209,3.9974937)"
     style="stroke-width:0.165028">
    <path
       id="path1322"
       d="m 1.640469,0.747039 c -0.204456,0 -0.707051,0.242229 -0.235765,0.244355 0.076959,3.48e-4 0.246807,0.023378 0.372639,0.023378 0.150089,0 0.237555,-0.032766 0.030074,-0.175869 C 1.757197,0.804265 1.711827,0.74906 1.647702,0.747145 1.645335,0.747074 1.642924,0.747039 1.640469,0.747039 Z M 1.719595,0.584882 c 0.0083,0 0.014135,3.57e-4 0.017185,0.001059 0.363364,0.083676 0.649926,0.38952 1.027474,0.494715 0.317708,0.088522 0.839507,0.206505 0.730508,0.67153 -0.14545,0.620539 -0.56271,1.221131 -0.431913,1.870594 0.081843,0.406388 0.535148,0.441943 0.901212,0.441943 0.060935,0 0.119452,-9.86e-4 0.173437,-0.00141 2.39152,-0.01878 4.290411,-0.119532 5.813884,-0.119532 2.498118,0 3.986811,0.2709 4.982858,1.618317 1.651896,2.234628 1.086529,4.469828 0.675618,7.291358 0.115011,-1.664837 0.667207,-4.287389 -1.044254,-6.552413 -0.723068,-0.95694 -1.948754,-1.35893 -3.076592,-1.643426 -0.517505,-0.130539 -1.209448,-0.17609 -1.972409,-0.17609 -1.76235,0 -3.903614,0.243037 -5.149137,0.243037 C 4.071164,4.724564 3.825555,4.710809 3.6478,4.676757 3.167939,4.584829 2.825558,3.993697 2.867768,3.503374 2.923742,2.853152 3.436438,2.24954 3.24402,1.592925 3.158432,1.300864 2.903756,1.235099 2.626662,1.235099 c -0.198299,0 -0.408078,0.033681 -0.575584,0.042207 -0.180781,0.0092 -0.35831,0.034968 -0.531793,0.034968 -0.229286,0 -0.451503,-0.045008 -0.664816,-0.232748 C 0.448209,0.72197 1.556904,0.584882 1.719595,0.584882 Z M 1.774543,0 C 1.762079,0 1.749494,3.03e-4 1.73678,9.22e-4 1.209279,0.02662 0.678991,0.188771 0.222262,0.454288 -0.254711,0.731574 0.128473,1.269131 0.451235,1.50634 c 0.297198,0.218419 0.631041,0.422738 1.005069,0.422738 0.072128,0 0.145749,-0.0076 0.220891,-0.024158 0.190788,-0.042047 0.527749,-0.121426 0.758034,-0.121426 0.135381,0 0.233894,0.027434 0.244163,0.106017 C 2.763934,2.536479 2.074382,3.321484 2.352553,4.069078 2.580647,4.682086 3.102765,5.23864 3.800788,5.288973 4.1064,5.31101 4.411599,5.320352 4.716501,5.320352 c 1.608451,0 3.208594,-0.259969 4.816953,-0.287561 0.051326,-8.74e-4 0.102239,-0.00131 0.15274,-0.00131 3.081603,0 4.6319,1.609386 4.985207,2.609076 0.342195,0.968253 0.589041,1.982475 0.502397,3.013406 -0.104249,1.240426 -0.286583,2.491963 -0.184987,3.733013 0.08962,1.094718 0.469897,2.156523 0.729622,3.218359 0.06067,0.248047 0.236446,0.372078 0.400992,0.372078 0.179825,0 0.346241,-0.148134 0.334362,-0.444429 -0.05394,-1.368048 -0.368784,-2.537133 -0.332655,-3.799055 0.03106,-1.084546 0.308807,-2.1286 0.372763,-3.216396 C 16.568052,9.256249 16.91913,5.00818 13.478491,3.771507 12.488346,3.415618 11.232403,3.319179 9.900947,3.319179 c -1.575429,0 -3.256579,0.13502 -4.72823,0.13502 -0.550282,0 -1.071274,-0.018878 -1.546493,-0.070753 C 3.815782,2.708374 4.178362,2.119766 4.093951,1.415778 4.027245,0.859451 3.419009,0.651319 2.956315,0.524943 2.524563,0.407018 2.231628,0 1.774543,0 Z"
       style="fill:#000000;stroke:none;stroke-width:0.165028" />
    <path
       sodipodi:nodetypes="ccssccccccccccsscc"
       id="path1354"
       d="m 13.510834,3.8796408 0.898661,-3.34989801 c 0.289852,-0.80712855 0.741487,-1.12009211 1.354905,-0.93889062 0.613419,0.18120145 0.893504,0.52540185 0.840257,1.03260227 C 16.551409,1.1306554 16.294925,1.4028564 15.835205,1.4400585 L 15.70795,4.6059997 C 15.05199,3.9616696 14.614583,3.7049352 14.395728,3.8357965 l -0.139135,0.4298119 c -0.005,0.066265 -0.909173,-0.3021342 -0.745759,-0.3859676 z m 0.313239,0.1098041 0.144173,0.092054 0.121763,-0.5085546 c 0.488148,-0.1994499 0.929667,-0.090423 1.324557,0.3270811 l 0.0713,-2.7957702 c 0.425626,0.016196 0.678737,-0.1153423 0.759335,-0.39461356 0.0806,-0.27927123 -0.07185,-0.52318213 -0.457336,-0.73173325 -0.385489,-0.20855114 -0.730304,-0.0040249 -1.034446,0.61357993 z"
       style="fill:#000000;stroke:none;stroke-width:0.165028" />
  </g>
</svg>
