<svg xmlns="http://www.w3.org/2000/svg" xmlns:xlink="http://www.w3.org/1999/xlink" version="1.1" baseProfile="full" viewBox="0 0 200 200" width="200" height="200">
<g fill="black">
<path d="M 155.9 181.4 L 146.6 177.7 L 137.9 173.6 L 130.0 169.0 L 122.9 163.9 L 116.5 158.5 L 110.9 152.5 L 106.3 146.1 L 104.20888385772705 142.1501138687134 L 101.4 149.3 L 96.4 156.8 L 89.6 163.4 L 81.3 169.2 L 71.4 174.3 L 60.0 178.8 L 47.0 182.5 L 32.3 185.5 L 16.1 187.8 L 15.8 186.1 L 31.5 181.9 L 45.4 177.4 L 57.6 172.6 L 68.0 167.6 L 76.6 162.2 L 83.4 156.5 L 88.4 150.6 L 91.8 144.6 L 93.15737705230713 140.0 L 18.0 140.0 L 18.0 136.0 L 93.75384616851807 136.0 L 94.0 132.0 L 94.0 118.0 L 42.0 118.0 L 42.0 121.0 L 30.0 127.0 L 30.0 27.0 L 42.0 29.0 L 45.0 31.0 L 42.0 32.8 L 42.0 114.0 L 94.0 114.0 L 100.0 109.0 L 111.0 118.0 L 106.0 122.0 L 106.0 132.0 L 105.41573038101197 136.0 L 160.0 136.0 L 170.0 126.0 L 182.0 136.0 L 182.0 140.0 L 106.0 140.0 L 109.5 143.5 L 115.1 148.4 L 121.1 152.9 L 127.6 157.0 L 134.6 160.8 L 142.3 164.3 L 150.6 167.4 L 159.5 170.1 L 169.0 172.5 L 179.3 174.5 L 188.4 176.3 L 176.6 187.4 L 165.9 184.6 Z M 48.0 96.0 L 104.0 96.0 L 104.0 78.0 L 58.0 78.0 L 58.0 74.0 L 104.0 74.0 L 104.0 57.0 L 116.0 59.0 L 119.0 61.0 L 116.0 62.8 L 116.0 74.0 L 147.8181818008423 74.0 L 156.0 65.0 L 166.0 74.0 L 166.0 78.0 L 116.0 78.0 L 116.0 96.0 L 161.8181818008423 96.0 L 170.0 87.0 L 180.0 96.0 L 180.0 100.0 L 48.0 100.0 Z M 52.0 52.0 L 104.0 52.0 L 104.0 34.0 L 64.0 34.0 L 64.0 30.0 L 104.0 30.0 L 104.0 13.0 L 116.0 15.0 L 119.0 17.0 L 116.0 18.8 L 116.0 30.0 L 140.0 30.0 L 150.0 20.0 L 162.0 30.0 L 162.0 34.0 L 116.0 34.0 L 116.0 52.0 L 157.8181818008423 52.0 L 166.0 43.0 L 176.0 52.0 L 176.0 56.0 L 52.0 56.0 Z "/>
</g>
</svg>