<svg xmlns="http://www.w3.org/2000/svg" xmlns:xlink="http://www.w3.org/1999/xlink" version="1.1" baseProfile="full" viewBox="0 0 200 200" width="200" height="200">
<g fill="black">
<path d="M 53.8 15.0 L 56.8 17.0 L 53.8 18.8 L 53.8 85.0 L 66.6 85.0 L 66.6 32.0 L 78.6 34.0 L 81.6 36.0 L 78.6 37.8 L 78.6 93.0 L 66.6 99.0 L 66.6 89.0 L 53.8 89.0 L 53.8 166.0 L 68.2 166.0 L 68.2 113.0 L 80.2 115.0 L 83.2 117.0 L 80.2 118.8 L 80.2 170.0 L 68.2 176.0 L 68.2 170.0 L 27.4 170.0 L 27.4 182.0 L 15.4 188.0 L 15.4 113.0 L 27.4 115.0 L 30.4 117.0 L 27.4 118.8 L 27.4 166.0 L 41.8 166.0 L 41.8 89.0 L 29.1 89.0 L 29.1 96.0 L 17.1 102.0 L 17.1 32.0 L 29.1 34.0 L 32.1 36.0 L 29.1 37.8 L 29.1 85.0 L 41.8 85.0 L 41.8 13.0 Z M 165.5 173.1 L 160.1 165.9 L 156.25218133926393 159.5961268424988 L 149.4 167.4 L 141.6 174.6 L 133.1 180.6 L 124.0 185.3 L 114.3 188.8 L 113.6 187.1 L 122.2 182.0 L 130.0 176.2 L 137.2 169.7 L 143.7 162.4 L 149.7 154.2 L 151.62816801071168 150.92575254440308 L 151.2 150.1 L 147.7 141.6 L 144.7 132.6 L 142.5 123.2 L 141.0 113.3 L 140.3 103.1 L 140.9 103.0 L 135.0 103.0 L 135.0 101.3 L 130.5 104.0 L 129.4362880706787 104.44321327209472 L 127.6 113.1 L 124.2 125.4 L 120.1 136.7 L 119.75573949813842 137.45444326400758 L 124.0 141.6 L 127.6 146.0 L 130.7 150.4 L 133.1 155.0 L 134.9 159.7 L 134.1 164.2 L 130.4 166.9 L 125.9 166.1 L 123.2 162.4 L 122.5 159.0 L 121.2 155.4 L 119.3 151.6 L 116.8 147.5 L 115.77001676559448 146.18911218643188 L 115.4 147.0 L 109.9 156.4 L 103.9 164.7 L 97.1 172.0 L 89.8 178.1 L 81.8 183.1 L 73.2 186.8 L 72.4 185.1 L 79.7 179.9 L 86.3 174.0 L 92.3 167.5 L 97.8 160.2 L 102.6 152.0 L 106.9 143.0 L 108.83332252502441 138.01406297683715 L 105.2 134.3 L 100.1 129.5 L 94.3 124.5 L 88.1 119.2 L 89.0 117.7 L 96.5 121.4 L 103.3 125.2 L 109.4 129.2 L 111.42877941131592 130.74036951065062 L 113.9 122.4 L 116.5 110.7 L 118.02755908966064 101.0 L 85.1 101.0 L 85.1 97.0 L 118.5 97.0 L 124.5 92.0 L 135.0 100.59090909957885 L 135.0 99.0 L 170.1 99.0 L 176.1 94.0 L 187.1 103.0 L 182.1 106.0 L 180.68833446502686 106.58819398880004 L 178.2 115.6 L 173.9 128.0 L 168.8 139.4 L 163.0 149.8 L 162.52238807678222 150.50149250030518 L 164.0 152.8 L 169.0 159.3 L 174.3 165.3 L 180.1 170.8 L 186.4 175.8 L 188.9 177.9 L 178.0 186.1 L 171.5 179.8 Z M 142.16185569763184 103.0 L 145.1 112.5 L 148.2 121.6 L 151.6 130.2 L 155.3 138.2 L 156.91580028533934 141.12382917404176 L 159.7 135.2 L 163.8 124.3 L 167.3 112.5 L 169.45234375 103.0 Z M 168.5 74.8 L 166.3 71.3 L 163.5 67.6 L 161.1119610786438 64.93101530075073 L 160.5 65.8 L 155.2 72.4 L 149.4 78.3 L 143.1 83.5 L 136.4 88.0 L 129.3 91.7 L 128.3 90.2 L 134.1 85.0 L 139.5 79.5 L 144.6 73.8 L 149.2 67.6 L 153.5 61.1 L 154.86954736709595 58.70329217910766 L 151.5 55.7 L 146.4 51.4 L 140.7 47.0 L 134.5 42.2 L 135.4 40.7 L 142.6 43.7 L 149.3 46.9 L 155.3 50.4 L 158.32757005691528 52.32663555145264 L 161.0 46.6 L 164.2 38.7 L 167.0 30.3 L 168.41333332061768 25.0 L 135.5 25.0 L 130.5 28.0 L 129.48784761428834 28.42173013687134 L 128.7 32.5 L 126.4 40.9 L 123.4 48.9 L 119.91701240539551 56.15622406005859 L 122.9 58.5 L 126.5 62.0 L 129.6 65.6 L 132.0 69.4 L 133.8 73.5 L 133.2 78.0 L 129.6 80.8 L 125.1 80.2 L 122.2 76.7 L 121.7 74.2 L 120.5 71.4 L 118.7 68.3 L 116.3 65.0 L 115.39873418807983 64.01424055099487 L 110.9 70.2 L 105.5 76.4 L 99.5 82.1 L 92.8 87.2 L 85.6 91.7 L 84.5 90.2 L 90.4 84.3 L 95.7 78.3 L 100.4 72.2 L 104.6 65.9 L 108.3 59.3 L 109.07112588882447 57.60849800109863 L 105.0 54.0 L 99.9 50.0 L 94.3 45.7 L 88.2 41.2 L 89.0 39.6 L 96.2 42.5 L 102.8 45.5 L 108.7 48.6 L 112.06167497634888 50.69311838150024 L 114.0 45.4 L 116.0 38.0 L 117.5 30.3 L 118.1543210029602 25.0 L 86.8 25.0 L 86.8 21.0 L 118.5 21.0 L 124.5 16.0 L 135.0 24.59090909957886 L 135.0 21.0 L 169.2 21.0 L 175.2 16.0 L 186.2 25.0 L 181.2 28.0 L 179.60083684921264 28.666318035125734 L 177.8 33.9 L 174.1 42.7 L 170.0 51.0 L 166.03913736343384 57.77747602462769 L 170.1 61.1 L 174.0 64.9 L 177.4 68.8 L 180.2 72.8 L 182.4 77.0 L 182.2 81.6 L 178.9 84.8 L 174.3 84.5 L 171.2 81.2 L 170.1 78.1 Z " />
</g>
</svg>
