<svg xmlns="http://www.w3.org/2000/svg" xmlns:xlink="http://www.w3.org/1999/xlink" version="1.1" baseProfile="full" viewBox="0 0 200 200" width="200" height="200">
<g fill="black">
<path d="M 77.4 18.2 L 79.4 21.2 L 75.7593490600586 21.702158737182618 L 72.2 29.3 L 66.8 40.2 L 61.1 50.8 L 55.1 61.2 L 48.9 71.3 L 47.82488622665405 72.9374810218811 L 54.2 74.0 L 57.2 76.0 L 54.2 77.8 L 54.2 183.0 L 42.2 189.0 L 42.2 81.48656721115113 L 35.7 90.8 L 28.6 100.1 L 21.2 109.0 L 13.3 117.5 L 11.9 116.4 L 18.1 106.7 L 24.2 97.0 L 30.2 87.1 L 36.0 77.2 L 41.6 67.0 L 47.0 56.7 L 52.1 46.2 L 57.1 35.5 L 61.8 24.6 L 66.3 13.5 L 66.39298429489136 13.539371681213378 L 66.9 12.3 Z M 103.0 85.0 L 103.0 81.0 L 132.5 81.0 L 132.5 42.0 L 144.5 44.0 L 147.5 46.0 L 144.5 47.8 L 144.5 81.0 L 171.2 81.0 L 177.2 76.0 L 188.2 85.0 L 183.2 88.0 L 183.15887594223022 88.0171350479126 L 183.1 95.2 L 182.8 106.7 L 182.5 117.4 L 181.9 127.3 L 181.2 136.4 L 180.4 144.7 L 179.4 152.2 L 178.2 159.0 L 176.8 165.1 L 175.3 170.4 L 174.3 172.7 L 173.2 175.0 L 171.8 177.0 L 170.1 178.9 L 168.2 180.5 L 166.1 181.8 L 163.8 182.7 L 161.4 183.4 L 158.9 183.8 L 156.4 184.0 L 156.4 178.0 L 136.4 175.0 L 136.4 172.0 L 156.4 172.0 L 157.7 171.9 L 158.8 171.7 L 159.8 171.4 L 160.5 171.1 L 161.2 170.7 L 161.8 170.2 L 162.3 169.6 L 162.9 168.8 L 163.4 167.8 L 163.9 166.6 L 165.2 162.1 L 166.4 156.7 L 167.5 150.4 L 168.5 143.3 L 169.3 135.3 L 170.0 126.5 L 170.5 116.8 L 170.8 106.4 L 171.1 95.1 L 171.18347110748292 85.0 L 144.5 85.0 L 144.5 86.0 L 143.5 100.3 L 141.2 113.8 L 137.5 126.4 L 132.5 138.1 L 126.2 149.0 L 118.6 158.8 L 109.6 167.6 L 99.5 175.5 L 88.0 182.2 L 75.4 187.8 L 74.6 186.1 L 86.1 178.9 L 96.2 171.2 L 105.1 162.9 L 112.7 154.0 L 119.0 144.4 L 124.1 134.2 L 128.0 123.3 L 130.7 111.6 L 132.1 99.2 L 132.5 86.0 L 132.5 85.0 Z M 93.9 31.0 L 164.8 31.0 L 174.8 21.0 L 186.8 31.0 L 186.8 35.0 L 93.9 35.0 L 93.9 103.0 L 93.3 114.5 L 92.1 125.5 L 90.2 135.8 L 87.6 145.4 L 84.4 154.4 L 80.5 162.6 L 76.0 170.1 L 70.8 176.9 L 64.9 182.7 L 58.4 187.6 L 57.2 186.3 L 62.2 180.1 L 66.5 173.7 L 70.3 166.8 L 73.6 159.4 L 76.4 151.5 L 78.6 143.0 L 80.3 133.9 L 81.4 124.2 L 81.9 113.9 L 81.9 25.0 Z " />
</g>
</svg>
