<svg xmlns="http://www.w3.org/2000/svg" xmlns:xlink="http://www.w3.org/1999/xlink" version="1.1" baseProfile="full" viewBox="0 0 200 200" width="200" height="200">
<g fill="black">
<path d="M 75.3 18.1 L 77.3 21.1 L 73.69203672409057 21.66967840194702 L 70.3 29.2 L 65.1 40.1 L 59.7 50.7 L 54.0 61.1 L 48.0 71.3 L 46.95076923370361 72.95846157073974 L 53.2 74.0 L 56.2 76.0 L 53.2 77.8 L 53.2 183.0 L 41.2 189.0 L 41.2 81.98615388870239 L 35.3 90.7 L 28.5 100.0 L 21.4 108.9 L 13.9 117.5 L 12.4 116.4 L 18.3 106.7 L 24.1 97.0 L 29.7 87.2 L 35.3 77.2 L 40.6 67.1 L 45.7 56.8 L 50.6 46.3 L 55.4 35.6 L 59.9 24.7 L 63.81128244400024 14.603433799743652 L 63.8 14.6 L 64.7 12.3 Z M 153.6 181.0 L 151.6 182.4 L 149.6 183.6 L 147.5 184.6 L 145.3 185.5 L 143.0 186.1 L 140.7 186.6 L 138.3 186.9 L 135.9 187.0 L 135.9 181.0 L 117.9 178.0 L 117.9 175.0 L 135.9 175.0 L 137.4 174.9 L 140.2 174.5 L 141.5 174.1 L 142.7 173.6 L 145.1 172.4 L 146.2 171.6 L 148.4 169.6 L 150.8 166.3 L 153.2 161.9 L 155.4 156.3 L 157.4 149.4 L 159.0 141.3 L 160.4 132.1 L 161.4 121.8 L 162.0 110.3 L 162.4 97.7 L 162.37277135848998 93.96967859268189 L 162.3 94.0 L 162.3 86.0 L 121.12670803070068 86.0 L 119.2 100.1 L 115.9 115.1 L 111.2 129.0 L 105.3 141.8 L 98.2 153.5 L 89.8 164.0 L 80.3 173.2 L 69.5 181.2 L 57.6 187.7 L 56.7 186.2 L 67.3 178.1 L 76.6 169.3 L 84.8 159.8 L 91.8 149.4 L 97.7 138.1 L 102.5 125.8 L 106.1 112.6 L 108.6 98.4 L 110.0 83.2 L 110.3 67.0 L 110.3 37.0 L 79.6 37.0 L 79.6 33.0 L 165.7 33.0 L 175.7 23.0 L 187.7 33.0 L 187.7 37.0 L 122.3 37.0 L 122.3 67.0 L 121.50588235855102 82.0 L 162.3 82.0 L 168.3 77.0 L 179.3 86.0 L 174.33627309799195 88.97823610305787 L 174.4 97.9 L 174.0 110.8 L 173.3 122.7 L 172.3 133.6 L 170.9 143.4 L 169.0 152.2 L 166.8 160.0 L 164.1 166.9 L 160.9 172.8 L 157.1 177.8 L 155.4 179.5 Z " />
</g>
</svg>
