<svg xmlns="http://www.w3.org/2000/svg" xmlns:xlink="http://www.w3.org/1999/xlink" version="1.1" baseProfile="full" viewBox="0 0 200 200" width="200" height="200">
<g fill="black">
<path d="M 167.2 111.1 L 165.0 108.3 L 162.4 105.4 L 159.4 102.3 L 155.9 99.2 L 152.0 95.9 L 147.6 92.4 L 143.0 88.7 L 139.70649347305297 86.29320678710937 L 139.3 87.2 L 134.5 95.0 L 128.5 102.0 L 121.7 107.9 L 113.8 112.9 L 105.1 116.9 L 102.0486364364624 117.78080596923829 L 106.9 118.8 L 109.9 120.9 L 106.43277168273926 122.8715612411499 L 105.64649810791016 129.72337341308594 L 106.9 133.7 L 110.6 141.8 L 115.2 148.9 L 118.95440988540649 153.05666809082032 L 123.0 150.0 L 127.3 146.8 L 131.6 143.8 L 135.6 140.8 L 139.6 138.0 L 143.3 135.1 L 146.9 132.4 L 150.3 129.7 L 153.5 127.0 L 155.74719104766845 125.05243444442749 L 155.7 125.0 L 156.1666666984558 124.68888893127442 L 156.5 124.4 L 156.53364057540892 124.44423961639404 L 156.6 124.4 L 163.8 134.0 L 164.0 137.6 L 160.28851146697997 136.08791208267212 L 160.1 136.2 L 156.3 138.5 L 152.4 140.7 L 148.2 143.0 L 143.9 145.1 L 139.4 147.3 L 134.7 149.4 L 129.9 151.4 L 124.7 153.3 L 120.41547899246216 154.67428035736083 L 120.8 155.1 L 127.3 160.4 L 135.0 164.9 L 143.8 168.7 L 153.8 171.6 L 165.1 173.9 L 177.6 175.3 L 188.2 176.3 L 176.3 188.4 L 162.9 186.2 L 150.6 183.0 L 139.7 178.9 L 130.0 173.8 L 121.6 167.8 L 114.7 160.8 L 109.2 152.9 L 105.2 144.2 L 103.56179771423339 137.78370790481569 L 102.3 142.2 L 97.2 152.3 L 90.4 161.2 L 81.9 168.9 L 71.8 175.2 L 60.1 180.4 L 47.0 184.4 L 32.3 187.1 L 16.1 188.6 L 15.8 186.9 L 31.6 183.4 L 45.5 179.3 L 57.6 174.4 L 68.0 168.7 L 76.5 162.3 L 83.4 155.1 L 88.5 147.3 L 92.2 138.6 L 94.3 129.1 L 94.9 118.6 L 94.93028774261475 118.60050477981568 L 94.94395608901978 118.14945058822632 L 94.9 118.0 L 94.9492932319641 117.97332363128662 L 95.0 116.3 L 97.19082775115967 116.76025791168213 L 103.4 113.4 L 111.0 108.4 L 117.4 102.9 L 122.9 96.9 L 127.4 90.4 L 130.9 83.2 L 133.6 75.4 L 135.4 67.0 L 136.2 57.8 L 136.2 45.5 L 148.2 47.6 L 151.2 49.5 L 147.98543424606322 51.53370485305786 L 147.6 58.6 L 145.9 69.0 L 144.60348529815673 73.56181116104126 L 147.2 71.6 L 151.5 68.5 L 155.5 65.6 L 159.2 63.0 L 162.5 60.6 L 165.6 58.4 L 168.3 56.4 L 170.8 54.6 L 172.1018449783325 53.54612550735474 L 172.0 53.4 L 172.1247311592102 53.52759857177735 L 172.9 52.9 L 174.9 56.36666669845581 L 180.7 62.3 L 180.8 65.7 L 176.91694917678834 64.09322032928466 L 176.4 64.3 L 173.6 65.6 L 170.5 66.9 L 167.0 68.4 L 163.2 70.1 L 159.0 71.9 L 154.5 73.9 L 149.7 75.9 L 144.4 78.0 L 143.20914096832274 78.46783752441407 L 143.2 78.5 L 140.70392351150514 84.06817064285278 L 144.7 85.6 L 150.3 88.0 L 155.5 90.5 L 160.2 93.1 L 164.5 95.8 L 168.4 98.5 L 172.0 101.2 L 175.1 104.0 L 177.9 106.9 L 180.3 109.9 L 181.0 114.4 L 178.3 118.1 L 173.8 118.7 L 170.1 116.1 L 168.8 113.7 Z M 35.2 159.4 L 35.1 154.8 L 38.2 151.5 L 41.6 150.2 L 44.7 148.7 L 47.6 146.9 L 50.2 145.0 L 52.7 142.7 L 54.9 140.2 L 57.0 137.3 L 58.8 134.1 L 60.6 130.5 L 61.9 126.5 L 63.7 126.7 L 63.6 131.1 L 63.2 135.5 L 62.3 139.6 L 60.9 143.6 L 59.0 147.4 L 56.7 150.9 L 54.0 154.2 L 50.8 157.3 L 47.1 160.0 L 43.1 162.4 L 38.6 162.5 Z M 82.9 107.7 L 81.3 105.3 L 79.3 102.8 L 76.7 100.1 L 73.7 97.3 L 70.3 94.4 L 66.4 91.3 L 62.1 88.1 L 58.865256786346436 85.94350452423096 L 58.4 87.1 L 53.9 94.9 L 48.4 101.9 L 42.0 107.9 L 34.8 112.9 L 26.6 116.8 L 17.7 119.7 L 17.1 118.1 L 24.9 113.5 L 31.7 108.5 L 37.6 103.0 L 42.6 97.0 L 46.6 90.5 L 49.9 83.4 L 52.3 75.6 L 53.9 67.0 L 54.7 57.8 L 54.60999002456665 48.79900102615356 L 54.6 48.8 L 54.6 45.5 L 66.6 47.6 L 69.6 49.5 L 66.38543424606323 51.53370485305786 L 66.0 58.6 L 64.5 68.9 L 63.28165731430054 73.35163669586181 L 65.6 71.6 L 69.9 68.5 L 73.9 65.6 L 77.6 63.0 L 80.9 60.6 L 84.0 58.4 L 86.7 56.4 L 89.2 54.6 L 90.50184497833251 53.54612550735474 L 90.4 53.4 L 90.5247311592102 53.52759857177735 L 91.3 52.9 L 93.3 56.36666669845581 L 99.1 62.3 L 99.2 65.7 L 95.31694917678833 64.09322032928466 L 94.8 64.3 L 92.0 65.6 L 88.9 66.9 L 85.4 68.4 L 81.6 70.1 L 77.4 71.9 L 72.9 73.9 L 68.1 75.9 L 62.8 78.0 L 61.914237594604494 78.34797811508179 L 61.9 78.4 L 59.69709224700928 83.87579917907715 L 63.6 85.2 L 68.8 87.2 L 73.5 89.3 L 77.8 91.4 L 81.7 93.7 L 85.3 96.1 L 88.4 98.6 L 91.2 101.2 L 93.6 104.0 L 95.6 107.0 L 95.6 111.6 L 92.5 114.9 L 88.0 115.0 L 84.6 111.9 L 84.0 109.9 Z M 24.1 90.1 L 22.0 86.1 L 23.4 81.7 L 25.0 80.2 L 26.5 78.7 L 27.8 77.0 L 29.0 75.1 L 30.1 73.0 L 31.1 70.8 L 31.9 68.3 L 32.5 65.6 L 33.1 62.7 L 33.0 59.6 L 34.8 59.3 L 35.5 62.4 L 36.5 65.5 L 37.1 68.6 L 37.4 71.6 L 37.4 74.7 L 37.1 77.7 L 36.4 80.7 L 35.5 83.7 L 34.2 86.6 L 32.6 89.4 L 28.5 91.5 Z M 105.7 90.1 L 103.6 86.1 L 105.0 81.7 L 106.6 80.2 L 108.1 78.7 L 109.4 77.0 L 110.6 75.1 L 111.7 73.0 L 112.7 70.8 L 113.5 68.3 L 114.1 65.6 L 114.7 62.7 L 114.6 59.6 L 116.4 59.3 L 117.1 62.4 L 118.1 65.5 L 118.7 68.6 L 119.0 71.6 L 119.0 74.7 L 118.7 77.7 L 118.0 80.7 L 117.1 83.7 L 115.8 86.6 L 114.2 89.4 L 110.1 91.5 Z M 15.0 39.2 L 94.0 39.2 L 94.0 12.8 L 106.0 14.8 L 109.0 16.8 L 106.0 18.6 L 106.0 39.2 L 163.0 39.2 L 173.0 29.2 L 185.0 39.2 L 185.0 43.2 L 15.0 43.2 Z " />
</g>
</svg>
