<svg xmlns="http://www.w3.org/2000/svg" xmlns:xlink="http://www.w3.org/1999/xlink" version="1.1" baseProfile="full" viewBox="0 0 200 200" width="200" height="200">
<g fill="black">
<path d="M 83.9 18.4 L 85.8 21.5 L 82.0790475845337 21.884926128387452 L 78.1 29.5 L 72.1 40.4 L 65.7 51.0 L 59.1 61.4 L 52.1 71.5 L 51.11621618270874 72.85270271301269 L 58.0 74.0 L 61.0 76.0 L 58.0 77.8 L 58.0 183.0 L 46.0 189.0 L 46.0 79.8875 L 44.9 81.4 L 37.4 90.9 L 29.5 100.2 L 21.3 109.1 L 12.6 117.5 L 11.3 116.4 L 18.4 106.6 L 25.3 96.8 L 32.1 87.0 L 38.7 77.0 L 45.0 66.8 L 51.2 56.5 L 57.0 46.0 L 62.6 35.3 L 68.0 24.4 L 72.8875 13.7625 L 73.6 12.1 Z M 110.0 28.0 L 113.0 30.0 L 110.0 31.8 L 110.0 91.0 L 109.3 104.1 L 107.8 116.5 L 105.5 128.2 L 102.5 139.1 L 98.7 149.2 L 94.0 158.5 L 88.6 167.0 L 82.4 174.6 L 75.3 181.1 L 67.5 186.7 L 66.4 185.2 L 72.7 178.4 L 78.2 171.2 L 83.1 163.4 L 87.2 155.1 L 90.7 146.2 L 93.6 136.5 L 95.7 126.2 L 97.1 115.2 L 97.9 103.4 L 98.0 91.0 L 98.0 26.0 Z M 183.0 139.0 L 185.0 139.0 L 183.0 164.0 L 186.6 166.4 L 189.0 170.0 L 186.6 173.6 L 183.0 176.0 L 161.0 176.0 L 158.4 175.8 L 155.9 175.4 L 153.5 174.6 L 151.2 173.3 L 149.2 171.7 L 147.6 169.7 L 146.3 167.4 L 145.5 165.0 L 145.1 162.5 L 145.0 160.0 L 145.0 26.0 L 157.0 28.0 L 160.0 30.0 L 157.0 31.8 L 157.0 161.2 L 157.2 162.1 L 157.5 163.0 L 157.9 163.4 L 158.8 163.7 L 159.7 163.9 L 161.0 164.0 L 177.0 164.0 Z " />
</g>
</svg>
