<svg xmlns="http://www.w3.org/2000/svg" xmlns:xlink="http://www.w3.org/1999/xlink" version="1.1" baseProfile="full" viewBox="0 0 200 200" width="200" height="200">
<g fill="black">
<path d="M 76.0 128.3 L 123.0 128.3 L 129.0 123.3 L 140.0 132.3 L 135.0 136.3 L 135.0 170.8 L 135.2 171.7 L 135.5 172.6 L 135.9 173.0 L 136.8 173.3 L 137.7 173.5 L 139.0 173.6 L 176.0 173.6 L 182.0 148.6 L 184.0 148.6 L 182.0 173.6 L 185.6 176.0 L 188.0 179.6 L 185.6 183.2 L 182.0 185.6 L 139.0 185.6 L 136.4 185.4 L 133.9 185.0 L 131.5 184.2 L 129.2 182.9 L 127.2 181.3 L 125.6 179.3 L 124.3 177.0 L 123.5 174.6 L 123.1 172.1 L 123.0 169.6 L 123.0 132.3 L 76.0 132.3 L 76.0 133.9 L 75.0 142.4 L 72.8 150.4 L 69.4 157.8 L 64.7 164.4 L 58.9 170.3 L 52.0 175.4 L 44.1 179.8 L 35.2 183.4 L 25.2 186.3 L 14.2 188.4 L 13.7 186.7 L 24.0 182.7 L 33.1 178.5 L 40.9 174.0 L 47.6 169.3 L 53.0 164.2 L 57.3 158.8 L 60.5 153.1 L 62.6 147.1 L 63.8 140.7 L 64.0 133.9 L 64.0 122.3 Z M 167.0 120.7 L 165.1 122.2 L 163.1 123.5 L 161.0 124.6 L 158.8 125.6 L 156.6 126.3 L 154.2 126.8 L 151.8 127.1 L 149.4 127.2 L 149.4 121.2 L 129.4 118.2 L 129.4 115.2 L 149.4 115.2 L 150.9 115.1 L 153.5 114.7 L 154.7 114.3 L 155.9 113.8 L 157.0 113.2 L 158.1 112.5 L 159.1 111.7 L 160.1 110.7 L 161.1 109.6 L 162.5 107.6 L 163.9 105.2 L 165.1 102.4 L 166.3 99.1 L 167.2 95.3 L 168.1 91.2 L 168.7 86.6 L 169.2 81.6 L 169.4 76.2 L 169.46551723480223 72.4 L 98.4 72.4 L 90.4 80.4 L 80.4 70.4 L 87.4079999923706 64.56000003814697 L 94.8 27.6 L 106.2 31.9 L 108.7 34.4 L 105.50909042358398 35.36329345703125 L 98.91843433380127 68.4 L 147.7978723526001 68.4 L 154.2021276473999 25.4 L 73.9 25.4 L 73.9 21.4 L 154.5 21.4 L 160.5 16.4 L 171.5 25.4 L 166.5 28.4 L 165.00717706680297 29.022009563446044 L 159.95652170181273 68.4 L 169.5 68.4 L 175.5 63.4 L 186.5 72.4 L 181.5 75.4 L 181.41880922317506 75.43382949829102 L 181.4 76.6 L 181.1 82.5 L 180.6 88.0 L 179.9 93.2 L 178.9 98.0 L 177.8 102.5 L 176.3 106.7 L 174.6 110.6 L 172.6 114.1 L 170.4 117.2 L 168.7 119.1 Z M 37.1 120.3 L 33.3 117.7 L 32.3 113.3 L 33.0 110.6 L 33.2 108.0 L 33.0 105.3 L 32.4 102.5 L 31.1 99.4 L 29.3 96.3 L 26.8 93.0 L 23.7 89.5 L 20.1 85.9 L 15.6 82.4 L 16.5 80.9 L 21.8 83.3 L 26.6 85.8 L 28.60259552001953 87.10401563644409 L 31.4 84.9 L 35.0 81.7 L 38.9 78.1 L 43.1 74.0 L 47.5 69.4 L 52.3 64.3 L 57.3 58.8 L 62.7 52.9 L 68.5 46.6 L 74.7 40.0 L 76.1 41.0 L 71.5 48.9 L 67.0 56.2 L 62.5 62.9 L 58.2 69.1 L 54.0 74.8 L 50.1 80.1 L 46.3 84.9 L 42.7 89.2 L 39.3 93.1 L 37.65373134613037 94.84916048049926 L 37.8 95.0 L 40.4 98.6 L 42.4 102.5 L 43.7 106.6 L 44.3 111.0 L 44.1 115.5 L 41.5 119.3 Z M 159.4 94.4 L 159.4 98.4 L 70.4 98.4 L 70.4 94.4 L 137.4 94.4 L 147.4 84.4 Z M 44.3 40.2 L 42.9 38.6 L 41.1 36.8 L 39.0 35.1 L 36.6 33.4 L 33.9 31.6 L 30.9 29.8 L 27.7 27.9 L 24.1 26.4 L 24.6 24.7 L 28.5 25.4 L 32.3 25.9 L 35.9 26.6 L 39.3 27.4 L 42.5 28.4 L 45.5 29.5 L 48.3 30.8 L 50.9 32.2 L 53.3 33.8 L 55.6 35.6 L 56.9 40.0 L 54.9 44.1 L 50.5 45.4 L 46.4 43.4 L 45.5 41.8 Z " />
</g>
</svg>
