<svg xmlns="http://www.w3.org/2000/svg" xmlns:xlink="http://www.w3.org/1999/xlink" version="1.1" baseProfile="full" viewBox="0 0 200 200" width="200" height="200">
<g fill="black">
<path d="M 12.0 87.0 L 12.0 83.0 L 51.0 83.0 L 51.0 47.0 L 18.0 47.0 L 18.0 43.0 L 51.0 43.0 L 51.0 12.0 L 63.0 14.0 L 66.0 16.0 L 63.0 17.8 L 63.0 43.0 L 77.0 43.0 L 87.0 33.0 L 99.0 43.0 L 99.0 47.0 L 63.0 47.0 L 63.0 83.0 L 82.0 83.0 L 92.0 73.0 L 104.0 83.0 L 104.0 87.0 L 77.0 87.0 L 77.0 173.0 L 76.8 175.5 L 76.4 178.0 L 75.6 180.4 L 74.3 182.7 L 72.7 184.7 L 70.7 186.3 L 68.4 187.6 L 66.0 188.4 L 63.5 188.8 L 61.0 189.0 L 61.0 183.0 L 45.0 180.0 L 45.0 177.0 L 61.0 177.0 L 62.2 176.9 L 63.1 176.7 L 64.0 176.4 L 64.4 176.0 L 64.7 175.1 L 64.9 174.2 L 65.0 173.0 L 65.0 87.0 L 52.0 87.0 L 52.0 121.0 L 51.3 130.1 L 50.0 138.9 L 47.9 147.1 L 45.2 154.8 L 41.8 162.0 L 37.7 168.7 L 32.9 174.7 L 27.4 180.1 L 21.3 184.8 L 14.5 188.7 L 13.4 187.2 L 18.8 181.9 L 23.5 176.4 L 27.7 170.7 L 31.2 164.7 L 34.1 158.4 L 36.5 151.7 L 38.2 144.7 L 39.4 137.2 L 40.0 129.3 L 40.0 87.0 Z M 127.1 27.0 L 151.7 27.0 L 157.7 22.0 L 168.7 31.0 L 163.7 35.0 L 163.7 161.0 L 163.8 162.2 L 164.0 163.1 L 164.1 163.7 L 164.3 164.0 L 164.7 164.4 L 165.6 164.7 L 166.5 164.9 L 167.7 165.0 L 176.7 165.0 L 182.7 140.0 L 184.7 140.0 L 182.7 165.0 L 186.3 167.4 L 188.7 171.0 L 186.3 174.6 L 182.7 177.0 L 167.7 177.0 L 165.2 176.8 L 162.7 176.4 L 160.3 175.6 L 158.0 174.3 L 156.0 172.7 L 154.3 170.7 L 153.1 168.4 L 152.3 166.0 L 151.9 163.5 L 151.7 161.0 L 151.7 31.0 L 127.1 31.0 L 127.1 93.0 L 126.5 105.8 L 125.3 118.0 L 123.4 129.4 L 121.0 140.1 L 117.9 150.0 L 114.2 159.1 L 109.8 167.3 L 104.8 174.7 L 99.2 181.2 L 92.8 186.6 L 91.6 185.3 L 96.2 178.8 L 100.4 171.8 L 104.0 164.3 L 107.2 156.2 L 109.8 147.4 L 111.9 138.0 L 113.5 127.8 L 114.6 116.9 L 115.1 105.3 L 115.1 21.0 Z M 31.8 111.6 L 34.6 113.9 L 31.106818199157715 115.48181819915771 L 30.8 117.2 L 29.7 122.7 L 28.4 128.1 L 26.9 133.3 L 25.3 138.3 L 23.4 143.1 L 21.4 147.8 L 19.2 152.2 L 16.6 156.4 L 13.8 160.3 L 12.1 159.6 L 13.1 154.9 L 14.2 150.3 L 15.2 145.7 L 16.2 140.9 L 17.1 136.1 L 17.9 131.2 L 18.5 126.2 L 19.1 121.0 L 19.6 115.7 L 19.844382762908936 111.30110960006714 L 19.8 111.3 L 20.1 108.2 Z M 92.0 139.7 L 91.4 135.3 L 90.7 131.1 L 89.9 127.0 L 88.9 123.0 L 87.8 119.0 L 86.5 115.1 L 85.3 111.1 L 83.8 107.3 L 85.3 106.3 L 88.2 109.4 L 90.9 112.8 L 93.4 116.4 L 95.6 120.3 L 97.6 124.3 L 99.4 128.6 L 101.0 133.0 L 102.4 137.6 L 103.6 142.4 L 104.6 147.3 L 103.3 151.7 L 99.3 153.9 L 94.9 152.6 L 92.7 148.6 L 92.4 144.1 Z " />
</g>
</svg>
