<svg xmlns="http://www.w3.org/2000/svg" xmlns:xlink="http://www.w3.org/1999/xlink" version="1.1" baseProfile="full" viewBox="0 0 200 200" width="200" height="200">
<g fill="black">
<path d="M 40.0 26.0 L 166.0 26.0 L 176.0 16.0 L 188.0 26.0 L 188.0 30.0 L 40.0 30.0 L 40.0 91.0 L 39.4 105.1 L 38.4 118.3 L 37.0 130.6 L 35.0 141.9 L 32.6 152.4 L 29.7 161.9 L 26.2 170.4 L 22.3 177.9 L 17.7 184.3 L 12.6 189.5 L 11.3 188.4 L 14.5 182.3 L 17.5 175.5 L 20.1 168.0 L 22.4 159.7 L 24.3 150.5 L 25.8 140.4 L 27.0 129.4 L 27.7 117.5 L 28.0 104.7 L 28.0 20.0 Z M 52.3 104.2 L 109.0 104.2 L 109.0 39.7 L 121.0 41.7 L 124.0 43.7 L 121.0 45.5 L 121.0 104.2 L 164.6 104.2 L 170.6 99.2 L 181.6 108.2 L 176.6 112.2 L 176.6 180.2 L 164.6 186.2 L 164.6 176.2 L 48.8 176.2 L 48.8 172.2 L 164.6 172.2 L 164.6 141.3 L 54.9 141.3 L 54.9 137.3 L 164.6 137.3 L 164.6 108.2 L 52.3 108.2 Z M 176.9 56.7 L 178.3 60.0 L 174.4633074760437 59.867700290679934 L 173.9 60.6 L 170.7 64.6 L 167.3 68.5 L 163.7 72.6 L 159.8 76.6 L 155.7 80.6 L 151.4 84.7 L 146.7 88.8 L 141.8 92.7 L 136.5 96.6 L 135.2 95.3 L 139.1 90.1 L 142.8 85.1 L 146.5 80.3 L 150.0 75.6 L 153.3 71.1 L 156.5 66.7 L 159.4 62.4 L 162.0 58.2 L 164.5 54.2 L 166.26341590881347 51.13318967819214 L 166.2 51.1 L 167.3 49.4 Z M 74.3 81.8 L 72.6 78.1 L 70.7 74.4 L 68.6 70.7 L 66.2 67.1 L 63.5 63.4 L 60.7 59.8 L 57.6 56.0 L 54.3 52.2 L 55.4 50.8 L 59.9 53.3 L 64.1 56.1 L 68.0 59.1 L 71.7 62.3 L 75.1 65.7 L 78.2 69.2 L 81.1 73.0 L 83.7 76.8 L 86.1 80.9 L 88.2 85.1 L 88.0 89.6 L 84.7 92.8 L 80.1 92.6 L 77.0 89.3 L 75.7 85.5 Z " />
</g>
</svg>
