<svg xmlns="http://www.w3.org/2000/svg" xmlns:xlink="http://www.w3.org/1999/xlink" version="1.1" baseProfile="full" viewBox="0 0 200 200" width="200" height="200">
<g fill="black">
<path d="M 161.2 78.0 L 152.7 72.6 L 144.6 66.8 L 136.9 60.6 L 129.6 53.9 L 122.8 46.9 L 116.4 39.4 L 110.5 31.4 L 109.0095890045166 28.9452054977417 L 106.1 30.4 L 106.1 29.052941131591798 L 102.5 33.5 L 95.0 41.5 L 86.9 49.2 L 78.2 56.5 L 68.8 63.5 L 58.8 70.1 L 49.054132270812985 75.8923553466797 L 53.9 76.7 L 56.9 78.7 L 53.9 80.5 L 53.9 107.5 L 57.0 107.5 L 67.0 97.5 L 79.0 107.5 L 79.0 111.5 L 53.9 111.5 L 53.9 152.40909090042115 L 57.9 151.5 L 64.7 149.9 L 71.9 148.4 L 79.5 146.9 L 80.1 148.7 L 73.1 152.0 L 66.4 155.0 L 59.8 157.7 L 53.5 160.2 L 47.4 162.5 L 41.6 164.7 L 36.0 166.6 L 30.7 168.4 L 25.7 170.1 L 24.878085899353028 170.35160636901855 L 23.5 174.1 L 20.8 171.6 L 16.1 160.4 L 18.0 159.9 L 22.9 159.1 L 28.0 158.1 L 33.4 157.0 L 39.0 155.7 L 41.9 155.07166662216187 L 41.9 111.5 L 18.5 111.5 L 18.5 107.5 L 41.9 107.5 L 41.9 79.63362827301026 L 36.9 82.2 L 25.0 87.6 L 12.4 92.5 L 11.6 90.9 L 23.3 84.2 L 34.3 77.5 L 44.8 70.8 L 54.6 63.8 L 63.7 56.7 L 72.2 49.4 L 80.0 41.9 L 87.2 34.2 L 93.7 26.2 L 95.56521739959717 23.6 L 61.3 23.6 L 61.3 19.6 L 101.06000003814697 19.6 L 106.1 15.4 L 117.1 24.4 L 112.27387390136718 27.295675659179686 L 113.8 28.8 L 120.7 35.4 L 127.8 41.7 L 135.1 47.6 L 142.7 53.2 L 150.5 58.4 L 158.5 63.2 L 166.9 67.6 L 175.5 71.7 L 184.4 75.4 L 190.7 78.1 L 179.3 87.5 L 170.0 83.0 Z M 151.8 142.5 L 161.8 142.5 L 163.0 142.4 L 163.9 142.2 L 164.8 141.9 L 165.2 141.5 L 165.5 140.6 L 165.7 139.7 L 165.8 138.5 L 165.8 104.28246631622315 L 136.9 110.07360305786133 L 136.9 158.5 L 124.9 164.5 L 124.9 112.47822732925415 L 100.5 117.36763010025024 L 100.5 170.2 L 100.7 171.1 L 100.9 171.7 L 101.2 172.3 L 101.4 172.4 L 101.7 172.6 L 102.3 172.8 L 103.2 172.9 L 104.5 173.0 L 173.5 173.0 L 179.5 148.0 L 181.5 148.0 L 179.5 173.0 L 183.1 175.4 L 185.5 179.0 L 183.1 182.6 L 179.5 185.0 L 104.5 185.0 L 101.9 184.9 L 99.4 184.4 L 97.0 183.6 L 94.7 182.4 L 92.7 180.7 L 91.1 178.7 L 89.9 176.5 L 89.1 174.1 L 88.6 171.6 L 88.5 169.0 L 88.5 119.77225437164307 L 68.4 123.8 L 67.6 119.8 L 88.5 115.6119460105896 L 88.5 87.7 L 100.5 89.7 L 103.5 91.7 L 100.5 93.5 L 100.5 113.20732173919677 L 124.9 108.31791906356811 L 124.9 72.7 L 136.9 74.7 L 139.9 76.7 L 136.9 78.5 L 136.9 105.9132947921753 L 165.8 100.12215795516968 L 165.8 99.0 L 171.8 94.0 L 182.8 103.0 L 177.8 107.0 L 177.8 138.5 L 177.6 141.0 L 177.2 143.5 L 176.4 145.9 L 175.2 148.2 L 173.5 150.2 L 171.5 151.8 L 169.2 153.1 L 166.8 153.9 L 164.3 154.3 L 161.8 154.5 L 161.8 148.5 L 151.8 145.5 Z " />
</g>
</svg>
