<svg xmlns="http://www.w3.org/2000/svg" xmlns:xlink="http://www.w3.org/1999/xlink" version="1.1" baseProfile="full" viewBox="0 0 200 200" width="200" height="200">
<g fill="black">
<path d="M 132.1 132.4 L 130.9 141.1 L 129.0 149.1 L 126.6 156.6 L 123.5 163.3 L 119.8 169.4 L 115.5 174.8 L 110.5 179.3 L 105.1 183.1 L 99.1 185.9 L 92.7 187.8 L 92.0 186.1 L 97.3 182.6 L 101.9 178.7 L 106.0 174.6 L 109.5 170.0 L 112.5 165.0 L 115.0 159.4 L 117.1 153.4 L 118.6 146.7 L 119.6 139.4 L 120.2 131.5 L 120.2 115.0 L 132.2 117.0 L 135.2 119.0 L 132.2 120.8 L 132.2 132.0 L 131.93109340667723 132.38722553253174 Z M 50.72883892059326 19.84269666671753 L 50.2 48.4 L 49.75107917785645 58.0 L 66.9 58.0 L 72.9 53.0 L 83.9 62.0 L 78.9 65.0 L 78.87085962295532 65.01214179992675 L 78.8 77.2 L 78.7 93.0 L 78.5 107.3 L 78.2 120.2 L 77.9 131.5 L 77.5 141.4 L 77.0 149.8 L 76.4 156.7 L 75.7 162.3 L 74.9 166.7 L 74.1 169.1 L 73.1 171.5 L 71.8 173.6 L 70.3 175.6 L 68.4 177.3 L 66.3 178.6 L 64.1 179.7 L 61.7 180.4 L 59.2 180.8 L 56.6 181.0 L 56.6 175.0 L 40.6 172.0 L 40.6 169.0 L 56.6 169.0 L 57.9 168.9 L 59.0 168.7 L 59.8 168.5 L 60.5 168.2 L 61.5 167.4 L 62.0 166.8 L 62.4 166.0 L 62.8 165.0 L 63.2 163.8 L 63.8 160.5 L 64.4 155.5 L 65.0 148.9 L 65.5 140.8 L 65.9 131.1 L 66.3 119.8 L 66.5 107.1 L 66.7 92.9 L 66.8 77.2 L 66.88837213516236 62.0 L 49.5640287399292 62.0 L 48.9 76.2 L 47.0 99.9 L 44.4 119.9 L 41.0 136.6 L 36.9 150.5 L 32.1 162.0 L 26.4 171.5 L 19.9 179.2 L 12.6 185.6 L 11.4 184.3 L 17.0 176.8 L 21.8 168.7 L 26.1 159.3 L 29.7 148.2 L 32.7 134.8 L 35.2 118.6 L 37.0 99.0 L 38.2 75.7 L 38.498909091949464 62.0 L 15.5 62.0 L 15.5 58.0 L 38.586181831359866 58.0 L 38.8 48.2 L 38.8 13.6 L 50.8 16.0 L 53.8 18.0 Z M 181.5 147.0 L 183.5 147.0 L 181.5 172.0 L 185.1 174.4 L 187.5 178.0 L 185.1 181.6 L 181.5 184.0 L 161.8 184.0 L 159.2 183.8 L 156.7 183.4 L 154.3 182.6 L 152.0 181.3 L 150.0 179.7 L 148.4 177.7 L 147.2 175.4 L 146.4 173.0 L 145.9 170.5 L 145.8 168.0 L 145.8 115.0 L 157.8 117.0 L 160.8 119.0 L 157.8 120.8 L 157.8 169.2 L 158.0 170.1 L 158.2 170.7 L 158.4 171.0 L 158.5 171.2 L 158.7 171.4 L 159.6 171.7 L 160.5 171.9 L 161.8 172.0 L 175.5 172.0 Z M 177.4 71.0 L 179.4 71.0 L 177.4 96.0 L 181.0 98.4 L 183.4 102.0 L 181.0 105.6 L 177.4 108.0 L 139.2 108.0 L 136.7 107.8 L 134.2 107.4 L 131.8 106.6 L 129.5 105.3 L 127.5 103.7 L 125.8 101.7 L 124.6 99.4 L 123.8 97.0 L 123.4 94.5 L 123.2 92.0 L 123.2 81.76178865432739 L 103.9 84.9 L 103.5 82.3 L 103.5 120.0 L 102.9 129.9 L 101.8 139.3 L 100.1 147.9 L 97.8 155.9 L 95.0 163.2 L 91.6 169.8 L 87.6 175.6 L 83.1 180.6 L 77.9 184.6 L 72.3 187.7 L 71.3 186.2 L 75.4 181.8 L 79.0 177.1 L 82.2 172.0 L 84.8 166.3 L 87.1 160.2 L 88.9 153.4 L 90.2 146.0 L 91.1 138.0 L 91.5 129.3 L 91.5 43.0 L 103.5 49.0 L 126.3 49.0 L 126.3 12.0 L 138.3 14.0 L 141.3 16.0 L 138.3 17.8 L 138.3 28.0 L 154.11818180084228 28.0 L 162.3 19.0 L 172.3 28.0 L 172.3 32.0 L 138.3 32.0 L 138.3 49.0 L 171.4 49.0 L 177.4 44.0 L 188.4 53.0 L 183.4 56.0 L 180.49346733093262 57.211055278778076 L 177.9 61.6 L 175.1 66.0 L 173.6 68.3 L 172.0 70.5 L 170.3 72.8 L 169.0 75.3 L 167.3 74.6 L 168.1 71.9 L 168.4 69.1 L 168.7 66.4 L 169.1 63.7 L 169.6 61.1 L 170.0 58.6 L 170.5 56.1 L 170.9 53.6 L 171.0 53.0 L 103.5 53.0 L 103.5 80.96747970581055 L 123.2 77.7642276763916 L 123.2 55.0 L 135.2 57.0 L 138.2 59.0 L 135.2 60.8 L 135.2 75.81300811767578 L 143.0202880859375 74.54141654968262 L 151.3 63.0 L 164.8 71.0 L 165.4 74.9 L 135.2 79.81056909561157 L 135.2 92.0 L 135.3 93.2 L 135.4 94.1 L 135.6 94.7 L 135.8 95.0 L 136.2 95.4 L 137.1 95.7 L 138.0 95.9 L 139.2 96.0 L 171.4 96.0 Z " />
</g>
</svg>
