<svg xmlns="http://www.w3.org/2000/svg" xmlns:xlink="http://www.w3.org/1999/xlink" version="1.1" baseProfile="full" viewBox="0 0 200 200" width="200" height="200">
<g fill="black">
<path d="M 158.1 182.1 L 156.2 183.5 L 154.2 184.7 L 152.0 185.7 L 149.8 186.5 L 147.6 187.1 L 145.2 187.6 L 142.9 187.9 L 140.5 188.0 L 140.5 182.0 L 120.5 179.0 L 120.5 176.0 L 140.5 176.0 L 142.0 175.9 L 144.8 175.5 L 146.1 175.1 L 147.4 174.6 L 148.6 174.1 L 149.7 173.4 L 150.9 172.6 L 152.0 171.7 L 153.1 170.6 L 155.1 168.2 L 157.1 165.0 L 159.1 161.0 L 160.9 156.3 L 162.6 150.8 L 164.1 144.6 L 165.4 137.7 L 166.5 130.0 L 167.5 121.6 L 168.080219745636 115.0 L 84.83022842407226 115.0 L 83.0 127.7 L 70.2 131.9 L 80.2 63.2 L 90.04210529327392 70.0 L 163.2 70.0 L 163.2 34.0 L 74.8 34.0 L 74.8 30.0 L 163.2 30.0 L 169.2 25.0 L 180.2 34.0 L 175.2 38.0 L 175.2 80.0 L 163.2 86.0 L 163.2 74.0 L 90.73884010314941 74.0 L 85.40667839050293 111.0 L 168.3 111.0 L 174.3 106.0 L 185.3 115.0 L 180.3 118.0 L 179.7904411315918 118.21231613159179 L 179.4 122.8 L 178.4 131.6 L 177.2 139.7 L 175.8 147.1 L 174.1 154.0 L 172.2 160.2 L 170.1 165.8 L 167.6 170.8 L 164.9 175.2 L 161.7 179.0 L 160.0 180.6 Z M 35.7 144.0 L 38.1 149.7 L 39.8 155.7 L 41.0 161.8 L 41.4 168.2 L 41.3 174.7 L 39.0 178.6 L 34.6 179.9 L 30.6 177.6 L 29.4 173.2 L 30.1 167.9 L 30.3 162.6 L 30.0 157.4 L 29.1 152.3 L 27.8 147.2 L 25.9 142.1 L 23.5 137.0 L 20.5 131.9 L 17.1 126.7 L 13.1 121.3 L 14.3 120.0 L 19.8 124.1 L 24.7 128.6 L 26.66775417327881 130.7965627670288 L 28.2 128.8 L 31.7 123.7 L 35.6 117.8 L 39.7 111.1 L 44.2 103.6 L 48.9 95.5 L 53.9 86.5 L 59.2 76.9 L 64.9 66.6 L 71.1 55.6 L 72.8 56.3 L 68.4 68.2 L 64.0 79.2 L 59.8 89.4 L 55.6 98.9 L 51.7 107.6 L 47.9 115.5 L 44.3 122.7 L 40.9 129.2 L 37.7 135.0 L 34.7 140.0 L 33.99061098098755 141.02235469818115 Z M 40.9 52.9 L 39.3 50.4 L 37.6 47.9 L 35.5 45.4 L 33.2 42.9 L 30.7 40.4 L 27.9 37.9 L 24.9 35.4 L 21.5 33.2 L 22.2 31.5 L 30.2 34.1 L 33.8 35.7 L 37.3 37.4 L 40.6 39.4 L 43.7 41.6 L 46.6 44.0 L 49.2 46.7 L 51.7 49.5 L 53.8 52.5 L 54.2 57.0 L 51.4 60.6 L 46.8 61.0 L 43.2 58.1 L 42.2 55.5 Z " />
</g>
</svg>
