<svg xmlns="http://www.w3.org/2000/svg" xmlns:xlink="http://www.w3.org/1999/xlink" version="1.1" baseProfile="full" viewBox="0 0 200 200" width="200" height="200">
<g fill="black">
<path d="M 154.6 180.9 L 152.7 182.3 L 150.7 183.6 L 148.6 184.6 L 146.4 185.5 L 144.1 186.1 L 141.8 186.6 L 139.4 186.9 L 137.0 187.0 L 137.0 181.0 L 117.0 178.0 L 117.0 175.0 L 137.0 175.0 L 138.5 174.9 L 139.9 174.7 L 141.2 174.5 L 142.5 174.1 L 143.7 173.6 L 144.9 173.0 L 146.0 172.3 L 147.2 171.5 L 148.2 170.6 L 149.3 169.5 L 151.7 166.3 L 154.0 161.9 L 156.2 156.3 L 158.1 149.4 L 159.7 141.4 L 161.0 132.2 L 162.0 121.8 L 162.7 110.3 L 163.0 97.7 L 163.0 86.0 L 122.73913040161133 86.0 L 120.9 100.1 L 117.6 115.1 L 113.0 129.0 L 107.3 141.8 L 100.3 153.5 L 92.1 164.0 L 82.7 173.2 L 72.1 181.1 L 60.4 187.7 L 59.5 186.2 L 69.8 178.1 L 79.0 169.3 L 87.0 159.8 L 93.9 149.4 L 99.6 138.1 L 104.3 125.9 L 107.9 112.7 L 110.3 98.5 L 111.7 83.2 L 112.0 67.0 L 112.0 37.0 L 82.0 37.0 L 82.0 33.0 L 166.0 33.0 L 176.0 23.0 L 188.0 33.0 L 188.0 37.0 L 124.0 37.0 L 124.0 67.0 L 123.11764707565308 82.0 L 163.0 82.0 L 169.0 77.0 L 180.0 86.0 L 175.0 89.0 L 174.9366171836853 89.02640953063965 L 175.0 97.9 L 174.7 110.8 L 174.0 122.7 L 173.0 133.6 L 171.6 143.4 L 169.8 152.2 L 167.6 160.0 L 165.0 166.8 L 161.9 172.7 L 158.1 177.7 L 156.4 179.4 Z M 14.1 150.9 L 19.9 149.4 L 26.0 147.7 L 32.5 145.8 L 39.3 143.7 L 44.0 142.17746477127076 L 44.0 72.0 L 15.0 72.0 L 15.0 68.0 L 44.0 68.0 L 44.0 17.0 L 56.0 19.0 L 59.0 21.0 L 56.0 22.8 L 56.0 68.0 L 65.0 68.0 L 75.0 58.0 L 87.0 68.0 L 87.0 72.0 L 56.0 72.0 L 56.0 138.3088607788086 L 61.8 136.4 L 70.0 133.7 L 78.6 130.9 L 87.6 128.1 L 88.3 129.8 L 80.0 134.4 L 72.0 138.6 L 64.2 142.5 L 56.7 146.0 L 49.5 149.3 L 42.5 152.4 L 35.9 155.2 L 29.5 157.8 L 23.4 160.2 L 21.585633850097658 160.90028171539308 L 20.5 164.7 L 17.7 162.4 L 12.2 151.5 Z " />
</g>
</svg>
