<svg xmlns="http://www.w3.org/2000/svg" xmlns:xlink="http://www.w3.org/1999/xlink" version="1.1" baseProfile="full" viewBox="0 0 200 200" width="200" height="200">
<g fill="black">
<path d="M 98.4333333015442 92.3166666984558 L 100.9 91.7 L 108.6 90.0 L 116.1 88.3 L 123.3 86.7 L 130.2 85.0 L 136.8 83.4 L 143.2 81.7 L 149.3 80.0 L 155.1 78.2 L 160.6 76.4 L 160.99009370803833 77.77123851776123 L 170.9 86.0 L 171.1 89.1 L 166.85 87.15714282989502 L 163.9 88.0 L 159.25890665054322 89.00557022094726 L 160.7 99.7 L 162.6 112.8 L 164.8 124.7 L 167.2 135.6 L 169.9 145.4 L 173.0 154.0 L 176.3 161.5 L 179.8 167.9 L 183.6 173.1 L 187.5 177.2 L 188.8 178.6 L 178.1 186.5 L 173.5 180.5 L 169.5 173.7 L 166.1 165.9 L 163.3 157.3 L 160.9 147.7 L 159.0 137.2 L 157.6 125.8 L 156.8 113.4 L 156.5 100.0 L 156.86772212982177 89.48314609527588 L 151.7 90.4 L 145.3 91.5 L 138.6 92.5 L 133.5 93.16521739959717 L 133.5 167.42272729873656 L 139.2 166.3 L 146.2 165.0 L 150.16739130020142 164.40217390060425 L 150.1 164.2 L 148.5 160.1 L 146.7 155.7 L 144.7 151.0 L 142.5 146.1 L 140.1 140.9 L 141.6 139.9 L 145.4 144.3 L 148.9 148.5 L 152.1 152.6 L 154.9 156.7 L 157.5 160.6 L 159.7 164.5 L 161.7 168.2 L 163.3 171.8 L 164.8 175.3 L 165.9 178.7 L 164.9 183.2 L 161.1 185.7 L 156.6 184.7 L 154.1 180.9 L 153.8 178.1 L 153.3 175.1 L 152.5 171.7 L 151.4 168.1 L 151.02543106079102 166.97629308700562 L 147.3 168.7 L 140.7 171.4 L 134.4 173.9 L 133.5 174.22459020614625 L 133.5 174.9 L 131.62727270126342 174.9 L 128.3 176.1 L 122.4 178.2 L 116.8 180.2 L 111.4 182.0 L 106.2 183.6 L 101.3 185.2 L 100.72416791915893 185.37525329589843 L 99.3 189.1 L 96.7 186.6 L 92.1 175.3 L 94.0 174.9 L 98.7 174.1 L 103.6 173.2 L 108.9 172.3 L 114.4 171.2 L 120.2 170.1 L 121.5 169.81833333969115 L 121.5 94.43999996185303 L 117.0 94.8 L 109.3 95.3 L 101.4 95.5 L 99.0 95.47108430862427 L 99.0 133.3 L 98.5 141.1 L 97.5 148.6 L 95.9 155.5 L 93.9 162.1 L 91.4 168.1 L 88.4 173.7 L 84.9 178.7 L 80.8 183.1 L 76.3 186.8 L 71.3 189.8 L 70.2 188.3 L 73.7 184.0 L 76.7 179.6 L 79.4 175.0 L 81.6 170.2 L 83.5 165.0 L 85.0 159.4 L 86.1 153.5 L 86.8 147.2 L 87.1 140.4 L 87.0 133.3 L 87.0 86.6 Z M 13.8 151.0 L 18.8 149.5 L 24.1 147.7 L 29.7 145.8 L 35.6 143.8 L 39.2 142.46451616287231 L 39.2 72.0 L 14.9 72.0 L 14.9 68.0 L 39.2 68.0 L 39.2 17.0 L 51.2 19.0 L 54.2 21.0 L 51.2 22.8 L 51.2 68.0 L 55.2 68.0 L 65.2 58.0 L 77.2 68.0 L 77.2 72.0 L 51.2 72.0 L 51.2 137.8911765098572 L 55.1 136.4 L 62.2 133.7 L 69.8 130.9 L 77.7 128.1 L 78.5 129.8 L 71.4 134.4 L 64.6 138.6 L 57.9 142.4 L 51.4 145.9 L 45.2 149.2 L 39.2 152.3 L 33.5 155.1 L 28.1 157.7 L 22.9 160.1 L 21.717978286743165 160.62008953094482 L 20.8 164.4 L 17.9 162.3 L 12.0 151.6 Z M 118.4 43.8 L 121.0 46.3 L 117.18461542129516 47.78376064300537 L 116.6 49.7 L 114.1 55.3 L 110.9 60.4 L 107.0 64.9 L 102.4 69.0 L 97.2 72.5 L 91.4 75.5 L 85.0 78.0 L 77.9 80.0 L 70.3 81.3 L 69.8 79.6 L 76.7 76.4 L 82.8 73.1 L 88.2 69.8 L 92.8 66.3 L 96.7 62.6 L 100.0 58.8 L 102.5 54.9 L 104.4 50.7 L 105.8 46.4 L 106.5 41.8 L 106.53707160949708 41.806230545043945 L 106.8 39.9 Z M 178.6376205444336 44.293247604370116 L 177.2 45.9 L 175.3 47.9 L 173.3 50.0 L 171.1 52.2 L 168.8 54.4 L 166.7 57.0 L 165.2 55.9 L 166.7 53.1 L 167.8 50.0 L 168.9 47.2 L 169.9 44.6 L 170.9 42.1 L 171.7 39.7 L 172.4 37.5 L 172.8 36.3 L 147.0 36.3 L 147.0 60.4 L 147.2 61.3 L 147.4 61.9 L 147.5 62.3 L 147.7 62.4 L 147.9 62.6 L 148.2 62.8 L 148.8 63.0 L 149.7 63.1 L 151.0 63.2 L 174.1 63.2 Z M 67.7 59.7 L 66.6 55.2 L 68.8 51.2 L 69.9 50.8 L 71.1 49.8 L 72.4 48.4 L 73.7 46.5 L 74.9 44.1 L 76.0 41.1 L 77.1 37.7 L 78.0 33.9 L 78.9 29.6 L 79.3 24.9 L 81.1 24.9 L 81.6 29.7 L 81.95454549789429 32.3 L 121.5 32.3 L 121.5 9.4 L 133.5 11.4 L 136.5 13.4 L 133.5 15.2 L 133.5 32.3 L 173.4 32.3 L 173.9707317352295 31.82439022064209 L 174.0 31.7 L 174.0760563850403 31.736619758605958 L 179.4 27.3 L 190.4 36.3 L 185.4 39.3 L 181.89517240524293 40.76034479141235 L 180.1 63.2 L 183.7 65.6 L 186.1 69.2 L 183.7 72.8 L 180.1 75.2 L 151.0 75.2 L 148.4 75.0 L 145.9 74.6 L 143.5 73.8 L 141.2 72.6 L 139.2 70.9 L 137.6 68.9 L 136.3 66.6 L 135.5 64.2 L 135.1 61.7 L 135.0 59.2 L 135.0 36.3 L 82.35714282989503 36.3 L 82.5 38.3 L 82.6 42.3 L 82.3 45.9 L 81.8 49.3 L 81.0 52.5 L 79.8 55.5 L 78.2 58.3 L 76.1 60.8 L 71.7 61.9 Z " />
</g>
</svg>
