<svg xmlns="http://www.w3.org/2000/svg" xmlns:xlink="http://www.w3.org/1999/xlink" version="1.1" baseProfile="full" viewBox="0 0 200 200" width="200" height="200">
<g fill="black">
<path d="M 152.8 176.3 L 143.2 170.3 L 134.7 163.7 L 127.1 156.6 L 120.5 149.0 L 114.9 140.8 L 110.5 132.2 L 107.3 123.0 L 105.46842107772827 114.3 L 104.18760328292846 114.3 L 101.6 124.4 L 96.7 135.7 L 90.0 146.1 L 81.5 155.4 L 71.3 163.8 L 59.5 171.2 L 46.0 177.6 L 30.9 183.0 L 14.2 187.3 L 13.7 185.6 L 29.6 179.4 L 43.8 172.7 L 56.1 165.5 L 66.7 157.8 L 75.4 149.5 L 82.4 140.6 L 87.7 131.2 L 91.4 121.2 L 92.76698112487793 114.3 L 17.0 114.3 L 17.0 110.3 L 93.51327438354492 110.3 L 94.0 99.3 L 94.0 71.4 L 27.0 71.4 L 27.0 67.4 L 126.84285717010498 67.4 L 128.9 62.6 L 131.6 56.7 L 134.3 51.0 L 136.9 45.5 L 139.4 40.2 L 141.8 35.2 L 144.1 30.3 L 146.2 25.6 L 148.3 21.0 L 149.71990756988527 17.60799856185913 L 149.7 17.6 L 149.842857170105 17.31428575515747 L 150.1 16.7 L 150.13999996185302 16.719999980926513 L 150.7 15.6 L 160.9 22.1 L 162.6 25.3 L 158.84092464447022 25.55924654006958 L 158.4 26.3 L 155.7 30.6 L 152.9 35.1 L 149.9 39.7 L 146.8 44.4 L 143.4 49.3 L 139.9 54.3 L 136.2 59.4 L 132.1 64.6 L 129.7307692527771 67.4 L 151.0 67.4 L 161.0 57.4 L 173.0 67.4 L 173.0 71.4 L 106.0 71.4 L 106.0 99.3 L 104.9 110.3 L 161.0 110.3 L 171.0 100.3 L 183.0 110.3 L 183.0 114.3 L 107.72705879211426 114.3 L 111.2 121.5 L 115.7 129.4 L 120.9 136.8 L 126.8 143.6 L 133.5 149.9 L 140.9 155.7 L 149.2 161.0 L 158.3 165.8 L 168.3 170.2 L 179.2 174.1 L 186.3 176.7 L 174.7 186.6 L 163.3 181.7 Z M 50.0 49.7 L 48.5 45.9 L 46.8 42.3 L 44.9 38.8 L 42.8 35.4 L 40.5 32.1 L 38.0 28.8 L 35.3 25.4 L 32.3 22.3 L 33.3 20.8 L 37.3 22.9 L 41.2 25.1 L 44.9 27.8 L 48.3 30.8 L 51.4 34.0 L 54.4 37.5 L 57.1 41.2 L 59.5 45.1 L 61.7 49.3 L 63.7 53.7 L 63.3 58.3 L 59.9 61.3 L 55.3 60.9 L 52.3 57.5 L 51.2 53.5 Z M 93.9 43.8 L 92.5 39.7 L 90.8 35.8 L 89.0 32.0 L 87.0 28.4 L 84.8 24.9 L 82.5 21.6 L 80.0 18.2 L 77.2 15.0 L 78.3 13.6 L 82.2 15.6 L 86.0 18.0 L 89.5 20.8 L 92.8 24.0 L 95.8 27.5 L 98.7 31.2 L 101.3 35.3 L 103.7 39.6 L 105.9 44.2 L 107.8 49.0 L 107.3 53.6 L 103.8 56.5 L 99.3 56.0 L 96.3 52.5 L 95.2 48.0 Z " />
</g>
</svg>
