<svg xmlns="http://www.w3.org/2000/svg" xmlns:xlink="http://www.w3.org/1999/xlink" version="1.1" baseProfile="full" viewBox="0 0 200 200" width="200" height="200">
<g fill="black">
<path d="M 62.6 149.3 L 59.0 145.6 L 55.1 142.1 L 53.711917304992674 141.0093635559082 L 47.1 152.7 L 39.3 163.7 L 30.8 173.5 L 21.3 181.8 L 11.1 188.7 L 10.1 187.2 L 18.8 179.0 L 26.8 169.9 L 34.0 159.9 L 40.5 148.9 L 46.3 136.9 L 46.69207973480225 135.8727511405945 L 46.3 135.6 L 41.3 132.6 L 35.9 129.7 L 30.2 126.9 L 24.1 124.1 L 24.122222232818604 124.0 L 20.6 124.0 L 32.12406902313232 63.0 L 15.7 63.0 L 15.7 59.0 L 32.879745674133304 59.0 L 41.4 13.9 L 52.9 18.0 L 55.4 20.6 L 52.225115585327146 21.57688751220703 L 45.164150905609134 59.0 L 64.1 59.0 L 70.1 54.0 L 81.1 63.0 L 76.1 66.0 L 75.37244091033935 66.30314960479737 L 73.3 79.7 L 69.7 96.6 L 65.3 112.4 L 60.0 127.1 L 57.44214782714844 132.81253652572633 L 60.6 134.6 L 65.5 137.9 L 70.1 141.6 L 74.3 145.6 L 78.2 150.0 L 79.3 154.4 L 77.0 158.4 L 72.5 159.4 L 68.6 157.1 L 65.7 153.1 Z M 101.3 26.0 L 159.7 26.0 L 165.7 21.0 L 176.7 30.0 L 171.7 33.0 L 171.6 33.04166669845581 L 171.6 66.4 L 172.0 97.8 L 172.9 122.7 L 174.2 142.0 L 175.8 156.2 L 177.8 166.0 L 179.01281461715698 169.57780323028564 L 183.3 151.0 L 185.3 151.0 L 183.39433965682983 175.7735849380493 L 184.3 176.0 L 188.1 178.6 L 189.2 183.0 L 186.6 186.8 L 182.2 187.9 L 177.4 186.4 L 172.6 182.7 L 169.0 177.0 L 166.2 169.0 L 164.0 158.0 L 162.2 143.0 L 160.9 123.3 L 160.0 98.1 L 159.6 66.5 L 159.6 30.0 L 101.3 30.0 L 101.3 82.0 L 100.6 98.5 L 99.3 113.9 L 97.3 127.9 L 94.7 140.7 L 91.3 152.2 L 87.3 162.4 L 82.5 171.2 L 77.0 178.6 L 70.7 184.5 L 63.8 188.7 L 62.9 187.2 L 68.1 181.7 L 72.7 175.4 L 76.7 168.0 L 80.3 159.5 L 83.2 149.7 L 85.6 138.7 L 87.4 126.5 L 88.6 112.9 L 89.2 98.1 L 89.3 82.0 L 89.3 20.0 Z M 139.6 131.1 L 136.6 122.8 L 133.4 114.7 L 132.3064817428589 112.19134044647217 L 130.1 116.4 L 124.2 126.1 L 117.7 135.3 L 110.6 143.8 L 103.0 151.6 L 94.8 158.6 L 93.5 157.3 L 100.2 149.0 L 106.4 140.4 L 112.3 131.5 L 117.6 122.2 L 122.6 112.5 L 127.0 102.3 L 127.31498775482177 101.45740766525269 L 126.3 99.4 L 122.4 92.1 L 118.2 85.0 L 114.0 78.1 L 109.5 71.3 L 110.9 70.1 L 116.9 75.7 L 122.6 81.9 L 127.9 88.5 L 130.6762402534485 92.46605739593505 L 131.0 91.6 L 134.4 80.5 L 137.4 68.9 L 139.2967212677002 60.0 L 106.3 60.0 L 106.3 56.0 L 139.9 56.0 L 145.9 51.0 L 156.9 60.0 L 151.9 63.0 L 150.5871642112732 63.54701490402222 L 148.5 71.7 L 144.7 83.7 L 140.4 95.2 L 137.17123098373412 102.3823637008667 L 137.5 102.9 L 141.8 110.7 L 145.9 118.9 L 149.6 127.4 L 153.1 136.2 L 156.3 145.4 L 155.7 149.9 L 152.2 152.8 L 147.7 152.3 L 144.7 148.8 L 142.3 139.8 Z M 44.409433937072755 63.0 L 32.96443510055542 123.65849370956421 L 37.8 124.7 L 44.0 126.6 L 49.412139892578125 128.74619340896606 L 51.3 123.8 L 55.6 109.6 L 59.2 94.3 L 62.1 77.9 L 63.793181800842284 63.0 Z " />
</g>
</svg>
