<svg xmlns="http://www.w3.org/2000/svg" xmlns:xlink="http://www.w3.org/1999/xlink" version="1.1" baseProfile="full" viewBox="0 0 200 200" width="200" height="200">
<g fill="black">
<path d="M 61.2 147.5 L 58.0 143.4 L 54.5 139.5 L 53.35384616851807 138.35384616851806 L 52.4 140.5 L 45.6 152.7 L 37.9 163.7 L 29.5 173.4 L 20.1 181.8 L 10.0 188.7 L 9.0 187.2 L 17.6 179.0 L 25.4 169.9 L 32.6 159.9 L 39.0 148.9 L 44.7 136.9 L 46.47163753509521 132.25830965042115 L 46.4 132.2 L 41.9 128.8 L 37.0 125.5 L 32.14026584625244 122.56582088470459 L 30.2 133.1 L 17.3 136.8 L 30.87103338241577 63.0 L 14.6 63.0 L 14.6 59.0 L 31.606590747833252 59.0 L 39.9 13.9 L 51.4 18.0 L 53.9 20.5 L 50.761672019958496 21.46563940048218 L 43.848305797576906 59.0 L 62.3 59.0 L 68.3 54.0 L 79.3 63.0 L 74.3 66.0 L 73.57244091033935 66.30314960479737 L 71.5 79.7 L 68.0 96.6 L 63.6 112.4 L 58.4 127.0 L 57.08991451263428 129.94769229888917 L 60.7 132.6 L 65.3 136.5 L 69.5 140.8 L 73.4 145.4 L 77.0 150.3 L 77.6 154.8 L 74.9 158.5 L 70.3 159.1 L 66.7 156.4 L 64.1 151.9 Z M 114.3 183.0 L 111.8 182.6 L 109.4 181.8 L 107.1 180.5 L 105.1 178.9 L 103.5 176.9 L 102.3 174.6 L 101.5 172.2 L 101.0 169.7 L 100.9 167.2 L 100.9 127.7 L 112.9 129.7 L 115.9 131.7 L 112.9 133.5 L 112.9 168.4 L 113.1 169.3 L 113.3 169.9 L 113.5 170.2 L 113.6 170.4 L 113.8 170.6 L 114.7 170.9 L 115.6 171.1 L 116.9 171.2 L 155.4 171.2 L 161.4 146.2 L 163.4 146.2 L 161.4 171.2 L 165.0 173.6 L 167.4 177.2 L 165.0 180.7 L 161.4 183.2 L 116.9 183.2 Z M 72.4 175.4 L 70.9 171.1 L 72.7 166.9 L 74.5 165.5 L 76.3 163.6 L 78.0 161.1 L 79.6 158.1 L 81.1 154.5 L 82.4 150.4 L 83.6 145.8 L 84.7 140.6 L 85.7 135.0 L 86.5 128.8 L 88.3 128.7 L 89.1 135.0 L 89.6 140.9 L 89.8 146.5 L 89.6 151.7 L 89.0 156.5 L 88.2 161.0 L 87.0 165.2 L 85.4 169.1 L 83.3 172.6 L 80.9 175.7 L 76.5 177.3 Z M 175.2 159.2 L 174.3 155.5 L 173.2 151.9 L 171.8 148.4 L 170.3 144.9 L 168.6 141.4 L 166.7 137.9 L 164.6 134.4 L 162.2 131.0 L 163.4 129.7 L 166.9 132.2 L 170.3 134.9 L 173.4 137.8 L 176.3 141.0 L 178.9 144.5 L 181.2 148.1 L 183.4 151.9 L 185.2 155.9 L 186.8 160.1 L 188.2 164.5 L 187.3 169.0 L 183.5 171.5 L 179.0 170.6 L 176.4 166.8 L 175.9 163.0 Z M 133.4 144.9 L 132.3 142.0 L 131.1 139.3 L 129.8 136.6 L 128.4 134.0 L 126.9 131.5 L 125.2 129.0 L 123.4 126.5 L 121.3 124.3 L 122.3 122.8 L 125.1 124.4 L 128.0 125.9 L 130.8 127.7 L 133.4 129.7 L 135.9 132.0 L 138.3 134.5 L 140.5 137.2 L 142.6 140.1 L 144.6 143.2 L 146.4 146.5 L 146.2 151.1 L 142.9 154.3 L 138.4 154.1 L 135.2 150.9 L 134.3 147.8 Z M 43.11155519485474 63.0 L 32.847853660583496 118.72415313720703 L 33.2 118.8 L 39.3 120.7 L 45.1 123.1 L 49.17530508041382 125.17470073699951 L 49.7 123.8 L 54.0 109.6 L 57.5 94.3 L 60.3 77.9 L 61.99318180084229 63.0 Z M 122.2 19.2 L 124.2 22.2 L 120.49499998092651 22.719999980926513 L 119.1 25.6 L 115.7 31.7 L 115.51379308700561 32.0 L 143.3 32.0 L 149.3 27.0 L 160.3 36.0 L 155.3 39.0 L 152.36000003814698 40.225 L 151.8 41.1 L 150.2 43.5 L 148.4 46.0 L 146.5 48.5 L 144.5 51.1 L 142.4 53.6 L 140.1 56.2 L 137.7 58.7 L 137.44444446563722 59.0 L 156.9 59.0 L 162.9 54.0 L 173.9 63.0 L 168.9 67.0 L 168.9 85.0 L 174.0777777671814 85.0 L 180.3 78.0 L 188.3 85.0 L 188.3 89.0 L 168.9 89.0 L 168.9 117.0 L 156.9 123.0 L 156.9 117.0 L 99.5 117.0 L 99.5 113.0 L 156.9 113.0 L 156.9 89.0 L 83.0 89.0 L 83.0 85.0 L 156.9 85.0 L 156.9 63.0 L 99.5 63.0 L 99.5 59.0 L 134.603125 59.0 L 135.4 57.3 L 136.5 54.0 L 137.7 50.8 L 138.8 47.8 L 139.8 44.9 L 140.8 42.1 L 141.6 39.3 L 142.4 36.7 L 142.5884614944458 36.0 L 113.03103446960449 36.0 L 112.1 37.5 L 108.2 43.0 L 104.1 48.2 L 99.7 53.1 L 95.1 57.6 L 90.2 61.7 L 85.1 65.4 L 79.6 68.7 L 78.5 67.2 L 82.6 62.6 L 86.5 57.9 L 90.3 53.2 L 93.8 48.2 L 97.2 43.2 L 100.4 37.9 L 103.4 32.4 L 106.2 26.7 L 108.8 20.7 L 111.1 14.6 L 111.15829830169677 14.624159622192384 L 111.7 13.3 Z " />
</g>
</svg>
