<svg xmlns="http://www.w3.org/2000/svg" xmlns:xlink="http://www.w3.org/1999/xlink" version="1.1" baseProfile="full" viewBox="0 0 200 200" width="200" height="200">
<g fill="black">
<path d="M 145.8 177.6 L 135.8 173.6 L 125.5 169.8 L 114.8 166.1 L 111.24519777297974 164.96892652511596 L 100.2 171.5 L 87.3 177.1 L 73.0 181.5 L 57.1 184.8 L 39.8 186.7 L 21.0 187.4 L 20.9 185.6 L 39.3 183.0 L 56.1 179.5 L 71.1 175.2 L 84.5 170.1 L 96.2 164.1 L 100.02831649780273 161.43177947998046 L 92.5 159.1 L 80.9 155.8 L 69.0 152.5 L 62.04501352310181 150.6187331199646 L 61.5 151.3 L 57.0 156.6 L 52.4 161.8 L 43.5 153.6 L 48.0 148.7 L 52.3 143.6 L 56.4 138.4 L 60.5 133.1 L 64.4 127.6 L 66.0285714149475 125.2 L 15.0 125.2 L 15.0 121.2 L 68.71929826736451 121.2 L 71.9 116.3 L 75.4 110.4 L 78.9 104.4 L 81.71711130142212 99.10724534988404 L 81.7 99.1 L 82.7 97.2 L 92.8 103.8 L 94.5 106.9 L 91.02583894729614 107.13959732055665 L 89.4 110.2 L 85.8 116.5 L 82.94918031692505 121.2 L 163.0 121.2 L 173.0 111.2 L 185.0 121.2 L 185.0 125.2 L 141.57288131713867 125.2 L 136.7 136.7 L 130.0 147.2 L 121.6 156.6 L 119.31309251785278 158.47110605239868 L 128.3 160.9 L 139.1 164.1 L 149.6 167.5 L 159.7 171.1 L 169.6 175.0 L 172.7 178.4 L 172.7 182.9 L 169.4 186.0 L 164.8 186.0 L 155.4 181.7 Z M 80.41000003814698 125.2 L 78.2 128.6 L 74.3 134.5 L 70.1 140.2 L 65.9 145.8 L 64.01056442260742 148.16179447174073 L 69.8 148.8 L 82.1 150.6 L 94.1 152.8 L 105.8 155.2 L 107.772243309021 155.66711025238038 L 114.5 149.5 L 121.2 141.0 L 126.5 131.6 L 128.78571424484252 125.2 Z M 80.7 87.5 L 78.4 84.7 L 75.7 81.8 L 72.8 79.0 L 69.5 76.1 L 66.0 73.2 L 62.1 70.3 L 58.0 67.2 L 54.78975744247437 65.05983829498291 L 52.0 70.7 L 46.3 79.0 L 39.7 86.2 L 32.1 92.3 L 23.6 97.1 L 14.3 100.8 L 13.6 99.1 L 21.7 93.9 L 28.8 88.0 L 34.9 81.6 L 40.1 74.5 L 44.5 66.7 L 47.9 58.1 L 50.5 48.7 L 52.2 38.4 L 53.0 27.2 L 53.0 16.0 L 52.9 12.7 L 65.0 14.9 L 68.0 16.8 L 64.8199234008789 18.77164754867554 L 64.4 27.8 L 62.8 39.9 L 60.2 51.1 L 56.6 61.4 L 55.77175636291504 63.07449245452881 L 59.5 64.2 L 64.5 65.9 L 69.2 67.9 L 73.6 70.1 L 77.7 72.4 L 81.5 74.8 L 85.1 77.4 L 88.4 80.1 L 91.4 83.0 L 94.1 86.0 L 95.1 90.5 L 92.7 94.4 L 88.2 95.4 L 84.3 93.0 L 82.6 90.2 Z M 169.1 90.2 L 166.5 87.0 L 163.5 83.7 L 160.2 80.5 L 156.5 77.3 L 152.5 74.1 L 148.1 70.9 L 143.5 67.6 L 139.1944881439209 64.67225198745727 L 135.9 70.8 L 129.8 79.1 L 122.6 86.3 L 114.5 92.3 L 105.3 97.2 L 95.3 100.8 L 94.6 99.1 L 103.5 93.8 L 111.3 88.0 L 118.1 81.5 L 123.8 74.4 L 128.5 66.6 L 132.3 58.0 L 135.1 48.6 L 137.0 38.3 L 138.0 27.1 L 138.0 16.0 L 137.9 12.7 L 150.0 14.9 L 153.0 16.8 L 149.79054594039917 18.789861488342286 L 149.3 27.9 L 147.6 40.0 L 144.8 51.2 L 140.9 61.5 L 140.20645418167115 62.78999528884888 L 145.1 64.2 L 150.7 66.3 L 155.9 68.6 L 160.8 71.1 L 165.3 73.8 L 169.6 76.7 L 173.5 79.8 L 177.1 83.1 L 180.4 86.5 L 183.3 90.2 L 184.1 94.7 L 181.6 98.5 L 177.1 99.2 L 173.3 96.7 L 171.4 93.5 Z M 106.2 65.4 L 103.9 61.4 L 104.9 57.0 L 106.7 55.0 L 108.3 52.9 L 109.7 50.7 L 111.0 48.2 L 112.2 45.6 L 113.1 42.7 L 114.0 39.6 L 114.6 36.3 L 115.2 32.8 L 115.2 29.1 L 117.0 28.8 L 117.9 32.6 L 118.9 36.2 L 119.5 39.9 L 119.8 43.5 L 119.7 47.1 L 119.3 50.6 L 118.6 54.1 L 117.6 57.5 L 116.2 60.9 L 114.6 64.1 L 110.6 66.4 Z M 21.2 65.4 L 18.9 61.4 L 19.9 57.0 L 21.7 55.0 L 23.3 52.9 L 24.7 50.7 L 26.0 48.2 L 27.2 45.6 L 28.1 42.7 L 29.0 39.6 L 29.6 36.3 L 30.2 32.8 L 30.2 29.1 L 32.0 28.8 L 32.9 32.6 L 33.9 36.2 L 34.5 39.9 L 34.8 43.5 L 34.7 47.1 L 34.3 50.6 L 33.6 54.1 L 32.6 57.5 L 31.2 60.9 L 29.6 64.1 L 25.6 66.4 Z M 181.8 30.7 L 183.5 33.8 L 179.29332475662233 34.017586612701415 L 177.5 36.3 L 175.1 39.1 L 172.6 41.8 L 169.9 44.4 L 167.0 47.0 L 163.9 49.5 L 160.6 52.0 L 157.1 54.2 L 153.5 56.6 L 152.4 55.3 L 155.1 52.1 L 157.4 48.7 L 159.7 45.5 L 161.8 42.4 L 163.8 39.4 L 165.6 36.4 L 167.3 33.5 L 168.7 30.6 L 170.0 27.8 L 170.79641695022582 25.941693782806396 L 170.7 25.9 L 171.7 24.0 Z M 96.8 30.7 L 98.5 33.8 L 94.29332475662231 34.017586612701415 L 92.5 36.3 L 90.1 39.1 L 87.6 41.8 L 84.9 44.4 L 82.0 47.0 L 78.9 49.5 L 75.6 52.0 L 72.1 54.2 L 68.5 56.6 L 67.4 55.3 L 70.1 52.1 L 72.4 48.7 L 74.7 45.5 L 76.8 42.4 L 78.8 39.4 L 80.6 36.4 L 82.3 33.5 L 83.7 30.6 L 85.0 27.8 L 85.79641695022583 25.941693782806396 L 85.7 25.9 L 86.7 24.0 Z " />
</g>
</svg>
