<svg xmlns="http://www.w3.org/2000/svg" xmlns:xlink="http://www.w3.org/1999/xlink" version="1.1" baseProfile="full" viewBox="0 0 200 200" width="200" height="200">
<g fill="black">
<path d="M 57.2 147.4 L 54.3 143.3 L 51.1 139.3 L 50.57448225021362 138.74445266723632 L 49.9 140.4 L 43.5 152.6 L 36.4 163.6 L 28.6 173.4 L 19.9 181.7 L 10.5 188.7 L 9.4 187.2 L 17.2 179.0 L 24.4 170.0 L 30.9 160.0 L 36.8 149.1 L 42.1 137.0 L 43.763599681854245 132.15707664489747 L 43.7 132.1 L 39.6 128.7 L 35.1 125.5 L 31.218373489379882 122.8571904182434 L 29.5 133.0 L 16.7 136.9 L 29.20707893371582 63.0 L 14.6 63.0 L 14.6 59.0 L 29.884052085876466 59.0 L 37.5 14.0 L 49.0 17.9 L 51.6 20.4 L 48.410174179077146 21.38148488998413 L 42.03692445755005 59.0 L 58.2 59.0 L 64.2 54.0 L 75.2 63.0 L 70.2 66.0 L 69.4452088356018 66.31449632644653 L 67.6 79.6 L 64.3 96.5 L 60.2 112.3 L 55.4 126.9 L 54.14017095565796 129.99230766296387 L 57.6 132.7 L 61.8 136.6 L 65.7 140.9 L 69.4 145.5 L 72.7 150.4 L 73.1 155.0 L 70.3 158.6 L 65.7 159.0 L 62.1 156.2 L 59.8 151.7 Z M 116.9 155.6 L 115.7 151.3 L 114.47282419204711 147.53081703186035 L 112.4 149.5 L 108.2 153.0 L 104.0 156.3 L 99.8 159.4 L 95.5 162.3 L 91.2 165.1 L 87.0 167.8 L 82.8 170.3 L 78.5 172.7 L 78.0700665473938 172.93543977737426 L 77.4 176.9 L 74.3 175.0 L 67.6 164.9 L 69.4 164.1 L 78.0 160.7 L 79.0 160.26818180084229 L 79.0 26.0 L 91.0 32.0 L 115.0 32.0 L 121.0 27.0 L 132.0 36.0 L 127.0 40.0 L 127.0 109.0 L 115.0 115.0 L 115.0 105.0 L 91.0 105.0 L 91.0 155.07391300201417 L 91.4 154.9 L 96.0 152.8 L 100.6 150.6 L 105.4 148.4 L 110.4 146.3 L 113.47666273117065 145.03313884735107 L 112.5 142.7 L 110.5 138.3 L 108.2 134.0 L 105.7 129.5 L 102.9 125.0 L 100.0 120.3 L 101.3 119.1 L 105.8 122.5 L 109.9 126.3 L 113.6 130.2 L 116.9 134.3 L 119.9 138.6 L 122.6 143.0 L 125.0 147.6 L 127.1 152.2 L 128.9 157.0 L 130.3 161.9 L 129.3 166.3 L 125.5 168.9 L 121.1 167.9 L 118.5 164.1 L 117.8 159.9 Z M 156.0 146.0 L 166.0 146.0 L 167.2 145.9 L 168.1 145.7 L 169.0 145.4 L 169.4 145.0 L 169.7 144.1 L 169.9 143.2 L 170.0 142.0 L 170.0 36.0 L 151.0 36.0 L 151.0 183.0 L 139.0 189.0 L 139.0 26.0 L 151.0 32.0 L 170.0 32.0 L 176.0 27.0 L 187.0 36.0 L 182.0 40.0 L 182.0 142.0 L 181.8 144.5 L 181.4 147.0 L 180.6 149.4 L 179.3 151.7 L 177.7 153.7 L 175.7 155.3 L 173.4 156.6 L 171.0 157.4 L 168.5 157.8 L 166.0 158.0 L 166.0 152.0 L 156.0 149.0 Z M 41.35925283432007 63.0 L 31.905427646636962 118.80180921554566 L 37.6 120.7 L 43.0 123.1 L 46.26997022628784 124.86075325012207 L 46.6 123.9 L 50.5 109.7 L 53.8 94.4 L 56.3 77.9 L 57.90852270126343 63.0 Z M 91.0 70.0 L 91.0 101.0 L 115.0 101.0 L 115.0 70.0 Z M 91.0 36.0 L 91.0 66.0 L 115.0 66.0 L 115.0 36.0 Z " />
</g>
</svg>
