<svg xmlns="http://www.w3.org/2000/svg" xmlns:xlink="http://www.w3.org/1999/xlink" version="1.1" baseProfile="full" viewBox="0 0 200 200" width="200" height="200">
<g fill="black">
<path d="M 65.7 147.7 L 62.3 143.5 L 58.6 139.6 L 57.0409761428833 138.15505104064943 L 55.9 140.6 L 48.7 152.8 L 40.7 163.8 L 31.8 173.5 L 22.0 181.8 L 11.4 188.7 L 10.4 187.2 L 19.5 178.9 L 27.9 169.8 L 35.4 159.8 L 42.2 148.9 L 48.3 136.8 L 50.09559679031372 132.27647743225097 L 50.0 132.2 L 45.2 128.8 L 39.9 125.5 L 34.48470430374145 122.34928255081176 L 32.4 133.1 L 19.5 136.8 L 33.78000001907348 63.0 L 16.2 63.0 L 16.2 59.0 L 34.553983783721925 59.0 L 43.3 13.8 L 54.7 18.1 L 57.2 20.6 L 54.02962427139282 21.55709457397461 L 46.76895656585693 59.0 L 66.9 59.0 L 72.9 54.0 L 83.9 63.0 L 78.9 66.0 L 78.03744449615479 66.35939807891846 L 75.9 79.7 L 72.2 96.7 L 67.6 112.5 L 62.2 127.1 L 60.873465347290036 129.9425742149353 L 64.6 132.5 L 69.4 136.4 L 73.9 140.7 L 78.0 145.3 L 81.7 150.2 L 82.4 154.7 L 79.8 158.5 L 75.2 159.2 L 71.5 156.6 L 68.8 152.0 Z M 143.9 176.0 L 140.7 172.7 L 137.1 169.3 L 133.0 166.0 L 128.6 162.6 L 123.8 159.2 L 118.6 155.7 L 113.1 152.0 L 107.3 148.2 L 108.0 146.5 L 114.8 148.6 L 121.1 150.9 L 127.0 153.4 L 132.6 156.1 L 137.8 159.0 L 142.6 161.9 L 147.1 164.9 L 151.2 168.1 L 155.0 171.4 L 158.5 174.8 L 159.8 179.2 L 157.7 183.3 L 153.3 184.6 L 149.2 182.5 L 146.8 179.2 Z M 110.9 29.0 L 162.7 29.0 L 168.7 24.0 L 179.7 33.0 L 174.7 37.0 L 174.7 75.0 L 162.7 81.0 L 162.7 69.0 L 143.8556700706482 69.0 L 146.5 78.5 L 149.4 87.7 L 152.6 96.3 L 156.2 104.3 L 160.2 111.8 L 164.6 118.8 L 169.5 125.3 L 174.8 131.3 L 180.5 136.8 L 186.8 141.8 L 189.3 143.9 L 178.4 152.1 L 171.9 145.8 L 165.9 139.1 L 160.6 131.9 L 155.9 124.2 L 151.9 116.1 L 148.5 107.5 L 145.8 98.5 L 143.7 89.1 L 142.4 79.3 L 142.1 69.1 L 142.6666666984558 69.0 L 110.9 69.0 L 110.9 72.0 L 110.3 86.3 L 108.9 99.9 L 106.9 112.8 L 104.3 125.0 L 100.9 136.4 L 96.8 147.1 L 92.0 157.0 L 86.5 166.1 L 80.2 174.3 L 73.2 181.5 L 71.8 180.4 L 77.1 172.1 L 81.9 163.4 L 86.1 154.2 L 89.7 144.4 L 92.7 134.0 L 95.2 122.9 L 97.0 111.2 L 98.3 98.8 L 98.9 85.7 L 98.9 23.0 Z M 132.3 128.5 L 130.7 125.5 L 128.9 122.5 L 126.9 119.6 L 124.8 116.8 L 122.5 114.1 L 117.5 108.7 L 114.6 106.2 L 115.5 104.7 L 122.7 107.7 L 126.2 109.6 L 129.5 111.8 L 132.6 114.2 L 135.6 116.8 L 138.4 119.7 L 141.1 122.8 L 143.6 126.1 L 145.9 129.6 L 146.2 134.1 L 143.3 137.6 L 138.7 137.9 L 135.2 135.0 L 133.8 131.7 Z M 45.993304347991945 63.0 L 35.19348030090332 118.69416007995605 L 35.7 118.8 L 42.2 120.6 L 48.3 123.0 L 52.896951580047606 125.21921806335449 L 53.5 123.7 L 58.0 109.6 L 61.8 94.3 L 64.7 77.8 L 66.56057138442993 63.0 Z M 110.9 33.0 L 110.9 65.0 L 162.7 65.0 L 162.7 33.0 Z " />
</g>
</svg>
