<svg xmlns="http://www.w3.org/2000/svg" xmlns:xlink="http://www.w3.org/1999/xlink" version="1.1" baseProfile="full" viewBox="0 0 200 200" width="200" height="200">
<g fill="black">
<path d="M 61.8 147.5 L 58.7 143.4 L 55.2 139.5 L 54.04473161697388 138.37435388565063 L 53.1 140.5 L 46.4 152.7 L 38.7 163.7 L 30.3 173.4 L 21.0 181.8 L 11.0 188.7 L 9.9 187.2 L 18.5 179.0 L 26.3 169.9 L 33.4 159.9 L 39.8 148.9 L 45.4 136.9 L 47.19523687362671 132.19647941589355 L 42.6 128.8 L 37.8 125.5 L 33.01385498046875 122.6102520942688 L 31.1 133.1 L 18.2 136.8 L 31.65093574523926 63.0 L 15.5 63.0 L 15.5 59.0 L 32.37998371124267 59.0 L 40.6 13.9 L 52.1 18.0 L 54.7 20.5 L 51.46573390960693 21.4763822555542 L 44.61954822540283 59.0 L 62.9 59.0 L 68.9 54.0 L 79.9 63.0 L 74.9 66.0 L 74.17244091033936 66.30314960479737 L 72.1 79.7 L 68.6 96.6 L 64.3 112.4 L 59.1 127.0 L 57.80833330154419 129.90625 L 61.4 132.6 L 66.0 136.5 L 70.2 140.8 L 74.0 145.4 L 77.6 150.3 L 78.2 154.9 L 75.4 158.5 L 70.9 159.1 L 67.2 156.4 L 64.7 151.9 Z M 43.88974800109863 63.0 L 33.72020263671875 118.73879432678223 L 34.0 118.8 L 40.1 120.7 L 45.9 123.1 L 49.891574668884275 125.1320743560791 L 50.4 123.8 L 54.6 109.6 L 58.1 94.3 L 60.9 77.9 L 62.677840900421145 63.0 Z M 116.7 83.0 L 138.0 83.0 L 138.9 82.8 L 139.5 82.6 L 139.8 82.4 L 140.0 82.3 L 140.2 82.1 L 140.5 81.2 L 140.7 80.3 L 140.7 40.6 L 127.97628870010377 40.6 L 127.5 48.3 L 126.1 57.4 L 123.9 65.8 L 121.1 73.6 L 117.4 80.7 L 113.1 87.1 L 108.0 92.7 L 102.2 97.5 L 98.36666669845582 99.8 L 157.6 99.8 L 163.6 94.8 L 174.6 103.8 L 169.6 107.8 L 169.6 127.7 L 157.6 133.7 L 157.6 125.7 L 102.79513893127441 125.7 L 98.60763893127441 143.7 L 167.9 143.7 L 173.9 138.7 L 184.9 147.7 L 179.9 150.7 L 179.25157890319824 150.97017545700072 L 179.2 151.4 L 178.3 156.1 L 177.4 160.5 L 176.3 164.5 L 175.0 168.1 L 173.5 171.5 L 171.8 174.5 L 169.9 177.3 L 167.6 179.6 L 165.1 181.6 L 163.1 182.8 L 161.0 183.8 L 159.0 184.8 L 156.8 185.6 L 154.7 186.3 L 152.5 186.8 L 150.2 187.3 L 148.0 187.6 L 145.7 187.8 L 143.4 187.8 L 143.4 181.8 L 123.4 178.8 L 123.4 175.8 L 145.1 175.8 L 148.3 175.4 L 149.8 175.1 L 151.4 174.7 L 152.9 174.2 L 154.3 173.7 L 157.3 172.3 L 158.7 171.4 L 159.6 170.7 L 160.6 169.7 L 161.7 168.2 L 162.8 166.2 L 163.8 163.8 L 164.8 160.9 L 165.7 157.6 L 166.6 153.8 L 167.3 149.6 L 167.54782609939576 147.7 L 97.67708330154419 147.7 L 96.7 151.9 L 83.6 155.1 L 93.0 114.6 L 101.68705883026124 121.7 L 157.6 121.7 L 157.6 103.8 L 97.8 103.8 L 97.8 100.13999996185302 L 95.7 101.4 L 88.6 104.4 L 87.8 102.7 L 93.6 98.2 L 98.7 93.4 L 103.1 88.3 L 106.8 82.8 L 109.9 76.8 L 112.4 70.3 L 114.2 63.2 L 115.5 55.6 L 116.1 47.4 L 116.1 40.6 L 75.6 40.6 L 75.6 36.6 L 125.5 36.6 L 125.5 11.9 L 137.5 13.9 L 140.5 15.9 L 137.5 17.7 L 137.5 36.6 L 165.3 36.6 L 175.3 26.6 L 187.3 36.6 L 187.3 40.6 L 152.7 40.6 L 152.7 79.0 L 152.6 81.6 L 152.2 84.1 L 151.4 86.5 L 150.1 88.7 L 148.5 90.8 L 146.5 92.4 L 144.2 93.6 L 141.8 94.4 L 139.3 94.9 L 136.7 95.0 L 136.7 89.0 L 116.7 86.0 Z M 105.1 54.6 L 107.6 57.3 L 103.87405061721802 58.43109178543091 L 103.5 59.6 L 101.5 64.3 L 99.3 68.8 L 96.8 73.2 L 94.1 77.3 L 91.1 81.2 L 87.8 84.8 L 84.2 88.2 L 80.3 91.2 L 76.2 94.0 L 75.0 92.6 L 77.8 88.7 L 80.4 84.8 L 82.7 80.9 L 84.9 77.0 L 86.9 73.0 L 88.7 69.0 L 90.2 64.8 L 91.5 60.6 L 92.6 56.3 L 93.29706363677978 52.814681911468504 L 93.2 52.8 L 93.9 50.1 Z M 173.3 79.9 L 170.1 72.7 L 168.3 69.2 L 166.4 65.8 L 164.4 62.5 L 160.0 55.9 L 157.6 52.7 L 158.7 51.4 L 162.2 53.6 L 165.7 55.9 L 168.9 58.6 L 172.0 61.5 L 174.9 64.6 L 177.6 67.9 L 180.2 71.4 L 182.7 75.2 L 185.0 79.1 L 187.1 83.1 L 187.0 87.7 L 183.8 90.9 L 179.2 90.8 L 176.0 87.6 L 174.7 83.7 Z " />
</g>
</svg>
