<svg xmlns="http://www.w3.org/2000/svg" xmlns:xlink="http://www.w3.org/1999/xlink" version="1.1" baseProfile="full" viewBox="0 0 200 200" width="200" height="200">
<g fill="black">
<path d="M 57.3 147.4 L 54.4 143.3 L 51.1 139.4 L 50.42185201644897 138.70301456451415 L 49.7 140.4 L 43.2 152.6 L 36.0 163.6 L 28.0 173.4 L 19.2 181.7 L 9.6 188.7 L 8.5 187.2 L 16.5 179.0 L 23.9 170.0 L 30.6 160.0 L 36.6 149.0 L 41.9 137.0 L 43.64358186721802 132.14022941589354 L 43.6 132.1 L 39.4 128.7 L 34.8 125.5 L 30.66510248184204 122.79965877532959 L 28.9 133.0 L 16.1 136.9 L 28.837235736846925 63.0 L 13.8 63.0 L 13.8 59.0 L 29.52666664123535 59.0 L 37.3 13.9 L 48.8 18.0 L 51.4 20.4 L 48.20749731063843 21.424010276794434 L 41.705217361450195 59.0 L 58.4 59.0 L 64.4 54.0 L 75.4 63.0 L 70.4 66.0 L 69.61733989715576 66.32610836029053 L 67.7 79.6 L 64.4 96.6 L 60.2 112.3 L 55.4 127.0 L 54.10542840957642 130.04337873458863 L 57.5 132.7 L 61.8 136.6 L 65.9 140.9 L 69.5 145.5 L 72.9 150.4 L 73.4 155.0 L 70.6 158.6 L 66.0 159.0 L 62.4 156.2 L 60.0 151.7 Z M 122.9 58.5 L 124.7 61.6 L 120.98463764190674 61.9202898979187 L 118.7 66.0 L 114.3 73.4 L 109.6 80.5 L 104.7 87.3 L 99.6 93.9 L 97.87397260665894 95.94566211700439 L 104.2 97.0 L 107.2 99.0 L 104.2 100.8 L 104.2 182.0 L 92.2 188.0 L 92.2 102.44035091400147 L 88.5 106.4 L 82.6 112.2 L 76.4 117.6 L 69.9 122.6 L 68.6 121.3 L 73.7 114.9 L 78.7 108.5 L 83.5 102.1 L 88.2 95.6 L 92.7 88.9 L 97.0 82.1 L 101.1 75.1 L 105.0 68.0 L 108.7 60.7 L 112.1 53.2 L 112.14014873504638 53.21970262527466 L 112.7 52.1 Z M 136.6 174.0 L 150.6 174.0 L 151.9 173.9 L 152.8 173.7 L 153.7 173.4 L 154.1 173.0 L 154.4 172.1 L 154.6 171.2 L 154.6 82.0 L 117.5 82.0 L 117.5 78.0 L 166.7 78.0 L 176.7 68.0 L 188.7 78.0 L 188.7 82.0 L 166.6 82.0 L 166.6 170.0 L 166.5 172.5 L 166.1 175.0 L 165.3 177.4 L 164.0 179.7 L 162.4 181.7 L 160.4 183.3 L 158.1 184.6 L 155.7 185.4 L 153.2 185.8 L 150.6 186.0 L 150.6 180.0 L 136.6 177.0 Z M 41.01304349899292 63.0 L 31.358851623535156 118.79055614471436 L 31.4 118.8 L 37.3 120.7 L 42.8 123.1 L 46.22529525756836 124.94438972473145 L 46.6 123.9 L 50.6 109.7 L 53.9 94.4 L 56.5 77.9 L 58.108522701263425 63.0 Z M 116.7 20.6 L 118.5 23.7 L 114.7359314918518 23.959590911865234 L 112.9 27.1 L 109.0 33.4 L 104.9 39.5 L 100.7 45.3 L 96.3 50.9 L 91.8 56.2 L 87.1 61.3 L 82.2 66.1 L 77.1 70.6 L 71.7 74.6 L 70.5 73.3 L 74.4 67.9 L 78.2 62.6 L 82.0 57.2 L 85.8 51.6 L 89.4 46.0 L 93.0 40.1 L 96.4 34.1 L 99.7 28.0 L 102.9 21.6 L 105.5591775894165 16.024305057525634 L 105.5 16.0 L 106.5 14.1 Z M 181.9 27.0 L 181.9 31.0 L 124.3 31.0 L 124.3 27.0 L 159.9 27.0 L 169.9 17.0 Z " />
</g>
</svg>
