<svg xmlns="http://www.w3.org/2000/svg" xmlns:xlink="http://www.w3.org/1999/xlink" version="1.1" baseProfile="full" viewBox="0 0 200 200" width="200" height="200">
<g fill="black">
<path d="M 74.1 186.5 L 71.6 186.0 L 69.2 185.2 L 66.9 184.0 L 64.9 182.3 L 63.2 180.3 L 62.0 178.1 L 61.2 175.6 L 60.8 173.2 L 60.6 170.6 L 60.6 136.2 L 72.6 138.2 L 75.6 140.2 L 72.6 142.0 L 72.6 170.6 L 72.7 171.8 L 72.9 172.7 L 73.0 173.3 L 73.2 173.7 L 73.4 173.8 L 73.6 174.0 L 73.9 174.2 L 74.5 174.4 L 75.4 174.5 L 76.6 174.6 L 140.0 174.6 L 146.0 149.6 L 148.0 149.6 L 146.0 174.6 L 149.6 177.0 L 152.0 180.6 L 149.6 184.2 L 146.0 186.6 L 76.6 186.6 Z M 17.0 178.7 L 16.5 174.1 L 19.3 170.5 L 22.0 169.1 L 24.5 167.4 L 26.9 165.3 L 29.0 162.8 L 31.0 159.8 L 32.7 156.3 L 34.2 152.3 L 35.5 147.8 L 36.6 142.9 L 37.3 137.4 L 39.1 137.3 L 39.9 143.0 L 40.3 148.4 L 40.2 153.5 L 39.6 158.3 L 38.4 162.9 L 36.8 167.2 L 34.7 171.2 L 32.0 174.8 L 28.8 178.1 L 25.2 180.9 L 20.6 181.4 Z M 168.7 165.4 L 167.3 162.2 L 165.5 159.0 L 163.3 155.7 L 160.8 152.5 L 158.0 149.3 L 154.8 146.0 L 151.3 142.6 L 147.4 139.3 L 148.3 137.8 L 153.1 139.9 L 157.7 142.1 L 161.9 144.6 L 165.8 147.3 L 169.3 150.3 L 172.6 153.4 L 175.5 156.8 L 178.1 160.4 L 180.3 164.2 L 182.2 168.2 L 181.7 172.8 L 178.3 175.8 L 173.7 175.4 L 170.7 171.9 L 169.9 168.7 Z M 107.9 152.9 L 106.1 150.3 L 104.2 147.8 L 102.0 145.3 L 99.6 142.8 L 96.9 140.4 L 94.1 138.0 L 91.1 135.5 L 87.8 133.3 L 88.5 131.7 L 96.3 134.1 L 100.0 135.5 L 103.5 137.2 L 106.9 139.2 L 110.1 141.3 L 113.1 143.6 L 115.9 146.2 L 118.6 148.9 L 121.1 151.9 L 121.8 156.4 L 119.2 160.2 L 114.7 160.9 L 110.9 158.3 L 109.5 155.6 Z M 57.6 81.2 L 142.3 81.2 L 148.3 76.2 L 159.3 85.2 L 154.3 89.2 L 154.3 122.4 L 142.3 128.4 L 142.3 122.4 L 57.6 122.4 L 57.6 134.4 L 45.6 140.4 L 45.6 75.2 Z M 57.6 85.2 L 57.6 118.4 L 142.3 118.4 L 142.3 85.2 Z M 151.7 52.8 L 152.6 56.3 L 148.73734045028687 55.554574489593506 L 145.7 58.2 L 142.5 60.9 L 139.3 63.5 L 135.9 66.2 L 132.4 68.7 L 128.8 71.2 L 125.1 73.7 L 121.1 76.0 L 117.2 78.3 L 116.0 76.9 L 119.0 73.5 L 121.9 70.0 L 124.8 66.7 L 127.6 63.4 L 130.3 60.2 L 133.0 57.1 L 135.6 53.9 L 138.1 50.9 L 142.25056419372558 45.53885459899902 L 142.2 45.5 L 142.74347829818726 44.90217390060425 L 142.9 44.7 L 142.91484813690187 44.71366701126099 L 143.2 44.4 Z M 70.3 69.2 L 68.7 66.9 L 66.6 64.5 L 64.2 62.1 L 61.4 59.6 L 58.3 57.2 L 54.8 54.8 L 51.0 52.2 L 46.7 49.9 L 47.3 48.2 L 52.1 49.4 L 56.7 50.6 L 61.0 52.1 L 65.1 53.7 L 68.8 55.6 L 72.2 57.6 L 75.4 59.9 L 78.3 62.4 L 80.9 65.0 L 83.2 68.0 L 83.6 72.5 L 80.8 76.1 L 76.3 76.6 L 72.7 73.8 L 71.7 71.5 Z M 12.3 67.3 L 11.8 62.8 L 14.6 59.1 L 16.6 58.2 L 18.5 57.0 L 20.3 55.4 L 22.0 53.3 L 23.7 50.7 L 25.1 47.5 L 26.4 43.9 L 27.5 39.8 L 28.6 35.1 L 29.1 30.0 L 30.9 30.0 L 31.5 35.2 L 31.816326522827147 38.3 L 171.0 38.3 L 171.63478260040284 37.771014499664304 L 172.0 37.0 L 172.31111106872558 37.20740737915039 L 177.0 33.3 L 188.0 42.3 L 183.0 45.3 L 178.36875 47.2296875 L 176.4 49.1 L 174.2 51.2 L 171.9 53.2 L 169.4 55.4 L 166.7 57.7 L 163.8 60.0 L 160.7 62.3 L 157.6 64.9 L 156.3 63.7 L 158.7 60.5 L 160.7 57.1 L 162.6 54.0 L 164.4 51.1 L 166.0 48.4 L 167.5 45.8 L 168.9 43.3 L 169.4217391014099 42.3 L 32.046808528900144 42.3 L 32.1 44.8 L 31.8 49.2 L 31.1 53.3 L 29.9 57.2 L 28.3 60.8 L 26.2 64.1 L 23.6 67.1 L 20.5 69.6 L 16.0 70.1 Z M 99.5 29.5 L 98.2 27.5 L 96.7 25.5 L 95.0 23.4 L 93.0 21.4 L 90.8 19.3 L 88.3 17.2 L 85.6 15.0 L 82.5 13.2 L 83.2 11.5 L 86.7 12.6 L 90.2 13.5 L 93.5 14.6 L 96.7 15.9 L 99.6 17.4 L 102.4 19.0 L 104.9 20.8 L 107.3 22.7 L 109.5 24.9 L 111.6 27.2 L 112.2 31.7 L 109.5 35.4 L 105.0 36.0 L 101.3 33.4 L 100.5 31.4 Z " />
</g>
</svg>
