<svg xmlns="http://www.w3.org/2000/svg" xmlns:xlink="http://www.w3.org/1999/xlink" version="1.1" baseProfile="full" viewBox="0 0 200 200" width="200" height="200">
<g fill="black">
<path d="M 63.0 147.6 L 59.8 143.4 L 56.2 139.5 L 54.970185375213624 138.33325271606446 L 54.0 140.5 L 47.1 152.7 L 39.3 163.7 L 30.8 173.5 L 21.3 181.8 L 11.1 188.7 L 10.1 187.2 L 18.8 179.0 L 26.8 169.9 L 34.0 159.9 L 40.5 148.9 L 46.3 136.9 L 48.071155643463136 132.25957221984862 L 48.0 132.2 L 43.4 128.8 L 38.4 125.5 L 33.4668155670166 122.52147350311279 L 31.5 133.1 L 18.6 136.8 L 32.291131019592285 63.0 L 15.7 63.0 L 15.7 59.0 L 33.033197689056394 59.0 L 41.4 13.9 L 52.9 18.0 L 55.5 20.5 L 52.252934265136716 21.48024625778198 L 45.27706346511841 59.0 L 64.1 59.0 L 70.1 54.0 L 81.1 63.0 L 76.1 66.0 L 75.37244091033935 66.30314960479737 L 73.3 79.7 L 69.7 96.6 L 65.3 112.4 L 60.0 127.1 L 58.722799110412595 129.95241537094117 L 62.4 132.6 L 67.0 136.5 L 71.3 140.7 L 75.2 145.3 L 78.8 150.3 L 79.4 154.8 L 76.7 158.5 L 72.2 159.1 L 68.5 156.5 L 65.9 151.9 Z M 150.2 175.0 L 166.2 175.0 L 167.4 174.9 L 168.3 174.7 L 168.9 174.5 L 169.3 174.4 L 169.4 174.2 L 169.6 174.0 L 169.8 173.7 L 170.0 173.1 L 170.1 172.2 L 170.2 171.0 L 170.2 121.0 L 133.93199996948243 121.0 L 132.3 124.4 L 129.8 129.4 L 127.0 134.4 L 124.0 139.5 L 120.9 144.5 L 117.88898124694825 148.80145530700685 L 117.9 148.8 L 123.2 148.2 L 128.6 147.5 L 133.9 146.8 L 139.2 146.2 L 144.5 145.7 L 149.8 145.3 L 150.65609760284423 145.2682927131653 L 150.5 144.8 L 149.3 141.6 L 147.9 138.4 L 146.3 135.1 L 144.6 131.6 L 142.5 128.3 L 143.9 127.1 L 146.8 129.9 L 149.8 132.5 L 152.6 135.3 L 155.1 138.1 L 157.3 141.0 L 159.4 144.0 L 161.3 147.1 L 162.9 150.3 L 164.3 153.5 L 165.6 156.7 L 164.7 161.2 L 161.0 163.9 L 156.5 163.0 L 153.8 159.3 L 153.5 156.5 L 153.1 153.7 L 152.4 150.8 L 151.7223021507263 148.541007232666 L 150.7 149.0 L 145.6 150.9 L 140.6 152.7 L 135.4 154.3 L 130.3 155.8 L 125.1 157.3 L 119.8 158.7 L 114.6 160.1 L 108.08240947723388 161.6986542701721 L 106.5 165.3 L 104.0 162.7 L 99.9 151.2 L 101.9 150.9 L 107.2 150.2 L 112.6 149.5 L 113.49087800979615 149.38233690261842 L 114.1 147.7 L 116.1 142.1 L 118.1 136.6 L 120.1 131.2 L 122.0 126.0 L 123.7307692527771 121.0 L 95.1 121.0 L 95.1 182.0 L 83.1 188.0 L 83.1 111.0 L 95.1 117.0 L 125.01599998474121 117.0 L 125.4 115.8 L 126.9 110.8 L 128.3 105.9 L 129.3529411315918 102.01221723556519 L 129.3 102.0 L 130.1 99.5 L 141.0 104.7 L 143.3 107.5 L 139.55789470672607 108.41911354064942 L 139.1 109.6 L 137.0 114.5 L 135.82653064727782 117.0 L 170.2 117.0 L 176.2 112.0 L 187.2 121.0 L 182.2 125.0 L 182.2 171.0 L 182.1 173.5 L 181.6 176.0 L 180.8 178.4 L 179.6 180.7 L 177.9 182.7 L 175.9 184.3 L 173.7 185.6 L 171.2 186.4 L 168.8 186.8 L 166.2 187.0 L 166.2 181.0 L 150.2 178.0 Z M 44.53336229324341 63.0 L 34.17187156677246 118.72932615280152 L 34.5 118.8 L 40.7 120.7 L 46.6 123.1 L 50.795164585113525 125.12266864776612 L 51.3 123.8 L 55.6 109.6 L 59.2 94.3 L 62.1 77.9 L 63.793181800842284 63.0 Z M 174.3 51.0 L 177.3 53.0 L 174.3 54.8 L 174.3 101.0 L 162.3 107.0 L 162.3 99.0 L 103.0 99.0 L 103.0 102.0 L 91.0 108.0 L 91.0 49.0 L 103.0 51.0 L 106.0 53.0 L 103.0 54.8 L 103.0 95.0 L 162.3 95.0 L 162.3 49.0 Z M 143.1 80.5 L 138.9 76.9 L 136.21026678085326 74.60388631820679 L 131.1 78.2 L 125.4 81.7 L 119.3 84.8 L 113.0 87.5 L 106.3 89.8 L 105.5 88.1 L 111.2 84.2 L 116.6 80.2 L 121.7 76.2 L 126.5 72.1 L 129.46672830581664 69.33105363845826 L 126.2 66.9 L 121.9 63.9 L 117.4 61.0 L 113.0 58.1 L 108.5 55.2 L 109.1 53.5 L 114.5 54.6 L 119.8 56.2 L 125.0 58.1 L 130.1 60.4 L 135.1 63.0 L 135.51188898086548 63.230657768249515 L 139.0 59.1 L 142.6 54.4 L 145.8 49.6 L 148.8 44.6 L 148.82148275375366 44.61347932815552 L 149.3 43.8 L 159.0 51.0 L 160.5 54.3 L 156.5748953819275 54.23347282409668 L 155.1 56.2 L 150.9 61.2 L 146.4 65.9 L 143.94260292053224 68.15261402130128 L 145.0 68.8 L 149.8 72.2 L 154.6 75.7 L 159.3 79.5 L 161.1 83.7 L 159.6 88.0 L 155.4 89.8 L 151.1 88.3 L 147.1 84.3 Z M 81.2 36.0 L 125.6 36.0 L 125.6 13.0 L 137.6 15.0 L 140.6 17.0 L 137.6 18.8 L 137.6 36.0 L 165.1 36.0 L 175.1 26.0 L 187.1 36.0 L 187.1 40.0 L 81.2 40.0 Z " />
</g>
</svg>
