<svg xmlns="http://www.w3.org/2000/svg" xmlns:xlink="http://www.w3.org/1999/xlink" version="1.1" baseProfile="full" viewBox="0 0 200 200" width="200" height="200">
<g fill="black">
<path d="M 70.0 176.1 L 90.0 176.1 L 91.2 176.0 L 92.1 175.9 L 92.7 175.7 L 93.0 175.5 L 93.2 175.4 L 93.4 175.2 L 93.5 174.8 L 93.7 174.2 L 93.9 173.3 L 94.0 172.1 L 94.0 143.2 L 17.3 143.2 L 17.3 139.2 L 94.0 139.2 L 94.0 121.3 L 105.08995218276978 123.1483253479004 L 109.7 120.0 L 113.7 117.3 L 117.7 114.8 L 121.6 112.3 L 125.4 109.8 L 128.94583330154418 107.5 L 46.8 107.5 L 46.8 103.5 L 134.8875 103.5 L 136.2 102.6 L 139.7 100.3 L 139.97450981140136 100.77124185562134 L 142.7 98.5 L 153.7 107.5 L 148.7 110.5 L 136.7 115.5 L 136.7 114.8268292427063 L 133.8 116.1 L 129.6 117.9 L 125.4 119.6 L 121.0 121.3 L 116.5 123.0 L 111.9 124.5 L 108.85135135650634 125.38918914794922 L 106.0 127.1 L 106.0 139.2 L 161.6 139.2 L 171.6 129.2 L 183.6 139.2 L 183.6 143.2 L 106.0 143.2 L 106.0 172.1 L 105.8 174.7 L 105.4 177.2 L 104.6 179.6 L 103.3 181.8 L 101.7 183.8 L 99.7 185.5 L 97.4 186.7 L 95.0 187.5 L 92.5 188.0 L 90.0 188.1 L 90.0 182.1 L 70.0 179.1 Z M 135.8 33.5 L 128.2 31.4 L 119.3 29.2 L 109.3 26.9 L 107.0 26.431858444213866 L 107.0 48.0 L 160.0 48.0 L 170.0 38.0 L 182.0 48.0 L 182.0 52.0 L 110.77142858505249 52.0 L 115.4 54.8 L 123.1 59.4 L 130.6 63.7 L 138.0 67.5 L 145.1 71.0 L 152.1 74.0 L 158.9 76.5 L 165.5 78.6 L 172.0 80.3 L 178.3 81.5 L 187.4 83.4 L 175.6 94.4 L 168.6 92.3 L 161.7 89.8 L 154.7 86.8 L 147.7 83.2 L 140.7 79.2 L 133.7 74.7 L 126.7 69.7 L 119.7 64.2 L 112.9 58.1 L 107.0 52.1119402885437 L 107.0 93.0 L 95.0 99.0 L 95.0 57.140322589874266 L 92.1 59.9 L 85.4 65.5 L 78.4 70.7 L 71.0 75.6 L 63.1 80.1 L 55.0 84.2 L 46.4 88.1 L 37.4 91.5 L 28.0 94.4 L 18.2 96.8 L 17.7 95.1 L 26.7 90.8 L 35.3 86.5 L 43.5 82.1 L 51.3 77.6 L 58.8 72.8 L 65.7 67.9 L 72.3 62.7 L 78.5 57.3 L 83.89464282989502 52.0 L 22.0 52.0 L 22.0 48.0 L 95.0 48.0 L 95.0 25.0 L 99.96521739959717 25.0 L 98.0 24.6 L 85.5 22.2 L 71.8 19.6 L 56.9 16.9 L 40.8 14.0 L 41.0 12.2 L 57.4 13.2 L 72.5 14.3 L 86.4 15.7 L 99.2 17.1 L 110.7 18.5 L 121.1 20.0 L 130.3 21.5 L 138.4 23.1 L 145.3 24.7 L 151.2 26.3 L 154.5 29.4 L 154.8 34.0 L 151.6 37.3 L 147.1 37.5 L 142.1 35.6 Z " />
</g>
</svg>
