<svg xmlns="http://www.w3.org/2000/svg" xmlns:xlink="http://www.w3.org/1999/xlink" version="1.1" baseProfile="full" viewBox="0 0 200 200" width="200" height="200">
<g fill="black">
<path d="M 129.6 100.4 L 131.5 103.5 L 127.63868885040283 103.96602029800415 L 126.3 106.4 L 122.8 112.4 L 122.60169486999511 112.7 L 162.4 112.7 L 168.4 107.7 L 179.4 116.7 L 174.4 119.7 L 172.74671964645387 120.38886680603028 L 169.1 130.9 L 162.8 143.5 L 155.3 154.4 L 146.7 163.4 L 137.2 170.8 L 126.9 176.8 L 115.9 181.4 L 104.3 184.9 L 92.1 187.3 L 79.5 188.9 L 79.2 187.1 L 91.3 183.6 L 102.7 179.8 L 113.4 175.3 L 123.3 170.1 L 132.2 164.0 L 140.2 156.7 L 147.3 148.2 L 153.4 138.3 L 158.6 126.7 L 161.51666669845582 116.7 L 119.95762710571289 116.7 L 118.9 118.3 L 114.7 124.1 L 110.1 129.9 L 105.2 135.6 L 100.0 141.2 L 94.4 146.6 L 88.4 152.0 L 81.9 157.1 L 80.6 155.8 L 85.6 149.3 L 90.4 143.0 L 95.0 136.9 L 99.3 130.9 L 103.3 124.9 L 107.0 118.9 L 110.4 113.0 L 113.4 107.1 L 116.2 101.3 L 118.22408876419067 96.40845222473145 L 118.2 96.4 L 118.41052627563477 95.95789470672608 L 118.6 95.5 L 118.62357139587402 95.51049995422363 L 119.2 94.3 Z M 64.0 149.4 L 60.3 145.7 L 56.1 142.2 L 54.27120180130005 140.81824140548707 L 47.2 152.8 L 39.1 163.8 L 30.1 173.5 L 20.2 181.8 L 9.5 188.7 L 8.5 187.2 L 17.7 178.9 L 26.2 169.8 L 33.8 159.8 L 40.7 148.8 L 46.8 136.8 L 47.13895959854126 135.97770910263063 L 46.7 135.7 L 41.4 132.6 L 35.7 129.7 L 29.6 126.9 L 23.2 124.1 L 23.222222232818602 124.0 L 19.9 124.0 L 32.02250452041626 63.0 L 14.4 63.0 L 14.4 59.0 L 32.81742286682129 59.0 L 41.8 13.8 L 53.2 18.1 L 55.7 20.6 L 52.51001310348511 21.563014888763426 L 45.05089702606201 59.0 L 65.7 59.0 L 71.7 54.0 L 82.7 63.0 L 77.7 66.0 L 76.83744449615479 66.35939807891846 L 74.7 79.7 L 70.9 96.7 L 66.3 112.5 L 60.8 127.1 L 58.13590154647827 132.71958265304565 L 61.4 134.5 L 66.5 137.8 L 71.3 141.5 L 75.8 145.5 L 79.9 149.9 L 81.1 154.3 L 78.9 158.3 L 74.5 159.5 L 70.5 157.3 L 67.4 153.2 Z M 130.1 149.7 L 129.3 148.1 L 128.1 146.2 L 126.5 144.2 L 124.5 142.0 L 122.0 139.7 L 119.3 137.2 L 116.1 134.5 L 112.4 132.0 L 113.3 130.4 L 117.4 132.2 L 121.4 133.6 L 125.0 135.2 L 128.3 136.7 L 131.3 138.3 L 133.9 139.9 L 136.3 141.7 L 138.4 143.5 L 140.2 145.5 L 141.7 147.9 L 141.4 152.4 L 138.1 155.5 L 133.5 155.2 L 130.4 151.8 L 130.4 151.0 Z M 44.25391883850098 63.0 L 32.17880907058716 123.60446071624756 L 37.5 124.7 L 44.0 126.6 L 50.06234159469604 128.88580093383788 L 52.2 123.7 L 56.7 109.5 L 60.5 94.2 L 63.5 77.8 L 65.36057138442993 63.0 Z M 118.9 69.0 L 118.0 66.6 L 117.0 64.3 L 115.8 62.0 L 114.5 59.8 L 113.0 57.5 L 112.5 56.8125 L 112.5 93.9 L 100.5 99.9 L 100.5 64.9064516067505 L 99.4 67.0 L 96.0 72.5 L 92.4 77.6 L 88.4 82.3 L 84.2 86.6 L 79.6 90.3 L 74.8 93.5 L 73.6 92.1 L 77.0 87.6 L 80.1 83.0 L 83.2 78.3 L 86.0 73.4 L 88.7 68.2 L 91.1 62.8 L 93.3 57.1 L 95.3 51.1 L 97.2 44.8 L 97.91999998092652 41.8 L 76.8 41.8 L 76.8 37.8 L 100.5 37.8 L 100.5 12.2 L 112.5 14.2 L 115.5 16.2 L 112.5 18.0 L 112.5 37.8 L 116.0777777671814 37.8 L 122.3 30.8 L 130.3 37.8 L 130.3 41.8 L 112.5 41.8 L 112.5 51.55714282989502 L 114.0 52.2 L 116.6 53.6 L 119.1 55.3 L 121.5 57.2 L 123.8 59.2 L 125.9 61.5 L 127.9 64.0 L 129.7 66.6 L 131.4 69.4 L 131.3 74.0 L 128.1 77.2 L 123.5 77.1 L 120.3 73.9 L 119.7 71.4 Z M 172.6 83.3 L 169.7 78.9 L 167.0 74.2 L 164.6 69.3 L 162.4 64.2 L 161.4 61.5 L 161.4 93.9 L 149.4 99.9 L 149.4 63.58571424484253 L 147.2 67.2 L 144.3 71.6 L 141.1 75.6 L 137.8 79.2 L 134.2 82.5 L 130.3 85.3 L 129.0 84.0 L 131.3 80.0 L 133.5 76.0 L 135.7 71.9 L 137.8 67.7 L 139.7 63.3 L 141.6 58.7 L 143.3 53.9 L 144.9 48.8 L 146.3 43.6 L 146.67894735336304 41.8 L 131.6 41.8 L 131.6 37.8 L 149.4 37.8 L 149.4 12.2 L 161.4 14.2 L 164.4 16.2 L 161.4 18.0 L 161.4 37.8 L 166.9181818008423 37.8 L 175.1 28.8 L 185.1 37.8 L 185.1 41.8 L 161.4 41.8 L 161.4 45.619999980926515 L 161.5 45.8 L 164.3 51.0 L 167.1 55.8 L 169.8 60.4 L 172.7 64.7 L 175.6 68.7 L 178.7 72.4 L 181.8 75.9 L 185.0 79.0 L 188.3 81.9 L 190.0 83.5 L 179.2 91.5 L 175.8 87.5 Z " />
</g>
</svg>
