<svg xmlns="http://www.w3.org/2000/svg" xmlns:xlink="http://www.w3.org/1999/xlink" version="1.1" baseProfile="full" viewBox="0 0 200 200" width="200" height="200">
<g fill="black">
<path d="M 145.0 166.0 L 157.0 166.0 L 158.2 165.9 L 159.1 165.7 L 160.0 165.4 L 160.4 165.0 L 160.7 164.1 L 160.9 163.2 L 161.0 162.0 L 161.0 134.3 L 124.0 134.3 L 124.0 183.7 L 112.0 189.7 L 112.0 134.3 L 80.0 134.3 L 80.0 130.3 L 161.0 130.3 L 167.0 125.3 L 178.0 134.3 L 173.0 138.3 L 173.0 162.0 L 172.8 164.5 L 172.4 167.0 L 171.6 169.4 L 170.3 171.7 L 168.7 173.7 L 166.7 175.4 L 164.4 176.6 L 162.0 177.4 L 159.5 177.8 L 157.0 178.0 L 157.0 172.0 L 145.0 169.0 Z M 26.2 172.0 L 15.2 177.5 L 15.2 86.4 L 26.2 88.4 L 28.9 90.4 L 26.2 92.12340421676636 L 26.2 156.0 L 39.0 156.0 L 39.0 64.4 L 50.0 66.4 L 52.7 68.4 L 50.0 70.12340421676636 L 50.0 156.0 L 64.0 156.0 L 64.0 86.4 L 76.0 88.4 L 79.0 90.4 L 76.0 92.2 L 76.0 166.0 L 64.0 172.0 L 64.0 160.0 L 26.2 160.0 Z M 167.3 109.4 L 161.4 104.9 L 155.7 100.1 L 150.3 95.0 L 145.1 89.7 L 140.3 84.1 L 135.7 78.2 L 131.5 71.9 L 130.70319385528563 70.47867012023926 L 130.5 70.8 L 126.0 77.3 L 121.2 83.6 L 116.1 89.5 L 110.7 95.1 L 105.1 100.4 L 99.1 105.3 L 92.9 109.9 L 86.3 114.0 L 79.4 117.6 L 78.5 116.1 L 84.1 110.9 L 89.5 105.7 L 94.7 100.4 L 99.7 95.0 L 104.4 89.4 L 108.9 83.6 L 113.1 77.6 L 117.1 71.4 L 120.8 64.9 L 123.72973880767822 59.21286001205444 L 123.7 59.2 L 124.7 57.3 L 134.8 64.0 L 136.5 67.1 L 132.71810455322264 67.29229974746704 L 132.6642967224121 67.37739133834839 L 134.7 69.3 L 140.1 74.3 L 145.5 79.1 L 150.9 83.6 L 156.4 88.0 L 162.0 92.0 L 167.8 95.9 L 173.7 99.5 L 179.8 102.8 L 186.0 105.9 L 191.1 108.5 L 179.9 117.5 L 173.5 113.6 Z M 159.0 109.7 L 159.0 113.7 L 96.0 113.7 L 96.0 109.7 L 137.0 109.7 L 147.0 99.7 Z M 32.0 60.5 L 32.0 23.1 L 44.0 25.1 L 47.0 27.1 L 44.0 28.9 L 44.0 50.5 L 94.0 50.5 L 94.0 12.8 L 106.0 14.8 L 109.0 16.8 L 106.0 18.6 L 106.0 50.5 L 155.0 50.5 L 155.0 23.1 L 167.0 25.1 L 170.0 27.1 L 167.0 28.9 L 167.0 58.5 L 155.0 64.5 L 155.0 54.5 L 44.0 54.5 Z " />
</g>
</svg>
