<svg xmlns="http://www.w3.org/2000/svg" xmlns:xlink="http://www.w3.org/1999/xlink" version="1.1" baseProfile="full" viewBox="0 0 200 200" width="200" height="200">
<g fill="black">
<path d="M 188.0 104.0 L 188.0 108.0 L 77.68000001907349 108.0 L 77.4 108.5 L 73.2 115.9 L 68.5 122.8 L 63.3 129.2 L 61.0 131.5 L 66.0 134.0 L 155.0 134.0 L 161.0 129.0 L 172.0 138.0 L 167.0 142.0 L 167.0 177.0 L 155.0 183.0 L 155.0 173.0 L 66.0 173.0 L 66.0 180.0 L 54.0 186.0 L 54.0 137.8888889312744 L 51.2 140.2 L 44.4 144.8 L 37.0 148.8 L 29.3 152.2 L 21.0 154.9 L 12.2 156.8 L 11.7 155.1 L 19.6 151.3 L 27.0 147.4 L 33.8 143.1 L 40.0 138.6 L 45.7 133.7 L 50.9 128.4 L 55.6 122.8 L 59.7 116.7 L 63.3 110.3 L 64.31627902984619 108.0 L 12.0 108.0 L 12.0 104.0 L 166.0 104.0 L 176.0 94.0 Z M 66.0 138.0 L 66.0 169.0 L 155.0 169.0 L 155.0 138.0 Z M 70.0 84.2 L 90.0 84.2 L 91.2 84.1 L 92.1 84.0 L 92.7 83.8 L 93.0 83.6 L 93.2 83.4 L 93.4 83.3 L 93.5 82.9 L 93.7 82.3 L 93.9 81.4 L 94.0 80.2 L 94.0 12.1 L 106.0 14.1 L 109.0 16.1 L 106.0 17.9 L 106.0 80.2 L 105.8 82.8 L 105.4 85.2 L 104.6 87.7 L 103.3 89.9 L 101.7 91.9 L 99.7 93.6 L 97.4 94.8 L 95.0 95.6 L 92.5 96.1 L 90.0 96.2 L 90.0 90.2 L 70.0 87.2 Z M 76.7 34.8 L 78.3 38.0 L 74.49808616638184 38.131100463867185 L 72.8 40.7 L 68.5 46.4 L 63.9 52.0 L 59.0 57.4 L 53.6 62.6 L 48.0 67.6 L 41.9 72.4 L 35.5 77.0 L 28.7 81.3 L 21.5 85.3 L 20.4 83.8 L 26.4 78.3 L 32.2 72.8 L 37.6 67.5 L 42.7 62.1 L 47.5 56.7 L 52.0 51.2 L 56.0 45.7 L 59.8 40.2 L 63.2 34.6 L 65.72123556137085 29.809652519226074 L 65.7 29.8 L 65.98947372436524 29.3 L 66.2 28.9 L 66.21588506698609 28.908925914764403 L 66.8 27.9 Z M 162.2 70.4 L 157.8 65.2 L 153.1 60.2 L 148.2 55.4 L 143.1 50.6 L 137.7 46.0 L 132.1 41.4 L 126.4 36.8 L 120.4 32.2 L 121.3 30.7 L 128.3 33.6 L 135.1 36.9 L 141.5 40.6 L 147.7 44.6 L 153.7 48.9 L 159.4 53.4 L 164.9 58.2 L 170.1 63.1 L 175.1 68.4 L 179.9 73.8 L 181.0 78.3 L 178.8 82.2 L 174.3 83.4 L 170.4 81.1 L 166.4 75.7 Z " />
</g>
</svg>
