<svg xmlns="http://www.w3.org/2000/svg" xmlns:xlink="http://www.w3.org/1999/xlink" version="1.1" baseProfile="full" viewBox="0 0 200 200" width="200" height="200">
<g fill="black">
<path d="M 137.0 166.0 L 149.0 166.0 L 150.2 165.9 L 151.1 165.7 L 152.0 165.4 L 152.4 165.0 L 152.7 164.1 L 152.9 163.2 L 153.0 162.0 L 153.0 132.0 L 106.0 132.0 L 106.0 182.0 L 94.0 188.0 L 94.0 132.0 L 47.0 132.0 L 47.0 174.0 L 35.0 180.0 L 35.0 122.0 L 47.0 128.0 L 94.0 128.0 L 94.0 111.0 L 106.0 113.0 L 109.0 115.0 L 106.0 116.8 L 106.0 128.0 L 153.0 128.0 L 159.0 123.0 L 170.0 132.0 L 165.0 136.0 L 165.0 162.0 L 164.8 164.5 L 164.4 167.0 L 163.6 169.4 L 162.3 171.7 L 160.7 173.7 L 158.7 175.3 L 156.4 176.6 L 154.0 177.4 L 151.5 177.8 L 149.0 178.0 L 149.0 172.0 L 137.0 169.0 Z M 83.6 17.2 L 84.6 20.6 L 80.89714288711548 20.089261054992676 L 77.8 23.4 L 71.8 29.6 L 65.5 35.6 L 58.9 41.4 L 53.311881160736085 46.001980209350585 L 58.7 46.9 L 61.7 48.9 L 58.7 50.7 L 58.7 107.9 L 46.7 113.9 L 46.7 51.18309860229492 L 45.0 52.5 L 37.6 57.7 L 29.9 62.8 L 21.8 67.6 L 13.4 72.0 L 12.4 70.5 L 19.6 64.4 L 26.7 58.5 L 33.5 52.6 L 40.1 46.6 L 46.5 40.6 L 52.6 34.6 L 58.4 28.4 L 64.0 22.2 L 69.3 15.9 L 73.64873094558716 10.333624362945557 L 73.6 10.3 L 74.7 9.0 Z M 183.0 76.4 L 185.0 76.4 L 183.0 97.4 L 186.3 99.6 L 188.5 102.9 L 186.3 106.2 L 183.0 108.4 L 116.0 108.4 L 113.4 108.3 L 111.0 107.9 L 108.6 107.1 L 106.4 106.0 L 104.4 104.4 L 102.7 102.5 L 101.5 100.3 L 100.6 97.9 L 100.1 95.4 L 100.0 92.9 L 100.0 63.96637172698975 L 97.1 64.3 L 85.7 65.0 L 74.0 65.2 L 73.9 63.4 L 85.2 61.2 L 96.4 59.0 L 100.0 58.207339477539065 L 100.0 13.9 L 112.0 15.9 L 115.0 17.9 L 112.0 19.7 L 112.0 55.4579439163208 L 118.0 54.0 L 128.5 51.1 L 138.7 48.0 L 148.8 44.6 L 158.6 40.9 L 168.2 37.0 L 176.70092248916626 33.20171546936035 L 176.7 33.2 L 176.7015821456909 33.20142068862915 L 177.6 32.8 L 178.46687002182006 34.786577224731445 L 186.5 42.0 L 186.7 45.2 L 182.88096504211427 43.5888445854187 L 182.4 43.8 L 172.4 47.6 L 162.2 51.1 L 151.8 54.2 L 141.2 56.9 L 130.5 59.3 L 119.6 61.4 L 112.0 62.48571424484253 L 112.0 94.1 L 112.1 95.0 L 112.2 95.6 L 112.4 96.0 L 112.5 96.3 L 112.7 96.5 L 113.1 96.8 L 113.7 97.0 L 114.7 97.2 L 116.0 97.4 L 177.5 97.4 Z " />
</g>
</svg>
