<svg xmlns="http://www.w3.org/2000/svg" xmlns:xlink="http://www.w3.org/1999/xlink" version="1.1" baseProfile="full" viewBox="0 0 200 200" width="200" height="200">
<g fill="black">
<path d="M 15.0 125.9 L 15.0 121.9 L 40.0 121.9 L 40.0 74.6 L 52.0 80.6 L 79.0 80.6 L 85.0 75.6 L 96.0 84.6 L 91.0 88.6 L 91.0 121.9 L 113.0 121.9 L 113.0 74.6 L 125.0 80.6 L 153.0 80.6 L 159.0 75.6 L 170.0 84.6 L 165.0 88.6 L 165.0 121.9 L 169.8181818008423 121.9 L 178.0 112.9 L 188.0 121.9 L 188.0 125.9 L 165.0 125.9 L 165.0 172.2 L 164.8 174.7 L 164.4 177.2 L 163.6 179.6 L 162.3 181.9 L 160.7 183.9 L 158.7 185.6 L 156.4 186.8 L 154.0 187.6 L 151.5 188.0 L 149.0 188.2 L 149.0 182.2 L 129.0 179.2 L 129.0 176.2 L 149.0 176.2 L 150.2 176.1 L 151.1 175.9 L 152.0 175.6 L 152.4 175.2 L 152.7 174.3 L 152.9 173.4 L 153.0 172.2 L 153.0 125.9 L 125.0 125.9 L 125.0 132.4 L 124.4 140.0 L 123.3 147.2 L 121.8 154.0 L 119.7 160.3 L 117.1 166.1 L 114.0 171.5 L 110.4 176.3 L 106.2 180.5 L 101.6 184.0 L 96.5 186.8 L 95.4 185.4 L 99.1 181.2 L 102.2 176.9 L 105.0 172.5 L 107.4 167.8 L 109.3 162.8 L 110.8 157.5 L 112.0 151.8 L 112.7 145.7 L 113.0 139.3 L 113.0 125.9 L 91.0 125.9 L 91.0 171.5 L 90.8 174.1 L 90.4 176.6 L 89.6 179.0 L 88.3 181.2 L 86.7 183.2 L 84.7 184.9 L 82.4 186.1 L 80.0 186.9 L 77.5 187.4 L 75.0 187.5 L 75.0 181.5 L 55.0 178.5 L 55.0 175.5 L 75.0 175.5 L 76.2 175.4 L 77.1 175.3 L 77.7 175.1 L 78.0 174.9 L 78.2 174.8 L 78.4 174.6 L 78.5 174.2 L 78.7 173.6 L 78.9 172.7 L 79.0 171.5 L 79.0 125.9 L 52.0 125.9 L 52.0 131.1 L 51.4 138.9 L 50.2 146.3 L 48.5 153.2 L 46.2 159.7 L 43.3 165.8 L 39.8 171.3 L 35.8 176.3 L 31.2 180.7 L 26.1 184.5 L 20.5 187.5 L 19.4 186.0 L 23.7 181.6 L 27.4 177.0 L 30.6 172.3 L 33.3 167.4 L 35.6 162.2 L 37.4 156.7 L 38.7 150.8 L 39.6 144.6 L 40.0 138.1 L 40.0 125.9 Z M 52.0 84.6 L 52.0 121.9 L 79.0 121.9 L 79.0 84.6 Z M 125.0 84.6 L 125.0 121.9 L 153.0 121.9 L 153.0 84.6 Z M 44.0 67.2 L 32.0 73.2 L 32.0 24.4 L 44.0 26.4 L 47.0 28.4 L 44.0 30.2 L 44.0 56.2 L 94.0 56.2 L 94.0 12.6 L 106.0 14.6 L 109.0 16.6 L 106.0 18.4 L 106.0 56.2 L 155.0 56.2 L 155.0 24.4 L 167.0 26.4 L 170.0 28.4 L 167.0 30.2 L 167.0 64.2 L 155.0 70.2 L 155.0 60.2 L 44.0 60.2 Z " />
</g>
</svg>
