<svg xmlns="http://www.w3.org/2000/svg" xmlns:xlink="http://www.w3.org/1999/xlink" version="1.1" baseProfile="full" viewBox="0 0 200 200" width="200" height="200">
<g fill="black">
<path d="M 72.8 72.1 L 74.5 75.3 L 70.71089792251587 75.36422204971313 L 68.0 79.6 L 63.0 87.0 L 57.7 94.2 L 52.1 101.2 L 46.412101936340335 108.08535032272339 L 51.9 109.0 L 54.9 111.0 L 51.9 112.8 L 51.9 182.4 L 39.9 188.4 L 39.9 115.20793647766114 L 34.1 121.1 L 27.5 127.3 L 20.7 133.2 L 13.5 138.8 L 12.2 137.4 L 18.0 130.5 L 23.7 123.6 L 29.2 116.7 L 34.6 109.8 L 39.7 102.8 L 44.7 95.7 L 49.4 88.5 L 54.0 81.1 L 58.3 73.7 L 61.91155662536621 67.0054072380066 L 61.9 67.0 L 62.02346935272217 66.79795913696289 L 62.4 66.1 L 62.436966800689696 66.12132701873779 L 63.0 65.2 Z M 121.12694873809815 74.32383069992065 L 121.6 88.2 L 123.4 104.2 L 124.63767414093017 109.90927104949951 L 160.8596559524536 107.47467889785767 L 170.2 96.8 L 182.8 106.0 L 183.1 110.0 L 125.49666213989258 113.87169971466065 L 126.5 118.5 L 130.7 131.1 L 136.1 142.2 L 142.6 151.6 L 150.3 159.5 L 159.1 166.0 L 169.1 171.1 L 173.70025367736815 172.56556749343872 L 179.0 149.6 L 181.0 149.6 L 179.10106315612794 174.28617944717408 L 180.4 174.7 L 184.0 177.5 L 184.8 182.0 L 182.0 185.6 L 177.5 186.4 L 164.5 182.2 L 152.8 176.2 L 142.4 168.6 L 133.3 159.2 L 125.8 148.2 L 119.6 135.7 L 114.9 121.6 L 113.4273307800293 114.68291711807251 L 61.1 118.2 L 60.8 114.2 L 112.58350000381469 110.71946964263915 L 111.6 106.1 L 109.6 89.1 L 109.0323450088501 71.59730453491211 L 109.0 71.6 L 109.0 68.2 L 121.0 70.6 L 124.0 72.6 Z M 154.9 89.2 L 153.2 87.2 L 151.2 85.2 L 149.0 83.2 L 146.4 81.1 L 143.6 79.1 L 140.6 77.0 L 137.3 74.7 L 133.6 72.8 L 134.2 71.1 L 138.3 72.2 L 142.3 73.0 L 146.1 74.1 L 149.6 75.3 L 153.0 76.6 L 156.1 78.1 L 159.1 79.7 L 161.8 81.4 L 164.4 83.3 L 166.7 85.4 L 168.0 89.8 L 165.8 93.8 L 161.4 95.1 L 157.4 93.0 L 156.3 91.1 Z M 44.0 71.6 L 32.0 77.6 L 32.0 24.2 L 44.0 26.2 L 47.0 28.2 L 44.0 30.0 L 44.0 55.6 L 94.0 55.6 L 94.0 12.5 L 106.0 14.5 L 109.0 16.5 L 106.0 18.3 L 106.0 55.6 L 155.0 55.6 L 155.0 24.2 L 167.0 26.2 L 170.0 28.2 L 167.0 30.0 L 167.0 61.6 L 155.0 67.6 L 155.0 59.6 L 44.0 59.6 Z " />
</g>
</svg>
