<svg xmlns="http://www.w3.org/2000/svg" xmlns:xlink="http://www.w3.org/1999/xlink" version="1.1" baseProfile="full" viewBox="0 0 200 200" width="200" height="200">
<g fill="black">
<path d="M 11.8 95.0 L 11.8 91.0 L 28.3 91.0 L 28.3 22.0 L 40.3 28.0 L 56.6 28.0 L 62.6 23.0 L 73.6 32.0 L 68.6 36.0 L 68.6 91.0 L 81.2 91.0 L 81.2 22.0 L 93.2 28.0 L 110.2 28.0 L 116.2 23.0 L 127.2 32.0 L 122.2 36.0 L 122.2 91.0 L 126.8 91.0 L 131.3 85.0 L 137.3 91.0 L 137.3 95.0 L 122.2 95.0 L 122.2 172.0 L 122.1 174.5 L 121.6 177.0 L 120.8 179.4 L 119.6 181.7 L 118.0 183.7 L 116.0 185.3 L 113.7 186.6 L 111.3 187.4 L 108.8 187.8 L 106.2 188.0 L 106.2 182.0 L 86.2 179.0 L 86.2 176.0 L 106.2 176.0 L 107.5 175.9 L 108.4 175.7 L 109.3 175.4 L 109.5 175.2 L 109.6 175.0 L 109.8 174.7 L 110.0 174.1 L 110.2 173.2 L 110.2 95.0 L 93.2 95.0 L 93.2 106.0 L 92.7 117.2 L 91.9 127.8 L 90.7 137.8 L 89.2 147.1 L 87.2 155.8 L 84.9 163.8 L 82.2 171.1 L 79.0 177.7 L 75.4 183.5 L 71.3 188.4 L 69.8 187.5 L 72.0 181.7 L 74.1 175.6 L 75.9 169.0 L 77.6 161.9 L 78.9 154.1 L 80.0 145.7 L 80.7 136.7 L 81.2 127.1 L 81.4 116.9 L 81.2 106.0 L 81.2 95.0 L 68.6 95.0 L 68.6 171.0 L 68.4 173.5 L 68.0 176.0 L 67.2 178.4 L 66.0 180.7 L 64.3 182.7 L 62.3 184.3 L 60.0 185.6 L 57.6 186.4 L 55.1 186.8 L 52.6 187.0 L 52.6 181.0 L 36.6 178.0 L 36.6 175.0 L 52.6 175.0 L 53.8 174.9 L 54.7 174.7 L 55.6 174.4 L 56.0 174.0 L 56.2 173.7 L 56.4 173.1 L 56.5 172.2 L 56.6 171.0 L 56.6 95.0 L 40.3 95.0 L 40.3 104.0 L 39.8 115.4 L 38.9 126.3 L 37.6 136.5 L 35.9 146.1 L 33.7 155.1 L 31.2 163.4 L 28.2 171.1 L 24.7 178.0 L 20.7 184.2 L 16.2 189.5 L 14.7 188.4 L 17.4 182.3 L 19.8 175.8 L 22.0 168.8 L 23.9 161.3 L 25.4 153.3 L 26.7 144.6 L 27.6 135.4 L 28.2 125.5 L 28.4 115.0 L 28.3 104.0 L 28.3 95.0 Z M 187.3 122.5 L 189.1 125.6 L 185.37817592620848 125.92084693908691 L 182.3 131.4 L 177.2 139.7 L 171.7 147.6 L 166.0 155.0 L 160.0 161.9 L 153.7 168.3 L 147.2 174.1 L 140.4 179.3 L 133.3 183.8 L 125.9 187.7 L 125.0 186.2 L 131.1 180.8 L 137.0 175.2 L 142.7 169.3 L 148.2 163.1 L 153.5 156.4 L 158.6 149.4 L 163.4 142.0 L 168.0 134.2 L 172.4 125.9 L 176.5 117.2 L 176.5040955543518 117.20200986862183 L 177.0 116.1 Z M 182.2 73.5 L 184.0 76.7 L 180.22256412506104 76.96051282882691 L 178.2 80.5 L 174.1 87.1 L 169.7 93.5 L 165.2 99.7 L 160.4 105.5 L 155.5 111.0 L 150.4 116.2 L 145.0 121.1 L 139.4 125.6 L 133.5 129.6 L 132.4 128.3 L 136.8 122.9 L 141.2 117.4 L 145.5 111.9 L 149.6 106.2 L 153.7 100.4 L 157.6 94.3 L 161.3 88.1 L 164.8 81.7 L 168.3 75.0 L 171.5 68.1 L 171.5582200050354 68.12938203811646 L 172.1 67.1 Z M 40.3 32.0 L 40.3 91.0 L 56.6 91.0 L 56.6 32.0 Z M 93.2 32.0 L 93.2 91.0 L 110.2 91.0 L 110.2 32.0 Z M 178.4 25.6 L 180.1 28.8 L 176.37535152435302 28.992654228210448 L 174.7 31.8 L 170.8 37.8 L 166.8 43.6 L 162.6 49.2 L 158.3 54.7 L 153.8 59.9 L 149.1 65.0 L 144.2 69.8 L 139.0 74.4 L 133.6 78.6 L 132.3 77.3 L 144.0 60.8 L 147.8 55.3 L 151.4 49.7 L 155.0 44.0 L 158.4 38.2 L 161.7 32.2 L 164.8 26.2 L 167.35354557037354 20.922672462463378 L 167.3 20.9 L 168.3 19.0 Z " />
</g>
</svg>
