<svg xmlns="http://www.w3.org/2000/svg" xmlns:xlink="http://www.w3.org/1999/xlink" version="1.1" baseProfile="full" viewBox="0 0 200 200" width="200" height="200">
<g fill="black">
<path d="M 51.1 16.0 L 54.1 18.0 L 51.1 19.8 L 51.1 183.0 L 39.1 189.0 L 39.1 14.0 Z M 164.2 172.8 L 158.4 165.8 L 153.1 158.4 L 148.3 150.7 L 144.2 142.7 L 140.7 134.5 L 137.8 126.0 L 136.38959999084472 120.3583999633789 L 133.5 126.0 L 123.9 140.6 L 113.1 153.6 L 101.1 164.9 L 88.0 174.4 L 73.7 182.0 L 58.3 187.8 L 57.7 186.1 L 71.9 178.7 L 84.9 170.0 L 96.8 160.0 L 107.4 148.6 L 117.0 135.8 L 125.4 121.5 L 132.7 105.7 L 138.9 88.3 L 144.0 69.4 L 147.3951219558716 52.0 L 110.8673267364502 52.0 L 107.9 60.1 L 103.7 69.6 L 98.9 78.6 L 93.6 87.1 L 87.7 94.9 L 81.3 102.1 L 74.3 108.6 L 73.0 107.3 L 78.4 99.7 L 83.4 91.8 L 88.0 83.7 L 92.2 75.2 L 95.9 66.3 L 99.2 56.9 L 102.0 47.2 L 104.3 36.9 L 106.2 26.3 L 107.57785663604736 16.103860664367676 L 107.5 16.1 L 107.9 13.1 L 119.6 16.7 L 122.3 19.1 L 118.86755819320679 20.561965942382812 L 117.4 28.3 L 114.8 39.4 L 112.20377359390258 48.0 L 147.9 48.0 L 153.9 43.0 L 164.9 52.0 L 159.9 55.0 L 158.78429317474365 55.4648777961731 L 155.0 72.1 L 149.1 91.7 L 141.9 109.6 L 139.17223262786865 114.92564105987549 L 139.6 115.9 L 143.3 123.9 L 147.2 131.5 L 151.5 138.7 L 156.2 145.7 L 161.3 152.3 L 166.8 158.6 L 172.7 164.7 L 179.1 170.4 L 185.9 175.8 L 188.5 177.9 L 177.6 186.1 L 170.6 179.6 Z M 14.1 101.4 L 11.8 97.4 L 12.9 93.0 L 14.4 91.3 L 15.9 89.3 L 17.5 86.7 L 19.0 83.7 L 20.5 80.3 L 22.0 76.4 L 23.5 72.1 L 25.0 67.4 L 26.5 62.3 L 27.9 56.8 L 29.7 57.0 L 29.7 68.2 L 29.4 73.3 L 29.0 78.0 L 28.3 82.4 L 27.5 86.5 L 26.6 90.4 L 25.4 93.9 L 24.1 97.1 L 22.5 100.1 L 18.6 102.4 Z M 67.4 78.4 L 66.6 75.7 L 65.6 72.9 L 64.4 70.0 L 63.1 67.0 L 61.5 63.9 L 59.8 60.8 L 57.9 57.5 L 55.7 54.3 L 56.9 53.0 L 60.0 55.6 L 63.1 58.0 L 66.0 60.5 L 68.6 63.1 L 71.0 65.8 L 73.2 68.6 L 75.2 71.5 L 77.0 74.4 L 78.6 77.4 L 80.0 80.4 L 79.4 84.9 L 75.9 87.8 L 71.3 87.3 L 68.4 83.7 L 68.0 81.1 Z " />
</g>
</svg>
