<svg xmlns="http://www.w3.org/2000/svg" xmlns:xlink="http://www.w3.org/1999/xlink" version="1.1" baseProfile="full" viewBox="0 0 200 200" width="200" height="200">
<g fill="black">
<path d="M 74.1 58.8 L 75.7 62.0 L 71.99636974334717 62.06277341842652 L 69.2 66.4 L 64.0 73.7 L 58.6 80.8 L 52.9 87.6 L 46.9 94.2 L 45.27954549789429 95.84659090042115 L 52.2 97.0 L 55.2 99.0 L 52.2 100.8 L 52.2 182.0 L 40.2 188.0 L 40.2 100.9692307472229 L 34.2 106.6 L 27.3 112.3 L 20.2 117.7 L 12.7 122.7 L 11.5 121.2 L 17.7 114.8 L 23.7 108.4 L 29.5 101.9 L 35.1 95.4 L 40.5 88.7 L 45.6 81.8 L 50.5 74.8 L 55.1 67.6 L 59.5 60.3 L 63.7 52.8 L 64.2 51.9 Z M 147.1 135.2 L 157.1 135.2 L 158.3 135.1 L 159.2 135.0 L 159.8 134.8 L 160.4 134.5 L 160.7 133.9 L 160.9 133.3 L 161.0 132.4 L 161.1 131.2 L 161.1 86.80685358047485 L 135.6 95.33333330154419 L 135.6 151.0 L 123.6 157.0 L 123.6 99.34579439163208 L 100.8 106.96947040557862 L 100.8 164.2 L 100.9 165.4 L 101.0 166.3 L 101.2 166.9 L 101.4 167.3 L 101.7 167.6 L 102.1 167.8 L 102.7 168.0 L 103.6 168.1 L 104.8 168.2 L 175.8 168.2 L 181.8 143.2 L 183.8 143.2 L 181.8 168.2 L 185.4 170.6 L 187.8 174.2 L 185.4 177.8 L 181.8 180.2 L 104.8 180.2 L 102.3 180.1 L 99.8 179.6 L 97.4 178.8 L 95.1 177.6 L 93.1 175.9 L 91.4 173.9 L 90.2 171.7 L 89.4 169.3 L 89.0 166.8 L 88.8 164.2 L 88.8 110.9819314956665 L 71.4 116.8 L 70.1 113.1 L 88.8 106.83433609008789 L 88.8 68.2 L 100.8 70.2 L 103.8 72.2 L 100.8 74.0 L 100.8 102.81358919143676 L 123.6 95.17417011260986 L 123.6 55.5 L 135.6 57.5 L 138.6 59.5 L 135.6 61.3 L 135.6 91.15342321395875 L 161.1 82.6093360900879 L 161.1 80.7 L 167.1 75.7 L 178.1 84.7 L 173.1 88.7 L 173.1 131.2 L 173.0 133.8 L 172.5 136.3 L 171.7 138.7 L 170.5 140.9 L 168.8 142.9 L 166.8 144.6 L 164.6 145.8 L 162.2 146.6 L 159.7 147.1 L 157.1 147.2 L 157.1 141.2 L 147.1 138.2 Z M 113.3 18.1 L 115.6 20.8 L 111.98297872543336 21.768844985961913 L 110.5 25.9 L 107.3 33.5 L 103.7 40.9 L 99.8 47.9 L 99.12058820724488 49.0 L 161.9 49.0 L 171.9 39.0 L 183.9 49.0 L 183.9 53.0 L 96.65 53.0 L 95.6 54.7 L 91.1 61.1 L 86.2 67.3 L 80.9 73.1 L 75.2 78.4 L 69.1 83.4 L 67.8 82.1 L 72.4 75.9 L 76.7 69.7 L 80.9 63.4 L 84.7 56.9 L 88.3 50.4 L 91.6 43.6 L 94.6 36.7 L 97.3 29.5 L 99.7 22.2 L 101.8 14.6 L 101.86398763656616 14.619474506378173 L 102.3 13.0 Z M 66.8 20.9 L 68.3 24.1 L 64.59055290222167 24.163955974578858 L 62.4 27.4 L 57.8 33.7 L 53.1 39.8 L 48.2 45.6 L 43.1 51.1 L 37.9 56.5 L 32.5 61.5 L 26.8 66.3 L 21.0 70.7 L 14.9 74.6 L 13.7 73.3 L 18.4 67.8 L 23.1 62.4 L 27.7 57.0 L 32.3 51.4 L 36.6 45.7 L 40.9 39.8 L 45.0 33.8 L 49.0 27.6 L 52.8 21.3 L 55.975008201599124 15.636471843719482 L 55.9 15.6 L 57.0 13.8 Z " />
</g>
</svg>
