<svg xmlns="http://www.w3.org/2000/svg" xmlns:xlink="http://www.w3.org/1999/xlink" version="1.1" baseProfile="full" viewBox="0 0 200 200" width="200" height="200">
<g fill="black">
<path d="M 37.5 46.0 L 115.74615383148193 46.0 L 113.0 15.4 L 113.03732500076293 15.397200584411621 L 112.9 13.2 L 125.0 14.5 L 128.1 16.3 L 125.33981819152832 18.238000011444093 L 127.8 45.3 L 127.88941602706909 46.0 L 157.0 46.0 L 167.0 36.0 L 179.0 46.0 L 179.0 50.0 L 128.40036497116088 50.0 L 131.3 72.7 L 135.6 96.9 L 140.6 117.6 L 144.59643077850342 129.79963073730468 L 145.1 128.7 L 149.3 117.4 L 152.9 105.4 L 155.7 92.6 L 157.73782739639282 80.00252180099487 L 157.7 80.0 L 158.2 77.0 L 169.7 80.8 L 172.4 83.3 L 168.89806547164918 84.72671403884888 L 166.8 95.0 L 163.2 108.3 L 158.8 120.8 L 153.6 132.6 L 149.0125910758972 140.93379287719728 L 152.7 149.0 L 159.5 159.5 L 166.7 166.6 L 174.1 170.7 L 176.44183864593506 171.08536586761474 L 182.0 147.0 L 184.0 147.0 L 182.07446804046631 172.0319149017334 L 186.2 173.8 L 188.0 178.0 L 186.2 182.2 L 182.0 184.0 L 170.2 182.0 L 159.5 176.2 L 150.2 167.0 L 142.1 154.7 L 141.31234340667726 152.9784076690674 L 140.9 153.6 L 133.4 162.8 L 125.2 171.1 L 116.2 178.4 L 106.5 184.7 L 105.4 183.2 L 113.8 175.5 L 121.4 167.4 L 128.3 158.7 L 134.6 149.3 L 137.38048782348633 144.38449478149414 L 135.1 139.4 L 129.0 120.9 L 123.8 99.3 L 119.4 74.5 L 116.23870964050293 50.0 L 37.5 50.0 L 37.5 105.0 L 37.0 116.4 L 36.1 127.2 L 34.8 137.3 L 33.1 146.8 L 31.0 155.6 L 28.4 163.7 L 25.5 171.1 L 22.0 177.7 L 18.0 183.5 L 13.6 188.4 L 12.3 187.5 L 15.1 181.7 L 17.6 175.6 L 19.8 168.9 L 21.8 161.7 L 23.4 153.8 L 24.7 145.4 L 25.7 136.2 L 26.3 126.5 L 26.5 116.0 L 26.5 40.5 Z M 55.6 179.1 L 45.6 184.1 L 45.6 85.9 L 55.6 90.9 L 69.3192307472229 90.9 L 69.4 90.6 L 70.2 85.2 L 70.7 82.5 L 71.1 79.8 L 71.6 77.1 L 72.0 74.4 L 72.4 71.6 L 72.66666669845581 69.8 L 42.0 69.8 L 42.0 65.8 L 97.71818180084229 65.8 L 105.9 56.8 L 115.9 65.8 L 115.9 69.8 L 84.5615385055542 69.8 L 83.5 72.1 L 82.2 74.8 L 80.9 77.3 L 79.6 79.9 L 78.2 82.3 L 76.7 84.8 L 73.5 89.4 L 72.27272729873657 90.9 L 101.8 90.9 L 107.3 85.9 L 117.8 94.9 L 112.8 98.4 L 112.8 167.1 L 101.8 172.6 L 101.8 167.1 L 55.6 167.1 Z M 55.6 94.9 L 55.6 163.1 L 63.6 163.1 L 63.6 94.9 Z M 73.6 142.0 L 73.6 163.1 L 84.3 163.1 L 84.3 142.0 Z M 94.3 94.9 L 94.3 163.1 L 101.8 163.1 L 101.8 94.9 Z M 73.6 118.5 L 73.6 138.0 L 84.3 138.0 L 84.3 118.5 Z M 73.6 94.9 L 73.6 114.5 L 84.3 114.5 L 84.3 94.9 Z M 148.4 30.4 L 147.6 29.0 L 146.4 27.4 L 144.9 25.7 L 143.2 23.9 L 141.2 22.1 L 138.9 20.1 L 136.4 17.9 L 133.5 16.2 L 134.2 14.6 L 137.5 15.8 L 140.7 16.7 L 143.7 17.6 L 146.5 18.6 L 149.1 19.6 L 153.7 21.9 L 155.7 23.2 L 157.6 24.6 L 159.3 26.1 L 160.1 30.6 L 157.6 34.4 L 153.1 35.3 L 149.3 32.8 L 149.0 31.7 Z " />
</g>
</svg>
