<svg xmlns="http://www.w3.org/2000/svg" xmlns:xlink="http://www.w3.org/1999/xlink" version="1.1" baseProfile="full" viewBox="0 0 200 200" width="200" height="200">
<g fill="black">
<path d="M 147.0 145.0 L 149.0 145.0 L 147.0 170.0 L 150.6 172.4 L 153.0 176.0 L 150.6 179.6 L 147.0 182.0 L 76.0 182.0 L 73.4 181.8 L 70.9 181.4 L 68.5 180.6 L 66.2 179.3 L 64.2 177.7 L 62.6 175.7 L 61.3 173.4 L 60.5 171.0 L 60.1 168.5 L 60.0 166.0 L 60.0 124.0 L 72.0 126.0 L 75.0 128.0 L 72.0 129.8 L 72.0 167.2 L 72.2 168.1 L 72.5 169.0 L 72.9 169.4 L 73.8 169.7 L 74.7 169.9 L 76.0 170.0 L 141.0 170.0 Z M 15.4 173.6 L 14.7 169.1 L 17.2 165.3 L 20.0 163.5 L 22.7 161.4 L 25.1 158.7 L 27.4 155.6 L 29.4 151.9 L 31.2 147.6 L 32.7 142.8 L 34.0 137.4 L 35.2 131.5 L 36.1 125.0 L 37.9 124.9 L 38.8 131.6 L 39.2 137.9 L 39.1 143.8 L 38.4 149.5 L 37.3 154.7 L 35.6 159.6 L 33.5 164.2 L 30.8 168.4 L 27.5 172.1 L 23.7 175.3 L 19.2 176.1 Z M 170.1 157.7 L 168.5 153.8 L 166.6 150.0 L 164.4 146.2 L 161.8 142.4 L 158.9 138.7 L 155.7 134.9 L 152.2 131.1 L 148.3 127.3 L 149.3 125.8 L 154.3 128.2 L 159.1 131.0 L 163.4 134.1 L 167.4 137.4 L 171.0 141.0 L 174.3 144.9 L 177.2 149.0 L 179.8 153.2 L 182.1 157.7 L 183.9 162.4 L 183.3 167.0 L 179.8 169.8 L 175.2 169.2 L 172.4 165.7 L 171.4 161.7 Z M 168.0 117.6 L 166.1 118.9 L 164.0 120.1 L 161.9 121.1 L 159.7 121.9 L 157.4 122.5 L 155.1 122.9 L 152.8 123.2 L 150.4 123.3 L 150.4 117.3 L 130.4 114.3 L 130.4 111.3 L 150.4 111.3 L 151.9 111.2 L 153.4 111.0 L 154.7 110.8 L 156.1 110.4 L 157.4 109.9 L 158.6 109.4 L 159.8 108.7 L 161.0 107.9 L 162.1 107.0 L 163.3 106.0 L 164.4 104.6 L 165.7 102.0 L 167.0 98.3 L 168.2 93.5 L 169.3 87.7 L 170.2 81.0 L 170.9 73.2 L 171.4 64.5 L 171.7 54.8 L 171.78113203048707 46.2 L 141.70819673538207 46.2 L 141.0 55.8 L 138.9 67.2 L 135.7 77.6 L 131.3 87.2 L 125.7 95.9 L 118.9 103.5 L 111.1 110.1 L 102.2 115.6 L 92.3 120.0 L 96.4 121.6 L 100.2 123.4 L 103.8 125.6 L 107.3 128.0 L 110.6 130.6 L 113.7 133.5 L 116.6 136.6 L 119.3 139.9 L 121.8 143.4 L 122.2 148.0 L 119.4 151.6 L 114.8 152.0 L 111.2 149.2 L 109.7 145.9 L 108.0 142.8 L 106.2 139.7 L 104.1 136.7 L 101.8 133.8 L 99.4 131.0 L 96.7 128.2 L 93.8 125.5 L 90.8 122.7 L 88.60377655029296 121.08512983322143 L 81.4 123.2 L 80.8 121.5 L 90.7 116.5 L 99.4 111.0 L 107.0 105.0 L 113.4 98.3 L 118.7 91.0 L 123.0 83.1 L 126.2 74.4 L 128.4 64.9 L 129.7 54.7 L 129.85315313339234 46.2 L 97.4 46.2 L 97.4 42.2 L 129.9 42.2 L 129.9 14.0 L 141.9 16.0 L 144.9 18.0 L 141.9 19.8 L 141.9 42.2 L 171.8 42.2 L 177.8 37.2 L 188.8 46.2 L 183.8 49.2 L 183.75395240783692 49.21918649673462 L 183.7 55.1 L 183.4 65.0 L 182.9 74.1 L 182.1 82.3 L 181.2 89.6 L 180.0 96.1 L 178.5 101.8 L 176.7 106.7 L 174.5 111.0 L 171.7 114.5 L 169.9 116.2 Z M 83.9 95.1 L 82.7 92.7 L 82.36954317092895 92.08629446029663 L 79.4 93.0 L 70.6 95.5 L 62.3 97.8 L 54.5 99.8 L 47.1 101.7 L 40.2 103.4 L 33.7 105.0 L 27.7 106.5 L 22.2 107.8 L 21.271815681457518 108.02276420593262 L 19.7 111.6 L 17.2 109.0 L 13.1 97.5 L 15.1 97.2 L 20.2 96.6 L 25.8 95.9 L 30.231732749938963 95.31878910064697 L 32.0 91.3 L 34.2 86.6 L 36.3 81.9 L 38.3 77.4 L 40.2 72.9 L 42.0 68.6 L 43.6 64.4 L 45.1 60.3 L 46.09782390594482 57.22977247238159 L 46.0 57.2 L 46.07826089859009 57.0 L 14.0 57.0 L 14.0 53.0 L 74.8 53.0 L 84.8 43.0 L 96.8 53.0 L 96.8 57.0 L 50.73793106079101 57.0 L 57.5 60.7 L 59.6 63.7 L 55.74476795196533 64.29822568893432 L 55.5 64.8 L 53.3 68.9 L 51.0 73.0 L 48.5 77.2 L 45.8 81.4 L 42.9 85.6 L 39.8 89.9 L 36.6 94.2 L 36.29189186096191 94.55945949554443 L 38.4 94.3 L 45.5 93.4 L 53.0 92.4 L 61.1 91.3 L 69.6 90.3 L 78.6 89.3 L 80.61534986495971 89.11106090545654 L 79.5 87.5 L 77.4 84.8 L 75.0 81.9 L 72.3 78.9 L 69.3 75.8 L 65.9 72.8 L 66.9 71.3 L 71.0 73.5 L 75.0 75.4 L 78.6 77.5 L 82.0 79.8 L 85.1 82.1 L 87.9 84.5 L 90.5 86.9 L 92.7 89.5 L 94.7 92.3 L 96.4 95.1 L 96.3 99.7 L 93.0 102.9 L 88.5 102.8 L 85.3 99.5 L 84.7 97.4 Z M 92.0 26.4 L 92.0 30.4 L 22.4 30.4 L 22.4 26.4 L 70.0 26.4 L 80.0 16.4 Z " />
</g>
</svg>
