<svg xmlns="http://www.w3.org/2000/svg" xmlns:xlink="http://www.w3.org/1999/xlink" version="1.1" baseProfile="full" viewBox="0 0 200 200" width="200" height="200">
<g fill="black">
<path d="M 37.2 175.1 L 44.6 173.5 L 52.1 171.9 L 66.1 168.87297296524048 L 66.1 142.9 L 38.6 142.9 L 38.6 138.9 L 66.1 138.9 L 66.1 110.7 L 52.0 110.7 L 52.0 122.7 L 41.0 128.2 L 41.0 39.4 L 52.0 44.9 L 92.6 44.9 L 98.6 39.9 L 109.6 48.9 L 104.6 52.9 L 104.6 116.7 L 92.6 122.7 L 92.6 110.7 L 78.1 110.7 L 78.1 138.9 L 85.4 138.9 L 95.4 128.9 L 107.4 138.9 L 107.4 142.9 L 78.1 142.9 L 78.1 166.33999996185304 L 81.8 165.6 L 96.6 162.8 L 104.1 161.6 L 111.6 160.6 L 112.0 162.3 L 105.1 165.3 L 98.0 168.0 L 90.9 170.5 L 83.7 173.0 L 76.5 175.3 L 69.3 177.7 L 62.1 180.0 L 54.8 182.2 L 47.5 184.5 L 44.11036338806152 185.52153434753419 L 42.9 189.1 L 40.2 186.7 L 35.2 175.6 Z M 136.70775051116942 18.7353497505188 L 137.8 56.6 L 139.2095432281494 70.61251821517945 L 166.40801811218262 68.6150782585144 L 175.7 57.9 L 188.4 67.0 L 188.7 70.9 L 139.60117406845092 74.50578889846801 L 141.2 90.4 L 146.1 117.1 L 149.8906310081482 129.7768642425537 L 155.1 120.4 L 161.1 107.6 L 166.4 93.8 L 166.41155023574828 93.80429306030274 L 166.9 92.4 L 177.7 98.0 L 179.8 100.9 L 176.13609590530396 101.6070692062378 L 171.5 112.3 L 164.6 125.5 L 157.0 137.6 L 154.01108264923096 141.5612156867981 L 158.8 152.3 L 165.4 162.5 L 171.6 168.8 L 176.8 172.2 L 177.48532609939576 172.46358699798583 L 182.9 149.0 L 184.9 149.0 L 182.97446804046632 174.0319149017334 L 187.1 175.8 L 188.9 180.0 L 187.1 184.2 L 182.9 186.0 L 177.9 185.3 L 171.5 182.9 L 164.0 178.1 L 156.1 170.0 L 148.3 158.1 L 145.56955127716066 152.01183738708497 L 139.8 158.3 L 130.1 167.0 L 119.9 174.4 L 108.9 180.5 L 97.4 185.4 L 85.3 188.8 L 84.7 187.1 L 95.9 181.9 L 106.3 175.8 L 116.1 169.0 L 125.2 161.2 L 133.6 152.5 L 141.4 142.8 L 141.42291135787963 142.76595106124878 L 140.9 141.6 L 134.4 119.9 L 129.3 92.1 L 127.61416072845459 75.38610811233521 L 107.0 76.9 L 106.7 73.0 L 127.22147560119629 71.49291486740113 L 125.8 57.4 L 124.62823534011841 15.997647094726563 L 124.6 16.0 L 124.6 12.6 L 136.6 15.0 L 139.6 17.0 Z M 30.7 25.0 L 88.9 25.0 L 98.9 15.0 L 110.9 25.0 L 110.9 29.0 L 30.7 29.0 L 30.7 90.0 L 30.3 104.0 L 29.6 117.1 L 28.7 129.3 L 27.5 140.6 L 26.0 150.9 L 24.2 160.4 L 22.1 168.8 L 19.7 176.4 L 16.9 182.9 L 13.7 188.3 L 12.2 187.6 L 13.6 181.7 L 15.0 175.1 L 16.2 167.6 L 17.3 159.2 L 18.3 150.0 L 19.0 139.8 L 19.5 128.7 L 19.8 116.7 L 19.8 103.8 L 19.7 90.0 L 19.7 19.5 Z M 52.0 80.2 L 52.0 106.7 L 66.1 106.7 L 66.1 80.2 Z M 78.1 80.2 L 78.1 106.7 L 92.6 106.7 L 92.6 80.2 Z M 52.0 48.9 L 52.0 76.2 L 66.1 76.2 L 66.1 48.9 Z M 78.1 48.9 L 78.1 76.2 L 92.6 76.2 L 92.6 48.9 Z M 164.4 42.7 L 163.0 40.1 L 161.4 37.5 L 159.6 34.9 L 157.6 32.4 L 155.3 29.8 L 152.9 27.2 L 150.2 24.6 L 147.2 22.2 L 148.1 20.6 L 151.7 22.2 L 155.3 23.6 L 158.8 25.3 L 162.0 27.3 L 165.0 29.4 L 167.9 31.7 L 170.5 34.1 L 173.0 36.8 L 175.3 39.6 L 177.4 42.6 L 177.6 47.1 L 174.7 50.6 L 170.1 50.9 L 166.6 48.0 L 165.6 45.3 Z " />
</g>
</svg>
