<svg xmlns="http://www.w3.org/2000/svg" xmlns:xlink="http://www.w3.org/1999/xlink" version="1.1" baseProfile="full" viewBox="0 0 200 200" width="200" height="200">
<g fill="black">
<path d="M 163.0 174.5 L 157.0 168.1 L 151.4 161.3 L 146.3 153.9 L 141.8 146.0 L 137.7 137.6 L 134.1 128.6 L 131.2 119.2 L 129.40508060455323 111.0412754058838 L 125.2 117.3 L 120.4 123.4 L 115.0 129.3 L 109.9962025642395 134.0493670463562 L 115.7 135.0 L 118.7 137.0 L 115.7 138.8 L 115.7 168.0 L 115.5666666984558 168.0666666984558 L 117.1 167.8 L 124.1 166.5 L 131.3 165.2 L 138.6 164.1 L 146.2 163.1 L 146.6 164.8 L 139.6 167.8 L 132.6 170.4 L 125.7 172.8 L 118.9 175.1 L 112.2 177.3 L 105.6 179.3 L 99.2 181.3 L 92.8 183.1 L 86.6 184.9 L 84.39525861740113 185.50452585220336 L 83.0 189.1 L 80.4 186.6 L 75.9 175.3 L 77.8 174.9 L 84.0 173.8 L 90.4 172.7 L 96.8 171.5 L 103.4 170.3 L 103.7 170.24264707565308 L 103.7 139.61428575515748 L 102.8 140.4 L 95.8 145.6 L 88.4 150.6 L 80.5 155.3 L 71.9 159.7 L 62.8 163.7 L 62.0 162.2 L 70.0 156.4 L 77.5 150.8 L 84.6 145.3 L 91.1 139.7 L 97.1 134.0 L 102.6 128.3 L 107.5 122.6 L 111.9 116.8 L 115.8 110.9 L 116.29655170440674 110.0 L 99.9 110.0 L 99.9 117.0 L 87.9 123.0 L 87.9 73.0 L 99.9 79.0 L 156.2 79.0 L 162.2 74.0 L 173.2 83.0 L 168.2 87.0 L 168.2 114.0 L 156.2 120.0 L 156.2 110.0 L 131.4615385055542 110.0 L 135.1 117.7 L 139.5 126.2 L 144.1 134.2 L 148.9 141.7 L 153.4731707572937 147.7975609779358 L 158.8 141.9 L 161.5 139.0 L 164.1 136.2 L 166.5 133.4 L 168.8 130.6 L 171.0 127.9 L 173.0 125.3 L 174.27453413009644 123.55590057373047 L 174.2 123.5 L 175.2 122.3 L 183.8 130.7 L 184.7 134.2 L 180.68289070129396 133.42476835250855 L 178.4 135.3 L 175.5 137.6 L 172.5 139.9 L 169.3 142.1 L 166.0 144.3 L 162.5 146.5 L 158.9 148.6 L 155.53559856414796 150.32533407211304 L 159.3 154.8 L 164.9 160.5 L 170.8 165.7 L 177.0 170.3 L 183.5 174.4 L 187.5 176.9 L 176.5 185.5 L 169.5 180.3 Z M 49.8 16.0 L 52.8 18.0 L 49.8 19.8 L 49.8 183.0 L 37.8 189.0 L 37.8 14.0 Z M 99.9 83.0 L 99.9 106.0 L 156.2 106.0 L 156.2 83.0 Z M 13.7 101.4 L 11.4 97.5 L 12.4 93.0 L 13.9 91.4 L 15.4 89.3 L 16.9 86.7 L 18.4 83.7 L 19.9 80.3 L 21.3 76.4 L 22.8 72.1 L 24.2 67.4 L 25.7 62.4 L 27.1 56.9 L 28.9 57.0 L 28.9 68.2 L 28.7 73.2 L 28.3 78.0 L 27.7 82.4 L 26.9 86.5 L 26.0 90.3 L 24.9 93.8 L 23.6 97.1 L 22.1 100.0 L 18.2 102.4 Z M 65.3 78.4 L 64.5 75.6 L 63.5 72.8 L 62.4 69.9 L 61.1 67.0 L 59.6 63.9 L 58.0 60.7 L 56.2 57.4 L 54.0 54.3 L 55.3 53.1 L 58.3 55.6 L 61.3 58.0 L 64.1 60.6 L 66.7 63.2 L 69.0 65.9 L 71.2 68.7 L 73.1 71.5 L 74.9 74.4 L 76.4 77.4 L 77.8 80.5 L 77.2 85.0 L 73.6 87.8 L 69.1 87.2 L 66.2 83.7 L 65.8 81.1 Z M 75.0 61.0 L 122.6 61.0 L 122.6 40.0 L 86.6 40.0 L 86.6 36.0 L 122.6 36.0 L 122.6 12.0 L 134.6 14.0 L 137.6 16.0 L 134.6 17.8 L 134.6 36.0 L 153.8 36.0 L 163.8 26.0 L 175.8 36.0 L 175.8 40.0 L 134.6 40.0 L 134.6 61.0 L 169.21818180084227 61.0 L 177.4 52.0 L 187.4 61.0 L 187.4 65.0 L 75.0 65.0 Z " />
</g>
</svg>
