<svg xmlns="http://www.w3.org/2000/svg" xmlns:xlink="http://www.w3.org/1999/xlink" version="1.1" baseProfile="full" viewBox="0 0 200 200" width="200" height="200">
<g fill="black">
<path d="M 98.9 110.5 L 97.8 124.1 L 95.9 136.5 L 93.0 147.7 L 89.3 157.8 L 84.7 166.6 L 79.1 174.1 L 72.7 180.2 L 65.4 184.8 L 57.5 187.8 L 56.8 186.1 L 63.4 181.6 L 69.1 176.2 L 73.9 170.0 L 78.0 162.9 L 81.4 154.6 L 84.1 145.3 L 86.0 134.8 L 87.1 123.1 L 87.5 110.2 L 87.20096578598023 96.14539070129395 L 87.1 96.0 L 87.1 18.0 L 99.1 20.0 L 102.1 22.0 L 99.1 23.8 L 99.1 96.0 L 99.09722223281861 96.0041666984558 Z M 22.4 175.0 L 36.4 175.0 L 37.6 174.9 L 38.5 174.7 L 39.4 174.4 L 39.8 174.0 L 40.1 173.1 L 40.3 172.2 L 40.4 171.0 L 40.4 115.66451616287232 L 37.6 117.2 L 25.0 123.8 L 22.336923122406006 125.13153848648071 L 21.7 128.9 L 18.6 127.0 L 11.9 116.9 L 13.7 116.1 L 20.3 113.4 L 26.8 110.8 L 33.3 108.1 L 39.8 105.5 L 40.4 105.246875 L 40.4 57.0 L 14.5 57.0 L 14.5 53.0 L 40.4 53.0 L 40.4 14.0 L 52.4 16.0 L 55.4 18.0 L 52.4 19.8 L 52.4 53.0 L 56.9 53.0 L 66.9 43.0 L 78.9 53.0 L 78.9 57.0 L 52.4 57.0 L 52.4 100.184375 L 52.6 100.1 L 59.0 97.5 L 65.5 94.9 L 71.9 92.5 L 78.5 90.2 L 79.3 91.7 L 73.7 95.8 L 67.9 99.7 L 62.0 103.4 L 56.0 106.9 L 52.4 108.96557378768921 L 52.4 171.0 L 52.2 173.5 L 51.8 176.0 L 51.0 178.4 L 49.7 180.7 L 48.1 182.7 L 46.1 184.3 L 43.8 185.6 L 41.4 186.4 L 38.9 186.8 L 36.4 187.0 L 36.4 181.0 L 22.4 178.0 Z M 177.2 20.0 L 180.2 22.0 L 177.2 23.8 L 177.2 177.0 L 165.2 183.0 L 165.2 18.0 Z M 137.6 29.0 L 140.6 31.0 L 137.6 32.8 L 137.6 153.0 L 125.6 159.0 L 125.6 27.0 Z " />
</g>
</svg>
