<svg xmlns="http://www.w3.org/2000/svg" xmlns:xlink="http://www.w3.org/1999/xlink" version="1.1" baseProfile="full" viewBox="0 0 200 200" width="200" height="200">
<g fill="black">
<path d="M 20.1 175.0 L 34.1 175.0 L 35.3 174.9 L 36.2 174.7 L 37.1 174.4 L 37.5 174.0 L 37.8 173.1 L 38.0 172.2 L 38.1 171.0 L 38.1 116.05789470672607 L 36.3 117.1 L 24.7 123.7 L 22.43088655471802 124.93070564270019 L 21.9 128.7 L 18.8 126.9 L 11.8 117.0 L 13.6 116.1 L 19.6 113.5 L 25.7 110.8 L 31.7 108.2 L 38.1 105.31999998092651 L 38.1 57.0 L 14.6 57.0 L 14.6 53.0 L 38.1 53.0 L 38.1 14.0 L 50.1 16.0 L 53.1 18.0 L 50.1 19.8 L 50.1 53.0 L 52.2 53.0 L 62.2 43.0 L 74.2 53.0 L 74.2 57.0 L 50.1 57.0 L 50.1 99.975 L 55.6 97.5 L 61.6 94.9 L 67.6 92.5 L 73.7 90.2 L 74.6 91.7 L 69.5 95.8 L 64.2 99.6 L 58.7 103.3 L 53.2 106.9 L 50.1 108.78214282989502 L 50.1 171.0 L 49.9 173.5 L 49.5 176.0 L 48.7 178.4 L 47.4 180.7 L 45.8 182.7 L 43.8 184.3 L 41.5 185.6 L 39.1 186.4 L 36.6 186.8 L 34.1 187.0 L 34.1 181.0 L 20.1 178.0 Z M 137.4 185.7 L 135.0 185.3 L 132.6 184.5 L 130.4 183.4 L 128.4 181.8 L 126.7 179.9 L 125.5 177.7 L 124.6 175.3 L 124.1 172.8 L 124.0 170.3 L 124.0 153.1 L 96.3 153.1 L 96.3 165.1 L 84.3 171.1 L 84.3 95.1 L 96.3 101.1 L 124.0 101.1 L 124.0 80.8 L 103.6 80.8 L 103.6 87.8 L 91.6 93.8 L 91.6 50.8 L 90.9 51.7 L 86.5 57.0 L 81.7 62.1 L 76.5 66.9 L 70.8 71.3 L 69.5 70.1 L 73.6 64.3 L 77.6 58.6 L 81.3 53.0 L 84.7 47.4 L 87.8 41.8 L 90.7 36.1 L 93.3 30.4 L 95.5 24.7 L 97.5 18.9 L 98.91115045547485 14.002477836608886 L 98.9 14.0 L 99.6 11.4 L 110.6 16.6 L 112.9 19.4 L 109.18845434188843 20.246492862701416 L 108.2 22.8 L 108.01639347076416 23.2 L 134.9 23.2 L 140.9 18.2 L 151.9 27.2 L 146.9 30.2 L 144.21967210769654 31.31680326461792 L 143.4 32.7 L 141.6 35.3 L 139.7 37.9 L 137.7 40.5 L 135.5 43.0 L 133.2 45.5 L 130.7 48.0 L 128.225 50.2 L 156.3 50.2 L 162.3 45.2 L 173.3 54.2 L 168.3 58.2 L 168.3 84.8 L 156.3 90.8 L 156.3 80.8 L 136.0 80.8 L 136.0 101.1 L 163.6 101.1 L 169.6 96.1 L 180.6 105.1 L 175.6 109.1 L 175.6 157.1 L 163.6 163.1 L 163.6 153.1 L 136.0 153.1 L 136.0 171.5 L 136.1 172.4 L 136.2 173.0 L 136.4 173.4 L 136.5 173.7 L 136.7 173.9 L 137.1 174.2 L 137.7 174.4 L 138.7 174.6 L 140.0 174.8 L 177.5 174.8 L 183.0 153.8 L 185.0 153.8 L 183.0 174.8 L 186.3 177.0 L 188.5 180.3 L 186.3 183.6 L 183.0 185.8 L 140.0 185.8 Z M 96.3 128.4 L 96.3 149.1 L 124.0 149.1 L 124.0 128.4 Z M 136.0 128.4 L 136.0 149.1 L 163.6 149.1 L 163.6 128.4 Z M 96.3 105.1 L 96.3 124.4 L 124.0 124.4 L 124.0 105.1 Z M 136.0 105.1 L 136.0 124.4 L 163.6 124.4 L 163.6 105.1 Z M 103.6 54.2 L 103.6 76.8 L 156.3 76.8 L 156.3 54.2 Z M 106.18032789230347 27.2 L 105.4 28.9 L 102.3 34.9 L 98.8 40.6 L 95.27152318954468 46.035761547088626 L 103.6 50.2 L 125.0290322303772 50.2 L 125.9 48.7 L 127.3 45.5 L 128.7 42.5 L 130.0 39.5 L 131.1 36.6 L 132.2 33.8 L 133.1 31.0 L 134.0 28.3 L 134.29615383148194 27.2 Z " />
</g>
</svg>
