<svg xmlns="http://www.w3.org/2000/svg" xmlns:xlink="http://www.w3.org/1999/xlink" version="1.1" baseProfile="full" viewBox="0 0 200 200" width="200" height="200">
<g fill="black">
<path d="M 159.7 159.6 L 151.8 154.5 L 144.2 149.0 L 136.8 143.1 L 129.7 136.9 L 122.9 130.3 L 116.5 123.3 L 110.5 115.9 L 105.38999996185302 108.6 L 105.0 108.6 L 105.0 153.0 L 121.0 153.0 L 131.0 143.0 L 143.0 153.0 L 143.0 157.0 L 105.0 157.0 L 105.0 182.3 L 93.0 188.3 L 93.0 157.0 L 55.0 157.0 L 55.0 153.0 L 93.0 153.0 L 93.0 114.875 L 90.9 117.5 L 84.4 124.6 L 77.4 131.6 L 69.8 138.3 L 61.6 144.7 L 52.9 150.9 L 43.7 156.9 L 33.8 162.5 L 23.4 167.8 L 12.4 172.6 L 11.5 171.0 L 21.5 164.5 L 31.0 157.9 L 40.0 151.4 L 48.4 144.8 L 56.3 138.2 L 63.6 131.4 L 70.3 124.5 L 76.4 117.5 L 82.0 110.4 L 83.18421049118042 108.6 L 15.0 108.6 L 15.0 104.6 L 93.0 104.6 L 93.0 79.7 L 105.0 81.7 L 108.0 83.7 L 105.0 85.5 L 105.0 104.6 L 162.0 104.6 L 172.0 94.6 L 184.0 104.6 L 184.0 108.6 L 108.4714285850525 108.6 L 113.5 113.0 L 120.6 119.1 L 127.8 124.9 L 135.0 130.5 L 142.4 135.7 L 150.0 140.6 L 157.6 145.1 L 165.5 149.3 L 173.5 153.2 L 181.7 156.8 L 187.6 159.5 L 176.2 168.8 L 167.8 164.4 Z M 56.0 21.4 L 144.0 21.4 L 150.0 16.4 L 161.0 25.4 L 156.0 29.4 L 156.0 81.8 L 144.0 87.8 L 144.0 75.8 L 56.0 75.8 L 56.0 87.8 L 44.0 93.8 L 44.0 15.4 Z M 56.0 50.6 L 56.0 71.8 L 144.0 71.8 L 144.0 50.6 Z M 56.0 25.4 L 56.0 46.6 L 144.0 46.6 L 144.0 25.4 Z " />
</g>
</svg>
