<svg xmlns="http://www.w3.org/2000/svg" xmlns:xlink="http://www.w3.org/1999/xlink" version="1.1" baseProfile="full" viewBox="0 0 200 200" width="200" height="200">
<g fill="black">
<path d="M 137.6 75.5 L 140.6 77.5 L 137.6 79.3 L 137.6 114.5 L 136.7 125.4 L 134.3 135.7 L 130.6 145.2 L 125.5 154.0 L 119.1 161.8 L 111.5 168.8 L 102.7 175.0 L 92.7 180.2 L 81.4 184.5 L 69.1 187.8 L 68.5 186.1 L 80.0 181.0 L 90.2 175.4 L 99.0 169.5 L 106.5 163.1 L 112.7 156.3 L 117.7 149.0 L 121.4 141.2 L 123.9 132.9 L 125.4 124.0 L 125.6 114.5 L 125.6 73.5 Z M 166.4 177.0 L 163.6 174.2 L 160.3 171.2 L 156.5 168.3 L 152.3 165.3 L 147.7 162.2 L 142.6 159.1 L 137.1 155.8 L 131.2 152.3 L 131.8 150.6 L 138.5 152.3 L 144.8 154.2 L 150.6 156.3 L 156.0 158.6 L 161.0 161.1 L 165.6 163.6 L 169.8 166.3 L 173.6 169.1 L 177.1 172.1 L 180.1 175.3 L 181.2 179.7 L 179.0 183.7 L 174.5 184.8 L 170.6 182.5 L 168.7 179.8 Z M 30.4 36.0 L 57.9 36.0 L 63.9 31.0 L 74.9 40.0 L 69.9 44.0 L 69.9 158.0 L 57.9 164.0 L 57.9 152.0 L 30.4 152.0 L 30.4 164.0 L 18.4 170.0 L 18.4 30.0 Z M 186.8 25.0 L 186.8 29.0 L 137.32666664123536 29.0 L 136.2 31.6 L 134.8 34.7 L 133.3 37.7 L 131.8 40.8 L 130.2 43.8 L 126.6 50.0 L 124.6 53.1 L 122.5 56.1 L 121.9375 57.0 L 160.3 57.0 L 166.3 52.0 L 177.3 61.0 L 172.3 65.0 L 172.3 140.8 L 160.3 146.8 L 160.3 61.0 L 103.0 61.0 L 103.0 144.1 L 91.0 150.1 L 91.0 51.0 L 103.0 57.0 L 119.28888893127441 57.0 L 119.9 55.0 L 120.6 51.4 L 121.4 47.9 L 122.1 44.4 L 122.9 41.1 L 123.6 37.8 L 124.3 34.6 L 124.9 31.4 L 125.36451616287232 29.0 L 76.8 29.0 L 76.8 25.0 L 164.8 25.0 L 174.8 15.0 Z M 30.4 96.0 L 30.4 148.0 L 57.9 148.0 L 57.9 96.0 Z M 30.4 40.0 L 30.4 92.0 L 57.9 92.0 L 57.9 40.0 Z " />
</g>
</svg>
