<svg xmlns="http://www.w3.org/2000/svg" xmlns:xlink="http://www.w3.org/1999/xlink" version="1.1" baseProfile="full" viewBox="0 0 200 200" width="200" height="200">
<g fill="black">
<path d="M 32.4 22.0 L 57.4 22.0 L 63.4 17.0 L 74.4 26.0 L 69.4 30.0 L 69.4 171.0 L 69.2 173.5 L 68.8 176.0 L 68.0 178.4 L 66.8 180.7 L 65.1 182.7 L 63.1 184.3 L 60.8 185.6 L 58.4 186.4 L 55.9 186.8 L 53.4 187.0 L 53.4 181.0 L 37.4 178.0 L 37.4 175.0 L 53.4 175.0 L 54.6 174.9 L 55.5 174.7 L 56.4 174.4 L 56.8 174.0 L 57.0 173.7 L 57.1 173.1 L 57.3 172.2 L 57.4 171.0 L 57.4 114.0 L 32.4 114.0 L 32.4 118.0 L 31.9 128.7 L 31.1 138.7 L 30.0 147.9 L 28.6 156.2 L 26.8 163.8 L 24.7 170.6 L 22.2 176.5 L 19.3 181.6 L 15.9 185.6 L 12.2 188.6 L 10.9 187.3 L 12.8 183.5 L 14.5 179.1 L 16.0 174.2 L 17.4 168.5 L 18.5 162.1 L 19.4 154.9 L 20.0 146.8 L 20.4 138.0 L 20.5 128.4 L 20.4 118.0 L 20.4 16.0 Z M 76.2 176.0 L 125.0 176.0 L 125.0 134.0 L 89.7 134.0 L 89.7 130.0 L 125.0 130.0 L 125.0 92.0 L 99.3 92.0 L 99.3 88.0 L 140.6 88.0 L 150.6 78.0 L 162.6 88.0 L 162.6 92.0 L 137.0 92.0 L 137.0 130.0 L 150.2 130.0 L 160.2 120.0 L 172.2 130.0 L 172.2 134.0 L 137.0 134.0 L 137.0 176.0 L 163.7 176.0 L 173.7 166.0 L 185.7 176.0 L 185.7 180.0 L 76.2 180.0 Z M 32.4 69.0 L 32.4 110.0 L 57.4 110.0 L 57.4 69.0 Z M 166.3 87.6 L 161.0 81.4 L 155.9 74.7 L 151.1 67.6 L 146.6 60.0 L 142.4 52.0 L 138.6 43.5 L 135.2 34.6 L 134.6272008895874 32.72358913421631 L 133.2 35.8 L 128.3 45.2 L 122.9 54.2 L 117.1 62.8 L 110.9 71.1 L 104.3 79.0 L 97.2 86.5 L 89.6 93.6 L 81.6 100.1 L 73.1 106.1 L 71.9 104.7 L 79.0 97.3 L 85.8 89.8 L 92.3 82.1 L 98.4 74.2 L 104.1 66.1 L 109.3 57.7 L 114.2 49.1 L 118.7 40.2 L 122.8 31.1 L 124.8328766822815 25.8 L 104.2 25.8 L 104.2 21.8 L 128.3 21.8 L 133.1 17.8 L 144.1 26.8 L 139.1 29.8 L 137.59032258987426 30.554838752746583 L 138.9 32.8 L 143.8 40.8 L 148.7 48.4 L 153.6 55.5 L 158.7 62.2 L 163.9 68.3 L 169.2 74.0 L 174.7 79.2 L 180.3 84.0 L 186.0 88.2 L 188.9 90.5 L 178.0 98.7 L 172.0 93.4 Z M 32.4 26.0 L 32.4 65.0 L 57.4 65.0 L 57.4 26.0 Z " />
</g>
</svg>
