<svg xmlns="http://www.w3.org/2000/svg" xmlns:xlink="http://www.w3.org/1999/xlink" version="1.1" baseProfile="full" viewBox="0 0 200 200" width="200" height="200">
<g fill="black">
<path d="M 161.5 176.2 L 154.4 168.8 L 148.4 160.9 L 143.4 152.4 L 139.5 143.4 L 136.6 133.9 L 134.9 123.9 L 134.69156980514526 120.28720932006836 L 134.6 120.8 L 130.5 133.6 L 124.8 145.3 L 117.6 155.7 L 108.8 164.8 L 98.5 172.6 L 86.8 179.0 L 73.7 184.1 L 59.2 187.8 L 58.7 186.0 L 72.3 180.6 L 84.3 174.3 L 94.7 167.2 L 103.5 159.3 L 110.8 150.5 L 116.7 140.8 L 121.1 130.2 L 124.1 118.5 L 125.7 105.8 L 125.9875 92.575 L 125.9 89.6 L 138.0 91.8 L 141.0 93.8 L 137.76348543167114 95.74190874099732 L 137.2165467262268 104.85755395889282 L 138.5 113.2 L 140.7 122.8 L 143.6 131.8 L 147.1 140.1 L 151.5 147.8 L 156.6 154.8 L 162.5 161.3 L 169.3 167.3 L 176.8 172.8 L 185.2 177.7 L 189.8 180.4 L 178.7 189.2 L 169.6 183.0 Z M 85.4 151.3 L 83.5 148.7 L 81.3 146.0 L 78.7 143.2 L 75.8 140.4 L 72.6 137.4 L 69.2 134.3 L 65.5 131.0 L 62.83295392990112 128.9184030532837 L 62.4 130.9 L 58.6 141.8 L 53.7 151.8 L 47.7 160.6 L 40.6 168.4 L 32.5 174.9 L 23.4 180.2 L 13.3 184.3 L 12.6 182.6 L 21.5 177.0 L 29.2 170.7 L 35.9 163.8 L 41.5 156.2 L 46.2 147.8 L 49.9 138.6 L 52.6 128.5 L 54.4 117.5 L 55.2 105.5 L 55.01547784805298 93.5983232498169 L 55.0 93.6 L 54.9 90.3 L 67.0 92.3 L 70.0 94.2 L 66.85916452407837 96.18705921173095 L 66.5 106.1 L 65.0 119.0 L 63.32857141494751 126.65 L 67.1 128.3 L 71.8 130.3 L 76.1 132.5 L 80.1 134.7 L 83.8 137.0 L 87.2 139.4 L 90.4 141.8 L 93.3 144.2 L 95.9 146.8 L 98.3 149.4 L 99.1 153.9 L 96.6 157.8 L 92.1 158.6 L 88.3 156.1 L 87.0 153.8 Z M 159.0 91.2 L 151.1 86.6 L 143.4 81.5 L 136.1 75.9 L 129.1 69.8 L 122.4 63.2 L 116.1 56.0 L 110.2 48.3 L 106.0 41.722641468048096 L 106.0 89.6 L 94.0 95.6 L 94.0 49.364705848693845 L 93.0 50.6 L 85.8 58.5 L 78.1 65.8 L 70.1 72.6 L 61.8 78.9 L 53.0 84.6 L 43.9 89.7 L 34.4 94.2 L 24.5 98.0 L 14.3 101.1 L 13.6 99.4 L 23.0 94.5 L 32.0 89.4 L 40.6 84.0 L 48.8 78.3 L 56.6 72.1 L 64.1 65.6 L 71.1 58.6 L 77.8 51.2 L 84.1 43.4 L 85.9957447052002 40.7 L 20.0 40.7 L 20.0 36.7 L 94.0 36.7 L 94.0 12.4 L 106.0 14.4 L 109.0 16.4 L 106.0 18.2 L 106.0 36.7 L 158.0 36.7 L 168.0 26.7 L 180.0 36.7 L 180.0 40.7 L 108.18059701919556 40.7 L 113.3 45.6 L 120.3 51.9 L 127.3 57.9 L 134.4 63.4 L 141.6 68.4 L 149.0 72.9 L 156.5 77.0 L 164.2 80.5 L 172.0 83.7 L 180.1 86.3 L 187.4 88.8 L 175.8 98.8 L 167.3 95.2 Z " />
</g>
</svg>
