<svg xmlns="http://www.w3.org/2000/svg" xmlns:xlink="http://www.w3.org/1999/xlink" version="1.1" baseProfile="full" viewBox="0 0 200 200" width="200" height="200">
<g fill="black">
<path d="M 101.5 176.0 L 121.5 176.0 L 122.7 175.9 L 123.6 175.7 L 124.5 175.4 L 124.9 175.0 L 125.2 174.1 L 125.4 173.2 L 125.5 172.0 L 125.5 129.0 L 89.7 129.0 L 89.7 125.0 L 151.3 125.0 L 161.3 115.0 L 173.3 125.0 L 173.3 129.0 L 137.5 129.0 L 137.5 172.0 L 137.3 174.5 L 136.9 177.0 L 136.1 179.4 L 134.8 181.7 L 133.2 183.7 L 131.2 185.3 L 128.9 186.6 L 126.5 187.4 L 124.0 187.8 L 121.5 188.0 L 121.5 182.0 L 101.5 179.0 Z M 28.7 36.0 L 53.5 36.0 L 59.5 31.0 L 70.5 40.0 L 65.5 44.0 L 65.5 158.0 L 53.5 164.0 L 53.5 152.0 L 28.7 152.0 L 28.7 164.0 L 16.7 170.0 L 16.7 30.0 Z M 28.7 96.0 L 28.7 148.0 L 53.5 148.0 L 53.5 96.0 Z M 72.0 126.9 L 70.6 122.5 L 72.7 118.4 L 74.7 117.0 L 76.6 115.4 L 78.4 113.6 L 79.9 111.5 L 81.4 109.0 L 82.6 106.3 L 83.7 103.2 L 84.6 99.8 L 85.4 96.1 L 85.6 92.0 L 87.3 91.9 L 88.1 96.0 L 88.9 100.0 L 88.97692308425903 101.0 L 171.7 101.0 L 172.66206893920898 100.19827585220337 L 173.0 99.1 L 173.49158573150635 99.50701189041138 L 177.7 96.0 L 188.7 105.0 L 183.7 108.0 L 175.0 111.625 L 174.5 112.0 L 172.8 113.4 L 171.0 114.9 L 169.0 116.4 L 167.4 118.5 L 165.9 117.4 L 167.3 115.2 L 168.1 112.8 L 168.9 110.6 L 169.7 108.5 L 170.4 106.6 L 170.9333333015442 105.0 L 89.17105264663697 105.0 L 89.1 107.7 L 88.7 111.4 L 87.9 115.0 L 86.6 118.4 L 84.9 121.7 L 82.9 124.8 L 80.4 127.6 L 76.0 128.9 Z M 28.7 40.0 L 28.7 92.0 L 53.5 92.0 L 53.5 40.0 Z M 106.7 54.0 L 156.3 54.0 L 162.3 49.0 L 173.3 58.0 L 168.3 62.0 L 168.3 86.0 L 156.3 92.0 L 156.3 86.0 L 106.7 86.0 L 94.7 92.0 L 94.7 48.0 Z M 106.7 58.0 L 106.7 82.0 L 156.3 82.0 L 156.3 58.0 Z M 77.6 36.0 L 125.5 36.0 L 125.5 13.0 L 137.5 15.0 L 140.5 17.0 L 137.5 18.8 L 137.5 36.0 L 164.5 36.0 L 174.5 26.0 L 186.5 36.0 L 186.5 40.0 L 77.6 40.0 Z " />
</g>
</svg>
