<svg xmlns="http://www.w3.org/2000/svg" xmlns:xlink="http://www.w3.org/1999/xlink" version="1.1" baseProfile="full" viewBox="0 0 200 200" width="200" height="200">
<g fill="black">
<path d="M 163.2 165.4 L 157.2 155.3 L 151.6 144.7 L 146.7 133.3 L 142.3 121.4 L 138.6 108.8 L 135.4 95.5 L 133.0 81.6 L 131.4993103027344 68.0 L 131.4078125 68.0 L 129.8 82.7 L 126.4 100.7 L 121.8 117.4 L 115.9 132.8 L 113.63801679611205 137.29210758209229 L 114.1 137.5 L 118.1 139.5 L 121.8 141.8 L 125.3 144.4 L 128.6 147.2 L 131.8 150.3 L 134.8 153.5 L 137.6 157.0 L 140.2 160.7 L 142.6 164.6 L 142.8 169.2 L 139.8 172.7 L 135.2 172.9 L 131.8 169.9 L 130.3 166.2 L 128.6 162.6 L 126.8 159.2 L 124.8 155.9 L 122.6 152.6 L 120.3 149.4 L 117.8 146.3 L 115.1 143.3 L 112.3 140.2 L 112.21512079238892 140.11785879135132 L 108.8 146.9 L 100.4 159.6 L 90.8 170.8 L 80.0 180.5 L 68.0 188.7 L 66.9 187.2 L 77.5 177.7 L 86.8 167.3 L 95.0 155.8 L 102.1 143.3 L 108.0 129.6 L 112.9 114.7 L 116.6 98.7 L 119.1 81.3 L 120.10648651123047 68.0 L 81.2 68.0 L 81.2 64.0 L 120.40918922424316 64.0 L 120.5 62.8 L 120.8 43.0 L 120.8 17.0 L 132.8 19.0 L 135.8 21.0 L 132.8 22.8 L 132.8 43.0 L 131.9 63.5 L 131.8453125 64.0 L 165.9181818008423 64.0 L 174.1 55.0 L 184.1 64.0 L 184.1 68.0 L 133.53428573608397 68.0 L 137.1 80.8 L 141.1 94.0 L 145.5 106.6 L 150.2 118.4 L 155.2 129.6 L 160.7 140.0 L 166.6 149.6 L 172.9 158.6 L 179.6 166.8 L 186.7 174.4 L 187.9 175.6 L 177.1 183.5 L 169.9 174.8 Z M 73.3 105.2 L 71.6 102.9 L 69.7 100.6 L 67.6 98.3 L 65.3 96.0 L 62.8 93.7 L 60.2 91.5 L 57.6 89.43793106079102 L 57.6 182.0 L 45.6 188.0 L 45.6 92.2 L 42.6 100.0 L 38.7 108.8 L 34.5 117.4 L 29.8 125.7 L 24.8 133.6 L 19.3 141.3 L 13.4 148.5 L 11.9 147.4 L 16.1 139.2 L 20.2 131.0 L 24.0 122.7 L 27.6 114.2 L 30.9 105.6 L 33.9 96.8 L 36.6 87.8 L 39.0 78.7 L 41.0 69.3 L 42.13855419158936 63.0 L 12.6 63.0 L 12.6 59.0 L 45.6 59.0 L 45.6 14.0 L 57.6 16.0 L 60.6 18.0 L 57.6 19.8 L 57.6 59.0 L 69.51818180084229 59.0 L 77.7 50.0 L 87.7 59.0 L 87.7 63.0 L 57.6 63.0 L 57.6 86.40810813903809 L 58.5 86.7 L 62.2 87.7 L 65.7 89.0 L 69.1 90.4 L 72.3 92.1 L 75.3 93.9 L 78.2 96.0 L 81.0 98.1 L 83.5 100.5 L 86.0 103.0 L 86.9 107.5 L 84.6 111.4 L 80.1 112.4 L 76.2 110.0 L 74.8 107.6 Z " />
</g>
</svg>
