<svg xmlns="http://www.w3.org/2000/svg" xmlns:xlink="http://www.w3.org/1999/xlink" version="1.1" baseProfile="full" viewBox="0 0 200 200" width="200" height="200">
<g fill="black">
<path d="M 119.0 151.2 L 120.3 154.6 L 116.46490621566772 154.3355107307434 L 115.2 155.9 L 111.3 160.5 L 107.1 165.0 L 102.9 169.2 L 98.5 173.4 L 93.9 177.3 L 89.2 181.0 L 84.3 184.5 L 79.2 187.8 L 73.8 190.7 L 72.7 189.2 L 76.8 184.8 L 84.8 176.2 L 88.6 171.8 L 92.4 167.5 L 96.0 163.0 L 99.5 158.5 L 102.9 153.8 L 106.1 149.1 L 108.61366024017335 145.2078808784485 L 108.6 145.2 L 108.909375 144.75 L 109.2 144.3 L 109.21263427734375 144.30889558792114 L 109.7 143.6 Z M 165.5 176.8 L 162.3 172.9 L 159.0 169.1 L 155.6 165.4 L 151.9 161.9 L 148.1 158.4 L 144.1 155.0 L 140.1 151.7 L 135.8 148.2 L 136.7 146.6 L 142.0 148.4 L 147.0 150.5 L 151.9 153.1 L 156.6 155.9 L 161.1 159.0 L 165.4 162.3 L 169.6 165.9 L 173.5 169.7 L 177.3 173.7 L 181.0 178.0 L 182.0 182.5 L 179.6 186.4 L 175.2 187.4 L 171.3 185.1 L 168.5 180.9 Z M 29.4 36.0 L 55.2 36.0 L 61.2 31.0 L 72.2 40.0 L 67.2 44.0 L 67.2 158.0 L 55.2 164.0 L 55.2 152.0 L 29.4 152.0 L 29.4 164.0 L 17.4 170.0 L 17.4 30.0 Z M 29.4 96.0 L 29.4 148.0 L 55.2 148.0 L 55.2 96.0 Z M 74.3 136.0 L 93.4 136.0 L 93.4 63.0 L 104.3766990661621 68.48834953308105 L 105.6 68.1 L 111.7 66.2 L 117.7 64.5 L 123.6 62.8 L 129.3 61.1 L 134.9 59.5 L 140.3 57.8 L 145.5 56.0 L 150.6 54.3 L 154.61071767807007 52.82667512893677 L 154.6 52.8 L 154.62527046203613 52.82132921218872 L 155.5 52.5 L 155.95082941055298 53.94014959335327 L 165.5 62.0 L 165.8 65.1 L 161.68576431274414 63.19194869995117 L 159.1 64.0 L 153.8 65.2 L 148.3 66.4 L 142.7 67.5 L 137.0 68.5 L 131.1 69.4 L 125.1 70.2 L 119.0 70.9 L 112.6 71.5 L 106.2 71.8 L 105.4 71.8 L 105.4 93.0 L 157.0 93.0 L 167.0 83.0 L 179.0 93.0 L 179.0 97.0 L 153.4 97.0 L 153.4 136.0 L 165.7 136.0 L 175.7 126.0 L 187.7 136.0 L 187.7 140.0 L 74.3 140.0 Z M 105.4 97.0 L 105.4 136.0 L 141.4 136.0 L 141.4 97.0 Z M 29.4 40.0 L 29.4 92.0 L 55.2 92.0 L 55.2 40.0 Z M 74.2 62.6 L 73.0 58.2 L 75.0 54.2 L 76.0 53.8 L 77.1 52.9 L 78.3 51.5 L 79.5 49.6 L 80.6 47.2 L 81.7 44.3 L 82.7 41.0 L 83.6 37.2 L 84.5 33.0 L 84.9 28.4 L 86.7 28.4 L 87.2 33.1 L 87.54090909957885 35.6 L 169.1 35.6 L 169.58387098312377 35.19677419662476 L 169.6 35.1 L 169.66470584869384 35.12941179275513 L 175.1 30.6 L 186.1 39.6 L 181.1 42.6 L 177.43424654006958 44.12739725112915 L 176.6 45.2 L 175.0 47.0 L 173.4 48.9 L 171.6 50.9 L 169.7 53.0 L 167.7 55.1 L 165.5 57.3 L 163.5 59.8 L 162.0 58.9 L 163.4 56.1 L 165.3 50.4 L 166.2 47.8 L 166.9 45.3 L 167.7 43.0 L 168.3 40.8 L 168.6 39.6 L 88.00487804412842 39.6 L 88.2 41.6 L 88.3 45.4 L 88.1 48.9 L 87.7 52.2 L 87.0 55.4 L 86.0 58.3 L 84.6 61.0 L 82.7 63.4 L 78.3 64.7 Z M 125.9 27.1 L 125.4 25.4 L 124.8 23.7 L 124.0 22.0 L 123.1 20.2 L 122.0 18.4 L 120.8 16.6 L 119.4 14.7 L 117.6 13.3 L 118.5 11.8 L 120.7 12.9 L 123.0 13.7 L 125.2 14.7 L 127.4 15.8 L 129.4 17.1 L 131.3 18.6 L 133.0 20.2 L 134.7 21.9 L 136.2 23.8 L 137.6 25.8 L 137.6 30.4 L 134.3 33.7 L 129.8 33.6 L 126.5 30.4 L 126.3 28.7 Z " />
</g>
</svg>
