<svg xmlns="http://www.w3.org/2000/svg" xmlns:xlink="http://www.w3.org/1999/xlink" version="1.1" baseProfile="full" viewBox="0 0 200 200" width="200" height="200">
<g fill="black">
<path d="M 153.1 176.0 L 142.3 168.6 L 132.6 160.4 L 127.86696977615357 155.39495658874512 L 120.0 162.7 L 109.0 170.9 L 97.1 177.9 L 84.0 183.8 L 69.9 188.5 L 69.3 186.8 L 82.4 180.3 L 94.4 173.3 L 105.2 165.5 L 114.9 157.1 L 122.3572693824768 149.122456073761 L 116.4 141.1 L 110.0 130.2 L 104.8 118.5 L 100.8 105.9 L 98.35639095306396 93.4 L 71.6 93.4 L 71.6 89.4 L 122.2 89.4 L 122.2 61.0 L 134.2 63.0 L 137.2 65.0 L 134.2 66.8 L 134.2 89.4 L 162.7 89.4 L 172.7 79.4 L 184.7 89.4 L 184.7 93.4 L 161.79148931503295 93.4 L 157.8 106.8 L 152.6 119.9 L 146.1 132.1 L 138.5 143.4 L 134.42009258270264 148.18333978652953 L 139.4 152.7 L 148.7 159.7 L 159.0 165.8 L 170.1 171.1 L 182.2 175.6 L 189.3 178.1 L 177.8 188.0 L 164.9 182.5 Z M 28.3 36.0 L 52.4 36.0 L 58.4 31.0 L 69.4 40.0 L 64.4 44.0 L 64.4 158.0 L 52.4 164.0 L 52.4 152.0 L 28.3 152.0 L 28.3 164.0 L 16.3 170.0 L 16.3 30.0 Z M 28.3 96.0 L 28.3 148.0 L 52.4 148.0 L 52.4 96.0 Z M 104.8 104.6 L 110.2 116.0 L 116.3 126.6 L 123.2 136.2 L 128.08283185958862 141.78955755233764 L 131.0 137.9 L 137.4 127.2 L 142.7 115.7 L 147.0 103.3 L 149.41260499954222 93.4 L 100.49919996261596 93.4 Z M 28.3 40.0 L 28.3 92.0 L 52.4 92.0 L 52.4 40.0 Z M 88.5 61.8 L 76.5 67.8 L 76.5 22.6 L 88.5 24.6 L 91.5 26.6 L 88.5 28.4 L 88.5 50.8 L 121.5 50.8 L 121.5 12.1 L 133.5 14.1 L 136.5 16.1 L 133.5 17.9 L 133.5 50.8 L 165.7 50.8 L 165.7 22.6 L 177.7 24.6 L 180.7 26.6 L 177.7 28.4 L 177.7 58.8 L 165.7 64.8 L 165.7 54.8 L 88.5 54.8 Z " />
</g>
</svg>
