<svg xmlns="http://www.w3.org/2000/svg" xmlns:xlink="http://www.w3.org/1999/xlink" version="1.1" baseProfile="full" viewBox="0 0 200 200" width="200" height="200">
<g fill="black">
<path d="M 65.8 104.9 L 64.3 102.6 L 62.7 100.3 L 60.9 98.1 L 59.0 95.9 L 56.9 93.6 L 54.6 91.4 L 53.1 90.01999998092651 L 53.1 182.0 L 41.1 188.0 L 41.1 95.25 L 39.5 99.8 L 36.0 108.7 L 32.2 117.2 L 28.0 125.5 L 23.5 133.5 L 18.5 141.2 L 13.0 148.4 L 11.5 147.5 L 15.2 139.3 L 18.7 131.1 L 22.0 122.8 L 25.2 114.3 L 28.1 105.7 L 30.7 96.9 L 33.1 88.0 L 35.2 78.8 L 37.0 69.5 L 37.99411764144897 63.0 L 12.3 63.0 L 12.3 59.0 L 41.1 59.0 L 41.1 14.0 L 53.1 16.0 L 56.1 18.0 L 53.1 19.8 L 53.1 59.0 L 57.3 59.0 L 67.3 49.0 L 79.3 59.0 L 79.3 63.0 L 53.1 63.0 L 53.1 86.69090909957886 L 53.4 86.8 L 56.7 87.8 L 59.9 89.1 L 63.0 90.6 L 65.9 92.3 L 68.7 94.1 L 71.3 96.1 L 73.8 98.3 L 76.1 100.7 L 78.3 103.2 L 79.1 107.7 L 76.5 111.5 L 72.0 112.2 L 68.2 109.6 L 67.1 107.3 Z M 177.9 103.5 L 179.7 106.6 L 175.92372646331788 106.92554082870484 L 170.4 116.5 L 162.0 128.6 L 152.7 139.7 L 142.6 149.7 L 131.6 158.7 L 119.8 166.7 L 107.1 173.7 L 93.7 179.6 L 79.4 184.3 L 64.3 187.8 L 63.8 186.1 L 78.1 180.7 L 91.5 174.6 L 104.0 167.9 L 115.6 160.4 L 126.3 152.1 L 136.2 143.0 L 145.2 133.1 L 153.3 122.3 L 160.6 110.7 L 167.1 98.2 L 167.14014873504638 98.21970262527466 L 167.7 97.1 Z M 117.6 94.4 L 119.5 97.5 L 115.6429280281067 97.89900741577148 L 114.3 100.3 L 110.7 106.0 L 106.9 111.7 L 102.8 117.1 L 98.4 122.5 L 93.7 127.7 L 88.7 132.8 L 83.5 137.6 L 77.9 142.3 L 71.9 146.6 L 70.6 145.3 L 75.2 139.6 L 79.6 133.9 L 83.8 128.4 L 87.8 122.9 L 91.6 117.4 L 95.1 111.8 L 98.4 106.2 L 101.5 100.6 L 104.3 95.0 L 106.40451974868775 90.20169486999512 L 106.4 90.2 L 106.46666669845581 90.06000003814697 L 106.8 89.3 L 106.82332611083984 89.31101512908936 L 107.4 88.1 Z M 107.4 126.0 L 123.4 126.0 L 124.6 125.9 L 125.5 125.7 L 126.4 125.4 L 126.8 125.0 L 127.1 124.1 L 127.3 123.2 L 127.4 122.0 L 127.4 83.0 L 139.4 85.0 L 142.4 87.0 L 139.4 88.8 L 139.4 122.0 L 139.2 124.5 L 138.8 127.0 L 138.0 129.4 L 136.7 131.7 L 135.1 133.7 L 133.1 135.3 L 130.8 136.6 L 128.4 137.4 L 125.9 137.8 L 123.4 138.0 L 123.4 132.0 L 107.4 129.0 Z M 75.8 76.0 L 95.0 76.0 L 95.0 29.0 L 107.0 31.0 L 110.0 33.0 L 107.0 34.8 L 107.0 76.0 L 127.4 76.0 L 127.4 13.0 L 139.4 15.0 L 142.4 17.0 L 139.4 18.8 L 139.4 42.0 L 158.4181818008423 42.0 L 166.6 33.0 L 176.6 42.0 L 176.6 46.0 L 139.4 46.0 L 139.4 76.0 L 165.4 76.0 L 175.4 66.0 L 187.4 76.0 L 187.4 80.0 L 75.8 80.0 Z " />
</g>
</svg>
