<svg xmlns="http://www.w3.org/2000/svg" xmlns:xlink="http://www.w3.org/1999/xlink" version="1.1" baseProfile="full" viewBox="0 0 200 200" width="200" height="200">
<g fill="black">
<path d="M 151.4 182.0 L 140.3 178.2 L 130.2 173.8 L 126.16680564880372 171.6518856048584 L 124.6 172.4 L 112.4 176.9 L 99.2 180.7 L 85.0 183.8 L 69.8 186.0 L 53.5 187.4 L 53.3 185.6 L 69.1 182.2 L 83.8 178.5 L 97.4 174.4 L 109.8 169.8 L 117.22944278717041 166.41695013046265 L 112.8 163.5 L 105.6 157.5 L 99.5 151.0 L 94.6 144.0 L 91.33599996566772 137.2 L 79.0 137.2 L 79.0 133.2 L 120.2 133.2 L 120.2 115.0 L 77.0 115.0 L 77.0 111.0 L 120.2 111.0 L 120.2 92.1 L 132.2 94.1 L 135.2 96.1 L 132.2 97.9 L 132.2 111.0 L 164.6 111.0 L 174.6 101.0 L 186.6 111.0 L 186.6 115.0 L 132.2 115.0 L 132.2 133.2 L 159.09473686218263 133.2 L 160.2 131.7 L 160.57942476272584 131.96714601516723 L 165.1 128.2 L 176.1 137.2 L 171.1 140.2 L 167.3235294342041 141.7735294342041 L 163.0 146.9 L 155.0 154.4 L 145.9 161.1 L 138.0306803703308 165.72901153564453 L 144.0 167.8 L 154.6 170.6 L 166.1 173.1 L 178.5 175.1 L 188.2 176.7 L 176.3 188.1 L 163.4 185.3 Z M 63.8 104.9 L 62.4 102.6 L 60.8 100.3 L 59.1 98.0 L 57.2 95.8 L 55.2 93.6 L 53.0 91.4 L 51.7 90.15416669845581 L 51.7 182.0 L 39.7 188.0 L 39.7 96.5709677696228 L 38.6 99.8 L 35.2 108.6 L 31.4 117.2 L 27.3 125.5 L 22.9 133.5 L 18.0 141.2 L 12.7 148.4 L 11.2 147.5 L 14.7 139.3 L 18.1 131.1 L 21.3 122.8 L 24.4 114.4 L 27.2 105.8 L 29.7 97.0 L 32.0 88.0 L 34.0 78.8 L 35.8 69.5 L 36.79411764144898 63.0 L 11.9 63.0 L 11.9 59.0 L 39.7 59.0 L 39.7 14.0 L 51.7 16.0 L 54.7 18.0 L 51.7 19.8 L 51.7 59.0 L 55.0 59.0 L 65.0 49.0 L 77.0 59.0 L 77.0 63.0 L 51.7 63.0 L 51.7 86.725 L 51.9 86.8 L 55.2 87.8 L 58.3 89.1 L 61.3 90.6 L 64.1 92.3 L 66.8 94.2 L 69.4 96.2 L 71.9 98.4 L 74.1 100.7 L 76.3 103.2 L 77.0 107.8 L 74.4 111.5 L 69.8 112.2 L 66.1 109.6 L 65.0 107.2 Z M 97.9 141.5 L 103.7 146.9 L 110.2 151.9 L 117.4 156.5 L 125.4 160.7 L 126.94022617340087 161.34759511947632 L 131.1 159.0 L 140.1 152.9 L 147.9 146.3 L 154.6 139.3 L 156.1473684310913 137.2 L 94.0372880935669 137.2 Z M 168.2 64.7 L 163.4 60.2 L 159.1 55.4 L 158.3 54.27567567825317 L 158.3 57.5 L 158.2 61.8 L 158.1 65.6 L 157.9 69.1 L 157.6 72.3 L 157.2 75.2 L 156.8 77.7 L 156.2 80.0 L 155.4 82.2 L 154.3 84.4 L 152.9 86.5 L 151.4 88.5 L 149.6 90.2 L 147.6 91.6 L 145.5 92.8 L 143.2 93.8 L 140.8 94.4 L 138.4 94.8 L 135.8 94.9 L 135.8 88.9 L 115.8 85.9 L 115.8 82.9 L 135.8 82.9 L 137.2 82.8 L 138.4 82.6 L 139.4 82.4 L 140.3 82.0 L 141.1 81.6 L 142.5 80.4 L 143.2 79.5 L 143.8 78.5 L 144.4 77.3 L 144.7 76.6 L 145.0 75.2 L 145.4 73.4 L 145.7 71.0 L 145.9 68.3 L 146.1 65.1 L 146.2 61.5 L 146.28589477539063 58.06421051025391 L 146.2 58.1 L 146.2 50.1 L 127.37200002670288 50.1 L 126.7 55.7 L 124.9 62.5 L 122.3 68.9 L 118.9 74.5 L 114.7 79.5 L 109.7 83.8 L 104.1 87.4 L 97.9 90.1 L 91.1 92.1 L 83.8 93.2 L 83.3 91.5 L 89.9 88.5 L 95.6 85.3 L 100.6 81.8 L 104.8 78.1 L 108.3 74.0 L 111.0 69.6 L 113.1 64.8 L 114.6 59.7 L 115.4 54.1 L 115.53114757537841 50.1 L 100.48367347717286 50.1 L 97.3 54.1 L 92.9 58.8 L 88.2 63.2 L 83.0 67.3 L 77.4 71.0 L 71.4 74.4 L 70.3 73.0 L 75.0 68.1 L 79.4 63.3 L 83.5 58.6 L 87.2 53.8 L 90.5 49.0 L 93.5 44.1 L 96.1 39.1 L 98.4 34.1 L 100.3 29.0 L 101.51594009399415 24.70367851257324 L 101.5 24.7 L 101.64693880081177 24.24081630706787 L 101.8 23.7 L 101.81811828613282 23.705880451202393 L 102.3 22.2 L 113.2 27.4 L 115.5 30.2 L 111.6501009941101 31.14558925628662 L 110.8 33.2 L 108.0 38.8 L 104.8 44.1 L 103.38823528289795 46.1 L 146.2 46.1 L 151.21139240264893 41.92383966445923 L 149.9 38.7 L 148.1 32.5 L 147.0 26.0 L 146.7358208656311 20.1 L 111.8 20.1 L 111.8 16.1 L 142.8 16.1 L 147.6 12.1 L 158.6 21.1 L 153.6 24.1 L 151.1507246017456 25.324637699127198 L 153.6 30.6 L 156.4 35.7 L 159.5 40.4 L 162.9 44.6 L 166.7 48.5 L 170.8 52.1 L 175.2 55.2 L 180.1 58.0 L 185.3 60.6 L 190.8 63.3 L 179.5 72.4 L 173.6 68.7 Z M 147.4 19.183333301544188 L 147.6 19.15 L 147.6 19.1 L 147.4 19.03333330154419 Z " />
</g>
</svg>
