<svg xmlns="http://www.w3.org/2000/svg" xmlns:xlink="http://www.w3.org/1999/xlink" version="1.1" baseProfile="full" viewBox="0 0 200 200" width="200" height="200">
<g fill="black">
<path d="M 168.7 177.8 L 163.2 174.5 L 158.0 171.1 L 153.1 167.4 L 148.4 163.4 L 144.0 159.3 L 140.0 154.9 L 136.4 150.2 L 136.0 149.575 L 136.0 182.6 L 124.0 188.6 L 124.0 155.21739130020143 L 122.1 157.2 L 117.1 161.7 L 111.8 165.8 L 106.2 169.7 L 100.2 173.1 L 93.9 176.2 L 87.2 179.0 L 80.2 181.2 L 72.8 183.0 L 72.2 181.3 L 78.8 177.7 L 84.9 174.1 L 90.7 170.5 L 96.2 166.7 L 101.2 162.8 L 105.9 158.6 L 110.3 154.4 L 114.2 149.9 L 117.33043479919434 145.9 L 75.8 145.9 L 75.8 141.9 L 124.0 141.9 L 124.0 126.0 L 134.6 127.76666669845581 L 134.6 89.2 L 145.6 94.7 L 167.0 94.7 L 173.0 89.7 L 184.0 98.7 L 179.0 102.7 L 179.0 123.6 L 167.0 129.6 L 167.0 121.6 L 145.6 121.6 L 145.6 124.6 L 137.2 128.8 L 139.0 130.0 L 136.0 131.8 L 136.0 141.9 L 165.9181818008423 141.9 L 174.1 132.9 L 184.1 141.9 L 184.1 145.9 L 137.30606060028077 145.9 L 144.0 150.6 L 148.6 153.7 L 153.4 156.8 L 158.3 159.6 L 163.3 162.3 L 168.5 164.8 L 173.9 167.2 L 179.4 169.4 L 185.2 171.4 L 191.8 174.0 L 180.3 183.7 L 174.4 180.8 Z M 63.8 104.9 L 62.4 102.6 L 60.8 100.3 L 59.1 98.0 L 57.2 95.8 L 55.2 93.6 L 53.0 91.4 L 51.7 90.15416669845581 L 51.7 182.0 L 39.7 188.0 L 39.7 96.5709677696228 L 38.6 99.8 L 35.2 108.6 L 31.4 117.2 L 27.3 125.5 L 22.9 133.5 L 18.0 141.2 L 12.7 148.4 L 11.2 147.5 L 14.7 139.3 L 18.1 131.1 L 21.3 122.8 L 24.4 114.4 L 27.2 105.8 L 29.7 97.0 L 32.0 88.0 L 34.0 78.8 L 35.8 69.5 L 36.79411764144898 63.0 L 11.9 63.0 L 11.9 59.0 L 39.7 59.0 L 39.7 14.0 L 51.7 16.0 L 54.7 18.0 L 51.7 19.8 L 51.7 59.0 L 55.0 59.0 L 65.0 49.0 L 77.0 59.0 L 77.0 63.0 L 51.7 63.0 L 51.7 86.725 L 51.9 86.8 L 55.2 87.8 L 58.3 89.1 L 61.3 90.6 L 64.1 92.3 L 66.8 94.2 L 69.4 96.2 L 71.9 98.4 L 74.1 100.7 L 76.3 103.2 L 77.0 107.8 L 74.4 111.5 L 69.8 112.2 L 66.1 109.6 L 65.0 107.2 Z M 92.9 94.7 L 114.3 94.7 L 119.8 89.7 L 130.3 98.7 L 125.3 102.2 L 125.3 123.6 L 114.3 129.1 L 114.3 121.6 L 92.9 121.6 L 92.9 124.6 L 80.9 130.6 L 80.9 88.7 Z M 145.6 98.7 L 145.6 117.6 L 167.0 117.6 L 167.0 98.7 Z M 92.9 98.7 L 92.9 117.6 L 114.3 117.6 L 114.3 98.7 Z M 111.7 55.7 L 147.5 55.7 L 153.5 50.7 L 164.5 59.7 L 159.5 63.7 L 159.5 83.8 L 147.5 89.8 L 147.5 83.8 L 111.7 83.8 L 99.7 89.8 L 99.7 49.7 Z M 111.7 59.7 L 111.7 79.8 L 147.5 79.8 L 147.5 59.7 Z M 154.4 14.7 L 157.4 16.7 L 154.4 18.5 L 154.4 29.3 L 165.4 29.3 L 175.4 19.3 L 187.4 29.3 L 187.4 33.3 L 154.4 33.3 L 154.4 45.2 L 142.4 51.2 L 142.4 33.3 L 117.5 33.3 L 117.5 45.2 L 105.5 51.2 L 105.5 33.3 L 72.5 33.3 L 72.5 29.3 L 105.5 29.3 L 105.5 12.7 L 117.5 14.7 L 120.5 16.7 L 117.5 18.5 L 117.5 29.3 L 142.4 29.3 L 142.4 12.7 Z " />
</g>
</svg>
