<svg xmlns="http://www.w3.org/2000/svg" xmlns:xlink="http://www.w3.org/1999/xlink" version="1.1" baseProfile="full" viewBox="0 0 200 200" width="200" height="200">
<g fill="black">
<path d="M 165.5 178.3 L 159.4 168.3 L 154.86424160003662 157.04783010482788 L 154.1 158.0 L 147.6 165.1 L 140.6 171.7 L 133.2 177.7 L 125.2 183.1 L 116.7 187.7 L 115.8 186.2 L 122.9 180.0 L 129.7 173.6 L 136.0 167.0 L 141.9 160.1 L 147.4 152.8 L 151.65399894714355 146.4607074737549 L 149.7 139.6 L 145.8 120.7 L 143.08483066558838 102.6811487197876 L 124.1 106.9 L 123.2 103.0 L 142.4909996032715 98.71311120986938 L 139.9 73.7 L 139.30823698043824 65.75346822738648 L 124.1 68.9 L 123.3 65.0 L 139.01007947921752 61.74963874816895 L 137.8 45.5 L 136.2 14.2 L 136.2696090698242 14.197099590301514 L 136.2 11.9 L 148.2 13.7 L 151.3 15.6 L 148.38350400924682 17.504650402069093 L 149.7 44.8 L 150.79229650497436 59.31193866729736 L 159.73084268569946 57.46258430480957 L 167.5 45.6 L 181.3 53.0 L 182.1 56.9 L 151.0936107635498 63.315114974975586 L 151.8 72.7 L 154.27263898849486 96.09496908187866 L 164.7357271194458 93.76983842849731 L 172.3 81.8 L 186.2 89.0 L 187.1 92.9 L 154.81487436294555 100.07447233200074 L 157.6 118.7 L 160.1392156600952 131.12156858444214 L 161.3 128.8 L 165.0 120.0 L 168.3 110.8 L 168.36601753234862 110.8239532470703 L 168.9 109.4 L 179.6 114.9 L 181.7 117.9 L 178.01503686904908 118.61113319396972 L 175.5 124.5 L 170.8 133.7 L 165.7 142.3 L 163.6976607322693 145.24889965057372 L 165.5 151.6 L 170.1 163.0 L 175.0 170.9 L 177.98054790496826 173.75095891952515 L 183.0 152.0 L 185.0 152.0 L 183.0987566947937 176.71616344451905 L 183.8 177.0 L 187.7 179.4 L 188.9 183.8 L 186.5 187.7 L 182.1 188.9 L 173.0 185.4 Z M 54.0 104.4 L 53.0 102.1 L 51.8 99.9 L 50.5 97.7 L 49.1 95.6 L 47.5 93.4 L 46.1 91.67058820724488 L 46.1 182.0 L 34.1 188.0 L 34.1 102.02758617401123 L 32.0 108.4 L 28.9 117.0 L 25.4 125.3 L 21.6 133.3 L 17.4 141.0 L 12.9 148.4 L 11.2 147.5 L 14.0 139.5 L 16.7 131.3 L 19.2 123.0 L 21.7 114.6 L 23.9 106.0 L 26.0 97.2 L 27.8 88.2 L 29.4 79.1 L 30.8 69.7 L 31.57011489868164 63.0 L 12.1 63.0 L 12.1 59.0 L 34.1 59.0 L 34.1 14.0 L 46.1 16.0 L 49.1 18.0 L 46.1 19.8 L 46.1 59.0 L 51.7777777671814 59.0 L 58.0 52.0 L 66.0 59.0 L 66.0 63.0 L 46.1 63.0 L 46.1 87.275 L 48.2 88.1 L 50.9 89.4 L 53.5 90.9 L 55.9 92.6 L 58.3 94.5 L 60.5 96.5 L 62.6 98.7 L 64.6 101.0 L 66.4 103.5 L 66.7 108.1 L 63.8 111.6 L 59.3 111.9 L 55.7 109.0 L 54.9 106.7 Z M 109.7 166.1 L 108.8 163.3 L 107.6 160.5 L 106.0 157.5 L 104.1 154.5 L 101.8 151.3 L 99.2 148.0 L 96.3 144.6 L 95.37550373077393 143.70269479751587 L 93.1 151.0 L 89.5 159.4 L 85.1 167.0 L 79.9 173.7 L 74.1 179.4 L 67.4 184.0 L 60.2 187.6 L 59.5 186.3 L 65.6 181.5 L 71.0 176.1 L 75.7 170.2 L 79.7 163.7 L 83.1 156.5 L 85.8 148.5 L 87.8 139.8 L 89.3 130.3 L 90.0 120.0 L 90.1 109.0 L 90.1 54.0 L 100.1 56.0 L 102.6 58.0 L 100.1 59.66666669845581 L 100.1 109.0 L 99.5 120.7 L 98.1 131.6 L 96.13127756118774 141.06861753463744 L 98.2 142.3 L 102.3 144.6 L 105.9 147.2 L 109.3 149.9 L 112.3 152.7 L 115.0 155.6 L 117.3 158.7 L 119.3 161.9 L 121.0 165.3 L 122.3 168.8 L 121.4 173.3 L 117.6 175.9 L 113.1 175.0 L 110.5 171.2 L 110.3 168.7 Z M 81.1 30.0 L 109.1 30.0 L 114.6 25.0 L 125.1 34.0 L 120.1 37.5 L 120.1 139.2 L 109.1 144.7 L 109.1 34.0 L 81.1 34.0 L 81.1 142.2 L 70.1 147.7 L 70.1 24.5 Z M 161.7 32.2 L 161.1 30.2 L 160.4 28.1 L 159.6 26.1 L 158.7 24.1 L 156.5 20.1 L 155.2 18.0 L 153.6 16.3 L 154.7 14.8 L 156.7 16.2 L 159.1 17.3 L 161.3 18.6 L 163.4 20.1 L 165.4 21.7 L 167.3 23.5 L 169.1 25.4 L 170.8 27.4 L 172.4 29.6 L 173.8 31.9 L 173.7 36.5 L 170.5 39.7 L 165.9 39.6 L 162.7 36.4 L 162.3 34.3 Z " />
</g>
</svg>
