<svg xmlns="http://www.w3.org/2000/svg" xmlns:xlink="http://www.w3.org/1999/xlink" version="1.1" baseProfile="full" viewBox="0 0 200 200" width="200" height="200">
<g fill="black">
<path d="M 37.2 89.0 L 79.8 89.0 L 85.8 84.0 L 96.8 93.0 L 91.8 97.0 L 91.8 136.0 L 79.8 142.0 L 79.8 132.0 L 65.4 132.0 L 65.4 154.0 L 85.2 154.0 L 95.2 144.0 L 107.2 154.0 L 107.2 158.0 L 65.4 158.0 L 65.4 183.0 L 53.4 189.0 L 53.4 158.0 L 11.7 158.0 L 11.7 154.0 L 53.4 154.0 L 53.4 132.0 L 37.2 132.0 L 37.2 139.0 L 25.2 145.0 L 25.2 83.0 Z M 164.2 170.4 L 159.0 162.8 L 154.3 154.4 L 150.2 145.2 L 146.8 135.2 L 144.1 124.3 L 142.2 112.7 L 141.95973300933838 109.36295881271363 L 139.4 120.3 L 134.9 133.4 L 129.3 145.4 L 122.4 156.3 L 114.4 166.0 L 105.2 174.5 L 94.8 181.8 L 83.4 187.7 L 82.5 186.2 L 92.6 178.7 L 101.6 170.6 L 109.4 161.7 L 116.1 152.0 L 121.7 141.5 L 126.2 130.1 L 129.7 117.8 L 132.1 104.5 L 133.4 90.2 L 133.7 75.0 L 133.7 62.0 L 122.94430379867553 62.0 L 121.9 64.5 L 118.3 72.4 L 114.4 80.4 L 110.1 88.4 L 105.4 96.3 L 103.7 95.6 L 106.6 86.8 L 109.5 78.3 L 112.2 70.0 L 114.8 61.8 L 117.1 53.8 L 119.3 46.0 L 121.2 38.2 L 122.8 30.6 L 124.3 23.2 L 125.33723402023315 16.803723430633546 L 125.3 16.8 L 125.8 13.9 L 137.3 18.0 L 139.8 20.6 L 136.3285714149475 21.88571424484253 L 135.4 25.6 L 133.3 33.2 L 130.8 41.0 L 128.1 48.7 L 125.2 56.6 L 124.61518983840942 58.0 L 170.6 58.0 L 176.6 53.0 L 187.6 62.0 L 182.6 65.0 L 179.9808695793152 66.09130430221558 L 178.8 68.2 L 177.1 71.0 L 175.2 74.2 L 173.0 77.6 L 170.4 81.3 L 167.6 85.3 L 164.4 89.7 L 161.1 94.4 L 159.6 93.5 L 161.8 88.2 L 163.6 83.2 L 165.3 78.6 L 166.8 74.5 L 168.0 70.7 L 169.1 67.4 L 169.9 64.5 L 170.4 62.0 L 145.7 62.0 L 145.7 75.0 L 144.8 91.1 L 144.42392854690553 93.80413265228272 L 145.4 99.8 L 148.0 111.6 L 151.1 122.5 L 154.7 132.4 L 158.8 141.4 L 163.3 149.5 L 168.2 156.6 L 173.3 162.9 L 178.7 168.3 L 184.3 172.8 L 186.9 174.9 L 176.0 183.1 L 169.9 177.2 Z M 37.2 112.0 L 37.2 128.0 L 79.8 128.0 L 79.8 112.0 Z M 37.2 93.0 L 37.2 108.0 L 79.8 108.0 L 79.8 93.0 Z M 39.7 62.7 L 39.4 60.1 L 39.0 57.6 L 38.0 52.8 L 36.8 48.4 L 36.1 46.2 L 35.0 44.3 L 36.4 43.1 L 38.1 44.7 L 40.0 46.2 L 41.9 48.0 L 43.6 50.0 L 45.3 52.1 L 46.8 54.5 L 48.2 57.1 L 49.6 59.8 L 50.8 62.7 L 52.0 65.7 L 51.1 70.2 L 48.63333330154419 72.0 L 65.88888893127441 72.0 L 66.5 70.0 L 67.3 66.4 L 69.1 59.6 L 69.9 56.4 L 70.8 53.2 L 72.4 47.2 L 73.2 44.3 L 73.72172889709472 42.53916492462158 L 73.6 42.5 L 74.5 40.3 L 85.1 46.2 L 87.0 49.2 L 82.94180202484131 49.769571685791014 L 82.0 51.3 L 80.4 54.0 L 78.7 56.7 L 77.0 59.5 L 75.2 62.3 L 73.3 65.2 L 71.2 68.2 L 69.0 71.2 L 68.50967741012573 72.0 L 87.11818180084228 72.0 L 95.3 63.0 L 105.3 72.0 L 105.3 76.0 L 12.6 76.0 L 12.6 72.0 L 42.9 72.0 L 40.3 68.3 L 40.0 65.4 Z M 18.5 36.0 L 53.4 36.0 L 53.4 13.0 L 65.4 15.0 L 68.4 17.0 L 65.4 18.8 L 65.4 36.0 L 78.4 36.0 L 88.4 26.0 L 100.4 36.0 L 100.4 40.0 L 18.5 40.0 Z " />
</g>
</svg>
