<svg xmlns="http://www.w3.org/2000/svg" xmlns:xlink="http://www.w3.org/1999/xlink" version="1.1" baseProfile="full" viewBox="0 0 200 200" width="200" height="200">
<g fill="black">
<path d="M 148.0 164.2 L 135.5 151.6 L 124.1 138.1 L 124.07858610153198 138.06925735473632 L 120.6 142.1 L 106.7 155.4 L 91.6 167.3 L 75.2 177.8 L 57.6 186.7 L 56.7 185.2 L 73.2 174.5 L 88.3 163.0 L 102.2 150.5 L 114.9 137.0 L 119.37578048706055 131.3177046775818 L 114.0 123.6 L 105.0 108.1 L 97.2 91.7 L 90.7 74.5 L 85.5 56.2 L 81.7 37.1 L 83.4 36.7 L 89.5 55.1 L 96.2 72.4 L 103.8 88.7 L 112.3 104.0 L 121.7 118.3 L 125.6354383468628 123.37066087722778 L 126.4 122.4 L 136.7 106.7 L 145.7 89.9 L 153.5 71.9 L 160.1 52.8 L 165.5 32.5 L 165.55568113327027 32.51380128860474 L 166.0 30.8 L 177.2 35.4 L 179.6 38.0 L 176.1085720062256 39.079168701171874 L 171.0 56.3 L 163.4 76.0 L 154.6 94.4 L 144.6 111.6 L 133.2 127.5 L 130.90459022521972 130.1597604751587 L 132.1 131.7 L 143.5 144.0 L 155.8 155.4 L 169.2 165.9 L 183.5 175.4 L 187.5 177.9 L 176.5 186.5 L 161.7 175.9 Z M 40.6 186.9 L 36.6 184.8 L 35.1 180.5 L 35.7 173.5 L 35.8 167.1 L 35.2 161.4 L 34.1 156.2 L 32.5 151.6 L 30.3 147.4 L 27.5 143.6 L 24.0 140.2 L 19.8 137.0 L 14.8 134.1 L 15.3 132.4 L 21.3 133.6 L 26.9 135.7 L 31.9 138.8 L 34.2225378036499 140.8586130142212 L 34.3 140.7 L 37.0 135.4 L 40.4 128.9 L 44.4 121.4 L 49.1 112.6 L 54.6 102.8 L 60.7 91.8 L 67.7 79.7 L 75.5 66.5 L 77.1 67.4 L 71.1 81.4 L 65.5 94.2 L 60.4 105.7 L 55.9 116.0 L 52.1 125.0 L 48.8 132.9 L 46.2 139.5 L 44.2 144.9 L 42.9 149.0 L 42.3 151.6 L 42.10599813461304 151.54432992935182 L 42.9 153.0 L 45.0 159.2 L 46.4 166.0 L 47.1 173.5 L 47.1 181.5 L 45.0 185.5 Z M 35.6 83.6 L 34.0 81.6 L 32.1 79.5 L 29.8 77.5 L 27.2 75.4 L 24.2 73.3 L 20.8 71.2 L 17.1 69.0 L 13.0 67.1 L 13.5 65.4 L 18.1 66.3 L 22.4 67.1 L 26.5 68.1 L 30.3 69.4 L 33.9 70.8 L 37.2 72.5 L 40.3 74.3 L 43.1 76.4 L 45.6 78.7 L 47.9 81.2 L 48.5 85.8 L 45.9 89.5 L 41.4 90.2 L 37.7 87.6 L 36.8 85.6 Z M 122.5 42.8 L 121.8 39.6 L 120.8 36.4 L 119.6 33.1 L 118.2 29.7 L 116.4 26.2 L 114.5 22.7 L 112.3 18.9 L 109.7 15.3 L 111.0 14.0 L 114.6 16.9 L 118.0 19.7 L 121.2 22.8 L 124.0 25.9 L 126.6 29.2 L 128.8 32.6 L 130.8 36.0 L 132.5 39.6 L 133.9 43.3 L 135.1 47.1 L 133.9 51.5 L 130.1 53.9 L 125.6 52.8 L 123.2 48.9 L 123.0 45.9 Z M 50.9 37.7 L 49.2 35.6 L 47.3 33.5 L 45.1 31.4 L 42.6 29.3 L 39.7 27.2 L 36.6 25.1 L 33.2 23.0 L 29.4 21.1 L 30.0 19.4 L 34.2 20.3 L 38.3 21.1 L 42.2 22.2 L 45.8 23.4 L 49.3 24.9 L 52.5 26.5 L 55.5 28.4 L 58.3 30.4 L 60.9 32.6 L 63.2 35.1 L 64.1 39.6 L 61.6 43.4 L 57.1 44.3 L 53.3 41.8 L 52.2 39.8 Z " />
</g>
</svg>
