<svg xmlns="http://www.w3.org/2000/svg" xmlns:xlink="http://www.w3.org/1999/xlink" version="1.1" baseProfile="full" viewBox="0 0 200 200" width="200" height="200">
<g fill="black">
<path d="M 80.7 39.0 L 83.7 41.0 L 80.7 42.8 L 80.7 183.0 L 68.7 189.0 L 68.7 37.0 Z M 146.2 176.0 L 166.2 176.0 L 167.4 175.9 L 168.3 175.7 L 168.9 175.5 L 169.3 175.4 L 169.5 175.2 L 169.6 175.0 L 169.8 174.7 L 170.0 174.1 L 170.1 173.2 L 170.2 172.0 L 170.2 34.0 L 109.5 34.0 L 109.5 30.0 L 170.2 30.0 L 176.2 25.0 L 187.2 34.0 L 182.2 38.0 L 182.2 172.0 L 182.1 174.5 L 181.6 177.0 L 180.8 179.4 L 179.6 181.7 L 177.9 183.7 L 175.9 185.3 L 173.7 186.6 L 171.3 187.4 L 168.8 187.8 L 166.2 188.0 L 166.2 182.0 L 146.2 179.0 Z M 34.3 186.9 L 30.2 184.9 L 28.7 180.6 L 29.2 173.5 L 29.3 167.0 L 28.9 161.2 L 28.1 155.9 L 26.8 151.2 L 25.78775930404663 148.758713722229 L 25.1 148.6 L 25.39059829711914 147.80085468292236 L 25.1 147.1 L 23.0 143.4 L 20.4 140.1 L 17.2 137.0 L 13.4 134.1 L 14.0 132.5 L 19.1 133.7 L 23.7 135.9 L 27.9 139.0 L 28.62724142074585 139.80586204528808 L 30.3 135.7 L 33.1 129.3 L 36.4 121.7 L 44.9 103.0 L 50.0 92.0 L 55.8 79.8 L 62.3 66.6 L 64.0 67.3 L 59.3 81.3 L 54.9 94.0 L 51.0 105.5 L 47.4 115.7 L 44.4 124.7 L 41.8 132.6 L 39.7 139.2 L 38.2 144.5 L 37.2 148.6 L 36.8 151.3 L 36.051943969726565 151.12737169265748 L 37.0 153.3 L 38.8 159.4 L 40.0 166.1 L 40.6 173.5 L 40.6 181.4 L 38.6 185.4 Z M 143.5 111.9 L 136.9 107.2 L 130.9 102.0 L 126.79261283874511 97.65564813613892 L 121.9 102.4 L 115.2 108.2 L 108.2 113.4 L 104.58385095596313 115.69192543029786 L 111.2 119.0 L 141.0 119.0 L 147.0 114.0 L 158.0 123.0 L 153.0 127.0 L 153.0 164.8 L 141.0 170.8 L 141.0 158.8 L 111.2 158.8 L 111.2 170.8 L 99.2 176.8 L 99.2 118.88904113769532 L 93.8 121.7 L 86.3 124.7 L 85.5 123.1 L 91.9 118.4 L 98.1 113.5 L 104.2 108.2 L 110.1 102.5 L 115.9 96.4 L 121.05675020217896 90.42902603149415 L 117.2 84.1 L 114.1 77.4 L 111.8 70.3 L 111.78217821121216 70.19855289459228 L 111.3 71.2 L 108.5 76.3 L 105.5 81.1 L 102.3 85.4 L 98.8 89.4 L 95.1 92.9 L 91.0 95.9 L 89.7 94.7 L 92.2 90.5 L 94.5 86.3 L 96.8 81.9 L 98.9 77.3 L 100.9 72.6 L 102.8 67.6 L 104.4 62.3 L 106.0 56.8 L 107.4 51.0 L 108.42228765487671 45.80337123870849 L 108.4 45.8 L 109.0 43.1 L 120.3 47.6 L 122.7 50.2 L 119.18678417205811 51.34977970123291 L 118.4 54.0 L 116.31000003814697 59.7 L 141.9 59.7 L 142.3800000190735 59.3 L 142.8 58.6 L 143.04385566711426 58.74678688049316 L 147.9 54.7 L 158.9 63.7 L 153.9 66.7 L 150.9545454978943 67.92727270126343 L 147.2 73.4 L 141.1 81.5 L 134.9 89.1 L 133.34239749908448 90.77929019927979 L 137.6 94.3 L 143.3 98.2 L 149.5 101.7 L 156.2 104.9 L 163.4 107.8 L 170.0 110.4 L 158.5 120.0 L 150.7 116.2 Z M 111.2 123.0 L 111.2 154.8 L 141.0 154.8 L 141.0 123.0 Z M 29.1 83.1 L 28.0 81.1 L 26.6 79.1 L 24.9 77.1 L 22.9 75.1 L 20.6 73.1 L 18.1 71.0 L 15.2 68.9 L 12.0 67.1 L 12.6 65.5 L 16.3 66.5 L 19.9 67.3 L 23.3 68.4 L 26.5 69.6 L 29.5 71.1 L 32.3 72.8 L 34.9 74.6 L 37.2 76.7 L 39.4 79.1 L 41.3 81.6 L 41.5 86.1 L 38.6 89.6 L 34.0 89.9 L 30.5 87.0 L 29.9 85.0 Z M 114.73275861740112 63.7 L 113.96699028015136 65.631067943573 L 115.7 68.8 L 119.3 74.7 L 123.3 80.2 L 126.32441959381103 83.78710231781005 L 127.1 82.8 L 132.5 75.2 L 137.7 67.1 L 139.73999996185302 63.7 Z M 91.1 34.5 L 90.3 31.7 L 89.2 28.9 L 87.8 26.2 L 86.2 23.6 L 84.3 20.9 L 82.1 18.3 L 79.6 15.6 L 76.6 13.2 L 77.5 11.6 L 84.7 14.8 L 88.0 16.7 L 91.1 18.9 L 93.9 21.4 L 96.5 24.2 L 98.8 27.2 L 100.8 30.5 L 102.5 34.0 L 103.9 37.7 L 103.0 42.2 L 99.3 44.9 L 94.8 44.0 L 92.1 40.3 L 91.7 37.3 Z M 41.4 37.2 L 40.3 35.2 L 38.9 33.1 L 37.2 31.1 L 35.3 29.1 L 33.2 27.0 L 30.8 25.0 L 28.3 22.9 L 25.2 21.2 L 25.9 19.5 L 29.3 20.5 L 32.7 21.3 L 36.0 22.4 L 39.0 23.7 L 41.9 25.2 L 44.6 26.8 L 47.2 28.7 L 49.5 30.7 L 51.7 33.0 L 53.7 35.4 L 54.1 40.0 L 51.3 43.6 L 46.7 44.0 L 43.1 41.2 L 42.4 39.2 Z " />
</g>
</svg>
