<svg xmlns="http://www.w3.org/2000/svg" xmlns:xlink="http://www.w3.org/1999/xlink" version="1.1" baseProfile="full" viewBox="0 0 200 200" width="200" height="200">
<g fill="black">
<path d="M 84.6 16.0 L 87.6 18.0 L 84.6 19.8 L 84.6 183.0 L 72.6 189.0 L 72.6 14.0 Z M 122.0 111.6 L 164.9 111.6 L 170.9 106.6 L 181.9 115.6 L 176.9 119.6 L 176.9 177.3 L 164.9 183.3 L 164.9 173.3 L 122.0 173.3 L 122.0 180.3 L 110.0 186.3 L 110.0 105.6 Z M 30.8 186.9 L 26.7 184.9 L 25.1 180.6 L 25.7 173.5 L 25.8 166.9 L 25.5 161.0 L 24.8 155.7 L 23.8 151.0 L 23.11705026626587 148.99993295669555 L 22.1 148.8 L 22.568674659729005 147.39397592544555 L 22.4 146.9 L 20.7 143.2 L 18.6 140.0 L 16.0 137.0 L 12.9 134.2 L 13.6 132.5 L 18.1 133.8 L 22.2 136.0 L 25.52224760055542 138.96308574676513 L 26.6 135.9 L 29.1 129.5 L 32.0 121.9 L 35.4 113.1 L 39.4 103.2 L 43.8 92.1 L 48.9 79.9 L 54.7 66.6 L 56.4 67.3 L 52.5 81.2 L 48.9 93.9 L 45.6 105.3 L 42.6 115.5 L 40.1 124.5 L 37.9 132.3 L 36.2 138.9 L 35.0 144.3 L 34.2 148.4 L 33.8 151.1 L 32.78940877914429 150.9013367652893 L 33.8 153.5 L 35.4 159.5 L 36.5 166.2 L 37.0 173.5 L 37.1 181.3 L 35.1 185.4 Z M 122.0 115.6 L 122.0 169.3 L 164.9 169.3 L 164.9 115.6 Z M 55.4 101.6 L 52.6 98.0 L 53.1 93.4 L 54.3 91.8 L 55.6 89.6 L 56.8 87.0 L 58.1 84.0 L 59.3 80.5 L 60.6 76.6 L 61.8 72.2 L 63.0 67.5 L 64.4 62.4 L 65.6 56.9 L 67.4 57.0 L 67.5 62.7 L 67.7 68.1 L 67.7 73.1 L 67.5 77.8 L 67.2 82.1 L 66.8 86.1 L 66.2 89.8 L 65.5 93.2 L 64.6 96.4 L 63.6 99.3 L 60.0 102.0 Z M 173.6 80.7 L 172.42054796218872 77.16164379119873 L 167.9 78.6 L 159.3 81.0 L 151.2 83.1 L 143.3 85.1 L 135.8 86.8 L 128.7 88.5 L 121.9 90.0 L 115.5 91.4 L 109.5 92.6 L 107.8462646484375 92.94815483093262 L 106.2 96.4 L 103.8 93.8 L 101.87152776718139 87.70185813903808 L 101.6 87.9 L 97.1 87.0 L 94.5 83.3 L 94.3 80.6 L 93.9 77.9 L 93.4 75.2 L 92.8 72.4 L 92.1 69.5 L 91.2 66.6 L 90.2 63.6 L 89.1 60.5 L 87.9 57.3 L 86.3 54.3 L 87.8 53.2 L 90.2 55.8 L 92.7 58.3 L 95.0 60.9 L 97.1 63.6 L 99.0 66.3 L 100.8 69.1 L 102.4 71.9 L 103.8 74.8 L 105.1 77.8 L 106.2 80.8 L 106.04579782485962 81.55387735366821 L 107.8 81.4 L 113.9 80.8 L 115.935023021698 80.57741937637329 L 116.7 77.9 L 118.9 70.4 L 121.1 63.1 L 123.3 56.0 L 125.3 49.0 L 127.3 42.2 L 129.1 35.5 L 130.7 29.0 L 132.2 22.6 L 133.6 16.4 L 133.6210144996643 16.405434799194335 L 134.0 14.7 L 145.2 19.4 L 147.6 22.1 L 143.99548301696777 23.19422836303711 L 143.2 25.7 L 141.0 32.1 L 138.6 38.6 L 136.1 45.2 L 133.3 51.9 L 130.4 58.6 L 127.3 65.5 L 123.9 72.4 L 120.2 79.3 L 119.70571432113647 80.16499996185303 L 120.3 80.1 L 127.1 79.3 L 134.4 78.5 L 142.0 77.6 L 150.0 76.7 L 158.3 75.7 L 167.1 74.8 L 171.48086814880372 74.47025728225708 L 169.8 70.1 L 167.5 65.0 L 165.1 59.9 L 162.5 55.0 L 159.8 50.1 L 156.9 45.2 L 153.9 40.3 L 155.3 39.1 L 159.8 42.8 L 164.1 46.9 L 168.0 51.3 L 171.6 56.0 L 175.0 60.9 L 178.1 66.0 L 181.0 71.3 L 183.6 76.8 L 186.0 82.5 L 188.2 88.4 L 187.6 92.9 L 184.1 95.8 L 179.5 95.3 L 176.6 91.7 L 175.2 86.1 Z M 25.5 82.7 L 24.7 80.8 L 23.6 78.9 L 22.3 76.9 L 20.7 74.9 L 18.8 72.9 L 16.8 70.9 L 14.5 68.8 L 11.7 67.2 L 12.4 65.5 L 15.6 66.6 L 18.8 67.4 L 21.7 68.5 L 24.6 69.8 L 27.2 71.3 L 29.7 73.0 L 32.0 74.9 L 34.1 77.0 L 36.0 79.3 L 37.7 81.8 L 37.7 86.4 L 34.5 89.7 L 30.0 89.7 L 26.7 86.6 L 26.2 84.7 Z M 36.1 36.8 L 35.2 34.8 L 34.1 32.8 L 32.8 30.9 L 31.3 28.9 L 29.6 26.9 L 27.7 24.9 L 25.6 22.8 L 23.1 21.2 L 23.8 19.6 L 26.8 20.7 L 29.8 21.5 L 32.6 22.6 L 35.3 23.9 L 37.9 25.4 L 40.3 27.1 L 42.5 28.9 L 44.6 31.0 L 46.6 33.3 L 48.3 35.7 L 48.5 40.2 L 45.4 43.7 L 40.9 43.8 L 37.4 40.8 L 36.9 38.8 Z " />
</g>
</svg>
