<svg xmlns="http://www.w3.org/2000/svg" xmlns:xlink="http://www.w3.org/1999/xlink" version="1.1" baseProfile="full" viewBox="0 0 200 200" width="200" height="200">
<g fill="black">
<path d="M 171.7 176.1 L 170.2 172.5 L 169.3101152420044 170.66788425445557 L 163.8 172.0 L 154.8 173.9 L 145.9 175.5 L 137.0 177.0 L 128.3 178.4 L 119.6 179.7 L 102.6 181.9 L 94.2 182.9 L 89.980961227417 183.4083179473877 L 88.1 186.7 L 85.9 183.9 L 83.1 172.0 L 85.1 171.9 L 93.3 171.6 L 101.7 171.2 L 118.7 170.4 L 127.4 170.0 L 128.0 169.96590909957885 L 128.0 137.0 L 102.4 137.0 L 102.4 149.0 L 91.4 154.5 L 91.4 91.5 L 102.4 97.0 L 128.0 97.0 L 128.0 68.0 L 140.0 70.0 L 143.0 72.0 L 140.0 73.8 L 140.0 97.0 L 165.1 97.0 L 171.1 92.0 L 182.1 101.0 L 177.1 105.0 L 177.1 137.0 L 165.1 143.0 L 165.1 137.0 L 140.0 137.0 L 140.0 169.2865168571472 L 145.1 169.0 L 154.2 168.6 L 163.4 168.2 L 168.06278638839723 168.14986248016356 L 166.7 165.5 L 164.7 162.0 L 162.6 158.6 L 160.4 155.2 L 158.1 151.7 L 155.6 148.3 L 156.8 147.0 L 160.4 149.4 L 163.9 151.9 L 167.2 154.7 L 170.4 157.7 L 173.3 160.8 L 176.1 164.2 L 178.7 167.6 L 181.1 171.2 L 183.3 175.0 L 185.4 178.9 L 185.4 183.5 L 182.2 186.7 L 177.6 186.7 L 174.3 183.5 L 173.1 179.8 Z M 84.2 23.0 L 171.7 23.0 L 177.7 18.0 L 188.7 27.0 L 183.7 31.0 L 183.7 69.0 L 171.7 75.0 L 171.7 63.0 L 84.2 63.0 L 84.2 100.0 L 83.7 111.0 L 82.5 121.5 L 80.8 131.5 L 78.5 141.0 L 75.6 149.9 L 72.1 158.3 L 68.1 166.1 L 63.4 173.2 L 58.1 179.7 L 52.1 185.5 L 50.9 184.4 L 55.3 177.7 L 59.2 170.7 L 62.7 163.3 L 65.7 155.6 L 68.2 147.5 L 70.2 138.9 L 71.7 129.9 L 72.7 120.4 L 73.2 110.4 L 73.2 17.5 Z M 36.2 186.9 L 32.1 184.8 L 30.6 180.5 L 31.2 173.5 L 31.2 167.0 L 30.8 161.2 L 29.9 156.0 L 28.4 151.4 L 27.211475372314453 148.626775932312 L 26.7 148.5 L 26.92741117477417 147.96395940780639 L 26.6 147.2 L 24.2 143.5 L 21.2 140.1 L 17.6 137.0 L 13.3 134.1 L 13.9 132.4 L 19.3 133.6 L 24.4 135.8 L 28.9 138.9 L 30.201288414001464 140.23465480804444 L 32.3 135.6 L 35.4 129.1 L 39.0 121.5 L 43.2 112.8 L 48.1 102.9 L 53.6 91.9 L 59.9 79.8 L 66.9 66.6 L 68.6 67.3 L 63.3 81.3 L 58.5 94.1 L 54.1 105.6 L 50.2 115.8 L 46.8 124.9 L 43.9 132.7 L 41.7 139.3 L 40.0 144.7 L 38.9 148.8 L 38.4 151.4 L 37.775972557067874 151.24532651901245 L 38.7 153.2 L 40.6 159.3 L 41.9 166.1 L 42.6 173.5 L 42.6 181.4 L 40.5 185.5 Z M 102.4 101.0 L 102.4 133.0 L 128.0 133.0 L 128.0 101.0 Z M 140.0 101.0 L 140.0 133.0 L 165.1 133.0 L 165.1 101.0 Z M 31.0 83.3 L 29.7 81.3 L 28.1 79.3 L 26.2 77.3 L 24.0 75.2 L 21.4 73.1 L 18.6 71.1 L 15.4 68.9 L 11.8 67.1 L 12.4 65.4 L 16.4 66.4 L 20.3 67.2 L 23.9 68.3 L 27.4 69.5 L 30.6 71.0 L 33.6 72.6 L 36.4 74.5 L 38.9 76.6 L 41.2 78.9 L 43.3 81.4 L 43.7 86.0 L 40.9 89.6 L 36.3 90.0 L 32.7 87.2 L 32.0 85.3 Z M 84.2 27.0 L 84.2 59.0 L 171.7 59.0 L 171.7 27.0 Z M 44.5 37.4 L 43.2 35.4 L 41.6 33.3 L 39.7 31.2 L 37.6 29.2 L 35.2 27.1 L 32.5 25.0 L 29.6 22.9 L 26.3 21.1 L 26.9 19.4 L 30.6 20.4 L 34.3 21.3 L 37.8 22.3 L 41.1 23.6 L 44.2 25.0 L 47.1 26.7 L 49.8 28.5 L 52.4 30.6 L 54.7 32.8 L 56.8 35.3 L 57.4 39.8 L 54.8 43.5 L 50.2 44.1 L 46.5 41.5 L 45.6 39.4 Z " />
</g>
</svg>
