<svg xmlns="http://www.w3.org/2000/svg" xmlns:xlink="http://www.w3.org/1999/xlink" version="1.1" baseProfile="full" viewBox="0 0 200 200" width="200" height="200">
<g fill="black">
<path d="M 50.3 146.1 L 54.6 144.6 L 59.0 143.0 L 63.7 141.4 L 68.6 139.8 L 73.8 138.2 L 74.0 138.1381817817688 L 74.0 106.0 L 66.1 106.0 L 58.1 114.0 L 48.1 104.0 L 54.85124654769898 98.37396125793457 L 61.913138675689694 50.0 L 49.1 50.0 L 49.1 46.0 L 62.49708032608032 46.0 L 67.3 13.1 L 78.9 16.8 L 81.6 19.2 L 78.39760618209839 20.227182960510255 L 74.61954545974731 46.0 L 80.7 46.0 L 90.7 36.0 L 102.7 46.0 L 102.7 50.0 L 74.03318185806275 50.0 L 66.41045455932617 102.0 L 74.0 102.0 L 74.0 67.0 L 86.0 69.0 L 89.0 71.0 L 86.0 72.8 L 86.0 102.0 L 89.0777777671814 102.0 L 95.3 95.0 L 103.3 102.0 L 103.3 106.0 L 86.0 106.0 L 86.0 134.48833332061767 L 90.9 133.1 L 97.1 131.5 L 103.7 130.1 L 104.3 131.8 L 98.5 135.1 L 92.8 138.1 L 87.3 140.9 L 86.0 141.55 L 86.0 183.0 L 74.0 189.0 L 74.0 147.46938772201537 L 72.1 148.4 L 67.5 150.7 L 63.2 152.9 L 59.0 155.0 L 58.86429414749146 155.06959276199342 L 58.2 159.0 L 55.1 157.0 L 48.5 146.9 Z M 151.8 176.5 L 165.8 176.5 L 166.8 176.4 L 167.4 176.3 L 167.8 176.1 L 168.1 176.0 L 168.2 175.8 L 168.4 175.6 L 168.6 175.1 L 168.8 174.4 L 169.0 173.3 L 169.1 172.0 L 169.1 87.0 L 180.1 89.0 L 182.8 91.0 L 180.1 92.72340421676635 L 180.1 172.0 L 179.9 174.4 L 179.6 176.7 L 178.9 179.0 L 177.9 181.1 L 176.5 183.1 L 174.7 184.7 L 172.7 186.0 L 170.5 186.8 L 168.2 187.3 L 165.8 187.5 L 165.8 182.0 L 151.8 179.2 Z M 121.7 176.0 L 129.7 176.0 L 130.4 175.9 L 130.8 175.8 L 131.2 175.6 L 131.3 175.5 L 131.8 174.5 L 132.0 173.6 L 132.1 172.4 L 132.2 171.0 L 132.2 148.0 L 119.0 148.0 L 119.0 182.2 L 108.0 187.7 L 108.0 87.5 L 119.0 93.0 L 132.2 93.0 L 137.2 88.0 L 147.2 97.0 L 142.2 100.0 L 142.2 171.0 L 142.1 173.3 L 141.8 175.5 L 141.3 177.6 L 140.5 179.6 L 139.3 181.5 L 137.8 183.1 L 136.0 184.4 L 134.0 185.3 L 131.9 185.8 L 129.7 186.0 L 129.7 181.0 L 121.7 178.5 Z M 28.9 186.9 L 24.8 184.9 L 23.2 180.6 L 23.7 173.5 L 23.8 166.9 L 23.6 160.9 L 23.1 155.6 L 22.2 150.9 L 21.693805313110353 149.12831859588624 L 20.4 148.9 L 21.04179105758667 146.84626865386963 L 21.0 146.7 L 19.5 143.1 L 17.7 139.9 L 15.6 136.9 L 13.0 134.2 L 13.7 132.6 L 17.8 133.9 L 21.6 136.2 L 23.847603034973144 138.31539106369019 L 24.6 136.1 L 26.8 129.6 L 29.5 122.0 L 32.6 113.2 L 36.2 103.3 L 40.2 92.2 L 44.9 80.0 L 50.1 66.7 L 51.8 67.2 L 48.5 81.1 L 45.3 93.8 L 42.4 105.2 L 39.9 115.4 L 37.6 124.4 L 35.8 132.2 L 34.3 138.8 L 33.2 144.1 L 32.5 148.3 L 32.3 151.0 L 31.11138210296631 150.79024391174318 L 32.1 153.6 L 33.6 159.6 L 34.5 166.2 L 35.1 173.5 L 35.2 181.3 L 33.2 185.4 Z M 160.9 94.0 L 163.4 96.0 L 160.9 97.66666669845581 L 160.9 158.5 L 150.9 163.5 L 150.9 92.0 Z M 119.0 121.0 L 119.0 144.0 L 132.2 144.0 L 132.2 121.0 Z M 119.0 97.0 L 119.0 117.0 L 132.2 117.0 L 132.2 97.0 Z M 23.6 82.5 L 22.9 80.6 L 22.0 78.7 L 20.9 76.7 L 19.6 74.8 L 18.0 72.8 L 16.3 70.8 L 14.3 68.8 L 11.9 67.2 L 12.7 65.6 L 15.5 66.7 L 18.4 67.6 L 21.1 68.7 L 23.7 70.0 L 26.1 71.5 L 28.4 73.2 L 30.5 75.1 L 32.4 77.2 L 34.2 79.5 L 35.7 82.0 L 35.5 86.6 L 32.2 89.8 L 27.7 89.6 L 24.5 86.3 L 24.1 84.4 Z M 169.6 66.7 L 165.4 62.2 L 161.5 57.6 L 157.8 52.7 L 154.3 47.6 L 151.1 42.4 L 148.1 36.9 L 145.5 31.2 L 145.3319999694824 30.72799997329712 L 144.0 33.5 L 139.8 40.9 L 135.2 48.1 L 130.2 55.1 L 124.8 61.8 L 119.0 68.2 L 112.8 74.4 L 106.2 80.2 L 99.0 85.6 L 97.8 84.3 L 103.5 77.5 L 108.9 70.8 L 114.0 64.0 L 118.8 57.2 L 123.2 50.3 L 127.3 43.3 L 130.9 36.1 L 134.3 28.8 L 137.2 21.4 L 139.8 13.9 L 140.3 12.4 L 151.1 17.9 L 153.3 20.8 L 149.53957376480102 21.525696277618408 L 147.7 25.8 L 147.15835514068604 26.927206897735594 L 149.1 29.1 L 153.0 33.7 L 157.0 38.2 L 160.9 42.5 L 164.9 46.6 L 169.1 50.6 L 173.3 54.4 L 177.6 58.0 L 182.0 61.5 L 186.5 64.8 L 189.3 66.9 L 178.4 75.1 L 173.9 71.0 Z M 168.1 72.0 L 168.1 76.0 L 118.5 76.0 L 118.5 72.0 L 149.9181818008423 72.0 L 158.1 63.0 Z M 32.3 34.6 L 31.4 32.6 L 30.3 30.7 L 29.1 28.7 L 27.6 26.8 L 26.0 24.8 L 24.2 22.8 L 22.0 21.2 L 22.8 19.6 L 25.5 20.7 L 28.2 21.6 L 30.8 22.7 L 33.3 24.0 L 35.6 25.6 L 37.8 27.3 L 39.9 29.1 L 41.8 31.2 L 43.6 33.4 L 45.2 35.9 L 45.1 40.4 L 42.0 43.7 L 37.4 43.7 L 34.1 40.5 L 33.1 36.5 Z " />
</g>
</svg>
