<svg xmlns="http://www.w3.org/2000/svg" xmlns:xlink="http://www.w3.org/1999/xlink" version="1.1" baseProfile="full" viewBox="0 0 200 200" width="200" height="200">
<g fill="black">
<path d="M 70.0 175.9 L 91.2 175.9 L 92.1 175.7 L 92.7 175.5 L 93.0 175.3 L 93.2 175.2 L 93.4 175.0 L 93.7 174.1 L 93.9 173.2 L 94.0 171.9 L 94.0 109.1 L 106.0 111.1 L 109.0 113.1 L 106.0 114.9 L 106.0 123.85227270126343 L 109.5 129.5 L 114.3 136.0 L 119.6 141.9 L 123.6878571510315 145.641428565979 L 125.7 144.3 L 130.6 141.1 L 135.4 138.0 L 140.0 135.1 L 144.5 132.2 L 148.7 129.4 L 152.8 126.6 L 156.6 123.8 L 160.2 121.0 L 162.90871858596802 118.91041707992554 L 162.9 118.9 L 162.90897216796876 118.91022148132325 L 163.7 118.3 L 169.0776762008667 125.9378589630127 L 170.8 127.9 L 171.0 131.5 L 167.425 130.0050000190735 L 166.6 130.5 L 162.3 132.9 L 157.9 135.2 L 153.3 137.4 L 148.5 139.7 L 143.5 141.8 L 138.3 143.9 L 132.9 145.9 L 127.3 147.7 L 126.38536586761475 147.94390239715577 L 132.1 152.1 L 139.4 156.4 L 147.4 160.3 L 156.3 163.6 L 165.9 166.5 L 176.4 168.8 L 185.3 170.8 L 173.5 181.7 L 162.4 178.5 L 152.1 174.7 L 142.7 170.2 L 134.1 165.2 L 126.5 159.6 L 119.8 153.4 L 114.1 146.6 L 109.4 139.3 L 106.0 131.83888893127443 L 106.0 171.9 L 105.8 174.5 L 105.4 177.0 L 104.6 179.4 L 103.3 181.6 L 101.7 183.7 L 99.7 185.3 L 97.4 186.5 L 95.0 187.3 L 92.5 187.8 L 90.0 187.9 L 90.0 181.9 L 70.0 178.9 Z M 88.0 133.8 L 83.0 136.8 L 81.29677419662475 137.50967741012573 L 80.6 139.6 L 77.3 145.7 L 72.9 151.3 L 67.7 156.4 L 61.5 161.1 L 54.4 165.3 L 46.5 169.1 L 37.7 172.5 L 27.9 175.4 L 17.2 177.8 L 16.7 176.0 L 26.6 171.8 L 35.6 167.6 L 43.6 163.3 L 50.5 158.8 L 56.4 154.3 L 61.3 149.7 L 65.1 145.0 L 68.0 140.3 L 70.0 135.5 L 70.38163261413574 133.8 L 28.0 133.8 L 28.0 129.8 L 71.0 129.8 L 77.0 124.8 Z M 156.5 101.4 L 147.2 96.6 L 139.0 91.1 L 135.7863974571228 88.5027048110962 L 128.1 93.6 L 117.5 99.0 L 105.7 103.4 L 92.9 106.9 L 78.9 109.4 L 78.5 107.6 L 91.8 103.3 L 103.8 98.4 L 114.6 93.1 L 124.0 87.2 L 129.52669506073 82.8864818572998 L 125.5 78.6 L 120.4 71.5 L 116.4 64.0 L 113.7 56.0 L 112.8870662689209 51.12239751815796 L 112.8 51.2 L 107.8 55.1 L 102.5 58.6 L 96.8 61.7 L 95.7 60.2 L 100.1 55.6 L 104.2 51.1 L 108.1 46.6 L 111.7 42.1 L 115.1 37.5 L 118.1 32.8 L 120.9 28.0 L 123.3 23.2 L 125.5 18.2 L 127.3 13.2 L 127.35855703353882 13.223527336120606 L 127.9 11.9 L 138.5 17.7 L 140.5 20.7 L 136.63333330154418 21.3 L 135.7 23.1 L 132.7 28.4 L 129.3 33.4 L 125.7 38.2 L 125.0043478012085 39.0 L 164.9 39.0 L 174.9 29.0 L 186.9 39.0 L 186.9 43.0 L 166.6555555343628 43.0 L 163.6 53.0 L 159.0 62.9 L 153.1 71.9 L 145.9 80.1 L 143.74301195144653 81.97112216949463 L 144.7 82.6 L 152.5 86.8 L 161.1 90.6 L 170.7 93.9 L 181.2 96.7 L 189.5 98.9 L 177.8 109.4 L 166.7 105.7 Z M 48.5 69.1 L 82.4 69.1 L 88.4 64.1 L 99.4 73.1 L 94.4 77.1 L 94.4 97.0 L 82.4 103.0 L 82.4 97.0 L 48.5 97.0 L 48.5 100.0 L 36.5 106.0 L 36.5 63.1 Z M 36.55909090042114 25.279545497894286 L 36.9 25.2 L 42.8 23.9 L 48.5 22.6 L 54.0 21.3 L 59.4 19.9 L 64.6 18.4 L 69.7 16.8 L 74.6 15.1 L 79.4 13.3 L 83.03125638961792 11.766802883148193 L 83.0 11.7 L 83.06213073730468 11.753767013549805 L 83.9 11.4 L 84.49893236160278 12.997152996063232 L 93.4 20.7 L 93.6 23.8 L 89.59192171096802 22.065160179138182 L 88.1 22.6 L 82.9 24.1 L 77.6 25.4 L 72.2 26.5 L 66.7 27.5 L 61.0 28.2 L 55.2 28.8 L 49.4 29.1 L 43.3 29.2 L 37.2 29.0 L 37.0 28.980645179748535 L 37.0 35.7 L 83.0 35.7 L 89.0 30.7 L 100.0 39.7 L 95.0 43.7 L 95.0 59.2 L 83.0 65.2 L 83.0 59.2 L 36.78181819915771 59.2 L 36.4 62.7 L 35.5 68.0 L 34.2 73.0 L 32.4 77.8 L 30.3 82.4 L 27.7 86.7 L 24.8 90.7 L 21.5 94.3 L 17.7 97.6 L 13.6 100.5 L 12.3 99.2 L 15.1 95.2 L 17.4 91.2 L 19.5 87.2 L 21.2 83.2 L 22.6 79.2 L 23.7 75.0 L 24.5 70.8 L 25.0 66.4 L 25.1 61.9 L 25.0 57.2 L 25.0 19.5 Z M 48.5 73.1 L 48.5 93.0 L 82.4 93.0 L 82.4 73.1 Z M 121.5 43.0 L 117.4 47.1 L 115.02836065292358 49.21385250091553 L 117.6 54.5 L 121.6 61.2 L 126.2 67.3 L 131.6 72.9 L 136.16684074401854 76.71817836761474 L 139.1 73.7 L 144.9 66.1 L 149.4 58.0 L 152.8 49.2 L 154.31219511032106 43.0 Z M 37.0 39.7 L 37.0 55.2 L 83.0 55.2 L 83.0 39.7 Z " />
</g>
</svg>
