<svg xmlns="http://www.w3.org/2000/svg" xmlns:xlink="http://www.w3.org/1999/xlink" version="1.1" baseProfile="full" viewBox="0 0 200 200" width="200" height="200">
<g fill="black">
<path d="M 95.6 176.0 L 115.7 176.0 L 116.9 175.9 L 117.8 175.7 L 118.7 175.4 L 119.1 175.0 L 119.4 174.1 L 119.6 173.2 L 119.7 172.0 L 119.7 101.0 L 71.1 101.0 L 71.1 97.0 L 119.7 97.0 L 119.7 35.0 L 76.3 35.0 L 76.3 31.0 L 157.0 31.0 L 167.0 21.0 L 179.0 31.0 L 179.0 35.0 L 131.7 35.0 L 131.7 97.0 L 166.1 97.0 L 176.1 87.0 L 188.1 97.0 L 188.1 101.0 L 131.7 101.0 L 131.7 172.0 L 131.5 174.5 L 131.1 177.0 L 130.3 179.4 L 129.0 181.7 L 127.4 183.7 L 125.4 185.3 L 123.1 186.6 L 120.7 187.4 L 118.2 187.8 L 115.7 188.0 L 115.7 182.0 L 95.6 179.0 Z M 69.2 153.6 L 67.7 150.2 L 65.9 146.6 L 63.8 142.9 L 61.4 139.1 L 58.6 135.2 L 55.5 131.1 L 52.2 126.7 L 51.72109432220459 126.11467084884643 L 50.8 130.6 L 47.7 141.0 L 43.8 150.6 L 39.0 159.4 L 33.4 167.4 L 27.0 174.5 L 19.8 180.6 L 11.9 185.7 L 10.8 184.2 L 17.3 177.8 L 23.0 170.9 L 28.0 163.6 L 32.3 155.8 L 35.9 147.3 L 38.8 138.2 L 41.0 128.4 L 42.5 118.0 L 43.3 106.8 L 43.4 95.0 L 43.4 17.0 L 55.4 19.0 L 58.4 21.0 L 55.4 22.8 L 55.4 74.0484848022461 L 55.6 73.8 L 58.9 69.9 L 62.1 66.2 L 65.1 62.7 L 67.9 59.3 L 70.6 56.1 L 73.1 53.1 L 75.4 50.2 L 76.92917861938477 48.323280811309814 L 76.9 48.3 L 77.36428575515747 47.78928575515747 L 77.6 47.5 L 77.61460552215576 47.513933944702146 L 77.9 47.2 L 86.3 55.8 L 87.1 59.3 L 83.16818952560425 58.47225046157837 L 80.7 60.6 L 77.6 63.2 L 74.3 65.8 L 70.8 68.6 L 67.1 71.5 L 63.2 74.4 L 59.1 77.5 L 55.4 79.96666669845581 L 55.4 95.0 L 54.7 107.6 L 53.1 119.4 L 52.41629581451416 122.72934207916259 L 54.6 124.2 L 59.1 127.5 L 63.2 130.9 L 67.0 134.4 L 70.4 137.9 L 73.5 141.5 L 76.3 145.1 L 78.7 148.7 L 80.8 152.4 L 82.6 156.2 L 82.2 160.8 L 78.8 163.8 L 74.2 163.4 L 71.2 160.0 L 70.4 156.9 Z M 15.3 108.4 L 12.9 104.5 L 13.9 100.1 L 15.9 97.3 L 17.8 94.2 L 19.4 90.6 L 20.7 86.7 L 21.9 82.3 L 22.7 77.5 L 23.3 72.3 L 23.7 66.7 L 23.9 60.6 L 23.9 54.1 L 25.7 53.8 L 27.6 60.1 L 29.0 66.3 L 29.9 72.2 L 30.3 77.9 L 30.3 83.3 L 29.8 88.6 L 29.0 93.5 L 27.7 98.3 L 25.9 102.7 L 23.7 106.9 L 19.8 109.3 Z " />
</g>
</svg>
