<svg xmlns="http://www.w3.org/2000/svg" xmlns:xlink="http://www.w3.org/1999/xlink" version="1.1" baseProfile="full" viewBox="0 0 200 200" width="200" height="200">
<g fill="black">
<path d="M 161.5 179.9 L 154.5 175.5 L 148.2 170.5 L 142.5 164.7 L 142.01762523651124 164.0825602531433 L 138.5 165.9 L 132.5 168.8 L 126.4 171.4 L 120.2 173.9 L 114.1 176.2 L 101.7 180.6 L 95.5 182.7 L 89.3 184.6 L 87.00909090042114 185.29090909957887 L 85.7 189.0 L 83.0 186.5 L 78.2 175.4 L 80.2 174.9 L 86.4 173.6 L 92.7 172.3 L 95.8 171.6111110687256 L 95.8 127.0 L 83.23168315887452 127.0 L 82.6 132.8 L 81.0 142.3 L 78.8 151.1 L 76.0 159.3 L 72.7 166.7 L 68.8 173.5 L 64.4 179.4 L 59.3 184.5 L 53.7 188.6 L 52.6 187.3 L 56.5 182.0 L 60.0 176.3 L 63.1 170.3 L 65.7 163.7 L 68.0 156.6 L 69.7 148.9 L 71.1 140.6 L 71.9 131.7 L 72.3 122.1 L 72.3 78.0 L 84.3 84.0 L 162.9181818008423 84.0 L 171.1 75.0 L 181.1 84.0 L 181.1 88.0 L 84.3 88.0 L 84.3 112.0 L 83.7 122.7 L 83.66732673645019 123.0 L 160.7 123.0 L 170.7 113.0 L 182.7 123.0 L 182.7 127.0 L 127.21750001907348 127.0 L 130.6 133.6 L 134.9 140.8 L 139.3 147.3 L 144.1 153.1 L 144.1872727394104 153.1872727394104 L 144.9 152.5 L 147.4 149.5 L 149.8 146.8 L 152.2 144.2 L 154.5 141.6 L 156.7 139.2 L 158.8 136.8 L 160.9 134.5 L 162.8 132.3 L 163.91119136810303 131.00361013412476 L 163.8 130.9 L 164.8 130.0 L 172.6 139.1 L 173.2 142.6 L 169.1941903114319 141.3839506149292 L 167.7 142.4 L 165.1 144.1 L 162.3 145.8 L 159.4 147.6 L 156.4 149.4 L 153.3 151.2 L 150.0 153.0 L 146.6 154.7 L 146.0333333015442 155.0333333015442 L 149.2 158.2 L 154.6 162.5 L 160.5 166.2 L 166.7 169.3 L 173.3 171.7 L 180.4 173.6 L 188.8 175.7 L 177.1 186.3 L 169.0 183.5 Z M 36.6 186.9 L 32.5 184.8 L 31.1 180.5 L 31.6 173.5 L 31.7 167.0 L 31.2 161.2 L 30.3 156.0 L 28.8 151.4 L 27.489549160003662 148.5032138824463 L 27.1 148.4 L 27.265925884246826 148.00888891220092 L 26.9 147.2 L 24.5 143.5 L 21.5 140.1 L 17.8 137.0 L 13.5 134.1 L 14.0 132.4 L 19.5 133.6 L 24.6 135.8 L 29.2 138.9 L 30.588461494445802 140.2884614944458 L 32.8 135.6 L 35.9 129.1 L 39.5 121.5 L 43.8 112.8 L 48.7 102.9 L 54.3 91.9 L 60.7 79.8 L 67.8 66.6 L 69.4 67.3 L 64.1 81.3 L 59.2 94.1 L 54.7 105.6 L 50.7 115.8 L 47.3 124.9 L 44.4 132.7 L 42.1 139.3 L 40.4 144.7 L 39.3 148.8 L 38.8 151.5 L 38.22424945831299 151.34745073318481 L 39.1 153.2 L 41.1 159.3 L 42.4 166.1 L 43.0 173.5 L 43.0 181.4 L 40.9 185.5 Z M 107.8 127.0 L 107.8 168.94444446563722 L 111.6 168.1 L 124.4 165.1 L 130.8 163.7 L 137.3 162.3 L 140.21144275665284 161.7706467628479 L 137.5 158.3 L 133.2 151.2 L 129.6 143.5 L 126.8 135.2 L 124.9777777671814 127.0 Z M 170.9 103.0 L 170.9 107.0 L 90.1 107.0 L 90.1 103.0 L 152.71818180084227 103.0 L 160.9 94.0 Z M 31.5 83.4 L 30.2 81.4 L 28.5 79.3 L 26.6 77.3 L 24.3 75.2 L 21.7 73.2 L 18.8 71.1 L 15.6 68.9 L 11.9 67.1 L 12.5 65.4 L 16.5 66.4 L 20.5 67.2 L 24.2 68.2 L 27.7 69.5 L 30.9 71.0 L 34.0 72.6 L 36.8 74.5 L 39.3 76.6 L 41.7 78.9 L 43.7 81.4 L 44.2 86.0 L 41.4 89.6 L 36.8 90.0 L 33.2 87.2 L 32.5 85.3 Z M 94.5 22.0 L 155.5 22.0 L 161.5 17.0 L 172.5 26.0 L 167.5 30.0 L 167.5 69.0 L 155.5 75.0 L 155.5 69.0 L 94.5 69.0 L 82.5 75.0 L 82.5 16.0 Z M 94.5 47.0 L 94.5 65.0 L 155.5 65.0 L 155.5 47.0 Z M 45.2 37.4 L 43.8 35.4 L 42.2 33.3 L 40.3 31.3 L 38.1 29.2 L 35.6 27.1 L 32.9 25.0 L 30.0 22.9 L 26.6 21.1 L 27.2 19.4 L 31.0 20.4 L 34.7 21.2 L 38.2 22.3 L 41.6 23.6 L 44.7 25.0 L 47.6 26.7 L 50.4 28.5 L 53.0 30.6 L 55.3 32.8 L 57.4 35.3 L 58.1 39.8 L 55.4 43.5 L 50.9 44.2 L 47.2 41.5 L 46.3 39.5 Z M 94.5 26.0 L 94.5 43.0 L 155.5 43.0 L 155.5 26.0 Z " />
</g>
</svg>
