<svg xmlns="http://www.w3.org/2000/svg" xmlns:xlink="http://www.w3.org/1999/xlink" version="1.1" baseProfile="full" viewBox="0 0 200 200" width="200" height="200">
<g fill="black">
<path d="M 174.6177339553833 155.92610836029053 L 170.0 159.4 L 163.0 152.6 L 156.8 144.9 L 151.5 136.3 L 147.1 127.0 L 143.6 116.9 L 140.9 105.9 L 139.0 94.3 L 138.6550458908081 89.98807334899902 L 136.6 99.3 L 132.4 112.4 L 127.0 124.2 L 120.4 134.6 L 112.7 143.5 L 103.9 151.0 L 94.0 156.8 L 83.1 160.9 L 82.5 159.2 L 92.1 153.5 L 100.5 146.8 L 107.8 139.1 L 114.1 130.3 L 119.4 120.4 L 123.6 109.3 L 126.9 96.9 L 129.1 83.2 L 130.4 68.3 L 130.6 52.0 L 130.6 16.3 L 142.6 18.3 L 145.6 20.3 L 142.6 22.1 L 142.6 52.0 L 141.86425256729126 65.89745073318481 L 142.1 68.4 L 143.8770131111145 81.03653774261474 L 145.5 79.2 L 148.9 75.1 L 152.2 71.3 L 155.3 67.7 L 158.1 64.3 L 160.6 61.2 L 162.8 58.2 L 164.8 55.5 L 166.5 53.0 L 167.38087463378906 51.55284881591797 L 167.3 51.5 L 167.70281686782837 51.02394361495972 L 167.9 50.7 L 167.9463641166687 50.73611516952515 L 168.4 50.2 L 177.4 58.1 L 178.6 61.5 L 174.44121932983398 60.998078155517575 L 172.7 62.6 L 170.0 65.0 L 167.0 67.5 L 163.7 70.1 L 160.2 72.9 L 156.4 75.8 L 152.2 78.7 L 147.7 81.7 L 144.4076108932495 83.82633466720581 L 146.2 93.1 L 149.0 103.9 L 152.4 113.8 L 156.4 122.7 L 161.0 130.7 L 166.2 137.7 L 171.9 143.9 L 176.5774245262146 147.7607313156128 L 177.0 146.0 L 179.0 146.0 L 178.71966524124144 149.50418405532838 L 180.9 151.2 L 178.435689163208 153.0538851737976 L 177.0 171.0 L 180.6 173.4 L 183.0 177.0 L 180.6 180.6 L 177.0 183.0 L 80.0 183.0 L 77.4 182.8 L 74.9 182.4 L 72.5 181.6 L 70.2 180.3 L 68.2 178.7 L 66.6 176.7 L 65.3 174.4 L 64.5 172.0 L 64.1 169.5 L 64.0 167.0 L 64.0 110.0 L 60.23691272735596 110.0 L 58.0 120.1 L 54.2 133.7 L 49.7 145.9 L 44.5 156.8 L 38.7 166.3 L 32.3 174.4 L 25.1 180.9 L 17.4 185.7 L 16.5 184.2 L 22.6 178.1 L 28.1 171.0 L 33.2 162.9 L 37.7 153.5 L 41.7 143.0 L 45.2 131.1 L 48.2 117.9 L 49.562068939208984 110.0 L 36.0 110.0 L 36.0 122.0 L 24.0 128.0 L 24.0 67.38478260040283 L 20.7 70.9 L 15.6 75.5 L 14.3 74.4 L 17.7 68.6 L 20.9 62.9 L 23.9 57.4 L 26.7 51.9 L 29.1 46.5 L 31.3 41.1 L 33.1 35.7 L 34.7 30.4 L 35.9 25.0 L 36.711074924468996 20.701302909851073 L 36.7 20.7 L 36.79473686218262 20.257894706726074 L 36.9 19.7 L 36.91368417739868 19.70280704498291 L 37.3 17.9 L 48.6 22.1 L 51.2 24.7 L 47.48062973022461 25.984873390197755 L 46.9 28.0 L 44.9 33.7 L 43.51052627563477 37.0 L 66.0 37.0 L 72.0 32.0 L 83.0 41.0 L 78.0 44.0 L 76.18140840530396 44.7577465057373 L 75.2 47.4 L 73.6 50.8 L 72.0 54.1 L 70.3 57.2 L 68.4 60.2 L 66.4 63.0 L 64.2 65.6 L 61.9 68.0 L 61.019999980926514 69.0 L 84.0 69.0 L 90.0 64.0 L 101.0 73.0 L 96.0 77.0 L 96.0 116.0 L 84.0 122.0 L 84.0 110.0 L 76.0 110.0 L 76.0 168.2 L 76.2 169.1 L 76.5 170.0 L 76.9 170.4 L 77.8 170.7 L 78.7 170.9 L 80.0 171.0 L 171.0 171.0 Z M 36.0 73.0 L 36.0 106.0 L 50.25172414779663 106.0 L 50.7 103.4 L 52.6 87.6 L 53.743373489379884 73.0 Z M 65.71818180084229 73.0 L 63.9 89.0 L 61.3 105.2 L 61.12281875610351 106.0 L 84.0 106.0 L 84.0 73.0 Z M 102.8 92.1 L 100.9 88.0 L 102.5 83.6 L 104.1 82.2 L 105.6 80.3 L 107.0 77.9 L 108.3 75.1 L 109.3 71.7 L 110.2 67.9 L 110.8 63.7 L 111.3 59.0 L 111.5 53.8 L 111.4 48.2 L 113.2 47.9 L 114.7 53.4 L 116.0 58.6 L 116.8 63.6 L 117.2 68.3 L 117.3 72.8 L 117.0 77.1 L 116.2 81.1 L 115.1 85.0 L 113.4 88.5 L 111.3 91.8 L 107.1 93.7 Z M 41.71454544067383 41.0 L 39.8 44.9 L 36.7 50.4 L 33.2 55.7 L 29.5 60.9 L 26.67083330154419 64.33541669845582 L 36.0 69.0 L 58.38571424484253 69.0 L 59.5 66.6 L 60.5 63.5 L 62.3 57.3 L 63.1 54.2 L 63.9 51.0 L 64.6 47.8 L 65.1 44.5 L 65.7 41.1 L 65.71142854690552 41.0 Z " />
</g>
</svg>
