<svg xmlns="http://www.w3.org/2000/svg" xmlns:xlink="http://www.w3.org/1999/xlink" version="1.1" baseProfile="full" viewBox="0 0 200 200" width="200" height="200">
<g fill="black">
<path d="M 157.5 179.9 L 148.9 174.9 L 141.1 169.0 L 134.0 162.3 L 133.49502830505372 161.6988431930542 L 127.4 166.6 L 116.8 173.3 L 105.2 178.9 L 92.7 183.4 L 79.2 186.7 L 64.8 188.8 L 64.5 187.1 L 78.2 183.0 L 90.8 178.3 L 102.4 172.9 L 112.9 166.8 L 122.3 159.8 L 127.72372884750366 154.8282485961914 L 127.7 154.8 L 122.3 146.5 L 117.6 137.5 L 113.9 127.7 L 112.50737571716309 122.0759404182434 L 110.5 125.6 L 105.6 133.0 L 100.5 139.8 L 95.0 146.0 L 89.2 151.6 L 83.0 156.5 L 77.29291458129883 160.18765525817872 L 77.2 160.9 L 73.7 163.8 L 69.2 163.3 L 66.3 159.8 L 65.5 156.7 L 64.5 153.4 L 63.2 150.0 L 61.6 146.4 L 59.7 142.7 L 57.5 139.0 L 55.1 135.0 L 52.4 131.0 L 49.44139385223389 126.75933113098145 L 48.7 130.5 L 45.9 140.9 L 42.2 150.5 L 37.9 159.3 L 32.7 167.3 L 26.9 174.4 L 20.2 180.5 L 12.9 185.7 L 11.8 184.2 L 17.6 177.8 L 22.7 171.0 L 27.2 163.7 L 31.1 155.9 L 34.3 147.4 L 36.9 138.3 L 38.9 128.5 L 40.2 118.0 L 40.9 106.9 L 40.9 17.0 L 52.9 19.0 L 55.9 21.0 L 52.9 22.8 L 52.9 73.36206893920898 L 55.4 70.0 L 58.2 66.3 L 60.9 62.8 L 63.4 59.5 L 65.8 56.3 L 68.0 53.3 L 70.1 50.5 L 71.47089214324951 48.55189008712769 L 71.4 48.5 L 72.4 47.3 L 81.1 55.6 L 82.0 59.1 L 78.12692308425903 58.42051286697388 L 75.9 60.4 L 73.1 63.0 L 70.0 65.7 L 66.8 68.4 L 63.4 71.3 L 59.8 74.3 L 56.0 77.3 L 52.9 79.5880952835083 L 52.9 95.0 L 52.3 107.5 L 50.9 119.4 L 50.178972244262695 123.037912940979 L 51.9 124.3 L 56.1 127.6 L 59.9 131.0 L 63.3 134.5 L 66.5 138.1 L 69.3 141.6 L 71.9 145.3 L 74.2 148.9 L 76.1 152.6 L 77.8 156.3 L 77.7526785850525 156.66279764175414 L 80.5 153.7 L 85.3 147.9 L 89.9 141.8 L 94.3 135.3 L 98.5 128.4 L 102.4 121.1 L 106.0 113.3 L 109.4 105.1 L 112.5 96.3 L 114.09726028442383 91.0 L 78.0 91.0 L 78.0 87.0 L 125.3 87.0 L 125.3 65.0 L 87.2 65.0 L 87.2 61.0 L 125.3 61.0 L 125.3 39.0 L 83.1 39.0 L 83.1 35.0 L 125.3 35.0 L 125.3 13.0 L 137.3 15.0 L 140.3 17.0 L 137.3 18.8 L 137.3 35.0 L 157.5 35.0 L 167.5 25.0 L 179.5 35.0 L 179.5 39.0 L 137.3 39.0 L 137.3 61.0 L 153.4 61.0 L 163.4 51.0 L 175.4 61.0 L 175.4 65.0 L 137.3 65.0 L 137.3 87.0 L 163.6 87.0 L 173.6 77.0 L 185.6 87.0 L 185.6 91.0 L 126.62421054840088 91.0 L 123.1 100.3 L 119.2 109.2 L 117.32235298156738 113.0 L 154.0 113.0 L 160.0 108.0 L 171.0 117.0 L 166.0 120.0 L 163.84457931518554 120.89809188842773 L 160.1 129.0 L 153.5 140.0 L 145.8 149.9 L 140.3592384338379 155.4658366203308 L 140.5 155.6 L 147.3 160.9 L 154.7 165.4 L 162.5 169.2 L 171.0 172.2 L 180.0 174.5 L 188.6 176.6 L 176.9 187.4 L 166.8 184.1 Z M 115.34588232040406 117.0 L 115.0 117.7 L 114.23465976715087 119.04359741210938 L 117.8 126.1 L 122.8 134.7 L 128.3 142.5 L 133.5106951713562 148.78877000808717 L 138.0 143.5 L 144.4 134.2 L 149.9 123.9 L 152.6972972869873 117.0 Z M 15.9 108.5 L 13.3 104.7 L 14.1 100.2 L 16.0 97.4 L 17.7 94.3 L 19.2 90.7 L 20.5 86.8 L 21.5 82.4 L 22.4 77.5 L 22.9 72.3 L 23.3 66.7 L 23.6 60.6 L 23.7 54.1 L 25.5 53.8 L 27.3 60.2 L 28.7 66.3 L 29.5 72.2 L 29.9 77.9 L 30.0 83.3 L 29.6 88.4 L 28.9 93.4 L 27.7 98.0 L 26.2 102.5 L 24.2 106.6 L 20.4 109.2 Z " />
</g>
</svg>
