<svg xmlns="http://www.w3.org/2000/svg" xmlns:xlink="http://www.w3.org/1999/xlink" version="1.1" baseProfile="full" viewBox="0 0 200 200" width="200" height="200">
<g fill="black">
<path d="M 137.5 134.2 L 140.5 136.2 L 137.5 138.0 L 137.5 148.7 L 163.0 148.7 L 173.0 138.7 L 185.0 148.7 L 185.0 152.7 L 137.5 152.7 L 137.5 182.1 L 125.5 188.1 L 125.5 152.7 L 77.9 152.7 L 77.9 148.7 L 125.5 148.7 L 125.5 132.2 Z M 65.1 153.4 L 63.8 149.9 L 62.3 146.4 L 60.4 142.7 L 58.2 138.9 L 55.8 135.0 L 53.1 130.9 L 50.19401712417603 126.83162393569947 L 49.5 130.5 L 46.6 140.9 L 43.0 150.5 L 38.7 159.3 L 33.6 167.3 L 27.7 174.4 L 21.1 180.5 L 13.8 185.7 L 12.7 184.2 L 18.5 177.8 L 23.6 171.0 L 28.0 163.7 L 31.9 155.9 L 35.1 147.4 L 37.7 138.3 L 39.6 128.5 L 41.0 118.1 L 41.6 106.9 L 41.7 95.0 L 41.7 17.0 L 53.7 19.0 L 56.7 21.0 L 53.7 22.8 L 53.7 73.11999998092651 L 56.1 70.0 L 58.9 66.3 L 61.5 62.8 L 64.0 59.5 L 66.4 56.3 L 68.6 53.3 L 70.7 50.5 L 71.99119720458984 48.66514081954956 L 71.9 48.6 L 73.0 47.3 L 81.7 55.6 L 82.6 59.1 L 78.72692308425903 58.42051286697388 L 76.5 60.4 L 73.7 63.0 L 70.7 65.7 L 67.5 68.4 L 64.1 71.3 L 60.5 74.3 L 56.7 77.3 L 53.7 79.56829271316528 L 53.7 95.0 L 53.0 107.5 L 51.6 119.4 L 50.91242599487305 123.03431949615478 L 52.6 124.3 L 56.8 127.6 L 60.5 131.0 L 64.0 134.5 L 67.1 138.1 L 70.0 141.7 L 72.5 145.3 L 74.8 148.9 L 76.7 152.6 L 78.4 156.3 L 77.8 160.9 L 74.3 163.8 L 69.8 163.3 L 66.9 159.8 L 66.1 156.7 Z M 124.9 76.2 L 126.1 79.6 L 122.26314573287964 79.20308408737182 L 121.3 80.3 L 117.5 84.4 L 113.6 88.3 L 110.4 91.26585369110107 L 110.4 134.6 L 98.4 140.6 L 98.4 101.1 L 96.1 102.8 L 91.2 106.1 L 86.1 109.1 L 80.8 111.8 L 79.7 110.3 L 83.8 106.0 L 87.9 101.9 L 91.8 97.8 L 95.6 93.8 L 98.4 90.69729728698731 L 98.4 89.4 L 99.5625 89.4 L 102.8 85.7 L 106.2 81.6 L 109.4 77.4 L 112.4 73.2 L 114.64713954925537 69.82929058074951 L 114.6 69.8 L 115.03999996185303 69.23999996185303 L 115.2 69.0 L 115.21804647445678 69.01339530944824 L 115.7 68.4 Z M 182.0 110.3 L 184.0 110.3 L 182.0 127.3 L 185.0 129.3 L 187.0 132.3 L 185.0 135.3 L 182.0 137.3 L 146.9 137.3 L 144.5 136.9 L 142.2 136.3 L 140.0 135.2 L 138.0 133.7 L 136.3 131.8 L 135.0 129.6 L 134.1 127.3 L 133.6 124.8 L 133.4 122.3 L 133.4 116.38405799865723 L 131.7 117.0 L 124.8 119.1 L 117.9 120.7 L 111.0 121.7 L 110.5 120.0 L 116.7 117.1 L 123.0 114.1 L 129.2 110.9 L 133.4 108.66451616287232 L 133.4 71.0 L 145.4 73.0 L 148.4 75.0 L 145.4 76.8 L 145.4 101.80793647766113 L 147.9 100.3 L 154.1 96.2 L 160.3 91.9 L 166.5 87.2 L 171.9168420791626 82.9189474105835 L 171.9 82.9 L 172.7 82.3 L 179.9 91.9 L 180.1 95.5 L 176.65376882553102 94.09597988128662 L 173.1 96.5 L 166.2 100.8 L 159.3 104.8 L 152.4 108.4 L 145.5 111.6 L 145.4 111.64202899932862 L 145.4 122.3 L 145.3 123.5 L 145.4 124.5 L 145.5 125.2 L 145.6 125.6 L 146.0 126.2 L 146.4 126.5 L 147.0 126.9 L 148.0 127.1 L 149.4 127.3 L 177.0 127.3 Z M 16.8 108.5 L 14.2 104.7 L 15.0 100.2 L 16.9 97.5 L 18.6 94.3 L 20.1 90.7 L 21.3 86.8 L 22.4 82.4 L 23.2 77.5 L 23.8 72.3 L 24.2 66.7 L 24.4 60.6 L 24.6 54.1 L 26.3 53.8 L 28.2 60.2 L 29.5 66.3 L 30.4 72.2 L 30.8 77.9 L 30.8 83.3 L 30.5 88.4 L 29.7 93.4 L 28.6 98.0 L 27.1 102.5 L 25.1 106.6 L 21.3 109.2 Z M 104.2 17.7 L 158.7 17.7 L 164.7 12.7 L 175.7 21.7 L 170.7 25.7 L 170.7 68.3 L 158.7 74.3 L 158.7 64.3 L 104.2 64.3 L 104.2 71.3 L 92.2 77.3 L 92.2 11.7 Z M 104.2 43.0 L 104.2 60.3 L 158.7 60.3 L 158.7 43.0 Z M 104.2 21.7 L 104.2 39.0 L 158.7 39.0 L 158.7 21.7 Z " />
</g>
</svg>
