<svg xmlns="http://www.w3.org/2000/svg" xmlns:xlink="http://www.w3.org/1999/xlink" version="1.1" baseProfile="full" viewBox="0 0 200 200" width="200" height="200">
<g fill="black">
<path d="M 149.1 164.2 L 136.9 151.6 L 125.9250410079956 138.15320339202881 L 122.6 142.1 L 109.0 155.3 L 94.2 167.3 L 78.2 177.7 L 61.0 186.7 L 60.1 185.2 L 76.1 174.6 L 90.9 163.0 L 104.5 150.6 L 116.9 137.0 L 121.24769010543824 131.33247537612914 L 115.9 123.5 L 107.2 108.1 L 99.6 91.7 L 93.2 74.4 L 88.1 56.2 L 84.5 37.1 L 86.2 36.7 L 92.2 55.1 L 98.8 72.4 L 106.2 88.7 L 114.5 104.0 L 123.7 118.4 L 127.43374509811402 123.26851081848145 L 128.1 122.4 L 138.0 106.7 L 146.8 89.9 L 154.5 71.9 L 160.9 52.8 L 166.2 32.5 L 166.22110004425048 32.50504961013794 L 166.6 30.8 L 177.9 35.3 L 180.3 38.0 L 176.795840549469 39.083103847503665 L 171.8 56.2 L 164.4 75.9 L 155.8 94.4 L 146.0 111.5 L 134.9 127.5 L 132.69040031433104 130.12277688980103 L 133.9 131.7 L 145.0 144.1 L 157.0 155.5 L 170.1 165.9 L 184.1 175.4 L 187.9 177.9 L 176.9 186.5 L 162.4 175.8 Z M 13.9 148.9 L 19.9 147.4 L 25.9 145.8 L 32.1 144.1 L 38.1 142.4125 L 38.1 90.0 L 16.8 90.0 L 16.8 86.0 L 38.1 86.0 L 38.1 38.0 L 14.7 38.0 L 14.7 34.0 L 56.7 34.0 L 66.7 24.0 L 78.7 34.0 L 78.7 38.0 L 50.1 38.0 L 50.1 86.0 L 54.6 86.0 L 64.6 76.0 L 76.6 86.0 L 76.6 90.0 L 50.1 90.0 L 50.1 138.82424240112306 L 51.5 138.4 L 58.2 136.3 L 65.1 134.2 L 72.1 132.1 L 79.4 130.1 L 80.1 131.8 L 73.6 135.6 L 67.1 139.2 L 60.6 142.4 L 54.2 145.5 L 47.9 148.4 L 41.6 151.1 L 35.4 153.6 L 29.3 156.0 L 23.3 158.3 L 21.217274951934815 159.02895374298095 L 20.1 162.7 L 17.3 160.4 L 12.0 149.5 Z M 124.2 42.8 L 123.5 39.6 L 122.6 36.4 L 121.4 33.1 L 120.0 29.7 L 118.4 26.2 L 116.5 22.6 L 114.4 18.9 L 111.8 15.3 L 113.1 14.0 L 120.1 19.8 L 123.1 22.8 L 125.9 26.0 L 128.4 29.2 L 130.6 32.6 L 132.6 36.1 L 134.3 39.6 L 135.7 43.3 L 136.7 47.1 L 135.6 51.5 L 131.7 53.9 L 127.3 52.8 L 124.9 48.9 L 124.7 45.9 Z " />
</g>
</svg>
