<svg xmlns="http://www.w3.org/2000/svg" xmlns:xlink="http://www.w3.org/1999/xlink" version="1.1" baseProfile="full" viewBox="0 0 200 200" width="200" height="200">
<g fill="black">
<path d="M 146.7 179.9 L 131.9 174.8 L 119.1 166.9 L 108.4 156.2 L 99.8 143.0 L 99.10918502807617 141.34204397201538 L 91.4 153.4 L 82.8 163.8 L 73.4 172.4 L 63.2 179.1 L 52.4 183.8 L 51.7 182.1 L 61.2 175.9 L 69.9 168.4 L 77.8 159.5 L 85.1 149.2 L 91.7 137.2 L 94.60947217941285 130.54273319244385 L 93.3 127.4 L 88.8 109.3 L 86.3 88.9 L 86.16364326477051 78.4914358139038 L 83.8 86.8 L 80.1 97.6 L 75.8 107.7 L 71.0 116.9 L 65.7 125.1 L 59.7 132.5 L 58.3 131.4 L 62.4 123.2 L 66.2 114.5 L 69.7 105.2 L 72.9 95.2 L 75.6 84.6 L 78.0 73.2 L 79.9 61.2 L 81.4 48.4 L 82.5 34.9 L 83.15111093521118 21.59873275756836 L 83.1 21.6 L 83.3 18.4 L 95.2 21.3 L 98.1 23.4 L 94.86337518692017 25.080555152893066 L 93.9 35.9 L 92.1 49.7 L 91.69924240112304 52.0 L 114.2 52.0 L 120.2 47.0 L 131.2 56.0 L 126.2 59.0 L 125.33675889968872 59.35968379974365 L 122.3 75.4 L 117.7 94.4 L 112.3 111.6 L 106.2 127.3 L 103.71492958068848 132.23463973999023 L 107.0 138.9 L 115.4 150.2 L 125.2 158.7 L 136.4 164.7 L 149.1 168.3 L 163.6 169.6 L 179.9 168.4 L 190.2 167.2 L 181.5 181.5 L 163.3 182.1 Z M 13.4 149.0 L 18.4 147.5 L 23.5 145.9 L 28.8 144.2 L 33.3 142.7 L 33.3 90.0 L 16.2 90.0 L 16.2 86.0 L 33.3 86.0 L 33.3 38.0 L 14.4 38.0 L 14.4 34.0 L 46.7 34.0 L 56.7 24.0 L 68.7 34.0 L 68.7 38.0 L 45.3 38.0 L 45.3 86.0 L 48.71818180084229 86.0 L 56.9 77.0 L 66.9 86.0 L 66.9 90.0 L 45.3 90.0 L 45.3 138.5 L 51.0 136.4 L 56.9 134.3 L 62.9 132.2 L 69.2 130.1 L 70.0 131.8 L 64.6 135.6 L 59.2 139.1 L 53.8 142.4 L 48.4 145.4 L 43.0 148.3 L 37.8 151.0 L 32.6 153.5 L 27.4 155.9 L 22.3 158.2 L 21.185329914093018 158.6681613922119 L 20.2 162.5 L 17.3 160.3 L 11.5 149.6 Z M 169.4 97.8 L 167.4 93.6 L 165.1 89.3 L 162.5 85.0 L 159.6 80.6 L 156.4 76.2 L 152.9 71.7 L 149.2 67.1 L 148.7 66.5 L 148.7 152.0 L 136.7 158.0 L 136.7 19.0 L 148.7 21.0 L 151.7 23.0 L 148.7 24.8 L 148.7 62.375471687316896 L 151.7 64.3 L 156.7 67.9 L 161.2 71.7 L 165.4 75.7 L 169.3 79.8 L 172.8 84.1 L 176.0 88.4 L 178.9 92.8 L 181.5 97.4 L 183.7 102.0 L 183.5 106.6 L 180.2 109.8 L 175.6 109.5 L 172.5 106.2 L 171.1 102.0 Z M 91.00227270126342 56.0 L 89.8 62.9 L 88.2741379737854 69.85114946365357 L 90.5 88.4 L 94.5 108.1 L 98.66363639831543 120.59090909957885 L 102.8 108.5 L 107.3 91.7 L 111.2 73.2 L 113.85273628234863 56.0 Z " />
</g>
</svg>
