<svg xmlns="http://www.w3.org/2000/svg" xmlns:xlink="http://www.w3.org/1999/xlink" version="1.1" baseProfile="full" viewBox="0 0 200 200" width="200" height="200">
<g fill="black">
<path d="M 115.0 106.0 L 118.0 108.0 L 115.0 109.8 L 115.0 124.0 L 114.2 133.4 L 112.6 142.3 L 110.1 150.6 L 106.8 158.2 L 102.5 165.2 L 97.5 171.5 L 91.6 177.0 L 84.9 181.8 L 77.5 185.7 L 69.3 188.8 L 68.6 187.1 L 75.6 182.4 L 81.8 177.5 L 87.1 172.2 L 91.6 166.7 L 95.4 160.7 L 98.3 154.3 L 100.6 147.5 L 102.1 140.2 L 102.9 132.3 L 103.0 124.0 L 103.0 104.0 Z M 155.0 106.0 L 158.0 108.0 L 155.0 109.8 L 155.0 181.0 L 143.0 187.0 L 143.0 104.0 Z M 13.1 148.9 L 18.8 147.4 L 24.6 145.8 L 30.5 144.1 L 36.0 142.45 L 36.0 90.0 L 16.0 90.0 L 16.0 86.0 L 36.0 86.0 L 36.0 38.0 L 14.0 38.0 L 14.0 34.0 L 53.0 34.0 L 63.0 24.0 L 75.0 34.0 L 75.0 38.0 L 48.0 38.0 L 48.0 86.0 L 51.0 86.0 L 61.0 76.0 L 73.0 86.0 L 73.0 90.0 L 48.0 90.0 L 48.0 138.69032258987426 L 48.9 138.4 L 55.3 136.3 L 61.9 134.2 L 68.6 132.2 L 75.6 130.1 L 76.3 131.8 L 70.2 135.6 L 64.0 139.2 L 57.9 142.4 L 51.8 145.5 L 45.7 148.3 L 39.8 151.0 L 33.9 153.6 L 28.1 156.0 L 22.3 158.3 L 20.57200002670288 158.94799995422363 L 19.5 162.7 L 16.7 160.4 L 11.2 149.5 Z M 165.4 112.4 L 160.3 108.5 L 155.6 104.2 L 151.1 99.5 L 146.9 94.5 L 143.0 89.0 L 139.4 83.2 L 136.3 77.0 L 133.97164182662965 71.0 L 118.61999998092651 71.0 L 116.1 77.3 L 110.9 87.2 L 104.8 96.6 L 97.7 105.4 L 89.6 113.5 L 80.5 121.0 L 70.5 127.7 L 69.4 126.2 L 78.0 118.1 L 85.7 109.8 L 92.6 101.2 L 98.5 92.4 L 103.5 83.2 L 107.5 73.7 L 108.37272729873658 71.0 L 75.0 71.0 L 75.0 67.0 L 109.66565656661987 67.0 L 110.7 63.8 L 113.0 53.5 L 114.4 42.9 L 114.71034479141235 37.106896591186526 L 107.0 37.7 L 97.8 38.2 L 88.5 38.3 L 79.0 38.1 L 78.9 36.3 L 88.1 34.5 L 97.2 32.9 L 106.2 31.2 L 115.0 29.5 L 123.7 27.7 L 132.3 25.7 L 140.7 23.7 L 149.0 21.5 L 157.1 19.1 L 165.1 16.6 L 165.4936984062195 17.98390941619873 L 175.3 26.2 L 175.6 29.3 L 171.41370677947998 27.326461791992188 L 168.4 28.2 L 160.0 30.1 L 151.4 31.9 L 142.8 33.5 L 134.0 34.9 L 126.53777017593384 35.82229804992676 L 125.7 44.2 L 123.5 55.7 L 120.3 66.8 L 120.21999998092652 67.0 L 162.0 67.0 L 172.0 57.0 L 184.0 67.0 L 184.0 71.0 L 136.58867921829224 71.0 L 139.8 74.7 L 144.2 79.8 L 148.6 84.5 L 153.1 88.9 L 157.6 92.8 L 162.2 96.4 L 166.9 99.6 L 171.7 102.4 L 176.6 104.8 L 181.6 106.9 L 187.7 109.6 L 176.3 119.0 L 170.7 115.9 Z " />
</g>
</svg>
