<svg xmlns="http://www.w3.org/2000/svg" xmlns:xlink="http://www.w3.org/1999/xlink" version="1.1" baseProfile="full" viewBox="0 0 200 200" width="200" height="200">
<g fill="black">
<path d="M 93.5 26.0 L 157.7 26.0 L 163.7 21.0 L 174.7 30.0 L 169.7 33.0 L 169.6869649887085 33.00543127059937 L 169.6 66.4 L 170.1 97.8 L 171.0 122.7 L 172.4 141.9 L 174.2 156.1 L 176.3 165.9 L 178.12937364578247 170.80604753494262 L 182.7 151.0 L 184.7 151.0 L 182.79433965682983 175.7735849380493 L 183.7 176.0 L 187.6 178.5 L 188.6 182.9 L 186.2 186.8 L 181.7 187.9 L 176.8 186.4 L 171.8 182.9 L 167.8 177.2 L 164.8 169.1 L 162.4 158.1 L 160.5 143.1 L 159.0 123.3 L 158.1 98.1 L 157.6 66.5 L 157.6 30.0 L 93.5 30.0 L 93.5 82.0 L 92.9 98.6 L 91.5 113.9 L 89.4 128.0 L 86.5 140.8 L 82.9 152.3 L 78.6 162.5 L 73.4 171.3 L 67.5 178.7 L 60.8 184.5 L 53.5 188.7 L 52.5 187.2 L 58.3 181.7 L 63.4 175.3 L 67.8 167.9 L 71.6 159.4 L 74.9 149.6 L 77.5 138.7 L 79.5 126.4 L 80.8 112.9 L 81.5 98.1 L 81.5 20.0 Z M 13.1 148.9 L 18.8 147.4 L 24.6 145.8 L 30.5 144.1 L 36.0 142.45 L 36.0 90.0 L 16.0 90.0 L 16.0 86.0 L 36.0 86.0 L 36.0 38.0 L 14.0 38.0 L 14.0 34.0 L 53.0 34.0 L 63.0 24.0 L 75.0 34.0 L 75.0 38.0 L 48.0 38.0 L 48.0 86.0 L 51.0 86.0 L 61.0 76.0 L 73.0 86.0 L 73.0 90.0 L 48.0 90.0 L 48.0 138.69032258987426 L 48.9 138.4 L 55.3 136.3 L 61.9 134.2 L 68.6 132.2 L 75.6 130.1 L 76.3 131.8 L 70.2 135.6 L 64.0 139.2 L 57.9 142.4 L 51.8 145.5 L 45.7 148.3 L 39.8 151.0 L 33.9 153.6 L 28.1 156.0 L 22.3 158.3 L 20.57200002670288 158.94799995422363 L 19.5 162.7 L 16.7 160.4 L 11.2 149.5 Z M 136.9 131.7 L 133.8 122.9 L 130.1 113.9 L 127.14544363021851 107.19820146560669 L 124.2 112.5 L 117.7 122.8 L 110.8 132.6 L 103.4 141.9 L 95.4 150.6 L 87.0 158.6 L 85.7 157.3 L 92.5 148.1 L 99.1 138.6 L 105.3 128.9 L 111.2 118.8 L 116.8 108.4 L 121.9 97.6 L 122.19560260772705 96.91026058197022 L 121.3 95.1 L 116.1 85.4 L 110.5 75.3 L 104.5 65.0 L 98.1 54.3 L 99.5 53.2 L 107.6 62.8 L 115.0 72.4 L 121.7 81.9 L 125.88219747543334 88.30820579528809 L 126.7 86.4 L 131.0 74.7 L 135.0 62.7 L 138.3113359451294 51.20230560302734 L 138.3 51.2 L 138.4875 50.590625 L 138.6 50.2 L 138.60705089569092 50.202084636688234 L 139.1 48.6 L 150.1 53.6 L 152.4 56.4 L 148.85161294937134 57.28709678649902 L 145.8 66.3 L 141.0 78.6 L 135.9 90.3 L 131.97024393081665 98.15951223373413 L 133.5 100.7 L 138.5 109.9 L 143.0 119.0 L 147.0 128.0 L 150.4 136.8 L 153.2 145.5 L 152.6 150.0 L 149.0 152.9 L 144.5 152.2 L 141.6 148.6 L 139.5 140.3 Z M 169.69739637374877 28.999784851074217 L 169.7 29.0 L 169.7 28.0 Z " />
</g>
</svg>
