<svg xmlns="http://www.w3.org/2000/svg" xmlns:xlink="http://www.w3.org/1999/xlink" version="1.1" baseProfile="full" viewBox="0 0 200 200" width="200" height="200">
<g fill="black">
<path d="M 155.6 179.4 L 146.0 175.4 L 137.3 170.8 L 129.9832631111145 165.89130306243896 L 121.9 170.6 L 110.8 175.8 L 99.0 180.2 L 86.4 183.7 L 73.1 186.2 L 59.0 187.8 L 58.7 186.1 L 72.2 182.5 L 84.9 178.5 L 96.7 174.0 L 107.6 168.9 L 117.7 163.3 L 122.82195224761963 159.79257621765137 L 122.6 159.6 L 116.8 153.1 L 112.0 146.0 L 108.4 138.4 L 107.39590368270873 134.82017822265624 L 103.2 139.1 L 98.0 144.0 L 92.4 148.5 L 86.5 152.7 L 80.3 156.5 L 73.7 159.8 L 66.7 162.7 L 65.8 161.2 L 71.7 156.6 L 77.2 152.1 L 82.5 147.5 L 87.4 142.7 L 92.1 137.9 L 96.4 132.9 L 100.3 127.7 L 104.0 122.3 L 107.3 116.7 L 110.3 110.9 L 110.37668809890747 110.94196138381957 L 110.9 110.0 L 120.9 116.7 L 122.5 119.9 L 118.77190752029419 120.02855491638184 L 117.0 122.8 L 113.83157892227173 127.0 L 154.6 127.0 L 154.84324321746826 126.7972972869873 L 155.6 125.7 L 155.91460676193236 125.90449438095092 L 160.6 122.0 L 171.6 131.0 L 166.6 134.0 L 163.11826543807985 135.45072269439697 L 158.5 141.5 L 150.5 150.1 L 141.8 157.7 L 138.67297115325928 159.94755201339723 L 142.1 161.8 L 150.3 165.2 L 159.3 168.2 L 169.1 170.6 L 179.8 172.4 L 189.3 174.1 L 177.5 185.5 L 166.1 182.7 Z M 13.1 148.9 L 18.8 147.4 L 24.6 145.8 L 30.5 144.1 L 36.0 142.45 L 36.0 90.0 L 16.0 90.0 L 16.0 86.0 L 36.0 86.0 L 36.0 38.0 L 14.0 38.0 L 14.0 34.0 L 53.0 34.0 L 63.0 24.0 L 75.0 34.0 L 75.0 38.0 L 48.0 38.0 L 48.0 86.0 L 51.0 86.0 L 61.0 76.0 L 73.0 86.0 L 73.0 90.0 L 48.0 90.0 L 48.0 138.69032258987426 L 48.9 138.4 L 55.3 136.3 L 61.9 134.2 L 68.6 132.2 L 75.6 130.1 L 76.3 131.8 L 70.2 135.6 L 64.0 139.2 L 57.9 142.4 L 51.8 145.5 L 45.7 148.3 L 39.8 151.0 L 33.9 153.6 L 28.1 156.0 L 22.3 158.3 L 20.57200002670288 158.94799995422363 L 19.5 162.7 L 16.7 160.4 L 11.2 149.5 Z M 110.65454549789429 131.0 L 109.5105839729309 132.39817514419556 L 112.1 136.4 L 116.8 142.7 L 122.1 148.3 L 128.1 153.3 L 129.90561552047728 154.53110151290895 L 135.3 150.1 L 142.9 142.6 L 149.6 134.4 L 151.9448275566101 131.0 Z M 110.9 17.8 L 113.1 20.6 L 109.36518564224244 21.45179977416992 L 108.0 24.7 L 104.8 31.3 L 102.15625 36.0 L 166.2 36.0 L 176.2 26.0 L 188.2 36.0 L 188.2 40.0 L 99.72950820922851 40.0 L 97.3 43.8 L 93.0 49.6 L 90.78471336364746 52.19235668182373 L 100.8 57.2 L 155.8 57.2 L 161.8 52.2 L 172.8 61.2 L 167.8 65.2 L 167.8 110.8 L 155.8 116.8 L 155.8 108.8 L 100.8 108.8 L 100.8 115.8 L 88.8 121.8 L 88.8 54.51489362716675 L 88.3 55.1 L 83.3 60.3 L 77.9 65.2 L 72.0 69.7 L 65.8 73.7 L 64.6 72.2 L 69.5 66.8 L 74.1 61.4 L 78.4 56.0 L 82.4 50.4 L 86.0 44.8 L 89.4 38.9 L 92.4 33.0 L 95.1 26.8 L 97.4 20.5 L 99.5 14.0 L 99.51807231903076 14.006024074554443 L 100.0 12.5 Z M 100.8 84.3 L 100.8 104.8 L 155.8 104.8 L 155.8 84.3 Z M 100.8 61.2 L 100.8 80.3 L 155.8 80.3 L 155.8 61.2 Z " />
</g>
</svg>
