<svg xmlns="http://www.w3.org/2000/svg" xmlns:xlink="http://www.w3.org/1999/xlink" version="1.1" baseProfile="full" viewBox="0 0 200 200" width="200" height="200">
<g fill="black">
<path d="M 131.8 108.0 L 133.0 105.3 L 134.3 102.8 L 135.5 100.3 L 136.6 97.9 L 137.7 95.6 L 138.7 93.3 L 139.7 91.1 L 140.5 88.9 L 141.01279830932617 87.7034707069397 L 140.8 87.6 L 141.9 85.9 L 151.7 92.9 L 153.3 96.1 L 148.8368420600891 96.1 L 148.3 96.7 L 146.5 98.6 L 144.6 100.5 L 142.6 102.4 L 140.5 104.2 L 138.4 106.1 L 136.1 107.8 L 134.5 109.0 L 156.4 109.0 L 166.4 99.0 L 178.4 109.0 L 178.4 113.0 L 139.0 113.0 L 139.0 131.0 L 156.9181818008423 131.0 L 165.1 122.0 L 175.1 131.0 L 175.1 135.0 L 139.0 135.0 L 139.0 153.0 L 156.9181818008423 153.0 L 165.1 144.0 L 175.1 153.0 L 175.1 157.0 L 139.0 157.0 L 139.0 176.0 L 162.8 176.0 L 172.8 166.0 L 184.8 176.0 L 184.8 180.0 L 102.3 180.0 L 102.3 183.0 L 90.3 189.0 L 90.3 123.60909090042114 L 87.3 127.7 L 82.6 133.5 L 77.6 139.1 L 72.3 144.5 L 66.7 149.5 L 65.4 148.4 L 69.4 142.1 L 73.4 135.9 L 77.3 129.7 L 81.0 123.5 L 84.5 117.2 L 87.8 110.9 L 90.9 104.4 L 93.8 97.9 L 96.5 91.3 L 98.62412586212159 85.60734262466431 L 98.6 85.6 L 99.5 83.3 L 110.1 89.1 L 112.1 92.1 L 108.41438131332397 92.68193979263306 L 106.9 95.9 L 103.5 102.6 L 99.85692310333252 109.0 L 131.13333330154418 109.0 Z M 102.3 157.0 L 102.3 176.0 L 127.0 176.0 L 127.0 157.0 Z M 12.5 149.0 L 17.5 147.5 L 22.7 145.9 L 28.0 144.2 L 32.5 142.7 L 32.5 90.0 L 15.3 90.0 L 15.3 86.0 L 32.5 86.0 L 32.5 38.0 L 13.5 38.0 L 13.5 34.0 L 46.1 34.0 L 56.1 24.0 L 68.1 34.0 L 68.1 38.0 L 44.5 38.0 L 44.5 86.0 L 48.11818180084229 86.0 L 56.3 77.0 L 66.3 86.0 L 66.3 90.0 L 44.5 90.0 L 44.5 138.5 L 50.3 136.4 L 56.2 134.3 L 62.3 132.2 L 68.6 130.1 L 69.4 131.8 L 63.9 135.6 L 58.5 139.1 L 53.0 142.4 L 47.6 145.4 L 42.3 148.3 L 36.9 151.0 L 31.7 153.5 L 26.5 155.9 L 21.4 158.2 L 20.28532991409302 158.6681613922119 L 19.3 162.5 L 16.4 160.3 L 10.6 149.6 Z M 102.3 135.0 L 102.3 153.0 L 127.0 153.0 L 127.0 135.0 Z M 102.3 113.0 L 102.3 131.0 L 127.0 131.0 L 127.0 113.0 Z M 74.7 23.0 L 113.0 23.0 L 119.0 18.0 L 130.0 27.0 L 125.0 31.0 L 125.0 89.0 L 113.0 95.0 L 113.0 58.33103446960449 L 111.16577177047729 58.267785263061526 L 110.5 59.1 L 107.0 63.0 L 103.4 66.8 L 99.6 70.3 L 95.5 73.7 L 91.3 77.0 L 86.8 80.1 L 82.1 82.9 L 77.1 85.5 L 71.9 87.7 L 70.9 86.2 L 75.0 82.3 L 78.9 78.6 L 82.7 74.9 L 86.3 71.3 L 89.7 67.6 L 92.9 63.8 L 95.9 60.1 L 98.7 56.3 L 101.3 52.4 L 103.14517049789428 49.32471590042114 L 103.1 49.3 L 103.57142858505249 48.61428575515747 L 103.7 48.4 L 103.71283693313599 48.40860080718994 L 104.2 47.7 L 113.0 54.55473680496216 L 113.0 27.0 L 100.57272729873657 27.0 L 108.1 33.3 L 109.3 36.7 L 105.25082330703735 36.35093307495117 L 102.5 39.2 L 99.5 42.0 L 96.3 44.8 L 93.0 47.5 L 89.6 50.2 L 86.0 52.7 L 82.2 55.1 L 78.2 57.4 L 74.1 59.7 L 73.0 58.2 L 76.2 54.9 L 79.1 51.5 L 82.0 48.2 L 84.7 44.9 L 87.3 41.8 L 89.8 38.6 L 92.2 35.5 L 94.4 32.4 L 96.5 29.3 L 97.8797721862793 27.04879274368286 L 97.8 27.0 L 74.7 27.0 Z M 185.0 27.0 L 180.0 31.0 L 180.0 87.0 L 168.0 93.0 L 168.0 58.4 L 167.02409181594848 58.332695960998535 L 166.7 58.7 L 163.5 62.0 L 160.1 65.3 L 156.5 68.4 L 152.7 71.5 L 148.7 74.4 L 144.4 77.3 L 140.0 79.9 L 135.2 82.4 L 130.2 84.7 L 129.3 83.2 L 133.1 79.4 L 136.9 75.8 L 140.4 72.2 L 143.8 68.8 L 147.0 65.3 L 150.0 61.9 L 152.8 58.5 L 155.4 55.1 L 157.8 51.7 L 159.4042881011963 49.10258121490479 L 159.4 49.1 L 159.4800000190735 48.980000019073486 L 159.9 48.3 L 159.92258062362671 48.31612901687622 L 160.4 47.6 L 168.0 53.89247312545776 L 168.0 27.0 L 155.63157892227173 27.0 L 163.3 33.2 L 164.6 36.6 L 160.56829271316528 36.32195119857788 L 160.5 36.4 L 157.7 39.5 L 154.7 42.6 L 151.5 45.5 L 148.2 48.5 L 144.8 51.3 L 141.2 54.1 L 137.4 56.7 L 133.4 59.2 L 129.2 61.6 L 128.1 60.3 L 131.2 56.7 L 134.1 53.1 L 136.9 49.6 L 139.7 46.2 L 142.3 42.8 L 144.8 39.5 L 147.2 36.2 L 149.4 32.9 L 151.5 29.6 L 152.8615634918213 27.235179138183593 L 152.8 27.2 L 152.9375 27.0 L 133.0 27.0 L 133.0 23.0 L 168.0 23.0 L 174.0 18.0 Z " />
</g>
</svg>
