<svg xmlns="http://www.w3.org/2000/svg" xmlns:xlink="http://www.w3.org/1999/xlink" version="1.1" baseProfile="full" viewBox="0 0 200 200" width="200" height="200">
<g fill="black">
<path d="M 132.0957447052002 121.04255323410034 L 131.4 128.0 L 128.9 138.3 L 127.73473682403565 141.0 L 164.3 141.0 L 174.3 131.0 L 186.3 141.0 L 186.3 145.0 L 130.76666669845582 145.0 L 131.4 145.6 L 136.8 150.7 L 142.0 155.4 L 147.2 159.7 L 152.3 163.6 L 157.6 167.0 L 163.0 170.0 L 168.6 172.6 L 174.5 174.8 L 180.9 176.6 L 188.7 179.0 L 177.0 189.3 L 170.0 186.5 L 163.4 183.2 L 157.3 179.5 L 151.7 175.4 L 146.4 170.8 L 141.5 165.8 L 136.8 160.4 L 132.3 154.5 L 128.2 148.2 L 126.34492750167847 145.0 L 126.0084210395813 145.0 L 124.8 147.8 L 119.3 156.4 L 112.4 164.1 L 104.2 170.9 L 94.7 176.8 L 83.9 181.8 L 71.8 185.8 L 58.4 188.8 L 58.0 187.1 L 70.5 182.2 L 81.7 176.9 L 91.3 171.2 L 99.5 165.0 L 106.3 158.3 L 111.7 151.1 L 114.94805192947388 145.0 L 68.7 145.0 L 68.7 141.0 L 116.61951217651367 141.0 L 118.6 135.2 L 120.1 126.4 L 120.5 117.0 L 120.5 115.2 L 94.7 115.2 L 94.7 122.2 L 82.7 128.2 L 82.7 28.4 L 94.7 34.4 L 117.65217390060425 34.4 L 118.0 33.6 L 118.5 31.1 L 119.1 28.7 L 119.6 26.4 L 120.0 24.1 L 120.5 21.9 L 120.8 19.8 L 121.2 17.7 L 121.5 15.6 L 121.59532556533813 14.646744537353516 L 121.4 14.6 L 121.69090909957886 13.690909099578857 L 121.7 13.6 L 121.71807231903077 13.606024074554444 L 122.2 12.1 L 133.1 17.4 L 135.3 20.2 L 130.737540435791 21.240560913085936 L 130.7 21.3 L 129.5 23.3 L 128.1 25.3 L 126.7 27.2 L 125.2 29.1 L 123.6 31.0 L 121.9 32.9 L 120.3166666984558 34.4 L 159.2 34.4 L 165.2 29.4 L 176.2 38.4 L 171.2 42.4 L 171.2 117.2 L 159.2 123.2 L 159.2 115.2 L 123.5 115.2 L 132.5 117.0 L 135.5 119.0 Z M 13.1 148.9 L 18.8 147.4 L 24.6 145.8 L 30.5 144.1 L 36.0 142.45 L 36.0 90.0 L 16.0 90.0 L 16.0 86.0 L 36.0 86.0 L 36.0 38.0 L 14.0 38.0 L 14.0 34.0 L 53.0 34.0 L 63.0 24.0 L 75.0 34.0 L 75.0 38.0 L 48.0 38.0 L 48.0 86.0 L 51.0 86.0 L 61.0 76.0 L 73.0 86.0 L 73.0 90.0 L 48.0 90.0 L 48.0 138.69032258987426 L 48.9 138.4 L 55.3 136.3 L 61.9 134.2 L 68.6 132.2 L 75.6 130.1 L 76.3 131.8 L 70.2 135.6 L 64.0 139.2 L 57.9 142.4 L 51.8 145.5 L 45.7 148.3 L 39.8 151.0 L 33.9 153.6 L 28.1 156.0 L 22.3 158.3 L 20.57200002670288 158.94799995422363 L 19.5 162.7 L 16.7 160.4 L 11.2 149.5 Z M 147.5 131.8 L 146.6 130.3 L 145.6 128.7 L 144.4 127.2 L 143.0 125.6 L 139.7 122.3 L 137.5 121.2 L 138.2 119.5 L 140.6 120.3 L 143.1 120.7 L 145.5 121.3 L 147.9 122.1 L 150.1 123.1 L 152.2 124.2 L 154.2 125.5 L 156.1 126.9 L 157.9 128.6 L 159.6 130.4 L 160.1 134.9 L 157.3 138.6 L 152.8 139.1 L 149.2 136.3 L 148.2 133.3 Z M 94.7 88.5 L 94.7 111.2 L 159.2 111.2 L 159.2 88.5 Z M 94.7 63.4 L 94.7 84.5 L 159.2 84.5 L 159.2 63.4 Z M 94.7 38.4 L 94.7 59.4 L 159.2 59.4 L 159.2 38.4 Z " />
</g>
</svg>
