<svg xmlns="http://www.w3.org/2000/svg" xmlns:xlink="http://www.w3.org/1999/xlink" version="1.1" baseProfile="full" viewBox="0 0 200 200" width="200" height="200">
<g fill="black">
<path d="M 152.3 175.0 L 162.3 175.0 L 163.5 174.9 L 164.4 174.7 L 165.0 174.5 L 165.4 174.4 L 165.5 174.2 L 165.7 174.0 L 165.9 173.7 L 166.1 173.1 L 166.2 172.2 L 166.3 171.0 L 166.3 125.76000003814697 L 165.7 128.4 L 161.8 130.9 L 157.4 129.8 L 154.9 126.0 L 154.5 122.1 L 154.0 118.3 L 153.3 114.6 L 152.4 111.0 L 151.4 107.6 L 150.3 104.2 L 149.0 100.9 L 147.6 97.6 L 146.1 94.4 L 144.2 91.3 L 145.5 90.1 L 148.4 92.5 L 151.3 95.0 L 154.0 97.8 L 156.4 100.9 L 158.6 104.2 L 160.7 107.8 L 162.5 111.5 L 164.1 115.5 L 165.5 119.6 L 166.3 122.53333330154419 L 166.3 59.0 L 142.9 59.0 L 142.9 181.2 L 131.9 186.7 L 131.9 49.5 L 142.9 55.0 L 166.3 55.0 L 172.3 50.0 L 183.3 59.0 L 178.3 63.0 L 178.3 171.0 L 178.2 173.5 L 177.7 176.0 L 176.9 178.4 L 175.7 180.7 L 174.0 182.7 L 172.0 184.3 L 169.8 185.6 L 167.3 186.4 L 164.9 186.8 L 162.3 187.0 L 162.3 181.0 L 152.3 178.0 Z M 99.4 175.5 L 109.4 175.5 L 110.4 175.4 L 111.1 175.3 L 111.7 175.0 L 111.8 174.8 L 112.0 174.6 L 112.2 174.1 L 112.5 173.4 L 112.6 172.3 L 112.7 171.0 L 112.7 59.0 L 89.2 59.0 L 89.2 181.0 L 77.2 187.0 L 77.2 49.0 L 89.2 55.0 L 112.7 55.0 L 118.2 50.0 L 128.7 59.0 L 123.7 62.5 L 123.7 171.0 L 123.6 173.4 L 123.2 175.7 L 122.5 178.0 L 121.5 180.1 L 120.1 182.1 L 118.4 183.7 L 116.3 185.0 L 114.1 185.8 L 111.8 186.3 L 109.4 186.5 L 109.4 181.0 L 99.4 178.2 Z M 12.5 149.0 L 17.5 147.5 L 22.7 145.9 L 28.0 144.2 L 32.5 142.7 L 32.5 90.0 L 15.3 90.0 L 15.3 86.0 L 32.5 86.0 L 32.5 38.0 L 13.5 38.0 L 13.5 34.0 L 46.1 34.0 L 56.1 24.0 L 68.1 34.0 L 68.1 38.0 L 44.5 38.0 L 44.5 86.0 L 48.11818180084229 86.0 L 56.3 77.0 L 66.3 86.0 L 66.3 90.0 L 44.5 90.0 L 44.5 138.5 L 50.3 136.4 L 56.2 134.3 L 62.3 132.2 L 68.6 130.1 L 69.4 131.8 L 63.9 135.6 L 58.5 139.1 L 53.0 142.4 L 47.6 145.4 L 42.3 148.3 L 36.9 151.0 L 31.7 153.5 L 26.5 155.9 L 21.4 158.2 L 20.28532991409302 158.6681613922119 L 19.3 162.5 L 16.4 160.3 L 10.6 149.6 Z M 99.9 118.3 L 99.2 114.6 L 98.3 111.0 L 97.3 107.6 L 96.2 104.2 L 94.9 100.9 L 93.5 97.6 L 92.0 94.4 L 90.1 91.3 L 91.4 90.1 L 94.3 92.5 L 97.2 95.0 L 99.9 97.8 L 102.3 100.9 L 104.5 104.2 L 106.5 107.8 L 108.4 111.5 L 110.0 115.5 L 111.4 119.6 L 112.6 124.0 L 111.6 128.4 L 107.7 130.9 L 103.3 129.8 L 100.8 126.0 L 100.4 122.1 Z M 187.4 30.0 L 187.4 34.0 L 70.2 34.0 L 70.2 30.0 L 165.4 30.0 L 175.4 20.0 Z " />
</g>
</svg>
