<svg xmlns="http://www.w3.org/2000/svg" xmlns:xlink="http://www.w3.org/1999/xlink" version="1.1" baseProfile="full" viewBox="0 0 200 200" width="200" height="200">
<g fill="black">
<path d="M 110.0 27.0 L 145.0 27.0 L 151.0 22.0 L 162.0 31.0 L 157.0 35.0 L 157.0 162.2 L 157.2 163.1 L 157.5 164.0 L 157.9 164.4 L 158.8 164.7 L 159.7 164.9 L 161.0 165.0 L 177.0 165.0 L 183.0 140.0 L 185.0 140.0 L 183.0 165.0 L 186.6 167.4 L 189.0 171.0 L 186.6 174.6 L 183.0 177.0 L 161.0 177.0 L 158.4 176.8 L 155.9 176.4 L 153.5 175.6 L 151.2 174.3 L 149.2 172.7 L 147.6 170.7 L 146.3 168.4 L 145.5 166.0 L 145.1 163.5 L 145.0 161.0 L 145.0 31.0 L 110.0 31.0 L 110.0 93.0 L 109.3 105.9 L 107.8 118.2 L 105.5 129.6 L 102.5 140.3 L 98.6 150.3 L 94.0 159.4 L 88.6 167.6 L 82.3 175.0 L 75.3 181.4 L 67.5 186.7 L 66.4 185.2 L 72.7 178.6 L 78.2 171.5 L 83.1 164.0 L 87.3 155.9 L 90.8 147.1 L 93.6 137.7 L 95.7 127.6 L 97.1 116.8 L 97.9 105.2 L 98.0 93.0 L 98.0 21.0 Z M 28.1 158.0 L 16.1 164.0 L 16.1 24.0 L 28.1 30.0 L 69.9 30.0 L 75.9 25.0 L 86.9 34.0 L 81.9 38.0 L 81.9 150.0 L 69.9 156.0 L 69.9 146.0 L 28.1 146.0 Z M 28.1 90.0 L 28.1 142.0 L 43.0 142.0 L 43.0 90.0 Z M 55.0 90.0 L 55.0 142.0 L 69.9 142.0 L 69.9 90.0 Z M 28.1 34.0 L 28.1 86.0 L 43.0 86.0 L 43.0 34.0 Z M 55.0 34.0 L 55.0 86.0 L 69.9 86.0 L 69.9 34.0 Z " />
</g>
</svg>
