<svg xmlns="http://www.w3.org/2000/svg" xmlns:xlink="http://www.w3.org/1999/xlink" version="1.1" baseProfile="full" viewBox="0 0 200 200" width="200" height="200">
<g fill="black">
<path d="M 129.5 167.1 L 128.0 165.0 L 127.57289505004883 164.4723998069763 L 127.2 165.2 L 122.4 172.2 L 117.1 178.3 L 111.2 183.3 L 104.7 187.1 L 97.8 189.8 L 97.0 188.1 L 102.6 183.9 L 107.6 179.2 L 112.1 173.9 L 116.1 167.9 L 119.7 161.2 L 121.01162786483765 157.92093019485475 L 119.5 156.7 L 116.7 154.8 L 116.06290321350097 154.3540322303772 L 115.2 159.1 L 102.3 162.8 L 110.49439249038696 118.0 L 100.4 118.0 L 100.4 114.0 L 111.2260347366333 114.0 L 116.0 87.9 L 127.4 92.0 L 130.0 94.5 L 126.76444444656372 95.49555559158325 L 123.4 114.0 L 130.2 114.0 L 136.2 109.0 L 147.2 118.0 L 142.2 121.0 L 141.34929580688475 121.35446004867553 L 140.3 128.0 L 137.9 138.6 L 134.9 148.4 L 131.70716934204103 156.2046971321106 L 134.6 158.1 L 137.3 160.2 L 139.8 162.6 L 142.0 165.3 L 142.6 169.8 L 140.0 173.5 L 135.5 174.2 L 131.7 171.5 L 130.7 169.3 Z M 85.8 145.0 L 85.8 124.0 L 73.3 124.0 L 73.3 140.0 L 72.909375 145.0 Z M 188.5 177.7 L 189.03999996185303 178.96000003814697 L 191.0 181.9 L 189.03999996185303 184.83999996185304 L 188.5 186.1 L 186.26000003814698 187.06000003814697 L 185.0 187.9 L 184.3 187.9 L 181.8 187.6 L 179.3 187.1 L 177.0 186.2 L 174.8 184.9 L 172.9 183.3 L 171.4 181.3 L 170.3 179.1 L 169.7 176.7 L 169.3 174.3 L 169.3 135.6 L 162.5 135.6 L 162.5 141.1 L 162.3089172363281 141.38662424087525 L 162.5 141.4 L 161.5 148.1 L 160.1 154.3 L 158.3 160.2 L 156.0 165.6 L 153.4 170.6 L 150.3 175.1 L 146.8 179.1 L 142.9 182.6 L 138.6 185.5 L 134.0 187.7 L 133.2 186.4 L 136.7 183.0 L 139.8 179.4 L 142.6 175.6 L 145.0 171.6 L 147.1 167.3 L 148.9 162.7 L 150.3 157.7 L 151.4 152.4 L 152.1 146.7 L 152.5 140.7 L 152.5 135.6 L 145.3 135.6 L 145.3 131.6 L 152.5 131.6 L 152.5 100.5 L 144.8 100.5 L 144.8 96.5 L 169.3 96.5 L 174.3 91.5 L 184.3 100.5 L 179.3 103.5 L 179.3 171.9 L 179.5 173.2 L 179.58222217559813 173.4740740776062 L 185.0 150.9 L 187.0 150.9 L 185.0 175.9 L 186.26000003814698 176.73999996185302 Z M 122.67272729873658 118.0 L 116.75627908706664 150.54046506881713 L 118.4 150.8 L 122.0 151.8 L 123.16624126434326 152.21161451339722 L 125.3 145.4 L 127.4 136.2 L 129.0 126.2 L 129.90275230407715 118.0 Z M 162.5 100.5 L 162.5 128.5333333015442 L 164.7 125.6 L 169.3 130.2 L 169.3 100.5 Z M 73.3 101.0 L 73.3 120.0 L 85.8 120.0 L 85.8 101.0 Z M 83.6 64.8 L 161.3 64.8 L 167.3 59.8 L 178.3 68.8 L 173.3 72.8 L 173.3 85.8 L 161.3 91.8 L 161.3 85.8 L 83.6 85.8 L 71.6 91.8 L 71.6 58.8 Z M 83.6 68.8 L 83.6 81.8 L 161.3 81.8 L 161.3 68.8 Z M 76.2 53.5 L 73.9 53.3 L 71.7 52.8 L 69.6 52.0 L 67.7 50.7 L 65.9 49.0 L 64.6 47.0 L 63.6 44.8 L 62.9 42.4 L 62.5 39.8 L 62.5 23.8 L 74.5 29.8 L 115.0 29.8 L 115.0 12.8 L 127.0 14.8 L 130.0 16.8 L 127.0 18.6 L 127.0 29.8 L 162.8 29.8 L 172.8 19.8 L 184.8 29.8 L 184.8 33.8 L 74.5 33.8 L 74.5 39.8 L 74.3 41.1 L 74.2 42.1 L 74.2 42.9 L 74.3 43.5 L 74.4 44.0 L 74.6 44.5 L 75.1 45.0 L 75.9 45.5 L 77.0 46.0 L 78.5 46.3 L 175.7 46.3 L 177.8 47.7 L 179.2 49.8 L 177.8 51.9 L 175.7 53.3 L 78.5 53.3 Z M 11.7 149.0 L 16.2 147.5 L 20.8 146.0 L 25.4 144.3 L 29.1 142.9125 L 29.1 90.0 L 14.6 90.0 L 14.6 86.0 L 29.1 86.0 L 29.1 38.0 L 13.0 38.0 L 13.0 34.0 L 43.018181800842285 34.0 L 51.2 25.0 L 61.2 34.0 L 61.2 38.0 L 41.1 38.0 L 41.1 86.0 L 45.3777777671814 86.0 L 51.6 79.0 L 59.6 86.0 L 59.6 90.0 L 41.1 90.0 L 41.1 138.18823528289795 L 45.2 136.5 L 50.4 134.3 L 55.9 132.2 L 61.5 130.2 L 62.3 131.5333333015442 L 62.3 91.5 L 73.3 97.0 L 85.8 97.0 L 91.3 92.0 L 101.8 101.0 L 96.8 104.5 L 96.8 173.0 L 96.7 175.4 L 96.3 177.7 L 95.7 180.0 L 94.7 182.1 L 93.3 184.1 L 91.5 185.7 L 89.4 187.0 L 87.2 187.8 L 84.9 188.3 L 82.6 188.5 L 82.6 183.0 L 67.2 180.2 L 67.2 177.5 L 82.6 177.5 L 83.5 177.4 L 84.2 177.3 L 84.8 177.0 L 85.2 176.6 L 85.4 176.1 L 85.6 175.4 L 85.7 174.3 L 85.8 173.0 L 85.8 149.0 L 72.50645160675049 149.0 L 72.1 152.6 L 71.1 158.4 L 69.9 164.0 L 68.3 169.2 L 66.4 174.1 L 64.2 178.6 L 61.7 182.7 L 58.8 186.3 L 55.5 189.4 L 54.2 188.5 L 55.8 184.5 L 57.3 180.4 L 58.6 176.2 L 59.8 171.8 L 60.8 167.2 L 61.5 162.3 L 62.0 157.2 L 62.3 151.7 L 62.4 146.0 L 62.3 140.0 L 62.3 131.78085107803344 L 57.7 135.5 L 53.0 139.1 L 48.2 142.3 L 43.5 145.3 L 41.1 146.78085107803344 L 41.1 147.0 L 40.744827556610105 147.0 L 38.8 148.2 L 34.2 150.9 L 29.6 153.4 L 25.0 155.8 L 20.6 158.1 L 19.90952377319336 158.4222222328186 L 19.1 162.2 L 16.1 160.2 L 9.9 149.7 Z " />
</g>
</svg>
