<svg xmlns="http://www.w3.org/2000/svg" xmlns:xlink="http://www.w3.org/1999/xlink" version="1.1" baseProfile="full" viewBox="0 0 200 200" width="200" height="200">
<g fill="black">
<path d="M 188.0 114.8 L 188.0 118.8 L 77.71481485366822 118.8 L 77.3 119.5 L 73.1 126.2 L 68.3 132.3 L 63.1 137.9 L 61.68625001907348 139.14312496185303 L 66.0 141.3 L 155.0 141.3 L 161.0 136.3 L 172.0 145.3 L 167.0 149.3 L 167.0 180.3 L 155.0 186.3 L 155.0 176.3 L 66.0 176.3 L 66.0 183.3 L 54.0 189.3 L 54.0 145.40952377319337 L 51.0 147.6 L 44.2 151.6 L 36.9 155.1 L 29.1 158.0 L 20.9 160.3 L 12.2 161.9 L 11.7 160.1 L 19.7 156.7 L 27.1 153.1 L 33.9 149.3 L 40.2 145.2 L 45.9 140.8 L 51.1 136.1 L 55.8 131.1 L 59.9 125.7 L 63.5 120.0 L 64.1 118.8 L 12.0 118.8 L 12.0 114.8 L 166.0 114.8 L 176.0 104.8 Z M 66.0 145.3 L 66.0 172.3 L 155.0 172.3 L 155.0 145.3 Z M 16.9 80.7 L 23.2 80.0 L 29.8 79.4 L 36.8 78.7 L 44.2 78.0 L 51.9 77.2 L 53.5 77.06000003814697 L 53.5 62.6 L 36.4 62.6 L 28.4 70.6 L 21.686111068725587 63.88611106872558 L 21.5 63.9 L 21.557881164550782 63.75788116455078 L 18.4 60.6 L 25.1271559715271 54.99403667449951 L 34.45127277374267 32.1 L 12.7 32.1 L 12.7 28.1 L 36.08036365509033 28.1 L 43.9 8.9 L 54.3 15.3 L 56.3 18.3 L 52.78553247451782 19.015910053253172 L 49.08319330215454 28.1 L 71.8 28.1 L 81.8 18.1 L 93.8 28.1 L 93.8 32.1 L 47.4529411315918 32.1 L 36.65252103805542 58.6 L 53.5 58.6 L 53.5 40.0 L 65.5 42.0 L 68.5 44.0 L 65.5 45.8 L 65.5 58.6 L 72.9 58.6 L 82.9 48.6 L 94.9 58.6 L 94.9 62.6 L 65.5 62.6 L 65.5 76.1 L 68.3 75.9 L 77.1 75.2 L 86.3 74.8 L 95.8 74.5 L 96.0 76.2 L 86.8 78.5 L 77.8 80.5 L 69.3 82.4 L 65.5 83.13253011703492 L 65.5 102.3 L 53.5 108.3 L 53.5 85.51898736953736 L 53.1 85.6 L 45.5 87.1 L 38.3 88.6 L 31.5 90.0 L 24.9 91.3 L 22.851824855804445 91.73649635314942 L 21.2 95.2 L 18.8 92.6 L 15.0 81.0 Z M 115.7 24.3 L 115.7 24.451249980926512 L 117.6 24.0 L 125.2 22.2 L 132.3 20.7 L 139.0 19.2 L 145.2 17.8 L 151.0 16.5 L 156.3 15.1 L 161.1 13.9 L 165.5 12.6 L 168.40232553482056 11.706976699829102 L 168.4 11.7 L 168.406827545166 11.705591487884522 L 169.4 11.4 L 169.73306455612183 12.791733837127685 L 180.0 21.2 L 180.3 24.2 L 176.00686569213866 22.17268657684326 L 172.2 23.1 L 167.9 23.8 L 163.2 24.4 L 158.1 25.0 L 152.5 25.6 L 146.5 26.2 L 140.1 26.7 L 133.2 27.2 L 125.8 27.5 L 118.1 27.7 L 115.7 27.7 L 115.7 47.7 L 165.3 47.7 L 175.3 37.7 L 187.3 47.7 L 187.3 51.7 L 158.4 51.7 L 158.4 101.8 L 146.4 107.8 L 146.4 51.7 L 115.7 51.7 L 115.7 62.3 L 115.1 69.1 L 113.7 75.5 L 111.5 81.5 L 108.7 86.9 L 105.1 91.9 L 100.9 96.2 L 96.1 100.0 L 90.6 103.1 L 84.6 105.5 L 78.0 107.3 L 77.4 105.6 L 83.0 102.1 L 87.8 98.5 L 92.0 94.8 L 95.4 91.0 L 98.3 86.9 L 100.5 82.6 L 102.1 78.0 L 103.2 73.1 L 103.7 67.9 L 103.7 18.3 Z " />
</g>
</svg>
