<svg xmlns="http://www.w3.org/2000/svg" xmlns:xlink="http://www.w3.org/1999/xlink" version="1.1" baseProfile="full" viewBox="0 0 200 200" width="200" height="200">
<g fill="black">
<path d="M 150.5 176.0 L 166.5 176.0 L 167.7 175.9 L 168.6 175.7 L 169.2 175.5 L 169.6 175.4 L 169.7 175.2 L 169.9 175.0 L 170.1 174.7 L 170.3 174.1 L 170.4 173.2 L 170.5 172.0 L 170.5 125.0 L 137.0 125.0 L 137.0 149.93035717010497 L 145.9 148.5 L 151.5 147.7 L 153.29305992126464 147.50788640975952 L 152.5 144.6 L 150.5 138.0 L 149.4 134.6 L 147.9 131.3 L 149.4 130.3 L 151.8 133.1 L 154.3 135.8 L 156.6 138.8 L 158.7 141.8 L 160.6 144.9 L 162.4 148.1 L 164.0 151.5 L 165.5 154.8 L 166.8 158.3 L 167.9 161.8 L 167.0 166.3 L 163.2 168.9 L 158.7 167.9 L 156.2 164.2 L 155.8 160.9 L 155.4 157.7 L 154.9 154.4 L 154.2 151.2 L 154.06393976211547 150.63875131607057 L 152.6 151.4 L 147.4 153.6 L 142.0 155.7 L 136.6 157.7 L 125.4 161.3 L 119.7 163.0 L 113.9 164.6 L 108.0 166.2 L 106.09107656478882 166.68531951904296 L 104.6 170.2 L 102.1 167.7 L 97.8 156.2 L 99.8 155.9 L 105.7 155.0 L 111.7 154.1 L 117.5 153.2 L 123.3 152.2 L 125.0 151.93157892227174 L 125.0 125.0 L 92.2 125.0 L 92.2 183.2 L 81.2 188.7 L 81.2 115.5 L 92.2 121.0 L 125.0 121.0 L 125.0 95.2 L 100.6 95.2 L 100.6 102.2 L 88.6 108.2 L 88.6 50.7 L 100.6 56.7 L 125.0 56.7 L 125.0 34.32022476196289 L 120.7 34.9 L 111.6 35.9 L 102.4 36.6 L 93.0 36.9 L 83.5 36.8 L 83.4 35.1 L 92.6 33.2 L 101.7 31.3 L 110.6 29.4 L 119.4 27.5 L 127.9 25.4 L 136.2 23.1 L 144.3 20.8 L 152.3 18.2 L 160.0 15.5 L 167.6 12.6 L 168.20157012939453 14.299435710906982 L 177.1 22.0 L 177.4 25.1 L 173.28375177383424 23.318340301513672 L 171.6 23.9 L 163.5 26.3 L 155.3 28.5 L 146.9 30.5 L 138.3 32.2 L 137.0 32.4241379737854 L 137.0 56.7 L 161.3 56.7 L 167.3 51.7 L 178.3 60.7 L 173.3 64.7 L 173.3 99.2 L 161.3 105.2 L 161.3 95.2 L 137.0 95.2 L 137.0 121.0 L 170.5 121.0 L 176.5 116.0 L 187.5 125.0 L 182.5 129.0 L 182.5 172.0 L 182.4 174.5 L 181.9 177.0 L 181.1 179.4 L 179.9 181.7 L 178.2 183.7 L 176.2 185.3 L 174.0 186.6 L 171.5 187.4 L 169.1 187.8 L 166.5 188.0 L 166.5 182.0 L 150.5 179.0 Z M 78.7 36.0 L 78.7 40.0 L 54.77722768783569 40.0 L 52.5 49.2 L 49.6 59.1 L 46.4 68.8 L 42.8 78.4 L 40.03225803375244 85.0 L 59.7 85.0 L 65.2 80.0 L 75.7 89.0 L 70.7 92.5 L 70.7 163.0 L 59.7 168.5 L 59.7 157.0 L 41.6 157.0 L 41.6 169.0 L 29.6 175.0 L 29.6 106.60399999618531 L 25.0 114.7 L 19.5 123.2 L 13.5 131.4 L 12.0 130.5 L 16.2 121.3 L 20.2 112.2 L 24.1 103.1 L 27.7 93.9 L 29.6 88.60303030014038 L 29.6 88.0 L 29.816304302215578 88.0 L 31.0 84.7 L 34.0 75.3 L 36.8 65.8 L 39.2 56.2 L 41.4 46.6 L 42.551162815093996 40.0 L 17.0 40.0 L 17.0 36.0 L 56.7 36.0 L 66.7 26.0 Z M 41.6 89.0 L 41.6 153.0 L 59.7 153.0 L 59.7 89.0 Z M 100.6 60.7 L 100.6 91.2 L 125.0 91.2 L 125.0 60.7 Z M 137.0 60.7 L 137.0 91.2 L 161.3 91.2 L 161.3 60.7 Z " />
</g>
</svg>
