<svg xmlns="http://www.w3.org/2000/svg" xmlns:xlink="http://www.w3.org/1999/xlink" version="1.1" baseProfile="full" viewBox="0 0 200 200" width="200" height="200">
<g fill="black">
<path d="M 97.0 81.2 L 127.3384614944458 81.2 L 126.8 73.7 L 126.51413764953614 53.4990574836731 L 126.5 53.5 L 126.50955410003662 53.17515926361084 L 126.5 52.5 L 126.52939739227295 52.50048999786377 L 126.6 50.1 L 138.5 52.7 L 141.5 54.7 L 138.55427103042604 56.40852279663086 L 138.8 73.2 L 139.35319147109985 81.2 L 163.2 81.2 L 173.2 71.2 L 185.2 81.2 L 185.2 85.2 L 139.6297872543335 85.2 L 140.1 92.0 L 142.5 108.9 L 145.8 123.9 L 149.98339767456054 136.45019302368163 L 151.3 134.2 L 156.2 124.0 L 160.5 113.1 L 164.2 101.3 L 164.21817893981932 101.30569076538086 L 164.7 99.8 L 175.7 104.9 L 178.0 107.7 L 174.31429243087769 108.60526151657105 L 171.1 117.2 L 165.9 128.6 L 160.0 139.2 L 154.73903970718385 147.05097160339355 L 155.4 148.5 L 161.6 158.0 L 168.7 165.8 L 176.6 171.9 L 178.26013927459718 172.73939628601073 L 183.3 150.9 L 185.3 150.9 L 183.41938438415528 175.34800329208375 L 185.5 176.4 L 188.7 179.6 L 188.8 184.1 L 185.6 187.4 L 181.0 187.5 L 170.2 182.0 L 160.5 174.6 L 152.1 165.3 L 146.7243655204773 157.08722505569457 L 146.3 157.6 L 138.5 165.5 L 130.0 172.4 L 121.0 178.2 L 111.3 183.0 L 101.0 186.7 L 100.4 185.1 L 109.5 179.7 L 118.0 173.8 L 125.9 167.3 L 133.1 160.1 L 139.8 152.2 L 142.288160610199 148.63363647460938 L 139.0 141.5 L 134.2 127.1 L 130.7 111.0 L 128.2 93.2 L 127.62564105987549 85.2 L 97.0 85.2 L 97.0 121.9 L 96.5 130.3 L 95.6 138.4 L 94.3 146.0 L 92.7 153.3 L 90.7 160.1 L 88.2 166.6 L 85.4 172.5 L 82.1 178.0 L 78.3 182.9 L 74.1 187.2 L 72.7 186.1 L 75.1 180.9 L 77.3 175.5 L 79.3 169.9 L 81.0 164.1 L 82.5 157.9 L 83.6 151.4 L 84.4 144.6 L 84.9 137.4 L 85.1 129.8 L 85.0 121.9 L 85.0 75.2 Z M 158.0 70.3 L 157.3 68.6 L 156.4 66.8 L 155.4 64.9 L 154.1 63.0 L 152.7 61.1 L 151.1 59.0 L 149.86101694107055 57.469491481781006 L 142.2 61.3 L 142.2 38.3 L 117.8 38.3 L 117.8 55.3 L 105.8 61.3 L 105.8 38.3 L 75.0 38.3 L 75.0 40.0 L 52.484000015258786 40.0 L 50.3 49.1 L 47.6 59.0 L 44.5 68.8 L 41.1 78.3 L 38.391489315032956 85.0 L 56.1 85.0 L 62.1 80.0 L 73.1 89.0 L 68.1 93.0 L 68.1 163.0 L 56.1 169.0 L 56.1 157.0 L 40.0 157.0 L 40.0 169.0 L 28.0 175.0 L 28.0 107.36666669845582 L 24.0 114.7 L 18.7 123.2 L 13.0 131.4 L 11.4 130.5 L 15.4 121.4 L 19.2 112.3 L 22.8 103.2 L 26.2 94.0 L 28.0 88.76875 L 28.0 88.0 L 28.264516162872315 88.0 L 29.4 84.7 L 32.3 75.4 L 34.9 65.9 L 37.2 56.3 L 39.2 46.6 L 40.274418640136716 40.0 L 16.2 40.0 L 16.2 36.0 L 56.81818180084228 36.0 L 65.0 27.0 L 73.4 34.560000038146974 L 73.4 34.3 L 105.8 34.3 L 105.8 12.4 L 117.8 14.4 L 120.8 16.4 L 117.8 18.2 L 117.8 34.3 L 142.2 34.3 L 142.2 12.4 L 154.2 14.4 L 157.2 16.4 L 154.2 18.2 L 154.2 34.3 L 168.3181818008423 34.3 L 176.5 25.3 L 186.5 34.3 L 186.5 38.3 L 154.2 38.3 L 154.2 55.3 L 153.05531911849977 55.87234039306641 L 153.4 56.0 L 155.9 57.1 L 158.3 58.3 L 160.5 59.7 L 162.6 61.2 L 164.6 62.8 L 166.5 64.5 L 168.2 66.4 L 169.8 68.4 L 170.0 72.9 L 167.0 76.4 L 162.5 76.6 L 159.0 73.7 L 158.6 72.0 Z M 40.0 89.0 L 40.0 153.0 L 56.1 153.0 L 56.1 89.0 Z " />
</g>
</svg>
