<svg xmlns="http://www.w3.org/2000/svg" xmlns:xlink="http://www.w3.org/1999/xlink" version="1.1" baseProfile="full" viewBox="0 0 200 200" width="200" height="200">
<g fill="black">
<path d="M 135.7 84.8 L 137.4 81.1 L 139.1 77.7 L 140.7 74.4 L 142.3 71.2 L 143.7 68.2 L 145.1 65.4 L 146.3 62.7 L 147.5 60.1 L 148.137931060791 58.56896553039551 L 148.0 58.5 L 148.4680850982666 57.776595783233645 L 148.5 57.7 L 148.5127003669739 57.707644844055174 L 149.1 56.8 L 158.8 63.9 L 160.3 67.2 L 156.05 67.2 L 155.1 68.3 L 153.1 70.7 L 151.0 73.1 L 148.7 75.6 L 146.3 78.2 L 143.7 80.9 L 141.0 83.7 L 138.0 86.4 L 137.45806455612183 87.0 L 161.3 87.0 L 171.3 77.0 L 183.3 87.0 L 183.3 91.0 L 145.6 91.0 L 145.6 114.0 L 159.2 114.0 L 169.2 104.0 L 181.2 114.0 L 181.2 118.0 L 145.6 118.0 L 145.6 141.0 L 159.2 141.0 L 169.2 131.0 L 181.2 141.0 L 181.2 145.0 L 145.6 145.0 L 145.6 172.0 L 165.5 172.0 L 175.5 162.0 L 187.5 172.0 L 187.5 176.0 L 107.2 176.0 L 107.2 183.0 L 95.2 189.0 L 95.2 105.91489362716675 L 91.9 110.9 L 86.9 117.9 L 81.6 124.8 L 75.9 131.5 L 74.4 130.4 L 78.4 122.7 L 82.4 115.1 L 86.2 107.6 L 89.9 100.1 L 93.4 92.7 L 95.2 88.66363639831543 L 95.2 87.0 L 95.94189186096192 87.0 L 96.7 85.3 L 99.8 78.0 L 102.6 70.6 L 105.2 63.2 L 107.30377769470215 56.801009559631346 L 107.3 56.8 L 107.33333330154419 56.711111068725586 L 107.6 55.9 L 107.63310546875 55.91171875 L 108.2 54.4 L 110.8 55.73644857406616 L 110.8 38.0 L 85.6 38.0 L 85.6 34.0 L 110.8 34.0 L 110.8 13.0 L 122.8 15.0 L 125.8 17.0 L 122.8 18.8 L 122.8 34.0 L 145.1 34.0 L 145.1 13.0 L 157.1 15.0 L 160.1 17.0 L 157.1 18.8 L 157.1 34.0 L 165.5 34.0 L 175.5 24.0 L 187.5 34.0 L 187.5 38.0 L 157.1 38.0 L 157.1 50.0 L 145.1 56.0 L 145.1 38.0 L 122.8 38.0 L 122.8 50.0 L 111.05990781784058 55.870046043395995 L 118.9 59.9 L 121.1 62.8 L 117.4067361831665 63.51273517608642 L 115.8 67.4 L 112.5 74.8 L 108.9 82.1 L 106.28219175338745 87.0 L 134.4777777671814 87.0 Z M 80.5 36.0 L 80.5 40.0 L 55.49200000762939 40.0 L 53.1 49.2 L 50.1 59.1 L 46.8 68.9 L 43.1 78.4 L 40.29148931503296 85.0 L 60.5 85.0 L 66.5 80.0 L 77.5 89.0 L 72.5 93.0 L 72.5 163.0 L 60.5 169.0 L 60.5 157.0 L 41.8 157.0 L 41.8 169.0 L 29.8 175.0 L 29.8 106.16730766296386 L 24.7 114.7 L 19.1 123.2 L 13.0 131.4 L 11.4 130.5 L 15.8 121.3 L 20.0 112.2 L 24.0 103.1 L 27.8 93.9 L 29.8 88.42941179275513 L 29.8 88.0 L 29.956989288330078 88.0 L 31.2 84.6 L 34.4 75.2 L 37.3 65.8 L 39.8 56.2 L 42.0 46.5 L 43.3 40.0 L 16.6 40.0 L 16.6 36.0 L 58.5 36.0 L 68.5 26.0 Z M 107.2 145.0 L 107.2 172.0 L 133.6 172.0 L 133.6 145.0 Z M 41.8 89.0 L 41.8 153.0 L 60.5 153.0 L 60.5 89.0 Z M 107.2 118.0 L 107.2 141.0 L 133.6 141.0 L 133.6 118.0 Z M 107.2 91.0 L 107.2 114.0 L 133.6 114.0 L 133.6 91.0 Z " />
</g>
</svg>
