<svg xmlns="http://www.w3.org/2000/svg" xmlns:xlink="http://www.w3.org/1999/xlink" version="1.1" baseProfile="full" viewBox="0 0 200 200" width="200" height="200">
<g fill="black">
<path d="M 71.5 125.3 L 69.8 122.4 L 67.8 119.5 L 65.5 116.5 L 63.0 113.6 L 60.2 110.6 L 57.2 107.5 L 55.1 105.4 L 55.1 183.0 L 43.1 189.0 L 43.1 110.32799997329712 L 38.3 115.0 L 30.3 121.9 L 21.7 128.5 L 12.7 134.7 L 11.6 133.2 L 19.3 125.6 L 26.6 118.0 L 33.6 110.3 L 40.1 102.6 L 43.1 98.82580642700195 L 43.1 98.0 L 43.75641021728516 98.0 L 46.3 94.8 L 51.9 86.8 L 57.2 78.7 L 62.0 70.4 L 66.4 62.0 L 68.21395349502563 58.0 L 15.6 58.0 L 15.6 54.0 L 69.8 54.0 L 70.16635513305664 53.69470405578613 L 70.3 53.4 L 70.44089307785035 53.46592245101929 L 75.8 49.0 L 86.8 58.0 L 81.8 61.0 L 79.25882349014282 62.05882349014282 L 76.4 67.3 L 71.2 75.9 L 65.5 84.2 L 59.4 92.3 L 54.576923084259036 98.0 L 55.1 98.0 L 55.1 101.42727270126343 L 55.7 101.7 L 60.0 103.7 L 63.9 105.9 L 67.6 108.3 L 71.1 110.8 L 74.3 113.5 L 77.3 116.3 L 80.1 119.2 L 82.6 122.3 L 84.8 125.5 L 85.2 130.1 L 82.3 133.6 L 77.8 134.0 L 74.2 131.1 L 73.0 128.2 Z M 172.0 147.0 L 174.0 147.0 L 172.0 172.0 L 175.6 174.4 L 178.0 178.0 L 175.6 181.6 L 172.0 184.0 L 112.0 184.0 L 109.4 183.8 L 106.9 183.4 L 104.5 182.6 L 102.2 181.3 L 100.2 179.7 L 98.6 177.7 L 97.3 175.4 L 96.5 173.0 L 96.1 170.5 L 96.0 168.0 L 96.0 85.0 L 108.0 87.0 L 111.0 89.0 L 108.0 90.8 L 108.0 127.17183094024658 L 108.8 126.8 L 115.7 123.6 L 122.3 120.4 L 128.7 117.0 L 134.8 113.6 L 140.7 110.0 L 146.2 106.2 L 151.5 102.3 L 156.5 98.2 L 161.3 94.0 L 161.33031091690063 94.03575134277344 L 161.5 93.9 L 169.1 103.2 L 169.5 106.8 L 165.88746614456176 105.55203371047973 L 163.5 107.3 L 157.6 111.1 L 151.6 114.7 L 145.2 118.1 L 138.7 121.1 L 131.9 123.9 L 124.9 126.5 L 117.6 128.7 L 110.0 130.4 L 108.0 130.7589743614197 L 108.0 169.2 L 108.2 170.1 L 108.5 171.0 L 108.9 171.4 L 109.8 171.7 L 110.7 171.9 L 112.0 172.0 L 166.0 172.0 Z M 166.7 79.6 L 161.3 74.1 L 156.1 68.2 L 151.0 62.0 L 146.2 55.3 L 141.6 48.2 L 137.2 40.7 L 133.2 32.7 L 131.94001903533936 29.676045608520507 L 127.0 38.2 L 121.6 46.8 L 115.8 55.2 L 109.8 63.4 L 103.5 71.3 L 96.8 79.1 L 89.8 86.6 L 82.4 93.7 L 74.6 100.6 L 73.3 99.3 L 79.6 91.2 L 85.7 83.1 L 91.7 75.0 L 97.4 66.8 L 102.9 58.5 L 108.1 50.1 L 113.0 41.6 L 117.6 32.9 L 122.0 24.2 L 126.1 15.3 L 126.12332611083984 15.311015129089355 L 126.7 14.1 L 136.9 20.4 L 138.8 23.5 L 135.03917274475097 23.889051055908205 L 133.63220338821412 26.527118682861328 L 136.8 30.6 L 142.2 37.4 L 147.5 44.0 L 152.8 50.1 L 158.1 55.9 L 163.5 61.2 L 169.0 66.2 L 174.5 70.7 L 180.1 74.8 L 185.7 78.5 L 189.2 80.9 L 178.2 89.4 L 172.4 84.7 Z M 48.5 33.8 L 47.5 31.2 L 46.3 28.6 L 44.9 26.1 L 43.3 23.7 L 41.5 21.2 L 39.6 18.8 L 37.4 16.3 L 34.9 14.2 L 35.8 12.7 L 38.9 14.1 L 42.1 15.4 L 45.1 17.1 L 48.0 19.0 L 50.7 21.1 L 53.2 23.5 L 55.5 26.1 L 57.7 28.8 L 59.6 31.8 L 61.4 35.0 L 61.2 39.6 L 57.9 42.8 L 53.4 42.6 L 50.2 39.3 L 49.4 36.5 Z " />
</g>
</svg>
