<svg xmlns="http://www.w3.org/2000/svg" xmlns:xlink="http://www.w3.org/1999/xlink" version="1.1" baseProfile="full" viewBox="0 0 200 200" width="200" height="200">
<g fill="black">
<path d="M 105.29629631042481 80.1222222328186 L 104.4 85.5 L 103.82558135986328 86.8 L 159.0 86.8 L 169.0 76.8 L 181.0 86.8 L 181.0 90.8 L 106.97948713302613 90.8 L 109.8 92.8 L 115.5 96.4 L 121.5 99.7 L 128.0 102.7 L 134.9 105.4 L 142.4 107.8 L 150.4 109.8 L 158.9 111.5 L 168.0 112.9 L 177.7 113.9 L 188.1 115.1 L 176.2 127.0 L 166.0 125.2 L 156.5 123.1 L 155.00924501419067 122.66933746337891 L 155.4 125.6 L 150.8238410949707 123.34242830276489 L 146.0 124.2 L 136.7 125.5 L 126.9 126.8 L 116.7 127.9 L 106.0 128.9 L 106.0 142.2 L 163.0 142.2 L 173.0 132.2 L 185.0 142.2 L 185.0 146.2 L 109.87575759887696 146.2 L 112.2 147.5 L 118.3 150.8 L 124.7 153.9 L 131.4 157.0 L 138.6 159.8 L 146.1 162.5 L 154.0 165.0 L 162.4 167.3 L 171.2 169.4 L 180.4 171.4 L 189.2 173.4 L 177.5 184.2 L 168.0 181.6 L 159.0 178.6 L 150.4 175.5 L 142.3 172.0 L 134.7 168.4 L 127.6 164.4 L 121.1 160.2 L 115.1 155.7 L 109.7 150.8 L 106.0 146.53695650100707 L 106.0 183.2 L 94.0 189.2 L 94.0 153.89104480743407 L 88.2 157.7 L 80.8 161.7 L 72.9 165.4 L 64.4 168.9 L 55.2 172.0 L 45.4 174.9 L 35.0 177.4 L 23.9 179.5 L 12.1 181.2 L 11.8 179.4 L 23.0 175.8 L 33.5 172.3 L 43.4 168.6 L 52.6 164.9 L 61.0 161.1 L 68.8 157.1 L 75.9 152.9 L 82.3 148.7 L 85.53863639831543 146.2 L 15.0 146.2 L 15.0 142.2 L 94.0 142.2 L 94.0 129.85478258132935 L 83.4 130.5 L 71.5 131.1 L 59.1 131.6 L 46.3 131.8 L 33.0 131.6 L 32.9 129.9 L 46.0 128.0 L 58.7 126.2 L 70.9 124.6 L 82.7 123.0 L 94.0 121.3 L 104.9 119.6 L 115.3 117.9 L 125.3 116.1 L 132.80919857025145 114.67720451354981 L 131.3 114.0 L 124.2 110.2 L 117.7 105.8 L 111.9 101.1 L 107.0 95.8 L 103.40350875854492 90.8 L 102.0581395149231 90.8 L 100.6 94.1 L 94.7 101.5 L 87.1 107.7 L 78.1 112.8 L 67.7 117.1 L 56.0 120.6 L 43.1 123.4 L 29.1 125.4 L 14.1 126.6 L 13.8 124.8 L 28.4 121.6 L 41.9 118.1 L 54.1 114.3 L 64.9 110.1 L 74.1 105.3 L 81.6 100.2 L 87.3 94.6 L 89.85517244338989 90.8 L 19.0 90.8 L 19.0 86.8 L 91.90967741012574 86.8 L 93.4 82.6 L 94.0 75.9 L 94.0 73.5 L 106.0 75.9 L 109.0 77.9 Z M 15.0 67.6 L 94.0 67.6 L 94.0 53.8 L 30.0 53.8 L 30.0 49.8 L 94.0 49.8 L 94.0 36.0 L 22.0 36.0 L 22.0 32.0 L 73.2185185432434 32.0 L 71.3 30.6 L 70.7 29.1 L 70.0 27.5 L 69.0 25.8 L 67.7 24.0 L 66.3 22.2 L 64.6 20.3 L 62.7 18.4 L 60.6 16.5 L 58.2 14.4 L 55.5 12.8 L 56.2 11.1 L 59.3 12.2 L 62.5 13.0 L 65.4 14.0 L 68.2 15.1 L 70.8 16.3 L 73.2 17.6 L 75.5 19.1 L 77.7 20.7 L 79.6 22.4 L 81.5 24.3 L 82.1 28.8 L 79.91052627563477 32.0 L 117.6960000038147 32.0 L 119.1 30.7 L 121.4 27.9 L 123.6 25.3 L 125.8 22.8 L 127.8 20.4 L 129.7 18.1 L 131.4 15.8 L 133.0 13.7 L 134.5 11.6 L 135.29670057296752 10.374306774139404 L 135.2 10.3 L 135.7087718963623 9.740350914001464 L 135.8 9.6 L 135.82001123428344 9.617987632751465 L 136.2 9.2 L 144.7 17.6 L 145.6 21.1 L 141.29001636505126 20.268248748779296 L 140.3 21.0 L 137.9 22.7 L 135.4 24.4 L 132.8 26.1 L 130.0 27.8 L 127.1 29.5 L 124.0 31.2 L 122.35 32.0 L 156.0 32.0 L 166.0 22.0 L 178.0 32.0 L 178.0 36.0 L 106.0 36.0 L 106.0 49.8 L 151.8181818008423 49.8 L 160.0 40.8 L 170.0 49.8 L 170.0 53.8 L 106.0 53.8 L 106.0 67.6 L 166.8181818008423 67.6 L 175.0 58.6 L 185.0 67.6 L 185.0 71.6 L 15.0 71.6 Z " />
</g>
</svg>
