<svg xmlns="http://www.w3.org/2000/svg" xmlns:xlink="http://www.w3.org/1999/xlink" version="1.1" baseProfile="full" viewBox="0 0 200 200" width="200" height="200">
<g fill="black">
<path d="M 112.2 19.3 L 114.5 22.0 L 111.06182336807251 22.982336139678956 L 108.8 30.3 L 105.3 41.1 L 101.6 51.6 L 97.7 61.9 L 93.7 72.0 L 92.68000001907349 74.38000001907349 L 97.6 75.2 L 100.6 77.2 L 97.6 79.0 L 97.6 183.1 L 85.6 189.1 L 85.6 90.03333330154419 L 85.0 91.3 L 80.4 100.6 L 75.4 109.6 L 70.1 118.2 L 68.5 117.4 L 72.0 108.0 L 79.0 88.8 L 82.4 79.0 L 85.7 69.0 L 88.9 58.9 L 92.0 48.5 L 95.0 37.9 L 97.9 27.2 L 100.35228090286255 17.209226036071776 L 100.3 17.2 L 101.0 14.5 Z M 76.0 66.0 L 76.0 70.0 L 46.9 70.0 L 46.9 183.5 L 36.9 188.5 L 36.9 70.0 L 11.6 70.0 L 11.6 66.0 L 54.0 66.0 L 64.0 56.0 Z M 28.9 88.0 L 31.7 90.0 L 28.9 91.75 L 28.9 120.0 L 28.5 128.2 L 27.8 135.9 L 26.9 142.9 L 25.7 149.4 L 24.2 155.3 L 22.5 160.5 L 20.4 165.2 L 18.0 169.1 L 15.2 172.3 L 12.2 174.5 L 11.0 173.4 L 12.4 170.2 L 13.7 166.8 L 14.8 162.9 L 15.8 158.6 L 16.7 153.6 L 17.3 148.1 L 17.8 142.0 L 18.0 135.2 L 18.1 127.9 L 17.9 120.0 L 17.9 86.0 Z M 186.8 163.0 L 186.8 167.0 L 103.8 167.0 L 103.8 163.0 L 164.8 163.0 L 174.8 153.0 Z M 67.4 88.0 L 70.1 90.0 L 67.4 91.72340421676635 L 67.4 155.2 L 56.4 160.7 L 56.4 86.0 Z M 178.7 56.0 L 178.7 60.0 L 112.6 60.0 L 112.6 56.0 L 156.7 56.0 L 166.7 46.0 Z M 67.8 30.0 L 67.8 34.0 L 19.0 34.0 L 19.0 30.0 L 49.61818180084229 30.0 L 57.8 21.0 Z " />
</g>
</svg>
