<svg xmlns="http://www.w3.org/2000/svg" xmlns:xlink="http://www.w3.org/1999/xlink" version="1.1" baseProfile="full" viewBox="0 0 200 200" width="200" height="200">
<g fill="black">
<path d="M 144.9 101.7 L 146.6 104.8 L 142.22639245986937 105.02622108459472 L 141.6 105.8 L 138.2 109.6 L 136.4 111.5 L 134.6 113.2 L 132.7 114.9 L 129.9 117.0 L 167.1 117.0 L 173.1 112.0 L 184.1 121.0 L 179.1 125.0 L 179.1 179.0 L 167.1 185.0 L 167.1 175.0 L 106.7 175.0 L 106.7 182.0 L 94.7 188.0 L 94.7 111.0 L 106.7 117.0 L 126.43999996185303 117.0 L 126.8 116.4 L 127.7 114.1 L 128.5 111.9 L 129.4 109.6 L 130.3 107.4 L 131.1 105.1 L 132.0 102.9 L 133.6 98.3 L 134.0113049507141 96.94856939315795 L 133.9 96.9 L 134.19896907806395 96.33195877075195 L 134.3 96.0 L 134.35743036270142 96.03088235855103 L 134.9 95.0 Z M 106.7 148.0 L 106.7 171.0 L 167.1 171.0 L 167.1 148.0 Z M 13.1 158.0 L 19.6 155.6 L 26.2 153.1 L 32.9 150.6 L 39.6 148.0 L 46.5 145.5 L 50.63999996185303 143.93999996185303 L 49.8 143.8 L 50.8 133.8 L 51.8 124.4 L 52.9 115.6 L 53.9 107.3 L 54.9 99.5 L 55.7 92.2 L 56.5 85.4 L 57.1 79.1 L 57.6 73.4 L 57.92300319671631 69.20095844268799 L 57.9 69.2 L 57.95714282989502 68.75714282989502 L 58.0 68.2 L 58.02856760025024 68.20360097885131 L 58.3 66.1 L 69.9 69.7 L 72.7 72.1 L 69.16291790008545 73.60653495788574 L 68.9 75.0 L 67.7 80.8 L 66.4 87.0 L 64.9 93.7 L 63.2 100.9 L 61.4 108.6 L 59.3 116.8 L 57.1 125.5 L 54.5 134.6 L 51.779968929290774 143.5104464530945 L 53.4 142.9 L 60.4 140.3 L 67.5 137.8 L 74.8 135.4 L 82.2 133.1 L 83.0 134.8 L 76.3 138.9 L 69.7 142.7 L 63.1 146.3 L 56.5 149.8 L 49.9 153.2 L 36.9 159.8 L 24.1 166.0 L 21.548943614959718 167.25528173446656 L 20.8 171.0 L 17.8 169.1 L 11.3 158.8 Z M 106.7 121.0 L 106.7 144.0 L 167.1 144.0 L 167.1 121.0 Z M 29.2 120.3 L 28.9 113.9 L 28.5 107.5 L 28.0 101.1 L 26.8 88.3 L 26.1 82.0 L 25.4 75.6 L 24.9 69.1 L 26.6 68.7 L 29.1 74.7 L 31.3 80.8 L 33.2 87.1 L 34.9 93.4 L 36.4 99.8 L 37.7 106.3 L 38.9 112.8 L 39.9 119.4 L 40.7 126.0 L 41.4 132.7 L 39.8 137.0 L 35.7 138.9 L 31.4 137.3 L 29.4 133.2 L 29.4 126.8 Z M 134.1 29.0 L 129.1 33.0 L 129.1 96.0 L 117.1 102.0 L 117.1 71.10344829559327 L 114.7 74.0 L 111.4 77.5 L 107.8 81.0 L 103.8 84.4 L 99.6 87.9 L 95.0 91.2 L 90.0 94.5 L 84.6 97.7 L 78.9 100.7 L 77.8 99.2 L 82.4 94.7 L 86.7 90.3 L 90.7 86.2 L 94.5 82.2 L 97.9 78.4 L 101.0 74.6 L 103.7 71.0 L 106.1 67.5 L 108.2 64.1 L 109.47027568817138 61.63417072296143 L 109.4 61.6 L 109.83108110427857 60.93378381729126 L 109.9 60.8 L 109.91279211044312 60.80750303268432 L 110.5 59.9 L 117.1 64.61428575515747 L 117.1 41.29482755661011 L 113.35494842529297 41.23025770187378 L 113.3 41.3 L 110.5 44.6 L 107.5 47.8 L 104.2 51.1 L 100.7 54.3 L 96.9 57.5 L 92.8 60.7 L 88.5 63.8 L 83.9 66.7 L 78.9 69.7 L 77.8 68.2 L 81.5 64.0 L 85.1 59.9 L 88.5 56.0 L 91.7 52.2 L 94.6 48.5 L 97.3 45.0 L 99.8 41.5 L 102.0 38.1 L 104.0 34.8 L 105.21718282699585 32.50883226394653 L 105.2 32.5 L 105.3222222328186 32.31111106872559 L 105.7 31.6 L 105.75857257843018 31.636751461029053 L 106.3 30.8 L 115.9 38.0 L 117.1 40.63999996185303 L 117.1 29.0 L 79.4 29.0 L 79.4 25.0 L 117.1 25.0 L 123.1 20.0 Z M 188.4 29.0 L 183.4 33.0 L 183.4 96.0 L 171.4 102.0 L 171.4 69.63103446960449 L 168.24126987457277 69.35873012542724 L 165.3 72.3 L 162.2 75.3 L 158.9 78.2 L 155.3 81.1 L 151.6 84.0 L 147.6 86.8 L 143.4 89.5 L 139.0 92.1 L 134.3 94.7 L 133.2 93.2 L 136.8 89.4 L 140.2 85.6 L 143.5 82.1 L 146.7 78.6 L 149.6 75.2 L 152.4 71.9 L 154.9 68.6 L 157.3 65.4 L 159.4 62.3 L 160.7797721862793 60.04879274368286 L 160.7 60.0 L 161.19866666793823 59.36533336639404 L 161.3 59.2 L 161.31813936233522 59.21327724456787 L 161.8 58.6 L 171.0 66.3 L 171.4 67.4333333015442 L 171.4 29.0 L 138.0 29.0 L 138.0 25.0 L 171.4 25.0 L 177.4 20.0 Z M 170.0 37.2 L 171.3 40.6 L 167.19110851287843 40.31662817001343 L 164.7 42.9 L 161.8 45.7 L 158.6 48.4 L 155.3 51.1 L 151.8 53.7 L 148.0 56.3 L 144.0 58.9 L 139.7 61.3 L 135.3 63.7 L 134.3 62.2 L 137.7 58.7 L 140.9 55.1 L 144.0 51.7 L 146.9 48.4 L 149.7 45.2 L 152.2 42.1 L 154.5 39.0 L 156.6 36.1 L 158.5 33.1 L 159.68427448272706 31.14943027496338 L 159.6 31.1 L 160.7 29.6 Z M 13.7 56.0 L 39.6 56.0 L 39.6 17.0 L 51.6 19.0 L 54.6 21.0 L 51.6 22.8 L 51.6 56.0 L 58.9 56.0 L 68.9 46.0 L 80.9 56.0 L 80.9 60.0 L 13.7 60.0 Z " />
</g>
</svg>
