<svg xmlns="http://www.w3.org/2000/svg" xmlns:xlink="http://www.w3.org/1999/xlink" version="1.1" baseProfile="full" viewBox="0 0 200 200" width="200" height="200">
<g fill="black">
<path d="M 15.7 175.1 L 94.0 175.1 L 94.0 133.6 L 34.3 133.6 L 34.3 129.6 L 94.0 129.6 L 94.0 88.8 L 25.5 88.8 L 25.5 84.8 L 152.4 84.8 L 162.4 74.8 L 174.4 84.8 L 174.4 88.8 L 106.0 88.8 L 106.0 129.6 L 143.6 129.6 L 153.6 119.6 L 165.6 129.6 L 165.6 133.6 L 106.0 133.6 L 106.0 175.1 L 162.2 175.1 L 172.2 165.1 L 184.2 175.1 L 184.2 179.1 L 15.7 179.1 Z M 66.4 64.6 L 65.1 61.7 L 63.5 58.7 L 61.7 55.8 L 59.6 52.9 L 57.2 50.0 L 54.5 47.0 L 51.6 43.9 L 49.21034479141235 41.8 L 44.92957744598389 41.8 L 42.8 46.0 L 38.9 52.7 L 34.5 59.3 L 29.7 65.5 L 24.5 71.4 L 18.8 77.0 L 12.6 82.2 L 11.3 80.9 L 15.9 74.5 L 20.3 68.1 L 24.3 61.7 L 28.1 55.2 L 31.4 48.6 L 34.4 41.9 L 37.1 35.1 L 39.4 28.1 L 41.3 21.0 L 42.9 13.7 L 42.91361255645752 13.703141403198241 L 43.3 11.9 L 54.6 16.4 L 57.0 19.0 L 53.44167966842652 20.164541244506836 L 52.2 24.2 L 49.5 31.7 L 46.87361106872559 37.8 L 84.0 37.8 L 94.0 27.8 L 106.0 37.8 L 106.0 41.8 L 54.18000001907349 41.8 L 57.3 43.4 L 61.0 45.6 L 64.4 48.0 L 67.6 50.5 L 70.5 53.3 L 73.2 56.3 L 75.6 59.4 L 77.7 62.7 L 79.5 66.2 L 79.3 70.8 L 76.0 73.9 L 71.4 73.7 L 68.3 70.4 L 67.5 67.5 Z M 145.4 64.6 L 144.1 61.7 L 142.5 58.7 L 140.7 55.8 L 138.6 52.9 L 136.2 50.0 L 133.5 47.0 L 130.6 43.9 L 128.21034479141235 41.8 L 123.39090909957886 41.8 L 121.8 44.8 L 117.8 51.2 L 113.4 57.2 L 108.6 62.9 L 103.4 68.2 L 97.7 73.1 L 91.5 77.5 L 90.4 76.1 L 95.0 70.4 L 99.4 64.6 L 103.4 58.8 L 107.1 52.9 L 110.5 46.8 L 113.5 40.6 L 116.1 34.2 L 118.4 27.6 L 120.3 20.7 L 121.9 13.7 L 121.91358880996704 13.703252029418945 L 122.3 11.9 L 133.6 16.5 L 136.0 19.1 L 132.3899269104004 20.281478500366212 L 131.2 24.0 L 128.5 31.2 L 125.48285713195801 37.8 L 164.0 37.8 L 174.0 27.8 L 186.0 37.8 L 186.0 41.8 L 133.18000001907347 41.8 L 136.3 43.4 L 140.0 45.6 L 143.4 48.0 L 146.6 50.5 L 149.5 53.3 L 152.2 56.3 L 154.6 59.4 L 156.7 62.7 L 158.5 66.2 L 158.3 70.8 L 155.0 73.9 L 150.4 73.7 L 147.3 70.4 L 146.5 67.5 Z " />
</g>
</svg>
