<svg xmlns="http://www.w3.org/2000/svg" xmlns:xlink="http://www.w3.org/1999/xlink" version="1.1" baseProfile="full" viewBox="0 0 200 200" width="200" height="200">
<g fill="black">
<path d="M 134.35688581466675 101.9117865562439 L 138.2 97.6 L 142.1 93.0 L 145.9 88.4 L 149.5 83.8 L 152.9 79.0 L 156.09555559158326 74.20666666030884 L 154.0 71.2 L 151.4 67.9 L 148.8 64.7 L 145.9 61.4 L 142.8 58.3 L 143.8 56.8 L 147.9 58.7 L 151.9 60.9 L 155.7 63.5 L 159.2 66.2 L 160.1844374656677 67.1247745513916 L 161.9 64.0 L 164.4 58.7 L 166.4 54.2 L 167.3 52.1 L 177.7 58.4 L 179.5 61.5 L 175.70418844223022 61.89267015457153 L 174.5 64.0 L 171.1 69.4 L 167.5 74.6 L 167.4307282447815 74.68880996704101 L 168.6 76.1 L 171.3 79.8 L 173.8 83.7 L 176.0 87.8 L 176.0 92.4 L 172.8 95.7 L 168.3 95.7 L 165.0 92.5 L 163.6 88.7 L 162.1 85.0 L 160.93023252487183 82.66046514511109 L 159.5 84.3 L 155.2 88.8 L 150.6 93.0 L 145.8 96.9 L 140.6 100.5 L 135.2 103.7 L 134.3346357345581 102.5199577331543 L 134.2 106.2 L 133.25480222702026 112.99642181396484 L 135.3 120.7 L 138.9 131.0 L 143.0 140.2 L 144.44337072372437 142.58598012924193 L 145.5 141.5 L 149.1 137.7 L 152.6 133.7 L 156.0 129.6 L 159.3 125.2 L 160.65068368911744 123.27629899978638 L 160.4 122.8 L 158.3 119.1 L 156.0 115.5 L 153.7 112.1 L 151.2 108.6 L 148.5 105.3 L 149.6 103.9 L 153.5 106.1 L 157.2 108.6 L 160.7 111.4 L 164.1 114.6 L 165.40238094329834 116.07043008804321 L 165.7 115.6 L 168.8 110.3 L 171.8 104.8 L 174.24111108779908 99.91777782440185 L 174.2 99.9 L 175.2 98.0 L 185.3 104.7 L 187.0 107.8 L 183.23590507507325 107.99139461517333 L 181.6 110.6 L 177.8 116.1 L 173.9 121.3 L 171.68717594146727 124.01070938110351 L 172.9 125.7 L 175.5 129.9 L 177.9 134.4 L 180.1 139.0 L 179.9 143.6 L 176.6 146.8 L 172.1 146.5 L 168.9 143.2 L 167.5 138.8 L 165.9 134.6 L 164.71276426315308 131.73666667938232 L 161.5 134.8 L 157.1 138.5 L 152.5 141.8 L 147.8 144.5 L 146.07087383270263 145.27634239196777 L 147.9 148.3 L 153.4 155.3 L 159.5 161.3 L 166.2 166.4 L 173.6 170.5 L 181.8 173.8 L 188.7 176.3 L 177.2 186.1 L 167.8 181.6 L 159.4 176.0 L 151.9 169.4 L 145.4 161.7 L 139.9 153.1 L 135.5 143.6 L 132.0 133.3 L 130.6026463508606 127.03985567092896 L 128.5 135.1 L 123.5 147.4 L 116.9 158.3 L 109.0 167.7 L 99.6 175.4 L 88.9 181.6 L 76.9 186.1 L 63.6 188.8 L 63.3 187.1 L 75.6 182.5 L 86.3 176.9 L 95.6 170.2 L 103.4 162.5 L 109.9 153.6 L 115.0 143.5 L 118.9 132.2 L 121.5 119.5 L 122.8 105.5 L 122.8 90.1 L 122.86557378768921 90.09836063385009 L 122.8 90.0 L 122.8 46.0 L 74.2 46.0 L 74.2 42.0 L 122.8 42.0 L 122.8 13.0 L 134.8 15.0 L 137.8 17.0 L 134.8 18.8 L 134.8 42.0 L 165.3 42.0 L 175.3 32.0 L 187.3 42.0 L 187.3 46.0 L 134.8 46.0 L 134.8 90.0 L 134.79225807189943 90.01161289215088 Z M 12.2 158.1 L 30.8 150.6 L 37.2 148.1 L 43.6 145.5 L 47.613513469696045 143.91891889572145 L 46.9 143.8 L 47.7 133.9 L 48.7 124.5 L 49.6 115.6 L 50.6 107.3 L 51.5 99.5 L 52.2 92.2 L 52.9 85.4 L 53.5 79.2 L 54.0 73.4 L 54.2422061920166 69.20175857543946 L 54.2 69.2 L 54.27652177810669 68.6069564819336 L 54.3 68.2 L 54.328567600250246 68.20360097885131 L 54.6 66.1 L 66.2 69.7 L 69.0 72.0 L 65.52996063232422 73.57133855819703 L 65.3 74.9 L 64.1 80.7 L 62.8 87.0 L 61.4 93.7 L 59.8 100.9 L 58.1 108.6 L 56.1 116.8 L 53.9 125.4 L 51.5 134.5 L 48.90071325302124 143.41184024810792 L 50.2 142.9 L 56.8 140.4 L 63.5 137.8 L 70.4 135.4 L 77.4 133.1 L 78.2 134.8 L 72.0 138.8 L 65.8 142.7 L 59.6 146.3 L 53.4 149.8 L 47.2 153.2 L 41.1 156.5 L 35.1 159.7 L 29.0 162.9 L 23.1 166.0 L 20.884633350372315 167.1264575958252 L 20.3 170.9 L 17.2 169.0 L 10.4 158.9 Z M 98.4 135.6 L 96.99412250518799 132.45745029449463 L 96.3 133.2 L 91.7 137.6 L 86.8 141.6 L 81.8 145.4 L 76.4 148.7 L 70.8 151.7 L 69.8 150.2 L 74.1 145.8 L 78.3 141.3 L 82.3 136.8 L 86.2 132.3 L 89.9 127.6 L 92.62511625289918 123.86269769668579 L 91.0 121.1 L 88.9 117.8 L 86.7 114.6 L 84.6 111.3 L 82.2 108.3 L 83.3 106.9 L 86.8 109.0 L 90.2 111.2 L 93.4 113.8 L 96.5 116.7 L 97.03352069854736 117.25130472183227 L 99.8 112.7 L 102.7 107.4 L 105.02718286514282 102.9118616104126 L 105.0 102.9 L 106.0 101.0 L 116.0 107.7 L 117.7 110.9 L 113.9185022354126 111.03039646148682 L 112.5 113.3 L 108.8 118.6 L 104.8 123.7 L 103.73984966278076 124.9368420600891 L 105.1 126.7 L 107.7 130.5 L 110.2 134.6 L 112.6 138.8 L 112.6 143.3 L 109.5 146.7 L 105.0 146.8 L 101.6 143.7 L 100.1 139.5 Z M 27.2 120.3 L 27.0 113.8 L 26.7 107.4 L 26.2 101.0 L 25.7 94.7 L 24.5 81.9 L 23.9 75.6 L 23.4 69.1 L 25.2 68.7 L 27.6 74.7 L 29.8 80.9 L 31.6 87.1 L 33.2 93.5 L 34.6 99.8 L 35.9 106.3 L 37.0 112.8 L 37.9 119.4 L 38.7 126.0 L 39.4 132.7 L 37.8 137.0 L 33.7 138.9 L 29.4 137.3 L 27.4 133.2 L 27.4 126.7 Z M 103.2 83.7 L 102.61034479141236 82.48793106079101 L 100.8 84.6 L 96.3 89.2 L 91.6 93.4 L 86.6 97.3 L 81.3 100.7 L 75.7 103.7 L 74.6 102.2 L 78.9 97.7 L 83.0 93.3 L 87.0 88.7 L 90.7 84.1 L 94.2 79.3 L 97.4 74.3 L 97.74524698257446 73.72087602615356 L 97.3 73.0 L 95.0 69.7 L 92.5 66.5 L 89.9 63.3 L 87.2 60.2 L 84.3 57.2 L 85.3 55.7 L 89.2 57.6 L 93.1 59.6 L 96.7 62.0 L 100.2 64.8 L 101.93731174468994 66.37937431335449 L 103.3 63.8 L 105.9 58.2 L 108.3 52.4 L 108.30767879486083 52.403451919555664 L 108.8 51.2 L 119.2 57.3 L 121.2 60.3 L 117.3775990486145 60.827227687835695 L 116.1 63.3 L 112.6 69.1 L 109.14768810272217 74.13850927352905 L 109.6 74.7 L 112.4 78.5 L 115.0 82.5 L 117.4 86.8 L 117.5 91.3 L 114.4 94.7 L 109.8 94.8 L 106.5 91.7 L 104.9 87.6 Z M 13.0 56.0 L 37.0 56.0 L 37.0 17.0 L 49.0 19.0 L 52.0 21.0 L 49.0 22.8 L 49.0 56.0 L 54.2 56.0 L 64.2 46.0 L 76.2 56.0 L 76.2 60.0 L 13.0 60.0 Z " />
</g>
</svg>
