<svg xmlns="http://www.w3.org/2000/svg" xmlns:xlink="http://www.w3.org/1999/xlink" version="1.1" baseProfile="full" viewBox="0 0 200 200" width="200" height="200">
<g fill="black">
<path d="M 54.0 124.1 L 52.5 121.9 L 50.7 119.7 L 48.7 117.5 L 46.4 115.2 L 43.8 112.9 L 41.0 110.6 L 37.9 108.1 L 37.52858018875122 107.8596694946289 L 37.3 108.2 L 32.3 114.7 L 26.9 121.0 L 21.0 127.1 L 14.6 132.9 L 13.3 131.7 L 18.1 124.7 L 22.7 117.8 L 26.9 110.9 L 30.9 104.1 L 34.4 97.3 L 37.7 90.5 L 40.5 83.6 L 43.0 76.7 L 45.1 69.8 L 46.66221675872803 63.81150226593017 L 46.6 63.8 L 47.3 61.2 L 58.5 66.0 L 60.9 68.7 L 57.24083290100098 69.72713460922242 L 56.0 73.4 L 53.0 80.6 L 52.30281686782837 82.1 L 84.0 82.1 L 90.0 77.1 L 101.0 86.1 L 96.0 89.1 L 94.72985076904297 89.62922887802124 L 92.2 100.1 L 87.4 114.0 L 81.7 127.0 L 74.9 138.8 L 67.1 149.6 L 58.3 159.3 L 48.5 167.9 L 37.7 175.3 L 26.0 181.5 L 13.3 186.4 L 12.6 184.8 L 24.2 178.2 L 34.7 170.9 L 44.2 162.9 L 52.8 154.1 L 60.3 144.5 L 66.9 134.0 L 72.6 122.7 L 77.3 110.4 L 81.2 97.1 L 83.46241130828858 86.1 L 50.44366197586059 86.1 L 49.7 87.7 L 46.0 94.7 L 41.8 101.5 L 39.073813152313235 105.55898923873902 L 39.2 105.6 L 43.1 106.8 L 46.7 108.2 L 50.1 109.7 L 53.3 111.3 L 56.3 113.1 L 59.1 115.0 L 61.7 117.0 L 64.1 119.2 L 66.3 121.5 L 67.1 126.0 L 64.6 129.9 L 60.1 130.7 L 56.3 128.2 L 55.3 126.2 Z M 138.8 127.1 L 158.8 127.1 L 160.0 127.0 L 160.9 126.8 L 161.5 126.6 L 161.9 126.5 L 162.0 126.3 L 162.2 126.1 L 162.4 125.8 L 162.6 125.2 L 162.7 124.3 L 162.8 123.1 L 162.8 78.3 L 119.4 78.3 L 119.4 169.0 L 119.6 169.9 L 119.8 170.5 L 119.9 170.9 L 120.1 171.0 L 120.3 171.2 L 120.6 171.4 L 121.2 171.6 L 122.1 171.7 L 123.4 171.8 L 173.4 171.8 L 179.4 146.8 L 181.4 146.8 L 179.4 171.8 L 183.0 174.2 L 185.4 177.8 L 183.0 181.4 L 179.4 183.8 L 123.4 183.8 L 120.8 183.6 L 118.3 183.2 L 115.9 182.4 L 113.6 181.2 L 111.6 179.5 L 110.0 177.5 L 108.7 175.2 L 107.9 172.8 L 107.5 170.3 L 107.4 167.8 L 107.4 68.3 L 119.4 74.3 L 162.8 74.3 L 168.8 69.3 L 179.8 78.3 L 174.8 82.3 L 174.8 123.1 L 174.7 125.6 L 174.2 128.1 L 173.4 130.5 L 172.2 132.8 L 170.5 134.8 L 168.5 136.4 L 166.3 137.7 L 163.8 138.5 L 161.4 138.9 L 158.8 139.1 L 158.8 133.1 L 138.8 130.1 Z M 66.6 57.9 L 65.3 55.5 L 63.8 53.1 L 62.0 50.6 L 59.9 48.2 L 57.5 45.6 L 54.8 43.1 L 51.8 40.4 L 49.39166669845581 38.7 L 44.979660987854004 38.7 L 42.6 42.6 L 38.7 48.2 L 34.3 53.6 L 29.5 58.7 L 24.3 63.5 L 18.7 68.0 L 12.5 72.2 L 11.4 70.8 L 16.1 65.3 L 20.4 59.8 L 24.5 54.4 L 28.2 49.0 L 31.6 43.5 L 34.6 37.9 L 37.2 32.3 L 39.5 26.5 L 41.4 20.7 L 42.64779119491577 15.708835315704345 L 42.6 15.7 L 42.86666669845581 14.83333330154419 L 42.9 14.7 L 42.907090473175046 14.701955986022949 L 43.4 13.1 L 54.5 17.9 L 56.8 20.7 L 53.100243949890135 21.691006088256835 L 52.1 24.4 L 49.4 30.7 L 47.26666669845581 34.7 L 84.0 34.7 L 94.0 24.7 L 106.0 34.7 L 106.0 38.7 L 55.28000001907348 38.7 L 57.1 39.4 L 60.7 41.1 L 64.1 42.9 L 67.2 44.9 L 70.1 47.1 L 72.8 49.5 L 75.2 52.0 L 77.3 54.7 L 79.2 57.6 L 79.3 62.2 L 76.2 65.5 L 71.6 65.6 L 68.2 62.5 L 67.5 60.2 Z M 145.6 57.9 L 144.3 55.5 L 142.8 53.1 L 141.0 50.6 L 138.9 48.2 L 136.5 45.6 L 133.8 43.1 L 130.8 40.4 L 128.39166669845582 38.7 L 123.50909090042114 38.7 L 121.6 41.7 L 117.6 46.9 L 113.2 51.9 L 108.4 56.5 L 103.2 60.9 L 97.6 64.8 L 91.5 68.2 L 90.4 66.8 L 95.1 61.8 L 99.5 56.9 L 103.6 52.0 L 107.3 47.1 L 110.7 42.0 L 113.7 36.8 L 116.3 31.5 L 118.5 26.0 L 120.4 20.4 L 121.63504457473755 15.706830692291259 L 121.6 15.7 L 121.85454549789429 14.872727298736573 L 121.9 14.7 L 121.90706825256348 14.702028274536133 L 122.4 13.1 L 133.4 18.0 L 135.8 20.7 L 132.0473138809204 21.70518379211426 L 131.1 24.3 L 128.3 30.4 L 125.92758617401122 34.7 L 164.0 34.7 L 174.0 24.7 L 186.0 34.7 L 186.0 38.7 L 134.2800000190735 38.7 L 136.1 39.4 L 139.7 41.1 L 143.1 42.9 L 146.2 44.9 L 149.1 47.1 L 151.8 49.5 L 154.2 52.0 L 156.3 54.7 L 158.2 57.6 L 158.3 62.2 L 155.2 65.5 L 150.6 65.6 L 147.2 62.5 L 146.5 60.2 Z " />
</g>
</svg>
