<svg xmlns="http://www.w3.org/2000/svg" xmlns:xlink="http://www.w3.org/1999/xlink" version="1.1" baseProfile="full" viewBox="0 0 200 200" width="200" height="200">
<g fill="black">
<path d="M 125.0 176.0 L 145.0 176.0 L 146.2 175.9 L 147.1 175.7 L 148.0 175.4 L 148.4 175.0 L 148.7 174.1 L 148.9 173.2 L 149.0 172.0 L 149.0 123.0 L 109.9716980934143 123.0 L 107.3 128.9 L 98.9 143.6 L 89.5 157.0 L 79.0 169.0 L 67.4 179.6 L 66.2 178.3 L 76.2 166.5 L 85.2 153.9 L 93.3 140.3 L 100.4 125.6 L 101.42675161361694 123.0 L 80.9 123.0 L 80.9 119.0 L 103.00636940002441 119.0 L 106.6 109.9 L 111.8 93.1 L 112.06424579620361 92.0 L 78.6 92.0 L 78.6 88.0 L 113.02513961791992 88.0 L 116.1 75.2 L 117.35052633285522 68.0 L 90.3 68.0 L 90.3 64.0 L 118.04526319503785 64.0 L 119.4 56.2 L 120.78910894393921 44.0 L 83.3 44.0 L 83.3 40.0 L 121.2445544242859 40.0 L 121.7 36.0 L 123.03463611602783 15.599134063720703 L 123.0 15.6 L 123.2 12.4 L 135.0 15.3 L 137.9 17.4 L 134.64501838684083 19.187048721313477 L 133.0 37.2 L 132.59420289993287 40.0 L 161.2 40.0 L 171.2 30.0 L 183.2 40.0 L 183.2 44.0 L 132.01449279785157 44.0 L 130.0 57.9 L 128.71743593215942 64.0 L 156.71818180084227 64.0 L 164.9 55.0 L 174.9 64.0 L 174.9 68.0 L 127.8764102935791 68.0 L 125.9 77.4 L 122.96195650100708 88.0 L 169.71818180084227 88.0 L 177.9 79.0 L 187.9 88.0 L 187.9 92.0 L 121.8532608985901 92.0 L 120.8 95.8 L 114.5 113.0 L 111.78301887512207 119.0 L 149.0 119.0 L 149.0 96.0 L 161.0 98.0 L 164.0 100.0 L 161.0 101.8 L 161.0 119.0 L 165.9 119.0 L 175.9 109.0 L 187.9 119.0 L 187.9 123.0 L 161.0 123.0 L 161.0 172.0 L 160.8 174.5 L 160.4 177.0 L 159.6 179.4 L 158.3 181.7 L 156.7 183.7 L 154.7 185.3 L 152.4 186.6 L 150.0 187.4 L 147.5 187.8 L 145.0 188.0 L 145.0 182.0 L 125.0 179.0 Z M 13.5 158.0 L 20.3 155.6 L 27.0 153.1 L 33.9 150.6 L 40.8 148.0 L 47.9 145.5 L 52.12246694564819 143.95374450683593 L 51.2 143.8 L 52.3 133.8 L 53.4 124.4 L 54.5 115.6 L 55.6 107.2 L 56.6 99.4 L 57.5 92.1 L 58.2 85.4 L 58.9 79.1 L 59.5 73.4 L 59.82406396865845 69.10615196228028 L 59.7 69.1 L 60.2 66.1 L 71.8 69.7 L 74.5 72.1 L 70.99175930023193 73.59425067901611 L 70.7 75.0 L 69.5 80.8 L 68.1 87.0 L 66.6 93.8 L 64.9 101.0 L 63.0 108.7 L 60.9 116.8 L 58.6 125.5 L 56.0 134.6 L 53.166973972320555 143.57124891281128 L 55.0 142.9 L 62.2 140.3 L 69.5 137.8 L 77.0 135.4 L 84.6 133.1 L 85.4 134.8 L 78.5 138.9 L 71.7 142.7 L 64.8 146.4 L 58.0 149.9 L 51.2 153.3 L 44.5 156.6 L 37.8 159.8 L 31.2 163.0 L 24.6 166.1 L 21.834207344055176 167.3765196800232 L 21.1 171.1 L 18.1 169.1 L 11.7 158.8 Z M 126.9 154.2 L 125.8 151.7 L 124.5 149.2 L 122.8 146.6 L 120.8 144.0 L 118.4 141.3 L 115.8 138.6 L 112.9 135.8 L 109.6 133.2 L 110.4 131.6 L 114.4 133.4 L 118.3 135.0 L 121.9 136.8 L 125.3 138.9 L 128.3 141.1 L 131.2 143.6 L 133.7 146.2 L 136.0 149.0 L 138.0 152.0 L 139.7 155.2 L 139.3 159.7 L 136.0 162.8 L 131.4 162.5 L 128.3 159.1 L 127.8 156.7 Z M 30.2 120.3 L 29.9 113.9 L 28.9 101.1 L 28.3 94.7 L 27.6 88.4 L 26.2 75.6 L 25.6 69.2 L 27.3 68.7 L 29.9 74.7 L 32.1 80.8 L 34.1 87.1 L 35.8 93.4 L 37.3 99.8 L 38.7 106.2 L 39.8 112.8 L 40.8 119.3 L 41.7 126.0 L 42.4 132.7 L 40.8 136.9 L 36.7 138.9 L 32.4 137.4 L 30.4 133.2 L 30.3 126.8 Z M 14.1 56.0 L 40.9 56.0 L 40.9 17.0 L 52.9 19.0 L 55.9 21.0 L 52.9 22.8 L 52.9 56.0 L 61.3 56.0 L 71.3 46.0 L 83.3 56.0 L 83.3 60.0 L 14.1 60.0 Z " />
</g>
</svg>
