<svg xmlns="http://www.w3.org/2000/svg" xmlns:xlink="http://www.w3.org/1999/xlink" version="1.1" baseProfile="full" viewBox="0 0 200 200" width="200" height="200">
<g fill="black">
<path d="M 176.8 163.1 L 175.4 165.1 L 173.7 166.9 L 171.8 168.5 L 169.7 169.8 L 167.4 170.8 L 165.0 171.4 L 162.5 171.8 L 160.0 172.0 L 160.0 166.0 L 150.0 163.0 L 150.0 160.0 L 160.0 160.0 L 161.3 159.9 L 162.5 159.7 L 163.4 159.4 L 164.2 159.1 L 164.9 158.7 L 165.5 158.2 L 166.1 157.6 L 166.6 156.8 L 167.2 155.8 L 167.7 154.5 L 168.2 152.9 L 168.7 150.6 L 169.1 147.7 L 169.6 144.2 L 169.9 140.1 L 170.2 135.6 L 170.5 130.4 L 170.6 124.8 L 170.7 118.6 L 170.7696969985962 114.0 L 137.4 114.0 L 137.4 182.0 L 125.4 188.0 L 125.4 114.0 L 83.2 114.0 L 83.2 110.0 L 125.4 110.0 L 125.4 81.0 L 90.9 81.0 L 90.9 77.0 L 125.4 77.0 L 125.4 48.0 L 86.0 48.0 L 86.0 44.0 L 125.4 44.0 L 125.4 12.0 L 137.4 14.0 L 140.4 16.0 L 137.4 17.8 L 137.4 44.0 L 162.5 44.0 L 172.5 34.0 L 184.5 44.0 L 184.5 48.0 L 137.4 48.0 L 137.4 77.0 L 156.7 77.0 L 166.7 67.0 L 178.7 77.0 L 178.7 81.0 L 137.4 81.0 L 137.4 110.0 L 170.8 110.0 L 176.8 105.0 L 187.8 114.0 L 182.8 117.0 L 182.72601728439332 117.03082618713378 L 182.7 118.8 L 182.6 125.1 L 182.4 130.9 L 182.2 136.2 L 181.9 141.1 L 181.5 145.4 L 181.0 149.3 L 180.5 152.8 L 179.8 155.8 L 179.0 158.5 L 178.0 160.9 Z M 67.8 116.4 L 66.3 114.1 L 64.6 111.9 L 62.8 109.6 L 60.7 107.4 L 58.5 105.1 L 56.1 102.9 L 54.4 101.33599996566772 L 54.4 182.0 L 42.4 188.0 L 42.4 108.63333330154418 L 40.5 113.7 L 36.9 122.2 L 32.9 130.3 L 28.6 138.0 L 24.0 145.4 L 18.9 152.3 L 13.3 158.7 L 11.9 157.6 L 15.7 150.2 L 19.3 142.7 L 22.8 135.0 L 26.0 127.1 L 29.0 119.0 L 31.7 110.6 L 34.2 102.0 L 36.3 93.1 L 38.2 83.9 L 39.26265058517456 77.6 L 12.6 77.6 L 12.6 73.6 L 42.4 73.6 L 42.4 40.34927539825439 L 38.3 41.3 L 31.0 42.9 L 23.0 44.4 L 14.6 45.6 L 14.1 43.9 L 22.0 40.7 L 29.4 37.8 L 36.4 35.1 L 42.8 32.5 L 48.7 29.9 L 54.1 27.5 L 59.0 25.0 L 63.4 22.7 L 67.1 20.4 L 70.4 18.2 L 72.84692335128784 22.26505002975464 L 78.0 27.6 L 78.1 31.1 L 74.43418083190917 29.556497192382814 L 72.5 30.5 L 68.0 32.4 L 63.0 34.3 L 57.5 36.1 L 54.4 37.04576272964478 L 54.4 73.6 L 59.5 73.6 L 69.5 63.6 L 81.5 73.6 L 81.5 77.6 L 54.4 77.6 L 54.4 98.0666666984558 L 54.8 98.2 L 58.3 99.3 L 61.5 100.5 L 64.7 102.0 L 67.6 103.7 L 70.5 105.5 L 73.2 107.5 L 75.7 109.7 L 78.1 112.0 L 80.4 114.5 L 81.2 119.0 L 78.7 122.8 L 74.2 123.7 L 70.4 121.1 L 69.2 118.8 Z " />
</g>
</svg>
