<svg xmlns="http://www.w3.org/2000/svg" xmlns:xlink="http://www.w3.org/1999/xlink" version="1.1" baseProfile="full" viewBox="0 0 200 200" width="200" height="200">
<g fill="black">
<path d="M 157.9 176.6 L 149.4 172.9 L 141.3 168.9 L 133.7 164.6 L 126.5 160.0 L 119.8 155.1 L 113.6 149.8 L 108.0 144.1 L 106.0 141.6199999809265 L 106.0 182.1 L 94.0 188.1 L 94.0 144.18000001907347 L 91.6 146.7 L 85.0 152.6 L 77.9 158.1 L 70.3 163.2 L 62.1 167.9 L 53.4 172.2 L 44.2 176.1 L 34.4 179.6 L 24.1 182.5 L 13.2 184.9 L 12.7 183.2 L 22.9 179.0 L 32.4 174.6 L 41.5 170.2 L 49.9 165.5 L 57.8 160.6 L 65.1 155.5 L 71.7 150.2 L 77.8 144.6 L 83.4 138.8 L 83.55454549789428 138.6 L 15.0 138.6 L 15.0 134.6 L 94.0 134.6 L 94.0 99.7 L 106.0 101.7 L 109.0 103.7 L 106.0 105.5 L 106.0 134.6 L 118.49473686218262 134.6 L 120.6 132.1 L 123.5 128.4 L 126.4 124.9 L 129.0 121.6 L 131.5 118.4 L 133.7 115.5 L 135.8 112.6 L 137.6 110.0 L 139.2 107.5 L 140.08087463378905 106.05284881591797 L 140.0 106.0 L 140.5416666984558 105.29583330154419 L 140.6 105.2 L 140.60962028503417 105.20749368667603 L 141.0 104.7 L 150.1 112.6 L 151.2 116.0 L 147.0307478904724 115.49681444168091 L 145.5 116.9 L 142.9 119.2 L 140.1 121.6 L 137.1 124.0 L 133.9 126.6 L 130.4 129.2 L 126.7 131.8 L 122.7 134.4 L 122.41034479141236 134.6 L 163.0 134.6 L 173.0 124.6 L 185.0 134.6 L 185.0 138.6 L 107.19523811340332 138.6 L 110.7 140.9 L 117.2 145.1 L 123.8 149.1 L 130.8 152.8 L 138.1 156.4 L 145.7 159.7 L 153.6 162.7 L 161.9 165.5 L 170.6 168.0 L 179.7 170.3 L 187.9 172.5 L 176.2 183.1 L 166.9 180.0 Z M 66.5 126.7 L 65.1 124.9 L 63.4 122.9 L 61.3 120.8 L 59.0 118.6 L 56.3 116.4 L 53.4 114.0 L 50.1 111.6 L 46.5 109.3 L 47.2 107.7 L 51.3 109.1 L 55.3 110.3 L 59.0 111.6 L 62.5 113.0 L 65.7 114.5 L 68.6 116.0 L 71.4 117.7 L 73.9 119.4 L 76.1 121.3 L 78.2 123.3 L 79.1 127.8 L 76.7 131.7 L 72.2 132.6 L 68.3 130.1 L 67.6 128.5 Z M 36.03389825820923 73.3 L 79.0 73.3 L 79.0 45.5 L 37.0 45.5 L 37.0 64.7 L 36.4 70.9 Z M 158.0 95.2 L 149.5 90.8 L 141.7 85.8 L 137.3526315689087 82.5084210395813 L 128.7 87.7 L 118.1 92.4 L 106.5 96.2 L 93.8 98.9 L 80.1 100.6 L 79.8 98.9 L 92.9 95.2 L 104.8 91.1 L 115.5 86.4 L 124.9 81.1 L 130.83305006027223 76.8825306892395 L 128.5 74.7 L 123.1 68.4 L 118.6 61.8 L 115.0 54.7 L 113.5 50.2 L 112.1 51.6 L 107.6 55.5 L 102.7 59.0 L 97.5 62.1 L 96.4 60.7 L 100.2 56.2 L 103.8 51.7 L 107.2 47.2 L 110.4 42.6 L 113.4 38.0 L 116.2 33.2 L 118.7 28.4 L 121.1 23.4 L 123.1 18.2 L 124.63756256103515 13.911009693145752 L 124.6 13.9 L 125.5 11.6 L 136.2 17.3 L 138.3 20.2 L 134.48462057113647 20.857824039459228 L 133.5 22.9 L 130.6 28.2 L 127.4 33.4 L 125.73469390869141 35.8 L 164.0 35.8 L 174.0 25.8 L 186.0 35.8 L 186.0 39.8 L 168.62038831710817 39.8 L 165.1 49.6 L 160.1 59.1 L 154.0 67.7 L 146.7 75.3 L 145.56820087432862 76.19212408065796 L 147.2 77.2 L 154.6 81.0 L 162.7 84.4 L 171.4 87.5 L 180.8 90.2 L 188.8 92.5 L 177.1 102.8 L 167.2 99.2 Z M 122.81914892196656 39.8 L 120.3 43.0 L 116.3 47.4 L 115.45714282989502 48.24285717010498 L 118.6 52.6 L 123.4 58.3 L 128.5 63.6 L 134.2 68.5 L 137.6501519203186 71.00414247512818 L 140.2 68.6 L 146.1 61.5 L 150.8 53.8 L 154.5 45.4 L 156.04736843109131 39.8 Z M 36.621359252929686 25.810679626464843 L 38.0 25.5 L 45.0 23.9 L 51.6 22.5 L 58.1 21.1 L 64.3 19.6 L 70.2 18.2 L 75.9 16.7 L 81.3 15.1 L 86.5 13.6 L 90.4154535293579 12.241577339172363 L 90.4 12.2 L 90.43961820602416 12.233193683624268 L 91.4 11.9 L 91.80824241638183 13.379878807067872 L 101.5 21.5 L 101.8 24.6 L 97.53364744186402 22.64966735839844 L 94.6 23.5 L 89.3 24.6 L 83.7 25.6 L 77.9 26.5 L 71.9 27.3 L 65.7 28.0 L 59.2 28.6 L 52.5 29.0 L 45.6 29.2 L 38.4 29.2 L 37.0 29.14324321746826 L 37.0 41.5 L 79.0 41.5 L 85.0 36.5 L 96.0 45.5 L 91.0 49.5 L 91.0 79.3 L 79.0 85.3 L 79.0 77.3 L 35.379310321807864 77.3 L 34.1 82.6 L 32.4 88.1 L 30.2 93.3 L 27.5 98.3 L 24.5 103.0 L 21.0 107.4 L 17.0 111.4 L 12.6 115.0 L 11.3 113.8 L 14.1 109.1 L 16.6 104.4 L 18.8 99.7 L 20.7 95.1 L 22.2 90.3 L 23.5 85.4 L 24.3 80.5 L 24.9 75.3 L 25.1 70.1 L 25.0 64.7 L 25.0 20.0 Z " />
</g>
</svg>
