<svg xmlns="http://www.w3.org/2000/svg" xmlns:xlink="http://www.w3.org/1999/xlink" version="1.1" baseProfile="full" viewBox="0 0 200 200" width="200" height="200">
<g fill="black">
<path d="M 126.9 131.9 L 123.8 126.8 L 120.5366452217102 121.80898685455323 L 117.9 130.7 L 112.5 143.9 L 105.9 155.8 L 98.2 166.3 L 89.3 175.3 L 79.3 182.8 L 68.3 188.7 L 67.5 187.2 L 77.1 179.8 L 85.6 171.5 L 93.0 162.3 L 99.4 151.9 L 104.7 140.5 L 109.1 127.9 L 112.4 114.0 L 112.65112953186035 112.35128011703492 L 111.9 111.5 L 107.0 106.5 L 101.6 101.5 L 95.8 96.4 L 89.6 91.2 L 90.5 89.7 L 97.9 93.3 L 104.8 97.2 L 111.2 101.4 L 113.98810071945191 103.57377347946166 L 114.7 98.9 L 116.0 82.6 L 116.2 65.0 L 116.2 63.0 L 86.0 63.0 L 86.0 59.0 L 116.2 59.0 L 116.2 15.0 L 128.2 17.0 L 131.2 19.0 L 128.2 20.8 L 128.2 59.0 L 151.4 59.0 L 157.4 54.0 L 168.4 63.0 L 163.4 67.0 L 163.4 170.2 L 163.6 171.1 L 163.9 172.0 L 164.3 172.4 L 165.2 172.7 L 166.1 172.9 L 167.4 173.0 L 176.9 173.0 L 182.9 148.0 L 184.9 148.0 L 182.9 173.0 L 186.5 175.4 L 188.9 179.0 L 186.5 182.6 L 182.9 185.0 L 167.4 185.0 L 164.8 184.8 L 162.3 184.4 L 159.9 183.6 L 157.6 182.3 L 155.6 180.7 L 154.0 178.7 L 152.7 176.4 L 151.9 174.0 L 151.5 171.5 L 151.4 169.0 L 151.4 63.0 L 128.2 63.0 L 128.2 65.0 L 127.3 83.3 L 125.4 100.3 L 123.1864764213562 111.29844532012939 L 127.5 115.7 L 132.0 120.9 L 136.0 126.4 L 139.5 132.0 L 142.6 137.9 L 142.5 142.5 L 139.3 145.7 L 134.8 145.7 L 131.5 142.5 L 129.4 137.2 Z M 72.7 127.5 L 70.7 124.4 L 68.5 121.2 L 66.1 118.0 L 63.6 114.8 L 60.9 111.5 L 58.0 108.2 L 57.4 107.52258062362671 L 57.4 181.0 L 45.4 187.0 L 45.4 115.38999996185302 L 45.1 116.3 L 41.7 124.9 L 37.9 133.1 L 33.7 141.0 L 29.2 148.4 L 24.2 155.3 L 18.8 161.7 L 12.9 167.5 L 11.6 166.4 L 15.8 159.4 L 19.8 152.4 L 23.5 145.1 L 27.0 137.6 L 30.1 129.8 L 33.0 121.6 L 35.5 113.2 L 37.7 104.4 L 39.6 95.3 L 40.66265058517456 89.0 L 13.1 89.0 L 13.1 85.0 L 45.4 85.0 L 45.4 14.0 L 57.4 16.0 L 60.4 18.0 L 57.4 19.8 L 57.4 85.0 L 66.8 85.0 L 76.8 75.0 L 88.8 85.0 L 88.8 89.0 L 57.4 89.0 L 57.4 102.4243902206421 L 61.1 104.5 L 64.9 107.0 L 68.5 109.7 L 72.0 112.4 L 75.2 115.2 L 78.2 118.1 L 81.1 121.1 L 83.7 124.1 L 86.2 127.2 L 86.9 131.7 L 84.3 135.5 L 79.8 136.2 L 76.1 133.6 L 74.5 130.6 Z M 86.3 33.0 L 88.4 35.9 L 84.58155336380005 36.63689317703247 L 82.7 40.4 L 80.7 44.3 L 78.5 48.3 L 76.2 52.4 L 73.8 56.6 L 71.1 61.0 L 68.3 65.4 L 65.1 69.8 L 61.8 74.4 L 60.2 73.5 L 61.9 68.2 L 63.6 63.1 L 65.3 58.2 L 67.0 53.5 L 68.6 48.9 L 70.1 44.6 L 71.5 40.4 L 72.8 36.4 L 74.0 32.5 L 74.72766695022582 29.8076322555542 L 74.7 29.8 L 74.85714282989503 29.32857141494751 L 75.0 28.8 L 75.02965879440308 28.81102361679077 L 75.5 27.4 Z M 27.7 62.7 L 27.1 59.3 L 26.4 55.7 L 25.4 51.9 L 24.4 47.9 L 23.2 43.8 L 21.9 39.5 L 20.5 34.9 L 18.9 30.3 L 20.5 29.4 L 23.4 33.5 L 26.2 37.4 L 28.7 41.3 L 30.9 45.2 L 33.0 49.0 L 34.8 52.7 L 36.5 56.4 L 37.9 60.0 L 39.2 63.5 L 40.2 66.9 L 39.2 71.4 L 35.4 73.9 L 31.0 72.9 L 28.4 69.1 L 28.2 66.0 Z " />
</g>
</svg>
