<svg xmlns="http://www.w3.org/2000/svg" xmlns:xlink="http://www.w3.org/1999/xlink" version="1.1" baseProfile="full" viewBox="0 0 200 200" width="200" height="200">
<g fill="black">
<path d="M 183.0 146.0 L 185.0 146.0 L 183.0 171.0 L 186.6 173.4 L 189.0 177.0 L 186.6 180.6 L 183.0 183.0 L 68.0 183.0 L 65.4 182.8 L 62.9 182.4 L 60.5 181.6 L 58.2 180.3 L 56.2 178.7 L 54.6 176.7 L 53.3 174.4 L 52.5 172.0 L 52.1 169.5 L 52.0 167.0 L 52.0 104.0 L 44.768461513519284 104.0 L 44.0 115.1 L 42.5 127.1 L 40.5 138.3 L 38.0 148.5 L 35.0 157.8 L 31.4 166.1 L 27.3 173.4 L 22.6 179.7 L 17.3 184.8 L 11.5 188.7 L 10.4 187.2 L 14.5 182.2 L 18.2 176.5 L 21.5 170.2 L 24.4 163.1 L 26.9 155.1 L 29.0 146.3 L 30.6 136.5 L 31.9 125.9 L 32.6 114.3 L 32.85121955871582 104.0 L 12.0 104.0 L 12.0 100.0 L 43.0 100.0 L 43.0 53.0 L 30.311594200134277 53.0 L 29.1 57.4 L 26.9 64.1 L 24.6 70.6 L 22.0 76.8 L 19.0 82.7 L 15.8 88.3 L 14.1 87.6 L 15.5 81.4 L 16.9 75.1 L 18.3 68.7 L 19.6 62.2 L 20.8 55.5 L 21.9 48.6 L 22.8 41.6 L 23.7 34.4 L 24.3 26.9 L 24.82102499008179 20.300350379943847 L 24.8 20.3 L 25.1 17.2 L 36.8 20.5 L 39.6 22.8 L 36.19937400817871 24.404068851470946 L 35.6 28.3 L 34.3 35.9 L 32.7 43.3 L 31.35416669845581 49.0 L 43.0 49.0 L 43.0 12.0 L 55.0 14.0 L 58.0 16.0 L 55.0 17.8 L 55.0 49.0 L 58.81818180084228 49.0 L 67.0 40.0 L 77.0 49.0 L 77.0 53.0 L 55.0 53.0 L 55.0 100.0 L 63.0 100.0 L 73.0 90.0 L 85.0 100.0 L 85.0 104.0 L 64.0 104.0 L 64.0 168.2 L 64.2 169.1 L 64.5 170.0 L 64.9 170.4 L 65.8 170.7 L 66.7 170.9 L 68.0 171.0 L 177.0 171.0 Z M 88.8 154.1 L 110.0 154.1 L 110.9 153.9 L 111.5 153.7 L 111.9 153.5 L 112.2 153.2 L 112.4 152.9 L 112.6 152.3 L 112.7 151.4 L 112.8 150.1 L 112.8 98.403125 L 111.7 100.5 L 108.3 106.4 L 104.8 112.1 L 101.0 117.5 L 97.1 122.7 L 92.9 127.6 L 88.5 132.2 L 83.8 136.5 L 78.8 140.4 L 77.5 139.2 L 84.3 128.8 L 87.6 123.7 L 90.8 118.4 L 93.9 113.0 L 96.7 107.4 L 99.5 101.7 L 102.0 95.9 L 104.4 89.8 L 106.326162815094 84.60773506164551 L 106.3 84.6 L 107.2 82.3 L 112.8 85.31132078170776 L 112.8 50.60714282989502 L 112.2 51.7 L 109.1 56.7 L 105.9 61.4 L 102.5 66.0 L 98.9 70.4 L 95.2 74.6 L 91.2 78.6 L 87.0 82.2 L 82.5 85.5 L 81.2 84.3 L 84.2 79.7 L 87.1 75.1 L 90.0 70.6 L 92.8 66.0 L 98.0 56.6 L 100.4 51.7 L 102.6 46.8 L 104.7 41.7 L 106.34166040420533 37.51376600265503 L 106.3 37.5 L 106.64285717010497 36.7457142829895 L 106.7 36.6 L 106.70762367248535 36.60322799682617 L 107.3 35.3 L 112.8 38.44285717010498 L 112.8 28.5 L 78.1 28.5 L 78.1 24.5 L 112.8 24.5 L 118.8 19.5 L 129.8 28.5 L 124.8 32.5 L 124.8 150.1 L 124.7 152.7 L 124.2 155.2 L 123.4 157.6 L 122.2 159.9 L 120.5 161.9 L 118.5 163.5 L 116.3 164.7 L 113.8 165.6 L 111.4 166.0 L 108.8 166.1 L 108.8 160.1 L 88.8 157.1 Z M 148.3 154.1 L 161.6 154.1 L 162.5 153.9 L 163.1 153.7 L 163.4 153.5 L 163.6 153.4 L 163.8 153.2 L 164.1 152.3 L 164.3 151.4 L 164.3 97.53939390182495 L 162.9 100.0 L 159.4 105.7 L 155.7 111.2 L 151.8 116.5 L 147.6 121.6 L 143.2 126.5 L 138.5 131.2 L 133.6 135.5 L 128.3 139.5 L 127.0 138.3 L 130.8 132.9 L 134.5 127.7 L 138.1 122.4 L 141.5 117.1 L 144.7 111.7 L 147.8 106.3 L 150.7 100.7 L 153.4 95.1 L 155.9 89.3 L 157.83807106018065 84.41269035339356 L 157.8 84.4 L 158.7 82.2 L 164.3 85.4 L 164.3 50.23999996185303 L 163.4 51.8 L 160.3 56.8 L 156.9 61.6 L 153.3 66.3 L 149.5 70.8 L 145.6 75.1 L 141.3 79.2 L 136.8 83.0 L 132.0 86.4 L 130.8 85.2 L 134.1 80.4 L 137.3 75.6 L 140.4 71.0 L 143.5 66.3 L 146.3 61.5 L 149.0 56.7 L 151.6 51.8 L 153.9 46.8 L 156.1 41.7 L 157.83210315704346 37.4109827041626 L 157.8 37.4 L 158.7 35.3 L 164.3 38.5 L 164.3 28.5 L 130.1 28.5 L 130.1 24.5 L 164.3 24.5 L 170.3 19.5 L 181.3 28.5 L 176.3 32.5 L 176.3 150.1 L 176.2 152.7 L 175.8 155.2 L 175.0 157.6 L 173.7 159.9 L 172.1 161.9 L 170.1 163.5 L 167.8 164.7 L 165.4 165.6 L 162.9 166.0 L 160.3 166.1 L 160.3 160.1 L 148.3 157.1 Z " />
</g>
</svg>
