<svg xmlns="http://www.w3.org/2000/svg" xmlns:xlink="http://www.w3.org/1999/xlink" version="1.1" baseProfile="full" viewBox="0 0 200 200" width="200" height="200">
<g fill="black">
<path d="M 74.4 183.8 L 71.9 183.4 L 69.5 182.6 L 67.2 181.3 L 65.2 179.7 L 63.6 177.7 L 62.3 175.4 L 61.69770994186401 173.5931297302246 L 50.3 177.2 L 33.6 181.5 L 16.1 184.8 L 15.8 183.1 L 32.6 177.8 L 48.6 172.2 L 61.0 167.19072847366334 L 61.0 117.0 L 73.0 119.0 L 76.0 121.0 L 73.0 122.8 L 73.0 161.77746477127076 L 77.9 159.5 L 91.3 152.4 L 103.7 144.8 L 115.3 136.6 L 126.0 127.8 L 135.8 118.6 L 144.8 108.7 L 144.81836738586426 108.71632652282715 L 145.2 108.3 L 153.8 116.7 L 154.7 120.2 L 151.01176471710204 119.48823528289795 L 143.8 126.7 L 132.9 136.1 L 121.2 144.7 L 108.6 152.6 L 95.3 159.9 L 81.1 166.4 L 73.06793994903565 169.50572986602782 L 73.2 170.1 L 73.5 171.0 L 73.9 171.4 L 74.8 171.7 L 75.7 171.9 L 77.0 172.0 L 140.0 172.0 L 146.0 147.0 L 148.0 147.0 L 146.0 172.0 L 149.6 174.4 L 152.0 178.0 L 149.6 181.6 L 146.0 184.0 L 77.0 184.0 Z M 169.7 156.7 L 168.5 153.6 L 167.1 150.5 L 165.3 147.4 L 163.3 144.2 L 161.0 141.0 L 158.4 137.8 L 155.5 134.5 L 152.3 131.3 L 153.3 129.8 L 157.4 132.0 L 161.4 134.3 L 165.1 136.8 L 168.5 139.5 L 171.6 142.4 L 174.4 145.4 L 176.9 148.7 L 179.2 152.1 L 181.2 155.6 L 182.8 159.4 L 182.3 163.9 L 178.8 166.8 L 174.3 166.3 L 171.3 162.8 L 170.7 159.7 Z M 19.6 163.8 L 18.4 159.4 L 20.6 155.4 L 23.6 153.4 L 26.4 151.2 L 29.0 148.7 L 31.6 146.1 L 34.0 143.1 L 36.4 140.0 L 38.6 136.5 L 40.8 132.9 L 42.9 128.9 L 44.8 124.7 L 46.6 125.1 L 46.0 129.9 L 45.3 134.5 L 44.1 139.0 L 42.7 143.2 L 40.9 147.3 L 38.9 151.2 L 36.6 154.9 L 34.0 158.5 L 31.1 161.8 L 28.0 164.8 L 23.6 166.0 Z M 98.0 123.9 L 96.1 121.4 L 94.0 118.9 L 91.8 116.5 L 89.5 114.2 L 87.0 111.9 L 84.3 109.6 L 82.68000001907349 108.16000003814698 L 81.0 109.0 L 81.0 106.81290321350097 L 78.5 105.2 L 79.2 103.5 L 81.0 104.08378381729126 L 81.0 74.21578950881958 L 77.60657444000245 73.5013840675354 L 76.5 74.5 L 72.0 78.1 L 67.1 81.7 L 61.8 85.2 L 56.1 88.6 L 50.1 92.1 L 43.6 95.4 L 36.6 98.7 L 29.2 101.8 L 21.4 104.8 L 20.5 103.1 L 27.5 98.5 L 34.0 94.0 L 40.2 89.8 L 46.0 85.7 L 51.4 81.6 L 56.4 77.6 L 60.9 73.8 L 65.0 69.9 L 68.7 66.2 L 71.20479755401611 63.30382785797119 L 71.2 63.3 L 71.36666669845582 63.11666669845581 L 71.9 62.5 L 71.91460552215577 62.513933944702146 L 72.2 62.2 L 80.6 70.8 L 81.0 72.55 L 81.0 28.0 L 21.0 28.0 L 21.0 24.0 L 81.0 24.0 L 87.0 19.0 L 98.0 28.0 L 93.0 32.0 L 93.0 103.0 L 87.11111106872559 105.9444444656372 L 90.0 107.1 L 93.4 108.6 L 96.6 110.4 L 99.7 112.3 L 102.7 114.5 L 105.6 116.8 L 108.3 119.3 L 111.0 121.9 L 112.0 126.4 L 109.8 130.4 L 105.3 131.4 L 101.4 129.2 L 99.7 126.5 Z M 182.0 28.0 L 177.0 32.0 L 177.0 103.0 L 165.0 109.0 L 165.0 28.0 L 105.0 28.0 L 105.0 24.0 L 165.0 24.0 L 171.0 19.0 Z M 163.6 70.8 L 164.4 74.3 L 160.61280899047853 73.50269660949706 L 159.4 74.6 L 154.8 78.4 L 149.8 82.0 L 144.5 85.6 L 138.9 89.1 L 133.0 92.5 L 126.6 95.9 L 120.0 99.0 L 112.9 102.0 L 105.4 104.8 L 104.5 103.1 L 111.1 98.7 L 117.3 94.4 L 123.3 90.2 L 128.9 86.1 L 134.1 82.1 L 139.0 78.2 L 143.5 74.2 L 147.7 70.3 L 151.5 66.4 L 154.20151224136353 63.30120658874512 L 154.2 63.3 L 154.2625 63.23125 L 154.9 62.5 L 154.91460552215577 62.513933944702146 L 155.2 62.2 Z M 161.5 38.9 L 162.2 42.4 L 158.46236991882324 41.481985569000244 L 157.5 42.3 L 153.1 45.6 L 148.5 48.9 L 143.6 52.1 L 138.4 55.2 L 132.8 58.2 L 127.0 61.1 L 120.8 63.9 L 114.3 66.4 L 107.3 68.8 L 106.6 67.1 L 112.5 63.0 L 118.2 59.1 L 123.7 55.4 L 128.8 51.7 L 133.7 48.1 L 138.2 44.5 L 142.4 40.9 L 146.3 37.4 L 149.8 33.9 L 152.33379983901978 31.1286563873291 L 152.3 31.1 L 153.3 30.1 Z M 76.6 38.8 L 77.4 42.3 L 73.52182044982911 41.483541107177736 L 72.7 42.2 L 68.5 45.6 L 64.0 48.9 L 59.1 52.1 L 53.9 55.2 L 48.3 58.2 L 42.4 61.1 L 36.1 63.9 L 29.4 66.4 L 22.3 68.8 L 21.6 67.1 L 27.7 63.0 L 33.6 59.1 L 39.1 55.4 L 44.3 51.7 L 49.2 48.1 L 53.7 44.5 L 57.8 41.0 L 61.5 37.5 L 64.9 34.0 L 67.24832906723023 31.338560390472413 L 67.2 31.3 L 68.2 30.2 Z " />
</g>
</svg>
