<svg xmlns="http://www.w3.org/2000/svg" xmlns:xlink="http://www.w3.org/1999/xlink" version="1.1" baseProfile="full" viewBox="0 0 200 200" width="200" height="200">
<g fill="black">
<path d="M 98.1 183.5 L 86.1 189.5 L 86.1 80.9 L 98.1 86.9 L 167.5 86.9 L 173.5 81.9 L 184.5 90.9 L 179.5 94.9 L 179.5 177.5 L 167.5 183.5 L 167.5 171.5 L 98.1 171.5 Z M 33.2 22.0 L 58.0 22.0 L 64.0 17.0 L 75.0 26.0 L 70.0 30.0 L 70.0 171.0 L 69.8 173.5 L 69.4 176.0 L 68.6 178.4 L 67.3 180.7 L 65.7 182.7 L 63.7 184.3 L 61.4 185.6 L 59.0 186.4 L 56.5 186.8 L 54.0 187.0 L 54.0 181.0 L 38.0 178.0 L 38.0 175.0 L 54.0 175.0 L 55.2 174.9 L 56.1 174.7 L 57.0 174.4 L 57.4 174.0 L 57.7 173.1 L 57.9 172.2 L 58.0 171.0 L 58.0 114.0 L 33.2 114.0 L 33.2 118.0 L 32.7 128.7 L 32.0 138.7 L 30.9 147.9 L 29.4 156.2 L 27.7 163.8 L 25.6 170.6 L 23.1 176.5 L 20.2 181.6 L 16.9 185.6 L 13.1 188.6 L 11.9 187.3 L 13.7 183.5 L 15.4 179.1 L 16.9 174.2 L 18.3 168.5 L 19.4 162.1 L 20.3 154.9 L 20.9 146.8 L 21.3 138.0 L 21.4 128.4 L 21.2 118.0 L 21.2 16.0 Z M 98.1 130.6 L 98.1 167.5 L 126.8 167.5 L 126.8 130.6 Z M 138.8 130.6 L 138.8 167.5 L 167.5 167.5 L 167.5 130.6 Z M 98.1 90.9 L 98.1 126.6 L 126.8 126.6 L 126.8 90.9 Z M 138.8 90.9 L 138.8 126.6 L 167.5 126.6 L 167.5 90.9 Z M 33.2 69.0 L 33.2 110.0 L 58.0 110.0 L 58.0 69.0 Z M 157.6 14.0 L 160.6 16.0 L 157.6 17.8 L 157.6 41.0 L 166.1 41.0 L 176.1 31.0 L 188.1 41.0 L 188.1 45.0 L 157.6 45.0 L 157.6 69.0 L 145.6 75.0 L 145.6 45.0 L 120.0 45.0 L 120.0 69.0 L 108.0 75.0 L 108.0 45.0 L 77.4 45.0 L 77.4 41.0 L 108.0 41.0 L 108.0 12.0 L 120.0 14.0 L 123.0 16.0 L 120.0 17.8 L 120.0 41.0 L 145.6 41.0 L 145.6 12.0 Z M 33.2 26.0 L 33.2 65.0 L 58.0 65.0 L 58.0 26.0 Z " />
</g>
</svg>
