<svg xmlns="http://www.w3.org/2000/svg" xmlns:xlink="http://www.w3.org/1999/xlink" version="1.1" baseProfile="full" viewBox="0 0 200 200" width="200" height="200">
<g fill="black">
<path d="M 179.5 31.0 L 179.5 35.0 L 143.4 35.0 L 143.4 97.0 L 164.6 97.0 L 174.6 87.0 L 186.6 97.0 L 186.6 101.0 L 143.4 101.0 L 143.4 183.0 L 131.4 189.0 L 131.4 101.0 L 94.4 101.0 L 94.4 97.0 L 131.4 97.0 L 131.4 35.0 L 98.5 35.0 L 98.5 31.0 L 157.5 31.0 L 167.5 21.0 Z M 52.8 176.5 L 68.2 176.5 L 69.2 176.4 L 69.9 176.3 L 70.5 176.0 L 70.6 175.8 L 70.8 175.6 L 71.0 175.1 L 71.3 174.4 L 71.4 173.3 L 71.5 172.0 L 71.5 100.94634141921998 L 66.7 102.0 L 58.3 103.6 L 49.8 105.2 L 41.1 106.7 L 39.818629550933835 106.90385437011719 L 39.7 110.7 L 38.9 122.7 L 37.6 133.9 L 35.9 144.3 L 33.6 153.9 L 30.8 162.7 L 27.5 170.6 L 23.7 177.6 L 19.2 183.6 L 14.3 188.5 L 12.9 187.4 L 16.1 181.5 L 18.9 175.1 L 21.4 168.1 L 23.5 160.4 L 25.3 152.0 L 26.7 142.8 L 27.7 132.8 L 28.2 122.0 L 28.4 110.4 L 28.35935182571411 108.71987724304199 L 23.4 109.5 L 18.34144582748413 110.22265062332153 L 16.6 113.6 L 14.3 110.8 L 11.0 99.1 L 13.0 98.9 L 22.1 98.2 L 28.1 97.72808990478515 L 28.1 34.0 L 40.1 40.0 L 43.9 40.0 L 44.7 38.6 L 45.8 35.6 L 46.9 32.7 L 48.0 29.9 L 49.0 27.1 L 50.6 21.7 L 51.3 19.1 L 52.259776496887206 14.940968322753907 L 52.1 14.9 L 53.0 12.5 L 63.8 17.9 L 66.0 20.7 L 61.79735097885132 21.584768199920653 L 60.9 23.2 L 59.2 25.7 L 57.5 28.3 L 55.6 30.8 L 53.6 33.2 L 51.5 35.6 L 49.2 37.9 L 46.90909090042114 40.0 L 71.5 40.0 L 77.0 35.0 L 87.5 44.0 L 82.5 47.5 L 82.5 92.97530860900879 L 90.2 92.5 L 98.3 92.1 L 98.6 93.8 L 90.9 96.2 L 83.0 98.3 L 82.5 98.4172839164734 L 82.5 172.0 L 82.4 174.4 L 82.0 176.7 L 81.3 179.0 L 80.3 181.1 L 78.9 183.1 L 77.2 184.7 L 75.1 186.0 L 72.9 186.8 L 70.6 187.3 L 68.2 187.5 L 68.2 182.0 L 52.8 179.2 Z M 59.1 114.0 L 61.8 116.0 L 59.1 117.72340421676635 L 59.1 153.2 L 48.1 158.7 L 48.1 112.0 Z M 40.1 44.0 L 40.1 96.68390808105468 L 48.6 96.0 L 57.1 95.2 L 65.6 94.5 L 71.5 93.931325340271 L 71.5 44.0 Z M 52.6 75.2 L 52.1 71.7 L 51.4 68.4 L 50.6 65.3 L 49.7 62.2 L 48.5 59.4 L 47.3 56.5 L 45.8 53.8 L 44.0 51.3 L 45.2 49.9 L 47.9 51.8 L 50.7 53.8 L 53.2 56.2 L 55.6 58.9 L 57.7 62.0 L 59.6 65.3 L 61.3 68.9 L 62.7 72.8 L 64.0 76.9 L 65.0 81.2 L 63.7 85.6 L 59.8 87.9 L 55.4 86.6 L 53.1 82.7 L 52.9 78.8 Z " />
</g>
</svg>
