<svg xmlns="http://www.w3.org/2000/svg" xmlns:xlink="http://www.w3.org/1999/xlink" version="1.1" baseProfile="full" viewBox="0 0 200 200" width="200" height="200">
<g fill="black">
<path d="M 58.2 99.0 L 58.2 44.0 L 36.1 44.0 L 36.1 98.0 L 36.06062994003296 99.0 Z M 73.1 177.1 L 88.6 177.1 L 88.6 110.8 L 100.6 116.8 L 161.3 116.8 L 167.3 111.8 L 178.3 120.8 L 173.3 124.8 L 173.3 177.1 L 178.3 177.1 L 182.8 171.1 L 188.8 177.1 L 188.8 181.1 L 73.1 181.1 Z M 100.6 120.8 L 100.6 177.1 L 112.8 177.1 L 112.8 120.8 Z M 124.8 120.8 L 124.8 177.1 L 137.1 177.1 L 137.1 120.8 Z M 149.1 120.8 L 149.1 177.1 L 161.3 177.1 L 161.3 120.8 Z M 44.5 137.9 L 44.2 134.4 L 43.7 131.1 L 43.2 128.0 L 42.5 125.0 L 41.8 122.1 L 40.0 116.7 L 38.6 114.3 L 39.9 113.1 L 42.2 115.0 L 44.6 117.1 L 46.7 119.5 L 48.7 122.3 L 50.5 125.3 L 52.1 128.6 L 53.5 132.2 L 54.7 136.0 L 55.8 140.1 L 56.7 144.4 L 55.3 148.7 L 51.3 150.9 L 46.9 149.5 L 44.7 145.5 L 44.7 141.6 Z M 119.9 17.1 L 122.9 19.1 L 119.9 20.9 L 119.9 101.7 L 107.9 107.7 L 107.9 15.1 Z M 161.8 92.1 L 161.0 89.0 L 160.0 86.0 L 158.8 83.0 L 157.5 80.0 L 155.9 77.1 L 154.2 74.2 L 152.3 71.2 L 149.9 68.5 L 151.1 67.1 L 154.2 69.1 L 157.4 71.2 L 160.3 73.5 L 163.0 76.1 L 165.5 78.9 L 167.7 81.9 L 169.8 85.2 L 171.6 88.6 L 173.2 92.2 L 174.5 95.9 L 173.6 100.4 L 169.9 103.1 L 165.4 102.2 L 162.8 98.5 L 162.4 95.3 Z M 94.6 25.8 L 97.6 27.8 L 94.6 29.6 L 94.6 95.2 L 82.6 101.2 L 82.6 23.8 Z M 43.7 77.9 L 43.4 74.4 L 43.0 71.1 L 42.4 68.0 L 41.8 65.0 L 41.0 62.1 L 39.2 56.7 L 37.8 54.3 L 39.2 53.1 L 41.4 55.0 L 43.8 57.1 L 45.9 59.5 L 47.9 62.3 L 49.7 65.3 L 51.3 68.6 L 52.7 72.2 L 53.9 76.0 L 55.0 80.1 L 55.9 84.4 L 54.5 88.7 L 50.5 90.9 L 46.2 89.5 L 44.0 85.5 L 43.9 81.6 Z M 152.9 16.4 L 155.6 18.8 L 152.21742792129515 20.267908668518068 L 151.4 24.9 L 149.7 33.2 L 147.7 41.2 L 145.7 48.9 L 144.89189186096192 51.5 L 166.51818180084229 51.5 L 174.7 42.5 L 184.7 51.5 L 184.7 55.5 L 143.64864864349366 55.5 L 143.4 56.3 L 140.9 63.4 L 138.2 70.2 L 135.3 76.7 L 132.0 82.9 L 128.5 88.6 L 126.8 87.9 L 128.5 81.4 L 130.3 74.9 L 132.0 68.2 L 133.6 61.2 L 135.2 54.1 L 136.6 46.7 L 137.9 39.1 L 139.1 31.3 L 140.1 23.2 L 141.0 14.8 L 141.03274631500244 14.804402828216553 L 141.3 12.8 Z M 69.6 176.0 L 68.8 178.4 L 67.6 180.7 L 65.9 182.7 L 63.9 184.3 L 61.6 185.6 L 59.2 186.4 L 56.7 186.8 L 54.2 187.0 L 54.2 181.0 L 38.2 178.0 L 38.2 175.0 L 54.2 175.0 L 55.4 174.9 L 56.3 174.7 L 57.2 174.4 L 57.6 174.0 L 57.8 173.7 L 58.0 173.1 L 58.1 172.2 L 58.2 171.0 L 58.2 103.0 L 35.90314960479736 103.0 L 35.6 110.7 L 34.7 122.7 L 33.5 133.8 L 32.0 144.2 L 30.0 153.7 L 27.6 162.5 L 24.8 170.4 L 21.6 177.4 L 17.9 183.4 L 13.8 188.5 L 12.3 187.4 L 14.6 181.7 L 16.7 175.3 L 18.6 168.3 L 20.3 160.6 L 21.6 152.2 L 22.7 142.9 L 23.5 132.9 L 24.0 122.0 L 24.2 110.4 L 24.140322589874266 103.0 L 13.0 103.0 L 13.0 99.0 L 24.108064556121825 99.0 L 24.1 98.0 L 24.1 34.0 L 36.1 40.0 L 37.68928575515747 40.0 L 38.2 38.7 L 39.0 35.8 L 41.1 27.4 L 41.7 24.7 L 42.7 19.5 L 43.1 16.9 L 43.280759525299075 15.333417701721192 L 43.1 15.3 L 43.39538459777832 14.339999961853028 L 43.4 14.3 L 43.407090473175046 14.30195598602295 L 43.9 12.7 L 55.0 17.5 L 57.3 20.2 L 53.21666669845581 21.36666669845581 L 52.5 22.8 L 51.1 25.4 L 49.6 27.9 L 48.0 30.4 L 46.3 32.9 L 44.5 35.3 L 42.6 37.7 L 40.4 40.0 L 58.2 40.0 L 64.2 35.0 L 75.2 44.0 L 70.2 48.0 L 70.2 171.0 L 70.0 173.5 Z " />
</g>
</svg>
