<svg xmlns="http://www.w3.org/2000/svg" xmlns:xlink="http://www.w3.org/1999/xlink" version="1.1" baseProfile="full" viewBox="0 0 200 200" width="200" height="200">
<g fill="black">
<path d="M 12.7 149.9 L 17.7 148.8 L 22.8 147.6 L 24.5 147.175 L 24.5 30.0 L 12.5 30.0 L 12.5 26.0 L 75.81818180084228 26.0 L 84.0 17.0 L 94.0 26.0 L 94.0 30.0 L 76.4 30.0 L 76.4 183.0 L 64.4 189.0 L 64.4 140.42068967819213 L 59.0 143.4 L 53.2 146.3 L 47.5 148.9 L 41.9 151.4 L 36.5 153.7 L 31.1 155.9 L 25.9 157.9 L 19.911318206787108 160.05592546463012 L 18.7 163.8 L 15.9 161.5 L 10.8 150.4 Z M 83.2 174.0 L 128.3 174.0 L 128.3 104.0 L 95.7 104.0 L 95.7 100.0 L 128.3 100.0 L 128.3 36.0 L 90.9 36.0 L 90.9 32.0 L 165.3181818008423 32.0 L 173.5 23.0 L 183.5 32.0 L 183.5 36.0 L 140.3 36.0 L 140.3 100.0 L 154.8 100.0 L 164.8 90.0 L 176.8 100.0 L 176.8 104.0 L 140.3 104.0 L 140.3 174.0 L 165.4 174.0 L 175.4 164.0 L 187.4 174.0 L 187.4 178.0 L 83.2 178.0 Z M 170.9 145.3 L 169.8 142.1 L 168.4 138.8 L 166.8 135.5 L 164.8 132.0 L 162.5 128.5 L 159.9 124.8 L 157.1 121.1 L 153.8 117.3 L 155.0 115.9 L 159.2 118.7 L 163.3 121.5 L 167.0 124.5 L 170.3 127.6 L 173.3 130.8 L 176.1 134.1 L 178.5 137.6 L 180.6 141.2 L 182.4 144.8 L 183.8 148.6 L 183.1 153.1 L 179.4 155.9 L 174.9 155.1 L 172.2 151.4 L 171.7 148.4 Z M 36.5 106.0 L 36.5 144.09642858505248 L 39.1 143.4 L 44.9 141.8 L 50.9 140.1 L 57.0 138.4 L 63.4 136.7 L 64.4 136.4611940383911 L 64.4 106.0 Z M 36.5 68.0 L 36.5 102.0 L 64.4 102.0 L 64.4 68.0 Z M 36.5 30.0 L 36.5 64.0 L 64.4 64.0 L 64.4 30.0 Z " />
</g>
</svg>
