<svg xmlns="http://www.w3.org/2000/svg" xmlns:xlink="http://www.w3.org/1999/xlink" version="1.1" baseProfile="full" viewBox="0 0 200 200" width="200" height="200">
<g fill="black">
<path d="M 63.4 61.3 L 65.3 64.4 L 61.670368671417236 64.84574422836303 L 59.4 69.5 L 55.2 77.5 L 50.8 85.4 L 46.2 93.0 L 41.4 100.4 L 40.89795083999634 101.13299179077148 L 46.1 102.0 L 49.1 104.0 L 46.1 105.8 L 46.1 181.6 L 34.1 187.6 L 34.1 110.73773584365844 L 31.1 114.7 L 25.7 121.5 L 19.9 127.9 L 13.7 134.1 L 12.4 133.0 L 16.9 125.6 L 25.7 111.0 L 30.0 103.6 L 34.1 96.1 L 38.1 88.4 L 41.9 80.7 L 45.6 72.8 L 49.1 64.7 L 52.029347801208495 57.50978260040283 L 52.0 57.5 L 52.9 55.3 Z M 79.5 65.7 L 158.0 65.7 L 164.0 60.7 L 175.0 69.7 L 170.0 72.7 L 169.80827283859253 72.77988634109497 L 169.4 94.5 L 169.8 116.5 L 171.1 134.3 L 173.0 148.2 L 175.3 158.6 L 177.9 166.0 L 179.60086393356323 169.12958965301513 L 184.2 149.2 L 186.2 149.2 L 184.28490562438964 174.0962264060974 L 184.7 174.2 L 188.8 176.3 L 190.2 180.7 L 188.0 184.7 L 183.7 186.1 L 179.1 185.0 L 174.6 182.1 L 170.5 177.4 L 166.9 170.8 L 163.8 161.9 L 161.2 150.3 L 159.1 135.5 L 157.8 117.1 L 157.4 94.5 L 157.8626865386963 69.7 L 79.5 69.7 L 79.5 116.5 L 79.0 126.9 L 78.1 136.5 L 76.8 145.5 L 75.0 153.7 L 72.8 161.2 L 70.2 168.0 L 67.1 174.0 L 63.5 179.2 L 59.5 183.4 L 55.0 186.7 L 53.9 185.4 L 56.8 181.2 L 59.4 176.5 L 61.7 171.3 L 63.7 165.6 L 65.3 159.1 L 66.7 152.0 L 67.6 144.2 L 68.3 135.7 L 68.5 126.5 L 68.5 60.2 Z M 126.8 158.7 L 136.0 158.7 L 137.0 158.5 L 137.5 158.3 L 138.1 158.0 L 138.2 157.8 L 138.4 157.5 L 138.6 156.9 L 138.7 156.0 L 138.8 154.7 L 138.8 114.8 L 125.7 114.8 L 125.7 179.2 L 113.7 185.2 L 113.7 114.8 L 100.1 114.8 L 100.1 164.4 L 89.1 169.9 L 89.1 105.3 L 100.1 110.8 L 113.7 110.8 L 113.7 90.7 L 85.3 90.7 L 85.3 86.7 L 135.9181818008423 86.7 L 144.1 77.7 L 154.1 86.7 L 154.1 90.7 L 125.7 90.7 L 125.7 110.8 L 138.8 110.8 L 144.8 105.8 L 155.8 114.8 L 150.8 118.8 L 150.8 154.7 L 150.7 157.3 L 150.2 159.8 L 149.4 162.2 L 148.2 164.4 L 146.6 166.5 L 144.5 168.1 L 142.3 169.3 L 139.9 170.1 L 137.4 170.6 L 134.8 170.7 L 134.8 164.7 L 126.8 161.7 Z M 134.0 13.9 L 137.0 15.9 L 134.0 17.7 L 134.0 32.7 L 165.0 32.7 L 175.0 22.7 L 187.0 32.7 L 187.0 36.7 L 134.0 36.7 L 134.0 52.7 L 122.0 58.7 L 122.0 36.7 L 78.0 36.7 L 78.0 52.7 L 66.0 58.7 L 66.0 36.7 L 13.0 36.7 L 13.0 32.7 L 66.0 32.7 L 66.0 11.9 L 78.0 13.9 L 81.0 15.9 L 78.0 17.7 L 78.0 32.7 L 122.0 32.7 L 122.0 11.9 Z " />
</g>
</svg>
