<svg xmlns="http://www.w3.org/2000/svg" xmlns:xlink="http://www.w3.org/1999/xlink" version="1.1" baseProfile="full" viewBox="0 0 200 200" width="200" height="200">
<g fill="black">
<path d="M 125.5 142.4 L 128.1 145.0 L 124.21065855026245 146.31959800720216 L 123.0 150.0 L 119.3 157.0 L 114.5 163.2 L 108.7 168.7 L 102.0 173.5 L 94.3 177.6 L 85.7 181.0 L 76.2 183.8 L 65.8 185.7 L 54.5 187.0 L 54.2 185.2 L 65.0 182.0 L 74.7 178.6 L 83.3 174.9 L 90.8 170.9 L 97.2 166.5 L 102.5 161.8 L 106.7 156.8 L 110.0 151.5 L 112.3 145.9 L 113.8 139.9 L 113.81366024017333 139.9029188156128 L 114.2 138.1 Z M 182.1 146.2 L 184.1 146.2 L 182.1 171.2 L 185.7 173.6 L 188.1 177.2 L 185.7 180.8 L 182.1 183.2 L 151.0 183.2 L 148.4 183.1 L 145.9 182.6 L 143.5 181.8 L 141.3 180.6 L 139.2 178.9 L 137.6 176.9 L 136.4 174.7 L 135.6 172.2 L 135.1 169.8 L 135.0 167.2 L 135.0 138.0 L 105.4 138.0 L 105.4 150.0 L 93.4 156.0 L 93.4 59.1 L 105.4 65.1 L 159.9 65.1 L 165.9 60.1 L 176.9 69.1 L 171.9 73.1 L 171.9 144.0 L 159.9 150.0 L 159.9 138.0 L 147.0 138.0 L 147.0 168.4 L 147.2 169.3 L 147.4 169.9 L 147.6 170.3 L 147.9 170.6 L 148.3 170.8 L 148.8 171.0 L 149.7 171.1 L 151.0 171.2 L 176.1 171.2 Z M 15.0 155.6 L 21.6 154.5 L 28.3 153.4 L 35.2 152.3 L 41.7 151.092857170105 L 41.7 114.1 L 17.5 114.1 L 17.5 110.1 L 41.7 110.1 L 41.7 75.6 L 15.2 75.6 L 15.2 71.6 L 64.0 71.6 L 74.0 61.6 L 86.0 71.6 L 86.0 75.6 L 53.7 75.6 L 53.7 110.1 L 61.7 110.1 L 71.7 100.1 L 83.7 110.1 L 83.7 114.1 L 53.7 114.1 L 53.7 148.9055555343628 L 56.5 148.4 L 63.8 147.0 L 79.0 144.2 L 86.9 143.0 L 87.4 144.8 L 80.1 147.9 L 72.8 150.7 L 65.5 153.3 L 58.4 155.7 L 51.3 157.9 L 44.3 160.1 L 37.4 162.1 L 30.6 163.9 L 23.9 165.7 L 21.342706775665285 166.3199499130249 L 19.9 169.9 L 17.3 167.3 L 13.1 156.0 Z M 105.4 114.1 L 105.4 134.0 L 159.9 134.0 L 159.9 114.1 Z M 105.4 91.6 L 105.4 110.1 L 159.9 110.1 L 159.9 91.6 Z M 105.4 69.1 L 105.4 87.6 L 159.9 87.6 L 159.9 69.1 Z M 134.0 13.9 L 137.0 15.9 L 134.0 17.7 L 134.0 32.7 L 165.0 32.7 L 175.0 22.7 L 187.0 32.7 L 187.0 36.7 L 134.0 36.7 L 134.0 52.7 L 122.0 58.7 L 122.0 36.7 L 78.0 36.7 L 78.0 52.7 L 66.0 58.7 L 66.0 36.7 L 13.0 36.7 L 13.0 32.7 L 66.0 32.7 L 66.0 11.9 L 78.0 13.9 L 81.0 15.9 L 78.0 17.7 L 78.0 32.7 L 122.0 32.7 L 122.0 11.9 Z " />
</g>
</svg>
