<svg xmlns="http://www.w3.org/2000/svg" xmlns:xlink="http://www.w3.org/1999/xlink" version="1.1" baseProfile="full" viewBox="0 0 200 200" width="200" height="200">
<g fill="black">
<path d="M 36.0 71.4 L 39.0 73.4 L 36.0 75.2 L 36.0 182.1 L 24.0 188.1 L 24.0 69.4 Z M 140.0 176.0 L 160.0 176.0 L 161.2 175.9 L 162.1 175.8 L 162.7 175.6 L 163.0 175.4 L 163.2 175.3 L 163.4 175.1 L 163.5 174.7 L 163.7 174.1 L 163.9 173.2 L 164.0 172.0 L 164.0 67.8 L 78.0 67.8 L 78.0 63.8 L 164.0 63.8 L 170.0 58.8 L 181.0 67.8 L 176.0 71.8 L 176.0 172.0 L 175.8 174.6 L 175.4 177.1 L 174.6 179.5 L 173.3 181.7 L 171.7 183.7 L 169.7 185.4 L 167.4 186.6 L 165.0 187.4 L 162.5 187.9 L 160.0 188.0 L 160.0 182.0 L 140.0 179.0 Z M 134.2 151.6 L 131.2 148.1 L 127.8 144.7 L 124.2 141.4 L 120.3 138.2 L 116.1 135.1 L 111.7 132.1 L 106.9 129.0 L 104.6 127.54489793777466 L 104.6 175.0 L 92.6 181.0 L 92.6 137.9255813598633 L 91.3 139.8 L 86.6 145.8 L 81.5 151.7 L 75.9 157.2 L 69.8 162.6 L 63.3 167.7 L 56.2 172.4 L 48.7 176.8 L 47.6 175.3 L 53.9 169.4 L 59.8 163.6 L 65.3 157.8 L 70.4 152.0 L 75.0 146.2 L 79.2 140.3 L 83.0 134.3 L 86.3 128.2 L 89.2 122.1 L 90.16774196624756 119.6 L 48.2 119.6 L 48.2 115.6 L 92.6 115.6 L 92.6 96.73258428573608 L 89.4 97.2 L 80.0 98.5 L 70.2 99.7 L 59.9 100.7 L 49.0 101.5 L 48.7 99.8 L 59.2 97.0 L 69.3 94.4 L 78.8 92.0 L 88.0 89.8 L 96.6 87.6 L 104.7 85.5 L 112.4 83.5 L 119.6 81.4 L 126.2 79.5 L 131.52401638031006 77.86844663619995 L 131.5 77.8 L 131.5661639213562 77.85553045272827 L 132.4 77.6 L 132.72913274765014 78.8315936088562 L 142.7 87.2 L 143.0 90.3 L 138.75105934143068 88.29692792892456 L 135.5 89.2 L 122.0 91.9 L 114.6 93.3 L 106.7 94.6 L 104.6 94.925 L 104.6 115.6 L 132.6 115.6 L 142.6 105.6 L 154.6 115.6 L 154.6 119.6 L 104.6 119.6 L 104.6 124.64067792892456 L 108.5 125.5 L 114.0 127.3 L 119.3 129.4 L 124.4 131.9 L 129.2 134.6 L 133.7 137.5 L 138.0 140.7 L 142.0 144.2 L 145.8 147.9 L 149.2 151.9 L 150.3 156.3 L 147.9 160.3 L 143.5 161.3 L 139.5 159.0 L 137.0 155.2 Z M 55.0 69.0 L 53.7 66.9 L 52.1 64.7 L 49.9 62.5 L 47.4 60.3 L 44.3 58.0 L 40.9 55.8 L 37.0 53.5 L 32.6 51.4 L 33.2 49.7 L 38.0 50.7 L 42.6 51.7 L 46.9 52.9 L 50.8 54.4 L 54.4 56.1 L 57.7 58.0 L 60.7 60.2 L 63.3 62.7 L 65.6 65.5 L 67.5 68.5 L 67.3 73.1 L 64.0 76.3 L 59.5 76.1 L 56.3 72.9 L 55.8 71.0 Z M 134.0 13.5 L 137.0 15.5 L 134.0 17.3 L 134.0 31.7 L 165.0 31.7 L 175.0 21.7 L 187.0 31.7 L 187.0 35.7 L 134.0 35.7 L 134.0 51.1 L 122.0 57.1 L 122.0 35.7 L 78.0 35.7 L 78.0 51.1 L 66.0 57.1 L 66.0 35.7 L 13.0 35.7 L 13.0 31.7 L 66.0 31.7 L 66.0 11.5 L 78.0 13.5 L 81.0 15.5 L 78.0 17.3 L 78.0 31.7 L 122.0 31.7 L 122.0 11.5 Z " />
</g>
</svg>
