<svg xmlns="http://www.w3.org/2000/svg" xmlns:xlink="http://www.w3.org/1999/xlink" version="1.1" baseProfile="full" viewBox="0 0 200 200" width="200" height="200">
<g fill="black">
<path d="M 172.7 175.1 L 171.3 177.1 L 169.6 178.9 L 167.7 180.5 L 165.6 181.8 L 163.3 182.8 L 160.9 183.4 L 158.4 183.8 L 155.9 184.0 L 155.9 178.0 L 135.9 175.0 L 135.9 172.0 L 155.9 172.0 L 157.2 171.9 L 158.4 171.7 L 159.3 171.4 L 160.1 171.1 L 160.8 170.7 L 161.4 170.2 L 162.0 169.6 L 162.5 168.8 L 163.1 167.8 L 163.6 166.5 L 164.9 162.5 L 166.1 158.2 L 167.2 153.5 L 168.2 148.4 L 169.0 143.0 L 169.8 137.2 L 170.4 131.1 L 170.9 124.7 L 171.3 117.9 L 171.50704221725465 113.0 L 160.92340421676636 113.0 L 157.4 122.2 L 153.2 131.3 L 148.4 139.9 L 143.1 148.0 L 137.2 155.7 L 130.8 163.0 L 123.9 169.8 L 116.4 176.0 L 108.3 181.7 L 99.6 186.7 L 98.6 185.2 L 106.0 178.7 L 112.8 172.0 L 119.2 165.1 L 125.1 158.0 L 130.4 150.7 L 135.3 143.0 L 139.6 135.0 L 143.5 126.7 L 146.8 118.1 L 148.38028173446656 113.0 L 133.58571424484253 113.0 L 133.1 113.8 L 128.2 121.7 L 122.8 129.4 L 117.1 136.7 L 110.9 143.6 L 104.3 150.2 L 97.2 156.4 L 89.8 162.1 L 81.8 167.5 L 73.5 172.4 L 64.6 176.7 L 63.7 175.2 L 71.4 169.2 L 78.7 163.2 L 85.6 157.1 L 92.1 150.7 L 98.2 144.2 L 103.9 137.5 L 109.2 130.5 L 114.0 123.3 L 118.4 115.9 L 119.87959184646607 113.0 L 105.21509437561035 113.0 L 103.8 114.5 L 98.5 119.5 L 93.0 123.9 L 87.1 128.0 L 80.9 131.5 L 74.5 134.4 L 67.7 136.8 L 66.9 135.1 L 72.6 131.1 L 78.0 127.0 L 83.2 122.7 L 88.0 118.2 L 92.6 113.4 L 96.9 108.3 L 100.9 103.0 L 104.7 97.3 L 108.2 91.3 L 110.3841269493103 87.0 L 99.8 87.0 L 99.8 94.0 L 87.8 100.0 L 87.8 15.0 L 99.8 21.0 L 163.1 21.0 L 169.1 16.0 L 180.1 25.0 L 175.1 29.0 L 175.1 91.0 L 163.1 97.0 L 163.1 87.0 L 116.49090909957886 87.0 L 122.0 90.6 L 123.7 93.8 L 119.88968963623047 93.99708499908448 L 117.9 97.2 L 113.5 103.4 L 108.96206893920899 109.0 L 171.6 109.0 L 177.6 104.0 L 188.6 113.0 L 183.6 116.0 L 183.39793815612794 116.08419246673584 L 183.3 118.5 L 182.9 125.5 L 182.4 132.2 L 181.7 138.6 L 180.9 144.7 L 180.0 150.5 L 178.9 155.9 L 177.7 161.1 L 176.4 166.0 L 174.9 170.5 L 173.9 172.9 Z M 57.0 78.0 L 52.0 82.0 L 52.0 157.73999996185302 L 54.8 155.5 L 58.6 152.6 L 62.6 149.5 L 66.9 146.3 L 71.4 143.0 L 76.2 139.7 L 81.3 136.3 L 82.6 137.6 L 78.7 142.4 L 74.9 146.9 L 71.2 151.1 L 67.7 155.1 L 64.3 158.8 L 61.1 162.3 L 58.0 165.6 L 55.2 168.7 L 52.5 171.6 L 50.0 174.4 L 49.80941181182861 174.19058818817138 L 44.0 180.0 L 34.0 170.0 L 40.0 164.0 L 40.0 78.0 L 12.0 78.0 L 12.0 74.0 L 40.0 74.0 L 46.0 69.0 Z M 99.8 56.0 L 99.8 83.0 L 163.1 83.0 L 163.1 56.0 Z M 99.8 25.0 L 99.8 52.0 L 163.1 52.0 L 163.1 25.0 Z M 46.3 42.1 L 45.1 39.2 L 43.5 36.3 L 41.7 33.5 L 39.5 30.6 L 37.1 27.7 L 34.3 24.8 L 31.2 21.8 L 27.7 19.0 L 28.6 17.5 L 32.9 19.3 L 37.0 21.1 L 40.8 23.2 L 44.3 25.5 L 47.5 28.1 L 50.5 30.9 L 53.2 33.9 L 55.6 37.2 L 57.6 40.6 L 59.4 44.2 L 59.0 48.8 L 55.5 51.8 L 51.0 51.4 L 48.0 47.9 L 47.3 45.0 Z " />
</g>
</svg>
