<svg xmlns="http://www.w3.org/2000/svg" xmlns:xlink="http://www.w3.org/1999/xlink" version="1.1" baseProfile="full" viewBox="0 0 200 200" width="200" height="200">
<g fill="black">
<path d="M 103.2 177.0 L 123.2 177.0 L 124.4 176.9 L 125.3 176.7 L 125.9 176.5 L 126.3 176.4 L 126.4 176.2 L 126.6 176.0 L 126.8 175.7 L 127.0 175.1 L 127.1 174.2 L 127.2 173.0 L 127.2 105.0 L 102.8 105.0 L 95.8 112.0 L 89.27972974777222 105.47972974777221 L 89.1 105.5 L 89.1540919303894 105.3540919303894 L 85.8 102.0 L 92.45287294387818 96.45593919754029 L 109.67532052993775 50.0 L 80.2 50.0 L 80.2 46.0 L 111.15822649002075 46.0 L 123.8 11.9 L 134.3 18.0 L 136.4 20.9 L 132.93901720046998 21.669107246398926 L 123.91395349502564 46.0 L 165.3 46.0 L 175.3 36.0 L 187.3 46.0 L 187.3 50.0 L 122.43023252487183 50.0 L 103.51279067993164 101.0 L 127.2 101.0 L 127.2 67.0 L 139.2 69.0 L 142.2 71.0 L 139.2 72.8 L 139.2 101.0 L 157.0 101.0 L 167.0 91.0 L 179.0 101.0 L 179.0 105.0 L 139.2 105.0 L 139.2 173.0 L 139.1 175.5 L 138.6 178.0 L 137.8 180.4 L 136.6 182.7 L 134.9 184.7 L 132.9 186.3 L 130.7 187.6 L 128.2 188.4 L 125.8 188.8 L 123.2 189.0 L 123.2 183.0 L 103.2 180.0 Z M 59.3 78.0 L 54.3 82.0 L 54.3 158.04864864349366 L 57.8 155.4 L 61.7 152.5 L 65.9 149.5 L 70.3 146.3 L 75.0 143.0 L 80.1 139.6 L 85.5 136.3 L 86.6 137.6 L 82.6 142.5 L 78.6 147.0 L 74.7 151.2 L 70.9 155.2 L 67.3 158.9 L 63.9 162.4 L 60.7 165.7 L 57.7 168.8 L 54.8 171.7 L 52.2 174.5 L 52.01411762237549 174.28588237762452 L 46.3 180.0 L 36.3 170.0 L 42.3 164.0 L 42.3 78.0 L 12.6 78.0 L 12.6 74.0 L 42.3 74.0 L 48.3 69.0 Z M 176.1 153.4 L 173.5 149.4 L 170.7 145.4 L 167.6 141.3 L 164.3 137.3 L 160.8 133.2 L 157.0 129.0 L 153.1 124.7 L 149.0 120.3 L 150.1 118.8 L 155.5 121.8 L 160.5 125.0 L 165.2 128.4 L 169.6 131.9 L 173.8 135.6 L 177.7 139.3 L 181.4 143.2 L 184.8 147.1 L 188.0 151.2 L 190.9 155.3 L 191.5 159.9 L 188.8 163.5 L 184.3 164.1 L 180.6 161.4 L 178.5 157.4 Z M 110.9 124.8 L 112.5 128.0 L 108.72325582504273 128.06511631011963 L 107.9 129.3 L 104.8 133.7 L 101.6 138.0 L 98.3 142.1 L 94.8 146.0 L 91.3 149.8 L 87.6 153.3 L 83.8 156.7 L 79.8 159.8 L 75.6 162.6 L 74.3 161.3 L 82.7 149.0 L 85.4 145.0 L 88.1 140.8 L 90.7 136.6 L 93.3 132.3 L 98.1 123.5 L 99.98118085861206 119.73763837814332 L 99.9 119.7 L 101.0 117.9 Z M 48.9 42.2 L 47.6 39.3 L 45.9 36.4 L 44.0 33.5 L 41.7 30.6 L 39.0 27.8 L 36.1 24.8 L 32.8 21.8 L 29.1 19.0 L 30.0 17.4 L 34.4 19.2 L 38.7 21.0 L 42.6 23.1 L 46.3 25.4 L 49.7 28.0 L 52.8 30.8 L 55.6 33.8 L 58.1 37.1 L 60.2 40.5 L 62.1 44.2 L 61.7 48.7 L 58.3 51.8 L 53.8 51.4 L 50.7 48.0 L 49.9 45.1 Z " />
</g>
</svg>
