<svg xmlns="http://www.w3.org/2000/svg" xmlns:xlink="http://www.w3.org/1999/xlink" version="1.1" baseProfile="full" viewBox="0 0 200 200" width="200" height="200">
<g fill="black">
<path d="M 36.1 187.9 L 32.1 185.7 L 30.7 181.4 L 31.2 175.9 L 31.3 171.0 L 30.9 166.5 L 30.1 162.5 L 28.8 158.8 L 26.9 155.5 L 26.82980375289917 155.40932989120483 L 26.8 155.4 L 26.808860778808594 155.3822784423828 L 24.5 152.4 L 21.5 149.6 L 17.8 146.9 L 13.4 144.5 L 13.9 142.7 L 19.2 143.7 L 24.1 145.2 L 28.5 147.6 L 30.184887504577638 148.94790992736816 L 32.5 144.8 L 35.5 139.6 L 39.1 133.4 L 43.3 126.4 L 48.2 118.4 L 53.7 109.5 L 59.9 99.7 L 67.0 89.1 L 68.5 90.0 L 63.3 101.6 L 58.4 112.1 L 54.0 121.5 L 50.0 129.9 L 46.6 137.4 L 43.8 143.8 L 41.5 149.2 L 39.8 153.6 L 38.7 156.9 L 38.33373489379883 158.82289152145387 L 38.5 159.1 L 40.6 164.2 L 41.9 169.8 L 42.6 175.9 L 42.6 182.5 L 40.5 186.5 Z M 187.8 178.0 L 187.8 182.0 L 59.7 182.0 L 59.7 178.0 L 165.8 178.0 L 175.8 168.0 Z M 93.6 109.9 L 152.7 109.9 L 158.7 104.9 L 169.7 113.9 L 164.7 117.9 L 164.7 163.8 L 152.7 169.8 L 152.7 163.8 L 93.6 163.8 L 81.6 169.8 L 81.6 103.9 Z M 93.6 138.1 L 93.6 159.8 L 152.7 159.8 L 152.7 138.1 Z M 93.6 113.9 L 93.6 134.1 L 152.7 134.1 L 152.7 113.9 Z M 31.3 103.7 L 30.0 102.1 L 28.4 100.4 L 26.5 98.6 L 24.2 96.9 L 21.6 95.1 L 18.7 93.3 L 15.5 91.4 L 11.9 89.9 L 12.3 88.1 L 16.3 88.9 L 20.1 89.4 L 23.7 90.1 L 27.1 91.0 L 30.2 92.0 L 33.1 93.2 L 35.9 94.6 L 38.4 96.2 L 40.7 98.0 L 42.7 100.0 L 43.6 104.5 L 41.1 108.3 L 36.6 109.2 L 32.8 106.7 L 32.2 105.3 Z M 80.0 68.6 L 80.0 72.1 L 79.8 75.4 L 79.3 78.5 L 78.4 81.4 L 77.2 84.2 L 75.5 86.7 L 73.4 89.0 L 68.9 89.8 L 65.1 87.4 L 64.2 82.9 L 66.7 79.0 L 67.7 78.7 L 68.9 78.0 L 70.1 76.9 L 71.4 75.4 L 72.6 73.3 L 73.7 70.9 L 74.7 67.9 L 75.7 64.6 L 76.6 60.9 L 76.9 56.8 L 78.7 56.7 L 79.1 60.9 L 79.4 62.9 L 119.5 62.9 L 119.5 45.0 L 131.5 47.0 L 134.5 49.0 L 131.5 50.8 L 131.5 62.9 L 172.0 62.9 L 172.6 62.4 L 172.7 62.0 L 172.9285223007202 62.12623138427735 L 178.0 57.9 L 189.0 66.9 L 184.0 69.9 L 179.32307691574096 71.84871797561645 L 178.9 72.3 L 177.3 73.9 L 175.5 75.6 L 173.6 77.3 L 171.6 79.1 L 169.5 80.9 L 167.1 82.8 L 166.0885085105896 83.85965766906739 L 173.8 90.8 L 173.8 94.8 L 74.8 94.8 L 74.8 90.8 L 155.61818180084228 90.8 L 163.8 81.8 L 164.52588834762574 82.4532995223999 L 165.2 81.4 L 166.4 78.6 L 167.5 76.1 L 168.5 73.6 L 169.5 71.4 L 170.3 69.2 L 171.1 67.2 L 171.21052627563478 66.9 L 79.86216220855712 66.9 Z M 44.8 66.3 L 43.5 64.6 L 41.9 62.9 L 40.0 61.1 L 37.8 59.3 L 35.4 57.6 L 32.7 55.7 L 29.7 53.9 L 26.4 52.4 L 26.9 50.7 L 30.6 51.4 L 34.2 51.9 L 37.6 52.7 L 40.8 53.5 L 43.8 54.6 L 46.6 55.8 L 49.3 57.2 L 51.8 58.7 L 54.1 60.4 L 56.3 62.4 L 57.3 66.8 L 55.0 70.8 L 50.5 71.8 L 46.6 69.5 L 45.8 67.9 Z M 134.0 12.6 L 137.0 14.6 L 134.0 16.4 L 134.0 28.8 L 165.0 28.8 L 175.0 18.8 L 187.0 28.8 L 187.0 32.8 L 134.0 32.8 L 134.0 38.9 L 122.0 44.9 L 122.0 32.8 L 78.0 32.8 L 78.0 46.3 L 66.0 52.3 L 66.0 32.8 L 13.0 32.8 L 13.0 28.8 L 66.0 28.8 L 66.0 10.6 L 78.0 12.6 L 81.0 14.6 L 78.0 16.4 L 78.0 28.8 L 122.0 28.8 L 122.0 10.6 Z " />
</g>
</svg>
