<svg xmlns="http://www.w3.org/2000/svg" xmlns:xlink="http://www.w3.org/1999/xlink" version="1.1" baseProfile="full" viewBox="0 0 200 200" width="200" height="200">
<g fill="black">
<path d="M 177.5 176.8 L 176.7 179.2 L 175.5 181.5 L 173.8 183.5 L 171.8 185.1 L 169.6 186.4 L 167.2 187.2 L 164.7 187.6 L 162.1 187.7 L 162.1 181.7 L 144.1 178.7 L 144.1 175.7 L 163.3 175.7 L 164.2 175.5 L 164.8 175.3 L 165.2 175.2 L 165.4 175.0 L 165.5 174.8 L 165.7 174.5 L 165.9 173.9 L 166.0 173.0 L 166.1 171.7 L 166.1 115.0 L 146.11707315444946 115.0 L 145.3 121.7 L 143.8 129.4 L 143.66397447586058 129.8828905105591 L 144.1 130.2 L 147.3 132.3 L 150.3 134.4 L 153.0 136.5 L 155.5 138.5 L 157.7 140.6 L 159.7 142.7 L 161.4 144.8 L 162.9 147.0 L 164.2 149.3 L 163.7 153.8 L 160.2 156.7 L 155.6 156.2 L 152.7 152.7 L 152.6 151.3 L 152.3 149.7 L 151.7 147.8 L 150.8 145.6 L 149.6 143.3 L 148.2 140.8 L 146.4 138.1 L 144.5 135.2 L 142.8293309211731 132.84587535858154 L 141.8 136.5 L 139.4 143.2 L 136.4 149.3 L 132.9 154.9 L 128.9 159.8 L 124.4 164.1 L 119.4 167.6 L 118.3 166.2 L 121.6 161.5 L 124.6 156.7 L 127.2 151.6 L 127.68970327377319 150.45026178359984 L 124.8 153.0 L 120.2 152.6 L 117.2 149.2 L 117.0 147.4 L 116.6 145.6 L 116.1 143.7 L 115.3 141.8 L 114.4 139.7 L 113.2 137.6 L 111.8 135.3 L 110.3 133.0 L 109.65382652282715 132.08775510787964 L 108.4 136.1 L 105.9 142.1 L 103.0 147.6 L 99.5 152.7 L 95.5 157.3 L 91.0 161.2 L 86.1 164.5 L 84.9 163.1 L 88.3 158.6 L 91.3 153.9 L 93.9 149.2 L 96.2 144.2 L 98.0 139.0 L 99.5 133.5 L 100.6 127.6 L 101.3 121.4 L 101.59538459777832 115.0 L 84.4 115.0 L 84.4 181.2 L 72.4 187.2 L 72.4 105.0 L 84.4 111.0 L 101.54347829818725 111.0 L 101.5 108.0 L 101.5 90.8 L 65.58869562149047 90.8 L 61.2 101.1 L 56.6 111.6 L 52.4 120.9 L 48.7 129.3 L 45.5 136.7 L 42.9 143.0 L 40.7 148.4 L 39.1 152.8 L 38.1 156.1 L 37.72093667984009 158.09008264541626 L 37.9 158.4 L 39.8 163.4 L 41.1 169.0 L 41.8 175.0 L 41.8 181.5 L 39.7 185.5 L 35.3 187.0 L 31.3 184.8 L 29.9 180.5 L 30.4 175.0 L 30.5 170.1 L 30.2 165.6 L 29.4 161.6 L 28.2 158.0 L 26.555781269073485 154.80828123092653 L 26.2 154.7 L 26.315727043151856 154.45964393615722 L 24.2 151.7 L 21.4 148.8 L 18.0 146.2 L 13.8 143.8 L 14.3 142.1 L 19.3 143.0 L 24.1 144.6 L 28.3 147.0 L 29.55479335784912 148.02364721298218 L 31.6 144.2 L 34.5 139.0 L 37.9 132.9 L 42.0 125.9 L 46.6 117.9 L 51.8 109.1 L 57.8 99.4 L 64.2 89.27462682723998 L 64.2 86.8 L 165.7 86.8 L 175.7 76.8 L 187.7 86.8 L 187.7 90.8 L 146.9 90.8 L 146.9 104.9 L 146.47441864013672 111.0 L 166.1 111.0 L 172.1 106.0 L 183.1 115.0 L 178.1 119.0 L 178.1 171.7 L 178.0 174.3 Z M 113.03947372436524 115.0 L 113.0 115.6 L 111.9 122.8 L 110.5666666984558 128.9333333015442 L 112.9 130.1 L 115.4 131.6 L 117.8 133.3 L 120.1 135.0 L 122.1 136.8 L 124.0 138.8 L 125.7 140.9 L 127.3 143.1 L 128.6 145.4 L 128.2817102432251 149.06033258438111 L 129.5 146.2 L 131.4 140.4 L 132.8 134.2 L 133.9 127.5 L 134.6 120.5 L 134.88947372436525 115.0 Z M 30.5 103.2 L 29.3 101.6 L 27.9 99.9 L 26.1 98.2 L 24.0 96.4 L 21.5 94.7 L 18.8 92.9 L 15.8 91.0 L 12.4 89.6 L 12.9 87.8 L 16.6 88.6 L 20.3 89.1 L 23.7 89.8 L 26.9 90.7 L 29.9 91.7 L 32.7 92.9 L 35.3 94.3 L 37.7 95.8 L 39.9 97.6 L 41.9 99.7 L 42.7 104.2 L 40.1 107.9 L 35.6 108.7 L 31.8 106.1 L 31.3 104.7 Z M 151.8 46.5 L 154.8 48.5 L 151.8 50.3 L 151.8 61.4 L 165.7 61.4 L 175.7 51.4 L 187.7 61.4 L 187.7 65.4 L 151.8 65.4 L 151.8 77.6 L 139.8 83.6 L 139.8 65.4 L 112.1 65.4 L 112.1 77.6 L 100.1 83.6 L 100.1 65.4 L 64.2 65.4 L 64.2 61.4 L 100.1 61.4 L 100.1 44.5 L 112.1 46.5 L 115.1 48.5 L 112.1 50.3 L 112.1 61.4 L 139.8 61.4 L 139.8 44.5 Z M 43.3 66.0 L 42.1 64.3 L 40.6 62.6 L 38.9 60.9 L 36.9 59.2 L 34.6 57.4 L 32.1 55.6 L 29.3 53.7 L 26.1 52.3 L 26.6 50.6 L 30.1 51.4 L 33.6 51.9 L 36.8 52.6 L 39.9 53.5 L 42.8 54.5 L 45.5 55.7 L 48.1 57.1 L 50.5 58.6 L 52.7 60.3 L 54.7 62.3 L 55.7 66.7 L 53.3 70.6 L 48.8 71.6 L 44.9 69.2 L 44.2 67.6 Z M 134.0 14.3 L 137.0 16.3 L 134.0 18.1 L 134.0 27.9 L 165.0 27.9 L 175.0 17.9 L 187.0 27.9 L 187.0 31.9 L 134.0 31.9 L 134.0 42.9 L 122.0 48.9 L 122.0 31.9 L 78.0 31.9 L 78.0 42.9 L 66.0 48.9 L 66.0 31.9 L 13.0 31.9 L 13.0 27.9 L 66.0 27.9 L 66.0 12.3 L 78.0 14.3 L 81.0 16.3 L 78.0 18.1 L 78.0 27.9 L 122.0 27.9 L 122.0 12.3 Z M 134.97624998092653 111.0 L 134.9 104.9 L 134.9 90.8 L 113.5 90.8 L 113.5 108.0 L 113.3026315689087 111.0 Z " />
</g>
</svg>
