<svg xmlns="http://www.w3.org/2000/svg" xmlns:xlink="http://www.w3.org/1999/xlink" version="1.1" baseProfile="full" viewBox="0 0 200 200" width="200" height="200">
<g fill="black">
<path d="M 103.6 177.0 L 123.6 177.0 L 124.9 176.9 L 125.8 176.7 L 126.7 176.4 L 126.9 176.2 L 127.0 176.0 L 127.2 175.7 L 127.4 175.1 L 127.6 174.2 L 127.6 62.0 L 88.9 62.0 L 88.9 58.0 L 127.6 58.0 L 133.6 53.0 L 144.6 62.0 L 139.6 66.0 L 139.6 71.13684206008911 L 143.0 82.5 L 146.8 94.3 L 148.29406776428223 98.30847454071045 L 149.0 97.3 L 152.4 92.6 L 155.7 88.1 L 158.8 83.8 L 161.8 79.7 L 164.6 75.7 L 167.2 71.9 L 169.6 68.2 L 171.8 64.7 L 173.22957134246826 62.21706037521362 L 173.2 62.2 L 173.4888889312744 61.76666669845581 L 173.7 61.4 L 173.72286376953124 61.415704345703126 L 174.2 60.7 L 183.6 68.2 L 185.0 71.5 L 181.08335056304932 71.29741468429566 L 181.0 71.4 L 178.1 74.7 L 175.1 78.1 L 171.8 81.6 L 168.3 85.2 L 164.5 88.8 L 160.5 92.5 L 156.3 96.2 L 151.7 99.9 L 149.505038356781 101.55741996765137 L 150.9 105.3 L 155.2 115.4 L 159.8 124.7 L 164.7 133.0 L 169.9 140.5 L 175.3 147.2 L 181.0 152.9 L 187.0 157.8 L 189.6 159.9 L 178.7 168.1 L 172.2 161.8 L 166.2 154.7 L 160.7 146.8 L 155.8 138.1 L 151.4 128.7 L 147.5 118.5 L 144.0 107.6 L 141.2 95.9 L 139.6 87.2043478012085 L 139.6 173.0 L 139.5 175.5 L 139.0 178.0 L 138.2 180.4 L 137.0 182.7 L 135.4 184.7 L 133.3 186.3 L 131.1 187.6 L 128.7 188.4 L 126.2 188.8 L 123.6 189.0 L 123.6 183.0 L 103.6 180.0 Z M 69.3 158.3 L 68.8 154.3 L 68.1 150.4 L 67.95330400466919 149.8132158279419 L 65.8 151.6 L 61.0 155.1 L 56.0 158.5 L 50.9 161.7 L 45.6 164.7 L 40.2 167.6 L 34.7 170.4 L 29.1 173.1 L 23.3 175.7 L 21.397728538513185 176.51994457244874 L 20.4 180.4 L 17.5 178.2 L 11.6 167.7 L 13.4 167.0 L 19.3 165.1 L 25.0 163.2 L 30.7 161.2 L 36.4 159.1 L 41.3 157.2625 L 41.3 112.0 L 29.0 112.0 L 29.0 124.0 L 17.0 130.0 L 17.0 47.0 L 29.0 53.0 L 41.3 53.0 L 41.3 13.0 L 53.3 15.0 L 56.3 17.0 L 53.3 18.8 L 53.3 53.0 L 65.7 53.0 L 71.7 48.0 L 82.7 57.0 L 77.7 61.0 L 77.7 112.0 L 65.7 118.0 L 65.7 112.0 L 53.3 112.0 L 53.3 152.4800000190735 L 58.5 150.4 L 67.26348543167114 147.05394191741942 L 67.1 146.4 L 65.9 142.5 L 64.5 138.5 L 62.9 134.5 L 61.1 130.4 L 59.0 126.3 L 60.4 125.2 L 63.8 128.4 L 67.1 131.9 L 69.9 135.5 L 72.5 139.4 L 74.7 143.4 L 76.7 147.6 L 78.4 151.9 L 79.8 156.3 L 80.9 160.9 L 81.7 165.6 L 80.46648044586182 168.91508378982545 L 84.7 162.8 L 88.8 156.0 L 92.6 149.1 L 96.1 142.0 L 99.1 134.5 L 101.7 126.8 L 103.9 118.7 L 105.6 110.2 L 107.0 101.4 L 107.70329666137695 95.0 L 84.4 95.0 L 84.4 91.0 L 107.9 91.0 L 113.9 86.0 L 124.9 95.0 L 119.9 98.0 L 119.06811866760253 98.34661722183228 L 118.2 103.3 L 116.1 112.6 L 113.5 121.4 L 110.4 129.9 L 106.9 137.9 L 102.8 145.4 L 98.3 152.5 L 93.2 159.1 L 87.6 165.2 L 81.5 170.6 L 80.289830493927 169.389830493927 L 80.1 169.9 L 76.1 171.9 L 71.8 170.4 L 69.7 166.4 L 69.6 162.3 Z M 29.0 57.0 L 29.0 108.0 L 41.3 108.0 L 41.3 57.0 Z M 53.3 57.0 L 53.3 108.0 L 65.7 108.0 L 65.7 57.0 Z M 134.8 36.6 L 132.6 33.6 L 130.2 30.7 L 127.5 27.8 L 124.7 25.0 L 121.6 22.3 L 118.2 19.6 L 114.7 16.8 L 110.9 14.2 L 111.6 12.5 L 116.2 13.9 L 120.6 15.4 L 124.8 17.2 L 128.8 19.2 L 132.6 21.5 L 136.2 24.0 L 139.6 26.7 L 142.8 29.7 L 145.8 32.8 L 148.6 36.1 L 149.4 40.6 L 146.9 44.5 L 142.4 45.3 L 138.6 42.7 L 136.8 39.6 Z " />
</g>
</svg>
