<svg xmlns="http://www.w3.org/2000/svg" xmlns:xlink="http://www.w3.org/1999/xlink" version="1.1" baseProfile="full" viewBox="0 0 200 200" width="200" height="200">
<g fill="black">
<path d="M 166.9 176.0 L 162.2 171.8 L 157.8 167.4 L 153.6 162.8 L 149.7 157.9 L 146.2 152.8 L 142.9 147.4 L 140.9 143.3285714149475 L 140.9 184.5 L 128.9 190.5 L 128.9 136.4 L 111.6 136.4 L 111.6 184.5 L 99.6 190.5 L 99.6 150.58163261413574 L 95.1 156.0 L 89.8 161.6 L 84.1 166.8 L 78.0 171.7 L 71.5 176.1 L 64.6 180.1 L 57.3 183.7 L 49.5 186.7 L 48.7 185.1 L 55.4 180.4 L 61.6 175.6 L 67.6 170.8 L 73.1 165.8 L 78.2 160.7 L 83.0 155.3 L 87.3 149.7 L 91.3 143.9 L 94.9 137.8 L 95.6 136.4 L 71.9 136.4 L 71.9 132.4 L 99.6 132.4 L 99.6 118.6 L 65.4 118.6 L 65.4 114.6 L 99.6 114.6 L 99.6 100.9 L 74.1 100.9 L 74.1 96.9 L 99.6 96.9 L 99.6 84.0 L 67.6 84.0 L 67.6 80.0 L 99.6 80.0 L 99.6 66.16000003814698 L 97.2 66.6 L 91.0 67.5 L 84.3 68.3 L 77.3 68.9 L 69.9 69.2 L 69.6 67.5 L 76.6 65.2 L 83.2 63.1 L 89.5 61.1 L 95.4 59.2 L 101.0 57.3 L 106.1 55.4 L 110.9 53.6 L 115.3 51.7 L 119.2 49.9 L 121.93207702636718 48.45807046890259 L 121.9 48.4 L 121.95192308425904 48.44759616851807 L 122.0 48.422222232818605 L 122.0 36.1 L 78.0 36.1 L 78.0 51.8 L 66.0 57.8 L 66.0 36.1 L 13.0 36.1 L 13.0 32.1 L 66.0 32.1 L 66.0 11.7 L 78.0 13.7 L 81.0 15.7 L 78.0 17.5 L 78.0 32.1 L 122.0 32.1 L 122.0 11.7 L 134.0 13.7 L 137.0 15.7 L 134.0 17.5 L 134.0 32.1 L 165.0 32.1 L 175.0 22.1 L 187.0 32.1 L 187.0 36.1 L 134.0 36.1 L 134.0 43.5 L 123.20374536514282 48.8981273651123 L 123.73667097091675 50.083615112304685 L 131.5 57.2 L 131.7 60.4 L 127.87532787322998 58.82156391143799 L 127.7 58.9 L 123.5 60.4 L 118.9 61.8 L 114.0 63.1 L 109.68000001907349 64.18000001907349 L 111.6 64.5 L 114.6 66.5 L 111.6 68.3 L 111.6 80.0 L 128.9 80.0 L 128.9 68.0615385055542 L 128.4 68.1 L 123.1 68.4 L 122.7 66.7 L 127.6 64.7 L 128.9 64.15833330154419 L 128.9 64.1 L 129.0 64.11666669845582 L 132.4 62.7 L 137.0 60.9 L 141.4 59.2 L 145.6 57.4 L 149.7 55.7 L 153.6 54.0 L 157.3 52.3 L 160.8 50.5 L 163.22679653167725 49.24983205795288 L 163.2 49.2 L 163.24473972320556 49.240588665008545 L 164.1 48.8 L 164.978684425354 50.81365184783935 L 172.9 58.0 L 173.1 61.2 L 169.3265233039856 59.608064556121825 L 168.9 59.8 L 165.0 61.0 L 161.0 62.2 L 156.8 63.3 L 152.5 64.4 L 148.0 65.4 L 143.4 66.2 L 141.5199999809265 66.51333332061768 L 143.9 68.1 L 140.9 69.9 L 140.9 80.0 L 160.6 80.0 L 170.6 70.0 L 182.6 80.0 L 182.6 84.0 L 140.9 84.0 L 140.9 96.9 L 159.2 96.9 L 165.2 91.9 L 176.2 100.9 L 171.2 104.9 L 171.2 114.6 L 173.7777777671814 114.6 L 180.0 107.6 L 188.0 114.6 L 188.0 118.6 L 171.2 118.6 L 171.2 140.4 L 159.2 146.4 L 159.2 136.4 L 140.9 136.4 L 140.9 136.442857170105 L 143.6 139.4 L 147.7 143.9 L 151.8 148.3 L 156.0 152.4 L 160.3 156.3 L 164.7 159.9 L 169.2 163.3 L 173.9 166.5 L 178.8 169.4 L 183.8 172.1 L 188.2 174.8 L 177.1 183.5 L 171.9 179.9 Z M 36.1 188.1 L 32.1 185.9 L 30.7 181.5 L 31.3 176.2 L 31.3 171.3 L 30.9 166.9 L 30.1 162.9 L 28.8 159.4 L 27.0 156.1 L 26.85960750579834 155.91865978240966 L 26.8 155.9 L 26.817721557617187 155.86455698013305 L 24.6 153.0 L 21.5 150.2 L 17.9 147.5 L 13.4 145.1 L 13.9 143.4 L 19.1 144.3 L 24.1 145.9 L 28.5 148.2 L 30.188228034973143 149.54192485809327 L 32.5 145.4 L 35.5 140.3 L 39.1 134.2 L 43.3 127.2 L 48.2 119.3 L 53.7 110.6 L 59.9 100.9 L 67.0 90.4 L 68.5 91.3 L 63.3 102.8 L 58.4 113.1 L 54.0 122.5 L 50.0 130.8 L 46.6 138.1 L 43.8 144.5 L 41.5 149.8 L 39.8 154.2 L 38.7 157.5 L 38.34916200637817 159.25418996810913 L 38.5 159.5 L 40.5 164.6 L 41.9 170.1 L 42.6 176.1 L 42.6 182.6 L 40.4 186.6 Z M 111.6 118.6 L 111.6 132.4 L 128.9 132.4 L 128.9 118.6 Z M 140.9 118.6 L 140.9 132.4 L 159.2 132.4 L 159.2 118.6 Z M 111.6 100.9 L 111.6 114.6 L 128.9 114.6 L 128.9 100.9 Z M 140.9 100.9 L 140.9 114.6 L 159.2 114.6 L 159.2 100.9 Z M 31.3 104.9 L 30.0 103.3 L 28.5 101.6 L 26.5 99.9 L 24.3 98.1 L 21.7 96.4 L 18.7 94.6 L 15.5 92.7 L 11.9 91.2 L 12.3 89.5 L 16.3 90.2 L 20.1 90.7 L 23.7 91.4 L 27.0 92.2 L 30.2 93.3 L 33.1 94.4 L 35.8 95.8 L 38.3 97.3 L 40.6 99.1 L 42.7 101.1 L 43.6 105.6 L 41.1 109.5 L 36.6 110.3 L 32.8 107.9 L 32.2 106.4 Z M 111.6 84.0 L 111.6 96.9 L 128.9 96.9 L 128.9 84.0 Z M 44.8 68.0 L 43.5 66.3 L 41.9 64.6 L 40.0 62.8 L 37.9 61.1 L 35.4 59.3 L 32.7 57.5 L 29.7 55.7 L 26.4 54.2 L 26.9 52.5 L 30.5 53.2 L 34.2 53.7 L 37.6 54.4 L 40.8 55.3 L 43.8 56.3 L 46.6 57.5 L 49.3 58.8 L 51.8 60.3 L 54.1 62.0 L 56.2 64.0 L 57.3 68.4 L 55.0 72.4 L 50.6 73.4 L 46.6 71.1 L 45.8 69.6 Z " />
</g>
</svg>
