<svg xmlns="http://www.w3.org/2000/svg" xmlns:xlink="http://www.w3.org/1999/xlink" version="1.1" baseProfile="full" viewBox="0 0 200 200" width="200" height="200">
<g fill="black">
<path d="M 16.7 162.1 L 23.0 161.5 L 29.5 160.9 L 36.4 160.3 L 43.7 159.6 L 51.3 159.0 L 52.9 158.86000003814698 L 52.9 145.5 L 36.0 145.5 L 28.0 153.5 L 21.19436616897583 146.69436616897582 L 21.1 146.7 L 21.12989273071289 146.6298927307129 L 18.0 143.5 L 24.925061798095705 137.7291152000427 L 33.89158697128296 116.7 L 12.5 116.7 L 12.5 112.7 L 35.59713191986084 112.7 L 43.4 94.4 L 53.7 101.0 L 55.7 104.0 L 52.13482933044433 104.66021680831909 L 48.69688196182251 112.7 L 70.9 112.7 L 80.9 102.7 L 92.9 112.7 L 92.9 116.7 L 46.98641424179077 116.7 L 36.38151445388794 141.5 L 52.9 141.5 L 52.9 124.0 L 64.9 126.0 L 67.9 128.0 L 64.9 129.8 L 64.9 141.5 L 71.9 141.5 L 81.9 131.5 L 93.9 141.5 L 93.9 145.5 L 64.9 145.5 L 64.9 157.89518070220947 L 67.6 157.7 L 76.3 157.2 L 85.4 156.8 L 94.8 156.5 L 95.0 158.3 L 85.9 160.5 L 77.0 162.5 L 68.5 164.2 L 64.9 164.90243902206421 L 64.9 182.7 L 52.9 188.7 L 52.9 167.31794872283936 L 52.5 167.4 L 45.0 168.8 L 37.9 170.2 L 31.1 171.5 L 24.6 172.8 L 22.56949625015259 173.1994433403015 L 20.9 176.7 L 18.5 174.0 L 14.8 162.4 Z M 140.3 102.7 L 141.9 106.0 L 138.02544994354247 106.43862829208373 L 132.99930067062377 114.7 L 163.2 114.7 L 173.2 104.7 L 185.2 114.7 L 185.2 118.7 L 130.56573429107667 118.7 L 117.30279722213746 140.5 L 136.8 140.5 L 136.8 123.5 L 148.8 125.5 L 151.8 127.5 L 148.8 129.3 L 148.8 140.5 L 162.3181818008423 140.5 L 170.5 131.5 L 180.5 140.5 L 180.5 144.5 L 148.8 144.5 L 148.8 159.0 L 165.6 159.0 L 175.6 149.0 L 187.6 159.0 L 187.6 163.0 L 148.8 163.0 L 148.8 182.2 L 136.8 188.2 L 136.8 163.0 L 93.4 163.0 L 93.4 159.0 L 136.8 159.0 L 136.8 144.5 L 116.1 144.5 L 108.1 152.5 L 98.1 142.5 L 106.04541749954224 135.87881870269774 L 116.49759035110473 118.7 L 95.7 118.7 L 95.7 114.7 L 118.931325340271 114.7 L 131.1 94.7 Z M 97.2 20.4 L 98.1 23.9 L 94.01035785675049 24.06037817001343 L 87.78891353607177 31.2 L 149.2 31.2 L 159.2 21.2 L 171.2 31.2 L 171.2 35.2 L 84.30332593917846 35.2 L 63.12838134765625 59.5 L 97.8 59.5 L 97.8 41.0 L 109.8 43.0 L 112.8 45.0 L 109.8 46.8 L 109.8 59.5 L 137.8181818008423 59.5 L 146.0 50.5 L 156.0 59.5 L 156.0 63.5 L 109.8 63.5 L 109.8 78.6 L 155.9 78.6 L 165.9 68.6 L 177.9 78.6 L 177.9 82.6 L 109.8 82.6 L 109.8 99.2 L 97.8 105.2 L 97.8 82.6 L 22.1 82.6 L 22.1 78.6 L 97.8 78.6 L 97.8 63.5 L 61.4 63.5 L 53.4 71.5 L 43.4 61.5 L 50.77336502075195 55.355529117584226 L 68.3256360054016 35.2 L 28.7 35.2 L 28.7 31.2 L 71.80900192260742 31.2 L 89.4 11.0 Z " />
</g>
</svg>
