<svg xmlns="http://www.w3.org/2000/svg" xmlns:xlink="http://www.w3.org/1999/xlink" version="1.1" baseProfile="full" viewBox="0 0 200 200" width="200" height="200">
<g fill="black">
<path d="M 15.3 145.9 L 21.0 144.4 L 26.9 142.9 L 33.2 141.3 L 39.8 139.7 L 46.7 138.1 L 48.2 137.7458333015442 L 48.2 106.0 L 33.3 106.0 L 25.3 114.0 L 15.3 104.0 L 22.390829658508302 98.09097528457642 L 31.868613147735594 50.0 L 12.5 50.0 L 12.5 46.0 L 32.65693426132202 46.0 L 39.2 12.8 L 50.6 17.1 L 53.1 19.6 L 49.91170883178711 20.581012630462645 L 44.885681819915774 46.0 L 62.7 46.0 L 72.7 36.0 L 84.7 46.0 L 84.7 50.0 L 44.09477272033691 50.0 L 33.8129545211792 102.0 L 48.2 102.0 L 48.2 67.0 L 60.2 69.0 L 63.2 71.0 L 60.2 72.8 L 60.2 102.0 L 63.6 102.0 L 73.6 92.0 L 85.6 102.0 L 85.6 106.0 L 60.2 106.0 L 60.2 134.99078950881957 L 61.5 134.7 L 69.4 133.0 L 77.7 131.5 L 86.3 130.1 L 86.8 131.8 L 78.7 135.1 L 70.9 138.2 L 63.3 141.0 L 60.2 142.1625 L 60.2 183.0 L 48.2 189.0 L 48.2 146.52727270126343 L 42.5 148.6 L 36.1 150.9 L 30.1 153.2 L 24.4 155.3 L 22.918176460266114 155.84882354736328 L 21.9 159.6 L 19.0 157.3 L 13.4 146.6 Z M 166.4 176.1 L 161.5 169.3 L 157.5 161.7 L 154.4 153.2 L 152.1 143.9 L 150.7 133.9 L 150.2 123.2 L 150.4 111.6 L 151.18048782348632 102.0 L 91.1 102.0 L 91.1 98.0 L 151.4 98.0 L 157.4 93.0 L 168.4 102.0 L 163.4 105.0 L 162.94387531280518 105.19005193710328 L 162.4 112.2 L 162.2 123.0 L 162.7 132.8 L 163.9 141.7 L 165.8 149.7 L 168.5 156.8 L 171.7 163.0 L 175.6 168.4 L 177.61037340164185 170.45504837036134 L 182.1 151.0 L 184.1 151.0 L 182.28181819915773 174.63636360168456 L 185.3 176.9 L 187.9 180.6 L 187.2 185.2 L 183.4 187.7 L 178.9 187.0 L 172.2 182.1 Z M 112.7 15.8 L 115.4 18.2 L 111.99739780426026 19.586245346069337 L 110.9 25.5 L 108.8 34.7 L 106.91348314285278 42.0 L 156.2 42.0 L 166.2 32.0 L 178.2 42.0 L 178.2 46.0 L 105.74819278717041 46.0 L 103.9 51.9 L 101.0 59.8 L 97.8 67.2 L 94.3 74.1 L 90.6 80.5 L 86.4 86.3 L 81.9 91.5 L 80.4 90.4 L 83.2 84.4 L 85.8 78.0 L 88.4 71.4 L 90.7 64.4 L 92.9 57.1 L 94.9 49.3 L 96.7 41.2 L 98.3 32.6 L 99.7 23.6 L 100.8 14.1 L 100.83271026611328 14.104672908782959 L 101.1 12.1 Z M 165.3 71.0 L 165.3 75.0 L 106.9 75.0 L 106.9 71.0 L 143.3 71.0 L 153.3 61.0 Z " />
</g>
</svg>
