<svg xmlns="http://www.w3.org/2000/svg" xmlns:xlink="http://www.w3.org/1999/xlink" version="1.1" baseProfile="full" viewBox="0 0 200 200" width="200" height="200">
<g fill="black">
<path d="M 130.7 183.7 L 112.3 182.6 L 97.2 180.8 L 85.0 178.1 L 75.1 174.6 L 67.2 170.3 L 61.1 165.3 L 56.4 159.6 L 54.27821521759033 155.8868766784668 L 52.0 158.1 L 48.4 161.5 L 44.9 164.6 L 41.3 167.7 L 37.7 170.6 L 26.9 178.7 L 23.323113918304443 181.18394861221313 L 23.1 185.2 L 19.8 183.6 L 12.1 174.3 L 13.8 173.3 L 17.6 171.4 L 21.4 169.6 L 29.2 165.6 L 33.2 163.6 L 37.2 161.5 L 44.0 158.1 L 44.0 109.0 L 14.0 109.0 L 14.0 105.0 L 44.0 105.0 L 50.0 100.0 L 61.0 109.0 L 56.0 113.0 L 56.0 153.70384616851806 L 59.5 156.8 L 64.9 160.7 L 70.8 164.1 L 78.0 166.8 L 87.1 169.0 L 98.6 170.6 L 113.0 171.6 L 130.9 171.9 L 152.6 171.5 L 178.7 170.4 L 190.0 169.9 L 179.2 183.5 L 152.9 184.0 Z M 147.8 71.8 L 147.4846583366394 74.24853553771973 L 149.9 84.6 L 153.0 95.8 L 156.5 106.2 L 160.4 115.8 L 164.7 124.7 L 169.5 132.7 L 174.7 140.0 L 180.3 146.5 L 186.3 152.3 L 188.0 153.9 L 177.2 161.9 L 170.8 154.7 L 165.1 146.9 L 160.0 138.3 L 155.5 129.1 L 151.7 119.2 L 148.5 108.7 L 145.9 97.5 L 144.94395475387574 91.23259201049805 L 143.8 97.4 L 140.8 108.9 L 137.2 119.6 L 132.9 129.3 L 127.9 138.2 L 122.3 146.1 L 116.0 153.1 L 109.0 158.9 L 101.5 163.6 L 100.4 162.1 L 106.5 156.1 L 112.0 149.5 L 116.9 142.3 L 121.3 134.5 L 125.1 125.9 L 128.4 116.5 L 131.1 106.3 L 133.2 95.3 L 134.8 83.5 L 135.8 70.8 L 135.8 66.7 L 108.6 66.7 L 108.6 62.7 L 135.8 62.7 L 135.8 17.5 L 147.8 19.5 L 150.8 21.5 L 147.8 23.3 L 147.8 62.7 L 161.4 62.7 L 171.4 52.7 L 183.4 62.7 L 183.4 66.7 L 147.8 66.7 L 147.8 71.3 L 147.48421049118042 71.77368421554566 Z M 100.0 155.1 L 98.4 157.0 L 96.6 158.6 L 94.6 160.0 L 92.4 161.1 L 90.1 162.0 L 87.8 162.6 L 85.3 163.0 L 82.8 163.1 L 82.8 157.1 L 72.8 154.1 L 72.8 151.1 L 82.8 151.1 L 84.2 151.0 L 85.4 150.9 L 86.5 150.6 L 88.3 149.8 L 89.1 149.2 L 89.9 148.5 L 90.6 147.7 L 91.3 146.7 L 92.0 145.5 L 93.8 140.8 L 95.6 132.5 L 96.8 121.5 L 97.2 108.6 L 96.51502265930176 94.6068922996521 L 95.1 97.3 L 91.6 103.0 L 87.9 108.4 L 83.8 113.6 L 79.5 118.5 L 74.9 123.2 L 69.9 127.5 L 64.6 131.4 L 63.4 130.0 L 67.2 124.8 L 70.9 119.7 L 74.4 114.5 L 77.6 109.2 L 80.7 103.9 L 83.5 98.4 L 86.1 92.8 L 88.4 87.1 L 90.5 81.2 L 92.4 75.2 L 93.49045343399048 75.56348447799682 L 90.7 64.1 L 89.51016139984131 60.87661914825439 L 86.9 63.8 L 81.7 69.0 L 76.2 73.6 L 70.5 77.7 L 64.5 81.1 L 63.5 79.6 L 68.1 74.8 L 72.5 69.7 L 76.9 64.5 L 81.0 59.0 L 85.0 53.1 L 86.02954416275024 51.44731063842774 L 85.2 49.2 L 77.6 35.0 L 68.2 21.5 L 69.5 20.2 L 82.0 31.9 L 90.18911819458008 44.49186992645264 L 92.4 40.5 L 95.9 33.6 L 99.1 26.3 L 102.2 18.7 L 102.20773830413819 18.70330638885498 L 102.7 17.5 L 113.2 23.4 L 115.2 26.4 L 111.48909950256348 26.9118483543396 L 109.4 31.2 L 105.4 38.6 L 101.1 45.5 L 96.6 52.1 L 94.92028474807739 54.280055904388426 L 98.2 61.6 L 102.9 77.5 L 103.14489793777466 78.78163261413575 L 103.8 79.0 L 103.38074350357056 80.01589078903199 L 105.9 93.2 L 107.3 108.3 L 107.4 122.0 L 106.6 134.0 L 105.0 143.6 L 102.7 150.9 L 101.4 153.1 Z M 38.3 77.2 L 36.1 74.7 L 33.7 72.2 L 31.2 69.7 L 28.5 67.3 L 25.7 65.0 L 22.8 62.6 L 19.8 60.3 L 16.5 58.2 L 17.2 56.5 L 21.1 57.6 L 24.9 58.6 L 28.6 60.0 L 32.2 61.5 L 35.7 63.3 L 39.1 65.2 L 42.4 67.3 L 45.5 69.6 L 48.6 72.1 L 51.5 74.7 L 52.9 79.1 L 50.9 83.2 L 46.6 84.6 L 42.5 82.6 L 40.5 79.9 Z M 165.1 42.9 L 164.5 40.6 L 163.6 38.2 L 162.6 35.8 L 161.3 33.5 L 159.9 31.1 L 158.2 28.6 L 156.3 26.1 L 154.0 23.9 L 155.0 22.4 L 157.9 24.1 L 160.9 25.6 L 163.7 27.3 L 166.2 29.2 L 168.6 31.3 L 170.8 33.6 L 172.8 36.1 L 174.6 38.8 L 176.1 41.6 L 177.4 44.6 L 176.8 49.1 L 173.1 51.9 L 168.6 51.2 L 165.8 47.6 L 165.5 45.3 Z M 47.9 41.9 L 46.0 39.3 L 43.9 36.8 L 41.6 34.3 L 39.1 31.8 L 36.5 29.4 L 33.7 26.9 L 30.7 24.4 L 27.5 22.2 L 28.2 20.6 L 32.1 21.8 L 35.9 23.1 L 39.5 24.6 L 43.0 26.2 L 46.4 28.1 L 49.6 30.2 L 52.7 32.4 L 55.6 34.7 L 58.3 37.3 L 61.0 40.0 L 62.0 44.4 L 59.8 48.4 L 55.3 49.4 L 51.4 47.2 L 49.7 44.5 Z " />
</g>
</svg>
