<svg xmlns="http://www.w3.org/2000/svg" xmlns:xlink="http://www.w3.org/1999/xlink" version="1.1" baseProfile="full" viewBox="0 0 200 200" width="200" height="200">
<g fill="black">
<path d="M 108.0 177.0 L 128.0 177.0 L 129.2 176.9 L 130.1 176.7 L 131.0 176.4 L 131.4 176.0 L 131.7 175.1 L 131.9 174.2 L 132.0 173.0 L 132.0 84.0 L 90.0 84.0 L 90.0 80.0 L 172.0 80.0 L 172.3951219558716 79.6707317352295 L 172.7 79.0 L 172.99863481521606 79.16780433654785 L 178.0 75.0 L 189.0 84.0 L 184.0 87.0 L 180.83636360168458 88.31818180084228 L 178.6 91.3 L 176.1 94.6 L 173.4 98.0 L 170.6 101.5 L 167.6 105.0 L 164.5 108.6 L 161.1 112.2 L 157.5 115.8 L 153.7 119.5 L 152.2 118.4 L 154.7 113.8 L 157.0 109.3 L 159.4 105.0 L 161.6 100.9 L 163.8 96.9 L 165.8 93.1 L 167.7 89.4 L 169.5 85.8 L 170.374285697937 84.0 L 144.0 84.0 L 144.0 173.0 L 143.8 175.5 L 143.4 178.0 L 142.6 180.4 L 141.3 182.7 L 139.7 184.7 L 137.7 186.3 L 135.4 187.6 L 133.0 188.4 L 130.5 188.8 L 128.0 189.0 L 128.0 183.0 L 108.0 180.0 Z M 87.4 73.0 L 87.4 77.0 L 58.7 77.0 L 58.7 111.0 L 69.8 111.0 L 79.8 101.0 L 91.8 111.0 L 91.8 115.0 L 58.7 115.0 L 58.7 158.12285718917846 L 59.0 157.9 L 62.6 155.3 L 66.4 152.5 L 70.3 149.7 L 74.4 146.9 L 78.6 144.0 L 83.1 141.1 L 87.7 138.3 L 88.9 139.6 L 85.4 143.9 L 82.0 147.9 L 78.6 151.7 L 75.2 155.4 L 71.9 158.9 L 65.5 165.5 L 62.4 168.6 L 59.5 171.6 L 56.6 174.5 L 56.41538457870483 174.28461542129517 L 50.7 180.0 L 40.7 170.0 L 46.7 164.0 L 46.7 115.0 L 15.3 115.0 L 15.3 111.0 L 46.7 111.0 L 46.7 77.0 L 32.2 77.0 L 32.2 73.0 L 65.4 73.0 L 75.4 63.0 Z M 56.4 17.6 L 58.6 20.4 L 55.04771318435669 21.35150537490845 L 53.3 26.2 L 50.0 34.6 L 46.4 42.8 L 46.307499980926515 43.0 L 69.0 43.0 L 79.0 33.0 L 91.0 43.0 L 91.0 47.0 L 44.457499980926514 47.0 L 42.7 50.8 L 38.6 58.5 L 34.4 66.1 L 29.8 73.4 L 25.0 80.4 L 19.8 87.1 L 14.3 93.5 L 12.8 92.4 L 20.4 77.6 L 24.1 70.1 L 27.6 62.5 L 31.0 54.8 L 34.2 47.0 L 37.1 39.0 L 39.9 30.9 L 42.5 22.6 L 44.6404109954834 15.108561611175537 L 44.6 15.1 L 45.3 12.6 Z M 135.7 69.0 L 133.6 66.2 L 131.2 63.4 L 128.5 60.6 L 125.6 57.9 L 122.5 55.2 L 119.1 52.5 L 115.5 49.8 L 111.5 47.2 L 112.2 45.5 L 116.9 46.9 L 121.4 48.3 L 125.6 50.1 L 129.7 52.0 L 133.5 54.2 L 137.1 56.6 L 138.06231880187988 57.33589086532593 L 140.7 54.0 L 143.8 49.9 L 146.9 46.0 L 149.8 42.3 L 152.5 38.9 L 155.1 35.6 L 157.4 32.4 L 159.22068967819214 30.0 L 97.0 30.0 L 97.0 26.0 L 162.0 26.0 L 162.1267605781555 25.89436616897583 L 163.3 24.1 L 163.79158573150636 24.507011890411377 L 168.0 21.0 L 179.0 30.0 L 174.0 33.0 L 169.13647060394288 35.0264705657959 L 167.5 36.6 L 164.7 39.1 L 161.6 41.8 L 158.4 44.5 L 154.9 47.4 L 151.2 50.4 L 147.3 53.4 L 143.0 56.4 L 139.84193544387819 58.69677419662476 L 140.5 59.2 L 143.6 62.0 L 146.6 65.0 L 149.3 68.1 L 150.1 72.6 L 147.6 76.4 L 143.1 77.3 L 139.3 74.8 L 137.6 71.9 Z " />
</g>
</svg>
