<svg xmlns="http://www.w3.org/2000/svg" xmlns:xlink="http://www.w3.org/1999/xlink" version="1.1" baseProfile="full" viewBox="0 0 200 200" width="200" height="200">
<g fill="black">
<path d="M 99.4 100.1 L 98.5 112.2 L 97.1 123.7 L 95.2 134.6 L 92.8 144.8 L 89.8 154.4 L 86.3 163.3 L 82.2 171.6 L 77.6 179.1 L 72.3 185.7 L 66.5 191.5 L 65.1 190.4 L 69.3 183.5 L 73.0 176.4 L 76.3 168.7 L 79.2 160.6 L 81.7 152.0 L 83.7 142.7 L 85.3 132.9 L 86.5 122.5 L 87.2 111.5 L 87.4 99.8 L 87.4 38.0 L 99.4 44.0 L 161.3 44.0 L 171.3 34.0 L 183.3 44.0 L 183.3 48.0 L 99.4 48.0 L 99.4 100.0 L 99.33442621231079 100.09836063385009 Z M 168.0 173.7 L 163.4 166.5 L 159.5 158.8 L 156.1 150.5 L 153.4 141.6 L 151.3 132.0 L 149.8 122.0 L 149.0 111.3 L 149.09115047454833 101.0 L 145.18993291854858 101.0 L 143.8 111.9 L 140.8 125.7 L 136.8 138.3 L 131.6 149.8 L 125.4 160.0 L 118.1 169.0 L 109.8 176.7 L 100.4 183.0 L 90.1 187.8 L 89.4 186.1 L 98.3 179.8 L 106.2 172.7 L 113.1 164.8 L 119.0 155.9 L 124.0 146.1 L 128.0 135.3 L 131.0 123.4 L 133.2 110.3 L 133.92553195953369 101.0 L 100.6 101.0 L 100.6 97.0 L 134.23758869171144 97.0 L 134.3 96.2 L 134.5 81.0 L 134.5 54.0 L 146.5 56.0 L 149.5 58.0 L 146.5 59.8 L 146.5 81.0 L 145.7 97.0 L 164.2 97.0 L 174.2 87.0 L 186.2 97.0 L 186.2 101.0 L 151.13211011886597 101.0 L 153.2 110.8 L 155.6 120.9 L 158.3 130.3 L 161.3 139.0 L 164.8 146.9 L 168.6 154.1 L 172.8 160.6 L 177.3 166.4 L 182.2 171.5 L 187.5 175.9 L 189.9 177.9 L 179.1 186.0 L 173.2 180.2 Z M 77.8 73.0 L 77.8 77.0 L 53.0 77.0 L 53.0 111.0 L 59.7 111.0 L 69.7 101.0 L 81.7 111.0 L 81.7 115.0 L 53.0 115.0 L 53.0 157.38181819915772 L 55.3 155.5 L 58.7 152.8 L 62.3 150.0 L 65.9 147.1 L 69.8 144.2 L 73.8 141.3 L 77.9 138.3 L 79.2 139.6 L 76.2 143.7 L 73.3 147.7 L 70.3 151.5 L 67.4 155.1 L 64.5 158.6 L 61.7 162.0 L 58.9 165.2 L 56.2 168.4 L 53.7 171.4 L 51.2 174.3 L 50.954385948181155 174.04561405181886 L 45.0 180.0 L 35.0 170.0 L 41.0 164.0 L 41.0 115.0 L 13.8 115.0 L 13.8 111.0 L 41.0 111.0 L 41.0 77.0 L 28.8 77.0 L 28.8 73.0 L 59.61818180084229 73.0 L 67.8 64.0 Z M 50.9 17.5 L 53.3 20.2 L 49.73229923248291 21.21934309005737 L 48.2 26.1 L 45.2 34.4 L 42.0 42.6 L 41.83000001907349 43.0 L 62.81818180084228 43.0 L 71.0 34.0 L 81.0 43.0 L 81.0 47.0 L 40.130000019073485 47.0 L 38.6 50.6 L 35.0 58.4 L 31.2 65.9 L 27.1 73.2 L 22.7 80.3 L 18.0 87.0 L 13.0 93.4 L 11.5 92.5 L 14.7 85.1 L 18.0 77.7 L 21.2 70.3 L 24.3 62.7 L 27.2 55.0 L 30.0 47.2 L 32.6 39.2 L 35.0 31.1 L 37.3 22.8 L 39.3 14.4 L 39.339468002319336 14.41054744720459 L 39.8 12.7 Z M 132.5 31.0 L 132.0 28.7 L 130.4 24.3 L 129.4 22.0 L 128.2 19.8 L 126.8 17.5 L 125.3 15.2 L 123.4 13.3 L 124.4 11.8 L 126.9 13.3 L 129.6 14.7 L 132.0 16.2 L 134.3 18.0 L 136.5 20.0 L 138.5 22.1 L 140.3 24.5 L 142.0 27.0 L 143.5 29.7 L 144.8 32.5 L 144.1 37.0 L 140.6 39.8 L 136.0 39.2 L 133.2 35.6 L 132.9 33.3 Z " />
</g>
</svg>
