<svg xmlns="http://www.w3.org/2000/svg" xmlns:xlink="http://www.w3.org/1999/xlink" version="1.1" baseProfile="full" viewBox="0 0 200 200" width="200" height="200">
<g fill="black">
<path d="M 103.6 177.0 L 123.6 177.0 L 124.8 176.9 L 125.7 176.7 L 126.6 176.4 L 127.0 176.0 L 127.2 175.7 L 127.3 175.1 L 127.5 174.2 L 127.6 173.0 L 127.6 120.0 L 84.9 120.0 L 84.9 116.0 L 127.6 116.0 L 127.6 87.0 L 102.7 87.0 L 102.7 83.0 L 141.5 83.0 L 151.5 73.0 L 163.5 83.0 L 163.5 87.0 L 139.6 87.0 L 139.6 116.0 L 162.1 116.0 L 172.1 106.0 L 184.1 116.0 L 184.1 120.0 L 139.6 120.0 L 139.6 173.0 L 139.4 175.5 L 139.0 178.0 L 138.2 180.4 L 137.0 182.7 L 135.3 184.7 L 133.3 186.3 L 131.0 187.6 L 128.6 188.4 L 126.1 188.8 L 123.6 189.0 L 123.6 183.0 L 103.6 180.0 Z M 113.3 139.5 L 115.1 142.6 L 111.28290596008301 142.92905979156495 L 107.3 149.7 L 104.1 154.5 L 100.7 159.3 L 97.2 163.8 L 93.6 168.2 L 89.8 172.4 L 85.8 176.4 L 81.6 180.1 L 77.2 183.6 L 75.9 182.3 L 78.8 177.6 L 84.6 168.4 L 87.5 163.7 L 92.9 154.3 L 95.4 149.4 L 97.9 144.4 L 100.2 139.4 L 102.08694829940796 135.133856010437 L 102.0 135.1 L 103.0 133.1 Z M 80.2 73.0 L 80.2 77.0 L 54.4 77.0 L 54.4 111.0 L 62.3 111.0 L 72.3 101.0 L 84.3 111.0 L 84.3 115.0 L 54.4 115.0 L 54.4 157.60909090042114 L 57.1 155.4 L 60.6 152.7 L 64.3 149.9 L 68.0 147.0 L 72.0 144.1 L 76.1 141.3 L 80.4 138.3 L 81.6 139.6 L 75.4 147.8 L 72.4 151.6 L 69.3 155.2 L 66.3 158.7 L 63.4 162.1 L 60.6 165.3 L 57.8 168.4 L 55.1 171.4 L 52.5 174.3 L 52.30591716766357 174.09408283233643 L 46.4 180.0 L 36.4 170.0 L 42.4 164.0 L 42.4 115.0 L 14.2 115.0 L 14.2 111.0 L 42.4 111.0 L 42.4 77.0 L 29.7 77.0 L 29.7 73.0 L 58.2 73.0 L 68.2 63.0 Z M 170.7 167.5 L 168.9 163.3 L 166.9 159.1 L 164.7 155.1 L 162.2 151.1 L 159.6 147.2 L 156.8 143.3 L 153.8 139.3 L 150.6 135.3 L 151.7 133.9 L 156.3 136.6 L 160.5 139.6 L 164.4 142.9 L 168.1 146.4 L 171.5 150.2 L 174.7 154.2 L 177.6 158.4 L 180.3 162.8 L 182.8 167.4 L 184.9 172.1 L 184.7 176.7 L 181.3 179.8 L 176.8 179.5 L 173.7 176.2 L 172.3 171.8 Z M 52.3 17.5 L 54.6 20.2 L 51.094871807098386 21.201465225219728 L 49.5 26.1 L 46.4 34.5 L 43.1 42.7 L 42.96708860397339 43.0 L 65.31818180084228 43.0 L 73.5 34.0 L 83.5 43.0 L 83.5 47.0 L 41.194936752319336 47.0 L 39.6 50.6 L 35.9 58.4 L 32.0 65.9 L 27.8 73.2 L 23.3 80.3 L 18.5 87.0 L 13.3 93.4 L 11.8 92.5 L 18.6 77.7 L 21.9 70.2 L 25.1 62.7 L 28.2 55.0 L 31.0 47.2 L 33.7 39.2 L 36.2 31.0 L 38.6 22.8 L 40.7 14.3 L 40.76444444656372 14.317777824401855 L 41.2 12.7 Z M 168.2 79.8 L 163.1 74.6 L 158.1 68.8 L 153.2 62.4 L 148.4 55.4 L 143.6 47.8 L 139.0 39.7 L 134.7708107948303 31.14550371170044 L 131.4 38.5 L 126.7 47.4 L 121.6 55.8 L 116.2 63.6 L 110.4 70.8 L 104.3 77.3 L 97.8 83.2 L 90.9 88.3 L 83.6 92.7 L 82.6 91.2 L 88.4 85.4 L 94.0 79.3 L 99.4 72.9 L 104.4 66.1 L 109.2 58.8 L 113.6 51.0 L 117.8 42.8 L 121.7 34.0 L 125.2 24.7 L 128.5 15.0 L 129.0 13.5 L 139.9 18.8 L 142.0 21.7 L 138.41652421951295 22.45441598892212 L 136.69763059616088 26.68876361846924 L 138.2 28.7 L 144.0 36.5 L 149.6 43.7 L 155.1 50.4 L 160.4 56.5 L 165.7 61.9 L 170.9 66.7 L 175.9 70.9 L 180.9 74.4 L 189.7 79.9 L 178.7 88.5 L 173.4 84.5 Z " />
</g>
</svg>
