<svg xmlns="http://www.w3.org/2000/svg" xmlns:xlink="http://www.w3.org/1999/xlink" version="1.1" baseProfile="full" viewBox="0 0 200 200" width="200" height="200">
<g fill="black">
<path d="M 65.4 48.9 L 64.1 46.5 L 62.6 44.0 L 60.8 41.4 L 58.8 38.8 L 56.5 36.2 L 54.0 33.5 L 51.3 30.8 L 49.758775520324704 29.54775514602661 L 48.0 34.2 L 44.6 42.3 L 41.0 50.1 L 37.0 57.8 L 32.8 65.2 L 30.405479431152344 69.0 L 55.018181800842285 69.0 L 63.2 60.0 L 73.2 69.0 L 73.2 73.0 L 53.7 73.0 L 53.7 101.0 L 59.518181800842285 101.0 L 67.7 92.0 L 77.7 101.0 L 77.7 105.0 L 53.7 105.0 L 53.7 161.5918032646179 L 57.1 160.7 L 69.5 157.5 L 75.9 156.1 L 76.5 157.8 L 70.9 161.1 L 65.1 164.1 L 59.3 166.9 L 53.5 169.5 L 41.7 174.3 L 35.8 176.5 L 29.8 178.6 L 23.9 180.6 L 21.89337749481201 181.23543043136596 L 20.6 184.9 L 17.9 182.5 L 13.0 171.4 L 14.9 170.9 L 26.9 168.3 L 32.9 166.9 L 41.7 164.7 L 41.7 105.0 L 17.0 105.0 L 17.0 101.0 L 41.7 101.0 L 41.7 73.0 L 27.85217390060425 73.0 L 23.4 79.4 L 18.1 86.1 L 12.4 92.5 L 11.0 91.4 L 18.8 76.6 L 22.5 69.2 L 26.1 61.7 L 29.4 54.1 L 32.5 46.4 L 35.3 38.6 L 37.9 30.6 L 40.3 22.5 L 42.14191780090332 15.307749557495118 L 42.1 15.3 L 42.3618182182312 14.44909086227417 L 42.4 14.3 L 42.407090473175046 14.30195598602295 L 42.9 12.7 L 54.0 17.5 L 56.3 20.3 L 52.7172947883606 21.259653186798097 L 51.1 26.0 L 50.569859981536865 27.402305793762206 L 52.8 28.4 L 56.5 30.0 L 60.0 31.8 L 63.2 33.8 L 66.3 35.9 L 69.1 38.2 L 71.7 40.6 L 74.0 43.1 L 76.2 45.8 L 78.1 48.7 L 78.3 53.3 L 75.2 56.7 L 70.7 56.8 L 67.2 53.8 L 66.4 51.4 Z M 117.3 183.0 L 114.8 182.6 L 112.4 181.8 L 110.1 180.5 L 108.1 178.9 L 106.5 176.9 L 105.2 174.6 L 104.4 172.2 L 104.0 169.7 L 103.9 167.2 L 103.9 127.7 L 115.9 129.7 L 118.9 131.7 L 115.9 133.5 L 115.9 168.4 L 116.1 169.3 L 116.4 170.2 L 116.8 170.6 L 117.7 170.9 L 118.6 171.1 L 119.9 171.2 L 156.5 171.2 L 162.5 146.2 L 164.5 146.2 L 162.5 171.2 L 166.1 173.6 L 168.5 177.2 L 166.1 180.7 L 162.5 183.2 L 119.9 183.2 Z M 76.5 175.4 L 74.9 171.1 L 76.7 166.9 L 78.4 165.5 L 80.1 163.6 L 81.8 161.2 L 83.3 158.1 L 84.8 154.6 L 86.1 150.4 L 87.3 145.8 L 88.3 140.6 L 89.3 135.0 L 90.1 128.8 L 91.9 128.7 L 92.7 135.0 L 93.3 140.9 L 93.4 146.5 L 93.3 151.6 L 92.8 156.5 L 92.0 161.0 L 90.8 165.1 L 89.3 169.0 L 87.3 172.5 L 85.0 175.6 L 80.7 177.2 Z M 175.7 159.2 L 174.8 155.5 L 173.7 151.9 L 172.5 148.3 L 171.0 144.8 L 169.4 141.3 L 167.5 137.9 L 165.6 134.4 L 163.2 131.0 L 164.5 129.7 L 167.9 132.2 L 171.2 134.9 L 174.3 137.9 L 177.0 141.1 L 179.6 144.5 L 181.9 148.2 L 183.9 152.0 L 185.7 156.0 L 187.3 160.2 L 188.6 164.5 L 187.7 169.0 L 183.9 171.5 L 179.4 170.6 L 176.8 166.8 L 176.4 162.9 Z M 25.7 145.3 L 25.4 142.3 L 25.0 139.4 L 24.4 136.4 L 23.6 133.4 L 22.6 130.4 L 20.2 124.2 L 18.4 121.3 L 19.8 120.1 L 22.4 122.6 L 25.0 125.0 L 27.4 127.6 L 29.6 130.4 L 31.5 133.4 L 33.2 136.6 L 34.7 139.8 L 35.9 143.3 L 36.9 146.8 L 37.7 150.5 L 36.2 154.8 L 32.2 156.9 L 27.9 155.5 L 25.7 151.4 L 25.8 148.4 Z M 135.3 144.8 L 133.1 139.2 L 131.9 136.6 L 130.5 134.0 L 129.1 131.5 L 127.5 129.0 L 125.8 126.5 L 123.8 124.3 L 124.8 122.9 L 127.5 124.4 L 130.4 125.9 L 133.1 127.7 L 135.6 129.8 L 138.1 132.1 L 140.4 134.6 L 142.5 137.3 L 144.6 140.2 L 146.5 143.3 L 148.2 146.6 L 148.0 151.1 L 144.7 154.3 L 140.1 154.1 L 137.0 150.8 L 136.2 147.8 Z M 75.6 121.8 L 77.8 124.6 L 73.84950494766235 125.5009901046753 L 72.7 127.8 L 71.1 130.7 L 67.7 136.7 L 65.8 139.7 L 63.9 142.6 L 61.8 145.5 L 59.6 148.4 L 57.5 151.4 L 55.9 150.5 L 57.1 147.1 L 57.9 143.6 L 58.8 140.3 L 59.7 136.9 L 60.6 133.7 L 62.2 127.3 L 63.6 121.1 L 64.00173912048339 119.02434778213501 L 63.9 119.0 L 64.16938772201539 118.15816326141358 L 64.2 118.0 L 64.21807231903077 118.00602407455445 L 64.7 116.5 Z M 187.2 113.0 L 187.2 117.0 L 76.7 117.0 L 76.7 113.0 L 169.01818180084229 113.0 L 177.2 104.0 Z M 99.0 100.0 L 87.0 106.0 L 87.0 52.0 L 99.0 58.0 L 126.0 58.0 L 126.0 39.0 L 80.0 39.0 L 80.0 35.0 L 126.0 35.0 L 126.0 14.0 L 138.0 16.0 L 141.0 18.0 L 138.0 19.8 L 138.0 35.0 L 162.0 35.0 L 172.0 25.0 L 184.0 35.0 L 184.0 39.0 L 138.0 39.0 L 138.0 58.0 L 165.0 58.0 L 171.0 53.0 L 182.0 62.0 L 177.0 66.0 L 177.0 99.0 L 165.0 105.0 L 165.0 97.0 L 99.0 97.0 Z M 99.0 62.0 L 99.0 93.0 L 113.0 93.0 L 113.0 62.0 Z M 125.0 93.0 L 139.0 93.0 L 139.0 62.0 L 125.0 62.0 Z M 151.0 62.0 L 151.0 93.0 L 165.0 93.0 L 165.0 62.0 Z " />
</g>
</svg>
