<svg xmlns="http://www.w3.org/2000/svg" xmlns:xlink="http://www.w3.org/1999/xlink" version="1.1" baseProfile="full" viewBox="0 0 200 200" width="200" height="200">
<g fill="black">
<path d="M 98.8 26.0 L 158.8 26.0 L 164.8 21.0 L 175.8 30.0 L 170.8 33.0 L 170.8 66.4 L 171.2 97.8 L 172.1 122.7 L 173.4 141.9 L 175.1 156.1 L 177.1 165.9 L 178.46291389465333 169.79403972625732 L 182.8 151.0 L 184.8 151.0 L 182.89832639694214 175.72175731658936 L 183.9 176.0 L 187.7 178.5 L 188.7 183.0 L 186.2 186.8 L 181.8 187.9 L 177.0 186.4 L 172.1 182.8 L 168.3 177.0 L 165.5 169.0 L 163.3 158.0 L 161.5 143.0 L 160.1 123.3 L 159.2 98.1 L 158.8 66.5 L 158.8 30.0 L 98.8 30.0 L 98.8 82.0 L 98.2 98.5 L 96.9 113.9 L 94.9 127.9 L 92.1 140.7 L 88.7 152.2 L 84.6 162.4 L 79.7 171.2 L 74.1 178.6 L 67.7 184.5 L 60.7 188.7 L 59.7 187.2 L 65.1 181.7 L 69.8 175.4 L 74.0 168.0 L 77.6 159.4 L 80.6 149.7 L 83.1 138.7 L 84.9 126.5 L 86.2 112.9 L 86.8 98.1 L 86.8 20.0 Z M 76.4 73.0 L 76.4 77.0 L 52.1 77.0 L 52.1 111.0 L 58.2 111.0 L 68.2 101.0 L 80.2 111.0 L 80.2 115.0 L 52.1 115.0 L 52.1 157.271875 L 54.2 155.5 L 57.6 152.8 L 61.0 150.0 L 68.4 144.2 L 72.4 141.3 L 76.5 138.3 L 77.8 139.6 L 74.8 143.7 L 71.9 147.7 L 69.0 151.5 L 66.2 155.1 L 63.4 158.6 L 60.6 162.0 L 57.9 165.2 L 55.3 168.3 L 52.8 171.3 L 50.3 174.2 L 50.10118341445923 173.99881658554077 L 44.1 180.0 L 34.1 170.0 L 40.1 164.0 L 40.1 115.0 L 13.6 115.0 L 13.6 111.0 L 40.1 111.0 L 40.1 77.0 L 28.3 77.0 L 28.3 73.0 L 58.21818180084229 73.0 L 66.4 64.0 Z M 139.2 131.6 L 136.3 122.8 L 132.8 113.8 L 130.21851692199706 107.71034774780273 L 127.7 112.4 L 121.6 122.7 L 115.0 132.5 L 108.0 141.8 L 100.4 150.5 L 92.4 158.5 L 91.0 157.4 L 97.4 148.1 L 103.6 138.7 L 109.5 129.0 L 115.0 118.9 L 120.2 108.5 L 125.0 97.7 L 125.32556505203247 96.88247003555298 L 124.5 95.1 L 119.7 85.3 L 114.4 75.3 L 108.8 65.0 L 102.8 54.3 L 104.3 53.3 L 111.9 62.9 L 119.0 72.5 L 125.4 82.0 L 128.94191522598265 87.80141286849975 L 129.5 86.4 L 133.6 74.8 L 137.4 62.8 L 140.52664861679077 51.30496835708618 L 140.5 51.3 L 141.2 48.7 L 152.3 53.5 L 154.7 56.2 L 151.09591073989867 57.22973976135254 L 148.2 66.2 L 143.7 78.5 L 138.8 90.3 L 135.06019420623778 98.27354822158813 L 136.5 100.8 L 141.3 110.0 L 145.6 119.1 L 149.3 128.1 L 152.6 136.9 L 155.3 145.6 L 154.6 150.1 L 150.9 152.9 L 146.4 152.1 L 143.7 148.5 L 141.7 140.2 Z M 50.1 17.4 L 52.5 20.1 L 48.91019048690796 21.189763641357423 L 47.4 26.0 L 44.5 34.4 L 41.4 42.6 L 41.230000019073486 43.0 L 61.31818180084228 43.0 L 69.5 34.0 L 79.5 43.0 L 79.5 47.0 L 39.53000001907348 47.0 L 38.0 50.6 L 34.5 58.3 L 30.7 65.9 L 26.7 73.2 L 22.4 80.2 L 17.8 87.0 L 12.8 93.4 L 11.3 92.5 L 14.5 85.1 L 17.6 77.7 L 20.8 70.3 L 23.8 62.7 L 26.6 55.1 L 29.4 47.2 L 31.9 39.3 L 34.3 31.1 L 36.5 22.8 L 38.5 14.4 L 38.55553560256958 14.414362621307372 L 39.0 12.7 Z " />
</g>
</svg>
