<svg xmlns="http://www.w3.org/2000/svg" xmlns:xlink="http://www.w3.org/1999/xlink" version="1.1" baseProfile="full" viewBox="0 0 200 200" width="200" height="200">
<g fill="black">
<path d="M 77.8 73.0 L 77.8 77.0 L 53.0 77.0 L 53.0 111.0 L 59.7 111.0 L 69.7 101.0 L 81.7 111.0 L 81.7 115.0 L 53.0 115.0 L 53.0 157.38181819915772 L 55.3 155.5 L 58.7 152.8 L 62.3 150.0 L 65.9 147.1 L 69.8 144.2 L 73.8 141.3 L 77.9 138.3 L 79.2 139.6 L 76.2 143.7 L 73.3 147.7 L 70.3 151.5 L 67.4 155.1 L 64.5 158.6 L 61.7 162.0 L 58.9 165.2 L 56.2 168.4 L 53.7 171.4 L 51.2 174.3 L 50.954385948181155 174.04561405181886 L 45.0 180.0 L 35.0 170.0 L 41.0 164.0 L 41.0 115.0 L 13.8 115.0 L 13.8 111.0 L 41.0 111.0 L 41.0 77.0 L 28.8 77.0 L 28.8 73.0 L 59.61818180084229 73.0 L 67.8 64.0 Z M 105.8 154.0 L 103.5 158.8 L 102.8 162.0 L 103.1 163.8 L 104.2 165.2 L 107.0 166.9 L 112.1 168.5 L 119.3 169.6 L 128.5 169.9 L 175.7 169.9 L 181.7 144.9 L 183.7 144.9 L 181.7 169.9 L 185.3 172.3 L 187.7 175.9 L 185.3 179.5 L 181.7 181.9 L 128.5 181.9 L 118.2 181.5 L 109.5 180.2 L 102.2 177.9 L 96.2 174.2 L 92.1 168.6 L 90.8 161.8 L 92.1 154.9 L 95.4 147.9 L 100.4 140.7 L 107.1 132.8 L 152.24229249954223 84.2 L 88.2 84.2 L 88.2 80.2 L 156.3 80.2 L 162.3 75.2 L 173.3 84.2 L 168.3 87.2 L 163.62572498321532 89.14761457443237 L 115.9 141.0 L 109.9 148.0 Z M 50.9 17.5 L 53.3 20.2 L 49.73229923248291 21.21934309005737 L 48.2 26.1 L 45.2 34.4 L 42.0 42.6 L 41.83000001907349 43.0 L 62.81818180084228 43.0 L 71.0 34.0 L 81.0 43.0 L 81.0 47.0 L 40.130000019073485 47.0 L 38.6 50.6 L 35.0 58.4 L 31.2 65.9 L 27.1 73.2 L 22.7 80.3 L 18.0 87.0 L 13.0 93.4 L 11.5 92.5 L 14.7 85.1 L 18.0 77.7 L 21.2 70.3 L 24.3 62.7 L 27.2 55.0 L 30.0 47.2 L 32.6 39.2 L 35.0 31.1 L 37.3 22.8 L 39.3 14.4 L 39.339468002319336 14.41054744720459 L 39.8 12.7 Z M 158.4 19.0 L 161.4 21.0 L 158.4 22.8 L 158.4 42.0 L 166.2 42.0 L 176.2 32.0 L 188.2 42.0 L 188.2 46.0 L 158.4 46.0 L 158.4 66.0 L 146.4 72.0 L 146.4 46.0 L 124.5 46.0 L 124.5 66.0 L 112.5 72.0 L 112.5 46.0 L 82.7 46.0 L 82.7 42.0 L 112.5 42.0 L 112.5 17.0 L 124.5 19.0 L 127.5 21.0 L 124.5 22.8 L 124.5 42.0 L 146.4 42.0 L 146.4 17.0 Z " />
</g>
</svg>
