<svg xmlns="http://www.w3.org/2000/svg" xmlns:xlink="http://www.w3.org/1999/xlink" version="1.1" baseProfile="full" viewBox="0 0 200 200" width="200" height="200">
<g fill="black">
<path d="M 170.5 168.2 L 168.9 162.9 L 167.91325597763063 160.23579120635986 L 157.4 162.8 L 146.1 165.4 L 135.7 167.6 L 126.2 169.7 L 117.8 171.6 L 110.3 173.3 L 103.8 174.8 L 98.2 176.2 L 94.15501861572265 177.36855020523072 L 92.8 181.0 L 90.2 178.6 L 85.5 167.3 L 87.5 166.9 L 87.88199052810668 166.84123220443726 L 88.1 166.1 L 90.1 164.5 L 93.4 160.3 L 97.5 153.7 L 102.2 145.3 L 107.1 135.7 L 112.0 125.5 L 116.6 115.4 L 120.8 106.1 L 124.2 98.2 L 126.30250101089477 93.23809766769409 L 126.2 93.2 L 127.2 91.1 L 137.5 97.4 L 139.3 100.5 L 135.67082529067994 100.87543182373047 L 134.5 103.1 L 130.5 110.8 L 125.7 119.9 L 120.3 129.7 L 114.6 139.7 L 108.7 149.1 L 103.0 157.4 L 97.5 163.8 L 94.63174600601197 165.89603176116944 L 96.2 165.7 L 102.0 165.0 L 108.7 164.1 L 116.4 163.2 L 125.0 162.2 L 134.6 161.1 L 145.2 160.1 L 156.8 159.0 L 167.1809278488159 158.25850515365602 L 166.9 157.5 L 164.4 152.0 L 161.6 146.2 L 158.4 140.3 L 154.8 134.2 L 150.9 127.9 L 146.7 121.3 L 148.1 120.1 L 153.9 125.5 L 159.1 131.0 L 163.8 136.6 L 168.1 142.2 L 171.9 147.9 L 175.2 153.5 L 178.2 159.1 L 180.7 164.7 L 182.7 170.3 L 184.4 175.8 L 183.4 180.3 L 179.6 182.9 L 175.2 181.9 L 172.6 178.2 L 171.7 173.2 Z M 81.2 73.0 L 81.2 77.0 L 55.0 77.0 L 55.0 111.0 L 63.3 111.0 L 73.3 101.0 L 85.3 111.0 L 85.3 115.0 L 55.0 115.0 L 55.0 157.70294113159179 L 57.9 155.4 L 61.4 152.7 L 65.1 149.9 L 68.9 147.0 L 72.8 144.1 L 77.0 141.2 L 81.4 138.3 L 82.6 139.6 L 79.4 143.8 L 76.3 147.8 L 73.2 151.6 L 70.1 155.2 L 67.1 158.7 L 64.1 162.1 L 61.2 165.3 L 58.4 168.4 L 55.7 171.5 L 53.1 174.4 L 52.86023387908936 174.13976612091065 L 47.0 180.0 L 37.0 170.0 L 43.0 164.0 L 43.0 115.0 L 14.3 115.0 L 14.3 111.0 L 43.0 111.0 L 43.0 77.0 L 30.0 77.0 L 30.0 73.0 L 63.018181800842285 73.0 L 71.2 64.0 Z M 52.8 17.5 L 55.2 20.3 L 51.57197456359863 21.271792507171632 L 50.0 26.1 L 46.9 34.5 L 43.6 42.7 L 43.464999961853025 43.0 L 66.31818180084228 43.0 L 74.5 34.0 L 84.5 43.0 L 84.5 47.0 L 41.66499996185303 47.0 L 40.0 50.7 L 36.3 58.4 L 32.3 66.0 L 28.0 73.3 L 23.5 80.3 L 18.6 87.0 L 13.4 93.4 L 11.9 92.5 L 15.4 85.1 L 18.8 77.7 L 22.2 70.2 L 25.5 62.7 L 28.5 55.0 L 31.4 47.1 L 34.2 39.2 L 36.7 31.0 L 39.1 22.7 L 41.03632164001465 15.306771850585937 L 41.0 15.3 L 41.7 12.6 Z M 188.6 87.0 L 188.6 91.0 L 79.3 91.0 L 79.3 87.0 L 170.4181818008423 87.0 L 178.6 78.0 Z M 172.4 31.0 L 172.4 35.0 L 93.6 35.0 L 93.6 31.0 L 150.4 31.0 L 160.4 21.0 Z " />
</g>
</svg>
