<svg xmlns="http://www.w3.org/2000/svg" xmlns:xlink="http://www.w3.org/1999/xlink" version="1.1" baseProfile="full" viewBox="0 0 200 200" width="200" height="200">
<g fill="black">
<path d="M 110.8 176.0 L 130.8 176.0 L 132.0 175.9 L 132.9 175.7 L 133.8 175.4 L 134.2 175.0 L 134.5 174.1 L 134.7 173.2 L 134.8 172.0 L 134.8 114.0 L 105.1 114.0 L 97.1 122.0 L 87.1 112.0 L 94.95112285614013 105.45739765167237 L 103.19961423873902 80.0 L 89.0 80.0 L 89.0 76.0 L 104.49566059112549 76.0 L 113.56798458099365 48.0 L 89.0 48.0 L 89.0 44.0 L 114.8640308380127 44.0 L 125.2 12.1 L 136.0 17.8 L 138.2 20.6 L 134.82601709365844 21.412255191802977 L 127.48500003814698 44.0 L 159.5 44.0 L 169.5 34.0 L 181.5 44.0 L 181.5 48.0 L 126.18500003814697 48.0 L 117.08500003814697 76.0 L 134.8 76.0 L 140.8 71.0 L 151.8 80.0 L 146.8 84.0 L 146.8 110.0 L 164.1 110.0 L 174.1 100.0 L 186.1 110.0 L 186.1 114.0 L 146.8 114.0 L 146.8 172.0 L 146.6 174.5 L 146.2 177.0 L 145.4 179.4 L 144.1 181.7 L 142.5 183.7 L 140.5 185.3 L 138.2 186.6 L 135.8 187.4 L 133.3 187.8 L 130.8 188.0 L 130.8 182.0 L 110.8 179.0 Z M 120.4 133.9 L 121.9 137.2 L 118.12666664123535 137.2 L 117.3 138.4 L 113.9 142.9 L 110.3 147.6 L 106.5 152.3 L 102.4 157.2 L 98.0 162.2 L 93.4 167.2 L 88.5 172.3 L 83.3 177.4 L 77.6 182.5 L 76.2 181.4 L 80.4 175.0 L 84.4 168.9 L 88.3 163.1 L 92.0 157.5 L 95.6 152.1 L 98.9 146.9 L 102.1 141.8 L 105.0 137.0 L 107.7 132.2 L 109.61585130691529 128.60777883529664 L 109.6 128.6 L 110.6 126.8 Z M 80.2 73.0 L 80.2 77.0 L 54.4 77.0 L 54.4 111.0 L 62.3 111.0 L 72.3 101.0 L 84.3 111.0 L 84.3 115.0 L 54.4 115.0 L 54.4 157.60909090042114 L 57.1 155.4 L 60.6 152.7 L 64.3 149.9 L 68.0 147.0 L 72.0 144.1 L 76.1 141.3 L 80.4 138.3 L 81.6 139.6 L 75.4 147.8 L 72.4 151.6 L 69.3 155.2 L 66.3 158.7 L 63.4 162.1 L 60.6 165.3 L 57.8 168.4 L 55.1 171.4 L 52.5 174.3 L 52.30591716766357 174.09408283233643 L 46.4 180.0 L 36.4 170.0 L 42.4 164.0 L 42.4 115.0 L 14.2 115.0 L 14.2 111.0 L 42.4 111.0 L 42.4 77.0 L 29.7 77.0 L 29.7 73.0 L 58.2 73.0 L 68.2 63.0 Z M 176.7 163.8 L 175.5 160.3 L 174.0 156.6 L 172.2 152.6 L 169.9 148.5 L 167.3 144.1 L 164.3 139.4 L 161.0 134.5 L 157.4 129.3 L 158.7 128.0 L 163.7 132.0 L 168.3 136.1 L 172.4 140.1 L 176.0 144.1 L 179.2 148.1 L 182.1 152.1 L 184.6 156.1 L 186.6 160.0 L 188.3 164.0 L 189.6 167.9 L 188.6 172.4 L 184.8 174.9 L 180.3 173.9 L 177.8 170.1 L 177.4 167.1 Z M 115.78500003814698 80.0 L 106.03500003814698 110.0 L 134.8 110.0 L 134.8 80.0 Z M 52.3 17.5 L 54.6 20.2 L 51.094871807098386 21.201465225219728 L 49.5 26.1 L 46.4 34.5 L 43.1 42.7 L 42.96708860397339 43.0 L 65.31818180084228 43.0 L 73.5 34.0 L 83.5 43.0 L 83.5 47.0 L 41.194936752319336 47.0 L 39.6 50.6 L 35.9 58.4 L 32.0 65.9 L 27.8 73.2 L 23.3 80.3 L 18.5 87.0 L 13.3 93.4 L 11.8 92.5 L 18.6 77.7 L 21.9 70.2 L 25.1 62.7 L 28.2 55.0 L 31.0 47.2 L 33.7 39.2 L 36.2 31.0 L 38.6 22.8 L 40.7 14.3 L 40.76444444656372 14.317777824401855 L 41.2 12.7 Z " />
</g>
</svg>
