<svg xmlns="http://www.w3.org/2000/svg" xmlns:xlink="http://www.w3.org/1999/xlink" version="1.1" baseProfile="full" viewBox="0 0 200 200" width="200" height="200">
<g fill="black">
<path d="M 73.2 178.0 L 111.6 178.0 L 111.6 101.0 L 123.6 103.0 L 126.6 105.0 L 123.6 106.8 L 123.6 178.0 L 140.3 178.0 L 140.3 101.0 L 152.3 103.0 L 155.3 105.0 L 152.3 106.8 L 152.3 178.0 L 165.9 178.0 L 175.9 168.0 L 187.9 178.0 L 187.9 182.0 L 73.2 182.0 Z M 77.8 73.0 L 77.8 77.0 L 53.0 77.0 L 53.0 111.0 L 59.7 111.0 L 69.7 101.0 L 81.7 111.0 L 81.7 115.0 L 53.0 115.0 L 53.0 157.38181819915772 L 55.3 155.5 L 58.7 152.8 L 62.3 150.0 L 65.9 147.1 L 69.8 144.2 L 73.8 141.3 L 77.9 138.3 L 79.2 139.6 L 76.2 143.7 L 73.3 147.7 L 70.3 151.5 L 67.4 155.1 L 64.5 158.6 L 61.7 162.0 L 58.9 165.2 L 56.2 168.4 L 53.7 171.4 L 51.2 174.3 L 50.954385948181155 174.04561405181886 L 45.0 180.0 L 35.0 170.0 L 41.0 164.0 L 41.0 115.0 L 13.8 115.0 L 13.8 111.0 L 41.0 111.0 L 41.0 77.0 L 28.8 77.0 L 28.8 73.0 L 59.61818180084229 73.0 L 67.8 64.0 Z M 90.6 146.8 L 89.5 143.0 L 88.3 139.2 L 86.9 135.3 L 85.3 131.4 L 81.7 123.4 L 79.6 119.3 L 81.0 118.2 L 84.4 121.4 L 87.6 124.8 L 90.5 128.3 L 93.2 131.9 L 95.6 135.7 L 97.8 139.5 L 99.8 143.5 L 101.6 147.5 L 103.1 151.6 L 104.4 155.8 L 103.5 160.3 L 99.7 162.9 L 95.2 162.0 L 92.7 158.2 L 91.5 150.6 Z M 184.7 122.3 L 186.7 125.3 L 182.79739780426024 125.77100372314453 L 180.8 129.1 L 178.6 132.7 L 176.1 136.5 L 173.5 140.5 L 170.6 144.6 L 167.4 148.9 L 164.1 153.3 L 160.3 157.8 L 156.3 162.4 L 154.8 161.5 L 157.2 155.9 L 159.6 150.6 L 161.9 145.6 L 164.1 140.9 L 166.1 136.4 L 168.0 132.1 L 169.7 128.1 L 171.2 124.3 L 172.6 120.8 L 173.38976373672486 118.430708694458 L 173.3 118.4 L 174.2 116.2 Z M 104.2 25.0 L 162.5 25.0 L 168.5 20.0 L 179.5 29.0 L 174.5 33.0 L 174.5 96.0 L 162.5 102.0 L 162.5 90.0 L 104.2 90.0 L 104.2 102.0 L 92.2 108.0 L 92.2 19.0 Z M 50.9 17.5 L 53.3 20.2 L 49.73229923248291 21.21934309005737 L 48.2 26.1 L 45.2 34.4 L 42.0 42.6 L 41.83000001907349 43.0 L 62.81818180084228 43.0 L 71.0 34.0 L 81.0 43.0 L 81.0 47.0 L 40.130000019073485 47.0 L 38.6 50.6 L 35.0 58.4 L 31.2 65.9 L 27.1 73.2 L 22.7 80.3 L 18.0 87.0 L 13.0 93.4 L 11.5 92.5 L 14.7 85.1 L 18.0 77.7 L 21.2 70.3 L 24.3 62.7 L 27.2 55.0 L 30.0 47.2 L 32.6 39.2 L 35.0 31.1 L 37.3 22.8 L 39.3 14.4 L 39.339468002319336 14.41054744720459 L 39.8 12.7 Z M 104.2 58.0 L 104.2 86.0 L 162.5 86.0 L 162.5 58.0 Z M 104.2 29.0 L 104.2 54.0 L 162.5 54.0 L 162.5 29.0 Z " />
</g>
</svg>
