<svg xmlns="http://www.w3.org/2000/svg" xmlns:xlink="http://www.w3.org/1999/xlink" version="1.1" baseProfile="full" viewBox="0 0 200 200" width="200" height="200">
<g fill="black">
<path d="M 117.9 17.5 L 120.3 20.2 L 116.72673263549805 21.220933532714845 L 114.4 28.6 L 110.7 39.5 L 106.9 50.2 L 102.9 60.6 L 98.6 70.7 L 97.51034479141235 73.15172414779663 L 102.6 74.0 L 105.6 76.0 L 102.6 77.8 L 102.6 183.0 L 90.6 189.0 L 90.6 88.19130430221557 L 89.6 90.3 L 84.7 99.6 L 79.6 108.7 L 74.1 117.4 L 72.5 116.5 L 73.08421049118041 115.0 L 48.9 115.0 L 48.9 156.41999998092652 L 49.7 155.7 L 52.8 153.0 L 56.0 150.2 L 59.3 147.3 L 62.8 144.3 L 66.5 141.4 L 70.2 138.3 L 71.5 139.6 L 68.9 143.6 L 66.4 147.6 L 63.8 151.3 L 61.3 154.9 L 58.8 158.4 L 56.4 161.8 L 54.0 165.0 L 51.7 168.1 L 49.4 171.1 L 48.79767446517944 171.931782913208 L 48.9 172.0 L 48.35 172.55 L 47.3 174.0 L 47.09058818817139 173.80941181182862 L 40.9 180.0 L 30.9 170.0 L 36.9 164.0 L 36.9 115.0 L 13.5 115.0 L 13.5 111.0 L 36.9 111.0 L 36.9 77.0 L 26.8 77.0 L 26.8 73.0 L 52.018181800842285 73.0 L 60.2 64.0 L 70.2 73.0 L 70.2 77.0 L 48.9 77.0 L 48.9 111.0 L 51.7 111.0 L 61.7 101.0 L 73.7 111.0 L 73.7 113.41891889572143 L 76.2 107.0 L 79.9 97.4 L 83.6 87.6 L 87.2 77.7 L 90.7 67.7 L 94.1 57.4 L 97.4 46.9 L 100.5 36.3 L 103.5 25.4 L 106.13693943023682 15.30688705444336 L 106.1 15.3 L 106.8 12.7 Z M 183.0 145.0 L 185.0 145.0 L 183.0 170.0 L 186.6 172.4 L 189.0 176.0 L 186.6 179.6 L 183.0 182.0 L 151.6 182.0 L 149.1 181.8 L 146.6 181.4 L 144.2 180.6 L 141.9 179.3 L 139.9 177.7 L 138.2 175.7 L 137.0 173.4 L 136.2 171.0 L 135.8 168.5 L 135.6 166.0 L 135.6 99.21970262527466 L 105.9 102.9 L 105.4 99.0 L 135.6 95.25774469375611 L 135.6 43.11971826553345 L 133.5 43.8 L 125.9 45.9 L 117.8 48.0 L 109.3 49.8 L 108.7 48.1 L 116.5 44.4 L 124.0 40.9 L 131.1 37.6 L 137.8 34.5 L 144.1 31.4 L 150.0 28.4 L 155.4 25.6 L 160.4 22.7 L 165.0 20.0 L 168.245023727417 17.8630331993103 L 168.2 17.8 L 168.25510959625245 17.85639123916626 L 169.1 17.3 L 171.23587388992308 20.906475639343263 L 176.8 26.6 L 177.0 30.0 L 173.3192307472229 28.540384578704835 L 170.4 30.0 L 165.2 32.3 L 159.7 34.6 L 153.8 36.9 L 147.6 39.128125 L 147.6 93.77075586318969 L 164.19644556045532 91.71419506072998 L 172.9 80.5 L 186.1 89.0 L 186.6 92.9 L 147.6 97.73271379470825 L 147.6 166.0 L 147.7 167.2 L 147.9 168.1 L 148.2 169.0 L 148.6 169.4 L 149.5 169.7 L 150.4 169.9 L 151.6 170.0 L 177.0 170.0 Z M 47.1 17.3 L 49.5 20.0 L 46.006854915618895 21.0604190826416 L 44.6 25.9 L 41.9 34.3 L 39.1 42.5 L 38.903797435760495 43.0 L 54.81818180084228 43.0 L 63.0 34.0 L 73.0 43.0 L 73.0 47.0 L 37.33417720794678 47.0 L 36.0 50.4 L 32.8 58.2 L 29.3 65.7 L 25.6 73.1 L 21.7 80.1 L 17.4 86.9 L 12.8 93.4 L 11.3 92.5 L 14.1 85.2 L 16.8 77.8 L 19.6 70.4 L 22.3 62.9 L 24.8 55.2 L 27.2 47.4 L 29.5 39.4 L 31.6 31.3 L 33.6 23.0 L 35.1855188369751 15.51282777786255 L 35.1 15.5 L 35.8 12.8 Z " />
</g>
</svg>
