<svg xmlns="http://www.w3.org/2000/svg" xmlns:xlink="http://www.w3.org/1999/xlink" version="1.1" baseProfile="full" viewBox="0 0 200 200" width="200" height="200">
<g fill="black">
<path d="M 156.2 177.2 L 147.2 171.6 L 139.3 165.4 L 134.44841108322143 160.47809820175172 L 127.3 166.3 L 116.7 173.1 L 105.2 178.8 L 92.7 183.4 L 79.3 186.7 L 65.1 188.8 L 64.8 187.1 L 78.4 183.0 L 90.9 178.3 L 102.3 172.9 L 112.7 166.6 L 122.1 159.6 L 128.6351441383362 153.53165187835694 L 126.6 150.9 L 121.9 142.7 L 118.4 134.0 L 116.1 124.8 L 115.73746376037597 120.89266471862793 L 111.9 126.3 L 107.2 132.3 L 102.2 138.2 L 97.0 143.9 L 91.5 149.3 L 85.6 154.6 L 84.3 153.3 L 88.6 146.9 L 92.8 140.5 L 97.0 134.2 L 101.0 127.9 L 104.8 121.6 L 108.5 115.2 L 111.9 108.8 L 115.2 102.4 L 118.2 95.9 L 120.70390729904175 90.20145225524902 L 120.7 90.2 L 121.6 88.1 L 132.0 94.4 L 133.8 97.5 L 130.10033226013184 97.88272428512573 L 128.4 101.0 L 124.6 107.5 L 121.7875 112.0 L 154.0 112.0 L 160.0 107.0 L 171.0 116.0 L 166.0 119.0 L 163.84163818359374 119.89931735992431 L 160.0 128.2 L 153.3 139.3 L 145.6 149.4 L 141.35362815856934 153.8438775062561 L 145.7 157.4 L 153.2 162.3 L 161.5 166.6 L 170.7 170.4 L 180.9 173.6 L 188.6 176.0 L 177.0 186.3 L 166.1 182.1 Z M 82.6 73.0 L 82.6 77.0 L 55.8 77.0 L 55.8 111.0 L 64.8 111.0 L 74.8 101.0 L 86.8 111.0 L 86.8 115.0 L 55.8 115.0 L 55.8 157.77714281082154 L 59.0 155.4 L 62.6 152.7 L 66.3 149.8 L 70.1 147.0 L 74.2 144.1 L 78.4 141.2 L 82.8 138.3 L 84.0 139.6 L 80.8 143.8 L 77.6 147.8 L 74.4 151.6 L 71.3 155.3 L 68.2 158.7 L 65.2 162.1 L 62.2 165.4 L 59.3 168.5 L 56.6 171.5 L 53.9 174.4 L 53.66176471710205 174.13823528289794 L 47.8 180.0 L 37.8 170.0 L 43.8 164.0 L 43.8 115.0 L 14.6 115.0 L 14.6 111.0 L 43.8 111.0 L 43.8 77.0 L 30.5 77.0 L 30.5 73.0 L 60.6 73.0 L 70.6 63.0 Z M 119.14354839324952 116.0 L 118.01600408554077 117.62576150894165 L 120.2 123.7 L 123.9 131.8 L 128.2 139.2 L 133.3 145.9 L 134.44241495132445 147.10150537490844 L 137.8 143.1 L 144.3 133.5 L 149.8 123.1 L 152.62743358612062 116.0 Z M 124.0 73.5 L 125.1 76.9 L 121.35086851119995 76.38287839889526 L 117.2 80.9 L 110.0 88.3 L 106.2 91.9 L 102.4 95.6 L 98.5 99.2 L 94.4 102.8 L 90.1 106.3 L 85.6 109.6 L 84.3 108.3 L 87.3 103.7 L 90.4 99.2 L 93.6 94.8 L 96.7 90.5 L 99.9 86.3 L 108.9 74.0 L 111.8 70.0 L 114.02722940444946 66.81824369430542 L 114.0 66.8 L 114.23157892227172 66.52631578445434 L 114.6 66.0 L 114.64592084884643 66.03663902282715 L 115.1 65.5 Z M 169.8 95.0 L 168.2 91.2 L 166.3 87.6 L 164.0 84.0 L 161.5 80.6 L 158.7 77.2 L 155.5 73.8 L 152.1 70.5 L 148.4 67.2 L 149.3 65.7 L 154.0 67.6 L 158.6 69.8 L 162.8 72.4 L 166.7 75.4 L 170.3 78.7 L 173.7 82.3 L 176.7 86.1 L 179.4 90.2 L 181.7 94.6 L 183.8 99.3 L 183.3 103.8 L 179.9 106.8 L 175.3 106.4 L 172.3 102.9 L 171.2 98.9 Z M 53.6 17.6 L 56.0 20.3 L 52.35122451782227 21.260204124450684 L 50.7 26.1 L 47.6 34.5 L 44.2 42.7 L 44.064999961853026 43.0 L 64.0 43.0 L 74.0 33.0 L 86.0 43.0 L 86.0 47.0 L 42.26499996185303 47.0 L 40.6 50.7 L 36.8 58.4 L 32.8 66.0 L 28.4 73.3 L 23.9 80.3 L 18.9 87.1 L 13.6 93.4 L 12.1 92.5 L 15.7 85.1 L 19.2 77.6 L 22.6 70.2 L 26.0 62.6 L 29.1 54.9 L 32.1 47.1 L 34.9 39.1 L 37.5 31.0 L 39.9 22.7 L 41.86103448867798 15.212413787841797 L 41.8 15.2 L 42.6 12.6 Z M 168.5 55.2 L 167.3 52.0 L 166.875 50.83125 L 163.8 51.6 L 156.5 53.2 L 149.2 54.6 L 141.9 55.9 L 134.7 57.1 L 127.4 58.3 L 120.2 59.5 L 102.66388692855836 62.179128360748294 L 100.9 65.6 L 98.6 62.8 L 95.3 51.1 L 95.77567567825318 51.052432441711424 L 99.2 48.9 L 102.8 46.1 L 106.5 42.9 L 110.3 39.2 L 114.2 35.1 L 118.0 30.7 L 121.8 26.2 L 125.3 21.7 L 128.6 17.2 L 131.01947927474976 13.8127290725708 L 131.0 13.8 L 131.4 13.280000019073487 L 131.6 13.0 L 131.60962028503417 13.007493686676025 L 132.0 12.5 L 141.1 20.4 L 142.2 23.9 L 138.41286458969117 23.377636528015138 L 137.4 24.5 L 133.5 28.7 L 129.2 33.0 L 124.7 37.2 L 120.0 41.3 L 115.2 45.0 L 110.4 48.2 L 106.33424053192138 50.274367046356204 L 111.8 49.9 L 133.7 48.7 L 148.5 48.1 L 155.9 47.9 L 163.4 47.9 L 165.74313726425171 47.96248369216919 L 164.6 45.6 L 163.0 42.5 L 161.3 39.4 L 159.4 36.3 L 157.4 33.2 L 155.1 30.3 L 156.3 28.9 L 159.5 31.1 L 162.7 33.2 L 165.7 35.7 L 168.5 38.4 L 171.2 41.2 L 173.6 44.3 L 175.9 47.5 L 178.0 50.9 L 180.0 54.5 L 181.7 58.2 L 181.3 62.8 L 177.9 65.8 L 173.3 65.4 L 170.3 62.0 L 169.5 58.6 Z " />
</g>
</svg>
