<svg xmlns="http://www.w3.org/2000/svg" xmlns:xlink="http://www.w3.org/1999/xlink" version="1.1" baseProfile="full" viewBox="0 0 200 200" width="200" height="200">
<g fill="black">
<path d="M 63.0 128.8 L 62.2 131.1 L 61.0 133.4 L 59.5 135.4 L 57.6 137.1 L 55.6 138.6 L 53.3 139.7 L 50.9 140.4 L 48.4 140.8 L 45.9 141.0 L 45.9 135.0 L 35.9 132.0 L 35.9 129.0 L 45.9 129.0 L 47.1 128.9 L 48.2 128.7 L 49.0 128.5 L 50.0 127.9 L 50.4 127.5 L 50.6762375831604 127.08564357757568 L 51.3 123.9 L 52.3 119.5 L 52.8 115.2 L 52.9 110.8 L 52.5 106.3 L 51.6 101.7 L 50.3 97.0 L 48.5 92.1 L 46.2 87.1 L 43.5 81.8 L 40.4 76.3 L 40.63559865951538 76.08252429962158 L 39.6 75.5 L 41.7 69.7 L 43.8 64.1 L 45.9 58.8 L 47.8 53.7 L 49.6 48.7 L 51.3 43.9 L 52.7 39.3 L 54.0 34.8 L 55.2 30.5 L 55.30714282989502 30.0 L 30.9 30.0 L 30.9 183.0 L 18.9 189.0 L 18.9 20.0 L 30.9 26.0 L 55.9 26.0 L 61.9 21.0 L 72.9 30.0 L 67.9 33.0 L 66.08928575515748 33.75446424484253 L 66.0 34.0 L 64.1 38.4 L 62.1 42.9 L 59.8 47.5 L 57.4 52.2 L 54.7 56.9 L 51.7 61.8 L 48.6 66.6 L 45.0 71.5 L 42.01010990142822 75.35538463592529 L 46.8 79.3 L 51.1 83.8 L 54.8 88.6 L 57.9 93.5 L 60.5 98.7 L 62.5 104.0 L 63.8 109.4 L 64.6 115.0 L 64.7 120.7 L 64.3 126.4 L 63.50595388412476 126.99302177429199 Z M 146.1 177.5 L 161.6 177.5 L 162.5 177.4 L 163.2 177.3 L 163.8 177.0 L 164.0 176.8 L 164.1 176.6 L 164.4 176.1 L 164.6 175.4 L 164.7 174.3 L 164.8 173.0 L 164.8 96.0 L 105.3 96.0 L 105.3 92.0 L 166.4 92.0 L 176.4 82.0 L 188.4 92.0 L 188.4 96.0 L 175.8 96.0 L 175.8 173.0 L 175.7 175.4 L 175.3 177.7 L 174.7 180.0 L 173.7 182.1 L 172.3 184.1 L 170.5 185.7 L 168.4 187.0 L 166.2 187.8 L 163.9 188.3 L 161.6 188.5 L 161.6 183.0 L 146.1 180.2 Z M 98.6 179.4 L 97.1 181.3 L 95.3 183.1 L 93.4 184.6 L 91.2 185.8 L 89.0 186.8 L 86.6 187.4 L 84.1 187.8 L 81.6 188.0 L 81.6 182.0 L 67.6 179.0 L 67.6 176.0 L 81.6 176.0 L 82.9 175.9 L 84.1 175.7 L 85.1 175.4 L 85.9 175.1 L 86.7 174.7 L 87.4 174.1 L 88.0 173.5 L 88.6 172.7 L 89.2 171.7 L 89.8 170.4 L 91.8 163.9 L 93.8 153.2 L 95.1 139.4 L 95.5 123.4 L 94.93060188293457 106.6976538658142 L 94.1 108.6 L 90.8 115.5 L 87.1 122.1 L 83.2 128.5 L 79.0 134.5 L 74.5 140.2 L 69.7 145.6 L 64.4 150.5 L 63.1 149.4 L 66.7 143.3 L 70.1 137.2 L 73.5 131.0 L 76.6 124.7 L 79.6 118.3 L 82.3 111.7 L 84.8 104.9 L 87.1 97.9 L 89.1 90.7 L 90.9 83.4 L 92.21307916641236 83.75090913772583 L 89.3 68.7 L 88.24153957366943 65.0652868270874 L 86.2 68.0 L 81.2 74.3 L 75.9 80.1 L 70.3 85.2 L 64.4 89.6 L 63.1 88.3 L 67.5 82.6 L 71.7 76.7 L 75.9 70.4 L 79.9 63.8 L 83.7 56.8 L 85.04228219985961 54.079157733917235 L 84.0 50.5 L 76.6 33.4 L 67.7 17.3 L 69.1 16.1 L 81.3 30.7 L 89.0448537826538 45.58733005523682 L 90.9 41.4 L 94.2 33.1 L 97.4 24.3 L 100.01796617507935 15.90445318222046 L 100.0 15.9 L 100.8 13.5 L 111.7 18.8 L 113.9 21.7 L 110.2731442451477 22.463548564910887 L 108.0 28.3 L 104.1 37.2 L 100.0 45.7 L 95.6 53.6 L 93.49042205810547 57.03952922821045 L 96.9 66.7 L 101.5 85.9 L 101.55077037811279 86.24632654190063 L 102.5 86.5 L 101.86911487579346 88.41789073944092 L 104.3 105.0 L 105.6 123.2 L 105.7 139.9 L 104.8 154.4 L 103.2 166.2 L 100.9 174.9 L 99.8 177.2 Z M 127.9 114.0 L 141.4 114.0 L 146.9 109.0 L 157.4 118.0 L 152.4 121.5 L 152.4 156.0 L 141.4 161.5 L 141.4 150.0 L 127.9 150.0 L 127.9 162.0 L 115.9 168.0 L 115.9 108.0 Z M 127.9 118.0 L 127.9 146.0 L 141.4 146.0 L 141.4 118.0 Z M 163.2 73.9 L 159.2 68.3 L 154.6 63.1 L 152.1 60.5 L 149.4 58.0 L 146.6 55.5 L 145.55776319503784 54.700951766967776 L 145.4 55.1 L 141.3 63.0 L 136.5 70.0 L 131.0 76.1 L 124.7 81.3 L 117.8 85.6 L 110.2 88.8 L 109.4 87.1 L 115.7 82.4 L 121.2 77.3 L 126.1 71.7 L 130.3 65.6 L 133.8 58.9 L 136.8 51.7 L 139.01374998092652 44.0 L 110.6 44.0 L 110.6 40.0 L 139.8313953399658 40.0 L 140.8 35.1 L 141.9 25.8 L 142.3 15.7 L 142.33026485443116 15.701261043548584 L 142.4 13.4 L 154.3 16.2 L 157.2 18.3 L 153.90167303085326 20.11084613800049 L 153.2 27.0 L 151.3 37.1 L 150.52872343063353 40.0 L 161.2 40.0 L 171.2 30.0 L 183.2 40.0 L 183.2 44.0 L 149.46489362716676 44.0 L 148.8 46.5 L 146.49299116134642 52.33537530899048 L 151.8 54.2 L 155.4 55.8 L 158.8 57.6 L 162.1 59.7 L 165.3 62.0 L 168.3 64.5 L 171.2 67.2 L 174.0 70.1 L 176.6 73.1 L 177.5 77.6 L 175.0 81.4 L 170.5 82.3 L 166.7 79.8 L 165.0 76.8 Z " />
</g>
</svg>
