<svg xmlns="http://www.w3.org/2000/svg" xmlns:xlink="http://www.w3.org/1999/xlink" version="1.1" baseProfile="full" viewBox="0 0 200 200" width="200" height="200">
<g fill="black">
<path d="M 162.1 168.6 L 158.9 165.8 L 155.5 162.9 L 151.9 160.1 L 148.0 157.2 L 144.0 154.4 L 139.7 151.4 L 136.0 148.9333333015442 L 136.0 184.0 L 124.0 190.0 L 124.0 151.16086959838867 L 120.8 154.5 L 115.9 159.1 L 110.8 163.4 L 105.4 167.3 L 99.8 171.0 L 93.9 174.4 L 87.8 177.3 L 81.4 179.7 L 80.5 178.2 L 85.9 174.0 L 91.0 169.9 L 95.9 165.7 L 100.6 161.4 L 105.1 157.0 L 109.4 152.5 L 113.4 147.8 L 117.1 142.9 L 120.62799997329712 138.0 L 89.0 138.0 L 89.0 134.0 L 124.0 134.0 L 124.0 118.29818181991577 L 123.2 118.4 L 117.5 118.9 L 111.6 119.2 L 105.4 119.2 L 99.0 118.8 L 98.9 117.1 L 105.0 115.4 L 110.9 113.9 L 116.4 112.4 L 121.8 110.9 L 126.8 109.4 L 131.5 107.8 L 136.0 106.2 L 140.1 104.5 L 144.0 102.7 L 146.72164182662965 101.33917913436889 L 146.7 101.3 L 146.73529415130616 101.33235292434692 L 147.6 100.9 L 148.53667097091676 102.98361511230469 L 156.3 110.1 L 156.5 113.3 L 152.67532787322997 111.72156391143798 L 152.5 111.8 L 148.2 113.3 L 143.6 114.6 L 138.9 115.8 L 136.0 116.38000001907349 L 136.0 134.0 L 153.0 134.0 L 163.0 124.0 L 175.0 134.0 L 175.0 138.0 L 136.0 138.0 L 136.0 144.78571424484252 L 136.8 145.0 L 142.0 146.7 L 147.0 148.7 L 151.8 150.8 L 156.4 153.0 L 160.7 155.3 L 164.8 157.7 L 168.7 160.2 L 172.4 162.8 L 175.9 165.5 L 177.7 169.7 L 176.1 174.0 L 171.9 175.8 L 167.7 174.3 L 165.0 171.4 Z M 77.8 73.0 L 77.8 77.0 L 53.0 77.0 L 53.0 111.0 L 59.7 111.0 L 69.7 101.0 L 81.7 111.0 L 81.7 115.0 L 53.0 115.0 L 53.0 157.38181819915772 L 55.3 155.5 L 58.7 152.8 L 62.3 150.0 L 65.9 147.1 L 69.8 144.2 L 73.8 141.3 L 77.9 138.3 L 79.2 139.6 L 76.2 143.7 L 73.3 147.7 L 70.3 151.5 L 67.4 155.1 L 64.5 158.6 L 61.7 162.0 L 58.9 165.2 L 56.2 168.4 L 53.7 171.4 L 51.2 174.3 L 50.954385948181155 174.04561405181886 L 45.0 180.0 L 35.0 170.0 L 41.0 164.0 L 41.0 115.0 L 13.8 115.0 L 13.8 111.0 L 41.0 111.0 L 41.0 77.0 L 28.8 77.0 L 28.8 73.0 L 59.61818180084229 73.0 L 67.8 64.0 Z M 171.2 122.0 L 167.9 118.4 L 164.6 114.4 L 161.3 110.2 L 158.2 105.7 L 155.1 100.9 L 152.1 95.8 L 149.3 90.2 L 147.00847454071044 85.0 L 117.58108110427857 85.0 L 111.1 95.9 L 103.6 106.0 L 95.1 115.0 L 85.7 122.9 L 75.5 129.7 L 74.4 128.2 L 83.3 120.1 L 91.2 111.4 L 98.4 102.0 L 104.7 91.9 L 108.15 85.0 L 77.0 85.0 L 77.0 81.0 L 110.1393162727356 81.0 L 114.7 69.4 L 116.96774196624756 62.0 L 87.0 62.0 L 87.0 58.0 L 118.19354839324951 58.0 L 118.5 57.0 L 121.5 43.7 L 122.04718313217163 40.0 L 84.0 40.0 L 84.0 36.0 L 122.63873243331909 36.0 L 123.6 29.5 L 124.81334285736084 15.499889755249024 L 124.8 15.5 L 125.1 12.3 L 136.9 15.4 L 139.7 17.6 L 136.41020412445067 19.24489793777466 L 134.9 31.1 L 133.93986482620238 36.0 L 157.0 36.0 L 167.0 26.0 L 179.0 36.0 L 179.0 40.0 L 133.15608110427857 40.0 L 132.0 45.9 L 128.69208631515502 58.0 L 157.8181818008423 58.0 L 166.0 49.0 L 176.0 58.0 L 176.0 62.0 L 127.38769226074218 62.0 L 123.4 72.8 L 119.50500001907349 81.0 L 166.0 81.0 L 176.0 71.0 L 188.0 81.0 L 188.0 85.0 L 149.8630434989929 85.0 L 152.7 87.9 L 156.9 92.3 L 160.8 96.5 L 164.6 100.4 L 168.3 104.1 L 172.0 107.4 L 175.5 110.4 L 179.0 113.1 L 182.4 115.5 L 185.8 117.6 L 189.1 119.9 L 178.1 128.3 L 174.7 125.3 Z M 50.9 17.5 L 53.3 20.2 L 49.73229923248291 21.21934309005737 L 48.2 26.1 L 45.2 34.4 L 42.0 42.6 L 41.83000001907349 43.0 L 62.81818180084228 43.0 L 71.0 34.0 L 81.0 43.0 L 81.0 47.0 L 40.130000019073485 47.0 L 38.6 50.6 L 35.0 58.4 L 31.2 65.9 L 27.1 73.2 L 22.7 80.3 L 18.0 87.0 L 13.0 93.4 L 11.5 92.5 L 14.7 85.1 L 18.0 77.7 L 21.2 70.3 L 24.3 62.7 L 27.2 55.0 L 30.0 47.2 L 32.6 39.2 L 35.0 31.1 L 37.3 22.8 L 39.3 14.4 L 39.339468002319336 14.41054744720459 L 39.8 12.7 Z " />
</g>
</svg>
