<svg xmlns="http://www.w3.org/2000/svg" xmlns:xlink="http://www.w3.org/1999/xlink" version="1.1" baseProfile="full" viewBox="0 0 200 200" width="200" height="200">
<g fill="black">
<path d="M 169.7 130.6 L 165.8 126.6 L 162.2 122.2 L 161.4267029762268 121.09863758087158 L 160.8 121.6 L 160.8 180.4 L 148.8 186.4 L 148.8 176.4 L 113.5 176.4 L 113.5 183.4 L 101.5 189.4 L 101.5 118.64761905670166 L 96.5 124.6 L 87.1 133.4 L 78.89491529464722 139.2949152946472 L 79.2 139.6 L 76.2 143.7 L 73.3 147.7 L 70.3 151.5 L 67.4 155.1 L 64.5 158.6 L 61.7 162.0 L 58.9 165.2 L 56.2 168.4 L 53.7 171.4 L 51.2 174.3 L 50.954385948181155 174.04561405181886 L 45.0 180.0 L 35.0 170.0 L 41.0 164.0 L 41.0 115.0 L 13.8 115.0 L 13.8 111.0 L 41.0 111.0 L 41.0 77.0 L 28.8 77.0 L 28.8 73.0 L 59.61818180084229 73.0 L 67.8 64.0 L 77.8 73.0 L 77.8 77.0 L 53.0 77.0 L 53.0 111.0 L 59.7 111.0 L 69.7 101.0 L 81.7 111.0 L 81.7 115.0 L 53.0 115.0 L 53.0 157.38181819915772 L 55.3 155.5 L 58.7 152.8 L 62.3 150.0 L 65.9 147.1 L 69.8 144.2 L 73.8 141.3 L 75.95431413650513 139.72367258071898 L 75.7 139.4 L 84.5 130.6 L 92.4 121.1 L 99.5 110.9 L 105.8 99.9 L 110.16499996185303 90.2 L 77.5 90.2 L 77.5 86.2 L 111.8109375 86.2 L 115.8 75.1 L 118.60875911712647 64.7 L 89.5 64.7 L 89.5 60.7 L 119.63333330154418 60.7 L 122.3 46.7 L 123.25541400909424 39.2 L 85.1 39.2 L 85.1 35.2 L 123.76496810913086 35.2 L 124.3 31.0 L 125.33418760299682 15.299152374267578 L 125.3 15.3 L 125.5 12.1 L 137.4 15.0 L 140.3 17.2 L 136.99240894317626 18.91740303039551 L 135.6 32.3 L 135.11963186264038 35.2 L 155.8 35.2 L 165.8 25.2 L 177.8 35.2 L 177.8 39.2 L 134.45705518722534 39.2 L 132.9 48.6 L 129.95460529327391 60.7 L 151.4 60.7 L 161.4 50.7 L 173.4 60.7 L 173.4 64.7 L 128.91048946380616 64.7 L 124.6 78.1 L 121.18947372436523 86.2 L 167.21818180084227 86.2 L 175.4 77.2 L 185.4 86.2 L 185.4 90.2 L 148.99615383148193 90.2 L 151.7 93.9 L 155.4 98.8 L 159.0 103.4 L 162.5 107.7 L 166.2 111.7 L 169.8 115.4 L 173.6 118.7 L 177.4 121.7 L 181.3 124.4 L 185.2 126.7 L 189.1 129.3 L 178.0 137.8 L 173.7 134.4 Z M 113.5 147.0 L 113.5 172.4 L 148.8 172.4 L 148.8 147.0 Z M 113.5 117.6 L 113.5 143.0 L 148.8 143.0 L 148.8 117.6 Z M 119.50526313781738 90.2 L 119.0 91.4 L 112.4 103.5 L 107.57676763534546 110.63838386535645 L 113.5 113.6 L 148.8 113.6 L 153.9576418876648 109.30196504592895 L 152.9 107.3 L 150.3 101.7 L 148.0 95.8 L 146.4888889312744 90.2 Z M 50.9 17.5 L 53.3 20.2 L 49.73229923248291 21.21934309005737 L 48.2 26.1 L 45.2 34.4 L 42.0 42.6 L 41.83000001907349 43.0 L 62.81818180084228 43.0 L 71.0 34.0 L 81.0 43.0 L 81.0 47.0 L 40.130000019073485 47.0 L 38.6 50.6 L 35.0 58.4 L 31.2 65.9 L 27.1 73.2 L 22.7 80.3 L 18.0 87.0 L 13.0 93.4 L 11.5 92.5 L 14.7 85.1 L 18.0 77.7 L 21.2 70.3 L 24.3 62.7 L 27.2 55.0 L 30.0 47.2 L 32.6 39.2 L 35.0 31.1 L 37.3 22.8 L 39.3 14.4 L 39.339468002319336 14.41054744720459 L 39.8 12.7 Z " />
</g>
</svg>
