<svg xmlns="http://www.w3.org/2000/svg" xmlns:xlink="http://www.w3.org/1999/xlink" version="1.1" baseProfile="full" viewBox="0 0 200 200" width="200" height="200">
<g fill="black">
<path d="M 118.0 109.7 L 116.9 106.6 L 115.5 103.1 L 113.7 99.4 L 111.5 95.5 L 109.0 91.3 L 106.2 86.9 L 105.5 85.871875 L 105.5 183.0 L 93.5 189.0 L 93.5 110.74545450210572 L 91.7 116.2 L 88.1 125.8 L 84.3 134.9 L 80.0 143.6 L 75.4 151.8 L 70.4 159.4 L 68.8 158.5 L 72.0 150.1 L 75.1 141.5 L 78.1 132.6 L 81.0 123.3 L 83.6 113.7 L 86.1 103.7 L 88.3 93.4 L 90.3 82.7 L 92.0 71.6 L 93.47478256225585 61.0 L 70.6 61.0 L 70.6 57.0 L 93.5 57.0 L 93.5 14.0 L 105.5 16.0 L 108.5 18.0 L 105.5 19.8 L 105.5 57.0 L 108.31818180084228 57.0 L 116.5 48.0 L 126.5 57.0 L 126.5 61.0 L 105.5 61.0 L 105.5 79.81875 L 105.6 79.9 L 110.0 83.7 L 113.9 87.4 L 117.4 91.2 L 120.6 94.9 L 123.3 98.5 L 125.8 102.1 L 127.8 105.7 L 129.5 109.2 L 130.8 112.8 L 129.9 117.2 L 126.2 119.9 L 121.7 119.0 L 119.1 115.3 L 118.7 112.7 Z M 170.0 136.8 L 167.6 128.7 L 165.6 120.2 L 163.9 111.2 L 162.6 101.8 L 161.6 92.0 L 161.0 81.7 L 160.9 71.1 L 161.3549549102783 61.0 L 160.5 61.0 L 160.5 183.0 L 148.5 189.0 L 148.5 97.7 L 145.7 106.1 L 141.9 116.4 L 137.7 126.1 L 133.2 135.3 L 128.4 144.0 L 123.2 152.0 L 117.6 159.4 L 116.1 158.5 L 119.9 150.2 L 123.6 141.6 L 127.2 132.6 L 130.6 123.3 L 133.9 113.5 L 136.9 103.3 L 139.7 92.6 L 142.2 81.5 L 144.6 69.9 L 146.0697247505188 61.0 L 129.4 61.0 L 129.4 57.0 L 148.5 57.0 L 148.5 14.0 L 160.5 16.0 L 163.5 18.0 L 160.5 19.8 L 160.5 57.0 L 164.4 57.0 L 174.4 47.0 L 186.4 57.0 L 186.4 61.0 L 163.39174308776856 61.0 L 165.1 70.8 L 166.9 81.1 L 168.8 91.0 L 170.8 100.3 L 173.1 109.2 L 175.5 117.6 L 178.2 125.4 L 181.1 132.8 L 184.1 139.7 L 187.4 146.0 L 178.1 156.9 L 175.6 151.9 L 172.6 144.6 Z M 71.6 73.0 L 71.6 77.0 L 50.1 77.0 L 50.1 111.0 L 53.2 111.0 L 63.2 101.0 L 75.2 111.0 L 75.2 115.0 L 50.1 115.0 L 50.1 156.6 L 51.1 155.7 L 54.2 153.0 L 57.4 150.1 L 60.7 147.3 L 64.2 144.3 L 67.9 141.4 L 71.7 138.3 L 73.0 139.6 L 70.3 143.6 L 67.8 147.6 L 65.2 151.3 L 62.7 155.0 L 57.7 161.8 L 55.3 165.0 L 53.0 168.1 L 50.7 171.1 L 50.04503812789917 171.96335878372193 L 50.1 172.0 L 49.75714282989502 172.342857170105 L 48.5 174.0 L 48.29171600341797 173.80828399658202 L 42.1 180.0 L 32.1 170.0 L 38.1 164.0 L 38.1 115.0 L 14.5 115.0 L 14.5 111.0 L 38.1 111.0 L 38.1 77.0 L 27.9 77.0 L 27.9 73.0 L 53.418181800842284 73.0 L 61.6 64.0 Z M 48.3 17.3 L 50.8 20.0 L 47.19717607498169 21.093714427947997 L 45.8 25.9 L 43.2 34.3 L 40.3 42.5 L 40.1037974357605 43.0 L 56.31818180084228 43.0 L 64.5 34.0 L 74.5 43.0 L 74.5 47.0 L 38.534177207946776 47.0 L 37.2 50.4 L 33.9 58.2 L 30.5 65.8 L 26.8 73.1 L 22.8 80.2 L 18.5 86.9 L 13.9 93.4 L 12.3 92.5 L 15.2 85.2 L 20.8 70.4 L 23.4 62.9 L 26.0 55.2 L 28.4 47.4 L 30.7 39.4 L 32.9 31.3 L 34.8 23.0 L 36.473969554901124 15.51118869781494 L 36.4 15.5 L 37.1 12.8 Z " />
</g>
</svg>
