<svg xmlns="http://www.w3.org/2000/svg" xmlns:xlink="http://www.w3.org/1999/xlink" version="1.1" baseProfile="full" viewBox="0 0 200 200" width="200" height="200">
<g fill="black">
<path d="M 69.9 169.7 L 75.2 169.0 L 80.7 168.3 L 86.3 167.4 L 92.0 166.5 L 97.9 165.5 L 99.14631395339966 165.2715090751648 L 100.4 161.6 L 101.8 157.7 L 103.0 154.0 L 104.2 150.4 L 105.3 147.0 L 106.3 143.8 L 107.1 140.6 L 107.8 137.7 L 108.2017391204834 135.82521743774413 L 108.1 135.8 L 108.9 133.4 L 119.8 138.7 L 122.0 141.5 L 117.97716045379639 142.41748971939086 L 116.9 144.5 L 115.2 147.5 L 113.3 150.6 L 111.4 153.8 L 109.2 157.1 L 106.9 160.4 L 104.4 163.8 L 103.92738819122314 164.39514083862304 L 110.1 163.3 L 116.5 162.1 L 123.0 161.0 L 126.82929601669312 160.42846326828004 L 127.4 158.2 L 129.3 149.4 L 130.7 139.7 L 131.8 129.4 L 132.5 118.3 L 132.8 106.5 L 132.7 93.9 L 132.7 21.7 L 143.7 27.2 L 158.5 27.2 L 164.5 22.2 L 175.5 31.2 L 170.5 35.2 L 170.5 162.7 L 170.6 163.9 L 170.7 164.8 L 170.9 165.4 L 171.1 165.7 L 171.5 166.1 L 172.4 166.4 L 173.3 166.6 L 174.5 166.7 L 176.4 166.7 L 182.4 141.7 L 184.4 141.7 L 182.4 166.7 L 186.0 169.1 L 188.4 172.7 L 186.0 176.3 L 182.4 178.7 L 174.5 178.7 L 172.0 178.5 L 169.5 178.1 L 167.1 177.3 L 164.8 176.1 L 162.8 174.4 L 161.1 172.4 L 159.9 170.1 L 159.1 167.7 L 158.7 165.2 L 158.5 162.7 L 158.5 31.2 L 143.7 31.2 L 143.7 93.9 L 143.2 106.8 L 142.3 119.0 L 140.9 130.4 L 139.1 141.1 L 136.9 151.0 L 134.1 160.2 L 130.9 168.5 L 127.2 176.0 L 123.0 182.7 L 118.2 188.3 L 116.9 187.3 L 120.0 180.9 L 122.8 174.0 L 125.3 166.4 L 125.97102012634278 163.7798261642456 L 124.1 164.7 L 117.9 167.3 L 111.9 169.6 L 105.9 171.8 L 94.1 175.6 L 88.4 177.2 L 82.8 178.8 L 77.3 180.2 L 75.97329778671265 180.51939125061034 L 74.4 184.1 L 71.9 181.5 L 67.9 170.0 Z M 66.3 73.0 L 66.3 77.0 L 46.6 77.0 L 46.6 111.0 L 51.418181800842284 111.0 L 59.6 102.0 L 69.6 111.0 L 69.6 115.0 L 46.6 115.0 L 46.6 155.9862069129944 L 49.7 153.1 L 52.8 150.3 L 55.9 147.4 L 59.2 144.4 L 62.8 141.5 L 66.3 138.4 L 67.7 139.5 L 65.2 143.5 L 62.9 147.5 L 60.5 151.2 L 58.2 154.8 L 55.8 158.3 L 53.6 161.7 L 51.4 164.9 L 49.2 168.0 L 47.1 171.0 L 46.470078754425046 171.9133858680725 L 46.6 172.0 L 45.98888893127442 172.6111110687256 L 45.1 173.9 L 44.88588237762451 173.71411762237548 L 38.6 180.0 L 28.6 170.0 L 34.6 164.0 L 34.6 115.0 L 12.9 115.0 L 12.9 111.0 L 34.6 111.0 L 34.6 77.0 L 25.4 77.0 L 25.4 73.0 L 48.11818180084229 73.0 L 56.3 64.0 Z M 81.9 155.3 L 81.7 153.2 L 81.3 151.0 L 80.8 148.8 L 80.2 146.6 L 79.3 144.2 L 78.3 141.9 L 77.2 139.4 L 75.6 137.2 L 76.9 135.9 L 79.0 137.8 L 81.4 139.5 L 83.6 141.3 L 85.5 143.3 L 87.4 145.4 L 89.0 147.6 L 90.5 150.0 L 91.8 152.5 L 92.9 155.0 L 93.8 157.7 L 92.6 162.1 L 88.7 164.5 L 84.3 163.3 L 81.9 159.4 L 82.0 157.4 Z M 85.8 95.9 L 109.8 95.9 L 115.8 90.9 L 126.8 99.9 L 121.8 103.9 L 121.8 127.7 L 109.8 133.7 L 109.8 127.7 L 85.8 127.7 L 73.8 133.7 L 73.8 89.9 Z M 85.8 99.9 L 85.8 123.7 L 109.8 123.7 L 109.8 99.9 Z M 44.9 17.2 L 47.4 19.9 L 43.825912380218504 21.048813915252687 L 42.5 25.8 L 40.0 34.2 L 37.3 42.4 L 37.082499980926514 43.0 L 50.81818180084228 43.0 L 59.0 34.0 L 69.0 43.0 L 69.0 47.0 L 35.63249998092651 47.0 L 34.4 50.4 L 31.3 58.1 L 28.0 65.7 L 24.5 73.0 L 20.8 80.1 L 16.7 86.9 L 12.3 93.4 L 10.7 92.5 L 15.9 77.9 L 18.5 70.5 L 23.3 55.3 L 25.6 47.5 L 27.7 39.5 L 29.7 31.4 L 31.5 23.1 L 33.2 14.6 L 33.21363639831543 14.60303030014038 L 33.6 12.8 Z M 126.4 78.3 L 126.4 82.3 L 69.9 82.3 L 69.9 78.3 L 108.21818180084229 78.3 L 116.4 69.3 Z M 75.0 70.5 L 66.0 60.5 L 71.5 54.5 L 71.5 27.7 L 82.5 29.7 L 85.2 31.7 L 82.5 33.42340421676636 L 82.5 58.5 L 93.1 58.5 L 93.1 16.2 L 103.1 18.2 L 105.6 20.2 L 103.1 21.86666669845581 L 103.1 58.5 L 114.0 58.5 L 114.0 27.7 L 124.0 29.7 L 126.5 31.7 L 124.0 33.36666669845581 L 124.0 64.5 L 114.0 69.5 L 114.0 62.5 L 82.5 62.5 Z " />
</g>
</svg>
