<svg xmlns="http://www.w3.org/2000/svg" xmlns:xlink="http://www.w3.org/1999/xlink" version="1.1" baseProfile="full" viewBox="0 0 200 200" width="200" height="200">
<g fill="black">
<path d="M 35.6 107.0 L 72.8 107.0 L 78.8 102.0 L 89.8 111.0 L 84.8 115.0 L 84.8 180.0 L 72.8 186.0 L 72.8 176.0 L 35.6 176.0 L 35.6 183.0 L 23.6 189.0 L 23.6 101.0 Z M 119.3 111.6 L 164.7 111.6 L 170.7 106.6 L 181.7 115.6 L 176.7 119.6 L 176.7 177.3 L 164.7 183.3 L 164.7 173.3 L 119.3 173.3 L 119.3 180.3 L 107.3 186.3 L 107.3 105.6 Z M 35.6 142.0 L 35.6 172.0 L 72.8 172.0 L 72.8 142.0 Z M 119.3 115.6 L 119.3 169.3 L 164.7 169.3 L 164.7 115.6 Z M 35.6 111.0 L 35.6 138.0 L 72.8 138.0 L 72.8 111.0 Z M 173.8 80.7 L 172.44017658233642 77.09646797180176 L 167.5 78.6 L 158.6 81.0 L 150.0 83.1 L 141.8 85.1 L 134.0 86.9 L 126.5 88.5 L 119.5 90.0 L 112.8 91.4 L 106.4 92.6 L 104.58382902145385 92.96939067840576 L 102.9 96.5 L 100.5 93.8 L 96.9 82.1 L 98.9 81.9 L 104.8 81.4 L 111.2 80.8 L 113.40250101089478 80.56988792419433 L 114.2 77.9 L 116.5 70.4 L 118.9 63.1 L 121.2 55.9 L 123.3 49.0 L 125.3 42.2 L 127.2 35.5 L 129.0 29.0 L 130.6 22.6 L 132.0 16.3 L 132.06444444656373 16.317777824401855 L 132.5 14.7 L 143.6 19.5 L 146.0 22.2 L 142.3526315689087 23.242105293273926 L 141.5 25.8 L 139.2 32.2 L 136.7 38.7 L 134.1 45.2 L 131.3 51.9 L 128.2 58.7 L 125.0 65.5 L 121.5 72.4 L 117.7 79.4 L 117.23139295578002 80.16985445022583 L 117.9 80.1 L 125.1 79.3 L 132.6 78.5 L 140.5 77.6 L 148.9 76.7 L 157.6 75.7 L 166.8 74.8 L 171.4215995788574 74.46300840377808 L 169.7 70.2 L 167.4 65.0 L 164.8 60.0 L 162.1 55.1 L 159.2 50.2 L 156.2 45.3 L 153.0 40.3 L 154.3 39.1 L 159.0 42.8 L 163.4 46.8 L 167.5 51.2 L 171.2 55.9 L 174.7 60.8 L 178.0 65.9 L 181.0 71.2 L 183.7 76.7 L 186.2 82.5 L 188.5 88.3 L 187.9 92.9 L 184.4 95.8 L 179.9 95.3 L 177.0 91.8 L 175.5 86.2 Z M 81.7 48.3 L 84.2 51.0 L 80.2789306640625 52.19032459259033 L 79.3 54.6 L 77.7 58.1 L 76.0 61.8 L 74.1 65.7 L 71.9 69.8 L 69.6 74.1 L 66.9 78.7 L 64.0 83.4 L 62.30204086303711 86.0 L 73.8 86.0 L 83.8 76.0 L 95.8 86.0 L 95.8 90.0 L 12.6 90.0 L 12.6 86.0 L 59.68571424484253 86.0 L 60.9 82.0 L 62.4 76.7 L 63.9 71.7 L 65.2 67.1 L 66.4 62.7 L 67.5 58.7 L 68.4 54.9 L 69.1 51.5 L 69.7 48.3 L 69.95381898880005 46.52326679229736 L 69.8 46.5 L 70.5 43.8 Z M 35.4 70.3 L 35.1 66.8 L 34.1 60.2 L 33.4 57.1 L 32.6 54.0 L 30.8 48.0 L 29.5 45.3 L 30.9 44.2 L 33.2 46.5 L 35.5 48.9 L 37.6 51.5 L 39.6 54.4 L 41.4 57.6 L 43.0 60.9 L 44.4 64.5 L 45.7 68.2 L 46.8 72.2 L 47.7 76.3 L 46.4 80.7 L 42.5 82.9 L 38.1 81.6 L 35.8 77.7 L 35.7 73.9 Z M 16.2 38.0 L 48.7 38.0 L 48.7 13.0 L 60.7 15.0 L 63.7 17.0 L 60.7 18.8 L 60.7 38.0 L 70.2 38.0 L 80.2 28.0 L 92.2 38.0 L 92.2 42.0 L 16.2 42.0 Z " />
</g>
</svg>
