<svg xmlns="http://www.w3.org/2000/svg" xmlns:xlink="http://www.w3.org/1999/xlink" version="1.1" baseProfile="full" viewBox="0 0 200 200" width="200" height="200">
<g fill="black">
<path d="M 77.4 16.0 L 80.4 18.0 L 77.4 19.8 L 77.4 38.0 L 82.2 38.0 L 86.7 32.0 L 92.7 38.0 L 92.7 42.0 L 77.4 42.0 L 77.4 68.0 L 65.4 74.0 L 65.4 64.0 L 60.1 64.0 L 60.1 86.5 L 75.7 86.5 L 81.7 81.5 L 92.7 90.5 L 87.7 94.5 L 87.7 126.4 L 75.7 132.4 L 75.7 122.4 L 60.1 122.4 L 60.1 143.0 L 71.6 143.0 L 81.6 133.0 L 93.6 143.0 L 93.6 147.0 L 60.1 147.0 L 60.1 182.0 L 48.1 188.0 L 48.1 147.0 L 13.5 147.0 L 13.5 143.0 L 48.1 143.0 L 48.1 122.4 L 33.4 122.4 L 33.4 129.4 L 21.4 135.4 L 21.4 80.5 L 33.4 86.5 L 48.1 86.5 L 48.1 64.0 L 41.7 64.0 L 41.7 71.0 L 29.7 77.0 L 29.7 42.0 L 15.5 42.0 L 15.5 38.0 L 29.7 38.0 L 29.7 14.0 L 41.7 16.0 L 44.7 18.0 L 41.7 19.8 L 41.7 38.0 L 65.4 38.0 L 65.4 14.0 Z M 181.8 145.0 L 183.8 145.0 L 181.8 170.0 L 185.4 172.4 L 187.8 176.0 L 185.4 179.6 L 181.8 182.0 L 152.4 182.0 L 149.8 181.8 L 147.3 181.4 L 144.9 180.6 L 142.7 179.3 L 140.6 177.7 L 139.0 175.7 L 137.8 173.4 L 137.0 171.0 L 136.5 168.5 L 136.4 166.0 L 136.4 121.69512195587158 L 134.7 127.5 L 129.2 140.3 L 122.2 151.8 L 113.7 162.0 L 103.8 170.9 L 92.5 178.3 L 79.9 184.3 L 65.9 188.8 L 65.3 187.1 L 78.3 180.9 L 89.7 173.8 L 99.6 165.8 L 108.1 156.9 L 115.1 147.1 L 120.8 136.3 L 125.2 124.4 L 128.2 111.4 L 130.0 97.2 L 130.3 82.0 L 130.3 46.0 L 142.3 48.0 L 145.3 50.0 L 142.3 51.8 L 142.3 82.0 L 141.3 98.3 L 138.8 113.5 L 137.99023838043212 116.26503973007202 L 148.4 118.0 L 151.4 120.0 L 148.4 121.8 L 148.4 166.0 L 148.5 167.2 L 148.6 168.1 L 148.8 168.7 L 149.0 169.0 L 149.1 169.2 L 149.3 169.4 L 149.7 169.5 L 150.2 169.7 L 151.2 169.9 L 152.4 170.0 L 175.8 170.0 Z M 112.0 25.0 L 160.6 25.0 L 166.6 20.0 L 177.6 29.0 L 172.6 33.0 L 172.6 125.0 L 160.6 131.0 L 160.6 29.0 L 112.0 29.0 L 112.0 125.0 L 100.0 131.0 L 100.0 19.0 Z M 33.4 90.5 L 33.4 118.4 L 48.1 118.4 L 48.1 90.5 Z M 60.1 90.5 L 60.1 118.4 L 75.7 118.4 L 75.7 90.5 Z M 41.7 42.0 L 41.7 60.0 L 65.4 60.0 L 65.4 42.0 Z " />
</g>
</svg>
