<svg xmlns="http://www.w3.org/2000/svg" xmlns:xlink="http://www.w3.org/1999/xlink" version="1.1" baseProfile="full" viewBox="0 0 200 200" width="200" height="200">
<g fill="black">
<path d="M 35.6 107.0 L 72.8 107.0 L 78.8 102.0 L 89.8 111.0 L 84.8 115.0 L 84.8 176.0 L 72.8 182.0 L 72.8 176.0 L 35.6 176.0 L 35.6 183.0 L 23.6 189.0 L 23.6 101.0 Z M 157.2 176.2 L 147.9 170.7 L 139.6 164.1 L 137.86206846237184 162.31445388793946 L 128.6 170.0 L 118.4 176.6 L 107.2 181.9 L 95.3 186.0 L 82.6 188.8 L 82.1 187.1 L 94.0 182.5 L 104.9 177.1 L 114.9 171.0 L 123.9 164.0 L 132.04404640197754 156.25322418212892 L 126.1 148.2 L 120.9 138.9 L 116.8 128.8 L 113.9 117.9 L 112.42203388214111 107.0 L 101.9 107.0 L 101.9 103.0 L 159.7 103.0 L 165.7 98.0 L 176.7 107.0 L 171.7 110.0 L 169.902654838562 110.7488938331604 L 166.6 119.9 L 160.9 132.1 L 154.2 143.2 L 146.6 153.3 L 144.79644279479982 155.1664719581604 L 146.1 156.3 L 153.8 161.3 L 162.3 165.6 L 171.5 169.0 L 181.6 171.5 L 190.3 173.6 L 178.6 184.4 L 167.4 180.8 Z M 35.6 142.0 L 35.6 172.0 L 72.8 172.0 L 72.8 142.0 Z M 114.42935781478882 107.0 L 117.9 116.7 L 122.3 126.6 L 127.3 135.5 L 132.9 143.4 L 138.03695087432862 149.02618436813356 L 139.3 147.5 L 145.7 137.9 L 151.3 127.3 L 156.0 115.8 L 158.7456000328064 107.0 Z M 35.6 111.0 L 35.6 138.0 L 72.8 138.0 L 72.8 111.0 Z M 123.2 26.0 L 150.3 26.0 L 156.3 21.0 L 167.3 30.0 L 162.3 34.0 L 162.3 75.1 L 162.4 75.8 L 162.6 76.2 L 162.7 76.6 L 162.9 76.9 L 163.3 77.2 L 164.0 77.5 L 165.0 77.8 L 166.3 78.0 L 178.5 78.0 L 183.5 61.0 L 185.5 61.0 L 183.5 78.0 L 186.5 80.0 L 188.5 83.0 L 186.5 86.0 L 183.5 88.0 L 166.3 88.0 L 163.8 87.9 L 161.4 87.6 L 159.1 86.9 L 156.9 85.8 L 154.9 84.3 L 153.2 82.5 L 152.0 80.3 L 151.1 78.0 L 150.5 75.5 L 150.3 73.0 L 150.3 30.0 L 123.2 30.0 L 123.2 52.0 L 122.6 58.0 L 121.4 63.9 L 119.6 69.5 L 117.3 74.9 L 114.3 80.0 L 110.8 84.8 L 106.8 89.3 L 102.3 93.5 L 97.1 97.3 L 91.4 100.7 L 90.3 99.2 L 94.6 94.4 L 98.4 89.8 L 101.8 85.1 L 104.6 80.5 L 106.9 75.9 L 108.7 71.3 L 110.0 66.5 L 110.9 61.8 L 111.3 56.9 L 111.2 52.0 L 111.2 20.0 Z M 81.7 48.3 L 84.2 51.0 L 80.2789306640625 52.19032459259033 L 79.3 54.6 L 77.7 58.1 L 76.0 61.8 L 74.1 65.7 L 71.9 69.8 L 69.6 74.1 L 66.9 78.7 L 64.0 83.4 L 62.30204086303711 86.0 L 73.8 86.0 L 83.8 76.0 L 95.8 86.0 L 95.8 90.0 L 12.6 90.0 L 12.6 86.0 L 59.68571424484253 86.0 L 60.9 82.0 L 62.4 76.7 L 63.9 71.7 L 65.2 67.1 L 66.4 62.7 L 67.5 58.7 L 68.4 54.9 L 69.1 51.5 L 69.7 48.3 L 69.95381898880005 46.52326679229736 L 69.8 46.5 L 70.5 43.8 Z M 35.4 70.3 L 35.1 66.8 L 34.1 60.2 L 33.4 57.1 L 32.6 54.0 L 30.8 48.0 L 29.5 45.3 L 30.9 44.2 L 33.2 46.5 L 35.5 48.9 L 37.6 51.5 L 39.6 54.4 L 41.4 57.6 L 43.0 60.9 L 44.4 64.5 L 45.7 68.2 L 46.8 72.2 L 47.7 76.3 L 46.4 80.7 L 42.5 82.9 L 38.1 81.6 L 35.8 77.7 L 35.7 73.9 Z M 16.2 38.0 L 48.7 38.0 L 48.7 13.0 L 60.7 15.0 L 63.7 17.0 L 60.7 18.8 L 60.7 38.0 L 70.2 38.0 L 80.2 28.0 L 92.2 38.0 L 92.2 42.0 L 16.2 42.0 Z " />
</g>
</svg>
