<svg xmlns="http://www.w3.org/2000/svg" xmlns:xlink="http://www.w3.org/1999/xlink" version="1.1" baseProfile="full" viewBox="0 0 200 200" width="200" height="200">
<g fill="black">
<path d="M 130.5 150.8 L 132.1 154.1 L 128.3 154.1 L 127.3 155.6 L 123.9 160.2 L 120.4 164.7 L 116.8 169.0 L 113.0 173.1 L 109.1 177.1 L 105.0 180.8 L 100.8 184.4 L 96.3 187.7 L 91.7 190.6 L 90.5 189.3 L 93.7 184.9 L 97.0 180.6 L 100.2 176.4 L 103.3 172.1 L 106.4 167.7 L 109.4 163.3 L 112.2 158.8 L 115.0 154.2 L 117.6 149.6 L 119.73244228363038 145.66318349838258 L 119.6 145.6 L 120.7 143.9 Z M 34.8 116.6 L 71.4 116.6 L 77.4 111.6 L 88.4 120.6 L 83.4 124.6 L 83.4 178.9 L 71.4 184.9 L 71.4 174.9 L 34.8 174.9 L 34.8 181.9 L 22.8 187.9 L 22.8 110.6 Z M 167.5 176.3 L 165.0 172.5 L 162.3 168.7 L 159.5 165.1 L 156.6 161.6 L 153.5 158.2 L 150.3 154.9 L 143.6 148.2 L 144.5 146.7 L 149.1 148.6 L 153.4 150.8 L 157.6 153.3 L 161.6 156.2 L 165.5 159.3 L 169.2 162.6 L 172.7 166.2 L 176.1 170.0 L 179.4 174.0 L 182.5 178.3 L 183.1 182.8 L 180.5 186.5 L 175.9 187.2 L 172.2 184.5 L 169.9 180.4 Z M 34.8 147.8 L 34.8 170.9 L 71.4 170.9 L 71.4 147.8 Z M 34.8 120.6 L 34.8 143.8 L 71.4 143.8 L 71.4 120.6 Z M 92.0 136.0 L 107.0 136.0 L 107.0 63.0 L 117.59130430221558 68.2956521987915 L 118.1 68.1 L 123.2 66.2 L 128.2 64.5 L 133.1 62.8 L 137.8 61.2 L 142.4 59.5 L 146.9 57.8 L 151.2 56.1 L 155.4 54.4 L 158.53166990280153 53.069040298461914 L 158.5 53.0 L 158.5639344215393 53.05532789230347 L 159.4 52.7 L 159.97805976867676 54.27909021377563 L 168.9 62.0 L 169.1 65.1 L 165.0597041130066 63.35121517181396 L 163.5 63.9 L 159.1 65.2 L 154.5 66.4 L 149.7 67.5 L 144.9 68.5 L 139.9 69.4 L 134.9 70.2 L 129.6 70.9 L 124.3 71.5 L 119.0 71.78909091949463 L 119.0 93.0 L 157.8 93.0 L 167.8 83.0 L 179.8 93.0 L 179.8 97.0 L 159.3 97.0 L 159.3 136.0 L 165.1 136.0 L 175.1 126.0 L 187.1 136.0 L 187.1 140.0 L 92.0 140.0 Z M 119.0 97.0 L 119.0 136.0 L 147.3 136.0 L 147.3 97.0 Z M 91.7 62.8 L 91.37619047164917 62.0 L 60.6 62.0 L 60.6 72.02702703475953 L 61.4 72.2 L 65.0 72.9 L 68.4 73.9 L 71.7 75.1 L 74.9 76.5 L 77.9 78.2 L 80.7 80.1 L 83.4 82.2 L 85.9 84.6 L 88.2 87.2 L 89.0 91.7 L 86.4 95.5 L 81.9 96.2 L 78.1 93.7 L 77.0 91.4 L 75.7 89.2 L 74.1 87.0 L 72.4 84.9 L 70.4 82.8 L 68.3 80.7 L 65.9 78.7 L 63.2 76.7 L 60.6 74.84285717010498 L 60.6 107.0 L 48.6 113.0 L 48.6 77.9235294342041 L 47.5 79.8 L 43.8 85.4 L 39.7 90.9 L 35.3 96.1 L 30.4 101.2 L 25.1 106.0 L 19.4 110.5 L 13.2 114.6 L 12.0 113.3 L 16.8 107.7 L 21.3 102.2 L 25.5 96.8 L 29.3 91.4 L 32.8 86.0 L 35.9 80.5 L 38.7 75.0 L 41.1 69.4 L 43.2 63.8 L 43.72105264663696 62.0 L 13.6 62.0 L 13.6 58.0 L 48.6 58.0 L 48.6 36.05652170181274 L 47.4 36.3 L 40.2 37.4 L 32.7 38.3 L 24.8 38.7 L 16.6 38.8 L 16.4 37.1 L 24.3 35.0 L 31.7 33.0 L 38.8 31.0 L 45.6 28.9 L 51.9 26.7 L 57.9 24.5 L 63.5 22.1 L 68.7 19.6 L 73.6 17.0 L 77.1348705291748 14.750536918640137 L 77.1 14.7 L 77.14413795471191 14.744639492034912 L 78.0 14.2 L 79.90923080444335 17.541153812408446 L 85.9 23.6 L 86.0 26.9 L 82.45011024475097 25.431080055236816 L 78.7 27.2 L 73.0 29.4 L 67.1 31.5 L 60.8 33.3 L 60.6 33.34923076629639 L 60.6 58.0 L 71.6 58.0 L 81.6 48.0 L 91.11724138259888 55.93103446960449 L 91.8 54.3 L 92.5 54.0 L 93.5 53.1 L 94.6 51.7 L 95.7 49.8 L 96.7 47.3 L 97.7 44.4 L 98.6 41.1 L 99.5 37.3 L 100.3 33.0 L 100.7 28.4 L 102.5 28.4 L 103.0 33.1 L 103.348837184906 35.6 L 170.6 35.6 L 176.6 30.6 L 187.6 39.6 L 182.6 42.6 L 179.25430459976195 43.99403972625733 L 178.6 44.9 L 177.2 46.7 L 174.2 50.7 L 172.5 52.8 L 170.7 55.0 L 168.7 57.2 L 167.0 59.8 L 165.4 58.9 L 166.6 56.1 L 167.2 53.3 L 167.9 50.5 L 169.1 45.5 L 169.6 43.2 L 170.1 41.1 L 170.325 39.6 L 103.81463413238525 39.6 L 104.0 41.5 L 104.2 45.2 L 104.2 48.7 L 104.0 52.0 L 103.5 55.0 L 102.8 57.8 L 101.7 60.4 L 100.2 62.9 L 95.9 64.5 Z M 134.4 26.7 L 134.1 25.1 L 133.1 21.7 L 132.4 20.0 L 131.6 18.3 L 130.7 16.5 L 129.7 14.7 L 128.2 13.3 L 129.3 11.9 L 131.1 13.0 L 133.2 13.9 L 135.1 14.9 L 137.0 16.1 L 138.8 17.4 L 140.5 18.9 L 142.1 20.5 L 143.5 22.2 L 144.9 24.1 L 146.1 26.1 L 145.8 30.7 L 142.4 33.7 L 137.8 33.4 L 134.8 30.0 L 134.6 28.3 Z " />
</g>
</svg>
