<svg xmlns="http://www.w3.org/2000/svg" xmlns:xlink="http://www.w3.org/1999/xlink" version="1.1" baseProfile="full" viewBox="0 0 200 200" width="200" height="200">
<g fill="black">
<path d="M 178.9 162.8 L 177.5 164.9 L 175.9 166.7 L 174.0 168.4 L 171.9 169.7 L 169.6 170.7 L 167.2 171.4 L 164.7 171.8 L 162.2 172.0 L 162.2 166.0 L 152.2 163.0 L 152.2 160.0 L 162.2 160.0 L 163.5 159.9 L 164.6 159.7 L 165.5 159.5 L 166.9 158.7 L 167.4 158.3 L 167.9 157.7 L 168.4 156.9 L 168.9 155.9 L 169.4 154.6 L 169.8 153.0 L 170.2 150.7 L 170.6 147.7 L 171.0 144.2 L 171.3 140.2 L 171.5 135.6 L 171.7 130.5 L 171.9 124.8 L 171.9 118.6 L 171.9696969985962 114.0 L 145.2 114.0 L 145.2 182.0 L 133.2 188.0 L 133.2 114.0 L 98.0 114.0 L 98.0 110.0 L 133.2 110.0 L 133.2 81.0 L 104.6 81.0 L 104.6 77.0 L 133.2 77.0 L 133.2 48.0 L 100.4 48.0 L 100.4 44.0 L 133.2 44.0 L 133.2 12.0 L 145.2 14.0 L 148.2 16.0 L 145.2 17.8 L 145.2 44.0 L 162.6 44.0 L 172.6 34.0 L 184.6 44.0 L 184.6 48.0 L 145.2 48.0 L 145.2 77.0 L 157.6 77.0 L 167.6 67.0 L 179.6 77.0 L 179.6 81.0 L 145.2 81.0 L 145.2 110.0 L 172.0 110.0 L 178.0 105.0 L 189.0 114.0 L 184.0 117.0 L 183.92490615844727 117.03128910064697 L 183.9 118.7 L 183.9 125.0 L 183.7 130.8 L 183.5 136.1 L 183.2 140.9 L 182.9 145.3 L 182.5 149.1 L 182.1 152.5 L 181.5 155.5 L 180.8 158.1 L 180.0 160.5 Z M 28.4 181.1 L 16.4 187.1 L 16.4 101.7 L 28.4 107.7 L 80.5 107.7 L 86.5 102.7 L 97.5 111.7 L 92.5 115.7 L 92.5 178.1 L 80.5 184.1 L 80.5 174.1 L 28.4 174.1 Z M 28.4 142.4 L 28.4 170.1 L 48.5 170.1 L 48.5 142.4 Z M 60.5 142.4 L 60.5 170.1 L 80.5 170.1 L 80.5 142.4 Z M 28.4 111.7 L 28.4 138.4 L 48.5 138.4 L 48.5 111.7 Z M 60.5 111.7 L 60.5 138.4 L 80.5 138.4 L 80.5 111.7 Z M 33.8 49.8 L 74.4 49.8 L 80.4 44.8 L 91.4 53.8 L 86.4 57.8 L 86.4 90.2 L 74.4 96.2 L 74.4 86.2 L 33.8 86.2 L 33.8 93.2 L 21.8 99.2 L 21.8 43.8 Z M 33.8 53.8 L 33.8 82.2 L 74.4 82.2 L 74.4 53.8 Z M 96.5 26.0 L 96.5 30.0 L 12.4 30.0 L 12.4 26.0 L 74.5 26.0 L 84.5 16.0 Z " />
</g>
</svg>
