<svg xmlns="http://www.w3.org/2000/svg" xmlns:xlink="http://www.w3.org/1999/xlink" version="1.1" baseProfile="full" viewBox="0 0 200 200" width="200" height="200">
<g fill="black">
<path d="M 151.2 75.5 L 154.2 77.5 L 151.2 79.3 L 151.2 114.5 L 150.3 125.3 L 148.5 135.4 L 145.5 144.8 L 141.6 153.5 L 136.6 161.4 L 130.5 168.5 L 123.5 174.7 L 115.6 180.0 L 106.7 184.4 L 96.9 187.8 L 96.3 186.2 L 105.0 181.1 L 112.6 175.6 L 119.2 169.8 L 124.8 163.5 L 129.5 156.7 L 133.2 149.4 L 136.0 141.6 L 138.0 133.2 L 139.0 124.2 L 139.2 114.5 L 139.2 73.5 Z M 73.6 176.95 L 70.7 178.4 L 70.7 138.4 L 62.6 138.4 L 62.6 173.4 L 52.6 178.4 L 52.6 138.4 L 44.5 138.4 L 44.5 178.7 L 33.5 184.2 L 33.5 110.98000001907349 L 32.9 117.7 L 31.6 128.3 L 30.0 138.3 L 28.1 147.8 L 25.8 156.6 L 23.2 164.8 L 20.2 172.3 L 16.8 179.1 L 12.9 185.2 L 11.3 184.4 L 13.3 177.7 L 15.1 170.6 L 16.9 163.0 L 18.4 154.9 L 19.7 146.2 L 20.8 137.0 L 21.6 127.3 L 22.2 116.9 L 22.5 106.0 L 22.6 94.4 L 22.6 31.0 L 34.6 37.0 L 86.9 37.0 L 92.9 32.0 L 103.9 41.0 L 98.9 45.0 L 98.9 76.4 L 86.9 82.4 L 86.9 72.4 L 34.6 72.4 L 34.6 91.05 L 44.5 96.0 L 88.8 96.0 L 94.3 91.0 L 104.8 100.0 L 99.8 103.5 L 99.8 169.8 L 99.7 172.2 L 99.3 174.6 L 98.7 176.8 L 97.7 179.0 L 96.3 180.9 L 94.5 182.6 L 92.4 183.8 L 90.2 184.7 L 87.9 185.1 L 85.6 185.3 L 85.6 179.8 L 73.6 177.0 Z M 170.7 176.4 L 168.7 173.6 L 166.3 170.7 L 163.6 167.8 L 160.5 164.9 L 157.1 161.9 L 153.3 158.8 L 149.3 155.6 L 144.8 152.4 L 145.6 150.8 L 150.9 152.6 L 155.8 154.6 L 160.5 156.7 L 164.7 159.0 L 168.7 161.5 L 172.4 164.0 L 175.7 166.7 L 178.8 169.6 L 181.6 172.5 L 184.0 175.7 L 184.6 180.2 L 181.8 183.9 L 177.3 184.4 L 173.6 181.7 L 172.3 179.1 Z M 187.8 25.0 L 187.8 29.0 L 150.84333333969116 29.0 L 150.0 31.3 L 148.8 34.3 L 147.6 37.4 L 146.3 40.4 L 143.5 46.6 L 141.9 49.8 L 140.2 52.9 L 138.4 56.0 L 137.86875 57.0 L 166.0 57.0 L 172.0 52.0 L 183.0 61.0 L 178.0 65.0 L 178.0 140.8 L 166.0 146.8 L 166.0 61.0 L 124.4 61.0 L 124.4 144.1 L 112.4 150.1 L 112.4 51.0 L 124.4 57.0 L 135.38333330154418 57.0 L 135.7 55.1 L 136.1 51.6 L 136.6 48.1 L 137.0 44.7 L 137.5 41.4 L 137.9 38.1 L 138.4 34.9 L 138.7 31.7 L 139.06000003814697 29.0 L 102.8 29.0 L 102.8 25.0 L 165.8 25.0 L 175.8 15.0 Z M 44.5 100.0 L 44.5 134.4 L 52.6 134.4 L 52.6 100.0 Z M 62.6 100.0 L 62.6 134.4 L 70.7 134.4 L 70.7 100.0 Z M 80.7 100.0 L 80.7 134.4 L 88.8 134.4 L 88.8 100.0 Z M 34.6 41.0 L 34.6 68.4 L 86.9 68.4 L 86.9 41.0 Z M 58.7 27.6 L 57.9 25.7 L 57.1 23.9 L 56.1 22.1 L 55.0 20.3 L 52.4 16.9 L 50.9 15.2 L 49.0 14.0 L 49.8 12.3 L 52.0 13.2 L 54.4 13.7 L 56.7 14.6 L 59.0 15.6 L 61.2 16.9 L 63.3 18.4 L 65.3 20.1 L 67.2 22.0 L 69.0 24.0 L 70.7 26.2 L 71.0 30.8 L 68.0 34.3 L 63.5 34.6 L 60.0 31.6 L 59.4 29.6 Z M 80.7 138.4 L 80.7 173.4 L 78.9 174.3 L 85.6 174.3 L 86.5 174.2 L 87.2 174.1 L 88.0 173.7 L 88.2 173.4 L 88.4 173.0 L 88.6 172.2 L 88.8 171.1 L 88.8 138.4 Z " />
</g>
</svg>
