<svg xmlns="http://www.w3.org/2000/svg" xmlns:xlink="http://www.w3.org/1999/xlink" version="1.1" baseProfile="full" viewBox="0 0 200 200" width="200" height="200">
<g fill="black">
<path d="M 35.6 107.0 L 72.8 107.0 L 78.8 102.0 L 89.8 111.0 L 84.8 115.0 L 84.8 176.0 L 72.8 182.0 L 72.8 176.0 L 35.6 176.0 L 35.6 183.0 L 23.6 189.0 L 23.6 101.0 Z M 182.4 146.0 L 184.4 146.0 L 182.4 171.0 L 186.0 173.4 L 188.4 177.0 L 186.0 180.6 L 182.4 183.0 L 151.5 183.0 L 148.9 182.8 L 146.4 182.4 L 144.0 181.6 L 141.7 180.3 L 139.7 178.7 L 138.1 176.7 L 136.8 174.4 L 136.0 172.0 L 135.6 169.5 L 135.5 167.0 L 135.5 91.275 L 134.0 102.9 L 130.5 119.8 L 125.8 135.0 L 119.9 148.5 L 112.9 160.2 L 104.7 170.1 L 95.3 178.1 L 84.9 184.0 L 73.5 187.8 L 72.9 186.1 L 83.1 180.6 L 92.0 173.8 L 99.8 165.7 L 106.5 156.1 L 112.3 144.9 L 117.0 132.1 L 120.7 117.6 L 123.4 101.4 L 125.1 83.5 L 125.63299493789673 66.0 L 91.7 66.0 L 91.7 62.0 L 125.7 62.0 L 125.7 13.0 L 137.7 15.0 L 140.7 17.0 L 137.7 18.8 L 137.7 62.0 L 164.3 62.0 L 174.3 52.0 L 186.3 62.0 L 186.3 66.0 L 137.57772274017333 66.0 L 136.4 84.3 L 136.03999996185303 87.08999996185302 L 147.5 89.0 L 150.5 91.0 L 147.5 92.8 L 147.5 168.2 L 147.7 169.1 L 148.0 170.0 L 148.4 170.4 L 149.3 170.7 L 150.2 170.9 L 151.5 171.0 L 176.4 171.0 Z M 35.6 142.0 L 35.6 172.0 L 72.8 172.0 L 72.8 142.0 Z M 35.6 111.0 L 35.6 138.0 L 72.8 138.0 L 72.8 111.0 Z M 81.7 48.3 L 84.2 51.0 L 80.2789306640625 52.19032459259033 L 79.3 54.6 L 77.7 58.1 L 76.0 61.8 L 74.1 65.7 L 71.9 69.8 L 69.6 74.1 L 66.9 78.7 L 64.0 83.4 L 62.30204086303711 86.0 L 77.61818180084228 86.0 L 85.8 77.0 L 95.8 86.0 L 95.8 90.0 L 12.6 90.0 L 12.6 86.0 L 59.68571424484253 86.0 L 60.9 82.0 L 62.4 76.7 L 63.9 71.7 L 65.2 67.1 L 66.4 62.7 L 67.5 58.7 L 68.4 54.9 L 69.1 51.5 L 69.7 48.3 L 69.95381898880005 46.52326679229736 L 69.8 46.5 L 70.5 43.8 Z M 35.4 70.3 L 35.1 66.8 L 34.1 60.2 L 33.4 57.1 L 32.6 54.0 L 30.8 48.0 L 29.5 45.3 L 30.9 44.2 L 33.2 46.5 L 35.5 48.9 L 37.6 51.5 L 39.6 54.4 L 41.4 57.6 L 43.0 60.9 L 44.4 64.5 L 45.7 68.2 L 46.8 72.2 L 47.7 76.3 L 46.4 80.7 L 42.5 82.9 L 38.1 81.6 L 35.8 77.7 L 35.7 73.9 Z M 158.9 42.3 L 158.0 39.7 L 156.9 37.2 L 155.6 34.8 L 154.2 32.5 L 152.5 30.3 L 150.6 28.1 L 148.5 25.9 L 145.9 24.2 L 146.6 22.5 L 149.7 23.6 L 152.9 24.7 L 155.9 26.1 L 158.7 27.8 L 161.4 29.9 L 163.9 32.2 L 166.1 34.8 L 168.2 37.7 L 170.0 40.9 L 171.7 44.3 L 171.2 48.9 L 167.7 51.8 L 163.1 51.3 L 160.2 47.8 L 159.6 45.0 Z M 16.2 38.0 L 48.7 38.0 L 48.7 13.0 L 60.7 15.0 L 63.7 17.0 L 60.7 18.8 L 60.7 38.0 L 70.2 38.0 L 80.2 28.0 L 92.2 38.0 L 92.2 42.0 L 16.2 42.0 Z " />
</g>
</svg>
