<svg xmlns="http://www.w3.org/2000/svg" xmlns:xlink="http://www.w3.org/1999/xlink" version="1.1" baseProfile="full" viewBox="0 0 200 200" width="200" height="200">
<g fill="black">
<path d="M 167.0 117.4 L 164.3 112.2 L 161.4 107.2 L 158.3 102.3 L 155.0 97.5 L 151.5 93.0 L 147.8 88.5 L 144.0 84.0 L 142.05616502761842 81.8131856918335 L 142.1 82.7 L 144.2 105.7 L 147.2 125.4 L 151.1 141.6 L 155.8 154.3 L 161.2 163.4 L 166.9 169.1 L 172.9 171.9 L 174.88041353225708 171.98487482070922 L 180.6 147.2 L 182.6 147.2 L 180.65965814590453 172.4244444847107 L 184.3 173.5 L 186.6 177.4 L 185.3 181.8 L 181.3 184.1 L 170.1 183.6 L 159.9 178.9 L 151.6 170.6 L 145.0 159.3 L 139.6 145.0 L 135.5 127.6 L 132.3 107.2 L 130.1 83.5 L 128.8 56.7 L 128.5325966835022 36.644751358032224 L 128.4 36.7 L 128.4 28.7 L 88.2 28.7 L 88.2 24.7 L 128.4 24.7 L 134.4 19.7 L 145.4 28.7 L 140.46680030822753 31.659919834136964 L 140.8 56.4 L 141.8948631286621 78.54992246627808 L 146.4 81.1 L 151.5 84.5 L 152.7236909866333 85.49424896240234 L 153.5 82.8 L 155.4 77.0 L 157.4 71.4 L 159.5 66.0 L 161.6 60.7 L 163.8 55.4 L 166.0 50.3 L 168.2 45.3 L 170.5 40.4 L 172.27291669845582 36.53181819915771 L 172.2 36.5 L 173.2 34.6 L 183.2 41.3 L 184.9 44.5 L 181.16405696868895 44.69323844909668 L 180.5 45.8 L 177.7 50.3 L 174.9 54.9 L 172.1 59.7 L 166.3 69.3 L 163.3 74.3 L 160.2 79.3 L 156.9 84.4 L 154.9344605445862 87.29049921035767 L 156.3 88.4 L 160.8 92.6 L 165.0 97.1 L 169.1 101.8 L 172.8 106.9 L 176.4 112.2 L 179.7 117.7 L 182.7 123.5 L 182.8 128.1 L 179.7 131.4 L 175.1 131.5 L 171.7 128.3 L 169.5 122.8 Z M 66.4 178.4 L 64.7 180.2 L 62.8 181.7 L 60.8 183.0 L 58.6 184.1 L 56.3 184.9 L 54.0 185.5 L 51.5 185.8 L 49.0 186.0 L 49.0 180.0 L 33.0 177.0 L 33.0 174.0 L 49.0 174.0 L 50.5 173.9 L 51.7 173.7 L 52.9 173.4 L 53.9 173.1 L 54.9 172.6 L 55.8 172.0 L 56.6 171.3 L 57.4 170.5 L 58.3 169.5 L 59.0 168.3 L 60.7 165.1 L 62.3 161.0 L 63.7 156.2 L 65.0 150.6 L 66.1 144.2 L 67.0 137.0 L 67.7 129.1 L 68.2 120.5 L 68.5 111.1 L 68.58019800186158 103.0 L 33.9 103.0 L 25.9 111.0 L 15.9 101.0 L 22.3314208984375 95.64048261642456 L 27.2 39.4 L 39.0 42.5 L 41.8 44.7 L 38.71759958267212 45.76698474884033 L 34.11610174179077 99.0 L 57.44246578216553 99.0 L 62.35753421783447 30.0 L 16.7 30.0 L 16.7 26.0 L 62.6 26.0 L 68.6 21.0 L 79.6 30.0 L 74.6 33.0 L 73.33594303131103 33.52669038772583 L 69.56350364685059 98.19708032608033 L 74.6 94.0 L 85.6 103.0 L 80.6 106.0 L 80.55125913619995 106.02030868530274 L 80.5 111.3 L 80.2 121.0 L 79.7 130.0 L 78.9 138.3 L 77.9 145.9 L 76.7 152.9 L 75.3 159.2 L 73.6 164.9 L 71.6 170.0 L 69.3 174.5 L 68.0 176.5 Z M 13.7 145.3 L 18.1 143.0 L 22.6 140.8 L 27.2 138.5 L 31.7 136.2 L 36.3 133.9 L 41.0 131.7 L 45.6 129.4 L 50.4 127.2 L 55.3 125.1 L 60.3 123.2 L 61.2 124.7 L 57.3 128.3 L 53.2 131.8 L 49.1 135.0 L 44.9 138.2 L 36.5 144.2 L 23.9 152.9 L 23.16583595275879 153.37196264266967 L 22.9 157.2 L 19.7 155.6 L 11.9 146.3 Z " />
</g>
</svg>
