<svg xmlns="http://www.w3.org/2000/svg" xmlns:xlink="http://www.w3.org/1999/xlink" version="1.1" baseProfile="full" viewBox="0 0 200 200" width="200" height="200">
<g fill="black">
<path d="M 15.4 183.9 L 15.4 179.4 L 18.5 176.0 L 19.7 175.8 L 21.0 175.2 L 22.3 174.1 L 23.8 172.5 L 25.1 170.4 L 26.4 167.6 L 27.6 164.4 L 28.6 160.6 L 29.6 156.3 L 30.0 151.5 L 31.8 151.4 L 32.3 156.3 L 32.8 160.9 L 33.0 165.1 L 32.9 169.1 L 32.4 172.8 L 31.5 176.2 L 30.3 179.4 L 28.5 182.3 L 26.2 184.9 L 23.3 187.0 L 18.8 187.0 Z M 74.2 171.9 L 73.9 169.4 L 72.7 164.4 L 71.9 161.9 L 70.9 159.3 L 69.8 156.8 L 68.6 154.1 L 66.9 151.8 L 68.1 150.5 L 70.5 152.5 L 73.0 154.3 L 75.3 156.3 L 77.4 158.5 L 79.3 160.9 L 81.1 163.4 L 82.7 166.1 L 84.1 168.9 L 85.4 171.9 L 86.4 175.0 L 85.4 179.4 L 81.5 181.9 L 77.1 180.9 L 74.6 177.0 L 74.5 174.5 Z M 100.6 170.6 L 100.2 168.6 L 99.4 166.3 L 98.4 163.9 L 97.0 161.3 L 95.4 158.6 L 93.5 155.6 L 91.4 152.5 L 88.7 149.5 L 89.8 148.2 L 93.1 150.6 L 96.4 152.7 L 99.4 154.9 L 102.1 157.2 L 104.5 159.5 L 106.7 161.8 L 108.6 164.2 L 110.2 166.7 L 111.6 169.3 L 112.6 172.0 L 111.5 176.4 L 107.7 178.9 L 103.2 177.8 L 100.8 174.0 L 100.8 172.4 Z M 53.7 183.4 L 49.8 181.1 L 48.5 176.7 L 49.0 175.5 L 49.4 173.9 L 49.7 172.0 L 49.8 169.9 L 49.7 167.6 L 49.5 165.0 L 49.2 162.1 L 48.7 159.1 L 48.1 155.8 L 47.0 152.5 L 48.6 151.7 L 50.4 154.8 L 52.4 157.6 L 54.1 160.4 L 55.6 163.1 L 56.9 165.7 L 58.0 168.2 L 59.0 170.8 L 59.7 173.2 L 60.2 175.7 L 60.4 178.2 L 58.1 182.2 Z M 170.5 90.6 L 169.1 92.7 L 167.5 94.6 L 165.7 96.3 L 163.6 97.7 L 161.3 98.7 L 158.9 99.4 L 156.4 99.8 L 153.9 100.0 L 153.9 94.0 L 143.9 91.0 L 143.9 88.0 L 153.9 88.0 L 155.2 87.9 L 156.3 87.7 L 157.1 87.5 L 157.8 87.1 L 158.4 86.8 L 158.9 86.3 L 159.4 85.7 L 159.9 85.0 L 160.3 84.0 L 160.7 82.7 L 161.1 81.0 L 161.5 78.6 L 161.8 75.6 L 162.1 71.9 L 162.4 67.7 L 162.6 62.9 L 162.8 57.5 L 162.9 51.5 L 163.0 45.0 L 163.0714285850525 40.0 L 130.7 40.0 L 130.7 110.0 L 172.7 110.0 L 178.7 105.0 L 189.7 114.0 L 184.75069580078124 116.9695824623108 L 184.8 121.9 L 184.7 131.1 L 184.6 139.5 L 184.3 147.0 L 183.9 153.7 L 183.3 159.7 L 182.6 164.8 L 181.8 169.2 L 180.7 173.0 L 179.2 176.3 L 177.9 178.4 L 176.4 180.3 L 174.7 182.1 L 172.8 183.6 L 170.8 185.0 L 168.6 186.1 L 166.4 186.9 L 164.0 187.5 L 161.5 187.8 L 159.1 188.0 L 159.1 182.0 L 139.1 179.0 L 139.1 176.0 L 159.1 176.0 L 160.5 175.9 L 161.7 175.7 L 163.9 175.1 L 164.8 174.6 L 165.7 174.0 L 166.5 173.3 L 167.3 172.5 L 168.1 171.5 L 168.8 170.3 L 169.4 169.0 L 170.1 166.5 L 170.8 162.9 L 171.4 158.3 L 171.9 152.8 L 172.3 146.4 L 172.6 139.1 L 172.7 131.0 L 172.79935598373413 121.95860166549683 L 172.7 122.0 L 172.7 114.0 L 130.7 114.0 L 122.7 122.0 L 112.7 112.0 L 118.7 106.0 L 118.7 30.0 L 130.7 36.0 L 139.23999996185302 36.0 L 139.6 35.1 L 140.0 32.4 L 140.4 29.9 L 140.9 27.4 L 141.4 25.0 L 142.2 20.4 L 142.5 18.2 L 142.96214618682862 14.964976406097412 L 142.7 14.9 L 143.6 12.5 L 154.4 17.8 L 156.6 20.7 L 152.20481929779052 21.625301170349122 L 152.1 21.8 L 149.5 25.8 L 148.1 27.9 L 146.7 29.9 L 145.1 32.0 L 143.5 34.0 L 141.78571424484252 36.0 L 163.1 36.0 L 169.1 31.0 L 180.1 40.0 L 175.1 43.0 L 175.02916173934938 43.02951593399048 L 175.0 45.1 L 174.9 51.7 L 174.8 57.8 L 174.6 63.4 L 174.4 68.4 L 174.1 72.8 L 173.8 76.8 L 173.4 80.3 L 172.9 83.3 L 172.3 85.9 L 171.5 88.3 Z M 165.4 144.0 L 165.4 148.0 L 112.1 148.0 L 112.1 144.0 L 143.4 144.0 L 153.4 134.0 Z M 13.4 128.4 L 14.9 127.8 L 16.6 127.2 L 18.5 126.3 L 22.7 124.2 L 25.1 122.9 L 27.6 121.5 L 30.3 120.0 L 31.6 119.30666666030884 L 31.6 91.0 L 14.0 91.0 L 14.0 87.0 L 31.6 87.0 L 31.6 63.0 L 41.6 65.0 L 44.1 67.0 L 41.6 68.66666669845581 L 41.6 141.5 L 31.6 146.5 L 31.6 124.61052627563477 L 31.0 125.4 L 29.2 127.8 L 27.4 129.9 L 25.8 131.9 L 24.2 133.8 L 23.241144943237305 134.81878356933595 L 23.1 139.9 L 19.8 138.5 L 11.7 129.4 Z M 108.0 105.0 L 110.0 105.0 L 108.0 130.0 L 111.6 132.4 L 114.0 136.0 L 111.6 139.6 L 108.0 142.0 L 98.8 142.0 L 96.3 141.7 L 93.8 141.2 L 91.5 140.3 L 89.3 139.0 L 87.4 137.3 L 85.9 135.3 L 84.8 133.1 L 84.2 130.8 L 83.9 128.4 L 83.8 126.0 L 83.8 63.0 L 93.8 65.0 L 96.3 67.0 L 93.8 68.66666669845581 L 93.8 88.1277777671814 L 96.1 85.7 L 97.8 83.9 L 99.4 82.1 L 100.9 80.3 L 103.7 76.9 L 104.32479743957519 76.01487035751343 L 104.2 75.9 L 105.1 75.0 L 113.0 84.0 L 113.6 87.6 L 109.1833333015442 86.3380952835083 L 108.9 86.5 L 106.7 87.7 L 102.1 89.9 L 99.7 90.9 L 97.2 91.9 L 94.5 92.8 L 93.8 93.0074073791504 L 93.8 126.0 L 94.0 127.3 L 94.3 128.3 L 94.6 129.0 L 94.9 129.4 L 95.2 129.6 L 95.5 129.7 L 96.0 129.8 L 96.6 129.9 L 97.6 130.0 L 102.0 130.0 Z M 83.7 88.1 L 78.7 90.6 L 78.7 132.8 L 69.7 137.3 L 69.7 130.8 L 57.5 130.8 L 57.5 133.8 L 48.5 138.3 L 48.5 79.6 L 57.5 84.1 L 69.7 84.1 L 74.2 79.1 Z M 57.5 88.1 L 57.5 126.8 L 69.7 126.8 L 69.7 88.1 Z M 146.1 68.3 L 145.5 66.2 L 144.7 64.0 L 143.7 61.7 L 142.4 59.5 L 141.0 57.2 L 139.3 54.9 L 137.5 52.5 L 135.1 50.5 L 136.1 49.0 L 139.0 50.5 L 141.9 51.8 L 144.6 53.4 L 147.2 55.1 L 149.5 57.1 L 151.7 59.2 L 153.7 61.5 L 155.5 64.0 L 157.0 66.6 L 158.4 69.4 L 157.8 74.0 L 154.2 76.8 L 149.7 76.2 L 146.8 72.7 L 146.6 70.5 Z M 82.0 15.6 L 85.0 17.6 L 82.0 19.4 L 82.0 34.0 L 90.3 34.0 L 100.3 24.0 L 112.3 34.0 L 112.3 38.0 L 82.0 38.0 L 82.0 65.4 L 70.0 71.4 L 70.0 61.4 L 57.2 61.4 L 57.2 68.4 L 45.2 74.4 L 45.2 38.0 L 14.0 38.0 L 14.0 34.0 L 45.2 34.0 L 45.2 13.6 L 57.2 15.6 L 60.2 17.6 L 57.2 19.4 L 57.2 34.0 L 70.0 34.0 L 70.0 13.6 Z M 57.2 38.0 L 57.2 57.4 L 70.0 57.4 L 70.0 38.0 Z " />
</g>
</svg>
