<svg xmlns="http://www.w3.org/2000/svg" xmlns:xlink="http://www.w3.org/1999/xlink" version="1.1" baseProfile="full" viewBox="0 0 200 200" width="200" height="200">
<g fill="black">
<path d="M 165.9 156.8 L 161.0 150.3 L 156.5 143.5 L 152.4 136.3 L 148.9 128.9 L 145.7 121.2 L 143.2 113.1 L 141.2 104.8 L 140.03448276519777 97.0 L 139.3 97.0 L 139.3 183.0 L 127.3 189.0 L 127.3 101.98064517974854 L 125.8 107.4 L 122.1 117.9 L 117.7 127.8 L 112.7 137.0 L 107.1 145.5 L 101.0 153.3 L 94.2 160.4 L 86.8 166.7 L 78.8 172.2 L 70.2 176.7 L 69.3 175.2 L 76.6 169.1 L 83.2 162.7 L 89.4 155.9 L 95.0 148.6 L 100.1 140.9 L 104.6 132.6 L 108.5 123.7 L 112.0 114.3 L 114.9 104.3 L 116.46989250183105 97.0 L 88.2 97.0 L 88.2 93.0 L 127.3 93.0 L 127.3 54.0 L 86.2 54.0 L 86.2 50.0 L 127.3 50.0 L 127.3 13.0 L 139.3 15.0 L 142.3 17.0 L 139.3 18.8 L 139.3 50.0 L 164.6 50.0 L 174.6 40.0 L 186.6 50.0 L 186.6 54.0 L 139.3 54.0 L 139.3 93.0 L 158.5 93.0 L 168.5 83.0 L 180.5 93.0 L 180.5 97.0 L 142.1833333015442 97.0 L 145.1 103.5 L 148.7 111.0 L 152.4 118.2 L 156.3 125.1 L 160.5 131.5 L 164.9 137.7 L 169.7 143.5 L 174.8 149.0 L 180.1 154.1 L 185.8 159.0 L 188.0 160.8 L 177.2 168.9 L 171.3 163.0 Z M 63.7 178.3 L 62.0 180.1 L 60.2 181.6 L 58.2 183.0 L 56.0 184.1 L 53.7 184.9 L 51.3 185.5 L 48.9 185.8 L 46.4 186.0 L 46.4 180.0 L 32.4 177.0 L 32.4 174.0 L 46.4 174.0 L 47.8 173.9 L 49.1 173.7 L 50.2 173.4 L 51.2 173.1 L 52.1 172.6 L 53.0 172.0 L 53.8 171.3 L 54.6 170.5 L 55.4 169.5 L 56.1 168.3 L 57.7 165.1 L 59.2 161.1 L 60.6 156.2 L 61.8 150.6 L 62.8 144.2 L 63.7 137.0 L 64.4 129.1 L 64.9 120.5 L 65.2 111.1 L 65.28019800186158 103.0 L 32.7 103.0 L 24.7 111.0 L 14.7 101.0 L 21.098339557647705 95.66805038452148 L 25.8 39.5 L 37.5 42.4 L 40.4 44.7 L 37.223423671722415 45.79958410263062 L 32.89525423049927 99.0 L 54.63698625564575 99.0 L 59.36301374435425 30.0 L 16.0 30.0 L 16.0 26.0 L 59.5 26.0 L 65.5 21.0 L 76.5 30.0 L 71.5 33.0 L 70.24881515502929 33.52132701873779 L 66.67475728988647 97.85436897277832 L 71.3 94.0 L 82.3 103.0 L 77.3 106.0 L 77.2021206855774 106.04078302383422 L 77.1 111.3 L 76.8 121.0 L 76.3 130.0 L 75.6 138.3 L 74.7 145.9 L 73.6 152.8 L 72.2 159.1 L 70.6 164.8 L 68.8 169.8 L 66.6 174.2 L 65.2 176.4 Z M 12.9 145.3 L 17.2 143.1 L 25.8 138.5 L 30.2 136.3 L 39.0 131.7 L 43.5 129.5 L 48.1 127.2 L 52.7 125.2 L 57.6 123.2 L 58.5 124.7 L 54.8 128.3 L 51.0 131.7 L 47.0 135.0 L 43.1 138.1 L 39.1 141.2 L 35.1 144.1 L 31.1 147.1 L 27.1 149.9 L 23.1 152.8 L 22.563519287109376 153.175536441803 L 22.4 157.1 L 19.1 155.6 L 11.2 146.3 Z " />
</g>
</svg>
