<svg xmlns="http://www.w3.org/2000/svg" xmlns:xlink="http://www.w3.org/1999/xlink" version="1.1" baseProfile="full" viewBox="0 0 200 200" width="200" height="200">
<g fill="black">
<path d="M 169.9 172.5 L 168.0 167.4 L 165.9 162.3 L 165.59983892440795 161.64747581481933 L 161.5 163.0 L 152.4 165.8 L 143.9 168.3 L 136.0 170.6 L 128.8 172.8 L 122.2 174.8 L 116.2 176.6 L 110.9 178.4 L 106.3 180.0 L 106.16460037231445 180.04738988876343 L 105.0 183.7 L 102.3 181.4 L 96.9 170.5 L 97.7 170.2473684310913 L 97.7 170.1 L 100.5 168.3 L 103.7 165.1 L 107.3 160.7 L 111.3 154.9 L 115.4 148.1 L 119.6 140.5 L 123.8 132.3 L 127.9 123.7 L 131.7 115.0 L 134.8258620262146 107.40862064361572 L 134.8 107.4 L 135.7 105.2 L 146.2 111.2 L 148.2 114.3 L 144.4659564971924 114.75066041946411 L 142.0 119.8 L 137.5 128.5 L 132.6 137.0 L 127.6 145.2 L 122.5 152.7 L 117.4 159.4 L 112.2 165.0 L 108.75937843322754 167.89012212753295 L 113.8 166.9 L 120.0 165.7 L 126.8 164.5 L 134.3 163.2 L 142.5 161.9 L 151.2 160.5 L 160.7 159.2 L 164.2939468383789 158.80858001708984 L 163.6 157.3 L 161.2 152.3 L 158.5 147.4 L 155.7 142.4 L 152.8 137.4 L 149.8 132.3 L 151.1 131.1 L 155.7 135.0 L 160.0 139.2 L 163.9 143.6 L 167.6 148.3 L 171.0 153.1 L 174.2 158.0 L 177.1 163.1 L 179.8 168.4 L 182.3 173.7 L 184.5 179.3 L 184.1 183.8 L 180.6 186.8 L 176.1 186.4 L 173.1 182.9 L 171.6 177.7 Z M 64.7 178.4 L 63.0 180.1 L 61.2 181.7 L 59.1 183.0 L 57.0 184.1 L 54.7 184.9 L 52.3 185.5 L 49.9 185.8 L 47.4 186.0 L 47.4 180.0 L 31.4 177.0 L 31.4 174.0 L 47.4 174.0 L 48.8 173.9 L 50.1 173.7 L 51.2 173.4 L 52.2 173.1 L 53.2 172.6 L 54.0 172.0 L 54.9 171.3 L 55.7 170.5 L 56.5 169.5 L 57.2 168.3 L 58.8 165.1 L 60.4 161.1 L 61.7 156.2 L 63.0 150.6 L 64.0 144.2 L 64.9 137.0 L 65.6 129.1 L 66.1 120.5 L 66.4 111.1 L 66.48019800186157 103.0 L 33.2 103.0 L 25.2 111.0 L 15.2 101.0 L 21.598339557647705 95.66805038452148 L 26.3 39.5 L 38.1 42.4 L 40.9 44.7 L 37.813245105743405 45.78944292068481 L 33.31150588989258 99.0 L 55.73698625564575 99.0 L 60.46301374435425 30.0 L 16.2 30.0 L 16.2 26.0 L 60.6 26.0 L 66.6 21.0 L 77.6 30.0 L 72.6 33.0 L 71.3488151550293 33.52132701873779 L 67.7699028968811 97.94174757003785 L 72.5 94.0 L 83.5 103.0 L 78.5 106.0 L 78.45125913619995 106.02030868530274 L 78.4 111.3 L 78.1 121.0 L 77.6 130.0 L 76.9 138.3 L 75.9 145.9 L 74.8 152.8 L 73.4 159.1 L 71.7 164.8 L 69.8 169.9 L 67.6 174.3 L 66.3 176.4 Z M 139.0 59.3 L 141.4 61.9 L 137.92838697433473 63.03616428375244 L 135.3 72.2 L 131.1 84.7 L 129.4016806602478 89.0 L 166.4 89.0 L 176.4 79.0 L 188.4 89.0 L 188.4 93.0 L 127.8218487739563 93.0 L 126.4 96.6 L 121.1 108.0 L 115.4 118.9 L 109.0 129.3 L 102.1 139.0 L 94.7 148.2 L 86.7 156.8 L 78.0 164.6 L 76.8 163.3 L 83.8 154.3 L 90.5 144.9 L 96.7 135.3 L 102.5 125.4 L 107.8 115.0 L 112.7 104.2 L 117.06106195449829 93.0 L 86.1 93.0 L 86.1 89.0 L 118.41120691299439 89.0 L 121.0 81.3 L 124.4 69.1 L 127.3 56.6 L 127.7 54.8 Z M 13.2 145.3 L 17.5 143.0 L 21.9 140.8 L 30.7 136.2 L 35.2 134.0 L 39.7 131.7 L 44.3 129.4 L 48.9 127.2 L 53.7 125.1 L 58.6 123.2 L 59.6 124.7 L 55.7 128.3 L 51.8 131.8 L 47.8 135.0 L 43.7 138.1 L 39.7 141.2 L 35.6 144.2 L 31.5 147.1 L 27.5 150.0 L 22.760983276367188 153.2364016532898 L 22.6 157.1 L 19.3 155.6 L 11.5 146.3 Z M 85.8 80.1 L 83.8 75.9 L 85.3 71.6 L 86.4 70.7 L 87.6 69.1 L 88.9 66.9 L 90.1 64.0 L 91.2 60.6 L 92.3 56.6 L 93.2 52.0 L 94.1 46.9 L 95.1 41.3 L 95.7 35.2 L 97.5 35.2 L 98.3 41.4 L 98.73157892227172 45.5 L 176.0 45.5 L 182.0 40.5 L 193.0 49.5 L 188.0 52.5 L 185.3725118637085 53.59478673934937 L 185.2 53.9 L 183.9 56.3 L 182.4 58.8 L 180.8 61.5 L 179.1 64.2 L 177.2 67.1 L 175.2 70.0 L 173.0 73.1 L 171.0 76.4 L 169.4 75.6 L 170.6 72.0 L 171.4 68.3 L 172.2 64.9 L 173.0 61.6 L 173.7 58.5 L 174.4 55.6 L 175.0 52.9 L 175.5 50.3 L 175.63333330154418 49.5 L 99.0777777671814 49.5 L 99.3 52.5 L 99.3 57.4 L 99.2 61.9 L 98.8 66.1 L 98.2 69.9 L 97.2 73.4 L 96.0 76.6 L 94.3 79.5 L 90.1 81.5 Z M 137.1 31.8 L 136.1 29.6 L 134.9 27.3 L 133.4 25.1 L 131.6 22.9 L 129.5 20.7 L 127.1 18.4 L 124.5 16.1 L 121.4 14.2 L 122.1 12.5 L 125.7 13.7 L 129.3 14.8 L 132.6 16.2 L 135.7 17.8 L 138.6 19.6 L 141.3 21.6 L 143.7 23.9 L 145.9 26.4 L 147.9 29.1 L 149.6 32.1 L 149.3 36.6 L 146.0 39.8 L 141.4 39.5 L 138.3 36.2 L 137.8 34.0 Z " />
</g>
</svg>
