<svg xmlns="http://www.w3.org/2000/svg" xmlns:xlink="http://www.w3.org/1999/xlink" version="1.1" baseProfile="full" viewBox="0 0 200 200" width="200" height="200">
<g fill="black">
<path d="M 50.3 104.3 L 53.3 106.3 L 50.3 108.1 L 50.3 120.9 L 50.12127656936646 123.3 L 75.5 123.3 L 78.4709677696228 120.3290322303772 L 74.6 118.2 L 74.6 117.6 L 74.2 116.7 L 73.3 115.6 L 72.0 114.3 L 70.4 113.0 L 68.3 111.7 L 66.0 110.3 L 63.3 108.8 L 60.3 107.2 L 56.9 106.1 L 57.3 104.3 L 60.9 104.9 L 64.4 105.1 L 67.6 105.4 L 70.5 105.8 L 73.2 106.3 L 75.7 106.8 L 78.0 107.5 L 80.2 108.4 L 82.2 109.4 L 84.0 110.9 L 84.83571424484253 113.96428575515748 L 85.5 113.3 L 97.5 123.3 L 97.5 127.3 L 70.0 127.3 L 70.0 152.425 L 70.6 151.9 L 75.5 147.1 L 79.7 142.5 L 83.2 138.2 L 85.53389282226563 134.81987943649293 L 85.5 134.8 L 86.5 133.3 L 95.9 140.9 L 97.2 144.2 L 93.32854108810425 143.93300285339356 L 92.0 145.5 L 87.4 150.0 L 82.3 154.5 L 76.5 159.1 L 70.1 163.6 L 70.0 163.66338024139404 L 70.0 173.36000003814698 L 71.4 172.8 L 78.4 170.2 L 82.0 168.9 L 89.4 166.5 L 93.3 165.4 L 97.1 164.2 L 97.9 165.8 L 94.6 168.1 L 91.5 170.6 L 88.3 172.9 L 85.2 175.1 L 82.0 177.2 L 78.9 179.4 L 75.8 181.4 L 72.8 183.5 L 66.8 187.5 L 66.7654320716858 187.4345679283142 L 62.0 192.2 L 52.0 182.2 L 58.0 176.2 L 58.0 171.0870129585266 L 55.3 172.7 L 46.9 177.2 L 37.8 181.6 L 28.0 185.9 L 27.1 184.3 L 35.9 178.3 L 44.1 172.6 L 51.7 167.1 L 58.0 162.41999998092652 L 58.0 127.3 L 49.823404216766356 127.3 L 49.6 130.3 L 48.3 139.1 L 46.3 147.4 L 43.6 155.1 L 40.2 162.2 L 36.1 168.7 L 31.4 174.5 L 26.0 179.6 L 19.9 183.9 L 13.2 187.3 L 12.3 185.8 L 17.6 180.9 L 22.2 175.8 L 26.3 170.4 L 29.7 164.7 L 32.6 158.5 L 34.9 152.0 L 36.6 145.0 L 37.7 137.5 L 38.3 129.5 L 38.3 127.3 L 13.7 127.3 L 13.7 123.3 L 38.3 123.3 L 38.3 102.3 Z M 151.8 173.8 L 152.0 174.4 L 152.2 174.8 L 152.5 175.1 L 152.9 175.3 L 153.5 175.5 L 154.4 175.6 L 155.6 175.7 L 176.3 175.7 L 182.3 150.7 L 184.3 150.7 L 182.3 175.7 L 185.9 178.1 L 188.3 181.7 L 185.9 185.3 L 182.3 187.7 L 155.6 187.7 L 153.0 187.5 L 150.5 187.1 L 148.1 186.3 L 145.9 185.1 L 143.9 183.4 L 142.2 181.4 L 141.0 179.1 L 140.2 176.7 L 140.01484184265138 175.77420921325682 L 136.9 177.5 L 129.0 181.2 L 120.6 184.6 L 111.7 187.4 L 111.0 185.8 L 119.0 181.1 L 126.5 176.5 L 133.5 171.9 L 139.6 167.46363639831543 L 139.6 127.3 L 132.66226415634156 127.3 L 130.7 137.7 L 127.5 147.4 L 123.3 156.4 L 118.1 164.5 L 111.9 171.7 L 104.7 177.9 L 96.5 183.2 L 87.3 187.4 L 86.5 185.8 L 94.3 180.0 L 101.1 173.9 L 107.0 167.3 L 111.8 160.2 L 115.7 152.6 L 118.7 144.4 L 120.8 135.5 L 121.9104166984558 127.3 L 99.2 127.3 L 99.2 123.3 L 122.1764705657959 123.3 L 122.4 115.7 L 121.85409908294677 105.69181690216064 L 121.8 105.7 L 121.6 102.5 L 133.7 103.9 L 136.9 105.7 L 133.7 107.9 L 133.7 115.9 L 133.03928575515747 123.3 L 162.7 123.3 L 172.7 113.3 L 184.7 123.3 L 184.7 127.3 L 151.6 127.3 L 151.6 157.37857141494752 L 151.8 157.2 L 156.9 152.0 L 161.5 146.7 L 165.7 141.2 L 168.85246229171753 136.42870578765869 L 168.8 136.4 L 169.9 134.8 L 179.4 142.2 L 180.7 145.6 L 176.8909969329834 145.40298261642457 L 174.7 148.2 L 169.5 153.8 L 163.9 159.2 L 157.8 164.2 L 151.6 168.77846155166625 L 151.6 171.7 L 151.7 172.9 Z M 151.1 117.4 L 150.4 116.1 L 149.5 114.8 L 148.4 113.3 L 147.2 111.9 L 145.8 110.4 L 142.5 107.1 L 140.5 106.0 L 141.2 104.3 L 143.5 105.2 L 145.9 105.6 L 148.2 106.1 L 150.4 106.7 L 152.5 107.4 L 154.5 108.2 L 156.4 109.1 L 158.2 110.1 L 159.9 111.2 L 161.5 112.4 L 162.7 116.8 L 160.5 120.8 L 156.1 122.0 L 152.1 119.8 L 151.7 118.7 Z M 119.7 99.5 L 117.2 99.1 L 114.8 98.3 L 112.6 97.1 L 110.6 95.4 L 108.9 93.4 L 107.7 91.1 L 106.9 88.7 L 106.4 86.2 L 106.3 83.7 L 106.3 79.81333332061767 L 101.4 81.4 L 90.5 84.5 L 79.0 87.3 L 66.9 89.6 L 66.5 87.9 L 77.9 83.6 L 88.8 79.4 L 99.2 75.2 L 106.3 72.11616163253784 L 106.3 40.3 L 89.53103446960449 40.3 L 88.9 46.4 L 86.5 54.7 L 82.7 62.4 L 77.4 69.5 L 70.8 76.0 L 62.9 81.8 L 53.7 87.1 L 43.3 91.8 L 31.6 96.0 L 18.5 99.4 L 18.0 97.7 L 30.2 92.4 L 41.0 87.0 L 50.4 81.4 L 58.4 75.7 L 65.0 69.7 L 70.2 63.7 L 73.9 57.5 L 76.4 51.2 L 77.7 44.7 L 77.76567163467408 40.3 L 23.0 40.3 L 23.0 36.3 L 77.8 36.3 L 77.8 14.8 L 89.8 16.8 L 92.8 18.8 L 89.8 20.6 L 89.8 36.3 L 154.9 36.3 L 164.9 26.3 L 176.9 36.3 L 176.9 40.3 L 118.3 40.3 L 118.3 66.59361705780029 L 118.5 66.5 L 127.3 62.0 L 135.6 57.4 L 143.4 52.7 L 150.7 47.8 L 157.4 42.9 L 164.4 52.6 L 164.6 56.2 L 161.10257120132445 54.71035442352295 L 156.9 57.4 L 148.9 62.0 L 140.3 66.3 L 131.3 70.4 L 121.9 74.3 L 118.3 75.63199996948242 L 118.3 83.7 L 118.4 84.9 L 118.5 85.8 L 118.7 86.4 L 118.9 86.8 L 119.2 87.1 L 119.6 87.3 L 120.2 87.5 L 121.1 87.6 L 122.3 87.7 L 169.0 87.7 L 175.0 62.7 L 177.0 62.7 L 175.0 87.7 L 178.6 90.1 L 181.0 93.7 L 178.6 97.3 L 175.0 99.7 L 122.3 99.7 Z M 139.6 30.2 L 138.0 28.9 L 135.9 27.4 L 133.2 25.9 L 130.2 24.3 L 126.6 22.7 L 122.7 21.0 L 118.3 19.2 L 113.5 17.7 L 113.8 16.0 L 118.9 16.5 L 123.7 16.8 L 128.1 17.3 L 132.2 17.9 L 135.9 18.6 L 139.3 19.4 L 142.3 20.3 L 145.1 21.4 L 147.7 22.7 L 150.0 24.3 L 151.5 28.6 L 149.7 32.8 L 145.4 34.3 L 141.2 32.5 L 140.7 31.5 Z " />
</g>
</svg>
