<svg xmlns="http://www.w3.org/2000/svg" xmlns:xlink="http://www.w3.org/1999/xlink" version="1.1" baseProfile="full" viewBox="0 0 200 200" width="200" height="200">
<g fill="black">
<path d="M 60.0 175.9 L 81.2 175.9 L 82.1 175.7 L 82.7 175.5 L 83.0 175.3 L 83.2 175.2 L 83.4 175.0 L 83.7 174.1 L 83.9 173.2 L 84.0 171.9 L 84.0 99.7 L 96.0 101.7 L 99.0 103.7 L 96.0 105.5 L 96.0 117.79230766296386 L 98.4 122.9 L 102.7 130.4 L 107.3 137.3 L 110.24222612380981 140.8080389022827 L 111.5 139.7 L 115.6 136.2 L 119.5 132.9 L 123.3 129.7 L 127.0 126.5 L 130.5 123.4 L 133.9 120.3 L 137.1 117.2 L 140.1 114.2 L 142.2371792793274 111.83383731842041 L 142.2 111.8 L 142.56206893920898 111.4741379737854 L 142.9 111.1 L 142.93547592163085 111.13807172775269 L 143.2 110.9 L 151.1 119.9 L 151.7 123.5 L 147.94210529327393 122.42631578445435 L 147.6 122.7 L 144.0 125.4 L 140.1 128.1 L 136.1 130.7 L 132.0 133.3 L 127.6 135.8 L 123.1 138.3 L 118.4 140.7 L 113.4 142.9 L 112.34407424926758 143.31408853530883 L 112.5 143.5 L 118.2 149.1 L 124.4 154.0 L 131.3 158.4 L 138.7 162.2 L 146.8 165.4 L 155.6 168.1 L 163.5 170.4 L 151.8 180.7 L 142.2 177.1 L 133.4 172.7 L 125.3 167.7 L 118.1 162.1 L 111.6 155.7 L 106.0 148.8 L 101.2 141.2 L 97.4 133.1 L 96.0 128.9 L 96.0 171.9 L 95.8 174.5 L 95.4 177.0 L 94.6 179.4 L 93.3 181.7 L 91.7 183.7 L 89.7 185.3 L 87.4 186.6 L 85.0 187.4 L 82.5 187.8 L 80.0 187.9 L 80.0 181.9 L 60.0 178.9 Z M 81.4 127.2 L 76.4 130.2 L 75.08269481658935 130.74887714385986 L 74.4 133.3 L 71.6 140.0 L 68.0 146.3 L 63.4 152.2 L 58.1 157.5 L 52.0 162.4 L 45.1 166.9 L 37.4 170.8 L 29.0 174.2 L 19.7 177.1 L 19.1 175.4 L 27.4 170.8 L 34.8 166.1 L 41.4 161.4 L 47.2 156.5 L 52.1 151.5 L 56.1 146.4 L 59.4 141.1 L 61.8 135.7 L 63.5 130.1 L 64.0 127.2 L 28.8 127.2 L 28.8 123.2 L 64.4 123.2 L 70.4 118.2 Z M 142.9 78.7 L 141.4 80.7 L 139.7 82.5 L 137.7 84.0 L 135.6 85.3 L 133.3 86.2 L 131.0 86.9 L 128.5 87.3 L 126.0 87.4 L 126.0 81.4 L 110.0 78.4 L 110.0 75.4 L 126.0 75.4 L 127.3 75.3 L 128.4 75.1 L 129.4 74.9 L 130.2 74.5 L 130.9 74.1 L 131.6 73.6 L 132.2 73.0 L 132.8 72.1 L 133.4 71.1 L 133.9 69.9 L 134.4 68.3 L 135.0 66.2 L 135.6 63.7 L 136.1 60.7 L 136.7 57.2 L 137.2 53.4 L 137.7 49.1 L 138.1 44.5 L 138.6 39.4 L 138.8181818008423 36.4 L 57.0 36.4 L 57.0 91.9 L 168.0 91.9 L 174.0 86.9 L 185.0 95.9 L 180.0 98.9 L 179.5803370475769 99.0748595237732 L 179.5 100.3 L 179.0 106.1 L 178.3 111.3 L 177.6 116.1 L 176.8 120.3 L 176.0 124.0 L 175.1 127.2 L 174.4 129.7 L 173.6 131.8 L 172.5 133.8 L 171.1 135.8 L 169.4 137.6 L 167.6 139.3 L 165.7 140.7 L 163.7 142.0 L 161.5 143.0 L 159.2 143.7 L 156.8 144.3 L 154.4 144.6 L 152.0 144.7 L 152.0 138.7 L 138.0 135.7 L 138.0 132.7 L 153.4 132.7 L 154.7 132.5 L 155.9 132.2 L 157.0 131.8 L 159.0 130.8 L 160.0 130.1 L 160.9 129.2 L 161.8 128.2 L 162.6 127.1 L 162.5 127.2 L 163.0 125.9 L 163.6 123.9 L 164.3 121.2 L 165.0 117.9 L 165.8 114.0 L 166.5 109.6 L 167.1 104.7 L 167.6 99.4 L 167.79090909957887 95.9 L 57.0 95.9 L 49.0 103.9 L 39.0 93.9 L 45.0 87.9 L 45.0 26.4 L 57.0 32.4 L 77.49166669845582 32.4 L 78.5 31.3 L 80.2 28.7 L 81.9 26.2 L 83.5 23.9 L 85.0 21.8 L 86.4 19.7 L 87.7 17.7 L 88.9 15.9 L 89.9 14.2 L 90.37515525817871 13.439751529693604 L 90.2 13.3 L 91.2 12.2 L 99.6 20.8 L 100.4 24.4 L 95.825 23.35657892227173 L 94.3 24.4 L 92.2 25.7 L 90.1 27.1 L 87.8 28.5 L 85.4 30.0 L 82.9 31.5 L 81.325 32.4 L 139.0 32.4 L 145.0 27.4 L 156.0 36.4 L 151.0 39.4 L 150.55828218460084 39.58404903411865 L 150.5 40.4 L 150.1 45.6 L 149.6 50.4 L 149.1 54.9 L 148.5 59.0 L 147.9 62.7 L 147.3 66.0 L 146.7 69.1 L 145.9 71.8 L 145.1 74.2 L 144.1 76.5 Z M 101.0 63.6 L 99.1 61.5 L 96.7 59.4 L 93.9 57.2 L 90.5 54.9 L 86.7 52.7 L 82.5 50.4 L 77.8 48.0 L 72.7 45.8 L 73.2 44.0 L 78.8 45.0 L 84.1 45.9 L 89.0 47.2 L 93.5 48.5 L 97.7 50.1 L 101.5 51.8 L 105.0 53.7 L 108.1 55.9 L 110.9 58.3 L 113.4 60.9 L 114.1 65.4 L 111.6 69.2 L 107.1 70.0 L 103.3 67.4 L 102.3 65.6 Z " />
</g>
</svg>
