<svg xmlns="http://www.w3.org/2000/svg" xmlns:xlink="http://www.w3.org/1999/xlink" version="1.1" baseProfile="full" viewBox="0 0 200 200" width="200" height="200">
<g fill="black">
<path d="M 46.3 142.7 L 43.5 148.0 L 42.6 151.8 L 43.0 153.9 L 44.3 155.6 L 47.5 157.6 L 53.3 159.4 L 61.5 160.5 L 72.0 161.0 L 168.0 161.0 L 174.0 136.0 L 176.0 136.0 L 174.0 161.0 L 177.6 163.4 L 180.0 167.0 L 177.6 170.6 L 174.0 173.0 L 72.0 173.0 L 60.5 172.5 L 50.8 171.1 L 42.7 168.6 L 36.3 164.6 L 31.9 158.6 L 30.7 151.2 L 32.3 143.8 L 36.1 136.3 L 41.9 128.4 L 49.6 119.9 L 132.64372844696044 35.0 L 32.0 35.0 L 32.0 31.0 L 137.0 31.0 L 143.0 26.0 L 154.0 35.0 L 149.0 38.0 L 143.9631790161133 40.098675441741946 L 58.2 128.2 L 51.2 136.0 Z " />
</g>
</svg>
