<svg xmlns="http://www.w3.org/2000/svg" xmlns:xlink="http://www.w3.org/1999/xlink" version="1.1" baseProfile="full" viewBox="0 0 200 200" width="200" height="200">
<g fill="black">
<path d="M 148.7 163.9 L 137.1 151.4 L 127.2 137.4 L 119.0 121.7 L 112.5 104.5 L 107.8 85.9 L 104.7 65.7 L 103.89283332824706 52.28861513137817 L 101.9 68.3 L 97.3 89.7 L 90.9 109.2 L 82.7 126.9 L 72.8 142.6 L 61.2 156.3 L 47.9 168.0 L 32.9 177.5 L 16.3 184.8 L 15.6 183.1 L 30.9 174.2 L 44.5 163.8 L 56.4 151.8 L 66.6 138.3 L 75.2 123.0 L 82.1 106.0 L 87.5 87.2 L 91.3 66.7 L 93.4 44.2 L 94.0 20.0 L 94.0 17.6 L 106.0 20.0 L 109.0 22.0 L 106.02010049819947 23.787939739227294 L 107.6 43.8 L 110.5 64.9 L 114.8 84.2 L 120.4 101.8 L 127.4 117.7 L 135.8 131.8 L 145.5 144.3 L 156.6 155.1 L 169.0 164.4 L 182.9 172.0 L 188.3 174.7 L 177.0 183.9 L 162.0 174.7 Z " />
</g>
</svg>
