<svg xmlns="http://www.w3.org/2000/svg" xmlns:xlink="http://www.w3.org/1999/xlink" version="1.1" baseProfile="full" viewBox="0 0 200 200" width="200" height="200">
<g fill="black">
<path d="M 149.3 162.2 L 138.0 149.6 L 128.0 135.6 L 119.5 120.4 L 112.4 104.1 L 107.99352073669434 90.23961973190308 L 105.5 95.3 L 98.1 108.4 L 89.9 120.7 L 81.1 132.3 L 71.6 143.1 L 61.3 153.1 L 50.4 162.3 L 38.8 170.7 L 26.4 178.2 L 13.4 184.7 L 12.5 183.2 L 24.4 175.0 L 35.6 166.4 L 46.1 157.3 L 56.0 147.7 L 65.2 137.4 L 73.8 126.6 L 81.6 115.1 L 88.8 103.0 L 95.3 90.2 L 101.2 76.8 L 103.54686346054078 71.3239851951599 L 103.0 68.8 L 101.0 50.1 L 101.09476442337036 32.0 L 56.0 32.0 L 56.0 28.0 L 97.08000001907348 28.0 L 102.0 23.9 L 113.0 32.9 L 108.0 35.9 L 103.77042608261108 38.01478700637817 L 105.2 49.7 L 108.8 67.6 L 113.8 84.8 L 120.1 100.9 L 127.7 116.0 L 136.5 129.9 L 146.5 142.5 L 157.4 153.6 L 169.4 163.3 L 182.2 171.2 L 186.9 173.9 L 175.7 182.7 L 161.9 173.3 Z " />
</g>
</svg>
