<svg xmlns="http://www.w3.org/2000/svg" xmlns:xlink="http://www.w3.org/1999/xlink" version="1.1" baseProfile="full" viewBox="0 0 200 200" width="200" height="200">
<g fill="black">
<path d="M 12.5 116.8 L 11.5 112.3 L 13.7 108.4 L 15.8 106.9 L 17.8 105.0 L 19.8 102.4 L 21.6 99.2 L 23.3 95.4 L 24.8 90.9 L 26.1 85.8 L 27.2 80.2 L 28.2 73.9 L 29.1 67.0 L 30.9 66.9 L 31.9 73.9 L 32.28636360168457 79.0 L 171.0 79.0 L 171.49714288711547 78.58571424484253 L 171.6 78.3 L 171.75052757263182 78.37456035614014 L 177.0 74.0 L 188.0 83.0 L 183.0 86.0 L 179.67428569793702 87.38571424484253 L 178.8 88.6 L 176.8 91.3 L 174.7 94.1 L 172.3 97.1 L 169.8 100.1 L 167.1 103.3 L 164.1 106.6 L 160.9 109.9 L 157.7 113.5 L 156.2 112.4 L 158.4 108.2 L 160.3 104.0 L 162.2 100.1 L 164.0 96.4 L 165.6 92.8 L 167.1 89.5 L 168.4 86.4 L 169.6 83.5 L 169.8037036895752 83.0 L 32.4 83.0 L 32.4 86.6 L 32.1 92.3 L 31.4 97.6 L 30.2 102.5 L 28.6 107.0 L 26.6 111.1 L 24.0 114.8 L 21.0 118.0 L 16.5 119.0 Z " />
</g>
</svg>
