<svg xmlns="http://www.w3.org/2000/svg" xmlns:xlink="http://www.w3.org/1999/xlink" version="1.1" baseProfile="full" viewBox="0 0 200 200" width="200" height="200">
<g fill="black">
<path d="M 68.0 28.0 L 128.0 28.0 L 134.0 23.0 L 145.0 32.0 L 140.0 36.0 L 140.0 163.2 L 140.2 164.1 L 140.5 165.0 L 140.9 165.4 L 141.8 165.7 L 142.7 165.9 L 144.0 166.0 L 175.0 166.0 L 181.0 141.0 L 183.0 141.0 L 181.0 166.0 L 184.6 168.4 L 187.0 172.0 L 184.6 175.6 L 181.0 178.0 L 144.0 178.0 L 141.4 177.8 L 138.9 177.4 L 136.5 176.6 L 134.2 175.3 L 132.2 173.7 L 130.6 171.7 L 129.3 169.4 L 128.5 167.0 L 128.1 164.5 L 128.0 162.0 L 128.0 32.0 L 68.0 32.0 L 68.0 100.0 L 67.2 113.3 L 65.4 125.7 L 62.6 137.0 L 58.8 147.4 L 53.9 156.8 L 48.1 165.0 L 41.2 172.1 L 33.5 177.9 L 24.8 182.5 L 15.3 185.8 L 14.6 184.1 L 23.0 179.2 L 30.3 173.6 L 36.6 167.4 L 42.0 160.4 L 46.5 152.6 L 50.1 144.0 L 52.9 134.4 L 54.8 123.9 L 55.8 112.4 L 56.0 100.0 L 56.0 22.0 Z " />
</g>
</svg>
