<svg xmlns="http://www.w3.org/2000/svg" xmlns:xlink="http://www.w3.org/1999/xlink" version="1.1" baseProfile="full" viewBox="0 0 200 200" width="200" height="200">
<g fill="black">
<path d="M 159.0 171.5 L 157.5 173.5 L 155.7 175.2 L 153.7 176.7 L 151.6 177.9 L 149.3 178.8 L 146.9 179.5 L 144.5 179.8 L 142.0 180.0 L 142.0 174.0 L 122.0 171.0 L 122.0 168.0 L 142.0 168.0 L 143.3 167.9 L 144.5 167.7 L 145.5 167.4 L 146.4 167.1 L 147.1 166.6 L 147.9 166.1 L 148.5 165.4 L 149.2 164.6 L 149.8 163.6 L 150.4 162.4 L 152.5 156.7 L 154.4 149.3 L 156.2 140.3 L 157.8 129.7 L 159.2 117.6 L 160.4 103.9 L 161.4 88.7 L 162.1 71.9 L 162.6 53.7 L 162.95757579803467 36.0 L 95.7709433555603 36.0 L 94.1 60.6 L 90.9 83.6 L 86.3 103.8 L 80.3 121.2 L 72.9 136.4 L 64.1 149.4 L 53.8 160.6 L 42.1 170.4 L 29.0 179.0 L 14.4 186.7 L 13.5 185.2 L 26.9 175.8 L 38.7 166.2 L 49.1 156.0 L 58.0 144.9 L 65.5 132.3 L 71.7 117.9 L 76.6 101.2 L 80.3 81.9 L 82.7 59.5 L 83.88871593475342 36.0 L 22.0 36.0 L 22.0 32.0 L 163.0 32.0 L 169.0 27.0 L 180.0 36.0 L 175.0 39.0 L 174.82351455688476 39.07353563308716 L 174.6 53.9 L 174.1 72.4 L 173.3 89.3 L 172.4 104.8 L 171.2 118.8 L 169.7 131.3 L 168.1 142.3 L 166.1 152.0 L 163.9 160.2 L 161.4 167.2 L 160.3 169.4 Z " />
</g>
</svg>
