<svg xmlns="http://www.w3.org/2000/svg" xmlns:xlink="http://www.w3.org/1999/xlink" version="1.1" baseProfile="full" viewBox="0 0 200 200" width="200" height="200">
<g fill="black">
<path d="M 138.2 165.3 L 122.2 154.0 L 107.6 141.1 L 101.4132571220398 134.2993055343628 L 91.6 143.3 L 74.5 156.0 L 55.9 167.0 L 35.8 176.3 L 14.2 183.8 L 13.7 182.1 L 34.2 172.9 L 53.2 162.4 L 70.7 150.6 L 86.7 137.5 L 95.89866104125977 128.2374593734741 L 94.5 126.7 L 82.9 110.8 L 72.8 93.3 L 64.3 74.4 L 57.4 54.0 L 53.08667221069336 35.478062915802 L 52.4 39.5 L 51.4 43.6 L 50.1 47.5 L 48.6 51.3 L 46.8 55.0 L 44.9 58.5 L 42.8 62.0 L 40.5817174911499 65.05013847351074 L 41.4 69.2 L 37.9 68.5 L 28.0 61.4 L 29.4 60.0 L 32.1 57.7 L 34.6 55.4 L 37.0 52.8 L 39.4 50.1 L 41.7 47.3 L 43.9 44.3 L 46.0 41.1 L 48.1 37.8 L 50.2 34.4 L 50.91891889572143 33.0 L 21.0 33.0 L 21.0 29.0 L 151.0 29.0 L 157.0 24.0 L 168.0 33.0 L 163.0 36.0 L 161.2629370689392 36.723776245117186 L 154.7 55.1 L 145.2 75.9 L 134.1 95.2 L 121.4 112.8 L 108.46721858978272 127.56721858978271 L 114.6 133.7 L 128.8 145.2 L 144.3 155.2 L 161.1 163.7 L 179.2 170.7 L 186.3 173.3 L 174.7 183.2 L 155.8 175.1 Z M 54.55190477371216 33.0 L 61.4 52.7 L 69.7 72.1 L 79.2 89.9 L 89.8 106.1 L 101.6 120.7 L 102.36388893127442 121.46388893127441 L 114.1 107.2 L 125.5 89.9 L 135.5 71.1 L 144.1 50.9 L 149.95668201446534 33.0 Z " />
</g>
</svg>
