<svg xmlns="http://www.w3.org/2000/svg" xmlns:xlink="http://www.w3.org/1999/xlink" version="1.1" baseProfile="full" viewBox="0 0 200 200" width="200" height="200">
<g fill="black">
<path d="M 140.7 166.4 L 126.2 156.0 L 113.4 144.5 L 104.24353275299072 133.85870018005372 L 100.6 138.1 L 86.2 151.5 L 70.4 163.4 L 53.1 173.8 L 34.4 182.6 L 14.3 189.8 L 13.6 188.1 L 32.8 179.2 L 50.4 169.1 L 66.6 158.0 L 81.2 145.8 L 94.3 132.3 L 98.92836971282959 126.52442750930786 L 93.0 117.6 L 85.5 102.4 L 79.8 86.0 L 76.0 68.6 L 75.04592475891113 58.74122257232666 L 70.7 68.2 L 65.1 78.7 L 59.0 88.5 L 52.3 97.7 L 45.0 106.1 L 37.1 113.8 L 28.6 120.6 L 27.3 119.3 L 34.3 111.1 L 40.8 102.7 L 46.9 93.8 L 52.5 84.5 L 57.7 74.7 L 62.3 64.4 L 66.4 53.5 L 70.1 42.1 L 73.2 30.2 L 75.9 17.7 L 75.91366024017334 17.702918815612794 L 76.3 15.9 L 87.6 20.2 L 90.1 22.8 L 86.61403675079346 23.940860748291016 L 84.2 33.1 L 80.3 45.4 L 80.0692307472229 46.0 L 138.0 46.0 L 144.0 41.0 L 155.0 50.0 L 150.0 53.0 L 148.32847061157227 53.69647054672241 L 143.0 70.0 L 134.6 89.2 L 124.8 106.9 L 113.4 123.2 L 110.4285490989685 126.6589545249939 L 120.5 137.1 L 132.9 147.3 L 146.8 156.3 L 162.2 164.1 L 179.2 170.7 L 186.2 173.3 L 174.7 183.2 L 156.9 175.4 Z M 78.5307692527771 50.0 L 76.9733193397522 54.049369716644286 L 80.1 67.7 L 85.4 84.2 L 92.1 99.3 L 100.1 113.2 L 104.70822381973267 119.31196002960205 L 106.0 117.7 L 116.2 101.7 L 124.9 84.6 L 132.3 66.1 L 137.12182741165162 50.0 Z " />
</g>
</svg>
