<svg xmlns="http://www.w3.org/2000/svg" xmlns:xlink="http://www.w3.org/1999/xlink" version="1.1" baseProfile="full" viewBox="0 0 200 200" width="200" height="200">
<g fill="black">
<path d="M 101.7 110.7 L 98.8 106.4 L 95.3 102.1 L 91.5 97.8 L 87.1 93.4 L 82.3 89.0 L 77.1 84.6 L 71.4 80.0 L 67.1114649772644 76.569172000885 L 63.3 81.0 L 54.6 89.9 L 45.3 98.3 L 35.3 106.2 L 24.5 113.7 L 23.4 112.2 L 32.8 103.4 L 41.6 94.4 L 49.9 85.3 L 57.5 76.1 L 64.5 66.6 L 70.8 57.0 L 76.6 47.0 L 81.7 36.9 L 86.1 26.5 L 89.66275072097778 16.816626262664794 L 89.6 16.8 L 90.5 14.4 L 101.3 19.9 L 103.4 22.8 L 99.77593803405762 23.49938039779663 L 96.6 31.0 L 91.3 41.7 L 90.5375 43.0 L 159.0 43.0 L 165.0 38.0 L 176.0 47.0 L 171.0 50.0 L 169.2912691116333 50.71197118759155 L 163.3 68.2 L 154.2 88.2 L 143.5 106.6 L 131.1 123.4 L 117.2 138.4 L 101.7 151.8 L 84.6 163.5 L 66.0 173.4 L 45.8 181.5 L 24.2 187.8 L 23.7 186.1 L 44.5 178.0 L 63.6 168.6 L 81.1 158.0 L 96.9 145.9 L 111.2 132.5 L 123.9 117.6 L 135.0 101.2 L 144.6 83.4 L 152.6 64.1 L 158.0259614944458 47.0 L 88.19134616851807 47.0 L 85.2 52.1 L 78.6 62.1 L 71.3 71.7 L 68.68412418365479 74.7409556388855 L 73.4 76.8 L 80.1 80.1 L 86.2 83.8 L 91.9 87.6 L 97.2 91.5 L 102.0 95.6 L 106.4 99.9 L 110.3 104.3 L 113.8 108.8 L 116.9 113.5 L 117.2 118.1 L 114.3 121.6 L 109.8 122.0 L 106.2 119.1 L 104.2 114.9 Z " />
</g>
</svg>
