<svg xmlns="http://www.w3.org/2000/svg" xmlns:xlink="http://www.w3.org/1999/xlink" version="1.1" baseProfile="full" viewBox="0 0 200 200" width="200" height="200">
<g fill="black">
<path d="M 141.3 169.2 L 132.5 161.9 L 123.4 155.1 L 113.8 148.6 L 112.28097248077393 147.68858346939086 L 109.7 150.5 L 96.4 161.0 L 81.1 169.9 L 63.7 177.2 L 44.4 182.9 L 23.1 186.8 L 22.8 185.1 L 43.4 179.2 L 61.8 172.3 L 77.9 164.2 L 91.9 154.9 L 103.7 144.4 L 104.73570604324341 143.1614236831665 L 103.8 142.6 L 93.4 137.0 L 82.5 131.8 L 71.3 126.8 L 63.21556053161621 123.52440814971924 L 57.4 138.2 L 44.0 139.3 L 69.0678087234497 76.0 L 14.0 76.0 L 14.0 72.0 L 70.65187253952027 72.0 L 93.7 13.8 L 104.2 20.1 L 106.2 23.1 L 102.73116369247437 23.806614780426024 L 83.63336153030396 72.0 L 164.0 72.0 L 174.0 62.0 L 186.0 72.0 L 186.0 76.0 L 143.67582416534424 76.0 L 141.5 92.5 L 136.8 109.3 L 130.0 124.6 L 120.9 138.3 L 118.13000822067261 141.31731243133544 L 128.5 147.3 L 138.5 153.8 L 148.1 160.9 L 157.3 168.5 L 166.1 176.6 L 167.8 180.9 L 166.0 185.1 L 161.8 186.7 L 157.6 185.0 L 149.6 176.9 Z M 82.04826421737671 76.0 L 64.10171432495117 121.28819513320923 L 72.5 123.2 L 84.5 126.8 L 96.1 131.0 L 107.3 135.9 L 109.77355623245239 137.13677806854247 L 113.4 132.8 L 121.0 119.9 L 126.7 105.8 L 130.3 90.4 L 131.7048780441284 76.0 Z " />
</g>
</svg>
