<svg xmlns="http://www.w3.org/2000/svg" xmlns:xlink="http://www.w3.org/1999/xlink" version="1.1" baseProfile="full" viewBox="0 0 200 200" width="200" height="200">
<g fill="black">
<path d="M 70.0 176.0 L 90.0 176.0 L 91.2 175.9 L 92.1 175.7 L 93.0 175.4 L 93.4 175.0 L 93.7 174.1 L 93.9 173.2 L 94.0 172.0 L 94.0 104.0 L 14.0 104.0 L 14.0 100.0 L 94.0 100.0 L 94.0 71.0 L 106.0 73.0 L 106.08639240264893 73.05759496688843 L 107.3 71.7 L 112.9 65.5 L 118.2 59.7 L 123.1 54.2 L 127.7 49.0 L 131.8 44.1 L 135.5 39.5 L 138.8 35.2 L 140.3949999809265 33.0 L 40.0 33.0 L 40.0 29.0 L 143.0 29.0 L 143.18888893127442 28.842592620849608 L 144.1 27.4 L 144.53655319213868 27.719538974761964 L 149.0 24.0 L 160.0 33.0 L 155.0 36.0 L 151.09577465057373 37.62676057815552 L 150.6 38.2 L 147.0 42.1 L 143.0 46.2 L 138.6 50.5 L 133.7 54.9 L 128.5 59.6 L 122.7 64.4 L 116.5 69.4 L 109.8 74.5 L 106.0 77.1547945022583 L 106.0 100.0 L 164.0 100.0 L 174.0 90.0 L 186.0 100.0 L 186.0 104.0 L 106.0 104.0 L 106.0 172.0 L 105.8 174.5 L 105.4 177.0 L 104.6 179.4 L 103.3 181.7 L 101.7 183.7 L 99.7 185.3 L 97.4 186.6 L 95.0 187.4 L 92.5 187.8 L 90.0 188.0 L 90.0 182.0 L 70.0 179.0 Z " />
</g>
</svg>
