<svg xmlns="http://www.w3.org/2000/svg" xmlns:xlink="http://www.w3.org/1999/xlink" version="1.1" baseProfile="full" viewBox="0 0 200 200" width="200" height="200">
<g fill="black">
<path d="M 32.5 88.1 L 32.1 94.2 L 31.4 99.8 L 30.3 105.0 L 28.7 109.7 L 26.7 114.0 L 24.1 117.9 L 21.0 121.3 L 16.6 122.5 L 12.6 120.4 L 11.4 116.0 L 13.5 111.9 L 15.6 110.4 L 17.7 108.2 L 19.6 105.4 L 21.5 101.9 L 23.2 97.7 L 24.7 92.8 L 26.0 87.3 L 27.1 81.2 L 28.1 74.5 L 29.1 67.1 L 30.9 67.0 L 31.9 74.5 L 32.380000019073485 80.1 L 94.0 80.1 L 94.0 47.9 L 106.0 49.9 L 109.0 51.9 L 106.0 53.7 L 106.0 80.1 L 171.0 80.1 L 171.45945949554442 79.71711711883545 L 171.5 79.6 L 171.56449699401855 79.62958583831787 L 177.0 75.1 L 188.0 84.1 L 183.0 87.1 L 180.0 88.35 L 178.9 90.0 L 176.9 92.9 L 174.7 95.9 L 172.4 99.1 L 169.9 102.4 L 167.2 105.8 L 164.2 109.4 L 161.0 113.0 L 157.7 116.8 L 156.2 115.8 L 158.4 111.3 L 160.2 106.9 L 162.1 102.7 L 163.9 98.8 L 165.5 95.1 L 167.0 91.5 L 168.4 88.2 L 169.6 85.1 L 169.9448275566101 84.1 L 32.5 84.1 Z " />
</g>
</svg>
