<svg xmlns="http://www.w3.org/2000/svg" xmlns:xlink="http://www.w3.org/1999/xlink" version="1.1" baseProfile="full" viewBox="0 0 200 200" width="200" height="200">
<g fill="black">
<path d="M 56.0 32.0 L 156.0 32.0 L 162.0 27.0 L 173.0 36.0 L 168.0 40.0 L 168.0 86.0 L 156.0 92.0 L 156.0 80.0 L 56.0 80.0 L 56.0 91.0 L 55.3 103.6 L 54.0 115.6 L 52.0 127.0 L 49.3 137.8 L 46.0 148.0 L 41.9 157.6 L 37.2 166.5 L 31.7 174.6 L 25.5 182.0 L 18.6 188.6 L 17.3 187.3 L 22.5 179.7 L 27.2 171.7 L 31.4 163.4 L 34.9 154.6 L 37.9 145.4 L 40.3 135.6 L 42.1 125.3 L 43.3 114.4 L 43.9 103.0 L 44.0 91.0 L 44.0 26.0 Z M 56.0 36.0 L 56.0 76.0 L 156.0 76.0 L 156.0 36.0 Z " />
</g>
</svg>
