<svg xmlns="http://www.w3.org/2000/svg" xmlns:xlink="http://www.w3.org/1999/xlink" version="1.1" baseProfile="full" viewBox="0 0 200 200" width="200" height="200">
<g fill="black">
<path d="M 138.0 145.0 L 152.0 145.0 L 153.2 144.9 L 154.1 144.7 L 155.0 144.4 L 155.4 144.0 L 155.7 143.1 L 155.9 142.2 L 156.0 141.0 L 156.0 52.0 L 106.0 52.0 L 106.0 181.0 L 94.0 187.0 L 94.0 52.0 L 44.0 52.0 L 44.0 152.0 L 32.0 158.0 L 32.0 42.0 L 44.0 48.0 L 94.0 48.0 L 94.0 16.0 L 106.0 18.0 L 109.0 20.0 L 106.0 21.8 L 106.0 48.0 L 156.0 48.0 L 162.0 43.0 L 173.0 52.0 L 168.0 56.0 L 168.0 141.0 L 167.8 143.5 L 167.4 146.0 L 166.6 148.4 L 165.3 150.7 L 163.7 152.7 L 161.7 154.3 L 159.4 155.6 L 157.0 156.4 L 154.5 156.8 L 152.0 157.0 L 152.0 151.0 L 138.0 148.0 Z " />
</g>
</svg>
