<svg xmlns="http://www.w3.org/2000/svg" xmlns:xlink="http://www.w3.org/1999/xlink" version="1.1" baseProfile="full" viewBox="0 0 200 200" width="200" height="200">
<g fill="black">
<path d="M 76.0 118.4 L 74.3 129.9 L 71.7 140.6 L 68.3 150.4 L 64.0 159.3 L 58.9 167.3 L 52.9 174.3 L 46.2 180.3 L 38.6 185.1 L 30.4 188.8 L 29.5 187.1 L 36.5 182.0 L 42.6 176.3 L 48.0 170.0 L 52.5 163.1 L 56.4 155.6 L 59.5 147.2 L 62.0 138.1 L 63.7 128.2 L 64.7 117.4 L 65.0 105.9 L 65.0 94.0 L 19.0 94.0 L 19.0 90.0 L 65.0 90.0 L 65.0 20.0 L 77.0 22.0 L 80.0 24.0 L 77.0 25.8 L 77.0 90.0 L 123.0 90.0 L 123.0 20.0 L 135.0 22.0 L 138.0 24.0 L 135.0 25.8 L 135.0 90.0 L 160.0 90.0 L 170.0 80.0 L 182.0 90.0 L 182.0 94.0 L 135.0 94.0 L 135.0 180.0 L 123.0 186.0 L 123.0 94.0 L 77.0 94.0 L 77.0 106.0 L 76.88778276443482 106.16832580566407 Z " />
</g>
</svg>
