<svg xmlns="http://www.w3.org/2000/svg" xmlns:xlink="http://www.w3.org/1999/xlink" version="1.1" baseProfile="full" viewBox="0 0 200 200" width="200" height="200">
<g fill="black">
<path d="M 144.9 171.2 L 133.4 160.5 L 123.2 147.4 L 114.1 131.9 L 106.2 114.0 L 99.3 93.8 L 95.06003904342651 76.9145414352417 L 18.2 84.9 L 17.7 81.0 L 94.09293003082276 73.06307220458984 L 93.6 71.1 L 88.8 46.1 L 85.23366260528564 19.593438625335693 L 85.2 19.6 L 85.11149072647095 18.685403728485106 L 85.1 18.6 L 85.10319204330445 18.59965124130249 L 84.9 16.5 L 97.0 17.3 L 100.2 18.9 L 97.50967454910278 21.005472087860106 L 100.7 44.2 L 105.3 68.5 L 106.14658308029175 71.81074457168579 L 149.83870649337769 67.27130317687988 L 158.8 56.3 L 171.7 65.0 L 172.2 68.9 L 107.13097448349 75.66041822433472 L 110.9 90.4 L 117.4 109.7 L 124.8 126.5 L 133.1 140.7 L 142.3 152.4 L 152.2 161.7 L 163.0 168.6 L 167.80631837844848 170.50595378875732 L 173.0 148.0 L 175.0 148.0 L 173.1070785522461 172.60797939300537 L 174.6 173.2 L 178.1 176.1 L 178.7 180.6 L 175.8 184.1 L 171.3 184.7 L 157.5 179.3 Z M 139.3 44.2 L 137.3 41.2 L 135.0 38.2 L 132.4 35.2 L 129.5 32.3 L 126.2 29.3 L 122.6 26.3 L 118.7 23.2 L 114.5 20.2 L 115.2 18.6 L 120.3 20.3 L 125.1 22.1 L 129.6 24.2 L 133.8 26.5 L 137.7 29.0 L 141.3 31.8 L 144.7 34.6 L 147.7 37.7 L 150.4 41.0 L 152.9 44.5 L 153.2 49.1 L 150.3 52.6 L 145.8 53.0 L 142.2 50.1 L 140.9 47.1 Z " />
</g>
</svg>
