<svg xmlns="http://www.w3.org/2000/svg" xmlns:xlink="http://www.w3.org/1999/xlink" version="1.1" baseProfile="full" viewBox="0 0 200 200" width="200" height="200">
<g fill="black">
<path d="M 72.0 176.0 L 92.0 176.0 L 93.2 175.9 L 94.1 175.7 L 95.0 175.4 L 95.4 175.0 L 95.7 174.1 L 95.9 173.2 L 96.0 172.0 L 96.0 122.0 L 15.0 122.0 L 15.0 118.0 L 96.0 118.0 L 96.0 80.0 L 26.0 80.0 L 26.0 76.0 L 96.0 76.0 L 96.0 40.61322317123413 L 95.5 40.7 L 83.0 42.5 L 70.2 44.1 L 56.9 45.4 L 43.2 46.3 L 29.0 46.8 L 28.9 45.1 L 42.7 42.6 L 56.2 40.1 L 69.2 37.6 L 81.7 35.1 L 93.9 32.4 L 105.6 29.5 L 116.9 26.5 L 127.7 23.4 L 138.1 20.1 L 147.20553159713745 16.91306390762329 L 147.2 16.9 L 147.21241216659547 16.910655784606934 L 148.1 16.6 L 148.60088109970093 18.10264320373535 L 157.8 26.0 L 158.1 29.1 L 153.99610223770142 27.289456844329834 L 151.9 28.0 L 141.4 31.0 L 130.6 33.7 L 119.3 36.3 L 108.0 38.52136754989624 L 108.0 76.0 L 152.0 76.0 L 162.0 66.0 L 174.0 76.0 L 174.0 80.0 L 108.0 80.0 L 108.0 118.0 L 163.0 118.0 L 173.0 108.0 L 185.0 118.0 L 185.0 122.0 L 108.0 122.0 L 108.0 172.0 L 107.8 174.5 L 107.4 177.0 L 106.6 179.4 L 105.3 181.7 L 103.7 183.7 L 101.7 185.3 L 99.4 186.6 L 97.0 187.4 L 94.5 187.8 L 92.0 188.0 L 92.0 182.0 L 72.0 179.0 Z " />
</g>
</svg>
