<svg xmlns="http://www.w3.org/2000/svg" xmlns:xlink="http://www.w3.org/1999/xlink" version="1.1" baseProfile="full" viewBox="0 0 200 200" width="200" height="200">
<g fill="black">
<path d="M 96.4 177.8 L 93.9 177.4 L 91.5 176.6 L 89.2 175.3 L 87.2 173.7 L 85.6 171.7 L 84.3 169.4 L 83.5 167.0 L 83.1 164.5 L 83.0 162.0 L 83.0 124.25421686172486 L 16.2 131.9 L 15.7 128.0 L 83.0 120.29698791503907 L 83.0 84.55 L 24.2 91.9 L 23.7 88.0 L 83.0 80.5875 L 83.0 46.72992124557495 L 78.6 47.7 L 65.6 50.2 L 52.1 52.4 L 38.3 54.3 L 24.1 55.8 L 23.8 54.1 L 37.6 50.6 L 51.1 47.2 L 64.1 43.8 L 76.8 40.3 L 89.1 36.7 L 101.0 33.0 L 112.6 29.1 L 123.7 25.1 L 134.5 21.0 L 144.8 16.7 L 145.5168740272522 18.524770164489745 L 154.0 26.0 L 154.2 29.2 L 150.20138568878173 27.503618144989012 L 149.2 27.9 L 138.4 31.7 L 127.2 35.3 L 115.6 38.7 L 103.6 41.9 L 95.0 43.99756097793579 L 95.0 79.0875 L 145.79389867782592 72.73826265335083 L 154.6 61.5 L 167.7 70.0 L 168.2 73.9 L 95.0 83.05 L 95.0 118.92349395751953 L 159.8529306411743 111.50056819915771 L 168.7 100.4 L 181.7 109.0 L 182.2 112.9 L 95.0 122.88072290420533 L 95.0 163.2 L 95.2 164.1 L 95.5 165.0 L 95.9 165.4 L 96.8 165.7 L 97.7 165.9 L 99.0 166.0 L 171.0 166.0 L 177.0 141.0 L 179.0 141.0 L 177.0 166.0 L 180.6 168.4 L 183.0 172.0 L 180.6 175.6 L 177.0 178.0 L 99.0 178.0 Z " />
</g>
</svg>
