<svg xmlns="http://www.w3.org/2000/svg" xmlns:xlink="http://www.w3.org/1999/xlink" version="1.1" baseProfile="full" viewBox="0 0 200 200" width="200" height="200">
<g fill="black">
<path d="M 146.3 165.9 L 135.1 154.8 L 125.6 142.1 L 117.8 127.8 L 111.5 112.0 L 106.9 94.7 L 103.9 75.9 L 102.95795640945434 61.262092208862306 L 101.9 70.2 L 97.2 92.6 L 90.7 112.9 L 82.5 130.9 L 72.4 146.7 L 60.7 160.1 L 47.2 171.2 L 32.0 179.8 L 15.2 185.8 L 14.7 184.1 L 30.2 176.4 L 43.9 166.9 L 55.9 155.5 L 66.3 142.3 L 74.9 127.0 L 82.0 109.7 L 87.4 90.2 L 91.2 68.6 L 93.4 44.9 L 94.0 19.0 L 94.0 16.6 L 106.0 19.0 L 109.0 21.0 L 105.82448034286499 22.90531177520752 L 105.18272476196289 37.18437376022339 L 106.8 55.4 L 109.7 75.1 L 113.9 93.0 L 116.87728462219238 101.76945657730103 L 119.7 99.0 L 125.0 94.0 L 130.2 89.0 L 135.3 84.1 L 140.2 79.2 L 145.0 74.3 L 149.7 69.4 L 154.2 64.5 L 158.6 59.6 L 162.20722522735596 55.405552005767824 L 162.2 55.4 L 162.4222222328186 55.15555553436279 L 162.9 54.6 L 162.91484813690187 54.613667011260986 L 163.2 54.3 L 171.7 62.7 L 172.5 66.3 L 168.81660652160645 65.52454872131348 L 166.8 67.5 L 161.8 72.1 L 156.7 76.7 L 151.3 81.2 L 145.8 85.6 L 140.2 89.9 L 134.3 94.1 L 128.3 98.2 L 122.0 102.0 L 117.77254276275634 104.40639877319336 L 119.4 109.2 L 126.1 123.6 L 134.1 136.3 L 143.3 147.3 L 153.8 156.7 L 165.5 164.6 L 178.6 170.9 L 184.8 173.6 L 173.3 183.0 L 159.0 175.3 Z M 27.4 116.5 L 26.7 112.0 L 29.3 108.3 L 33.4 105.6 L 37.2 102.4 L 40.6 98.6 L 43.7 94.0 L 46.4 88.8 L 48.7 82.9 L 50.5 76.3 L 52.0 68.9 L 53.2 60.8 L 54.1 52.0 L 55.9 51.9 L 57.0 60.9 L 57.4 69.3 L 57.0 77.3 L 56.0 84.8 L 54.3 91.8 L 52.0 98.2 L 49.0 104.2 L 45.2 109.5 L 40.8 114.3 L 35.7 118.4 L 31.2 119.1 Z " />
</g>
</svg>
