<svg xmlns="http://www.w3.org/2000/svg" xmlns:xlink="http://www.w3.org/1999/xlink" version="1.1" baseProfile="full" viewBox="0 0 200 200" width="200" height="200">
<g fill="black">
<path d="M 40.0 115.0 L 40.0 111.0 L 133.0 111.0 L 133.0 74.0 L 75.0 74.0 L 75.0 86.0 L 63.0 92.0 L 63.0 23.0 L 75.0 25.0 L 78.0 27.0 L 75.0 28.8 L 75.0 70.0 L 133.0 70.0 L 133.0 16.0 L 145.0 18.0 L 148.0 20.0 L 145.0 21.8 L 145.0 181.0 L 133.0 187.0 L 133.0 115.0 L 80.0 115.0 L 80.0 124.0 L 79.3 132.4 L 78.1 140.4 L 76.2 148.0 L 73.7 155.2 L 70.6 162.0 L 66.8 168.2 L 62.4 174.0 L 57.4 179.2 L 51.7 183.8 L 45.5 187.7 L 44.4 186.2 L 49.2 181.0 L 53.4 175.6 L 57.1 170.1 L 60.2 164.4 L 62.8 158.4 L 64.9 152.2 L 66.5 145.6 L 67.5 138.8 L 68.0 131.5 L 68.0 115.0 Z " />
</g>
</svg>
