<svg xmlns="http://www.w3.org/2000/svg" xmlns:xlink="http://www.w3.org/1999/xlink" version="1.1" baseProfile="full" viewBox="0 0 200 200" width="200" height="200">
<g fill="black">
<path d="M 14.0 169.0 L 94.0 169.0 L 94.0 103.0 L 33.0 103.0 L 33.0 99.0 L 94.0 99.0 L 94.0 34.0 L 24.0 34.0 L 24.0 30.0 L 154.0 30.0 L 164.0 20.0 L 176.0 30.0 L 176.0 34.0 L 106.0 34.0 L 106.0 99.0 L 145.0 99.0 L 155.0 89.0 L 167.0 99.0 L 167.0 103.0 L 106.0 103.0 L 106.0 169.0 L 164.0 169.0 L 174.0 159.0 L 186.0 169.0 L 186.0 173.0 L 14.0 173.0 Z M 148.8 144.7 L 146.3 140.9 L 143.6 137.2 L 140.8 133.6 L 137.8 130.1 L 134.6 126.7 L 131.3 123.2 L 127.9 119.7 L 124.3 116.2 L 125.3 114.7 L 130.0 116.8 L 134.5 119.1 L 138.8 121.7 L 142.9 124.6 L 146.7 127.7 L 150.5 131.1 L 154.0 134.6 L 157.4 138.3 L 160.5 142.2 L 163.5 146.3 L 164.2 150.8 L 161.5 154.5 L 157.0 155.2 L 153.3 152.5 L 151.1 148.5 Z " />
</g>
</svg>
