<svg xmlns="http://www.w3.org/2000/svg" xmlns:xlink="http://www.w3.org/1999/xlink" version="1.1" baseProfile="full" viewBox="0 0 200 200" width="200" height="200">
<g fill="black">
<path d="M 149.0 18.0 L 152.0 20.0 L 149.0 21.8 L 149.0 53.0 L 165.0 53.0 L 175.0 43.0 L 187.0 53.0 L 187.0 57.0 L 149.0 57.0 L 149.0 176.0 L 137.0 182.0 L 137.0 170.0 L 63.0 170.0 L 63.0 182.0 L 51.0 188.0 L 51.0 57.0 L 13.0 57.0 L 13.0 53.0 L 51.0 53.0 L 51.0 16.0 L 63.0 18.0 L 66.0 20.0 L 63.0 21.8 L 63.0 53.0 L 137.0 53.0 L 137.0 16.0 Z M 63.0 111.0 L 63.0 166.0 L 137.0 166.0 L 137.0 111.0 Z M 63.0 57.0 L 63.0 107.0 L 137.0 107.0 L 137.0 57.0 Z " />
</g>
</svg>
