<svg xmlns="http://www.w3.org/2000/svg" xmlns:xlink="http://www.w3.org/1999/xlink" version="1.1" baseProfile="full" viewBox="0 0 200 200" width="200" height="200">
<g fill="black">
<path d="M 105.0 60.0 L 100.0 63.0 L 97.43571424484253 64.06845235824585 L 93.4 71.4 L 86.9 81.8 L 79.7 91.6 L 71.9 100.8 L 63.5 109.4 L 54.5 117.4 L 44.9 124.8 L 34.7 131.5 L 23.8 137.5 L 12.4 142.7 L 11.5 141.2 L 21.9 134.3 L 31.6 127.1 L 40.8 119.6 L 49.4 111.8 L 57.4 103.5 L 64.8 94.8 L 71.6 85.6 L 77.8 76.0 L 83.5 65.9 L 86.30952377319336 60.0 L 33.0 60.0 L 33.0 56.0 L 88.0 56.0 L 88.35526313781739 55.703947353363034 L 88.5 55.4 L 88.64089307785034 55.46592245101929 L 94.0 51.0 Z M 157.7 123.8 L 148.2 116.3 L 139.6 108.2 L 131.8 99.5 L 124.8 90.2 L 118.8 80.3 L 113.6 69.9 L 109.4 58.8 L 106.4 47.2 L 108.1 46.6 L 113.3 57.2 L 118.9 67.2 L 124.9 76.5 L 130.59625549316405 84.008700466156 L 131.3 83.0 L 134.0 78.7 L 136.6 74.8 L 139.1 71.0 L 141.5 67.5 L 143.7 64.3 L 145.7 61.2 L 147.5 58.3 L 149.1 55.6 L 150.11621389389038 53.974057865142825 L 150.0 53.9 L 151.0 52.5 L 160.2 60.4 L 161.4 63.8 L 157.17320261001586 63.362745094299314 L 155.7 64.9 L 153.2 67.4 L 150.5 70.0 L 147.6 72.8 L 144.5 75.7 L 141.2 78.7 L 137.6 81.9 L 133.7 85.1 L 132.40566711425782 86.20491828918458 L 138.8 93.3 L 146.6 100.8 L 146.8605673789978 101.00905981063843 L 147.2 100.6 L 150.9 96.1 L 154.4 92.0 L 157.6 88.2 L 160.7 84.7 L 163.4 81.4 L 165.9 78.3 L 168.2 75.5 L 170.2 73.0 L 171.2736653327942 71.45660600662231 L 171.2 71.4 L 171.6814814567566 70.870370388031 L 171.8 70.7 L 171.82001123428344 70.71798763275146 L 172.2 70.3 L 180.7 78.7 L 181.6 82.2 L 177.55077924728394 81.41857147216797 L 175.8 82.9 L 173.0 85.3 L 169.8 87.9 L 166.4 90.6 L 162.7 93.5 L 158.7 96.6 L 154.3 99.8 L 149.6 103.1 L 149.52879257202147 103.14984521865844 L 155.2 107.7 L 164.4 114.1 L 174.2 119.8 L 184.8 125.0 L 190.4 127.7 L 179.1 136.9 L 168.0 130.7 Z M 45.8 94.9 L 43.9 92.1 L 41.9 89.3 L 39.7 86.6 L 37.3 84.1 L 34.8 81.5 L 32.2 79.0 L 29.5 76.5 L 26.4 74.2 L 27.2 72.6 L 34.6 75.2 L 38.2 76.8 L 41.6 78.7 L 44.9 80.7 L 48.0 83.0 L 51.0 85.5 L 53.9 88.2 L 56.7 91.1 L 59.3 94.1 L 60.1 98.6 L 57.6 102.4 L 53.1 103.3 L 49.3 100.8 L 47.6 97.8 Z " />
</g>
</svg>
