<svg xmlns="http://www.w3.org/2000/svg" xmlns:xlink="http://www.w3.org/1999/xlink" version="1.1" baseProfile="full" viewBox="0 0 200 200" width="200" height="200">
<g fill="black">
<path d="M 186.0 32.0 L 186.0 36.0 L 94.64057970046997 36.0 L 90.4 49.3 L 85.1 62.5 L 79.0 75.1 L 72.2 87.0 L 67.41052627563477 94.0 L 152.0 94.0 L 158.0 89.0 L 169.0 98.0 L 164.0 102.0 L 164.0 174.0 L 152.0 180.0 L 152.0 168.0 L 66.0 168.0 L 66.0 180.0 L 54.0 186.0 L 54.0 111.06344089508056 L 46.6 119.1 L 36.4 128.4 L 25.3 136.9 L 13.5 144.7 L 12.4 143.2 L 23.0 134.0 L 32.7 124.5 L 41.7 114.6 L 50.0 104.3 L 54.0 98.53999996185303 L 54.0 98.0 L 54.375 98.0 L 57.5 93.5 L 64.1 82.3 L 70.1 70.6 L 75.2 58.4 L 79.5 45.7 L 82.07008543014527 36.0 L 14.0 36.0 L 14.0 32.0 L 164.0 32.0 L 174.0 22.0 Z M 66.0 164.0 L 152.0 164.0 L 152.0 98.0 L 66.0 98.0 Z " />
</g>
</svg>
