<svg xmlns="http://www.w3.org/2000/svg" xmlns:xlink="http://www.w3.org/1999/xlink" version="1.1" baseProfile="full" viewBox="0 0 200 200" width="200" height="200">
<g fill="black">
<path d="M 79.4 106.9 L 81.8 109.6 L 78.12733364105225 110.56649112701416 L 75.2 119.0 L 70.5 130.3 L 65.1 140.7 L 59.2 150.3 L 52.8 159.1 L 45.8 166.9 L 38.2 173.8 L 30.1 179.7 L 21.5 184.6 L 12.3 188.4 L 11.6 186.8 L 19.5 181.4 L 26.9 175.5 L 33.8 169.0 L 40.1 161.8 L 46.0 154.0 L 51.3 145.4 L 56.2 136.1 L 60.6 126.0 L 64.5 115.2 L 67.60887699127197 104.50180549621582 L 67.6 104.5 L 67.7692307472229 103.95 L 67.9 103.5 L 67.90705089569092 103.50208463668824 L 68.4 101.9 Z M 158.2 172.7 L 150.2 164.5 L 143.2 155.5 L 137.2 145.7 L 132.2 135.0 L 128.1 123.5 L 125.0 111.2 L 123.0 98.2 L 122.25179853439332 85.2 L 64.0 85.2 L 64.0 81.2 L 118.3 81.2 L 123.1 77.2 L 134.1 86.2 L 129.1 89.2 L 125.59696969985961 90.9515151977539 L 127.1 97.4 L 130.7 109.7 L 134.9 121.1 L 139.7 131.5 L 145.2 140.9 L 151.4 149.4 L 158.3 157.0 L 165.8 163.7 L 174.1 169.5 L 183.1 174.5 L 188.1 177.2 L 176.8 186.2 L 167.0 179.9 Z M 32.5 55.6 L 32.1 61.8 L 31.4 67.6 L 30.3 72.9 L 28.7 77.7 L 26.7 82.2 L 24.2 86.1 L 21.1 89.6 L 16.7 90.9 L 12.6 88.8 L 11.4 84.4 L 13.4 80.3 L 15.5 78.7 L 17.6 76.4 L 19.6 73.5 L 21.5 69.8 L 23.2 65.5 L 24.7 60.5 L 26.0 54.9 L 27.1 48.5 L 28.1 41.6 L 29.1 34.0 L 30.9 33.9 L 31.9 41.6 L 32.39166669845581 47.5 L 94.0 47.5 L 94.0 14.4 L 106.0 16.4 L 109.0 18.4 L 106.0 20.2 L 106.0 47.5 L 171.0 47.5 L 171.4615385055542 47.115384578704834 L 171.5 47.0 L 171.5649582862854 47.029201412200926 L 177.0 42.5 L 188.0 51.5 L 183.0 54.5 L 180.06403160095215 55.723320198059085 L 178.9 57.5 L 176.9 60.5 L 174.8 63.6 L 172.4 66.8 L 169.9 70.2 L 167.2 73.8 L 164.3 77.4 L 161.0 81.2 L 157.7 85.1 L 156.2 84.2 L 158.3 79.5 L 160.2 75.0 L 162.1 70.7 L 163.8 66.7 L 165.5 62.9 L 167.0 59.3 L 168.3 55.9 L 169.5 52.7 L 169.93999996185303 51.5 L 32.5 51.5 Z M 123.0 84.21111106872559 L 123.1 84.2 L 123.0 84.16666669845581 Z " />
</g>
</svg>
