<svg xmlns="http://www.w3.org/2000/svg" xmlns:xlink="http://www.w3.org/1999/xlink" version="1.1" baseProfile="full" viewBox="0 0 200 200" width="200" height="200">
<g fill="black">
<path d="M 137.0 175.0 L 157.0 175.0 L 158.2 174.9 L 159.1 174.7 L 160.0 174.4 L 160.4 174.0 L 160.7 173.1 L 160.9 172.2 L 161.0 171.0 L 161.0 71.0 L 128.0 71.0 L 128.0 177.0 L 116.0 183.0 L 116.0 71.0 L 83.0 71.0 L 83.0 177.0 L 71.0 183.0 L 71.0 71.0 L 40.0 71.0 L 40.0 181.0 L 28.0 187.0 L 28.0 61.0 L 40.0 67.0 L 78.0 67.0 L 80.3 62.4 L 82.5 58.4 L 86.7 50.2 L 90.7 41.8 L 92.7 37.4 L 94.65555553436279 33.0 L 19.0 33.0 L 19.0 29.0 L 163.0 29.0 L 173.0 19.0 L 185.0 29.0 L 185.0 33.0 L 107.68000001907349 33.0 L 107.4 33.5 L 104.8 38.0 L 102.1 42.4 L 99.4 46.6 L 96.6 50.7 L 93.7 54.7 L 90.8 58.4 L 87.7 62.0 L 84.5 65.4 L 82.8 67.0 L 161.0 67.0 L 167.0 62.0 L 178.0 71.0 L 173.0 75.0 L 173.0 171.0 L 172.8 173.5 L 172.4 176.0 L 171.6 178.4 L 170.3 180.7 L 168.7 182.7 L 166.7 184.3 L 164.4 185.6 L 162.0 186.4 L 159.5 186.8 L 157.0 187.0 L 157.0 181.0 L 137.0 178.0 Z " />
</g>
</svg>
