<svg xmlns="http://www.w3.org/2000/svg" xmlns:xlink="http://www.w3.org/1999/xlink" version="1.1" baseProfile="full" viewBox="0 0 200 200" width="200" height="200">
<g fill="black">
<path d="M 21.3 149.9 L 32.7 148.9 L 45.1 147.8 L 51.0 147.27941179275513 L 51.0 37.0 L 20.0 37.0 L 20.0 33.0 L 158.0 33.0 L 168.0 23.0 L 180.0 33.0 L 180.0 37.0 L 145.0 37.0 L 145.0 138.440394115448 L 163.5 136.8 L 184.8 135.1 L 185.1 136.8 L 163.9 140.6 L 145.0 143.71850004196168 L 145.0 183.0 L 133.0 189.0 L 133.0 145.62105264663697 L 124.9 146.9 L 107.0 149.6 L 90.2 152.1 L 74.5 154.4 L 59.9 156.6 L 46.4 158.5 L 33.9 160.2 L 26.63860378265381 161.22816228866577 L 24.9 164.6 L 22.6 161.8 L 19.3 150.1 Z M 63.0 110.0 L 63.0 146.19047622680665 L 73.4 145.2 L 89.2 143.7 L 106.1 142.1 L 124.1 140.4 L 133.0 139.56125650405883 L 133.0 110.0 Z M 63.0 74.0 L 63.0 106.0 L 133.0 106.0 L 133.0 74.0 Z M 63.0 37.0 L 63.0 70.0 L 133.0 70.0 L 133.0 37.0 Z " />
</g>
</svg>
