<svg xmlns="http://www.w3.org/2000/svg" xmlns:xlink="http://www.w3.org/1999/xlink" version="1.1" baseProfile="full" viewBox="0 0 200 200" width="200" height="200">
<g fill="black">
<path d="M 106.4 17.6 L 108.7 20.4 L 104.75084743499755 21.387288093566895 L 103.6 24.1 L 102.0 27.3 L 100.3 30.5 L 98.5 33.7 L 96.6 36.9 L 94.6 40.0 L 92.4 43.2 L 90.0 46.2 L 89.353125 47.1 L 148.0 47.1 L 154.0 42.1 L 165.0 51.1 L 160.0 55.1 L 160.0 177.1 L 148.0 183.1 L 148.0 171.1 L 52.0 171.1 L 52.0 183.1 L 40.0 189.1 L 40.0 41.1 L 52.0 47.1 L 86.66666669845581 47.1 L 87.4 44.9 L 88.4 41.2 L 89.4 37.6 L 90.3 34.1 L 91.3 30.7 L 92.1 27.3 L 93.7 20.7 L 94.3 17.4 L 94.70836734771729 15.222040843963622 L 94.6 15.2 L 94.88800001144409 14.264000034332275 L 94.9 14.2 L 94.90705089569092 14.202084636688232 L 95.4 12.6 Z M 52.0 129.4 L 52.0 167.1 L 148.0 167.1 L 148.0 129.4 Z M 52.0 90.2 L 52.0 125.4 L 148.0 125.4 L 148.0 90.2 Z M 52.0 51.1 L 52.0 86.2 L 148.0 86.2 L 148.0 51.1 Z " />
</g>
</svg>
