<svg xmlns="http://www.w3.org/2000/svg" xmlns:xlink="http://www.w3.org/1999/xlink" version="1.1" baseProfile="full" viewBox="0 0 200 200" width="200" height="200">
<g fill="black">
<path d="M 98.8917236328125 21.262603187561034 L 105.2 27.5 L 105.3 30.8 L 101.66688232421875 29.322121620178223 L 97.0 31.5 L 90.9 34.2 L 84.6 36.8 L 78.1 39.2 L 71.5 41.5 L 64.8 43.6 L 57.9 45.6 L 50.9 47.3 L 43.6 48.7 L 42.0 48.937837791442874 L 42.0 103.0 L 71.0 103.0 L 81.0 93.0 L 93.0 103.0 L 93.0 107.0 L 42.0 107.0 L 42.0 166.0 L 158.0 166.0 L 158.0 107.0 L 107.0 107.0 L 107.0 103.0 L 158.0 103.0 L 158.0 48.0 L 102.0 48.0 L 102.0 44.0 L 158.0 44.0 L 164.0 39.0 L 175.0 48.0 L 170.0 52.0 L 170.0 176.0 L 158.0 182.0 L 158.0 170.0 L 42.0 170.0 L 42.0 182.0 L 30.0 188.0 L 30.0 41.0 L 40.215625 46.1078125 L 42.5 45.1 L 49.2 42.2 L 55.8 39.3 L 62.2 36.5 L 68.4 33.6 L 74.5 30.7 L 80.4 27.7 L 86.2 24.6 L 91.8 21.4 L 96.31598625183105 18.723859977722167 L 96.3 18.7 L 96.3210789680481 18.7208420753479 L 97.2 18.2 Z " />
</g>
</svg>
