<svg xmlns="http://www.w3.org/2000/svg" xmlns:xlink="http://www.w3.org/1999/xlink" version="1.1" baseProfile="full" viewBox="0 0 200 200" width="200" height="200">
<g fill="black">
<path d="M 150.8 177.1 L 140.2 171.1 L 130.4 164.2 L 121.4 156.4 L 113.3 147.7 L 105.9 138.2 L 99.5 127.7 L 94.0 116.4 L 89.79508199691773 105.0 L 54.0 105.0 L 54.0 168.71136360168458 L 56.5 168.2 L 65.3 166.3 L 74.2 164.3 L 92.2 160.1 L 101.4 158.1 L 110.7 156.1 L 111.2 157.8 L 102.5 161.7 L 93.8 165.3 L 85.1 168.5 L 76.3 171.6 L 67.6 174.5 L 58.8 177.2 L 50.1 179.8 L 41.4 182.2 L 32.8 184.5 L 28.14082098007202 185.62462940216065 L 26.7 189.2 L 24.1 186.6 L 19.8 175.3 L 21.7 174.9 L 30.3 173.4 L 39.0 171.8 L 42.0 171.17931032180786 L 42.0 20.0 L 54.0 26.0 L 142.0 26.0 L 148.0 21.0 L 159.0 30.0 L 154.0 34.0 L 154.0 105.0 L 142.0 111.0 L 142.0 105.0 L 92.08636360168457 105.0 L 97.7 114.5 L 104.5 124.6 L 111.7 133.8 L 119.4 142.0 L 121.29482069015503 143.70996017456054 L 124.8 140.8 L 130.0 136.6 L 135.1 132.6 L 140.0 128.8 L 144.6 125.1 L 149.0 121.5 L 153.2 118.0 L 157.1 114.6 L 160.9 111.3 L 163.63981742858886 108.6407654762268 L 163.6 108.6 L 164.0118643760681 108.279660987854 L 164.3 108.0 L 164.32816390991212 108.03365030288697 L 164.5 107.9 L 172.0 117.2 L 172.5 120.8 L 168.77684564590453 119.53678693771363 L 168.0 120.1 L 163.7 123.1 L 159.2 126.1 L 154.4 129.1 L 149.4 132.1 L 144.2 135.1 L 138.7 138.1 L 132.9 141.1 L 126.8 144.0 L 123.26756830215454 145.49024457931517 L 127.6 149.4 L 136.5 156.0 L 145.8 161.6 L 155.8 166.4 L 166.4 170.4 L 177.7 173.6 L 186.0 175.8 L 174.2 186.3 L 162.2 182.2 Z M 54.0 67.0 L 54.0 101.0 L 142.0 101.0 L 142.0 67.0 Z M 54.0 30.0 L 54.0 63.0 L 142.0 63.0 L 142.0 30.0 Z " />
</g>
</svg>
