<svg xmlns="http://www.w3.org/2000/svg" xmlns:xlink="http://www.w3.org/1999/xlink" version="1.1" baseProfile="full" viewBox="0 0 200 200" width="200" height="200">
<g fill="black">
<path d="M 180.0 31.0 L 180.0 35.0 L 129.0 35.0 L 129.0 68.0 L 159.0 68.0 L 165.0 63.0 L 176.0 72.0 L 171.0 76.0 L 171.0 174.0 L 159.0 180.0 L 159.0 72.0 L 129.0 72.0 L 129.0 137.0 L 117.0 143.0 L 117.0 131.0 L 83.0 131.0 L 83.0 143.0 L 71.0 149.0 L 71.0 72.0 L 41.0 72.0 L 41.0 174.0 L 29.0 180.0 L 29.0 62.0 L 41.0 68.0 L 71.0 68.0 L 71.0 35.0 L 20.0 35.0 L 20.0 31.0 L 158.0 31.0 L 168.0 21.0 Z M 83.0 72.0 L 83.0 127.0 L 117.0 127.0 L 117.0 72.0 Z M 83.0 35.0 L 83.0 68.0 L 117.0 68.0 L 117.0 35.0 Z " />
</g>
</svg>
