<svg xmlns="http://www.w3.org/2000/svg" xmlns:xlink="http://www.w3.org/1999/xlink" version="1.1" baseProfile="full" viewBox="0 0 200 200" width="200" height="200">
<g fill="black">
<path d="M 182.0 146.0 L 184.0 146.0 L 182.0 171.0 L 185.6 173.4 L 188.0 177.0 L 185.6 180.6 L 182.0 183.0 L 126.0 183.0 L 123.4 182.8 L 120.9 182.4 L 118.5 181.6 L 116.2 180.3 L 114.2 178.7 L 112.6 176.7 L 111.3 174.4 L 110.5 172.0 L 110.1 169.5 L 110.0 167.0 L 110.0 124.0 L 84.09024391174316 124.0 L 89.7 126.0 L 92.3 128.5 L 88.59256744384766 129.91556520462035 L 86.9 135.9 L 82.9 145.1 L 77.8 153.5 L 71.5 161.1 L 64.2 167.9 L 55.8 173.8 L 46.4 178.9 L 36.0 183.1 L 24.6 186.4 L 12.2 188.8 L 11.7 187.1 L 23.4 182.8 L 34.0 178.2 L 43.3 173.1 L 51.5 167.5 L 58.6 161.5 L 64.5 155.0 L 69.4 148.0 L 73.2 140.5 L 76.0 132.5 L 77.7689655303955 124.4 L 77.83793106079102 124.0 L 58.0 124.0 L 58.0 136.0 L 46.0 142.0 L 46.0 17.0 L 58.0 23.0 L 142.0 23.0 L 148.0 18.0 L 159.0 27.0 L 154.0 31.0 L 154.0 130.0 L 142.0 136.0 L 142.0 124.0 L 122.0 124.0 L 122.0 168.2 L 122.2 169.1 L 122.5 170.0 L 122.9 170.4 L 123.8 170.7 L 124.7 170.9 L 126.0 171.0 L 176.0 171.0 Z M 58.0 91.0 L 58.0 120.0 L 142.0 120.0 L 142.0 91.0 Z M 58.0 59.0 L 58.0 87.0 L 142.0 87.0 L 142.0 59.0 Z M 58.0 27.0 L 58.0 55.0 L 142.0 55.0 L 142.0 27.0 Z " />
</g>
</svg>
