<svg xmlns="http://www.w3.org/2000/svg" xmlns:xlink="http://www.w3.org/1999/xlink" version="1.1" baseProfile="full" viewBox="0 0 200 200" width="200" height="200">
<g fill="black">
<path d="M 99.0 133.0 L 99.0 102.0 L 57.0 102.0 L 57.0 127.0 L 56.46835441589356 133.0 Z M 111.0 102.0 L 111.0 133.0 L 153.0 133.0 L 153.0 102.0 Z M 57.0 67.0 L 57.0 98.0 L 99.0 98.0 L 99.0 67.0 Z M 111.0 67.0 L 111.0 98.0 L 153.0 98.0 L 153.0 67.0 Z M 67.4 32.0 L 66.9 33.0 L 62.3 40.7 L 57.2 48.1 L 51.5 55.3 L 48.397014904022214 58.69850749969483 L 57.0 63.0 L 101.25952377319337 63.0 L 103.4 60.1 L 106.3 56.1 L 109.1 52.1 L 111.8 48.3 L 114.2 44.6 L 116.5 41.0 L 118.6 37.4 L 120.5 33.9 L 121.45 32.0 Z M 164.4 177.0 L 163.6 179.4 L 162.3 181.7 L 160.7 183.7 L 158.7 185.3 L 156.4 186.6 L 154.0 187.4 L 151.5 187.8 L 149.0 188.0 L 149.0 182.0 L 129.0 179.0 L 129.0 176.0 L 149.0 176.0 L 150.2 175.9 L 151.1 175.7 L 152.0 175.4 L 152.4 175.0 L 152.7 174.1 L 152.9 173.2 L 153.0 172.0 L 153.0 137.0 L 55.890909099578856 137.0 L 54.8 142.6 L 52.6 149.9 L 49.6 156.8 L 45.9 163.3 L 41.4 169.4 L 36.3 175.0 L 30.4 180.1 L 23.8 184.7 L 16.4 188.7 L 15.5 187.2 L 21.4 181.7 L 26.7 176.2 L 31.3 170.6 L 35.3 164.9 L 38.5 159.1 L 41.1 153.1 L 43.0 146.9 L 44.3 140.5 L 44.9 133.9 L 45.0 127.0 L 45.0 62.39411764144897 L 38.4 68.8 L 31.1 75.2 L 23.1 81.1 L 14.5 86.7 L 13.4 85.2 L 20.7 78.2 L 27.4 71.2 L 33.7 64.2 L 39.5 57.2 L 44.8 50.1 L 49.5 42.9 L 53.6 35.6 L 57.3 28.2 L 60.4 20.6 L 62.60364980697632 13.900904655456543 L 62.6 13.9 L 62.63214282989502 13.81428575515747 L 62.9 13.0 L 62.93333330154419 13.011111068725587 L 63.5 11.5 L 74.3 16.8 L 76.5 19.7 L 72.77215185165406 20.484810161590577 L 70.9 25.0 L 69.4 28.0 L 123.0 28.0 L 123.3492537498474 27.708955192565917 L 123.6 27.1 L 123.89281644821168 27.255986309051515 L 129.0 23.0 L 140.0 32.0 L 135.0 35.0 L 131.80677967071534 36.33050851821899 L 129.4 39.7 L 126.7 43.1 L 123.8 46.4 L 120.7 49.8 L 117.3 53.1 L 113.8 56.3 L 110.0 59.5 L 105.9 62.6 L 105.32666664123535 63.0 L 153.0 63.0 L 159.0 58.0 L 170.0 67.0 L 165.0 71.0 L 165.0 172.0 L 164.8 174.5 Z " />
</g>
</svg>
