<svg xmlns="http://www.w3.org/2000/svg" xmlns:xlink="http://www.w3.org/1999/xlink" version="1.1" baseProfile="full" viewBox="0 0 200 200" width="200" height="200">
<g fill="black">
<path d="M 138.3 180.3 L 120.9 178.9 L 105.5 176.3 L 91.9 172.4 L 80.1 166.8 L 70.1 159.5 L 62.0 150.3 L 55.8 139.2 L 54.454724884033205 135.22532339096068 L 54.2 135.9 L 49.9 145.1 L 45.1 153.7 L 39.7 161.8 L 33.8 169.3 L 27.3 176.1 L 20.2 182.3 L 12.5 187.7 L 11.4 186.2 L 17.6 179.5 L 23.3 172.5 L 28.6 165.3 L 33.4 157.7 L 37.7 149.6 L 41.5 141.2 L 44.8 132.3 L 47.7 123.0 L 50.0 113.2 L 51.73336515426636 103.80333652496338 L 51.7 103.8 L 52.2 100.9 L 63.7 105.0 L 66.3 107.5 L 62.77404527664184 108.84627361297608 L 61.1 115.8 L 57.9 126.1 L 56.05157060623169 130.9958399772644 L 59.5 137.3 L 66.6 146.6 L 74.7 153.9 L 84.0 159.5 L 94.0 163.2037036895752 L 94.0 86.0 L 14.0 86.0 L 14.0 82.0 L 94.0 82.0 L 94.0 47.0 L 30.0 47.0 L 30.0 43.0 L 94.0 43.0 L 94.0 12.0 L 106.0 14.0 L 109.0 16.0 L 106.0 17.8 L 106.0 43.0 L 148.0 43.0 L 158.0 33.0 L 170.0 43.0 L 170.0 47.0 L 106.0 47.0 L 106.0 82.0 L 164.0 82.0 L 174.0 72.0 L 186.0 82.0 L 186.0 86.0 L 106.0 86.0 L 106.0 120.0 L 148.0 120.0 L 158.0 110.0 L 170.0 120.0 L 170.0 124.0 L 106.0 124.0 L 106.0 165.9888889312744 L 107.4 166.3 L 122.0 167.9 L 138.7 168.5 L 157.5 168.3 L 178.7 167.4 L 190.1 166.9 L 179.2 180.5 L 157.7 180.8 Z " />
</g>
</svg>
