<svg xmlns="http://www.w3.org/2000/svg" xmlns:xlink="http://www.w3.org/1999/xlink" version="1.1" baseProfile="full" viewBox="0 0 200 200" width="200" height="200">
<g fill="black">
<path d="M 135.6 180.6 L 117.3 178.7 L 101.2 175.6 L 87.2 171.1 L 75.3 165.2 L 65.7 158.0 L 58.6 149.5 L 54.0 139.7 L 53.874324321746826 138.95990991592407 L 50.9 145.9 L 46.4 154.4 L 41.3 162.4 L 35.6 169.9 L 29.2 176.8 L 22.2 183.1 L 14.5 188.6 L 13.4 187.3 L 19.5 180.4 L 25.2 173.3 L 30.3 166.0 L 34.9 158.4 L 38.9 150.5 L 42.4 142.2 L 45.3 133.5 L 47.7 124.5 L 49.6 115.0 L 50.780085468292235 106.10397119522095 L 50.7 106.1 L 51.1 103.1 L 62.8 106.7 L 65.5 109.1 L 62.02388668060303 110.58056678771973 L 60.7 117.2 L 58.1 127.2 L 55.950858688354494 133.4520475387573 L 57.9 138.1 L 63.3 145.9 L 70.4 152.5 L 79.4 157.9 L 90.3 162.3 L 94.0 163.2320611000061 L 94.0 80.0 L 54.0 80.0 L 54.0 87.0 L 42.0 93.0 L 42.0 21.0 L 54.0 27.0 L 146.0 27.0 L 152.0 22.0 L 163.0 31.0 L 158.0 35.0 L 158.0 86.0 L 146.0 92.0 L 146.0 80.0 L 106.0 80.0 L 106.0 120.0 L 148.0 120.0 L 158.0 110.0 L 170.0 120.0 L 170.0 124.0 L 106.0 124.0 L 106.0 165.9738561630249 L 118.7 167.8 L 136.1 168.8 L 155.7 168.7 L 177.5 167.4 L 188.5 166.6 L 178.4 180.5 L 155.9 181.2 Z M 54.0 31.0 L 54.0 76.0 L 146.0 76.0 L 146.0 31.0 Z " />
</g>
</svg>
