<svg xmlns="http://www.w3.org/2000/svg" xmlns:xlink="http://www.w3.org/1999/xlink" version="1.1" baseProfile="full" viewBox="0 0 200 200" width="200" height="200">
<g fill="black">
<path d="M 114.0 176.0 L 134.0 176.0 L 135.2 175.9 L 136.1 175.7 L 137.0 175.4 L 137.4 175.0 L 137.7 174.1 L 137.9 173.2 L 138.0 172.0 L 138.0 132.01568632125856 L 133.8 135.2 L 117.1 146.0 L 98.9 156.0 L 79.4 165.3 L 58.4 173.7 L 36.0 181.2 L 12.2 187.8 L 11.7 186.1 L 34.8 177.6 L 56.4 168.7 L 76.6 159.3 L 95.3 149.3 L 112.6 138.8 L 128.3 127.7 L 129.95198020935058 126.33886137008668 L 122.2 128.0 L 110.6 130.1 L 98.4 132.0 L 85.8 133.7 L 72.8 135.2 L 59.3 136.6 L 45.4 137.8 L 31.0 138.9 L 20.27821464538574 139.62444496154785 L 18.3 142.8 L 16.2 139.9 L 13.7 128.0 L 15.7 127.9 L 30.5 127.6 L 44.8 127.1 L 50.0 126.91159420013427 L 50.0 32.0 L 62.0 38.0 L 84.16896553039551 38.0 L 85.1 36.5 L 86.5 33.5 L 88.0 30.6 L 89.4 27.8 L 90.7 25.0 L 92.0 22.3 L 93.1 19.6 L 94.2 17.0 L 95.3 14.5 L 95.85229187011718 12.965855979919434 L 95.7 12.9 L 96.7 11.0 L 106.8 17.7 L 108.5 20.9 L 104.17133531570434 21.046734428405763 L 103.1 22.4 L 101.2 24.7 L 99.1 27.0 L 97.0 29.4 L 94.7 31.6 L 92.3 33.9 L 89.8 36.1 L 87.35714282989503 38.0 L 138.0 38.0 L 144.0 33.0 L 155.0 42.0 L 150.0 46.0 L 150.0 108.79296875 L 155.3 103.7 L 166.6 90.8 L 176.4 77.4 L 176.42286376953126 77.41570434570312 L 176.9 76.7 L 186.3 84.2 L 187.7 87.5 L 183.84366426467895 87.30391511917114 L 175.3 98.1 L 162.9 111.3 L 150.0 122.79782609939575 L 150.0 172.0 L 149.8 174.5 L 149.4 177.0 L 148.6 179.4 L 147.3 181.7 L 145.7 183.7 L 143.7 185.3 L 141.4 186.6 L 139.0 187.4 L 136.5 187.8 L 134.0 188.0 L 134.0 182.0 L 114.0 179.0 Z M 62.0 99.0 L 62.0 126.42370367050171 L 72.1 125.9 L 85.1 125.2 L 97.6 124.4 L 109.8 123.5 L 121.5 122.6 L 132.8 121.8 L 135.6833782196045 121.61651229858398 L 138.0 119.7077465057373 L 138.0 99.0 Z M 62.0 71.0 L 62.0 95.0 L 138.0 95.0 L 138.0 71.0 Z M 62.0 42.0 L 62.0 67.0 L 138.0 67.0 L 138.0 42.0 Z " />
</g>
</svg>
