<svg xmlns="http://www.w3.org/2000/svg" xmlns:xlink="http://www.w3.org/1999/xlink" version="1.1" baseProfile="full" viewBox="0 0 200 200" width="200" height="200">
<g fill="black">
<path d="M 146.0 53.3 L 147.9 56.4 L 144.08269500732422 56.86070919036865 L 143.9 57.2 L 141.7 61.1 L 139.3 65.1 L 136.8 69.2 L 134.1 73.4 L 131.3 77.7 L 128.2 82.1 L 125.0 86.5 L 121.5 91.0 L 119.77272729873657 93.0 L 163.0 93.0 L 173.0 83.0 L 185.0 93.0 L 185.0 97.0 L 106.0 97.0 L 106.0 131.0 L 153.0 131.0 L 163.0 121.0 L 175.0 131.0 L 175.0 135.0 L 106.0 135.0 L 106.0 183.0 L 94.0 189.0 L 94.0 135.0 L 25.0 135.0 L 25.0 131.0 L 94.0 131.0 L 94.0 97.0 L 15.0 97.0 L 15.0 93.0 L 116.77272729873657 93.0 L 118.3 89.0 L 120.4 83.8 L 122.5 78.9 L 124.6 74.1 L 126.6 69.4 L 128.5 64.9 L 130.3 60.6 L 132.0 56.4 L 133.6 52.3 L 134.74739360809326 49.31677646636963 L 134.7 49.3 L 135.6 47.2 Z M 67.7 78.6 L 66.6 74.8 L 65.4 71.1 L 63.9 67.4 L 62.3 63.7 L 60.5 60.1 L 58.5 56.5 L 56.4 52.9 L 54.0 49.3 L 55.3 48.0 L 58.8 50.7 L 62.3 53.5 L 65.4 56.6 L 68.3 59.9 L 71.0 63.4 L 73.4 67.1 L 75.7 71.0 L 77.7 75.0 L 79.5 79.2 L 81.0 83.6 L 80.3 88.1 L 76.7 90.9 L 72.2 90.1 L 69.4 86.5 L 68.7 82.5 Z M 28.0 41.0 L 94.0 41.0 L 94.0 13.0 L 106.0 15.0 L 109.0 17.0 L 106.0 18.8 L 106.0 41.0 L 150.0 41.0 L 160.0 31.0 L 172.0 41.0 L 172.0 45.0 L 28.0 45.0 Z " />
</g>
</svg>
