<svg xmlns="http://www.w3.org/2000/svg" xmlns:xlink="http://www.w3.org/1999/xlink" version="1.1" baseProfile="full" viewBox="0 0 200 200" width="200" height="200">
<g fill="black">
<path d="M 155.8 172.1 L 145.9 165.6 L 136.8 158.1 L 128.6 149.6 L 121.3 140.3 L 114.9 130.1 L 109.4 119.0 L 104.8 107.0 L 101.6125 95.0 L 76.0 95.0 L 76.0 163.3425000190735 L 91.8 158.8 L 99.6 156.6 L 107.3 154.3 L 115.0 152.2 L 122.6 150.1 L 123.3 151.8 L 116.4 155.7 L 109.2 159.3 L 101.9 162.7 L 94.3 166.0 L 86.6 169.2 L 78.7 172.2 L 70.6 175.1 L 62.4 178.0 L 54.0 180.8 L 49.396588516235354 182.2622601509094 L 48.2 185.8 L 45.5 183.5 L 40.4 172.4 L 42.3 171.9 L 50.9 169.8 L 59.3 167.7 L 64.0 166.51084337234497 L 64.0 95.0 L 42.955555534362794 95.0 L 42.4 103.5 L 40.9 117.8 L 38.9 131.0 L 36.4 143.3 L 33.3 154.5 L 29.8 164.7 L 25.7 173.8 L 21.0 181.8 L 15.7 188.5 L 14.2 187.4 L 17.7 179.9 L 20.8 171.7 L 23.6 162.6 L 26.0 152.6 L 28.0 141.6 L 29.7 129.7 L 30.9 116.7 L 31.7 102.8 L 32.0 87.9 L 32.0 23.0 L 44.0 29.0 L 150.0 29.0 L 160.0 19.0 L 172.0 29.0 L 172.0 33.0 L 44.0 33.0 L 44.0 72.0 L 43.4 88.2 L 43.21699342727661 91.0 L 157.0 91.0 L 167.0 81.0 L 179.0 91.0 L 179.0 95.0 L 103.75882349014282 95.0 L 108.7 105.5 L 114.6 116.3 L 121.0 126.3 L 127.22492275238037 134.32924823760987 L 130.0 131.4 L 133.5 127.7 L 137.0 124.1 L 140.3 120.7 L 146.8 114.2 L 149.8 111.1 L 152.7 108.1 L 155.5 105.1 L 157.43987627029418 102.93629188537598 L 157.4 102.9 L 157.775 102.5625 L 158.1 102.2 L 158.13547592163087 102.23807172775268 L 158.4 102.0 L 166.3 111.0 L 166.9 114.6 L 163.08669357299806 113.51048383712768 L 159.8 116.1 L 156.3 118.6 L 152.7 121.2 L 148.9 123.8 L 145.0 126.4 L 140.9 129.1 L 136.7 131.7 L 132.2 134.2 L 128.70523509979247 136.05891752243042 L 135.4 143.2 L 143.5 150.3 L 152.2 156.5 L 161.4 161.7 L 171.4 166.1 L 181.9 169.7 L 189.6 172.1 L 178.0 182.2 L 166.5 177.7 Z M 163.0 60.0 L 163.0 64.0 L 59.0 64.0 L 59.0 60.0 L 141.0 60.0 L 151.0 50.0 Z " />
</g>
</svg>
