<svg xmlns="http://www.w3.org/2000/svg" xmlns:xlink="http://www.w3.org/1999/xlink" version="1.1" baseProfile="full" viewBox="0 0 200 200" width="200" height="200">
<g fill="black">
<path d="M 176.0 143.2 L 178.0 143.2 L 176.0 168.2 L 179.6 170.6 L 182.0 174.2 L 179.6 177.8 L 176.0 180.2 L 52.0 180.2 L 49.4 180.1 L 46.9 179.6 L 44.5 178.8 L 42.2 177.6 L 40.2 175.9 L 38.6 173.9 L 37.3 171.7 L 36.5 169.2 L 36.1 166.8 L 36.0 164.2 L 36.0 75.5 L 48.0 81.5 L 151.0 81.5 L 157.0 76.5 L 168.0 85.5 L 163.0 89.5 L 163.0 132.5 L 151.0 138.5 L 151.0 126.5 L 48.0 126.5 L 48.0 165.4 L 48.2 166.3 L 48.4 166.9 L 48.5 167.3 L 48.7 167.4 L 48.9 167.6 L 49.2 167.8 L 49.8 168.0 L 50.7 168.1 L 52.0 168.2 L 170.0 168.2 Z M 48.0 85.5 L 48.0 122.5 L 94.0 122.5 L 94.0 85.5 Z M 106.0 85.5 L 106.0 122.5 L 151.0 122.5 L 151.0 85.5 Z M 65.4 24.0 L 134.6 24.0 L 140.6 19.0 L 151.6 28.0 L 146.6 32.0 L 146.6 64.9 L 134.6 70.9 L 134.6 60.9 L 65.4 60.9 L 65.4 67.9 L 53.4 73.9 L 53.4 18.0 Z M 65.4 28.0 L 65.4 56.9 L 134.6 56.9 L 134.6 28.0 Z " />
</g>
</svg>
