<svg xmlns="http://www.w3.org/2000/svg" xmlns:xlink="http://www.w3.org/1999/xlink" version="1.1" baseProfile="full" viewBox="0 0 200 200" width="200" height="200">
<g fill="black">
<path d="M 16.0 171.0 L 94.0 171.0 L 94.0 138.0 L 32.0 138.0 L 32.0 134.0 L 94.0 134.0 L 94.0 103.0 L 51.0 103.0 L 51.0 115.0 L 39.0 121.0 L 39.0 19.0 L 51.0 25.0 L 149.0 25.0 L 155.0 20.0 L 166.0 29.0 L 161.0 33.0 L 161.0 109.0 L 149.0 115.0 L 149.0 103.0 L 106.0 103.0 L 106.0 134.0 L 146.0 134.0 L 156.0 124.0 L 168.0 134.0 L 168.0 138.0 L 106.0 138.0 L 106.0 171.0 L 162.0 171.0 L 172.0 161.0 L 184.0 171.0 L 184.0 175.0 L 16.0 175.0 Z M 51.0 66.0 L 51.0 99.0 L 94.0 99.0 L 94.0 66.0 Z M 106.0 66.0 L 106.0 99.0 L 149.0 99.0 L 149.0 66.0 Z M 51.0 29.0 L 51.0 62.0 L 94.0 62.0 L 94.0 29.0 Z M 106.0 29.0 L 106.0 62.0 L 149.0 62.0 L 149.0 29.0 Z " />
</g>
</svg>
