<svg xmlns="http://www.w3.org/2000/svg" xmlns:xlink="http://www.w3.org/1999/xlink" version="1.1" baseProfile="full" viewBox="0 0 200 200" width="200" height="200">
<g fill="black">
<path d="M 107.6 18.8 L 109.2 22.1 L 105.0 22.1 L 104.1 23.2 L 102.2 25.4 L 98.0 30.0 L 95.8 32.4 L 93.4 34.9 L 90.9 37.3 L 88.2 39.8 L 88.01481485366821 40.0 L 145.0 40.0 L 151.0 35.0 L 162.0 44.0 L 157.0 48.0 L 157.0 73.0 L 145.0 79.0 L 145.0 71.0 L 53.0 71.0 L 53.0 88.0 L 153.0 88.0 L 159.0 83.0 L 170.0 92.0 L 165.0 96.0 L 165.0 125.0 L 153.0 131.0 L 153.0 121.0 L 106.0 121.0 L 106.0 147.0 L 160.0 147.0 L 170.0 137.0 L 182.0 147.0 L 182.0 151.0 L 106.0 151.0 L 106.0 183.0 L 94.0 189.0 L 94.0 151.0 L 18.0 151.0 L 18.0 147.0 L 94.0 147.0 L 94.0 121.0 L 53.0 121.0 L 53.0 128.0 L 41.0 134.0 L 41.0 34.0 L 53.0 40.0 L 84.9875 40.0 L 86.0 38.2 L 87.4 34.9 L 88.9 31.7 L 90.3 28.7 L 91.6 25.8 L 92.9 23.0 L 94.1 20.3 L 95.3 17.7 L 96.3 15.2 L 96.90444869995117 13.749322986602783 L 96.8 13.7 L 97.8 11.9 Z M 53.0 92.0 L 53.0 117.0 L 153.0 117.0 L 153.0 92.0 Z M 53.0 44.0 L 53.0 67.0 L 145.0 67.0 L 145.0 44.0 Z " />
</g>
</svg>
