<svg xmlns="http://www.w3.org/2000/svg" xmlns:xlink="http://www.w3.org/1999/xlink" version="1.1" baseProfile="full" viewBox="0 0 200 200" width="200" height="200">
<g fill="black">
<path d="M 106.4 53.0 L 109.4 48.0 L 112.3 43.3 L 115.1 38.8 L 117.6 34.5 L 120.0 30.4 L 122.1 26.5 L 124.0 22.8 L 125.7 19.3 L 126.77623624801636 16.932280254364013 L 126.7 16.9 L 127.7 15.0 L 137.8 21.6 L 139.5 24.8 L 135.59873685836791 25.001789474487303 L 133.2 28.4 L 130.5 31.9 L 127.7 35.6 L 124.5 39.4 L 121.1 43.3 L 117.5 47.2 L 113.6 51.3 L 109.3 55.4 L 107.46585369110107 57.0 L 152.0 57.0 L 162.0 47.0 L 174.0 57.0 L 174.0 61.0 L 116.0 61.0 L 116.0 94.0 L 145.0 94.0 L 155.0 84.0 L 167.0 94.0 L 167.0 98.0 L 116.0 98.0 L 116.0 130.0 L 145.0 130.0 L 155.0 120.0 L 167.0 130.0 L 167.0 134.0 L 116.0 134.0 L 116.0 169.0 L 159.0 169.0 L 169.0 159.0 L 181.0 169.0 L 181.0 173.0 L 58.0 173.0 L 58.0 180.0 L 46.0 186.0 L 46.0 71.7125 L 44.0 74.4 L 37.1 82.7 L 29.8 90.7 L 21.9 98.3 L 13.6 105.6 L 12.3 104.3 L 19.2 95.8 L 25.7 87.2 L 31.9 78.6 L 37.8 69.9 L 43.3 61.1 L 48.4 52.2 L 53.2 43.0 L 57.5 33.8 L 61.4 24.3 L 64.65321102142335 15.715137577056884 L 64.6 15.7 L 65.5 13.4 L 76.2 19.0 L 78.3 22.0 L 74.59875869750977 22.649340534210204 L 71.9 28.8 L 67.2 38.4 L 62.0 47.8 L 56.4 56.9 L 56.33258428573608 57.0 L 104.1037036895752 57.0 Z M 58.0 134.0 L 58.0 169.0 L 104.0 169.0 L 104.0 134.0 Z M 58.0 98.0 L 58.0 130.0 L 104.0 130.0 L 104.0 98.0 Z M 58.0 61.0 L 58.0 94.0 L 104.0 94.0 L 104.0 61.0 Z " />
</g>
</svg>
