<svg xmlns="http://www.w3.org/2000/svg" xmlns:xlink="http://www.w3.org/1999/xlink" version="1.1" baseProfile="full" viewBox="0 0 200 200" width="200" height="200">
<g fill="black">
<path d="M 139.0 15.0 L 142.0 17.0 L 139.0 18.8 L 139.0 37.0 L 160.0 37.0 L 170.0 27.0 L 182.0 37.0 L 182.0 41.0 L 139.0 41.0 L 139.0 69.0 L 127.0 75.0 L 127.0 67.0 L 106.0 67.0 L 106.0 87.0 L 150.0 87.0 L 156.0 82.0 L 167.0 91.0 L 162.0 95.0 L 162.0 130.0 L 150.0 136.0 L 150.0 126.0 L 106.0 126.0 L 106.0 148.0 L 164.0 148.0 L 174.0 138.0 L 186.0 148.0 L 186.0 152.0 L 106.0 152.0 L 106.0 183.0 L 94.0 189.0 L 94.0 152.0 L 14.0 152.0 L 14.0 148.0 L 94.0 148.0 L 94.0 126.0 L 50.0 126.0 L 50.0 133.0 L 38.0 139.0 L 38.0 81.0 L 50.0 87.0 L 94.0 87.0 L 94.0 67.0 L 73.0 67.0 L 73.0 70.0 L 61.0 76.0 L 61.0 41.0 L 18.0 41.0 L 18.0 37.0 L 61.0 37.0 L 61.0 13.0 L 73.0 15.0 L 76.0 17.0 L 73.0 18.8 L 73.0 37.0 L 127.0 37.0 L 127.0 13.0 Z M 50.0 91.0 L 50.0 122.0 L 94.0 122.0 L 94.0 91.0 Z M 106.0 91.0 L 106.0 122.0 L 150.0 122.0 L 150.0 91.0 Z M 73.0 41.0 L 73.0 63.0 L 127.0 63.0 L 127.0 41.0 Z " />
</g>
</svg>
