<svg xmlns="http://www.w3.org/2000/svg" xmlns:xlink="http://www.w3.org/1999/xlink" version="1.1" baseProfile="full" viewBox="0 0 200 200" width="200" height="200">
<g fill="black">
<path d="M 61.9 78.4 L 138.0 78.4 L 144.0 73.4 L 155.0 82.4 L 150.0 86.4 L 150.0 115.5 L 138.0 121.5 L 138.0 111.5 L 126.0 111.5 L 126.0 134.0 L 144.0 134.0 L 154.0 124.0 L 166.0 134.0 L 166.0 138.0 L 126.0 138.0 L 126.0 160.0 L 162.0 160.0 L 172.0 150.0 L 184.0 160.0 L 184.0 164.0 L 126.0 164.0 L 126.0 183.0 L 114.0 189.0 L 114.0 164.0 L 49.65 164.0 L 47.1 169.1 L 33.7 169.1 L 49.0 138.4 L 58.9 145.5 L 60.7 148.7 L 56.99090909957886 149.3181818008423 L 51.65 160.0 L 114.0 160.0 L 114.0 138.0 L 40.0 138.0 L 40.0 134.0 L 114.0 134.0 L 114.0 111.5 L 61.9 111.5 L 61.9 118.5 L 49.9 124.5 L 49.9 72.4 Z M 61.9 82.4 L 61.9 107.5 L 138.0 107.5 L 138.0 82.4 Z M 22.0 62.0 L 74.05454549789428 62.0 L 80.16363639831543 38.0 L 40.0 38.0 L 40.0 34.0 L 81.18181819915772 34.0 L 86.4 13.5 L 97.5 18.4 L 99.9 21.1 L 96.58611745834351 21.975365257263185 L 93.5125560760498 34.0 L 136.0 34.0 L 142.0 29.0 L 153.0 38.0 L 148.0 42.0 L 148.0 62.0 L 163.8181818008423 62.0 L 172.0 53.0 L 182.0 62.0 L 182.0 66.0 L 22.0 66.0 Z M 92.49013452529907 38.0 L 86.35560541152954 62.0 L 136.0 62.0 L 136.0 38.0 Z " />
</g>
</svg>
