<svg xmlns="http://www.w3.org/2000/svg" xmlns:xlink="http://www.w3.org/1999/xlink" version="1.1" baseProfile="full" viewBox="0 0 200 200" width="200" height="200">
<g fill="black">
<path d="M 15.0 178.0 L 69.0 178.0 L 69.0 134.0 L 20.0 134.0 L 20.0 130.0 L 69.0 130.0 L 69.0 93.0 L 26.0 93.0 L 26.0 89.0 L 69.0 89.0 L 69.0 54.0 L 21.0 54.0 L 21.0 50.0 L 69.0 50.0 L 69.0 18.0 L 81.0 20.0 L 84.0 22.0 L 81.0 23.8 L 81.0 178.0 L 116.0 178.0 L 116.0 18.0 L 128.0 20.0 L 131.0 22.0 L 128.0 23.8 L 128.0 51.0 L 157.0 51.0 L 167.0 41.0 L 179.0 51.0 L 179.0 55.0 L 128.0 55.0 L 128.0 90.0 L 150.8181818008423 90.0 L 159.0 81.0 L 169.0 90.0 L 169.0 94.0 L 128.0 94.0 L 128.0 131.0 L 158.0 131.0 L 168.0 121.0 L 180.0 131.0 L 180.0 135.0 L 128.0 135.0 L 128.0 178.0 L 161.0 178.0 L 171.0 168.0 L 183.0 178.0 L 183.0 182.0 L 15.0 182.0 Z " />
</g>
</svg>
