<svg xmlns="http://www.w3.org/2000/svg" xmlns:xlink="http://www.w3.org/1999/xlink" version="1.1" baseProfile="full" viewBox="0 0 200 200" width="200" height="200">
<g fill="black">
<path d="M 150.8 180.1 L 141.1 175.7 L 132.1 170.6 L 123.7 164.7 L 115.8 158.1 L 115.04759950637818 157.3264051437378 L 108.1 160.5 L 100.0 164.0 L 91.7 167.2 L 83.4 170.3 L 75.1 173.2 L 58.5 178.8 L 50.1 181.5 L 41.8 184.0 L 37.36338024139404 185.32042255401612 L 36.1 188.9 L 33.4 186.5 L 28.5 175.4 L 30.4 174.9 L 38.9 173.0 L 47.3 171.1 L 52.0 169.99411764144898 L 52.0 72.0 L 64.0 78.0 L 133.0 78.0 L 139.0 73.0 L 150.0 82.0 L 145.0 86.0 L 145.0 125.0 L 133.0 131.0 L 133.0 125.0 L 94.58902435302734 125.0 L 99.9 131.5 L 106.7 138.9 L 113.8 145.7 L 120.6020580291748 151.2151822090149 L 124.2 148.0 L 128.9 144.1 L 133.4 140.5 L 137.7 137.1 L 141.9 133.8 L 145.9 130.7 L 149.6 127.7 L 153.2 124.9 L 156.5 122.2 L 158.92490901947022 120.22976140975952 L 158.9 120.2 L 158.92545309066773 120.22931938171386 L 159.7 119.6 L 165.36903619766235 127.65167465209962 L 166.8 129.3 L 167.0 132.8 L 163.37216339111328 131.2829047203064 L 163.0 131.5 L 159.3 133.7 L 155.3 136.0 L 151.0 138.4 L 146.6 140.9 L 141.9 143.4 L 137.0 146.0 L 131.8 148.6 L 126.3 151.2 L 122.68831777572632 152.73037385940552 L 129.0 157.1 L 137.2 161.7 L 145.8 165.7 L 154.8 168.9 L 164.2 171.5 L 174.2 173.5 L 183.5 175.2 L 171.7 186.4 L 161.0 183.6 Z M 64.0 125.0 L 64.0 167.17058820724486 L 64.3 167.1 L 72.7 165.1 L 81.2 163.0 L 89.8 160.9 L 98.3 158.9 L 107.0 156.9 L 113.3542272567749 155.58533229827881 L 108.7 150.8 L 102.2 142.7 L 96.5 133.9 L 92.05 125.0 Z M 64.0 103.0 L 64.0 121.0 L 133.0 121.0 L 133.0 103.0 Z M 64.0 82.0 L 64.0 99.0 L 133.0 99.0 L 133.0 82.0 Z M 159.4 73.0 L 151.2 68.2 L 143.1 62.9 L 135.2 57.2 L 127.6 51.1 L 120.2 44.4 L 113.1 37.3 L 106.3 29.6 L 102.42356338500977 24.492948532104492 L 99.1 28.2 L 90.9 36.6 L 82.4 44.7 L 73.5 52.4 L 64.3 59.9 L 54.6 67.0 L 44.7 73.8 L 34.3 80.3 L 23.6 86.2 L 12.4 91.7 L 11.5 90.2 L 21.6 83.0 L 31.4 75.8 L 40.8 68.5 L 50.0 61.0 L 58.8 53.4 L 67.3 45.5 L 75.4 37.5 L 83.2 29.2 L 90.6 20.7 L 97.0350959777832 12.724106311798096 L 97.0 12.7 L 98.1 11.4 L 106.9 19.5 L 108.0 23.0 L 104.27964506149291 22.422703552246094 L 104.21313743591308 22.496885204315184 L 109.2 26.6 L 117.1 32.9 L 124.8 38.9 L 132.6 44.4 L 140.5 49.5 L 148.5 54.2 L 156.5 58.5 L 164.7 62.4 L 172.9 65.8 L 181.3 68.8 L 188.2 71.3 L 176.6 81.1 L 167.9 77.3 Z M 131.0 58.0 L 131.0 62.0 L 67.0 62.0 L 67.0 58.0 L 109.0 58.0 L 119.0 48.0 Z " />
</g>
</svg>
