<svg xmlns="http://www.w3.org/2000/svg" xmlns:xlink="http://www.w3.org/1999/xlink" version="1.1" baseProfile="full" viewBox="0 0 200 200" width="200" height="200">
<g fill="black">
<path d="M 58.1 114.2 L 140.8 114.2 L 146.8 109.2 L 157.8 118.2 L 152.8 122.2 L 152.8 181.9 L 140.8 187.9 L 140.8 177.9 L 58.1 177.9 L 58.1 184.9 L 46.1 190.9 L 46.1 108.2 Z M 58.1 148.1 L 58.1 173.9 L 140.8 173.9 L 140.8 148.1 Z M 58.1 118.2 L 58.1 144.1 L 140.8 144.1 L 140.8 118.2 Z M 160.3 109.7 L 152.2 104.9 L 144.5 99.7 L 137.1 94.2 L 130.2 88.2 L 123.6 81.9 L 117.5 75.2 L 111.9 68.0 L 107.35454549789429 61.0 L 106.0 61.0 L 106.0 104.0 L 94.0 110.0 L 94.0 66.8285714149475 L 91.4 69.8 L 84.6 76.6 L 77.4 83.2 L 69.7 89.5 L 61.5 95.6 L 52.9 101.3 L 43.7 106.7 L 34.1 111.8 L 24.0 116.5 L 13.3 120.8 L 12.6 119.1 L 22.2 113.2 L 31.5 107.2 L 40.2 101.2 L 48.5 95.1 L 56.4 88.8 L 63.7 82.4 L 70.6 75.9 L 76.9 69.2 L 82.8 62.3 L 83.78484849929809 61.0 L 15.0 61.0 L 15.0 57.0 L 94.0 57.0 L 94.0 35.37190084457397 L 83.5 36.5 L 70.9 37.5 L 58.0 38.3 L 44.7 38.8 L 31.0 38.8 L 30.9 37.1 L 44.4 35.0 L 57.5 33.0 L 70.2 31.0 L 82.5 28.9 L 94.3 26.8 L 105.8 24.6 L 116.8 22.2 L 127.5 19.7 L 137.7 17.1 L 146.5241593360901 14.66885404586792 L 146.5 14.6 L 146.56809816360473 14.656748485565185 L 147.5 14.4 L 147.84065933227538 15.717216110229492 L 157.9 24.1 L 158.2 27.1 L 153.89700784683228 25.12779531478882 L 150.5 26.0 L 140.3 28.2 L 129.7 30.2 L 118.7 32.1 L 107.3 33.7 L 106.0 33.86666669845581 L 106.0 57.0 L 163.0 57.0 L 173.0 47.0 L 185.0 57.0 L 185.0 61.0 L 110.31000003814697 61.0 L 115.0 65.2 L 121.6 71.0 L 128.4 76.5 L 135.4 81.7 L 142.6 86.6 L 150.0 91.1 L 157.7 95.3 L 165.6 99.2 L 173.8 102.6 L 182.3 105.8 L 189.1 108.4 L 177.6 118.1 L 168.8 114.1 Z " />
</g>
</svg>
