<svg xmlns="http://www.w3.org/2000/svg" xmlns:xlink="http://www.w3.org/1999/xlink" version="1.1" baseProfile="full" viewBox="0 0 200 200" width="200" height="200">
<g fill="black">
<path d="M 143.0 177.0 L 163.0 177.0 L 164.2 176.9 L 165.1 176.7 L 166.0 176.4 L 166.4 176.0 L 166.7 175.1 L 166.9 174.2 L 167.0 173.0 L 167.0 18.0 L 179.0 20.0 L 182.0 22.0 L 179.0 23.8 L 179.0 173.0 L 178.8 175.5 L 178.4 178.0 L 177.6 180.4 L 176.3 182.7 L 174.7 184.7 L 172.7 186.3 L 170.4 187.6 L 168.0 188.4 L 165.5 188.8 L 163.0 189.0 L 163.0 183.0 L 143.0 180.0 Z M 34.0 21.0 L 37.0 23.0 L 34.0 24.8 L 34.0 183.0 L 22.0 189.0 L 22.0 19.0 Z M 38.0 78.0 L 60.0 78.0 L 60.0 55.0 L 41.0 55.0 L 41.0 51.0 L 60.0 51.0 L 60.0 30.0 L 38.0 30.0 L 38.0 26.0 L 75.0 26.0 L 85.0 16.0 L 97.0 26.0 L 97.0 30.0 L 72.0 30.0 L 72.0 51.0 L 76.81818180084228 51.0 L 85.0 42.0 L 95.0 51.0 L 95.0 55.0 L 72.0 55.0 L 72.0 78.0 L 75.0 78.0 L 85.0 68.0 L 97.0 78.0 L 97.0 82.0 L 38.0 82.0 Z M 104.0 78.0 L 125.0 78.0 L 125.0 54.0 L 105.0 54.0 L 105.0 50.0 L 125.0 50.0 L 125.0 29.0 L 105.0 29.0 L 105.0 25.0 L 142.0 25.0 L 152.0 15.0 L 164.0 25.0 L 164.0 29.0 L 137.0 29.0 L 137.0 50.0 L 142.8181818008423 50.0 L 151.0 41.0 L 161.0 50.0 L 161.0 54.0 L 137.0 54.0 L 137.0 78.0 L 142.0 78.0 L 152.0 68.0 L 164.0 78.0 L 164.0 82.0 L 104.0 82.0 Z " />
</g>
</svg>
