<svg xmlns="http://www.w3.org/2000/svg" xmlns:xlink="http://www.w3.org/1999/xlink" version="1.1" baseProfile="full" viewBox="0 0 200 200" width="200" height="200">
<g fill="black">
<path d="M 148.5 149.9 L 148.5 153.9 L 105.0 153.9 L 105.0 181.9 L 93.0 187.9 L 93.0 153.9 L 49.4 153.9 L 49.4 149.9 L 126.5 149.9 L 136.5 139.9 Z M 152.0 113.5 L 154.0 113.5 L 152.0 126.5 L 154.7 128.3 L 156.5 131.0 L 154.7 133.7 L 152.0 135.5 L 121.5 135.5 L 119.2 135.2 L 116.9 134.6 L 114.7 133.6 L 112.7 132.2 L 111.1 130.3 L 109.7 128.2 L 108.8 125.9 L 108.2 123.5 L 108.0 121.0 L 108.0 106.5 L 83.46865673065186 106.5 L 89.8 110.7 L 91.5 113.9 L 87.57803468704223 114.03294801712036 L 86.4 115.8 L 82.7 120.5 L 78.6 124.9 L 74.2 128.9 L 69.5 132.5 L 64.5 135.7 L 59.1 138.4 L 53.5 140.8 L 47.5 142.6 L 41.2 143.8 L 40.7 142.1 L 46.1 139.0 L 51.1 135.9 L 55.8 132.7 L 60.2 129.4 L 64.2 125.9 L 67.8 122.1 L 71.1 118.2 L 74.1 114.0 L 76.8 109.6 L 78.41739130020142 106.5 L 37.3 106.5 L 37.3 182.6 L 25.3 188.6 L 25.3 96.5 L 37.3 102.5 L 162.6 102.5 L 168.6 97.5 L 179.6 106.5 L 174.6 110.5 L 174.6 173.6 L 174.5 176.1 L 174.1 178.6 L 173.2 181.0 L 172.0 183.3 L 170.4 185.3 L 168.4 186.9 L 166.1 188.2 L 163.7 189.0 L 161.2 189.4 L 158.6 189.6 L 158.6 183.6 L 144.6 180.6 L 144.6 177.6 L 158.6 177.6 L 159.9 177.5 L 160.8 177.3 L 161.7 177.0 L 161.9 176.8 L 162.0 176.6 L 162.2 176.3 L 162.4 175.7 L 162.6 174.8 L 162.6 106.5 L 120.0 106.5 L 120.0 121.0 L 119.9 122.2 L 119.9 123.2 L 120.0 123.9 L 120.0 124.4 L 120.2 124.7 L 120.4 125.1 L 120.8 125.5 L 121.5 125.9 L 122.6 126.2 L 124.0 126.5 L 147.5 126.5 Z M 59.0 47.8 L 140.9 47.8 L 146.9 42.8 L 157.9 51.8 L 152.9 55.8 L 152.9 86.2 L 140.9 92.2 L 140.9 84.2 L 59.0 84.2 L 59.0 87.2 L 47.0 93.2 L 47.0 41.8 Z M 59.0 51.8 L 59.0 80.2 L 140.9 80.2 L 140.9 51.8 Z M 182.3 26.0 L 182.3 30.0 L 19.6 30.0 L 19.6 26.0 L 160.3 26.0 L 170.3 16.0 Z " />
</g>
</svg>
