<svg xmlns="http://www.w3.org/2000/svg" xmlns:xlink="http://www.w3.org/1999/xlink" version="1.1" baseProfile="full" viewBox="0 0 200 200" width="200" height="200">
<g fill="black">
<path d="M 181.0 147.0 L 183.0 147.0 L 181.0 172.0 L 184.6 174.4 L 187.0 178.0 L 184.6 181.6 L 181.0 184.0 L 123.0 184.0 L 120.4 183.8 L 117.9 183.4 L 115.5 182.6 L 113.2 181.3 L 111.2 179.7 L 109.6 177.7 L 108.3 175.4 L 107.5 173.0 L 107.1 170.5 L 107.0 168.0 L 107.0 109.5 L 85.7404580116272 109.5 L 84.0 121.5 L 80.8 133.5 L 76.3 144.4 L 70.6 154.3 L 63.7 163.0 L 55.6 170.5 L 46.3 176.7 L 36.0 181.7 L 24.6 185.4 L 12.1 187.8 L 11.8 186.1 L 23.4 181.8 L 33.7 176.9 L 42.8 171.2 L 50.6 164.7 L 57.2 157.4 L 62.7 149.3 L 67.2 140.3 L 70.5 130.4 L 72.8 119.4 L 73.7983193397522 109.5 L 51.7 109.5 L 51.7 121.5 L 39.7 127.5 L 39.7 34.5 L 51.7 40.5 L 80.65161294937134 40.5 L 81.6 38.4 L 82.6 35.3 L 83.7 32.2 L 86.7 23.2 L 88.5 17.4 L 89.3 14.5 L 89.76262626647949 12.649494934082032 L 89.6 12.6 L 90.5 10.3 L 101.1 16.1 L 103.2 19.1 L 99.0706298828125 19.740764331817626 L 97.9 21.6 L 96.2 24.4 L 94.4 27.0 L 92.5 29.7 L 90.5 32.3 L 88.4 34.9 L 86.2 37.4 L 83.9 39.9 L 83.37200002670288 40.5 L 148.2 40.5 L 154.2 35.5 L 165.2 44.5 L 160.2 48.5 L 160.2 109.5 L 148.2 115.5 L 148.2 109.5 L 119.0 109.5 L 119.0 169.2 L 119.2 170.1 L 119.5 171.0 L 119.9 171.4 L 120.8 171.7 L 121.7 171.9 L 123.0 172.0 L 175.0 172.0 Z M 162.0 150.8 L 161.65301208496095 149.67228918075563 L 161.1 149.9 L 156.3 151.9 L 151.7 153.6 L 147.4 155.2 L 143.3 156.6 L 139.5 157.9 L 136.0 159.0 L 132.7 160.1 L 131.01785717010497 160.58836402893067 L 129.2 164.4 L 126.8 161.7 L 123.1 150.2 L 125.1 149.9 L 127.8 149.8 L 130.8 149.7 L 131.5384614944458 149.63286714553834 L 132.4 146.5 L 133.5 142.6 L 134.6 138.8 L 136.8 131.4 L 139.0 124.4 L 140.0 120.9 L 140.71596641540526 118.53731088638305 L 140.6 118.5 L 140.98181819915771 117.66000003814698 L 141.0 117.6 L 141.00764989852905 117.6031702041626 L 141.6 116.3 L 152.1 122.2 L 154.1 125.2 L 150.15930099487304 125.75308055877686 L 148.7 128.5 L 146.8 131.7 L 145.0 135.0 L 143.0 138.3 L 140.9 141.7 L 138.8 145.0 L 136.6 148.4 L 135.97989559173584 149.24334201812744 L 137.7 149.1 L 141.6 148.7 L 145.8 148.3 L 150.3 147.8 L 155.1 147.2 L 160.3 146.7 L 160.6666666984558 146.659259223938 L 160.3 145.6 L 158.1 140.4 L 156.8 137.9 L 155.4 135.3 L 154.0 132.6 L 152.1 130.3 L 153.3 129.0 L 155.8 130.8 L 158.5 132.5 L 161.0 134.5 L 163.3 136.6 L 165.5 138.8 L 167.6 141.2 L 169.6 143.8 L 171.4 146.4 L 173.1 149.2 L 174.6 152.1 L 174.3 156.7 L 170.9 159.8 L 166.4 159.5 L 163.3 156.1 L 162.7 153.4 Z M 51.7 76.5 L 51.7 105.5 L 94.0 105.5 L 94.0 76.5 Z M 106.0 76.5 L 106.0 105.5 L 148.2 105.5 L 148.2 76.5 Z M 51.7 44.5 L 51.7 72.5 L 94.0 72.5 L 94.0 44.5 Z M 106.0 44.5 L 106.0 72.5 L 148.2 72.5 L 148.2 44.5 Z " />
</g>
</svg>
