<?xml version="1.0" encoding="UTF-8" standalone="no"?>
<svg
   version="1.1"
   viewBox="0 0 200 200"
   width="200"
   height="200"
   id="svg1"
   sodipodi:docname="2FC5.svg"
   inkscape:version="1.4 (86a8ad7, 2024-10-11)"
   xmlns:inkscape="http://www.inkscape.org/namespaces/inkscape"
   xmlns:sodipodi="http://sodipodi.sourceforge.net/DTD/sodipodi-0.dtd"
   xmlns="http://www.w3.org/2000/svg"
   xmlns:svg="http://www.w3.org/2000/svg">
  <defs
     id="defs1" />
  <sodipodi:namedview
     id="namedview1"
     pagecolor="#ffffff"
     bordercolor="#666666"
     borderopacity="1.0"
     inkscape:showpageshadow="2"
     inkscape:pageopacity="0.0"
     inkscape:pagecheckerboard="0"
     inkscape:deskcolor="#d1d1d1"
     inkscape:zoom="3.775"
     inkscape:cx="100"
     inkscape:cy="100"
     inkscape:window-width="1680"
     inkscape:window-height="998"
     inkscape:window-x="-8"
     inkscape:window-y="-8"
     inkscape:window-maximized="1"
     inkscape:current-layer="g1" />
  <g
     fill="black"
     id="g1">
    <path
       id="path1"
       d="M 98 13 L 98 36 L 40 36 L 28 30 L 28 99 L 28.099609 110.80078 L 27.800781 121.90039 L 27.199219 132.30078 L 26.199219 142 L 24.800781 151 L 23.099609 159.30078 L 21.099609 166.90039 L 18.699219 173.90039 L 16.099609 180.40039 L 13.199219 186.40039 L 14.699219 187.5 L 19.400391 182.40039 L 23.599609 176.30078 L 27.199219 169.30078 L 30.400391 161.5 L 33.099609 152.90039 L 35.300781 143.59961 L 37.099609 133.5 L 38.5 122.69922 L 39.400391 111.19922 L 39.902344 101 L 162 101 L 162 109 L 174 103 L 174 73 L 179 69 L 168 60 L 162 65 L 131 65 L 131 40 L 184 40 L 184 36 L 172 26 L 162 36 L 110 36 L 110 18.800781 L 113 17 L 110 15 L 98 13 z M 40 40 L 75 40 L 75 65 L 40 65 L 40 40 z M 87 40 L 119 40 L 119 65 L 87 65 L 87 40 z M 40 69 L 75 69 L 75 97 L 40 97 L 40 69 z M 87 69 L 119 69 L 119 97 L 87 97 L 87 69 z M 131 69 L 162 69 L 162 97 L 131 97 L 131 69 z M 57 102 L 57 171.13672 L 52 171.90039 L 44.900391 173 L 38 173.90039 L 36 174.19922 L 39.900391 185.69922 L 42.400391 188.30078 L 43.941406 184.8457 L 47 184.19922 L 54.099609 182.5 L 68.5 178.69922 L 75.699219 176.5 L 83 174.19922 L 90.300781 171.80078 L 97.599609 169.09961 L 104.90039 166.09961 L 112.19922 162.80078 L 111.69922 161.09961 L 103.80078 162.5 L 96.099609 163.90039 L 81.099609 166.90039 L 73.699219 168.30078 L 69 169.13672 L 69 136 L 110 136 L 110 132 L 100 123 L 91.818359 132 L 69 132 L 69 107.80078 L 72 106 L 69 104 L 57 102 z M 118 102 L 118 167 L 118.09961 169.5 L 118.5 172 L 119.30078 174.40039 L 120.59961 176.69922 L 122.19922 178.69922 L 124.19922 180.30078 L 126.5 181.59961 L 128.90039 182.40039 L 131.40039 182.80078 L 134 183 L 178 183 L 181.59961 180.59961 L 184 177 L 181.59961 173.40039 L 178 171 L 180 146 L 178 146 L 172 171 L 134 171 L 132.69922 170.90039 L 131.80078 170.69922 L 130.90039 170.40039 L 130.5 170 L 130.19922 169.09961 L 130 168.19922 L 130 140.77148 L 130.40039 140.69922 L 136.30078 139.5 L 142 138.09961 L 147.30078 136.59961 L 152.40039 135 L 157.19922 133.40039 L 161.69922 131.69922 L 166.09961 130.09961 L 170.09961 128.40039 L 172.61914 127.30273 L 176.30078 128.80078 L 176.09961 125.5 L 169.92773 119.32812 L 168.19922 116.19922 L 167.34375 116.74414 L 167.30078 116.69922 L 167.33398 116.75195 L 164.90039 118.30078 L 161.40039 120.40039 L 157.5 122.59961 L 153.5 124.90039 L 149.09961 127.19922 L 144.5 129.5 L 139.59961 131.90039 L 134.5 134.40039 L 130 136.77734 L 130 107.80078 L 133 106 L 130 104 L 118 102 z " />
  </g>
</svg>
