<svg xmlns="http://www.w3.org/2000/svg" xmlns:xlink="http://www.w3.org/1999/xlink" version="1.1" baseProfile="full" viewBox="0 0 200 200" width="200" height="200">
<g fill="black">
<path d="M 110.0 27.0 L 90.0 27.0 L 90.0 170.2 L 90.2 171.1 L 90.5 172.0 L 90.9 172.4 L 91.8 172.7 L 92.7 172.9 L 94.0 173.0 L 110.0 173.0 Z M 122.0 115.0 L 122.0 138.0 L 160.0 138.0 L 160.0 115.0 Z M 40.0 115.0 L 40.0 138.0 L 78.0 138.0 L 78.0 115.0 Z M 122.0 89.0 L 122.0 111.0 L 160.0 111.0 L 160.0 89.0 Z M 40.0 89.0 L 40.0 111.0 L 78.0 111.0 L 78.0 89.0 Z M 122.0 27.0 L 122.0 56.0 L 153.0 56.0 L 153.0 27.0 Z M 47.0 27.0 L 47.0 56.0 L 78.0 56.0 L 78.0 27.0 Z M 178.0 148.0 L 180.0 148.0 L 178.0 173.0 L 181.6 175.4 L 184.0 179.0 L 181.6 182.6 L 178.0 185.0 L 94.0 185.0 L 91.4 184.8 L 88.9 184.4 L 86.5 183.6 L 84.2 182.3 L 82.2 180.7 L 80.6 178.7 L 79.3 176.4 L 78.5 174.0 L 78.1 171.5 L 78.0 169.0 L 78.0 142.0 L 40.0 142.0 L 40.0 154.0 L 28.0 160.0 L 28.0 79.0 L 40.0 85.0 L 78.0 85.0 L 78.0 60.0 L 47.0 60.0 L 47.0 67.0 L 35.0 73.0 L 35.0 17.0 L 47.0 23.0 L 153.0 23.0 L 159.0 18.0 L 170.0 27.0 L 165.0 31.0 L 165.0 64.0 L 153.0 70.0 L 153.0 60.0 L 122.0 60.0 L 122.0 85.0 L 160.0 85.0 L 166.0 80.0 L 177.0 89.0 L 172.0 93.0 L 172.0 148.0 L 160.0 154.0 L 160.0 142.0 L 122.0 142.0 L 122.0 173.0 L 172.0 173.0 Z " />
</g>
</svg>
