<svg xmlns="http://www.w3.org/2000/svg" xmlns:xlink="http://www.w3.org/1999/xlink" version="1.1" baseProfile="full" viewBox="0 0 200 200" width="200" height="200">
<g fill="black">
<path d="M 184.0 144.0 L 184.0 148.0 L 138.0 148.0 L 138.0 183.0 L 126.0 189.0 L 126.0 148.0 L 77.6136986732483 148.0 L 76.8 153.4 L 74.4 160.2 L 70.9 166.2 L 66.2 171.5 L 60.5 176.1 L 53.9 179.9 L 46.3 182.9 L 37.9 185.3 L 28.4 187.0 L 18.1 187.8 L 17.8 186.1 L 27.6 183.2 L 36.3 180.2 L 43.8 176.9 L 50.2 173.2 L 55.4 169.3 L 59.5 165.2 L 62.5 160.8 L 64.5 156.1 L 65.7 151.2 L 65.82307691574097 148.0 L 16.0 148.0 L 16.0 144.0 L 165.8181818008423 144.0 L 174.0 135.0 Z M 37.0 138.4 L 37.0 88.6 L 49.0 94.6 L 150.9 94.6 L 156.9 89.6 L 167.9 98.6 L 162.9 102.6 L 162.9 132.4 L 150.9 138.4 L 150.9 132.4 L 49.0 132.4 Z M 49.0 115.2 L 49.0 128.4 L 94.0 128.4 L 94.0 115.2 Z M 106.0 115.2 L 106.0 128.4 L 150.9 128.4 L 150.9 115.2 Z M 49.0 98.6 L 49.0 111.2 L 94.0 111.2 L 94.0 98.6 Z M 106.0 98.6 L 106.0 111.2 L 150.9 111.2 L 150.9 98.6 Z M 104.8 22.1 L 104.0 22.3 L 102.8 22.7 L 102.4 22.9 L 104.8 22.1 L 105.2 25.7 L 100.27151584625244 23.997432804107667 L 99.7 24.3 L 97.8 25.4 L 95.6 26.8 L 93.1 28.3 L 90.4 30.1 L 87.62631578445435 31.8 L 139.9 31.8 L 145.9 26.8 L 156.9 35.8 L 151.9 39.8 L 151.9 83.5 L 139.9 89.5 L 139.9 83.5 L 60.1 83.5 L 48.1 89.5 L 48.1 25.8 L 60.1 31.8 L 84.30714282989501 31.8 L 85.7 30.3 L 87.7 27.3 L 89.6 24.6 L 91.3 22.2 L 92.7 20.1 L 94.0 18.2 L 95.1 16.5 L 95.9 15.1 L 96.6 13.9 L 96.6725664138794 13.779056072235107 L 96.4 13.5 L 97.3 12.8 Z M 60.1 66.6 L 60.1 79.5 L 139.9 79.5 L 139.9 66.6 Z M 60.1 50.7 L 60.1 62.6 L 139.9 62.6 L 139.9 50.7 Z M 60.1 35.8 L 60.1 46.7 L 139.9 46.7 L 139.9 35.8 Z " />
</g>
</svg>
