<svg xmlns="http://www.w3.org/2000/svg" xmlns:xlink="http://www.w3.org/1999/xlink" version="1.1" baseProfile="full" viewBox="0 0 200 200" width="200" height="200">
<g fill="black">
<path d="M 91.1 168.1 L 91.2 168.7 L 91.4 169.1 L 91.5 169.4 L 91.7 169.6 L 92.1 169.9 L 92.7 170.1 L 93.7 170.3 L 95.0 170.5 L 107.0 170.5 L 107.0 153.0 L 91.0 153.0 L 91.0 167.2 Z M 91.0 104.0 L 91.0 149.0 L 107.0 149.0 L 107.0 104.0 Z M 119.0 104.0 L 119.0 149.0 L 162.0 149.0 L 162.0 104.0 Z M 141.5 134.8 L 140.2719298362732 132.95789470672608 L 138.0 135.1 L 134.4 138.1 L 130.6 140.9 L 126.6 143.4 L 122.5 145.7 L 121.4 144.2 L 127.2 137.2 L 129.9 133.7 L 132.6 130.1 L 135.2 126.5 L 135.37483444213868 126.23046360015869 L 135.2 126.0 L 133.0 123.2 L 130.6 120.4 L 128.3 117.7 L 125.9 114.9 L 123.3 112.3 L 124.3 110.8 L 127.7 112.5 L 131.1 114.1 L 134.4 116.0 L 137.6 118.1 L 139.56315174102784 119.55653190612793 L 139.9 119.0 L 142.1 115.1 L 144.2 111.1 L 145.79016389846802 107.84016389846802 L 145.7 107.8 L 146.7 106.0 L 156.7 112.7 L 158.4 115.9 L 154.5576826095581 116.03249368667602 L 154.0 116.9 L 151.1 120.9 L 148.0 124.7 L 147.07851705551147 125.76546468734742 L 149.6 128.2 L 152.4 131.0 L 155.1 134.0 L 156.1 138.5 L 153.7 142.4 L 149.2 143.4 L 145.3 141.0 L 143.5 137.9 Z M 91.0 53.0 L 91.0 100.0 L 107.0 100.0 L 107.0 53.0 Z M 119.0 53.0 L 119.0 73.0 L 152.0 73.0 L 152.0 53.0 Z M 48.0 53.0 L 48.0 73.0 L 79.0 73.0 L 79.0 53.0 Z M 64.75862064361573 28.0 L 63.3 29.8 L 58.2 35.4 L 52.9 40.7 L 47.2 45.7 L 44.992258071899414 47.49612903594971 L 48.0 49.0 L 95.51428575515747 49.0 L 96.8 47.5 L 98.9 44.5 L 100.9 41.7 L 102.9 38.8 L 104.8 36.1 L 106.7 33.3 L 108.4 30.6 L 109.94074077606201 28.0 Z M 183.0 149.5 L 185.0 149.5 L 183.0 170.5 L 186.3 172.7 L 188.5 176.0 L 186.3 179.3 L 183.0 181.5 L 95.0 181.5 L 92.4 181.4 L 90.0 181.0 L 87.6 180.2 L 85.4 179.1 L 83.4 177.5 L 81.7 175.6 L 80.5 173.4 L 79.6 171.0 L 79.1 168.5 L 79.0 166.0 L 79.0 153.0 L 64.0 153.0 L 64.0 175.0 L 52.0 181.0 L 52.0 169.0 L 21.0 169.0 L 21.0 165.0 L 52.0 165.0 L 52.0 153.0 L 14.0 153.0 L 14.0 149.0 L 52.0 149.0 L 52.0 137.0 L 21.0 137.0 L 21.0 133.0 L 52.0 133.0 L 58.0 128.0 L 69.0 137.0 L 64.0 141.0 L 64.0 149.0 L 79.0 149.0 L 79.0 104.0 L 64.0 104.0 L 64.0 120.0 L 52.0 126.0 L 52.0 120.0 L 21.0 120.0 L 21.0 116.0 L 52.0 116.0 L 52.0 104.0 L 14.0 104.0 L 14.0 100.0 L 52.0 100.0 L 52.0 90.0 L 21.0 90.0 L 21.0 86.0 L 52.0 86.0 L 58.0 81.0 L 69.0 90.0 L 64.0 94.0 L 64.0 100.0 L 79.0 100.0 L 79.0 77.0 L 48.0 77.0 L 36.0 83.0 L 36.0 54.43225803375244 L 35.1 55.1 L 28.6 59.3 L 21.7 63.2 L 14.4 66.7 L 13.5 65.2 L 19.5 60.1 L 25.4 55.0 L 31.0 50.0 L 36.0 45.09433965682983 L 36.0 43.0 L 37.385806465148924 43.692903232574466 L 41.4 39.6 L 46.2 34.2 L 50.6 28.8 L 54.8 23.2 L 58.7 17.4 L 61.826735496520996 12.414124393463135 L 61.8 12.4 L 62.9 10.7 L 72.4 18.0 L 73.9 21.4 L 70.00515699386597 21.265695095062256 L 68.0 24.0 L 112.0 24.0 L 112.39130430221557 23.67391300201416 L 113.0 22.5 L 113.43564357757569 22.803630352020264 L 118.0 19.0 L 129.0 28.0 L 124.0 31.0 L 119.77572250366211 32.76011562347412 L 118.3 34.3 L 115.8 36.7 L 113.2 39.1 L 110.6 41.3 L 107.8 43.5 L 104.9 45.7 L 101.8 47.7 L 99.61052627563477 49.0 L 152.0 49.0 L 158.0 44.0 L 169.0 53.0 L 164.0 57.0 L 164.0 81.0 L 152.0 87.0 L 152.0 77.0 L 119.0 77.0 L 119.0 100.0 L 162.0 100.0 L 168.0 95.0 L 179.0 104.0 L 174.0 108.0 L 174.0 157.0 L 162.0 163.0 L 162.0 153.0 L 119.0 153.0 L 119.0 170.5 L 177.5 170.5 Z " />
</g>
</svg>
