<svg xmlns="http://www.w3.org/2000/svg" xmlns:xlink="http://www.w3.org/1999/xlink" version="1.1" baseProfile="full" viewBox="0 0 200 200" width="200" height="200">
<g fill="black">
<path d="M 128.9 177.0 L 150.1 177.0 L 151.1 176.8 L 151.6 176.6 L 152.2 176.3 L 152.3 176.1 L 152.5 175.8 L 152.7 175.2 L 152.8 174.3 L 152.9 173.0 L 152.9 153.5 L 125.3 153.5 L 125.3 177.2 L 113.3 183.2 L 113.3 153.5 L 86.6 153.5 L 86.6 177.2 L 74.6 183.2 L 74.6 153.5 L 47.0 153.5 L 47.0 181.3 L 35.0 187.3 L 35.0 115.5 L 47.0 121.5 L 152.9 121.5 L 158.9 116.5 L 169.9 125.5 L 164.9 129.5 L 164.9 173.0 L 164.8 175.6 L 164.3 178.1 L 163.5 180.5 L 162.3 182.8 L 160.7 184.8 L 158.6 186.4 L 156.4 187.7 L 154.0 188.5 L 151.5 188.9 L 148.9 189.0 L 148.9 183.0 L 128.9 180.0 Z M 47.0 125.5 L 47.0 149.5 L 74.6 149.5 L 74.6 125.5 Z M 86.6 125.5 L 86.6 149.5 L 113.3 149.5 L 113.3 125.5 Z M 125.3 125.5 L 125.3 149.5 L 152.9 149.5 L 152.9 125.5 Z M 158.6 67.0 L 149.9 62.4 L 141.5 57.4 L 133.3 52.0 L 125.5 46.0 L 118.0 39.7 L 110.9 32.8 L 104.2 25.4 L 102.10175151824951 22.69258270263672 L 98.7 26.6 L 90.9 34.5 L 82.5 42.0 L 73.7 48.9 L 64.5 55.3 L 54.8 61.2 L 44.6 66.5 L 34.0 71.3 L 31.25714282989502 72.3285714149475 L 42.2 77.8 L 59.6 77.8 L 65.1 72.8 L 75.6 81.8 L 70.6 85.3 L 70.6 108.1 L 59.6 113.6 L 59.6 106.1 L 42.2 106.1 L 42.2 109.1 L 30.2 115.1 L 30.2 72.725 L 22.8 75.5 L 11.3 78.9 L 10.6 77.2 L 21.4 72.0 L 31.6 66.5 L 41.4 60.8 L 50.8 54.7 L 59.6 48.4 L 68.0 41.6 L 75.8 34.5 L 83.2 27.0 L 90.1 19.1 L 96.275 11.214999961853028 L 97.0 10.2 L 106.1 18.1 L 107.2 21.6 L 105.89547538757324 21.442557334899902 L 107.1 22.4 L 114.8 28.4 L 122.5 34.0 L 130.4 39.3 L 138.4 44.1 L 146.6 48.6 L 154.9 52.6 L 163.4 56.2 L 172.1 59.4 L 181.0 62.3 L 188.5 64.7 L 176.9 74.8 L 167.6 71.1 Z M 140.3 77.8 L 157.7 77.8 L 163.7 72.8 L 174.7 81.8 L 169.7 85.8 L 169.7 108.1 L 157.7 114.1 L 157.7 106.1 L 140.3 106.1 L 140.3 109.1 L 129.3 114.6 L 129.3 72.3 Z M 91.0 77.8 L 108.9 77.8 L 114.4 72.8 L 124.9 81.8 L 119.9 85.3 L 119.9 108.1 L 108.9 113.6 L 108.9 106.1 L 91.0 106.1 L 91.0 109.1 L 80.0 114.6 L 80.0 72.3 Z M 140.3 81.8 L 140.3 102.1 L 157.7 102.1 L 157.7 81.8 Z M 91.0 81.8 L 91.0 102.1 L 108.9 102.1 L 108.9 81.8 Z M 42.2 81.8 L 42.2 102.1 L 59.6 102.1 L 59.6 81.8 Z M 133.0 59.4 L 133.0 63.4 L 64.0 63.4 L 64.0 59.4 L 114.81818180084228 59.4 L 123.0 50.4 Z " />
</g>
</svg>
