<svg xmlns="http://www.w3.org/2000/svg" xmlns:xlink="http://www.w3.org/1999/xlink" version="1.1" baseProfile="full" viewBox="0 0 200 200" width="200" height="200">
<g fill="black">
<path d="M 71.9 111.4 L 70.4 122.7 L 68.0 133.2 L 64.8 143.1 L 60.7 152.3 L 55.8 160.6 L 50.1 168.2 L 43.6 175.0 L 36.3 180.9 L 28.2 185.8 L 19.4 189.8 L 18.5 188.1 L 26.1 182.6 L 32.9 176.7 L 38.9 170.4 L 44.1 163.6 L 48.6 156.3 L 52.3 148.4 L 55.3 139.9 L 57.6 130.7 L 59.1 121.0 L 60.0 110.5 L 60.0 14.0 L 72.0 16.0 L 75.0 18.0 L 72.0 19.8 L 72.0 111.0 L 71.74133329391479 111.38800001144409 Z M 154.1 167.9 L 143.6 156.2 L 134.3 143.1 L 134.20079193115234 142.92018537521363 L 128.4 149.9 L 114.6 162.8 L 99.3 173.8 L 82.5 182.8 L 64.3 189.8 L 63.6 188.1 L 80.7 179.4 L 96.2 169.3 L 110.2 157.8 L 122.7 144.8 L 129.95880222320557 135.23157892227172 L 126.3 128.6 L 119.6 112.7 L 114.0 95.4 L 109.7 76.6 L 106.7 56.5 L 105.26976747512818 36.0 L 87.0 36.0 L 87.0 32.0 L 167.0 32.0 L 173.0 27.0 L 184.0 36.0 L 179.0 39.0 L 178.01734104156495 39.40944128036499 L 174.4 58.3 L 168.3 80.1 L 160.6 100.2 L 151.4 118.6 L 141.05078182220458 134.55907468795778 L 142.9 137.5 L 152.1 149.1 L 162.2 159.3 L 173.2 167.9 L 185.1 175.2 L 190.0 177.8 L 178.8 186.7 L 165.8 178.1 Z M 107.1042857170105 36.0 L 110.8 55.9 L 115.5 75.3 L 120.9 93.2 L 127.3 109.5 L 134.6 124.3 L 135.967126083374 126.47422466278076 L 143.3 114.1 L 151.4 96.4 L 158.0 77.0 L 163.2 55.9 L 166.51666669845582 36.0 Z M 38.1 98.2 L 36.7 93.6 L 35.0 89.1 L 32.8 84.7 L 30.2 80.4 L 27.1 76.1 L 23.6 71.9 L 19.6 67.6 L 15.3 63.3 L 16.3 61.8 L 21.9 64.6 L 27.1 67.9 L 31.8 71.6 L 36.1 75.6 L 39.8 80.0 L 43.1 84.7 L 46.0 89.6 L 48.3 94.9 L 50.2 100.4 L 51.5 106.2 L 50.3 110.6 L 46.3 112.9 L 41.9 111.7 L 39.6 107.8 L 39.1 102.9 Z " />
</g>
</svg>
