<svg xmlns="http://www.w3.org/2000/svg" xmlns:xlink="http://www.w3.org/1999/xlink" version="1.1" baseProfile="full" viewBox="0 0 200 200" width="200" height="200">
<g fill="black">
<path d="M 130.7 183.7 L 112.3 182.6 L 97.2 180.8 L 85.0 178.1 L 75.1 174.6 L 67.2 170.3 L 61.1 165.3 L 56.4 159.6 L 54.27821521759033 155.8868766784668 L 52.0 158.1 L 48.4 161.5 L 44.9 164.6 L 41.3 167.7 L 37.7 170.6 L 26.9 178.7 L 23.323113918304443 181.18394861221313 L 23.1 185.2 L 19.8 183.6 L 12.1 174.3 L 13.8 173.3 L 17.6 171.4 L 21.4 169.6 L 29.2 165.6 L 33.2 163.6 L 37.2 161.5 L 44.0 158.1 L 44.0 109.0 L 14.0 109.0 L 14.0 105.0 L 44.0 105.0 L 50.0 100.0 L 61.0 109.0 L 56.0 113.0 L 56.0 153.70384616851806 L 59.5 156.8 L 64.9 160.7 L 70.8 164.1 L 78.0 166.8 L 87.1 169.0 L 98.6 170.6 L 113.0 171.6 L 130.9 171.9 L 152.6 171.5 L 178.7 170.4 L 190.0 169.9 L 179.2 183.5 L 152.9 184.0 Z M 133.8 143.4 L 131.6 140.5 L 129.2 137.7 L 126.5 134.9 L 123.5 132.1 L 120.2 129.3 L 116.7 126.5 L 114.5 124.77567567825318 L 114.5 160.0 L 102.5 166.0 L 102.5 121.72941179275513 L 99.7 125.6 L 95.9 130.1 L 91.8 134.4 L 87.4 138.6 L 82.6 142.5 L 77.4 146.3 L 71.8 149.7 L 65.8 152.9 L 64.8 151.4 L 69.5 146.7 L 73.9 142.2 L 78.1 137.7 L 81.9 133.3 L 85.4 128.8 L 88.6 124.4 L 91.4 119.9 L 93.8 115.4 L 96.0 110.9 L 96.0380952835083 110.8 L 85.1 110.8 L 85.1 117.8 L 73.1 123.8 L 73.1 71.3 L 85.1 77.3 L 102.5 77.3 L 102.5 61.2 L 65.3 61.2 L 65.3 57.2 L 102.5 57.2 L 102.5 34.9 L 114.5 36.9 L 117.5 38.9 L 114.5 40.7 L 114.5 57.2 L 130.7 57.2 L 140.7 47.2 L 152.7 57.2 L 152.7 61.2 L 114.5 61.2 L 114.5 77.3 L 130.1 77.3 L 136.1 72.3 L 147.1 81.3 L 142.1 85.3 L 142.1 110.8 L 130.1 116.8 L 130.1 110.8 L 114.5 110.8 L 114.5 120.7 L 119.1 122.3 L 123.5 124.1 L 127.6 126.2 L 131.5 128.5 L 135.1 130.9 L 138.5 133.5 L 141.7 136.3 L 144.7 139.3 L 147.4 142.4 L 148.3 146.9 L 145.8 150.8 L 141.3 151.6 L 137.4 149.2 L 135.8 146.3 Z M 168.5 151.1 L 164.5 143.3 L 161.4 133.6 L 158.9 121.7 L 157.1 107.6 L 155.8 91.2 L 155.1 72.5 L 155.0 51.4 L 155.36410255432128 30.1 L 71.6 30.1 L 71.6 26.1 L 155.4 26.1 L 161.4 21.1 L 172.4 30.1 L 167.4 33.1 L 167.31627902984619 33.13488368988037 L 167.0 51.4 L 167.1 72.2 L 167.8 90.5 L 169.0 106.4 L 170.8 119.8 L 173.0 130.6 L 175.6 138.8 L 177.44725894927979 142.42854442596436 L 182.0 122.7 L 184.0 122.7 L 182.09215688705444 147.50196075439453 L 182.8 147.8 L 186.7 150.1 L 187.9 154.5 L 185.6 158.4 L 181.2 159.7 L 174.0 156.8 Z M 85.1 81.3 L 85.1 106.8 L 102.5 106.8 L 102.5 81.3 Z M 114.5 81.3 L 114.5 106.8 L 130.1 106.8 L 130.1 81.3 Z M 38.3 77.2 L 36.1 74.7 L 33.7 72.2 L 31.2 69.7 L 28.5 67.3 L 25.7 65.0 L 22.8 62.6 L 19.8 60.3 L 16.5 58.2 L 17.2 56.5 L 21.1 57.6 L 24.9 58.6 L 28.6 60.0 L 32.2 61.5 L 35.7 63.3 L 39.1 65.2 L 42.4 67.3 L 45.5 69.6 L 48.6 72.1 L 51.5 74.7 L 52.9 79.1 L 50.9 83.2 L 46.6 84.6 L 42.5 82.6 L 40.5 79.9 Z M 47.9 41.9 L 46.0 39.3 L 43.9 36.8 L 41.6 34.3 L 39.1 31.8 L 36.5 29.4 L 33.7 26.9 L 30.7 24.4 L 27.5 22.2 L 28.2 20.6 L 32.1 21.8 L 35.9 23.1 L 39.5 24.6 L 43.0 26.2 L 46.4 28.1 L 49.6 30.2 L 52.7 32.4 L 55.6 34.7 L 58.3 37.3 L 61.0 40.0 L 62.0 44.4 L 59.8 48.4 L 55.3 49.4 L 51.4 47.2 L 49.7 44.5 Z " />
</g>
</svg>
