<svg xmlns="http://www.w3.org/2000/svg" xmlns:xlink="http://www.w3.org/1999/xlink" version="1.1" baseProfile="full" viewBox="0 0 200 200" width="200" height="200">
<g fill="black">
<path d="M 164.5 178.1 L 158.6 168.6 L 154.0 156.3 L 150.3 141.3 L 147.6 123.5 L 145.7 102.8 L 144.6 79.1 L 144.4 52.4 L 144.95540542602538 25.0 L 16.0 25.0 L 16.0 21.0 L 145.0 21.0 L 151.0 16.0 L 162.0 25.0 L 157.0 28.0 L 156.8153582572937 28.07693405151367 L 156.4 52.5 L 156.6 78.8 L 157.6 102.0 L 159.5 122.1 L 162.1 139.1 L 165.5 152.8 L 169.4 163.4 L 173.8 170.5 L 176.85838146209716 173.28034677505494 L 182.0 151.0 L 184.0 151.0 L 182.09028959274292 175.8262351036072 L 182.6 176.0 L 186.6 178.2 L 187.9 182.6 L 185.7 186.6 L 181.3 187.9 L 172.1 184.8 Z M 117.1 177.4 L 115.2 179.0 L 113.3 180.4 L 111.2 181.5 L 109.0 182.5 L 106.7 183.2 L 104.4 183.7 L 102.0 184.1 L 99.5 184.2 L 99.5 178.2 L 79.5 175.2 L 79.5 172.2 L 99.5 172.2 L 101.0 172.1 L 102.3 171.9 L 103.6 171.6 L 104.7 171.3 L 105.8 170.8 L 106.9 170.2 L 107.9 169.5 L 108.9 168.7 L 109.8 167.7 L 110.7 166.6 L 112.3 164.0 L 113.9 160.4 L 115.5 155.6 L 116.9 149.8 L 118.3 142.9 L 119.4 135.1 L 120.4 126.2 L 121.3 116.4 L 121.9 105.6 L 122.30677967071533 96.0 L 107.69018306732178 96.0 L 106.6 108.6 L 94.1 113.3 L 100.59635257720947 49.5 L 82.34059410095215 49.5 L 81.8 67.7 L 80.5 86.6 L 78.5 104.1 L 75.8 120.2 L 72.4 134.8 L 68.3 148.1 L 63.5 159.9 L 58.0 170.2 L 51.7 178.9 L 44.6 185.9 L 43.3 184.7 L 48.6 176.7 L 53.3 167.6 L 57.5 157.4 L 61.1 145.8 L 64.2 132.9 L 66.6 118.6 L 68.5 102.9 L 69.8 85.8 L 70.4 67.4 L 70.4 49.5 L 55.5 49.5 L 55.5 45.5 L 100.8 45.5 L 106.8 40.5 L 117.8 49.5 L 112.8 52.5 L 111.40356731414795 53.08184690475464 L 108.03627290725709 92.0 L 122.4 92.0 L 128.4 87.0 L 139.4 96.0 L 134.4 99.0 L 134.19646644592285 99.08480567932129 L 133.9 106.2 L 133.2 117.3 L 132.4 127.4 L 131.3 136.6 L 130.1 144.9 L 128.7 152.4 L 127.0 158.9 L 125.1 164.7 L 122.9 169.6 L 120.3 173.8 L 118.8 175.7 Z M 34.0 185.6 L 30.0 183.6 L 28.4 179.3 L 28.9 173.0 L 29.0 167.4 L 28.6 162.2 L 27.9 157.6 L 26.7 153.5 L 25.422135734558104 150.62480535507203 L 25.0 150.5 L 25.18241205215454 150.08542709350587 L 25.1 149.9 L 23.2 146.6 L 20.7 143.5 L 17.7 140.7 L 14.1 138.2 L 14.7 136.5 L 19.4 137.5 L 23.8 139.4 L 27.8 142.2 L 28.10882349014282 142.50882349014282 L 29.3 139.2 L 31.6 133.0 L 34.2 125.5 L 37.2 116.8 L 40.7 106.8 L 44.6 95.6 L 49.1 83.2 L 54.2 69.6 L 55.9 70.1 L 52.7 84.3 L 49.8 97.1 L 47.0 108.6 L 44.5 118.9 L 42.3 127.9 L 40.5 135.6 L 37.8 147.3 L 37.0 151.2 L 36.5 153.9 L 36.04420003890991 153.76524171829223 L 36.6 154.9 L 38.4 160.3 L 39.6 166.4 L 40.3 172.9 L 40.4 180.0 L 38.3 184.1 Z M 25.8 94.2 L 25.0 92.5 L 23.9 90.7 L 22.7 88.9 L 21.2 87.1 L 19.5 85.3 L 17.5 83.4 L 15.4 81.5 L 12.9 80.0 L 13.5 78.4 L 16.4 79.3 L 19.4 80.0 L 22.2 80.9 L 24.9 82.0 L 27.4 83.2 L 29.7 84.7 L 32.0 86.3 L 34.0 88.1 L 35.9 90.0 L 37.6 92.2 L 37.9 96.8 L 35.0 100.3 L 30.4 100.6 L 26.9 97.6 L 26.5 95.9 Z M 37.6 51.5 L 36.8 49.9 L 35.9 48.2 L 34.6 46.4 L 33.2 44.5 L 31.5 42.7 L 29.6 40.7 L 27.5 38.7 L 24.9 37.1 L 25.7 35.5 L 28.6 36.6 L 31.5 37.4 L 34.3 38.4 L 36.9 39.5 L 39.4 40.8 L 41.7 42.2 L 43.8 43.7 L 45.8 45.4 L 47.6 47.3 L 49.2 49.3 L 49.5 53.9 L 46.5 57.3 L 42.0 57.6 L 38.5 54.6 L 38.1 53.1 Z " />
</g>
</svg>
