<svg xmlns="http://www.w3.org/2000/svg" xmlns:xlink="http://www.w3.org/1999/xlink" version="1.1" baseProfile="full" viewBox="0 0 200 200" width="200" height="200">
<g fill="black">
<path d="M 166.3 177.3 L 161.5 167.7 L 157.7 155.6 L 154.8 140.6 L 152.6 122.9 L 151.1 102.2 L 150.4 78.7 L 150.3 52.2 L 150.94761905670165 25.0 L 16.0 25.0 L 16.0 21.0 L 151.0 21.0 L 157.0 16.0 L 168.0 25.0 L 163.0 28.0 L 162.7975820541382 28.084340858459473 L 162.3 52.3 L 162.3 78.5 L 163.1 101.6 L 164.5 121.7 L 166.6 138.8 L 169.4 152.7 L 172.7 163.3 L 176.4 170.7 L 177.23391304016113 171.65304346084594 L 182.0 151.0 L 184.0 151.0 L 182.10347394943238 175.65483875274657 L 182.9 176.0 L 186.8 178.5 L 187.9 182.9 L 185.4 186.8 L 181.0 187.9 L 172.7 184.3 Z M 59.7 175.3 L 92.8 175.3 L 92.8 137.4 L 55.2 137.4 L 55.2 133.4 L 92.8 133.4 L 92.8 106.15362319946288 L 89.9 106.7 L 82.7 107.8 L 75.4 108.7 L 67.7 109.3 L 59.8 109.6 L 59.6 107.8 L 67.1 105.6 L 74.3 103.5 L 81.4 101.4 L 88.1 99.4 L 94.7 97.3 L 100.9 95.1 L 106.9 92.8 L 112.6 90.5 L 118.1 88.0 L 122.41396856307983 85.92597665786744 L 122.4 85.9 L 122.42353773117065 85.9213761329651 L 123.3 85.5 L 124.17990169525146 87.51644134521484 L 132.2 94.8 L 132.3 98.0 L 128.45578508377076 96.3524793624878 L 128.1 96.5 L 122.3 98.6 L 116.3 100.6 L 110.0 102.4 L 104.8 103.68000001907349 L 104.8 133.4 L 120.4 133.4 L 130.4 123.4 L 142.4 133.4 L 142.4 137.4 L 104.8 137.4 L 104.8 175.3 L 115.8 175.3 L 125.8 165.3 L 137.8 175.3 L 137.8 179.3 L 59.7 179.3 Z M 32.2 184.9 L 28.1 182.9 L 26.6 178.6 L 27.1 172.5 L 27.3 166.9 L 27.0 161.9 L 26.4 157.4 L 25.4 153.4 L 24.584228229522704 151.140939617157 L 23.5 150.9 L 23.99337282180786 149.599289894104 L 22.4 146.6 L 20.3 143.7 L 17.7 140.9 L 14.4 138.5 L 15.1 136.8 L 19.4 137.9 L 23.5 139.8 L 26.948962688446045 142.38672199249268 L 28.1 139.6 L 30.6 133.9 L 33.5 127.3 L 36.9 119.6 L 40.8 111.0 L 45.3 101.4 L 50.4 90.8 L 56.1 79.2 L 57.8 79.9 L 53.9 92.2 L 50.3 103.4 L 46.9 113.4 L 44.0 122.4 L 41.4 130.3 L 39.3 137.1 L 37.6 142.9 L 36.3 147.6 L 35.5 151.2 L 35.2 153.5 L 34.485566997528075 153.34123706817627 L 35.2 154.9 L 36.8 160.2 L 37.9 166.1 L 38.5 172.5 L 38.6 179.3 L 36.5 183.4 Z M 27.1 93.8 L 26.3 92.2 L 25.2 90.5 L 23.9 88.7 L 22.3 86.9 L 20.5 85.1 L 18.3 83.3 L 16.0 81.3 L 13.2 79.9 L 13.9 78.2 L 17.0 79.1 L 20.1 79.8 L 23.0 80.6 L 25.8 81.6 L 28.4 82.8 L 30.8 84.2 L 33.1 85.8 L 35.2 87.6 L 37.1 89.6 L 38.8 91.7 L 39.1 96.3 L 36.1 99.8 L 31.5 100.0 L 28.1 97.0 L 27.7 95.5 Z M 128.6706027984619 33.07263708114624 L 137.6 40.8 L 137.8 43.9 L 133.84824504852295 42.18953886032104 L 132.2 42.8 L 126.5 44.5 L 120.7 46.0 L 114.8 47.4 L 108.8 48.7 L 102.7 49.9 L 96.5 50.9 L 90.2 51.7 L 83.8 52.3 L 82.29275360107422 52.39275360107422 L 82.4 52.5 L 78.83724699020385 53.795546531677246 L 78.5 55.0 L 76.9 59.9 L 75.1 64.6 L 73.3 69.1 L 71.2 73.4 L 69.0 77.6 L 66.6 81.5 L 64.0 85.2 L 61.2 88.6 L 58.2 91.7 L 56.7 90.7 L 58.2 86.8 L 59.6 82.8 L 61.0 78.7 L 62.3 74.6 L 63.5 70.4 L 64.6 66.1 L 65.7 61.7 L 66.6 57.1 L 67.4 52.5 L 67.95620613098144 48.60655736923218 L 67.9 48.6 L 68.07142858505249 47.8 L 68.1 47.6 L 68.11368913650513 47.60278425216675 L 68.5 45.8 L 76.81611671447754 48.86383247375488 L 82.8 47.0 L 88.9 45.3 L 94.8 43.5 L 106.4 39.7 L 112.0 37.8 L 117.5 35.8 L 122.9 33.7 L 127.23079175949097 31.867741966247557 L 127.2 31.8 L 127.26268653869629 31.854247951507567 L 128.1 31.5 Z M 129.6 76.6 L 128.8 73.7 L 127.9 70.8 L 126.8 67.8 L 125.5 64.7 L 124.2 61.5 L 122.6 58.2 L 121.0 54.8 L 119.1 51.5 L 120.5 50.4 L 123.3 53.1 L 126.2 55.7 L 128.8 58.4 L 131.3 61.1 L 133.5 63.9 L 135.6 66.8 L 137.5 69.7 L 139.3 72.7 L 140.9 75.7 L 142.3 78.7 L 141.8 83.3 L 138.3 86.2 L 133.7 85.7 L 130.8 82.2 L 130.3 79.4 Z M 96.4 75.1 L 96.2 72.7 L 95.9 70.4 L 95.5 68.1 L 95.0 65.7 L 94.4 63.4 L 93.8 61.0 L 93.1 58.5 L 91.8 56.3 L 93.3 55.2 L 95.0 57.1 L 97.1 58.9 L 99.0 60.9 L 100.7 63.0 L 102.3 65.2 L 103.8 67.5 L 105.1 69.9 L 106.3 72.5 L 107.4 75.1 L 108.4 77.8 L 107.3 82.2 L 103.4 84.7 L 99.0 83.6 L 96.5 79.8 L 96.5 77.4 Z M 37.7 53.7 L 36.8 51.9 L 35.7 50.2 L 34.4 48.4 L 32.9 46.6 L 31.2 44.8 L 29.3 43.0 L 27.1 41.1 L 24.6 39.7 L 25.3 38.0 L 28.1 38.9 L 31.1 39.6 L 33.9 40.4 L 36.5 41.5 L 39.0 42.7 L 41.4 44.0 L 43.7 45.6 L 45.7 47.3 L 47.7 49.2 L 49.4 51.3 L 49.8 55.9 L 47.0 59.5 L 42.4 59.9 L 38.8 57.0 L 38.4 55.4 Z " />
</g>
</svg>
