<svg xmlns="http://www.w3.org/2000/svg" xmlns:xlink="http://www.w3.org/1999/xlink" version="1.1" baseProfile="full" viewBox="0 0 200 200" width="200" height="200">
<g fill="black">
<path d="M 53.0 171.3 L 50.82544202804566 172.64174852371215 L 53.3 173.1 L 61.4 173.7 L 72.0 173.9 L 164.0 173.9 L 170.0 148.9 L 172.0 148.9 L 170.0 173.9 L 173.6 176.3 L 176.0 179.9 L 173.6 183.5 L 170.0 185.9 L 72.0 185.9 L 60.8 185.7 L 51.9 185.0 L 44.9 183.8 L 39.3 181.5 L 35.0 175.6 L 36.9 168.6 L 41.3 164.4 L 47.4 160.7 L 55.5 156.9 L 65.7 152.6 L 122.1235294342041 130.8 L 30.0 130.8 L 30.0 126.8 L 138.0 126.8 L 144.0 121.8 L 153.6098671913147 129.66261863708496 L 157.8 129.8 L 154.59720726013182 131.04167566299438 L 150.0 133.8 L 138.0 138.8 L 138.0 137.47616872787475 L 70.1 163.8 L 60.3 167.9 Z M 168.0 119.0 L 166.0 120.3 L 164.0 121.5 L 161.9 122.5 L 159.7 123.3 L 157.4 124.0 L 155.1 124.4 L 152.7 124.7 L 150.3 124.8 L 150.3 118.8 L 130.3 115.8 L 130.3 112.8 L 150.3 112.8 L 151.8 112.7 L 153.3 112.5 L 154.7 112.3 L 156.0 111.9 L 157.2 111.4 L 158.5 110.9 L 159.6 110.2 L 160.8 109.4 L 161.9 108.5 L 163.1 107.4 L 164.1 106.1 L 165.1 104.4 L 166.1 102.2 L 167.0 99.4 L 167.7 96.1 L 168.3 92.3 L 168.7 88.0 L 168.8 83.2 L 168.8 81.91666669845581 L 168.6 82.0 L 168.6 74.0 L 129.789830493927 74.0 L 139.4 79.4 L 141.4 82.4 L 137.321875 82.9625 L 137.3 83.0 L 135.9701421737671 84.96587677001953 L 136.3 85.0 L 139.2 85.5 L 141.9 86.1 L 144.6 86.9 L 147.1 87.8 L 149.6 88.8 L 151.9 89.9 L 154.2 91.2 L 156.4 92.5 L 158.2 96.7 L 156.6 101.0 L 152.91509437561035 102.57924528121949 L 157.5 106.4 L 157.5 110.4 L 104.0 110.4 L 104.0 113.4 L 92.0 119.4 L 92.0 86.93773584365844 L 88.0 88.9 L 82.5 91.2 L 76.7 93.2 L 76.64529914855957 93.08376064300538 L 73.0 96.0 L 73.0 114.8 L 61.0 120.8 L 61.0 114.8 L 33.0 114.8 L 21.0 120.8 L 21.0 82.0 L 33.0 88.0 L 61.0 88.0 L 67.0 83.0 L 76.67681159973145 90.91739130020142 L 80.7 87.9 L 85.2 84.3 L 89.7 80.8 L 93.9 77.3 L 97.9 73.7 L 101.7 70.1 L 105.3 66.5 L 108.6 62.8 L 111.63157892227173 59.2 L 103.7 59.2 L 91.7 65.2 L 91.7 16.2 L 103.7 22.2 L 159.8 22.2 L 165.8 17.2 L 176.8 26.2 L 171.8 30.2 L 171.8 59.2 L 159.8 65.2 L 159.8 59.2 L 120.1543210029602 59.2 L 124.0 62.7 L 125.0 66.2 L 121.1777777671814 65.59649124145508 L 120.2 66.6 L 116.61621618270874 70.0 L 168.6 70.0 L 174.6 65.0 L 185.6 74.0 L 180.77363348007202 76.89581995010376 L 180.8 77.7 L 180.8 83.4 L 180.6 88.7 L 180.2 93.7 L 179.5 98.2 L 178.6 102.5 L 177.4 106.3 L 175.8 109.9 L 173.9 113.0 L 171.6 115.8 L 169.8 117.5 Z M 33.0 92.0 L 33.0 110.8 L 61.0 110.8 L 61.0 92.0 Z M 111.96666669845581 74.0 L 107.7 77.2 L 103.1 80.4 L 98.3 83.5 L 96.16697244644165 84.6944953918457 L 104.0 86.0 L 107.0 88.0 L 104.0 89.8 L 104.0 106.4 L 135.5 106.4 L 144.8133333206177 97.08666667938232 L 144.3 96.5 L 142.8 94.9 L 141.0 93.4 L 139.1 91.8 L 137.1 90.2 L 134.9 88.6 L 133.81832637786866 87.80050210952759 L 132.3 89.6 L 129.4 92.5 L 126.3 95.2 L 122.9 97.7 L 119.3 100.0 L 115.4 101.9 L 111.2 103.6 L 107.0 105.2 L 106.1 103.5 L 109.7 100.9 L 112.8 98.1 L 115.7 95.3 L 118.3 92.4 L 120.6 89.6 L 122.7 86.7 L 124.5 83.8 L 126.0 80.8 L 127.3 77.8 L 128.04049730300903 75.713143825531 L 128.0 75.7 L 128.34054050445556 74.86756753921509 L 128.4 74.7 L 128.40773830413818 74.70330638885498 L 128.69545450210572 74.0 Z M 72.3 73.0 L 72.3 77.0 L 21.7 77.0 L 21.7 73.0 L 54.11818180084229 73.0 L 62.3 64.0 Z M 72.3 57.4 L 72.3 61.4 L 21.7 61.4 L 21.7 57.4 L 58.077777767181395 57.4 L 64.3 50.4 Z M 103.7 42.7 L 103.7 55.2 L 114.62564105987549 55.2 L 114.7 55.1 L 114.7094464302063 55.107719612121585 L 115.1 54.6 L 115.75925922393799 55.2 L 159.8 55.2 L 159.8 42.7 Z M 80.3 40.6 L 80.3 44.6 L 18.2 44.6 L 18.2 40.6 L 62.11818180084229 40.6 L 70.3 31.6 Z M 103.7 26.2 L 103.7 38.7 L 159.8 38.7 L 159.8 26.2 Z M 72.3 25.0 L 72.3 29.0 L 21.7 29.0 L 21.7 25.0 L 54.11818180084229 25.0 L 62.3 16.0 Z " />
</g>
</svg>
