<svg xmlns="http://www.w3.org/2000/svg" xmlns:xlink="http://www.w3.org/1999/xlink" version="1.1" baseProfile="full" viewBox="0 0 200 200" width="200" height="200">
<g fill="black">
<path d="M 88.0 40.8 L 85.2 44.3 L 79.4 51.3 L 76.4 54.8 L 70.0 61.6 L 66.6 65.0 L 63.1 68.3 L 61.55301723480225 69.59612064361572 L 77.9 68.4 L 90.5 67.5 L 103.2 66.6 L 116.1 65.7 L 129.2 64.8 L 142.22169466018676 64.10945558547974 L 140.8 62.8 L 136.7 59.4 L 132.5 56.0 L 128.0 52.6 L 123.4 49.0 L 124.2 47.4 L 129.9 49.2 L 135.2 51.4 L 140.3 53.9 L 145.2 56.7 L 149.9 59.6 L 154.3 62.8 L 155.19800329208374 63.52695503234863 L 155.8 63.5 L 155.89908256530762 64.0944953918457 L 158.5 66.2 L 162.5 69.7 L 166.3 73.5 L 169.9 77.4 L 171.0 81.8 L 168.8 85.8 L 164.3 86.9 L 160.4 84.7 L 157.6 80.9 L 154.7 77.1 L 151.6 73.4 L 148.2 69.8 L 145.6688606262207 67.33917007446288 L 142.8 67.9 L 129.8 70.2 L 116.8 72.2 L 106.0 73.803125 L 106.0 114.0 L 144.0 114.0 L 144.0 85.0 L 156.0 87.0 L 159.0 89.0 L 156.0 90.8 L 156.0 114.0 L 160.0 114.0 L 170.0 104.0 L 182.0 114.0 L 182.0 118.0 L 156.0 118.0 L 156.0 157.0 L 144.0 163.0 L 144.0 151.0 L 106.0 151.0 L 106.0 178.0 L 162.0 178.0 L 172.0 168.0 L 184.0 178.0 L 184.0 182.0 L 16.0 182.0 L 16.0 178.0 L 94.0 178.0 L 94.0 151.0 L 56.0 151.0 L 56.0 163.0 L 44.0 169.0 L 44.0 118.0 L 18.0 118.0 L 18.0 114.0 L 44.0 114.0 L 44.0 85.0 L 56.0 87.0 L 59.0 89.0 L 56.0 90.8 L 56.0 114.0 L 94.0 114.0 L 94.0 75.5285714149475 L 91.4 75.9 L 78.9 77.7 L 66.6 79.3 L 54.4 80.9 L 42.4 82.3 L 34.55933017730713 83.28831968307495 L 32.8 86.6 L 30.5 83.8 L 27.4 72.0 L 29.4 71.8 L 41.3 71.0 L 53.3 70.2 L 56.274802684783936 69.98233146667481 L 56.8 69.1 L 59.2 65.0 L 61.7 61.0 L 66.7 53.2 L 69.0 49.3 L 71.4 45.5 L 74.87368421554565 39.5 L 15.0 39.5 L 15.0 35.5 L 94.0 35.5 L 94.0 12.7 L 106.0 14.7 L 109.0 16.7 L 106.0 18.5 L 106.0 35.5 L 162.0 35.5 L 172.0 25.5 L 184.0 35.5 L 184.0 39.5 L 89.02424240112305 39.5 Z M 56.0 118.0 L 56.0 147.0 L 94.0 147.0 L 94.0 118.0 Z M 106.0 118.0 L 106.0 147.0 L 144.0 147.0 L 144.0 118.0 Z " />
</g>
</svg>
