<svg xmlns="http://www.w3.org/2000/svg" xmlns:xlink="http://www.w3.org/1999/xlink" version="1.1" baseProfile="full" viewBox="0 0 200 200" width="200" height="200">
<g fill="black">
<path d="M 110.8 17.3 L 113.3 19.9 L 109.792600440979 21.027378463745116 L 107.8 28.4 L 104.6 39.3 L 101.3 49.9 L 97.8 60.3 L 94.1 70.5 L 93.05981016159058 73.20996837615967 L 97.8 74.0 L 100.8 76.0 L 97.8 77.8 L 97.8 183.0 L 85.8 189.0 L 85.8 91.19302330017089 L 82.0 99.5 L 77.5 108.6 L 72.7 117.3 L 71.0 116.6 L 74.0 107.1 L 77.0 97.5 L 80.1 87.8 L 83.1 77.9 L 86.1 67.9 L 88.9 57.6 L 91.6 47.2 L 94.3 36.5 L 96.8 25.6 L 98.98113040924072 15.512271785736084 L 98.9 15.5 L 99.6 12.8 Z M 157.7 183.5 L 147.7 188.5 L 147.7 118.0 L 137.9782608985901 118.0 L 137.9 119.5 L 136.7 130.3 L 134.9 140.4 L 132.4 149.7 L 129.3 158.3 L 125.5 166.1 L 121.1 173.1 L 116.0 179.3 L 110.2 184.4 L 103.9 188.6 L 102.9 187.3 L 107.8 181.9 L 112.2 176.2 L 116.0 169.9 L 119.2 163.1 L 122.0 155.6 L 124.2 147.5 L 125.8 138.7 L 126.9 129.1 L 127.5 118.9 L 127.5 118.0 L 117.75384616851807 118.0 L 116.8 130.4 L 104.3 135.4 L 109.3 71.5 L 120.13333330154418 78.0 L 127.5 78.0 L 127.5 48.0 L 106.2 48.0 L 106.2 44.0 L 127.5 44.0 L 127.5 13.0 L 138.5 15.0 L 141.3 17.0 L 138.5 18.75 L 138.5 44.0 L 147.7 44.0 L 147.7 13.0 L 157.7 15.0 L 160.2 17.0 L 157.7 18.66666669845581 L 157.7 44.0 L 165.6 44.0 L 171.1 39.0 L 181.6 48.0 L 176.6 51.5 L 176.6 88.0 L 165.6 93.5 L 165.6 82.0 L 157.7 82.0 L 157.7 114.0 L 170.7 114.0 L 176.7 109.0 L 187.7 118.0 L 182.7830671310425 120.950159740448 L 182.8 122.0 L 182.9 127.7 L 182.9 132.9 L 182.8 137.6 L 182.7 141.8 L 182.6 145.5 L 182.4 148.7 L 182.1 151.5 L 181.7 154.0 L 181.2 156.2 L 180.3 158.6 L 179.2 160.8 L 177.8 162.9 L 176.2 164.8 L 174.3 166.4 L 172.2 167.7 L 169.9 168.7 L 167.5 169.4 L 165.0 169.8 L 162.5 170.0 L 162.5 164.0 L 157.7 162.2 Z M 23.7 176.0 L 37.7 176.0 L 39.0 175.9 L 39.9 175.7 L 40.8 175.4 L 41.0 175.2 L 41.1 175.0 L 41.3 174.7 L 41.5 174.1 L 41.7 173.2 L 41.7 144.85692310333252 L 41.6 144.9 L 35.3 147.5 L 29.1 150.0 L 23.1 152.3 L 21.233445644378662 152.97582139968873 L 20.1 156.7 L 17.3 154.4 L 11.9 143.5 L 13.8 142.9 L 19.7 141.4 L 25.7 139.8 L 32.0 138.0 L 38.4 136.2 L 41.7 135.16567163467408 L 41.7 117.0 L 49.0125 118.21875 L 50.1 115.5 L 51.5 112.1 L 52.8 108.9 L 54.0 105.8 L 55.2 102.8 L 56.2 99.8 L 57.2 97.0 L 57.48571424484253 96.0 L 25.7 96.0 L 25.7 92.0 L 58.3 92.0 L 63.619402980804445 87.56716413497925 L 63.5 87.5 L 64.4 85.3 L 65.2 80.5 L 65.6 78.3 L 66.4 74.1 L 66.8 72.1 L 66.97368421554566 71.0 L 25.013953495025635 71.0 L 25.2 75.0 L 25.3 79.1 L 25.2 82.8 L 24.9 86.3 L 24.4 89.5 L 23.7 92.5 L 22.7 95.3 L 19.0 98.1 L 14.5 97.6 L 11.8 93.9 L 12.3 89.4 L 13.3 88.1 L 14.4 86.3 L 15.5 84.0 L 16.5 81.2 L 17.5 78.0 L 18.4 74.4 L 19.2 70.4 L 20.0 66.0 L 20.8 61.2 L 21.3 56.0 L 23.1 55.9 L 23.8 61.2 L 24.5 66.1 L 24.597826099395753 67.0 L 41.7 67.0 L 41.7 44.0 L 16.0 44.0 L 16.0 40.0 L 41.7 40.0 L 41.7 14.0 L 53.7 16.0 L 56.7 18.0 L 53.7 19.8 L 53.7 40.0 L 57.5 40.0 L 67.5 30.0 L 79.5 40.0 L 79.5 44.0 L 53.7 44.0 L 53.7 67.0 L 67.3 67.0 L 73.3 62.0 L 84.3 71.0 L 79.3 74.0 L 75.43000001907349 75.6125 L 75.2 75.9 L 73.9 77.6 L 72.6 79.2 L 71.1 81.0 L 69.7 82.7 L 68.1 84.5 L 66.4 86.3 L 65.40632181167602 87.90517244338989 L 75.3 96.0 L 70.3 99.0 L 67.36778240203857 100.22175731658936 L 66.5 101.6 L 64.7 104.2 L 62.8 106.9 L 60.8 109.6 L 58.6 112.4 L 56.2 115.1 L 53.7 117.8 L 52.703076934814455 118.83384618759155 L 53.7 119.0 L 56.7 121.0 L 53.7 122.8 L 53.7 131.47323942184448 L 59.1 129.8 L 66.4 127.6 L 74.0 125.3 L 81.9 123.1 L 82.6 124.8 L 75.5 128.8 L 68.4 132.5 L 61.5 136.0 L 54.7 139.1 L 53.7 139.55454549789428 L 53.7 172.0 L 53.6 174.5 L 53.2 177.0 L 52.3 179.4 L 51.1 181.7 L 49.5 183.7 L 47.5 185.3 L 45.2 186.6 L 42.8 187.4 L 40.3 187.8 L 37.7 188.0 L 37.7 182.0 L 23.7 179.0 Z M 147.7 114.0 L 147.7 82.0 L 138.5 82.0 L 138.5 108.0 L 138.18695650100707 114.0 Z M 138.5 48.0 L 138.5 78.0 L 147.7 78.0 L 147.7 48.0 Z M 157.7 48.0 L 157.7 78.0 L 165.6 78.0 L 165.6 48.0 Z M 170.2 150.0 L 170.4 147.7 L 170.6 144.8 L 170.7 141.4 L 170.8 137.4 L 170.9 132.8 L 170.9 127.8 L 170.86661739349364 125.9305760383606 L 170.7 126.0 L 170.7 118.0 L 157.7 118.0 L 157.7 158.0 L 162.5 158.0 L 163.8 157.9 L 164.9 157.7 L 165.8 157.5 L 167.2 156.7 L 167.7 156.3 L 168.2 155.6 L 168.8 154.9 L 169.2 153.9 L 169.7 152.6 L 169.9 151.7 Z M 120.52307691574097 82.0 L 118.0615385055542 114.0 L 127.5 114.0 L 127.5 82.0 Z " />
</g>
</svg>
