<svg xmlns="http://www.w3.org/2000/svg" xmlns:xlink="http://www.w3.org/1999/xlink" version="1.1" baseProfile="full" viewBox="0 0 200 200" width="200" height="200">
<g fill="black">
<path d="M 67.7 17.9 L 69.8 20.8 L 66.2331109046936 21.550924015045165 L 63.2 29.1 L 58.5 39.9 L 53.5 50.6 L 48.3 61.0 L 42.9 71.1 L 41.81446151733398 73.01907691955566 L 47.7 74.0 L 50.7 76.0 L 47.7 77.8 L 47.7 183.0 L 35.7 189.0 L 35.7 83.60338983535766 L 31.4 90.6 L 25.3 99.9 L 18.7 108.9 L 11.9 117.5 L 10.4 116.4 L 15.6 106.8 L 20.7 97.1 L 25.7 87.3 L 30.6 77.4 L 35.4 67.3 L 39.9 57.0 L 44.3 46.5 L 48.6 35.8 L 52.6 24.9 L 56.4 13.8 L 56.42973680496216 13.810789489746094 L 56.9 12.4 Z M 166.6 170.1 L 162.3 162.5 L 158.4 154.1 L 155.0 145.0 L 152.1 135.0 L 149.9 124.2 L 148.5570680618286 113.81465969085693 L 147.3 120.1 L 143.4 133.2 L 138.5 145.1 L 132.6 156.0 L 125.7 165.8 L 117.8 174.4 L 108.9 181.7 L 99.0 187.7 L 98.0 186.2 L 106.4 178.8 L 113.9 170.7 L 120.4 161.9 L 126.0 152.3 L 130.7 141.8 L 134.6 130.3 L 137.5 118.0 L 139.4 104.6 L 140.5 90.3 L 140.7 75.0 L 140.7 62.0 L 133.0151898384094 62.0 L 132.2 64.3 L 129.1 72.2 L 125.7 80.3 L 121.9 88.3 L 117.7 96.3 L 116.0 95.6 L 118.3 86.9 L 120.6 78.4 L 122.9 70.2 L 125.0 62.0 L 126.9 54.0 L 128.6 46.2 L 130.2 38.4 L 131.6 30.8 L 132.8 23.3 L 133.7 16.0 L 133.73263854980468 16.00521116256714 L 134.0 14.0 L 145.6 17.9 L 148.2 20.3 L 144.73612623214723 21.7112078666687 L 143.9 25.4 L 142.1 33.1 L 140.0 40.8 L 137.6 48.5 L 135.0 56.4 L 134.4329113960266 58.0 L 172.1 58.0 L 178.1 53.0 L 189.1 62.0 L 184.1 65.0 L 181.75106382369995 65.97872343063355 L 180.7 68.0 L 179.2 70.8 L 177.5 73.9 L 175.5 77.4 L 173.3 81.1 L 170.8 85.2 L 168.0 89.6 L 165.1 94.3 L 163.5 93.6 L 165.3 88.3 L 166.7 83.3 L 168.0 78.8 L 169.2 74.7 L 170.2 71.0 L 171.0 67.7 L 171.6 64.8 L 172.0 62.3 L 172.0300000190735 62.0 L 152.7 62.0 L 152.7 75.0 L 151.9 91.0 L 151.3069637298584 95.97491579055786 L 151.9 99.8 L 154.2 111.7 L 157.0 122.6 L 160.1 132.6 L 163.7 141.7 L 167.6 149.8 L 171.8 157.0 L 176.3 163.3 L 180.9 168.7 L 185.7 173.2 L 187.3 174.8 L 176.6 182.7 L 171.4 176.8 Z M 106.6 48.9 L 105.4 46.4 L 103.9 43.9 L 102.2 41.4 L 100.2 38.8 L 98.0 36.2 L 95.6 33.5 L 93.0 30.8 L 91.64091854095459 29.660125255584717 L 90.0 34.2 L 86.7 42.2 L 83.1 50.1 L 79.2 57.7 L 75.1 65.2 L 72.725 69.0 L 96.21818180084229 69.0 L 104.4 60.0 L 114.4 69.0 L 114.4 73.0 L 95.5 73.0 L 95.5 101.0 L 100.51818180084229 101.0 L 108.7 92.0 L 118.7 101.0 L 118.7 105.0 L 95.5 105.0 L 95.5 161.54067792892457 L 98.6 160.7 L 104.6 159.1 L 110.7 157.5 L 116.9 156.1 L 117.6 157.8 L 112.1 161.1 L 106.6 164.1 L 100.9 166.9 L 89.5 171.9 L 83.7 174.2 L 78.0 176.5 L 72.2 178.6 L 66.4 180.6 L 64.5290322303772 181.21290321350097 L 63.3 184.9 L 60.6 182.5 L 55.6 171.4 L 57.5 170.9 L 69.1 168.3 L 75.0 166.9 L 83.5 164.73898305892945 L 83.5 105.0 L 59.6 105.0 L 59.6 101.0 L 83.5 101.0 L 83.5 73.0 L 70.19714288711548 73.0 L 65.9 79.4 L 60.7 86.1 L 55.2 92.5 L 53.7 91.4 L 57.6 84.0 L 61.3 76.6 L 64.9 69.2 L 68.3 61.7 L 71.5 54.1 L 74.5 46.4 L 77.3 38.6 L 79.8 30.7 L 82.1 22.6 L 83.94488830566407 15.308298683166504 L 83.9 15.3 L 84.6 12.7 L 95.8 17.5 L 98.1 20.2 L 94.5631579399109 21.210526275634766 L 93.0 25.9 L 92.43870429992675 27.452918148040773 L 94.5 28.4 L 98.2 30.0 L 101.6 31.8 L 104.7 33.8 L 107.7 35.9 L 110.4 38.2 L 113.0 40.6 L 115.3 43.2 L 117.4 45.9 L 119.3 48.7 L 119.4 53.3 L 116.3 56.7 L 111.8 56.8 L 108.4 53.7 L 107.6 51.3 Z M 67.7 142.3 L 67.3 139.3 L 66.7 136.3 L 65.9 133.4 L 65.0 130.4 L 63.9 127.3 L 62.7 124.2 L 61.0 121.3 L 62.4 120.1 L 64.9 122.6 L 67.5 125.0 L 69.8 127.6 L 71.9 130.5 L 73.8 133.4 L 75.5 136.6 L 76.9 139.9 L 78.2 143.3 L 79.2 146.9 L 79.9 150.5 L 78.4 154.8 L 74.4 156.9 L 70.1 155.5 L 68.0 151.4 L 68.0 145.3 Z M 116.8 121.7 L 119.1 124.5 L 115.11000003814698 125.48000001907349 L 114.0 127.7 L 110.8 133.7 L 109.1 136.7 L 107.3 139.6 L 105.4 142.6 L 103.3 145.5 L 101.1 148.4 L 99.1 151.4 L 97.5 150.5 L 98.6 147.1 L 99.4 143.7 L 100.3 140.3 L 101.9 133.7 L 103.5 127.3 L 104.2 124.2 L 104.8 121.1 L 105.21470584869385 119.0264705657959 L 105.1 119.0 L 105.9 116.5 Z " />
</g>
</svg>
