<svg xmlns="http://www.w3.org/2000/svg" xmlns:xlink="http://www.w3.org/1999/xlink" version="1.1" baseProfile="full" viewBox="0 0 200 200" width="200" height="200">
<g fill="black">
<path d="M 67.0 17.9 L 69.1 20.7 L 65.63252449035645 21.42999486923218 L 62.7 29.0 L 58.1 39.9 L 53.4 50.5 L 48.5 60.9 L 43.3 71.0 L 42.18333330154419 73.0472222328186 L 47.9 74.0 L 50.9 76.0 L 47.9 77.8 L 47.9 183.0 L 35.9 189.0 L 35.9 84.26842107772828 L 32.2 90.5 L 26.3 99.8 L 20.1 108.8 L 13.5 117.4 L 12.0 116.5 L 16.8 106.8 L 21.7 97.2 L 26.5 87.4 L 31.1 77.5 L 35.6 67.3 L 40.0 57.1 L 44.2 46.6 L 48.2 35.9 L 52.0 25.0 L 55.6 13.9 L 55.62984294891358 13.91047124862671 L 56.1 12.5 Z M 166.1 170.7 L 162.1 163.1 L 158.5 154.8 L 155.4 145.6 L 152.9 135.6 L 150.9 124.8 L 149.89848041534424 116.43015775680541 L 149.1 120.6 L 145.6 133.7 L 141.1 145.7 L 135.6 156.7 L 129.2 166.5 L 121.8 175.2 L 113.5 182.6 L 104.3 188.6 L 103.3 187.1 L 111.0 179.7 L 117.8 171.7 L 123.7 162.8 L 128.9 153.2 L 133.2 142.6 L 136.6 131.1 L 139.3 118.7 L 141.1 105.2 L 142.1 90.8 L 142.2 75.3 L 142.2 62.3 L 135.92405061721803 62.3 L 135.2 64.5 L 132.3 72.5 L 129.1 80.6 L 125.5 88.7 L 121.6 96.7 L 119.9 96.1 L 121.9 87.4 L 124.0 78.9 L 126.0 70.6 L 127.9 62.4 L 129.6 54.4 L 131.2 46.5 L 132.6 38.7 L 133.9 31.1 L 134.9 23.5 L 135.67775316238402 17.105140686035156 L 135.6 17.1 L 136.1 14.1 L 147.7 17.9 L 150.3 20.3 L 146.89738845825195 21.712404823303224 L 146.1 25.5 L 144.4 33.1 L 142.4 40.9 L 140.2 48.7 L 137.8 56.6 L 137.24050636291503 58.3 L 171.1 58.3 L 177.1 53.3 L 188.1 62.3 L 183.1 65.3 L 180.91904764175416 66.20873012542725 L 180.0 68.2 L 178.5 71.0 L 176.9 74.2 L 175.1 77.7 L 173.0 81.4 L 170.6 85.6 L 167.9 90.0 L 165.2 94.8 L 163.6 94.1 L 165.2 88.8 L 166.4 83.8 L 167.6 79.3 L 168.6 75.2 L 169.5 71.4 L 170.2 68.1 L 170.8 65.2 L 171.1 62.7 L 171.1 62.3 L 154.2 62.3 L 154.2 75.3 L 153.5 91.4 L 152.80213356018066 97.59869613647462 L 153.2 100.3 L 155.4 112.3 L 158.0 123.3 L 160.9 133.4 L 164.2 142.5 L 167.9 150.7 L 171.8 158.0 L 176.0 164.3 L 180.3 169.7 L 184.7 174.3 L 185.9 175.5 L 175.2 183.4 L 170.4 177.5 Z M 106.5 48.8 L 105.4 46.3 L 104.0 43.8 L 102.4 41.3 L 100.6 38.7 L 98.5 36.1 L 96.2 33.5 L 93.7 30.7 L 92.6916666984558 29.83074712753296 L 91.2 34.1 L 88.0 42.1 L 84.6 50.0 L 80.9 57.7 L 76.9 65.1 L 74.60273971557618 69.0 L 96.01818180084229 69.0 L 104.2 60.0 L 114.2 69.0 L 114.2 73.0 L 96.5 73.0 L 96.5 101.0 L 100.21818180084229 101.0 L 108.4 92.0 L 118.4 101.0 L 118.4 105.0 L 96.5 105.0 L 96.5 161.42982454299926 L 104.8 159.1 L 116.6 156.1 L 117.3 157.8 L 112.1 161.1 L 106.8 164.1 L 101.4 166.8 L 96.0 169.4 L 90.6 171.9 L 85.1 174.2 L 79.6 176.4 L 68.6 180.6 L 66.97748346328736 181.16050567626954 L 65.8 184.8 L 63.1 182.5 L 57.9 171.4 L 59.8 170.9 L 65.4 169.6 L 70.9 168.3 L 76.5 166.9 L 84.5 164.75714282989503 L 84.5 105.0 L 61.9 105.0 L 61.9 101.0 L 84.5 101.0 L 84.5 73.0 L 74.4 73.0 L 74.4 69.34418601989746 L 72.6 72.4 L 68.1 79.4 L 63.1 86.1 L 57.8 92.5 L 56.3 91.4 L 59.9 84.1 L 63.4 76.7 L 66.8 69.3 L 70.1 61.8 L 73.1 54.2 L 76.0 46.5 L 78.6 38.7 L 81.0 30.7 L 83.2 22.6 L 85.1 14.4 L 85.15553560256959 14.414362621307372 L 85.6 12.7 L 96.7 17.4 L 99.1 20.1 L 95.52871894836426 21.18413887023926 L 94.1 25.8 L 93.48310480117797 27.565596771240234 L 95.3 28.5 L 98.8 30.1 L 102.1 31.9 L 105.2 33.9 L 108.0 36.0 L 110.7 38.3 L 113.1 40.7 L 115.3 43.3 L 117.4 46.0 L 119.2 48.8 L 119.2 53.4 L 116.1 56.7 L 111.5 56.7 L 108.2 53.6 L 107.5 51.2 Z M 69.7 145.3 L 69.1 139.3 L 68.5 136.3 L 67.8 133.3 L 66.9 130.3 L 65.9 127.3 L 64.8 124.2 L 63.2 121.3 L 64.6 120.2 L 67.0 122.6 L 69.6 125.0 L 71.8 127.7 L 73.9 130.5 L 75.7 133.5 L 77.3 136.6 L 78.7 139.9 L 79.9 143.3 L 80.9 146.9 L 81.6 150.5 L 80.1 154.9 L 76.0 156.9 L 71.7 155.4 L 69.6 151.4 L 69.7 148.3 Z M 116.8 121.7 L 119.1 124.4 L 115.13168315887451 125.46294202804566 L 114.1 127.6 L 112.6 130.6 L 111.0 133.6 L 107.6 139.6 L 105.7 142.5 L 103.8 145.5 L 101.6 148.3 L 99.7 151.3 L 98.0 150.6 L 99.1 147.2 L 99.8 143.7 L 100.6 140.3 L 101.4 137.0 L 102.1 133.8 L 102.9 130.6 L 103.6 127.4 L 104.8 121.2 L 105.21489362716675 119.12553195953369 L 105.1 119.1 L 105.8 116.6 Z " />
</g>
</svg>
