<svg xmlns="http://www.w3.org/2000/svg" xmlns:xlink="http://www.w3.org/1999/xlink" version="1.1" baseProfile="full" viewBox="0 0 200 200" width="200" height="200">
<g fill="black">
<path d="M 182.0 148.0 L 184.0 148.0 L 182.0 173.0 L 185.6 175.4 L 188.0 179.0 L 185.6 182.6 L 182.0 185.0 L 84.0 185.0 L 81.4 184.8 L 78.9 184.4 L 76.5 183.6 L 74.2 182.3 L 72.2 180.7 L 70.6 178.7 L 69.3 176.4 L 68.5 174.0 L 68.1 171.5 L 68.0 169.0 L 68.0 102.0 L 56.725806427001956 102.0 L 55.7 112.6 L 53.7 124.2 L 51.0 135.1 L 47.7 145.3 L 43.6 154.7 L 38.8 163.3 L 33.3 171.0 L 27.0 177.9 L 20.1 183.8 L 12.5 188.7 L 11.4 187.2 L 17.5 181.0 L 23.0 174.3 L 27.9 167.2 L 32.2 159.5 L 35.8 151.2 L 38.9 142.3 L 41.3 132.7 L 43.1 122.4 L 44.4 111.4 L 44.81228065490723 102.0 L 21.0 102.0 L 21.0 98.0 L 81.0 98.0 L 91.0 88.0 L 103.0 98.0 L 103.0 102.0 L 80.0 102.0 L 80.0 170.2 L 80.2 171.1 L 80.5 172.0 L 80.9 172.4 L 81.8 172.7 L 82.7 172.9 L 84.0 173.0 L 176.0 173.0 Z M 157.3 151.1 L 153.6 147.2 L 150.58900232315062 144.3395522117615 L 143.5 149.8 L 135.3 154.8 L 126.5 158.9 L 117.0 162.2 L 106.7 164.6 L 95.8 166.0 L 95.5 164.3 L 105.7 160.9 L 115.1 157.1 L 123.7 153.0 L 131.4 148.3 L 138.4 143.1 L 143.4626872062683 138.36929235458373 L 140.5 136.1 L 135.4 132.6 L 130.0 129.1 L 124.3 125.7 L 118.2 122.1 L 118.8 120.5 L 125.8 122.2 L 132.3 124.3 L 138.6 126.8 L 144.5 129.6 L 149.03425607681274 132.11003456115722 L 149.9 131.1 L 154.5 124.3 L 158.4 117.0 L 159.91999998092652 113.2 L 112.5 113.2 L 112.5 109.2 L 161.2 109.2 L 167.2 104.2 L 178.2 113.2 L 173.2 116.2 L 170.97978601455688 117.12508916854858 L 168.5 122.2 L 163.5 130.3 L 157.6 137.6 L 157.48867254257203 137.70800428390504 L 160.2 139.7 L 164.9 143.5 L 169.1 147.6 L 173.1 152.0 L 174.2 156.4 L 171.9 160.4 L 167.5 161.5 L 163.5 159.2 L 160.6 155.1 Z M 131.6 59.2 L 153.2 59.2 L 159.2 54.2 L 170.2 63.2 L 165.2 67.2 L 165.2 86.9 L 165.1 88.2 L 165.1 89.1 L 165.2 89.8 L 165.3 90.3 L 165.4 90.7 L 165.6 91.1 L 166.0 91.5 L 166.7 91.8 L 167.8 92.2 L 169.2 92.4 L 178.0 92.4 L 182.5 79.4 L 184.5 79.4 L 182.5 92.4 L 185.2 94.2 L 187.0 96.9 L 185.2 99.6 L 182.5 101.4 L 166.8 101.4 L 164.4 101.2 L 162.1 100.5 L 160.0 99.5 L 158.0 98.1 L 156.3 96.3 L 155.0 94.2 L 154.1 91.9 L 153.5 89.4 L 153.2 86.9 L 153.2 63.2 L 131.6 63.2 L 131.6 76.8 L 131.0 81.1 L 129.8 85.2 L 128.1 89.0 L 125.8 92.6 L 123.2 96.0 L 120.0 99.1 L 116.5 101.8 L 112.5 104.4 L 108.1 106.6 L 103.4 108.7 L 102.5 107.2 L 106.4 104.0 L 109.7 100.7 L 112.5 97.5 L 114.9 94.4 L 116.7 91.3 L 118.1 88.3 L 119.1 85.4 L 119.6 82.5 L 119.8 79.6 L 119.6 76.8 L 119.6 53.2 Z M 95.0 61.0 L 95.0 65.0 L 31.0 65.0 L 31.0 61.0 L 73.0 61.0 L 83.0 51.0 Z M 13.4 58.5 L 12.6 54.0 L 15.2 50.2 L 17.2 49.0 L 19.1 47.4 L 21.0 45.4 L 22.8 42.7 L 24.5 39.5 L 25.9 35.7 L 27.2 31.3 L 28.4 26.4 L 29.4 21.0 L 30.1 15.0 L 31.9 14.9 L 32.7 21.0 L 33.05344829559326 25.1 L 170.0 25.1 L 170.4826086997986 24.69782609939575 L 170.7 24.1 L 170.99661016464233 24.269491481781007 L 176.0 20.1 L 187.0 29.1 L 182.0 32.1 L 178.22958583831786 33.67100591659546 L 177.6 34.4 L 175.6 36.7 L 173.5 39.1 L 171.1 41.6 L 168.6 44.2 L 165.9 46.9 L 163.0 49.7 L 159.8 52.5 L 156.7 55.6 L 155.2 54.5 L 157.6 50.8 L 159.5 47.0 L 161.4 43.5 L 163.1 40.2 L 164.8 37.1 L 166.3 34.1 L 167.6 31.3 L 168.61538457870483 29.1 L 33.24259262084961 29.1 L 33.3 32.2 L 32.9 37.2 L 32.2 41.9 L 31.1 46.3 L 29.5 50.3 L 27.4 54.0 L 24.8 57.3 L 21.8 60.2 L 17.3 61.0 Z " />
</g>
</svg>
