<svg xmlns="http://www.w3.org/2000/svg" xmlns:xlink="http://www.w3.org/1999/xlink" version="1.1" baseProfile="full" viewBox="0 0 200 200" width="200" height="200">
<g fill="black">
<path d="M 165.9 178.2 L 164.2 180.0 L 162.3 181.6 L 160.3 182.9 L 158.1 184.0 L 155.9 184.9 L 153.5 185.5 L 151.0 185.8 L 148.6 186.0 L 148.6 180.0 L 128.6 177.0 L 128.6 174.0 L 148.6 174.0 L 149.9 173.9 L 151.2 173.7 L 152.3 173.4 L 153.3 173.1 L 154.2 172.6 L 155.1 172.0 L 155.9 171.3 L 156.7 170.5 L 157.5 169.5 L 158.2 168.3 L 159.8 164.8 L 161.3 159.6 L 162.8 152.9 L 164.1 144.7 L 165.2 134.9 L 166.1 123.8 L 166.8 111.2 L 167.3 97.2 L 167.6 81.8 L 167.6880952835083 67.0 L 143.1709677696228 67.0 L 142.5 82.6 L 140.8 99.9 L 138.0 115.9 L 134.2 130.6 L 129.4 144.0 L 123.6 155.9 L 116.8 166.5 L 109.0 175.5 L 100.1 182.9 L 90.3 188.7 L 89.4 187.2 L 97.7 180.0 L 105.0 171.9 L 111.4 162.8 L 116.9 152.5 L 121.5 140.9 L 125.3 128.2 L 128.1 114.1 L 130.1 98.7 L 131.2 82.0 L 131.2833333015442 67.0 L 104.0 67.0 L 104.0 63.0 L 131.3 63.0 L 131.3 18.0 L 143.3 20.0 L 146.3 22.0 L 143.3 23.8 L 143.3 63.0 L 167.7 63.0 L 173.7 58.0 L 184.7 67.0 L 179.7 70.0 L 179.6703411102295 70.01235790252686 L 179.6 81.9 L 179.3 97.5 L 178.8 111.8 L 178.0 124.6 L 177.1 136.1 L 176.0 146.2 L 174.6 155.1 L 173.0 162.6 L 171.0 168.9 L 168.7 174.2 L 167.4 176.3 Z M 85.0 18.1 L 88.0 20.1 L 85.0 21.9 L 85.0 66.7 L 88.77777776718139 66.7 L 95.0 59.7 L 103.0 66.7 L 103.0 70.7 L 85.0 70.7 L 85.0 128.2 L 73.0 134.2 L 73.0 122.2 L 58.3 122.2 L 58.3 134.2 L 47.3 139.7 L 47.3 70.7 L 34.3 70.7 L 34.3 166.6 L 77.7 166.6 L 87.7 156.6 L 99.7 166.6 L 99.7 170.6 L 34.3 170.6 L 34.3 182.6 L 23.3 188.1 L 23.3 70.7 L 12.5 70.7 L 12.5 66.7 L 23.3 66.7 L 23.3 16.1 L 34.3 18.1 L 37.1 20.1 L 34.3 21.85 L 34.3 66.7 L 47.3 66.7 L 47.3 16.1 L 58.3 18.1 L 61.1 20.1 L 58.3 21.85 L 58.3 66.7 L 73.0 66.7 L 73.0 16.1 Z M 58.3 70.7 L 58.3 118.2 L 73.0 118.2 L 73.0 70.7 Z " />
</g>
</svg>
