<svg xmlns="http://www.w3.org/2000/svg" xmlns:xlink="http://www.w3.org/1999/xlink" version="1.1" baseProfile="full" viewBox="0 0 200 200" width="200" height="200">
<g fill="black">
<path d="M 173.1 108.7 L 170.6 105.6 L 168.0 102.6 L 165.1 99.7 L 162.0 96.7 L 158.8 93.9 L 155.3 91.0 L 151.7 88.0 L 151.0 87.48421049118042 L 151.0 183.0 L 139.0 189.0 L 139.0 18.0 L 151.0 20.0 L 154.0 22.0 L 151.0 23.8 L 151.0 84.3659574508667 L 153.3 85.1 L 157.8 86.7 L 162.2 88.7 L 166.3 90.9 L 170.2 93.3 L 174.0 95.8 L 177.5 98.6 L 180.9 101.6 L 184.1 104.7 L 187.1 108.0 L 188.1 112.4 L 185.8 116.4 L 181.4 117.4 L 177.4 115.1 L 175.3 111.9 Z M 94.2 148.0 L 96.5 150.8 L 92.72779541015625 151.81041193008423 L 92.5 152.4 L 90.6 156.7 L 88.5 161.0 L 86.3 165.1 L 83.8 169.3 L 81.1 173.3 L 78.2 177.2 L 75.1 181.1 L 71.7 184.8 L 68.1 188.4 L 66.6 187.3 L 68.8 182.8 L 70.8 178.3 L 72.8 174.0 L 74.6 169.7 L 76.4 165.5 L 79.4 157.1 L 80.6 153.0 L 81.7 148.8 L 82.45355167388917 145.7104380607605 L 82.4 145.7 L 82.67058820724488 144.82058820724487 L 82.7 144.7 L 82.70706825256347 144.70202827453613 L 83.2 143.1 Z M 109.6 166.7 L 108.0 161.1 L 107.1 158.4 L 106.0 155.6 L 104.8 152.9 L 102.2 147.3 L 100.4 144.7 L 101.7 143.5 L 104.2 145.6 L 106.8 147.5 L 109.3 149.7 L 111.6 152.1 L 113.7 154.6 L 115.7 157.2 L 117.5 160.0 L 119.2 163.0 L 120.8 166.0 L 122.2 169.2 L 121.6 173.7 L 118.0 176.6 L 113.5 176.0 L 110.6 172.4 L 110.1 169.6 Z M 30.9 42.0 L 49.4 42.0 L 54.9 37.0 L 65.4 46.0 L 60.4 49.5 L 60.4 140.0 L 49.4 145.5 L 49.4 134.0 L 30.9 134.0 L 30.9 146.0 L 18.9 152.0 L 18.9 36.0 Z M 83.2 21.6 L 106.7 21.6 L 112.7 16.6 L 123.7 25.6 L 118.7 29.6 L 118.7 134.3 L 106.7 140.3 L 106.7 134.3 L 83.2 134.3 L 72.2 139.8 L 72.2 16.1 Z M 83.2 96.5 L 83.2 130.3 L 106.7 130.3 L 106.7 96.5 Z M 30.9 46.0 L 30.9 130.0 L 49.4 130.0 L 49.4 46.0 Z M 83.2 61.1 L 83.2 92.5 L 106.7 92.5 L 106.7 61.1 Z M 83.2 25.6 L 83.2 57.1 L 106.7 57.1 L 106.7 25.6 Z " />
</g>
</svg>
