<svg xmlns="http://www.w3.org/2000/svg" xmlns:xlink="http://www.w3.org/1999/xlink" version="1.1" baseProfile="full" viewBox="0 0 200 200" width="200" height="200">
<g fill="black">
<path d="M 164.9 123.5 L 163.1 120.5 L 160.8 117.3 L 158.0 113.9 L 154.8 110.5 L 151.0 106.9 L 146.7 103.2 L 142.4 99.6319149017334 L 142.4 181.0 L 130.4 187.0 L 130.4 60.0 L 97.6 60.0 L 97.6 56.0 L 165.1 56.0 L 175.1 46.0 L 187.1 56.0 L 187.1 60.0 L 142.4 60.0 L 142.4 95.59516124725342 L 143.9 96.2 L 149.6 98.8 L 154.8 101.7 L 159.5 104.7 L 163.7 107.8 L 167.6 111.0 L 170.9 114.3 L 173.8 117.7 L 176.3 121.3 L 178.2 125.1 L 178.0 129.7 L 174.6 132.8 L 170.0 132.5 L 166.9 129.1 L 166.1 126.4 Z M 15.0 170.4 L 23.3 169.6 L 31.9 168.7 L 40.6 167.7 L 49.6 166.7 L 55.0 166.0543478012085 L 55.0 137.2 L 18.8 137.2 L 18.8 133.2 L 55.0 133.2 L 55.0 106.7 L 67.0 108.7 L 70.0 110.7 L 67.0 112.5 L 67.0 133.2 L 78.9 133.2 L 88.9 123.2 L 100.9 133.2 L 100.9 137.2 L 67.0 137.2 L 67.0 164.64042549133302 L 68.2 164.5 L 77.8 163.3 L 87.7 162.1 L 97.8 161.1 L 108.1 160.1 L 108.4 161.9 L 98.5 164.8 L 88.6 167.4 L 79.0 169.8 L 69.5 172.0 L 60.2 174.0 L 51.1 175.9 L 42.2 177.6 L 33.4 179.3 L 24.9 180.9 L 20.557893657684325 181.6324034690857 L 18.9 185.0 L 16.6 182.3 L 13.0 170.7 Z M 51.0 17.0 L 54.0 19.0 L 51.0 20.8 L 51.0 117.0 L 39.0 123.0 L 39.0 15.0 Z M 30.0 30.0 L 33.0 32.0 L 30.0 33.8 L 30.0 107.0 L 18.0 113.0 L 18.0 28.0 Z M 88.5 93.2 L 86.6 88.9 L 84.0 84.3 L 80.9 79.2 L 80.26946592330933 78.30397787094117 L 75.6 84.5 L 70.0 91.0 L 64.0 97.0 L 57.6 102.6 L 56.3 101.3 L 61.2 94.6 L 65.8 87.7 L 70.2 80.7 L 74.4 73.5 L 75.38261651992798 71.58648357391357 L 72.6 68.0 L 67.6 61.9 L 62.1 55.3 L 56.1 48.3 L 57.3 47.0 L 64.7 52.6 L 71.5 58.1 L 77.5 63.6 L 78.7785714149475 64.87857141494752 L 81.8 58.5 L 85.1 50.6 L 88.1 42.4 L 90.8 34.0 L 92.17931032180786 29.0 L 57.0 29.0 L 57.0 25.0 L 93.0 25.0 L 99.0 20.0 L 110.0 29.0 L 105.0 32.0 L 103.28237838745117 32.7156756401062 L 101.6 37.6 L 98.1 46.3 L 94.3 54.6 L 90.2 62.6 L 85.7 70.3 L 85.04127931594849 71.28135929107665 L 87.6 74.0 L 91.7 79.0 L 95.2 83.8 L 98.1 88.5 L 100.5 93.1 L 102.1 97.7 L 101.3 102.2 L 97.6 104.9 L 93.1 104.1 L 90.4 100.4 L 89.8 97.0 Z M 140.1 39.1 L 139.0 36.5 L 137.5 33.8 L 135.6 31.1 L 133.5 28.2 L 131.0 25.3 L 128.2 22.3 L 125.1 19.2 L 121.6 16.2 L 122.5 14.7 L 126.8 16.8 L 130.9 18.7 L 134.7 20.9 L 138.2 23.2 L 141.4 25.7 L 144.3 28.3 L 146.9 31.0 L 149.2 33.9 L 151.2 36.9 L 152.9 40.1 L 152.6 44.7 L 149.2 47.8 L 144.7 47.5 L 141.6 44.1 L 141.0 41.7 Z " />
</g>
</svg>
