<svg xmlns="http://www.w3.org/2000/svg" xmlns:xlink="http://www.w3.org/1999/xlink" version="1.1" baseProfile="full" viewBox="0 0 200 200" width="200" height="200">
<g fill="black">
<path d="M 172.9 107.9 L 171.3 104.9 L 169.5 102.0 L 167.6 99.1 L 165.5 96.3 L 163.3 93.5 L 161.0 90.7 L 159.2 88.61199998855591 L 159.2 183.2 L 148.2 188.7 L 148.2 18.0 L 159.2 20.0 L 162.0 22.0 L 159.2 23.75 L 159.2 84.93428573608398 L 160.3 85.5 L 163.8 87.2 L 167.1 89.1 L 170.3 91.3 L 173.3 93.8 L 176.2 96.3 L 179.0 99.1 L 181.6 102.1 L 184.1 105.2 L 186.4 108.5 L 186.8 113.0 L 184.0 116.6 L 179.4 117.0 L 175.8 114.2 L 174.4 111.0 Z M 95.5 182.0 L 83.5 188.0 L 83.5 21.0 L 95.5 27.0 L 120.4 27.0 L 130.4 17.0 L 142.4 27.0 L 142.4 31.0 L 119.6 31.0 L 119.6 70.0 L 128.7 70.0 L 134.2 65.0 L 144.7 74.0 L 139.7 77.5 L 139.7 129.0 L 128.7 134.5 L 128.7 123.0 L 119.6 123.0 L 119.6 166.0 L 122.2 166.0 L 132.2 156.0 L 144.2 166.0 L 144.2 170.0 L 95.5 170.0 Z M 68.7 100.5 L 68.1 96.5 L 67.5 92.8 L 66.7 89.3 L 66.0 85.9 L 65.2 82.8 L 65.03692665100098 82.25642204284668 L 64.1 86.3 L 62.0 93.9 L 59.6 100.9 L 56.9 107.4 L 53.8 113.2 L 51.4 116.76571426391601 L 51.4 128.0 L 55.31818180084228 128.0 L 63.5 119.0 L 73.5 128.0 L 73.5 132.0 L 51.4 132.0 L 51.4 160.6515625 L 52.9 160.3 L 59.5 158.8 L 66.0 157.4 L 72.7 156.1 L 79.4 155.1 L 79.9 156.8 L 73.8 159.8 L 67.6 162.5 L 61.4 165.1 L 51.4 168.9709677696228 L 51.4 169.0 L 51.325 169.0 L 42.8 172.3 L 30.4 176.9 L 24.2 179.1 L 21.927041721343993 179.9431941986084 L 20.8 183.7 L 18.0 181.4 L 12.5 170.5 L 14.5 169.9 L 20.8 168.3 L 27.2 166.6 L 39.4 163.55 L 39.4 132.0 L 17.3 132.0 L 17.3 128.0 L 39.4 128.0 L 39.4 109.42564105987549 L 36.9 110.9 L 32.5 109.7 L 30.2 105.7 L 30.1 102.1 L 29.9 98.6 L 29.6 95.2 L 29.2 91.8 L 28.2 85.4 L 28.0261269569397 84.50165596008301 L 27.5 86.8 L 25.4 94.6 L 23.0 101.9 L 20.4 108.6 L 17.4 114.8 L 14.0 120.3 L 12.4 119.6 L 13.8 113.4 L 15.2 107.0 L 16.6 100.1 L 18.0 92.9 L 19.1 85.1 L 20.2 77.0 L 21.1 68.3 L 21.9 59.2 L 22.5 49.6 L 22.9 39.6 L 22.960392570495607 39.603522872924806 L 23.1 37.3 L 34.9 40.3 L 37.8 42.5 L 34.48100414276123 44.2233247756958 L 33.8 50.6 L 32.5 60.4 L 31.1 69.7 L 29.86100435256958 76.11362447738648 L 30.9 77.4 L 32.8 80.2 L 34.5 83.1 L 36.1 86.3 L 37.6 89.6 L 38.9 93.0 L 39.4 94.5 L 39.4 19.0 L 51.4 21.0 L 54.4 23.0 L 51.4 24.8 L 51.4 107.25333337783813 L 51.8 105.6 L 53.3 99.1 L 54.6 92.1 L 55.8 84.6 L 56.8 76.6 L 57.7 68.2 L 58.4 59.2 L 58.9 49.7 L 59.2 39.6 L 59.262272930145265 39.60363254547119 L 59.4 37.4 L 71.2 40.3 L 74.1 42.4 L 70.86352090835571 44.11343011856079 L 70.3 50.5 L 69.1 60.3 L 67.7 69.5 L 66.46213588714599 75.762135887146 L 68.3 77.6 L 70.4 80.3 L 72.3 83.3 L 74.1 86.6 L 75.8 90.1 L 77.4 93.9 L 78.9 98.0 L 80.3 102.3 L 81.6 106.9 L 80.6 111.4 L 76.8 113.9 L 72.3 112.9 L 69.8 109.1 L 69.3 104.7 Z M 95.5 123.0 L 95.5 166.0 L 107.6 166.0 L 107.6 123.0 Z M 95.5 119.0 L 128.7 119.0 L 128.7 74.0 L 95.5 74.0 Z M 95.5 31.0 L 95.5 70.0 L 107.6 70.0 L 107.6 31.0 Z " />
</g>
</svg>
