<svg xmlns="http://www.w3.org/2000/svg" xmlns:xlink="http://www.w3.org/1999/xlink" version="1.1" baseProfile="full" viewBox="0 0 200 200" width="200" height="200">
<g fill="black">
<path d="M 35.1 25.0 L 58.8 25.0 L 64.8 20.0 L 75.8 29.0 L 70.8 33.0 L 70.8 84.0 L 58.8 90.0 L 58.8 78.0 L 52.58387098312378 78.0 L 52.2 79.7 L 51.4 82.9 L 50.5 86.3 L 49.5 89.7 L 48.5 93.3 L 47.4 97.0 L 46.2 100.9 L 44.8 104.8 L 43.3 108.9 L 42.6 111.0 L 62.7 111.0 L 68.7 106.0 L 79.7 115.0 L 74.7 119.0 L 74.7 177.0 L 62.7 183.0 L 62.7 171.0 L 31.3 171.0 L 31.3 183.0 L 19.3 189.0 L 19.3 105.0 L 31.3 111.0 L 40.18000001907349 111.0 L 40.3 108.3 L 40.3 104.0 L 40.4 99.9 L 40.6 95.9 L 40.7 92.1 L 40.8 88.4 L 40.9 84.9 L 41.0 81.5 L 41.0 78.0 L 35.1 78.0 L 35.1 90.0 L 23.1 96.0 L 23.1 19.0 Z M 126.8 76.4 L 129.2 79.1 L 125.322829246521 80.27699823379517 L 124.2 83.3 L 122.8 86.8 L 121.3 90.3 L 119.7 93.9 L 116.3 101.1 L 114.4 104.8 L 112.3 108.5 L 111.47105264663696 110.0 L 119.4777777671814 110.0 L 125.7 103.0 L 133.7 110.0 L 133.7 114.0 L 112.1 114.0 L 112.1 141.0 L 117.4777777671814 141.0 L 123.7 134.0 L 131.7 141.0 L 131.7 145.0 L 112.1 145.0 L 112.1 183.0 L 100.1 189.0 L 100.1 145.0 L 79.8 145.0 L 79.8 141.0 L 100.1 141.0 L 100.1 114.0 L 79.2 114.0 L 79.2 110.0 L 108.81219511032104 110.0 L 109.3 107.5 L 110.0 103.3 L 110.7 99.3 L 112.1 91.5 L 112.8 87.7 L 113.4 84.0 L 114.0 80.4 L 115.02497081756592 74.42100353240967 L 114.9 74.4 L 115.6 71.7 Z M 147.0 90.8 L 147.0 178.6555555343628 L 149.0 176.1 L 152.3 170.6 L 155.5 164.2 L 158.5 156.7 L 159.2678108215332 154.3417239189148 L 156.7 147.2 L 154.0 137.5 L 151.8 126.8 L 150.1 115.4 L 149.0 103.1 L 148.62727270126342 90.8 Z M 31.3 115.0 L 31.3 167.0 L 62.7 167.0 L 62.7 115.0 Z M 150.640625 90.8 L 153.2 102.5 L 155.9 114.3 L 158.9 125.2 L 162.0 135.1 L 163.65589418411255 139.310702419281 L 163.9 138.4 L 166.2 127.6 L 168.3 115.6 L 170.2 102.4 L 171.41678323745728 90.8 Z M 92.0 96.4 L 91.7 93.5 L 91.2 90.6 L 90.7 87.8 L 90.1 84.9 L 88.7 79.1 L 88.0 76.1 L 86.8 73.3 L 88.3 72.3 L 90.3 74.8 L 92.4 77.2 L 94.4 79.7 L 96.2 82.3 L 97.8 85.1 L 99.3 87.9 L 100.7 90.8 L 102.0 93.8 L 103.2 96.8 L 104.2 99.9 L 103.2 104.4 L 99.4 106.9 L 95.0 105.9 L 92.4 102.1 L 92.3 99.2 Z M 155.2 63.3 L 165.2 63.3 L 166.5 63.2 L 167.4 63.1 L 168.0 62.9 L 168.3 62.7 L 168.5 62.6 L 168.8 62.0 L 169.0 61.4 L 169.2 60.5 L 169.2 27.4 L 147.0 27.4 L 147.0 86.8 L 171.7 86.8 L 177.7 81.8 L 188.7 90.8 L 183.7 93.8 L 182.97501525878906 94.1020770072937 L 181.4 104.1 L 178.9 117.5 L 176.0 129.8 L 172.8 140.9 L 169.3 150.9 L 169.027357006073 151.5313838005066 L 169.2 151.9 L 173.2 158.8 L 177.4 164.6 L 181.8 169.5 L 186.4 173.4 L 188.8 175.4 L 177.9 183.6 L 172.6 178.0 L 167.8 171.5 L 163.6 164.2 L 163.3344383239746 163.61863536834716 L 161.3 167.3 L 156.7 173.6 L 151.8 178.6 L 147.0 181.76981134414672 L 147.0 184.3 L 135.0 190.3 L 135.0 71.0 L 78.5 71.0 L 78.5 67.0 L 100.1 67.0 L 100.1 42.0 L 81.8 42.0 L 81.8 38.0 L 100.1 38.0 L 100.1 13.0 L 112.1 15.0 L 115.1 17.0 L 112.1 18.8 L 112.1 38.0 L 115.5777777671814 38.0 L 121.8 31.0 L 129.8 38.0 L 129.8 42.0 L 112.1 42.0 L 112.1 67.0 L 116.81818180084228 67.0 L 125.0 58.0 L 135.0 67.0 L 135.0 17.4 L 147.0 23.4 L 169.2 23.4 L 175.2 18.4 L 186.2 27.4 L 181.2 31.4 L 181.2 59.3 L 181.1 61.9 L 180.6 64.4 L 179.8 66.8 L 178.6 69.0 L 177.0 71.0 L 175.0 72.7 L 172.7 73.9 L 170.3 74.7 L 167.8 75.2 L 165.2 75.3 L 165.2 69.3 L 155.2 66.3 Z M 35.1 29.0 L 35.1 74.0 L 58.8 74.0 L 58.8 29.0 Z " />
</g>
</svg>
