<svg xmlns="http://www.w3.org/2000/svg" xmlns:xlink="http://www.w3.org/1999/xlink" version="1.1" baseProfile="full" viewBox="0 0 200 200" width="200" height="200">
<g fill="black">
<path d="M 145.0 180.0 L 132.3 176.3 L 120.6 171.7 L 109.9 166.3 L 102.94138803482056 161.73341093063354 L 90.6 168.1 L 77.2 173.7 L 62.9 178.4 L 47.8 182.1 L 31.9 184.9 L 15.1 186.6 L 14.8 184.8 L 31.1 181.2 L 46.5 176.9 L 60.9 172.1 L 74.3 166.7 L 86.8 160.5 L 95.0978307723999 155.59345664978028 L 91.8 152.8 L 84.4 144.8 L 78.3 135.9 L 74.89846172332764 128.87980403900147 L 74.5 129.3 L 68.6 134.8 L 62.3 140.0 L 55.6 144.8 L 48.4 149.2 L 40.9 153.3 L 32.8 156.8 L 24.3 159.9 L 23.6 158.3 L 31.1 153.5 L 38.1 148.7 L 44.8 143.8 L 51.0 138.7 L 56.8 133.5 L 62.2 128.1 L 67.1 122.6 L 71.6 116.8 L 75.7 110.8 L 79.3 104.6 L 79.8 103.7 L 89.6 110.8 L 91.1 114.1 L 87.26461534500122 114.1 L 85.0 117.3 L 82.01612901687622 121.0 L 133.832989692688 121.0 L 135.2 119.3 L 135.6341675758362 119.63819370269775 L 140.0 116.0 L 151.0 125.0 L 146.0 128.0 L 142.0433289527893 129.64861297607422 L 135.6 136.8 L 125.7 145.9 L 114.9 154.2 L 111.30420923233032 156.47426080703735 L 114.2 158.0 L 124.4 162.3 L 135.5 165.7 L 147.5 168.4 L 160.5 170.4 L 174.5 171.5 L 185.3 172.4 L 173.4 184.7 L 158.8 182.8 Z M 78.57758617401123 125.0 L 76.60833330154419 127.07666664123535 L 81.7 133.5 L 88.8 140.8 L 96.5 147.3 L 101.96415576934814 151.07286949157714 L 108.9 146.1 L 118.6 137.9 L 127.4 129.0 L 130.61649484634398 125.0 Z M 33.2 104.0 L 32.8 108.6 L 32.1 113.0 L 31.0 117.0 L 29.4 120.7 L 27.3 124.2 L 24.7 127.2 L 21.6 129.9 L 17.0 130.4 L 13.4 127.7 L 12.8 123.2 L 15.5 119.5 L 17.5 118.6 L 19.4 117.2 L 21.2 115.5 L 23.0 113.2 L 24.6 110.4 L 26.1 107.0 L 27.4 103.2 L 28.5 98.8 L 29.5 93.9 L 30.1 88.5 L 31.9 88.4 L 32.6 93.9 L 32.917307662963864 97.2 L 49.0 97.2 L 49.0 38.3 L 61.0 44.3 L 82.05714282989501 44.3 L 82.4 43.7 L 86.6 29.9 L 87.2 27.5 L 87.29130430221558 27.2 L 20.0 27.2 L 20.0 23.2 L 158.0 23.2 L 168.0 13.2 L 180.0 23.2 L 180.0 27.2 L 99.6956521987915 27.2 L 98.0 29.8 L 96.5 32.0 L 93.3 36.2 L 91.7 38.1 L 89.9 40.0 L 88.1 41.8 L 86.3 43.5 L 85.3 44.3 L 139.0 44.3 L 145.0 39.3 L 156.0 48.3 L 151.0 52.3 L 151.0 97.2 L 172.0 97.2 L 172.5333333015442 96.7555555343628 L 172.9 95.9 L 173.27240219116212 96.13966484069825 L 178.0 92.2 L 189.0 101.2 L 184.0 104.2 L 179.54285717010498 106.05714282989501 L 175.3 110.3 L 172.9 112.5 L 170.4 114.7 L 167.7 117.0 L 164.8 119.4 L 161.7 121.8 L 158.6 124.5 L 157.3 123.2 L 159.7 119.9 L 161.6 116.6 L 163.5 113.4 L 165.3 110.4 L 167.0 107.6 L 168.5 105.0 L 169.8 102.5 L 170.45 101.2 L 33.14285717010498 101.2 Z M 61.0 83.6 L 61.0 97.2 L 139.0 97.2 L 139.0 83.6 Z M 61.0 65.9 L 61.0 79.6 L 139.0 79.6 L 139.0 65.9 Z M 61.0 48.3 L 61.0 61.9 L 139.0 61.9 L 139.0 48.3 Z " />
</g>
</svg>
