<svg xmlns="http://www.w3.org/2000/svg" xmlns:xlink="http://www.w3.org/1999/xlink" version="1.1" baseProfile="full" viewBox="0 0 200 200" width="200" height="200">
<g fill="black">
<path d="M 164.6 168.2 L 159.2 159.2 L 154.5 149.3 L 150.4 138.6 L 146.9 127.1 L 144.1 114.8 L 142.0 101.7 L 140.72553224563597 89.04635553359985 L 137.6 106.0 L 133.0 122.4 L 127.1 137.4 L 120.0 150.7 L 111.7 162.6 L 102.1 172.7 L 91.3 181.1 L 79.4 187.7 L 78.5 186.2 L 89.0 178.1 L 98.3 168.9 L 106.4 158.6 L 113.4 147.0 L 119.3 134.0 L 124.1 119.7 L 127.7 103.9 L 130.3 86.7 L 131.25591402053834 74.0 L 91.0 74.0 L 91.0 70.0 L 131.55698928833007 70.0 L 131.7 68.1 L 132.0 48.0 L 132.0 13.0 L 144.0 15.0 L 147.0 17.0 L 144.0 18.8 L 144.0 48.0 L 143.0 68.8 L 142.86943006515503 70.0 L 163.0 70.0 L 173.0 60.0 L 185.0 70.0 L 185.0 74.0 L 142.4341968536377 74.0 L 142.3255581855774 74.99844188690186 L 144.8 87.2 L 147.8 100.6 L 151.1 113.1 L 154.9 124.7 L 159.1 135.3 L 163.7 144.9 L 168.8 153.6 L 174.2 161.3 L 180.1 168.2 L 186.4 174.1 L 188.3 175.8 L 177.5 183.8 L 170.7 176.5 Z M 56.1 176.5 L 71.5 176.5 L 72.4 176.4 L 73.1 176.3 L 73.7 176.0 L 74.1 175.6 L 74.3 175.1 L 74.5 174.4 L 74.7 173.3 L 74.7 40.0 L 13.3 40.0 L 13.3 36.0 L 74.7 36.0 L 84.7 26.0 L 96.7 36.0 L 96.7 40.0 L 85.7 40.0 L 85.7 172.0 L 85.6 174.4 L 85.3 176.7 L 84.6 179.0 L 83.6 181.1 L 82.2 183.1 L 80.4 184.7 L 78.4 186.0 L 76.1 186.8 L 73.8 187.3 L 71.5 187.5 L 71.5 182.0 L 56.1 179.2 Z M 34.5 67.8 L 50.8 67.8 L 56.3 62.8 L 66.8 71.8 L 61.8 75.3 L 61.8 136.1 L 50.8 141.6 L 50.8 130.1 L 34.5 130.1 L 34.5 142.1 L 22.5 148.1 L 22.5 61.8 Z M 34.5 71.8 L 34.5 126.1 L 50.8 126.1 L 50.8 71.8 Z " />
</g>
</svg>
