<svg xmlns="http://www.w3.org/2000/svg" xmlns:xlink="http://www.w3.org/1999/xlink" version="1.1" baseProfile="full" viewBox="0 0 200 200" width="200" height="200">
<g fill="black">
<path d="M 28.5 131.4 L 27.9 140.2 L 27.0 148.4 L 25.8 156.1 L 24.4 163.1 L 22.7 169.5 L 20.8 175.3 L 18.5 180.4 L 15.8 184.8 L 12.8 188.4 L 11.4 187.5 L 12.7 183.3 L 13.9 178.7 L 15.0 173.6 L 15.9 168.0 L 16.7 161.8 L 17.4 155.0 L 17.8 147.7 L 18.0 139.7 L 18.1 131.1 L 17.9 122.0 L 17.9 79.5 L 28.9 85.0 L 60.2 85.0 L 65.7 80.0 L 76.2 89.0 L 71.2 92.5 L 71.2 124.0 L 60.2 129.5 L 60.2 124.0 L 28.814893627166747 124.0 Z M 100.8 175.4 L 120.8 175.4 L 122.1 175.3 L 123.0 175.1 L 123.9 174.8 L 124.1 174.6 L 124.2 174.4 L 124.4 174.1 L 124.6 173.5 L 124.8 172.6 L 124.8 138.6 L 86.7 138.6 L 86.7 134.6 L 151.7 134.6 L 161.7 124.6 L 173.7 134.6 L 173.7 138.6 L 136.8 138.6 L 136.8 171.4 L 136.7 173.9 L 136.3 176.4 L 135.5 178.8 L 134.2 181.1 L 132.6 183.1 L 130.6 184.7 L 128.3 186.0 L 125.9 186.8 L 123.4 187.2 L 120.8 187.4 L 120.8 181.4 L 100.8 178.4 Z M 113.8 155.1 L 115.2 158.5 L 111.20537748336793 158.29338159561158 L 111.2 158.3 L 108.3 161.4 L 105.3 164.3 L 102.2 167.1 L 98.9 169.9 L 95.4 172.5 L 91.7 174.9 L 87.9 177.2 L 83.8 179.3 L 79.7 181.3 L 78.7 179.8 L 81.9 176.6 L 84.9 173.4 L 87.9 170.3 L 90.6 167.2 L 93.2 164.1 L 95.7 161.0 L 98.0 157.8 L 100.1 154.7 L 102.1 151.6 L 103.37152585983276 149.33950958251953 L 103.3 149.3 L 103.815625 148.55 L 103.9 148.4 L 103.91279621124268 148.40866003036498 L 104.4 147.7 Z M 164.6 171.9 L 162.8 169.1 L 160.8 166.3 L 158.6 163.6 L 156.2 160.9 L 153.6 158.3 L 150.8 155.7 L 147.9 153.0 L 144.6 150.6 L 145.4 149.0 L 149.3 150.4 L 153.3 151.8 L 157.0 153.5 L 160.5 155.5 L 163.9 157.7 L 167.1 160.1 L 170.1 162.7 L 172.9 165.5 L 175.5 168.5 L 178.0 171.7 L 178.5 176.3 L 175.8 179.9 L 171.3 180.5 L 167.6 177.8 L 166.2 174.8 Z M 162.2 115.5 L 156.5 109.3 L 151.3 102.6 L 146.6 95.4 L 142.4 87.6 L 138.7 79.3 L 135.6 70.5 L 134.98770952224731 68.12737426757812 L 131.2 70.4 L 129.09698190689087 71.27625751495361 L 126.2 77.7 L 121.5 87.2 L 116.4 96.0 L 111.2 104.2 L 105.6 111.6 L 99.8 118.4 L 93.8 124.4 L 87.4 129.6 L 80.8 133.9 L 74.0 137.3 L 73.0 135.8 L 78.6 130.9 L 83.9 125.5 L 89.0 119.8 L 94.0 113.5 L 98.34059562683106 107.21998929977417 L 95.8 104.6 L 95.6 102.9 L 95.4 101.3 L 95.0 99.6 L 94.6 98.0 L 94.1 96.4 L 92.7 93.0 L 91.9 91.3 L 91.0 89.6 L 90.50971727371216 89.1750883102417 L 89.9 90.0 L 86.4 94.2 L 82.6 97.9 L 78.6 101.1 L 77.2 100.0 L 79.6 95.5 L 82.0 91.1 L 84.4 86.5 L 86.7 81.7 L 88.9 76.7 L 91.0 71.4 L 93.0 65.9 L 94.9 60.1 L 96.7 54.1 L 98.3 47.8 L 98.34802436828613 47.81419849395752 L 98.8 46.2 L 109.8 51.2 L 112.1 54.0 L 108.48987340927124 54.90253162384033 L 107.5 57.7 L 105.10967741012573 63.4 L 119.2 63.4 L 125.2 58.4 L 134.4252788543701 65.94795541763305 L 133.2 61.2 L 131.5 51.3 L 133.2 50.9 L 137.1 59.9 L 138.7470588684082 63.4 L 163.9 63.4 L 169.9 58.4 L 180.9 67.4 L 175.9 70.4 L 173.14827585220337 71.54655170440674 L 172.5 72.6 L 170.8 75.2 L 168.9 77.9 L 166.8 80.7 L 164.5 83.5 L 162.1 86.4 L 159.4 89.3 L 156.5 92.3 L 156.24864940643312 92.57735233306884 L 159.3 96.3 L 164.6 101.8 L 170.1 106.7 L 176.0 111.1 L 182.2 114.9 L 186.3 117.5 L 175.2 126.2 L 168.5 121.1 Z M 28.9 89.0 L 28.9 120.0 L 39.5 120.0 L 39.5 89.0 Z M 49.5 89.0 L 49.5 120.0 L 60.2 120.0 L 60.2 89.0 Z M 152.9 111.4 L 152.9 115.4 L 109.4 115.4 L 109.4 111.4 L 134.71818180084227 111.4 L 142.9 102.4 Z M 104.3 88.0 L 103.9 86.6 L 103.4 85.2 L 102.8 83.7 L 101.9 82.2 L 100.9 80.7 L 99.8 79.1 L 98.4 77.4 L 98.2496784210205 77.29389066696167 L 96.4 80.5 L 93.3 85.4 L 91.72647056579589 87.52889270782471 L 92.3 87.9 L 94.3 88.7 L 96.2 89.6 L 99.8 92.0 L 103.0 95.0 L 104.4 96.7 L 104.55192108154297 96.89532709121704 L 106.84393529891967 92.67593727111816 L 104.6 90.5 L 104.5 89.3 Z M 140.62941179275512 67.4 L 141.1 68.4 L 145.2 76.2 L 149.6 83.5 L 154.3 90.2 L 154.37301807403566 90.28908205032349 L 155.8 86.9 L 157.3 83.4 L 158.8 80.0 L 160.1 76.8 L 161.2 73.8 L 162.2 70.9 L 163.1 68.2 L 163.31538457870482 67.4 Z M 103.33103446960449 67.4 L 102.3 69.7 L 99.4 75.3 L 99.2880597114563 75.49402980804443 L 99.5 75.6 L 101.7 76.1 L 103.8 76.8 L 105.8 77.6 L 107.7 78.6 L 109.6 79.8 L 111.3 81.1 L 112.09844961166382 81.79864339828491 L 115.8 73.1 L 117.98787879943848 67.4 Z M 18.5 64.0 L 38.5 64.0 L 38.5 42.0 L 14.9 42.0 L 14.9 38.0 L 38.5 38.0 L 38.5 13.0 L 50.5 15.0 L 53.5 17.0 L 50.5 18.8 L 50.5 38.0 L 55.0 38.0 L 65.0 28.0 L 77.0 38.0 L 77.0 42.0 L 50.5 42.0 L 50.5 64.0 L 53.81818180084228 64.0 L 62.0 55.0 L 72.0 64.0 L 72.0 68.0 L 18.5 68.0 Z M 73.7 63.2 L 72.4 58.8 L 74.5 54.7 L 75.5 54.2 L 76.7 53.3 L 77.9 51.9 L 79.1 49.9 L 80.3 47.4 L 81.4 44.5 L 82.4 41.0 L 83.3 37.1 L 84.2 32.8 L 84.6 28.1 L 86.4 28.0 L 86.9 32.9 L 87.24666662216187 35.5 L 123.0 35.5 L 123.0 11.8 L 135.0 13.8 L 138.0 15.8 L 135.0 17.6 L 135.0 35.5 L 170.8 35.5 L 176.8 30.5 L 187.8 39.5 L 182.8 42.5 L 179.24931507110597 43.97945203781128 L 178.3 45.2 L 176.7 47.1 L 175.0 49.1 L 173.2 51.2 L 171.3 53.3 L 169.2 55.5 L 167.0 57.7 L 165.0 60.3 L 163.5 59.4 L 164.9 56.5 L 165.9 53.5 L 166.8 50.6 L 167.7 48.0 L 168.6 45.5 L 169.3 43.1 L 170.0 40.9 L 170.3333333015442 39.5 L 87.7 39.5 L 87.9 41.6 L 87.9 45.5 L 87.8 49.1 L 87.3 52.5 L 86.6 55.7 L 85.6 58.7 L 84.1 61.4 L 82.2 63.9 L 77.8 65.2 Z " />
</g>
</svg>
