<svg xmlns="http://www.w3.org/2000/svg" xmlns:xlink="http://www.w3.org/1999/xlink" version="1.1" baseProfile="full" viewBox="0 0 200 200" width="200" height="200">
<g fill="black">
<path d="M 74.1 183.4 L 71.7 182.6 L 69.4 181.3 L 67.4 179.7 L 65.8 177.7 L 64.6 175.4 L 63.7 173.0 L 63.3 170.5 L 63.2 168.0 L 63.2 142.0 L 54.991891860961914 142.0 L 57.5 142.8 L 60.2 145.2 L 56.62471418380737 146.68408088684083 L 55.9 149.9 L 53.6 156.5 L 50.6 162.6 L 46.9 168.2 L 42.7 173.2 L 37.8 177.6 L 32.4 181.4 L 26.4 184.6 L 19.8 187.1 L 12.8 188.8 L 12.2 187.1 L 18.3 183.6 L 23.7 179.9 L 28.5 176.1 L 32.7 172.0 L 36.2 167.7 L 39.2 163.1 L 41.6 158.1 L 43.5 152.8 L 44.8 147.2 L 45.481967258453366 142.0 L 40.3 142.0 L 40.3 154.0 L 28.3 160.0 L 28.3 72.0 L 40.3 78.0 L 80.6 78.0 L 86.6 73.0 L 97.6 82.0 L 92.6 86.0 L 92.6 148.0 L 80.6 154.0 L 80.6 142.0 L 75.2 142.0 L 75.2 169.2 L 75.4 170.1 L 75.6 170.7 L 75.8 171.0 L 75.9 171.2 L 76.1 171.4 L 77.0 171.7 L 77.9 171.9 L 79.2 172.0 L 99.1 172.0 L 105.1 147.0 L 107.1 147.0 L 105.1 172.0 L 108.7 174.4 L 111.1 178.0 L 109.86338024139404 179.8549295425415 L 114.3 177.7 L 124.0 171.8 L 133.0 165.0 L 141.2 157.2 L 148.52195119857788 148.72195119857787 L 144.9 148.4 L 141.8 145.0 L 141.4 142.7 L 140.8 140.4 L 140.0 138.1 L 139.1 135.8 L 138.0 133.5 L 136.7 131.2 L 135.2 128.9 L 133.5 126.6 L 131.7 124.3 L 130.626070022583 123.31945524215698 L 126.3 127.9 L 121.0 132.8 L 115.4 137.3 L 109.5 141.3 L 103.2 144.7 L 102.2 143.2 L 107.1 138.3 L 111.9 133.3 L 116.4 128.2 L 120.6 122.9 L 124.7 117.3 L 128.4 111.5 L 131.9 105.4 L 135.2 99.1 L 138.2 92.5 L 140.3967816352844 87.08650245666504 L 134.3 93.5 L 125.9 100.8 L 117.1 107.4 L 107.7 113.0 L 97.7 117.7 L 96.9 116.2 L 105.6 109.8 L 113.8 103.1 L 121.6 95.9 L 128.8 88.2 L 135.5 80.0 L 140.685396194458 72.64008283615112 L 136.7 72.9 L 133.2 69.9 L 132.6 67.8 L 131.8 65.7 L 130.9 63.6 L 129.9 61.5 L 127.5 57.3 L 126.1 55.3 L 124.6 53.2 L 123.4956618309021 51.77085647583008 L 121.4 54.6 L 117.0 59.7 L 112.3 64.4 L 107.2 68.8 L 101.8 72.6 L 100.6238805770874 71.32587060928344 L 98.6 72.9 L 94.1 72.2 L 91.3 68.6 L 90.8 65.4 L 90.1 62.2 L 89.3 58.9 L 88.3 55.6 L 87.2 52.2 L 86.0 48.7 L 84.6 45.2 L 83.2 41.6 L 81.6 37.8 L 79.8 34.1 L 81.2 33.1 L 84.1 36.2 L 87.0 39.1 L 89.6 42.3 L 92.1 45.4 L 94.3 48.7 L 96.4 52.0 L 98.3 55.3 L 100.0 58.7 L 101.5 62.1 L 102.9 65.6 L 102.38317756652832 68.92242994308472 L 104.5 66.1 L 108.2 60.9 L 111.8 55.6 L 115.1 50.3 L 118.2 44.7 L 121.1 39.0 L 123.7 33.1 L 126.0 27.0 L 128.2 20.7 L 129.7257266998291 15.105668640136718 L 129.7 15.1 L 129.88461542129517 14.523076915740967 L 130.0 14.1 L 130.01817893981934 14.10569076538086 L 130.5 12.6 L 141.5 17.7 L 143.8 20.5 L 140.08006830215453 21.413667392730712 L 138.9 24.5 L 136.4 30.0 L 161.1 30.0 L 167.1 25.0 L 178.1 34.0 L 173.1 37.0 L 171.05355281829833 37.85268630981445 L 167.7 45.7 L 162.1 56.7 L 156.0 67.0 L 149.3 76.5 L 142.4598593711853 84.83934955596924 L 152.0 90.2 L 154.0 93.2 L 150.28844146728517 93.72092046737671 L 148.5 97.4 L 145.28823528289794 103.0 L 171.9 103.0 L 177.9 98.0 L 188.9 107.0 L 183.9 110.0 L 181.87752809524537 110.84269666671753 L 177.8 120.5 L 171.3 132.9 L 164.0 144.2 L 155.9 154.3 L 147.1 163.2 L 137.6 170.9 L 127.4 177.4 L 116.5 182.6 L 105.0 186.4 L 92.9 188.8 L 92.4 187.1 L 100.61860466003418 184.0 L 79.2 184.0 L 76.6 183.8 Z M 142.83384618759155 107.0 L 140.5 110.7 L 136.1 116.8 L 132.12307691574097 121.62307691574097 L 133.2 122.2 L 136.1 123.5 L 138.8 125.1 L 141.4 126.8 L 143.8 128.8 L 146.0 130.9 L 148.1 133.2 L 150.0 135.7 L 151.7 138.4 L 153.2 141.2 L 153.103280544281 142.288094329834 L 155.7 138.6 L 161.9 127.8 L 167.4 115.9 L 170.75461540222167 107.0 Z M 40.3 121.0 L 40.3 138.0 L 80.6 138.0 L 80.6 121.0 Z M 40.3 102.0 L 40.3 117.0 L 80.6 117.0 L 80.6 102.0 Z M 40.3 82.0 L 40.3 98.0 L 80.6 98.0 L 80.6 82.0 Z M 89.34698829650878 14.643819618225098 L 97.5 21.9 L 97.7 25.0 L 93.84079732894898 23.396946525573732 L 93.1 23.7 L 87.4 25.6 L 81.7 27.4 L 75.9 29.1 L 69.9 30.6 L 63.9 31.9 L 57.8 33.1 L 51.6 34.1 L 45.3 34.8 L 43.60167598724365 34.93268156051636 L 40.62769231796265 36.08923072814942 L 40.2 37.8 L 38.7 43.3 L 37.0 48.6 L 35.2 53.7 L 33.2 58.5 L 31.0 63.2 L 28.7 67.6 L 26.1 71.8 L 23.3 75.7 L 20.2 79.3 L 18.7 78.4 L 20.0 74.0 L 21.3 69.5 L 22.6 65.1 L 23.9 60.5 L 25.1 55.8 L 26.3 51.0 L 27.3 46.0 L 28.2 40.9 L 29.1 35.6 L 29.671888542175292 31.106589794158936 L 29.6 31.1 L 30.1 28.2 L 39.05531911849975 31.314893627166747 L 44.2 29.6 L 50.1 27.7 L 55.9 25.7 L 61.6 23.7 L 67.2 21.7 L 72.7 19.5 L 78.1 17.3 L 83.3 15.0 L 87.52594089508057 13.049565696716309 L 87.5 13.0 L 87.54553213119507 13.040523624420166 L 88.5 12.6 Z M 57.5 60.6 L 57.3 57.9 L 57.0 55.3 L 56.6 52.6 L 56.1 50.0 L 55.5 47.3 L 54.9 44.7 L 54.2 41.9 L 53.1 39.5 L 54.6 38.5 L 56.4 40.6 L 58.4 42.7 L 60.3 45.0 L 62.0 47.4 L 63.6 50.0 L 65.1 52.7 L 66.4 55.4 L 67.6 58.3 L 68.6 61.3 L 69.5 64.4 L 68.4 68.8 L 64.5 71.2 L 60.1 70.0 L 57.7 66.1 L 57.6 63.3 Z M 134.4269841194153 34.0 L 132.7 37.4 L 129.2 43.4 L 125.4 49.2 L 125.25879869461059 49.39062166213989 L 127.0 50.1 L 129.5 51.4 L 131.9 52.8 L 134.2 54.4 L 136.4 56.2 L 138.5 58.1 L 140.4 60.1 L 142.2 62.3 L 144.0 64.6 L 144.11387901306153 67.21921710968017 L 147.4 61.8 L 152.5 51.8 L 157.2 41.1 L 159.8625 34.0 Z " />
</g>
</svg>
