<svg xmlns="http://www.w3.org/2000/svg" xmlns:xlink="http://www.w3.org/1999/xlink" version="1.1" baseProfile="full" viewBox="0 0 200 200" width="200" height="200">
<g fill="black">
<path d="M 155.2 182.0 L 145.8 178.4 L 137.5 173.8 L 130.66766319274902 168.74594268798828 L 126.2 171.4 L 115.1 176.5 L 103.1 180.7 L 90.2 184.1 L 76.4 186.4 L 61.7 187.8 L 61.5 186.1 L 75.7 182.7 L 88.8 178.9 L 101.0 174.5 L 112.0 169.6 L 122.0 164.0 L 124.41836090087891 162.33401803970338 L 124.1 162.0 L 119.2 154.9 L 115.5 147.0 L 113.18912239074707 138.62306880950928 L 108.4 143.6 L 102.9 148.4 L 97.1 152.8 L 90.9 156.7 L 84.3 160.0 L 77.4 162.7 L 76.5 161.2 L 82.4 156.8 L 87.8 152.3 L 93.0 147.7 L 97.8 142.8 L 102.2 137.8 L 106.3 132.5 L 110.0 126.9 L 113.4 121.0 L 116.5 114.9 L 118.81775064468384 109.40607261657715 L 118.8 109.4 L 119.08260869979858 108.77826089859009 L 119.2 108.5 L 119.20758619308472 108.50331029891967 L 119.8 107.2 L 130.2 113.3 L 132.2 116.3 L 128.32910280227662 116.8339168548584 L 126.6 120.1 L 122.6 126.6 L 121.59016389846802 128.0 L 156.0 128.0 L 156.5368420600891 127.5526315689087 L 156.8 127.1 L 156.96955013275146 127.19204149246215 L 162.0 123.0 L 173.0 132.0 L 168.0 135.0 L 165.0665060043335 136.2222891807556 L 161.1 142.3 L 153.8 150.9 L 145.6 158.6 L 139.45438594818114 163.09356727600098 L 142.6 165.0 L 150.0 168.2 L 158.4 170.6 L 167.7 172.4 L 178.0 173.4 L 188.7 174.3 L 176.8 186.5 L 165.5 184.7 Z M 61.2 151.0 L 57.9 146.6 L 54.2 142.3 L 53.63560209274292 141.69218683242798 L 47.4 153.3 L 40.0 163.9 L 31.7 173.1 L 22.6 180.7 L 12.7 186.7 L 11.7 185.2 L 20.2 177.8 L 27.8 169.5 L 34.7 160.1 L 40.8 149.5 L 46.2 137.7 L 47.107444190979 135.13548383712768 L 46.1 134.2 L 41.6 130.3 L 36.8 126.6 L 31.8 122.9 L 29.601581001281737 121.39367589950561 L 28.7 125.0 L 25.7 136.5 L 14.1 133.4 L 17.1 122.0 L 20.0 110.6 L 25.4 87.4 L 27.9 75.7 L 30.3 63.9 L 30.654237270355225 62.0 L 12.2 62.0 L 12.2 58.0 L 31.4 58.0 L 32.5 52.1 L 34.7 40.2 L 36.7 28.1 L 38.6 16.0 L 38.632674312591554 16.004942321777342 L 38.9 14.0 L 50.5 17.8 L 53.1 20.3 L 49.909228038787845 21.624471378326415 L 48.6 30.1 L 46.5 42.2 L 44.3 54.3 L 43.62166662216187 58.0 L 61.8 58.0 L 67.8 53.0 L 78.8 62.0 L 73.8 65.0 L 73.20700607299804 65.24708080291748 L 71.5 79.2 L 68.4 96.7 L 64.4 112.9 L 59.6 127.7 L 57.397414684295654 132.91664943695068 L 60.7 135.6 L 65.3 139.8 L 69.6 144.3 L 73.6 149.2 L 77.3 154.3 L 78.0 158.8 L 75.3 162.5 L 70.8 163.2 L 67.1 160.5 L 64.3 155.7 Z M 118.70491800308227 132.0 L 118.2 132.7 L 116.28383979797363 134.98308448791505 L 117.1 137.1 L 120.8 144.4 L 125.2 150.8 L 130.2 156.4 L 131.46643619537355 157.40441493988038 L 138.9 151.1 L 145.8 143.7 L 151.8 135.7 L 153.951162815094 132.0 Z M 42.888333320617676 62.0 L 42.1 66.3 L 39.6 78.2 L 37.1 90.0 L 34.4 101.7 L 31.6 113.4 L 30.326838207244872 118.49264707565308 L 33.5 119.5 L 39.5 122.0 L 45.3 124.9 L 49.78812999725342 127.55963258743286 L 50.8 124.7 L 54.7 110.4 L 57.8 94.7 L 60.2 77.8 L 61.58142080307007 62.0 Z M 181.5 94.5 L 183.5 94.5 L 181.5 107.5 L 184.2 109.3 L 186.0 112.0 L 184.2 114.7 L 181.5 116.5 L 153.2 116.5 L 150.9 116.2 L 148.6 115.6 L 146.4 114.6 L 144.4 113.2 L 142.7 111.3 L 141.4 109.2 L 140.5 106.9 L 139.9 104.5 L 139.6 102.0 L 139.6 86.9 L 128.70980396270753 86.9 L 126.5 91.8 L 123.6 96.6 L 120.1 101.1 L 115.9 105.3 L 111.2 109.2 L 106.0 112.7 L 100.2 116.0 L 93.8 119.0 L 86.9 121.6 L 79.3 123.8 L 78.7 122.1 L 85.3 118.2 L 91.3 114.3 L 96.7 110.4 L 101.5 106.6 L 105.7 102.7 L 109.2 98.8 L 112.1 94.9 L 114.4 91.0 L 116.2 87.1 L 116.25641021728515 86.9 L 100.7 86.9 L 100.7 93.9 L 88.7 99.9 L 88.7 25.6 L 100.7 31.6 L 117.89565219879151 31.6 L 118.6 30.7 L 120.0 28.2 L 121.3 25.9 L 122.6 23.7 L 123.9 21.6 L 125.0 19.5 L 126.1 17.6 L 127.1 15.8 L 128.40060977935792 13.343292713165283 L 128.2 13.2 L 128.85443038940429 12.486075973510742 L 128.9 12.4 L 128.91866664886476 12.41599998474121 L 129.3 12.0 L 138.0 20.2 L 139.0 23.6 L 134.43489933013916 22.87919464111328 L 133.1 23.9 L 129.3 26.5 L 127.2 28.0 L 125.0 29.4 L 122.7 30.9 L 121.58000001907348 31.6 L 164.9 31.6 L 170.9 26.6 L 181.9 35.6 L 176.9 39.6 L 176.9 90.9 L 164.9 96.9 L 164.9 86.9 L 151.6 86.9 L 151.6 102.0 L 151.5 103.2 L 151.6 104.2 L 151.6 104.9 L 151.7 105.4 L 151.8 105.7 L 152.1 106.1 L 152.5 106.5 L 153.2 106.9 L 154.2 107.2 L 155.6 107.5 L 177.0 107.5 Z M 145.3 72.5 L 141.8 69.3 L 138.3765164375305 66.49098787307739 L 134.7 69.2 L 128.7 72.9 L 122.2 76.1 L 115.3 78.8 L 107.9 80.9 L 100.7 82.19230766296387 L 100.7 82.9 L 164.9 82.9 L 164.9 35.6 L 100.7 35.6 L 100.7 80.08142852783203 L 106.6 77.3 L 113.1 73.9 L 119.1 70.3 L 124.6 66.5 L 129.6 62.5 L 131.10360250473022 61.02981090545654 L 129.5 59.9 L 124.8 56.8 L 119.9 53.7 L 114.7 50.6 L 109.2 47.3 L 109.9 45.6 L 116.2 47.1 L 122.1 48.9 L 127.8 51.0 L 133.2 53.3 L 136.75750150680543 55.04387331008911 L 138.1 53.5 L 141.6 48.6 L 144.7 43.5 L 147.4 38.0 L 147.4401487350464 38.01970262527466 L 148.0 36.9 L 158.2 43.3 L 160.0 46.4 L 156.11661195755005 46.734774875640866 L 154.5 49.4 L 150.2 55.1 L 145.736155128479 59.94374656677246 L 147.8 61.2 L 152.1 64.2 L 156.2 67.3 L 160.0 70.6 L 161.6 74.8 L 159.9 79.1 L 155.6 80.7 L 151.4 79.0 L 148.5 75.7 Z " />
</g>
</svg>
