<svg xmlns="http://www.w3.org/2000/svg" xmlns:xlink="http://www.w3.org/1999/xlink" version="1.1" baseProfile="full" viewBox="0 0 200 200" width="200" height="200">
<g fill="black">
<path d="M 70.0 176.2 L 90.0 176.2 L 91.2 176.1 L 92.1 175.9 L 92.7 175.8 L 93.0 175.6 L 93.4 175.2 L 93.7 174.3 L 93.9 173.4 L 94.0 172.2 L 94.0 141.1 L 13.0 141.1 L 13.0 137.1 L 94.0 137.1 L 94.0 118.2 L 105.35545854568481 120.09257640838624 L 105.9 119.7 L 110.2 116.8 L 114.5 114.1 L 118.7 111.4 L 122.8 108.8 L 126.8 106.3 L 130.7 103.7 L 131.0119999885559 103.5 L 44.0 103.5 L 44.0 99.5 L 137.2208333015442 99.5 L 138.3 98.8 L 141.9 96.3 L 142.20861139297486 96.82615718841552 L 145.0 94.5 L 156.0 103.5 L 151.0 106.5 L 139.0 111.5 L 139.0 110.91666669845581 L 135.5 112.5 L 131.1 114.4 L 126.6 116.3 L 122.0 118.1 L 117.3 119.9 L 112.5 121.5 L 107.5 123.1 L 106.0 124.0 L 106.0 137.1 L 166.0 137.1 L 176.0 127.1 L 188.0 137.1 L 188.0 141.1 L 106.0 141.1 L 106.0 172.2 L 105.8 174.7 L 105.4 177.2 L 104.6 179.6 L 103.3 181.9 L 101.7 183.9 L 99.7 185.6 L 97.4 186.8 L 95.0 187.6 L 92.5 188.0 L 90.0 188.2 L 90.0 182.2 L 70.0 179.2 Z M 156.0 84.8 L 148.0 80.6 L 140.5 75.9 L 133.8 70.9 L 127.8 65.4 L 122.5 59.6 L 117.9 53.4 L 114.3 46.8 L 112.17857141494751 41.3 L 97.18235292434693 41.3 L 91.8 50.3 L 84.6 59.4 L 76.3 67.6 L 66.9 74.6 L 56.5 80.6 L 45.0 85.4 L 32.6 89.1 L 19.1 91.6 L 18.8 89.9 L 31.4 85.5 L 42.9 80.5 L 53.3 74.8 L 62.5 68.4 L 70.5 61.3 L 77.5 53.5 L 83.4 44.8 L 85.18723402023315 41.3 L 20.0 41.3 L 20.0 37.3 L 87.2297872543335 37.3 L 88.2 35.4 L 92.0 25.2 L 94.9 14.0 L 94.92113819122315 14.004878044128418 L 95.3 12.3 L 106.6 16.7 L 109.1 19.3 L 105.42192583084106 20.48223810195923 L 102.8 28.9 L 99.125 37.3 L 161.0 37.3 L 171.0 27.3 L 183.0 37.3 L 183.0 41.3 L 115.1714285850525 41.3 L 117.8 44.5 L 122.6 49.7 L 127.7 54.6 L 133.3 59.1 L 139.3 63.4 L 145.9 67.2 L 153.0 70.8 L 160.7 74.0 L 169.0 76.9 L 177.8 79.5 L 185.7 81.8 L 174.1 92.1 L 164.7 88.7 Z M 101.8 84.6 L 101.0 82.7 L 99.9 80.6 L 98.5 78.3 L 96.7 75.9 L 94.6 73.4 L 92.2 70.8 L 89.6 68.0 L 86.3 65.5 L 87.3 64.0 L 91.0 65.8 L 94.7 67.4 L 98.0 69.2 L 101.1 71.0 L 103.9 73.0 L 106.4 75.0 L 108.7 77.1 L 110.7 79.4 L 112.4 81.9 L 113.8 84.5 L 113.3 89.0 L 109.8 92.0 L 105.3 91.5 L 102.3 88.0 L 102.2 86.4 Z " />
</g>
</svg>
