<svg xmlns="http://www.w3.org/2000/svg" xmlns:xlink="http://www.w3.org/1999/xlink" version="1.1" baseProfile="full" viewBox="0 0 200 200" width="200" height="200">
<g fill="black">
<path d="M 25.3 176.0 L 39.3 176.0 L 40.5 175.9 L 41.4 175.7 L 42.3 175.4 L 42.7 175.0 L 43.0 174.1 L 43.2 173.2 L 43.3 172.0 L 43.3 110.7779411315918 L 37.8 112.8 L 24.4 117.4 L 21.68825273513794 118.24995059967041 L 20.4 121.9 L 17.7 119.5 L 12.7 108.4 L 14.7 107.9 L 21.3 106.4 L 34.9 103.2 L 41.8 101.4 L 43.3 101.01428575515747 L 43.3 62.0 L 50.31824102401733 63.16970682144165 L 51.1 61.7 L 53.6 57.2 L 56.1 52.8 L 58.5 48.6 L 60.8 44.6 L 63.0 40.6 L 65.1 36.8 L 67.1 33.1 L 68.12162160873413 31.0 L 15.2 31.0 L 15.2 27.0 L 69.8 27.0 L 70.24639997482299 26.62799997329712 L 70.6 25.9 L 70.90519189834595 26.07900676727295 L 75.8 22.0 L 86.8 31.0 L 81.8 34.0 L 78.56610174179077 35.347457599639895 L 76.1 38.8 L 73.4 42.2 L 70.6 45.8 L 67.6 49.3 L 64.5 52.9 L 61.2 56.6 L 57.7 60.3 L 54.01968507766723 63.78661413192749 L 55.3 64.0 L 58.3 66.0 L 55.3 67.8 L 55.3 97.86056337356567 L 55.9 97.7 L 63.1 95.8 L 70.4 93.8 L 77.8 91.9 L 85.5 90.1 L 86.1 91.8 L 79.2 95.5 L 72.2 98.9 L 65.3 102.0 L 58.3 104.9 L 55.3 106.11739130020142 L 55.3 172.0 L 55.1 174.5 L 54.7 177.0 L 53.9 179.4 L 52.7 181.7 L 51.0 183.7 L 49.0 185.3 L 46.7 186.6 L 44.3 187.4 L 41.8 187.8 L 39.3 188.0 L 39.3 182.0 L 25.3 179.0 Z M 139.0 15.0 L 142.0 17.0 L 139.0 18.8 L 139.0 85.0 L 165.0 85.0 L 165.0 32.0 L 177.0 34.0 L 180.0 36.0 L 177.0 37.8 L 177.0 93.0 L 165.0 99.0 L 165.0 89.0 L 139.0 89.0 L 139.0 166.0 L 167.0 166.0 L 167.0 113.0 L 179.0 115.0 L 182.0 117.0 L 179.0 118.8 L 179.0 176.0 L 167.0 182.0 L 167.0 170.0 L 99.0 170.0 L 99.0 182.0 L 87.0 188.0 L 87.0 113.0 L 99.0 115.0 L 102.0 117.0 L 99.0 118.8 L 99.0 166.0 L 127.0 166.0 L 127.0 89.0 L 101.0 89.0 L 89.0 95.0 L 89.0 32.0 L 101.0 34.0 L 104.0 36.0 L 101.0 37.8 L 101.0 85.0 L 127.0 85.0 L 127.0 13.0 Z " />
</g>
</svg>
