<svg xmlns="http://www.w3.org/2000/svg" xmlns:xlink="http://www.w3.org/1999/xlink" version="1.1" baseProfile="full" viewBox="0 0 200 200" width="200" height="200">
<g fill="black">
<path d="M 68.3 126.9 L 63.3 134.3 L 58.7 140.9 L 54.6 146.8 L 51.1 152.0 L 48.1 156.4 L 45.8 160.2 L 44.0 163.3 L 43.23292684555054 164.83414630889894 L 45.0 167.6 L 46.5 171.7 L 47.4 176.1 L 47.4 180.9 L 45.1 184.8 L 40.7 186.0 L 36.8 183.7 L 35.5 179.3 L 36.1 176.2 L 36.3 173.5 L 36.0 171.0 L 35.3 168.6 L 34.1 166.3 L 32.2 164.0 L 29.7 161.7 L 26.4 159.5 L 22.4 157.4 L 17.6 155.8 L 18.0 154.1 L 23.2 154.7 L 28.0 155.4 L 32.4 156.7 L 34.687841987609865 157.8145896911621 L 35.2 157.2 L 37.7 154.3 L 40.7 150.8 L 44.4 146.7 L 48.7 142.1 L 53.6 136.8 L 59.1 130.9 L 65.4 124.5 L 72.5 117.6 L 73.8 118.7 L 71.45243902206421 122.2 L 114.8 122.2 L 114.8 106.8 L 80.0 106.8 L 80.0 102.8 L 114.8 102.8 L 114.8 87.2 L 125.8 89.2 L 128.5 91.2 L 125.8 92.92340421676636 L 125.8 102.8 L 130.2 102.8 L 140.2 92.8 L 152.16634845733643 102.7719570159912 L 156.3 99.0 L 163.11001634597778 92.00838327407837 L 163.1 92.0 L 164.1 91.0 L 172.3 99.7 L 173.1 103.3 L 169.39926137924195 102.39104661941528 L 164.0 107.4 L 155.1 114.6 L 145.8 121.3 L 144.4 122.2 L 166.01818180084229 122.2 L 174.2 113.2 L 184.2 122.2 L 184.2 126.2 L 138.1777777671814 126.2 L 136.95384616851806 126.98681316375732 L 137.0 127.0 L 139.2 127.0 L 141.2 127.1 L 145.2 127.7 L 147.0 128.2 L 148.8 128.8 L 150.6 129.5 L 152.2 130.4 L 153.8 131.4 L 155.2 135.7 L 153.2 139.8 L 150.37142858505248 140.7 L 155.9 140.7 L 161.9 135.7 L 172.9 144.7 L 167.9 148.7 L 167.9 180.9 L 155.9 186.9 L 155.9 178.9 L 103.2 178.9 L 103.2 181.9 L 91.2 187.9 L 91.2 148.1975206375122 L 80.4 151.5 L 67.9 154.5 L 67.4 152.8 L 79.1 147.9 L 90.5 142.8 L 91.2 142.4564814567566 L 91.2 134.7 L 99.0289719581604 138.61448602676393 L 101.3 137.5 L 111.7 131.9 L 121.26440677642822 126.2 L 68.76951217651367 126.2 Z M 103.2 161.8 L 103.2 174.9 L 155.9 174.9 L 155.9 161.8 Z M 103.2 144.7 L 103.2 157.8 L 155.9 157.8 L 155.9 144.7 Z M 144.1 137.3 L 143.5 136.2 L 142.7 135.1 L 141.8 133.9 L 140.7 132.7 L 139.4 131.5 L 137.9 130.2 L 136.3 128.9 L 134.7306167602539 128.32180614471434 L 125.8 133.4 L 115.1 138.7 L 110.475 140.7 L 147.775 140.7 L 144.7 139.2 L 144.5 138.3 Z M 36.5 129.3 L 35.2 128.1 L 33.6 126.8 L 31.5 125.5 L 29.1 124.1 L 26.3 122.7 L 23.3 121.3 L 19.9 119.7 L 16.1 118.6 L 16.4 116.9 L 20.4 117.3 L 24.2 117.4 L 27.7 117.6 L 31.0 118.0 L 34.0 118.4 L 36.9 119.0 L 39.5 119.7 L 41.9 120.5 L 44.2 121.6 L 46.3 122.9 L 48.0 127.1 L 46.3 131.3 L 42.1 133.1 L 37.9 131.4 L 37.4 130.4 Z M 125.8 106.8 L 125.8 122.2 L 127.36129035949708 122.2 L 131.0 119.8 L 139.9 113.2 L 147.69130430221557 106.8 Z M 50.4 103.9 L 49.0 102.6 L 47.3 101.3 L 45.3 99.9 L 43.0 98.6 L 40.4 97.2 L 37.6 95.7 L 34.4 94.2 L 30.9 93.1 L 31.3 91.4 L 35.0 91.8 L 38.5 91.9 L 41.9 92.1 L 45.0 92.5 L 48.0 93.0 L 50.7 93.5 L 53.3 94.2 L 55.7 95.1 L 58.0 96.1 L 60.1 97.2 L 62.0 101.4 L 60.5 105.7 L 56.4 107.6 L 52.0 106.1 L 51.4 105.1 Z M 75.8 89.7 L 91.2 89.7 L 92.2 89.6 L 92.8 89.5 L 93.2 89.3 L 93.5 89.2 L 93.6 89.0 L 93.8 88.8 L 94.0 88.3 L 94.2 87.6 L 94.4 86.5 L 94.5 85.2 L 94.5 69.8 L 18.4 69.8 L 18.4 65.8 L 94.5 65.8 L 94.5 57.9 L 101.44358348846436 59.16246976852417 L 104.3 57.4 L 108.8 54.5 L 113.1 51.9 L 117.1 49.6 L 120.9 47.4 L 121.8 46.9 L 47.2 46.9 L 47.2 42.9 L 129.15625 42.9 L 130.9 42.0 L 133.7 40.5 L 136.3 39.2 L 136.4253680229187 39.545526599884035 L 138.4 37.9 L 149.4 46.9 L 144.4 49.9 L 132.4 54.9 L 132.4 52.446875 L 131.5 52.7 L 127.9 53.7 L 124.1 54.9 L 120.0 56.1 L 115.5 57.5 L 110.8 58.9 L 105.94806871414184 60.23190269470215 L 108.2 61.9 L 105.5 63.62340421676636 L 105.5 65.8 L 159.6 65.8 L 169.6 55.8 L 181.6 65.8 L 181.6 69.8 L 105.5 69.8 L 105.5 85.2 L 105.3 87.6 L 105.0 89.9 L 104.3 92.2 L 103.3 94.3 L 101.9 96.3 L 100.1 97.9 L 98.1 99.2 L 95.9 100.1 L 93.6 100.5 L 91.2 100.7 L 91.2 95.2 L 75.8 92.4 Z M 36.9 33.4 L 36.6 36.4 L 35.9 39.3 L 34.8 42.1 L 33.2 44.7 L 31.1 47.1 L 28.7 49.2 L 25.9 50.9 L 21.3 50.7 L 18.1 47.5 L 18.3 42.9 L 21.6 39.7 L 23.4 39.4 L 25.1 38.8 L 26.6 38.1 L 28.1 37.2 L 29.4 35.9 L 30.7 34.3 L 31.9 32.3 L 33.0 29.9 L 34.0 27.1 L 34.2 23.9 L 36.0 23.8 L 36.3 27.2 L 36.44516124725342 28.1 L 94.0 28.1 L 94.0 12.1 L 106.0 14.1 L 109.0 16.1 L 106.0 17.9 L 106.0 28.1 L 165.5 28.1 L 166.325 27.4125 L 166.4 27.3 L 167.2 25.9 L 167.63003225326537 26.324973106384277 L 171.5 23.1 L 182.5 32.1 L 177.5 35.1 L 165.5 40.1 L 165.5 39.965217399597165 L 163.9 40.8 L 161.4 42.1 L 158.8 43.3 L 155.9 44.5 L 153.2 46.2 L 152.1 44.7 L 154.5 42.6 L 156.4 40.2 L 158.3 38.0 L 160.0 35.9 L 161.6 33.9 L 163.0 32.1 L 36.858064556121825 32.1 Z " />
</g>
</svg>
