<svg xmlns="http://www.w3.org/2000/svg" xmlns:xlink="http://www.w3.org/1999/xlink" version="1.1" baseProfile="full" viewBox="0 0 200 200" width="200" height="200">
<g fill="black">
<path d="M 73.2 106.4 L 71.8 104.8 L 70.1 103.3 L 68.0 101.6 L 65.6 99.9 L 63.0 98.1 L 60.0 96.3 L 56.7 94.4 L 54.684507083892825 93.50422534942626 L 51.5 98.0 L 47.8 102.6 L 43.8 107.1 L 39.5 111.4 L 35.34878044128418 115.1 L 62.31818180084228 115.1 L 70.5 106.1 L 80.5 115.1 L 80.5 119.1 L 58.4 119.1 L 58.4 133.7 L 63.5 133.7 L 73.5 123.7 L 85.5 133.7 L 85.5 137.7 L 58.4 137.7 L 58.4 168.2970149040222 L 63.4 167.7 L 76.8 166.5 L 83.6 166.1 L 84.0 167.9 L 77.6 170.2 L 71.1 172.3 L 64.6 174.2 L 58.1 175.9 L 44.9 179.1 L 38.4 180.5 L 31.8 181.9 L 25.2 183.2 L 22.69585256576538 183.65529956817628 L 21.0 187.1 L 18.6 184.4 L 15.0 172.8 L 17.0 172.5 L 30.2 171.3 L 43.4 169.9 L 46.4 169.58656721115113 L 46.4 137.7 L 18.5 137.7 L 18.5 133.7 L 46.4 133.7 L 46.4 119.1 L 33.4 119.1 L 33.4 116.72448978424072 L 30.0 119.5 L 24.7 123.3 L 19.2 126.8 L 13.2 130.0 L 12.1 128.6 L 16.8 123.8 L 21.3 119.2 L 25.5 114.7 L 29.5 110.2 L 33.2 105.6 L 36.6 101.1 L 39.8 96.6 L 42.6 92.0 L 45.2 87.4 L 47.04927215576172 83.62105264663697 L 47.0 83.6 L 48.0 81.7 L 58.0 88.3 L 59.8 91.5 L 56.55545310974121 91.66497697830201 L 57.6 91.9 L 61.4 92.5 L 65.0 93.2 L 68.3 94.0 L 71.4 94.9 L 74.3 95.8 L 77.0 96.9 L 79.4 98.1 L 81.7 99.5 L 83.8 101.0 L 85.3 105.4 L 83.3 109.5 L 79.0 111.0 L 74.9 109.0 L 74.2 107.8 Z M 179.2 149.4 L 181.2 149.4 L 179.2 174.4 L 182.8 176.8 L 185.2 180.4 L 182.8 184.0 L 179.2 186.4 L 153.8 186.4 L 151.2 186.2 L 148.7 185.8 L 146.3 185.0 L 144.0 183.7 L 142.0 182.1 L 140.4 180.1 L 139.1 177.8 L 138.3 175.4 L 137.9 172.9 L 137.8 170.4 L 137.8 144.1 L 118.65681819915771 144.1 L 129.7 148.4 L 132.2 150.9 L 128.4085515022278 152.2097731590271 L 127.7 154.3 L 124.8 159.8 L 121.0 164.9 L 116.6 169.4 L 111.4 173.5 L 105.5 177.1 L 98.9 180.2 L 91.7 182.8 L 83.7 184.9 L 75.0 186.4 L 74.6 184.7 L 82.5 181.3 L 89.6 177.8 L 95.9 174.3 L 101.4 170.6 L 106.1 166.8 L 110.0 162.9 L 113.1 158.8 L 115.4 154.6 L 117.0 150.3 L 117.875 146.45 L 118.37857141494752 144.1 L 111.3 144.1 L 111.3 151.1 L 99.3 157.1 L 99.3 115.2 L 95.1 117.4 L 90.7 119.5 L 86.0 121.4 L 81.1 123.1 L 80.3 121.6 L 84.3 118.4 L 88.1 115.3 L 91.7 112.3 L 95.1 109.3 L 98.3 106.4 L 101.2 103.5 L 104.0 100.6 L 106.5 97.7 L 108.9 94.8 L 110.41395349502564 92.78139533996583 L 110.3 92.7 L 111.4 91.5 L 112.2 92.25402297973633 L 112.2 88.5 L 142.13999996185302 88.5 L 147.3 84.2 L 158.3 93.2 L 154.9166666984558 95.23000001907349 L 156.7 96.3 L 159.8 98.0 L 163.1 99.8 L 166.6 101.4 L 170.3 103.0 L 174.2 104.6 L 178.4 106.1 L 182.7 107.5 L 189.2 110.2 L 177.7 119.8 L 173.2 117.4 L 171.05238094329835 116.14285717010497 L 175.4 119.7 L 170.4 123.7 L 170.4 148.1 L 158.4 154.1 L 158.4 144.1 L 149.8 144.1 L 149.8 171.6 L 150.0 172.5 L 150.2 173.1 L 150.4 173.4 L 150.5 173.6 L 150.7 173.8 L 151.6 174.1 L 152.5 174.3 L 153.8 174.4 L 173.2 174.4 Z M 28.9 160.8 L 28.8 159.4 L 28.4 157.9 L 27.8 156.3 L 26.9 154.5 L 25.8 152.6 L 24.4 150.6 L 22.7 148.5 L 20.5 146.8 L 21.4 145.3 L 24.0 146.7 L 26.6 147.7 L 29.0 148.9 L 31.3 150.2 L 33.3 151.6 L 35.2 153.2 L 36.9 155.0 L 38.4 157.0 L 39.6 159.1 L 40.5 161.5 L 39.3 165.9 L 35.4 168.2 L 31.0 167.1 L 28.7 163.1 L 28.9 162.1 Z M 81.8 149.0 L 83.3 152.3 L 78.57738361358642 152.2199556350708 L 76.9 153.7 L 75.1 155.2 L 73.3 156.8 L 71.4 158.2 L 69.3 159.7 L 67.2 161.1 L 64.9 162.5 L 63.0 164.2 L 61.7 162.9 L 63.3 160.9 L 64.4 158.6 L 68.6 150.2 L 69.4 148.2 L 71.0 144.4 L 71.2707447052002 143.58776597976686 L 71.1 143.5 L 71.5615385055542 142.71538457870483 L 71.6 142.6 L 71.62148275375367 142.6134793281555 L 72.1 141.8 Z M 111.3 119.7 L 111.3 140.1 L 158.4 140.1 L 158.4 119.7 Z M 146.7 92.5 L 112.46097564697266 92.5 L 120.1 99.7 L 121.1 103.2 L 117.11844263076782 102.58217210769654 L 117.1 102.6 L 114.0 105.3 L 110.6 107.9 L 107.0 110.5 L 104.30465116500855 112.20232553482056 L 111.3 115.7 L 158.4 115.7 L 163.63214282989503 111.33988094329834 L 161.5 109.8 L 158.2 107.1 L 155.1 104.2 L 152.4 101.3 L 150.1 98.2 L 149.9168674468994 97.8915662765503 L 147.3 99.2 L 147.3 93.2 L 146.7 92.0 Z M 146.7 91.7214285850525 L 147.3 91.25 L 147.3 91.2 L 146.7 91.0 Z M 155.4 83.2 L 146.3 81.6 L 137.9 79.6 L 130.2 77.3 L 123.2 74.7 L 116.9 71.8 L 111.4 68.5 L 106.7 64.7 L 103.35714282989503 60.8 L 98.02105264663696 60.8 L 96.5 62.5 L 90.1 67.4 L 82.6 71.5 L 73.9 74.9 L 64.0 77.7 L 52.8 79.9 L 40.5 81.4 L 26.9 82.3 L 12.0 82.5 L 11.9 80.7 L 26.5 78.5 L 39.7 76.1 L 51.5 73.4 L 61.9 70.4 L 70.9 67.0 L 78.3 63.2 L 81.9 60.8 L 12.0 60.8 L 12.0 56.8 L 86.86744184494019 56.8 L 88.9 54.9 L 92.0 50.6 L 92.77511959075927 48.85598087310791 L 92.5 48.9 L 90.0 49.1 L 90.0 43.1 L 70.0 40.1 L 70.0 37.1 L 90.0 37.1 L 91.2 37.0 L 92.1 36.9 L 92.7 36.7 L 93.0 36.5 L 93.2 36.3 L 93.4 36.2 L 93.5 35.8 L 93.7 35.2 L 93.9 34.3 L 94.0 33.1 L 94.0 9.7 L 106.0 11.7 L 109.0 13.7 L 106.0 15.5 L 106.0 33.1 L 105.8 35.6 L 105.4 38.1 L 104.6 40.5 L 103.3 42.8 L 101.7 44.8 L 99.7 46.5 L 98.85723810195923 46.939701843261716 L 105.2 50.2 L 107.4 53.1 L 103.18181819915772 53.9 L 101.6 56.8 L 165.0 56.8 L 175.0 46.8 L 187.0 56.8 L 187.0 60.8 L 108.13999996185302 60.8 L 109.1 61.2 L 114.1 63.2 L 119.7 65.1 L 125.8 66.8 L 132.6 68.3 L 140.0 69.6 L 148.1 70.7 L 156.8 71.5 L 166.2 72.1 L 176.3 72.5 L 187.5 73.1 L 175.6 85.7 L 165.2 84.6 Z M 58.5 25.1 L 59.2 28.6 L 55.27384614944458 27.618461513519286 L 51.9 30.0 L 48.1 32.3 L 44.0 34.4 L 39.5 36.5 L 34.8 38.4 L 29.7 40.3 L 24.2 42.0 L 18.4 43.5 L 12.3 44.7 L 11.6 43.1 L 17.1 40.0 L 22.2 37.1 L 27.0 34.4 L 31.5 31.7 L 35.5 29.1 L 39.2 26.5 L 42.5 24.0 L 45.4 21.5 L 47.9 19.0 L 49.350234031677246 17.34258966445923 L 49.3 17.3 L 50.3 16.3 Z M 168.0 38.7 L 165.4 36.6 L 162.3 34.5 L 158.8 32.3 L 154.7 30.2 L 150.1 27.9 L 145.1 25.7 L 139.6 23.3 L 133.7 20.8 L 134.1 19.1 L 140.6 19.9 L 146.6 20.8 L 152.2 22.0 L 157.3 23.3 L 162.1 24.8 L 166.5 26.3 L 170.5 28.1 L 174.1 30.0 L 177.3 32.0 L 180.3 34.3 L 181.8 38.6 L 180.0 42.8 L 175.7 44.4 L 171.5 42.6 L 170.0 40.7 Z " />
</g>
</svg>
