<svg xmlns="http://www.w3.org/2000/svg" xmlns:xlink="http://www.w3.org/1999/xlink" version="1.1" baseProfile="full" viewBox="0 0 200 200" width="200" height="200">
<g fill="black">
<path d="M 150.2 15.0 L 153.2 17.0 L 150.2 18.8 L 150.2 38.0 L 164.2 38.0 L 170.2 33.0 L 181.2 42.0 L 176.2 46.0 L 176.2 66.0 L 178.4 66.0 L 182.9 60.0 L 188.9 66.0 L 188.9 70.0 L 176.2 70.0 L 176.2 102.0 L 164.2 108.0 L 164.2 98.0 L 150.2 98.0 L 150.2 122.0 L 158.9 122.0 L 168.9 112.0 L 180.9 122.0 L 180.9 126.0 L 150.2 126.0 L 150.2 150.0 L 165.6 150.0 L 175.6 140.0 L 187.6 150.0 L 187.6 154.0 L 150.2 154.0 L 150.2 183.0 L 138.2 189.0 L 138.2 154.0 L 104.8 154.0 L 104.8 150.0 L 138.2 150.0 L 138.2 126.0 L 111.5 126.0 L 111.5 122.0 L 138.2 122.0 L 138.2 98.0 L 115.5 98.0 L 115.5 94.0 L 138.2 94.0 L 138.2 70.0 L 110.1 70.0 L 110.1 66.2 L 107.0 72.4 L 103.0 79.5 L 98.9 86.4 L 94.5 93.1 L 92.86363639831544 95.42727270126343 L 98.7 96.4 L 101.7 98.4 L 98.7 100.2 L 98.7 181.9 L 86.7 187.9 L 86.7 103.7625 L 85.2 105.7 L 80.2 111.5 L 74.8 117.0 L 69.2 122.2 L 67.8 121.0 L 71.9 114.6 L 75.9 108.3 L 79.8 101.9 L 83.6 95.4 L 87.3 88.7 L 90.8 81.9 L 94.1 74.9 L 97.3 67.7 L 100.3 60.4 L 102.84638538360596 53.8145206451416 L 102.8 53.8 L 103.7 51.6 L 114.3 57.4 L 116.3 60.4 L 112.60754165649413 60.97296772003174 L 110.7 65.0 L 110.2 66.0 L 138.2 66.0 L 138.2 42.0 L 115.5 42.0 L 115.5 38.0 L 138.2 38.0 L 138.2 13.0 Z M 23.7 161.0 L 12.7 166.5 L 12.7 50.0 L 23.7 52.0 L 26.5 54.0 L 23.7 55.75 L 23.7 145.0 L 34.0 145.0 L 34.0 20.0 L 44.0 22.0 L 46.5 24.0 L 44.0 25.66666669845581 L 44.0 145.0 L 55.7 145.0 L 55.7 50.0 L 66.7 52.0 L 69.4 54.0 L 66.7 55.723404216766355 L 66.7 155.0 L 55.7 160.5 L 55.7 149.0 L 23.7 149.0 Z M 150.2 70.0 L 150.2 94.0 L 164.2 94.0 L 164.2 70.0 Z M 109.1 19.3 L 111.1 22.3 L 107.36977806091309 22.814513397216796 L 105.9 25.8 L 102.6 32.2 L 99.1 38.3 L 95.6 44.2 L 91.8 49.8 L 88.0 55.2 L 84.0 60.4 L 79.8 65.3 L 75.4 69.8 L 70.7 73.9 L 69.4 72.7 L 72.4 67.4 L 75.5 62.1 L 78.6 56.7 L 81.6 51.2 L 84.5 45.5 L 87.4 39.7 L 90.2 33.7 L 92.9 27.5 L 95.5 21.2 L 98.0 14.6 L 98.09298429489135 14.63937168121338 L 98.6 13.4 Z M 150.2 42.0 L 150.2 66.0 L 164.2 66.0 L 164.2 42.0 Z " />
</g>
</svg>
