<svg xmlns="http://www.w3.org/2000/svg" xmlns:xlink="http://www.w3.org/1999/xlink" version="1.1" baseProfile="full" viewBox="0 0 200 200" width="200" height="200">
<g fill="black">
<path d="M 171.5 94.5 L 169.7 96.2 L 167.9 97.8 L 165.8 99.1 L 163.6 100.1 L 161.4 100.9 L 159.0 101.5 L 156.6 101.8 L 154.1 102.0 L 154.1 96.0 L 136.1 93.0 L 136.1 90.0 L 154.1 90.0 L 155.5 89.9 L 156.8 89.7 L 159.0 89.1 L 160.0 88.6 L 160.9 88.0 L 161.7 87.3 L 162.6 86.5 L 163.4 85.5 L 164.2 84.3 L 165.1 82.5 L 166.1 79.8 L 167.0 76.3 L 167.7 72.1 L 168.4 67.2 L 168.9 61.5 L 169.2 55.2 L 169.4 48.2 L 169.48095760345458 41.96626768112183 L 169.4 42.0 L 169.4 34.0 L 112.95882349014282 34.0 L 112.9 34.1 L 109.5 38.9 L 105.9 43.5 L 103.88500003814697 45.66999998092651 L 111.2 47.0 L 113.9 49.0 L 111.2 50.723404216766355 L 111.2 68.0 L 124.2 68.0 L 124.2 39.0 L 134.2 41.0 L 136.7 43.0 L 134.2 44.66666669845581 L 134.2 68.0 L 146.3 68.0 L 146.3 45.0 L 157.3 47.0 L 160.0 49.0 L 157.3 50.723404216766355 L 157.3 76.0 L 146.3 81.5 L 146.3 72.0 L 133.7800000190735 72.0 L 132.3 75.7 L 129.9 79.8 L 126.9 83.6 L 123.4 87.1 L 119.4 90.2 L 114.8 93.0 L 112.20171098709106 94.24717874526978 L 121.1 99.2 L 123.1 102.1 L 119.35981311798096 102.68037385940552 L 118.2 105.0 L 115.1 110.5 L 114.15555553436279 112.0 L 170.4 112.0 L 176.4 107.0 L 187.4 116.0 L 182.4 119.0 L 182.3448021888733 119.02299909591675 L 182.3 123.1 L 182.1 131.6 L 181.8 139.4 L 181.3 146.6 L 180.7 153.1 L 179.9 159.0 L 179.0 164.3 L 177.9 169.0 L 176.6 173.2 L 175.0 176.8 L 173.8 179.0 L 172.3 181.0 L 170.7 182.8 L 168.9 184.4 L 166.9 185.8 L 164.7 187.0 L 162.4 187.9 L 160.1 188.5 L 157.6 188.8 L 155.1 189.0 L 155.1 183.0 L 135.1 180.0 L 135.1 177.0 L 155.1 177.0 L 156.5 176.9 L 157.7 176.7 L 158.8 176.4 L 159.7 176.1 L 160.6 175.6 L 162.2 174.4 L 162.9 173.5 L 163.6 172.5 L 164.3 171.3 L 165.3 169.0 L 166.3 165.9 L 167.2 162.0 L 168.0 157.2 L 168.7 151.8 L 169.3 145.6 L 169.8 138.8 L 170.1 131.2 L 170.3 122.9 L 170.37752809524537 116.0 L 111.63000001907349 116.0 L 108.2 120.9 L 104.4 125.7 L 101.02508039474488 129.40418004989624 L 110.6 131.0 L 113.6 133.0 L 110.6 134.8 L 110.6 154.0 L 123.2 154.0 L 123.2 121.0 L 135.2 123.0 L 138.2 125.0 L 135.2 126.8 L 135.2 154.0 L 147.8 154.0 L 147.8 129.0 L 159.8 131.0 L 162.8 133.0 L 159.8 134.8 L 159.8 162.0 L 147.8 168.0 L 147.8 158.0 L 134.85384616851806 158.0 L 133.7 162.0 L 131.3 166.8 L 128.2 171.1 L 124.3 174.9 L 119.8 178.3 L 114.6 181.3 L 108.8 183.8 L 102.3 186.0 L 95.2 187.6 L 87.4 188.8 L 87.0 187.1 L 94.1 184.0 L 100.4 181.0 L 105.9 177.9 L 110.7 174.8 L 114.6 171.6 L 117.8 168.3 L 120.1 165.1 L 121.8 161.8 L 122.8 158.5 L 122.8735294342041 158.0 L 110.6 158.0 L 110.6 165.0 L 98.6 171.0 L 98.6 131.9 L 96.1 134.4 L 91.5 138.2 L 86.7 141.7 L 81.6 144.7 L 80.5 143.2 L 84.2 138.8 L 87.8 134.4 L 91.2 129.9 L 94.4 125.4 L 97.5 120.7 L 100.4 115.8 L 103.1 110.8 L 105.6 105.6 L 107.9 100.2 L 109.6557710647583 95.51794376373292 L 109.6 95.5 L 109.61044483184814 95.4744680404663 L 104.2 97.6 L 98.1 99.3 L 91.5 100.7 L 91.1 99.2 L 97.1 96.4 L 102.4 93.5 L 107.2 90.7 L 111.4 87.7 L 115.0 84.7 L 118.0 81.6 L 120.4 78.5 L 122.2 75.3 L 123.5 72.0 L 111.2 72.0 L 111.2 75.0 L 100.2 80.5 L 100.2 49.36829271316528 L 97.9 51.5 L 93.4 55.0 L 88.7 58.1 L 83.6 60.7 L 82.6 59.2 L 86.3 55.2 L 89.8 51.1 L 93.1 47.0 L 96.2 42.8 L 99.1 38.4 L 101.7 33.9 L 104.1 29.2 L 106.3 24.3 L 108.2 19.2 L 109.61042699813842 14.802786540985107 L 109.6 14.8 L 110.4 12.4 L 121.2 17.9 L 123.4 20.8 L 119.60702753067017 21.53197717666626 L 118.7 23.6 L 115.9 29.0 L 115.31176471710205 30.0 L 169.4 30.0 L 175.4 25.0 L 186.4 34.0 L 181.4206421852112 36.98761463165283 L 181.5 40.4 L 181.4 48.3 L 181.2 55.7 L 180.9 62.4 L 180.3 68.5 L 179.6 74.0 L 178.7 78.9 L 177.6 83.3 L 176.2 87.2 L 174.4 90.6 L 173.0 92.6 Z M 26.6 161.0 L 14.6 167.0 L 14.6 50.0 L 26.6 52.0 L 29.6 54.0 L 26.6 55.8 L 26.6 145.0 L 39.7 145.0 L 39.7 20.0 L 51.7 22.0 L 54.7 24.0 L 51.7 25.8 L 51.7 145.0 L 66.6 145.0 L 66.6 50.0 L 78.6 52.0 L 81.6 54.0 L 78.6 55.8 L 78.6 155.0 L 66.6 161.0 L 66.6 149.0 L 26.6 149.0 Z " />
</g>
</svg>
