<svg xmlns="http://www.w3.org/2000/svg" xmlns:xlink="http://www.w3.org/1999/xlink" version="1.1" baseProfile="full" viewBox="0 0 200 200" width="200" height="200">
<g fill="black">
<path d="M 44.2 79.3 L 47.2 81.3 L 44.2 83.1 L 44.2 182.2 L 32.2 188.2 L 32.2 77.3 Z M 179.6 106.7 L 177.9 108.5 L 176.0 110.0 L 175.55688619613647 110.31017961502076 L 186.3 119.1 L 181.3 123.1 L 181.3 166.0 L 169.73414630889891 171.78292684555055 L 173.2 172.5 L 175.9 173.3 L 178.5 174.1 L 181.1 175.1 L 183.5 176.2 L 185.8 177.4 L 188.0 181.4 L 186.9 185.8 L 182.9 188.0 L 178.5 186.9 L 177.1 185.3 L 175.6 183.8 L 173.9 182.3 L 172.1 180.8 L 170.1 179.3 L 167.9 177.8 L 165.6 176.3 L 163.1 174.7 L 160.5 173.1 L 157.6 172.0 L 158.0 170.2 L 161.2 170.7 L 164.4 171.0 L 167.4 171.3 L 169.3 171.69310340881347 L 169.3 166.0 L 142.9 166.0 L 131.9 171.5 L 131.9 109.81304349899293 L 129.4 110.9 L 125.0045241355896 112.69407176971436 L 125.9 113.5 L 120.9 116.5 L 120.9 136.0 L 110.9 141.0 L 110.9 136.0 L 100.4 136.0 L 100.4 145.05789470672607 L 101.4 145.4 L 105.1 146.3 L 108.5 147.3 L 111.6 148.5 L 114.6 149.8 L 117.2 151.3 L 119.7 152.8 L 122.0 154.5 L 124.0 156.4 L 125.8 158.4 L 126.3 163.0 L 123.4 166.6 L 118.9 167.0 L 115.3 164.2 L 114.9 162.9 L 114.3 161.3 L 113.3 159.7 L 111.9 157.9 L 110.2 156.0 L 108.2 154.0 L 105.9 152.0 L 103.3 149.9 L 100.4 147.77333335876466 L 100.4 182.1 L 90.4 187.1 L 90.4 152.3 L 86.7 157.2 L 82.7 161.7 L 78.3 165.9 L 73.5 169.7 L 68.3 173.1 L 62.8 176.0 L 56.8 178.5 L 56.0 176.9 L 60.7 172.9 L 65.1 168.8 L 69.2 164.7 L 72.9 160.5 L 76.2 156.2 L 79.2 151.7 L 81.8 147.1 L 84.1 142.3 L 86.0 137.3 L 86.39393939971924 136.0 L 80.4 136.0 L 80.4 139.0 L 69.4 144.5 L 69.4 104.0 L 80.4 109.5 L 90.4 109.5 L 90.4 97.2 L 61.5 97.2 L 61.5 93.2 L 90.4 93.2 L 90.4 77.3 L 100.4 79.3 L 102.9 81.3 L 100.4 82.96666669845581 L 100.4 93.2 L 114.9777777671814 93.2 L 121.2 86.2 L 129.2 93.2 L 129.2 97.2 L 100.4 97.2 L 100.4 109.5 L 110.9 109.5 L 115.9 104.5 L 123.74810123443604 111.56329116821288 L 123.6 111.3 L 127.8 108.2 L 131.3 105.0 L 134.5 101.9 L 137.3 98.9 L 139.6 95.9 L 141.4 93.0 L 142.9 90.2 L 143.9 87.5 L 144.5 84.8 L 144.5115385055542 84.7 L 126.1 84.7 L 126.1 80.7 L 172.4 80.7 L 178.4 75.7 L 189.4 84.7 L 184.4 87.7 L 184.32100315093993 87.73291540145874 L 184.3 88.3 L 184.3 90.7 L 184.2 92.9 L 184.1 94.8 L 183.9 96.6 L 183.8 98.1 L 183.2 100.9 L 182.4 102.7 L 181.1 104.8 Z M 148.39878578186034 170.54770164489747 L 155.1 177.1 L 155.3 180.5 L 151.52857141494752 178.9285714149475 L 149.1 179.9 L 145.5 181.2 L 141.7 182.4 L 137.9 183.4 L 133.9 184.4 L 129.7 185.3 L 125.5 186.0 L 121.1 186.6 L 116.6 187.0 L 111.9 187.3 L 111.6 185.6 L 115.8 183.9 L 119.9 182.0 L 123.8 180.3 L 127.6 178.6 L 131.2 176.8 L 134.7 175.1 L 138.0 173.3 L 141.2 171.5 L 144.2 169.7 L 146.1807252883911 168.42667655944825 L 146.1 168.3 L 146.2101861000061 168.40773754119874 L 147.0 167.9 Z M 142.9 150.3 L 142.9 162.0 L 169.3 162.0 L 169.3 150.3 Z M 142.9 133.5 L 142.9 146.3 L 169.3 146.3 L 169.3 133.5 Z M 14.6 133.1 L 12.6 128.9 L 14.0 124.6 L 15.0 124.1 L 16.0 123.2 L 17.2 122.0 L 18.3 120.5 L 19.5 118.6 L 20.7 116.4 L 21.9 114.0 L 23.1 111.2 L 24.4 108.2 L 25.1 104.8 L 26.9 105.1 L 26.7 108.6 L 26.9 111.9 L 26.9 115.1 L 26.8 118.1 L 26.2 123.5 L 25.0 128.3 L 24.1 130.5 L 23.0 132.6 L 18.9 134.5 Z M 80.4 113.5 L 80.4 132.0 L 90.4 132.0 L 90.4 113.5 Z M 100.4 113.5 L 100.4 132.0 L 110.9 132.0 L 110.9 113.5 Z M 142.9 119.1 L 142.9 129.5 L 169.3 129.5 L 169.3 119.1 Z M 53.5 118.4 L 53.2 116.9 L 52.7 115.2 L 52.0 113.4 L 51.2 111.5 L 50.2 109.6 L 49.1 107.5 L 47.9 105.3 L 46.1 103.4 L 47.3 102.1 L 49.4 103.7 L 51.7 104.9 L 53.9 106.2 L 55.9 107.6 L 57.8 109.0 L 59.5 110.5 L 61.1 112.1 L 62.6 113.7 L 63.9 115.5 L 65.1 117.3 L 64.7 121.9 L 61.3 124.9 L 56.8 124.6 L 53.7 121.2 L 53.7 119.9 Z M 146.2 102.3 L 163.6 102.3 L 164.9 102.1 L 166.0 101.8 L 168.0 101.0 L 168.9 100.4 L 169.7 99.7 L 170.5 98.9 L 171.3 97.9 L 171.8297297477722 96.99189186096191 L 171.9 96.5 L 172.0 95.4 L 172.1 94.0 L 172.2 92.3 L 172.3 90.3 L 172.3 88.1 L 172.4 85.5 L 172.4 84.7 L 156.49230766296387 84.7 L 155.2 88.3 L 153.4 91.9 L 151.2 95.3 L 148.5 98.4 L 145.4 101.4 L 142.0 104.1 L 138.2 106.6 L 134.0 108.9 L 132.12790699005126 109.71395349502563 L 142.9 115.1 L 169.3 115.1 L 173.42799997329712 111.66000003814698 L 171.8 112.4 L 169.5 113.3 L 167.2 113.9 L 164.7 114.2 L 162.2 114.3 L 162.2 108.3 L 146.2 105.3 Z M 171.7 97.4 L 171.8 97.2 L 171.807142829895 97.15 Z M 19.7 67.8 L 38.3 67.8 L 38.3 25.0 L 19.7 25.0 L 19.7 21.0 L 156.71818180084227 21.0 L 164.9 12.0 L 174.9 21.0 L 174.9 25.0 L 50.3 25.0 L 50.3 35.3 L 145.3 35.3 L 151.3 30.3 L 162.3 39.3 L 157.3 43.3 L 157.3 55.3 L 145.3 61.3 L 145.3 55.3 L 50.3 55.3 L 50.3 67.8 L 167.0777777671814 67.8 L 173.3 60.8 L 181.3 67.8 L 181.3 71.8 L 19.7 71.8 Z M 50.3 39.3 L 50.3 51.3 L 145.3 51.3 L 145.3 39.3 Z " />
</g>
</svg>
