<svg xmlns="http://www.w3.org/2000/svg" xmlns:xlink="http://www.w3.org/1999/xlink" version="1.1" baseProfile="full" viewBox="0 0 200 200" width="200" height="200">
<g fill="black">
<path d="M 40.0 35.0 L 98.0 35.0 L 98.0 12.0 L 110.0 14.0 L 113.0 16.0 L 110.0 17.8 L 110.0 35.0 L 164.0 35.0 L 174.0 25.0 L 186.0 35.0 L 186.0 39.0 L 40.0 39.0 L 40.0 102.0 L 39.4 113.7 L 38.3 124.8 L 36.7 135.3 L 34.5 145.2 L 31.8 154.4 L 28.5 162.9 L 24.7 170.8 L 20.3 177.9 L 15.2 184.2 L 9.6 189.5 L 8.3 188.4 L 12.2 181.9 L 15.6 175.2 L 18.7 168.0 L 21.4 160.3 L 23.6 152.0 L 25.4 143.2 L 26.7 133.8 L 27.6 123.8 L 28.0 113.2 L 28.0 29.0 Z M 136.4 184.6 L 122.1 183.6 L 110.3 182.0 L 100.6 179.7 L 92.9 176.7 L 86.7 173.1 L 82.0 168.8 L 78.5 164.0 L 76.98607597351074 160.91392402648927 L 75.4 162.5 L 72.8 165.3 L 70.1 168.0 L 67.4 170.6 L 62.0 175.4 L 59.3 177.7 L 56.7 180.0 L 54.775119590759275 181.4971291542053 L 54.6 185.7 L 51.4 184.2 L 43.4 175.0 L 45.1 174.0 L 48.0 172.6 L 51.0 171.2 L 54.1 169.7 L 57.2 168.1 L 60.3 166.6 L 63.5 165.0 L 66.8 163.3 L 67.8 162.82941179275514 L 67.8 122.2 L 45.8 122.2 L 45.8 118.2 L 67.8 118.2 L 73.8 113.2 L 84.8 122.2 L 79.8 126.2 L 79.8 159.3 L 79.53162393569946 159.43418807983397 L 81.7 161.3 L 85.9 164.3 L 90.5 166.9 L 96.0 169.0 L 102.9 170.7 L 111.7 171.9 L 122.8 172.6 L 136.6 172.8 L 153.4 172.4 L 173.6 171.4 L 184.9 170.9 L 174.2 184.6 L 153.7 184.9 Z M 160.1 148.4 L 157.7 145.7 L 155.0 142.9 L 152.1 140.2 L 148.8 137.5 L 145.3 134.7 L 141.5 132.0 L 138.5 129.95121955871582 L 138.5 164.0 L 126.5 170.0 L 126.5 126.36875 L 126.2 126.8 L 122.6 131.3 L 118.6 135.6 L 114.2 139.7 L 109.5 143.7 L 104.4 147.5 L 98.9 151.1 L 93.0 154.3 L 86.7 157.3 L 85.8 155.8 L 90.9 151.2 L 95.7 146.8 L 100.2 142.4 L 104.4 138.1 L 108.1 133.8 L 111.6 129.5 L 114.6 125.2 L 117.3 120.9 L 119.49545450210572 116.7 L 107.0 116.7 L 107.0 123.7 L 95.0 129.7 L 95.0 78.4 L 107.0 84.4 L 126.5 84.4 L 126.5 69.0 L 86.2 69.0 L 86.2 65.0 L 126.5 65.0 L 126.5 43.6 L 138.5 45.6 L 141.5 47.6 L 138.5 49.4 L 138.5 65.0 L 161.71818180084227 65.0 L 169.9 56.0 L 179.9 65.0 L 179.9 69.0 L 138.5 69.0 L 138.5 84.4 L 156.0 84.4 L 162.0 79.4 L 173.0 88.4 L 168.0 92.4 L 168.0 116.7 L 156.0 122.7 L 156.0 116.7 L 138.5 116.7 L 138.5 126.02352943420411 L 138.8 126.1 L 143.7 127.6 L 148.3 129.4 L 152.7 131.3 L 156.8 133.5 L 160.6 135.8 L 164.2 138.3 L 167.6 141.0 L 170.8 143.8 L 173.6 146.8 L 174.7 151.3 L 172.5 155.2 L 168.0 156.3 L 164.1 154.0 L 162.2 151.2 Z M 107.0 88.4 L 107.0 112.7 L 126.5 112.7 L 126.5 88.4 Z M 138.5 88.4 L 138.5 112.7 L 156.0 112.7 L 156.0 88.4 Z M 63.6 95.9 L 62.1 93.8 L 60.4 91.8 L 58.6 89.8 L 56.7 87.8 L 54.7 85.8 L 52.6 83.8 L 50.4 81.8 L 47.9 80.2 L 48.6 78.6 L 51.6 79.5 L 54.6 80.3 L 57.5 81.2 L 60.4 82.4 L 63.2 83.7 L 65.8 85.2 L 68.4 86.9 L 70.9 88.6 L 73.4 90.6 L 75.7 92.6 L 77.0 97.0 L 74.9 101.1 L 70.5 102.4 L 66.4 100.3 L 65.1 98.1 Z M 71.1 66.7 L 69.8 64.6 L 68.3 62.6 L 66.7 60.5 L 64.9 58.5 L 63.1 56.4 L 61.0 54.4 L 58.9 52.3 L 56.4 50.5 L 57.2 48.9 L 60.1 50.1 L 63.1 50.9 L 66.0 52.1 L 68.8 53.3 L 71.5 54.8 L 74.0 56.3 L 76.5 58.0 L 78.8 59.9 L 81.0 61.9 L 83.1 64.0 L 84.1 68.5 L 81.7 72.4 L 77.2 73.3 L 73.3 70.9 L 72.3 68.8 Z " />
</g>
</svg>
