<svg xmlns="http://www.w3.org/2000/svg" xmlns:xlink="http://www.w3.org/1999/xlink" version="1.1" baseProfile="full" viewBox="0 0 200 200" width="200" height="200">
<g fill="black">
<path d="M 112.7 149.4 L 113.9 152.8 L 110.03703079223632 152.33377962112428 L 106.8 155.9 L 100.2 161.8 L 92.9 167.1 L 85.0 171.9 L 76.4 176.2 L 67.1 179.9 L 57.2 183.1 L 46.6 185.7 L 35.4 187.6 L 23.5 188.8 L 23.2 187.1 L 34.6 183.9 L 45.2 180.5 L 55.1 176.8 L 64.2 172.9 L 72.6 168.6 L 80.2 164.0 L 87.1 159.0 L 93.2 153.7 L 98.5 148.1 L 102.8758620262146 142.5137930870056 L 103.6 141.5 Z M 186.9 122.8 L 188.4 126.1 L 184.7123595237732 126.1 L 181.0 131.7 L 174.8 140.1 L 168.4 148.0 L 161.6 155.3 L 154.5 162.2 L 147.1 168.5 L 139.4 174.3 L 131.4 179.4 L 123.0 183.9 L 114.4 187.7 L 113.5 186.2 L 121.1 180.7 L 128.3 175.0 L 135.3 169.1 L 142.1 162.8 L 148.5 156.2 L 154.7 149.1 L 160.6 141.7 L 166.2 133.8 L 171.5 125.5 L 176.03157329559326 117.61506252288818 L 176.0 117.6 L 176.35981311798096 117.04392518997193 L 176.5 116.8 L 176.51285009384156 116.80741348266602 L 177.1 115.9 Z M 97.7 131.9 L 98.5 135.4 L 94.80307693481446 134.49198379516602 L 92.0 137.0 L 86.0 141.8 L 79.7 146.4 L 73.1 150.6 L 66.2 154.5 L 59.0 158.1 L 51.5 161.4 L 43.7 164.3 L 35.6 166.8 L 27.2 168.8 L 26.7 167.1 L 34.3 163.3 L 41.6 159.4 L 48.6 155.5 L 55.4 151.5 L 61.8 147.3 L 67.9 142.9 L 73.7 138.3 L 79.1 133.6 L 84.3 128.6 L 88.51521558761597 124.2127347946167 L 88.5 124.2 L 89.5 123.2 Z M 81.2 115.7 L 82.1 119.2 L 78.28652486801147 118.46406621932984 L 77.3 119.4 L 73.1 123.0 L 68.4 126.6 L 63.4 130.1 L 58.1 133.6 L 52.3 137.0 L 46.1 140.4 L 39.5 143.7 L 32.5 146.8 L 25.0 149.7 L 24.1 148.2 L 30.6 143.5 L 36.8 139.1 L 42.6 134.8 L 48.1 130.7 L 53.1 126.7 L 57.8 122.7 L 62.0 118.9 L 65.8 115.1 L 69.2 111.4 L 71.532057762146 108.52379541397094 L 71.5 108.5 L 71.94468088150025 108.01489362716674 L 72.2 107.7 L 72.21836738586425 107.71632652282715 L 72.6 107.3 Z M 101.3 118.9 L 97.9 115.8 L 94.3 112.6 L 90.3 109.3 L 86.0 105.9 L 81.3 102.5 L 76.4 98.9 L 71.2 95.2 L 69.67273740768432 94.06869440078735 L 69.4 94.5 L 64.6 101.0 L 59.5 107.1 L 53.9 112.9 L 48.1 118.2 L 41.8 123.2 L 35.2 127.8 L 28.2 132.0 L 20.8 135.6 L 13.0 138.8 L 12.1 137.1 L 18.9 132.4 L 25.2 127.5 L 31.2 122.6 L 36.9 117.4 L 42.2 112.1 L 47.1 106.5 L 51.7 100.8 L 55.9 94.7 L 59.7 88.5 L 62.71838436126709 82.80818939208984 L 62.7 82.8 L 63.7 81.0 L 73.7 87.7 L 75.4 90.9 L 71.59346809387208 91.03125972747803 L 71.4496940612793 91.25862331390381 L 73.0 91.8 L 79.1 94.3 L 84.7 96.9 L 90.0 99.5 L 95.0 102.3 L 99.7 105.0 L 104.1 107.9 L 108.2 110.7 L 112.0 113.6 L 115.5 116.6 L 117.2 120.9 L 115.5 125.1 L 111.2 126.8 L 107.0 125.0 L 104.3 122.0 Z M 180.8 73.9 L 182.4 77.2 L 178.55217390060426 77.2 L 176.1 80.8 L 171.2 87.5 L 166.0 93.9 L 160.6 100.0 L 155.0 105.8 L 149.2 111.3 L 143.2 116.5 L 136.9 121.3 L 130.3 125.7 L 123.5 129.7 L 122.4 128.2 L 128.0 122.7 L 133.4 117.2 L 138.7 111.7 L 143.8 105.9 L 148.7 100.1 L 153.5 94.0 L 158.0 87.7 L 162.4 81.3 L 166.6 74.6 L 170.5 67.7 L 170.53655366897584 67.72200317382813 L 171.1 66.8 Z M 56.1 74.0 L 56.020577621459964 73.54993982315064 L 55.1 74.0 L 50.6 76.1 L 46.2 78.0 L 37.6 81.4 L 29.2 84.4 L 25.2 85.9 L 21.42379961013794 87.12726516723633 L 20.0 91.0 L 17.3 88.5 L 12.6 77.4 L 14.5 76.9 L 18.5 76.2 L 22.6 75.6 L 26.00087652206421 75.01936254501342 L 26.9 72.9 L 29.3 66.7 L 30.4 63.8 L 31.4 61.0 L 32.3 58.3 L 33.0 55.7 L 33.7 53.2 L 34.0006103515625 51.75707015991211 L 33.8 51.7 L 34.7 49.4 L 45.4 55.0 L 47.6 57.9 L 43.26692609786987 58.721789836883545 L 42.5 60.0 L 40.8 62.5 L 39.0 65.0 L 37.1 67.6 L 35.0 70.1 L 32.8 72.7 L 31.538197422027586 74.01437768936157 L 35.4 73.4 L 39.9 72.7 L 44.5 71.9 L 49.2 71.2 L 54.1 70.7 L 55.31505374908447 70.55419359207153 L 54.8 68.7 L 54.1 66.7 L 53.3 64.7 L 51.3 60.3 L 49.8 58.3 L 51.1 57.0 L 53.0 58.8 L 55.2 60.1 L 57.2 61.6 L 59.1 63.1 L 60.8 64.7 L 62.4 66.3 L 63.9 67.9 L 65.3 69.6 L 66.6 71.4 L 67.7 73.2 L 67.3 77.8 L 63.9 80.8 L 59.3 80.4 L 56.3 77.0 L 56.3 75.5 Z M 112.2 77.0 L 111.2 74.8 L 110.8705472946167 74.1111442565918 L 107.2 75.5 L 103.4 76.8 L 99.6 78.0 L 91.8 80.2 L 87.8 81.4 L 83.9 82.5 L 79.9016942024231 83.59953413009643 L 78.3 87.3 L 75.8 84.7 L 71.7 73.2 L 73.6 72.9 L 80.95 72.2 L 81.5 70.4 L 82.6 67.0 L 83.7 63.8 L 84.6 60.7 L 85.5 57.8 L 86.3 55.0 L 87.1 52.4 L 87.7 50.0 L 87.99166669845582 48.65833330154419 L 87.8 48.6 L 88.7 46.3 L 99.3 52.1 L 101.4 55.1 L 97.08114557266235 55.77016706466675 L 95.0 59.1 L 93.3 61.6 L 91.5 64.1 L 89.5 66.8 L 87.5 69.6 L 85.74668560028076 71.73446969985962 L 86.1 71.7 L 90.2 71.4 L 98.4 71.0 L 106.4 70.8 L 109.25653104782104 70.94282655715942 L 108.8 70.1 L 107.4 67.7 L 105.8 65.2 L 104.2 62.5 L 102.4 59.8 L 100.3 57.3 L 101.5 56.0 L 104.2 58.0 L 107.0 59.7 L 109.7 61.5 L 112.2 63.4 L 114.6 65.3 L 116.8 67.2 L 118.9 69.2 L 120.8 71.3 L 122.6 73.3 L 124.18586568832397 75.2590106010437 L 127.3 71.7 L 132.1 66.1 L 136.9 60.6 L 141.6 55.0 L 146.1 49.4 L 150.4 43.6 L 154.6 37.8 L 158.6 31.8 L 162.4 25.8 L 165.6171679496765 20.40906991958618 L 165.6 20.4 L 166.6 18.8 L 176.2 26.0 L 177.7 29.3 L 173.8673366546631 29.233919620513916 L 171.8 32.1 L 167.3 38.1 L 162.5 43.9 L 157.6 49.5 L 152.4 55.0 L 147.1 60.2 L 141.6 65.2 L 135.8 70.0 L 129.8 74.5 L 124.57199487686157 77.90235252380371 L 124.8 80.0 L 122.0 83.6 L 117.5 84.0 L 113.8 81.2 L 113.1 79.2 Z M 99.8 42.3 L 98.3 40.0 L 96.6 37.8 L 96.5820143699646 37.77841730117798 L 92.7 38.8 L 85.2 40.5 L 77.8 41.9 L 70.4 43.2 L 63.0 44.4 L 55.7 45.5 L 48.5 46.5 L 41.3 47.3 L 34.1 48.2 L 31.173756408691407 48.49262437820435 L 29.2 51.8 L 27.1 48.9 L 24.4 37.0 L 26.4 36.9 L 33.4 36.8 L 40.5 36.6 L 45.222807025909425 36.46881093978882 L 45.7 35.7 L 47.4 32.9 L 49.2 30.1 L 52.6 24.7 L 54.2 22.0 L 55.8 19.4 L 57.3 16.8 L 58.227303409576415 15.07786512374878 L 58.1 15.0 L 58.63777780532837 14.315555572509766 L 58.7 14.2 L 58.71813936233521 14.213277244567871 L 59.2 13.6 L 68.4 21.3 L 69.6 24.7 L 65.4261682510376 24.340186882019044 L 63.9 25.8 L 61.6 28.1 L 59.2 30.3 L 54.2 34.5 L 51.90740737915039 36.28312759399414 L 54.9 36.2 L 62.2 36.0 L 69.6 35.7 L 77.1 35.4 L 84.6 35.2 L 92.3 35.0 L 94.225 35.025 L 92.3 33.1 L 89.7 30.7 L 86.8 28.2 L 83.8 25.6 L 80.3 23.2 L 81.0 21.6 L 85.1 23.1 L 89.0 24.4 L 92.7 25.9 L 96.2 27.6 L 99.4 29.4 L 102.4 31.3 L 105.2 33.3 L 107.7 35.5 L 110.1 37.8 L 112.2 40.3 L 112.8 44.8 L 110.1 48.5 L 105.6 49.1 L 101.9 46.5 L 101.0 44.4 Z " />
</g>
</svg>
