<svg xmlns="http://www.w3.org/2000/svg" xmlns:xlink="http://www.w3.org/1999/xlink" version="1.1" baseProfile="full" viewBox="0 0 200 200" width="200" height="200">
<g fill="black">
<path d="M 125.8 183.7 L 105.6 182.6 L 89.2 180.8 L 76.0 178.1 L 65.6 174.7 L 57.4 170.4 L 51.3 165.3 L 46.8 159.6 L 45.220382118225096 156.38980894088746 L 44.90769233703613 156.54615383148194 L 41.1 161.2 L 38.4 164.3 L 35.7 167.3 L 32.9 170.2 L 30.2 172.9 L 27.4 175.6 L 22.52878341674805 180.29080114364623 L 22.7 184.4 L 19.3 183.2 L 10.6 174.7 L 12.2 173.5 L 15.2 171.7 L 18.3 169.9 L 21.4 168.0 L 24.6 166.0 L 27.9 164.0 L 31.2 161.9 L 34.6 159.8 L 36.0 158.91999998092652 L 36.0 109.0 L 14.0 109.0 L 14.0 105.0 L 36.0 105.0 L 42.0 100.0 L 53.0 109.0 L 48.0 113.0 L 48.0 154.9285714149475 L 50.1 156.9 L 55.1 160.8 L 61.0 164.1 L 68.4 166.8 L 78.0 169.0 L 90.5 170.6 L 106.3 171.6 L 125.9 171.9 L 149.9 171.5 L 178.7 170.4 L 190.1 169.9 L 179.2 183.5 L 150.1 184.0 Z M 107.9 129.0 L 107.0 126.7 L 105.8 124.3 L 104.3 121.9 L 102.5 119.3 L 100.4 116.7 L 98.0 113.9 L 96.0 111.7518518447876 L 96.0 161.6 L 86.0 166.6 L 86.0 119.7 L 82.6 126.7 L 79.0 133.3 L 75.1 139.3 L 71.0 144.9 L 66.5 149.9 L 61.8 154.2 L 56.7 157.9 L 55.5 156.6 L 59.0 151.7 L 62.3 146.5 L 65.6 141.2 L 68.6 135.4 L 71.5 129.4 L 74.2 122.9 L 76.7 116.0 L 79.0 108.7 L 81.0 101.0 L 82.04545450210571 96.4 L 73.0 96.4 L 73.0 108.4 L 62.0 113.9 L 62.0 56.3 L 73.0 61.8 L 86.0 61.8 L 86.0 43.7 L 56.8 43.7 L 56.8 39.7 L 86.0 39.7 L 86.0 16.0 L 96.0 18.0 L 98.5 20.0 L 96.0 21.66666669845581 L 96.0 39.7 L 103.2 39.7 L 113.2 29.7 L 125.2 39.7 L 125.2 43.7 L 96.0 43.7 L 96.0 61.8 L 109.1 61.8 L 114.6 56.8 L 125.1 65.8 L 120.1 69.3 L 120.1 98.4 L 109.1 103.9 L 109.1 96.4 L 96.0 96.4 L 96.0 108.35 L 96.9 108.8 L 100.6 110.5 L 104.0 112.4 L 107.1 114.5 L 110.0 116.7 L 112.6 119.0 L 114.9 121.4 L 117.0 124.0 L 118.8 126.8 L 120.2 129.7 L 119.7 134.3 L 116.2 137.2 L 111.7 136.6 L 108.7 133.1 L 108.4 131.1 Z M 181.6 106.2 L 183.1 109.5 L 179.34210529327393 109.5 L 176.4 113.8 L 171.0 121.0 L 165.4 127.8 L 159.5 134.1 L 153.3 139.9 L 146.8 145.3 L 140.1 150.2 L 133.1 154.6 L 125.8 158.4 L 118.2 161.6 L 117.3 160.0 L 123.8 155.2 L 130.0 150.2 L 136.0 145.0 L 141.8 139.6 L 147.3 133.9 L 152.6 127.8 L 157.6 121.4 L 162.4 114.7 L 166.9 107.6 L 171.2 100.1 L 171.23680696487426 100.12158870697021 L 171.8 99.2 Z M 176.3 64.1 L 177.8 67.4 L 174.04499998092652 67.4 L 172.2 70.1 L 167.8 75.8 L 163.3 81.2 L 158.6 86.4 L 153.7 91.4 L 148.6 96.1 L 143.4 100.5 L 137.9 104.6 L 132.1 108.3 L 126.1 111.6 L 125.0 110.2 L 129.7 105.3 L 134.4 100.5 L 138.9 95.7 L 143.3 90.7 L 147.5 85.7 L 151.5 80.4 L 155.4 75.1 L 159.1 69.5 L 162.7 63.8 L 165.60789470672609 58.75394735336304 L 165.5 58.7 L 166.6 57.0 Z M 73.0 65.8 L 73.0 92.4 L 86.0 92.4 L 86.0 65.8 Z M 96.0 65.8 L 96.0 92.4 L 109.1 92.4 L 109.1 65.8 Z M 31.3 76.6 L 29.7 74.1 L 28.0 71.7 L 26.2 69.3 L 24.3 67.0 L 20.1 62.4 L 17.9 60.1 L 15.4 58.2 L 16.3 56.6 L 19.3 57.8 L 22.5 58.9 L 25.5 60.3 L 28.4 61.8 L 31.3 63.6 L 34.1 65.6 L 36.7 67.7 L 39.3 70.0 L 41.8 72.5 L 44.2 75.1 L 45.1 79.6 L 42.6 83.4 L 38.2 84.3 L 34.3 81.9 L 32.9 79.2 Z M 172.3 22.9 L 173.8 26.2 L 169.98037910461426 26.135260677337648 L 168.5 28.2 L 164.5 33.3 L 160.3 38.3 L 156.0 43.1 L 151.5 47.7 L 146.8 52.1 L 142.0 56.4 L 137.0 60.5 L 131.7 64.3 L 126.1 67.7 L 125.0 66.3 L 129.2 61.4 L 137.4 51.8 L 141.3 47.0 L 145.1 42.1 L 148.8 37.1 L 152.4 32.1 L 155.8 27.0 L 159.1 21.8 L 161.72450370788573 17.31294536590576 L 161.7 17.3 L 162.7 15.7 Z M 39.0 41.2 L 37.7 38.7 L 36.2 36.3 L 34.6 33.9 L 31.0 29.1 L 29.0 26.7 L 26.8 24.3 L 24.3 22.2 L 25.3 20.7 L 28.3 22.1 L 31.4 23.4 L 34.4 24.9 L 37.3 26.6 L 40.0 28.5 L 42.6 30.6 L 45.1 32.8 L 47.4 35.2 L 49.6 37.7 L 51.7 40.4 L 52.2 44.9 L 49.4 48.6 L 44.9 49.1 L 41.2 46.3 L 40.2 43.7 Z " />
</g>
</svg>
