<svg xmlns="http://www.w3.org/2000/svg" xmlns:xlink="http://www.w3.org/1999/xlink" version="1.1" baseProfile="full" viewBox="0 0 200 200" width="200" height="200">
<g fill="black">
<path d="M 114.2 162.1 L 116.7 160.6 L 119.2 159.0 L 119.6 158.7692307472229 L 119.6 103.3 L 117.00731706619263 103.3 L 116.5 113.7 L 115.5 125.3 L 114.3 136.0 L 112.7 146.0 L 110.9 155.3 L 108.7 163.7 L 106.2 171.3 L 103.4 178.2 L 100.1 184.1 L 96.4 189.0 L 94.8 188.1 L 96.6 182.5 L 98.3 176.3 L 99.9 169.5 L 101.3 162.0 L 102.5 153.8 L 103.5 144.8 L 104.3 135.0 L 104.8 124.5 L 105.1 113.3 L 105.1 103.3 L 96.7 103.3 L 96.7 99.3 L 122.91818180084229 99.3 L 131.1 90.3 L 141.1 99.3 L 141.1 103.3 L 131.6 103.3 L 131.6 152.04285717010498 L 132.8 151.4 L 135.7 150.0 L 138.8 148.7 L 141.7 147.1 L 142.8 148.5 L 140.4 150.8 L 138.3 153.3 L 136.1 155.8 L 131.6 160.7285714149475 L 131.6 161.2 L 131.16956520080566 161.2 L 129.8 162.7 L 127.7 164.9 L 125.7 167.0 L 124.82383422851562 168.01450777053833 L 125.3 172.3 L 121.9 171.3 L 112.6 163.4 Z M 186.7 122.1 L 188.7 125.0 L 185.09428071975708 125.63258228302001 L 182.7 130.9 L 178.5 139.3 L 174.0 147.2 L 169.4 154.6 L 164.5 161.6 L 159.4 167.9 L 154.1 173.8 L 148.5 179.1 L 142.6 183.7 L 136.5 187.7 L 135.4 186.2 L 140.1 180.9 L 144.6 175.4 L 149.1 169.5 L 153.3 163.4 L 157.5 156.8 L 161.4 149.8 L 165.2 142.5 L 168.8 134.6 L 172.2 126.4 L 175.15260066986085 118.61587085723878 L 175.1 118.6 L 176.0 116.3 Z M 45.7 183.3 L 43.3 182.8 L 40.8 182.0 L 38.6 180.8 L 36.6 179.1 L 34.9 177.1 L 33.7 174.9 L 32.9 172.4 L 32.4 170.0 L 32.3 167.4 L 32.3 128.5 L 44.3 130.5 L 47.3 132.5 L 44.3 134.3 L 44.3 167.4 L 44.4 168.6 L 44.5 169.5 L 44.7 170.1 L 44.9 170.5 L 45.2 170.8 L 45.6 171.0 L 46.2 171.2 L 47.1 171.3 L 48.3 171.4 L 68.4 171.4 L 74.4 146.4 L 76.4 146.4 L 74.4 171.4 L 78.0 173.8 L 80.4 177.4 L 78.0 181.0 L 74.4 183.4 L 48.3 183.4 Z M 15.2 176.1 L 12.8 172.1 L 13.8 167.7 L 15.1 166.4 L 16.3 164.5 L 17.6 161.9 L 18.8 158.9 L 19.9 155.2 L 21.0 151.1 L 21.9 146.4 L 22.8 141.3 L 23.8 135.7 L 24.5 129.5 L 26.3 129.5 L 27.1 135.7 L 27.7 141.5 L 28.0 146.9 L 28.1 151.9 L 28.0 156.5 L 27.6 160.8 L 27.0 164.7 L 26.2 168.4 L 25.0 171.7 L 23.5 174.7 L 19.6 177.1 Z M 81.7 159.1 L 81.3 155.4 L 80.7 151.9 L 80.0 148.4 L 79.1 144.9 L 78.2 141.6 L 77.2 138.3 L 76.1 134.9 L 74.7 131.7 L 76.1 130.7 L 78.6 133.3 L 81.1 136.0 L 83.4 139.0 L 85.5 142.2 L 87.4 145.6 L 89.1 149.2 L 90.6 153.0 L 92.0 156.9 L 93.2 160.9 L 94.2 165.2 L 93.0 169.6 L 89.0 171.9 L 84.6 170.7 L 82.3 166.7 L 82.1 162.9 Z M 54.0 144.7 L 53.5 141.9 L 52.9 139.3 L 52.2 136.7 L 51.5 134.2 L 50.7 131.8 L 49.9 129.5 L 49.0 127.1 L 47.7 125.2 L 49.0 123.9 L 50.9 125.5 L 53.1 127.1 L 55.1 129.0 L 57.1 131.0 L 58.9 133.3 L 60.6 135.8 L 62.2 138.5 L 63.8 141.4 L 65.2 144.4 L 66.5 147.6 L 65.8 152.1 L 62.2 154.9 L 57.7 154.2 L 54.9 150.6 L 54.5 147.6 Z M 70.1 15.0 L 72.8 17.0 L 70.1 18.723404216766358 L 70.1 35.0 L 78.5777777671814 35.0 L 84.8 28.0 L 92.8 35.0 L 92.8 39.0 L 70.1 39.0 L 70.1 64.0 L 74.5777777671814 64.0 L 80.8 57.0 L 88.8 64.0 L 88.8 68.0 L 70.1 68.0 L 70.1 93.0 L 78.5777777671814 93.0 L 84.8 86.0 L 92.8 93.0 L 92.8 97.0 L 70.1 97.0 L 70.1 125.2 L 59.1 130.7 L 59.1 13.0 Z M 182.6 73.1 L 184.7 76.1 L 180.96352071762084 76.67979850769044 L 179.4 80.1 L 176.0 86.7 L 172.4 93.1 L 168.7 99.3 L 164.9 105.1 L 160.8 110.7 L 156.6 116.0 L 152.2 120.9 L 147.5 125.4 L 142.6 129.6 L 141.3 128.3 L 144.6 123.0 L 148.0 117.6 L 151.3 112.2 L 154.5 106.5 L 157.6 100.7 L 160.6 94.7 L 163.5 88.5 L 166.3 82.1 L 169.0 75.5 L 171.13393869400025 69.61032915115356 L 171.1 69.6 L 172.0 67.3 Z M 50.9 67.2 L 50.3 77.0 L 49.0 86.0 L 47.2 94.2 L 44.9 101.6 L 41.9 108.3 L 38.4 114.1 L 34.3 119.0 L 29.6 122.9 L 24.4 125.6 L 23.5 124.3 L 27.3 120.3 L 30.5 115.9 L 33.2 111.0 L 35.6 105.5 L 37.5 99.3 L 38.9 92.4 L 39.07933292388916 91.01913614273072 L 36.4 93.5 L 33.7 95.9 L 31.2 98.1 L 28.6 100.2 L 23.8 104.2 L 22.799808406829833 104.98275861740112 L 22.5 109.3 L 19.3 107.7 L 11.6 98.2 L 13.4 97.2 L 15.9 96.3 L 18.5 95.2 L 21.2 94.1 L 24.1 92.8 L 27.1 91.6 L 30.1 90.2 L 36.7 87.4 L 39.71235694885254 86.14485130310058 L 39.9 84.7 L 40.4 76.3 L 40.49021739959717 68.0 L 20.0 68.0 L 20.0 64.0 L 40.37474746704102 64.0 L 40.1 57.2 L 40.22941179275513 57.194117641448976 L 40.1 57.0 L 40.1 39.0 L 17.4 39.0 L 17.4 35.0 L 40.1 35.0 L 40.1 13.0 L 51.1 15.0 L 53.8 17.0 L 51.1 18.723404216766358 L 51.1 57.0 L 51.094117641448975 57.008823490142824 Z M 179.6 25.2 L 181.6 28.2 L 177.90154943466186 28.710131072998045 L 176.6 31.4 L 173.4 37.3 L 170.1 43.2 L 166.7 48.8 L 163.1 54.3 L 159.4 59.6 L 155.6 64.7 L 151.5 69.6 L 147.2 74.2 L 142.7 78.5 L 141.2 77.4 L 144.2 71.9 L 147.1 66.5 L 150.1 61.1 L 153.0 55.6 L 158.6 44.4 L 161.2 38.6 L 163.7 32.7 L 166.2 26.7 L 168.12593660354614 21.508344841003417 L 168.1 21.5 L 168.25789470672606 21.152631568908692 L 168.5 20.5 L 168.5457417488098 20.519368171691895 L 169.1 19.3 Z M 136.7 61.8 L 136.7 65.8 L 102.3 65.8 L 102.3 61.8 L 122.4777777671814 61.8 L 128.7 54.8 Z M 96.4 56.3 L 93.3 53.0 L 93.3 48.5 L 94.0 47.6 L 94.7 46.0 L 95.5 43.8 L 96.3 41.1 L 97.1 37.8 L 97.8 34.0 L 99.3 25.0 L 100.1 19.8 L 100.7 14.2 L 102.5 14.1 L 103.1 19.8 L 103.58867921829224 23.5 L 133.8 23.5 L 139.8 18.5 L 150.8 27.5 L 145.8 30.5 L 143.88214282989503 31.299107170104982 L 143.3 32.9 L 142.3 35.3 L 141.3 37.8 L 140.3 40.4 L 137.9 46.0 L 136.4 49.0 L 135.4 52.1 L 133.6 51.7 L 134.0 48.4 L 134.0 35.41666669845581 L 133.8 35.5 L 133.8 27.5 L 104.05 27.5 L 104.3 29.9 L 104.7 34.4 L 104.9 38.4 L 105.1 42.0 L 105.1 45.2 L 105.0 48.1 L 104.8 50.7 L 104.3 53.2 L 101.0 56.3 Z " />
</g>
</svg>
