<svg xmlns="http://www.w3.org/2000/svg" xmlns:xlink="http://www.w3.org/1999/xlink" version="1.1" baseProfile="full" viewBox="0 0 200 200" width="200" height="200">
<g fill="black">
<path d="M 180.4 100.0 L 183.4 102.0 L 180.4 103.8 L 180.4 177.0 L 168.4 183.0 L 168.4 171.0 L 94.5 171.0 L 94.5 183.0 L 82.5 189.0 L 82.5 98.0 L 94.5 100.0 L 97.5 102.0 L 94.5 103.8 L 94.5 167.0 L 168.4 167.0 L 168.4 98.0 Z M 51.1 16.0 L 54.1 18.0 L 51.1 19.8 L 51.1 183.0 L 39.1 189.0 L 39.1 14.0 Z M 14.1 101.4 L 11.8 97.4 L 12.9 93.0 L 14.4 91.3 L 15.9 89.3 L 17.5 86.7 L 19.0 83.7 L 20.5 80.3 L 22.0 76.4 L 23.5 72.1 L 25.0 67.4 L 26.5 62.3 L 27.9 56.8 L 29.7 57.0 L 29.7 68.2 L 29.4 73.3 L 29.0 78.0 L 28.3 82.4 L 27.5 86.5 L 26.6 90.4 L 25.4 93.9 L 24.1 97.1 L 22.5 100.1 L 18.6 102.4 Z M 95.5 78.0 L 94.5 74.5 L 93.3 71.1 L 92.1 67.8 L 90.8 64.5 L 89.5 61.3 L 86.5 54.9 L 84.7 51.9 L 86.1 50.7 L 88.8 53.0 L 91.7 55.4 L 94.3 58.1 L 96.7 61.0 L 99.1 64.0 L 101.2 67.2 L 103.3 70.6 L 105.2 74.2 L 107.0 77.9 L 108.7 81.7 L 108.2 86.2 L 104.8 89.2 L 100.2 88.8 L 97.3 85.3 L 96.4 81.6 Z M 167.3 78.0 L 166.3 74.5 L 165.2 71.1 L 164.0 67.8 L 162.7 64.5 L 159.9 58.1 L 158.4 54.9 L 156.6 51.9 L 158.0 50.7 L 160.7 53.0 L 163.5 55.4 L 166.1 58.1 L 168.6 61.0 L 170.9 64.0 L 173.1 67.2 L 175.2 70.6 L 177.1 74.2 L 178.9 77.9 L 180.6 81.7 L 180.1 86.2 L 176.6 89.2 L 172.1 88.8 L 169.1 85.3 L 168.3 81.6 Z M 131.4 78.0 L 130.4 74.5 L 129.3 71.1 L 128.1 67.8 L 126.8 64.5 L 125.4 61.3 L 123.9 58.1 L 122.5 54.9 L 120.7 51.9 L 122.0 50.7 L 124.8 53.0 L 127.6 55.4 L 130.2 58.1 L 132.7 61.0 L 135.0 64.0 L 137.2 67.2 L 139.2 70.6 L 141.2 74.2 L 143.0 77.9 L 144.6 81.7 L 144.2 86.2 L 140.7 89.2 L 136.2 88.8 L 133.2 85.3 L 132.3 81.6 Z M 67.4 78.4 L 66.6 75.7 L 65.6 72.9 L 64.4 70.0 L 63.1 67.0 L 61.5 63.9 L 59.8 60.8 L 57.9 57.5 L 55.7 54.3 L 56.9 53.0 L 60.0 55.6 L 63.1 58.0 L 66.0 60.5 L 68.6 63.1 L 71.0 65.8 L 73.2 68.6 L 75.2 71.5 L 77.0 74.4 L 78.6 77.4 L 80.0 80.4 L 79.4 84.9 L 75.9 87.8 L 71.3 87.3 L 68.4 83.7 L 68.0 81.1 Z M 145.0 17.9 L 147.1 20.8 L 143.13689098358154 21.483294677734374 L 141.4 24.5 L 139.4 27.8 L 137.3 31.1 L 135.0 34.5 L 132.6 37.8 L 130.1 41.2 L 127.4 44.5 L 124.4 47.7 L 121.4 51.0 L 119.9 50.0 L 121.8 46.0 L 123.4 42.0 L 125.0 38.1 L 128.0 30.7 L 129.3 27.1 L 130.6 23.6 L 131.8 20.1 L 132.9 16.8 L 133.61652593612672 14.43546438217163 L 133.5 14.4 L 134.4 12.1 Z M 109.1 17.9 L 111.1 20.8 L 107.13915348052979 21.49488534927368 L 105.5 24.5 L 103.5 27.8 L 101.3 31.1 L 99.1 34.5 L 96.7 37.8 L 94.1 41.2 L 91.4 44.5 L 88.5 47.7 L 85.5 51.0 L 84.0 50.0 L 85.8 46.0 L 87.4 42.0 L 89.0 38.1 L 90.6 34.4 L 92.0 30.7 L 93.4 27.1 L 94.7 23.6 L 95.9 20.1 L 97.0 16.8 L 97.65036497116088 14.41532850265503 L 97.6 14.4 L 97.78000001907348 13.939999961853028 L 97.9 13.5 L 97.94522209167481 13.51776580810547 L 98.5 12.1 Z M 180.9 17.9 L 183.0 20.8 L 179.03689098358154 21.483294677734374 L 177.3 24.5 L 175.3 27.8 L 173.2 31.1 L 170.9 34.5 L 168.5 37.8 L 166.0 41.2 L 163.3 44.5 L 160.3 47.7 L 157.4 51.0 L 155.9 50.0 L 157.7 46.0 L 159.3 42.0 L 160.9 38.1 L 163.9 30.7 L 165.3 27.1 L 167.7 20.1 L 168.8 16.8 L 169.5165259361267 14.43546438217163 L 169.4 14.4 L 170.3 12.1 Z " />
</g>
</svg>
