<svg xmlns="http://www.w3.org/2000/svg" xmlns:xlink="http://www.w3.org/1999/xlink" version="1.1" baseProfile="full" viewBox="0 0 200 200" width="200" height="200">
<g fill="black">
<path d="M 48.6 82.2 L 51.6 84.2 L 48.6 86.0 L 48.6 183.3 L 36.6 189.3 L 36.6 80.2 Z M 186.1 179.4 L 186.1 183.4 L 59.6 183.4 L 59.6 179.4 L 164.1 179.4 L 174.1 169.4 Z M 98.5 106.4 L 153.0 106.4 L 159.0 101.4 L 170.0 110.4 L 165.0 114.4 L 165.0 165.5 L 153.0 171.5 L 153.0 163.5 L 98.5 163.5 L 98.5 166.5 L 86.5 172.5 L 86.5 100.4 Z M 98.5 136.2 L 98.5 159.5 L 153.0 159.5 L 153.0 136.2 Z M 11.4 134.8 L 10.1 130.4 L 12.2 126.3 L 13.4 125.7 L 14.7 124.9 L 16.1 123.7 L 17.5 122.3 L 18.9 120.5 L 20.3 118.4 L 21.7 116.1 L 23.1 113.4 L 24.5 110.5 L 25.5 107.2 L 27.3 107.5 L 26.9 111.0 L 26.9 114.4 L 26.7 117.6 L 26.3 120.6 L 25.7 123.5 L 24.9 126.2 L 24.0 128.8 L 22.9 131.2 L 21.5 133.4 L 19.9 135.5 L 15.5 136.8 Z M 98.5 110.4 L 98.5 132.2 L 153.0 132.2 L 153.0 110.4 Z M 64.9 121.3 L 64.3 119.7 L 63.4 118.0 L 62.3 116.2 L 61.0 114.2 L 59.4 112.2 L 57.7 110.1 L 55.7 107.8 L 53.3 105.8 L 54.3 104.3 L 57.1 105.8 L 59.9 107.0 L 62.6 108.2 L 65.1 109.5 L 67.4 110.9 L 69.5 112.3 L 71.5 113.8 L 73.3 115.4 L 74.9 117.1 L 76.4 119.0 L 76.5 123.6 L 73.4 127.0 L 68.8 127.1 L 65.4 124.0 L 65.3 122.7 Z M 181.6 90.2 L 181.6 94.2 L 71.0 94.2 L 71.0 90.2 L 159.6 90.2 L 169.6 80.2 Z M 72.0 72.8 L 93.2 72.8 L 94.1 72.6 L 94.7 72.4 L 95.0 72.2 L 95.2 72.1 L 95.4 71.9 L 95.7 71.0 L 95.9 70.1 L 96.0 68.8 L 96.0 30.7 L 62.535294151306154 30.7 L 59.3 32.9 L 53.8 36.1 L 47.9 39.1 L 41.4 41.7 L 34.5 44.1 L 27.1 46.1 L 19.2 47.7 L 18.7 46.0 L 25.9 42.5 L 32.5 39.1 L 38.7 35.8 L 44.3 32.4 L 49.3 28.9 L 53.8 25.4 L 57.8 21.8 L 61.2 18.2 L 64.0 14.5 L 65.8598419189453 11.632743740081787 L 65.8 11.6 L 66.9 10.0 L 76.4 17.4 L 77.8 20.7 L 73.8255069732666 20.562948513031007 L 72.9 21.7 L 68.8 25.7 L 67.61578950881957 26.7 L 163.58000001907348 26.7 L 163.9 26.4 L 166.7 23.6 L 167.05606870651246 24.15327606201172 L 170.0 21.7 L 181.0 30.7 L 176.0 33.7 L 164.0 38.7 L 164.0 37.01304349899292 L 162.6 37.5 L 157.6 39.1 L 154.9 39.8 L 152.1 40.6 L 149.4 41.7 L 148.5 40.1 L 150.9 38.5 L 153.0 36.5 L 155.0 34.6 L 157.0 32.8 L 158.8 31.1 L 159.25 30.7 L 108.0 30.7 L 108.0 68.8 L 107.8 71.4 L 107.4 73.9 L 106.6 76.3 L 105.3 78.6 L 103.7 80.6 L 101.7 82.2 L 99.4 83.5 L 97.0 84.3 L 94.5 84.7 L 92.0 84.8 L 92.0 78.8 L 72.0 75.8 Z " />
</g>
</svg>
