<svg xmlns="http://www.w3.org/2000/svg" xmlns:xlink="http://www.w3.org/1999/xlink" version="1.1" baseProfile="full" viewBox="0 0 200 200" width="200" height="200">
<g fill="black">
<path d="M 52.9 16.0 L 55.9 18.0 L 52.9 19.8 L 52.9 183.0 L 40.9 189.0 L 40.9 14.0 Z M 166.1 145.3 L 163.6 142.9 L 161.66790800094606 141.18258485794067 L 157.1 142.0 L 147.7 143.4 L 138.4 144.7 L 129.2 145.8 L 122.9927152633667 146.48211917877197 L 133.3 148.2 L 136.3 150.2 L 133.3 152.0 L 133.3 160.1 L 157.1 160.1 L 167.1 150.1 L 179.1 160.1 L 179.1 164.1 L 133.3 164.1 L 133.3 180.5 L 166.3 180.5 L 176.3 170.5 L 188.3 180.5 L 188.3 184.5 L 66.3 184.5 L 66.3 180.5 L 121.3 180.5 L 121.3 164.1 L 75.5 164.1 L 75.5 160.1 L 121.3 160.1 L 121.3 146.6681318283081 L 120.1 146.8 L 111.1 147.7 L 102.2 148.6 L 93.5 149.3 L 84.9 150.1 L 80.42863702774048 150.46822986602783 L 78.5 153.7 L 76.4 150.8 L 73.9 138.8 L 75.9 138.8 L 84.4 138.7 L 93.0 138.6 L 98.83877849578857 138.53288764953612 L 99.6 137.1 L 101.2 134.1 L 104.6 128.1 L 108.0 122.3 L 109.65714282989502 119.4 L 67.9 119.4 L 67.9 115.4 L 164.0 115.4 L 174.0 105.4 L 186.0 115.4 L 186.0 119.4 L 123.7764705657959 119.4 L 122.5 120.8 L 120.2 123.3 L 115.6 128.1 L 113.2 130.5 L 108.2 135.3 L 105.6 137.6 L 104.58148517608643 138.46762380599975 L 110.6 138.4 L 119.6 138.3 L 128.7 138.2 L 137.9 138.1 L 147.3 138.1 L 156.8 138.2 L 158.07426271438598 138.23941020965577 L 157.9 138.1 L 154.6 135.7 L 151.1 133.3 L 147.4 130.8 L 143.4 128.2 L 139.1 125.7 L 139.7 124.1 L 144.6 125.3 L 149.3 126.5 L 153.8 127.9 L 158.0 129.5 L 162.0 131.2 L 165.8 133.1 L 169.4 135.0 L 172.7 137.1 L 175.9 139.3 L 178.8 141.6 L 180.5 145.9 L 178.7 150.1 L 174.5 151.7 L 170.2 150.0 L 168.3 147.7 Z M 115.8 104.5 L 113.5 104.2 L 111.2 103.6 L 109.0 102.6 L 107.0 101.1 L 105.3 99.3 L 104.0 97.2 L 103.1 94.9 L 102.5 92.5 L 102.2 89.9 L 102.2 80.425 L 100.8 81.3 L 89.0 87.8 L 76.8 93.8 L 64.0 99.1 L 63.2 97.5 L 75.0 90.4 L 79.18738498687745 87.73193168640137 L 75.3 87.3 L 72.3 83.8 L 71.8 81.2 L 71.2 78.6 L 70.3 75.8 L 69.2 73.0 L 67.9 70.1 L 66.4 67.1 L 64.7 64.0 L 62.8 60.8 L 60.7 57.5 L 58.3 54.3 L 59.5 53.0 L 62.8 55.5 L 66.0 57.9 L 69.0 60.4 L 71.8 63.0 L 74.3 65.7 L 76.7 68.5 L 78.8 71.3 L 80.7 74.3 L 82.3 77.3 L 83.8 80.3 L 83.3 84.9 L 82.19498014450073 85.81558780670166 L 86.3 83.2 L 97.2 75.8 L 102.2 72.09807691574096 L 102.2 63.1 L 111.80621757507325 64.7010362625122 L 117.5 60.1 L 123.61566267013549 54.7 L 65.8 54.7 L 65.8 50.7 L 113.8 50.7 L 113.8 34.3 L 78.0 34.3 L 78.0 30.3 L 113.8 30.3 L 113.8 13.4 L 125.8 15.4 L 128.8 17.4 L 125.8 19.2 L 125.8 30.3 L 131.11818180084228 30.3 L 139.3 21.3 L 148.44634141921998 29.531707286834717 L 152.3 25.1 L 159.8 15.5 L 159.8095820426941 15.507543277740478 L 160.2 15.0 L 169.2 22.9 L 170.4 26.3 L 166.65155305862427 25.847601222991944 L 160.9 32.5 L 152.1 41.7 L 142.8 50.5 L 142.5666666984558 50.7 L 166.2 50.7 L 176.2 40.7 L 188.2 50.7 L 188.2 54.7 L 137.9 54.7 L 133.0 58.9 L 122.8 66.8 L 114.2 72.7722222328186 L 114.2 81.98888893127442 L 115.2 81.6 L 122.0 79.1 L 128.5 76.8 L 134.6 74.5 L 140.2 72.4 L 145.5 70.2 L 150.4 68.2 L 154.8 66.2 L 158.8 64.2 L 161.53250360488892 62.75784530639648 L 161.5 62.7 L 161.55192308425904 62.747596168518065 L 162.4 62.3 L 163.36965703964233 64.41385221481323 L 171.1 71.5 L 171.2 74.8 L 167.46127614974975 73.17184610366822 L 167.4 73.2 L 163.2 74.7 L 158.6 76.2 L 153.7 77.6 L 148.4 79.1 L 142.7 80.5 L 136.7 81.8 L 130.2 83.1 L 123.4 84.3 L 116.1 85.3 L 114.2 85.49740257263184 L 114.2 89.9 L 114.1 91.2 L 114.2 92.2 L 114.2 92.8 L 114.3 93.3 L 114.4 93.7 L 114.7 94.1 L 115.1 94.5 L 115.8 94.9 L 116.8 95.2 L 118.2 95.4 L 175.0 95.4 L 179.5 82.4 L 181.5 82.4 L 179.5 95.4 L 182.2 97.2 L 184.0 99.9 L 182.2 102.6 L 179.5 104.4 L 118.2 104.4 Z M 13.9 101.3 L 11.8 97.3 L 13.0 92.9 L 14.6 91.2 L 16.2 89.2 L 17.8 86.6 L 19.4 83.6 L 21.0 80.2 L 22.6 76.3 L 24.1 72.1 L 25.6 67.4 L 27.2 62.3 L 28.6 56.8 L 30.4 57.0 L 30.4 62.8 L 30.3 68.2 L 30.0 73.3 L 29.5 78.1 L 28.8 82.5 L 27.9 86.7 L 26.8 90.5 L 25.5 94.1 L 24.1 97.3 L 22.4 100.3 L 18.3 102.5 Z M 125.8 50.7 L 128.06470584869385 50.7 L 135.9 43.3 L 144.3 34.3 L 125.8 34.3 Z " />
</g>
</svg>
