<svg xmlns="http://www.w3.org/2000/svg" xmlns:xlink="http://www.w3.org/1999/xlink" version="1.1" baseProfile="full" viewBox="0 0 200 200" width="200" height="200">
<g fill="black">
<path d="M 107.1 130.0 L 162.8 130.0 L 168.8 125.0 L 179.8 134.0 L 174.8 138.0 L 174.8 176.0 L 162.8 182.0 L 162.8 170.0 L 107.1 170.0 L 107.1 182.0 L 95.1 188.0 L 95.1 124.0 Z M 27.0 176.0 L 41.0 176.0 L 42.3 175.9 L 43.2 175.7 L 44.1 175.4 L 44.3 175.2 L 44.4 175.0 L 44.6 174.7 L 44.8 174.1 L 45.0 173.2 L 45.0 120.0 L 13.5 120.0 L 13.5 116.0 L 45.0 116.0 L 45.0 76.0 L 16.8 76.0 L 16.8 72.0 L 45.0 72.0 L 45.0 33.932876682281496 L 41.0 34.7 L 33.2 35.9 L 25.0 37.0 L 16.2 37.8 L 15.8 36.1 L 24.1 33.3 L 32.0 30.7 L 39.4 28.3 L 46.3 26.0 L 52.7 23.7 L 58.6 21.5 L 63.9 19.3 L 68.8 17.2 L 73.1 15.1 L 75.9493592262268 13.482796096801758 L 75.9 13.4 L 75.97369022369385 13.4689866065979 L 76.8 13.0 L 77.92798833847046 15.298542308807374 L 85.3 22.2 L 85.4 25.5 L 81.73502492904663 23.937879467010497 L 77.6 25.5 L 72.6 27.2 L 67.2 28.8 L 61.4 30.4 L 57.0 31.44761905670166 L 57.0 72.0 L 63.3 72.0 L 73.3 62.0 L 85.3 72.0 L 85.3 76.0 L 57.0 76.0 L 57.0 116.0 L 66.5 116.0 L 76.5 106.0 L 88.5 116.0 L 88.5 120.0 L 57.0 120.0 L 57.0 172.0 L 56.9 174.5 L 56.5 177.0 L 55.6 179.4 L 54.4 181.7 L 52.8 183.7 L 50.8 185.3 L 48.5 186.6 L 46.1 187.4 L 43.6 187.8 L 41.0 188.0 L 41.0 182.0 L 27.0 179.0 Z M 107.1 134.0 L 107.1 166.0 L 162.8 166.0 L 162.8 134.0 Z M 171.6 105.0 L 171.6 109.0 L 99.3 109.0 L 99.3 105.0 L 149.6 105.0 L 159.6 95.0 Z M 171.6 79.0 L 171.6 83.0 L 99.3 83.0 L 99.3 79.0 L 149.6 79.0 L 159.6 69.0 Z M 187.1 54.0 L 187.1 58.0 L 86.5 58.0 L 86.5 54.0 L 168.9181818008423 54.0 L 177.1 45.0 Z M 171.6 30.0 L 171.6 34.0 L 98.4 34.0 L 98.4 30.0 L 149.6 30.0 L 159.6 20.0 Z " />
</g>
</svg>
