<svg xmlns="http://www.w3.org/2000/svg" xmlns:xlink="http://www.w3.org/1999/xlink" version="1.1" baseProfile="full" viewBox="0 0 200 200" width="200" height="200">
<g fill="black">
<path d="M 142.5 127.0 L 142.5 87.5 L 116.1 87.5 L 116.1 118.0 L 115.46363639831543 127.0 Z M 168.2 62.4 L 166.3 59.7 L 164.3 57.1 L 162.1 54.4 L 159.8 51.7 L 154.6 46.1 L 152.08399696350097 43.49413976669312 L 151.8 44.1 L 148.4 50.2 L 144.6 56.2 L 140.5 61.9 L 135.9 67.3 L 130.9 72.5 L 125.5 77.2 L 124.1 76.0 L 128.0 70.1 L 131.6 64.1 L 135.0 58.3 L 138.1 52.3 L 140.8 46.4 L 143.3 40.3 L 145.4 34.2 L 147.2 27.9 L 148.6 21.6 L 149.61506023406983 16.101757049560547 L 149.6 16.1 L 149.7111110687256 15.581481456756592 L 149.8 15.1 L 149.81368913650513 15.102784252166748 L 150.2 13.3 L 161.6 17.5 L 164.1 20.0 L 160.55680818557738 21.288433361053468 L 159.7 24.4 L 157.4 31.2 L 154.8 37.7 L 153.39488563537597 40.69757738113403 L 157.2 42.5 L 160.8 44.4 L 164.2 46.4 L 167.4 48.5 L 170.5 50.8 L 173.4 53.1 L 176.1 55.5 L 178.7 58.0 L 181.1 60.7 L 182.1 65.1 L 179.7 69.0 L 175.2 70.0 L 171.3 67.6 L 169.8 65.0 Z M 114.9 58.9 L 113.4 56.5 L 111.7 54.0 L 109.9 51.5 L 107.9 49.0 L 105.7 46.4 L 103.4 43.8 L 102.31147537231445 42.57540979385376 L 102.3 42.6 L 99.0 48.4 L 95.4 54.0 L 91.3 59.4 L 86.8 64.5 L 81.9 69.2 L 76.5 73.6 L 75.2 72.4 L 79.0 66.7 L 82.6 61.2 L 85.9 55.6 L 88.9 50.1 L 91.5 44.5 L 93.8 38.8 L 95.7 33.1 L 97.3 27.3 L 98.5 21.4 L 99.25182189941407 16.304318523406984 L 99.2 16.3 L 99.7 13.4 L 111.2 17.3 L 113.9 19.8 L 110.25670919418334 21.191074657440186 L 109.6 23.9 L 107.6 30.3 L 105.1 36.6 L 103.80803861618043 39.368488788604736 L 106.0 40.4 L 109.2 42.1 L 112.3 44.0 L 115.2 45.9 L 117.9 48.0 L 120.5 50.1 L 123.0 52.3 L 125.3 54.7 L 127.5 57.1 L 128.3 61.6 L 125.8 65.4 L 121.3 66.2 L 117.5 63.7 L 116.3 61.3 Z M 52.3 176.0 L 51.5 178.4 L 50.2 180.7 L 48.6 182.7 L 46.6 184.3 L 44.3 185.6 L 41.9 186.4 L 39.4 186.8 L 36.9 187.0 L 36.9 181.0 L 22.9 178.0 L 22.9 175.0 L 36.9 175.0 L 38.1 174.9 L 39.0 174.7 L 39.9 174.4 L 40.3 174.0 L 40.6 173.1 L 40.8 172.2 L 40.9 171.0 L 40.9 113.40169486999511 L 36.4 116.3 L 30.5 119.9 L 21.881898498535158 124.84481239318848 L 21.4 128.7 L 18.3 126.9 L 11.2 117.0 L 12.9 116.1 L 19.2 113.3 L 31.6 107.5 L 37.7 104.5 L 40.9 102.87377052307129 L 40.9 57.0 L 14.0 57.0 L 14.0 53.0 L 40.9 53.0 L 40.9 14.0 L 52.9 16.0 L 55.9 18.0 L 52.9 19.8 L 52.9 53.0 L 58.5 53.0 L 68.5 43.0 L 80.5 53.0 L 80.5 57.0 L 52.9 57.0 L 52.9 96.79833335876465 L 67.8 89.1 L 73.9 86.2 L 74.6 87.25 L 74.6 83.5 L 161.3 83.5 L 171.3 73.5 L 183.3 83.5 L 183.3 87.5 L 154.5 87.5 L 154.5 127.0 L 166.2 127.0 L 176.2 117.0 L 188.2 127.0 L 188.2 131.0 L 154.5 131.0 L 154.5 182.6 L 142.5 188.6 L 142.5 131.0 L 114.87234039306641 131.0 L 113.8 137.3 L 111.3 146.1 L 107.9 154.3 L 103.7 161.8 L 98.6 168.7 L 92.7 174.8 L 86.0 180.1 L 78.4 184.7 L 70.1 188.3 L 69.3 186.7 L 76.4 181.5 L 82.6 176.0 L 88.0 170.2 L 92.6 164.1 L 96.4 157.6 L 99.4 150.6 L 101.7 143.2 L 103.2 135.3 L 103.66071424484252 131.0 L 69.7 131.0 L 69.7 127.0 L 104.08928575515748 127.0 L 104.1 126.9 L 104.1 87.5 L 74.76666669845581 87.5 L 74.9 87.7 L 69.9 92.3 L 64.7 96.7 L 59.3 100.8 L 53.7 104.8 L 52.9 105.35714282989503 L 52.9 171.0 L 52.7 173.5 Z " />
</g>
</svg>
