<svg xmlns="http://www.w3.org/2000/svg" xmlns:xlink="http://www.w3.org/1999/xlink" version="1.1" baseProfile="full" viewBox="0 0 200 200" width="200" height="200">
<g fill="black">
<path d="M 21.5 176.0 L 35.5 176.0 L 36.8 175.9 L 37.7 175.7 L 38.6 175.4 L 39.0 175.0 L 39.3 174.1 L 39.5 173.2 L 39.5 120.0 L 13.1 120.0 L 13.1 116.0 L 39.5 116.0 L 39.5 76.0 L 15.9 76.0 L 15.9 72.0 L 39.5 72.0 L 39.5 34.16666669845581 L 37.1 34.7 L 30.3 35.9 L 23.1 37.0 L 15.4 37.8 L 15.0 36.1 L 22.2 33.3 L 28.9 30.7 L 35.2 28.3 L 41.1 26.0 L 46.6 23.8 L 51.6 21.6 L 56.2 19.4 L 60.3 17.3 L 63.9 15.2 L 66.22982454299927 13.743859672546387 L 66.2 13.7 L 66.2384614944458 13.7384614944458 L 67.1 13.2 L 68.89565219879151 16.395652198791502 L 75.0 22.5 L 75.1 25.9 L 71.41315517425537 24.374409008026124 L 69.0 25.4 L 64.7 27.1 L 60.0 28.8 L 54.8 30.3 L 51.5 31.2 L 51.5 72.0 L 57.018181800842285 72.0 L 65.2 63.0 L 74.9777777671814 71.8 L 88.4 71.8 L 88.4 29.7 L 100.4 35.7 L 124.0 35.7 L 124.0 11.6 L 136.0 13.6 L 139.0 15.6 L 136.0 17.4 L 136.0 35.7 L 159.5 35.7 L 165.5 30.7 L 176.5 39.7 L 171.5 43.7 L 171.5 71.8 L 173.37777776718139 71.8 L 179.6 64.8 L 187.6 71.8 L 187.6 75.8 L 135.05789470672607 75.8 L 138.3 80.0 L 142.7 85.2 L 147.1 89.9 L 151.6 94.2 L 156.4 97.9 L 161.3 101.2 L 166.5 104.1 L 171.8 106.5 L 177.5 108.5 L 183.3 110.1 L 191.4 112.3 L 179.8 122.8 L 173.1 120.2 L 166.8 117.2 L 160.9 113.6 L 155.4 109.6 L 150.3 105.0 L 145.7 100.0 L 141.5 94.5 L 137.8 88.5 L 134.7 82.1 L 132.83471164703369 76.65957565307617 L 132.8 76.8 L 129.2 85.2 L 124.5 92.8 L 118.5 99.6 L 111.4 105.7 L 103.2 111.1 L 93.9 115.7 L 83.4 119.4 L 71.9 122.4 L 71.4 120.7 L 72.94583330154418 120.0 L 51.5 120.0 L 51.5 172.0 L 51.4 174.5 L 51.0 177.0 L 50.2 179.4 L 48.9 181.7 L 47.3 183.7 L 45.3 185.3 L 43.0 186.6 L 40.6 187.4 L 38.1 187.8 L 35.5 188.0 L 35.5 182.0 L 21.5 179.0 Z M 72.3 177.3 L 87.8 177.3 L 87.8 119.9 L 99.8 125.9 L 160.1 125.9 L 166.1 120.9 L 177.1 129.9 L 172.1 133.9 L 172.1 177.3 L 177.1 177.3 L 181.6 171.3 L 187.6 177.3 L 187.6 181.3 L 72.3 181.3 Z M 99.8 129.9 L 99.8 177.3 L 111.9 177.3 L 111.9 129.9 Z M 123.9 129.9 L 123.9 177.3 L 136.0 177.3 L 136.0 129.9 Z M 148.0 129.9 L 148.0 177.3 L 160.1 177.3 L 160.1 129.9 Z M 75.2 76.0 L 51.5 76.0 L 51.5 116.0 L 56.0 116.0 L 66.0 106.0 L 78.0 116.0 L 78.0 117.71132078170777 L 82.0 115.9 L 91.4 110.9 L 99.6 105.5 L 106.5 99.9 L 112.3 93.9 L 116.8 87.5 L 120.2 80.9 L 121.85211267471314 75.8 L 75.2 75.8 Z M 134.03595504760742 71.8 L 159.5 71.8 L 159.5 39.7 L 136.0 39.7 L 136.0 58.4 L 135.0 67.9 Z M 100.4 39.7 L 100.4 71.8 L 122.81999998092651 71.8 L 123.7 66.3 L 124.0 58.4 L 124.0 39.7 Z " />
</g>
</svg>
