<svg xmlns="http://www.w3.org/2000/svg" xmlns:xlink="http://www.w3.org/1999/xlink" version="1.1" baseProfile="full" viewBox="0 0 200 200" width="200" height="200">
<g fill="black">
<path d="M 78.2 107.0 L 102.4 107.0 L 107.9 102.0 L 118.4 111.0 L 113.4 114.5 L 113.4 180.0 L 102.4 185.5 L 102.4 176.0 L 78.2 176.0 L 78.2 183.0 L 66.2 189.0 L 66.2 101.0 Z M 19.2 175.0 L 31.2 175.0 L 32.4 174.9 L 33.3 174.7 L 34.2 174.4 L 34.6 174.0 L 34.9 173.1 L 35.1 172.2 L 35.2 171.0 L 35.2 116.12857141494752 L 33.6 117.1 L 28.0 120.4 L 22.3 123.7 L 20.17594337463379 124.89245281219482 L 19.7 128.7 L 16.6 126.9 L 9.4 117.0 L 11.2 116.1 L 17.2 113.5 L 23.1 110.9 L 29.0 108.2 L 34.8 105.5 L 35.2 105.32372884750366 L 35.2 57.0 L 12.3 57.0 L 12.3 53.0 L 35.2 53.0 L 35.2 14.0 L 47.2 16.0 L 50.2 18.0 L 47.2 19.8 L 47.2 53.0 L 52.418181800842284 53.0 L 60.6 44.0 L 70.6 53.0 L 70.6 57.0 L 47.2 57.0 L 47.2 99.87966098785401 L 52.4 97.5 L 64.2 92.5 L 70.2 90.2 L 71.1 91.7 L 66.1 95.8 L 60.9 99.6 L 55.6 103.3 L 50.2 106.8 L 47.2 108.70909090042115 L 47.2 171.0 L 47.0 173.5 L 46.6 176.0 L 45.8 178.4 L 44.5 180.7 L 42.9 182.7 L 40.9 184.3 L 38.6 185.6 L 36.2 186.4 L 33.7 186.8 L 31.2 187.0 L 31.2 181.0 L 19.2 178.0 Z M 135.7 114.8 L 169.6 114.8 L 175.6 109.8 L 186.6 118.8 L 181.6 122.8 L 181.6 176.1 L 169.6 182.1 L 169.6 172.1 L 135.7 172.1 L 135.7 179.1 L 124.7 184.6 L 124.7 109.3 Z M 78.2 142.0 L 78.2 172.0 L 102.4 172.0 L 102.4 142.0 Z M 135.7 118.8 L 135.7 168.1 L 169.6 168.1 L 169.6 118.8 Z M 78.2 111.0 L 78.2 138.0 L 102.4 138.0 L 102.4 111.0 Z M 177.3 91.3 L 175.9 93.4 L 174.3 95.3 L 172.4 96.9 L 170.3 98.2 L 168.0 99.2 L 165.6 99.9 L 163.1 100.3 L 160.6 100.4 L 160.6 94.4 L 140.6 91.4 L 140.6 88.4 L 161.9 88.4 L 163.0 88.2 L 163.9 87.9 L 164.7 87.6 L 165.3 87.2 L 165.9 86.7 L 166.4 86.1 L 166.9 85.3 L 167.4 84.3 L 167.9 83.1 L 168.6 80.3 L 169.4 76.8 L 170.0 72.8 L 170.7 68.1 L 171.2 62.8 L 171.7 57.0 L 172.1 50.6 L 172.4 43.6 L 172.6 36.1 L 172.7481481552124 30.1 L 153.75258617401124 30.1 L 153.0 39.8 L 151.6 50.7 L 149.5 60.9 L 146.9 70.3 L 143.6 79.1 L 139.8 87.0 L 135.3 94.2 L 130.2 100.5 L 124.4 105.9 L 118.1 110.2 L 117.0 108.8 L 121.7 103.2 L 125.9 97.2 L 129.7 90.7 L 132.9 83.7 L 135.7 76.1 L 137.9 67.8 L 139.7 58.9 L 140.9 49.3 L 141.7 39.0 L 141.78165140151978 30.1 L 120.7 30.1 L 120.7 26.1 L 172.8 26.1 L 178.8 21.1 L 189.8 30.1 L 184.8 33.1 L 184.67926082611083 33.1503080368042 L 184.6 36.4 L 184.4 44.1 L 184.1 51.3 L 183.7 57.9 L 183.2 63.9 L 182.6 69.5 L 181.9 74.5 L 181.2 79.1 L 180.3 83.1 L 179.3 86.7 L 178.4 89.1 Z M 111.7 48.0 L 114.3 50.4 L 110.4979959487915 51.87855710983276 L 109.7 54.2 L 108.5 57.7 L 107.2 61.4 L 105.6 65.3 L 103.9 69.4 L 102.1 73.8 L 100.0 78.4 L 96.2 86.0 L 106.0777777671814 86.0 L 112.3 79.0 L 120.3 86.0 L 120.3 90.0 L 59.9 90.0 L 59.9 86.0 L 93.73999996185303 86.0 L 94.5 82.2 L 95.3 76.9 L 96.2 72.0 L 97.1 67.4 L 97.8 63.1 L 98.4 59.1 L 99.0 55.3 L 99.4 51.9 L 99.7 48.7 L 99.82773504257202 46.911709022521975 L 99.7 46.9 L 100.2 44.0 Z M 75.0 70.0 L 74.9 66.5 L 74.7 63.1 L 74.4 59.9 L 74.0 56.8 L 73.2 50.8 L 72.7 47.9 L 71.9 45.3 L 73.5 44.4 L 75.2 46.7 L 77.1 49.2 L 78.9 51.9 L 80.4 54.8 L 81.8 57.9 L 83.1 61.3 L 84.3 64.8 L 85.3 68.5 L 86.2 72.4 L 87.0 76.5 L 85.6 80.8 L 81.5 82.9 L 77.2 81.5 L 75.1 77.5 L 75.1 73.7 Z M 62.5 38.0 L 84.4 38.0 L 84.4 13.0 L 96.4 15.0 L 99.4 17.0 L 96.4 18.8 L 96.4 38.0 L 99.51818180084229 38.0 L 107.7 29.0 L 117.7 38.0 L 117.7 42.0 L 62.5 42.0 Z " />
</g>
</svg>
