<svg xmlns="http://www.w3.org/2000/svg" xmlns:xlink="http://www.w3.org/1999/xlink" version="1.1" baseProfile="full" viewBox="0 0 200 200" width="200" height="200">
<g fill="black">
<path d="M 188.9 135.3 L 188.9 139.3 L 145.6 139.3 L 145.4 139.7 L 142.9 144.2 L 139.9 148.4 L 136.5 152.3 L 134.54864864349366 154.2 L 168.7 154.2 L 174.7 149.2 L 185.7 158.2 L 180.7 162.2 L 180.7 181.4 L 168.7 187.4 L 168.7 179.4 L 131.3 179.4 L 131.3 182.4 L 119.3 188.4 L 119.3 165.18571424484253 L 119.1 165.3 L 113.7 167.8 L 108.0 169.9 L 101.9 171.6 L 101.2 169.9 L 106.3 166.5 L 111.1 163.1 L 115.5 159.7 L 119.3 156.48461542129516 L 119.3 155.4 L 120.45882349014282 155.4 L 123.0 153.0 L 126.1 149.5 L 128.7 145.9 L 131.0 142.3 L 132.5833333015442 139.3 L 102.0 139.3 L 102.0 135.3 L 170.71818180084227 135.3 L 178.9 126.3 Z M 99.9 135.3 L 99.9 139.3 L 56.6 139.3 L 56.4 139.7 L 53.9 144.2 L 50.9 148.4 L 47.5 152.3 L 45.54864864349365 154.2 L 79.7 154.2 L 85.7 149.2 L 96.7 158.2 L 91.7 162.2 L 91.7 181.4 L 79.7 187.4 L 79.7 179.4 L 42.3 179.4 L 42.3 182.4 L 30.3 188.4 L 30.3 165.18571424484253 L 30.1 165.3 L 24.7 167.8 L 19.0 169.9 L 12.9 171.6 L 12.2 169.9 L 17.3 166.5 L 22.1 163.1 L 26.5 159.7 L 30.3 156.48461542129516 L 30.3 155.4 L 31.458823490142823 155.4 L 34.0 153.0 L 37.1 149.5 L 39.7 145.9 L 42.0 142.3 L 43.58333330154419 139.3 L 13.0 139.3 L 13.0 135.3 L 81.71818180084229 135.3 L 89.9 126.3 Z M 131.3 158.2 L 131.3 175.4 L 168.7 175.4 L 168.7 158.2 Z M 42.3 158.2 L 42.3 175.4 L 79.7 175.4 L 79.7 158.2 Z M 175.8 83.6 L 175.8 87.6 L 97.7526315689087 87.6 L 96.0 89.4 L 91.9 93.5 L 87.0 97.3 L 81.6 100.7 L 81.21875 100.9 L 145.4 100.9 L 151.4 95.9 L 162.4 104.9 L 157.4 108.9 L 157.4 124.5 L 145.4 130.5 L 145.4 124.5 L 72.2 124.5 L 60.2 130.5 L 60.2 109.80625 L 53.5 111.9 L 44.8 114.0 L 35.5 115.8 L 25.5 117.2 L 25.1 115.4 L 34.5 112.1 L 43.3 108.9 L 51.3 105.7 L 58.7 102.4 L 65.2 99.1 L 71.1 95.7 L 76.1 92.3 L 80.4 88.8 L 81.5625 87.6 L 26.1 87.6 L 26.1 83.6 L 157.61818180084228 83.6 L 165.8 74.6 Z M 73.18965520858765 104.9 L 72.2 105.32835817337036 L 72.2 120.5 L 145.4 120.5 L 145.4 104.9 Z M 25.6 65.4 L 39.6 65.4 L 40.8 65.3 L 41.7 65.2 L 42.3 65.0 L 42.6 64.8 L 42.8 64.7 L 43.0 64.5 L 43.1 64.1 L 43.3 63.5 L 43.5 62.6 L 43.6 61.4 L 43.6 51.8307692527771 L 32.6 54.2 L 26.1 55.5 L 23.57002830505371 55.99832773208618 L 21.9 59.5 L 19.5 56.8 L 15.7 45.3 L 17.7 45.0 L 24.4 44.3 L 37.6 42.9 L 43.6 42.253846168518066 L 43.6 29.9 L 16.9 29.9 L 16.9 25.9 L 43.6 25.9 L 43.6 13.1 L 55.6 15.1 L 58.6 17.1 L 55.6 18.9 L 55.6 25.9 L 61.0 25.9 L 71.0 15.9 L 83.0 25.9 L 83.0 29.9 L 55.6 29.9 L 55.6 41.061538505554196 L 57.1 40.9 L 63.6 40.4 L 70.0 39.9 L 76.4 39.6 L 82.8 39.5 L 83.1 41.2 L 77.1 43.3 L 70.9 45.2 L 64.7 46.9 L 58.4 48.4 L 55.6 49.05625 L 55.6 61.4 L 55.4 64.0 L 55.0 66.5 L 54.2 68.9 L 52.9 71.1 L 51.3 73.1 L 49.3 74.8 L 47.0 76.0 L 44.6 76.8 L 42.1 77.3 L 39.6 77.4 L 39.6 71.4 L 25.6 68.4 Z M 102.2 73.4 L 99.9 73.2 L 97.6 72.7 L 95.5 71.7 L 93.5 70.4 L 91.8 68.6 L 90.5 66.6 L 89.5 64.3 L 88.9 61.9 L 88.6 59.3 L 88.6 12.3 L 100.6 18.3 L 165.8 18.3 L 171.8 13.3 L 182.8 22.3 L 177.8 26.3 L 177.8 44.3 L 165.8 50.3 L 165.8 42.3 L 100.6 42.3 L 100.6 59.3 L 100.4 60.6 L 100.4 62.3 L 100.6 63.3 L 100.8 63.7 L 101.3 64.2 L 102.0 64.7 L 103.1 65.1 L 104.6 65.3 L 176.8 65.3 L 180.8 56.3 L 182.8 56.3 L 180.8 65.3 L 183.2 66.9 L 184.8 69.3 L 183.2 71.7 L 180.8 73.3 L 104.6 73.3 Z M 100.6 22.3 L 100.6 38.3 L 127.8 38.3 L 127.8 22.3 Z M 139.8 22.3 L 139.8 38.3 L 165.8 38.3 L 165.8 22.3 Z " />
</g>
</svg>
