<svg xmlns="http://www.w3.org/2000/svg" xmlns:xlink="http://www.w3.org/1999/xlink" version="1.1" baseProfile="full" viewBox="0 0 200 200" width="200" height="200">
<g fill="black">
<path d="M 68.1 184.2 L 68.4 179.6 L 71.8 176.6 L 73.6 176.3 L 75.3 175.9 L 76.8 175.4 L 78.3 174.7 L 79.7 173.8 L 81.1 172.7 L 82.4 171.2 L 83.6 169.5 L 84.7 167.4 L 85.2 165.0 L 87.0 165.1 L 86.9 167.8 L 87.2 170.4 L 87.0 173.0 L 86.5 175.6 L 85.6 178.0 L 84.3 180.4 L 82.7 182.6 L 80.6 184.6 L 78.3 186.4 L 75.7 187.9 L 71.1 187.6 Z M 176.2 180.7 L 175.6 179.2 L 174.6 177.6 L 173.3 175.9 L 171.7 174.0 L 169.7 172.0 L 167.5 169.9 L 165.0 167.7 L 162.0 165.8 L 162.8 164.2 L 166.2 165.6 L 169.5 166.5 L 172.5 167.6 L 175.3 168.8 L 177.9 170.1 L 180.2 171.4 L 182.4 172.8 L 184.3 174.4 L 186.1 176.1 L 187.6 178.1 L 187.6 182.6 L 184.5 186.0 L 179.9 186.0 L 176.6 182.9 L 176.6 181.9 Z M 141.9 178.9 L 141.8 177.9 L 141.5 176.6 L 140.8 175.1 L 139.8 173.5 L 138.6 171.7 L 137.1 169.9 L 135.3 167.8 L 133.0 166.3 L 133.8 164.7 L 136.4 166.0 L 139.1 166.8 L 141.5 167.8 L 143.8 168.9 L 145.9 170.0 L 147.7 171.3 L 149.4 172.7 L 151.0 174.4 L 152.3 176.3 L 153.2 178.4 L 152.1 182.9 L 148.2 185.3 L 143.8 184.1 L 141.4 180.2 L 141.7 179.7 Z M 113.2 185.3 L 109.3 182.9 L 108.2 178.4 L 108.7 178.0 L 109.1 177.5 L 109.4 176.7 L 109.6 175.7 L 109.5 174.4 L 109.2 173.0 L 108.7 171.4 L 107.9 169.7 L 106.9 167.8 L 105.2 166.3 L 106.3 164.9 L 108.2 166.2 L 110.3 167.2 L 112.2 168.2 L 114.0 169.4 L 115.5 170.8 L 116.9 172.3 L 118.1 174.0 L 119.1 175.9 L 119.8 178.0 L 120.1 180.2 L 117.6 184.1 Z M 83.0 163.9 L 83.0 120.83442621231079 L 78.5 122.9 L 71.8 125.5 L 64.7 127.9 L 63.9 126.3 L 70.1 122.1 L 75.9 118.2 L 81.3 114.4 L 86.3 110.8 L 90.8 107.2 L 94.8 103.8 L 98.4 100.4 L 101.5 97.1 L 104.2 94.0 L 105.72757682800292 91.81774740219116 L 105.7 91.8 L 106.7 90.4 L 115.8 98.3 L 116.9 101.7 L 113.03861570358276 101.23397083282471 L 112.6 101.7 L 111.44375 102.7 L 145.08888893127443 102.7 L 145.8 101.9 L 147.2 100.1 L 147.6281615257263 100.59319868087769 L 151.1 97.7 L 162.1 106.7 L 157.1 109.7 L 145.1 114.7 L 143.1 115.7 L 140.3 116.9 L 137.4 118.2 L 134.3 119.4 L 134.0333333015442 119.5 L 159.9 119.5 L 165.9 114.5 L 176.9 123.5 L 171.9 127.5 L 171.9 157.9 L 159.9 163.9 L 159.9 157.9 L 95.0 157.9 Z M 95.0 140.4 L 95.0 153.9 L 121.5 153.9 L 121.5 140.4 Z M 133.5 140.4 L 133.5 153.9 L 159.9 153.9 L 159.9 140.4 Z M 95.0 123.5 L 95.0 136.4 L 121.5 136.4 L 121.5 123.5 Z M 133.5 123.5 L 133.5 136.4 L 159.9 136.4 L 159.9 123.5 Z M 106.65 106.7 L 104.9 108.1 L 100.5 111.1 L 95.6 114.2 L 90.34690265655517 117.1734513282776 L 95.0 119.5 L 128.28571424484252 119.5 L 129.7 118.4 L 134.4 113.7 L 136.6 111.6 L 140.7 107.5 L 141.41999998092652 106.7 Z M 170.7 94.4 L 165.3 89.8 L 160.5 84.6 L 157.42095031738282 80.75118789672851 L 156.0 82.2 L 150.6 86.7 L 144.8 90.3 L 138.6 93.0 L 132.1 94.9 L 131.5 93.2 L 136.8 89.7 L 141.8 85.8 L 146.3 81.6 L 150.5 77.0 L 152.84447765350342 73.87402982711792 L 152.3 73.0 L 149.0 66.5 L 146.3 59.6 L 144.2 52.2 L 143.3670000076294 47.49949998855591 L 141.1 50.9 L 138.0 54.7 L 134.7 58.2 L 131.0 61.3 L 129.7 60.1 L 131.6 56.0 L 133.6 51.8 L 135.4 47.6 L 137.2 43.3 L 138.8 38.9 L 140.2 34.3 L 141.5 29.6 L 142.7 24.7 L 143.7 19.7 L 144.4295973777771 15.403482055664062 L 144.4 15.4 L 144.9 12.6 L 156.3 16.8 L 158.9 19.4 L 155.26744184494018 20.654883766174315 L 154.8 22.4 L 153.0 27.7 L 151.0 32.8 L 149.11428575515748 37.2 L 171.61818180084228 37.2 L 179.8 28.2 L 189.8 37.2 L 189.8 41.2 L 180.1604651451111 41.2 L 177.3 49.4 L 173.8 57.3 L 170.0 64.5 L 165.7 71.1 L 163.77612590789795 73.56757764816284 L 167.8 77.5 L 172.5 81.3 L 177.4 84.7 L 182.6 87.6 L 188.2 90.0 L 194.1 92.7 L 182.7 102.0 L 176.5 98.4 Z M 49.4 57.0 L 49.4 100.01999998092651 L 55.0 97.5 L 61.0 94.9 L 67.1 92.5 L 69.8 91.49838705062866 L 69.8 57.0 Z M 105.6 84.6 L 114.6 84.6 L 115.3 84.4 L 115.7 84.3 L 116.0 84.0 L 116.2 83.7 L 116.4 83.3 L 116.7 82.5 L 116.8 81.5 L 116.9 80.1 L 116.9 78.64871797561645 L 114.1 80.3 L 109.7 79.1 L 107.3 75.2 L 107.4 72.9 L 107.4 70.6 L 107.3 68.2 L 107.1 66.0 L 106.5 61.4 L 106.1 59.1 L 105.6 56.7 L 105.1 54.4 L 104.2 52.41999998092651 L 104.2 90.6 L 94.2 95.6 L 94.2 59.439622688293454 L 93.81378393173217 59.61451292037964 L 93.0 62.3 L 91.9 65.6 L 90.7 68.7 L 89.4 71.8 L 88.0 74.8 L 86.4 77.6 L 84.7 80.4 L 82.8 83.0 L 81.1 85.6 L 80.8 85.45 L 80.8 95.2 L 69.8 100.7 L 69.8 95.1692307472229 L 69.0 95.8 L 63.6 99.6 L 58.1 103.3 L 52.6 106.9 L 49.4 108.86491231918335 L 49.4 171.0 L 49.2 173.5 L 48.8 176.0 L 48.0 178.4 L 46.7 180.7 L 45.1 182.7 L 43.1 184.3 L 40.8 185.6 L 38.4 186.4 L 35.9 186.8 L 33.4 187.0 L 33.4 181.0 L 19.4 178.0 L 19.4 175.0 L 33.4 175.0 L 34.6 174.9 L 35.5 174.7 L 36.4 174.4 L 36.8 174.0 L 37.1 173.1 L 37.3 172.2 L 37.4 171.0 L 37.4 116.0 L 35.5 117.1 L 29.7 120.4 L 23.8 123.7 L 21.530886554718016 124.93070564270019 L 21.0 128.7 L 17.9 126.9 L 10.9 117.0 L 12.7 116.1 L 18.8 113.5 L 24.9 110.8 L 30.9 108.2 L 37.0 105.5 L 37.4 105.31999998092651 L 37.4 57.0 L 13.7 57.0 L 13.7 53.0 L 37.4 53.0 L 37.4 14.0 L 49.4 16.0 L 52.4 18.0 L 49.4 19.8 L 49.4 53.0 L 51.7 53.0 L 61.7 43.0 L 66.1506329536438 46.70886077880859 L 68.1 43.2 L 69.8 40.44761905670166 L 69.8 35.6 L 71.94712648391723 36.673563194274905 L 72.1 36.4 L 73.9 33.1 L 75.6 29.9 L 77.2 26.8 L 78.6 23.7 L 79.9 20.7 L 80.66076641082763 18.62518243789673 L 80.6 18.6 L 80.8307692527771 18.161538505554198 L 81.0 17.7 L 81.057994556427 17.729810333251955 L 81.6 16.7 L 91.7 23.2 L 93.2 25.78333330154419 L 93.2 12.7 L 105.2 14.7 L 108.2 16.7 L 105.2 18.5 L 105.2 41.1 L 116.9 41.1 L 122.4 36.1 L 124.1456789970398 37.596296310424805 L 123.1 35.6 L 121.8 33.4 L 120.4 31.3 L 118.8 29.2 L 117.1 27.1 L 115.2 25.0 L 110.9 20.7 L 108.4 18.8 L 109.2 17.2 L 112.2 18.5 L 115.3 19.4 L 118.2 20.6 L 121.1 22.0 L 123.8 23.5 L 126.3 25.2 L 128.8 27.0 L 131.1 29.0 L 133.2 31.1 L 135.3 33.4 L 136.0 37.9 L 133.4 41.7 L 129.6194356918335 42.2880877494812 L 132.9 45.1 L 127.9 48.6 L 127.9 80.1 L 127.8 82.5 L 127.4 84.9 L 126.7 87.1 L 125.7 89.3 L 124.3 91.2 L 122.6 92.9 L 120.5 94.1 L 118.3 95.0 L 116.0 95.5 L 113.6 95.6 L 113.6 90.1 L 105.6 87.4 Z M 80.8 78.8 L 81.2 75.8 L 81.7 72.8 L 82.0 69.7 L 82.4 66.7 L 82.6 63.6 L 82.8 60.4 L 82.9 57.3 L 82.9 55.10413227081299 L 82.8 55.1 L 82.9 54.325 L 82.9 54.1 L 82.92857141494751 54.10357141494751 L 83.2 52.0 L 94.2 55.384615421295166 L 94.2 45.1 L 80.8 45.1 Z M 104.2 52.13333330154419 L 105.6 51.2 L 107.1 53.1 L 109.0 54.9 L 110.7 56.8 L 112.3 58.9 L 113.7 61.1 L 115.0 63.4 L 116.3 65.8 L 116.9 67.16363639831543 L 116.9 45.1 L 104.2 45.1 Z M 147.07391300201417 41.2 L 146.5 42.3 L 145.02220249176025 44.80088806152344 L 148.1 50.7 L 151.7 57.1 L 155.4 63.0 L 157.78001461029052 66.29540481567383 L 157.9 66.1 L 161.1 59.9 L 164.0 53.0 L 166.6 45.6 L 167.76875 41.2 Z M 68.48504676818848 48.65420560836792 L 69.8 49.75 L 69.8 47.61818180084229 Z M 89.44842615127564 26.579418849945068 L 87.6 29.1 L 85.3 32.0 L 82.9 34.9 L 80.3 37.8 L 78.3156626701355 39.85783128738403 L 80.8 41.1 L 93.2 41.1 L 93.2 26.32068967819214 Z " />
</g>
</svg>
