<svg xmlns="http://www.w3.org/2000/svg" xmlns:xlink="http://www.w3.org/1999/xlink" version="1.1" baseProfile="full" viewBox="0 0 200 200" width="200" height="200">
<g fill="black">
<path d="M 22.8 183.1 L 23.6 178.6 L 27.3 175.9 L 30.1 175.6 L 32.6 175.2 L 34.8 174.8 L 36.7 174.2 L 38.5 173.5 L 40.0 172.7 L 41.5 171.6 L 42.8 170.4 L 44.1 168.8 L 44.6 166.8 L 46.4 167.0 L 46.3 169.3 L 46.3 171.8 L 45.8 174.2 L 44.8 176.7 L 43.3 178.9 L 41.3 181.1 L 39.0 183.0 L 36.3 184.7 L 33.3 186.3 L 30.0 187.6 L 25.5 186.8 Z M 164.9 181.4 L 163.9 180.0 L 162.4 178.5 L 160.4 176.9 L 158.0 175.1 L 155.2 173.3 L 152.1 171.3 L 148.6 169.2 L 144.5 167.5 L 145.1 165.8 L 149.4 166.8 L 153.5 167.5 L 157.3 168.3 L 160.7 169.2 L 163.9 170.2 L 166.7 171.2 L 169.2 172.3 L 171.6 173.5 L 173.7 174.9 L 175.6 176.6 L 176.4 181.1 L 173.9 184.9 L 169.4 185.7 L 165.6 183.2 L 165.5 182.5 Z M 110.7 167.3 L 113.9 167.8 L 116.9 168.5 L 119.6 169.3 L 122.0 170.1 L 124.2 171.0 L 126.3 172.1 L 128.1 173.4 L 129.8 175.1 L 131.1 177.4 L 130.3 181.9 L 126.6 184.6 L 122.1 183.7 L 119.4 180.1 L 119.99491529464721 179.9627119064331 L 120.1 179.7 L 119.9 178.8 L 119.2 177.6 L 118.1 176.2 L 116.6 174.6 L 114.7 173.0 L 112.4 171.2 L 109.8 169.3 L 106.7 167.9 L 107.3 166.2 Z M 119.4 180.1 L 119.9 180.2 L 119.99491529464721 179.9627119064331 Z M 80.8 184.6 L 77.1 181.9 L 76.3 177.4 L 77.4375 177.6625 L 77.6 177.5 L 77.7 176.7 L 77.5 175.6 L 76.8 174.2 L 75.8 172.7 L 74.5 171.1 L 72.9 169.3 L 70.6 167.9 L 71.5 166.3 L 73.9 167.5 L 76.4 168.1 L 78.6 168.9 L 80.7 169.7 L 82.5 170.7 L 84.2 171.9 L 85.7 173.4 L 87.0 175.2 L 87.8 177.5 L 88.0 180.1 L 85.3 183.7 Z M 76.7 177.8 L 77.2 177.9 L 77.4375 177.6625 L 76.3 177.4 Z M 171.0 70.0 L 166.0 74.0 L 166.0 107.9 L 170.0 107.9 L 176.0 102.9 L 187.0 111.9 L 182.0 114.9 L 177.80431652069092 116.64820146560669 L 177.0 117.7 L 175.5 119.5 L 173.8 121.6 L 172.0 123.8 L 170.0 126.2 L 167.7 128.8 L 165.7 131.8 L 164.2 130.9 L 165.6 127.6 L 166.475 124.8 L 149.12222223281861 124.8 L 160.0 133.7 L 155.0 137.7 L 155.0 160.4 L 143.0 166.4 L 143.0 160.4 L 59.0 160.4 L 47.0 166.4 L 47.0 124.8 L 34.6 124.8 L 34.6 120.8 L 156.9 120.8 L 161.4 114.8 L 167.4 120.8 L 167.4 121.73333330154419 L 167.5 121.4 L 168.2 118.6 L 168.9 116.2 L 169.5 113.9 L 169.9 112.0 L 169.91764707565306 111.9 L 33.0456521987915 111.9 L 33.1 114.4 L 32.8 118.7 L 32.1 122.8 L 30.9 126.6 L 29.3 130.2 L 27.2 133.4 L 24.6 136.4 L 21.5 138.8 L 16.9 139.3 L 13.3 136.5 L 12.9 132.0 L 15.7 128.3 L 17.6 127.5 L 19.5 126.3 L 21.3 124.7 L 23.1 122.6 L 24.7 120.1 L 26.1 117.0 L 27.4 113.5 L 28.6 109.4 L 29.6 104.8 L 30.1 99.8 L 31.9 99.8 L 32.5 104.9 L 32.8061224937439 107.9 L 37.0 107.9 L 37.0 66.0 L 46.675 67.6125 L 47.3 67.3 L 49.4 66.2 L 53.4 64.2 L 55.3 63.3 L 57.2 62.3 L 58.9 61.4 L 60.6 60.4 L 61.37460870742798 59.989913082122804 L 61.3 59.8 L 61.46797180175781 59.94048547744751 L 62.3 59.5 L 62.746334838867185 61.00966186523438 L 70.0 67.07636365890502 L 70.0 57.0 L 80.0 62.0 L 80.0 63.0 L 122.0 63.0 L 122.0 62.0 L 126.80310554504395 57.19689445495605 L 115.9 55.0 L 103.5 51.8 L 99.67629833221436 50.61566762924194 L 88.8 53.4 L 75.3 56.0 L 60.9 58.2 L 45.5 59.9 L 29.2 60.9 L 12.0 61.3 L 11.9 59.5 L 28.9 57.1 L 44.8 54.5 L 59.8 51.7 L 73.7 48.6 L 85.32428913116455 45.53623390197754 L 82.0 44.2 L 72.8 39.7 L 64.9 34.7 L 58.91785717010498 29.7 L 19.0 29.7 L 19.0 25.7 L 94.0 25.7 L 94.0 12.9 L 106.0 14.9 L 109.0 16.9 L 106.0 18.7 L 106.0 25.7 L 159.0 25.7 L 169.0 15.7 L 181.0 25.7 L 181.0 29.7 L 147.4 29.7 L 142.3 32.7 L 133.4 37.8 L 123.6 42.5 L 117.34090223312378 44.89834585189819 L 117.9 45.0 L 131.0 46.8 L 145.1 48.4 L 160.2 49.5 L 176.3 50.4 L 187.5 51.0 L 175.6 63.5 L 161.4875 62.21704549789429 Z M 59.0 152.4 L 59.0 156.4 L 143.0 156.4 L 143.0 152.4 Z M 121.4 146.0 L 119.2 145.8 L 117.0 145.4 L 114.9 144.5 L 112.9 143.2 L 111.2 141.5 L 109.8 139.5 L 108.8 137.3 L 108.1 134.9 L 107.95600004196167 133.7 L 90.13888893127441 133.7 L 89.2 136.3 L 87.0 139.4 L 84.2 141.7 L 80.9 143.5 L 77.2 144.8 L 73.1 145.8 L 68.5 146.3 L 63.4 146.5 L 59.0 146.73571424484254 L 59.0 148.4 L 143.0 148.4 L 143.0 145.9 L 123.8 145.9 Z M 59.0 144.73018865585328 L 63.0 143.9 L 67.6 142.2 L 71.5 140.5 L 74.6 138.7 L 77.0 137.0 L 78.5 135.3 L 79.3 133.7 L 59.0 133.7 Z M 49.2 124.8 L 59.0 129.7 L 79.13333330154418 129.7 L 79.0 129.5 L 79.0 124.8 Z M 107.8 129.7 L 107.8 124.8 L 91.0 124.8 L 91.0 129.5 L 90.86666669845582 129.7 Z M 119.8 124.8 L 119.8 129.7 L 143.0 129.7 L 148.8800000190735 124.8 Z M 65.7 71.0 L 63.7 71.1 L 61.6 71.2 L 59.4 71.3 L 52.7 71.3 L 50.4 71.1 L 50.18181819915772 71.09090909957885 L 49.0 71.8 L 49.0 80.0 L 52.7777777671814 80.0 L 59.0 73.0 L 67.0 80.0 L 67.0 84.0 L 49.0 84.0 L 49.0 93.0 L 53.7777777671814 93.0 L 60.0 86.0 L 68.0 93.0 L 68.0 97.0 L 49.0 97.0 L 49.0 107.9 L 70.0 107.9 L 70.0 70.91142854690551 L 68.40239181518555 70.18109340667725 Z M 111.14285717010497 67.0 L 118.0 73.0 L 118.0 77.0 L 112.11111106872559 77.0 L 119.5 84.0 L 114.5 86.5 L 114.5 98.0 L 105.5 102.5 L 105.5 98.0 L 96.5 98.0 L 87.5 102.5 L 87.5 77.0 L 84.0 77.0 L 84.0 73.0 L 103.77777776718139 73.0 L 109.11111106872559 67.0 L 80.0 67.0 L 80.0 107.9 L 122.0 107.9 L 122.0 67.0 Z M 132.0 69.0 L 132.0 107.9 L 154.0 107.9 L 154.0 97.0 L 134.0 97.0 L 134.0 93.0 L 154.0 93.0 L 154.0 84.0 L 134.0 84.0 L 134.0 80.0 L 154.0 80.0 L 154.0 70.0 L 134.0 70.0 L 134.0 67.8 Z M 96.5 84.0 L 96.5 94.0 L 105.5 94.0 L 105.5 84.0 Z M 90.5 77.0 L 96.5 80.0 L 105.5 80.0 L 108.2 77.0 Z M 137.0 66.0 L 154.0 66.0 L 158.8386878013611 61.967760181427 L 143.7 60.1 L 129.3 57.7 L 127.33867521286011 57.30480766296387 Z M 66.9 31.1 L 75.3 34.4 L 84.5 37.5 L 94.7 40.3 L 98.89987812042236 41.24591846466065 L 109.4 37.2 L 119.1 32.7 L 124.6 29.7 L 63.86000003814697 29.7 Z M 143.0 133.7 L 119.58999996185302 133.7 L 119.5 134.6 L 119.5 136.0 L 119.6 136.5 L 119.8 137.0 L 120.3 137.6 L 121.1 138.1 L 122.3 138.5 L 123.8 138.9 L 143.0 138.9 Z " />
</g>
</svg>
