<svg xmlns="http://www.w3.org/2000/svg" xmlns:xlink="http://www.w3.org/1999/xlink" version="1.1" baseProfile="full" viewBox="0 0 200 200" width="200" height="200">
<g fill="black">
<path d="M 126.6 181.4 L 105.1 176.5 L 86.3 168.6 L 70.1 157.6 L 56.7 143.2 L 54.08796291351318 138.8547420501709 L 48.5 150.2 L 41.0 162.1 L 32.7 172.6 L 23.5 181.4 L 13.5 188.7 L 12.4 187.2 L 20.8 178.7 L 28.5 169.2 L 35.5 158.5 L 41.7 146.7 L 47.3 133.6 L 48.594589138031004 129.71623249053954 L 46.0 125.4 L 37.9 104.1 L 32.3 79.1 L 29.306529235839843 51.0 L 13.0 51.0 L 13.0 47.0 L 45.0 47.0 L 45.0 14.0 L 57.0 16.0 L 60.0 18.0 L 57.0 19.8 L 57.0 47.0 L 69.0 47.0 L 79.0 37.0 L 91.0 47.0 L 91.0 51.0 L 75.71343278884888 51.0 L 73.4 69.6 L 70.1 88.5 L 65.9 105.9 L 60.9 122.1 L 57.77676305770874 130.01579008102416 L 63.2 138.0 L 76.0 150.3 L 91.0 159.5 L 108.3 165.9 L 128.2 169.7 L 150.9 171.1 L 176.6 170.4 L 187.8 169.8 L 177.3 183.5 L 150.6 183.6 Z M 113.0 93.0 L 157.0 93.0 L 163.0 88.0 L 174.0 97.0 L 169.0 101.0 L 169.0 147.5 L 157.0 153.5 L 157.0 141.5 L 113.0 141.5 L 113.0 153.5 L 101.0 159.5 L 101.0 87.0 Z M 113.0 119.3 L 113.0 137.5 L 157.0 137.5 L 157.0 119.3 Z M 36.4 78.3 L 43.5 102.3 L 51.6726881980896 120.48193550109863 L 52.1 119.2 L 56.2 103.5 L 59.5 86.5 L 62.1 68.1 L 63.71151828765869 51.0 L 31.227368450164796 51.0 Z M 113.0 97.0 L 113.0 115.3 L 157.0 115.3 L 157.0 97.0 Z M 147.0 69.9 L 157.0 69.9 L 158.2 69.8 L 159.1 69.7 L 159.7 69.5 L 160.0 69.3 L 160.2 69.2 L 160.4 69.0 L 160.5 68.6 L 160.7 68.1 L 160.9 67.1 L 161.0 65.9 L 161.0 39.8 L 141.0 39.8 L 141.0 84.0 L 129.0 90.0 L 129.0 39.8 L 109.5 39.8 L 109.5 74.5 L 97.5 80.5 L 97.5 29.8 L 109.5 35.8 L 129.0 35.8 L 129.0 16.9 L 141.0 18.9 L 144.0 20.9 L 141.0 22.7 L 141.0 35.8 L 161.0 35.8 L 167.0 30.8 L 178.0 39.8 L 173.0 43.8 L 173.0 65.9 L 172.8 68.5 L 172.4 71.0 L 171.6 73.4 L 170.3 75.6 L 168.7 77.7 L 166.7 79.3 L 164.4 80.5 L 162.0 81.3 L 159.5 81.8 L 157.0 81.9 L 157.0 75.9 L 147.0 72.9 Z " />
</g>
</svg>
