<svg xmlns="http://www.w3.org/2000/svg" xmlns:xlink="http://www.w3.org/1999/xlink" version="1.1" baseProfile="full" viewBox="0 0 200 200" width="200" height="200">
<g fill="black">
<path d="M 29.5 35.0 L 58.8 35.0 L 58.8 12.0 L 70.8 14.0 L 73.8 16.0 L 70.8 17.8 L 70.8 35.0 L 89.9 35.0 L 99.9 25.0 L 111.9 35.0 L 111.9 39.0 L 29.5 39.0 L 29.5 102.0 L 29.1 113.6 L 28.4 124.6 L 27.4 134.9 L 26.0 144.7 L 24.4 153.8 L 22.4 162.3 L 20.1 170.1 L 17.4 177.2 L 14.3 183.6 L 10.8 189.3 L 9.5 188.6 L 11.4 182.4 L 13.2 175.8 L 14.8 168.6 L 16.2 160.9 L 17.4 152.6 L 18.4 143.7 L 19.0 134.2 L 19.5 124.1 L 19.6 113.3 L 19.5 102.0 L 19.5 30.0 Z M 160.0 15.0 L 163.0 17.0 L 160.0 18.8 L 160.0 125.68965520858765 L 165.949915599823 124.45863819122314 L 173.8 112.6 L 187.5 120.0 L 188.4 123.9 L 160.0 129.7758620262146 L 160.0 183.0 L 148.0 189.0 L 148.0 132.25862064361573 L 101.4 141.9 L 100.5 138.0 L 148.0 128.17241382598877 L 148.0 13.0 Z M 92.6 180.7 L 88.4 176.7 L 84.6 172.2 L 81.2 167.1 L 78.2 161.4 L 75.6 155.2 L 73.4 148.4 L 71.99235401153564 142.2725996017456 L 68.9 150.8 L 64.9 159.0 L 60.0 166.4 L 54.2 172.8 L 47.7 178.3 L 40.4 182.7 L 32.4 186.0 L 31.6 184.4 L 38.4 179.5 L 44.2 174.2 L 49.4 168.4 L 53.7 162.1 L 57.3 155.1 L 60.2 147.5 L 62.4 139.2 L 63.3 133.8 L 47.3 133.8 L 47.3 145.8 L 37.3 150.8 L 37.3 60.8 L 45.54905662536621 64.92452831268311 L 46.5 64.2 L 48.4 62.6 L 50.2 61.2 L 51.9 59.8 L 54.7 57.2 L 55.8 56.0 L 56.8 54.9 L 56.94130144119263 54.677954864501956 L 56.7 54.4 L 57.5 53.8 L 64.6 63.5 L 64.7 67.1 L 59.98264904022217 65.05284767150879 L 59.2 65.3 L 55.0 66.3 L 52.8 66.8 L 50.4 67.2 L 47.9 67.6 L 47.3 67.6444444656372 L 47.3 96.6 L 52.3 96.6 L 56.8 90.6 L 62.8 96.6 L 62.8 100.6 L 47.3 100.6 L 47.3 129.8 L 63.9326530456543 129.8 L 64.7 120.4 L 64.8 109.9 L 64.8 43.3 L 76.8 45.3 L 79.8 47.3 L 76.8 49.1 L 76.8 109.9 L 76.1 121.3 L 74.81698112487793 129.8 L 93.3 129.8 L 93.3 100.6 L 78.4 100.6 L 78.4 96.6 L 93.3 96.6 L 93.3 67.4 L 78.4 67.4 L 78.4 63.4 L 93.3 63.4 L 99.3 58.4 L 110.3 67.4 L 105.3 71.4 L 105.3 133.8 L 93.3 139.8 L 93.3 133.8 L 74.05408163070679 133.8 L 73.69570550918579 135.32699384689332 L 75.7 139.7 L 78.9 146.2 L 82.1 152.1 L 85.4 157.3 L 88.8 161.7 L 92.3 165.5 L 95.9 168.6 L 99.5 171.1 L 103.1 172.9 L 106.9 174.2 L 114.0 176.7 L 102.4 186.6 L 97.3 184.0 Z M 120.9 103.0 L 119.5 100.3 L 118.0 97.7 L 116.4 95.0 L 114.6 92.3 L 112.7 89.6 L 110.7 86.8 L 108.6 83.9 L 106.2 81.3 L 107.3 79.9 L 110.4 81.8 L 113.6 83.6 L 116.6 85.6 L 119.5 87.7 L 122.2 89.9 L 124.8 92.2 L 127.2 94.6 L 129.5 97.1 L 131.7 99.7 L 133.7 102.4 L 134.2 106.9 L 131.4 110.6 L 126.9 111.1 L 123.2 108.3 L 122.1 105.6 Z M 126.9 59.0 L 125.5 56.3 L 124.0 53.7 L 122.4 51.0 L 120.6 48.3 L 118.7 45.6 L 116.7 42.8 L 114.6 39.9 L 112.2 37.3 L 113.3 35.9 L 116.4 37.8 L 119.6 39.6 L 122.6 41.6 L 125.5 43.7 L 128.2 45.9 L 130.8 48.2 L 133.2 50.6 L 135.5 53.1 L 137.7 55.7 L 139.7 58.4 L 140.2 62.9 L 137.4 66.6 L 132.9 67.1 L 129.2 64.3 L 128.1 61.6 Z " />
</g>
</svg>
