<svg xmlns="http://www.w3.org/2000/svg" xmlns:xlink="http://www.w3.org/1999/xlink" version="1.1" baseProfile="full" viewBox="0 0 200 200" width="200" height="200">
<g fill="black">
<path d="M 176.1 106.2 L 178.1 109.2 L 174.38203954696655 109.72181901931762 L 170.1 118.5 L 163.1 130.0 L 155.3 140.6 L 146.5 150.3 L 136.9 159.1 L 126.5 167.0 L 115.2 174.0 L 103.0 179.9 L 90.0 184.9 L 76.2 188.8 L 75.7 187.1 L 88.6 181.4 L 100.6 175.1 L 111.7 168.3 L 122.0 160.9 L 131.3 152.8 L 139.7 144.0 L 147.3 134.4 L 154.1 124.2 L 160.0 113.3 L 164.61352500915527 102.50435152053834 L 164.6 102.5 L 164.85714282989503 101.93428573608398 L 165.0 101.6 L 165.00764989852905 101.6031702041626 L 165.6 100.3 Z M 68.8 177.1 L 67.4 179.1 L 65.7 180.9 L 63.7 182.5 L 61.6 183.8 L 59.3 184.8 L 57.0 185.4 L 54.5 185.8 L 52.0 186.0 L 52.0 180.0 L 36.0 177.0 L 36.0 174.0 L 52.0 174.0 L 53.3 173.9 L 54.4 173.7 L 55.4 173.4 L 56.2 173.1 L 56.8 172.7 L 57.5 172.2 L 58.0 171.6 L 58.6 170.8 L 59.2 169.7 L 59.7 168.5 L 60.7 164.9 L 61.8 160.1 L 62.7 154.3 L 63.4 147.5 L 64.1 139.7 L 64.5 130.9 L 64.9 121.1 L 65.0 110.4 L 65.1 98.7 L 65.07848262786865 95.96729888916016 L 65.0 96.0 L 65.0 88.0 L 47.654676246643064 88.0 L 47.4 93.9 L 46.2 107.1 L 44.5 119.7 L 42.2 131.5 L 39.3 142.7 L 35.8 153.2 L 31.8 163.0 L 27.1 172.0 L 21.7 180.2 L 15.7 187.5 L 14.2 186.4 L 18.5 178.2 L 22.3 169.6 L 25.7 160.6 L 28.6 150.9 L 31.1 140.7 L 33.1 129.8 L 34.5 118.3 L 35.5 106.2 L 36.0 93.4 L 36.0 53.0 L 48.0 55.0 L 51.0 57.0 L 48.0 58.8 L 48.0 80.0 L 47.82733812332153 84.0 L 65.0 84.0 L 71.0 79.0 L 82.0 88.0 L 77.0 91.0 L 76.9798189163208 91.00840883255005 L 77.1 98.7 L 77.0 110.5 L 76.9 121.4 L 76.5 131.4 L 76.0 140.5 L 75.4 148.6 L 74.6 155.9 L 73.6 162.3 L 72.4 167.8 L 71.0 172.6 L 70.0 174.9 Z M 108.0 119.0 L 128.0 119.0 L 129.2 118.9 L 130.1 118.7 L 131.0 118.4 L 131.4 118.0 L 131.7 117.1 L 131.9 116.2 L 132.0 115.0 L 132.0 14.0 L 144.0 16.0 L 147.0 18.0 L 144.0 19.8 L 144.0 115.0 L 143.8 117.5 L 143.4 120.0 L 142.6 122.4 L 141.3 124.7 L 139.7 126.7 L 137.7 128.3 L 135.4 129.6 L 133.0 130.4 L 130.5 130.8 L 128.0 131.0 L 128.0 125.0 L 108.0 122.0 Z M 119.7 57.1 L 122.2 59.6 L 118.64278602600098 60.893532371521 L 118.0 63.2 L 116.1 69.3 L 113.8 75.2 L 111.3 81.0 L 108.5 86.7 L 105.4 92.2 L 102.0 97.6 L 98.3 102.8 L 94.2 107.8 L 89.7 112.5 L 88.2 111.4 L 91.0 105.7 L 93.7 100.0 L 96.3 94.4 L 98.6 88.8 L 100.8 83.2 L 102.7 77.6 L 104.3 72.0 L 105.8 66.3 L 106.9 60.6 L 107.72708044052123 55.80293369293213 L 107.7 55.8 L 108.2 52.9 Z M 174.1 84.5 L 172.2 80.5 L 170.1 76.6 L 167.8 72.7 L 165.3 68.9 L 162.5 65.0 L 159.6 61.2 L 156.5 57.3 L 153.2 53.3 L 154.3 51.9 L 158.9 54.5 L 163.2 57.5 L 167.2 60.6 L 170.9 64.0 L 174.4 67.6 L 177.7 71.3 L 180.7 75.3 L 183.5 79.3 L 186.0 83.5 L 188.3 87.9 L 188.3 92.4 L 185.1 95.7 L 180.5 95.7 L 177.3 92.5 L 175.8 88.4 Z M 15.0 49.0 L 43.0 49.0 L 43.0 16.0 L 55.0 18.0 L 58.0 20.0 L 55.0 21.8 L 55.0 49.0 L 67.0 49.0 L 77.0 39.0 L 89.0 49.0 L 89.0 53.0 L 15.0 53.0 Z " />
</g>
</svg>
