<svg xmlns="http://www.w3.org/2000/svg" xmlns:xlink="http://www.w3.org/1999/xlink" version="1.1" baseProfile="full" viewBox="0 0 200 200" width="200" height="200">
<g fill="black">
<path d="M 172.4 154.9 L 173.7 158.3 L 169.75499048233033 157.95991296768187 L 167.3 160.8 L 161.7 166.1 L 155.4 170.9 L 148.6 175.1 L 141.3 178.8 L 133.3 181.9 L 124.9 184.4 L 115.9 186.4 L 106.4 187.8 L 96.3 188.4 L 96.1 186.6 L 105.7 184.0 L 114.6 181.2 L 122.9 178.2 L 130.5 174.9 L 137.4 171.2 L 143.7 167.2 L 149.4 162.9 L 154.4 158.2 L 158.8 153.3 L 162.01859512329102 148.81090679168702 L 162.0 148.8 L 163.1 147.3 Z M 68.8 177.1 L 67.4 179.1 L 65.7 180.9 L 63.7 182.5 L 61.6 183.8 L 59.3 184.8 L 57.0 185.4 L 54.5 185.8 L 52.0 186.0 L 52.0 180.0 L 36.0 177.0 L 36.0 174.0 L 52.0 174.0 L 53.3 173.9 L 54.4 173.7 L 55.4 173.4 L 56.2 173.1 L 56.8 172.7 L 57.5 172.2 L 58.0 171.6 L 58.6 170.8 L 59.2 169.7 L 59.7 168.5 L 60.7 164.9 L 61.8 160.1 L 62.7 154.3 L 63.4 147.5 L 64.1 139.7 L 64.5 130.9 L 64.9 121.1 L 65.0 110.4 L 65.1 98.7 L 65.07848262786865 95.96729888916016 L 65.0 96.0 L 65.0 88.0 L 47.654676246643064 88.0 L 47.4 93.9 L 46.2 107.1 L 44.5 119.7 L 42.2 131.5 L 39.3 142.7 L 35.8 153.2 L 31.8 163.0 L 27.1 172.0 L 21.7 180.2 L 15.7 187.5 L 14.2 186.4 L 18.5 178.2 L 22.3 169.6 L 25.7 160.6 L 28.6 150.9 L 31.1 140.7 L 33.1 129.8 L 34.5 118.3 L 35.5 106.2 L 36.0 93.4 L 36.0 53.0 L 48.0 55.0 L 51.0 57.0 L 48.0 58.8 L 48.0 80.0 L 47.82733812332153 84.0 L 65.0 84.0 L 71.0 79.0 L 82.0 88.0 L 77.0 91.0 L 76.9798189163208 91.00840883255005 L 77.1 98.7 L 77.0 110.5 L 76.9 121.4 L 76.5 131.4 L 76.0 140.5 L 75.4 148.6 L 74.6 155.9 L 73.6 162.3 L 72.4 167.8 L 71.0 172.6 L 70.0 174.9 Z M 158.1 141.3 L 159.0 144.8 L 155.26772985458373 144.01425895690917 L 153.3 145.9 L 148.1 150.3 L 142.6 154.3 L 136.8 158.1 L 130.7 161.5 L 124.4 164.6 L 117.7 167.5 L 110.7 169.9 L 103.4 171.9 L 95.8 173.5 L 95.3 171.8 L 102.1 168.4 L 108.7 165.0 L 114.9 161.5 L 120.8 158.0 L 126.3 154.3 L 131.6 150.4 L 136.5 146.4 L 141.0 142.2 L 145.3 137.8 L 148.51321763992308 134.01005096435546 L 148.5 134.0 L 148.78947372436522 133.6842104911804 L 149.2 133.2 L 149.21817255020142 133.21653909683226 L 149.6 132.8 Z M 144.0 127.7 L 145.1 131.1 L 141.1454545021057 130.55454549789428 L 140.8 130.9 L 137.3 134.1 L 133.3 137.2 L 129.1 140.2 L 124.4 143.1 L 119.4 146.0 L 114.0 148.7 L 108.2 151.4 L 102.0 153.9 L 95.3 156.2 L 94.6 154.5 L 100.3 150.5 L 105.6 146.7 L 110.6 143.1 L 115.3 139.6 L 119.5 136.2 L 123.4 132.8 L 126.8 129.6 L 129.8 126.3 L 132.4 123.2 L 134.00894050598146 121.00599012374877 L 134.0 121.0 L 134.1 120.88181819915772 L 134.6 120.2 L 134.64592084884643 120.23663902282715 L 135.1 119.7 Z M 164.3 77.5 L 162.8 75.4 L 161.43043918609618 73.60245151519776 L 159.1 74.2 L 151.3 75.8 L 143.6 77.2 L 136.1 78.5 L 128.6 79.7 L 121.2 80.8 L 113.9 81.8 L 106.7 82.7 L 99.6 83.5 L 98.67663316726684 83.60552759170533 L 106.5 87.7 L 108.6 90.7 L 104.49576272964478 91.40762710571289 L 103.5 93.2 L 101.9 95.9 L 100.2 98.6 L 98.5 101.2 L 96.7 103.9 L 94.8 106.5 L 94.26643838882447 107.20205478668213 L 95.6 107.0 L 99.0 106.5 L 102.5 106.0 L 106.1 105.4 L 109.05503358840943 105.08053693771362 L 109.0 104.2 L 108.7 102.5 L 108.3 100.8 L 107.3 97.0 L 106.7 94.9 L 105.5 93.1 L 106.9 92.0 L 108.4 93.6 L 110.2 94.9 L 111.9 96.3 L 113.5 97.7 L 114.9 99.1 L 116.3 100.6 L 117.5 102.2 L 118.7 103.7 L 119.41296300888061 104.91203699111938 L 121.5 101.6 L 125.8 94.0 L 129.34141788482665 86.91716413497925 L 129.3 86.9 L 130.3 84.9 L 140.4 91.5 L 142.2 94.6 L 138.43330411911012 94.85977210998536 L 136.83435707092286 97.59130659103394 L 139.6 100.5 L 145.1 106.3 L 148.89578342437744 110.16607570648193 L 147.4 105.6 L 149.4 105.3 L 152.3 105.3 L 155.00440254211426 105.20985326766967 L 155.1 104.7 L 155.7 101.6 L 156.3 98.7 L 157.3 92.9 L 157.8 90.2 L 158.6 85.0 L 158.78764781951904 83.43626804351807 L 158.6 83.4 L 159.4 80.8 L 170.5 85.7 L 172.8 88.4 L 168.63245029449462 89.59072847366333 L 168.1 90.7 L 166.8 93.3 L 165.4 95.8 L 163.9 98.4 L 162.3 101.1 L 160.6 103.7 L 159.59728260040282 105.14836959838867 L 161.0 105.1 L 172.3 105.1 L 175.2 105.3 L 175.8324324607849 105.22972974777221 L 175.4 103.5 L 174.7 101.4 L 173.9 99.2 L 173.0 96.9 L 172.0 94.5 L 170.5 92.3 L 171.9 91.2 L 173.8 93.1 L 176.0 94.6 L 178.0 96.3 L 179.9 98.0 L 181.6 99.8 L 183.2 101.5 L 184.7 103.4 L 186.1 105.2 L 187.4 107.1 L 188.5 109.1 L 188.1 113.6 L 184.6 116.6 L 180.1 116.2 L 177.1 112.7 L 177.0 111.1 L 176.4 107.5 L 176.39026546478271 107.46106195449829 L 175.7 107.7 L 173.2 109.1 L 170.6 110.3 L 168.0 111.4 L 165.3 112.5 L 162.5 113.5 L 159.8 114.5 L 157.0 115.4 L 155.4723536491394 115.87409715652466 L 155.26946945190429 116.29949951171875 L 155.8 116.8 L 161.0 121.4 L 166.1 125.5 L 171.2 129.3 L 176.3 132.5 L 181.2 135.3 L 186.1 137.7 L 191.3 140.4 L 180.0 149.4 L 174.7 146.0 L 169.5 142.2 L 164.4 137.9 L 159.4 133.2 L 154.5 128.1 L 149.7 122.5 L 145.0 116.5 L 140.5 110.0 L 136.2 103.0 L 134.98738079071046 100.63694705963135 L 130.5 107.5 L 125.0 114.8 L 119.2 121.7 L 113.1 128.2 L 106.7 134.2 L 100.0 139.7 L 93.0 144.8 L 85.6 149.2 L 77.9 153.0 L 77.0 151.4 L 83.5 146.1 L 89.7 140.5 L 95.7 134.8 L 101.4 128.8 L 106.9 122.5 L 112.0 115.9 L 113.4719367980957 113.79723320007324 L 111.8 113.5 L 109.0 109.9 L 109.2 108.6 L 109.2 108.590625 L 107.5 109.6 L 104.3 111.3 L 97.9 114.5 L 94.7 115.9 L 86.49186763763427 119.3421199798584 L 85.0 123.4 L 82.3 120.9 L 77.6 109.7 L 79.5 109.2 L 82.6 108.9 L 85.8 108.5 L 88.91640539169312 108.01306161880493 L 89.1 107.2 L 89.9 104.1 L 92.3 95.1 L 93.1 92.2 L 93.8 89.3 L 94.4914942741394 86.79333333969116 L 92.6 84.3 L 89.84682521820068 72.69733476638794 L 87.3 75.1 L 81.6 79.7 L 80.4 78.4 L 84.5 72.6 L 88.5 66.7 L 92.2 60.9 L 95.8 54.9 L 99.0 48.7 L 102.0 42.4 L 104.8 36.0 L 107.2 29.3 L 109.4 22.5 L 111.14041099548339 16.408561611175536 L 111.1 16.4 L 111.8 13.9 L 122.9 18.9 L 125.2 21.6 L 121.54568691253662 22.561661338806154 L 120.2 26.2 L 117.2 33.3 L 113.9 40.1 L 110.3 46.7 L 109.86666669845582 47.4 L 165.6 47.4 L 175.6 37.4 L 187.6 47.4 L 187.6 51.4 L 127.32297296524048 51.4 L 133.1 55.9 L 134.5 59.2 L 130.4348391532898 58.98973302841186 L 126.4 63.2 L 121.6 67.6 L 119.1 69.6 L 116.6 71.5 L 116.36650485992432 71.66165046691894 L 120.3 71.5 L 127.8 71.2 L 135.3 71.0 L 143.0 70.7 L 150.8 70.5 L 158.40375003814697 70.40375003814697 L 157.0 69.0 L 154.5 66.7 L 151.8 64.5 L 148.8 62.1 L 145.5 60.0 L 146.2 58.4 L 150.0 59.6 L 153.8 60.7 L 157.3 62.0 L 160.7 63.4 L 163.8 65.0 L 166.7 66.7 L 169.4 68.5 L 172.0 70.5 L 174.3 72.7 L 176.4 75.0 L 177.2 79.5 L 174.7 83.3 L 170.2 84.1 L 166.4 81.6 L 165.5 79.6 Z M 15.0 49.0 L 43.0 49.0 L 43.0 16.0 L 55.0 18.0 L 58.0 20.0 L 55.0 21.8 L 55.0 49.0 L 67.0 49.0 L 77.0 39.0 L 89.0 49.0 L 89.0 53.0 L 15.0 53.0 Z M 110.08869562149047 71.88086957931519 L 117.4 60.0 L 118.9 57.4 L 120.3 54.7 L 121.8 52.0 L 122.0785714149475 51.4 L 107.39047622680664 51.4 L 106.4 53.0 L 102.1 59.0 L 97.6 64.7 L 92.6 70.1 L 90.07032737731933 72.486483669281 L 91.8 72.4 L 105.8 72.0 Z " />
</g>
</svg>
