<svg xmlns="http://www.w3.org/2000/svg" xmlns:xlink="http://www.w3.org/1999/xlink" version="1.1" baseProfile="full" viewBox="0 0 200 200" width="200" height="200">
<g fill="black">
<path d="M 186.0 75.6 L 186.0 79.6 L 46.9 79.6 L 51.1 80.3 L 54.1 82.3 L 51.1 84.1 L 51.1 183.2 L 39.1 189.2 L 39.1 79.6 L 14.0 79.6 L 14.0 75.6 L 167.8181818008423 75.6 L 176.0 66.6 Z M 168.4 182.9 L 166.5 184.2 L 164.4 185.3 L 162.3 186.3 L 160.1 187.1 L 157.8 187.7 L 155.5 188.1 L 153.2 188.4 L 150.8 188.5 L 150.8 182.5 L 130.8 179.5 L 130.8 176.5 L 150.8 176.5 L 152.3 176.4 L 153.8 176.2 L 155.2 176.0 L 156.5 175.6 L 157.8 175.1 L 159.0 174.6 L 160.3 173.9 L 161.4 173.1 L 162.6 172.2 L 163.7 171.2 L 164.6 170.1 L 165.7 168.0 L 166.8 165.0 L 167.9 161.1 L 168.9 156.2 L 169.7 150.6 L 170.4 144.1 L 171.0 136.8 L 171.3 128.7 L 171.52840909957885 122.0 L 147.99772205352784 122.0 L 145.5 134.9 L 132.6 138.3 L 142.28178052902223 92.0 L 116.164661693573 92.0 L 115.4 103.3 L 113.5 116.0 L 110.6 127.8 L 106.6 139.0 L 101.7 149.3 L 95.8 158.9 L 89.0 167.6 L 81.1 175.4 L 72.3 182.3 L 62.5 188.2 L 61.6 186.7 L 69.9 179.4 L 77.3 171.7 L 83.8 163.5 L 89.4 154.8 L 94.1 145.6 L 97.9 135.7 L 100.9 125.3 L 102.9 114.1 L 104.1 102.4 L 104.26774196624756 92.0 L 71.9 92.0 L 71.9 88.0 L 142.9 88.0 L 148.9 83.0 L 159.9 92.0 L 154.9 95.0 L 153.07856702804565 95.7589303970337 L 148.7722095489502 118.0 L 171.6 118.0 L 177.6 113.0 L 188.6 122.0 L 183.6 125.0 L 183.38939666748047 125.0877513885498 L 183.3 129.2 L 182.9 137.5 L 182.4 145.2 L 181.6 152.1 L 180.7 158.3 L 179.6 163.8 L 178.3 168.7 L 176.6 172.9 L 174.7 176.6 L 172.1 179.8 L 170.3 181.4 Z M 13.6 133.7 L 12.3 129.4 L 14.4 125.3 L 15.6 124.7 L 16.9 123.8 L 18.3 122.6 L 19.7 121.1 L 21.1 119.3 L 22.6 117.2 L 24.0 114.8 L 25.4 112.1 L 26.8 109.1 L 27.8 105.8 L 29.6 106.1 L 29.2 109.6 L 29.2 113.1 L 29.0 116.3 L 28.5 119.4 L 27.9 122.3 L 27.2 125.0 L 26.2 127.6 L 25.1 130.1 L 23.7 132.4 L 22.1 134.5 L 17.7 135.8 Z M 67.7 120.1 L 67.1 118.5 L 66.2 116.7 L 65.1 114.9 L 63.7 112.9 L 62.2 110.8 L 60.4 108.7 L 58.4 106.3 L 56.0 104.4 L 56.9 102.9 L 59.8 104.4 L 62.7 105.6 L 65.4 106.8 L 67.9 108.2 L 70.2 109.6 L 72.3 111.0 L 74.3 112.6 L 76.1 114.2 L 77.8 116.0 L 79.2 117.9 L 79.4 122.4 L 76.3 125.8 L 71.7 125.9 L 68.3 122.8 L 68.1 121.5 Z M 57.4 15.8 L 142.6 15.8 L 148.6 10.8 L 159.6 19.8 L 154.6 23.8 L 154.6 63.8 L 142.6 69.8 L 142.6 63.8 L 57.4 63.8 L 45.4 69.8 L 45.4 9.8 Z M 57.4 41.2 L 57.4 59.8 L 142.6 59.8 L 142.6 41.2 Z M 57.4 19.8 L 57.4 37.2 L 142.6 37.2 L 142.6 19.8 Z " />
</g>
</svg>
