<svg xmlns="http://www.w3.org/2000/svg" xmlns:xlink="http://www.w3.org/1999/xlink" version="1.1" baseProfile="full" viewBox="0 0 200 200" width="200" height="200">
<g fill="black">
<path d="M 83.8 180.2 L 82.2 182.0 L 80.3 183.5 L 78.3 184.9 L 76.2 186.0 L 73.9 186.9 L 71.5 187.5 L 69.1 187.8 L 66.6 188.0 L 66.6 182.0 L 48.6 179.0 L 48.6 176.0 L 66.6 176.0 L 68.0 175.9 L 69.2 175.7 L 70.3 175.4 L 71.3 175.1 L 72.2 174.6 L 73.0 174.0 L 73.8 173.3 L 74.6 172.5 L 75.3 171.5 L 76.1 170.3 L 76.6 168.9 L 77.4 166.4 L 78.1 162.9 L 78.9 158.4 L 79.5 153.1 L 80.1 146.9 L 80.7 139.9 L 81.2 132.0 L 81.6 123.3 L 81.90736837387085 116.0 L 75.66804122924805 116.0 L 73.4 124.8 L 70.3 133.9 L 66.8 142.5 L 62.7 150.6 L 58.2 158.1 L 53.2 165.1 L 47.7 171.5 L 41.7 177.3 L 35.2 182.3 L 28.2 186.7 L 27.1 185.2 L 32.7 179.5 L 37.9 173.5 L 42.6 167.3 L 47.0 160.7 L 50.9 153.8 L 54.4 146.5 L 57.5 138.7 L 60.1 130.5 L 62.4 121.9 L 63.52025318145752 116.0 L 56.15820894241333 116.0 L 53.4 122.6 L 50.4 129.1 L 47.1 135.2 L 43.5 140.9 L 39.8 146.3 L 35.7 151.3 L 31.4 155.8 L 26.8 160.0 L 22.0 163.6 L 16.8 166.7 L 15.7 165.2 L 19.4 160.8 L 23.0 156.2 L 26.4 151.6 L 29.6 146.7 L 32.7 141.6 L 35.5 136.3 L 38.1 130.6 L 40.6 124.7 L 42.8 118.5 L 43.522222232818606 116.0 L 35.42142858505249 116.0 L 35.2 116.4 L 31.9 121.8 L 28.3 126.9 L 24.5 131.8 L 20.4 136.4 L 16.0 140.7 L 11.2 144.6 L 9.9 143.3 L 13.1 138.2 L 16.1 133.2 L 19.1 128.1 L 21.9 122.9 L 24.5 117.6 L 26.9 112.2 L 29.2 106.7 L 31.2 101.0 L 33.0 95.1 L 34.43823013305664 90.10849561691285 L 34.4 90.1 L 35.03999996185303 88.1 L 33.5 88.1 L 21.5 94.1 L 21.5 17.9 L 33.5 23.9 L 74.8 23.9 L 80.8 18.9 L 91.8 27.9 L 86.8 31.9 L 86.8 92.1 L 74.8 98.1 L 74.8 88.1 L 36.26862745285034 88.1 L 46.1 92.7 L 48.4 95.4 L 44.73412218093872 96.38193159103393 L 43.8 98.9 L 41.2 105.0 L 38.3 110.8 L 37.63571424484253 112.0 L 82.0 112.0 L 88.0 107.0 L 99.0 116.0 L 94.0 119.0 L 93.79440555572509 119.08566436767578 L 93.6 123.8 L 93.2 132.6 L 92.7 140.7 L 92.1 148.0 L 91.5 154.4 L 90.7 160.1 L 89.9 165.1 L 89.0 169.3 L 88.0 172.9 L 86.6 176.0 L 85.3 178.2 Z M 181.8 138.0 L 183.8 138.0 L 181.8 163.0 L 185.4 165.4 L 187.8 169.0 L 185.4 172.6 L 181.8 175.0 L 122.6 175.0 L 120.1 174.8 L 117.6 174.4 L 115.2 173.6 L 112.9 172.3 L 110.9 170.7 L 109.3 168.7 L 108.0 166.4 L 107.2 164.0 L 106.8 161.5 L 106.6 159.0 L 106.6 54.0 L 118.6 56.0 L 121.6 58.0 L 118.6 59.8 L 118.6 87.0 L 166.2 87.0 L 166.2 33.0 L 105.6 33.0 L 105.6 29.0 L 166.2 29.0 L 172.2 24.0 L 183.2 33.0 L 178.2 37.0 L 178.2 97.0 L 166.2 103.0 L 166.2 91.0 L 118.6 91.0 L 118.6 159.0 L 118.7 160.2 L 118.9 161.1 L 119.2 162.0 L 119.6 162.4 L 120.5 162.7 L 121.4 162.9 L 122.6 163.0 L 175.8 163.0 Z M 33.5 58.0 L 33.5 84.1 L 74.8 84.1 L 74.8 58.0 Z M 33.5 27.9 L 33.5 54.0 L 74.8 54.0 L 74.8 27.9 Z " />
</g>
</svg>
