<svg xmlns="http://www.w3.org/2000/svg" xmlns:xlink="http://www.w3.org/1999/xlink" version="1.1" baseProfile="full" viewBox="0 0 200 200" width="200" height="200">
<g fill="black">
<path d="M 110.0 97.0 L 161.0 97.0 L 167.0 92.0 L 178.0 101.0 L 173.0 105.0 L 173.0 182.0 L 161.0 188.0 L 161.0 178.0 L 110.0 178.0 L 110.0 185.0 L 98.0 191.0 L 98.0 91.0 Z M 110.0 151.0 L 110.0 174.0 L 161.0 174.0 L 161.0 151.0 Z M 32.0 36.0 L 62.0 36.0 L 68.0 31.0 L 79.0 40.0 L 74.0 44.0 L 74.0 158.0 L 62.0 164.0 L 62.0 152.0 L 32.0 152.0 L 32.0 164.0 L 20.0 170.0 L 20.0 30.0 Z M 32.0 96.0 L 32.0 148.0 L 62.0 148.0 L 62.0 96.0 Z M 110.0 125.0 L 110.0 147.0 L 161.0 147.0 L 161.0 125.0 Z M 110.0 101.0 L 110.0 121.0 L 161.0 121.0 L 161.0 101.0 Z M 32.0 40.0 L 32.0 92.0 L 62.0 92.0 L 62.0 40.0 Z M 102.0 27.0 L 169.0 27.0 L 175.0 22.0 L 186.0 31.0 L 181.0 35.0 L 181.0 85.0 L 169.0 91.0 L 169.0 31.0 L 102.0 31.0 L 102.0 86.0 L 90.0 92.0 L 90.0 21.0 Z M 162.0 73.0 L 162.0 77.0 L 110.0 77.0 L 110.0 73.0 L 143.8181818008423 73.0 L 152.0 64.0 Z M 162.0 51.0 L 162.0 55.0 L 110.0 55.0 L 110.0 51.0 L 143.8181818008423 51.0 L 152.0 42.0 Z " />
</g>
</svg>
