<svg xmlns="http://www.w3.org/2000/svg" xmlns:xlink="http://www.w3.org/1999/xlink" version="1.1" baseProfile="full" viewBox="0 0 200 200" width="200" height="200">
<g fill="black">
<path d="M 99.0 177.1 L 119.0 177.1 L 120.2 177.0 L 121.1 176.8 L 122.0 176.5 L 122.4 176.1 L 122.7 175.2 L 122.9 174.3 L 123.0 173.1 L 123.0 139.6 L 77.0 139.6 L 77.0 135.6 L 123.0 135.6 L 123.0 116.5 L 96.0 116.5 L 96.0 112.5 L 139.0 112.5 L 149.0 102.5 L 161.0 112.5 L 161.0 116.5 L 135.0 116.5 L 135.0 135.6 L 161.0 135.6 L 171.0 125.6 L 183.0 135.6 L 183.0 139.6 L 135.0 139.6 L 135.0 173.1 L 134.8 175.6 L 134.4 178.1 L 133.6 180.5 L 132.3 182.8 L 130.7 184.8 L 128.7 186.4 L 126.4 187.7 L 124.0 188.5 L 121.5 188.9 L 119.0 189.1 L 119.0 183.1 L 99.0 180.1 Z M 72.8 144.2 L 71.7 146.4 L 70.3 148.5 L 68.7 150.3 L 66.7 151.9 L 64.6 153.2 L 62.4 154.2 L 60.0 154.9 L 57.5 155.3 L 55.0 155.5 L 55.0 149.5 L 45.0 146.5 L 45.0 143.5 L 55.0 143.5 L 56.3 143.4 L 57.4 143.2 L 58.3 142.9 L 59.1 142.6 L 59.7 142.2 L 60.3 141.7 L 60.7072847366333 141.21125831604004 L 61.8 137.9 L 62.6 136.2 L 63.0 134.3 L 63.1 132.1 L 62.7 129.6 L 61.8 126.8 L 60.1 123.7 L 57.9 120.3 L 55.0 116.6 L 51.5 112.7 L 47.3 108.8 L 47.41999998092651 108.61999998092651 L 46.3 107.5 L 49.2 103.3 L 51.9 99.2 L 54.4 95.2 L 56.8 91.5 L 58.9 87.9 L 60.9 84.4 L 62.6 81.1 L 64.2 77.9 L 64.76333332061768 76.6 L 35.0 76.6 L 35.0 182.2 L 23.0 188.2 L 23.0 66.6 L 35.0 72.6 L 66.0 72.6 L 66.41129035949707 72.25725803375244 L 66.5 72.0 L 66.64089307785034 72.06592245101929 L 72.0 67.6 L 83.0 76.6 L 78.0 79.6 L 74.94382019042969 80.87340822219849 L 73.3 83.3 L 70.9 86.4 L 68.3 89.6 L 65.5 92.7 L 62.4 95.9 L 59.1 99.1 L 55.5 102.3 L 51.6 105.5 L 48.986266136169434 107.65633049011231 L 53.5 110.0 L 58.3 112.8 L 62.5 115.7 L 66.1 118.8 L 69.1 122.1 L 71.6 125.6 L 73.4 129.4 L 74.6 133.5 L 74.9 137.7 L 74.3 142.0 L 73.6091817855835 142.25796375274658 Z M 106.2 154.5 L 107.4 157.9 L 103.47829179763794 157.56192169189453 L 103.0 158.1 L 99.8 161.5 L 96.4 164.8 L 92.9 168.0 L 89.2 171.0 L 85.4 173.9 L 81.4 176.7 L 77.3 179.3 L 72.9 181.6 L 68.5 183.8 L 67.4 182.3 L 70.8 178.8 L 74.1 175.3 L 77.3 171.9 L 80.4 168.4 L 83.4 165.0 L 86.3 161.6 L 91.7 154.6 L 94.2 151.0 L 95.96391315460205 148.23909254074096 L 95.9 148.2 L 96.37567567825317 147.5945945739746 L 96.5 147.4 L 96.5181393623352 147.41327724456787 L 97.0 146.8 Z M 169.4 173.3 L 167.5 170.4 L 165.5 167.5 L 163.1 164.7 L 160.5 161.8 L 157.6 158.9 L 154.5 155.9 L 151.1 152.9 L 147.4 150.0 L 148.3 148.4 L 157.1 152.0 L 161.1 154.0 L 164.9 156.3 L 168.5 158.7 L 171.8 161.3 L 174.9 164.1 L 177.8 167.0 L 180.4 170.1 L 182.8 173.3 L 183.2 177.9 L 180.4 181.5 L 175.8 181.9 L 172.2 179.1 L 170.9 176.2 Z M 167.2 112.9 L 161.7 109.1 L 156.3 104.9 L 151.0 100.3 L 145.7 95.2 L 140.5 89.7 L 135.4 83.8 L 130.5 77.3 L 130.36428127288818 77.09347143173218 L 125.8 83.6 L 120.7 89.8 L 115.3 95.6 L 109.5 100.9 L 103.4 105.8 L 96.9 110.2 L 90.1 114.1 L 82.9 117.5 L 75.3 120.2 L 74.6 118.5 L 81.1 114.1 L 87.2 109.6 L 93.0 104.9 L 98.5 100.0 L 103.6 94.8 L 108.4 89.3 L 112.9 83.5 L 117.0 77.4 L 120.7 71.0 L 123.76722087860108 65.1284628868103 L 123.7 65.1 L 124.54210529327392 63.5 L 56.0 63.5 L 44.0 69.5 L 44.0 11.5 L 56.0 17.5 L 144.0 17.5 L 150.0 12.5 L 161.0 21.5 L 156.0 25.5 L 156.0 65.5 L 144.0 71.5 L 144.0 63.5 L 125.15909090042115 63.5 L 134.8 69.8 L 136.5 73.0 L 132.74432191848754 73.19425916671753 L 132.51615896224976 73.57099342346191 L 133.6 74.5 L 139.6 79.7 L 145.5 84.5 L 151.2 88.9 L 156.8 93.0 L 162.3 96.6 L 167.7 99.8 L 173.1 102.6 L 178.3 105.0 L 183.5 107.0 L 189.9 109.6 L 178.4 119.1 L 172.8 116.2 Z M 56.0 42.5 L 56.0 59.5 L 144.0 59.5 L 144.0 42.5 Z M 56.0 21.5 L 56.0 38.5 L 144.0 38.5 L 144.0 21.5 Z " />
</g>
</svg>
