<svg xmlns="http://www.w3.org/2000/svg" xmlns:xlink="http://www.w3.org/1999/xlink" version="1.1" baseProfile="full" viewBox="0 0 200 200" width="200" height="200">
<g fill="black">
<path d="M 164.1 168.5 L 158.3 159.8 L 153.71559791564943 151.1705372810364 L 151.0 156.3 L 143.9 166.8 L 136.0 175.8 L 127.2 183.1 L 117.7 188.7 L 116.7 187.2 L 124.8 180.2 L 132.0 172.2 L 138.5 163.1 L 144.3 152.7 L 149.4 141.0 L 149.41471424102784 140.95686044692994 L 148.9 139.7 L 145.3 128.4 L 142.4 116.1 L 140.2 103.0 L 138.8 88.9 L 138.6492364883423 83.28405961990356 L 137.3 86.3 L 133.5 93.5 L 129.3 100.3 L 127.7 99.6 L 130.0 92.1 L 132.3 84.4 L 134.5 76.5 L 136.7 68.4 L 138.7 60.1 L 140.5 51.4 L 142.2 42.5 L 143.7 33.3 L 145.1 23.9 L 146.2 14.1 L 146.2327102661133 14.104672908782959 L 146.5 12.1 L 158.1 15.8 L 160.8 18.2 L 157.4127272605896 19.580000019073488 L 156.3 25.7 L 154.3 35.3 L 152.0 44.7 L 149.5 53.7 L 147.2081395149231 61.0 L 168.61818180084228 61.0 L 176.8 52.0 L 186.8 61.0 L 186.8 65.0 L 175.92315788269042 65.0 L 174.0 82.4 L 171.0 99.9 L 167.3 116.1 L 162.7 130.9 L 159.23521127700806 139.56197185516356 L 162.3 145.5 L 167.6 153.8 L 173.3 161.1 L 179.5 167.4 L 186.1 172.7 L 188.9 174.9 L 178.0 183.2 L 170.7 176.3 Z M 66.2 163.9 L 71.9 163.0 L 77.9 162.0 L 84.1 161.0 L 90.5 159.9 L 93.4 159.4238805770874 L 93.4 138.0 L 70.0 138.0 L 70.0 134.0 L 93.4 134.0 L 93.4 113.0 L 67.2 113.0 L 67.2 109.0 L 112.71818180084229 109.0 L 120.9 100.0 L 130.9 109.0 L 130.9 113.0 L 105.4 113.0 L 105.4 134.0 L 107.5 134.0 L 117.5 124.0 L 129.5 134.0 L 129.5 138.0 L 105.4 138.0 L 105.4 157.4 L 111.4 156.4 L 118.9 155.2 L 126.7 154.1 L 134.8 153.1 L 135.3 154.8 L 127.6 157.7 L 120.2 160.4 L 113.0 162.8 L 106.0 165.0 L 99.2 167.0 L 92.6 169.0 L 86.3 170.8 L 80.2 172.5 L 74.3 174.1 L 72.6562442779541 174.54029169082642 L 71.2 178.1 L 68.7 175.6 L 64.2 164.3 Z M 29.3 36.0 L 52.2 36.0 L 57.7 31.0 L 68.2 40.0 L 63.2 43.5 L 63.2 154.0 L 52.2 159.5 L 52.2 152.0 L 29.3 152.0 L 29.3 164.0 L 17.3 170.0 L 17.3 30.0 Z M 29.3 96.0 L 29.3 148.0 L 52.2 148.0 L 52.2 96.0 Z M 145.86785717010497 65.0 L 143.9 70.7 L 140.9879069328308 77.98023252487182 L 143.0 88.4 L 146.0 101.9 L 149.4 114.4 L 153.2 125.8 L 153.93451194763185 127.57649402618408 L 157.5 113.7 L 160.5 98.0 L 162.7 81.0 L 163.94444446563722 65.0 Z M 29.3 40.0 L 29.3 92.0 L 52.2 92.0 L 52.2 40.0 Z M 128.8 87.0 L 128.8 91.0 L 68.6 91.0 L 68.6 87.0 L 110.61818180084228 87.0 L 118.8 78.0 Z M 81.3 70.7 L 71.3 75.7 L 71.3 27.3 L 81.3 29.3 L 83.8 31.3 L 81.3 32.96666669845581 L 81.3 63.7 L 94.4 63.7 L 94.4 13.3 L 104.4 15.3 L 106.9 17.3 L 104.4 18.96666669845581 L 104.4 63.7 L 117.0 63.7 L 117.0 27.3 L 128.0 29.3 L 130.7 31.3 L 128.0 33.02340421676636 L 128.0 69.7 L 117.0 75.2 L 117.0 67.7 L 81.3 67.7 Z " />
</g>
</svg>
