<svg xmlns="http://www.w3.org/2000/svg" xmlns:xlink="http://www.w3.org/1999/xlink" version="1.1" baseProfile="full" viewBox="0 0 200 200" width="200" height="200">
<g fill="black">
<path d="M 128.65319147109986 113.4 L 127.4 115.3 L 124.1 120.0 L 120.6 124.7 L 116.6 129.3 L 112.2 133.8 L 110.8 132.8 L 113.4 127.2 L 116.0 121.8 L 118.5 116.6 L 120.8 111.6 L 122.9 106.7 L 124.8 101.9 L 126.5 97.3 L 128.0 92.7 L 129.2 88.3 L 129.96451730728148 85.01257543563842 L 129.9 85.0 L 130.17619047164916 84.10238094329834 L 130.2 84.0 L 130.2070682525635 84.00202827453613 L 130.7 82.4 L 141.7 87.3 L 144.1 90.0 L 140.3361216545105 90.99049425125122 L 140.0 91.9 L 138.0 96.5 L 135.7 101.2 L 133.2 105.9 L 131.18936166763305 109.4 L 171.5 109.4 L 177.5 104.4 L 188.5 113.4 L 183.5 116.4 L 178.87142858505248 118.3285714149475 L 176.0 121.2 L 173.9 123.1 L 171.6 125.2 L 169.0 127.4 L 166.1 129.8 L 163.3 132.7 L 162.0 131.5 L 164.2 128.3 L 165.9 125.0 L 167.5 122.0 L 168.8 119.3 L 170.0 116.9 L 170.9 114.7 L 171.31052627563477 113.4 L 149.7 113.4 L 149.7 120.6 L 148.8 130.7 L 148.3467836380005 132.87543859481812 L 149.1 135.7 L 151.5 142.6 L 154.3 148.8 L 157.5 154.5 L 161.2 159.6 L 165.2 164.1 L 169.5 168.2 L 174.1 171.7 L 178.9 174.8 L 188.9 180.0 L 177.7 189.0 L 172.0 185.2 L 166.7 180.9 L 161.8 176.1 L 157.3 170.7 L 153.4 164.8 L 150.2 158.4 L 147.6 151.5 L 145.8 144.2 L 145.71846647262572 143.40504789352417 L 143.7 149.2 L 139.4 157.4 L 134.1 164.8 L 127.6 171.4 L 120.2 177.2 L 111.8 182.2 L 102.4 186.3 L 92.0 189.5 L 91.4 187.8 L 99.87057428359985 183.38448781967162 L 96.2 182.3 L 95.3 181.0 L 94.2 179.7 L 93.1 178.3 L 91.8 176.9 L 90.4 175.4 L 88.8 173.9 L 87.2 172.3 L 84.58684206008911 169.83201751708984 L 82.9 171.8 L 79.4 175.1 L 75.6 178.3 L 71.3 181.2 L 66.6 184.0 L 61.5 186.5 L 56.0 188.9 L 55.1 187.3 L 59.6 183.6 L 63.7 179.9 L 67.4 176.3 L 70.6 172.9 L 73.4 169.5 L 75.7 166.1 L 77.6 162.9 L 79.0 159.7 L 80.0 156.7 L 80.48644065856934 154.6152542114258 L 80.4 154.6 L 81.1 152.0 L 90.5 155.94464282989503 L 90.5 150.2 L 77.6 150.2 L 66.6 155.7 L 66.6 120.1 L 77.6 125.6 L 90.5 125.6 L 96.5 120.6 L 107.5 129.6 L 102.5 133.6 L 102.5 150.2 L 90.77766990661621 156.06116504669188 L 92.3 156.7 L 94.7 159.4 L 90.70750989913941 160.5407114982605 L 90.6 160.8 L 88.5 164.6 L 86.6529640197754 167.22847423553466 L 87.1 167.3 L 89.6 167.9 L 91.9 168.5 L 94.1 169.2 L 96.2 169.9 L 98.2 170.6 L 100.2 171.4 L 102.1 172.2 L 103.8 173.1 L 105.9 177.1 L 104.98568000793458 180.19462146759034 L 109.0 177.6 L 116.2 172.0 L 122.3 166.0 L 127.3 159.6 L 131.3 152.8 L 134.3 145.5 L 136.4 137.8 L 137.5 129.5 L 137.7 120.6 L 137.7 113.4 Z M 49.4 178.5 L 47.2 175.7 L 45.9 174.3 L 44.6 172.8 L 43.2 171.3 L 41.8 169.7 L 40.9 168.73999996185302 L 38.2 171.8 L 34.8 175.1 L 31.2 178.2 L 27.2 181.1 L 22.8 183.9 L 18.1 186.4 L 13.1 188.8 L 12.1 187.3 L 16.1 183.6 L 19.8 180.0 L 23.1 176.4 L 26.1 172.9 L 28.7 169.5 L 31.1 166.1 L 33.0 162.8 L 34.6 159.5 L 35.9 156.3 L 36.60932540893555 154.03015871047972 L 36.5 154.0 L 37.4 151.7 L 48.1 157.2 L 50.3 160.1 L 46.312264156341556 160.86956310272217 L 46.2 161.1 L 43.9 164.8 L 42.664000034332275 166.44799995422363 L 43.5 166.6 L 45.7 167.1 L 47.8 167.6 L 49.8 168.2 L 55.5 170.3 L 57.3 171.1 L 59.0 171.9 L 61.1 175.9 L 59.8 180.3 L 55.7 182.4 L 51.3 181.1 L 50.4 179.8 Z M 88.8 113.5 L 85.9 110.8 L 82.7 108.2 L 79.4 105.6 L 75.9 103.0 L 72.2 100.4 L 68.3 97.8 L 64.3 95.1 L 63.23306245803833 94.4548749923706 L 59.1 98.5 L 54.1 102.8 L 49.0 106.8 L 43.6 110.7 L 38.0 114.3 L 32.1 117.7 L 26.0 120.8 L 25.258823490142824 121.12941179275512 L 34.2 125.6 L 47.1 125.6 L 52.6 120.6 L 63.1 129.6 L 58.1 133.1 L 58.1 149.6 L 47.1 155.1 L 47.1 149.6 L 34.2 149.6 L 22.2 155.6 L 22.2 122.48888893127442 L 19.7 123.6 L 13.0 126.0 L 12.2 124.4 L 17.8 120.3 L 23.3 116.2 L 28.5 112.2 L 33.6 108.2 L 38.4 104.0 L 43.0 99.8 L 47.3 95.4 L 51.5 90.9 L 55.4 86.3 L 59.0 81.6 L 59.009446430206296 81.60771961212158 L 59.4 81.1 L 68.3 89.2 L 69.3 92.7 L 66.62524271011353 92.27766990661621 L 70.4 93.3 L 75.0 94.9 L 79.4 96.6 L 83.7 98.5 L 87.7 100.6 L 91.6 102.8 L 94.0 104.31578950881958 L 94.0 74.5 L 14.0 74.5 L 14.0 70.5 L 94.0 70.5 L 94.0 56.4 L 52.0 56.4 L 40.0 62.4 L 40.0 10.2 L 52.0 16.2 L 148.0 16.2 L 154.0 11.2 L 165.0 20.2 L 160.0 24.2 L 160.0 56.4 L 148.0 62.4 L 148.0 56.4 L 106.0 56.4 L 106.0 70.5 L 164.0 70.5 L 174.0 60.5 L 186.0 70.5 L 186.0 74.5 L 106.0 74.5 L 106.0 99.5 L 95.04651165008545 104.97674417495728 L 95.4 105.2 L 98.9 107.7 L 102.3 110.3 L 104.1 114.5 L 102.6 118.8 L 98.4 120.6 L 94.1 119.0 L 91.5 116.2 Z M 77.6 129.6 L 77.6 146.2 L 90.5 146.2 L 90.5 129.6 Z M 34.2 129.6 L 34.2 145.6 L 47.1 145.6 L 47.1 129.6 Z M 81.9 114.1 L 81.9 118.1 L 39.0 118.1 L 39.0 114.1 L 63.71818180084229 114.1 L 71.9 105.1 Z M 52.0 38.3 L 52.0 52.4 L 94.0 52.4 L 94.0 52.3 L 106.0 52.3 L 106.0 52.4 L 148.0 52.4 L 148.0 38.3 Z M 52.0 20.2 L 52.0 34.3 L 148.0 34.3 L 148.0 20.2 Z " />
</g>
</svg>
