<svg xmlns="http://www.w3.org/2000/svg" xmlns:xlink="http://www.w3.org/1999/xlink" version="1.1" baseProfile="full" viewBox="0 0 200 200" width="200" height="200">
<g fill="black">
<path d="M 147.9 68.6 L 136.6 65.8 L 126.8 62.1 L 118.6 57.7 L 111.7 52.3 L 106.4 46.0 L 104.41971826553345 42.2 L 49.0 42.2 L 49.0 58.23333330154419 L 51.8 58.1 L 60.5 57.6 L 69.5 57.2 L 78.7 56.8 L 88.1 56.4 L 97.9 56.1 L 107.9 56.0 L 108.0 57.8 L 98.3 59.9 L 88.7 61.7 L 79.4 63.3 L 70.3 64.8 L 61.4 66.1 L 52.7 67.3 L 44.3 68.5 L 36.1 69.6 L 28.1 70.6 L 24.523302459716795 71.01805553436279 L 23.069565200805663 73.63478260040283 L 34.0 79.1 L 52.0 79.1 L 52.0 68.3 L 64.0 70.3 L 67.0 72.3 L 64.0 74.1 L 64.0 79.1 L 81.0 79.1 L 87.0 74.1 L 98.0 83.1 L 93.0 87.1 L 93.0 99.9 L 82.01860466003419 105.39069766998291 L 83.4 105.8 L 85.8 106.8 L 88.1 107.9 L 90.2 109.1 L 92.1 110.4 L 94.0 111.9 L 95.7 113.4 L 97.2 115.2 L 98.5 117.1 L 98.3 121.7 L 95.0 124.8 L 90.4 124.6 L 87.3 121.4 L 87.2 120.2 L 87.0 118.9 L 86.6 117.5 L 86.0 115.9 L 85.32859220504761 114.70638608932495 L 82.4 115.4 L 74.8 116.9 L 67.3 118.2 L 59.9 119.4 L 52.6 120.5 L 45.4 121.6 L 38.69010992050171 122.54505491256714 L 50.0 128.2 L 150.0 128.2 L 156.0 123.2 L 167.0 132.2 L 162.0 136.2 L 162.0 179.3 L 150.0 185.3 L 150.0 175.3 L 50.0 175.3 L 50.0 182.3 L 38.0 188.3 L 38.0 122.64225349426269 L 31.2 123.6 L 24.3 124.5 L 21.58134756088257 124.85982160568237 L 19.7 128.3 L 17.5 125.4 L 14.4 113.7 L 16.4 113.5 L 23.3 113.2 L 37.3 112.6 L 44.5 112.3 L 51.8 112.0 L 52.0 111.99459457397461 L 52.0 99.9 L 34.0 99.9 L 22.0 105.9 L 22.0 73.44782609939575 L 20.4 71.5 L 17.5 59.7 L 19.5 59.5 L 27.2 59.2 L 35.2 58.9 L 37.0 58.81219511032104 L 37.0 17.3 L 49.0 23.3 L 49.0 23.630630588531496 L 54.0 23.0 L 65.0 21.7 L 75.9 20.6 L 86.7 19.5 L 97.4 18.3 L 108.0 17.1 L 118.5 15.9 L 128.9 14.7 L 139.1 13.4 L 148.30707235336303 12.136284160614014 L 148.3 12.1 L 148.33853769302368 12.131965446472169 L 149.3 12.0 L 149.41165475845338 13.022070217132569 L 161.2 22.8 L 161.6 25.8 L 156.9151915550232 23.24464988708496 L 150.6 23.9 L 140.3 24.7 L 129.8 25.4 L 119.3 25.9 L 112.21803522109985 26.234054946899413 L 112.4 29.1 L 113.9 34.6 L 115.775 38.2 L 161.0 38.2 L 171.0 28.2 L 183.0 38.2 L 183.0 42.2 L 177.4615385055542 42.2 L 176.07938928604125 60.1679388999939 L 176.4 60.2 L 180.4 62.3 L 181.9 66.7 L 179.8 70.7 L 175.5 72.2 L 160.8 70.7 Z M 50.0 153.8 L 50.0 171.3 L 150.0 171.3 L 150.0 153.8 Z M 50.0 132.2 L 50.0 149.8 L 150.0 149.8 L 150.0 132.2 Z M 175.0 118.9 L 174.6 117.5 L 173.8 115.9 L 173.28672885894775 114.93048782348633 L 171.7 115.3 L 164.4 116.8 L 157.1 118.1 L 149.8 119.3 L 142.6 120.4 L 135.3 121.4 L 128.0 122.3 L 120.8 123.2 L 113.6 124.0 L 110.44780559539795 124.34544591903686 L 108.5 127.7 L 106.3 124.8 L 103.6 113.0 L 105.5 112.9 L 112.8 112.7 L 120.0 112.5 L 127.3 112.3 L 134.5 112.1 L 137.0 112.0315068244934 L 137.0 99.9 L 120.0 99.9 L 108.0 105.9 L 108.0 73.1 L 120.0 79.1 L 137.0 79.1 L 137.0 68.3 L 149.0 70.3 L 152.0 72.3 L 149.0 74.1 L 149.0 79.1 L 166.0 79.1 L 172.0 74.1 L 183.0 83.1 L 178.0 87.1 L 178.0 99.9 L 168.44782609939574 104.67608699798583 L 170.7 105.4 L 173.3 106.5 L 175.7 107.6 L 177.9 108.9 L 180.0 110.3 L 181.9 111.7 L 183.6 113.4 L 185.1 115.1 L 186.5 117.1 L 186.3 121.7 L 183.0 124.8 L 178.4 124.6 L 175.3 121.4 L 175.2 120.2 Z M 149.0 99.9 L 149.0 111.7054054260254 L 149.2 111.7 L 156.5 111.6 L 163.9 111.5 L 171.10765419006347 111.59610204696655 L 170.3 110.5 L 168.6 108.5 L 166.7 106.4 L 166.01403512954712 105.89298248291016 L 166.0 105.9 L 166.0 105.88260869979858 L 164.4 104.7 L 165.3 103.1 L 166.0 103.47692308425903 L 166.0 99.9 Z M 64.0 99.9 L 64.0 111.67200002670288 L 66.7 111.6 L 74.3 111.5 L 82.0 111.6 L 83.40343837738037 111.63553009033203 L 82.8 110.8 L 81.3 108.9 L 79.6 106.9 L 77.4 105.3 L 78.3 103.8 L 80.7 105.0 L 81.0 105.08888893127441 L 81.0 99.9 Z M 120.0 83.1 L 120.0 95.9 L 137.0 95.9 L 137.0 83.1 Z M 149.0 83.1 L 149.0 95.9 L 166.0 95.9 L 166.0 83.1 Z M 34.0 83.1 L 34.0 95.9 L 52.0 95.9 L 52.0 83.1 Z M 64.0 83.1 L 64.0 95.9 L 81.0 95.9 L 81.0 83.1 Z M 118.80930233001709 42.2 L 120.1 43.7 L 125.1 47.6 L 131.7 51.2 L 140.1 54.3 L 150.3 56.9 L 162.4 58.8 L 170.3699248313904 59.59699249267578 L 174.38461542129517 42.2 Z M 49.0 38.2 L 102.5115385055542 38.2 L 100.6 31.1 L 100.28298711776733 26.71465473175049 L 98.0 26.8 L 87.2 27.0 L 76.3 27.2 L 65.3 27.1 L 54.2 26.8 L 49.0 26.52142858505249 Z " />
</g>
</svg>
