<svg xmlns="http://www.w3.org/2000/svg" xmlns:xlink="http://www.w3.org/1999/xlink" version="1.1" baseProfile="full" viewBox="0 0 200 200" width="200" height="200">
<g fill="black">
<path d="M 26.1 182.0 L 15.1 187.5 L 15.1 59.5 L 26.1 65.0 L 37.0 65.0 L 37.0 21.0 L 47.0 23.0 L 49.5 25.0 L 47.0 26.66666669845581 L 47.0 65.0 L 58.4 65.0 L 58.4 21.0 L 68.4 23.0 L 70.9 25.0 L 68.4 26.66666669845581 L 68.4 65.0 L 79.3 65.0 L 84.8 60.0 L 95.3 69.0 L 90.3 72.5 L 90.3 89.0 L 134.0 89.0 L 134.0 66.8 L 146.0 68.8 L 149.0 70.8 L 146.0 72.6 L 146.0 89.0 L 169.1 89.0 L 179.1 79.0 L 191.1 89.0 L 191.1 93.0 L 146.0 93.0 L 146.0 125.0 L 164.9 125.0 L 170.9 120.0 L 181.9 129.0 L 176.9 133.0 L 176.9 177.9 L 164.9 183.9 L 164.9 173.9 L 115.0 173.9 L 115.0 180.9 L 103.0 186.9 L 103.0 119.0 L 115.0 125.0 L 134.0 125.0 L 134.0 93.0 L 90.3 93.0 L 90.3 176.0 L 79.3 181.5 L 79.3 170.0 L 26.1 170.0 Z M 115.0 169.9 L 164.9 169.9 L 164.9 129.0 L 115.0 129.0 Z M 26.1 116.0 L 26.1 166.0 L 37.0 166.0 L 37.0 116.0 Z M 47.0 116.0 L 47.0 166.0 L 58.4 166.0 L 58.4 116.0 Z M 68.4 116.0 L 68.4 166.0 L 79.3 166.0 L 79.3 116.0 Z M 26.1 69.0 L 26.1 112.0 L 37.0 112.0 L 37.0 69.0 Z M 47.0 69.0 L 47.0 112.0 L 58.4 112.0 L 58.4 69.0 Z M 68.4 69.0 L 68.4 112.0 L 79.3 112.0 L 79.3 69.0 Z M 165.6 16.3 L 168.6 18.3 L 165.6 20.1 L 165.6 41.0 L 169.7 41.0 L 179.7 31.0 L 191.7 41.0 L 191.7 45.0 L 165.6 45.0 L 165.6 64.6 L 153.6 70.6 L 153.6 45.0 L 126.3 45.0 L 126.3 64.6 L 114.3 70.6 L 114.3 45.0 L 88.2 45.0 L 88.2 41.0 L 114.3 41.0 L 114.3 14.3 L 126.3 16.3 L 129.3 18.3 L 126.3 20.1 L 126.3 41.0 L 153.6 41.0 L 153.6 14.3 Z " />
</g>
</svg>
