<svg xmlns="http://www.w3.org/2000/svg" xmlns:xlink="http://www.w3.org/1999/xlink" version="1.1" baseProfile="full" viewBox="0 0 200 200" width="200" height="200">
<g fill="black">
<path d="M 66.6 105.0 L 65.1 102.6 L 63.5 100.4 L 61.7 98.1 L 59.7 95.9 L 57.5 93.6 L 55.2 91.4 L 53.6 89.92799997329712 L 53.6 182.0 L 41.6 188.0 L 41.6 95.065625 L 39.9 99.9 L 36.4 108.7 L 32.5 117.3 L 28.3 125.5 L 23.7 133.5 L 18.6 141.2 L 13.2 148.4 L 11.6 147.5 L 15.3 139.3 L 18.9 131.1 L 22.3 122.8 L 25.5 114.3 L 28.4 105.7 L 31.1 96.9 L 33.5 88.0 L 35.6 78.8 L 37.5 69.4 L 38.49047622680664 63.0 L 12.4 63.0 L 12.4 59.0 L 41.6 59.0 L 41.6 14.0 L 53.6 16.0 L 56.6 18.0 L 53.6 19.8 L 53.6 59.0 L 58.2 59.0 L 68.2 49.0 L 80.2 59.0 L 80.2 63.0 L 53.6 63.0 L 53.6 86.65882349014282 L 54.0 86.8 L 57.4 87.8 L 60.6 89.1 L 63.6 90.6 L 66.6 92.3 L 69.4 94.1 L 72.1 96.1 L 74.6 98.3 L 76.9 100.7 L 79.2 103.2 L 79.9 107.7 L 77.4 111.5 L 72.9 112.2 L 69.1 109.7 L 67.9 107.3 Z M 102.6 25.0 L 141.3 25.0 L 147.3 20.0 L 158.3 29.0 L 153.3 32.0 L 153.2270652770996 32.03038949966431 L 152.8 60.9 L 152.87243814468383 65.0 L 157.3 65.0 L 167.3 55.0 L 179.3 65.0 L 179.3 69.0 L 152.9431095123291 69.0 L 153.3 89.2 L 154.6714285850525 109.0 L 161.0 109.0 L 171.0 99.0 L 183.0 109.0 L 183.0 113.0 L 154.99408597946166 113.0 L 157.4 130.9 L 160.7 145.3 L 164.7 156.0 L 169.1 163.5 L 173.8 168.6 L 177.869291305542 171.23307085037231 L 183.0 149.0 L 185.0 149.0 L 183.11003856658937 173.5694980621338 L 184.7 174.2 L 188.3 177.1 L 188.8 181.7 L 185.9 185.2 L 181.3 185.7 L 173.5 182.6 L 166.1 177.8 L 159.4 170.6 L 153.8 161.0 L 149.2 148.6 L 145.6 133.0 L 143.0 113.5 L 142.96428575515748 113.0 L 113.5 113.0 L 113.5 109.0 L 142.6785714149475 109.0 L 141.3 89.7 L 140.940625 69.0 L 117.2 69.0 L 117.2 65.0 L 140.8711805343628 65.0 L 140.8 60.9 L 141.17640113830566 29.0 L 102.6 29.0 L 102.6 79.0 L 101.9 94.0 L 100.5 108.1 L 98.4 121.4 L 95.5 133.8 L 91.9 145.3 L 87.5 155.8 L 82.4 165.3 L 76.5 173.9 L 69.8 181.3 L 62.4 187.6 L 61.2 186.3 L 66.9 178.9 L 72.1 170.9 L 76.6 162.2 L 80.5 152.8 L 83.8 142.6 L 86.5 131.6 L 88.5 119.8 L 89.8 107.0 L 90.5 93.4 L 90.6 79.0 L 90.6 19.0 Z " />
</g>
</svg>
