<svg xmlns="http://www.w3.org/2000/svg" xmlns:xlink="http://www.w3.org/1999/xlink" version="1.1" baseProfile="full" viewBox="0 0 200 200" width="200" height="200">
<g fill="black">
<path d="M 160.0 170.7 L 151.7 166.1 L 143.8 161.1 L 136.3 155.9 L 129.1 150.3 L 122.4 144.4 L 116.0 138.1 L 110.2 131.5 L 106.0 125.68461542129516 L 106.0 181.9 L 94.0 187.9 L 94.0 132.4016393661499 L 92.7 134.0 L 86.0 141.1 L 78.7 147.7 L 70.9 153.9 L 62.6 159.6 L 53.8 164.8 L 44.5 169.6 L 34.6 173.9 L 24.2 177.5 L 13.2 180.6 L 12.7 178.9 L 22.8 174.0 L 32.3 169.0 L 41.4 163.8 L 49.8 158.4 L 57.8 152.6 L 65.1 146.6 L 71.9 140.3 L 78.2 133.7 L 83.9 126.7 L 85.0945945739746 125.0 L 18.0 125.0 L 18.0 121.0 L 94.0 121.0 L 94.0 97.1 L 106.0 99.1 L 109.0 101.1 L 106.0 102.9 L 106.0 121.0 L 160.0 121.0 L 170.0 111.0 L 182.0 121.0 L 182.0 125.0 L 108.69259262084961 125.0 L 113.1 128.5 L 119.9 133.7 L 126.9 138.8 L 134.1 143.6 L 141.4 148.1 L 149.1 152.4 L 157.0 156.4 L 165.1 160.1 L 173.6 163.5 L 182.3 166.7 L 189.1 169.3 L 177.6 179.0 L 168.6 175.0 Z M 158.3 16.8 L 161.3 18.8 L 158.3 20.6 L 158.3 39.4 L 165.4 39.4 L 175.4 29.4 L 187.4 39.4 L 187.4 43.4 L 158.3 43.4 L 158.3 78.4 L 166.3 78.4 L 176.3 68.4 L 188.3 78.4 L 188.3 82.4 L 158.3 82.4 L 158.3 114.0 L 146.3 120.0 L 146.3 82.4 L 116.51066665649414 82.4 L 113.7 90.9 L 100.4 92.8 L 115.4 47.7 L 126.1 53.4 L 128.4 56.2 L 124.89512825012207 57.043765449523924 L 117.83333330154419 78.4 L 146.3 78.4 L 146.3 43.4 L 114.5 43.4 L 114.5 39.4 L 146.3 39.4 L 146.3 14.8 Z M 73.7 14.3 L 76.7 16.3 L 73.7 18.1 L 73.7 35.1 L 79.41818180084229 35.1 L 87.6 26.1 L 97.6 35.1 L 97.6 39.1 L 73.7 39.1 L 73.7 76.0 L 79.9 76.0 L 89.9 66.0 L 101.9 76.0 L 101.9 80.0 L 73.7 80.0 L 73.7 113.4 L 61.7 119.4 L 61.7 80.0 L 32.72997808456421 80.0 L 29.8 93.0 L 16.7 96.2 L 28.9 42.7 L 40.1 47.3 L 42.6 50.0 L 39.27967014312744 50.9397159576416 L 33.63150987625122 76.0 L 61.7 76.0 L 61.7 39.1 L 16.3 39.1 L 16.3 35.1 L 61.7 35.1 L 61.7 12.3 Z " />
</g>
</svg>
