<svg xmlns="http://www.w3.org/2000/svg" xmlns:xlink="http://www.w3.org/1999/xlink" version="1.1" baseProfile="full" viewBox="0 0 200 200" width="200" height="200">
<g fill="black">
<path d="M 59.5 104.7 L 58.3 102.4 L 56.9 100.1 L 55.4 97.9 L 53.7 95.7 L 51.9 93.5 L 49.9 91.3 L 49.3 90.6714285850525 L 49.3 182.0 L 37.3 188.0 L 37.3 98.75862064361573 L 37.0 99.7 L 33.9 108.5 L 30.4 117.1 L 26.6 125.4 L 22.4 133.4 L 17.9 141.1 L 12.9 148.4 L 11.3 147.5 L 14.5 139.4 L 17.5 131.2 L 20.5 122.9 L 23.3 114.5 L 25.8 105.9 L 28.1 97.1 L 30.2 88.1 L 32.1 78.9 L 33.7 69.6 L 34.54418601989746 63.0 L 12.1 63.0 L 12.1 59.0 L 37.3 59.0 L 37.3 14.0 L 49.3 16.0 L 52.3 18.0 L 49.3 19.8 L 49.3 59.0 L 54.018181800842285 59.0 L 62.2 50.0 L 72.2 59.0 L 72.2 63.0 L 49.3 63.0 L 49.3 86.96451616287231 L 52.2 87.9 L 55.1 89.2 L 57.9 90.7 L 60.6 92.4 L 63.1 94.3 L 65.5 96.3 L 67.8 98.5 L 70.0 100.9 L 72.0 103.4 L 72.5 107.9 L 69.7 111.6 L 65.2 112.1 L 61.6 109.3 L 60.6 107.0 Z M 182.8 147.4 L 184.8 147.4 L 182.8 172.4 L 186.4 174.8 L 188.8 178.4 L 186.4 182.0 L 182.8 184.4 L 136.1 184.4 L 133.5 184.3 L 131.0 183.8 L 128.6 183.0 L 126.4 181.8 L 124.4 180.2 L 122.7 178.1 L 121.5 175.9 L 120.7 173.5 L 120.2 171.0 L 120.1 168.4 L 120.1 14.3 L 132.1 16.3 L 135.1 18.3 L 132.1 20.1 L 132.1 168.4 L 132.2 169.7 L 132.3 170.6 L 132.5 171.2 L 132.7 171.5 L 132.8 171.7 L 133.4 172.0 L 134.0 172.2 L 134.9 172.4 L 176.8 172.4 Z M 68.7 141.7 L 72.3 140.4 L 76.2 138.9 L 80.3 137.2 L 84.7 135.4 L 86.5 134.6173913002014 L 86.5 72.5 L 70.2 72.5 L 70.2 68.5 L 86.5 68.5 L 86.5 22.0 L 98.5 24.0 L 101.5 26.0 L 98.5 27.8 L 98.5 68.5 L 101.8777777671814 68.5 L 108.1 61.5 L 116.1 68.5 L 116.1 72.5 L 98.5 72.5 L 98.5 129.31568632125854 L 99.2 129.0 L 104.6 126.6 L 110.3 124.2 L 116.3 121.7 L 117.2 123.2 L 112.2 127.4 L 107.3 131.2 L 102.5 134.7 L 97.8 137.9 L 93.3 140.9 L 89.0 143.7 L 84.9 146.2 L 80.9 148.6 L 77.22692785263061 150.62985563278198 L 76.5 154.6 L 73.5 152.7 L 66.9 142.5 Z M 134.1 132.1 L 153.5 132.1 L 153.5 73.1 L 137.6 73.1 L 137.6 69.1 L 153.5 69.1 L 153.5 23.6 L 165.5 25.6 L 168.5 27.6 L 165.5 29.4 L 165.5 69.1 L 168.9777777671814 69.1 L 175.2 62.1 L 183.2 69.1 L 183.2 73.1 L 165.5 73.1 L 165.5 132.1 L 170.7777777671814 132.1 L 177.0 125.1 L 185.0 132.1 L 185.0 136.1 L 134.1 136.1 Z " />
</g>
</svg>
