<svg xmlns="http://www.w3.org/2000/svg" xmlns:xlink="http://www.w3.org/1999/xlink" version="1.1" baseProfile="full" viewBox="0 0 200 200" width="200" height="200">
<g fill="black">
<path d="M 101.0 45.3 L 101.3 48.9 L 101.3 52.4 L 101.1 56.0 L 100.5 59.7 L 99.6 63.3 L 98.4 66.9 L 95.0 69.9 L 90.4 69.6 L 87.4 66.2 L 87.53913040161133 63.0 L 59.0 63.0 L 59.0 86.31052627563477 L 63.8 87.7 L 67.4 88.9 L 70.8 90.4 L 74.0 92.1 L 77.2 93.9 L 80.1 95.9 L 82.9 98.1 L 85.5 100.5 L 88.0 103.0 L 89.0 107.4 L 86.7 111.4 L 82.3 112.4 L 78.3 110.1 L 76.9 107.7 L 75.3 105.3 L 73.6 102.9 L 71.6 100.6 L 69.4 98.3 L 67.1 96.0 L 64.5 93.8 L 61.7 91.5 L 59.0 89.35862064361572 L 59.0 183.0 L 47.0 189.0 L 47.0 91.40555553436279 L 43.6 100.0 L 39.6 108.9 L 35.3 117.4 L 30.5 125.7 L 25.4 133.7 L 19.8 141.3 L 13.7 148.5 L 12.2 147.4 L 16.6 139.2 L 20.8 131.0 L 24.7 122.6 L 28.4 114.2 L 31.8 105.5 L 34.9 96.8 L 37.7 87.8 L 40.1 78.6 L 42.3 69.3 L 43.438554191589354 63.0 L 13.0 63.0 L 13.0 59.0 L 47.0 59.0 L 47.0 14.0 L 59.0 16.0 L 62.0 18.0 L 59.0 19.8 L 59.0 59.0 L 68.0 59.0 L 78.0 49.0 L 89.48495578765869 58.570796489715576 L 90.6 56.5 L 91.8 53.8 L 92.8 51.0 L 93.6 48.2 L 94.3 45.2 L 94.8 42.1 L 95.1 38.9 L 95.3 35.6 L 95.0 32.2 L 96.8 31.7 L 98.0 35.0 L 99.4 38.4 L 99.8235294342041 40.0 L 131.6 40.0 L 131.6 16.0 L 143.6 18.0 L 146.6 20.0 L 143.6 21.8 L 143.6 40.0 L 174.5 40.0 L 180.5 35.0 L 191.5 44.0 L 186.5 47.0 L 184.40508470535278 47.87288131713867 L 183.7 49.5 L 182.3 52.5 L 180.8 55.4 L 179.2 58.3 L 175.6 64.1 L 173.6 66.9 L 171.5 69.6 L 169.5 72.4 L 168.0 71.5 L 169.0 68.3 L 169.8 65.0 L 170.5 61.8 L 171.3 58.7 L 172.0 55.6 L 173.2 49.4 L 173.8 46.4 L 174.1199999809265 44.0 L 100.73999996185303 44.0 Z M 169.6 171.5 L 167.7 166.4 L 165.65221700668334 161.42681274414062 L 160.9 162.9 L 151.3 165.7 L 142.1 168.2 L 133.2 170.5 L 124.7 172.6 L 116.6 174.5 L 108.8 176.3 L 101.4 177.9 L 94.4 179.4 L 91.81076927185059 179.91000003814696 L 90.2 183.4 L 87.8 180.7 L 84.0 169.2 L 86.0 168.9 L 92.6 168.1 L 99.6 167.3 L 107.0 166.4 L 109.10801792144775 166.13316230773927 L 109.6 165.1 L 112.6 158.7 L 118.6 145.7 L 121.5 139.0 L 124.3 132.3 L 127.0 125.4 L 129.6 118.4 L 132.1 111.2 L 134.20377769470215 104.80100955963135 L 134.2 104.8 L 135.0 102.4 L 145.8 107.9 L 147.9 110.8 L 144.29357748031617 111.49597625732422 L 142.7 115.3 L 139.5 122.4 L 136.2 129.4 L 132.7 136.2 L 129.1 142.8 L 125.3 149.2 L 121.3 155.4 L 117.2 161.4 L 114.02697515487671 165.5105094909668 L 114.9 165.4 L 123.1 164.2 L 131.8 163.0 L 140.8 161.8 L 150.3 160.5 L 160.2 159.2 L 164.42637424468995 158.74863967895507 L 163.3 156.3 L 160.8 151.3 L 158.1 146.4 L 155.3 141.4 L 152.3 136.4 L 149.2 131.3 L 150.6 130.1 L 155.2 134.0 L 159.5 138.2 L 163.5 142.6 L 167.2 147.2 L 170.6 152.0 L 173.8 157.0 L 176.8 162.1 L 179.5 167.4 L 182.0 172.7 L 184.3 178.2 L 183.8 182.8 L 180.4 185.8 L 175.9 185.4 L 172.8 182.0 L 171.3 176.7 Z M 137.4 58.0 L 140.0 60.5 L 136.4822335243225 61.8431471824646 L 134.2 71.4 L 130.4 84.2 L 129.0295082092285 88.0 L 166.3 88.0 L 176.3 78.0 L 188.3 88.0 L 188.3 92.0 L 127.58688526153564 92.0 L 126.0 96.4 L 120.9 108.1 L 115.2 119.1 L 108.8 129.6 L 101.8 139.4 L 94.2 148.6 L 85.8 157.0 L 76.7 164.6 L 75.5 163.3 L 83.0 154.4 L 90.0 145.2 L 96.4 135.6 L 102.3 125.7 L 107.7 115.2 L 112.4 104.4 L 116.6 93.0 L 116.90252103805543 92.0 L 84.9 92.0 L 84.9 88.0 L 118.11260499954224 88.0 L 120.2 81.1 L 123.2 68.7 L 125.41369867324829 56.80136985778809 L 125.4 56.8 L 125.5384614944458 56.1307692527771 L 125.6 55.8 L 125.60664043426513 55.80123805999756 L 126.0 53.9 Z " />
</g>
</svg>
