<svg xmlns="http://www.w3.org/2000/svg" xmlns:xlink="http://www.w3.org/1999/xlink" version="1.1" baseProfile="full" viewBox="0 0 200 200" width="200" height="200">
<g fill="black">
<path d="M 177.7 180.0 L 177.7 184.0 L 22.3 184.0 L 22.3 180.0 L 155.7 180.0 L 165.7 170.0 Z M 148.5 165.6 L 142.6 161.3 L 137.2 156.4 L 137.0555537223816 156.23096714019775 L 136.0 157.2 L 129.2 162.1 L 121.7 166.4 L 113.6 170.0 L 104.8 172.8 L 104.1 171.2 L 111.9 166.6 L 118.9 161.9 L 125.2 156.9 L 130.8 151.6 L 132.02754964828492 150.1970860481262 L 128.4 144.8 L 124.8 138.1 L 121.9 130.9 L 119.7 123.2 L 118.4333333015442 115.6 L 109.9 115.6 L 109.9 111.6 L 149.8 111.6 L 155.8 106.6 L 166.8 115.6 L 161.8 118.6 L 160.35733337402343 119.20111112594604 L 159.2 123.3 L 156.1 131.2 L 152.1 138.6 L 147.5 145.4 L 144.35511360168456 149.0107954978943 L 149.1 152.4 L 154.3 155.3 L 159.9 157.7 L 165.8 159.6 L 173.5 162.0 L 161.9 172.2 L 154.9 169.2 Z M 45.7 117.8 L 66.1 117.8 L 72.1 112.8 L 83.1 121.8 L 78.1 125.8 L 78.1 160.0 L 66.1 166.0 L 66.1 154.0 L 45.7 154.0 L 45.7 166.0 L 33.7 172.0 L 33.7 111.8 Z M 173.8 85.0 L 173.8 89.0 L 83.15273628234863 89.0 L 79.70497512817383 101.6 L 95.8 101.6 L 101.8 96.6 L 112.8 105.6 L 108.01319313049316 108.47208414077758 L 108.3 113.3 L 108.6 122.5 L 108.7 130.9 L 108.5 138.6 L 107.9 145.4 L 107.1 151.6 L 106.0 157.0 L 104.4 161.7 L 102.4 165.8 L 99.6 169.3 L 97.8 170.9 L 95.9 172.4 L 94.0 173.7 L 91.9 174.8 L 89.8 175.8 L 87.6 176.6 L 85.3 177.2 L 83.0 177.7 L 80.7 177.9 L 78.3 178.0 L 78.3 172.0 L 58.3 169.0 L 58.3 166.0 L 78.3 166.0 L 81.3 165.8 L 82.7 165.5 L 84.0 165.2 L 85.3 164.7 L 87.7 163.5 L 88.9 162.7 L 90.1 161.8 L 91.2 160.7 L 92.2 159.5 L 93.3 157.2 L 94.4 153.9 L 95.3 149.5 L 96.0 144.2 L 96.5 138.0 L 96.7 130.8 L 96.6 122.8 L 96.3 113.8 L 96.27939443588257 113.40025234222412 L 95.8 113.6 L 95.8 105.6 L 78.61044778823853 105.6 L 78.2 107.1 L 65.1 109.8 L 70.66491231918334 89.0 L 26.2 89.0 L 26.2 85.0 L 155.61818180084228 85.0 L 160.91769475936889 79.17053575515747 L 159.5 78.6 L 151.5 74.8 L 143.9 70.6 L 136.5 66.0 L 129.4 61.0 L 122.7 55.5 L 116.3 49.6 L 110.4 43.2 L 106.0 37.4962963104248 L 106.0 75.5 L 94.0 81.5 L 94.0 44.3 L 92.6 45.7 L 85.3 52.0 L 77.7 57.9 L 69.8 63.3 L 61.4 68.3 L 52.7 72.8 L 43.6 76.8 L 34.2 80.4 L 24.4 83.3 L 14.2 85.6 L 13.7 83.9 L 23.1 79.7 L 32.2 75.4 L 40.8 70.9 L 49.1 66.1 L 57.0 61.1 L 64.5 55.7 L 71.5 50.0 L 78.2 44.0 L 84.5 37.6 L 85.0962963104248 36.9 L 20.0 36.9 L 20.0 32.9 L 94.0 32.9 L 94.0 13.4 L 106.0 15.4 L 109.0 17.4 L 106.0 19.2 L 106.0 32.9 L 158.0 32.9 L 168.0 22.9 L 180.0 32.9 L 180.0 36.9 L 108.87058820724488 36.9 L 113.2 40.1 L 120.1 45.1 L 127.1 49.7 L 134.1 54.0 L 141.3 58.0 L 148.6 61.5 L 156.1 64.7 L 163.8 67.6 L 171.6 70.0 L 179.7 72.1 L 187.9 74.4 L 176.2 84.9 L 172.0688172340393 83.44193544387818 Z M 45.7 121.8 L 45.7 150.0 L 66.1 150.0 L 66.1 121.8 Z M 120.59178085327149 115.6 L 123.6 121.7 L 127.3 128.5 L 131.1 134.5 L 135.2 140.0 L 137.85378580093385 142.90064964294433 L 139.8 140.1 L 143.3 133.8 L 146.2 127.1 L 148.3 120.0 L 149.23866662979125 115.6 Z " />
</g>
</svg>
