<svg xmlns="http://www.w3.org/2000/svg" xmlns:xlink="http://www.w3.org/1999/xlink" version="1.1" baseProfile="full" viewBox="0 0 200 200" width="200" height="200">
<g fill="black">
<path d="M 103.7 104.7 L 103.64226264953614 104.3631989479065 L 100.1 106.4 L 96.0 108.4 L 95.1 108.78571424484252 L 95.1 183.0 L 83.1 189.0 L 83.1 131.3 L 80.85339803695679 132.42330093383788 L 80.6 134.0 L 79.5 139.5 L 78.3 144.9 L 76.8 150.2 L 75.1 155.5 L 73.2 160.7 L 71.1 165.8 L 68.7 170.8 L 65.9 175.7 L 62.8 180.3 L 61.2 179.6 L 62.4 174.2 L 63.6 168.9 L 64.8 163.7 L 65.9 158.6 L 66.9 153.4 L 67.7 148.2 L 68.4 143.0 L 68.9 137.9 L 69.3 132.7 L 69.46155805587769 128.4994912147522 L 69.4 128.5 L 69.7 125.3 L 81.5 128.4 L 83.1 129.71428575515748 L 83.1 113.5 L 78.7 114.9 L 74.2 116.3 L 69.7 117.5 L 69.21398811340332 117.62678575515747 L 67.6 121.3 L 65.1 118.7 L 61.1 107.2 L 63.1 106.9 L 72.1 105.9 L 73.97910642623901 105.64375820159913 L 75.3 102.2 L 78.2 95.0 L 81.3 87.9 L 84.3 80.7 L 87.3 73.6 L 93.3 59.2 L 96.2 52.0 L 99.0 44.8 L 101.8 37.5 L 101.87254905700684 37.53071899414063 L 102.4 36.3 L 112.9 42.2 L 114.9 45.2 L 111.2452868461609 45.704098320007326 L 109.5 49.4 L 106.0 56.4 L 102.4 63.4 L 98.7 70.4 L 95.0 77.3 L 91.1 84.1 L 87.1 90.9 L 83.0 97.5 L 78.7 104.0 L 77.92902965545655 105.07265434265136 L 89.7 103.2 L 98.5 101.6 L 103.0 100.9 L 103.02820510864258 100.89487180709838 L 102.3 97.8 L 101.5 94.5 L 100.6 91.3 L 99.6 88.2 L 98.5 85.1 L 97.3 82.1 L 95.8 79.3 L 97.2 78.1 L 102.2 82.7 L 104.5 85.4 L 106.7 88.2 L 108.7 91.3 L 110.5 94.7 L 112.2 98.2 L 113.8 101.9 L 115.2 105.8 L 116.5 109.8 L 115.5 114.3 L 111.7 116.9 L 107.3 115.9 L 104.7 112.2 L 104.2 108.4 Z M 54.4 93.4 L 53.7 91.1 L 52.9 88.8 L 51.9 86.3 L 50.6 83.8 L 49.2 81.3 L 47.9 79.10625 L 47.9 183.0 L 35.9 189.0 L 35.9 100.78666667938232 L 33.3 108.5 L 30.0 117.0 L 26.3 125.4 L 22.4 133.4 L 18.1 141.1 L 13.3 148.4 L 11.7 147.5 L 14.6 139.4 L 17.5 131.2 L 20.2 123.0 L 22.8 114.5 L 25.2 105.9 L 27.3 97.1 L 29.3 88.2 L 31.0 79.0 L 32.5 69.6 L 33.344186019897464 63.0 L 12.5 63.0 L 12.5 59.0 L 35.9 59.0 L 35.9 14.0 L 47.9 16.0 L 50.9 18.0 L 47.9 19.8 L 47.9 59.0 L 50.918181800842284 59.0 L 59.1 50.0 L 69.1 59.0 L 69.1 63.0 L 47.9 63.0 L 47.9 74.08620691299438 L 50.5 75.7 L 53.2 77.7 L 55.7 79.8 L 58.0 81.9 L 60.1 84.2 L 62.1 86.6 L 63.8 89.1 L 65.3 91.7 L 66.7 94.4 L 66.1 98.9 L 62.6 101.8 L 58.1 101.3 L 55.1 97.8 L 54.9 95.6 Z M 126.1 174.1 L 130.8 172.2 L 135.7 170.1 L 140.9 167.7 L 146.2 165.1 L 151.7 162.2 L 157.5 159.2 L 163.5 155.9 L 169.7 152.4 L 176.3 148.9 L 183.1 145.2 L 184.2 146.7 L 178.4 152.0 L 172.7 156.9 L 167.1 161.4 L 161.6 165.6 L 156.2 169.5 L 150.9 173.1 L 145.7 176.5 L 140.7 179.6 L 135.8 182.4 L 134.81255321502687 182.94624710083008 L 134.2 186.9 L 131.1 185.0 L 124.3 174.9 Z M 144.2 137.3 L 143.2 134.8 L 142.1 132.4 L 140.9 130.1 L 139.5 127.8 L 138.0 125.5 L 136.3 123.3 L 134.5 121.1 L 132.4 119.2 L 133.3 117.7 L 136.0 119.0 L 138.8 120.1 L 141.6 121.6 L 144.1 123.3 L 146.6 125.2 L 148.9 127.3 L 151.1 129.7 L 153.2 132.2 L 155.1 135.0 L 156.9 137.9 L 156.8 142.4 L 153.6 145.7 L 149.1 145.7 L 145.8 142.5 L 145.0 139.8 Z M 162.5 114.3 L 156.1 107.7 L 150.3 100.4 L 148.14604206085204 97.06347694396973 L 147.3 98.3 L 140.2 107.2 L 132.6 115.4 L 124.4 123.0 L 115.6 129.7 L 107.68570432662963 134.80599718093873 L 108.8 136.8 L 110.6 140.4 L 112.1 144.3 L 113.6 148.3 L 114.9 152.6 L 116.0 157.0 L 114.9 161.5 L 111.0 163.9 L 106.6 162.8 L 104.2 158.9 L 103.8 154.7 L 103.4 150.7 L 102.8 146.8 L 102.1 143.1 L 101.4 139.5 L 100.5 136.1 L 99.6 132.8 L 98.6 129.5 L 97.6 126.3 L 96.3 123.3 L 97.8 122.2 L 100.2 124.7 L 102.6 127.3 L 104.9 130.2 L 106.59405937194825 132.91049509048463 L 113.2 126.8 L 120.7 119.1 L 127.7 111.0 L 134.3 102.5 L 140.3 93.6 L 143.22439022064208 88.54878044128418 L 140.9 83.9 L 137.3 74.9 L 134.4 65.2 L 132.56748418807985 56.211946201324466 L 131.7 58.1 L 128.1 65.1 L 124.1 71.7 L 119.8 77.9 L 115.1 83.5 L 110.0 88.5 L 108.6 87.4 L 112.0 81.3 L 115.3 75.0 L 118.4 68.5 L 121.3 61.8 L 123.9 54.8 L 126.4 47.5 L 128.6 39.8 L 130.5 31.8 L 132.2 23.5 L 133.52711868286133 15.802711868286133 L 133.5 15.8 L 134.0 12.9 L 145.5 17.0 L 148.0 19.5 L 144.56207370758057 20.836971378326417 L 143.3 26.0 L 140.9 34.6 L 138.71463413238524 41.0 L 162.8 41.0 L 168.8 36.0 L 179.8 45.0 L 174.8 48.0 L 173.04303379058837 48.732069206237796 L 170.2 56.6 L 165.3 68.0 L 159.8 78.7 L 153.96760139465331 88.51787099838256 L 158.3 94.1 L 164.1 100.1 L 170.2 105.4 L 176.9 110.1 L 184.0 114.2 L 188.7 116.9 L 177.5 125.7 L 169.7 120.4 Z M 137.26455698013305 45.0 L 135.2180895805359 50.389030838012694 L 136.4 53.9 L 140.0 63.3 L 143.9 72.1 L 148.0731152534485 79.68748226165772 L 150.9 74.2 L 155.4 63.7 L 159.5 52.7 L 161.84347829818725 45.0 Z M 73.3 68.5 L 72.5 65.5 L 71.5 62.6 L 70.3 59.7 L 69.0 56.9 L 67.6 54.2 L 66.0 51.5 L 64.3 48.7 L 62.2 46.3 L 63.3 44.9 L 69.1 48.5 L 71.9 50.6 L 73.95635948181152 52.57410507202148 L 74.3 51.4 L 75.4 47.3 L 76.7 43.2 L 77.9 39.1 L 79.2 35.0 L 80.5 31.0 L 81.8 26.9 L 83.0 22.9 L 84.2 18.8 L 85.12762212753296 15.707926368713379 L 85.1 15.7 L 85.31818180084228 15.072727298736572 L 85.4 14.8 L 85.4115385055542 14.804326915740967 L 85.9 13.4 L 96.6 19.0 L 98.7 21.9 L 94.92533330917358 22.628444480895997 L 94.8 22.9 L 90.8 30.7 L 88.8 34.5 L 86.7 38.3 L 84.5 42.1 L 82.2 45.7 L 79.8 49.4 L 77.3 52.9 L 75.96569919586182 54.69617414474487 L 76.8 55.6 L 79.0 58.3 L 81.1 61.3 L 83.0 64.5 L 84.7 67.9 L 86.2 71.4 L 85.6 76.0 L 82.0 78.8 L 77.5 78.2 L 74.6 74.7 L 74.0 71.5 Z " />
</g>
</svg>
