<svg xmlns="http://www.w3.org/2000/svg" xmlns:xlink="http://www.w3.org/1999/xlink" version="1.1" baseProfile="full" viewBox="0 0 200 200" width="200" height="200">
<g fill="black">
<path d="M 82.4 111.4 L 77.9 112.3 L 74.1 109.9 L 72.8 107.5 L 71.3 105.2 L 69.6 102.8 L 67.8 100.5 L 65.8 98.2 L 63.6 96.0 L 61.2 93.7 L 58.6 91.5 L 56.3 89.61071424484253 L 56.3 182.0 L 44.3 188.0 L 44.3 92.98000001907349 L 41.6 100.0 L 37.8 108.8 L 33.7 117.4 L 29.2 125.6 L 24.3 133.6 L 18.9 141.2 L 13.0 148.5 L 11.6 147.4 L 15.7 139.2 L 19.6 131.0 L 23.3 122.7 L 26.8 114.2 L 30.0 105.6 L 32.9 96.8 L 35.5 87.9 L 37.8 78.7 L 39.8 69.4 L 40.94285717010498 63.0 L 12.3 63.0 L 12.3 59.0 L 44.3 59.0 L 44.3 14.0 L 56.3 16.0 L 59.3 18.0 L 56.3 19.8 L 56.3 59.0 L 63.5 59.0 L 73.5 49.0 L 85.5 59.0 L 85.5 63.0 L 56.3 63.0 L 56.3 86.4333333015442 L 57.1 86.7 L 60.7 87.7 L 64.1 89.0 L 67.4 90.5 L 70.5 92.1 L 73.5 94.0 L 76.3 96.0 L 79.0 98.2 L 81.5 100.5 L 83.7 102.88333330154418 L 83.7 65.1 L 95.7 71.1 L 116.0 71.1 L 121.5 66.1 L 132.0 75.1 L 127.0 78.6 L 127.0 172.6 L 126.9 175.0 L 126.5 177.3 L 125.9 179.6 L 124.9 181.7 L 123.5 183.7 L 121.7 185.3 L 119.6 186.6 L 117.4 187.4 L 115.1 187.9 L 112.8 188.1 L 112.8 182.6 L 98.8 179.8 L 98.8 177.1 L 112.8 177.1 L 113.7 177.0 L 114.4 176.9 L 115.0 176.6 L 115.2 176.4 L 115.3 176.2 L 115.6 175.7 L 115.8 175.0 L 115.9 173.9 L 116.0 172.6 L 116.0 140.6814814567566 L 114.6 142.6 L 110.1 143.3 L 106.4 140.7 L 105.8 139.0 L 105.1 137.3 L 103.5 134.1 L 102.5 132.6 L 101.4 131.0 L 98.8 128.0 L 97.3 126.4 L 95.7 125.51111106872558 L 95.7 132.2 L 95.2 140.9 L 94.4 149.1 L 93.3 156.5 L 91.9 163.3 L 90.2 169.4 L 88.1 174.8 L 85.6 179.5 L 82.7 183.4 L 79.5 186.4 L 75.9 188.3 L 74.8 186.9 L 76.7 183.8 L 78.2 180.5 L 79.7 176.6 L 80.9 172.3 L 82.0 167.3 L 82.8 161.6 L 83.4 155.3 L 83.7 148.2 L 83.8 140.5 L 83.7 132.2 L 83.7 109.2875 Z M 149.1 71.1 L 170.1 71.1 L 176.1 66.1 L 187.1 75.1 L 182.1 79.1 L 182.1 172.6 L 182.0 175.1 L 181.5 177.6 L 180.7 180.0 L 179.5 182.3 L 177.8 184.3 L 175.8 185.9 L 173.6 187.2 L 171.2 188.0 L 168.7 188.4 L 166.1 188.6 L 166.1 182.6 L 154.1 179.6 L 154.1 176.6 L 166.1 176.6 L 167.3 176.5 L 168.2 176.3 L 168.8 176.1 L 169.2 176.0 L 169.4 175.8 L 169.5 175.6 L 169.7 175.3 L 169.9 174.7 L 170.0 173.8 L 170.1 172.6 L 170.1 141.35200004577638 L 169.3 142.6 L 164.8 143.4 L 161.0 140.9 L 160.3 139.2 L 158.7 136.0 L 157.7 134.4 L 156.6 132.9 L 154.0 129.9 L 152.5 128.5 L 150.8 127.0 L 149.1 126.23500003814698 L 149.1 132.2 L 148.7 140.9 L 148.0 148.9 L 147.0 156.3 L 145.7 162.9 L 144.1 168.9 L 142.2 174.1 L 140.0 178.6 L 137.4 182.3 L 134.4 185.1 L 131.1 186.8 L 130.1 185.5 L 131.8 182.8 L 133.2 179.7 L 134.5 176.1 L 135.6 171.9 L 136.6 167.1 L 137.3 161.5 L 137.9 155.2 L 138.2 148.3 L 138.3 140.6 L 138.1 132.2 L 138.1 65.6 Z M 104.4 106.7 L 103.5 105.2 L 102.5 103.7 L 101.4 102.2 L 100.2 100.7 L 98.8 99.2 L 97.3 97.6 L 95.7 96.71111106872559 L 95.7 124.86666669845582 L 96.1 123.8 L 98.2 124.4 L 100.5 124.8 L 102.7 125.3 L 104.9 126.1 L 107.1 127.0 L 109.1 128.2 L 111.1 129.5 L 113.0 130.9 L 114.8 132.6 L 116.0 133.8 L 116.0 111.07200002670288 L 114.7 113.1 L 110.2 113.9 L 106.4 111.4 L 105.2 108.2 Z M 159.7 108.2 L 158.8 106.7 L 157.8 105.3 L 156.7 103.9 L 155.4 102.4 L 154.0 101.0 L 152.5 99.6 L 150.8 98.2 L 149.1 97.43500003814697 L 149.1 125.25 L 149.4 124.4 L 151.6 124.9 L 154.0 125.1 L 156.3 125.6 L 158.6 126.2 L 160.8 127.1 L 163.0 128.1 L 165.1 129.4 L 167.1 130.8 L 169.1 132.4 L 170.1 133.4 L 170.1 111.10909090042114 L 169.5 112.2 L 165.1 113.3 L 161.1 111.1 L 160.4 109.6 Z M 95.7 75.1 L 95.7 96.0666666984558 L 96.1 95.0 L 98.2 95.6 L 100.5 95.9 L 104.9 97.1 L 107.0 98.0 L 109.0 99.0 L 111.0 100.2 L 112.9 101.6 L 114.7 103.1 L 116.0 104.3235294342041 L 116.0 75.1 Z M 149.1 75.1 L 149.1 96.45 L 149.4 95.6 L 151.6 96.1 L 153.9 96.3 L 156.2 96.6 L 158.5 97.2 L 160.6 97.9 L 162.8 98.7 L 164.8 99.7 L 166.8 100.9 L 168.7 102.3 L 170.1 103.40526313781739 L 170.1 75.1 Z M 87.0 58.5 L 87.0 22.4 L 99.0 24.4 L 102.0 26.4 L 99.0 28.2 L 99.0 48.5 L 128.0 48.5 L 128.0 12.3 L 140.0 14.3 L 143.0 16.3 L 140.0 18.1 L 140.0 48.5 L 168.9 48.5 L 168.9 22.4 L 180.9 24.4 L 183.9 26.4 L 180.9 28.2 L 180.9 54.5 L 168.9 60.5 L 168.9 52.5 L 99.0 52.5 Z " />
</g>
</svg>
