<svg xmlns="http://www.w3.org/2000/svg" xmlns:xlink="http://www.w3.org/1999/xlink" version="1.1" baseProfile="full" viewBox="0 0 200 200" width="200" height="200">
<g fill="black">
<path d="M 57.7 104.6 L 56.5 102.4 L 55.1 100.1 L 53.6 97.9 L 52.0 95.7 L 50.2 93.5 L 48.3 91.3 L 47.8 90.77619047164917 L 47.8 182.0 L 35.8 188.0 L 35.8 99.375 L 35.7 99.7 L 32.5 108.5 L 29.1 117.1 L 25.3 125.4 L 21.2 133.4 L 16.7 141.1 L 11.7 148.4 L 10.2 147.5 L 13.3 139.4 L 16.3 131.2 L 19.2 122.9 L 21.9 114.5 L 24.4 105.9 L 26.7 97.1 L 28.8 88.1 L 30.6 79.0 L 32.2 69.6 L 33.04418601989746 63.0 L 11.0 63.0 L 11.0 59.0 L 35.8 59.0 L 35.8 14.0 L 47.8 16.0 L 50.8 18.0 L 47.8 19.8 L 47.8 59.0 L 52.11818180084229 59.0 L 60.3 50.0 L 70.3 59.0 L 70.3 63.0 L 47.8 63.0 L 47.8 86.99677419662476 L 50.6 87.9 L 53.4 89.3 L 56.2 90.8 L 58.9 92.4 L 61.4 94.3 L 63.8 96.3 L 66.0 98.5 L 68.2 100.9 L 68.25859031677246 100.97709255218506 L 69.6 97.4 L 73.3 87.7 L 76.8 77.8 L 80.2 67.7 L 83.5 57.4 L 86.7 47.0 L 89.8 36.3 L 92.7 25.4 L 95.5 14.3 L 95.56444444656373 14.317777824401855 L 96.0 12.7 L 107.1 17.5 L 109.5 20.2 L 105.96346969604492 21.210437202453612 L 103.7 28.6 L 100.1 39.5 L 96.3 50.1 L 92.3 60.5 L 88.2 70.7 L 87.10344829559327 73.16724138259887 L 92.1 74.0 L 95.1 76.0 L 92.1 77.8 L 92.1 183.0 L 80.1 189.0 L 80.1 88.49333333969116 L 79.3 90.2 L 74.5 99.6 L 70.48890943527222 106.90018482208252 L 70.6 107.9 L 67.9 111.6 L 67.64944992065429 111.62723369598389 L 64.0 117.4 L 62.4 116.5 L 64.10033416748047 112.01300716400146 L 63.3 112.1 L 59.7 109.3 L 58.8 106.9 Z M 124.1 119.0 L 163.1 119.0 L 169.1 114.0 L 180.1 123.0 L 175.1 127.0 L 175.1 177.0 L 163.1 183.0 L 163.1 171.0 L 124.1 171.0 L 124.1 183.0 L 112.1 189.0 L 112.1 113.0 Z M 124.1 123.0 L 124.1 167.0 L 163.1 167.0 L 163.1 123.0 Z M 173.6 52.8 L 175.9 55.6 L 172.06773223876954 56.47402601242065 L 170.4 60.3 L 168.5 64.4 L 166.5 68.6 L 164.4 73.0 L 162.1 77.6 L 159.6 82.3 L 156.9 87.2 L 153.9 92.2 L 152.08823528289795 95.0 L 167.3 95.0 L 177.3 85.0 L 189.3 95.0 L 189.3 99.0 L 97.9 99.0 L 97.9 95.0 L 149.30677967071534 95.0 L 150.4 90.7 L 152.0 85.1 L 153.6 79.8 L 155.1 74.7 L 156.5 69.9 L 157.9 65.3 L 159.1 60.9 L 160.3 56.7 L 161.3 52.8 L 161.97662086486815 50.018336582183835 L 161.9 50.0 L 162.7 47.5 Z M 121.2 78.2 L 120.5 74.4 L 119.8 70.8 L 118.9 67.2 L 117.8 63.7 L 116.7 60.3 L 114.3 53.5 L 112.7 50.3 L 114.2 49.2 L 119.5 54.5 L 121.9 57.5 L 124.1 60.7 L 126.2 64.1 L 128.1 67.7 L 129.8 71.5 L 131.4 75.5 L 132.8 79.6 L 134.0 83.9 L 133.0 88.4 L 129.2 90.9 L 124.7 89.9 L 122.2 86.1 L 121.8 82.1 Z M 101.4 40.0 L 137.6 40.0 L 137.6 14.0 L 149.6 16.0 L 152.6 18.0 L 149.6 19.8 L 149.6 40.0 L 163.8 40.0 L 173.8 30.0 L 185.8 40.0 L 185.8 44.0 L 101.4 44.0 Z " />
</g>
</svg>
