<svg xmlns="http://www.w3.org/2000/svg" xmlns:xlink="http://www.w3.org/1999/xlink" version="1.1" baseProfile="full" viewBox="0 0 200 200" width="200" height="200">
<g fill="black">
<path d="M 64.0 138.9 L 62.7 134.9 L 61.2 131.0 L 59.6 127.2 L 57.9 123.4 L 56.0 119.6 L 54.1 115.9 L 54.0 115.71000003814697 L 54.0 183.0 L 42.0 189.0 L 42.0 126.19411764144897 L 40.2 130.8 L 36.6 139.1 L 32.7 146.8 L 28.5 154.1 L 23.9 160.9 L 19.0 167.0 L 13.7 172.5 L 12.2 171.4 L 15.9 164.8 L 19.3 158.1 L 22.7 151.0 L 25.8 143.6 L 28.8 135.8 L 31.5 127.7 L 34.0 119.1 L 36.2 110.1 L 38.3 100.6 L 39.451162815093994 94.0 L 17.0 94.0 L 17.0 90.0 L 42.0 90.0 L 42.0 49.0 L 14.0 49.0 L 14.0 45.0 L 42.0 45.0 L 42.0 13.0 L 54.0 15.0 L 57.0 17.0 L 54.0 18.8 L 54.0 45.0 L 61.0 45.0 L 71.0 35.0 L 83.0 45.0 L 83.0 49.0 L 54.0 49.0 L 54.0 90.0 L 58.0 90.0 L 68.0 80.0 L 80.0 90.0 L 80.0 94.0 L 54.0 94.0 L 54.0 109.3235294342041 L 54.7 109.9 L 58.0 112.9 L 61.1 116.2 L 64.0 119.6 L 66.7 123.1 L 69.2 126.9 L 71.6 130.8 L 73.8 134.8 L 75.8 138.9 L 77.7 143.2 L 77.3 147.8 L 73.9 150.8 L 69.3 150.4 L 66.3 147.0 L 65.2 142.9 Z M 176.5 188.3 L 170.1 186.1 L 164.1 183.3 L 158.4 180.1 L 153.2 176.4 L 148.4 172.3 L 144.0 167.7 L 140.1 162.8 L 136.6 157.4 L 133.8 151.5 L 131.84838705062867 146.0 L 131.1 146.0 L 128.3 152.2 L 123.2 160.6 L 117.2 168.0 L 110.2 174.3 L 102.4 179.6 L 93.7 183.8 L 84.3 186.9 L 74.0 188.8 L 73.6 187.1 L 83.0 183.3 L 91.4 179.0 L 98.8 174.1 L 105.2 168.6 L 110.8 162.4 L 115.4 155.5 L 119.3 147.9 L 119.97857141494751 146.0 L 79.0 146.0 L 79.0 142.0 L 121.40714282989502 142.0 L 122.3 139.5 L 124.5 130.3 L 125.88931293487549 120.27709922790527 L 126.1 118.1 L 137.8 121.7 L 140.5 124.0 L 137.02531118392943 125.57344398498535 L 135.6 132.7 L 132.7735294342041 142.0 L 164.7 142.0 L 174.7 132.0 L 186.7 142.0 L 186.7 146.0 L 134.54399995803834 146.0 L 137.4 149.4 L 141.4 153.9 L 145.5 158.0 L 149.8 161.8 L 154.3 165.0 L 158.9 167.9 L 163.8 170.4 L 168.9 172.5 L 174.2 174.2 L 188.2 177.7 Z M 105.1 63.2 L 160.5 63.2 L 166.5 58.2 L 177.5 67.2 L 172.5 71.2 L 172.5 120.8 L 160.5 126.8 L 160.5 114.8 L 105.1 114.8 L 105.1 126.8 L 93.1 132.8 L 93.1 57.2 Z M 105.1 90.3 L 105.1 110.8 L 160.5 110.8 L 160.5 90.3 Z M 105.1 67.2 L 105.1 86.3 L 160.5 86.3 L 160.5 67.2 Z M 156.8 15.0 L 159.8 17.0 L 156.8 18.8 L 156.8 34.0 L 163.0 34.0 L 173.0 24.0 L 185.0 34.0 L 185.0 38.0 L 156.8 38.0 L 156.8 51.0 L 144.8 57.0 L 144.8 38.0 L 120.9 38.0 L 120.9 51.0 L 108.9 57.0 L 108.9 38.0 L 82.4 38.0 L 82.4 34.0 L 108.9 34.0 L 108.9 13.0 L 120.9 15.0 L 123.9 17.0 L 120.9 18.8 L 120.9 34.0 L 144.8 34.0 L 144.8 13.0 Z " />
</g>
</svg>
