<svg xmlns="http://www.w3.org/2000/svg" xmlns:xlink="http://www.w3.org/1999/xlink" version="1.1" baseProfile="full" viewBox="0 0 200 200" width="200" height="200">
<g fill="black">
<path d="M 156.16393718719482 18.661637687683104 L 156.7 50.2 L 157.38874168395995 60.6 L 174.6777777671814 60.6 L 180.9 53.6 L 188.9 60.6 L 188.9 64.6 L 157.65364236831664 64.6 L 158.7 80.4 L 161.6 105.9 L 164.37070293426513 121.98546962738037 L 165.7 117.2 L 168.8 103.4 L 171.4 88.5 L 171.4536187171936 88.50901155471801 L 171.8 86.5 L 183.3 90.5 L 185.9 93.0 L 182.45789070129393 94.3142599105835 L 179.9 105.9 L 176.1 120.0 L 171.8 133.0 L 168.6722580909729 140.68903226852416 L 169.4 143.6 L 173.7 156.4 L 178.0 165.6 L 179.76487731933594 168.31886501312255 L 184.2 149.1 L 186.2 149.1 L 184.29285717010498 173.89285717010497 L 184.3 173.9 L 184.29090909957887 173.9181818008423 L 184.2744680404663 174.1319149017334 L 188.4 175.9 L 190.2 180.1 L 188.4 184.2 L 184.2 186.1 L 177.6 183.8 L 172.4 178.9 L 167.4 171.3 L 162.6 160.8 L 161.09961395263673 156.36268796920777 L 155.9 164.7 L 149.6 172.8 L 142.7 179.6 L 135.4 185.0 L 127.7 188.8 L 126.8 187.2 L 133.1 181.9 L 139.0 175.8 L 144.4 168.8 L 149.4 160.7 L 154.1 151.5 L 157.1960000038147 144.0840000152588 L 153.5 129.3 L 149.7 107.6 L 146.7 81.5 L 145.65746755599974 64.6 L 71.0 64.6 L 71.0 63.0 L 50.4 63.0 L 50.4 86.93225803375245 L 53.4 87.9 L 56.4 89.2 L 59.2 90.7 L 62.0 92.4 L 64.6 94.2 L 67.0 96.3 L 69.4 98.5 L 71.6 100.8 L 73.6 103.3 L 74.2 107.9 L 71.5 111.5 L 66.9 112.1 L 63.3 109.4 L 62.3 107.0 L 61.1 104.7 L 59.8 102.4 L 58.4 100.2 L 56.8 97.9 L 55.1 95.7 L 53.2 93.5 L 50.4 90.5666666984558 L 50.4 183.0 L 38.4 189.0 L 38.4 97.88000001907349 L 37.8 99.7 L 34.6 108.6 L 31.0 117.1 L 27.1 125.4 L 22.9 133.5 L 18.2 141.1 L 13.1 148.4 L 11.6 147.5 L 14.8 139.4 L 18.0 131.2 L 21.1 122.9 L 23.9 114.4 L 26.5 105.8 L 28.9 97.0 L 31.1 88.1 L 33.0 78.9 L 34.6 69.5 L 35.51764707565307 63.0 L 12.4 63.0 L 12.4 59.0 L 38.4 59.0 L 38.4 14.0 L 50.4 16.0 L 53.4 18.0 L 50.4 19.8 L 50.4 59.0 L 55.81818180084228 59.0 L 64.0 50.0 L 74.0 59.0 L 74.0 60.6 L 101.8 60.6 L 101.8 41.8 L 77.7 41.8 L 77.7 37.8 L 101.8 37.8 L 101.8 12.9 L 113.8 14.9 L 116.8 16.9 L 113.8 18.7 L 113.8 37.8 L 116.0 37.8 L 126.0 27.8 L 138.0 37.8 L 138.0 41.8 L 113.8 41.8 L 113.8 60.6 L 145.41071424484252 60.6 L 144.8 50.7 L 144.11952123641967 15.898373222351074 L 144.1 15.9 L 144.1 12.5 L 156.1 14.9 L 159.1 16.9 Z M 75.5 169.4 L 81.6 168.4 L 87.8 167.2 L 93.9 166.1 L 100.0 164.9 L 106.1 163.6 L 109.0867841720581 162.952863407135 L 109.7 160.5 L 111.2 154.6 L 112.5 149.2 L 113.8 144.2 L 114.9 139.8 L 115.9 135.9 L 116.7 132.4 L 117.3 129.5 L 117.8 127.0 L 117.90078535079957 126.04253931045533 L 117.7 126.0 L 118.5 123.5 L 121.1 124.68181819915772 L 121.1 120.0 L 91.7 120.0 L 79.7 126.0 L 79.7 73.9 L 91.7 79.9 L 121.1 79.9 L 127.1 74.9 L 138.1 83.9 L 133.1 87.9 L 133.1 120.0 L 122.48095235824584 125.30952377319336 L 129.5 128.5 L 131.8 131.3 L 127.68571424484253 132.3285714149475 L 124.4 138.9 L 122.6 142.6 L 120.6 146.8 L 118.3 151.3 L 115.8 156.3 L 112.9 161.7 L 112.64092502593994 162.18472089767457 L 118.2 161.0 L 124.4 159.7 L 130.5 158.5 L 136.7 157.4 L 137.3 159.1 L 131.7 162.1 L 126.0 164.8 L 120.2 167.3 L 114.3 169.6 L 108.4 171.8 L 96.4 175.8 L 90.3 177.7 L 82.10307273864746 179.98438959121705 L 80.7 183.6 L 78.1 181.1 L 73.6 169.8 Z M 92.3 150.7 L 92.1 148.2 L 91.8 145.5 L 91.3 142.7 L 90.6 139.8 L 89.7 136.8 L 88.6 133.7 L 87.5 130.4 L 85.8 127.1 L 87.2 126.1 L 89.7 128.9 L 92.2 131.5 L 94.5 134.2 L 96.6 137.0 L 98.4 139.9 L 100.0 142.8 L 101.3 145.8 L 102.5 148.8 L 103.4 151.9 L 104.0 155.0 L 102.4 159.3 L 98.3 161.2 L 94.0 159.6 L 92.0 155.5 L 92.2 153.2 Z M 91.7 83.9 L 91.7 116.0 L 121.1 116.0 L 121.1 83.9 Z M 168.6 36.3 L 167.8 34.1 L 166.9 31.9 L 165.9 29.8 L 164.8 27.6 L 163.5 25.4 L 162.2 23.1 L 160.3 21.2 L 161.4 19.8 L 163.7 21.3 L 166.2 22.6 L 168.6 24.1 L 170.8 25.7 L 172.9 27.6 L 174.9 29.6 L 176.7 31.7 L 178.5 33.9 L 181.5 38.9 L 181.2 43.4 L 177.9 46.6 L 173.3 46.3 L 170.2 42.9 L 169.8 40.7 Z " />
</g>
</svg>
