<svg xmlns="http://www.w3.org/2000/svg" xmlns:xlink="http://www.w3.org/1999/xlink" version="1.1" baseProfile="full" viewBox="0 0 200 200" width="200" height="200">
<g fill="black">
<path d="M 170.7 181.4 L 168.8 182.9 L 166.8 184.2 L 164.7 185.3 L 162.5 186.2 L 160.2 186.9 L 157.9 187.4 L 155.5 187.7 L 153.1 187.8 L 153.1 181.8 L 133.1 178.8 L 133.1 175.8 L 153.1 175.8 L 154.6 175.7 L 157.2 175.3 L 158.5 174.9 L 159.6 174.4 L 160.7 173.8 L 161.8 173.1 L 162.9 172.3 L 163.9 171.4 L 164.9 170.3 L 166.5 168.0 L 167.9 165.2 L 169.3 161.9 L 170.4 157.8 L 171.4 153.2 L 172.2 148.1 L 172.7 142.3 L 172.9 136.0 L 172.9 131.2166666984558 L 172.7 131.3 L 172.7 123.3 L 109.23333330154419 123.3 L 105.5 126.8 L 100.5 131.1 L 95.2 135.1 L 91.62402830123901 137.57067136764528 L 100.8 139.1 L 103.8 141.1 L 100.8 142.9 L 100.8 166.4 L 138.0 166.4 L 148.0 156.4 L 160.0 166.4 L 160.0 170.4 L 100.8 170.4 L 100.8 182.4 L 88.8 188.4 L 88.8 139.44310340881347 L 83.9 142.4 L 77.9 145.6 L 71.5 148.4 L 70.6 146.9 L 75.8 142.4 L 80.8 138.1 L 85.7 133.7 L 90.3 129.3 L 94.7 124.8 L 98.9 120.2 L 102.9 115.6 L 106.6 110.8 L 110.1 105.9 L 111.22200002670289 104.2 L 100.5 104.2 L 100.5 107.2 L 88.5 113.2 L 88.5 51.7 L 100.5 57.7 L 163.1 57.7 L 169.1 52.7 L 180.1 61.7 L 175.1 65.7 L 175.1 106.2 L 163.1 112.2 L 163.1 104.2 L 118.84736843109131 104.2 L 123.3 107.8 L 124.6 111.1 L 120.80842037200928 110.83851175308227 L 119.2 112.8 L 114.9 117.7 L 113.3 119.3 L 172.7 119.3 L 178.7 114.3 L 189.7 123.3 L 184.83216953277588 126.22069826126099 L 184.9 128.9 L 184.9 136.2 L 184.6 143.1 L 184.1 149.4 L 183.2 155.3 L 182.1 160.7 L 180.6 165.7 L 178.8 170.3 L 176.7 174.3 L 174.1 177.9 L 172.4 179.8 Z M 65.2 104.9 L 63.7 102.6 L 62.1 100.4 L 60.3 98.1 L 58.3 95.9 L 56.2 93.6 L 53.9 91.4 L 52.3 89.92799997329712 L 52.3 182.0 L 40.3 188.0 L 40.3 95.3 L 38.7 99.8 L 35.2 108.7 L 31.3 117.3 L 27.1 125.5 L 22.6 133.5 L 17.6 141.2 L 12.1 148.4 L 10.6 147.5 L 14.3 139.3 L 17.8 131.1 L 21.2 122.8 L 24.3 114.3 L 27.3 105.7 L 29.9 96.9 L 32.3 88.0 L 34.4 78.8 L 36.2 69.5 L 37.27058820724487 63.0 L 11.3 63.0 L 11.3 59.0 L 40.3 59.0 L 40.3 14.0 L 52.3 16.0 L 55.3 18.0 L 52.3 19.8 L 52.3 59.0 L 56.7 59.0 L 66.7 49.0 L 78.7 59.0 L 78.7 63.0 L 52.3 63.0 L 52.3 86.65454549789429 L 52.7 86.8 L 56.0 87.8 L 59.2 89.1 L 62.3 90.6 L 65.2 92.3 L 68.0 94.1 L 70.7 96.1 L 73.2 98.3 L 75.5 100.7 L 77.8 103.2 L 78.5 107.7 L 75.9 111.5 L 71.4 112.2 L 67.7 109.7 L 66.5 107.3 Z M 147.3 153.9 L 145.6 151.9 L 143.8 150.0 L 141.9 148.1 L 139.8 146.1 L 137.5 144.2 L 135.1 142.3 L 133.55344829559326 141.1698275566101 L 132.4 142.9 L 129.3 146.8 L 125.9 150.4 L 122.2 153.8 L 118.3 156.8 L 114.0 159.6 L 109.5 161.9 L 104.7 163.9 L 103.7 162.4 L 107.5 159.0 L 110.9 155.5 L 114.1 152.1 L 116.9 148.6 L 119.6 145.0 L 121.9 141.4 L 124.0 137.6 L 125.8 133.8 L 127.3 129.8 L 128.3057499885559 126.62801923751832 L 128.2 126.6 L 129.1 124.2 L 139.9 129.7 L 142.0 132.6 L 138.15848741531372 133.34134454727172 L 137.7 134.3 L 135.4013108253479 138.34569292068483 L 136.8 138.6 L 140.0 139.5 L 143.1 140.5 L 146.0 141.7 L 148.8 143.1 L 151.6 144.6 L 154.2 146.2 L 156.7 148.0 L 159.1 150.0 L 160.6 154.3 L 158.6 158.4 L 154.3 159.9 L 150.2 157.9 L 148.8 155.9 Z M 100.5 83.0 L 100.5 100.2 L 163.1 100.2 L 163.1 83.0 Z M 100.5 61.7 L 100.5 79.0 L 163.1 79.0 L 163.1 61.7 Z M 155.2 14.0 L 158.2 16.0 L 155.2 17.8 L 155.2 31.2 L 165.7 31.2 L 175.7 21.2 L 187.7 31.2 L 187.7 35.2 L 155.2 35.2 L 155.2 49.6 L 143.2 55.6 L 143.2 35.2 L 118.6 35.2 L 118.6 49.6 L 106.6 55.6 L 106.6 35.2 L 74.0 35.2 L 74.0 31.2 L 106.6 31.2 L 106.6 12.0 L 118.6 14.0 L 121.6 16.0 L 118.6 17.8 L 118.6 31.2 L 143.2 31.2 L 143.2 12.0 Z " />
</g>
</svg>
