<svg xmlns="http://www.w3.org/2000/svg" xmlns:xlink="http://www.w3.org/1999/xlink" version="1.1" baseProfile="full" viewBox="0 0 200 200" width="200" height="200">
<g fill="black">
<path d="M 105.3 53.9 L 104.6 51.7 L 103.7 49.5 L 102.7 47.3 L 101.4 45.0 L 100.0 42.7 L 98.4 40.3 L 96.6 37.9 L 95.0666666984558 36.5 L 93.28571424484252 36.5 L 91.8 39.7 L 88.9 45.0 L 85.7 50.1 L 82.2 55.0 L 78.4 59.7 L 74.2 64.0 L 69.7 68.0 L 68.3 66.9 L 70.475 63.0 L 49.8 63.0 L 49.8 86.93225803375245 L 52.8 87.9 L 55.7 89.2 L 58.6 90.7 L 61.3 92.4 L 63.8 94.3 L 66.3 96.3 L 68.6 98.5 L 70.8 100.8 L 72.8 103.3 L 73.3 107.9 L 70.6 111.5 L 66.1 112.1 L 62.4 109.4 L 61.4 107.0 L 60.3 104.7 L 59.1 102.4 L 57.6 100.2 L 56.1 97.9 L 54.4 95.7 L 52.5 93.5 L 50.5 91.3 L 49.8 90.5666666984558 L 49.8 183.0 L 37.8 189.0 L 37.8 98.48666667938232 L 37.4 99.7 L 34.2 108.6 L 30.7 117.1 L 26.8 125.4 L 22.6 133.4 L 18.0 141.1 L 13.0 148.4 L 11.4 147.5 L 14.7 139.4 L 17.8 131.2 L 20.8 122.9 L 23.6 114.5 L 26.2 105.8 L 28.5 97.1 L 30.6 88.1 L 32.5 78.9 L 34.1 69.6 L 35.020930194854735 63.0 L 12.2 63.0 L 12.2 59.0 L 37.8 59.0 L 37.8 14.0 L 49.8 16.0 L 52.8 18.0 L 49.8 19.8 L 49.8 59.0 L 54.918181800842284 59.0 L 63.1 50.0 L 72.82047243118286 58.74842519760132 L 74.0 56.6 L 76.7 51.6 L 79.1 46.4 L 81.3 41.3 L 83.2 36.0 L 84.9 30.7 L 86.4 25.2 L 87.6 19.7 L 88.42406873703003 15.002807998657227 L 88.4 15.0 L 88.5615385055542 14.2192307472229 L 88.6 14.0 L 88.6066180229187 14.001346015930176 L 89.0 12.1 L 100.4 16.4 L 102.9 18.9 L 99.34278602600098 20.193532371520995 L 98.7 22.5 L 96.7 28.4 L 95.04561405181884 32.5 L 116.11818180084228 32.5 L 124.3 23.5 L 134.3 32.5 L 134.3 36.5 L 99.34285717010498 36.5 L 101.0 37.3 L 103.7 38.9 L 106.2 40.7 L 108.5 42.6 L 110.7 44.7 L 112.7 46.9 L 114.5 49.3 L 116.1 51.8 L 117.6 54.5 L 117.1 59.0 L 113.7 62.1 L 109.1 61.6 L 106.1 58.2 L 105.8 56.1 Z M 135.5 60.4 L 138.5 62.4 L 135.5 64.2 L 135.5 75.7 L 163.7 75.7 L 173.7 65.7 L 185.7 75.7 L 185.7 79.7 L 135.5 79.7 L 135.5 93.2 L 159.6 93.2 L 165.6 88.2 L 176.6 97.2 L 171.6 101.2 L 171.6 139.6 L 159.6 145.6 L 159.6 139.6 L 135.5 139.6 L 135.5 154.5 L 166.5 154.5 L 176.5 144.5 L 188.5 154.5 L 188.5 158.5 L 135.5 158.5 L 135.5 182.7 L 123.5 188.7 L 123.5 158.5 L 70.4 158.5 L 70.4 154.5 L 123.5 154.5 L 123.5 139.6 L 99.3 139.6 L 87.3 145.6 L 87.3 87.2 L 99.3 93.2 L 123.5 93.2 L 123.5 58.4 Z M 99.3 118.4 L 99.3 135.6 L 159.6 135.6 L 159.6 118.4 Z M 99.3 114.4 L 159.6 114.4 L 159.6 97.2 L 99.3 97.2 Z M 160.2 53.9 L 159.5 51.7 L 158.7 49.5 L 157.6 47.3 L 156.4 45.0 L 154.9 42.7 L 153.3 40.3 L 151.5 37.9 L 149.9666666984558 36.5 L 146.7707317352295 36.5 L 145.6 38.5 L 142.9 42.3 L 139.9 46.0 L 136.7 49.4 L 133.1 52.5 L 129.4 55.3 L 128.1 54.1 L 130.5 50.2 L 132.7 46.3 L 134.8 42.5 L 136.6 38.6 L 138.3 34.7 L 139.7 30.7 L 141.0 26.6 L 142.0 22.5 L 142.9 18.3 L 143.35949659347534 15.006941223144532 L 143.3 15.0 L 143.48571424484254 14.10238094329834 L 143.5 14.0 L 143.5066180229187 14.001346015930176 L 143.9 12.1 L 155.3 16.4 L 157.8 18.9 L 154.0691466331482 20.256674003601074 L 153.8 21.1 L 152.2 25.7 L 150.2 30.2 L 148.99523811340333 32.5 L 171.71818180084227 32.5 L 179.9 23.5 L 189.9 32.5 L 189.9 36.5 L 154.24285717010497 36.5 L 155.9 37.3 L 158.6 38.9 L 161.1 40.7 L 163.4 42.6 L 165.6 44.7 L 167.6 46.9 L 169.4 49.3 L 171.0 51.8 L 172.5 54.5 L 172.0 59.0 L 168.6 62.1 L 164.1 61.6 L 161.0 58.2 L 160.7 56.1 Z " />
</g>
</svg>
