<svg xmlns="http://www.w3.org/2000/svg" xmlns:xlink="http://www.w3.org/1999/xlink" version="1.1" baseProfile="full" viewBox="0 0 200 200" width="200" height="200">
<g fill="black">
<path d="M 68.2 184.8 L 67.2 180.3 L 69.6 176.4 L 71.4 175.3 L 73.2 173.8 L 75.0 171.9 L 76.8 169.5 L 78.4 166.5 L 79.9 163.1 L 81.3 159.1 L 82.6 154.7 L 83.9 149.9 L 84.8 144.5 L 86.6 144.6 L 87.0 150.1 L 87.3 155.3 L 87.2 160.2 L 86.7 164.8 L 86.0 169.1 L 84.9 173.1 L 83.4 176.8 L 81.6 180.3 L 79.3 183.4 L 76.6 186.1 L 72.2 187.1 Z M 173.9 174.8 L 173.0 171.4 L 171.9 168.0 L 170.5 164.5 L 168.9 161.0 L 167.1 157.3 L 165.0 153.6 L 162.7 149.7 L 160.1 145.8 L 161.4 144.6 L 165.1 147.6 L 168.7 150.6 L 171.9 153.8 L 174.8 157.1 L 177.5 160.5 L 179.9 164.0 L 182.0 167.6 L 183.9 171.3 L 185.5 175.0 L 186.8 178.9 L 185.9 183.4 L 182.1 186.0 L 177.6 185.1 L 175.0 181.3 L 174.6 178.1 Z M 140.2 172.6 L 139.9 169.6 L 139.3 166.5 L 138.5 163.4 L 137.6 160.2 L 136.4 156.9 L 135.0 153.6 L 133.4 150.1 L 131.4 146.8 L 132.8 145.6 L 135.7 148.4 L 138.6 151.1 L 141.2 154.0 L 143.6 157.0 L 145.7 160.2 L 147.5 163.5 L 149.1 166.9 L 150.4 170.4 L 151.5 174.0 L 152.2 177.7 L 150.7 182.0 L 146.7 184.1 L 142.4 182.7 L 140.3 178.6 L 140.3 175.6 Z M 112.6 184.1 L 108.6 182.0 L 107.1 177.7 L 107.6 174.8 L 107.9 171.8 L 108.1 168.8 L 108.1 165.8 L 107.9 162.8 L 107.5 159.7 L 107.0 156.5 L 106.2 153.3 L 105.4 150.0 L 104.1 146.8 L 105.6 145.8 L 107.8 148.7 L 110.1 151.5 L 112.1 154.5 L 113.9 157.6 L 115.4 160.8 L 116.6 164.2 L 117.6 167.7 L 118.3 171.2 L 118.8 174.9 L 119.1 178.6 L 117.0 182.7 Z M 149.5 101.7 L 148.51538457870484 99.42307691574096 L 148.1 101.1 L 144.6 111.1 L 140.4 120.0 L 135.5 127.9 L 129.9 134.8 L 123.5 140.4 L 116.5 144.7 L 115.5 143.2 L 121.0 137.6 L 125.8 131.4 L 130.0 124.5 L 133.6 116.8 L 136.6 108.2 L 139.1 98.8 L 140.9 88.4 L 141.13077573776246 86.3940260887146 L 138.8 83.2 L 135.8 79.5 L 132.6 75.6 L 129.1 71.8 L 130.2 70.3 L 134.9 72.9 L 139.3 75.7 L 142.11048145294188 77.87812309265136 L 142.2 77.1 L 142.8 64.9 L 142.8 50.7 L 127.0 50.7 L 127.0 46.7 L 142.8 46.7 L 142.8 14.0 L 154.8 16.0 L 157.8 18.0 L 154.8 19.8 L 154.8 46.7 L 164.1 46.7 L 170.1 41.7 L 181.1 50.7 L 176.12983293533324 53.682100200653075 L 176.2 65.4 L 176.7 80.3 L 177.4 93.4 L 178.5 104.6 L 179.8 114.0 L 181.4 121.5 L 181.7338345527649 122.52005014419555 L 185.5 106.2 L 187.5 106.2 L 185.5890625 131.0421875 L 185.8 131.3 L 185.575 131.225 L 185.57446804046631 131.2319149017334 L 189.7 133.0 L 191.5 137.2 L 189.7 141.4 L 185.5 143.2 L 179.4 141.4 L 175.0 137.1 L 172.1 131.5 L 169.8 124.6 L 168.0 116.1 L 166.6 106.0 L 165.5 94.3 L 164.7 80.8 L 164.2 65.6 L 164.15902605056763 58.67540578842163 L 164.1 58.7 L 164.1 50.7 L 154.8 50.7 L 154.8 51.7 L 154.2 65.5 L 152.9 78.3 L 151.42267713546752 86.6714961051941 L 153.6 89.2 L 156.5 93.0 L 159.0 97.0 L 161.3 101.2 L 163.2 105.5 L 162.8 110.0 L 159.4 113.0 L 154.9 112.7 L 151.8 109.2 L 150.8 105.5 Z M 122.2 63.5 L 124.2 63.5 L 122.2 76.5 L 124.9 78.3 L 126.7 81.0 L 124.9 83.7 L 122.2 85.5 L 112.6 85.5 L 110.2 85.2 L 108.0 84.6 L 105.8 83.6 L 103.8 82.2 L 102.1 80.3 L 100.8 78.2 L 99.9 75.9 L 99.3 73.5 L 99.0 71.0 L 99.0 56.7 L 90.86274509429931 56.7 L 90.0 61.1 L 88.6 65.9 L 86.8 70.4 L 84.6 74.6 L 82.0 78.5 L 79.1 82.1 L 75.8 85.2 L 72.2 88.0 L 68.2 90.2 L 64.0 92.2 L 63.1 90.7 L 66.2 87.6 L 68.9 84.4 L 71.3 81.1 L 73.4 77.8 L 75.1 74.4 L 76.4 70.8 L 77.5 67.1 L 78.3 63.2 L 78.8 59.2 L 78.9162790298462 56.7 L 67.7444444656372 56.7 L 70.3 59.0 L 70.3 63.0 L 47.8 63.0 L 47.8 86.99677419662476 L 50.6 87.9 L 53.4 89.3 L 56.2 90.8 L 58.9 92.4 L 61.4 94.3 L 63.8 96.3 L 66.0 98.5 L 67.8 100.46363639831543 L 67.8 99.2 L 88.3 99.2 L 88.3 80.0 L 100.3 82.0 L 103.3 84.0 L 100.3 85.8 L 100.3 99.2 L 104.01818180084229 99.2 L 112.2 90.2 L 122.2 99.2 L 122.2 103.2 L 100.3 103.2 L 100.3 122.1641791343689 L 101.3 122.0 L 108.6 121.0 L 116.4 120.0 L 124.8 119.1 L 125.2 120.8 L 117.3 123.7 L 109.8 126.2 L 102.8 128.4 L 96.3 130.5 L 90.3 132.3 L 84.8 133.9 L 79.8 135.5 L 75.3 136.8 L 72.02870244979859 137.80655307769774 L 70.5 141.6 L 67.9 139.1 L 63.4 127.8 L 65.4 127.4 L 68.9 126.9 L 73.0 126.3 L 77.6 125.7 L 82.7 124.9 L 88.3 124.01578950881958 L 88.3 103.2 L 69.94799995422363 103.2 L 70.1 103.4 L 70.6 107.9 L 67.9 111.6 L 63.3 112.1 L 59.7 109.3 L 58.8 106.9 L 57.7 104.6 L 56.5 102.4 L 55.1 100.1 L 53.6 97.9 L 52.0 95.7 L 50.2 93.5 L 48.3 91.3 L 47.8 90.77619047164917 L 47.8 182.0 L 35.8 188.0 L 35.8 99.375 L 35.7 99.7 L 32.5 108.5 L 29.1 117.1 L 25.3 125.4 L 21.2 133.4 L 16.7 141.1 L 11.7 148.4 L 10.2 147.5 L 13.3 139.4 L 16.3 131.2 L 19.2 122.9 L 21.9 114.5 L 24.4 105.9 L 26.7 97.1 L 28.8 88.1 L 30.6 79.0 L 32.2 69.6 L 33.04418601989746 63.0 L 11.0 63.0 L 11.0 59.0 L 35.8 59.0 L 35.8 14.0 L 47.8 16.0 L 50.8 18.0 L 47.8 19.8 L 47.8 59.0 L 52.11818180084229 59.0 L 60.3 50.0 L 65.0 54.230000019073486 L 65.0 52.7 L 88.3 52.7 L 88.3 34.2 L 68.5 34.2 L 68.5 30.2 L 88.3 30.2 L 88.3 12.5 L 100.3 14.5 L 103.3 16.5 L 100.3 18.3 L 100.3 30.2 L 104.71818180084229 30.2 L 112.9 21.2 L 122.9 30.2 L 122.9 34.2 L 100.3 34.2 L 100.3 52.7 L 112.27777776718139 52.7 L 118.5 45.7 L 126.5 52.7 L 126.5 56.7 L 111.0 56.7 L 111.0 71.0 L 110.9 72.2 L 110.9 73.2 L 111.0 73.9 L 111.1 74.4 L 111.2 74.7 L 111.4 75.1 L 111.8 75.5 L 112.6 75.9 L 113.6 76.2 L 115.0 76.5 L 117.7 76.5 Z " />
</g>
</svg>
