<svg xmlns="http://www.w3.org/2000/svg" xmlns:xlink="http://www.w3.org/1999/xlink" version="1.1" baseProfile="full" viewBox="0 0 200 200" width="200" height="200">
<g fill="black">
<path d="M 161.8 182.9 L 153.5 179.8 L 145.4 176.4 L 137.7 172.6 L 130.4 168.6 L 123.4 164.2 L 116.8 159.5 L 110.7 154.4 L 105.8875 149.5 L 105.0 149.5 L 105.0 186.7 L 95.0 191.7 L 95.0 154.469642829895 L 92.7 156.4 L 86.6 160.9 L 79.8 165.2 L 72.3 169.1 L 64.3 172.8 L 55.6 176.2 L 46.2 179.3 L 36.2 182.2 L 25.5 184.6 L 14.2 186.7 L 13.7 184.9 L 24.5 181.0 L 34.6 177.1 L 43.9 173.2 L 52.6 169.2 L 60.6 165.1 L 67.9 160.9 L 74.4 156.7 L 80.2 152.3 L 83.37333335876465 149.5 L 15.0 149.5 L 15.0 145.5 L 95.0 145.5 L 95.0 129.6 L 52.44516124725342 129.6 L 50.3 131.5 L 46.5 134.6 L 42.5 137.5 L 38.1 140.3 L 33.4 142.9 L 28.5 145.3 L 27.4 143.8 L 31.4 140.0 L 35.0 136.3 L 38.4 132.7 L 41.5 129.2 L 44.4 125.8 L 46.9 122.4 L 49.2 119.1 L 51.1 115.8 L 52.8 112.5 L 53.72955141067505 110.21187334060669 L 53.7 110.2 L 53.88333330154419 109.83333330154419 L 54.1 109.3 L 54.13999996185303 109.31999998092651 L 54.7 108.2 L 64.9 114.7 L 66.6 117.8 L 62.60365858078003 118.14451217651367 L 62.5 118.3 L 59.9 121.8 L 57.0 125.1 L 56.515151500701904 125.6 L 95.0 125.6 L 95.0 106.7 L 105.0 108.7 L 107.5 110.7 L 105.0 112.36666669845582 L 105.0 125.6 L 146.0 125.6 L 150.87600002288818 120.72399997711182 L 148.9 120.8 L 148.9 114.8 L 136.9 111.8 L 136.9 108.8 L 150.1 108.8 L 151.1 108.6 L 151.6 108.4 L 152.2 108.1 L 152.3 107.9 L 152.5 107.6 L 152.7 107.0 L 152.8 106.1 L 152.9 104.8 L 152.9 97.8 L 124.8 97.8 L 124.8 110.4 L 113.8 115.9 L 113.8 97.8 L 86.1 97.8 L 86.1 110.4 L 75.1 115.9 L 75.1 97.8 L 47.0 97.8 L 47.0 112.6 L 35.0 118.6 L 35.0 72.54285717010498 L 33.5 72.9 L 22.6 74.9 L 11.1 76.4 L 10.8 74.7 L 21.7 71.2 L 32.1 67.7 L 42.0 64.2 L 51.5 60.5 L 60.4 56.6 L 68.9 52.5 L 76.8 48.3 L 84.2 43.9 L 91.2 39.2 L 94.26666669845581 36.9 L 43.3 36.9 L 31.3 42.9 L 31.3 15.2 L 43.3 17.2 L 46.3 19.2 L 43.3 21.0 L 43.3 32.9 L 94.0 32.9 L 94.0 8.4 L 106.0 10.4 L 109.0 12.4 L 106.0 14.2 L 106.0 32.9 L 155.6 32.9 L 155.6 15.2 L 167.6 17.2 L 170.6 19.2 L 167.6 21.0 L 167.6 36.9 L 155.6 42.9 L 155.6 36.9 L 99.4489583015442 36.9 L 102.45236682891846 40.96094675064087 L 114.3 45.7 L 121.9 48.7 L 129.6 51.4 L 137.5 54.0 L 145.6 56.3 L 154.0 58.5 L 162.5 60.4 L 171.2 62.1 L 180.2 63.6 L 189.5 65.3 L 177.7 76.6 L 168.5 74.3 L 159.6 71.8 L 150.9 69.1 L 145.0 66.92261905670166 L 145.0 70.2 L 55.0 70.2 L 55.0 67.2770833015442 L 54.0 67.6 L 44.0 70.4 L 37.09032258987427 72.04516124725342 L 47.0 77.0 L 152.9 77.0 L 158.9 72.0 L 169.9 81.0 L 164.9 85.0 L 164.9 104.8 L 164.8 107.4 L 164.3 109.9 L 163.5 112.3 L 162.3 114.6 L 160.7 116.6 L 158.87164182662963 117.99303483963013 L 168.0 125.6 L 168.0 129.6 L 105.0 129.6 L 105.0 145.5 L 163.0 145.5 L 173.0 135.5 L 185.0 145.5 L 185.0 149.5 L 110.26666669845581 149.5 L 113.1 151.0 L 120.0 154.5 L 127.0 157.9 L 134.2 161.1 L 141.6 164.1 L 149.2 166.9 L 157.1 169.4 L 165.3 171.7 L 173.7 173.7 L 182.4 175.5 L 191.3 177.5 L 179.5 188.4 L 170.5 185.8 Z M 47.0 81.0 L 47.0 93.8 L 75.1 93.8 L 75.1 81.0 Z M 86.1 81.0 L 86.1 93.8 L 113.8 93.8 L 113.8 81.0 Z M 124.8 81.0 L 124.8 93.8 L 152.9 93.8 L 152.9 81.0 Z M 97.4 48.7 L 89.6 53.1 L 81.4 57.2 L 72.7 61.0 L 63.6 64.5 L 58.33548383712768 66.2 L 126.81818180084228 66.2 L 131.25956058502197 61.31448335647583 L 126.4 59.1 L 118.9 55.2 L 111.6 51.0 L 104.8384614944458 46.49230766296387 L 104.9 47.6 L 101.35299224853516 46.154922771453855 Z " />
</g>
</svg>
