<svg xmlns="http://www.w3.org/2000/svg" xmlns:xlink="http://www.w3.org/1999/xlink" version="1.1" baseProfile="full" viewBox="0 0 200 200" width="200" height="200">
<g fill="black">
<path d="M 68.4 185.5 L 67.9 181.0 L 70.6 177.3 L 72.3 176.7 L 73.9 175.8 L 75.5 174.5 L 77.1 172.9 L 78.6 170.8 L 80.0 168.4 L 81.4 165.5 L 82.6 162.3 L 83.8 158.6 L 84.5 154.6 L 86.3 154.6 L 86.5 158.9 L 86.8 162.9 L 86.7 166.7 L 86.3 170.4 L 85.6 173.8 L 84.6 177.0 L 83.2 180.1 L 81.4 182.9 L 79.2 185.5 L 76.6 187.7 L 72.1 188.3 Z M 169.9 178.0 L 169.1 175.6 L 168.1 173.0 L 166.9 170.3 L 165.4 167.6 L 163.7 164.7 L 161.7 161.7 L 159.5 158.6 L 156.8 155.7 L 158.0 154.3 L 161.3 156.6 L 164.7 158.7 L 167.8 161.0 L 170.6 163.3 L 173.1 165.8 L 175.4 168.4 L 177.5 171.0 L 179.4 173.8 L 180.9 176.7 L 182.3 179.6 L 181.6 184.2 L 177.9 186.9 L 173.4 186.2 L 170.6 182.6 L 170.4 180.4 Z M 137.5 176.1 L 137.3 173.9 L 136.8 171.7 L 136.2 169.4 L 135.3 166.9 L 134.2 164.4 L 132.9 161.7 L 131.4 158.9 L 129.4 156.4 L 130.6 155.1 L 133.2 157.2 L 136.0 159.1 L 138.4 161.2 L 140.7 163.4 L 142.7 165.7 L 144.5 168.1 L 146.1 170.7 L 147.4 173.4 L 148.5 176.2 L 149.3 179.1 L 147.9 183.4 L 143.9 185.6 L 139.6 184.2 L 137.4 180.1 L 137.5 178.2 Z M 111.2 185.6 L 107.1 183.4 L 105.7 179.1 L 106.3 177.1 L 106.6 175.1 L 106.8 173.1 L 106.9 170.9 L 106.8 168.7 L 106.5 166.4 L 106.0 164.0 L 105.3 161.5 L 104.5 158.8 L 103.1 156.4 L 104.5 155.3 L 106.5 157.5 L 108.7 159.5 L 110.6 161.7 L 112.3 164.0 L 113.8 166.4 L 115.0 168.9 L 116.1 171.6 L 116.9 174.3 L 117.4 177.2 L 117.7 180.1 L 115.5 184.2 Z M 164.4 141.9 L 161.7 138.4 L 159.3 134.8 L 157.0 131.1 L 155.0 127.3 L 153.6 124.17058820724488 L 153.6 149.8 L 141.6 155.8 L 141.6 127.96666669845581 L 139.4 130.9 L 135.8 135.1 L 131.9 138.8 L 127.7 142.2 L 123.2 145.2 L 118.4 147.8 L 113.3 149.8 L 112.4 148.2 L 116.3 144.6 L 119.9 141.0 L 122.44780931472778 138.3023196220398 L 118.0 138.5 L 114.5 135.5 L 114.2 133.9 L 113.7 132.3 L 113.0 130.7 L 112.1 129.1 L 111.1 127.5 L 109.8 125.8 L 108.4 124.2 L 107.9 123.7 L 107.9 149.8 L 95.9 155.8 L 95.9 128.76875 L 94.0 131.5 L 90.5 135.8 L 86.8 139.8 L 82.8 143.5 L 78.5 146.8 L 73.9 149.6 L 68.9 152.0 L 67.9 150.5 L 71.5 146.7 L 74.9 142.8 L 78.1 138.9 L 81.0 134.9 L 83.7 130.8 L 86.2 126.5 L 88.4 122.0 L 90.4 117.4 L 92.1 112.5 L 92.41935482025147 111.4 L 72.9 111.4 L 72.9 108.21081085205078 L 69.9 110.4 L 65.3 109.7 L 62.7 106.0 L 63.350118732452394 101.72779092788696 L 59.5 101.3 L 56.5 97.8 L 56.2 95.7 L 55.7 93.5 L 55.0 91.2 L 54.1 88.8 L 53.0 86.4 L 51.7 83.9 L 50.2 81.3 L 48.5 78.6 L 48.5 183.0 L 36.5 189.0 L 36.5 99.7 L 33.3 108.5 L 29.9 117.1 L 26.2 125.4 L 22.1 133.4 L 17.6 141.1 L 12.7 148.4 L 11.1 147.5 L 14.2 139.4 L 17.2 131.2 L 20.1 122.9 L 22.8 114.5 L 25.3 105.9 L 27.5 97.1 L 29.6 88.1 L 31.4 79.0 L 32.9 69.6 L 33.82093019485474 63.0 L 11.9 63.0 L 11.9 59.0 L 36.5 59.0 L 36.5 14.0 L 48.5 16.0 L 51.5 18.0 L 48.5 19.8 L 48.5 59.0 L 52.61818180084229 59.0 L 60.8 50.0 L 70.8 59.0 L 70.8 63.0 L 48.5 63.0 L 48.5 74.01999998092651 L 51.3 75.7 L 54.1 77.6 L 56.7 79.7 L 59.1 81.9 L 61.3 84.2 L 63.3 86.5 L 65.1 89.0 L 66.6 91.6 L 67.78238344192505 93.88031091690064 L 68.0 93.3 L 68.9 90.5 L 69.7 87.5 L 70.4 84.1 L 71.2 80.3 L 71.5 76.3 L 73.02965297698975 76.3 L 71.7 20.1 L 81.30203313827515 24.62327184677124 L 81.8 24.2 L 83.6 22.6 L 85.4 21.1 L 87.0 19.7 L 88.4 18.3 L 89.8 17.0 L 91.0 15.8 L 92.0 14.6 L 92.25156621932983 14.292530155181884 L 92.1 14.1 L 92.26276597976684 14.278841590881347 L 92.9 13.5 L 96.45202159881592 18.881850814819337 L 100.2 23.0 L 100.4 26.6 L 95.87752809524537 24.661797714233398 L 94.3 25.1 L 90.3 26.1 L 88.1 26.6 L 85.8 27.1 L 83.8391547203064 27.41373519897461 L 84.20277299880982 42.4 L 89.3 42.4 L 93.8 36.4 L 99.8 42.4 L 99.8 46.4 L 84.2998267173767 46.4 L 84.64436740875244 60.6 L 89.3 60.6 L 93.8 54.6 L 99.8 60.6 L 99.8 64.6 L 84.74142112731934 64.6 L 85.15147314071655 81.5 L 101.5 81.5 L 101.5 14.2 L 110.5 18.7 L 138.4 18.7 L 142.9 13.7 L 151.9 22.226315784454346 L 151.9 21.4 L 165.0 21.4 L 171.0 16.4 L 182.0 25.4 L 177.0 28.4 L 175.97753286361694 28.826027965545656 L 175.72633810043334 78.31138486862183 L 177.9 76.5 L 188.9 85.5 L 183.9 88.5 L 180.42086334228514 89.94964027404785 L 180.0 90.5 L 178.6 92.4 L 177.1 94.4 L 175.5 96.6 L 173.7 98.9 L 171.7 101.3 L 170.89157171249389 102.26241455078124 L 176.6 107.4 L 176.6 111.4 L 153.6 111.4 L 153.6 113.51599998474121 L 153.9 113.9 L 158.9 120.1 L 161.5 123.0 L 164.2 125.9 L 166.9 128.6 L 169.8 131.3 L 172.7 133.9 L 175.8 136.4 L 179.0 138.8 L 181.1 140.7 L 170.3 148.7 L 167.2 145.4 Z M 122.99090909957886 137.72727270126342 L 123.3 137.4 L 123.86363639831544 136.70909090042113 Z M 75.0 87.7 L 75.3 91.1 L 75.5 94.3 L 75.5 97.3 L 75.3 100.1 L 75.0 102.8 L 74.4 105.3 L 73.7 107.4 L 95.9 107.4 L 95.9 88.9 L 107.9 90.9 L 110.9 92.9 L 107.9 94.7 L 107.9 107.4 L 112.1777777671814 107.4 L 118.4 100.4 L 126.4 107.4 L 126.4 111.4 L 107.9 111.4 L 107.9 119.10384616851806 L 108.4 119.2 L 111.0 119.9 L 113.4 120.8 L 115.7 121.9 L 117.9 123.2 L 120.0 124.6 L 121.9 126.3 L 123.7 128.2 L 125.3 130.2 L 125.49600534439087 134.70812253952028 L 126.4 133.6 L 129.2 129.7 L 131.8 125.6 L 134.1 121.4 L 136.1 116.9 L 137.9 112.3 L 138.14827585220337 111.4 L 127.0 111.4 L 127.0 107.4 L 141.6 107.4 L 141.6 88.9 L 153.6 90.9 L 156.6 92.9 L 153.6 94.7 L 153.6 107.4 L 158.4181818008423 107.4 L 166.6 98.4 L 168.20349130630493 99.84314212799072 L 168.3 99.5 L 169.0 96.5 L 169.8 93.8 L 170.4 91.2 L 171.0 88.8 L 171.5 86.7 L 171.68000001907347 85.5 L 74.6944444656372 85.5 Z M 110.5 22.7 L 110.5 81.5 L 138.4 81.5 L 138.4 53.18000001907349 L 135.6 54.3 L 135.6 70.5 L 127.6 74.5 L 127.6 70.5 L 121.3 70.5 L 113.3 74.5 L 113.3 44.3 L 121.3 48.3 L 127.6 48.3 L 131.6 43.3 L 138.4 50.1 L 138.4 22.7 Z M 147.4 25.2 L 147.4 81.5 L 163.74326124191285 81.5 L 164.1088186264038 64.6 L 149.1 64.6 L 149.1 60.6 L 164.1953411102295 60.6 L 164.50249586105346 46.4 L 149.1 46.4 L 149.1 42.4 L 164.58901834487915 42.4 L 164.95673875808717 25.4 L 151.9 25.4 L 151.9 22.95 Z M 121.3 52.3 L 121.3 66.5 L 127.6 66.5 L 127.6 52.3 Z M 136.8 35.1 L 136.8 39.1 L 112.1 39.1 L 112.1 35.1 L 122.5777777671814 35.1 L 128.8 28.1 Z " />
</g>
</svg>
