<svg xmlns="http://www.w3.org/2000/svg" xmlns:xlink="http://www.w3.org/1999/xlink" version="1.1" baseProfile="full" viewBox="0 0 200 200" width="200" height="200">
<g fill="black">
<path d="M 123.2 100.7 L 150.3 100.7 L 156.3 95.7 L 167.3 104.7 L 162.3 108.7 L 162.3 121.5 L 162.2 122.8 L 162.1 123.8 L 162.2 124.5 L 162.2 125.0 L 162.3 125.5 L 162.6 125.9 L 163.0 126.4 L 163.8 126.9 L 164.9 127.3 L 166.3 127.5 L 179.5 127.5 L 183.5 118.5 L 185.5 118.5 L 183.5 127.5 L 185.9 129.1 L 187.5 131.5 L 185.9 133.9 L 183.5 135.5 L 166.3 135.5 L 163.9 135.6 L 161.6 135.4 L 159.4 134.9 L 157.2 133.9 L 155.3 132.6 L 153.6 130.8 L 152.2 128.8 L 151.3 126.5 L 150.6 124.1 L 150.3 121.5 L 150.3 104.7 L 123.2 104.7 L 123.2 115.3 L 122.5 119.2 L 121.0 122.8 L 119.0 126.1 L 116.4 129.1 L 113.3 131.7 L 109.8 134.1 L 105.8 136.2 L 101.4 138.1 L 96.5 139.7 L 92.02216062545776 141.0518005371094 L 94.0 142.7 L 94.0 146.7 L 63.094117641448975 146.7 L 63.0 146.81034479141235 L 63.0 150.84102563858033 L 66.1 151.0 L 69.9 151.5 L 73.5 152.0 L 77.0 152.8 L 80.2 153.6 L 83.4 154.5 L 86.4 155.5 L 89.2 156.7 L 91.9 158.0 L 94.3 161.8 L 93.4 166.3 L 89.6 168.7 L 85.1 167.8 L 83.4 166.3 L 81.4 164.7 L 79.2 163.1 L 76.8 161.5 L 74.2 160.0 L 71.3 158.4 L 68.3 156.8 L 65.0 155.1 L 63.0 154.12857141494752 L 63.0 182.6 L 51.0 188.6 L 51.0 159.56428575515747 L 50.1 160.4 L 45.6 164.0 L 40.8 167.3 L 35.7 170.4 L 30.3 173.2 L 24.6 175.7 L 18.6 177.9 L 12.3 179.6 L 11.6 177.9 L 17.0 174.5 L 22.1 171.0 L 26.9 167.6 L 31.4 164.1 L 35.6 160.6 L 39.5 156.9 L 43.1 153.2 L 46.4 149.3 L 48.35 146.7 L 16.0 146.7 L 16.0 142.7 L 51.0 142.7 L 51.0 126.3 L 63.0 128.3 L 66.0 130.3 L 63.0 132.1 L 63.0 142.7 L 72.0 142.7 L 78.50526313781738 136.19473686218262 L 78.0 135.5 L 77.0 134.4 L 75.9 133.3 L 74.6 132.1 L 73.1 130.9 L 71.5 129.6 L 69.7 128.2 L 67.6 127.4 L 68.2 125.7 L 70.4 126.3 L 72.7 126.3 L 74.8 126.4 L 76.48301439285278 126.5602870941162 L 75.3 125.9 L 70.7 123.6 L 65.7 121.3 L 62.71565418243408 120.00490655899048 L 61.3 120.8 L 53.7 124.5 L 45.9 128.0 L 37.9 131.0 L 29.6 133.7 L 21.0 135.9 L 12.2 137.6 L 11.7 135.9 L 19.8 132.3 L 27.7 128.7 L 35.3 125.0 L 42.7 121.1 L 49.8 117.0 L 52.02080926895142 115.62832374572754 L 48.7 114.3 L 42.4 112.0 L 35.8 109.6 L 28.9 107.0 L 21.7 104.3 L 22.1 102.5 L 29.8 103.3 L 37.2 104.4 L 44.2 105.6 L 50.9 107.1 L 57.3 108.6 L 61.243093967437744 109.63425416946411 L 63.2 108.3 L 69.5 103.6 L 75.5 98.7 L 80.50920372009277 94.20898971557617 L 80.5 94.2 L 81.4 93.4 L 89.1 102.6 L 89.6 106.2 L 85.9725703239441 104.96926488876343 L 82.5 107.6 L 75.7 112.3 L 73.87604112625122 113.43034076690674 L 74.7 113.7 L 79.9 115.5 L 84.9 117.5 L 87.9 120.9 L 87.7 125.5 L 84.63430652618408 128.12773723602294 L 85.9 128.5 L 87.5 129.2 L 89.5 133.2 L 88.3 137.6 L 88.03987913131714 137.73323259353637 L 90.61492538452148 139.8791045188904 L 90.5 139.6 L 95.2 137.0 L 99.3 134.1 L 102.7 131.3 L 105.6 128.7 L 107.9 126.1 L 109.6 123.6 L 110.7 121.2 L 111.2 119.1 L 111.4 117.1 L 111.2 115.3 L 111.2 94.7 Z M 158.3 183.4 L 149.1 180.4 L 140.9 176.8 L 137.6099045753479 174.97710933685303 L 137.0 175.3 L 127.7 179.2 L 117.6 182.3 L 106.7 184.8 L 95.0 186.6 L 82.5 187.5 L 82.2 185.8 L 94.3 182.8 L 105.4 179.6 L 115.6 176.1 L 124.8 172.1 L 129.4222004890442 169.70536603927613 L 127.1 168.0 L 121.7 162.8 L 117.3 157.1 L 114.2 150.9 L 112.70606060028076 145.1 L 101.9 145.1 L 101.9 141.1 L 159.7 141.1 L 160.03575134277344 140.82020721435546 L 160.4 140.2 L 160.62852230072022 140.32623138427735 L 165.7 136.1 L 176.7 145.1 L 171.7 148.1 L 168.522149848938 149.4241042137146 L 165.9 153.2 L 159.9 159.8 L 153.1 165.6 L 148.67696475982666 168.6262872695923 L 152.6 169.9 L 161.2 172.0 L 170.6 173.6 L 180.9 174.8 L 191.2 176.1 L 179.3 188.0 L 168.4 186.0 Z M 115.12307691574097 145.1 L 117.9 148.9 L 122.0 153.5 L 126.7 157.6 L 132.0 161.3 L 138.02685031890869 164.5604271888733 L 140.4 163.0 L 146.7 157.9 L 152.2 152.4 L 156.7 146.5 L 157.5222222328186 145.1 Z M 24.7 84.8 L 40.0 84.8 L 40.9 84.6 L 41.5 84.4 L 41.8 84.2 L 42.0 84.1 L 42.2 83.9 L 42.5 83.0 L 42.7 82.1 L 42.8 80.8 L 42.8 61.70454549789429 L 38.3 63.0 L 31.6 64.7 L 24.9 66.5 L 22.165237998962404 67.19389486312866 L 20.7 70.7 L 18.2 68.2 L 13.8 56.8 L 15.8 56.4 L 36.2 53.1 L 42.8 52.114925384521484 L 42.8 32.4 L 15.2 32.4 L 15.2 28.4 L 42.8 28.4 L 42.8 10.2 L 54.8 12.2 L 57.8 14.2 L 54.8 16.0 L 54.8 28.4 L 61.1 28.4 L 71.1 18.4 L 83.1 28.4 L 83.1 32.4 L 54.8 32.4 L 54.8 50.2238805770874 L 63.0 49.0 L 69.6 48.1 L 76.2 47.3 L 82.9 46.8 L 83.3 48.5 L 77.1 51.0 L 70.8 53.3 L 64.4 55.4 L 58.0 57.4 L 54.8 58.33538465499878 L 54.8 80.8 L 54.6 83.4 L 54.2 85.9 L 53.4 88.3 L 52.1 90.6 L 50.5 92.6 L 48.5 94.2 L 46.2 95.4 L 43.8 96.3 L 41.3 96.7 L 38.8 96.8 L 38.8 90.8 L 24.7 87.8 Z M 104.8 21.6 L 104.8 21.993406581878663 L 107.8 21.4 L 116.4 19.7 L 124.5 18.3 L 132.1 16.9 L 139.2 15.6 L 145.8 14.4 L 151.9 13.2 L 157.5 12.0 L 162.5 10.9 L 166.1357168197632 10.030589485168457 L 166.1 9.9 L 166.2297297477722 10.008108139038086 L 167.1 9.8 L 167.30602006912233 10.905016708374024 L 178.1 19.9 L 178.5 22.9 L 174.06065578460692 20.680327892303467 L 169.3 21.6 L 164.4 22.1 L 159.1 22.6 L 153.3 23.1 L 147.0 23.6 L 140.3 24.0 L 133.0 24.5 L 125.2 24.8 L 116.9 25.1 L 108.1 25.1 L 104.8 25.064516162872316 L 104.8 42.3 L 164.8 42.3 L 174.8 32.3 L 186.8 42.3 L 186.8 46.3 L 153.2 46.3 L 153.2 89.8 L 141.2 95.8 L 141.2 46.3 L 104.8 46.3 L 104.8 55.3 L 104.0 61.6 L 102.4 67.4 L 100.0 72.9 L 96.8 77.7 L 92.8 82.1 L 88.1 85.8 L 82.7 89.0 L 76.7 91.7 L 70.0 93.7 L 62.7 95.1 L 62.2 93.3 L 68.7 90.1 L 74.3 86.8 L 79.2 83.5 L 83.3 80.0 L 86.6 76.3 L 89.1 72.5 L 90.9 68.6 L 92.1 64.4 L 92.7 60.0 L 92.8 55.3 L 92.8 15.6 Z " />
</g>
</svg>
