<svg xmlns="http://www.w3.org/2000/svg" xmlns:xlink="http://www.w3.org/1999/xlink" version="1.1" baseProfile="full" viewBox="0 0 200 200" width="200" height="200">
<g fill="black">
<path d="M 70.0 176.8 L 91.2 176.8 L 92.1 176.6 L 92.7 176.4 L 93.0 176.2 L 93.2 176.1 L 93.4 175.9 L 93.7 175.0 L 93.9 174.1 L 94.0 172.8 L 94.0 68.5 L 21.7 68.5 L 21.7 64.5 L 94.0 64.5 L 94.0 32.82792205810547 L 82.5 33.5 L 66.9 34.2 L 51.1 34.7 L 35.1 34.8 L 19.0 34.5 L 18.9 32.7 L 35.0 31.0 L 50.8 29.3 L 66.4 27.7 L 81.8 25.9 L 97.0 24.1 L 112.1 22.2 L 126.9 20.1 L 141.4 17.9 L 155.8 15.5 L 170.0 13.0 L 170.18941650390624 14.186345386505128 L 181.3 23.4 L 181.7 26.3 L 177.25141582489013 24.0460506439209 L 171.9 24.9 L 157.5 26.8 L 142.9 28.5 L 128.1 30.1 L 113.1 31.4 L 108.37878789901734 31.772727298736573 L 106.0 33.2 L 106.0 64.5 L 156.2 64.5 L 166.2 54.5 L 178.2 64.5 L 178.2 68.5 L 106.0 68.5 L 106.0 85.7 L 110.3 98.2 L 115.1 109.8 L 120.5 120.3 L 123.50894365310668 125.0641607284546 L 125.3 123.2 L 130.0 118.2 L 134.7 113.4 L 139.3 108.8 L 143.7 104.2 L 147.9 99.8 L 151.9 95.4 L 155.7 91.0 L 159.4 86.7 L 162.13259258270264 83.3244444847107 L 162.1 83.3 L 162.5481481552124 82.81111106872558 L 162.8 82.5 L 162.81827516555785 82.51642713546752 L 163.2 82.1 L 171.7 90.5 L 172.6 94.0 L 168.91176471710205 93.28823528289794 L 167.7 94.5 L 163.4 98.5 L 158.9 102.5 L 154.3 106.5 L 149.4 110.5 L 144.3 114.5 L 139.0 118.4 L 133.5 122.3 L 127.6 126.1 L 125.0963544845581 127.57756128311158 L 126.5 129.8 L 133.1 138.3 L 140.5 145.9 L 148.6 152.5 L 157.4 158.2 L 166.9 163.0 L 177.2 167.0 L 184.3 169.5 L 172.7 179.4 L 161.5 174.3 L 151.1 168.2 L 141.7 161.2 L 133.3 153.1 L 125.9 144.1 L 119.4 134.3 L 114.0 123.5 L 109.6 111.9 L 106.3 99.4 L 106.0 97.38999996185302 L 106.0 172.8 L 105.8 175.4 L 105.4 177.9 L 104.6 180.3 L 103.3 182.6 L 101.7 184.6 L 99.7 186.2 L 97.4 187.5 L 95.0 188.3 L 92.5 188.7 L 90.0 188.8 L 90.0 182.8 L 70.0 179.8 Z M 88.0 102.5 L 83.0 105.5 L 81.91165313720703 105.95347785949707 L 80.8 111.3 L 77.7 120.9 L 73.6 130.0 L 68.4 138.6 L 62.3 146.6 L 55.2 154.0 L 47.2 160.9 L 38.2 167.2 L 28.3 172.8 L 17.4 177.7 L 16.5 176.1 L 26.3 169.5 L 35.1 162.8 L 42.9 155.9 L 49.7 148.8 L 55.6 141.4 L 60.5 133.7 L 64.5 125.7 L 67.6 117.4 L 69.7 108.8 L 70.61000003814698 102.5 L 28.0 102.5 L 28.0 98.5 L 71.0 98.5 L 77.0 93.5 Z " />
</g>
</svg>
