<svg xmlns="http://www.w3.org/2000/svg" xmlns:xlink="http://www.w3.org/1999/xlink" version="1.1" baseProfile="full" viewBox="0 0 200 200" width="200" height="200">
<g fill="black">
<path d="M 37.0 43.0 L 101.0 43.0 L 101.0 28.0 L 36.0 28.0 L 36.0 24.0 L 152.0 24.0 L 162.0 14.0 L 174.0 24.0 L 174.0 28.0 L 113.0 28.0 L 113.0 43.0 L 168.0 43.0 L 174.0 38.0 L 185.0 47.0 L 180.0 50.0 L 176.90769233703614 51.2884614944458 L 175.5 53.4 L 174.0 55.4 L 172.4 57.4 L 170.8 59.3 L 169.1 61.2 L 167.3 62.9 L 165.3 64.6 L 163.7 66.5 L 162.2 65.4 L 163.3 63.3 L 164.0 60.9 L 164.7 58.6 L 165.3 56.3 L 166.0 54.0 L 166.5 51.8 L 167.0 49.5 L 167.5 47.3 L 167.55454549789428 47.0 L 113.0 47.0 L 113.0 62.0 L 140.8181818008423 62.0 L 149.0 53.0 L 159.0 62.0 L 159.0 66.0 L 113.0 66.0 L 113.0 81.0 L 151.8181818008423 81.0 L 160.0 72.0 L 170.0 81.0 L 170.0 85.0 L 113.0 85.0 L 113.0 103.31428575515747 L 115.3 108.9 L 119.9 118.2 L 125.0 126.8 L 128.41768293380738 131.4768292427063 L 130.0 130.0 L 134.4 125.9 L 138.8 122.0 L 143.0 118.2 L 147.1 114.3 L 151.0 110.6 L 154.7 106.8 L 158.3 103.0 L 161.7 99.3 L 164.21574010849 96.31255865097046 L 164.2 96.3 L 164.557142829895 95.90714282989502 L 164.9 95.5 L 164.91460552215577 95.51393394470215 L 165.2 95.2 L 173.6 103.8 L 174.4 107.3 L 170.59305725097656 106.49853839874268 L 169.7 107.3 L 165.7 110.8 L 161.4 114.3 L 157.0 117.6 L 152.5 120.9 L 147.7 124.1 L 142.7 127.3 L 137.6 130.3 L 132.1 133.1 L 130.22788457870485 133.95394735336305 L 130.7 134.6 L 137.0 141.6 L 143.9 147.8 L 151.4 153.3 L 159.6 158.1 L 168.5 162.3 L 178.1 165.7 L 185.4 168.2 L 173.8 178.2 L 163.4 173.7 L 153.7 168.4 L 145.0 162.3 L 137.1 155.4 L 130.0 147.8 L 123.9 139.5 L 118.8 130.4 L 114.5 120.7 L 113.0 115.61935482025146 L 113.0 171.0 L 112.8 173.5 L 112.4 176.0 L 111.6 178.4 L 110.3 180.7 L 108.7 182.7 L 106.7 184.3 L 104.4 185.6 L 102.0 186.4 L 99.5 186.8 L 97.0 187.0 L 97.0 181.0 L 77.0 178.0 L 77.0 175.0 L 97.0 175.0 L 98.2 174.9 L 99.1 174.7 L 100.0 174.4 L 100.4 174.0 L 100.7 173.1 L 100.9 172.2 L 101.0 171.0 L 101.0 85.0 L 44.0 85.0 L 44.0 81.0 L 101.0 81.0 L 101.0 66.0 L 52.0 66.0 L 52.0 62.0 L 101.0 62.0 L 101.0 47.0 L 37.0 47.0 L 37.0 104.0 L 36.5 114.7 L 35.6 124.9 L 34.3 134.7 L 32.7 143.9 L 30.6 152.6 L 28.1 160.8 L 25.2 168.4 L 21.9 175.4 L 18.1 181.8 L 13.7 187.4 L 12.2 186.5 L 14.7 180.0 L 17.0 173.3 L 19.0 166.2 L 20.8 158.7 L 22.3 150.8 L 23.5 142.4 L 24.3 133.5 L 24.9 124.2 L 25.1 114.3 L 25.0 104.0 L 25.0 37.0 Z M 96.0 114.0 L 91.0 117.0 L 89.82983779907227 117.4875675201416 L 89.0 121.2 L 86.1 129.2 L 82.2 136.7 L 77.4 143.8 L 71.6 150.3 L 64.9 156.3 L 57.4 161.8 L 48.9 166.7 L 39.6 171.1 L 29.3 174.8 L 28.6 173.1 L 37.8 167.7 L 46.1 162.1 L 53.5 156.5 L 59.9 150.6 L 65.3 144.6 L 69.8 138.4 L 73.4 131.9 L 76.1 125.3 L 78.0 118.4 L 78.61111106872559 114.0 L 40.0 114.0 L 40.0 110.0 L 79.0 110.0 L 85.0 105.0 Z " />
</g>
</svg>
