<svg xmlns="http://www.w3.org/2000/svg" xmlns:xlink="http://www.w3.org/1999/xlink" version="1.1" baseProfile="full" viewBox="0 0 200 200" width="200" height="200">
<g fill="black">
<path d="M 68.9 173.6 L 76.8 173.6 L 76.8 63.9 L 88.8 65.9 L 91.8 67.9 L 88.8 69.7 L 88.8 173.6 L 118.5 173.6 L 118.5 62.5 L 130.5 68.5 L 165.7 68.5 L 171.7 63.5 L 182.7 72.5 L 177.7 76.5 L 177.7 181.6 L 165.7 187.6 L 165.7 177.6 L 68.9 177.6 Z M 42.5 186.9 L 38.4 184.8 L 37.0 180.5 L 37.5 173.5 L 37.4 167.2 L 36.8 161.5 L 35.5 156.3 L 33.7 151.7 L 31.2 147.5 L 28.1 143.7 L 24.2 140.2 L 19.6 137.0 L 14.1 134.1 L 14.6 132.3 L 21.0 133.5 L 27.0 135.6 L 32.3 138.7 L 35.344589710235596 141.22636165618897 L 35.5 140.9 L 40.9 128.3 L 44.4 120.0 L 48.5 110.2 L 53.2 99.1 L 58.5 86.6 L 64.5 72.8 L 71.2 57.6 L 72.9 58.3 L 68.0 74.1 L 63.5 88.5 L 59.4 101.4 L 55.6 112.9 L 52.4 122.9 L 49.6 131.6 L 47.3 138.8 L 45.5 144.6 L 44.2 149.0 L 43.459090900421145 151.77840909957885 L 44.1 152.9 L 46.5 159.1 L 48.1 165.9 L 48.9 173.4 L 48.9 181.4 L 46.8 185.5 Z M 130.5 125.8 L 130.5 173.6 L 165.7 173.6 L 165.7 125.8 Z M 130.5 72.5 L 130.5 121.8 L 165.7 121.8 L 165.7 72.5 Z M 33.0 85.6 L 31.5 83.5 L 29.7 81.5 L 27.6 79.4 L 25.1 77.3 L 22.4 75.2 L 19.4 73.1 L 16.1 70.9 L 12.4 69.1 L 13.0 67.4 L 17.1 68.4 L 21.1 69.2 L 24.9 70.2 L 28.5 71.5 L 31.8 72.9 L 35.0 74.6 L 37.9 76.4 L 40.6 78.5 L 43.1 80.7 L 45.3 83.2 L 46.1 87.7 L 43.5 91.5 L 39.0 92.2 L 35.2 89.7 L 34.3 87.6 Z M 49.6 37.9 L 48.2 35.9 L 46.5 33.9 L 44.5 31.8 L 42.1 29.7 L 39.4 27.6 L 36.4 25.4 L 33.2 23.1 L 29.5 21.1 L 30.1 19.5 L 34.2 20.6 L 38.2 21.5 L 42.0 22.7 L 45.5 24.0 L 48.8 25.5 L 51.8 27.1 L 54.6 28.8 L 57.2 30.8 L 59.6 32.9 L 61.7 35.2 L 62.4 39.7 L 59.8 43.5 L 55.3 44.2 L 51.5 41.6 L 50.7 39.8 Z M 186.8 31.9 L 186.8 35.9 L 70.1 35.9 L 70.1 31.9 L 164.8 31.9 L 174.8 21.9 Z " />
</g>
</svg>
