<svg xmlns="http://www.w3.org/2000/svg" xmlns:xlink="http://www.w3.org/1999/xlink" version="1.1" baseProfile="full" viewBox="0 0 200 200" width="200" height="200">
<g fill="black">
<path d="M 168.3 179.0 L 166.5 180.6 L 164.5 182.0 L 162.5 183.2 L 160.3 184.2 L 158.0 185.0 L 155.7 185.5 L 153.2 185.8 L 150.8 186.0 L 150.8 180.0 L 130.8 177.0 L 130.8 174.0 L 150.8 174.0 L 152.2 173.9 L 153.6 173.7 L 154.8 173.4 L 155.9 173.1 L 157.0 172.6 L 158.0 172.0 L 158.9 171.3 L 159.9 170.5 L 160.8 169.5 L 161.7 168.3 L 163.5 165.5 L 165.1 162.1 L 166.5 158.3 L 167.8 153.8 L 168.9 148.8 L 169.7 143.3 L 170.3 137.3 L 170.7 130.8 L 170.76800470352174 125.97166471481323 L 170.7 126.0 L 170.7 118.0 L 133.75736436843872 118.0 L 129.3 130.5 L 123.4 142.3 L 116.3 152.9 L 108.0 162.3 L 98.4 170.4 L 87.8 177.3 L 75.9 182.7 L 63.0 186.8 L 62.4 185.1 L 74.3 179.3 L 84.9 172.7 L 94.3 165.3 L 102.5 157.1 L 109.4 148.0 L 115.2 137.9 L 119.9 126.9 L 122.5479338645935 118.0 L 79.8 118.0 L 79.8 114.0 L 123.65267171859742 114.0 L 126.0 101.7 L 127.30140962600709 88.49998826980591 L 127.3 88.5 L 127.5 85.3 L 139.3 88.4 L 142.2 90.6 L 138.75444841384888 92.32277584075928 L 137.2 103.5 L 134.74255323410034 114.0 L 170.7 114.0 L 176.7 109.0 L 187.7 118.0 L 182.7653265953064 120.9608039855957 L 182.8 123.7 L 182.7 131.2 L 182.3 138.3 L 181.6 144.8 L 180.7 151.0 L 179.4 156.7 L 177.9 162.0 L 176.1 166.8 L 174.0 171.3 L 171.5 175.3 L 169.9 177.2 Z M 44.7 186.9 L 40.7 184.8 L 39.2 180.5 L 39.8 173.5 L 39.7 167.2 L 39.0 161.5 L 37.6 156.4 L 35.6 151.8 L 33.0 147.6 L 29.7 143.7 L 25.5 140.2 L 20.6 137.0 L 14.7 134.1 L 15.2 132.3 L 22.0 133.5 L 28.2 135.6 L 33.8 138.6 L 37.31529245376587 141.39788579940796 L 37.6 140.8 L 40.2 135.2 L 43.3 128.3 L 47.0 119.9 L 51.3 110.2 L 56.2 99.0 L 61.8 86.6 L 68.1 72.8 L 75.1 57.6 L 76.7 58.3 L 71.6 74.1 L 66.8 88.5 L 62.4 101.5 L 58.4 112.9 L 54.9 123.0 L 52.0 131.6 L 49.5 138.9 L 47.6 144.7 L 46.2 149.1 L 45.51444139480591 151.67084465026855 L 46.2 152.8 L 48.7 159.0 L 50.3 165.9 L 51.2 173.4 L 51.2 181.4 L 49.0 185.5 Z M 102.9 22.0 L 166.2 22.0 L 172.2 17.0 L 183.2 26.0 L 178.2 30.0 L 178.2 85.0 L 166.2 91.0 L 166.2 79.0 L 102.9 79.0 L 102.9 91.0 L 90.9 97.0 L 90.9 16.0 Z M 35.1 85.7 L 33.4 83.6 L 31.4 81.6 L 29.2 79.5 L 26.6 77.4 L 23.6 75.3 L 20.4 73.2 L 16.9 71.0 L 13.0 69.1 L 13.5 67.4 L 17.8 68.3 L 22.1 69.1 L 26.0 70.1 L 29.8 71.4 L 33.3 72.9 L 36.6 74.5 L 39.6 76.3 L 42.5 78.4 L 45.0 80.6 L 47.4 83.1 L 48.2 87.6 L 45.8 91.4 L 41.3 92.3 L 37.4 89.8 L 36.4 87.8 Z M 102.9 26.0 L 102.9 75.0 L 166.2 75.0 L 166.2 26.0 Z M 52.6 38.0 L 51.1 36.0 L 49.2 34.0 L 47.0 31.9 L 44.4 29.8 L 41.6 27.7 L 38.4 25.5 L 34.9 23.2 L 31.0 21.1 L 31.6 19.4 L 35.9 20.5 L 40.1 21.5 L 44.1 22.6 L 47.7 23.9 L 51.2 25.4 L 54.3 27.0 L 57.3 28.8 L 60.0 30.7 L 62.4 32.8 L 64.6 35.1 L 65.5 39.6 L 62.9 43.5 L 58.4 44.3 L 54.6 41.8 L 53.8 39.9 Z " />
</g>
</svg>
