<svg xmlns="http://www.w3.org/2000/svg" xmlns:xlink="http://www.w3.org/1999/xlink" version="1.1" baseProfile="full" viewBox="0 0 200 200" width="200" height="200">
<g fill="black">
<path d="M 95.0 177.3 L 115.0 177.3 L 116.2 177.2 L 117.1 177.0 L 117.7 176.9 L 118.0 176.7 L 118.4 176.3 L 118.7 175.4 L 118.9 174.5 L 119.0 173.3 L 119.0 124.5 L 63.0 124.5 L 63.0 120.5 L 119.0 120.5 L 119.0 98.7 L 128.89826593399047 100.3497109413147 L 129.8 99.2 L 133.7 94.3 L 137.4 89.8 L 140.8 85.6 L 144.0 81.6 L 146.9 77.8 L 149.4 74.3 L 151.7 71.0 L 152.0064516067505 70.5 L 81.8 70.5 L 81.8 66.5 L 154.2 66.5 L 154.70602407455445 66.07831325531006 L 155.3 65.1 L 155.61794023513795 65.31838312149048 L 160.2 61.5 L 171.2 70.5 L 166.2 73.5 L 162.4880000114441 75.04666662216187 L 160.1 77.7 L 157.1 80.8 L 153.8 84.0 L 150.2 87.4 L 146.3 90.8 L 142.0 94.4 L 137.4 98.1 L 132.5869158744812 101.7579439163208 L 134.0 102.7 L 131.0 104.5 L 131.0 120.5 L 164.9 120.5 L 174.9 110.5 L 186.9 120.5 L 186.9 124.5 L 131.0 124.5 L 131.0 173.3 L 130.8 175.8 L 130.4 178.3 L 129.6 180.7 L 128.3 183.0 L 126.7 185.0 L 124.7 186.7 L 122.4 187.9 L 120.0 188.7 L 117.5 189.1 L 115.0 189.3 L 115.0 183.3 L 95.0 180.3 Z M 42.5 186.9 L 38.4 184.8 L 37.0 180.5 L 37.5 173.5 L 37.4 167.2 L 36.8 161.5 L 35.5 156.3 L 33.7 151.7 L 31.2 147.5 L 28.1 143.7 L 24.2 140.2 L 19.6 137.0 L 14.1 134.1 L 14.6 132.3 L 21.0 133.5 L 27.0 135.6 L 32.3 138.7 L 35.344589710235596 141.22636165618897 L 35.5 140.9 L 40.9 128.3 L 44.4 120.0 L 48.5 110.2 L 53.2 99.1 L 58.5 86.6 L 64.5 72.8 L 71.2 57.6 L 72.9 58.3 L 68.0 74.1 L 63.5 88.5 L 59.4 101.4 L 55.6 112.9 L 52.4 122.9 L 49.6 131.6 L 47.3 138.8 L 45.5 144.6 L 44.2 149.0 L 43.459090900421145 151.77840909957885 L 44.1 152.9 L 46.5 159.1 L 48.1 165.9 L 48.9 173.4 L 48.9 181.4 L 46.8 185.5 Z M 33.0 85.6 L 31.5 83.5 L 29.7 81.5 L 27.6 79.4 L 25.1 77.3 L 22.4 75.2 L 19.4 73.1 L 16.1 70.9 L 12.4 69.1 L 13.0 67.4 L 17.1 68.4 L 21.1 69.2 L 24.9 70.2 L 28.5 71.5 L 31.8 72.9 L 35.0 74.6 L 37.9 76.4 L 40.6 78.5 L 43.1 80.7 L 45.3 83.2 L 46.1 87.7 L 43.5 91.5 L 39.0 92.2 L 35.2 89.7 L 34.3 87.6 Z M 63.8 45.8 L 119.0 45.8 L 119.0 14.8 L 131.0 16.8 L 134.0 18.8 L 131.0 20.6 L 131.0 45.8 L 164.2 45.8 L 174.2 35.8 L 186.2 45.8 L 186.2 49.8 L 63.8 49.8 Z M 49.6 37.9 L 48.2 35.9 L 46.5 33.9 L 44.5 31.8 L 42.1 29.7 L 39.4 27.6 L 36.4 25.4 L 33.2 23.1 L 29.5 21.1 L 30.1 19.5 L 34.2 20.6 L 38.2 21.5 L 42.0 22.7 L 45.5 24.0 L 48.8 25.5 L 51.8 27.1 L 54.6 28.8 L 57.2 30.8 L 59.6 32.9 L 61.7 35.2 L 62.4 39.7 L 59.8 43.5 L 55.3 44.2 L 51.5 41.6 L 50.7 39.8 Z " />
</g>
</svg>
