<svg xmlns="http://www.w3.org/2000/svg" xmlns:xlink="http://www.w3.org/1999/xlink" version="1.1" baseProfile="full" viewBox="0 0 200 200" width="200" height="200">
<g fill="black">
<path d="M 142.5 184.0 L 128.7 182.4 L 117.2 180.0 L 107.8 176.7 L 100.4 172.4 L 94.8 167.2 L 91.0 161.4 L 88.8 155.0 L 88.78165140151978 154.87339448928833 L 88.2 157.2 L 86.7 161.8 L 85.2 166.0 L 83.5 169.9 L 81.7 173.5 L 79.8 176.8 L 77.7 179.9 L 76.27913961410522 181.6437831878662 L 76.6 186.2 L 73.2 185.1 L 64.3 176.8 L 65.9 175.6 L 67.8 174.4 L 69.9 172.8 L 72.1 170.8 L 74.4 168.5 L 76.7 165.7 L 79.0 162.6 L 81.4 159.1 L 83.9 155.3 L 86.6 151.2 L 87.90205945968628 148.80421056747437 L 87.8 148.1 L 88.35137367248535 147.9774724960327 L 89.1 146.6 L 90.8 147.3 L 90.316494846344 149.06134023666382 L 92.6 153.4 L 96.0 158.2 L 100.0 162.1 L 101.78961496353149 163.26872816085816 L 106.8 159.8 L 114.5 154.3 L 122.1 148.8 L 129.4 143.2 L 136.6 137.3 L 143.6 131.3 L 150.3 125.0 L 156.9 118.5 L 163.3 111.8 L 164.0072463989258 111.0 L 70.9 111.0 L 70.9 107.0 L 167.54347829818727 107.0 L 169.4 104.9 L 169.88754024505616 105.34371643066406 L 173.9 102.0 L 184.9 111.0 L 179.9 114.0 L 175.37006368637086 115.88747348785401 L 171.4 119.8 L 164.3 126.3 L 157.0 132.5 L 149.5 138.5 L 141.8 144.1 L 133.8 149.4 L 125.7 154.3 L 117.3 158.9 L 108.7 163.1 L 104.27315702438355 164.8906331062317 L 104.9 165.3 L 111.3 168.0 L 119.5 170.0 L 130.1 171.5 L 143.1 172.2 L 159.0 172.2 L 178.0 171.4 L 189.3 170.9 L 178.5 184.5 L 159.1 184.7 Z M 39.5 186.9 L 35.5 184.8 L 34.0 180.5 L 34.6 173.5 L 34.6 167.1 L 34.1 161.3 L 33.1 156.1 L 31.5 151.5 L 29.3 147.4 L 26.6 143.6 L 23.3 140.2 L 19.2 137.0 L 14.4 134.1 L 14.9 132.4 L 20.8 133.6 L 26.3 135.7 L 31.1 138.8 L 33.21546697616577 140.7678762435913 L 35.8 135.4 L 39.1 129.0 L 43.0 121.4 L 47.6 112.7 L 52.9 102.8 L 58.9 91.8 L 65.8 79.7 L 73.4 66.5 L 75.0 67.4 L 69.2 81.4 L 63.8 94.2 L 58.9 105.7 L 54.5 115.9 L 50.7 125.0 L 47.6 132.8 L 45.0 139.4 L 43.1 144.8 L 41.9 148.9 L 41.3 151.6 L 41.00812187194824 151.51624364852904 L 41.8 153.1 L 43.9 159.2 L 45.3 166.1 L 46.0 173.5 L 46.0 181.4 L 43.8 185.5 Z M 98.8 23.0 L 158.4 23.0 L 164.4 18.0 L 175.4 27.0 L 170.4 31.0 L 170.4 82.0 L 158.4 88.0 L 158.4 76.0 L 98.8 76.0 L 98.8 88.0 L 86.8 94.0 L 86.8 17.0 Z M 34.4 83.6 L 32.9 81.5 L 31.1 79.5 L 28.9 77.4 L 26.4 75.3 L 23.5 73.2 L 20.3 71.1 L 16.7 69.0 L 12.7 67.1 L 13.3 65.4 L 17.7 66.3 L 21.9 67.1 L 25.9 68.1 L 29.6 69.4 L 33.1 70.9 L 36.3 72.5 L 39.3 74.4 L 42.0 76.4 L 44.5 78.7 L 46.7 81.3 L 47.3 85.8 L 44.7 89.5 L 40.1 90.1 L 36.4 87.5 L 35.6 85.5 Z M 98.8 27.0 L 98.8 72.0 L 158.4 72.0 L 158.4 27.0 Z M 49.3 37.6 L 47.7 35.6 L 45.9 33.5 L 43.8 31.4 L 41.3 29.3 L 38.6 27.2 L 35.6 25.1 L 32.3 22.9 L 28.7 21.1 L 29.2 19.4 L 33.3 20.4 L 37.3 21.2 L 41.1 22.2 L 44.6 23.5 L 48.0 24.9 L 51.1 26.6 L 54.1 28.4 L 56.8 30.4 L 59.3 32.7 L 61.6 35.1 L 62.4 39.6 L 59.9 43.5 L 55.4 44.3 L 51.6 41.8 L 50.6 39.7 Z " />
</g>
</svg>
