<svg xmlns="http://www.w3.org/2000/svg" xmlns:xlink="http://www.w3.org/1999/xlink" version="1.1" baseProfile="full" viewBox="0 0 200 200" width="200" height="200">
<g fill="black">
<path d="M 163.2 61.3 L 160.9 56.9 L 160.03315362930297 55.38301887512207 L 155.8 56.7 L 147.0 59.1 L 138.2 61.3 L 129.6 63.2 L 121.1 65.0 L 112.7 66.6 L 111.2584210395813 66.84315786361694 L 121.7 69.3 L 124.6 71.4 L 121.36718845367432 73.17487688064575 L 120.3 85.6 L 119.73725490570068 89.7 L 158.5 89.7 L 168.5 79.7 L 180.5 89.7 L 180.5 93.7 L 119.18823528289795 93.7 L 118.2 100.9 L 115.2 115.2 L 114.95149250030518 116.1 L 153.1 116.1 L 159.1 111.1 L 170.1 120.1 L 165.1 123.1 L 163.140159034729 123.91660041809082 L 160.2 130.5 L 154.7 140.1 L 148.5 148.9 L 141.61097145080566 156.6622857093811 L 145.3 159.5 L 152.3 164.0 L 159.9 167.8 L 168.2 171.0 L 177.2 173.6 L 185.2 175.9 L 173.5 186.3 L 163.7 182.7 L 154.7 178.4 L 146.4 173.3 L 138.9 167.6 L 134.54739074707032 163.3133394241333 L 133.6 164.2 L 125.1 170.6 L 115.8 176.2 L 105.8 181.0 L 95.0 184.9 L 83.6 187.8 L 83.1 186.1 L 93.7 181.3 L 103.4 176.2 L 112.4 170.6 L 120.6 164.5 L 127.9 157.9 L 128.84434661865234 156.86980361938475 L 126.5 154.0 L 121.6 146.2 L 117.5 137.9 L 114.5 128.9 L 113.1742618560791 122.53645696640015 L 111.5 128.6 L 106.9 140.9 L 101.5 152.2 L 95.3 162.5 L 88.2 171.6 L 80.3 179.6 L 71.6 186.2 L 70.4 184.8 L 77.6 176.9 L 84.0 168.3 L 89.7 159.0 L 94.7 148.9 L 99.0 137.9 L 102.5 125.9 L 105.4 113.1 L 107.6 99.3 L 108.13333330154418 93.7 L 71.7 93.7 L 71.7 89.7 L 108.51428575515747 89.7 L 109.0 84.6 L 109.7 68.8 L 109.73026485443116 68.80126104354858 L 109.78205509185791 67.09218349456788 L 104.4 68.0 L 96.2 69.3 L 88.2 70.4 L 84.3962963104248 70.88148145675659 L 82.5 74.2 L 80.3 71.4 L 77.4 59.6 L 79.4 59.4 L 87.2 59.1 L 95.1 58.6 L 101.81593055725098 58.10252361297607 L 102.4 56.1 L 103.8 51.4 L 108.3 37.6 L 111.1 28.4 L 112.3 23.9 L 114.43698625564575 15.708219146728515 L 114.4 15.7 L 114.61176471710205 15.038235282897949 L 114.7 14.7 L 114.71816444396973 14.70573616027832 L 115.2 13.2 L 126.1 18.3 L 128.4 21.1 L 124.64329109191894 22.02270040512085 L 124.3 22.9 L 122.4 27.4 L 120.4 31.9 L 118.3 36.4 L 116.1 40.8 L 113.7 45.2 L 111.2 49.5 L 108.6 53.7 L 105.71009817123414 57.78572330474854 L 111.4 57.3 L 119.8 56.6 L 128.4 55.7 L 137.1 54.8 L 146.0 53.8 L 155.1 52.9 L 158.44439191818236 52.6123104095459 L 155.9 48.6 L 153.2 44.6 L 147.4 37.0 L 141.2 29.4 L 142.3 27.9 L 146.8 30.3 L 151.0 33.1 L 155.1 36.2 L 158.9 39.6 L 162.6 43.3 L 166.0 47.3 L 169.3 51.5 L 172.4 55.9 L 175.4 60.5 L 178.2 65.4 L 178.3 70.0 L 175.3 73.4 L 170.7 73.6 L 167.3 70.5 L 165.3 65.8 Z M 41.0 186.9 L 36.9 184.8 L 35.5 180.5 L 36.1 173.5 L 36.1 167.1 L 35.5 161.4 L 34.4 156.2 L 32.7 151.6 L 30.4 147.4 L 27.5 143.7 L 23.8 140.2 L 19.4 137.0 L 14.2 134.1 L 14.7 132.4 L 20.9 133.5 L 26.7 135.7 L 31.8 138.7 L 34.39945945739746 141.01063060760498 L 34.6 140.6 L 37.4 135.3 L 40.9 128.9 L 45.0 121.3 L 49.9 112.6 L 55.5 102.7 L 61.9 91.8 L 69.1 79.7 L 77.1 66.5 L 78.7 67.4 L 72.4 81.4 L 66.6 94.2 L 61.3 105.7 L 56.7 116.0 L 52.6 125.1 L 49.2 132.9 L 46.5 139.6 L 44.5 144.9 L 43.1 149.0 L 42.5 151.7 L 42.38478660583496 151.6649351119995 L 43.1 153.0 L 45.3 159.2 L 46.8 166.0 L 47.5 173.5 L 47.5 181.5 L 45.3 185.5 Z M 114.91976747512817 120.1 L 118.4 127.4 L 122.8 135.2 L 127.6 142.3 L 133.0 148.7 L 134.71532850265504 150.41532850265503 L 140.4 142.9 L 145.5 134.6 L 149.9 125.6 L 151.98421049118042 120.1 Z M 35.9 83.7 L 34.3 81.7 L 32.3 79.6 L 29.9 77.5 L 27.1 75.4 L 24.0 73.3 L 20.5 71.2 L 16.7 69.0 L 12.4 67.1 L 12.9 65.4 L 17.6 66.2 L 22.1 67.0 L 26.3 68.1 L 30.2 69.3 L 33.9 70.8 L 37.3 72.4 L 40.4 74.3 L 43.3 76.3 L 45.9 78.6 L 48.2 81.2 L 49.0 85.7 L 46.4 89.5 L 41.9 90.2 L 38.1 87.7 L 37.2 85.7 Z M 51.8 37.8 L 50.0 35.7 L 48.0 33.6 L 45.7 31.5 L 43.1 29.4 L 40.1 27.3 L 36.9 25.2 L 33.3 23.0 L 29.4 21.1 L 29.9 19.4 L 34.3 20.3 L 38.5 21.1 L 42.5 22.1 L 46.3 23.4 L 49.8 24.8 L 53.1 26.5 L 56.2 28.3 L 59.1 30.3 L 61.7 32.6 L 64.1 35.0 L 65.0 39.5 L 62.6 43.4 L 58.2 44.3 L 54.3 41.9 L 53.2 39.9 Z " />
</g>
</svg>
