<svg xmlns="http://www.w3.org/2000/svg" xmlns:xlink="http://www.w3.org/1999/xlink" version="1.1" baseProfile="full" viewBox="0 0 200 200" width="200" height="200">
<g fill="black">
<path d="M 111.3 113.7 L 139.3 113.7 L 145.3 108.7 L 156.3 117.7 L 151.3 121.7 L 151.3 168.5 L 151.5 169.4 L 151.7 170.0 L 151.9 170.3 L 152.0 170.5 L 152.2 170.6 L 152.5 170.8 L 153.1 171.0 L 154.0 171.2 L 175.2 171.2 L 181.2 146.2 L 183.2 146.2 L 181.2 171.2 L 184.8 173.6 L 187.2 177.2 L 184.8 180.8 L 181.2 183.2 L 155.3 183.2 L 152.7 183.1 L 150.2 182.7 L 147.8 181.8 L 145.5 180.6 L 143.5 179.0 L 141.9 177.0 L 140.6 174.7 L 139.8 172.3 L 139.4 169.8 L 139.3 167.2 L 139.3 117.7 L 111.3 117.7 L 111.3 120.2 L 110.5 130.3 L 109.0 139.7 L 106.7 148.5 L 103.5 156.6 L 99.5 163.9 L 94.6 170.5 L 89.0 176.2 L 82.6 181.1 L 75.5 185.0 L 67.7 188.0 L 66.9 186.4 L 73.5 181.8 L 79.3 176.9 L 84.3 171.6 L 88.6 165.9 L 92.1 159.8 L 94.9 153.0 L 97.0 145.8 L 98.4 137.9 L 99.2 129.4 L 99.3 120.2 L 99.3 107.7 Z M 74.0 90.5 L 120.0 90.5 L 120.0 58.5 L 70.94050636291504 58.5 L 66.3 74.1 L 61.8 88.5 L 57.7 101.4 L 54.0 112.9 L 50.8 122.9 L 48.1 131.6 L 45.8 138.8 L 44.0 144.6 L 42.8 149.0 L 42.05542860031128 151.792142868042 L 42.7 152.9 L 45.0 159.1 L 46.6 165.9 L 47.4 173.4 L 47.4 181.4 L 45.3 185.5 L 41.0 186.9 L 36.9 184.8 L 35.4 180.5 L 36.0 173.5 L 35.9 167.2 L 35.3 161.5 L 34.0 156.3 L 32.2 151.7 L 29.8 147.5 L 26.7 143.7 L 22.9 140.2 L 18.3 137.0 L 12.9 134.1 L 13.4 132.4 L 19.8 133.5 L 25.7 135.6 L 31.0 138.7 L 33.8876916885376 141.14826040267945 L 34.0 140.9 L 36.4 135.3 L 39.3 128.3 L 42.9 120.0 L 46.9 110.2 L 51.5 99.1 L 56.8 86.6 L 62.7 72.8 L 68.90921049118042 58.5 L 67.9 58.5 L 67.9 54.5 L 120.0 54.5 L 120.0 31.62637367248535 L 113.6 32.4 L 104.2 33.2 L 94.5 33.9 L 84.4 34.3 L 74.1 34.3 L 73.9 32.6 L 84.0 30.5 L 93.8 28.6 L 103.3 26.7 L 112.5 24.9 L 121.3 23.0 L 129.8 21.0 L 137.9 19.0 L 145.8 16.9 L 153.3 14.7 L 159.5064600944519 12.717380809783936 L 159.5 12.7 L 159.51680183410645 12.714077186584472 L 160.5 12.4 L 160.90824241638182 13.879878807067872 L 170.6 22.0 L 170.9 25.1 L 166.633647441864 23.14966735839844 L 163.7 24.0 L 156.1 25.7 L 148.2 27.3 L 140.0 28.8 L 132.0 30.0235294342041 L 132.0 54.5 L 162.0 54.5 L 172.0 44.5 L 184.0 54.5 L 184.0 58.5 L 132.0 58.5 L 132.0 90.5 L 155.9 90.5 L 165.9 80.5 L 177.9 90.5 L 177.9 94.5 L 74.0 94.5 Z M 31.6 85.6 L 30.1 83.5 L 28.3 81.4 L 26.2 79.4 L 23.8 77.3 L 21.2 75.2 L 18.2 73.1 L 14.9 70.9 L 11.3 69.1 L 11.8 67.4 L 15.9 68.4 L 19.9 69.2 L 23.7 70.2 L 27.2 71.5 L 30.5 72.9 L 33.6 74.6 L 36.5 76.4 L 39.2 78.5 L 41.6 80.7 L 43.9 83.2 L 44.6 87.7 L 42.0 91.5 L 37.5 92.2 L 33.7 89.6 L 32.8 87.6 Z M 48.0 37.9 L 46.6 35.9 L 44.9 33.9 L 42.9 31.8 L 40.6 29.7 L 37.9 27.6 L 35.0 25.4 L 31.8 23.1 L 28.1 21.1 L 28.8 19.5 L 32.8 20.6 L 36.8 21.6 L 40.5 22.7 L 44.0 24.0 L 47.2 25.5 L 50.2 27.1 L 53.0 28.9 L 55.6 30.8 L 57.9 32.9 L 60.0 35.2 L 60.7 39.8 L 58.1 43.5 L 53.6 44.2 L 49.8 41.6 L 49.0 39.8 Z " />
</g>
</svg>
