<svg xmlns="http://www.w3.org/2000/svg" xmlns:xlink="http://www.w3.org/1999/xlink" version="1.1" baseProfile="full" viewBox="0 0 200 200" width="200" height="200">
<g fill="black">
<path d="M 155.8 176.1 L 148.7 172.4 L 141.3 168.8 L 133.7 165.3 L 132.1106168746948 164.6159617424011 L 124.6 170.4 L 114.9 175.9 L 104.1 180.2 L 92.3 183.4 L 79.4 185.3 L 65.5 185.9 L 65.3 184.1 L 78.8 181.5 L 90.9 178.2 L 101.8 174.1 L 111.4 169.2 L 119.7 163.5 L 122.75967893600463 160.69888553619384 L 117.7 158.7 L 109.3 155.5 L 100.7 152.3 L 96.73333330154419 150.85757579803467 L 93.6 155.7 L 90.1 160.7 L 80.3 153.8 L 83.6 149.1 L 86.7 144.2 L 89.8 139.2 L 92.8 134.0 L 95.6 128.8 L 97.05185184478759 126.0 L 61.0 126.0 L 61.0 122.0 L 99.075 122.0 L 101.1 117.8 L 103.7 112.2 L 106.3 106.4 L 108.33016395568848 101.40918035507202 L 108.3 101.4 L 109.2 99.1 L 119.8 104.9 L 121.9 107.9 L 118.36941556930542 108.44784927368164 L 117.3 111.1 L 114.7 117.1 L 112.45762710571289 122.0 L 163.9 122.0 L 173.9 112.0 L 185.9 122.0 L 185.9 126.0 L 155.47079648971558 126.0 L 152.0 136.6 L 147.0 146.7 L 140.7 155.8 L 138.59511108398436 158.04711112976074 L 144.9 160.2 L 152.8 163.2 L 160.5 166.5 L 168.0 170.0 L 175.3 173.7 L 178.0 177.3 L 177.5 181.9 L 173.8 184.6 L 169.3 184.1 L 162.7 180.0 Z M 110.55172414779663 126.0 L 109.2 128.8 L 106.2 134.4 L 103.2 139.9 L 100.1 145.3 L 98.32867727279663 148.2337532043457 L 101.7 148.7 L 110.8 150.4 L 119.6 152.4 L 128.3 154.8 L 128.52243671417236 154.8688494682312 L 132.7 149.7 L 137.6 141.6 L 141.4 132.5 L 143.15882349014282 126.0 Z M 158.5 101.6 L 150.8 96.7 L 144.0 91.2 L 138.2 85.1 L 133.5 78.4 L 129.8 71.3 L 127.2 63.7 L 126.30651140213013 58.5943510055542 L 122.5 67.6 L 117.2 76.3 L 110.6 84.1 L 102.9 90.9 L 94.1 96.6 L 84.2 101.4 L 73.2 105.0 L 61.2 107.6 L 60.8 105.8 L 72.0 101.4 L 81.9 96.5 L 90.6 91.1 L 98.1 85.0 L 104.3 78.4 L 109.4 71.2 L 113.4 63.3 L 116.3 54.8 L 118.1 45.5 L 118.6556700706482 37.8 L 97.78333330154419 37.8 L 96.7 39.3 L 92.3 44.5 L 87.7 49.4 L 82.6 54.1 L 77.2 58.5 L 71.4 62.5 L 66.56667890548707 65.38440132141113 L 64.1 74.1 L 59.9 88.4 L 56.1 101.3 L 52.6 112.8 L 49.6 122.8 L 47.0 131.5 L 44.8 138.7 L 43.2 144.5 L 42.0 148.9 L 41.3 151.9 L 41.19067897796631 151.86260070800782 L 41.8 153.0 L 44.1 159.2 L 45.6 166.0 L 46.4 173.4 L 46.4 181.4 L 44.3 185.5 L 40.0 186.9 L 35.9 184.8 L 34.4 180.5 L 35.0 173.5 L 34.9 167.2 L 34.3 161.4 L 33.1 156.2 L 31.4 151.6 L 29.2 147.4 L 26.3 143.6 L 22.7 140.2 L 18.5 137.0 L 13.4 134.1 L 13.9 132.4 L 20.0 133.5 L 25.6 135.7 L 30.7 138.7 L 33.13534278869629 140.9139479637146 L 35.4 135.4 L 38.2 128.4 L 41.5 120.1 L 45.4 110.3 L 49.9 99.2 L 54.9 86.7 L 60.5 72.8 L 66.9 57.7 L 68.6 58.2 L 67.87128820419312 60.774781703948975 L 69.0 59.6 L 73.6 54.6 L 77.9 49.5 L 82.0 44.4 L 85.7 39.3 L 89.0 34.0 L 92.0 28.7 L 94.7 23.2 L 97.1 17.7 L 99.1 12.0 L 99.1115068435669 12.00441780090332 L 99.6 10.6 L 110.3 16.3 L 112.4 19.2 L 108.66834535598755 19.854676246643066 L 107.5 22.4 L 104.2 28.2 L 100.66315793991089 33.8 L 167.4 33.8 L 168.1411765098572 33.18235292434692 L 168.3 32.6 L 168.6114221572876 32.79048156738281 L 173.4 28.8 L 184.4 37.8 L 179.4 40.8 L 174.14594593048096 42.98918914794922 L 173.2 43.8 L 170.8 45.7 L 168.1 47.7 L 165.0 50.0 L 161.6 52.5 L 157.8 55.2 L 153.5 58.0 L 149.0 61.2 L 147.8 59.8 L 151.6 55.8 L 154.8 51.9 L 157.7 48.3 L 160.3 45.1 L 162.6 42.2 L 164.5 39.6 L 165.75217390060425 37.8 L 130.6743362426758 37.8 L 129.4 47.4 L 128.5277108192444 50.671084308624266 L 129.8 54.7 L 132.7 61.7 L 136.2 68.0 L 140.3 73.6 L 145.1 78.8 L 150.6 83.4 L 156.9 87.5 L 163.9 91.2 L 171.8 94.4 L 180.5 97.1 L 188.3 99.5 L 176.6 109.7 L 167.1 106.0 Z M 30.8 85.4 L 29.4 83.4 L 27.7 81.3 L 25.8 79.3 L 23.6 77.2 L 21.1 75.1 L 18.3 73.1 L 15.2 70.9 L 11.8 69.1 L 12.4 67.4 L 16.2 68.4 L 20.1 69.2 L 23.6 70.3 L 27.0 71.5 L 30.2 73.0 L 33.2 74.7 L 36.0 76.5 L 38.5 78.6 L 40.9 80.8 L 43.0 83.3 L 43.7 87.8 L 41.0 91.5 L 36.5 92.1 L 32.7 89.5 L 31.9 87.5 Z M 46.4 37.7 L 45.1 35.8 L 43.5 33.8 L 41.6 31.7 L 39.5 29.7 L 37.0 27.5 L 34.3 25.4 L 31.2 23.1 L 27.8 21.2 L 28.5 19.5 L 32.3 20.7 L 36.1 21.6 L 39.7 22.8 L 43.0 24.1 L 46.1 25.5 L 49.0 27.2 L 51.7 28.9 L 54.1 30.9 L 56.4 33.0 L 58.4 35.3 L 59.0 39.9 L 56.3 43.5 L 51.7 44.1 L 48.0 41.4 L 47.3 39.6 Z " />
</g>
</svg>
