<svg xmlns="http://www.w3.org/2000/svg" xmlns:xlink="http://www.w3.org/1999/xlink" version="1.1" baseProfile="full" viewBox="0 0 200 200" width="200" height="200">
<g fill="black">
<path d="M 81.7 41.0 L 120.6 41.0 L 120.6 12.0 L 132.6 14.0 L 135.6 16.0 L 132.6 17.8 L 132.6 41.0 L 163.7 41.0 L 173.7 31.0 L 185.7 41.0 L 185.7 45.0 L 81.7 45.0 L 81.7 104.0 L 81.3 115.2 L 80.4 126.0 L 79.1 136.1 L 77.4 145.6 L 75.3 154.5 L 72.7 162.9 L 69.8 170.6 L 66.3 177.6 L 62.4 183.9 L 57.9 189.4 L 56.6 188.5 L 59.3 182.2 L 61.8 175.6 L 64.1 168.5 L 66.1 160.9 L 67.7 152.9 L 69.0 144.2 L 70.0 135.0 L 70.6 125.2 L 70.8 114.9 L 70.7 104.0 L 70.7 35.5 Z M 158.0 171.4 L 152.3 163.0 L 147.1 153.4 L 147.01264085769654 153.207453250885 L 145.3 154.3 L 139.3 157.7 L 133.0 160.9 L 126.6 164.0 L 120.1 166.9 L 113.4 169.8 L 106.6 172.6 L 99.7 175.3 L 92.6 177.9 L 89.33215742111206 179.0800542831421 L 88.2 182.8 L 85.4 180.5 L 80.0 169.6 L 81.9 169.0 L 89.1 167.1 L 93.5 165.87777776718139 L 93.5 67.3 L 103.6302752494812 72.36513757705688 L 105.3 71.8 L 111.7 69.8 L 118.0 67.7 L 124.2 65.6 L 130.3 63.4 L 136.3 61.1 L 142.3 58.7 L 148.1 56.2 L 153.8 53.5 L 158.52193307876587 51.13903341293335 L 158.5 51.1 L 158.53529415130615 51.132352924346925 L 159.4 50.7 L 160.36965703964233 52.81385221481323 L 168.1 59.9 L 168.2 63.1 L 164.50644845962523 61.551091289520265 L 164.4 61.6 L 158.2 64.0 L 152.0 66.2 L 145.6 68.2 L 139.2 70.0 L 132.8 71.6 L 126.46252326965332 72.84829082489014 L 130.8 87.1 L 135.6 101.9 L 140.5 115.4 L 143.58853120803832 122.99778671264649 L 145.8 120.1 L 148.7 116.5 L 151.6 113.0 L 154.4 109.5 L 157.1 106.0 L 159.8 102.6 L 164.8 95.8 L 166.62669105529784 93.28829984664917 L 166.5 93.2 L 167.6 92.0 L 176.4 100.1 L 177.5 103.5 L 173.62669286727905 102.9657506942749 L 173.4 103.2 L 170.3 106.2 L 167.1 109.2 L 163.8 112.2 L 160.3 115.2 L 156.8 118.1 L 153.1 121.0 L 149.3 123.8 L 145.2 126.5 L 145.05068578720093 126.5946870803833 L 145.5 127.7 L 150.7 138.7 L 156.0 148.5 L 161.6 156.9 L 167.2 164.0 L 173.0 169.8 L 178.8 174.4 L 181.8 176.6 L 170.9 184.9 L 164.2 178.8 Z M 36.2 186.9 L 32.1 184.8 L 30.6 180.5 L 31.2 173.5 L 31.2 167.0 L 30.8 161.2 L 29.9 156.0 L 28.4 151.4 L 27.211475372314453 148.626775932312 L 26.7 148.5 L 26.92741117477417 147.96395940780639 L 26.6 147.2 L 24.2 143.5 L 21.2 140.1 L 17.6 137.0 L 13.3 134.1 L 13.9 132.4 L 19.3 133.6 L 24.4 135.8 L 28.9 138.9 L 30.201288414001464 140.23465480804444 L 32.3 135.6 L 35.4 129.1 L 39.0 121.5 L 43.2 112.8 L 48.1 102.9 L 53.6 91.9 L 59.9 79.8 L 66.9 66.6 L 68.6 67.3 L 63.3 81.3 L 58.5 94.1 L 54.1 105.6 L 50.2 115.8 L 46.8 124.9 L 43.9 132.7 L 41.7 139.3 L 40.0 144.7 L 38.9 148.8 L 38.4 151.4 L 37.775972557067874 151.24532651901245 L 38.7 153.2 L 40.6 159.3 L 41.9 166.1 L 42.6 173.5 L 42.6 181.4 L 40.5 185.5 Z M 119.5 74.1 L 112.8 75.0 L 106.0 75.6 L 104.5 75.62173910140991 L 104.5 162.73999996185302 L 110.3 161.0 L 117.1 159.0 L 123.9 156.9 L 130.6 154.8 L 137.2 152.7 L 143.8 150.8 L 145.68689136505128 150.28539323806763 L 142.2 142.6 L 137.7 130.8 L 133.6 117.7 L 129.9 103.5 L 126.7 88.1 L 124.47091131210327 73.20968751907348 Z M 31.0 83.3 L 29.7 81.3 L 28.1 79.3 L 26.2 77.3 L 24.0 75.2 L 21.4 73.1 L 18.6 71.1 L 15.4 68.9 L 11.8 67.1 L 12.4 65.4 L 16.4 66.4 L 20.3 67.2 L 23.9 68.3 L 27.4 69.5 L 30.6 71.0 L 33.6 72.6 L 36.4 74.5 L 38.9 76.6 L 41.2 78.9 L 43.3 81.4 L 43.7 86.0 L 40.9 89.6 L 36.3 90.0 L 32.7 87.2 L 32.0 85.3 Z M 44.5 37.4 L 43.2 35.4 L 41.6 33.3 L 39.7 31.2 L 37.6 29.2 L 35.2 27.1 L 32.5 25.0 L 29.6 22.9 L 26.3 21.1 L 26.9 19.4 L 30.6 20.4 L 34.3 21.3 L 37.8 22.3 L 41.1 23.6 L 44.2 25.0 L 47.1 26.7 L 49.8 28.5 L 52.4 30.6 L 54.7 32.8 L 56.8 35.3 L 57.4 39.8 L 54.8 43.5 L 50.2 44.1 L 46.5 41.5 L 45.6 39.4 Z " />
</g>
</svg>
