<svg xmlns="http://www.w3.org/2000/svg" xmlns:xlink="http://www.w3.org/1999/xlink" version="1.1" baseProfile="full" viewBox="0 0 200 200" width="200" height="200">
<g fill="black">
<path d="M 117.2 46.0 L 136.9 46.0 L 136.9 12.0 L 148.9 14.0 L 151.9 16.0 L 148.9 17.8 L 148.9 46.0 L 173.8 46.0 L 179.8 41.0 L 190.8 50.0 L 185.8 53.0 L 182.88059701919556 54.21641788482666 L 182.5 54.8 L 180.8 57.3 L 179.0 60.0 L 177.1 62.7 L 175.0 65.6 L 172.8 68.6 L 170.3 71.7 L 167.6 74.9 L 165.0 78.4 L 163.5 77.5 L 165.2 73.5 L 166.5 69.6 L 167.8 65.9 L 169.1 62.4 L 170.2 59.2 L 171.3 56.1 L 172.2 53.2 L 173.0 50.5 L 173.1199999809265 50.0 L 148.9 50.0 L 148.9 93.0 L 164.2 93.0 L 170.2 88.0 L 181.2 97.0 L 176.2 100.0 L 174.7026620864868 100.6238907814026 L 171.7 110.4 L 166.8 123.4 L 161.2 135.3 L 154.9 146.3 L 152.10090188980104 150.31609725952148 L 154.8 153.6 L 161.4 160.0 L 168.4 165.5 L 175.9 170.1 L 183.9 173.9 L 189.9 176.6 L 178.5 186.0 L 169.5 180.9 L 161.2 174.9 L 153.7 168.0 L 147.0 160.2 L 145.9013035774231 158.59851026535034 L 140.3 165.0 L 132.1 172.8 L 123.1 179.3 L 113.6 184.7 L 103.4 188.8 L 102.7 187.1 L 111.7 181.4 L 120.0 175.0 L 127.6 167.9 L 134.7 160.0 L 140.9750750541687 151.37177181243896 L 135.9 142.1 L 131.6 131.8 L 128.0 120.7 L 125.4 108.8 L 123.82047243118286 97.0 L 117.2 97.0 L 117.2 106.0 L 116.6 117.8 L 115.6 128.9 L 114.1 139.2 L 112.1 148.8 L 109.5 157.6 L 106.5 165.6 L 102.9 172.8 L 98.8 179.0 L 94.1 184.4 L 88.9 188.6 L 87.7 187.3 L 91.2 182.0 L 94.2 176.2 L 97.0 169.9 L 99.4 163.0 L 101.4 155.3 L 102.9 146.9 L 104.1 137.8 L 104.9 128.0 L 105.2 117.3 L 105.2 40.0 Z M 104.6 19.3 L 106.9 22.1 L 103.38500003814697 22.978750038146973 L 101.0 30.2 L 97.2 40.8 L 93.2 51.3 L 89.1 61.5 L 84.7 71.4 L 83.65933017730713 73.64322166442871 L 88.8 74.5 L 91.8 76.5 L 88.8 78.3 L 88.8 181.2 L 76.8 187.2 L 76.8 87.75833330154418 L 75.4 90.5 L 70.4 99.7 L 65.1 108.6 L 59.5 117.0 L 57.9 116.2 L 61.7 106.8 L 65.6 97.4 L 69.4 87.8 L 73.2 78.1 L 76.9 68.2 L 80.4 58.1 L 83.8 47.9 L 87.0 37.4 L 90.1 26.8 L 92.82345752716064 16.904771041870116 L 92.8 16.9 L 93.5 14.3 Z M 43.7 186.9 L 39.7 184.8 L 38.2 180.5 L 38.8 173.5 L 38.7 167.2 L 38.0 161.5 L 36.7 156.4 L 34.8 151.7 L 32.2 147.6 L 29.0 143.7 L 25.0 140.2 L 20.1 137.0 L 14.4 134.1 L 14.9 132.3 L 21.6 133.5 L 27.6 135.6 L 33.1 138.6 L 36.451072978973386 141.32274675369263 L 36.7 140.8 L 39.2 135.3 L 42.2 128.3 L 45.9 119.9 L 50.1 110.2 L 54.9 99.1 L 60.3 86.6 L 66.5 72.8 L 73.3 57.6 L 75.0 58.3 L 70.0 74.1 L 65.3 88.5 L 61.0 101.4 L 57.2 112.9 L 53.8 123.0 L 50.9 131.6 L 48.5 138.8 L 46.7 144.7 L 45.3 149.1 L 44.61692304611206 151.6615385055542 L 45.3 152.8 L 47.7 159.0 L 49.3 165.9 L 50.1 173.4 L 50.2 181.4 L 48.0 185.5 Z M 129.4 107.8 L 133.6 118.8 L 138.2 128.9 L 143.3 138.1 L 146.27809925079345 142.54007530212402 L 146.9 141.5 L 152.2 131.0 L 156.8 119.4 L 160.9 106.9 L 163.4119402885437 97.0 L 125.88999996185302 97.0 Z M 117.2 50.0 L 117.2 93.0 L 136.9 93.0 L 136.9 50.0 Z M 34.2 85.7 L 32.6 83.6 L 30.7 81.5 L 28.5 79.4 L 25.9 77.3 L 23.1 75.2 L 20.0 73.1 L 16.5 71.0 L 12.7 69.1 L 13.3 67.4 L 17.5 68.3 L 21.6 69.1 L 25.5 70.2 L 29.2 71.4 L 32.6 72.9 L 35.9 74.5 L 38.9 76.4 L 41.6 78.4 L 44.2 80.7 L 46.5 83.1 L 47.3 87.6 L 44.8 91.5 L 40.3 92.3 L 36.4 89.8 L 35.4 87.7 Z M 51.3 38.0 L 49.8 36.0 L 48.0 34.0 L 45.9 31.9 L 43.4 29.8 L 40.6 27.6 L 37.5 25.4 L 34.1 23.1 L 30.3 21.1 L 30.9 19.4 L 35.2 20.6 L 39.3 21.5 L 43.1 22.7 L 46.7 24.0 L 50.1 25.4 L 53.2 27.0 L 56.1 28.8 L 58.7 30.7 L 61.2 32.9 L 63.3 35.2 L 64.1 39.7 L 61.5 43.5 L 57.0 44.2 L 53.2 41.7 L 52.4 39.9 Z " />
</g>
</svg>
