<svg xmlns="http://www.w3.org/2000/svg" xmlns:xlink="http://www.w3.org/1999/xlink" version="1.1" baseProfile="full" viewBox="0 0 200 200" width="200" height="200">
<g fill="black">
<path d="M 66.2 178.2 L 86.2 178.2 L 87.4 178.1 L 88.3 178.0 L 88.9 177.8 L 89.2 177.6 L 89.4 177.4 L 89.6 177.3 L 89.8 176.9 L 90.0 176.3 L 90.1 175.4 L 90.2 174.2 L 90.2 131.64081630706787 L 88.5 132.3 L 83.7 134.2 L 78.9 136.0 L 78.1005669593811 136.28915662765502 L 76.9 140.0 L 74.2 137.7 L 69.0 126.7 L 70.9 126.1 L 75.7 125.1 L 80.5 124.0 L 85.4 122.8 L 90.2 121.55200004577637 L 90.2 92.1 L 96.85240173339844 93.20873365402221 L 97.4 92.2 L 99.0 88.6 L 100.6 85.2 L 102.2 81.9 L 105.2 75.7 L 106.5 72.7 L 107.8 69.8 L 108.1 69.1 L 77.49166669845582 69.1 L 76.3 72.4 L 74.7 75.7 L 72.5 78.7 L 68.3 80.3 L 64.1 78.5 L 62.5 74.2 L 64.2 70.0 L 65.6 69.0 L 67.0 67.5 L 68.4 65.2 L 69.8 62.4 L 71.1 58.9 L 72.3 54.9 L 73.3 50.3 L 74.3 45.2 L 75.2 39.6 L 75.9 33.4 L 77.7 33.3 L 78.5 39.6 L 78.94482755661011 43.9 L 119.5 43.9 L 119.5 13.0 L 131.5 15.0 L 134.5 17.0 L 131.5 18.8 L 131.5 43.9 L 173.0 43.9 L 179.0 38.9 L 190.0 47.9 L 185.0 50.9 L 182.15145635604858 52.08689317703247 L 181.9 52.5 L 180.3 55.0 L 178.6 57.5 L 176.8 60.1 L 174.9 62.9 L 172.8 65.8 L 170.5 68.7 L 168.0 71.8 L 165.7 75.1 L 164.1 74.2 L 165.6 70.5 L 166.8 66.7 L 167.9 63.2 L 169.0 59.9 L 169.9 56.8 L 170.8 53.8 L 171.6 51.0 L 172.4 48.4 L 172.5199999809265 47.9 L 79.23636360168457 47.9 L 79.4 50.9 L 79.3 55.9 L 79.0 60.6 L 78.4 64.9 L 78.35897436141968 65.1 L 109.4 65.1 L 109.91504421234131 64.67079648971557 L 110.1 64.2 L 110.32852230072021 64.32623138427735 L 115.4 60.1 L 126.4 69.1 L 121.4 72.1 L 118.00487804412842 73.51463413238525 L 116.8 75.1 L 114.7 77.7 L 112.5 80.4 L 110.2 83.1 L 107.8 85.7 L 105.3 88.5 L 102.6 91.2 L 99.89738216400147 93.71623039245605 L 102.2 94.1 L 105.2 96.1 L 102.2 97.9 L 102.2 118.4692307472229 L 105.8 117.5 L 116.6 114.9 L 122.2 113.7 L 122.9 115.4 L 118.0 118.4 L 113.1 121.2 L 108.1 123.7 L 102.2 126.46938772201538 L 102.2 174.2 L 102.0 176.7 L 101.6 179.2 L 100.8 181.6 L 99.6 183.9 L 97.9 185.9 L 95.9 187.6 L 93.6 188.8 L 91.2 189.6 L 88.7 190.0 L 86.2 190.2 L 86.2 184.2 L 66.2 181.2 Z M 169.8 181.0 L 168.1 182.8 L 166.3 184.3 L 164.3 185.7 L 162.1 186.8 L 159.8 187.6 L 157.4 188.2 L 155.0 188.5 L 152.5 188.7 L 152.5 182.7 L 138.5 179.7 L 138.5 176.7 L 152.5 176.7 L 153.9 176.6 L 155.2 176.4 L 156.3 176.1 L 157.3 175.8 L 158.2 175.3 L 159.1 174.7 L 159.9 174.0 L 160.7 173.2 L 161.5 172.2 L 162.3 171.0 L 163.1 169.0 L 164.1 165.6 L 165.0 160.8 L 165.9 154.8 L 166.6 147.6 L 167.2 139.3 L 167.7 129.8 L 168.0 119.2 L 168.2 107.5 L 168.284375 96.7 L 151.8638889312744 96.7 L 151.3 108.3 L 149.8 121.6 L 147.6 133.9 L 144.5 145.2 L 140.7 155.5 L 136.0 164.7 L 130.6 172.8 L 124.3 179.7 L 117.2 185.3 L 109.5 189.5 L 108.5 188.0 L 114.8 182.4 L 120.3 176.1 L 125.2 169.0 L 129.3 161.2 L 132.8 152.4 L 135.6 142.7 L 137.7 132.0 L 139.2 120.3 L 139.9 107.6 L 139.97956199645995 96.7 L 120.0 96.7 L 120.0 92.7 L 140.0 92.7 L 140.0 58.5 L 152.0 60.5 L 155.0 62.5 L 152.0 64.3 L 152.0 92.7 L 168.3 92.7 L 174.3 87.7 L 185.3 96.7 L 180.3 99.7 L 180.26141481399537 99.7160771369934 L 180.2 107.7 L 180.0 119.5 L 179.7 130.3 L 179.2 140.0 L 178.6 148.7 L 177.8 156.3 L 176.9 162.8 L 175.8 168.4 L 174.4 173.0 L 172.7 176.9 L 171.3 179.1 Z M 34.7 186.9 L 30.6 184.9 L 29.1 180.6 L 29.7 173.5 L 29.7 167.0 L 29.4 161.2 L 28.5 155.9 L 27.2 151.3 L 26.16969699859619 148.7545454978943 L 25.5 148.6 L 25.799458026885986 147.8398373603821 L 25.5 147.1 L 23.3 143.4 L 20.7 140.1 L 17.4 137.0 L 13.5 134.1 L 14.1 132.4 L 19.3 133.7 L 24.0 135.9 L 28.2 139.0 L 28.994966983795166 139.859423828125 L 30.8 135.7 L 33.6 129.2 L 37.0 121.6 L 40.9 112.9 L 45.5 103.0 L 50.7 92.0 L 56.6 79.8 L 63.2 66.6 L 64.8 67.3 L 60.1 81.3 L 55.6 94.0 L 51.6 105.5 L 48.0 115.7 L 44.9 124.8 L 42.3 132.6 L 40.2 139.2 L 38.6 144.5 L 37.6 148.6 L 37.2 151.3 L 36.451943969726564 151.12737169265748 L 37.4 153.3 L 39.2 159.4 L 40.4 166.1 L 41.1 173.5 L 41.1 181.4 L 39.0 185.4 Z M 29.5 83.1 L 28.4 81.2 L 27.0 79.2 L 25.2 77.2 L 23.2 75.1 L 20.9 73.1 L 18.3 71.0 L 15.4 68.9 L 12.1 67.1 L 12.7 65.4 L 16.4 66.5 L 20.1 67.3 L 23.5 68.3 L 26.8 69.6 L 29.8 71.1 L 32.6 72.7 L 35.2 74.6 L 37.6 76.7 L 39.8 79.0 L 41.7 81.6 L 42.0 86.1 L 39.1 89.6 L 34.5 89.9 L 31.0 87.0 L 30.4 85.1 Z M 42.1 37.2 L 40.9 35.2 L 39.4 33.2 L 37.8 31.1 L 33.7 27.0 L 31.3 25.0 L 28.6 22.9 L 25.6 21.2 L 26.2 19.5 L 29.7 20.5 L 33.1 21.3 L 36.4 22.4 L 39.5 23.7 L 42.4 25.1 L 45.2 26.8 L 47.7 28.7 L 50.1 30.7 L 52.3 33.0 L 54.3 35.4 L 54.8 40.0 L 52.0 43.6 L 47.4 44.0 L 43.8 41.3 L 43.1 39.2 Z " />
</g>
</svg>
