<svg xmlns="http://www.w3.org/2000/svg" xmlns:xlink="http://www.w3.org/1999/xlink" version="1.1" baseProfile="full" viewBox="0 0 200 200" width="200" height="200">
<g fill="black">
<path d="M 87.3 30.0 L 87.3 30.151578903198242 L 91.5 29.4 L 100.8 27.8 L 110.0 26.3 L 119.1 24.7 L 128.0 23.1 L 136.8 21.3 L 145.4 19.5 L 153.9 17.6 L 162.2 15.5 L 170.4 13.3 L 170.73649396896363 14.706063938140868 L 181.0 23.2 L 181.3 26.2 L 177.01862888336183 24.11877794265747 L 173.2 25.0 L 164.6 26.6 L 155.9 28.1 L 147.1 29.4 L 138.2 30.5 L 129.2 31.5 L 120.0 32.2 L 110.7 32.8 L 101.3 33.2 L 91.8 33.2 L 87.3 33.014433002471925 L 87.3 51.0 L 168.9 51.0 L 174.9 46.0 L 185.9 55.0 L 180.9 59.0 L 180.9 91.0 L 168.9 97.0 L 168.9 87.0 L 87.3 87.0 L 87.3 101.0 L 86.7 112.9 L 85.7 124.1 L 84.2 134.8 L 82.4 144.8 L 80.2 154.1 L 77.6 162.8 L 74.6 170.8 L 71.1 178.2 L 67.1 184.7 L 62.6 190.4 L 61.1 189.5 L 63.8 183.0 L 66.2 176.1 L 68.4 168.7 L 70.3 160.8 L 71.9 152.3 L 73.3 143.2 L 74.3 133.6 L 75.0 123.3 L 75.3 112.4 L 75.3 24.0 Z M 139.2989418029785 95.32063493728637 L 138.7 107.0 L 138.23400506973266 110.35516376495362 L 138.5 112.4 L 140.7 123.6 L 143.5 133.7 L 144.94045534133912 137.4451838493347 L 145.4 137.0 L 148.5 133.8 L 151.5 130.7 L 154.5 127.7 L 157.4 124.7 L 160.2 121.8 L 162.9 118.8 L 165.5 115.9 L 168.0 113.0 L 169.77161712646483 110.85929594039916 L 169.7 110.8 L 170.7 109.8 L 179.0 118.5 L 179.7 122.0 L 175.8669744491577 121.12580118179321 L 172.7 123.6 L 169.4 126.1 L 166.0 128.6 L 162.5 130.9 L 158.9 133.3 L 155.2 135.5 L 151.4 137.6 L 147.3 139.6 L 146.01612901687622 140.24193544387816 L 147.0 142.8 L 151.2 150.8 L 156.1 157.8 L 161.7 163.8 L 167.9 168.9 L 175.0 173.1 L 182.8 176.5 L 189.3 179.1 L 177.8 188.7 L 168.8 184.0 L 160.7 178.2 L 153.7 171.5 L 147.8 163.8 L 142.9 155.2 L 139.2 145.8 L 136.5 135.5 L 135.279518699646 127.60276823043823 L 133.7 134.5 L 129.5 146.3 L 124.2 156.9 L 117.7 166.1 L 110.2 173.9 L 101.6 180.2 L 92.0 185.0 L 81.5 188.1 L 80.9 186.4 L 90.3 181.6 L 98.5 175.8 L 105.6 169.2 L 111.6 161.6 L 116.7 152.8 L 120.8 143.0 L 123.9 132.0 L 126.1 119.7 L 127.3 106.2 L 127.5 91.4 L 127.5 89.0 L 139.5 91.4 L 142.5 93.4 Z M 39.6 186.9 L 35.5 184.8 L 34.1 180.5 L 34.6 173.5 L 34.7 167.0 L 34.2 161.2 L 33.3 156.0 L 31.8 151.4 L 30.489549160003662 148.5032138824463 L 30.1 148.4 L 30.265925884246826 148.00888891220092 L 29.9 147.2 L 27.5 143.5 L 24.5 140.1 L 20.8 137.0 L 16.5 134.1 L 17.0 132.4 L 22.5 133.6 L 27.6 135.8 L 32.2 138.9 L 33.5884614944458 140.2884614944458 L 35.8 135.6 L 38.9 129.1 L 42.5 121.5 L 46.8 112.8 L 51.7 102.9 L 57.3 91.9 L 63.7 79.8 L 70.8 66.6 L 72.4 67.3 L 67.1 81.3 L 62.2 94.1 L 57.7 105.6 L 53.7 115.8 L 50.3 124.9 L 47.4 132.7 L 45.1 139.3 L 43.4 144.7 L 42.3 148.8 L 41.8 151.5 L 41.22424945831299 151.34745073318481 L 42.1 153.2 L 44.1 159.3 L 45.4 166.1 L 46.0 173.5 L 46.0 181.4 L 43.9 185.5 Z M 87.8 148.2 L 87.2 143.7 L 89.9 140.0 L 92.1 138.9 L 94.2 137.5 L 96.1 135.8 L 97.9 133.6 L 99.5 130.9 L 101.0 127.8 L 102.3 124.2 L 103.5 120.1 L 104.4 115.6 L 105.0 110.6 L 106.8 110.5 L 107.4 115.6 L 108.0 120.5 L 108.1 125.1 L 107.7 129.5 L 106.9 133.7 L 105.7 137.6 L 104.0 141.3 L 101.9 144.6 L 99.2 147.7 L 96.1 150.3 L 91.5 150.9 Z M 34.5 83.4 L 33.2 81.4 L 31.5 79.3 L 29.6 77.3 L 27.3 75.2 L 24.7 73.2 L 21.8 71.1 L 18.6 68.9 L 14.9 67.1 L 15.5 65.4 L 19.5 66.4 L 23.5 67.2 L 27.2 68.2 L 30.7 69.5 L 33.9 71.0 L 37.0 72.6 L 39.8 74.5 L 42.3 76.6 L 44.7 78.9 L 46.7 81.4 L 47.2 86.0 L 44.4 89.6 L 39.8 90.0 L 36.2 87.2 L 35.5 85.3 Z M 87.3 55.0 L 87.3 83.0 L 168.9 83.0 L 168.9 55.0 Z M 48.2 37.4 L 46.8 35.4 L 45.2 33.3 L 43.3 31.3 L 41.1 29.2 L 38.6 27.1 L 35.9 25.0 L 33.0 22.9 L 29.6 21.1 L 30.2 19.4 L 34.0 20.4 L 37.7 21.2 L 41.2 22.3 L 44.6 23.6 L 47.7 25.0 L 50.6 26.7 L 53.4 28.5 L 56.0 30.6 L 58.3 32.8 L 60.4 35.3 L 61.1 39.8 L 58.4 43.5 L 53.9 44.2 L 50.2 41.5 L 49.3 39.5 Z " />
</g>
</svg>
