<svg xmlns="http://www.w3.org/2000/svg" xmlns:xlink="http://www.w3.org/1999/xlink" version="1.1" baseProfile="full" viewBox="0 0 200 200" width="200" height="200">
<g fill="black">
<path d="M 135.4 176.0 L 155.4 176.0 L 156.7 175.9 L 157.6 175.7 L 158.5 175.4 L 158.7 175.2 L 158.8 175.0 L 159.0 174.7 L 159.2 174.1 L 159.4 173.2 L 159.4 69.0 L 121.4 69.0 L 121.4 65.0 L 159.4 65.0 L 159.4 13.0 L 171.4 15.0 L 174.4 17.0 L 171.4 18.8 L 171.4 65.0 L 173.1777777671814 65.0 L 179.4 58.0 L 187.4 65.0 L 187.4 69.0 L 171.4 69.0 L 171.4 172.0 L 171.3 174.5 L 170.8 177.0 L 170.0 179.4 L 168.8 181.7 L 167.2 183.7 L 165.1 185.3 L 162.9 186.6 L 160.5 187.4 L 158.0 187.8 L 155.4 188.0 L 155.4 182.0 L 135.4 179.0 Z M 89.9 69.5 L 89.5 67.3 L 89.0 64.9 L 88.3 62.6 L 87.6 60.1 L 86.7 57.6 L 85.7 54.9 L 84.6 52.2 L 83.67386608123779 50.75291576385498 L 82.6 51.9 L 77.8 56.4 L 72.6 60.4 L 69.47693185806274 62.50097312927246 L 66.1 74.1 L 61.7 88.5 L 57.7 101.4 L 54.1 112.8 L 51.0 122.9 L 48.3 131.5 L 46.1 138.8 L 44.4 144.6 L 43.1 149.0 L 42.427148246765135 151.88365020751954 L 43.0 152.9 L 45.3 159.1 L 46.8 166.0 L 47.6 173.4 L 47.7 181.4 L 45.5 185.5 L 41.2 186.9 L 37.2 184.8 L 35.7 180.5 L 36.2 173.5 L 36.2 167.2 L 35.5 161.4 L 34.3 156.3 L 32.5 151.7 L 30.2 147.5 L 27.2 143.7 L 23.5 140.2 L 19.0 137.0 L 13.7 134.1 L 14.2 132.4 L 20.5 133.5 L 26.3 135.6 L 31.5 138.7 L 34.22633981704712 141.06282777786254 L 34.3 140.9 L 36.6 135.3 L 39.5 128.4 L 43.0 120.0 L 47.0 110.3 L 51.5 99.1 L 56.7 86.6 L 62.5 72.8 L 65.96548252105713 64.69610242843628 L 61.2 67.2 L 60.1 65.7 L 64.7 61.1 L 69.0 56.4 L 73.1 51.7 L 76.8 46.9 L 80.3 42.0 L 83.4 36.9 L 86.2 31.7 L 88.8 26.3 L 91.0 20.7 L 92.60475606918335 15.801271057128906 L 92.6 15.8 L 93.4 13.4 L 104.2 18.9 L 106.4 21.8 L 102.61936979293823 22.529595279693602 L 101.5 25.1 L 98.4 31.1 L 98.275 31.3 L 121.0 31.3 L 127.0 26.3 L 138.0 35.3 L 133.0 38.3 L 131.15457744598388 39.06892604827881 L 128.3 46.4 L 123.2 56.9 L 117.4 66.7 L 110.8 75.6 L 103.5 83.6 L 95.6 90.7 L 86.9 97.0 L 77.6 102.4 L 67.5 106.7 L 56.9 110.0 L 56.3 108.3 L 65.9 103.2 L 74.9 97.7 L 83.1 91.7 L 90.5 85.1 L 97.09388456344604 78.02127094268799 L 93.1 77.4 L 90.3 73.7 L 90.2 71.6 Z M 83.8 160.1 L 82.9 156.5 L 81.8 152.8 L 80.3 148.8 L 78.6 144.7 L 76.5 140.4 L 74.2 135.9 L 71.7 131.2 L 68.9 126.3 L 70.3 125.1 L 74.5 129.1 L 78.4 133.0 L 81.8 137.0 L 84.9 141.0 L 87.7 145.0 L 90.1 149.0 L 92.2 153.0 L 94.0 157.1 L 95.4 161.1 L 96.5 165.1 L 95.3 169.5 L 91.4 171.9 L 87.0 170.7 L 84.6 166.8 L 84.3 163.6 Z M 111.4 139.9 L 110.4 136.5 L 109.1 133.0 L 107.5 129.3 L 105.6 125.4 L 103.3 121.4 L 100.8 117.2 L 98.1 112.8 L 95.0 108.3 L 96.3 107.1 L 100.6 110.6 L 104.6 114.1 L 108.3 117.7 L 111.5 121.3 L 114.5 125.0 L 117.1 128.7 L 119.4 132.4 L 121.3 136.2 L 123.0 140.0 L 124.2 143.8 L 123.3 148.3 L 119.5 150.9 L 115.1 150.0 L 112.5 146.2 L 112.1 143.1 Z M 138.4 119.5 L 137.4 115.7 L 136.2 111.9 L 134.7 108.1 L 133.1 104.4 L 131.2 100.6 L 129.1 96.9 L 126.9 93.1 L 124.3 89.3 L 125.6 88.0 L 129.3 90.9 L 132.9 93.8 L 136.2 97.1 L 139.1 100.5 L 141.9 104.2 L 144.3 108.0 L 146.5 112.0 L 148.4 116.1 L 150.1 120.4 L 151.5 124.8 L 150.6 129.3 L 146.9 131.9 L 142.4 131.0 L 139.8 127.2 L 139.2 123.3 Z M 31.9 85.5 L 30.5 83.5 L 28.7 81.4 L 26.7 79.3 L 24.4 77.3 L 21.7 75.2 L 18.8 73.1 L 15.7 70.9 L 12.1 69.1 L 12.7 67.4 L 16.7 68.4 L 20.6 69.2 L 24.3 70.2 L 27.7 71.5 L 31.0 73.0 L 34.1 74.6 L 36.9 76.5 L 39.6 78.5 L 42.0 80.8 L 44.2 83.2 L 44.9 87.8 L 42.2 91.5 L 37.7 92.2 L 34.0 89.6 L 33.1 87.6 Z M 95.775 35.3 L 94.9 36.7 L 91.1 42.1 L 87.0 47.2 L 85.11428575515747 49.21428575515747 L 86.6 50.7 L 88.9 52.7 L 91.1 54.7 L 93.1 56.9 L 94.9 59.1 L 96.6 61.3 L 98.2 63.6 L 99.6 65.9 L 100.8 68.3 L 102.0 70.8 L 101.78911504745483 71.9862280845642 L 103.4 69.9 L 108.9 61.4 L 113.6 52.1 L 117.8 42.2 L 119.99252338409424 35.3 Z M 48.0 37.8 L 46.7 35.9 L 45.0 33.9 L 43.1 31.8 L 40.8 29.7 L 38.2 27.6 L 35.3 25.4 L 32.2 23.1 L 28.6 21.2 L 29.3 19.5 L 33.3 20.6 L 37.2 21.6 L 40.8 22.7 L 44.2 24.0 L 47.4 25.5 L 50.4 27.1 L 53.1 28.9 L 55.7 30.8 L 58.0 32.9 L 60.0 35.3 L 60.7 39.8 L 58.0 43.5 L 53.5 44.2 L 49.8 41.5 L 49.0 39.7 Z " />
</g>
</svg>
