<svg xmlns="http://www.w3.org/2000/svg" xmlns:xlink="http://www.w3.org/1999/xlink" version="1.1" baseProfile="full" viewBox="0 0 200 200" width="200" height="200">
<g fill="black">
<path d="M 174.5 169.8 L 172.8 165.0 L 172.77597036361695 164.9345859527588 L 168.1 166.6 L 161.1 169.0 L 154.3 171.0 L 147.8 172.9 L 141.6 174.5 L 135.6 176.0 L 129.9 177.4 L 124.6 178.6 L 119.4 179.7 L 118.76271190643311 179.819491481781 L 117.0 183.4 L 114.6 180.6 L 111.2 168.9 L 113.2 168.7 L 117.9 168.4 L 122.9 168.0 L 125.723841381073 167.73853321075438 L 126.4 164.4 L 128.3 155.8 L 130.5 146.7 L 132.9 137.0 L 135.4 126.6 L 138.0 115.6 L 140.8 103.9 L 143.6 91.5 L 146.6 78.5 L 149.7 64.8 L 149.7210620880127 64.80522050857545 L 150.1 63.1 L 161.4 67.7 L 163.8 70.3 L 160.39487771987916 71.39450359344482 L 157.7 81.3 L 154.0 94.2 L 150.5 106.4 L 147.0 118.0 L 143.5 128.9 L 140.2 139.1 L 136.8 148.6 L 133.5 157.5 L 130.0 165.6 L 129.13097953796387 167.41252851486206 L 134.0 166.9 L 140.0 166.2 L 146.3 165.4 L 153.0 164.6 L 160.0 163.7 L 167.3 162.9 L 171.87576303482055 162.48402156829835 L 171.0 160.1 L 169.0 155.2 L 166.8 150.4 L 164.5 145.4 L 162.1 140.4 L 159.6 135.4 L 157.0 130.1 L 158.4 129.0 L 162.7 133.2 L 166.6 137.5 L 170.1 142.0 L 173.4 146.6 L 176.5 151.3 L 179.4 156.1 L 182.0 161.0 L 184.5 165.9 L 186.7 170.9 L 188.7 176.0 L 188.3 180.5 L 184.8 183.5 L 180.2 183.0 L 177.3 179.6 L 176.0 174.7 Z M 103.1 181.0 L 101.5 182.8 L 99.6 184.4 L 97.6 185.8 L 95.4 186.9 L 93.2 187.7 L 90.8 188.3 L 88.3 188.7 L 85.8 188.8 L 85.8 182.8 L 65.8 179.8 L 65.8 176.8 L 85.8 176.8 L 87.2 176.7 L 88.5 176.6 L 89.6 176.3 L 91.4 175.5 L 92.3 174.9 L 93.1 174.2 L 93.8 173.4 L 94.6 172.4 L 95.3 171.2 L 96.1 169.3 L 97.0 166.9 L 97.8 163.9 L 98.5 160.3 L 99.2 156.2 L 99.8 151.6 L 100.3 146.4 L 100.6 140.8 L 100.9 134.6 L 101.03432836532593 130.1 L 79.74517765045167 130.1 L 78.8 137.7 L 66.2 142.2 L 72.5 90.9 L 82.64054050445557 97.6 L 100.4 97.6 L 100.4 71.7 L 67.6 71.7 L 67.6 71.3384614944458 L 63.9 81.3 L 59.2 94.1 L 54.8 105.6 L 50.9 115.8 L 47.5 124.8 L 44.7 132.7 L 42.4 139.3 L 40.8 144.7 L 39.7 148.7 L 39.2 151.4 L 38.57597255706787 151.24532651901245 L 39.5 153.2 L 41.4 159.3 L 42.7 166.1 L 43.3 173.5 L 43.4 181.4 L 41.3 185.5 L 36.9 186.9 L 32.9 184.8 L 31.4 180.5 L 32.0 173.5 L 32.0 167.0 L 31.6 161.2 L 30.6 156.0 L 29.2 151.4 L 28.011475372314454 148.626775932312 L 27.5 148.5 L 27.718947410583496 147.9442105293274 L 27.4 147.2 L 25.0 143.5 L 22.1 140.1 L 18.5 137.0 L 14.2 134.1 L 14.8 132.4 L 20.2 133.6 L 25.3 135.8 L 29.7 138.9 L 31.001288414001465 140.23465480804444 L 33.1 135.6 L 36.1 129.1 L 39.7 121.6 L 43.9 112.8 L 48.7 102.9 L 54.2 91.9 L 60.5 79.8 L 67.5 66.6 L 69.1 67.3 L 68.95142860412598 67.7 L 100.4 67.7 L 106.4 62.7 L 117.4 71.7 L 112.4 75.7 L 112.4 105.6 L 100.4 111.6 L 100.4 101.6 L 83.2895938873291 101.6 L 80.2426396369934 126.1 L 101.1 126.1 L 107.1 121.1 L 118.1 130.1 L 113.1 133.1 L 112.95623474121093 133.1599021911621 L 112.9 135.1 L 112.6 141.5 L 112.2 147.4 L 111.7 152.9 L 111.1 157.9 L 110.3 162.5 L 109.5 166.7 L 108.4 170.4 L 107.3 173.8 L 105.9 176.8 L 104.6 179.0 Z M 31.8 83.3 L 30.5 81.3 L 28.9 79.3 L 27.0 77.3 L 24.8 75.2 L 22.3 73.1 L 19.4 71.1 L 16.3 68.9 L 12.7 67.1 L 13.3 65.4 L 17.3 66.4 L 21.2 67.2 L 24.8 68.3 L 28.2 69.5 L 31.4 71.0 L 34.4 72.6 L 37.2 74.5 L 39.7 76.6 L 42.0 78.9 L 44.0 81.5 L 44.5 86.0 L 41.6 89.6 L 37.1 90.0 L 33.5 87.2 L 32.8 85.3 Z M 63.8 62.2 L 62.8 57.8 L 65.1 53.9 L 66.3 53.4 L 67.5 52.4 L 68.9 51.0 L 70.2 49.1 L 71.4 46.7 L 72.6 43.8 L 73.6 40.5 L 74.6 36.7 L 75.5 32.4 L 75.9 27.8 L 77.7 27.7 L 78.2 32.5 L 78.55454549789428 35.1 L 119.5 35.1 L 119.5 11.7 L 131.5 13.7 L 134.5 15.7 L 131.5 17.5 L 131.5 35.1 L 173.0 35.1 L 173.62168674468995 34.58192768096924 L 173.7 34.3 L 173.86080923080445 34.38265895843506 L 179.0 30.1 L 190.0 39.1 L 185.0 42.1 L 181.01176471710204 43.761764717102054 L 180.0 44.9 L 178.3 46.8 L 176.5 48.7 L 174.6 50.7 L 172.5 52.8 L 170.3 54.9 L 167.8 57.1 L 165.7 59.6 L 164.2 58.6 L 165.8 55.7 L 167.0 52.7 L 168.2 49.9 L 169.3 47.2 L 170.3 44.7 L 171.2 42.3 L 172.0 40.1 L 172.28571424484252 39.1 L 78.95714282989502 39.1 L 79.1 41.1 L 79.1 45.0 L 78.8 48.7 L 78.3 52.1 L 77.4 55.3 L 76.1 58.3 L 74.4 61.1 L 72.2 63.5 L 67.7 64.6 Z M 45.2 37.4 L 43.9 35.3 L 42.3 33.3 L 40.5 31.2 L 38.3 29.2 L 36.0 27.1 L 33.3 25.0 L 30.4 22.9 L 27.1 21.1 L 27.8 19.5 L 31.5 20.4 L 35.1 21.3 L 38.6 22.3 L 41.9 23.6 L 44.9 25.1 L 47.8 26.7 L 50.6 28.6 L 53.1 30.6 L 55.4 32.8 L 57.5 35.3 L 58.1 39.8 L 55.4 43.5 L 50.9 44.1 L 47.2 41.5 L 46.3 39.4 Z " />
</g>
</svg>
