<svg xmlns="http://www.w3.org/2000/svg" xmlns:xlink="http://www.w3.org/1999/xlink" version="1.1" baseProfile="full" viewBox="0 0 200 200" width="200" height="200">
<g fill="black">
<path d="M 40.0 186.9 L 35.9 184.8 L 34.4 180.5 L 35.0 173.5 L 34.9 167.2 L 34.3 161.4 L 33.1 156.2 L 31.4 151.6 L 29.2 147.4 L 26.3 143.6 L 22.7 140.2 L 18.5 137.0 L 13.4 134.1 L 13.9 132.4 L 20.0 133.5 L 25.6 135.7 L 30.7 138.7 L 33.13534278869629 140.9139479637146 L 35.4 135.4 L 38.2 128.4 L 41.5 120.1 L 45.4 110.3 L 49.9 99.2 L 54.9 86.7 L 60.5 72.8 L 66.9 57.7 L 68.6 58.2 L 64.1 74.1 L 59.9 88.4 L 56.1 101.3 L 52.6 112.8 L 49.6 122.8 L 47.0 131.5 L 44.8 138.7 L 43.2 144.5 L 42.0 148.9 L 41.3 151.9 L 41.19067897796631 151.86260070800782 L 41.8 153.0 L 44.1 159.2 L 45.6 166.0 L 46.4 173.4 L 46.4 181.4 L 44.3 185.5 Z M 101.5 111.1 L 101.5 134.9 L 149.1 134.9 L 149.1 111.1 Z M 163.7 106.6 L 157.5 102.9 L 151.5 98.9 L 145.8 94.5 L 140.3 89.8 L 135.1 84.7 L 130.1 79.3 L 125.6 73.4 L 125.09398736953736 72.62246837615967 L 123.4 74.7 L 117.7 80.9 L 111.7 86.7 L 105.3 92.1 L 98.6 97.0 L 91.6 101.6 L 91.07820510864258 101.88910255432128 L 101.5 107.1 L 149.1 107.1 L 155.1 102.1 L 166.1 111.1 L 161.1 115.1 L 161.1 142.9 L 149.1 148.9 L 149.1 138.9 L 101.5 138.9 L 101.5 168.9 L 101.6 170.2 L 101.7 171.1 L 101.9 171.7 L 102.1 172.0 L 102.2 172.2 L 102.4 172.4 L 102.8 172.5 L 103.4 172.7 L 104.3 172.9 L 170.3 172.9 L 176.3 147.9 L 178.3 147.9 L 176.3 172.9 L 179.9 175.3 L 182.3 178.9 L 179.9 182.5 L 176.3 184.9 L 105.5 184.9 L 102.9 184.8 L 100.4 184.4 L 98.0 183.6 L 95.8 182.3 L 93.8 180.7 L 92.1 178.7 L 90.9 176.4 L 90.1 174.0 L 89.6 171.5 L 89.5 168.9 L 89.5 102.76351346969605 L 84.2 105.7 L 76.5 109.3 L 68.5 112.4 L 60.1 114.9 L 59.4 113.3 L 66.9 109.0 L 74.0 104.6 L 80.8 100.1 L 87.3 95.3 L 93.4 90.3 L 99.2 85.1 L 104.6 79.5 L 109.7 73.7 L 114.5 67.6 L 118.33546466827393 62.021142387390135 L 118.3 62.0 L 118.88666667938233 61.2 L 85.7 61.2 L 85.7 73.2 L 73.7 79.2 L 73.7 24.9 L 85.7 26.9 L 88.7 28.9 L 85.7 30.7 L 85.7 57.2 L 119.0 57.2 L 119.0 12.8 L 131.0 14.8 L 134.0 16.8 L 131.0 18.6 L 131.0 57.2 L 163.5 57.2 L 163.5 24.9 L 175.5 26.9 L 178.5 28.9 L 175.5 30.7 L 175.5 67.2 L 163.5 73.2 L 163.5 61.2 L 120.24545450210572 61.2 L 128.7 68.2 L 130.0 71.5 L 129.71511335372924 71.48035268783569 L 134.3 75.1 L 139.8 79.3 L 145.5 83.3 L 151.2 86.9 L 157.0 90.2 L 162.9 93.3 L 168.9 96.0 L 175.0 98.4 L 181.3 100.4 L 188.4 103.0 L 176.8 112.9 L 170.2 109.9 Z M 30.8 85.4 L 29.4 83.4 L 27.7 81.3 L 25.8 79.3 L 23.6 77.2 L 21.1 75.1 L 18.3 73.1 L 15.2 70.9 L 11.8 69.1 L 12.4 67.4 L 16.2 68.4 L 20.1 69.2 L 23.6 70.3 L 27.0 71.5 L 30.2 73.0 L 33.2 74.7 L 36.0 76.5 L 38.5 78.6 L 40.9 80.8 L 43.0 83.3 L 43.7 87.8 L 41.0 91.5 L 36.5 92.1 L 32.7 89.5 L 31.9 87.5 Z M 46.4 37.7 L 45.1 35.8 L 43.5 33.8 L 41.6 31.7 L 39.5 29.7 L 37.0 27.5 L 34.3 25.4 L 31.2 23.1 L 27.8 21.2 L 28.5 19.5 L 32.3 20.7 L 36.1 21.6 L 39.7 22.8 L 43.0 24.1 L 46.1 25.5 L 49.0 27.2 L 51.7 28.9 L 54.1 30.9 L 56.4 33.0 L 58.4 35.3 L 59.0 39.9 L 56.3 43.5 L 51.7 44.1 L 48.0 41.4 L 47.3 39.6 Z " />
</g>
</svg>
