<svg xmlns="http://www.w3.org/2000/svg" xmlns:xlink="http://www.w3.org/1999/xlink" version="1.1" baseProfile="full" viewBox="0 0 200 200" width="200" height="200">
<g fill="black">
<path d="M 91.5 175.5 L 111.5 175.5 L 112.7 175.4 L 113.6 175.3 L 114.2 175.1 L 114.5 174.9 L 114.7 174.7 L 114.9 174.6 L 115.0 174.2 L 115.2 173.6 L 115.4 172.7 L 115.5 171.5 L 115.5 115.9 L 85.1 115.9 L 85.1 127.9 L 73.1 133.9 L 73.1 46.8 L 85.1 52.8 L 101.49210529327392 52.8 L 103.4 50.3 L 106.0 46.4 L 108.4 42.9 L 110.6 39.7 L 114.4 34.0 L 115.9 31.6 L 117.2 29.4 L 118.2 27.5 L 118.5522388458252 26.79552240371704 L 118.4 26.7 L 119.4 25.3 L 128.6 33.1 L 129.8 36.5 L 125.27644786834716 36.0320463180542 L 125.2 36.1 L 123.2 37.9 L 120.9 39.8 L 118.4 41.9 L 115.6 44.2 L 112.5 46.7 L 109.2 49.4 L 105.5 52.2 L 104.80625 52.8 L 157.8 52.8 L 163.8 47.8 L 174.8 56.8 L 169.8 60.8 L 169.8 119.9 L 157.8 125.9 L 157.8 115.9 L 127.5 115.9 L 127.5 171.5 L 127.3 174.0 L 126.9 176.5 L 126.1 178.9 L 124.8 181.2 L 123.2 183.2 L 121.2 184.9 L 118.9 186.1 L 116.5 186.9 L 114.0 187.3 L 111.5 187.5 L 111.5 181.5 L 91.5 178.5 Z M 40.0 186.9 L 35.9 184.8 L 34.4 180.5 L 35.0 173.5 L 34.9 167.2 L 34.3 161.4 L 33.1 156.2 L 31.4 151.6 L 29.2 147.4 L 26.3 143.6 L 22.7 140.2 L 18.5 137.0 L 13.4 134.1 L 13.9 132.4 L 20.0 133.5 L 25.6 135.7 L 30.7 138.7 L 33.13534278869629 140.9139479637146 L 35.4 135.4 L 38.2 128.4 L 41.5 120.1 L 45.4 110.3 L 49.9 99.2 L 54.9 86.7 L 60.5 72.8 L 66.9 57.7 L 68.6 58.2 L 64.1 74.1 L 59.9 88.4 L 56.1 101.3 L 52.6 112.8 L 49.6 122.8 L 47.0 131.5 L 44.8 138.7 L 43.2 144.5 L 42.0 148.9 L 41.3 151.9 L 41.19067897796631 151.86260070800782 L 41.8 153.0 L 44.1 159.2 L 45.6 166.0 L 46.4 173.4 L 46.4 181.4 L 44.3 185.5 Z M 100.3 138.5 L 102.0 141.7 L 98.11837148666382 141.90077390670777 L 96.9 143.8 L 93.4 148.9 L 89.6 153.7 L 85.5 158.3 L 81.2 162.6 L 76.7 166.6 L 72.0 170.4 L 67.0 173.8 L 61.7 176.9 L 56.2 179.5 L 55.2 178.0 L 59.5 173.8 L 63.6 169.7 L 67.6 165.5 L 71.4 161.2 L 75.0 156.9 L 78.3 152.4 L 81.5 147.7 L 84.4 143.0 L 87.2 138.0 L 89.24871273040772 133.82062606811525 L 89.2 133.8 L 90.2 131.9 Z M 169.4 166.3 L 167.4 163.0 L 164.8 159.5 L 161.8 155.8 L 158.3 152.0 L 154.4 147.9 L 150.0 143.7 L 145.2 139.1 L 140.1 134.3 L 141.1 132.8 L 147.5 136.1 L 153.3 139.4 L 158.6 142.9 L 163.4 146.3 L 167.7 149.8 L 171.6 153.2 L 175.1 156.6 L 178.2 160.1 L 180.8 163.6 L 183.0 167.1 L 183.1 171.7 L 180.1 175.1 L 175.5 175.2 L 172.1 172.1 L 171.0 169.3 Z M 85.1 85.5 L 85.1 111.9 L 157.8 111.9 L 157.8 85.5 Z M 30.8 85.4 L 29.4 83.4 L 27.7 81.3 L 25.8 79.3 L 23.6 77.2 L 21.1 75.1 L 18.3 73.1 L 15.2 70.9 L 11.8 69.1 L 12.4 67.4 L 16.2 68.4 L 20.1 69.2 L 23.6 70.3 L 27.0 71.5 L 30.2 73.0 L 33.2 74.7 L 36.0 76.5 L 38.5 78.6 L 40.9 80.8 L 43.0 83.3 L 43.7 87.8 L 41.0 91.5 L 36.5 92.1 L 32.7 89.5 L 31.9 87.5 Z M 85.1 56.8 L 85.1 81.5 L 157.8 81.5 L 157.8 56.8 Z M 46.4 37.7 L 45.1 35.8 L 43.5 33.8 L 41.6 31.7 L 39.5 29.7 L 37.0 27.5 L 34.3 25.4 L 31.2 23.1 L 27.8 21.2 L 28.5 19.5 L 32.3 20.7 L 36.1 21.6 L 39.7 22.8 L 43.0 24.1 L 46.1 25.5 L 49.0 27.2 L 51.7 28.9 L 54.1 30.9 L 56.4 33.0 L 58.4 35.3 L 59.0 39.9 L 56.3 43.5 L 51.7 44.1 L 48.0 41.4 L 47.3 39.6 Z M 185.7 21.0 L 185.7 25.0 L 57.2 25.0 L 57.2 21.0 L 163.7 21.0 L 173.7 11.0 Z " />
</g>
</svg>
