<svg xmlns="http://www.w3.org/2000/svg" xmlns:xlink="http://www.w3.org/1999/xlink" version="1.1" baseProfile="full" viewBox="0 0 200 200" width="200" height="200">
<g fill="black">
<path d="M 165.3 162.9 L 159.8 158.5 L 154.4 153.8 L 149.3 148.9 L 144.3 143.7 L 139.5 138.1 L 134.9 132.2 L 130.7 126.0 L 129.31495714187622 123.55795078277588 L 129.14011974334716 156.0 L 133.0 156.0 L 143.0 146.0 L 155.0 156.0 L 155.0 160.0 L 129.1185628890991 160.0 L 129.0 182.0 L 116.9 187.9 L 117.07537145614624 160.0 L 91.0 160.0 L 91.0 156.0 L 117.10051431655884 156.0 L 117.27085256576538 128.90073318481444 L 114.6 132.3 L 109.8 137.8 L 104.6 143.2 L 99.0 148.5 L 92.9 153.6 L 86.5 158.7 L 79.6 163.6 L 72.3 168.2 L 64.5 172.7 L 63.4 171.2 L 70.0 165.2 L 76.3 159.4 L 82.2 153.7 L 87.8 148.0 L 93.0 142.5 L 97.7 136.9 L 102.1 131.3 L 106.1 125.8 L 109.7 120.3 L 109.85652170181274 120.0 L 70.0 120.0 L 70.0 116.0 L 117.35194282531738 116.0 L 117.49651432037354 93.0 L 79.0 93.0 L 79.0 89.0 L 117.52165718078614 89.0 L 117.67251424789428 65.0 L 76.4823899269104 65.0 L 73.3 74.2 L 68.3 88.6 L 63.7 101.5 L 59.5 113.0 L 55.9 123.1 L 52.8 131.7 L 50.2 138.9 L 48.2 144.8 L 46.8 149.2 L 46.08640775680542 151.57864074707032 L 46.8 152.7 L 49.4 159.0 L 51.1 165.9 L 51.9 173.4 L 51.9 181.5 L 49.8 185.5 L 45.4 186.9 L 41.4 184.8 L 40.0 180.5 L 40.5 173.5 L 40.4 167.3 L 39.7 161.6 L 38.3 156.5 L 36.2 151.8 L 33.4 147.6 L 29.9 143.8 L 25.6 140.3 L 20.4 137.0 L 14.2 134.1 L 14.7 132.3 L 21.7 133.5 L 28.1 135.5 L 33.9 138.6 L 37.8707142829895 141.558571434021 L 38.3 140.7 L 40.9 135.2 L 44.2 128.2 L 48.0 119.8 L 52.5 110.1 L 57.6 99.0 L 63.3 86.5 L 69.8 72.7 L 73.52251653671264 65.0 L 67.0 65.0 L 67.0 61.0 L 75.45629138946533 61.0 L 77.1 57.6 L 78.8 58.3 L 77.86603775024415 61.0 L 117.69765710830688 61.0 L 117.86108570098877 35.0 L 80.0 35.0 L 80.0 31.0 L 117.88622856140137 31.0 L 118.0 12.9 L 129.9 15.0 L 132.9 17.0 L 129.88271722793579 18.2069130897522 L 129.8137724876404 31.0 L 159.0 31.0 L 165.0 26.0 L 176.0 35.0 L 171.0 39.0 L 171.0 61.0 L 175.5 61.0 L 180.0 55.0 L 186.0 61.0 L 186.0 65.0 L 171.0 65.0 L 171.0 97.0 L 159.0 103.0 L 159.0 93.0 L 129.47964067459105 93.0 L 129.35568866729736 116.0 L 160.0 116.0 L 170.0 106.0 L 182.0 116.0 L 182.0 120.0 L 130.2764705657959 120.0 L 133.9 123.3 L 139.3 128.3 L 144.7 133.1 L 150.1 137.6 L 155.4 141.9 L 160.9 145.9 L 166.3 149.6 L 171.9 153.1 L 177.5 156.3 L 183.1 159.2 L 188.0 161.8 L 176.8 170.7 L 170.9 166.9 Z M 35.6 85.8 L 33.9 83.7 L 31.8 81.6 L 29.4 79.5 L 26.7 77.4 L 23.6 75.3 L 20.2 73.2 L 16.5 71.0 L 12.4 69.1 L 12.9 67.4 L 17.4 68.3 L 21.8 69.0 L 25.9 70.1 L 29.8 71.4 L 33.4 72.8 L 36.8 74.4 L 40.0 76.3 L 42.9 78.3 L 45.6 80.6 L 48.0 83.0 L 48.9 87.5 L 46.5 91.4 L 42.1 92.3 L 38.2 89.9 L 37.1 87.9 Z M 129.6305389404297 65.0 L 129.50119762420655 89.0 L 159.0 89.0 L 159.0 65.0 Z M 129.7922155380249 35.0 L 129.65209579467773 61.0 L 159.0 61.0 L 159.0 35.0 Z M 53.9 38.1 L 52.2 36.1 L 50.3 34.1 L 47.9 32.0 L 45.3 29.9 L 42.2 27.7 L 38.9 25.5 L 35.2 23.2 L 31.1 21.1 L 31.7 19.4 L 36.3 20.5 L 40.6 21.4 L 44.7 22.6 L 48.5 23.9 L 52.0 25.3 L 55.3 26.9 L 58.3 28.7 L 61.1 30.6 L 63.7 32.8 L 65.9 35.1 L 66.8 39.6 L 64.4 43.4 L 59.9 44.3 L 56.1 41.9 L 55.1 40.1 Z " />
</g>
</svg>
