<svg xmlns="http://www.w3.org/2000/svg" xmlns:xlink="http://www.w3.org/1999/xlink" version="1.1" baseProfile="full" viewBox="0 0 200 200" width="200" height="200">
<g fill="black">
<path d="M 118.4 177.0 L 138.4 177.0 L 139.6 176.9 L 140.5 176.7 L 141.4 176.4 L 141.8 176.0 L 142.1 175.1 L 142.3 174.2 L 142.4 173.0 L 142.4 136.0 L 63.3 136.0 L 63.3 132.0 L 142.4 132.0 L 142.4 114.0 L 154.4 116.0 L 157.4 118.0 L 154.4 119.8 L 154.4 132.0 L 166.1 132.0 L 176.1 122.0 L 188.1 132.0 L 188.1 136.0 L 154.4 136.0 L 154.4 173.0 L 154.2 175.5 L 153.8 178.0 L 153.0 180.4 L 151.7 182.7 L 150.1 184.7 L 148.1 186.3 L 145.8 187.6 L 143.4 188.4 L 140.9 188.8 L 138.4 189.0 L 138.4 183.0 L 118.4 180.0 Z M 38.2 186.9 L 34.1 184.8 L 32.6 180.5 L 33.2 173.5 L 33.3 167.1 L 32.8 161.3 L 31.8 156.1 L 30.3 151.5 L 28.773366832733153 148.4467336654663 L 28.6 148.4 L 28.666101741790772 148.23220338821412 L 28.2 147.3 L 25.7 143.6 L 22.5 140.2 L 18.6 137.0 L 14.0 134.1 L 14.5 132.4 L 20.2 133.6 L 25.5 135.7 L 30.2 138.8 L 32.02399253845215 140.53713579177855 L 34.4 135.5 L 37.6 129.0 L 41.4 121.5 L 45.9 112.7 L 51.0 102.9 L 56.8 91.8 L 63.4 79.7 L 70.8 66.6 L 72.4 67.3 L 66.8 81.4 L 61.7 94.1 L 56.9 105.6 L 52.8 115.9 L 49.2 124.9 L 46.1 132.8 L 43.7 139.4 L 41.9 144.8 L 40.7 148.9 L 40.1 151.5 L 39.735422420501706 151.4017225265503 L 40.6 153.1 L 42.6 159.3 L 44.0 166.1 L 44.6 173.5 L 44.6 181.4 L 42.5 185.5 Z M 105.5 161.9 L 104.3 159.7 L 103.0 157.4 L 101.5 155.1 L 99.7 152.8 L 97.9 150.4 L 95.8 148.0 L 93.6 145.5 L 91.0 143.2 L 92.0 141.7 L 95.1 143.3 L 98.3 144.7 L 101.3 146.3 L 104.1 147.9 L 106.8 149.7 L 109.3 151.6 L 111.7 153.7 L 113.9 155.8 L 115.9 158.0 L 117.8 160.4 L 118.3 165.0 L 115.5 168.6 L 110.9 169.0 L 107.3 166.2 L 106.5 164.1 Z M 91.2 116.0 L 79.2 122.0 L 79.2 53.0 L 91.2 59.0 L 119.0 59.0 L 119.0 44.0 L 64.1 44.0 L 64.1 40.0 L 119.0 40.0 L 119.0 14.0 L 131.0 16.0 L 134.0 18.0 L 131.0 19.8 L 131.0 40.0 L 165.4 40.0 L 175.4 30.0 L 187.4 40.0 L 187.4 44.0 L 131.0 44.0 L 131.0 59.0 L 158.7 59.0 L 164.7 54.0 L 175.7 63.0 L 170.7 67.0 L 170.7 113.0 L 158.7 119.0 L 158.7 109.0 L 91.2 109.0 Z M 91.2 86.0 L 91.2 105.0 L 119.0 105.0 L 119.0 86.0 Z M 131.0 86.0 L 131.0 105.0 L 158.7 105.0 L 158.7 86.0 Z M 33.1 83.5 L 31.7 81.5 L 29.9 79.4 L 27.8 77.4 L 25.4 75.3 L 22.7 73.2 L 19.6 71.1 L 16.2 68.9 L 12.3 67.1 L 12.9 65.4 L 17.1 66.3 L 21.3 67.1 L 25.1 68.2 L 28.7 69.4 L 32.1 70.9 L 35.2 72.6 L 38.1 74.4 L 40.8 76.5 L 43.2 78.8 L 45.3 81.3 L 45.9 85.9 L 43.1 89.5 L 38.6 90.1 L 34.9 87.4 L 34.2 85.4 Z M 91.2 63.0 L 91.2 82.0 L 119.0 82.0 L 119.0 63.0 Z M 131.0 63.0 L 131.0 82.0 L 158.7 82.0 L 158.7 63.0 Z M 47.4 37.5 L 45.9 35.5 L 44.2 33.4 L 42.1 31.3 L 39.8 29.2 L 37.2 27.2 L 34.4 25.1 L 31.2 22.9 L 27.7 21.1 L 28.3 19.4 L 32.2 20.4 L 36.1 21.2 L 39.8 22.3 L 43.2 23.5 L 46.5 25.0 L 49.5 26.6 L 52.4 28.5 L 55.0 30.5 L 57.5 32.7 L 59.7 35.2 L 60.4 39.7 L 57.8 43.5 L 53.3 44.2 L 49.5 41.6 L 48.6 39.6 Z " />
</g>
</svg>
