<svg xmlns="http://www.w3.org/2000/svg" xmlns:xlink="http://www.w3.org/1999/xlink" version="1.1" baseProfile="full" viewBox="0 0 200 200" width="200" height="200">
<g fill="black">
<path d="M 168.5 173.7 L 167.1 170.1 L 165.3 166.4 L 163.1 162.7 L 160.6 158.8 L 157.7 154.9 L 154.5 150.8 L 151.0 146.6 L 147.2 142.3 L 148.3 140.9 L 153.4 143.9 L 158.1 147.1 L 162.3 150.5 L 166.2 154.0 L 169.8 157.6 L 172.9 161.4 L 175.8 165.2 L 178.2 169.2 L 180.3 173.3 L 181.9 177.5 L 181.3 182.0 L 177.7 184.8 L 173.2 184.2 L 170.4 180.6 L 169.6 177.2 Z M 121.2 171.3 L 120.6 168.0 L 119.6 164.8 L 118.4 161.4 L 116.7 157.9 L 114.8 154.4 L 112.6 150.8 L 110.1 147.0 L 107.1 143.3 L 108.3 141.9 L 112.3 144.8 L 116.1 147.6 L 119.5 150.7 L 122.6 154.0 L 125.3 157.4 L 127.7 160.9 L 129.7 164.6 L 131.4 168.4 L 132.7 172.3 L 133.6 176.4 L 132.2 180.7 L 128.2 182.9 L 123.9 181.5 L 121.7 177.5 L 121.6 174.4 Z M 80.7 182.9 L 76.7 180.7 L 75.3 176.4 L 75.8 173.3 L 76.1 170.2 L 76.1 167.1 L 75.9 163.9 L 75.5 160.7 L 74.7 157.4 L 73.7 154.0 L 72.4 150.5 L 70.9 146.8 L 68.9 143.3 L 70.3 142.1 L 73.3 145.1 L 76.2 148.1 L 78.8 151.3 L 81.0 154.6 L 82.9 158.1 L 84.5 161.8 L 85.7 165.6 L 86.5 169.4 L 87.1 173.4 L 87.2 177.5 L 85.0 181.5 Z M 42.036486530303954 140.90202703475953 L 43.8 141.0 L 44.2 146.9 L 44.3 152.5 L 43.9 157.8 L 42.9 162.9 L 41.6 167.6 L 39.7 171.9 L 37.4 176.0 L 34.6 179.7 L 31.2 182.9 L 27.5 185.8 L 22.9 186.2 L 19.3 183.4 L 18.9 178.8 L 21.7 175.2 L 24.5 173.8 L 27.2 172.1 L 29.7 169.9 L 32.0 167.2 L 34.1 164.1 L 36.1 160.5 L 37.9 156.4 L 39.4 151.7 L 40.9 146.6 L 41.9971962928772 140.914528465271 L 41.1 141.2 L 37.1 139.0 L 35.8 134.6 L 36.3 130.0 L 36.3 125.8 L 35.8 122.0 L 34.7 118.5 L 33.0 115.3 L 30.7 112.2 L 27.7 109.3 L 23.9 106.6 L 19.3 104.0 L 13.8 101.8 L 14.2 100.0 L 20.3 100.8 L 25.9 102.1 L 31.0 104.1 L 34.218369483947754 105.95950241088867 L 34.5 105.5 L 36.8 101.5 L 39.7 96.5 L 43.2 90.4 L 47.1 83.3 L 51.7 75.2 L 56.8 66.2 L 62.6 56.1 L 69.1 45.2 L 70.7 46.0 L 66.0 57.8 L 61.6 68.5 L 57.6 78.1 L 54.0 86.6 L 50.8 94.1 L 48.1 100.5 L 45.9 105.9 L 44.1 110.3 L 42.68747625350952 114.18444023132324 L 42.7 114.2 L 45.1 118.8 L 46.8 124.1 L 47.7 129.7 L 47.7 135.8 L 45.5 139.8 Z M 99.0 124.2 L 96.6 123.7 L 94.1 122.9 L 91.9 121.7 L 89.9 120.0 L 88.2 118.0 L 87.0 115.8 L 86.2 113.4 L 85.7 110.9 L 85.6 108.3 L 85.6 55.80681819915772 L 83.5 59.1 L 78.8 65.7 L 73.6 72.2 L 68.1 78.4 L 62.1 84.4 L 60.7 83.2 L 65.1 76.1 L 69.3 69.1 L 73.3 62.2 L 77.0 55.2 L 80.4 48.2 L 83.5 41.2 L 86.4 34.1 L 88.9 27.0 L 91.1 19.8 L 93.0 12.6 L 93.03938274383545 12.610864162445068 L 93.5 10.9 L 104.6 15.8 L 106.9 18.6 L 103.25876398086548 19.575331115722655 L 101.9 23.4 L 98.9 30.8 L 97.45342464447022 34.0 L 173.6 34.0 L 179.6 29.0 L 190.6 38.0 L 185.6 41.0 L 185.5322322845459 41.02823657989502 L 185.6 51.6 L 185.3 65.8 L 184.8 78.7 L 184.1 90.3 L 183.1 100.5 L 181.8 109.5 L 180.2 117.2 L 178.2 123.7 L 175.8 129.2 L 172.7 133.6 L 170.9 135.3 L 169.1 136.8 L 167.2 138.2 L 165.1 139.4 L 163.0 140.4 L 160.8 141.3 L 158.5 141.9 L 156.2 142.4 L 153.8 142.6 L 151.4 142.7 L 151.4 136.7 L 131.4 133.7 L 131.4 130.7 L 152.9 130.7 L 154.4 130.5 L 157.0 129.9 L 158.3 129.4 L 159.5 128.8 L 160.6 128.1 L 161.8 127.3 L 162.9 126.4 L 164.0 125.3 L 165.3 123.4 L 166.9 119.7 L 168.5 114.3 L 169.9 107.5 L 171.1 99.1 L 172.1 89.3 L 172.9 78.1 L 173.3 65.5 L 173.6 51.5 L 173.6 38.0 L 95.6452054977417 38.0 L 95.6 38.1 L 91.9 45.2 L 89.3 49.75 L 97.6 53.9 L 142.2 53.9 L 148.2 48.9 L 159.2 57.9 L 154.2 61.9 L 154.2 88.6 L 142.2 94.6 L 142.2 84.6 L 97.6 84.6 L 97.6 108.3 L 97.7 109.5 L 97.8 110.4 L 98.0 111.0 L 98.2 111.4 L 98.5 111.7 L 98.9 111.9 L 99.5 112.1 L 100.4 112.2 L 101.6 112.3 L 150.6 112.3 L 156.6 87.3 L 158.6 87.3 L 156.6 112.3 L 160.2 114.7 L 162.6 118.3 L 160.2 121.9 L 156.6 124.3 L 101.6 124.3 Z M 97.6 57.9 L 97.6 80.6 L 142.2 80.6 L 142.2 57.9 Z M 32.3 67.1 L 30.9 65.5 L 29.2 63.9 L 27.1 62.2 L 24.7 60.6 L 22.1 58.9 L 19.1 57.2 L 15.8 55.4 L 12.2 54.0 L 12.6 52.3 L 16.5 52.9 L 20.4 53.3 L 23.9 53.9 L 27.3 54.6 L 30.4 55.5 L 33.4 56.5 L 36.1 57.6 L 38.7 58.9 L 41.1 60.5 L 43.3 62.2 L 44.6 66.6 L 42.6 70.7 L 38.2 72.0 L 34.1 69.9 L 33.4 68.5 Z M 48.4 32.0 L 47.1 30.5 L 45.5 28.9 L 43.5 27.3 L 41.2 25.6 L 38.5 23.9 L 35.6 22.2 L 32.4 20.3 L 28.7 18.8 L 29.2 17.1 L 33.1 17.8 L 36.9 18.3 L 40.5 18.9 L 43.8 19.7 L 46.9 20.6 L 49.7 21.6 L 52.4 22.7 L 54.8 23.9 L 57.1 25.3 L 59.2 26.9 L 60.5 31.3 L 58.4 35.4 L 54.0 36.7 L 49.9 34.6 L 49.3 33.4 Z " />
</g>
</svg>
