<svg xmlns="http://www.w3.org/2000/svg" xmlns:xlink="http://www.w3.org/1999/xlink" version="1.1" baseProfile="full" viewBox="0 0 200 200" width="200" height="200">
<g fill="black">
<path d="M 131.20542631149291 108.77674417495727 L 130.5 118.3 L 130.28751449584962 119.5647946357727 L 130.8 122.7 L 133.1 132.2 L 136.0 140.7 L 137.85694189071654 144.36501693725586 L 139.0 143.5 L 142.5 140.6 L 146.0 137.8 L 149.4 135.2 L 152.7 132.5 L 155.9 129.9 L 159.0 127.3 L 161.9 124.7 L 164.8 122.2 L 166.73499002456666 120.33667631149292 L 166.7 120.3 L 167.08000001907348 120.00444440841675 L 167.5 119.6 L 167.53829317092897 119.6479941368103 L 167.6 119.6 L 175.0 129.0 L 175.3 132.6 L 171.5433961868286 131.23396224975585 L 164.6 135.4 L 160.9 137.4 L 157.1 139.4 L 153.2 141.3 L 149.1 143.1 L 144.9 144.8 L 140.6 146.4 L 139.1353611946106 146.88821296691896 L 139.8 148.2 L 144.3 154.9 L 149.7 160.7 L 155.8 165.8 L 162.8 170.1 L 170.6 173.7 L 179.5 176.7 L 187.2 179.1 L 175.5 189.3 L 165.6 185.2 L 156.7 180.3 L 148.9 174.4 L 142.2 167.7 L 136.7 160.2 L 132.4 152.0 L 129.2 143.0 L 127.4294659614563 134.05414361953734 L 125.0 142.2 L 120.3 152.5 L 114.4 161.6 L 107.2 169.5 L 98.9 176.1 L 89.5 181.4 L 79.0 185.3 L 67.4 187.8 L 67.0 186.1 L 77.6 181.7 L 86.9 176.7 L 95.0 170.8 L 101.8 164.2 L 107.4 156.7 L 112.0 148.4 L 115.5 139.0 L 117.9 128.7 L 119.2 117.3 L 119.5 104.8 L 119.5 103.5 L 70.0 103.5 L 70.0 99.5 L 70.25625 99.5 L 70.2 99.4 L 76.6 94.4 L 82.3 89.2 L 87.5 83.6 L 92.1 77.7 L 96.2 71.3 L 99.7 64.5 L 102.7 57.2 L 105.1 49.3 L 107.0 41.0 L 108.4 32.1 L 108.4326385498047 32.10521116256714 L 108.7 30.1 L 120.3 34.0 L 122.9 36.4 L 119.42561702728271 37.81548938751221 L 118.1 43.6 L 115.3 52.6 L 111.9 61.0 L 107.9 68.8 L 103.3 75.9 L 98.0 82.4 L 92.2 88.2 L 85.7 93.3 L 78.7 97.6 L 74.4529411315918 99.5 L 160.3 99.5 L 170.3 89.5 L 182.3 99.5 L 182.3 103.5 L 125.0 103.5 L 131.5 104.8 L 134.5 106.8 Z M 66.74122734069825 64.76766328811645 L 64.1 74.1 L 59.9 88.4 L 56.1 101.3 L 52.6 112.8 L 49.6 122.8 L 47.0 131.5 L 44.8 138.7 L 43.2 144.5 L 42.0 148.9 L 41.3 151.9 L 41.19067897796631 151.86260070800782 L 41.8 153.0 L 44.1 159.2 L 45.6 166.0 L 46.4 173.4 L 46.4 181.4 L 44.3 185.5 L 40.0 186.9 L 35.9 184.8 L 34.4 180.5 L 35.0 173.5 L 34.9 167.2 L 34.3 161.4 L 33.1 156.2 L 31.4 151.6 L 29.2 147.4 L 26.3 143.6 L 22.7 140.2 L 18.5 137.0 L 13.4 134.1 L 13.9 132.4 L 20.0 133.5 L 25.6 135.7 L 30.7 138.7 L 33.13534278869629 140.9139479637146 L 35.4 135.4 L 38.2 128.4 L 41.5 120.1 L 45.4 110.3 L 49.9 99.2 L 54.9 86.7 L 60.5 72.8 L 64.91696701049804 62.37871837615967 L 64.0 60.4 L 65.3 56.1 L 66.7 54.7 L 68.2 52.6 L 69.6 49.8 L 71.0 46.2 L 72.3 42.1 L 73.5 37.2 L 74.5 31.8 L 75.4 25.7 L 76.4 19.1 L 77.3 11.8 L 79.1 11.8 L 80.1 19.1 L 80.5764705657959 24.5 L 171.5 24.5 L 177.5 19.5 L 188.5 28.5 L 183.5 31.5 L 181.25590553283692 32.435039329528806 L 180.6 33.7 L 179.1 36.6 L 177.4 39.6 L 175.7 42.7 L 173.8 46.0 L 171.7 49.4 L 169.5 53.0 L 167.0 56.6 L 164.6 60.5 L 163.0 59.8 L 164.3 55.4 L 165.4 51.2 L 166.4 47.2 L 167.4 43.4 L 168.4 39.8 L 169.3 36.4 L 170.0 33.1 L 170.7 30.1 L 171.04285717010498 28.5 L 80.821875 28.5 L 81.0 32.3 L 80.9 38.1 L 80.6 43.5 L 80.0 48.4 L 79.2 52.9 L 78.0 56.9 L 76.4 60.6 L 74.4 63.9 L 70.3 65.9 Z M 74.8 153.3 L 74.7 148.8 L 77.7 145.4 L 80.3 144.5 L 82.5 143.3 L 84.6 141.9 L 86.5 140.2 L 88.3 138.1 L 89.8 135.6 L 91.2 132.7 L 92.4 129.4 L 93.4 125.5 L 93.8 121.3 L 95.6 121.2 L 96.2 125.6 L 96.7 129.8 L 96.7 133.9 L 96.2 137.8 L 95.2 141.5 L 93.7 145.1 L 91.7 148.4 L 89.2 151.4 L 86.2 154.0 L 82.7 156.3 L 78.2 156.4 Z M 30.8 85.4 L 29.4 83.4 L 27.7 81.3 L 25.8 79.3 L 23.6 77.2 L 21.1 75.1 L 18.3 73.1 L 15.2 70.9 L 11.8 69.1 L 12.4 67.4 L 16.2 68.4 L 20.1 69.2 L 23.6 70.3 L 27.0 71.5 L 30.2 73.0 L 33.2 74.7 L 36.0 76.5 L 38.5 78.6 L 40.9 80.8 L 43.0 83.3 L 43.7 87.8 L 41.0 91.5 L 36.5 92.1 L 32.7 89.5 L 31.9 87.5 Z M 178.9 58.6 L 180.9 58.6 L 178.9 75.6 L 181.9 77.6 L 183.9 80.6 L 181.9 83.6 L 178.9 85.6 L 149.2 85.6 L 146.7 85.5 L 144.3 85.2 L 142.0 84.5 L 139.8 83.5 L 137.8 82.0 L 136.1 80.1 L 134.8 77.9 L 133.9 75.6 L 133.4 73.1 L 133.2 70.6 L 133.2 29.9 L 145.2 31.9 L 148.2 33.9 L 145.2 35.7 L 145.2 70.6 L 145.1 71.8 L 145.2 72.8 L 145.3 73.4 L 145.4 73.9 L 145.5 74.2 L 145.7 74.5 L 146.1 74.8 L 146.8 75.1 L 147.8 75.4 L 149.2 75.6 L 173.9 75.6 Z M 46.4 37.7 L 45.1 35.8 L 43.5 33.8 L 41.6 31.7 L 39.5 29.7 L 37.0 27.5 L 34.3 25.4 L 31.2 23.1 L 27.8 21.2 L 28.5 19.5 L 32.3 20.7 L 36.1 21.6 L 39.7 22.8 L 43.0 24.1 L 46.1 25.5 L 49.0 27.2 L 51.7 28.9 L 54.1 30.9 L 56.4 33.0 L 58.4 35.3 L 59.0 39.9 L 56.3 43.5 L 51.7 44.1 L 48.0 41.4 L 47.3 39.6 Z " />
</g>
</svg>
