<svg xmlns="http://www.w3.org/2000/svg" xmlns:xlink="http://www.w3.org/1999/xlink" version="1.1" baseProfile="full" viewBox="0 0 200 200" width="200" height="200">
<g fill="black">
<path d="M 104.0 99.0 L 104.0 67.0 L 80.0 67.0 L 80.0 97.0 L 79.92366409301758 99.0 Z M 152.9 179.3 L 142.8 174.3 L 133.4 168.7 L 131.01230897903443 166.95087747573854 L 122.4 171.6 L 110.3 176.9 L 97.4 181.4 L 83.7 185.1 L 69.2 187.8 L 68.7 186.1 L 82.6 181.4 L 95.6 176.3 L 107.6 170.9 L 118.9 164.9 L 123.98601951599122 161.69037599563597 L 117.0 155.6 L 110.0 148.2 L 103.9 140.2 L 98.7 131.5 L 94.91195650100708 123.0 L 80.0 123.0 L 80.0 119.0 L 167.0 119.0 L 167.1043478012085 118.91304349899292 L 167.9 117.7 L 168.27240219116212 117.93966484069824 L 173.0 114.0 L 184.0 123.0 L 179.0 126.0 L 175.61791048049926 127.40920400619507 L 170.8 133.9 L 162.8 142.9 L 153.9 151.2 L 144.2 158.7 L 140.7580912590027 160.92904567718506 L 147.7 164.4 L 157.4 168.3 L 167.6 171.7 L 178.6 174.6 L 187.0 176.7 L 175.3 187.3 L 163.7 183.6 Z M 97.4307692527771 123.0 L 102.2 129.2 L 108.5 136.5 L 115.3 143.2 L 122.5 149.3 L 130.3 154.9 L 132.276331615448 156.07638788223267 L 138.6 151.3 L 147.2 143.7 L 154.9 135.6 L 161.8 127.0 L 164.42365589141846 123.0 Z M 116.0 67.0 L 116.0 99.0 L 135.0 99.0 L 135.0 67.0 Z M 147.0 67.0 L 147.0 99.0 L 166.0 99.0 L 166.0 67.0 Z M 31.9 85.5 L 30.5 83.5 L 28.7 81.4 L 26.7 79.3 L 24.4 77.3 L 21.7 75.2 L 18.8 73.1 L 15.7 70.9 L 12.1 69.1 L 12.7 67.4 L 16.7 68.4 L 20.6 69.2 L 24.3 70.2 L 27.7 71.5 L 31.0 73.0 L 34.1 74.6 L 36.9 76.5 L 39.6 78.5 L 42.0 80.8 L 44.2 83.2 L 44.9 87.8 L 42.2 91.5 L 37.7 92.2 L 34.0 89.6 L 33.1 87.6 Z M 80.0 40.0 L 80.0 63.0 L 104.0 63.0 L 104.0 40.0 Z M 116.0 63.0 L 135.0 63.0 L 135.0 40.0 L 116.0 40.0 Z M 48.0 37.8 L 46.7 35.9 L 45.0 33.9 L 43.1 31.8 L 40.8 29.7 L 38.2 27.6 L 35.3 25.4 L 32.2 23.1 L 28.6 21.2 L 29.3 19.5 L 33.3 20.6 L 37.2 21.6 L 40.8 22.7 L 44.2 24.0 L 47.4 25.5 L 50.4 27.1 L 53.1 28.9 L 55.7 30.8 L 58.0 32.9 L 60.0 35.3 L 60.7 39.8 L 58.0 43.5 L 53.5 44.2 L 49.8 41.5 L 49.0 39.7 Z M 41.2 186.9 L 37.2 184.8 L 35.7 180.5 L 36.2 173.5 L 36.2 167.2 L 35.5 161.4 L 34.3 156.3 L 32.5 151.7 L 30.2 147.5 L 27.2 143.7 L 23.5 140.2 L 19.0 137.0 L 13.7 134.1 L 14.2 132.4 L 20.5 133.5 L 26.3 135.6 L 31.5 138.7 L 34.22633981704712 141.06282777786254 L 34.3 140.9 L 36.6 135.3 L 39.5 128.4 L 43.0 120.0 L 47.0 110.3 L 51.5 99.1 L 56.7 86.6 L 62.5 72.8 L 68.0 59.938461494445804 L 68.0 30.0 L 80.0 36.0 L 119.0 36.0 L 119.0 11.0 L 131.0 13.0 L 134.0 15.0 L 131.0 16.8 L 131.0 36.0 L 163.0 36.0 L 173.0 26.0 L 185.0 36.0 L 185.0 40.0 L 147.0 40.0 L 147.0 63.0 L 166.0 63.0 L 172.0 58.0 L 183.0 67.0 L 178.0 71.0 L 178.0 105.0 L 166.0 111.0 L 166.0 103.0 L 79.77099237442016 103.0 L 79.5 110.1 L 78.7 122.3 L 77.5 133.7 L 76.0 144.3 L 74.1 153.9 L 71.9 162.7 L 69.3 170.6 L 66.2 177.6 L 62.7 183.6 L 58.7 188.4 L 57.2 187.5 L 59.3 181.9 L 61.2 175.6 L 63.0 168.7 L 64.5 161.0 L 65.8 152.5 L 66.8 143.1 L 67.5 132.8 L 68.0 121.7 L 68.1 109.8 L 68.0 97.0 L 68.0 67.57391300201417 L 66.1 74.1 L 61.7 88.5 L 57.7 101.4 L 54.1 112.8 L 51.0 122.9 L 48.3 131.5 L 46.1 138.8 L 44.4 144.6 L 43.1 149.0 L 42.427148246765135 151.88365020751954 L 43.0 152.9 L 45.3 159.1 L 46.8 166.0 L 47.6 173.4 L 47.7 181.4 L 45.5 185.5 Z " />
</g>
</svg>
