<svg xmlns="http://www.w3.org/2000/svg" xmlns:xlink="http://www.w3.org/1999/xlink" version="1.1" baseProfile="full" viewBox="0 0 200 200" width="200" height="200">
<g fill="black">
<path d="M 93.5 175.8 L 113.5 175.8 L 114.7 175.7 L 115.6 175.6 L 116.2 175.4 L 116.5 175.2 L 116.7 175.0 L 116.9 174.9 L 117.0 174.5 L 117.2 173.9 L 117.4 173.0 L 117.5 171.8 L 117.5 156.1 L 59.5 156.1 L 59.5 152.1 L 117.5 152.1 L 117.5 136.9 L 70.5 136.9 L 70.5 132.9 L 117.5 132.9 L 117.5 118.30606060028076 L 107.7 118.9 L 96.9 119.5 L 85.3 119.8 L 72.8 119.8 L 72.7 118.0 L 84.9 116.0 L 96.4 114.1 L 107.0 112.4 L 116.7 110.8 L 125.6 109.2 L 133.6 107.7 L 140.8 106.2 L 147.1 104.7 L 152.4 103.2 L 155.91102361679077 102.02965879440308 L 155.9 102.0 L 155.92864446640016 102.02378520965576 L 156.9 101.7 L 157.30447282791138 103.16621408462524 L 167.1 111.3 L 167.4 114.4 L 163.15522785186766 112.42707777023315 L 160.1 113.3 L 155.0 114.3 L 149.1 115.2 L 142.5 116.0 L 135.0 116.9 L 129.5 117.3638554573059 L 129.5 132.9 L 154.4 132.9 L 164.4 122.9 L 176.4 132.9 L 176.4 136.9 L 129.5 136.9 L 129.5 152.1 L 165.4 152.1 L 175.4 142.1 L 187.4 152.1 L 187.4 156.1 L 129.5 156.1 L 129.5 171.8 L 129.3 174.3 L 128.9 176.8 L 128.1 179.2 L 126.8 181.5 L 125.2 183.5 L 123.2 185.2 L 120.9 186.4 L 118.5 187.2 L 116.0 187.6 L 113.5 187.8 L 113.5 181.8 L 93.5 178.8 Z M 39.7 186.9 L 35.7 184.8 L 34.2 180.5 L 34.7 173.5 L 34.7 167.2 L 34.0 161.5 L 32.8 156.3 L 31.0 151.7 L 28.6 147.5 L 25.5 143.7 L 21.8 140.2 L 17.2 137.0 L 11.9 134.1 L 12.4 132.4 L 18.7 133.5 L 24.6 135.6 L 29.8 138.7 L 32.61867885589599 141.0897494316101 L 35.1 135.3 L 38.1 128.4 L 41.6 120.0 L 45.6 110.2 L 50.2 99.1 L 55.4 86.6 L 61.3 72.8 L 64.09747505187988 66.3573302268982 L 61.2 66.8 L 60.7 65.1 L 65.63177213668823 62.82379751205444 L 67.9 57.6 L 69.6 58.3 L 68.66741342544556 61.43507833480835 L 73.6 59.2 L 79.9 56.4 L 86.0 53.7 L 88.59202795028686 52.46988506317139 L 87.76819362640381 37.04490203857422 L 87.6 37.1 L 81.6 38.8 L 75.3 40.4 L 68.8 41.7 L 62.0 42.8 L 61.4 41.1 L 67.6 38.1 L 73.6 35.3 L 79.4 32.6 L 84.9 30.0 L 87.32830848693848 28.80875434875488 L 86.5 13.3 L 98.6 14.6 L 101.7 16.5 L 98.76577014923096 17.7575270652771 L 99.0266788482666 22.727215671539305 L 100.0 22.2 L 104.6 19.6 L 108.9 16.9 L 112.10966053009034 14.813720703125 L 112.1 14.8 L 112.11195278167725 14.812230682373047 L 112.9 14.3 L 114.88206300735473 17.64676218032837 L 120.7 23.6 L 120.8 27.0 L 117.0966459274292 25.53142852783203 L 114.3 26.9 L 109.5 29.1 L 104.3 31.3 L 99.57044868469238 33.084736347198486 L 100.28573169708253 46.70917463302612 L 103.2 45.2 L 108.6 42.2 L 113.9 39.2 L 118.9 36.2 L 120.47137470245362 39.044729995727536 L 127.0 45.5 L 127.1 48.8 L 123.40993747711181 47.298957633972165 L 119.1 49.3 L 113.3 51.9 L 107.4 54.3 L 101.3 56.6 L 100.81391162872315 56.76974515914917 L 101.36700868606567 67.30492820739747 L 104.0 66.1 L 109.8 63.4 L 119.92193307876587 58.33903341293335 L 119.9 58.3 L 119.93529415130615 58.33235292434692 L 120.8 57.9 L 121.76965703964234 60.013852214813234 L 129.5 67.1 L 129.7 70.3 L 125.92557792663574 68.7423020362854 L 125.8 68.8 L 119.9 71.1 L 113.9 73.3 L 107.7 75.4 L 101.89361181259156 77.3354627609253 L 102.8 94.6 L 91.2 101.3 L 90.11315488815308 80.95055913925171 L 88.3 81.5 L 81.4 83.3 L 74.4 85.0 L 67.2 86.5 L 60.76572790145874 87.63034505844116 L 60.5 88.5 L 56.4 101.4 L 52.7 112.9 L 49.5 122.9 L 46.8 131.5 L 44.6 138.8 L 42.8 144.6 L 41.6 149.0 L 40.82978105545044 151.88832120895387 L 41.4 152.9 L 43.8 159.1 L 45.3 165.9 L 46.1 173.4 L 46.2 181.4 L 44.0 185.5 Z M 177.0 93.6 L 175.1 95.1 L 173.1 96.4 L 171.0 97.5 L 168.9 98.5 L 166.6 99.2 L 164.2 99.7 L 161.8 100.0 L 159.4 100.1 L 159.4 94.1 L 139.4 91.1 L 139.4 88.1 L 159.4 88.1 L 160.9 88.0 L 163.5 87.6 L 164.7 87.2 L 165.9 86.7 L 166.9 86.1 L 168.0 85.4 L 169.0 84.6 L 170.0 83.6 L 171.0 82.5 L 170.7 82.8 L 171.2 80.9 L 171.7 77.5 L 172.2 72.8 L 172.6 67.0 L 172.9 59.9 L 173.1 51.8 L 173.3 42.5 L 173.3 22.5 L 155.38217058181763 22.5 L 154.7 33.5 L 153.3 45.4 L 151.3 56.2 L 148.7 66.0 L 145.4 74.7 L 141.5 82.3 L 137.0 88.7 L 131.8 93.9 L 126.0 97.8 L 119.8 100.1 L 119.0 98.5 L 123.9 94.6 L 128.0 90.1 L 131.6 84.9 L 134.8 78.8 L 137.5 71.7 L 139.7 63.5 L 141.4 54.3 L 142.7 44.1 L 143.4 32.8 L 143.4 22.5 L 127.1 22.5 L 127.1 18.5 L 173.3 18.5 L 179.3 13.5 L 190.3 22.5 L 185.3 25.5 L 185.3 42.6 L 185.1 52.0 L 184.9 60.4 L 184.6 67.6 L 184.1 73.8 L 183.6 79.0 L 183.0 83.2 L 182.1 86.6 L 180.3 90.0 L 178.7 91.9 Z M 30.4 85.6 L 28.9 83.5 L 27.1 81.4 L 25.0 79.3 L 22.7 77.3 L 20.0 75.2 L 17.1 73.1 L 13.8 70.9 L 10.2 69.1 L 10.8 67.4 L 14.8 68.4 L 18.8 69.2 L 22.5 70.2 L 26.0 71.5 L 29.3 72.9 L 32.4 74.6 L 35.3 76.4 L 38.0 78.5 L 40.4 80.7 L 42.6 83.2 L 43.3 87.7 L 40.7 91.5 L 36.2 92.2 L 32.5 89.6 L 31.5 87.6 Z M 88.6 60.8 L 82.1 62.6 L 75.3 64.3 L 68.4 65.7 L 67.3510636329651 65.8602541923523 L 64.9 74.1 L 61.56904315948486 85.00131330490112 L 66.1 82.9 L 72.7 79.9 L 79.3 77.1 L 85.7 74.3 L 89.66714811325073 72.59979372024536 L 89.02975902557372 60.665700340270995 Z M 46.6 37.9 L 45.3 35.9 L 43.6 33.9 L 41.6 31.8 L 39.3 29.7 L 36.7 27.6 L 33.8 25.4 L 30.6 23.1 L 27.0 21.1 L 27.6 19.5 L 31.7 20.6 L 35.6 21.6 L 39.3 22.7 L 42.7 24.0 L 46.0 25.5 L 49.0 27.1 L 51.7 28.9 L 54.3 30.8 L 56.6 32.9 L 58.7 35.3 L 59.4 39.8 L 56.7 43.5 L 52.2 44.2 L 48.5 41.5 L 47.7 39.7 Z " />
</g>
</svg>
