<svg xmlns="http://www.w3.org/2000/svg" xmlns:xlink="http://www.w3.org/1999/xlink" version="1.1" baseProfile="full" viewBox="0 0 200 200" width="200" height="200">
<g fill="black">
<path d="M 51.0 179.2 L 65.6 179.2 L 65.6 96.3 L 77.6 102.3 L 110.43478260040283 102.3 L 110.8 99.5 L 111.2 95.0 L 111.7 90.6 L 112.3 86.5 L 112.8 82.5 L 113.4 78.6 L 113.9 74.9 L 114.4 71.3 L 114.8 67.9 L 115.0892723083496 65.51350336074829 L 115.0 65.5 L 115.1707317352295 64.84146337509155 L 115.2 64.6 L 115.23145160675048 64.60725803375244 L 115.7 62.8 L 126.9 67.3 L 129.4 69.9 L 125.57058820724487 71.13088235855102 L 124.6 73.8 L 123.4 77.2 L 122.0 80.8 L 120.6 84.5 L 119.1 88.3 L 117.5 92.2 L 115.7 96.2 L 113.8 100.3 L 112.9162790298462 102.3 L 159.6 102.3 L 165.6 97.3 L 176.6 106.3 L 171.6 110.3 L 171.6 179.2 L 173.4777777671814 179.2 L 179.7 172.2 L 187.7 179.2 L 187.7 183.2 L 51.0 183.2 Z M 39.5 186.9 L 35.4 184.9 L 33.9 180.5 L 34.5 173.5 L 34.4 167.1 L 33.8 161.4 L 32.7 156.2 L 31.1 151.5 L 29.0 147.4 L 26.2 143.6 L 22.8 140.2 L 18.8 137.0 L 13.9 134.1 L 14.5 132.4 L 20.4 133.6 L 25.8 135.7 L 30.7 138.8 L 32.74454326629639 140.65435314178467 L 34.9 135.5 L 37.6 128.5 L 40.8 120.1 L 44.6 110.3 L 48.8 99.2 L 53.7 86.7 L 59.2 72.8 L 63.805298042297366 61.4 L 49.4 61.4 L 49.4 57.4 L 128.39230766296387 57.4 L 130.1 53.7 L 135.0 43.9 L 137.4 39.2 L 139.7 34.6 L 141.9 30.0 L 144.0 25.6 L 145.9 21.3 L 147.7 17.1 L 149.03094758987427 13.811776542663575 L 149.0 13.8 L 149.2380952835083 13.3 L 149.4 12.9 L 149.4232823371887 12.911107158660888 L 150.0 11.7 L 160.3 18.1 L 162.1 21.2 L 158.2932683944702 21.528166484832763 L 157.9 22.2 L 155.4 26.3 L 152.7 30.5 L 149.9 34.7 L 147.0 38.9 L 143.8 43.2 L 140.5 47.4 L 137.0 51.7 L 133.2 55.8 L 131.63902435302734 57.4 L 166.5 57.4 L 176.5 47.4 L 188.5 57.4 L 188.5 61.4 L 66.15471696853638 61.4 L 62.8 74.1 L 58.8 88.4 L 55.1 101.3 L 51.8 112.8 L 48.9 122.8 L 46.4 131.4 L 44.4 138.6 L 42.8 144.5 L 41.7 148.9 L 41.0 151.9 L 40.902393436431886 151.86660833358764 L 41.5 153.0 L 43.6 159.2 L 45.1 166.0 L 45.8 173.4 L 45.9 181.4 L 43.8 185.4 Z M 77.6 106.3 L 77.6 179.2 L 97.9 179.2 L 97.9 106.3 Z M 109.9 106.3 L 109.9 179.2 L 128.8 179.2 L 128.8 106.3 Z M 140.8 106.3 L 140.8 179.2 L 159.6 179.2 L 159.6 106.3 Z M 30.4 85.3 L 29.1 83.3 L 27.6 81.3 L 25.7 79.2 L 23.6 77.2 L 21.3 75.1 L 18.6 73.0 L 15.7 70.9 L 12.4 69.1 L 13.0 67.4 L 16.7 68.4 L 20.4 69.3 L 23.9 70.3 L 27.2 71.6 L 30.2 73.1 L 33.1 74.7 L 35.8 76.6 L 38.3 78.6 L 40.6 80.9 L 42.7 83.4 L 43.2 87.9 L 40.5 91.5 L 35.9 92.1 L 32.3 89.4 L 31.5 87.4 Z M 89.4 42.7 L 88.2 39.8 L 86.9 36.8 L 85.4 33.6 L 83.6 30.3 L 81.7 26.9 L 79.6 23.4 L 77.4 19.6 L 74.7 15.9 L 76.1 14.7 L 79.6 17.6 L 83.1 20.4 L 86.2 23.3 L 89.2 26.2 L 91.9 29.1 L 94.4 32.0 L 96.6 34.9 L 98.7 37.9 L 100.5 40.8 L 102.2 43.8 L 102.0 48.3 L 98.7 51.5 L 94.1 51.3 L 90.9 48.0 L 90.3 45.4 Z M 45.4 37.6 L 44.2 35.7 L 42.7 33.7 L 41.0 31.7 L 38.9 29.6 L 36.6 27.5 L 34.0 25.3 L 31.1 23.1 L 27.8 21.2 L 28.5 19.5 L 32.2 20.7 L 35.9 21.7 L 39.3 22.8 L 42.5 24.1 L 45.5 25.6 L 48.3 27.2 L 50.9 29.0 L 53.3 30.9 L 55.5 33.1 L 57.4 35.4 L 57.9 39.9 L 55.1 43.6 L 50.6 44.1 L 47.0 41.3 L 46.3 39.5 Z " />
</g>
</svg>
