<svg xmlns="http://www.w3.org/2000/svg" xmlns:xlink="http://www.w3.org/1999/xlink" version="1.1" baseProfile="full" viewBox="0 0 200 200" width="200" height="200">
<g fill="black">
<path d="M 145.2 176.8 L 163.2 176.8 L 164.5 176.7 L 165.4 176.5 L 166.3 176.2 L 166.5 176.0 L 166.6 175.8 L 166.8 175.5 L 167.0 174.9 L 167.2 174.0 L 167.2 76.8 L 82.7 76.8 L 82.7 182.6 L 70.7 188.6 L 70.7 66.8 L 82.7 72.8 L 106.93421049118042 72.8 L 104.5 69.1 L 104.4 66.8 L 104.1 64.4 L 103.6 61.8 L 103.0 59.2 L 102.1 56.5 L 101.1 53.6 L 99.9 50.7 L 98.5 47.6 L 96.9 44.4 L 94.9 41.3 L 95.25 41.0 L 63.0 41.0 L 63.0 37.0 L 119.0 37.0 L 119.0 14.0 L 131.0 16.0 L 134.0 18.0 L 131.0 19.8 L 131.0 37.0 L 164.0 37.0 L 174.0 27.0 L 186.0 37.0 L 186.0 41.0 L 150.71875 41.0 L 156.5 43.5 L 158.8 46.2 L 154.5416666984558 47.41666669845581 L 154.2 48.1 L 152.8 50.7 L 151.2 53.5 L 149.5 56.5 L 147.5 59.7 L 145.4 63.0 L 143.0 66.6 L 140.4 70.3 L 138.81463413238527 72.8 L 167.2 72.8 L 173.2 67.8 L 184.2 76.8 L 179.2 80.8 L 179.2 172.8 L 179.1 175.3 L 178.7 177.8 L 177.8 180.2 L 176.6 182.5 L 175.0 184.5 L 173.0 186.1 L 170.7 187.4 L 168.3 188.2 L 165.8 188.6 L 163.2 188.8 L 163.2 182.8 L 145.2 179.8 Z M 42.5 186.9 L 38.4 184.8 L 37.0 180.5 L 37.5 173.5 L 37.4 167.2 L 36.8 161.5 L 35.5 156.3 L 33.7 151.7 L 31.2 147.5 L 28.1 143.7 L 24.2 140.2 L 19.6 137.0 L 14.1 134.1 L 14.6 132.3 L 21.0 133.5 L 27.0 135.6 L 32.3 138.7 L 35.344589710235596 141.22636165618897 L 35.5 140.9 L 40.9 128.3 L 44.4 120.0 L 48.5 110.2 L 53.2 99.1 L 58.5 86.6 L 64.5 72.8 L 71.2 57.6 L 72.9 58.3 L 68.0 74.1 L 63.5 88.5 L 59.4 101.4 L 55.6 112.9 L 52.4 122.9 L 49.6 131.6 L 47.3 138.8 L 45.5 144.6 L 44.2 149.0 L 43.459090900421145 151.77840909957885 L 44.1 152.9 L 46.5 159.1 L 48.1 165.9 L 48.9 173.4 L 48.9 181.4 L 46.8 185.5 Z M 109.3 104.4 L 139.6 104.4 L 145.6 99.4 L 156.6 108.4 L 151.6 112.4 L 151.6 157.6 L 139.6 163.6 L 139.6 151.6 L 109.3 151.6 L 109.3 163.6 L 97.3 169.6 L 97.3 98.4 Z M 109.3 108.4 L 109.3 147.6 L 139.6 147.6 L 139.6 108.4 Z M 33.0 85.6 L 31.5 83.5 L 29.7 81.5 L 27.6 79.4 L 25.1 77.3 L 22.4 75.2 L 19.4 73.1 L 16.1 70.9 L 12.4 69.1 L 13.0 67.4 L 17.1 68.4 L 21.1 69.2 L 24.9 70.2 L 28.5 71.5 L 31.8 72.9 L 35.0 74.6 L 37.9 76.4 L 40.6 78.5 L 43.1 80.7 L 45.3 83.2 L 46.1 87.7 L 43.5 91.5 L 39.0 92.2 L 35.2 89.7 L 34.3 87.6 Z M 99.0 42.7 L 101.8 45.1 L 104.4 47.6 L 106.7 50.2 L 108.8 52.8 L 110.7 55.5 L 112.4 58.3 L 113.9 61.1 L 115.2 64.0 L 116.3 66.9 L 115.3 71.4 L 113.17200002670288 72.8 L 136.3644444465637 72.8 L 137.8 69.0 L 139.0 64.7 L 140.2 60.6 L 141.3 56.9 L 142.3 53.4 L 143.1 50.2 L 143.8 47.3 L 144.3 44.7 L 144.7 42.3 L 144.79636964797973 41.33630361557007 L 144.6 41.3 L 144.69230766296386 41.0 L 97.23461542129516 41.0 Z M 49.6 37.9 L 48.2 35.9 L 46.5 33.9 L 44.5 31.8 L 42.1 29.7 L 39.4 27.6 L 36.4 25.4 L 33.2 23.1 L 29.5 21.1 L 30.1 19.5 L 34.2 20.6 L 38.2 21.5 L 42.0 22.7 L 45.5 24.0 L 48.8 25.5 L 51.8 27.1 L 54.6 28.8 L 57.2 30.8 L 59.6 32.9 L 61.7 35.2 L 62.4 39.7 L 59.8 43.5 L 55.3 44.2 L 51.5 41.6 L 50.7 39.8 Z " />
</g>
</svg>
