<svg xmlns="http://www.w3.org/2000/svg" xmlns:xlink="http://www.w3.org/1999/xlink" version="1.1" baseProfile="full" viewBox="0 0 200 200" width="200" height="200">
<g fill="black">
<path d="M 179.5 116.8 L 177.7 118.4 L 175.8 119.9 L 173.7 121.1 L 171.6 122.2 L 169.3 123.0 L 166.9 123.5 L 164.5 123.8 L 162.0 124.0 L 162.0 118.0 L 142.0 115.0 L 142.0 113.53333330154419 L 139.2 115.8 L 134.5 118.5 L 130.1259036064148 120.15060243606567 L 132.9 122.0 L 129.9 123.8 L 129.9 170.0 L 163.8 170.0 L 163.8 132.0 L 175.8 134.0 L 178.8 136.0 L 175.8 137.8 L 175.8 178.0 L 163.8 184.0 L 163.8 174.0 L 83.3 174.0 L 83.3 181.0 L 71.3 187.0 L 71.3 132.0 L 83.3 134.0 L 86.3 136.0 L 83.3 137.8 L 83.3 170.0 L 117.9 170.0 L 117.9 118.0 L 124.43304719924927 119.08884124755859 L 127.6 117.0 L 131.6 114.0 L 135.0 110.8 L 137.6 107.4 L 139.8 103.7 L 141.4 99.3 L 142.7 94.1 L 143.5 87.9 L 143.9 80.6 L 143.82325582504274 74.0 L 127.5 74.0 L 122.5 77.0 L 122.5 90.9 L 122.4 95.8 L 122.4 103.4 L 122.3 106.1 L 122.2 108.1 L 122.1 109.6 L 121.1 112.9 L 119.6 114.9 L 118.0 116.8 L 116.3 118.4 L 114.4 119.9 L 112.3 121.1 L 110.1 122.2 L 107.9 123.0 L 105.5 123.5 L 103.1 123.8 L 100.6 124.0 L 100.6 118.0 L 80.6 115.0 L 80.6 112.3 L 80.3 112.6 L 75.2 116.1 L 69.4 118.7 L 62.8 120.5 L 55.3 121.8 L 54.8 120.1 L 61.5 117.0 L 67.1 113.8 L 71.6 110.6 L 75.1 107.2 L 77.7 103.4 L 79.7 99.1 L 81.1 94.0 L 82.0 87.9 L 82.5 80.6 L 82.42325582504273 74.0 L 64.7 74.0 L 64.7 70.0 L 110.5 70.0 L 116.5 65.0 L 126.9 73.50909090042114 L 126.9 70.0 L 171.9 70.0 L 177.9 65.0 L 188.9 74.0 L 183.9 77.0 L 183.9 95.8 L 183.8 99.9 L 183.8 103.4 L 183.7 106.1 L 183.7 108.1 L 183.6 109.6 L 182.5 112.9 L 181.1 114.9 Z M 37.8 186.9 L 33.7 184.9 L 32.2 180.6 L 32.7 173.5 L 32.7 167.1 L 32.1 161.3 L 31.1 156.1 L 29.6 151.5 L 27.5 147.3 L 25.0 143.5 L 21.8 140.1 L 18.0 137.0 L 13.4 134.1 L 14.0 132.4 L 19.6 133.6 L 24.9 135.7 L 29.6 138.9 L 31.17552318572998 140.398668384552 L 33.1 135.5 L 35.7 128.5 L 38.8 120.2 L 42.4 110.4 L 46.5 99.2 L 51.1 86.7 L 56.4 72.9 L 62.3 57.7 L 64.0 58.2 L 60.0 74.0 L 56.2 88.4 L 52.8 101.3 L 49.6 112.7 L 46.9 122.7 L 44.6 131.4 L 42.6 138.6 L 41.2 144.4 L 40.1 148.8 L 39.5 151.8 L 39.186897373199464 151.69926261901855 L 39.9 153.1 L 42.0 159.2 L 43.3 166.0 L 44.1 173.4 L 44.1 181.4 L 42.1 185.4 Z M 155.66956520080566 74.0 L 155.2 81.2 L 154.1 89.4 L 152.4 96.5 L 150.1 102.7 L 147.1 108.0 L 143.73636360168456 112.0 L 162.0 112.0 L 163.4 111.9 L 164.7 111.7 L 165.9 111.4 L 167.0 111.1 L 168.0 110.6 L 169.0 110.0 L 169.9 109.3 L 170.8 108.5 L 171.7 107.5 L 171.7 105.8 L 171.8 103.2 L 171.8 99.8 L 171.9 95.7 L 171.9 74.0 Z M 94.2709677696228 74.0 L 93.8 81.3 L 92.6 89.5 L 90.8 96.7 L 88.1 102.9 L 84.6 108.3 L 80.9 112.0 L 100.6 112.0 L 102.0 111.9 L 103.3 111.7 L 104.5 111.4 L 105.6 111.1 L 106.6 110.6 L 107.6 110.0 L 108.5 109.3 L 109.4 108.5 L 110.2 107.5 L 110.20600004196167 107.4920000076294 L 110.3 105.8 L 110.4 103.2 L 110.4 95.7 L 110.5 90.8 L 110.5 74.0 Z M 28.8 85.2 L 27.6 83.2 L 26.2 81.2 L 24.5 79.1 L 22.5 77.1 L 20.3 75.1 L 17.8 73.0 L 15.1 70.9 L 12.0 69.1 L 12.6 67.5 L 16.2 68.5 L 19.7 69.3 L 23.0 70.4 L 26.1 71.7 L 29.1 73.1 L 31.9 74.8 L 34.5 76.6 L 36.9 78.7 L 39.1 81.0 L 41.1 83.4 L 41.5 88.0 L 38.7 91.6 L 34.1 92.0 L 30.5 89.2 L 29.8 87.2 Z M 161.2 61.6 L 159.2 62.9 L 157.2 64.0 L 155.0 64.9 L 152.8 65.6 L 150.6 66.2 L 148.2 66.6 L 145.9 66.9 L 143.5 67.0 L 143.5 61.0 L 123.5 58.0 L 123.5 55.0 L 143.5 55.0 L 145.1 54.9 L 146.6 54.7 L 148.0 54.5 L 149.4 54.1 L 150.7 53.7 L 153.3 52.5 L 154.5 51.7 L 155.5962963104248 50.8777777671814 L 155.7 50.1 L 155.9 47.9 L 156.0 45.0 L 156.2 41.5 L 156.3 37.3 L 156.3 32.5 L 156.4 27.0 L 156.4 23.0 L 123.10952377319336 23.0 L 122.5 29.4 L 120.9 36.8 L 118.3 43.3 L 114.7 48.9 L 110.2 53.4 L 104.8 57.0 L 98.6 59.8 L 91.7 62.0 L 84.0 63.6 L 75.3 64.8 L 74.9 63.1 L 82.9 60.0 L 89.9 56.9 L 95.8 53.9 L 100.6 50.7 L 104.4 47.2 L 107.1 43.5 L 109.2 39.2 L 110.5 34.2 L 111.2 28.2 L 111.2722222328186 23.0 L 80.3 23.0 L 80.3 19.0 L 156.4 19.0 L 162.4 14.0 L 173.4 23.0 L 168.4 26.0 L 168.4 27.1 L 168.3 32.6 L 168.3 37.5 L 168.2 41.8 L 168.0 45.5 L 167.9 48.7 L 167.7 51.3 L 167.4 53.4 L 167.0 55.4 L 165.0 58.7 L 163.1 60.3 Z M 43.1 37.5 L 42.0 35.6 L 40.6 33.6 L 39.0 31.6 L 37.1 29.6 L 34.9 27.5 L 32.4 25.3 L 29.7 23.1 L 26.6 21.2 L 27.3 19.5 L 30.9 20.7 L 34.4 21.7 L 37.7 22.9 L 40.8 24.2 L 43.7 25.7 L 46.4 27.3 L 48.8 29.1 L 51.2 31.0 L 53.2 33.2 L 55.1 35.5 L 55.5 40.0 L 52.7 43.6 L 48.1 44.0 L 44.5 41.2 L 43.9 39.4 Z " />
</g>
</svg>
