<svg xmlns="http://www.w3.org/2000/svg" xmlns:xlink="http://www.w3.org/1999/xlink" version="1.1" baseProfile="full" viewBox="0 0 200 200" width="200" height="200">
<g fill="black">
<path d="M 95.0 176.0 L 115.0 176.0 L 116.2 175.9 L 117.1 175.7 L 118.0 175.4 L 118.4 175.0 L 118.7 174.1 L 118.9 173.2 L 119.0 172.0 L 119.0 102.0 L 131.0 104.0 L 134.0 106.0 L 131.0 107.8 L 131.0 172.0 L 130.8 174.5 L 130.4 177.0 L 129.6 179.4 L 128.3 181.7 L 126.7 183.7 L 124.7 185.3 L 122.4 186.6 L 120.0 187.4 L 117.5 187.8 L 115.0 188.0 L 115.0 182.0 L 95.0 179.0 Z M 108.2 129.0 L 110.3 131.9 L 106.50947160720825 132.63150548934937 L 105.5 134.8 L 102.5 140.4 L 99.2 145.9 L 95.6 151.3 L 91.6 156.6 L 87.3 161.8 L 82.7 166.8 L 77.7 171.6 L 72.4 176.2 L 66.6 180.6 L 65.3 179.3 L 69.6 173.6 L 73.7 168.0 L 77.6 162.6 L 81.3 157.2 L 84.6 151.8 L 87.7 146.4 L 90.4 141.0 L 92.9 135.6 L 95.1 130.2 L 96.67575101852417 125.72154989242554 L 96.6 125.7 L 97.5 123.4 Z M 163.3 164.8 L 161.4 160.1 L 159.3 155.4 L 156.8 150.7 L 154.1 146.0 L 151.2 141.2 L 148.0 136.4 L 144.6 131.4 L 141.0 126.3 L 142.3 125.0 L 147.4 128.8 L 152.0 132.9 L 156.3 137.2 L 160.3 141.6 L 163.9 146.1 L 167.3 150.7 L 170.3 155.5 L 173.1 160.3 L 175.5 165.2 L 177.7 170.2 L 177.3 174.8 L 173.9 177.8 L 169.3 177.4 L 166.3 174.0 L 165.0 169.4 Z M 167.9 131.5 L 163.1 126.8 L 158.5 121.8 L 154.2 116.5 L 150.3 110.7 L 146.7 104.7 L 143.5 98.3 L 140.7 91.5 L 138.74109592437745 85.0 L 112.6 85.0 L 112.4 85.4 L 108.6 92.5 L 104.4 99.2 L 99.9 105.7 L 95.0 111.9 L 89.7 117.7 L 84.0 123.3 L 78.0 128.5 L 71.6 133.3 L 64.7 137.7 L 57.5 141.7 L 56.4 140.2 L 62.4 134.7 L 68.1 129.2 L 73.5 123.7 L 78.5 118.0 L 83.2 112.2 L 87.6 106.2 L 91.6 100.0 L 95.2 93.7 L 98.5 87.2 L 99.44285717010499 85.0 L 67.68125 85.0 L 63.8 94.2 L 58.9 105.7 L 54.5 115.9 L 50.7 125.0 L 47.6 132.8 L 45.0 139.4 L 43.1 144.8 L 41.9 148.9 L 41.3 151.6 L 41.00812187194824 151.51624364852904 L 41.8 153.1 L 43.9 159.2 L 45.3 166.1 L 46.0 173.5 L 46.0 181.4 L 43.8 185.5 L 39.5 186.9 L 35.5 184.8 L 34.0 180.5 L 34.6 173.5 L 34.6 167.1 L 34.1 161.3 L 33.1 156.1 L 31.5 151.5 L 29.3 147.4 L 26.6 143.6 L 23.3 140.2 L 19.2 137.0 L 14.4 134.1 L 14.9 132.4 L 20.8 133.6 L 26.3 135.7 L 31.1 138.8 L 33.21546697616577 140.7678762435913 L 35.8 135.4 L 39.1 129.0 L 43.0 121.4 L 47.6 112.7 L 52.9 102.8 L 58.9 91.8 L 65.0 81.10289859771729 L 65.0 81.0 L 65.05867767333984 81.0 L 65.8 79.7 L 73.4 66.5 L 75.0 67.4 L 69.36571426391602 81.0 L 119.0 81.0 L 119.0 40.0 L 73.0 40.0 L 73.0 36.0 L 119.0 36.0 L 119.0 12.0 L 131.0 14.0 L 134.0 16.0 L 131.0 17.8 L 131.0 36.0 L 156.0 36.0 L 166.0 26.0 L 178.0 36.0 L 178.0 40.0 L 131.0 40.0 L 131.0 81.0 L 164.0 81.0 L 174.0 71.0 L 186.0 81.0 L 186.0 85.0 L 141.25 85.0 L 144.4 89.5 L 148.6 95.3 L 152.8 100.7 L 157.0 105.7 L 161.4 110.4 L 165.9 114.7 L 170.5 118.6 L 175.3 122.2 L 180.2 125.4 L 185.3 128.3 L 189.7 130.9 L 178.6 139.6 L 173.1 135.7 Z M 34.4 83.6 L 32.9 81.5 L 31.1 79.5 L 28.9 77.4 L 26.4 75.3 L 23.5 73.2 L 20.3 71.1 L 16.7 69.0 L 12.7 67.1 L 13.3 65.4 L 17.7 66.3 L 21.9 67.1 L 25.9 68.1 L 29.6 69.4 L 33.1 70.9 L 36.3 72.5 L 39.3 74.4 L 42.0 76.4 L 44.5 78.7 L 46.7 81.3 L 47.3 85.8 L 44.7 89.5 L 40.1 90.1 L 36.4 87.5 L 35.6 85.5 Z M 171.0 52.0 L 172.2 55.4 L 168.2125 54.9875 L 166.2 57.0 L 163.7 59.6 L 161.0 62.3 L 158.2 65.0 L 155.2 67.7 L 152.2 70.5 L 148.9 73.3 L 145.5 76.0 L 142.0 78.9 L 140.7 77.7 L 143.2 74.0 L 145.4 70.2 L 147.7 66.6 L 149.9 63.2 L 152.0 59.9 L 154.1 56.7 L 156.1 53.6 L 159.7 47.6 L 160.88275861740112 45.65192699432373 L 160.8 45.6 L 161.8 44.2 Z M 93.5 67.6 L 92.6 65.0 L 91.5 62.6 L 90.2 60.1 L 88.8 57.6 L 87.2 55.2 L 85.5 52.7 L 83.6 50.1 L 81.2 47.9 L 82.3 46.5 L 85.2 48.1 L 88.2 49.6 L 91.0 51.3 L 93.7 53.2 L 96.2 55.3 L 98.5 57.6 L 100.7 60.1 L 102.7 62.7 L 104.5 65.5 L 106.2 68.4 L 106.0 73.0 L 102.7 76.2 L 98.1 76.0 L 94.9 72.7 L 94.3 70.1 Z M 49.3 37.6 L 47.7 35.6 L 45.9 33.5 L 43.8 31.4 L 41.3 29.3 L 38.6 27.2 L 35.6 25.1 L 32.3 22.9 L 28.7 21.1 L 29.2 19.4 L 33.3 20.4 L 37.3 21.2 L 41.1 22.2 L 44.6 23.5 L 48.0 24.9 L 51.1 26.6 L 54.1 28.4 L 56.8 30.4 L 59.3 32.7 L 61.6 35.1 L 62.4 39.6 L 59.9 43.5 L 55.4 44.3 L 51.6 41.8 L 50.6 39.7 Z " />
</g>
</svg>
