<svg xmlns="http://www.w3.org/2000/svg" xmlns:xlink="http://www.w3.org/1999/xlink" version="1.1" baseProfile="full" viewBox="0 0 200 200" width="200" height="200">
<g fill="black">
<path d="M 34.7 186.9 L 30.6 184.9 L 29.1 180.6 L 29.7 173.5 L 29.7 167.0 L 29.4 161.2 L 28.5 155.9 L 27.2 151.3 L 26.16969699859619 148.7545454978943 L 25.5 148.6 L 25.799458026885986 147.8398373603821 L 25.5 147.1 L 23.3 143.4 L 20.7 140.1 L 17.4 137.0 L 13.5 134.1 L 14.1 132.4 L 19.3 133.7 L 24.0 135.9 L 28.2 139.0 L 28.994966983795166 139.859423828125 L 30.8 135.7 L 33.6 129.2 L 37.0 121.6 L 40.9 112.9 L 45.5 103.0 L 50.7 92.0 L 56.6 79.8 L 63.2 66.6 L 64.8 67.3 L 60.1 81.3 L 55.6 94.0 L 51.6 105.5 L 48.0 115.7 L 44.9 124.8 L 42.3 132.6 L 40.2 139.2 L 38.6 144.5 L 37.6 148.6 L 37.2 151.3 L 36.451943969726564 151.12737169265748 L 37.4 153.3 L 39.2 159.4 L 40.4 166.1 L 41.1 173.5 L 41.1 181.4 L 39.0 185.4 Z M 173.0 181.7 L 171.4 183.6 L 169.5 185.2 L 167.5 186.6 L 165.4 187.7 L 163.1 188.6 L 160.7 189.2 L 158.3 189.6 L 155.8 189.7 L 155.8 183.7 L 135.8 180.7 L 135.8 177.7 L 155.8 177.7 L 157.2 177.6 L 158.4 177.5 L 159.5 177.2 L 161.3 176.4 L 162.1 175.8 L 163.6 174.3 L 164.3 173.3 L 165.0 172.1 L 165.6 170.7 L 166.2 168.8 L 166.8 166.4 L 167.3 163.5 L 167.8 160.2 L 168.2 156.5 L 168.5 152.4 L 168.7 147.8 L 168.9 142.9 L 168.9 139.5 L 109.9 139.5 L 109.9 146.5 L 97.9 152.5 L 97.9 44.9 L 109.9 50.9 L 153.4 50.9 L 159.4 45.9 L 167.80789976119996 52.77919073104859 L 168.7 49.3 L 169.1 45.7 L 169.5 42.3 L 169.9 39.2 L 170.3 36.4 L 170.5 33.8 L 170.6 32.7 L 170.6 30.1 L 73.83584909439087 30.1 L 74.0 33.0 L 73.9 37.9 L 73.6 42.5 L 72.9 46.7 L 72.68354434967041 47.61392402648926 L 84.6 49.6 L 87.6 51.6 L 84.6 53.4 L 84.6 141.4 L 72.6 147.4 L 72.6 47.96666669845581 L 72.0 50.5 L 70.7 54.1 L 69.0 57.3 L 66.8 60.3 L 62.5 61.7 L 58.3 59.8 L 56.8 55.5 L 58.7 51.4 L 60.1 50.4 L 61.5 48.9 L 63.0 46.8 L 64.4 44.1 L 65.7 40.7 L 66.9 36.9 L 68.0 32.4 L 68.9 27.5 L 69.9 22.0 L 70.5 16.0 L 72.3 15.9 L 73.1 22.0 L 73.53157892227173 26.1 L 170.6 26.1 L 176.6 21.1 L 187.6 30.1 L 182.6 33.1 L 179.69405403137208 34.31081085205078 L 178.6 36.3 L 177.4 38.6 L 176.0 41.1 L 174.5 43.9 L 172.9 46.9 L 171.0 50.1 L 169.4 53.7 L 168.6714285850525 53.48571424484253 L 170.4 54.9 L 165.4 58.9 L 165.4 99.6 L 153.4 105.6 L 153.4 97.6 L 109.9 97.6 L 109.9 115.0 L 157.4181818008423 115.0 L 165.6 106.0 L 175.6 115.0 L 175.6 119.0 L 109.9 119.0 L 109.9 135.5 L 168.9 135.5 L 174.9 130.5 L 185.9 139.5 L 180.9 142.5 L 180.9 143.1 L 180.7 148.3 L 180.5 153.1 L 180.2 157.6 L 179.7 161.7 L 179.2 165.5 L 178.5 168.9 L 177.7 172.1 L 176.8 174.9 L 175.7 177.5 L 174.4 179.7 Z M 150.3 160.3 L 150.3 164.3 L 68.0 164.3 L 68.0 160.3 L 128.3 160.3 L 138.3 150.3 Z M 109.9 76.3 L 109.9 93.6 L 153.4 93.6 L 153.4 76.3 Z M 29.5 83.1 L 28.4 81.2 L 27.0 79.2 L 25.2 77.2 L 23.2 75.1 L 20.9 73.1 L 18.3 71.0 L 15.4 68.9 L 12.1 67.1 L 12.7 65.4 L 16.4 66.5 L 20.1 67.3 L 23.5 68.3 L 26.8 69.6 L 29.8 71.1 L 32.6 72.7 L 35.2 74.6 L 37.6 76.7 L 39.8 79.0 L 41.7 81.6 L 42.0 86.1 L 39.1 89.6 L 34.5 89.9 L 31.0 87.0 L 30.4 85.1 Z M 109.9 54.9 L 109.9 72.3 L 153.4 72.3 L 153.4 54.9 Z M 42.1 37.2 L 40.9 35.2 L 39.4 33.2 L 37.8 31.1 L 33.7 27.0 L 31.3 25.0 L 28.6 22.9 L 25.6 21.2 L 26.2 19.5 L 29.7 20.5 L 33.1 21.3 L 36.4 22.4 L 39.5 23.7 L 42.4 25.1 L 45.2 26.8 L 47.7 28.7 L 50.1 30.7 L 52.3 33.0 L 54.3 35.4 L 54.8 40.0 L 52.0 43.6 L 47.4 44.0 L 43.8 41.3 L 43.1 39.2 Z " />
</g>
</svg>
