<svg xmlns="http://www.w3.org/2000/svg" xmlns:xlink="http://www.w3.org/1999/xlink" version="1.1" baseProfile="full" viewBox="0 0 200 200" width="200" height="200">
<g fill="black">
<path d="M 163.3 183.4 L 156.5 180.1 L 150.2 176.2 L 144.5 171.6 L 139.2 166.4 L 134.4 160.7 L 130.2 154.3 L 126.7 147.3 L 126.51643896102905 146.8189435005188 L 123.0 154.6 L 117.1 163.2 L 110.2 170.2 L 102.5 175.7 L 94.2 180.0 L 85.4 183.2 L 76.3 185.6 L 66.8 187.3 L 66.3 185.6 L 75.1 182.0 L 83.5 178.2 L 91.2 174.1 L 98.2 169.4 L 104.4 164.0 L 109.7 157.6 L 114.1 150.0 L 117.05164833068848 142.1 L 66.6 142.1 L 66.6 138.1 L 118.0962963104248 138.1 L 119.8 130.1 L 120.81477031707763 118.19951171875 L 120.8 118.2 L 121.0 114.9 L 132.9 117.8 L 135.8 120.0 L 132.36713724136354 121.78244800567627 L 131.0 132.0 L 129.35 138.1 L 164.6 138.1 L 174.6 128.1 L 186.6 138.1 L 186.6 142.1 L 128.26803274154662 142.1 L 128.1667221069336 142.474542427063 L 130.2 145.2 L 135.0 150.8 L 139.9 155.9 L 144.9 160.4 L 150.2 164.2 L 155.6 167.5 L 161.3 170.2 L 167.3 172.3 L 173.6 173.8 L 180.2 174.9 L 189.9 176.4 L 178.0 187.9 L 170.4 186.0 Z M 39.5 186.9 L 35.5 184.8 L 34.0 180.5 L 34.6 173.5 L 34.6 167.1 L 34.1 161.3 L 33.1 156.1 L 31.5 151.5 L 29.3 147.4 L 26.6 143.6 L 23.3 140.2 L 19.2 137.0 L 14.4 134.1 L 14.9 132.4 L 20.8 133.6 L 26.3 135.7 L 31.1 138.8 L 33.21546697616577 140.7678762435913 L 35.8 135.4 L 39.1 129.0 L 43.0 121.4 L 47.6 112.7 L 52.9 102.8 L 58.9 91.8 L 65.8 79.7 L 73.4 66.5 L 75.0 67.4 L 69.2 81.4 L 63.8 94.2 L 58.9 105.7 L 54.5 115.9 L 50.7 125.0 L 47.6 132.8 L 45.0 139.4 L 43.1 144.8 L 41.9 148.9 L 41.3 151.6 L 41.00812187194824 151.51624364852904 L 41.8 153.1 L 43.9 159.2 L 45.3 166.1 L 46.0 173.5 L 46.0 181.4 L 43.8 185.5 Z M 94.5 68.0 L 155.7 68.0 L 161.7 63.0 L 172.7 72.0 L 167.7 76.0 L 167.7 116.8 L 155.7 122.8 L 155.7 110.8 L 94.5 110.8 L 94.5 122.8 L 82.5 128.8 L 82.5 62.0 Z M 94.5 72.0 L 94.5 106.8 L 155.7 106.8 L 155.7 72.0 Z M 34.4 83.6 L 32.9 81.5 L 31.1 79.5 L 28.9 77.4 L 26.4 75.3 L 23.5 73.2 L 20.3 71.1 L 16.7 69.0 L 12.7 67.1 L 13.3 65.4 L 17.7 66.3 L 21.9 67.1 L 25.9 68.1 L 29.6 69.4 L 33.1 70.9 L 36.3 72.5 L 39.3 74.4 L 42.0 76.4 L 44.5 78.7 L 46.7 81.3 L 47.3 85.8 L 44.7 89.5 L 40.1 90.1 L 36.4 87.5 L 35.6 85.5 Z M 152.3 15.0 L 155.3 17.0 L 152.3 18.8 L 152.3 36.2 L 165.0 36.2 L 175.0 26.2 L 187.0 36.2 L 187.0 40.2 L 152.3 40.2 L 152.3 58.5 L 140.3 64.5 L 140.3 40.2 L 113.6 40.2 L 113.6 58.5 L 101.6 64.5 L 101.6 40.2 L 66.9 40.2 L 66.9 36.2 L 101.6 36.2 L 101.6 13.0 L 113.6 15.0 L 116.6 17.0 L 113.6 18.8 L 113.6 36.2 L 140.3 36.2 L 140.3 13.0 Z M 49.3 37.6 L 47.7 35.6 L 45.9 33.5 L 43.8 31.4 L 41.3 29.3 L 38.6 27.2 L 35.6 25.1 L 32.3 22.9 L 28.7 21.1 L 29.2 19.4 L 33.3 20.4 L 37.3 21.2 L 41.1 22.2 L 44.6 23.5 L 48.0 24.9 L 51.1 26.6 L 54.1 28.4 L 56.8 30.4 L 59.3 32.7 L 61.6 35.1 L 62.4 39.6 L 59.9 43.5 L 55.4 44.3 L 51.6 41.8 L 50.6 39.7 Z " />
</g>
</svg>
