<svg xmlns="http://www.w3.org/2000/svg" xmlns:xlink="http://www.w3.org/1999/xlink" version="1.1" baseProfile="full" viewBox="0 0 200 200" width="200" height="200">
<g fill="black">
<path d="M 124.9 177.7 L 124.5 175.0 L 123.8 172.2 L 122.9 169.4 L 121.6 166.4 L 120.1 163.4 L 118.3 160.2 L 116.3 156.9 L 113.8 153.8 L 115.1 152.4 L 118.4 155.0 L 121.6 157.4 L 124.6 159.9 L 127.2 162.7 L 129.6 165.5 L 131.7 168.5 L 133.5 171.6 L 135.0 174.8 L 136.2 178.2 L 137.0 181.6 L 135.6 186.0 L 131.6 188.2 L 127.3 186.8 L 125.1 182.8 L 125.1 180.2 Z M 60.0 186.2 L 59.1 181.7 L 61.5 177.9 L 64.1 176.3 L 66.6 174.7 L 69.0 172.8 L 71.3 170.7 L 73.4 168.4 L 75.4 165.9 L 77.3 163.2 L 79.2 160.3 L 81.0 157.1 L 82.4 153.5 L 84.1 153.9 L 83.3 161.7 L 82.5 165.5 L 81.4 169.1 L 80.0 172.6 L 78.2 175.9 L 76.2 179.1 L 73.9 182.2 L 71.3 185.0 L 68.4 187.7 L 63.9 188.6 Z M 174.9 178.7 L 173.4 176.0 L 171.4 173.1 L 169.1 170.2 L 166.3 167.1 L 163.1 164.0 L 159.5 160.8 L 155.6 157.4 L 151.1 154.0 L 152.0 152.4 L 157.2 154.6 L 162.2 156.7 L 166.7 159.1 L 170.8 161.6 L 174.6 164.2 L 178.0 167.0 L 181.1 169.9 L 183.7 172.9 L 186.1 176.1 L 188.0 179.6 L 187.8 184.1 L 184.5 187.3 L 179.9 187.1 L 176.8 183.8 L 176.0 181.3 Z M 37.3 186.9 L 33.2 184.8 L 31.7 180.5 L 32.3 173.5 L 32.4 167.1 L 31.9 161.3 L 30.9 156.1 L 29.5 151.4 L 28.086545372009276 148.50241804122925 L 27.7 148.4 L 27.856564044952393 148.03095626831055 L 27.5 147.3 L 25.0 143.5 L 21.9 140.1 L 18.2 137.0 L 13.7 134.1 L 14.2 132.4 L 19.8 133.6 L 25.0 135.8 L 29.6 138.9 L 31.202240180969238 140.46316118240355 L 33.5 135.5 L 36.6 129.1 L 40.3 121.5 L 44.7 112.8 L 49.7 102.9 L 55.4 91.9 L 61.8 79.8 L 69.1 66.6 L 70.7 67.3 L 65.3 81.4 L 64.77701044082642 82.72839345932007 L 70.3 77.7 L 76.5 71.7 L 82.3 65.9 L 87.6 60.2 L 92.3 54.6 L 96.6 49.0 L 100.3 43.6 L 103.5 38.2 L 105.7266978263855 33.911544990539554 L 105.7 33.9 L 106.7 32.0 L 116.8 38.7 L 118.5 41.8 L 114.62148447036743 41.99721269607544 L 113.1 44.3 L 109.0 49.8 L 107.99636363983154 51.0 L 151.0 51.0 L 151.27272729873658 50.77272729873657 L 152.2 49.3 L 152.637020778656 49.63581600189209 L 157.0 46.0 L 168.0 55.0 L 163.0 58.0 L 158.54285717010498 59.85714282989502 L 156.7 61.7 L 154.0 64.2 L 151.1 66.8 L 148.1 69.4 L 145.0 72.1 L 141.6 74.7 L 138.1 77.3 L 135.6807692527771 79.0 L 168.0 79.0 L 174.0 74.0 L 185.0 83.0 L 180.0 87.0 L 180.0 144.0 L 168.0 150.0 L 168.0 142.0 L 91.0 142.0 L 79.0 148.0 L 79.0 78.0 L 73.6 81.9 L 65.8 86.9 L 62.348888301849364 88.89582357406616 L 60.3 94.1 L 55.7 105.6 L 51.6 115.9 L 48.1 124.9 L 45.2 132.7 L 42.8 139.3 L 41.0 144.7 L 39.9 148.8 L 39.4 151.5 L 38.84196138381958 151.35214366912842 L 39.7 153.1 L 41.7 159.3 L 43.1 166.1 L 43.7 173.5 L 43.7 181.4 L 41.6 185.5 Z M 91.0 112.0 L 91.0 138.0 L 168.0 138.0 L 168.0 112.0 Z M 91.0 83.0 L 91.0 108.0 L 168.0 108.0 L 168.0 83.0 Z M 32.2 83.4 L 30.8 81.4 L 29.1 79.4 L 27.1 77.3 L 24.8 75.2 L 22.1 73.2 L 19.1 71.1 L 15.8 68.9 L 12.1 67.1 L 12.7 65.4 L 16.8 66.4 L 20.8 67.2 L 24.6 68.2 L 28.1 69.5 L 31.4 70.9 L 34.5 72.6 L 37.3 74.5 L 40.0 76.5 L 42.3 78.8 L 44.4 81.4 L 44.9 85.9 L 42.1 89.6 L 37.6 90.1 L 34.0 87.3 L 33.2 85.4 Z M 104.65090913772583 55.0 L 104.4 55.3 L 99.2 60.8 L 93.6 66.2 L 87.5 71.5 L 82.9941520690918 74.9970760345459 L 91.0 79.0 L 131.1527777671814 79.0 L 132.2 77.7 L 134.8 74.0 L 137.4 70.5 L 139.9 67.2 L 142.3 64.0 L 144.5 60.8 L 146.6 57.8 L 148.5310344696045 55.0 Z M 46.1 37.5 L 44.7 35.4 L 43.0 33.4 L 41.1 31.3 L 38.8 29.2 L 36.3 27.1 L 33.5 25.1 L 30.5 22.9 L 27.1 21.1 L 27.7 19.4 L 31.5 20.4 L 35.3 21.2 L 38.9 22.3 L 42.3 23.5 L 45.5 25.0 L 48.5 26.7 L 51.2 28.5 L 53.8 30.5 L 56.2 32.8 L 58.4 35.2 L 59.1 39.8 L 56.5 43.5 L 51.9 44.2 L 48.2 41.6 L 47.3 39.5 Z M 187.0 28.0 L 187.0 32.0 L 68.0 32.0 L 68.0 28.0 L 165.0 28.0 L 175.0 18.0 Z " />
</g>
</svg>
