<svg xmlns="http://www.w3.org/2000/svg" xmlns:xlink="http://www.w3.org/1999/xlink" version="1.1" baseProfile="full" viewBox="0 0 200 200" width="200" height="200">
<g fill="black">
<path d="M 39.5 186.9 L 35.5 184.8 L 34.0 180.5 L 34.6 173.5 L 34.6 167.1 L 34.1 161.3 L 33.1 156.1 L 31.5 151.5 L 29.3 147.4 L 26.6 143.6 L 23.3 140.2 L 19.2 137.0 L 14.4 134.1 L 14.9 132.4 L 20.8 133.6 L 26.3 135.7 L 31.1 138.8 L 33.21546697616577 140.7678762435913 L 35.8 135.4 L 39.1 129.0 L 43.0 121.4 L 47.6 112.7 L 52.9 102.8 L 58.9 91.8 L 65.8 79.7 L 73.4 66.5 L 75.0 67.4 L 69.2 81.4 L 63.8 94.2 L 58.9 105.7 L 54.5 115.9 L 50.7 125.0 L 47.6 132.8 L 45.0 139.4 L 43.1 144.8 L 41.9 148.9 L 41.3 151.6 L 41.00812187194824 151.51624364852904 L 41.8 153.1 L 43.9 159.2 L 45.3 166.1 L 46.0 173.5 L 46.0 181.4 L 43.8 185.5 Z M 99.7 131.4 L 99.7 150.6 L 152.2 150.6 L 152.2 131.4 Z M 99.7 108.3 L 99.7 127.4 L 152.2 127.4 L 152.2 108.3 Z M 170.2 120.4 L 166.0 116.7 L 164.2 114.9 L 164.2 171.9 L 164.1 174.5 L 163.6 177.0 L 162.8 179.4 L 161.6 181.7 L 159.9 183.7 L 157.9 185.3 L 155.7 186.5 L 153.2 187.4 L 150.8 187.8 L 148.2 187.9 L 148.2 181.9 L 134.2 178.9 L 134.2 175.9 L 149.4 175.9 L 150.3 175.7 L 150.9 175.5 L 151.3 175.3 L 151.6 175.0 L 151.8 174.7 L 152.0 174.1 L 152.1 173.2 L 152.2 171.9 L 152.2 154.6 L 99.7 154.6 L 99.7 182.5 L 87.7 188.5 L 87.7 103.45263156890869 L 86.5 106.8 L 84.2 111.8 L 81.4 116.6 L 78.1 121.0 L 74.5 125.0 L 70.3 128.7 L 65.7 131.8 L 64.4 130.5 L 67.5 126.1 L 70.3 121.7 L 72.7 117.4 L 74.7 113.0 L 76.4 108.5 L 77.7 103.9 L 78.6 99.1 L 79.2 94.2 L 79.5 89.2 L 79.4 84.0 L 79.4 51.2 L 91.4 57.2 L 164.8 57.2 L 170.8 52.2 L 181.8 61.2 L 176.8 65.2 L 176.8 86.4 L 164.8 92.4 L 164.8 84.4 L 147.05952377319335 84.4 L 149.5 86.9 L 153.3 90.9 L 157.1 94.8 L 161.0 98.4 L 164.9 101.9 L 168.9 105.1 L 173.0 108.1 L 177.2 110.9 L 181.6 113.5 L 186.0 115.9 L 190.5 118.5 L 179.3 127.2 L 174.7 123.9 Z M 91.36000003814698 84.4 L 90.8 90.0 L 89.8 95.9 L 89.03333330154419 98.96666669845581 L 99.7 104.3 L 152.2 104.3 L 153.97315435409547 102.8223713874817 L 151.5 99.3 L 148.6 94.4 L 146.0 89.2 L 144.16727275848388 84.4 Z M 34.4 83.6 L 32.9 81.5 L 31.1 79.5 L 28.9 77.4 L 26.4 75.3 L 23.5 73.2 L 20.3 71.1 L 16.7 69.0 L 12.7 67.1 L 13.3 65.4 L 17.7 66.3 L 21.9 67.1 L 25.9 68.1 L 29.6 69.4 L 33.1 70.9 L 36.3 72.5 L 39.3 74.4 L 42.0 76.4 L 44.5 78.7 L 46.7 81.3 L 47.3 85.8 L 44.7 89.5 L 40.1 90.1 L 36.4 87.5 L 35.6 85.5 Z M 91.4 61.2 L 91.4 80.4 L 164.8 80.4 L 164.8 61.2 Z M 49.3 37.6 L 47.7 35.6 L 45.9 33.5 L 43.8 31.4 L 41.3 29.3 L 38.6 27.2 L 35.6 25.1 L 32.3 22.9 L 28.7 21.1 L 29.2 19.4 L 33.3 20.4 L 37.3 21.2 L 41.1 22.2 L 44.6 23.5 L 48.0 24.9 L 51.1 26.6 L 54.1 28.4 L 56.8 30.4 L 59.3 32.7 L 61.6 35.1 L 62.4 39.6 L 59.9 43.5 L 55.4 44.3 L 51.6 41.8 L 50.6 39.7 Z M 66.6 38.0 L 121.0 38.0 L 121.0 13.8 L 133.0 15.8 L 136.0 17.8 L 133.0 19.6 L 133.0 38.0 L 165.3 38.0 L 175.3 28.0 L 187.3 38.0 L 187.3 42.0 L 66.6 42.0 Z " />
</g>
</svg>
