<svg xmlns="http://www.w3.org/2000/svg" xmlns:xlink="http://www.w3.org/1999/xlink" version="1.1" baseProfile="full" viewBox="0 0 200 200" width="200" height="200">
<g fill="black">
<path d="M 171.6 117.0 L 171.6 76.0 L 144.9 76.0 L 144.9 104.0 L 144.3135338783264 117.0 Z M 33.6 186.9 L 29.5 184.9 L 27.9 180.6 L 28.5 173.5 L 28.6 167.0 L 28.3 161.1 L 27.5 155.8 L 26.4 151.1 L 25.591655349731447 148.89052467346193 L 24.7 148.7 L 25.091860485076904 147.52441864013673 L 24.9 147.0 L 23.0 143.3 L 20.7 140.0 L 17.9 137.0 L 14.5 134.2 L 15.2 132.5 L 19.9 133.7 L 24.2 136.0 L 28.1 139.2 L 28.163058280944824 139.2741862297058 L 29.5 135.9 L 32.1 129.4 L 35.2 121.8 L 38.8 113.0 L 43.0 103.1 L 47.7 92.1 L 53.1 79.9 L 59.1 66.6 L 60.8 67.3 L 56.6 81.2 L 52.7 93.9 L 49.1 105.4 L 45.9 115.6 L 43.2 124.6 L 40.9 132.4 L 39.0 139.0 L 37.7 144.4 L 36.8 148.5 L 36.4 151.2 L 35.52777395248413 151.01362686157228 L 36.5 153.4 L 38.2 159.5 L 39.3 166.2 L 39.9 173.5 L 39.9 181.3 L 37.9 185.4 Z M 101.1 156.0 L 109.8 156.0 L 110.2 155.9 L 110.5 155.8 L 110.6 155.7 L 110.7 155.5 L 110.9 155.2 L 111.2 154.6 L 111.4 153.7 L 111.6 152.5 L 111.6 85.6 L 98.1 85.6 L 98.1 183.1 L 88.1 188.1 L 88.1 85.6 L 75.1 85.6 L 75.1 160.3 L 64.1 165.8 L 64.1 76.1 L 75.1 81.6 L 88.1 81.6 L 88.1 55.2 L 58.1 55.2 L 58.1 51.2 L 99.10512819290162 51.2 L 99.7 48.3 L 100.3 44.3 L 101.0 40.4 L 102.6 32.8 L 103.3 29.0 L 104.1 25.2 L 104.8 21.5 L 105.5 17.7 L 106.0104263305664 15.002032279968262 L 106.0 15.0 L 106.03636360168457 14.864935111999511 L 106.2 14.0 L 106.26430549621583 14.018293762207032 L 106.7 12.4 L 117.8 17.3 L 120.1 20.0 L 116.35728645324707 21.002512550354005 L 113.4 28.1 L 111.8 31.7 L 108.4 38.9 L 106.6 42.4 L 104.7 45.9 L 102.6 49.4 L 101.54117650985718 51.2 L 106.1 51.2 L 116.1 41.2 L 128.1 51.2 L 128.1 55.2 L 98.1 55.2 L 98.1 81.6 L 111.6 81.6 L 116.6 76.6 L 126.6 85.6 L 121.6 88.6 L 121.6 151.0 L 121.5 153.4 L 121.2 155.6 L 120.7 157.7 L 119.9 159.7 L 118.7 161.5 L 117.2 163.2 L 115.4 164.5 L 113.4 165.4 L 111.3 165.9 L 109.1 166.0 L 109.1 161.0 L 101.1 158.5 Z M 28.4 82.9 L 27.4 81.0 L 26.2 79.0 L 24.7 77.0 L 23.0 75.0 L 21.0 73.0 L 18.7 70.9 L 16.2 68.8 L 13.2 67.2 L 13.9 65.5 L 17.2 66.6 L 20.6 67.4 L 23.8 68.5 L 26.7 69.7 L 29.5 71.2 L 32.1 72.9 L 34.5 74.8 L 36.8 76.9 L 38.8 79.2 L 40.5 81.7 L 40.6 86.3 L 37.6 89.7 L 33.0 89.8 L 29.6 86.7 L 29.1 84.8 Z M 144.9 31.0 L 144.9 72.0 L 171.6 72.0 L 171.6 31.0 Z M 77.9 39.0 L 77.5 35.9 L 76.9 33.0 L 76.3 30.2 L 75.6 27.4 L 74.8 24.7 L 73.9 22.0 L 72.9 19.3 L 71.5 16.9 L 72.9 15.7 L 75.0 17.7 L 77.3 19.7 L 79.5 22.0 L 81.5 24.4 L 83.3 27.1 L 85.0 30.0 L 86.5 33.1 L 87.9 36.3 L 89.2 39.7 L 90.3 43.2 L 89.2 47.7 L 85.4 50.2 L 80.9 49.1 L 78.4 45.3 L 78.2 42.1 Z M 39.7 37.0 L 38.7 35.0 L 37.4 33.0 L 36.0 31.0 L 34.3 29.0 L 32.5 26.9 L 30.4 24.9 L 28.1 22.8 L 25.3 21.2 L 26.1 19.5 L 29.2 20.6 L 32.4 21.4 L 35.4 22.5 L 38.2 23.8 L 40.9 25.3 L 43.4 27.0 L 45.8 28.8 L 48.0 30.9 L 50.0 33.1 L 51.8 35.6 L 52.1 40.1 L 49.2 43.6 L 44.6 43.9 L 41.1 41.0 L 40.5 39.0 Z M 183.0 177.0 L 182.2 179.4 L 181.0 181.7 L 179.4 183.7 L 177.4 185.3 L 175.1 186.6 L 172.7 187.4 L 170.2 187.8 L 167.6 188.0 L 167.6 182.0 L 151.6 179.0 L 151.6 176.0 L 167.6 176.0 L 168.9 175.9 L 169.8 175.7 L 170.7 175.4 L 170.9 175.2 L 171.0 175.0 L 171.2 174.7 L 171.4 174.1 L 171.6 173.2 L 171.6 121.0 L 143.88225803375244 121.0 L 142.9 129.7 L 140.8 141.0 L 138.0 151.2 L 134.4 160.4 L 130.1 168.5 L 125.0 175.5 L 119.2 181.2 L 112.7 185.7 L 105.5 188.7 L 104.8 187.2 L 110.7 182.8 L 115.8 177.7 L 120.2 171.9 L 124.0 165.1 L 127.2 157.5 L 129.8 148.8 L 131.8 139.2 L 133.1 128.5 L 133.8 116.7 L 133.9 104.0 L 133.9 21.5 L 144.9 27.0 L 171.6 27.0 L 177.6 22.0 L 188.6 31.0 L 183.6 35.0 L 183.6 172.0 L 183.5 174.5 Z " />
</g>
</svg>
