<svg xmlns="http://www.w3.org/2000/svg" xmlns:xlink="http://www.w3.org/1999/xlink" version="1.1" baseProfile="full" viewBox="0 0 200 200" width="200" height="200">
<g fill="black">
<path d="M 92.0 176.9 L 102.0 176.9 L 103.3 176.8 L 104.2 176.6 L 105.1 176.3 L 105.3 176.1 L 105.4 175.9 L 105.6 175.6 L 105.8 175.0 L 106.0 174.1 L 106.0 143.3 L 80.7 143.3 L 80.7 182.5 L 68.7 188.5 L 68.7 76.1 L 80.7 82.1 L 106.0 82.1 L 112.0 77.1 L 123.0 86.1 L 118.0 90.1 L 118.0 172.9 L 117.9 175.4 L 117.5 177.9 L 116.6 180.3 L 115.4 182.6 L 113.8 184.6 L 111.8 186.2 L 109.5 187.5 L 107.1 188.3 L 104.6 188.7 L 102.0 188.9 L 102.0 182.9 L 92.0 179.9 Z M 149.4 176.7 L 161.4 176.7 L 162.6 176.6 L 163.5 176.5 L 164.1 176.3 L 164.4 176.1 L 164.6 176.0 L 164.8 175.8 L 164.9 175.4 L 165.1 174.8 L 165.3 173.9 L 165.4 172.7 L 165.4 77.3 L 177.4 79.3 L 180.4 81.3 L 177.4 83.1 L 177.4 172.7 L 177.2 175.3 L 176.8 177.8 L 176.0 180.2 L 174.8 182.4 L 173.1 184.4 L 171.1 186.1 L 168.8 187.3 L 166.4 188.1 L 163.9 188.6 L 161.4 188.7 L 161.4 182.7 L 149.4 179.7 Z M 61.2 74.0 L 57.3 88.4 L 53.8 101.3 L 50.5 112.7 L 47.7 122.8 L 45.3 131.4 L 43.4 138.6 L 41.9 144.4 L 40.8 148.8 L 40.1 151.8 L 39.87625551223755 151.7273811340332 L 40.6 153.1 L 42.7 159.2 L 44.1 166.0 L 44.8 173.4 L 44.9 181.4 L 42.8 185.4 L 38.5 186.9 L 34.4 184.9 L 32.9 180.5 L 33.4 173.5 L 33.4 167.1 L 32.9 161.3 L 31.8 156.1 L 30.2 151.5 L 28.1 147.3 L 25.5 143.6 L 22.2 140.2 L 18.3 137.0 L 13.6 134.1 L 14.2 132.4 L 20.0 133.6 L 25.3 135.7 L 30.0 138.8 L 31.88815793991089 140.59824562072754 L 33.8 135.5 L 36.5 128.5 L 39.7 120.1 L 43.3 110.4 L 47.5 99.2 L 52.2 86.7 L 57.6 72.9 L 60.63947372436523 65.2 L 57.3 65.2 L 57.3 61.2 L 62.21842107772827 61.2 L 63.6 57.7 L 65.3 58.2 L 64.52151899337768 61.2 L 82.4 61.2 L 82.4 24.3 L 94.4 26.3 L 97.4 28.3 L 94.4 30.1 L 94.4 61.2 L 116.5 61.2 L 116.5 13.2 L 128.5 15.2 L 131.5 17.2 L 128.5 19.0 L 128.5 35.1 L 155.2 35.1 L 165.2 25.1 L 177.2 35.1 L 177.2 39.1 L 128.5 39.1 L 128.5 61.2 L 169.4181818008423 61.2 L 177.6 52.2 L 187.6 61.2 L 187.6 65.2 L 63.48354434967041 65.2 Z M 147.0 88.7 L 150.0 90.7 L 147.0 92.5 L 147.0 161.0 L 135.0 167.0 L 135.0 86.7 Z M 80.7 114.7 L 80.7 139.3 L 106.0 139.3 L 106.0 114.7 Z M 80.7 86.1 L 80.7 110.7 L 106.0 110.7 L 106.0 86.1 Z M 29.5 85.3 L 28.3 83.3 L 26.8 81.2 L 25.0 79.2 L 23.0 77.1 L 20.7 75.1 L 18.2 73.0 L 15.4 70.9 L 12.1 69.1 L 12.8 67.5 L 16.4 68.5 L 20.0 69.3 L 23.4 70.4 L 26.6 71.6 L 29.6 73.1 L 32.4 74.8 L 35.1 76.6 L 37.5 78.7 L 39.7 80.9 L 41.7 83.4 L 42.2 87.9 L 39.5 91.6 L 34.9 92.1 L 31.3 89.3 L 30.5 87.3 Z M 44.1 37.6 L 42.9 35.7 L 41.5 33.7 L 39.8 31.6 L 37.9 29.6 L 35.6 27.5 L 33.1 25.3 L 30.3 23.1 L 27.1 21.2 L 27.8 19.5 L 31.4 20.7 L 35.0 21.7 L 38.4 22.8 L 41.5 24.2 L 44.5 25.6 L 47.2 27.3 L 49.7 29.0 L 52.1 31.0 L 54.2 33.1 L 56.1 35.4 L 56.5 40.0 L 53.7 43.6 L 49.2 44.0 L 45.6 41.2 L 45.0 39.4 Z " />
</g>
</svg>
