<svg xmlns="http://www.w3.org/2000/svg" xmlns:xlink="http://www.w3.org/1999/xlink" version="1.1" baseProfile="full" viewBox="0 0 200 200" width="200" height="200">
<g fill="black">
<path d="M 92.0 176.9 L 102.0 176.9 L 103.3 176.8 L 104.2 176.6 L 105.1 176.3 L 105.3 176.1 L 105.4 175.9 L 105.6 175.6 L 105.8 175.0 L 106.0 174.1 L 106.0 143.3 L 80.7 143.3 L 80.7 182.5 L 68.7 188.5 L 68.7 76.1 L 80.7 82.1 L 106.0 82.1 L 112.0 77.1 L 123.0 86.1 L 118.0 90.1 L 118.0 172.9 L 117.9 175.4 L 117.5 177.9 L 116.6 180.3 L 115.4 182.6 L 113.8 184.6 L 111.8 186.2 L 109.5 187.5 L 107.1 188.3 L 104.6 188.7 L 102.0 188.9 L 102.0 182.9 L 92.0 179.9 Z M 149.4 176.7 L 161.4 176.7 L 162.6 176.6 L 163.5 176.5 L 164.1 176.3 L 164.4 176.1 L 164.6 176.0 L 164.8 175.8 L 164.9 175.4 L 165.1 174.8 L 165.3 173.9 L 165.4 172.7 L 165.4 77.3 L 177.4 79.3 L 180.4 81.3 L 177.4 83.1 L 177.4 172.7 L 177.2 175.3 L 176.8 177.8 L 176.0 180.2 L 174.8 182.4 L 173.1 184.4 L 171.1 186.1 L 168.8 187.3 L 166.4 188.1 L 163.9 188.6 L 161.4 188.7 L 161.4 182.7 L 149.4 179.7 Z M 34.9 186.9 L 30.9 184.9 L 29.3 180.5 L 29.9 173.5 L 30.0 167.0 L 29.6 161.2 L 28.7 155.9 L 27.4 151.3 L 26.36969699859619 148.7545454978943 L 25.7 148.6 L 25.999458026885986 147.8398373603821 L 25.7 147.1 L 23.5 143.4 L 20.8 140.1 L 17.5 137.0 L 13.6 134.1 L 14.2 132.4 L 19.4 133.7 L 24.1 135.9 L 28.4 139.0 L 29.194966983795165 139.859423828125 L 31.0 135.7 L 33.8 129.2 L 37.3 121.6 L 41.2 112.9 L 45.8 103.0 L 51.0 92.0 L 57.0 79.8 L 63.6 66.6 L 65.3 67.3 L 60.5 81.3 L 56.0 94.0 L 51.9 105.5 L 48.3 115.7 L 45.1 124.8 L 42.5 132.6 L 40.4 139.2 L 38.8 144.6 L 37.8 148.7 L 37.4 151.3 L 36.65194396972656 151.12737169265748 L 37.6 153.3 L 39.5 159.4 L 40.7 166.1 L 41.3 173.5 L 41.3 181.4 L 39.2 185.4 Z M 147.0 88.7 L 150.0 90.7 L 147.0 92.5 L 147.0 161.0 L 135.0 167.0 L 135.0 86.7 Z M 80.7 114.7 L 80.7 139.3 L 106.0 139.3 L 106.0 114.7 Z M 80.7 86.1 L 80.7 110.7 L 106.0 110.7 L 106.0 86.1 Z M 29.8 83.2 L 28.6 81.2 L 27.2 79.2 L 25.4 77.2 L 23.4 75.1 L 21.0 73.1 L 18.4 71.0 L 15.5 68.9 L 12.2 67.1 L 12.8 65.4 L 16.5 66.5 L 20.2 67.3 L 23.7 68.3 L 26.9 69.6 L 30.0 71.1 L 32.8 72.7 L 35.4 74.6 L 37.9 76.7 L 40.0 79.0 L 42.0 81.5 L 42.3 86.1 L 39.3 89.6 L 34.8 89.9 L 31.3 87.0 L 30.6 85.1 Z M 57.3 61.2 L 82.4 61.2 L 82.4 24.3 L 94.4 26.3 L 97.4 28.3 L 94.4 30.1 L 94.4 61.2 L 116.5 61.2 L 116.5 13.2 L 128.5 15.2 L 131.5 17.2 L 128.5 19.0 L 128.5 35.1 L 155.2 35.1 L 165.2 25.1 L 177.2 35.1 L 177.2 39.1 L 128.5 39.1 L 128.5 61.2 L 169.4181818008423 61.2 L 177.6 52.2 L 187.6 61.2 L 187.6 65.2 L 57.3 65.2 Z M 42.4 37.2 L 41.2 35.2 L 39.7 33.2 L 38.0 31.1 L 36.1 29.1 L 33.9 27.1 L 31.5 25.0 L 28.8 22.9 L 25.7 21.2 L 26.4 19.5 L 29.9 20.5 L 33.3 21.3 L 36.6 22.4 L 39.7 23.7 L 42.7 25.1 L 45.4 26.8 L 48.0 28.7 L 50.4 30.7 L 52.6 32.9 L 54.6 35.4 L 55.1 39.9 L 52.3 43.6 L 47.8 44.1 L 44.2 41.3 L 43.4 39.3 Z " />
</g>
</svg>
