<svg xmlns="http://www.w3.org/2000/svg" xmlns:xlink="http://www.w3.org/1999/xlink" version="1.1" baseProfile="full" viewBox="0 0 200 200" width="200" height="200">
<g fill="black">
<path d="M 107.7 81.5 L 107.4 79.5 L 107.0 77.6 L 106.4 75.5 L 105.7 73.4 L 104.8 71.2 L 103.8 68.9 L 102.6 66.6 L 100.9 64.5 L 102.1 63.2 L 104.3 65.0 L 106.6 66.4 L 108.8 68.1 L 110.8 69.8 L 112.7 71.7 L 114.4 73.7 L 115.9 75.8 L 117.3 78.1 L 118.5 80.4 L 119.6 82.8 L 118.6 87.3 L 115.67692308425903 89.3 L 139.9 89.3 L 141.5 86.3 L 142.8 83.2 L 144.1 80.2 L 145.3 77.3 L 147.7 71.7 L 148.8 69.0 L 150.8 63.8 L 151.35315141677856 62.263468170166014 L 151.2 62.2 L 152.2 60.3 L 162.3 66.8 L 164.0 70.0 L 159.74421548843384 70.29350233078003 L 158.8 71.5 L 157.0 73.9 L 155.0 76.2 L 153.0 78.6 L 150.8 81.0 L 148.6 83.3 L 146.2 85.6 L 143.6 87.9 L 142.3119999885559 89.3 L 159.8 89.3 L 169.8 79.3 L 181.8 89.3 L 181.8 93.3 L 136.5 93.3 L 136.5 117.4 L 155.0 117.4 L 165.0 107.4 L 177.0 117.4 L 177.0 121.4 L 136.5 121.4 L 136.5 144.7 L 165.2 144.7 L 175.2 134.7 L 187.2 144.7 L 187.2 148.7 L 136.5 148.7 L 136.5 182.6 L 124.5 188.6 L 124.5 148.7 L 73.8 148.7 L 73.8 144.7 L 124.5 144.7 L 124.5 121.4 L 83.9 121.4 L 83.9 117.4 L 124.5 117.4 L 124.5 93.3 L 79.2 93.3 L 79.2 89.3 L 112.16000003814698 89.3 L 110.4 88.9 L 107.8 85.2 L 107.8 83.3 Z M 43.7 186.9 L 39.7 184.8 L 38.2 180.5 L 38.7 173.5 L 38.7 167.2 L 38.0 161.5 L 36.8 156.3 L 35.0 151.7 L 32.6 147.5 L 29.5 143.7 L 25.8 140.2 L 21.2 137.0 L 15.9 134.1 L 16.4 132.4 L 22.7 133.5 L 28.6 135.6 L 33.8 138.7 L 36.61867885589599 141.0897494316101 L 39.1 135.3 L 42.1 128.4 L 45.6 120.0 L 49.6 110.2 L 54.2 99.1 L 59.4 86.6 L 65.3 72.8 L 71.9 57.6 L 73.6 58.3 L 68.9 74.1 L 64.5 88.5 L 60.4 101.4 L 56.7 112.9 L 53.5 122.9 L 50.8 131.5 L 48.6 138.8 L 46.8 144.6 L 45.6 149.0 L 44.82978105545044 151.88832120895387 L 45.4 152.9 L 47.8 159.1 L 49.3 165.9 L 50.1 173.4 L 50.2 181.4 L 48.0 185.5 Z M 34.4 85.6 L 32.9 83.5 L 31.1 81.4 L 29.0 79.3 L 26.7 77.3 L 24.0 75.2 L 21.1 73.1 L 17.8 70.9 L 14.2 69.1 L 14.8 67.4 L 18.8 68.4 L 22.8 69.2 L 26.5 70.2 L 30.0 71.5 L 33.3 72.9 L 36.4 74.6 L 39.3 76.4 L 42.0 78.5 L 44.4 80.7 L 46.6 83.2 L 47.3 87.7 L 44.7 91.5 L 40.2 92.2 L 36.5 89.6 L 35.5 87.6 Z M 89.9 71.0 L 77.9 77.0 L 77.9 15.2 L 89.9 21.2 L 171.0 21.2 L 177.0 16.2 L 188.0 25.2 L 183.0 29.2 L 183.0 65.0 L 171.0 71.0 L 171.0 59.0 L 89.9 59.0 Z M 89.9 25.2 L 89.9 55.0 L 108.9 55.0 L 108.9 25.2 Z M 120.9 25.2 L 120.9 55.0 L 140.0 55.0 L 140.0 25.2 Z M 152.0 25.2 L 152.0 55.0 L 171.0 55.0 L 171.0 25.2 Z M 50.6 37.9 L 49.3 35.9 L 47.6 33.9 L 45.6 31.8 L 43.3 29.7 L 40.7 27.6 L 37.8 25.4 L 34.6 23.1 L 31.0 21.1 L 31.6 19.5 L 35.7 20.6 L 39.6 21.6 L 43.3 22.7 L 46.7 24.0 L 50.0 25.5 L 53.0 27.1 L 55.7 28.9 L 58.3 30.8 L 60.6 32.9 L 62.7 35.3 L 63.4 39.8 L 60.7 43.5 L 56.2 44.2 L 52.5 41.5 L 51.7 39.7 Z " />
</g>
</svg>
