<svg xmlns="http://www.w3.org/2000/svg" xmlns:xlink="http://www.w3.org/1999/xlink" version="1.1" baseProfile="full" viewBox="0 0 200 200" width="200" height="200">
<g fill="black">
<path d="M 180.0 53.0 L 183.0 55.0 L 180.0 56.8 L 180.0 183.0 L 168.0 189.0 L 168.0 51.0 Z M 86.0 53.0 L 89.0 55.0 L 86.0 56.8 L 86.0 100.0 L 85.4 111.5 L 84.4 122.5 L 82.9 132.9 L 81.0 142.7 L 78.6 152.0 L 75.6 160.6 L 72.2 168.7 L 68.3 176.0 L 63.8 182.7 L 58.7 188.5 L 57.2 187.4 L 60.5 180.7 L 63.5 173.6 L 66.1 166.2 L 68.4 158.3 L 70.3 149.9 L 71.9 141.0 L 73.0 131.6 L 73.7 121.6 L 74.0 111.0 L 74.0 51.0 Z M 145.7 177.6 L 143.7 178.8 L 141.6 179.9 L 139.5 180.9 L 137.3 181.6 L 135.0 182.2 L 132.7 182.6 L 130.3 182.9 L 128.0 183.0 L 128.0 177.0 L 108.0 174.0 L 108.0 171.0 L 128.0 171.0 L 129.5 170.9 L 131.0 170.7 L 132.4 170.5 L 133.8 170.1 L 135.1 169.7 L 136.4 169.1 L 137.7 168.4 L 138.9 167.7 L 140.1 166.8 L 141.2111110687256 165.8740740776062 L 141.5 165.2 L 142.0 163.7 L 142.6 161.6 L 143.1 159.0 L 143.6 155.8 L 144.1 152.0 L 144.4 147.8 L 144.7 143.0 L 144.86981134414674 140.0 L 123.49166669845582 140.0 L 122.7 143.8 L 120.3 150.5 L 117.1 156.7 L 113.2 162.4 L 108.4 167.5 L 102.9 172.1 L 96.8 176.0 L 89.9 179.2 L 82.3 181.8 L 81.6 180.1 L 88.1 175.9 L 93.8 171.5 L 98.7 167.0 L 102.8 162.4 L 106.2 157.5 L 108.9 152.4 L 110.9 147.0 L 112.2 141.3 L 112.9 135.3 L 113.0 129.0 L 113.0 123.0 L 89.0 123.0 L 89.0 119.0 L 119.0 119.0 L 119.0 100.0 L 131.0 102.0 L 134.0 104.0 L 131.0 105.8 L 131.0 119.0 L 147.8181818008423 119.0 L 156.0 110.0 L 166.0 119.0 L 166.0 123.0 L 125.0 123.0 L 125.0 129.0 L 124.26315793991088 136.0 L 145.0 136.0 L 151.0 131.0 L 162.0 140.0 L 157.0 143.0 L 156.71786832809448 143.11755485534667 L 156.7 143.6 L 156.4 148.6 L 156.0 153.2 L 155.5 157.3 L 155.0 161.0 L 154.3 164.3 L 153.5 167.3 L 152.5 169.9 L 151.3 172.4 L 149.4 174.6 L 147.6 176.2 Z M 41.0 186.9 L 36.9 184.8 L 35.4 180.5 L 36.0 173.5 L 35.9 167.2 L 35.3 161.5 L 34.0 156.3 L 32.2 151.7 L 29.8 147.5 L 26.7 143.7 L 22.9 140.2 L 18.3 137.0 L 12.9 134.1 L 13.4 132.4 L 19.8 133.5 L 25.7 135.6 L 31.0 138.7 L 33.8876916885376 141.14826040267945 L 34.0 140.9 L 36.4 135.3 L 39.3 128.3 L 42.9 120.0 L 46.9 110.2 L 51.5 99.1 L 56.8 86.6 L 62.7 72.8 L 69.3 57.6 L 71.0 58.3 L 66.3 74.1 L 61.8 88.5 L 57.7 101.4 L 54.0 112.9 L 50.8 122.9 L 48.1 131.6 L 45.8 138.8 L 44.0 144.6 L 42.8 149.0 L 42.05542860031128 151.792142868042 L 42.7 152.9 L 45.0 159.1 L 46.6 165.9 L 47.4 173.4 L 47.4 181.4 L 45.3 185.5 Z M 89.2 91.7 L 119.6 91.7 L 119.6 50.4 L 131.6 52.4 L 134.6 54.4 L 131.6 56.2 L 131.6 68.6 L 145.9777777671814 68.6 L 152.2 61.6 L 160.2 68.6 L 160.2 72.6 L 131.6 72.6 L 131.6 91.7 L 143.7 91.7 L 153.7 81.7 L 165.7 91.7 L 165.7 95.7 L 89.2 95.7 Z M 31.6 85.6 L 30.1 83.5 L 28.3 81.4 L 26.2 79.4 L 23.8 77.3 L 21.2 75.2 L 18.2 73.1 L 14.9 70.9 L 11.3 69.1 L 11.8 67.4 L 15.9 68.4 L 19.9 69.2 L 23.7 70.2 L 27.2 71.5 L 30.5 72.9 L 33.6 74.6 L 36.5 76.4 L 39.2 78.5 L 41.6 80.7 L 43.9 83.2 L 44.6 87.7 L 42.0 91.5 L 37.5 92.2 L 33.7 89.6 L 32.8 87.6 Z M 48.0 37.9 L 46.6 35.9 L 44.9 33.9 L 42.9 31.8 L 40.6 29.7 L 37.9 27.6 L 35.0 25.4 L 31.8 23.1 L 28.1 21.1 L 28.8 19.5 L 32.8 20.6 L 36.8 21.6 L 40.5 22.7 L 44.0 24.0 L 47.2 25.5 L 50.2 27.1 L 53.0 28.9 L 55.6 30.8 L 57.9 32.9 L 60.0 35.2 L 60.7 39.8 L 58.1 43.5 L 53.6 44.2 L 49.8 41.6 L 49.0 39.8 Z M 64.8 39.1 L 120.0 39.1 L 120.0 14.2 L 132.0 16.2 L 135.0 18.2 L 132.0 20.0 L 132.0 39.1 L 165.2 39.1 L 175.2 29.1 L 187.2 39.1 L 187.2 43.1 L 64.8 43.1 Z " />
</g>
</svg>
