<svg xmlns="http://www.w3.org/2000/svg" xmlns:xlink="http://www.w3.org/1999/xlink" version="1.1" baseProfile="full" viewBox="0 0 200 200" width="200" height="200">
<g fill="black">
<path d="M 170.5 181.7 L 167.6 179.0 L 164.3 176.4 L 160.9 173.9 L 157.1 171.3 L 153.1 168.8 L 148.9 166.3 L 144.4 163.7 L 139.6 161.1 L 140.2 159.4 L 145.6 160.4 L 150.8 161.6 L 155.7 163.1 L 160.5 164.8 L 164.9 166.6 L 169.2 168.7 L 173.3 170.9 L 177.1 173.3 L 180.7 175.9 L 184.1 178.6 L 185.8 182.8 L 184.1 187.1 L 179.8 188.8 L 175.6 187.1 L 173.2 184.4 Z M 115.0 166.2 L 115.4 169.8 L 111.68869562149048 168.5179130554199 L 111.0 169.0 L 106.8 171.6 L 102.4 174.1 L 97.7 176.6 L 92.8 178.8 L 87.6 181.0 L 82.2 183.0 L 76.5 184.9 L 70.5 186.5 L 64.3 187.8 L 63.6 186.1 L 69.1 183.0 L 74.4 179.9 L 79.4 177.1 L 84.2 174.2 L 88.8 171.4 L 93.0 168.5 L 97.0 165.7 L 100.7 162.8 L 104.2 159.9 L 106.62798900604248 157.62865543365479 L 106.6 157.6 L 106.94772729873657 157.3295454978943 L 107.3 157.0 L 107.3281639099121 157.03365030288697 L 107.5 156.9 Z M 92.0 159.0 L 80.0 165.0 L 80.0 96.31730766296387 L 77.7 97.6 L 72.2 100.3 L 66.4 102.7 L 65.5 101.2 L 70.2 97.1 L 74.7 93.2 L 79.0 89.4 L 83.0 85.7 L 86.8 82.0 L 90.3 78.2 L 93.5 74.5 L 96.4 70.8 L 99.1 67.1 L 100.96912851333619 64.14054651260376 L 100.9 64.1 L 101.9 62.6 L 111.3 70.2 L 112.6 73.6 L 108.65338344573975 73.32781953811646 L 108.0 74.1 L 104.5 77.8 L 100.7 81.5 L 96.7 85.0 L 92.3 88.4 L 87.8 91.6 L 84.00360364913941 94.00180177688598 L 92.0 98.0 L 120.0 98.0 L 120.0 55.7 L 78.15348834991455 55.7 L 78.3 57.8 L 78.3 61.7 L 78.0 65.5 L 77.4 68.9 L 76.5 72.2 L 75.2 75.2 L 73.5 78.0 L 71.3 80.5 L 66.8 81.5 L 64.2910078048706 80.02033796310425 L 61.7 88.5 L 57.7 101.4 L 54.1 112.8 L 51.0 122.9 L 48.3 131.5 L 46.1 138.8 L 44.4 144.6 L 43.1 149.0 L 42.427148246765135 151.88365020751954 L 43.0 152.9 L 45.3 159.1 L 46.8 166.0 L 47.6 173.4 L 47.7 181.4 L 45.5 185.5 L 41.2 186.9 L 37.2 184.8 L 35.7 180.5 L 36.2 173.5 L 36.2 167.2 L 35.5 161.4 L 34.3 156.3 L 32.5 151.7 L 30.2 147.5 L 27.2 143.7 L 23.5 140.2 L 19.0 137.0 L 13.7 134.1 L 14.2 132.4 L 20.5 133.5 L 26.3 135.6 L 31.5 138.7 L 34.22633981704712 141.06282777786254 L 34.3 140.9 L 36.6 135.3 L 39.5 128.4 L 43.0 120.0 L 47.0 110.3 L 51.5 99.1 L 56.7 86.6 L 62.5 72.8 L 69.0 57.6 L 70.7 58.3 L 67.86202363967895 68.04783182144165 L 68.0 67.9 L 69.3 66.0 L 70.5 63.5 L 71.7 60.6 L 72.8 57.1 L 73.7 53.3 L 74.7 48.9 L 75.1 44.2 L 76.9 44.1 L 77.4 49.0 L 77.76000003814697 51.7 L 120.0 51.7 L 120.0 31.0 L 73.0 31.0 L 73.0 27.0 L 159.0 27.0 L 169.0 17.0 L 181.0 27.0 L 181.0 31.0 L 132.0 31.0 L 132.0 51.7 L 172.9 51.7 L 178.9 46.7 L 189.9 55.7 L 184.9 58.7 L 181.2211678504944 60.23284673690796 L 180.9 60.7 L 179.6 62.5 L 178.3 64.4 L 176.8 66.6 L 175.2 68.9 L 173.4 71.4 L 171.9 74.3 L 170.3 73.6 L 171.3 70.5 L 171.7 67.5 L 172.2 64.7 L 172.5 62.2 L 172.9 59.9 L 172.9 55.7 L 132.0 55.7 L 132.0 98.0 L 160.0 98.0 L 166.0 93.0 L 177.0 102.0 L 172.0 106.0 L 172.0 152.0 L 160.0 158.0 L 160.0 152.0 L 92.0 152.0 Z M 92.0 127.0 L 92.0 148.0 L 120.0 148.0 L 120.0 127.0 Z M 132.0 127.0 L 132.0 148.0 L 160.0 148.0 L 160.0 127.0 Z M 92.0 102.0 L 92.0 123.0 L 120.0 123.0 L 120.0 102.0 Z M 132.0 102.0 L 132.0 123.0 L 160.0 123.0 L 160.0 102.0 Z M 169.6 91.8 L 167.2 89.0 L 164.4 86.1 L 161.2 83.0 L 157.7 79.9 L 153.9 76.7 L 149.7 73.4 L 145.2 69.9 L 140.4 66.2 L 141.3 64.6 L 147.0 66.8 L 152.3 69.0 L 157.3 71.4 L 161.9 73.9 L 166.2 76.4 L 170.2 79.0 L 173.9 81.6 L 177.2 84.3 L 180.2 87.1 L 183.0 90.0 L 184.0 94.4 L 181.7 98.3 L 177.3 99.4 L 173.3 97.1 L 171.7 94.5 Z M 31.9 85.5 L 30.5 83.5 L 28.7 81.4 L 26.7 79.3 L 24.4 77.3 L 21.7 75.2 L 18.8 73.1 L 15.7 70.9 L 12.1 69.1 L 12.7 67.4 L 16.7 68.4 L 20.6 69.2 L 24.3 70.2 L 27.7 71.5 L 31.0 73.0 L 34.1 74.6 L 36.9 76.5 L 39.6 78.5 L 42.0 80.8 L 44.2 83.2 L 44.9 87.8 L 42.2 91.5 L 37.7 92.2 L 34.0 89.6 L 33.1 87.6 Z M 48.0 37.8 L 46.7 35.9 L 45.0 33.9 L 43.1 31.8 L 40.8 29.7 L 38.2 27.6 L 35.3 25.4 L 32.2 23.1 L 28.6 21.2 L 29.3 19.5 L 33.3 20.6 L 37.2 21.6 L 40.8 22.7 L 44.2 24.0 L 47.4 25.5 L 50.4 27.1 L 53.1 28.9 L 55.7 30.8 L 58.0 32.9 L 60.0 35.3 L 60.7 39.8 L 58.0 43.5 L 53.5 44.2 L 49.8 41.5 L 49.0 39.7 Z " />
</g>
</svg>
