<svg xmlns="http://www.w3.org/2000/svg" xmlns:xlink="http://www.w3.org/1999/xlink" version="1.1" baseProfile="full" viewBox="0 0 200 200" width="200" height="200">
<g fill="black">
<path d="M 39.2 186.9 L 35.2 184.8 L 33.7 180.5 L 34.2 173.5 L 34.2 167.1 L 33.6 161.4 L 32.4 156.2 L 30.8 151.6 L 28.6 147.4 L 25.8 143.6 L 22.3 140.2 L 18.1 137.0 L 13.1 134.1 L 13.7 132.4 L 19.7 133.6 L 25.2 135.7 L 30.2 138.8 L 32.38838119506836 140.78481092453003 L 34.6 135.4 L 37.4 128.4 L 40.7 120.1 L 44.5 110.3 L 48.9 99.2 L 53.8 86.7 L 59.3 72.8 L 64.5 60.336507892608644 L 64.5 23.0 L 76.5 29.0 L 100.2 29.0 L 106.2 24.0 L 117.2 33.0 L 112.2 37.0 L 112.2 98.0 L 100.2 104.0 L 100.2 98.0 L 76.5 98.0 L 76.5 130.0 L 94.51818180084229 130.0 L 102.7 121.0 L 112.7 130.0 L 112.7 134.0 L 76.5 134.0 L 76.5 164.0 L 95.81818180084228 164.0 L 104.0 155.0 L 114.0 164.0 L 114.0 168.0 L 76.5 168.0 L 76.5 184.0 L 64.5 190.0 L 64.5 68.31818180084228 L 62.9 74.1 L 58.8 88.4 L 55.1 101.3 L 51.7 112.8 L 48.7 122.8 L 46.2 131.5 L 44.1 138.7 L 42.5 144.5 L 41.3 148.9 L 40.6 151.9 L 41.2 153.0 L 43.4 159.2 L 44.8 166.0 L 45.6 173.4 L 45.6 181.4 L 43.6 185.4 Z M 165.2 183.8 L 162.7 183.4 L 160.3 182.6 L 158.0 181.3 L 156.0 179.7 L 154.4 177.7 L 153.2 175.4 L 152.3 173.0 L 151.9 170.5 L 151.8 168.0 L 151.8 104.0 L 144.15606060028077 104.0 L 143.3 115.3 L 141.7 127.5 L 139.5 138.7 L 136.6 149.0 L 133.1 158.2 L 128.9 166.4 L 124.1 173.6 L 118.7 179.6 L 112.6 184.3 L 106.0 187.7 L 105.1 186.2 L 110.2 181.4 L 114.7 176.0 L 118.7 169.9 L 122.2 163.0 L 125.2 155.2 L 127.7 146.4 L 129.6 136.7 L 131.1 126.1 L 132.0 114.4 L 132.16774196624755 104.0 L 114.2 104.0 L 114.2 100.0 L 143.7 100.0 L 143.7 56.0 L 130.3054054260254 56.0 L 128.9 61.2 L 126.7 68.1 L 124.3 74.6 L 121.7 80.7 L 118.9 86.2 L 115.7 91.3 L 114.1 90.6 L 115.3 84.9 L 116.7 78.9 L 118.0 72.7 L 119.4 66.1 L 120.6 59.2 L 121.8 52.0 L 122.9 44.3 L 123.9 36.4 L 124.8 28.0 L 125.50876407623291 20.203595542907713 L 125.4 20.2 L 125.8 17.2 L 137.5 20.6 L 140.2 23.0 L 136.88644142150878 24.500479316711427 L 136.1 29.5 L 134.5 38.0 L 132.8 46.1 L 131.34415588378906 52.0 L 143.7 52.0 L 143.7 15.0 L 155.7 17.0 L 158.7 19.0 L 155.7 20.8 L 155.7 52.0 L 161.01818180084229 52.0 L 169.2 43.0 L 179.2 52.0 L 179.2 56.0 L 155.7 56.0 L 155.7 100.0 L 161.9 100.0 L 171.9 90.0 L 183.9 100.0 L 183.9 104.0 L 163.8 104.0 L 163.8 169.2 L 164.0 170.1 L 164.2 170.7 L 164.4 171.0 L 164.5 171.2 L 164.7 171.4 L 165.6 171.7 L 166.5 171.9 L 167.8 172.0 L 175.9 172.0 L 181.9 147.0 L 183.9 147.0 L 181.9 172.0 L 185.5 174.4 L 187.9 178.0 L 185.5 181.6 L 181.9 184.0 L 167.8 184.0 Z M 76.5 66.0 L 76.5 94.0 L 100.2 94.0 L 100.2 66.0 Z M 30.1 85.4 L 28.8 83.4 L 27.2 81.3 L 25.3 79.2 L 23.1 77.2 L 20.7 75.1 L 17.9 73.0 L 15.0 70.9 L 11.6 69.1 L 12.2 67.4 L 16.0 68.4 L 19.7 69.2 L 23.3 70.3 L 26.6 71.6 L 29.7 73.0 L 32.7 74.7 L 35.4 76.5 L 37.9 78.6 L 40.3 80.8 L 42.3 83.3 L 42.9 87.9 L 40.2 91.5 L 35.7 92.1 L 32.0 89.4 L 31.2 87.4 Z M 76.5 33.0 L 76.5 62.0 L 100.2 62.0 L 100.2 33.0 Z M 45.4 37.7 L 44.1 35.8 L 42.6 33.8 L 40.8 31.7 L 38.7 29.6 L 36.3 27.5 L 33.6 25.3 L 30.7 23.1 L 27.3 21.2 L 28.0 19.5 L 31.8 20.7 L 35.5 21.6 L 39.0 22.8 L 42.3 24.1 L 45.3 25.6 L 48.2 27.2 L 50.8 29.0 L 53.2 30.9 L 55.4 33.0 L 57.4 35.4 L 57.9 39.9 L 55.2 43.5 L 50.7 44.1 L 47.0 41.3 L 46.3 39.6 Z " />
</g>
</svg>
