<svg xmlns="http://www.w3.org/2000/svg" xmlns:xlink="http://www.w3.org/1999/xlink" version="1.1" baseProfile="full" viewBox="0 0 200 200" width="200" height="200">
<g fill="black">
<path d="M 126.0 60.9 L 123.6 57.7 L 121.1 54.6 L 118.3 51.6 L 115.2 48.5 L 112.0 45.6 L 108.5 42.6 L 104.8 39.6 L 100.9 36.6 L 101.7 35.0 L 106.4 36.6 L 111.1 38.4 L 115.4 40.4 L 119.6 42.7 L 123.5 45.3 L 127.3 48.0 L 130.8 50.9 L 131.28794765472412 51.35837507247925 L 132.4 50.1 L 136.1 46.1 L 139.6 42.2 L 142.9 38.6 L 146.0 35.0 L 148.8 31.7 L 151.5 28.4 L 153.9 25.3 L 154.04666662216187 25.1 L 81.9 25.1 L 81.9 21.1 L 156.7 21.1 L 157.11012659072875 20.758227825164795 L 158.0 19.4 L 158.38052520751953 19.699562358856202 L 162.7 16.1 L 173.7 25.1 L 168.7 28.1 L 164.39633512496948 29.89319372177124 L 161.8 32.4 L 158.7 35.3 L 155.3 38.1 L 151.7 41.1 L 147.8 44.0 L 143.7 47.0 L 139.4 50.0 L 134.7 52.9 L 133.60506582260132 53.535061836242676 L 134.1 54.0 L 137.2 57.3 L 140.0 60.7 L 140.8 65.2 L 138.68461542129518 68.5 L 170.4 68.5 L 176.4 63.5 L 187.4 72.5 L 182.4 76.5 L 182.4 180.4 L 170.4 186.4 L 170.4 178.4 L 86.5 178.4 L 86.5 181.4 L 74.5 187.4 L 74.5 62.5 L 86.5 68.5 L 131.67200002670288 68.5 L 130.0 67.4 L 128.1 64.1 Z M 43.0 186.9 L 38.9 184.8 L 37.5 180.5 L 38.0 173.5 L 37.9 167.2 L 37.2 161.5 L 35.9 156.4 L 34.0 151.8 L 31.4 147.6 L 28.1 143.7 L 24.1 140.2 L 19.2 137.0 L 13.5 134.1 L 14.0 132.3 L 20.7 133.5 L 26.8 135.6 L 32.3 138.6 L 35.65107297897339 141.32274675369263 L 35.9 140.8 L 38.4 135.2 L 41.5 128.3 L 45.2 119.9 L 49.4 110.2 L 54.2 99.1 L 59.7 86.6 L 65.9 72.8 L 72.8 57.6 L 74.5 58.3 L 69.4 74.1 L 64.7 88.5 L 60.4 101.4 L 56.5 112.9 L 53.1 123.0 L 50.2 131.6 L 47.8 138.9 L 45.9 144.7 L 44.6 149.1 L 43.82666664123535 151.6777777671814 L 44.5 152.8 L 47.0 159.0 L 48.6 165.9 L 49.4 173.4 L 49.4 181.4 L 47.3 185.5 Z M 86.5 72.5 L 86.5 174.4 L 170.4 174.4 L 170.4 72.5 Z M 134.5 122.6 L 137.5 124.6 L 134.5 126.4 L 134.5 138.9 L 141.4181818008423 138.9 L 149.6 129.9 L 159.6 138.9 L 159.6 142.9 L 134.5 142.9 L 134.5 161.5 L 149.11818180084228 161.5 L 157.3 152.5 L 167.3 161.5 L 167.3 165.5 L 90.1 165.5 L 90.1 161.5 L 122.5 161.5 L 122.5 142.9 L 97.8 142.9 L 97.8 138.9 L 122.5 138.9 L 122.5 120.9 L 91.5 120.9 L 91.5 116.9 L 122.5 116.9 L 122.5 98.8 L 97.8 98.8 L 97.8 94.8 L 122.5 94.8 L 122.5 76.5 L 134.5 78.5 L 137.5 80.5 L 134.5 82.3 L 134.5 94.8 L 141.4181818008423 94.8 L 149.6 85.8 L 159.6 94.8 L 159.6 98.8 L 134.5 98.8 L 134.5 116.9 L 147.71818180084227 116.9 L 155.9 107.9 L 165.9 116.9 L 165.9 120.9 L 124.3 120.9 Z M 33.4 85.7 L 31.8 83.6 L 29.9 81.5 L 27.6 79.4 L 25.1 77.3 L 22.2 75.2 L 19.1 73.1 L 15.6 71.0 L 11.8 69.1 L 12.3 67.4 L 16.6 68.3 L 20.8 69.1 L 24.7 70.2 L 28.3 71.4 L 31.8 72.9 L 35.0 74.5 L 38.0 76.4 L 40.8 78.4 L 43.4 80.7 L 45.7 83.1 L 46.5 87.6 L 44.0 91.4 L 39.5 92.3 L 35.7 89.8 L 34.7 87.7 Z M 50.6 38.0 L 49.1 36.0 L 47.3 34.0 L 45.1 31.9 L 42.7 29.8 L 39.8 27.6 L 36.7 25.4 L 33.3 23.1 L 29.5 21.1 L 30.1 19.4 L 34.4 20.6 L 38.5 21.5 L 42.4 22.6 L 46.0 24.0 L 49.4 25.4 L 52.5 27.0 L 55.4 28.8 L 58.1 30.7 L 60.5 32.8 L 62.7 35.2 L 63.4 39.7 L 60.9 43.5 L 56.4 44.2 L 52.6 41.7 L 51.7 39.9 Z " />
</g>
</svg>
