<svg xmlns="http://www.w3.org/2000/svg" xmlns:xlink="http://www.w3.org/1999/xlink" version="1.1" baseProfile="full" viewBox="0 0 200 200" width="200" height="200">
<g fill="black">
<path d="M 169.2 56.0 L 169.2 60.0 L 157.4 60.0 L 157.4 87.0 L 170.0 87.0 L 175.5 82.0 L 186.0 91.0 L 181.0 94.5 L 181.0 179.0 L 170.0 184.5 L 170.0 175.0 L 123.0 175.0 L 123.0 182.0 L 111.0 188.0 L 111.0 81.0 L 123.0 87.0 L 132.4 87.0 L 132.4 60.0 L 122.6 60.0 L 122.6 56.0 L 151.01818180084229 56.0 L 159.2 47.0 Z M 41.5 186.9 L 37.4 184.8 L 35.9 180.5 L 36.5 173.5 L 36.4 167.2 L 35.8 161.4 L 34.6 156.3 L 32.9 151.6 L 30.6 147.4 L 27.6 143.7 L 24.0 140.2 L 19.7 137.0 L 14.5 134.1 L 15.0 132.4 L 21.2 133.5 L 26.9 135.7 L 32.0 138.7 L 34.5241379737854 140.943678188324 L 36.9 135.4 L 39.7 128.4 L 43.1 120.0 L 47.1 110.3 L 51.5 99.2 L 56.6 86.7 L 62.3 72.8 L 68.8 57.6 L 70.4 58.3 L 65.9 74.1 L 61.7 88.4 L 57.7 101.3 L 54.2 112.8 L 51.1 122.9 L 48.5 131.5 L 46.3 138.7 L 44.7 144.5 L 43.4 148.9 L 42.71634244918823 151.8299611091614 L 43.3 152.9 L 45.6 159.1 L 47.1 166.0 L 47.9 173.4 L 47.9 181.4 L 45.8 185.5 Z M 96.2 179.3 L 94.8 181.3 L 93.0 183.0 L 91.1 184.6 L 89.0 185.8 L 86.7 186.8 L 84.3 187.4 L 81.8 187.8 L 79.3 188.0 L 79.3 182.0 L 59.3 179.0 L 59.3 176.0 L 79.3 176.0 L 80.7 175.9 L 81.8 175.7 L 82.8 175.4 L 83.6 175.1 L 84.3 174.7 L 85.0 174.1 L 85.6 173.5 L 86.2 172.7 L 86.8 171.7 L 87.3 170.5 L 89.3 163.9 L 91.1 153.2 L 92.4 139.4 L 92.9 123.4 L 92.35798320770263 107.50084037780762 L 91.9 108.6 L 88.7 115.4 L 85.3 122.0 L 81.5 128.4 L 77.5 134.4 L 73.2 140.2 L 68.5 145.6 L 63.4 150.5 L 62.0 149.4 L 65.4 143.3 L 68.7 137.2 L 71.8 131.1 L 74.8 124.8 L 77.6 118.4 L 80.2 111.7 L 82.6 105.0 L 84.7 98.0 L 86.7 90.8 L 88.4 83.5 L 89.76788730621338 83.84197187423706 L 87.0 68.7 L 86.07272729873657 65.39090909957886 L 84.4 67.9 L 79.5 74.3 L 74.4 80.1 L 69.0 85.2 L 63.3 89.6 L 62.1 88.3 L 66.2 82.6 L 70.2 76.7 L 74.2 70.5 L 78.0 63.9 L 81.6 56.9 L 82.90799407958984 54.097155475616454 L 81.9 50.5 L 74.9 33.3 L 66.4 17.3 L 67.8 16.2 L 79.6 30.8 L 86.84861707687378 45.21391668319702 L 88.4 41.5 L 91.6 33.2 L 94.6 24.3 L 97.12437496185302 16.005624961853027 L 97.1 16.0 L 97.9 13.5 L 108.8 18.7 L 111.1 21.6 L 107.42258062362671 22.43870964050293 L 105.3 28.2 L 101.5 37.2 L 97.6 45.6 L 93.4 53.6 L 91.33769264221192 57.06842594146728 L 94.6 66.7 L 99.0 85.9 L 99.03663501739501 86.15915870666504 L 100.0 86.4 L 99.36064834594727 88.45125322341919 L 101.7 105.0 L 102.9 123.2 L 103.0 139.9 L 102.2 154.4 L 100.7 166.1 L 98.5 174.8 L 97.5 177.1 Z M 123.0 153.0 L 123.0 171.0 L 170.0 171.0 L 170.0 153.0 Z M 170.0 91.0 L 157.4 91.0 L 157.4 116.0 L 157.6 117.3 L 157.9 118.4 L 158.3 119.2 L 158.6 119.6 L 159.0 119.9 L 159.4 120.1 L 159.9 120.3 L 160.6 120.4 L 161.50255222320556 120.49025526046753 L 167.0 99.5 L 169.0 99.5 L 167.0 120.5 L 170.0 122.5 Z M 123.0 91.0 L 123.0 137.71363639831543 L 123.5 136.6 L 125.5 131.8 L 127.3 126.8 L 128.9 121.8 L 130.2 116.7 L 131.2 111.5 L 131.9 106.1 L 132.4 100.5 L 132.5 94.8 L 132.43448276519774 91.0 Z M 32.2 85.5 L 30.8 83.4 L 29.1 81.4 L 27.2 79.3 L 24.9 77.2 L 22.3 75.2 L 19.5 73.1 L 16.4 70.9 L 12.9 69.1 L 13.5 67.4 L 17.4 68.4 L 21.3 69.2 L 24.9 70.3 L 28.3 71.5 L 31.5 73.0 L 34.5 74.6 L 37.4 76.5 L 40.0 78.5 L 42.3 80.8 L 44.5 83.3 L 45.1 87.8 L 42.5 91.5 L 38.0 92.2 L 34.2 89.5 L 33.4 87.5 Z M 142.4 60.0 L 142.4 87.0 L 148.4 87.0 L 148.4 60.0 Z M 131.8 29.3 L 134.2 32.0 L 130.59548301696776 33.09422836303711 L 129.8 35.6 L 127.7 41.7 L 125.3 47.7 L 122.7 53.5 L 119.9 59.1 L 116.9 64.6 L 113.7 69.9 L 110.2 75.0 L 106.4 79.9 L 102.2 84.5 L 100.7 83.4 L 103.2 77.9 L 105.5 72.4 L 107.9 66.9 L 110.1 61.3 L 112.2 55.7 L 114.1 50.1 L 115.8 44.3 L 117.4 38.5 L 118.8 32.5 L 120.1 26.5 L 120.12110004425048 26.505049610137938 L 120.5 24.8 Z M 174.2 68.3 L 172.1 63.9 L 170.4 59.3 L 168.9 54.3 L 167.6 49.1 L 166.6 43.5 L 165.8 37.7 L 165.5 31.5 L 165.5859375 26.0 L 132.5 26.0 L 132.5 22.0 L 161.58000001907348 22.0 L 166.5 17.9 L 177.5 26.9 L 172.5 29.9 L 169.76666669845582 31.26666669845581 L 171.6 36.4 L 173.6 41.7 L 175.6 46.6 L 177.6 51.1 L 179.8 55.2 L 182.0 58.9 L 184.3 62.2 L 186.6 65.1 L 189.0 67.7 L 189.6 68.4 L 178.9 76.2 L 176.4 72.4 Z M 48.0 37.8 L 46.7 35.8 L 45.1 33.8 L 43.2 31.8 L 41.0 29.7 L 38.5 27.5 L 35.7 25.4 L 32.6 23.1 L 29.1 21.2 L 29.8 19.5 L 33.7 20.6 L 37.6 21.6 L 41.1 22.7 L 44.5 24.1 L 47.6 25.5 L 50.6 27.1 L 53.3 28.9 L 55.8 30.9 L 58.0 33.0 L 60.0 35.3 L 60.6 39.8 L 58.0 43.5 L 53.4 44.1 L 49.7 41.4 L 49.0 39.7 Z M 160.4 131.2 L 158.1 130.7 L 155.8 129.8 L 153.7 128.6 L 151.9 127.0 L 150.5 125.1 L 149.4 122.9 L 148.8 120.7 L 148.5 118.4 L 148.4 116.0 L 148.4 91.0 L 142.27301588058472 91.0 L 142.0 95.3 L 141.3 101.5 L 140.2 107.4 L 138.7 113.2 L 137.0 118.7 L 134.8 124.0 L 132.3 129.0 L 129.5 133.8 L 126.2 138.3 L 123.0 141.84594593048095 L 123.0 149.0 L 170.0 149.0 L 170.0 129.5 L 167.0 131.5 L 162.9 131.5 Z " />
</g>
</svg>
