<svg xmlns="http://www.w3.org/2000/svg" xmlns:xlink="http://www.w3.org/1999/xlink" version="1.1" baseProfile="full" viewBox="0 0 200 200" width="200" height="200">
<g fill="black">
<path d="M 166.2 182.7 L 164.2 180.8 L 161.8 178.8 L 159.1 176.8 L 156.0 174.7 L 152.6 172.6 L 148.9 170.5 L 144.8 168.2 L 140.4 166.2 L 140.9 164.5 L 145.8 165.4 L 150.5 166.2 L 154.8 167.3 L 158.9 168.5 L 162.7 169.8 L 166.3 171.2 L 169.6 172.7 L 172.6 174.4 L 175.4 176.2 L 178.0 178.2 L 179.6 182.5 L 177.7 186.7 L 173.4 188.3 L 169.2 186.4 L 167.9 184.6 Z M 122.681849193573 166.6788905143738 L 128.5 172.7 L 128.6 176.1 L 124.90909090042115 174.57272729873657 L 122.9 175.5 L 118.7 177.3 L 114.3 178.9 L 109.6 180.5 L 104.7 182.0 L 99.6 183.3 L 94.1 184.6 L 88.4 185.7 L 82.4 186.6 L 76.1 187.2 L 75.7 185.4 L 81.4 182.9 L 86.9 180.5 L 92.1 178.3 L 97.1 176.2 L 101.8 174.0 L 106.2 171.9 L 110.2 169.8 L 114.0 167.6 L 117.5 165.5 L 119.9235595703125 163.83380279541015 L 119.9 163.8 L 119.9290295600891 163.83004217147828 L 120.7 163.3 Z M 68.63113203048707 73.35471696853638 L 68.4 74.1 L 63.9 88.5 L 59.7 101.4 L 56.0 112.9 L 52.7 122.9 L 49.9 131.6 L 47.6 138.8 L 45.7 144.6 L 44.4 149.0 L 43.73851299285889 151.83494424819946 L 44.3 152.8 L 46.7 159.1 L 48.3 165.9 L 49.1 173.4 L 49.2 181.4 L 47.0 185.5 L 42.7 186.9 L 38.7 184.8 L 37.2 180.5 L 37.8 173.5 L 37.7 167.2 L 37.0 161.5 L 35.7 156.3 L 33.9 151.7 L 31.4 147.5 L 28.3 143.7 L 24.4 140.2 L 19.7 137.0 L 14.2 134.1 L 14.6 132.3 L 21.1 133.5 L 27.1 135.6 L 32.5 138.7 L 35.550239372253415 141.23104972839354 L 35.7 140.9 L 38.1 135.3 L 41.2 128.3 L 44.7 120.0 L 48.8 110.2 L 53.5 99.1 L 58.9 86.6 L 64.9 72.8 L 65.3852972984314 71.6990270614624 L 63.8 68.0 L 65.4 63.7 L 67.8 61.6 L 70.1 59.2 L 72.2 56.7 L 74.2 53.9 L 76.1 50.8 L 77.9 47.5 L 79.5 44.0 L 81.0 40.1 L 82.5 36.1 L 83.6 31.7 L 85.4 31.9 L 85.59347829818725 40.8 L 120.0 40.8 L 120.0 13.4 L 132.0 15.4 L 135.0 17.4 L 132.0 19.2 L 132.0 40.8 L 170.8 40.8 L 171.4181818008423 40.28484849929809 L 171.6 39.8 L 171.83636360168458 39.93636360168457 L 176.8 35.8 L 187.8 44.8 L 182.8 47.8 L 179.1310344696045 49.32873563766479 L 178.5 50.1 L 176.6 52.3 L 174.6 54.5 L 172.5 56.8 L 170.4 59.0 L 168.0 61.3 L 166.40366973876954 62.76330270767212 L 170.0 66.0 L 170.0 70.0 L 117.6151515007019 70.0 L 114.9 76.4 L 111.5 82.9 L 108.4307692527771 88.01538457870484 L 108.6 88.1 L 158.7 88.1 L 164.7 83.1 L 175.7 92.1 L 170.7 96.1 L 170.7 158.8 L 158.7 164.8 L 158.7 158.8 L 108.6 158.8 L 96.6 164.8 L 96.6 103.6241379737854 L 92.0 108.7 L 85.6 115.1 L 78.6 121.4 L 70.9 127.6 L 62.5 133.6 L 61.4 132.3 L 68.4 124.8 L 74.9 117.6 L 80.9 110.6 L 86.3 103.8 L 91.1 97.1 L 95.3 90.6 L 96.6 88.325 L 96.6 82.1 L 99.3146496772766 83.45732488632203 L 102.0 78.0 L 104.4 72.0 L 105.0 70.0 L 85.0 70.0 L 85.0 66.0 L 151.8181818008423 66.0 L 160.0 57.0 L 162.9495192527771 59.654567337036134 L 163.7 58.1 L 165.0 55.2 L 166.3 52.5 L 167.5 49.8 L 168.6 47.2 L 169.65600004196168 44.8 L 85.26363639831543 44.8 L 85.2 45.5 L 84.5 49.7 L 83.5 53.8 L 82.2 57.8 L 80.6 61.6 L 78.7 65.3 L 76.5 68.8 L 74.0 72.1 L 69.8 73.8 Z M 108.6 136.4 L 108.6 154.8 L 158.7 154.8 L 158.7 136.4 Z M 108.6 112.8 L 108.6 132.4 L 158.7 132.4 L 158.7 112.8 Z M 108.6 92.1 L 108.6 108.8 L 158.7 108.8 L 158.7 92.1 Z M 33.3 85.6 L 31.7 83.5 L 29.9 81.5 L 27.8 79.4 L 25.3 77.3 L 22.6 75.2 L 19.5 73.1 L 16.2 71.0 L 12.5 69.1 L 13.0 67.4 L 17.2 68.3 L 21.2 69.1 L 25.0 70.2 L 28.6 71.5 L 32.0 72.9 L 35.1 74.6 L 38.1 76.4 L 40.8 78.4 L 43.3 80.7 L 45.5 83.2 L 46.3 87.7 L 43.8 91.5 L 39.2 92.2 L 35.5 89.7 L 34.5 87.7 Z M 50.0 37.9 L 48.5 35.9 L 46.8 33.9 L 44.7 31.9 L 42.4 29.7 L 39.6 27.6 L 36.6 25.4 L 33.4 23.1 L 29.6 21.1 L 30.3 19.5 L 34.4 20.6 L 38.5 21.5 L 42.2 22.7 L 45.7 24.0 L 49.0 25.5 L 52.1 27.1 L 54.9 28.8 L 57.5 30.8 L 59.9 32.9 L 62.0 35.2 L 62.7 39.7 L 60.1 43.5 L 55.6 44.2 L 51.9 41.6 L 51.1 39.8 Z " />
</g>
</svg>
