<svg xmlns="http://www.w3.org/2000/svg" xmlns:xlink="http://www.w3.org/1999/xlink" version="1.1" baseProfile="full" viewBox="0 0 200 200" width="200" height="200">
<g fill="black">
<path d="M 98.5 17.5 L 100.8 20.3 L 97.29853458404541 21.23789253234863 L 94.9 28.7 L 91.2 39.5 L 87.2 50.2 L 83.1 60.6 L 78.8 70.7 L 77.71724138259887 73.13620691299438 L 82.9 74.0 L 85.9 76.0 L 82.9 77.8 L 82.9 183.0 L 70.9 189.0 L 70.9 87.82340421676636 L 69.7 90.3 L 64.7 99.7 L 59.5 108.7 L 53.9 117.4 L 52.3 116.5 L 56.1 107.0 L 59.9 97.4 L 63.6 87.6 L 67.3 77.7 L 70.9 67.6 L 74.4 57.4 L 77.7 46.9 L 80.9 36.2 L 84.0 25.4 L 86.66174688339234 15.211934280395507 L 86.6 15.2 L 87.4 12.6 Z M 38.3 186.9 L 34.2 184.9 L 32.7 180.6 L 33.2 173.5 L 33.2 167.1 L 32.6 161.3 L 31.6 156.1 L 30.1 151.4 L 28.1 147.3 L 25.6 143.5 L 22.5 140.1 L 18.8 137.0 L 14.3 134.1 L 14.8 132.4 L 20.4 133.6 L 25.6 135.8 L 30.2 138.9 L 31.766292095184326 140.38988761901857 L 33.6 135.5 L 36.2 128.6 L 39.2 120.2 L 42.8 110.4 L 46.8 99.3 L 51.4 86.7 L 56.6 72.9 L 62.4 57.7 L 64.1 58.2 L 60.2 74.0 L 56.5 88.4 L 53.1 101.2 L 50.0 112.7 L 47.3 122.7 L 45.0 131.3 L 43.2 138.6 L 41.7 144.4 L 40.7 148.8 L 40.0 151.7 L 39.66174650192261 151.59615020751954 L 40.4 153.1 L 42.5 159.3 L 43.8 166.0 L 44.6 173.4 L 44.6 181.3 L 42.6 185.4 Z M 132.9 150.7 L 134.9 153.7 L 130.88776597976684 154.33351068496705 L 129.0 157.3 L 126.9 160.5 L 124.5 163.6 L 122.0 166.7 L 119.3 169.7 L 116.4 172.7 L 113.2 175.5 L 109.9 178.2 L 106.5 180.9 L 105.2 179.7 L 107.6 176.1 L 109.7 172.5 L 111.7 169.0 L 113.6 165.6 L 115.4 162.3 L 117.0 159.0 L 118.4 155.7 L 119.7 152.5 L 120.8 149.3 L 121.49961786270141 147.13118467330932 L 121.4 147.1 L 122.3 144.9 Z M 169.1 169.6 L 168.0 166.9 L 166.8 164.1 L 165.4 161.4 L 163.8 158.7 L 162.1 156.0 L 160.3 153.3 L 158.3 150.6 L 155.9 148.1 L 157.0 146.6 L 160.0 148.5 L 163.2 150.2 L 166.1 152.2 L 168.9 154.3 L 171.5 156.7 L 173.9 159.2 L 176.2 161.9 L 178.3 164.7 L 180.2 167.7 L 182.0 170.8 L 181.8 175.4 L 178.6 178.6 L 174.0 178.5 L 170.8 175.2 L 170.0 172.4 Z M 168.6 112.0 L 168.6 116.0 L 120.3 116.0 L 120.3 112.0 L 150.4181818008423 112.0 L 158.6 103.0 Z M 161.1 102.1 L 154.1 98.0 L 147.8 93.3 L 144.37215881347657 90.11270904541016 L 138.7 94.2 L 131.5 98.4 L 123.6 101.9 L 115.3 104.6 L 107.0 106.37191009521484 L 107.0 134.3 L 161.0 134.3 L 171.0 124.3 L 183.0 134.3 L 183.0 138.3 L 150.5 138.3 L 150.5 169.5 L 150.3 172.1 L 149.9 174.6 L 149.1 177.0 L 147.8 179.3 L 146.2 181.3 L 144.2 182.9 L 141.9 184.2 L 139.5 185.0 L 137.0 185.4 L 134.5 185.5 L 134.5 179.5 L 120.5 176.5 L 120.5 173.5 L 135.7 173.5 L 136.6 173.3 L 137.2 173.1 L 137.5 172.9 L 137.7 172.8 L 137.9 172.6 L 138.2 171.7 L 138.4 170.8 L 138.5 169.5 L 138.5 138.3 L 107.0 138.3 L 107.0 152.0 L 95.0 158.0 L 95.0 51.0 L 107.0 53.0 L 110.0 55.0 L 107.0 56.8 L 107.0 104.19125003814698 L 113.9 101.0 L 121.3 97.0 L 128.1 92.8 L 134.3 88.1 L 138.7210757255554 84.00045700073242 L 137.2 82.2 L 133.0 76.0 L 129.5 69.2 L 126.9 62.0 L 125.37662334442139 55.1 L 114.6 55.1 L 114.6 51.1 L 138.5 51.1 L 138.5 36.2 L 106.6 36.2 L 106.6 32.2 L 138.5 32.2 L 138.5 14.3 L 150.5 16.3 L 153.5 18.3 L 150.5 20.1 L 150.5 32.2 L 160.3 32.2 L 170.3 22.2 L 182.3 32.2 L 182.3 36.2 L 150.5 36.2 L 150.5 51.1 L 158.9 51.1 L 164.9 46.1 L 175.9 55.1 L 170.9 58.1 L 168.71176471710206 59.011764717102054 L 166.7 63.3 L 162.3 70.7 L 157.3 77.6 L 151.87838220596313 83.60250539779663 L 153.9 85.1 L 159.8 88.5 L 166.2 91.5 L 173.1 94.0 L 180.5 96.1 L 188.6 98.4 L 176.9 108.8 L 168.7 105.8 Z M 29.4 85.2 L 28.2 83.2 L 26.8 81.2 L 25.1 79.1 L 23.2 77.1 L 21.0 75.0 L 18.6 73.0 L 15.9 70.9 L 12.8 69.2 L 13.5 67.5 L 17.0 68.5 L 20.5 69.3 L 23.8 70.4 L 26.9 71.7 L 29.8 73.1 L 32.5 74.8 L 35.1 76.7 L 37.5 78.7 L 39.6 81.0 L 41.6 83.5 L 42.0 88.0 L 39.2 91.6 L 34.6 92.0 L 31.1 89.2 L 30.3 87.2 Z M 130.7 60.3 L 134.6 66.3 L 138.9 71.8 L 143.5 76.7 L 144.62626266479492 77.69111108779907 L 144.8 77.5 L 149.3 71.6 L 153.1 65.2 L 156.5 58.3 L 157.72739725112916 55.1 L 127.66000003814698 55.1 Z M 43.5 37.5 L 42.4 35.6 L 41.0 33.6 L 39.4 31.6 L 37.5 29.5 L 35.4 27.4 L 33.0 25.3 L 30.4 23.1 L 27.3 21.2 L 28.0 19.5 L 31.5 20.8 L 35.0 21.7 L 38.2 22.9 L 41.3 24.2 L 44.1 25.7 L 46.8 27.3 L 49.3 29.1 L 51.5 31.1 L 53.6 33.2 L 55.5 35.5 L 55.8 40.0 L 53.0 43.6 L 48.4 44.0 L 44.9 41.1 L 44.3 39.3 Z " />
</g>
</svg>
