<svg xmlns="http://www.w3.org/2000/svg" xmlns:xlink="http://www.w3.org/1999/xlink" version="1.1" baseProfile="full" viewBox="0 0 200 200" width="200" height="200">
<g fill="black">
<path d="M 166.2 114.5 L 160.3 108.3 L 154.90414428710938 101.6051420211792 L 151.5 103.7 L 150.10145769119262 104.48454809188843 L 162.0 114.4 L 162.0 118.4 L 131.09823007583617 118.4 L 130.1 127.8 L 127.6 138.3 L 126.5979166984558 140.9 L 158.4 140.9 L 168.4 130.9 L 180.4 140.9 L 180.4 144.9 L 127.4346939086914 144.9 L 130.6 148.2 L 135.2 152.7 L 139.9 156.8 L 144.7 160.6 L 149.8 164.0 L 155.1 167.0 L 160.6 169.6 L 166.3 171.9 L 172.3 173.8 L 178.7 175.3 L 187.0 177.5 L 175.3 188.1 L 168.4 185.6 L 161.8 182.8 L 155.5 179.5 L 149.7 175.7 L 144.3 171.5 L 139.3 166.9 L 134.7 161.9 L 130.7 156.5 L 127.2 150.6 L 124.89232597351074 145.32531642913818 L 123.9 147.9 L 118.9 156.6 L 112.7 164.4 L 105.4 171.1 L 96.9 176.9 L 87.3 181.7 L 76.7 185.4 L 65.0 188.0 L 64.6 186.2 L 75.4 181.8 L 85.0 176.9 L 93.3 171.4 L 100.4 165.4 L 106.3 158.9 L 111.0 151.7 L 114.22564105987549 144.9 L 67.5 144.9 L 67.5 140.9 L 115.61764707565308 140.9 L 117.3 135.4 L 118.8 126.2 L 119.11836738586426 118.4 L 85.9 118.4 L 85.9 114.4 L 140.0 114.4 L 149.6777777671814 104.72222223281861 L 147.4 106.0 L 143.0 108.3 L 138.5 110.7 L 137.4 109.2 L 141.1 105.7 L 144.5 102.2 L 150.93140497207642 95.76859502792358 L 150.0 94.4 L 145.5 86.7 L 141.6 78.5 L 140.61162786483766 76.0 L 108.71709403991699 76.0 L 104.3 83.6 L 97.07621955871582 93.8258710861206 L 97.6 94.2 L 100.3 96.4 L 102.8 98.7 L 105.1 101.0 L 106.1 105.5 L 103.7 109.4 L 99.2 110.4 L 95.3 108.0 L 94.1 105.8 L 92.6 103.5 L 90.9 101.1 L 90.88831367492676 101.08523836135865 L 88.1 104.3 L 78.7 113.2 L 68.5 121.0 L 57.4 127.7 L 56.5 126.2 L 66.2 118.0 L 75.1 109.3 L 83.2 100.0 L 86.29799909591675 95.75616569519043 L 84.4 93.7 L 81.7 91.2 L 78.9 88.6 L 75.8 85.8 L 72.4 83.2 L 73.3 81.6 L 77.3 83.3 L 81.2 84.8 L 84.9 86.5 L 88.4 88.3 L 90.7209400177002 89.63629875183105 L 97.0 79.3 L 98.66434783935547 76.0 L 69.78297872543335 76.0 L 67.6 81.4 L 62.4 94.1 L 57.6 105.6 L 53.3 115.9 L 49.7 125.0 L 46.6 132.8 L 44.1 139.4 L 42.3 144.8 L 41.1 148.9 L 40.5 151.5 L 40.13542242050171 151.4017225265503 L 41.0 153.1 L 43.1 159.3 L 44.4 166.1 L 45.1 173.5 L 45.1 181.4 L 42.9 185.5 L 38.6 186.9 L 34.6 184.8 L 33.1 180.5 L 33.7 173.5 L 33.7 167.1 L 33.2 161.3 L 32.2 156.1 L 30.7 151.5 L 29.173366832733155 148.4467336654663 L 29.0 148.4 L 29.06774196624756 148.23548383712767 L 28.6 147.3 L 26.0 143.6 L 22.7 140.2 L 18.8 137.0 L 14.1 134.1 L 14.7 132.4 L 20.4 133.6 L 25.8 135.7 L 30.5 138.8 L 32.39552974700928 140.60526638031007 L 34.9 135.5 L 38.1 129.0 L 42.0 121.4 L 46.5 112.7 L 51.6 102.8 L 57.5 91.8 L 64.2 79.7 L 66.31832065582276 76.0 L 65.0 76.0 L 65.0 72.0 L 68.6083969116211 72.0 L 71.7 66.6 L 73.3 67.3 L 71.4 72.0 L 100.68173913955688 72.0 L 102.8 67.8 L 107.7 55.5 L 108.8307692527771 52.0 L 85.0 52.0 L 85.0 48.0 L 110.12307691574097 48.0 L 111.9 42.5 L 115.3 28.6 L 117.7391450881958 14.9032621383667 L 117.7 14.9 L 118.2 12.0 L 129.7 15.9 L 132.3 18.4 L 128.87336502075195 19.732580280303956 L 126.4 31.2 L 122.1 45.6 L 121.21764707565308 48.0 L 141.0 48.0 L 151.0 38.0 L 163.0 48.0 L 163.0 52.0 L 135.7758620262146 52.0 L 139.3 59.3 L 143.6 67.5 L 146.1714285850525 72.0 L 164.0 72.0 L 174.0 62.0 L 186.0 72.0 L 186.0 76.0 L 148.5222222328186 76.0 L 152.7 82.4 L 157.58710098266602 88.98262586593628 L 159.4 87.1 L 161.8 84.4 L 164.0 81.9 L 165.38341970443724 80.17072534561157 L 165.3 80.1 L 166.3 79.1 L 174.5 87.9 L 175.2 91.4 L 171.2374698638916 90.42674694061279 L 168.9 92.2 L 165.8 94.5 L 163.63093528747558 95.94604320526123 L 168.3 100.7 L 174.1 105.8 L 180.1 110.3 L 186.5 114.4 L 190.4 116.9 L 179.4 125.5 L 172.5 120.3 Z M 33.5 83.5 L 32.1 81.5 L 30.3 79.4 L 28.2 77.4 L 25.7 75.3 L 22.9 73.2 L 19.8 71.1 L 16.4 68.9 L 12.5 67.1 L 13.0 65.4 L 17.3 66.3 L 21.5 67.1 L 25.4 68.2 L 29.0 69.4 L 32.4 70.9 L 35.6 72.5 L 38.5 74.4 L 41.2 76.5 L 43.6 78.8 L 45.8 81.3 L 46.4 85.9 L 43.6 89.5 L 39.1 90.1 L 35.4 87.4 L 34.6 85.5 Z M 119.7470588684082 52.0 L 117.1 59.2 L 111.1 71.9 L 111.04188032150269 72.0 L 139.03023252487182 72.0 L 138.2 69.9 L 135.4 60.8 L 133.5666666984558 52.0 Z M 107.7 21.8 L 109.3 25.0 L 105.47319583892822 25.065979385375975 L 104.7 26.2 L 101.6 30.4 L 98.3 34.4 L 94.9 38.3 L 91.3 42.0 L 87.5 45.4 L 83.5 48.7 L 79.4 51.7 L 75.1 54.3 L 70.5 56.7 L 69.4 55.2 L 72.7 51.4 L 75.9 47.7 L 79.0 44.0 L 82.0 40.2 L 84.9 36.4 L 87.6 32.5 L 90.2 28.5 L 92.7 24.4 L 95.0 20.2 L 96.77330827713013 16.73398838043213 L 96.7 16.7 L 97.8 14.9 Z M 164.3 43.0 L 162.6 39.7 L 160.7 36.5 L 158.6 33.3 L 156.3 30.3 L 153.9 27.2 L 151.2 24.2 L 148.4 21.1 L 145.3 18.2 L 146.3 16.7 L 154.1 20.5 L 157.8 22.7 L 161.3 25.2 L 164.6 28.0 L 167.7 30.9 L 170.6 34.1 L 173.3 37.4 L 175.8 40.9 L 178.1 44.7 L 178.3 49.2 L 175.2 52.7 L 170.7 52.8 L 167.2 49.8 L 165.9 46.4 Z M 48.0 37.6 L 46.5 35.5 L 44.7 33.4 L 42.7 31.3 L 40.3 29.3 L 37.7 27.2 L 34.8 25.1 L 31.6 22.9 L 28.0 21.1 L 28.6 19.4 L 32.6 20.4 L 36.5 21.2 L 40.2 22.2 L 43.7 23.5 L 47.0 25.0 L 50.1 26.6 L 52.9 28.4 L 55.6 30.5 L 58.1 32.7 L 60.3 35.2 L 61.1 39.7 L 58.5 43.5 L 54.0 44.2 L 50.2 41.7 L 49.2 39.6 Z " />
</g>
</svg>
