<svg xmlns="http://www.w3.org/2000/svg" xmlns:xlink="http://www.w3.org/1999/xlink" version="1.1" baseProfile="full" viewBox="0 0 200 200" width="200" height="200">
<g fill="black">
<path d="M 163.8 88.8 L 165.8 91.9 L 161.2644549369812 92.44739332199097 L 161.0 92.8 L 159.3 95.0 L 157.5 97.2 L 155.5 99.6 L 153.4 102.1 L 151.1 104.6 L 148.6 107.3 L 145.9 110.0 L 145.4666666984558 110.5 L 167.2 110.5 L 177.2 100.5 L 189.2 110.5 L 189.2 114.5 L 136.5 114.5 L 136.5 134.2 L 155.51818180084229 134.2 L 163.7 125.2 L 173.7 134.2 L 173.7 138.2 L 136.5 138.2 L 136.5 157.3 L 161.8 157.3 L 171.8 147.3 L 183.8 157.3 L 183.8 161.3 L 136.5 161.3 L 136.5 181.5 L 124.5 187.5 L 124.5 161.3 L 79.2 161.3 L 79.2 157.3 L 124.5 157.3 L 124.5 138.2 L 87.9 138.2 L 87.9 134.2 L 124.5 134.2 L 124.5 114.5 L 74.4 114.5 L 74.4 110.5 L 142.6714285850525 110.5 L 143.7 108.5 L 145.2 105.0 L 146.5 101.7 L 147.8 98.6 L 149.0 95.7 L 150.1 92.9 L 151.0 90.4 L 151.8 88.0 L 152.4 85.8 L 152.649254322052 84.85283336639404 L 152.5 84.8 L 152.86470584869386 84.03411760330201 L 152.9 83.9 L 152.92353363037108 83.91057929992675 L 153.5 82.7 Z M 40.5 186.9 L 36.4 184.8 L 35.0 180.5 L 35.6 173.5 L 35.6 167.1 L 35.1 161.3 L 34.1 156.1 L 32.7 151.4 L 31.272405338287353 148.47343101501465 L 31.0 148.4 L 31.105699920654295 148.13168487548828 L 30.7 147.3 L 28.2 143.5 L 25.0 140.1 L 21.3 137.0 L 16.8 134.1 L 17.3 132.4 L 22.9 133.6 L 28.1 135.8 L 32.8 138.9 L 34.40255184173584 140.46248807907105 L 36.7 135.5 L 39.9 129.1 L 43.6 121.5 L 48.0 112.8 L 53.0 102.9 L 58.7 91.9 L 65.2 79.8 L 72.5 66.6 L 74.1 67.3 L 68.7 81.4 L 63.6 94.1 L 59.0 105.6 L 54.9 115.9 L 51.4 124.9 L 48.4 132.7 L 46.0 139.4 L 44.2 144.7 L 43.1 148.8 L 42.5 151.5 L 42.13542242050171 151.4017225265503 L 43.0 153.1 L 45.0 159.3 L 46.3 166.1 L 46.9 173.5 L 46.9 181.4 L 44.8 185.5 Z M 108.5 101.8 L 108.1 99.8 L 107.5 97.8 L 106.8 95.8 L 106.0 93.7 L 105.0 91.6 L 103.9 89.5 L 102.7 87.3 L 100.9 85.4 L 102.1 84.0 L 104.2 85.5 L 106.6 86.8 L 108.8 88.3 L 110.9 89.9 L 112.9 91.7 L 114.7 93.5 L 116.4 95.6 L 117.9 97.7 L 119.3 100.0 L 120.5 102.4 L 120.0 106.9 L 116.4 109.8 L 111.9 109.3 L 109.0 105.7 L 108.8 103.8 Z M 35.4 83.4 L 34.0 81.4 L 32.3 79.4 L 30.3 77.3 L 27.9 75.3 L 25.2 73.2 L 22.2 71.1 L 18.9 68.9 L 15.2 67.1 L 15.7 65.4 L 19.9 66.4 L 23.9 67.2 L 27.7 68.2 L 31.3 69.5 L 34.6 70.9 L 37.7 72.6 L 40.5 74.4 L 43.2 76.5 L 45.5 78.8 L 47.6 81.4 L 48.1 85.9 L 45.4 89.6 L 40.8 90.1 L 37.2 87.3 L 36.4 85.4 Z M 81.9 78.6 L 125.8 78.6 L 125.8 63.0 L 137.8 65.0 L 140.8 67.0 L 137.8 68.8 L 137.8 78.6 L 159.8 78.6 L 169.8 68.6 L 181.8 78.6 L 181.8 82.6 L 81.9 82.6 Z M 89.9 62.3 L 77.9 68.3 L 77.9 15.3 L 89.9 21.3 L 171.0 21.3 L 177.0 16.3 L 188.0 25.3 L 183.0 29.3 L 183.0 61.3 L 171.0 67.3 L 171.0 59.3 L 89.9 59.3 Z M 89.9 25.3 L 89.9 55.3 L 108.9 55.3 L 108.9 25.3 Z M 120.9 25.3 L 120.9 55.3 L 140.0 55.3 L 140.0 25.3 Z M 152.0 25.3 L 152.0 55.3 L 171.0 55.3 L 171.0 25.3 Z M 49.4 37.5 L 48.0 35.4 L 46.3 33.4 L 44.3 31.3 L 42.1 29.2 L 39.6 27.2 L 36.8 25.1 L 33.7 22.9 L 30.2 21.1 L 30.8 19.4 L 34.7 20.4 L 38.5 21.2 L 42.1 22.3 L 45.5 23.5 L 48.7 25.0 L 51.7 26.6 L 54.5 28.5 L 57.1 30.5 L 59.5 32.8 L 61.7 35.2 L 62.4 39.7 L 59.8 43.5 L 55.3 44.2 L 51.5 41.6 L 50.6 39.6 Z " />
</g>
</svg>
