<svg xmlns="http://www.w3.org/2000/svg" xmlns:xlink="http://www.w3.org/1999/xlink" version="1.1" baseProfile="full" viewBox="0 0 200 200" width="200" height="200">
<g fill="black">
<path d="M 89.5 103.6 L 156.4 103.6 L 162.4 98.6 L 173.4 107.6 L 168.4 111.6 L 168.4 181.3 L 156.4 187.3 L 156.4 179.3 L 89.5 179.3 L 89.5 182.3 L 77.5 188.3 L 77.5 97.6 Z M 34.7 186.9 L 30.6 184.9 L 29.1 180.6 L 29.7 173.5 L 29.7 167.0 L 29.4 161.2 L 28.5 155.9 L 27.2 151.3 L 26.16969699859619 148.7545454978943 L 25.5 148.6 L 25.799458026885986 147.8398373603821 L 25.5 147.1 L 23.3 143.4 L 20.7 140.1 L 17.4 137.0 L 13.5 134.1 L 14.1 132.4 L 19.3 133.7 L 24.0 135.9 L 28.2 139.0 L 28.994966983795166 139.859423828125 L 30.8 135.7 L 33.6 129.2 L 37.0 121.6 L 40.9 112.9 L 45.5 103.0 L 50.7 92.0 L 56.6 79.8 L 63.2 66.6 L 64.8 67.3 L 60.1 81.3 L 55.6 94.0 L 51.6 105.5 L 48.0 115.7 L 44.9 124.8 L 42.3 132.6 L 40.2 139.2 L 38.6 144.5 L 37.6 148.6 L 37.2 151.3 L 36.451943969726564 151.12737169265748 L 37.4 153.3 L 39.2 159.4 L 40.4 166.1 L 41.1 173.5 L 41.1 181.4 L 39.0 185.4 Z M 89.5 154.4 L 89.5 175.3 L 156.4 175.3 L 156.4 154.4 Z M 89.5 131.0 L 89.5 150.4 L 156.4 150.4 L 156.4 131.0 Z M 89.5 107.6 L 89.5 127.0 L 156.4 127.0 L 156.4 107.6 Z M 110.2 68.9 L 109.2 66.5 L 108.0 64.2 L 106.6 62.0 L 105.1 59.8 L 103.4 57.5 L 101.9 55.76315793991089 L 101.9 93.0 L 89.9 99.0 L 89.9 62.922857189178465 L 87.5 66.9 L 83.8 72.3 L 79.8 77.3 L 75.5 81.8 L 70.9 86.0 L 66.0 89.6 L 60.7 92.7 L 59.6 91.2 L 63.4 86.8 L 67.1 82.2 L 70.5 77.6 L 73.7 72.7 L 76.7 67.6 L 79.4 62.3 L 81.9 56.7 L 84.2 50.8 L 86.2 44.7 L 86.94680852890015 42.0 L 63.1 42.0 L 63.1 38.0 L 89.9 38.0 L 89.9 13.0 L 101.9 15.0 L 104.9 17.0 L 101.9 18.8 L 101.9 38.0 L 104.01818180084229 38.0 L 112.2 29.0 L 122.2 38.0 L 122.2 42.0 L 101.9 42.0 L 101.9 51.26666669845581 L 103.9 52.0 L 106.8 53.4 L 109.5 55.0 L 112.1 56.8 L 114.5 58.8 L 116.8 61.0 L 119.0 63.4 L 121.0 66.0 L 122.8 68.7 L 122.9 73.3 L 119.8 76.7 L 115.2 76.8 L 111.9 73.7 L 111.1 71.3 Z M 169.8 83.0 L 166.5 78.7 L 163.5 74.1 L 160.7 69.2 L 158.2 64.1 L 156.0 58.8 L 156.0 93.0 L 144.0 99.0 L 144.0 62.75714282989502 L 141.5 66.9 L 137.8 72.3 L 133.8 77.3 L 129.5 81.8 L 124.9 86.0 L 120.0 89.6 L 114.7 92.7 L 113.6 91.2 L 117.5 86.8 L 121.1 82.2 L 124.5 77.6 L 127.7 72.7 L 130.7 67.6 L 133.4 62.3 L 135.9 56.7 L 138.2 50.8 L 140.2 44.7 L 140.94680852890014 42.0 L 123.7 42.0 L 123.7 38.0 L 144.0 38.0 L 144.0 13.0 L 156.0 15.0 L 159.0 17.0 L 156.0 18.8 L 156.0 38.0 L 160.8 38.0 L 170.8 28.0 L 182.8 38.0 L 182.8 42.0 L 156.0 42.0 L 156.0 44.9875 L 156.5 45.8 L 159.5 50.8 L 162.5 55.5 L 165.5 60.0 L 168.6 64.2 L 171.8 68.1 L 175.1 71.7 L 178.5 75.0 L 182.0 78.1 L 185.6 80.9 L 187.9 82.9 L 177.1 91.0 L 173.3 87.1 Z M 29.5 83.1 L 28.4 81.2 L 27.0 79.2 L 25.2 77.2 L 23.2 75.1 L 20.9 73.1 L 18.3 71.0 L 15.4 68.9 L 12.1 67.1 L 12.7 65.4 L 16.4 66.5 L 20.1 67.3 L 23.5 68.3 L 26.8 69.6 L 29.8 71.1 L 32.6 72.7 L 35.2 74.6 L 37.6 76.7 L 39.8 79.0 L 41.7 81.6 L 42.0 86.1 L 39.1 89.6 L 34.5 89.9 L 31.0 87.0 L 30.4 85.1 Z M 42.1 37.2 L 40.9 35.2 L 39.4 33.2 L 37.8 31.1 L 33.7 27.0 L 31.3 25.0 L 28.6 22.9 L 25.6 21.2 L 26.2 19.5 L 29.7 20.5 L 33.1 21.3 L 36.4 22.4 L 39.5 23.7 L 42.4 25.1 L 45.2 26.8 L 47.7 28.7 L 50.1 30.7 L 52.3 33.0 L 54.3 35.4 L 54.8 40.0 L 52.0 43.6 L 47.4 44.0 L 43.8 41.3 L 43.1 39.2 Z " />
</g>
</svg>
