<svg xmlns="http://www.w3.org/2000/svg" xmlns:xlink="http://www.w3.org/1999/xlink" version="1.1" baseProfile="full" viewBox="0 0 200 200" width="200" height="200">
<g fill="black">
<path d="M 156.9 177.7 L 151.7 174.3 L 146.8 170.7 L 142.3 166.8 L 138.0 162.7 L 134.1 158.3 L 130.6 153.6 L 129.5 151.76666669845582 L 129.5 181.9 L 117.5 187.9 L 117.5 154.63658533096313 L 116.6 155.8 L 112.1 160.8 L 107.3 165.4 L 102.1 169.7 L 96.7 173.5 L 90.8 177.1 L 84.7 180.1 L 78.2 182.7 L 71.4 184.8 L 70.7 183.2 L 76.5 179.3 L 82.0 175.5 L 87.2 171.6 L 92.1 167.5 L 96.6 163.3 L 100.7 158.8 L 104.5 154.2 L 108.0 149.3 L 111.2 144.3 L 111.4 143.9 L 72.2 143.9 L 72.2 139.9 L 117.5 139.9 L 117.5 109.1 L 129.5 111.1 L 132.5 113.1 L 129.5 114.9 L 129.5 139.9 L 134.490625 139.9 L 135.5 138.2 L 137.0 134.9 L 138.4 131.9 L 139.7 129.0 L 141.0 126.2 L 142.1 123.6 L 143.1 121.2 L 144.0 118.9 L 144.8 116.7 L 145.11764707565308 115.69411764144897 L 144.9 115.6 L 145.9 113.7 L 156.0 120.4 L 157.7 123.5 L 153.2769783973694 123.7287769317627 L 152.9 124.2 L 151.2 126.2 L 149.3 128.3 L 147.3 130.5 L 142.8 135.0 L 140.3 137.4 L 137.6 139.8 L 137.5037036895752 139.9 L 152.7 139.9 L 162.7 129.9 L 174.7 139.9 L 174.7 143.9 L 129.5 143.9 L 129.5 144.76279067993164 L 130.9 146.0 L 135.0 149.7 L 139.2 153.2 L 143.6 156.4 L 148.0 159.5 L 152.6 162.3 L 157.4 164.9 L 162.4 167.2 L 167.5 169.4 L 172.9 171.3 L 179.5 173.9 L 168.0 183.6 L 162.3 180.8 Z M 39.5 186.9 L 35.4 184.9 L 33.9 180.5 L 34.5 173.5 L 34.4 167.1 L 33.8 161.4 L 32.7 156.2 L 31.1 151.5 L 29.0 147.4 L 26.2 143.6 L 22.8 140.2 L 18.8 137.0 L 13.9 134.1 L 14.5 132.4 L 20.4 133.6 L 25.8 135.7 L 30.7 138.8 L 32.74454326629639 140.65435314178467 L 34.9 135.5 L 37.6 128.5 L 40.8 120.1 L 44.6 110.3 L 48.8 99.2 L 53.7 86.7 L 59.2 72.8 L 65.3 57.7 L 67.0 58.2 L 62.8 74.1 L 58.8 88.4 L 55.1 101.3 L 51.8 112.8 L 48.9 122.8 L 46.4 131.4 L 44.4 138.6 L 42.8 144.5 L 41.7 148.9 L 41.0 151.9 L 40.902393436431886 151.86660833358764 L 41.5 153.0 L 43.6 159.2 L 45.1 166.0 L 45.8 173.4 L 45.9 181.4 L 43.8 185.4 Z M 168.8 126.7 L 165.2 123.2 L 161.7 119.6 L 158.2 115.8 L 154.9 111.8 L 151.7 107.7 L 148.6 103.3 L 145.8 98.7 L 143.2 93.8 L 143.4333333015442 93.6 L 111.16486482620239 93.6 L 108.8 97.1 L 103.4 104.2 L 97.6 111.0 L 92.24659643173217 116.52609395980835 L 94.7 117.9 L 97.3 118.9 L 99.7 120.0 L 101.9 121.2 L 104.1 122.5 L 106.0 123.8 L 107.9 125.2 L 109.6 126.7 L 111.1 128.4 L 112.5 130.1 L 112.7 134.7 L 109.7 138.1 L 105.1 138.2 L 101.7 135.2 L 101.5 133.9 L 101.1 132.5 L 100.6 131.0 L 99.9 129.3 L 98.9 127.6 L 97.8 125.7 L 96.5 123.8 L 95.0 121.8 L 93.4 119.7 L 91.2 118.0 L 92.04137935638428 116.73793106079101 L 91.4 117.4 L 84.7 123.4 L 77.7 129.1 L 70.2 134.3 L 62.2 138.9 L 61.2 137.5 L 67.8 131.3 L 74.2 125.0 L 80.2 118.7 L 85.8 112.2 L 91.1 105.6 L 95.9 98.7 L 99.13239440917968 93.6 L 63.2 93.6 L 63.2 89.6 L 101.55068492889404 89.6 L 104.6 84.3 L 108.3 76.7 L 111.30666408538818 69.80235891342163 L 111.3 69.8 L 111.42857141494751 69.5 L 92.5 69.5 L 92.5 76.5 L 80.5 82.5 L 80.5 18.8 L 92.5 24.8 L 153.6 24.8 L 159.6 19.8 L 170.6 28.8 L 165.6 32.8 L 165.6 73.5 L 153.6 79.5 L 153.6 69.5 L 115.26885242462158 69.5 L 122.6 73.8 L 124.6 76.8 L 120.80708446502686 77.25776567459107 L 118.4 81.9 L 113.85897436141968 89.6 L 161.0 89.6 L 171.0 79.6 L 183.0 89.6 L 183.0 93.6 L 145.86470584869386 93.6 L 148.9 96.0 L 153.0 99.4 L 157.0 102.7 L 160.8 106.0 L 164.7 109.0 L 168.5 112.0 L 172.3 114.8 L 176.1 117.4 L 180.0 119.9 L 183.8 122.2 L 187.3 124.6 L 176.3 133.1 L 172.5 129.9 Z M 30.4 85.3 L 29.1 83.3 L 27.6 81.3 L 25.7 79.2 L 23.6 77.2 L 21.3 75.1 L 18.6 73.0 L 15.7 70.9 L 12.4 69.1 L 13.0 67.4 L 16.7 68.4 L 20.4 69.3 L 23.9 70.3 L 27.2 71.6 L 30.2 73.1 L 33.1 74.7 L 35.8 76.6 L 38.3 78.6 L 40.6 80.9 L 42.7 83.4 L 43.2 87.9 L 40.5 91.5 L 35.9 92.1 L 32.3 89.4 L 31.5 87.4 Z M 92.5 49.2 L 92.5 65.5 L 153.6 65.5 L 153.6 49.2 Z M 92.5 28.8 L 92.5 45.2 L 153.6 45.2 L 153.6 28.8 Z M 45.4 37.6 L 44.2 35.7 L 42.7 33.7 L 41.0 31.7 L 38.9 29.6 L 36.6 27.5 L 34.0 25.3 L 31.1 23.1 L 27.8 21.2 L 28.5 19.5 L 32.2 20.7 L 35.9 21.7 L 39.3 22.8 L 42.5 24.1 L 45.5 25.6 L 48.3 27.2 L 50.9 29.0 L 53.3 30.9 L 55.5 33.1 L 57.4 35.4 L 57.9 39.9 L 55.1 43.6 L 50.6 44.1 L 47.0 41.3 L 46.3 39.5 Z " />
</g>
</svg>
