<svg xmlns="http://www.w3.org/2000/svg" xmlns:xlink="http://www.w3.org/1999/xlink" version="1.1" baseProfile="full" viewBox="0 0 200 200" width="200" height="200">
<g fill="black">
<path d="M 163.8 88.8 L 165.8 91.9 L 161.2644549369812 92.44739332199097 L 161.0 92.8 L 159.3 95.0 L 157.5 97.2 L 155.5 99.6 L 153.4 102.1 L 151.1 104.6 L 148.6 107.3 L 145.9 110.0 L 145.4666666984558 110.5 L 167.2 110.5 L 177.2 100.5 L 189.2 110.5 L 189.2 114.5 L 136.5 114.5 L 136.5 134.2 L 155.51818180084229 134.2 L 163.7 125.2 L 173.7 134.2 L 173.7 138.2 L 136.5 138.2 L 136.5 157.3 L 161.8 157.3 L 171.8 147.3 L 183.8 157.3 L 183.8 161.3 L 136.5 161.3 L 136.5 181.5 L 124.5 187.5 L 124.5 161.3 L 79.2 161.3 L 79.2 157.3 L 124.5 157.3 L 124.5 138.2 L 87.9 138.2 L 87.9 134.2 L 124.5 134.2 L 124.5 114.5 L 74.4 114.5 L 74.4 110.5 L 142.6714285850525 110.5 L 143.7 108.5 L 145.2 105.0 L 146.5 101.7 L 147.8 98.6 L 149.0 95.7 L 150.1 92.9 L 151.0 90.4 L 151.8 88.0 L 152.4 85.8 L 152.649254322052 84.85283336639404 L 152.5 84.8 L 152.86470584869386 84.03411760330201 L 152.9 83.9 L 152.92353363037108 83.91057929992675 L 153.5 82.7 Z M 43.7 186.9 L 39.7 184.8 L 38.2 180.5 L 38.7 173.5 L 38.7 167.2 L 38.0 161.5 L 36.8 156.3 L 35.0 151.7 L 32.6 147.5 L 29.5 143.7 L 25.8 140.2 L 21.2 137.0 L 15.9 134.1 L 16.4 132.4 L 22.7 133.5 L 28.6 135.6 L 33.8 138.7 L 36.61867885589599 141.0897494316101 L 39.1 135.3 L 42.1 128.4 L 45.6 120.0 L 49.6 110.2 L 54.2 99.1 L 59.4 86.6 L 65.3 72.8 L 71.9 57.6 L 73.6 58.3 L 68.9 74.1 L 64.5 88.5 L 60.4 101.4 L 56.7 112.9 L 53.5 122.9 L 50.8 131.5 L 48.6 138.8 L 46.8 144.6 L 45.6 149.0 L 44.82978105545044 151.88832120895387 L 45.4 152.9 L 47.8 159.1 L 49.3 165.9 L 50.1 173.4 L 50.2 181.4 L 48.0 185.5 Z M 108.5 101.8 L 108.1 99.8 L 107.5 97.8 L 106.8 95.8 L 106.0 93.7 L 105.0 91.6 L 103.9 89.5 L 102.7 87.3 L 100.9 85.4 L 102.1 84.0 L 104.2 85.5 L 106.6 86.8 L 108.8 88.3 L 110.9 89.9 L 112.9 91.7 L 114.7 93.5 L 116.4 95.6 L 117.9 97.7 L 119.3 100.0 L 120.5 102.4 L 120.0 106.9 L 116.4 109.8 L 111.9 109.3 L 109.0 105.7 L 108.8 103.8 Z M 34.4 85.6 L 32.9 83.5 L 31.1 81.4 L 29.0 79.3 L 26.7 77.3 L 24.0 75.2 L 21.1 73.1 L 17.8 70.9 L 14.2 69.1 L 14.8 67.4 L 18.8 68.4 L 22.8 69.2 L 26.5 70.2 L 30.0 71.5 L 33.3 72.9 L 36.4 74.6 L 39.3 76.4 L 42.0 78.5 L 44.4 80.7 L 46.6 83.2 L 47.3 87.7 L 44.7 91.5 L 40.2 92.2 L 36.5 89.6 L 35.5 87.6 Z M 81.9 78.6 L 125.8 78.6 L 125.8 63.0 L 137.8 65.0 L 140.8 67.0 L 137.8 68.8 L 137.8 78.6 L 159.8 78.6 L 169.8 68.6 L 181.8 78.6 L 181.8 82.6 L 81.9 82.6 Z M 89.9 62.3 L 77.9 68.3 L 77.9 15.3 L 89.9 21.3 L 171.0 21.3 L 177.0 16.3 L 188.0 25.3 L 183.0 29.3 L 183.0 61.3 L 171.0 67.3 L 171.0 59.3 L 89.9 59.3 Z M 89.9 25.3 L 89.9 55.3 L 108.9 55.3 L 108.9 25.3 Z M 120.9 25.3 L 120.9 55.3 L 140.0 55.3 L 140.0 25.3 Z M 152.0 25.3 L 152.0 55.3 L 171.0 55.3 L 171.0 25.3 Z M 50.6 37.9 L 49.3 35.9 L 47.6 33.9 L 45.6 31.8 L 43.3 29.7 L 40.7 27.6 L 37.8 25.4 L 34.6 23.1 L 31.0 21.1 L 31.6 19.5 L 35.7 20.6 L 39.6 21.6 L 43.3 22.7 L 46.7 24.0 L 50.0 25.5 L 53.0 27.1 L 55.7 28.9 L 58.3 30.8 L 60.6 32.9 L 62.7 35.3 L 63.4 39.8 L 60.7 43.5 L 56.2 44.2 L 52.5 41.5 L 51.7 39.7 Z " />
</g>
</svg>
