<svg xmlns="http://www.w3.org/2000/svg" xmlns:xlink="http://www.w3.org/1999/xlink" version="1.1" baseProfile="full" viewBox="0 0 200 200" width="200" height="200">
<g fill="black">
<path d="M 168.3 146.7 L 166.3 144.0 L 165.1846251487732 142.61905975341796 L 155.3 144.0 L 142.4 145.5 L 130.3 146.8 L 128.5 146.97368421554566 L 128.5 182.3 L 116.5 188.3 L 116.5 148.12429904937744 L 108.2 148.9 L 98.3 149.8 L 89.2 150.5 L 80.8 151.2 L 73.2 151.7 L 70.3770341873169 151.90456275939943 L 68.3 155.1 L 66.3 152.2 L 64.1 140.2 L 66.1 140.2 L 72.9 140.3 L 80.5 140.5 L 97.9 140.5 L 102.96890573501587 140.44879894256593 L 105.3 138.6 L 111.0 134.2 L 116.5 129.9 L 122.0 125.7 L 127.3 121.6 L 132.4 117.4 L 137.3 113.3 L 142.1 109.2 L 146.7 105.1 L 150.41511631011963 101.71511631011963 L 150.4 101.7 L 151.3 100.9 L 158.9 110.2 L 159.3 113.7 L 155.74327087402344 112.53597955703735 L 153.9 113.9 L 148.7 117.7 L 143.4 121.3 L 137.8 125.0 L 132.1 128.5 L 126.2 132.0 L 120.1 135.4 L 113.8 138.8 L 110.44516124725342 140.4 L 118.5 140.4 L 129.9 140.3 L 142.1 140.2 L 155.1 140.2 L 163.2389482498169 140.31881675720214 L 161.8 138.7 L 159.2 136.1 L 156.4 133.4 L 153.4 130.8 L 150.3 128.0 L 146.9 125.5 L 147.7 123.9 L 155.9 126.9 L 159.7 128.6 L 163.3 130.5 L 166.8 132.6 L 170.1 134.8 L 173.2 137.2 L 176.1 139.7 L 178.9 142.4 L 181.5 145.2 L 182.4 149.7 L 180.0 153.6 L 175.5 154.5 L 171.6 152.1 L 170.1 149.4 Z M 100.7 159.3 L 102.0 162.6 L 97.88762540817261 162.31638793945314 L 95.2 165.1 L 92.1 167.8 L 88.8 170.5 L 85.2 173.0 L 81.5 175.4 L 77.5 177.8 L 73.3 179.9 L 68.8 181.9 L 64.2 183.8 L 63.3 182.3 L 67.1 179.1 L 70.6 175.9 L 74.0 172.8 L 77.1 169.8 L 80.0 166.8 L 82.6 163.9 L 85.1 161.0 L 87.2 158.1 L 89.2 155.2 L 90.38427448272705 153.24943027496337 L 90.3 153.2 L 91.4 151.7 Z M 164.7 175.3 L 162.8 172.8 L 160.6 170.2 L 158.2 167.7 L 155.6 165.1 L 152.8 162.5 L 149.8 159.9 L 146.7 157.1 L 143.2 154.6 L 144.1 153.0 L 148.2 154.5 L 152.2 156.0 L 156.0 157.6 L 159.6 159.5 L 163.1 161.4 L 166.4 163.5 L 172.4 168.1 L 175.1 170.6 L 177.6 173.2 L 178.7 177.6 L 176.5 181.6 L 172.0 182.7 L 168.1 180.4 L 166.5 177.9 Z M 35.8 186.9 L 31.7 184.9 L 30.2 180.6 L 30.7 173.5 L 30.7 167.1 L 30.2 161.3 L 29.2 156.0 L 27.8 151.4 L 26.37671070098877 148.2537815093994 L 26.2 148.2 L 26.274131298065186 148.02702703475953 L 25.9 147.2 L 23.5 143.5 L 20.6 140.1 L 17.1 137.0 L 12.8 134.1 L 13.4 132.4 L 18.8 133.6 L 23.8 135.8 L 28.3 138.9 L 29.428472232818603 140.0574073791504 L 31.1 135.6 L 33.6 128.6 L 36.5 120.2 L 39.9 110.5 L 43.8 99.3 L 48.2 86.8 L 53.2 72.9 L 58.8 57.7 L 60.6 58.2 L 56.9 74.0 L 53.4 88.3 L 50.1 101.2 L 47.2 112.6 L 44.6 122.7 L 42.5 131.3 L 40.7 138.5 L 39.3 144.3 L 38.3 148.7 L 37.7 151.7 L 37.30455389022827 151.57964687347413 L 38.1 153.2 L 40.0 159.3 L 41.3 166.1 L 42.0 173.4 L 42.1 181.3 L 40.1 185.4 Z M 177.3 83.3 L 175.7 85.2 L 173.9 86.8 L 171.9 88.2 L 169.7 89.4 L 167.4 90.3 L 165.1 90.9 L 162.6 91.3 L 160.1 91.4 L 160.1 85.4 L 144.1 82.4 L 144.1 79.4 L 160.1 79.4 L 161.5 79.3 L 162.7 79.1 L 163.8 78.9 L 164.7 78.5 L 165.6 78.0 L 166.3 77.5 L 167.1 76.8 L 167.8 76.0 L 168.5 75.0 L 168.9130000114441 74.2920000076294 L 169.0 72.9 L 169.2 70.2 L 169.4 66.4 L 169.5 61.6 L 169.6 55.9 L 169.7 49.1 L 169.8 41.4 L 169.8 25.1 L 153.01935482025146 25.1 L 152.6 35.5 L 151.5 46.3 L 149.8 55.7 L 147.5 63.8 L 144.5 70.7 L 140.9 76.6 L 136.6 81.5 L 131.8 85.4 L 126.3 88.5 L 122.51442127227783 90.14041748046876 L 128.2 96.1 L 129.0 99.6 L 124.99147758483886 98.68577556610107 L 122.6 100.5 L 119.6 102.7 L 116.6 104.8 L 110.0 108.8 L 106.6 110.8 L 103.0 112.6 L 100.22811670303345 113.84005308151245 L 100.8 114.1 L 104.0 115.8 L 107.0 117.6 L 109.8 119.6 L 112.5 121.8 L 114.0 126.1 L 112.2 130.2 L 107.9 131.8 L 103.7 130.0 L 102.1 127.8 L 100.2 125.6 L 98.2 123.5 L 96.0 121.3 L 93.5 119.2 L 90.9 117.1 L 88.0 115.0 L 84.9 112.9 L 81.7 110.8 L 78.1 108.9 L 78.7 107.2 L 82.7 108.1 L 86.7 108.9 L 90.5 110.0 L 94.1 111.2 L 96.90619716644287 112.35549297332764 L 97.5 111.8 L 100.3 108.9 L 105.8 103.4 L 108.4 100.7 L 110.9 98.0 L 115.5 92.8 L 117.6 90.3 L 118.99868621826172 88.48170795440674 L 118.9 88.4 L 119.9 87.4 L 120.77939043045043 88.32177066802979 L 124.2 85.4 L 128.3 81.3 L 131.7 77.1 L 134.5 72.5 L 136.8 67.3 L 138.6 61.2 L 139.9 53.9 L 140.8 45.2 L 141.2 35.0 L 141.11680669784545 25.1 L 123.1 25.1 L 123.1 21.1 L 169.8 21.1 L 175.8 16.1 L 186.8 25.1 L 181.8 28.1 L 181.8 41.5 L 181.7 49.3 L 181.6 56.1 L 181.5 61.9 L 181.4 66.8 L 181.2 70.8 L 181.0 74.0 L 180.7 76.4 L 179.9 79.1 L 178.7 81.3 Z M 95.1 14.7 L 98.1 16.7 L 95.1 18.5 L 95.1 45.5 L 99.91818180084229 45.5 L 108.1 36.5 L 118.1 45.5 L 118.1 49.5 L 95.1 49.5 L 95.1 68.4 L 101.2 68.4 L 111.2 58.4 L 123.2 68.4 L 123.2 72.4 L 95.1 72.4 L 95.1 100.2 L 83.1 106.2 L 83.1 72.4 L 58.7 72.4 L 58.7 68.4 L 83.1 68.4 L 83.1 49.5 L 61.6 49.5 L 61.6 45.5 L 83.1 45.5 L 83.1 12.7 Z M 27.0 85.1 L 26.0 83.1 L 24.6 81.1 L 23.1 79.1 L 21.3 77.0 L 19.2 75.0 L 16.9 73.0 L 14.4 70.9 L 11.5 69.2 L 12.1 67.5 L 15.5 68.5 L 18.8 69.4 L 22.0 70.4 L 25.0 71.7 L 27.8 73.2 L 30.5 74.9 L 32.9 76.7 L 35.2 78.8 L 37.3 81.1 L 39.2 83.5 L 39.6 88.1 L 36.7 91.6 L 32.1 91.9 L 28.6 89.0 L 27.9 87.1 Z M 40.5 37.4 L 39.5 35.5 L 38.2 33.5 L 36.7 31.5 L 35.0 29.5 L 33.0 27.4 L 30.7 25.3 L 28.2 23.0 L 25.3 21.2 L 26.0 19.6 L 29.4 20.8 L 32.7 21.8 L 35.8 22.9 L 38.8 24.3 L 41.5 25.8 L 44.1 27.4 L 46.5 29.2 L 48.7 31.1 L 50.7 33.3 L 52.5 35.6 L 52.8 40.1 L 49.8 43.6 L 45.3 43.9 L 41.8 41.0 L 41.2 39.2 Z M 79.7 24.3 L 81.6 27.4 L 76.83769969940185 27.974760341644288 L 75.4 29.7 L 73.8 31.4 L 72.1 33.1 L 70.3 34.8 L 68.4 36.4 L 66.3 38.0 L 64.1 39.5 L 62.2 41.3 L 60.9 40.2 L 62.4 38.0 L 63.4 35.7 L 64.3 33.4 L 65.2 31.2 L 66.8 27.0 L 67.4 25.0 L 67.9 23.1 L 68.4 21.3 L 68.53651456832885 20.48091287612915 L 68.3 20.4 L 69.2 18.3 Z M 106.6 32.4 L 105.7 30.9 L 104.8 29.3 L 103.8 27.8 L 102.8 26.2 L 101.7 24.6 L 100.5 22.9 L 98.9 21.8 L 99.8 20.2 L 101.6 21.2 L 103.7 21.7 L 105.7 22.3 L 107.6 23.1 L 109.5 24.0 L 111.3 24.9 L 113.1 25.9 L 114.8 27.0 L 116.5 28.2 L 118.1 29.5 L 119.3 33.9 L 117.0 37.9 L 112.6 39.1 L 108.6 36.9 L 108.0 35.4 Z " />
</g>
</svg>
