<svg xmlns="http://www.w3.org/2000/svg" xmlns:xlink="http://www.w3.org/1999/xlink" version="1.1" baseProfile="full" viewBox="0 0 200 200" width="200" height="200">
<g fill="black">
<path d="M 92.2 124.9 L 159.7 124.9 L 165.7 119.9 L 176.7 128.9 L 171.7 132.9 L 171.7 179.4 L 159.7 185.4 L 159.7 175.4 L 92.2 175.4 L 92.2 182.4 L 80.2 188.4 L 80.2 118.9 Z M 41.2 186.9 L 37.2 184.8 L 35.7 180.5 L 36.2 173.5 L 36.2 167.2 L 35.5 161.4 L 34.3 156.3 L 32.5 151.7 L 30.2 147.5 L 27.2 143.7 L 23.5 140.2 L 19.0 137.0 L 13.7 134.1 L 14.2 132.4 L 20.5 133.5 L 26.3 135.6 L 31.5 138.7 L 34.22633981704712 141.06282777786254 L 34.3 140.9 L 36.6 135.3 L 39.5 128.4 L 43.0 120.0 L 47.0 110.3 L 51.5 99.1 L 56.7 86.6 L 62.5 72.8 L 69.0 57.6 L 70.7 58.3 L 66.1 74.1 L 61.7 88.5 L 57.7 101.4 L 54.1 112.8 L 51.0 122.9 L 48.3 131.5 L 46.1 138.8 L 44.4 144.6 L 43.1 149.0 L 42.427148246765135 151.88365020751954 L 43.0 152.9 L 45.3 159.1 L 46.8 166.0 L 47.6 173.4 L 47.7 181.4 L 45.5 185.5 Z M 92.2 152.2 L 92.2 171.4 L 159.7 171.4 L 159.7 152.2 Z M 92.2 128.9 L 92.2 148.2 L 159.7 148.2 L 159.7 128.9 Z M 83.0 59.0 L 96.0 59.0 L 102.0 54.0 L 113.0 63.0 L 108.0 67.0 L 108.0 86.0 L 96.0 92.0 L 96.0 84.0 L 82.79591836929322 84.0 L 82.5 86.9 L 81.7 91.6 L 80.5 96.2 L 79.1 100.7 L 77.3 105.0 L 75.2 109.1 L 72.8 113.1 L 70.1 116.8 L 67.0 120.2 L 63.7 123.5 L 62.2 122.4 L 64.2 118.4 L 65.9 114.3 L 67.3 110.3 L 68.6 106.4 L 69.6 102.4 L 70.3 98.4 L 70.9 94.4 L 71.1 90.3 L 71.2 86.1 L 71.0 82.0 L 71.0 53.0 Z M 170.9 114.4 L 168.7 112.1 L 166.1 109.6 L 163.2 107.1 L 160.0 104.5 L 156.5 101.9 L 152.8 99.1 L 148.8 96.1 L 144.5 93.2 L 144.76349811553956 92.5977186203003 L 144.5 92.1 L 145.19369373321533 91.61441440582276 L 145.2 91.6 L 145.20967741012572 91.60322580337524 L 148.5 89.3 L 152.2 86.5 L 155.8 83.8 L 159.2 81.2 L 162.4 78.7 L 165.4 76.2 L 168.2 73.9 L 170.8 71.5 L 174.55029239654542 67.7497076034546 L 174.5 67.7 L 175.0 67.3 L 175.3 67.0 L 175.33031091690063 67.03575134277344 L 175.5 66.9 L 183.1 76.2 L 183.5 79.8 L 179.5517135620117 78.43604650497437 L 177.0 80.0 L 173.8 81.9 L 170.3 83.7 L 166.6 85.5 L 162.8 87.3 L 158.7 89.0 L 154.5 90.7 L 150.0 92.2 L 148.5319149017334 92.71063833236694 L 155.1 94.9 L 159.5 96.6 L 163.7 98.5 L 167.6 100.4 L 171.3 102.3 L 174.7 104.3 L 177.8 106.4 L 180.7 108.5 L 183.3 110.7 L 184.9 115.0 L 183.0 119.2 L 178.7 120.7 L 174.5 118.8 L 172.9 116.7 Z M 96.0 106.0 L 116.0 106.0 L 117.2 105.9 L 118.1 105.7 L 119.0 105.4 L 119.4 105.0 L 119.7 104.1 L 119.9 103.2 L 120.0 102.0 L 120.0 71.0 L 126.27950305938721 72.0465838432312 L 126.3 72.0 L 127.0 69.2 L 127.8 66.6 L 128.7 64.1 L 129.5 61.6 L 130.4 59.1 L 131.2 56.7 L 131.86521739959716 55.0 L 108.0 55.0 L 108.0 51.0 L 133.0 51.0 L 133.57391300201417 50.52173910140991 L 133.8 49.9 L 134.10397272109986 50.080022716522215 L 139.0 46.0 L 150.0 55.0 L 145.0 58.0 L 140.88823528289794 59.71323528289795 L 139.3 61.5 L 135.9 65.3 L 134.1 67.3 L 132.3 69.2 L 130.4 71.2 L 129.08571424484253 72.51428575515747 L 132.0 73.0 L 135.0 75.0 L 132.0 76.8 L 132.0 102.0 L 131.8 104.5 L 131.4 107.0 L 130.6 109.4 L 129.3 111.7 L 127.7 113.7 L 125.7 115.3 L 123.4 116.6 L 121.0 117.4 L 118.5 117.8 L 116.0 118.0 L 116.0 112.0 L 96.0 109.0 Z M 31.9 85.5 L 30.5 83.5 L 28.7 81.4 L 26.7 79.3 L 24.4 77.3 L 21.7 75.2 L 18.8 73.1 L 15.7 70.9 L 12.1 69.1 L 12.7 67.4 L 16.7 68.4 L 20.6 69.2 L 24.3 70.2 L 27.7 71.5 L 31.0 73.0 L 34.1 74.6 L 36.9 76.5 L 39.6 78.5 L 42.0 80.8 L 44.2 83.2 L 44.9 87.8 L 42.2 91.5 L 37.7 92.2 L 34.0 89.6 L 33.1 87.6 Z M 83.0 63.0 L 83.0 80.0 L 96.0 80.0 L 96.0 63.0 Z M 172.5 59.9 L 173.2 63.4 L 169.09898252487181 62.392732524871825 L 167.7 63.4 L 165.0 65.3 L 162.1 67.2 L 159.0 69.2 L 155.7 71.2 L 152.3 73.2 L 148.5 75.3 L 144.5 77.4 L 140.5 79.7 L 139.4 78.2 L 142.8 75.0 L 145.8 71.7 L 148.7 68.7 L 151.4 65.8 L 154.0 63.1 L 156.4 60.5 L 158.6 58.0 L 160.6 55.7 L 162.4 53.5 L 163.40125789642335 52.18584909439087 L 163.3 52.1 L 164.3 51.1 Z M 48.0 37.8 L 46.7 35.9 L 45.0 33.9 L 43.1 31.8 L 40.8 29.7 L 38.2 27.6 L 35.3 25.4 L 32.2 23.1 L 28.6 21.2 L 29.3 19.5 L 33.3 20.6 L 37.2 21.6 L 40.8 22.7 L 44.2 24.0 L 47.4 25.5 L 50.4 27.1 L 53.1 28.9 L 55.7 30.8 L 58.0 32.9 L 60.0 35.3 L 60.7 39.8 L 58.0 43.5 L 53.5 44.2 L 49.8 41.5 L 49.0 39.7 Z M 65.6 36.5 L 120.0 36.5 L 120.0 12.0 L 132.0 14.0 L 135.0 16.0 L 132.0 17.8 L 132.0 36.5 L 168.11818180084228 36.5 L 176.3 27.5 L 186.3 36.5 L 186.3 40.5 L 65.6 40.5 Z " />
</g>
</svg>
