<svg xmlns="http://www.w3.org/2000/svg" xmlns:xlink="http://www.w3.org/1999/xlink" version="1.1" baseProfile="full" viewBox="0 0 200 200" width="200" height="200">
<g fill="black">
<path d="M 172.5 84.1 L 169.5 79.6 L 166.8 74.9 L 164.2 70.1 L 162.0 65.1 L 159.9 59.9 L 158.2 54.5 L 156.8 49.0 L 156.11034479141236 44.0 L 149.34897956848144 44.0 L 148.4 47.0 L 144.7 56.3 L 140.5 65.0 L 135.8 73.1 L 130.7 80.5 L 125.0 87.3 L 118.7 93.4 L 112.0 98.6 L 111.3 97.84166669845581 L 111.3 123.0 L 99.3 129.0 L 99.3 117.0 L 93.5 117.0 L 93.5 146.0 L 97.61818180084228 146.0 L 105.8 137.0 L 115.8 146.0 L 115.8 150.0 L 93.5 150.0 L 93.5 183.0 L 81.5 189.0 L 81.5 150.0 L 59.8 150.0 L 59.8 146.0 L 81.5 146.0 L 81.5 117.0 L 76.4 117.0 L 76.4 129.0 L 64.4 135.0 L 64.4 57.0 L 76.4 63.0 L 81.5 63.0 L 81.5 40.0 L 61.8 40.0 L 61.8 36.0 L 81.5 36.0 L 81.5 13.0 L 93.5 15.0 L 96.5 17.0 L 93.5 18.8 L 93.5 36.0 L 95.61818180084228 36.0 L 103.8 27.0 L 113.8 36.0 L 113.8 40.0 L 93.5 40.0 L 93.5 63.0 L 99.3 63.0 L 105.3 58.0 L 116.3 67.0 L 111.3 71.0 L 111.3 96.675 L 116.0 90.8 L 120.8 84.0 L 125.2 76.9 L 129.2 69.4 L 132.8 61.4 L 136.0 52.9 L 138.8 44.0 L 115.1 44.0 L 115.1 40.0 L 139.76842107772828 40.0 L 141.1 34.5 L 143.0 24.6 L 144.5 14.1 L 144.53271026611327 14.104672908782959 L 144.8 12.1 L 156.4 15.8 L 159.1 18.2 L 155.62388668060302 19.680566787719727 L 154.2 26.8 L 151.5 37.2 L 150.61428575515748 40.0 L 167.1 40.0 L 177.1 30.0 L 189.1 40.0 L 189.1 44.0 L 158.557142829895 44.0 L 160.7 47.5 L 163.6 52.2 L 166.4 56.7 L 169.3 61.1 L 172.2 65.3 L 175.3 69.3 L 178.4 73.1 L 181.7 76.7 L 185.1 80.1 L 188.6 83.3 L 189.9 84.7 L 179.2 92.6 L 175.8 88.4 Z M 37.3 186.9 L 33.2 184.9 L 31.7 180.6 L 32.2 173.5 L 32.2 167.1 L 31.6 161.3 L 30.6 156.1 L 29.1 151.4 L 27.1 147.3 L 24.6 143.5 L 21.5 140.1 L 17.8 137.0 L 13.3 134.1 L 13.8 132.4 L 19.4 133.6 L 24.6 135.8 L 29.2 138.9 L 30.766292095184326 140.38988761901857 L 32.6 135.5 L 35.2 128.6 L 38.2 120.2 L 41.8 110.4 L 45.8 99.3 L 50.4 86.7 L 55.6 72.9 L 61.4 57.7 L 63.1 58.2 L 59.2 74.0 L 55.5 88.4 L 52.1 101.2 L 49.0 112.7 L 46.3 122.7 L 44.0 131.3 L 42.2 138.6 L 40.7 144.4 L 39.7 148.8 L 39.0 151.7 L 38.66174650192261 151.59615020751954 L 39.4 153.1 L 41.5 159.3 L 42.8 166.0 L 43.6 173.4 L 43.6 181.3 L 41.6 185.4 Z M 167.1 182.4 L 165.2 183.9 L 163.2 185.2 L 161.1 186.4 L 158.9 187.3 L 156.7 188.0 L 154.3 188.6 L 151.9 188.9 L 149.5 189.0 L 149.5 183.0 L 135.5 180.0 L 135.5 177.0 L 149.5 177.0 L 150.9 176.9 L 152.3 176.7 L 153.6 176.4 L 154.8 176.1 L 155.9 175.6 L 157.0 175.0 L 158.0 174.3 L 159.0 173.5 L 160.0 172.5 L 161.0 171.4 L 161.5 170.5 L 162.3 168.9 L 163.1 166.6 L 163.9 163.6 L 164.8 160.0 L 165.6 155.8 L 166.3 151.1 L 167.0 145.7 L 167.7 139.9 L 168.06000003814697 136.0 L 136.99530792236328 136.0 L 135.0 144.1 L 121.9 147.1 L 130.6040431022644 112.0 L 115.1 112.0 L 115.1 108.0 L 165.01818180084229 108.0 L 173.2 99.0 L 183.2 108.0 L 183.2 112.0 L 142.90733137130738 112.0 L 137.98064517974854 132.0 L 168.3 132.0 L 174.3 127.0 L 185.3 136.0 L 180.3 139.0 L 179.77086610794066 139.22047243118286 L 179.6 141.1 L 178.9 147.2 L 178.2 152.8 L 177.4 157.9 L 176.5 162.5 L 175.6 166.6 L 174.5 170.2 L 173.4 173.4 L 172.0 176.3 L 170.4 178.8 L 168.8 180.7 Z M 76.4 92.0 L 76.4 113.0 L 99.3 113.0 L 99.3 92.0 Z M 28.4 85.2 L 27.2 83.2 L 25.8 81.2 L 24.1 79.1 L 22.2 77.1 L 20.0 75.0 L 17.6 73.0 L 14.9 70.9 L 11.8 69.2 L 12.5 67.5 L 16.0 68.5 L 19.5 69.3 L 22.8 70.4 L 25.9 71.7 L 28.8 73.1 L 31.5 74.8 L 34.1 76.7 L 36.5 78.7 L 38.6 81.0 L 40.6 83.5 L 41.0 88.0 L 38.2 91.6 L 33.6 92.0 L 30.1 89.2 L 29.3 87.2 Z M 76.4 88.0 L 99.3 88.0 L 99.3 67.0 L 76.4 67.0 Z M 169.1 84.0 L 169.1 88.0 L 130.6 88.0 L 130.6 84.0 L 150.9181818008423 84.0 L 159.1 75.0 Z M 42.5 37.5 L 41.4 35.6 L 40.0 33.6 L 38.4 31.6 L 36.5 29.5 L 34.4 27.4 L 32.0 25.3 L 29.4 23.1 L 26.3 21.2 L 27.0 19.5 L 30.5 20.8 L 34.0 21.7 L 37.2 22.9 L 40.3 24.2 L 43.1 25.7 L 45.8 27.3 L 48.3 29.1 L 50.5 31.1 L 52.6 33.2 L 54.5 35.5 L 54.8 40.0 L 52.0 43.6 L 47.4 44.0 L 43.9 41.1 L 43.3 39.3 Z " />
</g>
</svg>
