<svg xmlns="http://www.w3.org/2000/svg" xmlns:xlink="http://www.w3.org/1999/xlink" version="1.1" baseProfile="full" viewBox="0 0 200 200" width="200" height="200">
<g fill="black">
<path d="M 79.8 31.0 L 118.0 31.0 L 118.0 12.0 L 130.0 14.0 L 133.0 16.0 L 130.0 17.8 L 130.0 31.0 L 166.61818180084228 31.0 L 174.8 22.0 L 184.8 31.0 L 184.8 35.0 L 144.4 35.0 L 144.4 46.0 L 162.1 46.0 L 168.1 41.0 L 179.1 50.0 L 174.1 54.0 L 174.1 66.0 L 162.1 72.0 L 162.1 66.0 L 110.73428573608399 66.0 L 108.72285718917847 77.0 L 172.87777776718139 77.0 L 179.1 70.0 L 187.1 77.0 L 187.1 81.0 L 107.991428565979 81.0 L 106.16285715103149 91.0 L 168.9 91.0 L 174.9 86.0 L 185.9 95.0 L 180.9409309387207 97.97544145584106 L 181.0 105.3 L 180.9 116.7 L 180.6 127.2 L 180.1 136.8 L 179.5 145.5 L 178.7 153.2 L 177.7 160.0 L 176.5 166.0 L 175.0 171.2 L 173.3 175.6 L 172.1 177.8 L 170.7 179.8 L 169.1 181.7 L 167.3 183.4 L 165.3 184.8 L 163.1 186.0 L 160.9 186.8 L 158.5 187.5 L 156.0 187.8 L 153.5 188.0 L 153.5 182.0 L 133.5 179.0 L 133.5 176.0 L 153.5 176.0 L 154.9 175.9 L 156.1 175.7 L 157.2 175.4 L 158.1 175.1 L 159.7 174.1 L 160.4 173.4 L 161.1 172.6 L 161.8 171.5 L 162.5 170.3 L 163.7 167.4 L 164.8 163.2 L 165.9 158.0 L 166.8 151.7 L 167.6 144.4 L 168.2 136.1 L 168.6 126.8 L 168.9 116.5 L 169.0 105.3 L 168.9810263633728 102.96623907089233 L 168.9 103.0 L 168.9 95.0 L 105.43142852783203 95.0 L 104.7 99.0 L 91.8 102.7 L 98.53307495117187 66.0 L 79.8 66.0 L 79.8 88.0 L 79.3 100.5 L 78.4 112.4 L 77.1 123.8 L 75.4 134.7 L 73.2 145.0 L 70.7 154.7 L 67.7 163.9 L 64.2 172.4 L 60.2 180.2 L 55.6 187.4 L 54.0 186.5 L 56.7 178.7 L 59.2 170.5 L 61.4 162.0 L 63.3 152.9 L 64.9 143.4 L 66.2 133.4 L 67.1 122.8 L 67.7 111.7 L 68.0 100.1 L 67.8 88.0 L 67.8 25.0 Z M 39.2 186.9 L 35.2 184.8 L 33.7 180.5 L 34.2 173.5 L 34.2 167.1 L 33.6 161.4 L 32.4 156.2 L 30.8 151.6 L 28.6 147.4 L 25.8 143.6 L 22.3 140.2 L 18.1 137.0 L 13.1 134.1 L 13.7 132.4 L 19.7 133.6 L 25.2 135.7 L 30.2 138.8 L 32.38838119506836 140.78481092453003 L 34.6 135.4 L 37.4 128.4 L 40.7 120.1 L 44.5 110.3 L 48.9 99.2 L 53.8 86.7 L 59.3 72.8 L 65.6 57.7 L 67.3 58.2 L 62.9 74.1 L 58.8 88.4 L 55.1 101.3 L 51.7 112.8 L 48.7 122.8 L 46.2 131.5 L 44.1 138.7 L 42.5 144.5 L 41.3 148.9 L 40.6 151.9 L 41.2 153.0 L 43.4 159.2 L 44.8 166.0 L 45.6 173.4 L 45.6 181.4 L 43.6 185.4 Z M 121.4 138.2 L 119.6 140.9 L 117.7 143.6 L 115.8 146.2 L 113.7 148.9 L 111.6 151.5 L 109.4 154.0 L 107.1 156.5 L 105.78771934509277 157.81228065490723 L 106.5 157.8 L 112.7 157.7 L 119.1 157.6 L 125.8 157.4 L 132.8 157.3 L 140.1 157.3 L 141.89821424484253 157.34732141494752 L 139.4 153.6 L 137.6 151.2 L 135.6 148.8 L 133.6 146.3 L 131.2 144.1 L 132.2 142.6 L 135.2 144.2 L 138.2 145.6 L 141.1 147.2 L 143.9 148.9 L 146.5 150.7 L 149.0 152.6 L 151.3 154.7 L 153.6 156.9 L 155.7 159.1 L 157.7 161.5 L 158.3 166.0 L 155.6 169.7 L 151.1 170.3 L 147.4 167.7 L 146.4 165.4 L 145.3 163.0 L 144.0 160.7 L 143.7375 160.26875 L 140.5 161.1 L 133.4 162.6 L 126.5 164.0 L 119.8 165.1 L 113.4 166.2 L 107.3 167.1 L 101.4 167.9 L 95.8 168.7 L 90.5 169.3 L 89.51989793777466 169.4153060913086 L 87.5 172.8 L 85.4 169.9 L 82.8 158.0 L 84.8 157.9 L 89.8 158.0 L 95.1 158.0 L 100.61224603652954 157.9015670776367 L 102.5 153.4 L 105.1 147.4 L 106.3 144.5 L 108.91724138259887 137.6 L 78.3 137.6 L 78.3 133.6 L 113.8 133.6 L 113.8 116.8 L 86.0 116.8 L 86.0 112.8 L 113.8 112.8 L 113.8 98.6 L 125.8 100.6 L 128.8 102.6 L 125.8 104.4 L 125.8 112.8 L 135.4181818008423 112.8 L 143.6 103.8 L 153.6 112.8 L 153.6 116.8 L 125.8 116.8 L 125.8 133.6 L 139.3 133.6 L 149.3 123.6 L 161.3 133.6 L 161.3 137.6 L 121.79230766296386 137.6 Z M 30.1 85.4 L 28.8 83.4 L 27.2 81.3 L 25.3 79.2 L 23.1 77.2 L 20.7 75.1 L 17.9 73.0 L 15.0 70.9 L 11.6 69.1 L 12.2 67.4 L 16.0 68.4 L 19.7 69.2 L 23.3 70.3 L 26.6 71.6 L 29.7 73.0 L 32.7 74.7 L 35.4 76.5 L 37.9 78.6 L 40.3 80.8 L 42.3 83.3 L 42.9 87.9 L 40.2 91.5 L 35.7 92.1 L 32.0 89.4 L 31.2 87.4 Z M 79.8 50.0 L 79.8 62.0 L 100.5 62.0 L 100.5 50.0 Z M 112.5 50.0 L 112.5 62.0 L 132.4 62.0 L 132.4 50.0 Z M 144.4 50.0 L 144.4 62.0 L 162.1 62.0 L 162.1 50.0 Z M 79.8 35.0 L 79.8 46.0 L 100.5 46.0 L 100.5 35.0 Z M 112.5 46.0 L 132.4 46.0 L 132.4 35.0 L 112.5 35.0 Z M 45.4 37.7 L 44.1 35.8 L 42.6 33.8 L 40.8 31.7 L 38.7 29.6 L 36.3 27.5 L 33.6 25.3 L 30.7 23.1 L 27.3 21.2 L 28.0 19.5 L 31.8 20.7 L 35.5 21.6 L 39.0 22.8 L 42.3 24.1 L 45.3 25.6 L 48.2 27.2 L 50.8 29.0 L 53.2 30.9 L 55.4 33.0 L 57.4 35.4 L 57.9 39.9 L 55.2 43.5 L 50.7 44.1 L 47.0 41.3 L 46.3 39.6 Z " />
</g>
</svg>
