<svg xmlns="http://www.w3.org/2000/svg" xmlns:xlink="http://www.w3.org/1999/xlink" version="1.1" baseProfile="full" viewBox="0 0 200 200" width="200" height="200">
<g fill="black">
<path d="M 71.0 176.0 L 91.0 176.0 L 92.2 175.9 L 93.1 175.7 L 94.0 175.4 L 94.4 175.0 L 94.7 174.1 L 94.9 173.2 L 95.0 172.0 L 95.0 95.0 L 107.0 97.0 L 110.0 99.0 L 107.0 100.8 L 107.0 112.56428575515747 L 110.3 119.4 L 115.0 127.4 L 120.2 134.7 L 122.94608297348023 137.77188940048217 L 123.0 137.7 L 125.6 134.2 L 128.3 130.7 L 131.0 127.3 L 133.6 124.0 L 141.7 114.1 L 144.3 110.8 L 146.27962884902954 108.36353368759156 L 146.2 108.3 L 147.2 107.2 L 155.6 115.8 L 156.5 119.3 L 152.62759141921998 118.48475608825683 L 152.5 118.6 L 149.3 121.5 L 146.0 124.3 L 142.8 127.0 L 139.4 129.8 L 136.0 132.5 L 129.0 137.7 L 125.3 140.2 L 125.18395538330078 140.2752721786499 L 126.1 141.3 L 132.6 147.2 L 139.9 152.5 L 147.9 157.2 L 156.7 161.3 L 166.3 164.7 L 176.7 167.6 L 184.9 169.8 L 173.2 180.3 L 162.1 176.5 L 151.8 172.0 L 142.4 166.8 L 133.9 160.8 L 126.4 154.2 L 119.8 146.8 L 114.3 138.8 L 109.8 130.2 L 107.0 122.39393939971924 L 107.0 172.0 L 106.8 174.5 L 106.4 177.0 L 105.6 179.4 L 104.3 181.7 L 102.7 183.7 L 100.7 185.3 L 98.4 186.6 L 96.0 187.4 L 93.5 187.8 L 91.0 188.0 L 91.0 182.0 L 71.0 179.0 Z M 88.0 124.0 L 83.0 127.0 L 81.5493670463562 127.6044303894043 L 80.7 130.5 L 77.4 137.7 L 73.2 144.3 L 68.0 150.5 L 61.8 156.1 L 54.7 161.3 L 46.7 165.9 L 37.8 170.1 L 28.0 173.7 L 17.2 176.8 L 16.7 175.1 L 26.5 170.2 L 35.4 165.3 L 43.3 160.3 L 50.2 155.1 L 56.1 149.8 L 61.0 144.3 L 64.9 138.7 L 67.8 132.9 L 69.9 127.0 L 70.44098358154297 124.0 L 39.0 124.0 L 39.0 120.0 L 71.0 120.0 L 77.0 115.0 Z M 26.6 93.8 L 26.7 97.4 L 26.7 100.9 L 26.4 104.1 L 25.9 107.2 L 25.0 110.2 L 23.9 113.0 L 22.5 115.6 L 18.3 117.6 L 14.0 116.2 L 12.0 112.1 L 13.4 107.8 L 14.6 106.8 L 15.8 105.5 L 17.0 103.9 L 18.1 101.8 L 19.2 99.3 L 20.2 96.5 L 21.1 93.3 L 22.0 89.8 L 22.8 85.9 L 23.1 81.7 L 24.9 81.7 L 25.4 85.9 L 26.0 89.3285714149475 L 26.0 87.3 L 27.833130741119383 87.3 L 25.7 23.5 L 36.185042476654054 28.312806415557862 L 38.1 27.1 L 41.1 25.5 L 43.8 23.9 L 46.4 22.4 L 48.8 21.0 L 51.0 19.6 L 53.0 18.3 L 54.9 17.1 L 55.710738277435304 16.491946315765382 L 55.6 16.3 L 55.763091468811034 16.45268135070801 L 56.5 15.9 L 57.55169486999512 18.12711868286133 L 65.0 25.1 L 65.2 28.3 L 61.469491481781006 26.735593223571776 L 59.4 27.3 L 57.1 27.8 L 54.6 28.4 L 51.9 28.9 L 49.0 29.5 L 46.0 30.0 L 42.8 30.5 L 39.4 31.0 L 37.971972179412845 31.163203144073485 L 38.50348834991455 46.4 L 49.7777777671814 46.4 L 56.0 39.4 L 64.0 46.4 L 64.0 50.4 L 38.643023300170896 50.4 L 39.166279029846194 65.4 L 49.7777777671814 65.4 L 56.0 58.4 L 64.0 65.4 L 64.0 69.4 L 39.30581398010254 69.4 L 39.930232524871826 87.3 L 68.0 87.3 L 68.0 16.7 L 78.0 21.7 L 122.0 21.7 L 127.0 16.7 L 137.0 25.7 L 132.0 28.7 L 132.0 87.3 L 159.96379585266112 87.3 L 160.53476877212523 69.4 L 136.0 69.4 L 136.0 65.4 L 160.66236047744752 65.4 L 161.14082937240602 50.4 L 136.0 50.4 L 136.0 46.4 L 161.26842107772828 46.4 L 161.83620414733886 28.6 L 140.0 28.6 L 140.0 24.6 L 162.0 24.6 L 168.0 19.6 L 179.0 28.6 L 174.0 31.6 L 172.92793035507202 32.046695709228516 L 172.03285875320435 87.27261772155762 L 172.5052631378174 86.87894735336303 L 172.6 86.5 L 172.8226589202881 86.61445083618165 L 178.0 82.3 L 189.0 91.3 L 184.0 94.3 L 179.78625955581666 96.05572519302368 L 178.8 97.1 L 177.0 99.0 L 175.1 101.1 L 168.1 108.1 L 165.3 110.6 L 162.7 113.5 L 161.2 112.5 L 163.2 109.1 L 164.8 105.7 L 166.2 102.5 L 167.6 99.6 L 168.8 96.9 L 169.9 94.4 L 170.8 92.1 L 171.1047618865967 91.3 L 26.279487133026123 91.3 Z M 78.0 25.7 L 78.0 87.3 L 122.0 87.3 L 122.0 25.7 Z M 119.9 56.6 L 114.9 59.1 L 114.9 75.6 L 105.9 80.1 L 105.9 75.6 L 94.0 75.6 L 85.0 80.1 L 85.0 48.1 L 94.0 52.6 L 105.9 52.6 L 110.4 47.6 Z M 94.0 56.6 L 94.0 71.6 L 105.9 71.6 L 105.9 56.6 Z M 118.0 38.8 L 118.0 42.8 L 82.0 42.8 L 82.0 38.8 L 99.81818180084228 38.8 L 108.0 29.8 Z " />
</g>
</svg>
