<svg xmlns="http://www.w3.org/2000/svg" xmlns:xlink="http://www.w3.org/1999/xlink" version="1.1" baseProfile="full" viewBox="0 0 200 200" width="200" height="200">
<g fill="black">
<path d="M 145.4 176.4 L 165.4 176.4 L 166.6 176.3 L 167.5 176.1 L 168.4 175.8 L 168.8 175.4 L 169.1 174.5 L 169.3 173.6 L 169.4 172.4 L 169.4 64.5 L 181.4 66.5 L 184.4 68.5 L 181.4 70.3 L 181.4 172.4 L 181.2 174.9 L 180.8 177.4 L 180.0 179.8 L 178.8 182.1 L 177.1 184.1 L 175.1 185.7 L 172.8 187.0 L 170.4 187.8 L 167.9 188.2 L 165.4 188.4 L 165.4 182.4 L 145.4 179.4 Z M 89.7 161.2 L 91.4 164.4 L 87.19765014648438 164.68981723785402 L 85.3 167.0 L 82.9 169.8 L 80.2 172.5 L 77.3 175.1 L 74.3 177.6 L 71.0 180.0 L 67.5 182.4 L 63.7 184.5 L 59.8 186.8 L 58.7 185.4 L 61.8 182.2 L 64.5 178.9 L 67.0 175.8 L 69.3 172.7 L 71.5 169.7 L 73.4 166.8 L 75.1 164.0 L 76.6 161.1 L 77.9 158.4 L 78.61422100067139 156.64691219329833 L 78.5 156.6 L 79.5 154.7 Z M 97.9 52.9 L 97.1 50.8 L 96.2 48.6 L 95.0 46.4 L 93.6 44.2 L 92.1 42.0 L 90.3 39.6 L 88.3 37.2 L 86.75238094329833 35.9 L 84.4 35.9 L 82.8 39.1 L 79.7 44.3 L 76.4 49.2 L 72.7 53.9 L 68.7 58.4 L 64.3 62.6 L 63.61815462112427 63.13979425430298 L 60.8 74.0 L 57.0 88.4 L 53.4 101.3 L 50.2 112.7 L 47.5 122.8 L 45.1 131.4 L 43.1 138.6 L 41.6 144.4 L 40.5 148.8 L 39.9 151.8 L 39.58635845184326 151.69820404052734 L 40.3 153.1 L 42.4 159.2 L 43.8 166.0 L 44.6 173.4 L 44.6 181.4 L 42.6 185.4 L 38.2 186.9 L 34.2 184.9 L 32.7 180.6 L 33.2 173.5 L 33.2 167.1 L 32.6 161.3 L 31.6 156.1 L 30.0 151.5 L 27.9 147.3 L 25.3 143.6 L 22.1 140.2 L 18.2 137.0 L 13.6 134.1 L 14.1 132.4 L 19.9 133.6 L 25.1 135.7 L 29.9 138.8 L 31.637594413757324 140.49521408081054 L 33.6 135.5 L 36.2 128.5 L 39.4 120.1 L 43.0 110.4 L 47.2 99.2 L 51.9 86.7 L 57.2 72.9 L 59.88660287857056 66.09393939971923 L 59.5 66.4 L 58.2 65.1 L 61.4 60.1 L 64.4 55.1 L 67.3 50.2 L 69.9 45.3 L 72.2 40.2 L 74.3 35.2 L 76.2 30.0 L 77.8 24.7 L 79.1 19.4 L 79.91772155761718 14.902531623840332 L 79.9 14.9 L 80.01999998092651 14.339999961853028 L 80.1 13.9 L 80.11361255645753 13.903141403198243 L 80.5 12.1 L 91.8 16.6 L 94.3 19.2 L 90.64149265289306 20.39732971191406 L 90.0 22.5 L 87.9 28.2 L 86.28545455932617 31.9 L 110.21818180084229 31.9 L 118.4 22.9 L 128.4 31.9 L 128.4 35.9 L 91.31538457870484 35.9 L 92.7 36.5 L 95.6 38.0 L 98.2 39.7 L 100.6 41.5 L 102.9 43.5 L 105.0 45.6 L 106.9 47.9 L 108.6 50.3 L 110.1 52.9 L 109.8 57.5 L 106.5 60.6 L 101.9 60.3 L 98.8 57.0 L 98.4 54.9 Z M 111.0 173.1 L 110.2 171.3 L 109.2 169.4 L 108.0 167.5 L 106.6 165.5 L 105.1 163.5 L 103.3 161.5 L 101.4 159.3 L 99.1 157.5 L 100.0 156.0 L 102.7 157.3 L 105.6 158.3 L 108.2 159.5 L 110.8 160.8 L 113.1 162.2 L 115.3 163.7 L 117.4 165.4 L 119.4 167.2 L 121.2 169.1 L 122.8 171.2 L 123.1 175.8 L 120.2 179.3 L 115.6 179.6 L 112.1 176.6 L 111.6 174.9 Z M 149.2 77.0 L 152.2 79.0 L 149.2 80.8 L 149.2 158.4 L 137.2 164.4 L 137.2 75.0 Z M 77.6 73.7 L 107.4 73.7 L 113.4 68.7 L 124.4 77.7 L 119.4 81.7 L 119.4 150.8 L 107.4 156.8 L 107.4 150.8 L 77.6 150.8 L 65.6 156.8 L 65.6 67.7 Z M 77.6 125.4 L 77.6 146.8 L 107.4 146.8 L 107.4 125.4 Z M 77.6 101.5 L 77.6 121.4 L 107.4 121.4 L 107.4 101.5 Z M 77.6 77.7 L 77.6 97.5 L 107.4 97.5 L 107.4 77.7 Z M 29.3 85.3 L 28.1 83.2 L 26.6 81.2 L 24.8 79.2 L 22.8 77.1 L 20.6 75.1 L 18.0 73.0 L 15.3 70.9 L 12.1 69.1 L 12.7 67.5 L 16.3 68.5 L 19.9 69.3 L 23.3 70.4 L 26.4 71.6 L 29.4 73.1 L 32.2 74.8 L 34.9 76.6 L 37.3 78.7 L 39.5 80.9 L 41.5 83.4 L 42.0 88.0 L 39.2 91.6 L 34.7 92.0 L 31.0 89.3 L 30.3 87.3 Z M 156.3 52.9 L 155.6 50.8 L 154.6 48.6 L 153.5 46.4 L 152.1 44.2 L 150.5 42.0 L 148.7 39.6 L 146.7 37.2 L 145.21428575515748 35.9 L 142.47058820724487 35.9 L 141.2 38.3 L 138.1 43.1 L 134.7 47.7 L 131.1 52.0 L 127.0 56.0 L 122.6 59.6 L 117.9 62.8 L 116.7 61.5 L 119.9 56.9 L 123.0 52.5 L 125.8 48.0 L 128.4 43.5 L 130.8 38.9 L 132.9 34.1 L 134.7 29.3 L 136.2 24.3 L 137.5 19.2 L 138.6 13.9 L 138.61361255645753 13.903141403198243 L 139.0 12.1 L 150.3 16.6 L 152.8 19.2 L 149.10376567840575 20.388075351715088 L 148.5 22.3 L 146.4 27.9 L 144.51320753097534 31.9 L 169.4181818008423 31.9 L 177.6 22.9 L 187.6 31.9 L 187.6 35.9 L 149.81538457870482 35.9 L 151.2 36.5 L 154.0 38.0 L 156.6 39.7 L 159.1 41.5 L 161.4 43.5 L 163.5 45.6 L 165.4 47.9 L 167.1 50.3 L 168.6 52.9 L 168.3 57.5 L 164.9 60.6 L 160.4 60.3 L 157.3 57.0 L 156.9 54.9 Z M 43.8 37.6 L 42.6 35.6 L 41.2 33.7 L 39.6 31.6 L 37.6 29.6 L 35.4 27.5 L 32.9 25.3 L 30.1 23.1 L 26.9 21.2 L 27.7 19.5 L 31.3 20.7 L 34.8 21.7 L 38.1 22.9 L 41.3 24.2 L 44.2 25.6 L 46.9 27.3 L 49.4 29.1 L 51.8 31.0 L 53.9 33.1 L 55.8 35.4 L 56.2 40.0 L 53.4 43.6 L 48.8 44.0 L 45.2 41.2 L 44.6 39.4 Z " />
</g>
</svg>
