<svg xmlns="http://www.w3.org/2000/svg" xmlns:xlink="http://www.w3.org/1999/xlink" version="1.1" baseProfile="full" viewBox="0 0 200 200" width="200" height="200">
<g fill="black">
<path d="M 72.9 60.7 L 66.95021190643311 65.44258470535279 L 64.5 74.1 L 60.3 88.4 L 56.4 101.3 L 52.9 112.8 L 49.8 122.9 L 47.2 131.5 L 45.1 138.7 L 43.4 144.5 L 42.2 148.9 L 41.5106463432312 151.85437259674072 L 42.1 152.9 L 44.3 159.1 L 45.8 166.0 L 46.6 173.4 L 46.7 181.4 L 44.6 185.5 L 40.2 186.9 L 36.2 184.8 L 34.7 180.5 L 35.2 173.5 L 35.2 167.2 L 34.6 161.4 L 33.4 156.2 L 31.7 151.6 L 29.4 147.4 L 26.5 143.6 L 22.9 140.2 L 18.6 137.0 L 13.4 134.1 L 13.9 132.4 L 20.1 133.5 L 25.8 135.7 L 30.8 138.7 L 33.32340116500855 140.9430233001709 L 35.6 135.4 L 38.5 128.4 L 41.8 120.0 L 45.7 110.3 L 50.2 99.2 L 55.2 86.7 L 60.9 72.8 L 62.686046504974364 68.58604650497436 L 58.5 71.6 L 57.4 70.3 L 63.4 63.4 L 66.27243089675903 60.124420928955075 L 67.3 57.7 L 68.17323741912841 57.95683450698853 L 69.1 56.9 L 74.4 50.6 L 74.5 50.480000019073486 L 74.5 48.0 L 75.95882349014282 48.72941179275513 L 79.4 44.6 L 83.8 38.7 L 87.9 33.0 L 91.4 27.6 L 94.5 22.3 L 97.2 17.2 L 98.98220090866089 13.230552577972412 L 98.9 13.2 L 99.9 11.1 L 110.2 17.4 L 112.0 20.5 L 108.15408582687378 20.89785318374634 L 107.1 22.7 L 103.6 28.0 L 102.86415090560914 29.0 L 142.0 29.0 L 142.4767123222351 28.60273971557617 L 143.1 27.5 L 143.47764186859132 27.768631839752196 L 148.0 24.0 L 159.0 33.0 L 154.0 36.0 L 149.43661975860596 37.9014084815979 L 148.6 38.7 L 146.3 40.9 L 143.9 43.1 L 141.3 45.3 L 138.5 47.5 L 135.6 49.8 L 132.6 52.0 L 129.6 54.0 L 169.11818180084228 54.0 L 177.3 45.0 L 187.3 54.0 L 187.3 58.0 L 86.5 58.0 L 86.5 98.0 L 85.9 111.0 L 84.8 123.2 L 83.1 134.5 L 80.9 145.0 L 78.1 154.6 L 74.7 163.4 L 70.7 171.2 L 66.2 178.1 L 61.0 183.9 L 55.2 188.6 L 54.0 187.3 L 58.0 181.5 L 61.6 175.2 L 64.8 168.3 L 67.6 160.7 L 69.9 152.3 L 71.8 143.1 L 73.2 133.0 L 74.1 122.2 L 74.5 110.5 L 74.5 59.303174591064455 Z M 108.1 152.3 L 165.3 152.3 L 171.3 147.3 L 182.3 156.3 L 177.3 160.3 L 177.3 180.6 L 165.3 186.6 L 165.3 178.6 L 108.1 178.6 L 108.1 181.6 L 96.1 187.6 L 96.1 146.3 Z M 108.1 156.3 L 108.1 174.6 L 165.3 174.6 L 165.3 156.3 Z M 86.9 138.7 L 130.7 138.7 L 130.7 119.9 L 98.2 119.9 L 98.2 115.9 L 157.01818180084229 115.9 L 165.2 106.9 L 175.2 115.9 L 175.2 119.9 L 142.7 119.9 L 142.7 138.7 L 168.3181818008423 138.7 L 176.5 129.7 L 186.5 138.7 L 186.5 142.7 L 86.9 142.7 Z M 89.0 97.0 L 98.9 94.6 L 102.4 93.7 L 105.9 92.9 L 113.3 91.1 L 117.1 90.2 L 119.8 89.64615383148194 L 119.8 78.2 L 92.4 78.2 L 92.4 74.2 L 119.8 74.2 L 119.8 59.4 L 130.8 61.4 L 133.6 63.4 L 130.8 65.15 L 130.8 104.8 L 119.8 110.3 L 119.8 93.7529411315918 L 118.8 94.4 L 115.5 96.4 L 112.1 98.4 L 108.8 100.2 L 105.6 102.0 L 102.4 103.6 L 99.2 105.3 L 97.00490865707397 106.36214103698731 L 96.0 110.5 L 93.1 108.3 L 87.1 97.7 Z M 183.3 84.9 L 185.3 84.9 L 183.3 97.9 L 186.0 99.7 L 187.8 102.4 L 186.0 105.1 L 183.3 106.9 L 158.1 106.9 L 155.6 106.8 L 153.3 106.5 L 151.1 105.9 L 148.9 104.8 L 147.0 103.4 L 145.4 101.6 L 144.2 99.5 L 143.3 97.2 L 142.8 94.8 L 142.6 92.4 L 142.6 59.4 L 153.6 61.4 L 156.3 63.4 L 153.6 65.12340421676636 L 153.6 79.375 L 154.4 78.9 L 160.4 75.3 L 163.2 73.6 L 165.9 71.8 L 168.5 70.1 L 170.9 68.4 L 173.2 66.7 L 174.58995819091797 65.62594146728516 L 174.5 65.5 L 174.60882873535155 65.61135959625244 L 175.4 65.0 L 177.5358738899231 68.60647563934326 L 183.1 74.3 L 183.2 77.8 L 179.36725149154663 76.21403512954711 L 178.7 76.5 L 172.7 78.7 L 169.5 79.7 L 166.3 80.6 L 162.9 81.5 L 159.4 82.3 L 155.8 83.0 L 153.6 83.2972972869873 L 153.6 92.4 L 153.5 93.7 L 153.6 94.7 L 153.7 95.4 L 153.9 95.9 L 154.1 96.3 L 154.4 96.7 L 154.8 97.0 L 155.6 97.4 L 156.7 97.7 L 158.1 97.9 L 178.8 97.9 Z M 31.0 85.5 L 29.6 83.4 L 27.9 81.4 L 26.0 79.3 L 23.7 77.2 L 21.2 75.1 L 18.4 73.1 L 15.3 70.9 L 11.8 69.1 L 12.4 67.4 L 16.3 68.4 L 20.2 69.2 L 23.8 70.3 L 27.2 71.5 L 30.4 73.0 L 33.4 74.6 L 36.2 76.5 L 38.7 78.5 L 41.1 80.8 L 43.3 83.3 L 43.9 87.8 L 41.2 91.5 L 36.7 92.2 L 33.0 89.5 L 32.1 87.5 Z M 99.92075471878051 33.0 L 99.7 33.3 L 95.2 38.7 L 90.3 44.1 L 85.0 49.6 L 82.50941181182861 52.00470590591431 L 86.5 54.0 L 125.84838705062866 54.0 L 127.3 52.2 L 129.5 48.9 L 131.6 45.9 L 133.6 42.9 L 135.5 40.1 L 137.3 37.4 L 140.00769233703613 33.0 Z M 46.7 37.8 L 45.4 35.8 L 43.8 33.8 L 41.9 31.8 L 39.7 29.7 L 37.2 27.5 L 34.5 25.4 L 31.4 23.1 L 28.0 21.2 L 28.6 19.5 L 32.5 20.7 L 36.3 21.6 L 39.9 22.8 L 43.3 24.1 L 46.4 25.5 L 49.3 27.2 L 52.0 28.9 L 54.4 30.9 L 56.7 33.0 L 58.7 35.3 L 59.3 39.8 L 56.6 43.5 L 52.1 44.1 L 48.4 41.4 L 47.7 39.6 Z " />
</g>
</svg>
