<svg xmlns="http://www.w3.org/2000/svg" xmlns:xlink="http://www.w3.org/1999/xlink" version="1.1" baseProfile="full" viewBox="0 0 200 200" width="200" height="200">
<g fill="black">
<path d="M 171.41322317123414 131.06942148208617 L 168.0 133.8 L 168.0 181.0 L 156.0 187.0 L 156.0 179.0 L 110.7 179.0 L 110.7 182.0 L 98.7 188.0 L 98.7 127.51492538452149 L 97.0 128.2 L 89.8 130.4 L 82.3 132.1 L 81.7 130.4 L 88.4 126.9 L 94.7 123.3 L 98.7 120.85932207107544 L 98.7 119.8 L 99.65419845581054 120.27709922790527 L 100.6 119.7 L 106.0 116.0 L 111.0 112.2 L 115.6 108.2 L 119.7 104.0 L 123.4 99.6 L 126.6 95.1 L 128.90989217758178 91.30517721176147 L 128.9 91.3 L 129.1199999809265 90.96000003814697 L 129.4 90.5 L 129.41255130767823 90.50787534713746 L 130.0 89.6 L 139.6 96.9 L 141.1 100.1 L 140.87160625457764 100.09606218338013 L 143.1 101.9 L 147.3 105.1 L 151.7 108.1 L 156.2 110.9 L 161.0 113.4 L 165.9 115.7 L 171.0 117.8 L 176.4 119.7 L 182.0 121.3 L 189.5 123.8 L 177.9 133.9 L 171.9 131.3 Z M 37.3 186.9 L 33.2 184.8 L 31.7 180.5 L 32.3 173.5 L 32.4 167.1 L 31.9 161.3 L 30.9 156.1 L 29.5 151.4 L 28.086545372009276 148.50241804122925 L 27.7 148.4 L 27.856564044952393 148.03095626831055 L 27.5 147.3 L 25.0 143.5 L 21.9 140.1 L 18.2 137.0 L 13.7 134.1 L 14.2 132.4 L 19.8 133.6 L 25.0 135.8 L 29.6 138.9 L 31.202240180969238 140.46316118240355 L 33.5 135.5 L 36.6 129.1 L 40.3 121.5 L 44.7 112.8 L 49.7 102.9 L 55.4 91.9 L 61.8 79.8 L 69.1 66.6 L 70.7 67.3 L 65.3 81.4 L 60.3 94.1 L 55.7 105.6 L 51.6 115.9 L 48.1 124.9 L 45.2 132.7 L 42.8 139.3 L 41.0 144.7 L 39.9 148.8 L 39.4 151.5 L 38.84196138381958 151.35214366912842 L 39.7 153.1 L 41.7 159.3 L 43.1 166.1 L 43.7 173.5 L 43.7 181.4 L 41.6 185.5 Z M 110.7 161.9 L 110.7 175.0 L 156.0 175.0 L 156.0 161.9 Z M 110.7 145.9 L 110.7 157.9 L 156.0 157.9 L 156.0 145.9 Z M 110.7 129.8 L 110.7 141.9 L 156.0 141.9 L 156.0 129.8 Z M 135.7 102.0 L 131.4 106.8 L 126.7 111.2 L 121.5 115.3 L 116.0 119.1 L 110.0 122.5 L 106.97804880142212 123.93902435302735 L 110.7 125.8 L 156.0 125.8 L 158.3333333015442 123.8555555343628 L 155.7 122.1 L 150.9 118.5 L 146.5 114.6 L 142.5 110.4 L 138.8 106.0 L 135.98010425567628 101.63370981216431 Z M 122.2 86.2 L 123.3 89.6 L 119.16318349838257 89.10072908401489 L 116.7 91.3 L 113.6 93.6 L 110.4 95.9 L 106.9 97.9 L 103.3 99.9 L 99.5 101.7 L 95.6 103.3 L 87.0 106.1 L 86.3 104.5 L 89.9 102.0 L 93.3 99.3 L 96.5 96.7 L 99.4 94.1 L 102.2 91.5 L 104.8 89.0 L 107.1 86.4 L 109.2 83.9 L 111.1 81.3 L 112.25349025726318 79.53583841323852 L 112.2 79.5 L 112.5384614944458 79.1 L 112.8 78.7 L 112.84592084884643 78.73663902282715 L 113.3 78.2 Z M 165.3 98.5 L 163.6 96.5 L 159.5 92.4 L 157.2 90.4 L 154.7 88.3 L 152.1 86.1 L 149.3 83.9 L 146.1 82.0 L 146.8 80.3 L 150.4 81.5 L 154.0 82.4 L 157.4 83.5 L 160.6 84.7 L 163.7 86.0 L 166.7 87.5 L 169.5 89.1 L 172.2 90.7 L 174.7 92.5 L 177.1 94.4 L 178.6 98.7 L 176.7 102.9 L 172.4 104.4 L 168.3 102.5 L 166.9 100.6 Z M 32.2 83.4 L 30.8 81.4 L 29.1 79.4 L 27.1 77.3 L 24.8 75.2 L 22.1 73.2 L 19.1 71.1 L 15.8 68.9 L 12.1 67.1 L 12.7 65.4 L 16.8 66.4 L 20.8 67.2 L 24.6 68.2 L 28.1 69.5 L 31.4 70.9 L 34.5 72.6 L 37.3 74.5 L 40.0 76.5 L 42.3 78.8 L 44.4 81.4 L 44.9 85.9 L 42.1 89.6 L 37.6 90.1 L 34.0 87.3 L 33.2 85.4 Z M 171.16610174179078 55.87457628250122 L 170.8 56.2 L 168.8 57.7 L 167.2 59.6 L 165.7 58.6 L 166.9 56.4 L 169.3 49.5 L 170.1 47.4 L 170.8 45.3 L 171.6 43.3 L 171.78421049118043 42.8 L 122.8 42.8 L 125.8 44.8 L 122.8 46.6 L 122.8 56.62316598892212 L 140.02169771194457 55.02733306884765 L 149.1 44.2 L 161.9 53.0 L 162.3 57.0 L 122.8 60.65552701950073 L 122.8 64.6 L 123.0 65.5 L 123.2 66.1 L 123.3 66.5 L 123.5 66.7 L 123.7 66.8 L 124.0 67.0 L 124.6 67.2 L 125.5 67.3 L 126.8 67.4 L 168.4 67.4 Z M 46.1 37.5 L 44.7 35.4 L 43.0 33.4 L 41.1 31.3 L 38.8 29.2 L 36.3 27.1 L 33.5 25.1 L 30.5 22.9 L 27.1 21.1 L 27.7 19.4 L 31.5 20.4 L 35.3 21.2 L 38.9 22.3 L 42.3 23.5 L 45.5 25.0 L 48.5 26.7 L 51.2 28.5 L 53.8 30.5 L 56.2 32.8 L 58.4 35.2 L 59.1 39.8 L 56.5 43.5 L 51.9 44.2 L 48.2 41.6 L 47.3 39.5 Z M 81.8 123.0 L 80.7 134.0 L 79.1 144.2 L 77.2 153.7 L 74.9 162.5 L 72.2 170.4 L 69.1 177.6 L 65.4 183.8 L 61.4 189.1 L 59.8 188.2 L 62.0 182.2 L 64.1 175.6 L 65.9 168.5 L 67.5 160.7 L 68.8 152.2 L 69.9 143.0 L 70.7 133.1 L 71.1 122.4 L 71.3 111.0 L 71.2 98.9 L 71.2 32.8 L 83.2 38.8 L 115.1 38.8 L 115.1 12.2 L 127.1 14.2 L 130.1 16.2 L 127.1 18.0 L 127.1 23.5 L 152.61818180084228 23.5 L 160.8 14.5 L 170.8 23.5 L 170.8 27.5 L 127.1 27.5 L 127.1 38.8 L 172.7 38.8 L 173.34109592437744 38.26575345993042 L 173.6 37.6 L 173.9101351737976 37.791554069519044 L 178.7 33.8 L 189.7 42.8 L 184.7 45.8 L 179.9 47.8 L 177.8 49.9 L 176.1 51.4 L 175.64580154418945 51.8274808883667 L 174.4 67.4 L 178.0 69.8 L 180.4 73.4 L 178.0 77.0 L 174.4 79.4 L 126.8 79.4 L 124.2 79.3 L 121.7 78.8 L 119.3 78.0 L 117.0 76.8 L 115.0 75.1 L 113.4 73.1 L 112.1 70.9 L 111.3 68.5 L 110.9 66.0 L 110.8 63.4 L 110.8 61.76606683731079 L 84.5 64.2 L 84.2 60.2 L 110.8 57.73513517379761 L 110.8 42.8 L 83.2 42.8 L 83.2 98.9 L 82.7 111.3 Z " />
</g>
</svg>
