<svg xmlns="http://www.w3.org/2000/svg" xmlns:xlink="http://www.w3.org/1999/xlink" version="1.1" baseProfile="full" viewBox="0 0 200 200" width="200" height="200">
<g fill="black">
<path d="M 88.7 104.2 L 87.8 102.0 L 85.6 97.6 L 84.3 95.5 L 82.9 93.3 L 82.1 92.18000001907349 L 82.1 183.0 L 70.1 189.0 L 70.1 104.38888893127441 L 68.9 108.3 L 65.9 116.9 L 62.7 125.2 L 59.1 133.3 L 55.2 141.0 L 50.8 148.3 L 49.2 147.6 L 51.7 139.5 L 54.1 131.4 L 56.5 123.1 L 58.7 114.7 L 60.7 106.1 L 62.6 97.3 L 64.3 88.3 L 65.8 79.1 L 67.1 69.7 L 67.87011489868163 63.0 L 63.054430389404295 63.0 L 60.2 74.0 L 56.3 88.4 L 52.8 101.3 L 49.5 112.7 L 46.7 122.8 L 44.3 131.4 L 42.4 138.6 L 40.9 144.4 L 39.8 148.8 L 39.1 151.8 L 38.87625551223755 151.7273811340332 L 39.6 153.1 L 41.7 159.2 L 43.1 166.0 L 43.8 173.4 L 43.9 181.4 L 41.8 185.4 L 37.5 186.9 L 33.4 184.9 L 31.9 180.5 L 32.4 173.5 L 32.4 167.1 L 31.9 161.3 L 30.8 156.1 L 29.2 151.5 L 27.1 147.3 L 24.5 143.6 L 21.2 140.2 L 17.3 137.0 L 12.6 134.1 L 13.2 132.4 L 19.0 133.6 L 24.3 135.7 L 29.0 138.8 L 30.88815793991089 140.59824562072754 L 32.8 135.5 L 35.5 128.5 L 38.7 120.1 L 42.3 110.4 L 46.5 99.2 L 51.2 86.7 L 56.6 72.9 L 60.50789470672608 63.0 L 50.0 63.0 L 50.0 59.0 L 62.08684206008911 59.0 L 62.6 57.7 L 64.3 58.2 L 64.09240503311158 59.0 L 70.1 59.0 L 70.1 14.0 L 82.1 16.0 L 85.1 18.0 L 82.1 19.8 L 82.1 59.0 L 85.9777777671814 59.0 L 92.2 52.0 L 100.2 59.0 L 100.2 63.0 L 82.1 63.0 L 82.1 87.36666669845582 L 83.9 88.1 L 86.4 89.5 L 88.8 91.0 L 91.1 92.7 L 93.3 94.6 L 95.4 96.6 L 97.4 98.8 L 99.3 101.2 L 101.0 103.7 L 101.2 108.2 L 98.2 111.7 L 93.7 111.8 L 90.2 108.8 L 89.5 106.5 Z M 122.6 130.8 L 160.3 130.8 L 166.3 125.8 L 177.3 134.8 L 172.3 138.8 L 172.3 181.4 L 160.3 187.4 L 160.3 179.4 L 122.6 179.4 L 122.6 182.4 L 110.6 188.4 L 110.6 124.8 Z M 122.6 157.1 L 122.6 175.4 L 160.3 175.4 L 160.3 157.1 Z M 122.6 134.8 L 122.6 153.1 L 160.3 153.1 L 160.3 134.8 Z M 171.8 64.9 L 167.1 60.5 L 162.6 55.7 L 158.3 50.5 L 154.2 45.1 L 150.4 39.2 L 146.9 33.0 L 143.8 26.3 L 143.76345539093018 26.205254745483398 L 140.1 32.2 L 135.4 39.1 L 130.3 45.7 L 125.0 51.9 L 119.4 57.7 L 113.5 63.1 L 107.3 68.1 L 104.96075944900512 69.73037977218628 L 115.3 74.9 L 167.7 74.9 L 173.7 69.9 L 184.7 78.9 L 179.7 82.9 L 179.7 116.6 L 167.7 122.6 L 167.7 116.6 L 115.3 116.6 L 103.3 122.6 L 103.3 70.88787879943848 L 100.7 72.7 L 93.8 76.7 L 92.8 75.2 L 98.4 69.7 L 103.7 64.1 L 108.9 58.5 L 113.8 52.6 L 118.5 46.5 L 122.8 40.2 L 127.0 33.6 L 130.8 26.8 L 134.4 19.7 L 137.37387132644653 13.22745656967163 L 137.3 13.2 L 138.3 11.1 L 148.6 17.4 L 150.5 20.5 L 146.7164824485779 20.891398334503172 L 145.91811761856079 22.37129411697388 L 147.4 24.2 L 151.9 29.7 L 156.3 34.9 L 160.7 39.8 L 165.2 44.3 L 169.8 48.4 L 174.4 52.2 L 179.1 55.6 L 183.8 58.6 L 188.7 61.3 L 193.1 63.9 L 181.9 72.6 L 176.8 68.9 Z M 115.3 78.9 L 115.3 112.6 L 135.5 112.6 L 135.5 78.9 Z M 147.5 78.9 L 147.5 112.6 L 167.7 112.6 L 167.7 92.61034479141236 L 164.91381959915162 92.80249519348145 L 164.6 93.2 L 163.0 95.2 L 161.4 97.3 L 159.7 99.3 L 157.9 101.4 L 156.0 103.5 L 154.0 105.6 L 151.9 107.7 L 150.1 110.1 L 148.5 109.1 L 149.8 106.5 L 150.6 103.6 L 151.5 100.9 L 152.3 98.2 L 153.2 95.7 L 154.0 93.2 L 154.8 90.8 L 156.2 86.2 L 156.53946781158447 84.9552845954895 L 156.4 84.9 L 156.73999996185302 84.21999998092652 L 156.8 84.0 L 156.8400749206543 84.01985015869141 L 157.4 82.9 L 167.5 89.3 L 167.7 89.65555553436279 L 167.7 78.9 Z M 122.1 98.5 L 121.7 96.5 L 121.2 94.5 L 120.6 92.6 L 119.2 88.6 L 118.4 86.6 L 117.2 84.9 L 118.4 83.6 L 120.1 85.1 L 122.1 86.3 L 124.0 87.7 L 125.7 89.2 L 127.4 90.9 L 129.0 92.7 L 130.5 94.6 L 131.9 96.7 L 133.2 98.9 L 134.4 101.1 L 133.9 105.7 L 130.4 108.6 L 125.8 108.1 L 122.9 104.6 L 122.7 102.5 Z M 28.5 85.3 L 27.3 83.3 L 25.8 81.2 L 24.0 79.2 L 22.0 77.1 L 19.7 75.1 L 17.2 73.0 L 14.4 70.9 L 11.1 69.1 L 11.8 67.5 L 15.4 68.5 L 19.0 69.3 L 22.4 70.4 L 25.6 71.6 L 28.6 73.1 L 31.4 74.8 L 34.1 76.6 L 36.5 78.7 L 38.7 80.9 L 40.7 83.4 L 41.2 87.9 L 38.5 91.6 L 33.9 92.1 L 30.3 89.3 L 29.5 87.3 Z M 162.0 59.0 L 162.0 63.0 L 120.9 63.0 L 120.9 59.0 L 143.8181818008423 59.0 L 152.0 50.0 Z M 43.1 37.6 L 41.9 35.7 L 40.5 33.7 L 38.8 31.6 L 36.9 29.6 L 34.6 27.5 L 32.1 25.3 L 29.3 23.1 L 26.1 21.2 L 26.8 19.5 L 30.4 20.7 L 34.0 21.7 L 37.4 22.8 L 40.5 24.2 L 43.5 25.6 L 46.2 27.3 L 48.7 29.0 L 51.1 31.0 L 53.2 33.1 L 55.1 35.4 L 55.5 40.0 L 52.7 43.6 L 48.2 44.0 L 44.6 41.2 L 44.0 39.4 Z " />
</g>
</svg>
