<svg xmlns="http://www.w3.org/2000/svg" xmlns:xlink="http://www.w3.org/1999/xlink" version="1.1" baseProfile="full" viewBox="0 0 200 200" width="200" height="200">
<g fill="black">
<path d="M 84.5 116.8 L 83.4 127.0 L 82.0 136.7 L 80.1 145.9 L 77.8 154.5 L 75.1 162.5 L 71.9 170.0 L 68.3 176.9 L 64.2 183.0 L 59.6 188.5 L 58.1 187.4 L 60.9 181.1 L 63.5 174.6 L 65.8 167.6 L 67.9 160.3 L 69.6 152.4 L 71.0 144.1 L 72.0 135.3 L 72.7 126.0 L 73.1 116.2 L 73.2 105.9 L 73.2 61.70377359390259 L 70.9 63.7 L 68.6327935218811 65.40040483474732 L 66.1 74.1 L 61.7 88.5 L 57.7 101.4 L 54.1 112.8 L 51.0 122.9 L 48.3 131.5 L 46.1 138.8 L 44.4 144.6 L 43.1 149.0 L 42.427148246765135 151.88365020751954 L 43.0 152.9 L 45.3 159.1 L 46.8 166.0 L 47.6 173.4 L 47.7 181.4 L 45.5 185.5 L 41.2 186.9 L 37.2 184.8 L 35.7 180.5 L 36.2 173.5 L 36.2 167.2 L 35.5 161.4 L 34.3 156.3 L 32.5 151.7 L 30.2 147.5 L 27.2 143.7 L 23.5 140.2 L 19.0 137.0 L 13.7 134.1 L 14.2 132.4 L 20.5 133.5 L 26.3 135.6 L 31.5 138.7 L 34.22633981704712 141.06282777786254 L 34.3 140.9 L 36.6 135.3 L 39.5 128.4 L 43.0 120.0 L 47.0 110.3 L 51.5 99.1 L 56.7 86.6 L 62.5 72.8 L 64.33719339370728 68.50379400253296 L 59.4 71.6 L 58.3 70.3 L 62.8 65.0 L 67.1 59.8 L 71.3 54.6 L 73.2 52.14390239715576 L 73.2 49.0 L 74.95374145507813 49.876870727539064 L 75.4 49.3 L 79.2 43.8 L 82.8 38.2 L 86.2 32.5 L 89.4 26.6 L 92.4 20.5 L 94.70694103240967 15.202579879760743 L 94.7 15.2 L 94.79433965682983 15.001886749267578 L 95.1 14.3 L 95.1233654975891 14.310932445526124 L 95.7 13.1 L 106.0 19.4 L 107.8 22.5 L 104.09508848190308 22.883266735076905 L 102.5 25.8 L 99.92580642700196 30.0 L 140.2 30.0 L 140.7777777671814 29.51851854324341 L 141.0 29.0 L 141.23890781402588 29.134243488311768 L 146.2 25.0 L 157.2 34.0 L 152.2 37.0 L 148.82429904937743 38.406542015075686 L 147.2 40.4 L 144.9 43.0 L 142.4 45.5 L 139.8 47.9 L 137.1 50.3 L 134.3 52.5 L 131.3 54.6 L 130.66000003814696 55.0 L 168.61818180084228 55.0 L 176.8 46.0 L 186.8 55.0 L 186.8 59.0 L 85.2 59.0 L 85.2 106.0 L 85.09090909957885 106.16363639831543 Z M 108.3 161.1 L 165.6 161.1 L 171.6 156.1 L 182.6 165.1 L 177.6 169.1 L 177.6 181.7 L 165.6 187.7 L 165.6 181.7 L 108.3 181.7 L 96.3 187.7 L 96.3 155.1 Z M 108.3 165.1 L 108.3 177.7 L 165.6 177.7 L 165.6 165.1 Z M 173.9 147.8 L 173.9 151.8 L 100.0 151.8 L 100.0 147.8 L 159.6777777671814 147.8 L 165.9 140.8 Z M 173.9 134.5 L 173.9 138.5 L 100.0 138.5 L 100.0 134.5 L 159.6777777671814 134.5 L 165.9 127.5 Z M 186.2 121.3 L 186.2 125.3 L 87.7 125.3 L 87.7 121.3 L 171.9777777671814 121.3 L 178.2 114.3 Z M 183.1 85.0 L 185.1 85.0 L 183.1 94.0 L 185.5 95.6 L 187.1 98.0 L 185.5 100.4 L 183.1 102.0 L 157.842857170105 102.0 L 164.7 108.0 L 164.7 112.0 L 109.2 112.0 L 109.2 108.0 L 150.4777777671814 108.0 L 155.81111106872558 102.0 L 155.4 102.0 L 153.1 101.7 L 150.9 101.1 L 148.8 100.2 L 146.9 98.8 L 145.3 97.1 L 144.0 95.0 L 143.1 92.8 L 142.6 90.4 L 142.3 88.0 L 142.3 61.8 L 153.3 63.8 L 156.0 65.8 L 153.3 67.52340421676635 L 153.3 78.40625 L 154.2 77.9 L 157.3 76.3 L 160.3 74.7 L 163.2 73.1 L 165.9 71.6 L 168.5 70.1 L 171.0 68.6 L 173.3 67.0 L 174.64905014038087 66.08019304275513 L 174.6 66.0 L 174.66979885101318 66.06604623794556 L 175.5 65.5 L 176.78265304565429 68.0653060913086 L 183.9 74.8 L 184.0 78.1 L 180.25974941253662 76.50579481124878 L 178.1 77.2 L 175.2 78.1 L 172.2 78.9 L 169.1 79.7 L 165.8 80.4 L 162.5 81.0 L 159.0 81.6 L 155.5 82.0 L 153.3 82.17368421554565 L 153.3 88.0 L 153.2 89.3 L 153.2 90.3 L 153.3 91.1 L 153.5 91.6 L 153.6 92.1 L 153.9 92.5 L 154.4 93.0 L 155.2 93.4 L 156.3 93.7 L 157.8 94.0 L 179.1 94.0 Z M 88.9 92.5 L 92.1 91.9 L 95.4 91.3 L 98.8 90.6 L 102.2 90.0 L 105.8 89.3 L 109.4 88.7 L 113.1 88.0 L 116.9 87.4 L 119.5 87.0666666984558 L 119.5 78.0 L 91.9 78.0 L 91.9 74.0 L 119.5 74.0 L 119.5 61.8 L 130.5 63.8 L 133.2 65.8 L 130.5 67.52340421676635 L 130.5 99.6 L 119.5 105.1 L 119.5 90.89411764144897 L 118.3 91.6 L 114.9 93.5 L 111.5 95.2 L 104.9 98.4 L 101.7 99.8 L 98.5 101.3 L 96.34694538116455 102.20289392471314 L 95.1 106.3 L 92.3 104.0 L 87.0 93.0 Z M 31.9 85.5 L 30.5 83.5 L 28.7 81.4 L 26.7 79.3 L 24.4 77.3 L 21.7 75.2 L 18.8 73.1 L 15.7 70.9 L 12.1 69.1 L 12.7 67.4 L 16.7 68.4 L 20.6 69.2 L 24.3 70.2 L 27.7 71.5 L 31.0 73.0 L 34.1 74.6 L 36.9 76.5 L 39.6 78.5 L 42.0 80.8 L 44.2 83.2 L 44.9 87.8 L 42.2 91.5 L 37.7 92.2 L 34.0 89.6 L 33.1 87.6 Z M 97.34406776428223 34.0 L 94.7 37.9 L 90.4 43.6 L 85.9 49.0 L 81.94701986312866 53.37350997924805 L 85.2 55.0 L 125.77142858505249 55.0 L 126.2 54.5 L 128.2 51.5 L 130.2 48.6 L 132.1 45.8 L 133.9 43.0 L 135.6 40.2 L 137.1 37.4 L 138.5 34.6 L 138.77857141494752 34.0 Z M 48.0 37.8 L 46.7 35.9 L 45.0 33.9 L 43.1 31.8 L 40.8 29.7 L 38.2 27.6 L 35.3 25.4 L 32.2 23.1 L 28.6 21.2 L 29.3 19.5 L 33.3 20.6 L 37.2 21.6 L 40.8 22.7 L 44.2 24.0 L 47.4 25.5 L 50.4 27.1 L 53.1 28.9 L 55.7 30.8 L 58.0 32.9 L 60.0 35.3 L 60.7 39.8 L 58.0 43.5 L 53.5 44.2 L 49.8 41.5 L 49.0 39.7 Z " />
</g>
</svg>
