<svg xmlns="http://www.w3.org/2000/svg" xmlns:xlink="http://www.w3.org/1999/xlink" version="1.1" baseProfile="full" viewBox="0 0 200 200" width="200" height="200">
<g fill="black">
<path d="M 154.5 184.3 L 150.3 185.7 L 148.1 186.2 L 146.0 186.6 L 143.8 187.0 L 141.5 187.2 L 139.3 187.4 L 137.1 187.4 L 137.1 181.4 L 117.1 178.4 L 117.1 175.4 L 138.8 175.4 L 140.5 175.3 L 142.2 175.1 L 143.9 174.8 L 145.5 174.5 L 147.2 174.1 L 150.4 173.1 L 153.6 171.7 L 155.2 170.8 L 156.7 169.7 L 158.2 168.2 L 159.6 166.4 L 160.9 164.3 L 162.2 161.7 L 163.3 158.8 L 164.3 155.5 L 165.2 151.8 L 165.43414630889893 150.6 L 78.18045978546142 150.6 L 76.7 155.2 L 63.5 157.3 L 75.5 119.7 L 83.15957450866699 127.2 L 160.6 127.2 L 160.6 112.2 L 68.1 112.2 L 68.1 108.2 L 160.6 108.2 L 166.6 103.2 L 177.6 112.2 L 172.6 116.2 L 172.6 131.2 L 160.6 137.2 L 160.6 131.2 L 84.4241379737854 131.2 L 79.46781606674195 146.6 L 165.9 146.6 L 171.9 141.6 L 182.9 150.6 L 177.9 153.6 L 177.04122133255004 153.95782442092894 L 177.0 154.2 L 175.9 158.6 L 174.7 162.7 L 173.2 166.5 L 171.4 170.1 L 169.4 173.3 L 167.2 176.2 L 164.6 178.7 L 161.8 180.9 L 158.7 182.6 L 156.6 183.5 Z M 32.1 186.9 L 28.0 184.9 L 26.5 180.6 L 27.0 173.5 L 27.1 167.0 L 26.8 161.1 L 26.1 155.8 L 25.0 151.1 L 24.191655349731445 148.89052467346193 L 23.3 148.7 L 23.698173999786377 147.54167566299438 L 23.5 147.0 L 21.7 143.3 L 19.4 140.0 L 16.7 137.0 L 13.4 134.2 L 14.0 132.5 L 18.7 133.7 L 23.0 136.0 L 26.765636730194093 139.17106256484985 L 28.0 135.9 L 30.6 129.4 L 33.6 121.8 L 37.2 113.0 L 41.3 103.1 L 46.0 92.1 L 51.3 79.9 L 57.3 66.6 L 59.0 67.3 L 54.9 81.2 L 51.0 93.9 L 47.5 105.4 L 44.4 115.6 L 41.7 124.6 L 39.4 132.4 L 37.6 139.0 L 36.2 144.4 L 35.4 148.5 L 35.0 151.2 L 34.127773952484134 151.01362686157228 L 35.1 153.4 L 36.7 159.5 L 37.8 166.2 L 38.4 173.5 L 38.5 181.3 L 36.4 185.4 Z M 176.2 92.5 L 176.0 90.2 L 175.88139533996582 89.21162786483765 L 171.8 91.2 L 167.9 93.0 L 164.1 94.6 L 160.4 96.2 L 156.6 97.7 L 153.0 99.1 L 149.3 100.5 L 146.33309001922606 101.60199508666992 L 144.9 105.5 L 142.3 103.0 L 139.5 96.65714282989502 L 139.5 97.9 L 127.5 103.9 L 127.5 97.9 L 112.8 97.9 L 100.8 103.9 L 100.8 96.07142858505249 L 98.2 98.3 L 93.6 97.7 L 90.7 94.2 L 90.4 91.9 L 90.15318355560302 89.92546815872193 L 88.4 91.0 L 85.1 92.7 L 81.7 94.4 L 74.7 97.6 L 67.3 100.6 L 63.57676763534546 102.06969699859619 L 62.3 105.9 L 59.6 103.5 L 54.5 92.5 L 56.4 91.9 L 60.5 91.2 L 62.61445779800415 90.82048196792603 L 63.5 89.1 L 66.8 82.5 L 70.2 76.2 L 73.5 70.0 L 76.6 64.0 L 79.6 58.2 L 82.5 52.5 L 85.1 47.0 L 87.7 41.6 L 89.60163068771362 37.30066108703613 L 89.6 37.3 L 89.61666669845582 37.26666669845581 L 90.0 36.4 L 90.03992538452148 36.42014923095703 L 90.6 35.3 L 100.7 41.8 L 102.5 44.9 L 98.72325582504273 45.16046514511108 L 97.7 46.9 L 94.6 52.2 L 91.2 57.5 L 87.6 62.9 L 83.9 68.4 L 79.9 74.0 L 75.8 79.7 L 71.3 85.5 L 67.65960931777954 89.91494188308715 L 68.3 89.8 L 75.9 88.4 L 83.3 87.2 L 86.9 86.6 L 89.458571434021 86.38678569793701 L 89.2 84.9 L 88.0 80.3 L 87.3 78.0 L 86.5 75.7 L 85.8 73.3 L 84.6 71.3 L 86.0 70.1 L 87.7 71.9 L 89.8 73.6 L 91.7 75.3 L 95.1 79.3 L 96.7 81.4 L 98.3 83.6 L 99.7 85.9 L 100.8 87.9307692527771 L 100.8 68.2 L 112.8 74.2 L 127.5 74.2 L 133.5 69.2 L 144.5 78.2 L 139.5 82.2 L 139.5 91.37297296524048 L 143.0 90.9 L 146.40974521636963 90.34706830978394 L 148.1 87.1 L 151.9 80.2 L 155.4 73.6 L 158.9 67.4 L 161.35031614303588 62.73649501800537 L 159.4 64.4 L 154.8 64.0 L 151.9 60.6 L 152.0 59.8 L 151.8 58.6 L 151.3 57.0 L 150.5 55.2 L 149.4 53.1 L 147.9 50.9 L 146.2 48.4 L 144.3 45.7 L 142.1 42.8 L 139.3 40.0 L 140.4 38.7 L 143.7 40.9 L 146.9 42.8 L 147.5884174346924 43.22729358673096 L 149.2 40.5 L 151.3 36.2 L 153.3 32.3 L 155.2 28.7 L 156.8 25.4 L 158.3 22.5 L 159.5 19.8 L 160.5 17.5 L 161.2 15.5 L 161.41945133209228 14.79775562286377 L 161.2 14.7 L 162.2 12.9 L 172.2 19.6 L 173.9 22.7 L 169.35783128738404 22.934939765930174 L 169.3 23.0 L 167.5 25.0 L 165.5 27.3 L 163.3 29.8 L 160.7 32.6 L 158.0 35.6 L 154.9 38.8 L 151.5 42.2 L 149.47517318725585 44.39838333129883 L 149.8 44.6 L 152.5 46.4 L 154.9 48.1 L 157.0 49.8 L 158.9 51.5 L 160.6 53.2 L 162.1 55.0 L 163.3 56.9 L 163.00363636016846 59.626545429229736 L 165.0 55.9 L 167.7 50.6 L 170.2 45.6 L 172.4 40.8 L 173.89489879608155 37.3381290435791 L 173.8 37.3 L 174.8 35.3 L 185.0 41.8 L 186.8 44.9 L 183.0138889312744 45.16111106872559 L 182.4 46.2 L 179.5 50.8 L 176.4 55.6 L 173.0 60.7 L 169.2 66.0 L 165.3 71.5 L 160.9 77.2 L 156.3 83.1 L 151.3 89.2 L 150.9285919189453 89.61867818832397 L 158.2 88.5 L 162.2 87.9 L 166.3 87.3 L 170.5 86.7 L 174.8 86.3 L 175.41428575515747 86.21428575515748 L 175.2 85.1 L 174.6 82.4 L 173.8 79.5 L 172.8 76.5 L 171.8 73.3 L 170.2 70.2 L 171.7 69.2 L 173.9 71.9 L 176.3 74.5 L 178.5 77.0 L 180.4 79.6 L 182.2 82.2 L 183.7 84.8 L 185.1 87.4 L 186.2 90.1 L 187.2 92.7 L 188.0 95.4 L 186.6 99.8 L 182.7 102.0 L 178.3 100.7 L 176.1 96.7 L 176.2 94.7 Z M 112.8 78.2 L 112.8 93.9 L 127.5 93.9 L 127.5 78.2 Z M 26.9 82.9 L 26.0 80.9 L 24.8 79.0 L 23.3 77.0 L 21.6 75.0 L 19.7 73.0 L 17.5 70.9 L 15.0 68.8 L 12.1 67.2 L 12.8 65.5 L 16.1 66.6 L 19.4 67.4 L 22.5 68.5 L 25.4 69.8 L 28.2 71.2 L 30.8 72.9 L 33.1 74.8 L 35.3 76.9 L 37.3 79.2 L 39.1 81.8 L 39.1 86.3 L 36.1 89.7 L 31.5 89.8 L 28.1 86.7 L 27.6 84.8 Z M 137.0 61.2 L 137.0 65.2 L 103.2 65.2 L 103.2 61.2 L 122.77777776718139 61.2 L 129.0 54.2 Z M 65.9 56.6 L 65.3 54.5 L 64.5 52.4 L 63.6 50.3 L 62.6 48.2 L 61.4 46.1 L 60.0 44.0 L 58.6 41.8 L 56.6 40.0 L 57.7 38.5 L 60.0 39.9 L 62.6 41.1 L 65.0 42.5 L 65.38275861740112 42.74962520599365 L 66.8 40.1 L 68.7 35.9 L 70.5 32.1 L 72.1 28.5 L 73.6 25.3 L 74.9 22.3 L 76.0 19.7 L 76.9 17.3 L 77.6 15.2 L 77.82088069915771 14.449005699157714 L 77.7 14.4 L 78.09056606292725 13.532075500488281 L 78.1 13.5 L 78.10407466888428 13.502056312561034 L 78.6 12.4 L 88.8 18.9 L 90.6 22.1 L 86.06909790039063 22.412475967407225 L 86.0 22.5 L 84.2 24.6 L 82.3 26.9 L 80.2 29.4 L 77.8 32.2 L 75.2 35.2 L 72.3 38.4 L 69.2 41.7 L 67.2762186050415 43.984490394592285 L 67.3 44.0 L 69.4 45.7 L 71.4 47.6 L 73.3 49.7 L 75.1 51.9 L 76.7 54.2 L 78.1 56.7 L 77.8 61.3 L 74.5 64.4 L 69.9 64.1 L 66.8 60.8 L 66.4 58.7 Z M 137.0 47.6 L 137.0 51.6 L 103.2 51.6 L 103.2 47.6 L 122.77777776718139 47.6 L 129.0 40.6 Z M 38.0 36.9 L 37.0 34.9 L 35.9 32.9 L 34.5 30.9 L 32.8 28.9 L 31.0 26.9 L 29.0 24.9 L 26.7 22.8 L 24.0 21.2 L 24.8 19.5 L 27.8 20.6 L 31.0 21.5 L 33.9 22.5 L 36.7 23.8 L 39.4 25.3 L 41.9 27.0 L 44.2 28.9 L 46.4 30.9 L 48.4 33.2 L 50.2 35.6 L 50.5 40.2 L 47.5 43.6 L 42.9 43.9 L 39.5 40.9 L 38.8 38.9 Z M 142.4 33.1 L 142.4 37.1 L 100.9 37.1 L 100.9 33.1 L 124.21818180084229 33.1 L 132.4 24.1 Z M 137.0 19.6 L 137.0 23.6 L 103.2 23.6 L 103.2 19.6 L 122.77777776718139 19.6 L 129.0 12.6 Z " />
</g>
</svg>
