<svg xmlns="http://www.w3.org/2000/svg" xmlns:xlink="http://www.w3.org/1999/xlink" version="1.1" baseProfile="full" viewBox="0 0 200 200" width="200" height="200">
<g fill="black">
<path d="M 88.7 104.2 L 87.8 102.0 L 85.6 97.6 L 84.3 95.5 L 82.9 93.3 L 82.1 92.18000001907349 L 82.1 183.0 L 70.1 189.0 L 70.1 104.38888893127441 L 68.9 108.3 L 65.9 116.9 L 62.7 125.2 L 59.1 133.3 L 55.2 141.0 L 50.8 148.3 L 49.2 147.6 L 51.7 139.5 L 54.1 131.4 L 56.5 123.1 L 58.7 114.7 L 60.7 106.1 L 62.6 97.3 L 64.3 88.3 L 65.8 79.1 L 67.1 69.7 L 67.87011489868163 63.0 L 50.0 63.0 L 50.0 59.0 L 70.1 59.0 L 70.1 14.0 L 82.1 16.0 L 85.1 18.0 L 82.1 19.8 L 82.1 59.0 L 85.9777777671814 59.0 L 92.2 52.0 L 100.2 59.0 L 100.2 63.0 L 82.1 63.0 L 82.1 87.36666669845582 L 83.9 88.1 L 86.4 89.5 L 88.8 91.0 L 91.1 92.7 L 93.3 94.6 L 95.4 96.6 L 97.4 98.8 L 99.3 101.2 L 101.0 103.7 L 101.2 108.2 L 98.2 111.7 L 93.7 111.8 L 90.2 108.8 L 89.5 106.5 Z M 122.6 130.8 L 160.3 130.8 L 166.3 125.8 L 177.3 134.8 L 172.3 138.8 L 172.3 181.4 L 160.3 187.4 L 160.3 179.4 L 122.6 179.4 L 122.6 182.4 L 110.6 188.4 L 110.6 124.8 Z M 33.9 186.9 L 29.9 184.9 L 28.3 180.5 L 28.9 173.5 L 29.0 167.0 L 28.6 161.2 L 27.7 155.9 L 26.4 151.3 L 25.36969699859619 148.7545454978943 L 24.7 148.6 L 24.999458026885986 147.8398373603821 L 24.7 147.1 L 22.5 143.4 L 19.8 140.1 L 16.5 137.0 L 12.6 134.1 L 13.2 132.4 L 18.4 133.7 L 23.1 135.9 L 27.4 139.0 L 28.194966983795165 139.859423828125 L 30.0 135.7 L 32.8 129.2 L 36.3 121.6 L 40.2 112.9 L 44.8 103.0 L 50.0 92.0 L 56.0 79.8 L 62.6 66.6 L 64.3 67.3 L 59.5 81.3 L 55.0 94.0 L 50.9 105.5 L 47.3 115.7 L 44.1 124.8 L 41.5 132.6 L 39.4 139.2 L 37.8 144.6 L 36.8 148.7 L 36.4 151.3 L 35.65194396972656 151.12737169265748 L 36.6 153.3 L 38.5 159.4 L 39.7 166.1 L 40.3 173.5 L 40.3 181.4 L 38.2 185.4 Z M 122.6 157.1 L 122.6 175.4 L 160.3 175.4 L 160.3 157.1 Z M 122.6 134.8 L 122.6 153.1 L 160.3 153.1 L 160.3 134.8 Z M 171.8 64.9 L 167.1 60.5 L 162.6 55.7 L 158.3 50.5 L 154.2 45.1 L 150.4 39.2 L 146.9 33.0 L 143.8 26.3 L 143.76345539093018 26.205254745483398 L 140.1 32.2 L 135.4 39.1 L 130.3 45.7 L 125.0 51.9 L 119.4 57.7 L 113.5 63.1 L 107.3 68.1 L 104.96075944900512 69.73037977218628 L 115.3 74.9 L 167.7 74.9 L 173.7 69.9 L 184.7 78.9 L 179.7 82.9 L 179.7 116.6 L 167.7 122.6 L 167.7 116.6 L 115.3 116.6 L 103.3 122.6 L 103.3 70.88787879943848 L 100.7 72.7 L 93.8 76.7 L 92.8 75.2 L 98.4 69.7 L 103.7 64.1 L 108.9 58.5 L 113.8 52.6 L 118.5 46.5 L 122.8 40.2 L 127.0 33.6 L 130.8 26.8 L 134.4 19.7 L 137.37387132644653 13.22745656967163 L 137.3 13.2 L 138.3 11.1 L 148.6 17.4 L 150.5 20.5 L 146.7164824485779 20.891398334503172 L 145.91811761856079 22.37129411697388 L 147.4 24.2 L 151.9 29.7 L 156.3 34.9 L 160.7 39.8 L 165.2 44.3 L 169.8 48.4 L 174.4 52.2 L 179.1 55.6 L 183.8 58.6 L 188.7 61.3 L 193.1 63.9 L 181.9 72.6 L 176.8 68.9 Z M 115.3 78.9 L 115.3 112.6 L 135.5 112.6 L 135.5 78.9 Z M 147.5 78.9 L 147.5 112.6 L 167.7 112.6 L 167.7 92.61034479141236 L 164.91381959915162 92.80249519348145 L 164.6 93.2 L 163.0 95.2 L 161.4 97.3 L 159.7 99.3 L 157.9 101.4 L 156.0 103.5 L 154.0 105.6 L 151.9 107.7 L 150.1 110.1 L 148.5 109.1 L 149.8 106.5 L 150.6 103.6 L 151.5 100.9 L 152.3 98.2 L 153.2 95.7 L 154.0 93.2 L 154.8 90.8 L 156.2 86.2 L 156.53946781158447 84.9552845954895 L 156.4 84.9 L 156.73999996185302 84.21999998092652 L 156.8 84.0 L 156.8400749206543 84.01985015869141 L 157.4 82.9 L 167.5 89.3 L 167.7 89.65555553436279 L 167.7 78.9 Z M 122.1 98.5 L 121.7 96.5 L 121.2 94.5 L 120.6 92.6 L 119.2 88.6 L 118.4 86.6 L 117.2 84.9 L 118.4 83.6 L 120.1 85.1 L 122.1 86.3 L 124.0 87.7 L 125.7 89.2 L 127.4 90.9 L 129.0 92.7 L 130.5 94.6 L 131.9 96.7 L 133.2 98.9 L 134.4 101.1 L 133.9 105.7 L 130.4 108.6 L 125.8 108.1 L 122.9 104.6 L 122.7 102.5 Z M 28.8 83.2 L 27.6 81.2 L 26.2 79.2 L 24.4 77.2 L 22.4 75.1 L 20.0 73.1 L 17.4 71.0 L 14.5 68.9 L 11.2 67.1 L 11.8 65.4 L 15.5 66.5 L 19.2 67.3 L 22.7 68.3 L 25.9 69.6 L 29.0 71.1 L 31.8 72.7 L 34.4 74.6 L 36.9 76.7 L 39.0 79.0 L 41.0 81.5 L 41.3 86.1 L 38.3 89.6 L 33.8 89.9 L 30.3 87.0 L 29.6 85.1 Z M 162.0 59.0 L 162.0 63.0 L 120.9 63.0 L 120.9 59.0 L 143.8181818008423 59.0 L 152.0 50.0 Z M 41.4 37.2 L 40.2 35.2 L 38.7 33.2 L 37.0 31.1 L 35.1 29.1 L 32.9 27.1 L 30.5 25.0 L 27.8 22.9 L 24.7 21.2 L 25.4 19.5 L 28.9 20.5 L 32.3 21.3 L 35.6 22.4 L 38.7 23.7 L 41.7 25.1 L 44.4 26.8 L 47.0 28.7 L 49.4 30.7 L 51.6 32.9 L 53.6 35.4 L 54.1 39.9 L 51.3 43.6 L 46.8 44.1 L 43.2 41.3 L 42.4 39.3 Z " />
</g>
</svg>
