<svg xmlns="http://www.w3.org/2000/svg" xmlns:xlink="http://www.w3.org/1999/xlink" version="1.1" baseProfile="full" viewBox="0 0 200 200" width="200" height="200">
<g fill="black">
<path d="M 159.9 139.2 L 158.97398920059203 144.63259687423707 L 160.6 146.4 L 162.8 149.1 L 164.8 151.9 L 166.5 154.8 L 166.6 154.99375 L 166.6 119.5 L 161.4 119.5 L 161.4 119.7 L 160.9 129.8 Z M 79.3 167.9 L 81.1 171.0 L 76.5312273979187 171.30974731445312 L 74.2 173.9 L 72.1 175.9 L 70.0 177.8 L 67.6 179.8 L 65.1 181.8 L 62.4 183.8 L 59.4 185.8 L 56.6 188.0 L 55.4 186.7 L 57.6 184.0 L 59.4 181.0 L 61.1 178.2 L 62.7 175.6 L 64.1 173.1 L 65.3 170.7 L 66.4 168.4 L 67.3 166.3 L 68.1 164.3 L 68.39081764221191 163.37907752990722 L 68.2 163.3 L 69.2 161.3 Z M 87.5 176.4 L 87.3 175.0 L 86.7 172.2 L 86.2 170.6 L 85.6 169.1 L 84.9 167.5 L 84.1 165.8 L 82.8 164.5 L 83.9 163.1 L 85.1 163.9800000190735 L 85.1 159.1 L 72.8 159.1 L 60.8 165.1 L 60.8 89.9 L 72.8 95.9 L 85.1 95.9 L 91.1 90.9 L 102.1 99.9 L 97.1 103.9 L 97.1 159.1 L 86.21428575515748 164.54285717010498 L 87.3 165.0 L 89.0 165.8 L 90.7 166.8 L 92.3 167.9 L 93.8 169.1 L 95.2 170.4 L 96.5 171.7 L 97.7 173.2 L 98.9 174.8 L 98.6 179.3 L 95.3 182.5 L 90.7 182.2 L 87.6 178.9 L 87.6 177.6 Z M 39.2 186.9 L 35.2 184.8 L 33.7 180.5 L 34.2 173.5 L 34.2 167.1 L 33.6 161.4 L 32.4 156.2 L 30.8 151.6 L 28.6 147.4 L 25.8 143.6 L 22.3 140.2 L 18.1 137.0 L 13.1 134.1 L 13.7 132.4 L 19.7 133.6 L 25.2 135.7 L 30.2 138.8 L 32.38838119506836 140.78481092453003 L 34.6 135.4 L 37.4 128.4 L 40.7 120.1 L 44.5 110.3 L 48.9 99.2 L 53.8 86.7 L 59.3 72.8 L 65.6 57.7 L 67.3 58.2 L 62.9 74.1 L 58.8 88.4 L 55.1 101.3 L 51.7 112.8 L 48.7 122.8 L 46.2 131.5 L 44.1 138.7 L 42.5 144.5 L 41.3 148.9 L 40.6 151.9 L 41.2 153.0 L 43.4 159.2 L 44.8 166.0 L 45.6 173.4 L 45.6 181.4 L 43.6 185.4 Z M 72.8 138.5 L 72.8 155.1 L 85.1 155.1 L 85.1 138.5 Z M 120.61999998092651 119.0 L 120.2 121.1 L 118.8 127.7 L 117.4 134.2 L 115.9 140.6 L 114.3 147.1 L 113.6144588470459 149.6808608055115 L 116.8 150.5 L 120.1 151.8 L 120.70425529479981 152.0832447052002 L 120.8 151.8 L 122.8 144.1 L 124.4 135.6 L 125.6 126.4 L 126.12323236465454 119.0 Z M 72.8 119.2 L 72.8 134.5 L 85.1 134.5 L 85.1 119.2 Z M 72.8 99.9 L 72.8 115.2 L 85.1 115.2 L 85.1 99.9 Z M 30.1 85.4 L 28.8 83.4 L 27.2 81.3 L 25.3 79.2 L 23.1 77.2 L 20.7 75.1 L 17.9 73.0 L 15.0 70.9 L 11.6 69.1 L 12.2 67.4 L 16.0 68.4 L 19.7 69.2 L 23.3 70.3 L 26.6 71.6 L 29.7 73.0 L 32.7 74.7 L 35.4 76.5 L 37.9 78.6 L 40.3 80.8 L 42.3 83.3 L 42.9 87.9 L 40.2 91.5 L 35.7 92.1 L 32.0 89.4 L 31.2 87.4 Z M 73.3 91.6 L 73.3 54.6 L 85.3 60.6 L 159.6 60.6 L 165.6 55.6 L 176.6 64.6 L 171.6 68.6 L 171.6 85.6 L 159.6 91.6 L 159.6 85.6 L 85.3 85.6 Z M 85.3 64.6 L 85.3 81.6 L 102.1 81.6 L 102.1 64.6 Z M 114.1 64.6 L 114.1 81.6 L 130.8 81.6 L 130.8 64.6 Z M 142.8 64.6 L 142.8 81.6 L 159.6 81.6 L 159.6 64.6 Z M 177.0 46.0 L 177.0 50.0 L 70.0 50.0 L 70.0 46.0 L 158.8181818008423 46.0 L 167.0 37.0 Z M 45.4 37.7 L 44.1 35.8 L 42.6 33.8 L 40.8 31.7 L 38.7 29.6 L 36.3 27.5 L 33.6 25.3 L 30.7 23.1 L 27.3 21.2 L 28.0 19.5 L 31.8 20.7 L 35.5 21.6 L 39.0 22.8 L 42.3 24.1 L 45.3 25.6 L 48.2 27.2 L 50.8 29.0 L 53.2 30.9 L 55.4 33.0 L 57.4 35.4 L 57.9 39.9 L 55.2 43.5 L 50.7 44.1 L 47.0 41.3 L 46.3 39.6 Z M 60.0 30.0 L 115.0 30.0 L 115.0 13.0 L 127.0 15.0 L 130.0 17.0 L 127.0 18.8 L 127.0 30.0 L 163.8181818008423 30.0 L 172.0 21.0 L 182.0 30.0 L 182.0 34.0 L 60.0 34.0 Z M 126.5 167.8 L 125.0 165.5 L 124.58470134735107 164.93812532424926 L 122.1 169.1 L 117.7 175.0 L 112.7 180.0 L 107.2 184.1 L 101.2 187.0 L 100.3 185.5 L 104.8 181.1 L 108.8 176.3 L 112.4 171.1 L 115.6 165.3 L 118.4 158.9 L 118.69541883468628 158.0260527610779 L 117.1 156.5 L 114.7 154.2 L 112.83356227874756 152.62070655822754 L 112.6 153.5 L 110.9 159.8 L 99.4 156.6 L 101.0 150.4 L 102.7 144.1 L 105.7 131.5 L 108.434375 119.0 L 100.8 119.0 L 100.8 115.0 L 109.19375 115.0 L 110.9 105.9 L 112.1 99.3 L 113.1 92.8 L 113.13263854980468 92.80521116256713 L 113.4 90.8 L 125.0 94.7 L 127.6 97.1 L 124.38145694732665 98.41125831604003 L 123.9 101.3 L 122.7 108.0 L 121.5 114.6 L 121.41999998092652 115.0 L 126.3 115.0 L 132.3 110.0 L 140.7 116.87272729873658 L 140.7 115.5 L 151.4 115.5 L 151.4 91.8 L 161.4 93.8 L 163.9 95.8 L 161.4 97.46666669845581 L 161.4 115.5 L 166.6 115.5 L 171.6 110.5 L 181.6 119.5 L 176.6 122.5 L 176.6 172.4 L 176.7 173.7 L 177.0 174.7 L 177.00512819290162 174.7119658470154 L 182.6 151.4 L 184.6 151.4 L 182.6 176.4 L 184.52857141494752 177.68571424484253 L 185.7 178.2 L 185.87272729873658 178.5818181991577 L 186.2 178.8 L 188.6 182.4 L 186.2 186.0 L 185.87272729873658 186.21818180084227 L 185.7 186.6 L 184.52857141494752 187.11428575515748 L 182.6 188.4 L 181.6 188.4 L 179.0 188.2 L 176.5 187.6 L 174.2 186.7 L 172.0 185.5 L 170.2 183.8 L 168.7 181.8 L 167.6 179.6 L 166.9 177.3 L 166.6 174.9 L 166.6 163.31176471710205 L 164.2 165.5 L 159.6 165.0 L 156.6 161.6 L 156.1 159.0 L 155.7617570877075 157.79198970794678 L 153.8 163.3 L 150.8 169.9 L 147.2 175.8 L 143.1 180.8 L 138.5 184.9 L 133.3 188.0 L 132.5 186.7 L 136.3 182.6 L 139.6 178.0 L 142.5 172.9 L 145.1 167.3 L 147.2 161.0 L 148.9 154.1 L 150.1 146.6 L 150.24016838073732 145.30733613967897 L 148.9 143.1 L 147.0 140.3 L 144.9 137.4 L 142.4 134.8 L 143.5 133.4 L 149.9 137.2 L 151.01437911987304 137.98006534576416 L 151.4 129.4 L 151.4 119.5 L 142.4666666984558 119.5 L 138.3 122.0 L 137.60126581192017 122.2911392211914 L 136.8 127.9 L 134.9 137.7 L 132.5 146.7 L 129.5 154.9 L 128.76193037033082 156.52809476852417 L 129.2 156.8 L 131.9 158.9 L 134.5 161.2 L 136.9 163.6 L 139.2 166.2 L 139.9 170.7 L 137.3 174.5 L 132.8 175.2 L 129.0 172.6 L 127.9 170.2 Z " />
</g>
</svg>
