<svg xmlns="http://www.w3.org/2000/svg" xmlns:xlink="http://www.w3.org/1999/xlink" version="1.1" baseProfile="full" viewBox="0 0 200 200" width="200" height="200">
<g fill="black">
<path d="M 158.0 177.9 L 168.0 177.9 L 169.3 177.8 L 170.2 177.7 L 170.8 177.5 L 171.1 177.3 L 171.4 177.0 L 171.6 176.6 L 171.8 176.0 L 172.0 175.1 L 172.0 158.6384614944458 L 171.0 160.1 L 168.2 163.8 L 165.2 167.4 L 162.0 171.0 L 158.5 174.6 L 154.9 178.0 L 151.0 181.3 L 146.8 184.5 L 145.5 183.3 L 148.3 178.9 L 151.0 174.7 L 153.6 170.6 L 156.1 166.6 L 158.4 162.6 L 160.5 158.7 L 162.5 154.9 L 164.4 151.1 L 166.0 147.3 L 167.1305341720581 144.51134901046754 L 167.1 144.5 L 168.0 142.4 L 172.0 144.82307691574096 L 172.0 128.70175437927247 L 170.67087383270263 128.95825242996216 L 170.6 129.1 L 168.5 132.9 L 166.3 136.6 L 163.9 140.1 L 161.4 143.6 L 158.7 147.0 L 155.8 150.3 L 152.7 153.5 L 149.3 156.5 L 145.9 159.4 L 144.7 158.29230766296388 L 144.7 173.9 L 144.5 176.5 L 144.1 178.9 L 143.3 181.4 L 142.1 183.6 L 140.4 185.6 L 138.4 187.3 L 136.1 188.5 L 133.7 189.3 L 131.2 189.8 L 128.7 189.9 L 128.7 183.9 L 116.7 180.9 L 116.7 177.9 L 128.7 177.9 L 129.9 177.8 L 130.8 177.7 L 131.4 177.5 L 131.8 177.3 L 131.9 177.1 L 132.1 177.0 L 132.3 176.6 L 132.5 176.0 L 132.6 175.1 L 132.7 173.9 L 132.7 158.5518518447876 L 131.6 160.1 L 128.8 163.8 L 125.8 167.4 L 122.6 171.0 L 119.2 174.6 L 115.5 178.0 L 111.6 181.3 L 107.5 184.5 L 106.2 183.3 L 109.0 178.9 L 111.6 174.7 L 114.2 170.6 L 116.7 166.6 L 119.0 162.6 L 121.2 158.7 L 123.2 154.9 L 125.0 151.1 L 126.7 147.3 L 127.75212831497193 144.51937513351442 L 127.7 144.5 L 127.98947372436524 143.89210529327391 L 128.1 143.6 L 128.1233654975891 143.61093244552612 L 128.7 142.4 L 132.7 144.8466019630432 L 132.7 128.69310340881347 L 131.37809524536132 128.94380950927734 L 131.3 129.1 L 129.2 132.9 L 127.0 136.6 L 124.6 140.1 L 122.0 143.6 L 119.3 147.0 L 116.4 150.3 L 113.3 153.5 L 110.0 156.5 L 106.6 159.4 L 105.2 158.2 L 107.5 154.4 L 111.5 146.8 L 115.1 139.4 L 116.7 135.8 L 118.2 132.1 L 119.6 128.4 L 120.8 124.7 L 121.62300062179565 122.00654325485229 L 121.6 122.0 L 121.71408452987671 121.70845069885254 L 121.9 121.1 L 121.94554920196533 121.1169298171997 L 122.5 119.7 L 132.7 125.03831777572631 L 132.7 119.0 L 107.8 119.0 L 107.8 115.0 L 132.7 115.0 L 138.7 110.0 L 147.6 117.28181819915771 L 147.6 115.0 L 172.0 115.0 L 178.0 110.0 L 189.0 119.0 L 184.0 123.0 L 184.0 173.9 L 183.9 176.5 L 183.5 178.9 L 182.7 181.4 L 181.4 183.6 L 179.8 185.6 L 177.8 187.3 L 175.5 188.5 L 173.1 189.3 L 170.6 189.8 L 168.0 189.9 L 168.0 183.9 L 158.0 180.9 Z M 169.6 63.2 L 165.6 59.2 L 161.7 54.7 L 158.1 49.9 L 154.6 44.7 L 151.4 39.2 L 148.4 33.3 L 146.51187496185304 28.894375038146972 L 143.4 34.4 L 139.3 41.0 L 135.0 47.1 L 130.4 52.8 L 125.5 58.0 L 120.4 62.8 L 115.1 67.0 L 109.5 70.7 L 103.6 73.8 L 102.7 72.45 L 102.7 122.0 L 90.7 128.0 L 90.7 116.0 L 86.1 116.0 L 86.1 145.0 L 88.31818180084228 145.0 L 96.5 136.0 L 106.5 145.0 L 106.5 149.0 L 86.1 149.0 L 86.1 182.0 L 74.1 188.0 L 74.1 149.0 L 54.2 149.0 L 54.2 145.0 L 74.1 145.0 L 74.1 116.0 L 70.0 116.0 L 70.0 128.0 L 58.0 134.0 L 58.0 56.0 L 70.0 62.0 L 74.1 62.0 L 74.1 39.0 L 56.0 39.0 L 56.0 35.0 L 74.1 35.0 L 74.1 12.0 L 86.1 14.0 L 89.1 16.0 L 86.1 17.8 L 86.1 35.0 L 90.4777777671814 35.0 L 96.7 28.0 L 104.7 35.0 L 104.7 39.0 L 86.1 39.0 L 86.1 62.0 L 90.7 62.0 L 96.7 57.0 L 107.7 66.0 L 102.7 70.0 L 102.7 72.19777774810791 L 107.1 67.7 L 111.5 63.0 L 115.8 58.2 L 119.8 53.1 L 123.6 47.6 L 127.3 41.9 L 130.7 35.8 L 133.9 29.4 L 137.0 22.6 L 139.4399956703186 16.412868213653564 L 139.4 16.4 L 140.3 14.2 L 150.9 20.1 L 152.9 23.1 L 149.15806455612181 23.680645179748534 L 148.85521116256714 24.303177070617675 L 149.4 25.0 L 153.4 30.3 L 157.4 35.2 L 161.3 39.7 L 165.2 43.9 L 169.2 47.7 L 173.2 51.1 L 177.2 54.1 L 181.2 56.8 L 185.2 59.1 L 189.5 61.7 L 178.4 70.3 L 173.9 67.0 Z M 31.6 186.9 L 27.5 184.9 L 25.9 180.6 L 26.4 173.5 L 26.5 166.9 L 26.3 161.0 L 25.6 155.7 L 24.6 151.0 L 23.917050266265868 148.99993295669555 L 22.9 148.8 L 23.346100902557374 147.32786693573 L 23.2 146.9 L 21.5 143.2 L 19.4 140.0 L 16.9 137.0 L 13.8 134.2 L 14.6 132.5 L 19.0 133.8 L 23.1 136.1 L 26.35496301651001 138.91510314941405 L 27.4 136.0 L 29.8 129.5 L 32.8 121.9 L 36.1 113.1 L 40.1 103.2 L 44.5 92.1 L 49.6 79.9 L 55.3 66.7 L 57.0 67.2 L 53.1 81.2 L 49.6 93.9 L 46.3 105.3 L 43.3 115.5 L 40.8 124.5 L 38.7 132.3 L 37.0 138.9 L 35.8 144.3 L 35.0 148.4 L 34.6 151.1 L 33.64131107330322 150.9115397453308 L 34.6 153.5 L 36.2 159.6 L 37.2 166.2 L 37.8 173.5 L 37.9 181.3 L 35.9 185.4 Z M 149.7 119.0 L 144.7 123.0 L 144.7 158.02727270126343 L 146.8 154.4 L 150.8 146.8 L 152.7 143.1 L 154.5 139.4 L 156.1 135.8 L 157.6 132.1 L 159.0 128.4 L 160.2 124.7 L 161.01500329971313 122.03271646499634 L 160.9 122.0 L 161.8 119.7 L 172.0 125.03831777572631 L 172.0 119.0 Z M 70.0 91.0 L 70.0 112.0 L 90.7 112.0 L 90.7 91.0 Z M 128.8 75.4 L 160.8 75.4 L 166.8 70.4 L 177.8 79.4 L 172.8 83.4 L 172.8 101.7 L 160.8 107.7 L 160.8 101.7 L 128.8 101.7 L 116.8 107.7 L 116.8 69.4 Z M 128.8 79.4 L 128.8 97.7 L 160.8 97.7 L 160.8 79.4 Z M 26.3 82.7 L 25.5 80.8 L 24.4 78.9 L 23.1 76.9 L 21.5 74.9 L 19.7 72.9 L 17.7 70.9 L 15.4 68.8 L 12.6 67.2 L 13.4 65.5 L 16.5 66.6 L 19.6 67.5 L 22.6 68.5 L 25.4 69.8 L 28.0 71.3 L 30.5 73.0 L 32.8 74.9 L 34.9 77.0 L 36.8 79.3 L 38.5 81.8 L 38.4 86.4 L 35.3 89.7 L 30.7 89.7 L 27.4 86.5 L 27.0 84.6 Z M 70.0 87.0 L 90.7 87.0 L 90.7 66.0 L 70.0 66.0 Z M 160.2 56.5 L 160.2 60.5 L 127.9 60.5 L 127.9 56.5 L 145.9777777671814 56.5 L 152.2 49.5 Z M 36.8 36.8 L 35.9 34.8 L 34.8 32.8 L 33.6 30.9 L 32.1 28.9 L 30.4 26.9 L 28.5 24.9 L 26.4 22.8 L 23.9 21.2 L 24.7 19.6 L 27.6 20.7 L 30.6 21.5 L 33.4 22.6 L 36.1 23.9 L 38.6 25.4 L 41.0 27.1 L 43.3 29.0 L 45.3 31.0 L 47.3 33.3 L 49.0 35.7 L 49.1 40.3 L 46.1 43.7 L 41.5 43.8 L 38.1 40.8 L 37.6 38.8 Z " />
</g>
</svg>
