<svg xmlns="http://www.w3.org/2000/svg" xmlns:xlink="http://www.w3.org/1999/xlink" version="1.1" baseProfile="full" viewBox="0 0 200 200" width="200" height="200">
<g fill="black">
<path d="M 78.1 176.6 L 83.2 176.1 L 88.4 175.4 L 90.6 175.10943393707277 L 90.6 129.4 L 102.6 131.4 L 105.6 133.4 L 102.6 135.2 L 102.6 149.2 L 117.1777777671814 149.2 L 123.4 142.2 L 131.4 149.2 L 131.4 153.2 L 102.6 153.2 L 102.6 173.4666666984558 L 109.8 172.4 L 121.0 170.6 L 126.7 169.9 L 132.6 169.3 L 133.1 171.0 L 127.7 173.5 L 122.4 175.8 L 117.0 177.9 L 111.6 179.7 L 106.3 181.5 L 101.0 183.1 L 95.7 184.6 L 90.4 186.0 L 85.2 187.3 L 84.11328125 187.55078125 L 82.5 191.1 L 80.0 188.5 L 76.1 177.0 Z M 80.7 135.7 L 79.9 143.6 L 78.8 151.1 L 77.3 158.0 L 75.5 164.5 L 73.4 170.5 L 70.9 175.9 L 68.0 180.7 L 64.7 184.9 L 61.0 188.3 L 59.6 187.2 L 61.5 182.8 L 63.3 178.3 L 64.8 173.4 L 66.2 168.2 L 67.3 162.5 L 68.2 156.4 L 68.8 149.8 L 69.2 142.8 L 69.3 135.3 L 69.1 127.3 L 69.1 78.3 L 81.1 84.3 L 171.87777776718139 84.3 L 178.1 77.3 L 186.1 84.3 L 186.1 88.3 L 138.9 88.3 L 148.5 89.9 L 151.5 91.9 L 148.5 93.7 L 148.5 103.9 L 168.3 103.9 L 174.3 98.9 L 185.3 107.9 L 180.3 111.9 L 180.3 129.3 L 168.3 135.3 L 168.3 129.3 L 81.00476188659668 129.3 Z M 181.65272731781005 149.99696969985962 L 178.13698110580444 148.53207550048828 L 176.2 149.2 L 173.2 150.2 L 169.9 151.2 L 166.5 152.2 L 162.9 153.1 L 159.1 154.0 L 155.1 154.9 L 150.9 155.7 L 147.7 156.13636360168456 L 147.7 170.8 L 147.8 172.1 L 147.9 173.0 L 148.1 173.6 L 148.3 173.9 L 148.6 174.2 L 149.0 174.4 L 149.6 174.6 L 150.5 174.8 L 175.7 174.8 Z M 37.8 186.9 L 33.7 184.9 L 32.2 180.6 L 32.7 173.5 L 32.7 167.1 L 32.1 161.3 L 31.1 156.1 L 29.6 151.5 L 27.5 147.3 L 25.0 143.5 L 21.8 140.1 L 18.0 137.0 L 13.4 134.1 L 14.0 132.4 L 19.6 133.6 L 24.9 135.7 L 29.6 138.9 L 31.17552318572998 140.398668384552 L 33.1 135.5 L 35.7 128.5 L 38.8 120.2 L 42.4 110.4 L 46.5 99.2 L 51.1 86.7 L 56.4 72.9 L 62.3 57.7 L 64.0 58.2 L 60.0 74.0 L 56.2 88.4 L 52.8 101.3 L 49.6 112.7 L 46.9 122.7 L 44.6 131.4 L 42.6 138.6 L 41.2 144.4 L 40.1 148.8 L 39.5 151.8 L 39.186897373199464 151.69926261901855 L 39.9 153.1 L 42.0 159.2 L 43.3 166.0 L 44.1 173.4 L 44.1 181.4 L 42.1 185.4 Z M 81.1 107.9 L 81.1 125.3 L 103.9 125.3 L 103.9 107.9 Z M 115.9 107.9 L 115.9 125.3 L 136.5 125.3 L 136.5 107.9 Z M 148.5 107.9 L 148.5 125.3 L 168.3 125.3 L 168.3 107.9 Z M 81.1 88.3 L 81.1 103.9 L 103.9 103.9 L 103.9 88.3 Z M 106.3 88.3 L 115.9 89.9 L 118.9 91.9 L 115.9 93.7 L 115.9 103.9 L 136.5 103.9 L 136.5 88.3 Z M 28.8 85.2 L 27.6 83.2 L 26.2 81.2 L 24.5 79.1 L 22.5 77.1 L 20.3 75.1 L 17.8 73.0 L 15.1 70.9 L 12.0 69.1 L 12.6 67.5 L 16.2 68.5 L 19.7 69.3 L 23.0 70.4 L 26.1 71.7 L 29.1 73.1 L 31.9 74.8 L 34.5 76.6 L 36.9 78.7 L 39.1 81.0 L 41.1 83.4 L 41.5 88.0 L 38.7 91.6 L 34.1 92.0 L 30.5 89.2 L 29.8 87.2 Z M 77.4 18.8 L 105.4 18.8 L 111.4 13.8 L 122.4 22.8 L 117.4 26.8 L 117.4 71.1 L 105.4 77.1 L 105.4 69.1 L 77.4 69.1 L 77.4 72.1 L 65.4 78.1 L 65.4 12.8 Z M 142.5 18.8 L 170.5 18.8 L 176.5 13.8 L 187.5 22.8 L 182.5 26.8 L 182.5 71.1 L 170.5 77.1 L 170.5 69.1 L 142.5 69.1 L 142.5 72.1 L 130.5 78.1 L 130.5 12.8 Z M 142.5 45.3 L 142.5 65.1 L 170.5 65.1 L 170.5 45.3 Z M 77.4 45.3 L 77.4 65.1 L 105.4 65.1 L 105.4 45.3 Z M 43.1 37.5 L 42.0 35.6 L 40.6 33.6 L 39.0 31.6 L 37.1 29.6 L 34.9 27.5 L 32.4 25.3 L 29.7 23.1 L 26.6 21.2 L 27.3 19.5 L 30.9 20.7 L 34.4 21.7 L 37.7 22.9 L 40.8 24.2 L 43.7 25.7 L 46.4 27.3 L 48.8 29.1 L 51.2 31.0 L 53.2 33.2 L 55.1 35.5 L 55.5 40.0 L 52.7 43.6 L 48.1 44.0 L 44.5 41.2 L 43.9 39.4 Z M 142.5 22.8 L 142.5 41.3 L 170.5 41.3 L 170.5 22.8 Z M 77.4 22.8 L 77.4 41.3 L 105.4 41.3 L 105.4 22.8 Z M 187.7 180.8 L 185.3 184.4 L 181.7 186.8 L 151.7 186.8 L 149.1 186.7 L 146.7 186.3 L 144.2 185.4 L 142.0 184.2 L 140.0 182.6 L 138.3 180.6 L 137.1 178.3 L 136.3 175.9 L 135.8 173.4 L 135.7 170.8 L 135.7 129.4 L 147.7 131.4 L 150.7 133.4 L 147.7 135.2 L 147.7 152.3692307472229 L 149.5 151.4 L 153.2 149.4 L 156.7 147.5 L 160.0 145.8 L 163.2 144.0 L 166.1 142.3 L 168.8 140.7 L 171.3 139.1 L 172.7550742149353 138.08777446746825 L 172.7 138.0 L 172.77583332061766 138.07333335876464 L 173.6 137.5 L 175.0005513191223 140.22470903396606 L 181.8 146.8 L 181.89090909957886 149.8 L 183.7 149.8 L 181.7 174.8 L 185.3 177.2 Z " />
</g>
</svg>
