<svg xmlns="http://www.w3.org/2000/svg" xmlns:xlink="http://www.w3.org/1999/xlink" version="1.1" baseProfile="full" viewBox="0 0 200 200" width="200" height="200">
<g fill="black">
<path d="M 113.9 155.9 L 160.0 155.9 L 166.0 150.9 L 177.0 159.9 L 172.0 163.9 L 172.0 181.6 L 160.0 187.6 L 160.0 179.6 L 113.9 179.6 L 113.9 182.6 L 101.9 188.6 L 101.9 149.9 Z M 84.3 122.9 L 83.2 132.2 L 81.7 141.0 L 79.8 149.4 L 77.5 157.3 L 74.9 164.7 L 71.8 171.5 L 68.2 177.8 L 64.2 183.5 L 59.7 188.5 L 58.2 187.4 L 60.9 181.5 L 63.4 175.4 L 65.7 169.0 L 67.7 162.3 L 69.4 155.1 L 70.7 147.5 L 71.8 139.5 L 72.5 131.1 L 72.9 122.2 L 73.0 112.8 L 73.0 53.316363620758054 L 69.4 56.0 L 63.6 60.0 L 57.5 63.7 L 56.4 62.2 L 61.2 57.1 L 65.9 52.0 L 70.4 47.1 L 73.0 44.06666669845581 L 73.0 40.0 L 75.42589931488037 41.212949657440184 L 78.7 37.3 L 82.5 32.4 L 86.1 27.5 L 89.4 22.6 L 92.5 17.6 L 94.83326425552369 13.5167875289917 L 94.8 13.5 L 95.8 11.8 L 105.5 18.9 L 107.0 22.2 L 103.17058820724488 22.2 L 101.9 24.0 L 99.57346935272217 27.0 L 139.0 27.0 L 139.30612249374389 26.74489793777466 L 140.5 25.0 L 140.9357997894287 25.386833477020264 L 145.0 22.0 L 156.0 31.0 L 151.0 34.0 L 144.52808990478516 36.696629238128665 L 142.9 37.9 L 140.5 39.5 L 137.9 41.1 L 135.3 42.6 L 132.5 44.1 L 129.6 45.6 L 128.71428575515748 46.0 L 168.8181818008423 46.0 L 177.0 37.0 L 187.0 46.0 L 187.0 50.0 L 85.0 50.0 L 85.0 113.0 L 84.89662923812867 113.15505619049073 Z M 41.2 186.9 L 37.2 184.8 L 35.7 180.5 L 36.2 173.5 L 36.2 167.2 L 35.5 161.4 L 34.3 156.3 L 32.5 151.7 L 30.2 147.5 L 27.2 143.7 L 23.5 140.2 L 19.0 137.0 L 13.7 134.1 L 14.2 132.4 L 20.5 133.5 L 26.3 135.6 L 31.5 138.7 L 34.22633981704712 141.06282777786254 L 34.3 140.9 L 36.6 135.3 L 39.5 128.4 L 43.0 120.0 L 47.0 110.3 L 51.5 99.1 L 56.7 86.6 L 62.5 72.8 L 69.0 57.6 L 70.7 58.3 L 66.1 74.1 L 61.7 88.5 L 57.7 101.4 L 54.1 112.8 L 51.0 122.9 L 48.3 131.5 L 46.1 138.8 L 44.4 144.6 L 43.1 149.0 L 42.427148246765135 151.88365020751954 L 43.0 152.9 L 45.3 159.1 L 46.8 166.0 L 47.6 173.4 L 47.7 181.4 L 45.5 185.5 Z M 113.9 159.9 L 113.9 175.6 L 160.0 175.6 L 160.0 159.9 Z M 86.3 144.3 L 131.0 144.3 L 131.0 131.8 L 99.7 131.8 L 99.7 127.8 L 131.0 127.8 L 131.0 117.8 L 143.0 119.8 L 146.0 121.8 L 143.0 123.6 L 143.0 127.8 L 159.9777777671814 127.8 L 166.2 120.8 L 174.2 127.8 L 174.2 131.8 L 143.0 131.8 L 143.0 144.3 L 173.37777776718139 144.3 L 179.6 137.3 L 187.6 144.3 L 187.6 148.3 L 86.3 148.3 Z M 89.1 108.8 L 92.3 108.3 L 95.6 107.8 L 102.4 106.8 L 105.9 106.3 L 109.5 105.8 L 116.9 104.8 L 119.5 104.6 L 119.5 97.2 L 91.9 97.2 L 91.9 93.2 L 119.5 93.2 L 119.5 82.6 L 130.5 84.6 L 133.2 86.6 L 130.5 88.32340421676636 L 130.5 115.4 L 119.5 120.9 L 119.5 108.43142852783203 L 118.2 109.1 L 114.8 110.8 L 111.4 112.4 L 108.1 113.9 L 104.8 115.3 L 101.5 116.6 L 98.3 117.9 L 96.22182626724243 118.7714921951294 L 94.8 122.8 L 92.1 120.4 L 87.2 109.3 Z M 183.07498693466187 96.97226009368896 L 180.92103319168092 96.06356086730958 L 180.6 96.2 L 177.8 97.0 L 175.0 97.7 L 172.0 98.4 L 168.9 99.0 L 165.7 99.5 L 162.4 100.0 L 158.9 100.4 L 155.4 100.7 L 153.3 100.81351346969605 L 153.3 104.4 L 153.2 105.7 L 153.3 106.7 L 153.5 107.4 L 153.6 107.9 L 153.8 108.3 L 154.1 108.7 L 154.6 109.0 L 155.3 109.4 L 156.4 109.7 L 157.8 109.9 L 178.6 109.9 Z M 31.9 85.5 L 30.5 83.5 L 28.7 81.4 L 26.7 79.3 L 24.4 77.3 L 21.7 75.2 L 18.8 73.1 L 15.7 70.9 L 12.1 69.1 L 12.7 67.4 L 16.7 68.4 L 20.6 69.2 L 24.3 70.2 L 27.7 71.5 L 31.0 73.0 L 34.1 74.6 L 36.9 76.5 L 39.6 78.5 L 42.0 80.8 L 44.2 83.2 L 44.9 87.8 L 42.2 91.5 L 37.7 92.2 L 34.0 89.6 L 33.1 87.6 Z M 87.9 76.7 L 131.0 76.7 L 131.0 65.7 L 95.3 65.7 L 95.3 61.7 L 131.0 61.7 L 131.0 51.8 L 143.0 53.8 L 146.0 55.8 L 143.0 57.6 L 143.0 61.7 L 164.37777776718139 61.7 L 170.6 54.7 L 178.6 61.7 L 178.6 65.7 L 143.0 65.7 L 143.0 76.7 L 171.7777777671814 76.7 L 178.0 69.7 L 186.0 76.7 L 186.0 80.7 L 87.9 80.7 Z M 93.9 33.7 L 89.6 38.4 L 84.9 43.0 L 82.82014389038086 44.91007194519043 L 85.0 46.0 L 123.7043478012085 46.0 L 124.9 44.9 L 127.1 42.4 L 129.1 39.9 L 131.1 37.6 L 133.0 35.3 L 134.7 33.1 L 136.4 31.0 L 96.2625 31.0 Z M 48.0 37.8 L 46.7 35.9 L 45.0 33.9 L 43.1 31.8 L 40.8 29.7 L 38.2 27.6 L 35.3 25.4 L 32.2 23.1 L 28.6 21.2 L 29.3 19.5 L 33.3 20.6 L 37.2 21.6 L 40.8 22.7 L 44.2 24.0 L 47.4 25.5 L 50.4 27.1 L 53.1 28.9 L 55.7 30.8 L 58.0 32.9 L 60.0 35.3 L 60.7 39.8 L 58.0 43.5 L 53.5 44.2 L 49.8 41.5 L 49.0 39.7 Z M 187.6 114.4 L 185.8 117.1 L 183.1 118.9 L 157.8 118.9 L 155.4 118.8 L 153.0 118.5 L 150.8 117.9 L 148.7 116.8 L 146.7 115.4 L 145.1 113.6 L 143.9 111.5 L 143.0 109.2 L 142.5 106.8 L 142.3 104.4 L 142.3 82.6 L 153.3 84.6 L 156.0 86.6 L 153.3 88.32340421676636 L 153.3 97.08484849929809 L 154.3 96.6 L 160.5 93.6 L 166.1 90.8 L 168.7 89.4 L 171.2 88.0 L 173.6 86.6 L 174.95417900085448 85.79980335235595 L 174.9 85.7 L 174.98798875808717 85.77982482910156 L 175.8 85.3 L 176.69210901260377 87.32583084106446 L 184.6 94.5 L 184.75 96.9 L 185.1 96.9 L 183.1 109.9 L 185.8 111.7 Z " />
</g>
</svg>
