<svg xmlns="http://www.w3.org/2000/svg" xmlns:xlink="http://www.w3.org/1999/xlink" version="1.1" baseProfile="full" viewBox="0 0 200 200" width="200" height="200">
<g fill="black">
<path d="M 18.1 181.9 L 17.8 177.4 L 20.7 173.8 L 23.3 172.7 L 25.6 171.4 L 27.8 169.7 L 29.8 167.8 L 31.6 165.4 L 33.2 162.6 L 34.7 159.4 L 35.9 155.8 L 37.0 151.7 L 37.5 147.2 L 39.3 147.1 L 39.9 151.8 L 40.3 156.3 L 40.3 160.6 L 39.7 164.8 L 38.7 168.7 L 37.2 172.4 L 35.2 175.9 L 32.6 179.1 L 29.6 182.0 L 26.2 184.5 L 21.6 184.8 Z M 166.5 181.4 L 164.7 182.9 L 162.7 184.3 L 160.6 185.4 L 158.4 186.3 L 156.1 187.0 L 153.8 187.6 L 151.4 187.9 L 149.0 188.0 L 149.0 182.0 L 129.0 179.0 L 129.0 176.0 L 149.0 176.0 L 150.4 175.9 L 151.8 175.7 L 153.1 175.4 L 154.3 175.1 L 155.4 174.6 L 156.5 174.0 L 157.5 173.3 L 158.6 172.5 L 159.5 171.5 L 160.5 170.4 L 161.0 169.6 L 161.6 168.1 L 162.3 165.9 L 163.0 163.1 L 163.6 159.6 L 164.1 155.6 L 164.4 151.0 L 164.7 145.9 L 164.9 140.2 L 164.96774196624756 136.0 L 54.0 136.0 L 42.0 142.0 L 42.0 71.0 L 54.0 77.0 L 144.0 77.0 L 154.0 67.0 L 166.0 77.0 L 166.0 81.0 L 54.0 81.0 L 54.0 105.0 L 138.0 105.0 L 148.0 95.0 L 160.0 105.0 L 160.0 109.0 L 54.0 109.0 L 54.0 132.0 L 165.0 132.0 L 171.0 127.0 L 182.0 136.0 L 177.0 139.0 L 176.92136306762694 139.03276538848877 L 176.9 140.4 L 176.7 146.4 L 176.4 151.8 L 176.0 156.8 L 175.5 161.3 L 174.8 165.4 L 173.9 169.1 L 172.9 172.3 L 171.6 175.3 L 169.9 177.9 L 168.3 179.7 Z M 66.7 179.5 L 63.0 176.9 L 62.1 172.4 L 62.8 170.6 L 63.3 168.6 L 63.6 166.6 L 63.8 164.4 L 63.8 162.0 L 63.5 159.5 L 63.0 156.9 L 62.3 154.1 L 61.5 151.1 L 59.9 148.3 L 61.4 147.2 L 63.5 149.8 L 65.8 152.2 L 67.8 154.7 L 69.5 157.3 L 71.0 160.0 L 72.1 162.8 L 73.0 165.7 L 73.6 168.7 L 73.9 171.7 L 73.8 174.8 L 71.2 178.6 Z M 96.7 165.7 L 96.2 163.5 L 95.4 161.3 L 94.4 159.1 L 93.2 156.8 L 91.7 154.4 L 89.9 152.0 L 87.9 149.6 L 85.3 147.4 L 86.2 145.9 L 89.3 147.5 L 92.4 148.9 L 95.3 150.5 L 97.9 152.4 L 100.4 154.4 L 102.6 156.7 L 104.6 159.2 L 106.3 161.8 L 107.7 164.6 L 108.9 167.7 L 107.9 172.1 L 104.1 174.7 L 99.7 173.7 L 97.1 169.9 L 97.0 167.8 Z M 130.5 160.9 L 129.4 158.9 L 128.1 156.9 L 126.5 154.9 L 124.6 152.9 L 122.5 150.9 L 120.1 148.8 L 117.5 146.7 L 114.5 145.0 L 115.2 143.3 L 118.6 144.4 L 122.0 145.2 L 125.2 146.3 L 128.3 147.6 L 131.1 149.0 L 133.8 150.7 L 136.3 152.5 L 138.6 154.5 L 140.7 156.7 L 142.6 159.1 L 143.0 163.6 L 140.2 167.2 L 135.6 167.6 L 132.0 164.7 L 131.4 162.8 Z M 156.0 20.1 L 166.0 10.1 L 178.0 20.1 L 178.0 24.1 L 112.60103092193603 24.1 L 116.7 29.7 L 116.9 33.3 L 113.47025413513184 31.83918228149414 L 109.0 34.8 L 100.8 39.8 L 99.47798404693603 40.51299734115601 L 106.0 41.6 L 109.0 43.6 L 106.0 45.4 L 106.0 69.5 L 94.0 75.5 L 94.0 43.467415714263915 L 91.9 44.6 L 82.5 49.4 L 72.6 54.0 L 62.1 58.4 L 51.0 62.7 L 39.4 66.8 L 27.1 70.6 L 14.2 74.1 L 13.7 72.4 L 25.8 67.0 L 37.4 61.8 L 48.5 56.6 L 59.0 51.5 L 68.9 46.3 L 78.2 41.1 L 86.9 35.9 L 95.1 30.7 L 102.6 25.4 L 104.28518514633178 24.1 L 22.0 24.1 L 22.0 20.1 L 109.46666669845581 20.1 L 109.6 20.0 L 109.67319583892822 20.1 Z M 165.5 67.3 L 161.5 64.6 L 156.9 61.9 L 151.7 59.2 L 146.0 56.4 L 139.7 53.6 L 132.9 50.8 L 125.5 47.7 L 117.7 44.5 L 118.1 42.8 L 126.6 44.1 L 134.5 45.6 L 141.8 47.4 L 148.7 49.3 L 155.0 51.3 L 160.8 53.5 L 166.2 55.7 L 171.1 58.1 L 175.5 60.5 L 179.5 63.2 L 181.6 67.2 L 180.3 71.6 L 176.2 73.7 L 171.8 72.4 L 169.0 69.9 Z " />
</g>
</svg>
