<svg xmlns="http://www.w3.org/2000/svg" xmlns:xlink="http://www.w3.org/1999/xlink" version="1.1" baseProfile="full" viewBox="0 0 200 200" width="200" height="200">
<g fill="black">
<path d="M 98.3 41.0 L 129.5 41.0 L 129.5 12.0 L 141.5 14.0 L 144.5 16.0 L 141.5 17.8 L 141.5 41.0 L 165.5 41.0 L 175.5 31.0 L 187.5 41.0 L 187.5 45.0 L 98.3 45.0 L 98.3 104.0 L 97.8 115.3 L 96.7 126.1 L 95.2 136.3 L 93.1 145.9 L 90.5 154.8 L 87.4 163.2 L 83.7 170.9 L 79.5 177.9 L 74.8 184.1 L 69.4 189.5 L 68.0 188.4 L 71.6 182.0 L 74.9 175.3 L 77.8 168.2 L 80.2 160.6 L 82.3 152.6 L 84.0 144.0 L 85.2 134.8 L 86.0 125.1 L 86.4 114.8 L 86.3 104.0 L 86.3 35.0 Z M 144.9 54.0 L 147.9 56.0 L 144.9 57.8 L 144.9 86.0 L 168.61818180084228 86.0 L 176.8 77.0 L 186.8 86.0 L 186.8 90.0 L 144.9 90.0 L 144.9 126.0 L 166.7 126.0 L 172.7 121.0 L 183.7 130.0 L 178.7 134.0 L 178.7 179.0 L 166.7 185.0 L 166.7 175.0 L 115.2 175.0 L 115.2 182.0 L 103.2 188.0 L 103.2 120.0 L 115.2 126.0 L 132.9 126.0 L 132.9 52.0 Z M 63.3 153.3 L 62.1 149.9 L 60.5 146.4 L 58.7 142.7 L 56.5 138.9 L 54.1 135.0 L 51.4 130.9 L 48.69263162612915 126.83894739151 L 48.0 130.5 L 45.2 140.8 L 41.6 150.4 L 37.3 159.3 L 32.3 167.3 L 26.5 174.4 L 20.0 180.5 L 12.7 185.7 L 11.6 184.2 L 17.3 177.8 L 22.3 171.0 L 26.7 163.8 L 30.5 155.9 L 33.7 147.5 L 36.2 138.3 L 38.2 128.5 L 39.5 118.1 L 40.1 106.9 L 40.2 95.0 L 40.2 17.0 L 52.2 19.0 L 55.2 21.0 L 52.2 22.8 L 52.2 72.95862064361572 L 54.4 70.0 L 57.2 66.4 L 59.8 62.9 L 62.3 59.5 L 64.6 56.4 L 66.8 53.4 L 68.8 50.5 L 70.09119720458985 48.66514081954956 L 70.0 48.6 L 70.58985509872437 47.95652170181275 L 70.7 47.8 L 70.71866664886474 47.81599998474121 L 71.1 47.4 L 79.8 55.6 L 80.8 59.1 L 76.85203542709351 58.407374668121335 L 74.7 60.4 L 71.9 63.0 L 68.9 65.6 L 65.8 68.4 L 62.4 71.3 L 58.8 74.3 L 55.1 77.3 L 52.2 79.49268293380737 L 52.2 95.0 L 51.5 107.5 L 50.1 119.4 L 49.4 123.1 L 51.0 124.3 L 55.2 127.6 L 58.9 131.1 L 62.3 134.6 L 65.4 138.1 L 68.3 141.7 L 70.8 145.3 L 73.0 148.9 L 74.9 152.6 L 76.5 156.4 L 76.0 160.9 L 72.5 163.8 L 68.0 163.3 L 65.0 159.8 L 64.3 156.6 Z M 115.2 171.0 L 166.7 171.0 L 166.7 130.0 L 115.2 130.0 Z M 15.7 108.5 L 13.1 104.7 L 13.8 100.2 L 15.6 97.5 L 17.3 94.3 L 18.8 90.7 L 20.1 86.8 L 21.1 82.4 L 21.9 77.5 L 22.5 72.3 L 22.9 66.7 L 23.2 60.6 L 23.3 54.1 L 25.1 53.8 L 26.9 60.2 L 28.2 66.3 L 29.1 72.2 L 29.5 77.9 L 29.5 83.3 L 29.2 88.4 L 28.5 93.3 L 27.4 98.0 L 25.9 102.4 L 23.9 106.6 L 20.2 109.2 Z " />
</g>
</svg>
