<svg xmlns="http://www.w3.org/2000/svg" xmlns:xlink="http://www.w3.org/1999/xlink" version="1.1" baseProfile="full" viewBox="0 0 200 200" width="200" height="200">
<g fill="black">
<path d="M 64.9 153.4 L 63.6 150.0 L 62.0 146.4 L 60.1 142.8 L 57.9 139.0 L 55.4 135.0 L 52.7 131.0 L 49.71488304138184 126.72133235931396 L 49.0 130.5 L 46.1 140.9 L 42.4 150.5 L 38.1 159.3 L 32.9 167.3 L 27.0 174.4 L 20.3 180.5 L 12.9 185.7 L 11.8 184.2 L 17.7 177.8 L 22.8 171.0 L 27.4 163.7 L 31.3 155.9 L 34.5 147.4 L 37.2 138.3 L 39.1 128.5 L 40.5 118.0 L 41.2 106.9 L 41.2 17.0 L 53.2 19.0 L 56.2 21.0 L 53.2 22.8 L 53.2 73.36206893920898 L 55.7 70.0 L 58.5 66.3 L 61.3 62.8 L 63.8 59.5 L 66.2 56.3 L 68.5 53.3 L 70.5 50.5 L 71.91767768859863 48.58613519668579 L 71.8 48.5 L 72.8 47.3 L 81.5 55.6 L 82.5 59.1 L 78.53212995529175 58.415884494781494 L 76.3 60.4 L 73.4 63.0 L 70.4 65.7 L 67.2 68.5 L 63.7 71.3 L 60.1 74.3 L 56.3 77.3 L 53.2 79.5880952835083 L 53.2 95.0 L 52.5 107.5 L 51.1 119.4 L 50.41242599487305 123.03431949615478 L 52.1 124.3 L 56.4 127.6 L 60.2 131.0 L 63.7 134.5 L 66.8 138.1 L 69.7 141.6 L 72.3 145.2 L 74.5 148.9 L 76.5 152.6 L 78.2 156.3 L 77.7 160.9 L 74.2 163.8 L 69.6 163.3 L 66.7 159.8 L 65.9 156.7 Z M 162.6 144.6 L 164.6 144.6 L 162.6 169.6 L 166.2 172.0 L 168.6 175.6 L 166.2 179.2 L 162.6 181.6 L 102.6 181.6 L 100.0 181.5 L 97.5 181.1 L 95.1 180.2 L 92.8 179.0 L 90.8 177.4 L 89.2 175.4 L 87.9 173.1 L 87.1 170.7 L 86.7 168.2 L 86.6 165.6 L 86.6 108.3 L 98.6 110.3 L 101.6 112.3 L 98.6 114.1 L 98.6 166.9 L 98.8 167.8 L 99.1 168.7 L 99.3 168.9 L 99.5 169.0 L 99.8 169.2 L 100.4 169.4 L 101.3 169.6 L 156.6 169.6 Z M 176.0 151.8 L 174.7 146.4 L 173.2 141.3 L 171.5 136.3 L 169.6 131.5 L 167.6 126.8 L 165.4 122.3 L 163.0 117.7 L 160.5 113.2 L 161.9 112.0 L 166.0 115.4 L 169.8 119.2 L 173.2 123.4 L 176.4 127.9 L 179.2 132.8 L 181.8 137.9 L 184.2 143.3 L 186.3 148.9 L 188.1 154.8 L 189.7 160.9 L 188.7 165.3 L 184.9 167.9 L 180.4 166.9 L 177.9 163.1 L 177.0 157.3 Z M 128.3 130.8 L 127.0 127.0 L 125.6 123.4 L 124.0 120.1 L 122.2 116.9 L 120.1 113.9 L 117.9 110.9 L 115.5 108.1 L 112.7 105.5 L 113.6 104.0 L 117.3 105.5 L 121.0 107.3 L 124.4 109.7 L 127.6 112.4 L 130.5 115.5 L 133.3 118.9 L 135.8 122.7 L 138.0 126.9 L 140.0 131.3 L 141.8 136.0 L 141.1 140.5 L 137.5 143.3 L 133.0 142.7 L 130.2 139.1 L 129.3 134.8 Z M 16.0 108.5 L 13.4 104.7 L 14.2 100.2 L 16.1 97.4 L 17.8 94.3 L 19.3 90.7 L 20.6 86.7 L 21.7 82.3 L 22.5 77.5 L 23.1 72.3 L 23.5 66.7 L 23.7 60.6 L 23.8 54.1 L 25.6 53.8 L 27.5 60.2 L 28.8 66.3 L 29.6 72.2 L 30.1 77.9 L 30.1 83.3 L 29.7 88.5 L 29.0 93.4 L 27.8 98.1 L 26.3 102.5 L 24.3 106.7 L 20.5 109.2 Z M 83.2 105.3 L 83.2 50.8 L 95.2 56.8 L 110.4 56.8 L 110.4 32.6 L 73.5 32.6 L 73.5 28.6 L 164.4 28.6 L 174.4 18.6 L 186.4 28.6 L 186.4 32.6 L 149.6 32.6 L 149.6 56.8 L 164.8 56.8 L 170.8 51.8 L 181.8 60.8 L 176.8 64.8 L 176.8 99.3 L 164.8 105.3 L 164.8 99.3 L 95.2 99.3 Z M 95.2 60.8 L 95.2 95.3 L 110.4 95.3 L 110.4 60.8 Z M 122.4 60.8 L 122.4 95.3 L 137.6 95.3 L 137.6 60.8 Z M 149.6 60.8 L 149.6 95.3 L 164.8 95.3 L 164.8 60.8 Z M 122.4 32.6 L 122.4 56.8 L 137.6 56.8 L 137.6 32.6 Z " />
</g>
</svg>
