<svg xmlns="http://www.w3.org/2000/svg" xmlns:xlink="http://www.w3.org/1999/xlink" version="1.1" baseProfile="full" viewBox="0 0 200 200" width="200" height="200">
<g fill="black">
<path d="M 19.3 184.2 L 18.9 179.7 L 21.8 176.1 L 24.7 174.8 L 27.3 173.2 L 29.8 171.1 L 32.1 168.7 L 34.2 165.8 L 36.2 162.4 L 37.9 158.5 L 39.5 154.1 L 40.9 149.3 L 42.0 143.9 L 43.8 144.0 L 44.2 149.6 L 44.3 155.0 L 43.8 160.0 L 42.9 164.8 L 41.5 169.3 L 39.6 173.5 L 37.3 177.4 L 34.5 181.0 L 31.2 184.1 L 27.4 186.8 L 22.8 187.1 Z M 168.6 175.1 L 167.1 171.7 L 165.4 168.3 L 163.2 164.7 L 160.7 161.0 L 157.8 157.3 L 154.6 153.4 L 151.1 149.3 L 147.2 145.2 L 148.3 143.8 L 153.3 146.6 L 158.0 149.6 L 162.3 152.8 L 166.1 156.1 L 169.7 159.5 L 172.8 163.0 L 175.7 166.7 L 178.1 170.4 L 180.2 174.3 L 181.9 178.3 L 181.3 182.8 L 177.8 185.7 L 173.2 185.2 L 170.4 181.6 L 169.6 178.4 Z M 121.3 172.7 L 120.6 169.7 L 119.7 166.6 L 118.4 163.4 L 116.8 160.2 L 114.9 156.8 L 112.7 153.3 L 110.1 149.7 L 107.1 146.2 L 108.3 144.8 L 112.2 147.5 L 116.0 150.2 L 119.4 153.1 L 122.5 156.1 L 125.2 159.3 L 127.6 162.6 L 129.6 166.1 L 131.3 169.7 L 132.7 173.5 L 133.6 177.4 L 132.2 181.7 L 128.2 183.9 L 123.9 182.6 L 121.7 178.6 L 121.6 175.7 Z M 80.7 183.9 L 76.7 181.7 L 75.3 177.4 L 75.8 174.5 L 76.1 171.7 L 76.2 168.7 L 76.0 165.8 L 75.5 162.7 L 74.8 159.6 L 73.8 156.4 L 72.5 153.0 L 71.0 149.6 L 68.9 146.2 L 70.3 145.0 L 73.3 147.8 L 76.2 150.6 L 78.7 153.6 L 81.0 156.8 L 82.8 160.1 L 84.4 163.5 L 85.6 167.1 L 86.5 170.8 L 87.1 174.7 L 87.2 178.6 L 85.0 182.6 Z M 181.0 101.2 L 183.0 101.2 L 181.0 126.2 L 184.6 128.6 L 187.0 132.2 L 184.6 135.8 L 181.0 138.2 L 111.0 138.2 L 108.4 138.1 L 105.9 137.6 L 103.5 136.8 L 101.2 135.6 L 99.2 133.9 L 97.6 131.9 L 96.3 129.7 L 95.5 127.2 L 95.1 124.8 L 95.0 122.2 L 95.0 54.74339618682861 L 91.2 58.4 L 85.6 63.5 L 79.6 68.4 L 78.3 67.2 L 82.8 60.9 L 87.2 54.9 L 91.4 49.0 L 95.4 43.3 L 99.2 37.7 L 102.7 32.2 L 106.0 26.8 L 109.0 21.5 L 111.7 16.3 L 113.75592346191407 12.023679256439209 L 113.7 12.0 L 114.7 10.1 L 124.8 16.7 L 126.5 19.9 L 122.7101369857788 20.096027374267578 L 121.6 21.9 L 118.1 27.2 L 114.7384614944458 31.8 L 152.0 31.8 L 152.36521739959716 31.495652198791504 L 153.3 30.0 L 153.73704919815063 30.352459049224855 L 158.0 26.8 L 169.0 35.8 L 164.0 38.8 L 159.00729923248292 40.88029193878174 L 158.0 41.8 L 155.4 43.9 L 152.7 46.1 L 149.9 48.2 L 147.0 50.4 L 143.8 52.5 L 140.5 54.6 L 137.7 56.2 L 167.0 56.2 L 173.0 51.2 L 184.0 60.2 L 179.0 64.2 L 179.0 97.3 L 167.0 103.3 L 167.0 91.3 L 107.0 91.3 L 107.0 123.4 L 107.2 124.3 L 107.4 124.9 L 107.5 125.3 L 107.7 125.4 L 107.9 125.6 L 108.2 125.8 L 108.8 126.0 L 109.7 126.1 L 111.0 126.2 L 175.0 126.2 Z M 32.0 28.1 L 62.0 28.1 L 68.0 23.1 L 79.0 32.1 L 74.0 36.1 L 74.0 121.0 L 62.0 127.0 L 62.0 115.0 L 32.0 115.0 L 32.0 127.0 L 20.0 133.0 L 20.0 22.1 Z M 32.0 73.5 L 32.0 111.0 L 62.0 111.0 L 62.0 73.5 Z M 107.0 60.2 L 107.0 87.3 L 167.0 87.3 L 167.0 60.2 Z M 32.0 32.1 L 32.0 69.5 L 62.0 69.5 L 62.0 32.1 Z M 111.68461542129516 35.8 L 110.3 37.6 L 106.0 42.8 L 101.4 48.1 L 98.00522880554199 51.702614402771 L 107.0 56.2 L 133.56999998092653 56.2 L 135.1 54.5 L 137.6 51.3 L 140.0 48.3 L 142.3 45.4 L 144.5 42.6 L 146.5 39.9 L 148.4 37.3 L 149.4800000190735 35.8 Z " />
</g>
</svg>
