<svg xmlns="http://www.w3.org/2000/svg" xmlns:xlink="http://www.w3.org/1999/xlink" version="1.1" baseProfile="full" viewBox="0 0 200 200" width="200" height="200">
<g fill="black">
<path d="M 90.0 183.4 L 78.0 189.4 L 78.0 116.8 L 90.0 122.8 L 165.0 122.8 L 171.0 117.8 L 182.0 126.8 L 177.0 130.8 L 177.0 180.4 L 165.0 186.4 L 165.0 176.4 L 90.0 176.4 Z M 62.6 153.3 L 61.3 149.9 L 59.8 146.4 L 57.9 142.7 L 55.8 138.9 L 53.5 135.0 L 50.8 130.9 L 48.170526313781735 126.95578947067261 L 47.5 130.5 L 44.7 140.8 L 41.2 150.4 L 36.9 159.3 L 32.0 167.2 L 26.2 174.4 L 19.8 180.5 L 12.6 185.7 L 11.5 184.2 L 17.1 177.9 L 22.0 171.1 L 26.4 163.8 L 30.1 155.9 L 33.3 147.5 L 35.8 138.4 L 37.7 128.6 L 39.0 118.1 L 39.6 106.9 L 39.6 17.0 L 51.6 19.0 L 54.6 21.0 L 51.6 22.8 L 51.6 72.98275861740112 L 53.8 70.1 L 56.5 66.4 L 59.1 62.9 L 61.5 59.6 L 63.8 56.4 L 66.0 53.4 L 68.0 50.5 L 69.24460096359253 48.70224304199219 L 69.1 48.6 L 70.2 47.4 L 79.0 55.6 L 80.0 59.0 L 76.00130643844605 58.37951307296753 L 73.9 60.4 L 71.1 62.9 L 68.2 65.6 L 65.1 68.4 L 61.7 71.3 L 58.2 74.3 L 54.5 77.3 L 51.6 79.49268293380737 L 51.6 95.0 L 51.0 107.5 L 49.6 119.4 L 48.9 123.1 L 50.5 124.3 L 54.6 127.6 L 58.3 131.1 L 61.7 134.6 L 64.7 138.1 L 67.5 141.7 L 70.0 145.3 L 72.2 149.0 L 74.1 152.6 L 75.7 156.4 L 75.2 160.9 L 71.7 163.8 L 67.1 163.3 L 64.2 159.8 L 63.5 156.6 Z M 90.0 151.6 L 90.0 172.4 L 121.5 172.4 L 121.5 151.6 Z M 133.5 151.6 L 133.5 172.4 L 165.0 172.4 L 165.0 151.6 Z M 90.0 126.8 L 90.0 147.6 L 121.5 147.6 L 121.5 126.8 Z M 133.5 126.8 L 133.5 147.6 L 165.0 147.6 L 165.0 126.8 Z M 174.3 107.5 L 172.5 104.4 L 170.80993671417235 101.78040189743042 L 165.1 103.0 L 154.7 104.9 L 144.2 106.5 L 133.8 107.9 L 123.3 109.2 L 102.3 111.4 L 91.8 112.3 L 81.2 113.2 L 74.77582664489746 113.62827825546265 L 72.8 116.8 L 70.7 113.9 L 68.2 102.0 L 70.2 101.9 L 80.7 101.8 L 100.02245655059815 101.43195323944092 L 102.3 99.0 L 108.2 93.0 L 124.8 76.4 L 130.0 71.3 L 139.8 61.5 L 144.3 56.8 L 148.00832233428955 53.00739765167236 L 148.0 53.0 L 148.9 52.1 L 157.0 61.0 L 157.6 64.5 L 153.96142578125 63.54248046875 L 152.1 65.1 L 147.0 69.4 L 141.7 73.7 L 136.2 78.2 L 130.4 82.8 L 124.4 87.5 L 118.2 92.2 L 111.6 97.1 L 105.66898260116577 101.28660049438477 L 112.2 101.1 L 133.2 100.3 L 143.6 99.9 L 154.1 99.5 L 164.7 99.2 L 168.9807445526123 99.15923099517822 L 168.3 98.2 L 165.9 95.2 L 163.2 92.2 L 160.4 89.2 L 157.3 86.1 L 154.0 83.2 L 154.9 81.7 L 159.1 83.5 L 163.2 85.4 L 167.0 87.6 L 170.6 90.0 L 174.1 92.6 L 177.3 95.4 L 180.3 98.4 L 183.1 101.6 L 185.6 105.0 L 188.0 108.6 L 188.3 113.1 L 185.4 116.6 L 180.8 116.9 L 177.3 114.0 L 175.9 110.7 Z M 15.5 108.5 L 12.9 104.8 L 13.5 100.2 L 15.4 97.5 L 17.1 94.3 L 18.6 90.8 L 19.8 86.8 L 20.8 82.4 L 21.7 77.5 L 22.2 72.3 L 22.6 66.6 L 22.9 60.6 L 23.0 54.1 L 24.8 53.8 L 26.6 60.2 L 28.0 66.3 L 28.8 72.2 L 29.2 77.9 L 29.3 83.3 L 29.0 88.4 L 28.3 93.3 L 27.2 98.0 L 25.7 102.4 L 23.8 106.6 L 20.0 109.2 Z M 127.0 46.6 L 128.0 50.1 L 123.94569025039672 49.388717555999754 L 122.4 50.8 L 119.9 52.9 L 114.5 57.3 L 111.7 59.6 L 108.7 61.8 L 105.6 64.0 L 102.82142858505249 65.85238094329834 L 103.1 66.1 L 105.7 68.5 L 108.2 71.0 L 110.4 73.7 L 112.4 76.4 L 112.9 81.0 L 110.0 84.6 L 105.5 85.0 L 101.9 82.2 L 100.9 79.6 L 99.6 77.0 L 98.2 74.4 L 96.6 71.8 L 94.8 69.1 L 92.8 66.4 L 90.6 63.7 L 88.2 60.9 L 85.7 58.0 L 82.8 55.3 L 83.8 53.8 L 87.4 55.7 L 91.0 57.5 L 94.3 59.4 L 97.4 61.5 L 100.4 63.7 L 100.54651165008545 63.830232524871825 L 102.5 60.9 L 104.7 57.8 L 106.8 54.8 L 108.9 52.0 L 110.9 49.2 L 112.7 46.5 L 114.6 43.8 L 116.3 41.3 L 117.1960000038147 39.9 L 67.1 39.9 L 67.1 35.9 L 121.5 35.9 L 121.5 13.2 L 133.5 15.2 L 136.5 17.2 L 133.5 19.0 L 133.5 35.9 L 165.8 35.9 L 175.8 25.9 L 187.8 35.9 L 187.8 39.9 L 119.89146337509155 39.9 Z " />
</g>
</svg>
