<svg xmlns="http://www.w3.org/2000/svg" xmlns:xlink="http://www.w3.org/1999/xlink" version="1.1" baseProfile="full" viewBox="0 0 200 200" width="200" height="200">
<g fill="black">
<path d="M 89.8 25.0 L 113.4 25.0 L 118.9 20.0 L 129.4 29.0 L 124.4 32.5 L 124.4 84.0 L 113.4 89.5 L 113.4 78.0 L 89.8 78.0 L 89.8 183.0 L 77.8 189.0 L 77.8 19.0 Z M 148.1 176.0 L 166.1 176.0 L 167.3 175.9 L 168.2 175.7 L 168.8 175.5 L 169.2 175.4 L 169.4 175.2 L 169.5 175.0 L 169.7 174.7 L 169.9 174.1 L 170.0 173.2 L 170.1 172.0 L 170.1 78.0 L 146.5 78.0 L 146.5 90.0 L 135.5 95.5 L 135.5 19.5 L 146.5 25.0 L 170.1 25.0 L 176.1 20.0 L 187.1 29.0 L 182.1 33.0 L 182.1 172.0 L 182.0 174.5 L 181.5 177.0 L 180.7 179.4 L 179.5 181.7 L 177.8 183.7 L 175.8 185.3 L 173.6 186.6 L 171.2 187.4 L 168.7 187.8 L 166.1 188.0 L 166.1 182.0 L 148.1 179.0 Z M 58.8 153.2 L 57.7 149.8 L 56.3 146.2 L 54.6 142.6 L 52.7 138.8 L 50.6 134.9 L 48.2 130.8 L 46.13032741546631 127.45668277740478 L 45.6 130.4 L 43.0 140.7 L 39.7 150.3 L 35.7 159.2 L 31.1 167.2 L 25.7 174.3 L 19.6 180.5 L 12.9 185.6 L 11.7 184.3 L 16.8 177.9 L 21.4 171.1 L 25.4 163.9 L 28.8 156.0 L 31.7 147.6 L 34.0 138.4 L 35.8 128.6 L 36.9 118.1 L 37.5 106.9 L 37.5 17.0 L 49.5 19.0 L 52.5 21.0 L 49.5 22.8 L 49.5 72.24615383148193 L 50.9 70.2 L 53.3 66.5 L 55.7 63.0 L 57.9 59.7 L 60.0 56.6 L 62.0 53.6 L 63.8 50.7 L 64.93907508850097 48.89088077545166 L 64.8 48.8 L 65.9 47.5 L 74.9 55.4 L 76.1 58.9 L 72.05757579803466 58.34242420196533 L 67.6 62.8 L 64.8 65.5 L 61.8 68.3 L 58.7 71.2 L 55.4 74.1 L 51.9 77.2 L 49.5 79.15789470672607 L 49.5 95.0 L 48.9 107.5 L 47.6 119.3 L 46.864705848693845 123.38088235855102 L 48.1 124.4 L 52.0 127.8 L 55.5 131.2 L 58.7 134.7 L 61.6 138.2 L 64.2 141.8 L 66.5 145.4 L 68.6 149.1 L 70.4 152.8 L 71.9 156.5 L 71.3 161.0 L 67.7 163.8 L 63.2 163.2 L 60.3 159.6 L 59.7 156.5 Z M 117.0 105.8 L 144.2 105.8 L 150.2 100.8 L 161.2 109.8 L 156.2 113.8 L 156.2 160.1 L 144.2 166.1 L 144.2 154.1 L 117.0 154.1 L 117.0 166.1 L 105.0 172.1 L 105.0 99.8 Z M 117.0 109.8 L 117.0 150.1 L 144.2 150.1 L 144.2 109.8 Z M 15.5 108.6 L 12.8 104.9 L 13.3 100.4 L 15.0 97.6 L 16.6 94.4 L 18.0 90.8 L 19.2 86.8 L 20.2 82.4 L 21.0 77.5 L 21.6 72.3 L 22.0 66.6 L 22.3 60.6 L 22.5 54.1 L 24.3 53.8 L 26.0 60.2 L 27.3 66.3 L 28.1 72.2 L 28.5 77.8 L 28.6 83.2 L 28.4 88.3 L 27.8 93.2 L 26.8 97.8 L 25.4 102.2 L 23.7 106.3 L 20.0 109.1 Z M 146.5 53.0 L 146.5 74.0 L 170.1 74.0 L 170.1 53.0 Z M 89.8 53.0 L 89.8 74.0 L 113.4 74.0 L 113.4 53.0 Z M 146.5 29.0 L 146.5 49.0 L 170.1 49.0 L 170.1 29.0 Z M 89.8 29.0 L 89.8 49.0 L 113.4 49.0 L 113.4 29.0 Z " />
</g>
</svg>
