<svg xmlns="http://www.w3.org/2000/svg" xmlns:xlink="http://www.w3.org/1999/xlink" version="1.1" baseProfile="full" viewBox="0 0 200 200" width="200" height="200">
<g fill="black">
<path d="M 70.5 176.0 L 90.5 176.0 L 91.7 175.9 L 92.6 175.7 L 93.2 175.5 L 93.6 175.4 L 93.7 175.2 L 93.9 175.0 L 94.1 174.7 L 94.3 174.1 L 94.4 173.2 L 94.5 172.0 L 94.5 129.0 L 68.0 129.0 L 68.0 125.0 L 109.9 125.0 L 119.9 115.0 L 131.9 125.0 L 131.9 129.0 L 106.5 129.0 L 106.5 172.0 L 106.3 174.5 L 105.9 177.0 L 105.1 179.4 L 103.9 181.7 L 102.2 183.7 L 100.2 185.3 L 97.9 186.6 L 95.5 187.4 L 93.0 187.8 L 90.5 188.0 L 90.5 182.0 L 70.5 179.0 Z M 146.4 176.0 L 160.4 176.0 L 161.7 175.9 L 162.6 175.7 L 163.5 175.4 L 163.7 175.2 L 163.8 175.0 L 164.0 174.7 L 164.2 174.1 L 164.4 173.2 L 164.4 69.0 L 135.2 69.0 L 135.2 65.0 L 164.4 65.0 L 164.4 13.0 L 176.4 15.0 L 179.4 17.0 L 176.4 18.8 L 176.4 65.0 L 177.6 65.0 L 182.1 59.0 L 188.1 65.0 L 188.1 69.0 L 176.4 69.0 L 176.4 172.0 L 176.3 174.5 L 175.9 177.0 L 175.0 179.4 L 173.8 181.7 L 172.2 183.7 L 170.2 185.3 L 167.9 186.6 L 165.5 187.4 L 163.0 187.8 L 160.4 188.0 L 160.4 182.0 L 146.4 179.0 Z M 53.9 153.0 L 52.9 149.6 L 51.7 146.0 L 50.3 142.4 L 48.6 138.6 L 46.7 134.8 L 44.6 130.8 L 43.31632270812988 128.34934329986572 L 43.0 130.3 L 40.6 140.6 L 37.6 150.2 L 34.0 159.0 L 29.7 167.0 L 24.8 174.2 L 19.2 180.4 L 13.0 185.6 L 11.8 184.3 L 16.3 178.0 L 20.3 171.2 L 23.9 164.0 L 26.9 156.2 L 29.5 147.7 L 31.6 138.5 L 33.1 128.7 L 34.1 118.2 L 34.6 106.9 L 34.6 17.0 L 46.6 19.0 L 49.6 21.0 L 46.6 22.8 L 46.6 70.9782608985901 L 47.0 70.3 L 49.1 66.7 L 51.2 63.2 L 53.2 59.9 L 55.0 56.8 L 56.8 53.8 L 58.3 51.0 L 59.31732473373413 49.168815517425536 L 59.2 49.1 L 60.3 47.6 L 69.1 54.79139785766601 L 69.1 42.0 L 79.1 47.0 L 87.3 47.0 L 87.3 28.0 L 66.0 28.0 L 66.0 24.0 L 112.0 24.0 L 122.0 14.0 L 134.0 24.0 L 134.0 28.0 L 112.6 28.0 L 112.6 47.0 L 120.9 47.0 L 125.9 42.0 L 135.9 51.0 L 130.9 54.0 L 130.9 90.0 L 120.9 95.0 L 120.9 88.0 L 79.1 88.0 L 79.1 91.0 L 69.1 96.0 L 69.1 58.4758620262146 L 66.8118597984314 58.318059253692624 L 65.2 60.0 L 62.8 62.6 L 60.3 65.3 L 57.6 68.1 L 54.7 71.0 L 51.6 74.0 L 48.4 77.1 L 46.6 78.69428567886352 L 46.6 95.0 L 46.0 107.5 L 44.8 119.2 L 44.07478256225586 123.67217388153077 L 45.0 124.5 L 48.5 127.9 L 51.7 131.4 L 54.7 134.9 L 57.3 138.4 L 59.8 142.0 L 61.9 145.6 L 63.8 149.2 L 65.5 152.9 L 66.9 156.6 L 66.1 161.1 L 62.5 163.9 L 58.0 163.1 L 55.2 159.5 L 54.7 156.3 Z M 91.2 141.6 L 92.9 144.7 L 88.7872727394104 144.98363637924194 L 87.8 146.3 L 85.8 149.0 L 83.6 151.8 L 81.2 154.8 L 78.5 158.0 L 75.7 161.4 L 72.6 164.9 L 69.2 168.5 L 65.7 172.5 L 64.2 171.4 L 66.6 166.8 L 68.7 162.3 L 70.8 158.1 L 72.7 154.2 L 74.4 150.5 L 76.0 147.1 L 77.4 144.0 L 78.6 141.1 L 79.6 138.5 L 80.14081239700317 137.05783367156982 L 80.0 137.0 L 81.0 135.1 Z M 120.8 161.3 L 119.9 158.4 L 118.7 155.5 L 117.5 152.5 L 116.0 149.6 L 114.5 146.5 L 112.7 143.5 L 110.9 140.3 L 108.7 137.3 L 109.9 136.0 L 113.0 138.4 L 116.0 140.6 L 118.9 143.0 L 121.5 145.6 L 124.0 148.3 L 126.2 151.1 L 128.4 154.0 L 130.3 156.9 L 132.0 160.0 L 133.6 163.2 L 133.3 167.7 L 129.9 170.8 L 125.3 170.4 L 122.3 167.0 L 121.6 164.2 Z M 147.7 119.1 L 147.0 115.3 L 146.1 111.5 L 145.0 107.8 L 143.8 104.1 L 142.4 100.4 L 140.9 96.7 L 139.3 93.0 L 137.4 89.3 L 138.8 88.2 L 141.9 91.1 L 144.9 94.1 L 147.7 97.4 L 150.1 100.9 L 152.4 104.5 L 154.5 108.3 L 156.3 112.3 L 157.9 116.4 L 159.3 120.6 L 160.5 125.0 L 159.4 129.4 L 155.6 131.9 L 151.1 130.8 L 148.7 127.0 L 148.3 123.0 Z M 123.8 105.0 L 123.8 109.0 L 77.1 109.0 L 77.1 105.0 L 105.61818180084228 105.0 L 113.8 96.0 Z M 15.3 108.6 L 12.4 105.1 L 12.7 100.5 L 14.3 97.7 L 15.8 94.5 L 17.1 90.9 L 18.2 86.9 L 19.1 82.4 L 19.9 77.5 L 20.5 72.3 L 20.9 66.6 L 21.2 60.5 L 21.5 54.1 L 23.3 53.8 L 25.0 60.2 L 26.2 66.3 L 27.0 72.2 L 27.5 77.8 L 27.6 83.2 L 27.4 88.2 L 26.9 93.1 L 26.0 97.6 L 24.9 102.0 L 23.3 106.1 L 19.8 109.0 Z M 79.1 51.0 L 79.1 84.0 L 87.3 84.0 L 87.3 51.0 Z M 95.3 51.0 L 95.3 84.0 L 104.6 84.0 L 104.6 51.0 Z M 112.6 51.0 L 112.6 84.0 L 120.9 84.0 L 120.9 51.0 Z M 95.3 28.0 L 95.3 47.0 L 104.6 47.0 L 104.6 28.0 Z " />
</g>
</svg>
