<svg xmlns="http://www.w3.org/2000/svg" xmlns:xlink="http://www.w3.org/1999/xlink" version="1.1" baseProfile="full" viewBox="0 0 200 200" width="200" height="200">
<g fill="black">
<path d="M 151.0 184.7 L 140.1 181.5 L 130.5 177.6 L 122.1 172.8 L 115.1 167.4 L 109.5 161.2 L 105.4 154.3 L 103.64869108200074 149.04607334136963 L 102.1 153.1 L 96.9 161.0 L 89.9 167.8 L 81.4 173.6 L 71.4 178.3 L 59.9 182.1 L 46.8 185.0 L 32.2 186.9 L 16.0 187.8 L 15.9 186.0 L 31.6 183.1 L 45.6 179.8 L 57.9 175.9 L 68.3 171.4 L 77.0 166.4 L 83.8 160.8 L 88.9 154.9 L 92.4 148.5 L 94.3 141.7 L 94.9 134.2 L 94.92939739227295 134.20048999786377 L 95.0 131.8 L 106.9 134.4 L 109.9 136.5 L 106.3082317352295 138.5423780441284 L 105.7185185432434 142.67037038803102 L 106.9 145.4 L 110.5 151.3 L 114.9 156.4 L 119.2817174911499 159.98504152297974 L 123.2 157.6 L 127.6 155.0 L 131.9 152.5 L 136.0 150.1 L 140.0 147.8 L 143.8 145.5 L 147.4 143.3 L 150.8 141.1 L 154.0 139.0 L 156.25192565917968 137.47450199127198 L 156.2 137.4 L 156.2649395942688 137.46568603515624 L 157.1 136.9 L 159.05382165908813 140.28662424087526 L 164.9 146.2 L 165.1 149.6 L 161.35376110076905 148.0761061668396 L 159.5 148.9 L 155.8 150.5 L 151.8 152.1 L 147.7 153.7 L 143.5 155.3 L 139.0 156.8 L 134.4 158.3 L 129.6 159.6 L 124.5 160.9 L 121.53888893127441 161.5833333015442 L 126.9 164.8 L 134.5 168.2 L 143.4 170.9 L 153.5 173.2 L 164.8 174.8 L 177.5 175.8 L 188.3 176.6 L 176.4 188.9 L 163.1 187.2 Z M 35.1 165.2 L 35.5 160.7 L 38.8 157.6 L 42.2 156.7 L 45.3 155.7 L 48.2 154.5 L 50.7 153.1 L 53.1 151.6 L 55.2 149.9 L 57.2 147.9 L 59.0 145.6 L 60.7 143.1 L 61.9 140.2 L 63.7 140.5 L 63.4 143.9 L 62.9 147.3 L 62.0 150.6 L 60.6 153.8 L 58.6 156.9 L 56.3 159.8 L 53.5 162.4 L 50.3 164.8 L 46.7 167.0 L 42.7 168.9 L 38.2 168.6 Z M 162.0 42.1 L 162.0 46.1 L 144.5 46.1 L 144.5 64.1 L 165.0 64.1 L 171.0 59.1 L 182.0 68.1 L 177.0 72.1 L 177.0 127.8 L 165.0 133.8 L 165.0 127.8 L 94.0 127.8 L 94.0 139.8 L 82.0 145.8 L 82.0 58.1 L 94.0 64.1 L 111.5 64.1 L 111.5 46.1 L 96.0 46.1 L 96.0 42.1 L 143.8181818008423 42.1 L 152.0 33.1 Z M 20.0 125.5 L 34.0 125.5 L 35.2 125.4 L 36.1 125.2 L 37.0 124.9 L 37.4 124.5 L 37.7 123.6 L 37.9 122.7 L 38.0 121.5 L 38.0 86.55593223571778 L 35.3 87.7 L 29.4 90.1 L 23.4 92.6 L 21.259903335571288 93.420370388031 L 20.3 97.1 L 17.4 94.9 L 11.7 84.2 L 13.6 83.6 L 19.7 81.8 L 25.9 80.0 L 38.0 76.42950820922852 L 38.0 44.0 L 13.9 44.0 L 13.9 40.0 L 38.0 40.0 L 38.0 12.6 L 50.0 14.6 L 53.0 16.6 L 50.0 18.4 L 50.0 40.0 L 52.8 40.0 L 62.8 30.0 L 74.8 40.0 L 74.8 44.0 L 50.0 44.0 L 50.0 72.95901641845703 L 50.2 72.9 L 56.2 71.2 L 62.2 69.6 L 68.3 68.1 L 74.4 66.7 L 75.1 68.4 L 69.7 71.6 L 64.2 74.6 L 58.5 77.4 L 52.8 80.0 L 50.0 81.2551724433899 L 50.0 121.5 L 49.8 124.0 L 49.4 126.5 L 48.6 128.9 L 47.3 131.2 L 45.7 133.2 L 43.7 134.9 L 41.4 136.1 L 39.0 136.9 L 36.5 137.3 L 34.0 137.5 L 34.0 131.5 L 20.0 128.5 Z M 94.0 112.2 L 94.0 123.8 L 165.0 123.8 L 165.0 112.2 Z M 159.0 79.4 L 161.0 79.4 L 159.0 88.4 L 161.4 90.0 L 163.0 92.4 L 161.4 94.8 L 159.0 96.4 L 146.6 96.4 L 144.3 96.2 L 142.1 95.6 L 140.0 94.6 L 138.1 93.3 L 136.5 91.5 L 135.2 89.5 L 134.3 87.3 L 133.7 84.9 L 133.5 82.4 L 133.5 68.1 L 122.25510206222535 68.1 L 121.9 71.0 L 120.8 75.7 L 119.3 80.2 L 117.2 84.4 L 114.7 88.4 L 111.7 92.2 L 108.3 95.7 L 104.4 98.9 L 100.1 101.8 L 95.4 104.4 L 94.5 103.1 L 98.1 99.4 L 101.3 95.6 L 104.0 92.0 L 106.3 88.3 L 108.2 84.7 L 109.6 81.0 L 110.7 77.4 L 111.3 73.7 L 111.6 69.9 L 111.5526315689087 68.1 L 94.0 68.1 L 94.0 108.2 L 165.0 108.2 L 165.0 68.1 L 144.5 68.1 L 144.5 82.4 L 144.4 83.7 L 144.4 84.7 L 144.5 85.5 L 144.6 86.1 L 144.8 86.6 L 145.1 87.0 L 145.6 87.4 L 146.4 87.8 L 147.5 88.2 L 149.0 88.4 L 155.0 88.4 Z M 122.5 46.1 L 122.5 64.1 L 133.5 64.1 L 133.5 46.1 Z M 105.9 25.6 L 107.7 28.7 L 103.79779415130615 29.103676509857177 L 103.2 30.1 L 100.3 34.4 L 97.1 38.6 L 93.6 42.7 L 89.8 46.6 L 85.7 50.4 L 81.4 54.0 L 76.8 57.4 L 71.8 60.5 L 66.5 63.3 L 65.4 61.9 L 69.4 57.5 L 73.3 53.3 L 76.9 49.2 L 80.3 45.1 L 83.4 41.0 L 86.3 36.9 L 88.9 32.8 L 91.2 28.7 L 93.3 24.6 L 94.71226720809936 21.304709720611573 L 94.7 21.3 L 94.8 21.1 L 95.1 20.4 L 95.14029846191406 20.419402980804442 L 95.7 19.3 Z M 172.5 53.8 L 169.4 50.5 L 166.6 46.9 L 164.2 43.1 L 162.1 39.1 L 160.3 34.9 L 159.0 30.5 L 158.60784311294555 28.696078395843507 L 158.2 28.9 L 158.2 26.819999980926514 L 158.0 25.9 L 157.5021276473999 22.0 L 110.0 22.0 L 110.0 18.0 L 153.2800000190735 18.0 L 158.2 13.9 L 169.2 22.9 L 164.2 25.9 L 162.67346935272218 26.663265323638917 L 163.8 28.4 L 166.2 31.8 L 168.7 34.9 L 171.3 37.8 L 174.1 40.4 L 176.9 42.8 L 179.9 44.9 L 183.0 46.7 L 186.3 48.4 L 190.7 51.0 L 179.6 59.8 L 175.9 56.9 Z " />
</g>
</svg>
