<svg xmlns="http://www.w3.org/2000/svg" xmlns:xlink="http://www.w3.org/1999/xlink" version="1.1" baseProfile="full" viewBox="0 0 200 200" width="200" height="200">
<g fill="black">
<path d="M 182.0 151.2 L 184.0 151.2 L 182.0 176.2 L 185.6 178.6 L 188.0 182.2 L 185.6 185.8 L 182.0 188.2 L 139.0 188.2 L 136.4 188.0 L 133.9 187.6 L 131.5 186.8 L 129.2 185.6 L 127.2 183.9 L 125.6 181.9 L 124.3 179.6 L 123.5 177.2 L 123.1 174.7 L 123.0 172.2 L 123.0 152.0830693244934 L 86.1 155.7 L 85.8 151.7 L 123.0 148.09049501419068 L 123.0 132.0485227584839 L 89.1 135.4 L 88.8 131.4 L 123.0 128.01886367797852 L 123.0 109.51348314285278 L 118.0 110.3 L 108.7 111.6 L 99.1 112.6 L 89.1 113.4 L 88.8 111.6 L 98.4 108.9 L 107.7 106.3 L 116.7 103.9 L 125.3 101.5 L 133.5 99.1 L 141.3 96.8 L 148.8 94.5 L 156.0 92.1 L 162.7 89.7 L 168.2086812019348 87.7203176498413 L 168.2 87.7 L 168.21924476623536 87.71652145385742 L 169.1 87.4 L 169.2 87.6973684310913 L 169.2 82.6 L 118.8 82.6 L 118.8 89.6 L 106.8 95.6 L 106.8 55.3 L 118.8 57.3 L 121.8 59.3 L 118.8 61.1 L 118.8 78.6 L 138.0 78.6 L 138.0 46.1 L 120.3 46.1 L 108.3 52.1 L 108.3 18.8 L 120.3 20.8 L 123.3 22.8 L 120.3 24.6 L 120.3 42.1 L 138.0 42.1 L 138.0 10.3 L 150.0 12.3 L 153.0 14.3 L 150.0 16.1 L 150.0 42.1 L 167.6 42.1 L 167.6 18.8 L 179.6 20.8 L 182.6 22.8 L 179.6 24.6 L 179.6 46.1 L 167.6 52.1 L 167.6 46.1 L 150.0 46.1 L 150.0 78.6 L 169.2 78.6 L 169.2 55.3 L 181.2 57.3 L 184.2 59.3 L 181.2 61.1 L 181.2 82.6 L 169.4598484992981 88.47007579803467 L 169.60711269378663 88.90799293518066 L 178.8 96.8 L 179.0 99.9 L 174.88928689956666 98.05938215255738 L 172.9 98.7 L 166.1 100.6 L 159.0 102.4 L 151.5 104.2 L 143.6 105.8 L 135.4 107.4 L 135.0 107.47058820724487 L 135.0 126.83249998092651 L 154.8388219833374 124.87116193771362 L 163.8 113.9 L 176.8 122.7 L 177.1 126.7 L 135.0 130.8621590614319 L 135.0 146.92613859176635 L 164.87455015182496 144.02741985321046 L 173.8 133.1 L 186.8 141.9 L 187.1 145.8 L 135.0 150.90683164596558 L 135.0 173.4 L 135.2 174.3 L 135.5 175.2 L 135.9 175.6 L 136.2 175.8 L 136.8 176.0 L 137.7 176.1 L 139.0 176.2 L 176.0 176.2 Z M 72.6 169.8 L 71.2 167.9 L 69.5 165.8 L 67.4 163.6 L 64.9 161.3 L 62.1 158.8 L 58.9 156.2 L 55.4 153.4 L 54.389789772033694 152.74336338043213 L 53.1 156.2 L 49.8 162.5 L 45.7 168.2 L 40.8 173.2 L 35.1 177.7 L 28.7 181.5 L 21.6 184.7 L 13.8 187.2 L 13.1 185.5 L 19.9 181.3 L 25.8 177.0 L 31.0 172.6 L 35.3 168.0 L 38.9 163.1 L 41.7 158.0 L 43.7 152.6 L 45.1 147.0 L 45.8 141.0 L 45.9 134.6 L 45.9 89.3 L 57.9 91.3 L 60.9 93.3 L 57.9 95.1 L 57.9 122.1777777671814 L 58.9 121.4 L 62.3 118.9 L 65.6 116.5 L 68.7 114.3 L 71.7 112.1 L 74.4 110.1 L 77.0 108.2 L 79.3 106.4 L 80.72474956512451 105.23429584503174 L 80.7 105.2 L 80.72942876815796 105.23046741485595 L 81.5 104.6 L 83.78153982162476 108.3903000831604 L 89.2 114.0 L 89.4 117.4 L 85.6066964149475 115.83035717010497 L 85.0 116.1 L 82.2 117.3 L 79.2 118.5 L 75.9 119.9 L 72.5 121.2 L 68.9 122.6 L 65.1 124.0 L 61.0 125.5 L 57.9 126.50930233001709 L 57.9 134.6 L 57.1 142.2 L 55.6 149.5 L 55.27805233001709 150.36281976699829 L 56.7 150.9 L 61.1 152.4 L 65.0 154.0 L 68.7 155.7 L 72.0 157.4 L 75.0 159.1 L 77.8 160.9 L 80.2 162.8 L 82.4 164.7 L 84.3 166.9 L 84.9 171.4 L 82.2 175.1 L 77.6 175.7 L 74.0 173.0 L 73.5 171.5 Z M 16.9 142.8 L 15.6 138.4 L 17.8 134.4 L 19.6 133.3 L 21.1 132.0 L 22.5 130.6 L 23.8 128.9 L 24.8 126.8 L 25.7 124.5 L 26.3 121.8 L 26.7 118.7 L 26.9 115.3 L 26.3 111.6 L 28.1 111.1 L 29.4 114.7 L 30.7 118.2 L 31.6 121.6 L 32.1 125.0 L 32.2 128.3 L 31.8 131.7 L 30.9 134.9 L 29.5 138.0 L 27.7 140.9 L 25.3 143.7 L 20.9 144.9 Z M 62.0 12.3 L 65.0 14.3 L 62.0 16.1 L 62.0 42.1 L 79.6 42.1 L 79.6 18.8 L 91.6 20.8 L 94.6 22.8 L 91.6 24.6 L 91.6 46.1 L 79.6 52.1 L 79.6 46.1 L 62.0 46.1 L 62.0 78.6 L 81.2 78.6 L 81.2 55.3 L 93.2 57.3 L 96.2 59.3 L 93.2 61.1 L 93.2 86.6 L 81.2 92.6 L 81.2 82.6 L 30.8 82.6 L 30.8 89.6 L 18.7 95.6 L 18.7 55.3 L 30.8 57.3 L 33.8 59.3 L 30.8 61.1 L 30.8 78.6 L 50.0 78.6 L 50.0 46.1 L 32.3 46.1 L 20.3 52.1 L 20.3 18.8 L 32.3 20.8 L 35.3 22.8 L 32.3 24.6 L 32.3 42.1 L 50.0 42.1 L 50.0 10.3 Z " />
</g>
</svg>
