<svg xmlns="http://www.w3.org/2000/svg" xmlns:xlink="http://www.w3.org/1999/xlink" version="1.1" baseProfile="full" viewBox="0 0 200 200" width="200" height="200">
<g fill="black">
<path d="M 159.7 86.0 L 162.7 88.0 L 159.7 89.8 L 159.7 110.0 L 164.11818180084228 110.0 L 172.3 101.0 L 182.3 110.0 L 182.3 114.0 L 159.7 114.0 L 159.7 131.0 L 164.37777776718139 131.0 L 170.6 124.0 L 178.6 131.0 L 178.6 135.0 L 159.7 135.0 L 159.7 152.0 L 165.3 152.0 L 175.3 142.0 L 187.3 152.0 L 187.3 156.0 L 159.7 156.0 L 159.7 182.0 L 147.7 188.0 L 147.7 156.0 L 120.2 156.0 L 120.2 152.0 L 147.7 152.0 L 147.7 135.0 L 128.9 135.0 L 128.9 131.0 L 147.7 131.0 L 147.7 114.0 L 125.2 114.0 L 125.2 110.0 L 147.7 110.0 L 147.7 84.0 Z M 55.3 153.1 L 54.2 149.6 L 53.0 146.1 L 51.4 142.5 L 49.7 138.7 L 47.7 134.8 L 45.5 130.8 L 43.881625461578366 127.96784448623657 L 43.5 130.3 L 41.0 140.7 L 37.9 150.3 L 34.1 159.1 L 29.7 167.1 L 24.6 174.2 L 18.8 180.4 L 12.4 185.6 L 11.2 184.3 L 15.9 177.9 L 20.1 171.2 L 23.9 163.9 L 27.1 156.1 L 29.8 147.6 L 31.9 138.5 L 33.6 128.7 L 34.7 118.1 L 35.2 106.9 L 35.2 17.0 L 47.2 19.0 L 50.2 21.0 L 47.2 22.8 L 47.2 71.40833330154419 L 47.9 70.3 L 50.2 66.6 L 52.4 63.1 L 54.5 59.8 L 56.4 56.7 L 58.2 53.7 L 59.9 50.9 L 60.992185020446776 49.056937789916994 L 60.9 49.0 L 61.9 47.6 L 71.1 55.3 L 72.4 58.7 L 68.28188457489014 58.34499006271362 L 66.6 60.1 L 64.1 62.7 L 61.5 65.4 L 58.7 68.2 L 55.7 71.1 L 52.5 74.1 L 49.2 77.1 L 47.2 78.77567567825318 L 47.2 95.0 L 46.6 107.5 L 45.3 119.3 L 44.596076774597165 123.60175294876099 L 45.6 124.5 L 49.3 127.8 L 52.6 131.3 L 55.7 134.8 L 58.4 138.4 L 60.9 141.9 L 63.2 145.5 L 65.1 149.2 L 66.8 152.8 L 68.3 156.5 L 67.6 161.1 L 64.0 163.9 L 59.5 163.2 L 56.7 159.5 L 56.1 156.4 Z M 66.9 167.2 L 71.3 166.8 L 74.8 166.34347829818725 L 74.8 112.6 L 85.8 114.6 L 88.5 116.6 L 85.8 118.32340421676636 L 85.8 164.8307692527771 L 86.0 164.8 L 91.5 164.0 L 93.3 163.72068967819214 L 93.3 90.5 L 104.3 92.5 L 107.0 94.5 L 104.3 96.22340421676635 L 104.3 124.3 L 106.8777777671814 124.3 L 113.1 117.3 L 121.1 124.3 L 121.1 128.3 L 104.3 128.3 L 104.3 161.959375 L 109.8 161.1 L 116.4 160.1 L 123.5 159.2 L 123.9 161.0 L 117.4 163.8 L 111.1 166.3 L 105.0 168.5 L 99.1 170.4 L 93.5 172.3 L 88.1 173.9 L 82.9 175.4 L 78.0 176.8 L 73.3 178.0 L 72.94102563858033 178.08974361419678 L 71.3 181.7 L 68.9 179.1 L 64.9 167.6 Z M 14.8 108.6 L 11.9 105.0 L 12.3 100.5 L 14.0 97.7 L 15.5 94.5 L 16.9 90.9 L 18.0 86.8 L 19.0 82.4 L 19.7 77.5 L 20.3 72.3 L 20.7 66.6 L 21.0 60.6 L 21.3 54.1 L 23.1 53.8 L 24.8 60.2 L 26.0 66.3 L 26.8 72.2 L 27.3 77.8 L 27.4 83.2 L 27.2 88.3 L 26.6 93.1 L 25.7 97.7 L 24.5 102.1 L 22.9 106.2 L 19.3 109.0 Z M 167.4 86.2 L 162.2 81.8 L 157.5 76.7 L 155.47634515762329 73.95361127853394 L 152.1 78.1 L 146.0 84.3 L 139.6 89.6 L 132.9 94.0 L 125.9 97.4 L 118.7 99.8 L 118.0 98.1 L 124.1 94.1 L 129.9 89.6 L 135.3 84.6 L 140.5 79.0 L 145.5 72.8 L 150.1 65.8 L 150.19019031524658 65.64421672821045 L 149.7 64.8 L 146.5 58.0 L 143.9 50.6 L 141.9 42.7 L 141.8977460861206 42.68384675979614 L 140.6 45.9 L 138.1 51.4 L 135.3 56.7 L 132.3 61.9 L 129.0 66.8 L 125.3 71.4 L 123.8 70.5 L 125.03746604919434 66.7188536643982 L 121.71896095275879 66.13665981292725 L 119.5 68.4 L 114.4 73.0 L 109.0 77.2 L 103.4 81.0 L 97.6 84.4 L 91.6 87.3 L 85.5 89.7 L 79.2 91.6 L 72.7 92.9 L 66.1 93.6 L 65.7 91.9 L 71.7 89.3 L 77.4 86.6 L 82.8 83.7 L 88.1 80.5 L 93.1 77.1 L 98.0 73.4 L 102.6 69.4 L 107.1 65.1 L 111.3 60.5 L 115.4 55.5 L 115.40927152633667 55.507947063446046 L 115.8 55.0 L 124.5 63.3 L 125.27203388214112 66.00211868286132 L 125.6 65.0 L 127.5 59.6 L 129.3 54.1 L 131.0 48.6 L 132.6 43.0 L 134.0 37.4 L 135.3 31.7 L 136.5 25.8 L 137.5 19.9 L 138.3 13.9 L 138.37025804519652 13.912503528594971 L 138.7 12.0 L 150.1 16.0 L 152.8 18.5 L 149.17636651992797 19.817684841156005 L 148.6 22.2 L 146.9 28.4 L 146.0627119064331 31.0 L 165.7 31.0 L 171.7 26.0 L 182.7 35.0 L 177.7 38.0 L 175.756573677063 38.80976095199585 L 173.0 45.2 L 168.2 54.6 L 163.2 63.3 L 161.35369777679443 65.96688098907471 L 165.0 69.7 L 169.4 73.4 L 174.0 76.4 L 178.9 78.9 L 184.0 80.8 L 190.9 83.4 L 179.3 93.1 L 173.1 90.0 Z M 118.5 43.6 L 119.3 47.1 L 115.58356018066407 46.31759166717529 L 114.1 47.7 L 109.5 51.5 L 104.8 55.0 L 100.0 58.1 L 95.1 61.0 L 90.1 63.5 L 85.0 65.6 L 79.8 67.4 L 74.5 68.7 L 69.1 69.4 L 68.6 67.7 L 73.2 65.1 L 77.7 62.5 L 82.1 59.7 L 86.4 56.9 L 90.5 53.8 L 94.6 50.6 L 98.5 47.1 L 102.4 43.5 L 106.1 39.5 L 109.13970432281494 36.13167896270752 L 109.1 36.1 L 110.1 35.0 Z M 144.75084743499755 35.0 L 143.97794675827026 37.17148284912109 L 145.9 41.4 L 149.4 48.4 L 153.0 54.7 L 154.8522336959839 57.47835054397583 L 158.6 49.8 L 162.5 40.7 L 164.5938775062561 35.0 Z M 113.4 24.2 L 114.2 27.7 L 110.45909795761108 26.846811866760255 L 109.4 27.8 L 105.3 31.1 L 101.0 34.2 L 96.7 37.0 L 92.3 39.5 L 87.8 41.7 L 83.2 43.6 L 78.4 45.1 L 73.6 46.2 L 68.7 47.0 L 68.2 45.3 L 72.3 42.8 L 76.3 40.3 L 80.2 37.8 L 84.0 35.2 L 87.7 32.4 L 91.3 29.5 L 94.8 26.3 L 98.2 23.1 L 101.5 19.6 L 104.05566835403442 16.64500846862793 L 104.0 16.6 L 105.0 15.6 Z " />
</g>
</svg>
