<svg xmlns="http://www.w3.org/2000/svg" xmlns:xlink="http://www.w3.org/1999/xlink" version="1.1" baseProfile="full" viewBox="0 0 200 200" width="200" height="200">
<g fill="black">
<path d="M 55.0 38.0 L 57.5 40.0 L 55.0 41.66666669845581 L 55.0 183.5 L 45.0 188.5 L 45.0 36.0 Z M 33.2 116.9 L 32.5 127.4 L 31.4 137.3 L 29.9 146.6 L 28.0 155.2 L 25.7 163.3 L 22.9 170.6 L 19.6 177.3 L 15.9 183.3 L 11.6 188.4 L 10.3 187.5 L 12.8 181.6 L 15.1 175.4 L 17.2 168.7 L 19.0 161.4 L 20.4 153.7 L 21.5 145.3 L 22.3 136.4 L 22.7 126.9 L 22.7 116.8 L 22.5 106.0 L 22.5 25.5 L 32.50638294219971 30.503191471099854 L 33.4 30.2 L 38.8 28.5 L 44.0 26.8 L 49.1 25.0 L 54.1 23.2 L 58.9 21.4 L 63.5 19.4 L 68.0 17.4 L 72.3 15.2 L 75.63164558410645 13.454852294921874 L 75.6 13.4 L 75.64892435073853 13.445801544189454 L 76.5 13.0 L 77.55169486999512 15.227118682861327 L 85.0 22.2 L 85.1 25.4 L 81.35751295089722 23.890932655334474 L 76.8 25.6 L 71.9 27.3 L 66.9 28.9 L 61.7 30.2 L 56.4 31.4 L 51.0 32.4 L 45.4 33.2 L 39.8 33.7 L 34.0 34.0 L 33.5 33.98305082321167 L 33.5 106.0 L 33.39532709121704 106.15700931549073 Z M 182.0 153.5 L 184.0 153.5 L 182.0 174.5 L 185.3 176.7 L 187.5 180.0 L 185.3 183.3 L 182.0 185.5 L 83.0 185.5 L 80.4 185.3 L 78.0 184.9 L 75.7 184.1 L 73.5 182.9 L 71.6 181.3 L 70.0 179.4 L 68.8 177.2 L 68.0 174.9 L 67.6 172.5 L 67.5 170.0 L 67.5 36.0 L 78.5 38.0 L 81.2 40.0 L 78.5 41.723404216766355 L 78.5 171.2 L 78.7 172.2 L 78.9 172.9 L 79.1 173.3 L 79.3 173.6 L 79.6 173.8 L 80.0 174.0 L 80.7 174.2 L 81.7 174.4 L 83.0 174.5 L 176.5 174.5 Z M 106.9 162.4 L 94.9 168.4 L 94.9 103.8 L 106.9 109.8 L 164.0 109.8 L 170.0 104.8 L 181.0 113.8 L 176.0 117.8 L 176.0 159.4 L 164.0 165.4 L 164.0 155.4 L 106.9 155.4 Z M 106.9 134.3 L 106.9 151.4 L 129.5 151.4 L 129.5 134.3 Z M 141.5 134.3 L 141.5 151.4 L 164.0 151.4 L 164.0 134.3 Z M 106.9 113.8 L 106.9 130.3 L 129.5 130.3 L 129.5 113.8 Z M 141.5 113.8 L 141.5 130.3 L 164.0 130.3 L 164.0 113.8 Z M 106.9 97.6 L 94.9 103.6 L 94.9 43.6 L 106.9 49.6 L 164.0 49.6 L 170.0 44.6 L 181.0 53.6 L 176.0 57.6 L 176.0 96.6 L 164.0 102.6 L 164.0 94.6 L 106.9 94.6 Z M 106.9 73.8 L 106.9 90.6 L 129.5 90.6 L 129.5 73.8 Z M 141.5 73.8 L 141.5 90.6 L 164.0 90.6 L 164.0 73.8 Z M 106.9 53.6 L 106.9 69.8 L 129.5 69.8 L 129.5 53.6 Z M 141.5 53.6 L 141.5 69.8 L 164.0 69.8 L 164.0 53.6 Z M 183.0 26.4 L 183.0 30.4 L 88.9 30.4 L 88.9 26.4 L 161.0 26.4 L 171.0 16.4 Z " />
</g>
</svg>
