<svg xmlns="http://www.w3.org/2000/svg" xmlns:xlink="http://www.w3.org/1999/xlink" version="1.1" baseProfile="full" viewBox="0 0 200 200" width="200" height="200">
<g fill="black">
<path d="M 72.0 178.0 L 82.0 178.0 L 82.7 177.9 L 83.1 177.8 L 83.5 177.6 L 83.6 177.5 L 83.8 177.1 L 84.3 175.6 L 84.4 174.4 L 84.5 173.0 L 84.5 160.84545450210572 L 82.1 163.1 L 77.5 162.8 L 74.4 159.4 L 73.8 156.5 L 73.50221796035767 155.42054004669188 L 71.4 158.7 L 68.8 162.3 L 65.9 165.7 L 63.5 168.1 L 63.5 180.0 L 51.5 186.0 L 51.5 164.2199999809265 L 50.4 165.1 L 45.8 164.5 L 43.0 161.0 L 42.4 157.5 L 41.88505744934082 155.07241382598878 L 39.4 158.8 L 36.6 162.4 L 33.6 165.7 L 31.4 167.76666669845582 L 31.4 183.0 L 19.4 189.0 L 19.4 71.82631578445435 L 16.2 74.1 L 12.4 76.6 L 11.2 75.3 L 19.4 63.164000034332275 L 19.4 59.0 L 21.488000011444093 60.04399995803833 L 23.6 56.7 L 25.9 52.8 L 28.1 48.8 L 30.3 44.6 L 32.3 40.4 L 34.3 36.0 L 34.357770919799805 36.030235290527344 L 34.9 35.0 L 45.0 41.6 L 46.7 44.8 L 42.836466789245605 44.999837970733644 L 42.2 46.0 L 39.4 50.2 L 36.4 54.2 L 33.4 58.0 L 30.2 61.7 L 28.435643577575682 63.51782178878784 L 31.4 65.0 L 51.5 65.0 L 51.5 32.0 L 12.3 32.0 L 12.3 28.0 L 80.6 28.0 L 90.6 18.0 L 102.6 28.0 L 102.6 32.0 L 63.5 32.0 L 63.5 65.0 L 84.5 65.0 L 89.5 60.0 L 91.25675678253174 61.58108110427857 L 89.7 58.9 L 87.8 55.9 L 85.6 53.0 L 83.2 50.0 L 80.6 47.1 L 77.8 44.1 L 74.8 41.1 L 71.5 38.2 L 72.4 36.7 L 76.5 38.5 L 80.6 40.4 L 84.3 42.5 L 87.9 44.8 L 90.7 46.858823490142825 L 90.7 46.8 L 105.4 46.8 L 105.4 20.9 L 116.4 26.4 L 133.0 26.4 L 133.0 12.7 L 145.0 14.7 L 148.0 16.7 L 145.0 18.5 L 145.0 26.4 L 161.0 26.4 L 167.0 21.4 L 178.0 30.4 L 173.0 34.4 L 173.0 46.8 L 176.7 46.8 L 181.2 40.8 L 187.2 46.8 L 187.2 50.8 L 173.0 50.8 L 173.0 73.3 L 161.0 79.3 L 161.0 71.3 L 145.0 71.3 L 145.0 87.8 L 163.8 87.8 L 169.8 82.8 L 180.8 91.8 L 175.8 95.8 L 175.8 114.3 L 163.8 120.3 L 163.8 112.3 L 113.6 112.3 L 113.6 115.3 L 102.6 120.8 L 102.6 82.3 L 113.6 87.8 L 133.0 87.8 L 133.0 71.3 L 116.4 71.3 L 116.4 74.3 L 105.4 79.8 L 105.4 50.8 L 95.22758617401124 50.8 L 97.4 52.9 L 100.1 55.9 L 102.6 59.1 L 104.9 62.5 L 105.3 67.1 L 102.4 70.6 L 97.9 71.0 L 97.1600790977478 70.40395259857178 L 94.5 72.0 L 94.5 132.2 L 118.27391300201415 132.2 L 119.9 128.8 L 122.0 124.0 L 124.0 119.1 L 125.51804885864257 115.10513458251953 L 125.5 115.1 L 126.4 112.7 L 137.1 118.4 L 139.2 121.3 L 135.75195369720458 121.90492038726806 L 135.1 123.6 L 133.0 128.7 L 131.46000003814697 132.2 L 167.1 132.2 L 177.1 122.2 L 189.1 132.2 L 189.1 136.2 L 165.78125 136.2 L 163.0 145.1 L 158.8 153.8 L 153.7 161.5 L 152.512055683136 162.82426586151124 L 156.4 164.2 L 162.8 166.7 L 169.0 169.4 L 175.0 172.3 L 180.8 175.4 L 183.5 179.1 L 182.8 183.6 L 179.1 186.2 L 174.6 185.6 L 169.4 182.2 L 164.0 178.9 L 158.5 175.8 L 152.7 172.7 L 146.7 169.7 L 146.15994205474854 169.45610284805298 L 140.5 174.0 L 132.5 178.7 L 123.7 182.4 L 114.1 185.0 L 103.6 186.5 L 92.4 186.9 L 92.3 185.1 L 103.0 182.7 L 112.7 179.8 L 121.3 176.3 L 128.8 172.1 L 135.3 167.3 L 137.1842767715454 165.44937105178832 L 134.1 164.1 L 127.5 161.3 L 120.7 158.5 L 118.40437955856324 157.5817518234253 L 116.0 161.5 L 113.3 165.7 L 103.3 159.1 L 105.9 155.1 L 108.4 151.0 L 113.2 142.4 L 115.5 138.0 L 116.36086959838867 136.2 L 94.5 136.2 L 94.5 173.0 L 94.4 175.3 L 94.1 177.5 L 93.6 179.6 L 92.7 181.6 L 91.6 183.5 L 90.1 185.1 L 88.3 186.4 L 86.3 187.3 L 84.1 187.8 L 82.0 188.0 L 82.0 183.0 L 72.0 180.5 Z M 73.24590167999267 108.56065578460694 L 71.2 111.8 L 68.6 115.3 L 65.8 118.3 L 63.5 120.44137935638427 L 63.5 162.08571424484253 L 64.3 159.8 L 65.8 155.8 L 67.2 151.7 L 68.5 147.5 L 69.60070753097534 143.77452831268312 L 69.1 142.5 L 68.0 139.8 L 66.7 137.1 L 65.4 134.3 L 63.8 131.8 L 65.1 130.5 L 67.5 132.6 L 70.0 134.5 L 71.54348783493042 135.85055189132692 L 72.0 133.9 L 73.0 129.0 L 73.79706363677978 125.0146819114685 L 73.7 125.0 L 74.4 122.3 L 84.5 126.35803575515747 L 84.5 115.09411764144897 L 82.0 117.3 L 77.5 117.0 L 74.4 113.5 L 73.8 110.5 Z M 41.68087654113769 108.33306770324707 L 39.4 111.8 L 36.8 115.3 L 33.9 118.3 L 31.4 120.55 L 31.4 161.8 L 32.2 159.8 L 33.8 155.7 L 35.3 151.6 L 36.8 147.4 L 38.1 143.0 L 38.145536708831784 142.8423728942871 L 37.8 141.9 L 36.6 139.1 L 35.3 136.2 L 34.0 133.4 L 32.3 130.8 L 33.6 129.5 L 36.1 131.5 L 38.8 133.6 L 40.22679214477539 134.9673424720764 L 40.5 133.8 L 41.5 129.0 L 42.29706363677978 125.0146819114685 L 42.2 125.0 L 42.9 122.3 L 51.5 125.75535717010499 L 51.5 116.41764707565308 L 50.5 117.3 L 46.0 117.0 L 42.9 113.5 L 42.3 110.5 Z M 129.67755098342894 136.2 L 128.6 138.6 L 126.2 143.4 L 123.8 148.0 L 121.3 152.6 L 120.09477300643921 154.6859697341919 L 121.7 154.9 L 129.1 156.2 L 136.2 157.9 L 142.52714929580688 159.64225854873658 L 145.5 155.7 L 149.3 148.8 L 152.2 141.2 L 153.41428575515747 136.2 Z M 84.43780488967896 130.57713413238525 L 84.0 132.0 L 82.3 136.9 L 80.4 141.7 L 79.19773693084717 144.4652050971985 L 80.7 146.6 L 82.5 149.5 L 84.2 152.4 L 84.5 153.0 L 84.5 130.557142829895 Z M 50.7 137.0 L 48.8 141.8 L 47.74210529327392 144.1172932624817 L 47.8 144.2 L 49.7 147.3 L 51.4 150.6 L 51.5 150.80588235855103 L 51.5 134.7777777671814 Z M 31.4 69.0 L 31.4 115.0666666984558 L 32.4 112.6 L 33.8 108.8 L 35.3 104.9 L 36.6 100.7 L 37.584285736083984 97.36857147216797 L 37.5 97.2 L 36.2 94.7 L 34.8 92.3 L 33.4 90.0 L 31.5 87.9 L 32.5 86.5 L 35.0 88.0 L 37.7 89.4 L 39.45213670730591 90.59145298004151 L 40.4 86.8 L 41.4 81.6 L 42.309761714935306 77.21660261154175 L 42.2 77.2 L 42.9 74.5 L 51.5 77.95535717010497 L 51.5 69.0 Z M 63.5 114.69230766296387 L 64.2 112.7 L 65.6 108.9 L 66.9 104.9 L 68.2 100.7 L 69.14714288711548 97.49428567886352 L 69.0 97.2 L 67.7 94.7 L 66.3 92.3 L 64.9 90.0 L 63.5 88.45263156890869 Z M 113.6 91.8 L 113.6 108.3 L 133.0 108.3 L 133.0 91.8 Z M 145.0 91.8 L 145.0 108.3 L 163.8 108.3 L 163.8 91.8 Z M 84.44337902069091 82.8100456237793 L 83.9 84.6 L 82.1 89.8 L 80.2 94.8 L 78.76191110610962 98.01857995986938 L 80.6 100.5 L 82.5 103.4 L 84.2 106.5 L 84.5 107.1 L 84.5 82.79285717010498 Z M 50.6 89.8 L 48.6 94.8 L 47.19953546524048 97.9343729019165 L 49.1 100.5 L 51.0 103.4 L 51.5 104.31176471710205 L 51.5 87.2 Z M 63.5 69.0 L 63.5 87.2 L 64.0 86.5 L 66.5 88.0 L 69.2 89.4 L 70.96871938705445 90.6027292251587 L 71.9 86.8 L 72.9 81.6 L 73.8097617149353 77.21660261154175 L 73.7 77.2 L 74.4 74.5 L 84.5 78.55803575515748 L 84.5 69.0 Z M 116.4 50.8 L 116.4 67.3 L 133.0 67.3 L 133.0 50.8 Z M 145.0 50.8 L 145.0 67.3 L 161.0 67.3 L 161.0 50.8 Z M 116.4 30.4 L 116.4 46.8 L 133.0 46.8 L 133.0 30.4 Z M 145.0 30.4 L 145.0 46.8 L 161.0 46.8 L 161.0 30.4 Z " />
</g>
</svg>
