<svg xmlns="http://www.w3.org/2000/svg" xmlns:xlink="http://www.w3.org/1999/xlink" version="1.1" baseProfile="full" viewBox="0 0 200 200" width="200" height="200">
<g fill="black">
<path d="M 16.1 112.0 L 16.1 108.0 L 54.3 108.0 L 54.3 74.0 L 34.9 74.0 L 34.9 86.0 L 22.9 92.0 L 22.9 23.0 L 34.9 25.0 L 37.9 27.0 L 34.9 28.8 L 34.9 70.0 L 54.3 70.0 L 54.3 12.0 L 66.3 14.0 L 69.3 16.0 L 66.3 17.8 L 66.3 182.0 L 54.3 188.0 L 54.3 112.0 L 39.1 112.0 L 39.1 126.0 L 38.6 133.7 L 37.7 141.1 L 36.5 148.3 L 34.8 155.1 L 32.7 161.6 L 30.2 167.8 L 27.4 173.6 L 24.0 179.1 L 20.2 184.0 L 16.0 188.5 L 14.5 187.4 L 17.0 182.0 L 19.3 176.5 L 21.3 171.0 L 23.1 165.2 L 24.6 159.3 L 25.7 153.1 L 26.5 146.7 L 27.0 140.0 L 27.2 133.1 L 27.1 126.0 L 27.1 112.0 Z M 149.7 183.7 L 136.8 182.6 L 126.2 180.7 L 117.5 178.0 L 110.5 174.4 L 105.1 170.0 L 101.0 165.0 L 98.1 159.4 L 97.1307692527771 156.58461542129515 L 96.69473686218262 156.80263156890868 L 96.0 157.7 L 93.8 161.0 L 91.6 164.1 L 87.0 169.9 L 84.7 172.7 L 78.5304720878601 179.6742488861084 L 79.0 183.9 L 75.6 182.9 L 66.3 175.0 L 67.8 173.7 L 73.2 170.1 L 76.0 168.2 L 78.8 166.2 L 81.7 164.2 L 84.6 162.1 L 87.6 160.0 L 88.3 159.50322580337524 L 88.3 109.0 L 69.6 109.0 L 69.6 105.0 L 88.3 105.0 L 94.3 100.0 L 105.3 109.0 L 100.3 113.0 L 100.3 155.0 L 99.9235294342041 155.18823528289795 L 101.6 157.2 L 105.5 161.2 L 109.7 164.5 L 114.6 167.1 L 120.6 169.1 L 128.2 170.7 L 137.9 171.6 L 149.9 171.9 L 164.7 171.5 L 182.4 170.4 L 193.5 169.7 L 183.2 183.5 L 165.0 184.0 Z M 122.2 153.2 L 138.2 153.2 L 139.4 153.1 L 140.4 153.0 L 140.9 152.8 L 141.5 152.5 L 141.8 151.9 L 142.0 151.3 L 142.1 150.4 L 142.2 149.2 L 142.2 107.0 L 105.9 107.0 L 105.9 103.0 L 142.2 103.0 L 142.2 70.2 L 111.2 70.2 L 111.2 66.2 L 142.2 66.2 L 142.2 36.980645179748535 L 139.8 37.6 L 133.3 39.0 L 126.7 40.0 L 119.9 40.8 L 112.9 41.1 L 112.5 39.3 L 119.1 37.0 L 125.5 34.8 L 131.6 32.6 L 137.5 30.4 L 143.2 28.0 L 148.6 25.6 L 153.8 23.0 L 158.8 20.3 L 163.6 17.5 L 167.23951148986816 15.154537010192872 L 167.2 15.1 L 167.24797029495238 15.149085807800294 L 168.1 14.6 L 170.3270429611206 18.299764823913574 L 175.8 23.9 L 175.9 27.4 L 172.29662313461304 25.88278865814209 L 169.0 27.5 L 163.5 30.0 L 157.9 32.2 L 154.2 33.45423727035522 L 154.2 66.2 L 161.2 66.2 L 171.2 56.2 L 183.2 66.2 L 183.2 70.2 L 154.2 70.2 L 154.2 103.0 L 166.6 103.0 L 176.6 93.0 L 188.6 103.0 L 188.6 107.0 L 154.2 107.0 L 154.2 149.2 L 154.1 151.8 L 153.6 154.3 L 152.8 156.7 L 151.6 158.9 L 150.0 160.9 L 147.9 162.6 L 145.7 163.8 L 143.3 164.6 L 140.8 165.1 L 138.2 165.2 L 138.2 159.2 L 122.2 156.2 Z M 84.5 76.3 L 83.1 73.8 L 81.7 71.4 L 78.7 66.8 L 77.0 64.5 L 75.3 62.3 L 73.5 60.1 L 71.3 58.2 L 72.3 56.7 L 74.9 58.0 L 77.7 59.1 L 80.5 60.4 L 83.1 62.0 L 85.7 63.8 L 88.1 65.8 L 90.5 67.9 L 92.8 70.2 L 95.1 72.7 L 97.2 75.3 L 97.8 79.8 L 95.1 83.5 L 90.6 84.1 L 86.9 81.5 L 85.7 78.8 Z M 91.1 40.9 L 89.9 38.5 L 88.7 36.0 L 87.4 33.7 L 85.9 31.3 L 82.7 26.7 L 80.9 24.3 L 78.8 22.3 L 79.8 20.8 L 82.5 22.2 L 85.3 23.5 L 88.0 25.1 L 90.6 26.8 L 93.0 28.7 L 95.4 30.8 L 97.6 33.0 L 99.8 35.4 L 101.8 37.9 L 103.7 40.5 L 104.1 45.1 L 101.1 48.6 L 96.6 48.9 L 93.1 46.0 L 92.1 43.5 Z " />
</g>
</svg>
