<svg xmlns="http://www.w3.org/2000/svg" xmlns:xlink="http://www.w3.org/1999/xlink" version="1.1" baseProfile="full" viewBox="0 0 200 200" width="200" height="200">
<g fill="black">
<path d="M 33.9 71.0 L 33.9 106.0 L 53.7 106.0 L 59.7 101.0 L 70.7 110.0 L 65.7 114.0 L 65.7 181.0 L 53.7 187.0 L 53.7 110.0 L 33.9 110.0 L 33.9 111.0 L 33.4 121.6 L 32.7 131.6 L 31.6 140.9 L 30.2 149.5 L 28.4 157.5 L 26.3 164.8 L 23.8 171.4 L 21.0 177.3 L 17.7 182.3 L 14.0 186.5 L 12.5 185.4 L 14.4 180.5 L 16.1 175.2 L 17.6 169.3 L 19.0 162.9 L 20.1 155.9 L 21.0 148.2 L 21.6 139.9 L 21.9 130.9 L 22.1 121.3 L 21.9 111.0 L 21.9 18.0 L 33.9 20.0 L 36.9 22.0 L 33.9 23.8 L 33.9 67.0 L 53.7 67.0 L 53.7 15.0 L 65.7 17.0 L 68.7 19.0 L 65.7 20.8 L 65.7 67.0 L 71.27777776718139 67.0 L 77.5 60.0 L 82.2 64.1125 L 82.2 21.0 L 92.2 26.0 L 166.1 26.0 L 176.1 16.0 L 188.1 26.0 L 188.1 30.0 L 92.2 30.0 L 92.2 91.0 L 91.8 105.0 L 91.1 118.1 L 90.1 130.3 L 88.8 141.6 L 87.1 152.0 L 85.1 161.4 L 82.8 169.9 L 80.1 177.4 L 77.0 183.9 L 73.5 189.3 L 72.2 188.6 L 74.1 182.7 L 75.9 176.0 L 77.5 168.5 L 78.9 160.2 L 80.1 150.9 L 81.1 140.8 L 81.8 129.7 L 82.2 117.7 L 82.3 104.8 L 82.2 91.0 L 82.2 71.0 Z M 171.0 172.9 L 168.4 166.4 L 166.1 159.3 L 164.1 151.4 L 162.5 142.9 L 161.63899459838868 135.6988639831543 L 160.4 141.2 L 157.2 151.5 L 153.3 160.9 L 148.8 169.3 L 143.5 176.8 L 137.6 183.1 L 131.0 188.3 L 129.8 187.0 L 134.7 180.6 L 139.1 173.7 L 143.0 166.2 L 146.3 158.0 L 149.1 149.0 L 151.3 139.2 L 153.0 128.5 L 154.2 117.0 L 154.7 104.6 L 154.7 80.5 L 153.47058820724487 80.5 L 153.0 82.1 L 150.9 89.0 L 148.5 95.9 L 145.8 102.8 L 142.8 109.7 L 141.1 109.2 L 142.2 101.8 L 143.3 94.5 L 144.5 87.4 L 145.6 80.4 L 146.7 73.6 L 147.6 66.8 L 148.5 60.2 L 149.2 53.7 L 149.8 47.3 L 150.22058048248292 42.00068597793579 L 150.2 42.0 L 150.5 38.9 L 162.2 42.4 L 165.0 44.7 L 161.54041357040404 46.237594032287596 L 161.1 48.8 L 159.8 55.4 L 158.4 62.0 L 156.7 68.6 L 155.0 75.3 L 154.6470588684082 76.5 L 174.4 76.5 L 180.4 71.5 L 191.4 80.5 L 186.4 83.5 L 184.14579439163208 84.4392523765564 L 183.8 85.2 L 182.7 87.6 L 181.4 90.3 L 180.0 93.3 L 178.4 96.5 L 176.5 100.1 L 174.5 103.8 L 172.6 108.0 L 170.9 107.4 L 172.0 103.0 L 172.6 98.8 L 173.2 94.9 L 173.7 91.4 L 174.1 88.2 L 174.4 85.3 L 174.4 80.5 L 166.7 80.5 L 166.7 91.4 L 166.1 105.1 L 165.1202898979187 114.82173910140992 L 166.5 123.1 L 168.5 132.5 L 170.7 141.1 L 173.1 148.9 L 175.8 155.9 L 178.6 162.1 L 181.5 167.5 L 184.5 172.1 L 187.6 175.9 L 187.8 176.2 L 177.1 183.9 L 173.9 178.7 Z M 139.5 44.0 L 141.4 47.1 L 137.38037977218627 47.51582279205322 L 136.1 49.7 L 134.3 52.6 L 132.4 55.5 L 130.5 58.5 L 126.5 64.7 L 124.3 67.9 L 122.0 71.0 L 121.35294113159179 72.0 L 129.2777777671814 72.0 L 135.5 65.0 L 143.5 72.0 L 143.5 76.0 L 121.5 76.0 L 121.5 127.0 L 121.45955057144165 127.6 L 128.0 127.6 L 128.0 85.8 L 138.0 87.8 L 140.5 89.8 L 138.0 91.46666669845581 L 138.0 137.6 L 128.0 142.6 L 128.0 131.6 L 121.18988761901855 131.6 L 120.9 135.9 L 119.9 144.1 L 118.3 151.8 L 116.3 158.9 L 113.8 165.4 L 110.7 171.4 L 107.2 176.6 L 103.1 181.2 L 98.6 185.1 L 93.5 188.2 L 92.9 187.2 L 96.9 183.2 L 100.4 178.9 L 103.5 174.2 L 106.2 169.0 L 108.5 163.3 L 110.4 157.2 L 111.8 150.4 L 112.8 143.2 L 113.4 135.3 L 113.44404764175415 131.6 L 104.8 131.6 L 104.8 143.6 L 96.8 147.6 L 96.8 85.8 L 104.8 87.8 L 106.8 89.8 L 104.8 91.3 L 104.8 127.6 L 113.49166669845582 127.6 L 113.5 126.9 L 113.5 76.0 L 94.4 76.0 L 94.4 72.0 L 118.60526313781739 72.0 L 119.3 69.8 L 120.3 66.0 L 121.3 62.3 L 122.4 58.7 L 123.4 55.2 L 124.5 51.8 L 125.5 48.5 L 126.6 45.3 L 127.6 42.1 L 128.26948499679565 40.024596500396726 L 128.2 40.0 L 128.51304349899291 39.269565200805665 L 128.6 39.0 L 128.62387733459474 39.010952949523926 L 129.1 37.9 Z M 105.1 57.5 L 104.6 55.2 L 104.1 53.0 L 103.3 50.7 L 102.5 48.5 L 100.5 43.9 L 98.9 42.0 L 100.1 40.6 L 102.2 42.3 L 104.5 43.7 L 106.7 45.4 L 108.7 47.3 L 110.5 49.4 L 112.2 51.6 L 113.8 54.1 L 115.2 56.6 L 116.4 59.3 L 117.5 62.2 L 116.6 66.6 L 112.8 69.2 L 108.3 68.3 L 105.8 64.5 L 105.7 62.1 Z " />
</g>
</svg>
