<svg xmlns="http://www.w3.org/2000/svg" xmlns:xlink="http://www.w3.org/1999/xlink" version="1.1" baseProfile="full" viewBox="0 0 200 200" width="200" height="200">
<g fill="black">
<path d="M 164.2 178.5 L 158.5 173.5 L 153.3 167.8 L 148.5 161.6 L 144.1 154.9 L 140.1 147.6 L 136.5 139.7 L 133.4 131.3 L 132.6940252304077 128.62317895889282 L 131.5 133.9 L 127.2 146.1 L 121.8 157.0 L 115.2 166.4 L 107.5 174.2 L 98.7 180.5 L 88.9 185.0 L 78.2 187.8 L 77.7 186.1 L 87.3 181.5 L 95.7 176.0 L 103.0 169.4 L 109.2 161.8 L 114.3 152.9 L 118.5 142.8 L 121.8 131.4 L 122.9 125.0 L 80.4 125.0 L 80.4 121.0 L 123.5875 121.0 L 124.0 118.6 L 125.2 104.5 L 125.5 89.0 L 125.5 87.0 L 92.1 87.0 L 92.1 83.0 L 125.5 83.0 L 125.5 49.0 L 102.85915489196778 49.0 L 101.3 53.1 L 98.3 60.1 L 95.0 67.1 L 91.4 74.0 L 87.4 80.8 L 83.1 87.4 L 81.4 86.5 L 84.0 79.1 L 86.5 71.8 L 88.9 64.6 L 91.2 57.4 L 93.3 50.3 L 95.2 43.2 L 96.9 36.1 L 98.4 29.0 L 99.7 21.9 L 100.65766525268555 15.805766487121582 L 100.6 15.8 L 101.1 12.9 L 112.6 17.0 L 115.2 19.5 L 111.64927139282227 20.855732727050782 L 110.8 24.3 L 108.8 31.6 L 106.5 38.8 L 104.34722223281861 45.0 L 125.5 45.0 L 125.5 13.0 L 137.5 15.0 L 140.5 17.0 L 137.5 18.8 L 137.5 45.0 L 152.5 45.0 L 162.5 35.0 L 174.5 45.0 L 174.5 49.0 L 137.5 49.0 L 137.5 83.0 L 148.8 83.0 L 158.8 73.0 L 170.8 83.0 L 170.8 87.0 L 137.5 87.0 L 137.5 89.0 L 136.6 105.3 L 134.6 120.2 L 134.4189781188965 121.0 L 160.5 121.0 L 170.5 111.0 L 182.5 121.0 L 182.5 125.0 L 134.55500001907347 125.0 L 137.2 129.6 L 141.7 137.0 L 146.3 143.9 L 151.0 150.1 L 155.8 155.8 L 160.8 160.8 L 165.9 165.2 L 171.2 169.1 L 176.7 172.3 L 182.3 175.0 L 187.8 177.7 L 176.5 186.9 L 170.1 183.0 Z M 64.4 180.6 L 62.7 182.3 L 60.8 183.8 L 58.8 185.1 L 56.6 186.1 L 54.3 186.9 L 52.0 187.5 L 49.5 187.8 L 47.1 188.0 L 47.1 182.0 L 31.1 179.0 L 31.1 176.0 L 47.1 176.0 L 48.5 175.9 L 49.8 175.7 L 52.0 175.1 L 52.9 174.6 L 53.9 174.0 L 54.7 173.3 L 55.6 172.5 L 56.4 171.5 L 57.2 170.3 L 60.3 163.8 L 63.1 153.2 L 65.0 139.5 L 65.6 123.6 L 64.5 106.1 L 63.040285968780516 97.96098852157593 L 61.2 101.5 L 56.8 108.8 L 52.1 115.8 L 46.8 122.5 L 41.2 128.9 L 35.0 134.9 L 28.4 140.6 L 21.3 145.9 L 13.7 150.7 L 12.6 149.2 L 18.9 143.0 L 24.8 136.7 L 30.3 130.4 L 35.4 124.0 L 40.1 117.4 L 44.3 110.7 L 48.2 103.8 L 51.6 96.7 L 54.6 89.5 L 57.2 82.0 L 58.3784686088562 78.70028781890869 L 55.4 69.2 L 52.336287879943846 62.79085512161255 L 46.1 68.6 L 38.5 74.9 L 30.5 80.5 L 22.3 85.5 L 13.6 89.7 L 12.7 88.2 L 20.1 82.3 L 27.3 76.3 L 34.2 69.9 L 40.8 63.2 L 47.2 56.0 L 48.390446472167966 54.53633632659912 L 46.7 51.0 L 34.8 33.7 L 19.6 17.3 L 20.7 15.8 L 38.8 30.2 L 52.5 47.4 L 53.18028545379639 48.64718999862671 L 53.3 48.5 L 59.1 40.5 L 64.6 32.1 L 69.8 23.3 L 74.31306409835815 14.90570068359375 L 74.3 14.9 L 75.3 13.0 L 85.3 19.7 L 87.0 22.9 L 83.2818284034729 23.02821283340454 L 79.6 29.1 L 73.5 38.1 L 67.1 46.5 L 60.4 54.4 L 57.811037921905516 57.136902809143066 L 62.7 66.1 L 69.6 85.5 L 73.8 104.8 L 75.7 123.3 L 75.6 140.3 L 74.0 155.2 L 71.2 167.4 L 67.4 176.6 L 66.0 178.7 Z " />
</g>
</svg>
