<svg xmlns="http://www.w3.org/2000/svg" xmlns:xlink="http://www.w3.org/1999/xlink" version="1.1" baseProfile="full" viewBox="0 0 200 200" width="200" height="200">
<g fill="black">
<path d="M 12.5 126.1 L 17.4 124.1 L 22.5 121.9 L 27.8 119.7 L 33.3 117.4 L 38.9 115.0 L 39.6 114.71525421142579 L 39.6 66.0 L 27.258441543579103 66.0 L 26.3 70.1 L 24.2 77.5 L 21.8 84.6 L 19.2 91.5 L 16.3 98.0 L 13.0 104.3 L 11.3 103.6 L 12.7 96.8 L 14.1 89.9 L 15.5 82.9 L 16.8 75.7 L 17.9 68.3 L 19.0 60.8 L 19.9 53.0 L 20.7 45.0 L 21.3 36.9 L 21.7 28.5 L 21.76220836639404 28.504665660858155 L 21.9 26.3 L 33.7 29.4 L 36.5 31.7 L 33.194409942626955 33.35279502868652 L 32.6 38.0 L 31.3 46.4 L 29.8 54.5 L 28.186075973510743 62.0 L 39.6 62.0 L 39.6 13.0 L 51.6 15.0 L 54.6 17.0 L 51.6 18.8 L 51.6 62.0 L 54.31818180084228 62.0 L 62.5 53.0 L 72.5 62.0 L 72.5 66.0 L 51.6 66.0 L 51.6 109.9333333015442 L 57.2 107.8 L 63.8 105.4 L 70.7 103.1 L 71.5 104.8 L 65.5 108.8 L 59.6 112.6 L 53.8 116.1 L 51.6 117.39642858505249 L 51.6 183.0 L 39.6 189.0 L 39.6 124.41320753097534 L 37.4 125.7 L 32.2 128.7 L 27.3 131.5 L 22.5 134.2 L 21.488269805908203 134.79384164810182 L 21.0 138.7 L 17.9 136.9 L 10.7 127.0 Z M 104.0 165.8 L 103.4 163.7 L 102.6 161.5 L 101.5 159.2 L 100.2 156.8 L 98.7 154.2 L 96.9 151.6 L 94.9 148.8 L 94.64515752792359 148.55495920181275 L 93.7 151.8 L 90.1 161.1 L 85.6 169.2 L 80.4 176.1 L 74.5 181.7 L 67.8 186.0 L 60.6 188.8 L 59.9 187.1 L 65.7 182.8 L 70.8 177.8 L 75.2 172.1 L 79.0 165.4 L 82.2 157.8 L 84.8 149.2 L 86.9 139.5 L 87.09444446563721 138.0 L 67.6 138.0 L 67.6 134.0 L 87.61296300888061 134.0 L 88.3 128.7 L 89.0 116.9 L 89.08449611663818 106.0 L 82.55454549789428 106.0 L 81.5 108.9 L 79.7 113.1 L 77.6 117.2 L 75.4 121.1 L 72.9 124.8 L 70.2 128.4 L 68.7 127.5 L 69.8 123.4 L 71.8 115.0 L 72.7 110.8 L 73.6 106.5 L 74.3 102.2 L 75.0 97.8 L 75.5 93.4 L 75.9 88.8 L 76.13468837738037 85.20144538879394 L 76.1 85.2 L 76.17032966613769 84.65494508743286 L 76.2 84.2 L 76.22856760025024 84.20360097885131 L 76.5 82.1 L 88.1 85.7 L 90.9 88.0 L 87.2977089881897 89.63122615814208 L 87.1 90.6 L 86.0 95.3 L 84.6 100.0 L 83.9333333015442 102.0 L 98.41818180084229 102.0 L 106.6 93.0 L 116.6 102.0 L 116.6 106.0 L 101.08235292434692 106.0 L 100.4 117.6 L 98.9 130.1 L 98.14736843109131 134.0 L 104.27777776718139 134.0 L 110.5 127.0 L 118.5 134.0 L 118.5 138.0 L 97.37543859481812 138.0 L 96.7 141.5 L 95.35040655136109 146.13360433578492 L 96.5 146.9 L 99.6 148.6 L 102.5 150.5 L 105.1 152.5 L 107.5 154.6 L 109.7 156.7 L 111.6 159.0 L 113.4 161.4 L 114.9 163.9 L 116.1 166.5 L 115.5 171.0 L 111.9 173.9 L 107.3 173.2 L 104.5 169.6 L 104.4 167.7 Z M 158.6 183.3 L 150.3 179.8 L 143.5 175.2 L 138.1 169.5 L 134.1 163.1 L 131.3171133041382 156.04339447021485 L 130.0 160.4 L 126.9 168.0 L 123.4 174.8 L 119.3 180.5 L 114.6 185.2 L 109.5 188.7 L 108.4 187.2 L 111.8 182.6 L 114.8 177.5 L 117.5 171.8 L 119.9 165.3 L 121.9 158.0 L 123.5 149.9 L 124.7 140.9 L 125.6 131.1 L 126.0 120.4 L 126.1 108.9 L 126.1 106.5 L 138.1 109.0 L 141.0 111.1 L 137.87165775299073 112.91443853378296 L 137.4 121.0 L 136.3 132.1 L 134.7 142.4 L 134.1960000038147 144.65600004196168 L 135.0 146.8 L 137.9 153.3 L 141.3 158.8 L 145.2 163.4 L 145.6 163.72888889312745 L 145.6 88.0 L 120.5 88.0 L 120.5 84.0 L 173.0 84.0 L 173.51724138259888 83.5689655303955 L 173.6 83.3 L 173.75104894638062 83.37412586212159 L 179.0 79.0 L 190.0 88.0 L 185.0 91.0 L 181.7061224937439 92.37244901657104 L 181.2 93.1 L 179.6 95.3 L 176.2 99.7 L 174.4 101.9 L 172.5 104.0 L 170.6 106.2 L 168.5 108.2 L 166.8 110.4 L 165.2 109.5 L 166.4 106.9 L 167.1 104.1 L 167.9 101.5 L 168.7 98.8 L 169.6 96.2 L 172.0 88.4 L 172.1279999732971 88.0 L 157.6 88.0 L 157.6 129.0 L 169.0777777671814 129.0 L 175.3 122.0 L 183.3 129.0 L 183.3 133.0 L 157.6 133.0 L 157.6 170.68358211517335 L 161.8 172.0 L 169.9 173.1 L 179.7 173.4 L 191.6 173.4 L 179.7 186.6 L 168.4 185.6 Z M 150.6 70.2 L 149.1 66.5 L 147.5 63.0 L 145.7 59.5 L 143.7 56.1 L 141.6 52.8 L 139.2 49.6 L 136.7 46.4 L 133.8 43.3 L 134.9 41.8 L 138.7 43.9 L 142.5 46.1 L 146.0 48.7 L 149.2 51.6 L 152.3 54.8 L 154.68410043716432 57.69497909545898 L 155.0 57.0 L 157.0 52.7 L 158.9 48.5 L 160.9 44.3 L 162.9 40.3 L 168.3 28.6 L 169.42432432174684 26.0 L 123.4 26.0 L 123.4 22.0 L 170.8 22.0 L 171.35352115631105 21.53873243331909 L 171.5 21.2 L 171.66080923080443 21.282658958435057 L 176.8 17.0 L 187.8 26.0 L 182.8 29.0 L 179.97981071472168 30.175078868865967 L 179.9 30.3 L 177.5 33.8 L 175.1 37.4 L 169.9 44.6 L 167.1 48.2 L 164.2 51.8 L 161.1 55.4 L 157.9 58.9 L 156.60860986709594 60.26735429763794 L 157.8 61.9 L 160.1 65.8 L 162.3 69.9 L 164.3 74.2 L 163.9 78.8 L 160.5 81.8 L 155.9 81.4 L 152.9 78.0 L 151.8 74.0 Z M 114.2 48.1 L 116.2 48.1 L 114.2 69.1 L 117.5 71.3 L 119.7 74.6 L 117.5 77.9 L 114.2 80.1 L 89.6 80.1 L 87.0 80.0 L 84.6 79.6 L 82.2 78.9 L 80.0 77.7 L 78.0 76.2 L 76.3 74.2 L 75.1 72.0 L 74.2 69.6 L 73.7 67.1 L 73.6 64.6 L 73.6 14.7 L 85.6 16.7 L 88.6 18.7 L 85.6 20.5 L 85.6 41.75483875274658 L 85.7 41.7 L 88.7 40.0 L 94.7 36.4 L 97.6 34.6 L 100.5 32.7 L 103.3 30.7 L 106.1 28.6 L 108.02470788955688 27.031719493865968 L 108.0 27.0 L 108.027476978302 27.02946319580078 L 108.8 26.4 L 111.98294143676758 31.27086486816406 L 116.3 35.9 L 116.4 39.4 L 112.62310752868652 37.84877634048462 L 111.9 38.2 L 108.4 39.8 L 104.9 41.2 L 101.4 42.5 L 97.8 43.6 L 94.3 44.6 L 90.7 45.3 L 87.0 45.9 L 85.6 46.01666669845581 L 85.6 65.8 L 85.7 66.8 L 85.8 67.4 L 86.1 68.0 L 86.3 68.2 L 86.7 68.5 L 87.3 68.8 L 88.3 69.0 L 89.6 69.1 L 108.7 69.1 Z " />
</g>
</svg>
