<svg xmlns="http://www.w3.org/2000/svg" xmlns:xlink="http://www.w3.org/1999/xlink" version="1.1" baseProfile="full" viewBox="0 0 200 200" width="200" height="200">
<g fill="black">
<path d="M 169.5 172.4 L 166.9 168.6 L 164.2 164.9 L 161.4 161.4 L 158.4 158.0 L 155.2 154.8 L 151.9 151.6 L 148.5 148.4 L 146.7773955345154 146.86879606246947 L 143.7 149.7 L 133.3 158.2 L 122.5 165.9 L 111.2 172.7 L 99.5 178.7 L 87.3 183.7 L 74.7 187.8 L 74.1 186.1 L 85.7 180.3 L 97.0 173.9 L 107.8 167.1 L 118.1 159.7 L 128.0 151.6 L 137.4 142.9 L 146.4 133.6 L 154.9 123.5 L 163.1 112.8 L 170.7 101.5 L 171.2 100.7 L 180.7 108.1 L 182.1 111.4 L 178.37599306106569 111.2715859413147 L 172.2 119.7 L 163.1 130.5 L 153.7 140.5 L 149.0237051963806 144.8021912574768 L 150.4 145.3 L 154.9 147.3 L 159.1 149.7 L 163.3 152.4 L 167.2 155.4 L 171.0 158.7 L 174.6 162.2 L 178.0 166.0 L 181.3 170.0 L 184.4 174.3 L 185.1 178.8 L 182.4 182.5 L 177.9 183.2 L 174.2 180.5 L 171.9 176.4 Z M 65.2 180.7 L 63.4 182.4 L 61.5 183.8 L 59.5 185.1 L 57.3 186.2 L 55.0 187.0 L 52.7 187.5 L 50.2 187.8 L 47.8 188.0 L 47.8 182.0 L 31.8 179.0 L 31.8 176.0 L 47.8 176.0 L 49.2 175.9 L 50.5 175.7 L 51.7 175.4 L 52.7 175.1 L 53.7 174.6 L 54.7 174.0 L 55.6 173.3 L 56.4 172.5 L 57.3 171.5 L 58.1 170.3 L 61.3 163.8 L 64.2 153.2 L 66.2 139.6 L 66.8 123.6 L 65.7 106.1 L 64.60555725097656 100.03081722259522 L 63.3 102.3 L 58.6 109.5 L 53.5 116.3 L 48.0 122.9 L 42.1 129.1 L 35.8 135.1 L 29.1 140.7 L 21.9 145.9 L 14.2 150.7 L 13.1 149.2 L 19.4 143.0 L 25.5 136.7 L 31.1 130.4 L 36.5 124.1 L 41.4 117.5 L 45.9 110.9 L 50.1 104.1 L 53.9 97.1 L 57.3 89.9 L 60.3 82.6 L 60.82043867111206 82.82036590576172 L 56.5 69.2 L 53.31884794235229 62.62079916000366 L 46.9 68.6 L 39.2 74.9 L 31.2 80.5 L 22.8 85.5 L 14.1 89.7 L 13.2 88.2 L 20.7 82.3 L 28.0 76.2 L 34.9 69.9 L 41.6 63.2 L 48.0 56.0 L 49.328064632415774 54.36713361740112 L 47.7 51.0 L 35.6 33.7 L 20.2 17.3 L 21.3 15.8 L 39.6 30.1 L 53.5 47.4 L 54.1 48.5 L 59.9 40.5 L 65.3 32.1 L 70.5 23.3 L 74.92101774215698 14.909088802337646 L 74.9 14.9 L 75.9 13.0 L 86.0 19.7 L 87.7 22.8 L 84.00429840087891 22.99115695953369 L 80.3 29.1 L 74.3 38.1 L 67.9 46.5 L 61.2 54.4 L 58.73789129257202 57.00280065536499 L 63.7 66.1 L 70.8 85.5 L 71.17056913375855 87.20285358428956 L 71.4 87.3 L 71.25430717468262 87.58764982223511 L 75.0 104.8 L 76.9 123.3 L 76.8 140.3 L 75.1 155.3 L 72.2 167.5 L 68.2 176.8 L 66.8 178.8 Z M 169.1 71.9 L 170.7 75.1 L 166.93384199142457 75.16493377685546 L 162.2 82.3 L 154.9 92.3 L 147.1 101.7 L 138.9 110.6 L 130.2 119.0 L 121.1 126.7 L 111.6 134.0 L 101.6 140.6 L 91.2 146.5 L 80.3 151.7 L 79.4 150.2 L 89.2 143.3 L 98.5 136.2 L 107.5 128.8 L 116.1 121.0 L 124.3 112.9 L 132.0 104.3 L 139.3 95.3 L 146.2 85.9 L 152.7 76.1 L 158.3203106880188 66.60996723175049 L 158.3 66.6 L 159.3 64.9 Z M 110.0 96.3 L 108.1 93.1 L 106.0 90.0 L 103.8 87.0 L 101.3 84.1 L 98.6 81.3 L 95.8 78.5 L 92.8 75.8 L 89.4 73.2 L 90.2 71.6 L 94.3 73.0 L 98.4 74.6 L 102.2 76.5 L 105.9 78.8 L 109.4 81.3 L 110.27020406723022 82.03423471450806 L 110.7 81.3 L 112.9 77.3 L 115.1 73.4 L 117.2 69.6 L 119.1 65.9 L 120.9 62.3 L 122.6 58.7 L 124.1 55.2 L 125.5 51.8 L 126.37327823638915 49.3257116317749 L 126.3 49.3 L 126.61818180084228 48.63181819915771 L 126.7 48.4 L 126.72357139587402 48.41049995422363 L 127.3 47.2 L 137.7 53.3 L 139.6 56.4 L 135.5419141769409 56.88976898193359 L 133.4 60.2 L 131.1 63.7 L 128.6 67.1 L 125.9 70.4 L 123.0 73.8 L 120.0 77.0 L 116.7 80.3 L 113.2 83.4 L 112.55112018585206 83.95875759124756 L 112.6 84.0 L 115.7 87.1 L 118.6 90.3 L 121.3 93.8 L 123.8 97.5 L 124.1 102.1 L 121.3 105.6 L 116.7 106.0 L 113.2 103.1 L 111.6 99.6 Z M 87.1 43.0 L 129.3 43.0 L 129.3 14.0 L 141.3 16.0 L 144.3 18.0 L 141.3 19.8 L 141.3 43.0 L 166.1 43.0 L 176.1 33.0 L 188.1 43.0 L 188.1 47.0 L 87.1 47.0 Z " />
</g>
</svg>
