<svg xmlns="http://www.w3.org/2000/svg" xmlns:xlink="http://www.w3.org/1999/xlink" version="1.1" baseProfile="full" viewBox="0 0 200 200" width="200" height="200">
<g fill="black">
<path d="M 154.6 174.3 L 144.6 167.4 L 135.4 159.6 L 133.51986322402954 157.5822922706604 L 133.3 157.8 L 122.1 166.7 L 109.9 174.2 L 96.8 180.5 L 82.8 185.4 L 67.9 188.8 L 67.5 187.1 L 81.5 181.8 L 94.5 175.6 L 106.5 168.6 L 117.5 160.6 L 127.4 151.6 L 127.6679901123047 151.30223321914673 L 127.2 150.8 L 119.9 141.2 L 113.7 130.7 L 108.4 119.4 L 104.3 107.2 L 101.48461542129516 95.0 L 90.8 95.0 L 90.8 91.0 L 127.4 91.0 L 127.4 54.0 L 89.0 54.0 L 89.0 50.0 L 127.4 50.0 L 127.4 14.0 L 139.4 16.0 L 142.4 18.0 L 139.4 19.8 L 139.4 50.0 L 165.9 50.0 L 175.9 40.0 L 187.9 50.0 L 187.9 54.0 L 139.4 54.0 L 139.4 91.0 L 162.5 91.0 L 168.5 86.0 L 179.5 95.0 L 174.5 98.0 L 172.58966445922852 98.79597311019897 L 168.0 109.9 L 160.9 123.7 L 152.7 136.3 L 143.5 147.7 L 140.67001714706421 150.50223789215087 L 142.2 151.9 L 151.0 158.4 L 160.5 164.0 L 170.7 168.8 L 181.7 172.7 L 189.1 175.2 L 177.5 185.2 L 165.6 180.2 Z M 63.6 180.5 L 61.9 182.2 L 60.0 183.7 L 58.0 185.0 L 55.8 186.1 L 53.5 186.9 L 51.1 187.5 L 48.7 187.8 L 46.2 188.0 L 46.2 182.0 L 32.2 179.0 L 32.2 176.0 L 46.2 176.0 L 47.6 175.9 L 48.9 175.7 L 50.1 175.4 L 51.1 175.1 L 52.1 174.6 L 53.0 174.0 L 53.9 173.3 L 54.7 172.5 L 55.5 171.5 L 56.3 170.3 L 59.3 163.8 L 62.1 153.2 L 64.0 139.5 L 64.6 123.6 L 63.5 106.1 L 62.10645160675049 98.08709678649902 L 60.4 101.5 L 56.1 108.8 L 51.4 115.8 L 46.2 122.5 L 40.6 128.9 L 34.6 134.9 L 28.1 140.6 L 21.1 145.9 L 13.6 150.7 L 12.5 149.2 L 18.6 143.0 L 24.4 136.7 L 29.8 130.4 L 34.8 124.0 L 39.4 117.4 L 43.6 110.7 L 47.4 103.8 L 50.8 96.8 L 53.7 89.5 L 56.3 82.1 L 57.485269737243655 78.72198114395141 L 54.5 69.2 L 51.550836658477785 62.88532094955444 L 45.5 68.6 L 38.0 74.9 L 30.1 80.5 L 22.0 85.5 L 13.5 89.7 L 12.5 88.2 L 19.8 82.3 L 26.9 76.3 L 33.7 69.9 L 40.2 63.2 L 46.4 56.1 L 47.64522438049316 54.52271575927735 L 46.0 51.0 L 34.3 33.7 L 19.3 17.3 L 20.4 15.8 L 38.3 30.2 L 51.8 47.4 L 52.39110174179077 48.51127119064331 L 52.4 48.5 L 58.1 40.6 L 63.5 32.2 L 68.7 23.3 L 73.12101774215698 14.909088802337646 L 73.1 14.9 L 74.1 13.0 L 84.2 19.7 L 85.9 22.8 L 82.20632562637329 22.98781394958496 L 78.5 29.1 L 72.5 38.1 L 66.2 46.5 L 59.6 54.4 L 57.004201889038086 57.18389949798584 L 61.8 66.2 L 68.7 85.5 L 72.8 104.8 L 74.7 123.3 L 74.6 140.3 L 73.0 155.2 L 70.3 167.3 L 66.6 176.5 L 65.2 178.6 Z M 108.2 105.7 L 113.8 116.9 L 119.9 127.0 L 126.7 136.3 L 133.94479026794434 144.32801084518434 L 136.4 141.6 L 144.4 130.6 L 151.5 118.5 L 157.6 105.3 L 161.34545450210572 95.0 L 103.56333332061767 95.0 Z " />
</g>
</svg>
