<svg xmlns="http://www.w3.org/2000/svg" xmlns:xlink="http://www.w3.org/1999/xlink" version="1.1" baseProfile="full" viewBox="0 0 200 200" width="200" height="200">
<g fill="black">
<path d="M 93.0 182.4 L 81.0 188.4 L 81.0 104.3 L 93.0 110.3 L 168.3 110.3 L 174.3 105.3 L 185.3 114.3 L 180.3 118.3 L 180.3 179.4 L 168.3 185.4 L 168.3 175.4 L 93.0 175.4 Z M 57.6 180.2 L 55.9 182.0 L 54.1 183.6 L 52.1 184.9 L 49.9 186.0 L 47.6 186.9 L 45.3 187.5 L 42.8 187.8 L 40.3 188.0 L 40.3 182.0 L 26.3 179.0 L 26.3 176.0 L 40.3 176.0 L 41.7 175.9 L 43.0 175.7 L 44.1 175.4 L 45.1 175.1 L 46.0 174.6 L 46.8 174.0 L 47.7 173.3 L 48.4 172.5 L 49.2 171.5 L 49.9 170.3 L 52.7 163.8 L 55.2 153.2 L 57.0 139.5 L 57.6 123.5 L 56.6 106.0 L 55.964876079559325 101.97024793624878 L 55.9 102.1 L 51.8 109.2 L 47.3 116.0 L 42.5 122.6 L 37.3 128.9 L 31.8 134.9 L 25.8 140.6 L 19.5 145.8 L 12.7 150.6 L 11.5 149.3 L 16.8 143.1 L 21.9 136.9 L 26.8 130.6 L 31.3 124.3 L 35.5 117.8 L 39.4 111.1 L 43.0 104.3 L 46.2 97.4 L 49.1 90.2 L 51.7 82.9 L 52.51616411209106 83.19613037109374 L 48.7 69.0 L 46.30616540908814 63.26739616394043 L 41.4 68.4 L 34.7 74.7 L 27.7 80.4 L 20.3 85.4 L 12.6 89.7 L 11.6 88.2 L 18.0 82.4 L 24.1 76.4 L 30.1 70.0 L 35.8 63.4 L 41.2 56.3 L 42.57098388671875 54.322619342803954 L 41.1 50.8 L 30.8 33.6 L 17.7 17.3 L 18.9 15.9 L 35.0 30.3 L 47.17349262237549 47.5624116897583 L 51.4 40.8 L 56.1 32.5 L 60.5 23.6 L 64.7 14.3 L 64.76230792999267 14.329153251647949 L 65.3 13.2 L 75.6 19.4 L 77.5 22.4 L 73.80362110137939 22.846114730834962 L 70.7 28.8 L 65.4 37.8 L 59.8 46.3 L 54.0 54.2 L 51.68042020797729 57.01391649246216 L 56.1 66.3 L 62.2 85.7 L 62.409212589263916 86.78564348220826 L 63.0 87.0 L 62.61746826171875 87.866321849823 L 65.9 104.9 L 67.6 123.3 L 67.6 140.2 L 66.2 155.0 L 63.8 167.0 L 60.4 176.1 L 59.1 178.3 Z M 93.0 144.4 L 93.0 171.4 L 124.7 171.4 L 124.7 144.4 Z M 136.7 144.4 L 136.7 171.4 L 168.3 171.4 L 168.3 144.4 Z M 93.0 114.3 L 93.0 140.4 L 124.7 140.4 L 124.7 114.3 Z M 136.7 114.3 L 136.7 140.4 L 168.3 140.4 L 168.3 114.3 Z M 104.4 48.1 L 156.9 48.1 L 162.9 43.1 L 173.9 52.1 L 168.9 56.1 L 168.9 91.8 L 156.9 97.8 L 156.9 87.8 L 104.4 87.8 L 104.4 94.8 L 92.4 100.8 L 92.4 42.1 Z M 104.4 52.1 L 104.4 83.8 L 156.9 83.8 L 156.9 52.1 Z M 185.3 24.0 L 185.3 28.0 L 76.1 28.0 L 76.1 24.0 L 163.3 24.0 L 173.3 14.0 Z " />
</g>
</svg>
