<svg xmlns="http://www.w3.org/2000/svg" xmlns:xlink="http://www.w3.org/1999/xlink" version="1.1" baseProfile="full" viewBox="0 0 200 200" width="200" height="200">
<g fill="black">
<path d="M 151.0 176.0 L 167.0 176.0 L 168.2 175.9 L 169.1 175.7 L 170.0 175.4 L 170.4 175.0 L 170.7 174.1 L 170.9 173.2 L 171.0 172.0 L 171.0 97.0 L 140.0 97.0 L 140.0 119.1 L 146.9 119.1 L 152.9 114.1 L 163.9 123.1 L 158.9 127.1 L 158.9 154.8 L 146.9 160.8 L 146.9 150.8 L 120.0 150.8 L 120.0 157.8 L 108.0 163.8 L 108.0 113.1 L 120.0 119.1 L 128.0 119.1 L 128.0 97.0 L 96.0 97.0 L 96.0 182.0 L 84.0 188.0 L 84.0 87.0 L 96.0 93.0 L 128.0 93.0 L 128.0 69.2 L 105.5 69.2 L 105.5 76.2 L 93.5 82.2 L 93.5 17.7 L 105.5 23.7 L 161.4 23.7 L 167.4 18.7 L 178.4 27.7 L 173.4 31.7 L 173.4 73.2 L 161.4 79.2 L 161.4 69.2 L 140.0 69.2 L 140.0 93.0 L 171.0 93.0 L 177.0 88.0 L 188.0 97.0 L 183.0 101.0 L 183.0 172.0 L 182.8 174.5 L 182.4 177.0 L 181.6 179.4 L 180.3 181.7 L 178.7 183.7 L 176.7 185.3 L 174.4 186.6 L 172.0 187.4 L 169.5 187.8 L 167.0 188.0 L 167.0 182.0 L 151.0 179.0 Z M 60.5 180.3 L 58.8 182.1 L 57.0 183.6 L 55.0 185.0 L 52.8 186.1 L 50.5 186.9 L 48.1 187.5 L 45.7 187.8 L 43.2 188.0 L 43.2 182.0 L 29.2 179.0 L 29.2 176.0 L 43.2 176.0 L 44.6 175.9 L 45.9 175.7 L 47.0 175.4 L 48.0 175.1 L 48.9 174.6 L 49.8 174.0 L 50.7 173.3 L 51.5 172.5 L 52.2 171.5 L 53.0 170.3 L 55.8 163.8 L 58.5 153.2 L 60.3 139.5 L 60.9 123.6 L 59.8 106.0 L 58.631289386749266 98.87086505889893 L 57.4 101.4 L 53.4 108.7 L 48.9 115.7 L 44.0 122.4 L 38.7 128.8 L 32.9 134.9 L 26.7 140.6 L 20.1 145.8 L 12.9 150.6 L 11.8 149.3 L 17.5 143.0 L 22.9 136.8 L 28.0 130.5 L 32.7 124.1 L 37.1 117.5 L 41.0 110.8 L 44.6 103.9 L 47.7 96.9 L 50.5 89.6 L 52.9 82.2 L 54.131034469604494 78.50689659118652 L 51.4 69.1 L 48.72053232192993 63.07946767807007 L 43.3 68.5 L 36.1 74.8 L 28.7 80.5 L 20.9 85.4 L 12.8 89.7 L 11.9 88.2 L 18.7 82.4 L 25.3 76.3 L 31.7 70.0 L 37.8 63.3 L 43.7 56.2 L 44.92118911743164 54.542671871185306 L 43.3 50.9 L 32.3 33.7 L 18.3 17.3 L 19.4 15.9 L 36.4 30.2 L 49.3 47.5 L 49.61862592697143 48.13386211395264 L 54.7 40.7 L 59.8 32.3 L 64.6 23.4 L 69.2 14.1 L 69.25833330154418 14.12916669845581 L 69.8 13.1 L 80.0 19.5 L 81.7 22.7 L 78.03747634887695 22.952587795257568 L 74.6 29.0 L 68.9 38.0 L 62.9 46.4 L 56.7 54.3 L 54.15343561172485 57.15523891448974 L 58.7 66.2 L 65.2 85.6 L 69.2 104.8 L 70.9 123.3 L 70.9 140.2 L 69.4 155.0 L 66.9 167.2 L 63.4 176.3 L 62.1 178.4 Z M 120.0 123.1 L 120.0 146.8 L 146.9 146.8 L 146.9 123.1 Z M 105.5 27.7 L 105.5 65.2 L 161.4 65.2 L 161.4 27.7 Z " />
</g>
</svg>
