<svg xmlns="http://www.w3.org/2000/svg" xmlns:xlink="http://www.w3.org/1999/xlink" version="1.1" baseProfile="full" viewBox="0 0 200 200" width="200" height="200">
<g fill="black">
<path d="M 70.0 178.0 L 85.0 178.0 L 85.0 115.0 L 97.0 121.0 L 160.0 121.0 L 166.0 116.0 L 177.0 125.0 L 172.0 129.0 L 172.0 178.0 L 177.5 178.0 L 182.0 172.0 L 188.0 178.0 L 188.0 182.0 L 70.0 182.0 Z M 97.0 125.0 L 97.0 178.0 L 110.0 178.0 L 110.0 125.0 Z M 122.0 125.0 L 122.0 178.0 L 135.0 178.0 L 135.0 125.0 Z M 147.0 125.0 L 147.0 178.0 L 160.0 178.0 L 160.0 125.0 Z M 60.8 180.4 L 59.1 182.2 L 57.2 183.7 L 55.2 185.0 L 53.0 186.1 L 50.7 186.9 L 48.3 187.5 L 45.9 187.8 L 43.4 188.0 L 43.4 182.0 L 29.4 179.0 L 29.4 176.0 L 43.4 176.0 L 44.8 175.9 L 46.1 175.7 L 48.3 175.1 L 49.2 174.6 L 50.1 174.0 L 51.0 173.3 L 51.8 172.5 L 52.6 171.5 L 53.3 170.3 L 56.3 163.8 L 59.0 153.2 L 60.8 139.5 L 61.4 123.6 L 60.4 106.1 L 59.542635154724124 101.01112489700317 L 58.9 102.2 L 54.6 109.3 L 49.9 116.2 L 44.8 122.7 L 39.3 129.0 L 33.4 135.0 L 27.2 140.6 L 20.5 145.9 L 13.3 150.6 L 12.2 149.3 L 17.9 143.0 L 23.4 136.8 L 28.6 130.5 L 33.5 124.2 L 38.0 117.7 L 42.1 111.0 L 45.9 104.2 L 49.4 97.2 L 52.5 90.1 L 55.3 82.8 L 55.94985408782959 83.04949760437012 L 51.9 69.1 L 49.2129771232605 62.9870228767395 L 43.7 68.5 L 36.6 74.8 L 29.1 80.5 L 21.3 85.4 L 13.2 89.7 L 12.3 88.2 L 19.1 82.4 L 25.7 76.3 L 32.1 70.0 L 38.2 63.3 L 44.1 56.2 L 45.42492227554321 54.36919822692871 L 43.9 50.9 L 32.8 33.7 L 18.8 17.3 L 19.9 15.9 L 36.9 30.2 L 49.8 47.5 L 50.03182706832886 47.956333255767824 L 54.9 40.7 L 59.9 32.3 L 64.7 23.5 L 68.75421104431152 15.12129716873169 L 68.7 15.1 L 69.7 13.1 L 79.9 19.5 L 81.7 22.6 L 78.02998094558716 22.916380977630617 L 74.7 29.0 L 69.1 37.9 L 63.2 46.4 L 57.0 54.3 L 54.62700023651123 57.00156888961792 L 59.3 66.2 L 65.8 85.6 L 66.06972770690918 86.93480615615844 L 66.5 87.1 L 66.22288208007812 87.6927243232727 L 69.7 104.9 L 71.4 123.3 L 71.4 140.2 L 69.9 155.1 L 67.3 167.2 L 63.7 176.4 L 62.3 178.5 Z M 185.0 90.0 L 185.0 94.0 L 75.0 94.0 L 75.0 90.0 L 163.0 90.0 L 173.0 80.0 Z M 161.2 20.1 L 163.3 23.0 L 159.3027027130127 23.689189147949218 L 157.6 27.0 L 155.6 30.6 L 153.5 34.2 L 151.3 37.9 L 148.9 41.7 L 146.4 45.6 L 143.7 49.5 L 140.8 53.4 L 138.78500003814696 56.0 L 161.0 56.0 L 171.0 46.0 L 183.0 56.0 L 183.0 60.0 L 77.0 60.0 L 77.0 56.0 L 136.3702127456665 56.0 L 137.8 51.8 L 139.4 47.2 L 140.9 42.8 L 142.5 38.5 L 143.9 34.4 L 145.3 30.4 L 146.6 26.6 L 147.8 22.8 L 149.0 19.2 L 149.73151931762695 16.639682579040528 L 149.6 16.6 L 150.5 14.4 Z M 105.3 42.0 L 104.5 39.4 L 103.6 36.7 L 102.5 34.0 L 101.1 31.2 L 99.7 28.3 L 98.0 25.4 L 96.2 22.2 L 94.0 19.3 L 95.3 18.0 L 98.2 20.4 L 101.2 22.6 L 104.0 24.9 L 106.5 27.3 L 108.9 29.8 L 111.0 32.4 L 113.0 35.0 L 114.8 37.7 L 116.4 40.5 L 117.8 43.3 L 117.3 47.8 L 113.8 50.8 L 109.3 50.3 L 106.3 46.9 L 105.9 44.5 Z " />
</g>
</svg>
