<svg xmlns="http://www.w3.org/2000/svg" xmlns:xlink="http://www.w3.org/1999/xlink" version="1.1" baseProfile="full" viewBox="0 0 200 200" width="200" height="200">
<g fill="black">
<path d="M 143.5 78.4 L 143.3131386756897 80.050608253479 L 146.2 94.1 L 149.6 107.8 L 153.4 120.6 L 157.8 132.4 L 162.6 143.2 L 167.9 153.2 L 173.7 162.2 L 179.9 170.2 L 186.7 177.4 L 187.9 178.6 L 177.2 186.5 L 170.2 178.0 L 163.8 168.6 L 158.2 158.4 L 153.2 147.4 L 149.0 135.5 L 145.4 122.9 L 142.5 109.4 L 140.94410800933838 98.80511636734009 L 139.2 109.2 L 135.9 123.1 L 132.0 136.0 L 127.3 147.8 L 121.8 158.5 L 115.7 168.2 L 108.8 176.6 L 101.1 183.8 L 92.7 189.7 L 91.6 188.2 L 98.4 181.1 L 104.6 173.2 L 110.2 164.6 L 115.1 155.0 L 119.4 144.6 L 123.1 133.2 L 126.2 120.8 L 128.6 107.4 L 130.4 93.0 L 131.5 77.5 L 131.5 72.0 L 100.7 72.0 L 100.7 68.0 L 131.5 68.0 L 131.5 13.0 L 143.5 15.0 L 146.5 17.0 L 143.5 18.8 L 143.5 68.0 L 161.8 68.0 L 171.8 58.0 L 183.8 68.0 L 183.8 72.0 L 143.5 72.0 L 143.5 78.0 L 143.24603176116943 78.38095235824585 Z M 35.5 70.2 L 83.4 70.2 L 89.4 65.2 L 100.4 74.2 L 95.4 78.2 L 95.4 176.3 L 83.4 182.3 L 83.4 176.3 L 35.5 176.3 L 35.5 183.3 L 23.5 189.3 L 23.5 64.2 Z M 35.5 140.8 L 35.5 172.3 L 83.4 172.3 L 83.4 140.8 Z M 35.5 107.5 L 35.5 136.8 L 83.4 136.8 L 83.4 107.5 Z M 35.5 74.2 L 35.5 103.5 L 83.4 103.5 L 83.4 74.2 Z M 90.2 18.0 L 92.3 20.9 L 88.48100004196166 21.636999988555907 L 86.6 25.3 L 84.6 28.9 L 82.5 32.6 L 80.3 36.4 L 77.9 40.1 L 75.4 43.9 L 72.7 47.7 L 69.9 51.4 L 68.87368421554565 52.7 L 90.11818180084228 52.7 L 98.3 43.7 L 108.3 52.7 L 108.3 56.7 L 10.6 56.7 L 10.6 52.7 L 65.86888885498047 52.7 L 66.9 49.8 L 68.4 45.4 L 69.9 41.1 L 71.4 36.9 L 72.9 32.9 L 74.3 28.9 L 75.6 25.0 L 78.0 17.4 L 78.7275899887085 14.70791711807251 L 78.7 14.7 L 78.83333330154419 14.31666669845581 L 79.0 13.7 L 79.04219179153442 13.716198635101318 L 79.5 12.4 Z M 163.9 43.3 L 163.1 40.4 L 162.1 37.5 L 160.8 34.6 L 159.3 31.7 L 157.6 28.8 L 155.7 25.9 L 153.6 23.0 L 151.0 20.3 L 152.1 18.8 L 158.7 22.8 L 161.8 25.0 L 164.6 27.5 L 167.2 30.2 L 169.6 33.1 L 171.7 36.2 L 173.6 39.5 L 175.3 43.0 L 176.7 46.7 L 175.9 51.2 L 172.2 53.9 L 167.7 53.1 L 165.0 49.4 L 164.6 46.3 Z M 37.1 39.4 L 36.5 36.9 L 35.7 34.3 L 34.8 31.6 L 33.8 28.7 L 32.6 25.8 L 31.4 22.7 L 30.0 19.4 L 28.2 16.3 L 29.7 15.2 L 32.2 17.9 L 34.8 20.4 L 37.2 22.9 L 39.4 25.4 L 41.5 27.9 L 43.4 30.5 L 45.1 33.0 L 46.7 35.5 L 48.1 38.1 L 49.3 40.6 L 48.8 45.1 L 45.3 48.1 L 40.8 47.6 L 37.9 44.1 L 37.5 41.8 Z " />
</g>
</svg>
