<svg xmlns="http://www.w3.org/2000/svg" xmlns:xlink="http://www.w3.org/1999/xlink" version="1.1" baseProfile="full" viewBox="0 0 200 200" width="200" height="200">
<g fill="black">
<path d="M 70.0 178.0 L 85.0 178.0 L 85.0 115.0 L 97.0 121.0 L 160.0 121.0 L 166.0 116.0 L 177.0 125.0 L 172.0 129.0 L 172.0 178.0 L 177.5 178.0 L 182.0 172.0 L 188.0 178.0 L 188.0 182.0 L 70.0 182.0 Z M 97.0 125.0 L 97.0 178.0 L 110.0 178.0 L 110.0 125.0 Z M 122.0 125.0 L 122.0 178.0 L 135.0 178.0 L 135.0 125.0 Z M 147.0 125.0 L 147.0 178.0 L 160.0 178.0 L 160.0 125.0 Z M 60.5 180.3 L 58.8 182.1 L 57.0 183.6 L 55.0 185.0 L 52.8 186.1 L 50.5 186.9 L 48.1 187.5 L 45.7 187.8 L 43.2 188.0 L 43.2 182.0 L 29.2 179.0 L 29.2 176.0 L 43.2 176.0 L 44.6 175.9 L 45.9 175.7 L 47.0 175.4 L 48.0 175.1 L 48.9 174.6 L 49.8 174.0 L 50.7 173.3 L 51.5 172.5 L 52.2 171.5 L 53.0 170.3 L 55.8 163.8 L 58.5 153.2 L 60.3 139.5 L 60.9 123.6 L 59.8 106.0 L 58.631289386749266 98.87086505889893 L 57.4 101.4 L 53.4 108.7 L 48.9 115.7 L 44.0 122.4 L 38.7 128.8 L 32.9 134.9 L 26.7 140.6 L 20.1 145.8 L 12.9 150.6 L 11.8 149.3 L 17.5 143.0 L 22.9 136.8 L 28.0 130.5 L 32.7 124.1 L 37.1 117.5 L 41.0 110.8 L 44.6 103.9 L 47.7 96.9 L 50.5 89.6 L 52.9 82.2 L 54.131034469604494 78.50689659118652 L 51.4 69.1 L 48.72053232192993 63.07946767807007 L 43.3 68.5 L 36.1 74.8 L 28.7 80.5 L 20.9 85.4 L 12.8 89.7 L 11.9 88.2 L 18.7 82.4 L 25.3 76.3 L 31.7 70.0 L 37.8 63.3 L 43.7 56.2 L 44.92118911743164 54.542671871185306 L 43.3 50.9 L 32.3 33.7 L 18.3 17.3 L 19.4 15.9 L 36.4 30.2 L 49.3 47.5 L 49.61862592697143 48.13386211395264 L 54.7 40.7 L 59.8 32.3 L 64.6 23.4 L 69.2 14.1 L 69.25833330154418 14.12916669845581 L 69.8 13.1 L 80.0 19.5 L 81.7 22.7 L 78.03747634887695 22.952587795257568 L 74.6 29.0 L 68.9 38.0 L 62.9 46.4 L 56.7 54.3 L 54.15343561172485 57.15523891448974 L 58.7 66.2 L 65.2 85.6 L 69.2 104.8 L 70.9 123.3 L 70.9 140.2 L 69.4 155.0 L 66.9 167.2 L 63.4 176.3 L 62.1 178.4 Z M 185.0 90.0 L 185.0 94.0 L 75.0 94.0 L 75.0 90.0 L 163.0 90.0 L 173.0 80.0 Z M 161.2 20.1 L 163.3 23.0 L 159.3027027130127 23.689189147949218 L 157.6 27.0 L 155.6 30.6 L 153.5 34.2 L 151.3 37.9 L 148.9 41.7 L 146.4 45.6 L 143.7 49.5 L 140.8 53.4 L 138.78500003814696 56.0 L 161.0 56.0 L 171.0 46.0 L 183.0 56.0 L 183.0 60.0 L 77.0 60.0 L 77.0 56.0 L 136.3702127456665 56.0 L 137.8 51.8 L 139.4 47.2 L 140.9 42.8 L 142.5 38.5 L 143.9 34.4 L 145.3 30.4 L 146.6 26.6 L 147.8 22.8 L 149.0 19.2 L 149.73151931762695 16.639682579040528 L 149.6 16.6 L 150.5 14.4 Z M 105.3 42.0 L 104.5 39.4 L 103.6 36.7 L 102.5 34.0 L 101.1 31.2 L 99.7 28.3 L 98.0 25.4 L 96.2 22.2 L 94.0 19.3 L 95.3 18.0 L 98.2 20.4 L 101.2 22.6 L 104.0 24.9 L 106.5 27.3 L 108.9 29.8 L 111.0 32.4 L 113.0 35.0 L 114.8 37.7 L 116.4 40.5 L 117.8 43.3 L 117.3 47.8 L 113.8 50.8 L 109.3 50.3 L 106.3 46.9 L 105.9 44.5 Z " />
</g>
</svg>
