<svg xmlns="http://www.w3.org/2000/svg" xmlns:xlink="http://www.w3.org/1999/xlink" version="1.1" baseProfile="full" viewBox="0 0 200 200" width="200" height="200">
<g fill="black">
<path d="M 71.9 178.2 L 85.7 178.2 L 85.7 115.9 L 97.7 121.9 L 162.2 121.9 L 168.2 116.9 L 179.2 125.9 L 174.2 129.9 L 174.2 178.2 L 177.5 178.2 L 182.0 172.2 L 188.0 178.2 L 188.0 182.2 L 71.9 182.2 Z M 97.7 125.9 L 97.7 178.2 L 111.4 178.2 L 111.4 125.9 Z M 123.4 125.9 L 123.4 178.2 L 136.5 178.2 L 136.5 125.9 Z M 148.5 125.9 L 148.5 178.2 L 162.2 178.2 L 162.2 125.9 Z M 60.5 180.3 L 58.8 182.1 L 57.0 183.6 L 55.0 185.0 L 52.8 186.1 L 50.5 186.9 L 48.1 187.5 L 45.7 187.8 L 43.2 188.0 L 43.2 182.0 L 29.2 179.0 L 29.2 176.0 L 43.2 176.0 L 44.6 175.9 L 45.9 175.7 L 47.0 175.4 L 48.0 175.1 L 48.9 174.6 L 49.8 174.0 L 50.7 173.3 L 51.5 172.5 L 52.2 171.5 L 53.0 170.3 L 55.8 163.8 L 58.5 153.2 L 60.3 139.5 L 60.9 123.6 L 59.8 106.0 L 58.631289386749266 98.87086505889893 L 57.4 101.4 L 53.4 108.7 L 48.9 115.7 L 44.0 122.4 L 38.7 128.8 L 32.9 134.9 L 26.7 140.6 L 20.1 145.8 L 12.9 150.6 L 11.8 149.3 L 17.5 143.0 L 22.9 136.8 L 28.0 130.5 L 32.7 124.1 L 37.1 117.5 L 41.0 110.8 L 44.6 103.9 L 47.7 96.9 L 50.5 89.6 L 52.9 82.2 L 54.131034469604494 78.50689659118652 L 51.4 69.1 L 48.72053232192993 63.07946767807007 L 43.3 68.5 L 36.1 74.8 L 28.7 80.5 L 20.9 85.4 L 12.8 89.7 L 11.9 88.2 L 18.7 82.4 L 25.3 76.3 L 31.7 70.0 L 37.8 63.3 L 43.7 56.2 L 44.92118911743164 54.542671871185306 L 43.3 50.9 L 32.3 33.7 L 18.3 17.3 L 19.4 15.9 L 36.4 30.2 L 49.3 47.5 L 49.61862592697143 48.13386211395264 L 54.7 40.7 L 59.8 32.3 L 64.6 23.4 L 69.2 14.1 L 69.25833330154418 14.12916669845581 L 69.8 13.1 L 80.0 19.5 L 81.7 22.7 L 78.03747634887695 22.952587795257568 L 74.6 29.0 L 68.9 38.0 L 62.9 46.4 L 56.7 54.3 L 54.15343561172485 57.15523891448974 L 58.7 66.2 L 65.2 85.6 L 69.2 104.8 L 70.9 123.3 L 70.9 140.2 L 69.4 155.0 L 66.9 167.2 L 63.4 176.3 L 62.1 178.4 Z M 76.0 111.2 L 75.1 106.7 L 77.6 102.9 L 79.2 102.1 L 80.8 101.0 L 82.4 99.5 L 84.0 97.6 L 85.5 95.3 L 87.0 92.4 L 88.3 89.2 L 89.5 85.5 L 90.7 81.4 L 91.4 76.9 L 93.2 77.0 L 93.5 81.6 L 93.8 86.1 L 93.8 90.3 L 93.4 94.2 L 92.8 97.9 L 91.8 101.4 L 90.5 104.7 L 88.9 107.7 L 86.8 110.4 L 84.3 112.9 L 79.8 113.7 Z M 173.4 102.6 L 172.7 99.9 L 171.8 97.0 L 170.6 94.1 L 169.1 91.0 L 167.5 87.9 L 165.6 84.7 L 163.6 81.3 L 161.1 78.1 L 162.3 76.8 L 165.6 79.4 L 168.9 81.8 L 171.9 84.4 L 174.7 87.1 L 177.1 89.9 L 179.4 92.8 L 181.4 95.8 L 183.2 98.9 L 184.7 102.0 L 186.0 105.3 L 185.1 109.8 L 181.4 112.5 L 176.9 111.6 L 174.3 107.9 L 174.0 105.3 Z M 142.3 100.7 L 142.1 98.2 L 141.6 95.7 L 141.0 93.0 L 140.2 90.3 L 139.1 87.6 L 137.9 84.7 L 136.5 81.7 L 134.6 78.9 L 135.9 77.7 L 138.5 80.0 L 141.2 82.2 L 143.7 84.6 L 145.9 87.1 L 147.8 89.7 L 149.6 92.5 L 151.1 95.3 L 152.4 98.3 L 153.4 101.3 L 154.2 104.5 L 152.7 108.8 L 148.7 110.9 L 144.3 109.5 L 142.2 105.4 L 142.3 103.1 Z M 117.2 110.9 L 113.1 108.8 L 111.7 104.5 L 112.2 102.2 L 112.8 97.4 L 112.8 95.0 L 112.7 92.4 L 112.4 89.9 L 112.0 87.2 L 111.3 84.5 L 110.6 81.6 L 109.3 78.9 L 110.8 77.9 L 112.8 80.3 L 114.9 82.6 L 116.8 85.1 L 118.5 87.7 L 119.9 90.4 L 121.1 93.2 L 122.1 96.1 L 122.8 99.1 L 123.4 102.3 L 123.6 105.4 L 121.5 109.5 Z M 181.3 28.9 L 176.3 32.9 L 176.3 65.6 L 164.3 71.6 L 164.3 65.6 L 84.1 65.6 L 84.1 61.6 L 164.3 61.6 L 164.3 28.9 L 84.1 28.9 L 84.1 24.9 L 164.3 24.9 L 170.3 19.9 Z " />
</g>
</svg>
