<svg xmlns="http://www.w3.org/2000/svg" xmlns:xlink="http://www.w3.org/1999/xlink" version="1.1" baseProfile="full" viewBox="0 0 200 200" width="200" height="200">
<g fill="black">
<path d="M 142.9 177.0 L 158.9 177.0 L 160.2 176.9 L 161.1 176.7 L 162.0 176.4 L 162.2 176.2 L 162.3 176.0 L 162.5 175.7 L 162.7 175.1 L 162.9 174.2 L 162.9 96.0 L 100.3 96.0 L 100.3 92.0 L 166.1 92.0 L 176.1 82.0 L 188.1 92.0 L 188.1 96.0 L 174.9 96.0 L 174.9 173.0 L 174.8 175.5 L 174.3 178.0 L 173.5 180.4 L 172.3 182.7 L 170.7 184.7 L 168.7 186.3 L 166.4 187.6 L 164.0 188.4 L 161.5 188.8 L 158.9 189.0 L 158.9 183.0 L 142.9 180.0 Z M 113.1 17.6 L 115.4 20.4 L 111.87834396362305 21.26496810913086 L 109.4 28.7 L 105.5 39.6 L 101.4 50.2 L 97.2 60.6 L 92.7 70.8 L 91.621875 73.1203125 L 96.9 74.0 L 99.9 76.0 L 96.9 77.8 L 96.9 183.0 L 84.9 189.0 L 84.9 86.96938772201538 L 83.2 90.3 L 78.1 99.7 L 72.6 108.7 L 66.9 117.4 L 65.3 116.5 L 69.3 107.0 L 73.3 97.3 L 77.2 87.6 L 81.1 77.7 L 84.9 67.6 L 88.5 57.3 L 92.0 46.8 L 95.3 36.2 L 98.5 25.3 L 101.31960697174073 15.203987884521485 L 101.3 15.2 L 102.0 12.6 Z M 55.6 180.0 L 54.0 181.8 L 52.2 183.5 L 50.2 184.8 L 48.0 186.0 L 45.8 186.9 L 43.4 187.5 L 40.9 187.8 L 38.4 188.0 L 38.4 182.0 L 24.4 179.0 L 24.4 176.0 L 38.4 176.0 L 39.8 175.9 L 41.0 175.7 L 42.1 175.4 L 43.1 175.1 L 43.9 174.6 L 45.5 173.4 L 46.2 172.5 L 47.0 171.5 L 47.7 170.3 L 50.2 163.8 L 52.6 153.2 L 54.2 139.5 L 54.7 123.5 L 53.8 106.0 L 53.02097492218017 100.69108810424805 L 52.8 101.2 L 49.2 108.5 L 45.2 115.5 L 40.8 122.2 L 36.0 128.6 L 30.8 134.7 L 25.2 140.5 L 19.2 145.8 L 12.7 150.6 L 11.5 149.3 L 16.5 143.1 L 21.2 136.9 L 25.6 130.6 L 29.8 124.3 L 33.6 117.7 L 37.0 111.0 L 40.1 104.1 L 42.9 97.1 L 45.4 89.8 L 47.5 82.3 L 48.7238486289978 78.19650745391846 L 46.4 69.0 L 44.29935121536255 63.615238189697266 L 40.0 68.4 L 33.6 74.7 L 26.9 80.4 L 19.9 85.4 L 12.6 89.7 L 11.6 88.2 L 17.5 82.4 L 23.3 76.4 L 28.9 70.1 L 34.3 63.4 L 39.5 56.3 L 40.71820545196533 54.43539981842041 L 39.3 50.8 L 29.5 33.6 L 17.3 17.3 L 18.5 16.0 L 33.8 30.4 L 45.21689510345459 47.42692108154297 L 49.1 40.9 L 53.6 32.5 L 57.9 23.7 L 61.60279035568237 15.300987720489502 L 61.6 15.3 L 62.5 13.2 L 72.9 19.3 L 74.8 22.4 L 71.10437097549439 22.85384922027588 L 68.1 28.8 L 63.0 37.7 L 57.7 46.2 L 52.1 54.1 L 49.65332479476929 57.16871118545532 L 53.8 66.4 L 59.6 85.7 L 63.2 104.9 L 64.8 123.2 L 64.8 140.1 L 63.6 154.8 L 61.4 166.8 L 58.3 175.8 L 57.1 178.0 Z M 123.9 114.0 L 138.2 114.0 L 144.2 109.0 L 155.2 118.0 L 150.2 122.0 L 150.2 156.0 L 138.2 162.0 L 138.2 150.0 L 123.9 150.0 L 123.9 162.0 L 111.9 168.0 L 111.9 108.0 Z M 123.9 118.0 L 123.9 146.0 L 138.2 146.0 L 138.2 118.0 Z M 161.7 74.0 L 159.7 71.2 L 157.4 68.4 L 155.0 65.8 L 152.5 63.1 L 149.8 60.6 L 146.9 58.1 L 144.0 55.5 L 142.6584408760071 54.56497392654419 L 142.4 55.2 L 138.1 63.0 L 133.0 70.0 L 127.2 76.2 L 120.7 81.4 L 113.4 85.6 L 105.5 88.8 L 104.7 87.1 L 111.4 82.4 L 117.3 77.2 L 122.5 71.6 L 126.9 65.5 L 130.7 58.9 L 133.8 51.6 L 136.175 44.0 L 105.9 44.0 L 105.9 40.0 L 137.05348834991455 40.0 L 138.1 35.0 L 139.3 25.7 L 139.7 15.7 L 139.73026485443114 15.701261043548584 L 139.8 13.4 L 151.7 16.2 L 154.6 18.3 L 151.30554180145265 20.108722114562987 L 150.6 27.1 L 148.6 37.2 L 147.7957447052002 40.0 L 160.5 40.0 L 170.5 30.0 L 182.5 40.0 L 182.5 44.0 L 146.64680852890015 44.0 L 145.9 46.6 L 143.60190782546997 52.24674081802368 L 145.4 52.8 L 149.3 54.1 L 153.0 55.7 L 156.6 57.6 L 160.1 59.6 L 163.4 61.9 L 166.6 64.4 L 169.6 67.1 L 172.5 70.0 L 175.3 73.0 L 176.2 77.5 L 173.9 81.4 L 169.4 82.4 L 165.5 80.0 L 163.7 77.0 Z " />
</g>
</svg>
