<svg xmlns="http://www.w3.org/2000/svg" xmlns:xlink="http://www.w3.org/1999/xlink" version="1.1" baseProfile="full" viewBox="0 0 200 200" width="200" height="200">
<g fill="black">
<path d="M 85.0 134.0 L 89.1 132.5 L 93.4 130.9 L 98.0 129.2 L 102.8 127.5 L 104.27320299148559 126.98004598617554 L 104.3 125.6 L 104.1 114.5 L 104.16629838943481 114.49944753646851 L 104.1 114.4 L 104.1 99.1 L 91.0 99.1 L 91.0 95.1 L 104.1 95.1 L 104.1 68.2 L 86.5 68.2 L 86.5 64.2 L 98.67692308425903 64.2 L 96.4 60.5 L 96.2 55.3 L 96.0 52.7 L 95.8 50.3 L 95.4 47.9 L 95.1 45.5 L 93.6 38.6 L 92.6 36.6 L 94.0 35.5 L 95.6 37.3 L 97.5 39.0 L 99.2 40.9 L 100.8 43.0 L 102.3 45.2 L 103.7 47.6 L 105.0 50.2 L 106.2 52.9 L 107.3 55.7 L 108.2 58.6 L 107.1 63.1 L 105.35833330154419 64.2 L 114.28888893127441 64.2 L 114.9 62.2 L 115.6 58.6 L 116.4 55.2 L 117.2 51.9 L 118.0 48.8 L 118.7 45.8 L 119.3 42.9 L 119.9 40.2 L 120.5 37.6 L 120.74960317611695 36.03998012542725 L 120.6 36.0 L 121.4 33.6 L 132.2 39.1 L 134.4 42.0 L 130.2113296508789 42.80833988189697 L 128.2 46.4 L 126.7 49.0 L 125.0 51.7 L 123.3 54.5 L 121.5 57.4 L 119.5 60.3 L 117.3 63.3 L 116.78181819915771 64.2 L 125.4 64.2 L 129.9 58.2 L 135.9 64.2 L 135.9 68.2 L 116.1 68.2 L 116.1 95.1 L 121.5 95.1 L 126.0 89.1 L 132.0 95.1 L 132.0 99.1 L 116.1 99.1 L 116.1 114.4 L 115.80635509490966 122.91570091247559 L 118.8 121.9 L 124.6 119.9 L 130.7 118.1 L 137.2 116.3 L 137.9 118.0 L 132.3 121.6 L 126.8 124.9 L 121.4 127.9 L 116.3 130.7 L 115.25731353759765 131.2630507469177 L 114.8 136.7 L 113.4 146.6 L 111.6 155.6 L 109.3 163.8 L 106.4 171.0 L 103.1 177.3 L 99.2 182.6 L 94.7 186.8 L 89.9 189.8 L 88.8 188.3 L 92.0 184.2 L 94.8 179.6 L 97.2 174.3 L 99.3 168.3 L 101.1 161.5 L 102.5 153.8 L 103.5 145.3 L 104.00528631210327 137.3838472366333 L 102.1 138.4 L 97.8 140.7 L 93.7 142.9 L 93.60333862304688 142.9508744239807 L 93.0 146.9 L 89.9 144.9 L 83.2 134.8 Z M 171.8 172.4 L 168.7 165.5 L 166.0 157.8 L 163.6 149.5 L 161.7 140.4 L 160.2 130.6 L 160.08991556167604 129.3034499168396 L 157.8 138.7 L 154.1 149.6 L 149.7 159.6 L 144.5 168.6 L 138.6 176.5 L 131.8 183.2 L 124.4 188.8 L 123.2 187.4 L 129.1 180.6 L 134.3 173.3 L 138.9 165.3 L 142.8 156.5 L 146.1 146.9 L 148.8 136.4 L 150.8 125.1 L 152.2 112.8 L 152.9 99.7 L 152.9 73.9 L 149.95 73.9 L 149.4 75.7 L 147.0 83.0 L 144.3 90.3 L 141.4 97.7 L 138.0 105.1 L 136.3 104.5 L 137.7 96.6 L 139.2 88.9 L 140.6 81.3 L 142.0 73.9 L 143.3 66.6 L 144.5 59.4 L 145.5 52.3 L 146.4 45.4 L 147.2 38.5 L 147.7104088783264 32.8004337310791 L 147.7 32.8 L 147.73181819915771 32.56136360168457 L 147.8 31.8 L 147.8327823638916 31.80413227081299 L 148.07333335876464 30.0 L 85.1 30.0 L 85.1 91.0 L 84.6 105.0 L 83.8 118.2 L 82.7 130.4 L 81.2 141.7 L 79.4 152.1 L 77.2 161.6 L 74.6 170.1 L 71.6 177.6 L 68.2 184.1 L 64.2 189.4 L 62.7 188.5 L 64.7 182.5 L 66.6 175.8 L 68.3 168.3 L 69.8 160.0 L 71.0 150.8 L 72.0 140.7 L 72.7 129.6 L 73.1 117.6 L 73.2 104.8 L 73.1 91.0 L 73.1 22.84655170440674 L 73.06878261566162 22.85031929016113 L 70.0 28.8 L 64.9 37.8 L 59.5 46.2 L 53.8 54.1 L 51.44950895309448 56.998938941955565 L 55.8 66.4 L 61.8 85.7 L 62.003145408630374 86.78344211578369 L 62.6 87.0 L 62.211507892608644 87.89470901489258 L 65.4 104.9 L 67.0 123.3 L 67.0 140.1 L 65.7 154.9 L 63.4 167.0 L 60.1 176.0 L 58.8 178.2 L 57.3 180.2 L 55.7 181.9 L 53.8 183.5 L 51.8 184.9 L 49.7 186.0 L 47.4 186.9 L 45.0 187.5 L 42.6 187.8 L 40.1 188.0 L 40.1 182.0 L 26.1 179.0 L 26.1 176.0 L 40.1 176.0 L 41.5 175.9 L 42.7 175.7 L 43.8 175.4 L 44.8 175.1 L 45.7 174.6 L 46.5 174.0 L 47.3 173.3 L 48.1 172.5 L 48.8 171.5 L 49.6 170.3 L 52.2 163.8 L 54.7 153.2 L 56.4 139.5 L 57.0 123.5 L 56.1 106.0 L 55.51442022323609 102.15190410614014 L 51.6 109.1 L 47.3 116.0 L 42.6 122.6 L 37.5 128.9 L 32.1 134.9 L 26.3 140.5 L 20.1 145.8 L 13.4 150.6 L 12.2 149.3 L 17.4 143.1 L 22.4 136.9 L 27.0 130.6 L 31.4 124.3 L 35.5 117.8 L 39.3 111.2 L 42.8 104.4 L 45.9 97.4 L 48.8 90.3 L 51.3 82.9 L 52.14234313964844 83.20562887191772 L 48.4 69.0 L 46.10524978637695 63.356154918670654 L 41.5 68.4 L 34.9 74.7 L 28.1 80.4 L 20.9 85.4 L 13.3 89.7 L 12.3 88.2 L 18.5 82.4 L 24.5 76.4 L 30.3 70.1 L 35.8 63.4 L 41.1 56.3 L 42.43689317703247 54.333980560302734 L 41.0 50.8 L 31.0 33.6 L 18.3 17.3 L 19.5 15.9 L 35.2 30.4 L 47.00901622772217 47.46849412918091 L 51.0 40.9 L 55.6 32.5 L 59.9 23.7 L 63.51121129989624 15.303933811187743 L 63.5 15.3 L 63.63333330154419 15.019999980926514 L 63.9 14.4 L 63.92357139587402 14.410499954223633 L 64.5 13.2 L 74.9 19.3 L 76.31395349502563 21.6069766998291 L 85.1 26.0 L 166.4 26.0 L 176.4 16.0 L 188.4 26.0 L 188.4 30.0 L 148.76285715103148 30.0 L 159.7 33.3 L 162.4 35.7 L 158.9538116455078 37.26053810119629 L 158.4 40.2 L 157.0 47.2 L 155.4 54.2 L 153.6 61.3 L 151.6 68.5 L 151.1722222328186 69.9 L 175.7 69.9 L 181.7 64.9 L 192.7 73.9 L 187.7 76.9 L 185.51769914627076 77.80929203033448 L 185.0 79.0 L 183.8 81.6 L 182.4 84.5 L 180.8 87.6 L 179.0 91.1 L 177.0 94.8 L 174.7 98.8 L 172.6 103.3 L 170.9 102.6 L 172.1 97.9 L 173.0 93.4 L 173.7 89.3 L 174.4 85.5 L 175.0 82.1 L 175.5 79.1 L 175.7 77.3 L 175.7 73.9 L 164.9 73.9 L 164.9 85.6 L 164.2 100.2 L 163.34305686950682 108.64701061248779 L 165.2 119.3 L 167.4 129.3 L 169.8 138.5 L 172.6 146.8 L 175.5 154.3 L 178.7 160.9 L 182.1 166.6 L 185.5 171.5 L 189.0 175.6 L 189.6 176.2 L 178.9 184.1 L 175.2 178.6 Z " />
</g>
</svg>
