<svg xmlns="http://www.w3.org/2000/svg" xmlns:xlink="http://www.w3.org/1999/xlink" version="1.1" baseProfile="full" viewBox="0 0 200 200" width="200" height="200">
<g fill="black">
<path d="M 152.37426023483278 17.755443859100343 L 153.0 49.4 L 153.69736843109132 60.0 L 168.4181818008423 60.0 L 176.6 51.0 L 186.6 60.0 L 186.6 64.0 L 153.96052627563478 64.0 L 155.0 79.8 L 158.1 105.4 L 161.111869430542 122.4943941116333 L 162.8 116.7 L 166.0 102.9 L 168.53732805252076 88.80373277664185 L 168.5 88.8 L 169.1 85.9 L 180.5 90.0 L 183.1 92.5 L 179.65201263427736 93.84088401794433 L 177.1 105.4 L 173.1 119.6 L 168.6 132.7 L 165.39065837860107 140.42861862182616 L 166.1 143.2 L 170.6 156.1 L 175.0 165.3 L 177.1876651763916 168.55345077514647 L 181.7 149.0 L 183.7 149.0 L 181.7744680404663 174.0319149017334 L 185.9 175.8 L 187.7 180.0 L 185.9 184.2 L 181.7 186.0 L 175.1 183.8 L 169.7 178.8 L 164.6 171.2 L 159.5 160.7 L 157.79634017944335 155.83240041732788 L 152.2 164.6 L 145.7 172.7 L 138.6 179.5 L 131.1 184.9 L 123.1 188.7 L 122.2 187.2 L 128.59542684555055 181.96737804412842 L 127.1 182.2 L 123.4 179.6 L 123.3 178.8 L 123.0 177.8 L 122.4 176.6 L 121.6 175.2 L 120.5 173.8 L 119.2 172.2 L 117.6 170.6 L 115.8 168.9 L 113.8 167.0 L 111.3 165.6 L 112.1 164.0 L 114.8 165.0 L 117.5 165.6 L 120.1 166.3 L 122.4 167.1 L 124.6 167.9 L 126.7 168.7 L 128.6 169.7 L 130.4 170.7 L 132.0 171.9 L 133.5 173.3 L 134.0115385055542 176.5884614944458 L 134.9 175.7 L 140.6 168.6 L 145.8 160.4 L 150.7 151.2 L 153.86473894119263 143.79163389205934 L 150.1 128.9 L 146.2 107.1 L 143.1 80.9 L 141.9514563560486 64.0 L 64.3 64.0 L 64.3 60.0 L 96.5 60.0 L 96.5 41.0 L 71.2 41.0 L 71.2 37.0 L 96.5 37.0 L 96.5 12.0 L 108.5 14.0 L 111.5 16.0 L 108.5 17.8 L 108.5 37.0 L 111.8 37.0 L 121.8 27.0 L 133.8 37.0 L 133.8 41.0 L 108.5 41.0 L 108.5 60.0 L 141.67961168289185 60.0 L 141.0 50.0 L 140.31941299438478 14.99838228225708 L 140.3 15.0 L 140.3 11.6 L 152.3 14.0 L 155.3 16.0 Z M 94.0 169.7 L 95.0 173.2 L 90.71266765594483 172.46080474853517 L 89.4 173.5 L 86.9 175.3 L 84.2 177.1 L 81.4 178.8 L 78.4 180.5 L 75.3 182.2 L 72.0 183.8 L 68.5 185.3 L 65.0 187.1 L 64.0 185.6 L 66.9 183.0 L 69.5 180.3 L 72.0 177.8 L 74.3 175.3 L 76.5 172.9 L 78.5 170.5 L 80.4 168.3 L 82.1 166.1 L 83.6 163.9 L 84.41200923919678 162.68198614120485 L 84.3 162.6 L 85.3 161.4 Z M 54.2 180.0 L 52.6 181.8 L 50.7 183.4 L 48.7 184.8 L 46.6 186.0 L 44.3 186.9 L 41.9 187.5 L 39.5 187.8 L 37.0 188.0 L 37.0 182.0 L 23.0 179.0 L 23.0 176.0 L 37.0 176.0 L 38.4 175.9 L 39.6 175.7 L 41.6 175.1 L 42.5 174.6 L 43.3 174.0 L 44.0 173.4 L 44.8 172.5 L 45.5 171.5 L 46.1 170.3 L 48.7 163.8 L 51.0 153.2 L 52.6 139.5 L 53.1 123.5 L 52.3 105.9 L 51.898012447357175 103.0551651954651 L 48.8 109.0 L 44.7 115.9 L 40.3 122.5 L 35.5 128.8 L 30.4 134.8 L 24.9 140.5 L 19.1 145.8 L 12.8 150.6 L 11.6 149.3 L 16.3 143.1 L 20.9 137.0 L 25.2 130.7 L 29.3 124.4 L 33.1 117.9 L 36.6 111.3 L 39.8 104.5 L 42.7 97.5 L 45.3 90.4 L 47.7 83.0 L 48.669881439208986 83.33473787307739 L 45.1 68.9 L 43.14990282058716 63.68062219619751 L 39.2 68.3 L 33.1 74.6 L 26.6 80.3 L 19.8 85.4 L 12.7 89.7 L 11.6 88.2 L 17.4 82.5 L 22.9 76.4 L 28.2 70.1 L 33.4 63.5 L 38.3 56.4 L 39.63420238494873 54.27095355987549 L 38.3 50.7 L 29.0 33.6 L 17.3 17.3 L 18.5 16.0 L 33.3 30.4 L 44.02047843933106 47.108493423461915 L 47.5 41.0 L 51.7 32.6 L 55.7 23.8 L 59.5 14.5 L 59.507748699188234 14.503281021118164 L 60.0 13.3 L 70.6 19.2 L 72.6 22.2 L 68.90027227401734 22.710307312011718 L 66.0 28.7 L 61.2 37.6 L 56.1 46.1 L 50.8 54.0 L 48.48210678100586 57.0091947555542 L 52.6 66.4 L 58.2 85.7 L 58.374256229400636 86.6840353012085 L 59.0 86.9 L 58.59443912506104 87.9274209022522 L 61.6 104.9 L 63.2 123.2 L 63.2 140.1 L 62.0 154.8 L 59.8 166.8 L 56.8 175.7 L 55.6 177.9 Z M 64.5 156.4 L 85.4 156.4 L 85.4 140.4 L 70.2 140.4 L 70.2 136.4 L 85.4 136.4 L 85.4 120.8 L 96.4 122.8 L 99.1 124.8 L 96.4 126.52340421676635 L 96.4 136.4 L 108.9 136.4 L 108.9 120.8 L 119.9 122.8 L 121.6 124.05925922393799 L 121.6 119.3 L 83.6 119.3 L 83.6 122.3 L 71.6 128.3 L 71.6 70.3 L 83.6 76.3 L 121.6 76.3 L 127.6 71.3 L 138.6 80.3 L 133.6 84.3 L 133.6 121.3 L 121.6 127.3 L 121.6 125.4382978439331 L 119.9 126.52340421676635 L 119.9 136.4 L 124.5 136.4 L 129.0 130.4 L 135.0 136.4 L 135.0 140.4 L 119.9 140.4 L 119.9 156.4 L 122.51818180084229 156.4 L 130.7 147.4 L 140.7 156.4 L 140.7 160.4 L 64.5 160.4 Z M 96.4 140.4 L 96.4 156.4 L 108.9 156.4 L 108.9 140.4 Z M 83.6 99.8 L 83.6 115.3 L 96.6 115.3 L 96.6 99.8 Z M 108.6 99.8 L 108.6 115.3 L 121.6 115.3 L 121.6 99.8 Z M 83.6 80.3 L 83.6 95.8 L 96.6 95.8 L 96.6 80.3 Z M 108.6 80.3 L 108.6 95.8 L 121.6 95.8 L 121.6 80.3 Z M 166.4 37.7 L 165.7 35.5 L 164.9 33.3 L 164.0 31.1 L 162.9 28.9 L 161.7 26.7 L 160.3 24.5 L 158.9 22.2 L 157.0 20.3 L 158.1 18.8 L 160.4 20.3 L 163.0 21.6 L 165.4 23.1 L 167.7 24.8 L 169.9 26.7 L 171.9 28.7 L 173.8 30.8 L 175.6 33.1 L 177.2 35.5 L 178.7 38.1 L 178.5 42.6 L 175.1 45.8 L 170.6 45.5 L 167.4 42.2 L 167.0 40.0 Z " />
</g>
</svg>
