<svg xmlns="http://www.w3.org/2000/svg" xmlns:xlink="http://www.w3.org/1999/xlink" version="1.1" baseProfile="full" viewBox="0 0 200 200" width="200" height="200">
<g fill="black">
<path d="M 157.9 184.7 L 149.0 182.2 L 140.4 179.0 L 132.2 175.1 L 129.50256643295288 173.56348724365233 L 124.5 175.7 L 114.3 179.4 L 103.6 182.7 L 92.3 185.3 L 80.5 187.4 L 68.1 188.8 L 67.8 187.1 L 79.7 183.7 L 90.9 180.1 L 101.6 176.4 L 111.6 172.4 L 120.77186670303345 168.10678577423096 L 116.8 165.3 L 109.7 159.4 L 103.0 152.8 L 97.0 145.3 L 98.3 144.0 L 105.8 149.6 L 113.3 154.8 L 120.8 159.3 L 128.4 163.3 L 129.2280200958252 163.65486574172974 L 129.9 163.3 L 138.1 158.3 L 145.7 152.9 L 152.7 147.3 L 158.65200004577636 141.7199999809265 L 159.3 141.0 L 167.3 150.0 L 167.9 153.6 L 164.2113043785095 152.54608697891234 L 159.9 156.1 L 151.8 161.7 L 143.3 166.9 L 140.67353410720824 168.24178152084352 L 143.9 169.4 L 152.0 171.5 L 160.2 173.1 L 168.6 174.0 L 177.2 174.4 L 188.6 174.8 L 176.7 187.5 L 167.2 186.4 Z M 60.5 180.3 L 58.8 182.1 L 57.0 183.6 L 55.0 185.0 L 52.8 186.1 L 50.5 186.9 L 48.1 187.5 L 45.7 187.8 L 43.2 188.0 L 43.2 182.0 L 29.2 179.0 L 29.2 176.0 L 43.2 176.0 L 44.6 175.9 L 45.9 175.7 L 47.0 175.4 L 48.0 175.1 L 48.9 174.6 L 49.8 174.0 L 50.7 173.3 L 51.5 172.5 L 52.2 171.5 L 53.0 170.3 L 55.8 163.8 L 58.5 153.2 L 60.3 139.5 L 60.9 123.6 L 59.8 106.0 L 58.631289386749266 98.87086505889893 L 57.4 101.4 L 53.4 108.7 L 48.9 115.7 L 44.0 122.4 L 38.7 128.8 L 32.9 134.9 L 26.7 140.6 L 20.1 145.8 L 12.9 150.6 L 11.8 149.3 L 17.5 143.0 L 22.9 136.8 L 28.0 130.5 L 32.7 124.1 L 37.1 117.5 L 41.0 110.8 L 44.6 103.9 L 47.7 96.9 L 50.5 89.6 L 52.9 82.2 L 54.131034469604494 78.50689659118652 L 51.4 69.1 L 48.72053232192993 63.07946767807007 L 43.3 68.5 L 36.1 74.8 L 28.7 80.5 L 20.9 85.4 L 12.8 89.7 L 11.9 88.2 L 18.7 82.4 L 25.3 76.3 L 31.7 70.0 L 37.8 63.3 L 43.7 56.2 L 44.92118911743164 54.542671871185306 L 43.3 50.9 L 32.3 33.7 L 18.3 17.3 L 19.4 15.9 L 36.4 30.2 L 49.3 47.5 L 49.61862592697143 48.13386211395264 L 54.7 40.7 L 59.8 32.3 L 64.6 23.4 L 69.2 14.1 L 69.25833330154418 14.12916669845581 L 69.8 13.1 L 80.0 19.5 L 81.7 22.7 L 78.03747634887695 22.952587795257568 L 74.6 29.0 L 68.9 38.0 L 62.9 46.4 L 56.7 54.3 L 54.15343561172485 57.15523891448974 L 58.7 66.2 L 65.2 85.6 L 69.2 104.8 L 70.9 123.3 L 70.9 140.2 L 69.4 155.0 L 66.9 167.2 L 63.4 176.3 L 62.1 178.4 Z M 87.0 146.0 L 87.0 83.16000003814698 L 81.7 87.4 L 75.8 91.6 L 69.5 95.6 L 68.4 94.3 L 73.3 88.7 L 78.1 83.4 L 82.6 78.3 L 86.8 73.3 L 87.0 73.04210529327392 L 87.0 70.0 L 88.7 70.85 L 90.6 68.4 L 94.2 63.5 L 97.5 58.8 L 100.4 54.1 L 102.9 49.5 L 104.73270568847656 45.91427154541016 L 104.7 45.9 L 105.7 44.0 L 115.7 50.7 L 117.4 53.9 L 113.57321834564209 54.0319580078125 L 112.7 55.4 L 110.01914892196655 59.0 L 144.0 59.0 L 144.14399995803834 58.880000019073485 L 144.2 58.8 L 145.7 56.7 L 146.1818181991577 57.18181819915772 L 150.0 54.0 L 161.0 63.0 L 156.0 66.0 L 148.61142854690553 69.0785714149475 L 147.7 69.7 L 145.4 71.1 L 143.2 72.5 L 140.9 73.8 L 138.5 75.0 L 136.5833333015442 76.0 L 162.8181818008423 76.0 L 171.0 67.0 L 181.0 76.0 L 181.0 80.0 L 139.0 80.0 L 139.0 96.0 L 156.8181818008423 96.0 L 165.0 87.0 L 175.0 96.0 L 175.0 100.0 L 139.0 100.0 L 139.0 116.0 L 156.8181818008423 116.0 L 165.0 107.0 L 175.0 116.0 L 175.0 120.0 L 139.0 120.0 L 139.0 136.0 L 163.0 136.0 L 173.0 126.0 L 185.0 136.0 L 185.0 140.0 L 99.0 140.0 Z M 99.0 120.0 L 99.0 136.0 L 127.0 136.0 L 127.0 120.0 Z M 99.0 100.0 L 99.0 116.0 L 127.0 116.0 L 127.0 100.0 Z M 99.0 80.0 L 99.0 96.0 L 127.0 96.0 L 127.0 80.0 Z M 106.91702127456665 63.0 L 105.5 64.8 L 101.4 69.4 L 97.0 74.0 L 96.31386861801147 74.65693426132202 L 99.0 76.0 L 131.6 76.0 L 132.2 75.4 L 133.7 73.2 L 138.2 66.9 L 139.8 64.9 L 141.157142829895 63.0 Z M 96.3 46.7 L 84.3 52.7 L 84.3 19.5 L 96.3 21.5 L 99.3 23.5 L 96.3 25.3 L 96.3 39.7 L 124.0 39.7 L 124.0 11.8 L 136.0 13.8 L 139.0 15.8 L 136.0 17.6 L 136.0 39.7 L 163.0 39.7 L 163.0 19.5 L 175.0 21.5 L 178.0 23.5 L 175.0 25.3 L 175.0 45.7 L 163.0 51.7 L 163.0 43.7 L 96.3 43.7 Z " />
</g>
</svg>
