<svg xmlns="http://www.w3.org/2000/svg" xmlns:xlink="http://www.w3.org/1999/xlink" version="1.1" baseProfile="full" viewBox="0 0 200 200" width="200" height="200">
<g fill="black">
<path d="M 85.0 134.0 L 89.1 132.5 L 93.4 130.9 L 98.0 129.2 L 102.8 127.5 L 104.27320299148559 126.98004598617554 L 104.3 125.6 L 104.1 114.5 L 104.16629838943481 114.49944753646851 L 104.1 114.4 L 104.1 99.1 L 91.0 99.1 L 91.0 95.1 L 104.1 95.1 L 104.1 68.2 L 86.5 68.2 L 86.5 64.2 L 98.67692308425903 64.2 L 96.4 60.5 L 96.2 55.3 L 96.0 52.7 L 95.8 50.3 L 95.4 47.9 L 95.1 45.5 L 93.6 38.6 L 92.6 36.6 L 94.0 35.5 L 95.6 37.3 L 97.5 39.0 L 99.2 40.9 L 100.8 43.0 L 102.3 45.2 L 103.7 47.6 L 105.0 50.2 L 106.2 52.9 L 107.3 55.7 L 108.2 58.6 L 107.1 63.1 L 105.35833330154419 64.2 L 114.28888893127441 64.2 L 114.9 62.2 L 115.6 58.6 L 116.4 55.2 L 117.2 51.9 L 118.0 48.8 L 118.7 45.8 L 119.3 42.9 L 119.9 40.2 L 120.5 37.6 L 120.74960317611695 36.03998012542725 L 120.6 36.0 L 121.4 33.6 L 132.2 39.1 L 134.4 42.0 L 130.2113296508789 42.80833988189697 L 128.2 46.4 L 126.7 49.0 L 125.0 51.7 L 123.3 54.5 L 121.5 57.4 L 119.5 60.3 L 117.3 63.3 L 116.78181819915771 64.2 L 125.4 64.2 L 129.9 58.2 L 135.9 64.2 L 135.9 68.2 L 116.1 68.2 L 116.1 95.1 L 121.5 95.1 L 126.0 89.1 L 132.0 95.1 L 132.0 99.1 L 116.1 99.1 L 116.1 114.4 L 115.80635509490966 122.91570091247559 L 118.8 121.9 L 124.6 119.9 L 130.7 118.1 L 137.2 116.3 L 137.9 118.0 L 132.3 121.6 L 126.8 124.9 L 121.4 127.9 L 116.3 130.7 L 115.25731353759765 131.2630507469177 L 114.8 136.7 L 113.4 146.6 L 111.6 155.6 L 109.3 163.8 L 106.4 171.0 L 103.1 177.3 L 99.2 182.6 L 94.7 186.8 L 89.9 189.8 L 88.8 188.3 L 92.0 184.2 L 94.8 179.6 L 97.2 174.3 L 99.3 168.3 L 101.1 161.5 L 102.5 153.8 L 103.5 145.3 L 104.00528631210327 137.3838472366333 L 102.1 138.4 L 97.8 140.7 L 93.7 142.9 L 93.60333862304688 142.9508744239807 L 93.0 146.9 L 89.9 144.9 L 83.2 134.8 Z M 171.8 172.4 L 168.7 165.5 L 166.0 157.8 L 163.6 149.5 L 161.7 140.4 L 160.2 130.6 L 160.08991556167604 129.3034499168396 L 157.8 138.7 L 154.1 149.6 L 149.7 159.6 L 144.5 168.6 L 138.6 176.5 L 131.8 183.2 L 124.4 188.8 L 123.2 187.4 L 129.1 180.6 L 134.3 173.3 L 138.9 165.3 L 142.8 156.5 L 146.1 146.9 L 148.8 136.4 L 150.8 125.1 L 152.2 112.8 L 152.9 99.7 L 152.9 73.9 L 149.95 73.9 L 149.4 75.7 L 147.0 83.0 L 144.3 90.3 L 141.4 97.7 L 138.0 105.1 L 136.3 104.5 L 137.7 96.6 L 139.2 88.9 L 140.6 81.3 L 142.0 73.9 L 143.3 66.6 L 144.5 59.4 L 145.5 52.3 L 146.4 45.4 L 147.2 38.5 L 147.7104088783264 32.8004337310791 L 147.7 32.8 L 147.73181819915771 32.56136360168457 L 147.8 31.8 L 147.8327823638916 31.80413227081299 L 148.07333335876464 30.0 L 85.1 30.0 L 85.1 91.0 L 84.6 105.0 L 83.8 118.2 L 82.7 130.4 L 81.2 141.7 L 79.4 152.1 L 77.2 161.6 L 74.6 170.1 L 71.6 177.6 L 68.2 184.1 L 64.2 189.4 L 62.7 188.5 L 64.7 182.5 L 66.6 175.8 L 68.3 168.3 L 69.8 160.0 L 71.0 150.8 L 72.0 140.7 L 72.7 129.6 L 73.1 117.6 L 73.2 104.8 L 73.1 91.0 L 73.1 22.834482765197755 L 73.0036211013794 22.846114730834962 L 69.9 28.8 L 64.7 37.8 L 59.2 46.2 L 53.4 54.2 L 50.95164241790771 57.219641017913816 L 55.2 66.4 L 61.2 85.7 L 64.8 104.9 L 66.5 123.2 L 66.5 140.1 L 65.2 154.9 L 62.9 166.9 L 59.8 175.9 L 58.5 178.1 L 57.0 180.1 L 55.4 181.9 L 53.6 183.5 L 51.6 184.9 L 49.4 186.0 L 47.1 186.9 L 44.8 187.5 L 42.3 187.8 L 39.8 188.0 L 39.8 182.0 L 25.8 179.0 L 25.8 176.0 L 39.8 176.0 L 41.2 175.9 L 42.4 175.7 L 43.5 175.4 L 44.5 175.1 L 45.4 174.6 L 46.2 174.0 L 47.0 173.3 L 47.7 172.5 L 48.5 171.5 L 49.2 170.3 L 51.8 163.8 L 54.2 153.2 L 55.9 139.5 L 56.4 123.5 L 55.5 106.0 L 54.62320117950439 100.23817911148072 L 54.2 101.2 L 50.4 108.5 L 46.3 115.5 L 41.8 122.3 L 36.9 128.7 L 31.5 134.8 L 25.8 140.5 L 19.6 145.8 L 13.0 150.6 L 11.8 149.3 L 17.0 143.1 L 21.8 136.9 L 26.4 130.6 L 30.7 124.2 L 34.6 117.7 L 38.2 111.0 L 41.4 104.1 L 44.3 97.0 L 46.8 89.8 L 49.0 82.3 L 50.24604196548462 78.28497581481933 L 47.8 69.0 L 45.6077784538269 63.53446130752563 L 41.1 68.4 L 34.5 74.7 L 27.6 80.4 L 20.4 85.4 L 12.9 89.7 L 11.9 88.2 L 18.1 82.4 L 24.0 76.4 L 29.8 70.1 L 35.4 63.4 L 40.7 56.3 L 41.961780834197995 54.44443988800049 L 40.5 50.8 L 30.4 33.6 L 17.8 17.3 L 19.0 15.9 L 34.7 30.4 L 46.5 47.6 L 46.518930721282956 47.64090766906738 L 50.7 40.9 L 55.3 32.5 L 59.8 23.6 L 63.9 14.3 L 63.962307929992676 14.329153251647949 L 64.5 13.2 L 74.8 19.4 L 76.14390239715576 21.52195119857788 L 85.1 26.0 L 166.4 26.0 L 176.4 16.0 L 188.4 26.0 L 188.4 30.0 L 148.76285715103148 30.0 L 159.7 33.3 L 162.4 35.7 L 158.9538116455078 37.26053810119629 L 158.4 40.2 L 157.0 47.2 L 155.4 54.2 L 153.6 61.3 L 151.6 68.5 L 151.1722222328186 69.9 L 175.7 69.9 L 181.7 64.9 L 192.7 73.9 L 187.7 76.9 L 185.51769914627076 77.80929203033448 L 185.0 79.0 L 183.8 81.6 L 182.4 84.5 L 180.8 87.6 L 179.0 91.1 L 177.0 94.8 L 174.7 98.8 L 172.6 103.3 L 170.9 102.6 L 172.1 97.9 L 173.0 93.4 L 173.7 89.3 L 174.4 85.5 L 175.0 82.1 L 175.5 79.1 L 175.7 77.3 L 175.7 73.9 L 164.9 73.9 L 164.9 85.6 L 164.2 100.2 L 163.34305686950682 108.64701061248779 L 165.2 119.3 L 167.4 129.3 L 169.8 138.5 L 172.6 146.8 L 175.5 154.3 L 178.7 160.9 L 182.1 166.6 L 185.5 171.5 L 189.0 175.6 L 189.6 176.2 L 178.9 184.1 L 175.2 178.6 Z " />
</g>
</svg>
