<svg xmlns="http://www.w3.org/2000/svg" xmlns:xlink="http://www.w3.org/1999/xlink" version="1.1" baseProfile="full" viewBox="0 0 200 200" width="200" height="200">
<g fill="black">
<path d="M 120.2 124.9 L 122.4 127.8 L 118.63327493667603 128.59299478530883 L 117.4 131.5 L 114.2 138.0 L 110.6 144.5 L 106.7 151.0 L 102.5 157.4 L 97.9 163.8 L 93.0 170.1 L 87.6 176.4 L 81.9 182.5 L 75.6 188.5 L 74.3 187.4 L 78.9 180.2 L 83.4 173.2 L 87.6 166.3 L 91.6 159.6 L 95.2 153.0 L 98.6 146.4 L 101.7 139.9 L 104.4 133.5 L 106.9 127.1 L 108.66121368408203 121.81635885238647 L 108.6 121.8 L 109.5 119.4 Z M 166.2 171.3 L 164.1 165.5 L 161.7 159.5 L 158.9 153.5 L 155.9 147.3 L 152.5 141.1 L 148.9 134.7 L 145.0 128.1 L 140.9 121.3 L 142.3 120.2 L 148.0 125.8 L 153.2 131.6 L 158.0 137.5 L 162.4 143.4 L 166.4 149.4 L 170.0 155.3 L 173.3 161.4 L 176.2 167.4 L 178.7 173.4 L 180.9 179.4 L 180.3 184.0 L 176.8 186.8 L 172.2 186.2 L 169.4 182.7 L 167.9 177.0 Z M 179.1 101.4 L 179.1 105.4 L 83.5 105.4 L 83.5 101.4 L 157.1 101.4 L 167.1 91.4 Z M 166.9 76.3 L 161.3 70.9 L 155.9 65.0 L 150.8 58.7 L 145.8 51.8 L 141.2 44.4 L 136.8 36.6 L 132.8 28.1 L 132.71061944961548 27.870164394378662 L 132.5 28.3 L 127.3 37.7 L 121.7 46.6 L 115.9 55.0 L 109.7 62.7 L 103.1 69.9 L 96.3 76.4 L 89.1 82.3 L 81.5 87.5 L 73.6 91.9 L 72.6 90.4 L 73.0474575996399 90.0 L 49.0 90.0 L 49.0 138.775 L 50.2 138.4 L 56.8 136.3 L 63.5 134.2 L 70.4 132.1 L 77.5 130.1 L 78.2 131.8 L 71.9 135.6 L 65.6 139.2 L 53.0 145.5 L 46.8 148.3 L 40.7 151.1 L 34.6 153.6 L 28.7 156.0 L 22.8 158.3 L 20.93344564437866 158.97582139968873 L 19.8 162.7 L 17.0 160.4 L 11.6 149.5 L 13.5 148.9 L 19.3 147.4 L 25.3 145.8 L 31.3 144.1 L 37.0 142.44516124725342 L 37.0 90.0 L 16.4 90.0 L 16.4 86.0 L 37.0 86.0 L 37.0 38.0 L 14.3 38.0 L 14.3 34.0 L 54.8 34.0 L 64.8 24.0 L 76.8 34.0 L 76.8 38.0 L 49.0 38.0 L 49.0 86.0 L 52.8 86.0 L 62.8 76.0 L 74.8 86.0 L 74.8 88.4333333015442 L 79.2 84.5 L 85.5 78.3 L 91.6 71.8 L 97.4 64.9 L 103.0 57.5 L 108.2 49.7 L 113.2 41.4 L 117.8 32.6 L 122.2 23.3 L 125.91718711853028 14.50567922592163 L 125.9 14.5 L 126.17941179275513 13.885294151306152 L 126.3 13.6 L 126.30762367248535 13.603227996826172 L 126.9 12.3 L 137.4 18.3 L 139.3 21.3 L 135.68112287521362 21.80791254043579 L 134.76329870223998 23.681023120880127 L 136.5 26.1 L 141.8 33.4 L 147.1 40.3 L 152.5 46.7 L 157.9 52.6 L 163.3 58.0 L 168.8 62.8 L 174.4 67.1 L 180.0 70.9 L 185.7 74.2 L 190.1 76.8 L 178.9 85.5 L 172.8 81.2 Z " />
</g>
</svg>
