<svg xmlns="http://www.w3.org/2000/svg" xmlns:xlink="http://www.w3.org/1999/xlink" version="1.1" baseProfile="full" viewBox="0 0 200 200" width="200" height="200">
<g fill="black">
<path d="M 79.3 24.0 L 106.7 24.0 L 112.7 19.0 L 123.7 28.0 L 118.7 32.0 L 118.7 62.0 L 106.7 68.0 L 106.7 62.0 L 79.3 62.0 L 79.3 183.2 L 68.3 188.7 L 68.3 18.5 Z M 151.9 177.5 L 167.3 177.5 L 168.3 177.4 L 169.0 177.3 L 169.6 177.0 L 169.7 176.8 L 169.9 176.6 L 170.1 176.1 L 170.3 175.4 L 170.5 174.3 L 170.6 173.0 L 170.6 62.0 L 143.2 62.0 L 131.2 68.0 L 131.2 18.0 L 143.2 24.0 L 170.6 24.0 L 176.1 19.0 L 186.6 28.0 L 181.6 31.5 L 181.6 173.0 L 181.5 175.4 L 181.1 177.7 L 180.4 180.0 L 179.4 182.1 L 178.0 184.1 L 176.3 185.7 L 174.2 187.0 L 172.0 187.8 L 169.7 188.3 L 167.3 188.5 L 167.3 183.0 L 151.9 180.2 Z M 135.0 165.9 L 149.0 165.9 L 150.0 165.8 L 150.6 165.7 L 151.0 165.5 L 151.3 165.4 L 151.4 165.3 L 151.6 165.0 L 151.8 164.5 L 152.0 163.8 L 152.2 162.7 L 152.3 161.4 L 152.3 140.0 L 131.0 140.0 L 131.0 152.2 L 134.2 152.2 L 138.23350381851196 152.39207162857056 L 137.9 151.6 L 136.9 149.7 L 135.8 147.8 L 134.6 145.7 L 132.9 144.0 L 134.0 142.6 L 136.1 144.0 L 138.4 145.1 L 140.5 146.3 L 142.5 147.6 L 144.4 149.0 L 146.2 150.6 L 147.8 152.2 L 149.3 154.0 L 150.7 155.9 L 151.9 157.8 L 151.5 162.4 L 148.1 165.4 L 143.5 165.0 L 140.5 161.6 L 140.4 160.1 L 140.2 158.6 L 139.8 156.9 L 139.34563760757447 155.35516777038575 L 138.9 155.5 L 134.9 156.9 L 126.9 159.3 L 122.8 160.3 L 118.8 161.3 L 114.9 162.2 L 110.9 163.1 L 107.18571424484253 163.842857170105 L 105.3 167.5 L 103.0 164.7 L 99.7 153.0 L 101.6 152.8 L 113.6 152.5 L 119.0 152.3682927131653 L 119.0 140.0 L 97.6 140.0 L 97.6 170.5 L 86.6 176.0 L 86.6 130.5 L 92.9 133.65 L 92.9 92.1 L 104.9 98.1 L 145.0 98.1 L 151.0 93.1 L 162.0 102.1 L 157.0 106.1 L 157.0 128.0 L 145.0 134.0 L 145.0 128.0 L 131.0 128.0 L 131.0 136.0 L 152.3 136.0 L 157.8 131.0 L 168.3 140.0 L 163.3 143.5 L 163.3 161.4 L 163.1 163.8 L 162.8 166.2 L 162.1 168.4 L 161.1 170.6 L 159.7 172.5 L 157.9 174.2 L 155.9 175.4 L 153.7 176.3 L 151.4 176.7 L 149.0 176.9 L 149.0 171.4 L 135.0 168.6 Z M 50.9 179.6 L 49.3 181.5 L 47.6 183.2 L 45.6 184.7 L 43.5 185.9 L 41.2 186.8 L 38.8 187.5 L 36.3 187.8 L 33.8 188.0 L 33.8 182.0 L 19.8 179.0 L 19.8 176.0 L 33.8 176.0 L 35.2 175.9 L 36.4 175.7 L 37.4 175.4 L 38.3 175.1 L 39.1 174.6 L 39.8 174.1 L 40.5 173.4 L 41.1 172.6 L 41.8 171.6 L 42.4 170.4 L 44.6 163.8 L 46.6 153.2 L 48.1 139.4 L 48.6 123.4 L 47.8 105.9 L 47.448295783996585 103.07107515335083 L 45.2 108.2 L 41.7 115.2 L 37.9 122.0 L 33.7 128.4 L 29.2 134.5 L 24.3 140.3 L 19.0 145.7 L 13.3 150.6 L 12.0 149.3 L 16.1 143.2 L 20.0 137.1 L 23.8 130.8 L 27.2 124.5 L 30.4 118.0 L 33.3 111.3 L 36.0 104.4 L 38.3 97.3 L 40.4 90.0 L 42.1 82.5 L 43.38101758956909 77.54673185348511 L 41.5 68.8 L 40.086340236663816 64.51189861297607 L 37.2 68.2 L 31.6 74.5 L 25.8 80.2 L 19.6 85.3 L 13.2 89.6 L 12.1 88.3 L 17.0 82.5 L 21.9 76.6 L 26.6 70.3 L 31.1 63.6 L 35.5 56.6 L 36.74505929946899 54.37667980194092 L 35.5 50.6 L 27.2 33.5 L 17.0 17.3 L 18.3 16.1 L 31.8 30.6 L 40.961244106292725 46.6090428352356 L 43.7 41.2 L 47.5 32.8 L 51.1 24.0 L 54.5 14.7 L 54.57937898635864 14.730475902557373 L 55.1 13.4 L 65.7 19.0 L 67.8 22.0 L 64.1271728515625 22.644355678558348 L 61.6 28.5 L 57.2 37.5 L 52.5 45.9 L 47.7 53.8 L 45.38307819366455 57.207238006591794 L 49.1 66.6 L 54.1 85.8 L 57.2 104.9 L 58.6 123.2 L 58.7 140.0 L 57.7 154.6 L 55.9 166.4 L 53.3 175.2 L 52.2 177.5 Z M 104.9 128.0 L 93.25 133.825 L 97.6 136.0 L 119.0 136.0 L 119.0 128.0 Z M 104.9 115.0 L 104.9 124.0 L 119.0 124.0 L 119.0 115.0 Z M 131.0 115.0 L 131.0 124.0 L 145.0 124.0 L 145.0 115.0 Z M 104.9 102.1 L 104.9 111.0 L 119.0 111.0 L 119.0 102.1 Z M 131.0 102.1 L 131.0 111.0 L 145.0 111.0 L 145.0 102.1 Z M 144.5 73.6 L 147.5 75.6 L 144.5 77.4 L 144.5 82.0 L 148.71818180084227 82.0 L 156.9 73.0 L 166.9 82.0 L 166.9 86.0 L 144.5 86.0 L 144.5 92.0 L 132.5 98.0 L 132.5 86.0 L 117.4 86.0 L 117.4 92.0 L 105.4 98.0 L 105.4 86.0 L 83.0 86.0 L 83.0 82.0 L 105.4 82.0 L 105.4 71.6 L 117.4 73.6 L 120.4 75.6 L 117.4 77.4 L 117.4 82.0 L 132.5 82.0 L 132.5 71.6 Z M 143.2 45.0 L 143.2 58.0 L 170.6 58.0 L 170.6 45.0 Z M 79.3 45.0 L 79.3 58.0 L 106.7 58.0 L 106.7 45.0 Z M 143.2 28.0 L 143.2 41.0 L 170.6 41.0 L 170.6 28.0 Z M 79.3 28.0 L 79.3 41.0 L 106.7 41.0 L 106.7 28.0 Z " />
</g>
</svg>
