<svg xmlns="http://www.w3.org/2000/svg" xmlns:xlink="http://www.w3.org/1999/xlink" version="1.1" baseProfile="full" viewBox="0 0 200 200" width="200" height="200">
<g fill="black">
<path d="M 119.7 61.5 L 118.4 59.8 L 116.7 58.1 L 114.8 56.3 L 112.6 54.4 L 110.2 52.4 L 107.5 50.3 L 104.6 48.1 L 103.87308530807495 47.70350112915039 L 103.0 48.5 L 97.1 53.3 L 90.7 57.9 L 88.70425529479981 59.15106382369995 L 91.3 59.8 L 94.4 60.8 L 97.4 61.9 L 100.2 63.2 L 102.9 64.6 L 105.5 66.0 L 107.9 67.6 L 110.2 69.3 L 112.3 71.1 L 113.6 75.5 L 111.5 79.6 L 107.1 80.9 L 103.1 78.8 L 102.0 76.9 L 100.8 75.1 L 99.3 73.2 L 97.7 71.3 L 95.9 69.4 L 93.9 67.4 L 91.8 65.4 L 89.4 63.4 L 86.9 61.3 L 86.09832077026367 60.78463478088379 L 84.0 62.1 L 76.9 66.0 L 69.4 69.4 L 68.5 67.8 L 74.8 62.8 L 80.9 57.8 L 86.7 52.7 L 92.1 47.6 L 97.2 42.4 L 101.9 37.0 L 106.2 31.5 L 110.3 25.9 L 113.9 20.1 L 117.3 14.1 L 117.8 13.2 L 127.6 20.2 L 129.2 23.4 L 125.38773212432861 23.465728759765625 L 123.4 26.4 L 118.9 32.3 L 118.54285717010498 32.7 L 158.2 32.7 L 158.74319524765014 32.24733724594116 L 159.0 31.8 L 159.16838483810426 31.893012619018556 L 164.2 27.7 L 175.2 36.7 L 170.2 39.7 L 167.4 40.86666669845581 L 162.3 48.8 L 154.4 59.3 L 145.8 68.8 L 136.6 77.6 L 126.7 85.5 L 116.1 92.5 L 104.8 98.7 L 94.13461542129517 103.4 L 161.7 103.4 L 171.7 93.4 L 183.7 103.4 L 183.7 107.4 L 139.1 107.4 L 139.1 121.4 L 153.51818180084229 121.4 L 161.7 112.4 L 171.7 121.4 L 171.7 125.4 L 139.1 125.4 L 139.1 139.4 L 161.7 139.4 L 171.7 129.4 L 183.7 139.4 L 183.7 143.4 L 139.1 143.4 L 139.1 177.8 L 163.1 177.8 L 163.1 147.1 L 175.1 149.1 L 178.1 151.1 L 175.1 152.9 L 175.1 183.8 L 163.1 189.8 L 163.1 181.8 L 102.4 181.8 L 102.4 184.8 L 90.4 190.8 L 90.4 147.1 L 102.4 149.1 L 105.4 151.1 L 102.4 152.9 L 102.4 177.8 L 127.1 177.8 L 127.1 143.4 L 82.4 143.4 L 82.4 139.4 L 127.1 139.4 L 127.1 125.4 L 94.4 125.4 L 94.4 121.4 L 127.1 121.4 L 127.1 107.4 L 82.74418601989746 107.4 L 80.4 108.2 L 67.3 111.5 L 66.8 109.7 L 79.1 104.6 L 90.8 99.0 L 101.7 92.9 L 111.9 86.2 L 121.4 78.8 L 130.3 70.8 L 138.5 62.0 L 146.0 52.6 L 152.8 42.6 L 156.18703699111938 36.7 L 114.9714285850525 36.7 L 113.9 37.9 L 108.7 43.3 L 105.90377359390259 45.850943374633786 L 109.3 46.7 L 112.7 47.6 L 115.8 48.7 L 118.8 49.8 L 121.5 51.1 L 124.1 52.3 L 126.5 53.7 L 128.7 55.1 L 130.7 56.7 L 132.0 61.1 L 130.0 65.2 L 125.6 66.5 L 121.5 64.5 L 120.8 63.0 Z M 13.4 148.9 L 19.2 147.4 L 25.1 145.8 L 31.1 144.1 L 36.8 142.44516124725342 L 36.8 90.0 L 16.3 90.0 L 16.3 86.0 L 36.8 86.0 L 36.8 38.0 L 14.2 38.0 L 14.2 34.0 L 54.5 34.0 L 64.5 24.0 L 76.5 34.0 L 76.5 38.0 L 48.8 38.0 L 48.8 86.0 L 52.4 86.0 L 62.4 76.0 L 74.4 86.0 L 74.4 90.0 L 48.8 90.0 L 48.8 138.775 L 50.0 138.4 L 56.5 136.3 L 63.2 134.2 L 70.0 132.1 L 77.1 130.1 L 77.8 131.8 L 71.5 135.6 L 65.2 139.2 L 59.0 142.4 L 52.7 145.5 L 46.6 148.3 L 40.5 151.0 L 34.5 153.6 L 28.5 156.0 L 22.7 158.3 L 20.833445644378664 158.97582139968873 L 19.7 162.7 L 16.9 160.4 L 11.5 149.5 Z " />
</g>
</svg>
