<svg xmlns="http://www.w3.org/2000/svg" xmlns:xlink="http://www.w3.org/1999/xlink" version="1.1" baseProfile="full" viewBox="0 0 200 200" width="200" height="200">
<g fill="black">
<path d="M 157.7 181.4 L 148.0 175.5 L 139.5 168.1 L 138.30768098831177 166.60960121154784 L 129.2 171.8 L 119.4 176.5 L 109.2 180.5 L 98.5 183.8 L 87.4 186.3 L 75.9 188.0 L 75.5 186.3 L 86.4 182.6 L 96.8 178.7 L 106.7 174.4 L 116.1 169.7 L 124.9 164.5 L 132.4962963104248 159.345370388031 L 132.3 159.1 L 126.5 148.7 L 122.1 137.0 L 119.70724678039551 126.88868780136109 L 77.1 129.1 L 76.9 125.2 L 118.88402519226074 123.02103300094605 L 117.1 109.5 L 116.5380952835083 94.79682540893555 L 116.5 94.8 L 116.5 91.3 L 128.5 93.8 L 131.5 95.8 L 128.65139446258544 97.50916337966919 L 129.1 108.5 L 130.8 121.8 L 130.94244155883788 122.39520225524902 L 162.76031951904298 120.74385738372803 L 172.3 110.2 L 184.8 119.6 L 185.0 123.5 L 131.86677827835084 126.25760927200318 L 133.6 133.5 L 137.4 143.7 L 141.9756254196167 151.91744966506957 L 148.7 146.0 L 155.6 138.9 L 162.1 131.2 L 162.1390658378601 131.23312101364135 L 162.5 130.8 L 171.3 139.0 L 172.3 142.4 L 168.58505477905274 141.8235429763794 L 163.8 146.8 L 155.8 154.0 L 148.25103187561035 159.93133211135864 L 155.0 165.8 L 163.0 170.6 L 172.1 174.1 L 176.24975366592406 175.0177339553833 L 181.7 151.4 L 183.7 151.4 L 181.7890181541443 176.24276361465454 L 182.5 176.4 L 186.4 178.8 L 187.6 183.2 L 185.2 187.1 L 180.8 188.3 L 168.7 185.6 Z M 13.8 148.9 L 19.7 147.4 L 25.7 145.8 L 31.8 144.1 L 37.6 142.442857170105 L 37.6 90.0 L 16.6 90.0 L 16.6 86.0 L 37.6 86.0 L 37.6 38.0 L 14.5 38.0 L 14.5 34.0 L 56.0 34.0 L 66.0 24.0 L 78.0 34.0 L 78.0 38.0 L 49.6 38.0 L 49.6 86.0 L 53.9 86.0 L 63.9 76.0 L 75.9 86.0 L 75.9 90.0 L 49.6 90.0 L 49.6 138.8307692527771 L 51.0 138.4 L 57.6 136.3 L 64.4 134.2 L 71.4 132.1 L 78.6 130.1 L 79.4 131.8 L 72.9 135.6 L 66.5 139.2 L 60.1 142.4 L 53.7 145.5 L 47.4 148.4 L 41.2 151.1 L 35.1 153.6 L 29.0 156.0 L 23.1 158.3 L 21.125206565856935 159.0028925895691 L 20.0 162.7 L 17.2 160.4 L 11.8 149.5 Z M 63.9 117.0 L 63.5 114.9 L 62.9 112.7 L 62.1 110.4 L 61.1 108.0 L 60.0 105.6 L 58.7 103.2 L 57.2 100.6 L 55.2 98.3 L 56.4 96.9 L 58.9 98.8 L 61.6 100.5 L 64.0 102.3 L 66.3 104.3 L 68.4 106.4 L 70.3 108.6 L 72.0 111.0 L 73.5 113.5 L 74.8 116.1 L 75.9 118.8 L 75.0 123.3 L 71.3 125.9 L 66.8 125.0 L 64.2 121.2 L 64.1 119.2 Z M 151.7 109.6 L 150.7 108.1 L 149.5 106.5 L 148.0 104.9 L 146.4 103.2 L 144.5 101.5 L 142.4 99.7 L 140.1 97.8 L 137.4 96.4 L 138.1 94.7 L 141.0 95.7 L 144.1 96.3 L 146.9 97.0 L 149.6 97.8 L 152.1 98.8 L 154.5 99.8 L 156.7 101.0 L 158.8 102.2 L 160.8 103.6 L 162.6 105.2 L 163.6 109.6 L 161.3 113.6 L 156.9 114.6 L 152.9 112.3 L 152.4 111.0 Z M 119.8 82.0 L 119.6 80.3 L 119.56145706176758 80.11692123413086 L 115.5 81.9 L 111.4 83.6 L 103.2 86.6 L 99.0 88.0 L 94.9 89.4 L 86.35751209259033 92.04410343170166 L 84.9 95.8 L 82.3 93.3 L 77.8 82.0 L 79.7 81.6 L 87.2153977394104 80.55133981704712 L 87.4 80.2 L 90.6 74.6 L 93.7 69.2 L 96.8 64.0 L 99.125 60.125 L 95.1 60.3 L 91.7 57.3 L 91.6 56.3 L 91.3 55.0 L 90.8 53.6 L 90.0 52.0 L 89.0 50.4 L 87.8 48.6 L 86.3 46.6 L 84.6 44.6 L 82.8 42.4 L 80.4 40.6 L 81.4 39.1 L 84.0 40.5 L 86.8 41.6 L 89.4 42.7 L 89.72387752532958 42.85489797592163 L 90.6 41.2 L 92.2 37.7 L 93.6 34.4 L 95.1 31.2 L 96.4 28.2 L 97.6 25.3 L 98.8 22.6 L 99.8 19.9 L 100.7 17.4 L 101.16448087692261 16.064617443084718 L 101.0 16.0 L 102.0 14.0 L 112.2 20.4 L 114.0 23.6 L 109.71642971038818 23.895418643951416 L 108.9 25.0 L 107.0 27.4 L 105.0 29.8 L 102.9 32.3 L 100.7 34.9 L 98.3 37.5 L 95.7 40.1 L 92.9 42.8 L 91.87837839126587 43.8972972869873 L 93.9 45.0 L 95.9 46.2 L 97.8 47.5 L 99.5 48.9 L 101.1 50.4 L 102.5 52.1 L 102.58969068527222 54.11804122924805 L 102.6 54.1 L 105.3 49.3 L 108.0 44.8 L 110.4 40.3 L 112.27605638504028 36.93873243331909 L 112.2 36.9 L 113.3 35.2 L 123.0 42.4 L 124.5 45.6 L 120.64895401000976 45.534728050231934 L 120.0 46.4 L 116.9 50.6 L 113.7 54.9 L 110.3 59.3 L 106.7 63.8 L 103.0 68.4 L 99.1 73.0 L 94.9 77.8 L 93.07689247131347 79.74741039276122 L 101.3 78.6 L 105.6 78.1 L 110.0 77.6 L 114.3 77.1 L 118.8 76.8 L 118.7 76.4 L 118.0 74.4 L 116.0 70.0 L 114.7 67.6 L 113.0 65.6 L 114.2 64.2 L 116.4 66.0 L 118.8 67.5 L 121.0 69.1 L 123.0 70.8 L 124.9 72.6 L 126.6 74.5 L 128.1 76.5 L 129.4 78.6 L 130.6 80.8 L 131.6 83.2 L 130.5 87.6 L 126.7 90.1 L 122.2 89.1 L 119.7 85.2 L 119.8 83.7 Z M 174.9 84.3 L 174.2 81.4 L 173.93125 80.325 L 172.9 80.7 L 168.6 82.4 L 164.3 83.8 L 155.9 86.4 L 151.8 87.5 L 147.8 88.6 L 143.8 89.6 L 140.14714603424073 90.53662919998169 L 138.4 94.2 L 136.0 91.5 L 132.4 79.8 L 134.4 79.6 L 138.2 79.4 L 141.94947805404664 79.11878910064698 L 144.2 75.1 L 147.2 70.0 L 150.2 64.8 L 153.3 59.4 L 153.79010286331177 58.51465291976929 L 149.4 59.1 L 145.7 56.4 L 145.1 54.6 L 144.3 52.7 L 143.3 50.9 L 142.1 48.9 L 140.8 47.0 L 139.3 44.9 L 137.6 42.9 L 135.8 40.8 L 133.8 38.6 L 131.4 36.7 L 132.3 35.2 L 135.1 36.5 L 138.0 37.5 L 140.7 38.7 L 142.6119999885559 39.65600004196167 L 143.6 37.3 L 145.0 34.3 L 147.6 28.5 L 150.0 22.7 L 151.1 19.9 L 152.1 17.0 L 152.75720643997192 15.159821891784668 L 152.6 15.1 L 153.6 13.1 L 163.9 19.4 L 165.7 22.5 L 161.56784496307372 22.856220245361328 L 160.2 24.8 L 158.2 27.5 L 156.2 30.1 L 154.1 32.6 L 151.8 35.1 L 149.5 37.5 L 147.1 39.8 L 145.38510637283326 41.25106382369995 L 145.8 41.5 L 148.1 43.0 L 150.3 44.6 L 152.4 46.4 L 154.3 48.3 L 156.0 50.3 L 156.45319147109984 53.69893617630005 L 159.4 48.1 L 162.5 42.2 L 165.6 36.0 L 168.7 29.7 L 168.75743036270143 29.730882358551025 L 169.3 28.7 L 179.3 35.4 L 181.0 38.6 L 177.27535152435303 38.79265422821045 L 175.6 41.6 L 171.8 47.5 L 168.0 53.3 L 164.2 58.7 L 160.4 64.0 L 156.5 69.0 L 152.6 73.8 L 148.6 78.3 L 148.13003215789794 78.75877809524536 L 150.3 78.6 L 154.5 78.4 L 158.8 78.1 L 163.2 77.8 L 167.7 77.6 L 172.3 77.5 L 173.13476266860962 77.46370601654053 L 172.6 75.8 L 171.5 72.9 L 170.4 69.9 L 167.8 63.9 L 166.0 61.0 L 167.4 59.8 L 169.9 62.2 L 172.6 64.5 L 175.0 66.9 L 177.2 69.5 L 179.3 72.2 L 181.2 74.9 L 183.0 77.8 L 184.6 80.7 L 186.1 83.7 L 187.4 86.8 L 186.7 91.3 L 183.0 94.1 L 178.5 93.4 L 175.7 89.8 L 175.4 87.0 Z " />
</g>
</svg>
