<svg xmlns="http://www.w3.org/2000/svg" xmlns:xlink="http://www.w3.org/1999/xlink" version="1.1" baseProfile="full" viewBox="0 0 200 200" width="200" height="200">
<g fill="black">
<path d="M 12.7 148.9 L 23.9 145.9 L 29.6 144.2 L 34.9 142.49322032928467 L 34.9 90.0 L 15.6 90.0 L 15.6 86.0 L 34.9 86.0 L 34.9 38.0 L 13.6 38.0 L 13.6 34.0 L 51.1 34.0 L 61.1 24.0 L 73.1 34.0 L 73.1 38.0 L 46.9 38.0 L 46.9 86.0 L 49.1 86.0 L 59.1 76.0 L 71.1 86.0 L 71.1 90.0 L 46.9 90.0 L 46.9 138.6295082092285 L 47.6 138.4 L 53.9 136.4 L 60.3 134.2 L 66.9 132.2 L 73.7 130.1 L 74.4 131.8 L 68.4 135.6 L 62.5 139.2 L 56.5 142.4 L 44.7 148.3 L 38.9 151.0 L 33.1 153.6 L 27.5 156.0 L 21.9 158.2 L 20.288524627685547 158.84459018707275 L 19.2 162.6 L 16.4 160.4 L 10.8 149.5 Z M 183.3 122.3 L 185.3 122.3 L 183.3 147.3 L 186.9 149.7 L 189.3 153.3 L 186.9 156.9 L 183.3 159.3 L 158.1 159.3 L 155.6 159.1 L 153.1 158.7 L 150.7 157.9 L 148.4 156.7 L 146.4 155.0 L 144.7 153.0 L 143.5 150.7 L 142.7 148.3 L 142.3 145.8 L 142.1 143.3 L 142.1 111.11219511032104 L 139.8 117.9 L 134.9 128.8 L 129.0 138.5 L 122.1 146.7 L 114.4 153.6 L 105.8 158.9 L 100.06036863327026 161.22027645111083 L 104.3 164.4 L 109.4 167.0 L 115.8 169.1 L 123.9 170.7 L 134.2 171.6 L 147.0 171.9 L 162.6 171.5 L 181.3 170.4 L 192.5 169.7 L 182.1 183.5 L 162.9 184.0 L 146.7 183.7 L 133.2 182.6 L 122.0 180.7 L 112.9 178.0 L 105.6 174.4 L 99.8 170.1 L 95.5 165.0 L 92.3 159.4 L 91.2458333015442 156.47708330154418 L 90.89743585586548 156.65128202438353 L 90.0 157.8 L 87.6 161.1 L 85.2 164.2 L 82.8 167.1 L 80.3 170.0 L 77.9 172.8 L 75.4 175.5 L 72.9 178.1 L 71.15175714492798 179.9210862159729 L 71.5 184.1 L 68.1 183.0 L 59.0 174.9 L 60.6 173.6 L 63.4 171.9 L 66.2 170.0 L 69.1 168.1 L 75.1 164.1 L 81.3 159.9 L 82.2 159.309375 L 82.2 109.0 L 62.1 109.0 L 62.1 105.0 L 82.2 105.0 L 88.2 100.0 L 99.2 109.0 L 94.2 113.0 L 94.2 155.0 L 94.00882349014282 155.09558820724487 L 95.8 157.1 L 98.15259561538696 159.39521522521972 L 103.8 155.7 L 110.9 149.5 L 117.2 142.4 L 122.6 134.3 L 127.2 125.1 L 131.1 114.8 L 134.1 103.3 L 134.89685039520265 98.9 L 122.1 98.9 L 122.1 110.9 L 110.1 116.9 L 110.1 70.4702127456665 L 106.7 75.1 L 101.7 81.3 L 96.3 87.1 L 94.8 86.1 L 98.6 79.1 L 102.2 72.2 L 105.7 65.4 L 109.0 58.4 L 110.1 55.83333330154419 L 110.1 53.8 L 110.81764707565307 54.15882349014282 L 112.0 51.4 L 114.9 44.3 L 117.4 37.2 L 119.8 29.9 L 121.8 22.5 L 123.44466962814332 16.00788288116455 L 123.4 16.0 L 124.1 13.4 L 135.3 18.1 L 137.6 20.9 L 134.02631578445434 21.921052646636962 L 132.7 25.9 L 130.27333335876466 32.4 L 151.6 32.4 L 157.6 27.4 L 168.6 36.4 L 163.6 39.4 L 161.02385320663453 40.47339448928833 L 160.6 41.2 L 159.2 43.7 L 157.7 46.2 L 156.1 48.7 L 154.4 51.3 L 152.6 54.0 L 150.7 56.6 L 148.6 59.3 L 148.28965520858765 59.8 L 165.8 59.8 L 171.8 54.8 L 182.8 63.8 L 177.8 67.8 L 177.8 98.9 L 165.8 104.9 L 165.8 98.9 L 154.1 98.9 L 154.1 143.3 L 154.2 144.5 L 154.3 145.4 L 154.5 146.0 L 154.7 146.4 L 154.9 146.5 L 155.0 146.7 L 155.4 146.9 L 156.0 147.1 L 156.9 147.2 L 158.1 147.3 L 177.3 147.3 Z M 163.8 130.5 L 163.3 128.0 L 162.6 125.4 L 161.8 123.0 L 160.9 120.5 L 158.9 115.7 L 157.7 113.2 L 156.1 111.0 L 157.3 109.7 L 159.5 111.5 L 162.0 113.1 L 164.2 115.0 L 166.3 117.0 L 168.3 119.2 L 170.1 121.6 L 171.9 124.1 L 173.5 126.8 L 174.9 129.6 L 176.2 132.5 L 175.6 137.1 L 172.0 139.9 L 167.5 139.3 L 164.7 135.7 L 164.3 133.1 Z M 122.1 63.8 L 122.1 94.9 L 135.6212598800659 94.9 L 136.4 90.6 L 137.8 76.7 L 138.23288593292236 63.8 Z M 150.2632911682129 63.8 L 149.2 77.8 L 147.0 92.4 L 146.42164182662964 94.9 L 165.8 94.9 L 165.8 63.8 Z M 76.7 73.9 L 75.2 71.5 L 73.6 69.2 L 71.9 66.9 L 70.1 64.6 L 68.2 62.4 L 66.2 60.1 L 64.0 58.2 L 64.9 56.7 L 67.7 57.9 L 70.6 59.0 L 73.5 60.4 L 76.2 62.0 L 78.9 63.7 L 81.5 65.7 L 84.0 67.8 L 86.4 70.1 L 88.7 72.6 L 90.9 75.2 L 91.7 79.7 L 89.1 83.5 L 84.6 84.2 L 80.8 81.6 L 78.2 76.4 Z M 128.64324321746827 36.4 L 126.8 40.8 L 123.4 48.1 L 119.7 55.1 L 118.12696628570556 57.81348314285278 L 122.1 59.8 L 145.75 59.8 L 146.3 58.2 L 147.0 54.9 L 148.4 48.7 L 149.8 42.9 L 150.4 40.2 L 150.9 37.5 L 151.15384616851807 36.4 Z M 85.2 41.1 L 83.9 38.6 L 82.6 36.2 L 81.1 33.8 L 79.5 31.4 L 77.8 29.0 L 76.0 26.7 L 74.1 24.3 L 71.9 22.3 L 72.9 20.7 L 75.7 22.2 L 78.6 23.5 L 81.4 25.0 L 84.1 26.7 L 86.7 28.6 L 89.1 30.7 L 91.5 32.9 L 93.7 35.3 L 95.8 37.8 L 97.8 40.4 L 98.3 45.0 L 95.4 48.6 L 90.9 49.0 L 87.3 46.2 L 86.3 43.6 Z " />
</g>
</svg>
