<svg xmlns="http://www.w3.org/2000/svg" xmlns:xlink="http://www.w3.org/1999/xlink" version="1.1" baseProfile="full" viewBox="0 0 200 200" width="200" height="200">
<g fill="black">
<path d="M 173.7 50.5 L 175.5 53.6 L 171.2207317352295 53.96890239715576 L 170.6 54.9 L 168.8 57.5 L 166.9 60.4 L 164.7 63.6 L 162.3 67.0 L 159.7 70.7 L 156.8 74.7 L 153.6 78.9 L 152.10666666030883 81.0 L 166.6 81.0 L 176.6 71.0 L 188.6 81.0 L 188.6 85.0 L 149.5 85.0 L 149.5 112.0 L 162.0 112.0 L 172.0 102.0 L 184.0 112.0 L 184.0 116.0 L 149.5 116.0 L 149.5 144.0 L 165.1 144.0 L 175.1 134.0 L 187.1 144.0 L 187.1 148.0 L 149.5 148.0 L 149.5 183.0 L 137.5 189.0 L 137.5 148.0 L 99.1 148.0 L 99.1 144.0 L 137.5 144.0 L 137.5 116.0 L 102.9 116.0 L 102.9 112.0 L 137.5 112.0 L 137.5 85.0 L 97.6 85.0 L 97.6 81.0 L 149.4057692527771 81.0 L 150.9 77.3 L 152.7 72.4 L 154.4 67.9 L 156.1 63.7 L 157.6 59.8 L 159.0 56.2 L 160.2 53.0 L 161.2 50.1 L 162.1 47.5 L 162.56465606689454 46.16411390304565 L 162.4 46.1 L 163.4 44.1 Z M 30.5 23.0 L 82.5 23.0 L 88.5 18.0 L 99.5 27.0 L 94.5 31.0 L 94.5 60.0 L 82.5 66.0 L 82.5 56.0 L 30.5 56.0 L 30.5 80.4 L 72.8 80.4 L 82.8 70.4 L 94.8 80.4 L 94.8 84.4 L 68.5 84.4 L 68.5 128.7 L 72.71818180084229 128.7 L 80.9 119.7 L 90.9 128.7 L 90.9 132.7 L 68.5 132.7 L 68.5 177.7 L 77.0 177.7 L 85.71428575515748 168.98571424484254 L 84.4 168.9 L 81.3 165.6 L 80.7 163.0 L 80.1 160.5 L 79.4 158.0 L 78.7 155.6 L 77.9 153.2 L 77.0 150.9 L 76.1 148.5 L 75.1 146.2 L 74.1 143.8 L 72.7 141.8 L 74.0 140.6 L 76.0 142.2 L 78.2 143.7 L 80.3 145.5 L 82.3 147.3 L 86.1 151.5 L 87.8 153.8 L 89.5 156.3 L 91.1 158.8 L 92.5 161.5 L 92.3 166.0 L 89.0 169.2 L 88.78301887512207 169.18584909439087 L 99.0 177.7 L 99.0 181.7 L 25.9 181.7 L 25.9 177.7 L 56.5 177.7 L 56.5 132.7 L 34.0 132.7 L 34.0 128.7 L 56.5 128.7 L 56.5 84.4 L 30.5 84.4 L 30.5 87.0 L 30.0 99.6 L 29.3 111.6 L 28.3 123.0 L 27.1 133.8 L 25.5 144.0 L 23.7 153.6 L 21.5 162.5 L 19.1 170.8 L 16.1 178.4 L 12.8 185.3 L 11.1 184.6 L 12.5 177.3 L 13.8 169.5 L 15.1 161.2 L 16.2 152.3 L 17.1 142.9 L 17.8 132.9 L 18.3 122.3 L 18.6 111.1 L 18.6 99.3 L 18.5 87.0 L 18.5 17.0 Z M 122.8 67.5 L 122.4 65.1 L 121.7 62.6 L 120.9 60.0 L 119.9 57.4 L 118.7 54.7 L 117.3 51.9 L 115.7 49.0 L 113.7 46.3 L 115.0 45.0 L 117.6 47.2 L 120.4 49.3 L 123.0 51.5 L 125.3 53.8 L 127.4 56.2 L 129.4 58.8 L 131.1 61.4 L 132.6 64.1 L 133.9 67.0 L 135.0 69.9 L 134.0 74.3 L 130.2 76.9 L 125.8 75.9 L 123.2 72.1 L 123.1 69.8 Z M 30.5 27.0 L 30.5 52.0 L 82.5 52.0 L 82.5 27.0 Z M 102.1 39.0 L 137.5 39.0 L 137.5 12.0 L 149.5 14.0 L 152.5 16.0 L 149.5 17.8 L 149.5 39.0 L 162.8 39.0 L 172.8 29.0 L 184.8 39.0 L 184.8 43.0 L 102.1 43.0 Z " />
</g>
</svg>
