<svg xmlns="http://www.w3.org/2000/svg" xmlns:xlink="http://www.w3.org/1999/xlink" version="1.1" baseProfile="full" viewBox="0 0 200 200" width="200" height="200">
<g fill="black">
<path d="M 163.9 175.7 L 157.8 170.0 L 152.91954641342164 163.94462242126465 L 148.5 169.4 L 141.6 176.1 L 134.0 181.7 L 125.9 185.9 L 117.3 188.8 L 116.7 187.1 L 124.1 182.6 L 130.9 177.3 L 137.1 171.4 L 142.7 164.6 L 147.8 156.9 L 148.08232402801514 156.35417346954347 L 147.8 155.9 L 143.9 147.6 L 140.8 138.4 L 138.4 128.5 L 136.8 117.7 L 136.24655170440673 107.0 L 129.7 107.0 L 129.7 103.0 L 165.2 103.0 L 171.2 98.0 L 182.2 107.0 L 177.2 110.0 L 176.02804536819457 110.48831443786621 L 173.9 119.2 L 170.1 131.4 L 165.7 142.5 L 160.6 152.5 L 158.94880952835084 155.10714282989503 L 160.4 157.0 L 165.5 162.1 L 170.9 166.1 L 176.7 169.4 L 182.9 171.7 L 190.0 174.3 L 178.4 184.2 L 170.8 180.4 Z M 67.8 172.6 L 72.9 171.8 L 78.2 170.8 L 83.7 169.7 L 89.3 168.6 L 91.1 168.22758617401124 L 91.1 136.1 L 70.6 136.1 L 70.6 132.1 L 91.1 132.1 L 91.1 103.3 L 103.1 105.3 L 106.1 107.3 L 103.1 109.1 L 103.1 132.1 L 107.8777777671814 132.1 L 114.1 125.1 L 122.1 132.1 L 122.1 136.1 L 103.1 136.1 L 103.1 165.65245904922486 L 107.1 164.8 L 113.4 163.5 L 119.8 162.3 L 126.5 161.1 L 127.1 162.8 L 121.0 165.9 L 115.0 168.6 L 109.0 171.1 L 103.2 173.4 L 97.4 175.5 L 91.8 177.5 L 86.3 179.4 L 80.9 181.2 L 75.6 182.8 L 74.47101964950562 183.12566738128663 L 73.1 186.8 L 70.4 184.3 L 65.8 173.1 Z M 12.8 149.0 L 17.6 147.5 L 22.6 145.9 L 27.6 144.2 L 31.9 142.7115385055542 L 31.9 90.0 L 15.6 90.0 L 15.6 86.0 L 31.9 86.0 L 31.9 38.0 L 13.9 38.0 L 13.9 34.0 L 44.1 34.0 L 54.1 24.0 L 66.1 34.0 L 66.1 38.0 L 43.9 38.0 L 43.9 86.0 L 46.21818180084229 86.0 L 54.4 77.0 L 64.4 86.0 L 64.4 90.0 L 43.9 90.0 L 43.9 138.3125 L 54.6 134.3 L 60.5 132.2 L 66.5 130.2 L 67.4 131.7 L 62.2 135.6 L 57.0 139.1 L 51.8 142.3 L 46.7 145.4 L 43.9 146.93725490570068 L 43.9 147.0 L 43.78571424484253 147.0 L 41.6 148.2 L 36.5 150.9 L 31.5 153.5 L 26.6 155.9 L 21.7 158.1 L 20.742557430267333 158.51888113021852 L 19.8 162.4 L 16.9 160.2 L 10.9 149.7 Z M 138.22432432174682 107.0 L 140.9 116.9 L 144.1 126.9 L 147.6 136.0 L 151.5 144.0 L 153.03000860214235 146.49071159362794 L 156.4 138.6 L 159.9 128.0 L 162.9 116.4 L 164.69047622680665 107.0 Z M 145.2 26.0 L 159.2 26.0 L 165.2 21.0 L 176.2 30.0 L 171.2 34.0 L 171.2 73.0 L 171.1 74.2 L 171.2 75.1 L 171.3 75.8 L 171.5 76.6 L 171.7 76.9 L 172.1 77.2 L 172.8 77.5 L 173.8 77.8 L 175.2 78.0 L 177.9 78.0 L 182.9 61.0 L 184.9 61.0 L 182.9 78.0 L 185.9 80.0 L 187.9 83.0 L 185.9 86.0 L 182.9 88.0 L 175.2 88.0 L 172.7 87.9 L 170.3 87.6 L 168.0 86.9 L 165.8 85.8 L 163.8 84.3 L 162.1 82.5 L 160.8 80.3 L 159.9 78.0 L 159.4 75.5 L 159.2 73.0 L 159.2 30.0 L 145.2 30.0 L 145.2 52.0 L 144.7 57.8 L 143.9 63.5 L 142.7 68.9 L 141.1 74.2 L 139.1 79.3 L 136.7 84.1 L 133.9 88.7 L 130.8 92.9 L 127.2 96.9 L 123.5 100.23000001907349 L 123.5 107.0 L 112.5 112.5 L 112.5 101.0 L 82.2 101.0 L 82.2 113.0 L 70.2 119.0 L 70.2 33.0 L 78.96000003814697 34.46000003814697 L 79.3 34.0 L 81.1 31.7 L 83.1 29.5 L 85.0 27.2 L 87.1 24.9 L 91.3 20.1 L 95.04566354751587 15.843564128875732 L 95.0 15.8 L 95.38571424484253 15.45714282989502 L 95.7 15.1 L 95.73862066268921 15.14344825744629 L 95.9 15.0 L 103.7 24.1 L 104.2 27.7 L 100.340740776062 26.45952377319336 L 95.3 29.7 L 89.9 33.1 L 87.2 34.6 L 84.5 36.0 L 84.04285717010498 36.22857141494751 L 85.2 37.0 L 82.2 38.8 L 82.2 65.0 L 85.3 65.0 L 89.8 59.0 L 95.8 65.0 L 95.8 69.0 L 82.2 69.0 L 82.2 97.0 L 112.5 97.0 L 112.5 69.0 L 101.2 69.0 L 101.2 65.0 L 112.5 65.0 L 112.5 38.0 L 101.2 38.0 L 101.2 34.0 L 112.5 34.0 L 118.0 29.0 L 128.5 38.0 L 123.5 41.5 L 123.5 96.45600004196167 L 124.4 94.8 L 126.6 90.3 L 128.6 85.8 L 130.3 81.3 L 131.7 76.6 L 132.8 71.9 L 133.6 67.1 L 134.1 62.2 L 134.3 57.1 L 134.2 52.0 L 134.2 20.5 Z " />
</g>
</svg>
