<svg xmlns="http://www.w3.org/2000/svg" xmlns:xlink="http://www.w3.org/1999/xlink" version="1.1" baseProfile="full" viewBox="0 0 200 200" width="200" height="200">
<g fill="black">
<path d="M 172.9 58.1 L 175.0 61.0 L 171.04481077194214 61.681929206848146 L 169.9 63.9 L 168.1 67.3 L 166.1 71.0 L 163.8 75.1 L 161.4 79.5 L 158.8 84.3 L 155.8 89.3 L 152.6 94.7 L 150.4785714149475 98.0 L 166.0 98.0 L 176.0 88.0 L 188.0 98.0 L 188.0 102.0 L 148.0 102.0 L 148.0 137.0 L 161.3 137.0 L 171.3 127.0 L 183.3 137.0 L 183.3 141.0 L 148.0 141.0 L 148.0 183.0 L 136.0 189.0 L 136.0 141.0 L 100.6 141.0 L 100.6 137.0 L 136.0 137.0 L 136.0 102.0 L 95.2 102.0 L 95.2 98.0 L 147.85 98.0 L 149.2 93.2 L 151.1 87.2 L 152.9 81.7 L 154.6 76.5 L 156.1 71.8 L 157.6 67.4 L 158.9 63.4 L 160.0 59.8 L 160.9 56.5 L 161.43942861557008 54.61199998855591 L 161.4 54.6 L 161.55882349014283 54.194117641448976 L 161.7 53.7 L 161.7452220916748 53.71776580810547 L 162.3 52.3 Z M 16.2 171.9 L 23.9 171.2 L 31.7 170.4 L 39.7 169.6 L 47.9 168.7 L 49.0 168.56904764175414 L 49.0 143.0 L 20.0 143.0 L 20.0 139.0 L 49.0 139.0 L 49.0 115.0 L 16.0 115.0 L 16.0 111.0 L 78.81818180084228 111.0 L 87.0 102.0 L 97.0 111.0 L 97.0 115.0 L 61.0 115.0 L 61.0 139.0 L 71.0 139.0 L 81.0 129.0 L 93.0 139.0 L 93.0 143.0 L 61.0 143.0 L 61.0 167.1470588684082 L 64.8 166.7 L 73.5 165.7 L 82.4 164.7 L 91.5 163.8 L 100.8 163.1 L 101.1 164.8 L 92.2 167.6 L 83.4 170.0 L 74.6 172.2 L 66.1 174.2 L 57.6 176.1 L 49.4 177.9 L 41.2 179.5 L 33.2 181.0 L 25.4 182.4 L 21.79585256576538 183.05529956817628 L 20.1 186.5 L 17.7 183.8 L 14.2 172.1 Z M 77.0 46.0 L 77.0 24.0 L 38.0 24.0 L 38.0 44.0 L 37.85714282989502 46.0 Z M 50.7 63.8 L 79.3 63.8 L 85.3 58.8 L 96.3 67.8 L 91.3 71.8 L 91.3 93.1 L 79.3 99.1 L 79.3 93.1 L 50.7 93.1 L 50.7 96.1 L 38.7 102.1 L 38.7 57.8 Z M 120.9 81.6 L 120.4 78.5 L 119.7 75.3 L 118.8 72.1 L 117.7 68.8 L 116.4 65.5 L 115.0 62.1 L 113.4 58.7 L 111.5 55.3 L 112.9 54.1 L 115.8 56.9 L 118.7 59.6 L 121.3 62.5 L 123.7 65.6 L 125.8 68.7 L 127.8 72.0 L 129.5 75.4 L 131.0 78.8 L 132.3 82.4 L 133.4 86.1 L 132.2 90.5 L 128.4 92.9 L 123.9 91.8 L 121.5 87.9 L 121.3 84.8 Z M 50.7 67.8 L 50.7 89.1 L 79.3 89.1 L 79.3 67.8 Z M 99.8 45.0 L 136.0 45.0 L 136.0 12.0 L 148.0 14.0 L 151.0 16.0 L 148.0 17.8 L 148.0 45.0 L 162.1 45.0 L 172.1 35.0 L 184.1 45.0 L 184.1 49.0 L 99.8 49.0 Z M 38.0 20.0 L 77.0 20.0 L 83.0 15.0 L 94.0 24.0 L 89.0 28.0 L 89.0 50.0 L 77.0 56.0 L 77.0 50.0 L 37.57142858505249 50.0 L 37.4 52.4 L 36.5 60.5 L 35.1 68.2 L 33.3 75.4 L 31.0 82.2 L 28.3 88.6 L 25.1 94.4 L 21.4 99.8 L 17.3 104.5 L 12.6 108.6 L 11.3 107.3 L 14.2 102.2 L 16.9 96.9 L 19.2 91.5 L 21.2 85.7 L 22.9 79.7 L 24.2 73.3 L 25.2 66.5 L 25.8 59.4 L 26.1 51.9 L 26.0 44.0 L 26.0 14.0 Z " />
</g>
</svg>
