<svg xmlns="http://www.w3.org/2000/svg" xmlns:xlink="http://www.w3.org/1999/xlink" version="1.1" baseProfile="full" viewBox="0 0 200 200" width="200" height="200">
<g fill="black">
<path d="M 149.13957757949828 92.71625347137451 L 149.7511736869812 109.0 L 167.8181818008423 109.0 L 171.86666669845582 104.54666662216187 L 168.1 105.3 L 164.3 102.8 L 164.0 101.6 L 163.6 100.4 L 163.0 99.2 L 162.3 97.9 L 161.5 96.6 L 160.4 95.2 L 159.3 93.9 L 156.4 91.0 L 154.6 90.1 L 155.2 88.4 L 157.2 89.1 L 159.4 89.3 L 161.6 89.6 L 163.6 90.1 L 165.6 90.8 L 167.5 91.5 L 169.3 92.5 L 171.0 93.5 L 172.7 94.8 L 174.3 96.1 L 175.1 100.6 L 174.1714285850525 102.01142854690552 L 176.0 100.0 L 186.0 109.0 L 186.0 113.0 L 150.15084743499756 113.0 L 152.1 128.0 L 155.6 142.3 L 158.25988969802856 149.51970052719116 L 161.2 144.5 L 164.9 136.9 L 167.65010080337524 129.71425285339356 L 167.6 129.7 L 168.5 127.4 L 179.2 133.0 L 181.3 135.9 L 177.50790796279907 136.63180723190308 L 175.1 141.8 L 170.5 149.9 L 165.2 157.4 L 163.12933511734008 159.79197492599488 L 164.5 162.3 L 169.2 168.6 L 173.7 172.9 L 176.71333332061766 174.90888891220092 L 182.0 152.0 L 184.0 152.0 L 182.07446804046631 177.0319149017334 L 186.2 178.8 L 188.0 183.0 L 186.2 187.2 L 182.0 189.0 L 177.2 188.2 L 172.0 186.1 L 166.3 182.3 L 160.3 176.6 L 154.4 168.8 L 154.36735906600953 168.73946590423583 L 153.0 170.0 L 146.1 175.3 L 138.6 179.7 L 130.6 183.3 L 122.1 186.0 L 113.2 187.8 L 112.7 186.1 L 120.8 182.4 L 128.3 178.4 L 135.2 174.1 L 141.5 169.2 L 147.2 163.8 L 149.99433851242065 160.62950048446655 L 148.9 158.6 L 144.1 145.8 L 140.3 130.2 L 138.0248677253723 113.0 L 106.64761905670166 113.0 L 106.6 113.1 L 104.2 118.0 L 101.6 122.9 L 98.7 127.6 L 97.71702127456665 129.0 L 117.0 129.0 L 123.0 124.0 L 134.0 133.0 L 129.0 136.0 L 126.83471879959106 136.9022005081177 L 124.8 141.4 L 120.5 149.3 L 115.5 156.6 L 109.8 163.2 L 103.6 169.3 L 96.9 174.6 L 89.5 179.3 L 81.7 183.2 L 73.2 186.4 L 64.2 188.8 L 63.7 187.1 L 71.7 182.9 L 79.1 178.5 L 85.9 173.8 L 92.1 168.7 L 97.8 163.1 L 101.6187261581421 158.59390306472778 L 101.6 158.6 L 97.5 156.6 L 97.0 155.5 L 96.4 154.4 L 95.5 153.1 L 94.4 151.7 L 93.1 150.3 L 91.6 148.9 L 90.0 147.4 L 88.1 145.9 L 86.0 144.3 L 85.52558135986328 144.06279067993165 L 84.0 145.7 L 79.6 149.9 L 74.8 153.9 L 69.6 157.6 L 68.3 156.3 L 72.1 151.2 L 75.6 146.3 L 79.0 141.5 L 82.1 136.7 L 85.0 132.0 L 87.6 127.4 L 89.9 122.7 L 92.0 118.1 L 93.8 113.5 L 93.93999996185303 113.0 L 74.0 113.0 L 74.0 109.0 L 137.71748876571655 109.0 L 137.03576755523682 89.9970193862915 L 137.0 90.0 L 137.0 86.6 L 149.0 89.0 L 152.0 91.0 Z M 13.8 148.9 L 19.7 147.4 L 25.7 145.8 L 31.8 144.1 L 37.6 142.442857170105 L 37.6 90.0 L 16.6 90.0 L 16.6 86.0 L 37.6 86.0 L 37.6 38.0 L 14.5 38.0 L 14.5 34.0 L 56.0 34.0 L 66.0 24.0 L 78.0 34.0 L 78.0 38.0 L 49.6 38.0 L 49.6 86.0 L 53.9 86.0 L 63.9 76.0 L 75.9 86.0 L 75.9 90.0 L 49.6 90.0 L 49.6 138.8307692527771 L 51.0 138.4 L 57.6 136.3 L 64.4 134.2 L 71.4 132.1 L 78.6 130.1 L 79.4 131.8 L 72.9 135.6 L 66.5 139.2 L 60.1 142.4 L 53.7 145.5 L 47.4 148.4 L 41.2 151.1 L 35.1 153.6 L 29.0 156.0 L 23.1 158.3 L 21.125206565856935 159.0028925895691 L 20.0 162.7 L 17.2 160.4 L 11.8 149.5 Z M 94.86739130020142 133.0 L 91.9 136.9 L 88.1 141.3 L 87.2180778503418 142.24645309448243 L 89.5 142.5 L 92.1 142.9 L 94.5 143.5 L 96.7 144.1 L 98.9 144.8 L 101.0 145.6 L 102.9 146.5 L 106.5 148.7 L 107.17824859619141 150.83163843154907 L 107.2 150.8 L 111.1 144.0 L 114.5 136.7 L 115.82820510864258 133.0 Z M 98.2 90.3 L 86.2 96.3 L 86.2 56.9 L 83.2 59.9 L 77.1 65.3 L 70.6 70.6 L 69.3 69.3 L 74.4 62.7 L 79.2 56.3 L 83.7 50.2 L 86.2 46.62857141494751 L 86.2 46.0 L 86.5259259223938 46.16296300888062 L 87.9 44.2 L 91.7 38.4 L 95.1 32.8 L 98.2 27.3 L 100.8 21.9 L 103.1 16.7 L 104.65794773101807 12.51814022064209 L 104.6 12.5 L 105.5 10.3 L 116.1 16.1 L 118.2 19.1 L 114.33267726898194 19.70010175704956 L 113.4 21.6 L 110.3 27.0 L 109.66363639831543 28.0 L 140.0 28.0 L 140.4800000190735 27.6 L 141.0 26.6 L 141.37525081634521 26.853957653045654 L 146.0 23.0 L 157.0 32.0 L 152.0 35.0 L 147.80377359390258 36.74842767715454 L 146.8 37.8 L 144.6 40.0 L 142.3 42.2 L 139.9 44.4 L 137.4 46.5 L 134.8 48.6 L 132.1 50.6 L 130.0368420600891 52.0 L 167.7 52.0 L 173.7 47.0 L 184.7 56.0 L 179.7 60.0 L 179.7 83.3 L 167.7 89.3 L 167.7 83.3 L 98.2 83.3 Z M 98.2 56.0 L 98.2 79.3 L 113.4 79.3 L 113.4 56.0 Z M 125.4 56.0 L 125.4 79.3 L 140.5 79.3 L 140.5 56.0 Z M 152.5 56.0 L 152.5 79.3 L 167.7 79.3 L 167.7 56.0 Z M 107.11818180084228 32.0 L 106.8 32.5 L 102.8 37.9 L 98.5 43.4 L 93.8 48.9 L 93.22981367111205 49.51490678787231 L 98.2 52.0 L 126.26296300888062 52.0 L 127.3 50.6 L 129.0 47.7 L 130.8 44.9 L 134.0 39.5 L 137.0 34.3 L 138.2384614944458 32.0 Z " />
</g>
</svg>
