<svg xmlns="http://www.w3.org/2000/svg" xmlns:xlink="http://www.w3.org/1999/xlink" version="1.1" baseProfile="full" viewBox="0 0 200 200" width="200" height="200">
<g fill="black">
<path d="M 168.7 181.2 L 163.4 178.0 L 158.3 174.4 L 153.5 170.6 L 148.8 166.4 L 144.4 162.0 L 140.2 157.1 L 136.4 152.0 L 135.0 149.6529411315918 L 135.0 183.0 L 123.0 189.0 L 123.0 156.07450981140136 L 119.8 159.4 L 114.5 164.3 L 108.8 168.8 L 102.8 173.0 L 96.6 176.8 L 90.0 180.2 L 83.2 183.2 L 76.0 185.7 L 68.6 187.7 L 67.9 186.0 L 74.5 182.3 L 80.8 178.4 L 86.8 174.5 L 92.4 170.4 L 97.8 166.2 L 102.8 161.7 L 107.6 157.0 L 112.0 152.0 L 115.94230766296387 147.0 L 71.0 147.0 L 71.0 143.0 L 123.0 143.0 L 123.0 130.6 L 99.1 130.6 L 87.1 136.6 L 87.1 87.8 L 99.1 93.8 L 158.8 93.8 L 164.8 88.8 L 173.6547393798828 96.04478673934936 L 173.9 95.2 L 174.3 92.1 L 174.7 89.2 L 175.1 86.6 L 175.4 84.2 L 175.4 79.6 L 83.54318180084229 79.6 L 83.7 81.9 L 83.7 86.0 L 83.5 89.8 L 82.9 93.3 L 82.1 96.7 L 80.8 99.7 L 79.2 102.6 L 77.1 105.1 L 72.6 106.3 L 68.6 104.1 L 67.4 99.7 L 69.6 95.7 L 70.8 95.1 L 72.1 94.1 L 73.4 92.6 L 74.7 90.5 L 75.9 87.9 L 77.1 84.8 L 78.1 81.3 L 79.1 77.2 L 80.0 72.7 L 80.5 67.8 L 82.3 67.8 L 82.8 72.8 L 83.15744676589966 75.6 L 175.4 75.6 L 181.4 70.6 L 192.4 79.6 L 187.4 82.6 L 183.91386861801146 84.05255470275878 L 183.4 84.8 L 182.2 86.7 L 180.9 88.7 L 179.4 91.0 L 177.8 93.4 L 176.1 96.0 L 175.37419357299805 97.45161294937134 L 175.8 97.8 L 174.8 98.6 L 174.6 99.0 L 174.40606060028077 98.91515150070191 L 170.8 101.8 L 170.8 130.6 L 158.8 136.6 L 158.8 130.6 L 135.0 130.6 L 135.0 143.0 L 168.71818180084227 143.0 L 176.9 134.0 L 186.9 143.0 L 186.9 147.0 L 136.75384616851807 147.0 L 139.5 149.1 L 144.4 152.9 L 149.2 156.6 L 154.0 159.9 L 158.9 163.0 L 163.9 165.8 L 168.9 168.4 L 173.9 170.6 L 179.1 172.6 L 184.3 174.3 L 191.4 176.8 L 179.8 186.7 L 174.2 184.1 Z M 12.7 148.9 L 23.9 145.9 L 29.6 144.2 L 34.9 142.49322032928467 L 34.9 90.0 L 15.6 90.0 L 15.6 86.0 L 34.9 86.0 L 34.9 38.0 L 13.6 38.0 L 13.6 34.0 L 51.1 34.0 L 61.1 24.0 L 73.1 34.0 L 73.1 38.0 L 46.9 38.0 L 46.9 86.0 L 49.1 86.0 L 59.1 76.0 L 71.1 86.0 L 71.1 90.0 L 46.9 90.0 L 46.9 138.6295082092285 L 47.6 138.4 L 53.9 136.4 L 60.3 134.2 L 66.9 132.2 L 73.7 130.1 L 74.4 131.8 L 68.4 135.6 L 62.5 139.2 L 56.5 142.4 L 44.7 148.3 L 38.9 151.0 L 33.1 153.6 L 27.5 156.0 L 21.9 158.2 L 20.288524627685547 158.84459018707275 L 19.2 162.6 L 16.4 160.4 L 10.8 149.5 Z M 99.1 114.2 L 99.1 126.6 L 123.0 126.6 L 123.0 114.2 Z M 135.0 114.2 L 135.0 126.6 L 158.8 126.6 L 158.8 114.2 Z M 99.1 97.8 L 99.1 110.2 L 123.0 110.2 L 123.0 97.8 Z M 135.0 97.8 L 135.0 110.2 L 158.8 110.2 L 158.8 97.8 Z M 115.0 18.2 L 117.2 21.1 L 113.75486459732056 21.865585613250733 L 112.58825397491455 25.3 L 151.9 25.3 L 157.9 20.3 L 168.9 29.3 L 163.9 32.3 L 162.03340826034545 33.07774658203125 L 156.2464831352234 59.0 L 173.37777776718139 59.0 L 179.6 52.0 L 187.6 59.0 L 187.6 63.0 L 72.4 63.0 L 72.4 59.0 L 143.99258155822753 59.0 L 146.72640953063964 47.9 L 104.91142854690551 47.9 L 104.3 49.7 L 91.0 51.5 L 104.3 12.5 Z M 111.22952384948731 29.3 L 106.2701587677002 43.9 L 147.71157274246215 43.9 L 151.30741844177246 29.3 Z " />
</g>
</svg>
