<svg xmlns="http://www.w3.org/2000/svg" xmlns:xlink="http://www.w3.org/1999/xlink" version="1.1" baseProfile="full" viewBox="0 0 200 200" width="200" height="200">
<g fill="black">
<path d="M 139.7 170.3 L 138.3 168.9 L 136.7 167.4 L 134.9 165.8 L 132.9 164.2 L 130.6 162.5 L 128.2 160.7 L 125.6 158.8 L 122.6 157.4 L 123.2 155.7 L 126.5 156.6 L 129.7 157.1 L 132.8 157.7 L 135.6 158.5 L 138.4 159.2 L 140.9 160.1 L 143.3 161.0 L 145.6 161.9 L 147.7 163.0 L 149.7 164.1 L 151.6 168.2 L 150.2 172.6 L 146.44210529327393 174.3 L 164.0 174.3 L 174.0 164.3 L 186.0 174.3 L 186.0 178.3 L 14.0 178.3 L 14.0 174.3 L 94.0 174.3 L 94.0 151.9 L 43.0 151.9 L 43.0 147.9 L 94.0 147.9 L 94.0 130.6 L 37.0 130.6 L 37.0 126.6 L 148.7777777671814 126.6 L 155.0 119.6 L 163.0 126.6 L 163.0 130.6 L 106.0 130.6 L 106.0 147.9 L 138.8181818008423 147.9 L 147.0 138.9 L 157.0 147.9 L 157.0 151.9 L 106.0 151.9 L 106.0 174.3 L 145.42666664123536 174.3 L 141.7 173.0 L 140.8 171.7 Z M 104.0 31.0 L 138.0 31.0 L 138.0 14.9 L 150.0 16.9 L 153.0 18.9 L 150.0 20.7 L 150.0 31.0 L 161.9 31.0 L 171.9 21.0 L 183.9 31.0 L 183.9 35.0 L 165.5506329536438 35.0 L 172.5 41.1 L 173.7 44.5 L 168.9590763092041 43.92781953811645 L 167.9 44.8 L 166.0 46.4 L 163.9 48.1 L 161.6 50.0 L 159.1 52.0 L 156.4 54.2 L 153.4 56.4 L 153.192857170105 56.6 L 169.4181818008423 56.6 L 177.6 47.6 L 187.6 56.6 L 187.6 60.6 L 150.0 60.6 L 150.0 75.5 L 165.01818180084229 75.5 L 173.2 66.5 L 183.2 75.5 L 183.2 79.5 L 150.0 79.5 L 150.0 95.0 L 164.1 95.0 L 174.1 85.0 L 186.1 95.0 L 186.1 99.0 L 150.0 99.0 L 150.0 118.4 L 138.0 124.4 L 138.0 99.0 L 101.0 99.0 L 101.0 95.0 L 138.0 95.0 L 138.0 79.5 L 104.7 79.5 L 104.7 75.5 L 138.0 75.5 L 138.0 60.6 L 99.6 60.6 L 99.6 56.6 L 150.20625 56.6 L 151.5 54.8 L 153.3 51.5 L 155.1 48.5 L 156.7 45.8 L 158.1 43.2 L 159.4 40.9 L 160.6 38.8 L 161.6 36.9 L 162.4 35.2 L 162.4800000190735 35.0 L 104.0 35.0 Z M 50.5 95.5 L 78.5 95.5 L 84.5 90.5 L 95.5 99.5 L 90.5 103.5 L 90.5 115.9 L 78.5 121.9 L 78.5 115.9 L 50.5 115.9 L 38.5 121.9 L 38.5 89.5 Z M 33.3 21.9 L 85.8 21.9 L 91.8 16.9 L 102.8 25.9 L 97.8 29.9 L 97.8 43.0 L 86.77142858505249 48.51428575515747 L 89.2 50.7 L 89.2 54.7 L 39.8 54.7 L 39.8 50.7 L 71.01818180084229 50.7 L 78.01818180084229 43.0 L 33.3 43.0 L 33.3 60.4 L 32.8 68.0 L 32.1 75.2 L 30.9 82.1 L 29.5 88.6 L 27.6 94.7 L 25.5 100.4 L 23.0 105.7 L 20.0 110.6 L 16.7 114.9 L 12.9 118.6 L 11.5 117.5 L 13.5 112.9 L 15.3 108.1 L 16.9 103.2 L 18.3 98.0 L 19.4 92.6 L 20.3 86.8 L 21.0 80.7 L 21.4 74.3 L 21.5 67.5 L 21.3 60.4 L 21.3 15.9 Z M 50.5 99.5 L 50.5 111.9 L 78.5 111.9 L 78.5 99.5 Z M 94.9 61.9 L 94.9 65.9 L 79.53333330154419 65.9 L 88.2 73.7 L 88.2 77.7 L 80.86666669845582 77.7 L 88.2 84.3 L 88.2 88.3 L 40.8 88.3 L 40.8 84.3 L 70.01818180084229 84.3 L 76.01818180084229 77.7 L 40.8 77.7 L 40.8 73.7 L 70.01818180084229 73.7 L 77.10909090042114 65.9 L 34.1 65.9 L 34.1 61.9 L 84.4 61.9 L 88.9 55.9 Z M 124.1 50.0 L 123.9 48.7 L 123.4 47.3 L 122.7 45.7 L 121.7 44.0 L 120.5 42.2 L 119.2 40.3 L 117.6 38.3 L 115.5 36.7 L 116.4 35.2 L 118.8 36.5 L 121.3 37.4 L 123.7 38.4 L 125.8 39.5 L 127.8 40.7 L 129.7 42.0 L 131.4 43.4 L 132.9 44.9 L 134.3 46.6 L 135.5 48.5 L 135.0 53.0 L 131.5 56.0 L 127.0 55.5 L 124.0 52.0 L 124.2 51.1 Z M 80.6444444656372 43.0 L 85.8 47.63999996185303 L 85.8 43.0 Z M 33.3 25.9 L 33.3 39.0 L 85.8 39.0 L 85.8 25.9 Z " />
</g>
</svg>
