<svg xmlns="http://www.w3.org/2000/svg" xmlns:xlink="http://www.w3.org/1999/xlink" version="1.1" baseProfile="full" viewBox="0 0 200 200" width="200" height="200">
<g fill="black">
<path d="M 130.1 153.6 L 166.7 153.6 L 172.7 148.6 L 183.7 157.6 L 178.7 161.6 L 178.7 180.7 L 166.7 186.7 L 166.7 178.7 L 130.1 178.7 L 130.1 181.7 L 118.1 187.7 L 118.1 147.6 Z M 130.1 157.6 L 130.1 174.7 L 166.7 174.7 L 166.7 157.6 Z M 177.2 139.4 L 177.2 143.4 L 119.6 143.4 L 119.6 139.4 L 162.9777777671814 139.4 L 169.2 132.4 Z M 177.2 125.1 L 177.2 129.1 L 119.6 129.1 L 119.6 125.1 L 162.9777777671814 125.1 L 169.2 118.1 Z M 185.3 109.7 L 185.3 113.7 L 111.5 113.7 L 111.5 109.7 L 171.0777777671814 109.7 L 177.3 102.7 Z M 172.7 95.5 L 172.7 99.5 L 124.1 99.5 L 124.1 95.5 L 154.51818180084229 95.5 L 162.7 86.5 Z M 110.0 58.0 L 110.0 90.7675675392151 L 113.2 88.0 L 116.4 84.7 L 119.4 81.4 L 122.0 78.0 L 124.4 74.4 L 126.4 70.8 L 128.2 67.0 L 129.6 63.0 L 130.8 58.8 L 130.942857170105 58.0 Z M 182.6 66.0 L 184.6 66.0 L 182.6 75.0 L 185.0 76.6 L 186.6 79.0 L 185.0 81.4 L 182.6 83.0 L 161.4 83.0 L 159.1 82.8 L 156.8 82.3 L 154.7 81.3 L 152.7 80.0 L 151.0 78.2 L 149.7 76.2 L 148.7 73.9 L 148.1 71.5 L 147.8 69.0 L 147.8 58.0 L 143.1840000152588 58.0 L 141.6 62.4 L 139.4 67.1 L 136.9 71.6 L 134.1 75.7 L 130.9 79.5 L 127.4 82.9 L 123.6 86.0 L 119.5 88.7 L 115.1 90.9 L 110.4 92.7 L 110.0 92.03333330154419 L 110.0 108.0 L 109.89308757781983 108.16036863327027 L 109.4 119.6 L 108.4 130.4 L 107.2 140.5 L 105.6 149.8 L 103.6 158.3 L 101.3 166.1 L 98.6 173.0 L 95.4 179.1 L 91.9 184.3 L 87.9 188.5 L 86.4 187.4 L 88.6 182.4 L 90.37600002288818 177.5159999847412 L 87.7 179.3 L 77.0 179.3 L 74.4 179.2 L 71.9 178.7 L 69.5 177.9 L 67.3 176.7 L 65.2 175.0 L 63.6 173.0 L 62.4 170.8 L 61.6 168.4 L 61.1 165.9 L 61.0 163.3 L 61.0 132.8545454978943 L 60.5 134.9 L 56.6 137.3 L 52.2 136.2 L 49.8 132.3 L 49.4 127.8 L 48.9 123.6 L 48.3 119.5 L 47.6 115.7 L 46.9 112.1 L 46.0 108.7 L 45.1 105.5 L 44.2 102.4 L 43.2 99.5 L 42.0 96.7 L 43.4 95.6 L 45.7 97.8 L 48.2 100.1 L 50.4 102.9 L 52.4 106.0 L 54.3 109.4 L 56.0 113.1 L 57.6 117.0 L 59.1 121.2 L 60.4 125.7 L 61.0 128.05 L 61.0 72.8 L 41.873423385620114 72.8 L 37.661681461334226 157.8006097793579 L 39.6 157.0 L 44.3 155.1 L 49.1 153.3 L 54.0 151.5 L 59.0 150.0 L 59.9 151.5 L 55.8 154.9 L 51.6 158.0 L 47.4 160.9 L 43.2 163.7 L 34.8 169.1 L 30.7 171.7 L 22.5 176.7 L 22.034328365325926 176.9910448074341 L 21.6 180.9 L 18.5 179.2 L 11.2 169.5 L 12.9 168.5 L 17.2 166.6 L 25.399585151672362 163.05927000045776 L 31.70240240097046 33.9 L 15.8 33.9 L 15.8 29.9 L 65.7 29.9 L 75.7 19.9 L 87.7 29.9 L 87.7 33.9 L 43.80090093612671 33.9 L 42.071621608734134 68.8 L 61.0 68.8 L 67.0 63.8 L 78.0 72.8 L 73.0 76.8 L 73.0 164.5 L 73.2 165.4 L 73.4 166.0 L 73.7 166.6 L 73.9 166.7 L 74.2 166.9 L 74.8 167.1 L 75.7 167.2 L 77.0 167.3 L 81.7 167.3 L 87.7 142.3 L 89.7 142.3 L 87.7 167.3 L 91.3 169.7 L 92.2875 171.18125 L 92.4 170.8 L 94.0 164.1 L 95.3 156.6 L 96.4 148.4 L 97.2 139.4 L 97.7 129.6 L 98.0 119.1 L 98.0 62.40243902206421 L 97.1 63.5 L 92.6 68.2 L 87.8 72.5 L 86.5 71.4 L 92.7 60.4 L 95.7 55.0 L 98.0 50.4 L 98.0 48.0 L 98.940425491333 48.4702127456665 L 101.2 43.7 L 103.7 37.9 L 106.0 31.9 L 108.1 25.8 L 110.0 19.6 L 111.45769090652466 14.112222671508789 L 111.4 14.1 L 112.2 11.6 L 123.2 16.6 L 125.5 19.4 L 121.87213115692138 20.30696725845337 L 120.8 23.3 L 118.3953125 29.0 L 151.4 29.0 L 157.4 24.0 L 168.4 33.0 L 163.4 36.0 L 160.13015871047975 37.36243381500244 L 159.9 37.7 L 158.3 40.0 L 156.6 42.2 L 154.8 44.5 L 152.9 46.8 L 150.9 49.2 L 148.7 51.5 L 146.4 53.9 L 146.3159999847412 54.0 L 171.01818180084229 54.0 L 179.2 45.0 L 189.2 54.0 L 189.2 58.0 L 159.8 58.0 L 159.8 69.0 L 159.6 70.2 L 159.6 71.9 L 159.7 72.5 L 159.8 72.9 L 160.0 73.4 L 160.5 73.8 L 161.2 74.3 L 162.3 74.7 L 163.8 75.0 L 178.6 75.0 Z M 116.55645160675049 33.0 L 115.2 35.9 L 112.0 41.9 L 108.7 47.7 L 105.91369867324829 51.95684928894043 L 110.0 54.0 L 143.5 54.0 L 144.2 52.5 L 145.2 49.4 L 146.3 46.5 L 147.3 43.6 L 149.1 38.2 L 149.9 35.7 L 150.6 33.2 L 150.6583333015442 33.0 Z " />
</g>
</svg>
