<svg xmlns="http://www.w3.org/2000/svg" xmlns:xlink="http://www.w3.org/1999/xlink" version="1.1" baseProfile="full" viewBox="0 0 200 200" width="200" height="200">
<g fill="black">
<path d="M 28.0 35.0 L 51.0 35.0 L 51.0 12.0 L 63.0 14.0 L 66.0 16.0 L 63.0 17.8 L 63.0 35.0 L 76.0 35.0 L 86.0 25.0 L 98.0 35.0 L 98.0 39.0 L 28.0 39.0 L 28.0 77.5 L 56.7 77.5 L 56.7 62.2 L 36.4 62.2 L 36.4 58.2 L 56.7 58.2 L 56.7 40.7 L 67.7 42.7 L 70.5 44.7 L 67.7 46.45 L 67.7 58.2 L 78.7 58.2 L 84.2 53.2 L 94.7 62.2 L 89.7 65.7 L 89.7 75.23333330154419 L 92.5 71.5 L 98.5 77.5 L 98.5 81.5 L 89.7 81.5 L 89.7 100.8 L 78.7 106.3 L 78.7 100.8 L 67.7 100.8 L 67.7 115.1 L 80.8 115.1 L 86.8 110.1 L 97.8 119.1 L 92.8 123.1 L 92.8 171.7 L 92.7 174.3 L 92.2 176.8 L 91.74285717010498 178.1714285850525 L 94.6 174.6 L 98.8 168.1 L 102.4 161.0 L 105.4 153.4 L 107.9 145.1 L 109.8 136.1 L 111.1 126.4 L 111.9 116.0 L 112.0 104.9 L 112.0 20.0 L 124.0 26.0 L 172.9 26.0 L 178.9 21.0 L 189.9 30.0 L 184.9 34.0 L 184.9 170.0 L 184.8 172.5 L 184.4 175.0 L 183.6 177.4 L 182.3 179.7 L 180.7 181.7 L 178.7 183.3 L 176.4 184.6 L 174.0 185.4 L 171.5 185.8 L 168.9 186.0 L 168.9 180.0 L 150.9 177.0 L 150.9 174.0 L 168.9 174.0 L 170.2 173.9 L 171.1 173.7 L 172.0 173.4 L 172.2 173.2 L 172.3 173.0 L 172.5 172.7 L 172.7 172.1 L 172.9 171.2 L 172.9 117.0 L 154.5 117.0 L 154.5 170.0 L 142.5 176.0 L 142.5 117.0 L 123.1745454788208 117.0 L 121.8 127.8 L 119.6 138.2 L 116.8 147.7 L 113.3 156.5 L 109.1 164.6 L 104.2 171.7 L 98.6 178.1 L 92.4 183.4 L 85.5 187.7 L 84.53913040161133 186.25869569778442 L 84.3 186.4 L 81.9 187.2 L 79.4 187.6 L 76.8 187.7 L 76.8 181.7 L 68.8 178.7 L 68.8 175.7 L 78.0 175.7 L 79.0 175.5 L 79.5 175.3 L 79.9 175.2 L 80.1 175.0 L 80.2 174.8 L 80.4 174.5 L 80.6 173.9 L 80.7 173.0 L 80.8 171.7 L 80.8 158.7 L 67.7 158.7 L 67.7 181.8 L 56.7 187.3 L 56.7 158.7 L 43.6 158.7 L 43.6 181.8 L 31.6 187.8 L 31.6 109.1 L 43.6 115.1 L 56.7 115.1 L 56.7 100.8 L 36.4 100.8 L 36.4 96.8 L 56.7 96.8 L 56.7 81.5 L 28.0 81.5 L 28.0 102.0 L 27.5 113.6 L 26.8 124.6 L 25.8 134.9 L 24.6 144.7 L 23.0 153.8 L 21.2 162.3 L 19.0 170.1 L 16.5 177.3 L 13.6 183.7 L 10.3 189.3 L 8.6 188.6 L 10.0 182.4 L 11.4 175.8 L 12.6 168.6 L 13.7 160.9 L 14.6 152.6 L 15.3 143.7 L 15.8 134.2 L 16.1 124.1 L 16.1 113.3 L 16.0 102.0 L 16.0 29.0 Z M 43.6 138.9 L 43.6 154.7 L 56.7 154.7 L 56.7 138.9 Z M 67.7 138.9 L 67.7 154.7 L 80.8 154.7 L 80.8 138.9 Z M 43.6 119.1 L 43.6 134.9 L 56.7 134.9 L 56.7 119.1 Z M 67.7 119.1 L 67.7 134.9 L 80.8 134.9 L 80.8 119.1 Z M 124.0 73.0 L 124.0 105.0 L 123.45762710571289 113.0 L 142.5 113.0 L 142.5 73.0 Z M 154.5 73.0 L 154.5 113.0 L 172.9 113.0 L 172.9 73.0 Z M 67.7 81.5 L 67.7 96.8 L 78.7 96.8 L 78.7 81.5 Z M 67.7 62.2 L 67.7 77.5 L 78.7 77.5 L 78.7 62.2 Z M 124.0 30.0 L 124.0 69.0 L 142.5 69.0 L 142.5 30.0 Z M 154.5 30.0 L 154.5 69.0 L 172.9 69.0 L 172.9 30.0 Z " />
</g>
</svg>
