<svg xmlns="http://www.w3.org/2000/svg" xmlns:xlink="http://www.w3.org/1999/xlink" version="1.1" baseProfile="full" viewBox="0 0 200 200" width="200" height="200">
<g fill="black">
<path d="M 152.0 81.7 L 154.0 81.7 L 152.0 86.7 L 154.1 88.1 L 155.5 90.2 L 154.1 92.3 L 152.0 93.7 L 131.9333333015442 93.7 L 140.0 100.3 L 135.0 104.3 L 135.0 116.0 L 123.0 122.0 L 123.0 116.0 L 76.0 116.0 L 64.0 122.0 L 64.0 91.13061227798462 L 59.5 92.6 L 54.2 94.0 L 48.4 95.1 L 42.2 96.1 L 41.7 94.3 L 47.4 91.9 L 52.5 89.4 L 57.2 86.9 L 61.2 84.5 L 64.8 82.1 L 67.7 79.6 L 70.1 77.2 L 72.0 74.9 L 73.18695650100707 72.8 L 38.0 72.8 L 38.0 115.3 L 26.0 121.3 L 26.0 62.8 L 38.0 68.8 L 162.0 68.8 L 168.0 63.8 L 179.0 72.8 L 174.0 76.8 L 174.0 107.7 L 173.8 110.3 L 173.4 112.8 L 172.6 115.2 L 171.3 117.4 L 169.7 119.4 L 167.7 121.1 L 165.44070796966554 122.27876110076905 L 175.0 130.1 L 170.0 134.1 L 170.0 171.6 L 169.8 174.2 L 169.4 176.7 L 168.6 179.1 L 167.3 181.3 L 165.7 183.4 L 163.7 185.0 L 161.4 186.2 L 159.0 187.0 L 156.5 187.5 L 154.0 187.6 L 154.0 181.6 L 134.0 178.6 L 134.0 175.6 L 154.0 175.6 L 155.2 175.5 L 156.1 175.4 L 156.7 175.2 L 157.0 175.0 L 157.2 174.9 L 157.4 174.7 L 157.5 174.3 L 157.7 173.8 L 157.9 172.8 L 158.0 171.6 L 158.0 162.8 L 106.0 162.8 L 106.0 176.7 L 94.0 182.7 L 94.0 162.8 L 42.0 162.8 L 42.0 181.1 L 30.0 187.1 L 30.0 120.1 L 42.0 126.1 L 158.0 126.1 L 161.15789470672607 123.46842107772827 L 160.5 123.6 L 158.0 123.7 L 158.0 117.7 L 138.0 114.7 L 138.0 111.7 L 158.0 111.7 L 159.2 111.6 L 160.1 111.5 L 160.7 111.3 L 161.0 111.1 L 161.2 111.0 L 161.4 110.8 L 161.5 110.4 L 161.7 109.8 L 161.9 108.9 L 162.0 107.7 L 162.0 72.8 L 123.2 72.8 L 125.0 73.1 L 128.0 75.1 L 125.0 76.9 L 125.0 80.2 L 124.8 81.5 L 124.7 82.5 L 124.7 83.8 L 124.8 84.3 L 125.0 84.9 L 125.5 85.4 L 126.3 85.9 L 127.5 86.4 L 129.0 86.7 L 148.5 86.7 Z M 42.0 146.4 L 42.0 158.8 L 94.0 158.8 L 94.0 146.4 Z M 106.0 146.4 L 106.0 158.8 L 158.0 158.8 L 158.0 146.4 Z M 42.0 130.1 L 42.0 142.4 L 94.0 142.4 L 94.0 130.1 Z M 106.0 130.1 L 106.0 142.4 L 158.0 142.4 L 158.0 130.1 Z M 76.0 100.3 L 76.0 112.0 L 123.0 112.0 L 123.0 100.3 Z M 97.8 18.0 L 98.7 21.5 L 94.91650123596192 20.83622827529907 L 92.51333332061768 23.2 L 160.0 23.2 L 170.0 13.2 L 182.0 23.2 L 182.0 27.2 L 87.92857141494751 27.2 L 85.1 29.6 L 77.9 34.8 L 70.2 39.7 L 69.46222219467163 40.1 L 145.0 40.1 L 151.0 35.1 L 162.0 44.1 L 157.0 48.1 L 157.0 62.2 L 145.0 68.2 L 145.0 62.2 L 65.0 62.2 L 53.0 68.2 L 53.0 48.44042549133301 L 43.7 52.2 L 33.8 55.7 L 23.3 58.6 L 12.2 61.1 L 11.7 59.3 L 22.1 55.0 L 31.8 50.7 L 41.1 46.2 L 49.7 41.6 L 53.0 39.661250019073485 L 53.0 34.1 L 58.082758617401126 36.64137935638428 L 65.1 31.9 L 71.24615383148193 27.2 L 18.0 27.2 L 18.0 23.2 L 75.99433965682984 23.2 L 78.1 21.4 L 83.8 15.8 L 88.8 10.1 L 88.81847105026245 10.116213417053222 L 89.2 9.7 Z M 65.0 44.1 L 65.0 58.2 L 145.0 58.2 L 145.0 44.1 Z M 80.4709677696228 72.8 L 85.0 75.5 L 86.8 78.6 L 82.57175569534301 79.03740453720093 L 79.9 81.9 L 76.6 84.6 L 73.0 87.0 L 68.9 89.1 L 64.94216871261597 90.77108430862427 L 76.0 96.3 L 123.0 96.3 L 126.03103446960449 93.7741379737854 L 124.4 93.7 L 122.2 93.2 L 120.1 92.3 L 118.1 91.1 L 116.4 89.4 L 115.0 87.4 L 114.0 85.1 L 113.3 82.7 L 113.0 80.2 L 113.0 72.8 Z " />
</g>
</svg>
