<svg xmlns="http://www.w3.org/2000/svg" xmlns:xlink="http://www.w3.org/1999/xlink" version="1.1" baseProfile="full" viewBox="0 0 200 200" width="200" height="200">
<g fill="black">
<path d="M 130.7 15.9 L 133.3 18.4 L 129.85733337402343 19.73881483078003 L 128.9 24.1 L 126.7 32.2 L 124.3 40.3 L 123.1123456954956 44.0 L 166.0 44.0 L 176.0 34.0 L 188.0 44.0 L 188.0 48.0 L 144.0 48.0 L 144.0 90.0 L 164.8181818008423 90.0 L 173.0 81.0 L 183.0 90.0 L 183.0 94.0 L 144.0 94.0 L 144.0 133.0 L 165.8181818008423 133.0 L 174.0 124.0 L 184.0 133.0 L 184.0 137.0 L 144.0 137.0 L 144.0 183.0 L 132.0 189.0 L 132.0 48.0 L 121.82839508056641 48.0 L 121.7 48.4 L 118.7 56.5 L 115.4 64.6 L 111.8 72.6 L 107.9 80.6 L 103.5 88.5 L 98.8 96.3 L 97.1 95.6 L 100.1 87.0 L 103.0 78.5 L 105.7 70.2 L 108.3 62.0 L 110.6 53.9 L 112.8 45.8 L 114.6 37.7 L 116.3 29.8 L 117.7 21.8 L 118.74750003814697 14.903958320617676 L 118.7 14.9 L 119.2 12.0 Z M 85.7 175.3 L 79.1 168.9 L 73.2 162.0 L 68.0 154.7 L 63.4 146.9 L 59.5 138.6 L 56.3 129.9 L 53.8 120.7 L 52.440625 112.0 L 35.0 112.0 L 35.0 165.98867921829225 L 37.2 165.2 L 48.0 161.6 L 53.5 159.9 L 59.0 158.4 L 64.6 157.1 L 65.3 158.8 L 60.5 161.9 L 55.6 164.8 L 50.6 167.6 L 40.6 173.0 L 35.6 175.6 L 30.5 178.2 L 25.5 180.8 L 19.001859664916992 184.11277742385863 L 18.3 188.0 L 15.3 186.0 L 8.6 175.9 L 10.4 175.1 L 15.8 173.0 L 21.1 171.0 L 23.0 170.2962963104248 L 23.0 112.0 L 12.0 112.0 L 12.0 108.0 L 82.0 108.0 L 92.0 98.0 L 104.0 108.0 L 104.0 112.0 L 54.652873516082764 112.0 L 57.8 119.4 L 61.7 127.7 L 65.9 135.4 L 70.5 142.5 L 71.3061658859253 143.58026218414307 L 71.8 142.5 L 73.5 139.1 L 76.7 132.9 L 78.2 130.0 L 79.6 127.2 L 80.9 124.5 L 82.95703706741332 120.38592596054077 L 82.8 120.3 L 83.9 118.7 L 93.4 126.1 L 94.8 129.4 L 90.54255323410034 129.25319147109985 L 89.5 130.4 L 85.3 135.0 L 83.0 137.4 L 78.0 142.4 L 75.3 145.0 L 73.54193649291992 146.57619485855102 L 75.5 149.2 L 81.0 155.4 L 86.9 161.0 L 93.2 166.2 L 100.0 171.0 L 107.3 175.3 L 111.8 177.9 L 100.6 186.6 L 92.8 181.2 Z M 32.4 94.5 L 20.4 100.5 L 20.4 17.0 L 32.4 23.0 L 81.6 23.0 L 87.6 18.0 L 98.6 27.0 L 93.6 31.0 L 93.6 93.5 L 81.6 99.5 L 81.6 91.5 L 32.4 91.5 Z M 32.4 59.2 L 32.4 87.5 L 51.0 87.5 L 51.0 59.2 Z M 63.0 59.2 L 63.0 87.5 L 81.6 87.5 L 81.6 59.2 Z M 32.4 27.0 L 32.4 55.2 L 51.0 55.2 L 51.0 27.0 Z M 63.0 27.0 L 63.0 55.2 L 81.6 55.2 L 81.6 27.0 Z " />
</g>
</svg>
