<svg xmlns="http://www.w3.org/2000/svg" xmlns:xlink="http://www.w3.org/1999/xlink" version="1.1" baseProfile="full" viewBox="0 0 200 200" width="200" height="200">
<g fill="black">
<path d="M 173.2 87.5 L 173.2 91.5 L 126.0 91.5 L 126.0 127.6 L 162.6 127.6 L 172.6 117.6 L 184.6 127.6 L 184.6 131.6 L 126.0 131.6 L 126.0 184.0 L 114.0 190.0 L 114.0 131.6 L 55.4 131.6 L 55.4 127.6 L 114.0 127.6 L 114.0 91.5 L 66.8 91.5 L 66.8 87.5 L 151.2 87.5 L 161.2 77.5 Z M 12.7 122.0 L 15.4 121.2 L 18.3 120.3 L 21.4 119.2 L 24.6 117.9 L 27.9 116.5 L 31.3 114.9 L 34.9 113.2 L 38.6 111.4 L 41.900908660888675 109.79186496734619 L 42.0 98.0 L 42.0 31.0 L 54.0 37.0 L 104.0 37.0 L 104.0 12.0 L 116.0 14.0 L 119.0 16.0 L 116.0 17.8 L 116.0 37.0 L 164.0 37.0 L 174.0 27.0 L 186.0 37.0 L 186.0 41.0 L 54.0 41.0 L 54.0 98.0 L 53.3 110.5 L 52.0 122.3 L 49.9 133.4 L 47.2 143.7 L 43.7 153.2 L 39.5 161.9 L 34.6 169.8 L 28.9 176.7 L 22.6 182.7 L 15.5 187.7 L 14.4 186.2 L 19.9 180.0 L 24.7 173.4 L 29.0 166.3 L 32.7 158.6 L 35.7 150.2 L 38.2 141.2 L 40.0 131.5 L 41.3 121.0 L 41.6436749458313 114.64201288223266 L 41.2 115.1 L 38.1 118.0 L 35.1 120.7 L 32.0 123.2 L 29.0 125.6 L 26.0 127.7 L 23.0 129.7 L 21.009677410125732 130.89419355392457 L 20.1 135.2 L 17.1 133.1 L 10.8 122.8 Z M 24.3 76.9 L 23.6 73.9 L 22.7 70.9 L 21.7 68.1 L 20.5 65.4 L 19.2 62.7 L 17.8 60.1 L 16.2 57.5 L 14.2 55.3 L 15.3 53.8 L 18.0 55.5 L 20.8 57.2 L 23.5 59.2 L 26.0 61.5 L 28.3 64.1 L 30.4 67.0 L 32.3 70.1 L 34.1 73.4 L 35.7 76.9 L 37.1 80.6 L 36.3 85.1 L 32.6 87.9 L 28.1 87.1 L 25.4 83.4 L 24.9 80.1 Z M 163.9 48.9 L 165.5 52.1 L 161.54041948318482 52.167111492156984 L 161.3 52.5 L 158.8 56.1 L 156.1 59.7 L 153.3 63.3 L 147.5 70.3 L 144.4 73.7 L 141.2 77.1 L 137.8 80.4 L 134.3 83.6 L 132.8 82.5 L 135.0 78.3 L 137.1 74.1 L 141.5 66.1 L 145.7 58.3 L 147.7 54.4 L 149.7 50.6 L 151.6 46.7 L 153.04052047729493 43.81895914077759 L 153.0 43.8 L 154.0 42.0 Z M 94.5 70.7 L 93.2 67.6 L 91.6 64.7 L 89.7 61.7 L 87.6 58.8 L 85.2 55.8 L 82.6 52.9 L 79.7 50.0 L 76.4 47.2 L 77.3 45.6 L 85.3 49.2 L 89.0 51.4 L 92.5 53.8 L 95.7 56.4 L 98.6 59.3 L 101.3 62.4 L 103.8 65.7 L 105.9 69.2 L 107.8 72.9 L 107.5 77.5 L 104.2 80.6 L 99.6 80.3 L 96.5 76.9 L 95.6 73.8 Z " />
</g>
</svg>
