<svg xmlns="http://www.w3.org/2000/svg" xmlns:xlink="http://www.w3.org/1999/xlink" version="1.1" baseProfile="full" viewBox="0 0 200 200" width="200" height="200">
<g fill="black">
<path d="M 24.9 186.9 L 20.7 185.0 L 19.1 180.7 L 19.6 173.5 L 19.8 166.8 L 19.7 160.8 L 19.3 155.4 L 18.8 150.6 L 18.556643390655516 149.32237758636475 L 17.0 149.1 L 17.8 146.0 L 17.842615032196044 145.8334140777588 L 17.0 142.8 L 15.8 139.6 L 14.4 136.8 L 12.7 134.2 L 13.6 132.7 L 17.0 134.1 L 20.1 136.5 L 20.301869201660157 136.74672899246215 L 20.4 136.4 L 22.2 129.9 L 24.3 122.3 L 26.8 113.5 L 29.6 103.5 L 32.9 92.4 L 36.6 80.1 L 40.9 66.7 L 42.6 67.2 L 40.3 81.0 L 38.1 93.6 L 36.0 105.0 L 34.2 115.2 L 32.6 124.1 L 30.2 138.5 L 29.5 143.8 L 29.0 148.0 L 28.9 150.8 L 27.568820190429687 150.60983142852783 L 28.5 153.9 L 29.6 159.8 L 30.5 166.3 L 30.9 173.5 L 31.1 181.2 L 29.1 185.3 Z M 186.1 177.2 L 186.1 181.2 L 109.8 181.2 L 109.8 177.2 L 164.1 177.2 L 174.1 167.2 Z M 38.6 176.1 L 67.1 176.1 L 67.1 128.9 L 45.0 128.9 L 45.0 124.9 L 79.1 124.9 L 89.1 114.9 L 101.1 124.9 L 101.1 128.9 L 79.1 128.9 L 79.1 176.1 L 85.5 176.1 L 95.5 166.1 L 107.5 176.1 L 107.5 180.1 L 38.6 180.1 Z M 119.5 169.6 L 119.5 117.8 L 130.5 123.3 L 166.4 123.3 L 171.9 118.3 L 182.4 127.3 L 177.4 130.8 L 177.4 164.1 L 166.4 169.6 L 166.4 164.1 L 130.5 164.1 Z M 130.5 145.7 L 130.5 160.1 L 143.4 160.1 L 143.4 145.7 Z M 153.4 145.7 L 153.4 160.1 L 166.4 160.1 L 166.4 145.7 Z M 130.5 127.3 L 130.5 141.7 L 143.4 141.7 L 143.4 127.3 Z M 153.4 127.3 L 153.4 141.7 L 166.4 141.7 L 166.4 127.3 Z M 79.2 17.0 L 81.9 19.4 L 77.70592889785766 21.108695697784423 L 77.6 21.4 L 76.7 23.7 L 75.8 26.1 L 74.8 28.5 L 73.7 30.9 L 72.6 33.4 L 71.3 35.9 L 70.0 38.5 L 69.81481485366821 39.0 L 89.1 39.0 L 95.1 34.0 L 106.1 43.0 L 101.1 47.0 L 101.1 104.2 L 89.1 110.2 L 89.1 100.2 L 57.0 100.2 L 57.0 107.2 L 45.0 113.2 L 45.0 33.0 L 57.0 39.0 L 67.48620691299439 39.0 L 67.6 37.9 L 67.5 35.0 L 67.5 19.6 L 67.4 17.3 L 67.4 16.114999961853027 L 67.2 16.1 L 67.7 13.1 Z M 110.2 106.2 L 142.9 106.2 L 142.9 91.9 L 116.7 91.9 L 116.7 87.9 L 142.9 87.9 L 142.9 71.7 L 120.8 71.7 L 120.8 67.7 L 142.9 67.7 L 142.9 52.5 L 108.9 52.5 L 108.9 48.5 L 142.9 48.5 L 142.9 33.3 L 120.8 33.3 L 120.8 29.3 L 142.9 29.3 L 142.9 12.9 L 153.9 14.9 L 156.7 16.9 L 153.9 18.65 L 153.9 29.3 L 166.8 29.3 L 172.3 24.3 L 182.8 33.3 L 177.8 36.8 L 177.8 48.1 L 182.0 42.5 L 188.0 48.5 L 188.0 52.5 L 177.8 52.5 L 177.8 73.7 L 166.8 79.2 L 166.8 71.7 L 153.9 71.7 L 153.9 87.9 L 162.01818180084229 87.9 L 170.2 78.9 L 180.2 87.9 L 180.2 91.9 L 153.9 91.9 L 153.9 106.2 L 168.4181818008423 106.2 L 176.6 97.2 L 186.6 106.2 L 186.6 110.2 L 110.2 110.2 Z M 57.0 71.1 L 57.0 96.2 L 89.1 96.2 L 89.1 71.1 Z M 19.5 81.9 L 19.1 80.0 L 18.6 78.2 L 17.9 76.3 L 17.1 74.5 L 16.1 72.6 L 14.9 70.7 L 13.6 68.7 L 11.9 67.2 L 12.8 65.7 L 15.0 66.9 L 17.3 67.8 L 19.6 69.0 L 21.7 70.3 L 23.7 71.9 L 25.5 73.7 L 27.3 75.6 L 28.8 77.7 L 30.3 80.0 L 31.5 82.4 L 31.0 86.9 L 27.5 89.8 L 22.9 89.3 L 20.0 85.8 L 19.8 83.8 Z M 153.9 52.5 L 153.9 67.7 L 166.8 67.7 L 166.8 52.5 Z M 57.0 43.0 L 57.0 67.1 L 89.1 67.1 L 89.1 43.0 Z M 153.9 33.3 L 153.9 48.5 L 166.8 48.5 L 166.8 33.3 Z M 26.8 36.0 L 25.8 32.2 L 25.1 30.3 L 24.3 28.4 L 23.4 26.5 L 22.4 24.7 L 21.2 22.7 L 19.6 21.3 L 20.6 19.8 L 22.6 21.0 L 24.9 21.9 L 27.0 23.1 L 29.0 24.4 L 30.9 26.0 L 32.8 27.7 L 34.4 29.6 L 36.0 31.7 L 37.5 33.9 L 38.8 36.3 L 38.3 40.8 L 34.9 43.8 L 30.3 43.4 L 27.3 39.9 L 27.1 37.9 Z " />
</g>
</svg>
