<svg xmlns="http://www.w3.org/2000/svg" xmlns:xlink="http://www.w3.org/1999/xlink" version="1.1" baseProfile="full" viewBox="0 0 200 200" width="200" height="200">
<g fill="black">
<path d="M 72.1375 69.06875 L 73.1 68.5 L 77.6 66.1 L 82.0 63.9 L 86.5 61.6 L 90.9 59.4 L 95.3 57.1 L 99.6 54.9 L 111.63588514328003 48.46220092773437 L 111.6 48.4 L 111.65533132553101 48.45179948806763 L 112.5 48.0 L 113.55169486999512 50.22711868286133 L 121.0 57.2 L 121.1 60.4 L 117.36248893737793 58.89293909072876 L 113.0 60.6 L 108.3 62.4 L 105.1629976272583 63.5346604347229 L 107.7 70.3 L 110.9 79.8 L 113.7 89.1 L 116.2 98.2 L 118.4 107.2 L 120.3 115.9 L 122.0 124.3 L 123.5 132.6 L 124.7 140.7 L 125.7 148.5 L 124.2 152.8 L 120.2 154.9 L 115.8 153.5 L 113.7 149.4 L 113.4 141.8 L 112.9 133.9 L 112.1 125.8 L 111.2 117.4 L 110.0 108.7 L 108.7 99.8 L 107.3 90.6 L 105.7 81.1 L 104.0 71.3 L 102.83211793899537 64.36140661239624 L 98.9 65.7 L 94.1 67.2 L 89.2 68.7 L 86.61784229278564 69.3850622177124 L 95.5 71.0 L 98.2 73.0 L 95.5 74.72340421676635 L 95.5 163.8104166984558 L 97.8 162.9 L 102.7 161.0 L 108.0 159.1 L 113.5 157.2 L 114.4 158.7 L 109.7 162.3 L 105.2 165.6 L 100.7 168.6 L 96.4 171.4 L 92.3 174.1 L 88.4 176.5 L 84.6 178.9 L 81.0 181.0 L 78.12331657409668 182.77677507400512 L 77.5 186.8 L 74.4 185.0 L 67.5 174.9 L 69.3 174.1 L 72.7 172.8 L 76.3 171.4 L 80.2 169.9 L 84.2 168.3 L 84.5 168.18139533996583 L 84.5 69.94693880081176 L 84.3 70.0 L 79.4 71.2 L 74.3 72.1 L 74.0 72.14117650985717 L 74.0 114.0 L 73.4 123.6 L 72.4 132.8 L 70.8 141.5 L 68.7 149.8 L 66.0 157.6 L 62.9 164.9 L 59.1 171.7 L 54.8 177.9 L 49.9 183.5 L 44.5 188.5 L 43.4 187.4 L 47.5 181.5 L 51.1 175.4 L 54.3 169.1 L 57.0 162.4 L 59.4 155.3 L 61.2 147.9 L 62.6 140.0 L 63.5 131.8 L 64.0 123.1 L 64.0 65.0 Z M 12.7 122.0 L 15.4 121.2 L 18.3 120.3 L 21.4 119.2 L 24.6 117.9 L 27.9 116.5 L 31.3 114.9 L 34.9 113.2 L 38.6 111.4 L 42.40296411514282 109.54727392196655 L 42.5 98.0 L 42.5 31.5 L 53.5 37.0 L 104.0 37.0 L 104.0 12.0 L 116.0 14.0 L 119.0 16.0 L 116.0 17.8 L 116.0 37.0 L 164.0 37.0 L 174.0 27.0 L 186.0 37.0 L 186.0 41.0 L 53.5 41.0 L 53.5 98.0 L 52.8 110.5 L 51.5 122.2 L 49.5 133.3 L 46.8 143.6 L 43.3 153.1 L 39.2 161.7 L 34.3 169.6 L 28.8 176.6 L 22.4 182.6 L 15.5 187.6 L 14.4 186.3 L 20.0 180.2 L 24.9 173.5 L 29.2 166.4 L 32.9 158.7 L 36.1 150.3 L 38.6 141.3 L 40.5 131.6 L 41.7 121.1 L 42.13534479141235 114.13448276519776 L 41.2 115.1 L 38.1 118.0 L 35.1 120.7 L 32.0 123.2 L 29.0 125.6 L 26.0 127.7 L 23.0 129.7 L 21.009677410125732 130.89419355392457 L 20.1 135.2 L 17.1 133.1 L 10.8 122.8 Z M 157.0 140.0 L 168.2 140.0 L 169.1 139.8 L 169.7 139.6 L 170.0 139.4 L 170.2 139.3 L 170.4 139.1 L 170.7 138.2 L 170.9 137.3 L 171.0 136.0 L 171.0 62.2 L 144.0 62.2 L 144.0 181.3 L 132.0 187.3 L 132.0 52.2 L 144.0 58.2 L 171.0 58.2 L 177.0 53.2 L 188.0 62.2 L 183.0 66.2 L 183.0 136.0 L 182.8 138.6 L 182.4 141.1 L 181.6 143.5 L 180.3 145.8 L 178.7 147.8 L 176.7 149.4 L 174.4 150.6 L 172.0 151.5 L 169.5 151.9 L 167.0 152.0 L 167.0 146.0 L 157.0 143.0 Z M 24.3 76.9 L 23.6 73.9 L 22.7 70.9 L 21.7 68.1 L 20.5 65.4 L 19.2 62.7 L 17.8 60.1 L 16.2 57.5 L 14.2 55.3 L 15.3 53.8 L 18.0 55.5 L 20.8 57.2 L 23.5 59.2 L 26.0 61.5 L 28.3 64.1 L 30.4 67.0 L 32.3 70.1 L 34.1 73.4 L 35.7 76.9 L 37.1 80.6 L 36.3 85.1 L 32.6 87.9 L 28.1 87.1 L 25.4 83.4 L 24.9 80.1 Z " />
</g>
</svg>
