<svg xmlns="http://www.w3.org/2000/svg" xmlns:xlink="http://www.w3.org/1999/xlink" version="1.1" baseProfile="full" viewBox="0 0 200 200" width="200" height="200">
<g fill="black">
<path d="M 171.8 114.0 L 174.8 116.0 L 171.8 117.8 L 171.8 181.2 L 159.8 187.2 L 159.8 177.2 L 74.3 177.2 L 74.3 184.2 L 62.3 190.2 L 62.3 112.0 L 74.3 114.0 L 77.3 116.0 L 74.3 117.8 L 74.3 173.2 L 159.8 173.2 L 159.8 112.0 Z M 11.5 121.0 L 14.1 120.3 L 16.8 119.4 L 19.6 118.3 L 22.5 117.0 L 25.5 115.6 L 28.6 114.0 L 31.9 112.3 L 35.3 110.5 L 35.901788330078126 110.18238945007325 L 36.0 108.3 L 36.0 28.0 L 48.0 34.0 L 101.0 34.0 L 101.0 12.0 L 113.0 14.0 L 116.0 16.0 L 113.0 17.8 L 113.0 34.0 L 164.0 34.0 L 174.0 24.0 L 186.0 34.0 L 186.0 38.0 L 48.0 38.0 L 48.0 96.0 L 47.3 108.8 L 46.1 120.9 L 44.2 132.3 L 41.7 142.8 L 38.5 152.5 L 34.6 161.4 L 30.1 169.4 L 24.9 176.5 L 19.1 182.6 L 12.5 187.6 L 11.4 186.3 L 16.2 180.1 L 20.6 173.4 L 24.4 166.2 L 27.7 158.4 L 30.4 149.9 L 32.6 140.6 L 34.3 130.6 L 35.4 119.8 L 35.566769218444826 116.60358972549439 L 35.3 116.9 L 32.6 119.6 L 29.9 122.1 L 27.1 124.4 L 24.4 126.6 L 21.7 128.6 L 20.105434799194335 129.66304349899292 L 19.3 134.0 L 16.2 132.1 L 9.7 121.8 Z M 100.8 119.4 L 132.6 119.4 L 138.6 114.4 L 149.6 123.4 L 144.6 127.4 L 144.6 157.0 L 132.6 163.0 L 132.6 155.0 L 100.8 155.0 L 100.8 158.0 L 88.8 164.0 L 88.8 113.4 Z M 100.8 123.4 L 100.8 151.0 L 132.6 151.0 L 132.6 123.4 Z M 50.8 100.8 L 111.5 100.8 L 111.5 84.0 L 68.6 84.0 L 68.6 80.0 L 111.5 80.0 L 111.5 63.2 L 63.2 63.2 L 63.2 59.2 L 111.5 59.2 L 111.5 40.3 L 123.5 42.3 L 126.5 44.3 L 123.5 46.1 L 123.5 59.2 L 153.51818180084229 59.2 L 161.7 50.2 L 171.7 59.2 L 171.7 63.2 L 123.5 63.2 L 123.5 80.0 L 148.11818180084228 80.0 L 156.3 71.0 L 166.3 80.0 L 166.3 84.0 L 123.5 84.0 L 123.5 100.8 L 165.9181818008423 100.8 L 174.1 91.8 L 184.1 100.8 L 184.1 104.8 L 50.8 104.8 Z M 21.7 73.7 L 21.1 70.7 L 20.3 67.8 L 19.4 65.0 L 18.4 62.3 L 17.1 59.7 L 15.7 57.1 L 14.2 54.5 L 12.2 52.3 L 13.3 50.8 L 16.0 52.5 L 18.8 54.2 L 21.4 56.3 L 23.9 58.6 L 26.1 61.2 L 28.1 64.1 L 30.0 67.2 L 31.6 70.6 L 33.0 74.1 L 34.3 77.9 L 33.3 82.3 L 29.5 84.9 L 25.0 83.9 L 22.5 80.1 L 22.2 76.8 Z " />
</g>
</svg>
