<svg xmlns="http://www.w3.org/2000/svg" xmlns:xlink="http://www.w3.org/1999/xlink" version="1.1" baseProfile="full" viewBox="0 0 200 200" width="200" height="200">
<g fill="black">
<path d="M 141.2 175.9 L 158.5 175.9 L 159.4 175.7 L 160.0 175.5 L 160.3 175.3 L 160.5 175.2 L 160.6 175.0 L 160.8 174.7 L 161.0 174.1 L 161.2 173.2 L 161.2 69.4 L 97.4 69.4 L 97.4 65.4 L 161.4 65.4 L 171.4 55.4 L 183.4 65.4 L 183.4 69.4 L 173.2 69.4 L 173.2 171.9 L 173.1 174.5 L 172.6 177.0 L 171.8 179.4 L 170.6 181.7 L 169.0 183.7 L 167.0 185.3 L 164.7 186.6 L 162.3 187.4 L 159.8 187.8 L 157.2 187.9 L 157.2 181.9 L 141.2 178.9 Z M 12.7 122.0 L 15.4 121.2 L 18.3 120.3 L 21.4 119.2 L 24.6 117.9 L 27.9 116.5 L 31.3 114.9 L 34.9 113.2 L 38.6 111.4 L 41.900908660888675 109.79186496734619 L 42.0 98.0 L 42.0 31.0 L 54.0 37.0 L 104.0 37.0 L 104.0 12.0 L 116.0 14.0 L 119.0 16.0 L 116.0 17.8 L 116.0 37.0 L 164.0 37.0 L 174.0 27.0 L 186.0 37.0 L 186.0 41.0 L 54.0 41.0 L 54.0 98.0 L 53.3 110.5 L 52.0 122.3 L 49.9 133.4 L 47.2 143.7 L 43.7 153.2 L 39.5 161.9 L 34.6 169.8 L 28.9 176.7 L 22.6 182.7 L 15.5 187.7 L 14.4 186.2 L 19.9 180.0 L 24.7 173.4 L 29.0 166.3 L 32.7 158.6 L 35.7 150.2 L 38.2 141.2 L 40.0 131.5 L 41.3 121.0 L 41.6436749458313 114.64201288223266 L 41.2 115.1 L 38.1 118.0 L 35.1 120.7 L 32.0 123.2 L 29.0 125.6 L 26.0 127.7 L 23.0 129.7 L 21.009677410125732 130.89419355392457 L 20.1 135.2 L 17.1 133.1 L 10.8 122.8 Z M 102.0 54.5 L 104.1 57.4 L 100.47901592254638 58.035260391235354 L 98.3 63.1 L 94.4 71.5 L 90.3 79.8 L 86.0 87.8 L 81.5 95.7 L 80.91354579925537 96.66892433166504 L 85.9 97.5 L 88.9 99.5 L 85.9 101.3 L 85.9 181.5 L 73.9 187.5 L 73.9 107.83061227798461 L 72.0 110.7 L 66.8 117.9 L 61.4 124.8 L 55.6 131.3 L 54.2 130.3 L 58.3 122.6 L 62.3 115.0 L 66.3 107.3 L 70.2 99.6 L 74.0 91.7 L 77.7 83.7 L 81.2 75.5 L 84.6 67.2 L 87.8 58.8 L 90.8 50.2 L 90.81150684356689 50.20441780090332 L 91.3 48.8 Z M 113.7 93.0 L 134.0 93.0 L 140.0 88.0 L 151.0 97.0 L 146.0 101.0 L 146.0 148.9 L 134.0 154.9 L 134.0 142.9 L 113.7 142.9 L 113.7 154.9 L 101.7 160.9 L 101.7 87.0 Z M 113.7 97.0 L 113.7 138.9 L 134.0 138.9 L 134.0 97.0 Z M 24.3 76.9 L 23.6 73.9 L 22.7 70.9 L 21.7 68.1 L 20.5 65.4 L 19.2 62.7 L 17.8 60.1 L 16.2 57.5 L 14.2 55.3 L 15.3 53.8 L 18.0 55.5 L 20.8 57.2 L 23.5 59.2 L 26.0 61.5 L 28.3 64.1 L 30.4 67.0 L 32.3 70.1 L 34.1 73.4 L 35.7 76.9 L 37.1 80.6 L 36.3 85.1 L 32.6 87.9 L 28.1 87.1 L 25.4 83.4 L 24.9 80.1 Z " />
</g>
</svg>
