<svg xmlns="http://www.w3.org/2000/svg" xmlns:xlink="http://www.w3.org/1999/xlink" version="1.1" baseProfile="full" viewBox="0 0 200 200" width="200" height="200">
<g fill="black">
<path d="M 169.1 179.7 L 167.4 181.5 L 165.6 183.1 L 163.5 184.4 L 161.4 185.5 L 159.1 186.3 L 156.7 186.9 L 154.3 187.3 L 151.8 187.4 L 151.8 181.4 L 131.8 178.4 L 131.8 175.4 L 151.8 175.4 L 153.2 175.3 L 155.6 174.9 L 156.6 174.5 L 157.5 174.0 L 158.4 173.4 L 159.2 172.7 L 160.0 171.9 L 160.8 170.9 L 161.6 169.7 L 162.3 167.7 L 163.3 163.4 L 164.3 156.9 L 165.2 148.6 L 165.9 138.5 L 166.5 126.5 L 167.0 112.7 L 167.3 97.2 L 167.5 79.9 L 167.58952875137328 62.8 L 145.52134828567506 62.8 L 144.9 78.6 L 143.4 95.3 L 141.1 110.9 L 137.9 125.4 L 133.9 138.8 L 129.1 151.0 L 123.4 162.1 L 116.8 172.0 L 109.4 180.6 L 101.1 187.8 L 99.9 186.4 L 106.5 178.1 L 112.3 169.0 L 112.92648334503174 167.8072720527649 L 111.2 168.8 L 106.8 167.5 L 104.5 163.6 L 104.4 160.3 L 104.1 157.1 L 103.7 153.8 L 103.60257949829102 153.34073181152343 L 103.5 153.4 L 98.9 155.9 L 94.2 158.2 L 84.8 162.4 L 80.1 164.4 L 75.3 166.4 L 64.78321962356567 170.56289224624635 L 63.7 174.3 L 60.9 172.1 L 55.4 161.2 L 57.3 160.6 L 62.2 159.4 L 65.38471336364746 158.57197456359864 L 66.6 155.5 L 70.3 146.7 L 73.9 138.2 L 77.4 129.9 L 80.9 121.9 L 82.55568313598633 117.93639497756958 L 80.0 120.2 L 75.5 119.8 L 72.4 116.4 L 72.0 114.2 L 71.4 111.8 L 70.5 109.4 L 69.5 106.8 L 68.2 104.1 L 66.6 101.4 L 64.9 98.5 L 62.9 95.4 L 60.8 92.3 L 58.3 89.2 L 59.5 87.9 L 62.7 90.3 L 66.0 92.5 L 68.81168518066406 94.65562534332275 L 69.8 91.4 L 71.6 86.1 L 73.4 80.9 L 75.1 76.0 L 76.7 71.3 L 78.3 66.7 L 79.7 62.4 L 81.0 58.1 L 82.2 54.1 L 83.00999383926391 51.22820358276367 L 82.9 51.2 L 83.8 48.8 L 94.6 54.2 L 96.8 57.1 L 92.99251699447632 57.88775510787964 L 92.9 58.1 L 91.0 62.1 L 89.0 66.2 L 86.8 70.4 L 84.5 74.7 L 82.0 79.2 L 79.3 83.7 L 76.4 88.4 L 73.2 93.1 L 70.82046203613281 96.29537954330445 L 71.8 97.1 L 76.7 102.0 L 78.8 104.6 L 80.7 107.2 L 82.4 109.8 L 83.8 112.6 L 83.6129807472229 115.4052885055542 L 84.2 114.0 L 87.4 106.4 L 90.4 99.0 L 93.3 91.8 L 95.73518514633179 85.71203699111939 L 95.7 85.7 L 96.6 83.6 L 107.1 89.6 L 109.0 92.6 L 105.3481481552124 93.1037036895752 L 103.7 96.4 L 100.2 103.5 L 96.5 110.6 L 92.6 118.0 L 88.5 125.6 L 84.3 133.3 L 79.8 141.1 L 75.1 149.1 L 70.0 157.3 L 69.89988412857056 157.45202779769897 L 72.2 156.9 L 77.1 155.6 L 97.1 150.8 L 102.2 149.9 L 102.8358078956604 149.80218343734742 L 102.2 147.1 L 101.2 143.8 L 100.1 140.3 L 98.7 136.9 L 97.3 133.3 L 95.5 129.8 L 96.9 128.7 L 99.8 131.6 L 102.6 134.5 L 105.1 137.5 L 107.4 140.7 L 109.5 144.1 L 111.3 147.5 L 112.9 151.0 L 114.3 154.6 L 115.5 158.3 L 116.25214509963989 161.47572374343872 L 117.5 159.1 L 122.0 148.2 L 125.8 136.2 L 128.8 123.3 L 131.1 109.3 L 132.7 94.2 L 133.5 78.1 L 133.58843927383424 62.8 L 115.3 62.8 L 115.3 58.8 L 167.6 58.8 L 173.6 53.8 L 184.6 62.8 L 179.6 65.8 L 179.5739016532898 65.81087427139282 L 179.5 80.0 L 179.3 97.4 L 179.0 113.1 L 178.5 127.0 L 177.9 139.2 L 177.1 149.6 L 176.2 158.4 L 175.1 165.5 L 173.8 171.2 L 172.0 175.7 L 170.6 177.8 Z M 12.7 122.0 L 15.4 121.2 L 18.3 120.3 L 21.4 119.2 L 24.6 117.9 L 27.9 116.5 L 31.3 114.9 L 34.9 113.2 L 38.6 111.4 L 41.900908660888675 109.79186496734619 L 42.0 98.0 L 42.0 31.0 L 54.0 37.0 L 104.0 37.0 L 104.0 12.0 L 116.0 14.0 L 119.0 16.0 L 116.0 17.8 L 116.0 37.0 L 164.0 37.0 L 174.0 27.0 L 186.0 37.0 L 186.0 41.0 L 54.0 41.0 L 54.0 98.0 L 53.3 110.5 L 52.0 122.3 L 49.9 133.4 L 47.2 143.7 L 43.7 153.2 L 39.5 161.9 L 34.6 169.8 L 28.9 176.7 L 22.6 182.7 L 15.5 187.7 L 14.4 186.2 L 19.9 180.0 L 24.7 173.4 L 29.0 166.3 L 32.7 158.6 L 35.7 150.2 L 38.2 141.2 L 40.0 131.5 L 41.3 121.0 L 41.6436749458313 114.64201288223266 L 41.2 115.1 L 38.1 118.0 L 35.1 120.7 L 32.0 123.2 L 29.0 125.6 L 26.0 127.7 L 23.0 129.7 L 21.009677410125732 130.89419355392457 L 20.1 135.2 L 17.1 133.1 L 10.8 122.8 Z M 24.3 76.9 L 23.6 73.9 L 22.7 70.9 L 21.7 68.1 L 20.5 65.4 L 19.2 62.7 L 17.8 60.1 L 16.2 57.5 L 14.2 55.3 L 15.3 53.8 L 18.0 55.5 L 20.8 57.2 L 23.5 59.2 L 26.0 61.5 L 28.3 64.1 L 30.4 67.0 L 32.3 70.1 L 34.1 73.4 L 35.7 76.9 L 37.1 80.6 L 36.3 85.1 L 32.6 87.9 L 28.1 87.1 L 25.4 83.4 L 24.9 80.1 Z " />
</g>
</svg>
