<svg xmlns="http://www.w3.org/2000/svg" xmlns:xlink="http://www.w3.org/1999/xlink" version="1.1" baseProfile="full" viewBox="0 0 200 200" width="200" height="200">
<g fill="black">
<path d="M 12.7 122.0 L 15.4 121.2 L 18.3 120.3 L 21.4 119.2 L 24.6 117.9 L 27.9 116.5 L 31.3 114.9 L 34.9 113.2 L 38.6 111.4 L 41.900908660888675 109.79186496734619 L 42.0 98.0 L 42.0 31.0 L 54.0 37.0 L 104.0 37.0 L 104.0 12.0 L 116.0 14.0 L 119.0 16.0 L 116.0 17.8 L 116.0 37.0 L 164.0 37.0 L 174.0 27.0 L 186.0 37.0 L 186.0 41.0 L 82.1 41.0 L 92.5 46.2 L 94.7 49.1 L 90.93535747528077 49.892556285858156 L 90.0 52.1 L 88.32982454299926 55.5 L 166.0 55.5 L 172.0 50.5 L 183.0 59.5 L 178.09057970046996 62.44565219879151 L 178.2 65.4 L 178.3 72.8 L 178.2 79.5 L 177.9 85.5 L 177.5 90.8 L 176.8 95.5 L 176.0 99.6 L 174.8 103.2 L 173.2 106.5 L 170.7 109.3 L 168.8 110.7 L 166.9 112.0 L 164.8 113.2 L 162.7 114.2 L 160.6 115.0 L 158.4 115.7 L 156.1 116.3 L 151.5 116.9 L 149.2 116.9 L 149.2 110.9 L 129.2 107.9 L 129.2 104.9 L 150.7 104.9 L 152.3 104.7 L 153.8 104.5 L 155.2 104.2 L 156.6 103.7 L 157.9 103.2 L 159.3 102.5 L 160.6 101.8 L 161.9 100.9 L 163.1 100.0 L 163.7 98.8 L 164.3 96.7 L 165.0 93.5 L 165.5 89.5 L 165.9 84.7 L 166.2 79.1 L 166.3 72.7 L 166.22543754577637 67.4060676574707 L 166.0 67.5 L 166.0 59.5 L 86.24181814193726 59.5 L 84.1 63.3 L 82.39829063415527 66.03304843902588 L 92.4 67.7 L 95.4 69.7 L 92.4 71.5 L 92.4 83.9 L 107.0 83.9 L 109.1 78.0 L 110.3 71.4 L 110.7 64.1 L 110.73026485443116 64.10126104354859 L 110.8 61.8 L 122.7 64.6 L 125.6 66.7 L 122.14207410812378 68.59846916198731 L 121.5 73.2 L 119.3 81.2 L 118.0625 83.9 L 137.2 83.9 L 137.2 65.7 L 149.2 67.7 L 152.2 69.7 L 149.2 71.5 L 149.2 89.9 L 137.2 95.9 L 137.2 87.9 L 116.22916669845581 87.9 L 116.0 88.4 L 111.6 94.8 L 106.3 100.3 L 100.0 104.8 L 92.8 108.4 L 90.53453626632691 109.17427244186402 L 97.7 113.6 L 99.6 116.7 L 95.70736837387085 117.03557167053222 L 94.8 118.6 L 92.2021276473999 122.3 L 169.2 122.3 L 175.2 117.3 L 186.2 126.3 L 181.2 129.3 L 181.13637323379515 129.32651109695433 L 181.1 132.2 L 180.9 139.5 L 180.7 146.0 L 180.3 151.9 L 179.9 157.2 L 179.3 161.8 L 178.6 165.9 L 177.7 169.4 L 176.5 172.5 L 174.9 175.3 L 173.3 177.1 L 171.5 178.8 L 169.7 180.4 L 167.7 181.7 L 165.6 182.9 L 163.4 183.8 L 161.1 184.5 L 158.8 185.0 L 156.4 185.3 L 154.0 185.4 L 154.0 179.4 L 134.0 176.4 L 134.0 173.4 L 155.4 173.4 L 156.8 173.2 L 158.1 172.9 L 159.3 172.5 L 160.4 172.1 L 161.5 171.5 L 162.5 170.8 L 164.5 169.0 L 165.4 167.8 L 165.6 167.4 L 166.2 165.9 L 166.8 163.4 L 167.4 160.1 L 167.9 155.9 L 168.4 151.1 L 168.7 145.4 L 169.0 139.1 L 169.1 132.1 L 169.1743589401245 126.3 L 89.1 126.3 L 87.9 127.8 L 84.0 132.2 L 81.47773847579955 134.54628973007203 L 86.0 135.3 L 89.0 137.3 L 86.0 139.1 L 86.0 154.9 L 105.9444444656372 154.9 L 107.5 149.3 L 108.2 141.0 L 107.75325813293458 132.6906015396118 L 107.7 132.7 L 107.5 129.5 L 119.6 130.6 L 122.8 132.3 L 119.6 134.68297872543334 L 119.6 141.6 L 118.0 151.5 L 116.75333337783813 154.9 L 140.4 154.9 L 140.4 133.3 L 152.4 135.3 L 155.4 137.3 L 152.4 139.1 L 152.4 160.9 L 140.4 166.9 L 140.4 158.9 L 115.28666667938232 158.9 L 114.7 160.5 L 109.9 168.2 L 103.6 174.7 L 95.9 179.8 L 87.0 183.5 L 76.8 186.0 L 65.4 187.1 L 52.8 187.0 L 52.7 185.2 L 64.9 183.4 L 75.6 180.7 L 84.6 177.4 L 92.0 173.2 L 97.9 168.4 L 102.4 162.8 L 104.31904764175415 158.9 L 86.0 158.9 L 86.0 161.9 L 74.0 167.9 L 74.0 140.90816326141356 L 70.2 143.7 L 64.9 147.0 L 59.2 150.0 L 53.2 152.6 L 52.3 151.1 L 57.1 146.9 L 61.7 142.7 L 66.0 138.6 L 70.0 134.5 L 73.6 130.3 L 76.9 126.1 L 79.9 121.8 L 82.5 117.4 L 84.9 113.0 L 85.87026500701904 110.76839046478271 L 84.9 111.1 L 76.1 112.8 L 66.5 113.5 L 66.2 111.7 L 75.2 109.1 L 83.1 106.0 L 89.9 102.5 L 95.7 98.6 L 100.4 94.1 L 104.2 89.3 L 104.9259259223938 87.9 L 92.4 87.9 L 92.4 90.9 L 80.4 96.9 L 80.4 69.15555553436279 L 77.2 73.6 L 73.4 78.4 L 69.2 83.0 L 64.8 87.3 L 60.1 91.3 L 55.0 94.9 L 54.0 93.9 L 54.0 98.0 L 53.3 110.5 L 52.0 122.3 L 49.9 133.4 L 47.2 143.7 L 43.7 153.2 L 39.5 161.9 L 34.6 169.8 L 28.9 176.7 L 22.6 182.7 L 15.5 187.7 L 14.4 186.2 L 19.9 180.0 L 24.7 173.4 L 29.0 166.3 L 32.7 158.6 L 35.7 150.2 L 38.2 141.2 L 40.0 131.5 L 41.3 121.0 L 41.6436749458313 114.64201288223266 L 41.2 115.1 L 38.1 118.0 L 35.1 120.7 L 32.0 123.2 L 29.0 125.6 L 26.0 127.7 L 23.0 129.7 L 21.009677410125732 130.89419355392457 L 20.1 135.2 L 17.1 133.1 L 10.8 122.8 Z M 54.0 41.0 L 54.0 93.1916666984558 L 57.3 88.7 L 60.8 83.8 L 64.1 78.9 L 67.2 74.0 L 70.1 69.0 L 72.8 63.9 L 75.2 58.7 L 77.4 53.3 L 79.4 47.9 L 80.90228424072265 43.22622671127319 L 80.8 43.2 L 81.625 41.0 Z M 24.3 76.9 L 23.6 73.9 L 22.7 70.9 L 21.7 68.1 L 20.5 65.4 L 19.2 62.7 L 17.8 60.1 L 16.2 57.5 L 14.2 55.3 L 15.3 53.8 L 18.0 55.5 L 20.8 57.2 L 23.5 59.2 L 26.0 61.5 L 28.3 64.1 L 30.4 67.0 L 32.3 70.1 L 34.1 73.4 L 35.7 76.9 L 37.1 80.6 L 36.3 85.1 L 32.6 87.9 L 28.1 87.1 L 25.4 83.4 L 24.9 80.1 Z " />
</g>
</svg>
