<svg xmlns="http://www.w3.org/2000/svg" xmlns:xlink="http://www.w3.org/1999/xlink" version="1.1" baseProfile="full" viewBox="0 0 200 200" width="200" height="200">
<g fill="black">
<path d="M 82.4 176.2 L 92.4 176.2 L 93.6 176.1 L 94.5 176.0 L 95.1 175.8 L 95.4 175.6 L 95.6 175.4 L 95.8 175.3 L 96.0 174.9 L 96.2 174.3 L 96.3 173.4 L 96.4 172.2 L 96.4 150.2 L 71.7 150.2 L 71.7 181.7 L 59.7 187.7 L 59.7 95.9 L 57.9 94.1 L 54.0 83.99545450210572 L 54.0 98.0 L 53.3 110.5 L 52.0 122.3 L 49.9 133.4 L 47.2 143.7 L 43.7 153.2 L 39.5 161.9 L 34.6 169.8 L 28.9 176.7 L 22.6 182.7 L 15.5 187.7 L 14.4 186.2 L 19.9 180.0 L 24.7 173.4 L 29.0 166.3 L 32.7 158.6 L 35.7 150.2 L 38.2 141.2 L 40.0 131.5 L 41.3 121.0 L 41.6436749458313 114.64201288223266 L 41.2 115.1 L 38.1 118.0 L 35.1 120.7 L 32.0 123.2 L 29.0 125.6 L 26.0 127.7 L 23.0 129.7 L 21.009677410125732 130.89419355392457 L 20.1 135.2 L 17.1 133.1 L 10.8 122.8 L 12.7 122.0 L 15.4 121.2 L 18.3 120.3 L 21.4 119.2 L 24.6 117.9 L 27.9 116.5 L 31.3 114.9 L 34.9 113.2 L 38.6 111.4 L 41.900908660888675 109.79186496734619 L 42.0 98.0 L 42.0 31.0 L 54.0 37.0 L 104.0 37.0 L 104.0 12.0 L 116.0 14.0 L 119.0 16.0 L 116.0 17.8 L 116.0 37.0 L 164.0 37.0 L 174.0 27.0 L 186.0 37.0 L 186.0 41.0 L 54.0 41.0 L 54.0 82.6 L 55.5 82.3 L 64.52017402648926 80.98797464370728 L 65.8 76.6 L 67.3 72.0 L 68.9 67.5 L 70.4 63.2 L 73.2 55.0 L 74.6 51.1 L 75.9 47.4 L 76.76811780929566 44.723303413391115 L 76.7 44.7 L 76.96415090560913 44.11886796951294 L 77.1 43.7 L 77.14536085128785 43.72020616531372 L 77.7 42.5 L 88.1 48.6 L 90.1 51.6 L 86.2640212059021 52.062963008880615 L 84.3 55.5 L 82.2 59.1 L 80.1 62.9 L 77.8 66.7 L 75.5 70.6 L 73.0 74.7 L 70.3 78.8 L 69.24549055099487 80.34410305023194 L 71.9 80.0 L 82.3 78.8 L 87.4 78.3 L 92.4 77.8 L 97.3 77.5 L 101.65332345962524 77.40930576324463 L 100.9 75.3 L 99.6 72.4 L 98.3 69.3 L 96.7 66.2 L 95.1 63.0 L 93.0 59.9 L 94.4 58.7 L 97.2 61.2 L 100.1 63.6 L 102.8 66.1 L 105.2 68.7 L 107.5 71.4 L 109.6 74.1 L 111.4 76.9 L 113.1 79.7 L 114.7 82.6 L 116.0 85.5 L 115.4 90.1 L 111.9 92.9 L 107.3 92.3 L 104.5 88.8 L 104.1 86.2 L 103.5 83.6 L 102.84687976837158 81.08082189559937 L 102.8 81.1 L 98.3 82.8 L 93.6 84.3 L 88.8 85.7 L 83.9 87.1 L 78.9 88.5 L 73.8 89.9 L 68.6 91.3 L 63.3 92.7 L 61.875511455535886 93.0693118095398 L 61.281481456756595 94.49074077606201 L 71.7 99.7 L 96.4 99.7 L 102.4 94.7 L 113.4 103.7 L 108.4 107.7 L 108.4 172.2 L 108.2 174.7 L 107.8 177.2 L 107.0 179.6 L 105.8 181.9 L 104.1 183.9 L 102.1 185.6 L 99.8 186.8 L 97.4 187.6 L 94.9 188.0 L 92.4 188.2 L 92.4 182.2 L 82.4 179.2 Z M 163.5 175.3 L 157.8 167.6 L 154.2373332977295 161.21688890457153 L 149.3 167.8 L 143.5 174.2 L 137.2 179.7 L 130.5 184.3 L 123.4 187.9 L 122.5 186.4 L 128.2 181.3 L 133.6 175.8 L 138.6 169.8 L 143.2 163.3 L 147.5 156.1 L 149.7885887145996 151.63725204467772 L 148.9 149.6 L 145.6 139.3 L 143.2 128.1 L 141.5 116.1 L 141.34888830184937 113.3152265548706 L 140.2 121.3 L 137.5 134.1 L 134.0 145.8 L 129.9 156.5 L 125.0 166.2 L 119.4 174.7 L 112.9 181.9 L 105.8 187.8 L 104.6 186.5 L 110.1 179.4 L 114.9 171.7 L 119.1 163.2 L 122.8 153.8 L 125.9 143.4 L 128.4 132.1 L 130.3 119.8 L 131.6 106.4 L 132.2 92.1 L 132.2 90.4 L 118.7 90.4 L 118.7 86.4 L 132.2 86.4 L 132.2 44.2 L 144.2 46.2 L 147.2 48.2 L 144.2 50.0 L 144.2 76.8 L 143.83544301986694 86.4 L 162.7 86.4 L 172.7 76.4 L 184.7 86.4 L 184.7 90.4 L 143.6835443496704 90.4 L 143.6 92.6 L 143.4876404762268 93.78780097961426 L 144.9 102.8 L 147.4 115.2 L 150.2 126.5 L 153.6 136.8 L 154.9859211921692 140.06935262680054 L 155.1 139.8 L 158.4 130.7 L 161.3 120.9 L 163.9 110.3 L 163.95568113327028 110.31380128860474 L 164.4 108.6 L 175.6 113.2 L 178.0 115.9 L 174.43052673339844 116.9835901260376 L 172.2 124.2 L 168.5 134.4 L 164.3 143.9 L 160.4268567085266 151.38807706832887 L 161.9 154.1 L 166.8 161.2 L 172.2 167.3 L 178.1 172.4 L 184.5 176.6 L 188.6 179.1 L 177.5 187.8 L 170.1 182.0 Z M 71.7 126.9 L 71.7 146.2 L 96.4 146.2 L 96.4 126.9 Z M 71.7 103.7 L 71.7 122.9 L 96.4 122.9 L 96.4 103.7 Z M 24.3 76.9 L 23.6 73.9 L 22.7 70.9 L 21.7 68.1 L 20.5 65.4 L 19.2 62.7 L 17.8 60.1 L 16.2 57.5 L 14.2 55.3 L 15.3 53.8 L 18.0 55.5 L 20.8 57.2 L 23.5 59.2 L 26.0 61.5 L 28.3 64.1 L 30.4 67.0 L 32.3 70.1 L 34.1 73.4 L 35.7 76.9 L 37.1 80.6 L 36.3 85.1 L 32.6 87.9 L 28.1 87.1 L 25.4 83.4 L 24.9 80.1 Z M 162.0 66.8 L 161.4 64.8 L 160.7 62.7 L 159.8 60.6 L 158.8 58.4 L 157.7 56.3 L 156.4 54.1 L 155.0 51.8 L 153.1 49.9 L 154.2 48.5 L 156.5 50.0 L 159.1 51.3 L 161.4 52.8 L 163.6 54.4 L 165.7 56.2 L 167.7 58.1 L 169.5 60.1 L 171.2 62.3 L 172.7 64.6 L 174.1 67.0 L 173.7 71.5 L 170.4 74.6 L 165.8 74.3 L 162.7 70.9 L 162.4 68.9 Z " />
</g>
</svg>
