<svg xmlns="http://www.w3.org/2000/svg" xmlns:xlink="http://www.w3.org/1999/xlink" version="1.1" baseProfile="full" viewBox="0 0 200 200" width="200" height="200">
<g fill="black">
<path d="M 134.5 111.1 L 137.5 113.1 L 134.1268508911133 115.01806516647339 L 133.5 121.6 L 132.2070707321167 128.0 L 161.4 128.0 L 167.4 123.0 L 178.4 132.0 L 173.6806122779846 134.83163261413574 L 173.7 135.2 L 173.8 140.7 L 173.6 145.9 L 173.1 150.8 L 172.4 155.5 L 171.4 160.0 L 170.1 164.2 L 168.5 168.2 L 166.6 171.9 L 164.4 175.3 L 162.9 177.3 L 161.3 179.0 L 159.5 180.6 L 157.5 182.1 L 155.4 183.3 L 153.3 184.2 L 151.0 185.0 L 148.6 185.5 L 146.2 185.8 L 143.8 186.0 L 143.8 180.0 L 123.8 177.0 L 123.8 174.0 L 143.8 174.0 L 145.2 173.9 L 146.5 173.7 L 147.8 173.4 L 148.9 173.1 L 150.0 172.6 L 151.0 172.0 L 151.9 171.3 L 152.9 170.5 L 153.8 169.5 L 154.7 168.3 L 156.2 165.9 L 157.6 163.2 L 158.8 160.2 L 159.8 156.9 L 160.6 153.3 L 161.2 149.4 L 161.6 145.1 L 161.8 140.5 L 161.78650922775267 139.83895444869995 L 161.4 140.0 L 161.4 132.0 L 131.33510637283325 132.0 L 128.4 140.9 L 124.3 149.6 L 119.2 157.8 L 113.2 165.2 L 106.2 172.0 L 98.3 178.0 L 89.4 183.3 L 79.6 187.7 L 78.8 186.2 L 87.4 180.1 L 95.0 173.8 L 101.6 167.2 L 107.4 160.4 L 112.1 153.1 L 116.0 145.5 L 118.9 137.5 L 121.0 129.1 L 122.2 120.2 L 122.5 110.8 L 122.53028011322021 110.80075702667236 L 122.55454549789428 110.0 L 85.5 110.0 L 85.5 106.0 L 128.9 106.0 L 128.9 81.0 L 140.9 83.0 L 143.9 85.0 L 140.9 86.8 L 140.9 106.0 L 163.3 106.0 L 173.3 96.0 L 185.3 106.0 L 185.3 110.0 L 129.46538457870483 110.0 Z M 58.8 19.5 L 61.2 22.2 L 57.32121210098266 23.30822515487671 L 56.0 26.8 L 54.4 30.4 L 52.7 34.1 L 50.9 37.8 L 49.0 41.5 L 47.0 45.2 L 44.9 48.9 L 41.3972972869873 54.3 L 63.9 54.3 L 69.9 49.3 L 80.9 58.3 L 75.9 62.3 L 75.9 163.6 L 63.9 169.6 L 63.9 157.6 L 30.5 157.6 L 30.5 169.6 L 18.5 175.6 L 18.5 48.3 L 30.5 54.3 L 38.84047622680664 54.3 L 39.6 51.4 L 40.5 47.1 L 41.4 43.0 L 42.4 39.0 L 44.2 31.2 L 45.1 27.4 L 45.9 23.6 L 46.6 19.9 L 47.101862812042235 17.31899137496948 L 47.0 17.3 L 47.7 14.7 Z M 30.5 106.5 L 30.5 153.6 L 63.9 153.6 L 63.9 106.5 Z M 30.5 58.3 L 30.5 102.5 L 63.9 102.5 L 63.9 58.3 Z M 84.9 97.4 L 82.4 93.6 L 83.3 89.1 L 84.7 87.5 L 86.0 85.6 L 87.2 83.6 L 88.2 81.4 L 89.0 79.0 L 89.7 76.3 L 90.2 73.3 L 90.5 70.2 L 90.6 66.7 L 90.1 63.2 L 91.9 62.7 L 93.2 66.2 L 94.5 69.6 L 94.62941179275512 70.0 L 142.2 70.0 L 143.1 68.2 L 145.7 61.6 L 147.0 58.5 L 149.4 52.5 L 150.4 49.6 L 151.4 46.8 L 152.3 44.1 L 152.8207769393921 42.34237785339356 L 152.7 42.3 L 153.0529411315918 41.55882349014282 L 153.1 41.4 L 153.12357139587402 41.41049995422363 L 153.31904764175414 41.0 L 85.5 41.0 L 85.5 37.0 L 128.9 37.0 L 128.9 13.0 L 140.9 15.0 L 143.9 17.0 L 140.9 18.8 L 140.9 37.0 L 161.2 37.0 L 171.2 27.0 L 183.2 37.0 L 183.2 41.0 L 155.0639344215393 41.0 L 164.1 46.3 L 166.0 49.4 L 161.73664503097535 49.91454286575318 L 160.7 51.5 L 158.9 54.1 L 156.9 56.7 L 154.9 59.4 L 152.7 62.0 L 150.4 64.6 L 148.0 67.2 L 145.4 69.7 L 145.13214282989503 70.0 L 171.9 70.0 L 172.48736839294435 69.51052627563476 L 172.8 68.8 L 173.1101351737976 68.99155406951904 L 177.9 65.0 L 188.9 74.0 L 183.9 77.0 L 179.97804880142212 78.63414630889892 L 177.1 81.8 L 172.7 86.0 L 170.5 88.0 L 168.1 90.0 L 165.7 91.9 L 163.1 93.6 L 160.7 95.6 L 159.4 94.3 L 161.2 91.9 L 164.0 86.5 L 165.4 83.9 L 166.8 81.4 L 168.1 78.8 L 169.3 76.3 L 170.4960000038147 74.0 L 95.78181819915771 74.0 L 96.2 76.3 L 96.6 79.7 L 96.6 83.0 L 96.3 86.3 L 95.6 89.5 L 94.6 92.7 L 93.2 95.8 L 89.4 98.3 Z M 114.0 60.8 L 113.5 58.4 L 112.9 56.1 L 112.2 53.8 L 111.4 51.5 L 110.4 49.1 L 109.4 46.8 L 108.2 44.4 L 106.6 42.3 L 107.8 41.0 L 110.0 42.7 L 112.4 44.2 L 114.6 46.0 L 116.7 47.9 L 118.6 50.0 L 120.4 52.2 L 122.1 54.6 L 123.6 57.1 L 125.0 59.8 L 126.2 62.5 L 125.6 67.0 L 122.0 69.9 L 117.4 69.2 L 114.6 65.6 L 114.4 63.2 Z " />
</g>
</svg>
