<svg xmlns="http://www.w3.org/2000/svg" xmlns:xlink="http://www.w3.org/1999/xlink" version="1.1" baseProfile="full" viewBox="0 0 200 200" width="200" height="200">
<g fill="black">
<path d="M 14.0 175.3 L 40.0 175.3 L 40.0 121.2 L 52.0 127.2 L 148.0 127.2 L 154.0 122.2 L 165.0 131.2 L 160.0 135.2 L 160.0 175.3 L 164.0 175.3 L 174.0 165.3 L 186.0 175.3 L 186.0 179.3 L 14.0 179.3 Z M 52.0 131.2 L 52.0 175.3 L 76.0 175.3 L 76.0 131.2 Z M 88.0 131.2 L 88.0 175.3 L 112.0 175.3 L 112.0 131.2 Z M 124.0 131.2 L 124.0 175.3 L 148.0 175.3 L 148.0 131.2 Z M 36.3 118.2 L 24.3 124.2 L 24.3 18.3 L 36.3 24.3 L 78.9 24.3 L 88.9 14.3 L 100.9 24.3 L 100.9 28.3 L 68.5 28.3 L 68.5 48.4 L 84.3 48.4 L 89.8 43.4 L 100.3 52.4 L 95.3 55.9 L 95.3 83.8 L 84.3 89.3 L 84.3 79.8 L 68.5 79.8 L 68.5 102.2 L 81.3 102.2 L 91.3 92.2 L 103.3 102.2 L 103.3 106.2 L 36.3 106.2 Z M 116.7 114.0 L 106.7 119.0 L 106.7 57.7 L 116.7 62.7 L 171.7 62.7 L 177.2 57.7 L 187.7 66.7 L 182.7 70.2 L 182.7 113.0 L 171.7 118.5 L 171.7 107.0 L 116.7 107.0 Z M 116.7 66.7 L 116.7 103.0 L 128.5 103.0 L 128.5 66.7 Z M 138.5 66.7 L 138.5 103.0 L 150.4 103.0 L 150.4 66.7 Z M 160.4 66.7 L 160.4 103.0 L 171.7 103.0 L 171.7 66.7 Z M 36.3 79.8 L 36.3 102.2 L 56.5 102.2 L 56.5 79.8 Z M 36.3 75.8 L 84.3 75.8 L 84.3 52.4 L 36.3 52.4 Z M 36.3 28.3 L 36.3 48.4 L 56.5 48.4 L 56.5 28.3 Z M 103.3 38.6 L 139.0 38.6 L 139.0 16.1 L 151.0 18.1 L 154.0 20.1 L 151.0 21.9 L 151.0 38.6 L 164.6 38.6 L 174.6 28.6 L 186.6 38.6 L 186.6 42.6 L 103.3 42.6 Z " />
</g>
</svg>
