<svg xmlns="http://www.w3.org/2000/svg" xmlns:xlink="http://www.w3.org/1999/xlink" version="1.1" baseProfile="full" viewBox="0 0 200 200" width="200" height="200">
<g fill="black">
<path d="M 14.0 176.0 L 40.0 176.0 L 40.0 124.6 L 52.0 130.6 L 148.0 130.6 L 154.0 125.6 L 165.0 134.6 L 160.0 138.6 L 160.0 176.0 L 164.0 176.0 L 174.0 166.0 L 186.0 176.0 L 186.0 180.0 L 14.0 180.0 Z M 52.0 134.6 L 52.0 176.0 L 76.0 176.0 L 76.0 134.6 Z M 88.0 134.6 L 88.0 176.0 L 112.0 176.0 L 112.0 134.6 Z M 124.0 134.6 L 124.0 176.0 L 148.0 176.0 L 148.0 134.6 Z M 151.6 116.9 L 149.7 118.3 L 147.7 119.6 L 145.6 120.6 L 143.4 121.5 L 141.1 122.1 L 138.8 122.6 L 136.4 122.9 L 134.0 123.0 L 134.0 117.0 L 114.0 114.0 L 114.0 111.0 L 134.0 111.0 L 135.5 110.9 L 136.9 110.7 L 138.2 110.5 L 139.5 110.1 L 140.7 109.6 L 141.9 109.0 L 143.0 108.3 L 144.2 107.5 L 145.2 106.6 L 146.3 105.5 L 149.0 102.3 L 151.5 98.5 L 153.8 94.3 L 155.8 89.6 L 157.7 84.3 L 159.2 78.6 L 160.6 72.4 L 161.6 65.6 L 162.4 58.4 L 162.82077922821045 53.0 L 136.41372547149658 53.0 L 133.8 65.9 L 120.8 69.2 L 131.36175298690796 21.0 L 66.72675161361694 21.0 L 65.3 35.0 L 63.0 49.5 L 60.1 62.8 L 56.6 75.0 L 52.4 86.0 L 47.5 95.8 L 42.0 104.3 L 35.8 111.6 L 28.9 117.4 L 21.4 121.7 L 20.5 120.2 L 26.4 114.5 L 31.7 108.1 L 36.5 100.7 L 40.8 92.3 L 44.5 82.9 L 47.7 72.3 L 50.4 60.6 L 52.5 47.8 L 54.0 33.8 L 54.77837839126587 21.0 L 27.0 21.0 L 27.0 17.0 L 132.0 17.0 L 138.0 12.0 L 149.0 21.0 L 144.0 24.0 L 142.1318263053894 24.77840566635132 L 137.22418298721314 49.0 L 163.0 49.0 L 169.0 44.0 L 180.0 53.0 L 175.0 56.0 L 174.59708032608032 56.167883205413816 L 174.4 59.4 L 173.5 67.2 L 172.4 74.5 L 170.9 81.4 L 169.1 87.9 L 167.0 93.9 L 164.6 99.5 L 161.8 104.7 L 158.6 109.4 L 155.1 113.7 L 153.4 115.4 Z M 63.0 102.2 L 88.0 102.2 L 88.0 77.9 L 69.8 77.9 L 69.8 73.9 L 88.0 73.9 L 88.0 49.9 L 66.6 49.9 L 66.6 45.9 L 99.3 45.9 L 109.3 35.9 L 121.3 45.9 L 121.3 49.9 L 100.0 49.9 L 100.0 73.9 L 103.8777777671814 73.9 L 110.1 66.9 L 118.1 73.9 L 118.1 77.9 L 100.0 77.9 L 100.0 102.2 L 102.9 102.2 L 112.9 92.2 L 124.9 102.2 L 124.9 106.2 L 63.0 106.2 Z " />
</g>
</svg>
