<svg xmlns="http://www.w3.org/2000/svg" xmlns:xlink="http://www.w3.org/1999/xlink" version="1.1" baseProfile="full" viewBox="0 0 200 200" width="200" height="200">
<g fill="black">
<path d="M 101.5 176.0 L 121.5 176.0 L 122.7 175.9 L 123.6 175.7 L 124.5 175.4 L 124.9 175.0 L 125.2 174.1 L 125.4 173.2 L 125.5 172.0 L 125.5 114.0 L 76.4 114.0 L 76.4 110.0 L 125.5 110.0 L 125.5 64.0 L 81.7 64.0 L 81.7 60.0 L 141.5645161628723 60.0 L 142.9 55.4 L 144.7 49.5 L 149.8 34.2 L 151.2 29.9 L 152.6 25.8 L 153.7 22.1 L 154.8 18.7 L 155.35549602508544 16.616890048980714 L 155.3 16.6 L 155.48837213516236 16.11860466003418 L 155.6 15.7 L 155.6452220916748 15.717765808105469 L 156.2 14.3 L 166.8 20.1 L 168.9 23.0 L 164.93701066970826 23.68327398300171 L 163.6 26.2 L 161.8 29.7 L 159.7 33.5 L 157.5 37.6 L 155.0 42.0 L 152.4 46.7 L 149.5 51.7 L 146.3 56.9 L 144.23333330154418 60.0 L 159.2 60.0 L 169.2 50.0 L 181.2 60.0 L 181.2 64.0 L 137.5 64.0 L 137.5 110.0 L 164.5 110.0 L 174.5 100.0 L 186.5 110.0 L 186.5 114.0 L 137.5 114.0 L 137.5 172.0 L 137.3 174.5 L 136.9 177.0 L 136.1 179.4 L 134.8 181.7 L 133.2 183.7 L 131.2 185.3 L 128.9 186.6 L 126.5 187.4 L 124.0 187.8 L 121.5 188.0 L 121.5 182.0 L 101.5 179.0 Z M 31.1 33.4 L 58.3 33.4 L 64.3 28.4 L 75.3 37.4 L 70.3 41.4 L 70.3 155.9 L 58.3 161.9 L 58.3 149.9 L 31.1 149.9 L 31.1 161.9 L 19.1 167.9 L 19.1 27.4 Z M 31.1 110.8 L 31.1 145.9 L 58.3 145.9 L 58.3 110.8 Z M 31.1 74.1 L 31.1 106.8 L 58.3 106.8 L 58.3 74.1 Z M 31.1 37.4 L 31.1 70.1 L 58.3 70.1 L 58.3 37.4 Z M 108.7 47.2 L 108.0 43.8 L 107.2 40.3 L 106.2 36.8 L 105.1 33.2 L 103.7 29.6 L 102.2 25.9 L 100.6 22.1 L 98.6 18.3 L 100.0 17.2 L 103.1 20.3 L 106.1 23.4 L 108.8 26.7 L 111.3 30.0 L 113.5 33.5 L 115.5 37.1 L 117.3 40.7 L 118.8 44.4 L 120.1 48.2 L 121.2 52.1 L 120.1 56.5 L 116.2 58.9 L 111.8 57.8 L 109.3 53.9 L 109.1 50.6 Z " />
</g>
</svg>
