<svg xmlns="http://www.w3.org/2000/svg" xmlns:xlink="http://www.w3.org/1999/xlink" version="1.1" baseProfile="full" viewBox="0 0 200 200" width="200" height="200">
<g fill="black">
<path d="M 122.6 89.1 L 125.2 91.6 L 121.66280908584595 92.8862512588501 L 120.1 99.2 L 117.1 109.1 L 113.6 118.7 L 109.7 128.1 L 105.2 137.2 L 100.4 146.1 L 95.0 154.7 L 89.1 163.0 L 82.7 171.0 L 75.7 178.5 L 74.2 177.4 L 79.6 168.7 L 84.6 160.1 L 89.3 151.4 L 93.6 142.6 L 97.6 133.7 L 101.1 124.6 L 104.1 115.4 L 106.8 106.0 L 109.0 96.5 L 110.70403728485107 87.80044107437134 L 110.7 87.8 L 111.2 84.9 Z M 171.1 153.8 L 168.6 145.2 L 165.9 136.6 L 163.0 128.1 L 159.8 119.6 L 156.5 111.3 L 153.0 102.9 L 149.4 94.6 L 145.7 86.3 L 147.2 85.3 L 152.7 92.8 L 157.7 100.5 L 162.4 108.4 L 166.8 116.5 L 170.8 124.8 L 174.6 133.3 L 178.1 141.9 L 181.3 150.6 L 184.3 159.5 L 187.0 168.6 L 186.3 173.1 L 182.7 175.9 L 178.2 175.1 L 175.4 171.5 L 173.4 162.6 Z M 30.9 33.4 L 61.0 33.4 L 67.0 28.4 L 78.0 37.4 L 73.0 41.4 L 73.0 153.9 L 61.0 159.9 L 61.0 149.9 L 30.9 149.9 L 30.9 161.9 L 18.9 167.9 L 18.9 27.4 Z M 30.9 110.8 L 30.9 145.9 L 61.0 145.9 L 61.0 110.8 Z M 30.9 74.1 L 30.9 106.8 L 61.0 106.8 L 61.0 74.1 Z M 30.9 37.4 L 30.9 70.1 L 61.0 70.1 L 61.0 37.4 Z M 85.0 59.0 L 128.0 59.0 L 128.0 15.0 L 140.0 17.0 L 143.0 19.0 L 140.0 20.8 L 140.0 59.0 L 165.0 59.0 L 175.0 49.0 L 187.0 59.0 L 187.0 63.0 L 85.0 63.0 Z " />
</g>
</svg>
