<svg xmlns="http://www.w3.org/2000/svg" xmlns:xlink="http://www.w3.org/1999/xlink" version="1.1" baseProfile="full" viewBox="0 0 200 200" width="200" height="200">
<g fill="black">
<path d="M 82.0 66.0 L 82.0 70.0 L 51.1 70.0 L 51.1 183.5 L 41.1 188.5 L 41.1 70.0 L 14.1 70.0 L 14.1 66.0 L 60.0 66.0 L 70.0 56.0 Z M 181.2 163.8 L 183.2 163.8 L 181.2 176.8 L 183.9 178.6 L 185.7 181.3 L 183.9 184.0 L 181.2 185.8 L 98.9 185.8 L 96.6 185.5 L 94.3 184.8 L 92.2 183.8 L 90.3 182.4 L 88.6 180.6 L 87.4 178.5 L 86.5 176.2 L 86.0 173.8 L 85.8 171.3 L 85.8 16.3 L 96.8 18.3 L 99.5 20.3 L 96.8 22.02340421676636 L 96.8 173.6 L 97.0 174.4 L 97.1 174.9 L 97.3 175.3 L 97.6 175.6 L 98.1 176.0 L 98.8 176.4 L 99.9 176.7 L 101.3 176.8 L 176.7 176.8 Z M 32.1 88.0 L 34.8 90.0 L 32.1 91.72340421676635 L 32.1 120.0 L 31.7 128.2 L 31.0 135.9 L 30.0 143.0 L 28.8 149.4 L 27.2 155.3 L 25.4 160.6 L 23.2 165.2 L 20.7 169.1 L 17.9 172.3 L 14.7 174.5 L 13.5 173.4 L 15.1 170.2 L 16.4 166.8 L 17.7 162.9 L 18.8 158.5 L 19.7 153.6 L 20.4 148.1 L 20.9 141.9 L 21.2 135.2 L 21.2 127.9 L 21.1 120.0 L 21.1 86.0 Z M 115.9 27.2 L 166.5 27.2 L 172.5 22.2 L 183.5 31.2 L 178.5 35.2 L 178.5 165.8 L 166.5 171.8 L 166.5 165.8 L 115.9 165.8 L 104.9 171.3 L 104.9 21.7 Z M 115.9 119.0 L 115.9 161.8 L 166.5 161.8 L 166.5 119.0 Z M 72.6 88.0 L 75.4 90.0 L 72.6 91.75 L 72.6 155.2 L 61.6 160.7 L 61.6 86.0 Z M 115.9 75.1 L 115.9 115.0 L 166.5 115.0 L 166.5 75.1 Z M 115.9 31.2 L 115.9 71.1 L 166.5 71.1 L 166.5 31.2 Z M 73.4 30.0 L 73.4 34.0 L 21.9 34.0 L 21.9 30.0 L 51.4 30.0 L 61.4 20.0 Z " />
</g>
</svg>
