<svg xmlns="http://www.w3.org/2000/svg" xmlns:xlink="http://www.w3.org/1999/xlink" version="1.1" baseProfile="full" viewBox="0 0 200 200" width="200" height="200">
<g fill="black">
<path d="M 162.7 165.2 L 156.2 154.2 L 151.9727572441101 145.16244649887085 L 147.7 152.8 L 138.8 165.0 L 128.9 175.2 L 118.0 183.1 L 106.3 188.8 L 105.5 187.1 L 115.8 180.0 L 125.1 171.3 L 133.6 161.0 L 141.2 148.9 L 147.97111549377442 134.95946807861327 L 145.5 128.0 L 141.4 112.8 L 138.0 96.2 L 135.5 78.2 L 133.8 58.8 L 133.22884616851806 39.0 L 120.0 39.0 L 120.0 35.0 L 169.0 35.0 L 175.0 30.0 L 186.0 39.0 L 181.0 42.0 L 180.36749629974366 42.26354322433472 L 177.8 61.6 L 173.7 83.7 L 168.7 103.9 L 162.7 122.2 L 157.93545227050782 133.29458971023558 L 159.8 137.6 L 165.8 148.8 L 172.3 158.3 L 179.3 166.3 L 186.7 172.8 L 189.3 174.9 L 178.5 183.1 L 170.1 174.9 Z M 112.1 149.2 L 109.0 144.7 L 106.03545293807983 141.03791246414184 L 100.3 152.7 L 93.4 163.7 L 85.7 173.4 L 77.0 181.7 L 67.6 188.7 L 66.5 187.2 L 74.4 179.0 L 81.5 170.0 L 87.9 160.1 L 93.5 149.3 L 98.5 137.4 L 99.47722787857056 134.30147256851197 L 98.0 132.9 L 93.8 129.5 L 89.4 126.2 L 85.11406183242798 123.43199825286865 L 83.1 135.9 L 70.4 140.0 L 82.56000003814697 64.0 L 68.1 64.0 L 68.1 60.0 L 83.2 60.0 L 90.4 15.0 L 102.0 18.9 L 104.6 21.3 L 101.44904327392578 22.310684204101562 L 95.36076927185059 60.0 L 111.8 60.0 L 117.8 55.0 L 128.8 64.0 L 123.8 67.0 L 123.30670557022094 67.20553932189941 L 122.0 80.2 L 119.3 97.0 L 115.8 112.7 L 111.5 127.2 L 109.64804906845093 131.9367205619812 L 112.2 134.0 L 116.6 138.2 L 120.7 142.9 L 124.6 148.0 L 128.1 153.5 L 128.5 158.0 L 125.7 161.6 L 121.1 162.0 L 117.6 159.2 L 114.9 154.0 Z M 28.6 33.4 L 53.3 33.4 L 59.3 28.4 L 70.3 37.4 L 65.3 41.4 L 65.3 155.9 L 53.3 161.9 L 53.3 149.9 L 28.6 149.9 L 28.6 161.9 L 16.6 167.9 L 16.6 27.4 Z M 28.6 110.8 L 28.6 145.9 L 53.3 145.9 L 53.3 110.8 Z M 94.71461534500122 64.0 L 85.74456033706664 119.52891206741333 L 86.1 119.6 L 91.8 121.5 L 97.3 123.9 L 101.94133853912354 126.48843879699707 L 102.6 124.4 L 106.1 110.4 L 108.7 95.2 L 110.7 79.0 L 111.64827585220337 64.0 Z M 135.16097564697264 39.0 L 138.0 58.4 L 141.3 77.3 L 145.1 94.8 L 149.4 110.6 L 153.07219848632812 121.31682424545288 L 153.9 119.1 L 159.0 101.3 L 163.2 81.6 L 166.6 60.0 L 168.82457628250123 39.0 Z M 28.6 74.1 L 28.6 106.8 L 53.3 106.8 L 53.3 74.1 Z M 28.6 37.4 L 28.6 70.1 L 53.3 70.1 L 53.3 37.4 Z " />
</g>
</svg>
