<svg xmlns="http://www.w3.org/2000/svg" xmlns:xlink="http://www.w3.org/1999/xlink" version="1.1" baseProfile="full" viewBox="0 0 200 200" width="200" height="200">
<g fill="black">
<path d="M 54.9 141.8 L 145.0 141.8 L 151.0 136.8 L 162.0 145.8 L 157.0 149.8 L 157.0 180.7 L 145.0 186.7 L 145.0 176.7 L 54.9 176.7 L 54.9 183.7 L 42.9 189.7 L 42.9 135.8 Z M 54.9 145.8 L 54.9 172.7 L 145.0 172.7 L 145.0 145.8 Z M 83.2 113.6 L 85.3 116.5 L 80.91711158752442 117.26892776489258 L 80.4 118.1 L 76.6 122.0 L 72.0 125.2 L 66.5 128.0 L 60.2 130.3 L 53.0 132.3 L 44.9 134.0 L 35.9 135.4 L 25.9 136.3 L 15.1 136.8 L 14.8 135.1 L 25.4 132.6 L 34.9 130.1 L 43.3 127.7 L 50.7 125.1 L 57.1 122.4 L 62.3 119.7 L 66.4 116.9 L 69.3 114.1 L 71.1 111.6 L 71.60782461166382 110.30222597122193 L 71.6 110.3 L 72.5 107.9 Z M 127.6 132.2 L 125.4 132.0 L 123.2 131.5 L 121.1 130.7 L 119.1 129.4 L 117.4 127.7 L 116.0 125.7 L 115.0 123.5 L 114.3 121.1 L 114.0 118.5 L 114.0 107.6 L 31.756666660308838 107.6 L 31.8 108.9 L 31.4 111.8 L 30.6 114.6 L 29.3 117.3 L 27.5 119.9 L 25.3 122.1 L 22.7 124.1 L 19.7 125.8 L 15.2 125.4 L 12.1 122.0 L 12.5 117.5 L 15.8 114.4 L 17.9 114.1 L 19.7 113.5 L 21.3 112.9 L 22.9 112.0 L 24.3 110.9 L 25.6 109.4 L 26.8 107.6 L 27.9 105.4 L 28.9 102.7 L 29.1 99.8 L 30.9 99.7 L 31.2 102.8 L 31.329032230377198 103.6 L 94.0 103.6 L 94.0 88.8 L 106.0 90.8 L 109.0 92.8 L 106.0 94.6 L 106.0 103.6 L 171.0 103.6 L 171.52941179275513 103.15882349014282 L 172.0 102.5 L 172.9 101.1 L 173.37444086074828 101.62129926681519 L 177.0 98.6 L 188.0 107.6 L 183.0 110.6 L 171.0 115.6 L 171.0 114.94583330154418 L 168.7 116.0 L 166.1 117.1 L 163.3 118.3 L 160.3 119.4 L 157.4 120.9 L 156.5 119.4 L 159.0 117.4 L 161.1 115.0 L 163.2 112.9 L 165.0 110.9 L 166.8 109.0 L 167.9666666984558 107.6 L 126.0 107.6 L 126.0 118.5 L 125.8 119.8 L 125.7 120.8 L 125.7 122.2 L 125.8 122.7 L 126.0 123.2 L 126.5 123.7 L 127.3 124.2 L 128.5 124.7 L 130.0 125.0 L 174.5 125.0 L 178.0 120.0 L 180.0 120.0 L 178.0 125.0 L 180.1 126.4 L 181.5 128.5 L 180.1 130.6 L 178.0 132.0 L 130.0 132.0 Z M 122.0 23.2 L 161.9 23.2 L 167.9 18.2 L 178.9 27.2 L 173.9 31.2 L 173.9 85.0 L 161.9 91.0 L 161.9 81.0 L 122.0 81.0 L 122.0 88.0 L 110.0 94.0 L 110.0 17.2 Z M 38.0 23.2 L 77.9 23.2 L 83.9 18.2 L 94.9 27.2 L 89.9 31.2 L 89.9 85.0 L 77.9 91.0 L 77.9 81.0 L 38.0 81.0 L 38.0 84.0 L 26.0 90.0 L 26.0 17.2 Z M 122.0 62.3 L 122.0 77.0 L 161.9 77.0 L 161.9 62.3 Z M 38.0 62.3 L 38.0 77.0 L 77.9 77.0 L 77.9 62.3 Z M 122.0 44.7 L 122.0 58.3 L 161.9 58.3 L 161.9 44.7 Z M 38.0 44.7 L 38.0 58.3 L 77.9 58.3 L 77.9 44.7 Z M 122.0 27.2 L 122.0 40.7 L 161.9 40.7 L 161.9 27.2 Z M 38.0 27.2 L 38.0 40.7 L 77.9 40.7 L 77.9 27.2 Z " />
</g>
</svg>
