<svg xmlns="http://www.w3.org/2000/svg" xmlns:xlink="http://www.w3.org/1999/xlink" version="1.1" baseProfile="full" viewBox="0 0 200 200" width="200" height="200">
<g fill="black">
<path d="M 164.3 104.3 L 158.4 98.3 L 153.2 91.6 L 152.75218801498414 90.90881185531616 L 146.5 98.7 L 139.6 106.0 L 132.1 112.5 L 126.18534030914307 116.69267015457153 L 137.2 122.2 L 164.4 122.2 L 170.4 117.2 L 181.4 126.2 L 176.4 130.2 L 176.4 177.7 L 164.4 183.7 L 164.4 173.7 L 137.2 173.7 L 137.2 180.7 L 125.2 186.7 L 125.2 117.39113922119141 L 124.2 118.1 L 115.7 122.7 L 114.8 121.2 L 115.03278684616089 121.0 L 98.9 121.0 L 98.9 156.71176471710206 L 101.6 155.6 L 106.9 153.4 L 112.2 151.3 L 117.6 149.2 L 118.5 150.7 L 114.1 154.5 L 109.5 158.1 L 104.7 161.4 L 99.9 164.5 L 95.1 167.4 L 90.1 170.2 L 85.2 172.9 L 80.2 175.5 L 75.1 177.9 L 73.82941179275512 178.4730103492737 L 72.9 182.3 L 70.0 180.2 L 63.9 169.7 L 65.8 169.0 L 70.4 167.4666666984558 L 70.4 101.0 L 80.4 103.0 L 82.9 105.0 L 80.4 106.66666669845581 L 80.4 163.9607843399048 L 86.2 161.8 L 87.9 161.13333330154418 L 87.9 80.0 L 80.9 80.0 L 80.9 83.0 L 69.9 88.5 L 69.9 22.5 L 80.9 28.0 L 103.6 28.0 L 109.6 23.0 L 120.6 32.0 L 115.6 36.0 L 115.6 80.0 L 103.6 86.0 L 103.6 80.0 L 98.9 80.0 L 98.9 117.0 L 102.6777777671814 117.0 L 108.9 110.0 L 116.9 117.0 L 116.9 119.39577465057373 L 121.9 115.1 L 128.5 108.6 L 134.8 101.6 L 140.6 94.0 L 146.0 85.8 L 147.7038190841675 82.77485179901123 L 144.6 76.8 L 141.3 68.7 L 138.6 60.0 L 137.01357374191284 52.70243902206421 L 136.6 53.8 L 133.8 60.5 L 130.7 66.9 L 127.4 73.1 L 123.7 78.9 L 119.6 84.4 L 118.1 83.5 L 120.3 77.2 L 122.5 70.8 L 124.6 64.4 L 126.6 57.8 L 128.5 51.1 L 130.3 44.2 L 131.8 37.2 L 133.2 30.0 L 134.4 22.6 L 135.35466966629028 16.004100227355956 L 135.3 16.0 L 135.8 13.0 L 147.3 16.9 L 150.0 19.4 L 146.46058988571167 20.751411151885986 L 145.6 24.7 L 143.7 32.3 L 142.8972972869873 35.0 L 166.0 35.0 L 172.0 30.0 L 183.0 39.0 L 178.0 42.0 L 176.4648648262024 42.639639663696286 L 173.9 50.4 L 169.4 61.6 L 164.4 72.0 L 159.0 81.6 L 158.63511447906495 82.1473282814026 L 161.2 85.3 L 166.4 90.6 L 172.0 95.4 L 177.9 99.6 L 184.3 103.2 L 188.9 105.9 L 177.7 114.7 L 170.7 109.8 Z M 137.2 126.2 L 137.2 169.7 L 164.4 169.7 L 164.4 126.2 Z M 30.4 33.4 L 50.6 33.4 L 55.6 28.4 L 65.6 37.4 L 60.6 40.4 L 60.6 155.9 L 50.6 160.9 L 50.6 149.9 L 30.4 149.9 L 30.4 161.9 L 18.4 167.9 L 18.4 27.4 Z M 30.4 110.8 L 30.4 145.9 L 50.6 145.9 L 50.6 110.8 Z M 30.4 74.1 L 30.4 106.8 L 50.6 106.8 L 50.6 74.1 Z M 80.9 32.0 L 80.9 76.0 L 103.6 76.0 L 103.6 32.0 Z M 141.70810813903807 39.0 L 141.5 39.7 L 139.37381916046144 46.35587043762207 L 140.6 49.7 L 144.1 58.0 L 147.9 65.8 L 152.0 72.9 L 152.52329349517822 73.67304716110229 L 155.4 67.6 L 159.4 57.5 L 163.1 46.8 L 165.27043476104737 39.0 Z M 30.4 37.4 L 30.4 70.1 L 50.6 70.1 L 50.6 37.4 Z " />
</g>
</svg>
