<svg xmlns="http://www.w3.org/2000/svg" xmlns:xlink="http://www.w3.org/1999/xlink" version="1.1" baseProfile="full" viewBox="0 0 200 200" width="200" height="200">
<g fill="black">
<path d="M 29.0 33.4 L 56.0 33.4 L 62.0 28.4 L 73.0 37.4 L 68.0 41.4 L 68.0 121.08500003814697 L 71.8 115.1 L 75.7 108.7 L 79.6 102.4 L 83.3 95.9 L 86.9 89.2 L 90.4 82.5 L 93.7 75.5 L 96.8 68.4 L 99.8 61.1 L 102.22394590377807 54.607287883758545 L 102.2 54.6 L 103.1 52.3 L 113.7 58.1 L 115.8 61.1 L 112.05047645568848 61.68182258605957 L 110.2 65.7 L 106.5 73.0 L 102.6 80.1 L 98.5 87.0 L 94.2 93.6 L 92.49020977020264 96.03170166015624 L 98.3 97.0 L 101.3 99.0 L 98.3 100.8 L 98.3 182.0 L 86.3 188.0 L 86.3 104.41276597976685 L 85.0 106.1 L 80.0 112.0 L 74.7 117.4 L 69.1 122.5 L 68.0 121.5692307472229 L 68.0 155.9 L 56.0 161.9 L 56.0 149.9 L 29.0 149.9 L 29.0 161.9 L 17.0 167.9 L 17.0 27.4 Z M 105.5 168.0 L 119.0 168.0 L 119.0 74.0 L 131.0 76.0 L 134.0 78.0 L 131.0 79.8 L 131.0 168.0 L 143.5 168.0 L 143.5 34.0 L 109.5 34.0 L 109.5 30.0 L 165.5 30.0 L 175.5 20.0 L 187.5 30.0 L 187.5 34.0 L 155.5 34.0 L 155.5 95.0 L 167.7777777671814 95.0 L 174.0 88.0 L 182.0 95.0 L 182.0 99.0 L 155.5 99.0 L 155.5 168.0 L 169.5 168.0 L 179.5 158.0 L 191.5 168.0 L 191.5 172.0 L 105.5 172.0 Z M 29.0 110.8 L 29.0 145.9 L 56.0 145.9 L 56.0 110.8 Z M 29.0 74.1 L 29.0 106.8 L 56.0 106.8 L 56.0 74.1 Z M 108.6 20.2 L 110.6 23.2 L 106.92765474319458 23.706530380249024 L 105.5 26.7 L 102.2 33.0 L 98.8 39.1 L 95.2 45.0 L 91.6 50.6 L 87.7 56.0 L 83.8 61.1 L 79.6 65.9 L 75.3 70.4 L 70.7 74.5 L 69.3 73.4 L 75.3 62.8 L 78.3 57.4 L 81.3 51.9 L 84.2 46.3 L 87.1 40.5 L 89.8 34.5 L 92.5 28.4 L 95.1 22.1 L 97.24787044525146 16.515536880493165 L 97.2 16.5 L 98.1 14.3 Z M 29.0 37.4 L 29.0 70.1 L 56.0 70.1 L 56.0 37.4 Z " />
</g>
</svg>
