<svg xmlns="http://www.w3.org/2000/svg" xmlns:xlink="http://www.w3.org/1999/xlink" version="1.1" baseProfile="full" viewBox="0 0 200 200" width="200" height="200">
<g fill="black">
<path d="M 151.0 176.0 L 167.0 176.0 L 168.2 175.9 L 169.1 175.7 L 170.0 175.4 L 170.4 175.0 L 170.7 174.1 L 170.9 173.2 L 171.0 172.0 L 171.0 141.0 L 144.0 141.0 L 144.0 157.48571424484254 L 146.0 157.2 L 151.0 156.7 L 155.8 156.3 L 156.4547059059143 156.27327728271484 L 156.2 155.4 L 155.4 152.9 L 154.4 150.4 L 153.4 147.7 L 151.9 145.3 L 153.3 144.1 L 155.4 146.2 L 157.7 148.1 L 159.8 150.1 L 161.7 152.3 L 163.5 154.5 L 165.2 156.8 L 166.7 159.2 L 168.0 161.7 L 169.2 164.2 L 170.2 166.8 L 169.3 171.3 L 165.5 173.9 L 161.1 173.0 L 158.5 169.2 L 158.4 167.0 L 158.2 164.8 L 157.9 162.5 L 157.5 160.2 L 157.37777776718139 159.7111110687256 L 156.8 160.0 L 152.2 161.9 L 147.5 163.6 L 142.7 165.3 L 132.9 168.3 L 127.8 169.7 L 122.6 171.1 L 116.08240947723388 172.6986542701721 L 114.5 176.3 L 112.0 173.7 L 107.9 162.2 L 109.9 161.9 L 115.3 161.2 L 120.6 160.5 L 125.8 159.9 L 131.0 159.2 L 132.0 159.06000003814697 L 132.0 141.0 L 105.0 141.0 L 105.0 183.0 L 93.0 189.0 L 93.0 131.0 L 105.0 137.0 L 132.0 137.0 L 132.0 124.6 L 113.6 124.6 L 101.6 130.6 L 101.6 92.8 L 104.6 94.3 L 104.6 59.3 L 116.6 65.3 L 132.0 65.3 L 132.0 51.0 L 144.0 53.0 L 147.0 55.0 L 144.0 56.8 L 144.0 65.3 L 159.3 65.3 L 165.3 60.3 L 176.3 69.3 L 171.3 73.3 L 171.3 88.4 L 159.3 94.4 L 159.3 88.4 L 144.0 88.4 L 144.0 98.8 L 162.4 98.8 L 168.4 93.8 L 179.4 102.8 L 174.4 106.8 L 174.4 124.6 L 162.4 130.6 L 162.4 124.6 L 144.0 124.6 L 144.0 137.0 L 171.0 137.0 L 177.0 132.0 L 188.0 141.0 L 183.0 145.0 L 183.0 172.0 L 182.8 174.5 L 182.4 177.0 L 181.6 179.4 L 180.3 181.7 L 178.7 183.7 L 176.7 185.3 L 174.4 186.6 L 172.0 187.4 L 169.5 187.8 L 167.0 188.0 L 167.0 182.0 L 151.0 179.0 Z M 91.0 23.0 L 170.0 23.0 L 176.0 18.0 L 187.0 27.0 L 182.0 31.0 L 182.0 50.0 L 170.0 56.0 L 170.0 48.0 L 91.0 48.0 L 91.0 72.0 L 90.4 88.0 L 89.3 103.2 L 87.7 117.3 L 85.5 130.4 L 82.8 142.6 L 79.6 153.8 L 75.8 163.9 L 71.4 172.9 L 66.3 180.8 L 60.7 187.5 L 59.2 186.4 L 63.1 178.9 L 66.5 170.7 L 69.6 161.6 L 72.3 151.7 L 74.6 140.8 L 76.4 129.0 L 77.7 116.2 L 78.6 102.4 L 79.0 87.7 L 79.0 17.0 Z M 27.6 33.4 L 52.3 33.4 L 58.3 28.4 L 69.3 37.4 L 64.3 41.4 L 64.3 153.9 L 52.3 159.9 L 52.3 149.9 L 27.6 149.9 L 27.6 161.9 L 15.6 167.9 L 15.6 27.4 Z M 27.6 110.8 L 27.6 145.9 L 52.3 145.9 L 52.3 110.8 Z M 113.6 102.8 L 113.6 120.6 L 132.0 120.6 L 132.0 102.8 Z M 144.0 102.8 L 144.0 120.6 L 162.4 120.6 L 162.4 102.8 Z M 27.6 74.1 L 27.6 106.8 L 52.3 106.8 L 52.3 74.1 Z M 116.6 88.4 L 104.7 94.35 L 113.6 98.8 L 132.0 98.8 L 132.0 88.4 Z M 116.6 69.3 L 116.6 84.4 L 132.0 84.4 L 132.0 69.3 Z M 144.0 69.3 L 144.0 84.4 L 159.3 84.4 L 159.3 69.3 Z M 27.6 37.4 L 27.6 70.1 L 52.3 70.1 L 52.3 37.4 Z M 91.0 27.0 L 91.0 44.0 L 170.0 44.0 L 170.0 27.0 Z " />
</g>
</svg>
