<svg xmlns="http://www.w3.org/2000/svg" xmlns:xlink="http://www.w3.org/1999/xlink" version="1.1" baseProfile="full" viewBox="0 0 200 200" width="200" height="200">
<g fill="black">
<path d="M 119.0 144.3 L 154.3 144.3 L 160.3 139.3 L 171.3 148.3 L 166.3 152.3 L 166.3 181.3 L 154.3 187.3 L 154.3 177.3 L 119.0 177.3 L 119.0 184.3 L 107.0 190.3 L 107.0 138.3 Z M 119.0 148.3 L 119.0 173.3 L 154.3 173.3 L 154.3 148.3 Z M 28.6 33.4 L 53.3 33.4 L 59.3 28.4 L 70.3 37.4 L 65.3 41.4 L 65.3 155.9 L 53.3 161.9 L 53.3 149.9 L 28.6 149.9 L 28.6 161.9 L 16.6 167.9 L 16.6 27.4 Z M 28.6 110.8 L 28.6 145.9 L 53.3 145.9 L 53.3 110.8 Z M 162.6 107.9 L 164.8 110.8 L 160.30157480239868 111.730708694458 L 160.2 111.9 L 158.8 114.1 L 157.3 116.4 L 155.7 118.8 L 153.9 121.3 L 152.0 123.9 L 150.0 126.7 L 147.7 129.5 L 147.312903213501 130.1 L 162.11818180084228 130.1 L 170.3 121.1 L 180.3 130.1 L 180.3 134.1 L 93.0 134.1 L 93.0 130.1 L 144.71176471710206 130.1 L 145.4 128.3 L 146.3 124.8 L 147.2 121.6 L 148.1 118.5 L 148.8 115.7 L 149.5 113.0 L 150.1 110.5 L 150.6 108.1 L 150.9 106.0 L 151.05888891220093 104.94074077606201 L 150.9 104.9 L 151.7 102.5 Z M 117.7 121.0 L 117.5 119.0 L 117.2 117.0 L 116.8 115.0 L 116.3 113.0 L 115.7 110.9 L 115.0 108.9 L 114.3 106.7 L 113.0 104.9 L 114.4 103.7 L 116.0 105.3 L 118.0 106.7 L 119.9 108.2 L 121.6 109.9 L 123.2 111.7 L 124.7 113.6 L 126.1 115.6 L 127.4 117.8 L 128.5 120.0 L 129.5 122.3 L 128.7 126.8 L 125.0 129.5 L 120.5 128.7 L 117.8 124.9 L 117.8 122.9 Z M 28.6 74.1 L 28.6 106.8 L 53.3 106.8 L 53.3 74.1 Z M 98.7 98.1 L 130.7 98.1 L 130.7 82.4 L 142.7 84.4 L 145.7 86.4 L 142.7 88.2 L 142.7 98.1 L 152.7 98.1 L 162.7 88.1 L 174.7 98.1 L 174.7 102.1 L 98.7 102.1 Z M 177.1 66.0 L 179.1 66.0 L 177.1 75.0 L 179.5 76.6 L 181.1 79.0 L 179.5 81.4 L 177.1 83.0 L 151.8 83.0 L 149.5 82.8 L 147.3 82.3 L 145.1 81.3 L 143.2 80.0 L 141.5 78.2 L 140.1 76.2 L 139.2 73.9 L 138.5 71.5 L 138.2 69.0 L 138.2 58.0 L 131.33999996185304 58.0 L 129.5 62.6 L 127.1 67.4 L 124.3 71.8 L 121.1 75.9 L 117.6 79.7 L 113.7 83.1 L 109.4 86.2 L 104.8 88.8 L 99.9 91.0 L 94.6 92.8 L 93.8 91.1 L 98.0 87.9 L 101.9 84.5 L 105.4 81.2 L 108.5 77.7 L 111.3 74.2 L 113.7 70.5 L 115.7 66.7 L 117.4 62.7 L 118.8 58.6 L 118.9384614944458 58.0 L 93.4 58.0 L 93.4 108.0 L 93.29158878326416 108.16261682510375 L 92.7 119.6 L 91.7 130.5 L 90.3 140.6 L 88.5 149.9 L 86.3 158.4 L 83.7 166.2 L 80.7 173.2 L 77.2 179.3 L 73.3 184.4 L 68.8 188.5 L 67.5 187.4 L 70.1 182.3 L 72.5 176.8 L 74.6 170.7 L 76.5 163.9 L 78.1 156.5 L 79.4 148.3 L 80.4 139.3 L 81.0 129.6 L 81.3 119.1 L 81.4 107.9 L 81.4 61.2 L 79.1 63.7 L 74.1 68.3 L 68.8 72.6 L 67.5 71.3 L 71.3 65.8 L 74.9 60.3 L 78.4 54.8 L 81.4 49.709090900421145 L 81.4 48.0 L 82.148965549469 48.37448272705078 L 84.8 43.5 L 87.7 37.7 L 90.4 31.7 L 92.9 25.6 L 95.1 19.4 L 96.8174020767212 13.904313373565675 L 96.8 13.9 L 97.6 11.5 L 108.5 16.8 L 110.6 19.7 L 106.96856155395508 20.4645133972168 L 105.7 23.5 L 103.121875 29.0 L 142.3 29.0 L 142.81844663619995 28.567961120605467 L 142.9 28.3 L 143.0510489463806 28.37412586212158 L 148.3 24.0 L 159.3 33.0 L 154.3 36.0 L 150.93478260040283 37.40217390060425 L 150.5 38.0 L 148.7 40.2 L 146.8 42.4 L 144.8 44.7 L 142.7 47.0 L 140.5 49.3 L 138.2 51.6 L 135.6 53.9 L 135.5115385055542 54.0 L 166.4181818008423 54.0 L 174.6 45.0 L 184.6 54.0 L 184.6 58.0 L 150.2 58.0 L 150.2 69.0 L 150.1 70.2 L 150.0 71.2 L 150.1 71.9 L 150.1 72.5 L 150.2 72.9 L 150.5 73.4 L 150.9 73.8 L 151.7 74.3 L 152.8 74.7 L 154.2 75.0 L 173.1 75.0 Z M 28.6 37.4 L 28.6 70.1 L 53.3 70.1 L 53.3 37.4 Z M 99.4 36.1 L 95.9 42.1 L 92.1 47.9 L 89.14039735794067 51.87019863128662 L 93.4 54.0 L 132.59333333969116 54.0 L 133.5 52.4 L 134.8 49.3 L 136.1 46.3 L 137.3 43.4 L 139.5 38.0 L 140.5 35.4 L 141.4 33.0 L 101.05 33.0 Z " />
</g>
</svg>
