<svg xmlns="http://www.w3.org/2000/svg" xmlns:xlink="http://www.w3.org/1999/xlink" version="1.1" baseProfile="full" viewBox="0 0 200 200" width="200" height="200">
<g fill="black">
<path d="M 165.3 150.0 L 167.3 150.0 L 165.3 175.0 L 168.9 177.4 L 171.3 181.0 L 168.9 184.6 L 165.3 187.0 L 127.8 187.0 L 125.2 186.8 L 122.7 186.4 L 120.3 185.6 L 118.1 184.3 L 116.0 182.7 L 114.4 180.7 L 113.2 178.4 L 112.4 176.0 L 111.9 173.5 L 111.8 171.0 L 111.8 122.0 L 123.8 124.0 L 126.8 126.0 L 123.8 127.8 L 123.8 171.0 L 123.9 172.2 L 124.0 173.1 L 124.2 173.7 L 124.4 174.0 L 124.5 174.2 L 124.7 174.4 L 125.1 174.5 L 125.6 174.7 L 126.6 174.9 L 127.8 175.0 L 159.3 175.0 Z M 86.0 36.0 L 86.0 40.0 L 58.903999996185306 40.0 L 56.3 49.3 L 53.2 59.2 L 49.7 69.0 L 45.8 78.5 L 42.82659578323364 85.0 L 65.0 85.0 L 71.0 80.0 L 82.0 89.0 L 77.0 93.0 L 77.0 163.0 L 65.0 169.0 L 65.0 157.0 L 44.3 157.0 L 44.3 169.0 L 32.3 175.0 L 32.3 104.9529411315918 L 31.7 106.0 L 26.3 114.8 L 20.3 123.3 L 13.8 131.5 L 12.3 130.4 L 17.0 121.3 L 21.6 112.1 L 25.9 103.0 L 30.0 93.8 L 32.3 88.01891889572144 L 32.3 88.0 L 32.30752687454223 88.0 L 33.7 84.5 L 37.1 75.1 L 40.2 65.7 L 42.9 56.1 L 45.3 46.4 L 46.67142858505249 40.0 L 17.7 40.0 L 17.7 36.0 L 64.0 36.0 L 74.0 26.0 Z M 85.5 174.5 L 82.9 170.7 L 83.7 166.2 L 85.5 163.8 L 87.2 161.0 L 88.8 158.0 L 90.3 154.7 L 91.7 151.2 L 93.0 147.3 L 94.1 143.1 L 95.2 138.7 L 96.3 134.0 L 97.1 129.0 L 98.9 129.0 L 99.5 134.1 L 100.0 139.1 L 100.2 143.9 L 100.0 148.5 L 99.6 153.0 L 99.0 157.3 L 98.1 161.4 L 96.9 165.3 L 95.5 169.1 L 93.8 172.7 L 90.0 175.2 Z M 175.3 153.1 L 174.4 149.4 L 173.3 145.7 L 172.1 142.0 L 170.6 138.2 L 169.0 134.3 L 167.2 130.4 L 165.4 126.3 L 163.2 122.3 L 164.7 121.2 L 168.0 124.4 L 171.2 127.7 L 174.2 131.2 L 176.9 134.7 L 179.3 138.4 L 181.6 142.1 L 183.6 145.9 L 185.4 149.8 L 187.0 153.7 L 188.3 157.7 L 187.5 162.2 L 183.8 164.9 L 179.3 164.0 L 176.6 160.3 L 176.1 156.7 Z M 44.3 89.0 L 44.3 153.0 L 65.0 153.0 L 65.0 89.0 Z M 141.3 131.2 L 139.9 127.9 L 138.4 124.6 L 136.8 121.5 L 135.1 118.5 L 133.3 115.6 L 131.3 112.7 L 129.3 109.9 L 127.0 107.3 L 128.0 105.8 L 134.4 109.4 L 137.5 111.6 L 140.4 114.1 L 143.2 116.8 L 145.8 119.8 L 148.3 123.0 L 150.6 126.4 L 152.8 130.1 L 154.9 133.9 L 154.8 138.5 L 151.6 141.7 L 147.0 141.6 L 143.8 138.4 L 142.6 134.8 Z M 167.9 98.1 L 166.1 99.7 L 164.1 101.1 L 162.1 102.3 L 159.9 103.3 L 157.6 104.0 L 155.2 104.5 L 152.8 104.8 L 150.4 105.0 L 150.4 99.0 L 134.4 96.0 L 134.4 93.0 L 150.4 93.0 L 151.8 92.9 L 153.2 92.7 L 154.4 92.4 L 155.5 92.1 L 156.6 91.6 L 157.6 91.0 L 158.6 90.3 L 159.6 89.5 L 160.5 88.5 L 161.4 87.3 L 162.4 85.7 L 163.4 83.0 L 164.5 79.2 L 165.4 74.5 L 166.3 68.9 L 167.0 62.4 L 167.5 55.1 L 167.9 46.9 L 168.1 37.8 L 168.17959184646605 30.0 L 144.3875 30.0 L 143.2 39.5 L 140.8 50.1 L 137.4 60.2 L 133.1 69.6 L 127.8 78.4 L 121.6 86.6 L 114.5 94.0 L 106.4 100.7 L 97.4 106.6 L 87.5 111.7 L 86.7 110.2 L 95.3 103.5 L 102.9 96.6 L 109.7 89.4 L 115.6 81.9 L 120.6 74.0 L 124.7 65.6 L 128.0 56.8 L 130.4 47.6 L 131.9 37.9 L 132.37878789901734 30.0 L 94.0 30.0 L 94.0 26.0 L 168.2 26.0 L 174.2 21.0 L 185.2 30.0 L 180.2 33.0 L 180.14979076385498 33.02092046737671 L 180.1 38.0 L 179.9 47.3 L 179.5 55.8 L 178.9 63.5 L 178.2 70.4 L 177.3 76.6 L 176.2 82.0 L 174.8 86.8 L 173.2 90.9 L 171.1 94.4 L 169.6 96.3 Z M 93.7 74.9 L 92.4 70.5 L 94.4 66.4 L 96.2 65.2 L 98.0 63.8 L 99.7 62.0 L 101.3 60.0 L 102.9 57.6 L 104.3 54.9 L 105.7 51.9 L 107.0 48.5 L 108.2 44.9 L 108.9 40.9 L 110.7 41.0 L 110.9 45.2 L 111.2 49.2 L 111.1 53.1 L 110.7 56.8 L 110.1 60.3 L 109.1 63.7 L 107.9 67.0 L 106.3 70.0 L 104.4 72.9 L 102.2 75.6 L 97.8 76.9 Z " />
</g>
</svg>
