<svg xmlns="http://www.w3.org/2000/svg" xmlns:xlink="http://www.w3.org/1999/xlink" version="1.1" baseProfile="full" viewBox="0 0 200 200" width="200" height="200">
<g fill="black">
<path d="M 145.5 176.0 L 159.5 176.0 L 160.8 175.9 L 161.7 175.7 L 162.6 175.4 L 162.8 175.2 L 162.9 175.0 L 163.1 174.7 L 163.3 174.1 L 163.5 173.2 L 163.5 148.0 L 109.6 148.0 L 109.6 183.0 L 97.6 189.0 L 97.6 88.0 L 109.6 94.0 L 163.5 94.0 L 169.5 89.0 L 180.5 98.0 L 175.5 102.0 L 175.5 172.0 L 175.4 174.5 L 175.0 177.0 L 174.1 179.4 L 172.9 181.7 L 171.3 183.7 L 169.3 185.3 L 167.0 186.6 L 164.6 187.4 L 162.1 187.8 L 159.5 188.0 L 159.5 182.0 L 145.5 179.0 Z M 87.4 36.0 L 87.4 40.0 L 59.705940628051756 40.0 L 57.1 49.4 L 53.9 59.3 L 50.4 69.0 L 46.4 78.5 L 43.426595783233644 85.0 L 66.2 85.0 L 72.2 80.0 L 83.2 89.0 L 78.2 93.0 L 78.2 163.0 L 66.2 169.0 L 66.2 157.0 L 44.9 157.0 L 44.9 169.0 L 32.9 175.0 L 32.9 104.86470584869384 L 32.2 106.1 L 26.6 114.8 L 20.6 123.3 L 14.0 131.5 L 12.5 130.4 L 17.4 121.3 L 22.0 112.1 L 26.4 103.0 L 30.5 93.8 L 34.3 84.5 L 37.8 75.1 L 40.9 65.7 L 43.7 56.1 L 46.1 46.4 L 47.47142858505249 40.0 L 18.0 40.0 L 18.0 36.0 L 65.4 36.0 L 75.4 26.0 Z M 44.9 89.0 L 44.9 153.0 L 66.2 153.0 L 66.2 89.0 Z M 109.6 122.0 L 109.6 144.0 L 163.5 144.0 L 163.5 122.0 Z M 109.6 98.0 L 109.6 118.0 L 163.5 118.0 L 163.5 98.0 Z M 101.4 81.0 L 89.4 87.0 L 89.4 17.0 L 101.4 23.0 L 171.8 23.0 L 177.8 18.0 L 188.8 27.0 L 183.8 31.0 L 183.8 80.0 L 171.8 86.0 L 171.8 78.0 L 101.4 78.0 Z M 101.4 52.0 L 101.4 74.0 L 130.6 74.0 L 130.6 52.0 Z M 142.6 52.0 L 142.6 74.0 L 171.8 74.0 L 171.8 52.0 Z M 101.4 27.0 L 101.4 48.0 L 130.6 48.0 L 130.6 27.0 Z M 142.6 27.0 L 142.6 48.0 L 171.8 48.0 L 171.8 27.0 Z " />
</g>
</svg>
