<svg xmlns="http://www.w3.org/2000/svg" xmlns:xlink="http://www.w3.org/1999/xlink" version="1.1" baseProfile="full" viewBox="0 0 200 200" width="200" height="200">
<g fill="black">
<path d="M 74.9 146.9 L 78.5 146.3 L 82.2 145.6 L 86.0 144.9 L 93.8 143.3 L 97.9 142.5 L 102.1 141.6 L 106.4 140.8 L 109.84481382369995 140.1736701965332 L 110.6 134.3 L 110.7 127.0 L 110.7 120.0 L 81.4 120.0 L 81.4 116.0 L 110.7 116.0 L 110.7 96.0 L 77.5 96.0 L 77.5 92.0 L 110.7 92.0 L 110.7 71.0 L 122.7 73.0 L 125.7 75.0 L 122.7 76.8 L 122.7 127.0 L 121.9 135.5 L 120.2 143.7 L 117.6 151.3 L 114.0 158.4 L 109.6 164.9 L 104.3 170.8 L 98.2 176.1 L 91.2 180.7 L 83.4 184.6 L 74.9 187.8 L 74.1 186.1 L 81.6 181.3 L 88.2 176.3 L 93.8 171.1 L 98.7 165.7 L 102.6 160.0 L 105.8 154.1 L 108.1 147.8 L 108.83687124252319 144.80646057128905 L 108.0 145.3 L 104.1 147.3 L 100.2 149.2 L 96.3 151.0 L 92.5 152.7 L 88.8 154.2 L 85.2 155.7 L 82.02127656936645 156.9361701965332 L 80.7 160.9 L 78.0 158.5 L 73.0 147.4 Z M 149.1 73.0 L 152.1 75.0 L 149.1 76.8 L 149.1 92.0 L 166.11818180084228 92.0 L 174.3 83.0 L 184.3 92.0 L 184.3 96.0 L 149.1 96.0 L 149.1 117.0 L 163.11818180084228 117.0 L 171.3 108.0 L 181.3 117.0 L 181.3 121.0 L 149.1 121.0 L 149.1 145.0 L 170.01818180084229 145.0 L 178.2 136.0 L 188.2 145.0 L 188.2 149.0 L 149.1 149.0 L 149.1 181.0 L 137.1 187.0 L 137.1 71.0 Z M 74.1 36.0 L 74.1 40.0 L 51.984000015258786 40.0 L 49.8 49.1 L 47.0 59.0 L 44.0 68.7 L 40.6 78.3 L 37.96276597976684 85.0 L 55.4 85.0 L 61.4 80.0 L 72.4 89.0 L 67.4 93.0 L 67.4 163.0 L 55.4 169.0 L 55.4 157.0 L 39.5 157.0 L 39.5 169.0 L 27.5 175.0 L 27.5 107.7125 L 23.7 114.6 L 18.5 123.2 L 12.9 131.4 L 11.3 130.5 L 15.2 121.4 L 18.9 112.3 L 22.5 103.2 L 25.9 94.0 L 27.5 89.2 L 27.5 88.0 L 27.9 88.0 L 29.0 84.7 L 31.8 75.4 L 34.4 65.9 L 36.6 56.3 L 38.7 46.6 L 39.774418640136716 40.0 L 16.1 40.0 L 16.1 36.0 L 52.1 36.0 L 62.1 26.0 Z M 39.5 89.0 L 39.5 153.0 L 55.4 153.0 L 55.4 89.0 Z M 93.3 76.0 L 81.3 82.0 L 81.3 22.0 L 93.3 28.0 L 167.5 28.0 L 173.5 23.0 L 184.5 32.0 L 179.5 36.0 L 179.5 70.0 L 167.5 76.0 L 167.5 64.0 L 93.3 64.0 Z M 93.3 32.0 L 93.3 60.0 L 110.7 60.0 L 110.7 32.0 Z M 122.7 32.0 L 122.7 60.0 L 138.1 60.0 L 138.1 32.0 Z M 150.1 32.0 L 150.1 60.0 L 167.5 60.0 L 167.5 32.0 Z " />
</g>
</svg>
