<svg xmlns="http://www.w3.org/2000/svg" xmlns:xlink="http://www.w3.org/1999/xlink" version="1.1" baseProfile="full" viewBox="0 0 200 200" width="200" height="200">
<g fill="black">
<path d="M 122.5 113.5 L 124.8 116.2 L 120.87726097106933 117.23229970932007 L 120.5 118.1 L 118.87954549789428 121.2 L 172.4 121.2 L 178.4 116.2 L 189.4 125.2 L 184.4 128.2 L 184.29266548156738 128.24472274780274 L 184.2 132.6 L 184.1 141.0 L 183.9 148.5 L 183.7 155.1 L 183.4 160.8 L 183.2 165.6 L 182.9 169.6 L 182.5 172.7 L 182.0 175.2 L 180.6 178.3 L 179.1 180.2 L 177.4 182.0 L 175.6 183.6 L 173.6 184.9 L 171.5 186.1 L 169.3 187.1 L 167.1 187.8 L 164.7 188.3 L 162.3 188.6 L 159.8 188.7 L 159.8 182.7 L 139.8 179.7 L 139.8 176.7 L 154.08461542129515 176.7 L 153.5 176.3 L 153.4 175.3 L 153.1 174.2 L 152.5 172.9 L 152.33230772018433 172.6065384864807 L 148.8 173.6 L 142.4 175.2 L 136.1 176.6 L 129.9 177.9 L 117.7 180.3 L 111.7 181.4 L 105.8 182.4 L 100.0 183.5 L 98.37555952072144 183.75649061203003 L 96.6 187.2 L 94.3 184.4 L 90.9 172.8 L 92.9 172.5 L 98.7 172.1 L 104.5 171.8 L 110.5 171.4 L 116.6 171.0 L 122.7 170.7 L 125.2 170.58095235824584 L 125.2 155.8 L 112.9 155.8 L 101.9 161.3 L 101.9 140.80952377319335 L 100.8 141.7 L 96.2 144.9 L 91.1 147.9 L 85.7 150.5 L 84.7 148.9 L 88.9 144.8 L 92.8 140.8 L 96.3 136.9 L 99.5 133.1 L 102.3 129.2 L 104.8 125.4 L 106.9 121.6 L 108.6 117.7 L 110.0 113.9 L 110.76552858352662 110.91443853378296 L 110.7 110.9 L 111.05200004577637 109.8 L 106.6 109.8 L 95.6 115.3 L 95.6 82.6 L 106.6 88.1 L 167.3 88.1 L 173.3 83.1 L 184.3 92.1 L 179.3 96.1 L 179.3 109.8 L 167.3 115.8 L 167.3 109.8 L 114.5196078300476 109.8 Z M 91.6 23.0 L 170.5 23.0 L 176.5 18.0 L 187.5 27.0 L 182.5 31.0 L 182.5 46.0 L 170.5 52.0 L 170.5 46.0 L 91.6 46.0 L 91.6 87.0 L 91.2 99.6 L 90.3 111.7 L 89.0 123.1 L 87.4 134.0 L 85.4 144.2 L 82.9 153.8 L 80.1 162.8 L 76.8 171.0 L 73.0 178.6 L 68.7 185.4 L 67.1 184.5 L 69.5 177.1 L 71.8 169.3 L 73.8 160.9 L 75.6 152.1 L 77.0 142.7 L 78.2 132.7 L 79.0 122.2 L 79.6 111.0 L 79.8 99.3 L 79.6 87.0 L 79.6 17.0 Z M 125.75 125.2 L 136.2 127.1 L 138.9 129.1 L 136.2 130.82340421676636 L 136.2 137.1 L 149.1 137.1 L 155.1 132.1 L 166.1 141.1 L 161.1 145.1 L 161.1 155.8 L 149.1 161.8 L 149.1 155.8 L 136.2 155.8 L 136.2 170.071875 L 141.7 169.9 L 148.3 169.9 L 150.5459867477417 169.93352222442627 L 149.3 168.4 L 147.8 166.8 L 146.1 165.0 L 144.3 163.1 L 141.9 161.6 L 142.7 160.0 L 145.3 161.1 L 148.0 161.8 L 150.5 162.6 L 152.8 163.4 L 157.0 165.2 L 160.6 167.4 L 162.2 168.6 L 163.7 170.0 L 164.4 174.5 L 163.05737705230712 176.41065578460694 L 165.1 175.9 L 166.2 175.4 L 167.2 174.8 L 168.2 174.1 L 169.2 173.3 L 170.1 172.3 L 170.4774193763733 171.79677419662477 L 170.6 171.0 L 170.9 168.4 L 171.2 164.8 L 171.5 160.2 L 171.7 154.7 L 171.9 148.2 L 172.1 140.8 L 172.2 132.4 L 172.3548387527466 125.2 Z M 73.1 36.0 L 73.1 40.0 L 50.984000015258786 40.0 L 48.8 49.1 L 46.0 59.0 L 43.0 68.7 L 39.6 78.3 L 36.96276597976684 85.0 L 54.4 85.0 L 60.4 80.0 L 71.4 89.0 L 66.4 93.0 L 66.4 161.0 L 54.4 167.0 L 54.4 157.0 L 38.5 157.0 L 38.5 169.0 L 26.5 175.0 L 26.5 107.7125 L 22.7 114.6 L 17.5 123.2 L 11.9 131.4 L 10.3 130.5 L 14.2 121.4 L 17.9 112.3 L 21.5 103.2 L 24.9 94.0 L 26.5 89.2 L 26.5 88.0 L 26.9 88.0 L 28.0 84.7 L 30.8 75.4 L 33.4 65.9 L 35.6 56.3 L 37.7 46.6 L 38.774418640136716 40.0 L 15.1 40.0 L 15.1 36.0 L 51.1 36.0 L 61.1 26.0 Z M 38.5 89.0 L 38.5 153.0 L 54.4 153.0 L 54.4 89.0 Z M 112.9 141.1 L 112.9 151.8 L 125.2 151.8 L 125.2 141.1 Z M 136.2 141.1 L 136.2 151.8 L 149.1 151.8 L 149.1 141.1 Z M 116.4 125.2 L 115.4 126.7 L 112.3 130.8 L 108.8 134.6 L 108.49464282989501 134.8973214149475 L 112.9 137.1 L 125.2 137.1 L 125.2 125.2 Z M 106.6 92.1 L 106.6 105.8 L 120.0 105.8 L 120.0 92.1 Z M 130.0 92.1 L 130.0 105.8 L 143.3 105.8 L 143.3 92.1 Z M 154.3 92.1 L 154.3 105.8 L 167.3 105.8 L 167.3 92.1 Z M 140.3 50.4 L 143.3 52.4 L 140.3 54.2 L 140.3 79.3 L 128.3 85.3 L 128.3 48.4 Z M 175.6 74.4 L 175.6 78.4 L 146.5 78.4 L 146.5 74.4 L 161.37777776718139 74.4 L 167.6 67.4 Z M 121.7 74.4 L 121.7 78.4 L 93.2 78.4 L 93.2 74.4 L 107.4777777671814 74.4 L 113.7 67.4 Z M 175.6 57.0 L 175.6 61.0 L 146.5 61.0 L 146.5 57.0 L 161.37777776718139 57.0 L 167.6 50.0 Z M 121.7 57.0 L 121.7 61.0 L 93.2 61.0 L 93.2 57.0 L 107.4777777671814 57.0 L 113.7 50.0 Z M 91.6 27.0 L 91.6 42.0 L 170.5 42.0 L 170.5 27.0 Z " />
</g>
</svg>
