<svg xmlns="http://www.w3.org/2000/svg" xmlns:xlink="http://www.w3.org/1999/xlink" version="1.1" baseProfile="full" viewBox="0 0 200 200" width="200" height="200">
<g fill="black">
<path d="M 76.0 66.0 L 76.0 70.0 L 46.9 70.0 L 46.9 183.5 L 36.9 188.5 L 36.9 70.0 L 11.6 70.0 L 11.6 66.0 L 54.0 66.0 L 64.0 56.0 Z M 182.0 146.0 L 184.0 146.0 L 182.0 171.0 L 185.6 173.4 L 188.0 177.0 L 185.6 180.6 L 182.0 183.0 L 99.0 183.0 L 96.4 182.8 L 93.9 182.4 L 91.5 181.6 L 89.2 180.3 L 87.2 178.7 L 85.6 176.7 L 84.3 174.4 L 83.5 172.0 L 83.1 169.5 L 83.0 167.0 L 83.0 44.0 L 95.0 50.0 L 115.5 50.0 L 121.0 45.0 L 131.5 54.0 L 126.5 57.5 L 126.5 130.0 L 115.5 135.5 L 115.5 124.0 L 95.0 124.0 L 95.0 168.2 L 95.2 169.1 L 95.5 170.0 L 95.9 170.4 L 96.8 170.7 L 97.7 170.9 L 99.0 171.0 L 176.0 171.0 Z M 28.9 88.0 L 31.7 90.0 L 28.9 91.75 L 28.9 120.0 L 28.5 128.2 L 27.8 135.9 L 26.9 142.9 L 25.7 149.4 L 24.2 155.3 L 22.5 160.5 L 20.4 165.2 L 18.0 169.1 L 15.2 172.3 L 12.2 174.5 L 11.0 173.4 L 12.4 170.2 L 13.7 166.8 L 14.8 162.9 L 15.8 158.6 L 16.7 153.6 L 17.3 148.1 L 17.8 142.0 L 18.0 135.2 L 18.1 127.9 L 17.9 120.0 L 17.9 86.0 Z M 67.4 88.0 L 70.1 90.0 L 67.4 91.72340421676635 L 67.4 155.2 L 56.4 160.7 L 56.4 86.0 Z M 154.5 24.0 L 149.5 27.5 L 149.5 50.0 L 169.0 50.0 L 175.0 45.0 L 186.0 54.0 L 181.0 58.0 L 181.0 130.0 L 169.0 136.0 L 169.0 124.0 L 149.5 124.0 L 149.5 136.0 L 138.5 141.5 L 138.5 24.0 L 101.0 24.0 L 101.0 20.0 L 138.5 20.0 L 144.0 15.0 Z M 149.5 91.0 L 149.5 120.0 L 169.0 120.0 L 169.0 91.0 Z M 95.0 91.0 L 95.0 120.0 L 115.5 120.0 L 115.5 91.0 Z M 149.5 54.0 L 149.5 87.0 L 169.0 87.0 L 169.0 54.0 Z M 95.0 54.0 L 95.0 87.0 L 115.5 87.0 L 115.5 54.0 Z M 67.8 30.0 L 67.8 34.0 L 19.0 34.0 L 19.0 30.0 L 49.61818180084229 30.0 L 57.8 21.0 Z " />
</g>
</svg>
