<svg xmlns="http://www.w3.org/2000/svg" xmlns:xlink="http://www.w3.org/1999/xlink" version="1.1" baseProfile="full" viewBox="0 0 200 200" width="200" height="200">
<g fill="black">
<path d="M 71.5 150.5 L 72.2 154.1 L 68.4064516067505 153.15161294937133 L 67.3 154.1 L 62.9 157.6 L 58.2 161.0 L 53.3 164.2 L 48.1 167.4 L 42.7 170.3 L 37.1 173.2 L 31.1 175.8 L 24.9 178.2 L 18.3 180.3 L 17.6 178.7 L 23.2 174.8 L 28.6 171.1 L 33.8 167.5 L 38.7 163.9 L 43.4 160.3 L 47.8 156.7 L 52.0 153.1 L 55.9 149.5 L 59.6 145.8 L 62.33208236694336 142.8268515586853 L 62.3 142.8 L 63.3 141.8 Z M 161.5 171.2 L 158.4 168.2 L 155.0 165.2 L 151.2 162.1 L 147.0 159.1 L 142.4 156.0 L 137.4 152.8 L 132.2 149.6 L 126.5 146.2 L 127.2 144.5 L 133.7 146.1 L 139.7 148.0 L 145.4 150.2 L 150.7 152.5 L 155.7 155.0 L 160.4 157.6 L 164.7 160.4 L 168.7 163.3 L 172.3 166.3 L 175.6 169.5 L 176.9 173.9 L 174.9 178.0 L 170.5 179.3 L 166.4 177.2 L 164.1 174.2 Z M 184.0 134.0 L 184.0 138.0 L 106.0 138.0 L 106.0 172.1 L 105.8 174.6 L 105.4 177.1 L 104.6 179.5 L 103.3 181.8 L 101.7 183.8 L 99.7 185.5 L 97.4 186.7 L 95.0 187.5 L 92.5 187.9 L 90.0 188.1 L 90.0 182.1 L 70.0 179.1 L 70.0 176.1 L 90.0 176.1 L 91.2 176.0 L 92.1 175.8 L 92.7 175.7 L 93.0 175.5 L 93.4 175.1 L 93.7 174.2 L 93.9 173.3 L 94.0 172.1 L 94.0 138.0 L 16.0 138.0 L 16.0 134.0 L 162.0 134.0 L 170.35537853240967 125.64462146759033 L 150.7 125.8 L 129.5 125.5 L 111.9 124.6 L 97.5 123.3 L 85.9 121.4 L 76.5 119.0 L 69.0 116.1 L 63.1 112.6 L 58.5 108.6 L 56.136231899261475 105.56086959838868 L 50.1 109.7 L 46.6 112.0 L 43.1 114.2 L 36.1 118.2 L 32.7 120.2 L 29.2 122.0 L 26.253544807434082 123.55988807678223 L 25.4 127.6 L 22.4 125.5 L 16.2 115.1 L 18.1 114.3 L 21.6 113.3 L 25.2 112.3 L 28.9 111.2 L 32.6 110.0 L 36.4 108.9 L 40.3 107.7 L 44.2 106.6 L 46.0 106.10500001907349 L 46.0 75.5 L 17.4 75.5 L 17.4 71.5 L 46.0 71.5 L 52.0 66.5 L 63.0 75.5 L 58.0 79.5 L 58.0 103.7 L 57.963265323638915 103.71836738586425 L 61.0 105.3 L 66.0 107.4 L 71.6 109.3 L 78.6 110.9 L 87.3 112.2 L 98.5 113.1 L 112.4 113.6 L 129.6 113.7 L 150.6 113.3 L 175.6 112.4 L 187.1 112.1 L 176.0 125.6 L 173.93954582214354 125.61628818511963 Z M 93.6 51.5 L 156.2 51.5 L 162.2 46.5 L 173.2 55.5 L 168.2 59.5 L 168.2 103.6 L 156.2 109.6 L 156.2 103.6 L 93.6 103.6 L 81.6 109.6 L 81.6 45.5 Z M 93.6 86.9 L 93.6 99.6 L 156.2 99.6 L 156.2 86.9 Z M 93.6 71.2 L 93.6 82.9 L 156.2 82.9 L 156.2 71.2 Z M 93.6 55.5 L 93.6 67.2 L 156.2 67.2 L 156.2 55.5 Z M 41.2 55.9 L 36.8 52.3 L 34.4 50.6 L 31.8 48.8 L 29.1 47.1 L 26.2 45.4 L 23.3 43.6 L 20.0 42.1 L 20.5 40.4 L 24.1 41.0 L 27.6 41.4 L 31.1 42.0 L 34.4 42.8 L 37.6 43.7 L 40.8 44.7 L 43.8 45.8 L 46.7 47.1 L 49.6 48.5 L 52.3 50.0 L 54.5 54.0 L 53.4 58.4 L 49.4 60.7 L 44.9 59.5 L 43.1 57.7 Z M 66.8 39.7 L 118.9 39.7 L 118.9 12.7 L 130.9 14.7 L 133.9 16.7 L 130.9 18.5 L 130.9 39.7 L 164.8181818008423 39.7 L 173.0 30.7 L 183.0 39.7 L 183.0 43.7 L 66.8 43.7 Z M 50.3 32.8 L 48.5 31.0 L 46.5 29.3 L 44.3 27.5 L 42.0 25.8 L 39.4 24.0 L 36.7 22.2 L 33.8 20.3 L 30.5 18.8 L 31.1 17.0 L 34.6 17.8 L 38.2 18.3 L 41.5 19.0 L 44.8 19.8 L 47.9 20.8 L 50.8 21.9 L 53.7 23.1 L 56.4 24.4 L 59.0 25.8 L 61.4 27.4 L 63.3 31.5 L 61.9 35.9 L 57.7 37.8 L 53.4 36.3 L 52.0 34.6 Z M 93.2 32.5 L 92.5 31.1 L 91.4 29.6 L 90.2 28.0 L 88.7 26.4 L 87.1 24.8 L 85.2 23.1 L 83.1 21.3 L 80.6 20.0 L 81.3 18.4 L 84.0 19.3 L 86.8 19.7 L 89.5 20.4 L 92.0 21.2 L 94.3 22.0 L 96.6 23.1 L 98.7 24.2 L 100.7 25.5 L 102.5 26.9 L 104.2 28.5 L 105.0 33.0 L 102.5 36.8 L 98.0 37.6 L 94.2 35.1 L 93.8 33.9 Z M 168.4326530456543 23.98571424484253 L 169.4 25.1 L 169.5 28.7 L 164.8335111618042 26.674919986724852 L 163.0 27.5 L 160.8 28.5 L 158.2 29.7 L 155.4 31.0 L 152.3 32.5 L 148.9 34.1 L 145.5 36.2 L 144.4 34.7 L 147.5 32.1 L 150.0 29.3 L 152.4 26.8 L 154.5 24.6 L 156.4 22.5 L 158.1 20.7 L 159.5 19.1 L 160.7 17.6 L 161.6 16.4 L 161.70814609527588 16.245505619049073 L 161.5 16.0 L 161.7103713989258 16.242326545715333 L 162.3 15.4 Z " />
</g>
</svg>
