<svg xmlns="http://www.w3.org/2000/svg" xmlns:xlink="http://www.w3.org/1999/xlink" version="1.1" baseProfile="full" viewBox="0 0 200 200" width="200" height="200">
<g fill="black">
<path d="M 80.0 66.0 L 80.0 70.0 L 49.1 70.0 L 49.1 183.5 L 39.1 188.5 L 39.1 70.0 L 12.1 70.0 L 12.1 66.0 L 58.0 66.0 L 68.0 56.0 Z M 85.8 178.0 L 126.0 178.0 L 126.0 154.0 L 77.2 154.0 L 77.2 150.0 L 126.0 150.0 L 126.0 130.64303798675536 L 123.1 130.9 L 114.9 131.3 L 106.5 131.5 L 97.9 131.4 L 89.1 130.8 L 89.0 129.1 L 97.7 127.6 L 106.1 126.2 L 114.2 124.8 L 122.1 123.4 L 129.8 121.8 L 137.2 120.2 L 144.3 118.5 L 151.2 116.6 L 157.9 114.6 L 163.30978746414183 112.8249135017395 L 163.3 112.8 L 163.32415227890016 112.82020006179809 L 164.3 112.5 L 164.7463348388672 114.00966186523438 L 174.3 122.0 L 174.6 125.1 L 170.40239181518555 123.18109340667725 L 167.7 124.0 L 160.8 125.6 L 153.7 127.0 L 146.3 128.3 L 138.8 129.3 L 138.0 129.39230766296387 L 138.0 150.0 L 164.7 150.0 L 174.7 140.0 L 186.7 150.0 L 186.7 154.0 L 138.0 154.0 L 138.0 178.0 L 156.2 178.0 L 166.2 168.0 L 178.2 178.0 L 178.2 182.0 L 85.8 182.0 Z M 30.1 88.0 L 32.8 90.0 L 30.1 91.72340421676635 L 30.1 120.0 L 29.7 128.2 L 29.0 135.9 L 28.0 143.0 L 26.8 149.4 L 25.2 155.3 L 23.4 160.6 L 21.2 165.2 L 18.7 169.1 L 15.9 172.3 L 12.7 174.5 L 11.5 173.4 L 13.1 170.2 L 14.4 166.8 L 15.7 162.9 L 16.8 158.5 L 17.7 153.6 L 18.4 148.1 L 18.9 141.9 L 19.2 135.2 L 19.2 127.9 L 19.1 120.0 L 19.1 86.0 Z M 70.6 88.0 L 73.4 90.0 L 70.6 91.75 L 70.6 155.2 L 59.6 160.7 L 59.6 86.0 Z M 77.7 92.0 L 81.4 91.6 L 85.0 91.1384614944458 L 85.0 27.8 L 77.3 27.8 L 77.3 23.8 L 117.4 23.8 L 127.4 13.8 L 139.4 23.8 L 139.4 27.8 L 126.9 27.8 L 126.9 112.3 L 115.9 117.8 L 115.9 90.38666667938233 L 112.6 92.0 L 108.2 93.9 L 103.9 95.6 L 99.7 97.2 L 95.6 98.7 L 91.6 100.1 L 87.6 101.4 L 84.24806480407715 102.45850582122803 L 82.7 106.3 L 80.1 103.8 L 75.7 92.4 Z M 147.9 36.3 L 170.9 36.3 L 176.9 31.3 L 187.9 40.3 L 182.9 44.3 L 182.9 94.6 L 170.9 100.6 L 170.9 90.6 L 147.9 90.6 L 147.9 102.6 L 136.9 108.1 L 136.9 30.8 Z M 97.0 70.7 L 97.0 89.38571424484253 L 97.6 89.3 L 102.0 88.6 L 106.5 87.9 L 111.2 87.2 L 115.9 86.62448978424072 L 115.9 70.7 Z M 147.9 40.3 L 147.9 86.6 L 170.9 86.6 L 170.9 40.3 Z M 97.0 49.2 L 97.0 66.7 L 115.9 66.7 L 115.9 49.2 Z M 97.0 27.8 L 97.0 45.2 L 115.9 45.2 L 115.9 27.8 Z M 71.4 30.0 L 71.4 34.0 L 19.9 34.0 L 19.9 30.0 L 49.4 30.0 L 59.4 20.0 Z " />
</g>
</svg>
