<svg xmlns="http://www.w3.org/2000/svg" xmlns:xlink="http://www.w3.org/1999/xlink" version="1.1" baseProfile="full" viewBox="0 0 200 200" width="200" height="200">
<g fill="black">
<path d="M 85.0 66.0 L 85.0 70.0 L 50.9 70.0 L 50.9 183.5 L 40.9 188.5 L 40.9 70.0 L 11.0 70.0 L 11.0 66.0 L 63.0 66.0 L 73.0 56.0 Z M 168.3 180.7 L 166.5 182.3 L 164.6 183.8 L 162.6 185.1 L 160.4 186.1 L 158.1 186.9 L 155.7 187.5 L 153.3 187.8 L 150.8 188.0 L 150.8 182.0 L 130.8 179.0 L 130.8 176.0 L 150.8 176.0 L 152.3 175.9 L 153.6 175.7 L 155.8 175.1 L 156.8 174.6 L 157.7 174.0 L 158.6 173.3 L 159.5 172.5 L 160.3 171.5 L 161.2 170.3 L 162.8 167.5 L 164.2 164.2 L 165.6 160.5 L 166.8 156.3 L 167.8 151.7 L 168.7 146.6 L 169.3 141.1 L 169.8 135.2 L 170.1 128.8 L 170.17058820724486 124.0 L 97.53230772018432 124.0 L 97.5 124.4 L 85.1 129.4 L 90.2 65.5 L 101.03333330154419 72.0 L 165.1 72.0 L 165.1 28.0 L 90.4 28.0 L 90.4 24.0 L 165.1 24.0 L 171.1 19.0 L 182.1 28.0 L 177.1 32.0 L 177.1 82.0 L 165.1 88.0 L 165.1 76.0 L 101.40923080444335 76.0 L 97.85538463592529 120.0 L 170.2 120.0 L 176.2 115.0 L 187.2 124.0 L 182.2 127.0 L 182.12916173934937 127.02951593399048 L 182.1 129.1 L 181.8 135.9 L 181.3 142.3 L 180.5 148.3 L 179.6 154.0 L 178.4 159.3 L 177.0 164.2 L 175.4 168.7 L 173.5 172.9 L 171.3 176.8 L 169.8 178.8 Z M 30.1 88.0 L 32.9 90.0 L 30.1 91.75 L 30.1 120.0 L 29.7 128.2 L 29.0 135.9 L 27.9 143.0 L 26.6 149.5 L 25.0 155.4 L 23.0 160.7 L 20.7 165.3 L 18.0 169.2 L 14.9 172.3 L 11.5 174.6 L 10.5 173.3 L 12.2 170.2 L 13.8 166.7 L 15.2 162.8 L 16.4 158.4 L 17.4 153.5 L 18.2 148.0 L 18.8 141.9 L 19.2 135.2 L 19.2 127.9 L 19.1 120.0 L 19.1 86.0 Z M 102.2 136.1 L 145.2 136.1 L 151.2 131.1 L 162.2 140.1 L 157.2 144.1 L 157.2 165.8 L 145.2 171.8 L 145.2 163.8 L 102.2 163.8 L 102.2 166.8 L 90.2 172.8 L 90.2 130.1 Z M 74.3 88.0 L 77.1 90.0 L 74.3 91.75 L 74.3 155.2 L 63.3 160.7 L 63.3 86.0 Z M 102.2 140.1 L 102.2 159.8 L 145.2 159.8 L 145.2 140.1 Z M 103.9 105.0 L 128.6 105.0 L 128.6 91.0 L 108.4 91.0 L 108.4 87.0 L 145.9777777671814 87.0 L 152.2 80.0 L 160.2 87.0 L 160.2 91.0 L 140.6 91.0 L 140.6 105.0 L 150.4777777671814 105.0 L 156.7 98.0 L 164.7 105.0 L 164.7 109.0 L 103.9 109.0 Z M 97.5 57.0 L 122.2 57.0 L 122.2 42.0 L 102.0 42.0 L 102.0 38.0 L 135.61818180084228 38.0 L 143.8 29.0 L 153.8 38.0 L 153.8 42.0 L 134.2 42.0 L 134.2 57.0 L 144.0777777671814 57.0 L 150.3 50.0 L 158.3 57.0 L 158.3 61.0 L 97.5 61.0 Z M 75.6 30.0 L 75.6 34.0 L 19.5 34.0 L 19.5 30.0 L 53.6 30.0 L 63.6 20.0 Z " />
</g>
</svg>
