<svg xmlns="http://www.w3.org/2000/svg" xmlns:xlink="http://www.w3.org/1999/xlink" version="1.1" baseProfile="full" viewBox="0 0 200 200" width="200" height="200">
<g fill="black">
<path d="M 88.0 66.0 L 88.0 70.0 L 52.9 70.0 L 52.9 183.5 L 42.9 188.5 L 42.9 70.0 L 12.3 70.0 L 12.3 66.0 L 69.81818180084228 66.0 L 78.0 57.0 Z M 182.1 108.4 L 177.1 111.9 L 177.1 178.9 L 166.1 184.4 L 166.1 174.9 L 98.3 174.9 L 98.3 181.9 L 88.3 186.9 L 88.3 99.4 L 98.3 104.4 L 166.1 104.4 L 171.6 99.4 Z M 31.7 88.0 L 34.4 90.0 L 31.7 91.72340421676635 L 31.7 120.0 L 31.3 128.2 L 30.5 135.9 L 29.5 143.0 L 28.1 149.5 L 26.5 155.4 L 24.5 160.7 L 22.1 165.3 L 19.4 169.2 L 16.2 172.4 L 12.8 174.6 L 11.7 173.3 L 13.6 170.1 L 15.2 166.7 L 16.6 162.8 L 17.9 158.4 L 18.9 153.5 L 19.8 148.0 L 20.4 141.9 L 20.7 135.2 L 20.8 127.9 L 20.7 120.0 L 20.7 86.0 Z M 98.3 108.4 L 98.3 170.9 L 166.1 170.9 L 166.1 108.4 Z M 78.9 90.0 L 76.4 91.66666669845581 L 76.4 155.5 L 66.4 160.5 L 66.4 86.0 L 74.4 87.6 L 74.4 84.7 L 126.5 84.7 L 126.5 64.2 L 89.9 64.2 L 89.9 60.2 L 126.5 60.2 L 126.5 39.7 L 85.2 39.7 L 85.2 35.7 L 126.5 35.7 L 126.5 13.2 L 138.5 15.2 L 141.5 17.2 L 138.5 19.0 L 138.5 35.7 L 157.7 35.7 L 167.7 25.7 L 179.7 35.7 L 179.7 39.7 L 138.5 39.7 L 138.5 60.2 L 156.8181818008423 60.2 L 165.0 51.2 L 175.0 60.2 L 175.0 64.2 L 138.5 64.2 L 138.5 84.7 L 172.3181818008423 84.7 L 180.5 75.7 L 190.5 84.7 L 190.5 88.7 L 77.275 88.7 Z M 121.8 125.2 L 143.2 125.2 L 148.7 120.2 L 159.2 129.2 L 154.2 132.7 L 154.2 154.0 L 143.2 159.5 L 143.2 152.0 L 121.8 152.0 L 121.8 155.0 L 110.8 160.5 L 110.8 119.7 Z M 121.8 129.2 L 121.8 148.0 L 143.2 148.0 L 143.2 129.2 Z M 78.4 30.0 L 78.4 34.0 L 21.0 34.0 L 21.0 30.0 L 56.4 30.0 L 66.4 20.0 Z " />
</g>
</svg>
