<svg xmlns="http://www.w3.org/2000/svg" xmlns:xlink="http://www.w3.org/1999/xlink" version="1.1" baseProfile="full" viewBox="0 0 200 200" width="200" height="200">
<g fill="black">
<path d="M 159.6 123.3 L 157.7 124.8 L 155.7 126.0 L 153.6 127.1 L 151.4 128.0 L 149.1 128.7 L 146.8 129.2 L 144.4 129.5 L 142.0 129.6 L 142.0 123.6 L 130.95384616851806 120.8384614944458 L 131.1 122.3 L 126.61448745727539 120.11785879135132 L 122.1 121.0 L 116.8 121.7 L 110.8 122.4 L 106.0 122.83636360168457 L 106.0 139.0 L 160.0 139.0 L 170.0 129.0 L 182.0 139.0 L 182.0 143.0 L 109.15945949554444 143.0 L 112.1 144.6 L 119.0 148.3 L 125.9 151.8 L 133.0 155.1 L 140.4 158.1 L 147.9 160.9 L 155.7 163.5 L 163.7 165.7 L 171.9 167.8 L 180.4 169.5 L 189.3 171.5 L 177.5 182.4 L 168.7 179.9 L 160.1 177.0 L 151.9 173.9 L 144.0 170.4 L 136.4 166.6 L 129.2 162.5 L 122.3 158.0 L 115.8 153.2 L 109.7 148.0 L 106.0 144.16545457839965 L 106.0 182.0 L 94.0 188.0 L 94.0 148.98387098312378 L 92.1 150.7 L 85.4 155.8 L 78.1 160.6 L 70.4 165.1 L 62.2 169.2 L 53.4 173.0 L 44.1 176.3 L 34.3 179.3 L 24.0 181.8 L 13.2 183.8 L 12.7 182.1 L 22.9 178.2 L 32.6 174.3 L 41.7 170.2 L 50.3 166.1 L 58.2 161.7 L 65.7 157.1 L 72.5 152.3 L 78.8 147.4 L 83.62307691574097 143.0 L 18.0 143.0 L 18.0 139.0 L 94.0 139.0 L 94.0 123.82025318145752 L 89.0 124.2 L 80.3 124.8 L 71.0 125.2 L 61.0 125.6 L 50.4 125.8 L 39.0 125.8 L 38.9 124.1 L 50.0 122.1 L 60.5 120.3 L 70.4 118.7 L 79.5 117.2 L 88.0 115.8 L 95.7 114.4 L 102.8 113.1 L 109.2 111.8 L 114.8 110.5 L 118.81073865890502 109.53742275238037 L 118.8 109.5 L 118.83785486221313 109.53091478347778 L 119.8 109.3 L 120.03807907104492 110.51109790802002 L 130.0 118.64666662216186 L 130.0 117.6 L 142.0 117.6 L 143.4 117.5 L 146.2 117.1 L 147.4 116.7 L 148.6 116.2 L 149.7 115.6 L 150.8 114.9 L 151.9 114.1 L 152.9 113.2 L 153.4217391014099 112.62608699798584 L 153.5 112.0 L 153.6 111.0 L 153.7 109.7 L 153.8 108.1 L 153.9 106.3 L 153.9 104.2 L 153.91304349899292 103.9 L 56.0 103.9 L 56.0 106.9 L 44.0 112.9 L 44.0 23.9 L 56.0 29.9 L 87.51875 29.9 L 87.8 29.6 L 88.8 27.6 L 89.8 25.7 L 90.9 23.8 L 92.9 20.0 L 93.8 18.2 L 94.8 16.3 L 95.7 14.4 L 96.15187969207764 13.496240615844727 L 96.0 13.4 L 97.0 12.0 L 106.1 19.8 L 107.3 23.2 L 102.77695474624633 22.7320987701416 L 102.7 22.8 L 100.9 24.2 L 99.1 25.5 L 97.2 26.8 L 93.4 29.2 L 92.12727270126342 29.9 L 136.0 29.9 L 142.0 24.9 L 153.0 33.9 L 148.0 37.9 L 148.0 68.9 L 136.0 74.9 L 136.0 68.9 L 56.0 68.9 L 56.0 82.4 L 156.8181818008423 82.4 L 165.0 73.4 L 175.0 82.4 L 175.0 86.4 L 56.0 86.4 L 56.0 99.9 L 154.0 99.9 L 160.0 94.9 L 171.0 103.9 L 166.0 106.9 L 165.8834008216858 106.94858303070069 L 165.8 108.7 L 165.7 110.5 L 165.6 112.2 L 165.4 113.8 L 165.1 115.2 L 164.7 116.6 L 164.2 118.1 L 163.0 119.9 L 161.4 121.7 Z M 153.3 112.9 L 153.3 113.1 L 153.4 112.8 L 153.4050000190735 112.76000003814697 Z M 56.0 51.4 L 56.0 64.9 L 136.0 64.9 L 136.0 51.4 Z M 56.0 33.9 L 56.0 47.4 L 136.0 47.4 L 136.0 33.9 Z " />
</g>
</svg>
