<svg xmlns="http://www.w3.org/2000/svg" xmlns:xlink="http://www.w3.org/1999/xlink" version="1.1" baseProfile="full" viewBox="0 0 200 200" width="200" height="200">
<g fill="black">
<path d="M 53.3 123.2 L 146.6 123.2 L 152.6 118.2 L 163.6 127.2 L 158.6 131.2 L 158.6 179.4 L 146.6 185.4 L 146.6 175.4 L 53.3 175.4 L 53.3 182.4 L 41.3 188.4 L 41.3 117.2 Z M 53.3 151.3 L 53.3 171.4 L 146.6 171.4 L 146.6 151.3 Z M 53.3 127.2 L 53.3 147.3 L 146.6 147.3 L 146.6 127.2 Z M 163.0 31.7 L 162.2 30.3 L 161.2 28.8 L 159.8 27.2 L 158.1 25.6 L 156.2 23.9 L 154.0 22.1 L 151.5 20.3 L 148.6 18.9 L 149.2 17.2 L 152.4 18.1 L 155.5 18.6 L 158.5 19.3 L 161.2 20.1 L 163.8 21.1 L 166.2 22.1 L 168.5 23.4 L 170.6 24.8 L 172.5 26.4 L 174.2 28.2 L 174.7 32.7 L 173.58067226409912 34.23389358520508 L 182.3 41.5 L 182.3 45.5 L 141.2 45.5 L 141.2 47.6 L 141.08571424484253 47.77142858505249 L 144.0 53.6 L 147.2 59.2 L 150.9 64.3 L 155.0 69.0 L 159.6 73.3 L 164.6 77.1 L 170.2 80.7 L 176.3 83.8 L 182.9 86.6 L 189.1 89.3 L 179.51957674026488 97.19964723587036 L 186.0 102.6 L 186.0 106.6 L 14.0 106.6 L 14.0 102.6 L 164.0 102.6 L 171.25495491027831 95.34504508972168 L 170.4 94.9 L 163.8 90.6 L 157.8 85.8 L 152.5 80.6 L 147.9 75.0 L 144.0 69.0 L 140.8 62.6 L 138.8213698387146 56.75013694763184 L 136.1 63.1 L 132.1 69.5 L 127.3 75.4 L 121.6 80.5 L 115.2 85.1 L 107.9 89.0 L 99.9 92.3 L 91.1 94.9 L 81.6 96.8 L 81.1 95.0 L 89.9 91.3 L 97.8 87.4 L 104.8 83.3 L 110.8 78.9 L 116.0 74.2 L 120.3 69.3 L 123.7 64.1 L 126.3 58.6 L 128.2 52.8 L 129.2 47.16363639831543 L 129.2 45.5 L 98.0 45.5 L 98.0 41.5 L 129.2 41.5 L 129.2 14.4 L 141.2 16.4 L 144.2 18.4 L 141.2 20.2 L 141.2 41.5 L 160.3 41.5 L 165.996875 35.803125 L 163.8 34.2 L 163.6 33.1 Z M 81.4 67.6 L 79.5 66.3 L 77.3 65.0 L 74.9 63.7 L 72.3 62.5 L 69.5 61.1 L 66.4 59.8 L 63.2 58.4 L 62.8 58.288888931274414 L 62.8 91.1 L 50.8 97.1 L 50.8 60.0 L 49.8 61.2 L 45.9 65.2 L 41.6 69.0 L 37.0 72.4 L 32.1 75.7 L 26.8 78.6 L 21.2 81.2 L 15.1 83.3 L 14.3 81.8 L 19.2 77.9 L 23.9 74.1 L 28.2 70.4 L 32.2 66.6 L 35.8 62.8 L 39.0 58.9 L 41.9 55.0 L 44.4 51.0 L 46.385365867614745 47.3 L 14.7 47.3 L 14.7 43.3 L 50.8 43.3 L 50.8 28.668354415893553 L 43.8 29.2 L 35.4 29.7 L 26.4 30.0 L 16.8 30.1 L 16.5 28.3 L 25.9 26.2 L 34.7 24.3 L 43.0 22.6 L 50.6 21.1 L 57.6 19.5 L 64.1 18.1 L 69.9 16.7 L 75.1 15.3 L 79.7 13.9 L 82.70811395645141 12.922362995147704 L 82.7 12.9 L 82.72161026000977 12.917976665496827 L 83.7 12.6 L 84.08894443511963 14.055405139923096 L 94.0 22.3 L 94.3 25.3 L 90.07430868148803 23.33594627380371 L 86.8 24.2 L 82.3 25.0 L 77.3 25.8 L 71.8 26.5 L 65.7 27.2 L 62.8 27.502985095977785 L 62.8 43.3 L 73.1 43.3 L 83.1 33.3 L 95.1 43.3 L 95.1 47.3 L 62.8 47.3 L 62.8 55.83513517379761 L 63.6 55.9 L 67.3 55.8 L 70.7 55.9 L 74.0 56.2 L 77.1 56.5 L 80.1 57.0 L 82.9 57.5 L 85.6 58.1 L 88.2 58.9 L 90.6 59.8 L 93.3 63.4 L 92.7 68.0 L 89.1 70.7 L 84.5 70.1 L 83.1 68.9 Z " />
</g>
</svg>
