<svg xmlns="http://www.w3.org/2000/svg" xmlns:xlink="http://www.w3.org/1999/xlink" version="1.1" baseProfile="full" viewBox="0 0 200 200" width="200" height="200">
<g fill="black">
<path d="M 114.1 115.9 L 113.81626510620117 113.34638557434081 L 113.5 113.5 L 109.9 115.1 L 106.0 116.5 L 102.0 117.9 L 97.7 119.2 L 95.40909090042115 119.8618182182312 L 101.1 121.0 L 104.1 123.0 L 100.87514791488647 124.93491125106812 L 100.5 131.5 L 99.69587631225586 138.0 L 103.2 138.0 L 113.2 128.0 L 125.2 138.0 L 125.2 142.0 L 99.13111114501953 142.0 L 97.47810277938842 149.83003950119019 L 100.0 150.8 L 102.5 152.1 L 105.0 153.6 L 107.4 155.4 L 109.7 157.5 L 111.9 159.7 L 114.0 162.1 L 116.1 164.8 L 118.0 167.6 L 118.2 172.2 L 115.3 175.6 L 110.7 175.9 L 107.2 172.9 L 106.3 170.2 L 105.2 167.6 L 104.1 165.1 L 103.0 162.7 L 101.7 160.4 L 100.4 158.2 L 99.0 156.0 L 97.5 153.9 L 96.64247789382935 152.75663719177246 L 95.0 158.3 L 92.0 165.6 L 88.3 172.1 L 83.9 177.6 L 79.0 182.1 L 73.4 185.5 L 67.4 187.8 L 66.7 186.1 L 71.3 182.4 L 75.3 178.2 L 78.7 173.5 L 81.7 168.2 L 84.1 162.3 L 86.1 155.6 L 87.6 148.1 L 88.34390239715576 142.0 L 69.2 142.0 L 69.2 138.0 L 88.70439558029175 138.0 L 89.1 130.8 L 89.1 121.6340425491333 L 88.5 121.8 L 83.6 123.1 L 78.6 124.4 L 77.38240947723389 124.69865427017211 L 75.8 128.3 L 73.3 125.7 L 70.48867120742798 117.81456556320191 L 67.7 121.4 L 63.1 121.8 L 59.6 119.0 L 58.7 116.6 L 57.6 114.2 L 56.5 111.9 L 55.2 109.7 L 53.8 107.4 L 52.2 105.2 L 50.5 103.0 L 48.7 100.8 L 48.4 100.46999998092652 L 48.4 181.7 L 36.4 187.7 L 36.4 112.53225803375244 L 33.6 120.3 L 30.3 128.6 L 26.6 136.5 L 22.6 144.1 L 18.2 151.2 L 13.4 157.8 L 11.9 156.9 L 14.9 149.4 L 17.7 141.8 L 20.5 134.0 L 23.1 126.0 L 25.6 117.7 L 27.7 109.2 L 29.7 100.3 L 31.5 91.3 L 33.0 81.9 L 33.85 75.1 L 12.6 75.1 L 12.6 71.1 L 36.4 71.1 L 36.4 37.413793087005615 L 34.4 38.0 L 28.2 39.7 L 21.5 41.2 L 14.4 42.5 L 13.9 40.8 L 20.3 37.6 L 26.4 34.7 L 32.1 31.9 L 36.4 29.790566062927248 L 36.4 29.5 L 36.99230766296387 29.5 L 37.4 29.3 L 42.2 26.7 L 46.6 24.3 L 50.6 21.8 L 54.1 19.5 L 57.1 17.3 L 58.85187034606933 15.758354091644287 L 58.8 15.7 L 59.2875 15.375 L 59.6 15.1 L 59.63333330154419 15.144444465637207 L 59.7 15.1 L 66.8 24.7 L 67.0 28.3 L 63.30735292434692 26.795588207244872 L 63.3 26.8 L 59.5 28.8 L 55.2 30.7 L 50.6 32.6 L 48.4 33.435999965667726 L 48.4 71.1 L 51.81818180084228 71.1 L 60.0 62.1 L 70.0 71.1 L 70.0 71.9777777671814 L 70.7 68.4 L 71.5 63.7 L 72.3 58.9 L 73.0 54.0 L 73.7 49.0 L 74.2 43.9 L 74.6 38.6 L 74.8 33.1 L 74.96430473327636 28.499468517303466 L 74.9 28.5 L 75.1 25.3 L 85.52804880142212 28.016550540924072 L 88.6 26.7 L 93.3 24.8 L 97.8 23.0 L 102.2 21.3 L 106.5 19.6 L 110.5 18.0 L 114.4 16.5 L 118.1 15.0 L 120.74091482162476 13.899618816375732 L 120.7 13.8 L 120.7919708251953 13.878345489501953 L 121.7 13.5 L 122.19169960021972 15.070707035064697 L 131.5 23.0 L 131.8 26.1 L 127.65832824707032 24.239248943328857 L 125.3 25.0 L 121.5 25.8 L 117.5 26.7 L 113.4 27.6 L 109.0 28.4 L 104.5 29.3 L 99.8 30.1 L 95.0 30.9 L 89.9 31.7 L 86.9268292427063 32.036585330963135 L 86.46666669845581 32.26666669845581 L 86.2 34.2 L 85.2 39.9 L 84.1 45.4 L 82.8 50.7 L 81.3 55.9 L 79.7 60.8 L 77.8 65.6 L 75.7 70.1 L 73.4 74.4 L 70.7 78.3 L 69.0 77.6 L 69.43478260040283 75.1 L 48.4 75.1 L 48.4 96.51379308700561 L 51.0 97.5 L 53.9 98.9 L 56.5 100.4 L 59.1 102.1 L 61.6 104.0 L 63.9 106.1 L 66.1 108.3 L 68.2 110.7 L 70.1 113.3 L 70.16710529327392 114.05493421554566 L 71.2 113.9 L 76.5 113.2 L 81.7 112.6 L 86.7 112.1 L 88.38755445480346 111.9242130279541 L 89.2 110.0 L 91.1 105.7 L 92.9 101.4 L 93.57805347442627 99.93683204650878 L 92.2 101.6 L 87.7 101.9 L 84.1 99.0 L 83.8 97.5 L 83.4 96.0 L 82.9 94.5 L 82.3 92.9 L 81.6 91.4 L 80.8 89.9 L 79.8 88.4 L 78.7 86.9 L 77.5 85.3 L 75.9 84.2 L 76.7 82.6 L 78.6 83.4 L 80.7 83.9 L 82.7 84.5 L 84.4642725944519 85.29392261505127 L 84.9 83.8 L 85.5 81.3 L 86.9 76.3 L 87.5 73.8 L 88.1 71.2 L 88.7 68.5 L 89.2 65.8 L 89.51645202636719 64.02786884307861 L 89.4 64.0 L 89.67474746704102 63.141414165496826 L 89.7 63.0 L 89.71807231903077 63.006024074554446 L 90.2 61.5 L 101.1 66.8 L 103.4 69.6 L 99.2140625 70.5546875 L 98.3 72.2 L 96.8 74.8 L 93.6 79.6 L 91.9 81.8 L 90.1 83.9 L 88.3 85.8 L 87.2154411315918 86.77610292434693 L 88.4 87.5 L 90.1 88.8 L 91.8 90.2 L 93.4 91.8 L 94.8 93.6 L 95.01414794921875 96.81221866607666 L 96.6 93.2 L 98.3 89.1 L 100.0 85.1 L 101.6 81.2 L 103.1 77.2 L 104.23925218582153 74.31389455795288 L 104.2 74.3 L 105.1 72.2 L 115.5 78.3 L 117.4 81.4 L 113.52863397598267 81.86723384857177 L 113.4 82.1 L 108.8 89.7 L 106.4 93.4 L 103.8 97.2 L 101.1 100.9 L 98.3 104.6 L 95.3 108.3 L 92.45935831069946 111.49572191238403 L 96.1 111.1 L 100.5 110.7 L 104.8 110.3 L 108.8 110.1 L 113.34444446563721 110.1 L 112.9 107.7 L 112.4 104.8 L 111.8 102.0 L 111.2 99.0 L 110.1 96.3 L 111.7 95.4 L 113.5 97.9 L 115.5 100.2 L 117.3 102.7 L 120.5 107.9 L 121.9 110.6 L 123.2 113.4 L 124.4 116.2 L 126.4 122.0 L 125.3 126.5 L 121.4 128.9 L 117.0 127.8 L 114.5 124.0 L 114.5 121.3 Z M 178.9 177.6 L 177.4 179.5 L 175.6 181.2 L 173.6 182.7 L 171.5 183.9 L 169.2 184.8 L 166.8 185.5 L 164.4 185.8 L 161.9 186.0 L 161.9 180.0 L 141.9 177.0 L 141.9 174.0 L 161.9 174.0 L 163.2 173.9 L 164.4 173.7 L 165.4 173.4 L 166.3 173.1 L 167.1 172.6 L 167.8 172.1 L 168.5 171.4 L 169.2 170.6 L 169.8 169.6 L 170.4 168.4 L 170.9 167.1 L 171.4 164.8 L 171.9 161.7 L 172.4 157.8 L 172.7 153.3 L 172.94665575027466 148.94241437911987 L 172.7 149.7 L 168.7 151.9 L 164.4 150.5 L 162.2 146.5 L 162.5 145.2 L 162.7 143.8 L 162.8 142.5 L 162.8 141.2 L 162.7 139.9 L 162.5 138.5 L 162.1 137.2 L 161.6 135.7 L 160.9 134.2 L 159.7 133.2 L 160.6 131.7 L 162.1 132.6 L 163.9 133.2 L 165.6 134.0 L 167.2 135.0 L 168.7 136.3 L 170.1 137.8 L 171.4 139.4 L 172.4 141.3 L 173.171875 142.84375 L 173.2 142.0 L 173.3 135.4 L 173.3 122.0 L 142.0 122.0 L 130.0 128.0 L 130.0 28.0 L 142.0 34.0 L 149.16363639831542 34.0 L 149.3 33.4 L 149.4 30.9 L 149.6 26.1 L 149.8 23.7 L 150.0 18.9 L 150.2 16.5 L 150.3 14.1 L 150.359144115448 12.621397495269775 L 150.2 12.6 L 150.3967212677002 11.68196725845337 L 150.4 11.6 L 150.41363639831542 11.60303030014038 L 150.8 9.8 L 162.1 14.2 L 164.6 16.8 L 160.37906980514526 18.258139514923094 L 159.1 21.2 L 158.0 23.5 L 155.6 27.9 L 153.0 32.1 L 151.575 34.0 L 166.4 34.0 L 172.4 29.0 L 183.4 38.0 L 178.4 42.0 L 178.4 84.0 L 166.4 90.0 L 166.4 82.0 L 142.0 82.0 L 142.0 98.0 L 166.8181818008423 98.0 L 175.0 89.0 L 185.0 98.0 L 185.0 102.0 L 142.0 102.0 L 142.0 118.0 L 173.3 118.0 L 179.3 113.0 L 190.3 122.0 L 185.3 125.0 L 185.3 135.5 L 185.2 142.3 L 185.0 148.5 L 184.7 154.1 L 184.3 159.0 L 183.8 163.3 L 183.2 167.1 L 182.4 170.4 L 181.4 173.2 L 180.3 175.5 Z M 126.9 172.4 L 124.4 168.6 L 125.2 164.1 L 126.3 163.1 L 127.3 161.6 L 128.4 159.7 L 129.3 157.2 L 130.3 154.4 L 131.1 151.1 L 131.8 147.4 L 132.5 143.3 L 133.2 138.8 L 133.4 134.0 L 135.2 133.9 L 136.0 138.7 L 136.8 143.3 L 137.4 147.5 L 137.8 151.5 L 138.0 155.3 L 137.9 158.8 L 137.6 162.1 L 137.1 165.2 L 136.3 168.1 L 135.2 170.8 L 131.4 173.3 Z M 143.9 167.9 L 140.1 165.3 L 139.2 160.9 L 139.8 159.5 L 140.4 157.8 L 140.9 156.0 L 141.3 153.9 L 141.6 151.6 L 141.8 149.1 L 142.0 146.4 L 142.1 143.5 L 142.1 140.3 L 141.6 137.1 L 143.3 136.7 L 144.4 139.8 L 145.9 142.6 L 147.1 145.5 L 148.1 148.2 L 149.0 150.8 L 149.7 153.4 L 150.2 155.9 L 150.6 158.4 L 150.9 160.8 L 151.0 163.1 L 148.4 166.9 Z M 151.8 150.9 L 152.0 148.9 L 152.1 147.0 L 152.2 145.2 L 152.1 143.3 L 152.0 141.5 L 151.8 139.7 L 151.5 137.8 L 150.7 136.3 L 152.1 135.2 L 153.4 136.6 L 155.0 137.9 L 156.5 139.5 L 157.9 141.2 L 159.1 143.1 L 160.1 145.2 L 161.1 147.5 L 161.9 149.8 L 162.5 152.3 L 163.0 155.0 L 161.2 159.2 L 157.0 161.0 L 152.8 159.2 L 151.0 155.0 L 151.4 152.9 Z M 142.0 60.0 L 142.0 78.0 L 166.4 78.0 L 166.4 60.0 Z M 93.0 51.4 L 92.8 49.0 L 92.6 46.7 L 92.3 44.6 L 91.9 42.5 L 91.4 40.6 L 90.2 36.8 L 88.9 35.3 L 90.1 33.9 L 91.8 35.1 L 93.8 36.3 L 95.7 37.8 L 97.4 39.6 L 99.0 41.6 L 100.5 43.9 L 101.8 46.5 L 103.0 49.2 L 104.0 52.1 L 104.9 55.3 L 103.6 59.7 L 99.6 61.9 L 95.2 60.6 L 92.9 56.7 L 93.0 54.0 Z M 111.7 51.0 L 111.3 48.8 L 110.7 46.7 L 109.3 42.7 L 108.4 40.7 L 107.3 38.8 L 106.1 36.8 L 104.5 35.3 L 105.5 33.8 L 107.6 34.9 L 109.9 35.9 L 112.1 37.2 L 114.2 38.8 L 116.1 40.6 L 118.0 42.6 L 119.7 44.8 L 121.2 47.2 L 122.6 49.8 L 123.9 52.5 L 123.2 57.0 L 119.6 59.9 L 115.1 59.2 L 112.3 55.6 L 112.0 53.2 Z M 142.0 38.0 L 142.0 56.0 L 166.4 56.0 L 166.4 38.0 Z " />
</g>
</svg>
