<svg xmlns="http://www.w3.org/2000/svg" xmlns:xlink="http://www.w3.org/1999/xlink" version="1.1" baseProfile="full" viewBox="0 0 200 200" width="200" height="200">
<g fill="black">
<path d="M 76.4 131.8 L 74.4 141.3 L 71.1 150.0 L 66.3 157.9 L 60.3 164.9 L 53.0 171.0 L 44.5 176.1 L 34.9 180.3 L 24.1 183.6 L 12.2 185.9 L 11.7 184.2 L 22.9 180.0 L 32.7 175.4 L 41.2 170.4 L 48.3 165.0 L 54.1 159.1 L 58.6 152.8 L 61.9 146.0 L 64.0 138.6 L 65.1 130.7 L 65.0 122.1 L 65.19455041885377 122.09182558059692 L 65.0 121.8 L 65.0 74.1 L 77.0 76.1 L 80.0 78.1 L 77.0 79.9 L 77.0 121.8 L 76.88148145675659 121.9777777671814 Z M 182.0 148.1 L 184.0 148.1 L 182.0 173.1 L 185.6 175.5 L 188.0 179.1 L 185.6 182.7 L 182.0 185.1 L 115.0 185.1 L 112.4 185.0 L 109.9 184.5 L 107.5 183.7 L 105.2 182.5 L 103.2 180.9 L 101.6 178.9 L 100.3 176.6 L 99.5 174.2 L 99.1 171.7 L 99.0 169.1 L 99.0 74.1 L 111.0 76.1 L 114.0 78.1 L 111.0 79.9 L 111.0 97.3 L 162.8 97.3 L 168.8 92.3 L 179.8 101.3 L 174.8 105.3 L 174.8 147.1 L 162.8 153.1 L 162.8 141.1 L 111.0 141.1 L 111.0 170.4 L 111.2 171.3 L 111.5 172.2 L 111.7 172.4 L 111.9 172.5 L 112.2 172.7 L 112.8 172.9 L 113.7 173.1 L 176.0 173.1 Z M 40.6 128.7 L 39.5 126.3 L 38.1 123.8 L 36.4 121.3 L 34.3 118.7 L 32.0 116.2 L 29.3 113.6 L 26.4 110.9 L 23.0 108.5 L 23.8 106.9 L 27.8 108.5 L 31.7 109.9 L 35.3 111.6 L 38.7 113.6 L 41.8 115.7 L 44.7 118.1 L 47.2 120.6 L 49.6 123.4 L 51.6 126.3 L 53.3 129.5 L 53.1 134.1 L 49.7 137.2 L 45.2 136.9 L 42.0 133.6 L 41.5 131.1 Z M 111.0 101.3 L 111.0 137.1 L 162.8 137.1 L 162.8 101.3 Z M 83.6 49.2 L 86.0 51.9 L 82.09761905670166 53.10619049072265 L 81.1 55.7 L 77.5 61.6 L 72.9 66.8 L 67.4 71.5 L 60.9 75.6 L 53.6 79.2 L 45.3 82.3 L 36.2 84.9 L 26.1 86.9 L 15.1 88.3 L 14.8 86.6 L 25.2 83.2 L 34.6 79.8 L 42.9 76.2 L 50.2 72.4 L 56.4 68.5 L 61.5 64.3 L 65.5 60.0 L 68.6 55.6 L 70.7 51.1 L 71.9 46.5 L 71.91361255645752 46.50314140319824 L 72.3 44.7 Z M 178.0 53.6 L 180.0 53.6 L 178.0 70.6 L 181.0 72.6 L 183.0 75.6 L 181.0 78.6 L 178.0 80.6 L 127.5 80.6 L 125.1 80.3 L 122.8 79.6 L 120.6 78.5 L 118.6 77.0 L 116.9 75.1 L 115.6 73.0 L 114.7 70.6 L 114.2 68.2 L 114.0 65.6 L 114.0 41.0 L 33.046666622161865 41.0 L 33.1 43.4 L 32.8 47.7 L 32.0 51.7 L 30.9 55.5 L 29.3 59.0 L 27.1 62.2 L 24.5 65.1 L 21.5 67.5 L 16.9 68.0 L 13.3 65.1 L 12.9 60.6 L 15.7 57.0 L 17.7 56.2 L 19.6 55.0 L 21.4 53.5 L 23.1 51.5 L 24.7 49.0 L 26.2 46.0 L 27.5 42.5 L 28.6 38.5 L 29.6 34.1 L 30.1 29.1 L 31.9 29.1 L 32.5 34.1 L 32.80208330154419 37.0 L 94.0 37.0 L 94.0 12.9 L 106.0 14.9 L 109.0 16.9 L 106.0 18.7 L 106.0 37.0 L 170.0 37.0 L 170.55652170181276 36.53623189926147 L 171.0 35.6 L 171.37275743484497 35.85603542327881 L 176.0 32.0 L 187.0 41.0 L 182.0 44.0 L 177.17931032180786 46.00862064361572 L 175.3 47.7 L 173.2 49.7 L 170.8 51.7 L 168.3 53.7 L 165.7 55.9 L 162.8 58.1 L 159.6 60.3 L 156.6 62.9 L 155.3 61.6 L 157.7 58.5 L 159.7 55.2 L 161.6 52.2 L 163.4 49.4 L 165.1 46.7 L 166.6 44.2 L 167.9 41.8 L 168.33636360168458 41.0 L 126.0 41.0 L 126.0 65.6 L 125.9 66.9 L 126.0 67.8 L 126.1 68.5 L 126.2 68.9 L 126.3 69.2 L 126.5 69.5 L 126.9 69.8 L 127.6 70.2 L 128.6 70.5 L 130.0 70.6 L 173.0 70.6 Z " />
</g>
</svg>
