<svg xmlns="http://www.w3.org/2000/svg" xmlns:xlink="http://www.w3.org/1999/xlink" version="1.1" baseProfile="full" viewBox="0 0 200 200" width="200" height="200">
<g fill="black">
<path d="M 129.0 90.1 L 132.0 92.1 L 129.0 93.9 L 129.0 146.92128658294678 L 163.84874200820923 144.82221031188965 L 173.3 134.2 L 185.8 143.5 L 186.1 147.5 L 129.0 150.93935670852662 L 129.0 183.0 L 117.0 189.0 L 117.0 151.66216373443604 L 15.1 157.8 L 14.8 153.8 L 117.0 147.6440936088562 L 117.0 88.1 Z M 59.8 137.4 L 58.2 135.9 L 56.2 134.2 L 53.7 132.6 L 50.8 130.9 L 47.4 129.1 L 43.6 127.3 L 39.4 125.4 L 34.7 123.8 L 35.1 122.0 L 40.1 122.7 L 44.8 123.1 L 49.1 123.7 L 53.1 124.5 L 56.8 125.4 L 60.1 126.5 L 63.2 127.7 L 66.0 129.1 L 68.6 130.7 L 70.8 132.6 L 72.0 137.0 L 69.8 141.0 L 65.4 142.2 L 61.4 140.0 L 60.8 138.8 Z M 80.8 113.4 L 79.4 111.9 L 77.6 110.3 L 75.4 108.7 L 72.8 107.0 L 69.8 105.4 L 66.5 103.6 L 62.8 101.9 L 58.7 100.4 L 59.1 98.7 L 63.5 99.3 L 67.7 99.6 L 71.6 100.2 L 75.2 100.9 L 78.6 101.7 L 81.7 102.7 L 84.6 103.9 L 87.2 105.2 L 89.6 106.8 L 91.8 108.7 L 93.0 113.1 L 90.8 117.1 L 86.4 118.2 L 82.4 116.0 L 81.8 114.8 Z M 83.6 51.1 L 86.1 53.6 L 82.29180908203125 54.91555690765381 L 81.2 58.1 L 77.7 64.5 L 73.1 70.4 L 67.6 75.6 L 61.1 80.3 L 53.7 84.3 L 45.4 87.9 L 36.3 90.8 L 26.2 93.1 L 15.1 94.8 L 14.8 93.1 L 25.2 89.5 L 34.5 85.7 L 42.8 81.8 L 50.0 77.7 L 56.2 73.3 L 61.3 68.8 L 65.4 64.0 L 68.4 59.0 L 70.6 53.9 L 71.84347829818725 48.830434799194336 L 72.3 46.7 Z M 127.4 86.7 L 124.9 86.2 L 122.5 85.4 L 120.2 84.2 L 118.2 82.5 L 116.6 80.5 L 115.3 78.3 L 114.5 75.8 L 114.1 73.4 L 114.0 70.8 L 114.0 42.1 L 33.1460000038147 42.1 L 33.2 44.8 L 32.9 49.5 L 32.1 53.9 L 31.0 58.0 L 29.4 61.8 L 27.3 65.3 L 24.7 68.4 L 21.6 71.1 L 17.1 71.7 L 13.4 69.1 L 12.7 64.6 L 15.4 60.9 L 17.4 59.9 L 19.3 58.5 L 21.2 56.6 L 22.9 54.3 L 24.6 51.4 L 26.0 47.9 L 27.3 44.0 L 28.5 39.5 L 29.5 34.5 L 30.1 29.0 L 31.9 28.9 L 32.6 34.5 L 32.939622688293454 38.1 L 94.0 38.1 L 94.0 11.2 L 106.0 13.2 L 109.0 15.2 L 106.0 17.0 L 106.0 38.1 L 170.0 38.1 L 170.50232553482056 37.68139533996582 L 170.8 36.9 L 171.1690929412842 37.125755882263185 L 176.0 33.1 L 187.0 42.1 L 182.0 45.1 L 177.69655170440674 46.893103408813474 L 177.5 47.1 L 175.5 49.2 L 171.0 53.7 L 168.5 56.1 L 165.8 58.6 L 162.9 61.1 L 159.7 63.6 L 156.6 66.5 L 155.3 65.3 L 157.6 61.9 L 159.6 58.3 L 161.5 55.0 L 163.3 51.9 L 164.9 49.0 L 166.4 46.3 L 167.8 43.7 L 168.5039999961853 42.1 L 126.0 42.1 L 126.0 72.0 L 126.2 72.9 L 126.4 73.5 L 126.5 73.9 L 126.7 74.0 L 126.9 74.2 L 127.2 74.4 L 127.8 74.6 L 128.7 74.7 L 130.0 74.8 L 172.0 74.8 L 178.0 49.8 L 180.0 49.8 L 178.0 74.8 L 181.6 77.2 L 184.0 80.8 L 181.6 84.4 L 178.0 86.8 L 130.0 86.8 Z " />
</g>
</svg>
