<svg xmlns="http://www.w3.org/2000/svg" xmlns:xlink="http://www.w3.org/1999/xlink" version="1.1" baseProfile="full" viewBox="0 0 200 200" width="200" height="200">
<g fill="black">
<path d="M 94.0 122.6 L 51.0 122.6 L 51.0 136.0 L 94.0 136.0 Z M 50.62666664123535 140.0 L 50.3 143.5 L 49.0 150.5 L 48.1651515007019 153.4 L 94.0 153.4 L 94.0 140.0 Z M 106.0 140.0 L 106.0 153.4 L 151.18000001907347 153.4 L 150.9 152.0 L 149.8 142.5 L 149.63333330154418 140.0 Z M 106.0 122.6 L 106.0 136.0 L 149.36666669845582 136.0 L 149.1 132.0 L 149.08739986419678 130.56358337402344 L 149.0 130.6 L 149.0 122.6 Z M 125.4 66.9 L 123.2 66.4 L 121.1 65.6 L 119.1 64.3 L 117.4 62.6 L 116.0 60.6 L 115.0 58.4 L 114.3 56.0 L 114.0 53.4 L 114.0 34.5 L 31.951282024383545 34.5 L 32.0 36.4 L 31.6 40.1 L 30.9 43.6 L 29.7 46.9 L 28.0 50.1 L 25.9 52.9 L 23.2 55.4 L 20.2 57.6 L 15.6 57.7 L 12.2 54.6 L 12.1 50.0 L 15.2 46.7 L 17.1 46.0 L 19.0 45.2 L 20.7 44.0 L 22.4 42.5 L 23.9 40.5 L 25.3 38.2 L 26.6 35.4 L 27.7 32.1 L 28.7 28.4 L 29.1 24.3 L 30.9 24.2 L 31.4 28.5 L 31.65 30.5 L 94.0 30.5 L 94.0 10.2 L 106.0 12.2 L 109.0 14.2 L 106.0 16.0 L 106.0 30.5 L 171.0 30.5 L 171.54117650985717 30.049019622802735 L 172.3 28.7 L 172.73704919815063 29.052459049224854 L 177.0 25.5 L 188.0 34.5 L 183.0 37.5 L 176.70352945327758 40.1235294342041 L 176.1 40.6 L 173.9 42.1 L 171.6 43.7 L 169.1 45.4 L 166.4 47.1 L 163.6 48.9 L 160.5 50.7 L 157.5 52.8 L 156.4 51.5 L 158.8 48.8 L 160.9 45.9 L 162.8 43.2 L 164.6 40.7 L 166.3 38.4 L 167.8 36.2 L 168.9333333015442 34.5 L 126.0 34.5 L 126.0 53.4 L 125.8 54.7 L 125.7 55.7 L 125.7 57.1 L 125.8 57.6 L 126.0 58.1 L 126.5 58.6 L 127.3 59.2 L 128.5 59.6 L 130.0 59.9 L 174.5 59.9 L 178.0 54.9 L 180.0 54.9 L 178.0 59.9 L 180.1 61.3 L 181.5 63.4 L 180.1 65.5 L 178.0 66.9 L 151.1777777671814 66.9 L 160.1 74.2 L 155.1 78.2 L 155.1 106.9 L 143.1 112.9 L 143.1 106.9 L 56.8 106.9 L 44.8 112.9 L 44.8 69.78791208267212 L 36.1 71.7 L 26.0 73.3 L 15.1 74.3 L 14.8 72.6 L 25.3 69.6 L 34.7 66.5 L 43.1 63.4 L 50.4 60.2 L 56.6 56.7 L 61.8 53.1 L 65.8 49.5 L 68.8 45.8 L 70.8 42.1 L 71.62360591888428 39.40456247329712 L 71.6 39.4 L 72.4 36.8 L 83.5 41.7 L 85.8 44.4 L 81.73919305801391 45.560230541229245 L 80.9 47.4 L 77.2 52.4 L 72.6 56.9 L 67.0 60.8 L 60.6 64.2 L 53.3 67.2 L 51.754198455810545 67.67709922790527 L 56.8 70.2 L 143.1 70.2 L 147.06000003814697 66.9 L 130.0 66.9 L 127.6 67.1 Z M 56.8 90.1 L 56.8 102.9 L 143.1 102.9 L 143.1 90.1 Z M 56.8 74.2 L 56.8 86.1 L 143.1 86.1 L 143.1 74.2 Z M 168.0 184.8 L 162.6 180.4 L 158.2 174.8 L 155.0 168.2 L 152.6 160.5 L 151.9800000190735 157.4 L 106.0 157.4 L 106.0 178.2 L 94.0 184.2 L 94.0 157.4 L 46.96721315383911 157.4 L 44.4 163.2 L 41.1 168.8 L 37.1 173.7 L 32.6 178.1 L 27.4 181.7 L 21.6 184.7 L 15.3 186.9 L 14.6 185.2 L 19.7 181.4 L 24.1 177.5 L 27.9 173.4 L 31.2 169.0 L 33.8 164.4 L 35.9 159.5 L 37.4 154.2 L 38.5 148.5 L 39.0 142.5 L 39.0 112.6 L 51.0 118.6 L 149.0 118.6 L 155.0 113.6 L 166.0 122.6 L 161.04520797729492 125.57287521362305 L 161.1 131.6 L 161.7 141.5 L 162.7 150.2 L 164.2 157.6 L 166.2 163.8 L 168.5 168.6 L 171.2 172.1 L 174.1 174.5 L 176.5 175.4333333015442 L 182.0 151.6 L 184.0 151.6 L 182.07720203399657 176.59637308120728 L 182.1 176.6 L 186.3 178.5 L 187.9 182.8 L 186.0 186.9 L 181.8 188.6 L 174.5 187.5 Z " />
</g>
</svg>
