<svg xmlns="http://www.w3.org/2000/svg" xmlns:xlink="http://www.w3.org/1999/xlink" version="1.1" baseProfile="full" viewBox="0 0 200 200" width="200" height="200">
<g fill="black">
<path d="M 157.8 186.1 L 148.8 183.6 L 140.5 180.5 L 132.9 177.0 L 126.1 172.9 L 125.74679450988769 172.62920913696288 L 121.2 175.8 L 112.4 180.2 L 102.5 183.7 L 91.4 186.3 L 79.2 187.9 L 78.9 186.2 L 90.4 182.6 L 100.7 178.7 L 109.5 174.3 L 117.0 169.5 L 119.31007099151611 167.52526187896729 L 114.9 163.2 L 110.6 157.6 L 107.5 151.4 L 109.0 150.4 L 113.8 154.8 L 118.9 158.9 L 124.3 162.5 L 124.52881355285645 162.62203388214112 L 128.0 158.5 L 131.6 152.3 L 133.91060609817504 146.2 L 90.7 146.2 L 90.7 142.2 L 134.7319444656372 142.2 L 135.4 138.5 L 135.7 130.6 L 135.7 128.2 L 147.7 130.6 L 150.7 132.6 L 147.2777777671814 134.65333337783812 L 146.7 140.2 L 146.15454549789428 142.2 L 150.1 142.2 L 160.1 132.2 L 166.71978025436403 137.71648349761963 L 167.3 137.1 L 168.4 134.9 L 169.5 133.0 L 170.5 131.1 L 172.15 127.8 L 88.30769233703613 127.8 L 88.4 128.6 L 88.5 131.2 L 88.3 133.7 L 87.8 136.1 L 87.0 138.4 L 85.7 140.6 L 84.1 142.6 L 82.1 144.4 L 77.5 144.6 L 74.0 141.7 L 73.8 137.1 L 74.77562913894653 135.92251653671264 L 71.2 137.5 L 64.4 140.3 L 57.8 142.8 L 55.4 143.71428575515748 L 55.4 184.7 L 43.4 190.7 L 43.4 148.18524589538575 L 39.2 149.7 L 33.4 151.8 L 27.8 153.8 L 22.4 155.7 L 21.207518768310546 156.11278200149536 L 20.0 159.9 L 17.2 157.5 L 11.9 146.6 L 13.9 146.0 L 19.2 144.8 L 24.8 143.5 L 30.6 142.1 L 36.6 140.7 L 42.9 139.3 L 43.4 139.190625 L 43.4 109.2 L 28.41800003051758 109.2 L 27.2 112.1 L 24.9 117.0 L 22.4 121.7 L 19.6 126.1 L 16.5 130.2 L 13.0 134.1 L 11.5 133.1 L 13.2 128.4 L 14.8 123.6 L 16.4 118.9 L 17.9 114.2 L 19.2 109.3 L 20.4 104.4 L 21.4 99.4 L 22.3 94.2 L 23.0 89.0 L 23.407373237609864 84.60036869049073 L 23.4 84.6 L 23.424242401123045 84.41818180084229 L 23.5 83.6 L 23.53274631500244 83.60440282821655 L 23.8 81.6 L 35.4 85.2 L 38.1 87.6 L 34.572459030151364 89.13081970214844 L 34.2 90.9 L 32.8 96.5 L 31.2 101.9 L 29.9942307472229 105.2 L 43.4 105.2 L 43.4 74.63516483306884 L 36.1 76.4 L 26.1 78.2 L 15.1 79.3 L 14.8 77.6 L 25.2 74.5 L 34.6 71.3 L 43.0 68.0 L 50.3 64.5 L 56.5 60.9 L 61.7 57.1 L 65.7 53.2 L 68.7 49.2 L 70.7 45.2 L 71.62849159240723 42.105027961730954 L 71.6 42.1 L 72.3 39.5 L 83.5 44.2 L 85.9 46.9 L 81.89864864349366 48.04324321746826 L 81.0 50.2 L 77.4 55.6 L 72.7 60.3 L 67.2 64.5 L 60.7 68.2 L 53.4 71.4 L 46.57760000228882 73.72959995269775 L 55.4 75.2 L 58.4 77.2 L 55.4 79.0 L 55.4 105.2 L 57.4 105.2 L 67.4 95.2 L 79.4 105.2 L 79.4 109.2 L 55.4 109.2 L 55.4 136.62537317276002 L 56.0 136.5 L 62.9 135.1 L 70.1 133.9 L 77.5 132.7 L 77.74550895690918 133.58383235931396 L 78.5 133.5 L 79.5 133.0 L 80.5 132.3 L 81.6 131.2 L 82.6 129.7 L 83.6 127.9 L 84.5 125.7 L 85.3 123.2 L 85.5 120.4 L 87.3 120.3 L 87.5 123.2 L 87.62857141494752 123.8 L 173.1 123.8 L 174.11052627563475 122.95789470672608 L 174.3 122.2 L 174.67894735336304 122.48421049118042 L 179.1 118.8 L 190.1 127.8 L 185.1 130.8 L 175.87142858505248 134.6452381134033 L 173.0 136.4 L 171.0 137.5 L 168.8 138.6 L 168.2762162208557 139.01351346969605 L 172.1 142.2 L 172.1 146.2 L 145.06363639831542 146.2 L 144.3 149.0 L 140.5 157.1 L 135.3 164.2 L 132.6901099205017 166.72958583831786 L 136.8 168.5 L 143.9 170.9 L 151.7 172.9 L 160.1 174.5 L 169.2 175.7 L 179.0 176.5 L 189.7 177.5 L 177.8 189.7 L 167.4 188.1 Z M 178.6 82.8 L 173.6 86.8 L 173.6 113.2 L 161.6 119.2 L 161.6 113.2 L 91.6 113.2 L 91.6 109.2 L 161.6 109.2 L 161.6 98.0 L 100.5 98.0 L 100.5 94.0 L 161.6 94.0 L 161.6 82.8 L 91.6 82.8 L 91.6 78.8 L 161.6 78.8 L 167.6 73.8 Z M 127.6 71.8 L 125.3 71.6 L 123.0 71.1 L 120.9 70.1 L 118.9 68.8 L 117.2 67.0 L 115.9 65.0 L 114.9 62.7 L 114.3 60.3 L 114.0 57.7 L 114.0 36.6 L 31.94878044128418 36.6 L 32.0 38.7 L 31.7 42.6 L 30.9 46.3 L 29.8 49.8 L 28.1 53.1 L 26.0 56.1 L 23.4 58.8 L 20.3 61.0 L 15.7 61.3 L 12.3 58.3 L 12.0 53.7 L 15.0 50.2 L 17.0 49.5 L 18.8 48.6 L 20.6 47.2 L 22.3 45.5 L 23.8 43.4 L 25.3 40.8 L 26.6 37.7 L 27.7 34.2 L 28.7 30.2 L 29.1 25.8 L 30.9 25.7 L 31.4 30.2 L 31.67272729873657 32.6 L 94.0 32.6 L 94.0 10.9 L 106.0 12.9 L 109.0 14.9 L 106.0 16.7 L 106.0 32.6 L 171.0 32.6 L 171.63157892227173 32.073684215545654 L 172.2 31.0 L 172.57706727981568 31.285777282714843 L 177.0 27.6 L 188.0 36.6 L 183.0 39.6 L 177.41739130020142 41.92608699798584 L 176.2 42.9 L 174.0 44.6 L 171.7 46.4 L 169.2 48.2 L 166.5 50.1 L 163.7 52.1 L 160.6 54.0 L 157.6 56.3 L 156.3 55.0 L 158.8 52.1 L 160.8 49.1 L 162.7 46.3 L 164.5 43.7 L 166.2 41.2 L 167.7 38.9 L 169.1 36.7 L 169.157142829895 36.6 L 126.0 36.6 L 126.0 57.7 L 125.8 59.0 L 125.8 60.7 L 125.9 61.3 L 126.0 61.7 L 126.2 62.1 L 126.7 62.6 L 127.4 63.1 L 128.5 63.5 L 130.0 63.7 L 174.0 63.7 L 178.0 54.7 L 180.0 54.7 L 178.0 63.7 L 180.4 65.3 L 182.0 67.7 L 180.4 70.1 L 178.0 71.7 L 130.0 71.7 Z " />
</g>
</svg>
