<svg xmlns="http://www.w3.org/2000/svg" xmlns:xlink="http://www.w3.org/1999/xlink" version="1.1" baseProfile="full" viewBox="0 0 200 200" width="200" height="200">
<g fill="black">
<path d="M 150.1 188.5 L 139.0 185.9 L 128.7 182.9 L 123.5482014656067 181.07194242477416 L 121.7 181.6 L 109.4 184.4 L 96.1 186.7 L 81.8 188.5 L 66.4 189.6 L 49.9 190.2 L 49.8 188.4 L 66.0 185.9 L 81.0 183.2 L 94.9 180.2 L 107.7 177.0 L 111.19918022155761 175.94421291351318 L 111.1 175.9 L 103.7 171.9 L 97.4 167.4 L 92.2 162.5 L 88.89259262084961 157.8 L 75.9 157.8 L 75.9 153.8 L 117.9 153.8 L 117.9 143.3 L 73.8 143.3 L 73.8 140.68095235824586 L 71.8 142.3 L 67.2 142.5 L 63.8 139.5 L 63.6 134.9 L 66.6 131.5 L 67.6 131.4 L 68.7 131.2 L 69.7 130.7 L 70.8 129.8 L 72.0 128.7 L 73.0 127.1 L 74.1 125.2 L 75.0 123.0 L 75.9 120.4 L 76.0 117.4 L 77.8 117.4 L 78.1 120.4 L 78.2448275566101 121.1 L 171.5 121.1 L 172.37692308425903 120.3692307472229 L 172.7 119.4 L 173.1341675758362 119.73819370269776 L 177.5 116.1 L 188.5 125.1 L 183.5 128.1 L 176.29240503311158 131.10316457748414 L 185.4 139.3 L 185.4 143.3 L 129.9 143.3 L 129.9 153.8 L 156.657142829895 153.8 L 159.4 151.4 L 159.82835817337036 151.85970153808594 L 163.5 148.8 L 174.5 157.8 L 169.5 160.8 L 163.425 163.33125 L 160.4 165.6 L 152.3 170.4 L 143.1 174.6 L 141.64727268218994 175.14121208190917 L 152.2 176.9 L 164.0 178.3 L 176.7 179.6 L 187.2 180.7 L 175.3 192.7 L 162.3 190.8 Z M 70.9 74.0 L 72.6 77.2 L 68.8422779083252 77.32738037109375 L 66.2 81.6 L 61.3 88.9 L 56.2 96.2 L 50.8 103.2 L 45.2 110.0 L 45.123210430145264 110.08720169067382 L 50.6 111.0 L 53.6 113.0 L 50.6 114.8 L 50.6 184.4 L 38.6 190.4 L 38.6 117.4344262123108 L 33.2 123.1 L 26.9 129.3 L 20.2 135.2 L 13.2 140.7 L 11.9 139.4 L 17.5 132.5 L 22.9 125.7 L 28.3 118.8 L 33.5 111.9 L 38.5 104.8 L 43.3 97.7 L 47.9 90.5 L 52.3 83.2 L 56.4 75.8 L 59.92131786346435 69.10949611663818 L 59.9 69.1 L 60.189473724365236 68.6 L 60.4 68.2 L 60.415951347351076 68.20881128311157 L 61.0 67.2 Z M 94.9 159.3 L 100.6 162.5 L 107.1 165.5 L 114.3 168.2 L 122.4 170.8 L 124.83832597732544 171.42312774658203 L 129.7 169.6 L 138.9 165.5 L 147.0 161.0 L 151.6297872543335 157.8 L 92.65 157.8 Z M 79.0 126.1 L 79.0 128.7 L 78.7 131.3 L 78.1 133.8 L 77.1 136.3 L 75.7 138.5 L 75.01428575515747 139.3 L 117.9 139.3 L 117.9 127.3 L 129.9 129.3 L 132.9 131.3 L 129.9 133.1 L 129.9 139.3 L 167.21818180084227 139.3 L 173.52121210098267 132.36666669845582 L 172.6 132.9 L 170.6 134.1 L 168.5 135.2 L 166.2 136.4 L 164.2 138.0 L 163.0 136.7 L 164.7 134.8 L 166.0 132.6 L 167.2 130.5 L 168.3 128.6 L 169.3 126.8 L 170.2 125.1 L 78.89285717010497 125.1 Z M 170.2 78.4 L 165.2 82.4 L 165.2 90.1 L 168.11818180084228 90.1 L 176.3 81.1 L 186.3 90.1 L 186.3 94.1 L 165.2 94.1 L 165.2 109.9 L 153.2 115.9 L 153.2 109.9 L 90.3 109.9 L 90.3 105.9 L 153.2 105.9 L 153.2 94.1 L 75.8 94.1 L 75.8 90.1 L 153.2 90.1 L 153.2 78.4 L 90.3 78.4 L 90.3 74.4 L 153.2 74.4 L 159.2 69.4 Z M 83.4 41.2 L 85.7 44.0 L 81.55100374221801 45.11133832931519 L 80.8 46.7 L 77.2 51.6 L 72.5 55.8 L 67.0 59.6 L 60.6 62.8 L 53.3 65.6 L 45.1 68.0 L 36.0 69.9 L 26.0 71.4 L 15.1 72.3 L 14.8 70.6 L 25.3 67.7 L 34.7 64.7 L 43.1 61.7 L 50.5 58.5 L 56.7 55.2 L 61.9 51.8 L 65.9 48.3 L 68.9 44.8 L 70.8 41.3 L 71.9 37.8 L 71.90705089569092 37.802084636688235 L 72.4 36.2 Z M 178.0 48.9 L 180.0 48.9 L 178.0 57.9 L 180.4 59.5 L 182.0 61.9 L 180.4 64.3 L 178.0 65.9 L 127.6 65.9 L 125.3 65.7 L 123.0 65.2 L 120.9 64.3 L 118.9 62.9 L 117.2 61.1 L 115.9 59.1 L 114.9 56.8 L 114.3 54.4 L 114.0 51.9 L 114.0 34.2 L 32.9 34.2 L 32.9 36.0 L 32.6 39.6 L 31.8 43.0 L 30.6 46.2 L 28.9 49.2 L 26.8 52.0 L 24.2 54.4 L 21.1 56.5 L 16.5 56.5 L 13.2 53.4 L 13.2 48.8 L 16.3 45.5 L 18.3 44.9 L 20.1 44.1 L 21.8 43.0 L 23.4 41.6 L 25.0 39.8 L 26.4 37.6 L 27.6 34.9 L 28.8 31.8 L 29.7 28.3 L 30.1 24.4 L 31.9 24.3 L 32.3 28.4 L 32.576923084259036 30.2 L 94.0 30.2 L 94.0 10.9 L 106.0 12.9 L 109.0 14.9 L 106.0 16.7 L 106.0 30.2 L 170.0 30.2 L 170.6235294342041 29.68039216995239 L 171.4 28.3 L 171.83380279541015 28.671830940246583 L 176.0 25.2 L 187.0 34.2 L 182.0 37.2 L 175.25 40.0125 L 175.0 40.2 L 172.8 41.6 L 170.5 43.1 L 168.0 44.7 L 165.4 46.4 L 162.6 48.0 L 159.5 49.7 L 156.5 51.7 L 155.4 50.3 L 157.9 47.8 L 159.9 45.0 L 161.9 42.4 L 163.7 40.0 L 165.4 37.7 L 166.9 35.5 L 167.81000003814697 34.2 L 126.0 34.2 L 126.0 51.9 L 125.8 53.1 L 125.8 54.8 L 125.9 55.4 L 126.0 55.8 L 126.2 56.3 L 126.7 56.7 L 127.4 57.2 L 128.5 57.6 L 130.0 57.9 L 174.0 57.9 Z " />
</g>
</svg>
