<svg xmlns="http://www.w3.org/2000/svg" xmlns:xlink="http://www.w3.org/1999/xlink" version="1.1" baseProfile="full" viewBox="0 0 200 200" width="200" height="200">
<g fill="black">
<path d="M 18.9 137.3 L 18.9 133.3 L 62.0 133.3 L 62.0 111.3 L 39.1 111.3 L 39.1 118.3 L 27.1 124.3 L 27.1 75.4 L 39.1 77.4 L 42.1 79.4 L 39.1 81.2 L 39.1 107.3 L 62.0 107.3 L 62.0 67.9 L 74.0 69.9 L 77.0 71.9 L 74.0 73.7 L 74.0 183.7 L 62.0 189.7 L 62.0 137.3 L 43.8 137.3 L 43.8 146.3 L 43.3 151.8 L 42.3 157.2 L 40.8 162.3 L 39.0 167.1 L 36.6 171.7 L 33.9 175.9 L 30.7 179.9 L 27.1 183.5 L 23.0 186.6 L 18.5 189.4 L 17.4 188.0 L 20.5 184.1 L 23.2 180.1 L 25.5 176.1 L 27.5 172.2 L 29.1 168.1 L 30.3 164.0 L 31.2 159.8 L 31.7 155.4 L 31.9 150.9 L 31.8 146.3 L 31.8 137.3 Z M 147.0 166.3 L 157.0 166.3 L 158.2 166.2 L 159.1 166.1 L 159.7 165.9 L 160.0 165.7 L 160.2 165.5 L 160.4 165.4 L 160.5 165.0 L 160.7 164.4 L 160.9 163.5 L 161.0 162.3 L 161.0 142.8 L 138.0 142.8 L 138.0 183.7 L 126.0 189.7 L 126.0 142.8 L 104.0 142.8 L 104.0 170.7 L 92.0 176.7 L 92.0 132.8 L 104.0 138.8 L 126.0 138.8 L 126.0 125.4 L 138.0 127.4 L 141.0 129.4 L 138.0 131.2 L 138.0 138.8 L 161.0 138.8 L 162.63333330154418 137.43888893127442 L 161.5 138.1 L 160.4 136.6 L 162.6 134.8 L 164.3 132.6 L 166.0 130.6 L 167.4 128.6 L 168.8 126.7 L 170.0 125.0 L 170.41176471710205 124.3 L 92.64615383148194 124.3 L 92.8 125.1 L 92.9 127.7 L 92.5 130.4 L 91.8 133.1 L 90.6 135.7 L 89.1 138.2 L 87.1 140.6 L 82.8 142.0 L 78.7 140.0 L 77.3 135.6 L 79.3 131.5 L 81.0 130.6 L 82.5 129.5 L 83.8 128.5 L 84.9 127.3 L 85.9 126.0 L 86.7 124.4 L 87.3 122.7 L 87.8 120.7 L 88.0 118.4 L 87.5 116.0 L 89.1 115.4 L 90.2 117.8 L 91.4 120.1 L 91.475 120.3 L 172.0 120.3 L 172.78461542129517 119.64615383148194 L 173.1 118.7 L 173.53655319213868 119.01953897476196 L 178.0 115.3 L 189.0 124.3 L 184.0 127.3 L 176.8244897842407 130.28979587554932 L 175.7 131.0 L 173.6 132.2 L 171.4 133.4 L 169.1 134.5 L 168.29075145721436 134.85606937408448 L 178.0 142.8 L 173.0 146.8 L 173.0 162.3 L 172.8 164.9 L 172.4 167.3 L 171.6 169.8 L 170.3 172.0 L 168.7 174.0 L 166.7 175.7 L 164.4 176.9 L 162.0 177.7 L 159.5 178.2 L 157.0 178.3 L 157.0 172.3 L 147.0 169.3 Z M 173.0 79.1 L 168.0 83.1 L 168.0 90.1 L 170.8181818008423 90.1 L 179.0 81.1 L 189.0 90.1 L 189.0 94.1 L 168.0 94.1 L 168.0 109.9 L 156.0 115.9 L 156.0 109.9 L 96.0 109.9 L 96.0 105.9 L 156.0 105.9 L 156.0 94.1 L 83.0 94.1 L 83.0 90.1 L 156.0 90.1 L 156.0 79.1 L 96.0 79.1 L 96.0 75.1 L 156.0 75.1 L 162.0 70.1 Z M 83.4 40.0 L 85.7 42.8 L 81.52314643859863 43.82589387893677 L 80.8 45.3 L 77.1 50.0 L 72.4 54.1 L 66.9 57.7 L 60.5 60.8 L 53.2 63.5 L 45.1 65.7 L 36.0 67.6 L 26.0 69.0 L 15.1 69.8 L 14.8 68.1 L 25.3 65.2 L 34.7 62.4 L 43.1 59.4 L 50.5 56.4 L 56.8 53.2 L 61.9 49.8 L 66.0 46.4 L 68.9 43.1 L 70.9 39.7 L 71.61754207611084 37.40386524200439 L 71.6 37.4 L 72.4 34.9 Z M 127.6 63.8 L 125.3 63.6 L 123.0 63.0 L 120.9 62.1 L 118.9 60.7 L 117.2 59.0 L 115.9 56.9 L 114.9 54.7 L 114.3 52.3 L 114.0 49.7 L 114.0 33.1 L 32.852777767181394 33.1 L 32.9 34.8 L 32.6 38.3 L 31.8 41.6 L 30.6 44.8 L 28.9 47.7 L 26.7 50.4 L 24.1 52.8 L 21.1 54.7 L 16.5 54.7 L 13.2 51.6 L 13.2 47.0 L 16.4 43.7 L 18.3 43.2 L 20.2 42.4 L 21.9 41.4 L 23.5 40.1 L 25.0 38.4 L 26.4 36.3 L 27.7 33.7 L 28.8 30.8 L 29.8 27.4 L 30.1 23.6 L 31.9 23.5 L 32.3 27.5 L 32.51621618270874 29.1 L 94.0 29.1 L 94.0 10.5 L 106.0 12.5 L 109.0 14.5 L 106.0 16.3 L 106.0 29.1 L 170.0 29.1 L 170.68571424484253 28.52857141494751 L 171.4 27.1 L 171.8866310119629 27.52780752182007 L 176.0 24.1 L 187.0 33.1 L 182.0 36.1 L 174.6666666984558 39.15555553436279 L 172.8 40.4 L 170.5 41.8 L 168.0 43.3 L 165.3 44.9 L 162.5 46.4 L 159.5 48.0 L 156.5 50.0 L 155.4 48.6 L 157.9 46.1 L 159.9 43.4 L 161.9 40.9 L 163.7 38.5 L 165.4 36.3 L 167.0 34.2 L 167.7699999809265 33.1 L 126.0 33.1 L 126.0 49.7 L 125.8 51.0 L 125.8 52.7 L 126.0 53.7 L 126.2 54.1 L 126.7 54.6 L 127.4 55.0 L 128.5 55.4 L 130.0 55.7 L 174.0 55.7 L 178.0 46.7 L 180.0 46.7 L 178.0 55.7 L 180.4 57.3 L 182.0 59.7 L 180.4 62.1 L 178.0 63.7 L 130.0 63.7 Z " />
</g>
</svg>
