<svg xmlns="http://www.w3.org/2000/svg" xmlns:xlink="http://www.w3.org/1999/xlink" version="1.1" baseProfile="full" viewBox="0 0 200 200" width="200" height="200">
<g fill="black">
<path d="M 91.7 101.8 L 90.5 100.1 L 89.2 98.4 L 87.8 96.7 L 86.3 95.0 L 84.6 93.2 L 82.6 92.0 L 83.4 90.3 L 85.7 91.2 L 88.2 91.8 L 90.6 92.5 L 92.9 93.4 L 97.3 95.6 L 101.3 98.4 L 103.3 100.0 L 105.1 101.7 L 105.62758617401123 104.33793106079102 L 106.6 103.2 L 111.0 97.5 L 114.9 91.5 L 118.4 85.2 L 119.32121210098266 83.3 L 86.7 83.3 L 86.7 79.3 L 121.0 79.3 L 121.43728809356689 78.93559322357177 L 121.6 78.6 L 121.75 78.675 L 127.0 74.3 L 136.62663688659669 82.17633924484252 L 135.0 75.0 L 136.7 74.4 L 140.5 80.8 L 144.4 86.8 L 148.5 92.3 L 151.8255813598633 96.23023252487182 L 153.1 94.0 L 154.7 91.4 L 156.2 88.9 L 157.6 86.6 L 158.8 84.4 L 160.0 82.4 L 161.0 80.5 L 161.8 78.7 L 162.14981269836426 78.00037450790406 L 162.0 77.9 L 162.5714285850525 77.15714282989502 L 162.6 77.1 L 162.60953350067138 77.10760650634765 L 163.0 76.6 L 172.0 84.6 L 173.1 88.0 L 168.39645538330078 87.43233079910279 L 167.1 88.5 L 165.2 89.9 L 163.1 91.5 L 160.9 93.2 L 158.5 94.9 L 156.0 96.7 L 153.66000003814696 98.26000003814697 L 157.7 102.3 L 162.9 106.8 L 162.90433769226075 106.80317583084107 L 164.3 104.9 L 166.5 102.1 L 168.5 99.6 L 170.3 97.2 L 172.0 95.0 L 173.4 93.0 L 174.7 91.1 L 175.8 89.4 L 176.22077922821046 88.69870128631592 L 176.1 88.6 L 176.55 88.15 L 176.7 87.9 L 176.7511764526367 87.94882354736328 L 177.1 87.6 L 185.4 96.2 L 186.2 99.7 L 181.63302755355835 98.73853206634521 L 180.0 99.8 L 177.8 101.2 L 175.4 102.8 L 172.8 104.4 L 170.0 106.1 L 167.0 108.0 L 165.60827589035034 108.78284482955932 L 168.5 110.9 L 174.5 114.6 L 180.9 118.0 L 187.8 121.1 L 193.7 123.8 L 182.3 133.1 L 174.9 129.0 L 168.1 124.5 L 161.8 119.7 L 158.7 116.86724138259888 L 158.7 119.8 L 103.2 119.8 L 103.2 118.49508199691772 L 101.7 119.7 L 95.2 124.2 L 88.3 128.3 L 81.0 131.8 L 73.5 134.72207794189453 L 73.5 184.7 L 61.5 190.7 L 61.5 148.38125 L 58.8 149.9 L 53.9 152.4 L 48.9 154.7 L 44.0 157.0 L 39.0 159.2 L 29.0 163.4 L 22.8709677696228 165.85161294937134 L 21.8 169.6 L 19.0 167.4 L 13.4 156.6 L 15.3 156.0 L 20.4 154.6 L 24.6 153.4692307472229 L 24.6 93.0 L 36.6 95.0 L 39.6 97.0 L 36.6 98.8 L 36.6 150.2115385055542 L 46.3 147.6 L 51.6 146.2 L 56.9 144.9 L 61.5 143.87777776718139 L 61.5 73.2 L 73.5 75.2 L 76.5 77.2 L 73.5 79.0 L 73.5 132.48787879943848 L 79.1 128.5 L 85.4 123.8 L 91.3 119.0 L 96.8 113.9 L 99.75571346282959 110.88633136749267 L 99.2 111.0 L 95.3 108.6 L 93.7 105.2 Z M 111.8 174.6 L 111.3 172.6 L 110.6 170.7 L 109.8 168.8 L 108.9 166.8 L 107.8 164.7 L 106.6 162.6 L 105.3 160.5 L 103.5 158.7 L 104.02105264663696 157.98947372436524 L 96.2 161.9 L 96.2 123.8 L 108.2 129.8 L 153.7 129.8 L 159.7 124.8 L 170.7 133.8 L 165.7 137.8 L 165.7 155.9 L 155.8 160.85 L 159.2 163.4 L 160.7 166.7 L 156.44697456359864 166.55334396362304 L 151.7 171.8 L 149.8 173.8 L 145.8 177.8 L 143.7 179.7 L 142.07894735336305 181.1 L 163.1 181.1 L 173.1 171.1 L 185.1 181.1 L 185.1 185.1 L 76.8 185.1 L 76.8 181.1 L 114.9529411315918 181.1 L 112.4 178.3 L 112.2 176.4 Z M 108.2 155.9 L 105.02307691574097 157.4884614944458 L 106.8 158.7 L 109.2 159.9 L 111.5 161.2 L 113.6 162.7 L 115.7 164.3 L 119.3 167.9 L 120.9 169.9 L 122.4 172.1 L 123.7 174.3 L 123.4 178.9 L 121.05806455612182 181.1 L 138.8800000190735 181.1 L 139.4 180.1 L 140.4 177.4 L 141.4 174.8 L 142.5 172.2 L 143.5 169.7 L 144.6 167.1 L 145.8 164.6 L 146.9 162.0 L 148.72008571624755 157.86344156265258 L 148.6 157.8 L 149.6 156.2 L 153.7 159.275 L 153.7 155.9 Z M 108.2 133.8 L 108.2 151.9 L 153.7 151.9 L 153.7 133.8 Z M 133.0 86.3 L 130.3861958503723 87.3890851020813 L 128.3 90.9 L 123.8 97.5 L 118.9 103.6 L 113.6 109.4 L 107.8 114.8 L 106.55510206222534 115.8 L 140.51818180084229 115.8 L 148.7 106.8 L 151.2675675392151 109.11081085205078 L 150.9 108.7 L 146.3 102.7 L 142.4 96.3 L 139.2 89.6 L 137.15930233001708 83.80441856384277 Z M 83.5 44.2 L 85.9 46.9 L 81.89864864349366 48.04324321746826 L 81.0 50.2 L 77.4 55.6 L 72.7 60.3 L 67.2 64.5 L 60.7 68.2 L 53.4 71.4 L 45.2 74.2 L 36.1 76.4 L 26.1 78.2 L 15.1 79.3 L 14.8 77.6 L 25.2 74.5 L 34.6 71.3 L 43.0 68.0 L 50.3 64.5 L 56.5 60.9 L 61.7 57.1 L 65.7 53.2 L 68.7 49.2 L 70.7 45.2 L 71.62849159240723 42.105027961730954 L 71.6 42.1 L 72.3 39.5 Z M 127.5 72.3 L 125.2 72.0 L 122.9 71.4 L 120.7 70.4 L 118.7 69.0 L 117.1 67.1 L 115.7 65.0 L 114.8 62.7 L 114.2 60.3 L 114.0 57.7 L 114.0 36.6 L 32.94878044128418 36.6 L 33.0 38.7 L 32.7 42.6 L 31.9 46.3 L 30.8 49.8 L 29.1 53.1 L 27.0 56.1 L 24.4 58.8 L 21.3 61.0 L 16.7 61.3 L 13.3 58.3 L 13.0 53.7 L 16.0 50.2 L 18.0 49.5 L 19.8 48.6 L 21.6 47.2 L 23.3 45.5 L 24.8 43.4 L 26.3 40.8 L 27.6 37.7 L 28.7 34.2 L 29.7 30.2 L 30.1 25.8 L 31.9 25.7 L 32.4 30.2 L 32.672727298736575 32.6 L 94.0 32.6 L 94.0 10.9 L 106.0 12.9 L 109.0 14.9 L 106.0 16.7 L 106.0 32.6 L 170.0 32.6 L 170.63157892227173 32.073684215545654 L 171.2 31.0 L 171.57706727981568 31.285777282714843 L 176.0 27.6 L 187.0 36.6 L 182.0 39.6 L 176.41739130020142 41.92608699798584 L 175.2 42.9 L 173.0 44.6 L 170.7 46.4 L 168.2 48.2 L 165.5 50.1 L 162.7 52.1 L 159.6 54.0 L 156.6 56.3 L 155.3 55.0 L 157.8 52.1 L 159.8 49.1 L 161.7 46.3 L 163.5 43.7 L 165.2 41.2 L 166.7 38.9 L 168.1 36.7 L 168.157142829895 36.6 L 126.0 36.6 L 126.0 57.7 L 125.9 59.0 L 125.9 60.0 L 126.0 60.7 L 126.0 61.1 L 126.4 61.9 L 126.8 62.3 L 127.5 62.7 L 128.6 63.0 L 130.0 63.2 L 173.5 63.2 L 178.0 50.2 L 180.0 50.2 L 178.0 63.2 L 180.7 65.0 L 182.5 67.7 L 180.7 70.4 L 178.0 72.2 L 130.0 72.2 Z " />
</g>
</svg>
