<svg xmlns="http://www.w3.org/2000/svg" xmlns:xlink="http://www.w3.org/1999/xlink" version="1.1" baseProfile="full" viewBox="0 0 200 200" width="200" height="200">
<g fill="black">
<path d="M 145.0 138.8 L 146.8 141.9 L 143.00418844223023 142.29267015457154 L 142.6 143.0 L 140.1 147.1 L 137.5 151.2 L 134.7 155.3 L 131.7 159.4 L 128.5 163.4 L 125.2 167.4 L 121.6 171.4 L 117.8 175.2 L 116.47027025222778 176.4 L 161.0 176.4 L 171.0 166.4 L 183.0 176.4 L 183.0 180.4 L 17.0 180.4 L 17.0 176.4 L 112.94285717010499 176.4 L 114.8 172.9 L 117.3 168.2 L 119.8 163.7 L 122.2 159.2 L 124.5 154.8 L 126.7 150.5 L 130.7 142.1 L 132.4 137.9 L 133.7233208656311 134.70846157073976 L 133.7 134.7 L 134.6 132.6 Z M 70.7 162.7 L 69.6 159.5 L 68.2 156.3 L 66.5 153.1 L 64.6 149.9 L 62.4 146.6 L 59.9 143.4 L 57.3 140.0 L 54.2 136.7 L 55.3 135.3 L 59.3 137.6 L 63.1 139.9 L 66.6 142.5 L 69.9 145.4 L 72.9 148.3 L 75.6 151.5 L 78.1 154.8 L 80.3 158.3 L 82.2 162.0 L 83.9 165.8 L 83.3 170.3 L 79.8 173.2 L 75.3 172.6 L 72.4 169.1 L 71.7 165.9 Z M 27.0 128.0 L 94.0 128.0 L 94.0 108.5 L 106.0 110.5 L 109.0 112.5 L 106.0 114.3 L 106.0 128.0 L 151.0 128.0 L 161.0 118.0 L 173.0 128.0 L 173.0 132.0 L 27.0 132.0 Z M 121.4 68.9 L 119.4 66.5 L 117.0 64.0 L 114.3 61.5 L 111.1 58.8 L 107.6 56.1 L 103.7 53.3 L 99.5 50.4 L 96.93177528381348 48.78090181350708 L 93.4 51.8 L 86.7 56.8 L 79.6 61.5 L 71.9 65.9 L 63.6 69.8 L 62.7 68.3 L 69.8 62.7 L 76.4 57.2 L 82.6 51.7 L 88.3 46.2 L 93.5 40.6 L 98.2 34.9 L 102.4 29.1 L 106.1 23.3 L 109.3 17.3 L 112.0 11.3 L 112.02344923019409 11.310756587982178 L 112.6 10.1 L 122.9 16.3 L 124.8 19.4 L 120.99435214996338 19.793687725067137 L 119.3 22.9 L 116.31935482025146 27.3 L 164.4 27.3 L 170.4 22.3 L 181.4 31.3 L 176.4 34.3 L 174.21069431304932 35.2122106552124 L 170.1 44.2 L 163.0 56.1 L 154.7 67.0 L 145.1 76.8 L 134.4 85.6 L 122.5 93.3 L 109.4 100.0 L 95.2 105.5 L 79.9 110.0 L 63.4 113.2 L 63.0 111.5 L 78.8 106.3 L 93.3 100.5 L 106.5 94.1 L 118.5 86.8 L 129.2 78.9 L 138.7 70.1 L 146.9 60.6 L 154.0 50.3 L 159.9 39.2 L 163.06000003814697 31.3 L 113.40491800308227 31.3 L 110.4 35.2 L 105.2 41.0 L 99.6 46.5 L 99.1040641784668 46.923945140838626 L 100.9 47.5 L 105.9 49.1 L 110.6 50.9 L 114.9 52.8 L 118.9 54.8 L 122.5 57.0 L 125.9 59.2 L 128.9 61.6 L 131.7 64.1 L 134.1 66.7 L 135.0 71.2 L 132.5 75.1 L 128.0 75.9 L 124.2 73.4 L 123.0 71.3 Z M 38.6 109.4 L 35.0 106.7 L 34.2 102.2 L 34.8 100.1 L 35.1 98.0 L 34.9 95.7 L 34.1 93.2 L 32.90909090042114 90.81818180084228 L 32.0 91.5 L 31.48421049118042 88.66315793991089 L 30.6 87.4 L 27.8 84.3 L 24.3 81.1 L 20.1 77.7 L 15.1 74.4 L 15.9 72.8 L 21.6 75.0 L 26.8 77.2 L 29.68508768081665 78.76798248291016 L 29.6 78.3 L 33.2 75.9 L 37.2 73.0 L 41.4 69.7 L 46.0 66.0 L 50.8 61.8 L 56.0 57.2 L 61.5 52.2 L 67.3 46.8 L 73.6 41.1 L 80.3 35.1 L 81.6 36.3 L 76.4 43.7 L 71.3 50.5 L 66.3 56.7 L 61.5 62.5 L 56.8 67.8 L 52.4 72.7 L 48.2 77.1 L 44.2 81.2 L 40.4 84.8 L 39.245148468017575 85.79445543289185 L 41.7 88.6 L 44.0 92.3 L 45.4 96.3 L 46.1 100.5 L 45.8 104.9 L 43.1 108.6 Z M 47.4 36.0 L 45.7 34.4 L 43.6 32.8 L 41.2 31.2 L 38.4 29.5 L 35.4 27.8 L 28.4 24.3 L 24.3 22.8 L 24.8 21.0 L 29.1 21.6 L 33.2 22.0 L 37.1 22.5 L 40.8 23.3 L 44.2 24.1 L 47.4 25.1 L 50.4 26.2 L 53.3 27.5 L 55.9 28.9 L 58.3 30.5 L 60.0 34.7 L 58.3 39.0 L 54.1 40.7 L 49.9 39.1 L 48.8 37.6 Z " />
</g>
</svg>
