<svg xmlns="http://www.w3.org/2000/svg" xmlns:xlink="http://www.w3.org/1999/xlink" version="1.1" baseProfile="full" viewBox="0 0 200 200" width="200" height="200">
<g fill="black">
<path d="M 99.0 41.0 L 131.2 41.0 L 131.2 12.0 L 143.2 14.0 L 146.2 16.0 L 143.2 17.8 L 143.2 41.0 L 167.0 41.0 L 177.0 31.0 L 189.0 41.0 L 189.0 45.0 L 99.0 45.0 L 99.0 104.0 L 98.5 115.2 L 97.7 125.9 L 96.5 136.1 L 94.9 145.6 L 93.0 154.5 L 90.7 162.8 L 88.0 170.5 L 84.8 177.6 L 81.2 183.9 L 77.1 189.4 L 75.6 188.5 L 77.8 182.2 L 79.8 175.6 L 81.7 168.5 L 83.3 161.0 L 84.7 152.9 L 85.7 144.2 L 86.5 135.0 L 86.50444250106811 134.91292762756348 L 79.6 138.9 L 72.4 142.7 L 65.3 146.4 L 58.1 149.9 L 51.1 153.3 L 44.1 156.6 L 37.1 159.8 L 30.2 163.0 L 20.387302303314208 167.4734356880188 L 19.6 171.2 L 16.6 169.2 L 10.3 158.7 L 12.2 158.0 L 19.1 155.5 L 26.2 153.1 L 33.3 150.5 L 40.5 148.0 L 47.8 145.4 L 52.111901092529294 143.94327669143678 L 51.3 143.8 L 52.4 133.8 L 53.5 124.4 L 54.7 115.5 L 55.9 107.2 L 56.9 99.4 L 57.9 92.1 L 58.7 85.3 L 59.4 79.1 L 60.0 73.3 L 60.40327167510986 69.10597438812256 L 60.3 69.1 L 60.8 66.1 L 72.4 69.8 L 75.1 72.2 L 71.60648851394653 73.62328243255615 L 71.3 75.1 L 70.0 80.8 L 68.6 87.1 L 67.0 93.8 L 65.3 101.0 L 63.3 108.7 L 61.2 116.9 L 58.8 125.5 L 56.1 134.6 L 53.16751394271851 143.58665065765382 L 55.2 142.9 L 62.7 140.3 L 70.3 137.8 L 78.1 135.4 L 86.0 133.1 L 86.53112840652466 134.3898832321167 L 87.0 125.2 L 87.1 114.9 L 87.0 104.0 L 87.0 35.0 Z M 114.8 176.2 L 136.1 176.2 L 137.0 176.0 L 137.6 175.8 L 137.9 175.6 L 138.1 175.5 L 138.2 175.3 L 138.4 175.0 L 138.6 174.4 L 138.8 173.5 L 138.8 112.2 L 100.8 112.2 L 100.8 108.2 L 176.2 108.2 L 176.7699999809265 107.725 L 176.9 107.4 L 177.06023254394532 107.4831395149231 L 182.2 103.2 L 193.2 112.2 L 188.2 115.2 L 185.059259223938 116.50864200592041 L 183.4 118.8 L 181.2 121.8 L 178.8 124.8 L 176.3 127.9 L 173.7 130.9 L 170.9 134.0 L 167.9 137.1 L 164.6 140.1 L 161.4 143.3 L 160.0 142.1 L 162.2 138.2 L 164.1 134.3 L 166.0 130.6 L 167.9 127.0 L 169.7 123.4 L 171.3 120.0 L 172.9 116.7 L 174.3 113.5 L 174.88709678649903 112.2 L 150.8 112.2 L 150.8 172.2 L 150.7 174.8 L 150.3 177.3 L 149.4 179.7 L 148.2 182.0 L 146.6 184.0 L 144.6 185.6 L 142.3 186.8 L 139.9 187.6 L 137.4 188.1 L 134.8 188.2 L 134.8 182.2 L 114.8 179.2 Z M 29.5 120.3 L 29.2 113.9 L 28.2 101.1 L 27.5 94.7 L 26.8 88.4 L 26.0 82.0 L 24.6 69.2 L 26.3 68.7 L 28.9 74.7 L 31.2 80.8 L 33.2 87.0 L 35.0 93.4 L 36.6 99.8 L 38.0 106.2 L 39.2 112.7 L 40.2 119.3 L 41.1 126.0 L 41.8 132.7 L 40.2 136.9 L 36.1 138.9 L 31.8 137.4 L 29.8 133.3 L 29.7 126.8 Z M 141.6 98.1 L 140.0 95.1 L 138.2 92.3 L 136.3 89.5 L 134.3 86.7 L 132.0 83.9 L 129.6 81.2 L 127.1 78.4 L 124.2 75.8 L 125.2 74.3 L 128.8 75.9 L 132.3 77.6 L 135.7 79.5 L 139.0 81.7 L 142.0 84.1 L 144.9 86.6 L 147.2848484992981 88.8996753692627 L 147.5 88.6 L 150.0 84.8 L 152.5 81.2 L 154.8 77.8 L 157.0 74.5 L 159.0 71.3 L 160.8 68.2 L 162.5 65.2 L 162.66071424484252 64.9 L 110.0 64.9 L 110.0 60.9 L 164.4 60.9 L 164.93814430236816 60.451546382904056 L 165.3 59.7 L 165.6101351737976 59.891554069519046 L 170.4 55.9 L 181.4 64.9 L 176.4 67.9 L 172.80574159622194 69.39760761260986 L 171.1 71.4 L 168.6 74.1 L 166.0 76.8 L 163.1 79.6 L 160.1 82.4 L 156.9 85.2 L 153.5 88.0 L 149.8 90.8 L 149.35161638259888 91.1421875 L 150.3 92.2 L 152.7 95.3 L 154.9 98.5 L 155.3 103.1 L 152.4 106.6 L 147.8 107.0 L 144.3 104.1 L 143.0 101.0 Z M 12.6 56.0 L 40.8 56.0 L 40.8 17.0 L 52.8 19.0 L 55.8 21.0 L 52.8 22.8 L 52.8 56.0 L 62.6 56.0 L 72.6 46.0 L 84.6 56.0 L 84.6 60.0 L 12.6 60.0 Z " />
</g>
</svg>
