<svg xmlns="http://www.w3.org/2000/svg" xmlns:xlink="http://www.w3.org/1999/xlink" version="1.1" baseProfile="full" viewBox="0 0 200 200" width="200" height="200">
<g fill="black">
<path d="M 149.5 164.0 L 159.5 164.0 L 160.7 163.9 L 161.6 163.7 L 162.2 163.5 L 162.6 163.4 L 162.8 163.2 L 162.9 163.0 L 163.1 162.7 L 163.3 162.1 L 163.4 161.2 L 163.5 160.0 L 163.5 116.0 L 138.8 116.0 L 138.8 182.0 L 126.8 188.0 L 126.8 116.0 L 101.0 116.0 L 101.0 169.0 L 89.0 175.0 L 89.0 106.0 L 101.0 112.0 L 126.8 112.0 L 126.8 82.3 L 89.25348834991455 82.3 L 89.4 84.4 L 89.5 88.4 L 89.3 92.2 L 88.9 95.6 L 88.3 98.9 L 87.3 101.9 L 85.9 104.7 L 84.1 107.2 L 79.7 108.7 L 75.6 106.7 L 74.2 102.4 L 76.1 98.3 L 77.1 97.8 L 78.2 96.8 L 79.4 95.2 L 80.6 93.2 L 81.8 90.6 L 82.9 87.5 L 83.8 83.9 L 84.7 79.9 L 85.6 75.4 L 86.1 70.5 L 87.9 70.4 L 88.4 75.4 L 88.8319149017334 78.3 L 170.5 78.3 L 176.5 73.3 L 187.5 82.3 L 182.5 85.3 L 179.09726028442384 86.71780824661255 L 178.1 88.0 L 176.5 90.0 L 174.9 92.1 L 173.2 94.2 L 171.3 96.5 L 169.2 98.8 L 167.0 101.1 L 165.1 103.8 L 163.5 102.9 L 164.9 99.9 L 165.8 96.8 L 166.7 93.9 L 167.6 91.2 L 168.3 88.6 L 169.0 86.2 L 169.7 83.9 L 170.08095235824584 82.3 L 138.8 82.3 L 138.8 112.0 L 163.5 112.0 L 169.5 107.0 L 180.5 116.0 L 175.5 120.0 L 175.5 160.0 L 175.4 162.5 L 174.9 165.0 L 174.1 167.4 L 172.9 169.7 L 171.2 171.7 L 169.2 173.3 L 167.0 174.6 L 164.6 175.4 L 162.1 175.8 L 159.5 176.0 L 159.5 170.0 L 149.5 167.0 Z M 14.0 158.1 L 26.2 153.1 L 32.4 150.6 L 38.7 148.1 L 48.99818181991577 143.91636362075806 L 48.3 143.8 L 49.1 133.9 L 50.0 124.5 L 51.0 115.6 L 51.9 107.3 L 52.8 99.5 L 53.5 92.2 L 54.2 85.4 L 54.8 79.2 L 55.2 73.4 L 55.52300319671631 69.20095844268799 L 55.5 69.2 L 55.8 66.1 L 67.5 69.7 L 70.2 72.0 L 66.75794916152954 73.55866451263428 L 66.5 74.9 L 65.4 80.7 L 64.1 86.9 L 62.7 93.7 L 61.1 100.9 L 59.4 108.6 L 57.5 116.8 L 55.3 125.4 L 52.9 134.5 L 50.30886259078979 143.38389959335328 L 51.5 142.9 L 58.0 140.4 L 64.7 137.8 L 71.5 135.4 L 78.4 133.1 L 79.2 134.8 L 73.1 138.8 L 67.0 142.7 L 60.9 146.3 L 54.8 149.8 L 48.7 153.2 L 42.7 156.5 L 36.7 159.7 L 30.8 162.9 L 24.9 166.0 L 22.729559707641602 167.1226414680481 L 22.1 170.9 L 19.1 169.0 L 12.2 158.9 Z M 28.9 120.3 L 28.6 113.8 L 28.3 107.4 L 27.9 101.0 L 27.3 94.7 L 26.8 88.3 L 26.2 81.9 L 25.6 75.6 L 25.2 69.1 L 26.9 68.7 L 29.3 74.7 L 31.4 80.9 L 33.2 87.1 L 34.8 93.5 L 36.3 99.9 L 37.5 106.3 L 38.6 112.8 L 39.6 119.4 L 40.4 126.0 L 41.0 132.7 L 39.4 137.0 L 35.3 138.9 L 31.0 137.3 L 29.0 133.2 L 29.0 126.7 Z M 86.4 67.5 L 86.4 25.0 L 98.4 27.0 L 101.4 29.0 L 98.4 30.8 L 98.4 57.5 L 126.8 57.5 L 126.8 12.9 L 138.8 14.9 L 141.8 16.9 L 138.8 18.7 L 138.8 57.5 L 166.5 57.5 L 166.5 25.0 L 178.5 27.0 L 181.5 29.0 L 178.5 30.8 L 178.5 63.5 L 166.5 69.5 L 166.5 61.5 L 98.4 61.5 Z M 14.9 56.0 L 38.5 56.0 L 38.5 17.0 L 50.5 19.0 L 53.5 21.0 L 50.5 22.8 L 50.5 56.0 L 55.3 56.0 L 65.3 46.0 L 77.3 56.0 L 77.3 60.0 L 14.9 60.0 Z " />
</g>
</svg>
