<svg xmlns="http://www.w3.org/2000/svg" xmlns:xlink="http://www.w3.org/1999/xlink" version="1.1" baseProfile="full" viewBox="0 0 200 200" width="200" height="200">
<g fill="black">
<path d="M 149.9 178.5 L 167.1 178.5 L 168.1 178.3 L 168.6 178.1 L 169.0 178.0 L 169.2 177.8 L 169.3 177.6 L 169.5 177.3 L 169.7 176.7 L 169.8 175.8 L 169.9 174.5 L 169.9 150.9 L 141.5 150.9 L 141.5 164.00588235855102 L 146.9 163.9 L 152.1 164.0 L 152.30717134475708 164.01195220947267 L 152.0 163.5 L 150.7 161.4 L 149.1 159.3 L 147.5 157.0 L 145.3 155.2 L 146.3 153.7 L 148.9 155.2 L 151.6 156.3 L 154.1 157.6 L 156.5 159.1 L 158.7 160.6 L 160.7 162.3 L 162.6 164.1 L 164.4 166.0 L 165.9 168.0 L 167.3 170.2 L 167.2 174.8 L 163.9 177.9 L 159.3 177.8 L 156.1 174.5 L 155.9 172.8 L 155.5 171.1 L 154.9 169.3 L 154.1 167.5 L 154.018039894104 167.31786642074584 L 152.6 167.8 L 147.6 169.2 L 142.6 170.5 L 137.6 171.6 L 127.6 173.6 L 122.7 174.5 L 117.7 175.4 L 112.8 176.3 L 111.9690773010254 176.4356608390808 L 110.1 179.8 L 107.9 177.1 L 104.7 165.3 L 106.7 165.1 L 111.6 164.9 L 116.6 164.8 L 129.5 164.28400001525878 L 129.5 150.9 L 101.0 150.9 L 101.0 183.5 L 89.0 189.5 L 89.0 140.9 L 101.0 146.9 L 129.5 146.9 L 129.5 138.0 L 109.3 138.0 L 97.3 144.0 L 97.3 100.3 L 109.3 106.3 L 161.6 106.3 L 167.6 101.3 L 178.6 110.3 L 173.6 114.3 L 173.6 138.0 L 161.6 144.0 L 161.6 138.0 L 141.5 138.0 L 141.5 146.9 L 169.9 146.9 L 175.9 141.9 L 186.9 150.9 L 181.9 154.9 L 181.9 174.5 L 181.8 177.1 L 181.3 179.6 L 180.5 182.0 L 179.3 184.3 L 177.7 186.3 L 175.6 187.9 L 173.4 189.2 L 171.0 190.0 L 168.5 190.4 L 165.9 190.5 L 165.9 184.5 L 149.9 181.5 Z M 70.7 148.8 L 69.1 147.0 L 67.3 145.1 L 65.3 143.3 L 63.0 141.4 L 60.5 139.6 L 57.8 137.8 L 55.3 136.16206893920898 L 55.3 182.4 L 43.3 188.4 L 43.3 138.6470588684082 L 42.8 139.5 L 39.3 145.1 L 35.5 150.5 L 31.6 155.5 L 27.4 160.3 L 23.1 164.7 L 18.5 168.7 L 13.6 172.3 L 12.3 171.0 L 15.7 166.1 L 19.0 161.2 L 22.2 156.3 L 25.4 151.2 L 28.4 145.9 L 31.2 140.5 L 33.9 134.8 L 36.5 129.0 L 38.9 123.0 L 39.617073154449464 120.9 L 12.9 120.9 L 12.9 116.9 L 43.3 116.9 L 43.3 85.14615383148194 L 42.3 85.3 L 35.5 86.2 L 28.6 86.8 L 21.3 87.0 L 13.9 86.9 L 13.7 85.1 L 20.8 83.3 L 27.7 81.5 L 34.3 79.7 L 40.7 77.9 L 46.8 76.0 L 52.5 74.1 L 58.1 72.0 L 63.3 69.9 L 68.2 67.6 L 72.9 65.2 L 73.94881267547608 67.48641157150269 L 81.6 74.5 L 81.7 77.7 L 77.89183053970336 76.10302572250366 L 72.5 78.1 L 66.9 79.9 L 61.1 81.6 L 55.3 82.95333337783813 L 55.3 116.9 L 63.6 116.9 L 73.6 106.9 L 85.6 116.9 L 85.6 120.9 L 55.3 120.9 L 55.3 133.3027777671814 L 55.8 133.4 L 59.4 133.9 L 62.8 134.7 L 66.0 135.6 L 69.1 136.7 L 72.1 138.0 L 74.9 139.5 L 77.6 141.1 L 80.1 143.0 L 82.4 145.0 L 83.7 149.4 L 81.6 153.4 L 77.2 154.7 L 73.2 152.6 L 72.0 150.7 Z M 109.3 124.2 L 109.3 134.0 L 129.5 134.0 L 129.5 124.2 Z M 141.5 124.2 L 141.5 134.0 L 161.6 134.0 L 161.6 124.2 Z M 109.3 110.3 L 109.3 120.2 L 129.5 120.2 L 129.5 110.3 Z M 141.5 110.3 L 141.5 120.2 L 161.6 120.2 L 161.6 110.3 Z M 25.2 105.1 L 24.7 103.3 L 23.9 101.3 L 23.0 99.3 L 22.0 97.2 L 20.7 95.1 L 19.3 92.8 L 17.4 90.8 L 18.5 89.4 L 20.8 91.0 L 23.3 92.3 L 25.7 93.8 L 27.8 95.3 L 29.8 97.0 L 31.6 98.8 L 33.3 100.6 L 34.9 102.6 L 36.2 104.7 L 37.4 106.9 L 36.7 111.4 L 33.2 114.3 L 28.6 113.6 L 25.8 110.1 L 25.6 106.9 Z M 82.1 88.9 L 83.9 92.0 L 79.7077940940857 92.36139707565307 L 78.6 93.9 L 74.8 98.9 L 70.6 103.9 L 68.3 106.4 L 65.9 108.9 L 63.4 111.3 L 61.0 114.0 L 59.5 112.9 L 61.1 109.8 L 63.7 103.4 L 64.9 100.4 L 66.2 97.5 L 68.4 91.7 L 69.5 89.0 L 70.4 86.2 L 70.977871799469 84.53059253692626 L 70.9 84.5 L 71.1875 83.925 L 71.3 83.6 L 71.34014873504638 83.61970262527466 L 71.9 82.5 Z M 158.7 70.8 L 161.7 72.8 L 158.7 74.6 L 158.7 79.9 L 172.9777777671814 79.9 L 179.2 72.9 L 187.2 79.9 L 187.2 83.9 L 158.7 83.9 L 158.7 98.0 L 146.7 104.0 L 146.7 98.0 L 124.2 98.0 L 112.2 104.0 L 112.2 83.9 L 83.7 83.9 L 83.7 79.9 L 112.2 79.9 L 112.2 68.8 L 124.2 70.8 L 127.2 72.8 L 124.2 74.6 L 124.2 79.9 L 146.7 79.9 L 146.7 68.8 Z M 124.2 83.9 L 124.2 94.0 L 146.7 94.0 L 146.7 83.9 Z M 83.4 41.7 L 85.8 44.5 L 81.6641107559204 45.588391876220705 L 80.9 47.3 L 77.2 52.2 L 72.5 56.5 L 67.0 60.3 L 60.6 63.6 L 53.3 66.4 L 45.1 68.9 L 36.0 70.9 L 26.0 72.4 L 15.1 73.3 L 14.8 71.6 L 25.3 68.6 L 34.7 65.7 L 43.1 62.6 L 50.4 59.4 L 56.7 56.1 L 61.8 52.6 L 65.9 49.0 L 68.8 45.4 L 70.8 41.9 L 71.9 38.4 L 71.90706825256348 38.402028274536136 L 72.4 36.8 Z M 178.0 40.7 L 180.0 40.7 L 178.0 57.7 L 181.0 59.7 L 183.0 62.7 L 181.0 65.7 L 178.0 67.7 L 127.5 67.7 L 125.1 67.4 L 122.8 66.7 L 120.6 65.6 L 118.6 64.1 L 116.9 62.2 L 115.6 60.1 L 114.7 57.7 L 114.2 55.3 L 114.0 52.7 L 114.0 34.6 L 32.9 34.6 L 32.9 36.5 L 32.6 40.1 L 31.8 43.5 L 30.6 46.8 L 29.0 49.8 L 26.8 52.6 L 24.2 55.1 L 21.1 57.2 L 16.6 57.2 L 13.2 54.1 L 13.1 49.6 L 16.2 46.2 L 18.2 45.6 L 20.0 44.8 L 21.8 43.7 L 23.4 42.2 L 24.9 40.4 L 26.4 38.1 L 27.6 35.4 L 28.8 32.3 L 29.7 28.7 L 30.1 24.7 L 31.9 24.6 L 32.3 28.7 L 32.58500003814697 30.6 L 94.0 30.6 L 94.0 11.0 L 106.0 13.0 L 109.0 15.0 L 106.0 16.8 L 106.0 30.6 L 170.0 30.6 L 170.66774196624755 30.043548393249512 L 171.3 28.7 L 171.79158573150636 29.10701189041138 L 176.0 25.6 L 187.0 34.6 L 182.0 37.6 L 175.29411764144896 40.39411764144897 L 175.0 40.6 L 172.9 42.1 L 168.1 45.3 L 165.4 46.9 L 162.6 48.6 L 159.5 50.3 L 156.5 52.4 L 155.4 51.0 L 157.8 48.4 L 159.9 45.6 L 161.8 43.0 L 163.7 40.6 L 165.4 38.3 L 166.9 36.1 L 167.9 34.6 L 126.0 34.6 L 126.0 52.7 L 125.9 54.0 L 126.0 54.9 L 126.1 55.6 L 126.2 56.0 L 126.3 56.3 L 126.5 56.6 L 126.9 56.9 L 127.6 57.3 L 128.6 57.6 L 130.0 57.7 L 173.0 57.7 Z " />
</g>
</svg>
