<svg xmlns="http://www.w3.org/2000/svg" xmlns:xlink="http://www.w3.org/1999/xlink" version="1.1" baseProfile="full" viewBox="0 0 200 200" width="200" height="200">
<g fill="black">
<path d="M 106.0 66.9 L 109.0 68.9 L 106.0 70.7 L 106.0 88.2 L 164.0 88.2 L 174.0 78.2 L 186.0 88.2 L 186.0 92.2 L 106.0 92.2 L 106.0 173.0 L 157.9 173.0 L 157.9 106.6 L 169.9 108.6 L 172.9 110.6 L 169.9 112.4 L 169.9 181.0 L 157.9 187.0 L 157.9 177.0 L 42.0 177.0 L 42.0 184.0 L 30.0 190.0 L 30.0 106.6 L 42.0 108.6 L 45.0 110.6 L 42.0 112.4 L 42.0 173.0 L 94.0 173.0 L 94.0 92.2 L 14.0 92.2 L 14.0 88.2 L 94.0 88.2 L 94.0 64.9 Z M 67.5 59.9 L 66.2 57.3 L 64.7 54.7 L 62.9 52.1 L 60.8 49.4 L 58.4 46.8 L 55.7 44.0 L 52.8 41.2 L 50.446153831481936 39.4 L 45.964516162872314 39.4 L 43.7 43.3 L 39.7 49.4 L 35.4 55.2 L 30.6 60.7 L 25.4 66.0 L 19.7 70.9 L 13.6 75.4 L 12.3 74.1 L 17.0 68.2 L 21.4 62.4 L 25.4 56.7 L 29.2 50.8 L 32.5 44.9 L 35.5 38.9 L 38.2 32.8 L 40.4 26.6 L 42.3 20.3 L 43.67183094024658 14.812676048278808 L 43.6 14.8 L 44.3 12.2 L 55.5 16.9 L 57.9 19.6 L 54.25263156890869 20.642105293273925 L 53.2 23.8 L 50.4 30.5 L 48.09848480224609 35.4 L 85.0 35.4 L 95.0 25.4 L 107.0 35.4 L 107.0 39.4 L 55.7625 39.4 L 58.2 40.4 L 61.8 42.2 L 65.2 44.3 L 68.4 46.5 L 71.3 49.0 L 74.0 51.5 L 76.4 54.3 L 78.5 57.2 L 80.4 60.3 L 80.3 64.9 L 77.1 68.2 L 72.5 68.1 L 69.3 64.9 L 68.5 62.4 Z M 146.5 59.9 L 145.2 57.3 L 143.7 54.7 L 141.9 52.1 L 139.8 49.4 L 137.4 46.8 L 134.7 44.0 L 131.8 41.2 L 129.44615383148192 39.4 L 123.33695650100708 39.4 L 121.4 42.1 L 117.8 46.4 L 113.8 50.6 L 109.4 54.4 L 104.7 57.9 L 99.5 61.0 L 98.4 59.6 L 102.1 55.1 L 105.6 50.6 L 108.8 46.3 L 111.7 41.8 L 114.4 37.4 L 116.7 32.8 L 118.7 28.2 L 120.4 23.5 L 121.8 18.8 L 122.69422636032104 14.816628170013427 L 122.6 14.8 L 123.3 12.2 L 134.5 16.9 L 136.9 19.5 L 133.1887819290161 20.626619815826416 L 132.6 22.3 L 130.3 27.6 L 127.7 32.6 L 125.98571424484253 35.4 L 165.0 35.4 L 175.0 25.4 L 187.0 35.4 L 187.0 39.4 L 134.7625 39.4 L 137.2 40.4 L 140.8 42.2 L 144.2 44.3 L 147.4 46.5 L 150.3 49.0 L 153.0 51.5 L 155.4 54.3 L 157.5 57.2 L 159.4 60.3 L 159.3 64.9 L 156.1 68.2 L 151.5 68.1 L 148.3 64.9 L 147.5 62.4 Z " />
</g>
</svg>
