<svg xmlns="http://www.w3.org/2000/svg" xmlns:xlink="http://www.w3.org/1999/xlink" version="1.1" baseProfile="full" viewBox="0 0 200 200" width="200" height="200">
<g fill="black">
<path d="M 155.1 187.5 L 145.9 185.2 L 137.4 182.5 L 129.7 179.4 L 122.6 175.8 L 116.4 171.7 L 110.9 167.2 L 106.3 162.2 L 102.9 156.7 L 97.62875003814698 156.7 L 97.2 157.4 L 90.9 164.5 L 83.3 170.7 L 74.4 175.9 L 64.4 180.2 L 53.1 183.7 L 40.7 186.3 L 27.0 187.9 L 12.0 188.6 L 11.9 186.8 L 26.4 184.1 L 39.5 181.0 L 51.2 177.4 L 61.5 173.2 L 70.3 168.5 L 77.7 163.3 L 83.7 157.5 L 84.3032787322998 156.7 L 12.0 156.7 L 12.0 152.7 L 87.31967210769653 152.7 L 88.3 151.4 L 91.7 144.7 L 93.62377882003784 138.40399646759033 L 93.6 138.4 L 94.3 135.8 L 105.5 140.4 L 107.9 143.1 L 104.03697891235352 144.27270278930663 L 102.1 149.4 L 100.07875003814698 152.7 L 165.0 152.7 L 175.0 142.7 L 187.0 152.7 L 187.0 156.7 L 105.7972222328186 156.7 L 109.2 159.2 L 114.5 162.5 L 120.1 165.5 L 126.3 168.3 L 133.0 170.7 L 140.4 172.7 L 148.4 174.4 L 157.1 175.8 L 166.5 176.9 L 176.5 177.5 L 187.3 178.4 L 175.4 190.7 L 164.9 189.3 Z M 126.0 134.4 L 142.0 134.4 L 143.2 134.3 L 144.1 134.1 L 145.0 133.8 L 145.4 133.4 L 145.7 132.5 L 145.9 131.6 L 146.0 130.4 L 146.0 112.2 L 84.0 112.2 L 84.0 108.2 L 146.0 108.2 L 146.0 94.5 L 158.0 96.5 L 161.0 98.5 L 158.0 100.3 L 158.0 108.2 L 164.0 108.2 L 174.0 98.2 L 186.0 108.2 L 186.0 112.2 L 158.0 112.2 L 158.0 130.4 L 157.8 132.9 L 157.4 135.4 L 156.6 137.8 L 155.3 140.1 L 153.7 142.1 L 151.7 143.7 L 149.4 145.0 L 147.0 145.8 L 144.5 146.2 L 142.0 146.4 L 142.0 140.4 L 126.0 137.4 Z M 18.0 109.3 L 18.0 105.3 L 65.0 105.3 L 65.0 91.6 L 44.0 91.6 L 32.0 97.6 L 32.0 63.7 L 44.0 65.7 L 47.0 67.7 L 44.0 69.5 L 44.0 87.6 L 65.0 87.6 L 65.0 60.7 L 77.0 62.7 L 80.0 64.7 L 77.0 66.5 L 77.0 139.6 L 65.0 145.6 L 65.0 109.3 L 47.0 109.3 L 47.0 110.2 L 46.3 115.2 L 45.1 120.0 L 43.3 124.4 L 40.9 128.6 L 38.0 132.4 L 34.6 135.9 L 30.8 139.0 L 26.4 141.8 L 21.6 144.2 L 16.4 146.3 L 15.5 144.7 L 19.8 141.3 L 23.5 137.9 L 26.6 134.5 L 29.3 131.1 L 31.4 127.7 L 33.0 124.3 L 34.1 120.9 L 34.8 117.4 L 35.1 113.9 L 35.0 110.2 L 35.0 109.3 Z M 110.2 127.8 L 109.2 126.4 L 108.0 124.9 L 106.5 123.3 L 104.8 121.7 L 102.9 120.0 L 100.7 118.3 L 98.4 116.5 L 95.6 115.1 L 96.2 113.4 L 99.2 114.3 L 102.3 114.8 L 105.2 115.4 L 107.9 116.2 L 110.4 117.1 L 112.8 118.0 L 115.1 119.2 L 117.2 120.4 L 119.2 121.8 L 121.0 123.4 L 122.0 127.8 L 119.7 131.8 L 115.3 132.8 L 111.3 130.5 L 110.9 129.2 Z M 107.8 92.8 L 107.3 91.7 L 106.6 90.6 L 105.7 89.4 L 104.6 88.2 L 103.4 86.9 L 102.0 85.6 L 101.00195693969727 84.73502931594848 L 98.0 85.6 L 91.8 87.1 L 85.2 88.3 L 84.7 86.6 L 90.5 83.5 L 96.1 80.6 L 101.2 77.8 L 106.1 75.1 L 110.5 72.3 L 114.6 69.5 L 118.2 66.7 L 121.5 63.9 L 124.4 61.1 L 127.0 58.2 L 127.01444568634034 58.21410970687866 L 127.3 57.9 L 135.6 66.6 L 136.2800000190735 70.0 L 156.5 70.0 L 158.7 67.8 L 159.13003225326537 68.22497310638428 L 163.0 65.0 L 174.0 74.0 L 169.0 77.0 L 163.6019672393799 79.24918031692505 L 161.3 81.2 L 154.9 85.7 L 148.0 89.8 L 140.6 93.4 L 132.6 96.7 L 124.1 99.5 L 115.2 101.9 L 105.7 103.8 L 95.6 105.2 L 85.1 106.0 L 84.8 104.2 L 94.9 101.4 L 104.4 98.6 L 111.28680219650269 96.27860603332519 L 108.4 94.8 L 108.2 93.8 Z M 125.0 85.4 L 124.5 84.4 L 123.7 83.3 L 122.7 82.2 L 121.5 81.1 L 120.1 79.9 L 118.5 78.7 L 117.83840656280518 78.23299283981324 L 114.5 79.8 L 109.4 81.9 L 106.86902656555176 82.82035398483276 L 107.4 82.9 L 109.3 83.4 L 111.1 83.9 L 112.8 84.5 L 114.5 85.3 L 116.2 86.2 L 117.7 87.2 L 119.0 91.6 L 117.77956819534302 93.81896686553955 L 121.6 92.3 L 129.3 88.9 L 129.43921566009521 88.82549018859864 L 125.5 87.0 L 125.4 86.3 Z M 125.51538457870484 74.0 L 123.9 75.0 L 122.95423727035522 75.52542371749878 L 123.7 75.6 L 125.7 75.9 L 127.6 76.2 L 129.4 76.7 L 131.1 77.3 L 132.8 78.0 L 134.4 79.0 L 135.9 83.3 L 134.66584072113037 86.0281415939331 L 136.4 85.1 L 142.9 81.2 L 148.7 76.9 L 152.1931818008423 74.0 Z M 132.0 69.6 L 131.442857170105 70.0 L 135.8615385055542 70.0 L 132.4528925895691 69.22258949279785 Z M 66.6 54.6 L 65.4 52.4 L 63.9 50.1 L 62.1 47.8 L 60.0 45.4 L 57.6 43.0 L 54.9 40.6 L 51.9 38.0 L 49.581818199157716 36.5 L 45.018181800842285 36.5 L 42.6 40.3 L 38.6 45.5 L 34.2 50.5 L 29.4 55.3 L 24.3 59.8 L 18.6 64.0 L 12.5 67.8 L 11.4 66.4 L 16.1 61.1 L 20.5 56.0 L 24.6 50.9 L 28.3 45.8 L 31.7 40.6 L 34.7 35.4 L 37.3 30.1 L 39.5 24.8 L 41.4 19.3 L 42.65156593322754 14.710925006866455 L 42.6 14.7 L 43.4 12.2 L 54.4 17.2 L 56.7 20.0 L 52.99502258300781 20.92624435424805 L 52.1 23.3 L 49.3 29.2 L 47.41428575515747 32.5 L 84.0 32.5 L 94.0 22.5 L 106.0 32.5 L 106.0 36.5 L 55.9 36.5 L 57.1 36.9 L 60.6 38.4 L 64.0 40.1 L 67.1 41.9 L 70.0 43.9 L 72.6 46.1 L 75.0 48.4 L 77.2 51.0 L 79.1 53.7 L 79.3 58.2 L 76.2 61.6 L 71.7 61.8 L 68.2 58.8 L 67.6 56.7 Z M 145.6 54.6 L 144.4 52.4 L 142.9 50.1 L 141.1 47.8 L 139.0 45.4 L 136.6 43.0 L 133.9 40.6 L 130.9 38.0 L 128.5818181991577 36.5 L 123.57692308425904 36.5 L 121.5 39.5 L 117.5 44.4 L 113.1 49.0 L 108.3 53.3 L 103.1 57.3 L 97.5 60.9 L 91.5 64.1 L 90.4 62.6 L 95.2 57.9 L 99.6 53.3 L 103.7 48.6 L 107.4 44.0 L 110.8 39.2 L 113.7 34.3 L 116.3 29.4 L 118.5 24.3 L 120.4 19.1 L 121.62098712921143 14.704446411132812 L 121.6 14.7 L 121.76842107772828 14.173684215545654 L 121.9 13.7 L 121.91822500228882 13.705546760559082 L 122.4 12.2 L 133.4 17.2 L 135.7 20.0 L 131.9073929786682 20.93151750564575 L 131.0 23.2 L 128.3 28.8 L 126.14727268218994 32.5 L 164.0 32.5 L 174.0 22.5 L 186.0 32.5 L 186.0 36.5 L 134.9 36.5 L 136.1 36.9 L 139.6 38.4 L 143.0 40.1 L 146.1 41.9 L 149.0 43.9 L 151.6 46.1 L 154.0 48.4 L 156.2 51.0 L 158.1 53.7 L 158.3 58.2 L 155.2 61.6 L 150.7 61.8 L 147.2 58.8 L 146.6 56.7 Z " />
</g>
</svg>
