<svg xmlns="http://www.w3.org/2000/svg" xmlns:xlink="http://www.w3.org/1999/xlink" version="1.1" baseProfile="full" viewBox="0 0 200 200" width="200" height="200">
<g fill="black">
<path d="M 182.7 154.8 L 184.7 154.8 L 182.7 175.8 L 186.0 178.0 L 188.2 181.3 L 186.0 184.6 L 182.7 186.8 L 138.5 186.8 L 135.9 186.7 L 133.5 186.4 L 131.1 185.6 L 128.9 184.5 L 126.9 182.9 L 125.2 180.9 L 124.0 178.7 L 123.1 176.4 L 122.6 173.9 L 122.5 171.3 L 122.5 159.0 L 93.9 159.0 L 93.9 171.0 L 81.9 177.0 L 81.9 108.9 L 93.9 114.9 L 122.5 114.9 L 122.5 98.6 L 101.4 98.6 L 101.4 101.6 L 89.4 107.6 L 89.4 66.4 L 101.4 72.4 L 155.5 72.4 L 161.5 67.4 L 172.5 76.4 L 167.5 80.4 L 167.5 100.6 L 155.5 106.6 L 155.5 98.6 L 134.5 98.6 L 134.5 114.9 L 163.0 114.9 L 169.0 109.9 L 180.0 118.9 L 175.0 122.9 L 175.0 163.0 L 163.0 169.0 L 163.0 159.0 L 134.5 159.0 L 134.5 172.6 L 134.6 173.5 L 134.7 174.1 L 134.9 174.5 L 135.0 174.8 L 135.2 175.0 L 136.2 175.5 L 137.2 175.7 L 138.5 175.8 L 177.2 175.8 Z M 16.9 170.2 L 22.4 168.9 L 27.9 167.5 L 33.5 166.1 L 39.2 164.6 L 45.0 163.2 L 57.0 160.4 L 63.1 159.1 L 69.4 157.9 L 75.9 156.8 L 76.5 158.6 L 70.6 161.5 L 64.8 164.2 L 59.0 166.7 L 47.6 171.3 L 42.0 173.5 L 36.5 175.6 L 31.1 177.7 L 24.37492446899414 180.2377643585205 L 23.3 184.0 L 20.5 181.7 L 15.0 170.8 Z M 18.6 143.6 L 18.67286033630371 142.28851346969606 L 18.3 141.3 L 20.2 140.9 L 20.973684215545653 140.78947372436522 L 22.3 140.2 L 26.3 137.2 L 30.9 133.1 L 35.8 127.8 L 41.1 121.7 L 46.5 114.9 L 46.88181819915771 114.41404962539673 L 46.2 114.6 L 42.0 115.6 L 37.7 116.6 L 29.5 118.4 L 21.790209770202637 119.94195804595947 L 19.9 123.5 L 17.6 120.8 L 15.269940090179443 112.2079041481018 L 15.1 112.2 L 15.12853021621704 111.6864553451538 L 14.4 109.0 L 16.4 108.8 L 18.173448657989503 108.75452699661255 L 21.1 106.3 L 24.4 102.6 L 28.0 98.1 L 31.6 92.8 L 35.1 87.2 L 38.5 81.4 L 41.6 75.9 L 44.4 70.7 L 46.140298461914064 67.21940298080445 L 46.1 67.2 L 47.1 65.4 L 56.9 72.4 L 58.5 75.7 L 54.7 75.7 L 54.1 76.6 L 50.8 81.5 L 47.0 86.9 L 42.8 92.5 L 38.3 97.9 L 33.7 103.0 L 29.0 107.3 L 27.061609172821044 108.632643699646 L 28.4 108.6 L 32.6 108.5 L 45.5 108.5 L 50.0 108.6 L 51.402102088928224 108.66096096038818 L 52.0 107.9 L 57.3 100.8 L 62.5 93.9 L 67.4 87.5 L 67.43906583786011 87.53312101364136 L 67.8 87.1 L 76.6 95.3 L 77.6 98.7 L 74.00312414169312 98.1418641090393 L 71.3 101.1 L 65.7 107.6 L 59.7 114.3 L 53.6 121.0 L 47.4 127.4 L 41.2 133.2 L 35.1 138.1 L 33.631223583221434 139.0210970878601 L 37.0 138.6 L 42.7 137.8 L 54.1 136.4 L 60.0 135.8 L 65.8 135.2 L 71.8 134.9 L 77.8 134.7 L 78.1 136.5 L 72.5 138.6 L 66.9 140.5 L 61.2 142.2 L 50.0 145.4 L 33.5 149.9 L 28.0 151.3 L 26.600630474090575 151.66279945373535 L 25.1 155.2 L 22.6 152.7 L 19.176237964630126 143.6230495452881 Z M 93.9 138.4 L 93.9 155.0 L 122.5 155.0 L 122.5 138.4 Z M 134.5 138.4 L 134.5 155.0 L 163.0 155.0 L 163.0 138.4 Z M 93.9 118.9 L 93.9 134.4 L 122.5 134.4 L 122.5 118.9 Z M 134.5 118.9 L 134.5 134.4 L 163.0 134.4 L 163.0 118.9 Z M 101.4 76.4 L 101.4 94.6 L 155.5 94.6 L 155.5 76.4 Z M 66.6 56.2 L 65.4 53.9 L 63.9 51.6 L 62.0 49.2 L 59.9 46.8 L 57.5 44.3 L 54.8 41.8 L 51.9 39.2 L 49.465217399597165 37.6 L 45.04285717010498 37.6 L 42.6 41.4 L 38.6 46.9 L 34.3 52.1 L 29.5 57.0 L 24.3 61.7 L 18.6 66.0 L 12.5 70.0 L 11.4 68.6 L 16.1 63.2 L 20.5 57.9 L 24.6 52.7 L 28.3 47.4 L 31.6 42.1 L 34.6 36.7 L 37.2 31.2 L 39.5 25.6 L 41.4 20.0 L 42.65994920730591 15.212193012237549 L 42.6 15.2 L 43.4 12.6 L 54.4 17.6 L 56.8 20.3 L 53.030385684967044 21.29200372695923 L 52.1 23.8 L 49.3 29.9 L 47.35593223571777 33.6 L 84.0 33.6 L 94.0 23.6 L 106.0 33.6 L 106.0 37.6 L 55.6 37.6 L 57.1 38.1 L 60.7 39.7 L 64.1 41.5 L 67.2 43.4 L 70.1 45.5 L 72.7 47.8 L 75.1 50.2 L 77.3 52.8 L 79.2 55.6 L 79.3 60.2 L 76.2 63.6 L 71.6 63.7 L 68.2 60.6 L 67.6 58.5 Z M 145.6 56.2 L 144.4 53.9 L 142.9 51.6 L 141.0 49.2 L 138.9 46.8 L 136.5 44.3 L 133.8 41.8 L 130.9 39.2 L 128.46521739959718 37.6 L 123.5 37.6 L 121.5 40.6 L 117.5 45.6 L 113.2 50.4 L 108.4 54.9 L 103.2 59.1 L 97.5 62.9 L 91.5 66.2 L 90.4 64.7 L 95.2 59.9 L 99.6 55.1 L 103.7 50.3 L 107.4 45.5 L 110.7 40.6 L 113.7 35.6 L 116.3 30.4 L 118.5 25.2 L 120.4 19.8 L 121.63048219680786 15.206199741363525 L 121.6 15.2 L 121.84827585220337 14.393103408813477 L 121.9 14.2 L 121.90705089569092 14.202084636688232 L 122.4 12.6 L 133.4 17.6 L 135.7 20.4 L 131.99502258300782 21.326244354248047 L 131.1 23.7 L 128.3 29.6 L 126.01428575515747 33.6 L 164.0 33.6 L 174.0 23.6 L 186.0 33.6 L 186.0 37.6 L 134.6 37.6 L 136.1 38.1 L 139.7 39.7 L 143.1 41.5 L 146.2 43.4 L 149.1 45.5 L 151.7 47.8 L 154.1 50.2 L 156.3 52.8 L 158.2 55.6 L 158.3 60.2 L 155.2 63.6 L 150.6 63.7 L 147.2 60.6 L 146.6 58.5 Z " />
</g>
</svg>
