<svg xmlns="http://www.w3.org/2000/svg" xmlns:xlink="http://www.w3.org/1999/xlink" version="1.1" baseProfile="full" viewBox="0 0 200 200" width="200" height="200">
<g fill="black">
<path d="M 167.4 156.3 L 166.6 154.8 L 165.4 153.1 L 164.0 151.4 L 162.8853470802307 150.07634963989258 L 156.4 151.3 L 146.4 153.0 L 137.0 154.5 L 137.0 181.4 L 125.0 187.4 L 125.0 156.11084337234496 L 119.8 156.8 L 112.1 157.7 L 106.60380706787109 158.3967004776001 L 114.7 165.1 L 115.9 168.5 L 111.5565022468567 168.1255605697632 L 110.1 169.4 L 107.5 171.5 L 104.8 173.4 L 101.9 175.2 L 98.8 177.0 L 95.5 178.6 L 92.0 180.1 L 88.3 181.5 L 84.6 183.0 L 83.7 181.4 L 86.9 179.1 L 89.7 176.5 L 92.3 174.0 L 94.8 171.6 L 97.0 169.2 L 99.0 166.9 L 100.8 164.6 L 102.4 162.4 L 103.8 160.2 L 104.52270021438599 158.87504959106445 L 104.4 158.8 L 104.50538644790649 158.65245904922486 L 98.4 159.3 L 92.4 159.8 L 91.1819016456604 159.91278686523438 L 89.1 163.2 L 87.0 160.3 L 84.8 148.3 L 86.8 148.3 L 92.0 148.5 L 111.5 148.5 L 119.03159170150757 148.30437421798706 L 119.8 147.6 L 123.3 144.3 L 126.7 141.2 L 130.1 138.2 L 133.4 135.3 L 139.6 129.7 L 142.5 127.0 L 145.4 124.4 L 147.38420820236206 122.48928098678589 L 147.3 122.4 L 148.2 121.7 L 155.6 131.2 L 155.9 134.8 L 152.18034677505494 133.37976875305176 L 149.0 135.5 L 145.5 137.6 L 141.9 139.8 L 138.1 142.0 L 134.2 144.1 L 130.2 146.3 L 126.5544303894043 148.12278480529784 L 127.5 148.1 L 136.4 147.9 L 145.9 147.7 L 156.1 147.5 L 160.4 147.5 L 158.3 145.3 L 155.9 143.0 L 153.1 141.1 L 153.9 139.5 L 157.1 141.0 L 160.3 142.0 L 163.3 143.1 L 166.0 144.3 L 168.5 145.5 L 170.9 146.7 L 173.0 148.0 L 175.0 149.3 L 178.4 152.3 L 179.1 156.9 L 176.5 160.6 L 171.9 161.3 L 168.2 158.7 L 167.9 157.6 Z M 44.8 176.2 L 61.2 176.2 L 61.8 176.0 L 62.2 175.9 L 62.5 175.7 L 62.6 175.6 L 62.8 175.3 L 63.0 174.9 L 63.2 174.1 L 63.4 173.1 L 63.4 123.3029411315918 L 60.5 123.9 L 53.5 125.3 L 39.3 127.7 L 39.07461948394776 127.73704881668091 L 39.0 130.1 L 38.2 139.0 L 37.1 147.3 L 35.5 155.1 L 33.6 162.2 L 31.2 168.7 L 28.3 174.5 L 25.0 179.7 L 21.2 184.0 L 16.9 187.5 L 15.6 186.2 L 18.1 181.8 L 20.4 177.0 L 22.3 171.8 L 24.0 166.2 L 25.3 160.1 L 26.4 153.4 L 27.1 146.1 L 27.5 138.3 L 27.6 129.8 L 27.591842269897462 129.55526666641236 L 24.6 130.0 L 21.10242805480957 130.46020679473878 L 19.3 133.8 L 17.0 131.0 L 13.9 119.2 L 15.9 119.1 L 23.4 118.6 L 27.3 118.38918914794922 L 27.3 70.8 L 39.3 76.8 L 41.68000001907349 76.8 L 42.1 76.2 L 43.0 73.9 L 43.8 71.6 L 44.6 69.5 L 45.3 67.4 L 45.9 65.3 L 46.5 63.4 L 46.9 61.4 L 47.3 59.5 L 47.438030052185056 58.671819400787356 L 47.2 58.6 L 48.1 56.4 L 58.8 62.1 L 60.8 65.1 L 56.14827585220337 65.83448276519775 L 56.1 65.9 L 54.7 67.7 L 53.1 69.5 L 51.5 71.2 L 47.9 74.6 L 46.0 76.1 L 45.019999980926514 76.8 L 63.4 76.8 L 68.9 71.8 L 79.4 80.8 L 74.4 84.3 L 74.4 115.5641791343689 L 79.9 115.4 L 86.6 115.4 L 86.9 117.2 L 80.5 119.2 L 74.4 120.88923072814941 L 74.4 171.7 L 74.3 174.2 L 74.0 176.5 L 73.3 178.8 L 72.3 180.9 L 70.9 182.8 L 69.1 184.5 L 67.1 185.8 L 64.9 186.6 L 62.5 187.1 L 60.2 187.2 L 60.2 181.7 L 44.8 179.0 Z M 163.6 177.1 L 162.4 175.3 L 161.0 173.4 L 159.3 171.4 L 157.4 169.4 L 155.2 167.3 L 152.9 165.2 L 150.4 162.9 L 147.4 160.9 L 148.2 159.3 L 151.6 160.6 L 154.9 161.7 L 158.1 162.8 L 161.0 164.1 L 163.8 165.4 L 166.4 166.9 L 168.9 168.4 L 171.1 170.0 L 173.2 171.8 L 175.2 173.6 L 176.1 178.1 L 173.8 182.0 L 169.3 182.9 L 165.4 180.6 L 164.6 178.9 Z M 55.0 132.0 L 57.8 134.0 L 55.0 135.75 L 55.0 159.9 L 44.0 165.4 L 44.0 130.0 Z M 112.3 137.0 L 111.1 135.5 L 109.8 133.9 L 108.4 132.4 L 107.0 130.8 L 105.4 129.3 L 103.8 127.7 L 101.9 126.6 L 102.6 124.9 L 104.7 125.6 L 107.1 126.0 L 109.4 126.5 L 111.7 127.2 L 111.75523014068604 127.21757326126098 L 112.0 127.0 L 114.3 124.4 L 116.4 122.0 L 118.5 119.7 L 120.4 117.5 L 122.2 115.4 L 123.9 113.4 L 125.3 111.6 L 126.7 109.9 L 127.25549087524413 109.04151411056519 L 127.1 108.9 L 127.69154930114746 108.36760559082032 L 127.8 108.2 L 127.83547592163086 108.23807172775268 L 128.1 108.0 L 136.0 117.0 L 136.6 120.5 L 132.30967741012574 119.27419357299804 L 132.1 119.4 L 129.9 120.7 L 127.6 122.0 L 125.1 123.4 L 122.5 124.8 L 116.7 127.7 L 115.083505153656 128.40721645355225 L 116.0 128.8 L 118.1 129.8 L 120.2 131.0 L 122.2 132.2 L 124.1 133.5 L 125.7 137.8 L 123.9 142.0 L 119.6 143.6 L 115.4 141.8 L 114.5 140.2 Z M 166.9 129.2 L 162.0 124.7 L 157.5 119.9 L 153.5 114.9 L 150.0 109.6 L 147.46363639831543 105.1 L 117.58000001907348 105.1 L 115.9 107.5 L 109.6 114.8 L 102.6 121.4 L 94.9 127.3 L 86.5 132.4 L 77.4 136.7 L 76.6 135.1 L 84.4 129.3 L 91.6 123.1 L 98.1 116.7 L 103.9 109.8 L 107.22916669845581 105.1 L 77.6 105.1 L 77.6 101.1 L 109.86538457870483 101.1 L 113.5 94.8 L 117.25365858078003 86.7 L 98.1 86.7 L 98.1 83.30588235855103 L 96.1 84.6 L 92.5 86.6 L 84.9 90.2 L 84.0 88.7 L 87.0 85.9 L 89.7 82.9 L 92.3 80.0 L 94.8 77.2 L 97.2 74.3 L 99.4 71.4 L 101.5 68.5 L 103.4 65.6 L 105.2 62.6 L 106.33417720794678 60.47341775894165 L 106.2 60.4 L 107.3 58.8 L 116.8 66.2 L 118.2 69.5 L 114.15069122314453 69.36036863327027 L 111.6 72.1 L 108.8 74.9 L 105.8 77.5 L 102.7 80.0 L 99.5 82.4 L 99.03636360168457 82.7 L 118.68965520858765 82.7 L 120.4 77.9 L 123.0 68.7 L 124.72321863174439 59.90251531600952 L 124.7 59.9 L 125.2 57.1 L 136.7 61.2 L 139.2 63.7 L 135.72631578445436 64.9865496635437 L 134.0 71.7 L 130.6 81.6 L 130.09782609939575 82.7 L 141.8 82.7 L 151.8 72.7 L 163.8 82.7 L 163.8 86.7 L 143.61538457870483 86.7 L 146.1 90.5 L 149.5 95.5 L 153.0 100.2 L 153.75681819915772 101.1 L 162.3 101.1 L 172.3 91.1 L 184.3 101.1 L 184.3 105.1 L 157.16428575515747 105.1 L 160.6 108.8 L 164.8 112.8 L 169.3 116.4 L 174.1 119.9 L 179.1 123.1 L 184.5 126.0 L 189.0 128.7 L 177.8 137.4 L 172.2 133.5 Z M 39.3 80.8 L 39.3 117.72361106872559 L 45.4 117.3 L 52.5 116.8 L 59.5 116.4 L 63.4 116.17391300201416 L 63.4 80.8 Z M 47.9 103.2 L 47.6 100.8 L 47.2 98.5 L 46.7 96.3 L 46.1 94.1 L 45.3 92.0 L 43.3 87.8 L 41.6 86.0 L 42.7 84.6 L 44.9 86.0 L 47.2 87.3 L 49.4 88.9 L 51.4 90.7 L 53.3 92.9 L 55.0 95.2 L 56.5 97.8 L 57.8 100.5 L 58.9 103.5 L 59.9 106.6 L 58.7 111.0 L 54.8 113.4 L 50.4 112.2 L 48.0 108.3 L 48.0 105.7 Z M 128.2717391014099 86.7 L 126.4 90.8 L 121.5 99.5 L 120.38000001907349 101.1 L 145.5551724433899 101.1 L 144.3 98.3 L 142.3 92.2 L 141.1650794029236 86.7 Z M 164.9 80.5 L 163.6 78.2 L 162.1 75.9 L 160.4 73.6 L 158.6 71.3 L 156.6 69.0 L 154.4 66.6 L 152.1 64.2 L 149.4 62.1 L 150.2 60.6 L 153.5 62.0 L 156.7 63.2 L 159.9 64.6 L 162.8 66.2 L 165.6 68.0 L 168.3 69.9 L 170.8 72.0 L 173.2 74.2 L 175.4 76.6 L 177.4 79.1 L 178.0 83.6 L 175.2 87.3 L 170.7 87.8 L 167.0 85.1 L 166.1 82.8 Z M 66.7 51.3 L 65.5 49.2 L 64.0 47.1 L 62.2 44.9 L 60.1 42.7 L 57.7 40.4 L 54.9 38.1 L 51.9 35.7 L 49.73636360168457 34.3 L 45.039215660095216 34.3 L 42.5 38.0 L 38.5 42.9 L 34.1 47.5 L 29.4 52.0 L 24.2 56.1 L 18.6 59.9 L 12.5 63.4 L 11.4 61.9 L 16.2 57.0 L 20.6 52.1 L 24.7 47.4 L 28.4 42.6 L 31.8 37.7 L 34.7 32.9 L 37.3 27.9 L 39.6 23.0 L 41.4 17.9 L 42.60551147460937 13.801261138916015 L 42.6 13.8 L 42.672727298736575 13.572727298736572 L 42.9 12.8 L 42.918133068084714 12.805834102630616 L 43.4 11.3 L 54.4 16.5 L 56.6 19.3 L 52.83166666030884 20.159444427490236 L 52.0 22.1 L 49.2 27.6 L 47.56981134414673 30.3 L 84.0 30.3 L 94.0 20.3 L 106.0 30.3 L 106.0 34.3 L 56.675 34.3 L 57.0 34.4 L 60.6 35.7 L 63.9 37.3 L 67.0 38.9 L 69.8 40.7 L 72.5 42.7 L 74.9 44.9 L 77.0 47.2 L 78.9 49.7 L 79.2 54.3 L 76.3 57.8 L 71.7 58.1 L 68.2 55.1 L 67.6 53.2 Z M 145.7 51.3 L 144.5 49.2 L 143.0 47.1 L 141.2 44.9 L 139.1 42.7 L 136.7 40.4 L 133.9 38.1 L 130.9 35.7 L 128.73636360168456 34.3 L 123.575 34.3 L 121.4 37.2 L 117.4 41.8 L 113.0 46.1 L 108.2 50.1 L 103.1 53.8 L 97.5 57.1 L 91.4 60.0 L 90.5 58.5 L 95.2 54.0 L 99.7 49.6 L 103.8 45.3 L 107.5 40.9 L 110.8 36.4 L 113.8 31.9 L 116.4 27.2 L 118.6 22.5 L 120.4 17.7 L 121.62281818389893 13.705460739135741 L 121.6 13.7 L 122.4 11.3 L 133.3 16.5 L 135.6 19.3 L 131.7631523132324 20.17507047653198 L 131.0 22.0 L 128.2 27.4 L 126.34399995803832 30.3 L 164.0 30.3 L 174.0 20.3 L 186.0 30.3 L 186.0 34.3 L 135.675 34.3 L 136.0 34.4 L 139.6 35.7 L 142.9 37.3 L 146.0 38.9 L 148.8 40.7 L 151.5 42.7 L 153.9 44.9 L 156.0 47.2 L 157.9 49.7 L 158.2 54.3 L 155.3 57.8 L 150.7 58.1 L 147.2 55.1 L 146.6 53.2 Z " />
</g>
</svg>
