<svg xmlns="http://www.w3.org/2000/svg" xmlns:xlink="http://www.w3.org/1999/xlink" version="1.1" baseProfile="full" viewBox="0 0 200 200" width="200" height="200">
<g fill="black">
<path d="M 140.3 169.7 L 140.6 173.3 L 136.88525485992432 171.8816427230835 L 136.7 172.0 L 132.9 174.2 L 128.8 176.3 L 124.4 178.3 L 119.7 180.2 L 114.8 182.1 L 109.6 183.8 L 104.1 185.4 L 98.2 186.8 L 92.0 188.0 L 91.4 186.3 L 96.9 183.3 L 102.1 180.5 L 107.0 177.8 L 111.7 175.2 L 116.0 172.6 L 120.0 170.1 L 123.7 167.6 L 127.1 165.1 L 130.1 162.7 L 132.1444043159485 160.94765338897705 L 132.1 160.9 L 132.9 160.2 Z M 54.2339653968811 165.95449295043946 L 58.1 170.1 L 58.2 173.6 L 54.56956100463867 172.10892686843872 L 53.5 172.7 L 49.6 174.6 L 45.6 176.6 L 41.5 178.4 L 37.3 180.3 L 32.9 182.0 L 28.4 183.7 L 23.8 185.3 L 19.0 186.7 L 14.0 188.0 L 13.3 186.3 L 17.5 183.5 L 21.6 180.7 L 25.6 178.0 L 29.6 175.5 L 33.4 173.0 L 37.1 170.5 L 40.7 168.0 L 44.1 165.5 L 47.5 163.1 L 49.85068607330322 161.26352653503417 L 49.8 161.2 L 49.855636787414554 161.25965871810914 L 50.7 160.6 Z M 172.3 179.6 L 170.3 177.5 L 168.0 175.4 L 165.6 173.3 L 163.0 171.2 L 160.2 169.2 L 157.2 167.2 L 154.0 165.1 L 150.5 163.3 L 151.0 161.6 L 155.0 162.4 L 158.9 163.1 L 162.6 164.1 L 166.1 165.3 L 169.6 166.6 L 172.8 168.1 L 176.0 169.7 L 179.0 171.6 L 181.8 173.5 L 184.5 175.7 L 186.1 180.0 L 184.2 184.2 L 179.9 185.7 L 175.8 183.9 L 174.1 181.7 Z M 88.4 177.7 L 86.9 176.1 L 85.1 174.5 L 83.0 172.8 L 80.7 171.0 L 78.2 169.1 L 75.4 167.2 L 72.5 165.1 L 69.1 163.3 L 69.8 161.7 L 73.4 162.7 L 77.1 163.4 L 80.5 164.2 L 83.6 165.2 L 86.6 166.1 L 89.4 167.1 L 92.0 168.2 L 94.5 169.4 L 96.8 170.6 L 98.9 171.9 L 100.7 176.0 L 99.2 180.4 L 95.0 182.2 L 90.7 180.7 L 89.7 179.3 Z M 27.1 99.9 L 30.1 101.9 L 27.1 103.7 L 27.1 155.0 L 90.41818180084229 155.0 L 98.6 146.0 L 108.6 155.0 L 108.6 159.0 L 27.1 159.0 L 27.1 162.0 L 15.1 168.0 L 15.1 97.9 Z M 188.0 67.5 L 188.0 71.5 L 154.187096786499 71.5 L 153.3 72.6 L 151.5 74.7 L 149.6 76.8 L 147.7 78.8 L 145.7 80.7 L 143.6 82.5 L 141.4 84.3 L 139.2 86.0 L 136.8 87.6 L 136.0 88.1 L 165.4 88.1 L 171.4 83.1 L 182.4 92.1 L 177.4 96.1 L 177.4 155.3 L 165.4 161.3 L 165.4 155.3 L 125.9 155.3 L 113.9 161.3 L 113.9 82.1 L 125.9 88.1 L 131.98181819915771 88.1 L 132.6 87.3 L 134.0 84.9 L 135.3 82.5 L 136.6 80.2 L 139.0 75.6 L 140.1 73.3 L 140.8826086997986 71.5 L 105.0 71.5 L 105.0 67.5 L 166.0 67.5 L 176.0 57.5 Z M 51.3 96.9 L 80.5 96.9 L 86.5 91.9 L 97.5 100.9 L 92.5 104.9 L 92.5 145.8 L 80.5 151.8 L 80.5 145.8 L 51.3 145.8 L 39.3 151.8 L 39.3 90.9 Z M 125.9 134.0 L 125.9 151.3 L 165.4 151.3 L 165.4 134.0 Z M 51.3 131.1 L 51.3 141.8 L 80.5 141.8 L 80.5 131.1 Z M 125.9 113.4 L 125.9 130.0 L 165.4 130.0 L 165.4 113.4 Z M 51.3 115.6 L 51.3 127.1 L 80.5 127.1 L 80.5 115.6 Z M 51.3 100.9 L 51.3 111.6 L 80.5 111.6 L 80.5 100.9 Z M 125.9 92.1 L 125.9 109.4 L 165.4 109.4 L 165.4 92.1 Z M 34.0 90.5 L 31.7 90.3 L 29.4 89.8 L 27.3 88.8 L 25.3 87.5 L 23.6 85.7 L 22.3 83.7 L 21.3 81.4 L 20.7 79.0 L 20.3 76.4 L 20.3 57.5 L 32.3 59.5 L 35.3 61.5 L 32.3 63.3 L 32.3 71.27288131713867 L 38.1 69.7 L 49.7 66.7 L 55.4 65.2 L 66.6 62.2 L 77.6 59.0 L 82.02223224639893 57.664986515045165 L 82.0 57.6 L 82.06275024414063 57.652754592895505 L 82.9 57.4 L 83.21614351272584 58.62242155075073 L 93.3 67.1 L 93.6 70.1 L 89.33550510406494 68.117910861969 L 85.9 69.0 L 80.2 70.1 L 74.5 71.1 L 68.7 72.0 L 62.8 72.9 L 56.9 73.6 L 51.0 74.2 L 44.9 74.7 L 38.8 75.0 L 32.7 75.1 L 32.3 75.08095235824585 L 32.3 76.4 L 32.2 77.7 L 32.2 79.4 L 32.3 80.0 L 32.4 80.4 L 32.6 80.8 L 33.0 81.3 L 33.8 81.8 L 34.9 82.2 L 36.3 82.4 L 95.1 82.4 L 99.1 73.4 L 101.1 73.4 L 99.1 82.4 L 101.5 84.0 L 103.1 86.4 L 101.5 88.8 L 99.1 90.4 L 36.3 90.4 Z M 66.8 49.6 L 65.6 47.7 L 64.1 45.7 L 62.3 43.6 L 60.2 41.5 L 57.7 39.3 L 55.0 37.1 L 52.0 34.8 L 49.9 33.6 L 45.1 33.6 L 42.4 37.2 L 38.4 41.8 L 34.0 46.1 L 29.3 50.3 L 24.1 54.1 L 18.5 57.7 L 12.5 60.9 L 11.4 59.4 L 16.2 54.7 L 20.6 50.1 L 24.7 45.5 L 28.5 41.0 L 31.8 36.4 L 34.8 31.8 L 37.4 27.2 L 39.6 22.5 L 41.5 17.8 L 42.607771492004396 14.001926231384278 L 42.6 14.0 L 42.694117641448976 13.705882358551026 L 42.9 13.0 L 42.918026542663576 13.006167030334472 L 43.4 11.5 L 54.3 16.9 L 56.5 19.7 L 52.63266887664795 20.582022857666015 L 51.9 22.2 L 49.2 27.4 L 47.7920000076294 29.6 L 84.0 29.6 L 94.0 19.6 L 106.0 29.6 L 106.0 33.6 L 57.5 33.6 L 60.5 34.6 L 63.8 36.0 L 66.9 37.5 L 69.7 39.2 L 72.3 41.0 L 74.7 43.0 L 76.9 45.1 L 78.8 47.5 L 79.2 52.1 L 76.4 55.6 L 71.8 56.0 L 68.2 53.2 L 67.7 51.5 Z M 145.8 49.6 L 144.6 47.7 L 143.1 45.7 L 141.3 43.6 L 139.2 41.5 L 136.7 39.3 L 134.0 37.1 L 131.0 34.8 L 128.9 33.6 L 123.61999998092651 33.6 L 121.3 36.5 L 117.3 40.8 L 112.9 44.8 L 108.2 48.5 L 103.0 51.9 L 97.4 55.0 L 91.4 57.7 L 90.5 56.1 L 95.3 51.9 L 99.7 47.7 L 103.9 43.5 L 107.6 39.4 L 110.9 35.2 L 113.9 30.9 L 116.5 26.5 L 118.6 22.1 L 120.5 17.6 L 121.6983024597168 13.92520580291748 L 121.6 13.9 L 122.5 11.5 L 133.3 16.9 L 135.5 19.8 L 131.61657514572144 20.61756315231323 L 130.9 22.2 L 128.1 27.2 L 126.5 29.6 L 164.0 29.6 L 174.0 19.6 L 186.0 29.6 L 186.0 33.6 L 136.5 33.6 L 139.5 34.6 L 142.8 36.0 L 145.9 37.5 L 148.7 39.2 L 151.3 41.0 L 153.7 43.0 L 155.9 45.1 L 157.8 47.5 L 158.2 52.1 L 155.4 55.6 L 150.8 56.0 L 147.2 53.2 L 146.7 51.5 Z " />
</g>
</svg>
