<svg xmlns="http://www.w3.org/2000/svg" xmlns:xlink="http://www.w3.org/1999/xlink" version="1.1" baseProfile="full" viewBox="0 0 200 200" width="200" height="200">
<g fill="black">
<path d="M 123.3 176.2 L 116.8 172.4 L 110.7 168.4 L 105.0 164.2 L 99.6 159.9 L 94.7 155.3 L 90.3 150.6 L 86.4 145.5 L 85.5 144.05454549789428 L 85.5 183.8 L 73.5 189.8 L 73.5 151.1714285850525 L 71.6 152.8 L 65.7 157.5 L 59.5 161.8 L 52.9 165.9 L 46.0 169.7 L 38.8 173.2 L 31.2 176.4 L 23.3 179.2 L 15.0 181.5 L 14.3 179.9 L 21.7 175.7 L 28.9 171.5 L 35.7 167.4 L 42.1 163.2 L 48.2 158.8 L 54.0 154.3 L 59.4 149.7 L 64.4 144.9 L 68.23673467636108 140.9 L 15.4 140.9 L 15.4 136.9 L 73.5 136.9 L 73.5 98.1 L 85.5 100.1 L 88.5 102.1 L 85.5 103.9 L 85.5 136.9 L 121.5 136.9 L 131.5 126.9 L 143.5 136.9 L 143.5 140.9 L 87.08611106872559 140.9 L 94.3 146.2 L 99.3 149.8 L 104.6 153.2 L 110.1 156.5 L 116.0 159.6 L 122.1 162.7 L 128.5 165.6 L 135.2 168.4 L 142.3 171.0 L 148.8 173.6 L 137.3 183.2 L 130.1 179.8 Z M 166.6 184.3 L 160.5 178.6 L 155.6 171.1 L 151.8 162.1 L 149.0 151.6 L 147.1 139.5 L 146.1 125.8 L 145.8 110.5 L 146.31834316253662 95.9 L 21.5 95.9 L 21.5 91.9 L 146.4 91.9 L 152.4 86.9 L 163.4 95.9 L 158.4 98.9 L 158.2291021347046 98.97120742797851 L 157.8 110.7 L 158.1 125.3 L 159.1 138.1 L 160.8 149.1 L 163.2 158.3 L 166.2 165.5 L 169.7 170.9 L 173.6 174.6 L 177.06063995361328 176.37055997848512 L 182.5 152.8 L 184.5 152.8 L 182.5818181991577 177.73636360168456 L 182.9 177.8 L 187.0 179.9 L 188.5 184.2 L 186.4 188.2 L 182.1 189.8 L 173.9 188.1 Z M 130.1 111.1 L 130.9 114.6 L 126.92191047668457 113.69271640777588 L 124.6 115.6 L 121.7 117.9 L 118.6 120.1 L 115.4 122.4 L 112.1 124.7 L 108.6 126.9 L 104.9 129.1 L 101.1 131.2 L 97.1 133.5 L 96.0 132.0 L 99.1 128.8 L 102.0 125.5 L 104.8 122.4 L 110.2 116.4 L 112.7 113.6 L 115.0 110.8 L 117.3 108.1 L 119.4 105.4 L 120.70500001907348 103.68289470672607 L 120.6 103.6 L 121.7 102.5 Z M 46.2 125.9 L 44.9 123.6 L 43.4 121.3 L 41.7 119.0 L 39.7 116.6 L 37.6 114.1 L 35.3 111.6 L 32.8 108.9 L 29.9 106.5 L 30.9 105.0 L 34.3 106.7 L 37.7 108.1 L 41.0 109.8 L 44.0 111.5 L 46.9 113.4 L 49.5 115.3 L 52.0 117.3 L 54.4 119.5 L 56.5 121.7 L 58.5 124.0 L 59.1 128.6 L 56.4 132.3 L 51.9 132.9 L 48.2 130.2 L 47.3 128.1 Z M 19.2 85.2 L 19.1 80.7 L 22.1 77.2 L 25.5 75.9 L 28.6 74.5 L 31.6 72.9 L 34.4 71.2 L 37.0 69.4 L 39.4 67.4 L 41.7 65.3 L 43.9 62.9 L 46.1 60.4 L 47.8 57.6 L 49.5 58.2 L 48.7 61.6 L 47.8 65.1 L 46.4 68.5 L 44.7 71.7 L 42.6 74.8 L 40.2 77.8 L 37.4 80.6 L 34.3 83.3 L 30.9 85.8 L 27.2 88.1 L 22.7 88.3 Z M 147.9 79.3 L 146.6 77.1 L 144.9 74.6 L 142.8 72.1 L 140.4 69.5 L 137.5 66.8 L 134.2 64.0 L 130.6 61.0 L 126.4 58.2 L 127.2 56.6 L 132.0 58.4 L 136.5 60.1 L 140.7 62.0 L 144.5 64.0 L 147.9 66.1 L 151.1 68.4 L 153.9 70.7 L 156.4 73.3 L 158.6 76.0 L 160.4 78.9 L 160.3 83.5 L 157.1 86.7 L 152.5 86.6 L 149.3 83.4 L 148.7 81.4 Z M 93.9 79.2 L 92.8 76.9 L 91.3 74.5 L 89.5 72.0 L 87.3 69.4 L 84.8 66.7 L 82.0 63.9 L 78.9 61.0 L 75.4 58.2 L 76.3 56.7 L 84.5 60.3 L 88.2 62.2 L 91.7 64.2 L 94.8 66.3 L 97.7 68.6 L 100.3 70.9 L 102.6 73.4 L 104.7 76.1 L 106.4 78.9 L 106.3 83.5 L 103.1 86.7 L 98.5 86.6 L 95.3 83.4 L 94.7 81.4 Z M 72.0 18.4 L 73.8 21.5 L 70.0 21.9 L 68.8 24.0 L 65.1 29.4 L 62.20588235855102 33.0 L 145.0 33.0 L 145.73333330154418 32.388888931274415 L 145.8 32.3 L 146.3 31.1 L 146.79158573150636 31.507011890411377 L 151.0 28.0 L 162.0 37.0 L 157.0 40.0 L 149.1373134613037 43.2761194229126 L 149.1 43.3 L 146.3 45.0 L 143.1 46.9 L 139.4 48.9 L 135.3 51.2 L 130.8 53.5 L 125.8 55.9 L 120.4 58.7 L 119.5 57.2 L 124.1 53.4 L 128.2 49.7 L 132.0 46.3 L 135.4 43.3 L 138.3 40.5 L 140.9 38.0 L 141.8545454978943 37.0 L 58.75 37.0 L 56.5 39.5 L 51.6 44.2 L 46.3 48.6 L 40.5 52.9 L 34.3 56.8 L 27.6 60.5 L 20.4 63.7 L 19.5 62.2 L 25.5 57.3 L 31.1 52.5 L 36.4 47.7 L 41.2 43.0 L 45.6 38.2 L 49.5 33.3 L 53.1 28.4 L 56.2 23.5 L 58.8 18.4 L 61.1 13.3 L 61.10413036346436 13.301932525634765 L 61.6 12.2 Z " />
</g>
</svg>
