<svg xmlns="http://www.w3.org/2000/svg" xmlns:xlink="http://www.w3.org/1999/xlink" version="1.1" baseProfile="full" viewBox="0 0 200 200" width="200" height="200">
<g fill="black">
<path d="M 158.0 177.2 L 149.5 173.7 L 141.4 169.9 L 133.8 165.8 L 126.6 161.4 L 119.9 156.7 L 113.6 151.6 L 108.0 146.2 L 106.0 143.79183673858643 L 106.0 182.0 L 94.0 188.0 L 94.0 146.3416666984558 L 91.5 148.8 L 84.9 154.4 L 77.8 159.6 L 70.2 164.5 L 62.0 168.9 L 53.3 173.0 L 44.1 176.6 L 34.4 179.9 L 24.1 182.6 L 13.2 184.8 L 12.7 183.1 L 22.9 179.0 L 32.5 174.8 L 41.5 170.6 L 50.0 166.1 L 57.9 161.5 L 65.2 156.6 L 71.8 151.6 L 77.9 146.3 L 83.29636363983154 141.0 L 15.0 141.0 L 15.0 137.0 L 94.0 137.0 L 94.0 104.0 L 106.0 106.0 L 109.0 108.0 L 106.0 109.8 L 106.0 137.0 L 118.59166669845581 137.0 L 120.7 134.7 L 123.6 131.1 L 126.4 127.7 L 129.1 124.5 L 131.5 121.5 L 133.8 118.7 L 135.9 116.0 L 137.7 113.5 L 139.3 111.1 L 140.13324871063233 109.79060916900634 L 140.0 109.7 L 141.1 108.4 L 150.0 116.5 L 151.0 120.0 L 146.82594146728516 119.35230121612548 L 145.4 120.6 L 142.8 122.7 L 140.0 125.0 L 137.0 127.3 L 133.8 129.6 L 130.4 132.0 L 126.6 134.5 L 122.6 137.0 L 163.0 137.0 L 173.0 127.0 L 185.0 137.0 L 185.0 141.0 L 107.58205127716064 141.0 L 117.1 146.8 L 123.8 150.6 L 130.7 154.1 L 138.0 157.5 L 145.6 160.5 L 153.5 163.4 L 161.8 166.0 L 170.5 168.4 L 179.6 170.6 L 188.0 172.7 L 176.3 183.3 L 167.0 180.4 Z M 66.6 129.9 L 65.2 128.0 L 63.4 126.1 L 61.4 124.1 L 59.0 122.1 L 56.4 119.9 L 53.4 117.7 L 50.2 115.3 L 46.5 113.2 L 47.2 111.5 L 51.3 112.8 L 55.3 113.9 L 59.0 115.1 L 62.4 116.4 L 65.6 117.7 L 68.5 119.2 L 71.2 120.7 L 73.7 122.3 L 76.0 124.1 L 78.0 126.0 L 79.1 130.5 L 76.7 134.4 L 72.3 135.4 L 68.3 133.1 L 67.6 131.5 Z M 183.0 43.0 L 183.0 47.0 L 122.0 47.0 L 122.0 61.0 L 155.0 61.0 L 161.0 56.0 L 172.0 65.0 L 167.0 69.0 L 167.0 109.0 L 155.0 115.0 L 155.0 103.0 L 45.0 103.0 L 33.0 109.0 L 33.0 55.0 L 45.0 61.0 L 76.0 61.0 L 76.0 47.0 L 17.0 47.0 L 17.0 43.0 L 164.8181818008423 43.0 L 173.0 34.0 Z M 45.0 65.0 L 45.0 92.9615385055542 L 51.2 90.1 L 56.9 87.1 L 61.9 84.1 L 66.1 81.1 L 69.5 78.0 L 72.1 74.9 L 74.0 71.8 L 75.2 68.8 L 75.9 65.8 L 75.92580642700196 65.0 Z M 150.0 69.0 L 152.0 69.0 L 150.0 78.0 L 152.4 79.6 L 154.0 82.0 L 152.4 84.4 L 150.0 86.0 L 123.6 86.0 L 121.3 85.8 L 119.0 85.3 L 116.9 84.3 L 114.9 83.0 L 113.2 81.2 L 111.9 79.2 L 110.9 76.9 L 110.3 74.5 L 110.0 72.0 L 110.0 65.0 L 87.5470588684082 65.0 L 86.9 68.3 L 85.1 73.0 L 82.4 77.3 L 79.0 81.1 L 74.9 84.4 L 70.2 87.3 L 64.9 89.8 L 59.0 91.9 L 52.4 93.6 L 45.2 94.8 L 45.0 94.11999998092651 L 45.0 99.0 L 155.0 99.0 L 155.0 65.0 L 122.0 65.0 L 122.0 72.0 L 121.8 73.2 L 121.8 74.9 L 121.9 75.5 L 122.0 75.9 L 122.2 76.4 L 122.7 76.8 L 123.4 77.3 L 124.5 77.7 L 126.0 78.0 L 146.0 78.0 Z M 88.0 47.0 L 88.0 61.0 L 110.0 61.0 L 110.0 47.0 Z M 160.0 22.0 L 160.0 26.0 L 40.0 26.0 L 40.0 22.0 L 138.0 22.0 L 148.0 12.0 Z " />
</g>
</svg>
