<svg xmlns="http://www.w3.org/2000/svg" xmlns:xlink="http://www.w3.org/1999/xlink" version="1.1" baseProfile="full" viewBox="0 0 200 200" width="200" height="200">
<g fill="black">
<path d="M 158.3 180.1 L 149.8 177.2 L 141.8 173.9 L 134.1 170.5 L 126.9 166.7 L 120.1 162.7 L 113.9 158.4 L 108.2 153.8 L 106.0 151.55600004196168 L 106.0 182.5 L 94.0 188.5 L 94.0 154.23166666030883 L 91.1 156.6 L 84.5 161.2 L 77.5 165.4 L 69.9 169.4 L 61.7 173.0 L 53.1 176.2 L 43.9 179.2 L 34.2 181.8 L 24.0 183.9 L 13.2 185.6 L 12.7 183.8 L 23.0 180.2 L 32.6 176.6 L 41.7 173.0 L 50.2 169.2 L 58.2 165.3 L 65.5 161.2 L 72.2 156.9 L 78.3 152.4 L 81.95217390060425 149.4 L 15.0 149.4 L 15.0 145.4 L 94.0 145.4 L 94.0 118.1 L 106.0 120.1 L 109.0 122.1 L 106.0 123.9 L 106.0 145.4 L 118.76000003814697 145.4 L 120.8 143.6 L 123.8 140.5 L 126.7 137.6 L 129.4 134.8 L 131.8 132.2 L 134.1 129.8 L 136.2 127.5 L 138.0 125.3 L 139.6 123.3 L 140.39422092437744 122.27885885238648 L 140.3 122.2 L 141.3 121.2 L 149.5 129.9 L 150.3 133.4 L 146.09807691574096 132.36794872283934 L 145.0 133.1 L 142.4 134.8 L 139.7 136.5 L 136.7 138.3 L 133.5 140.2 L 130.1 142.1 L 126.4 144.0 L 123.52631578445434 145.4 L 163.0 145.4 L 173.0 135.4 L 185.0 145.4 L 185.0 149.4 L 108.7709677696228 149.4 L 116.9 153.4 L 123.5 156.4 L 130.5 159.2 L 137.7 161.9 L 145.3 164.3 L 153.2 166.7 L 161.5 168.8 L 170.2 170.7 L 179.3 172.4 L 188.4 174.3 L 176.6 185.3 L 167.3 182.9 Z M 66.8 140.6 L 65.4 139.1 L 63.7 137.4 L 61.6 135.7 L 59.3 133.9 L 56.6 132.0 L 53.6 130.0 L 50.3 127.9 L 46.6 126.1 L 47.2 124.4 L 51.2 125.5 L 55.1 126.2 L 58.8 127.1 L 62.1 128.0 L 65.2 129.0 L 68.1 130.1 L 70.8 131.2 L 73.2 132.5 L 75.4 133.8 L 77.5 135.3 L 78.9 139.7 L 76.9 143.8 L 72.6 145.2 L 68.5 143.2 L 67.8 142.0 Z M 36.1 53.6 L 164.8 53.6 L 170.8 48.6 L 181.8 57.6 L 176.8 61.6 L 176.8 123.6 L 164.8 129.6 L 164.8 117.6 L 36.1 117.6 L 36.1 129.6 L 24.1 135.6 L 24.1 47.6 Z M 36.1 87.0 L 36.1 113.6 L 71.0 113.6 L 71.0 87.0 Z M 83.0 87.0 L 83.0 113.6 L 118.0 113.6 L 118.0 87.0 Z M 130.0 87.0 L 130.0 113.6 L 164.8 113.6 L 164.8 87.0 Z M 36.1 57.6 L 36.1 83.0 L 71.0 83.0 L 71.0 57.6 Z M 83.0 57.6 L 83.0 83.0 L 118.0 83.0 L 118.0 57.6 Z M 130.0 57.6 L 130.0 83.0 L 164.8 83.0 L 164.8 57.6 Z M 15.0 39.2 L 94.0 39.2 L 94.0 12.8 L 106.0 14.8 L 109.0 16.8 L 106.0 18.6 L 106.0 39.2 L 163.0 39.2 L 173.0 29.2 L 185.0 39.2 L 185.0 43.2 L 15.0 43.2 Z " />
</g>
</svg>
