<svg xmlns="http://www.w3.org/2000/svg" xmlns:xlink="http://www.w3.org/1999/xlink" version="1.1" baseProfile="full" viewBox="0 0 200 200" width="200" height="200">
<g fill="black">
<path d="M 119.0 172.0 L 112.7 168.3 L 106.8 164.5 L 101.2 160.5 L 96.1 156.3 L 91.3 151.9 L 87.0 147.3 L 83.2 142.5 L 82.5 141.32580642700196 L 82.5 178.9 L 70.5 184.9 L 70.5 148.2074073791504 L 68.9 149.6 L 63.1 154.0 L 57.1 158.1 L 50.7 162.0 L 43.9 165.6 L 36.9 169.0 L 29.5 172.0 L 21.8 174.6 L 13.7 176.9 L 13.1 175.2 L 20.3 171.2 L 27.2 167.2 L 33.8 163.2 L 40.1 159.1 L 46.0 154.9 L 51.6 150.6 L 56.9 146.1 L 61.8 141.5 L 65.15106382369996 138.0 L 14.1 138.0 L 14.1 134.0 L 70.5 134.0 L 70.5 96.9 L 82.5 98.9 L 85.5 100.9 L 82.5 102.7 L 82.5 134.0 L 116.8 134.0 L 126.8 124.0 L 138.8 134.0 L 138.8 138.0 L 84.08235292434692 138.0 L 86.2 139.5 L 90.9 142.9 L 95.9 146.3 L 101.0 149.5 L 106.4 152.7 L 112.0 155.7 L 118.0 158.6 L 124.2 161.3 L 130.8 164.0 L 137.6 166.5 L 144.2 169.1 L 132.7 178.7 L 125.7 175.4 Z M 125.8 109.6 L 126.6 113.1 L 122.60112152099609 112.18797512054444 L 120.5 113.9 L 117.6 116.0 L 114.6 118.2 L 111.5 120.3 L 108.2 122.5 L 104.8 124.6 L 101.3 126.7 L 97.5 128.7 L 93.7 130.8 L 92.6 129.4 L 95.6 126.3 L 98.4 123.1 L 101.1 120.1 L 103.8 117.2 L 106.3 114.4 L 108.7 111.6 L 111.0 109.0 L 113.2 106.3 L 115.2 103.8 L 116.50405902862549 102.08413286209107 L 116.4 102.0 L 117.4 101.0 Z M 44.0 123.6 L 42.7 121.5 L 41.3 119.3 L 39.6 117.0 L 37.8 114.7 L 35.7 112.3 L 33.5 109.9 L 31.1 107.3 L 28.3 105.0 L 29.2 103.5 L 32.5 105.1 L 35.9 106.5 L 39.0 108.0 L 42.0 109.7 L 44.8 111.4 L 47.4 113.3 L 49.8 115.2 L 52.1 117.2 L 54.2 119.3 L 56.1 121.5 L 56.7 126.0 L 54.1 129.8 L 49.6 130.4 L 45.8 127.7 L 45.0 125.7 Z M 93.0 72.7 L 113.0 72.7 L 114.2 72.6 L 115.1 72.4 L 116.0 72.1 L 116.4 71.7 L 116.7 70.8 L 116.9 69.9 L 117.0 68.7 L 117.0 37.3 L 91.79310340881348 37.3 L 91.1 44.0 L 89.1 52.2 L 85.9 59.7 L 81.7 66.6 L 76.3 72.7 L 70.0 78.1 L 62.7 82.7 L 54.5 86.6 L 45.3 89.7 L 40.908695697784424 90.7 L 145.0 90.7 L 151.0 85.7 L 162.0 94.7 L 157.0 97.7 L 156.75395908355713 97.80251703262329 L 156.4 109.2 L 156.6 123.5 L 157.6 136.1 L 159.4 146.9 L 161.9 155.8 L 165.0 162.9 L 168.6 168.2 L 172.6 171.8 L 176.52626724243163 173.71950845718385 L 182.0 150.0 L 184.0 150.0 L 182.08017492294312 174.95772590637208 L 182.3 175.0 L 186.4 177.0 L 187.9 181.3 L 185.9 185.4 L 181.6 186.9 L 173.3 185.4 L 165.8 181.7 L 159.5 176.0 L 154.4 168.7 L 150.5 159.8 L 147.6 149.4 L 145.7 137.5 L 144.6 124.0 L 144.4 109.0 L 144.9168674468994 94.7 L 16.0 94.7 L 16.0 90.7 L 34.81764707565308 90.7 L 34.7 90.3 L 44.0 86.2 L 52.1 81.8 L 59.2 77.2 L 65.2 72.2 L 70.1 67.0 L 73.9 61.4 L 76.8 55.5 L 78.7 49.2 L 79.8 42.5 L 79.9444444656372 37.3 L 16.0 37.3 L 16.0 33.3 L 94.0 33.3 L 94.0 12.2 L 106.0 14.2 L 109.0 16.2 L 106.0 18.0 L 106.0 33.3 L 162.0 33.3 L 172.0 23.3 L 184.0 33.3 L 184.0 37.3 L 129.0 37.3 L 129.0 68.7 L 128.8 71.2 L 128.4 73.7 L 127.6 76.1 L 126.3 78.4 L 124.7 80.4 L 122.7 82.0 L 120.4 83.3 L 118.0 84.1 L 115.5 84.5 L 113.0 84.7 L 113.0 78.7 L 93.0 75.7 Z M 57.1 50.3 L 59.1 53.3 L 55.11911382675171 53.849087715148926 L 54.7 54.6 L 51.9 58.8 L 48.7 62.7 L 45.2 66.4 L 41.3 69.8 L 37.0 73.0 L 32.4 76.0 L 27.5 78.7 L 22.1 81.1 L 16.4 83.1 L 15.5 81.5 L 20.2 77.8 L 24.6 74.3 L 28.6 70.7 L 32.2 67.2 L 35.4 63.7 L 38.3 60.2 L 40.8 56.6 L 42.9 53.0 L 44.6 49.3 L 45.61927509307861 46.606201553344725 L 45.6 46.6 L 45.7290322303772 46.31612901687622 L 46.0 45.6 L 46.04574174880982 45.619368171691896 L 46.6 44.4 Z M 165.9 72.3 L 163.4 69.1 L 160.6 65.9 L 157.6 62.8 L 154.4 59.7 L 151.0 56.7 L 147.4 53.7 L 143.5 50.6 L 139.5 47.6 L 140.2 45.9 L 145.2 47.5 L 150.0 49.4 L 154.5 51.5 L 158.8 53.8 L 162.9 56.4 L 166.7 59.1 L 170.4 62.1 L 173.9 65.2 L 177.1 68.5 L 180.1 72.0 L 181.1 76.5 L 178.7 80.4 L 174.2 81.3 L 170.3 78.9 L 168.2 75.6 Z " />
</g>
</svg>
