<svg xmlns="http://www.w3.org/2000/svg" xmlns:xlink="http://www.w3.org/1999/xlink" version="1.1" baseProfile="full" viewBox="0 0 200 200" width="200" height="200">
<g fill="black">
<path d="M 63.0 127.1 L 61.3 124.0 L 59.5 120.9 L 57.6 117.8 L 55.5 114.6 L 51.5 108.86086959838867 L 51.5 181.0 L 39.5 187.0 L 39.5 119.53999996185303 L 37.7 124.7 L 34.4 132.9 L 30.8 140.8 L 26.8 148.2 L 22.4 155.1 L 17.6 161.6 L 12.4 167.5 L 11.0 166.4 L 14.5 159.5 L 17.8 152.5 L 20.9 145.3 L 23.8 137.8 L 26.5 130.0 L 28.9 121.8 L 31.0 113.4 L 32.9 104.6 L 34.5 95.5 L 35.34117650985718 89.0 L 12.5 89.0 L 12.5 85.0 L 39.5 85.0 L 39.5 14.0 L 51.5 16.0 L 54.5 18.0 L 51.5 19.8 L 51.5 85.0 L 55.7 85.0 L 65.7 75.0 L 77.7 85.0 L 77.7 89.0 L 51.5 89.0 L 51.5 103.03888893127441 L 54.1 104.7 L 57.5 107.3 L 60.7 109.9 L 63.7 112.6 L 66.6 115.5 L 69.31883306503296 118.53254461288452 L 72.1 114.9 L 77.0 108.6 L 81.7 102.1 L 86.3 95.6 L 90.7 88.9 L 94.9 82.1 L 99.0 75.2 L 102.8 68.0 L 106.5 60.7 L 109.5676055908203 54.12655935287476 L 109.5 54.1 L 110.5 52.1 L 120.7 58.5 L 122.6 61.6 L 118.78284692764282 61.92348756790161 L 116.5 66.0 L 112.1 73.4 L 107.5 80.4 L 102.6 87.3 L 97.6 93.9 L 95.9505721092224 95.89176197052002 L 102.6 97.0 L 105.6 99.0 L 102.6 100.8 L 102.6 182.0 L 90.6 188.0 L 90.6 102.12142858505248 L 86.7 106.3 L 81.0 112.1 L 74.9 117.6 L 71.12610902786255 120.54835233688354 L 71.8 121.3 L 74.1 124.4 L 76.3 127.5 L 76.7 132.0 L 73.9 135.6 L 69.3 136.0 L 65.7 133.2 L 64.4 130.1 Z M 141.8 176.0 L 155.8 176.0 L 157.0 175.9 L 158.0 175.7 L 158.5 175.5 L 158.9 175.4 L 159.1 175.2 L 159.2 175.0 L 159.4 174.7 L 159.6 174.1 L 159.7 173.2 L 159.8 172.0 L 159.8 115.0 L 114.4 115.0 L 114.4 111.0 L 159.8 111.0 L 159.8 86.0 L 171.8 88.0 L 174.8 90.0 L 171.8 91.8 L 171.8 111.0 L 175.2 111.0 L 179.7 105.0 L 185.7 111.0 L 185.7 115.0 L 171.8 115.0 L 171.8 172.0 L 171.7 174.5 L 171.2 177.0 L 170.4 179.4 L 169.2 181.7 L 167.6 183.7 L 165.5 185.3 L 163.3 186.6 L 160.9 187.4 L 158.4 187.8 L 155.8 188.0 L 155.8 182.0 L 141.8 179.0 Z M 133.7 151.0 L 132.5 147.9 L 131.3 145.0 L 129.9 142.2 L 128.4 139.4 L 126.9 136.8 L 125.3 134.2 L 123.6 131.6 L 121.5 129.3 L 122.6 127.8 L 125.4 129.5 L 128.3 131.1 L 131.0 133.0 L 133.6 135.2 L 136.1 137.6 L 138.5 140.3 L 140.8 143.1 L 143.0 146.2 L 145.0 149.5 L 146.9 152.9 L 146.9 157.5 L 143.7 160.7 L 139.1 160.7 L 135.8 157.5 L 134.8 154.2 Z M 113.8 78.0 L 144.1 78.0 L 144.1 47.0 L 118.5 47.0 L 118.5 43.0 L 144.1 43.0 L 144.1 13.0 L 156.1 15.0 L 159.1 17.0 L 156.1 18.8 L 156.1 43.0 L 158.9 43.0 L 168.9 33.0 L 180.9 43.0 L 180.9 47.0 L 156.1 47.0 L 156.1 78.0 L 165.0 78.0 L 175.0 68.0 L 187.0 78.0 L 187.0 82.0 L 113.8 82.0 Z M 114.5 20.5 L 116.3 23.7 L 112.56152172088623 23.95782604217529 L 110.8 27.1 L 106.9 33.4 L 102.9 39.4 L 98.8 45.3 L 94.5 50.9 L 90.1 56.2 L 85.5 61.3 L 80.8 66.1 L 75.8 70.5 L 70.6 74.6 L 69.3 73.3 L 73.0 68.0 L 80.4 57.2 L 84.0 51.7 L 87.6 46.0 L 91.0 40.2 L 94.4 34.2 L 97.6 28.0 L 100.8 21.7 L 103.8 15.1 L 103.8582200050354 15.129382038116455 L 104.4 14.1 Z M 76.4 32.7 L 78.6 35.5 L 74.7764705657959 36.45588235855102 L 73.2 40.2 L 71.4 44.1 L 69.5 48.1 L 67.4 52.2 L 65.2 56.5 L 62.9 60.8 L 60.3 65.2 L 57.5 69.7 L 54.5 74.3 L 52.9 73.6 L 54.3 68.3 L 55.6 63.2 L 57.0 58.4 L 58.4 53.7 L 59.7 49.2 L 60.9 44.8 L 62.1 40.7 L 63.1 36.6 L 64.1 32.8 L 64.67997379302979 30.117621326446532 L 64.6 30.1 L 64.85833330154419 29.292708301544188 L 64.9 29.1 L 64.91817893981934 29.10569076538086 L 65.4 27.6 Z M 24.3 62.5 L 23.8 59.1 L 23.2 55.5 L 22.5 51.7 L 21.7 47.8 L 19.7 39.4 L 18.6 34.8 L 17.3 30.2 L 18.9 29.5 L 21.5 33.6 L 24.0 37.6 L 26.3 41.5 L 28.3 45.4 L 30.1 49.2 L 31.8 52.9 L 33.2 56.6 L 34.6 60.1 L 35.7 63.6 L 36.7 67.1 L 35.5 71.5 L 31.7 73.9 L 27.2 72.8 L 24.8 68.9 L 24.6 65.8 Z " />
</g>
</svg>
