<svg xmlns="http://www.w3.org/2000/svg" xmlns:xlink="http://www.w3.org/1999/xlink" version="1.1" baseProfile="full" viewBox="0 0 200 200" width="200" height="200">
<g fill="black">
<path d="M 156.0 176.8 L 148.0 173.1 L 140.3 169.0 L 133.1 164.7 L 126.3 160.1 L 120.0 155.1 L 114.2 149.8 L 108.9 144.1 L 107.5 142.21304349899293 L 107.5 182.4 L 95.5 188.4 L 95.5 144.80350875854492 L 93.9 146.6 L 87.7 152.6 L 80.9 158.1 L 73.7 163.3 L 65.9 168.0 L 57.7 172.4 L 48.9 176.3 L 39.6 179.8 L 29.8 182.8 L 19.5 185.2 L 19.0 183.5 L 28.5 179.2 L 37.6 174.9 L 46.0 170.4 L 54.0 165.7 L 61.4 160.9 L 68.2 155.8 L 74.5 150.4 L 80.2 144.8 L 85.4 139.0 L 85.7 138.6 L 21.1 138.6 L 21.1 134.6 L 95.5 134.6 L 95.5 99.5 L 107.5 101.5 L 110.5 103.5 L 107.5 105.3 L 107.5 134.6 L 118.86052627563477 134.6 L 120.9 132.1 L 123.6 128.4 L 126.2 124.9 L 128.7 121.6 L 131.0 118.4 L 133.1 115.4 L 135.0 112.6 L 136.7 110.0 L 138.2 107.5 L 139.01029920578003 106.06639366149902 L 138.9 106.0 L 140.0 104.5 L 149.2 112.2 L 150.4 115.6 L 146.2219985961914 115.23982744216919 L 144.8 116.6 L 142.4 118.9 L 139.7 121.3 L 136.8 123.8 L 133.7 126.4 L 130.4 129.0 L 126.9 131.7 L 123.0 134.3 L 122.59655170440674 134.6 L 159.8 134.6 L 169.8 124.6 L 181.8 134.6 L 181.8 138.6 L 108.29534883499146 138.6 L 111.7 141.0 L 117.9 145.2 L 124.2 149.2 L 130.8 153.0 L 137.7 156.6 L 144.9 159.9 L 152.4 163.0 L 160.3 165.8 L 168.4 168.3 L 177.0 170.6 L 185.0 172.9 L 173.3 183.3 L 164.5 180.2 Z M 69.5 126.5 L 68.2 124.6 L 66.6 122.6 L 64.8 120.5 L 62.6 118.4 L 60.1 116.1 L 57.4 113.8 L 54.4 111.3 L 50.9 109.1 L 51.7 107.5 L 55.6 109.0 L 59.4 110.2 L 62.9 111.5 L 66.2 112.9 L 69.3 114.4 L 72.1 116.0 L 74.7 117.6 L 77.1 119.4 L 79.3 121.3 L 81.2 123.4 L 82.0 127.9 L 79.5 131.7 L 75.0 132.4 L 71.2 129.9 L 70.5 128.3 Z M 37.0 105.3 L 25.0 111.3 L 25.0 63.757777786254884 L 22.1 63.5 L 19.1 60.0 L 19.5 55.4 L 23.0 52.5 L 25.9 51.8 L 28.5 51.0 L 30.9 50.1 L 33.0 48.9 L 35.0 47.6 L 36.8 45.9 L 38.4 44.0 L 39.9 41.7 L 41.3 39.1 L 42.0 36.0 L 43.8 36.1 L 43.8 42.8 L 43.3 46.1 L 42.3 49.3 L 40.8 52.3 L 38.8 55.2 L 36.4 57.8 L 33.5 60.1 L 30.2 62.1 L 29.4 62.5 L 37.0 66.3 L 163.0 66.3 L 169.0 61.3 L 180.0 70.3 L 175.0 74.3 L 175.0 102.3 L 163.0 108.3 L 163.0 98.3 L 37.0 98.3 Z M 37.0 70.3 L 37.0 94.3 L 71.0 94.3 L 71.0 70.3 Z M 83.0 70.3 L 83.0 94.3 L 117.0 94.3 L 117.0 70.3 Z M 129.0 70.3 L 129.0 94.3 L 163.0 94.3 L 163.0 70.3 Z M 169.0 55.8 L 167.8 53.8 L 166.1 51.7 L 164.1 49.5 L 161.5 47.1 L 158.6 44.7 L 155.3 42.1 L 151.7 39.4 L 147.5 36.8 L 148.2 35.2 L 152.9 36.8 L 157.4 38.2 L 161.5 39.8 L 165.2 41.5 L 168.7 43.2 L 171.8 45.0 L 174.5 47.0 L 177.0 49.0 L 179.2 51.3 L 181.1 53.8 L 181.3 58.4 L 178.2 61.8 L 173.7 62.0 L 170.2 59.0 L 169.8 57.5 Z M 121.6 53.8 L 121.2 52.2 L 120.4 50.5 L 119.3 48.6 L 117.7 46.5 L 115.7 44.3 L 113.4 42.0 L 110.7 39.6 L 107.4 37.4 L 108.3 35.8 L 111.9 37.4 L 115.5 38.7 L 118.7 40.0 L 121.7 41.5 L 124.3 43.1 L 126.8 44.9 L 128.9 46.8 L 130.7 48.9 L 132.3 51.3 L 133.4 54.0 L 132.3 58.4 L 128.4 60.9 L 124.0 59.8 L 121.5 56.0 L 121.7 55.0 Z M 80.5 60.9 L 76.6 58.4 L 75.5 54.0 L 76.0 53.1 L 76.4 52.1 L 76.6 50.9 L 76.6 49.5 L 76.2 47.8 L 75.6 46.0 L 74.6 44.0 L 73.2 41.8 L 71.6 39.5 L 69.3 37.5 L 70.3 36.0 L 73.0 37.7 L 75.7 39.0 L 78.2 40.5 L 80.4 42.1 L 82.3 43.9 L 84.0 45.9 L 85.4 48.1 L 86.5 50.6 L 87.2 53.2 L 87.4 56.0 L 84.9 59.8 Z M 15.0 29.5 L 94.0 29.5 L 94.0 12.0 L 106.0 14.0 L 109.0 16.0 L 106.0 17.8 L 106.0 29.5 L 163.0 29.5 L 173.0 19.5 L 185.0 29.5 L 185.0 33.5 L 15.0 33.5 Z " />
</g>
</svg>
