<svg xmlns="http://www.w3.org/2000/svg" xmlns:xlink="http://www.w3.org/1999/xlink" version="1.1" baseProfile="full" viewBox="0 0 200 200" width="200" height="200">
<g fill="black">
<path d="M 158.3 179.6 L 149.8 176.6 L 141.7 173.3 L 134.1 169.8 L 126.9 166.1 L 120.1 162.0 L 113.9 157.7 L 108.2 152.9 L 106.0 150.65600004196168 L 106.0 182.1 L 94.0 188.1 L 94.0 153.38333330154418 L 91.1 155.8 L 84.6 160.4 L 77.5 164.7 L 69.9 168.7 L 61.8 172.4 L 53.1 175.7 L 43.9 178.7 L 34.2 181.3 L 24.0 183.5 L 13.2 185.1 L 12.7 183.4 L 23.0 179.8 L 32.6 176.2 L 41.7 172.5 L 50.2 168.7 L 58.1 164.7 L 65.5 160.5 L 72.2 156.2 L 78.3 151.7 L 82.04468088150024 148.5 L 15.0 148.5 L 15.0 144.5 L 94.0 144.5 L 94.0 116.9 L 106.0 118.9 L 109.0 120.9 L 106.0 122.7 L 106.0 144.5 L 118.76000003814697 144.5 L 120.8 142.7 L 123.8 139.5 L 126.7 136.6 L 129.3 133.8 L 131.8 131.2 L 134.1 128.8 L 136.2 126.4 L 138.0 124.3 L 139.6 122.2 L 140.36870555877687 121.15675678253174 L 140.3 121.1 L 140.88333330154418 120.45833330154419 L 141.0 120.3 L 141.01436614990234 120.31419715881347 L 141.3 120.0 L 149.5 128.7 L 150.3 132.2 L 146.07728338241577 131.23692426681518 L 145.0 132.0 L 142.5 133.7 L 139.7 135.5 L 136.7 137.3 L 133.5 139.2 L 130.1 141.1 L 126.4 143.1 L 123.52631578445434 144.5 L 163.0 144.5 L 173.0 134.5 L 185.0 144.5 L 185.0 148.5 L 108.56774196624755 148.5 L 110.6 149.5 L 117.0 152.6 L 123.6 155.6 L 130.5 158.5 L 137.7 161.2 L 145.3 163.8 L 153.2 166.1 L 161.6 168.2 L 170.3 170.2 L 179.3 171.9 L 188.3 173.9 L 176.6 184.8 L 167.2 182.3 Z M 66.8 139.6 L 65.4 138.0 L 63.7 136.4 L 61.6 134.6 L 59.2 132.8 L 56.6 130.9 L 53.6 128.9 L 50.3 126.8 L 46.6 125.0 L 47.2 123.3 L 51.2 124.4 L 55.1 125.1 L 58.8 126.0 L 62.1 126.9 L 65.3 128.0 L 68.1 129.1 L 70.8 130.2 L 73.2 131.5 L 75.5 132.9 L 77.5 134.4 L 78.9 138.8 L 76.9 142.9 L 72.6 144.3 L 68.5 142.3 L 67.8 141.0 Z M 34.0 119.8 L 34.0 56.7 L 46.0 62.7 L 154.0 62.7 L 160.0 57.7 L 171.0 66.7 L 166.0 70.7 L 166.0 119.8 L 154.0 125.8 L 154.0 113.8 L 46.0 113.8 Z M 46.0 90.3 L 46.0 109.8 L 94.0 109.8 L 94.0 90.3 Z M 106.0 90.3 L 106.0 109.8 L 154.0 109.8 L 154.0 90.3 Z M 46.0 66.7 L 46.0 86.3 L 94.0 86.3 L 94.0 66.7 Z M 106.0 66.7 L 106.0 86.3 L 154.0 86.3 L 154.0 66.7 Z M 28.6 28.0 L 94.0 28.0 L 94.0 11.3 L 106.0 13.3 L 109.0 15.3 L 106.0 17.1 L 106.0 28.0 L 149.4 28.0 L 159.4 18.0 L 171.4 28.0 L 171.4 32.0 L 138.09512195587158 32.0 L 145.5 38.9 L 146.5 42.4 L 142.43884077072144 41.76982011795044 L 140.7 43.3 L 135.5 47.9 L 132.7 50.2 L 126.7 55.0 L 123.4 57.4 L 120.0 59.8 L 116.6 62.3 L 115.3 61.1 L 117.9 57.7 L 120.2 54.2 L 122.5 51.0 L 124.8 47.9 L 126.9 44.8 L 129.0 41.9 L 131.0 39.1 L 132.9 36.4 L 135.75267400741578 32.0370867729187 L 135.7 32.0 L 28.6 32.0 Z M 67.9 52.4 L 67.0 50.2 L 65.9 48.0 L 64.7 45.8 L 63.3 43.5 L 61.7 41.3 L 59.9 39.0 L 57.9 36.7 L 55.5 34.7 L 56.5 33.2 L 59.3 34.6 L 62.3 35.8 L 65.1 37.3 L 67.8 38.9 L 70.2 40.7 L 72.6 42.7 L 74.8 44.8 L 76.8 47.1 L 78.6 49.6 L 80.3 52.2 L 80.3 56.7 L 77.1 60.0 L 72.6 60.0 L 69.3 56.9 L 68.7 54.6 Z " />
</g>
</svg>
