<svg xmlns="http://www.w3.org/2000/svg" xmlns:xlink="http://www.w3.org/1999/xlink" version="1.1" baseProfile="full" viewBox="0 0 200 200" width="200" height="200">
<g fill="black">
<path d="M 165.5 177.1 L 161.1 173.7 L 156.9 170.0 L 153.1 166.1 L 149.5 161.9 L 146.2 157.5 L 143.7 153.5 L 143.7 182.0 L 131.7 188.0 L 131.7 155.2714285850525 L 127.8 160.1 L 123.2 164.9 L 118.3 169.3 L 112.9 173.3 L 107.2 176.9 L 101.1 180.1 L 94.6 182.7 L 87.8 184.8 L 87.1 183.1 L 92.9 179.3 L 98.4 175.4 L 103.5 171.5 L 108.2 167.4 L 112.5 163.1 L 116.4 158.6 L 119.9 153.9 L 123.0 149.0 L 125.8 143.8 L 126.14285717010497 143.0 L 93.5 143.0 L 93.5 139.0 L 131.7 139.0 L 131.7 107.0 L 143.7 109.0 L 146.7 111.0 L 143.7 112.8 L 143.7 139.0 L 146.30588235855103 139.0 L 147.2 137.1 L 148.4 133.8 L 149.6 130.6 L 150.7 127.6 L 151.7 124.8 L 152.6 122.2 L 153.5 119.7 L 154.2 117.4 L 154.8 115.3 L 155.0516194343567 114.29352226257325 L 154.8 114.2 L 155.8 112.1 L 166.1 118.4 L 168.0 121.5 L 163.39782609939576 121.97608699798585 L 163.3 122.1 L 161.8 124.2 L 160.1 126.3 L 158.3 128.5 L 156.3 130.9 L 154.2 133.3 L 151.9 135.9 L 149.4 138.5 L 149.00344829559327 139.0 L 159.2 139.0 L 169.2 129.0 L 181.2 139.0 L 181.2 143.0 L 143.7 143.0 L 143.7 144.8 L 144.2 145.3 L 148.0 149.2 L 151.7 152.8 L 155.5 156.1 L 159.4 159.2 L 163.4 162.1 L 167.5 164.7 L 171.7 167.0 L 176.1 169.1 L 180.6 170.9 L 186.5 173.6 L 175.1 183.0 L 170.2 180.1 Z M 65.6 127.2 L 63.9 124.1 L 62.0 121.0 L 60.0 117.8 L 57.8 114.6 L 55.4 111.4 L 53.2 108.4960000038147 L 53.2 181.0 L 41.2 187.0 L 41.2 118.39333333969117 L 39.0 124.7 L 35.5 133.0 L 31.8 140.8 L 27.6 148.2 L 23.1 155.2 L 18.2 161.6 L 12.8 167.5 L 11.4 166.4 L 15.0 159.5 L 18.5 152.5 L 21.8 145.2 L 24.9 137.7 L 27.6 129.9 L 30.1 121.8 L 32.4 113.3 L 34.3 104.6 L 36.0 95.5 L 36.91764707565308 89.0 L 12.9 89.0 L 12.9 85.0 L 41.2 85.0 L 41.2 14.0 L 53.2 16.0 L 56.2 18.0 L 53.2 19.8 L 53.2 85.0 L 58.7 85.0 L 68.7 75.0 L 80.7 85.0 L 80.7 89.0 L 53.2 89.0 L 53.2 102.86842107772827 L 56.1 104.7 L 59.6 107.2 L 62.9 109.8 L 66.0 112.6 L 69.0 115.4 L 71.7 118.3 L 74.3 121.3 L 76.8 124.3 L 79.0 127.4 L 79.5 131.9 L 76.7 135.6 L 72.2 136.1 L 68.6 133.3 L 67.2 130.3 Z M 117.3 130.3 L 116.9 128.8 L 116.4 127.1 L 115.7 125.4 L 114.9 123.7 L 113.9 121.8 L 112.8 119.9 L 111.6 117.9 L 109.8 116.3 L 110.9 114.8 L 112.9 116.2 L 115.2 117.2 L 117.4 118.3 L 119.4 119.5 L 121.3 120.9 L 123.1 122.3 L 124.7 123.8 L 126.2 125.5 L 127.6 127.2 L 128.9 129.1 L 128.6 133.6 L 125.3 136.8 L 120.7 136.5 L 117.6 133.2 L 117.5 131.8 Z M 170.1 114.3 L 166.8 112.4 L 163.5 110.3 L 160.1 107.9 L 156.8 105.3 L 153.6 102.5 L 150.3 99.4 L 147.1 95.9 L 143.9 92.3 L 144.13571424484252 92.0 L 130.3791666984558 92.0 L 129.9 93.0 L 124.7 100.8 L 118.9 107.0 L 112.7 111.7 L 106.2 115.3 L 99.4 117.9 L 93.95920171737671 119.37678813934326 L 92.5 129.5 L 90.5 140.1 L 88.0 149.9 L 85.1 159.1 L 81.8 167.6 L 78.0 175.4 L 73.6 182.3 L 68.7 188.5 L 67.2 187.4 L 70.3 180.5 L 73.1 173.2 L 75.6 165.3 L 77.9 157.0 L 79.8 148.0 L 81.3 138.4 L 82.6 128.2 L 83.4 117.4 L 84.0 105.9 L 84.1 93.8 L 84.1 27.0 L 96.1 33.0 L 130.3 33.0 L 130.3 12.0 L 142.3 14.0 L 145.3 16.0 L 142.3 17.8 L 142.3 33.0 L 161.9 33.0 L 171.9 23.0 L 183.9 33.0 L 183.9 37.0 L 96.1 37.0 L 96.1 71.0 L 127.5722222328186 71.0 L 128.1 69.1 L 130.31679391860962 57.0 L 102.8 57.0 L 102.8 53.0 L 130.84394903182982 53.0 L 132.27931032180786 40.48045978546143 L 132.5 38.2 L 144.2 41.6 L 147.0 43.8 L 143.6178936958313 45.395333194732665 L 142.45153369903565 53.0 L 163.8 53.0 L 169.8 48.0 L 180.8 57.0 L 175.8 61.0 L 175.8 67.8 L 177.9 65.0 L 183.9 71.0 L 183.9 75.0 L 175.8 75.0 L 175.8 92.0 L 163.8 98.0 L 163.8 92.0 L 147.00869569778442 92.0 L 149.2 93.2 L 153.3 95.2 L 157.2 97.1 L 160.9 98.8 L 164.5 100.3 L 167.9 101.6 L 171.2 102.6 L 174.4 103.5 L 177.4 104.1 L 180.2 104.6 L 188.6 106.7 L 176.9 117.3 L 173.5 115.9 Z M 96.1 94.1 L 95.3 106.5 L 94.28476705551148 116.5677269935608 L 97.8 114.4 L 103.5 110.6 L 108.7 106.5 L 113.5 101.6 L 117.8 95.8 L 119.88732395172119 92.0 L 102.2 92.0 L 102.2 88.0 L 121.97045450210571 88.0 L 125.1 79.9 L 126.46111106872559 75.0 L 96.1 75.0 L 96.1 94.0 L 96.03442621231079 94.09836063385009 Z M 137.39655170440673 75.0 L 134.5 83.4 L 132.29583330154418 88.0 L 163.8 88.0 L 163.8 75.0 Z M 79.1 32.8 L 81.3 35.6 L 77.46678667068481 36.47424163818359 L 75.8 40.2 L 74.0 44.1 L 69.9 52.3 L 67.6 56.5 L 65.2 60.8 L 62.6 65.3 L 59.7 69.8 L 56.6 74.3 L 55.0 73.6 L 56.4 68.3 L 57.9 63.2 L 59.4 58.3 L 60.8 53.6 L 62.2 49.1 L 63.5 44.8 L 64.7 40.6 L 65.8 36.6 L 66.8 32.7 L 67.45363454818725 30.012835597991945 L 67.4 30.0 L 67.63661975860596 29.260563373565674 L 67.7 29.0 L 67.71807231903077 29.006024074554443 L 68.2 27.5 Z M 25.4 62.6 L 24.9 59.1 L 24.3 55.5 L 23.5 51.7 L 22.6 47.8 L 21.6 43.7 L 20.5 39.4 L 19.3 34.9 L 17.9 30.2 L 19.6 29.5 L 22.2 33.6 L 24.8 37.5 L 27.1 41.5 L 29.2 45.3 L 31.1 49.1 L 32.8 52.9 L 34.3 56.5 L 35.6 60.1 L 36.8 63.6 L 37.8 67.0 L 36.7 71.5 L 32.9 73.9 L 28.4 72.8 L 26.0 69.0 L 25.7 65.9 Z M 141.83803682327272 57.0 L 141.7 57.9 L 138.68417263031006 71.0 L 163.8 71.0 L 163.8 57.0 Z " />
</g>
</svg>
