<svg xmlns="http://www.w3.org/2000/svg" xmlns:xlink="http://www.w3.org/1999/xlink" version="1.1" baseProfile="full" viewBox="0 0 200 200" width="200" height="200">
<g fill="black">
<path d="M 92.0 105.7 L 90.96804122924804 103.29209623336791 L 87.9 104.4 L 80.5 106.6 L 73.0 108.6 L 68.0 109.76883115768433 L 68.0 183.0 L 56.0 189.0 L 56.0 112.42820510864257 L 49.8 113.7 L 33.8 116.5 L 25.7 117.7 L 21.60855588912964 118.2488522529602 L 19.8 121.6 L 17.5 118.8 L 14.4 107.1 L 16.4 106.9 L 24.5 106.4 L 32.6 105.8 L 36.219239711761475 105.52512102127075 L 39.1 101.8 L 45.0 94.4 L 50.8 87.1 L 56.6 79.9 L 62.3 72.6 L 68.0 65.4 L 79.0 50.8 L 84.3 43.5 L 89.0184998512268 36.91190586090088 L 89.0 36.9 L 90.0 35.5 L 99.1 43.4 L 100.3 46.8 L 96.67948713302613 46.36304159164429 L 93.3 50.5 L 87.4 57.5 L 81.3 64.4 L 75.1 71.3 L 68.8 78.2 L 62.3 84.9 L 55.7 91.6 L 48.9 98.1 L 41.9 104.4 L 41.010676574707034 105.15531578063965 L 48.5 104.5 L 56.3 103.7 L 64.1 103.0 L 71.8 102.1 L 79.5 101.4 L 87.1 100.6 L 89.64266185760498 100.43489208221436 L 88.8 98.7 L 87.0 95.4 L 84.9 92.1 L 82.5 88.8 L 80.0 85.6 L 77.3 82.4 L 74.3 79.3 L 75.3 77.8 L 79.3 79.8 L 83.2 82.0 L 86.8 84.5 L 90.2 87.3 L 93.4 90.4 L 96.3 93.7 L 99.0 97.3 L 101.4 101.0 L 103.7 105.0 L 105.6 109.1 L 105.3 113.7 L 101.9 116.8 L 97.4 116.5 L 94.3 113.1 L 93.2 109.3 Z M 156.8 18.0 L 159.8 20.0 L 156.8 21.8 L 156.8 79.0 L 155.9 94.7 L 154.0 109.4 L 150.9 123.1 L 146.7 135.9 L 141.3 147.6 L 134.9 158.2 L 127.3 167.6 L 118.7 175.9 L 108.9 183.0 L 98.2 188.7 L 97.3 187.2 L 106.7 179.9 L 115.0 172.0 L 122.3 163.4 L 128.5 154.1 L 133.7 143.8 L 137.9 132.7 L 141.1 120.7 L 143.4 107.8 L 144.6 93.9 L 144.8 79.0 L 144.8 16.0 Z M 43.7 128.8 L 46.4 131.2 L 42.87245903015137 132.73081970214844 L 42.5 134.5 L 40.8 140.0 L 38.8 145.5 L 36.5 150.9 L 33.8 156.2 L 30.7 161.4 L 27.3 166.4 L 23.5 171.3 L 19.3 176.0 L 14.7 180.5 L 13.2 179.4 L 16.3 173.8 L 19.1 168.4 L 21.7 163.1 L 24.0 157.9 L 26.1 152.7 L 27.8 147.5 L 29.3 142.4 L 30.4 137.3 L 31.3 132.2 L 31.781791591644286 128.10477113723755 L 31.7 128.1 L 32.2 125.1 Z M 91.3 151.6 L 90.0 147.7 L 88.5 144.0 L 86.8 140.4 L 84.9 136.8 L 82.8 133.4 L 80.5 130.0 L 78.0 126.6 L 75.2 123.3 L 76.3 121.9 L 80.2 124.1 L 83.9 126.6 L 87.4 129.4 L 90.6 132.5 L 93.6 135.9 L 96.3 139.5 L 98.9 143.4 L 101.1 147.5 L 103.1 151.9 L 104.9 156.4 L 104.3 161.0 L 100.8 163.8 L 96.2 163.2 L 93.4 159.7 L 92.4 155.6 Z M 38.3 69.7 L 36.4 66.7 L 34.2 63.7 L 31.7 60.7 L 28.8 57.8 L 25.7 54.9 L 22.3 52.0 L 18.6 49.0 L 14.5 46.2 L 15.2 44.5 L 20.1 46.1 L 24.8 47.8 L 29.1 49.8 L 33.2 52.1 L 35.35366067886353 53.51688203811646 L 36.9 50.9 L 39.6 46.6 L 45.0 38.2 L 47.7 34.1 L 50.4 29.9 L 53.0 25.8 L 58.0 17.6 L 59.899756050109865 14.35458345413208 L 59.8 14.3 L 60.9 12.7 L 70.4 20.1 L 71.8 23.4 L 67.9633074760437 23.267700290679933 L 67.4 24.0 L 64.2 27.9 L 61.1 31.7 L 57.8 35.5 L 54.4 39.3 L 47.4 46.5 L 43.6 50.0 L 39.7 53.4 L 37.59282865524292 55.04462146759033 L 40.6 57.3 L 43.9 60.3 L 46.9 63.5 L 49.6 66.9 L 52.0 70.6 L 52.2 75.1 L 49.3 78.6 L 44.7 78.9 L 41.2 76.0 L 39.9 72.8 Z " />
</g>
</svg>
