<svg xmlns="http://www.w3.org/2000/svg" xmlns:xlink="http://www.w3.org/1999/xlink" version="1.1" baseProfile="full" viewBox="0 0 200 200" width="200" height="200">
<g fill="black">
<path d="M 167.5 146.1 L 165.4 143.8 L 162.8 141.4 L 159.8 138.8 L 157.09854669570922 136.79320611953736 L 144.4 138.5 L 126.8 140.6 L 110.2 142.3 L 106.0 142.7307692527771 L 106.0 183.0 L 94.0 189.0 L 94.0 143.9534246444702 L 80.0 145.2 L 66.4 146.4 L 53.8 147.4 L 42.2 148.2 L 31.6 148.9 L 26.153745937347413 149.24039087295532 L 24.1 152.4 L 22.0 149.5 L 19.9 137.5 L 41.8 137.5 L 53.3 137.4 L 65.9 137.1 L 77.43125 136.84375 L 81.2 134.2 L 87.7 129.8 L 94.1 125.6 L 100.3 121.5 L 106.4 117.5 L 112.2 113.6 L 117.9 109.8 L 123.4 106.0 L 128.7 102.3 L 133.0323016166687 99.24190473556519 L 133.0 99.2 L 133.03614406585694 99.2391923904419 L 133.8 98.7 L 136.8663119316101 103.3923864364624 L 141.3 108.2 L 141.4 111.7 L 137.9285714149475 110.21224489212037 L 134.8 112.0 L 129.1 115.2 L 123.1 118.4 L 117.0 121.6 L 110.6 124.9 L 104.0 128.1 L 97.3 131.3 L 90.2 134.5 L 85.2526478767395 136.60093030929565 L 94.1 136.3 L 109.7 135.8 L 126.4 135.2 L 144.1 134.7 L 153.91019439697266 134.4390905380249 L 152.5 133.4 L 148.2 130.5 L 143.6 127.3 L 138.5 124.2 L 139.2 122.5 L 145.0 124.3 L 150.4 126.1 L 155.4 128.0 L 160.0 129.9 L 164.2 131.9 L 168.0 134.0 L 171.5 136.0 L 174.6 138.2 L 177.4 140.4 L 179.9 142.7 L 181.0 147.2 L 178.8 151.2 L 174.4 152.3 L 170.4 150.1 L 169.2 148.2 Z M 67.7 157.3 L 68.6 160.8 L 64.7714916229248 160.06116504669188 L 64.2 160.6 L 60.4 163.7 L 56.3 166.7 L 51.9 169.5 L 47.1 172.3 L 42.0 174.9 L 36.6 177.5 L 30.9 179.8 L 24.8 181.9 L 18.3 183.8 L 17.6 182.2 L 23.2 178.5 L 28.5 175.0 L 33.5 171.7 L 38.1 168.4 L 42.5 165.2 L 46.4 162.0 L 50.1 158.8 L 53.3 155.6 L 56.3 152.4 L 58.134170818328855 150.1256281852722 L 58.1 150.1 L 58.55609760284424 149.6024390220642 L 58.8 149.3 L 58.818275165557864 149.31642713546753 L 59.2 148.9 Z M 161.0 175.6 L 158.2 172.9 L 155.0 170.1 L 151.5 167.3 L 147.6 164.4 L 143.3 161.6 L 138.7 158.6 L 133.8 155.5 L 128.5 152.3 L 129.2 150.6 L 135.3 152.1 L 140.9 153.9 L 146.3 155.8 L 151.2 157.9 L 155.9 160.1 L 160.2 162.5 L 164.3 164.9 L 168.0 167.5 L 171.4 170.2 L 174.5 173.0 L 175.9 177.3 L 173.9 181.4 L 169.6 182.9 L 165.5 180.9 L 163.4 178.3 Z M 72.9 120.8 L 70.3 118.5 L 67.5 116.2 L 64.7 114.0 L 61.7 111.9 L 58.6 109.8 L 55.4 107.7 L 52.1 105.5 L 48.6 103.6 L 49.2 101.9 L 57.2 103.5 L 61.1 104.5 L 64.9 105.7 L 65.57276344299316 105.96163024902344 L 67.1 104.7 L 71.5 101.2 L 75.7 97.9 L 79.7 94.8 L 83.5 91.9 L 87.0 89.1 L 90.3 86.4 L 93.3 83.9 L 96.0 81.5 L 97.7525580406189 79.95774898529052 L 97.7 79.9 L 98.6 79.2 L 105.8 88.8 L 106.0 92.4 L 102.33835620880127 90.90821914672851 L 99.4 92.6 L 95.9 94.6 L 92.1 96.7 L 88.0 98.9 L 83.7 101.1 L 79.1 103.3 L 74.2 105.6 L 69.50756101608276 107.5478048324585 L 72.1 108.7 L 75.6 110.4 L 79.0 112.3 L 82.4 114.3 L 85.6 116.4 L 87.6 120.5 L 86.2 124.9 L 82.1 126.9 L 77.8 125.6 L 75.4 123.1 Z M 149.4 89.8 L 136.9 84.9 L 125.1 79.4 L 113.9 73.5 L 103.5 67.0 L 100.70123443603515 64.93007965087891 L 95.4 68.2 L 83.8 74.5 L 71.5 80.2 L 58.4 85.5 L 44.4 90.3 L 29.7 94.4 L 14.2 98.0 L 13.7 96.3 L 28.6 90.8 L 42.6 85.2 L 55.8 79.4 L 68.2 73.4 L 79.8 67.0 L 90.5 60.3 L 92.62024431228637 58.807174873352054 L 85.0 52.3 L 77.0 44.1 L 70.0 35.3 L 71.3 34.1 L 79.9 41.1 L 88.7 47.8 L 98.1 54.0 L 98.83228349685669 54.433392238616946 L 100.3 53.4 L 109.3 46.1 L 117.5 38.5 L 124.8 30.6 L 124.8696478843689 30.663387393951417 L 125.2 30.3 L 133.7 38.7 L 134.6 42.2 L 130.8257173538208 41.47162971496582 L 125.3 46.8 L 116.1 54.4 L 108.30670394897462 60.01117315292358 L 118.3 65.2 L 129.3 70.1 L 140.9 74.6 L 153.1 78.6 L 165.9 82.1 L 179.4 85.1 L 188.2 87.1 L 176.5 98.0 L 162.6 94.1 Z M 85.1 20.8 L 85.5 24.3 L 81.98525505065918 23.14971981048584 L 79.4 25.1 L 73.6 29.3 L 67.6 33.3 L 61.4 37.2 L 55.1 40.9 L 48.5 44.4 L 41.8 47.8 L 34.9 51.0 L 27.7 53.8 L 20.3 56.4 L 19.6 54.7 L 26.0 50.4 L 32.3 46.2 L 38.5 42.1 L 44.6 37.9 L 50.5 33.7 L 56.2 29.5 L 61.7 25.1 L 67.1 20.7 L 72.3 16.2 L 76.56354675292968 12.362807846069336 L 76.5 12.3 L 77.4 11.5 Z M 159.9 41.7 L 156.4 38.3 L 152.4 35.0 L 147.9 31.7 L 142.8 28.5 L 137.3 25.3 L 131.2 22.2 L 124.7 19.1 L 117.7 15.9 L 118.2 14.2 L 125.9 15.5 L 133.1 17.2 L 139.9 19.3 L 146.2 21.7 L 152.1 24.3 L 157.6 27.2 L 162.6 30.4 L 167.2 33.9 L 171.3 37.6 L 175.0 41.6 L 176.0 46.0 L 173.7 50.0 L 169.3 51.0 L 165.3 48.7 L 162.9 45.2 Z " />
</g>
</svg>
