<svg xmlns="http://www.w3.org/2000/svg" xmlns:xlink="http://www.w3.org/1999/xlink" version="1.1" baseProfile="full" viewBox="0 0 200 200" width="200" height="200">
<g fill="black">
<path d="M 66.2 105.1 L 65.9 103.9 L 65.1 104.3 L 59.9 106.6 L 54.6 108.6 L 52.3 109.36666669845582 L 52.3 183.0 L 40.3 189.0 L 40.3 113.01071424484253 L 32.5 115.1 L 26.8 116.4 L 19.29140672683716 117.95350208282471 L 17.6 121.5 L 15.2 118.8 L 11.6 107.1 L 13.6 106.9 L 19.3 106.4 L 27.567685222625734 105.52971735000611 L 33.3 94.8 L 41.3 80.4 L 53.0 58.8 L 56.8 51.5 L 60.5 44.3 L 63.64629230499268 37.92001829147339 L 63.6 37.9 L 63.97899160385132 37.24537811279297 L 64.1 37.0 L 64.11605453491211 37.00863313674927 L 64.7 36.0 L 74.7 42.7 L 76.4 45.9 L 72.6857177734375 46.02590789794922 L 66.1 56.9 L 61.6 63.8 L 57.1 70.8 L 52.5 77.6 L 47.7 84.4 L 42.8 91.1 L 37.8 97.7 L 32.5 104.2 L 31.740534496307372 105.06993322372436 L 41.9 103.8 L 47.4 103.0 L 53.0 102.2 L 58.5 101.4 L 64.0 100.7 L 65.00629444122315 100.59218273162841 L 64.2 98.1 L 63.0 94.8 L 61.7 91.6 L 60.2 88.4 L 58.7 85.3 L 57.0 82.2 L 55.0 79.3 L 56.2 78.0 L 62.2 82.4 L 64.9 85.0 L 67.5 87.9 L 69.9 91.0 L 72.2 94.3 L 74.2 97.8 L 76.1 101.6 L 77.8 105.5 L 79.3 109.6 L 78.5 114.1 L 74.9 116.9 L 70.4 116.1 L 67.6 112.5 L 67.0 108.7 Z M 166.1 173.1 L 160.6 167.5 L 156.3665904045105 162.25057210922242 L 149.8 169.3 L 142.3 175.6 L 134.2 181.1 L 125.3 185.4 L 115.9 188.8 L 115.2 187.1 L 123.5 182.1 L 131.1 176.6 L 138.0 170.6 L 144.3 164.1 L 149.8 156.9 L 151.2136706352234 154.62081670761108 L 151.2 154.6 L 147.2 147.4 L 143.7 139.6 L 140.7 131.3 L 138.3 122.5 L 136.8376343727112 114.0 L 132.1 114.0 L 132.1 110.0 L 167.9 110.0 L 173.9 105.0 L 184.9 114.0 L 179.9 117.0 L 178.465562915802 117.59768209457397 L 176.5 124.6 L 172.6 135.2 L 168.0 144.9 L 162.6539999961853 153.81000003814697 L 163.5 154.8 L 168.5 159.8 L 173.7 164.1 L 179.2 168.0 L 185.0 171.2 L 189.6 173.9 L 178.4 182.7 L 172.0 178.2 Z M 113.2 161.9 L 111.4 157.9 L 108.9 153.7 L 108.16124601364136 152.6411192893982 L 104.5 157.9 L 98.4 165.2 L 91.7 172.0 L 84.4 178.3 L 76.6 183.8 L 68.2 188.7 L 67.2 187.2 L 74.3 180.8 L 80.8 174.3 L 86.9 167.5 L 92.5 160.4 L 97.5 153.0 L 102.0 145.3 L 102.23108463287353 144.82627658843995 L 98.0 140.3 L 93.2 135.5 L 87.9 130.5 L 82.0 125.3 L 83.0 123.8 L 90.1 127.4 L 96.5 131.3 L 102.4 135.4 L 105.59891595840455 137.9222222328186 L 106.0 137.1 L 109.5 128.6 L 112.5 119.7 L 114.03225803375244 114.0 L 79.9 114.0 L 79.9 110.0 L 114.8 110.0 L 120.8 105.0 L 131.8 114.0 L 126.8 117.0 L 125.19643917083741 117.66815032958985 L 123.3 123.3 L 119.4 132.7 L 115.0 141.6 L 113.15606002807617 144.69781913757325 L 116.4 148.1 L 119.9 152.6 L 122.8 157.2 L 125.2 161.9 L 126.9 166.7 L 126.0 171.2 L 122.3 173.9 L 117.8 173.0 L 115.1 169.3 L 114.4 165.7 Z M 35.0 128.6 L 37.8 130.8 L 34.299812412261964 132.45103187561034 L 34.0 134.1 L 32.7 139.7 L 31.2 145.1 L 29.4 150.5 L 27.4 155.8 L 25.1 161.0 L 22.5 166.1 L 19.6 171.0 L 16.4 175.8 L 12.7 180.4 L 11.2 179.5 L 14.8 168.7 L 16.5 163.5 L 18.0 158.3 L 19.3 153.1 L 20.5 148.0 L 21.4 142.8 L 22.2 137.7 L 22.7 132.5 L 22.942247295379637 128.3010474205017 L 22.9 128.3 L 22.97652177810669 127.70695648193359 L 23.0 127.3 L 23.028632068634032 127.30310182571411 L 23.3 125.2 Z M 65.7 151.0 L 64.9 147.2 L 64.0 143.4 L 62.9 139.8 L 61.7 136.4 L 60.4 133.0 L 57.4 126.4 L 55.6 123.3 L 56.9 122.1 L 59.8 124.5 L 62.7 127.0 L 65.4 129.9 L 67.8 133.0 L 70.1 136.4 L 72.2 140.1 L 74.1 144.0 L 75.8 148.1 L 77.4 152.3 L 78.7 156.8 L 77.8 161.3 L 74.0 163.9 L 69.6 163.0 L 67.0 159.2 L 66.4 155.0 Z M 138.9964705467224 114.0 L 142.3 121.2 L 146.2 129.1 L 150.2 136.4 L 154.4 143.2 L 156.30092725753784 145.83537635803222 L 159.0 140.5 L 162.6 131.3 L 165.6 121.4 L 167.25981311798097 114.0 Z M 186.0 26.0 L 186.0 30.0 L 136.1666666984558 30.0 L 131.5 37.0 L 127.1 42.9 L 122.4 48.8 L 117.91724138259887 54.0 L 164.4 54.0 L 170.4 49.0 L 181.4 58.0 L 176.4 62.0 L 176.4 93.0 L 164.4 99.0 L 164.4 91.0 L 117.2 91.0 L 117.2 94.0 L 105.2 100.0 L 105.2 66.79180326461793 L 100.2 71.3 L 93.8 76.6 L 86.9 81.8 L 79.6 86.6 L 78.4 85.3 L 84.4 78.9 L 90.1 72.7 L 95.6 66.6 L 100.8 60.6 L 105.2 55.1 L 105.2 54.0 L 106.0677966117859 54.0 L 110.2 48.7 L 114.4 42.7 L 118.3 36.8 L 121.9 30.9 L 122.36551723480224 30.0 L 83.4 30.0 L 83.4 26.0 L 164.0 26.0 L 174.0 16.0 Z M 117.2 58.0 L 117.2 87.0 L 164.4 87.0 L 164.4 58.0 Z M 27.7 68.9 L 26.5 65.9 L 25.1 63.0 L 23.5 60.1 L 21.7 57.3 L 19.7 54.5 L 17.5 51.7 L 15.1 48.8 L 12.3 46.2 L 13.3 44.7 L 16.8 46.5 L 20.3 48.2 L 23.6 50.3 L 26.7 52.6 L 27.177323818206787 53.02794551849365 L 27.9 51.2 L 29.6 47.0 L 31.3 42.9 L 34.9 34.7 L 40.0 22.4 L 41.7 18.4 L 42.942553234100345 15.2159574508667 L 42.9 15.2 L 43.8 13.1 L 54.1 19.4 L 56.0 22.5 L 52.177513694763185 22.895429611206055 L 51.9 23.4 L 49.5 27.3 L 47.1 31.1 L 42.1 38.7 L 39.5 42.4 L 33.9 49.6 L 29.15658483505249 54.80245532989502 L 29.6 55.2 L 32.3 57.9 L 34.8 60.9 L 37.0 64.1 L 39.1 67.5 L 40.9 71.1 L 40.6 75.7 L 37.3 78.8 L 32.7 78.5 L 29.6 75.1 L 28.8 72.0 Z " />
</g>
</svg>
