<svg xmlns="http://www.w3.org/2000/svg" xmlns:xlink="http://www.w3.org/1999/xlink" version="1.1" baseProfile="full" viewBox="0 0 200 200" width="200" height="200">
<g fill="black">
<path d="M 174.6 140.4 L 174.1 137.7 L 173.3 135.1 L 172.75757579803468 133.47272729873657 L 168.0 134.9 L 160.9 136.7 L 153.5 138.3 L 145.9 139.8 L 144.8 139.9974358558655 L 144.8 183.1 L 132.8 189.1 L 132.8 142.12749996185303 L 130.1 142.6 L 121.9 143.9 L 113.5 145.2 L 104.9 146.5 L 100.23039445877075 147.14408349990845 L 98.5 150.5 L 98.0 149.8913043022156 L 98.0 153.7 L 76.0 153.7 L 76.0 183.6 L 64.0 189.6 L 64.0 153.7 L 42.9 153.7 L 41.5 159.3 L 39.5 164.9 L 37.0 170.0 L 34.0 174.6 L 30.5 178.6 L 26.6 182.0 L 22.2 184.8 L 17.4 186.8 L 12.3 188.1 L 11.6 186.4 L 15.7 183.5 L 19.2 180.5 L 22.2 177.2 L 24.7 173.8 L 26.9 170.1 L 28.7 166.0 L 30.0 161.6 L 31.1 156.9 L 31.462264156341554 153.7 L 14.0 153.7 L 14.0 149.7 L 31.80178575515747 149.7 L 32.0 146.0 L 32.0 129.3 L 44.0 131.3 L 47.0 133.3 L 44.0 135.1 L 44.0 146.4 L 43.74048261642456 146.78927612304688 L 43.9 146.8 L 43.49846153259277 149.7 L 64.0 149.7 L 64.0 129.3 L 76.0 131.3 L 79.0 133.3 L 76.0 135.1 L 76.0 149.7 L 79.81818180084228 149.7 L 88.0 140.7 L 97.39726028442382 149.15753421783447 L 96.2 147.7 L 93.0 136.0 L 95.0 135.8 L 103.7 135.2 L 112.3 134.6 L 120.7 134.0 L 128.37281227111816 133.44533891677855 L 128.7 133.0 L 132.2 128.2 L 135.8 123.6 L 139.3 119.1 L 142.7 114.6 L 146.0 110.2 L 149.2 105.9 L 152.2 101.5 L 155.1 97.2 L 157.3565477371216 93.73458747863769 L 157.3 93.7 L 157.7617283821106 93.1123456954956 L 157.9 92.9 L 157.9181393623352 92.91327724456787 L 158.4 92.3 L 167.6 100.0 L 168.9 103.3 L 165.13273153305053 102.97523546218872 L 164.2 104.1 L 160.6 108.2 L 156.9 112.2 L 153.1 116.3 L 149.1 120.3 L 144.9 124.2 L 140.6 128.1 L 136.1 132.0 L 134.85329341888428 132.96100301742553 L 137.0 132.8 L 144.9 132.3 L 152.6 131.8 L 160.1 131.4 L 167.5 131.1 L 171.74568214416504 131.0410322189331 L 171.1 129.7 L 169.7 127.0 L 168.0 124.2 L 166.0 121.3 L 163.6 118.7 L 164.7 117.3 L 167.8 119.3 L 171.0 121.2 L 173.8 123.4 L 176.5 125.7 L 178.9 128.3 L 181.0 131.1 L 182.9 134.0 L 184.5 137.2 L 185.8 140.5 L 186.9 143.9 L 185.7 148.3 L 181.8 150.7 L 177.4 149.6 L 175.0 145.7 L 174.9 143.0 Z M 123.8 155.6 L 125.4 158.9 L 121.33333330154419 158.9 L 119.0 161.7 L 116.2 164.7 L 113.3 167.6 L 110.1 170.5 L 106.7 173.4 L 103.1 176.2 L 99.2 178.9 L 95.1 181.5 L 90.8 184.1 L 89.6 182.7 L 93.0 179.0 L 96.0 175.3 L 98.9 171.8 L 101.6 168.4 L 104.2 165.0 L 106.5 161.8 L 108.5 158.6 L 110.4 155.5 L 112.0 152.5 L 113.06901836395264 150.43323106765746 L 113.0 150.4 L 114.0 148.7 Z M 170.2 171.0 L 168.4 168.2 L 164.4 162.6 L 162.3 159.9 L 160.1 157.3 L 157.8 154.7 L 155.4 152.1 L 152.8 149.7 L 153.8 148.2 L 160.4 151.2 L 163.7 152.9 L 166.8 154.9 L 169.9 157.0 L 172.8 159.3 L 175.6 161.8 L 178.4 164.5 L 181.0 167.3 L 183.6 170.3 L 184.4 174.8 L 182.0 178.6 L 177.5 179.5 L 173.6 177.0 L 172.0 174.0 Z M 79.7 123.0 L 77.8 121.1 L 75.6 119.3 L 73.1 117.4 L 70.3 115.4 L 67.3 113.4 L 64.0 111.4 L 62.0 110.14285717010497 L 62.0 126.0 L 50.0 132.0 L 50.0 109.66896553039551 L 49.9 109.8 L 46.6 113.4 L 42.9 116.9 L 38.8 120.2 L 34.3 123.4 L 29.5 126.5 L 24.2 129.4 L 18.5 132.0 L 12.4 134.4 L 11.5 132.9 L 16.6 128.8 L 21.3 124.9 L 25.6 121.2 L 29.6 117.5 L 33.1 113.9 L 36.2 110.4 L 38.9 106.9 L 41.2 103.4 L 42.293939399719235 101.5 L 15.0 101.5 L 15.0 97.5 L 50.0 97.5 L 50.0 70.3 L 62.0 72.3 L 65.0 74.3 L 62.0 76.1 L 62.0 97.5 L 75.0 97.5 L 85.0 87.5 L 97.0 97.5 L 97.0 101.5 L 62.0 101.5 L 62.0 106.68536586761475 L 65.6 107.3 L 69.5 108.3 L 73.2 109.3 L 76.7 110.5 L 80.0 111.8 L 83.0 113.1 L 85.9 114.6 L 88.5 116.2 L 91.0 117.9 L 92.7 122.1 L 91.1 126.4 L 86.9 128.1 L 82.6 126.5 L 81.3 124.8 Z M 118.8 119.5 L 117.6 117.4 L 116.2 115.3 L 114.7 113.3 L 112.9 111.4 L 110.9 109.6 L 108.7 107.8 L 106.3 106.0 L 103.5 104.7 L 104.0 103.0 L 107.2 103.6 L 110.4 104.1 L 113.5 104.9 L 116.5 106.0 L 118.42307691574096 106.9615385055542 L 119.3 105.9 L 122.5 100.9 L 127.0 93.7 L 128.4 91.4 L 129.7 89.0 L 129.95916175842285 88.5414831161499 L 129.4 88.6 L 120.6 89.5 L 111.6 90.3 L 102.4 90.9 L 93.1 91.2 L 92.8 89.5 L 101.9 87.1 L 110.8 85.0 L 119.5 83.0 L 128.2 81.1 L 136.6 79.3 L 144.9 77.4 L 153.1 75.6 L 161.0 73.8 L 168.8 72.0 L 175.51277933120727 70.34359989166259 L 175.5 70.3 L 175.54334278106688 70.33605823516845 L 176.5 70.1 L 176.7526315689087 71.34210529327393 L 187.4 80.2 L 187.8 83.2 L 183.31338586807252 81.0173228263855 L 178.9 81.9 L 171.0 83.1 L 163.0 84.3 L 154.8 85.5 L 146.5 86.6 L 138.0 87.7 L 137.53710069656373 87.7484429359436 L 141.9 91.4 L 143.2 94.8 L 138.9222134590149 94.4312252998352 L 137.8 95.5 L 133.4 99.3 L 131.1 101.2 L 128.7 102.9 L 126.3 104.7 L 123.7 106.3 L 121.1 107.8 L 120.55190315246583 108.18823528289795 L 122.0 109.1 L 124.6 111.1 L 127.0 113.3 L 129.2 115.8 L 131.3 118.6 L 131.6 123.1 L 128.7 126.7 L 124.2 127.0 L 120.6 124.1 L 119.8 121.8 Z M 33.4 89.7 L 33.0 88.3 L 32.4 86.8 L 31.5 85.1 L 30.2 83.3 L 28.7 81.4 L 26.9 79.3 L 24.9 77.1 L 22.4 75.3 L 23.3 73.7 L 26.1 75.2 L 29.0 76.2 L 31.7 77.3 L 34.2 78.5 L 36.5 79.8 L 38.5 81.2 L 40.4 82.7 L 42.1 84.3 L 43.6 86.1 L 44.8 88.2 L 44.3 92.7 L 40.8 95.6 L 36.3 95.1 L 33.3 91.6 L 33.5 90.8 Z M 91.8 78.8 L 92.7 82.2 L 88.05756301879883 81.31953783035279 L 86.7 82.3 L 84.6 83.7 L 82.4 85.2 L 80.0 86.9 L 77.4 88.6 L 74.6 90.5 L 71.5 92.4 L 68.6 94.8 L 67.3 93.5 L 69.8 90.6 L 71.8 87.6 L 73.7 84.9 L 75.5 82.3 L 77.1 79.9 L 78.6 77.7 L 79.9 75.7 L 81.1 73.9 L 82.0 72.2 L 82.30978374481201 71.65787849426269 L 82.1 71.5 L 83.2 70.3 Z M 177.5 22.9 L 177.5 26.9 L 104.9 26.9 L 104.9 40.9 L 149.11818180084228 40.9 L 157.3 31.9 L 167.3 40.9 L 167.3 44.9 L 104.9 44.9 L 104.9 63.3 L 163.6 63.3 L 173.6 53.3 L 185.6 63.3 L 185.6 67.3 L 14.3 67.3 L 14.3 63.3 L 92.9 63.3 L 92.9 26.9 L 22.4 26.9 L 22.4 22.9 L 155.5 22.9 L 165.5 12.9 Z " />
</g>
</svg>
