<svg xmlns="http://www.w3.org/2000/svg" xmlns:xlink="http://www.w3.org/1999/xlink" version="1.1" baseProfile="full" viewBox="0 0 200 200" width="200" height="200">
<g fill="black">
<path d="M 68.6 105.1 L 68.26509618759155 103.79759616851807 L 67.2 104.3 L 61.9 106.6 L 56.3 108.6 L 53.8 109.4035714149475 L 53.8 183.0 L 41.8 189.0 L 41.8 112.95344829559326 L 33.5 115.1 L 27.6 116.4 L 21.6 117.6 L 19.6291259765625 117.98771295547485 L 17.9 121.5 L 15.5 118.8 L 12.0 107.1 L 14.0 106.9 L 20.0 106.4 L 25.9 105.8 L 28.490819358825682 105.5319842338562 L 30.4 102.0 L 34.5 94.7 L 38.7 87.5 L 51.0 65.9 L 55.0 58.7 L 58.9 51.5 L 66.02547836303711 37.81158103942871 L 66.0 37.8 L 66.31234569549561 37.26049385070801 L 66.5 36.9 L 66.51588506698609 36.9089259147644 L 67.1 35.9 L 77.0 42.8 L 78.6 46.0 L 74.97820320129395 46.06244478225708 L 72.6 49.9 L 68.1 56.9 L 63.5 63.9 L 58.9 70.8 L 54.1 77.7 L 49.2 84.5 L 44.1 91.2 L 38.9 97.8 L 33.5 104.2 L 32.70497694015503 105.07870969772338 L 43.3 103.8 L 49.1 103.0 L 60.5 101.4 L 66.2 100.7 L 67.34070453643798 100.58199605941772 L 66.5 98.2 L 65.3 94.9 L 63.9 91.6 L 62.4 88.5 L 60.7 85.3 L 58.9 82.2 L 56.8 79.3 L 58.1 78.0 L 61.1 80.1 L 64.2 82.4 L 67.0 85.0 L 69.7 87.8 L 72.2 90.9 L 74.5 94.3 L 76.6 97.8 L 78.5 101.5 L 80.2 105.4 L 81.8 109.5 L 81.1 114.1 L 77.4 116.9 L 72.9 116.2 L 70.1 112.5 L 69.4 108.8 Z M 78.8 134.9 L 78.8 130.9 L 106.5 130.9 L 106.5 108.6 L 93.7 108.6 L 93.7 115.6 L 82.7 121.1 L 82.7 72.5 L 93.7 74.5 L 96.5 76.5 L 93.7 78.25 L 93.7 104.6 L 106.5 104.6 L 106.5 64.9 L 116.5 66.9 L 119.0 68.9 L 116.5 70.5666666984558 L 116.5 182.1 L 106.5 187.1 L 106.5 134.9 L 96.9 134.9 L 96.9 143.9 L 96.4 149.3 L 95.7 154.5 L 94.6 159.5 L 93.3 164.3 L 91.7 168.8 L 89.7 173.1 L 87.5 177.1 L 84.9 180.8 L 82.0 184.1 L 78.8 187.2 L 77.5 186.2 L 79.3 182.4 L 80.9 178.5 L 82.3 174.6 L 83.5 170.7 L 84.5 166.6 L 85.2 162.4 L 85.7 158.0 L 86.0 153.5 L 86.0 148.8 L 85.9 143.9 L 85.9 134.9 Z M 35.9 128.6 L 38.7 130.9 L 35.206818199157716 132.48181819915771 L 34.9 134.2 L 33.6 139.7 L 32.1 145.2 L 30.2 150.5 L 28.1 155.8 L 25.8 161.0 L 23.1 166.1 L 20.2 171.0 L 16.8 175.8 L 13.1 180.4 L 11.5 179.5 L 13.5 174.0 L 15.3 168.7 L 17.1 163.5 L 18.7 158.3 L 20.1 153.1 L 21.3 147.9 L 22.3 142.8 L 23.1 137.6 L 23.6 132.5 L 23.923032665252684 128.30057582855224 L 23.9 128.3 L 24.2 125.2 Z M 124.5 171.6 L 148.4 171.6 L 148.4 115.5 L 120.1 115.5 L 120.1 111.5 L 148.4 111.5 L 148.4 69.1 L 160.4 71.1 L 163.4 73.1 L 160.4 74.9 L 160.4 111.5 L 166.6 111.5 L 176.6 101.5 L 188.6 111.5 L 188.6 115.5 L 160.4 115.5 L 160.4 171.6 L 166.01818180084229 171.6 L 174.2 162.6 L 184.2 171.6 L 184.2 175.6 L 124.5 175.6 Z M 68.2 151.1 L 67.3 147.2 L 66.3 143.5 L 65.2 139.9 L 63.9 136.4 L 62.5 133.0 L 61.0 129.7 L 59.4 126.4 L 57.5 123.3 L 58.8 122.1 L 61.8 124.4 L 64.8 127.0 L 67.5 129.8 L 70.0 133.0 L 72.4 136.4 L 74.5 140.0 L 76.5 143.9 L 78.2 148.0 L 79.8 152.3 L 81.2 156.8 L 80.3 161.3 L 76.6 163.9 L 72.1 163.0 L 69.5 159.2 L 68.9 155.1 Z M 28.8 69.0 L 27.6 66.0 L 26.1 63.0 L 24.4 60.2 L 22.5 57.3 L 20.4 54.5 L 18.1 51.7 L 15.6 48.8 L 12.7 46.2 L 13.6 44.7 L 17.3 46.4 L 20.9 48.2 L 24.3 50.2 L 27.5 52.5 L 28.122274017333986 53.05790090560913 L 28.9 51.2 L 30.6 47.0 L 32.5 42.8 L 34.3 38.7 L 36.2 34.6 L 38.0 30.5 L 39.8 26.5 L 41.6 22.4 L 44.60906362533569 15.142846488952637 L 44.5 15.1 L 45.5 13.1 L 55.7 19.5 L 57.5 22.6 L 53.67745695114136 22.9295295715332 L 53.4 23.4 L 51.0 27.3 L 48.5 31.2 L 46.0 35.0 L 40.6 42.4 L 37.8 46.1 L 34.9 49.6 L 31.8 53.1 L 30.11145887374878 54.84130802154541 L 30.4 55.1 L 33.2 57.9 L 35.8 60.9 L 38.1 64.1 L 40.2 67.5 L 42.1 71.1 L 41.8 75.6 L 38.5 78.8 L 33.9 78.5 L 30.8 75.2 L 29.9 72.1 Z M 156.6 14.8 L 159.6 16.8 L 156.6 18.6 L 156.6 35.6 L 165.8 35.6 L 175.8 25.6 L 187.8 35.6 L 187.8 39.6 L 156.6 39.6 L 156.6 57.5 L 144.6 63.5 L 144.6 39.6 L 121.3 39.6 L 121.3 57.5 L 109.3 63.5 L 109.3 39.6 L 78.1 39.6 L 78.1 35.6 L 109.3 35.6 L 109.3 12.8 L 121.3 14.8 L 124.3 16.8 L 121.3 18.6 L 121.3 35.6 L 144.6 35.6 L 144.6 12.8 Z " />
</g>
</svg>
