<svg xmlns="http://www.w3.org/2000/svg" xmlns:xlink="http://www.w3.org/1999/xlink" version="1.1" baseProfile="full" viewBox="0 0 200 200" width="200" height="200">
<g fill="black">
<path d="M 183.0 150.3 L 185.0 150.3 L 183.0 175.3 L 186.6 177.7 L 189.0 181.3 L 186.6 184.9 L 183.0 187.3 L 74.0 187.3 L 71.4 187.2 L 68.9 186.7 L 66.5 185.9 L 64.2 184.7 L 62.2 183.1 L 60.6 181.1 L 59.3 178.8 L 58.5 176.4 L 58.1 173.9 L 58.0 171.3 L 58.0 118.2 L 50.69801979064941 118.2 L 49.7 126.6 L 47.9 136.0 L 45.5 145.0 L 42.4 153.3 L 38.8 161.0 L 34.5 168.1 L 29.7 174.6 L 24.2 180.3 L 18.1 185.3 L 11.5 189.4 L 10.4 187.9 L 15.6 182.4 L 20.2 176.7 L 24.4 170.7 L 28.0 164.3 L 31.1 157.4 L 33.7 150.1 L 35.8 142.3 L 37.4 134.0 L 38.4 125.2 L 38.788888931274414 118.2 L 18.0 118.2 L 18.0 114.2 L 68.0 114.2 L 78.0 104.2 L 90.0 114.2 L 90.0 118.2 L 70.0 118.2 L 70.0 172.6 L 70.2 173.5 L 70.5 174.4 L 70.7 174.6 L 70.9 174.7 L 71.2 174.9 L 71.8 175.1 L 72.7 175.3 L 177.0 175.3 Z M 121.7 134.3 L 120.3 132.3 L 118.5 130.1 L 116.3 127.9 L 113.8 125.6 L 110.8 123.3 L 107.4 120.8 L 103.7 118.2 L 99.5 115.9 L 100.2 114.2 L 104.9 115.6 L 109.4 116.8 L 113.5 118.3 L 117.3 119.8 L 120.8 121.5 L 124.0 123.4 L 127.0 125.3 L 129.6 127.5 L 131.9 129.9 L 133.9 132.4 L 134.2 137.0 L 131.3 140.5 L 126.8 140.9 L 123.2 138.0 L 122.6 136.2 Z M 83.0 84.9 L 83.0 88.9 L 24.0 88.9 L 24.0 84.9 L 61.0 84.9 L 71.0 74.9 Z M 123.4 61.0 L 120.9 60.6 L 118.5 59.8 L 116.2 58.5 L 114.2 56.9 L 112.6 54.9 L 111.3 52.6 L 110.5 50.2 L 110.1 47.7 L 110.0 45.2 L 110.0 22.1 L 91.53620691299439 22.1 L 90.1 27.0 L 87.6 32.5 L 84.5 37.6 L 80.8 42.3 L 76.5 46.7 L 71.6 50.7 L 66.2 54.3 L 60.1 57.5 L 53.5 60.2 L 46.3 62.5 L 45.6 60.8 L 51.8 56.8 L 57.4 52.9 L 62.3 48.9 L 66.7 44.9 L 70.4 40.8 L 73.5 36.7 L 76.0 32.4 L 77.9 28.0 L 79.2 23.6 L 79.45714282989502 22.1 L 40.0 22.1 L 40.0 68.4 L 28.0 74.4 L 28.0 12.1 L 40.0 18.1 L 162.0 18.1 L 168.0 13.1 L 179.0 22.1 L 174.0 26.1 L 174.0 68.4 L 163.0 73.9 L 166.0 75.9 L 163.0 77.7 L 163.0 100.8 L 166.0 100.8 L 176.0 90.8 L 188.0 100.8 L 188.0 104.8 L 163.0 104.8 L 163.0 157.8 L 162.8 160.4 L 162.4 162.9 L 161.6 165.3 L 160.3 167.6 L 158.7 169.6 L 156.7 171.2 L 154.4 172.4 L 152.0 173.2 L 149.5 173.7 L 147.0 173.8 L 147.0 167.8 L 127.0 164.8 L 127.0 161.8 L 148.2 161.8 L 149.1 161.6 L 149.7 161.4 L 150.0 161.2 L 150.2 161.1 L 150.4 160.9 L 150.7 160.0 L 150.9 159.1 L 151.0 157.8 L 151.0 104.8 L 95.0 104.8 L 95.0 100.8 L 151.0 100.8 L 151.0 71.9 L 162.0 73.73333330154419 L 162.0 22.1 L 122.0 22.1 L 122.0 46.4 L 122.2 47.3 L 122.5 48.2 L 122.9 48.6 L 123.8 48.9 L 124.7 49.1 L 126.0 49.2 L 145.0 49.2 L 151.0 24.2 L 153.0 24.2 L 151.0 49.2 L 154.6 51.6 L 157.0 55.2 L 154.6 58.8 L 151.0 61.2 L 126.0 61.2 Z " />
</g>
</svg>
