<svg xmlns="http://www.w3.org/2000/svg" xmlns:xlink="http://www.w3.org/1999/xlink" version="1.1" baseProfile="full" viewBox="0 0 200 200" width="200" height="200">
<g fill="black">
<path d="M 165.3 125.4 L 161.58830547332764 123.88782815933227 L 158.9 125.4 L 155.5 127.2 L 151.9 129.0 L 148.0 130.8 L 144.0 132.6 L 139.8 134.4 L 135.3 136.1 L 130.6 137.7 L 129.8773085594177 137.95595321655273 L 133.7 141.9 L 140.5 147.8 L 148.0 153.4 L 156.1 158.4 L 164.9 163.0 L 174.3 167.2 L 180.3 169.9 L 168.9 179.3 L 159.0 174.1 L 149.9 168.4 L 141.4 162.2 L 133.8 155.5 L 126.9 148.3 L 120.8 140.6 L 115.6 132.4 L 111.2 123.8 L 107.8 114.7 L 105.68506126403808 106.3283673286438 L 102.5 108.5 L 97.9 111.6 L 92.7 114.6 L 87.3303030014038 117.28484849929809 L 92.3 120.8 L 99.2 126.7 L 105.1 132.7 L 109.8 138.8 L 113.5 145.0 L 116.1 151.3 L 117.5 157.7 L 117.7 164.3 L 116.4 170.7 L 113.9 177.0 L 113.31343278884887 176.82985076904296 L 112.0 178.8 L 110.5 180.7 L 108.8 182.4 L 106.9 184.0 L 104.9 185.3 L 102.7 186.4 L 100.5 187.2 L 98.1 187.8 L 95.6 188.2 L 93.2 188.3 L 93.2 182.3 L 73.2 179.3 L 73.2 176.3 L 93.2 176.3 L 94.6 176.2 L 97.0 175.8 L 98.0 175.4 L 98.9 174.9 L 99.8 174.3 L 100.6 173.6 L 100.9884892463684 173.25467624664307 L 100.8 173.2 L 102.5 170.3 L 104.6 166.5 L 106.0 162.6 L 106.5 158.4 L 106.2 153.8 L 105.57424793243408 151.34512634277343 L 104.4 152.1 L 97.0 156.3 L 89.1 160.3 L 80.9 163.9 L 72.2 167.3 L 63.0 170.4 L 53.4 173.1 L 43.4 175.5 L 32.9 177.5 L 21.9 179.0 L 21.6 177.2 L 32.0 173.8 L 41.9 170.3 L 51.4 166.9 L 60.4 163.2 L 68.9 159.5 L 77.0 155.5 L 84.5 151.4 L 91.6 147.1 L 98.1 142.6 L 101.08638467788697 140.34797220230104 L 99.3 137.1 L 96.96100282669067 133.72144842147827 L 93.0 135.9 L 86.7 139.0 L 80.0 141.9 L 72.8 144.7 L 65.4 147.2 L 57.5 149.7 L 49.2 151.9 L 40.5 153.8 L 31.5 155.5 L 22.0 156.8 L 21.5 155.1 L 30.5 151.8 L 39.1 148.7 L 47.2 145.6 L 55.0 142.5 L 62.3 139.3 L 69.2 136.1 L 75.7 132.8 L 81.7 129.4 L 87.3 126.0 L 89.80704021453857 124.31256914138794 L 89.4 123.8 L 84.74284000396729 118.41515874862671 L 80.3 120.3 L 73.1 123.0 L 65.1 125.6 L 56.4 128.1 L 46.9 130.5 L 36.7 132.7 L 25.7 134.6 L 25.2 132.9 L 35.7 129.0 L 45.3 125.3 L 54.3 121.8 L 62.5 118.4 L 69.9 115.1 L 76.5 111.8 L 82.3 108.6 L 86.5875 105.8 L 23.6 105.8 L 23.6 101.8 L 153.3 101.8 L 163.3 91.8 L 175.3 101.8 L 175.3 105.8 L 107.73529415130615 105.8 L 111.6 113.1 L 116.4 121.0 L 121.6 128.5 L 127.4 135.4 L 127.75181818008423 135.7629870414734 L 129.1 134.8 L 133.0 131.8 L 136.8 129.1 L 140.5 126.4 L 143.9 123.8 L 147.1 121.4 L 150.1 119.0 L 153.0 116.6 L 155.6 114.4 L 157.26485376358033 112.87388401031494 L 157.2 112.8 L 158.0 112.2 L 165.1 121.8 Z M 15.0 83.3 L 94.0 83.3 L 94.0 65.3 L 30.0 65.3 L 30.0 61.3 L 94.0 61.3 L 94.0 43.3 L 22.0 43.3 L 22.0 39.3 L 117.39032258987427 39.3 L 118.9 37.5 L 121.2 34.2 L 123.3 31.2 L 125.5 28.2 L 129.3 22.6 L 131.1 19.9 L 132.7 17.3 L 134.2 14.8 L 135.0251898765564 13.276572513580323 L 134.9 13.2 L 135.43658533096314 12.517073154449463 L 135.5 12.4 L 135.5181393623352 12.41327724456787 L 136.0 11.8 L 145.2 19.5 L 146.4 22.9 L 142.1650794029236 22.534920597076415 L 140.8 23.9 L 138.4 26.2 L 135.8 28.4 L 133.2 30.7 L 130.3 32.9 L 127.4 35.2 L 124.2 37.4 L 121.21428575515748 39.3 L 156.0 39.3 L 166.0 29.3 L 178.0 39.3 L 178.0 43.3 L 106.0 43.3 L 106.0 61.3 L 151.8181818008423 61.3 L 160.0 52.3 L 170.0 61.3 L 170.0 65.3 L 106.0 65.3 L 106.0 83.3 L 166.8181818008423 83.3 L 175.0 74.3 L 185.0 83.3 L 185.0 87.3 L 15.0 87.3 Z M 69.7 32.3 L 68.7 30.2 L 67.5 28.1 L 66.0 25.9 L 64.3 23.7 L 62.4 21.5 L 60.3 19.2 L 58.1 16.8 L 55.4 14.8 L 56.3 13.2 L 59.4 14.7 L 62.6 15.8 L 65.7 17.2 L 68.5 18.8 L 71.2 20.4 L 73.7 22.3 L 76.0 24.2 L 78.2 26.3 L 80.2 28.6 L 82.0 31.0 L 82.2 35.5 L 79.3 39.0 L 74.7 39.3 L 71.2 36.4 L 70.6 34.4 Z " />
</g>
</svg>
