<svg xmlns="http://www.w3.org/2000/svg" xmlns:xlink="http://www.w3.org/1999/xlink" version="1.1" baseProfile="full" viewBox="0 0 200 200" width="200" height="200">
<g fill="black">
<path d="M 155.5 166.2 L 148.7 159.9 L 141.3 153.7 L 133.3 147.8 L 124.9 142.0 L 115.9 136.4 L 106.4 130.9 L 96.4 125.5 L 90.0 122.2384614944458 L 90.0 182.0 L 78.0 188.0 L 78.0 156.01466665267944 L 76.6 156.5 L 69.2 158.8 L 62.0 160.8 L 54.9 162.7 L 48.0 164.5 L 41.2 166.1 L 34.6 167.6 L 28.2 169.1 L 21.9 170.4 L 19.869496250152586 170.7994433403015 L 18.2 174.3 L 15.8 171.6 L 12.1 160.0 L 14.1 159.7 L 20.2 159.1 L 26.4 158.5 L 29.0 158.18000001907347 L 29.0 85.9 L 13.0 85.9 L 13.0 81.9 L 168.8181818008423 81.9 L 177.0 72.9 L 187.0 81.9 L 187.0 85.9 L 90.0 85.9 L 90.0 119.54385967254639 L 98.0 122.0 L 108.7 126.1 L 114.48501243591309 128.6274326324463 L 124.6 121.1 L 129.0 117.7 L 133.5 114.2 L 137.9 110.6 L 142.4 106.7 L 146.9 102.7 L 151.5 98.5 L 155.3439595222473 94.74146184921264 L 155.3 94.7 L 156.2 93.9 L 164.1 103.0 L 164.6 106.5 L 161.03396224975586 105.41745281219482 L 158.9 107.1 L 153.7 111.0 L 148.6 114.7 L 143.4 118.1 L 138.3 121.2 L 133.1 124.1 L 128.0 126.7 L 122.9 129.0 L 118.78187103271485 130.50470094680787 L 119.0 130.6 L 128.7 135.5 L 138.0 140.7 L 146.7 146.2 L 155.0 152.1 L 162.7 158.2 L 170.0 164.7 L 176.7 171.5 L 178.1 175.9 L 176.2 180.0 L 171.8 181.4 L 167.7 179.4 L 161.9 172.7 Z M 41.0 134.5 L 41.0 156.81470584869385 L 46.4 156.1 L 53.5 155.3 L 60.7 154.4 L 68.2 153.5 L 75.9 152.8 L 78.0 152.61392402648926 L 78.0 134.5 Z M 41.0 110.2 L 41.0 130.5 L 78.0 130.5 L 78.0 110.2 Z M 41.0 85.9 L 41.0 106.2 L 78.0 106.2 L 78.0 85.9 Z M 37.0 67.0 L 25.0 73.0 L 25.0 16.0 L 37.0 22.0 L 163.0 22.0 L 169.0 17.0 L 180.0 26.0 L 175.0 30.0 L 175.0 66.0 L 163.0 72.0 L 163.0 64.0 L 37.0 64.0 Z M 37.0 26.0 L 37.0 60.0 L 71.0 60.0 L 71.0 26.0 Z M 83.0 26.0 L 83.0 60.0 L 117.0 60.0 L 117.0 26.0 Z M 129.0 26.0 L 129.0 60.0 L 163.0 60.0 L 163.0 26.0 Z " />
</g>
</svg>
