<svg xmlns="http://www.w3.org/2000/svg" xmlns:xlink="http://www.w3.org/1999/xlink" version="1.1" baseProfile="full" viewBox="0 0 200 200" width="200" height="200">
<g fill="black">
<path d="M 10.9 128.0 L 16.5 126.3 L 22.4 124.5 L 28.5 122.6 L 35.0 120.7 L 38.14901752471924 119.72750930786133 L 38.2 118.3 L 38.0 106.0 L 38.0 89.0 L 18.2 89.0 L 18.2 85.0 L 38.0 85.0 L 38.0 55.0 L 12.1 55.0 L 12.1 51.0 L 49.9 51.0 L 50.9 48.5 L 52.2 44.5 L 53.5 40.7 L 54.8 37.1 L 56.0 33.6 L 57.1 30.3 L 58.2 27.2 L 59.2 24.1 L 60.1 21.2 L 60.62106199264527 19.441415882110597 L 60.5 19.4 L 61.4 17.2 L 71.9 23.3 L 73.9 26.3 L 69.76740026473999 26.798762035369872 L 68.7 28.6 L 66.9 31.3 L 65.0 34.2 L 63.0 37.2 L 60.8 40.3 L 58.5 43.4 L 56.1 46.7 L 53.4 49.9 L 52.61428575515747 51.0 L 60.81818180084228 51.0 L 69.0 42.0 L 79.0 51.0 L 79.0 55.0 L 50.0 55.0 L 50.0 85.0 L 55.418181800842284 85.0 L 63.6 76.0 L 73.6 85.0 L 73.6 89.0 L 50.0 89.0 L 50.0 106.0 L 49.99585065841675 106.0062240600586 L 49.592505645751956 116.33185653686523 L 56.4 114.4 L 64.2 112.2 L 72.4 110.1 L 77.96590909957885 108.79037437438964 L 78.6 107.0 L 82.1 97.4 L 85.6 87.7 L 89.0 77.8 L 92.3 67.7 L 95.5 57.5 L 98.6 47.0 L 101.5 36.3 L 104.4 25.5 L 106.85452756881713 15.409164333343506 L 106.8 15.4 L 107.5 12.7 L 118.7 17.4 L 121.1 20.1 L 117.55353002548217 21.176606941223145 L 115.3 28.6 L 111.8 39.4 L 108.1 50.1 L 104.3 60.5 L 100.3 70.6 L 99.21401872634888 73.18566980361939 L 104.1 74.0 L 107.1 76.0 L 104.1 77.8 L 104.1 183.0 L 92.1 189.0 L 92.1 89.13333330154418 L 91.6 90.2 L 87.0 99.6 L 82.1 108.6 L 81.45193252563476 109.66380882263184 L 81.5 109.8 L 81.31157026290893 109.89421491622925 L 76.8 117.3 L 75.2 116.6 L 76.77088603973388 112.16455698013306 L 73.7 113.7 L 66.0 117.3 L 58.6 120.6 L 51.5 123.7 L 48.9853892326355 124.77240753173828 L 48.5 130.5 L 46.7 141.4 L 44.4 151.4 L 41.4 160.3 L 37.7 168.3 L 33.3 175.2 L 28.3 181.0 L 22.6 185.5 L 16.3 188.7 L 15.4 187.2 L 20.1 182.6 L 24.2 177.5 L 27.8 171.7 L 30.8 165.1 L 33.3 157.6 L 35.3 149.2 L 36.8 139.8 L 37.79247875213623 129.57746896743774 L 32.0 132.1 L 26.0 134.6 L 20.4 137.0 L 18.91930456161499 137.61462831497192 L 18.0 141.4 L 15.1 139.2 L 9.1 128.7 Z M 165.7 175.0 L 165.7 179.0 L 109.6 179.0 L 109.6 175.0 L 143.7 175.0 L 153.7 165.0 Z M 166.0 163.4 L 160.9 154.4 L 156.6 143.3 L 153.1 130.3 L 150.2 115.2 L 148.0 98.0 L 147.53125 92.0 L 130.1 92.0 L 130.1 143.0731707572937 L 130.9 142.8 L 135.3 141.2 L 139.8 139.6 L 144.6 138.0 L 149.5 136.2 L 150.4 137.7 L 146.2 140.9 L 142.1 144.0 L 138.0 146.8 L 134.0 149.3 L 130.1 151.6 L 130.1 152.0 L 129.3952381134033 152.0 L 126.4 153.7 L 122.7 155.7 L 119.1 157.4 L 116.3349190711975 158.7012145996094 L 115.1 162.7 L 112.3 160.4 L 107.0 149.5 L 108.9 148.9 L 112.1 148.3 L 115.5 147.5 L 118.1 146.7777777671814 L 118.1 34.0 L 128.59148931503296 39.245744705200195 L 129.2 39.0 L 134.4 37.0 L 139.4 35.0 L 144.3 33.0 L 149.1 30.8 L 153.7 28.6 L 158.3 26.2 L 162.7 23.7 L 167.0 21.1 L 170.41612901687623 18.82258062362671 L 170.4 18.8 L 170.4194507598877 18.82036609649658 L 171.2 18.3 L 173.37775716781616 21.91788692474365 L 178.9 27.7 L 179.1 31.1 L 175.45567407608033 29.592003059387206 L 172.5 31.1 L 167.5 33.3 L 162.4 35.4 L 157.3 37.2 L 157.2417866706848 37.21757383346558 L 157.5 57.1 L 158.4 78.1 L 159.2470588684082 88.0 L 165.1 88.0 L 175.1 78.0 L 187.1 88.0 L 187.1 92.0 L 159.5893048286438 92.0 L 160.0 96.8 L 162.1 113.3 L 164.8 127.6 L 168.0 139.6 L 171.8 149.3 L 175.9 156.6 L 177.5860366821289 158.56050777435303 L 182.1 139.0 L 184.1 139.0 L 182.25723791122437 162.95590686798096 L 184.6 164.5 L 187.6 167.9 L 187.6 172.4 L 184.2 175.5 L 179.6 175.4 L 172.2 170.5 Z M 141.2 41.3 L 135.7 42.2 L 130.1 42.6912281036377 L 130.1 88.0 L 147.21875 88.0 L 146.5 78.8 L 145.5 57.4 L 145.28292684555055 40.46829271316528 Z M 27.1 40.1 L 26.1 35.1 L 25.5 32.6 L 23.9 27.6 L 21.9 22.6 L 20.4 20.3 L 21.8 19.1 L 23.9 21.0 L 26.2 22.8 L 28.3 24.8 L 30.3 26.9 L 32.1 29.2 L 33.8 31.7 L 35.4 34.2 L 36.9 36.9 L 38.2 39.8 L 39.3 42.7 L 38.5 47.2 L 34.8 49.9 L 30.3 49.0 L 27.6 45.3 L 27.4 42.7 Z " />
</g>
</svg>
