<svg xmlns="http://www.w3.org/2000/svg" xmlns:xlink="http://www.w3.org/1999/xlink" version="1.1" baseProfile="full" viewBox="0 0 200 200" width="200" height="200">
<g fill="black">
<path d="M 163.88515911102294 147.67850351333618 L 160.8 145.9 L 152.9 140.8 L 145.7 135.3 L 139.0 129.5 L 133.1 123.4 L 128.53384618759156 117.8 L 76.1 117.8 L 73.2 120.9 L 63.3 129.4 L 62.67832698822021 129.8391634941101 L 73.0 135.0 L 126.0 135.0 L 132.0 130.0 L 143.0 139.0 L 138.0 142.0 L 137.88825912475585 142.04655866622926 L 137.8 143.9 L 137.7 145.8 L 137.6 147.5 L 137.5 149.0 L 137.3 150.4 L 137.0 151.7 L 136.5 153.2 L 135.2 155.3 L 133.4 157.0 L 131.6 158.5 L 129.7 159.9 L 127.7 161.1 L 125.5 162.2 L 123.3 163.0 L 121.1 163.7 L 118.8 164.1 L 116.4 164.4 L 114.0 164.5 L 114.0 158.5 L 94.0 155.5 L 94.0 152.5 L 114.0 152.5 L 115.5 152.4 L 116.9 152.3 L 118.2 152.0 L 120.8 151.2 L 121.9 150.6 L 123.1 149.9 L 124.2 149.1 L 125.3 148.2 L 125.55 147.95 L 125.6 147.6 L 125.7 146.5 L 125.8 145.1 L 125.8 143.5 L 125.9 141.5 L 125.9 139.4 L 125.91666669845581 139.0 L 73.0 139.0 L 73.0 169.4 L 73.2 170.3 L 73.4 170.9 L 73.5 171.3 L 73.7 171.4 L 73.9 171.6 L 74.2 171.8 L 74.8 172.0 L 75.7 172.1 L 77.0 172.2 L 158.0 172.2 Z M 92.68981485366821 96.3 L 89.5 101.6 L 81.9 111.6 L 79.84193544387817 113.8 L 125.7029411315918 113.8 L 123.2 110.1 L 119.4 103.0 L 116.86486482620239 96.3 Z M 73.7 72.6 L 74.6 76.1 L 70.78307695388794 75.36340084075928 L 69.9 76.2 L 65.9 79.6 L 61.7 82.8 L 57.2 85.9 L 52.5 88.9 L 47.5 91.7 L 42.4 94.3 L 37.0 96.7 L 31.3 98.8 L 25.3 100.6 L 24.6 99.0 L 29.6 95.4 L 34.4 92.0 L 39.0 88.6 L 43.4 85.3 L 47.6 81.9 L 51.5 78.6 L 55.2 75.1 L 58.7 71.6 L 61.9 68.1 L 64.21221981048583 65.30938997268677 L 64.2 65.3 L 64.42580642700196 65.05161294937133 L 64.8 64.6 L 64.82001123428344 64.61798763275146 L 65.2 64.2 Z M 158.0 90.0 L 155.4 87.1 L 152.6 84.3 L 149.4 81.5 L 146.0 78.8 L 142.3 76.1 L 138.3 73.3 L 134.1 70.5 L 129.5 67.7 L 130.2 66.0 L 135.5 67.3 L 140.5 68.8 L 145.3 70.6 L 149.8 72.5 L 154.0 74.7 L 158.0 77.1 L 161.8 79.6 L 165.4 82.3 L 168.7 85.1 L 171.7 88.2 L 173.0 92.6 L 170.8 96.6 L 166.4 97.8 L 162.4 95.7 L 160.3 92.8 Z M 43.3 25.9 L 155.6 25.9 L 161.6 20.9 L 172.6 29.9 L 167.6 33.9 L 167.6 63.1 L 155.6 69.1 L 155.6 29.9 L 43.3 29.9 L 43.3 64.1 L 31.3 70.1 L 31.3 19.9 Z M 107.50833330154418 37.175 L 107.3 38.3 L 104.9 43.2 L 102.7051947593689 45.833766269683835 L 108.3 46.3 L 113.9 47.1 L 119.2 47.9 L 124.1 48.9 L 128.7 50.0 L 133.0 51.2 L 136.9 52.5 L 140.5 53.8 L 143.9 55.3 L 146.6 59.0 L 146.0 63.5 L 142.3 66.2 L 137.7 65.6 L 135.4 63.9 L 132.5 62.2 L 129.3 60.5 L 125.6 58.7 L 121.6 56.9 L 117.1 55.1 L 112.3 53.3 L 107.1 51.4 L 101.6 49.3 L 99.86335878372192 48.69217557907105 L 97.0 51.1 L 91.7 54.3 L 85.4 57.0 L 78.3 59.5 L 70.3 61.6 L 61.2 63.2 L 51.2 64.5 L 50.8 62.7 L 60.3 59.6 L 68.7 56.4 L 76.0 53.3 L 82.2 50.2 L 87.3 47.0 L 91.2 43.8 L 93.9 40.7 L 95.6 37.9 L 96.3 35.3 L 96.3 30.5 L 108.3 32.9 L 111.3 34.9 Z M 165.87017545700073 148.8228070259094 L 164.0 172.2 L 167.6 174.6 L 170.0 178.2 L 167.6 181.8 L 164.0 184.2 L 77.0 184.2 L 74.4 184.1 L 71.9 183.6 L 69.5 182.8 L 67.2 181.6 L 65.2 179.9 L 63.6 177.9 L 62.3 175.7 L 61.5 173.2 L 61.1 170.8 L 61.0 168.2 L 61.0 131.0247706413269 L 52.4 137.1 L 40.5 143.9 L 27.4 149.9 L 13.3 154.9 L 12.6 153.2 L 25.8 146.4 L 37.8 139.3 L 48.7 131.7 L 58.5 123.6 L 64.3 117.8 L 14.0 117.8 L 14.0 113.8 L 68.08901100158691 113.8 L 74.6 105.9 L 80.93402061462402 96.3 L 47.0 96.3 L 47.0 92.3 L 83.06470584869385 92.3 L 86.4 86.0 L 90.7 75.2 L 93.61842880249023 64.80309724807739 L 93.6 64.8 L 94.3 62.1 L 105.5 66.8 L 107.9 69.5 L 104.20561800003051 70.6215087890625 L 101.3 79.2 L 96.0 90.8 L 95.09722223281861 92.3 L 131.0 92.3 L 141.0 82.3 L 153.0 92.3 L 153.0 96.3 L 119.45901641845703 96.3 L 123.0 100.8 L 127.9 106.6 L 133.2 112.2 L 134.95384616851806 113.8 L 167.8181818008423 113.8 L 176.0 104.8 L 186.0 113.8 L 186.0 117.8 L 139.3960000038147 117.8 L 145.1 122.4 L 151.7 127.1 L 158.9 131.5 L 166.6 135.6 L 174.8 139.5 L 183.5 143.1 L 189.8 145.7 L 178.4 155.2 L 169.3 150.8 Z " />
</g>
</svg>
