<svg xmlns="http://www.w3.org/2000/svg" xmlns:xlink="http://www.w3.org/1999/xlink" version="1.1" baseProfile="full" viewBox="0 0 200 200" width="200" height="200">
<g fill="black">
<path d="M 123.4 175.8 L 143.4 175.8 L 144.6 175.7 L 145.5 175.6 L 146.1 175.4 L 146.7 175.1 L 147.0 174.5 L 147.2 174.0 L 147.3 173.0 L 147.4 171.8 L 147.4 133.4 L 78.2 133.4 L 78.2 129.4 L 147.4 129.4 L 147.4 111.5 L 159.4 113.5 L 162.4 115.5 L 159.4 117.3 L 159.4 129.4 L 162.1 129.4 L 172.1 119.4 L 184.1 129.4 L 184.1 133.4 L 159.4 133.4 L 159.4 171.8 L 159.3 174.4 L 158.8 176.9 L 158.0 179.3 L 156.8 181.5 L 155.1 183.6 L 153.1 185.2 L 150.9 186.4 L 148.5 187.2 L 146.0 187.7 L 143.4 187.8 L 143.4 181.8 L 123.4 178.8 Z M 29.7 74.7 L 60.3 74.7 L 66.3 69.7 L 77.3 78.7 L 72.3 82.7 L 72.3 166.5 L 60.3 172.5 L 60.3 160.5 L 29.7 160.5 L 29.7 172.5 L 17.7 178.5 L 17.7 68.7 Z M 108.9 161.0 L 107.0 158.7 L 104.8 156.5 L 102.5 154.3 L 99.9 152.1 L 97.2 149.9 L 94.3 147.7 L 91.1 145.5 L 87.7 143.6 L 88.3 141.9 L 92.2 142.9 L 96.1 143.7 L 99.8 144.9 L 103.4 146.2 L 106.8 147.8 L 110.1 149.5 L 113.2 151.4 L 116.1 153.5 L 118.9 155.7 L 121.5 158.2 L 122.8 162.6 L 120.6 166.6 L 116.2 167.9 L 112.2 165.7 L 110.6 163.4 Z M 29.7 119.6 L 29.7 156.5 L 60.3 156.5 L 60.3 119.6 Z M 29.7 78.7 L 29.7 115.6 L 60.3 115.6 L 60.3 78.7 Z M 77.2 105.4 L 123.6 105.4 L 123.6 83.8 L 84.1 83.8 L 84.1 79.8 L 123.6 79.8 L 123.6 58.2 L 135.6 60.2 L 138.6 62.2 L 135.6 64.0 L 135.6 79.8 L 154.2 79.8 L 164.2 69.8 L 176.2 79.8 L 176.2 83.8 L 135.6 83.8 L 135.6 105.4 L 164.1 105.4 L 174.1 95.4 L 186.1 105.4 L 186.1 109.4 L 77.2 109.4 Z M 37.0 58.2 L 25.0 64.2 L 25.0 13.7 L 37.0 19.7 L 163.0 19.7 L 169.0 14.7 L 180.0 23.7 L 175.0 27.7 L 175.0 59.2 L 163.0 65.2 L 163.0 55.2 L 37.0 55.2 Z M 37.0 23.7 L 37.0 51.2 L 71.0 51.2 L 71.0 23.7 Z M 83.0 23.7 L 83.0 51.2 L 117.0 51.2 L 117.0 23.7 Z M 129.0 23.7 L 129.0 51.2 L 163.0 51.2 L 163.0 23.7 Z " />
</g>
</svg>
