<svg xmlns="http://www.w3.org/2000/svg" xmlns:xlink="http://www.w3.org/1999/xlink" version="1.1" baseProfile="full" viewBox="0 0 200 200" width="200" height="200">
<g fill="black">
<path d="M 89.8 120.2 L 86.35986318588257 122.088702583313 L 85.6 127.7 L 83.37582416534424 136.5 L 140.0 136.5 L 146.0 131.5 L 157.0 140.5 L 152.0 143.5 L 151.8416886329651 143.56596307754518 L 151.8 144.9 L 151.4 150.9 L 150.7 156.3 L 149.8 161.3 L 148.5 165.8 L 146.8 169.9 L 144.7 173.6 L 142.1 176.7 L 139.0 179.3 L 135.4 181.1 L 133.3 181.9 L 129.1 183.1 L 127.0 183.6 L 124.8 184.0 L 122.7 184.3 L 120.5 184.6 L 118.3 184.8 L 116.2 184.9 L 114.0 185.0 L 114.0 179.0 L 94.0 176.0 L 94.0 173.0 L 114.0 173.0 L 115.7 172.9 L 119.3 172.7 L 121.0 172.5 L 122.7 172.2 L 124.5 171.8 L 127.9 171.0 L 129.6 170.5 L 131.3 169.9 L 132.4 169.3 L 133.6 168.3 L 134.8 166.8 L 136.0 164.7 L 137.1 162.0 L 138.1 158.5 L 138.9 154.5 L 139.5 149.7 L 139.8 144.4 L 139.9322033882141 140.5 L 81.7764705657959 140.5 L 79.8 145.3 L 75.3 153.3 L 69.8 160.7 L 63.2 167.4 L 55.7 173.5 L 47.2 179.0 L 37.8 183.8 L 27.3 187.9 L 26.6 186.2 L 35.9 180.5 L 44.3 174.6 L 51.6 168.4 L 57.8 162.1 L 63.1 155.4 L 67.3 148.5 L 70.6 141.3 L 73.0 133.8 L 74.4 125.9 L 74.76746988296509 119.8 L 15.6 119.8 L 15.6 115.8 L 40.8 115.8 L 40.8 72.7 L 52.8 78.7 L 146.1 78.7 L 152.1 73.7 L 163.1 82.7 L 158.1 86.7 L 158.1 115.8 L 161.3 115.8 L 171.3 105.8 L 183.3 115.8 L 183.3 119.8 L 89.24761905670167 119.8 Z M 52.8 82.7 L 52.8 115.8 L 74.9848484992981 115.8 L 75.0 115.3 L 75.9 115.51176471710205 L 75.9 82.7 Z M 87.9 82.7 L 87.9 115.8 L 111.0 115.8 L 111.0 82.7 Z M 123.0 82.7 L 123.0 115.8 L 146.1 115.8 L 146.1 82.7 Z M 51.0 25.3 L 51.0 65.4 L 39.0 71.4 L 39.0 15.3 L 51.0 21.3 L 148.9 21.3 L 154.9 16.3 L 165.9 25.3 L 160.9 29.3 L 160.9 57.3 L 160.8 59.8 L 160.3 62.3 L 159.5 64.7 L 158.3 67.0 L 156.6 69.0 L 154.6 70.7 L 152.4 71.9 L 149.9 72.7 L 147.5 73.1 L 144.9 73.3 L 144.9 67.3 L 131.0321044921875 65.21981563568116 L 130.1 65.9 L 125.6 65.3 L 121.1 62.3 L 116.2 59.4 L 111.1 56.4 L 105.7 53.6 L 105.31788911819459 53.40212116241455 L 102.5 54.5 L 94.4 57.3 L 86.0 59.8 L 77.4 62.0 L 68.4 63.9 L 59.2 65.4 L 58.7 63.7 L 67.4 60.3 L 75.8 56.9 L 83.9 53.6 L 91.7 50.2 L 95.33969316482543 48.4785234451294 L 94.1 47.9 L 87.8 45.1 L 81.3 42.3 L 74.5 39.3 L 67.5 36.2 L 68.0 34.5 L 75.6 35.7 L 83.0 37.2 L 90.0 38.9 L 96.8 40.8 L 103.2 42.9 L 105.16160917282104 43.585006427764895 L 106.3 43.0 L 113.2 39.3 L 119.7 35.4 L 125.9 31.4 L 131.8 27.2 L 135.7034782409668 33.02608699798584 L 139.1 36.8 L 139.3 40.3 L 135.73306322097778 38.83500814437866 L 131.9 41.1 L 124.9 44.8 L 117.7 48.2 L 117.50440101623535 48.28606357574463 L 121.1 49.8 L 126.6 52.3 L 131.8 55.0 L 134.5 58.7 L 134.09555559158326 61.3 L 144.9 61.3 L 146.1 61.2 L 147.0 61.1 L 147.6 60.9 L 148.0 60.7 L 148.2 60.5 L 148.3 60.3 L 148.5 60.0 L 148.7 59.4 L 148.8 58.5 L 148.9 57.3 L 148.9 25.3 Z " />
</g>
</svg>
