<svg xmlns="http://www.w3.org/2000/svg" xmlns:xlink="http://www.w3.org/1999/xlink" version="1.1" baseProfile="full" viewBox="0 0 200 200" width="200" height="200">
<g fill="black">
<path d="M 39.4 161.6 L 42.9 160.1 L 46.5 158.5 L 47.7 158.0 L 47.7 103.3 L 38.382926845550536 103.3 L 37.7 113.8 L 36.5 125.4 L 34.8 136.3 L 32.7 146.3 L 30.1 155.6 L 27.1 164.1 L 23.7 171.7 L 19.8 178.5 L 15.3 184.3 L 10.4 189.1 L 9.0 188.0 L 12.2 182.2 L 15.1 176.0 L 17.7 169.1 L 20.0 161.6 L 21.9 153.4 L 23.6 144.5 L 24.8 134.8 L 25.8 124.4 L 26.3 113.2 L 26.46638650894165 103.3 L 11.4 103.3 L 11.4 99.3 L 54.6 99.3 L 64.6 89.3 L 76.6 99.3 L 76.6 103.3 L 59.7 103.3 L 59.7 153.07105264663696 L 61.4 152.4 L 65.4 150.9 L 69.4 149.6 L 77.8 147.0 L 78.6 148.6 L 75.0 151.2 L 71.6 153.8 L 68.1 156.3 L 64.7 158.7 L 61.4 161.0 L 58.0 163.3 L 48.8871467590332 169.56508655548095 L 48.6 173.7 L 45.4 172.1 L 37.7 162.6 Z M 93.8 175.0 L 113.8 175.0 L 115.0 174.9 L 115.9 174.7 L 116.5 174.5 L 116.9 174.4 L 117.0 174.2 L 117.2 174.0 L 117.4 173.7 L 117.6 173.1 L 117.7 172.2 L 117.8 171.0 L 117.8 110.8125 L 116.8 113.0 L 113.5 119.7 L 109.9 126.1 L 106.2 132.3 L 102.2 138.2 L 98.0 143.8 L 93.6 149.1 L 88.8 154.0 L 83.8 158.5 L 82.4 157.4 L 85.9 151.7 L 92.5 140.1 L 95.7 134.2 L 98.7 128.1 L 101.6 121.9 L 104.4 115.4 L 107.0 108.8 L 109.4 101.9 L 111.6 94.9 L 111.62984294891358 94.9104712486267 L 112.1 93.5 L 117.8 96.32385320663452 L 117.8 56.8 L 117.3 57.8 L 114.3 63.4 L 111.0 68.9 L 107.6 74.1 L 104.1 79.1 L 100.3 83.9 L 96.3 88.4 L 92.0 92.7 L 87.5 96.5 L 86.1 95.4 L 89.1 90.3 L 92.0 85.2 L 94.9 80.2 L 97.7 75.0 L 100.3 69.8 L 102.9 64.4 L 105.3 59.0 L 107.5 53.4 L 109.7 47.6 L 111.38164587020874 42.7232268333435 L 111.3 42.7 L 112.2 40.4 L 117.8 43.33084115982056 L 117.8 32.0 L 83.1 32.0 L 83.1 29.0 L 80.6 30.5 L 78.34579439163208 31.439252376556396 L 77.5 33.3 L 73.8 40.7 L 72.4 43.4 L 70.8 46.2 L 69.1 49.1 L 67.7 52.2 L 66.0 51.6 L 66.7 48.3 L 67.0 45.0 L 67.3 41.8 L 67.9 36.0 L 68.2 33.3 L 68.4 30.8 L 68.6 28.4 L 68.6 27.5 L 20.94489793777466 27.5 L 21.2 30.0 L 21.4 34.5 L 21.5 38.6 L 21.5 42.3 L 21.3 45.7 L 20.9 48.7 L 20.3 51.6 L 19.3 54.2 L 15.6 56.8 L 11.1 56.1 L 8.5 52.4 L 9.2 47.8 L 10.0 47.1 L 10.9 45.7 L 11.8 43.6 L 12.8 40.9 L 13.7 37.7 L 14.5 34.0 L 15.4 29.7 L 16.2 25.0 L 17.0 19.8 L 17.6 14.2 L 19.4 14.1 L 20.0 19.8 L 20.488679218292237 23.5 L 68.6 23.5 L 74.6 18.5 L 85.6 27.5 L 84.76666669845581 28.0 L 117.8 28.0 L 123.8 23.0 L 134.8 32.0 L 129.8 36.0 L 129.8 171.0 L 129.7 173.5 L 129.2 176.0 L 128.4 178.4 L 127.2 180.7 L 125.5 182.7 L 123.5 184.3 L 121.3 185.6 L 118.8 186.4 L 116.4 186.8 L 113.8 187.0 L 113.8 181.0 L 93.8 178.0 Z M 153.3 175.0 L 165.3 175.0 L 166.6 174.9 L 167.5 174.7 L 168.4 174.4 L 168.8 174.0 L 169.1 173.1 L 169.3 172.2 L 169.3 109.8 L 168.0 112.4 L 164.6 118.9 L 160.8 125.1 L 156.9 131.1 L 152.7 136.9 L 148.3 142.5 L 143.6 147.9 L 138.6 152.9 L 133.3 157.5 L 132.0 156.4 L 139.4 144.6 L 143.0 138.7 L 146.4 132.8 L 149.6 126.7 L 152.7 120.6 L 155.6 114.3 L 158.3 107.9 L 160.8 101.4 L 162.77857398986816 95.72235298156738 L 162.7 95.7 L 163.6 93.4 L 169.3 96.38317756652832 L 169.3 56.5 L 168.6 57.9 L 165.4 63.6 L 162.0 69.1 L 158.5 74.4 L 154.7 79.5 L 150.7 84.4 L 146.4 89.1 L 141.9 93.5 L 137.1 97.6 L 135.7 96.3 L 139.0 91.1 L 142.2 85.8 L 145.3 80.6 L 148.3 75.3 L 151.2 70.0 L 153.9 64.5 L 156.5 59.0 L 158.8 53.4 L 161.1 47.6 L 162.75565032958986 42.71583156585693 L 162.7 42.7 L 163.6 40.4 L 169.3 43.38317756652832 L 169.3 32.0 L 135.1 32.0 L 135.1 28.0 L 169.3 28.0 L 175.3 23.0 L 186.3 32.0 L 181.3 36.0 L 181.3 171.0 L 181.2 173.5 L 180.8 176.0 L 180.0 178.4 L 178.7 180.7 L 177.1 182.7 L 175.1 184.3 L 172.8 185.6 L 170.4 186.4 L 167.9 186.8 L 165.3 187.0 L 165.3 181.0 L 153.3 178.0 Z M 70.0 61.8 L 70.0 65.8 L 19.5 65.8 L 19.5 61.8 L 48.0 61.8 L 58.0 51.8 Z " />
</g>
</svg>
