<svg xmlns="http://www.w3.org/2000/svg" xmlns:xlink="http://www.w3.org/1999/xlink" version="1.1" baseProfile="full" viewBox="0 0 200 200" width="200" height="200">
<g fill="black">
<path d="M 87.2 148.7 L 88.8 151.9 L 84.94383487701415 152.03297119140626 L 82.8 155.2 L 78.0 161.2 L 72.6 166.6 L 66.7 171.6 L 60.3 175.9 L 53.4 179.7 L 46.0 182.9 L 38.2 185.6 L 29.9 187.5 L 21.2 188.8 L 20.8 187.1 L 28.8 183.9 L 36.3 180.6 L 43.2 177.0 L 49.6 173.1 L 55.4 168.9 L 60.7 164.4 L 65.4 159.6 L 69.7 154.4 L 73.4 148.8 L 76.7 142.9 L 77.2 142.0 Z M 155.8 175.0 L 167.8 175.0 L 169.0 174.9 L 169.9 174.7 L 170.8 174.4 L 171.2 174.0 L 171.5 173.1 L 171.7 172.2 L 171.8 171.0 L 171.8 110.2709677696228 L 170.8 112.4 L 167.4 118.8 L 163.7 125.0 L 159.9 131.1 L 155.8 136.9 L 151.5 142.5 L 146.9 147.8 L 142.0 152.9 L 136.8 157.5 L 135.4 156.4 L 142.6 144.6 L 146.1 138.8 L 149.4 132.8 L 152.6 126.8 L 155.5 120.6 L 158.3 114.4 L 161.0 108.0 L 163.4 101.5 L 165.6 94.8 L 165.66582527160645 94.82446603775024 L 166.2 93.4 L 171.8 96.33084115982055 L 171.8 56.88275861740112 L 171.3 57.9 L 168.2 63.5 L 164.9 69.0 L 161.4 74.4 L 157.7 79.5 L 153.8 84.4 L 149.6 89.1 L 145.2 93.5 L 140.4 97.5 L 139.1 96.4 L 142.2 91.1 L 145.3 85.9 L 148.4 80.6 L 151.3 75.4 L 154.1 70.0 L 156.7 64.6 L 159.2 59.0 L 161.5 53.4 L 163.7 47.6 L 165.38164587020873 42.7232268333435 L 165.3 42.7 L 166.2 40.4 L 171.8 43.33084115982056 L 171.8 32.0 L 138.5 32.0 L 138.5 28.0 L 171.8 28.0 L 177.8 23.0 L 188.8 32.0 L 183.8 36.0 L 183.8 171.0 L 183.6 173.5 L 183.2 176.0 L 182.4 178.4 L 181.1 180.7 L 179.5 182.7 L 177.5 184.3 L 175.2 185.6 L 172.8 186.4 L 170.3 186.8 L 167.8 187.0 L 167.8 181.0 L 155.8 178.0 Z M 97.5 175.0 L 117.5 175.0 L 118.7 174.9 L 119.6 174.7 L 120.5 174.4 L 120.9 174.0 L 121.2 173.1 L 121.4 172.2 L 121.5 171.0 L 121.5 111.34193544387817 L 120.8 112.9 L 117.5 119.6 L 114.1 126.0 L 110.4 132.2 L 106.5 138.1 L 102.4 143.7 L 98.1 149.1 L 93.4 154.0 L 88.5 158.5 L 87.1 157.4 L 93.7 146.0 L 96.9 140.2 L 100.0 134.2 L 102.9 128.2 L 105.7 121.9 L 108.4 115.5 L 110.9 108.8 L 113.3 102.0 L 115.20867691040038 95.92693700790406 L 115.1 95.9 L 116.0 93.5 L 121.5 96.1990740776062 L 121.5 57.38571424484253 L 121.3 57.8 L 118.3 63.4 L 115.2 68.8 L 111.8 74.0 L 108.3 79.1 L 104.6 83.9 L 100.7 88.4 L 96.6 92.6 L 92.1 96.5 L 90.7 95.4 L 93.6 90.3 L 96.4 85.3 L 99.2 80.2 L 101.9 75.1 L 104.5 69.8 L 106.9 64.5 L 109.3 59.0 L 111.5 53.4 L 113.5 47.7 L 115.15579900741577 42.815392875671385 L 115.1 42.8 L 116.0 40.4 L 121.5 43.27850465774536 L 121.5 32.0 L 87.8 32.0 L 87.8 28.0 L 121.5 28.0 L 127.5 23.0 L 138.5 32.0 L 133.5 36.0 L 133.5 171.0 L 133.3 173.5 L 132.9 176.0 L 132.1 178.4 L 130.9 180.7 L 129.2 182.7 L 127.2 184.3 L 124.9 185.6 L 122.5 186.4 L 120.0 186.8 L 117.5 187.0 L 117.5 181.0 L 97.5 178.0 Z M 76.3 131.2 L 77.6 134.6 L 73.76733665466308 134.33567838668824 L 72.1 136.4 L 67.7 141.3 L 63.0 145.9 L 58.1 150.2 L 53.0 154.2 L 47.6 157.8 L 42.1 161.2 L 36.3 164.2 L 30.2 166.7 L 24.0 168.8 L 23.2 167.1 L 28.4 163.4 L 33.5 159.6 L 38.4 155.7 L 43.1 151.8 L 47.5 147.7 L 51.8 143.4 L 55.8 138.9 L 59.6 134.2 L 63.2 129.4 L 66.5 124.3 L 66.52268514633178 124.31597223281861 L 67.0 123.6 Z M 64.4 115.0 L 65.9 118.3 L 61.86800003051758 118.23048276901245 L 61.5 118.7 L 58.4 122.4 L 54.9 126.0 L 51.2 129.6 L 47.2 133.2 L 42.9 136.7 L 38.3 140.1 L 33.3 143.5 L 28.1 146.7 L 22.4 149.7 L 21.3 148.2 L 25.7 143.7 L 30.0 139.3 L 34.0 135.1 L 37.7 131.1 L 41.2 127.1 L 44.4 123.3 L 47.3 119.5 L 49.9 115.8 L 52.3 112.1 L 53.83291921615601 109.41739130020142 L 53.8 109.4 L 54.8 107.8 Z M 75.5 118.1 L 73.3 115.1 L 70.8 111.9 L 68.1 108.7 L 65.2 105.5 L 62.1 102.1 L 58.8 98.6 L 55.3 95.0 L 55.23944225311279 94.9410358428955 L 52.3 100.4 L 48.5 106.5 L 44.4 112.3 L 40.1 117.7 L 35.4 122.8 L 30.4 127.5 L 25.2 131.7 L 19.6 135.5 L 13.7 138.7 L 12.7 137.2 L 17.2 132.5 L 21.6 127.8 L 25.7 122.9 L 29.6 117.9 L 33.3 112.6 L 36.7 107.1 L 39.9 101.4 L 42.8 95.4 L 45.5 89.2 L 47.56090688705444 83.61837711334229 L 47.5 83.6 L 48.4 81.3 L 59.1 87.1 L 61.1 90.0 L 57.37554988861084 90.65341234207153 L 56.759052181243895 91.92377128601075 L 57.3 92.2 L 61.8 94.7 L 66.0 97.3 L 70.0 100.0 L 73.7 102.7 L 77.2 105.5 L 80.5 108.3 L 83.5 111.2 L 86.4 114.1 L 89.0 117.0 L 90.0 121.5 L 87.6 125.4 L 83.1 126.4 L 79.2 124.0 L 77.5 121.1 Z M 74.5 41.5 L 73.6 39.3 L 73.03259706497192 38.10845394134522 L 71.2 38.8 L 65.8 40.5 L 60.5 41.9 L 55.2 43.2 L 49.9 44.4 L 44.7 45.5 L 34.3 47.3 L 29.2 48.1 L 28.32195119857788 48.24048776626587 L 27.50895881652832 49.70387411117554 L 38.6 54.5 L 41.0 57.2 L 36.808860778808594 58.397468376159665 L 36.3 59.5 L 35.0 62.0 L 33.5 64.5 L 32.0 67.1 L 28.6 72.3 L 27.222568130493165 74.15953311920165 L 29.2 73.8 L 32.5 73.0 L 35.9 72.3 L 39.4 71.6 L 42.9192307472229 71.0134614944458 L 42.8 70.0 L 42.6 68.2 L 42.3 66.3 L 41.9 64.4 L 40.9 60.2 L 39.8 58.3 L 41.3 57.3 L 42.7 59.0 L 44.5 60.5 L 46.1 62.0 L 47.6 63.5 L 49.0 65.1 L 50.4 66.8 L 51.6 68.4 L 52.7 70.1 L 54.7 73.7 L 53.9 78.2 L 50.2 80.9 L 45.7 80.1 L 43.0 76.4 L 43.1 74.9 L 43.1 74.20967741012574 L 40.9 75.7 L 34.9 79.3 L 31.9 81.0 L 28.9 82.6 L 23.3 85.6 L 21.762295055389405 86.36885242462158 L 20.7 90.5 L 17.8 88.3 L 12.0 77.6 L 13.9 76.9 L 16.8 76.4 L 19.8 75.8 L 22.46739845275879 75.17760705947876 L 22.9 73.2 L 23.7 70.1 L 24.3 67.1 L 25.0 64.3 L 25.5 61.5 L 26.0 58.8 L 26.5 56.2 L 26.8 53.8 L 26.92308759689331 52.32294855117798 L 26.8 52.3 L 26.98103446960449 51.62758617401123 L 27.0 51.4 L 27.039468002319335 51.41054744720459 L 27.489552211761474 49.73880596160889 L 26.4 51.7 L 24.2 48.9 L 21.3 37.0 L 23.2 36.9 L 28.2 36.8 L 33.3 36.6 L 36.306770133972165 36.541043758392334 L 36.5 36.0 L 38.7 30.6 L 39.7 27.9 L 40.8 25.3 L 42.8 20.1 L 43.7 17.6 L 44.276852989196776 15.933535861968995 L 44.2 15.9 L 44.45842695236206 15.408988761901856 L 44.6 15.0 L 44.65743036270142 15.030882358551025 L 45.2 14.0 L 55.2 20.7 L 56.9 23.8 L 52.66628475189209 24.018985271453857 L 51.7 25.2 L 49.9 27.5 L 46.1 31.9 L 44.1 34.1 L 41.90625 36.29375 L 43.5 36.2 L 48.8 36.0 L 54.1 35.7 L 59.5 35.4 L 64.9 35.2 L 70.5 35.0 L 71.36510019302368 35.015177154541014 L 71.3 34.9 L 69.9 32.6 L 68.2 30.3 L 66.4 27.9 L 64.4 25.4 L 62.0 23.3 L 63.0 21.8 L 65.9 23.4 L 68.9 24.8 L 71.7 26.4 L 74.4 28.1 L 76.9 29.9 L 79.2 31.8 L 81.3 33.9 L 83.3 36.1 L 85.1 38.4 L 86.7 40.8 L 86.7 45.4 L 83.6 48.7 L 79.0 48.7 L 75.7 45.6 L 75.2 43.5 Z M 83.5 76.3 L 82.99512195587158 74.44878044128419 L 81.6 75.2 L 78.9 76.4 L 76.3 77.6 L 73.6 78.8 L 70.8 80.0 L 68.1 81.1 L 65.3 82.2 L 63.87557687759399 82.83307695388794 L 62.5 86.9 L 59.8 84.5 L 54.8 73.4 L 56.8 72.9 L 59.8 72.5 L 62.06086959838867 72.27391300201415 L 62.3 70.6 L 62.9 67.3 L 63.5 64.2 L 64.1 61.2 L 64.6 58.3 L 65.0 55.6 L 65.4 53.0 L 65.7 50.5 L 65.86518306732178 49.23359651565552 L 65.7 49.2 L 66.4 46.6 L 77.5 51.6 L 79.8 54.3 L 75.54440431594848 55.439891719818114 L 75.2 56.1 L 74.0 58.6 L 72.6 61.1 L 71.2 63.7 L 69.6 66.4 L 68.0 69.3 L 66.3522388458252 71.86318407058715 L 74.8 71.3 L 77.7 71.2 L 80.7 71.2 L 82.00014638900757 71.24333820343017 L 81.5 69.6 L 80.6 67.3 L 79.7 64.8 L 78.7 62.3 L 77.7 59.7 L 76.3 57.3 L 77.7 56.2 L 79.6 58.2 L 81.9 60.0 L 84.0 61.9 L 86.0 63.8 L 89.6 67.8 L 91.2 69.8 L 92.7 71.8 L 94.2 73.9 L 95.5 75.9 L 95.4 80.5 L 92.2 83.7 L 87.6 83.6 L 84.4 80.4 L 84.0 78.4 Z " />
</g>
</svg>
