<svg xmlns="http://www.w3.org/2000/svg" xmlns:xlink="http://www.w3.org/1999/xlink" version="1.1" baseProfile="full" viewBox="0 0 200 200" width="200" height="200">
<g fill="black">
<path d="M 162.8 55.8 L 163.1 59.4 L 159.42384614944459 57.97038459777832 L 158.6 58.5 L 154.1 61.2 L 149.2 63.8 L 144.0 66.3 L 138.4 68.7 L 132.5 71.1 L 128.0987385749817 72.73272600173951 L 138.0 77.5 L 140.3 80.4 L 135.92647552490234 81.39747047424316 L 134.0 84.7 L 131.0 89.5 L 129.3 91.8 L 127.6 94.2 L 125.7 96.5 L 123.7 98.7 L 167.7 98.7 L 173.7 93.7 L 184.7 102.7 L 179.7 106.7 L 179.7 180.2 L 167.7 186.2 L 167.7 176.2 L 96.2 176.2 L 96.2 183.2 L 84.2 189.2 L 84.2 92.7 L 96.2 98.7 L 121.0285714149475 98.7 L 121.5 97.5 L 122.1 94.6 L 122.8 91.8 L 123.5 89.1 L 124.1 86.4 L 125.3 81.2 L 126.3 76.2 L 126.5404109954834 74.75753421783448 L 126.3 74.7 L 126.8662763595581 73.18992977142334 L 126.3 73.4 L 119.7 75.5 L 112.7 77.5 L 105.3 79.2 L 104.6 77.5 L 111.3 74.0 L 117.6 70.6 L 123.6 67.4 L 129.3 64.2 L 134.6 61.2 L 139.5 58.1 L 144.1 55.1 L 148.3 52.2 L 152.1 49.2 L 154.74219532012938 46.946362781524655 L 154.7 46.9 L 155.5 46.3 Z M 14.1 162.9 L 20.0 161.9 L 26.0 160.9 L 32.2 159.8 L 36.2 159.0380952835083 L 36.2 127.4 L 17.5 127.4 L 17.5 123.4 L 36.2 123.4 L 36.2 94.3 L 14.4 94.3 L 14.4 90.3 L 55.2 90.3 L 65.2 80.3 L 77.2 90.3 L 77.2 94.3 L 48.2 94.3 L 48.2 123.4 L 52.1 123.4 L 62.1 113.4 L 74.1 123.4 L 74.1 127.4 L 48.2 127.4 L 48.2 156.92686567306518 L 51.7 156.3 L 58.5 155.1 L 65.5 153.9 L 72.7 152.8 L 80.1 151.8 L 80.5 153.6 L 73.6 156.4 L 66.8 159.1 L 60.1 161.4 L 53.5 163.6 L 47.0 165.7 L 40.7 167.7 L 34.5 169.5 L 28.4 171.3 L 22.4 173.0 L 20.59815559387207 173.49706048965453 L 19.2 177.1 L 16.6 174.6 L 12.1 163.3 Z M 96.2 138.5 L 96.2 172.2 L 167.7 172.2 L 167.7 138.5 Z M 96.2 102.7 L 96.2 134.5 L 167.7 134.5 L 167.7 102.7 Z M 98.0 23.1 L 93.0 27.1 L 93.0 76.9 L 81.0 82.9 L 81.0 23.1 L 68.73052635192872 23.1 L 75.8 32.3 L 76.1 35.9 L 72.38653297424317 34.45587396621704 L 72.0 34.7 L 67.8 37.1 L 63.3 39.4 L 58.5 41.6 L 53.4 43.8 L 47.9 45.8 L 42.0 47.8 L 35.8 49.7 L 29.2 51.4 L 22.2 52.8 L 21.7 51.1 L 27.9 47.8 L 33.9 44.7 L 39.5 41.8 L 44.7 38.9 L 49.6 36.1 L 54.2 33.4 L 58.3 30.7 L 62.1 28.0 L 65.5 25.4 L 67.747487449646 23.45217752456665 L 67.7 23.4 L 68.1 23.1 L 21.0 23.1 L 21.0 19.1 L 81.0 19.1 L 87.0 14.1 Z M 182.0 23.1 L 177.0 27.1 L 177.0 76.9 L 165.0 82.9 L 165.0 23.1 L 153.89278354644776 23.1 L 160.7 32.4 L 160.9 36.0 L 157.27400722503663 34.45559568405152 L 156.7 34.8 L 152.4 37.1 L 147.9 39.4 L 143.0 41.6 L 137.9 43.8 L 132.4 45.8 L 126.6 47.8 L 120.5 49.7 L 114.1 51.3 L 107.3 52.8 L 106.6 51.1 L 112.7 47.8 L 118.5 44.7 L 124.0 41.8 L 129.3 38.9 L 134.1 36.1 L 138.7 33.4 L 142.9 30.7 L 146.8 28.0 L 150.4 25.3 L 152.82545309066774 23.329319381713866 L 152.8 23.3 L 153.0666666984558 23.1 L 105.0 23.1 L 105.0 19.1 L 165.0 19.1 L 171.0 14.1 Z M 79.8 55.8 L 80.1 59.4 L 76.4470588684082 57.97941179275513 L 75.8 58.4 L 71.3 61.0 L 66.5 63.5 L 61.3 66.0 L 55.6 68.4 L 49.6 70.8 L 43.2 73.1 L 36.3 75.3 L 29.0 77.4 L 21.3 79.2 L 20.6 77.5 L 27.7 73.8 L 34.3 70.3 L 40.6 67.1 L 46.4 63.9 L 51.9 60.8 L 56.9 57.8 L 61.5 54.8 L 65.6 51.9 L 69.3 49.1 L 71.75066461563111 46.955668449401855 L 71.7 46.9 L 72.5 46.3 Z " />
</g>
</svg>
