<svg xmlns="http://www.w3.org/2000/svg" xmlns:xlink="http://www.w3.org/1999/xlink" version="1.1" baseProfile="full" viewBox="0 0 200 200" width="200" height="200">
<g fill="black">
<path d="M 32.4 22.0 L 55.9 22.0 L 61.9 17.0 L 72.9 26.0 L 67.9 30.0 L 67.9 171.0 L 67.7 173.5 L 67.3 176.0 L 66.5 178.4 L 65.3 180.7 L 63.6 182.7 L 61.6 184.3 L 59.3 185.6 L 56.9 186.4 L 54.4 186.8 L 51.9 187.0 L 51.9 181.0 L 35.9 178.0 L 35.9 175.0 L 51.9 175.0 L 53.1 174.9 L 54.0 174.7 L 54.6 174.5 L 55.0 174.4 L 55.1 174.2 L 55.3 174.0 L 55.5 173.7 L 55.7 173.1 L 55.8 172.2 L 55.9 171.0 L 55.9 114.0 L 32.4 114.0 L 32.4 118.0 L 31.9 128.7 L 31.2 138.7 L 30.1 147.8 L 28.7 156.2 L 27.0 163.8 L 24.9 170.6 L 22.5 176.5 L 19.7 181.5 L 16.5 185.6 L 12.8 188.6 L 11.5 187.3 L 13.3 183.5 L 14.9 179.2 L 16.3 174.2 L 17.6 168.5 L 18.7 162.1 L 19.5 154.9 L 20.1 146.9 L 20.5 138.0 L 20.5 128.4 L 20.4 118.0 L 20.4 16.0 Z M 104.9 150.2 L 102.6 145.8 L 101.9333333015442 144.63333330154418 L 99.0 152.7 L 94.0 163.4 L 88.3 172.7 L 82.1 180.5 L 75.2 186.6 L 73.9 185.3 L 79.1 178.1 L 83.7 169.9 L 88.0 160.6 L 91.9 150.1 L 95.3 138.3 L 95.9840591430664 135.2099395751953 L 94.9 133.7 L 91.9 130.0 L 88.8 126.4 L 85.85992784500122 123.09241876602172 L 85.6 124.6 L 83.5 136.1 L 71.7 133.8 L 73.8 122.4 L 75.8 111.0 L 77.8 99.4 L 79.6 87.8 L 81.4 76.1 L 83.1 64.3 L 83.40924367904663 62.0 L 73.4 62.0 L 73.4 58.0 L 83.9470588684082 58.0 L 84.7 52.4 L 86.2 40.5 L 87.6 28.4 L 88.9 16.3 L 88.92863206863403 16.303101825714112 L 89.2 14.2 L 100.9 17.6 L 103.6 19.9 L 100.47030630111695 21.344474029541015 L 99.5 29.8 L 98.1 41.9 L 96.6 54.0 L 96.06218490600585 58.0 L 105.2 58.0 L 111.2 53.0 L 122.2 62.0 L 117.2 65.0 L 116.78299446105957 65.17375230789185 L 115.6 79.0 L 113.4 96.4 L 110.6 112.5 L 107.3 127.2 L 105.44285717010499 133.58095235824584 L 107.8 136.2 L 111.1 140.4 L 114.2 144.9 L 117.1 149.8 L 119.8 154.8 L 119.8 159.4 L 116.6 162.7 L 112.1 162.7 L 108.8 159.6 L 106.9 154.8 Z M 109.5 177.0 L 143.2 177.0 L 143.2 135.0 L 121.6 135.0 L 121.6 131.0 L 143.2 131.0 L 143.2 98.0 L 155.2 100.0 L 158.2 102.0 L 155.2 103.8 L 155.2 131.0 L 158.1 131.0 L 168.1 121.0 L 180.1 131.0 L 180.1 135.0 L 155.2 135.0 L 155.2 177.0 L 164.8 177.0 L 174.8 167.0 L 186.8 177.0 L 186.8 181.0 L 109.5 181.0 Z M 95.52436971664429 62.0 L 95.0 65.9 L 93.3 77.8 L 91.5 89.6 L 89.6 101.4 L 86.5257493019104 119.23065395355225 L 87.8 119.8 L 92.3 122.3 L 96.5 125.3 L 97.91875104904175 126.4704695701599 L 98.2 125.2 L 100.7 110.8 L 102.7 95.0 L 104.2 78.0 L 105.15652170181275 62.0 Z M 32.4 69.0 L 32.4 110.0 L 55.9 110.0 L 55.9 69.0 Z M 171.7 85.7 L 170.8 81.5 L 170.31063833236695 79.44468088150025 L 168.2 80.5 L 162.8 83.0 L 157.5 85.3 L 152.2 87.4 L 142.0 91.4 L 132.2 95.0 L 127.5 96.8 L 126.79744863510132 97.04436569213867 L 125.6 100.8 L 122.9 98.4 L 117.6 87.5 L 119.5 86.9 L 124.3 85.8 L 129.2 84.7 L 129.23241491317748 84.69286870956421 L 129.6 83.1 L 131.1 76.8 L 132.7 70.7 L 134.3 64.7 L 135.9 58.8 L 137.4 53.1 L 138.8 47.5 L 140.2 42.0 L 141.5 36.6 L 141.8555555343628 35.0 L 120.2 35.0 L 120.2 31.0 L 162.8 31.0 L 172.8 21.0 L 184.8 31.0 L 184.8 35.0 L 154.15384616851807 35.0 L 152.4 39.8 L 150.5 45.1 L 148.4 50.5 L 146.2 56.0 L 143.9 61.6 L 141.5 67.2 L 138.9 72.9 L 136.1 78.7 L 133.48404664993285 83.75750970840454 L 134.2 83.6 L 139.4 82.5 L 144.6 81.3 L 150.0 80.2 L 155.6 79.0 L 161.2 77.9 L 167.1 76.9 L 169.57913560867308 76.56944856643676 L 168.5 73.0 L 167.2 68.8 L 164.0 60.2 L 162.3 55.8 L 160.4 51.3 L 161.9 50.3 L 165.3 53.9 L 168.4 57.7 L 171.2 61.6 L 173.8 65.7 L 176.2 69.8 L 178.3 74.1 L 180.3 78.4 L 182.0 82.8 L 183.5 87.3 L 184.8 91.9 L 183.8 96.4 L 180.0 98.9 L 175.5 97.9 L 173.0 94.1 L 172.4 89.9 Z M 32.4 26.0 L 32.4 65.0 L 55.9 65.0 L 55.9 26.0 Z " />
</g>
</svg>
