<svg xmlns="http://www.w3.org/2000/svg" xmlns:xlink="http://www.w3.org/1999/xlink" version="1.1" baseProfile="full" viewBox="0 0 200 200" width="200" height="200">
<g fill="black">
<path d="M 32.2 22.0 L 54.5 22.0 L 60.0 17.0 L 70.5 26.0 L 65.5 29.5 L 65.5 171.0 L 65.4 173.4 L 65.0 175.7 L 64.3 178.0 L 63.3 180.1 L 61.9 182.1 L 60.2 183.7 L 58.1 185.0 L 55.9 185.8 L 53.6 186.3 L 51.2 186.5 L 51.2 181.0 L 35.8 178.2 L 35.8 175.5 L 51.2 175.5 L 52.2 175.4 L 52.9 175.3 L 53.5 175.0 L 53.6 174.8 L 53.8 174.6 L 54.0 174.1 L 54.3 173.4 L 54.4 172.3 L 54.5 171.0 L 54.5 114.0 L 32.2 114.0 L 32.2 118.0 L 31.8 128.7 L 31.0 138.7 L 30.0 147.8 L 28.7 156.2 L 27.0 163.8 L 25.0 170.5 L 22.7 176.4 L 20.0 181.5 L 16.9 185.6 L 13.4 188.6 L 12.1 187.3 L 13.7 183.5 L 15.2 179.2 L 16.5 174.3 L 17.7 168.6 L 18.7 162.1 L 19.5 154.9 L 20.0 146.9 L 20.3 138.0 L 20.4 128.4 L 20.2 118.0 L 20.2 16.0 Z M 85.7 46.0 L 134.981672000885 46.0 L 133.1 15.2 L 133.1374026298523 15.19844160079956 L 133.0 13.0 L 145.1 14.7 L 148.2 16.5 L 145.32910604476928 18.413929271698 L 147.0 45.5 L 147.04181814193726 46.0 L 157.0 46.0 L 167.0 36.0 L 179.0 46.0 L 179.0 50.0 L 147.37636365890503 50.0 L 149.3 73.0 L 152.2 97.3 L 155.5 118.2 L 156.43513250350952 122.39610729217529 L 157.5 117.9 L 159.8 105.8 L 161.6 93.0 L 162.80509748458863 80.30012636184692 L 162.8 80.3 L 162.8193103790283 80.15034484863281 L 162.9 79.3 L 162.92863206863404 79.30310182571411 L 163.2 77.2 L 174.9 80.6 L 177.7 82.8 L 174.36069364547728 84.37514448165894 L 172.9 94.6 L 170.3 107.8 L 167.3 120.3 L 163.7 132.0 L 160.71820316314697 140.1253963470459 L 163.6 149.8 L 168.3 160.5 L 173.0 167.5 L 175.74193544387816 169.78494625091554 L 181.0 147.0 L 183.0 147.0 L 181.07446804046631 172.0319149017334 L 185.2 173.8 L 187.0 178.0 L 185.2 182.2 L 181.0 184.0 L 171.7 181.6 L 164.0 175.4 L 157.7 166.1 L 153.36051626205443 156.11099977493285 L 149.9 162.3 L 144.2 170.7 L 137.9 178.1 L 131.1 184.6 L 129.8 183.3 L 135.0 175.8 L 139.7 167.8 L 144.1 159.2 L 148.1 149.9 L 149.7554666519165 145.3474666595459 L 147.7 138.7 L 143.7 120.4 L 140.3 98.9 L 137.4 74.2 L 135.31827955245973 50.0 L 85.7 50.0 L 85.7 105.0 L 85.4 116.3 L 84.7 127.0 L 83.8 137.1 L 82.7 146.5 L 81.2 155.2 L 79.5 163.2 L 77.4 170.6 L 75.1 177.2 L 72.3 183.2 L 69.2 188.3 L 68.0 187.6 L 69.7 182.1 L 71.2 176.0 L 72.6 169.4 L 73.9 162.1 L 74.9 154.2 L 75.7 145.7 L 76.3 136.5 L 76.7 126.6 L 76.8 116.1 L 76.7 105.0 L 76.7 41.5 Z M 98.7 175.1 L 90.7 179.1 L 90.7 67.5 L 98.7 71.5 L 117.11818180084228 71.5 L 125.3 62.5 L 135.3 71.5 L 135.3 75.5 L 118.7 75.5 L 118.7 98.6 L 122.9 98.6 L 128.9 93.6 L 139.9 102.6 L 134.9 106.6 L 134.9 137.4 L 122.9 143.4 L 122.9 133.4 L 118.7 133.4 L 118.7 159.1 L 122.4777777671814 159.1 L 128.7 152.1 L 136.7 159.1 L 136.7 163.1 L 98.7 163.1 Z M 98.7 133.4 L 98.7 159.1 L 107.7 159.1 L 107.7 133.4 Z M 98.7 129.4 L 122.9 129.4 L 122.9 102.6 L 98.7 102.6 Z M 32.2 69.0 L 32.2 110.0 L 54.5 110.0 L 54.5 69.0 Z M 98.7 75.5 L 98.7 98.6 L 107.7 98.6 L 107.7 75.5 Z M 32.2 26.0 L 32.2 65.0 L 54.5 65.0 L 54.5 26.0 Z M 156.8 29.5 L 156.5 28.2 L 155.9 26.7 L 155.2 25.1 L 154.3 23.5 L 153.2 21.7 L 152.0 19.9 L 150.6 17.9 L 148.7 16.3 L 149.7 14.8 L 151.9 16.1 L 154.2 17.0 L 156.4 18.0 L 158.4 19.1 L 160.3 20.2 L 162.1 21.3 L 163.8 22.5 L 165.3 23.8 L 166.7 25.2 L 168.0 26.8 L 168.0 31.3 L 164.9 34.7 L 160.3 34.7 L 157.0 31.6 L 157.0 30.6 Z " />
</g>
</svg>
