<svg xmlns="http://www.w3.org/2000/svg" xmlns:xlink="http://www.w3.org/1999/xlink" version="1.1" baseProfile="full" viewBox="0 0 200 200" width="200" height="200">
<g fill="black">
<path d="M 31.7 22.0 L 54.2 22.0 L 60.2 17.0 L 71.2 26.0 L 66.2 30.0 L 66.2 119.98249998092652 L 69.3 115.1 L 73.1 108.7 L 76.9 102.4 L 80.6 95.9 L 84.2 89.3 L 87.6 82.5 L 90.8 75.5 L 93.9 68.4 L 96.8 61.1 L 99.25331926345825 54.61622762680054 L 99.2 54.6 L 100.1 52.3 L 110.7 58.1 L 112.8 61.1 L 109.10112142562866 61.673963928222655 L 107.3 65.7 L 103.6 73.0 L 99.8 80.1 L 95.7 87.0 L 91.5 93.6 L 89.77972030639648 96.04662008285523 L 95.5 97.0 L 98.5 99.0 L 95.5 100.8 L 95.5 182.0 L 83.5 188.0 L 83.5 104.54255323410034 L 82.3 106.1 L 77.4 111.9 L 72.2 117.4 L 66.7 122.5 L 66.2 122.10714282989503 L 66.2 171.0 L 66.1 173.5 L 65.6 176.0 L 64.8 178.4 L 63.6 180.7 L 62.0 182.7 L 59.9 184.3 L 57.7 185.6 L 55.3 186.4 L 52.8 186.8 L 50.2 187.0 L 50.2 181.0 L 34.2 178.0 L 34.2 175.0 L 50.2 175.0 L 51.5 174.9 L 52.4 174.7 L 53.3 174.4 L 53.5 174.2 L 53.6 174.0 L 53.8 173.7 L 54.0 173.1 L 54.2 172.2 L 54.2 114.0 L 31.7 114.0 L 31.7 118.0 L 31.3 128.7 L 30.5 138.7 L 29.5 147.8 L 28.1 156.2 L 26.4 163.8 L 24.4 170.5 L 22.1 176.5 L 19.3 181.5 L 16.1 185.6 L 12.6 188.6 L 11.3 187.3 L 13.0 183.5 L 14.5 179.2 L 15.9 174.2 L 17.1 168.6 L 18.1 162.1 L 18.9 154.9 L 19.5 146.9 L 19.8 138.0 L 19.9 128.4 L 19.7 118.0 L 19.7 16.0 Z M 156.6 182.5 L 147.8 179.2 L 140.3 174.8 L 134.2 169.5 L 129.3 163.3 L 125.7 156.5 L 123.1 149.1 L 122.76610937118531 147.47228298187255 L 122.6 148.2 L 120.1 156.8 L 117.2 164.7 L 114.0 171.9 L 110.3 178.3 L 106.2 183.8 L 101.6 188.5 L 100.2 187.4 L 103.0 181.8 L 105.5 175.8 L 107.9 169.3 L 110.0 162.3 L 111.9 154.6 L 113.5 146.3 L 114.8 137.4 L 115.7 127.8 L 116.4 117.6 L 116.8 106.7 L 116.83026485443115 106.70126104354858 L 116.9 104.4 L 128.8 107.2 L 131.7 109.4 L 128.45319499969483 111.11889677047729 L 127.8 118.5 L 126.4 129.1 L 124.80046014785766 138.41496734619142 L 125.5 140.2 L 128.6 147.0 L 132.1 153.1 L 136.0 158.3 L 138.8 160.9782608985901 L 138.8 88.0 L 106.4 88.0 L 106.4 84.0 L 138.8 84.0 L 138.8 48.0 L 112.6 48.0 L 112.6 44.0 L 138.8 44.0 L 138.8 13.0 L 150.8 15.0 L 153.8 17.0 L 150.8 18.8 L 150.8 44.0 L 156.5 44.0 L 166.5 34.0 L 178.5 44.0 L 178.5 48.0 L 150.8 48.0 L 150.8 84.0 L 163.3 84.0 L 173.3 74.0 L 185.3 84.0 L 185.3 88.0 L 144.8 88.0 L 150.8 89.0 L 153.8 91.0 L 150.8 92.8 L 150.8 124.0 L 163.5777777671814 124.0 L 169.8 117.0 L 177.8 124.0 L 177.8 128.0 L 150.8 128.0 L 150.8 168.41290321350098 L 152.1 169.0 L 159.5 171.0 L 168.2 172.2 L 178.5 172.4 L 190.3 172.4 L 178.5 185.6 L 166.8 184.6 Z M 31.7 69.0 L 31.7 110.0 L 54.2 110.0 L 54.2 69.0 Z M 105.7 20.2 L 107.7 23.2 L 104.02311248779297 23.716054344177245 L 102.6 26.7 L 99.3 33.0 L 96.0 39.1 L 92.5 44.9 L 88.9 50.6 L 85.1 55.9 L 81.2 61.1 L 77.1 65.9 L 72.8 70.4 L 68.2 74.5 L 66.8 73.4 L 69.8 68.1 L 72.7 62.8 L 75.7 57.4 L 78.7 51.9 L 81.5 46.3 L 84.3 40.5 L 87.0 34.5 L 89.6 28.4 L 92.2 22.1 L 94.26050462722779 16.51946668624878 L 94.2 16.5 L 95.1 14.3 Z M 31.7 26.0 L 31.7 65.0 L 54.2 65.0 L 54.2 26.0 Z " />
</g>
</svg>
