<svg xmlns="http://www.w3.org/2000/svg" xmlns:xlink="http://www.w3.org/1999/xlink" version="1.1" baseProfile="full" viewBox="0 0 200 200" width="200" height="200">
<g fill="black">
<path d="M 30.2 22.0 L 49.0 22.0 L 55.0 17.0 L 66.0 26.0 L 61.0 30.0 L 61.0 171.0 L 60.9 173.5 L 60.4 176.0 L 59.6 178.4 L 58.4 180.7 L 56.7 182.7 L 54.7 184.3 L 52.5 185.6 L 50.1 186.4 L 47.6 186.8 L 45.0 187.0 L 45.0 181.0 L 31.0 178.0 L 31.0 175.0 L 45.0 175.0 L 46.2 174.9 L 47.1 174.7 L 47.7 174.5 L 48.1 174.4 L 48.3 174.2 L 48.4 174.0 L 48.6 173.7 L 48.8 173.1 L 48.9 172.2 L 49.0 171.0 L 49.0 114.0 L 30.2 114.0 L 30.2 118.0 L 29.8 128.7 L 29.1 138.6 L 28.1 147.8 L 26.9 156.1 L 25.3 163.7 L 23.5 170.4 L 21.3 176.3 L 18.8 181.4 L 15.9 185.5 L 12.6 188.5 L 11.2 187.4 L 12.6 183.6 L 13.9 179.3 L 15.1 174.4 L 16.1 168.7 L 17.0 162.2 L 17.7 155.0 L 18.1 146.9 L 18.4 138.1 L 18.4 128.4 L 18.2 118.0 L 18.2 16.0 Z M 100.4 150.4 L 98.0 146.0 L 96.7728193283081 144.0456011772156 L 93.3 152.8 L 87.9 163.5 L 81.9 172.8 L 75.2 180.5 L 67.9 186.6 L 66.7 185.3 L 72.3 178.1 L 77.4 169.8 L 82.1 160.5 L 86.3 150.0 L 90.0 138.2 L 90.69524917602538 135.35382385253905 L 89.5 133.8 L 86.3 130.1 L 82.8 126.4 L 79.2 122.8 L 79.08210067749023 122.68528718948365 L 78.7 124.7 L 76.4 136.2 L 64.7 133.7 L 66.9 122.4 L 69.1 110.9 L 71.2 99.3 L 73.2 87.7 L 75.1 76.0 L 76.9 64.2 L 77.21694917678833 62.0 L 66.0 62.0 L 66.0 58.0 L 77.79322032928467 58.0 L 78.6 52.4 L 80.3 40.4 L 81.8 28.4 L 83.17580003738404 17.30187931060791 L 83.1 17.3 L 83.5 14.2 L 95.2 17.6 L 97.9 20.0 L 94.72833280563354 21.436226654052735 L 92.2 42.0 L 89.9333333015442 58.0 L 100.8 58.0 L 106.8 53.0 L 117.8 62.0 L 112.8 65.0 L 112.32869081497192 65.19637880325317 L 111.0 79.0 L 108.7 96.4 L 105.7 112.5 L 102.2 127.3 L 100.29369306564331 133.53036918640137 L 102.7 136.0 L 106.2 140.3 L 109.6 144.8 L 112.7 149.6 L 115.5 154.7 L 115.7 159.3 L 112.6 162.7 L 108.0 162.8 L 104.6 159.7 L 102.6 155.0 Z M 104.9 177.0 L 141.6 177.0 L 141.6 135.0 L 117.9 135.0 L 117.9 131.0 L 141.6 131.0 L 141.6 98.0 L 153.6 100.0 L 156.6 102.0 L 153.6 103.8 L 153.6 131.0 L 159.0 131.0 L 169.0 121.0 L 181.0 131.0 L 181.0 135.0 L 153.6 135.0 L 153.6 177.0 L 166.2 177.0 L 176.2 167.0 L 188.2 177.0 L 188.2 181.0 L 104.9 181.0 Z M 89.36666669845582 62.0 L 88.8 66.0 L 87.0 77.9 L 85.0 89.7 L 83.0 101.4 L 80.9 113.1 L 79.77179489135742 119.04871797561646 L 81.4 119.7 L 86.1 122.2 L 90.6 125.2 L 92.7689640045166 126.86455373764038 L 93.2 125.1 L 95.9 110.7 L 98.0 95.0 L 99.7 77.9 L 100.65573768615722 62.0 Z M 30.2 69.0 L 30.2 110.0 L 49.0 110.0 L 49.0 69.0 Z M 172.3 85.8 L 171.4 81.6 L 170.7543709754944 79.34029846191406 L 168.1 80.6 L 162.2 83.0 L 156.5 85.3 L 150.8 87.4 L 145.2 89.5 L 139.7 91.4 L 134.4 93.3 L 129.1 95.1 L 124.0 96.8 L 122.9473684310913 97.15789470672607 L 121.7 100.9 L 119.0 98.5 L 114.0 87.4 L 115.9 86.9 L 121.0 85.8 L 126.3 84.7 L 126.30647869110108 84.69868030548096 L 126.7 83.1 L 128.4 76.8 L 130.2 70.6 L 132.0 64.6 L 133.7 58.7 L 135.3 53.0 L 136.9 47.4 L 138.4 41.9 L 139.8 36.5 L 140.18571424484253 35.0 L 116.5 35.0 L 116.5 31.0 L 164.0 31.0 L 174.0 21.0 L 186.0 31.0 L 186.0 35.0 L 152.49038457870483 35.0 L 150.7 39.9 L 148.6 45.2 L 146.4 50.6 L 144.1 56.1 L 141.7 61.7 L 139.1 67.3 L 136.3 73.0 L 133.4 78.7 L 130.56949644088746 83.83028774261474 L 131.7 83.6 L 137.3 82.5 L 142.9 81.3 L 148.7 80.1 L 154.7 79.0 L 160.8 77.9 L 167.0 76.9 L 169.92019262313843 76.54059171676636 L 168.8 73.1 L 167.3 68.9 L 165.6 64.6 L 163.8 60.2 L 161.9 55.8 L 159.8 51.3 L 161.3 50.2 L 164.8 53.8 L 168.2 57.6 L 171.2 61.5 L 173.9 65.5 L 176.4 69.7 L 178.7 74.0 L 180.7 78.3 L 182.6 82.7 L 184.1 87.2 L 185.5 91.8 L 184.6 96.3 L 180.8 98.9 L 176.4 98.0 L 173.8 94.2 L 173.1 90.0 Z M 30.2 26.0 L 30.2 65.0 L 49.0 65.0 L 49.0 26.0 Z " />
</g>
</svg>
