<svg xmlns="http://www.w3.org/2000/svg" xmlns:xlink="http://www.w3.org/1999/xlink" version="1.1" baseProfile="full" viewBox="0 0 200 200" width="200" height="200">
<g fill="black">
<path d="M 104.3 177.0 L 124.3 177.0 L 125.5 176.9 L 126.4 176.7 L 127.3 176.4 L 127.7 176.0 L 127.9 175.7 L 128.1 175.1 L 128.2 174.2 L 128.3 173.0 L 128.3 120.0 L 91.1 120.0 L 91.1 122.0 L 59.4 122.0 L 59.4 157.2285714149475 L 66.6 155.6 L 75.3 153.7 L 84.3 151.9 L 93.6 150.1 L 94.1 151.8 L 85.4 155.5 L 76.8 158.9 L 68.4 161.9 L 60.3 164.8 L 52.5 167.5 L 44.9 170.0 L 37.5 172.3 L 30.5 174.6 L 23.7 176.6 L 21.147495651245116 177.33481187820433 L 19.8 181.0 L 17.1 178.5 L 12.4 167.4 L 14.3 166.9 L 20.9 165.6 L 27.8 164.2 L 35.0 162.6 L 42.4 161.0 L 47.4 159.91025638580322 L 47.4 122.0 L 15.7 122.0 L 15.7 118.0 L 47.4 118.0 L 47.4 91.0 L 59.4 93.0 L 62.4 95.0 L 59.4 96.8 L 59.4 118.0 L 72.91818180084229 118.0 L 81.1 109.0 L 88.8777777671814 116.0 L 128.3 116.0 L 128.3 87.0 L 103.8 87.0 L 103.8 83.0 L 141.9 83.0 L 151.9 73.0 L 163.9 83.0 L 163.9 87.0 L 140.3 87.0 L 140.3 116.0 L 166.01818180084229 116.0 L 174.2 107.0 L 184.2 116.0 L 184.2 120.0 L 140.3 120.0 L 140.3 173.0 L 140.1 175.5 L 139.7 178.0 L 138.9 180.4 L 137.7 182.7 L 136.0 184.7 L 134.0 186.3 L 131.7 187.6 L 129.3 188.4 L 126.8 188.8 L 124.3 189.0 L 124.3 183.0 L 104.3 180.0 Z M 114.3 139.4 L 116.1 142.5 L 112.35510206222534 142.88740320205687 L 111.4 144.6 L 108.3 149.6 L 105.1 154.5 L 101.8 159.2 L 98.4 163.8 L 94.8 168.2 L 91.0 172.4 L 87.1 176.4 L 82.9 180.1 L 78.5 183.6 L 77.2 182.3 L 80.1 177.6 L 82.9 173.0 L 85.8 168.4 L 88.6 163.8 L 91.3 159.1 L 94.0 154.3 L 96.5 149.4 L 98.9 144.5 L 103.08060636520386 135.22995986938477 L 103.0 135.2 L 104.0 133.1 Z M 170.9 167.4 L 169.2 163.2 L 167.2 159.1 L 165.0 155.1 L 162.6 151.1 L 160.0 147.2 L 157.2 143.2 L 154.2 139.3 L 151.1 135.3 L 152.3 133.9 L 156.7 136.6 L 161.0 139.6 L 164.9 142.9 L 168.5 146.4 L 171.9 150.2 L 175.0 154.2 L 177.9 158.4 L 180.6 162.8 L 183.0 167.4 L 185.2 172.1 L 184.9 176.7 L 181.5 179.8 L 177.0 179.5 L 173.9 176.1 L 172.5 171.7 Z M 168.5 79.8 L 163.5 74.5 L 158.5 68.7 L 153.7 62.4 L 148.9 55.4 L 144.2 47.8 L 139.6 39.6 L 135.51562147140504 31.241271877288817 L 132.2 38.4 L 127.5 47.4 L 122.5 55.8 L 117.1 63.6 L 111.4 70.7 L 105.3 77.3 L 98.9 83.2 L 92.0 88.3 L 84.9 92.7 L 83.8 91.2 L 84.38775510787964 90.61224489212036 L 82.0 90.4 L 79.0 86.9 L 78.2 83.7 L 77.2 80.5 L 75.9 77.1 L 75.56243658065796 76.28020305633545 L 72.4 77.5 L 65.5 80.0 L 58.9 82.1 L 52.4 84.0 L 46.2 85.8 L 40.2 87.5 L 34.5 89.0 L 28.9 90.3 L 23.6 91.6 L 22.581685924530028 91.81963634490967 L 20.9 95.4 L 18.5 92.7 L 14.7 81.2 L 16.7 80.9 L 21.7 80.4 L 27.0 79.8 L 31.1304518699646 79.2836935043335 L 31.5 78.0 L 33.5 71.8 L 35.4 65.8 L 37.2 60.0 L 38.8 54.5 L 40.4 49.1 L 41.7 43.9 L 42.9 38.9 L 43.9 34.1 L 44.11290321350098 33.0 L 13.8 33.0 L 13.8 29.0 L 71.0 29.0 L 81.0 19.0 L 93.0 29.0 L 93.0 33.0 L 56.29574470520019 33.0 L 54.9 37.1 L 53.2 42.0 L 51.3 47.0 L 49.1 52.2 L 46.8 57.4 L 44.2 62.8 L 41.4 68.3 L 38.4 73.9 L 35.540145015716554 78.69446277618408 L 38.4 78.3 L 44.5 77.5 L 50.8 76.6 L 57.4 75.7 L 64.3 74.7 L 71.5 73.9 L 74.44262657165527 73.58187818527222 L 72.8 70.2 L 70.8 66.6 L 68.6 62.9 L 66.2 59.2 L 63.7 55.2 L 60.8 51.3 L 62.1 50.0 L 66.1 53.0 L 69.9 56.0 L 73.3 59.1 L 76.5 62.3 L 79.5 65.6 L 82.2 69.0 L 84.6 72.5 L 86.8 76.0 L 88.7 79.6 L 90.4 83.3 L 90.2804123878479 84.64536085128785 L 95.1 79.3 L 100.4 72.9 L 105.4 66.1 L 110.1 58.8 L 114.5 51.1 L 118.6 42.8 L 122.4 34.0 L 126.0 24.8 L 128.9056640625 15.901403903961182 L 128.9 15.9 L 129.7 13.5 L 140.6 18.8 L 142.8 21.7 L 139.14690160751343 22.46907329559326 L 137.45687160491943 26.73639907836914 L 138.9 28.7 L 144.6 36.5 L 150.2 43.8 L 155.6 50.4 L 160.9 56.5 L 166.1 61.9 L 171.2 66.7 L 176.3 70.9 L 181.2 74.5 L 185.9 77.4 L 189.9 79.9 L 178.8 88.5 L 173.6 84.4 Z " />
</g>
</svg>
