<svg xmlns="http://www.w3.org/2000/svg" xmlns:xlink="http://www.w3.org/1999/xlink" version="1.1" baseProfile="full" viewBox="0 0 200 200" width="200" height="200">
<g fill="black">
<path d="M 32.1 22.0 L 55.1 22.0 L 61.1 17.0 L 72.1 26.0 L 67.1 30.0 L 67.1 171.0 L 66.9 173.5 L 66.5 176.0 L 65.7 178.4 L 64.4 180.7 L 62.8 182.7 L 60.8 184.3 L 58.5 185.6 L 56.1 186.4 L 53.6 186.8 L 51.1 187.0 L 51.1 181.0 L 35.1 178.0 L 35.1 175.0 L 51.1 175.0 L 52.3 174.9 L 53.2 174.7 L 54.1 174.4 L 54.5 174.0 L 54.8 173.1 L 55.0 172.2 L 55.1 171.0 L 55.1 114.0 L 32.1 114.0 L 32.1 118.0 L 31.6 128.7 L 30.8 138.7 L 29.8 147.8 L 28.4 156.2 L 26.7 163.8 L 24.7 170.5 L 22.3 176.5 L 19.5 181.5 L 16.3 185.6 L 12.7 188.6 L 11.4 187.3 L 13.1 183.5 L 14.7 179.2 L 16.1 174.2 L 17.3 168.6 L 18.4 162.1 L 19.2 154.9 L 19.8 146.9 L 20.1 138.0 L 20.2 128.4 L 20.1 118.0 L 20.1 16.0 Z M 94.3 139.2 L 160.6 139.2 L 166.6 134.2 L 177.6 143.2 L 172.6 147.2 L 172.6 179.5 L 160.6 185.5 L 160.6 175.5 L 94.3 175.5 L 94.3 182.5 L 82.3 188.5 L 82.3 133.2 Z M 94.3 143.2 L 94.3 171.5 L 160.6 171.5 L 160.6 143.2 Z M 89.1 131.9 L 89.1 73.88461542129517 L 89.0 74.0 L 84.8 78.4 L 80.3 82.7 L 75.3 86.8 L 70.0 90.7 L 68.8 89.5 L 72.6 84.2 L 76.3 79.1 L 79.7 74.1 L 83.0 69.3 L 85.9 64.6 L 88.6 59.9 L 89.1 58.94166669845581 L 89.1 56.3 L 90.19310340881347 56.846551704406735 L 91.0 55.3 L 93.1 50.7 L 95.0 46.2 L 96.5 41.8 L 96.5452220916748 41.81776580810547 L 97.1 40.4 L 107.7 46.2 L 109.7 49.1 L 105.87662973403931 49.770766735076904 L 105.3 50.9 L 102.7 55.7 L 99.7 60.3 L 99.01359996795654 61.25679998397827 L 101.1 62.3 L 127.67058820724488 62.3 L 127.8 62.1 L 128.4 60.0 L 129.1 57.9 L 129.8 55.9 L 130.6 53.8 L 131.4 51.8 L 133.8 45.5 L 134.2915409088135 44.29845561981201 L 134.1 44.2 L 135.2 42.5 L 144.8 49.7 L 146.3 53.0 L 141.77666664123535 52.92333335876465 L 139.9 54.8 L 136.5 58.0 L 134.9 59.4 L 133.1 60.8 L 131.4 62.2 L 131.25 62.3 L 158.1 62.3 L 168.1 52.3 L 180.1 62.3 L 180.1 66.3 L 138.2 66.3 L 138.2 81.9 L 153.8181818008423 81.9 L 162.0 72.9 L 172.0 81.9 L 172.0 85.9 L 138.2 85.9 L 138.2 102.3 L 153.8181818008423 102.3 L 162.0 93.3 L 172.0 102.3 L 172.0 106.3 L 138.2 106.3 L 138.2 121.9 L 168.71818180084227 121.9 L 176.9 112.9 L 186.9 121.9 L 186.9 125.9 L 101.1 125.9 Z M 101.1 106.3 L 101.1 121.9 L 126.2 121.9 L 126.2 106.3 Z M 32.1 69.0 L 32.1 110.0 L 55.1 110.0 L 55.1 69.0 Z M 101.1 85.9 L 101.1 102.3 L 126.2 102.3 L 126.2 85.9 Z M 101.1 66.3 L 101.1 81.9 L 126.2 81.9 L 126.2 66.3 Z M 32.1 26.0 L 32.1 65.0 L 55.1 65.0 L 55.1 26.0 Z M 71.2 54.6 L 70.4 50.1 L 72.9 46.2 L 73.8 46.0 L 74.9 45.5 L 76.0 44.5 L 77.2 43.1 L 78.4 41.3 L 79.4 39.0 L 80.5 36.3 L 81.4 33.2 L 82.3 29.8 L 82.5 25.9 L 84.3 25.9 L 84.7 29.8 L 84.97567567825317 31.5 L 122.1 31.5 L 122.1 12.2 L 134.1 14.2 L 137.1 16.2 L 134.1 18.0 L 134.1 31.5 L 171.4 31.5 L 172.08571424484253 30.92857141494751 L 172.2 30.5 L 172.43798627853394 30.63501148223877 L 177.4 26.5 L 188.4 35.5 L 183.4 38.5 L 178.4285714149475 40.57142858505249 L 178.4 40.6 L 176.9 42.0 L 175.2 43.6 L 171.4 46.8 L 169.3 48.5 L 167.1 50.2 L 165.1 52.3 L 163.7 51.2 L 165.3 48.8 L 166.3 46.2 L 167.4 43.8 L 168.3 41.5 L 169.2 39.4 L 170.0 37.3 L 170.6631579399109 35.5 L 85.4714285850525 35.5 L 85.6 37.0 L 85.7 40.2 L 85.5 43.3 L 85.0 46.3 L 84.3 49.0 L 83.1 51.7 L 81.5 54.1 L 79.5 56.3 L 75.0 57.1 Z " />
</g>
</svg>
