<svg xmlns="http://www.w3.org/2000/svg" xmlns:xlink="http://www.w3.org/1999/xlink" version="1.1" baseProfile="full" viewBox="0 0 200 200" width="200" height="200">
<g fill="black">
<path d="M 30.7 22.0 L 50.2 22.0 L 56.2 17.0 L 67.2 26.0 L 62.2 30.0 L 62.2 171.0 L 62.1 173.5 L 61.7 176.0 L 60.9 178.4 L 59.6 180.7 L 58.0 182.7 L 56.0 184.3 L 53.7 185.6 L 51.3 186.4 L 48.8 186.8 L 46.2 187.0 L 46.2 181.0 L 32.2 178.0 L 32.2 175.0 L 46.2 175.0 L 47.5 174.9 L 48.4 174.7 L 49.3 174.4 L 49.5 174.2 L 49.6 174.0 L 49.8 173.7 L 50.0 173.1 L 50.2 172.2 L 50.2 114.0 L 30.7 114.0 L 30.7 118.0 L 30.3 128.7 L 29.6 138.6 L 28.6 147.8 L 27.3 156.1 L 25.8 163.7 L 23.9 170.4 L 21.7 176.4 L 19.1 181.4 L 16.2 185.5 L 12.8 188.5 L 11.5 187.4 L 12.9 183.6 L 14.2 179.3 L 15.4 174.3 L 16.5 168.7 L 17.4 162.2 L 18.1 155.0 L 18.6 146.9 L 18.9 138.1 L 18.9 128.4 L 18.7 118.0 L 18.7 16.0 Z M 126.225 134.4375 L 132.0 135.4 L 135.0 137.4 L 132.0 139.2 L 132.0 150.3 L 155.8 150.3 L 165.8 140.3 L 177.8 150.3 L 177.8 154.3 L 132.0 154.3 L 132.0 174.9 L 165.0 174.9 L 175.0 164.9 L 187.0 174.9 L 187.0 178.9 L 64.9 178.9 L 64.9 174.9 L 120.0 174.9 L 120.0 154.3 L 74.1 154.3 L 74.1 151.8289855003357 L 67.3 153.8 L 66.7 152.1 L 72.5 148.5 L 77.8 144.3 L 82.8 139.6 L 87.4 134.3 L 91.7 128.2 L 95.7 121.4 L 99.4 113.8 L 102.652871799469 105.85916604995728 L 99.4 107.4 L 91.6 110.6 L 87.5 112.1 L 83.4 113.5 L 75.0 116.3 L 74.74467163085937 116.37719230651855 L 73.3 120.1 L 70.7 117.6 L 66.2 106.3 L 68.1 105.9 L 72.5 105.3 L 76.8 104.6 L 80.89378328323365 104.02877445220948 L 81.0 103.8 L 92.2 81.8 L 97.6 70.6 L 100.2 64.9 L 104.81038961410522 54.20389614105225 L 104.8 54.2 L 105.7 52.1 L 116.0 58.4 L 117.9 61.5 L 114.13492765426636 61.88949022293091 L 112.9 64.2 L 109.7 69.8 L 106.4 75.3 L 103.0 80.7 L 99.5 86.1 L 95.9 91.3 L 92.2 96.3 L 88.3 101.3 L 86.7340277671814 103.09513893127442 L 89.5 102.7 L 93.6 102.1 L 97.8 101.5 L 101.9 101.0 L 104.34518070220948 100.76144580841064 L 105.8 96.3 L 108.5 86.3 L 108.56444444656373 86.31777782440186 L 109.0 84.7 L 115.36885242462158 87.45409832000732 L 115.3 87.4 L 117.2 83.1 L 118.9 78.9 L 120.7 74.6 L 123.9 66.2 L 125.3 61.9 L 126.6 57.6 L 127.8 53.2 L 128.9 48.8 L 129.61532468795775 45.302857112884524 L 129.6 45.3 L 129.66621618270875 45.05405406951904 L 129.8 44.4 L 129.83946800231934 44.41054744720459 L 130.3 42.7 L 141.4 47.5 L 143.8 50.2 L 140.0924138069153 51.25931034088135 L 139.8 52.1 L 137.9 56.7 L 135.9 61.1 L 134.28307981491088 64.487832736969 L 137.1 65.0 L 138.5 66.0 L 150.69310340881347 66.0 L 151.3 63.8 L 152.0 61.0 L 152.7 58.3 L 153.9 53.1 L 154.4 50.6 L 154.8 48.1 L 155.27104721069335 44.331622219085695 L 155.1 44.3 L 155.3947368621826 43.342105293273924 L 155.4 43.3 L 155.40709047317506 43.301955986022946 L 155.9 41.7 L 167.0 46.5 L 169.3 49.2 L 165.1 50.4 L 164.6 51.4 L 163.2 53.9 L 161.8 56.3 L 160.2 58.7 L 158.5 61.1 L 156.7 63.4 L 154.8 65.7 L 154.52608699798583 66.0 L 163.11818180084228 66.0 L 171.3 57.0 L 181.3 66.0 L 181.3 70.0 L 157.7 70.0 L 157.7 87.0 L 161.71818180084227 87.0 L 169.9 78.0 L 179.9 87.0 L 179.9 91.0 L 157.7 91.0 L 157.7 107.0 L 161.71818180084227 107.0 L 169.9 98.0 L 179.9 107.0 L 179.9 111.0 L 157.7 111.0 L 157.7 125.0 L 166.01818180084229 125.0 L 174.2 116.0 L 184.2 125.0 L 184.2 129.0 L 137.1 129.0 Z M 123.3 81.5 L 120.1 85.1 L 117.0283019065857 88.1716980934143 L 120.1 89.5 L 122.5 92.2 L 118.84618110656739 93.22563343048095 L 116.6 99.9 L 112.7 109.5 L 108.4 118.3 L 103.7 126.2 L 98.6 133.2 L 93.1 139.3 L 87.2 144.5 L 80.9 148.7 L 77.44193544387818 150.3 L 120.0 150.3 L 120.0 133.4 L 126.1 134.4166666984558 L 126.1 77.83103446960449 Z M 137.1 111.0 L 137.1 125.0 L 146.7 125.0 L 146.7 111.0 Z M 30.7 69.0 L 30.7 110.0 L 50.2 110.0 L 50.2 69.0 Z M 137.1 91.0 L 137.1 107.0 L 146.7 107.0 L 146.7 91.0 Z M 137.1 70.0 L 137.1 87.0 L 146.7 87.0 L 146.7 70.0 Z M 102.5 44.5 L 104.3 47.6 L 100.11040296554566 47.96117219924927 L 99.2 49.3 L 97.4 51.7 L 95.5 54.2 L 93.5 56.8 L 91.4 59.4 L 89.2 62.1 L 86.9 64.8 L 84.3 67.5 L 83.81728391647339 68.10864200592042 L 85.0 68.7 L 86.9 69.9 L 88.7 71.2 L 90.3 72.6 L 91.7 74.3 L 93.0 76.1 L 92.7 80.7 L 89.3 83.8 L 84.8 83.5 L 81.7 80.1 L 81.7 79.1 L 81.6 78.0 L 81.4 76.8 L 80.9 75.4 L 80.2 74.0 L 79.3 72.5 L 78.1 70.9 L 76.8 69.2 L 75.2 67.5 L 73.2 66.2 L 74.0 64.6 L 76.3 65.6 L 78.7 66.2 L 80.9 66.9 L 81.53956832885743 67.14364509582519 L 82.0 66.1 L 83.2 62.6 L 84.4 59.3 L 85.6 56.1 L 86.8 53.0 L 89.0 47.2 L 90.0 44.4 L 90.9 41.8 L 91.40980396270751 40.143137264251706 L 91.3 40.1 L 91.35 40.0 L 70.6 40.0 L 70.6 36.0 L 120.7 36.0 L 120.7 15.0 L 132.7 17.0 L 135.7 19.0 L 132.7 20.8 L 132.7 36.0 L 161.5 36.0 L 171.5 26.0 L 183.5 36.0 L 183.5 40.0 L 95.328125 40.0 Z M 30.7 26.0 L 30.7 65.0 L 50.2 65.0 L 50.2 26.0 Z " />
</g>
</svg>
