<svg xmlns="http://www.w3.org/2000/svg" xmlns:xlink="http://www.w3.org/1999/xlink" version="1.1" baseProfile="full" viewBox="0 0 200 200" width="200" height="200">
<g fill="black">
<path d="M 138.5 32.8 L 138.5 28.8 L 153.0 28.8 L 153.0 11.7 L 165.0 13.7 L 168.0 15.7 L 165.0 17.5 L 165.0 28.8 L 170.2777777671814 28.8 L 176.5 21.8 L 184.5 28.8 L 184.5 32.8 L 165.0 32.8 L 165.0 33.5 L 164.5 41.0 L 163.3 47.9 L 163.07846155166627 48.7 L 169.9181818008423 48.7 L 178.1 39.7 L 188.1 48.7 L 188.1 52.7 L 162.217142868042 52.7 L 163.6 54.9 L 166.0 58.1 L 168.3 61.1 L 170.7 63.9 L 173.2 66.4 L 175.7 68.7 L 178.3 70.8 L 181.1 72.7 L 183.9 74.4 L 186.8 75.9 L 190.8 78.5 L 179.7 87.1 L 176.5 84.4 L 173.6 81.5 L 170.9 78.4 L 168.4 75.1 L 166.2 71.7 L 164.4 68.1 L 162.7 64.3 L 161.4 60.3 L 160.59386138916017 56.62759075164795 L 159.1 60.3 L 156.1 65.7 L 152.5 70.4 L 148.4 74.5 L 143.7 77.9 L 142.52857141494752 78.48571424484253 L 144.5 79.8 L 141.5 81.6 L 141.5 92.0 L 166.3181818008423 92.0 L 174.5 83.0 L 184.5 92.0 L 184.5 96.0 L 141.5 96.0 L 141.5 106.6 L 161.5 106.6 L 167.5 101.6 L 178.5 110.6 L 173.5 114.6 L 173.5 148.1 L 161.5 154.1 L 161.5 148.1 L 141.5 148.1 L 141.5 161.2 L 165.5 161.2 L 175.5 151.2 L 187.5 161.2 L 187.5 165.2 L 141.5 165.2 L 141.5 183.1 L 129.5 189.1 L 129.5 165.2 L 83.4 165.2 L 83.4 161.2 L 129.5 161.2 L 129.5 148.1 L 109.4 148.1 L 97.4 154.1 L 97.4 100.6 L 109.4 106.6 L 129.5 106.6 L 129.5 96.0 L 86.4 96.0 L 86.4 92.0 L 129.5 92.0 L 129.5 77.88695650100708 L 125.7 78.3 L 122.1 75.5 L 121.4 73.7 L 120.7 71.8 L 119.7 70.0 L 118.7 68.1 L 116.1 64.5 L 114.5 62.6 L 112.8 60.8 L 111.0 58.8 L 110.98364648818969 58.790045738220215 L 110.0 61.7 L 106.9 68.3 L 103.3 74.4 L 99.1 80.0 L 94.2 85.0 L 88.8 89.4 L 82.7 93.1 L 81.7 91.6 L 86.2 86.6 L 90.2 81.4 L 93.7 76.1 L 96.7 70.6 L 99.2 64.8 L 101.2 58.7 L 102.60625 52.7 L 82.8 52.7 L 82.8 48.7 L 103.1764705657959 48.7 L 103.6 45.5 L 104.1 38.4 L 104.02631578445434 32.8 L 86.4 32.8 L 86.4 28.8 L 104.0 28.8 L 104.0 11.7 L 116.0 13.7 L 119.0 15.7 L 116.0 17.5 L 116.0 28.8 L 119.3777777671814 28.8 L 125.6 21.8 L 133.6 28.8 L 133.6 32.8 L 115.85714282989503 32.8 L 115.4 39.2 L 114.2 47.1 L 113.81599998474121 48.7 L 120.5777777671814 48.7 L 126.8 41.7 L 134.8 48.7 L 134.8 52.7 L 112.85600004196166 52.7 L 112.4 54.6 L 111.70738258361817 56.6489933013916 L 112.1 56.8 L 114.8 57.5 L 117.4 58.4 L 119.9 59.5 L 122.3 60.8 L 124.6 62.2 L 126.7 63.8 L 128.8 65.6 L 130.7 67.5 L 132.5 69.6 L 133.0 74.1 L 131.51445779800414 76.13574295043945 L 136.80588235855103 77.01764707565307 L 140.4 73.7 L 143.6 69.9 L 146.4 65.9 L 148.7 61.6 L 150.5 56.8 L 151.54509801864623 52.7 L 137.3 52.7 L 137.3 48.7 L 152.282142829895 48.7 L 152.7 46.1 L 153.1 40.1 L 153.0 33.5 L 153.0 32.8 Z M 76.6818748474121 20.194176292419435 L 82.0 25.7 L 82.2 29.1 L 78.57660856246949 27.663137912750244 L 74.7 29.7 L 68.6 32.5 L 62.4 35.1 L 56.0 37.4 L 55.5 37.56666669845581 L 55.5 76.0 L 64.5 76.0 L 74.5 66.0 L 86.5 76.0 L 86.5 80.0 L 55.5 80.0 L 55.5 118.0 L 66.8 118.0 L 72.8 113.0 L 83.8 122.0 L 78.8 126.0 L 78.8 176.0 L 66.8 182.0 L 66.8 170.0 L 31.6 170.0 L 31.6 182.0 L 19.6 188.0 L 19.6 112.0 L 31.6 118.0 L 43.5 118.0 L 43.5 80.0 L 12.5 80.0 L 12.5 76.0 L 43.5 76.0 L 43.5 41.18507461547851 L 42.7 41.4 L 35.8 43.1 L 28.7 44.4 L 21.5 45.3 L 14.1 45.8 L 13.7 44.1 L 20.7 41.6 L 27.4 39.2 L 34.0 36.7 L 40.3 34.2 L 46.5 31.6 L 52.4 28.8 L 58.2 25.9 L 63.8 22.9 L 69.2 19.7 L 74.3 16.3 Z M 31.6 166.0 L 66.8 166.0 L 66.8 122.0 L 31.6 122.0 Z M 109.4 129.0 L 109.4 144.1 L 129.5 144.1 L 129.5 129.0 Z M 141.5 129.0 L 141.5 144.1 L 161.5 144.1 L 161.5 129.0 Z M 109.4 110.6 L 109.4 125.0 L 129.5 125.0 L 129.5 110.6 Z M 141.5 110.6 L 141.5 125.0 L 161.5 125.0 L 161.5 110.6 Z " />
</g>
</svg>
