<svg xmlns="http://www.w3.org/2000/svg" xmlns:xlink="http://www.w3.org/1999/xlink" version="1.1" baseProfile="full" viewBox="0 0 200 200" width="200" height="200">
<g fill="black">
<path d="M 48.1 176.5 L 63.5 176.5 L 64.5 176.4 L 65.1 176.3 L 65.6 176.1 L 65.8 176.0 L 65.9 175.8 L 66.1 175.6 L 66.3 175.1 L 66.5 174.4 L 66.7 173.3 L 66.8 172.0 L 66.8 101.0880000114441 L 63.0 102.0 L 55.4 103.6 L 47.6 105.2 L 39.7 106.7 L 38.89042949676514 106.8416748046875 L 38.8 110.7 L 38.0 122.7 L 36.8 133.8 L 35.1 144.2 L 33.0 153.8 L 30.5 162.6 L 27.4 170.5 L 23.9 177.5 L 19.7 183.5 L 15.1 188.5 L 13.7 187.4 L 16.5 181.6 L 19.0 175.2 L 21.2 168.2 L 23.1 160.5 L 24.7 152.1 L 25.9 142.9 L 26.8 132.9 L 27.3 122.0 L 27.4 110.4 L 27.362272262573242 108.8405876159668 L 23.5 109.5 L 19.216567707061767 110.17089900970458 L 17.5 113.5 L 15.2 110.8 L 11.8 99.1 L 13.8 98.9 L 22.1 98.2 L 27.1 97.7731707572937 L 27.1 34.0 L 39.1 40.0 L 41.95 40.0 L 42.6 38.6 L 44.6 32.8 L 45.5 30.0 L 46.3 27.2 L 47.1 24.5 L 47.8 21.9 L 48.4 19.2 L 48.9 16.6 L 49.15049047470093 15.03443422317505 L 49.0 15.0 L 49.8 12.5 L 60.8 17.7 L 63.0 20.5 L 58.789269065856935 21.534214591979982 L 58.0 23.0 L 56.5 25.6 L 53.1 30.6 L 51.2 33.1 L 49.2 35.5 L 47.1 37.8 L 44.9 40.0 L 66.8 40.0 L 72.3 35.0 L 82.8 44.0 L 77.8 47.5 L 77.8 92.93918914794922 L 84.3 92.5 L 91.7 92.1 L 92.0 93.8 L 85.0 96.2 L 77.8 98.3 L 77.8 144.025 L 78.9 142.1 L 82.6 135.9 L 86.1 129.8 L 89.5 123.6 L 92.7 117.3 L 95.7 111.0 L 98.6 104.6 L 101.2 98.1 L 103.7 91.5 L 105.68294458389282 85.72359628677368 L 105.6 85.7 L 106.5 83.4 L 117.2 89.0 L 119.0 91.48571424484253 L 119.0 58.2 L 118.1 58.2 L 117.5 59.0 L 114.3 62.9 L 110.9 66.6 L 107.4 70.2 L 103.6 73.6 L 99.6 76.9 L 95.4 80.0 L 91.0 82.8 L 86.4 85.4 L 81.5 87.7 L 80.4 86.2 L 84.1 82.4 L 87.7 78.7 L 91.2 75.0 L 94.4 71.4 L 97.6 67.7 L 100.5 64.0 L 103.2 60.2 L 105.8 56.4 L 108.1 52.6 L 109.80389795303344 49.50200366973877 L 109.8 49.5 L 109.87692308425903 49.3692307472229 L 110.3 48.6 L 110.32148275375366 48.61347932815552 L 110.8 47.8 L 119.0 53.88659791946411 L 119.0 27.0 L 107.52933330535889 27.0 L 115.3 33.2 L 116.7 36.5 L 112.6264181137085 36.29286870956421 L 110.1 39.1 L 107.3 41.9 L 104.3 44.7 L 101.2 47.4 L 98.0 50.0 L 94.6 52.6 L 91.1 55.1 L 87.3 57.3 L 83.5 59.6 L 82.4 58.3 L 85.3 54.9 L 90.5 48.3 L 93.0 45.1 L 95.4 41.9 L 97.6 38.8 L 99.8 35.6 L 101.8 32.5 L 103.7 29.5 L 104.94655981063843 27.226861476898193 L 104.9 27.2 L 105.03333330154419 27.0 L 84.0 27.0 L 84.0 23.0 L 119.0 23.0 L 125.0 18.0 L 136.0 27.0 L 131.0 31.0 L 131.0 89.0 L 119.0 95.0 L 119.0 91.95789470672608 L 115.60609140396119 92.61285953521728 L 114.2 95.8 L 111.0 102.5 L 107.6 109.0 L 136.175 109.0 L 136.8 108.0 L 137.9 105.4 L 138.9 102.9 L 140.0 100.4 L 141.0 98.1 L 142.0 95.7 L 142.9 93.5 L 144.5 89.1 L 144.90316619873047 87.89050130844116 L 144.7 87.8 L 145.7 86.0 L 155.7 92.7 L 157.4 95.9 L 152.9650089263916 96.05293073654175 L 152.5 96.6 L 150.8 98.5 L 149.0 100.4 L 147.1 102.3 L 145.2 104.1 L 143.1 106.0 L 141.0 107.8 L 139.3764705657959 109.0 L 158.0 109.0 L 168.0 99.0 L 180.0 109.0 L 180.0 113.0 L 144.0 113.0 L 144.0 131.0 L 158.8181818008423 131.0 L 167.0 122.0 L 177.0 131.0 L 177.0 135.0 L 144.0 135.0 L 144.0 153.0 L 158.8181818008423 153.0 L 167.0 144.0 L 177.0 153.0 L 177.0 157.0 L 144.0 157.0 L 144.0 176.0 L 164.0 176.0 L 174.0 166.0 L 186.0 176.0 L 186.0 180.0 L 110.0 180.0 L 110.0 183.0 L 98.0 189.0 L 98.0 124.47560977935791 L 95.9 127.6 L 91.6 133.4 L 86.9 139.1 L 82.0 144.4 L 77.8 148.36666669845582 L 77.8 172.0 L 77.6 174.4 L 77.3 176.7 L 76.6 179.0 L 75.6 181.1 L 74.2 183.1 L 72.4 184.7 L 70.4 186.0 L 68.2 186.8 L 65.9 187.3 L 63.5 187.5 L 63.5 182.0 L 48.1 179.2 Z M 110.0 157.0 L 110.0 176.0 L 132.0 176.0 L 132.0 157.0 Z M 56.4 114.0 L 59.2 116.0 L 56.4 117.75 L 56.4 153.2 L 45.4 158.7 L 45.4 112.0 Z M 110.0 135.0 L 110.0 153.0 L 132.0 153.0 L 132.0 135.0 Z M 110.0 113.0 L 110.0 131.0 L 132.0 131.0 L 132.0 113.0 Z M 39.1 44.0 L 39.1 96.62911396026611 L 46.2 96.0 L 54.1 95.2 L 61.8 94.5 L 66.8 93.97368421554566 L 66.8 44.0 Z M 187.0 27.0 L 182.0 31.0 L 182.0 87.0 L 170.0 93.0 L 170.0 58.268965530395505 L 169.79605522155762 58.261932945251466 L 169.6 58.5 L 166.6 61.9 L 163.4 65.1 L 160.0 68.3 L 156.5 71.3 L 152.7 74.3 L 148.7 77.1 L 144.6 79.8 L 140.1 82.3 L 135.5 84.7 L 134.4 83.2 L 138.0 79.5 L 141.4 75.9 L 144.6 72.4 L 147.7 68.9 L 150.6 65.5 L 153.4 62.0 L 155.9 58.6 L 158.3 55.2 L 160.4 51.8 L 161.8864748954773 49.34731645584107 L 161.8 49.3 L 162.9 47.7 L 170.0 53.23052635192871 L 170.0 27.0 L 158.59178085327147 27.0 L 166.4 33.0 L 167.9 36.4 L 163.84551248550414 36.262559700012204 L 161.2 39.3 L 158.4 42.4 L 155.4 45.4 L 152.4 48.3 L 149.1 51.2 L 145.7 54.0 L 142.2 56.6 L 138.4 59.1 L 134.5 61.6 L 133.4 60.3 L 136.2 56.7 L 141.4 49.7 L 143.9 46.3 L 146.3 43.0 L 150.7 36.4 L 152.7 33.1 L 154.6 29.8 L 155.88468704223632 27.44474039077759 L 155.8 27.4 L 156.05882349014283 27.0 L 138.0 27.0 L 138.0 23.0 L 170.0 23.0 L 176.0 18.0 Z M 49.5 75.1 L 49.1 71.6 L 48.6 68.3 L 47.9 65.1 L 47.0 62.1 L 46.1 59.3 L 45.0 56.5 L 43.7 53.7 L 42.1 51.3 L 43.3 50.0 L 45.9 51.9 L 48.5 53.9 L 50.9 56.3 L 53.0 59.1 L 55.0 62.1 L 56.8 65.5 L 58.4 69.1 L 59.7 72.9 L 60.9 77.0 L 61.9 81.3 L 60.5 85.7 L 56.6 87.9 L 52.2 86.6 L 49.9 82.6 L 49.8 78.8 Z " />
</g>
</svg>
