<svg xmlns="http://www.w3.org/2000/svg" xmlns:xlink="http://www.w3.org/1999/xlink" version="1.1" baseProfile="full" viewBox="0 0 200 200" width="200" height="200">
<g fill="black">
<path d="M 163.5 173.3 L 157.1 165.5 L 151.3 157.2 L 145.9 148.4 L 141.2 139.0 L 137.0 129.1 L 133.4 118.7 L 130.5 107.7 L 128.6551724433899 97.0 L 109.0 97.0 L 109.0 166.1 L 114.2 164.8 L 120.6 163.3 L 127.1 161.7 L 133.7 160.0 L 140.4 158.5 L 147.2 157.1 L 147.9 158.8 L 141.7 162.1 L 135.4 165.1 L 129.2 167.9 L 122.9 170.5 L 110.5 175.3 L 104.4 177.5 L 98.3 179.6 L 92.2 181.6 L 90.13302221298218 182.25454292297363 L 88.9 185.9 L 86.2 183.5 L 81.2 172.4 L 83.2 171.9 L 89.2 170.6 L 95.4 169.3 L 97.0 168.91290321350098 L 97.0 19.0 L 109.0 25.0 L 158.4 25.0 L 164.4 20.0 L 175.4 29.0 L 170.4 33.0 L 170.4 99.0 L 158.4 105.0 L 158.4 97.0 L 130.7224299430847 97.0 L 134.5 106.4 L 138.9 116.6 L 143.6 126.1 L 148.42704401016235 134.78867921829223 L 148.6 134.6 L 151.8 131.1 L 155.1 127.7 L 158.2 124.4 L 161.3 121.2 L 164.3 118.1 L 167.3 115.1 L 170.1 112.1 L 172.8 109.1 L 174.82613258361818 106.92378358840942 L 174.8 106.9 L 175.7 106.0 L 183.7 115.0 L 184.2 118.6 L 180.4589211463928 117.53112030029297 L 177.2 120.0 L 170.2 125.0 L 166.6 127.5 L 159.0 132.5 L 155.0 135.0 L 150.7 137.3 L 150.1735053062439 137.59385747909545 L 153.9 143.5 L 159.6 151.3 L 165.6 158.5 L 172.0 165.1 L 178.8 171.2 L 186.0 176.7 L 188.9 178.9 L 178.0 187.2 L 170.5 180.5 Z M 13.9 153.9 L 16.5 153.7 L 20.2 153.3 L 25.1 152.7 L 26.6 152.475 L 26.6 38.0 L 36.297986602783205 42.8489933013916 L 39.3 41.2 L 45.9 37.6 L 52.2 34.3 L 58.1 31.1 L 63.5 28.0 L 68.6 25.1 L 73.1 22.3 L 77.3 19.6 L 81.0 17.0 L 83.35110025405884 15.163202953338622 L 83.3 15.1 L 83.35449542999268 15.160550498962403 L 84.2 14.5 L 88.3947826385498 20.760869598388673 L 91.4 24.1 L 91.6 27.6 L 88.04209775924683 26.11215000152588 L 87.0 26.7 L 82.6 28.9 L 77.9 31.1 L 72.8 33.4 L 67.2 35.7 L 61.2 38.0 L 54.9 40.3 L 48.0 42.6 L 40.7 44.7 L 38.6 45.26538457870483 L 38.6 90.0 L 68.2 90.0 L 78.2 80.0 L 90.2 90.0 L 90.2 94.0 L 38.6 94.0 L 38.6 150.73734941482545 L 46.5 149.5 L 55.9 148.0 L 66.4 146.4 L 78.1 144.8 L 91.0 143.1 L 91.3 144.8 L 78.9 148.5 L 67.5 151.7 L 57.2 154.5 L 48.0 156.9 L 40.0 159.1 L 33.0 160.9 L 27.1 162.5 L 22.3 163.8 L 20.203391456604002 164.42331609725952 L 18.5 168.3 L 16.0 165.7 L 11.9 154.2 Z M 109.0 63.0 L 109.0 93.0 L 158.4 93.0 L 158.4 63.0 Z M 109.0 29.0 L 109.0 59.0 L 158.4 59.0 L 158.4 29.0 Z " />
</g>
</svg>
