<svg xmlns="http://www.w3.org/2000/svg" xmlns:xlink="http://www.w3.org/1999/xlink" version="1.1" baseProfile="full" viewBox="0 0 200 200" width="200" height="200">
<g fill="black">
<path d="M 162.0 181.7 L 160.0 183.0 L 158.0 184.2 L 155.8 185.2 L 153.6 186.0 L 151.4 186.6 L 149.0 187.0 L 146.7 187.3 L 144.3 187.4 L 144.3 181.4 L 124.3 178.4 L 124.3 175.4 L 144.3 175.4 L 145.8 175.3 L 147.3 175.1 L 148.7 174.9 L 151.3 174.1 L 152.5 173.5 L 153.7 172.8 L 154.9 172.0 L 156.1 171.1 L 157.2 170.1 L 158.2 168.6 L 159.7 165.0 L 161.2 159.6 L 162.5 152.5 L 163.7 143.7 L 164.7 133.4 L 165.5 121.4 L 166.0 107.9 L 166.3 92.9 L 166.3879518508911 78.3 L 126.08535032272339 78.3 L 125.3 92.0 L 123.1 106.8 L 119.7 120.6 L 114.9 133.4 L 108.9 145.1 L 101.7 155.9 L 93.2 165.5 L 83.5 173.9 L 72.6 181.2 L 60.5 187.2 L 59.7 185.6 L 70.5 178.0 L 80.0 169.9 L 88.3 161.0 L 95.5 151.4 L 101.5 141.1 L 106.3 129.9 L 110.0 117.9 L 112.5 104.9 L 114.0 91.1 L 114.17297296524048 78.3 L 82.8 78.3 L 82.8 74.3 L 166.4 74.3 L 172.4 69.3 L 183.4 78.3 L 178.4 81.3 L 178.36998500823975 81.31250629425048 L 178.3 93.0 L 178.0 108.3 L 177.4 122.0 L 176.7 134.3 L 175.6 145.1 L 174.4 154.4 L 172.9 162.3 L 171.1 168.9 L 168.8 174.3 L 165.6 178.6 L 163.8 180.3 Z M 32.4 81.4 L 62.2 81.4 L 68.2 76.4 L 79.2 85.4 L 74.2 89.4 L 74.2 154.3 L 62.2 160.3 L 62.2 148.3 L 32.4 148.3 L 32.4 160.3 L 20.4 166.3 L 20.4 75.4 Z M 32.4 85.4 L 32.4 144.3 L 62.2 144.3 L 62.2 85.4 Z M 134.0 14.0 L 137.0 16.0 L 134.0 17.8 L 134.0 37.0 L 165.0 37.0 L 175.0 27.0 L 187.0 37.0 L 187.0 41.0 L 134.0 41.0 L 134.0 61.0 L 122.0 67.0 L 122.0 41.0 L 78.0 41.0 L 78.0 61.0 L 66.0 67.0 L 66.0 41.0 L 13.0 41.0 L 13.0 37.0 L 66.0 37.0 L 66.0 12.0 L 78.0 14.0 L 81.0 16.0 L 78.0 17.8 L 78.0 37.0 L 122.0 37.0 L 122.0 12.0 Z " />
</g>
</svg>
