<svg xmlns="http://www.w3.org/2000/svg" xmlns:xlink="http://www.w3.org/1999/xlink" version="1.1" baseProfile="full" viewBox="0 0 200 200" width="200" height="200">
<g fill="black">
<path d="M 12.2 178.0 L 38.9 178.0 L 38.9 133.7 L 50.9 139.7 L 149.0 139.7 L 155.0 134.7 L 166.0 143.7 L 161.0 147.7 L 161.0 178.0 L 165.7 178.0 L 175.7 168.0 L 187.7 178.0 L 187.7 182.0 L 12.2 182.0 Z M 50.9 143.7 L 50.9 178.0 L 75.6 178.0 L 75.6 143.7 Z M 87.6 143.7 L 87.6 178.0 L 112.3 178.0 L 112.3 143.7 Z M 124.3 143.7 L 124.3 178.0 L 149.0 178.0 L 149.0 143.7 Z M 178.0 63.2 L 178.0 67.2 L 111.39761905670166 67.2 L 115.8 71.5 L 116.7 75.0 L 113.01176471710205 74.28823528289794 L 108.7 78.6 L 101.0 85.3 L 100.1743589401245 85.92905979156494 L 106.0 86.9 L 109.0 88.9 L 106.0 90.7 L 106.0 133.7 L 94.0 139.7 L 94.0 90.63333330154418 L 92.6 91.7 L 83.6 97.6 L 73.9 103.2 L 63.7 108.4 L 52.8 113.2 L 41.3 117.6 L 29.1 121.5 L 16.2 124.9 L 15.7 123.2 L 27.8 117.9 L 39.2 112.7 L 50.0 107.3 L 60.2 101.7 L 69.6 95.9 L 78.4 89.9 L 86.5 83.7 L 93.9 77.2 L 100.7 70.5 L 103.61739130020142 67.2 L 25.0 67.2 L 25.0 63.2 L 107.10833330154419 63.2 L 107.2 63.1 L 107.30238094329835 63.2 L 156.0 63.2 L 166.0 53.2 Z M 156.8 107.5 L 154.2 104.8 L 151.0 102.2 L 147.1 99.6 L 142.7 97.0 L 137.6 94.5 L 131.9 92.0 L 125.6 89.5 L 118.7 86.9 L 119.1 85.2 L 126.5 85.8 L 133.4 86.9 L 139.8 88.3 L 145.6 90.0 L 151.0 92.0 L 155.9 94.3 L 160.3 96.8 L 164.2 99.6 L 167.6 102.9 L 170.5 106.4 L 171.2 111.0 L 168.5 114.7 L 164.0 115.3 L 160.3 112.6 L 158.8 110.1 Z M 134.0 14.5 L 137.0 16.5 L 134.0 18.3 L 134.0 34.5 L 165.0 34.5 L 175.0 24.5 L 187.0 34.5 L 187.0 38.5 L 134.0 38.5 L 134.0 55.6 L 122.0 61.6 L 122.0 38.5 L 78.0 38.5 L 78.0 55.6 L 66.0 61.6 L 66.0 38.5 L 13.0 38.5 L 13.0 34.5 L 66.0 34.5 L 66.0 12.5 L 78.0 14.5 L 81.0 16.5 L 78.0 18.3 L 78.0 34.5 L 122.0 34.5 L 122.0 12.5 Z " />
</g>
</svg>
