<svg xmlns="http://www.w3.org/2000/svg" xmlns:xlink="http://www.w3.org/1999/xlink" version="1.1" baseProfile="full" viewBox="0 0 200 200" width="200" height="200">
<g fill="black">
<path d="M 158.0 177.2 L 149.5 173.7 L 141.4 169.9 L 133.8 165.8 L 126.6 161.4 L 119.9 156.7 L 113.6 151.6 L 108.0 146.2 L 106.0 143.79183673858643 L 106.0 182.0 L 94.0 188.0 L 94.0 146.3416666984558 L 91.5 148.8 L 84.9 154.4 L 77.8 159.6 L 70.2 164.5 L 62.0 168.9 L 53.3 173.0 L 44.1 176.6 L 34.4 179.9 L 24.1 182.6 L 13.2 184.8 L 12.7 183.1 L 22.9 179.0 L 32.5 174.8 L 41.5 170.6 L 50.0 166.1 L 57.9 161.5 L 65.2 156.6 L 71.8 151.6 L 77.9 146.3 L 83.29636363983154 141.0 L 15.0 141.0 L 15.0 137.0 L 94.0 137.0 L 94.0 104.0 L 106.0 106.0 L 109.0 108.0 L 106.0 109.8 L 106.0 137.0 L 118.59166669845581 137.0 L 120.7 134.7 L 123.6 131.1 L 126.4 127.7 L 129.1 124.5 L 131.5 121.5 L 133.8 118.7 L 135.9 116.0 L 137.7 113.5 L 139.3 111.1 L 140.13324871063233 109.79060916900634 L 140.0 109.7 L 141.1 108.4 L 150.0 116.5 L 151.0 120.0 L 146.82594146728516 119.35230121612548 L 145.4 120.6 L 142.8 122.7 L 140.0 125.0 L 137.0 127.3 L 133.8 129.6 L 130.4 132.0 L 126.6 134.5 L 122.6 137.0 L 163.0 137.0 L 173.0 127.0 L 185.0 137.0 L 185.0 141.0 L 107.58205127716064 141.0 L 117.1 146.8 L 123.8 150.6 L 130.7 154.1 L 138.0 157.5 L 145.6 160.5 L 153.5 163.4 L 161.8 166.0 L 170.5 168.4 L 179.6 170.6 L 188.0 172.7 L 176.3 183.3 L 167.0 180.4 Z M 66.6 129.9 L 65.2 128.0 L 63.4 126.1 L 61.4 124.1 L 59.0 122.1 L 56.4 119.9 L 53.4 117.7 L 50.2 115.3 L 46.5 113.2 L 47.2 111.5 L 51.3 112.8 L 55.3 113.9 L 59.0 115.1 L 62.4 116.4 L 65.6 117.7 L 68.5 119.2 L 71.2 120.7 L 73.7 122.3 L 76.0 124.1 L 78.0 126.0 L 79.1 130.5 L 76.7 134.4 L 72.3 135.4 L 68.3 133.1 L 67.6 131.5 Z M 141.0 51.1 L 144.0 53.1 L 141.0 54.9 L 141.0 71.7 L 165.0 71.7 L 175.0 61.7 L 187.0 71.7 L 187.0 75.7 L 141.0 75.7 L 141.0 101.0 L 129.0 107.0 L 129.0 101.0 L 69.0 101.0 L 57.0 107.0 L 57.0 75.7 L 14.0 75.7 L 14.0 71.7 L 57.0 71.7 L 57.0 49.1 L 69.0 51.1 L 72.0 53.1 L 69.0 54.9 L 69.0 71.7 L 129.0 71.7 L 129.0 49.1 Z M 69.0 75.7 L 69.0 97.0 L 129.0 97.0 L 129.0 75.7 Z M 134.0 13.1 L 137.0 15.1 L 134.0 16.9 L 134.0 27.2 L 165.0 27.2 L 175.0 17.2 L 187.0 27.2 L 187.0 31.2 L 134.0 31.2 L 134.0 42.7 L 122.0 48.7 L 122.0 31.2 L 78.0 31.2 L 78.0 42.7 L 66.0 48.7 L 66.0 31.2 L 13.0 31.2 L 13.0 27.2 L 66.0 27.2 L 66.0 11.1 L 78.0 13.1 L 81.0 15.1 L 78.0 16.9 L 78.0 27.2 L 122.0 27.2 L 122.0 11.1 Z " />
</g>
</svg>
