<svg xmlns="http://www.w3.org/2000/svg" xmlns:xlink="http://www.w3.org/1999/xlink" version="1.1" baseProfile="full" viewBox="0 0 200 200" width="200" height="200">
<g fill="black">
<path d="M 158.8 126.0 L 158.08487396240236 125.751260471344 L 160.1 127.4 L 155.1 131.4 L 155.1 182.9 L 143.1 188.9 L 143.1 180.9 L 56.8 180.9 L 56.8 183.9 L 44.8 189.9 L 44.8 123.6315315246582 L 36.5 125.8 L 24.7 128.2 L 12.1 130.1 L 11.8 128.3 L 23.7 124.5 L 35.0 120.6 L 45.5 116.7 L 55.2 112.6 L 64.3 108.3 L 72.5 103.8 L 80.0 99.1 L 86.8 94.2 L 92.8 89.1 L 98.3 83.6 L 106.5 92.3 L 106.53071355819702 92.45795564651489 L 107.8 93.2 L 114.5 96.9 L 121.5 100.4 L 128.8 103.7 L 136.5 106.8 L 144.6 109.7 L 153.1 112.3 L 162.1 114.7 L 171.5 116.8 L 181.3 118.7 L 190.4 120.6 L 178.6 131.6 L 168.5 129.0 Z M 56.8 162.3 L 56.8 176.9 L 143.1 176.9 L 143.1 162.3 Z M 56.8 144.8 L 56.8 158.3 L 143.1 158.3 L 143.1 144.8 Z M 56.8 127.4 L 56.8 140.8 L 143.1 140.8 L 143.1 127.4 Z M 100.1 97.8 L 93.0 102.9 L 85.3 107.6 L 76.9 112.0 L 67.8 116.0 L 58.0 119.6 L 52.616470623016355 121.30823526382446 L 56.8 123.4 L 143.1 123.4 L 145.7526315689087 121.18947372436523 L 141.0 119.2 L 132.7 115.4 L 125.1 111.2 L 117.9 106.6 L 111.3 101.8 L 105.3 96.5 L 104.05777778625489 95.11444444656372 L 103.41267604827881 94.95316905975342 Z M 76.9 80.6 L 77.2 84.2 L 73.46000003814697 82.83999996185302 L 72.6 83.4 L 68.1 86.1 L 63.2 88.6 L 58.0 91.0 L 52.6 93.3 L 46.8 95.4 L 40.6 97.4 L 34.2 99.1 L 27.4 100.6 L 20.2 101.9 L 19.7 100.1 L 26.2 97.0 L 32.4 94.1 L 43.8 88.4 L 48.9 85.6 L 53.8 82.8 L 58.2 79.9 L 62.3 77.0 L 66.1 74.2 L 69.4 71.2 L 69.44111194610596 71.25152702331543 L 69.5 71.2 Z M 158.7 94.5 L 155.1 92.2 L 151.1 89.9 L 146.9 87.6 L 142.4 85.2 L 137.6 82.9 L 132.6 80.6 L 127.2 78.1 L 121.7 75.4 L 122.2 73.7 L 128.3 74.5 L 134.2 75.5 L 139.8 76.7 L 145.2 78.2 L 150.2 79.7 L 155.0 81.4 L 159.6 83.2 L 163.9 85.1 L 168.0 87.2 L 171.9 89.3 L 174.3 93.2 L 173.4 97.7 L 169.6 100.1 L 165.1 99.2 L 162.0 96.8 Z M 184.0 65.0 L 184.0 69.0 L 16.0 69.0 L 16.0 65.0 L 162.0 65.0 L 172.0 55.0 Z M 134.0 13.9 L 137.0 15.9 L 134.0 17.7 L 134.0 34.8 L 165.0 34.8 L 175.0 24.8 L 187.0 34.8 L 187.0 38.8 L 134.0 38.8 L 134.0 56.8 L 122.0 62.8 L 122.0 38.8 L 78.0 38.8 L 78.0 56.8 L 66.0 62.8 L 66.0 38.8 L 13.0 38.8 L 13.0 34.8 L 66.0 34.8 L 66.0 11.9 L 78.0 13.9 L 81.0 15.9 L 78.0 17.7 L 78.0 34.8 L 122.0 34.8 L 122.0 11.9 Z " />
</g>
</svg>
