<svg xmlns="http://www.w3.org/2000/svg" xmlns:xlink="http://www.w3.org/1999/xlink" version="1.1" baseProfile="full" viewBox="0 0 200 200" width="200" height="200">
<g fill="black">
<path d="M 36.0 52.5 L 164.0 52.5 L 170.0 47.5 L 181.0 56.5 L 176.0 60.5 L 176.0 181.4 L 164.0 187.4 L 164.0 177.4 L 36.0 177.4 L 36.0 184.4 L 24.0 190.4 L 24.0 46.5 Z M 36.0 56.5 L 36.0 173.4 L 164.0 173.4 L 164.0 56.5 Z M 39.8 160.7 L 94.0 160.7 L 94.0 143.1 L 48.9 143.1 L 48.9 139.1 L 94.0 139.1 L 94.0 124.4 L 106.0 126.4 L 109.0 128.4 L 106.0 130.2 L 106.0 139.1 L 132.9181818008423 139.1 L 141.1 130.1 L 151.1 139.1 L 151.1 143.1 L 106.0 143.1 L 106.0 160.7 L 142.01818180084229 160.7 L 150.2 151.7 L 160.2 160.7 L 160.2 164.7 L 39.8 164.7 Z M 121.2 127.4 L 118.8 127.2 L 116.6 126.7 L 114.5 125.7 L 112.5 124.4 L 110.8 122.6 L 109.5 120.6 L 108.5 118.3 L 107.9 115.9 L 107.5 113.3 L 107.5 99.4 L 88.83214282989502 99.4 L 93.8 102.0 L 95.9 104.9 L 91.88614387512207 105.67460384368897 L 91.3 106.8 L 88.2 111.3 L 84.5 115.3 L 80.3 119.0 L 75.6 122.3 L 70.4 125.1 L 64.7 127.6 L 58.5 129.8 L 51.7 131.4 L 44.5 132.6 L 44.0 130.9 L 50.5 127.8 L 56.4 124.8 L 61.8 121.8 L 66.5 118.6 L 70.6 115.4 L 74.1 112.0 L 77.0 108.6 L 79.4 105.1 L 81.2 101.5 L 81.99459457397461 99.4 L 42.8 99.4 L 42.8 95.4 L 94.0 95.4 L 94.0 78.1 L 52.1 78.1 L 52.1 74.1 L 94.0 74.1 L 94.0 58.4 L 106.0 60.4 L 109.0 62.4 L 106.0 64.2 L 106.0 74.1 L 129.61818180084228 74.1 L 137.8 65.1 L 147.8 74.1 L 147.8 78.1 L 106.0 78.1 L 106.0 95.4 L 138.9181818008423 95.4 L 147.1 86.4 L 157.1 95.4 L 157.1 99.4 L 119.5 99.4 L 119.5 113.3 L 119.4 114.6 L 119.3 115.6 L 119.4 116.3 L 119.4 116.9 L 119.6 117.3 L 119.8 117.8 L 120.2 118.2 L 121.0 118.7 L 122.1 119.1 L 123.5 119.3 L 149.5 119.3 L 153.5 110.3 L 155.5 110.3 L 153.5 119.3 L 155.9 120.9 L 157.5 123.3 L 155.9 125.7 L 153.5 127.3 L 123.5 127.3 Z M 134.0 14.1 L 137.0 16.1 L 134.0 17.9 L 134.0 29.4 L 165.0 29.4 L 175.0 19.4 L 187.0 29.4 L 187.0 33.4 L 134.0 33.4 L 134.0 46.1 L 122.0 52.1 L 122.0 33.4 L 78.0 33.4 L 78.0 46.1 L 66.0 52.1 L 66.0 33.4 L 13.0 33.4 L 13.0 29.4 L 66.0 29.4 L 66.0 12.1 L 78.0 14.1 L 81.0 16.1 L 78.0 17.9 L 78.0 29.4 L 122.0 29.4 L 122.0 12.1 Z " />
</g>
</svg>
