<svg xmlns="http://www.w3.org/2000/svg" xmlns:xlink="http://www.w3.org/1999/xlink" version="1.1" baseProfile="full" viewBox="0 0 200 200" width="200" height="200">
<g fill="black">
<path d="M 73.0 180.2 L 71.5 182.3 L 69.9 184.1 L 68.1 185.7 L 66.1 187.1 L 63.9 188.2 L 61.6 189.1 L 59.2 189.7 L 56.8 190.1 L 54.3 190.2 L 54.3 184.2 L 38.3 181.2 L 38.3 178.2 L 54.3 178.2 L 55.7 178.1 L 56.9 177.9 L 58.0 177.7 L 58.9 177.3 L 59.8 176.8 L 60.6 176.3 L 61.16963348388672 175.80157070159913 L 63.0 172.3 L 66.2 166.1 L 68.5 159.9 L 69.48048782348633 155.48780488967896 L 67.9 156.6 L 62.3 160.3 L 56.2 163.7 L 49.8 166.9 L 43.1 169.8 L 36.0 172.6 L 28.5 175.0 L 20.6 177.2 L 12.4 178.9 L 11.8 177.2 L 19.3 173.6 L 26.5 170.1 L 33.3 166.6 L 39.7 163.0 L 45.8 159.4 L 51.4 155.7 L 56.6 151.9 L 61.5 148.1 L 65.9 144.1 L 70.0 140.1 L 70.2850504875183 140.3953535079956 L 69.3 133.5 L 68.234117603302 129.71611766815187 L 63.4 133.1 L 58.2 136.4 L 52.8 139.6 L 47.2 142.5 L 41.5 145.3 L 35.5 147.8 L 29.4 150.1 L 23.0 152.0 L 16.3 153.7 L 15.7 152.0 L 21.5 148.6 L 27.1 145.2 L 32.6 141.9 L 37.8 138.6 L 42.9 135.2 L 47.8 131.7 L 52.5 128.2 L 56.9 124.5 L 61.2 120.8 L 64.09615554809571 118.04865226745605 L 60.8 111.1 L 59.860403537750244 109.38784637451172 L 58.3 110.4 L 50.9 114.9 L 43.3 118.9 L 35.8 122.6 L 28.1 125.8 L 20.3 128.5 L 12.4 130.7 L 11.8 129.0 L 18.8 125.1 L 25.7 121.0 L 32.7 116.8 L 39.5 112.4 L 46.3 107.7 L 53.0 102.8 L 59.7 97.6 L 66.3 92.1 L 72.8 86.3 L 79.2 80.2 L 79.4 80.0 L 87.3 89.1 L 87.8 92.6 L 84.25529193878174 91.5872262954712 L 80.2 94.9 L 72.9 100.5 L 65.7 105.6 L 62.95912790298462 107.37786293029785 L 64.3 108.8 L 69.7 116.1 L 74.0 123.6 L 77.3 131.2 L 79.6 139.0 L 80.8 146.8 L 80.9 154.7 L 79.9 162.6 L 77.9 170.5 L 74.8 178.3 L 74.12921028137207 178.2238820075989 Z M 54.3 88.1 L 53.9 86.5 L 53.2 84.9 L 52.2 83.1 L 51.0 81.4 L 49.5 79.6 L 47.7 77.8 L 46.57964153289795 76.73565940856933 L 44.4 77.6 L 38.5 79.7 L 32.5 81.6 L 26.3 83.3 L 19.9 84.6 L 13.3 85.6 L 12.8 83.9 L 18.7 81.0 L 24.5 78.2 L 30.1 75.5 L 35.6 72.8 L 40.9 69.9 L 46.0 67.0 L 51.0 64.0 L 55.8 60.9 L 60.5 57.7 L 64.20224552154541 54.902747821807864 L 64.2 54.9 L 64.20238094329834 54.90264549255371 L 65.0 54.3 L 66.0 55.75588235855103 L 66.0 37.7 L 13.0 37.7 L 13.0 33.7 L 66.0 33.7 L 66.0 12.2 L 78.0 14.2 L 81.0 16.2 L 78.0 18.0 L 78.0 33.7 L 122.0 33.7 L 122.0 12.2 L 134.0 14.2 L 137.0 16.2 L 134.0 18.0 L 134.0 33.7 L 165.0 33.7 L 175.0 23.7 L 187.0 33.7 L 187.0 37.7 L 134.0 37.7 L 134.0 54.3 L 133.65242719650269 54.473786449432374 L 144.2 58.9 L 146.6 61.6 L 142.5642457962036 62.75307264328003 L 141.8 64.6 L 140.5 67.5 L 139.1 70.3 L 136.1 76.1 L 134.4 78.9 L 132.6 81.7 L 130.7 84.5 L 130.40689659118652 85.0 L 169.7 85.0 L 175.7 80.0 L 186.7 89.0 L 181.7 93.0 L 181.7 179.5 L 169.7 185.5 L 169.7 175.5 L 106.3 175.5 L 106.3 182.5 L 94.3 188.5 L 94.3 79.0 L 106.3 85.0 L 127.825 85.0 L 128.2 83.5 L 128.7 80.2 L 129.3 77.0 L 129.8 73.8 L 130.4 70.7 L 131.4 64.7 L 131.8 61.7 L 132.2 58.8 L 132.39490175247192 56.9159499168396 L 132.3 56.9 L 132.46065578460693 56.28032789230347 L 132.5 55.9 L 132.55556545257568 55.91424751281738 L 132.82127656936646 54.889361667633054 L 122.0 60.3 L 122.0 37.7 L 78.0 37.7 L 78.0 54.3 L 68.32330827713012 59.138345909118655 L 69.31848344802856 60.58720378875732 L 72.3 63.9 L 72.4 67.4 L 68.89258880615235 65.93326435089111 L 66.6 67.3 L 61.3 70.1 L 55.8 72.8 L 50.96946563720703 74.95648851394654 L 52.3 75.4 L 54.8 76.5 L 57.2 77.8 L 59.4 79.4 L 61.4 81.1 L 63.3 83.1 L 64.9 85.3 L 66.2 87.8 L 65.7 92.3 L 62.2 95.3 L 57.7 94.7 L 54.7 91.2 L 54.6 89.7 Z M 106.3 131.1 L 106.3 171.5 L 169.7 171.5 L 169.7 131.1 Z M 106.3 89.0 L 106.3 127.1 L 169.7 127.1 L 169.7 89.0 Z M 36.4 99.7 L 36.2 98.3 L 35.8 96.8 L 35.1 95.2 L 34.1 93.4 L 32.9 91.6 L 31.4 89.7 L 29.6 87.6 L 27.3 86.0 L 28.2 84.4 L 30.8 85.7 L 33.5 86.6 L 36.0 87.7 L 38.3 88.9 L 40.4 90.3 L 42.4 91.8 L 44.2 93.5 L 45.7 95.4 L 47.0 97.6 L 48.0 99.9 L 47.0 104.3 L 43.1 106.8 L 38.7 105.7 L 36.2 101.9 L 36.4 100.9 Z " />
</g>
</svg>
