<svg xmlns="http://www.w3.org/2000/svg" xmlns:xlink="http://www.w3.org/1999/xlink" version="1.1" baseProfile="full" viewBox="0 0 200 200" width="200" height="200">
<g fill="black">
<path d="M 84.5 118.5 L 82.5 116.4 L 80.3 114.3 L 77.8 112.3 L 75.0 110.2 L 71.9 108.2 L 68.4 106.2 L 66.0 104.83783779144287 L 66.0 119.8 L 54.0 125.8 L 54.0 124.625 L 51.97537689208984 125.13115577697754 L 51.3 126.9 L 49.58301887512207 130.4 L 74.0 130.4 L 80.0 125.4 L 91.0 134.4 L 86.0 137.4 L 83.57167701721191 138.41180124282837 L 81.2 143.1 L 76.2 150.9 L 73.14027423858643 154.64552640914917 L 74.6 155.5 L 78.5 158.0 L 82.2 160.7 L 85.9 163.5 L 87.7 167.7 L 86.1 172.0 L 82.0 173.8 L 77.7 172.3 L 74.8 169.3 L 71.8 166.4 L 68.7 163.5 L 66.6471544265747 161.69598426818848 L 63.8 164.5 L 56.6 170.3 L 48.6 175.4 L 40.0 179.8 L 30.7 183.5 L 20.8 186.4 L 10.2 188.4 L 9.7 186.7 L 19.6 182.7 L 28.7 178.5 L 37.0 174.0 L 44.5 169.0 L 51.3 163.6 L 57.4 157.8 L 59.1579852104187 155.7434889793396 L 58.3 155.1 L 54.5 152.4 L 50.7 149.6 L 46.7 146.8 L 42.5 144.0 L 43.2 142.3 L 48.2 143.6 L 53.0 145.1 L 57.6 146.8 L 62.0 148.7 L 64.02687788009644 149.66737356185914 L 67.3 144.9 L 71.2 137.7 L 72.58947372436523 134.4 L 47.44901962280274 134.4 L 45.8 137.3 L 42.5 142.3 L 38.8 147.1 L 34.8 151.6 L 30.3 156.0 L 25.5 160.1 L 20.2 164.0 L 14.5 167.5 L 13.4 166.0 L 17.7 161.1 L 21.7 156.3 L 25.5 151.6 L 28.9 146.8 L 31.9 142.1 L 34.6 137.4 L 37.0 132.6 L 39.0 127.8 L 40.6 122.9 L 41.63291759490967 119.00669507980346 L 41.6 119.0 L 41.851851844787596 118.18148145675659 L 41.9 118.0 L 41.907050895690915 118.00208463668824 L 42.4 116.4 L 53.4 121.4 L 54.0 122.13043479919433 L 54.0 103.2 L 53.0 104.2 L 48.3 108.3 L 43.2 112.4 L 37.8 116.3 L 32.1 120.0 L 25.9 123.6 L 19.4 126.9 L 12.4 129.9 L 11.5 128.4 L 17.4 123.7 L 22.9 119.1 L 28.2 114.7 L 33.1 110.3 L 37.7 105.9 L 41.9 101.6 L 45.7 97.2 L 49.2 92.9 L 52.2 88.6 L 54.0 85.77142858505249 L 54.0 64.0 L 14.0 64.0 L 14.0 60.0 L 54.0 60.0 L 54.0 47.4 L 66.0 49.4 L 69.0 51.4 L 66.0 53.2 L 66.0 60.0 L 79.0 60.0 L 89.0 50.0 L 101.0 60.0 L 101.0 64.0 L 66.0 64.0 L 66.0 101.36363639831544 L 70.0 102.0 L 74.1 102.9 L 78.0 104.1 L 81.6 105.4 L 85.1 106.9 L 88.3 108.7 L 91.3 110.6 L 94.2 112.7 L 96.7 115.0 L 98.0 119.4 L 95.8 123.5 L 91.4 124.7 L 87.4 122.6 L 86.1 120.5 Z M 97.6 176.0 L 134.9 176.0 L 134.9 104.0 L 94.2 104.0 L 94.2 101.5 L 92.5 101.5 L 89.3 98.3 L 89.3 97.2 L 89.1 96.1 L 88.7 94.7 L 88.2 93.3 L 87.4 91.8 L 86.4 90.1 L 85.2 88.4 L 83.9 86.6 L 82.4 84.7 L 81.833993434906 84.29570960998535 L 79.9 87.1 L 77.6 89.9 L 75.1 92.6 L 72.3 95.1 L 69.6 97.7 L 68.3 96.6 L 70.2 93.4 L 71.6 90.2 L 72.9 87.0 L 74.0 83.9 L 74.9 81.0 L 75.7 78.0 L 76.3 75.2 L 76.6 72.4 L 76.8 69.7 L 76.86271390914916 68.00672369003296 L 76.7 68.0 L 77.1 64.9 L 88.8 68.5 L 91.5 70.8 L 87.61534090042115 72.55909090042114 L 86.7 75.0 L 85.3 78.2 L 83.7 81.3 L 82.90749416351318 82.57681503295899 L 83.5 82.9 L 86.0 83.7 L 90.4 85.5 L 92.4 86.6 L 94.2 87.8 L 96.0 89.1 L 97.6 90.4 L 99.0 92.0 L 100.3 93.7 L 100.3 98.2 L 98.55454549789428 100.0 L 134.9 100.0 L 134.9 38.66666669845581 L 132.9 39.0 L 124.7 40.1 L 116.3 41.0 L 107.6 41.6 L 98.6 41.8 L 98.4 40.1 L 107.0 37.8 L 115.4 35.7 L 123.5 33.6 L 131.3 31.5 L 138.8 29.4 L 146.0 27.2 L 152.8 25.0 L 159.4 22.6 L 165.6 20.2 L 171.5 17.7 L 172.1843095779419 19.482387828826905 L 180.8 27.0 L 181.0 30.1 L 177.05094194412231 28.424642086029053 L 175.8 28.9 L 169.4 31.0 L 162.6 32.9 L 155.6 34.6 L 148.3 36.2 L 146.9 36.47631578445434 L 146.9 100.0 L 165.6 100.0 L 175.6 90.0 L 187.6 100.0 L 187.6 104.0 L 146.9 104.0 L 146.9 176.0 L 162.1 176.0 L 172.1 166.0 L 184.1 176.0 L 184.1 180.0 L 97.6 180.0 Z M 37.7 89.5 L 37.6 88.6 L 37.3 87.5 L 36.9 86.4 L 36.2 85.1 L 35.4 83.8 L 34.81830987930298 83.05966711044312 L 32.7 87.2 L 30.3 91.2 L 27.5 94.9 L 24.4 98.3 L 21.1 101.4 L 17.4 104.2 L 13.5 106.6 L 12.4 105.3 L 15.0 101.8 L 17.4 98.2 L 19.5 94.6 L 21.4 91.0 L 23.1 87.2 L 24.5 83.4 L 25.7 79.5 L 26.6 75.4 L 27.4 71.2 L 27.785633850097657 67.80642251968384 L 27.7 67.8 L 28.2 64.8 L 39.7 68.7 L 42.4 71.1 L 38.69017858505249 72.58392858505249 L 38.4 73.7 L 36.8 78.4 L 36.31632652282715 79.54554243087769 L 38.0 79.9 L 41.4 81.1 L 43.1 81.9 L 44.6 82.8 L 46.0 83.9 L 47.3 85.2 L 48.5 86.6 L 48.3 91.2 L 45.0 94.4 L 40.4 94.1 L 37.3 90.8 L 37.5 90.3 Z M 79.4 13.7 L 82.4 15.7 L 79.4 17.5 L 79.4 31.0 L 83.11818180084228 31.0 L 91.3 22.0 L 101.3 31.0 L 101.3 35.0 L 79.4 35.0 L 79.4 44.2 L 67.4 50.2 L 67.4 35.0 L 45.5 35.0 L 45.5 44.2 L 33.5 50.2 L 33.5 35.0 L 11.6 35.0 L 11.6 31.0 L 33.5 31.0 L 33.5 11.7 L 45.5 13.7 L 48.5 15.7 L 45.5 17.5 L 45.5 31.0 L 67.4 31.0 L 67.4 11.7 Z " />
</g>
</svg>
