<svg xmlns="http://www.w3.org/2000/svg" xmlns:xlink="http://www.w3.org/1999/xlink" version="1.1" baseProfile="full" viewBox="0 0 200 200" width="200" height="200">
<g fill="black">
<path d="M 82.0 89.7 L 82.0 93.7 L 49.2 93.7 L 49.2 182.4 L 39.2 187.4 L 39.2 93.7 L 10.6 93.7 L 10.6 89.7 L 60.0 89.7 L 70.0 79.7 Z M 115.5 169.2 L 115.3 167.7 L 115.0 166.1 L 114.6 164.4 L 114.0 162.7 L 113.2 160.8 L 112.4 159.0 L 111.3 157.0 L 109.8 155.4 L 110.9 154.0 L 112.8 155.4 L 114.9 156.4 L 116.9 157.6 L 118.8 158.9 L 120.5 160.4 L 122.1 162.0 L 123.6 163.7 L 124.9 165.5 L 126.1 167.5 L 127.1 169.6 L 126.3 174.1 L 122.7814814567566 176.6 L 139.4800000190735 176.6 L 140.0 175.6 L 140.8 172.9 L 141.6 170.3 L 142.5 167.8 L 143.3 165.3 L 144.0 162.9 L 144.8 160.6 L 146.3403214454651 154.9521548271179 L 146.2 154.9 L 146.59230766296386 154.02820510864257 L 146.6 154.0 L 146.60413036346435 154.00193252563477 L 146.83000001907348 153.5 L 108.0 153.5 L 96.0 159.5 L 96.0 122.6 L 108.0 128.6 L 157.9 128.6 L 163.9 123.6 L 174.9 132.6 L 169.9 136.6 L 169.9 155.5 L 158.66999998092652 161.11499996185302 L 159.3 162.2 L 154.85029468536376 162.66031436920167 L 154.6 163.0 L 151.4 167.0 L 149.7 169.0 L 146.1 173.0 L 144.1 174.9 L 142.31499996185303 176.6 L 165.6 176.6 L 175.6 166.6 L 187.6 176.6 L 187.6 180.6 L 78.4 180.6 L 78.4 176.6 L 121.5222222328186 176.6 L 118.1 175.9 L 115.4 172.2 L 115.5 170.7 Z M 29.2 107.7 L 32.0 109.7 L 29.2 111.45 L 29.2 132.8 L 28.8 139.4 L 28.1 145.5 L 27.0 151.2 L 25.7 156.4 L 24.1 161.1 L 22.1 165.3 L 19.8 169.0 L 17.2 172.0 L 14.2 174.4 L 11.1 176.1 L 10.1 174.7 L 12.0 172.2 L 13.5 169.3 L 14.8 166.2 L 15.9 162.8 L 16.8 158.9 L 17.6 154.6 L 18.1 149.8 L 18.4 144.6 L 18.4 138.9 L 18.2 132.8 L 18.2 105.7 Z M 71.9 107.7 L 74.6 109.7 L 71.9 111.42340421676636 L 71.9 160.0 L 60.9 165.5 L 60.9 105.7 Z M 148.10645160675048 153.5 L 157.5 159.1 L 157.9 159.7888889312744 L 157.9 153.5 Z M 108.0 132.6 L 108.0 149.5 L 157.9 149.5 L 157.9 132.6 Z M 186.3 115.0 L 186.3 119.0 L 79.7 119.0 L 79.7 115.0 L 172.0777777671814 115.0 L 178.3 108.0 Z M 89.4 112.2 L 89.4 58.3 L 101.4 64.3 L 114.4 64.3 L 114.4 48.4 L 122.0 49.66666669845581 L 122.0 33.6 L 78.0 33.6 L 78.0 46.4 L 66.0 52.4 L 66.0 33.6 L 13.0 33.6 L 13.0 29.6 L 66.0 29.6 L 66.0 12.2 L 78.0 14.2 L 81.0 16.2 L 78.0 18.0 L 78.0 29.6 L 122.0 29.6 L 122.0 12.2 L 134.0 14.2 L 137.0 16.2 L 134.0 18.0 L 134.0 29.6 L 165.0 29.6 L 175.0 19.6 L 187.0 29.6 L 187.0 33.6 L 134.0 33.6 L 134.0 46.4 L 126.1 50.35 L 126.4 50.4 L 129.4 52.4 L 126.4 54.2 L 126.4 64.3 L 139.4 64.3 L 139.4 48.4 L 151.4 50.4 L 154.4 52.4 L 151.4 54.2 L 151.4 64.3 L 164.4 64.3 L 170.4 59.3 L 181.4 68.3 L 176.4 72.3 L 176.4 106.2 L 164.4 112.2 L 164.4 106.2 L 101.4 106.2 Z M 101.4 85.9 L 101.4 102.2 L 114.4 102.2 L 114.4 85.9 Z M 126.4 85.9 L 126.4 102.2 L 139.4 102.2 L 139.4 85.9 Z M 151.4 85.9 L 151.4 102.2 L 164.4 102.2 L 164.4 85.9 Z M 101.4 68.3 L 101.4 81.9 L 114.4 81.9 L 114.4 68.3 Z M 126.4 68.3 L 126.4 81.9 L 139.4 81.9 L 139.4 68.3 Z M 151.4 68.3 L 151.4 81.9 L 164.4 81.9 L 164.4 68.3 Z M 72.9 61.2 L 72.9 65.2 L 18.8 65.2 L 18.8 61.2 L 50.9 61.2 L 60.9 51.2 Z " />
</g>
</svg>
