<svg xmlns="http://www.w3.org/2000/svg" xmlns:xlink="http://www.w3.org/1999/xlink" version="1.1" baseProfile="full" viewBox="0 0 200 200" width="200" height="200">
<g fill="black">
<path d="M 35.3 141.9 L 38.0 144.3 L 34.37613468170166 145.87262077331542 L 34.3 146.2 L 32.9 150.5 L 31.3 154.7 L 29.5 158.8 L 27.4 162.8 L 25.1 166.8 L 22.4 170.6 L 19.5 174.3 L 16.3 177.8 L 12.8 181.2 L 11.4 180.1 L 13.5 175.9 L 15.3 171.6 L 17.1 167.5 L 18.6 163.5 L 19.9 159.6 L 21.0 155.6 L 22.0 151.8 L 22.7 147.9 L 23.1 144.1 L 23.3209698677063 141.30104846954345 L 23.3 141.3 L 23.351612949371336 140.91290321350098 L 23.4 140.3 L 23.43274631500244 140.30440282821655 L 23.7 138.3 Z M 102.2 157.0 L 102.2 174.2 L 126.8 174.2 L 126.8 157.0 Z M 138.8 157.0 L 138.8 174.2 L 163.3 174.2 L 163.3 157.0 Z M 66.8 158.9 L 66.1 156.0 L 65.2 153.3 L 64.2 150.6 L 63.0 147.9 L 61.6 145.3 L 60.2 142.6 L 58.6 140.0 L 56.5 137.6 L 57.7 136.2 L 60.4 138.0 L 63.2 139.7 L 65.9 141.8 L 68.3 144.0 L 70.6 146.5 L 72.7 149.2 L 74.7 152.0 L 76.5 155.1 L 78.1 158.3 L 79.5 161.7 L 78.8 166.2 L 75.2 169.0 L 70.7 168.4 L 67.9 164.8 L 67.4 161.8 Z M 102.2 136.4 L 102.2 153.0 L 126.8 153.0 L 126.8 136.4 Z M 138.8 136.4 L 138.8 153.0 L 163.3 153.0 L 163.3 136.4 Z M 169.2 126.2 L 165.1 123.6 L 161.0 120.7 L 156.9 117.6 L 152.8 114.2 L 148.7 110.6 L 144.7 106.7 L 140.8 102.5 L 138.8 99.95945949554444 L 138.8 126.4 L 126.8 132.4 L 126.8 103.90476188659667 L 126.0 104.8 L 121.6 109.3 L 116.9 113.4 L 111.9 117.3 L 106.7 120.9 L 101.2 124.3 L 95.4 127.3 L 93.61052627563477 128.1052631378174 L 102.2 132.4 L 163.3 132.4 L 169.3 127.4 L 180.3 136.4 L 175.3 140.4 L 175.3 180.2 L 163.3 186.2 L 163.3 178.2 L 102.2 178.2 L 102.2 181.2 L 90.2 187.2 L 90.2 129.63999996185302 L 89.4 130.0 L 83.0 132.2 L 76.4 134.1 L 75.94124832153321 132.98588876724244 L 71.6 132.6 L 68.5 129.2 L 68.0 126.5 L 67.3 123.8 L 66.95741939544678 122.81032257080078 L 65.8 123.3 L 60.5 125.2 L 55.1 126.8 L 52.9 127.4 L 52.9 182.2 L 40.9 188.2 L 40.9 130.41964282989503 L 38.4 131.0 L 32.7 132.2 L 26.9 133.3 L 19.23541603088379 134.59908199310303 L 17.4 138.0 L 15.1 135.3 L 12.0 123.5 L 13.9 123.3 L 19.8 123.0 L 25.6 122.7 L 28.619950008392333 122.48807363510132 L 29.9 120.6 L 38.1 109.2 L 42.2 103.6 L 46.2 98.0 L 50.2 92.5 L 54.1 86.9 L 61.7 75.7 L 64.85110397338867 70.93076162338257 L 64.8 70.9 L 65.8 69.4 L 75.1 77.1 L 76.4 80.5 L 72.65001497268676 80.17672538757324 L 70.8 82.5 L 66.5 87.8 L 62.0 93.0 L 52.8 103.4 L 48.0 108.5 L 43.1 113.5 L 38.0 118.4 L 34.03489503860474 122.06009693145752 L 37.0 121.8 L 42.7 121.4 L 59.5 119.9 L 65.0 119.6 L 65.7440559387207 119.56013984680176 L 65.4 118.7 L 64.3 116.2 L 63.0 113.7 L 61.5 111.2 L 59.9 108.7 L 58.1 106.1 L 55.9 103.9 L 56.9 102.5 L 59.8 104.1 L 62.7 105.6 L 65.4 107.4 L 68.0 109.4 L 70.4 111.7 L 72.7 114.1 L 74.7 116.6 L 76.6 119.4 L 78.4 122.3 L 79.9 125.4 L 79.5 130.0 L 81.4 128.8 L 86.9 125.2 L 92.0 121.6 L 97.0 117.9 L 101.6 114.1 L 106.0 110.2 L 110.0 106.1 L 113.8 101.9 L 116.58181819915771 98.5 L 80.3 98.5 L 80.3 94.5 L 126.8 94.5 L 126.8 68.40638294219971 L 124.2 68.6 L 114.2 69.2 L 103.6 69.7 L 92.3 69.9 L 80.3 69.9 L 80.2 68.1 L 91.9 66.1 L 103.1 64.3 L 113.5 62.7 L 123.3 61.1 L 132.5 59.5 L 140.9 57.8 L 148.8 56.2 L 155.9 54.6 L 162.3 52.9 L 167.1296215057373 51.484421253204346 L 167.1 51.4 L 167.1826530456543 51.468877506256106 L 168.1 51.2 L 168.4406593322754 52.51721611022949 L 178.5 60.9 L 178.8 63.9 L 174.49700784683228 61.92779531478882 L 171.1 62.8 L 164.8 64.0 L 157.9 65.1 L 150.5 66.1 L 142.3 67.0 L 138.8 67.36206893920898 L 138.8 94.5 L 146.9083333015442 94.5 L 146.8 94.4 L 148.5 91.7 L 149.9 88.8 L 151.4 86.0 L 152.9 83.3 L 154.3 80.6 L 155.7 78.0 L 157.0 75.4 L 159.6 70.4 L 160.39084339141846 68.75240964889527 L 160.3 68.7 L 160.71428575515748 68.0785714149475 L 160.8 67.9 L 160.82286376953124 67.91570434570312 L 161.3 67.2 L 170.7 74.7 L 172.1 78.1 L 167.79677419662477 77.80322580337524 L 166.7 78.9 L 164.7 81.1 L 160.3 85.3 L 158.0 87.3 L 155.6 89.4 L 153.1 91.4 L 150.5 93.4 L 149.3 94.5 L 164.3 94.5 L 174.3 84.5 L 186.3 94.5 L 186.3 98.5 L 142.01428575515746 98.5 L 143.5 99.3 L 148.4 102.1 L 153.0 104.8 L 157.6 107.4 L 162.0 109.8 L 166.3 112.0 L 170.5 114.0 L 174.6 115.8 L 178.7 117.3 L 182.6 118.7 L 188.9 121.4 L 177.4 130.9 L 173.3 128.7 Z M 28.4 96.5 L 27.3 94.2 L 25.9 92.0 L 24.3 89.8 L 22.5 87.5 L 20.4 85.2 L 18.1 83.0 L 15.6 80.6 L 12.6 78.6 L 13.4 77.0 L 16.8 78.3 L 20.3 79.4 L 23.5 80.8 L 26.6 82.4 L 27.84050636291504 83.15316457748413 L 28.6 81.9 L 30.4 78.5 L 32.2 75.2 L 34.0 72.0 L 35.8 68.7 L 37.6 65.5 L 39.3 62.3 L 41.0 59.2 L 43.739700412750246 53.720599269866945 L 43.7 53.7 L 44.03333330154419 53.13333330154419 L 44.2 52.8 L 44.22142553329468 52.81357660293579 L 44.7 52.0 L 54.3 59.2 L 55.8 62.5 L 51.73829908370972 62.42997064590454 L 49.7 65.0 L 47.2 67.9 L 44.7 70.7 L 39.5 76.1 L 36.8 78.8 L 33.9 81.4 L 30.9 83.8 L 30.03814353942871 84.57269887924194 L 32.1 86.1 L 34.6 88.2 L 36.9 90.6 L 39.0 93.1 L 40.9 95.8 L 41.1 100.4 L 38.0 103.8 L 33.5 104.0 L 30.0 100.9 L 29.3 98.7 Z M 103.3 86.6 L 102.8 84.9 L 101.4 81.5 L 100.5 79.8 L 99.5 78.1 L 98.3 76.4 L 97.1 74.6 L 95.4 73.3 L 96.3 71.7 L 98.3 72.8 L 100.5 73.5 L 102.7 74.4 L 104.8 75.4 L 106.7 76.7 L 108.6 78.1 L 110.4 79.7 L 112.0 81.4 L 113.6 83.2 L 115.0 85.3 L 115.0 89.8 L 111.9 93.1 L 107.3 93.1 L 104.0 90.0 L 103.7 88.3 Z M 134.0 14.2 L 137.0 16.2 L 134.0 18.0 L 134.0 31.6 L 165.0 31.6 L 175.0 21.6 L 187.0 31.6 L 187.0 35.6 L 134.0 35.6 L 134.0 50.2 L 122.0 56.2 L 122.0 35.6 L 78.0 35.6 L 78.0 50.2 L 66.0 56.2 L 66.0 35.6 L 13.0 35.6 L 13.0 31.6 L 66.0 31.6 L 66.0 12.2 L 78.0 14.2 L 81.0 16.2 L 78.0 18.0 L 78.0 31.6 L 122.0 31.6 L 122.0 12.2 Z " />
</g>
</svg>
