<svg xmlns="http://www.w3.org/2000/svg" xmlns:xlink="http://www.w3.org/1999/xlink" version="1.1" baseProfile="full" viewBox="0 0 200 200" width="200" height="200">
<g fill="black">
<path d="M 137.5 168.6 L 137.9 172.2 L 134.17612295150758 170.845862865448 L 133.8 171.1 L 129.7 173.6 L 125.4 175.9 L 120.8 178.2 L 116.0 180.3 L 110.8 182.4 L 105.3 184.4 L 99.5 186.2 L 93.4 187.8 L 86.9 189.1 L 86.3 187.4 L 92.0 184.2 L 97.5 181.2 L 102.7 178.4 L 107.5 175.6 L 112.1 172.8 L 116.3 170.1 L 120.2 167.4 L 123.7 164.7 L 127.0 162.0 L 129.12560977935792 160.0262195587158 L 129.1 160.0 L 130.0 159.2 Z M 171.2 179.7 L 169.0 177.4 L 166.7 175.1 L 164.1 172.8 L 161.3 170.6 L 158.3 168.5 L 155.1 166.3 L 151.8 164.1 L 148.1 162.1 L 148.7 160.4 L 152.9 161.3 L 157.0 162.2 L 160.9 163.3 L 164.6 164.6 L 168.2 166.2 L 171.7 167.9 L 175.0 169.7 L 178.1 171.8 L 181.1 174.0 L 183.9 176.4 L 185.3 180.7 L 183.4 184.9 L 179.1 186.4 L 175.0 184.4 L 173.2 182.0 Z M 73.6 151.5 L 73.6 150.2 L 73.5 148.6 L 73.1 147.0 L 73.09770994186401 146.9931297302246 L 70.4 148.2 L 66.6 150.1 L 62.9 151.7 L 59.1 153.2 L 55.4 154.7 L 51.7 156.1 L 48.0 157.4 L 41.30057144165039 159.6331428527832 L 39.8 163.5 L 37.2 160.9 L 32.7 149.6 L 34.7 149.2 L 38.3 148.8 L 42.1 148.3 L 45.8 147.9 L 49.6 147.4 L 51.0 147.22051286697388 L 51.0 129.1 L 32.0 129.1 L 32.0 178.9 L 20.0 184.9 L 20.0 119.1 L 32.0 125.1 L 51.0 125.1 L 51.0 103.4 L 35.0 103.4 L 35.0 110.4 L 23.0 116.4 L 23.0 49.9 L 35.0 55.9 L 80.0 55.9 L 86.0 50.9 L 97.0 59.9 L 92.0 63.9 L 92.0 107.4 L 80.0 113.4 L 80.0 103.4 L 63.0 103.4 L 63.0 125.1 L 85.0 125.1 L 91.0 120.1 L 102.0 129.1 L 97.0 133.1 L 97.0 164.6 L 96.8 167.2 L 96.4 169.7 L 95.6 172.1 L 94.3 174.3 L 92.7 176.3 L 90.7 178.0 L 88.4 179.2 L 86.0 180.0 L 83.5 180.5 L 81.0 180.6 L 81.0 174.6 L 67.0 171.6 L 67.0 168.6 L 81.0 168.6 L 82.2 168.5 L 83.1 168.4 L 83.7 168.2 L 84.0 168.0 L 84.2 167.9 L 84.4 167.7 L 84.5 167.3 L 84.7 166.7 L 84.9 165.8 L 85.0 164.6 L 85.0 129.1 L 63.0 129.1 L 63.0 145.83999996185304 L 65.4 145.6 L 69.6 145.2 L 72.37190179824829 144.92957057952881 L 71.6 143.3 L 70.5 141.2 L 69.2 139.1 L 67.2 137.3 L 68.3 135.8 L 70.6 137.4 L 73.0 138.6 L 75.3 139.9 L 77.3 141.4 L 79.2 143.1 L 80.8 144.9 L 82.3 146.9 L 83.4 149.1 L 84.3 151.4 L 85.0 153.9 L 83.2 158.1 L 79.0 159.9 L 74.8 158.1 L 73.0 153.9 L 73.3 152.8 Z M 187.5 57.5 L 187.5 61.5 L 151.6666666984558 61.5 L 150.9 62.5 L 149.1 64.8 L 147.2 67.1 L 145.1 69.3 L 143.1 71.4 L 140.9 73.5 L 138.7 75.4 L 136.3 77.3 L 133.9 79.1 L 132.5235294342041 80.0 L 164.1 80.0 L 170.1 75.0 L 181.1 84.0 L 176.1 88.0 L 176.1 153.3 L 164.1 159.3 L 164.1 153.3 L 122.2 153.3 L 110.2 159.3 L 110.2 74.0 L 122.2 80.0 L 128.75 80.0 L 129.5 79.0 L 130.9 76.4 L 132.3 73.9 L 136.2 66.4 L 137.4 63.9 L 138.45600004196166 61.5 L 100.5 61.5 L 100.5 57.5 L 165.5 57.5 L 175.5 47.5 Z M 122.2 129.9 L 122.2 149.3 L 164.1 149.3 L 164.1 129.9 Z M 122.2 107.4 L 122.2 125.9 L 164.1 125.9 L 164.1 107.4 Z M 122.2 84.0 L 122.2 103.4 L 164.1 103.4 L 164.1 84.0 Z M 35.0 81.6 L 35.0 99.4 L 51.0 99.4 L 51.0 81.6 Z M 63.0 81.6 L 63.0 99.4 L 80.0 99.4 L 80.0 81.6 Z M 35.0 59.9 L 35.0 77.6 L 51.0 77.6 L 51.0 59.9 Z M 63.0 59.9 L 63.0 77.6 L 80.0 77.6 L 80.0 59.9 Z M 134.0 13.5 L 137.0 15.5 L 134.0 17.3 L 134.0 29.6 L 165.0 29.6 L 175.0 19.6 L 187.0 29.6 L 187.0 33.6 L 134.0 33.6 L 134.0 47.0 L 122.0 53.0 L 122.0 33.6 L 78.0 33.6 L 78.0 47.0 L 66.0 53.0 L 66.0 33.6 L 13.0 33.6 L 13.0 29.6 L 66.0 29.6 L 66.0 11.5 L 78.0 13.5 L 81.0 15.5 L 78.0 17.3 L 78.0 29.6 L 122.0 29.6 L 122.0 11.5 Z " />
</g>
</svg>
