<svg xmlns="http://www.w3.org/2000/svg" xmlns:xlink="http://www.w3.org/1999/xlink" version="1.1" baseProfile="full" viewBox="0 0 200 200" width="200" height="200">
<g fill="black">
<path d="M 46.9 103.7 L 79.0 103.7 L 85.0 98.7 L 96.0 107.7 L 91.0 111.7 L 91.0 119.8 L 81.71428575515748 124.44285717010499 L 83.0 125.3 L 80.0 127.1 L 80.0 129.6 L 120.0 129.6 L 120.0 121.3 L 132.0 123.3 L 135.0 125.3 L 132.0 127.1 L 132.0 129.6 L 166.5 129.6 L 171.0 123.6 L 177.0 129.6 L 177.0 133.6 L 132.0 133.6 L 132.0 140.0 L 157.5 140.0 L 162.0 134.0 L 168.0 140.0 L 168.0 144.0 L 132.0 144.0 L 132.0 150.4 L 167.8181818008423 150.4 L 176.0 141.4 L 186.0 150.4 L 186.0 154.4 L 162.3800000190735 154.4 L 170.2 161.3 L 170.4 164.4 L 166.49023056030273 162.682071018219 L 165.1 163.2 L 162.3 163.8 L 159.3 164.5 L 156.1 165.2 L 152.9 165.8 L 149.5 166.5 L 145.9 167.2 L 143.42064876556395 167.60205698013306 L 145.8 168.3 L 153.5 170.2 L 161.6 171.9 L 170.1 173.3 L 179.0 174.5 L 188.8 176.0 L 176.9 187.5 L 167.8 185.6 L 159.0 183.4 L 150.6 180.8 L 142.6 178.0 L 135.0 174.8 L 127.8 171.3 L 121.1 167.5 L 114.9 163.4 L 109.2 158.8 L 104.88627452850342 154.4 L 102.96792449951172 154.4 L 94.8 158.1 L 89.2 160.6 L 83.1 162.9 L 76.3 165.0 L 71.0 166.45205478668214 L 71.0 174.37472524642945 L 81.8 173.9 L 91.0 173.5 L 100.1 173.2 L 109.3 173.0 L 118.6 172.9 L 127.9 173.1 L 128.0 174.9 L 118.9 176.7 L 109.8 178.4 L 100.7 179.8 L 91.6 181.1 L 82.6 182.4 L 73.5 183.5 L 64.5 184.7 L 55.4 185.7 L 46.4 186.8 L 41.45762710571289 187.34915256500244 L 39.6 190.6 L 37.4 187.8 L 34.5 176.0 L 36.5 175.8 L 45.5 175.4 L 54.6 175.0 L 59.0 174.85333337783814 L 59.0 169.2 L 52.5 170.5 L 43.3 171.9 L 33.5 173.2 L 23.1 174.2 L 12.1 174.8 L 11.8 173.1 L 22.5 170.4 L 32.6 167.9 L 42.0 165.5 L 50.8 163.1 L 58.9 160.6 L 66.3 158.1 L 73.0 155.5 L 75.5807692527771 154.4 L 14.0 154.4 L 14.0 150.4 L 68.0 150.4 L 68.0 144.0 L 32.0 144.0 L 32.0 140.0 L 68.0 140.0 L 68.0 133.6 L 23.0 133.6 L 23.0 129.6 L 68.0 129.6 L 68.0 121.3 L 79.0 123.13333330154418 L 79.0 119.8 L 46.9 119.8 L 34.9 125.8 L 34.9 97.9 L 15.0 97.9 L 15.0 93.9 L 94.0 93.9 L 94.0 84.0 L 56.0 84.0 L 44.0 90.0 L 44.0 47.4 L 56.0 53.4 L 144.0 53.4 L 150.0 48.4 L 161.0 57.4 L 156.0 61.4 L 156.0 84.0 L 144.0 90.0 L 144.0 84.0 L 106.45 84.0 L 109.0 85.7 L 106.0 87.5 L 106.0 93.9 L 174.5 93.9 L 179.0 87.9 L 185.0 93.9 L 185.0 97.9 L 109.3 97.9 L 120.9 103.7 L 153.0 103.7 L 159.0 98.7 L 170.0 107.7 L 165.0 111.7 L 165.0 119.8 L 153.0 125.8 L 153.0 119.8 L 120.9 119.8 L 108.9 125.8 L 108.9 97.9 L 35.3 97.9 Z M 111.5 155.3 L 117.9 158.3 L 124.4 161.1 L 131.2 163.7 L 135.28407077789308 165.08053092956544 L 137.0 164.1 L 140.5 162.4 L 143.8 160.7 L 153.0 156.1 L 156.27857141494752 154.4 L 109.63999996185302 154.4 Z M 80.0 144.0 L 80.0 150.4 L 120.0 150.4 L 120.0 144.0 Z M 80.0 133.6 L 80.0 140.0 L 120.0 140.0 L 120.0 133.6 Z M 120.9 107.7 L 120.9 115.8 L 153.0 115.8 L 153.0 107.7 Z M 46.9 107.7 L 46.9 115.8 L 79.0 115.8 L 79.0 107.7 Z M 56.0 70.7 L 56.0 80.0 L 144.0 80.0 L 144.0 70.7 Z M 56.0 57.4 L 56.0 66.7 L 144.0 66.7 L 144.0 57.4 Z M 134.0 13.2 L 137.0 15.2 L 134.0 17.0 L 134.0 28.6 L 165.0 28.6 L 175.0 18.6 L 187.0 28.6 L 187.0 32.6 L 134.0 32.6 L 134.0 45.4 L 122.0 51.4 L 122.0 32.6 L 78.0 32.6 L 78.0 45.4 L 66.0 51.4 L 66.0 32.6 L 13.0 32.6 L 13.0 28.6 L 66.0 28.6 L 66.0 11.2 L 78.0 13.2 L 81.0 15.2 L 78.0 17.0 L 78.0 28.6 L 122.0 28.6 L 122.0 11.2 Z " />
</g>
</svg>
