<svg xmlns="http://www.w3.org/2000/svg" xmlns:xlink="http://www.w3.org/1999/xlink" version="1.1" baseProfile="full" viewBox="0 0 200 200" width="200" height="200">
<g fill="black">
<path d="M 146.7 176.1 L 162.7 176.1 L 163.9 176.0 L 164.8 175.9 L 165.4 175.7 L 165.7 175.5 L 165.9 175.4 L 166.1 175.2 L 166.2 174.8 L 166.4 174.2 L 166.6 173.3 L 166.7 172.1 L 166.7 65.5 L 152.3 65.5 L 152.3 172.8 L 140.3 178.8 L 140.3 65.5 L 127.0 65.5 L 127.0 172.8 L 115.0 178.8 L 115.0 65.5 L 102.1 65.5 L 102.1 182.5 L 91.1 188.0 L 91.1 56.0 L 102.1 61.5 L 120.7 61.5 L 121.4 59.4 L 122.3 55.7 L 123.4 52.0 L 125.6 44.8 L 126.7 41.1 L 129.8472222328186 30.8 L 83.0 30.8 L 83.0 26.8 L 166.3 26.8 L 176.3 16.8 L 188.3 26.8 L 188.3 30.8 L 142.24761905670167 30.8 L 142.2 30.9 L 138.6 37.9 L 136.8 41.3 L 134.9 44.7 L 132.9 48.0 L 130.8 51.3 L 128.7 54.5 L 126.5 57.7 L 124.1 60.8 L 123.58064517974853 61.5 L 166.7 61.5 L 172.7 56.5 L 183.7 65.5 L 178.7 69.5 L 178.7 172.1 L 178.5 174.7 L 178.1 177.2 L 177.3 179.6 L 176.0 181.8 L 174.4 183.8 L 172.4 185.5 L 170.1 186.7 L 167.7 187.5 L 165.2 188.0 L 162.7 188.1 L 162.7 182.1 L 146.7 179.1 Z M 71.9 158.3 L 71.4 154.4 L 70.6 150.4 L 70.42360744476318 149.712068939209 L 68.1 151.6 L 63.1 155.2 L 57.8 158.5 L 52.5 161.7 L 47.0 164.7 L 41.4 167.7 L 35.7 170.5 L 29.9 173.2 L 24.0 175.8 L 21.760574626922608 176.7177972793579 L 20.8 180.4 L 17.9 178.3 L 12.1 167.6 L 14.0 167.0 L 26.0 163.2 L 31.9 161.2 L 42.9 157.21724138259887 L 42.9 112.0 L 29.7 112.0 L 29.7 124.0 L 17.7 130.0 L 17.7 47.0 L 29.7 53.0 L 42.9 53.0 L 42.9 13.0 L 54.9 15.0 L 57.9 17.0 L 54.9 18.8 L 54.9 53.0 L 68.7 53.0 L 74.2 48.0 L 84.7 57.0 L 79.7 60.5 L 79.7 112.0 L 68.7 117.5 L 68.7 112.0 L 54.9 112.0 L 54.9 152.6 L 60.6 150.4 L 66.2 148.2 L 69.72428922653198 146.98472785949707 L 69.6 146.5 L 68.4 142.5 L 66.9 138.5 L 65.1 134.5 L 63.3 130.4 L 61.1 126.3 L 62.4 125.1 L 66.0 128.4 L 69.3 131.8 L 72.2 135.5 L 74.9 139.3 L 77.2 143.3 L 79.2 147.5 L 80.9 151.8 L 82.4 156.3 L 83.5 160.8 L 84.3 165.5 L 82.8 169.9 L 78.7 171.9 L 74.4 170.4 L 72.3 166.4 L 72.2 162.3 Z M 29.7 57.0 L 29.7 108.0 L 42.9 108.0 L 42.9 57.0 Z M 54.9 57.0 L 54.9 108.0 L 68.7 108.0 L 68.7 57.0 Z " />
</g>
</svg>
