<svg xmlns="http://www.w3.org/2000/svg" xmlns:xlink="http://www.w3.org/1999/xlink" version="1.1" baseProfile="full" viewBox="0 0 200 200" width="200" height="200">
<g fill="black">
<path d="M 112.1 106.0 L 160.8 106.0 L 166.8 101.0 L 177.8 110.0 L 172.8 114.0 L 172.8 179.0 L 160.8 185.0 L 160.8 175.0 L 112.1 175.0 L 112.1 182.0 L 100.1 188.0 L 100.1 100.0 Z M 73.2 158.4 L 72.7 154.4 L 71.9 150.4 L 71.69791393280029 149.61186437606813 L 69.2 151.6 L 64.1 155.2 L 58.8 158.5 L 53.3 161.7 L 47.7 164.7 L 42.0 167.7 L 36.2 170.5 L 30.3 173.2 L 24.3 175.8 L 21.96663236618042 176.740874004364 L 21.0 180.5 L 18.1 178.3 L 12.3 167.6 L 14.2 167.0 L 20.4 165.1 L 26.4 163.2 L 32.4 161.2 L 38.4 159.1 L 43.7 157.21355934143065 L 43.7 112.0 L 30.1 112.0 L 30.1 124.0 L 18.1 130.0 L 18.1 47.0 L 30.1 53.0 L 43.7 53.0 L 43.7 13.0 L 55.7 15.0 L 58.7 17.0 L 55.7 18.8 L 55.7 53.0 L 69.4 53.0 L 75.4 48.0 L 86.4 57.0 L 81.4 61.0 L 81.4 112.0 L 69.4 118.0 L 69.4 112.0 L 55.7 112.0 L 55.7 152.6758620262146 L 55.9 152.6 L 61.6 150.4 L 67.4 148.2 L 71.0161657333374 146.9530463218689 L 70.9 146.5 L 69.6 142.5 L 68.0 138.5 L 66.3 134.5 L 64.3 130.4 L 62.1 126.3 L 63.5 125.1 L 67.0 128.4 L 70.4 131.8 L 73.4 135.5 L 76.0 139.3 L 78.4 143.3 L 80.5 147.5 L 82.2 151.8 L 83.6 156.3 L 84.8 160.8 L 85.6 165.5 L 84.1 169.9 L 80.0 171.9 L 75.7 170.4 L 73.6 166.4 L 73.6 162.4 Z M 112.1 141.0 L 112.1 171.0 L 160.8 171.0 L 160.8 141.0 Z M 112.1 110.0 L 112.1 137.0 L 160.8 137.0 L 160.8 110.0 Z M 30.1 57.0 L 30.1 108.0 L 43.7 108.0 L 43.7 57.0 Z M 55.7 57.0 L 55.7 108.0 L 69.4 108.0 L 69.4 57.0 Z M 168.6 47.7 L 170.9 50.5 L 166.82453527450562 51.500991344451904 L 165.7 53.9 L 163.9 57.4 L 161.9 61.1 L 159.7 64.9 L 157.2 69.0 L 154.5 73.3 L 151.5 77.8 L 148.2 82.5 L 146.36326532363893 85.0 L 165.1 85.0 L 175.1 75.0 L 187.1 85.0 L 187.1 89.0 L 85.9 89.0 L 85.9 85.0 L 143.5625 85.0 L 145.1 80.9 L 147.1 75.5 L 148.9 70.5 L 150.6 65.8 L 152.2 61.5 L 153.6 57.4 L 154.8 53.6 L 155.8 50.1 L 156.5 47.0 L 156.88904418945313 45.11961994171143 L 156.8 45.1 L 157.06341466903686 44.2768292427063 L 157.1 44.1 L 157.11817893981933 44.10569076538086 L 157.6 42.6 Z M 114.6 69.6 L 114.0 66.1 L 113.3 62.8 L 112.5 59.5 L 111.5 56.3 L 110.4 53.2 L 109.2 50.2 L 107.8 47.1 L 106.1 44.3 L 107.4 43.1 L 110.1 45.3 L 112.8 47.6 L 115.3 50.3 L 117.5 53.2 L 119.6 56.3 L 121.5 59.6 L 123.2 63.2 L 124.7 67.0 L 126.1 70.9 L 127.2 75.0 L 126.1 79.5 L 122.2 81.9 L 117.8 80.8 L 115.4 76.9 L 115.0 73.2 Z M 89.6 37.0 L 130.5 37.0 L 130.5 12.0 L 142.5 14.0 L 145.5 16.0 L 142.5 17.8 L 142.5 37.0 L 160.5 37.0 L 170.5 27.0 L 182.5 37.0 L 182.5 41.0 L 89.6 41.0 Z " />
</g>
</svg>
