<svg xmlns="http://www.w3.org/2000/svg" xmlns:xlink="http://www.w3.org/1999/xlink" version="1.1" baseProfile="full" viewBox="0 0 200 200" width="200" height="200">
<g fill="black">
<path d="M 165.4 181.8 L 162.8 179.2 L 159.7 176.7 L 156.2 174.2 L 156.11746034622192 174.14708995819092 L 147.4 175.6 L 134.4 177.4 L 121.2 178.9 L 107.7 180.3 L 93.9 181.6 L 79.9 182.7 L 65.6 183.8 L 51.0 184.7 L 36.2 185.6 L 25.170898628234863 186.18432321548462 L 23.2 189.4 L 21.1 186.4 L 18.8 174.5 L 20.8 174.4 L 35.8 174.2 L 50.6 174.0 L 65.2 173.7 L 79.4 173.4 L 93.5 173.1 L 94.0 173.08540143966675 L 94.0 156.6 L 51.0 156.6 L 39.0 162.6 L 39.0 127.7 L 51.0 133.7 L 94.0 133.7 L 94.0 122.9 L 106.0 124.9 L 109.0 126.9 L 106.0 128.7 L 106.0 133.7 L 149.0 133.7 L 155.0 128.7 L 166.0 137.7 L 161.0 141.7 L 161.0 156.6 L 149.0 162.6 L 149.0 156.6 L 106.0 156.6 L 106.0 172.73503646850585 L 107.2 172.7 L 120.8 172.3 L 134.0 172.0 L 147.1 171.8 L 152.39150972366332 171.75866012573243 L 152.3 171.7 L 148.0 169.1 L 143.2 166.6 L 138.1 163.9 L 132.6 161.2 L 133.2 159.5 L 139.3 160.5 L 145.1 161.8 L 150.5 163.3 L 155.5 165.0 L 160.2 166.9 L 164.6 168.9 L 168.6 171.2 L 172.3 173.6 L 175.6 176.2 L 178.7 179.0 L 180.0 183.4 L 177.9 187.5 L 173.5 188.8 L 169.4 186.7 L 167.6 184.2 Z M 51.0 137.7 L 51.0 152.6 L 94.0 152.6 L 94.0 137.7 Z M 106.0 137.7 L 106.0 152.6 L 149.0 152.6 L 149.0 137.7 Z M 31.973684215545653 66.0631579399109 L 32.3 69.0 L 32.4764705657959 70.2 L 170.0 70.2 L 170.73584909439086 69.58679246902466 L 170.7 69.3 L 170.9285223007202 69.42623138427734 L 176.0 65.2 L 187.0 74.2 L 182.0 77.2 L 174.30985918045045 80.40422534942627 L 173.4 81.1 L 171.6 82.5 L 169.7 84.0 L 167.5 85.5 L 165.7 87.6 L 164.2 86.5 L 165.8 84.2 L 166.9 81.8 L 167.8 79.5 L 168.6 77.5 L 169.3 75.6 L 169.79411764144896 74.2 L 86.69666662216187 74.2 L 91.7 79.9 L 92.2 83.5 L 88.57215824127198 82.37866706848145 L 86.4 84.1 L 84.58000001907348 85.4 L 135.51578950881958 85.4 L 136.7 83.9 L 137.07513809204102 84.1707181930542 L 141.6 80.4 L 152.6 89.4 L 147.6 92.4 L 143.37637796401978 94.1598424911499 L 140.0 97.8 L 132.2 103.8 L 123.0 109.0 L 112.3 113.6 L 100.3 117.5 L 86.8 120.9 L 71.9 123.6 L 55.6 125.6 L 37.8 127.0 L 18.5 127.6 L 18.4 125.8 L 37.4 123.2 L 54.9 120.3 L 70.7 117.1 L 85.0 113.5 L 86.06936845779418 113.16319103240967 L 83.7 111.2 L 83.7 110.5 L 83.2 109.4 L 82.3 108.0 L 80.9 106.4 L 79.0 104.7 L 76.7 102.8 L 74.0 100.8 L 70.9 98.7 L 67.4 96.4 L 67.0 96.2 L 62.4 98.5 L 55.8 101.5 L 48.9 104.1 L 41.8 106.5 L 34.3 108.5 L 26.6 110.1 L 26.1 108.3 L 33.1 104.9 L 39.8 101.5 L 46.2 98.1 L 52.4 94.7 L 58.4 91.1 L 64.0 87.4 L 69.3 83.5 L 74.4 79.5 L 79.1 75.4 L 80.35581398010254 74.2 L 32.8 74.2 L 32.8 75.7 L 32.5 78.9 L 31.7 82.0 L 30.4 84.9 L 28.7 87.7 L 26.5 90.1 L 23.9 92.3 L 20.9 94.2 L 16.3 94.0 L 13.2 90.7 L 13.3 86.2 L 16.6 83.0 L 18.6 82.5 L 20.4 81.9 L 22.1 81.0 L 23.7 79.9 L 25.1 78.5 L 26.5 76.7 L 27.8 74.5 L 28.9 71.9 L 29.8 68.9 L 30.1 65.5 L 30.5 65.4777777671814 L 30.5 31.7 L 42.5 37.7 L 67.1 37.7 L 67.1 25.8 L 16.4 25.8 L 16.4 21.8 L 67.1 21.8 L 67.1 11.1 L 79.1 13.1 L 82.1 15.1 L 79.1 16.9 L 79.1 21.8 L 120.8 21.8 L 120.8 11.1 L 132.8 13.1 L 135.8 15.1 L 132.8 16.9 L 132.8 21.8 L 161.5 21.8 L 171.5 11.8 L 183.5 21.8 L 183.5 25.8 L 132.8 25.8 L 132.8 32.1 L 121.6 37.7 L 155.4 37.7 L 161.4 32.7 L 172.4 41.7 L 167.4 45.7 L 167.4 60.8 L 155.4 66.8 L 155.4 60.8 L 42.5 60.8 Z M 78.72702703475952 89.4 L 74.9 91.8 L 70.32807455062866 94.42323589324951 L 72.5 94.9 L 76.3 96.0 L 79.7 97.0 L 82.8 98.2 L 85.6 99.3 L 88.1 100.6 L 90.4 102.0 L 92.5 103.6 L 94.3 105.6 L 94.6 110.1 L 94.21228275299072 110.59849367141723 L 97.7 109.5 L 108.8 105.0 L 118.2 100.2 L 126.0 95.0 L 132.2 89.6 L 132.35789470672609 89.4 Z M 42.5 41.7 L 42.5 56.8 L 71.8 56.8 L 71.8 41.7 Z M 83.8 41.7 L 83.8 56.8 L 114.1 56.8 L 114.1 41.7 Z M 126.1 41.7 L 126.1 56.8 L 155.4 56.8 L 155.4 41.7 Z M 79.1 25.8 L 79.1 32.1 L 67.9 37.7 L 120.8 37.7 L 120.8 25.8 Z " />
</g>
</svg>
