<svg xmlns="http://www.w3.org/2000/svg" xmlns:xlink="http://www.w3.org/1999/xlink" version="1.1" baseProfile="full" viewBox="0 0 200 200" width="200" height="200">
<g fill="black">
<path d="M 157.0 176.5 L 147.9 171.6 L 139.5 166.0 L 131.8 159.7 L 124.9 152.8 L 118.8 145.2 L 113.4 137.1 L 109.0 128.3 L 106.08131971359253 120.46125860214234 L 103.7 122.2 L 97.2 126.9 L 90.1 131.4 L 82.4 135.8 L 74.2 140.1 L 73.0 140.67272729873656 L 73.0 168.92717390060426 L 83.1 167.5 L 101.7 164.7 L 111.0 163.4 L 120.3 162.2 L 129.8 161.1 L 130.1 162.9 L 121.2 165.9 L 112.1 168.6 L 103.0 171.2 L 84.8 175.8 L 66.4 180.0 L 57.3 182.0 L 48.1 183.9 L 42.85735292434693 184.92573528289796 L 41.3 188.3 L 38.9 185.7 L 35.0 174.2 L 37.0 173.9 L 46.2 172.7 L 55.4 171.4 L 61.0 170.61720428466796 L 61.0 146.1723403930664 L 56.0 148.3 L 46.0 152.3 L 35.4 156.0 L 24.1 159.6 L 12.2 162.8 L 11.7 161.1 L 22.8 156.0 L 33.3 151.1 L 43.3 146.2 L 52.7 141.5 L 61.5 136.7 L 69.7 131.9 L 77.3 127.2 L 84.2 122.4 L 87.95319147109986 119.6 L 17.0 119.6 L 17.0 115.6 L 94.0 115.6 L 94.0 98.6 L 106.0 100.6 L 109.0 102.6 L 106.0 104.4 L 106.0 115.6 L 163.0 115.6 L 173.0 105.6 L 185.0 115.6 L 185.0 119.6 L 108.2 119.6 L 112.6 126.2 L 118.3 133.7 L 124.3 140.6 L 130.8 146.8 L 131.50997896194457 147.37812576293945 L 132.2 146.8 L 135.8 143.7 L 139.3 140.8 L 142.7 137.9 L 146.0 135.2 L 149.1 132.4 L 152.1 129.8 L 155.0 127.2 L 157.8 124.6 L 159.68473176956178 122.78775787353516 L 159.6 122.7 L 160.5 122.0 L 168.0 131.4 L 168.3 134.9 L 164.60177679061889 133.62243194580077 L 161.4 135.6 L 157.9 137.7 L 154.3 139.8 L 150.5 141.9 L 146.6 143.9 L 142.6 145.9 L 138.4 147.8 L 134.12705879211427 149.5091764450073 L 137.8 152.5 L 145.2 157.5 L 153.2 161.9 L 161.8 165.7 L 171.0 169.0 L 180.7 171.7 L 188.9 173.9 L 177.2 184.4 L 166.8 180.8 Z M 99.4 93.1 L 120.6 93.1 L 121.5 92.9 L 122.1 92.7 L 122.4 92.5 L 122.6 92.4 L 122.8 92.2 L 123.1 91.3 L 123.3 90.4 L 123.4 89.1 L 123.4 62.317948722839354 L 116.6 67.2 L 108.1 72.4 L 99.0 77.2 L 89.1 81.7 L 78.5 85.9 L 67.2 89.7 L 55.2 93.2 L 42.5 96.3 L 29.1 98.9 L 14.9 101.0 L 14.5 99.2 L 28.2 95.2 L 41.1 91.1 L 53.3 86.9 L 64.7 82.6 L 75.3 78.1 L 85.2 73.3 L 94.2 68.4 L 102.5 63.2 L 108.44339618682861 59.0 L 50.725 59.0 L 47.3 67.6 L 33.9 68.7 L 50.217703342437744 28.1 L 31.4 28.1 L 31.4 24.1 L 152.4 24.1 L 162.4 14.1 L 174.4 24.1 L 174.4 28.1 L 135.4 28.1 L 135.4 55.0 L 162.2 55.0 L 172.2 45.0 L 184.2 55.0 L 184.2 59.0 L 135.4 59.0 L 135.4 89.1 L 135.2 91.7 L 134.8 94.2 L 134.0 96.6 L 132.7 98.9 L 131.1 100.9 L 129.1 102.5 L 126.8 103.7 L 124.4 104.6 L 121.9 105.0 L 119.4 105.1 L 119.4 99.1 L 99.4 96.1 Z M 52.6619047164917 28.1 L 61.0 33.2 L 63.1 36.2 L 59.514341831207275 36.93041181564331 L 52.3180233001709 55.0 L 123.4 55.0 L 123.4 28.1 Z " />
</g>
</svg>
