<svg xmlns="http://www.w3.org/2000/svg" xmlns:xlink="http://www.w3.org/1999/xlink" version="1.1" baseProfile="full" viewBox="0 0 200 200" width="200" height="200">
<g fill="black">
<path d="M 182.0 147.8 L 184.0 147.8 L 182.0 172.8 L 185.6 175.2 L 188.0 178.8 L 185.6 182.4 L 182.0 184.8 L 126.0 184.8 L 123.4 184.7 L 120.9 184.2 L 118.5 183.4 L 116.2 182.2 L 114.2 180.6 L 112.6 178.5 L 111.3 176.3 L 110.5 173.9 L 110.1 171.4 L 110.0 168.8 L 110.0 147.8 L 86.1 147.8 L 89.4 149.3 L 91.7 152.0 L 87.68373384475709 153.07578554153443 L 86.4 155.9 L 82.3 161.9 L 77.0 167.2 L 70.7 171.9 L 63.4 176.0 L 55.2 179.6 L 45.9 182.6 L 35.7 185.2 L 24.4 187.1 L 12.1 188.4 L 11.8 186.6 L 23.6 183.4 L 34.3 180.0 L 43.8 176.4 L 52.1 172.6 L 59.3 168.6 L 65.3 164.3 L 70.1 159.9 L 73.7 155.4 L 76.3 150.7 L 77.26666669845581 147.8 L 58.0 147.8 L 58.0 159.8 L 46.0 165.8 L 46.0 85.6 L 58.0 91.6 L 142.0 91.6 L 148.0 86.6 L 159.0 95.6 L 154.0 99.6 L 154.0 153.8 L 142.0 159.8 L 142.0 147.8 L 122.0 147.8 L 122.0 170.0 L 122.2 171.0 L 122.4 171.5 L 122.5 171.9 L 122.7 172.1 L 122.9 172.2 L 123.2 172.4 L 123.8 172.6 L 124.7 172.7 L 126.0 172.8 L 176.0 172.8 Z M 58.0 129.5 L 58.0 143.8 L 142.0 143.8 L 142.0 129.5 Z M 58.0 113.0 L 58.0 125.5 L 142.0 125.5 L 142.0 113.0 Z M 58.0 95.6 L 58.0 109.0 L 142.0 109.0 L 142.0 95.6 Z M 98.0 77.2 L 118.0 77.2 L 119.2 77.1 L 120.1 76.9 L 121.0 76.6 L 121.4 76.2 L 121.7 75.3 L 121.9 74.4 L 122.0 73.2 L 122.0 58.3 L 32.0 58.3 L 32.0 54.3 L 122.0 54.3 L 122.0 39.4 L 134.0 41.4 L 137.0 43.4 L 134.0 45.2 L 134.0 54.3 L 144.0 54.3 L 154.0 44.3 L 159.78571424484252 49.12142858505249 L 159.8 49.1 L 161.8 46.4 L 163.6 43.8 L 165.3 41.4 L 166.8 39.1 L 167.94545450210572 37.3 L 32.951282024383545 37.3 L 33.0 39.2 L 32.6 43.0 L 31.9 46.6 L 30.7 49.9 L 29.0 53.1 L 26.9 55.9 L 24.2 58.4 L 21.2 60.6 L 16.6 60.6 L 13.2 57.6 L 13.1 53.0 L 16.2 49.6 L 18.2 49.0 L 20.0 48.2 L 21.7 47.0 L 23.3 45.5 L 24.9 43.5 L 26.3 41.1 L 27.6 38.2 L 28.7 34.9 L 29.7 31.1 L 30.1 26.9 L 31.9 26.8 L 32.4 31.2 L 32.65609760284424 33.3 L 94.0 33.3 L 94.0 11.8 L 106.0 13.8 L 109.0 15.8 L 106.0 17.6 L 106.0 33.3 L 170.0 33.3 L 170.54117650985717 32.849019622802736 L 171.3 31.5 L 171.73420190811157 31.85483169555664 L 176.0 28.3 L 187.0 37.3 L 182.0 40.3 L 175.775 42.89375 L 175.1 43.4 L 172.9 45.0 L 170.6 46.6 L 168.2 48.4 L 165.5 50.2 L 163.02548265457153 51.82123556137085 L 166.0 54.3 L 166.0 58.3 L 134.0 58.3 L 134.0 73.2 L 133.8 75.7 L 133.4 78.2 L 132.6 80.6 L 131.3 82.9 L 129.7 84.9 L 127.7 86.5 L 125.4 87.8 L 123.0 88.6 L 120.5 89.0 L 118.0 89.2 L 118.0 83.2 L 98.0 80.2 Z M 75.8 74.9 L 74.7 73.2 L 73.5 71.5 L 72.1 69.9 L 70.7 68.2 L 69.1 66.4 L 67.5 64.7 L 65.5 63.4 L 66.2 61.7 L 68.6 62.7 L 71.0 63.2 L 75.8 64.8 L 80.2 67.0 L 82.2 68.3 L 84.2 69.7 L 86.2 71.2 L 88.0 72.8 L 89.0 77.3 L 86.7 81.2 L 82.3 82.3 L 78.3 79.9 L 77.6 78.3 Z " />
</g>
</svg>
