<svg xmlns="http://www.w3.org/2000/svg" xmlns:xlink="http://www.w3.org/1999/xlink" version="1.1" baseProfile="full" viewBox="0 0 200 200" width="200" height="200">
<g fill="black">
<path d="M 99.25 114.975 L 106.0 116.1 L 109.0 118.1 L 106.0 119.9 L 106.0 127.9 L 163.0 127.9 L 173.0 117.9 L 185.0 127.9 L 185.0 131.9 L 108.55 131.9 L 112.6 136.7 L 118.2 142.7 L 124.1 148.1 L 130.5 153.1 L 131.7842149734497 153.93753147125244 L 132.4 153.5 L 136.0 150.9 L 139.5 148.3 L 143.0 145.9 L 146.3 143.5 L 149.5 141.2 L 152.5 139.0 L 155.4 136.7 L 158.2 134.5 L 159.9620792388916 133.07678213119507 L 159.9 133.0 L 159.96704654693605 133.07277002334595 L 160.8 132.4 L 164.67264194488524 138.18006258010865 L 168.1 141.9 L 168.2 145.5 L 164.4425742149353 143.92871284484863 L 164.3 144.0 L 161.0 145.7 L 157.5 147.3 L 153.9 149.0 L 150.2 150.6 L 146.3 152.1 L 142.3 153.6 L 138.1 155.1 L 135.0025424003601 156.03644065856935 L 137.4 157.6 L 144.9 161.6 L 152.9 165.2 L 161.4 168.2 L 170.6 170.9 L 180.4 173.0 L 189.3 175.0 L 177.5 185.9 L 167.1 182.9 L 157.4 179.3 L 148.3 175.2 L 139.9 170.5 L 132.2 165.3 L 125.3 159.6 L 119.0 153.3 L 113.6 146.4 L 109.1 139.1 L 106.38741540908813 132.9773090362549 L 103.3 134.8 L 96.8 138.6 L 89.7 142.2 L 82.1 145.8 L 73.9 149.2 L 73.0 149.54772729873656 L 73.0 171.1086956977844 L 74.0 171.0 L 83.3 170.0 L 92.5 169.0 L 101.8 167.9 L 111.1 166.9 L 120.4 166.1 L 129.8 165.4 L 130.1 167.2 L 121.1 169.8 L 112.0 172.2 L 102.9 174.4 L 93.8 176.4 L 84.6 178.4 L 75.5 180.2 L 66.3 182.0 L 57.1 183.7 L 47.9 185.3 L 42.78284025192261 186.13431949615477 L 41.1 189.5 L 38.7 186.8 L 35.2 175.2 L 37.2 174.9 L 46.4 174.0 L 61.0 172.41304349899292 L 61.0 153.9957447052002 L 55.7 155.8 L 45.7 158.9 L 35.2 161.9 L 24.0 164.7 L 12.2 167.1 L 11.7 165.4 L 22.9 161.0 L 33.5 156.8 L 43.6 152.7 L 53.0 148.7 L 61.8 144.7 L 70.0 140.7 L 77.6 136.8 L 84.6 132.8 L 85.99655170440674 131.9 L 17.0 131.9 L 17.0 127.9 L 94.0 127.9 L 94.0 114.1 L 95.6 114.36666669845582 L 95.6 60.4297872543335 L 91.3 62.9 L 86.3 65.4 L 81.1 67.6 L 75.6 69.5 L 74.8 67.9 L 79.2 64.3 L 83.5 60.9 L 87.6 57.5 L 91.5 54.1 L 95.2 50.7 L 95.6 50.3 L 95.6 47.0 L 97.8 48.1 L 98.7 47.2 L 102.0 43.7 L 105.0 40.1 L 107.8 36.5 L 109.82605495452881 33.616767978668214 L 109.8 33.6 L 110.15813951492309 33.14418601989746 L 110.4 32.8 L 110.41781530380248 32.813689613342284 L 110.66428575515747 32.5 L 54.82307691574097 32.5 L 61.0 39.8 L 61.5 43.4 L 57.57916955947876 42.116819095611575 L 55.7 43.3 L 52.9 45.0 L 49.9 46.7 L 46.9 48.3 L 43.7 49.9 L 40.4 51.4 L 37.0 52.9 L 35.344525527954104 53.497810173034665 L 37.1 54.2 L 39.4 55.4 L 41.6 56.8 L 43.5 58.5 L 45.2 60.5 L 45.4 65.0 L 42.5 68.5 L 37.9 68.8 L 34.4 65.8 L 34.4 64.9 L 34.1 63.8 L 33.4 62.5 L 32.3 61.1 L 30.8 59.6 L 29.0 58.0 L 26.9 56.3 L 24.4 54.6 L 21.6 52.8 L 18.3 51.4 L 18.8 49.7 L 22.4 50.5 L 25.8 51.0 L 29.0 51.6 L 31.419867515563965 52.18410596847534 L 31.9 51.8 L 34.7 49.2 L 37.3 46.7 L 39.9 44.3 L 42.4 41.9 L 44.8 39.6 L 49.2 35.2 L 51.2 33.0 L 51.63181819915771 32.5 L 16.7 32.5 L 16.7 28.5 L 94.0 28.5 L 94.0 13.9 L 106.0 15.9 L 109.0 17.9 L 106.0 19.7 L 106.0 28.5 L 161.3 28.5 L 171.3 18.5 L 183.3 28.5 L 183.3 32.5 L 111.2417721748352 32.5 L 119.9 40.1 L 121.1 43.5 L 117.27133493423462 43.03791971206665 L 116.5 43.9 L 112.8 47.5 L 108.9 50.9 L 106.8245283126831 52.61226415634155 L 107.6 53.0 L 134.85652170181274 53.0 L 135.9 52.0 L 137.8 49.4 L 139.8 47.0 L 143.4 42.6 L 146.6 38.6 L 148.0 36.8 L 149.3 35.0 L 149.92535209655762 34.114084529876706 L 149.8 34.0 L 150.36451616287232 33.49193544387818 L 150.5 33.3 L 150.53547592163085 33.338071727752684 L 150.8 33.1 L 158.7 42.1 L 159.3 45.7 L 154.89677419662476 44.44193544387817 L 154.8 44.5 L 152.7 45.7 L 150.5 47.0 L 148.2 48.3 L 145.7 49.7 L 143.1 51.1 L 140.3 52.5 L 139.26428575515746 53.0 L 163.51818180084229 53.0 L 171.7 44.0 L 181.7 53.0 L 181.7 57.0 L 145.1 57.0 L 145.1 70.0 L 161.51818180084229 70.0 L 169.7 61.0 L 179.7 70.0 L 179.7 74.0 L 145.1 74.0 L 145.1 87.4 L 161.51818180084229 87.4 L 169.7 78.4 L 179.7 87.4 L 179.7 91.4 L 145.1 91.4 L 145.1 106.8 L 167.61818180084228 106.8 L 175.8 97.8 L 185.8 106.8 L 185.8 110.8 L 107.6 110.8 Z M 18.9 81.0 L 24.0 80.7 L 29.1 80.3 L 34.127174949646 80.00997066497803 L 38.3 76.2 L 42.8 72.1 L 47.0 68.2 L 51.0 64.4 L 54.8 60.7 L 58.3 57.0 L 61.6 53.4 L 64.6 49.9 L 66.7254545211792 47.31909093856812 L 66.7 47.3 L 67.7 46.1 L 76.3 54.5 L 77.2 58.0 L 73.37149162292481 57.26116504669189 L 72.8 57.8 L 69.1 61.1 L 65.1 64.4 L 60.9 67.7 L 56.4 70.9 L 51.7 74.2 L 46.7 77.4 L 43.11785717010498 79.49521560668946 L 44.8 79.4 L 50.0 79.2 L 55.3 78.9 L 60.6 78.8 L 66.0 78.9 L 67.61832294464111 78.95993785858154 L 69.3 74.8 L 70.3 69.9 L 70.37005939483643 69.91365566253663 L 70.7 68.0 L 82.1 72.2 L 84.7 74.7 L 80.79310340881348 76.12068967819214 L 79.9 78.8 L 76.6 84.9 L 72.3 90.6 L 67.0 95.7 L 60.8 100.4 L 53.7 104.6 L 45.6 108.5 L 36.7 111.9 L 26.8 114.8 L 15.9 117.2 L 15.4 115.5 L 25.5 111.2 L 34.6 106.9 L 42.7 102.6 L 49.7 98.1 L 55.7 93.6 L 60.6 89.0 L 64.5 84.3 L 65.3168405532837 82.94798803329468 L 61.4 84.1 L 56.2 85.5 L 51.0 86.7 L 45.9 87.8 L 40.7 88.9 L 35.6 90.0 L 25.4 92.0 L 24.412903213500975 92.17419357299805 L 22.7 95.6 L 20.3 92.9 L 16.9 81.2 Z M 107.6 91.4 L 107.6 106.8 L 133.1 106.8 L 133.1 91.4 Z M 107.6 74.0 L 107.6 87.4 L 133.1 87.4 L 133.1 74.0 Z M 107.6 57.0 L 107.6 70.0 L 133.1 70.0 L 133.1 57.0 Z " />
</g>
</svg>
