<svg xmlns="http://www.w3.org/2000/svg" xmlns:xlink="http://www.w3.org/1999/xlink" version="1.1" baseProfile="full" viewBox="0 0 200 200" width="200" height="200">
<g fill="black">
<path d="M 128.0 176.4 L 148.0 176.4 L 149.2 176.3 L 150.1 176.1 L 151.0 175.8 L 151.4 175.4 L 151.7 174.5 L 151.9 173.6 L 152.0 172.4 L 152.0 158.8 L 57.36222219467163 158.8 L 56.8 161.1 L 55.0 165.3 L 52.7 169.2 L 49.8 172.8 L 46.4 176.0 L 42.5 178.9 L 38.1 181.5 L 33.3 183.7 L 28.0 185.5 L 22.3 187.2 L 21.6 185.5 L 26.6 182.5 L 30.9 179.4 L 34.7 176.4 L 37.9 173.3 L 40.5 170.3 L 42.6 167.3 L 44.2 164.3 L 45.2 161.3 L 45.8 158.3 L 46.0 155.3 L 46.0 123.67213115692138 L 43.3 125.0 L 36.8 127.8 L 29.8 130.4 L 22.3 132.8 L 21.6 131.1 L 28.1 127.0 L 34.3 123.1 L 40.1 119.3 L 45.5 115.5 L 50.4 111.8 L 55.0 108.1 L 59.1 104.5 L 62.7 100.8 L 65.9 97.2 L 68.1254545211792 94.41818180084229 L 68.1 94.4 L 69.1 93.2 L 77.9 101.4 L 78.78235292434692 104.4 L 121.8777777671814 104.4 L 122.5 103.7 L 124.0 101.9 L 124.42518835067749 102.37900972366333 L 128.0 99.4 L 128.80225563049316 100.05639095306397 L 128.5 99.2 L 134.2 95.9 L 139.4 92.4 L 144.2 88.6 L 148.5 84.4 L 152.5 79.8 L 154.18297214508056 77.46253871917725 L 153.2 75.3 L 149.7 64.2 L 147.00323419570924 51.19773607254028 L 143.0 54.0 L 143.0 70.8 L 132.0 76.3 L 132.0 70.8 L 119.1 70.8 L 108.1 76.3 L 108.1 41.0 L 119.1 46.5 L 132.0 46.5 L 137.5 41.5 L 146.7615385055542 49.438461494445804 L 145.30853662490844 36.2 L 100.7 36.2 L 100.7 32.2 L 145.02422676086425 32.2 L 144.4359743118286 15.897002124786377 L 144.4 15.9 L 144.4 12.5 L 156.4 14.9 L 159.4 16.9 L 156.54059200286866 18.61564483642578 L 157.05459461212158 32.2 L 163.61818180084228 32.2 L 166.82332363128663 28.674344062805176 L 164.0 26.4 L 164.1 25.5 L 163.9 23.5 L 163.6 22.5 L 163.2 21.3 L 162.7 20.2 L 162.1 19.0 L 161.4 17.7 L 160.5 16.4 L 159.2 15.6 L 160.0 14.0 L 161.5 14.7 L 163.1 14.9 L 164.8 15.2 L 167.8 16.2 L 169.3 16.9 L 170.7 17.7 L 172.1 18.6 L 173.4 19.6 L 174.6 20.8 L 175.0 25.4 L 174.67725038528442 25.789525413513182 L 181.8 32.2 L 181.8 36.2 L 157.40909090042115 36.2 L 158.8 48.8 L 161.3 61.3 L 162.06511478424073 63.694068908691406 L 162.3 63.2 L 164.8 56.7 L 167.0 49.6 L 167.01811828613282 49.605880451202395 L 167.5 48.1 L 178.4 53.3 L 180.7 56.1 L 176.95783863067626 56.953475379943846 L 175.4 60.9 L 171.9 68.0 L 168.0 74.5 L 166.7157446861267 76.19288196563721 L 167.7 78.4 L 171.1 83.6 L 173.9990403175354 86.77082529067994 L 179.0 65.1 L 181.0 65.1 L 179.074600315094 90.13019542694092 L 183.2 91.8 L 185.0 96.1 L 183.2 100.3 L 179.0 102.1 L 174.9 101.3 L 170.6 99.3 L 166.1 95.9 L 161.6 90.9 L 158.35856113433837 85.89050359725952 L 153.6 90.1 L 148.0 93.9 L 142.1 97.1 L 135.7 99.4 L 129.67391300201416 100.76956520080566 L 139.0 108.4 L 134.0 111.4 L 122.6 116.15 L 122.3 116.3 L 119.6 117.6 L 116.8 118.9 L 113.9 120.2 L 111.3166666984558 121.2 L 152.0 121.2 L 158.0 116.2 L 169.0 125.2 L 164.0 129.2 L 164.0 172.4 L 163.8 174.9 L 163.4 177.4 L 162.6 179.8 L 161.3 182.1 L 159.7 184.1 L 157.7 185.7 L 155.4 187.0 L 153.0 187.8 L 150.5 188.2 L 148.0 188.4 L 148.0 182.4 L 128.0 179.4 Z M 58.0 142.0 L 58.0 154.8 L 98.0 154.8 L 98.0 142.0 Z M 110.0 142.0 L 110.0 154.8 L 152.0 154.8 L 152.0 142.0 Z M 58.0 125.2 L 58.0 138.0 L 98.0 138.0 L 98.0 125.2 Z M 110.0 125.2 L 110.0 138.0 L 152.0 138.0 L 152.0 125.2 Z M 70.34166669845581 108.4 L 70.0 108.7 L 65.4 112.2 L 60.5 115.6 L 55.2 118.9 L 54.33000001907349 119.36499996185303 L 58.0 121.2 L 105.04285717010498 121.2 L 106.2 120.3 L 108.6 117.9 L 113.2 113.5 L 115.3 111.5 L 117.3 109.4 L 118.2473684310913 108.4 Z M 74.81891889572144 104.4 L 76.36666669845582 104.4 L 75.03488368988037 104.18971843719483 Z M 72.12089080810547 18.627465534210206 L 72.56108112335205 32.2 L 79.11818180084228 32.2 L 82.32332363128663 28.674344062805176 L 79.5 26.4 L 79.6 25.5 L 79.4 23.5 L 79.1 22.5 L 78.7 21.3 L 78.2 20.2 L 77.6 19.0 L 76.9 17.7 L 76.0 16.4 L 74.7 15.6 L 75.6 14.0 L 77.0 14.7 L 78.7 14.9 L 80.3 15.2 L 81.8 15.7 L 83.4 16.2 L 84.8 16.9 L 86.3 17.7 L 87.6 18.6 L 88.9 19.6 L 90.2 20.8 L 90.5 25.4 L 90.17725038528442 25.789525413513182 L 97.3 32.2 L 97.3 36.2 L 72.90909090042115 36.2 L 74.3 48.8 L 76.8 61.3 L 77.56511478424072 63.694068908691406 L 77.8 63.2 L 80.3 56.7 L 82.5 49.6 L 82.51813306808472 49.60583410263062 L 83.0 48.1 L 94.0 53.3 L 96.2 56.1 L 92.51509294509887 56.94041738510132 L 90.9 60.9 L 87.4 68.0 L 83.5 74.5 L 82.25944910049438 76.13527164459228 L 83.3 78.4 L 86.7 83.6 L 89.50098428726196 86.76240158081055 L 94.5 65.1 L 96.5 65.1 L 94.57460031509399 90.13019542694092 L 98.7 91.8 L 100.5 96.1 L 98.7 100.3 L 94.5 102.1 L 90.4 101.3 L 86.2 99.3 L 81.7 95.9 L 77.1 90.9 L 73.85856113433837 85.89050359725952 L 69.1 90.1 L 63.5 93.9 L 57.6 97.1 L 51.2 99.4 L 44.6 100.9 L 44.0 99.2 L 49.7 95.9 L 54.9 92.4 L 59.7 88.6 L 64.1 84.4 L 68.0 79.8 L 69.68297214508057 77.46253871917725 L 68.7 75.3 L 65.2 64.2 L 62.51591205596924 51.25886154174805 L 58.6 54.0 L 58.6 70.8 L 47.6 76.3 L 47.6 70.8 L 34.6 70.8 L 23.6 76.3 L 23.6 41.0 L 34.6 46.5 L 47.6 46.5 L 53.1 41.5 L 62.25115385055542 49.34384613037109 L 60.80853662490845 36.2 L 16.2 36.2 L 16.2 32.2 L 60.53505153656006 32.2 L 60.03084831237793 15.897429275512696 L 60.0 15.9 L 60.0 12.5 L 72.0 14.9 L 75.0 16.9 Z M 17.9 84.0 L 21.8 83.6 L 25.8 83.1 L 30.0 82.6 L 34.3 82.0 L 38.7 81.5 L 43.2 80.9 L 47.8 80.3 L 52.6 79.7 L 57.5 79.3 L 62.5 78.8 L 63.0 80.6 L 58.3 82.6 L 53.8 84.6 L 49.3 86.4 L 44.9 88.0 L 40.5 89.5 L 36.3 90.9 L 32.1 92.2 L 28.0 93.5 L 24.2678524017334 94.648353099823 L 22.7 98.4 L 20.2 95.8 L 15.9 84.4 Z M 102.4 84.0 L 106.3 83.6 L 110.3 83.1 L 114.5 82.6 L 118.8 82.0 L 123.1 81.5 L 132.3 80.3 L 137.0 79.7 L 142.0 79.3 L 147.0 78.8 L 147.4 80.6 L 142.8 82.6 L 138.3 84.6 L 133.8 86.4 L 129.4 88.0 L 125.0 89.5 L 120.8 90.9 L 116.6 92.2 L 112.5 93.5 L 108.78156995773315 94.61552896499634 L 107.2 98.4 L 104.7 95.8 L 100.4 84.4 Z M 119.1 50.5 L 119.1 66.8 L 132.0 66.8 L 132.0 50.5 Z M 34.6 50.5 L 34.6 66.8 L 47.6 66.8 L 47.6 50.5 Z " />
</g>
</svg>
