<svg xmlns="http://www.w3.org/2000/svg" xmlns:xlink="http://www.w3.org/1999/xlink" version="1.1" baseProfile="full" viewBox="0 0 200 200" width="200" height="200">
<g fill="black">
<path d="M 30.7 133.0 L 61.4 133.0 L 67.4 128.0 L 78.4 137.0 L 73.4 141.0 L 73.4 175.0 L 61.4 181.0 L 61.4 175.0 L 30.7 175.0 L 30.7 182.0 L 18.7 188.0 L 18.7 127.0 Z M 102.2 47.0 L 131.2 47.0 L 131.2 13.0 L 143.2 15.0 L 146.2 17.0 L 143.2 18.8 L 143.2 47.0 L 163.4 47.0 L 173.4 37.0 L 185.4 47.0 L 185.4 51.0 L 102.2 51.0 L 102.2 103.0 L 101.7 114.4 L 100.8 125.3 L 99.5 135.5 L 97.7 145.0 L 95.6 153.9 L 93.0 162.1 L 89.9 169.6 L 86.4 176.4 L 82.4 182.4 L 77.8 187.5 L 76.4 186.4 L 79.1 180.5 L 81.6 174.1 L 83.8 167.3 L 85.7 160.0 L 87.3 152.0 L 88.6 143.5 L 89.5 134.3 L 90.1 124.5 L 90.3 114.0 L 90.2 103.0 L 90.2 41.0 Z M 91.7 173.0 L 135.7 173.0 L 135.7 105.0 L 109.9 105.0 L 109.9 101.0 L 135.7 101.0 L 135.7 58.0 L 147.7 60.0 L 150.7 62.0 L 147.7 63.8 L 147.7 101.0 L 157.0 101.0 L 167.0 91.0 L 179.0 101.0 L 179.0 105.0 L 147.7 105.0 L 147.7 173.0 L 167.0 173.0 L 177.0 163.0 L 189.0 173.0 L 189.0 177.0 L 91.7 177.0 Z M 30.7 137.0 L 30.7 171.0 L 61.4 171.0 L 61.4 137.0 Z M 73.1 108.0 L 73.1 112.0 L 19.0 112.0 L 19.0 108.0 L 51.1 108.0 L 61.1 98.0 Z M 73.1 82.0 L 73.1 86.0 L 19.0 86.0 L 19.0 82.0 L 51.1 82.0 L 61.1 72.0 Z M 81.7 54.0 L 81.7 58.0 L 15.2 58.0 L 15.2 54.0 L 59.7 54.0 L 69.7 44.0 Z M 73.1 28.0 L 73.1 32.0 L 19.0 32.0 L 19.0 28.0 L 51.1 28.0 L 61.1 18.0 Z " />
</g>
</svg>
