<svg xmlns="http://www.w3.org/2000/svg" xmlns:xlink="http://www.w3.org/1999/xlink" version="1.1" baseProfile="full" viewBox="0 0 200 200" width="200" height="200">
<g fill="black">
<path d="M 95.0 34.4 L 128.4 34.4 L 128.4 11.8 L 140.4 13.8 L 143.4 15.8 L 140.4 17.6 L 140.4 34.4 L 165.5 34.4 L 175.5 24.4 L 187.5 34.4 L 187.5 38.4 L 95.0 38.4 L 95.0 100.4 L 94.5 111.9 L 93.7 122.8 L 93.06142854690552 128.22785711288452 L 96.0 121.4 L 99.3 113.5 L 102.7 105.6 L 106.0 97.6 L 109.2 89.4 L 112.3 81.1 L 115.2 72.6 L 118.1 64.0 L 120.8 55.2 L 123.13473682403564 47.20801620483398 L 123.1 47.2 L 123.9 44.7 L 134.8 49.9 L 137.1 52.7 L 133.4978741645813 53.52153749465943 L 131.6 58.8 L 128.2 67.6 L 124.6 76.2 L 120.9 84.6 L 117.0 92.8 L 116.22092132568359 94.32015352249145 L 120.9 95.1 L 123.9 97.1 L 120.9 98.9 L 120.9 182.6 L 108.9 188.6 L 108.9 107.96279067993164 L 108.6 108.5 L 104.1 116.0 L 99.3 123.3 L 94.2 130.2 L 92.91448278427124 129.47689657211305 L 92.5 133.0 L 91.0 142.7 L 89.1 151.7 L 86.8 160.1 L 84.2 167.8 L 81.1 174.8 L 77.5 181.1 L 73.5 186.6 L 72.0 185.7 L 74.1 179.5 L 76.1 172.9 L 77.9 165.8 L 79.4 158.3 L 80.7 150.1 L 81.8 141.4 L 82.5 132.0 L 83.0 122.1 L 83.1 111.6 L 83.0 100.4 L 83.0 28.4 Z M 144.9 176.4 L 156.9 176.4 L 158.1 176.3 L 159.0 176.1 L 159.6 176.0 L 159.9 175.8 L 160.3 175.4 L 160.5 175.1 L 160.6 174.5 L 160.8 173.6 L 160.9 172.4 L 160.9 91.2 L 125.2 91.2 L 125.2 87.2 L 160.9 87.2 L 160.9 45.3 L 172.9 47.3 L 175.9 49.3 L 172.9 51.1 L 172.9 87.2 L 177.2 87.2 L 181.7 81.2 L 187.7 87.2 L 187.7 91.2 L 172.9 91.2 L 172.9 172.4 L 172.7 174.9 L 172.3 177.4 L 171.5 179.8 L 170.3 182.1 L 168.6 184.1 L 166.6 185.8 L 164.3 187.0 L 161.9 187.8 L 159.4 188.2 L 156.9 188.4 L 156.9 182.4 L 144.9 179.4 Z M 29.6 133.0 L 58.6 133.0 L 64.6 128.0 L 75.6 137.0 L 70.6 141.0 L 70.6 175.0 L 58.6 181.0 L 58.6 175.0 L 29.6 175.0 L 29.6 182.0 L 17.6 188.0 L 17.6 127.0 Z M 29.6 137.0 L 29.6 171.0 L 58.6 171.0 L 58.6 137.0 Z M 141.1 132.0 L 140.3 129.0 L 139.2 126.0 L 137.9 123.0 L 136.4 120.0 L 134.7 116.9 L 132.8 113.8 L 130.6 110.6 L 128.1 107.6 L 129.3 106.2 L 132.6 108.5 L 136.0 110.7 L 139.1 113.2 L 141.9 115.9 L 144.5 118.7 L 146.8 121.7 L 149.0 124.8 L 150.8 128.1 L 152.5 131.6 L 153.9 135.1 L 153.1 139.6 L 149.4 142.4 L 144.9 141.6 L 142.2 137.9 L 141.8 135.0 Z M 70.0 108.0 L 70.0 112.0 L 18.2 112.0 L 18.2 108.0 L 48.0 108.0 L 58.0 98.0 Z M 70.0 82.0 L 70.0 86.0 L 18.2 86.0 L 18.2 82.0 L 48.0 82.0 L 58.0 72.0 Z M 78.2 54.0 L 78.2 58.0 L 14.5 58.0 L 14.5 54.0 L 56.2 54.0 L 66.2 44.0 Z M 70.0 28.0 L 70.0 32.0 L 18.2 32.0 L 18.2 28.0 L 48.0 28.0 L 58.0 18.0 Z " />
</g>
</svg>
