<svg xmlns="http://www.w3.org/2000/svg" xmlns:xlink="http://www.w3.org/1999/xlink" version="1.1" baseProfile="full" viewBox="0 0 200 200" width="200" height="200">
<g fill="black">
<path d="M 101.0 26.0 L 166.3 26.0 L 176.3 16.0 L 188.3 26.0 L 188.3 30.0 L 101.0 30.0 L 101.0 91.0 L 100.5 105.0 L 99.6 118.2 L 98.3 130.5 L 96.5 141.8 L 94.3 152.2 L 91.7 161.7 L 88.6 170.2 L 85.0 177.7 L 80.9 184.2 L 76.3 189.5 L 75.0 188.4 L 77.9 182.4 L 80.5 175.7 L 82.9 168.2 L 85.0 159.9 L 86.7 150.7 L 88.1 140.6 L 89.1 129.5 L 89.8 117.6 L 90.1 104.7 L 90.0 91.0 L 90.0 20.5 Z M 30.7 133.0 L 61.4 133.0 L 67.4 128.0 L 78.4 137.0 L 73.4 141.0 L 73.4 175.0 L 61.4 181.0 L 61.4 175.0 L 30.7 175.0 L 30.7 182.0 L 18.7 188.0 L 18.7 127.0 Z M 98.0 175.0 L 113.7 175.0 L 113.7 89.0 L 124.7 91.0 L 127.4 93.0 L 124.7 94.72340421676635 L 124.7 175.0 L 138.8 175.0 L 138.8 42.0 L 150.8 44.0 L 153.8 46.0 L 150.8 47.8 L 150.8 102.0 L 165.01818180084229 102.0 L 173.2 93.0 L 183.2 102.0 L 183.2 106.0 L 150.8 106.0 L 150.8 175.0 L 165.6 175.0 L 175.6 165.0 L 187.6 175.0 L 187.6 179.0 L 98.0 179.0 Z M 30.7 137.0 L 30.7 171.0 L 61.4 171.0 L 61.4 137.0 Z M 73.1 108.0 L 73.1 112.0 L 19.0 112.0 L 19.0 108.0 L 51.1 108.0 L 61.1 98.0 Z M 73.1 82.0 L 73.1 86.0 L 19.0 86.0 L 19.0 82.0 L 51.1 82.0 L 61.1 72.0 Z M 81.7 54.0 L 81.7 58.0 L 15.2 58.0 L 15.2 54.0 L 59.7 54.0 L 69.7 44.0 Z M 73.1 28.0 L 73.1 32.0 L 19.0 32.0 L 19.0 28.0 L 51.1 28.0 L 61.1 18.0 Z " />
</g>
</svg>
