<svg xmlns="http://www.w3.org/2000/svg" xmlns:xlink="http://www.w3.org/1999/xlink" version="1.1" baseProfile="full" viewBox="0 0 200 200" width="200" height="200">
<g fill="black">
<path d="M 46.0 149.1 L 48.0 152.0 L 44.17274761199951 152.67144775390625 L 43.8 153.4 L 41.4 157.7 L 38.7 161.9 L 35.8 166.0 L 32.7 170.1 L 29.3 174.0 L 25.6 177.9 L 21.7 181.7 L 17.4 185.2 L 12.8 188.6 L 11.6 187.3 L 14.7 182.7 L 17.7 178.2 L 20.5 173.8 L 23.2 169.5 L 25.7 165.3 L 28.0 161.1 L 30.0 157.0 L 31.8 152.8 L 33.4 148.7 L 34.47688112258911 145.62319688796998 L 34.4 145.6 L 35.3 143.3 Z M 169.6 146.0 L 171.6 146.0 L 169.6 171.0 L 173.2 173.4 L 175.6 177.0 L 173.2 180.6 L 169.6 183.0 L 129.4 183.0 L 126.9 182.8 L 124.4 182.4 L 122.0 181.6 L 119.7 180.3 L 117.7 178.7 L 116.0 176.7 L 114.8 174.4 L 114.0 172.0 L 113.6 169.5 L 113.4 167.0 L 113.4 155.7529411315918 L 106.9 163.4 L 94.1 176.5 L 80.3 188.6 L 79.1 187.3 L 91.3 173.9 L 102.8 159.9 L 113.4 145.63457946777345 L 113.4 51.0 L 125.4 53.0 L 128.4 55.0 L 125.4 56.8 L 125.4 127.05760869979858 L 132.7 114.6 L 141.1 98.1 L 148.7 81.0 L 155.5 63.2 L 161.5 44.6 L 166.42789688110352 26.404688549041747 L 166.4 26.4 L 167.1 23.7 L 178.3 28.4 L 180.7 31.1 L 177.14938077926635 32.177866554260255 L 172.3 48.1 L 165.5 66.9 L 157.9 85.0 L 149.4 102.3 L 140.0 118.8 L 129.8 134.5 L 125.4 140.46000003814697 L 125.4 167.0 L 125.5 168.2 L 125.7 169.1 L 126.0 170.0 L 126.4 170.4 L 127.3 170.7 L 128.2 170.9 L 129.4 171.0 L 163.6 171.0 Z M 70.4 167.7 L 69.3 164.9 L 68.0 162.1 L 66.6 159.3 L 65.0 156.5 L 61.2 150.9 L 59.1 147.9 L 56.6 145.3 L 57.7 143.8 L 60.9 145.8 L 64.1 147.7 L 67.2 149.8 L 70.0 152.1 L 72.7 154.5 L 75.2 157.1 L 77.5 159.9 L 79.6 162.8 L 81.6 165.8 L 83.3 169.0 L 83.2 173.6 L 79.9 176.8 L 75.3 176.6 L 72.1 173.3 L 71.4 170.5 Z M 32.0 22.5 L 66.7 22.5 L 72.7 17.5 L 83.7 26.5 L 78.7 30.5 L 78.7 134.8 L 66.7 140.8 L 66.7 134.8 L 32.0 134.8 L 32.0 141.8 L 20.0 147.8 L 20.0 16.5 Z M 89.0 144.7 L 85.9 141.4 L 85.9 136.8 L 87.7 132.9 L 89.4 128.6 L 90.9 124.0 L 92.2 119.0 L 93.3 113.6 L 94.3 107.8 L 95.0 101.7 L 95.6 95.2 L 96.2 88.3 L 96.7 81.0 L 98.5 80.9 L 100.0 88.1 L 101.0 95.1 L 101.6 101.8 L 101.8 108.3 L 101.8 114.5 L 101.4 120.4 L 100.7 126.1 L 99.8 131.5 L 98.5 136.7 L 96.9 141.6 L 93.6 144.7 Z M 175.3 122.3 L 174.6 117.3 L 173.7 112.3 L 172.5 107.3 L 171.0 102.4 L 169.4 97.5 L 165.4 87.5 L 163.2 82.3 L 164.6 81.3 L 168.6 85.4 L 172.1 89.9 L 175.3 94.6 L 178.0 99.4 L 180.5 104.5 L 182.6 109.6 L 184.4 114.9 L 185.9 120.4 L 187.1 125.9 L 187.9 131.5 L 186.4 135.9 L 182.3 137.9 L 178.0 136.4 L 175.9 132.4 L 175.8 127.3 Z M 32.0 97.2 L 32.0 130.8 L 66.7 130.8 L 66.7 97.2 Z M 32.0 61.8 L 32.0 93.2 L 66.7 93.2 L 66.7 61.8 Z M 32.0 26.5 L 32.0 57.8 L 66.7 57.8 L 66.7 26.5 Z M 137.8 44.2 L 135.7 41.2 L 133.3 38.1 L 130.5 35.1 L 127.4 32.0 L 123.9 28.9 L 120.1 25.7 L 116.0 22.5 L 111.6 19.2 L 112.4 17.6 L 117.7 19.4 L 122.7 21.4 L 127.4 23.7 L 131.8 26.1 L 135.8 28.8 L 139.6 31.5 L 143.0 34.5 L 146.1 37.6 L 149.0 40.9 L 151.5 44.4 L 151.9 49.0 L 149.1 52.6 L 144.6 53.0 L 141.0 50.2 L 139.5 47.2 Z " />
</g>
</svg>
