<svg xmlns="http://www.w3.org/2000/svg" xmlns:xlink="http://www.w3.org/1999/xlink" version="1.1" baseProfile="full" viewBox="0 0 200 200" width="200" height="200">
<g fill="black">
<path d="M 43.6 148.9 L 45.7 151.8 L 41.953146839141844 152.52307691574097 L 41.6 153.3 L 39.4 157.5 L 36.9 161.7 L 34.2 165.9 L 31.3 169.9 L 28.2 173.9 L 24.8 177.8 L 21.1 181.5 L 17.2 185.1 L 12.9 188.6 L 11.6 187.3 L 14.3 182.7 L 17.0 178.3 L 19.6 173.9 L 22.0 169.7 L 24.2 165.5 L 26.2 161.3 L 28.0 157.1 L 29.6 153.0 L 31.1 148.9 L 32.02777338027954 145.8074221611023 L 32.0 145.8 L 32.8 143.4 Z M 104.0 176.5 L 124.0 176.5 L 125.2 176.4 L 126.1 176.2 L 127.0 175.9 L 127.4 175.5 L 127.7 174.6 L 127.9 173.7 L 128.0 172.5 L 128.0 126.0 L 85.2 126.0 L 85.2 122.0 L 128.0 122.0 L 128.0 96.0 L 137.1011236190796 97.51685390472412 L 138.8 94.2 L 140.8 90.4 L 142.7 86.8 L 144.5 83.4 L 146.1 80.3 L 147.6 77.3 L 148.7925926208496 75.0 L 108.2 75.0 L 108.2 71.0 L 150.4 71.0 L 150.86265058517455 70.61445779800415 L 151.3 69.7 L 151.67240219116212 69.93966484069824 L 156.4 66.0 L 165.78400001525878 73.67781820297242 L 166.1 72.5 L 166.8 68.5 L 167.5 64.7 L 168.3 61.1 L 168.9 57.7 L 169.5 54.4 L 170.1 51.4 L 170.6 48.5 L 170.8222222328186 47.0 L 97.37333335876465 47.0 L 97.6 50.4 L 97.6 55.9 L 97.5 60.9 L 97.1 65.6 L 96.5 69.7 L 95.7 73.5 L 94.5 77.0 L 93.0 80.1 L 89.0 82.4 L 84.6 81.4 L 82.3 77.4 L 83.3 73.0 L 84.5 71.7 L 85.7 69.8 L 87.0 67.1 L 88.2 63.7 L 89.3 59.8 L 90.3 55.2 L 91.2 50.0 L 92.1 44.2 L 93.0 37.9 L 93.9 31.0 L 95.7 30.9 L 96.6 37.9 L 97.07076921463013 43.0 L 128.0 43.0 L 128.0 13.0 L 140.0 15.0 L 143.0 17.0 L 140.0 18.8 L 140.0 43.0 L 171.1 43.0 L 177.1 38.0 L 188.1 47.0 L 183.1 50.0 L 180.79523811340331 50.96031742095947 L 180.5 51.6 L 179.2 54.4 L 176.3 60.2 L 174.6 63.4 L 172.8 66.6 L 170.9 70.0 L 168.7 73.5 L 166.7 77.3 L 165.0 76.6 L 165.051162815094 76.40930233001708 L 162.4 78.0 L 158.29585800170898 79.71005916595459 L 157.7 80.4 L 155.6 82.8 L 153.3 85.3 L 150.9 88.0 L 148.3 90.8 L 145.4 93.8 L 142.4 96.8 L 140.68888893127442 98.45925922393799 L 143.0 100.0 L 140.0 101.8 L 140.0 122.0 L 161.2 122.0 L 171.2 112.0 L 183.2 122.0 L 183.2 126.0 L 140.0 126.0 L 140.0 172.5 L 139.8 175.0 L 139.4 177.5 L 138.6 179.9 L 137.3 182.2 L 135.7 184.2 L 133.7 185.8 L 131.4 187.1 L 129.0 187.9 L 126.5 188.3 L 124.0 188.5 L 124.0 182.5 L 104.0 179.5 Z M 64.9 167.5 L 64.0 164.7 L 61.6 159.1 L 60.1 156.4 L 58.5 153.6 L 56.8 150.8 L 54.9 147.9 L 52.7 145.3 L 53.9 143.9 L 56.8 145.9 L 59.9 147.8 L 62.7 149.9 L 65.4 152.2 L 67.8 154.7 L 70.2 157.3 L 72.3 160.0 L 74.3 162.9 L 76.1 166.0 L 77.7 169.1 L 77.4 173.7 L 74.0 176.8 L 69.5 176.5 L 66.4 173.1 L 65.7 170.3 Z M 30.9 22.5 L 61.5 22.5 L 67.5 17.5 L 78.5 26.5 L 73.5 30.5 L 73.5 134.8 L 61.5 140.8 L 61.5 134.8 L 30.9 134.8 L 30.9 137.8 L 18.9 143.8 L 18.9 16.5 Z M 30.9 97.2 L 30.9 130.8 L 61.5 130.8 L 61.5 97.2 Z M 30.9 61.8 L 30.9 93.2 L 61.5 93.2 L 61.5 61.8 Z M 30.9 26.5 L 30.9 57.8 L 61.5 57.8 L 61.5 26.5 Z " />
</g>
</svg>
