<svg xmlns="http://www.w3.org/2000/svg" xmlns:xlink="http://www.w3.org/1999/xlink" version="1.1" baseProfile="full" viewBox="0 0 200 200" width="200" height="200">
<g fill="black">
<path d="M 52.1 167.0 L 52.3 168.3 L 52.6 169.3 L 52.9 170.0 L 53.2 170.4 L 53.5 170.6 L 54.3 170.8 L 55.0 170.9 L 55.9 171.0 L 83.8 171.0 L 89.8 146.0 L 91.8 146.0 L 89.8 171.0 L 93.4 173.4 L 95.8 177.0 L 93.74838705062866 180.07741937637329 L 98.3 177.4 L 103.1 174.6 L 107.5 171.8 L 111.5 169.2 L 115.2 166.7 L 118.5 164.3 L 121.4 162.0 L 123.1525580406189 160.45774898529052 L 123.1 160.4 L 123.9 159.7 L 131.2 169.3 L 131.4 172.9 L 127.59428567886353 171.41999998092652 L 124.2 173.4 L 120.3 175.4 L 116.0 177.4 L 111.4 179.4 L 106.4 181.4 L 101.1 183.4 L 95.4 185.3 L 89.3 187.1 L 82.8 188.8 L 82.1 187.1 L 87.8 183.6 L 88.8125 183.0 L 57.1 183.0 L 54.6 182.7 L 52.1 182.2 L 49.8 181.3 L 47.6 180.0 L 45.8 178.3 L 44.3 176.3 L 43.2 174.1 L 42.5 171.8 L 42.2 169.4 L 42.1 167.0 L 42.1 87.0 L 52.1 92.0 L 70.2 92.0 L 76.2 87.0 L 87.2 96.0 L 82.2 100.0 L 82.2 129.0 L 82.1 131.5 L 81.7 134.0 L 80.9 136.4 L 79.6 138.7 L 78.0 140.7 L 76.0 142.3 L 73.7 143.6 L 71.3 144.4 L 68.8 144.8 L 66.2 145.0 L 66.2 139.0 L 52.1 136.65 Z M 22.9 76.5 L 18.1 83.1 L 13.0 89.4 L 11.5 88.5 L 14.9 81.1 L 18.2 73.9 L 21.6 66.6 L 24.8 59.4 L 27.8 52.1 L 30.7 44.8 L 33.5 37.5 L 36.0 30.0 L 38.4 22.6 L 40.33373575210571 16.007719230651855 L 40.3 16.0 L 41.1 13.5 L 52.1 18.7 L 54.3 21.6 L 50.69842967987061 22.421410751342773 L 49.2 26.4 L 47.298666667938235 31.0 L 61.5 31.0 L 67.5 26.0 L 78.5 35.0 L 73.5 38.0 L 71.34672899246216 38.8971962928772 L 70.3 41.2 L 68.7 44.4 L 65.1 51.0 L 63.1 54.3 L 61.0 57.6 L 58.7 60.8 L 56.2 64.1 L 55.54545450210571 65.0 L 72.2 65.0 L 82.2 55.0 L 94.2 65.0 L 94.2 69.0 L 34.7 69.0 L 34.7 107.0 L 34.3 117.4 L 33.6 127.4 L 32.5 136.9 L 31.2 145.9 L 29.5 154.3 L 27.5 162.3 L 25.2 169.7 L 22.5 176.5 L 19.4 182.7 L 15.8 188.3 L 14.5 187.6 L 16.4 181.5 L 18.3 175.0 L 19.9 168.1 L 21.4 160.8 L 22.6 153.1 L 23.5 144.8 L 24.2 136.1 L 24.6 126.9 L 24.8 117.2 L 24.7 107.0 L 24.7 73.78000001907348 Z M 170.5 181.5 L 168.6 179.5 L 166.3 177.5 L 163.7 175.4 L 160.7 173.4 L 157.3 171.3 L 153.6 169.2 L 149.6 167.0 L 145.1 165.1 L 145.6 163.4 L 150.5 164.2 L 155.1 164.9 L 159.5 165.9 L 163.6 167.1 L 167.4 168.5 L 170.9 170.0 L 174.3 171.6 L 177.3 173.5 L 180.1 175.6 L 182.6 177.9 L 183.9 182.3 L 181.7 186.3 L 177.3 187.5 L 173.3 185.4 L 172.1 183.5 Z M 171.14600763320922 52.19239540100098 L 169.8 53.0 L 169.53073167800903 53.112195110321046 L 169.4 55.4 L 169.1 58.5 L 168.8 61.4 L 168.5 64.1 L 168.1 66.5 L 167.7 68.6 L 167.2 70.6 L 166.6 72.4 L 165.8 74.1 L 164.5 76.3 L 163.0 78.2 L 161.3 80.0 L 159.5 81.6 L 157.5 82.9 L 155.3 84.0 L 153.0 84.9 L 150.6 85.5 L 148.2 85.8 L 145.7 86.0 L 145.7 80.0 L 125.7 77.0 L 125.7 74.0 L 145.7 74.0 L 147.1 73.9 L 148.3 73.7 L 149.5 73.4 L 150.5 73.1 L 151.4 72.6 L 152.2 72.0 L 153.0 71.3 L 153.8 70.5 L 154.6 69.5 L 155.3 68.3 L 155.4 68.1 L 155.7 67.3 L 156.0 66.0 L 156.3 64.4 L 156.6 62.5 L 156.9 60.1 L 157.1 57.5 L 157.4 54.5 L 157.6 51.3 L 157.6722222328186 50.0 L 140.40701751708986 50.0 L 138.4 55.2 L 135.7 60.5 L 132.5 65.4 L 128.8 69.8 L 124.7 73.7 L 120.0 77.2 L 115.0 80.2 L 109.5 82.7 L 103.5 84.5 L 100.17303371429443 85.18651685714721 L 111.8 91.0 L 161.8 91.0 L 167.8 86.0 L 178.8 95.0 L 173.8 99.0 L 173.8 155.0 L 161.8 161.0 L 161.8 155.0 L 111.8 155.0 L 111.8 158.0 L 99.8 164.0 L 99.8 85.26349210739136 L 97.2 85.8 L 96.7 84.1 L 102.1 81.0 L 107.0 77.9 L 111.4 74.7 L 115.3 71.3 L 118.7 67.7 L 121.6 63.9 L 124.1 59.9 L 126.1 55.7 L 127.8 51.2 L 128.1 50.0 L 113.0 50.0 L 113.0 46.0 L 157.8 46.0 L 160.38637599945068 43.844686603546144 L 158.0 40.8 L 155.7 36.9 L 154.1 32.7 L 153.2 28.3 L 153.0 23.7 L 153.2361701965332 20.0 L 120.3 20.0 L 120.3 16.0 L 149.2800000190735 16.0 L 154.2 11.9 L 165.2 20.9 L 160.2 23.9 L 157.40879125595092 25.29560441970825 L 158.1 26.8 L 160.1 29.9 L 162.3 32.7 L 164.7 35.1 L 167.4 37.1 L 170.4 38.9 L 173.8 40.4 L 177.5 41.6 L 181.7 42.6 L 189.7 44.9 L 178.0 55.3 L 173.0 53.2 Z M 111.8 135.0 L 111.8 151.0 L 161.8 151.0 L 161.8 135.0 Z M 111.8 115.0 L 111.8 131.0 L 161.8 131.0 L 161.8 115.0 Z M 111.8 95.0 L 111.8 111.0 L 161.8 111.0 L 161.8 95.0 Z M 45.609459495544435 35.0 L 42.8 41.3 L 39.2 48.6 L 35.5 55.8 L 31.5 62.8 L 31.225139617919922 63.26256980895996 L 34.7 65.0 L 52.713157939910886 65.0 L 53.5 62.7 L 54.6 58.8 L 55.7 55.1 L 56.8 51.5 L 57.8 47.9 L 58.8 44.4 L 59.6 41.0 L 60.4 37.7 L 60.97272729873657 35.0 Z M 124.5 28.4 L 126.4 31.5 L 122.4114200592041 31.91261167526245 L 122.3 32.1 L 119.9 35.6 L 117.3 38.9 L 114.5 42.2 L 111.6 45.2 L 108.5 48.1 L 105.2 50.8 L 101.7 53.3 L 94.3 57.7 L 93.2 56.2 L 96.0 53.1 L 98.5 49.8 L 101.0 46.6 L 103.3 43.4 L 105.4 40.1 L 107.4 36.9 L 109.2 33.6 L 110.8 30.2 L 112.3 26.8 L 113.25774269104004 24.221461868286134 L 113.2 24.2 L 113.45555553436279 23.688888931274413 L 113.6 23.3 L 113.64052047729493 23.318959140777586 L 114.2 22.2 Z M 154.1 18.955555534362794 L 154.2 18.95 L 154.2 18.9 L 154.1 18.86666669845581 Z M 52.1 96.0 L 52.1 133.0 L 66.2 133.0 L 67.5 132.9 L 68.4 132.7 L 69.3 132.4 L 69.7 132.0 L 70.0 131.1 L 70.2 130.2 L 70.2 96.0 Z " />
</g>
</svg>
