<svg xmlns="http://www.w3.org/2000/svg" xmlns:xlink="http://www.w3.org/1999/xlink" version="1.1" baseProfile="full" viewBox="0 0 200 200" width="200" height="200">
<g fill="black">
<path d="M 115.2 29.0 L 170.7 29.0 L 176.7 24.0 L 187.7 33.0 L 182.7 37.0 L 182.7 74.0 L 170.7 80.0 L 170.7 68.0 L 115.2 68.0 L 115.2 98.0 L 114.8 110.5 L 113.8 122.4 L 112.5 133.5 L 110.7 143.8 L 108.4 153.3 L 105.7 162.1 L 102.5 170.0 L 98.9 177.1 L 94.6 183.3 L 89.9 188.5 L 88.6 187.4 L 91.7 181.5 L 92.81404943466187 178.81802921295167 L 86.7 185.6 L 75.9 184.6 L 66.1 182.5 L 57.5 179.2 L 49.9 174.9 L 43.5 169.6 L 38.3 163.5 L 34.2 156.7 L 31.486502933502198 150.22261991500855 L 30.8 152.7 L 28.1 160.7 L 25.0 168.3 L 21.5 175.5 L 17.6 182.2 L 13.2 188.4 L 11.6 187.5 L 14.2 180.5 L 16.6 173.4 L 18.8 166.1 L 20.8 158.5 L 22.5 150.7 L 24.0 142.5 L 25.1 134.0 L 26.0 125.2 L 26.6 116.1 L 26.9 106.7 L 26.93026485443115 106.70126104354858 L 27.0 104.4 L 38.9 107.2 L 41.8 109.4 L 38.53943214416504 111.12618293762208 L 38.0 117.0 L 36.7 126.5 L 35.1 135.6 L 33.78473138809204 141.38718194961547 L 36.5 146.9 L 40.4 152.9 L 44.7 158.1 L 49.1 162.06000003814697 L 49.1 88.0 L 14.0 88.0 L 14.0 84.0 L 49.1 84.0 L 49.1 48.0 L 20.3 48.0 L 20.3 44.0 L 49.1 44.0 L 49.1 13.0 L 61.1 15.0 L 64.1 17.0 L 61.1 18.8 L 61.1 44.0 L 69.4 44.0 L 79.4 34.0 L 91.4 44.0 L 91.4 48.0 L 61.1 48.0 L 61.1 84.0 L 75.8 84.0 L 85.8 74.0 L 97.8 84.0 L 97.8 88.0 L 55.1 88.0 L 61.1 89.0 L 64.1 91.0 L 61.1 92.8 L 61.1 124.0 L 73.21818180084229 124.0 L 81.4 115.0 L 91.4 124.0 L 91.4 128.0 L 61.1 128.0 L 61.1 168.7375 L 61.7 169.0 L 69.0 171.0 L 77.3 172.2 L 86.7 172.4 L 95.31549291610717 172.4 L 96.9 167.9 L 99.0 160.1 L 100.8 151.6 L 102.3 142.4 L 103.3 132.4 L 104.0 121.7 L 104.3 110.2 L 104.2 98.0 L 104.2 23.5 Z M 140.4 183.8 L 138.0 183.3 L 135.6 182.4 L 133.4 181.2 L 131.4 179.5 L 129.8 177.5 L 128.7 175.3 L 128.0 172.9 L 127.6 170.5 L 127.5 168.0 L 127.5 81.0 L 138.5 83.0 L 141.2 85.0 L 138.5 86.72340421676635 L 138.5 123.54468088150024 L 142.1 121.4 L 146.7 118.7 L 151.2 116.1 L 155.6 113.5 L 159.8 110.9 L 163.9 108.3 L 167.9 105.7 L 171.7 103.1 L 175.4 100.4 L 178.33360691070556 105.00350618362427 L 182.9 109.9 L 183.1 113.3 L 179.4787338256836 111.83878736495971 L 177.6 112.8 L 173.2 115.0 L 168.7 117.2 L 164.1 119.2 L 159.3 121.1 L 154.4 123.0 L 149.4 124.7 L 144.2 126.3 L 138.8 127.7 L 138.5 127.76000003814697 L 138.5 168.0 L 138.6 169.2 L 138.8 170.2 L 139.3 171.2 L 139.6 171.4 L 140.2 171.7 L 140.8 171.8 L 141.7 171.9 L 143.0 172.0 L 176.3 172.0 L 182.3 147.0 L 184.3 147.0 L 182.3 172.0 L 185.9 174.4 L 188.3 178.0 L 185.9 181.6 L 182.3 184.0 L 143.0 184.0 Z M 115.2 33.0 L 115.2 64.0 L 170.7 64.0 L 170.7 33.0 Z " />
</g>
</svg>
