<svg xmlns="http://www.w3.org/2000/svg" xmlns:xlink="http://www.w3.org/1999/xlink" version="1.1" baseProfile="full" viewBox="0 0 200 200" width="200" height="200">
<g fill="black">
<path d="M 131.4 67.9 L 131.4 71.9 L 106.0 71.9 L 106.0 182.1 L 97.0 186.6 L 97.0 71.9 L 73.6 71.9 L 73.6 67.9 L 109.4 67.9 L 119.4 57.9 Z M 14.0 168.9 L 19.0 167.52068967819213 L 19.0 101.0 L 30.0 103.0 L 32.8 105.0 L 30.0 106.75 L 30.0 164.13448276519776 L 31.4 163.7 L 37.3 161.7 L 39.6 160.90689659118652 L 39.6 80.0 L 30.5 80.0 L 30.5 83.0 L 18.5 89.0 L 18.5 22.0 L 30.5 28.0 L 57.5 28.0 L 63.5 23.0 L 74.5 32.0 L 69.5 36.0 L 69.5 86.0 L 57.5 92.0 L 57.5 80.0 L 50.6 80.0 L 50.6 117.0 L 57.577777767181395 117.0 L 63.8 110.0 L 71.8 117.0 L 71.8 121.0 L 50.6 121.0 L 50.6 156.99491529464723 L 54.8 155.5 L 60.7 153.3 L 66.6 151.2 L 72.7 149.2 L 73.6 150.7 L 68.4 154.6 L 63.0 158.1 L 57.6 161.4 L 52.1 164.6 L 46.5 167.5 L 40.8 170.3 L 35.1 173.0 L 29.4 175.6 L 23.6 178.0 L 21.627380275726317 178.76898736953734 L 20.6 182.5 L 17.7 180.3 L 12.1 169.6 Z M 149.0 178.5 L 146.5 178.1 L 144.1 177.2 L 141.9 176.0 L 139.9 174.3 L 138.4 172.3 L 137.2 170.1 L 136.5 167.7 L 136.1 165.2 L 136.0 162.7 L 136.0 18.5 L 147.0 20.5 L 149.8 22.5 L 147.0 24.25 L 147.0 162.7 L 147.1 164.0 L 147.3 165.0 L 147.6 165.6 L 147.9 166.0 L 148.1 166.2 L 148.7 166.5 L 149.3 166.6 L 150.3 166.7 L 175.5 166.7 L 181.5 141.7 L 183.5 141.7 L 181.5 166.7 L 185.1 169.1 L 187.5 172.7 L 185.1 176.3 L 181.5 178.7 L 151.5 178.7 Z M 89.4 89.3 L 91.9 91.3 L 89.4 92.96666669845581 L 89.4 120.4 L 89.0 128.3 L 88.4 135.8 L 87.6 142.6 L 86.5 148.9 L 85.1 154.5 L 83.5 159.6 L 81.6 164.1 L 79.5 167.9 L 76.9 171.0 L 74.1 173.2 L 73.0 172.2 L 74.3 169.2 L 75.5 165.9 L 76.5 162.2 L 77.4 157.9 L 78.2 153.1 L 78.8 147.7 L 79.2 141.8 L 79.5 135.2 L 79.5 128.1 L 79.4 120.4 L 79.4 87.3 Z M 124.9 89.3 L 127.4 91.3 L 124.9 92.96666669845581 L 124.9 154.7 L 114.9 159.7 L 114.9 87.3 Z M 30.5 32.0 L 30.5 76.0 L 57.5 76.0 L 57.5 32.0 Z M 125.0 33.0 L 125.0 37.0 L 80.6 37.0 L 80.6 33.0 L 106.81818180084228 33.0 L 115.0 24.0 Z " />
</g>
</svg>
