<svg xmlns="http://www.w3.org/2000/svg" xmlns:xlink="http://www.w3.org/1999/xlink" version="1.1" baseProfile="full" viewBox="0 0 200 200" width="200" height="200">
<g fill="black">
<path d="M 163.8 166.7 L 158.2 154.5 L 153.6 140.5 L 149.8 124.6 L 146.8 106.9 L 144.6 87.3 L 143.2 65.7 L 142.97063827514648 58.0 L 84.1 58.0 L 84.1 54.0 L 142.85148935317994 54.0 L 142.5 42.2 L 142.6 16.8 L 142.6302801132202 16.800757026672365 L 142.7 14.5 L 154.6 17.1 L 157.6 19.1 L 154.5851427078247 20.814330673217775 L 154.5 42.1 L 154.80909090042115 54.0 L 164.1 54.0 L 174.1 44.0 L 186.1 54.0 L 186.1 58.0 L 154.9129870414734 58.0 L 155.1 65.2 L 156.5 86.2 L 158.7 105.2 L 161.5 122.3 L 165.1 137.2 L 169.4 150.2 L 174.3 161.0 L 177.94112901687623 166.72177419662475 L 181.8 150.0 L 183.8 150.0 L 182.08890199661255 172.24427394866944 L 185.9 176.5 L 187.7 180.7 L 186.2 185.0 L 182.0 186.9 L 177.7 185.4 L 170.2 177.0 Z M 134.4 142.7 L 136.4 142.7 L 134.4 167.7 L 138.0 170.1 L 140.4 173.7 L 138.0 177.3 L 134.4 179.7 L 116.1 179.7 L 113.6 179.5 L 111.1 179.1 L 108.7 178.3 L 106.4 177.1 L 104.4 175.4 L 102.7 173.4 L 101.5 171.1 L 100.7 168.7 L 100.3 166.2 L 100.1 163.7 L 100.1 89.9 L 112.1 91.9 L 115.1 93.9 L 112.1 95.7 L 112.1 163.7 L 112.2 164.9 L 112.4 165.8 L 112.7 166.7 L 113.1 167.1 L 113.4 167.3 L 114.0 167.4 L 114.9 167.6 L 116.1 167.7 L 128.4 167.7 Z M 82.4 153.0 L 81.90561800003051 152.12359552383424 L 77.8 154.6 L 71.3 158.2 L 64.7 161.5 L 58.0 164.7 L 44.4 170.5 L 30.6 175.7 L 20.58629493713379 179.1332703590393 L 19.4 182.8 L 16.6 180.5 L 11.5 169.4 L 13.4 168.9 L 19.6 167.39428567886353 L 19.6 101.0 L 31.6 103.0 L 34.6 105.0 L 31.6 106.8 L 31.6 164.36000003814698 L 41.4 161.7 L 44.2 160.84782609939575 L 44.2 80.0 L 31.6 80.0 L 31.6 83.0 L 19.6 89.0 L 19.6 22.0 L 31.6 28.0 L 66.3 28.0 L 72.3 23.0 L 83.3 32.0 L 78.3 36.0 L 78.3 86.0 L 66.3 92.0 L 66.3 80.0 L 56.2 80.0 L 56.2 117.0 L 67.8777777671814 117.0 L 74.1 110.0 L 82.1 117.0 L 82.1 121.0 L 56.2 121.0 L 56.2 157.317142868042 L 62.3 155.4 L 69.2 153.3 L 80.65756731033325 149.91114206314086 L 80.2 149.1 L 81.3 144.6 L 82.7 143.1 L 84.1 141.1 L 85.4 138.7 L 86.7 135.7 L 87.9 132.3 L 89.1 128.4 L 90.1 124.0 L 91.0 119.3 L 91.9 114.1 L 92.6 108.4 L 94.4 108.4 L 95.1 114.1 L 95.7 119.5 L 96.0 124.5 L 96.1 129.3 L 95.9 133.7 L 95.4 137.9 L 94.7 141.8 L 93.7 145.4 L 92.5 148.7 L 90.8 151.9 L 86.9 154.1 Z M 137.3 133.9 L 137.0 130.2 L 136.6 126.6 L 136.0 123.0 L 135.3 119.5 L 134.5 116.1 L 133.6 112.6 L 132.6 109.2 L 131.3 105.9 L 132.8 104.9 L 135.2 107.7 L 137.7 110.6 L 139.9 113.7 L 141.8 117.1 L 143.6 120.6 L 145.1 124.3 L 146.5 128.2 L 147.6 132.2 L 148.6 136.4 L 149.4 140.7 L 147.9 145.0 L 143.8 147.1 L 139.5 145.7 L 137.4 141.6 L 137.4 137.7 Z M 118.3 78.3 L 117.3 75.9 L 116.2 73.7 L 115.0 71.7 L 113.6 69.7 L 112.2 67.9 L 110.6 66.1 L 108.9 64.4 L 106.8 63.2 L 107.4 61.5 L 109.9 62.2 L 112.6 62.7 L 115.2 63.6 L 117.7 64.8 L 120.2 66.4 L 122.6 68.3 L 124.9 70.4 L 127.1 72.8 L 129.1 75.5 L 131.1 78.4 L 131.2 83.0 L 128.2 86.4 L 123.6 86.5 L 120.2 83.5 L 119.3 80.8 Z M 31.6 32.0 L 31.6 76.0 L 66.3 76.0 L 66.3 32.0 Z M 171.4 36.7 L 170.8 34.7 L 169.9 32.6 L 168.9 30.5 L 167.6 28.4 L 166.1 26.2 L 164.4 24.0 L 162.5 21.7 L 160.1 19.8 L 161.0 18.3 L 163.9 19.7 L 166.8 20.9 L 169.6 22.3 L 172.1 23.9 L 174.5 25.6 L 176.7 27.6 L 178.7 29.7 L 180.6 32.0 L 182.2 34.5 L 183.5 37.1 L 183.0 41.7 L 179.5 44.6 L 175.0 44.1 L 172.1 40.6 L 171.8 38.7 Z " />
</g>
</svg>
