<svg xmlns="http://www.w3.org/2000/svg" xmlns:xlink="http://www.w3.org/1999/xlink" version="1.1" baseProfile="full" viewBox="0 0 200 200" width="200" height="200">
<g fill="black">
<path d="M 54.0 124.1 L 54.0 139.1 L 144.0 139.1 L 144.0 124.1 Z M 39.5 23.0 L 165.8181818008423 23.0 L 174.0 14.0 L 184.0 23.0 L 184.0 27.0 L 39.5 27.0 L 39.5 65.0 L 39.0 73.6 L 38.0 81.7 L 36.6 89.2 L 34.7 96.3 L 32.4 102.7 L 29.6 108.6 L 26.3 113.9 L 22.5 118.6 L 18.2 122.5 L 13.5 125.6 L 12.4 124.3 L 15.7 120.1 L 18.5 115.6 L 21.1 110.9 L 23.2 105.7 L 25.0 100.2 L 26.5 94.1 L 27.5 87.6 L 28.2 80.6 L 28.5 73.0 L 28.5 17.5 Z M 79.0 107.0 L 91.0 107.0 L 92.2 106.9 L 93.1 106.7 L 94.0 106.4 L 94.4 106.0 L 94.7 105.1 L 94.9 104.2 L 95.0 103.0 L 95.0 100.0 L 59.0 100.0 L 59.0 114.0 L 50.4 118.3 L 54.0 120.1 L 144.0 120.1 L 150.0 115.1 L 161.0 124.1 L 156.0 128.1 L 156.0 143.1 L 144.0 149.1 L 144.0 143.1 L 103.0 143.1 L 103.0 157.2 L 148.0 157.2 L 158.0 147.2 L 170.0 157.2 L 170.0 161.2 L 103.0 161.2 L 103.0 174.80727272033693 L 113.8 175.2 L 132.7 175.1 L 154.0 174.5 L 177.6 173.2 L 188.8 172.6 L 178.3 186.4 L 154.3 187.0 L 132.7 186.9 L 113.4 186.2 L 96.4 184.8 L 81.8 182.7 L 69.5 179.8 L 59.6 176.2 L 52.0 171.8 L 47.82041311264038 167.19392471313478 L 44.2 171.0 L 40.0 174.8 L 35.5 178.2 L 30.5 181.4 L 25.2 184.2 L 19.4 186.6 L 13.3 188.5 L 12.6 186.9 L 17.7 183.2 L 22.4 179.6 L 26.7 176.0 L 30.6 172.4 L 34.2 168.7 L 37.3 164.8 L 40.0 160.9 L 42.4 156.9 L 44.4 152.7 L 45.65815420150757 149.3187105178833 L 45.6 149.3 L 45.95897436141968 148.51025638580322 L 46.0 148.4 L 46.00764989852905 148.4031702041626 L 46.6 147.1 L 57.1 153.0 L 59.1 155.9 L 55.23763189315796 156.5098476409912 L 54.5 157.9 L 51.5 162.6 L 50.520120239257814 163.83925971984863 L 55.2 166.8 L 62.2 169.5 L 71.5 171.7 L 83.2 173.4 L 91.0 174.0638298034668 L 91.0 143.1 L 54.0 143.1 L 42.0 149.1 L 42.0 114.1 L 47.0 116.6 L 47.0 66.0 L 59.0 72.0 L 95.0 72.0 L 101.0 67.0 L 112.0 76.0 L 107.0 80.0 L 107.0 103.0 L 106.8 105.5 L 106.4 108.0 L 105.6 110.4 L 104.3 112.7 L 102.7 114.7 L 100.7 116.3 L 98.4 117.6 L 96.0 118.4 L 93.5 118.8 L 91.0 119.0 L 91.0 113.0 L 79.0 110.0 Z M 165.8 109.9 L 161.2 105.0 L 157.2 99.8 L 153.8 94.2 L 151.0 88.3 L 148.7 82.2 L 147.1 75.7 L 146.3 69.0 L 146.22428846359253 63.775901317596436 L 144.9 72.1 L 142.8 80.3 L 140.0 87.9 L 136.5 94.9 L 132.2 101.2 L 127.3 106.8 L 121.6 111.6 L 115.3 115.6 L 108.4 118.7 L 107.5 117.2 L 113.1 112.5 L 118.0 107.6 L 122.3 102.5 L 125.9 96.9 L 128.9 91.0 L 131.3 84.6 L 133.1 77.8 L 134.3 70.4 L 134.8550000190735 63.0 L 111.0 63.0 L 111.0 59.0 L 134.94047622680665 59.0 L 135.0 54.0 L 135.0 31.0 L 147.0 33.0 L 150.0 35.0 L 147.0 36.8 L 147.0 54.0 L 146.62365589141845 59.0 L 162.0 59.0 L 172.0 49.0 L 184.0 59.0 L 184.0 63.0 L 148.4380952835083 63.0 L 150.3 68.1 L 152.8 74.0 L 155.4 79.4 L 158.4 84.5 L 161.7 89.2 L 165.3 93.5 L 169.2 97.4 L 173.6 101.0 L 178.3 104.3 L 183.4 107.3 L 187.7 109.9 L 176.5 118.6 L 170.9 114.4 Z M 59.0 88.0 L 59.0 96.0 L 95.0 96.0 L 95.0 88.0 Z M 59.0 76.0 L 59.0 84.0 L 95.0 84.0 L 95.0 76.0 Z M 62.2 34.5 L 90.2 34.5 L 96.2 29.5 L 107.2 38.5 L 102.2 42.5 L 102.2 61.2 L 90.2 67.2 L 90.2 61.2 L 62.2 61.2 L 51.2 66.7 L 51.2 29.0 Z M 62.2 49.8 L 62.2 57.2 L 90.2 57.2 L 90.2 49.8 Z M 160.7 45.5 L 160.5 44.6 L 160.1 43.4 L 159.4 42.1 L 158.4 40.7 L 157.3 39.1 L 155.9 37.4 L 154.4 35.6 L 152.4 34.2 L 153.3 32.7 L 155.5 33.9 L 157.9 34.5 L 160.0 35.2 L 162.0 35.9 L 163.9 36.7 L 165.6 37.5 L 167.2 38.3 L 168.6 39.3 L 170.0 40.4 L 171.3 41.8 L 171.3 46.4 L 168.1 49.7 L 163.6 49.7 L 160.3 46.6 L 160.6 46.2 Z M 62.2 38.5 L 62.2 45.8 L 90.2 45.8 L 90.2 38.5 Z " />
</g>
</svg>
