<svg xmlns="http://www.w3.org/2000/svg" xmlns:xlink="http://www.w3.org/1999/xlink" version="1.1" baseProfile="full" viewBox="0 0 200 200" width="200" height="200">
<g fill="black">
<path d="M 14.3 168.9 L 20.3 167.3307692527771 L 20.3 101.0 L 31.3 103.0 L 34.0 105.0 L 31.3 106.72340421676635 L 31.3 164.3307692527771 L 33.8 163.6 L 40.2 161.7 L 43.1 160.80769233703614 L 43.1 80.0 L 31.8 80.0 L 31.8 83.0 L 19.8 89.0 L 19.8 22.0 L 31.8 28.0 L 63.1 28.0 L 69.1 23.0 L 80.1 32.0 L 75.1 36.0 L 75.1 86.0 L 63.1 92.0 L 63.1 80.0 L 54.1 80.0 L 54.1 117.0 L 63.977777767181394 117.0 L 70.2 110.0 L 78.2 117.0 L 78.2 121.0 L 54.1 121.0 L 54.1 157.2615385055542 L 59.6 155.4 L 66.1 153.3 L 79.3 149.1 L 80.1 150.8 L 74.3 154.6 L 68.3 158.2 L 62.2 161.5 L 56.0 164.6 L 49.8 167.6 L 43.5 170.4 L 37.1 173.1 L 30.7 175.7 L 24.3 178.1 L 21.72241382598877 179.01206893920897 L 20.6 182.7 L 17.8 180.4 L 12.4 169.5 Z M 105.4 154.0 L 105.4 172.0 L 126.4 172.0 L 126.4 154.0 Z M 138.4 154.0 L 138.4 172.0 L 159.4 172.0 L 159.4 154.0 Z M 105.4 133.0 L 105.4 150.0 L 126.4 150.0 L 126.4 133.0 Z M 138.4 133.0 L 138.4 150.0 L 159.4 150.0 L 159.4 133.0 Z M 168.4481927871704 126.49397592544555 L 176.4 133.0 L 171.4 137.0 L 171.4 180.0 L 159.4 186.0 L 159.4 176.0 L 105.4 176.0 L 105.4 183.0 L 93.4 189.0 L 93.4 130.79850749969484 L 91.1 132.0 L 84.1 135.1 L 76.7 137.8 L 75.9 136.1 L 82.3 131.8 L 88.4 127.4 L 93.4 123.54035091400146 L 93.4 123.0 L 93.8248275756836 123.2124137878418 L 94.1 123.0 L 99.4 118.6 L 104.3 114.0 L 108.8 109.3 L 113.0 104.4 L 116.7 99.4 L 120.1 94.2 L 120.77924528121949 93.0 L 80.5 93.0 L 80.5 89.0 L 109.33235292434692 89.0 L 107.6 87.1 L 107.5 85.5 L 107.3 83.8 L 106.9 82.2 L 106.4 80.5 L 105.8 78.9 L 105.1 77.1 L 104.3 75.4 L 103.3 73.6 L 102.2 71.7 L 100.5 70.3 L 101.6 68.8 L 103.5 70.0 L 105.7 70.8 L 107.7 71.9 L 109.7 73.1 L 111.5 74.4 L 113.2 75.9 L 114.8 77.5 L 116.3 79.3 L 117.7 81.2 L 119.0 83.2 L 118.6 87.7 L 117.21612901687622 89.0 L 123.04339618682862 89.0 L 123.1 88.9 L 123.27049179077149 89.0 L 126.4 89.0 L 126.4 64.51818180084229 L 122.8 64.9 L 115.9 65.5 L 108.7 65.9 L 101.3 66.0 L 93.7 65.8 L 93.6 64.1 L 100.9 62.2 L 108.0 60.5 L 114.9 59.0 L 121.5 57.4 L 127.9 55.8 L 134.1 54.3 L 140.0 52.6 L 145.6 51.0 L 151.0 49.2 L 155.20937309265136 47.82385883331299 L 155.2 47.8 L 155.22329483032226 47.81930742263794 L 156.2 47.5 L 156.64206705093383 48.995226764678954 L 166.3 57.0 L 166.41858406066893 58.838053131103514 L 167.3 55.9 L 168.1 53.0 L 168.9 50.3 L 169.7 47.8 L 170.3 45.3 L 170.9 43.1 L 171.30476188659668 41.4 L 94.40465116500854 41.4 L 94.6 43.5 L 94.7 47.5 L 94.6 51.2 L 94.2 54.7 L 93.6 57.9 L 92.6 60.9 L 91.3 63.6 L 89.5 66.2 L 85.2 67.7 L 81.1 65.8 L 79.6 61.5 L 81.5 57.3 L 82.4 56.8 L 83.5 55.9 L 84.7 54.3 L 85.9 52.3 L 87.0 49.7 L 88.1 46.6 L 89.0 43.0 L 89.9 39.0 L 90.8 34.6 L 91.3 29.7 L 93.1 29.7 L 93.6 34.6 L 93.96521739959717 37.4 L 126.8 37.4 L 126.8 13.1 L 138.8 15.1 L 141.8 17.1 L 138.8 18.9 L 138.8 37.4 L 171.7 37.4 L 177.7 32.4 L 188.7 41.4 L 183.7 44.4 L 180.29726028442383 45.81780824661255 L 179.3 47.1 L 177.8 49.1 L 176.2 51.2 L 174.5 53.3 L 172.7 55.5 L 170.7 57.8 L 168.5 60.1 L 166.7 62.8 L 165.1 61.9 L 165.9837490081787 59.86057920455933 L 162.35490922927858 58.17763900756836 L 159.6 59.0 L 154.0 60.2 L 148.2 61.4 L 142.1 62.4 L 138.4 62.996774196624756 L 138.4 89.0 L 145.33636360168458 89.0 L 145.8 88.1 L 147.2 84.8 L 148.5 81.6 L 149.8 78.7 L 151.0 76.0 L 152.2 73.5 L 153.2 71.2 L 154.2 69.0 L 155.1 67.0 L 155.42154722213746 66.17316436767578 L 155.3 66.1 L 155.66000003814696 65.56000003814697 L 155.8 65.2 L 155.86743116378784 65.24885320663452 L 156.3 64.6 L 165.6 72.3 L 166.8 75.7 L 162.2888889312744 75.31111106872558 L 161.0 76.6 L 159.2 78.3 L 157.2 80.3 L 155.2 82.4 L 152.9 84.6 L 150.5 87.0 L 148.41999998092652 89.0 L 162.4 89.0 L 172.4 79.0 L 184.4 89.0 L 184.4 93.0 L 138.4 93.0 L 138.4 93.96956520080566 L 140.8 95.9 L 145.2 99.4 L 149.6 102.6 L 153.9 105.6 L 158.2 108.4 L 162.6 110.8 L 167.0 112.9 L 171.5 114.8 L 176.0 116.4 L 180.7 117.7 L 188.2 120.1 L 176.6 130.2 L 171.4 128.0 Z M 138.4 122.0 L 126.4 128.0 L 126.4 104.52093019485474 L 125.2 106.0 L 120.4 111.1 L 115.3 115.9 L 109.8 120.4 L 104.0 124.6 L 100.72285718917847 126.66142854690551 L 105.4 129.0 L 159.4 129.0 L 164.81884059906005 124.48429956436158 L 161.7 122.6 L 157.1 119.4 L 152.7 115.9 L 148.6 112.1 L 144.7 108.0 L 141.0 103.5 L 138.4 99.63939390182495 Z M 31.8 32.0 L 31.8 76.0 L 63.1 76.0 L 63.1 32.0 Z " />
</g>
</svg>
