<svg xmlns="http://www.w3.org/2000/svg" xmlns:xlink="http://www.w3.org/1999/xlink" version="1.1" baseProfile="full" viewBox="0 0 200 200" width="200" height="200">
<g fill="black">
<path d="M 132.7 186.4 L 113.4 185.6 L 96.4 184.2 L 81.8 182.0 L 69.5 179.1 L 59.6 175.4 L 52.0 170.8 L 47.820588207244874 166.1088234901428 L 44.3 170.0 L 40.1 173.9 L 35.5 177.5 L 30.5 180.7 L 25.2 183.7 L 19.5 186.1 L 13.3 188.2 L 12.6 186.5 L 17.6 182.8 L 22.3 179.1 L 26.7 175.4 L 30.6 171.7 L 34.1 167.9 L 37.3 163.9 L 40.0 159.9 L 42.4 155.7 L 44.4 151.4 L 45.6655366897583 147.91977405548096 L 45.6 147.9 L 46.5 145.6 L 57.2 151.4 L 59.2 154.3 L 55.379901790618895 154.97019271850587 L 54.6 156.5 L 51.5 161.3 L 50.42827205657959 162.71846342086792 L 55.3 165.9 L 62.2 168.7 L 71.5 171.0 L 83.2 172.8 L 91.0 173.4638298034668 L 91.0 141.3 L 54.0 141.3 L 42.0 147.3 L 42.0 111.7 L 54.0 117.7 L 144.0 117.7 L 150.0 112.7 L 161.0 121.7 L 156.0 125.7 L 156.0 141.3 L 144.0 147.3 L 144.0 141.3 L 103.0 141.3 L 103.0 156.0 L 148.0 156.0 L 158.0 146.0 L 170.0 156.0 L 170.0 160.0 L 103.0 160.0 L 103.0 174.2072727203369 L 113.8 174.6 L 132.7 174.6 L 154.0 173.9 L 177.6 172.6 L 188.8 172.0 L 178.3 185.8 L 154.3 186.4 Z M 54.0 121.7 L 54.0 137.3 L 144.0 137.3 L 144.0 121.7 Z M 72.0 47.4 L 115.9 47.4 L 115.9 31.5 L 83.0 31.5 L 83.0 27.5 L 115.9 27.5 L 115.9 11.4 L 127.9 13.4 L 130.9 15.4 L 127.9 17.2 L 127.9 27.5 L 130.8 27.5 L 140.8 17.5 L 152.6914970397949 27.409580802917482 L 156.5 23.7 L 163.03132362365722 16.62439947128296 L 163.0 16.6 L 164.0 15.5 L 172.5 24.0 L 173.4 27.5 L 169.69693918228148 26.73384952545166 L 164.4 31.9 L 155.8 39.3 L 146.8 46.2 L 145.04615383148194 47.4 L 165.51818180084229 47.4 L 173.7 38.4 L 183.7 47.4 L 183.7 51.4 L 139.2 51.4 L 138.04929580688477 52.18732395172119 L 138.1 52.2 L 142.3 52.4 L 144.2 52.7 L 146.1 53.1 L 147.9 53.6 L 149.7 54.3 L 151.4 55.0 L 153.0 55.9 L 154.6 57.0 L 155.8 61.4 L 153.7 65.4 L 150.65384616851807 66.3 L 156.2 66.3 L 162.2 61.3 L 173.2 70.3 L 168.2 74.3 L 168.2 111.4 L 156.2 117.4 L 156.2 105.4 L 105.6 105.4 L 93.6 111.4 L 93.6 73.98717947006226 L 83.4 77.3 L 71.3 80.5 L 70.7 78.8 L 82.1 73.8 L 93.0 68.6 L 93.6 68.291428565979 L 93.6 60.3 L 101.47887325286865 64.23943662643433 L 103.5 63.2 L 113.5 57.4 L 123.0 51.4 L 72.0 51.4 Z M 32.0 23.2 L 55.6 23.2 L 61.6 18.2 L 72.6 27.2 L 67.6 31.2 L 67.6 97.3 L 55.6 103.3 L 55.6 91.3 L 32.0 91.3 L 32.0 103.3 L 20.0 109.3 L 20.0 17.2 Z M 105.6 87.9 L 105.6 101.4 L 156.2 101.4 L 156.2 87.9 Z M 32.0 69.0 L 32.0 87.3 L 55.6 87.3 L 55.6 69.0 Z M 105.6 70.3 L 105.6 83.9 L 156.2 83.9 L 156.2 70.3 Z M 144.7 62.6 L 144.2 61.5 L 143.5 60.4 L 142.6 59.2 L 141.5 58.0 L 140.3 56.8 L 138.9 55.5 L 137.4 54.2 L 135.8664924621582 53.55431261062622 L 127.4 58.6 L 117.1 64.1 L 112.34799995422364 66.3 L 148.57272729873657 66.3 L 145.3 64.5 L 145.1 63.6 Z M 32.0 48.1 L 32.0 65.0 L 55.6 65.0 L 55.6 48.1 Z M 127.9 31.5 L 127.9 47.4 L 128.6875 47.4 L 132.1 45.0 L 140.7 38.3 L 148.4577465057373 31.5 Z M 32.0 27.2 L 32.0 44.1 L 55.6 44.1 L 55.6 27.2 Z " />
</g>
</svg>
