<svg xmlns="http://www.w3.org/2000/svg" xmlns:xlink="http://www.w3.org/1999/xlink" version="1.1" baseProfile="full" viewBox="0 0 200 200" width="200" height="200">
<g fill="black">
<path d="M 83.5 177.0 L 103.5 177.0 L 104.7 176.9 L 105.6 176.7 L 106.5 176.4 L 106.9 176.0 L 107.2 175.1 L 107.4 174.2 L 107.5 173.0 L 107.5 156.5814814567566 L 105.0 157.6 L 99.7 159.5 L 94.4 161.3 L 89.3 163.0 L 88.15896587371826 163.35797147750856 L 86.8 167.0 L 84.2 164.6 L 79.5 153.3 L 81.5 152.9 L 86.5 152.0 L 91.6 151.0 L 96.9 149.9 L 102.3 148.7 L 107.5 147.4481481552124 L 107.5 128.0 L 80.9 128.0 L 80.9 124.0 L 107.5 124.0 L 107.5 110.2 L 102.2 111.2 L 96.6 112.2 L 90.4 113.1 L 83.9 113.8 L 83.5 112.1 L 89.5 109.6 L 95.2 107.3 L 100.4 105.2 L 105.2 103.1 L 109.5 101.2 L 113.4 99.3 L 116.9 97.5 L 119.8 95.7 L 122.3 94.0 L 123.4634648323059 93.08147516250611 L 123.4 93.0 L 123.46972789764405 93.07653064727783 L 124.2 92.5 L 127.5 97.5 L 131.6 102.0 L 131.7 105.5 L 127.80203523635865 103.89905023574829 L 127.8 103.9 L 124.5 105.3 L 120.8 106.6 L 119.5 106.98999996185303 L 119.5 124.0 L 138.4181818008423 124.0 L 137.6 112.3 L 137.22448978424072 96.99795913696289 L 137.2 97.0 L 137.2 93.6 L 149.2 96.0 L 152.2 98.0 L 149.29535760879517 99.74278545379639 L 149.6 111.7 L 150.49781017303468 124.0 L 165.9 124.0 L 175.9 114.0 L 187.9 124.0 L 187.9 128.0 L 150.98103446960448 128.0 L 152.3 137.0 L 154.7 146.7 L 156.91810522079467 152.5410105705261 L 157.1 152.3 L 160.8 146.7 L 164.1 140.6 L 167.1 134.3 L 167.1233654975891 134.31093244552613 L 167.7 133.1 L 178.0 139.4 L 179.8 142.5 L 175.97341842651366 142.8958532333374 L 174.0 146.3 L 169.7 152.6 L 165.0 158.5 L 161.99670190811156 161.67996263504028 L 165.7 165.9 L 170.7 169.8 L 176.7 172.9 L 176.99405736923217 172.99241800308226 L 182.3 150.0 L 184.3 150.0 L 182.40064373016358 174.69163093566894 L 183.7 175.1 L 187.4 177.9 L 188.1 182.4 L 185.3 186.0 L 180.8 186.8 L 172.1 184.0 L 164.3 180.0 L 157.4 174.6 L 153.1326979637146 169.67053031921387 L 148.4 173.2 L 142.2 177.0 L 135.6 180.3 L 128.6 182.9 L 121.2 184.8 L 120.6 183.1 L 127.0 179.4 L 133.0 175.6 L 138.6 171.5 L 143.8 167.2 L 148.5149745941162 162.58325405120848 L 146.9 159.8 L 143.2 150.3 L 140.5 139.3 L 138.80944881439208 128.0 L 119.5 128.0 L 119.5 144.39830513000487 L 125.0 143.0 L 131.0 141.5 L 137.3 140.1 L 138.0 141.8 L 132.4 145.1 L 126.9 148.0 L 121.3 150.7 L 119.5 151.48545455932617 L 119.5 173.0 L 119.3 175.5 L 118.9 178.0 L 118.1 180.4 L 116.9 182.7 L 115.2 184.7 L 113.2 186.3 L 110.9 187.6 L 108.5 188.4 L 106.0 188.8 L 103.5 189.0 L 103.5 183.0 L 83.5 180.0 Z M 42.0 176.0 L 58.0 176.0 L 59.2 175.9 L 60.1 175.7 L 61.0 175.4 L 61.4 175.0 L 61.7 174.1 L 61.9 173.2 L 62.0 172.0 L 62.0 139.37777776718139 L 61.0 140.6 L 53.5 148.9 L 45.8 156.9 L 37.9 164.4 L 29.7 171.4 L 21.3 177.8 L 12.5 183.7 L 11.4 182.2 L 18.8 174.9 L 26.1 167.4 L 33.3 159.7 L 40.3 151.7 L 47.1 143.4 L 53.7 134.8 L 56.8484375 130.440625 L 54.7 131.3 L 48.4 133.6 L 42.5 135.8 L 37.1 137.7 L 32.0 139.5 L 27.3 141.2 L 23.0 142.8 L 19.473728084564208 144.03419513702391 L 18.2 147.8 L 15.5 145.5 L 10.4 134.4 L 12.3 133.9 L 16.0 133.2 L 20.1 132.4 L 24.0 131.6199999809265 L 24.0 37.0 L 36.0 43.0 L 36.94117650985718 43.0 L 38.0 41.0 L 39.4 37.6 L 40.7 34.3 L 42.1 31.2 L 43.3 28.2 L 44.5 25.3 L 45.5 22.6 L 46.5 20.0 L 47.4 17.5 L 47.812621402740476 16.14424409866333 L 47.7 16.1 L 48.022222232818606 15.455555534362793 L 48.1 15.2 L 48.14014873504639 15.219702625274659 L 48.7 14.1 L 58.9 20.5 L 60.7 23.7 L 56.34251356124878 23.995422840118408 L 55.6 25.0 L 53.8 27.3 L 51.9 29.7 L 49.9 32.2 L 47.7 34.7 L 45.4 37.3 L 42.9 39.9 L 40.2 42.6 L 39.85517244338989 43.0 L 62.0 43.0 L 68.0 38.0 L 79.0 47.0 L 74.0 51.0 L 74.0 104.06101694107056 L 78.3 96.7 L 78.32172079086304 96.71307468414307 L 78.8 95.9 L 88.6 102.9 L 90.1 106.1 L 86.44642486572266 106.16299266815186 L 82.0 112.9 L 75.2 122.5 L 74.0 124.09428567886353 L 74.0 172.0 L 73.8 174.5 L 73.4 177.0 L 72.6 179.4 L 71.3 181.7 L 69.7 183.7 L 67.7 185.3 L 65.4 186.6 L 63.0 187.4 L 60.5 187.8 L 58.0 188.0 L 58.0 182.0 L 42.0 179.0 Z M 36.0 102.0 L 36.0 129.26842107772828 L 40.5 128.4 L 46.7 127.3 L 53.2 126.1 L 60.3 125.1 L 60.702970314025876 125.04554452896119 L 62.0 123.1 L 62.0 102.0 Z M 162.1 106.5 L 161.1 104.6 L 158.9 101.0 L 156.3 97.4 L 154.8 95.6 L 153.0 94.2 L 153.8 92.6 L 156.0 93.6 L 158.4 94.3 L 160.7 95.2 L 163.0 96.3 L 165.2 97.6 L 167.3 99.0 L 169.3 100.6 L 171.2 102.4 L 173.1 104.3 L 174.8 106.4 L 175.4 110.9 L 172.6 114.6 L 168.1 115.1 L 164.4 112.3 L 163.7 110.3 Z M 36.0 73.0 L 36.0 98.0 L 62.0 98.0 L 62.0 73.0 Z M 81.9 84.8 L 128.9 84.8 L 128.9 66.4 L 91.2 66.4 L 91.2 62.4 L 128.9 62.4 L 128.9 44.0 L 86.2 44.0 L 86.2 40.0 L 145.45 40.0 L 146.2 38.5 L 147.3 35.3 L 148.4 32.3 L 149.4 29.4 L 150.5 26.6 L 151.4 23.9 L 152.3 21.3 L 153.1 18.7 L 153.9 16.2 L 154.23790321350097 14.848387050628663 L 154.1 14.8 L 154.4333333015442 14.06666669845581 L 154.5 13.8 L 154.5452054977417 13.820547962188721 L 155.1 12.6 L 165.5 18.8 L 167.4 21.8 L 163.08085107803345 22.321276569366454 L 162.4 23.3 L 160.7 25.7 L 158.9 28.0 L 157.0 30.4 L 155.1 32.7 L 153.0 35.1 L 150.8 37.5 L 148.4 39.9 L 148.31538457870482 40.0 L 161.5 40.0 L 171.5 30.0 L 183.5 40.0 L 183.5 44.0 L 140.9 44.0 L 140.9 62.4 L 160.3181818008423 62.4 L 168.5 53.4 L 178.5 62.4 L 178.5 66.4 L 140.9 66.4 L 140.9 84.8 L 165.8 84.8 L 175.8 74.8 L 187.8 84.8 L 187.8 88.8 L 81.9 88.8 Z M 36.0 47.0 L 36.0 69.0 L 62.0 69.0 L 62.0 47.0 Z M 113.9 31.8 L 113.5 29.7 L 112.9 27.6 L 112.3 25.6 L 111.5 23.5 L 110.6 21.3 L 109.6 19.2 L 108.5 17.0 L 106.9 15.1 L 108.2 13.8 L 110.2 15.3 L 112.4 16.6 L 114.5 18.1 L 116.5 19.8 L 118.4 21.6 L 120.2 23.5 L 121.8 25.5 L 123.3 27.7 L 124.7 30.0 L 126.0 32.3 L 125.5 36.9 L 122.0 39.8 L 117.5 39.4 L 114.5 35.9 L 114.3 33.8 Z " />
</g>
</svg>
