<svg xmlns="http://www.w3.org/2000/svg" xmlns:xlink="http://www.w3.org/1999/xlink" version="1.1" baseProfile="full" viewBox="0 0 200 200" width="200" height="200">
<g fill="black">
<path d="M 152.3 156.7 L 162.3 156.7 L 163.5 156.6 L 164.4 156.4 L 165.3 156.1 L 165.7 155.7 L 165.9 155.4 L 166.0 154.8 L 166.2 153.9 L 166.3 152.7 L 166.3 139.7 L 134.2 139.7 L 134.2 162.7 L 123.49213485717773 168.05393257141114 L 126.3 169.2 L 132.6 170.7 L 140.6 171.6 L 150.6 171.9 L 163.0 171.5 L 178.0 170.4 L 188.9 169.6 L 178.9 183.5 L 163.4 184.0 L 150.3 183.7 L 139.3 182.6 L 130.3 180.7 L 122.8 177.9 L 116.8 174.2 L 112.2 169.8 L 108.8 164.8 L 106.3 159.3 L 105.49148931503296 156.7042552947998 L 104.7093023300171 157.09534883499146 L 104.4 157.6 L 102.5 160.9 L 100.6 163.9 L 98.6 166.9 L 96.6 169.8 L 94.5 172.5 L 92.3 175.2 L 90.2 177.8 L 88.6752474784851 179.6019802093506 L 89.2 183.8 L 85.8 182.8 L 76.4 175.1 L 77.9 173.8 L 83.1 170.2 L 85.7 168.3 L 88.3 166.3 L 91.0 164.3 L 93.7 162.2 L 96.5 160.1 L 96.9 159.78571424484252 L 96.9 109.0 L 83.39399995803834 109.0 L 81.0 112.8 L 74.5 122.5 L 73.2 124.25882349014282 L 73.2 172.0 L 73.1 174.5 L 72.7 177.0 L 71.8 179.4 L 70.6 181.7 L 69.0 183.7 L 67.0 185.3 L 64.7 186.6 L 62.3 187.4 L 59.8 187.8 L 57.2 188.0 L 57.2 182.0 L 41.2 179.0 L 41.2 176.0 L 57.2 176.0 L 58.5 175.9 L 59.4 175.7 L 60.3 175.4 L 60.5 175.2 L 60.6 175.0 L 60.8 174.7 L 61.0 174.1 L 61.2 173.2 L 61.2 139.98985509872438 L 60.8 140.5 L 53.6 148.9 L 46.2 156.8 L 38.5 164.3 L 30.7 171.3 L 22.5 177.8 L 14.0 183.6 L 12.9 182.3 L 20.0 174.9 L 27.0 167.4 L 33.8 159.7 L 40.5 151.8 L 47.0 143.5 L 53.4 134.8 L 56.3111912727356 130.55252428054808 L 54.5 131.3 L 48.5 133.6 L 42.9 135.8 L 37.7 137.7 L 32.8 139.5 L 28.3 141.2 L 24.2 142.7 L 21.056871223449708 143.8579948425293 L 19.8 147.8 L 17.1 145.4 L 11.8 134.5 L 13.7 133.9 L 17.3 133.2 L 21.2 132.4 L 24.8 131.64651165008544 L 24.8 37.0 L 36.8 43.0 L 37.45 43.0 L 38.4 41.1 L 39.7 37.6 L 41.0 34.3 L 42.2 31.2 L 43.4 28.2 L 44.5 25.4 L 45.5 22.7 L 46.4 20.1 L 47.2 17.6 L 47.6132734298706 16.242101669311523 L 47.5 16.2 L 47.849397563934325 15.466265106201172 L 47.9 15.3 L 47.92336549758911 15.310932445526124 L 48.5 14.1 L 58.8 20.4 L 60.6 23.5 L 56.26171245574951 23.948788356781005 L 55.6 24.9 L 53.9 27.2 L 52.0 29.6 L 50.0 32.1 L 47.9 34.6 L 45.7 37.2 L 43.3 39.9 L 40.7 42.5 L 40.268965530395505 43.0 L 61.2 43.0 L 67.2 38.0 L 78.2 47.0 L 73.2 51.0 L 73.2 103.47321424484252 L 76.40078611373902 97.70036783218384 L 76.4 97.7 L 77.4 95.9 L 87.3 102.8 L 88.4 105.0 L 96.9 105.0 L 102.9 100.0 L 113.9 109.0 L 108.9 113.0 L 108.9 155.0 L 108.33999996185302 155.2800000190735 L 109.9 157.2 L 113.5 161.3 L 117.3 164.6 L 121.4 167.2 L 122.2 167.52653064727784 L 122.2 90.4 L 134.2 96.4 L 166.3 96.4 L 172.3 91.4 L 183.3 100.4 L 178.3 104.4 L 178.3 152.7 L 178.1 155.2 L 177.7 157.7 L 176.9 160.1 L 175.7 162.4 L 174.0 164.4 L 172.0 166.0 L 169.7 167.3 L 167.3 168.1 L 164.8 168.5 L 162.3 168.7 L 162.3 162.7 L 152.3 159.7 Z M 134.2 120.0 L 134.2 135.7 L 166.3 135.7 L 166.3 120.0 Z M 36.8 102.0 L 36.8 129.2454545021057 L 40.9 128.5 L 46.8 127.3 L 53.1 126.2 L 59.8 125.1 L 60.03112840652466 125.0678988456726 L 61.2 123.23666667938232 L 61.2 102.0 Z M 134.2 100.4 L 134.2 116.0 L 166.3 116.0 L 166.3 100.4 Z M 36.8 73.0 L 36.8 98.0 L 61.2 98.0 L 61.2 73.0 Z M 92.5 76.0 L 91.4 73.6 L 90.2 71.2 L 88.9 68.9 L 85.9 64.5 L 84.3 62.3 L 82.6 60.1 L 80.5 58.2 L 81.5 56.7 L 84.1 58.0 L 86.8 59.1 L 89.5 60.5 L 92.0 62.1 L 94.4 63.9 L 96.8 65.9 L 99.0 68.1 L 101.1 70.4 L 103.2 72.9 L 105.1 75.5 L 105.4 80.1 L 102.5 83.6 L 97.9 83.9 L 94.4 81.0 L 93.5 78.5 Z M 123.5 77.6 L 148.0 77.6 L 148.0 55.9 L 135.8625 55.9 L 132.6 61.7 L 128.5 67.7 L 124.0 73.1 L 118.9 77.8 L 113.4 81.9 L 112.2 80.6 L 116.1 75.2 L 119.7 69.8 L 123.0 64.1 L 125.9 58.2 L 128.4 51.9 L 130.5 45.3 L 132.2 38.3 L 132.86216220855712 34.8 L 116.1 34.8 L 116.1 30.8 L 133.61282052993775 30.8 L 134.6 23.1 L 135.1268292427063 15.9 L 135.1 15.9 L 135.4 12.8 L 147.2 15.9 L 150.0 18.2 L 146.61490983963012 19.86061029434204 L 145.9 24.7 L 144.57710847854614 30.8 L 160.5 30.8 L 170.5 20.8 L 182.5 30.8 L 182.5 34.8 L 143.59873418807985 34.8 L 141.9 40.9 L 139.3 48.3 L 137.70571432113647 51.9 L 158.51818180084229 51.9 L 166.7 42.9 L 176.7 51.9 L 176.7 55.9 L 160.0 55.9 L 160.0 77.6 L 166.4181818008423 77.6 L 174.6 68.6 L 184.6 77.6 L 184.6 81.6 L 123.5 81.6 Z M 36.8 47.0 L 36.8 69.0 L 61.2 69.0 L 61.2 47.0 Z M 98.8 40.9 L 97.7 38.4 L 96.6 36.0 L 94.0 31.2 L 92.6 28.9 L 89.6 24.3 L 87.7 22.3 L 88.8 20.8 L 91.2 22.3 L 93.9 23.6 L 96.4 25.2 L 98.8 26.9 L 101.1 28.8 L 103.4 30.9 L 105.5 33.1 L 107.6 35.4 L 109.6 37.9 L 111.4 40.5 L 111.8 45.1 L 108.8 48.6 L 104.3 48.9 L 100.8 46.0 L 99.8 43.4 Z " />
</g>
</svg>
