<svg xmlns="http://www.w3.org/2000/svg" xmlns:xlink="http://www.w3.org/1999/xlink" version="1.1" baseProfile="full" viewBox="0 0 200 200" width="200" height="200">
<g fill="black">
<path d="M 48.0 117.5 L 152.0 117.5 L 158.0 112.5 L 169.0 121.5 L 164.0 125.5 L 164.0 176.8 L 152.0 182.8 L 152.0 170.8 L 48.0 170.8 L 48.0 182.8 L 36.0 188.8 L 36.0 111.5 Z M 48.0 121.5 L 48.0 166.8 L 152.0 166.8 L 152.0 121.5 Z M 14.0 96.0 L 27.842028999328612 96.0 L 25.7 22.1 L 35.58115034103393 26.716602993011474 L 38.0 25.0 L 40.9 23.1 L 43.6 21.3 L 46.2 19.6 L 48.7 18.0 L 50.9 16.5 L 53.1 15.2 L 55.0 13.9 L 55.99438066482544 13.29232292175293 L 55.9 13.1 L 56.06654329299927 13.248223495483398 L 56.8 12.8 L 57.474331855773926 14.501155376434326 L 65.9 22.0 L 66.0875 25.0 L 94.0 25.0 L 94.0 12.0 L 106.0 14.0 L 109.0 16.0 L 106.0 17.8 L 106.0 25.0 L 123.77777776718139 25.0 L 130.0 18.0 L 138.0 25.0 L 138.0 29.0 L 106.0 29.0 L 106.0 37.0 L 119.0 37.0 L 125.0 32.0 L 136.0 41.0 L 131.0 45.0 L 131.0 72.0 L 119.0 78.0 L 119.0 72.0 L 106.0 72.0 L 106.0 82.0 L 127.5 82.0 L 132.0 76.0 L 138.0 82.0 L 138.0 86.0 L 106.0 86.0 L 106.0 96.0 L 159.9555555343628 96.0 L 160.5111110687256 76.0 L 136.0 76.0 L 136.0 72.0 L 160.62222223281861 72.0 L 161.1777777671814 52.0 L 136.0 52.0 L 136.0 48.0 L 161.2888889312744 48.0 L 161.8444444656372 28.0 L 140.0 28.0 L 140.0 24.0 L 162.0 24.0 L 168.0 19.0 L 179.0 28.0 L 174.0 31.0 L 172.9374261856079 31.44273910522461 L 172.02816905975342 96.0 L 174.7777777671814 96.0 L 181.0 89.0 L 189.0 96.0 L 189.0 100.0 L 14.0 100.0 Z M 61.2 23.9 L 59.2 24.3 L 57.0 24.7 L 54.6 25.3 L 52.0 25.9 L 49.2 26.5 L 46.2 27.2 L 43.0 28.0 L 39.6 28.8 L 37.94094343185425 29.168679237365723 L 38.50427350997925 48.0 L 49.7777777671814 48.0 L 56.0 41.0 L 64.0 48.0 L 64.0 52.0 L 38.62393159866333 52.0 L 39.2222222328186 72.0 L 49.7777777671814 72.0 L 56.0 65.0 L 64.0 72.0 L 64.0 76.0 L 39.341880321502686 76.0 L 39.94017095565796 96.0 L 94.0 96.0 L 94.0 86.0 L 62.0 86.0 L 62.0 82.0 L 94.0 82.0 L 94.0 72.0 L 81.0 72.0 L 69.0 78.0 L 69.0 31.0 L 81.0 37.0 L 94.0 37.0 L 94.0 29.0 L 62.0 29.0 L 62.0 25.0 L 65.63571424484253 25.0 L 62.17095260620117 23.507487297058105 Z M 81.0 56.0 L 81.0 68.0 L 94.0 68.0 L 94.0 56.0 Z M 106.0 56.0 L 106.0 68.0 L 119.0 68.0 L 119.0 56.0 Z M 81.0 41.0 L 81.0 52.0 L 94.0 52.0 L 94.0 41.0 Z M 106.0 41.0 L 106.0 52.0 L 119.0 52.0 L 119.0 41.0 Z " />
</g>
</svg>
