<svg xmlns="http://www.w3.org/2000/svg" xmlns:xlink="http://www.w3.org/1999/xlink" version="1.1" baseProfile="full" viewBox="0 0 200 200" width="200" height="200">
<g fill="black">
<path d="M 127.1 184.2 L 104.3 183.2 L 84.3 180.9 L 67.1 177.2 L 52.8 172.3 L 48.7390625 170.0 L 48.0 170.0 L 48.0 169.58141593933107 L 41.5 165.9 L 33.2 158.1 L 30.36560192108154 152.83611793518065 L 29.6 156.1 L 27.4 163.6 L 24.8 170.5 L 21.9 176.9 L 18.5 182.5 L 14.7 187.4 L 13.2 186.5 L 15.1 180.8 L 16.9 174.9 L 18.6 168.5 L 20.0 161.7 L 21.3 154.3 L 22.3 146.5 L 23.1 138.1 L 23.6 129.2 L 23.9 119.8 L 23.9 109.8 L 23.930280113220213 109.80075702667236 L 24.0 107.5 L 35.9 110.1 L 38.9 112.1 L 35.6767276763916 113.93284111022949 L 35.3 120.4 L 34.3 130.1 L 33.1 139.3 L 31.810889720916748 146.30953741073608 L 32.2 147.3 L 37.6 154.1 L 45.4 159.8 L 48.0 160.96380949020386 L 48.0 90.0 L 60.0 92.0 L 63.0 94.0 L 60.0 95.8 L 60.0 122.0 L 73.77777776718139 122.0 L 80.0 115.0 L 88.0 122.0 L 88.0 126.0 L 60.0 126.0 L 60.0 165.63208951950074 L 69.3 168.2 L 85.7 170.7 L 104.9 172.1 L 127.2 172.4 L 152.3 171.5 L 180.4 169.4 L 191.3 168.5 L 181.5 182.5 L 152.9 184.0 Z M 107.1 20.8 L 110.1 22.8 L 107.1 24.6 L 107.1 144.3 L 166.3 144.3 L 176.3 134.3 L 188.3 144.3 L 188.3 148.3 L 107.1 148.3 L 107.1 160.3 L 95.1 166.3 L 95.1 18.8 Z M 147.84052753448486 24.09568347930908 L 147.3 37.3 L 146.9687663078308 41.35124235153198 L 148.1 51.0 L 150.2 64.3 L 152.8 76.4 L 156.0 87.3 L 159.7 97.0 L 163.8 105.4 L 168.4 112.6 L 173.5 118.7 L 178.9 123.5 L 181.3 125.5 L 170.4 133.6 L 164.1 126.9 L 158.6 119.2 L 154.0 110.4 L 150.1 100.6 L 147.0 89.9 L 144.7 78.1 L 143.55626039505006 69.48831386566162 L 141.0 81.3 L 137.5 93.4 L 133.1 104.3 L 128.1 113.8 L 122.2 121.9 L 115.5 128.5 L 108.2 133.5 L 107.1 132.0 L 112.8 125.8 L 117.9 118.7 L 122.3 110.6 L 126.1 101.4 L 129.4 91.0 L 132.0 79.3 L 133.9 66.4 L 135.3 52.3 L 136.0 36.8 L 136.0 17.8 L 148.0 20.2 L 151.0 22.2 Z M 79.72707033157349 66.85035371780396 L 86.5 73.4 L 86.6 76.7 L 82.81052627563477 75.12105264663697 L 79.1 76.7 L 74.0 78.5 L 68.4 80.1 L 62.5 81.6 L 56.0 82.9 L 49.2 84.1 L 41.8 85.2 L 34.1 86.0 L 25.8 86.6 L 17.1 86.8 L 16.8 85.1 L 25.2 82.8 L 33.1 80.7 L 40.6 78.7 L 47.5 76.7 L 53.9 74.7 L 59.8 72.7 L 65.2 70.6 L 70.1 68.4 L 74.5 66.3 L 77.40975980758667 64.61540222167969 L 77.4 64.6 L 77.4136176109314 64.61316871643066 L 78.3 64.1 Z M 75.72707033157349 42.850353717803955 L 82.5 49.4 L 82.6 52.7 L 78.82127656936646 51.12553195953369 L 75.2 52.7 L 70.2 54.4 L 64.9 56.1 L 59.2 57.6 L 53.1 58.9 L 46.7 60.1 L 39.9 61.2 L 32.7 62.0 L 25.1 62.6 L 17.1 62.8 L 16.8 61.1 L 24.4 58.8 L 31.6 56.7 L 38.5 54.7 L 44.9 52.7 L 50.9 50.7 L 56.4 48.7 L 61.5 46.6 L 66.2 44.5 L 70.5 42.3 L 73.40975980758667 40.61540222167969 L 73.4 40.6 L 73.4136176109314 40.613168716430664 L 74.3 40.1 Z M 73.65864944458008 18.564795112609865 L 80.7 25.3 L 80.9 28.5 L 77.2120262145996 26.98853530883789 L 73.3 28.5 L 68.6 30.1 L 63.5 31.6 L 58.0 33.1 L 52.1 34.4 L 45.9 35.6 L 39.3 36.7 L 32.3 37.7 L 24.9 38.4 L 17.1 38.8 L 16.8 37.1 L 24.2 34.7 L 31.2 32.4 L 37.8 30.3 L 44.0 28.3 L 49.8 26.2 L 55.2 24.2 L 60.1 22.2 L 64.7 20.1 L 68.7 18.1 L 71.50485038757324 16.508057880401612 L 71.5 16.5 L 71.507093334198 16.506784915924072 L 72.4 16.0 Z " />
</g>
</svg>
