<svg xmlns="http://www.w3.org/2000/svg" xmlns:xlink="http://www.w3.org/1999/xlink" version="1.1" baseProfile="full" viewBox="0 0 200 200" width="200" height="200">
<g fill="black">
<path d="M 14.3 129.9 L 26.9 128.1 L 33.4 127.2 L 39.8 126.2 L 40.6 126.09090909957885 L 40.6 97.0 L 12.6 97.0 L 12.6 93.0 L 50.34285717010498 93.0 L 51.2 89.4 L 52.1 85.2 L 53.0 81.1 L 54.0 77.1 L 55.1 73.2 L 56.1 69.3 L 58.3 61.9 L 59.3 58.2 L 60.03942861557007 55.61199998855591 L 60.0 55.6 L 60.15882349014282 55.194117641448976 L 60.3 54.7 L 60.345222091674806 54.71776580810547 L 60.9 53.3 L 71.5 59.1 L 73.5 62.1 L 69.63581085205078 62.71013517379761 L 68.0 65.8 L 66.3 69.2 L 60.6 79.7 L 58.6 83.3 L 56.4 86.9 L 54.1 90.6 L 52.672972965240476 93.0 L 75.5 93.0 L 80.0 87.0 L 83.07710847854614 90.07710847854614 L 86.2 85.1 L 89.4 80.1 L 92.5 74.9 L 95.5 69.7 L 98.3 64.3 L 100.9 58.8 L 103.4 53.2 L 105.8 47.5 L 107.65750761032105 42.518502426147464 L 107.6 42.5 L 108.5 40.3 L 114.6 43.695283031463624 L 114.6 32.0 L 76.3 32.0 L 76.3 28.0 L 114.6 28.0 L 120.6 23.0 L 131.6 32.0 L 126.6 36.0 L 126.6 171.0 L 126.5 173.5 L 126.1 176.0 L 125.3 178.4 L 124.0 180.7 L 122.4 182.7 L 120.4 184.3 L 118.1 185.6 L 115.7 186.4 L 113.2 186.8 L 110.6 187.0 L 110.6 181.0 L 90.6 178.0 L 90.6 175.0 L 110.6 175.0 L 111.9 174.9 L 112.8 174.7 L 113.7 174.4 L 114.1 174.0 L 114.4 173.1 L 114.6 172.2 L 114.6 108.96000003814697 L 112.5 113.1 L 108.9 119.8 L 105.1 126.2 L 101.0 132.4 L 96.7 138.3 L 92.2 143.9 L 87.4 149.2 L 82.4 154.1 L 77.0 158.6 L 75.7 157.3 L 79.5 151.6 L 86.9 140.0 L 90.4 134.1 L 93.8 128.0 L 97.0 121.7 L 100.0 115.2 L 102.8 108.6 L 105.5 101.8 L 107.64352722167969 95.71238269805909 L 107.6 95.7 L 108.5 93.4 L 114.6 96.59252338409424 L 114.6 55.193548393249515 L 113.1 58.0 L 109.8 63.6 L 106.3 69.0 L 102.6 74.2 L 98.8 79.2 L 94.7 84.0 L 90.4 88.5 L 85.9 92.7 L 85.78863639831543 92.78863639831543 L 86.0 93.0 L 86.0 97.0 L 52.6 97.0 L 52.6 121.0 L 52.36694688796997 124.3959171295166 L 53.0 124.3 L 59.7 123.3 L 66.5 122.4 L 73.4 121.7 L 80.4 121.1 L 80.8 122.8 L 74.3 125.4 L 67.7 127.7 L 61.2 129.8 L 54.6 131.7 L 51.714349365234376 132.55667753219603 L 50.6 140.7 L 48.5 149.6 L 45.7 157.7 L 42.1 165.1 L 37.8 171.6 L 32.8 177.4 L 27.2 182.2 L 20.8 186.0 L 13.9 188.8 L 13.1 187.1 L 18.7 182.8 L 23.6 178.1 L 27.9 173.0 L 31.5 167.5 L 34.5 161.3 L 36.9 154.6 L 38.7 147.2 L 40.0 139.2 L 40.239457511901854 135.6879566192627 L 35.3 137.0 L 22.7 140.2 L 20.467864894866942 140.74003267288208 L 19.0 144.2 L 16.5 141.7 L 12.3 130.2 Z M 154.8 175.0 L 166.8 175.0 L 168.1 174.9 L 169.0 174.7 L 169.9 174.4 L 170.3 174.0 L 170.6 173.1 L 170.8 172.2 L 170.8 108.07428569793701 L 168.4 112.6 L 164.6 119.0 L 160.6 125.2 L 156.3 131.3 L 151.8 137.1 L 147.1 142.6 L 142.0 147.9 L 136.6 152.9 L 130.9 157.6 L 129.6 156.3 L 133.8 150.4 L 137.9 144.5 L 141.9 138.6 L 145.6 132.7 L 149.2 126.6 L 152.6 120.4 L 155.8 114.2 L 158.8 107.8 L 161.5 101.3 L 163.74511365890504 95.51451482772828 L 163.7 95.5 L 164.6 93.3 L 170.8 96.75094337463379 L 170.8 54.703030300140384 L 168.9 58.1 L 165.5 63.7 L 161.9 69.2 L 158.0 74.5 L 153.9 79.6 L 149.6 84.5 L 145.1 89.2 L 140.2 93.6 L 135.0 97.6 L 133.7 96.3 L 137.4 91.0 L 141.0 85.7 L 144.5 80.5 L 147.8 75.2 L 151.0 69.8 L 153.9 64.4 L 156.8 58.8 L 159.4 53.2 L 161.8 47.4 L 163.70902729034424 42.502929878234866 L 163.7 42.5 L 163.9159999847412 41.97200002670288 L 164.1 41.5 L 164.1077383041382 41.50330638885498 L 164.6 40.3 L 170.8 43.7838095664978 L 170.8 32.0 L 133.0 32.0 L 133.0 28.0 L 170.8 28.0 L 176.8 23.0 L 187.8 32.0 L 182.8 36.0 L 182.8 171.0 L 182.7 173.5 L 182.3 176.0 L 181.5 178.4 L 180.2 180.7 L 178.6 182.7 L 176.6 184.3 L 174.3 185.6 L 171.9 186.4 L 169.4 186.8 L 166.8 187.0 L 166.8 181.0 L 154.8 178.0 Z M 29.2 77.4 L 28.9 74.7 L 28.4 72.0 L 27.7 69.2 L 27.0 66.5 L 26.1 63.7 L 25.1 60.9 L 24.0 58.0 L 22.4 55.3 L 23.8 54.1 L 26.1 56.4 L 28.5 58.6 L 30.8 60.9 L 32.8 63.4 L 34.7 66.1 L 36.4 68.9 L 37.9 71.8 L 39.2 74.8 L 40.4 77.9 L 41.3 81.1 L 40.2 85.5 L 36.3 87.9 L 31.9 86.8 L 29.5 82.9 L 29.4 80.1 Z M 14.4 45.0 L 40.6 45.0 L 40.6 17.0 L 52.6 19.0 L 55.6 21.0 L 52.6 22.8 L 52.6 45.0 L 62.2 45.0 L 72.2 35.0 L 84.2 45.0 L 84.2 49.0 L 14.4 49.0 Z " />
</g>
</svg>
