<svg xmlns="http://www.w3.org/2000/svg" xmlns:xlink="http://www.w3.org/1999/xlink" version="1.1" baseProfile="full" viewBox="0 0 200 200" width="200" height="200">
<g fill="black">
<path d="M 130.7 183.7 L 112.3 182.6 L 97.2 180.8 L 85.0 178.1 L 75.1 174.6 L 67.2 170.3 L 61.1 165.3 L 56.4 159.6 L 54.27821521759033 155.8868766784668 L 52.0 158.1 L 48.4 161.5 L 44.9 164.6 L 41.3 167.7 L 37.7 170.6 L 26.9 178.7 L 23.323113918304443 181.18394861221313 L 23.1 185.2 L 19.8 183.6 L 12.1 174.3 L 13.8 173.3 L 17.6 171.4 L 21.4 169.6 L 29.2 165.6 L 33.2 163.6 L 37.2 161.5 L 44.0 158.1 L 44.0 109.0 L 14.0 109.0 L 14.0 105.0 L 44.0 105.0 L 50.0 100.0 L 61.0 109.0 L 56.0 113.0 L 56.0 153.70384616851806 L 59.5 156.8 L 64.9 160.7 L 70.8 164.1 L 78.0 166.8 L 87.1 169.0 L 98.6 170.6 L 113.0 171.6 L 130.9 171.9 L 152.6 171.5 L 178.7 170.4 L 190.0 169.9 L 179.2 183.5 L 152.9 184.0 Z M 69.1 151.3 L 122.0 151.3 L 122.0 104.6 L 80.1 104.6 L 80.1 100.6 L 153.8 100.6 L 163.8 90.6 L 175.8 100.6 L 175.8 104.6 L 134.0 104.6 L 134.0 151.3 L 164.8 151.3 L 174.8 141.3 L 186.8 151.3 L 186.8 155.3 L 69.1 155.3 Z M 169.58668851852417 20.741180324554442 L 179.0 28.6 L 179.2 31.7 L 175.07407741546632 29.846324634552 L 172.7 30.6 L 164.9 32.7 L 156.9 34.6 L 148.8 36.4 L 140.6 38.0 L 132.2 39.5 L 123.7 40.8 L 115.1 41.9 L 106.4 42.7 L 100.59320697784423 43.09146919250488 L 97.89042692184448 43.96021995544434 L 97.2 46.3 L 95.2 52.2 L 92.9 57.9 L 90.5 63.3 L 87.9 68.6 L 85.0 73.6 L 81.9 78.3 L 78.6 82.8 L 75.0 86.9 L 71.1 90.7 L 69.6 89.6 L 71.9 84.8 L 74.0 80.0 L 76.2 75.1 L 78.2 70.2 L 80.1 65.1 L 81.8 59.9 L 83.4 54.6 L 84.9 49.1 L 86.2 43.4 L 87.11320753097534 38.50188674926758 L 87.1 38.5 L 87.2043478012085 38.01304349899292 L 87.3 37.5 L 87.31361255645751 37.50314140319824 L 87.7 35.7 L 97.1121416091919 39.44819793701172 L 105.5 37.4 L 114.0 35.4 L 122.3 33.3 L 130.4 31.2 L 138.4 29.0 L 146.3 26.7 L 154.1 24.3 L 161.7 21.8 L 168.11857595443726 19.54482469558716 L 168.1 19.5 L 168.14329013824462 19.536141300201415 L 169.1 19.2 Z M 38.3 77.2 L 36.1 74.7 L 33.7 72.2 L 31.2 69.7 L 28.5 67.3 L 25.7 65.0 L 22.8 62.6 L 19.8 60.3 L 16.5 58.2 L 17.2 56.5 L 21.1 57.6 L 24.9 58.6 L 28.6 60.0 L 32.2 61.5 L 35.7 63.3 L 39.1 65.2 L 42.4 67.3 L 45.5 69.6 L 48.6 72.1 L 51.5 74.7 L 52.9 79.1 L 50.9 83.2 L 46.6 84.6 L 42.5 82.6 L 40.5 79.9 Z M 171.8 72.8 L 170.4 69.2 L 168.9 65.6 L 167.1 61.9 L 165.1 58.1 L 162.9 54.3 L 160.6 50.3 L 158.1 46.2 L 155.3 42.1 L 156.7 40.8 L 160.6 44.0 L 164.4 47.2 L 167.8 50.5 L 171.0 54.0 L 174.0 57.5 L 176.7 61.0 L 179.2 64.6 L 181.4 68.3 L 183.4 72.0 L 185.2 75.8 L 184.9 80.4 L 181.5 83.5 L 176.9 83.1 L 173.9 79.7 L 172.9 76.3 Z M 125.9 71.0 L 125.4 68.1 L 124.8 65.2 L 124.0 62.3 L 123.1 59.4 L 122.0 56.5 L 120.8 53.6 L 119.6 50.6 L 117.8 47.8 L 119.2 46.6 L 121.7 48.9 L 124.3 51.1 L 126.7 53.6 L 128.9 56.2 L 130.9 58.9 L 132.7 61.8 L 134.4 64.9 L 135.9 68.0 L 137.2 71.3 L 138.3 74.7 L 137.3 79.1 L 133.5 81.7 L 129.1 80.7 L 126.5 76.9 L 126.3 73.9 Z M 47.9 41.9 L 46.0 39.3 L 43.9 36.8 L 41.6 34.3 L 39.1 31.8 L 36.5 29.4 L 33.7 26.9 L 30.7 24.4 L 27.5 22.2 L 28.2 20.6 L 32.1 21.8 L 35.9 23.1 L 39.5 24.6 L 43.0 26.2 L 46.4 28.1 L 49.6 30.2 L 52.7 32.4 L 55.6 34.7 L 58.3 37.3 L 61.0 40.0 L 62.0 44.4 L 59.8 48.4 L 55.3 49.4 L 51.4 47.2 L 49.7 44.5 Z " />
</g>
</svg>
