<svg xmlns="http://www.w3.org/2000/svg" xmlns:xlink="http://www.w3.org/1999/xlink" version="1.1" baseProfile="full" viewBox="0 0 200 200" width="200" height="200">
<g fill="black">
<path d="M 129.4 183.7 L 111.2 182.6 L 96.2 180.8 L 84.1 178.1 L 74.3 174.6 L 66.5 170.3 L 60.5 165.3 L 55.9 159.6 L 53.76666669845581 155.86666669845582 L 53.62727270126343 155.93636360168458 L 51.4 158.1 L 48.0 161.5 L 44.4 164.6 L 40.9 167.6 L 37.3 170.5 L 33.8 173.3 L 30.2 176.0 L 23.2 181.2 L 23.11914196014404 181.2554455757141 L 22.9 185.2 L 19.7 183.6 L 11.9 174.3 L 13.6 173.3 L 17.4 171.4 L 21.1 169.6 L 32.8 163.6 L 36.8 161.5 L 40.9 159.4 L 43.5 158.1 L 43.5 109.0 L 13.8 109.0 L 13.8 105.0 L 43.5 105.0 L 49.5 100.0 L 60.5 109.0 L 55.5 113.0 L 55.5 153.76226415634156 L 59.0 156.8 L 64.3 160.8 L 70.2 164.1 L 70.21621742248536 164.10616722106934 L 73.4 162.8 L 80.5 159.3 L 86.7 155.7 L 92.1 151.7 L 96.8 147.5 L 100.7 143.0 L 103.9 138.1 L 106.5 132.9 L 108.4 127.4 L 108.98333330154419 124.6 L 65.9 124.6 L 65.9 120.6 L 117.3 120.6 L 117.3 106.5 L 129.3 108.5 L 132.3 110.5 L 129.3 112.3 L 129.3 120.6 L 164.61818180084228 120.6 L 172.8 111.6 L 182.8 120.6 L 182.8 124.6 L 121.15555553436279 124.6 L 119.2 131.0 L 117.01818180084229 135.8 L 152.3 135.8 L 158.3 130.8 L 169.3 139.8 L 164.3 142.8 L 163.97337274551393 142.93609466552735 L 163.9 144.0 L 163.7 146.5 L 163.5 148.9 L 163.2 151.0 L 162.9 152.9 L 162.5 154.6 L 162.1 156.2 L 161.4 157.8 L 160.2 159.6 L 158.6 161.4 L 156.8 163.0 L 154.9 164.5 L 152.9 165.7 L 150.8 166.8 L 148.6 167.7 L 146.3 168.4 L 144.0 168.9 L 141.6 169.2 L 139.2 169.2 L 139.2 163.2 L 119.2 160.2 L 119.2 157.2 L 140.6 157.2 L 142.0 157.0 L 143.4 156.7 L 144.6 156.4 L 145.8 155.9 L 146.9 155.3 L 148.0 154.6 L 149.1 153.8 L 150.1 152.9 L 150.75 152.25 L 150.9 151.8 L 151.1 150.7 L 151.3 149.3 L 151.5 147.5 L 151.8 145.5 L 151.9 143.1 L 152.1 140.5 L 152.14666662216186 139.8 L 114.76999998092651 139.8 L 112.3 143.6 L 107.7 149.0 L 102.4 153.8 L 96.5 158.0 L 89.8 161.5 L 82.5 164.3 L 75.57006072998047 166.1421357154846 L 77.3 166.8 L 86.2 169.0 L 97.6 170.6 L 111.9 171.6 L 129.6 171.9 L 151.1 171.5 L 176.9 170.4 L 188.2 169.9 L 177.4 183.5 L 151.3 184.0 Z M 163.6 55.3 L 157.6 52.2 L 151.8 48.9 L 146.3 45.2 L 140.9 41.3 L 135.9 37.0 L 131.1 32.5 L 126.6 27.5 L 126.23015871047974 26.987912082672118 L 124.1 29.2 L 118.6 34.2 L 112.8 38.9 L 106.7 43.2 L 100.2 47.2 L 93.4 50.8 L 86.4 54.1 L 85.60307693481445 54.40153846740723 L 95.0 59.1 L 118.0 59.1 L 118.0 44.9 L 130.0 46.9 L 133.0 48.9 L 130.0 50.7 L 130.0 59.1 L 153.0 59.1 L 159.0 54.1 L 170.0 63.1 L 165.0 67.1 L 165.0 80.5 L 169.9777777671814 80.5 L 176.2 73.5 L 184.2 80.5 L 184.2 84.5 L 165.0 84.5 L 165.0 106.3 L 153.0 112.3 L 153.0 106.3 L 95.0 106.3 L 83.0 112.3 L 83.0 84.5 L 63.8 84.5 L 63.8 80.5 L 83.0 80.5 L 83.0 55.386486530303955 L 79.0 56.9 L 71.2 59.3 L 63.2 61.2 L 62.6 59.5 L 69.9 55.8 L 76.8 52.0 L 83.4 48.2 L 89.7 44.3 L 95.6 40.1 L 101.1 35.7 L 106.4 31.2 L 111.3 26.4 L 115.8 21.4 L 119.43254203796387 16.92268075942993 L 119.4 16.9 L 119.84328355789185 16.41641788482666 L 120.1 16.1 L 120.11886215209961 16.115786743164062 L 120.5 15.7 L 129.3 23.8 L 129.48766231536865 24.456818199157716 L 134.8 27.9 L 140.2 31.2 L 145.6 34.3 L 151.0 37.2 L 156.6 39.9 L 162.3 42.2 L 168.1 44.4 L 174.0 46.3 L 180.1 47.9 L 187.9 50.3 L 176.2 60.6 L 169.8 58.1 Z M 95.0 84.5 L 95.0 102.3 L 118.0 102.3 L 118.0 84.5 Z M 130.0 84.5 L 130.0 102.3 L 153.0 102.3 L 153.0 84.5 Z M 37.9 77.2 L 35.6 74.6 L 33.3 72.1 L 30.8 69.7 L 28.2 67.3 L 25.4 64.9 L 22.6 62.6 L 19.6 60.3 L 16.4 58.2 L 17.1 56.5 L 20.9 57.6 L 24.7 58.6 L 28.4 60.0 L 31.9 61.5 L 35.4 63.3 L 38.7 65.2 L 42.0 67.3 L 45.1 69.6 L 48.1 72.1 L 51.0 74.8 L 52.4 79.1 L 50.4 83.2 L 46.1 84.6 L 42.0 82.6 L 40.0 79.9 Z M 95.0 63.1 L 95.0 80.5 L 118.0 80.5 L 118.0 63.1 Z M 130.0 63.1 L 130.0 80.5 L 153.0 80.5 L 153.0 63.1 Z M 47.4 41.9 L 45.5 39.3 L 43.4 36.8 L 41.1 34.3 L 38.7 31.8 L 36.1 29.4 L 33.3 26.9 L 30.4 24.4 L 27.2 22.2 L 28.0 20.6 L 31.8 21.9 L 35.6 23.1 L 39.2 24.6 L 42.6 26.3 L 46.0 28.1 L 49.1 30.2 L 52.2 32.4 L 55.1 34.8 L 57.8 37.3 L 60.4 40.0 L 61.5 44.4 L 59.2 48.4 L 54.7 49.4 L 50.8 47.1 L 49.2 44.5 Z " />
</g>
</svg>
