<svg xmlns="http://www.w3.org/2000/svg" xmlns:xlink="http://www.w3.org/1999/xlink" version="1.1" baseProfile="full" viewBox="0 0 200 200" width="200" height="200">
<g fill="black">
<path d="M 130.7 183.7 L 112.3 182.6 L 97.2 180.8 L 85.0 178.1 L 75.1 174.6 L 67.2 170.3 L 61.1 165.3 L 56.4 159.6 L 54.27821521759033 155.8868766784668 L 52.0 158.1 L 48.4 161.5 L 44.9 164.6 L 41.3 167.7 L 37.7 170.6 L 26.9 178.7 L 23.323113918304443 181.18394861221313 L 23.1 185.2 L 19.8 183.6 L 12.1 174.3 L 13.8 173.3 L 17.6 171.4 L 21.4 169.6 L 29.2 165.6 L 33.2 163.6 L 37.2 161.5 L 44.0 158.1 L 44.0 109.0 L 14.0 109.0 L 14.0 105.0 L 44.0 105.0 L 50.0 100.0 L 61.0 109.0 L 56.0 113.0 L 56.0 153.70384616851806 L 59.5 156.8 L 64.9 160.7 L 70.8 164.1 L 78.0 166.8 L 87.1 169.0 L 98.6 170.6 L 113.0 171.6 L 130.9 171.9 L 152.6 171.5 L 178.7 170.4 L 190.0 169.9 L 179.2 183.5 L 152.9 184.0 Z M 163.8 150.6 L 158.3 146.1 L 153.1 141.3 L 148.2 136.2 L 143.6 130.8 L 139.3 125.1 L 135.3 119.1 L 131.7 112.8 L 131.6 112.57666664123535 L 131.6 161.6 L 119.6 167.6 L 119.6 119.60666666030883 L 118.3 121.6 L 113.3 128.1 L 108.0 134.1 L 102.3 139.7 L 96.2 144.9 L 89.8 149.6 L 83.0 153.8 L 75.9 157.4 L 68.3 160.4 L 67.5 158.8 L 73.9 154.2 L 80.0 149.4 L 85.8 144.4 L 91.2 139.2 L 96.2 133.8 L 100.9 128.1 L 105.3 122.1 L 109.3 115.7 L 112.9 109.1 L 113.96976747512818 106.8 L 71.2 106.8 L 71.2 102.8 L 119.6 102.8 L 119.6 79.6 L 131.6 81.6 L 134.6 83.6 L 131.6 85.4 L 131.6 102.8 L 158.0 102.8 L 168.0 92.8 L 180.0 102.8 L 180.0 106.8 L 131.80377359390258 106.8 L 135.2 110.4 L 140.0 115.5 L 144.8 120.4 L 149.7 125.1 L 154.7 129.5 L 159.8 133.6 L 165.1 137.4 L 170.6 140.9 L 176.1 144.2 L 181.9 147.2 L 186.7 149.9 L 175.5 158.8 L 169.5 154.8 Z M 122.4 39.2 L 125.0 41.6 L 121.42417907714844 43.05681591033935 L 120.3 47.5 L 117.7 55.4 L 114.5 62.8 L 110.6 69.5 L 106.2 75.8 L 101.3 81.4 L 95.7 86.4 L 89.6 90.8 L 83.0 94.4 L 75.9 97.2 L 75.1 95.6 L 81.0 91.2 L 86.4 86.5 L 91.2 81.6 L 95.5 76.4 L 99.3 70.9 L 102.5 65.0 L 105.3 58.7 L 107.5 52.0 L 109.3 44.8 L 110.42854051589966 38.20237836837769 L 110.4 38.2 L 110.9 35.2 Z M 147.3 84.8 L 144.9 84.4 L 142.5 83.6 L 140.2 82.5 L 138.2 80.9 L 136.6 79.0 L 135.3 76.8 L 134.5 74.4 L 134.0 71.9 L 133.8 69.4 L 133.8 35.2 L 145.8 37.2 L 148.8 39.2 L 145.8 41.0 L 145.8 70.6 L 145.9 71.5 L 146.1 72.2 L 146.2 72.5 L 146.4 72.8 L 146.9 73.3 L 147.6 73.5 L 148.5 73.7 L 149.8 73.9 L 171.6 73.9 L 177.1 52.9 L 179.1 52.9 L 177.1 73.9 L 180.4 76.1 L 182.6 79.4 L 180.4 82.7 L 177.1 84.9 L 149.8 84.9 Z M 38.3 77.2 L 36.1 74.7 L 33.7 72.2 L 31.2 69.7 L 28.5 67.3 L 25.7 65.0 L 22.8 62.6 L 19.8 60.3 L 16.5 58.2 L 17.2 56.5 L 21.1 57.6 L 24.9 58.6 L 28.6 60.0 L 32.2 61.5 L 35.7 63.3 L 39.1 65.2 L 42.4 67.3 L 45.5 69.6 L 48.6 72.1 L 51.5 74.7 L 52.9 79.1 L 50.9 83.2 L 46.6 84.6 L 42.5 82.6 L 40.5 79.9 Z M 70.8 65.6 L 69.0 61.4 L 70.6 57.2 L 71.8 56.2 L 73.1 54.5 L 74.5 52.2 L 75.8 49.3 L 77.0 45.7 L 78.1 41.6 L 79.1 37.0 L 80.0 31.7 L 80.9 26.0 L 81.7 19.7 L 83.5 19.7 L 84.2 26.0 L 84.72203388214112 30.4 L 169.8 30.4 L 175.8 25.4 L 186.8 34.4 L 181.8 37.4 L 179.20183486938475 38.48256883621216 L 177.5 41.4 L 175.9 44.0 L 174.2 46.7 L 172.4 49.5 L 170.4 52.5 L 168.3 55.5 L 166.0 58.6 L 163.8 62.0 L 162.2 61.2 L 163.5 57.4 L 164.5 53.7 L 165.4 50.2 L 166.3 46.8 L 167.2 43.6 L 168.0 40.6 L 168.7 37.8 L 169.3 35.2 L 169.46000003814697 34.4 L 85.03636360168457 34.4 L 85.2 37.4 L 85.2 42.5 L 85.0 47.2 L 84.5 51.5 L 83.7 55.5 L 82.7 59.1 L 81.2 62.4 L 79.3 65.4 L 75.1 67.2 Z M 47.9 41.9 L 46.0 39.3 L 43.9 36.8 L 41.6 34.3 L 39.1 31.8 L 36.5 29.4 L 33.7 26.9 L 30.7 24.4 L 27.5 22.2 L 28.2 20.6 L 32.1 21.8 L 35.9 23.1 L 39.5 24.6 L 43.0 26.2 L 46.4 28.1 L 49.6 30.2 L 52.7 32.4 L 55.6 34.7 L 58.3 37.3 L 61.0 40.0 L 62.0 44.4 L 59.8 48.4 L 55.3 49.4 L 51.4 47.2 L 49.7 44.5 Z " />
</g>
</svg>
