<svg xmlns="http://www.w3.org/2000/svg" xmlns:xlink="http://www.w3.org/1999/xlink" version="1.1" baseProfile="full" viewBox="0 0 200 200" width="200" height="200">
<g fill="black">
<path d="M 179.0 153.5 L 177.5 155.5 L 175.7 157.2 L 173.7 158.7 L 171.6 159.9 L 169.3 160.8 L 166.9 161.5 L 164.5 161.8 L 162.0 162.0 L 162.0 156.0 L 150.0 153.0 L 150.0 150.0 L 162.0 150.0 L 163.3 149.9 L 164.5 149.7 L 165.5 149.4 L 166.4 149.1 L 167.2 148.6 L 167.9 148.1 L 168.5 147.4 L 169.2 146.6 L 169.8 145.6 L 170.4 144.4 L 172.0 140.6 L 173.2 135.6 L 173.8 129.9 L 173.7 123.7 L 172.6 117.1 L 170.3 110.4 L 166.7 103.7 L 161.5 97.1 L 154.4 90.8 L 145.77963161468506 84.4073673248291 L 145.7 84.5 L 144.2 83.4 L 147.5 76.8 L 150.6 70.4 L 156.7 58.2 L 159.5 52.4 L 162.1 46.7 L 164.5 41.3 L 166.6 35.9 L 168.6 30.7 L 168.85200004577638 30.0 L 130.0 30.0 L 130.0 183.0 L 118.0 189.0 L 118.0 20.0 L 130.0 26.0 L 170.0 26.0 L 176.0 21.0 L 187.0 30.0 L 182.0 33.0 L 179.73902435302733 33.94207315444946 L 179.1 35.3 L 176.4 40.5 L 173.5 45.7 L 170.3 51.1 L 166.9 56.5 L 163.3 62.0 L 159.4 67.6 L 155.2 73.2 L 150.6 78.8 L 147.1420563697815 82.82250576019287 L 157.3 86.3 L 166.1 92.1 L 173.0 99.0 L 178.1 106.5 L 181.6 114.4 L 183.6 122.3 L 184.4 129.9 L 184.2 137.1 L 183.1 143.6 L 181.4 149.2 L 180.3 151.4 Z M 59.4 105.4 L 62.3 107.6 L 58.90896863937378 109.29551572799683 L 57.9 117.3 L 56.64375 124.0 L 88.5 124.0 L 94.5 119.0 L 105.5 128.0 L 100.5 131.0 L 100.35330076217652 131.06112470626832 L 100.3 132.9 L 100.0 139.3 L 99.5 145.3 L 98.8 150.9 L 97.9 155.9 L 96.7 160.6 L 95.2 164.8 L 93.5 168.7 L 91.4 172.1 L 88.9 175.1 L 87.2 176.7 L 85.3 178.2 L 83.4 179.5 L 81.3 180.7 L 79.2 181.7 L 77.0 182.5 L 74.8 183.2 L 72.4 183.6 L 70.1 183.9 L 67.7 184.0 L 67.7 178.0 L 49.7 175.0 L 49.7 172.0 L 67.7 172.0 L 69.2 171.9 L 72.0 171.5 L 73.3 171.1 L 74.6 170.6 L 75.8 170.1 L 77.0 169.4 L 78.2 168.6 L 79.3 167.7 L 80.4 166.6 L 81.6 165.1 L 82.9 163.1 L 84.1 160.5 L 85.2 157.2 L 86.1 153.4 L 87.0 149.0 L 87.6 144.1 L 88.1 138.6 L 88.4 132.5 L 88.4692307472229 128.0 L 55.89375 128.0 L 55.8 128.5 L 52.9 139.0 L 49.4 148.6 L 45.2 157.5 L 40.3 165.6 L 34.8 172.8 L 28.5 179.1 L 21.6 184.4 L 14.1 188.7 L 13.1 187.2 L 19.2 181.5 L 24.7 175.4 L 29.6 168.8 L 33.9 161.7 L 37.6 153.9 L 40.7 145.4 L 43.3 136.3 L 45.3 126.4 L 46.6 115.8 L 47.4 104.5 L 47.462208366394044 104.50466566085815 L 47.55625 103.0 L 16.8 103.0 L 16.8 99.0 L 53.8 99.0 L 53.8 75.0 L 65.8 77.0 L 68.8 79.0 L 65.8 80.8 L 65.8 99.0 L 83.0 99.0 L 93.0 89.0 L 105.0 99.0 L 105.0 103.0 L 50.26451616287231 103.0 Z M 13.6 68.0 L 54.9 68.0 L 54.9 44.0 L 25.2 44.0 L 25.2 40.0 L 54.9 40.0 L 54.9 14.0 L 66.9 16.0 L 69.9 18.0 L 66.9 19.8 L 66.9 40.0 L 78.8 40.0 L 88.8 30.0 L 100.8 40.0 L 100.8 44.0 L 66.9 44.0 L 66.9 68.0 L 85.1 68.0 L 95.1 58.0 L 107.1 68.0 L 107.1 72.0 L 13.6 72.0 Z " />
</g>
</svg>
