<svg xmlns="http://www.w3.org/2000/svg" xmlns:xlink="http://www.w3.org/1999/xlink" version="1.1" baseProfile="full" viewBox="0 0 200 200" width="200" height="200">
<g fill="black">
<path d="M 156.9 99.8 L 146.9 96.8 L 137.9 93.3 L 133.8969630241394 91.32319164276123 L 132.9 91.8 L 122.9 95.5 L 111.9 98.6 L 104.99515781402587 99.99257316589356 L 110.6 105.8 L 111.28177871704102 109.30629062652588 L 119.7 114.1 L 126.8 117.9 L 134.1 121.6 L 141.5 124.9 L 149.0 128.0 L 156.7 130.8 L 164.5 133.4 L 172.5 135.6 L 180.6 137.6 L 189.0 139.8 L 177.3 150.3 L 168.8 147.6 L 160.6 144.5 L 152.6 141.1 L 144.8 137.4 L 137.3 133.3 L 130.0 128.9 L 124.80645160675049 125.33870964050293 L 134.0 133.0 L 134.0 137.0 L 107.0 137.0 L 107.0 150.0 L 139.8181818008423 150.0 L 148.0 141.0 L 158.0 150.0 L 158.0 154.0 L 107.0 154.0 L 107.0 176.0 L 121.36363639831544 176.0 L 122.1 175.1 L 123.4 172.6 L 126.0 168.0 L 127.2 165.7 L 128.4 163.6 L 129.5 161.4 L 130.6 159.4 L 131.6 157.3 L 132.0898820877075 156.21137313842775 L 131.9 156.1 L 132.9 154.6 L 142.3 162.2 L 143.6 165.6 L 139.0506591796875 165.28625230789186 L 138.7 165.6 L 136.9 167.3 L 134.9 168.9 L 132.9 170.6 L 128.5 173.8 L 126.2 175.3 L 125.08000001907348 176.0 L 159.0 176.0 L 169.0 166.0 L 181.0 176.0 L 181.0 180.0 L 22.0 180.0 L 22.0 176.0 L 95.0 176.0 L 95.0 154.0 L 45.0 154.0 L 45.0 150.0 L 95.0 150.0 L 95.0 137.0 L 73.0 137.0 L 73.0 133.0 L 112.0 133.0 L 121.8076271057129 123.1923728942871 L 116.3 119.0 L 110.0 113.4 L 106.40514097213745 109.61920003890991 L 103.9 111.9 L 96.5 117.6 L 88.5 123.0 L 79.8 128.2 L 70.6 133.1 L 60.6 137.7 L 50.0 142.0 L 38.8 146.0 L 26.8 149.6 L 14.2 152.8 L 13.7 151.1 L 25.6 146.1 L 36.8 141.0 L 47.4 136.0 L 57.3 130.9 L 66.5 125.7 L 75.0 120.3 L 82.8 114.8 L 89.9 109.1 L 96.3 103.4 L 98.37284851074219 101.21610603332519 L 87.2 102.7 L 73.6 103.7 L 73.4 101.9 L 86.6 99.0 L 98.8 95.8 L 110.0 92.3 L 120.2 88.4 L 124.98774318695068 86.13765983581543 L 122.8 84.7 L 116.9 79.6 L 112.1 74.0 L 108.6 67.8 L 106.72615385055542 62.0 L 94.9 62.0 L 94.9 58.0 L 158.6 58.0 L 158.99397592544557 57.67168674468994 L 159.5 56.9 L 159.74121618270874 57.04898653030396 L 164.6 53.0 L 175.6 62.0 L 170.6 65.0 L 167.212131690979 66.4116117477417 L 164.2 70.3 L 157.8 76.7 L 150.4 82.4 L 145.99263563156128 85.05503873825073 L 150.0 86.2 L 159.4 88.2 L 169.8 89.9 L 181.1 91.1 L 191.6 92.2 L 179.7 104.2 L 167.8 102.2 Z M 67.7 170.3 L 67.2 168.8 L 66.6 167.3 L 65.8 165.7 L 63.8 162.3 L 62.5 160.6 L 61.1 158.7 L 59.3 157.2 L 60.3 155.7 L 62.4 156.9 L 64.7 157.7 L 66.9 158.5 L 68.9 159.5 L 70.9 160.6 L 72.7 161.8 L 74.4 163.1 L 76.1 164.5 L 77.6 166.0 L 79.0 167.6 L 79.2 172.1 L 76.3 175.6 L 71.7 175.9 L 68.2 173.0 L 68.0 171.7 Z M 69.2 15.8 L 72.2 17.8 L 69.2 19.6 L 69.2 101.6 L 57.2 107.6 L 57.2 13.8 Z M 34.0 23.7 L 37.0 25.7 L 34.0 27.5 L 34.0 83.8 L 22.0 89.8 L 22.0 21.7 Z M 109.2920000076294 62.0 L 112.1 65.6 L 116.5 70.1 L 121.6 74.1 L 127.4 77.7 L 134.0 80.9 L 134.49160614013672 81.08758659362793 L 137.4 79.4 L 144.4 74.3 L 150.4 68.9 L 155.5 63.0 L 156.15573768615724 62.0 Z M 117.6 18.4 L 148.4 18.4 L 154.4 13.4 L 165.4 22.4 L 160.4 26.4 L 160.4 38.7 L 160.2 40.0 L 160.2 41.7 L 160.4 42.7 L 160.6 43.1 L 161.1 43.6 L 161.8 44.0 L 162.9 44.4 L 164.4 44.7 L 180.1 44.7 L 184.1 35.7 L 186.1 35.7 L 184.1 44.7 L 186.5 46.3 L 188.1 48.7 L 186.5 51.1 L 184.1 52.7 L 164.4 52.7 L 162.0 52.8 L 159.7 52.6 L 157.5 52.0 L 155.3 51.1 L 153.3 49.7 L 151.7 48.0 L 150.3 45.9 L 149.3 43.7 L 148.7 41.2 L 148.4 38.7 L 148.4 22.4 L 117.6 22.4 L 117.6 32.7 L 116.8 36.7 L 115.3 40.4 L 113.1 43.7 L 110.3 46.6 L 107.0 49.1 L 103.2 51.4 L 98.9 53.4 L 94.1 55.2 L 88.8 56.8 L 83.1 58.3 L 82.5 56.6 L 87.7 53.9 L 92.2 51.1 L 96.0 48.4 L 99.2 45.7 L 101.8 43.1 L 103.7 40.6 L 104.9 38.4 L 105.6 36.3 L 105.8 34.4 L 105.6 32.7 L 105.6 12.4 Z " />
</g>
</svg>
