<svg xmlns="http://www.w3.org/2000/svg" xmlns:xlink="http://www.w3.org/1999/xlink" version="1.1" baseProfile="full" viewBox="0 0 200 200" width="200" height="200">
<g fill="black">
<path d="M 35.0 24.0 L 77.0 24.0 L 83.0 19.0 L 94.0 28.0 L 89.0 32.0 L 89.0 71.0 L 77.0 77.0 L 77.0 71.0 L 35.0 71.0 L 35.0 183.0 L 23.0 189.0 L 23.0 18.0 Z M 141.0 176.0 L 161.0 176.0 L 162.2 175.9 L 163.1 175.7 L 164.0 175.4 L 164.4 175.0 L 164.7 174.1 L 164.9 173.2 L 165.0 172.0 L 165.0 71.0 L 123.0 71.0 L 123.0 74.0 L 111.0 80.0 L 111.0 18.0 L 123.0 24.0 L 165.0 24.0 L 171.0 19.0 L 182.0 28.0 L 177.0 32.0 L 177.0 172.0 L 176.8 174.5 L 176.4 177.0 L 175.6 179.4 L 174.3 181.7 L 172.7 183.7 L 170.7 185.3 L 168.4 186.6 L 166.0 187.4 L 163.5 187.8 L 161.0 188.0 L 161.0 182.0 L 141.0 179.0 Z M 112.71325302124023 92.65662651062011 L 117.3 90.9 L 121.7 89.3 L 125.8 87.8 L 129.6 86.3 L 133.1 84.9 L 136.3 83.5 L 139.2 82.2 L 141.7 80.9 L 143.03597602844238 80.17128582000733 L 143.0 80.1 L 143.0637755393982 80.1561224937439 L 143.9 79.7 L 144.651260471344 81.55310926437377 L 153.0 88.9 L 153.2 92.1 L 149.30978994369508 90.4242172241211 L 148.4 90.8 L 145.6 91.5 L 142.5 92.2 L 139.1 92.8 L 135.5 93.5 L 131.6 94.1 L 127.4 94.6 L 123.0 95.1 L 118.3 95.5 L 113.2 95.8 L 112.8 95.8307692527771 L 112.8 117.7 L 138.71818180084227 117.7 L 146.9 108.7 L 156.9 117.7 L 156.9 121.7 L 140.8 121.7 L 140.8 175.3 L 128.8 181.3 L 128.8 121.7 L 112.8 121.7 L 112.8 133.0 L 112.3 139.9 L 111.4 146.4 L 110.1 152.5 L 108.2 158.1 L 106.0 163.3 L 103.2 167.9 L 100.1 172.0 L 96.4 175.6 L 92.4 178.4 L 87.9 180.6 L 87.1 179.4 L 90.4 176.0 L 93.2 172.5 L 95.7 168.8 L 97.7 164.8 L 99.5 160.5 L 100.9 155.8 L 101.9 150.7 L 102.5 145.2 L 102.9 139.3 L 102.8 133.0 L 102.8 87.7 Z M 59.68181819915772 92.29090909957885 L 62.1 91.4 L 69.3 88.6 L 72.8 87.1 L 76.2 85.5 L 79.5 83.8 L 82.8 81.9 L 86.0 79.9 L 88.31952295303344 78.32871026992798 L 88.3 78.3 L 88.32482986450195 78.32511529922485 L 89.1 77.8 L 90.87276268005371 80.90233459472657 L 97.0 87.1 L 97.2 90.5 L 93.50299119949341 88.99613199234008 L 91.2 90.0 L 87.2 91.5 L 83.2 92.8 L 79.2 93.9 L 75.2 94.8 L 71.1 95.4 L 67.0 95.8 L 62.9 96.0 L 60.5 95.88571424484253 L 60.5 107.2 L 85.0 107.2 L 90.0 102.2 L 100.0 111.2 L 95.0 114.2 L 95.0 139.6 L 85.0 144.6 L 85.0 135.6 L 60.27230768203735 135.6 L 60.1 138.4 L 59.4 144.6 L 58.5 150.4 L 57.3 155.9 L 55.8 160.9 L 54.1 165.7 L 52.1 170.0 L 49.7 173.8 L 47.0 177.2 L 44.0 179.9 L 42.6 178.9 L 43.8 175.3 L 45.0 171.5 L 46.0 167.6 L 46.9 163.5 L 47.6 159.0 L 48.2 154.2 L 48.6 149.2 L 48.7 143.7 L 48.7 138.0 L 48.5 131.9 L 48.5 86.7 Z M 60.5 111.2 L 60.5 131.6 L 85.0 131.6 L 85.0 111.2 Z M 123.0 49.0 L 123.0 67.0 L 165.0 67.0 L 165.0 49.0 Z M 35.0 49.0 L 35.0 67.0 L 77.0 67.0 L 77.0 49.0 Z M 123.0 28.0 L 123.0 45.0 L 165.0 45.0 L 165.0 28.0 Z M 35.0 28.0 L 35.0 45.0 L 77.0 45.0 L 77.0 28.0 Z " />
</g>
</svg>
