<svg xmlns="http://www.w3.org/2000/svg" xmlns:xlink="http://www.w3.org/1999/xlink" version="1.1" baseProfile="full" viewBox="0 0 200 200" width="200" height="200">
<g fill="black">
<path d="M 35.0 25.0 L 77.0 25.0 L 83.0 20.0 L 94.0 29.0 L 89.0 33.0 L 89.0 74.0 L 77.0 80.0 L 77.0 72.0 L 35.0 72.0 L 35.0 183.0 L 23.0 189.0 L 23.0 19.0 Z M 146.8 175.5 L 162.2 175.5 L 163.2 175.4 L 163.8 175.3 L 164.2 175.1 L 164.5 175.0 L 164.6 174.8 L 164.8 174.6 L 165.0 174.1 L 165.2 173.4 L 165.4 172.3 L 165.5 171.0 L 165.5 72.0 L 123.0 72.0 L 111.0 78.0 L 111.0 19.0 L 123.0 25.0 L 165.5 25.0 L 171.0 20.0 L 181.5 29.0 L 176.5 32.5 L 176.5 171.0 L 176.3 173.4 L 176.0 175.7 L 175.3 178.0 L 174.3 180.1 L 172.9 182.1 L 171.1 183.7 L 169.1 185.0 L 166.9 185.8 L 164.6 186.3 L 162.2 186.5 L 162.2 181.0 L 146.8 178.2 Z M 147.0 169.2 L 145.1 170.7 L 143.1 172.0 L 141.0 173.2 L 138.9 174.1 L 136.6 174.8 L 134.2 175.3 L 131.8 175.6 L 129.4 175.7 L 129.4 169.7 L 109.4 166.7 L 109.4 163.7 L 129.4 163.7 L 130.9 163.6 L 132.2 163.5 L 133.5 163.2 L 134.7 162.8 L 135.9 162.3 L 136.9 161.7 L 138.0 161.0 L 139.0 160.2 L 140.0 159.3 L 140.82608699798584 158.30869569778443 L 141.4 156.3 L 141.8 154.4 L 142.2 151.9 L 142.6 148.8 L 143.0 145.3 L 143.4 141.4 L 143.7 136.9 L 143.85306119918823 134.4 L 113.3434931755066 134.4 L 112.9 138.1 L 100.2 142.6 L 105.2 101.6 L 115.32602739334106 108.2 L 142.2 108.2 L 142.2 90.6 L 105.6 90.6 L 105.6 86.6 L 142.2 86.6 L 147.7 81.6 L 158.2 90.6 L 153.2 94.1 L 153.2 114.2 L 142.2 119.7 L 142.2 112.2 L 116.00445203781128 112.2 L 113.82294521331787 130.4 L 144.0 130.4 L 150.0 125.4 L 161.0 134.4 L 156.0 137.4 L 155.7165828704834 137.51809043884276 L 155.7 137.8 L 155.3 142.4 L 155.0 146.5 L 154.5 150.3 L 154.1 153.6 L 153.6 156.6 L 153.1 159.1 L 152.4 161.4 L 151.6 163.5 L 150.3 165.6 L 148.7 167.5 Z M 84.2 170.1 L 82.3 171.6 L 80.3 172.9 L 78.2 174.0 L 76.0 174.9 L 73.8 175.6 L 71.4 176.1 L 69.0 176.4 L 66.6 176.5 L 66.6 170.5 L 54.6 167.5 L 54.6 164.5 L 66.6 164.5 L 68.1 164.4 L 69.5 164.3 L 70.8 164.0 L 72.0 163.6 L 73.2 163.1 L 74.3 162.6 L 75.3 161.9 L 76.4 161.0 L 77.4 160.1 L 78.4 159.0 L 78.9 158.3 L 79.5 157.1 L 80.2 155.3 L 80.8 153.1 L 81.4 150.5 L 81.9 147.4 L 82.4 143.9 L 82.8 140.0 L 83.1 135.7 L 83.20833330154419 133.1 L 57.79306573867798 133.1 L 57.0 137.2 L 44.1 140.8 L 51.6 101.7 L 60.84691362380981 108.7 L 82.5 108.7 L 82.5 91.1 L 44.9 91.1 L 44.9 87.1 L 82.5 87.1 L 88.5 82.1 L 99.5 91.1 L 94.5 95.1 L 94.5 114.7 L 82.5 120.7 L 82.5 112.7 L 61.739051055908206 112.7 L 58.566788291931154 129.1 L 83.3 129.1 L 89.3 124.1 L 100.3 133.1 L 95.3 136.1 L 95.00461540222167 136.22307691574096 L 95.0 136.3 L 94.7 140.9 L 94.3 145.2 L 93.8 149.2 L 93.2 152.8 L 92.4 156.1 L 91.6 159.2 L 90.5 161.9 L 89.2 164.4 L 87.6 166.7 L 86.0 168.5 Z M 123.0 50.0 L 123.0 68.0 L 165.5 68.0 L 165.5 50.0 Z M 35.0 50.0 L 35.0 68.0 L 77.0 68.0 L 77.0 50.0 Z M 123.0 29.0 L 123.0 46.0 L 165.5 46.0 L 165.5 29.0 Z M 35.0 29.0 L 35.0 46.0 L 77.0 46.0 L 77.0 29.0 Z " />
</g>
</svg>
