<svg xmlns="http://www.w3.org/2000/svg" xmlns:xlink="http://www.w3.org/1999/xlink" version="1.1" baseProfile="full" viewBox="0 0 200 200" width="200" height="200">
<g fill="black">
<path d="M 174.9 110.9 L 174.1 107.6 L 173.2 104.4 L 172.4 101.3 L 171.4 98.4 L 170.5 95.5 L 169.5 92.7 L 169.27833757400512 92.05717887878419 L 167.9 96.7 L 165.8 102.7 L 163.4 108.0 L 160.9 112.8 L 158.0 117.0 L 156.36886224746704 118.73308382034301 L 158.3 123.4 L 162.0 131.5 L 165.9 138.9 L 170.0 145.8 L 174.1 152.1 L 178.5 157.7 L 182.9 162.8 L 187.6 167.3 L 189.0 168.7 L 178.3 176.6 L 173.4 170.9 L 169.0 164.7 L 164.8 158.0 L 161.0 150.7 L 157.5 143.0 L 154.3 134.7 L 152.3 128.41428575515747 L 152.3 183.0 L 140.3 189.0 L 140.3 129.4625 L 136.4 137.1 L 130.9 145.9 L 124.9 154.2 L 118.2 161.8 L 111.0 168.8 L 103.1 175.1 L 94.5 180.7 L 93.5 179.2 L 100.6 172.3 L 101.51666669845581 171.3 L 28.9 171.3 L 28.9 183.3 L 17.9 188.8 L 17.9 30.9 L 28.9 32.9 L 31.7 34.9 L 28.9 36.65 L 28.9 167.3 L 85.6 167.3 L 95.6 157.3 L 106.22992124557496 166.1582676887512 L 107.2 165.1 L 113.2 157.6 L 118.7 149.7 L 123.7 141.5 L 128.1 132.8 L 132.0 123.7 L 135.3 114.2 L 135.76534090042114 112.53806819915772 L 135.3 112.9 L 130.8 112.2 L 128.0 108.6 L 127.8 106.2 L 127.4 103.9 L 127.0 101.4 L 126.5 98.9 L 125.8 96.3 L 125.1 93.6 L 124.3 90.9 L 124.1032154083252 90.26591644287109 L 123.7 91.9 L 121.5 99.3 L 119.0 106.2 L 116.4 112.7 L 113.4 118.8 L 110.1 124.4 L 106.5 129.4 L 104.9 128.5 L 106.7 122.8 L 108.4 116.8 L 110.2 110.5 L 111.8 104.0 L 113.3 97.1 L 114.6 89.9 L 115.8 82.3 L 116.8 74.4 L 117.7 66.0 L 118.23098154067993 58.300768089294436 L 118.2 58.3 L 118.26666669845581 57.78333330154419 L 118.3 57.3 L 118.32863206863404 57.30310182571411 L 118.6 55.2 L 130.3 58.6 L 133.1 60.8 L 129.7017861366272 62.40293111801147 L 128.9 67.5 L 127.4 76.0 L 125.6 84.2 L 125.50104169845581 84.60104169845582 L 126.9 86.0 L 128.9 88.3 L 130.9 90.7 L 134.3 95.5 L 135.8 98.0 L 137.2 100.5 L 138.40350513458253 102.81443300247193 L 140.3 94.15652170181275 L 140.3 48.0 L 107.3 48.0 L 107.3 44.0 L 140.3 44.0 L 140.3 13.0 L 152.3 15.0 L 155.3 17.0 L 152.3 18.8 L 152.3 44.0 L 163.3 44.0 L 173.3 34.0 L 185.3 44.0 L 185.3 48.0 L 152.3 48.0 L 152.3 108.5666666984558 L 154.7 114.7 L 154.73171243667602 114.77663850784302 L 156.0 110.7 L 157.3 105.8 L 158.5 100.4 L 159.7 94.7 L 160.7 88.4 L 161.6 81.6 L 162.4 74.4 L 163.1 66.7 L 163.5397391319275 59.40033111572266 L 163.5 59.4 L 163.8 56.2 L 175.5 59.5 L 178.3 61.7 L 174.99554138183595 63.352229309082034 L 174.4 67.9 L 173.0 75.9 L 171.5 83.4 L 170.38933334350585 87.9079999923706 L 170.8 88.3 L 173.1 90.3 L 175.3 92.7 L 177.3 95.3 L 179.3 98.0 L 181.2 100.9 L 183.0 104.1 L 184.7 107.3 L 186.3 110.8 L 187.8 114.4 L 187.3 118.9 L 183.8 121.8 L 179.2 121.3 L 176.3 117.8 L 175.6 114.3 Z M 52.4 28.6 L 82.4 28.6 L 88.4 23.6 L 99.4 32.6 L 94.4 36.6 L 94.4 77.9 L 82.4 83.9 L 82.4 73.9 L 52.4 73.9 L 52.4 98.4 L 86.8 98.4 L 92.8 93.4 L 103.8 102.4 L 98.8 106.4 L 98.8 150.0 L 86.8 156.0 L 86.8 146.0 L 52.4 146.0 L 52.4 153.0 L 41.4 158.5 L 41.4 23.1 Z M 52.4 102.4 L 52.4 142.0 L 86.8 142.0 L 86.8 102.4 Z M 52.4 32.6 L 52.4 69.9 L 82.4 69.9 L 82.4 32.6 Z " />
</g>
</svg>
