<svg xmlns="http://www.w3.org/2000/svg" xmlns:xlink="http://www.w3.org/1999/xlink" version="1.1" baseProfile="full" viewBox="0 0 200 200" width="200" height="200">
<g fill="black">
<path d="M 35.5 19.0 L 71.9 19.0 L 77.9 14.0 L 88.9 23.0 L 83.9 27.0 L 83.9 56.2 L 71.9 62.2 L 71.9 54.2 L 35.5 54.2 L 35.5 71.8 L 77.0 71.8 L 83.0 66.8 L 94.0 75.8 L 89.0 79.8 L 89.0 114.8 L 77.0 120.8 L 77.0 119.18000001907349 L 76.3 119.6 L 76.3 143.0 L 80.11818180084228 143.0 L 88.3 134.0 L 98.3 143.0 L 98.3 147.0 L 76.3 147.0 L 76.3 182.3 L 64.3 188.3 L 64.3 147.0 L 45.953333377838135 147.0 L 45.0 152.5 L 43.3 159.5 L 41.2 165.8 L 38.7 171.5 L 35.8 176.5 L 32.5 180.8 L 28.7 184.3 L 24.6 186.8 L 20.2 188.4 L 19.3 186.9 L 22.3 183.8 L 24.9 180.5 L 27.2 176.9 L 29.2 172.8 L 30.9 168.2 L 32.3 163.0 L 33.5 157.2 L 34.4 150.9 L 34.674647903442384 147.0 L 12.1 147.0 L 12.1 143.0 L 34.931578922271726 143.0 L 35.2 136.2 L 35.2 120.95 L 23.5 126.8 L 23.5 13.0 Z M 150.4 161.0 L 158.4 161.0 L 159.6 160.9 L 160.5 160.7 L 161.1 160.5 L 161.5 160.4 L 161.7 160.2 L 161.8 160.0 L 162.0 159.7 L 162.2 159.1 L 162.3 158.2 L 162.4 157.0 L 162.4 123.0 L 145.2 123.0 L 145.2 184.0 L 133.2 190.0 L 133.2 123.0 L 116.8 123.0 L 116.8 166.0 L 104.8 172.0 L 104.8 113.91666669845581 L 104.7 114.2 L 103.3 117.6 L 99.5 120.2 L 95.0 119.5 L 92.4 115.7 L 93.1 111.2 L 94.8 109.1 L 96.3 106.9 L 97.6 104.5 L 98.7 102.0 L 99.7 99.3 L 100.5 96.4 L 101.1 93.4 L 101.6 90.1 L 102.0 86.7 L 101.8 83.1 L 103.5 82.7 L 104.7 86.3 L 105.8 89.8 L 106.108571434021 91.0 L 171.6 91.0 L 171.9840000152588 90.68000001907349 L 172.0 90.6 L 172.0530466079712 90.62246112823486 L 177.6 86.0 L 188.6 95.0 L 183.6 98.0 L 180.32542371749878 99.36440677642823 L 180.3 99.4 L 178.7 101.5 L 177.0 103.6 L 173.2 107.8 L 168.8 112.0 L 166.3 114.1 L 164.1 116.5 L 162.7 115.4 L 164.3 112.6 L 165.5 109.7 L 166.7 106.9 L 167.8 104.3 L 168.8 101.7 L 169.6 99.3 L 170.4 97.0 L 171.03636360168457 95.0 L 145.2 95.0 L 145.2 119.0 L 162.4 119.0 L 168.4 114.0 L 179.4 123.0 L 174.4 127.0 L 174.4 157.0 L 174.3 159.5 L 173.8 162.0 L 173.0 164.4 L 171.8 166.7 L 170.1 168.7 L 168.1 170.3 L 165.9 171.6 L 163.5 172.4 L 161.0 172.8 L 158.4 173.0 L 158.4 167.0 L 150.4 164.0 Z M 47.2 136.8 L 46.51951217651367 143.0 L 64.3 143.0 L 64.3 113.8 L 76.3 115.8 L 77.0 116.26666669845581 L 77.0 108.8 L 35.5 108.8 L 35.5 113.85 L 47.2 115.8 L 50.2 117.8 L 47.2 119.6 L 47.2 136.5 L 47.00645160675049 136.79032258987428 Z M 106.89428567886353 95.0 L 107.1 96.8 L 107.3 100.3 L 107.1 103.9 L 106.7 107.4 L 105.9 110.8 L 105.075 113.1375 L 116.8 119.0 L 133.2 119.0 L 133.2 95.0 Z M 35.5 75.8 L 35.5 104.8 L 77.0 104.8 L 77.0 75.8 Z M 175.2 28.0 L 170.2 32.0 L 170.2 47.0 L 172.5777777671814 47.0 L 178.8 40.0 L 186.8 47.0 L 186.8 51.0 L 170.2 51.0 L 170.2 76.0 L 158.2 82.0 L 158.2 74.0 L 109.1 74.0 L 109.1 70.0 L 158.2 70.0 L 158.2 51.0 L 98.3 51.0 L 98.3 47.0 L 158.2 47.0 L 158.2 28.0 L 109.1 28.0 L 109.1 24.0 L 158.2 24.0 L 164.2 19.0 Z M 35.5 23.0 L 35.5 50.2 L 71.9 50.2 L 71.9 23.0 Z " />
</g>
</svg>
