<svg xmlns="http://www.w3.org/2000/svg" xmlns:xlink="http://www.w3.org/1999/xlink" version="1.1" baseProfile="full" viewBox="0 0 200 200" width="200" height="200">
<g fill="black">
<path d="M 176.5 106.0 L 178.6 108.9 L 174.85021114349365 109.62364349365234 L 170.9 118.3 L 164.5 129.8 L 157.3 140.4 L 149.2 150.2 L 140.3 159.0 L 130.6 166.9 L 120.2 173.9 L 108.9 179.9 L 96.9 184.9 L 84.2 188.8 L 83.6 187.1 L 95.4 181.4 L 106.4 175.2 L 116.6 168.4 L 125.9 161.0 L 134.4 152.9 L 142.2 144.1 L 149.1 134.6 L 155.3 124.4 L 160.7 113.5 L 165.3 101.8 L 165.3115385055542 101.80432691574097 L 165.8 100.4 Z M 73.8 165.1 L 69.0 161.5 L 67.3591152191162 160.42711381912233 L 63.2 164.4 L 55.9 170.3 L 47.8 175.6 L 39.0 180.4 L 29.5 184.6 L 19.3 188.1 L 18.6 186.4 L 27.8 181.2 L 36.3 175.8 L 44.1 170.2 L 51.1 164.4 L 57.4 158.3 L 59.732653045654295 155.5856400489807 L 58.3 154.7 L 52.5 151.5 L 46.3 148.3 L 39.7 145.2 L 32.9 142.0 L 25.7 138.8 L 26.2 137.1 L 34.1 138.4 L 41.6 140.1 L 48.7 142.2 L 55.6 144.6 L 62.1 147.1 L 65.3300220489502 148.55871963500977 L 67.7 145.3 L 71.8 138.3 L 75.1 131.1 L 76.37894735336303 127.5 L 22.0 127.5 L 22.0 123.5 L 77.5 123.5 L 83.5 118.5 L 94.5 127.5 L 89.5 130.5 L 87.46014585494996 131.34993925094605 L 85.5 135.8 L 81.0 143.7 L 75.8 151.1 L 74.21355333328248 152.95533590316774 L 74.3 153.0 L 79.9 156.2 L 85.2 159.7 L 90.2 163.3 L 92.2 167.5 L 90.8 171.8 L 86.7 173.8 L 82.4 172.4 L 78.3 168.7 Z M 110.9 119.0 L 130.9 119.0 L 132.1 118.9 L 133.1 118.7 L 133.6 118.5 L 134.0 118.4 L 134.2 118.2 L 134.3 118.0 L 134.5 117.7 L 134.7 117.1 L 134.8 116.2 L 134.9 115.0 L 134.9 14.0 L 146.9 16.0 L 149.9 18.0 L 146.9 19.8 L 146.9 115.0 L 146.8 117.5 L 146.3 120.0 L 145.5 122.4 L 144.3 124.7 L 142.7 126.7 L 140.6 128.3 L 138.4 129.6 L 136.0 130.4 L 133.5 130.8 L 130.9 131.0 L 130.9 125.0 L 110.9 122.0 Z M 60.2 36.8 L 61.4 33.7 L 62.5 30.7 L 63.6 27.9 L 64.6 25.3 L 65.5 22.8 L 66.3 20.4 L 67.0 18.2 L 67.6 16.1 L 67.79604473114014 15.168787574768066 L 67.6 15.1 L 68.5 13.0 L 79.0 19.1 L 80.9 22.2 L 76.30737047195434 22.754282855987547 L 76.2 22.9 L 74.6 25.0 L 72.9 27.0 L 71.1 29.2 L 69.1 31.4 L 67.0 33.6 L 64.7 35.9 L 62.3 38.2 L 62.129629611968994 38.4 L 72.6 38.4 L 82.6 28.4 L 94.6 38.4 L 94.6 42.4 L 68.3 42.4 L 68.3 60.6 L 72.81818180084228 60.6 L 81.0 51.6 L 91.0 60.6 L 91.0 64.6 L 68.3 64.6 L 68.3 82.2 L 72.81818180084228 82.2 L 81.0 73.2 L 91.0 82.2 L 91.0 86.2 L 68.3 86.2 L 68.3 105.6 L 79.91818180084229 105.6 L 88.1 96.6 L 97.77010307312011 105.3030927658081 L 100.0 100.1 L 102.3 94.5 L 104.4 88.9 L 106.3 83.3 L 108.1 77.7 L 109.6 72.1 L 110.8 66.4 L 111.9 60.7 L 112.7 54.9 L 112.77027559280396 54.912401580810545 L 113.1 53.0 L 124.6 57.0 L 127.2 59.5 L 123.58191452026367 60.88145084381104 L 123.0 63.1 L 121.2 69.2 L 119.1 75.1 L 116.8 80.9 L 114.2 86.5 L 111.3 92.1 L 108.2 97.5 L 104.7 102.7 L 100.8 107.7 L 96.6 112.5 L 95.1 111.4 L 95.88947372436523 109.6 L 39.0 109.6 L 27.0 115.6 L 27.0 55.2 L 23.0 59.9 L 18.7 64.4 L 14.0 68.5 L 12.7 67.4 L 15.7 62.0 L 21.5 51.6 L 24.2 46.4 L 26.7 41.1 L 27.0 40.4375 L 27.0 38.4 L 27.922641468048095 38.4 L 29.1 35.8 L 31.2 30.4 L 33.2 24.9 L 35.0 19.3 L 36.340206146240234 14.609278392791747 L 36.3 14.6 L 37.1 12.1 L 48.0 17.3 L 50.3 20.1 L 46.54935874938965 21.0212100982666 L 45.7 23.2 L 43.2 28.9 L 40.4 34.5 L 38.23333330154419 38.4 L 59.29333333969116 38.4 Z M 39.0 86.2 L 39.0 105.6 L 56.3 105.6 L 56.3 86.2 Z M 173.7 84.3 L 172.0 80.3 L 170.1 76.4 L 168.0 72.6 L 165.7 68.7 L 163.3 64.9 L 160.6 61.1 L 157.8 57.2 L 154.9 53.3 L 156.1 51.9 L 160.3 54.7 L 164.3 57.6 L 168.1 60.8 L 171.5 64.2 L 174.8 67.8 L 177.8 71.5 L 180.7 75.4 L 183.2 79.5 L 185.6 83.7 L 187.8 88.0 L 187.6 92.6 L 184.3 95.8 L 179.7 95.6 L 176.6 92.3 L 175.2 88.3 Z M 39.0 64.6 L 39.0 82.2 L 56.3 82.2 L 56.3 64.6 Z M 39.0 42.4 L 39.0 60.6 L 56.3 60.6 L 56.3 42.4 Z " />
</g>
</svg>
