<svg xmlns="http://www.w3.org/2000/svg" xmlns:xlink="http://www.w3.org/1999/xlink" version="1.1" baseProfile="full" viewBox="0 0 200 200" width="200" height="200">
<g fill="black">
<path d="M 14.0 179.1 L 49.0 179.1 L 49.0 112.0 L 61.0 118.0 L 139.0 118.0 L 145.0 113.0 L 156.0 122.0 L 151.0 126.0 L 151.0 179.1 L 164.0 179.1 L 174.0 169.1 L 186.0 179.1 L 186.0 183.1 L 14.0 183.1 Z M 61.0 162.3 L 61.0 179.1 L 139.0 179.1 L 139.0 162.3 Z M 61.0 142.1 L 61.0 158.3 L 139.0 158.3 L 139.0 142.1 Z M 61.0 122.0 L 61.0 138.1 L 139.0 138.1 L 139.0 122.0 Z M 32.0 101.5 L 31.7 105.5 L 31.0 109.3 L 29.8 112.9 L 28.1 116.2 L 25.9 119.1 L 23.2 121.7 L 20.0 123.7 L 15.4 123.6 L 12.2 120.4 L 12.3 115.9 L 15.5 112.6 L 17.3 112.1 L 19.0 111.4 L 20.6 110.2 L 22.3 108.6 L 23.8 106.4 L 25.3 103.8 L 26.5 100.6 L 27.7 96.8 L 28.7 92.6 L 29.1 87.8 L 30.9 87.8 L 31.4 92.6 L 31.682608699798585 95.2 L 94.0 95.2 L 94.0 74.8 L 106.0 76.8 L 109.0 78.8 L 106.0 80.6 L 106.0 95.2 L 171.0 95.2 L 171.6 94.7 L 172.1 93.7 L 172.47513809204102 93.9707181930542 L 177.0 90.2 L 188.0 99.2 L 183.0 102.2 L 177.7384614944458 104.39230766296387 L 176.2 105.7 L 174.0 107.5 L 171.7 109.2 L 169.2 111.0 L 166.5 112.9 L 163.6 114.7 L 160.5 116.5 L 157.5 118.7 L 156.4 117.3 L 158.8 114.6 L 160.8 111.7 L 162.8 109.0 L 164.6 106.4 L 166.2 104.0 L 167.7 101.7 L 169.1 99.5 L 169.26499996185302 99.2 L 31.946511650085448 99.2 Z M 84.0 73.0 L 84.0 77.0 L 32.0 77.0 L 32.0 73.0 L 65.81818180084228 73.0 L 74.0 64.0 Z M 168.0 73.0 L 168.0 77.0 L 116.0 77.0 L 116.0 73.0 L 149.8181818008423 73.0 L 158.0 64.0 Z M 13.4 65.8 L 12.7 61.2 L 15.4 57.5 L 17.3 56.6 L 19.1 55.5 L 20.8 53.9 L 22.4 52.0 L 24.0 49.7 L 25.4 46.9 L 26.6 43.6 L 27.7 39.9 L 28.6 35.8 L 29.1 31.2 L 30.9 31.1 L 31.4 35.8 L 31.706666660308837 38.1 L 94.0 38.1 L 94.0 24.7 L 34.0 24.7 L 34.0 20.7 L 151.8181818008423 20.7 L 160.0 11.7 L 170.0 20.7 L 170.0 24.7 L 106.0 24.7 L 106.0 38.1 L 173.0 38.1 L 173.57391300201417 37.621739101409915 L 173.8 37.0 L 174.1019165992737 37.18173618316651 L 179.0 33.1 L 190.0 42.1 L 185.0 45.1 L 180.87058820724488 46.820588207244874 L 180.8 46.9 L 179.0 48.6 L 177.2 50.4 L 175.4 52.1 L 173.5 53.7 L 171.6 55.2 L 169.6 56.7 L 167.4 58.1 L 165.6 59.8 L 164.3 58.6 L 165.6 56.6 L 166.6 54.3 L 167.6 52.1 L 168.5 49.9 L 169.5 47.7 L 170.4 45.6 L 171.3 43.4 L 171.85714282989503 42.1 L 106.0 42.1 L 106.0 67.8 L 94.0 73.8 L 94.0 42.1 L 32.04285717010498 42.1 L 32.1 44.5 L 31.9 48.5 L 31.2 52.3 L 30.2 55.9 L 28.7 59.3 L 26.8 62.4 L 24.4 65.3 L 21.6 67.8 L 17.1 68.4 Z M 161.0 56.4 L 161.0 60.4 L 116.0 60.4 L 116.0 56.4 L 142.8181818008423 56.4 L 151.0 47.4 Z M 84.0 56.4 L 84.0 60.4 L 37.0 60.4 L 37.0 56.4 L 65.81818180084228 56.4 L 74.0 47.4 Z " />
</g>
</svg>
