<svg xmlns="http://www.w3.org/2000/svg" xmlns:xlink="http://www.w3.org/1999/xlink" version="1.1" baseProfile="full" viewBox="0 0 200 200" width="200" height="200">
<g fill="black">
<path d="M 78.3 76.1 L 79.6 79.4 L 75.95571718215942 79.2115026473999 L 72.8 83.4 L 67.1 90.6 L 61.2 97.5 L 55.0 104.3 L 48.852494621276854 110.54208240509033 L 54.6 111.5 L 57.6 113.5 L 54.6 115.3 L 54.6 182.6 L 42.6 188.6 L 42.6 116.53582086563111 L 41.8 117.3 L 34.7 123.5 L 27.4 129.5 L 19.8 135.1 L 11.7 140.5 L 10.6 139.1 L 17.3 132.3 L 23.8 125.5 L 30.2 118.8 L 36.4 112.0 L 42.3 105.2 L 48.0 98.2 L 53.4 91.2 L 58.6 84.0 L 63.6 76.8 L 67.72105960845947 70.31152315139771 L 67.7 70.3 L 68.0725806236267 69.75806455612182 L 68.3 69.4 L 68.31283693313598 69.40860080718994 L 68.8 68.7 Z M 156.6 184.0 L 147.1 181.5 L 138.4 178.4 L 130.4 174.8 L 123.2 170.7 L 122.68878927230836 170.33256731033325 L 117.7 173.7 L 108.4 178.1 L 98.0 181.6 L 86.3 184.2 L 73.5 185.9 L 73.2 184.1 L 85.4 180.5 L 96.3 176.5 L 105.7 172.1 L 113.6 167.2 L 115.95061292648316 165.31238660812377 L 111.3 161.0 L 106.8 155.3 L 103.4 149.1 L 104.9 148.0 L 109.9 152.5 L 115.2 156.5 L 121.0 160.2 L 121.48030643463134 160.44396514892577 L 125.3 156.1 L 129.1 149.9 L 131.46716413497924 143.8 L 85.6 143.8 L 85.6 139.8 L 132.4083333015442 139.8 L 133.2 136.0 L 133.5 128.1 L 133.5 125.7 L 145.5 128.1 L 148.5 130.1 L 145.0376106262207 132.1774335861206 L 144.4 137.8 L 143.8382022857666 139.8 L 149.6 139.8 L 159.6 129.8 L 166.0538860321045 135.1782382965088 L 166.6 134.6 L 167.8 132.4 L 169.0 130.4 L 170.1 128.6 L 171.0 126.8 L 171.8470588684082 125.2 L 82.98888893127442 125.2 L 83.1 126.2 L 83.1 128.8 L 82.9 131.3 L 82.3 133.7 L 81.4 136.1 L 80.0 138.3 L 78.3 140.3 L 76.2 142.0 L 71.6 142.2 L 68.2 139.2 L 68.0 134.7 L 71.0 131.2 L 72.0 131.2 L 73.0 131.0 L 74.0 130.5 L 75.1 129.7 L 76.2 128.6 L 77.2 127.2 L 78.2 125.3 L 79.2 123.1 L 80.0 120.6 L 80.2 117.8 L 82.0 117.7 L 82.2 120.7 L 82.30714282989501 121.2 L 173.0 121.2 L 174.0448275566101 120.32931032180787 L 174.3 119.5 L 174.68052520751954 119.7995623588562 L 179.0 116.2 L 190.0 125.2 L 185.0 128.2 L 175.5920000076294 132.1199999809265 L 174.3 132.8 L 172.4 133.9 L 170.3 135.1 L 168.1 136.2 L 167.66842107772828 136.52368421554564 L 171.6 139.8 L 171.6 143.8 L 142.71460676193237 143.8 L 141.9 146.7 L 137.9 154.8 L 132.5 162.1 L 129.88336000442504 164.48576002120973 L 134.2 166.3 L 141.7 168.7 L 149.9 170.8 L 158.8 172.4 L 168.5 173.6 L 178.8 174.4 L 189.5 175.3 L 177.7 187.6 L 166.8 186.0 Z M 177.9 79.9 L 172.9 83.9 L 172.9 110.5 L 160.9 116.5 L 160.9 110.5 L 86.6 110.5 L 86.6 106.5 L 160.9 106.5 L 160.9 95.2 L 96.0 95.2 L 96.0 91.2 L 160.9 91.2 L 160.9 79.9 L 86.6 79.9 L 86.6 75.9 L 160.9 75.9 L 166.9 70.9 Z M 13.3 58.1 L 13.0 53.6 L 16.0 50.1 L 17.9 49.5 L 19.6 48.7 L 21.2 47.7 L 22.8 46.4 L 24.2 44.7 L 25.6 42.7 L 26.8 40.2 L 27.9 37.4 L 28.8 34.2 L 29.1 30.6 L 30.9 30.5 L 31.3 34.2 L 31.480555534362793 35.5 L 94.0 35.5 L 94.0 25.6 L 34.0 25.6 L 34.0 21.6 L 151.8181818008423 21.6 L 160.0 12.6 L 170.0 21.6 L 170.0 25.6 L 106.0 25.6 L 106.0 35.5 L 173.0 35.5 L 173.7764705657959 34.8529411315918 L 174.2 33.9 L 174.57706727981568 34.185777282714845 L 179.0 30.5 L 190.0 39.5 L 185.0 42.5 L 179.13012046813964 44.94578313827515 L 178.7 45.3 L 176.9 46.5 L 175.1 47.8 L 173.3 49.0 L 171.3 50.1 L 169.4 51.2 L 167.3 52.2 L 165.6 53.5 L 164.3 52.2 L 165.8 50.6 L 167.8 46.6 L 168.8 44.8 L 169.8 42.9 L 171.5 39.5 L 106.0 39.5 L 106.0 69.1 L 94.0 75.1 L 94.0 39.5 L 31.89714288711548 39.5 L 32.0 41.3 L 31.7 44.6 L 31.0 47.8 L 30.0 50.9 L 28.4 53.8 L 26.5 56.4 L 24.1 58.8 L 21.3 60.9 L 16.7 61.1 Z M 167.0 54.8 L 167.0 58.8 L 115.0 58.8 L 115.0 54.8 L 148.8181818008423 54.8 L 157.0 45.8 Z M 86.0 54.8 L 86.0 58.8 L 34.0 58.8 L 34.0 54.8 L 64.0 54.8 L 74.0 44.8 Z " />
</g>
</svg>
