<svg xmlns="http://www.w3.org/2000/svg" xmlns:xlink="http://www.w3.org/1999/xlink" version="1.1" baseProfile="full" viewBox="0 0 200 200" width="200" height="200">
<g fill="black">
<path d="M 84.0 69.5 L 84.0 73.5 L 58.172727298736575 73.5 L 65.9 78.5 L 67.6 81.6 L 63.972503662109375 81.8501721382141 L 61.7 85.8 L 57.2 92.9 L 52.6 99.8 L 47.8 106.6 L 42.7 113.2 L 42.6514874458313 113.25858125686645 L 47.7 114.1 L 50.7 116.1 L 47.7 117.9 L 47.7 184.7 L 35.7 190.7 L 35.7 121.51636362075806 L 31.9 125.8 L 26.2 131.8 L 20.1 137.4 L 13.8 142.8 L 12.5 141.5 L 22.1 128.3 L 26.8 121.7 L 31.4 115.0 L 35.8 108.2 L 40.0 101.4 L 44.1 94.5 L 48.0 87.4 L 51.7 80.3 L 54.757224559783936 73.9235029220581 L 54.7 73.9 L 54.9 73.5 L 32.0 73.5 L 32.0 69.5 L 65.81818180084228 69.5 L 74.0 60.5 Z M 168.1 177.2 L 163.3 174.0 L 158.8 170.6 L 154.6 167.1 L 150.6 163.3 L 146.9 159.4 L 143.4 155.2 L 140.4 150.8 L 138.22608699798585 146.8 L 138.0 146.8 L 138.0 184.1 L 126.0 190.1 L 126.0 155.0 L 123.4 157.6 L 118.4 161.9 L 113.0 165.9 L 107.0 169.6 L 100.6 173.0 L 93.8 176.2 L 86.4 178.9 L 78.6 181.3 L 70.2 183.3 L 69.7 181.6 L 77.2 177.8 L 84.3 174.0 L 90.8 170.3 L 96.9 166.5 L 102.4 162.6 L 107.3 158.5 L 111.8 154.4 L 115.7 150.2 L 118.38837213516236 146.8 L 83.0 146.8 L 83.0 142.8 L 126.0 142.8 L 126.0 127.3 L 138.0 129.3 L 141.0 131.3 L 138.0 133.1 L 138.0 142.8 L 163.0 142.8 L 170.964661693573 134.835338306427 L 165.1 133.2 L 155.6 129.9 L 146.8 126.3 L 139.0 122.4 L 135.8033528327942 120.50902557373047 L 132.5 122.3 L 123.4 126.3 L 113.5 129.7 L 102.8 132.6 L 91.4 134.8 L 79.1 136.5 L 78.8 134.7 L 90.5 131.1 L 101.3 127.4 L 111.2 123.5 L 120.3 119.3 L 127.8191933631897 115.12267036437989 L 125.8 113.6 L 120.6 108.7 L 116.4 103.4 L 113.3 97.8 L 112.70712747573853 95.8896327972412 L 110.5 99.1 L 106.8 103.7 L 102.7 108.1 L 98.3 112.3 L 93.5 116.2 L 88.2 119.8 L 82.5 123.1 L 81.4 121.7 L 85.7 116.9 L 89.8 112.3 L 93.5 107.7 L 96.9 103.2 L 100.0 98.6 L 102.7 94.1 L 105.0 89.4 L 107.0 84.8 L 108.6 80.1 L 109.64813051223754 76.3106050491333 L 109.6 76.3 L 110.4 73.8 L 121.4 78.9 L 123.7 81.7 L 119.8446738243103 82.64692220687866 L 119.2 84.2 L 116.7 89.4 L 161.0 89.4 L 171.0 79.4 L 183.0 89.4 L 183.0 93.4 L 166.91612901687623 93.4 L 166.1 94.5 L 161.0 101.2 L 155.1 107.3 L 148.3 112.8 L 146.1215189933777 114.25232067108155 L 150.9 116.1 L 159.3 118.7 L 168.4 121.1 L 178.4 123.2 L 187.3 125.2 L 176.19244375228882 135.46036977767943 L 185.0 142.8 L 185.0 146.8 L 141.81999998092653 146.8 L 143.5 148.0 L 151.7 154.0 L 155.9 156.9 L 160.1 159.6 L 164.6 162.2 L 169.1 164.6 L 173.8 166.9 L 178.7 169.1 L 183.7 171.1 L 189.6 173.8 L 178.2 183.2 L 173.0 180.3 Z M 74.4 101.6 L 77.4 103.6 L 74.4 105.4 L 74.4 165.6 L 62.4 171.6 L 62.4 99.6 Z M 115.0 93.4 L 116.8 95.6 L 120.9 99.6 L 125.5 103.3 L 130.7 106.9 L 136.03099822998047 109.83204908370972 L 142.0 105.0 L 147.5 99.7 L 152.1 94.1 L 152.5148148536682 93.4 Z M 13.4 62.7 L 12.8 58.2 L 15.5 54.5 L 17.4 53.7 L 19.2 52.6 L 20.9 51.2 L 22.5 49.5 L 24.0 47.3 L 25.4 44.6 L 26.6 41.6 L 27.7 38.1 L 28.7 34.2 L 29.1 29.8 L 30.9 29.8 L 31.4 34.2 L 31.6930233001709 36.3 L 94.0 36.3 L 94.0 23.7 L 34.0 23.7 L 34.0 19.7 L 151.8181818008423 19.7 L 160.0 10.7 L 170.0 19.7 L 170.0 23.7 L 106.0 23.7 L 106.0 36.3 L 173.0 36.3 L 173.6300000190735 35.775 L 173.9 35.1 L 174.2067491531372 35.29437570571899 L 179.0 31.3 L 190.0 40.3 L 185.0 43.3 L 180.37142858505248 45.22857141494751 L 179.0 46.6 L 177.2 48.2 L 175.3 49.8 L 173.5 51.3 L 171.5 52.8 L 169.5 54.2 L 167.4 55.5 L 165.6 57.1 L 164.3 55.9 L 165.7 53.9 L 166.6 51.7 L 167.6 49.6 L 168.6 47.4 L 169.6 45.3 L 170.5 43.3 L 171.4 41.2 L 171.80500001907347 40.3 L 106.0 40.3 L 106.0 76.4 L 94.0 82.4 L 94.0 40.3 L 32.04499998092651 40.3 L 32.1 42.5 L 31.8 46.3 L 31.2 50.0 L 30.2 53.5 L 28.7 56.7 L 26.7 59.8 L 24.4 62.5 L 21.6 64.9 L 17.0 65.4 Z M 168.0 69.5 L 168.0 73.5 L 116.0 73.5 L 116.0 69.5 L 149.8181818008423 69.5 L 158.0 60.5 Z M 161.0 53.7 L 161.0 57.7 L 116.0 57.7 L 116.0 53.7 L 142.8181818008423 53.7 L 151.0 44.7 Z M 84.0 53.7 L 84.0 57.7 L 37.0 57.7 L 37.0 53.7 L 65.81818180084228 53.7 L 74.0 44.7 Z " />
</g>
</svg>
