<svg xmlns="http://www.w3.org/2000/svg" xmlns:xlink="http://www.w3.org/1999/xlink" version="1.1" baseProfile="full" viewBox="0 0 200 200" width="200" height="200">
<g fill="black">
<path d="M 90.3 123.7 L 93.0 122.88999996185302 L 93.0 108.3 L 105.0 110.3 L 108.0 112.3 L 105.0 114.1 L 105.0 119.25 L 105.8 119.0 L 112.4 117.2 L 115.8 116.4 L 119.3 115.6 L 122.8 114.6 L 123.5 116.2 L 120.5 118.1 L 117.6 120.3 L 114.7 122.3 L 111.8 124.2 L 109.0 126.1 L 106.2 127.9 L 103.4 129.6 L 100.7 131.4 L 99.00526313781738 132.36842107772827 L 98.41666669845581 135.9 L 150.0 135.9 L 156.0 130.9 L 167.0 139.9 L 162.0 143.9 L 162.0 181.9 L 150.0 187.9 L 150.0 177.9 L 89.9 177.9 L 89.9 184.9 L 77.9 190.9 L 77.9 129.9 L 89.9 135.9 L 97.19473686218262 135.9 L 95.3 134.7 L 88.5 124.6 Z M 32.9 186.9 L 28.9 184.7 L 27.5 180.3 L 28.1 176.4 L 28.3 172.8 L 28.1 169.6 L 27.6 166.7 L 26.7 164.0 L 25.5 161.5 L 24.929565238952637 160.73942031860352 L 24.5 160.6 L 24.630000019073485 160.33999996185304 L 23.7 159.1 L 21.5 156.8 L 18.7 154.6 L 15.1 152.9 L 15.6 151.1 L 19.7 151.9 L 23.6 153.0 L 27.3 154.7 L 27.64315242767334 154.94664087295533 L 29.2 152.3 L 31.7 148.3 L 34.6 143.6 L 38.1 138.2 L 42.0 132.1 L 46.5 125.3 L 51.6 117.8 L 57.3 109.7 L 58.9 110.6 L 54.9 119.7 L 51.2 127.9 L 47.8 135.2 L 44.7 141.8 L 42.1 147.6 L 39.9 152.6 L 38.2 156.8 L 36.9 160.2 L 36.1 162.8 L 35.936206912994386 164.02844829559325 L 37.4 167.2 L 38.6 171.6 L 39.3 176.3 L 39.5 181.4 L 37.3 185.4 Z M 89.9 158.9 L 89.9 173.9 L 150.0 173.9 L 150.0 158.9 Z M 89.9 139.9 L 89.9 154.9 L 150.0 154.9 L 150.0 139.9 Z M 179.21176471710206 106.6 L 151.33432836532592 106.6 L 151.2 106.9 L 150.34463844299316 108.39077310562134 L 161.8 110.3 L 164.8 112.3 L 161.8 114.1 L 161.8 119.5 L 161.9 120.4 L 162.0 121.1 L 162.2 121.9 L 162.4 122.2 L 162.8 122.5 L 163.5 122.8 L 164.5 123.1 L 165.8 123.3 L 174.3 123.3 Z M 120.3 82.3 L 120.3 86.3 L 98.25249996185303 86.3 L 96.7 93.2 L 94.4 100.5 L 93.52238807678222 102.6 L 99.31818180084228 102.6 L 107.5 93.6 L 117.5 102.6 L 117.5 106.6 L 91.85074625015258 106.6 L 91.6 107.2 L 88.4 113.3 L 84.7 118.6 L 80.6 123.2 L 76.1 127.1 L 71.1 130.0 L 65.8 132.1 L 60.2 133.2 L 59.7 131.5 L 64.2 128.7 L 68.2 125.5 L 71.7 122.1 L 74.9 118.2 L 77.7 113.9 L 80.2 108.9 L 81.09444446563721 106.6 L 73.32790699005128 106.6 L 72.7 108.4 L 59.4 110.1 L 67.78299598693847 86.3 L 63.5 86.3 L 63.5 82.3 L 109.8 82.3 L 114.3 76.3 Z M 28.3 121.6 L 27.6 120.4 L 26.5 119.1 L 25.1 117.7 L 23.4 116.3 L 21.5 114.8 L 19.2 113.3 L 16.8 111.7 L 13.9 110.7 L 14.4 108.9 L 17.4 109.5 L 20.5 109.8 L 23.3 110.1 L 26.0 110.6 L 28.5 111.3 L 30.9 112.0 L 33.1 112.9 L 35.2 114.0 L 37.1 115.3 L 38.9 116.9 L 39.8 121.4 L 37.3 125.2 L 32.9 126.1 L 29.0 123.7 L 28.8 122.7 Z M 128.86551723480224 85.6 L 139.1 91.2 L 141.3 94.1 L 137.81848735809325 94.87366943359375 L 135.12325582504272 102.6 L 142.09677419662475 102.6 L 144.0 96.7 L 145.7 89.9 L 146.45079364776612 85.6 Z M 69.7448275566101 86.3 L 78.7 91.2 L 80.9 94.1 L 77.41848735809326 94.87366943359375 L 74.72325582504273 102.6 L 82.5655737876892 102.6 L 84.1 97.4 L 85.6 90.7 L 86.21875 86.3 Z M 39.1 92.7 L 38.2 91.4 L 37.1 90.1 L 35.8 88.7 L 34.2 87.3 L 32.4 85.8 L 30.3 84.3 L 28.1 82.8 L 25.4 81.7 L 25.9 80.0 L 28.8 80.6 L 31.6 80.8 L 34.3 81.2 L 36.9 81.7 L 39.3 82.4 L 41.6 83.1 L 43.8 84.0 L 45.8 85.1 L 47.8 86.3 L 49.5 87.8 L 50.7 92.2 L 48.4 96.2 L 44.0 97.3 L 40.0 95.0 L 39.6 93.9 Z M 13.3 60.9 L 12.9 56.3 L 15.7 52.7 L 17.6 52.0 L 19.4 51.1 L 21.0 49.8 L 22.6 48.2 L 24.1 46.2 L 25.5 43.9 L 26.7 41.0 L 27.8 37.8 L 28.7 34.2 L 29.1 30.1 L 30.9 30.1 L 31.4 34.2 L 31.625 36.0 L 94.0 36.0 L 94.0 24.5 L 34.0 24.5 L 34.0 20.5 L 151.8181818008423 20.5 L 160.0 11.5 L 170.0 20.5 L 170.0 24.5 L 106.0 24.5 L 106.0 36.0 L 173.0 36.0 L 173.66000003814696 35.45 L 174.0 34.6 L 174.37525081634521 34.853957653045654 L 179.0 31.0 L 190.0 40.0 L 185.0 43.0 L 179.96448602676392 45.098130798339845 L 178.9 46.1 L 177.1 47.5 L 175.3 49.0 L 173.4 50.4 L 169.4 53.0 L 167.4 54.2 L 165.6 55.6 L 164.3 54.4 L 165.7 52.6 L 167.7 48.4 L 168.7 46.4 L 169.6 44.4 L 170.6 42.4 L 171.5 40.4 L 171.68947372436523 40.0 L 106.0 40.0 L 106.0 69.0 L 94.0 75.0 L 94.0 40.0 L 31.94736843109131 40.0 L 32.0 42.0 L 31.8 45.6 L 31.1 49.1 L 30.1 52.4 L 28.6 55.6 L 26.6 58.4 L 24.3 61.0 L 21.4 63.3 L 16.9 63.7 Z M 168.0 67.1 L 168.0 71.1 L 116.0 71.1 L 116.0 67.1 L 157.5 67.1 L 162.0 61.1 Z M 84.0 67.1 L 84.0 71.1 L 32.0 71.1 L 32.0 67.1 L 69.77777776718139 67.1 L 76.0 60.1 Z M 161.0 52.3 L 161.0 56.3 L 116.0 56.3 L 116.0 52.3 L 142.8181818008423 52.3 L 151.0 43.3 Z M 84.0 52.3 L 84.0 56.3 L 37.0 56.3 L 37.0 52.3 L 65.81818180084228 52.3 L 74.0 43.3 Z M 184.3 128.3 L 182.3 131.3 L 179.3 133.3 L 165.8 133.3 L 163.4 133.2 L 161.0 132.9 L 158.6 132.2 L 156.4 131.1 L 154.4 129.6 L 152.8 127.8 L 151.5 125.6 L 150.6 123.3 L 150.1 120.8 L 149.8 118.3 L 149.8 109.33999996185302 L 147.7 113.0 L 143.8 118.2 L 139.5 122.7 L 134.7 126.4 L 129.6 129.2 L 124.1 131.0 L 118.4 131.8 L 118.0 130.1 L 122.7 127.5 L 126.9 124.6 L 130.6 121.3 L 134.0 117.5 L 137.0 113.2 L 139.6 108.3 L 140.3555555343628 106.6 L 133.72790699005128 106.6 L 133.1 108.4 L 119.8 110.1 L 128.4295546531677 85.6 L 122.4 85.6 L 122.4 81.6 L 158.9181818008423 81.6 L 167.1 72.6 L 177.1 81.6 L 177.1 85.6 L 158.6555555343628 85.6 L 156.7 92.8 L 154.2 100.2 L 153.12537317276002 102.6 L 161.11818180084228 102.6 L 169.3 93.6 L 179.3 102.6 L 179.3 106.3 L 181.3 106.3 L 179.3 123.3 L 182.3 125.3 Z " />
</g>
</svg>
