<svg xmlns="http://www.w3.org/2000/svg" xmlns:xlink="http://www.w3.org/1999/xlink" version="1.1" baseProfile="full" viewBox="0 0 200 200" width="200" height="200">
<g fill="black">
<path d="M 64.7 176.0 L 76.7 176.0 L 78.0 175.9 L 78.9 175.7 L 79.8 175.4 L 80.0 175.2 L 80.1 175.0 L 80.3 174.7 L 80.5 174.1 L 80.7 173.2 L 80.7 141.0 L 35.6 141.0 L 35.6 182.0 L 23.6 188.0 L 23.6 92.0 L 35.6 98.0 L 80.7 98.0 L 86.7 93.0 L 97.7 102.0 L 92.7 106.0 L 92.7 172.0 L 92.6 174.5 L 92.1 177.0 L 91.3 179.4 L 90.1 181.7 L 88.5 183.7 L 86.4 185.3 L 84.2 186.6 L 81.8 187.4 L 79.3 187.8 L 76.7 188.0 L 76.7 182.0 L 64.7 179.0 Z M 128.8 159.3 L 128.3 162.8 L 128.5 165.3 L 129.2 167.0 L 130.4 168.4 L 132.5 169.7 L 135.8 170.9 L 140.5 171.7 L 146.4 172.0 L 175.7 172.0 L 181.7 147.0 L 183.7 147.0 L 181.7 172.0 L 185.3 174.4 L 187.7 178.0 L 185.3 181.6 L 181.7 184.0 L 146.4 184.0 L 139.3 183.6 L 132.9 182.5 L 127.3 180.6 L 122.6 177.5 L 118.9 173.2 L 116.8 168.0 L 116.3 162.4 L 117.2 156.5 L 119.1 150.4 L 122.1 143.9 L 149.65810565948487 91.0 L 112.6 91.0 L 112.6 87.0 L 151.5 87.0 L 157.5 82.0 L 168.5 91.0 L 163.5 94.0 L 160.40090856552123 95.2912880897522 L 132.8 149.4 L 130.3 154.8 Z M 35.6 102.0 L 35.6 137.0 L 52.2 137.0 L 52.2 102.0 Z M 64.2 102.0 L 64.2 137.0 L 80.7 137.0 L 80.7 102.0 Z M 13.2 78.0 L 53.0 78.0 L 53.0 60.0 L 21.8 60.0 L 21.8 56.0 L 53.0 56.0 L 53.0 38.0 L 17.5 38.0 L 17.5 34.0 L 53.0 34.0 L 53.0 13.0 L 65.0 15.0 L 68.0 17.0 L 65.0 18.8 L 65.0 34.0 L 76.8 34.0 L 86.8 24.0 L 98.8 34.0 L 98.8 38.0 L 65.0 38.0 L 65.0 56.0 L 76.31818180084228 56.0 L 84.5 47.0 L 94.5 56.0 L 94.5 60.0 L 65.0 60.0 L 65.0 78.0 L 86.71818180084229 78.0 L 94.9 69.0 L 104.9 78.0 L 104.9 81.28125 L 105.9 79.0 L 109.0 71.6 L 112.0 64.1 L 114.9 56.3 L 117.6 48.4 L 120.1 40.3 L 122.4 31.9 L 124.5 23.3 L 126.4 14.5 L 126.4211000442505 14.50504961013794 L 126.8 12.8 L 138.1 17.3 L 140.5 20.0 L 137.0082076072693 21.07928123474121 L 135.5 26.3 L 132.6 35.0 L 129.6 43.5 L 126.3 51.6 L 126.11999998092651 52.0 L 161.2 52.0 L 171.2 42.0 L 183.2 52.0 L 183.2 56.0 L 124.31999998092651 56.0 L 122.7 59.6 L 119.0 67.2 L 114.9 74.5 L 110.6 81.5 L 105.9 88.2 L 100.9 94.4 L 99.4 93.5 L 102.7 86.3 L 104.58493146896362 82.0 L 13.2 82.0 Z " />
</g>
</svg>
