<svg xmlns="http://www.w3.org/2000/svg" xmlns:xlink="http://www.w3.org/1999/xlink" version="1.1" baseProfile="full" viewBox="0 0 200 200" width="200" height="200">
<g fill="black">
<path d="M 55.7 119.0 L 58.7 121.0 L 55.7 122.8 L 55.7 132.0 L 59.81818180084228 132.0 L 68.0 123.0 L 78.0 132.0 L 78.0 136.0 L 55.7 136.0 L 55.7 159.0 L 59.5 159.0 L 69.5 149.0 L 81.5 159.0 L 81.5 163.0 L 55.7 163.0 L 55.7 184.0 L 43.7 190.0 L 43.7 163.0 L 26.41528387069702 163.0 L 25.7 166.9 L 12.9 170.7 L 18.5 139.9 L 29.9 144.0 L 32.5 146.5 L 29.262215423583985 147.47744436264037 L 27.14890832901001 159.0 L 43.7 159.0 L 43.7 136.0 L 22.1 136.0 L 22.1 132.0 L 43.7 132.0 L 43.7 117.0 Z M 147.4 181.1 L 133.9 177.7 L 121.8 172.3 L 111.2 165.1 L 102.2 156.2 L 98.62880191802978 150.9655041694641 L 94.0 159.6 L 88.4 168.2 L 82.1 175.6 L 75.3 181.8 L 68.0 186.7 L 66.9 185.2 L 72.7 179.1 L 78.0 172.2 L 82.9 164.5 L 87.3 156.0 L 91.4 146.5 L 93.1020359992981 141.58300704956054 L 89.3 133.3 L 85.4 119.4 L 83.3 104.1 L 85.0 103.8 L 89.4 118.3 L 94.7 130.9 L 95.88875741958618 132.90602807998658 L 98.2 124.6 L 100.9 112.2 L 103.2 98.7 L 104.65241374969483 87.0 L 94.85853662490845 87.0 L 94.5 88.4 L 81.3 91.1 L 97.25990180969238 32.0 L 78.8 32.0 L 78.8 28.0 L 98.0 28.0 L 104.0 23.0 L 115.0 32.0 L 110.0 35.0 L 107.95767917633057 35.85096702575684 L 95.88292684555054 83.0 L 105.0 83.0 L 111.0 78.0 L 122.0 87.0 L 117.0 90.0 L 116.11677694320679 90.36800966262817 L 114.4 100.6 L 111.4 114.5 L 107.9 127.3 L 103.8 139.1 L 102.1482551574707 142.97800970077515 L 108.4 150.6 L 116.9 157.7 L 126.4 163.2 L 137.2 167.1 L 149.2 169.5 L 162.6 170.2 L 177.4 169.4 L 188.1 168.4 L 178.5 182.5 L 162.3 182.7 Z M 151.9 16.1 L 154.7 18.1 L 151.9 19.85 L 151.9 33.2 L 164.1 33.2 L 169.6 28.2 L 180.1 37.2 L 175.1 40.7 L 175.1 58.3 L 177.1 58.3 L 181.6 52.3 L 187.6 58.3 L 187.6 62.3 L 175.1 62.3 L 175.1 91.4 L 164.1 96.9 L 164.1 87.4 L 151.9 87.4 L 151.9 111.6 L 158.6 111.6 L 168.6 101.6 L 180.6 111.6 L 180.6 115.6 L 151.9 115.6 L 151.9 136.7 L 163.7 136.7 L 173.7 126.7 L 185.7 136.7 L 185.7 140.7 L 151.9 140.7 L 151.9 161.1 L 140.9 166.6 L 140.9 140.7 L 112.3 140.7 L 112.3 136.7 L 140.9 136.7 L 140.9 115.6 L 116.8 115.6 L 116.8 111.6 L 140.9 111.6 L 140.9 87.4 L 122.0 87.4 L 122.0 83.4 L 140.9 83.4 L 140.9 62.3 L 109.1 62.3 L 109.1 58.3 L 140.9 58.3 L 140.9 37.2 L 122.0 37.2 L 122.0 33.2 L 140.9 33.2 L 140.9 14.1 Z M 34.3 80.0 L 59.6 80.0 L 65.6 75.0 L 76.6 84.0 L 71.6 88.0 L 71.6 114.0 L 59.6 120.0 L 59.6 110.0 L 34.3 110.0 L 34.3 117.0 L 22.3 123.0 L 22.3 74.0 Z M 34.3 84.0 L 34.3 106.0 L 59.6 106.0 L 59.6 84.0 Z M 151.9 62.3 L 151.9 83.4 L 164.1 83.4 L 164.1 62.3 Z M 12.5 62.0 L 30.772727298736573 62.0 L 34.04545450210571 38.0 L 18.0 38.0 L 18.0 34.0 L 34.59090909957886 34.0 L 37.7 11.2 L 49.3 14.7 L 52.0 17.1 L 48.84041776657104 18.13294038772583 L 46.71622714996338 34.0 L 56.8 34.0 L 62.8 29.0 L 73.8 38.0 L 68.8 42.0 L 68.8 62.0 L 71.0 62.0 L 75.5 56.0 L 81.5 62.0 L 81.5 66.0 L 12.5 66.0 Z M 46.18073024749756 38.0 L 42.96774845123291 62.0 L 56.8 62.0 L 56.8 38.0 Z M 151.9 37.2 L 151.9 58.3 L 164.1 58.3 L 164.1 37.2 Z " />
</g>
</svg>
