<svg xmlns="http://www.w3.org/2000/svg" xmlns:xlink="http://www.w3.org/1999/xlink" version="1.1" baseProfile="full" viewBox="0 0 200 200" width="200" height="200">
<g fill="black">
<path d="M 49.9 161.3 L 51.1 164.7 L 47.05076923370361 164.35092840194702 L 44.2 167.3 L 41.0 170.3 L 37.6 173.1 L 34.0 175.9 L 30.2 178.7 L 26.2 181.4 L 21.9 183.9 L 17.4 186.3 L 12.6 188.7 L 11.6 187.2 L 15.3 183.6 L 18.9 180.0 L 22.3 176.5 L 25.5 173.2 L 28.5 169.9 L 31.2 166.6 L 33.8 163.5 L 36.2 160.3 L 38.3 157.2 L 39.667273139953615 155.0411476135254 L 39.6 155.0 L 40.08125 154.3875 L 40.2 154.2 L 40.21813936233521 154.21327724456788 L 40.7 153.6 Z M 100.6 74.4 L 94.5 81.5 L 88.0 88.5 L 86.5 87.4 L 91.5 79.3 L 96.2 71.4 L 100.6 63.7 L 104.7 56.2 L 108.4 48.9 L 111.8 41.7 L 114.9 34.6 L 117.5 27.6 L 119.8 20.8 L 121.41545238494874 15.103404808044434 L 121.4 15.1 L 121.54426231384278 14.64918031692505 L 121.7 14.1 L 121.71817893981934 14.10569076538086 L 122.2 12.6 L 133.2 17.7 L 135.5 20.5 L 131.7662790298462 21.417054271698 L 130.5 24.7 L 127.4 31.7 L 127.25633802413941 32.0 L 151.5 32.0 L 157.5 27.0 L 168.5 36.0 L 163.5 39.0 L 160.97755098342896 40.05102043151855 L 159.6 42.5 L 157.7 45.6 L 155.8 48.8 L 153.8 51.9 L 151.7 55.1 L 147.1 61.3 L 144.5 64.3 L 143.9354838371277 65.0 L 164.3 65.0 L 174.3 55.0 L 186.3 65.0 L 186.3 69.0 L 115.3 69.0 L 115.3 101.0 L 114.7 113.4 L 113.6 125.1 L 111.9 135.9 L 109.7 146.0 L 107.0 155.3 L 103.6 163.8 L 99.6 171.4 L 95.1 178.1 L 89.9 183.9 L 84.2 188.6 L 83.1 187.3 L 87.3 181.6 L 91.0 175.4 L 94.3 168.7 L 97.1 161.2 L 99.5 153.1 L 101.4 144.2 L 102.9 134.5 L 103.8 124.1 L 104.3 112.9 L 104.3 69.62363634109497 Z M 136.9 166.0 L 137.0 167.2 L 137.2 168.2 L 137.4 168.8 L 137.7 169.2 L 137.9 169.4 L 138.2 169.5 L 138.6 169.7 L 139.2 169.8 L 140.1 169.9 L 141.4 170.0 L 176.7 170.0 L 182.7 145.0 L 184.7 145.0 L 182.7 170.0 L 186.2 172.4 L 188.7 176.0 L 186.2 179.6 L 182.7 182.0 L 141.4 182.0 L 138.8 181.8 L 136.3 181.3 L 133.9 180.4 L 131.7 179.2 L 129.8 177.5 L 128.2 175.5 L 127.1 173.3 L 126.3 170.9 L 125.9 168.5 L 125.9 87.5 L 136.9 93.0 L 160.5 93.0 L 166.5 88.0 L 177.5 97.0 L 172.5 101.0 L 172.5 133.0 L 172.3 135.5 L 171.9 138.0 L 171.1 140.4 L 169.8 142.7 L 168.2 144.7 L 166.2 146.3 L 163.9 147.6 L 161.5 148.4 L 159.0 148.8 L 156.5 149.0 L 156.5 143.0 L 136.9 140.06000003814697 Z M 74.8 173.4 L 73.7 171.4 L 72.2 169.3 L 70.5 167.1 L 68.5 164.8 L 66.3 162.5 L 63.7 160.0 L 61.0 157.5 L 57.8 155.2 L 58.6 153.6 L 62.3 155.2 L 66.0 156.5 L 69.4 158.0 L 72.5 159.6 L 75.5 161.3 L 78.2 163.0 L 80.7 165.0 L 83.0 167.0 L 85.1 169.2 L 86.9 171.5 L 87.3 176.0 L 84.5 179.6 L 79.9 180.0 L 76.4 177.2 L 75.7 175.3 Z M 93.2 26.0 L 93.2 30.0 L 61.46956520080566 30.0 L 61.3 30.3 L 57.9 36.1 L 56.0 38.9 L 54.1 41.6 L 52.1 44.3 L 50.0 46.9 L 47.9 49.4 L 45.6 51.8 L 43.20869569778442 54.0 L 71.6 54.0 L 77.6 49.0 L 88.6 58.0 L 83.6 62.0 L 83.6 144.0 L 71.6 150.0 L 71.6 144.0 L 35.3 144.0 L 35.3 147.0 L 23.3 153.0 L 23.3 48.0 L 35.3 54.0 L 40.15 54.0 L 40.9 52.6 L 42.0 49.5 L 43.2 46.5 L 44.3 43.5 L 45.4 40.6 L 46.5 37.6 L 47.5 34.6 L 48.4 31.7 L 48.96666669845581 30.0 L 15.2 30.0 L 15.2 26.0 L 71.2 26.0 L 81.2 16.0 Z M 35.3 115.0 L 35.3 140.0 L 71.6 140.0 L 71.6 115.0 Z M 35.3 87.0 L 35.3 111.0 L 71.6 111.0 L 71.6 87.0 Z M 35.3 58.0 L 35.3 83.0 L 71.6 83.0 L 71.6 58.0 Z M 125.34084510803223 36.0 L 124.0 38.8 L 120.1 45.9 L 115.9 53.0 L 111.2 60.1 L 109.70923080444337 62.20461540222168 L 115.3 65.0 L 141.06756753921508 65.0 L 141.9 62.8 L 143.1 59.1 L 145.5 51.9 L 146.7 48.5 L 147.9 45.0 L 148.9 41.6 L 150.0 38.3 L 150.6969696998596 36.0 Z M 136.9 97.0 L 136.9 137.0 L 156.5 137.0 L 157.7 136.9 L 158.6 136.7 L 159.5 136.4 L 159.9 136.0 L 160.2 135.1 L 160.4 134.2 L 160.5 133.0 L 160.5 97.0 Z " />
</g>
</svg>
