<svg xmlns="http://www.w3.org/2000/svg" xmlns:xlink="http://www.w3.org/1999/xlink" version="1.1" baseProfile="full" viewBox="0 0 200 200" width="200" height="200">
<g fill="black">
<path d="M 133.1 135.8 L 166.5 135.8 L 172.5 130.8 L 183.5 139.8 L 178.5 143.8 L 178.5 158.0 L 166.5 164.0 L 166.5 158.0 L 133.1 158.0 L 121.1 164.0 L 121.1 129.8 Z M 133.1 139.8 L 133.1 154.0 L 166.5 154.0 L 166.5 139.8 Z M 176.7 123.6 L 176.7 127.6 L 122.9 127.6 L 122.9 123.6 L 162.4777777671814 123.6 L 168.7 116.6 Z M 43.0 80.0 L 43.0 120.0 L 50.0 120.0 L 50.0 80.0 Z M 58.0 80.0 L 58.0 120.0 L 64.0 120.0 L 64.0 80.0 Z M 176.7 111.3 L 176.7 115.3 L 122.9 115.3 L 122.9 111.3 L 162.4777777671814 111.3 L 168.7 104.3 Z M 184.2 98.1 L 184.2 102.1 L 115.4 102.1 L 115.4 98.1 L 169.9777777671814 98.1 L 176.2 91.1 Z M 172.5 85.8 L 172.5 89.8 L 127.1 89.8 L 127.1 85.8 L 154.3181818008423 85.8 L 162.5 76.8 Z M 114.4 54.1 L 114.4 81.58000001907348 L 117.0 79.5 L 120.1 76.6 L 122.8 73.7 L 125.2 70.7 L 127.4 67.6 L 129.2 64.4 L 130.8 61.2 L 132.1 57.8 L 133.1 54.2 L 133.11904764175415 54.1 Z M 162.5 75.5 L 160.3 75.4 L 158.1 74.9 L 155.9 74.0 L 154.0 72.7 L 152.3 71.1 L 150.9 69.1 L 149.9 66.8 L 149.2 64.4 L 148.8 61.9 L 148.8 54.1 L 145.3418604850769 54.1 L 143.8 58.0 L 141.7 62.2 L 139.3 66.0 L 136.6 69.5 L 133.6 72.7 L 130.3 75.7 L 126.7 78.2 L 122.8 80.5 L 118.7 82.3 L 114.4 83.9 L 114.4 96.8 L 114.2972972869873 96.95405406951905 L 113.8 106.9 L 112.9 116.2 L 111.7 124.9 L 110.2 133.0 L 108.3 140.3 L 106.1 147.0 L 103.5 153.0 L 101.28218278884887 156.91814365386963 L 102.0 158.5 L 109.3 165.5 L 120.1 169.6 L 135.5 171.6 L 156.1 172.0 L 176.2307692527771 172.0 L 182.0 147.0 L 184.0 147.0 L 182.07446804046631 172.0319149017334 L 186.2 173.8 L 188.0 178.0 L 186.2 182.2 L 182.0 184.0 L 156.1 184.0 L 134.8 183.6 L 117.4 181.3 L 103.1 175.7 L 92.1 165.4 L 85.1 150.1 L 81.1 129.5 L 79.2 102.3 L 78.8217098236084 80.10697412490845 L 74.0 83.0 L 74.0 124.0 L 64.0 129.0 L 64.0 124.0 L 58.0 124.0 L 58.0 158.74615383148193 L 62.4 157.9 L 67.9 157.0 L 70.36973295211791 156.61676559448242 L 69.2 153.4 L 67.8 150.0 L 66.3 146.5 L 64.8 142.8 L 62.8 139.3 L 64.3 138.2 L 70.1 144.0 L 72.7 146.9 L 75.2 150.0 L 77.4 153.1 L 79.5 156.3 L 81.4 159.5 L 83.1 162.8 L 84.6 166.1 L 86.0 169.5 L 85.3 174.0 L 81.7 176.9 L 77.2 176.2 L 74.4 172.6 L 73.9 169.5 L 73.2 166.4 L 72.5 163.2 L 71.5 160.0 L 71.25714282989502 159.2714285850525 L 69.0 160.4 L 64.0 162.8 L 59.1 165.0 L 54.4 167.0 L 49.9 168.9 L 45.6 170.6 L 41.5 172.2 L 37.7 173.7 L 34.4840166091919 175.00377702713013 L 33.2 178.8 L 30.5 176.5 L 25.4 165.4 L 27.3 164.9 L 30.9 164.2 L 34.7 163.5 L 38.7 162.7 L 43.0 161.8 L 47.5 160.9 L 50.0 160.3680850982666 L 50.0 124.0 L 43.0 124.0 L 43.0 136.0 L 35.0 140.0 L 35.0 72.0 L 43.0 76.0 L 50.0 76.0 L 50.0 53.12142858505249 L 45.9 54.0 L 41.5 54.7 L 36.9 55.2 L 32.2 55.8 L 31.7 54.1 L 36.0 52.2 L 40.1 50.2 L 44.0 48.3 L 47.7 46.4 L 51.3 44.6 L 54.6 42.7 L 57.8 40.9 L 60.7 39.0 L 63.5 37.2 L 65.18597002029419 35.91866283416748 L 65.1 35.8 L 65.20251359939576 35.90608968734741 L 66.0 35.3 L 68.28508977890014 39.09619760513306 L 73.7 44.7 L 73.9 48.1 L 70.13104696273804 46.54043321609497 L 68.9 47.1 L 65.4 48.5 L 61.9 49.8 L 58.1 51.0 L 58.0 51.02820510864258 L 58.0 76.0 L 64.0 76.0 L 69.0 71.0 L 78.81708021163941 79.83537216186524 L 78.6 67.1 L 78.88639459609985 25.0 L 28.0 25.0 L 28.0 94.0 L 27.6 107.6 L 26.9 120.3 L 26.0 132.1 L 24.7 143.0 L 23.2 152.9 L 21.4 162.0 L 19.2 170.1 L 16.8 177.2 L 13.9 183.3 L 10.6 188.3 L 9.3 187.6 L 11.0 182.1 L 12.5 175.8 L 13.9 168.8 L 15.2 160.8 L 16.2 152.0 L 17.0 142.2 L 17.6 131.5 L 18.0 119.9 L 18.1 107.4 L 18.0 94.0 L 18.0 16.0 L 28.0 21.0 L 79.0 21.0 L 85.0 16.0 L 96.0 25.0 L 91.0 28.0 L 90.86560544967651 28.05599775314331 L 90.6 67.1 L 91.1 101.8 L 93.0 128.0 L 96.6 146.6 L 97.7682367324829 149.17444772720336 L 98.8 144.9 L 100.0 138.5 L 101.0 131.4 L 101.7 123.7 L 102.2 115.4 L 102.4 106.4 L 102.4 58.4692307472229 L 102.0 58.9 L 97.8 62.9 L 93.3 66.5 L 92.0 65.3 L 94.9 60.4 L 97.8 55.7 L 100.5 50.9 L 102.4 47.392307662963866 L 102.4 44.1 L 103.77073173522949 44.78536586761474 L 105.6 41.2 L 107.9 36.2 L 110.0 31.1 L 111.9 25.9 L 113.6 20.5 L 114.93112621307372 16.007449054718016 L 114.9 16.0 L 115.7 13.6 L 126.6 18.8 L 128.9 21.6 L 125.12254238128662 22.461525440216064 L 124.3 24.5 L 122.43636360168458 28.6 L 152.2 28.6 L 152.76842107772828 28.126315784454345 L 152.8 28.0 L 152.87605638504027 28.03661975860596 L 158.2 23.6 L 169.2 32.6 L 164.2 35.6 L 160.64864864349366 37.07972974777222 L 157.6 40.7 L 155.9 42.6 L 154.1 44.6 L 152.2 46.5 L 150.1 48.5 L 148.2473684310913 50.1 L 169.71818180084227 50.1 L 177.9 41.1 L 187.9 50.1 L 187.9 54.1 L 160.8 54.1 L 160.8 61.9 L 160.6 63.2 L 160.6 65.5 L 160.7 66.0 L 160.9 66.5 L 161.4 67.1 L 162.2 67.6 L 163.3 68.1 L 164.8 68.4 L 178.2 68.4 L 181.7 63.4 L 183.7 63.4 L 181.7 68.4 L 183.8 69.8 L 185.2 71.9 L 183.8 74.0 L 181.7 75.4 L 164.8 75.4 Z M 120.5 32.6 L 119.1 35.4 L 116.1 40.5 L 112.9 45.4 L 110.83384618759155 48.31692304611206 L 114.4 50.1 L 145.43999996185303 50.1 L 146.0 49.1 L 146.9 46.3 L 147.8 43.7 L 148.7 41.2 L 149.6 38.8 L 150.3 36.5 L 151.1 34.3 L 151.56363639831542 32.6 Z M 90.8932011604309 23.99943342208862 L 90.9 24.0 L 90.9 23.0 Z " />
</g>
</svg>
