<svg xmlns="http://www.w3.org/2000/svg" xmlns:xlink="http://www.w3.org/1999/xlink" version="1.1" baseProfile="full" viewBox="0 0 200 200" width="200" height="200">
<g fill="black">
<path d="M 167.4 139.5 L 166.7 137.6 L 165.9 135.7 L 165.0 133.9 L 164.0 132.1 L 163.3004906654358 130.95534839630128 L 163.8 136.4 L 165.4 145.6 L 167.4 153.2 L 169.8 159.1 L 172.5 163.6 L 175.7 166.9 L 177.0810055732727 167.7823091506958 L 182.2 145.6 L 184.2 145.6 L 182.3006802558899 170.29115648269652 L 183.7 170.8 L 187.3 173.6 L 188.0 178.1 L 185.2 181.7 L 180.7 182.4 L 174.0 180.0 L 168.0 176.1 L 163.0 170.9 L 159.0 164.5 L 155.9 156.9 L 153.6 148.1 L 151.9 138.0 L 150.8 126.4 L 150.2 113.3 L 150.13437852859497 108.4440089225769 L 150.0 108.5 L 150.0 100.5 L 142.2 100.5 L 142.2 182.0 L 131.2 187.5 L 131.2 100.5 L 121.22424240112305 100.5 L 120.8 111.7 L 119.9 124.0 L 118.5 135.3 L 116.6 145.6 L 114.3 155.0 L 111.4 163.3 L 108.1 170.5 L 104.2 176.7 L 99.8 181.7 L 95.0 185.4 L 93.9 184.1 L 97.2 179.5 L 100.0 174.2 L 102.6 168.0 L 104.8 161.0 L 106.7 153.1 L 108.2 144.2 L 109.3 134.2 L 110.1 123.3 L 110.4 111.4 L 110.31550388336181 100.5 L 94.4 100.5 L 94.4 100.0 L 72.1 100.0 L 72.1 128.5 L 62.1 133.5 L 62.1 13.0 L 72.1 15.0 L 74.6 17.0 L 72.1 18.66666669845581 L 72.1 36.0 L 81.9777777671814 36.0 L 88.2 29.0 L 96.2 36.0 L 96.2 40.0 L 72.1 40.0 L 72.1 65.0 L 76.6777777671814 65.0 L 82.9 58.0 L 90.9 65.0 L 90.9 69.0 L 72.1 69.0 L 72.1 96.0 L 81.9777777671814 96.0 L 88.2 89.0 L 96.2 96.0 L 96.2 96.5 L 110.3 96.5 L 110.3 65.41052627563477 L 108.1 66.8 L 104.2 69.0 L 96.0 72.8 L 95.0 71.3 L 98.3 68.2 L 104.3 62.0 L 107.2 58.9 L 110.0 55.8 L 112.7 52.7 L 115.3 49.5 L 117.7 46.3 L 121.69785614013672 40.563945579528806 L 121.6 40.5 L 122.7 39.2 L 131.2 46.66111106872559 L 131.2 36.6 L 142.2 38.6 L 145.0 40.6 L 142.2 42.35 L 142.2 96.5 L 150.0 96.5 L 156.0 91.5 L 167.0 100.5 L 162.0688705444336 103.45867767333985 L 162.2 112.9 L 162.51144781112671 119.44040403366088 L 163.4 117.8 L 164.5 115.4 L 165.6 113.2 L 166.6 111.0 L 167.5 109.0 L 168.3 107.0 L 169.0 105.1 L 169.2315863609314 104.31260623931885 L 169.0 104.2 L 169.48529415130616 103.45 L 169.5 103.4 L 169.51279211044312 103.40750303268433 L 170.1 102.5 L 179.9 109.5 L 181.5 112.7 L 176.7189655303955 112.78103446960449 L 175.2 114.3 L 173.4 116.0 L 171.5 117.7 L 167.3 121.1 L 165.0 122.8 L 162.74307689666747 124.30461540222169 L 162.8 125.5 L 162.89615383148194 126.54807691574096 L 163.0 126.6 L 165.3 127.4 L 167.4 128.4 L 169.5 129.6 L 171.5 131.1 L 173.5 132.7 L 175.3 134.6 L 177.0 136.6 L 178.6 138.8 L 180.2 141.1 L 180.1 145.7 L 176.9 148.9 L 172.3 148.9 L 169.1 145.7 L 168.1 141.5 Z M 47.4 183.3 L 44.9 182.9 L 42.5 182.1 L 40.2 180.9 L 38.2 179.2 L 36.6 177.2 L 35.3 174.9 L 34.5 172.5 L 34.1 170.0 L 34.0 167.5 L 34.0 130.8 L 46.0 132.8 L 49.0 134.8 L 46.0 136.6 L 46.0 168.7 L 46.2 169.6 L 46.4 170.2 L 46.6 170.5 L 46.7 170.7 L 46.9 170.9 L 47.2 171.1 L 47.8 171.2 L 48.7 171.4 L 50.0 171.5 L 73.2 171.5 L 79.2 146.5 L 81.2 146.5 L 79.2 171.5 L 82.8 173.9 L 85.2 177.5 L 82.8 181.1 L 79.2 183.5 L 50.0 183.5 Z M 14.8 176.2 L 12.7 172.1 L 14.0 167.7 L 15.3 166.6 L 16.6 164.8 L 17.9 162.5 L 19.2 159.7 L 20.4 156.3 L 21.5 152.4 L 22.5 148.0 L 23.4 143.1 L 24.3 137.8 L 25.0 131.9 L 26.8 131.9 L 27.5 137.8 L 28.1 143.3 L 28.4 148.5 L 28.5 153.3 L 28.3 157.7 L 27.8 161.9 L 27.2 165.7 L 26.2 169.2 L 24.9 172.4 L 23.2 175.4 L 19.1 177.5 Z M 87.7 160.2 L 87.2 156.7 L 86.5 153.4 L 85.7 150.0 L 84.8 146.8 L 82.6 140.4 L 81.3 137.1 L 79.7 134.1 L 81.1 132.9 L 86.3 137.9 L 88.7 140.7 L 90.9 143.8 L 93.0 147.0 L 94.8 150.4 L 96.4 153.9 L 97.9 157.7 L 99.2 161.5 L 100.2 165.5 L 99.1 170.0 L 95.2 172.4 L 90.8 171.2 L 88.4 167.3 L 88.1 163.7 Z M 57.6 146.6 L 56.9 143.9 L 56.3 141.4 L 54.7 136.6 L 53.7 134.3 L 52.8 132.0 L 51.7 129.7 L 50.3 127.8 L 51.5 126.5 L 53.5 128.0 L 55.8 129.4 L 58.0 131.1 L 60.0 133.1 L 62.0 135.2 L 63.8 137.6 L 65.5 140.1 L 67.1 142.8 L 68.7 145.7 L 70.1 148.7 L 69.5 153.3 L 66.0 156.2 L 61.5 155.7 L 58.6 152.1 L 58.1 149.3 Z M 54.0 68.4 L 53.4 78.3 L 52.2 87.4 L 50.4 95.7 L 48.1 103.3 L 45.1 110.0 L 41.6 115.9 L 37.6 120.8 L 32.9 124.7 L 27.8 127.6 L 26.9 126.3 L 30.8 122.4 L 34.1 118.0 L 36.9 113.0 L 39.4 107.4 L 41.3 101.1 L 42.8 94.1 L 42.916073608398435 93.27693252563476 L 41.8 94.3 L 39.3 96.5 L 36.7 98.6 L 34.1 100.8 L 28.5 105.2 L 26.032818508148193 107.00926637649536 L 25.8 111.2 L 22.5 109.6 L 14.7 100.3 L 16.4 99.3 L 19.8 97.7 L 23.1 96.2 L 26.4 94.8 L 29.6 93.4 L 32.7 92.0 L 35.8 90.7 L 38.8 89.5 L 41.9 88.4 L 43.68789234161377 87.8040358543396 L 43.9 86.3 L 44.5 77.7 L 44.59255323410034 69.0 L 24.0 69.0 L 24.0 65.0 L 44.47058820724487 65.0 L 44.2 58.1 L 44.265359497070314 58.09803924560547 L 44.2 58.0 L 44.2 40.0 L 21.0 40.0 L 21.0 36.0 L 44.2 36.0 L 44.2 13.0 L 54.2 15.0 L 56.7 17.0 L 54.2 18.66666669845581 L 54.2 58.0 L 54.19611654281616 58.005825233459475 Z M 168.2 61.0 L 167.7 59.3 L 167.1 57.7 L 166.5 56.2 L 165.7 54.7 L 164.9 53.3 L 164.0 52.0 L 163.9589156150818 51.947710800170896 L 164.8 57.9 L 166.5 65.5 L 168.7 71.8 L 171.2 77.0 L 174.0 81.1 L 177.2 84.6 L 177.48661975860597 84.82464790344238 L 182.2 64.4 L 184.2 64.4 L 182.35384616851806 88.4 L 185.1 90.1 L 187.9 93.8 L 187.4 98.3 L 183.8 101.1 L 179.3 100.7 L 174.0 97.4 L 169.1 93.4 L 164.6 88.6 L 160.8 83.0 L 157.6 76.4 L 155.0 68.7 L 153.0 60.0 L 151.6 49.9 L 150.8 38.5 L 150.72684307098388 35.305482006073 L 150.5 35.4 L 150.5 27.4 L 97.7 27.4 L 97.7 23.4 L 150.5 23.4 L 156.5 18.4 L 167.5 27.4 L 162.61829652786255 30.329022121429443 L 162.8 37.9 L 163.17960195541383 43.75671644210816 L 163.6 43.0 L 165.0 40.5 L 166.3 38.0 L 167.5 35.7 L 168.6 33.5 L 170.4 29.3 L 171.0 27.3 L 171.2752631187439 26.47421054840088 L 171.1 26.4 L 172.1 24.5 L 182.2 31.1 L 183.9 34.3 L 179.24481372833253 34.540785503387454 L 179.0 34.8 L 177.3 36.7 L 175.4 38.5 L 171.2 42.1 L 168.9 43.9 L 166.5 45.7 L 163.8 47.3 L 163.4302300453186 47.623548698425296 L 163.49449977874755 48.61513881683349 L 163.8 48.7 L 165.7 48.9 L 167.7 49.4 L 169.7 50.2 L 171.6 51.2 L 173.4 52.5 L 175.2 54.0 L 176.9 55.7 L 178.5 57.7 L 180.0 59.8 L 180.1 64.3 L 177.0 67.7 L 172.4 67.8 L 169.1 64.7 L 168.6 62.7 Z M 128.7 50.3 L 125.6 53.4 L 122.4 56.3 L 121.3 57.20588235855102 L 121.3 96.5 L 131.2 96.5 L 131.2 50.29482755661011 L 128.95847043991088 50.02429819107056 Z " />
</g>
</svg>
