<svg xmlns="http://www.w3.org/2000/svg" xmlns:xlink="http://www.w3.org/1999/xlink" version="1.1" baseProfile="full" viewBox="0 0 200 200" width="200" height="200">
<g fill="black">
<path d="M 174.6 178.9 L 169.4 173.5 L 164.7 167.6 L 160.4 161.2 L 156.6 154.4 L 153.2 147.3 L 150.4 139.7 L 147.9 131.6 L 146.0 123.2 L 144.7 114.4 L 144.37821102142334 109.4122706413269 L 143.6 110.4 L 140.6 113.5 L 137.3 116.5 L 136.02847356796264 117.49660177230835 L 139.1 121.4 L 143.1 127.5 L 146.5 133.6 L 149.2 139.7 L 151.3 145.7 L 152.8 151.8 L 153.7 157.7 L 154.0 163.6 L 153.7 169.5 L 152.7 175.2 L 152.0034285545349 175.52419052124023 L 151.3 177.4 L 150.2 179.7 L 148.9 181.8 L 147.3 183.7 L 145.4 185.4 L 143.3 186.7 L 141.0 187.7 L 138.6 188.4 L 136.1 188.8 L 133.6 189.0 L 133.6 183.0 L 113.6 180.0 L 113.6 177.0 L 133.6 177.0 L 134.9 176.9 L 136.0 176.7 L 136.9 176.5 L 137.6 176.1 L 138.2 175.7 L 138.7 175.3 L 139.1201681137085 174.79579830169678 L 140.1 171.5 L 141.4 167.3 L 142.3 162.9 L 142.7 158.1 L 142.7 155.88636360168456 L 138.6 159.8 L 134.0 163.7 L 129.2 167.3 L 124.2 170.5 L 118.9 173.4 L 113.5 176.0 L 107.7 178.1 L 101.8 179.8 L 101.1 178.1 L 106.1 174.7 L 110.8 171.3 L 115.4 167.9 L 119.8 164.3 L 123.9 160.6 L 127.8 156.8 L 131.4 152.7 L 134.9 148.5 L 138.1 144.1 L 140.69634141921998 140.11894311904908 L 139.7 136.2 L 139.56136207580568 135.74760246276855 L 137.6 137.6 L 133.8 140.8 L 129.8 143.8 L 125.7 146.6 L 121.3 149.1 L 116.7 151.5 L 112.0 153.6 L 107.0 155.3 L 101.8 156.8 L 101.1 155.1 L 105.3 152.0 L 109.4 149.0 L 113.3 146.0 L 117.1 142.9 L 120.6 139.8 L 123.9 136.7 L 127.0 133.4 L 129.9 130.1 L 132.7 126.7 L 135.2 123.2 L 135.42987995147706 123.38341484069824 L 135.4 123.3 L 133.87218894958497 119.1866626739502 L 133.6 119.4 L 129.6 122.2 L 125.2 125.0 L 120.5 127.6 L 115.3 130.2 L 109.7 132.6 L 103.7 134.7 L 102.9 133.2 L 107.9 129.3 L 112.6 125.7 L 116.9 122.3 L 120.8 118.9 L 124.4 115.7 L 127.5 112.5 L 130.3 109.4 L 132.6 106.4 L 133.475 105.0 L 102.7 105.0 L 102.7 101.0 L 158.8 101.0 L 168.8 91.0 L 180.8 101.0 L 180.8 105.0 L 147.82580642700196 105.0 L 146.52621355056763 106.67864074707032 L 148.8 113.5 L 151.7 121.6 L 154.8 129.3 L 157.01664371490477 134.13631362915038 L 157.8 132.8 L 159.4 130.1 L 160.9 127.5 L 162.4 125.0 L 163.8 122.5 L 165.1 120.1 L 166.3 117.8 L 167.4 115.6 L 168.00862064361573 114.26103448867798 L 167.9 114.2 L 168.3285714149475 113.55714282989501 L 168.4 113.4 L 168.4230414390564 113.41543779373168 L 168.9 112.7 L 178.4 120.1 L 179.7 123.5 L 175.32622947692872 123.27377052307129 L 172.6 126.0 L 168.2 129.8 L 165.8 131.8 L 163.4 133.7 L 160.8 135.6 L 158.4635097503662 137.18547554016112 L 161.6 143.1 L 165.4 149.3 L 169.5 154.9 L 173.8 160.1 L 178.4 164.8 L 185.4 170.8 Z M 38.6 102.0 L 38.6 121.0 L 67.0 121.0 L 67.0 102.0 Z M 38.6 81.0 L 38.6 98.0 L 67.0 98.0 L 67.0 81.0 Z M 173.4 63.0 L 175.4 63.0 L 173.4 80.0 L 176.4 82.0 L 178.4 85.0 L 176.4 88.0 L 173.4 90.0 L 136.9 90.0 L 134.4 89.9 L 132.0 89.6 L 129.7 88.9 L 127.5 87.8 L 125.5 86.3 L 123.8 84.5 L 122.5 82.3 L 121.6 80.0 L 121.1 77.5 L 120.9 75.0 L 120.9 71.0533546447754 L 101.1 73.9 L 100.7 71.3 L 100.7 111.0 L 100.2 121.3 L 99.3 131.0 L 98.0 140.1 L 96.2 148.6 L 94.0 156.5 L 91.4 163.7 L 88.3 170.3 L 84.7 176.2 L 80.6 181.3 L 76.0 185.5 L 74.8 184.4 L 77.7 179.2 L 80.4 173.7 L 81.09152545928956 172.0 L 38.6 172.0 L 38.6 183.0 L 26.6 189.0 L 26.6 73.11599998474121 L 24.4 75.8 L 19.2 81.4 L 13.7 86.5 L 12.3 85.4 L 20.1 72.6 L 24.0 66.0 L 27.8 59.3 L 31.6 52.3 L 35.2 45.0 L 38.7 37.6 L 42.2 29.8 L 45.5 21.8 L 48.34333896636963 14.513943862915038 L 48.3 14.5 L 48.64482755661011 13.741379356384277 L 48.7 13.6 L 48.707649898529056 13.603170204162598 L 49.3 12.3 L 59.8 18.2 L 61.8 21.2 L 58.15406484603882 21.702887630462648 L 56.06436433792114 26.150199031829835 L 56.9 26.5 L 61.1 28.3 L 65.1 30.4 L 68.8 32.8 L 72.2 35.3 L 75.4 38.0 L 78.4 40.9 L 81.2 44.0 L 83.7 47.2 L 85.9 50.6 L 86.1 55.2 L 83.2 58.6 L 78.6 58.9 L 75.1 55.9 L 73.9 52.9 L 72.5 49.9 L 70.8 46.9 L 68.8 44.0 L 66.6 41.0 L 64.1 38.1 L 61.4 35.1 L 58.4 32.2 L 55.2 29.1 L 54.77575759887695 28.748484802246093 L 51.9 34.5 L 47.7 42.1 L 43.4 49.5 L 38.9 56.6 L 34.2 63.3 L 29.4 69.7 L 27.830232524871825 71.61511631011963 L 38.6 77.0 L 67.0 77.0 L 72.5 72.0 L 83.0 81.0 L 78.0 84.5 L 78.0 127.0 L 67.0 132.5 L 67.0 125.0 L 38.6 125.0 L 38.6 145.0 L 65.41818180084229 145.0 L 73.6 136.0 L 83.6 145.0 L 83.6 149.0 L 38.6 149.0 L 38.6 168.0 L 62.4 168.0 L 72.4 158.0 L 83.08099174499512 166.9008264541626 L 84.8 161.4 L 86.5 154.4 L 87.9 146.9 L 88.9 138.8 L 89.5 130.1 L 89.8 120.8 L 89.7 111.0 L 89.7 38.5 L 100.7 44.0 L 124.6 44.0 L 124.6 12.0 L 136.6 14.0 L 139.6 16.0 L 136.6 17.8 L 136.6 26.0 L 152.71818180084227 26.0 L 160.9 17.0 L 170.9 26.0 L 170.9 30.0 L 136.6 30.0 L 136.6 44.0 L 171.1 44.0 L 177.1 39.0 L 188.1 48.0 L 183.1 51.0 L 179.7962025642395 52.37658224105835 L 178.6 54.0 L 175.8 58.0 L 174.3 60.0 L 171.1 64.0 L 169.3 66.1 L 168.0 68.3 L 166.3 67.6 L 167.2 65.1 L 167.6 62.4 L 169.1 54.9 L 169.6 52.6 L 170.1 50.2 L 170.6 48.0 L 126.9 48.0 L 132.9 49.0 L 135.9 51.0 L 132.9 52.8 L 132.9 65.34185304641724 L 141.39258604049684 64.12087421417236 L 149.8 52.8 L 163.1 61.0 L 163.7 64.9 L 132.9 69.32811498641968 L 132.9 75.0 L 132.8 76.2 L 132.9 77.1 L 133.0 77.8 L 133.2 78.6 L 133.4 78.9 L 133.8 79.2 L 134.5 79.5 L 135.5 79.8 L 136.9 80.0 L 168.4 80.0 Z M 100.7 48.0 L 100.7 69.97124605178833 L 120.9 67.06709260940552 L 120.9 48.0 Z M 73.4 59.0 L 73.4 63.0 L 37.7 63.0 L 37.7 59.0 L 59.1777777671814 59.0 L 65.4 52.0 Z " />
</g>
</svg>
