<svg xmlns="http://www.w3.org/2000/svg" xmlns:xlink="http://www.w3.org/1999/xlink" version="1.1" baseProfile="full" viewBox="0 0 200 200" width="200" height="200">
<g fill="black">
<path d="M 27.5 93.0 L 80.0 93.0 L 85.5 88.0 L 96.0 97.0 L 91.0 100.5 L 91.0 152.0 L 80.0 157.5 L 80.0 146.0 L 60.5 146.0 L 60.5 182.0 L 48.5 188.0 L 48.5 146.0 L 27.5 146.0 L 27.5 158.0 L 16.5 163.5 L 16.5 87.5 Z M 164.5 178.8 L 159.2 175.7 L 153.8 172.6 L 148.1 169.7 L 147.81086959838868 169.55543479919433 L 142.6 174.0 L 135.0 178.7 L 126.6 182.3 L 117.4 185.0 L 107.5 186.5 L 96.8 186.9 L 96.6 185.1 L 106.8 182.7 L 115.9 179.8 L 124.0 176.3 L 131.2 172.1 L 137.3 167.3 L 139.14754524230958 165.38139533996582 L 136.3 164.1 L 130.0 161.3 L 123.6 158.5 L 121.69196033477783 157.69052867889405 L 119.5 161.4 L 116.9 165.6 L 106.8 159.2 L 109.2 155.2 L 111.6 151.1 L 113.9 146.9 L 116.2 142.5 L 118.4 138.1 L 119.26739130020141 136.2 L 93.4 136.2 L 93.4 132.2 L 121.06521739959717 132.2 L 122.5 128.9 L 124.5 124.1 L 126.4 119.2 L 128.2 114.2 L 128.26601753234863 114.22395324707031 L 128.8 112.8 L 139.5 118.3 L 141.7 121.2 L 138.19310340881347 121.87676954269409 L 137.6 123.5 L 135.6 128.6 L 134.16000003814696 132.2 L 166.6 132.2 L 176.6 122.2 L 188.6 132.2 L 188.6 136.2 L 166.75 136.2 L 164.0 145.0 L 160.1 153.7 L 155.2 161.4 L 153.9867027282715 162.82248649597167 L 157.7 164.2 L 163.8 166.7 L 169.6 169.4 L 175.3 172.3 L 180.9 175.4 L 183.4 179.2 L 182.7 183.7 L 178.9 186.2 L 174.4 185.5 L 169.5 182.1 Z M 132.4326530456543 136.2 L 131.4 138.5 L 129.2 143.3 L 126.9 147.9 L 124.5 152.5 L 123.32206897735595 154.70862064361572 L 124.7 154.9 L 131.7 156.2 L 138.5 157.9 L 144.18631534576417 159.56215372085572 L 146.9 155.8 L 150.5 148.9 L 153.3 141.3 L 154.44929580688478 136.2 Z M 27.5 97.0 L 27.5 142.0 L 80.0 142.0 L 80.0 97.0 Z M 46.0 109.0 L 61.5 109.0 L 67.0 104.0 L 77.5 113.0 L 72.5 116.5 L 72.5 130.0 L 61.5 135.5 L 61.5 130.0 L 46.0 130.0 L 35.0 135.5 L 35.0 103.5 Z M 46.0 113.0 L 46.0 126.0 L 61.5 126.0 L 61.5 113.0 Z M 117.7 115.3 L 105.7 121.3 L 105.7 81.8 L 117.7 87.8 L 135.0 87.8 L 135.0 71.3 L 120.4 71.3 L 120.4 74.3 L 108.4 80.3 L 108.4 50.8 L 95.2 50.8 L 95.2 46.8 L 108.4 46.8 L 108.4 20.4 L 120.4 26.4 L 135.0 26.4 L 135.0 12.7 L 147.0 14.7 L 150.0 16.7 L 147.0 18.5 L 147.0 26.4 L 161.6 26.4 L 167.6 21.4 L 178.6 30.4 L 173.6 34.4 L 173.6 46.8 L 176.2 46.8 L 180.7 40.8 L 186.7 46.8 L 186.7 50.8 L 173.6 50.8 L 173.6 73.3 L 161.6 79.3 L 161.6 71.3 L 147.0 71.3 L 147.0 87.8 L 164.2 87.8 L 170.2 82.8 L 181.2 91.8 L 176.2 95.8 L 176.2 114.3 L 164.2 120.3 L 164.2 112.3 L 117.7 112.3 Z M 117.7 91.8 L 117.7 108.3 L 135.0 108.3 L 135.0 91.8 Z M 147.0 91.8 L 147.0 108.3 L 164.2 108.3 L 164.2 91.8 Z M 39.7 54.0 L 68.3 54.0 L 74.3 49.0 L 85.3 58.0 L 80.3 62.0 L 80.3 79.4 L 68.3 85.4 L 68.3 79.4 L 39.7 79.4 L 27.7 85.4 L 27.7 48.0 Z M 39.7 58.0 L 39.7 75.4 L 68.3 75.4 L 68.3 58.0 Z M 120.4 50.8 L 120.4 67.3 L 135.0 67.3 L 135.0 50.8 Z M 147.0 50.8 L 147.0 67.3 L 161.6 67.3 L 161.6 50.8 Z M 120.4 30.4 L 120.4 46.8 L 135.0 46.8 L 135.0 30.4 Z M 147.0 30.4 L 147.0 46.8 L 161.6 46.8 L 161.6 30.4 Z M 11.5 36.7 L 48.0 36.7 L 48.0 15.2 L 60.0 17.2 L 63.0 19.2 L 60.0 21.0 L 60.0 36.7 L 78.31818180084228 36.7 L 86.5 27.7 L 96.5 36.7 L 96.5 40.7 L 11.5 40.7 Z " />
</g>
</svg>
