<svg xmlns="http://www.w3.org/2000/svg" xmlns:xlink="http://www.w3.org/1999/xlink" version="1.1" baseProfile="full" viewBox="0 0 200 200" width="200" height="200">
<g fill="black">
<path d="M 99.0 144.5 L 101.0 144.5 L 99.0 169.5 L 102.6 171.9 L 105.0 175.5 L 102.6 179.1 L 99.0 181.5 L 48.9 181.5 L 46.3 181.4 L 43.8 181.0 L 41.4 180.2 L 39.2 178.9 L 37.1 177.3 L 35.5 175.3 L 34.3 173.0 L 33.5 170.6 L 33.0 168.1 L 32.9 165.5 L 32.9 134.75 L 24.6 138.9 L 24.6 91.69230766296387 L 24.4 91.9 L 21.4 94.3 L 16.8 94.6 L 13.3 91.7 L 12.9 87.2 L 15.8 83.6 L 17.8 82.9 L 19.7 81.8 L 21.5 80.4 L 23.2 78.5 L 24.8 76.3 L 26.2 73.5 L 27.5 70.3 L 28.6 66.7 L 29.6 62.5 L 30.1 57.9 L 31.9 57.9 L 32.4 62.6 L 32.8 65.6 L 94.0 65.6 L 94.0 36.1 L 20.0 36.1 L 20.0 32.1 L 94.0 32.1 L 94.0 12.6 L 106.0 14.6 L 109.0 16.6 L 106.0 18.4 L 106.0 32.1 L 158.0 32.1 L 168.0 22.1 L 180.0 32.1 L 180.0 36.1 L 148.51136360168456 36.1 L 155.5 43.6 L 156.2 47.2 L 152.2661512374878 46.16477661132812 L 149.7 48.2 L 146.5 50.5 L 143.3 52.9 L 139.9 55.2 L 136.3 57.6 L 132.6 59.9 L 128.8 62.2 L 124.7 64.4 L 122.50869569778442 65.6 L 170.0 65.6 L 170.63529415130614 65.07058820724487 L 171.2 63.8 L 171.692972946167 64.18918914794922 L 176.0 60.6 L 187.0 69.6 L 182.0 72.6 L 176.06185569763184 75.07422676086426 L 175.2 75.8 L 173.0 77.5 L 170.7 79.3 L 168.2 81.1 L 165.6 83.1 L 162.7 85.0 L 161.37142858505248 85.9 L 164.0 85.9 L 170.0 80.9 L 181.0 89.9 L 176.0 92.9 L 174.88535566329955 93.36443510055543 L 172.4 104.3 L 167.7 118.6 L 161.9 131.7 L 154.8 143.7 L 147.81340894699096 152.9018515586853 L 148.4 153.7 L 155.2 160.9 L 162.6 167.2 L 170.8 172.6 L 179.6 177.1 L 185.2 179.8 L 173.9 189.0 L 164.1 183.2 L 155.2 176.4 L 147.3 168.6 L 140.7291205406189 160.43333559036256 L 137.2 164.0 L 126.7 172.3 L 115.2 179.2 L 102.5 184.8 L 88.8 189.0 L 88.3 187.3 L 101.0 181.4 L 112.5 174.6 L 122.8 167.0 L 132.0 158.5 L 136.28108110427857 153.46972970962526 L 134.3 150.3 L 129.2 139.7 L 125.2 128.4 L 122.1 116.1 L 120.0 103.0 L 119.25142860412598 89.9 L 105.7 89.9 L 105.7 85.9 L 157.2166666984558 85.9 L 157.8 85.2 L 159.8 82.2 L 161.7 79.3 L 163.5 76.6 L 165.2 74.1 L 166.7 71.7 L 168.03636360168457 69.6 L 33.0 69.6 L 33.0 71.3 L 32.7 75.3 L 32.0 79.1 L 30.8 82.7 L 30.480000019073486 83.38000001907349 L 36.6 84.4 L 39.6 86.4 L 36.6 88.2 L 36.6 125.33863639831543 L 38.9 123.3 L 43.2 119.3 L 47.4 115.2 L 51.6 111.0 L 55.7 106.6 L 57.78585691452027 104.14911813735962 L 56.5 102.9 L 52.9 99.5 L 49.0 96.2 L 45.0 92.8 L 40.8 89.4 L 41.7 87.8 L 46.9 89.5 L 51.9 91.7 L 56.7 94.2 L 61.2 96.9 L 62.84484424591064 98.04756574630737 L 63.7 97.0 L 66.15245580673218 93.64400787353516 L 61.9 94.4 L 58.1 91.8 L 58.0 90.7 L 57.8 89.6 L 57.5 88.4 L 57.2 87.3 L 56.8 86.1 L 56.3 84.8 L 55.1 82.2 L 54.5 80.8 L 53.4 79.9 L 54.4 78.4 L 55.6 79.3 L 57.2 79.6 L 58.8 80.0 L 60.2 80.6 L 61.7 81.2 L 63.1 81.9 L 64.4 82.6 L 65.8 83.5 L 67.0 84.4 L 68.3 85.4 L 68.97049808502197 89.71034479141235 L 71.3 86.4 L 74.9 80.8 L 74.92286376953125 80.81570434570312 L 75.4 80.1 L 84.8 87.6 L 86.1 90.9 L 82.35917158126831 90.7065089225769 L 80.4 93.2 L 76.6222222328186 97.64938268661498 L 78.2 98.0 L 79.9 98.5 L 81.5 99.1 L 83.1 99.9 L 84.5 100.9 L 85.9 102.0 L 87.2 103.3 L 88.1 104.44545450210572 L 88.1 82.4 L 100.1 84.4 L 103.1 86.4 L 100.1 88.2 L 100.1 132.9 L 88.1 138.9 L 88.1 132.9 L 36.6 132.9 L 34.775 133.8125 L 44.9 135.5 L 47.9 137.5 L 44.9 139.3 L 44.9 155.32916669845582 L 47.8 154.0 L 52.6 152.0 L 57.5 150.0 L 62.3 148.1 L 67.2 146.2 L 85.52039861679077 138.94817552566528 L 85.5 138.9 L 85.54479761123658 138.9385175704956 L 86.4 138.6 L 86.90174674987793 140.10524015426637 L 96.2 148.1 L 96.4 151.1 L 92.35782661437989 149.31668825149535 L 90.2 150.0 L 85.1 151.4 L 80.1 152.6 L 75.0 153.9 L 69.9 155.1 L 59.7 157.3 L 54.5 158.3 L 49.3 159.2 L 44.9 159.78113203048707 L 44.9 165.5 L 45.0 166.8 L 45.1 167.7 L 45.3 168.3 L 45.5 168.6 L 45.6 168.8 L 45.8 169.0 L 46.2 169.1 L 46.7 169.3 L 47.7 169.5 L 93.0 169.5 Z M 121.25447759628295 89.9 L 124.1 102.2 L 127.8 114.6 L 132.0 125.9 L 136.8 136.2 L 142.3 145.4 L 142.41147775650023 145.5516827583313 L 147.0 138.8 L 152.8 127.4 L 157.6 115.0 L 161.4 101.5 L 163.56000003814697 89.9 Z M 69.2 117.1 L 66.3 113.4 L 63.884662532806395 110.59509201049805 L 61.6 112.6 L 59.48446168899536 114.37014427185059 L 59.9 114.5 L 61.4 115.0 L 62.9 115.6 L 64.3 116.3 L 65.7 117.1 L 67.0 118.0 L 68.3 119.0 L 69.5 120.0 L 70.0 124.6 L 67.3 128.2 L 62.7 128.7 L 59.1 126.0 L 59.0 125.0 L 58.9 123.9 L 58.7 122.9 L 58.4 121.7 L 57.6 119.3 L 57.0 118.0 L 56.410163974761964 116.9045901298523 L 51.6 120.3 L 46.3 123.6 L 41.0 126.4 L 36.6 128.20714282989502 L 36.6 128.9 L 88.1 128.9 L 88.1 111.26666669845581 L 85.1 113.6 L 80.6 113.0 L 77.8 109.4 L 78.0 108.6 L 78.2 107.7 L 78.2 106.7 L 78.1 105.7 L 77.9 104.5 L 77.5 103.3 L 76.9 102.0 L 76.2 100.7 L 75.4 99.2 L 75.30888299942016 99.14142484664917 L 71.2 103.6 L 70.76849317550659 104.0315068244934 L 73.6 106.5 L 77.3 110.1 L 80.8 113.9 L 84.2 117.9 L 85.1 122.4 L 82.6 126.3 L 78.2 127.2 L 74.3 124.8 L 71.8 120.9 Z M 41.1 106.9 L 40.7 104.7 L 40.4 103.5 L 40.0 102.3 L 39.5 101.0 L 38.9 99.7 L 37.8 98.9 L 38.7 97.4 L 40.0 98.1 L 41.6 98.4 L 44.6 99.4 L 47.4 101.0 L 48.7 102.0 L 51.1 104.4 L 52.2 105.8 L 52.0 110.3 L 48.8 113.5 L 44.2 113.3 L 41.0 110.1 L 41.1 109.0 Z M 106.0 36.1 L 106.0 65.6 L 119.63571424484253 65.6 L 119.4 65.3 L 122.7 61.9 L 125.8 58.5 L 128.8 55.2 L 131.8 52.1 L 134.7 49.1 L 137.4 46.1 L 140.0 43.3 L 142.5 40.5 L 144.8 37.8 L 146.18518514633178 36.1 Z M 61.4 57.4 L 60.1 55.2 L 58.6 53.0 L 56.8 50.7 L 54.8 48.4 L 52.6 46.1 L 50.2 43.7 L 47.5 41.3 L 44.4 39.2 L 45.2 37.6 L 48.8 39.0 L 52.4 40.2 L 55.7 41.6 L 58.9 43.2 L 61.8 44.9 L 64.6 46.8 L 67.2 48.9 L 69.6 51.1 L 71.8 53.4 L 73.7 55.9 L 74.2 60.5 L 71.4 64.1 L 66.9 64.6 L 63.2 61.8 L 62.4 59.6 Z " />
</g>
</svg>
