<svg xmlns="http://www.w3.org/2000/svg" xmlns:xlink="http://www.w3.org/1999/xlink" version="1.1" baseProfile="full" viewBox="0 0 200 200" width="200" height="200">
<g fill="black">
<path d="M 171.5 180.5 L 169.8 182.2 L 167.9 183.7 L 165.9 185.0 L 163.7 186.1 L 161.4 186.9 L 159.1 187.5 L 156.6 187.8 L 154.1 188.0 L 154.1 182.0 L 134.1 179.0 L 134.1 176.0 L 154.1 176.0 L 155.5 175.9 L 156.8 175.7 L 158.0 175.4 L 159.0 175.1 L 160.0 174.6 L 160.9 174.0 L 161.8 173.3 L 162.6 172.5 L 163.4 171.5 L 164.2 170.3 L 164.9 168.9 L 165.7 166.5 L 166.5 163.4 L 167.3 159.4 L 168.1 154.7 L 168.7 149.3 L 169.3 143.2 L 169.8 136.4 L 170.3 128.9 L 170.51585369110109 123.0 L 143.1279411315918 123.0 L 143.1 123.2 L 140.2 135.6 L 136.3 147.0 L 131.4 157.1 L 125.6 166.1 L 118.7 173.8 L 110.9 180.2 L 102.2 185.2 L 92.7 188.8 L 92.0 187.1 L 100.3 182.0 L 107.6 176.1 L 113.9 169.4 L 119.3 161.8 L 123.9 153.3 L 127.6 143.7 L 130.5 133.2 L 132.24358978271485 123.0 L 98.6 123.0 L 98.6 119.0 L 132.73622045516967 119.0 L 133.7 108.8 L 133.9 94.9 L 133.92940454483033 94.90024499893188 L 133.98529415130616 93.0 L 111.6 93.0 L 111.6 100.0 L 99.6 106.0 L 99.6 20.0 L 111.6 26.0 L 167.5 26.0 L 173.5 21.0 L 184.5 30.0 L 179.5 34.0 L 179.5 97.0 L 167.5 103.0 L 167.5 93.0 L 136.3800000190735 93.0 L 145.9 95.0 L 148.9 97.0 L 145.65675678253174 98.94594593048096 L 145.0 109.6 L 143.68676471710205 119.0 L 170.6 119.0 L 176.6 114.0 L 187.6 123.0 L 182.6 126.0 L 182.3639344215393 126.09836063385009 L 182.2 129.5 L 181.8 137.2 L 181.3 144.2 L 180.7 150.6 L 179.9 156.4 L 179.1 161.5 L 178.2 166.1 L 177.2 170.0 L 176.0 173.5 L 174.4 176.5 L 173.1 178.6 Z M 17.1 188.4 L 14.7 184.5 L 15.6 180.1 L 17.2 178.1 L 18.8 175.7 L 20.3 173.0 L 21.7 169.9 L 23.1 166.5 L 24.3 162.7 L 25.4 158.5 L 26.5 154.0 L 27.5 149.2 L 28.3 144.0 L 30.1 144.0 L 30.7 149.3 L 31.2 154.3 L 31.4 159.2 L 31.3 163.8 L 30.9 168.2 L 30.3 172.4 L 29.5 176.3 L 28.4 180.1 L 27.1 183.6 L 25.4 186.9 L 21.6 189.3 Z M 62.3 168.5 L 61.9 165.9 L 61.4 163.3 L 60.7 160.6 L 59.8 158.0 L 58.8 155.3 L 57.5 152.6 L 56.2 149.8 L 54.3 147.3 L 55.6 146.0 L 58.1 148.1 L 60.8 150.0 L 63.2 152.2 L 65.4 154.6 L 67.4 157.1 L 69.2 159.9 L 70.9 162.7 L 72.3 165.7 L 73.5 168.9 L 74.5 172.1 L 73.3 176.5 L 69.4 178.9 L 65.0 177.7 L 62.6 173.8 L 62.5 171.2 Z M 46.1 182.9 L 42.2 180.7 L 40.8 176.3 L 41.4 174.1 L 41.8 171.7 L 42.1 169.2 L 42.3 166.5 L 42.3 163.7 L 42.1 160.7 L 41.8 157.5 L 41.4 154.2 L 41.0 150.7 L 40.0 147.2 L 41.6 146.5 L 43.4 149.8 L 45.4 152.9 L 47.1 156.0 L 48.5 159.1 L 49.7 162.2 L 50.8 165.3 L 51.6 168.4 L 52.2 171.5 L 52.6 174.5 L 52.8 177.6 L 50.5 181.6 Z M 82.7 164.0 L 81.8 161.5 L 80.9 159.1 L 79.8 156.7 L 78.5 154.3 L 77.1 152.0 L 75.6 149.6 L 73.9 147.3 L 71.9 145.3 L 72.9 143.8 L 75.5 145.3 L 78.3 146.6 L 80.9 148.2 L 83.4 150.1 L 85.7 152.1 L 87.9 154.3 L 90.0 156.8 L 91.9 159.4 L 93.6 162.2 L 95.2 165.1 L 94.9 169.7 L 91.6 172.8 L 87.0 172.5 L 83.9 169.1 L 83.4 166.5 Z M 24.9 138.0 L 24.9 65.59473686218261 L 24.3 66.4 L 20.3 71.1 L 16.1 75.5 L 14.6 74.4 L 17.2 69.0 L 22.4 58.0 L 24.9 52.3 L 27.5 46.5 L 29.9 40.6 L 32.2 34.4 L 34.5 28.1 L 36.7 21.6 L 38.401386451721194 15.900355529785156 L 38.4 15.9 L 38.407317066192626 15.880487823486328 L 38.7 14.9 L 38.76627902984619 14.923255825042725 L 39.3 13.5 L 50.1 18.9 L 52.3 21.7 L 48.604737281799316 22.477950000762938 L 47.3 25.6 L 44.5 32.1 L 44.07142858505249 33.0 L 65.6 33.0 L 71.6 28.0 L 82.6 37.0 L 77.6 40.0 L 74.86896553039551 41.13793106079102 L 74.4 41.9 L 72.5 44.6 L 70.5 47.3 L 68.1 50.1 L 65.5 53.0 L 62.6 56.0 L 59.5 59.1 L 55.9 62.2 L 53.93636360168457 64.0 L 75.1 64.0 L 81.1 59.0 L 92.1 68.0 L 87.1 72.0 L 87.1 132.0 L 75.1 138.0 L 75.1 132.0 L 36.9 132.0 Z M 36.9 100.0 L 36.9 128.0 L 50.0 128.0 L 50.0 100.0 Z M 62.0 100.0 L 62.0 128.0 L 75.1 128.0 L 75.1 100.0 Z M 36.9 68.0 L 36.9 96.0 L 50.0 96.0 L 50.0 68.0 Z M 62.0 68.0 L 62.0 96.0 L 75.1 96.0 L 75.1 68.0 Z M 111.6 61.0 L 111.6 89.0 L 134.0 89.0 L 134.0 61.0 Z M 146.0 61.0 L 146.0 89.0 L 167.5 89.0 L 167.5 61.0 Z M 42.16666669845581 37.0 L 41.5 38.4 L 38.3 44.5 L 35.0 50.3 L 31.6 55.9 L 28.93216781616211 60.01608390808106 L 36.9 64.0 L 51.26341466903686 64.0 L 53.7 60.3 L 56.0 56.3 L 58.1 52.5 L 59.9 49.0 L 61.6 45.8 L 63.0 42.7 L 64.1 39.9 L 64.9 37.4 L 65.0043478012085 37.0 Z M 111.6 30.0 L 111.6 57.0 L 134.0 57.0 L 134.0 30.0 Z M 146.0 30.0 L 146.0 57.0 L 167.5 57.0 L 167.5 30.0 Z " />
</g>
</svg>
