<svg xmlns="http://www.w3.org/2000/svg" xmlns:xlink="http://www.w3.org/1999/xlink" version="1.1" baseProfile="full" viewBox="0 0 200 200" width="200" height="200">
<g fill="black">
<path d="M 156.8 169.4 L 148.0 160.7 L 140.2 151.0 L 138.62149381637573 148.50266189575194 L 132.2 156.9 L 121.9 167.3 L 110.5 176.1 L 97.9 183.3 L 84.2 188.8 L 83.6 187.1 L 96.0 180.0 L 101.2335657119751 176.2021912574768 L 100.5 176.3 L 96.7 173.7 L 96.1 172.1 L 95.3 170.4 L 94.3 168.6 L 93.1 166.9 L 91.6 165.1 L 90.0 163.3 L 88.1 161.5 L 86.0 159.6 L 83.7 157.7 L 81.0 156.2 L 81.7 154.6 L 84.7 155.5 L 87.8 156.1 L 90.7 157.0 L 93.4 158.0 L 96.0 159.2 L 98.5 160.5 L 100.8 161.9 L 103.0 163.6 L 105.1 165.4 L 106.9 167.4 L 107.5488335609436 171.57107305526733 L 117.3 162.6 L 126.3 152.1 L 133.79200963974 140.8619854927063 L 133.5 140.4 L 127.8 128.9 L 123.1 116.5 L 119.5 103.2 L 117.1 89.1 L 116.40118341445923 80.36479291915893 L 112.4 86.7 L 107.1 93.8 L 101.4 100.5 L 100.0 99.4 L 103.9 91.8 L 107.7 84.0 L 111.4 76.1 L 114.8 67.9 L 118.0 59.6 L 120.9 50.9 L 123.6 42.0 L 126.0 32.9 L 128.2 23.4 L 129.81410579681398 14.701763248443603 L 129.8 14.7 L 129.90769233703614 14.197435855865479 L 130.0 13.7 L 130.0136652946472 13.702895164489746 L 130.4 11.9 L 141.8 16.2 L 144.3 18.7 L 140.8284790992737 19.899252700805665 L 139.2 26.1 L 136.3 35.8 L 133.1 45.1 L 129.6 54.1 L 126.58620691299438 61.0 L 165.4 61.0 L 175.4 51.0 L 187.4 61.0 L 187.4 65.0 L 168.38010473251342 65.0 L 165.6 82.7 L 161.3 100.4 L 155.8 116.7 L 149.1 131.5 L 144.4543628692627 139.54052572250367 L 148.3 144.8 L 156.0 153.0 L 164.3 160.3 L 173.5 166.6 L 183.4 172.1 L 188.6 174.8 L 177.3 183.8 L 166.6 177.1 Z M 14.4 186.1 L 13.1 181.8 L 15.1 177.7 L 16.9 176.6 L 18.6 175.3 L 20.2 173.8 L 21.7 172.0 L 23.1 170.0 L 24.4 167.6 L 25.7 165.0 L 26.8 162.1 L 27.8 158.9 L 28.3 155.3 L 30.1 155.3 L 30.4 159.0 L 30.8 162.6 L 30.9 166.0 L 30.7 169.4 L 30.2 172.6 L 29.4 175.8 L 28.2 178.8 L 26.7 181.7 L 24.9 184.4 L 22.8 186.9 L 18.4 188.2 Z M 70.6 172.9 L 70.2 171.3 L 69.5 169.5 L 68.6 167.7 L 67.4 165.8 L 66.0 163.8 L 64.3 161.7 L 62.4 159.5 L 59.9 157.7 L 60.8 156.1 L 63.7 157.5 L 66.5 158.6 L 69.2 159.8 L 71.7 161.2 L 74.0 162.7 L 76.1 164.4 L 78.0 166.2 L 79.7 168.3 L 81.2 170.5 L 82.4 172.9 L 81.6 177.4 L 78.0 180.2 L 73.5 179.5 L 70.7 175.8 L 70.7 174.4 Z M 49.6 183.0 L 45.8 180.5 L 44.8 176.0 L 45.3 175.1 L 45.8 174.0 L 46.1 172.7 L 46.3 171.1 L 46.2 169.3 L 46.0 167.3 L 45.6 165.1 L 44.9 162.7 L 44.1 160.2 L 42.7 157.8 L 44.1 156.7 L 46.0 158.9 L 48.1 160.8 L 49.9 162.8 L 51.6 164.8 L 53.0 166.8 L 54.2 168.9 L 55.2 171.1 L 56.0 173.4 L 56.4 175.8 L 56.6 178.2 L 54.0 182.0 Z M 52.6 70.0 L 54.2 73.3 L 50.353191471099855 73.3 L 49.4 74.7 L 47.390909099578856 77.3 L 74.4 77.3 L 75.09230766296386 76.72307691574096 L 75.2 76.4 L 75.36838483810425 76.49301261901856 L 80.4 72.3 L 91.4 81.3 L 86.4 84.3 L 81.6226414680481 86.29056606292724 L 79.9 87.7 L 77.5 89.4 L 74.8 91.2 L 71.8 93.0 L 68.6 94.9 L 64.9 96.8 L 61.0 98.7 L 60.81363639831543 98.8 L 85.9 98.8 L 91.9 93.8 L 102.9 102.8 L 97.9 106.8 L 97.9 147.3 L 85.9 153.3 L 85.9 147.3 L 37.3 147.3 L 25.3 153.3 L 25.3 99.87441864013672 L 22.4 102.1 L 17.8 105.1 L 13.1 107.8 L 11.9 106.4 L 15.4 102.2 L 18.8 98.2 L 25.4 90.0 L 28.5 85.9 L 31.5 81.7 L 34.4 77.4 L 37.2 73.0 L 39.8 68.5 L 41.880322265625 64.73941745758057 L 41.8 64.7 L 42.70588235855102 63.3 L 15.8 63.3 L 15.8 59.3 L 55.6 59.3 L 55.6 38.3 L 18.9 38.3 L 18.9 34.3 L 55.6 34.3 L 55.6 12.1 L 67.6 14.1 L 70.6 16.1 L 67.6 17.9 L 67.6 34.3 L 82.3 34.3 L 92.3 24.3 L 104.3 34.3 L 104.3 38.3 L 67.6 38.3 L 67.6 59.3 L 89.21818180084229 59.3 L 97.4 50.3 L 107.4 59.3 L 107.4 63.3 L 43.315714263916014 63.3 Z M 37.3 125.1 L 37.3 143.3 L 55.6 143.3 L 55.6 125.1 Z M 67.6 125.1 L 67.6 143.3 L 85.9 143.3 L 85.9 125.1 Z M 124.71325302124023 65.0 L 121.7 71.1 L 118.44504022598267 76.8865951538086 L 121.2 88.3 L 125.2 101.6 L 129.9 114.0 L 135.3 125.3 L 138.88197145462036 131.19292068481445 L 140.8 127.5 L 146.4 113.2 L 150.9 97.6 L 154.4 80.6 L 156.35 65.0 Z M 37.3 102.8 L 37.3 121.1 L 55.6 121.1 L 55.6 102.8 Z M 67.6 102.8 L 67.6 121.1 L 85.9 121.1 L 85.9 102.8 Z M 44.15813951492309 81.3 L 42.4 83.4 L 38.7 87.5 L 34.9 91.5 L 30.9 95.2 L 30.60526313781738 95.45263156890869 L 37.3 98.8 L 56.6 98.8 L 59.4 96.4 L 62.5 93.3 L 65.2 90.5 L 67.7 87.9 L 69.8 85.4 L 71.6 83.1 L 72.86000003814698 81.3 Z " />
</g>
</svg>
