<svg xmlns="http://www.w3.org/2000/svg" xmlns:xlink="http://www.w3.org/1999/xlink" version="1.1" baseProfile="full" viewBox="0 0 200 200" width="200" height="200">
<g fill="black">
<path d="M 92.2 185.2 L 92.1 180.6 L 95.2 177.3 L 97.0 176.7 L 98.8 175.7 L 100.7 174.2 L 102.6 172.0 L 104.4 169.3 L 106.2 166.0 L 107.8 162.1 L 109.4 157.6 L 110.9 152.5 L 112.1 146.9 L 113.9 147.0 L 114.0 152.9 L 114.0 158.4 L 113.6 163.5 L 112.8 168.1 L 111.7 172.5 L 110.3 176.4 L 108.4 180.0 L 106.1 183.2 L 103.3 186.0 L 100.1 188.2 L 95.5 188.3 Z M 31.0 176.0 L 47.0 176.0 L 48.2 175.9 L 49.1 175.7 L 50.0 175.4 L 50.4 175.0 L 50.7 174.1 L 50.9 173.2 L 51.0 172.0 L 51.0 142.0 L 14.0 142.0 L 14.0 138.0 L 77.0 138.0 L 87.0 128.0 L 99.0 138.0 L 99.0 142.0 L 63.0 142.0 L 63.0 172.0 L 62.8 174.5 L 62.4 177.0 L 61.6 179.4 L 60.3 181.7 L 58.7 183.7 L 56.7 185.3 L 54.4 186.6 L 52.0 187.4 L 49.5 187.8 L 47.0 188.0 L 47.0 182.0 L 31.0 179.0 Z M 175.5 176.9 L 174.9 173.7 L 174.2 170.4 L 172.4 163.4 L 171.2 159.8 L 168.8 152.2 L 167.2 148.3 L 168.7 147.3 L 171.4 150.7 L 174.0 153.9 L 176.4 157.2 L 178.6 160.6 L 180.6 163.9 L 182.5 167.3 L 184.1 170.7 L 185.6 174.1 L 188.0 180.9 L 187.0 185.3 L 183.2 187.9 L 178.7 186.9 L 176.2 183.1 L 175.9 180.1 Z M 127.9 175.1 L 128.0 172.4 L 128.0 169.5 L 127.9 166.5 L 127.6 163.4 L 127.3 160.0 L 126.9 156.6 L 126.5 152.9 L 125.6 149.2 L 127.3 148.6 L 129.0 152.0 L 130.9 155.3 L 132.6 158.5 L 134.1 161.7 L 135.3 164.9 L 136.5 168.0 L 137.4 171.0 L 138.2 174.0 L 138.9 177.0 L 139.3 180.0 L 137.5 184.2 L 133.3 186.0 L 129.1 184.2 L 127.3 180.0 L 127.7 177.6 Z M 151.4 174.7 L 151.2 171.8 L 150.9 168.8 L 150.4 165.7 L 149.8 162.4 L 148.9 159.1 L 148.0 155.6 L 146.9 151.9 L 145.4 148.3 L 146.9 147.3 L 149.4 150.5 L 151.9 153.6 L 154.1 156.7 L 156.0 159.9 L 157.8 163.2 L 159.3 166.4 L 160.6 169.7 L 161.6 173.0 L 162.5 176.4 L 163.1 179.7 L 161.5 184.0 L 157.4 185.9 L 153.1 184.3 L 151.1 180.2 L 151.3 177.5 Z M 41.8 153.6 L 43.5 156.8 L 39.52151536941528 157.00578365325927 L 37.3 160.0 L 34.8 163.0 L 32.2 166.0 L 29.5 168.9 L 26.6 171.6 L 23.6 174.3 L 20.4 176.9 L 17.0 179.2 L 13.6 181.6 L 12.3 180.3 L 14.8 177.0 L 19.2 170.4 L 23.2 164.0 L 26.8 157.6 L 28.4 154.4 L 30.789643669128417 148.93795728683472 L 30.7 148.9 L 31.7 147.0 Z M 82.2 165.8 L 81.1 163.9 L 79.8 161.9 L 78.4 160.0 L 76.9 158.2 L 75.3 156.3 L 73.5 154.5 L 71.7 152.6 L 69.5 151.2 L 70.2 149.6 L 72.8 150.5 L 75.5 151.1 L 78.1 152.0 L 80.7 153.1 L 83.1 154.3 L 85.5 155.8 L 87.8 157.4 L 90.0 159.1 L 92.1 161.0 L 94.2 163.1 L 95.1 167.5 L 92.7 171.4 L 88.2 172.3 L 84.3 169.9 L 83.3 167.8 Z M 109.2 140.0 L 109.2 66.21666669845581 L 105.1 71.0 L 100.0 76.5 L 98.5 75.4 L 102.0 68.9 L 105.4 62.5 L 108.5 56.3 L 111.4 50.1 L 114.1 44.1 L 116.4 38.1 L 118.5 32.1 L 120.2 26.2 L 121.7 20.4 L 122.71337451934815 15.502023029327393 L 122.7 15.5 L 123.3 12.8 L 134.6 17.3 L 137.1 19.9 L 133.44300317764282 21.07546329498291 L 132.7 23.5 L 130.4 29.6 L 130.23225803375243 30.0 L 150.5 30.0 L 156.5 25.0 L 167.5 34.0 L 162.5 37.0 L 160.7 37.75 L 160.1 39.3 L 158.7 42.6 L 157.1 45.9 L 155.3 49.4 L 153.4 53.0 L 151.3 56.6 L 148.9 60.4 L 146.2 64.3 L 145.0949999809265 66.0 L 167.9 66.0 L 173.9 61.0 L 184.9 70.0 L 179.9 74.0 L 179.9 134.0 L 167.9 140.0 L 167.9 134.0 L 121.2 134.0 Z M 121.2 101.0 L 121.2 130.0 L 138.2 130.0 L 138.2 101.0 Z M 150.2 101.0 L 150.2 130.0 L 167.9 130.0 L 167.9 101.0 Z M 87.0 120.0 L 87.0 124.0 L 25.0 124.0 L 25.0 120.0 L 68.81818180084228 120.0 L 77.0 111.0 Z M 94.2 56.1 L 89.2 59.1 L 89.2 106.6 L 79.2 111.6 L 79.2 106.6 L 32.7 106.6 L 22.7 111.6 L 22.7 47.1 L 32.7 52.1 L 79.2 52.1 L 84.2 47.1 Z M 32.7 56.1 L 32.7 102.6 L 79.2 102.6 L 79.2 56.1 Z M 121.2 70.0 L 121.2 97.0 L 138.2 97.0 L 138.2 70.0 Z M 150.2 70.0 L 150.2 97.0 L 167.9 97.0 L 167.9 70.0 Z M 77.2 71.9 L 72.2 74.4 L 72.2 89.3 L 63.2 93.8 L 63.2 89.3 L 48.7 89.3 L 39.7 93.8 L 39.7 63.4 L 48.7 67.9 L 63.2 67.9 L 67.7 62.9 Z M 48.7 71.9 L 48.7 85.3 L 63.2 85.3 L 63.2 71.9 Z M 128.55483875274658 34.0 L 127.8 35.8 L 124.9 41.8 L 121.7 47.8 L 118.1 53.8 L 114.2 59.6 L 112.63144655227661 61.71572322845459 L 121.2 66.0 L 142.45652170181273 66.0 L 143.5 63.0 L 144.7 58.5 L 145.9 54.3 L 146.9 50.3 L 147.9 46.5 L 148.7 42.9 L 149.4 39.6 L 150.0 36.4 L 150.3310344696045 34.0 Z M 12.7 35.3 L 50.0 35.3 L 50.0 13.0 L 62.0 15.0 L 65.0 17.0 L 62.0 18.8 L 62.0 35.3 L 81.01818180084229 35.3 L 89.2 26.3 L 99.2 35.3 L 99.2 39.3 L 12.7 39.3 Z " />
</g>
</svg>
