<?xml version="1.0" encoding="UTF-8" standalone="no"?>
<svg
   version="1.1"
   viewBox="-10 0 16 16"
   id="svg4"
   sodipodi:docname="3100_v2.svg"
   width="16"
   height="16"
   inkscape:version="1.2-dev (581924a2, 2021-09-04)"
   inkscape:export-filename="D:\Projects\Unicodia\Bitmaps\Scripts\3100.png"
   inkscape:export-xdpi="96"
   inkscape:export-ydpi="96"
   xmlns:inkscape="http://www.inkscape.org/namespaces/inkscape"
   xmlns:sodipodi="http://sodipodi.sourceforge.net/DTD/sodipodi-0.dtd"
   xmlns="http://www.w3.org/2000/svg"
   xmlns:svg="http://www.w3.org/2000/svg">
  <defs
     id="defs8" />
  <sodipodi:namedview
     id="namedview6"
     pagecolor="#fff0f5"
     bordercolor="#666666"
     borderopacity="1.0"
     inkscape:pageshadow="2"
     inkscape:pageopacity="1"
     inkscape:pagecheckerboard="0"
     showgrid="true"
     inkscape:snap-global="false"
     inkscape:zoom="23.53125"
     inkscape:cx="11.814077"
     inkscape:cy="15.213811"
     inkscape:window-width="1680"
     inkscape:window-height="998"
     inkscape:window-x="-8"
     inkscape:window-y="-8"
     inkscape:window-maximized="1"
     inkscape:current-layer="svg4">
    <inkscape:grid
       type="xygrid"
       id="grid2045" />
  </sodipodi:namedview>
  <text
     xml:space="preserve"
     style="font-weight:bold;font-size:10px;line-height:1.25;font-family:'MS Gothic';-inkscape-font-specification:'MS Gothic Bold';text-align:center;letter-spacing:0px;word-spacing:0px;text-anchor:middle"
     x="-1.9681273"
     y="19.505976"
     id="text16431"><tspan
       sodipodi:role="line"
       id="tspan16429"></tspan></text>
  <text
     xml:space="preserve"
     style="font-weight:bold;font-size:10px;line-height:1.25;font-family:'Noto Serif CJK SC';-inkscape-font-specification:'Noto Serif CJK SC Bold';text-align:center;letter-spacing:0px;word-spacing:0px;text-anchor:middle"
     x="-2.7330675"
     y="20.86587"
     id="text19867"><tspan
       sodipodi:role="line"
       id="tspan19865"
       x="-2.7330675"
       y="20.86587" /></text>
  <g
     aria-label="ㄉ"
     id="text48416"
     style="font-weight:bold;font-size:20.0496px;line-height:1.25;font-family:'Noto Serif CJK SC';-inkscape-font-specification:'Noto Serif CJK SC Bold';text-align:center;letter-spacing:0px;word-spacing:0px;text-anchor:middle;fill:#5c3566">
    <path
       d="M 3.5992164,6.358659 C 3.3586212,6.0378654 3.0779268,5.757171 2.7972324,5.556675 2.3360916,5.2759806 1.8348515,5.155683 1.3937603,5.1356334 c -1.48367042,-0.080198 -3.7292257,0.100248 -6.1953266,0.3608928 0,0 2.3257537,-2.2856545 2.7668449,-2.6465473 0.300744,-0.2205456 0.50124,-0.4611408 0.2405952,-0.8420832 C -2.054771,1.6269533 -2.355515,1.3663085 -2.6362094,1.1858621 c -0.5212896,-0.34084326 -0.6415872,-0.080198 -0.50124,0.3207936 0.100248,0.300744 0.1403472,0.5212896 0.02005,0.8220336 -0.3809424,0.8621328 -2.1052081,2.6665969 -2.8069441,3.0876385 -0.6215376,0.3608928 -0.9222816,0.4210416 -0.8420832,0.902232 0.1202976,0.6215376 0.1403472,0.4410912 0.9824304,0.2205456 0.9824304,-0.2606448 2.6264977,-0.4811904 4.1703169,-0.5814384 -1.3834224,2.7868945 -3.4284817,5.373293 -5.9948305,6.877013 -1.2029761,0.701736 -1.1829265,1.162877 0.3408432,0.52129 2.7267456,-1.182927 5.3933425,-4.1302181 6.81686417,-7.4384022 0.80198402,-0.02005 1.48367043,0.02005 1.94481123,0.1202976 C 2.4764388,6.258411 2.5566372,6.759651 2.3962404,7.4012382 1.9952483,8.9250079 0.99276831,11.230712 0.15068509,12.413638 c -0.80198403,1.062629 -0.80198403,1.182927 -1.46362089,0.922282 -0.8220336,-0.340843 -1.2230256,-0.621538 -1.5638688,-0.801984 -0.6616368,-0.380942 -0.7618848,-0.220546 -0.4210416,0.220546 0.6616368,0.801984 1.2831744,1.403472 1.5438192,1.764364 0.4210416,0.641588 0.50124,0.701736 1.38342247,-0.0401 C 1.7346035,12.794581 3.3385716,7.7420815 3.6393156,7.4012382 4.0002084,6.960147 3.9400596,6.8197998 3.5992164,6.358659 Z"
       style="font-size:medium"
       id="path56350" />
  </g>
</svg>
