<?xml version="1.0" encoding="UTF-8" standalone="no"?>
<!-- Created with Inkscape (http://www.inkscape.org/) -->

<svg
   width="16"
   height="16"
   viewBox="0 0 16 16"
   version="1.1"
   id="svg5"
   inkscape:version="1.2.2 (732a01da63, 2022-12-09)"
   sodipodi:docname="1D100.svg"
   inkscape:export-filename="..\0000.png"
   inkscape:export-xdpi="96"
   inkscape:export-ydpi="96"
   xml:space="preserve"
   xmlns:inkscape="http://www.inkscape.org/namespaces/inkscape"
   xmlns:sodipodi="http://sodipodi.sourceforge.net/DTD/sodipodi-0.dtd"
   xmlns="http://www.w3.org/2000/svg"
   xmlns:svg="http://www.w3.org/2000/svg"><sodipodi:namedview
     id="namedview7"
     pagecolor="#cccccc"
     bordercolor="#8d8d8d"
     borderopacity="1"
     inkscape:pageshadow="2"
     inkscape:pageopacity="0"
     inkscape:pagecheckerboard="0"
     inkscape:document-units="px"
     showgrid="true"
     width="16mm"
     units="px"
     inkscape:zoom="137.88582"
     inkscape:cx="8.7354884"
     inkscape:cy="9.8269712"
     inkscape:window-width="1680"
     inkscape:window-height="998"
     inkscape:window-x="-8"
     inkscape:window-y="-8"
     inkscape:window-maximized="1"
     inkscape:current-layer="layer1"
     showguides="true"
     inkscape:guide-bbox="true"
     inkscape:snap-bbox="true"
     inkscape:bbox-paths="true"
     inkscape:bbox-nodes="true"
     inkscape:snap-global="true"
     inkscape:showpageshadow="2"
     inkscape:deskcolor="#cccccc"><inkscape:grid
       type="xygrid"
       id="grid828"
       originx="0"
       originy="0"
       spacingx="1"
       spacingy="1" /></sodipodi:namedview><defs
     id="defs2" /><g
     inkscape:label="Layer 1"
     inkscape:groupmode="layer"
     id="layer1"><path
       d="m 4.1983969,13.905811 c 0,-1.421785 1.4905791,-2.426853 2.7915831,-2.426853 0.4208417,0 0.757515,0.112224 1.01002,0.336673 V 0.99999996 H 8.3647294 C 8.4361026,1.690005 8.5842882,2.3409671 9.2905819,2.9148296 9.6820789,3.232927 11.016635,4.3800039 11.57014,5.6573145 c 0.369114,0.8517934 0.333578,1.8208417 0.07715,2.7915832 0.248298,0.3628982 0.370776,0.938584 0.367457,1.5666993 -0.0045,0.858264 -0.679083,1.799912 -1.153302,2.444848 H 10.484701 C 12.314053,9.6338322 11.438093,8.1198556 8.3647294,6.5831662 V 12.755511 C 8.3647294,14.006857 6.9516974,15 5.6292586,15 5.3268334,15 4.1983969,14.931298 4.1983969,13.905811 Z M 11.240106,7.7945499 C 11.967221,6.1594039 9.903744,4.4102777 8.4488955,3.6092183 c 0,0.5180519 0,1.3565986 1.5991985,2.8617234 0.51063,0.5072358 1.010975,0.9900289 1.192012,1.3236082 z"
       id="path305"
       style="stroke-width:1"
       sodipodi:nodetypes="ssccccscscccssscccc" /><rect
       style="fill:#000000;stroke:none;stroke-width:0.999997;stroke-linecap:round;stroke-linejoin:round;stop-color:#000000"
       id="rect372"
       width="0.3"
       height="12"
       x="8"
       y="1" /></g></svg>
