<?xml version="1.0" encoding="UTF-8" standalone="no"?>
<!-- Created with Inkscape (http://www.inkscape.org/) -->

<svg
   width="16"
   height="16"
   viewBox="0 0 16 16"
   version="1.1"
   id="svg5"
   inkscape:version="1.2.2 (732a01da63, 2022-12-09)"
   sodipodi:docname="11F00.svg"
   inkscape:export-filename="..\0000.png"
   inkscape:export-xdpi="96"
   inkscape:export-ydpi="96"
   xml:space="preserve"
   xmlns:inkscape="http://www.inkscape.org/namespaces/inkscape"
   xmlns:sodipodi="http://sodipodi.sourceforge.net/DTD/sodipodi-0.dtd"
   xmlns="http://www.w3.org/2000/svg"
   xmlns:svg="http://www.w3.org/2000/svg"><sodipodi:namedview
     id="namedview7"
     pagecolor="#ffffff"
     bordercolor="#666666"
     borderopacity="1.0"
     inkscape:pageshadow="2"
     inkscape:pageopacity="0"
     inkscape:pagecheckerboard="0"
     inkscape:document-units="px"
     showgrid="true"
     width="16mm"
     units="px"
     inkscape:zoom="23.5625"
     inkscape:cx="-1.3793103"
     inkscape:cy="14.047745"
     inkscape:window-width="1680"
     inkscape:window-height="998"
     inkscape:window-x="-8"
     inkscape:window-y="-8"
     inkscape:window-maximized="1"
     inkscape:current-layer="layer1"
     showguides="true"
     inkscape:guide-bbox="true"
     inkscape:snap-bbox="true"
     inkscape:bbox-paths="true"
     inkscape:bbox-nodes="true"
     inkscape:snap-global="true"
     inkscape:showpageshadow="2"
     inkscape:deskcolor="#ffffff"><inkscape:grid
       type="xygrid"
       id="grid828"
       originx="0"
       originy="0" /></sodipodi:namedview><defs
     id="defs2" /><g
     inkscape:label="Layer 1"
     inkscape:groupmode="layer"
     id="layer1"><path
       fill="currentColor"
       d="m 3.737105,10.108456 c 0,0.77399 0.1938566,1.222634 1.3377706,1.597427 l -0.579035,1.496323 C 2.636751,12.756288 2,11.97266 2,10.068014 V 4.9926469 C 2,3.6285479 2.5877306,2 5.3943432,2 H 10.605658 C 12.281987,2 14,2.5868522 14,4.9926469 V 13 H 12.262896 V 5.1139705 c 0,-1.0260958 -0.544133,-1.5772058 -1.557404,-1.5772058 H 5.2945096 c -0.2775056,0 -1.5574046,0.018008 -1.5574046,1.5772058 z M 6.9034934,4.5073528 C 8.658732,5.1256397 9,5.7373328 9,7.338235 V 13 H 7.2628945 V 7.6011027 c 0,-1.0138136 -0.1005551,-1.3425964 -1.0582364,-1.6783087 z"
       id="path243"
       style="fill:#006400;fill-opacity:1;stroke-width:0.999998"
       sodipodi:nodetypes="sccsssssccssssscsccscc" /></g></svg>
