<?xml version="1.0" encoding="UTF-8" standalone="no"?>
<svg
   version="1.1"
   viewBox="-10 0 645 1000"
   id="svg4"
   sodipodi:docname="1DF07.svg"
   inkscape:version="1.1.1 (3bf5ae0d25, 2021-09-20)"
   xmlns:inkscape="http://www.inkscape.org/namespaces/inkscape"
   xmlns:sodipodi="http://sodipodi.sourceforge.net/DTD/sodipodi-0.dtd"
   xmlns="http://www.w3.org/2000/svg"
   xmlns:svg="http://www.w3.org/2000/svg">
  <defs
     id="defs8" />
  <sodipodi:namedview
     id="namedview6"
     pagecolor="#ffffff"
     bordercolor="#666666"
     borderopacity="1.0"
     inkscape:pageshadow="2"
     inkscape:pageopacity="0.0"
     inkscape:pagecheckerboard="0"
     showgrid="false"
     inkscape:zoom="0.719"
     inkscape:cx="321.97497"
     inkscape:cy="499.30459"
     inkscape:window-width="1680"
     inkscape:window-height="998"
     inkscape:window-x="-8"
     inkscape:window-y="-8"
     inkscape:window-maximized="1"
     inkscape:current-layer="svg4" />
  <path
     fill="currentColor"
     d="m 238,1040 v -47 h -6 Q 200,993 177.5,976.5 155,960 143.5,919.5 132,879 132,809 V 455 q 0,-65 24.5,-101 24.5,-36 85.5,-36 45,0 71.5,22.5 26.5,22.5 38,59.5 11.5,37 11.5,80 v 211 q 0,44 -24.5,55.5 Q 314,758 281,758 h -3 v 42 h 269 v -42 h -8 Q 505,758 481,745.5 457,733 457,686 V 374 q 0,-44 24.5,-56 24.5,-12 57.5,-12 h 3 V 264 H 380 l -13,81 h -5 Q 331,289 292.5,271.5 254,254 206,254 127,254 82.5,300.5 38,347 38,450 v 358 q 0,89 24,140 24,51 65.5,71.5 41.5,20.5 95.5,20.5 z"
     id="path2" />
</svg>
