<?xml version="1.0" standalone="no"?>
<!DOCTYPE svg PUBLIC "-//W3C//DTD SVG 1.1//EN" "http://www.w3.org/Graphics/SVG/1.1/DTD/svg11.dtd" >
<svg xmlns="http://www.w3.org/2000/svg" xmlns:xlink="http://www.w3.org/1999/xlink" version="1.1" viewBox="-10 0 502 1000">
   <path fill="currentColor"
d="M283 810q-66 0 -117.5 -28t-81 -88.5t-29.5 -158.5q0 -107 29.5 -168.5t80 -87t113.5 -25.5q42 0 82 11t66 33.5t26 57.5q0 34 -22.5 48.5t-66.5 14.5q0 -47 -17.5 -81t-67.5 -34q-38 0 -66.5 20t-44 70t-15.5 140q0 106 35.5 158.5t115.5 52.5q47 0 81.5 -19.5
t51.5 -50.5q17 14 17 39q0 23 -19 45t-56.5 36.5t-94.5 14.5z" />
</svg>
