<?xml version="1.0" standalone="no"?>
<!DOCTYPE svg PUBLIC "-//W3C//DTD SVG 1.1//EN" "http://www.w3.org/Graphics/SVG/1.1/DTD/svg11.dtd" >
<svg xmlns="http://www.w3.org/2000/svg" xmlns:xlink="http://www.w3.org/1999/xlink" version="1.1" viewBox="-10 0 624 1000">
   <path fill="currentColor"
d="M259 810q-99 0 -151.5 -66.5t-52.5 -210.5q0 -145 52.5 -212t151.5 -67q58 0 94.5 24.5t58.5 63.5h6q-3 -25 -4.5 -55.5t-1.5 -54.5v-82q0 -44 -24.5 -56t-57.5 -12h-8v-42h184v650q0 44 24.5 56t57.5 12h8v42h-169l-11 -90h-4q-22 46 -58 73t-95 27zM276 746
q78 0 107 -52.5t29 -160.5q0 -104 -29 -159.5t-108 -55.5q-66 0 -94.5 55.5t-28.5 160.5q0 106 28.5 159t95.5 53z" />
</svg>
