<?xml version="1.0" encoding="UTF-8" standalone="no"?>
<!DOCTYPE svg PUBLIC "-//W3C//DTD SVG 20010904//EN" "http://www.w3.org/TR/2001/REC-SVG-20010904/DTD/svg10.dtd">
<svg xmlns="http://www.w3.org/2000/svg" width="0.92in" height="2.25in" viewBox="0 0 92 225">
  <path id="G" fill="black" d="M 46.36,168.00            C 62.59,168.00 70.00,154.92 70.00,137.23              70.00,120.34 50.88,112.30 39.16,106.67              26.31,110.69 20.00,119.73 20.00,134.02              20.00,153.33 28.78,168.00 46.36,168.00              46.36,168.00 46.36,168.00 46.36,168.00 Z            M 35.61,52.80            C 29.88,52.80 26.00,58.22 26.00,64.45              26.00,74.70 32.33,83.55 45.17,91.00              45.17,91.00 63.95,101.05 63.95,101.05              75.58,107.89 87.00,116.53 87.00,133.22              87.00,160.47 73.59,174.00 46.56,174.00              24.47,174.00 6.00,159.30 6.00,136.44              6.00,118.34 19.33,108.28 35.25,104.06              19.69,95.22 12.00,85.77 12.00,75.92              12.00,67.47 16.41,59.83 25.20,52.80              25.20,52.80 1.41,52.80 1.41,52.80              1.41,52.80 4.00,39.00 4.00,39.00              4.00,39.00 85.59,39.00 85.59,39.00              85.59,39.00 82.59,52.80 82.59,52.80              82.59,52.80 35.61,52.80 35.61,52.80              35.61,52.80 35.61,52.80 35.61,52.80 Z"/>
</svg>