<?xml version="1.0" standalone="no"?>
<!DOCTYPE svg PUBLIC "-//W3C//DTD SVG 1.1//EN" "http://www.w3.org/Graphics/SVG/1.1/DTD/svg11.dtd" >
<svg xmlns="http://www.w3.org/2000/svg" xmlns:xlink="http://www.w3.org/1999/xlink" version="1.1" viewBox="-10 0 495 1000">
   <path fill="currentColor"
d="M78 49v42h13q34 0 58 12.5t24 59.5v250q61 28 99 56t55.5 64t17.5 86q0 37 -11.5 69t-37 51.5t-67.5 19.5q-64 0 -91 -36.5t-27 -95.5q-36 0 -57.5 16.5t-21.5 48.5q0 29 22.5 56t66.5 44t108 17q72 0 118.5 -27.5t69 -71.5t22.5 -96q0 -88 -43.5 -145.5t-128.5 -102.5
v-203q0 -47 24 -59.5t58 -12.5h13v-42h-284z" />
</svg>
