<?xml version="1.0" standalone="no"?>
<!DOCTYPE svg PUBLIC "-//W3C//DTD SVG 1.1//EN" "http://www.w3.org/Graphics/SVG/1.1/DTD/svg11.dtd" >
<svg xmlns="http://www.w3.org/2000/svg" xmlns:xlink="http://www.w3.org/1999/xlink" version="1.1" viewBox="-10 0 624 1000">
   <path fill="currentColor"
d="M18 1040v-42h8q34 0 58 -12.5t24 -59.5v-776q0 -44 -24.5 -56t-57.5 -12h-8v-42h184v184q0 22 -1 53t-2 54l-1 23h4q23 -46 59 -73t94 -27q99 0 151.5 66.5t52.5 210.5q0 145 -52.5 212t-151.5 67q-58 0 -94.5 -24.5t-58.5 -63.5h-4l0.5 14t1.5 34t1.5 38.5t0.5 26.5v96
q0 44 24.5 55.5t57.5 11.5h3v42h-269zM339 746q66 0 94.5 -55.5t28.5 -160.5q0 -107 -28.5 -159.5t-95.5 -52.5q-78 0 -107 52.5t-29 160.5q0 104 29 159.5t108 55.5z" />
</svg>
