<?xml version="1.0" encoding="UTF-8" standalone="no"?>
<svg
   version="1.1"
   viewBox="-10 0 614 1000"
   id="svg1"
   sodipodi:docname="Thorn2_cap2.svg"
   inkscape:version="1.4 (86a8ad7, 2024-10-11)"
   xmlns:inkscape="http://www.inkscape.org/namespaces/inkscape"
   xmlns:sodipodi="http://sodipodi.sourceforge.net/DTD/sodipodi-0.dtd"
   xmlns:xlink="http://www.w3.org/1999/xlink"
   xmlns="http://www.w3.org/2000/svg"
   xmlns:svg="http://www.w3.org/2000/svg">
  <defs
     id="defs1" />
  <sodipodi:namedview
     id="namedview1"
     pagecolor="#ffffff"
     bordercolor="#666666"
     borderopacity="1.0"
     inkscape:showpageshadow="2"
     inkscape:pageopacity="0.0"
     inkscape:pagecheckerboard="0"
     inkscape:deskcolor="#d1d1d1"
     showguides="true"
     inkscape:zoom="0.755"
     inkscape:cx="135.76159"
     inkscape:cy="506.62252"
     inkscape:window-width="1680"
     inkscape:window-height="998"
     inkscape:window-x="-8"
     inkscape:window-y="-8"
     inkscape:window-maximized="1"
     inkscape:current-layer="svg1">
    <sodipodi:guide
       position="467,567"
       orientation="0,-1"
       id="guide1"
       inkscape:locked="false" />
    <sodipodi:guide
       position="575,601.95976"
       orientation="1,0"
       id="guide8"
       inkscape:locked="false" />
    <sodipodi:guide
       position="467,567"
       orientation="1,0"
       id="guide9"
       inkscape:locked="false" />
    <sodipodi:guide
       position="244.0001,800"
       orientation="0,-1"
       id="guide10"
       inkscape:locked="false" />
    <sodipodi:guide
       position="244,670.95914"
       orientation="0,-1"
       id="guide11"
       inkscape:locked="false" />
  </sodipodi:namedview>
  <path
     d="m 227.86914,227.02539 c -0.0735,0.0251 -0.11309,0.0464 -0.18945,0.0723 -0.0571,0.0194 0.16657,-0.0514 0.17187,-0.0566 0.006,-0.005 0.0118,-0.0112 0.0176,-0.0156 z"
     id="path5" />
  <path
     d="m 234,224.03906 c -0.0673,0.0257 -0.13848,0.036 -0.20508,0.0645 -0.12974,0.0555 -0.46999,0.28402 -0.33008,0.26562 0.19123,-0.0251 0.37222,-0.13705 0.53516,-0.2207 z"
     id="path4" />
  <path
     d="m 226.5,649.125 c 0.004,0.002 0.008,0.004 0.0117,0.006 0.0605,0.0282 0.26286,0.0517 0.19726,0.0391 -0.10099,-0.0195 -0.11748,-0.0266 -0.20898,-0.0449 z"
     id="path8" />
  <path
     d="m 234,466.37363 c 90.72939,0 331,3.09196 331,-134.02151 0,-137.11347 -184.90122,-132.87854 -331,-131.85626 -11.59,50.92574 -17.87448,252.99281 0,265.87777 z m 0,-217.87777 c 128.17716,0 223,13.89854 223,83.85626 0,69.95772 -102.60562,87.61749 -222.9998,87.02151 z"
     id="path7"
     sodipodi:nodetypes="czcccccc"
     style="fill:#613583" />
  <path
     d="m 38,86 v 42 h 13 c 22.666667,0 42,4.16667 58,12.5 16,8.33333 24,28.16667 24,59.5 v 486 c 0,31.33333 -8,51.16667 -24,59.5 C 93,753.83333 73.666667,758 51,758 H 38 v 42 h 301 v -42 h -23 c -22.66667,0 -42,-4.16667 -58,-12.5 -16,-8.33333 -24,-28.16667 -24,-59.5 l 1e-4,-486 c 1e-5,-31.33333 8,-51.16667 24,-59.5 16,-8.33333 35.33333,-12.5 58,-12.5 h 23 V 86 Z"
     id="path1"
     sodipodi:nodetypes="ccssssssccccssccssccc" />
  <use
     x="0"
     y="0"
     xlink:href="#path7"
     id="use11"
     transform="matrix(1,0,0,-1,0,886.49586)" />
</svg>
