<?xml version="1.0" standalone="no"?>
<!DOCTYPE svg PUBLIC "-//W3C//DTD SVG 1.1//EN" "http://www.w3.org/Graphics/SVG/1.1/DTD/svg11.dtd" >
<svg xmlns="http://www.w3.org/2000/svg" xmlns:xlink="http://www.w3.org/1999/xlink" version="1.1" viewBox="-10 0 481 1000">
   <path fill="currentColor"
d="M123 810q-55 0 -81.5 -19.5t-26.5 -53.5q0 -32 21.5 -51.5t71.5 -19.5q0 41 12 59.5t41 18.5q28 0 47 -22t30 -56t16 -70.5t5 -65.5v-381q0 -44 -24.5 -55.5t-57.5 -11.5h-28v-42h204v650q0 44 24 56t57 12h4v42h-154l-19 -99h-5q-13 30 -28 55t-40 39.5t-69 14.5z" />
</svg>
