<?xml version="1.0" standalone="no"?>
<!DOCTYPE svg PUBLIC "-//W3C//DTD SVG 1.1//EN" "http://www.w3.org/Graphics/SVG/1.1/DTD/svg11.dtd" >
<svg xmlns="http://www.w3.org/2000/svg" xmlns:xlink="http://www.w3.org/1999/xlink" version="1.1" viewBox="-10 0 502 1000">
   <path fill="currentColor"
d="M283 1038q-107 0 -167.5 -99t-60.5 -289q0 -202 62 -299t166 -97q39 0 78 11t65 33.5t26 57.5q0 34 -22.5 48.5t-66.5 14.5q0 -47 -17.5 -81t-67.5 -34q-38 0 -66.5 30.5t-44 106.5t-15.5 212q0 161 35.5 240.5t115.5 79.5q47 0 81.5 -19.5t51.5 -50.5q17 14 17 39
q0 23 -19 45t-56.5 36.5t-94.5 14.5z" />
</svg>
