<?xml version="1.0" standalone="no"?>
<!DOCTYPE svg PUBLIC "-//W3C//DTD SVG 1.1//EN" "http://www.w3.org/Graphics/SVG/1.1/DTD/svg11.dtd" >
<svg xmlns="http://www.w3.org/2000/svg" xmlns:xlink="http://www.w3.org/1999/xlink" version="1.1" viewBox="-10 0 481 1000">
   <path fill="currentColor"
d="M438 264v42h-3q-34 0 -58 12.5t-24 59.5v312q0 44 24.5 56t57.5 12h3v42h-154l-19 -99h-5q-13 30 -28 55t-40 39.5t-69 14.5q-55 0 -81.5 -19t-26.5 -54q0 -31 21.5 -51t71.5 -20q0 41 12 59.5t41 18.5q28 0 47 -22t30 -56t16 -70.5t5 -65.5v-157q0 -44 -24.5 -55.5
t-57.5 -11.5h-28v-42h289z" />
</svg>
