<?xml version="1.0" encoding="UTF-8" standalone="no"?>
<!-- Created with Inkscape (http://www.inkscape.org/) -->

<svg
   width="14"
   height="14"
   viewBox="0 0 14 14"
   version="1.1"
   id="svg5"
   inkscape:version="1.4 (86a8ad7, 2024-10-11)"
   sodipodi:docname="2D30.svg"
   inkscape:export-filename="..\0000.png"
   inkscape:export-xdpi="96"
   inkscape:export-ydpi="96"
   xml:space="preserve"
   xmlns:inkscape="http://www.inkscape.org/namespaces/inkscape"
   xmlns:sodipodi="http://sodipodi.sourceforge.net/DTD/sodipodi-0.dtd"
   xmlns="http://www.w3.org/2000/svg"
   xmlns:svg="http://www.w3.org/2000/svg"><sodipodi:namedview
     id="namedview7"
     pagecolor="#ffffff"
     bordercolor="#666666"
     borderopacity="1.0"
     inkscape:pageshadow="2"
     inkscape:pageopacity="0"
     inkscape:pagecheckerboard="0"
     inkscape:document-units="px"
     showgrid="true"
     width="16mm"
     units="px"
     inkscape:zoom="33.322408"
     inkscape:cx="6.3770902"
     inkscape:cy="9.0779754"
     inkscape:window-width="1680"
     inkscape:window-height="998"
     inkscape:window-x="-8"
     inkscape:window-y="-8"
     inkscape:window-maximized="1"
     inkscape:current-layer="layer1"
     showguides="true"
     inkscape:guide-bbox="true"
     inkscape:snap-bbox="true"
     inkscape:bbox-paths="true"
     inkscape:bbox-nodes="true"
     inkscape:snap-global="true"
     inkscape:showpageshadow="2"
     inkscape:deskcolor="#ffffff"><inkscape:grid
       type="xygrid"
       id="grid828"
       originx="0"
       originy="0"
       spacingy="1"
       spacingx="1"
       units="px" /></sodipodi:namedview><defs
     id="defs2" /><g
     inkscape:label="Layer 1"
     inkscape:groupmode="layer"
     id="layer1"><path
       d="M 6.0077406,9.862745 C 4.2074119,10.077684 2.4242915,11.07709 1.8905479,14 H 0 C 0.21453291,12.642692 1.2414934,8.7842549 6.0077406,8.2941177 V 5.7058823 C 4.6455443,5.5657935 0.75071554,4.749559 0,0 h 1.8905479 c 0.356467,1.9520334 1.4216858,3.8154315 4.1171927,4.137255 V 0 H 7.8772827 V 4.137255 C 9.7833171,3.8889982 11.480245,2.8160432 11.994476,0 h 1.890546 C 13.674326,1.332951 12.655061,5.1722352 7.8772827,5.7058823 V 8.2941177 C 9.2287692,8.4450634 13.140316,9.288508 13.885022,14 H 11.994476 C 11.621597,11.958059 10.505996,10.205137 7.8772827,9.862745 V 14 H 6.0077406 Z"
       style="fill:#c01c28;stroke-width:0.999998"
       id="path318" /></g></svg>
