<?xml version="1.0" encoding="UTF-8" standalone="no"?>
<!-- Generator: Adobe Illustrator 13.0.2, SVG Export Plug-In . SVG Version: 6.00 Build 14948)  -->

<svg
   version="1.0"
   id="Layer_1"
   x="0px"
   y="0px"
   width="940"
   height="940"
   viewBox="5.5 -3.5 940 940"
   enable-background="new 5.5 -3.5 64 64"
   xml:space="preserve"
   sodipodi:docname="by.svg"
   inkscape:version="1.1.1 (3bf5ae0d25, 2021-09-20)"
   xmlns:inkscape="http://www.inkscape.org/namespaces/inkscape"
   xmlns:sodipodi="http://sodipodi.sourceforge.net/DTD/sodipodi-0.dtd"
   xmlns="http://www.w3.org/2000/svg"
   xmlns:svg="http://www.w3.org/2000/svg"><defs
   id="defs13" /><sodipodi:namedview
   id="namedview11"
   pagecolor="#ffffff"
   bordercolor="#666666"
   borderopacity="1.0"
   inkscape:pageshadow="2"
   inkscape:pageopacity="0.0"
   inkscape:pagecheckerboard="0"
   showgrid="false"
   inkscape:snap-page="true"
   inkscape:snap-bbox="true"
   inkscape:bbox-nodes="true"
   inkscape:zoom="0.35107422"
   inkscape:cx="366.01947"
   inkscape:cy="159.51043"
   inkscape:window-width="1680"
   inkscape:window-height="998"
   inkscape:window-x="-8"
   inkscape:window-y="-8"
   inkscape:window-maximized="1"
   inkscape:current-layer="g8" />
<g
   id="g8"
   transform="matrix(14.6875,0,0,14.6875,-75.281247,47.90625)"
   style="stroke-width:0.0680851">
	
	<g
   id="g6"
   style="stroke-width:0.0680851">
		<path
   d="m 37.443,-3.5 c 8.988,0 16.57,3.085 22.742,9.257 6.208,6.21 9.315,13.791 9.315,22.743 0,8.991 -3.049,16.476 -9.145,22.456 C 53.879,57.319 46.242,60.5 37.443,60.5 28.794,60.5 21.29,57.356 14.929,51.07 8.644,44.784 5.5,37.262 5.5,28.5 5.5,19.739 8.644,12.158 14.929,5.758 21.101,-0.415 28.604,-3.5 37.443,-3.5 Z m 0.114,5.772 c -7.276,0 -13.428,2.553 -18.457,7.657 -5.22,5.334 -7.829,11.525 -7.829,18.572 0,7.086 2.59,13.22 7.77,18.398 5.181,5.182 11.352,7.771 18.514,7.771 7.123,0 13.334,-2.607 18.629,-7.828 5.029,-4.838 7.543,-10.952 7.543,-18.343 0,-7.276 -2.553,-13.465 -7.656,-18.571 C 50.967,4.824 44.795,2.272 37.557,2.272 Z m 8.572,18.285 V 33.642 H 42.473 V 49.184 H 32.529 V 33.643 H 28.873 V 20.557 c 0,-0.572 0.2,-1.057 0.599,-1.457 0.401,-0.399 0.887,-0.6 1.457,-0.6 h 13.144 c 0.533,0 1.01,0.2 1.428,0.6 0.417,0.4 0.628,0.886 0.628,1.457 z M 33.042,12.329 c 0,-3.008 1.485,-4.514 4.458,-4.514 2.973,0 4.457,1.504 4.457,4.514 0,2.971 -1.486,4.457 -4.457,4.457 -2.971,0 -4.458,-1.486 -4.458,-4.457 z"
   id="path4"
   style="stroke-width:0.0680851" />
	</g>
</g>
</svg>
