<?xml version="1.0" encoding="UTF-8" standalone="no"?>
<!-- Generator: Adobe Illustrator 25.2.3, SVG Export Plug-In . SVG Version: 6.00 Build 0)  -->

<svg
   version="1.1"
   id="Layer_1"
   x="0px"
   y="0px"
   viewBox="0 0 128 128"
   style="enable-background:new 0 0 128 128;"
   xml:space="preserve"
   sodipodi:docname="emoji_u1faf3.svg"
   inkscape:version="1.1.1 (3bf5ae0d25, 2021-09-20)"
   xmlns:inkscape="http://www.inkscape.org/namespaces/inkscape"
   xmlns:sodipodi="http://sodipodi.sourceforge.net/DTD/sodipodi-0.dtd"
   xmlns="http://www.w3.org/2000/svg"
   xmlns:svg="http://www.w3.org/2000/svg"><defs
   id="defs7" /><sodipodi:namedview
   id="namedview5"
   pagecolor="#ffffff"
   bordercolor="#666666"
   borderopacity="1.0"
   inkscape:pageshadow="2"
   inkscape:pageopacity="0.0"
   inkscape:pagecheckerboard="0"
   showgrid="false"
   inkscape:zoom="5.6171875"
   inkscape:cx="64"
   inkscape:cy="63.910987"
   inkscape:window-width="1680"
   inkscape:window-height="998"
   inkscape:window-x="-8"
   inkscape:window-y="-8"
   inkscape:window-maximized="1"
   inkscape:current-layer="Layer_1" />

<path
   id="tone"
   style="fill:#000000"
   d="M122.51,36.1c0.55-0.8-11.95-1.91-15.78-2.57c7.69-1.3,15.84-6.23,12.15-13.93  c-2.54-4.15-8.78-0.59-12.66-0.63c1.38-2.98,0.56-5.98-0.82-7.83c-3.23-4.13-10.58,0.88-15.32,1.26c1.86-4.8-2.14-9.6-7.88-7.24  c-7.41,2.46-33.36,9.16-39.31,8.93c-12.64,0.2-31.71-3.26-35.49,3.79c22.64-3.22,30.27,1.86,44.49-1.62  c7.53-1.41,31.57-7.79,31.57-7.79c3.18-0.87,3.22,2.57,2.05,4.95c-16.05,3.44-33.17,5.54-33.17,5.54  c8.41,3.97,40.64-2.46,47.07-4.88c1.41-0.39,3.95-1.2,3.93,2.12c-0.01,1.74-0.75,2.65-2.04,3.48c-13.76,1.97-26.62,3.13-38.04,1.91  c5.94,5.71,36.36,2.91,48.6,0.15c3.75-0.68,4.03,0.09,4.23,0.58c0.69,1.72,0.09,3.75-3,5.18c-5.54,2.56-12.91,3.53-19.93,3.96  c-14.73-2.36-27.07-4.7-27.07-4.7c8.65,9.71,39.38,10.1,51.66,12.08c1.95,0.06,1.65,2.27,1.08,3.4c-3.86,5.82-20.79,2.27-32.42,2.88  C70.9,45.18,54.9,45.72,45.7,48.94c-7.61,2.22-3.28,7.95-1.16,13.76c2.19,6.56,8.78,17.86,2.12,21.73c-3.74,1.21-3.3-0.12-4.88-3.04  C34.93,63.82,18.01,53.54,4.63,41.92c1.13,6.9,6.77,11.55,15.25,17.65c13.46,10.12,15.46,19.65,20.89,27.93  c5.51,3.98,13.23-1.39,12.72-8.3c0.01-5.04-2.92-12.22-5.28-17.98c-0.96-2.35-1.3-3.12-2.19-5.77c-0.73-2.17,0.55-2.18,2.59-2.86  c6.23-2.06,21.64-3.89,37.82-3.47c14.45-0.47,35.13,4.34,37.39-7.96C124.3,39.13,123.81,37.25,122.51,36.1z" />
</svg>
