<?xml version="1.0" encoding="UTF-8" standalone="no"?>
<!-- Generator: Adobe Illustrator 25.2.3, SVG Export Plug-In . SVG Version: 6.00 Build 0)  -->

<svg
   version="1.1"
   id="Layer_2"
   x="0px"
   y="0px"
   viewBox="0 0 128 128"
   style="enable-background:new 0 0 128 128;"
   xml:space="preserve"
   sodipodi:docname="emoji_u1fae3.svg"
   inkscape:version="1.1.1 (3bf5ae0d25, 2021-09-20)"
   xmlns:inkscape="http://www.inkscape.org/namespaces/inkscape"
   xmlns:sodipodi="http://sodipodi.sourceforge.net/DTD/sodipodi-0.dtd"
   xmlns="http://www.w3.org/2000/svg"
   xmlns:svg="http://www.w3.org/2000/svg"><defs
   id="defs77">
	
	

	
		<radialGradient
   id="prop-2_1_"
   cx="58.7255"
   cy="87.6971"
   r="71.7862"
   gradientTransform="matrix(0.7789,-0.6272,-0.6272,-0.7789,35.3961,162.4946)"
   gradientUnits="userSpaceOnUse">
		<stop
   offset="0.27"
   style="stop-color:#FFF176"
   id="stop64" />
		<stop
   offset="1"
   style="stop-color:#FFC400"
   id="stop66" />
	</radialGradient>
	
	

	
	
</defs><sodipodi:namedview
   id="namedview75"
   pagecolor="#ffffff"
   bordercolor="#666666"
   borderopacity="1.0"
   inkscape:pageshadow="2"
   inkscape:pageopacity="0.0"
   inkscape:pagecheckerboard="0"
   showgrid="false"
   inkscape:snap-global="false"
   inkscape:zoom="5.6171875"
   inkscape:cx="64"
   inkscape:cy="63.910987"
   inkscape:window-width="1680"
   inkscape:window-height="998"
   inkscape:window-x="-8"
   inkscape:window-y="-8"
   inkscape:window-maximized="1"
   inkscape:current-layer="Layer_2" />
<g
   id="smiling-eyes-smiling-face_10_">
	<path
   id="mouth_9_"
   style="display:none;fill:#35220B;"
   d="M-213.36,98.75c12.29,0,23.26-7.11,30.51-18.26   c1.1-1.7-1.23-4.29-3.23-2.29c-7.12,7.12-16.57,11.03-27.28,11.03h-0.21c-10.7,0-20.16-3.9-27.28-11.03c-2-2-4.33,0.59-3.23,2.29   c7.24,11.15,18.22,18.26,30.51,18.26H-213.36z" />
</g>
<radialGradient
   id="face_1_"
   cx="63"
   cy="-2091.1001"
   r="56.9597"
   gradientTransform="matrix(1 0 0 -1 0 -2028)"
   gradientUnits="userSpaceOnUse">
	<stop
   offset="0.5"
   style="stop-color:#FDE030"
   id="stop4" />
	<stop
   offset="0.92"
   style="stop-color:#F7C02B"
   id="stop6" />
	<stop
   offset="1"
   style="stop-color:#F4A223"
   id="stop8" />
</radialGradient>

<linearGradient
   id="face-2_1_"
   gradientUnits="userSpaceOnUse"
   x1="63"
   y1="1457"
   x2="63"
   y2="1345.2"
   gradientTransform="matrix(1 0 0 1 0 -1338)">
	<stop
   offset="0"
   style="stop-color:#F4A223"
   id="stop12" />
	<stop
   offset="0.3812"
   style="stop-color:#F7C02B"
   id="stop14" />
	<stop
   offset="0.7478"
   style="stop-color:#FDE030;stop-opacity:0"
   id="stop16" />
</linearGradient>


<radialGradient
   id="SVGID_1_"
   cx="35.5447"
   cy="72.5759"
   r="19.4444"
   gradientTransform="matrix(0.9791 0 0 0.9301 -3.7557 10.8462)"
   gradientUnits="userSpaceOnUse">
	<stop
   offset="0"
   style="stop-color:#ED7770"
   id="stop22" />
	<stop
   offset="0.9"
   style="stop-color:#ED7770;stop-opacity:0"
   id="stop24" />
</radialGradient>

<radialGradient
   id="SVGID_2_"
   cx="101.6369"
   cy="72.5759"
   r="19.4444"
   gradientTransform="matrix(0.9791 0 0 0.9301 -3.7557 10.8462)"
   gradientUnits="userSpaceOnUse">
	<stop
   offset="0"
   style="stop-color:#ED7770"
   id="stop29" />
	<stop
   offset="0.9"
   style="stop-color:#ED7770;stop-opacity:0"
   id="stop31" />
</radialGradient>

<path
   id="path60"
   style="fill:#000000"
   d="M 65.070312 5.8671875 C 64.228687 5.8569473 63.384423 5.8633373 62.537109 5.8867188 C 35.847693 6.6232073 12.782922 24.01471 5.6855469 48.722656 C 3.3983068 49.222739 0.84812106 51.037524 1.1699219 53.5 C 1.5499219 56.39 4.49 61.630078 5.25 67.080078 C 5.84 71.290078 5.9492187 87.340547 8.4492188 93.310547 C 8.4492188 93.310547 8.0696094 88.949064 7.8496094 82.539062 C 7.6096094 75.709063 7.4903906 66.709063 6.6503906 63.039062 C 5.9203906 59.759062 4.200625 56.510547 3.640625 53.810547 C 3.480625 52.630547 4.8107812 50.300234 8.0507812 51.740234 C 11.290781 53.180234 13.079531 56.649375 14.019531 61.359375 C 15.309531 66.609375 14.629141 67.409844 16.119141 67.589844 C 21.109141 68.199844 27.830781 44.250234 29.550781 39.240234 C 29.940781 37.680234 30.759375 36.259219 31.859375 35.199219 C 33.949375 32.969219 36.480469 36.359375 36.480469 36.359375 C 38.000469 39.599375 37.580938 39.940859 36.710938 44.380859 C 36.090938 47.540859 33.280156 57.929688 30.660156 63.679688 C 30.660156 63.679688 31.539141 64.620391 33.119141 62.400391 C 34.699141 60.180391 38.649453 48.670469 40.189453 41.730469 C 40.189453 41.730469 41.939141 32.429688 44.869141 31.179688 C 47.849141 29.909688 48.979766 31.770469 49.509766 33.980469 C 50.039766 36.190469 49.610625 39.710625 48.390625 44.640625 C 46.200625 53.490625 42.160156 66.400391 42.160156 66.400391 C 42.160156 66.400391 43.029844 67.119766 44.339844 65.259766 C 46.989844 61.469766 51.349609 44.75 51.349609 44.75 C 51.659609 43.42 53.759609 40.249219 56.349609 41.199219 C 57.639609 41.589219 58.650781 43.13 58.550781 47.25 C 58.450781 52.19 55.040703 63.409686 51.470703 72.429688 C 51.470703 72.429688 52.650936 72.869062 53.960938 70.789062 C 55.270938 68.709063 59.090936 58.119766 59.960938 56.759766 C 60.830936 55.399766 61.709141 54.079844 63.619141 54.839844 C 66.119141 56.019844 66.089453 58.559062 65.189453 62.539062 C 65.149453 62.709063 60.760312 81.469297 51.820312 95.529297 C 47.100313 102.9593 38.920703 107.67945 26.220703 108.93945 C 26.321285 108.95993 26.426111 108.96946 26.527344 108.98828 L 26.015625 109.64453 C 48.200882 126.90136 79.746123 126.95137 101.96484 110.07812 C 108.92096 108.36878 114.08509 104.4755 114.86914 103.58008 C 101.33914 111.06008 88.749609 111.59 76.849609 97.25 C 74.059609 93.33 72.270156 90.309219 68.160156 84.949219 C 67.024069 83.461486 65.160187 81.470909 62.888672 79.332031 C 64.134673 76.256758 65.135752 73.482819 65.966797 71.056641 C 68.049545 72.660337 70.154443 74.291435 72.179688 75.869141 C 72.739688 76.299141 75.900781 80.970859 77.800781 77.880859 C 79.710781 74.790859 75.12 73.539141 74.5 73.119141 C 71.855312 71.374877 69.37154 69.641042 67 67.949219 C 67.888452 65.166958 68.400953 63.318617 68.410156 63.269531 C 68.654199 62.188233 68.996195 60.66537 69.039062 59.048828 C 75.067459 62.957726 81.539063 67.210937 81.539062 67.210938 C 81.539063 67.210937 84.329688 69.339375 85.929688 67.859375 C 87.309686 66.589375 86.580078 63.300781 86.580078 63.300781 L 81.960938 35.210938 C 81.960938 35.210938 80.620781 29.42 83.050781 27.5 C 85.890781 25.26 87.609922 26.680156 88.169922 27.910156 C 89.399922 30.600156 90.070318 34.880859 90.070312 34.880859 C 90.070313 34.880859 94.349297 55.619062 95.029297 61.289062 C 95.649297 66.459063 99.080469 64.519531 99.230469 63.519531 C 99.360469 62.609531 98.370234 60.629609 97.990234 59.349609 C 96.200234 53.299609 92.939609 35.760469 92.599609 34.480469 C 92.189609 32.930469 91.349453 28.189453 94.189453 26.689453 C 96.469453 25.479453 98.299375 25.889141 99.609375 30.869141 C 101.22938 37.039141 106.48953 57.070703 108.51953 62.470703 C 110.55953 67.880703 111.71078 67.220078 112.05078 66.080078 C 112.39078 64.940078 110.88023 55.790391 116.99023 50.150391 C 119.96023 47.410391 121.54914 47.640781 123.11914 48.800781 C 125.54914 50.600781 122.17969 55.630938 121.67969 60.460938 C 120.33969 73.340936 123.08008 77.019531 123.08008 77.019531 C 123.08008 77.019531 122.82047 70.160859 123.73047 64.380859 C 125.41047 53.720859 127.99067 49.650156 125.89062 47.410156 C 124.69494 46.134739 123.28364 45.571549 121.85547 45.513672 C 113.56324 22.009112 90.741378 6.1795314 65.070312 5.8671875 z M 65.011719 10.867188 C 88.621557 11.153161 109.49038 25.664792 117.09766 47.054688 C 110.05141 51.463312 110.0293 59.589844 110.0293 59.589844 C 108.7593 58.169844 102.23914 32.660703 101.61914 29.970703 C 100.57914 25.440703 98.159064 23.339766 95.289062 23.759766 C 92.819063 24.119766 91.070859 25.189609 90.130859 27.599609 C 89.520859 26.139609 88.899066 25.170781 88.289062 24.550781 C 87.654691 23.907656 86.748463 23.53503 85.710938 23.527344 C 85.56272 23.526246 85.410942 23.532812 85.257812 23.546875 C 84.032815 23.659375 82.664141 24.265 81.369141 25.5 C 79.019141 27.73 79.179297 30.41 79.529297 33.75 C 79.596831 34.403635 79.902186 36.482783 80.234375 38.722656 C 72.60448 39.424798 66.243015 44.527106 63.703125 51.464844 C 62.865607 51.321212 62.077658 51.367027 61.359375 51.570312 C 61.679375 49.900312 61.860391 48.179687 61.900391 46.429688 C 61.860391 44.309688 61.769297 39.349531 57.279297 38.019531 C 55.679297 37.569531 54.110469 37.739531 52.730469 38.519531 C 53.400469 35.189531 52.410936 29.479375 47.460938 28.109375 C 45.620936 27.599375 43.190781 27.990703 41.050781 30.720703 C 39.500781 32.690703 38.929687 35.460937 38.929688 35.460938 C 38.799686 35.180937 36.900625 29.749141 30.890625 32.869141 C 28.470625 34.129141 27.209453 37.399531 26.689453 39.519531 C 23.319453 51.399531 17.400391 64.900625 17.150391 63.890625 C 17.217636 58.275649 14.312991 52.813169 10.494141 50.09375 C 16.975146 27.551715 38.077468 11.56355 62.675781 10.884766 C 63.456828 10.863213 64.23619 10.857793 65.011719 10.867188 z M 80.527344 40.705078 C 80.951414 43.514677 81.446372 46.753092 81.96875 50.123047 A 8.04 8.04 0 0 0 81.880859 50.119141 A 8.04 8.04 0 0 0 73.839844 58.160156 A 8.04 8.04 0 0 0 74.087891 60.085938 L 68.849609 56.716797 C 68.492697 54.971247 67.560899 53.313493 65.585938 52.160156 C 67.867512 45.886852 73.61091 41.294504 80.527344 40.705078 z M 80.230469 52.476562 C 80.5375 52.477762 80.832109 52.549452 81.099609 52.689453 C 82.169609 53.249453 82.610938 54.799531 81.710938 56.519531 C 80.810935 58.239531 79.290703 58.780703 78.220703 58.220703 C 77.150703 57.660703 76.709375 56.110625 77.609375 54.390625 C 78.284375 53.100625 79.309375 52.472816 80.230469 52.476562 z M 61.615234 82.367188 C 63.386172 84.063148 64.948275 85.611758 65.810547 86.740234 C 67.462072 88.900755 68.796489 90.756834 69.951172 92.412109 C 69.40745 92.418845 68.864155 92.536504 68.339844 92.769531 C 62.379844 95.489531 56.999297 92.940078 56.779297 92.830078 C 56.712291 92.797591 56.642087 92.78229 56.574219 92.753906 C 58.474491 89.290065 60.15802 85.748007 61.615234 82.367188 z M 73.699219 97.925781 C 79.45572 106.19328 85.901182 109.6842 91.957031 110.62695 C 73.962229 120.46883 51.480902 119.98276 33.890625 109.03516 C 40.728787 108.02127 47.778061 104.3279 52.263672 99.308594 C 52.536099 99.566981 52.836315 99.802098 53.189453 99.980469 C 53.549453 100.16047 62.110156 104.40078 71.660156 100.05078 C 72.623476 99.609862 73.326258 98.833751 73.699219 97.925781 z " /><g
   id="peepers_1_">
		
	</g>



<g
   id="g40"
   style="fill:#000000">
		
		
	</g><g
   id="g939"
   style="stroke-width:2;fill:none;stroke:#000000">
		
		
	</g></svg>
