<?xml version="1.0" encoding="UTF-8" standalone="no"?>
<!-- Generator: Adobe Illustrator 25.2.3, SVG Export Plug-In . SVG Version: 6.00 Build 0)  -->

<svg
   version="1.1"
   id="Raised-Hand"
   x="0px"
   y="0px"
   viewBox="0 0 128 128"
   style="enable-background:new 0 0 128 128;"
   xml:space="preserve"
   sodipodi:docname="emoji_u1fae2.svg"
   inkscape:version="1.1.1 (3bf5ae0d25, 2021-09-20)"
   xmlns:inkscape="http://www.inkscape.org/namespaces/inkscape"
   xmlns:sodipodi="http://sodipodi.sourceforge.net/DTD/sodipodi-0.dtd"
   xmlns="http://www.w3.org/2000/svg"
   xmlns:svg="http://www.w3.org/2000/svg"><defs
   id="defs48">
	
		<radialGradient
   id="prop-2_1_"
   cx="64.5261"
   cy="-4876.936"
   r="65.3306"
   gradientTransform="matrix(1,0,0,-1,0,-4800.5605)"
   gradientUnits="userSpaceOnUse">
		<stop
   offset="0.27"
   style="stop-color:#FFF176"
   id="stop36" />
		<stop
   offset="1"
   style="stop-color:#FFC400"
   id="stop38" />
	</radialGradient>
	
	
</defs><sodipodi:namedview
   id="namedview46"
   pagecolor="#ffffff"
   bordercolor="#666666"
   borderopacity="1.0"
   inkscape:pageshadow="2"
   inkscape:pageopacity="0.0"
   inkscape:pagecheckerboard="0"
   showgrid="false"
   inkscape:zoom="5.6171875"
   inkscape:cx="64"
   inkscape:cy="63.910987"
   inkscape:window-width="1680"
   inkscape:window-height="998"
   inkscape:window-x="-8"
   inkscape:window-y="-8"
   inkscape:window-maximized="1"
   inkscape:current-layer="Raised-Hand" />
<radialGradient
   id="face_1_"
   cx="63.6"
   cy="-7019.4609"
   r="56.9597"
   gradientTransform="matrix(1 0 0 -1 0 -6956.5605)"
   gradientUnits="userSpaceOnUse">
	<stop
   offset="0.5"
   style="stop-color:#FDE030"
   id="stop2" />
	<stop
   offset="0.9188"
   style="stop-color:#F7C02B"
   id="stop4" />
	<stop
   offset="1"
   style="stop-color:#F4A223"
   id="stop6" />
</radialGradient>

<linearGradient
   id="face_2_"
   gradientUnits="userSpaceOnUse"
   x1="63.6"
   y1="-7075.3608"
   x2="63.6"
   y2="-6963.5605"
   gradientTransform="matrix(1 0 0 -1 0 -6956.5605)">
	<stop
   offset="0.1579"
   style="stop-color:#F4A223"
   id="stop10" />
	<stop
   offset="0.333"
   style="stop-color:#F7C02B"
   id="stop12" />
	<stop
   offset="0.8071"
   style="stop-color:#FDE030;stop-opacity:0"
   id="stop14" />
</linearGradient>
<path
   style="fill:none;stroke:#000000;stroke-width:5;stroke-linecap:round;stroke-linejoin:round;stroke-miterlimit:4;stroke-dasharray:none;stop-color:#000000"
   id="path3186"
   sodipodi:type="arc"
   sodipodi:cx="63.019859"
   sodipodi:cy="63.75164"
   sodipodi:rx="58.303192"
   sodipodi:ry="55.89986"
   sodipodi:start="2.1474456"
   sodipodi:end="1.5268145"
   sodipodi:open="true"
   sodipodi:arc-type="arc"
   d="M 31.231903,110.61217 A 58.303192,55.89986 0 0 1 9.8193771,40.881785 58.303192,55.89986 0 0 1 78.365038,9.8226789 58.303192,55.89986 0 0 1 120.96311,69.953566 58.303192,55.89986 0 0 1 65.583314,119.59744" />

<g
   id="g34"
   style="fill:#000000">
	<path
   id="path20"
   style="fill:#000000"
   d="M 44.039062 40.939453 C 39.849063 40.939453 36.039062 44.479375 36.039062 50.359375 C 36.039062 56.239375 39.849063 59.779297 44.039062 59.779297 C 48.229062 59.779297 52.039062 56.239375 52.039062 50.359375 C 52.039062 44.479375 48.239062 40.939453 44.039062 40.939453 z M 42.328125 44.474609 C 42.804199 44.463711 43.264141 44.599141 43.650391 44.869141 C 44.690391 45.589141 45.009766 47.120547 44.009766 48.560547 C 43.009766 50.000547 41.459688 50.229766 40.429688 49.509766 C 39.399688 48.789766 39.070312 47.270313 40.070312 45.820312 C 40.695312 44.920313 41.534668 44.492773 42.328125 44.474609 z " />
	<g
   id="g25"
   style="fill:#000000">
		<g
   id="peepers_146_"
   style="fill:#000000">
			
		</g>
	</g>
	<path
   id="path27"
   style="fill:#000000"
   d="M 82.400391 40.939453 C 78.210391 40.939453 74.400391 44.479375 74.400391 50.359375 C 74.400391 56.239375 78.210391 59.779297 82.400391 59.779297 C 86.590391 59.779297 90.400391 56.239375 90.400391 50.359375 C 90.400391 44.479375 86.590391 40.939453 82.400391 40.939453 z M 80.6875 44.474609 C 81.163574 44.463711 81.623516 44.599141 82.009766 44.869141 C 83.039766 45.589141 83.379141 47.110547 82.369141 48.560547 C 81.369141 50.000547 79.819063 50.229766 78.789062 49.509766 C 77.759063 48.789766 77.429688 47.270313 78.429688 45.820312 C 79.054688 44.920313 79.894043 44.492773 80.6875 44.474609 z " />
	<g
   id="g32"
   style="fill:#000000">
		<g
   id="peepers_145_"
   style="fill:#000000">
			
		</g>
	</g>
</g>
<path
   style="fill:#000000"
   d="m 96.03,89.56 c 1.18,-1.52 3.94,-5.07 1.52,-8.56 -0.87,-1.23 -2.08,-2 -3.49,-2.24 2.37,-1.97 4.91,-6.57 2.2,-10.35 -1.01,-1.41 -2.94,-2.51 -6.01,-1.8 -2.21,0.51 -4.19,2.14 -4.19,2.14 0.07,-0.27 1.81,-5.18 -4.2,-6.4 -2.42,-0.49 -5.17,1.11 -6.75,2.3 -9.13,6.48 -20.13,12.4 -19.73,11.55 1.42,-2.82 3.82,-4.78 5.12,-7.35 1.43,-2.84 1.23,-5.01 0.84,-6.87 -0.64,-3 -3.35,-4.94 -6.09,-4.09 -2.41,0.75 -3.17,3.83 -7.49,8.5 -7,7.56 -17.46,13.63 -17.46,29.57 0,0 1.71,-9.25 6.01,-14.74 4.05,-5.16 9.97,-10.13 13.65,-14.19 3.5,-3.85 3.51,-5.16 4.67,-6.14 2.02,-1.7 5.12,-0.51 4.81,3.19 -0.36,4.45 -2.23,5.95 -4.26,8.49 -1.25,1.57 -2.58,3.42 -3.14,4.74 -0.36,0.84 0.33,1.74 1.24,1.62 6.13,-0.81 20.37,-10.55 24,-12.84 1.16,-0.88 2.54,-1.41 3.93,-1.54 2.74,-0.39 2.6,3.45 2.6,3.45 -0.77,3.15 -1.26,3.15 -4.4,5.79 -2.23,1.87 -10.12,7.61 -15.24,10.19 0,0 0.09,1.17 2.46,0.5 2.37,-0.67 11.71,-6.54 16.74,-10.57 0,0 6.52,-5.57 9.3,-4.79 2.82,0.8 2.57,2.76 1.68,4.62 -0.88,1.86 -3.19,4.1 -6.85,6.89 -6.58,5 -16.77,11.82 -16.77,11.82 0,0 0.21,1 2.19,0.43 4.03,-1.17 16.61,-10.49 16.61,-10.49 0.98,-0.76 4.26,-1.81 5.54,0.34 0.69,1.01 0.53,2.66 -1.89,5.52 -2.88,3.43 -11.67,9.41 -19.31,13.75 0,0 0.58,0.98 2.69,0.26 2.11,-0.72 10.83,-6.03 12.21,-6.49 1.38,-0.46 2.76,-0.9 3.68,0.73 1.09,2.25 -0.37,4.03 -3.26,6.33 -0.12,0.09 -13.88,10.85 -28.19,15.69 -7.56,2.56 -16.01,1.24 -25.7,-5.09 5.88,7.1 18.72,10.27 27.43,7.09 14.65,-5.36 28.21,-15.25 28.32,-15.34 2.1,-1.67 6.47,-5.13 4.06,-10.08 -0.63,-1.11 -1.47,-1.8 -2.39,-2.19 1.19,-1.02 2.29,-2.14 3.31,-3.35 z"
   id="path42" />
</svg>
