<?xml version="1.0" encoding="UTF-8" standalone="no"?>
<!-- Generator: Adobe Illustrator 25.2.3, SVG Export Plug-In . SVG Version: 6.00 Build 0)  -->

<svg
   version="1.1"
   id="Layer_8"
   x="0px"
   y="0px"
   viewBox="0 0 128 128"
   style="enable-background:new 0 0 128 128;"
   xml:space="preserve"
   sodipodi:docname="emoji_u1fae1.svg"
   inkscape:version="1.1.1 (3bf5ae0d25, 2021-09-20)"
   xmlns:inkscape="http://www.inkscape.org/namespaces/inkscape"
   xmlns:sodipodi="http://sodipodi.sourceforge.net/DTD/sodipodi-0.dtd"
   xmlns="http://www.w3.org/2000/svg"
   xmlns:svg="http://www.w3.org/2000/svg"><defs
   id="defs50">
	<linearGradient
   id="SVGID_1_"
   gradientUnits="userSpaceOnUse"
   x1="51.815"
   y1="59.9018"
   x2="35.7392"
   y2="20.1638">
		<stop
   offset="0"
   style="stop-color:#FFC400"
   id="stop30" />
		<stop
   offset="1"
   style="stop-color:#FFF176"
   id="stop32" />
	</linearGradient>
	
	
	
	
</defs><sodipodi:namedview
   id="namedview48"
   pagecolor="#ffffff"
   bordercolor="#666666"
   borderopacity="1.0"
   inkscape:pageshadow="2"
   inkscape:pageopacity="0.0"
   inkscape:pagecheckerboard="0"
   showgrid="false"
   inkscape:zoom="5.6171875"
   inkscape:cx="49.757997"
   inkscape:cy="65.157163"
   inkscape:window-width="1680"
   inkscape:window-height="998"
   inkscape:window-x="-8"
   inkscape:window-y="-8"
   inkscape:window-maximized="1"
   inkscape:current-layer="Layer_8" />
<radialGradient
   id="face_1_"
   cx="63.6"
   cy="-2382.8486"
   r="56.9597"
   gradientTransform="matrix(1 0 0 -1 0 -2316.9487)"
   gradientUnits="userSpaceOnUse">
	<stop
   offset="0.5"
   style="stop-color:#FDE030"
   id="stop2" />
	<stop
   offset="0.9188"
   style="stop-color:#F7C02B"
   id="stop4" />
	<stop
   offset="1"
   style="stop-color:#F4A223"
   id="stop6" />
</radialGradient>
<path
   style="fill:none;stroke:#000000;stroke-width:5;stroke-linecap:butt;stroke-linejoin:round;stroke-miterlimit:4;stroke-dasharray:none;stop-color:#000000"
   id="path3186"
   sodipodi:type="arc"
   sodipodi:cx="63.643944"
   sodipodi:cy="65.691238"
   sodipodi:rx="58.303192"
   sodipodi:ry="55.89986"
   sodipodi:start="4.8642697"
   sodipodi:end="3.4209113"
   sodipodi:open="true"
   sodipodi:arc-type="arc"
   d="M 72.465069,10.434882 A 58.303192,55.89986 0 0 1 120.67889,54.095285 58.303192,55.89986 0 0 1 95.096322,112.75946 58.303192,55.89986 0 0 1 28.818143,110.523 58.303192,55.89986 0 0 1 7.6003787,50.279604" />

<path
   style="fill:#000000"
   d="M84.74,87.06c-2.98-0.41-9.6-0.55-21.53-0.55c-0.02,0-0.04,0-0.05,0s-0.04,0-0.05,0  c-11.94,0-18.55,0.14-21.53,0.55c-1.81,0.25-2.5,2.5-0.19,4.02c4.26,2.8,10.65,4.71,21.78,4.79c11.13-0.07,17.52-1.99,21.78-4.79  C87.24,89.56,86.55,87.31,84.74,87.06z"
   id="path12" />
<path
   id="path1202"
   style="fill:#000000"
   d="M 45.931641 48.185547 L 36.857422 53.003906 C 36.33698 54.255603 36.039062 55.715816 36.039062 57.359375 C 36.039062 63.239375 39.849063 66.779297 44.039062 66.779297 C 48.229062 66.779297 52.039062 63.239375 52.039062 57.359375 C 52.039062 52.381951 49.31518 49.081551 45.931641 48.185547 z M 42.328125 51.474609 C 42.804199 51.463711 43.264141 51.599141 43.650391 51.869141 C 44.690391 52.589141 45.009766 54.120547 44.009766 55.560547 C 43.009766 57.000547 41.459687 57.229766 40.429688 56.509766 C 39.399687 55.789766 39.070312 54.270313 40.070312 52.820312 C 40.695312 51.920313 41.534668 51.492773 42.328125 51.474609 z " />

<g
   id="g21">
	<g
   id="peepers_39_">
		
	</g>
</g>
<path
   id="path23"
   style="fill:#000000"
   d="M 82.400391 47.939453 C 78.210391 47.939453 74.400391 51.479375 74.400391 57.359375 C 74.400391 63.239375 78.210391 66.779297 82.400391 66.779297 C 86.590391 66.779297 90.400391 63.239375 90.400391 57.359375 C 90.400391 51.479375 86.590391 47.939453 82.400391 47.939453 z M 80.6875 51.474609 C 81.163574 51.463711 81.623516 51.599141 82.009766 51.869141 C 83.039766 52.589141 83.379141 54.110547 82.369141 55.560547 C 81.369141 57.000547 79.819063 57.229766 78.789062 56.509766 C 77.759063 55.789766 77.429688 54.270313 78.429688 52.820312 C 79.054688 51.920313 79.894043 51.492773 80.6875 51.474609 z " />
<g
   id="g28">
	<g
   id="peepers_6_">
		
	</g>
</g>
<g
   id="g39"
   style="fill:#000000">
		<path
   style="fill:#000000"
   d="m 15.84,41.29 c -1.31,0.65 -3.05,-0.11 -1.79,-1.59 2.45,-2.46 5.28,-4.58 7.28,-7.46 1.08,-1.38 1.96,-3.02 2.33,-3.7 0.37,-0.68 0.96,-1.42 1.27,-0.55 0.21,0.6 -0.16,1.87 -0.51,2.79 -1.93,4.05 -4.63,8.22 -8.58,10.51 z"
   id="path37" />
	</g><path
   style="fill:#000000"
   d="m 73.52,20.45 c 1.68,-4.69 -1.71,-5.85 -1.71,-5.85 0,0 2.37,-4.41 0.57,-7.47 -1.34,-2.29 -3.11,-2.67 -5.18,-1.61 -1.42,0.73 -2.82,2.13 -2.82,2.13 0,0 -0.36,-2.2 -1.99,-3.12 C 60.44,3.59 58.97,3.61 56.06,5.85 54.34,7.17 51.31,9.37 51.31,9.37 49.37,6.25 46.84,6.9 46.74,6.91 c -2.47,0.13 -9.41,4.49 -14.86,6.51 -3.95,1.46 -7.9,2.11 -14.9,4.79 -13.6,5.21 -16.32,15.3 -13.41,24.63 -0.7,-14 7.41,-19.12 14.48,-21.83 4,-1.53 6.96,-2.38 9.57,-3.12 4.66,-1.18 8.98,-3.08 13.24,-5.3 2.18,-1.09 3.65,-1.97 4.43,-2.35 1.04,-0.5 2.22,-0.4 3.06,0.12 0.81,0.5 1.85,1.74 0.41,3.65 -1.18,1.56 -4.43,2.77 -7.36,4.13 -1.65,0.83 -11.35,4.98 -9.7,7.25 0.29,0.43 0.82,0.64 1.32,0.51 0.43,-0.14 1.27,-0.2 1.58,-0.57 2.58,-2.55 5.95,-3.74 9.37,-5.41 3.8,-1.77 6.95,-3.24 8.7,-7.75 l 0.59,-0.38 C 54.5,10.76 57,8.67 58.75,7.33 c 1.35,-1.28 4.04,-0.34 4.34,1.36 0.3,1.7 -0.82,3.27 -3.18,5.84 -4.25,4.34 -14.53,8.24 -18.93,13.5 -0.73,0.87 0.17,2.27 1.27,1.96 0.5,-0.14 1.21,-0.33 2.44,-1.79 1.23,-1.46 4.43,-3.52 8.31,-5.83 5.13,-3.11 9.99,-7.18 12.05,-12.3 0.61,-1.51 2.42,-2.46 4.09,-2.48 1.81,0.01 3.06,2.27 1.61,5.23 -0.65,1.34 -1.28,2.53 -4.24,5.69 -2.62,2.79 -6.17,4.87 -9.9,7.01 -3.34,1.91 -6.64,4.03 -8.22,5.92 -0.78,0.87 -0.29,2.32 0.86,2.04 0.48,-0.1 0.73,0.25 1.87,-1.09 1.14,-1.34 3.58,-3.22 6.58,-4.93 5.31,-2.71 9.7,-6.58 12.96,-10.98 0,0 2.01,0.23 1.38,2.83 -1.77,7.38 -10.63,10.06 -16.3,14.11 -3.36,1.72 -11.59,8.41 -13.23,7.69 -3.65,-1.61 -13.17,-2.17 -18.55,2.91 -0.6,0.57 -1.58,1.58 -1.26,2 0.32,0.42 1.02,-0.17 1.49,-0.47 4.24,-2.68 10.2,-3.98 17.45,-1.7 1.52,0.48 12.22,-6.57 15.38,-8.53 -0.05,-0.03 5.47,-3.37 8.46,-5.45 3.01,-2.09 6.34,-4.68 8.04,-9.42 z"
   id="path41" /><path
   style="fill:#000000"
   d="m 58.55,33.99 c 0,0 0,0 0,0 0.46,-0.29 -2.13,1.25 -2.13,1.25 0.15,0.16 1.51,1.51 1.25,2.43 -0.11,0.4 0.03,1.35 -2.06,2.87 -1.12,0.81 -10.54,7.43 -10.54,7.43 -23.74,15.85 -39.04,0.55 -37.4,2.2 0.01,0.01 0.02,0.02 0.03,0.03 8.24,8.24 19.42,7.05 19.42,7.05 10.2,-1.51 16.8,-5.93 20.2,-8.34 1.44,-1.02 8.69,-6.09 10.03,-7.24 0.96,-0.82 2.01,-1.74 2.36,-2.99 0.76,-2.72 -1.06,-4.59 -1.16,-4.69 z"
   id="path43" />
</svg>
