<svg xmlns="http://www.w3.org/2000/svg" xmlns:xlink="http://www.w3.org/1999/xlink" version="1.1" x="0px" y="0px" viewBox="0 0 100 125" style="enable-background:new 0 0 100 100;" xml:space="preserve"><g><path d="M49.38194,78.05917c-7.5189,0-12.13715-5.32179-13.74273-15.83371c-4.63397-1.85909-6.70727-3.74176-6.68958-6.04303   c0.02358-3.10503,4.16035-4.93661,7.27128-6.04302c0.88631-0.3223,1.86695,0.14542,2.18531,1.03763   c0.31836,0.89024-0.14739,1.86892-1.03763,2.18532c-4.73026,1.68615-4.99557,2.8358-4.99753,2.84759   c0.00196,0.00786,0.25351,1.24987,5.42005,3.17775c0.59546,0.22207,1.01798,0.75268,1.09855,1.38155   c1.85712,14.21831,8.74126,13.94121,11.01305,13.8567c0.92955-0.11005,1.73921,0.69765,1.77852,1.64095   c0.03734,0.94527-0.69765,1.74117-1.64095,1.77852C49.81822,78.05524,49.60008,78.05917,49.38194,78.05917z"/><path d="M37.03255,45.8916c-2.42507,0-4.69096-0.5591-5.90742-2.38773c-1.60165-2.41033-0.76643-6.0558,2.63928-11.411   c-0.78412-0.55517-1.63898-1.0563-2.5646-1.50634c-0.85093-0.41368-1.20467-1.43755-0.79198-2.28751   c0.41073-0.84897,1.4346-1.20566,2.28554-0.79198c6.3889,3.10209,10.06778,8.44746,10.93444,15.88775   c0.10219,0.88533-0.48934,1.70089-1.36189,1.8758C40.67016,45.5919,38.8091,45.8916,37.03255,45.8916z M36.35259,34.40493   c-3.18364,5.14984-2.64518,6.79963-2.37594,7.20348c0.22797,0.34391,1.30294,1.31571,6.01158,0.59349   C39.40063,39.07722,38.19792,36.49002,36.35259,34.40493z"/><path d="M38.96239,70.06272c-0.01376,0-0.02752,0-0.04127,0c-7.77634-0.18473-13.38899-2.84563-16.68072-7.90998   c-0.51489-0.79395-0.29085-1.8532,0.50113-2.36808c0.79591-0.51488,1.85319-0.28889,2.36808,0.50113   c2.67662,4.11909,7.22019,6.19631,13.89404,6.35353c0.9433,0.02358,1.69205,0.8077,1.67043,1.75297   C40.65051,69.32183,39.88997,70.06272,38.96239,70.06272z"/><path d="M44.60844,90.06268c-16.75736,0-29.21877-6.24937-37.09533-18.62431c-0.50702-0.79787-0.2712-1.85516,0.52471-2.36414   c0.79984-0.50506,1.85712-0.26923,2.36415,0.52471c7.98072,12.54395,21.2459,18.20768,39.4418,16.8399   c0.93544-0.07468,1.76279,0.63476,1.83354,1.57806c0.07075,0.94134-0.63476,1.76279-1.57806,1.83354   C48.22247,89.99193,46.39089,90.06268,44.60844,90.06268z"/><path d="M16.48823,64.47169c-0.50506,0-1.00422-0.22207-1.34224-0.64655c-4.6379-5.83471-6.39676-10.47065-5.37682-14.16917   c0.66424-2.41328,2.47617-4.28907,5.39254-5.58611c3.7398-17.69477,15.43674-26.56868,34.81962-26.48909   c0.94527,0.0059,1.70777,0.77724,1.70187,1.72251c-0.0059,0.94134-0.77036,1.70089-1.7117,1.70089   c-0.14346-0.00196-0.24762-0.00196-0.37143-0.00196c-17.84019,0-28.06715,8.05835-31.26258,24.62705   c-0.11202,0.58367-0.51882,1.06613-1.07497,1.27641c-2.39166,0.904-3.76338,2.10179-4.19376,3.65824   c-0.68782,2.49975,0.95706,6.3496,4.75778,11.13096c0.5876,0.74088,0.46379,1.81585-0.27513,2.40542   C17.23697,64.34985,16.85965,64.47169,16.48823,64.47169z"/><path d="M11.23718,54.43142c-0.33409,0-0.6721-0.09826-0.96688-0.30264c-5.75021-3.954-7.50514-10.17783-5.22746-18.50836   c-3.10896-3.41161-4.80494-7.46977-5.04077-12.07623c-0.02358-0.48049,0.15525-0.95018,0.49327-1.29213   c0.33802-0.34195,0.76054-0.51685,1.28918-0.50506c7.44815,0.31247,13.79972,5.09874,18.87979,14.22617   c0.45986,0.82637,0.16311,1.86793-0.66424,2.32779c-0.82735,0.45789-1.86892,0.16115-2.32681-0.66326   c-3.96973-7.13568-8.68231-11.24396-14.02768-12.24327c0.56402,3.23474,2.08116,6.10198,4.52588,8.54572   c0.4461,0.44709,0.61118,1.10445,0.42645,1.70974C6.36346,42.97915,7.54455,48.10148,12.208,51.31067   c0.78019,0.53454,0.97671,1.59968,0.44021,2.37791C12.31805,54.17202,11.78155,54.43142,11.23718,54.43142z"/><path d="M8.95754,72.23035c-0.01179,0-0.02162,0-0.03341,0c-0.94527-0.01965-1.69598-0.8018-1.67829-1.74511   c0.12381-6.15111,1.74118-10.75953,4.80691-13.69556c0.67996-0.65442,1.76673-0.63083,2.41918,0.05306   c0.65442,0.68193,0.63083,1.76476-0.05306,2.41917c-2.3838,2.28358-3.64547,6.08233-3.74962,11.29014   C10.64959,71.48553,9.88708,72.23035,8.95754,72.23035z"/><path d="M46.89398,84.66424c-0.61314,0-1.20664-0.33015-1.51518-0.91186c-0.44217-0.83521-0.12184-1.87088,0.71338-2.31305   c2.42507-1.28526,5.40826-1.28329,7.77831,0.01179c0.82932,0.452,1.13589,1.49159,0.68193,2.32092   c-0.452,0.82932-1.49356,1.13982-2.32092,0.68193c-1.37368-0.74678-3.1129-0.74285-4.53964,0.01179   C47.43835,84.59939,47.16322,84.66424,46.89398,84.66424z"/><path d="M24.52791,30.07459c-0.36553,0-0.73499-0.11693-1.04746-0.35963c-2.42704-1.88169-4.14267-3.54819-5.09972-4.95332   c-0.46182-0.67898-0.37732-1.59084,0.20438-2.17254c0.8077-0.80869,1.67436-1.41495,2.58818-1.81193   c-0.33605-1.98683-0.34195-3.6209-0.01965-4.96412c0.16311-0.68291,0.72713-1.19583,1.42281-1.29507   c1.7176-0.24369,3.26029-0.32131,4.67524-0.23976c0.97278-1.86695,2.29537-3.25537,3.94418-4.13775   c0.68782-0.36848,1.5368-0.226,2.06544,0.34882c2.8751,3.11879,4.74009,6.49011,5.54386,10.02061   c0.21028,0.92168-0.36749,1.83846-1.28918,2.04873c-0.92168,0.21421-1.83747-0.36651-2.04775-1.28819   c-0.57777-2.53119-1.83354-4.99262-3.74569-7.33515c-0.74678,0.68979-1.36386,1.62818-1.8414,2.80534   c-0.29085,0.72615-1.02584,1.16537-1.81978,1.05237c-1.11231-0.15329-2.33467-0.16606-3.72015-0.03832   c-0.03144,1.02387,0.13167,2.30618,0.48541,3.83216c0.10809,0.46674,0.01572,0.95804-0.25351,1.35403   c-0.2712,0.39599-0.69569,0.65933-1.17127,0.72713c-0.39304,0.05601-0.78412,0.18964-1.17127,0.39992   c0.70748,0.7458,1.76673,1.71661,3.34872,2.94291c0.74678,0.57875,0.88238,1.65372,0.30264,2.40051   C25.54589,29.84663,25.03886,30.07459,24.52791,30.07459z"/><path d="M50.565,78.05917c-0.21814,0-0.43824-0.00393-0.66031-0.01376c-0.94527-0.03735-1.68026-0.83325-1.64291-1.77656   c0.03734-0.94527,0.92365-1.72152,1.77655-1.64291c2.31502,0.09433,9.23649,0.3616,11.01305-13.84688   c0.07861-0.6328,0.50506-1.17126,1.10248-1.39137c5.19995-1.92787,5.46722-3.17775,5.46722-3.18954   c0-0.0059-0.2771-1.15751-4.98967-2.8358c-0.89024-0.3164-1.356-1.29507-1.03763-2.18532   c0.3164-0.8922,1.30097-1.35992,2.18531-1.03763c3.3723,1.20074,7.24574,2.9714,7.26539,6.03909   c0.01376,2.30519-2.0733,4.18787-6.73675,6.04696C62.75717,72.73737,58.13696,78.05917,50.565,78.05917z"/><path d="M62.96745,45.8916c-1.77655,0-3.63761-0.29969-5.23336-0.62101c-0.87255-0.1749-1.46408-0.99047-1.36189-1.8758   c0.62297-5.34243,2.69431-9.60497,6.17862-12.7326c0.10416-0.1297,0.22993-0.24762,0.37535-0.34686   c0.03144-0.02162,0.06485-0.04225,0.09826-0.0619c1.25577-1.05433,2.68447-1.97012,4.28219-2.74638   c0.85094-0.41368,1.87482-0.05699,2.28555,0.79198c0.4127,0.84995,0.05895,1.87383-0.79198,2.28751   c-0.93937,0.45593-1.80603,0.9659-2.59801,1.5309c3.41553,5.33653,4.26254,8.97512,2.66679,11.38447   C67.65841,45.3325,65.39252,45.8916,62.96745,45.8916z M60.01177,42.20191c4.69489,0.72222,5.77576-0.24565,6.00372-0.58956   c0.26727-0.40287,0.79787-2.04775-2.39756-7.17597C61.79029,36.51656,60.5974,39.09295,60.01177,42.20191z"/><path d="M61.03761,70.06272c-0.92758,0-1.68811-0.74089-1.7117-1.67043c-0.02162-0.94527,0.72713-1.72939,1.67043-1.75297   c6.68565-0.15722,11.20957-2.23051,13.8292-6.33978c0.50899-0.79787,1.56627-1.0337,2.36218-0.52275   c0.79787,0.50703,1.03174,1.56431,0.52274,2.36219c-3.23277,5.07221-8.8297,7.73901-16.63158,7.92374   C61.06512,70.06272,61.05137,70.06272,61.03761,70.06272z"/><path d="M55.34832,90.06268c-1.78638,0-3.61992-0.07075-5.50456-0.21224c-0.9433-0.07075-1.64881-0.8922-1.57806-1.83354   c0.07075-0.94527,0.90203-1.65864,1.83354-1.57806c18.25681,1.36778,31.51413-4.29595,39.43983-16.83401   c0.50702-0.79787,1.56431-1.03566,2.36021-0.53257c0.79984,0.50506,1.03764,1.56235,0.53258,2.36022   C84.60836,83.81134,72.14892,90.06268,55.34832,90.06268z"/><path d="M83.51177,64.47169c-0.37143,0-0.74875-0.12184-1.06318-0.37142c-0.73892-0.58957-0.86273-1.66454-0.27513-2.40542   c3.78696-4.76367,5.42398-8.60763,4.73616-11.1172c-0.42841-1.56431-1.79424-2.76603-4.17608-3.67298   c-0.55418-0.21126-0.95902-0.69372-1.07104-1.27542c-3.19543-16.56772-13.44205-24.62705-31.31761-24.62705   c-0.12577-0.00098-0.25941-0.02751-0.37339,0.00196c-0.94134,0-1.7058-0.75955-1.7117-1.70089   c-0.00589-0.94527,0.75661-1.71661,1.70187-1.72251c0.12381,0,0.25155-0.00098,0.37535-0.00098   c19.1844,0,30.78504,8.90929,34.50322,26.49302c2.90262,1.30195,4.70668,3.18266,5.37092,5.59888   c1.01601,3.70835-0.73695,8.33839-5.35716,14.15345C84.51599,64.24962,84.01683,64.47169,83.51177,64.47169z"/><path d="M88.70583,54.43142c-0.54436,0-1.08086-0.25941-1.41103-0.74285c-0.5365-0.77822-0.33998-1.84337,0.44021-2.37791   c4.69489-3.23081,5.89564-8.35313,3.66708-15.66077c-0.18276-0.60037-0.02358-1.25184,0.41663-1.69893   c2.44865-2.49091,3.96777-5.36405,4.53374-8.56341c-5.38861,0.97474-9.9931,5.00343-14.02571,12.25015   c-0.45986,0.82441-1.50143,1.12115-2.32681,0.66326c-0.82735-0.45986-1.1241-1.50142-0.66425-2.32779   c5.08008-9.12939,11.4336-13.91665,18.88175-14.22617c0.47952-0.01081,0.9492,0.16409,1.28722,0.50506   c0.33802,0.34293,0.51685,0.81163,0.49327,1.29213c-0.23386,4.55143-1.92984,8.60664-5.0447,12.06836   c2.81419,10.33112-1.27542,15.76296-5.28053,18.51622C89.37793,54.33316,89.03991,54.43142,88.70583,54.43142z"/><path d="M90.98547,72.23035c-0.93741,0-1.70187-0.75464-1.7117-1.69402c-0.05109-5.18423-1.29311-8.97709-3.69263-11.27442   c-0.68389-0.65442-0.70747-1.73725-0.05306-2.41917c0.65442-0.68586,1.74118-0.70944,2.41917-0.05306   c3.09128,2.95961,4.689,7.57196,4.74992,13.71128c0.00983,0.94527-0.74874,1.71956-1.69401,1.72939   C90.99726,72.23035,90.99136,72.23035,90.98547,72.23035z"/><path d="M75.4151,30.07459c-0.51881,0-1.02977-0.23484-1.36779-0.67898c-0.56991-0.75464-0.42056-1.82765,0.33409-2.39756   c1.59378-1.20566,2.66286-2.17254,3.3782-2.92325c-0.39108-0.21814-0.77429-0.35177-1.16144-0.4068   c-0.47559-0.0678-0.90007-0.33114-1.17127-0.72713c-0.26923-0.39599-0.3616-0.88729-0.25351-1.35403   c0.35374-1.52402,0.51488-2.80632,0.4854-3.82922c-1.41888-0.12872-2.64124-0.11693-3.71228,0.03439   c-0.7684,0.11791-1.50732-0.30854-1.81193-1.01503c-0.52668-1.21843-1.14178-2.15584-1.86302-2.83482   c-1.90822,2.33958-3.16399,4.80003-3.7398,7.32827c-0.21027,0.9207-1.12606,1.5024-2.04775,1.28819   c-0.92168-0.21028-1.49945-1.12705-1.28918-2.04873c0.80377-3.5305,2.66876-6.90182,5.54387-10.02061   c0.52864-0.57384,1.37761-0.71632,2.06544-0.34882c1.61343,0.86371,2.90458,2.22364,3.92452,4.13677   c1.38744-0.08254,2.93406-0.00393,4.689,0.23976c0.69765,0.0963,1.26363,0.61118,1.42871,1.29606   c0.3223,1.34519,0.3164,2.98221-0.02162,4.97297c0.87059,0.38715,1.7176,0.97474,2.55675,1.77065   c0.60921,0.57777,0.70943,1.51125,0.23779,2.20497c-0.98064,1.4405-2.72182,3.11191-5.1744,4.96609   C76.13633,29.96159,75.77473,30.07459,75.4151,30.07459z"/></g><text x="0" y="115" fill="#000000" font-size="5px" font-weight="bold" font-family="'Helvetica Neue', Helvetica, Arial-Unicode, Arial, Sans-serif">Created by Grégory Montigny</text><text x="0" y="120" fill="#000000" font-size="5px" font-weight="bold" font-family="'Helvetica Neue', Helvetica, Arial-Unicode, Arial, Sans-serif">from the Noun Project</text></svg>