<svg xmlns="http://www.w3.org/2000/svg" viewBox="0 0 64 80" x="0px" y="0px"><path d="M16,51a3.827,3.827,0,0,1-4-4,1,1,0,0,0-2,0,3.827,3.827,0,0,1-4,4,1,1,0,0,0,0,2,3.827,3.827,0,0,1,4,4,1,1,0,0,0,2,0,3.827,3.827,0,0,1,4-4,1,1,0,0,0,0-2Z"/><path d="M61,54a4.788,4.788,0,0,1-5-5,1,1,0,0,0-2,0,4.788,4.788,0,0,1-5,5,1,1,0,0,0,0,2,4.788,4.788,0,0,1,5,5,1,1,0,0,0,2,0,4.788,4.788,0,0,1,5-5,1,1,0,0,0,0-2Z"/><path d="M7,15a1,1,0,0,0,2,0,3.827,3.827,0,0,1,4-4,1,1,0,0,0,0-2A3.827,3.827,0,0,1,9,5,1,1,0,0,0,7,5,3.827,3.827,0,0,1,3,9a1,1,0,0,0,0,2A3.827,3.827,0,0,1,7,15Z"/><path d="M53.06,38.35a21.954,21.954,0,0,0-3.49-19.58c-.02-.01-.03-.03-.04-.04A21.973,21.973,0,0,0,33,10.03V4h5a1,1,0,0,0,0-2H26a1,1,0,0,0,0,2h5v6.03a22.033,22.033,0,0,0-19.86,15,21.9,21.9,0,0,0-.2,13.32.637.637,0,0,0,.02.07,22,22,0,0,0,42.08,0A.637.637,0,0,0,53.06,38.35ZM48.49,20.71a19.913,19.913,0,0,1,2.94,6.61,13.144,13.144,0,0,1-3.51,2.47,28.127,28.127,0,0,0-1.79-8.09A25.316,25.316,0,0,0,48.49,20.71ZM32,12c1.88,0,3.91,3.8,5.06,9.7a46.271,46.271,0,0,1-10.12,0C28.09,15.8,30.12,12,32,12Zm-4.11.88a25.511,25.511,0,0,0-2.95,8.57,36.506,36.506,0,0,1-4.37-.95A15.632,15.632,0,0,1,27.89,12.88ZM12.79,37.53A20.19,20.19,0,0,1,12,32a20.481,20.481,0,0,1,.15-2.36A17,17,0,0,0,16,31.96V32a28.852,28.852,0,0,0,1.19,8.3A14.925,14.925,0,0,1,12.79,37.53Zm3.29-7.74a13.144,13.144,0,0,1-3.51-2.47,19.823,19.823,0,0,1,2.94-6.61,25.316,25.316,0,0,0,2.36.99A28.127,28.127,0,0,0,16.08,29.79Zm3.67-7.45a38.091,38.091,0,0,0,4.86,1.09A60.137,60.137,0,0,0,24,32v.28a31.794,31.794,0,0,1-5.95-1.64A26.344,26.344,0,0,1,19.75,22.34Zm.86,21.24a37.651,37.651,0,0,0,4.75.95,22.56,22.56,0,0,0,2.53,6.59A15.588,15.588,0,0,1,20.61,43.58ZM32,52c-1.61,0-3.32-2.76-4.5-7.23,1.46.14,2.95.23,4.5.23s3.04-.09,4.5-.23C35.32,49.24,33.61,52,32,52Zm4.98-9.28a47.37,47.37,0,0,1-9.96,0,52.834,52.834,0,0,1-.96-8.09A47.84,47.84,0,0,0,32,35a47.718,47.718,0,0,0,5.94-.37A52.834,52.834,0,0,1,36.98,42.72ZM37.99,32.6a46.2,46.2,0,0,1-11.98,0c0-.2-.01-.4-.01-.6a55.87,55.87,0,0,1,.6-8.32A47.207,47.207,0,0,0,32,24a47.207,47.207,0,0,0,5.4-.32A55.87,55.87,0,0,1,38,32C38,32.2,37.99,32.4,37.99,32.6ZM36.11,12.88a15.632,15.632,0,0,1,7.32,7.62,36.506,36.506,0,0,1-4.37.95A25.511,25.511,0,0,0,36.11,12.88Zm3.84,21.44a35.764,35.764,0,0,0,6.02-1.54,26.848,26.848,0,0,1-1.55,8.41,33.975,33.975,0,0,1-5.34,1.26A56.7,56.7,0,0,0,39.95,34.32Zm1.76,15.15a21.651,21.651,0,0,0,4.22-6.68,23.114,23.114,0,0,0,3.9-1.77A20.112,20.112,0,0,1,41.71,49.47Zm9.5-11.94a14.925,14.925,0,0,1-4.4,2.77A28.852,28.852,0,0,0,48,32v-.03a17.389,17.389,0,0,0,3.85-2.33A20.481,20.481,0,0,1,52,32,20.19,20.19,0,0,1,51.21,37.53Z"/><text x="0" y="79" fill="#000000" font-size="5px" font-weight="bold" font-family="'Helvetica Neue', Helvetica, Arial-Unicode, Arial, Sans-serif">Created by Mavadee</text><text x="0" y="84" fill="#000000" font-size="5px" font-weight="bold" font-family="'Helvetica Neue', Helvetica, Arial-Unicode, Arial, Sans-serif">from the Noun Project</text></svg>