<svg xmlns:dc="http://purl.org/dc/elements/1.1/" xmlns:cc="http://creativecommons.org/ns#" xmlns:rdf="http://www.w3.org/1999/02/22-rdf-syntax-ns#" xmlns:svg="http://www.w3.org/2000/svg" xmlns="http://www.w3.org/2000/svg" xmlns:sodipodi="http://sodipodi.sourceforge.net/DTD/sodipodi-0.dtd" xmlns:inkscape="http://www.inkscape.org/namespaces/inkscape" viewBox="0 0 12.7 15.875" version="1.1" x="0px" y="0px"><g transform="translate(0,-284.29998)"><path style="" d="m 5.3526897,287.10979 a 1.9797192,1.9797192 0 0 0 -0.3808007,0.0544 7.8054547,7.8054547 0 0 0 -4.4426985,3.91753 19.341476,19.341476 0 0 1 4.9678707,1.93051 7.197648,7.197648 0 0 0 3.3393264,1.16822 v 7.1e-4 a 2.840858,2.840858 0 0 0 2.4661704,-1.05244 3.9682392,3.9682392 0 0 0 0.8683,-2.29179 9.1094842,9.1094842 0 0 0 -3.7375893,-3.53463 2.4541314,2.4541314 0 0 0 -1.4785665,-0.0398 1.3225668,1.3225668 0 0 1 -0.8243778,-0.0314 1.9797192,1.9797192 0 0 0 -0.7776347,-0.12136 z m 0.00557,0.13042 a 1.8492361,1.8492361 0 0 1 0.7260352,0.11368 1.4530498,1.4530498 0 0 0 0.9059729,0.0342 2.3236484,2.3236484 0 0 1 1.392115,0.0349 8.979001,8.979001 0 0 1 3.6336392,3.4077 4.9122536,4.9122536 0 0 1 -1.147294,0.50007 6.4410437,6.4410437 0 0 0 -8.91957,-0.35849 H 0.73144623 a 7.6749711,7.6749711 0 0 1 4.27808007,-3.68249 1.8492361,1.8492361 0 0 1 0.348734,-0.0495 z m 1.0747693,2.24437 a 6.3105606,6.3105606 0 0 1 1.248422,0.16738 v 0.75045 a 0.48988173,0.48988173 0 0 1 -0.4903201,0.4896 h -0.804845 a 0.48988173,0.48988173 0 0 1 -0.489606,-0.4896 v -0.91295 a 6.3105606,6.3105606 0 0 1 0.5363491,-0.005 z m -0.6667583,0.0132 v 0.88924 a 0.48988173,0.48988173 0 0 1 -0.408011,0.48263 l -0.7239284,0.12345 a 0.48988173,0.48988173 0 0 1 -0.5600598,-0.37732 l -0.15412,-0.69953 a 6.3105606,6.3105606 0 0 1 1.8461192,-0.41847 z m 2.0455896,0.18622 a 6.3105606,6.3105606 0 0 1 1.1807535,0.4373 l -0.1227318,0.6542 a 0.20402235,0.20402235 0 0 0 0.013212,0.11089 H 8.1654156 a 0.35110092,0.35110092 0 0 1 -0.3508051,-0.35081 z m -4.0151548,0.28177 0.1499421,0.67791 a 0.62036482,0.62036482 0 0 0 0.022854,0.0802 L 3.041211,290.839 2.944261,290.39962 a 6.3105606,6.3105606 0 0 1 0.8523023,-0.43381 z m 5.3172832,0.2162 A 6.3105606,6.3105606 0 0 1 9.55196,290.4303 v 0.3829 a 0.07353928,0.07353928 0 0 1 -0.073203,0.0732 H 9.0714241 v 0 a 0.07353928,0.07353928 0 0 1 -0.072525,-0.0872 z m -6.2874251,0.29083 0.08438,0.3829 -0.7309274,0.0907 a 6.3105606,6.3105606 0 0 1 0.646547,-0.47357 z m 6.8565193,0.0412 a 6.3105606,6.3105606 0 0 1 0.5942331,0.44078 l -0.246892,0.0586 a 0.34280317,0.34280317 0 0 0 -0.1590119,0.0865 v 0 a 0.34280317,0.34280317 0 0 0 -0.209219,-0.19597 0.20402235,0.20402235 0 0 0 0.021425,-0.0907 z m -3.8554285,0.15762 a 0.62036482,0.62036482 0 0 0 0.5586315,0.35081 h 0.804845 a 0.62036482,0.62036482 0 0 0 0.1164827,-0.0105 3.3355831,3.3355831 0 0 0 1.9221436,0.63816 5.0427367,5.0427367 0 0 0 2.8009058,-0.67722 3.8377561,3.8377561 0 0 1 -0.830627,2.07489 2.7103749,2.7103749 0 0 1 -2.3517937,1.00292 v 0 A 7.0671645,7.0671645 0 0 1 5.5653719,292.9006 19.471959,19.471959 0 0 0 1.144313,291.1026 h 0.8348405 l 2.0539455,-0.25527 a 0.62036482,0.62036482 0 0 0 0.6242289,0.2741 l 0.7232142,-0.12275 a 0.62036482,0.62036482 0 0 0 0.4477908,-0.3271 z m 1.8928266,0.0544 a 0.481584,0.481584 0 0 0 0.1806517,0.21342 0.20402235,0.20402235 0 0 0 -0.066276,0.15134 v 0.0893 a 3.2051002,3.2051002 0 0 1 -0.3731233,-0.21969 0.62036482,0.62036482 0 0 0 0.2587474,-0.23434 z m 0.31806,0.29083 h 0.8167003 a 0.07353928,0.07353928 0 0 1 0.074632,0.0739 v 0.41079 A 3.2051002,3.2051002 0 0 1 7.965302,291.2414 v -0.15065 a 0.07353928,0.07353928 0 0 1 0.073239,-0.0739 z m 1.2330672,0 h 0.2817439 a 0.2123201,0.2123201 0 0 1 0.2127542,0.21202 v 0.29014 a 4.9122536,4.9122536 0 0 1 -0.531457,7.1e-4 v -7.1e-4 a 3.2051002,3.2051002 0 0 1 -0.1750811,-0.006 v -0.28386 a 0.2123201,0.2123201 0 0 1 0.21204,-0.21202 z m 1.1277608,0.0432 a 6.3105606,6.3105606 0 0 1 0.32638,0.30966 4.9122536,4.9122536 0 0 1 -0.8292335,0.14019 v -0.1632 a 0.2123201,0.2123201 0 0 1 0.1639045,-0.2064 z" fill="#000000" stroke="none"/></g><text x="0" y="27.7" fill="#000000" font-size="5px" font-weight="bold" font-family="'Helvetica Neue', Helvetica, Arial-Unicode, Arial, Sans-serif">Created by Phạm Thanh Lộc</text><text x="0" y="32.7" fill="#000000" font-size="5px" font-weight="bold" font-family="'Helvetica Neue', Helvetica, Arial-Unicode, Arial, Sans-serif">from the Noun Project</text></svg>