<svg xmlns="http://www.w3.org/2000/svg" xmlns:xlink="http://www.w3.org/1999/xlink" version="1.1" x="0px" y="0px" viewBox="0 0 50 62.5" enable-background="new 0 0 50 50" xml:space="preserve"><g><path d="M46.7,9.4c-1.4,0.3-2.6-0.3-3.5-1c1.2-0.5,2.4-1.3,3.5-2.6c0.7-0.8,0.6-1.9-0.2-2.6c-0.8-0.7-1.9-0.6-2.6,0.2   c-3,3.4-6.3,1.3-9.3,4.4C32.5,4.8,34.9,1.4,32,1c-1-0.1-1.9,0.6-2.1,1.6c0,0.3-0.7,5.7,2.9,8.6c-0.4,2.5,0.3,2.3-0.3,6   c-0.9,5.2-5.2,4.4-7.9,7.6c-0.5-1.9,0.1-4.1,0.2-4.1c0.8-2.3-2.7-3.5-3.5-1.2c-0.1,0.2-1.8,5.5,1.3,9.1c-0.7,1.9-1.1,4.1-1.3,6.2   c-2.4-3.3-6.5-5.4-6.1-11.9c0.5-0.6,2.1-2.6,5.8-5.2c5.9-4.3,5.8-11.2,5.8-11.5c0-1-0.8-1.8-1.8-1.8c0,0,0,0,0,0   c-1,0-1.8,0.9-1.8,1.9c0,0.1,0.1,5.3-4.3,8.4c-0.5,0.3-0.9,0.6-1.3,1c1.2-3.2,2.2-8.2-1.8-11.8c-0.8-0.7-1.9-0.6-2.6,0.1   c-0.7,0.8-0.6,1.9,0.1,2.6c0.8,0.7,1.7,1.9,1.6,3.9C12.6,10,11,7.2,11,7.1c-0.5-0.9-1.6-1.2-2.5-0.8C7.6,6.8,7.3,7.9,7.7,8.8   c0.1,0.2,2.4,4.4,6.5,5.3c-0.3,0.7-0.6,1.5-1,2.4c-0.7,1.4-1.1,2.8-1.4,4.2c-2.4-0.4-4-3.3-4-3.4c-0.5-0.9-1.6-1.2-2.5-0.8   C4.4,17,4,18.1,4.5,19c0.1,0.2,2.6,4.8,7,5.3c0.5,10.3,8.9,10.2,9.7,20.4c-3-1.1-8.3-4.1-8.9-11.2c-0.2-2.7-1.3-4.8-3-6.2   c-2.8-2.2-6.5-1.7-6.7-1.6c-1,0.2-1.7,1.1-1.5,2.1c0.2,1,1.1,1.7,2.1,1.5c0,0,2.3-0.3,3.9,0.9c0.9,0.7,1.5,2,1.6,3.6   c0.8,10.1,9.5,14.3,14,15.1c1.1,0.2,2.1-0.6,2.2-1.7c0.5-0.8,1.4-8.4,7.6-10.7c1.8-0.7,3.4-1.6,4.8-2.6c3.5,0.5,6.9-0.2,8.9-3.1   c0.6-0.8,0.4-2-0.5-2.6c-0.8-0.6-2-0.4-2.6,0.5c-0.5,0.8-1.3,1.2-2.1,1.4c2.1-2.8,3.1-5.7,3.1-7.4c0-1-0.8-1.9-1.8-1.9   c-1,0-1.9,0.8-1.9,1.8c0,1.5-1.4,4.9-4.6,7.7c-0.2,0.1-0.4,0.3-0.6,0.5c-3.9,3.1-6.7,2-10.5,7.2c0.1-3.2,0.7-9,3.1-11.2   c2.9,1.6,6.3,2.1,9.2,0.2c0.8-0.6,1.1-1.7,0.5-2.6C37,23.6,35.8,23.4,35,24c-1,0.6-2.1,0.7-3.1,0.5c3.3-2.2,3.9-4.3,4.3-6.6   c0.9-5-0.8-7.7,2.8-8.4c2.2,2.6,5.2,4.3,8.5,3.5c1-0.2,1.6-1.2,1.4-2.2C48.7,9.7,47.7,9.1,46.7,9.4z"/></g><text x="0" y="65" fill="#000000" font-size="5px" font-weight="bold" font-family="'Helvetica Neue', Helvetica, Arial-Unicode, Arial, Sans-serif">Created by Vectors Market</text><text x="0" y="70" fill="#000000" font-size="5px" font-weight="bold" font-family="'Helvetica Neue', Helvetica, Arial-Unicode, Arial, Sans-serif">from the Noun Project</text></svg>