<svg xmlns="http://www.w3.org/2000/svg" xmlns:xlink="http://www.w3.org/1999/xlink" version="1.1" x="0px" y="0px" viewBox="0 0 90 112.5" style="enable-background:new 0 0 90 90;" xml:space="preserve"><path d="M67.064453,16.574219c0.552734,0,1-0.447754,1-1V11.23291c0-0.552246-0.447266-1-1-1H53.891602  c-1.560547,0-2.90918,1.164551-3.136719,2.708984l-0.912231,6.193848h-30.51062c-0.552734,0-1,0.447754-1,1v10.32666  c0,0.552246,0.447266,1,1,1h1.952026l5.667114,47.42334c0.060547,0.50293,0.486328,0.881348,0.993164,0.881348h34.111328  c0.506836,0,0.932617-0.378418,0.993164-0.881348l5.667114-47.42334h1.952026c0.552734,0,1-0.447754,1-1v-10.32666  c0-0.552246-0.447266-1-1-1h-14.41626l0.377197-2.561523H67.064453z M61.167969,77.76709H28.832031l-2.856018-23.900208  c1.574524-1.349548,5.107117-3.838745,7.469299-3.272644c0.982422,0.23584,1.702148,1.007324,2.199219,2.35791  c0.923828,2.509766,2.013672,3.82373,3.430664,4.135254c2.071289,0.458984,4.006836-1.469727,6.047852-3.511719  c0.765625-0.764648,1.556641-1.556152,2.358398-2.228027c1.316406-1.102051,3.227539-2.058594,4.847656-0.369629  c0.636719,0.663574,1.117188,1.635254,1.625,2.664063c1.012695,2.048828,2.160156,4.371582,4.960938,4.748535  c0.229492,0.030762,0.456055,0.045898,0.680664,0.045898c1.514709,0,2.921021-0.714172,4.12146-2.00177L61.167969,77.76709z   M64.31543,51.42804c-0.484558,1.383423-2.15271,5.38446-5.132813,4.980164c-1.74707-0.234863-2.529297-1.818359-3.43457-3.652344  c-0.553711-1.119141-1.125-2.276855-1.975586-3.162598c-2.040039-2.123047-4.870117-2.043457-7.574219,0.221191  c-0.870117,0.728516-1.693359,1.55127-2.489258,2.347168c-1.49707,1.497559-3.191406,3.205078-4.204102,2.972168  c-0.650391-0.142578-1.354492-1.162598-1.983398-2.87207c-0.735352-1.999512-1.951172-3.215332-3.612305-3.612793  c-2.913147-0.699829-6.304871,1.415588-8.21344,2.872498l-2.397034-20.059021h43.402588L64.31543,51.42804z M69.667969,21.135742  v8.32666H20.332031v-8.32666H69.667969z M55.765625,14.574219c-0.496094,0-0.916992,0.36377-0.989258,0.854492l-0.546021,3.707031  h-2.366333l0.869385-5.902344c0.085938-0.57959,0.572266-1.000488,1.158203-1.000488h12.172852v2.341309H55.765625z"/><path d="M36.100586,65.226074c-2.601563,0-4.717773,2.116211-4.717773,4.717773s2.116211,4.717773,4.717773,4.717773  s4.717773-2.116211,4.717773-4.717773S38.702148,65.226074,36.100586,65.226074z M36.100586,72.661621  c-1.499023,0-2.717773-1.219238-2.717773-2.717773s1.21875-2.717773,2.717773-2.717773s2.717773,1.219238,2.717773,2.717773  S37.599609,72.661621,36.100586,72.661621z"/><path d="M49.120117,63.287598c0-1.819824-1.480469-3.300293-3.300781-3.300293c-1.819336,0-3.299805,1.480469-3.299805,3.300293  S44,66.587891,45.819336,66.587891C47.639648,66.587891,49.120117,65.107422,49.120117,63.287598z M45.819336,64.587891  c-0.716797,0-1.299805-0.583496-1.299805-1.300293s0.583008-1.300293,1.299805-1.300293s1.300781,0.583496,1.300781,1.300293  S46.536133,64.587891,45.819336,64.587891z"/><path d="M50.49707,69.311035c-1.862305,0-3.376953,1.515137-3.376953,3.377441s1.514648,3.377441,3.376953,3.377441  s3.37793-1.515137,3.37793-3.377441S52.359375,69.311035,50.49707,69.311035z M50.49707,74.065918  c-0.758789,0-1.376953-0.618164-1.376953-1.377441s0.618164-1.377441,1.376953-1.377441  c0.759766,0,1.37793,0.618164,1.37793,1.377441S51.256836,74.065918,50.49707,74.065918z"/><path d="M52.874023,64.388184c0,2.426758,1.973633,4.400879,4.400391,4.400879s4.401367-1.974121,4.401367-4.400879  s-1.974609-4.400879-4.401367-4.400879S52.874023,61.961426,52.874023,64.388184z M59.675781,64.388184  c0,1.32373-1.077148,2.400879-2.401367,2.400879c-1.323242,0-2.400391-1.077148-2.400391-2.400879  s1.077148-2.400879,2.400391-2.400879C58.598633,61.987305,59.675781,63.064453,59.675781,64.388184z"/><path d="M35.619141,59.619141c0-1.979004-1.610352-3.588867-3.588867-3.588867s-3.588867,1.609863-3.588867,3.588867  c0,1.978516,1.610352,3.588379,3.588867,3.588379S35.619141,61.597656,35.619141,59.619141z M30.441406,59.619141  c0-0.875977,0.712891-1.588867,1.588867-1.588867s1.588867,0.712891,1.588867,1.588867s-0.712891,1.588379-1.588867,1.588379  S30.441406,60.495117,30.441406,59.619141z"/><text x="0" y="105" fill="#000000" font-size="5px" font-weight="bold" font-family="'Helvetica Neue', Helvetica, Arial-Unicode, Arial, Sans-serif">Created by iconcheese</text><text x="0" y="110" fill="#000000" font-size="5px" font-weight="bold" font-family="'Helvetica Neue', Helvetica, Arial-Unicode, Arial, Sans-serif">from the Noun Project</text></svg>