<svg xmlns="http://www.w3.org/2000/svg" xmlns:xlink="http://www.w3.org/1999/xlink" xmlns:sketch="http://www.bohemiancoding.com/sketch/ns" viewBox="0 0 51 47.5" version="1.1" x="0px" y="0px"><title>Artboard 10 Copy</title><desc>Created with Sketch.</desc><g stroke="none" stroke-width="1" fill="none" fill-rule="evenodd" sketch:type="MSPage"><g sketch:type="MSArtboardGroup" fill="#000000"><path d="M37.1328612,25.484914 C39.8183359,23.7281288 41.7273571,21.5150081 42.6608218,19.4753303 L42.6608218,19.4753303 C35.5862577,22.8575188 30.3795077,24.2709949 22.566296,24.932515 C26.5054615,25.6653391 31.3024599,25.9874603 37.1328612,25.484914 Z M34.3118982,27.0154303 C31.8605403,28.099235 28.9813957,28.7876282 25.7670901,28.7876282 C20.9042489,28.7876282 16.74463,27.4073523 13.6753348,25.3897158 C14.9704391,25.3518116 16.1975175,25.3081955 17.3661172,25.2562712 C22.2373465,26.6763645 27.92286,27.3304717 34.3118982,27.0154303 Z M8.44045296,19.2942199 C8.15851827,18.5140572 8.00806741,17.7335759 8,16.9736945 C7.94995117,12.2595215 15.340392,9.2121582 25.8320312,9.2121582 C36.3236705,9.2121582 43.4375,12.4938965 43.3085327,16.9736945 C43.3002577,17.2611362 43.2640204,17.5603293 43.2006717,17.8685823 L43.2006717,17.8685823 C35.6981388,22.3635662 26.5457994,23.8344429 19.6934712,24.2924432 C14.1383213,22.8413086 10.6194354,20.6279349 8.44045296,19.2942199 Z M10.2068817,22.318941 C10.8265457,23.0758377 11.5677221,23.803914 12.4188997,24.4810781 C13.1545106,24.488524 14.0173502,24.4913968 14.9850658,24.4783145 C13.2750998,23.8563915 11.6804691,23.1331104 10.2068817,22.318941 Z M25.6717184,20.803177 C32.3762729,20.803177 39.5980883,19.0684076 39.5980883,16.0208829 C39.5980883,12.9733581 32.3762729,11.2385888 25.6717184,11.2385888 C18.967164,11.2385888 11.7453486,12.9733581 11.7453486,16.0208829 C11.7453486,19.0684076 18.967164,20.803177 25.6717184,20.803177 Z" sketch:type="MSShapeGroup"/></g></g><text x="0" y="53" fill="#000000" font-size="5px" font-weight="bold" font-family="'Helvetica Neue', Helvetica, Arial-Unicode, Arial, Sans-serif">Created by Nick Bluth</text><text x="0" y="58" fill="#000000" font-size="5px" font-weight="bold" font-family="'Helvetica Neue', Helvetica, Arial-Unicode, Arial, Sans-serif">from the Noun Project</text></svg>