<svg xmlns="http://www.w3.org/2000/svg" viewBox="0 0 100 125" x="0px" y="0px"><g><path d="M85.5791,72.1631c-1.8862-9.1992-6.5308-13.9849-9.08-15.9937a8.45,8.45,0,0,0,1.0474-6.2163c-.5554-3.0916-4.5739-8.6765-10.9628-13.148l.0111-2.3344a3.3481,3.3481,0,0,0,.417-.07c1.6318-.3867,2.9253-1.7105,3.8447-3.9336a26.0524,26.0524,0,0,0,1.502-10.5152v-.0014q-.0132-.7728-.0366-1.5376c-.0161-.563-.0059-1.14.0039-1.7212a15,15,0,0,0-.7315-5.9663A11.6193,11.6193,0,0,0,66.49,5.0894a15.2558,15.2558,0,0,0-18.163,2.1049,17.194,17.194,0,0,0-4.03,18.2857,15.0733,15.0733,0,0,0,6.7363,7.1172l-.2152.7351C44.5126,35.4989,41.0516,41.826,39.8428,44.5c-.0166.0365-.0238.0745-.0375.1115a8.1112,8.1112,0,0,0-.6144,1.5623,43.4174,43.4174,0,0,0-1.6562,9.3291,46.7626,46.7626,0,0,0,.4013,8.105,9.3154,9.3154,0,0,0,1.4035,3.8c.3886,1.7252.8051,3.266,1.1751,4.6272.4078,1.501.76,2.7973.92,3.8027,1.3969,8.731-2.5079,18.6777-2.5474,18.7774a1.7009,1.7009,0,0,0,1.5791,2.33l.019-.0005,32.5435-.3671a1.7065,1.7065,0,0,0,1.644-1.3472c.0079-.0361.813-3.6431,3.4829-5.3511A16.317,16.317,0,0,0,85.5791,72.1631ZM67.7148,29.1685c-.4648,1.1235-.9926,1.8066-1.4692,1.92a3.07,3.07,0,0,1-.9517-.13,1.7,1.7,0,0,0-2.09,1.6465l-.0259,5.4409a3.8526,3.8526,0,0,1-1.9868.2807,12.1483,12.1483,0,0,1-7.4072-3.0278l.4958-1.6935a1.6658,1.6658,0,0,0,.2073-.3329l1.12-2.5927a9.0347,9.0347,0,0,0,1.0254-3.4151l.1694-2.2348a1.7079,1.7079,0,0,0-.7758-1.5581c-.83-.5371-2.0015-1.6621-2.0445-2.3775-.0048-.0776-.019-.313.4649-.7163.2324-.1943.9653.001,1.3545.2134a1.7,1.7,0,0,0,2.4453-.9111c.0093-.0264,1.0449-2.627,5.5708-3.4424,2.9451-.5295,4.5614.3041,5.1089.6722-.0084.54-.0175,1.0776-.0025,1.6012q.0213.7441.0357,1.4961A23.085,23.085,0,0,1,67.7148,29.1685ZM47.4224,24.1431A13.6664,13.6664,0,0,1,50.71,9.62,11.9966,11.9966,0,0,1,64.813,8.0474a8.2151,8.2151,0,0,1,3.6294,3.9531,5.9315,5.9315,0,0,1,.3159,1.1142,11.5412,11.5412,0,0,0-5.5435-.2221A11.153,11.153,0,0,0,55.9,17.0361a4.2549,4.2549,0,0,0-5.311,4.2744c.1245,1.98,1.6972,3.5616,2.7519,4.4083L53.25,26.9331a5.8086,5.8086,0,0,1-.5185,1.9356,1.6771,1.6771,0,0,0-.1846.3237l-.1219.2821A11.5433,11.5433,0,0,1,47.4224,24.1431Zm5.56,41.8374,11.0528,7a1.7,1.7,0,0,0,2.4633-.7456l.6861-1.544c.123-.2773.4253-.3838.9018-.3144.4829.07.65.7163.6382.9746l-.0723,1.5913a1.7005,1.7005,0,0,0,1.3692,1.7451l2.7534.543a1.5956,1.5956,0,0,1-.5566,3.1416l-5.9746-.94a1.7459,1.7459,0,0,0-.1749-.0185,11.29,11.29,0,0,1-4.48-1.1827L44.57,67.7227a5.9714,5.9714,0,0,1-3.2632-4.56,43.3382,43.3382,0,0,1-.3759-7.5122A40.7072,40.7072,0,0,1,42.47,47.0728a4.6825,4.6825,0,0,1,4.5176-3.4478c.1421,0,.2856.0068.43.02a4.6889,4.6889,0,0,1,4.1973,5.46l-1.7081,9.9927A6.7547,6.7547,0,0,0,52.9824,65.9805ZM76.3242,87.0142a12.1178,12.1178,0,0,0-4.5864,6.1772l-28.87.3257C44.04,89.8125,45.92,82.3462,44.7925,75.3a42.7339,42.7339,0,0,0-.9971-4.1567l-.0021-.0077,16.2746,8.1375A14.6513,14.6513,0,0,0,65.8,80.8047l5.89.9263a5.1341,5.1341,0,0,0,.795.0625,4.9966,4.9966,0,0,0,.9477-9.8985l-1.3174-.26.0059-.129a4.3135,4.3135,0,0,0-3.5483-4.4946A4.1233,4.1233,0,0,0,64.1992,69.06L54.7949,63.104A3.3687,3.3687,0,0,1,53.2578,59.67l1.708-9.9927A8.0519,8.0519,0,0,0,46.58,40.2422a13.7328,13.7328,0,0,1,4.125-3.1943,15.4065,15.4065,0,0,0,10.3484,4.6767c.1636.0064.3218.01.4761.01a5.6044,5.6044,0,0,0,4.1691-1.3708c5.0421,3.8132,8.1492,8.229,8.5013,10.1906.5688,3.1646-1.1514,4.5093-1.2,4.5469a1.7048,1.7048,0,0,0,.1714,2.893c.2773.15,6.8115,3.8052,9.0761,14.8516A12.8631,12.8631,0,0,1,76.3242,87.0142Z"/><path d="M30.1768,15.5283H15.7085a1.7,1.7,0,0,0-1.7,1.7v5.4453a1.7,1.7,0,0,0,1.7,1.7h2.4648v4.7583h-.7739a1.7,1.7,0,0,0-1.7,1.7v35.18a1.7,1.7,0,0,0,1.7,1.7h4.043V88.08a1.5,1.5,0,0,0,3,0V67.7124h4.0434a1.7,1.7,0,0,0,1.7-1.7v-35.18a1.7,1.7,0,0,0-1.7-1.7h-.7739V24.374h2.4649a1.7,1.7,0,0,0,1.7-1.7V17.2285A1.7,1.7,0,0,0,30.1768,15.5283ZM26.7856,32.5327v24.69H19.1v-24.69ZM19.1,64.312V60.373h7.686v3.939Zm5.2119-35.18H21.5737V24.374h2.7378Zm4.1651-8.1587H17.4087V18.9287H28.4766Z"/><path d="M21.7827,40.9238h2.7891a1.05,1.05,0,0,0,0-2.1006H21.7827a1.05,1.05,0,0,0,0,2.1006Z"/><path d="M21.7827,50.8447h2.7891a1.05,1.05,0,0,0,0-2.1006H21.7827a1.05,1.05,0,0,0,0,2.1006Z"/></g><text x="0" y="115" fill="#000000" font-size="5px" font-weight="bold" font-family="'Helvetica Neue', Helvetica, Arial-Unicode, Arial, Sans-serif">Created by Max Hancock</text><text x="0" y="120" fill="#000000" font-size="5px" font-weight="bold" font-family="'Helvetica Neue', Helvetica, Arial-Unicode, Arial, Sans-serif">from the Noun Project</text></svg>