<svg xmlns="http://www.w3.org/2000/svg" data-name="Layer 1" viewBox="0 0 100 125" x="0px" y="0px"><title>icons_animals_4</title><path d="M16.38,78c6.26,0,12.93-1.57,17.08-5.87,3.95-3.08,6.74-3.2,8.07-3l-3,7.57A1,1,0,0,0,39.42,78H79.91a1,1,0,0,0,1-1.12,6.31,6.31,0,0,0-4.78-5.74l-.19,0H70.76A9.87,9.87,0,0,0,74,60.69c1.51-2,2.56-3.71,3-4.5a18.34,18.34,0,0,0,4.23-.6c4.15,1,6.33-.93,7-3.15l.07-.21.71,0c2.94,0,5-.61,6.17-1.84a4.56,4.56,0,0,0,1.17-3.76A3.38,3.38,0,0,0,95.11,44c-1.33-.95-3.26-.46-5.12,0A10.61,10.61,0,0,1,85,43.52l1-2a8.23,8.23,0,0,0,4.33-2.61v.8a1,1,0,0,0,1.22,1L94.55,40a1,1,0,0,0,.78-1V33.87c1.35-2.76,2.54-6.15.84-7.18a1,1,0,0,0-.4-.14c-2.14-.25-4.15-1.58-6.47-3.13-1.09-.73-2.22-1.48-3.47-2.19-3.8-2.17-9.48-.66-11-.2L71,19.48a1,1,0,0,0-1.37,1.07L70,23c-.88.68-4.54,2.78-16.9,3.59-8.29.55-15.93,6.26-19.45,14.54a21.14,21.14,0,0,0,2.59,21.75,88.19,88.19,0,0,1-10.39-.16c-8.42-.56-21.12,4.62-24.72,10.08a1,1,0,0,0,.15,1.28C3.6,76.2,9.77,78,16.38,78Zm50.78-6.67a1,1,0,0,0,.51,1.86h8.15A4.23,4.23,0,0,1,78.67,76H67.2a5.35,5.35,0,0,0-1.37-2.81,6.42,6.42,0,0,0-3.13-1.75,37.72,37.72,0,0,0,9.74-8.74C72.65,64.83,72.11,68.37,67.16,71.29ZM90.47,46c1.29-.32,2.9-.72,3.48-.31a1.57,1.57,0,0,1,.44,1.15A2.63,2.63,0,0,1,93.78,49c-.81.83-2.49,1.25-4.88,1.23a2.76,2.76,0,0,0-.53-2.41c-.83-.95-2.44-1.24-5.07-.93l.82-1.58C85.5,45.78,88.3,46.53,90.47,46Zm-55-4.11c3.23-7.6,10.2-12.83,17.74-13.33,10.34-.68,15-2.25,17.09-3.41l.38,2.56a1,1,0,0,0,1,.85h.15a1,1,0,0,0,.84-1.14l-.64-4.3s0,0,0-.07l-.15-1,4.2,1.72a1,1,0,0,0,1.3-.55,1,1,0,0,0,0-.7c2.11-.42,5.26-.73,7.43.51,1.19.68,2.29,1.41,3.35,2.12C90.46,26.61,92.62,28,95,28.47a14.51,14.51,0,0,1-1.6,4.72,1,1,0,0,0-.11.45v4.63l-.91.21v-3a1,1,0,0,0-1.94-.35s-1.52,4-5.22,4.52c-3.86.59-5.37.07-5.37.07a1,1,0,1,0-.77,1.85,7.92,7.92,0,0,0,2.84.37c.49,0,1.05,0,1.68-.08l-2.82,5.42C73,48.5,63,43.26,62.91,43.21A1,1,0,0,0,62,45c.45.24,11.12,5.84,19.71,4.2,4.23-.81,5.05-.15,5.18,0,.28.32-.05,1.33-.3,2.06-.07.22-.15.44-.21.66C85.63,54.34,83,54,81.5,53.58a1,1,0,0,0-.74.08,13.09,13.09,0,0,1-4.17.59h-.11c-4.85.18-12-.35-13.32-1.72a1,1,0,0,0-1.46,1.37c1.59,1.68,7.51,2.37,12.56,2.37h.38c-2.29,3.54-8.52,12.23-16,14.88l-2.31,0c2.43-1.93,5.06-5.47,4.42-11.6-.37-3.54-1.66-6.15-3.83-7.76a9.83,9.83,0,0,0-7.15-1.58,1,1,0,0,0,.39,2,7.8,7.8,0,0,1,5.57,1.23c1.7,1.26,2.72,3.4,3,6.36,1,9.19-6.37,11.41-6.68,11.5a1,1,0,0,0-.72,1.11,1,1,0,0,0,1,.85l7.14-.13c2.22-.06,3.84.44,4.8,1.43A3.36,3.36,0,0,1,65.17,76H40.9l2.89-7.23a1,1,0,0,0,.07-.29s0,0,0,0a1,1,0,0,0,0-.3l0-.1a1,1,0,0,0-.12-.22l-.06-.08,0,0S41.07,65.1,38.2,62.1C33.5,56.52,32.49,49,35.51,41.88ZM25.73,64.69a79.82,79.82,0,0,0,12.23,0l2.21,2.32c-1.93.11-4.67.89-8,3.5l-.11.1c-7.38,7.72-24,5.4-28.68,2.48C7.25,68.5,18.43,64.18,25.73,64.69Z"/><circle cx="81.49" cy="27.55" r="1.5"/><text x="0" y="115" fill="#000000" font-size="5px" font-weight="bold" font-family="'Helvetica Neue', Helvetica, Arial-Unicode, Arial, Sans-serif">Created by Iconic</text><text x="0" y="120" fill="#000000" font-size="5px" font-weight="bold" font-family="'Helvetica Neue', Helvetica, Arial-Unicode, Arial, Sans-serif">from the Noun Project</text></svg>