<svg xmlns="http://www.w3.org/2000/svg" xmlns:xlink="http://www.w3.org/1999/xlink" version="1.1" x="0px" y="0px" viewBox="0 0 50 62.5" enable-background="new 0 0 50 50" xml:space="preserve"><g><g><g><path d="M39.4237022,30c0.9799995-3.4799995,1.5600014-8.75-0.2599983-11.3199997     c-0.0900002,0.3400002-0.2300987,0.6599998-0.4099998,0.9799995c-2.3600006,3.960001-11.1300964,4.2600002-13.7600975,4.2600002     c-2.5599995,0-10.4899035-0.2900009-13.2999039-3.6499996c-0.6099997,1.8999996-0.9099998,4.0900002-0.9099998,6.539999     c0,0.9899998,0.0799999,1.9700012,0.2300005,2.9400005c-4.6500001,2.3899994-3.2400002,9.6599998,2.5799999,9.6599998     C15.6836071,45.2599983,20.0837021,49,24.9936066,49c5,0,9.3700943-3.9099998,11.4100952-9.5900002     c0.0800018,0,0.1499062,0.0099983,0.2299995,0.0099983c2.8300018,0,5.1300011-2.2999992,5.1300011-5.1299973     C41.7637024,32.5400009,40.8637009,30.9400005,39.4237022,30z M11.4437027,31.8299999     c0.2700005,1.0300007,0.6300001,2.0199986,1.0700006,2.9699993c0.1099033,0.8899994,0.2599993,1.7700005,0.46,2.6000023     C10.2837029,37.0699997,9.2037029,33.6100006,11.4437027,31.8299999z M24.9936066,47     c-4.2399044,0-8.0699043-3.5200005-9.7599039-8.9799995c-0.0099993,0-0.0099993,0-0.0099993,0     c-1.3200006-4.2299995-1.1500006-9.0699997,0.5699997-13.3600006c1.789999,1.0300007,4.7799988,1.9500008,8.2999992,1.9500008     c3.9200001,0,7.5200005-1.1000004,9.6799984-2.8800011C38.5737038,33.4900017,33.5837021,47,24.9936066,47z      M37.0037041,37.3800011c0.2899971-1.1800003,0.4799995-2.4099998,0.5699997-3.7000008     c0.4300003-0.4000015,0.8099976-0.9900017,1.1399994-1.710001c0.6599045,0.5799999,1.0499992,1.4200001,1.0499992,2.3200016     C39.7637024,35.8899994,38.5536079,37.2000008,37.0037041,37.3800011z"/></g></g><g><g><path d="M29.3721027,40.8964996c-0.2726002,0.8323021-0.8901005,1.512001-1.6422005,1.9808006     c-0.7562962,0.4669991-1.6588993,0.7167015-2.5615997,0.7169991c-0.9027996,0.0023003-1.8059998-0.2476006-2.5625992-0.7145004     c-0.7527008-0.468399-1.3704014-1.1492004-1.641201-1.9832993c0.8321037,0.2649002,1.5304012,0.468399,2.216301,0.5951996     c0.6809998,0.1299019,1.3334999,0.1891022,1.9874992,0.1924019c0.6541004-0.0006027,1.3073044-0.0601006,1.9885006-0.1901016     C27.8432026,41.3678017,28.5418034,41.1632004,29.3721027,40.8964996z"/></g></g><g><g><path d="M29.7237034,40.5400009c-0.1300011-0.1300011-0.3299999-0.1800003-0.5-0.1200027     c-0.8200016,0.2600021-1.5,0.4600029-2.1599998,0.5800018c-0.6300964,0.1199989-1.25,0.1800003-1.8900013,0.1800003     c-0.6499996,0-1.2700005-0.0600014-1.8999996-0.1800003c-0.6599998-0.1199989-1.3400955-0.3199997-2.1599998-0.5800018     c-0.1800957-0.0599976-0.3700962-0.0099983-0.5,0.1200027c-0.1399994,0.1399994-0.1800957,0.329998-0.1200962,0.5099983     c0.2800961,0.8899994,0.9400005,1.6900024,1.8500957,2.25c0.8199997,0.5100021,1.8199997,0.7900009,2.8099995,0.7900009     h0.0100002c1,0,2-0.2799988,2.8299046-0.7900009c0.9000969-0.5599976,1.5599995-1.3600006,1.8500957-2.25     C29.9037018,40.8699989,29.8637028,40.6800003,29.7237034,40.5400009z M22.8736076,42.4599991     C22.5337029,42.25,22.2537022,42,22.0137024,41.7299995c0.3700008,0.1000023,0.7200012,0.1899986,1.0699997,0.25     c0.6900005,0.1300011,1.3700008,0.2000008,2.0900002,0.2000008c0.6999054,0,1.3799038-0.0600014,2.0699043-0.1899986     c0.3500957-0.0700035,0.7100964-0.1500015,1.070097-0.25c-0.2300014,0.2699966-0.5200005,0.5099983-0.8500004,0.7099991     c-0.6700001,0.4199982-1.4799995,0.6399994-2.3000011,0.6399994l-0.0100002,0.5v-0.5     C24.3537025,43.0900002,23.5337029,42.8699989,22.8736076,42.4599991z"/></g></g><g><g><path d="M25.157402,39.5015984c-0.8158989,0-1.6406002-0.2313995-2.3223-0.652298     c-0.2347984-0.1450996-0.3076-0.4532013-0.1625996-0.6879997c0.1455002-0.2354012,0.453701-0.3081017,0.6879997-0.1626015     c0.5283012,0.3257027,1.2046013,0.5263023,1.8066998,0.5028992c0.6401005-0.0004997,1.2821999-0.1796989,1.809-0.5048981     c0.2359009-0.1455002,0.5435009-0.0722008,0.6879997,0.1626015c0.1451015,0.2348976,0.0723,0.5429993-0.1625957,0.6879997     c-0.6821041,0.4213982-1.510704,0.6537971-2.3325024,0.6542969     C25.1652031,39.5015984,25.1613026,39.5015984,25.157402,39.5015984z"/></g></g><g><g><path d="M29.0137024,31.6299992c-1.1000004,0-2,0.960001-2,2.1299992c0,1.170002,0.8999996,2.1300011,2,2.1300011     s2-0.9599991,2-2.1300011C31.0137024,32.5900002,30.1137028,31.6299992,29.0137024,31.6299992z M28.5437031,33.8699989     c-0.3700008,0-0.6700954-0.2999992-0.6700954-0.6599998c0-0.3699989,0.3000946-0.6599998,0.6700954-0.6599998     c0.3599987,0,0.6599998,0.2900009,0.6599998,0.6599998C29.2037029,33.5699997,28.9037018,33.8699989,28.5437031,33.8699989z"/></g></g><g><g><path d="M21.3237019,31.6299992c-1.0999985,0-1.9999981,0.960001-1.9999981,2.1299992     c0,1.170002,0.8999996,2.1300011,1.9999981,2.1300011c1.1000004,0,2-0.9599991,2-2.1300011     C23.3237019,32.5900002,22.4237022,31.6299992,21.3237019,31.6299992z M21.7937031,33.8699989     c-0.360096,0-0.6599998-0.2999992-0.6599998-0.6599998c0-0.3699989,0.2999039-0.6599998,0.6599998-0.6599998     c0.3699989,0,0.6700001,0.2900009,0.6700001,0.6599998C22.4637032,33.5699997,22.163702,33.8699989,21.7937031,33.8699989z"/></g></g><g><g><path d="M17.8762035,31.7604008c-0.2084999-0.1812-0.2305012-0.4971008-0.0494003-0.7056007     c1.0790997-1.2416992,3.1905003-1.9916992,4.8071995-1.7124004c0.2719002,0.0473995,0.4540997,0.3066998,0.4067001,0.5785999     c-0.0473995,0.2714996-0.3031998,0.4526997-0.5785999,0.4068012c-1.2583008-0.2198009-3.0380993,0.4139996-3.8803997,1.3832989     C18.4014034,31.9190998,18.0855026,31.9417,17.8762035,31.7604008z"/></g></g><g><g><path d="M31.7551022,31.7110996c-0.8417988-0.9692993-2.6196995-1.6030998-3.8803997-1.3832989     c-0.2744007,0.0453987-0.5312996-0.1353016-0.5785999-0.4068012c-0.0473995-0.2719002,0.1347008-0.5312004,0.4067001-0.5785999     c1.6196003-0.2798004,3.7280006,0.4707012,4.8071003,1.7124004c0.1811981,0.2084999,0.1591988,0.5244007-0.0492973,0.7056007     C32.251606,31.9414005,31.935606,31.9193001,31.7551022,31.7110996z"/></g></g><g><g><g><path d="M21.7937031,4.3400002C20.9936066,5.77,19.6037025,8.25,19.2037029,8.96      c-0.4899998-0.8500004-1.1700001-2.02-2.1599998-3.75L18.7137032,1.58C18.8736076,1.23,19.2337036,1,19.6236076,1      c0.3900948,0,0.75,0.23,0.9100952,0.58L21.7937031,4.3400002z"/></g></g><g><g><path d="M32.1937027,6.54C31.6537018,7.46,31.1137028,8.4200001,30.7937031,8.9700003      c-0.6900005-1.2300005-1.6400013-2.9200001-3.1900005-5.6600003C27.553606,3.22,27.4936066,3.1300001,27.4237022,3.04      L28.0937023,1.58C28.2537022,1.23,28.6137028,1,29.0037022,1c0.3900013,0,0.75,0.23,0.9099998,0.58L32.1937027,6.54z"/></g></g></g><g><g><g><path d="M26.803606,15.2200003c0,0.9899988-0.8099995,1.8000002-1.8099995,1.8000002      c-0.9899044,0-1.7999039-0.8100014-1.7999039-1.8000002c0-1,0.8099995-1.8000002,1.7999039-1.8000002      C25.9936066,13.4200001,26.803606,14.2200003,26.803606,15.2200003z"/></g><g><path d="M36.5737038,4.4099998c-0.4400024-0.1099997-0.9000015,0.0799999-1.1300011,0.4700003      c-0.8699989,1.52-3.5400009,6.1899996-4.6700001,8.1300001c-1.0300961-1.8299999-1.6800003-3-4.9099998-8.7200003      C25.6836071,3.97,25.3537025,3.78,24.9936066,3.78C24.6337032,3.78,24.303606,3.97,24.1236076,4.29      c-0.0700016,0.1199999-4.5799046,8.1400003-4.8999043,8.71c-0.9400005-1.6400003-1.1599998-2-4.6700964-8.1199999      C14.3237028,4.4899998,13.8637028,4.29,13.4237032,4.4099998c-0.4400005,0.1200004-0.7400961,0.52-0.7400961,0.9700003v12.21      c0,0.2800007,0.0500956,0.539999,0.1600962,0.7800007c1,2.4499989,6.8100004,3.5499992,12.1499033,3.5499992      c5.0200958,0,10.6800957-1,12.0200958-3.25c0.2000008-0.3500004,0.2999992-0.710001,0.2999992-1.0799999v-12.21      C37.3137016,4.9299998,37.0137024,4.5300002,36.5737038,4.4099998z M24.9936066,18.0200005      c-1.5399036,0-2.7999039-1.2600002-2.7999039-2.8000002c0-1.5500002,1.2600002-2.8000002,2.7999039-2.8000002      c1.5500965,0,2.8099995,1.25,2.8099995,2.8000002C27.803606,16.7600002,26.5437031,18.0200005,24.9936066,18.0200005z"/></g></g></g></g><text x="0" y="65" fill="#000000" font-size="5px" font-weight="bold" font-family="'Helvetica Neue', Helvetica, Arial-Unicode, Arial, Sans-serif">Created by Vectors Point</text><text x="0" y="70" fill="#000000" font-size="5px" font-weight="bold" font-family="'Helvetica Neue', Helvetica, Arial-Unicode, Arial, Sans-serif">from the Noun Project</text></svg>