<?xml version="1.0" encoding="UTF-8" standalone="no"?>
<!-- Created with Inkscape (http://www.inkscape.org/) -->

<svg
   width="16"
   height="16"
   viewBox="0 0 16 16"
   version="1.1"
   id="svg5"
   inkscape:version="1.2.2 (732a01da63, 2022-12-09)"
   sodipodi:docname="102E0.svg"
   inkscape:export-filename="..\0000.png"
   inkscape:export-xdpi="96"
   inkscape:export-ydpi="96"
   xml:space="preserve"
   xmlns:inkscape="http://www.inkscape.org/namespaces/inkscape"
   xmlns:sodipodi="http://sodipodi.sourceforge.net/DTD/sodipodi-0.dtd"
   xmlns="http://www.w3.org/2000/svg"
   xmlns:svg="http://www.w3.org/2000/svg"><sodipodi:namedview
     id="namedview7"
     pagecolor="#ffffff"
     bordercolor="#666666"
     borderopacity="1.0"
     inkscape:pageshadow="2"
     inkscape:pageopacity="0"
     inkscape:pagecheckerboard="0"
     inkscape:document-units="px"
     showgrid="true"
     width="16mm"
     units="px"
     inkscape:zoom="47.125"
     inkscape:cx="3.3421751"
     inkscape:cy="8.3395225"
     inkscape:window-width="1680"
     inkscape:window-height="998"
     inkscape:window-x="-8"
     inkscape:window-y="-8"
     inkscape:window-maximized="1"
     inkscape:current-layer="layer1"
     showguides="true"
     inkscape:guide-bbox="true"
     inkscape:snap-bbox="true"
     inkscape:bbox-paths="true"
     inkscape:bbox-nodes="true"
     inkscape:snap-global="true"
     inkscape:showpageshadow="2"
     inkscape:deskcolor="#ffffff"><inkscape:grid
       type="xygrid"
       id="grid828"
       originx="0"
       originy="0" /></sodipodi:namedview><defs
     id="defs2" /><g
     inkscape:label="Layer 1"
     inkscape:groupmode="layer"
     id="layer1"><rect
       style="opacity:1;fill:#f5deb3;stroke:none;stroke-width:4.4376;stroke-linejoin:bevel;stop-color:#000000;fill-opacity:1"
       id="rect691"
       width="16"
       height="16"
       x="0"
       y="0" /><path
       fill="currentColor"
       d="M 6.7842265,12.076372 C 5.9333958,13.78249 5.0102387,14 4.3270217,14 2.8924014,14 2,12.815578 2,11.068019 2,10.499197 2.059673,9.9872663 2.1790011,9.5322192 L 1.3653577,9.9821012 0.64935092,8.7720748 14.936941,1 15.652947,2.2100237 8.21624,6.25895 c 1.5115811,0.9170007 2.554843,2.1607598 2.554843,3.847254 0,1.436996 -0.747282,2.854416 -2.2619312,2.854416 -0.9290316,0 -1.3696703,-0.42367 -1.7249253,-0.884248 z m 1.5133779,-0.511934 c 0.2634335,0 1.0089186,-0.0067 1.0089186,-1.458234 0,-0.4724667 -0.1892684,-1.9815526 -2.457205,-3.1026248 L 4.0178372,8.5393798 c -0.1832297,0.373179 -0.5532781,1.1268225 -0.5532781,2.5286392 0,0.656624 0.1587399,1.535799 1.0089186,1.535799 0.8686756,0 1.4538956,-1.33466 1.6110152,-1.784009 l 1.2530115,-0.310263 c 0.1410379,0.703256 0.4610594,1.054892 0.9601,1.054892 z"
       id="path25806"
       style="fill:#784421;stroke-width:0.999995"
       inkscape:transform-center-x="-6.1511487"
       inkscape:transform-center-y="-3.4999992" /></g></svg>
