<?xml version="1.0" encoding="UTF-8" standalone="no"?>
<!-- Created with Inkscape (http://www.inkscape.org/) -->

<svg
   width="16"
   height="16"
   viewBox="0 0 16 16"
   version="1.1"
   id="svg5"
   inkscape:version="1.2.2 (732a01da63, 2022-12-09)"
   sodipodi:docname="1380.svg"
   inkscape:export-filename="..\0000.png"
   inkscape:export-xdpi="96"
   inkscape:export-ydpi="96"
   xml:space="preserve"
   xmlns:inkscape="http://www.inkscape.org/namespaces/inkscape"
   xmlns:sodipodi="http://sodipodi.sourceforge.net/DTD/sodipodi-0.dtd"
   xmlns="http://www.w3.org/2000/svg"
   xmlns:svg="http://www.w3.org/2000/svg"><sodipodi:namedview
     id="namedview7"
     pagecolor="#ffffff"
     bordercolor="#666666"
     borderopacity="1.0"
     inkscape:pageshadow="2"
     inkscape:pageopacity="0"
     inkscape:pagecheckerboard="0"
     inkscape:document-units="px"
     showgrid="true"
     width="16mm"
     units="px"
     inkscape:zoom="66.304776"
     inkscape:cx="8.574043"
     inkscape:cy="6.605859"
     inkscape:window-width="1680"
     inkscape:window-height="998"
     inkscape:window-x="-8"
     inkscape:window-y="-8"
     inkscape:window-maximized="1"
     inkscape:current-layer="layer1"
     showguides="true"
     inkscape:guide-bbox="true"
     inkscape:snap-bbox="true"
     inkscape:bbox-paths="true"
     inkscape:bbox-nodes="true"
     inkscape:snap-global="true"
     inkscape:showpageshadow="2"
     inkscape:deskcolor="#ffffff"><inkscape:grid
       type="xygrid"
       id="grid828"
       originx="0"
       originy="0" /><sodipodi:guide
       position="11.584033,9.3165265"
       orientation="0.93041757,-0.36650123"
       id="guide37645"
       inkscape:locked="false"
       inkscape:label=""
       inkscape:color="rgb(0,134,229)" /></sodipodi:namedview><defs
     id="defs2" /><g
     inkscape:label="Layer 1"
     inkscape:groupmode="layer"
     id="layer1"><path
       d="m 8.6876753,13.354342 c 0,0.242542 -0.075151,1.263305 -1.3403363,1.263305 -0.3697482,0 -0.6675952,-0.08216 -0.8935573,-0.246498 0.1918694,-0.158005 0.7898217,-0.779034 0.4005601,-2.141457 H 9.7815123 C 9.6576014,11.826981 9.7149384,11.22784 9.9971992,10.55042 L 11.120415,7.7394958 h -0.816526 c -1.3429853,0 -2.1708358,-0.7239937 -2.1708358,-2.4205064 0,-0.028465 0.00202,-1.2356063 0.2619046,-2.5640874 H 6.8851542 V 7.4537817 C 6.5143833,7.8354444 5.5088597,8.7857142 3.9117647,8.7857142 2.9828809,8.7857142 1,8.3680868 1,5.6512605 1,4.7859734 1.2786344,2 4.8669468,2 h 6.1008402 c 0.596117,0 2.711485,0.03325 2.711485,2.1106443 0,0.611523 -0.158876,1.2522176 -0.847339,2.9733892 l -0.938192,2.3305327 h 1.140056 C 14.399816,9.4145662 15,10.014005 15,11 c 0,0.741873 -0.452281,2 -2.245098,2 H 8.6568629 c 0.022703,0.113515 0.03081,0.225496 0.03081,0.354342 z M 2.4635853,5.6820729 C 2.4635853,6.5360011 2.6803395,8 4.0658261,8 4.5261454,8 4.9719919,7.7571509 5.37535,7.4075628 V 2.754902 H 4.9593834 c -1.2512083,0 -2.4957981,0.7401583 -2.4957981,2.9271709 z M 9.5504202,5.2111462 C 9.5504202,6.4676359 9.8683034,7 11.089603,7 H 11.45935 L 12,5.5588236 c 0.20192,-0.504823 0.292717,-0.9397004 0.292717,-1.3403361 0,-0.4623051 -0.149849,-1.4635855 -1.448179,-1.4635855 H 9.8123247 C 9.6929877,3.4045937 9.5504202,4.4537485 9.5504202,5.2111462 Z M 13.55182,11.061624 C 13.55182,10.568883 13.460324,10 12.556206,10 h -0.893557 l -0.386738,0.981793 c -0.102713,0.267035 -0.154062,0.498128 -0.154062,0.693277 0,0.451909 0.241368,0.677871 0.72409,0.677871 h 0.292717 c 0.56085,0 1.413164,-0.22957 1.413164,-1.291317 z"
       style="fill:#784421;fill-opacity:1;stroke-width:1"
       sodipodi:nodetypes="sscccccsscccsssssccssscssssccssssccsscsssccssss"
       id="path37652" /></g></svg>
