<?xml version="1.0" encoding="UTF-8" standalone="no"?>
<!-- Created with Inkscape (http://www.inkscape.org/) -->

<svg
   width="16"
   height="16"
   viewBox="0 0 16 16"
   version="1.1"
   id="svg5"
   inkscape:version="1.2.2 (732a01da63, 2022-12-09)"
   sodipodi:docname="16800.svg"
   inkscape:export-filename="..\0000.png"
   inkscape:export-xdpi="96"
   inkscape:export-ydpi="96"
   xml:space="preserve"
   xmlns:inkscape="http://www.inkscape.org/namespaces/inkscape"
   xmlns:sodipodi="http://sodipodi.sourceforge.net/DTD/sodipodi-0.dtd"
   xmlns="http://www.w3.org/2000/svg"
   xmlns:svg="http://www.w3.org/2000/svg"><sodipodi:namedview
     id="namedview7"
     pagecolor="#ffffff"
     bordercolor="#666666"
     borderopacity="1.0"
     inkscape:pageshadow="2"
     inkscape:pageopacity="0"
     inkscape:pagecheckerboard="0"
     inkscape:document-units="px"
     showgrid="true"
     width="16mm"
     units="px"
     inkscape:zoom="63.866764"
     inkscape:cx="4.1570918"
     inkscape:cy="5.3235827"
     inkscape:window-width="1680"
     inkscape:window-height="998"
     inkscape:window-x="-8"
     inkscape:window-y="-8"
     inkscape:window-maximized="1"
     inkscape:current-layer="layer1"
     showguides="true"
     inkscape:guide-bbox="true"
     inkscape:snap-bbox="true"
     inkscape:bbox-paths="true"
     inkscape:bbox-nodes="true"
     inkscape:snap-global="true"
     inkscape:showpageshadow="2"
     inkscape:deskcolor="#ffffff"><inkscape:grid
       type="xygrid"
       id="grid828"
       originx="0"
       originy="0" /></sodipodi:namedview><defs
     id="defs2" /><g
     inkscape:label="Layer 1"
     inkscape:groupmode="layer"
     id="layer1"><rect
       style="opacity:1;fill:#f5deb3;stroke:none;stroke-width:4.4376;stroke-linejoin:bevel;stop-color:#000000;fill-opacity:1"
       id="rect691"
       width="16"
       height="16"
       x="0"
       y="0" /><path
       d="m 8.3990505,10.662709 c 0,0.504852 0.4323034,1.011167 0.4323034,1.646081 0,0.512451 -0.3357881,1.399922 -0.9311158,1.995249 L 7.3016633,13.705464 C 7.7708596,13.236268 8,12.602217 8,12.30879 8,11.847665 7.5818562,11.329059 7.5344424,10.71259 c 0,-0.110853 0.01109,-0.221689 0.033254,-0.332542 C 7.3651522,10.064962 6.8525211,9.2582391 6.3372927,8.2850361 5.8998409,8.5402235 5.2762772,8.7838485 4.4916869,8.7838485 2.5635441,8.7838485 1,7.2203177 1,5.2921618 1,3.3285868 2.5613543,1.7672209 4.4916869,1.7672209 c 0.5209762,0 1.0142518,0.1108525 1.4798101,0.3325415 0.5320665,-0.6207386 1.2082399,-0.9311165 2.0285037,-0.9311165 0.8091901,0 1.4798101,0.3103779 2.0118763,0.9311165 0.465559,-0.2216887 0.964371,-0.3325415 1.496438,-0.3325415 1.930453,0 3.491686,1.5614839 3.491686,3.5249409 0,1.9281427 -1.563531,3.4916867 -3.491686,3.4916867 -0.676174,0 -1.285822,-0.1607338 -1.8289793,-0.4821853 C 9.2145406,9.2067999 8.7029819,10.040025 8.3990505,10.529692 Z M 8.0000007,2 C 7.0192624,2 5.9881241,2.8007136 5.9881241,4.5938245 c 0,1.4865323 1.2093107,3.7254634 2.0285036,5.0712593 C 8.6068077,8.6955005 10.011877,6.2169267 10.011877,4.5938245 10.011877,2.8007435 8.9807706,2 8.0000007,2 Z M 1.831354,5.2921618 c 0,1.4788524 1.1815786,2.6603327 2.6603329,2.6603327 0.5542304,0 1.0419692,-0.1441067 1.4631829,-0.4323041 C 5.9068884,7.4050187 5.6536819,6.820636 5.6057012,6.7054635 5.3064138,6.9160788 4.9683354,7.021378 4.5914493,7.021378 c -0.9854139,0 -1.7790976,-0.7936836 -1.7790976,-1.7790975 0,-1.0191883 0.805617,-1.7957246 1.7790976,-1.7957246 0.2327791,0 0.454468,0.044344 0.6650832,0.1330166 C 5.291248,3.4291493 5.3235605,3.295597 5.5225658,2.7980999 5.2121881,2.6650832 4.8685728,2.5985749 4.4916869,2.5985749 c -1.4810605,0 -2.6603329,1.1793853 -2.6603329,2.6935869 z m 8.546319,1.4299289 c -0.0826,0.2477817 -0.187071,0.4995423 -0.332542,0.8147269 0.432305,0.2771235 0.920027,0.4156769 1.463184,0.4156769 1.478851,0 2.660332,-1.1815785 2.660332,-2.6603327 0,-1.5142016 -1.179273,-2.6935869 -2.660332,-2.6935869 -0.376887,0 -0.726055,0.066508 -1.047507,0.199525 0.110853,0.232779 0.199525,0.4932755 0.266034,0.7814726 0.232779,-0.088672 0.460021,-0.1330166 0.68171,-0.1330166 0.973447,0 1.779097,0.7765046 1.779097,1.7957246 0,0.9854139 -0.793683,1.7790975 -1.779097,1.7790975 -0.39905,0 -0.742682,-0.099762 -1.030879,-0.2992873 z M 3.6437058,5.2422805 c 0,0.515521 0.4322225,0.9477436 0.9477435,0.9477436 0.2992875,0 0.5486937,-0.1108526 0.7482186,-0.3325416 C 5.2177413,5.4030146 5.15677,4.9817842 5.15677,4.5938245 V 4.4608079 C 4.979409,4.3388813 4.7909742,4.27791 4.5914493,4.27791 c -0.5041863,0 -0.9477435,0.4156603 -0.9477435,0.9643705 z m 7.1995252,-0.648456 c 0,0.374678 -0.06313,0.7845737 -0.182898,1.263658 0.166271,0.2216889 0.415677,0.3325416 0.748219,0.3325416 0.515521,0 0.947743,-0.4322226 0.947743,-0.9477436 0,-0.5487102 -0.443556,-0.9643705 -0.947743,-0.9643705 -0.210616,0 -0.39905,0.066508 -0.565321,0.1995249 z"
       id="path244"
       style="fill:#784421;fill-opacity:1;stroke-width:1"
       sodipodi:nodetypes="ssccscccssscscsssccssscssssccsssccssccsssccssscsscscssscssscs" /></g></svg>
