<?xml version="1.0" encoding="UTF-8" standalone="no"?>
<!-- Created with Inkscape (http://www.inkscape.org/) -->

<svg
   width="16"
   height="16"
   viewBox="0 0 16 16"
   version="1.1"
   id="svg5"
   inkscape:version="1.2.2 (732a01da63, 2022-12-09)"
   sodipodi:docname="AB70.svg"
   inkscape:export-filename="..\0000.png"
   inkscape:export-xdpi="96"
   inkscape:export-ydpi="96"
   xml:space="preserve"
   xmlns:inkscape="http://www.inkscape.org/namespaces/inkscape"
   xmlns:sodipodi="http://sodipodi.sourceforge.net/DTD/sodipodi-0.dtd"
   xmlns="http://www.w3.org/2000/svg"
   xmlns:svg="http://www.w3.org/2000/svg"><sodipodi:namedview
     id="namedview7"
     pagecolor="#ffffff"
     bordercolor="#666666"
     borderopacity="1.0"
     inkscape:pageshadow="2"
     inkscape:pageopacity="0"
     inkscape:pagecheckerboard="0"
     inkscape:document-units="px"
     showgrid="true"
     width="16mm"
     units="px"
     inkscape:zoom="47.125"
     inkscape:cx="6.1432361"
     inkscape:cy="8.3395225"
     inkscape:window-width="1680"
     inkscape:window-height="998"
     inkscape:window-x="-8"
     inkscape:window-y="-8"
     inkscape:window-maximized="1"
     inkscape:current-layer="layer1"
     showguides="true"
     inkscape:guide-bbox="true"
     inkscape:snap-bbox="true"
     inkscape:bbox-paths="true"
     inkscape:bbox-nodes="true"
     inkscape:snap-global="true"
     inkscape:showpageshadow="2"
     inkscape:deskcolor="#ffffff"><inkscape:grid
       type="xygrid"
       id="grid828"
       originx="0"
       originy="0" /></sodipodi:namedview><defs
     id="defs2" /><g
     inkscape:label="Layer 1"
     inkscape:groupmode="layer"
     id="layer1"><path
       d="M 12.375,11.987295 C 12.375,13.793955 10.899554,15 8.5535712,15 6.9457142,15 4,14.411599 4,10.099819 4,8.722138 4.4008089,5.0000001 8.7321426,5.0000001 8.9541357,5.0000001 10.931178,5.0286591 12,6.0344828 V 7.8856624 H 10.982142 L 10.875,6.6515428 C 10.724906,6.5259187 10.1077,6.0889293 8.7857142,6.0889293 c -1.5654822,0 -3.3214285,0.7243939 -3.3214285,3.9745917 0,0.875467 0.069335,3.8294 3.2142856,3.8294 0.3692977,0 2.4999997,-0.07538 2.4999997,-1.814881 0,-0.706617 -0.221312,-1.470055 -1.160714,-1.470055 l -0.05357,1.179674 H 9 V 8.5027224 h 0.9642856 l 0.05357,1.0707803 c 1.77407,0 2.357139,1.3890053 2.357139,2.4137923 z"
       id="path44606"
       style="fill:#cc0000;stroke-width:0.999999"
       inkscape:transform-center-x="3.8125"
       inkscape:transform-center-y="3.9922648"
       sodipodi:nodetypes="csssccccsssscccccccc" /></g></svg>
