<?xml version="1.0" standalone="no"?>
<!DOCTYPE svg PUBLIC "-//W3C//DTD SVG 1.1//EN" "http://www.w3.org/Graphics/SVG/1.1/DTD/svg11.dtd" >
<svg xmlns="http://www.w3.org/2000/svg" xmlns:xlink="http://www.w3.org/1999/xlink" version="1.1" viewBox="-10 0 716 1000">
   <path fill="currentColor"
d="M137 800v-45h13q34 0 56.5 -12.5t22.5 -53.5v-376h-76q-33 0 -46 17t-21 64l-4 33h-55l6 -163h401v46h-13q-33 0 -57.5 12t-24.5 54v124h89q62 0 114.5 11t84.5 42t32 93q0 66 -52 110t-160 44h-310zM426 751q62 0 89 -25t27 -85q0 -50 -31.5 -71t-89.5 -21h-82v202h87z
" />
</svg>
