<?xml version="1.0" standalone="no"?>
<!DOCTYPE svg PUBLIC "-//W3C//DTD SVG 1.1//EN" "http://www.w3.org/Graphics/SVG/1.1/DTD/svg11.dtd" >
<svg xmlns="http://www.w3.org/2000/svg" xmlns:xlink="http://www.w3.org/1999/xlink" version="1.1" viewBox="-10 0 555 1000">
   <path fill="currentColor"
d="M263 810q-100 0 -157.5 -60.5t-57.5 -179.5v-47h331q-2 -107 -38.5 -155.5t-105.5 -48.5q-52 0 -88.5 22t-54.5 52q-9 -5 -15 -15t-6 -24q0 -22 19.5 -45.5t60 -39.5t102.5 -16q114 0 176.5 72t62.5 202q0 141 -59.5 212t-169.5 71zM264 753q52 0 80.5 -44.5t32.5 -128.5
h-214q0 78 23 125.5t78 47.5z" />
</svg>
