<?xml version="1.0" encoding="UTF-8" standalone="no"?>
<svg
   version="1.1"
   viewBox="-10 0 16 16"
   id="svg4"
   sodipodi:docname="12480.svg"
   width="16"
   height="16"
   inkscape:version="1.1 (c68e22c387, 2021-05-23)"
   inkscape:export-filename="D:\Projects\Unicodia\Bitmaps\Scripts\12480.png"
   inkscape:export-xdpi="96"
   inkscape:export-ydpi="96"
   xmlns:inkscape="http://www.inkscape.org/namespaces/inkscape"
   xmlns:sodipodi="http://sodipodi.sourceforge.net/DTD/sodipodi-0.dtd"
   xmlns="http://www.w3.org/2000/svg"
   xmlns:svg="http://www.w3.org/2000/svg">
  <defs
     id="defs8" />
  <sodipodi:namedview
     id="namedview6"
     pagecolor="#ffff83"
     bordercolor="#666666"
     borderopacity="1.0"
     inkscape:pageshadow="2"
     inkscape:pageopacity="1"
     inkscape:pagecheckerboard="0"
     showgrid="true"
     inkscape:snap-nodes="false"
     inkscape:zoom="46.75"
     inkscape:cx="7.9893048"
     inkscape:cy="8"
     inkscape:window-width="1680"
     inkscape:window-height="998"
     inkscape:window-x="-8"
     inkscape:window-y="-8"
     inkscape:window-maximized="1"
     inkscape:current-layer="svg4">
    <inkscape:grid
       type="xygrid"
       id="grid825" />
  </sodipodi:namedview>
  <path
     fill="currentColor"
     d="m -5.4760847,5.4018667 q 0.1123584,-0.4775257 0.1123584,-0.9831411 0,-0.5056154 -0.1123584,-1.0393205 0.3838927,0.1029957 1.0440026,0.2106731 0.6601084,0.1076773 1.5262087,0.210673 0.8661003,0.1029958 1.8586045,0.1872649 0.99250428,0.084269 2.04587024,0.1451304 1.05336466,0.060861 2.10204876,0.098314 1.048684,0.037453 2.003736,0.037453 H 5.9377147 V 4.5123579 H 5.2729242 q -0.9550519,0 -2.0130984,0.037453 -1.0580478,0.037453 -2.1301386,0.098314 -1.0720921,0.060861 -2.08332246,0.1451305 -1.01123184,0.084269 -1.89605834,0.1872648 -0.8848278,0.1029959 -1.5589805,0.2059914 -0.6741541,0.1029959 -1.0674106,0.2153551 z m 6.076748,5.6273113 Q 0.42276137,10.804461 0.24017752,10.645286 0.0575951,10.486111 -0.15776058,10.364389 l 0.0749065,-0.04682 Q -0.49483687,9.9336791 -0.95363526,9.5404223 -1.4124352,9.147166 -1.8150552,8.8334971 -2.2176751,8.5198283 -2.4704817,8.398106 -2.3019434,8.3044735 -2.1614952,8.1967962 -2.021047,8.0891189 -1.8805974,7.9486702 -2.021047,7.8082215 -2.1614952,7.700544 -2.3019434,7.5928667 -2.4704817,7.4992342 -2.2176751,7.377512 -1.819737,7.0638433 -1.4217989,6.7501744 -0.96299906,6.3569179 -0.50420062,5.9636615 -0.09221694,5.5891316 l -0.0655435,-0.046816 Q 0.05759527,5.4112298 0.24017769,5.2614179 0.42276154,5.111606 0.60066348,4.8775247 0.65684312,5.0273367 0.84878952,5.3082341 1.0407357,5.5891316 1.3122698,5.9402535 1.5838039,6.2913753 1.8834279,6.6612236 2.183052,7.0310719 2.459268,7.3681488 2.7354839,7.7052257 2.9414758,7.9580334 2.7354839,8.2108412 2.459268,8.547918 2.183052,8.8849949 1.8834279,9.2548432 1.5838039,9.6246915 1.3122698,9.9711321 1.0407357,10.317572 0.84878952,10.593788 0.65684329,10.870004 0.6006633,11.029178 Z m -5.327689,-0.692879 Q -5.0828282,9.9992221 -5.3356365,9.8025937 -5.588444,9.6059651 -5.766346,9.4842429 -5.9442479,9.3625207 -6.1034222,9.2595249 q -0.7022439,0.074906 -1.3389443,0.2200364 -0.6367021,0.1451302 -1.0861376,0.2902602 -0.4494346,0.1451306 -0.6086106,0.2200366 0.018729,-0.1591754 0.03745,-0.4260276 0.018729,-0.2668526 0.018729,-0.5477501 0,-0.2340811 -0.014043,-0.449436 -0.014043,-0.2153546 -0.042137,-0.34644 0.159176,0.065543 0.5711578,0.2200363 0.4119826,0.1544936 1.0440024,0.3043056 0.6320198,0.1498118 1.4466222,0.2153547 Q -5.8412525,8.8007258 -5.5369459,8.5619628 -5.2326401,8.3232 -4.764478,7.8924907 -5.2513663,7.4524179 -5.5603542,7.2183368 -5.8693423,6.9842556 -6.112786,6.8250804 q -0.7022431,0.074906 -1.3342628,0.2200363 -0.6320198,0.1451304 -1.0814553,0.2902608 -0.4494346,0.1451303 -0.6086106,0.2200363 0.018729,-0.1591753 0.03745,-0.4260279 0.018729,-0.2668525 0.018729,-0.54775 0,-0.2340812 -0.014043,-0.4494359 -0.014043,-0.2153547 -0.042137,-0.3464402 0.159176,0.065543 0.5758402,0.2200364 0.4166641,0.1544935 1.0533645,0.3089871 0.6367013,0.1544937 1.4513037,0.2200364 0.149812,-0.093633 0.327714,-0.2106732 0.1779019,-0.1170405 0.4166641,-0.3089871 0.2387624,-0.1919466 0.5852025,-0.5009338 l 0.1498121,0.093633 q -0.1217222,0.1685384 -0.2528066,0.383893 -0.1310859,0.2153548 -0.2340818,0.4073014 -0.1029959,0.1919466 -0.1591758,0.2949422 0.05618,0.1029958 0.1825838,0.3183505 0.126404,0.2153548 0.2808979,0.4541175 0.1544939,0.2387629 0.276216,0.4073014 -0.1217221,0.1685385 -0.276216,0.4260277 -0.1544939,0.2574894 -0.2808979,0.4915706 -0.1264039,0.2340812 -0.1825838,0.3370769 0.05618,0.1029958 0.1591758,0.2902606 0.1029959,0.1872651 0.2340818,0.3979382 0.1310844,0.2106734 0.2528066,0.3792114 z M 0.13250106,10.186487 Q 0.39467146,10.008585 0.73174918,9.7370502 1.0688254,9.4655163 1.4339917,9.147166 1.7991594,8.8288155 2.1409176,8.5198283 2.4826759,8.2108412 2.7448475,7.9580334 2.4826759,7.7052257 2.1409176,7.3915569 1.7991594,7.0778881 1.4339917,6.7642192 1.0688254,6.4505504 0.73174918,6.1743347 0.39467146,5.8981188 0.12313732,5.720217 q -0.30898638,0.37453 -0.65074601,0.7911946 -0.34175817,0.4166645 -0.62733661,0.795876 -0.2855797,0.3792116 -0.4353918,0.6413826 0.1498121,0.262171 0.4353918,0.6413824 0.28557844,0.3792115 0.63201852,0.8005578 0.34644004,0.4213463 0.65542784,0.7958766 z m -5.60858576,2.331448 q 0.1123584,-0.477526 0.1123584,-0.983142 0,-0.505615 -0.1123584,-1.039319 0.3838927,0.102995 1.0440026,0.210673 0.6601084,0.107677 1.5262087,0.210672 0.8661003,0.102996 1.8586045,0.187265 0.99250428,0.08427 2.04587024,0.14513 1.05336466,0.06086 2.10204876,0.09831 1.048684,0.03745 2.003736,0.03745 h 0.8333286 v 0.243444 H 5.2729242 q -0.9550519,0 -2.0130984,0.03745 -1.0580478,0.03745 -2.1301386,0.09831 -1.0720921,0.06086 -2.08332246,0.14513 -1.01123184,0.08427 -1.89605834,0.187265 -0.8848278,0.102996 -1.5589805,0.205992 -0.6741541,0.102995 -1.0674106,0.215355 z"
     id="path2"
     style="stroke-width:0.1;fill:#f57900;fill-opacity:1;stroke:#f57900;stroke-opacity:1;stroke-miterlimit:4;stroke-dasharray:none" />
</svg>
