<?xml version="1.0" encoding="UTF-8" standalone="no"?>
<svg
   version="1.1"
   viewBox="-10 0 16 16"
   id="svg4"
   sodipodi:docname="17000_v2.svg"
   width="16"
   height="16"
   inkscape:version="1.2-dev (581924a2, 2021-09-04)"
   inkscape:export-filename="D:\Projects\Unicodia\Bitmaps\Scripts\17000.png"
   inkscape:export-xdpi="96"
   inkscape:export-ydpi="96"
   xmlns:inkscape="http://www.inkscape.org/namespaces/inkscape"
   xmlns:sodipodi="http://sodipodi.sourceforge.net/DTD/sodipodi-0.dtd"
   xmlns="http://www.w3.org/2000/svg"
   xmlns:svg="http://www.w3.org/2000/svg">
  <defs
     id="defs8" />
  <sodipodi:namedview
     id="namedview6"
     pagecolor="#fff0f5"
     bordercolor="#666666"
     borderopacity="1.0"
     inkscape:pageshadow="2"
     inkscape:pageopacity="1"
     inkscape:pagecheckerboard="0"
     showgrid="true"
     inkscape:snap-global="false"
     inkscape:zoom="28.322326"
     inkscape:cx="18.501305"
     inkscape:cy="13.134514"
     inkscape:window-width="1680"
     inkscape:window-height="998"
     inkscape:window-x="-8"
     inkscape:window-y="-8"
     inkscape:window-maximized="1"
     inkscape:current-layer="svg4"
     inkscape:snap-bbox="true"
     inkscape:bbox-nodes="true">
    <inkscape:grid
       type="xygrid"
       id="grid843" />
  </sodipodi:namedview>
  <path
     fill="currentColor"
     d="m -4.2641613,13.77638 -0.8114154,0.811414 -0.6010484,0.405709 -0.4507864,0.165288 0.1202097,-0.285497 0.4057077,-0.495865 0.5860222,-0.691207 0.631101,-0.736285 0.9917298,-1.322305 0.7362844,-1.157018 0.841468,-1.3373335 0.4057074,-0.7663368 -0.4958647,0.015023 -0.7513107,0.090157 -0.5409435,0.030053 -0.5409437,0.075132 L -4.0688206,8.4721266 -4.3543185,8.2767858 -4.339293,8.0814454 -4.0988737,7.7959472 -3.4377206,7.2550036 -2.6864099,6.5487718 -1.2138412,5.1663602 -0.43247795,4.3399185 -1.7848369,4.5803381 -3.5128517,4.8508096 -4.3993979,4.9710194 -4.6698697,4.910915 -4.9253153,4.7907058 -5.1807608,4.6404435 -5.331023,4.4601287 l 0.1051834,-0.090157 0.2253932,-0.060108 0.781363,-0.045079 0.4357601,-0.045078 1.0518347,-0.1502616 0.3606294,-0.045078 1.2471755,-0.1652884 0.64612701,-0.1051836 0.34560259,-0.045078 0.22539338,-0.1502623 0.25544584,0.045079 0.22539275,0.1502623 0.25544583,0.270472 V 4.1746327 L 0.76961707,4.2948423 0.42401389,4.5502882 -0.14698205,5.0912316 -0.85321398,5.7073063 -1.5293935,6.3083547 -2.2356248,6.9845341 -2.7164641,7.3902423 -3.3926437,7.9011332 -2.2356248,7.8560555 -1.3190264,7.7508718 -1.093633,7.7358475 -0.73300427,6.8342752 -0.58274198,6.3985148 -0.55268852,6.1130171 -0.64284595,5.8575713 -0.43247882,5.7824401 -0.10190248,5.9928073 0.15354334,6.1430689 0.36390986,6.3834884 0.22867447,6.684013 -0.02677137,7.270035 -0.23713788,7.6907688 0.36390986,7.6607153 0.84474908,7.6456911 1.1302473,7.705799 1.4007192,7.8560596 1.6261126,8.0363737 1.7463218,8.2317146 1.7913996,8.457108 1.7763753,8.8177368 1.7162674,9.1332875 1.445796,10.094965 l -0.4057081,1.066861 -0.58602217,1.277228 -0.70623197,1.172044 -0.63110081,0.99173 -0.45078605,0.540944 -0.2854984,0.180315 H -1.9501277 L -2.160495,15.11372 -2.145471,14.843247 -2.160495,14.152042 -2.250652,13.460836 v -0.661153 l 0.090157,0.01502 0.2554459,0.435761 0.2404188,0.43576 0.2253936,0.570995 0.3305763,-0.525915 L -0.34232355,12.409 0.07841142,11.597583 0.72453837,10.03486 0.85977377,9.47889 0.97998356,9.013077 0.93490612,8.6825007 0.814697,8.5172123 0.63438229,8.3368976 0.2286742,8.2767902 -0.55268832,8.3218677 -0.83818656,8.8778373 -1.3490776,9.7493578 -2.0703357,10.89135 l -0.570996,0.87152 -0.916599,1.18707 z M -7.8554259,3.6036347 -7.8704514,2.1460924 -7.990661,1.7854633 -8.125897,1.4999652 V 1.2595461 l 0.3756554,-0.060105 0.495865,0.2554454 0.3155503,0.2554456 0.015025,0.2704719 -0.045079,0.3756552 0.015025,0.7963892 0.015026,0.8715205 -0.015026,1.1720443 v 2.0736172 l 0.015026,2.8249276 v 3.906816 l -0.030052,0.601049 0.015026,0.300522 -0.1502621,0.240421 -0.1652885,-0.03005 -0.2404194,-0.270473 -0.1803144,-0.285497 -0.1803147,-0.180315 -0.1202097,-0.420734 0.045079,-0.210367 0.060104,-0.345603 v -0.570996 l 0.015026,-1.517646 v -1.307288 l -0.015026,-1.743041 0.030053,-2.3290623 z m 5.4244626,-1.6829353 -0.7663369,0.1352358 -0.6611533,0.1051834 -0.6461272,0.060105 -0.2554454,-0.030052 -0.2704718,-0.075132 -0.2854982,-0.210367 -0.060105,-0.1953408 0.1953407,-0.1502621 0.4357601,-0.075131 0.7062319,-0.075131 1.7730926,-0.2253931 0.9165992,-0.1502621 0.48083924,-0.10518358 0.40570746,-0.075131 0.34560247,-0.0450787 0.27047207,0.060105 0.28549763,0.21036698 0.27047207,0.195341 0.0450774,0.2253929 -0.22539339,0.090157 -0.37565499,0.075131 -0.64612703,0.030053 -0.67617953,0.04508 z M 4.0303075,10.545745 3.7147567,11.191872 3.2489442,12.033341 2.9033416,12.604336 2.5126598,13.190357 2.1370047,13.566014 2.0318211,13.535965 2.1820834,13.070151 2.4375286,12.36392 2.7681055,11.732815 2.9333941,11.086688 3.0836557,10.500665 3.1137093,10.049879 2.9634478,9.6291448 2.4826086,9.1332798 2.9634478,9.1783566 3.414234,9.3135927 3.9251251,9.5389854 4.240676,9.8094574 4.2256528,10.07993 Z"
     id="path2-4"
     style="fill:#5c3566;fill-opacity:1;stroke-width:0.2;stroke:#5c3566;stroke-opacity:1;stroke-miterlimit:4;stroke-dasharray:none" />
</svg>
