<?xml version="1.0" encoding="UTF-8" standalone="no"?>
<!-- Created with Inkscape (http://www.inkscape.org/) -->

<svg
   width="16"
   height="16"
   viewBox="0 0 4.2333332 4.2333332"
   version="1.1"
   id="svg5"
   inkscape:version="1.1 (c68e22c387, 2021-05-23)"
   sodipodi:docname="3000.svg"
   inkscape:export-filename="D:\Projects\Unicodia\Unicodia\Resources\Scripts\3000.png"
   inkscape:export-xdpi="96"
   inkscape:export-ydpi="96"
   xmlns:inkscape="http://www.inkscape.org/namespaces/inkscape"
   xmlns:sodipodi="http://sodipodi.sourceforge.net/DTD/sodipodi-0.dtd"
   xmlns="http://www.w3.org/2000/svg"
   xmlns:svg="http://www.w3.org/2000/svg">
  <sodipodi:namedview
     id="namedview7"
     pagecolor="#fff0f5"
     bordercolor="#666666"
     borderopacity="1.0"
     inkscape:pageshadow="2"
     inkscape:pageopacity="1"
     inkscape:pagecheckerboard="0"
     inkscape:document-units="mm"
     showgrid="true"
     width="16mm"
     inkscape:zoom="21.465993"
     inkscape:cx="11.110597"
     inkscape:cy="4.3324341"
     inkscape:window-width="1680"
     inkscape:window-height="998"
     inkscape:window-x="-8"
     inkscape:window-y="-8"
     inkscape:window-maximized="1"
     inkscape:current-layer="layer1"
     units="px"
     inkscape:snap-bbox="true"
     inkscape:bbox-nodes="true"
     inkscape:snap-bbox-edge-midpoints="false">
    <inkscape:grid
       type="xygrid"
       id="grid832" />
  </sodipodi:namedview>
  <defs
     id="defs2" />
  <g
     inkscape:label="Layer 1"
     inkscape:groupmode="layer"
     id="layer1">
    <g
       aria-label="〠"
       id="text5302"
       style="font-size:4.31386px;line-height:1.25;font-family:'Noto Serif CJK SC';-inkscape-font-specification:'Noto Serif CJK SC';text-align:center;letter-spacing:0px;word-spacing:0px;text-anchor:middle;stroke-width:0.264582;fill:#5c3566;fill-opacity:1">
      <path
         d="m 1.9843748,3.7041665 c 0.370992,0 0.7290424,-0.077649 1.0008155,-0.2329485 C 3.3389268,3.2684666 3.4899119,3.0139489 3.5934446,2.703351 3.8091376,2.634329 3.9687504,2.487658 3.9687504,2.2072571 c 0,-0.2415762 -0.1251019,-0.4529553 -0.3407949,-0.4529553 -0.1121604,0 -0.1639267,0.043139 -0.1984376,0.07765 l 0.086277,0.1121603 c 0.043139,-0.030197 0.07765,-0.047452 0.1207881,-0.047452 0.1207881,0 0.1941237,0.1423573 0.1941237,0.3019702 0,0.2372622 -0.1337297,0.3537365 -0.3321672,0.3796196 C 3.3950068,2.9923805 3.175,3.2123873 2.8600882,3.376314 2.6443952,3.4884744 2.342425,3.56181 1.9843746,3.56181 1.6263242,3.56181 1.3243541,3.488474 1.1086611,3.376314 0.79374948,3.2123864 0.57374262,2.9923796 0.47020998,2.578249 0.27177243,2.5523659 0.13804277,2.4358916 0.13804277,2.1986294 c 0,-0.1596129 0.0733356,-0.3019702 0.1941237,-0.3019702 0.0431386,0 0.0776495,0.017255 0.12078807,0.047452 L 0.53923174,1.8319513 C 0.50472086,1.7974404 0.45295454,1.7543018 0.34079419,1.7543018 0.12510119,1.7543018 -7.4972158e-7,1.9656809 -7.4972158e-7,2.2072571 -7.4972158e-7,2.487658 0.15961207,2.6343292 0.37530507,2.703351 0.4788377,3.0139489 0.6298228,3.2684666 0.98355932,3.471218 1.2553325,3.626517 1.6133829,3.7041665 1.9843748,3.7041665 Z m 0,-0.340795 c 0.4141306,0 0.7161008,-0.1596128 0.8800275,-0.5823711 H 2.7091033 C 2.6012568,3.0829706 2.3424252,3.2296419 1.9843748,3.2296419 c -0.3580504,0 -0.6168819,-0.1466713 -0.7247284,-0.4486415 h -0.155299 c 0.1639267,0.4227583 0.4658969,0.5823711 0.8800274,0.5823711 z"
         id="path5772"
         sodipodi:nodetypes="sccssccssccsccssccssccssccsccs"
         style="fill:#5c3566;fill-opacity:1" />
    </g>
    <rect
       style="fill:#5c3566;fill-opacity:1;stroke:none;stroke-width:0.171979;stroke-linecap:square;stroke-linejoin:round;stroke-dasharray:0.171979, 0.343958;stroke-opacity:1;stop-color:#000000"
       id="rect6082"
       width="2.9104166"
       height="0.26458332"
       x="0.52916664"
       y="1.3229166" />
    <rect
       style="fill:#5c3566;fill-opacity:1;stroke:none;stroke-width:0.171979;stroke-linecap:square;stroke-linejoin:round;stroke-dasharray:0.171979, 0.343958;stroke-opacity:1;stop-color:#000000"
       id="rect6106"
       width="2.9104166"
       height="0.26458332"
       x="0.52916664"
       y="0.79374999" />
    <rect
       style="fill:#5c3566;fill-opacity:1;stroke:none;stroke-width:0.171979;stroke-linecap:square;stroke-linejoin:round;stroke-dasharray:0.171979, 0.343958;stroke-opacity:1;stop-color:#000000"
       id="rect6108"
       width="0.26458332"
       height="1.3229166"
       x="1.8520833"
       y="1.3229166" />
    <circle
       style="fill:#5c3566;fill-opacity:1;stroke:none;stroke-width:0.171979;stroke-linecap:square;stroke-linejoin:round;stroke-dasharray:0.171979, 0.343958;stroke-opacity:1;stop-color:#000000"
       id="path6234"
       cx="2.9104166"
       cy="2.1166666"
       r="0.26458332" />
    <circle
       style="fill:#5c3566;fill-opacity:1;stroke:none;stroke-width:0.171979;stroke-linecap:square;stroke-linejoin:round;stroke-dasharray:0.171979, 0.343958;stroke-opacity:1;stop-color:#000000"
       id="path6236"
       cx="1.0583333"
       cy="2.1166666"
       r="0.26458332" />
  </g>
</svg>
