<?xml version="1.0" encoding="UTF-8" standalone="no"?>
<svg
   version="1.1"
   viewBox="-10 0 16 16"
   id="svg4"
   sodipodi:docname="31A0_v2.svg"
   width="16"
   height="16"
   inkscape:version="1.2-dev (581924a2, 2021-09-04)"
   inkscape:export-filename="D:\Projects\Unicodia\Bitmaps\Scripts\31A0.png"
   inkscape:export-xdpi="96"
   inkscape:export-ydpi="96"
   xmlns:inkscape="http://www.inkscape.org/namespaces/inkscape"
   xmlns:sodipodi="http://sodipodi.sourceforge.net/DTD/sodipodi-0.dtd"
   xmlns="http://www.w3.org/2000/svg"
   xmlns:svg="http://www.w3.org/2000/svg">
  <defs
     id="defs8" />
  <sodipodi:namedview
     id="namedview6"
     pagecolor="#fff0f5"
     bordercolor="#666666"
     borderopacity="1.0"
     inkscape:pageshadow="2"
     inkscape:pageopacity="1"
     inkscape:pagecheckerboard="0"
     showgrid="true"
     inkscape:snap-global="false"
     inkscape:zoom="23.53125"
     inkscape:cx="11.814077"
     inkscape:cy="15.213811"
     inkscape:window-width="1680"
     inkscape:window-height="998"
     inkscape:window-x="-8"
     inkscape:window-y="-8"
     inkscape:window-maximized="1"
     inkscape:current-layer="svg4">
    <inkscape:grid
       type="xygrid"
       id="grid2045" />
  </sodipodi:namedview>
  <text
     xml:space="preserve"
     style="font-weight:bold;font-size:10px;line-height:1.25;font-family:'MS Gothic';-inkscape-font-specification:'MS Gothic Bold';text-align:center;letter-spacing:0px;word-spacing:0px;text-anchor:middle"
     x="-1.9681273"
     y="19.505976"
     id="text16431"><tspan
       sodipodi:role="line"
       id="tspan16429"></tspan></text>
  <text
     xml:space="preserve"
     style="font-weight:bold;font-size:10px;line-height:1.25;font-family:'Noto Serif CJK SC';-inkscape-font-specification:'Noto Serif CJK SC Bold';text-align:center;letter-spacing:0px;word-spacing:0px;text-anchor:middle"
     x="-2.7330675"
     y="20.86587"
     id="text19867"><tspan
       sodipodi:role="line"
       id="tspan19865"
       x="-2.7330675"
       y="20.86587" /></text>
  <g
     aria-label="ㆮ"
     id="text79012"
     style="font-weight:bold;font-size:20.9429px;line-height:1.25;font-family:'Noto Serif CJK SC';-inkscape-font-specification:'Noto Serif CJK SC Bold';text-align:center;letter-spacing:0px;word-spacing:0px;text-anchor:middle;fill:#5c3566">
    <path
       d="m -7.2906378,13.164292 c -0.6492299,0 -0.9214876,-0.586401 -0.9214876,-0.963373 0,-0.397915 0.1884861,-0.984316 0.9005447,-0.984316 0.7330015,0 0.9424305,0.439801 1.1309166,0.816773 0.1047145,0.167543 0.2303719,0.418858 0.3350864,0.712058 -0.4816867,0.272258 -0.9843163,0.418858 -1.4450601,0.418858 z M 4.9400156,1.7294691 C 4.2907857,1.0802392 4.018528,1.1430679 2.6781825,1.3106111 1.8614094,1.4153256 0.29069188,1.6038117 -1.615112,1.7922978 -4.1492029,2.0854984 -6.9764943,2.3577561 -7.5838384,2.1483271 -8.4424973,1.8341836 -8.5472118,2.0017268 -8.0655251,2.5043564 -7.3744094,3.1954721 -7.1230946,3.3211295 -6.201607,3.0907576 -5.2591765,2.8813286 -2.6831999,2.588128 -0.33759511,2.3996419 -0.42136671,3.5096156 -0.777396,5.2688192 -1.4475688,6.9023653 -2.9973434,7.0280227 -4.5052321,7.1955659 -5.1754049,7.3421662 -4.5890037,6.4206786 -3.709402,5.0175044 -3.5628017,4.7452467 -3.3533727,4.3263887 -3.2696011,4.1379026 -3.5209159,3.9284736 -3.7931736,3.6562159 -4.0026026,3.4886727 -4.2958032,3.3630153 -4.6099466,3.1745292 -4.735604,3.2792437 -4.5471179,3.7190446 c 0.188486,0.5235725 -0.062829,1.2146882 -0.3141435,1.7801464 -0.2722577,0.5864012 -0.8167731,1.466003 -1.5078888,1.884861 -0.5654583,0.3769722 -0.7539444,0.418858 -0.7539444,0.7120586 0,0.1675432 0,0.3769722 0.1466003,0.5445154 0.1466003,0.1466003 0.7120586,-0.1466003 1.1728024,-0.3350864 0.6911157,-0.2722577 2.4293763,-0.5445154 4.0629225,-0.7330015 -0.062829,0.1675432 -0.1466003,0.3141435 -0.2303719,0.4816867 -0.7748873,1.5497746 -1.9267468,3.2042632 -3.1623778,4.1885802 -0.1466003,-0.335087 -0.2932006,-0.628287 -0.3979151,-0.837716 -0.3979151,-0.64923 -0.9843163,-1.005259 -1.7592036,-1.005259 -1.0890308,0 -1.7382607,0.900544 -1.7382607,1.73826 0,1.256574 0.837716,1.863918 1.7382607,1.884861 0.5235725,0.02094 1.1099737,-0.167543 1.7173178,-0.460744 0.083772,0.251315 0.1675432,0.544516 0.209429,0.774888 0.1466003,0.607344 0.8167731,0.376972 0.7748873,-0.146601 -0.041886,-0.376972 -0.1466003,-0.733001 -0.2513148,-1.109973 1.235631,-0.879602 2.492205,-2.324662 3.4765213,-4.1257515 C -1.0915395,8.4521399 -0.8402247,7.9704532 -0.6307957,7.4678236 0.33257768,7.384052 1.1702937,7.3421662 1.5682088,7.3631091 2.5944109,7.4259378 2.9085543,7.6772526 2.5525251,8.9966553 2.2802674,10.0438 1.4216085,12.179976 0.73049278,13.038635 c -0.62828699,0.79583 -0.77488729,0.879602 -0.73300149,1.214688 0.0628287,0.356029 0.52357249,0.314144 1.38223141,-0.607344 C 2.7200682,12.221862 3.5368413,8.9966553 3.8928706,8.5987402 4.1232425,8.3264825 4.3117286,8.1379964 3.9556993,7.7191384 3.7043845,7.4259378 3.4321268,7.1117943 3.0551546,6.8185937 2.8038398,6.6510505 2.4896964,6.5882218 1.6310375,6.6510505 1.0446363,6.6929363 0.35352058,6.7348221 -0.35853801,6.7976508 0.29069188,5.101276 0.68860698,3.4467869 0.87709308,2.2949274 2.1755529,2.2320987 3.3274123,2.1902129 3.9138135,2.2739845 5.1703875,2.4415277 5.5683026,2.3158703 4.9400156,1.7294691 Z"
       style="font-size:medium"
       id="path83505" />
  </g>
  <text
     xml:space="preserve"
     style="font-weight:bold;font-size:10px;line-height:1.25;font-family:'Noto Serif CJK SC';-inkscape-font-specification:'Noto Serif CJK SC Bold';text-align:center;letter-spacing:0px;word-spacing:0px;text-anchor:middle"
     x="9.8459492"
     y="13.258964"
     id="text85078"><tspan
       sodipodi:role="line"
       id="tspan85076"></tspan></text>
</svg>
