<?xml version="1.0" standalone="no"?>
<!DOCTYPE svg PUBLIC "-//W3C//DTD SVG 1.1//EN" "http://www.w3.org/Graphics/SVG/1.1/DTD/svg11.dtd" >
<svg xmlns="http://www.w3.org/2000/svg" xmlns:xlink="http://www.w3.org/1999/xlink" version="1.1" viewBox="-10 0 640 1000">
   <path fill="currentColor"
d="M411 440c52.9541 88.6992 99.8203 225.132 124 432l-22 21c-20.1543 -69.5312 -76.6016 -261.819 -149 -388c-17.5781 20.3535 -66.5 77 -140 77c-76.1406 0 -129 -65.9521 -129 -142c0 -76.0518 52.8633 -142 129 -142c73.5 0 122.422 56.6465 140 77
c50.1699 -87.4395 99.1699 -216.085 149 -388l22 21c-18.1729 155.479 -54.46 315.521 -124 432zM170 440c0 13.8604 9.59961 68 54 68c1.69141 0 45.5049 -0.660156 97 -68c-4.00977 -5.34668 -51.9395 -68 -96 -68c-44.7207 0 -55 53.3164 -55 68z" />
</svg>
