<?xml version="1.0" standalone="no"?>
<!DOCTYPE svg PUBLIC "-//W3C//DTD SVG 1.1//EN" "http://www.w3.org/Graphics/SVG/1.1/DTD/svg11.dtd" >
<svg xmlns="http://www.w3.org/2000/svg" xmlns:xlink="http://www.w3.org/1999/xlink" version="1.1" viewBox="-10 0 661 1000">
   <path fill="currentColor"
d="M375 397c57.6621 6.78418 191 40.084 191 203c0 42.667 -5.33301 80 -16 112c8 6 17.667 14.667 29 26l-2 85c-18.667 -17.333 -36 -32.667 -52 -46c-35.5869 69.627 -83.2568 88 -141 88c-62.667 0 -94 -36 -94 -108c0 -59.9639 42.4443 -102 106 -102
c31.333 0 62.333 6.66699 93 20c3.33301 -26.667 5 -49 5 -67c0 -82 -43.667 -129.667 -131 -143c-39.0469 178.499 -144.014 363 -229.123 363c-28.3242 0 -104.877 0 -104.877 -138c0 -76.8311 27.7051 -144.031 83.1162 -201.602s118.706 -88.3691 189.884 -92.3984
c4.66699 -34 7.66699 -64.667 9 -92h-220v-74h299c-2 60.667 -7 116.333 -15 167zM290 463c-98.2344 12.0283 -190 115.532 -190 221c0 45.333 11.333 68 34 68c38.6104 0 124.236 -133.066 156 -289zM346 757c0 30 16.167 45 48.5 45s57.833 -21.333 76.5 -64
c-30.667 -17.333 -57.333 -26 -80 -26c-28.667 0 -43.667 15 -45 45z" />
</svg>
