<?xml version="1.0" standalone="no"?>
<!DOCTYPE svg PUBLIC "-//W3C//DTD SVG 1.1//EN" "http://www.w3.org/Graphics/SVG/1.1/DTD/svg11.dtd" >
<svg xmlns="http://www.w3.org/2000/svg" xmlns:xlink="http://www.w3.org/1999/xlink" version="1.1" viewBox="-10 0 802 1000">
   <path fill="currentColor"
d="M591.062 -13.3037c0 53.4053 -42.4844 74.0381 -51.0303 77.6484c1.30371 9.9375 3.5293 18.9521 6.5166 26.9346c2.98633 7.98242 23.7305 13.5215 62.2324 16.834c25.9033 5.32227 42.249 21.9395 48.874 49.8516c29.5977 107.12 32.8809 152.293 32.8809 186.527
c0 23.3984 -1.33105 52.1934 -3.99121 86.4053c2.66113 28.5635 3.90918 51.1543 3.90918 67.7715c0 15.9111 -6.29883 33.2334 -18.8975 51.8057c-1.07617 0.105469 -2.09668 0.158203 -3.06152 0.158203c-10.5732 0 -11.834 -6.47852 -11.834 -8.42285
c0 -4.33496 13.5811 -20.7266 13.5811 -41.3145c0 -8.77344 -2.56641 -19.123 -7.7002 -31.1172c-4.4707 6.15918 -6.6416 13.3154 -6.6416 21.5654c0 3.90137 0.422852 5.38086 0.422852 8.54785c0 7.8252 -2.88672 11.7012 -8.66016 11.7012
c-3.23438 -12.0029 -4.85156 -23.0117 -4.85156 -33.0225c0 -33.7227 15.6318 -31.6572 15.6318 -69.7598c0 -32.0703 -11.1953 -53.3438 -11.1953 -93.5605c0 -11.7832 1.11426 -22.6875 3.34766 -32.7119c-18.5723 -29.8672 -32.5283 -62.7754 -41.8145 -98.6162
c-15.8105 45.5693 -24.0791 83.333 -24.0791 113.246c0 44.1445 17.3643 49.2949 17.3643 98.2578c0 16.2881 -2.39258 33.1152 -7.1875 50.459l22.917 151.4v0.977539c10.1816 28.2383 15.2461 57.9541 15.2461 89.1104c0 40.252 -10.5938 79.5703 -10.5938 134.681
c0 29.5234 8.49316 26.1914 8.49316 49c0 13.332 -6.20117 20.3701 -18.5742 21.1025h139.886v32.7998h-712.253v-32.7998h21.9385l51.5889 -672.067c-21.0557 -2.35547 -23.4268 -18.6709 -23.6758 -23.2422l9.88281 -31.9307
c-7.66113 -4.05176 -11.4756 -8.25391 -11.4756 -12.6055c0 -2.06445 0.858398 -4.16211 2.57031 -6.29297c10.209 2.49805 19.4404 5.26758 27.8037 8.14551l14.0098 -182.462l25.8486 2.93262l-14.6621 190.282c9.7207 5.21289 17.4316 10.8057 22.6992 16.9424
c32.3252 27.3086 110.702 48.0566 146.404 74.7227c24.5449 -45.833 58.4854 -95.3584 101.657 -148.468l1.95508 73.7451c-72.1113 115.555 -92.8232 121.637 -101.208 121.637c-24.9795 0 -76.5732 -26.9658 -154.782 -80.7998
c-2.40234 0.121094 -4.89453 0.174805 -7.46875 0.174805c-4.34961 0 -8.93262 -0.15332 -13.709 -0.392578l-51.5889 670.656l165.41 -0.977539c-16.8535 0 -25.2793 -2.60156 -25.2793 -7.83887c0 -11.9473 27.7393 -18.3809 36.248 -20.0732
c28.5645 -12.5986 48.7656 -20.7988 60.7119 -24.4375c29.0684 -8.85059 43.6211 -65.0625 73.7451 -242.521l48.7656 -246.106c0 -71.7354 -9.9375 -127.832 -29.8672 -168.343l-1.95508 -74.7227c2.22754 0.0595703 4.39844 0.0888672 6.51172 0.0888672
c21.1699 0 36.5938 -2.9707 46.2715 -8.99414l-4.01855 -15.9658c-7.79883 0.450195 -14.1475 0.692383 -19.083 0.692383c-7.91113 0 -13.7383 0 -14.2598 -11.1191c-0.726562 -15.5322 -7.70898 -11.2891 -7.70898 -15.3926c0 -2.04199 3.50391 -4.83594 3.49023 -5.24219
c-0.0117188 0 -0.0898438 0.0722656 -0.234375 0.216797c-3.82715 -0.9375 -5.87598 -2.77637 -5.87598 -4.00098c0 -1.13574 1.2627 -2.48926 3.8125 -4.03613c-2.66016 -2.00879 -5.81055 -3.58398 -9.44824 -4.8877
c-1.89062 -0.676758 -2.82812 -2.36523 -2.82812 -5.04199c0 -11.5811 20.1494 -40.999 22.2686 -43.8311c12.4258 -58.918 41.7549 -65.79 79.75 -65.79c76.8477 0 76.8477 41.0801 76.8477 61.8867zM507.993 -59.7031c-36.6143 0 -47.4297 18.25 -50.6113 28.3633
c24.5449 2.66113 40.4561 7.38574 47.7871 14.0107c9.17578 -4.73047 16.876 -7.09766 23.1045 -7.09766c15.5977 0 18.6494 15.4688 18.6494 20.749c0 18.9082 -22.3584 28.498 -22.3584 43.8809c0 4.32324 2.71875 9.80469 7.7373 9.80469
c6.79297 0 41.6611 -22.1113 41.6611 -65.5068c0 -37.9902 -39.877 -44.2041 -65.9697 -44.2041zM422.519 33.5c7.37598 2.45801 11.043 5.42676 11.043 8.99121c0 0.292969 -0.0244141 0.59082 -0.0742188 0.891602c10.2607 0.836914 17.5518 3.08887 17.5518 5.95605
c0 6.42969 -10.209 4.87695 -10.209 15.3096c0 6.67188 3.4873 9.98145 10.4102 9.98145c6.49805 0 10.375 -2.39844 16.4521 -2.39844c18.8164 0 19.4307 25.4805 19.4307 28.8105c0 16.0234 -10.9961 24.0146 -32.7832 24.0146
c-19.9541 0 -29.9316 3.33691 -29.9316 9.9248c0 1.51562 0.52832 3.2041 1.58496 5.0625c35.373 62.2334 41.0586 112.207 44.3125 207.225l93.6201 -20.9609c-1.02441 -8.01758 -1.53711 -16.3252 -1.53711 -24.9248c0 -68.751 29.0605 -113.467 29.0605 -148.593
c0 -18.4766 -8.15625 -27.7334 -24.4824 -27.7334c-26.5547 0 -41.8682 -19.2783 -45.832 -57.7803c-3.08301 -12.584 -10.9189 -17.5107 -10.9189 -24.6562c0 -10.0527 25.1709 -27.1562 25.1709 -46.2803c0 -8.90137 -8.46191 -10.5127 -11.252 -10.5127
c-10.3848 0 -15.8398 13.3115 -20.2686 13.3115c-1.14746 0 -1.72168 -1.20996 -1.72168 -3.62988c0 -0.558594 0.0302734 -1.18164 0.0917969 -1.86816c-13.3047 -9.28613 -30.2471 -14.0107 -50.8281 -14.0107c-2.00977 2.66113 -3.96484 6.625 -5.97363 11.9473
c3.46484 -1.56543 6.99121 -2.34277 10.5889 -2.34277c11.2588 0 19.6807 8.31543 31.2256 8.31543l0.977539 4.99609c-18.7832 -1.53223 -24.5879 -8.45703 -35.5967 -8.45703c-8.79395 0 -14.9922 0 -30.1113 39.4111zM525.677 -10.8271
c5.33594 0 5.33594 5.16211 5.33594 6.80469c0 15.6309 -18.5107 34.8066 -26.4111 34.8066c-1.8877 0 -6.53418 -1.4873 -6.53418 -5.82031c0 -5.46973 4.99316 -8.80762 6.12402 -9.49316c-0.34668 -0.880859 -0.520508 -1.85352 -0.520508 -2.91992
c0 -7.52148 9.87793 -23.3779 22.0059 -23.3779zM523.051 -4.30371c-8.45996 0 -14.5273 11.0312 -14.5273 15.9473c0 0.915039 0.338867 1.37402 1.0293 1.37402c1.05273 0 2.15527 -0.958984 3.10645 -0.958984c0.424805 0 0.639648 0.226562 0.639648 0.678711
c0 1.86328 -3.36426 6.10938 -3.36426 7.6748c0 0.240234 0.0986328 0.361328 0.296875 0.361328c1.2207 0 15.3779 -11.293 15.3779 -22.2812c0 -1.25488 -0.333984 -2.7959 -2.55859 -2.7959zM474.324 6.56445h10.9697v4.99609l-10.9697 -2.06348
c-6.02734 3.1875 -11.7607 4.79785 -17.209 4.79785c-4.76172 0 -9.30469 -1.22949 -13.6357 -3.71191l-4.01855 1.95508v-5.97363c7.31641 -7.31543 8.37402 -8.37207 14.5791 -8.37207c7.58984 0 15.5234 4.95703 20.2842 8.37207zM452.386 2.5459
c-3.3125 0.652344 -5.64844 2.00977 -6.95117 4.01855c2.00879 1.30371 4.29004 2.28125 6.95117 2.93262c-1.00488 -1.33105 -1.50684 -2.56543 -1.50684 -3.71973s0.501953 -2.22656 1.50684 -3.23145zM460.423 2.5459c0.841797 1.11426 1.25391 2.16309 1.25391 3.15137
c0 1.37305 -0.793945 2.63281 -2.34082 3.7998c3.3125 0 7.00586 -0.326172 10.9697 -0.977539zM503.832 27.2686c1.14355 0 4.13867 -1.56348 4.13867 -3.18066c0 -1.1416 -1.26855 -2.34863 -3.7793 -3.62109c-1.49316 1.49316 -2.20703 2.89746 -2.20703 4.21191
c0 0.725586 0.319336 2.58984 1.84766 2.58984zM444.674 35.4189c0 3.01367 -3.14551 4.68945 -4.9834 4.68945c-3.92285 0 -5.59473 -5.31738 -8.70215 -5.31738c-0.570312 0 -1.0791 0.222656 -1.51953 0.663086
c-0.326172 -0.651367 -0.488281 -1.24902 -0.488281 -1.76465c0 -2.13574 2.89551 -2.25293 3.5293 -2.25293c1.7041 0 4.30078 5.24805 6.66699 5.24805c0.526367 0 2.23926 -0.493164 2.23926 -3.72754c0 -1.68359 0.326172 -2.49805 0.977539 -2.49805
c1.09668 0 2.28027 3.43457 2.28027 4.95996zM434.465 46.4238c4.03223 0.987305 11.4365 1.89258 11.9473 1.95508l-14.8799 0.977539c-1.05566 -0.52832 -1.6123 -1.05664 -1.6123 -1.58496c0 -0.686523 0.75 -1.34766 4.54492 -1.34766zM433.115 56.0225
c0.450195 0 0.899414 -0.242188 1.34961 -0.692383c6.5752 0 11.8564 -4.79688 11.9473 -4.8877c-14.2275 2.15234 -14.2275 2.15234 -14.2275 4.83105c0 0.700195 0.728516 0.749023 0.930664 0.749023zM566.967 349.224l-97.6387 23.8936l-40.8369 202.229h164.324
l-22.916 -129.461c7.84668 -18.1807 11.7705 -34.9697 11.7705 -50.3545c0 -17.1943 -4.90137 -32.6357 -14.7031 -46.3066zM456.186 658.609c0 59.4658 -61.876 132.144 -70.4854 211.607c0.0205078 0.533203 0.03125 1.05566 0.03125 1.56934
c0 13.2842 -6.99805 19.9424 -20.9639 19.9424c-7.23926 0 -16.1963 -2.32812 -31.0195 -2.32812c-8.63574 0 -15.8906 0.918945 -21.793 2.75586l186.19 0.112305c-8.98047 -1 -13.499 -1.86621 -13.499 -5.60059c0 -3.47559 3.72363 -9.69824 26.4961 -22.4238
c57.918 -1.32227 69.9629 -16.6787 69.9629 -55.9316c0 -10.418 -4.03125 -45.998 -28.04 -210.05h-74.7227c-15.2266 11.7305 -22.8965 27.0088 -22.8965 45.9453c0 6.45117 0.739258 8.21484 0.739258 14.4014z" />
</svg>
