<?xml version="1.0" standalone="no"?>
<!DOCTYPE svg PUBLIC "-//W3C//DTD SVG 1.1//EN" "http://www.w3.org/Graphics/SVG/1.1/DTD/svg11.dtd" >
<svg xmlns="http://www.w3.org/2000/svg" xmlns:xlink="http://www.w3.org/1999/xlink" version="1.1" viewBox="-10 0 1190 1000">
   <path fill="currentColor"
d="M415.602 445.156l52.7031 255.685c60.1445 -10.8545 60.1445 -10.8545 71.4678 -10.8545c56.5908 0 113.733 22.3125 180.403 22.3125c38.1904 0 74.1445 0 142.483 -103.965l-120.702 -62.9307c-2.41113 0.0908203 -4.83301 0.135742 -7.26465 0.135742
c-115.831 0 -144.972 -80.5889 -319.091 -100.383zM1034.87 416.869c-55.6523 43.6748 -91.4941 84.3994 -107.342 122.085c-0.808594 1.92285 -54.251 126.924 -117.845 172.114c24.8604 -12.9902 64.2656 -20.6074 112.132 -24.416
c66.2295 -58.6865 95.7803 -93.6729 145.119 -129.731c-6.86426 -27.4121 -17.5059 -74.0801 -32.0645 -140.052zM790.699 307.686c-35.1055 13.6816 -81.7275 31.7412 -139.96 53.9932c-151.702 22.3223 -159.018 11.0508 -205.561 24.416
c-0.412109 0.341797 -26.9131 21.7725 -46.8994 25.7998c80.2529 7.78516 146.363 26.8584 197.822 57.6787c43.9902 26.2969 83.3428 39.4336 118.081 39.4336c8.22754 0 16.1953 -0.736328 23.9053 -2.20996c35.2656 -86.5684 52.8594 -150.222 52.8594 -191.034
c0 -2.7998 -0.0820312 -5.49219 -0.248047 -8.07715zM1036.22 128.934c-12.3154 0 -20.542 10.457 -20.542 12.7129c0 1.05664 1.0166 1.57129 3.06152 1.57129c1.59961 0 2.4043 0.298828 2.4043 0.890625c0 2.17773 -9.41602 6.17578 -9.41602 8.13867
c0 0.473633 0.633789 0.711914 1.89941 0.711914c13.209 0 30.5527 -13.4375 30.5527 -20.4424c0 -3.28613 -4.9209 -3.58301 -7.95996 -3.58301zM908.912 126.541c0.174805 -0.174805 0.347656 -0.261719 0.518555 -0.261719c2.02344 0 1.88184 9.29102 5.93164 9.29102
c3.79102 0 3.77246 -3.77344 6.44922 -6.4502c1.14062 0 1.72363 0.783203 1.72363 2.32129c0 3.16699 -1.70605 8.6084 -7.79199 8.6084c-7.2002 0 -5.41016 -10.3672 -9.94434 -10.3672c-0.629883 0 -1.31152 0.242188 -2.0459 0.727539
c0 -5.48535 2.99219 -5.55957 3.15527 -5.55957c1.18652 0 1.77637 1.20898 2.00391 1.69043zM1053.02 128.78c0 17.5332 -36.7861 35.2344 -47.3232 35.2344c-9.50879 0 -10.2861 -10.6719 -10.2861 -10.8213c0 -7.54688 8.57129 -8.68555 13.7461 -8.68555
c-0.286133 -0.71875 -0.429688 -1.46777 -0.429688 -2.24707c0 -7.97461 18.9434 -22.3242 30.833 -22.3242c1.74707 0 13.46 0.318359 13.46 8.84375zM960.326 103.413c0.146484 1.00098 0.21875 1.91992 0.21875 2.75586c0 4.16504 -1.81055 6.27441 -5.37793 6.27441
c3.4082 1.7041 8.2002 2.90234 14.1895 3.77734zM950.007 98.2539c-5.16016 0 -8.52344 0.875 -10.2275 2.58008c1.7041 2.5791 3.86914 5.15918 6.4502 7.73926c-0.180664 -1.06348 -0.271484 -2.05469 -0.271484 -2.97363c0 -3.53613 1.34277 -5.99316 4.04883 -7.3457z
M929.46 104.704l1.28906 -6.4502c13.4717 -5.38867 13.4717 -5.38867 15.9326 -5.38867c7.66797 0 18.1631 3.62305 29.0312 23.3555l14.1895 6.4502l-2.5791 6.44922l-14.1895 -9.0293c-1.27637 0.0683594 -2.53516 0.103516 -3.77441 0.103516
c-25.0293 0 -30.8809 -12.4863 -39.8994 -15.4902zM1115.1 118.584c0 -19.207 -8.56055 -34.7773 -25.6836 -46.6816c-27.8906 -19.3916 -53.3135 -29.9521 -75.6201 -29.9521c-15.9531 0 -29.0771 5.48535 -39.3691 16.499
c29.1162 17.9678 46.7148 32.9863 52.7041 44.9639c4.51074 -0.543945 8.69336 -0.81543 12.5479 -0.81543c21.2988 0 34.1348 8.35156 34.1348 28.4863c0 37.793 -54.8525 36.6582 -54.8525 60.3994c0 10.8857 10.707 12.1816 15.8037 12.1816
c47.4609 0 80.335 -44.8252 80.335 -85.0811zM778.051 769.078c-9.70801 0 -12.9678 -8.39062 -14.2568 -15.5332c9.0752 -13.6367 19.5801 -24.8311 31.5117 -33.5391c-15.6104 8.63379 -37.5527 17.9482 -78.4473 17.9482c-64.2021 0 -91.9658 -18.4121 -153.899 -18.4121
c-35.0781 0 -72.2295 5.73438 -111.424 17.2334c-23.583 30.4629 -74.6055 45.6787 -153 45.6787c-9.8125 0 -20.0537 -0.238281 -30.7236 -0.714844c-89.7783 5.30371 -103.761 45.2051 -116.51 45.2051c-7.95312 0 -15.9805 -8.64941 -24.0947 -25.9482
c-13.2686 -28.2861 -25.1074 -52.1504 -35.3818 -71.8682c-19.377 -37.1943 -29.7188 -59.8154 -29.7188 -67.5283c0 -6.33301 4.31445 -7.28027 6.89648 -7.28027c6.97852 0 19.2744 6.49707 36.9199 19.5254c36.3096 61.0752 56.3965 61.0752 69.1074 61.0752
c23.9922 0 71.6475 -15.8848 257.249 -77.7529l-29.5771 -145.21c-4.33203 -4.33301 -8.67969 -6.50293 -13.0244 -6.50293c-8.06152 0 -38.9434 25.8672 -114.061 25.8672c-25.3857 0 -52.7998 -3.01367 -82.2549 -9.04492c-62.9111 0 -95.0967 28.8369 -102.711 28.8369
c-8.83105 0 -15.3027 -10.4766 -19.3721 -31.417c-18.7969 -96.7256 -31.2793 -131.618 -31.2793 -146.441c0 -6.8623 2.2832 -10.2861 6.8623 -10.2861c6.86426 0 18.0127 8.9375 33.4463 26.9043c19.8125 69.3887 40.3135 78.1992 70.7363 78.1992
c21.6631 0 87.2969 -14.4404 201.626 -39.5928c8.9834 -6.72656 16.4463 -11.5176 22.8496 -14.5586c-0.771484 0.0078125 -1.55078 0.0126953 -2.33887 0.0126953c-12.4268 0 -26.8711 -1.03906 -43.6377 -3.4209c-0.352539 -1.40332 -0.52832 -2.71289 -0.52832 -3.92676
c0 -7.67285 7.03418 -11.5537 21.0752 -11.5537c16.2627 0 29.9453 -4.23828 41.0938 -12.8066c-15.4443 -4 -28.998 -6.00586 -40.6338 -6.00586c-40.1475 0 -60.542 26.8428 -71.1289 26.8428c-12.4951 0 -14.1914 -11.833 -14.1914 -18.2568
c41.2793 -35.7314 71.3477 -40.0518 111.116 -40.0518c13.708 0 27.6592 0.914062 41.835 2.73535c83.8877 -27.9746 145.832 -41.9258 185.785 -41.9258c8.99805 0 16.8799 0.708008 23.6465 2.12207c69.3799 -26.5361 117.707 -48.6035 145.118 -66.1562
c24.9844 -15.999 46.4092 -23.998 64.2754 -23.998c16.4883 0 68.7207 9.56152 79.125 11.4971l3.10059 -22.7881c-38.0146 -13.4717 -38.0918 -16.7559 -38.0918 -23.5059c0 -6.26465 4.03613 -11.9385 4.03613 -19.7236c0 -5.55371 -2.38379 -5.80469 -2.38379 -8.87891
c0 -2.10547 1.42383 -4.0332 4.2832 -5.75488c-3.12109 -1.60156 -3.27148 -6.38867 -3.27148 -6.46094c0 -2.61035 2.36816 -4.24609 7.14062 -5.05664c-6.59473 -10.9541 -12.2539 -10.9111 -12.2539 -15.7236c0 -12.3066 40.9082 -40.9092 52.0576 -47.2988
c25.7656 -33.8711 53.667 -50.7842 83.5742 -50.7842c29.2754 0 125.676 26.9893 125.676 94.1572c0 5.85449 -5.14844 110.366 -115.452 112.157c-6.46973 11.7393 -9.6748 22.4629 -9.6748 32.1855c0 4.4707 0.677734 8.72949 2.02734 12.7783
c37.6846 22.251 62.8848 52.6572 75.7383 91.2178c21.4248 53.8418 32.1289 108.531 32.1289 164.1c0 22.2178 -1.71094 44.5752 -5.13184 67.0762c-50.5381 52.2422 -113.101 93.3828 -187.595 123.374c-29.3467 35.3389 -45.8711 45.1895 -106.605 50.124
c-0.913086 -2.01367 -1.37012 -3.89746 -1.37012 -5.65234c0 -17.6582 34.6338 -8.5625 54.0742 -36.7324c-2.74316 -0.0996094 -5.41602 -0.150391 -8.01953 -0.150391c-70.9746 0 -76.208 41.3906 -92.0684 41.3906zM942.359 237.015l-7.74023 19.2568
c-25.249 -7.25098 -46.2412 -10.874 -62.9785 -10.874c-32.9453 0 -49.4072 14.0381 -49.4072 42.083c0 6.8291 0.650391 7.13086 0.650391 12.8096c0 44.0645 -19.6826 118.49 -59.0898 223.276l107.895 61.6406c40.2646 -83.9385 91.1719 -152.028 152.858 -204.271
c17.6904 -9.27344 26.5332 -19.2949 26.5332 -30.0596c0 -28.918 -61.3076 -44.8535 -61.3076 -85.9805c0 -8.47949 10.876 -40.0781 10.876 -66.2588c0 -8.38281 -1.16016 -8.8125 -1.16016 -12.3809c0 -7.21387 5.40137 -12.7676 16.1211 -16.6865
c21.1035 -7.71582 45.0977 -26.9502 45.0977 -39.3994c0 -6.98047 -7.47852 -14.2754 -17.1768 -14.2754c-10.8125 0 -18.6953 7.52637 -25.0674 7.52637c-2.1748 0 -3.26074 -1.08496 -3.26074 -3.2627c0 -1.57129 0.56543 -3.71191 1.69727 -6.4248
c-11.9775 -17.1377 -30.4521 -31.7881 -55.2832 -43.7656c-4.28418 3.40918 -9.39844 7.32422 -15.3867 11.6094c1.02441 -0.0751953 2.03027 -0.112305 3.0166 -0.112305c25.9746 0 25.168 23.6514 47.0137 30.9785l-3.77734 5.06738
c-8.56934 -5.98926 -16.9072 -12.623 -25.0615 -19.9023c-7.27441 -6.49316 -15.3916 -9.72363 -24.3525 -9.72363c-13.1826 0 -41.8545 29.4307 -46.9629 34.7861c6.57324 5.90137 9.83887 10.8008 9.83887 14.6963c0 0.522461 -3.35449 12.1777 -3.38867 12.3008
l21.8369 9.0293l-2.58105 7.64746l-19.2559 -6.3584c-2.45117 5.38965 -3.67676 10.127 -3.67676 14.2148c0 28.0049 46.5381 6.46484 46.5381 44.2021c0 5.37891 -1.02051 11.583 -3.05762 18.6113z" />
</svg>
