<?xml version="1.0" standalone="no"?>
<!DOCTYPE svg PUBLIC "-//W3C//DTD SVG 1.1//EN" "http://www.w3.org/Graphics/SVG/1.1/DTD/svg11.dtd" >
<svg xmlns="http://www.w3.org/2000/svg" xmlns:xlink="http://www.w3.org/1999/xlink" version="1.1" viewBox="-10 0 620 1000">
   <path fill="currentColor"
d="M179.51 697.757c0 -35.9346 50.4297 -269.67 51.0176 -272.378c-7.96191 -42.9941 -11.9453 -81.6309 -11.9453 -115.908c0 -62.751 13.3486 -110.896 40.0762 -144.437c3.07812 -5.71191 4.61719 -12.9443 4.61719 -21.7188
c0 -6.24219 -0.779297 -13.2646 -2.33691 -21.0752c-6.73242 -5.1123 -43.2852 -33.3936 -43.2852 -75.2969c0 -17.7646 6.66797 -59.5586 69.418 -59.5586c47.3135 0 70.1855 27.6709 86.6074 60.4561c5.06348 23.3955 24.8799 45.1699 24.8799 57.3398
c0 3.17773 -1.04688 4.7666 -3.12012 4.7666c-0.926758 0 -2.37207 -0.483398 -4.98633 -0.483398c-2.47363 0 -4.71289 0.483398 -6.67285 1.48145c2.28125 2.28027 3.36719 4.45312 3.36719 6.7334c-0.760742 2.9873 -2.17188 4.56152 -4.45312 4.56152
c-0.84082 -0.213867 -1.46582 -0.320312 -1.87305 -0.320312c-0.375 0 -0.564453 0.0908203 -0.564453 0.270508c0 1.14746 3.96289 2.07227 3.96289 5.69824c0 4.03809 -4.37109 6.13281 -6.08691 18.0293c-1.15625 8.00586 -8.97559 8.53223 -13.5723 8.53223
c-6.61426 0 -15.543 -1.41113 -26.9404 -4.0791l-1.19434 15.8574c14.2822 3.74707 25.958 7.875 34.9727 12.3818c25.5244 1.52051 48.8213 4.50781 69.8379 9.01465c-1.92773 -17.3555 -2.89258 -35.1289 -2.89258 -53.3154c0 -24.3223 1.72461 -49.3828 5.17383 -75.1729
c-9.01465 -24.0576 -15.3691 -45.5088 -19.1162 -64.2988c2.28125 -30.792 10.4814 -54.0352 24.7637 -69.8379c3.39453 1.87305 5.09082 6.84277 5.09082 14.9141s-1.69629 19.2441 -5.09082 33.5273l6.73438 24.8721c7.49414 -15.043 14.6084 -30.4658 21.3965 -46.2686
c5.70117 3.1123 8.5791 8.73926 8.5791 16.8779c0 5.6543 -0.0322266 11.0479 -16.3994 58.6074c6.78906 50.3418 10.8613 102.204 12.3818 155.533c16.5098 -50.3418 31.8779 -92.0488 46.1611 -125.122c-12.7627 -33.832 -19.877 -58.1611 -21.3975 -73.2041
c1.52051 -17.2695 8.30957 -35.2998 20.3105 -54.0898c5.99902 1.82617 9.04004 5.80859 9.04004 11.9492c0 5.53906 -3.09473 10.8506 -4.58691 43.2266l10.21 25.958c6.78809 -24.8174 13.5225 -45.5088 20.3105 -62.0176c5.35059 3.21875 8.0166 9.12207 8.0166 17.7109
c0 8.2168 -4.41016 27.1719 -11.4922 55.6025l-2.17188 33.7783c-6.02832 54.0898 -18.4648 108.938 -37.2549 164.549c-1.09766 7.05762 -6.5 10.5771 -16.2061 10.5771c-3.73535 0 -8.1084 -0.521484 -13.1191 -1.5625c-20.6084 1.71289 -40.0244 2.5752 -58.2646 2.5752
c-21.6543 0 -41.6504 -1.21484 -60.0146 -3.66113c3.0918 20.6191 4.6377 41.7676 4.6377 63.4473c0 41.5293 -5.67285 85.0049 -17.0195 130.426c8.00684 15.3389 12.0303 30.0361 12.0303 44.2041c0 7.99707 -1.27148 3.13672 -1.27148 91.042
c0 29.0059 0.139648 65.0576 0.428711 108.155c-1.15918 4.41797 -1.73633 8.98145 -1.73633 13.6885c0 33.2119 16.4678 21.8447 16.4678 89.3926c0 23.4404 -1.91309 53.3438 -5.7168 89.7061c3.28418 11.9521 4.92676 22.1104 4.92676 30.4766
c0 18.4727 -8.00781 28.2139 -24.043 29.2607c-70.1553 3.80078 -94.1816 5.8291 -95.1348 5.8291c-10.1104 0 -15.1377 -2.87891 -15.1377 -8.67383c0 -1.49902 0.336914 -3.19336 1.00879 -5.08398c11.2959 -7.49414 28.8359 -13.8486 52.8945 -19.1162
c23.2969 -10.5352 36.4395 -21.0703 39.4258 -31.6064c-9.77539 -74.3994 -17.2148 -124.796 -22.4824 -151.08c-3.74707 -13.5225 -6.73438 -26.6641 -9.01465 -39.4268h-67.666c-7.46484 8.0459 -11.1611 19.2578 -11.1611 33.6357
c0 9.89648 1.42383 13.6738 1.42383 20.0078c0 23.7324 -15.5439 70.5176 -46.6328 140.23c2.65039 9.77539 3.97461 18.1699 3.97461 25.1836c0 17.8115 -8.54492 26.7168 -25.6367 26.7168c-1.00391 0 -2.03809 -0.0302734 -3.10156 -0.0917969
c-59.4199 5.35742 -96.2734 8.05566 -110.596 8.05566c-4.58984 0 -12.2656 0 -12.2656 -5.97852c0 -33.5156 84.5146 -19.2812 112.761 -66.2676c15.043 -57.1299 24.3828 -102.15 28.1299 -135.223c-0.919922 -5.55078 -1.38086 -11.7148 -1.38086 -18.4863z
M295.181 2.86816c-21.8623 0 -57.4688 4.17969 -57.4688 45.1826c0 37.0186 37.3389 60.1836 38.5762 60.1836c0.580078 0 0.869141 -0.363281 0.869141 -1.08887c0 -7.04492 -19.4658 -28.9365 -19.4658 -50.752c0 -20.3652 14.8662 -23.0605 22.7363 -23.0605
c6.40527 0 14.1709 1.46875 23.3047 4.40723c20.5723 -3.89746 30.8584 -9.13281 30.8584 -15.7061c0 -4.71191 -8.98242 -19.166 -39.4102 -19.166zM270.28 57.583c0 21.8896 26.7637 39.6465 26.7637 54.0244c0 3.25488 -1.09375 14.501 -15.7949 18.5615
c1.97168 6.45117 2.94922 13.3994 2.94922 20.8291c0 3.82715 -0.259766 7.78223 -0.776367 11.8633c-24.5352 32.6865 -36.7607 87.6504 -36.7607 164.973c0 29.3018 1.75586 61.8154 5.2627 97.5449h82.2197c7.49414 -18.0303 11.7305 -72.8799 12.4902 -164.549
c-6.78809 -48.8213 -15.4229 -79.667 -25.958 -92.4287l2.28027 -31.498c6.16016 0.662109 11.6709 0.993164 16.5322 0.993164c17.083 0 26.1641 -4.08789 27.3477 -12.2891c-6.76367 -3.38184 -10.1338 -6.21289 -10.1338 -8.51758
c0 -2.08594 3.71094 -5.20117 12.334 -5.20117c1.44336 0 2.99121 0.0830078 4.64258 0.250977c-1.50684 -2.01465 -2.26074 -3.86621 -2.26074 -5.54883c0 -3.35254 2.99219 -6.03906 8.99414 -8.02734l-15.748 -31.498
c-3.55566 -3.21973 -8.73535 -4.82715 -15.5234 -4.82715c-7.52148 0 -17.0176 1.97363 -28.4648 5.91309c-1.71484 -0.495117 -2.57227 -1.12793 -2.57227 -1.89941c0 -2.85547 17.8857 -11.0967 33.9941 -11.0967c2.70605 0 5.37305 0.205078 8.00391 0.614258
c-4.50684 -9.01465 -8.63477 -13.5762 -12.3818 -13.5762c-4.50684 0 -17.3232 3.4209 -38.3398 10.209c-1.1748 3.10547 -2.8252 4.6543 -4.97363 4.6543c-6.00293 0 -9.80273 -10.1895 -21.2168 -10.1895c-3.40137 0 -12.9092 0.879883 -12.9092 10.7158zM282.407 49.9229
c10.5625 0 20.4258 16.8516 20.4258 24.9756c0 1.82617 -0.460938 3.34277 -1.38184 4.54883c6.35059 3.86621 7.0293 8.24023 7.0293 9.93262c0 4.26855 -4.74902 5.50684 -6.35645 5.50684c-7.50488 0 -26.4619 -19.8242 -26.4619 -35.3594
c0 -1.5332 0.305664 -9.60449 6.74512 -9.60449zM281.249 61.417c0 11.6533 12.3604 22.3398 14.7197 22.3398c0.399414 0 0.599609 -0.233398 0.599609 -0.700195c0 -1.80664 -2.56934 -5.28223 -2.56934 -7.20508c0 -0.536133 0.227539 -0.807617 0.677734 -0.807617
c0.827148 0 1.64941 0.78418 2.56836 0.78418c0.770508 0 1.1416 -0.618164 1.1416 -1.85352c0 -6.3584 -6.40723 -16.2715 -14.1787 -16.2715c-1.23535 0 -2.95898 0.40332 -2.95898 3.71387zM351.449 66.1943c10.834 0 15.5127 8.38184 17.668 14.3389
c-5.69531 5.05664 -11.6182 7.55371 -17.8037 7.55371c-11.4961 0 -21.375 -7.71094 -24.9902 -10.9209l-13.5762 -1.08594l1.19434 -4.56152l12.3818 2.28125c9.99609 -4.99805 18.1982 -7.60547 25.126 -7.60547zM347.72 70.4326
c-4.50684 1.52051 -9.39453 2.93262 -14.6621 4.45312c5.26758 4.50684 10.9424 8.11426 16.9424 8.11426c5.26758 0 9.39551 -2.08691 12.3828 -5.83398c-2.9873 -3.74707 -5.21387 -5.64746 -6.73438 -5.64746c0.919922 1.85645 1.38184 3.49609 1.38184 4.92188
c0 3.20312 -2.33203 4.50684 -7.03027 5.55957c-3.44922 -2.5791 -5.17285 -4.21973 -5.17285 -6.54883c0 -1.74316 0.964844 -3.41504 2.89258 -5.01855zM302.517 91.5166c1.54004 0 3.04199 -1.80469 3.04199 -2.94238c0 -1.25586 -1.40332 -2.38184 -4.10742 -3.47949
c-1.8252 0.928711 -2.73828 1.87891 -2.73828 2.91016c0 1.43359 2.19336 3.51172 3.80371 3.51172zM251.924 449.056c-7.49414 47.3555 -17.6494 110.84 -30.4111 190.507l122.841 6.73438c0 -123.222 -1.08691 -188.986 -3.36719 -197.241h-89.0625z" />
</svg>
