<?xml version="1.0" standalone="no"?>
<!DOCTYPE svg PUBLIC "-//W3C//DTD SVG 1.1//EN" "http://www.w3.org/Graphics/SVG/1.1/DTD/svg11.dtd" >
<svg xmlns="http://www.w3.org/2000/svg" xmlns:xlink="http://www.w3.org/1999/xlink" version="1.1" viewBox="-10 0 529 1000">
   <path fill="currentColor"
d="M336.279 -75.002c14.1797 0 74.2471 3.66895 74.2471 65.8438c0 13.3857 -3.87109 58.8467 -54.1309 85.0244c-1.95215 6.69922 -2.93359 12.7578 -2.93359 18.1777c0 9.95801 3.31152 17.7607 9.99316 23.4219c3.44727 -0.160156 6.79492 -0.239258 10.0439 -0.239258
c45.3311 0 71.4043 15.5537 78.043 46.6182c18.2471 72.9346 27.2627 131.261 27.2627 174.87c0 28.5654 -6.2998 85.2627 -19.0078 170.091l7.16895 61.8018c0 5.53906 -13.0342 9.88379 -39.21 13.0342c-3.15039 0 -5.59375 -15.4775 -7.16895 -46.3789l10.6445 -39.21
c0.814453 -71.3604 4.01855 -120.562 9.55762 -147.499c-13.2432 -57.1816 -14.5596 -142.533 -26.1758 -152.17h-2.38965c-8.74316 0 -19.7676 44.3691 -33.2363 133.162c4.45801 60.5557 16.6182 43.0176 16.6182 114.154c0 38.8301 -1.62891 86.8379 -4.7793 143.915
c0 8.74316 2.38965 24.167 7.16895 46.3789c19.1699 17.6562 28.7334 81.1904 28.7334 190.559c0 8.36816 -0.0556641 17.0049 -0.167969 25.9102c4.50391 17.1504 6.75 31.2578 6.75 42.3252c0 20.1582 -7.45117 30.2305 -22.2822 30.2305l-116.543 -2.38965
c3.96387 -16.6729 14.2822 -26.1768 30.9551 -28.5664l49.9629 -21.3965c4.37695 -14.79 6.55566 -31.3398 6.55566 -49.6406c0 -63.5371 -39.2646 -184.046 -39.9004 -185.837h-80.8096c0.779297 3.99707 1.16895 8.52148 1.16895 13.5732
c0 41.0781 -25.7568 117.037 -77.3086 227.878c3.79688 9.86426 5.69531 18.0742 5.69531 24.6299c0 12.9824 -7.44727 19.4736 -22.3408 19.4736c-1.1416 0 -2.32715 -0.0380859 -3.55664 -0.114258h-124.907c1.5752 -13.4688 12.708 -21.0176 33.3447 -22.5918
l64.1914 -23.7871c24.7627 0 61.8018 -211.707 61.8018 -262.849c23.7871 -86.4033 38.8301 -151.844 45.1846 -196.267l-30.8467 4.77832l27.2617 -42.7939c-6.02441 -6.02441 -9.03906 -11.1787 -9.03906 -15.4648c0 -5.2959 4.60352 -9.26465 13.8184 -11.9062
c-8.74316 -47.5732 -18.5732 -91.9424 -29.6523 -133.162c-6.69727 0 -15.9336 122.302 -15.9336 128.764c0 28.0723 3.98633 25.1631 3.98633 139.95c6.35449 21.3975 9.55859 40.0791 9.55859 55.9365c-5.54004 16.6729 -14.6631 28.6201 -27.3711 35.7344h-2.38965
c-7.11426 -14.2832 -10.7529 -30.1406 -10.7529 -47.5732l3.58398 -44.0977l-15.4229 -98.6221l-3.58496 -70.166c0 -51.5371 8.30957 -108.669 24.9814 -171.285c12.708 -19.8223 42.4141 -30.1406 89.1729 -30.9561v-13.0332
c-6.35742 1.05371 -12.084 1.59668 -17.1953 1.59668c-8.92969 0 -17.2354 -0.964844 -17.2354 -11.1553c0 -13.8105 -5.25586 -16.502 -5.25586 -21.3682c0 -4.13184 4.1709 -4.64844 4.1709 -6.31543c0 -0.577148 -0.830078 -0.881836 -2.49902 -0.881836
c-2.83887 0 -3.11816 -4.38965 -3.11816 -5.2168c0 -2.25684 1.05176 -4.06543 3.11816 -5.42773c-1.5752 -2.38965 -4.7793 -3.58398 -9.55859 -3.58398c-3.18555 0 -4.77832 -2.09961 -4.77832 -6.31641c0 -2.10742 0.397461 -4.74414 1.19434 -7.91211
c16.6729 -23.7871 26.6104 -41.6543 29.7607 -53.5469c29.1016 -48.5576 56.3184 -58.1113 85.7832 -58.1113zM326.759 -58.6006c-23.4473 0 -33.4365 12.2695 -33.4365 18.2021c0 7.04199 9.90332 13.6768 29.7285 19.9229
c7.94727 -1.99121 14.8701 -2.98438 20.7646 -2.98438c19.7676 0 25.3584 11.4131 25.3584 24.3242c0 26.3096 -26.1709 51.8857 -26.1709 59.4883c0 0.710938 0.322266 1.06543 0.96875 1.06543c0.863281 0 46.9004 -23.708 46.9004 -69.7363
c0 -47.2471 -51.0088 -50.2822 -64.1133 -50.2822zM305.935 9.90918c0 1.33984 -1.42969 2.3291 -4.28125 2.95996c-13.1592 -7.06445 -24.0439 -10.6182 -32.6689 -10.6182c-4.90039 0 -9.07129 1.14746 -12.5146 3.4502l-20.2021 33.2363
c7.73926 3.33789 11.6094 6.88965 11.6094 10.6152c0 1.60742 -0.719727 3.24707 -2.16016 4.91602c9.07324 2.25 15.5088 6.06836 15.5088 8.76074c0 2.44922 -3.58398 5.45898 -10.7295 9.05273c0 11.1309 5.89844 16.6963 17.6953 16.6963
c0.0507812 0 4.99707 -0.158203 5.08008 -0.158203c11.752 0 17.6289 5.39941 17.6289 16.1543c0 11.5137 -0.977539 21.0176 -2.93262 28.5664c-5.45898 21.0781 -55.2852 6.64648 -55.2852 36.2773l19.0078 68.9707c15.8584 77.7139 26.9912 116.544 33.3447 116.544
c43.6094 -7.11426 65.3867 -17.0527 65.3867 -29.7607l46.3779 -168.896c-9.50293 -11.0791 -23.7861 -16.6182 -42.7939 -16.6182c-12.9795 -5.53906 -19.5078 -17.3652 -19.5078 -35.4268c0 -5.1377 0.527344 -10.7803 1.58594 -16.9258
c-12.2627 -6.13086 -13.8027 -17.5928 -13.8027 -22.9648c0 -7.76465 3.61133 -14.8096 10.8701 -21.0244c14.2197 -12.1748 22.5947 -30.6328 22.5947 -39.1006c0 -11.3789 -12.2334 -12.4043 -14.2275 -12.4043c-9.64648 0 -13.9453 8.27734 -19.8584 8.27734
c-2.23145 0 -3.76172 -1.45605 -4.58301 -4.3457c-20.9766 -10.1152 -35.0781 -16.0957 -39.1338 -16.0957c-4.22754 0 -8.96289 4.95117 -14.3047 14.9014c2.27539 -0.323242 4.54492 -0.484375 6.80664 -0.484375c18.4141 0 35.4893 11.7715 35.4893 15.4453z
M343.568 -3.46484c5.62891 0 6.67871 4.71973 6.67871 8.24219c0 18.5967 -23.0771 39.3506 -30.4697 39.3506c-2.09375 0 -6.50391 -1.88086 -6.50391 -6.64941c0 -7.02246 5.95312 -9.81055 7.3877 -10.3809c-0.421875 -1.06152 -0.633789 -2.23633 -0.633789 -3.52441
c0 -8.12402 10.8799 -27.0381 23.541 -27.0381zM342.071 4.34668c-9.00586 0 -17.1934 14.8975 -17.1934 17.8037c0 0.8125 0.402344 1.22461 1.2002 1.22461c1.17578 0 2.33496 -0.796875 3.36816 -0.796875c0.49707 0 0.746094 0.21582 0.746094 0.650391
c0 2.00586 -4.72559 6.85449 -4.72559 8.75c0 0.341797 0.180664 0.512695 0.541016 0.512695c4.27441 0 18.5566 -13.875 18.5566 -25.2734c0 -2.28516 -1.13574 -2.87109 -2.49316 -2.87109zM271.487 30.8047c-6.68457 0 -12.8848 -3.2793 -18.6016 -9.68066
c4.95508 -11.8809 11.874 -15.5283 18.502 -15.5283c6.8252 0 15.3623 3.9541 25.4863 11.9443h14.2285v3.58398h-14.2285c-12.4746 8.7168 -21.8535 9.68066 -25.3867 9.68066zM258.859 17.54c4.14062 6.45996 9.14062 7.45996 13.1406 7.45996
c8 0 12.166 -2.68066 17.7061 -5.07031c-4.7793 -3.15039 -9.4502 -5.48535 -14.2285 -7.06055c1.9043 1.9043 2.85156 3.60254 2.85156 5.10645c0 2.27051 -2.15723 4.10059 -6.43652 5.53809c-4.23926 -1.05078 -6.35156 -2.97266 -6.35156 -5.78027
c0 -1.40039 0.525391 -3.02148 1.57324 -4.86426c-0.27832 -0.15918 -0.615234 -0.259766 -0.988281 -0.259766c-2.19238 0 -5.58008 3.24316 -7.2666 4.93066zM320.076 40.9082c1.30078 0 3.53711 -1.78809 3.53711 -3.62891
c0 -1.31836 -0.993164 -2.7207 -2.95215 -4.20703c-2.2832 1.1416 -3.4248 2.45508 -3.4248 4.00195c0 1.34668 1.16211 3.83398 2.83984 3.83398zM358.677 367.28c-55.5029 7.92871 -83.1992 20.9629 -83.1992 39.21c-10.3184 34.8652 -23.7324 100.306 -40.4053 196.268
l9.4502 1.08594h63.1045c34.1055 0 51.0498 -3.53027 51.0498 -10.6445c7.11426 -50.7227 10.7529 -101.12 10.7529 -151.083c-1.5752 -49.9629 -5.21387 -74.8359 -10.7529 -74.8359z" />
</svg>
