<?xml version="1.0" standalone="no"?>
<!DOCTYPE svg PUBLIC "-//W3C//DTD SVG 1.1//EN" "http://www.w3.org/Graphics/SVG/1.1/DTD/svg11.dtd" >
<svg xmlns="http://www.w3.org/2000/svg" xmlns:xlink="http://www.w3.org/1999/xlink" version="1.1" viewBox="-10 0 762 1000">
   <path fill="currentColor"
d="M681.223 651.372c23.8936 27.4229 26.3379 83.4648 5.21387 168.56c-4.94238 25.3057 -5.32227 50.123 1.7373 74.7227c8.41699 16.1826 0.977539 24.6543 -24.3281 24.3281c-48.4404 -0.624023 -78.7012 3.47559 -112.953 3.47559
c-7.88965 0 -41.0791 -2.50586 10.4268 -31.2793c64.5 -6.02246 75.6748 -20.335 72.9844 -71.2471c-3.5293 -28.8359 -9.28516 -98.4531 -19.1143 -206.79h-71.2471c-17.5947 35.1895 -27.0977 59.2998 -27.8037 71.2471
c0.706055 44.3125 -21.668 98.9424 -69.5098 165.084c-14.0645 16.1826 -22.21 34.8633 -24.3281 53.8701c0.706055 18.3008 -11.1865 24.0566 -34.7549 17.377c-23.5674 -6.67871 -44.9092 -7.38477 -66.0332 -1.7373c-39.4678 10.5508 -73.1279 6.83887 -59.083 -8.68848
c8.1084 -8.96484 52.0215 -25.2109 106.002 -45.1816c13.3584 -4.94141 25.957 -19.1689 36.4922 -45.1807c8.41699 -28.1299 23.3506 -71.3018 45.1807 -126.854c4.23535 -46.4297 12.0557 -78.3066 22.5908 -97.3125c46.4297 -107.631 70.8662 -183.657 72.9844 -229.381
c-10.915 -8.68848 -39.8047 -31.5508 -57.3447 -45.1807c-5.79883 16.5254 -45.5615 74.7793 -97.3135 119.903c4.01855 18.5176 2.06348 35.1348 -6.9502 48.6562l109.477 -24.3281c30.7539 -3.55957 23.7217 61.6826 -71.2471 165.084
c-39.751 43.2803 -108.011 91.8291 -205.052 145.97c-8.96094 0.597656 -14.6084 0.977539 -17.3779 -1.7373c7.82031 37.415 12.7617 63.1006 22.5908 107.739l-13.9023 1.7373c-43.7148 -195.006 -66.9023 -317.679 -71.2471 -375.35
c0.163086 52.1318 3.58496 170.243 6.95117 380.562h-13.9014c-4.23633 -220.854 -6.95117 -353.954 -6.95117 -399.678v-20.8525c0 47.1357 -17.9746 190.716 -53.8701 432.695l-13.9014 -3.47559c35.8945 -241.273 52.1318 -384.527 52.1318 -430.958v-19.1143
c-11.1318 -3.91016 -17.377 -14.1191 -17.377 -31.2793c0 -14.7715 5.42969 -23.5684 17.377 -27.8037v-12.1641c-2.2373 -11.1855 -19.2051 -5.55664 -29.541 -29.542c12.6523 -1.41211 22.4814 1.30371 29.541 10.4268l-3.47559 -15.6396
c-6.21973 -6.21973 -23.1016 -4.79297 -33.0166 -27.8037c11.9463 -1.41211 22.4814 3.74707 29.541 12.1641l-5.21289 -17.377c-10.416 -8.33301 -26.208 -2.26855 -34.7549 -26.0664c19.9219 -2.34473 30.9512 10.3994 31.2793 10.4268l-1.7373 -8.68945
c-2.41895 -12.0918 -21.0215 -5.81738 -29.542 -29.541c9.12305 -0.706055 16.2373 2.00879 22.5908 6.95117l-1.73828 -12.1641c-7.99609 -15.9971 -24.3975 -7.28125 -33.0166 -31.2793c11.9473 -0.706055 21.4502 2.00879 27.8037 10.4258l-3.47559 -13.9014
c-5.77344 -5.77539 -21.9736 -2.28027 -33.0166 -26.0664c12.6533 -1.41113 23.8936 3.69336 33.0166 15.6396c-13.3584 -17.5938 -15.3682 -34.5918 -6.9502 -48.6562c10.5342 12.6533 13.5752 27.9668 12.1641 43.4434l3.47461 6.95117
c2.00977 -3.74707 5.75684 -6.08203 8.68945 -8.68848c-0.489258 -1.19531 -1.30371 -2.17285 -1.73828 -3.47559c1.41211 -0.108398 2.17285 1.68359 3.47559 1.7373c4.94141 -3.80078 10.1553 -6.13574 17.377 -6.95117
c-0.868164 4.34473 -1.8457 7.05957 -3.47461 10.4268c3.69238 2.11816 7.76465 4.83301 10.4258 8.68848c0 -2.11719 0.326172 -8.95996 1.73828 -17.377c-2.78027 -2.78027 -21.542 -3.65332 -29.542 -24.3281c11.9473 -1.41211 21.8301 3.04102 29.542 12.1641
l1.7373 -8.68848c-4.94141 -14.7715 -3.2041 -28.3467 5.21289 -41.7061c11.2412 11.9473 10.8613 27.9121 1.73828 46.9189c6.11328 -12.2334 15.1504 -20.1465 27.8037 -20.8525c-3.6377 25.3213 -19.4561 23.2725 -24.3281 33.0166v13.9014
c4.23535 -9.82812 11.6748 -14.9336 24.3281 -15.6387c-5.16211 23.9512 -18.0186 20.3984 -24.3281 33.0166l-1.73828 1.7373l1.73828 12.1641c3.5293 -9.8291 10.6436 -15.2588 22.5898 -17.377c0 5.81055 -1.13965 9.66602 -3.47461 13.9014
c6.13574 2.49805 12.1641 7.38574 15.6387 13.9023l1.73828 -8.68848c-1.41211 -14.7705 3.36719 -29.0527 13.9014 -41.7061c7.71191 13.3594 6.02832 28.6182 -5.21289 46.9189c7.71094 -11.9473 16.8887 -16.3457 29.542 -15.6396
c-8.21289 21.2246 -20.9395 19.2012 -29.542 27.8037l-3.47559 13.9023c5.64746 -8.41797 15.1514 -12.1641 27.8037 -12.1641c-7.30469 20.3447 -23.1406 17.7305 -34.7549 31.2783v19.1152c8.41797 -7.71094 18.627 -11.1318 31.2793 -10.4258
c-8.02148 22.3408 -23.0186 17.8047 -31.2793 26.0654l-6.9502 17.3779c6.35352 -8.41797 15.1504 -11.1328 27.8037 -10.4268c-10.0273 23.2646 -23.6982 17.6953 -31.2793 27.8037l-1.73828 5.21289c2.49805 -0.59668 3.96484 -1.57422 6.95117 -1.7373
c-0.597656 2.87793 -2.44336 4.50684 -3.47559 6.95117c5.97363 -5.32227 14.5537 -7.49414 24.3281 -6.95117c-3.5293 9.8291 -8.25391 15.2588 -13.9014 17.377c51.1328 -1.89941 88.708 -53.9873 144.231 -52.1318c-0.706055 -45.0176 4.07324 -89.4932 13.9023 -133.806
c14.2275 -21.6123 27.3691 -33.2881 38.2295 -34.7539c3.58398 -3.74707 8.2002 -7.65723 13.9023 -10.4268l-10.4268 -36.4922c-33.0215 9.8125 -48.8779 7.45605 -53.8691 -17.377l-3.47559 -3.47559c-3.53027 -1.41211 -3.15039 -5.48535 -1.73828 -10.4268
c-3.5293 -2.82422 -4.56152 -5.15918 -1.7373 -8.68848l-12.1641 -6.95117c-6.81445 -4.08887 1.61133 -29.6436 13.9014 -48.6562l-3.47559 -10.4268l10.4268 -26.0654c2.11816 -17.5947 12.5986 -31.877 33.0166 -41.7061
c27.0098 -13.0723 129.136 -24.8594 139.019 55.6074c7.05957 59.7891 -9.9375 92.6973 -52.1318 99.0508c4.78027 19.1172 97.0566 10.71 130.33 57.3447c35.5127 49.7744 45.5117 83.917 111.215 178.986c23.5684 34.1035 36.4922 65.708 36.4922 93.8379
c0 75.2549 -24.0186 91.8457 -31.2793 232.856zM337.152 -26.3438c33.0713 6.35352 51.752 12.1104 55.6074 17.3779s10.3174 7.33105 19.1143 5.21289c12.7969 -3.08105 42.7725 24.915 13.9023 74.7227c37.959 -7.05957 53.2725 -33.8857 43.4434 -78.1982
c-2.11816 -23.8936 -15.3682 -38.502 -36.4922 -43.4434c-21.0586 -4.88379 -90.0508 -10.5312 -95.5752 24.3281zM304.135 55.3301c0 3.32031 15.8545 6.30762 13.9023 12.1641c6.89648 0.542969 13.0869 2.76953 20.8525 6.95117v3.47461
c-5.64746 4.94238 -11.1865 8.36328 -15.6396 8.68945c5.03711 23.373 53.3799 1.96191 53.8701 1.7373c3.5293 7.05957 8.95996 17.9209 17.377 33.0166c8.41699 15.0967 6.7334 29.7051 -5.21289 45.1816c-21.5596 27.8242 15.1201 56.9219 66.0332 97.3125
c1.52051 -34.2109 5.91992 -67.8252 13.9023 -100.788c12.6523 -19.7129 23.1875 -29.7588 33.0166 -33.0166c-32.8291 -10.3379 -58.0967 -8.83008 -76.46 -20.8535c-9.12305 -5.97363 -14.2275 -21.6123 -15.6396 -46.918
c13.3584 -19.0068 17.8115 -32.5283 12.1641 -43.4434s-14.499 -11.2412 -24.3281 0c-10.5352 -16.1826 -35.3516 -28.4014 -74.7227 -34.7549l-5.21289 17.377l1.7373 10.4268c-0.227539 0.401367 -15.6396 33.4043 -15.6396 43.4434zM321.078 5.04395l0.43457 -7.16797
c45.5137 -1.75293 33.4707 13.9971 60.8203 12.1641v5.21387c-40.0742 0 -11.4258 -10.21 -61.2549 -10.21zM363.109 18.8379v2.17188c-11.1865 -4.7793 -25.1973 -13.9561 -39.9678 -3.04102l-0.43457 -2.17188c3.05762 -5.32129 20.5557 -9.0166 40.4023 3.04102z
M357.896 22.3125l27.8037 3.47559v5.21387l-27.8037 -5.21387c-10.5352 6.35352 -22.1016 8.74316 -34.7549 5.21387h-3.47559l-1.7373 -3.47559c11.2051 -11.2061 17.8789 -17.8809 39.9678 -5.21387zM342.257 18.8379c2.82324 2.82324 2.82324 5.86426 0 8.68848
c3.5293 -0.706055 7.92773 -1.35742 12.1641 -3.47559zM331.613 19.9238c-2.82422 1.41211 -4.99609 4.07227 -4.99609 7.60254c2.11816 -0.706055 8.63379 3.2041 6.5166 0.868164c-3.2041 -3.5293 -2.82422 -5.70117 -1.52051 -8.4707zM324.988 55.3301
c0.216797 0.488281 1.57422 -0.706055 1.7373 0c0.706055 2.82324 -0.651367 5.53906 -3.47559 6.95117c-6.10449 3.05078 -8.19824 -9.17969 -12.1641 -5.21387c-1.41211 -1.41211 -2.44336 -1.03125 -1.7373 -1.7373c0.706055 0 2.06348 -1.03223 3.47559 -1.73828
c4.58203 -2.11328 13.7793 12.251 12.1641 1.73828zM336 76c-9.54785 -4.21094 -20.7637 -3.60449 -21.4385 -3.29297c0 0 0.326172 2.06348 1.7373 3.47559l17.7012 -0.182617v1l-17.7012 0.919922c-0.0361328 0.00195312 -2.54395 5.4834 3.47559 3.47559
c12.4482 0 15.2256 -4.39551 16.2256 -5.39551zM523.089 138.741c4.7793 9.50293 4.29004 25.0342 -1.7373 45.1807c-8.1123 32.2373 -9.81836 59.7227 -26.0664 111.215c22.6455 17.9746 52.8379 42.4658 69.5098 55.6074l72.9844 -36.4922
c-93.9619 -162.701 -94.3076 -162.915 -114.69 -175.511zM85.1807 218.677c2.82422 7.05957 4.50781 12.8154 5.21387 15.6396c1.13965 -2.66113 3.47559 -4.94238 5.21289 -6.95117c-0.0546875 -0.651367 0.0546875 -1.03223 0 -1.7373
c0.651367 0.0537109 1.08594 -0.109375 1.7373 0c4.29004 -4.01855 10.0469 -6.24512 17.3779 -6.95117c-2.01855 -1.58008 -12.3125 -3.51172 -17.3779 -8.68848c-9.39551 7.52051 -12.0586 8.58301 -12.1641 8.68848zM116.46 220.414
c-1.19434 4.6709 -4.66992 7.00586 -6.95117 10.4268c0.326172 0.271484 -0.325195 1.46582 0 1.7373c3.58496 2.93262 8.47168 5.59375 10.4268 10.4268zM333.677 449.795c-0.542969 -2.00977 -1.14062 -3.0957 -1.73828 -5.21289l-17.377 -17.3779
c15.2129 -17.999 29.8994 -23.1992 57.3447 -12.1641l-3.47461 6.95117c38.5322 -27.7432 49.2139 -79.1562 85.1484 -125.117v-1.7373c-19.6035 -15.0967 -26.9893 -22.4814 -52.1318 -41.7051c-15.4229 -16.4541 -22.0479 -23.623 -27.8037 -31.2793
c-15.1182 46.5098 -5.55273 58.5566 -33.0166 133.805c-63.3193 23.1885 -118.655 39.1533 -165.085 50.3945c-5.21289 15.6396 -13.0869 25.6855 -24.3281 33.0166v46.9189c0 35.4062 18.1914 139.562 46.9189 278.037c1.19434 -3.0957 3.58398 -6.19043 6.95117 -10.4268
c135.099 -91.6963 210.995 -151.843 241.544 -239.807l-97.3125 22.5908c0 -6.08203 -2.17285 -15.4229 -3.47559 -24.3281c-9.12305 -2.33496 -16.2373 -10.8066 -22.5908 -27.8037c-7.05957 7.05957 -14.499 4.94141 -20.8525 -3.47559zM140.788 239.529
c-4.88672 4.12695 -8.09082 8.03711 -8.68848 10.4268v5.21289l-1.7373 13.9023c1.68359 -0.706055 4.77832 -1.19531 6.9502 -1.73828c-1.90039 -3.4209 -3.29004 -7.49414 -4.21289 -12.1641c13.7188 0.821289 23.1992 15.3809 23.3281 15.6396
c0.706055 -2.82422 2.38965 -8.58008 5.21387 -15.6396c-1.6084 -3.2168 -13.8252 -4.22168 -20.8535 -15.6396zM100.82 241.268c-4.50684 3.25781 -8.68848 5.81055 -8.68848 6.9502l3.47559 17.3779c1.14062 0.162109 2.38965 -0.271484 3.47559 0
c2.44336 -5.15918 7.81934 -8.2002 13.9014 -10.4268c-12.3076 -16.0371 5.43359 9.97949 -12.1641 -13.9014zM116.46 267.333c-1.41211 1.95508 -3.3125 3.63867 -5.21289 5.21289c1.7373 1.4668 3.74707 1.52051 5.21289 3.47559v-8.68848zM126.887 293.399
l3.47559 22.5898c0.43457 -1.62891 2.76953 -2.06348 3.47559 -3.47559c-2.33594 -4.83301 -3.96484 -9.06836 -3.47559 -15.6396c4.88672 1.3584 9.06836 2.93262 12.1641 5.21387c2.71484 -1.4668 5.10449 -2.60645 8.68848 -3.47559
c0 4.94141 -0.326172 8.30859 -1.7373 12.1641c0.651367 1.79199 1.57422 3.14941 1.7373 5.21289l5.21289 -31.2793c0 -0.705078 -3.36621 -2.71484 -10.4258 -6.9502c-5.39453 8.71289 -15.9209 12.4453 -19.1152 15.6396zM100.82 282.973l3.47559 12.1641
c1.5752 0.706055 2.00977 2.55273 3.47559 3.47559c1.19434 -2.49805 1.52051 -4.99609 3.47559 -6.95117c-0.0917969 -0.0820312 -5.20996 -6.36719 -8.68848 -8.68848c-0.326172 -0.216797 -1.41211 0.216797 -1.73828 0zM112.984 317.728
c-0.488281 0.922852 -1.57422 2.76953 -1.7373 3.47559l3.47559 10.4258c0.542969 -2.28027 2.33496 -3.36621 3.47559 -5.21289l-1.73828 -6.95117c-0.651367 -0.651367 -2.55176 -1.08594 -3.47559 -1.7373zM140.788 322.94
c-3.47559 3.53027 -5.53906 6.84277 -6.9502 8.68848c3.09473 1.68359 5.10449 4.45312 6.9502 6.95117c2.06348 -2.17188 3.74707 -3.91016 6.95117 -5.21289c-0.488281 -2.00977 -3.91016 -6.73438 -6.95117 -10.4268zM651.682 331.629l-86.8867 45.1816
c-2.82422 42.8994 -24.9258 115.233 -64.2959 217.216h166.822c0 -19.7119 4.07227 -47.5156 12.1641 -83.4111c24.2383 -107.531 8.85352 -138.648 -27.8037 -178.986zM116.46 350.744l1.73828 5.21289c0.651367 0.0546875 1.13965 -0.108398 1.7373 0
c0.43457 -0.759766 1.24902 -1.03125 1.73828 -1.7373c-0.977539 -1.08594 -3.47559 -2.33496 -5.21387 -3.47559zM139.051 359.433c-1.03223 1.19531 -2.9873 2.55273 -3.47559 3.47559c1.68359 1.46582 2.28125 3.3125 3.47559 5.21289
c1.19434 -1.68262 1.90039 -3.96387 3.47559 -5.21289c-0.43457 -0.869141 -2.66113 -2.44336 -3.47559 -3.47559zM140.788 395.925c-17.5938 2.11816 -28.7812 8.90625 -33.0166 20.8535c0.706055 14.7705 10.5889 18.8428 27.8037 12.1641
c17.2148 -6.67969 18.5723 -17.54 5.21289 -33.0176zM487.466 496.496l-24.3281 11.2959c9.12305 -0.706055 3.14941 4.18066 -13.0332 35.8408c-42.1123 82.3877 -113.252 138.23 -229.381 213.74l3.47559 1.73828c222.778 -129.586 250.804 -221.668 263.267 -262.615z
" />
</svg>
