<?xml version="1.0" standalone="no"?>
<!DOCTYPE svg PUBLIC "-//W3C//DTD SVG 1.1//EN" "http://www.w3.org/Graphics/SVG/1.1/DTD/svg11.dtd" >
<svg xmlns="http://www.w3.org/2000/svg" xmlns:xlink="http://www.w3.org/1999/xlink" version="1.1" viewBox="-10 0 966 1000">
   <path fill="currentColor"
d="M856.733 423.729h-86.8857c18.8486 18.8799 42.2891 19.1152 43.4424 19.1152c23.6201 0 38.3418 -13.5 43.4434 -19.1152zM870.636 392.45h-112.953c1.62598 13.6738 1.62598 13.6738 3.47559 17.377h106.002c0.0458984 -0.0917969 0.0625 -0.203125 0.0625 -0.325195
c0 -0.334961 -0.125 -0.75293 -0.125 -1.08789c0 -0.163086 1.54785 -0.356445 3.53809 -15.9639zM583.91 364.646l-99.0508 22.5898l-41.7061 210.266h166.822l-24.3281 -135.543c9.7627 -18.8867 14.7959 -36.1348 14.7959 -52.0215
c0 -16.4551 -5.39844 -31.4492 -16.5332 -45.291zM757.683 378.548h112.953c-1.37988 -10.2949 -1.69727 -12.6641 -5.21289 -19.1152h-104.265c-1.47363 2.95312 -1.47363 2.95312 -3.47559 19.1152zM771.47 345.847c0 0.34082 0.204102 0.822266 0.204102 1.15039
c0 0.112305 -0.0244141 0.207031 -0.0888672 0.271484h85.1484c-14.6504 -16.125 -33.3369 -19.1152 -45.1807 -19.1152c-17.6904 0 -40.083 15.6982 -40.083 17.6934zM75.8408 317.075c-9.9375 0 -15.6396 6.89746 -15.6396 20.8535v107.305
c0 11.9473 4.61621 17.377 13.9014 17.377h41.2715c9.28613 0 13.9023 -5.42969 13.9023 -17.377v-107.305c0 -13.9561 -3.96484 -20.8535 -13.9023 -20.8535h-39.5332zM787.225 112.675c-5.21289 10.1006 -8.68848 24.0029 -8.68848 43.4434
c0 43.7695 10.4805 91.8418 33.0166 140.281c22.5361 -48.4395 34.7549 -96.5117 34.7549 -140.281c0 -19.4404 -3.47559 -33.3428 -8.68848 -43.4434h-50.3945zM550.893 112.675h-48.6562c-2.22656 13.3594 -13.0869 20.8525 -33.0166 20.8525
c-20.2363 0 -31.0234 2.69434 -31.0234 9.20898c0 1.3877 0.490234 2.94824 1.48145 4.69336c30.4658 53.5986 42.6699 86.5908 46.9189 213.741l92.0996 -22.5908c-1.49316 -9.12891 -2.23438 -18.6084 -2.23438 -28.4824c0 -57.4785 21.6826 -90.5449 21.6826 -126.741
c0 -45.624 -26.9854 -37.8125 -47.252 -70.6816zM201.609 112.675c-0.706055 7.22266 -2.87891 14.1738 -5.21387 20.8525c67.0117 42.4658 105.404 71.1934 114.69 85.1494c37.1445 -35.1348 70.541 -62.0156 99.0508 -79.9355
c15.9111 -15.2598 28.6729 -22.5908 39.9678 -22.5908c6.84277 0 14.499 -1.03125 20.8525 -3.47559h-269.348zM460.531 55.3301c-13.0049 1.85742 -14.0967 2.01367 -14.0967 4.90723c0 0.450195 0.813477 0.450195 1.0957 0.450195
c0.740234 0 1.70605 -0.144531 2.57422 -0.144531c9.33105 -3.02441 9.33105 -3.02441 10.4268 -5.21289zM445.322 51.5723c-0.487305 0 -0.505859 0.56543 -0.505859 0.573242c0 0.500977 0.712891 0.896484 1.8125 1.44629h10.4268
c-3.3125 -0.325195 -6.02832 -1.08594 -8.68848 -1.7373c-2.14941 0 -2.6748 -0.282227 -3.04492 -0.282227zM518.918 32.3887c0.5 0 3.97852 -1.91699 3.97852 -3.49707c0 -0.956055 -1.00488 -1.94922 -3.28223 -3.10352
c-1.4248 0.923828 -2.03027 2.14746 -2.03027 3.49805c0 0.853516 0.431641 3.10254 1.33398 3.10254zM476.171 6.67383c0.713867 0.946289 1.03711 1.84375 1.03711 2.69922c0 1.54883 -1.06055 2.95605 -2.77539 4.25098c3.3125 0 8.2002 -0.43457 12.1641 -1.7373z
M467.481 4.93555c-3.3125 1.30371 -6.29883 3.2041 -6.9502 5.21289c2.00879 0.652344 4.29004 2.17285 6.9502 3.47559c-0.900391 -1.19238 -1.25586 -2.52734 -1.25586 -3.87793c0 -1.66016 0.537109 -3.34277 1.25586 -4.81055zM471.626 1.22363
c6.01855 0 10.2715 3.05371 18.4463 8.9248h10.4268v5.21387l-10.4268 -1.73828c-6.58398 3.29199 -13.1191 4.90234 -19.2139 4.90234c-4.96289 0 -9.63477 -1.06836 -13.8027 -3.16406l-1.73828 1.7373v-6.95117c5.96484 -5.96387 8.92676 -8.9248 16.3086 -8.9248z
M538.573 -0.282227c-3.4834 0 -14.7236 8.90723 -14.7236 15.9609c0 1.10742 0.438477 1.76465 1.35254 1.76465c1.07324 0 2.19141 -0.917969 3.48926 -0.917969c0.645508 0 1.01855 0.286133 1.01855 0.900391c0 1.87207 -3.40332 5.49121 -3.40332 6.8623
c0 0.227539 0.120117 0.336914 0.360352 0.336914c3.42578 0 13.8379 -14.5156 13.8379 -22.334c0 -1.01758 -0.125 -2.57324 -1.93164 -2.57324zM540.11 -8.12207c4.96875 0 6.95703 3.3291 6.95703 8.6582c0 16.0029 -20.7471 34.2178 -27.5137 34.2178
c-0.601562 0 -5.39746 -0.439453 -5.39746 -5.04199c0 -6.9043 6.06152 -10.2998 7.19531 -10.874c-0.836914 -1.1084 -1.30566 -2.55566 -1.30566 -4.34668c0 -7.20312 9.1582 -22.6133 20.0645 -22.6133zM453.933 41.8633c1.62891 0 3.19824 -1.91309 3.19824 -3.30859
c0 -0.635742 -0.451172 -1.77051 -0.451172 -3.00488c0 -0.97168 0.357422 -1.12695 0.584961 -1.12695c0.866211 0 1.88672 4.3623 1.88672 6.24512c0 4.79492 -4.13574 4.96094 -4.70898 4.96094c-4.36914 0 -5.70801 -6.33398 -9.92578 -6.33398
c-0.483398 0 -0.943359 0.123047 -1.36328 0.395508c0 -0.192383 2.52246 -3.47559 3.47559 -3.47559c1.47754 0 3.80078 5.64844 7.30371 5.64844zM454.811 68.8984c0 7.17871 3.98633 10.6221 11.2461 10.6221c6.97949 0 11.0615 -2.60156 16.8359 -2.60156
c9.20312 0 14.6758 6.61133 17.6064 18.3789h41.7051c-2.66016 -7.11426 -3.80078 -14.2275 -5.21289 -22.5908c-3.30957 -11.8545 -11.3203 -17.791 -11.3203 -25.6562c0 -12.1357 26.0225 -27.6797 26.0225 -46.9414c0 -9.74219 -10.4365 -10.1279 -10.583 -10.1279
c-12.1104 0.0185547 -17.1074 13.0361 -21.0381 13.0361c-1.50781 0 -2.2832 -1.67773 -2.2832 -4.80469c0 -0.602539 0.0292969 -1.25781 0.0869141 -1.96582c-13.9561 -9.28613 -31.5508 -13.9023 -52.1318 -13.9023c-1.30371 3.3125 -2.55273 7.49414 -5.21289 12.1641
c3.23145 -1.34082 6.30273 -1.96094 9.31836 -1.96094c11.6797 0 17.3252 8.91211 32.3867 8.91211l1.73828 5.21387c-17.6738 -1.33496 -23.8721 -9.05273 -33.4629 -9.05273c-6.3418 0 -18.8359 0 -34.3086 40.3311c12.2002 4.1416 12.21 4.14453 12.21 9.79883
c0 0.212891 -0.0146484 0.422852 -0.0458984 0.62793c4.46191 0.364258 16.7559 1.36719 16.7559 5.38379c0 6.40137 -10.3125 5.36719 -10.3125 15.1357zM523.469 -57.6357c-33.8105 0 -46.2275 16.6553 -50.7734 29.5547c25.1973 2.66113 41.3799 8.3623 48.6562 15.6396
c9.67969 -5.68848 17.625 -8.59473 23.9746 -8.59473c14.4268 0 18.0322 15.9736 18.0322 22.001c0 19.8857 -23.4473 30.2197 -23.4473 44.5752c0 4.0332 3.05273 9.50391 8.13281 9.50391c8.9707 0 42.8555 -26.1758 42.8555 -68.4268
c0 -39.5928 -45.8457 -44.2529 -67.4307 -44.2529zM654.274 514.486c0 -34.5488 18.6387 -30.0869 18.6387 -69.1338c0 -33.0996 -13.7715 -57.7549 -13.7715 -101.536c0 -10.751 0.980469 -20.6494 2.96582 -29.5645c-19.875 -43.7695 -32.2559 -83.8457 -38.2295 -121.642
c-16.6104 56.3838 -25.2119 96.8135 -25.2119 121.716c0 27.8008 21.334 47.8867 21.334 100.485c0 16.9941 -2.74121 33.3291 -8.28613 48.8848l22.5898 154.658c9.81152 29.8525 14.9531 61.1016 14.9531 93.6318c0 39.3047 -7.29688 56.1445 -7.29688 109.574
c0 58.9678 9.26367 88.3408 9.26367 89.2383c0 8.84277 -8.12793 13.4316 -24.7578 13.4316c-3.18066 0 -17.5449 -0.523438 -36.5967 -0.523438c-8.42773 0 -44.3848 0.77832 -44.833 0.77832c-10.2168 0 -19.1953 -0.290039 -27.1602 -0.290039
c-2.33105 0.121094 -4.42871 0.189453 -6.29199 0.189453c-7.47559 0 -11.1914 -1.10449 -11.1914 -4.37891c0 -2.77344 2.21777 -8.8291 27.9102 -23.6143c50.6846 -4.73145 69.6963 -17.6543 69.6963 -62.2676c0 -12.751 -4.78613 -46.2773 -29.7285 -215.77h-74.7227
c-14.8936 13.1367 -22.8936 30.2246 -22.8936 50.4365c0 5.80176 0.553711 7.34473 0.553711 12.9482c0 63.5547 -65.0107 139.133 -71.498 221.604c0.0234375 0.607422 0.0341797 1.20117 0.0341797 1.78223c0 12.5371 -5.38086 18.6504 -17.0518 18.6504
c-9.63574 0 -21.6826 -4.97656 -41.5654 -4.97656c-0.754883 0 -30.2471 5.39648 -75.2217 5.39648c-1.48145 0.046875 -2.89648 0.0703125 -4.24609 0.0703125c-14.2314 0 -21.0859 -2.62695 -21.0859 -8.14062c0 -15.0459 28.0742 -21.6758 35.7578 -23.209
c28.5098 -13.25 48.5479 -20.6895 60.8213 -24.3281c30.8467 -9.14355 44.4316 -63.7783 76.46 -250.233l48.6562 -253.708c0 -72.9854 -9.66602 -130.222 -29.541 -172.036c-68.9668 50.3945 -112.247 76.623 -126.854 79.9355
c-46.8428 -19.9238 -145.743 -108.524 -163.347 -159.871h-36.4922l-1.73828 184.199h13.9023c21.8838 0 33.0166 13.4141 33.0166 39.9688v111.215c0 24.5449 -11.1328 36.4922 -33.0166 36.4922h-46.9189c-21.2334 0 -31.2793 -11.9473 -31.2793 -36.4922v-111.215
c0 -26.5547 10.0459 -39.9688 31.2793 -39.9688h13.9014v-201.576h53.8701c-0.899414 -2.16699 -1.35449 -4.30176 -1.35449 -6.36914c0 -5.54785 3.27734 -10.6064 10.043 -14.4834l33.0166 -1.73828c0 -11.2314 2.53711 -16.1025 8.56836 -16.1025
c1.08398 0 2.28027 0.157227 3.5957 0.462891c5.05078 13.9561 7.875 25.7949 8.68945 38.2305h279.774l-1.7373 -6.95117c-5.97363 0.325195 -11.1602 0.488281 -15.5176 0.488281c-13.0098 0 -18.7539 -0.585938 -19.2373 -10.915
c-0.668945 -14.248 -7.10449 -11.2207 -7.10449 -14.0127c0 -2.02734 3.9209 -5.05371 3.9209 -6.54883c0 -0.194336 -0.102539 -0.291016 -0.291992 -0.291016c-1.99316 0 -5.79492 0 -5.79492 -3.57031c0 -1.04102 0.641602 -2.11426 2.31934 -3.38086
c-6.61133 -6.61133 -11.6611 -3.58984 -11.6611 -10.0391c0 -9.06055 17.6016 -39.5723 22.0879 -45.5684c2.66016 -39.8047 25.7402 -62.8838 69.5088 -69.5088c80.5547 2.32812 88.8779 21.7188 88.8779 66.2793c0 63.1494 -50.6729 74.6191 -50.6729 81.1416
c0 8.68066 2.75684 16.29 6.97656 22.877h210.265c8.79785 -14.5537 20.1475 -22.5908 38.2305 -22.5908s31.1709 8.03711 39.9678 22.5908h64.2959v17.377h-57.3447c3.58398 11.9473 6.95117 25.9033 6.95117 43.4434c0 45.2822 -12.752 100.163 -37.415 158.477
c33.1777 8.44922 58.2676 41.1621 58.2676 70.9043c0 22.3691 -20.4561 71.2471 -72.9854 71.2471c-51.7656 0 -72.9844 -45.5176 -72.9844 -71.2471c0 -46.0957 36.5664 -64.998 58.2549 -70.834c-26.0049 -58.3398 -39.1396 -113.247 -39.1396 -158.547
c0 -17.54 3.36719 -31.4961 6.95117 -43.4434h-182.462c49.0908 5.32227 76.1338 23.0791 83.4111 55.6074c20.9746 91.5332 33.5322 158.312 33.5322 208.379c0 23.5 -1.33008 52.5518 -3.99121 87.0352c2.66113 28.5098 5.21289 51.209 5.21289 67.7715
c0 15.9111 -7.60254 31.8223 -20.8525 50.3945c-1.37207 0.134766 -2.61133 0.207031 -3.73145 0.207031c-9.07324 0 -9.64258 -6.08496 -9.64258 -7.6123c0 -3.96191 13.6133 -20.2627 13.6133 -42.7275c0 -8.77344 -2.18359 -18.6973 -7.19043 -29.8027
c-4.58301 5.70605 -7.15234 13.0635 -7.15234 21.7617c0 3.5752 0.380859 4.87012 0.380859 7.97168c0 7.74023 -2.70508 12.0225 -7.87109 12.0225c-2.36133 0 -5.35449 -18.8359 -5.35449 -29.1963z" />
</svg>
