<?xml version="1.0" standalone="no"?>
<!DOCTYPE svg PUBLIC "-//W3C//DTD SVG 1.1//EN" "http://www.w3.org/Graphics/SVG/1.1/DTD/svg11.dtd" >
<svg xmlns="http://www.w3.org/2000/svg" xmlns:xlink="http://www.w3.org/1999/xlink" version="1.1" viewBox="-10 0 1190 1000">
   <path fill="currentColor"
d="M904.622 704.602c-11.6045 -111.132 -18.374 -68.0225 -18.374 -90.457c0 -2.77832 0.510742 -5.79395 1.53906 -9.04785c-5.04492 -61.2842 -37.916 -72.1953 -38.7148 -72.3848c-1.73535 12.0537 -5.1748 18.7676 -10.3496 20.0459
c-10.3506 12.4785 -20.2744 32.4902 -29.7402 60.0693c0 12.0527 -3.89746 22.207 -11.6602 30.3945c-18.0801 38.7803 -28.8555 64.4258 -32.2949 76.9053c-6.45215 4.32324 -10.7432 6.41992 -12.9053 6.41992h-9.03906
c-12.0674 -1.67871 -18.1016 -3.90918 -18.1016 -6.7793c0 -0.0976562 0.0078125 -0.196289 0.0214844 -0.295898c0 -11.2012 14.0859 -12.4824 18.7354 -12.9053c0.09375 0.0537109 0.196289 0.0810547 0.307617 0.0810547c3.45117 0 15.1738 -26.1279 35.1963 -78.2949
c0.425781 -9.04004 3.66895 -16.8027 9.69531 -23.2559c17.3115 -44.7461 20.0449 -57.8779 20.0449 -84.0449c0 -24.3535 -8.40918 -56.4453 -12.7734 -71.4668c-29.6094 60.3643 -62.8867 111.524 -99.9639 153.547c-23.8701 27.0381 -50.8711 40.5488 -81.0107 40.5488
c-16.9219 0 -34.834 -4.25977 -53.7363 -12.7744c-3.8916 3.16699 -10.0928 4.75098 -18.6035 4.75098c-1.875 0 -3.8623 -0.0771484 -5.96094 -0.230469c-1.57031 11.6396 -5.44238 14.5479 -8.91992 14.5479c-4.40137 0 -7.24707 -7.20703 -8.50488 -21.6221v-4.52051
c-5.60059 0.425781 -8.84375 14.6406 -9.69531 42.6445h-14.2148c0.425781 -40.4824 8.77832 -60.9541 25.1543 -61.3799c1.73633 -10.3496 6.22363 -20.9287 13.5605 -31.7041c0 -51.6855 1.34277 -93.2168 3.92969 -124.659
c-25.417 -36.1924 -42.4805 -63.3457 -51.0947 -81.4248c-20.2412 54.2715 -30.7881 118.664 -31.6396 193.179c7.00684 16.6934 10.5098 32.9971 10.5098 48.9072c0 17.335 -4.1582 34.2012 -12.4756 50.5967c6.26367 -4.98145 11.8711 -7.46777 16.8223 -7.46777
c23.8125 0 14.707 49.2627 51.4219 49.2627c7.75098 0 10.9775 -2.13574 19.1025 -2.13574c15.5928 0 28.0518 8.95312 37.3779 26.8965h-538.268c2.83984 -10.1543 8.93652 -15.1895 18.2891 -15.1895c0.0585938 0 4.45703 0.185547 5.83984 0.185547
c22.3867 0 27.499 -9.4082 60.5059 -15.3262c-0.105469 -2.07422 -0.15918 -4.09766 -0.15918 -6.07031c0 -30.4043 12.5615 -48.8496 37.6289 -55.3096c-19.4404 -159.599 -19.4404 -159.599 -19.4404 -162.721c0 -22.9678 15.7832 -34.6641 47.2812 -35.0439
c12.9375 0 27.5127 7.5332 43.8887 22.6006l111.819 102.124c-21.0273 -73.6621 -34.3574 -117.551 -40.8105 -135.14c-19.9375 1.4834 -38.0107 2.22656 -54.2109 2.22656c-55.3369 0 -88.8223 -8.66602 -100.122 -26.0713
c18.9639 -34.0303 64.1631 -65.0156 135.664 -93.0195c2.09668 -2.0957 5.01172 -3.93066 8.25391 -5.63281l-57.3184 -115.882l16.7695 -7.72949l57.9736 117.584c13.2979 -2.98047 30.7227 -4.51953 52.5361 -4.51953l-3.20996 -20.7002
c-3.27246 0.966797 -7.89648 1.46387 -13.8721 1.46387c-1.91797 0 -3.97559 -0.0507812 -6.17285 -0.154297c-0.448242 0.0224609 -0.883789 0.0332031 -1.30859 0.0332031c-7.73926 0 -11.5957 -3.67871 -11.5957 -11.0381c0 -15.8604 -6.46289 -12.709 -6.46289 -16.4736
c0 -2.16797 3.875 -3.95508 3.875 -4.83008c0 -0.0693359 -0.0537109 -0.103516 -0.161133 -0.103516c-0.114258 0 -0.290039 0.0390625 -0.526367 0.118164c-4.09863 -0.674805 -4.6084 -2.87793 -4.6084 -3.93164c0 -1.48828 1.13477 -2.95898 3.36328 -4.45312
c-6.91797 -6.91797 -11.9219 -3.8291 -11.9219 -9.42871c0 -8.60059 17.085 -33.7295 24.1719 -42.2559c16.7432 -55.7432 47.1348 -58.4902 74.4424 -58.4902c29.5625 0 74.8477 7.5625 74.8477 53.9043c0 58.7754 -40.1055 76.707 -49.7852 80.1797l0.655273 31.6396
c30.5908 0 53.2236 8.81152 67.8643 26.4648c53.4043 63.5293 73.6621 125.271 73.6621 135.582c0 32.1953 -3.84766 70.8066 -11.627 115.832c2.16113 20.668 3.20898 37.2412 3.20898 49.7197c15.0996 7.70508 29.8174 11.5576 44.1514 11.5576
c26.5547 0 51.7969 -13.2207 75.7266 -39.6602c63.6328 -70.3057 99.9043 -156.732 101.273 -157.412c-9.1416 -25.0674 -19.457 -43.8896 -55.0918 -43.8896l-45.1992 -1.89941c-0.358398 0.0166016 -0.708984 0.0253906 -1.05371 0.0253906
c-8.33789 0 -12.5068 -4.95508 -12.5068 -14.8955c0 -5.60059 4.52051 -8.38477 13.5605 -8.38477c38.5127 0 42.1006 -20.9756 70.9639 -20.9756c4.7041 0 9.69727 0.529297 14.9814 1.58594c8.1875 -6.87793 12.249 -15.9834 12.249 -27.1855v-46.5088l9.69531 -1.90039
c20.2412 32.7539 30.3945 59.873 30.3945 81.4248c0 7.7627 -2.62012 16.3438 -7.79492 25.8096c3.0459 3.0459 10.1533 11.8242 20.0449 24.5645c25.4121 32.25 51.5361 59.4209 102.526 59.4209c38.1045 0 70.6836 -9.52539 97.7285 -9.52539
c19.6533 0 33.876 4.27539 42.709 12.7949c16.8896 -11.2588 25.3467 -22.2617 25.3467 -32.9805c0 -17.9277 -13.7988 -19.3594 -18.2061 -19.3594c-12.5312 0 -16.5137 -4.26074 -16.5137 -9.6748c0 -5.8291 6.24121 -8.74414 18.6377 -8.74414
c27.2354 0 34.1953 31.5605 34.1953 37.9277c0 14.5459 -11.0361 29.5615 -33.1094 45.0811v0.654297c12.1533 17.8906 18.2578 37.8574 18.2578 59.9004c0 4.51172 -0.255859 9.10938 -0.767578 13.7949c0 33.6045 5.10938 58.1045 15.459 73.6289
c6.76465 68.666 13.1143 67.6562 13.1143 85.3125c0 6.18359 -1.05664 14.4443 -11.1484 18.7783h-19.3906c-2.16211 -3.01367 -3.24219 -5.98535 -3.24219 -8.9043c0 -8.71484 8.63086 -9.84766 8.63086 -26.165c0 -3.86914 -6.4375 -67.7109 -14.4287 -67.7109
c-24.2168 -26.4805 -49.5938 -101.439 -49.7842 -102.125l-25.8105 61.4453c0.0849609 0.984375 0.126953 1.96191 0.126953 2.93359c0 8.81738 -3.48438 17.082 -10.4766 24.8408l-38.7803 114.375c-6.24707 1.10449 -11.9512 1.65332 -17.1074 1.65332
c-6.92871 0 -12.8682 -0.991211 -17.8066 -2.96289c0 -22.6357 21.1514 -12.0215 28.4297 -27.7754c9.04004 -33.1787 18.5049 -70.4521 28.4297 -111.819c-3.16797 -25.4199 -4.75098 -48.6406 -4.75098 -69.7148c0 -4.64062 0.0771484 -9.17773 0.230469 -13.6104
c-27.1523 13.79 -59.4141 23.0264 -96.8838 27.7754c6.21777 9.82422 9.31934 18.25 9.31934 25.3223c0 2.24121 -0.311523 4.34668 -0.93457 6.31738l18.7354 157.675c0 5.60059 -10.3838 8.61426 -31.0508 9.04004c-3.43848 0 -5.10938 -2.3252 -5.10938 -7.0752
c0 -7.33691 5.79785 -12.2822 17.4248 -14.8701zM472.278 178.584c0 -38.9619 -47.1055 -43.333 -68.2441 -43.333c-30.3516 0 -42.1602 13.6807 -46.7197 25.2529c24.5645 3.86426 40.2861 9.30176 47.1641 16.1797c8.7666 -4.08691 16.1406 -6.13184 22.1279 -6.13184
c18.4463 0 18.5859 19.8721 18.5859 20.1455c0 19.3506 -24.3828 29.4658 -24.3828 44.4121c0 3.69531 2.38184 8.57227 7.36133 8.57227c6.82324 0 44.1074 -21.3301 44.1074 -65.0977zM406.334 236.376c0 -10.5254 27.7998 -27.7969 27.7998 -46.1611
c0 -7.97168 -8.09473 -9.74023 -11.2178 -9.74023c-10.332 0 -16.001 12.1562 -20.7959 12.1562c-1.46777 0 -2.19922 -1.46973 -2.19922 -4.41602c0 -0.389648 0.0126953 -0.805664 0.0380859 -1.24707c-12.4795 -9.03906 -28.6592 -14.1816 -48.4756 -15.459
c-2.16113 2.58789 -4.78125 6.02637 -7.79492 10.3506c3.39844 -1.25098 6.72949 -1.88086 9.98828 -1.88086c12.6348 0 18.8555 9.83301 32.0674 10.9199v4.52051c-18.7275 -3.08398 -23.7676 -10.1318 -33.7197 -10.1318c-6.33203 0 -15.5576 0 -32.2461 37.251
c7.35938 2.85742 11.0391 6.12598 11.0391 9.75098c0 0.199219 -0.0107422 0.398438 -0.0332031 0.599609c12.0078 1.31738 16.7715 4.48438 16.7715 6.60449c0 6.4375 -12.1309 4.53223 -12.1309 14.2559c0 7.6543 4.9873 11.4932 14.9355 11.4932
c4.49121 0 6.48828 -0.655273 10.2441 -0.655273c13.3018 0 19.9648 8.60645 19.9648 25.8164c-0.419922 15.2988 -11.8447 22.9326 -34.2451 22.9326c-0.0185547 0 -1.93359 -0.00976562 -1.95312 -0.00976562c-9.94238 0 -17.4951 1.50098 -22.9541 4.2627
l25.3506 51.4219c10.415 -5.4043 23.9424 -9.66211 40.876 -12.708c0.597656 1.39258 0.896484 2.75098 0.896484 4.07617c0 4.41211 -3.3125 8.45215 -9.93652 12.1045l3.20996 28.4297c-1.6377 7.13965 -5.56738 12.2168 -11.8564 15.1973l33.8672 68.7822
l-15.5254 9.04004l-36.6836 -74.1533c-8.05762 1.01562 -16.9014 2.42383 -26.5303 4.19238c8.67969 23.418 24.9248 73.498 48.999 151.386l60.7246 -13.5605c3.74609 -162.657 39.0674 -189.506 39.0674 -229.73c0 -12.0508 -4.50879 -18.1885 -13.5205 -18.4082
c-17.457 -0.425781 -29.2148 -0.982422 -35.2422 -1.6377c-5.62695 -0.612305 -8.42676 -15.957 -8.42676 -46.0361c0 -2.13672 0.0136719 -4.34668 0.0419922 -6.63086c-4.56543 -12.4863 -10.3945 -16.8311 -10.3945 -22.9775zM423.116 183.8
c5.88086 0 6.52832 4.81445 6.52832 6.93555c0 12.9688 -20.252 32.5684 -28.1611 32.5684c-2.30371 0 -6.29883 -1.96289 -6.29883 -5.53125c0 -5.04883 5.39355 -7.9248 7.3291 -8.79395c-0.535156 -0.929688 -0.802734 -2.00293 -0.802734 -3.2207
c0 -6.04102 8.93164 -21.958 21.4053 -21.958zM352.71 188.765c5.81055 0 12.4814 3.07812 20.0635 9.20898l10.3506 0.655273v5.83008l-11.0059 -2.62109c-5.60059 2.375 -10.9805 3.5625 -16.1426 3.5625c-5.16309 0 -10.1084 -1.1875 -14.8418 -3.5625l-3.20996 0.655273
v-5.1748c8.7666 -7.95508 9.42676 -8.55371 14.7861 -8.55371zM420.856 190.604c-9.96973 0 -14.8018 14.2988 -14.8018 14.8174c0 0.665039 0.334961 0.998047 0.998047 0.998047c1.05762 0 2.14453 -0.75 3.07031 -0.75c0.424805 0 0.636719 0.182617 0.636719 0.545898
c0 1.71484 -4.17676 5.82129 -4.17676 7.36914c0 0.27832 0.157227 0.416992 0.472656 0.416992c4.20801 0 16.5742 -12.6885 16.5742 -20.8574c0 -2.29395 -1.74902 -2.54004 -2.77344 -2.54004zM350.829 193.454c-3.86523 0.850586 -6.05957 2.12793 -6.48535 3.86426
c1.73633 1.27734 3.89746 2.42383 6.48535 3.27539c-0.868164 -1.29395 -1.30176 -2.53906 -1.30176 -3.72949c0 -1.19141 0.433594 -2.3291 1.30176 -3.41016zM359.214 194.108l9.04004 5.83008c-3.43945 0.851562 -6.91113 1.24512 -10.3506 1.24512
c1.55859 -1.0459 2.34473 -2.30469 2.34473 -3.79883c0 -0.987305 -0.34375 -2.07715 -1.03418 -3.27637zM401.059 220.546c1.27148 0 3.4707 -1.64258 3.4707 -3.06641c0 -1.10645 -1.11426 -2.20898 -3.32617 -3.3252
c-1.81543 0.895508 -2.71094 1.96973 -2.71094 3.19727c0 1.13086 1.0127 3.19434 2.56641 3.19434zM339.676 220.869c0.963867 0 1.56152 3.05273 1.56152 3.99121c0 2.95898 -3.11914 4.33398 -4.70703 4.33398c-3.67871 0 -5.26465 -4.76953 -8.10645 -4.76953
c-0.556641 0 -1.05859 0.222656 -1.50488 0.667969c-0.212891 -0.637695 -0.319336 -1.19434 -0.319336 -1.67383c0 -1.27344 0.858398 -2.19043 2.21875 -2.19043c3.20996 0 4.92188 5.29297 7.50391 5.29297c0.180664 0 2.19141 -0.0654297 2.19141 -3.00098
c0 -2.5127 0.952148 -2.65137 1.16211 -2.65137zM329.375 236.358c0.922852 0 13.9883 1.10059 13.9883 2.09277c0 0.0898438 -0.0878906 0.179688 -0.263672 0.267578h-15.5254c-0.966797 0 -1.46484 -0.262695 -1.46484 -0.759766
c0 -0.540039 0.369141 -1.60059 3.26562 -1.60059zM331.439 245.138c4.30078 0 9.70312 -3.21777 11.0049 -4.51953c-14.3799 2.17969 -14.3799 2.17969 -14.3799 3.49707c0 0.924805 2.375 1.02246 3.375 1.02246zM721.072 377.658
c45.1504 0.586914 64.0498 7.27637 79.46 46.9688l30.7881 -19.7178c-10.7109 -15.3945 -19.1279 -25.3516 -24.958 -29.2168c7.33691 -8.61426 11.0049 -17.4893 11.0049 -26.5293c0 -15.9512 -6.68164 -36.6182 -20.0449 -62.0352v28.4297
c0 17.2285 -6.45215 29.3467 -19.3896 36.2256c-5.17578 -1.73633 -10.0557 -2.62012 -14.8047 -2.62012c-23.5244 0 -32.4844 22.665 -77.5596 22.665v1.89941c0.425781 2.58789 12.249 3.93066 35.5039 3.93066zM798 306l3.25293 -2.69141
c6.99023 17.251 10.4785 31.3457 10.4785 42.2842c0 10.6387 -3.30078 18.293 -9.88965 22.96l-3.86426 -3.20996c5.60059 -6.02637 8.38477 -13.3301 8.38477 -21.9443c0 -9.04004 -2.33594 -20.5957 -8.3623 -37.3984zM311.459 338.616
c0.131836 24.041 1.24512 41.8262 3.21094 54.1738c8.36719 -4.20996 13.5029 -9.22559 17.1621 -13.0352zM767.647 353.748h10.2852v2.55469h-6.41992c-4.25977 0 -11.7734 -0.734375 -14.123 -0.734375c-4.88867 0 -9.02441 1.30664 -12.4072 3.94434l-1.89941 -2.55469
c2.88867 -2.88867 7.49512 -4.32227 13.8408 -4.32227c2.57715 0 5.38379 0.18457 10.7236 1.1123zM216.803 389.253c4.89648 -0.510742 9.7334 -0.767578 14.5117 -0.767578c31.7393 0 40.6943 9.86035 60.2861 9.86035c1.52637 0 3.03613 -0.0615234 4.53027 -0.183594
c-1.80176 -9.76074 -3.20996 -21.6826 -4.12695 -36.0293c-0.700195 -5.27539 -3.85449 -6.13574 -6.19727 -6.13574c-14.9678 0 -30.3125 23.6436 -69.0039 33.2559zM752.203 370.58c-5.27539 0 -8.08105 -1.75293 -8.46484 -5.2373
c1.73535 -5.1748 5.1084 -7.72949 10.2842 -7.72949c15.9502 0 23.9102 1.50684 23.9102 4.51953c-9.57227 4.37207 -20.7734 8.44727 -25.7295 8.44727zM755.625 361.122c-3.68164 0 -5.73145 1.18945 -6.12207 3.56543c0.580078 0.865234 1.78613 1.29785 3.61816 1.29785
c3.64844 0 9.7793 -1.71777 18.3916 -5.16309c-3.76562 0.286133 -7.23633 0.439453 -10.4199 0.439453c-3.18457 0 -4.39453 -0.139648 -5.46777 -0.139648zM889.097 518.497c113.021 -16.5908 81.8291 -31.0498 122.76 -31.0498
c14.2148 0 28.6592 7.36914 43.2998 22.0107c22.4033 57.2852 39.8604 92.8555 52.3398 106.645c9.66895 4.46777 14.9238 73.9463 14.9238 74.708c0 8.64648 -2.125 17.1729 -6.47363 25.4512c10.8281 0 16.2031 -4.28906 16.2031 -12.8936
c0 -0.635742 -0.0292969 -1.29395 -0.0878906 -1.97656c-13.3652 -54.5557 -5.76758 -69.5635 -20.6348 -92.4297c-12.1133 -24.1406 -3.57227 -68.2217 -14.543 -104.024c-8.00195 -26.1201 -33.2285 -44.2998 -65.624 -44.2998c-35.917 0 -47.1475 10.5 -87.8691 10.5
c-37.1709 0 -68.8672 -6.05762 -104.472 -55.5508l-33.0146 25.875c10.6582 36.9277 13.2168 57.5098 13.2168 76.7871c0 34.416 -17.0029 76.1455 -30.8389 110.104c0 0.977539 -22.5732 66.5127 -42.6445 87.9092l-8.38574 -2.62012
c-3.0127 0.851562 -4.51855 1.93262 -4.51855 3.20996s4.06055 2.65332 12.249 3.93066c6.87793 -0.425781 12.9697 -7.33691 18.1455 -20.7002l29.6748 -66.5547c6.1875 0 16.0127 -64.8389 42.0547 -89.8096c3.44531 -7.1748 5.16309 -12.8389 5.16309 -16.9639
c0 -8.96094 -11.9678 -7.19629 -21.998 -30.8564l6.48535 -1.96484c0 6.02637 13.3301 17.457 40.0244 34.2598c21.1592 20.3066 31.7529 49.0244 31.7529 86.1211c0 1.43555 -0.0166016 2.88281 -0.0478516 4.34375c5.1748 3.86523 10.5137 35.0781 16.1152 93.6738
l-18.0811 5.17578v1.96484c14.2295 0 21.373 -0.989258 21.373 -3.03027c0 -13.7461 -19.1699 -157.578 -19.4072 -159.164c0.290039 -1.36621 0.43457 -2.77734 0.43457 -4.2334c0 -18.7344 -23.6895 -36.3457 -23.6895 -49.416
c0 -3.86523 2.55469 -7.92676 7.72949 -12.25l5.17578 3.86426c-2.5625 2.01855 -3.8457 4.57617 -3.8457 7.67773c0 4.19434 2.34766 9.38281 7.05469 15.5771zM187.979 477.163c10.334 12.1084 15.4912 39.0107 15.4912 80.7168
c0 19.0977 -1.08203 41.2998 -3.24219 66.6074l139.596 -41.4004l-124.07 -105.924h-27.7744zM1004.79 583.689c0 10.9258 -10.749 52.5186 -32.3066 124.777c-5.95996 4.97949 -12.2666 4.10059 -24.5654 9.04004v2.62012l8.38477 0.655273
c10.3506 0 15.7549 -1.73633 16.1807 -5.1748c22.8291 -75.3984 36.0283 -114.735 39.6963 -117.978c3.28418 -2.90332 4.91504 -6.54102 4.91504 -10.9844c0 -1.06445 -0.0820312 -1.53125 -0.0820312 -1.97852c0 -5.91504 8.87988 -30.1533 26.5449 -72.6553
c-9.46582 -10.3496 -23.3203 -15.459 -41.4004 -15.459c-0.208984 6.77832 -0.313477 13.6309 -0.313477 20.5576c0 35.2881 2.94629 65.9121 2.94629 66.5791zM358.828 688.888c22.9648 0 43.5508 -5.30859 61.7656 -15.9258
c14.5742 -18.7607 21.877 -39.7725 21.877 -63.0479c0 -10.4111 -1.46094 -21.2744 -4.38672 -32.5918l-158.984 41.335c-62.4609 32.7529 -95.6406 56.2041 -99.5049 70.4199c23.5234 -10.6172 47.8594 -15.9258 73.0156 -15.9258
c45.8428 0 63.583 15.7363 106.218 15.7363z" />
</svg>
