<?xml version="1.0" standalone="no"?>
<!DOCTYPE svg PUBLIC "-//W3C//DTD SVG 1.1//EN" "http://www.w3.org/Graphics/SVG/1.1/DTD/svg11.dtd" >
<svg xmlns="http://www.w3.org/2000/svg" xmlns:xlink="http://www.w3.org/1999/xlink" version="1.1" viewBox="-10 0 1490 1000">
   <path fill="currentColor"
d="M511.421 41.1426c37.6475 0 95.2588 9.63379 95.2588 68.6055c0 15.4404 -3.61133 80.6123 -63.3623 102.047l0.833984 40.2686c38.9346 0 67.7393 11.2139 86.373 33.6826c67.9697 80.8564 93.751 159.436 93.751 172.56c0 40.9766 -4.89648 90.1182 -14.7979 147.422
c2.75195 26.3047 4.08496 47.3975 4.08496 63.2793c19.2178 9.80664 37.9492 14.709 56.1934 14.709c116.357 0 222.253 -249.317 225.271 -250.818c-11.6396 -31.917 -24.7715 -55.8594 -70.1162 -55.8594l-57.5264 -2.41699
c-0.456055 0.0214844 -0.90332 0.0322266 -1.34082 0.0322266c-10.6123 0 -15.918 -6.30762 -15.918 -18.958c0 -7.12891 5.75293 -10.6719 17.2588 -10.6719c49.0166 0 53.5801 -26.6963 90.3174 -26.6963c5.98633 0 12.3418 0.672852 19.0664 2.01855
c10.4209 -8.75391 15.5908 -20.3428 15.5908 -34.5996v-59.1934l12.3389 -2.41895c25.7617 41.6865 38.6846 76.2031 38.6846 103.632c0 9.87891 -3.33398 20.8008 -9.9209 32.8486c3.87695 3.87598 12.9229 15.0488 25.5117 31.2637
c32.2803 40.9502 65.5059 75.626 130.489 75.626c48.498 0 89.9609 -12.123 124.381 -12.123c25.0137 0 43.1143 5.44238 54.3564 16.2852c21.4951 -14.3291 32.2588 -28.334 32.2588 -41.9746c0 -22.8184 -17.5605 -24.6406 -23.1709 -24.6406
c-15.9404 0 -21.0166 -5.41504 -21.0166 -12.3125c0 -7.41895 7.94238 -11.1299 23.7197 -11.1299c34.6572 0 43.5215 40.1602 43.5215 48.2715c0 18.5137 -14.0469 37.624 -42.1396 57.376v0.833984c15.4688 22.7695 23.2383 48.1807 23.2383 76.2354
c0 5.74219 -0.326172 11.5947 -0.977539 17.5586c0 42.7695 6.50293 73.9512 19.6758 93.71c8.6748 88.0771 16.6904 85.7061 16.6904 108.576c0 7.8584 -1.33594 18.3838 -14.1885 23.9023h-24.6787c-2.75195 -3.83496 -4.12695 -7.61816 -4.12695 -11.334
c0 -11.0889 10.9834 -12.5322 10.9834 -33.2988c0 -4.9248 -8.19238 -86.1777 -18.3623 -86.1777c-30.8174 -33.6982 -63.1201 -129.106 -63.3623 -129.978l-32.8486 78.2031c0.107422 1.25293 0.161133 2.49707 0.161133 3.7334
c0 11.2217 -4.43457 21.7412 -13.334 31.6162l-49.3564 145.567c-7.95117 1.40527 -15.2119 2.10449 -21.7754 2.10449c-8.81738 0 -16.377 -1.2627 -22.6621 -3.77148c0 -28.8076 26.9219 -15.3008 36.1836 -35.3496c11.5059 -42.2275 23.5527 -89.667 36.1836 -142.316
c-4.03125 -32.3516 -6.0459 -61.9033 -6.0459 -88.7246c0 -5.90723 0.0976562 -11.6816 0.292969 -17.3252c-34.5576 17.5508 -75.6182 29.3057 -123.307 35.3506c7.91309 12.5029 11.8604 23.2266 11.8604 32.2266c0 2.85352 -0.396484 5.5332 -1.18945 8.04199
l23.8447 200.677c0 7.12793 -13.2148 10.9629 -39.5186 11.5049c-4.37695 0 -6.50293 -2.95898 -6.50293 -9.00391c0 -9.33789 7.37891 -15.6318 22.1768 -18.9258c-14.7695 -141.438 -23.3857 -86.5732 -23.3857 -115.128c0 -3.53516 0.650391 -7.37402 1.95898 -11.5146
c-6.41797 -77.9941 -48.2559 -91.8857 -49.2725 -92.126c-2.20898 15.3408 -6.58594 23.8867 -13.1729 25.5127c-13.1729 15.8818 -25.8037 41.3516 -37.8506 76.4521c0 15.3398 -4.96094 28.2627 -14.8408 38.6836c-23.0107 49.3574 -36.7256 81.9971 -41.1025 97.8799
c-8.21191 5.50195 -13.6729 8.16992 -16.4238 8.16992h-11.5049c-15.3584 -2.13574 -23.0381 -4.97461 -23.0381 -8.62695c0 -0.125 0.00878906 -0.25 0.0263672 -0.376953c0 -14.2559 17.9277 -15.8867 23.8457 -16.4248
c0.119141 0.0693359 0.25 0.103516 0.391602 0.103516c4.39258 0 19.3115 -33.2549 44.7949 -99.6494c0.541992 -11.5049 4.66895 -21.3848 12.3398 -29.5977c22.041 -56.9756 25.5117 -73.6729 25.5117 -106.966c0 -31.0195 -10.7256 -71.9229 -16.2578 -90.958
c-79.6318 162.347 -156.537 247.03 -230.332 247.03c-21.5371 0 -44.333 -5.41992 -68.3906 -16.2568c-4.95215 4.03027 -12.8438 6.0459 -23.6748 6.0459c-2.38672 0 -4.91602 -0.0986328 -7.58887 -0.293945c-1.99805 14.7998 -6.91699 18.5156 -11.3535 18.5156
c-5.60254 0 -9.22363 -9.17285 -10.8242 -27.5195v-5.75293c-7.12793 0.541992 -11.2549 18.6338 -12.3379 54.2754h-18.0928c0.541992 -51.5234 11.1719 -77.5781 32.0146 -78.1201c2.20996 -13.1719 7.9209 -26.6367 17.2588 -40.3506
c0 -65.7812 1.70898 -118.64 5.00195 -158.657c-32.3486 -46.0635 -54.0664 -80.6211 -65.0303 -103.632c-25.7617 69.0732 -39.1846 151.028 -40.2686 245.864c8.91797 21.2471 13.377 41.998 13.377 62.2471c0 22.0615 -5.29297 43.5283 -15.8779 64.3945
c7.97168 -6.33984 15.1084 -9.50586 21.4102 -9.50586c30.3057 0 18.7168 62.6982 65.4463 62.6982c9.86426 0 13.9717 -2.7168 24.3125 -2.7168c19.8447 0 35.7012 11.3936 47.5713 34.2305h-685.068c3.61328 -12.9219 11.3711 -19.3311 23.2744 -19.3311
c0.0742188 0 5.67383 0.237305 7.43359 0.237305c28.4766 0 35.0029 -11.9727 77.0088 -19.5078c-0.134766 -2.63965 -0.202148 -5.21484 -0.202148 -7.72559c0 -38.6973 15.9873 -62.1719 47.8906 -70.3936c-24.7412 -203.128 -24.7412 -203.128 -24.7412 -207.101
c0 -29.2295 20.0879 -44.1162 60.1748 -44.5996c16.4658 0 35.0166 9.58789 55.8594 28.7637l142.315 129.977c-26.7627 -93.752 -43.7285 -149.61 -51.9404 -171.997c-25.377 1.88867 -48.3799 2.83398 -69 2.83398c-70.4268 0 -113.044 -11.0283 -127.425 -33.1807
c24.1367 -43.3115 81.6631 -82.7471 172.664 -118.389c2.66797 -2.66797 6.37793 -5.00195 10.5049 -7.16992l-72.9512 -147.485l21.3438 -9.83789l73.7842 149.653c16.9248 -3.79297 39.1016 -5.75293 66.8643 -5.75293l-4.08496 -26.3457
c-4.16504 1.23047 -10.0508 1.86426 -17.6553 1.86426c-2.44238 0 -5.06152 -0.0654297 -7.85742 -0.197266c-0.570312 0.0283203 -1.125 0.0419922 -1.66602 0.0419922c-9.85059 0 -14.7578 -4.68262 -14.7578 -14.0479c0 -20.1904 -8.22461 -16.1738 -8.22461 -20.9678
c0 -2.75879 4.93066 -5.03223 4.93066 -6.14551c0 -0.0888672 -0.0683594 -0.132812 -0.205078 -0.132812c-0.145508 0 -0.369141 0.0498047 -0.669922 0.150391c-5.21582 -0.858398 -5.86426 -3.66211 -5.86426 -5.00293c0 -1.89453 1.44434 -3.7666 4.28027 -5.66895
c-8.80273 -8.80273 -15.1729 -4.87305 -15.1729 -11.999c0 -10.9395 21.7314 -42.9141 30.7637 -53.7812c21.3115 -70.9473 59.9922 -74.4414 94.7461 -74.4414zM590.173 111.415c0 -49.5879 -59.9551 -55.1514 -86.8574 -55.1514
c-38.6357 0 -53.6602 17.4209 -59.4609 32.1406c31.2646 4.91895 51.2744 11.8389 60.0273 20.5928c11.1572 -5.20117 20.543 -7.80469 28.1631 -7.80469c23.4766 0 23.6553 25.291 23.6553 25.6406c0 24.626 -31.0332 37.499 -31.0332 56.5234
c0 4.70215 3.03027 10.9111 9.36816 10.9111c8.68652 0 56.1377 -27.1494 56.1377 -82.8525zM506.244 184.968c0 -13.3916 35.3809 -35.3779 35.3809 -58.749c0 -10.1455 -10.3018 -12.3965 -14.2764 -12.3965c-13.1514 0 -20.3662 15.4717 -26.4688 15.4717
c-1.86816 0 -2.7998 -1.87109 -2.7998 -5.62109c0 -0.496094 0.0166016 -1.02539 0.0488281 -1.58691c-15.8818 -11.5049 -36.4746 -18.0498 -61.6953 -19.6748c-2.75098 3.29297 -6.08496 7.66992 -9.9209 13.1729c4.3252 -1.5918 8.56543 -2.39355 12.7119 -2.39355
c16.082 0 23.998 12.5146 40.8135 13.8984v5.75293c-23.8467 -3.9248 -30.2393 -12.8945 -42.915 -12.8945c-8.06152 0 -19.8008 0 -41.041 47.4102c9.36719 3.63672 14.0488 7.79688 14.0488 12.4102c0 0.25293 -0.0136719 0.506836 -0.0419922 0.762695
c15.2812 1.67676 21.3457 5.70605 21.3457 8.40625c0 2.94531 -4.90625 6.96582 -14.7598 12.1035c-0.453125 2.18652 -0.679688 4.2002 -0.679688 6.04102c0 9.74023 6.34668 14.6279 19.0088 14.6279c5.71582 0 8.25684 -0.833984 13.0371 -0.833984
c16.9307 0 25.4102 10.9512 25.4102 32.8564c-0.53418 19.4717 -15.0742 29.1875 -43.583 29.1875c-0.0234375 0 -2.46582 -0.0126953 -2.49121 -0.0126953c-12.6514 0 -22.2627 1.91016 -29.21 5.4248l32.2646 65.4463c13.2559 -6.87793 30.4727 -12.2969 52.0244 -16.1738
c0.760742 1.77148 1.14062 3.50098 1.14062 5.1875c0 5.61621 -4.21484 10.7578 -12.6465 15.4053l4.08496 36.1836c-2.08398 9.08691 -7.08594 15.5488 -15.0898 19.3428l43.1035 87.54l-19.7598 11.5059l-46.6875 -94.377
c-10.2559 1.29199 -21.5107 3.08398 -33.7666 5.33594c11.0469 29.8047 31.7236 93.543 62.3633 192.672l77.2852 -17.2578c4.76758 -207.029 49.7227 -241.179 49.7227 -292.385c0 -15.3379 -5.73828 -23.1484 -17.208 -23.4287
c-22.2178 -0.541992 -37.1826 -1.25 -44.8535 -2.08398c-7.16113 -0.77832 -10.7256 -20.3096 -10.7256 -58.5918c0 -2.71875 0.0175781 -5.53223 0.0537109 -8.43945c-5.80273 -15.876 -13.2285 -21.4248 -13.2285 -29.2451zM527.602 118.054
c7.4834 0 8.31055 6.12305 8.31055 8.82812c0 16.5029 -25.7734 41.4492 -35.8418 41.4492c-2.93164 0 -8.01855 -2.49902 -8.01855 -7.03906c0 -6.42676 6.87207 -10.0889 9.3291 -11.1924c-0.681641 -1.18359 -1.02246 -2.5498 -1.02246 -4.09961
c0 -7.69141 11.3711 -27.9463 27.2432 -27.9463zM437.995 124.373c7.39453 0 15.8848 3.91797 25.5352 11.7197l13.1729 0.833984v7.4209l-14.0068 -3.33594c-7.12793 3.02246 -13.9756 4.5332 -20.5459 4.5332c-6.57129 0 -12.8652 -1.51074 -18.8896 -4.5332
l-4.08496 0.833984v-6.58691c11.1602 -10.126 11.998 -10.8857 18.8193 -10.8857zM524.727 126.714c-12.6924 0 -18.8389 18.2021 -18.8389 18.8574c0 0.84668 0.426758 1.26953 1.26953 1.26953c1.3457 0 2.72949 -0.954102 3.9082 -0.954102
c0.540039 0 0.810547 0.232422 0.810547 0.696289c0 2.18262 -5.31543 7.40918 -5.31543 9.37891c0 0.354492 0.200195 0.53125 0.601562 0.53125c5.34863 0 21.0938 -16.1445 21.0938 -26.5479c0 -2.91797 -2.22266 -3.23145 -3.5293 -3.23145zM435.601 130.341
c-4.91895 1.08301 -7.71191 2.70898 -8.25391 4.91797c2.20898 1.62598 4.95996 3.08496 8.25391 4.16895c-1.10449 -1.64648 -1.65723 -3.23047 -1.65723 -4.74707c0 -1.51562 0.552734 -2.96387 1.65723 -4.33984zM446.272 131.175
c0.878906 1.52539 1.31543 2.91309 1.31543 4.16895c0 1.90137 -1 3.50391 -2.9834 4.83496c4.37695 0 8.7959 -0.5 13.1729 -1.58398zM499.53 164.821c1.61816 0 4.41602 -2.08984 4.41602 -3.90234c0 -1.40918 -1.41797 -2.81152 -4.2334 -4.23242
c-2.31055 1.13965 -3.45117 2.50684 -3.45117 4.06934c0 1.44238 1.29199 4.06543 3.26855 4.06543zM421.405 165.233c1.22852 0 1.98828 3.88672 1.98828 5.08008c0 3.76758 -3.97461 5.51465 -5.99121 5.51465c-4.68066 0 -6.7002 -6.06934 -10.3164 -6.06934
c-0.708984 0 -1.34766 0.282227 -1.91602 0.850586c-0.271484 -0.8125 -0.40625 -1.52148 -0.40625 -2.13184c0 -1.62598 1.09863 -2.78711 2.82422 -2.78711c4.08398 0 6.26465 6.7373 9.5498 6.7373c0.229492 0 2.78906 -0.0839844 2.78906 -3.81934
c0 -3.20117 1.21387 -3.375 1.47852 -3.375zM408.294 184.946c-3.6875 0 -4.15527 1.35156 -4.15527 2.03711c0 0.632812 0.633789 0.966797 1.86523 0.966797h19.7588c0.223633 -0.112305 0.335938 -0.225586 0.335938 -0.34082
c0 -1.26074 -16.623 -2.66309 -17.8047 -2.66309zM410.923 196.121c5.47754 0 12.3545 -4.10156 14.0059 -5.75293c-18.3018 2.77344 -18.3018 2.77344 -18.3018 4.4502c0 1.18066 3.04004 1.30273 4.2959 1.30273zM1003.86 249.562v36.1836
c0 21.9268 -8.21191 37.3506 -24.6777 46.1045c-6.58594 -2.20898 -12.7979 -3.33496 -18.8428 -3.33496c-12.6309 0 -26.8867 5.83594 -42.7695 17.3418c-18.6328 7.66992 -37.3086 11.5059 -55.9424 11.5059v2.41699c0.541992 3.29395 15.5908 5.00293 45.1875 5.00293
c41.6865 0.541992 67.8652 7.50293 78.5371 20.9268c9.9209 12.4629 17.3828 25.4277 22.5938 38.8506l39.1846 -25.0947c-13.6318 -19.5928 -24.3447 -32.2656 -31.7646 -37.1846c9.33789 -10.9639 14.0059 -22.2598 14.0059 -33.7656
c0 -20.3008 -8.50391 -46.6045 -25.5117 -78.9531zM1004 272l4.86719 -1.84473c8.89648 21.9561 13.3369 39.8955 13.3369 53.8174c0 13.541 -4.20117 23.2812 -12.5869 29.2217l-4.91895 -4.08594c7.12793 -7.66895 10.6719 -16.9658 10.6719 -27.9297
c0 -11.5049 -3.69922 -27.7939 -11.3701 -49.1787zM385.494 315.094c0.166992 30.5967 1.58398 53.2324 4.08496 68.9482c10.6523 -5.35938 17.1875 -11.7432 21.8438 -16.5908zM966.097 334.352h13.0898v3.25195h-8.16992c-5.4248 0 -14.9863 -0.935547 -17.9756 -0.935547
c-6.22168 0 -11.4854 1.66406 -15.79 5.02051l-2.41797 -3.25098c3.67773 -3.67773 9.53906 -5.50098 17.6143 -5.50098c3.27832 0 6.84473 0.233398 13.6494 1.41504zM265.021 379.54c6.23242 -0.650391 12.3887 -0.976562 18.4707 -0.976562
c40.3936 0 51.7969 12.5488 76.7236 12.5488c1.94434 0 3.86719 -0.078125 5.76953 -0.234375c-2.29395 -12.4219 -4.08594 -27.5957 -5.25293 -45.8545c-0.893555 -6.72266 -4.91699 -7.80859 -7.8877 -7.80859c-19.0469 0 -38.5869 30.0938 -87.8232 42.3252z
M946.44 355.775c-6.71387 0 -10.2852 -2.23242 -10.7734 -6.66699c2.20898 -6.58594 6.50195 -9.83789 13.0889 -9.83789c20.3008 0 30.4307 1.91797 30.4307 5.75293c-12.1797 5.5625 -26.4424 10.752 -32.7461 10.752zM950.795 343.737
c-4.68652 0 -7.29395 1.5127 -7.79199 4.53809c0.738281 1.10059 2.27344 1.65137 4.60449 1.65137c4.64355 0 12.4463 -2.18555 23.4092 -6.57129c-4.79492 0.364258 -9.21191 0.55957 -13.2646 0.55957c-4.05078 0 -5.59082 -0.177734 -6.95703 -0.177734z
M1058.21 554.541c0 -11.4023 -15.2295 -9.15918 -27.9971 -39.2715l8.25488 -2.50098c0 7.66992 16.9658 22.2188 50.9395 43.6035c26.9287 25.8457 40.4131 62.3936 40.4131 109.608c0 1.82617 -0.0205078 3.66992 -0.0605469 5.52832
c6.58594 4.91895 13.3809 44.6455 20.5098 119.222l-23.0117 6.58691v2.50098c18.1094 0 27.2021 -1.25977 27.2021 -3.85645c0 -17.4941 -24.3984 -200.554 -24.7002 -202.572c0.368164 -1.73828 0.552734 -3.53418 0.552734 -5.38672
c0 -23.8467 -30.1504 -46.2578 -30.1504 -62.8955c0 -4.91895 3.25195 -10.0879 9.83789 -15.5908l6.58691 4.91895c-3.26074 2.56934 -4.89453 5.82422 -4.89453 9.77148c0 5.33789 2.98828 11.9414 8.97949 19.8252c55.9424 -8.21191 91.668 -16.8818 107.3 -25.9277
c15.6328 -9.0459 31.9316 -13.5898 48.9395 -13.5898c18.0918 0 36.4746 9.37891 55.1094 28.0127c28.5127 72.9092 50.7314 118.18 66.6133 135.73c12.3066 5.68457 18.9941 94.1133 18.9941 95.083c0 11.0049 -2.70312 21.8564 -8.23828 32.3926
c13.7812 0 20.6211 -5.45898 20.6211 -16.4102c0 -0.808594 -0.0380859 -1.64746 -0.112305 -2.51562c-17.0244 -69.5107 -7.33105 -88.5195 -26.2617 -117.638c-15.4141 -30.7197 -4.54688 -86.8232 -18.5088 -132.396
c-10.1963 -33.2852 -42.3467 -56.3818 -83.5117 -56.3818c-45.7217 0 -60.0186 13.3652 -111.848 13.3652c-47.2988 0 -87.6455 -7.70898 -132.96 -70.7021l-42.0186 32.9316c13.5703 47.0166 16.8213 73.2031 16.8213 97.7363c0 43.7959 -21.6465 96.9238 -39.249 140.124
c0 4.91895 -12.8389 35.3496 -38.6016 91.293c-2.20898 4.91895 -7.46094 11.8379 -15.6738 20.5928l-10.6719 -3.33594c-3.83398 1.08398 -5.75195 2.45996 -5.75195 4.08594s5.16895 3.37695 15.5908 5.00293c8.75293 -0.541992 16.5068 -9.33789 23.0928 -26.3457
l37.7686 -84.7061c4.37598 0 8.21191 -10.4219 11.5049 -31.2646c14.7988 -42.7705 28.8477 -70.4082 42.0195 -83.0391c4.38477 -9.13086 6.57031 -16.3398 6.57031 -21.5898zM228.337 491.425c13.1533 15.4111 19.7168 49.6514 19.7168 102.731
c0 24.3066 -1.37598 52.5635 -4.12598 84.7725l177.666 -52.6914l-157.906 -134.812h-35.3506zM1267.92 627.004c0 13.9072 -13.6807 66.8428 -41.1182 158.808c-7.58398 6.33789 -15.624 5.22363 -31.2646 11.5059v3.33496l10.6719 0.833984
c13.1729 0 20.0508 -2.20996 20.5928 -6.58691c29.0547 -95.9609 45.8545 -146.026 50.5234 -150.153c4.17969 -3.69434 6.25488 -8.32422 6.25488 -13.9795c0 -1.35547 -0.103516 -1.94922 -0.103516 -2.51855c0 -7.52832 11.2998 -38.3779 33.7842 -92.4697
c-12.0479 -13.1729 -29.6816 -19.6748 -52.6914 -19.6748c-0.266602 8.62891 -0.399414 17.3506 -0.399414 26.1689c0 44.9082 3.75 83.8828 3.75 84.7314zM445.781 760.893c29.2275 0 55.4287 -6.75586 78.6104 -20.2686
c18.5488 -23.877 27.8438 -50.6191 27.8438 -80.2412c0 -13.251 -1.86035 -27.0781 -5.58398 -41.4824l-202.344 52.6084c-79.4941 41.6855 -121.723 71.5332 -126.642 89.625c29.9385 -13.5127 60.9121 -20.2686 92.9287 -20.2686
c58.3457 0 80.9248 20.0273 135.187 20.0273z" />
</svg>
