<?xml version="1.0" standalone="no"?>
<!DOCTYPE svg PUBLIC "-//W3C//DTD SVG 1.1//EN" "http://www.w3.org/Graphics/SVG/1.1/DTD/svg11.dtd" >
<svg xmlns="http://www.w3.org/2000/svg" xmlns:xlink="http://www.w3.org/1999/xlink" version="1.1" viewBox="-10 0 961 1000">
   <path fill="currentColor"
d="M109.768 896.066c-36.4854 -11.0029 -69.7676 -42.7119 -69.7676 -90.3037c0 -6.52344 0 -8.98633 23.3916 -29.8174c17.1465 -7.92383 10.0664 -17.3369 48.874 -71.1387c-2.09082 -6.27344 -3.14355 -12.2871 -3.14355 -18.0273
c0 -11.541 1.99414 -22.1055 28.7754 -29.2168c8.64355 -22.1133 15.4746 -33.1455 20.3926 -33.1455c0.118164 0 0.235352 0.00683594 0.351562 0.0195312l14.1182 -10.752c2.76953 -9.39453 7.92871 -14.1191 15.6396 -14.1191
c12.708 -8.25391 45.833 -17.3232 99.377 -27.2607c17.8115 -4.72461 34.8086 -9.23145 51.1543 -13.4668l-10.5352 -27.1523h9.88379v-391.967c-2.60645 -1.52051 -4.56152 -3.80176 -5.75684 -7.05957l1.62988 -16.6172
c-5.29004 -1.30078 -7.87891 -3.53613 -7.87891 -6.62305c0 -0.779297 0.165039 -1.61328 0.493164 -2.5c4.07324 0 7.82031 0.325195 11.5127 0.651367v-114.038h14.1191v115.993c19.4316 4.25 18.3486 9.50781 27.4297 9.50781
c22.5537 0 43.5527 -16.4639 95.0801 -20.3691c30.3564 -21.5039 53.001 -36.166 67.8799 -43.877c11.75 -14.9502 28.1133 -22.4014 49.1348 -22.4014c0.740234 0 1.48535 0.00878906 2.2373 0.0273438v-9.88281c-2.58691 0.211914 -4.91602 0.316406 -6.99316 0.316406
c-8.94824 0 -12.8818 -1.52246 -12.8818 -7.81055c0 -9.23535 -2.97852 -7.72754 -2.97852 -9.9082c0 -0.74707 0.453125 -1.57715 1.34863 -2.47266c-1.66797 -0.833984 -2.66016 -2.42285 -2.66016 -3.14746c0 -0.870117 0.87793 -1.73926 2.66016 -2.60938
c-4.58887 -4.58887 -7.8125 -2.90625 -7.8125 -6.14844c0 -3.16602 8.84961 -19.7373 16.0674 -27.8457c10.2871 -34.3193 28.9219 -37.9277 46.9883 -37.9277c19.1709 0 48.293 5.76172 48.293 40.7695c0 19.3506 -6.07129 41.3486 -34.0264 51.7881v14.8789
c34.2119 0 52.4033 12.2188 54.6299 36.4932c10.293 39.0381 19.1133 77.4316 19.1133 110.295c0 14.5781 -1.12109 33.2754 -3.36523 56.0928c1.39355 14.2178 10.043 16.4482 10.043 30.7178c0 5.48926 -1.1416 12.084 -3.41797 19.7852
c-3.69922 0 -5.51562 -2.15039 -5.51562 -6.45215c0 -2.33105 0.511719 -3.79199 0.511719 -7.19922c0 -4.05859 -0.844727 -7.50195 -2.49023 -10.3516c-3.5957 7.19043 -5.34863 13.4375 -5.34863 18.7393c0 11.7021 6.85059 19.126 6.85059 23.1055
c0 1.57715 -0.62793 4.71484 -5.62988 4.71484c-5.42285 0 -12.4365 -18.3213 -12.4365 -28.8408c0 -0.661133 0.0185547 -1.31738 0.0566406 -1.9707c0 -12.7451 3.73828 -53.0967 3.73828 -53.6338c0 -18.3486 -6.98145 -32.9258 -6.98145 -54.0645
c0 -7.18262 0.789062 -14.0781 2.37402 -20.6768c-10.4805 -24.8164 -17.8662 -48.0049 -22.2646 -69.5088c-4.45703 28.8955 -6.70508 57.7021 -6.70508 86.5811c0 21.1904 7.62402 14.9912 7.62402 42.3975c0 9.72949 -1.43262 20.5332 -4.28613 32.4131l29.8672 209.505
c-1.68945 7.02148 -2.53418 13.6143 -2.53418 19.7803c0 17.8887 6.54004 22.9863 6.54004 31.1406c0 3.70605 -1.55273 6.36133 -4.65723 7.94531c76.623 9.44922 129.787 32.5283 159.111 69.5088c53.4893 67.3711 53.8867 97.9277 53.8867 145.452
c0 20.9814 -0.375 43.3223 -18.3789 43.3223c-9.54883 0 -14.3369 -11.4336 -14.3369 -34.3828c0 -5.30469 0.255859 -11.2246 0.767578 -17.7617c-8.85156 18.1914 -19.5488 33.668 -32.2568 46.375c-5.23926 63.6396 -10.4248 126.617 -34.7539 145.644
c-26.4082 5.59082 -45.8857 8.42871 -58.5195 8.42871c-7.19629 0 -21.6807 -0.739258 -32.6035 -15.0537c0 -18.7891 7.76562 -28.998 23.2422 -30.627c8.69043 -11.6279 13.0586 -28.2217 13.0586 -49.8037c0 -7.14355 -0.478516 -14.834 -1.4375 -23.0723h-17.4854
c-2.09863 11.5801 -16.8076 89.8447 -34.7549 110.997c-27.9512 11.0459 -48.2773 16.5459 -61.1172 16.5459c-10.2725 0 -22.4434 -3.19238 -30.7656 -15.6768c0 -18.1924 7.49414 -28.5098 22.374 -30.7363c0.216797 -0.560547 14.6699 -39.3164 14.6699 -58.3281
c0 -5.2168 -1.30957 -7.81445 -3.91797 -7.81445c-5.91699 0.151367 -11.5078 0.226562 -16.7705 0.226562c-32.5586 0 -52.6123 -2.88574 -60.2324 -8.58887c-6.7373 6 -10.0801 15.0938 -10.0801 27.2988c0 17.0674 7.02344 33.208 7.02344 59.5205
c0 5.43262 -0.356445 10.4512 -1.07129 15.0547c0.185547 0.816406 0.279297 1.60547 0.279297 2.36719c0 10.5859 -17.9482 15.8789 -53.7139 15.8789c-37.8027 0 -56.7051 -5.4375 -56.7051 -16.1582c0 -25.8076 15.7598 -31.4854 15.7598 -90.7119
c-8.49805 1.81934 -15.4902 2.7373 -20.9844 2.7373c-4.5127 0 -8.01465 -0.619141 -10.5127 -1.86816c6.67578 81.6172 10.0459 77.5049 10.0459 78.2939c0 10.9268 -12.0361 16.3555 -36.1084 16.3555c-9.55371 0 -57.5654 -0.836914 -57.5654 -17.6465
c0 -15.8389 8.55859 -25.0244 8.55859 -37.1338c0 -14.2295 -6.73535 -38.2803 -20.1797 -72.126c-6.2666 13.5303 -16.3105 20.2949 -30.167 20.2949c-1.99316 0 -4.06543 -0.139648 -6.2168 -0.419922c-11.2969 13.6582 -27.1738 20.4873 -47.6963 20.4873
c-5.89258 0 -12.7119 -0.760742 -12.8408 -0.760742c-9.98438 0 -32.8506 11.7979 -68.5977 35.6641c-14.3369 20.418 -36.7646 32.0938 -67.1201 34.8633zM665.439 -33.2324c0 -15.6504 -8.26562 -31.9062 -42.6094 -31.9062c-6.48926 0 -19.9111 0.532227 -27.041 14.793
c15.4766 3.3125 25.1426 7.22266 28.999 11.6211c5.01758 -2.40234 9.26855 -3.59961 12.7441 -3.59961c10.3545 0 11.1797 10.9268 11.1797 12.8887c0 12.7676 -15.1055 19.3457 -15.1055 29.2109c0 1.91895 1.14453 5.82227 4.81445 5.82227
c2.87305 0 27.0186 -8.25586 27.0186 -38.8301zM612.406 -30.4707v3.25879c-11.9473 -2.95215 -13.9756 -6.55762 -19.6992 -6.55762c-10.3242 0 -17.5166 17.1357 -20.0518 23.1738c4.34473 2.5957 6.34473 7.5957 6.62598 11.6211h10.752v4.12793h-9.12305
c-0.114258 0.987305 -0.170898 1.91309 -0.170898 2.77832c0 6.14453 2.88379 9.20508 8.7207 9.20508c2.89551 0 4.23535 -0.631836 6.7793 -0.631836c7.50488 0 11.5566 5.85742 12.04 17.6465c3.90332 4.95605 7.6123 7.42285 11.1387 7.42285
c3.93066 0 7.63379 -3.06445 11.126 -9.16113v-17.377c-3.02051 -9.21289 -5.95898 -11.4619 -5.95898 -15.1133c0 -6.95801 18.3633 -17.3975 18.3633 -29.0967c0 -4.78125 -4.74121 -6.5459 -7.20801 -6.5459c-6.09961 0 -9.51367 7.5127 -12.3389 7.5127
c-0.799805 0 -1.2041 -0.793945 -1.2041 -2.3877c0 -0.44043 0.03125 -0.941406 0.0927734 -1.50488c-7.71191 -6.08203 -17.5947 -9.66602 -29.7588 -10.752c-1.08594 1.62891 -2.76953 3.85547 -4.99609 6.625c2.10156 -0.947266 4.17285 -1.42188 6.19922 -1.42188
c7.61523 0 11.6514 7.17773 18.6719 7.17773zM579.281 -11.4639c1.61816 2.35352 2.31445 3.36621 3.69238 3.36621c0.625 0 0.962891 -0.320312 0.962891 -0.960938c0 -0.550781 -0.253906 -1.05664 -0.253906 -1.70703c0 -0.448242 0.149414 -0.698242 0.485352 -0.698242
c0.542969 0 0.869141 0.868164 0.869141 2.49805c0 1.87012 -1.67285 2.75586 -2.69336 2.75586c-0.0166016 0 -0.0166016 0 -4.42578 -2.17383c-0.37793 0 -0.756836 0.0966797 -1.13477 0.286133c-0.271484 -0.542969 -0.408203 -1.03125 -0.408203 -1.45312
c0 -1.37695 1.61523 -1.91309 2.90625 -1.91309zM639.62 -28.8203c0 7.03027 -12.3857 20.1934 -17.4414 20.1934c-1.58105 0 -4.17871 -1.45508 -4.17871 -3.78418c0 -3.43652 3.65723 -5.36914 4.29004 -5.67773
c-0.0966797 -0.291016 -0.145508 -0.619141 -0.145508 -0.982422c0 -3.12012 5.9248 -14.7148 13.1768 -14.7148c3.63086 0 4.29883 3.55957 4.29883 4.96582zM611.537 -24.7148c-15.9971 -1.83496 -8.11914 -7.00684 -18.3047 -7.00684
c-3.54395 0 -3.96289 0.408203 -9.06445 5.37793v3.36719l1.73828 -0.869141c3.04102 1.81934 6.31152 2.7373 9.83008 2.7373c2.88867 0 5.94336 -0.619141 9.17578 -1.86816l6.625 1.62891v-3.36719zM592.531 -29.6016
c-0.740234 1.10938 -1.12695 2.3457 -1.12695 3.72461c0 0.644531 0.0849609 1.32129 0.257812 2.03125c-1.62891 -1.08594 -3.04102 -1.95508 -4.12695 -2.49805c0.542969 -1.08594 2.22656 -2.17188 4.99609 -3.25781zM633.98 -29.7129
c-5.82812 0 -8.93848 8.92969 -8.93848 9.4043c0 0.50293 0.272461 0.751953 0.833008 0.751953c0.667969 0 1.23438 -0.307617 1.83594 -0.307617c0.404297 0 0.606445 0.157227 0.606445 0.47168c0 1.24023 -3.03516 4.22949 -3.03516 5.05176
c0 0.0830078 0.0419922 0.124023 0.125 0.124023c1.30859 0 10.2432 -7.64746 10.2432 -13.9648c0 -0.861328 -0.344727 -1.53125 -1.66992 -1.53125zM596.658 -27.9727l5.75586 3.25781c-2.76953 0.543945 -4.99609 0.869141 -6.625 0.869141
c1.27832 -0.623047 1.91211 -1.35449 1.91211 -2.17188c0 -0.606445 -0.348633 -1.26074 -1.04297 -1.95508zM663.861 70.583c0 -17.7168 -9.67578 -26.5488 -29.082 -26.5488c-4.84277 5.12305 -10.2041 7.69141 -16.0781 7.69141
c-5.52148 0 -11.4961 -2.27051 -17.916 -6.82227c-12.1641 1.08594 -22.373 5.53906 -30.6279 13.25c11.0244 34.2119 17.8662 75.8633 20.6357 125.009l62.124 -12.4902c-0.148438 -3.62695 -0.222656 -7.27539 -0.222656 -10.9473
c0 -47.2646 11.167 -72.916 11.167 -89.1416zM564.401 78.7891c-79.9883 50.1553 -104.24 59.5547 -163.548 59.5547c-7.34473 0 -14.9531 -0.229492 -22.8242 -0.688477c-9.01367 1.35742 -17.377 2.38867 -25.6309 3.36621v390.664h9.88281l-1.8457 5.10449
c1.94238 -0.97168 4.23926 -1.49902 6.91992 -1.49902c1.51465 0 3.15234 0.167969 4.91797 0.521484c9.7168 -6.11816 97.0781 -24.793 98.0732 -24.9795c1.08594 -4.23633 2.82422 -7.54883 5.43066 -9.77539c49.6885 -9.39453 74.5049 -17.5938 74.5049 -24.7627
l6.625 -30.7354c-4.39844 -1.08691 -19.332 -1.62988 -44.7461 -1.62988c13.2109 -60.1338 13.2109 -60.1338 66.251 -255.012c-3.3125 -53.001 -7.92871 -89.71 -14.0107 -110.129zM652.157 183.922l-61.3643 14.9883c-51.8232 197.574 -51.8232 197.574 -58.7568 231.77
c60.7119 0.542969 110.672 3.91016 149.88 9.99219l-25.6318 -201.251c3.27441 -11.7139 4.91309 -21.792 4.91309 -30.2314c0 -11.4365 -3.00977 -19.8623 -9.04004 -25.2676zM588.404 446.428l-16.6172 39.751l2.49805 11.6211
c0 1.90039 -0.43457 3.36719 -0.869141 4.8877c6.13672 0 12.5986 0.108398 19.0068 0.216797c0.705078 -3.47559 1.79199 -6.89648 3.36621 -10.1006c65.8232 -5.11523 72.876 -8.58008 72.876 -21.5049l-2.49805 -17.377
c-36.4375 -4.94141 -62.2861 -7.49414 -77.7627 -7.49414zM65.4785 815.804c0 14.0791 19.582 52.1367 55.9102 57.0205c12.707 -0.542969 28.1836 -12.9795 46.376 -37.2529c36.751 -22.335 61.8916 -33.542 75.4199 -33.542c3.43359 0 2.85547 0.594727 8.91699 0.594727
c12.8711 0 24.2324 -3.9209 34.0459 -11.7998c18.1572 -37.3066 19.5811 -77.7744 19.5811 -89.5195c0 -18.1104 -2.97461 -32.4014 -8.8291 -42.873c14.999 6.20312 22.4766 22.1182 22.4766 47.9238c0 41.7441 -11.3105 76.8398 -13.3535 82.8398
c0.341797 0.112305 0.700195 0.168945 1.07812 0.168945c9.71973 0 53.9141 -65.2656 53.9141 -130.28c0 -20.5547 -4.2041 -31.4834 -4.2041 -37.877c0 -0.767578 0.105469 -1.15039 0.316406 -1.15039c0.609375 0 14.0205 25.7939 14.0205 59.3291
c0 41.6191 -18.2539 79.8213 -21.2471 85.8076c34.7549 -38.665 55.0098 -68.749 60.8203 -90.2539c14.9463 -55.3135 11.1904 -83.2686 17.2227 -83.2686c3.8291 0 4.82422 15.126 4.82422 30.8447c0 40.2744 0 81.71 -46.4834 133.555
c28.7266 21.5039 56.042 32.7451 81.999 33.5596c14.3604 0.450195 21.541 12.0039 21.541 34.6699c0 18.3037 -4.68262 43.8525 -14.0469 76.6533c4.87988 -3.91797 9.17383 -5.86816 12.874 -5.86816c4.6582 0 8.37402 3.0918 11.1279 9.23535
c3.25 -6.23438 6.5 -9.35742 9.75098 -9.35742c3.375 0 6.75 3.36719 10.125 10.1172c1.55762 -6.22852 4.07422 -9.33691 7.56836 -9.33691c3.93848 0 9.11816 3.9502 15.5645 11.835c-6.02051 -41.7334 -9.01465 -72.2812 -9.01465 -91.6104
c0 -13.2119 0 -35.9199 29.7061 -35.9199c4.25391 0 38.6982 6.44727 59.374 6.44727c44.8789 0 145.22 -13.9277 147.476 -13.9277c9.16211 0 11.0674 16.5889 11.0674 30.3887c0 63.7666 -33.2666 76.7119 -37.3574 90.6123
c3.58887 -4.17676 6.9375 -6.2832 10.04 -6.2832c2.625 0 5.07227 1.50879 7.33789 4.54492c2.55859 -3.71094 5.62598 -5.55859 9.21777 -5.55859c3.34668 0 7.14844 1.60352 11.418 4.79883c3.29297 -7.3457 7.71875 -11.0264 13.2451 -11.0264
c2.76758 0 5.81152 0.922852 9.12793 2.77148c9.9375 -38.0664 16.0195 -80.3701 18.2461 -126.745c52.0781 -57.2051 52.46 -84.1094 52.46 -85.1094c0 -19.3945 -14.8799 -45.1406 -44.6406 -77.1514c-42.7168 -45.9482 -116.315 -62.7666 -257.728 -62.7666
c-54.9541 0 -54.9541 0 -207.984 21.3867v0.759766c3.7832 -0.248047 7.11914 -0.371094 10.0078 -0.371094c9.35449 0 14.0215 1.29395 14.0215 3.83789c0 5.02441 -8.25781 5.65625 -12.4082 5.65625c0.542969 3.85645 0.869141 8.0918 0.869141 12.4902
c-0.648438 1.31934 -1.95996 1.97559 -3.93164 1.97559c-2.97852 0 -7.46484 -1.49902 -13.4453 -4.47363c-0.146484 0.0175781 -13.165 1.74219 -14.1191 4.12695l-0.326172 -0.868164c-1.50098 0.420898 -134.465 42.0439 -148.25 48.0049
c-14.0645 6.08203 -30.5195 22.6992 -49.3086 49.7422c-3.85547 3.3125 -8.63379 7.22266 -14.4443 11.6211c-2.72168 2.05957 -4.08496 4.84668 -4.08496 8.36035c0 3.9873 1.75684 8.91211 5.2793 14.7734c-12.707 22.1016 -22.373 39.75 -28.998 53.001
c-6.625 13.25 -11.5674 20.418 -14.8799 21.5039l-21.5039 19.1152c-2.51758 4.50293 -3.77832 9.20801 -3.77832 14.1182zM242.27 663.318c-1.83203 10.4531 -11.1221 15.7246 -27.873 15.7246c-8.80371 0 -21.4268 -0.791992 -21.4268 -8.2832
c0 -8.54102 7.81445 -8.54102 10.6572 -8.54102c5.75977 0 9.37012 1.38965 14.4756 1.38965c6.27832 0 9.42773 -2.29297 9.42773 -6.80371c0 -4.00293 -2.32617 -13.3994 -10.9111 -13.3994c-5.31934 0 -11.043 5.27832 -17.3584 15.7861
c-3.85547 -1.08594 -5.86523 -4.34375 -5.86523 -9.88281c6.78809 -14.5 15.043 -21.8311 24.7627 -21.9395c18.2041 0 22.9766 21.3467 24.1113 35.9492zM164.104 689.582c1.69922 0 3.46289 0.0703125 5.29004 0.237305c0.748047 3.6582 1.12207 6.99805 1.12207 10.0215
c0 14.3105 -8.38867 21.4941 -25.1963 21.4941c-3.86719 0 -9.29883 -4.22168 -9.29883 -10.6211c0 -3.61719 1.37891 -21.1318 28.083 -21.1318zM160.271 701.44c-0.670898 -0.0410156 -1.31641 -0.0615234 -1.93848 -0.0615234
c-7.58887 0 -11.5703 3.06152 -12.0723 9.18457c0.333008 0.0410156 0.667969 0.0615234 1.00391 0.0615234c4.10352 0 8.43945 -3.06152 13.0068 -9.18457zM388.782 794.191c0.359375 5.96875 0.539062 11.8076 0.539062 17.5166
c0 29.6611 -4.85059 55.8145 -14.5498 78.4932c3.99707 -3.48242 7.47363 -5.22559 10.4404 -5.22559c3.60156 0 6.45117 2.57129 8.56641 7.72363c2.69238 -5.09473 5.38574 -7.63574 8.07812 -7.63574c2.8457 0 5.69238 2.83984 8.53809 8.50488
c1.32129 -5.26074 3.44727 -7.89941 6.3877 -7.89941c3.22168 0 7.42383 3.16895 12.6191 9.52832c-6.1875 -25.2412 -9.29297 -47.2158 -9.29297 -65.9492c0 -6.25391 0.345703 -12.1475 1.03906 -17.6797zM714.172 799.947l-38.0127 9.12402
c-5.75684 73.123 -37.3418 76.0664 -42.248 92.751c3.45605 -3.73926 6.76465 -5.61621 9.9248 -5.61621c2.89844 0 5.67188 1.57812 8.32129 4.74707c2.27148 -3.98242 5.13672 -5.96582 8.5957 -5.96582c3.23926 0 6.99902 1.73926 11.2793 5.20605
c3.35156 -7.8457 7.82715 -11.7939 13.4619 -11.7939c2.67188 0 5.60547 0.888672 8.80273 2.6709c8.25391 -43.6064 14.9336 -74.0166 19.875 -91.123zM156.55 839.978c0 6.30957 -6.2998 18.2803 -15.0928 18.2803c-0.875 0 -1.77148 -0.104492 -2.69141 -0.313477
h-2.49805c-6.22461 -2.40527 -9.33691 -5.4248 -9.33691 -9.05859c0 -0.863281 0 -0.863281 1.08301 -5.06055c5.21387 1.39062 6.72949 1.79492 9.12305 5.86523h3.25781c3.85645 -1.62891 6.08301 -3.85547 6.62598 -6.625v-2.49805
c0.0605469 -0.120117 0.0908203 -0.248047 0.0908203 -0.383789c0 -1.08203 -1.9375 -2.63281 -5.84766 -4.6123v-4.12695c0.869141 -1.7832 2.12207 -2.66016 3.73047 -2.66016c0.161133 0 11.5557 0.592773 11.5557 11.1934z" />
</svg>
