<?xml version="1.0" standalone="no"?>
<!DOCTYPE svg PUBLIC "-//W3C//DTD SVG 1.1//EN" "http://www.w3.org/Graphics/SVG/1.1/DTD/svg11.dtd" >
<svg xmlns="http://www.w3.org/2000/svg" xmlns:xlink="http://www.w3.org/1999/xlink" version="1.1" viewBox="-10 0 731 1000">
   <path fill="currentColor"
d="M495.812 911.234c0 10.7324 -4.36035 13.1787 -69.0439 13.1787h-33.8857c-9.20312 0 -13.7373 -2.02246 -13.7373 -6.06641c0 -3.08496 2.56934 -8.49023 21.123 -19.457c45.7168 -5.0918 54.2188 -19.8906 54.2188 -52.6543
c0 -9.04785 -1.13574 -19.0947 -15.8809 -149.574c-9.12305 -18.8975 -14.5527 -34.7549 -16.3994 -47.5703h-60.3867c-16.4902 32.9834 -32.9082 44.2568 -32.9082 64.9482c0.0966797 1.90918 0.144531 3.85156 0.144531 5.8291
c0 35.9268 -15.9043 83.0742 -47.7148 141.443c-10.3721 14.0107 -15.9111 28.998 -16.5078 44.8555c0.0732422 0.787109 0.110352 1.54883 0.110352 2.2832c0 10.4268 -7.37891 15.6221 -22.1738 15.6221c-3.9248 0 -12.0811 -0.686523 -26.292 -0.686523
c-10.1699 0 -40.4707 1.58496 -40.8799 1.58496c-0.359375 0 -34.4141 -0.541016 -34.4141 -10.6729c0 -8.7793 22.9961 -8.28125 82.4863 -36.0439c9.77539 -4.56152 17.9209 -17.54 24.6543 -38.8818c5.48438 -23.7852 15.3135 -61.3086 29.3242 -112.518
c-0.125 -2.4248 -0.1875 -4.87988 -0.1875 -7.36426c0 -21.2715 4.58496 -44.7256 13.8721 -70.3994l-23.7852 -0.869141l43.9863 -93.4023h-45.833v-19.1152h54.8477l43.1172 -91.5566c0 -27.3984 -14.4639 -110.872 -36.6006 -150.966
c-12.8164 20.1475 -42.1406 53.1094 -87.8643 98.834c-3.28906 -3.28906 -52.7559 -12.8535 -124.356 -44.8555c-12.8311 1.97754 -22.1074 2.99414 -27.7695 2.99414c-1.33496 0 -2.46875 -0.0556641 -3.40137 -0.169922v110.671h-20.0918v-112.518
c-10.3584 -5.44238 -15.5371 -15.0352 -15.5371 -28.8057c0 -3.26855 0.291992 -6.77148 0.875 -10.5107c-5.95996 -2.99902 -8.9209 -7.03223 -8.9209 -12.1016c0 -2.18164 0.548828 -4.55566 1.64355 -7.12207l21.9395 -0.977539v-214.936h20.0918v218.628
c10.3721 6.73438 18.3008 14.8799 23.7852 24.6543c64.6221 11.5674 104.265 19.876 118.927 24.7627c39.5469 -53.3438 57.2676 -61.9648 75.917 -97.8555c18.8779 -36.3369 59.5088 -24.3711 68.6406 -35.7324l-1.84668 -19.2236
c-23.0254 0 -26.501 -1.04883 -26.501 -10.1006c0 -12.0254 -4.92285 -9.81445 -4.92285 -13.0039c0 -1.85742 3.01074 -3.16504 2.87109 -3.66504c-0.0859375 0 -0.306641 0.0908203 -0.663086 0.269531c-3.02246 -0.978516 -3.87402 -3.26074 -3.87402 -4.16699
c0 -1.1748 0.947266 -2.26562 2.89648 -3.21875c-3.0166 -6.1709 -9.25684 -3.91406 -9.25684 -9.0752c0 -5.7666 12.4482 -26.1787 20.2266 -34.8027c3.04102 -22.5908 14.1191 -37.1436 33.0166 -43.8779c-11.9023 0 -23.543 -4.03613 -31.9258 -4.03613
c-13.7549 0 -8.87695 7.22949 -37.5088 7.22949c-31.8408 0 -32.5693 -21.0547 -32.5693 -21.4443c0 -1.50195 0.650391 -2.24121 1.97656 -2.24121c5.11328 0 13.8857 6.63281 21.3428 6.63281c15.8672 0 29.8594 -13.668 49.8291 -13.668
c3.03613 0 5.91992 0.34375 8.6543 1.02734l17.3779 -70.4863c-11.9004 -1.79883 -17.8252 -9.36621 -17.8252 -22.7031c0 -17.5908 10.8672 -22.6016 24.7373 -22.6016c14.4668 0 23.6816 5.05371 27.8418 15.1113c4.73926 -10.0576 14.3291 -15.1113 28.8193 -15.1113
c15.0996 0 24.7383 5.97559 24.7383 22.6436c0 13.3105 -5.70312 20.8643 -16.9561 22.6611l15.6396 69.5088c2.18652 -0.413086 4.48145 -0.619141 6.8877 -0.619141c20.8887 0 37.1816 14.2373 52.8389 14.2373c6.74316 0 15.4648 -6.63281 20.6719 -6.63281
c1.37598 0 2.07129 1.01953 2.07129 3.09668c0 0.394531 -1.6084 20.5889 -33.7373 20.5889c-29.0293 0 -23.6924 -7.22949 -36.8076 -7.22949c-6.83789 0 -20.166 4.03613 -32.9951 4.03613c25.6318 10.3721 38.4473 38.665 38.4473 85.041l3.58398 63.1006
c24.3828 0 42.1396 19.2236 53.1094 57.6709c19.4951 45.127 32.583 81.4023 39.3164 108.826c0.630859 10.1221 0.946289 19.9072 0.946289 29.3535c0 36.0625 -4.5957 67.1875 -13.7617 93.2646c1.94922 12.6504 2.89648 21.8438 2.89648 27.5273
c0 1.44043 -0.0605469 2.65527 -0.181641 3.64355h110.78v19.1152h-112.519c-5.66504 10.7812 -14.3662 16.2207 -26.0713 16.2207c-2.20898 0 -4.52344 -0.193359 -6.94531 -0.581055c-3.0918 5.71387 -7.28418 8.55078 -12.5771 8.55078
c-2.05078 0 -4.26562 -0.425781 -6.64648 -1.27441v-22.916h-31.3877l1.19434 94.2715v46.7012c10.4775 12.8564 15.7305 33.291 15.7305 61.3135c0 48.3945 -12.5303 77.6963 -12.5303 109.076c0 27.3389 6.43555 40.9062 6.43555 45.0527zM391.036 -61.75
c-9.12305 0 -13.6846 3.04102 -13.6846 9.12305c0 9.12305 6.4082 13.7939 19.2236 13.7939l-16.5078 80.4785c10.3721 0 18.8975 3.6377 25.6309 10.9688v-83.1934c0 -20.7441 -4.88672 -31.1709 -14.6621 -31.1709zM440.453 -61.75
c-10.3721 0 -15.5312 10.4268 -15.5312 31.1709v83.1934c7.33105 -7.33105 16.1289 -10.9688 26.501 -10.9688l-16.4004 -80.4785c13.4131 0 20.0928 -4.6709 20.0928 -13.7939c0 -6.08203 -4.8877 -9.12305 -14.6621 -9.12305zM413.953 75.5312
c-26.2295 0 -41.8145 7.54785 -46.7021 22.8076c20.7441 5.48438 33.9404 12.2725 39.4248 20.2012c5.12207 -2.09668 9.44531 -3.14551 12.9688 -3.14551c7.7959 0 11.6855 5.13379 11.6855 15.418c0 14.9336 -4.8877 25.7402 -14.6621 32.4736v102.526h21.0703v-52.1318
h37.4697l-2.71582 -60.3857c0 -51.209 -19.4951 -77.167 -58.5391 -77.7637zM360.834 160.544c0 5.93652 -9.71191 2.49805 -9.71191 12.1387c0 5.75977 3.21387 8.64648 9.62695 8.64648c4.26465 0 6.46387 -1.05078 9.80273 -1.05078
c10.0107 0 15.0547 9.30078 15.0547 27.8633c0 32.209 -53.5947 14.1064 -53.5947 44.6533c0 4.30762 1.10449 9.2627 3.30859 14.8643c40.9658 85.1357 43.8779 165.635 43.8779 167.365l71.3555 -26.501c0 -1.37402 10.1924 -62.0479 44.8555 -129.896
c0.222656 -2.04785 0.333984 -4.10938 0.333984 -6.18262c0 -45.0801 -33.1719 -45.0801 -45.1895 -45.0801v52.1318h-46.7012v-125.334c12.501 -4.18457 18.8008 -10.4883 18.8008 -19.0107c0 -8.30859 -4.88379 -8.5 -6.47949 -8.5
c-2.84277 0 -6.62305 1.24316 -11.3438 3.72559l-1.84668 7.27734l-10.1006 -2.71582l3.69238 -11.8379c-3.6377 -6.73438 -14.9873 -11.6211 -33.8857 -14.6621c-9.77441 10.9697 -17.9199 23.1875 -24.6543 36.6006c5.96484 2.95996 8.96484 5.95996 9.12305 9.99219
c10.4395 0 13.6758 3.82422 13.6758 5.51172zM364.77 117.101c13.8496 0 4.26758 6.3584 26.2666 8.71582v5.43066l-9.99219 -2.71484c-4.24902 1.69434 -8.32031 2.55273 -12.1992 2.55273c-4.4502 0 -8.64551 -1.12988 -12.5625 -3.42188l-2.71582 0.869141v-3.69336
c6.74121 -7.66602 6.80566 -7.73828 11.2031 -7.73828zM363.667 121.255c-2.44336 0.597656 -4.34375 1.73828 -5.53906 3.58398l5.53906 1.84668c-0.59668 -0.597656 -0.895508 -1.34375 -0.895508 -2.24707s0.298828 -1.96191 0.895508 -3.18359zM370.944 122.124
l7.27637 4.56152c-2.44336 0.597656 -5.48438 0.977539 -9.12305 0.977539c1.9082 -0.75 2.875 -1.77734 2.875 -3.04297c0 -0.750977 -0.34082 -1.58594 -1.02832 -2.49609zM351.393 148.865c0.705078 0 2.17383 -1.05762 2.17383 -1.97852
c0 -1.84668 0.271484 -2.82422 0.869141 -2.82422c0.995117 0 1.47559 3.27832 1.47559 4.05176c0 3.50684 -4.08887 3.53125 -4.14355 3.53125c-3.87012 0 -4.49512 -4.52832 -6.94434 -4.52832c-0.476562 0 -0.930664 0.211914 -1.35742 0.638672
c-0.298828 -0.298828 -0.448242 -0.638672 -0.448242 -1.01855c0 -0.964844 1.23242 -2.6748 2.29492 -2.6748c2.94043 0 4.0166 4.80273 6.08008 4.80273zM342.938 158.205c0 0.496094 0.540039 1.01465 1.50488 1.49707h12.8154
c0.106445 -0.105469 0.15918 -0.205078 0.15918 -0.296875c0 -0.422852 -1.13867 -0.680664 -3.41699 -0.680664c-6.16602 0 -6.82812 -1.30273 -9.66602 -1.30273c-0.411133 0 -1.39648 0 -1.39648 0.783203zM345.908 165.504c0.34375 0 0.760742 -0.125977 1.25 -0.371094
c2.71387 0 3.3877 -0.336914 10.1006 -3.69238c-12.5459 1.02637 -12.5459 1.02637 -12.5459 2.37305c0 0.0771484 0.0136719 1.69043 1.19531 1.69043zM544.161 419.372c0 -12.29 0.803711 -25.9678 2.40234 -41.041
c-19.4951 -33.5605 -33.5059 -62.8848 -42.0312 -87.8643c-29.6572 62.6885 -39.2119 121.335 -39.3164 122.618c13.873 29.6191 20.8096 57.3701 20.8096 83.2539c0 7.14551 -0.52832 14.1494 -1.58594 21.0107l0.216797 18.3545h35.4062
c6.73438 -10.3721 14.3906 -19.2783 22.917 -26.6094c3.11133 -13.5869 4.66016 -26.5801 4.66016 -39.0352c0 -19.833 -3.47852 -23.5146 -3.47852 -50.6875zM450.554 425.901l-71.3555 26.5l-38.0127 83.3027h126.745v-17.4863
c1.11719 -7.52148 1.67578 -14.9297 1.67578 -22.2266c0 -24.624 -6.35938 -47.9717 -19.0527 -70.0898zM332.496 554.819l-34.7539 76.0254h170.188v-76.0254h-135.435z" />
</svg>
