<?xml version="1.0" standalone="no"?>
<!DOCTYPE svg PUBLIC "-//W3C//DTD SVG 1.1//EN" "http://www.w3.org/Graphics/SVG/1.1/DTD/svg11.dtd" >
<svg xmlns="http://www.w3.org/2000/svg" xmlns:xlink="http://www.w3.org/1999/xlink" version="1.1" viewBox="-10 0 644 1000">
   <path fill="currentColor"
d="M348.749 374.237c-9.25586 28.8916 -30.5527 95.3691 -82.3662 95.3691c-12.875 0 -22.6191 -9.35645 -22.6191 -14.5664c0 -0.224609 0.0693359 -7.18555 8.72168 -7.18555c7.12695 0 11.4023 3.58789 17.1035 3.58789c22.8662 0 52.2344 -47.999 52.2344 -94.7305
c0 -16.0186 -7.37793 -14.1436 -7.37793 -18.4072c0 -1.58301 1.45996 -3.11621 4.4043 -4.5752c-3.25879 -0.71875 -4.87598 -2.25781 -4.87598 -4.60938c0 -1.83887 0.989258 -4.17383 2.95508 -7.00293c-0.645508 0.0224609 -1.27246 0.0332031 -1.88086 0.0332031
c-9.8916 0 -14.8281 -2.92773 -14.8281 -8.81738c0 -12.9453 22.9902 -30.6709 33.0771 -71.2246c0 -19.9336 -3.88672 -42.7471 -11.6133 -68.4873h41.5127l82.9355 -216.069c3.09082 -10.4189 11.4668 -32.6055 37.2148 -32.6055
c5.44238 0 37.2275 1.0332 44.8047 24.9248c7.05566 -4.04199 14.7744 -6.06934 23.1562 -6.06934c2.57031 0 42.5605 0.476562 42.5605 30.1279c0 6.37012 -1.66797 13.7734 -5.00098 22.209l-68.3965 177.482h44.3477l-62.7266 112.835
c45.6738 31.501 68.4873 75.2539 68.4873 131.214v507.301h-21.2139v-507.301c0 -46.9531 -18.9277 -84.2598 -56.875 -111.92l-24.1396 43.4326c-0.553711 3.11523 -0.831055 6.19043 -0.831055 9.22461c0 14.5098 6.33887 28.1035 19.1191 40.8838
c38.9258 10.3428 44.0791 96.832 44.0791 141.863c0 68.3857 -7.92676 179.615 -23.7803 333.708l41.4277 50.1084h-410.839l-4.8457 -37.5811l73.333 -31.8203c-18.6533 -74.6143 -39.4551 -131.215 -62.2695 -169.802
c-22.8135 -38.5869 -35.2031 -71.3672 -37.124 -98.3877c-21.9385 -42.4219 -37.5049 -44.334 -37.5049 -54.6621c0 -6.76953 7.98633 -12.9541 23.9727 -18.5801c3.2832 -28.0029 4.92969 -55.2891 4.92969 -81.8594c0 -20.4102 -0.97168 -40.3975 -2.91797 -59.9619
c-10.9268 -27.6602 -25.4199 -51.4795 -43.4336 -71.4131c-1.12891 0.483398 -2.20801 0.726562 -3.23633 0.726562c-5.05762 0 -8.42969 -6.48145 -8.42969 -9.00391c0 -5.38184 7.68066 -11.9492 23.1875 -19.7031c5.14258 -27.9795 7.71484 -57.709 7.71484 -89.2031
c0 -31.4951 -2.57227 -64.7559 -7.71484 -99.7998h96.4678c-5.14355 35.0439 -7.71582 68.3047 -7.71582 99.7998c0 31.4941 2.57227 61.2236 7.71582 89.2031c15.5254 7.7627 23.2734 14.3379 23.2734 19.7227c0 2.50391 -3.36719 8.98438 -8.4248 8.98438
c-1.02832 0 -2.10742 -0.243164 -3.23633 -0.726562c-18.0137 19.9336 -32.7803 43.7529 -44.3477 71.4131c-1.96582 19.7627 -2.95508 39.4014 -2.95508 58.9131c0 24.9512 1.61719 49.6943 4.875 74.2217c4.93457 -0.920898 9.6377 -1.38184 14.1084 -1.38184
c8.38965 0 33.4287 0 64.9863 48.6553l130.208 183.243c14.7676 -144.062 33.7412 -253.376 56.875 -327.99c-4.48047 -14.7666 -10.9268 -26.0137 -19.2939 -33.7402h-26.9746zM505.084 -37.6309c0 -2.35352 -0.705078 -15.7812 -16.7861 -15.7812
c-7.83887 0 -13.8477 5.32031 -18.0264 15.8105l-82.0205 211.223h37.6729l77.1738 -199.701c1.3252 -4.36719 1.98633 -8.21777 1.98633 -11.5508zM570.21 -23.3115c0 -13.7549 -17.9482 -13.8994 -18.1768 -13.8994c-7.37598 0 -14.7852 4.14453 -20.041 16.9824
l-74.248 193.85h37.5811l70.4072 -182.328c2.98633 -5.70801 4.47754 -10.5762 4.47754 -14.6045zM81.5664 98.3672c0.207031 2.56445 3.41895 42.4043 3.41895 86.8682c0 27.3711 -1.79199 55.0156 -5.33887 82.9326c7.08594 -3.2002 17.6934 -4.8457 31.8203 -4.8457
s24.3682 1.64551 30.8145 4.8457c-3.2002 -30.2197 -4.75488 -60.1201 -4.75488 -89.7002c0 -29.5811 1.28027 -56.3262 3.84082 -80.1006h-59.8008zM453.802 266.19c0 18.6035 -20.1934 26.1055 -24.0381 39.5596c24.7227 15.7705 24.7227 15.7705 26.5752 15.7705
c3.7168 0 7.71191 -2.99707 12.0117 -9.00488l65.5615 -120.606h-189.003c3.2002 10.9268 5.39453 23.8193 6.6748 38.5869c1.43848 -0.110352 2.89844 -0.165039 4.38086 -0.165039c15.7539 0 33.9453 6.21582 54.5059 18.5439
c9.51855 -4.20117 17.4502 -6.30469 23.7979 -6.30469c18.7451 0 19.5332 20.2178 19.5332 23.6201zM353.308 335.333c0 2.83496 -6.10449 4.24121 -18.3145 4.24121c-1.72363 0 -3.56934 -0.0283203 -5.53711 -0.0839844c2.29883 2.75879 3.46582 5.94238 3.46582 9.55078
c0 3.0459 -0.722656 4.47168 -0.722656 5.92188c0 3.91113 4.29199 5.84277 12.9014 5.84277c55.1465 0 65.4141 -32.5693 67.29 -46.3691c-2.98047 -1.02441 -2.98047 -1.02441 -2.98047 -2.1123c0 -16.1221 30.5176 -29.5586 30.5176 -44.6494
c0 -7.97461 -5.73047 -9.19922 -9.24902 -9.19922c-5.80664 0 -11.4756 3.24609 -17.2822 9.69238c-26.5137 -14.1543 -47.9863 -21.2529 -64.458 -21.2529c-4.75098 0 -2.43945 7.98926 -34.9355 62.6748c10.7168 0.53418 16.0898 4.21875 16.0898 11.0254
c0 1.35254 -0.211914 2.8291 -0.636719 4.42773c1.24121 -1.03418 2.76855 -1.55273 4.58203 -1.55273c6.52734 0 19.2695 8.43066 19.2695 11.8428zM361.685 257.261c6.53613 0 6.53613 0 46.8652 14.748l4.84668 4.84668
c-35.0166 -2.90137 -35.791 -10.4111 -51.5781 -10.4111c-6.24609 0 -13.1953 1.21973 -20.8408 3.64453v-9.69238c9.25293 -2.50781 16.2139 -3.13574 20.707 -3.13574zM332.382 291.303c-0.301758 -6.7334 5.95312 -6.90918 9.60156 -9.69238
c3.2002 -6.44727 9.00586 -9.60156 17.373 -9.60156c8.36621 0 19.3389 3.1543 32.8262 9.60156h22.1279v6.76562h-21.2139c-13.7275 6.10449 -25.4424 9.16602 -35.1162 9.16602c-12.6504 0 -5.62207 -1.77734 -25.5986 -6.23926zM354.51 278.775
c-5.80566 2.56055 -8.96094 5.48633 -9.60059 8.68652c2.56055 1.28027 6.35449 2.56055 11.5215 3.84082c-2 -2.80078 -3.00098 -5.49414 -3.00098 -8.05859c0 -1.53809 0.360352 -3.0293 1.08008 -4.46875zM368.957 278.775
c1.91992 2.24023 2.88086 4.32031 2.88086 6.24023s-0.960938 3.68066 -2.88086 5.28125c5.16699 -1.28027 10.9277 -3.20117 17.374 -5.76074zM111.467 282.615c-14.127 0 -28.666 3.52051 -43.4336 10.6074l5.76074 10.6064
c3.22949 -0.643555 6.23633 -0.96582 9.02051 -0.96582c8.29297 0 14.6133 2.86328 18.96 8.64648c2.56055 -10.9268 5.85156 -17.6475 9.69238 -20.207c3.84082 2.55957 6.7666 9.28027 8.68652 20.207c4.34668 -5.7832 10.667 -8.64648 18.96 -8.64648
c2.78418 0 5.79102 0.322266 9.02051 0.96582l5.76074 -10.6064c-14.1279 -7.08691 -28.3008 -10.6074 -42.4277 -10.6074zM111.467 335.65c1.24902 -3.74707 3.71289 -12.5449 3.71289 -16.1201c0 -3.33789 -1.24512 -6.0459 -3.71289 -8.02051
c-2.46777 1.97461 -3.71289 4.68262 -3.71289 8.02051c0 4.61328 3.66016 15.9629 3.71289 16.1201zM111.467 347.263c-8.33789 0 -8.73242 -34.999 -28.3662 -34.999c-1.09375 0 -2.24023 0.0791016 -3.4541 0.251953c14.127 33.4209 24.7334 50.1084 31.8203 50.1084
s17.6934 -16.6875 31.8203 -50.1084c-1.38867 -0.18457 -2.70312 -0.276367 -3.94434 -0.276367c-7.37988 0 -12.1514 3.26367 -14.3428 9.87793c-6.34473 19.1465 -13.248 25.1455 -13.5332 25.1455zM449.044 396.288c4.84766 0 10.0039 0.358398 15.4668 1.08301
c-10.2871 -11.5674 -16.459 -32.1406 -18.3789 -61.7207l-27.9805 -17.374c-0.640625 14.7676 -9.23535 28.3008 -25.9688 40.5078c9.00684 12.207 16.9619 28.6201 24.0488 49.1934c11.3691 -10.3428 20.9971 -11.6895 32.8125 -11.6895zM139.416 600.627
c0 51.876 53.54 50.4697 98.4189 270.396l-66.5674 26.9736h320.218l-11.6133 -17.373c13.5049 -81.8652 31.0996 -241.873 31.0996 -328.696c0 -114.072 -21.2725 -133.342 -55.1475 -133.342c-25.1006 0 -41.4678 14.127 -49.1943 42.4268
c-16.0928 70.7275 -31.2266 178.168 -45.3535 322.229l-23.1338 1.91992l-130.208 -185.254c-12.7188 -18.8604 -25.6084 -28.2617 -38.6387 -28.2617c-6.93457 0 -29.8799 4.91992 -29.8799 28.9814zM94.2031 536.519c0 5.12207 15.3887 -3.79688 28.7852 29.6475
c7.72656 -14.127 23.2246 -21.4873 46.3594 -22.1279c-12.25 -13.6797 -25.373 -20.584 -39.3711 -20.584c-14.7607 0 -35.7734 9.79785 -35.7734 13.0645z" />
</svg>
