<?xml version="1.0" standalone="no"?>
<!DOCTYPE svg PUBLIC "-//W3C//DTD SVG 1.1//EN" "http://www.w3.org/Graphics/SVG/1.1/DTD/svg11.dtd" >
<svg xmlns="http://www.w3.org/2000/svg" xmlns:xlink="http://www.w3.org/1999/xlink" version="1.1" viewBox="-10 0 1077 1000">
   <path fill="currentColor"
d="M459.73 16.8037c0 -13.5137 3.79785 -91.8037 91.8037 -91.8037c63.9248 0 90.0576 46.5771 90.0576 92.6777c0 33.8398 -14.2998 60.4199 -42.4629 79.9053c16.9941 5.22852 51.4141 15.8174 51.4141 105.559v124.225c52.7793 7.80469 102.884 17.4111 150.314 28.8184
c91.5938 -78.2383 99.9443 -85.3711 130.556 -134.158c8.40527 -27.6182 31.4932 -50.4326 69.3174 -68.4443c3.32031 4.31641 4.97168 8.65039 4.97168 12.9814c0 3.50098 -1.07812 7 -3.22559 10.4883c16.5781 23.4854 24.9043 39.168 24.9043 47.0977
c0 2.4082 -0.768555 4.10156 -2.30762 5.08105c-30.6191 18.0117 -55.5625 28.8184 -74.7754 32.4209c-26.416 55.7812 -61.7842 102.557 -106.213 140.381c-18.9688 1.87305 -37.123 2.80859 -54.4746 2.80859c-64.9971 0 -88.5742 -12.5742 -120.656 -12.5742
c-10.209 0 -16.3525 1.76074 -18.4111 5.29004v39.625h-4.47559c-7.2041 39.625 -13.4814 87.874 -18.8848 144.856c12.9766 25.0801 19.4697 48.8467 19.4697 71.2949c0 25.3291 -8.26758 48.9785 -24.8184 70.9414c5.4541 -1.33789 10.4482 -2.00684 14.9824 -2.00684
c21.9189 0 33.0957 15.6396 33.5938 46.9805l-27.0713 154.899h-85.4727v-25.2168c0 -9.60547 13.4805 -14.4092 40.498 -14.4092l7.20508 -92.7861c-90.0029 67.7891 -160.575 112.271 -211.554 133.285h-52.1787c-35.6553 -25.4688 -38.1191 -29.0869 -43.1182 -41.6992
c1.53711 6.76758 2.31445 12.8262 2.31445 18.166c0 10.207 -2.84082 17.7871 -8.64648 22.6602h-188.192c-5.70508 -11.6953 -8.55176 -20.6309 -8.55176 -26.7891c0 -6.80371 3.47461 -10.2168 10.4072 -10.2168h17.1387
c32.4209 -12.0078 58.4551 -20.4678 78.2676 -25.5439c19.2295 -4.92578 28.8447 -13.7607 28.8447 -26.3525c0 -3.28516 -5.81641 -116.866 -5.81641 -195.688c0 -64.8516 0 -112.428 48.0352 -112.428c73.793 4.80273 144.093 36.3506 210.681 94.5332
c-12.6084 -71.3906 -28.4912 -132.63 -47.7031 -183.608c-8.89062 -44.4531 -26.998 -44.4531 -42.8623 -44.4531c-31.7256 0 -50.7236 10.5 -113.932 10.5c-18.6426 0 -38.3867 -0.978516 -59.2354 -2.94336c-39.0244 -39.625 -72.9189 -85.8545 -101.737 -138.634
c-15.6104 -0.600586 -40.1719 -10.4795 -73.793 -29.6914c-2.62402 -1.53125 -3.9375 -5.21289 -3.9375 -11.0459c0 -10.1807 4 -26.9111 12.0156 -50.1934c-2.41992 -3.22559 -3.62402 -6.56152 -3.62402 -10.0156c0 -4.26074 1.83203 -8.70312 5.47949 -13.3447
l45.8477 23.3604c12.0078 10.207 22.2686 26.4717 30.6738 48.6855h-0.982422c54.9199 72.7295 64.4658 55.5049 134.158 134.923c40.8262 -9.60645 88.5293 -17.6299 143.11 -24.2334c27.6172 -12.0078 59.1104 -18.0117 94.5332 -18.0117
c-0.600586 -21.0137 -5.13086 -34.7676 -13.5361 -41.3721h-19.7588c-1.06543 10.666 -28.4463 47.3779 -43.0312 47.3779c-0.131836 0 -10.4082 -0.452148 -10.4082 -8.11816c0 -1.94824 0.672852 -10.0225 11.5225 -13.6074
c11.8447 -3.91211 18.3096 -21.0029 18.3096 -29.5195c0 -3.56641 -0.862305 -6.78711 -2.59082 -9.66895c0.0917969 -1.37891 0.137695 -2.68164 0.137695 -3.90723c0 -14.6631 -6.31641 -12.5059 -6.31641 -16.5332c0 -1.49414 1.18945 -3.08301 3.55859 -4.77539
c-2.75977 -0.69043 -4.15039 -2.17285 -4.15039 -4.44824c0 -1.68555 0.762695 -3.80469 2.29492 -6.3584c-0.597656 0.0205078 -1.17871 0.03125 -1.74219 0.03125c-9.2334 0 -13.8359 -2.76562 -13.8359 -8.28613c0 -12.5615 21.5625 -27.1572 30.8604 -70.9961
c10.3711 -25.9805 24.2891 -42.7363 41.3721 -50.7598c-22.6504 -18.9941 -34.167 -43.9912 -34.167 -75.2119zM483.161 17.9404c0 50.0625 37.4814 69.9268 68.373 69.9268c38.1943 0 66.6973 -28.2949 66.6973 -71.0635c0 -63.5664 -51.0342 -68.4434 -66.6973 -68.4434
c-20.1992 0 -68.373 6.60156 -68.373 69.5801zM480.471 137.427c22.8145 6.00391 41.7539 13.208 56.7637 21.6133c8.11914 -5.58105 16.083 -8.35645 23.9561 -8.35645c24.0205 0 25.8379 22.1377 25.8379 28.8379c0 11.8564 -3.83594 25.0371 -28.2891 58.6602v179.133
h72.0459v-208.824c0 -53.3799 -12.5537 -85.0908 -37.7695 -94.9697c-16.583 -6.51855 -32.8291 -9.7959 -48.665 -9.7959c-7.98926 0 -57.6504 1.30957 -63.8799 33.7021zM471.188 234.898c0 2.37793 -4.51953 3.5625 -13.5771 3.5625
c-2.53906 0 -5.43359 -0.09375 -8.68652 -0.279297c2.54785 2.54883 3.8125 5.56152 3.8125 9.01953c0 3.1416 -0.902344 4.61816 -0.902344 6.25488c0 3.27246 3.17188 4.91797 9.55469 4.91797c1.63672 0 3.48535 -0.108398 5.5459 -0.325195
c46.9912 0 59.6289 -26.749 70.2998 -80.9971c-24.6152 -12.6084 -48.6309 -20.7402 -72.0459 -24.3428c-7.20508 16.8105 -17.3564 36.2959 -30.5654 58.5098c9.98145 0.499023 14.9092 3.71387 14.9092 9.61133c0 1.19824 -0.203125 2.50586 -0.608398 3.9248
c1.13379 -0.945312 2.52344 -1.41992 4.16504 -1.41992c6.18945 0 18.0986 8.36328 18.0986 11.5635zM479.073 161.526c6.1582 0 6.1582 0 43.752 13.6699l4.47559 4.47559c-34.0654 -2.83984 -33.2471 -9.60156 -48.2451 -9.60156
c-5.79102 0 -12.2363 1.12305 -19.3252 3.37891l1.26953 -8.44922c8.36035 -2.28027 13.6982 -3.47363 18.0732 -3.47363zM557.428 168.817c-4.05273 0 -9.00098 2.09082 -14.8447 6.37891c-6.00391 40.8262 -19.2119 68.4434 -39.625 82.8525
c12.0078 12.6084 18.2842 30.8926 18.8848 54.9082c0 7.80469 5.18555 11.6797 15.3916 11.6797v-92.6768c29.2764 -36.3438 30.8926 -44.9814 30.8926 -51.2139c0 -7.4668 -5.25879 -11.9287 -10.6992 -11.9287zM507.434 185.13h20.7402v5.34863h-19.7578
c-12.7197 6.00684 -23.5859 9.02637 -32.5781 9.02637c-13.5664 0 -6.29883 -3.10352 -23.3125 -5.42383v-4.47559l8.1875 -5.34863c2.9248 -5.84863 8.07617 -8.84863 15.5566 -8.84863c8.74512 0 19.8066 4.06836 31.1641 9.72168zM472.393 181.527
c-5.40332 2.40137 -8.45996 5.34863 -9.05957 8.95117c3.00195 0.600586 6.60352 1.52832 10.8066 2.72949c-1.86035 -2.23242 -2.77734 -4.56934 -2.77734 -7.02441c0 -1.50684 0.345703 -3.05762 1.03027 -4.65625zM485.929 181.527
c1.80176 2.10156 2.70215 4.05273 2.70215 5.85352s-0.900391 3.45215 -2.70215 4.95312c4.80371 -0.599609 10.1523 -2.07324 16.1562 -4.47559zM496.627 328.239l-53.9258 8.95117c11.0928 12.7734 43.3896 49.9639 94.5332 53.1611v-45.9561
c-10.8066 0 -24.3975 -5.34961 -40.6074 -16.1562zM449.906 375.942c5.29395 58.2383 25.6006 63.7871 55.7812 236.77l97.1523 -28.8184c6.00391 -60.584 12.6631 -109.488 19.8672 -146.712h-85.4727v-27.0723c-28.5635 -3.16992 -45.3809 -10.3145 -87.3281 -34.167z
M304.067 551.473c7.2041 15.0098 12.0078 34.4951 14.4092 58.5098l26.9629 161.121c43.2275 -46.8291 87.2734 -87.6553 132.303 -122.478c-58.1826 -55.1807 -116.093 -87.5469 -173.675 -97.1533zM299.666 636.962c0 -46.9629 -6.82031 -67.7285 -17.2129 -84.6162
c-18.3184 0 -23.7266 0.31543 -31.5469 19.8672c-3.21875 25.3906 -4.81055 67.2227 -4.81055 125.563c0 39.6045 0.733398 86.8184 2.19043 141.662c0 19.8125 -3.3291 30.6191 -9.93359 32.4209c-112.938 27.8242 -76.1113 26.4697 -122.369 30.6738v5.34863h153.917
c5.27734 -2.30859 7.90234 -7.69824 7.90234 -16.168c0 -6.94727 -1.76562 -15.9678 -5.2832 -27.0596c1.4834 -108.273 27.1465 -143.155 27.1465 -227.692zM613.646 611.729c-42.627 0.600586 -92.3496 24.5068 -149.331 71.6094
c-56.9824 47.1025 -99.6094 89.5664 -127.827 127.391c12.0078 10.8066 23.6328 21.5049 35.04 32.3115c30.6201 -43.2275 96.6074 -76.1943 198.018 -99.0088c37.3486 -32.4561 56.041 -63.3281 56.041 -92.667c0 -13.5361 -3.97949 -26.7461 -11.9404 -39.6357z
M315.809 712.241c0 28.4688 -22.6094 47.9951 -22.6094 143.493c0 1.79883 0.227539 3.61426 0.243164 5.44531c0 -13.6689 8.02832 -32.5586 24.1611 -56.7812c6.00391 -6.00391 10.1514 -11.0801 12.5537 -15.2832zM370.424 903.748
c5.67773 0 11.7588 -0.404297 18.2432 -1.21484c101.7 -46.7285 192.819 -126.405 218.303 -126.405c12.3066 0 18.4668 10.6201 18.4668 31.8721l-9.06055 89.0752l-44.1006 5.45801v6.22266h54.0342c20.7754 -140.486 20.7754 -140.486 20.7754 -143.405
c0 -14.3008 -6.32812 -21.9609 -19.0293 -23.0654c-46.8613 3.47266 -17.5391 19.1943 -129.137 44.5381c-43.5 9.87891 -85.9639 38.2061 -127.391 85.0361l-45.8467 -41.3721c-6.22949 13.3496 -9.3418 24.9004 -9.3418 34.6514c0 36.2598 42.9492 38.6094 54.084 38.6094
z" />
</svg>
