<?xml version="1.0" standalone="no"?>
<!DOCTYPE svg PUBLIC "-//W3C//DTD SVG 1.1//EN" "http://www.w3.org/Graphics/SVG/1.1/DTD/svg11.dtd" >
<svg xmlns="http://www.w3.org/2000/svg" xmlns:xlink="http://www.w3.org/1999/xlink" version="1.1" viewBox="-10 0 591 1000">
   <path fill="currentColor"
d="M138.504 840.667c-39.9277 -172.478 -98.5039 -217.66 -98.5039 -264.275c0 -22.1104 34.1328 -49.1543 58.748 -49.1543c14.0225 0 28.873 6.42285 44.5381 19.2549l133.122 182.025c4.45605 -107.313 6.73828 -178.873 6.73828 -214.626l-23.9082 0.977539v-63.2471
c0 -15.1221 0 -55.6465 30.6455 -77.7002c-22.3867 -51.7275 -39.9365 -77.5908 -52.7061 -77.5908c-0.584961 -0.238281 -1.28516 -0.356445 -2.10059 -0.356445c-3.66016 0 -9.65137 2.38477 -18.0029 7.09375c0 -33.1992 9.18262 -53.0312 27.7109 -59.4434
c-0.0859375 -0.755859 -0.12793 -1.48047 -0.12793 -2.1748c0 -9.65137 8.47363 -11.1689 10.1748 -11.1689c2.02637 0 3.78125 0.926758 5.27539 2.80273c-0.109375 -0.269531 -0.164062 -0.560547 -0.164062 -0.874023c0 -2.66309 22.7197 -31.8418 67.9443 -32.6855
l-111.219 1.81738c-10.7266 0 -8.05859 -6.64453 -13.8564 -6.64453c-0.798828 0 -1.19531 0.461914 -1.19531 1.37891c0 1.5625 0.97168 3.10938 0.97168 4.39355c0 0.719727 -0.325195 1.08008 -0.977539 1.08008c-0.202148 0 -10.5703 -0.25 -10.5703 -17.333
c0 -2.5957 0.53125 -4.20117 1.58203 -4.81641c10.6699 -6.24902 0.729492 -18.3271 31.1621 -18.3271c27.6406 0 71.5928 10.4043 105.689 10.4043c21.0234 0 40.6924 -6.07324 41.8037 -6.42188c0.605469 -1.60449 0.90918 -3.08496 0.90918 -4.44336
c0 -7.28906 -8.73242 -11.0391 -26.2295 -11.3145c-38.8633 -0.610352 -101.433 -93.7402 -101.433 -132.453c0 -17.5771 10.7305 -35.0186 36.583 -35.0186c51.2334 0 172.979 80.0205 191.344 110.419c11.1934 18.5293 21.8428 37.0029 32.0576 55.5312
c8.96582 -13.4209 13.4756 -36.4043 13.4756 -69.0059c0 -78.9297 -75.457 -109.741 -76.7217 -110.193c-38.8447 -1.04297 -68.2549 -25.6689 -68.2549 -33.8281c0 -4.13281 4.49609 -9.74902 10.9844 -9.74902c27.209 0 52.7197 16.2754 65.9639 26.4072
c34.4521 16.376 90.8428 55.6504 90.8428 137.292c0 25.3184 -5.0625 53.6055 -15.207 84.9414c-5.1084 15.3223 -14.0732 23.9619 -26.8418 25.8633h-121.713c40.2529 0 155.292 25.3711 155.292 315.365l-52.7061 0.978516
c-0.651367 134.154 -10.4863 243.315 -29.667 327.645l33.4707 81.5039h-410.126l-4.78223 -44.9902zM263.254 19.1143c0 24.3379 55.7783 117.017 97.0488 117.687c49.04 0.795898 24.498 35.3711 65.3223 35.3711c9.1084 0 20.4062 -1.71973 33.8955 -5.16016
c11.4951 0 17.2197 -0.928711 17.2197 -2.64941c0 -0.0927734 -0.0166016 -0.1875 -0.0498047 -0.285156c2.13867 -5.96387 3.20703 -11.8438 3.20703 -17.6367c0 -11.5693 -4.26172 -22.7939 -12.7705 -33.6562c-32.8672 -41.959 -140.665 -110.957 -180.212 -110.957
c-21.7139 0 -23.6611 12.7227 -23.6611 17.2871zM262.716 240.889c-0.261719 0 -0.479492 -0.0292969 -0.652344 -0.0888672c-1.15332 4.51953 -4.00977 6.74121 -8.64355 6.74121c-0.602539 0 -1.23438 -0.0371094 -1.89746 -0.112305
c0 8.96484 4.50977 18.2568 13.4756 27.8193c-4.35059 -1.64258 -8.0791 -2.45801 -11.1758 -2.45801c-4.17383 0 -7.19629 1.48145 -9.03711 4.41406c-2.12402 -1.64258 -3.97461 -2.46582 -5.55957 -2.46582c-2.71387 0 -4.65039 2.41211 -5.85059 7.24805h8.58496
c0.336914 -0.0107422 0.673828 -0.0166016 1.00977 -0.0166016c48.3496 0 50.791 102.842 87.2324 102.842c2.42383 0 4.95996 -0.405273 7.60547 -1.21777c-1.20117 -20.043 -12.2764 -44.0674 -31.623 -53.6836c50.0107 -9.63281 75.0391 -28.4473 75.0391 -56.2617
c0 -8.00195 -1.88184 -51.1055 -42.4375 -51.1055c-57.5371 0 -63.374 18.3457 -76.0703 18.3457zM393.339 230.259c8.11523 19.8018 12.1709 37.8154 12.1709 54.0469c0 27.2393 -11.4199 49.459 -34.2314 66.6865v141.816l19.2354 0.978516v-101.608
c58.1396 0 87.4805 33.5254 88.1328 100.63h29.667c0 -238.064 -112.113 -262.388 -114.975 -262.55zM321.89 252.732c-27.4609 0 -27.4609 31.0273 -27.4609 44.2031c0 3.91016 0.078125 8.2002 0.236328 12.8701c-0.651367 1.90234 -2.22754 2.82617 -4.78125 2.82617
c-3.85742 -18.5293 -8.04199 -29.7217 -12.4971 -33.5801c3.37402 -3.37402 3.3916 -9.04688 3.3916 -9.14453c0 -3.66602 -3.05078 -7.28809 -9.15137 -10.96c0 -13.4209 5.43359 -20.1035 16.3008 -20.1035c5.75977 0 10.2695 2.60742 13.4756 7.71582
c1.43457 -1.90039 2.14746 -3.67188 2.14746 -5.31348c0 -2.77148 -2.0332 -5.1709 -6.05957 -7.18457c5.10742 -0.488281 9.94336 -0.760742 14.4531 -0.760742c0.231445 -0.000976562 0.462891 -0.00195312 0.692383 -0.00195312
c43.0898 0 51.9033 21.376 51.9033 38.8652c0 22.0352 -18.1846 37.8262 -54.5518 47.2051v-2.93457c41.877 -17.8203 41.877 -28.3398 41.877 -36.0068c0 -12.5693 -10.2051 -27.6953 -29.9756 -27.6953zM287.928 243.625c-5.75977 0 -9.61719 4.78125 -11.5195 14.3447
c3.8584 2.55371 7.66211 4.12988 11.5195 4.78125c6.41113 -1.30371 9.56348 -4.78125 9.56348 -10.541s-3.15234 -8.58496 -9.56348 -8.58496zM287.928 245.581c3.85742 0.652344 6.08594 2.77148 6.7373 6.62891c-0.651367 3.8584 -2.87988 6.08594 -6.7373 6.7373
c-4.45605 -0.651367 -6.7373 -2.87891 -6.7373 -6.7373c0.651367 -3.85742 2.87988 -5.97656 6.7373 -6.62891zM282.819 472.373c0 6.36035 0.109375 13.1719 0.327148 20.4355h11.5186c-0.0947266 -3.37109 -0.141602 -6.65039 -0.141602 -9.83789
c0 -40.9014 7.75586 -66.7393 23.1807 -77.4248c-5.17285 -3.46973 -9.5791 -4.59473 -12.8828 -4.59473c-18.7168 0 -22.002 33.6846 -22.002 71.4219zM81.958 587.121c0 49.3887 47.4072 49.9189 98.7109 274.628l-65.2031 29.667h316.234l-21.082 -47.9238
c16.626 -45.3701 28.417 -154.857 35.4268 -328.623c0 -66.6035 -10.3037 -99.9521 -30.958 -99.9521c-1.13281 0 -2.2959 0.100586 -3.49121 0.300781v99.6514h-59.4434v-99.6514c-1.5752 -0.272461 -3.15137 -0.435547 -4.67285 -0.435547
c-22.4404 0.217773 -33.6875 33.5801 -33.6875 100.087l-7.60742 263.528h-32.6016l-133.231 -178.221c-13.915 -23.0146 -26.8496 -34.5684 -38.7793 -34.5684c-2.87402 0 -19.6143 1.61426 -19.6143 21.5127z" />
</svg>
