<?xml version="1.0" standalone="no"?>
<!DOCTYPE svg PUBLIC "-//W3C//DTD SVG 1.1//EN" "http://www.w3.org/Graphics/SVG/1.1/DTD/svg11.dtd" >
<svg xmlns="http://www.w3.org/2000/svg" xmlns:xlink="http://www.w3.org/1999/xlink" version="1.1" viewBox="-10 0 1054 1000">
   <path fill="currentColor"
d="M436.331 256.757c0 -13.7578 -6.31445 -11.7842 -6.31445 -15.7578c0 -1.49023 1.20215 -3.0752 3.56641 -4.76367c-2.74805 -0.686523 -4.13184 -2.16309 -4.13184 -4.42871c0 -1.67676 0.758789 -3.78711 2.28418 -6.33008
c-0.595703 0.0205078 -1.1748 0.03125 -1.73633 0.03125c-9.19727 0 -13.7949 -2.75586 -13.7949 -8.25586c0 -12.502 21.585 -27.082 30.8535 -70.7793c14.3447 -36.459 35.21 -57.0527 62.7041 -61.834c8.36719 -1.79297 13.1494 -2.7168 14.3447 -2.7168v-57.3789
h-17.0615c-6.5752 0 -9.78027 -4.78125 -9.78027 -14.3447c0 -8.96484 3.20508 -13.4746 9.78027 -13.4746h17.0615v-20.6484c0 -34.0684 11.9531 -51.0752 35.8613 -51.0752c22.7295 0 34.1455 16.1709 34.1455 48.5635c0 0.826172 -0.0078125 1.66406 -0.0224609 2.51172
h-20.6475c0 -13.1484 -2.93457 -19.6689 -8.91113 -19.6689c-5.37988 0 -8.15039 6.52051 -8.15039 19.6689v105.847c5.97656 0 19.5059 3.31445 40.4258 9.88867c31.6777 10.1611 47.4893 48.4131 47.4893 114.758v122.907
c52.5967 8.36719 102.531 17.9307 149.749 28.6895c82.0889 -68.4082 98.21 -82.8721 130.08 -133.666c6.59961 -22.1992 17.5479 -38.0645 32.2754 -47.4893c30.1504 -17.3389 30.1504 -17.3389 32.9131 -17.3389c5.52148 0 8.27246 2.8623 8.27246 8.57715
c0 3.21484 -0.870117 7.33105 -2.60645 12.3477c6.11816 12.7266 9.1748 24.1133 9.1748 34.1504c0 14.4746 -6.3584 26.1406 -19.0645 34.9648c-13.8955 5.23047 -25.5771 12.6748 -42.1641 15.2139c-26.2988 55.585 -61.5088 102.205 -105.738 139.86
c-18.9531 1.87207 -37.1152 2.81055 -54.4785 2.81055c-65.2217 0 -89.0938 -12.7803 -121.311 -12.7803c-9.43457 0 -15.1357 1.55371 -17.1025 4.64453v40.3174h-4.45508c-7.17285 39.4473 -13.4219 87.6436 -18.8008 144.425
c12.8926 24.9443 19.333 48.5859 19.333 70.915c0 25.2871 -8.26074 48.8906 -24.7666 70.792c5.76465 -1.52246 11.0166 -2.28418 15.7559 -2.28418c21.2988 0 32.2227 15.3857 32.7119 46.1875l-26.9502 154.313h-85.1992v-24.2334
c0 -9.56348 13.4209 -14.3447 40.3174 -14.3447l7.28125 -92.3711c-89.709 67.54 -160.02 111.497 -210.823 131.819h-52.0537c-15.958 -10.2607 -35.8184 -23.0303 -43.1426 -41.6221c1.67676 7.02832 2.51758 13.2686 2.51758 18.7148
c0 10.0889 -2.88867 17.4492 -8.71191 22.0371h-187.35c-5.70508 -11.4102 -8.56348 -20.0977 -8.56348 -26.0615c0 -6.5332 3.42871 -9.7998 10.3027 -9.7998h17.0605c32.2764 -11.9541 58.3027 -20.7021 78.0264 -26.0811
c19.1445 -5.2207 28.7158 -13.7686 28.7158 -25.7441c0 -3.14551 -5.75195 -115.635 -5.75195 -194.122c0 -64.9219 0 -112.886 47.8906 -112.886c73.5156 4.78125 143.5 35.9697 209.845 93.3486c-12.5518 -70.5283 -28.3633 -131.602 -47.4902 -183.003
c-8.69824 -43.4932 -26.9336 -43.4932 -42.2207 -43.4932c-31.8574 0 -50.6523 10.5771 -113.827 10.5771c-18.6357 0 -38.3799 -0.983398 -59.2305 -2.94531c-38.8496 -39.4482 -72.7012 -85.5254 -101.39 -138.122c-13.584 -0.754883 -13.584 -0.754883 -57.3789 -20.6475
h-0.869141c-10.0537 -6.24023 -15.0801 -16.6846 -15.0801 -31.3535c0 -10.623 2.63574 -23.4609 7.90723 -38.5225l37.709 -3.58594c18.5283 12.5518 31.9492 29.8301 40.3174 51.9453h-0.869141c55.1426 73.0254 63.3555 54.5361 133.557 134.535
c40.6436 -10.1611 88.2959 -18.5283 142.687 -25.1035c26.1895 -11.3877 55.8809 -17.1045 89.1191 -17.1045c1.6543 0 3.31836 0.0146484 4.99023 0.0429688c-0.597656 -20.9189 -5.10742 -34.6113 -13.4756 -41.1865h-19.6689
c-1.08203 10.8066 -28.8145 46.7695 -43.1875 46.7695c-0.12793 0 -10.0137 -0.172852 -10.0137 -7.98828c0 -2.28223 0.751953 -10.6289 11.4707 -13.6777c11.7148 -3.33301 18.2471 -20.3281 18.2471 -29.1367c0 -3.70996 -0.870117 -7.14355 -2.59863 -10.3115
c0.09375 -1.30957 0.140625 -2.54688 0.140625 -3.71191zM474.77 141.147c22.7119 5.97754 41.5664 13.1494 56.5088 21.5176c7.88965 -5.91797 15.668 -8.87598 23.3662 -8.87598c25.2744 0 26.3828 24.5811 26.3828 28.8916c0 11.6885 -3.79395 24.2568 -28.2314 58.8799
v178.547h71.8311v-208.976c0 -58.5732 -13.5293 -92.2617 -40.4258 -100.955c-14.9902 -4.85156 -29.1582 -7.27734 -42.502 -7.27734c-24.584 0 -61.5029 10.0254 -66.9297 38.248zM465.66 237.722c0 2.625 -5.66504 3.91797 -16.9814 3.91797
c-1.62012 0 -3.35547 -0.0263672 -5.20703 -0.0791016c2.50195 2.50195 3.73438 5.37402 3.73438 8.61621c0 3.07031 -0.956055 4.50488 -0.956055 6.08496c0 3.45605 3.96484 5.17188 11.7646 5.17188c52.4248 0 63.2812 -30.1279 73.2637 -81.707
c-24.5049 -11.9541 -48.4131 -20.0508 -71.7227 -24.2344c-7.17285 17.333 -17.3877 36.7314 -30.5371 58.248c9.98633 0.499023 15.043 3.91797 15.043 10.2578c0 1.24902 -0.196289 2.61133 -0.589844 4.08691c1.14844 -0.957031 2.55371 -1.43457 4.21973 -1.43457
c6.02246 0 17.9688 7.90723 17.9688 11.0713zM473.576 165.138c5.62891 0 5.62891 0 43.3574 13.7188l4.56445 4.45605c-33.0488 -2.75391 -33.2402 -9.66699 -48.0498 -9.66699c-5.75977 0 -12.1602 1.11816 -19.2178 3.36426v-8.91113
c8.84375 -2.41211 15.0674 -2.96094 19.3457 -2.96094zM551.561 171.85c-4.04785 0 -8.99805 2.33594 -14.8486 7.00684c-5.97656 40.6436 -19.126 68.1377 -39.4473 82.4824c11.9531 12.5508 18.2021 30.4824 18.7998 53.792c0 8.36816 5.05273 12.6055 15.2139 12.6055
v-92.3701c29.5098 -36.6338 30.8633 -45.0146 30.8633 -51.1328c0 -7.1582 -4.875 -12.3838 -10.5811 -12.3838zM447.058 192.224c18.4297 -10.2119 10.0449 -13.1562 23.5059 -13.1562c10.7002 0 23.6484 5.79883 31.1562 9.56934h20.6475v5.43359h-19.7783
c-12.2959 5.46484 -22.8164 8.19727 -31.584 8.19727c-6.5752 0 -12.1641 -1.53711 -16.7744 -4.61035h-7.17285v-5.43359zM466.728 185.051c-5.37891 2.39062 -8.31348 5.16211 -8.91113 8.15039c2.98828 1.19531 6.57422 2.39062 10.7588 3.58594
c-1.88379 -2.26074 -2.83887 -4.67188 -2.83887 -7.19336c0 -1.47949 0.328125 -2.99609 0.991211 -4.54297zM480.203 185.051c1.79297 2.0918 2.68945 4.03516 2.68945 5.82812s-0.896484 3.43652 -2.68945 4.93066c4.78125 -0.597656 10.1064 -2.06445 16.083 -4.45605z
M490.961 331.323l-53.792 8.91113c11.0391 12.7119 43.1963 49.7412 94.1094 52.9229v-45.751c-10.7588 0 -24.1797 -5.3252 -40.3174 -16.083zM444.341 378.812c5.18164 55.6797 25.502 63.6416 55.5312 235.926l96.9355 -28.7979
c5.97656 -60.9648 12.4971 -109.704 19.6689 -146.163h-85.1982v-26.8418c-29.7178 -3.30176 -48.5186 -12.2773 -86.9375 -34.123zM294.657 638.306c0 -46.6807 -7.08398 -67.6943 -17.127 -84.6406c-19.6719 0 -24.4443 3.24512 -31.4062 20.6475
c-3.23535 25.5244 -4.8584 67.8145 -4.8584 126.872c0 39.1328 0.712891 85.627 2.1416 139.482c0 19.7236 -3.31445 30.4814 -9.88867 32.2754c-41.2412 10.1602 -66.8877 17.333 -77.0479 21.5166c-10.1611 4.18359 -25.1582 6.95508 -44.8818 8.15039v6.19434h153.336
c5.2832 -2.6416 7.92969 -8.28613 7.92969 -16.9414c0 -7.01074 -1.73633 -15.9961 -5.21289 -26.9619c1.49902 -109.423 27.0156 -143.196 27.0156 -226.595zM299.047 553.665c7.17285 14.3447 11.9541 33.8516 14.3447 58.3564l26.8418 160.508
c43.0342 -47.2178 87.1006 -87.8604 131.928 -121.93c-57.9766 -54.9873 -115.735 -87.3711 -173.114 -96.9346zM607.565 612.891c-42.4355 0.597656 -92.0986 24.3428 -148.88 71.2891c-56.7803 46.9463 -99.2715 89.5449 -127.362 127.798
c11.9531 10.1602 23.6357 20.9189 34.9922 32.2754c30.4824 -43.6318 96.1738 -76.8311 197.238 -99.543c37.2383 -31.918 55.8838 -62.5889 55.8838 -91.9941c0 -13.5439 -3.95605 -26.8193 -11.8721 -39.8252zM310.737 713.198
c0 1.50098 -18.0762 20.4912 -22.3877 148.553c0.835938 -15.751 20.9805 -47.751 36.6699 -71.291zM367.153 904.372c5.09375 0 10.502 -0.297852 16.2227 -0.893555c101.069 -46.4365 192.214 -126.075 217.669 -126.075c12.0947 0 18.1484 10.3291 18.1484 30.9873
l-8.91113 89.6543l-44.0117 5.43359v6.30273h53.793c20.791 -140.944 20.791 -140.944 20.791 -143.715c0 -13.7764 -6.30078 -21.4463 -18.9443 -23.0957c-48.1221 5.34668 -17.4502 19.8428 -128.667 45.207c-43.3594 9.88965 -85.6875 38.1445 -126.928 84.7646
l-45.751 -41.1865c-6.20898 13.3037 -9.32031 24.7734 -9.32031 34.416c0 35.5645 43.126 38.2002 55.9092 38.2002z" />
</svg>
