<?xml version="1.0" standalone="no"?>
<!DOCTYPE svg PUBLIC "-//W3C//DTD SVG 1.1//EN" "http://www.w3.org/Graphics/SVG/1.1/DTD/svg11.dtd" >
<svg xmlns="http://www.w3.org/2000/svg" xmlns:xlink="http://www.w3.org/1999/xlink" version="1.1" viewBox="-10 0 915 1000">
   <path fill="currentColor"
d="M248.249 187.694c0 -5.50195 0 -15.793 21.0479 -15.793l8.15039 -17.6045l-6.7373 -8.15039c-3.24219 0 -4.88477 -3.28711 -4.88477 -9.83984c0 -2.56152 0.250977 -5.62109 0.754883 -9.17773c-30.7539 0 -46.0762 -19.832 -46.0762 -59.6602
c0 -28.9609 16.2461 -43.4688 48.793 -43.4688c10.8672 0 18.0938 1.41211 21.7344 4.12891c19.0176 -68.7344 72.8643 -103.129 161.486 -103.129c94.9785 0 148.717 34.3945 161.377 103.129c3.64062 -2.7168 10.8672 -4.12891 21.7344 -4.12891
c32.5469 0 48.9023 14.5078 48.9023 43.4688c0 39.8281 -15.4316 59.6602 -46.1855 59.6602c0.516602 3.64648 0.776367 6.77051 0.776367 9.37012c0 6.4248 -1.58594 9.64746 -4.79688 9.64746l-6.84668 8.15039l8.15039 17.6045c21.1523 0 21.1523 10.374 21.1523 15.6592
c0 7.36426 -1.60352 13.5088 -4.85156 18.3555l29.8848 52.9229c67.8652 59.7148 101.717 100.304 101.717 122.038c-0.923828 26.2441 -40.209 80.5801 -118.018 162.898c21.7344 20.8115 32.6016 48.3047 32.6016 82.6992l-25.8643 208.976l81.5039 21.7344
c74.168 0 111.171 14.0186 111.171 42.0557v25.7559h-221.146c-50.6406 0 -75.9619 -17.1162 -75.9619 -51.5107c0 -29.8301 4.56445 -45.6963 13.584 -47.4893c-21.7344 -77.8086 -32.6016 -125.299 -32.6016 -142.469c0 -19.8867 5.05371 -37.166 14.9971 -51.6191
c-25.3203 -11.7363 -62.4316 -46.5654 -111.279 -104.433c-48.8486 57.8672 -85.96 92.6963 -111.28 104.433c9.94336 14.4531 14.8887 31.7324 14.8887 51.6191c0 17.1699 -10.7588 64.6602 -32.4932 142.469c9.01953 1.79297 13.4756 17.6592 13.4756 47.4893
c0 34.3945 -25.3213 51.5107 -75.9619 51.5107h-221.146v-25.7559c0 -28.0371 37.1113 -42.0557 111.279 -42.0557l81.3955 -21.7344l-25.7549 -208.976c0 -34.3945 10.7578 -61.8877 32.4922 -82.6992c-77.8086 -82.3184 -117.094 -136.654 -118.018 -162.898
c0 -21.7344 33.96 -62.3232 101.826 -122.038l29.7754 -52.9229c-3.22754 -4.81738 -4.74707 -10.917 -4.74707 -18.2217zM452.518 -50.5488c-85.96 0 -138.448 38.0352 -157.466 113.996c-13.584 -14.4531 -25.7549 -21.7344 -36.6221 -21.7344
c-14.4531 0 -21.7344 6.73828 -21.7344 20.3223l48.9023 6.7373c-6.35742 10.8672 -9.4541 21.7344 -9.4541 32.6016c0.693359 -4.07812 4.38574 -6.10547 11.1455 -6.10547c2.24707 0 4.83398 0.224609 7.7627 0.671875c13.584 -65.1484 39.8828 -97.6953 78.7871 -97.6953
c35.2637 0 61.5078 6.35645 78.6787 19.0166c17.1699 -12.6602 43.4141 -19.0166 78.6777 -19.0166c38.9043 0 64.7139 32.5469 77.374 97.6953c3.15918 -0.447266 5.94922 -0.671875 8.37305 -0.671875c7.28809 0 11.2559 2.02734 11.9492 6.10547
c0 -10.8672 -3.20605 -21.7344 -9.56348 -32.6016l48.9023 -6.7373c0 -13.584 -7.28125 -20.3223 -21.7344 -20.3223c-10.8672 0 -23.4736 7.28125 -37.9268 21.7344c-19.0176 -75.9609 -71.0166 -113.996 -156.052 -113.996zM373.839 17.2617
c-19.8867 0 -34.9375 8.15039 -44.8809 24.4512c14.7207 -9.47656 28.5596 -14.2148 41.4746 -14.2148c9.2998 0 18.1191 2.45605 26.4443 7.36914v4.12891c-6.64551 -2.65234 -13.6064 -3.97949 -20.8799 -3.97949c-17.4658 0 -36.7383 7.65332 -57.7979 22.9971
c-1.79297 3.64062 -3.20605 7.66211 -4.12988 12.1719c19.2949 -14.8291 56.8574 -22.1846 67.1699 -22.1846c20.1143 0 34.8408 12.3682 44.1104 37.0723c0.930664 0.19043 1.80273 0.286133 2.61719 0.286133c3.13477 0 5.41406 -1.41797 6.83691 -4.30664
c0 -30.7549 -20.2676 -52.0537 -60.9648 -63.791zM426.653 91.9199c-8.65234 0 -13.6953 -27.04 -42.2471 -27.04c-11.5977 0 -26.46 3.58203 -44.5811 10.7393c39.3057 -3.13965 39.3057 -3.13965 40.4219 -3.13965c17.4424 0 26.085 10.5244 26.085 31.6113h-8.15039
v-4.02051h-20.3213c-17.1709 0 -25.7559 -5.97754 -25.7559 -17.7139l-43.4688 4.12988c-4.44629 8.85352 -6.65918 18.2656 -6.65918 28.2354c0 27.8691 12.209 35.5547 25.6768 35.5547c28.9697 0 40.7881 -43.4688 92.2627 -43.4688v6.84668
c-52.5918 0 -54.8232 42.0557 -92.2627 42.0557c-17.1699 0 -28.0908 -7.77051 -32.6016 -23.1475h-1.30371c4.50977 19.8867 15.8115 29.8848 33.9053 29.8848c41.0303 0 45.8125 -46.1855 92.2627 -46.1855v5.43359c-18.0938 0 -36.1338 11.791 -54.2275 35.3184v113.996
c0 11.7373 -5.05273 17.6055 -14.9961 17.6055s-19.2354 -4.02148 -27.8203 -12.1719s-14.2363 -13.2031 -16.9531 -14.9961c11.2705 58.7988 50.834 97.2949 73.2451 166.919l-5.3252 6.84668c4.82129 4.82129 9.20801 7.24902 13.208 7.24902
c5.81738 0 5.81738 -2.72559 5.81738 -4.45996c0 -28.1982 -26.2861 -55.8984 -26.2861 -99.3682c0 -11.832 0.397461 -33.7178 31.6035 -33.7178c24.3965 0 36.6221 9.4541 36.6221 28.4717c0 2.7168 -1.30371 4.12988 -4.02051 4.12988
c-16.3008 0 -24.4512 4.02051 -24.4512 12.1709s6.35742 12.1709 19.0176 12.1709c0 26.2441 9.07422 39.4482 27.168 39.4482s27.0586 -13.2041 27.0586 -39.4482c12.6602 0 19.0176 -4.02051 19.0176 -12.1709s-8.15039 -12.1709 -24.4512 -12.1709
c-2.7168 0 -4.02051 -1.41309 -4.02051 -4.12988c0 -19.0176 12.2256 -28.4717 36.6221 -28.4717c31.207 0 31.6035 21.8877 31.6035 33.7178c0 43.4697 -26.2861 71.1699 -26.2861 99.3682c0 1.74414 0 4.45996 5.8457 4.45996c4.03125 0 8.4668 -2.42773 13.2881 -7.24902
l-5.43359 -6.84668c22.4092 -69.6172 61.9756 -108.124 73.2451 -166.919c-2.7168 1.79297 -8.36816 6.8457 -16.9531 14.9961s-17.876 12.1719 -27.8203 12.1719c-9.94336 0 -14.8877 -5.86816 -14.8877 -17.6055v-113.996
c-18.0938 -23.5273 -36.2422 -35.3184 -54.3359 -35.3184v-5.43359c46.5752 0 51.3604 46.1855 92.2627 46.1855c18.0938 0 29.5039 -9.99805 34.0137 -29.8848h-2.7168c-3.64062 15.377 -14.127 23.1475 -31.2969 23.1475c-37.3125 0 -39.5449 -42.0557 -92.2627 -42.0557
v-6.84668c51.8398 0 61.3506 43.4688 92.2627 43.4688c20.125 0 25.6768 -16.9033 25.6768 -35.5547c0 -9.96973 -2.21289 -19.3818 -6.65918 -28.2354l-43.3604 -4.12988c0 11.7363 -8.69336 17.7139 -25.8633 17.7139h-20.3223v4.02051h-8.15039
c0 -21.0869 8.72949 -31.6113 26.1895 -31.6113c1.13672 0 1.13672 0 40.3174 3.13965c-18.1211 -7.15723 -32.9541 -10.7393 -44.5225 -10.7393c-28.4385 0 -33.5869 27.04 -42.3057 27.04l-4.06738 0.671875c-4.07812 0 -8.15527 -2.02734 -12.2334 -6.10547
c0 -28.0381 11.3018 -51.1299 33.9053 -69.2246l-43.3594 17.6055l-43.4688 -17.6055c22.6035 18.0947 33.9053 41.1865 33.9053 69.2246l-12.2334 6.10547c-1.35547 0 -2.71191 -0.224609 -4.06738 -0.671875zM431.959 144.809
c0 2.63574 -1.29199 5.79785 -3.89258 9.48828c8.15039 4.0752 16.1787 6.11328 24.0908 6.11328c7.91309 0 15.71 -2.03809 23.3984 -6.11328c-2.0332 -3.375 -3.04688 -6.30859 -3.04688 -8.80078c0 -9.64453 17.3672 -11.0654 17.6875 -11.0654
c5.6084 0 10.2139 2.99414 13.8311 8.99902l2.7168 -1.30371c-3.64062 -6.35742 -10.8672 -10.4873 -21.7344 -12.2803v-5.43359c36.1875 14.4531 52.9902 36.834 52.9902 67.5879c0 28.9609 -6.31543 52.2773 -21.6924 69.4473c5.43359 0 8.04199 4.12988 8.04199 12.2793
c0 9.94434 -4.94531 15.3779 -14.8887 16.3008c-11.7363 0 -17.6045 -6.35645 -17.6045 -19.0176l2.7168 -9.5625c-12.6602 16.3008 -26.6787 24.4512 -42.0557 24.4512s-29.3965 -8.15039 -42.0566 -24.4512l2.7168 9.5625c0 12.6611 -5.97656 19.0176 -17.7129 19.0176
c-9.94336 -0.922852 -14.8877 -6.35645 -14.8877 -16.3008c0 -8.14941 2.71582 -12.2793 8.14941 -12.2793c-15.377 -17.1699 -21.7266 -40.4863 -21.7266 -69.4473c0 -30.7539 16.7285 -53.1348 52.916 -67.5879v5.43359
c-10.8672 1.79297 -18.0938 5.92285 -21.7344 12.2803l1.41211 1.30371c4.23242 -6.00488 9.21191 -8.99902 15.002 -8.99902c1.15625 0 17.3633 1.69043 17.3633 10.3779zM590.856 70.1855c-0.923828 -4.50977 -2.22852 -8.53125 -4.02148 -12.1719
c-21.0596 -15.3438 -40.332 -22.9971 -57.7979 -22.9971c-7.27344 0 -14.2344 1.32715 -20.8799 3.97949v-4.12891c8.3252 -4.91309 17.126 -7.36914 26.4033 -7.36914c12.8838 0 26.6865 4.73828 41.4072 14.2148c-9.94336 -16.3008 -24.8857 -24.4512 -44.7725 -24.4512
c-40.6973 11.7373 -61.0732 33.0361 -61.0732 63.791c1.42285 2.88867 3.70215 4.30664 6.83691 4.30664c0.814453 0 1.68652 -0.0957031 2.61719 -0.286133c9.26953 -24.7041 23.9961 -37.0723 44.1104 -37.0723c10.2998 0 47.8682 7.35059 67.1699 22.1846z
M235.392 72.9023c0 23.5273 9.4541 35.3184 28.4717 35.3184l6.84668 -31.2979zM669.534 72.9023l-35.209 4.02051l6.7373 31.2979c19.0176 0 28.4717 -11.791 28.4717 -35.3184zM452.518 81.0527c10.8672 5.43359 17.9844 13.0947 21.625 23.0381l-21.625 -1.30371
l-21.7344 1.30371c3.64062 -9.94336 10.8672 -17.6045 21.7344 -23.0381zM404.244 157.908c-3.44922 0 -8.19043 -1.20215 -14.2129 -3.61133c-9.94336 6.35742 -14.8877 19.0176 -14.8877 38.0352c0 20.8105 7.28027 43.7949 21.7334 69.1152l2.7168 6.8457
c0 4.51074 -1.79297 6.73828 -5.43359 6.73828c-5.43359 0 -8.15039 -2.22754 -8.15039 -6.73828c-0.104492 1.02148 -0.157227 1.98633 -0.157227 2.89355c0 7.10254 3.2041 10.6904 9.6123 10.6904c7.30957 0 11.0068 -3.69922 11.0068 -11.0547
c0 -4.125 0 -4.125 -24.5908 -93.4873c26.2441 8.15039 49.8262 12.2803 70.6367 12.2803s44.2832 -4.12988 70.5273 -12.2803c-24.502 89.4561 -24.502 89.4561 -24.502 93.5801c0 7.29395 3.63965 10.9619 10.918 10.9619c6.4082 0 9.6123 -3.58789 9.6123 -10.6904
c0 -0.907227 -0.0527344 -1.87207 -0.157227 -2.89355c0 4.51074 -2.6084 6.73828 -8.04199 6.73828c-3.64062 0 -5.43359 -2.22754 -5.43359 -6.73828l2.7168 -6.8457c14.4531 -25.3203 21.625 -48.3047 21.625 -69.1152c0 -19.0176 -5.32422 -31.6777 -16.1914 -38.0352
c-5.61328 2.40918 -10.0303 3.61133 -13.2461 3.61133c-10.6934 0 -3.44531 -13.6396 -11.3066 -13.6396c-1.50781 0 -6.61426 1.27441 -6.61426 5.37402c0 3.85547 3.43945 5.89355 3.43945 9.99707c0 6.66504 -11.9609 16.3916 -33.3457 16.3916
c-21.3965 0 -33.4551 -9.66699 -33.4551 -16.3916c0 -4.11523 3.48047 -6.20215 3.48047 -10.0723c0 -4.12695 -5.2002 -5.2959 -6.51367 -5.2959c-8.01074 0 -0.349609 13.6367 -11.7852 13.6367zM351.342 267.599c0.508789 0 0.762695 -0.239258 0.762695 -0.717773
v-97.6963c-9.33789 3.1123 -17.7314 4.67383 -25.1484 4.67383c-17.3076 0 -31.7451 -10.6064 -35.9248 -16.8447c-5.54297 29.4893 -18.0459 30.6904 -18.0459 38.165c0 19.792 74.082 72.4199 78.3564 72.4199zM578.012 173.858
c-7.38672 0 -15.7441 -1.56152 -25.082 -4.67383v97.6963c0 0.478516 0.25293 0.717773 0.757812 0.717773c4.15918 0 78.2529 -52.6338 78.2529 -72.4199c0 -7.47363 -12.5029 -8.67578 -18.0459 -38.165c-4.21777 6.29395 -18.7031 16.8447 -35.8828 16.8447z
M390.031 189.615c20.8105 54.2812 41.6758 81.3945 62.4863 81.3945s41.5664 -27.1133 62.377 -81.3945c-20.8105 6.35742 -41.5664 9.4541 -62.377 9.4541s-41.6758 -3.09668 -62.4863 -9.4541zM406.332 201.786c9.94336 2.7168 25.375 4.12988 46.1855 4.12988
s36.1328 -1.41309 46.0762 -4.12988c-14.4531 37.1113 -29.7754 55.6406 -46.0762 55.6406s-31.7324 -18.5293 -46.1855 -55.6406zM421.328 211.35c1.79297 9.94336 9.88965 20.7559 24.3428 32.4932l-12.1709 -31.1895zM483.706 211.35l-12.2803 1.30371l-12.1709 31.1895
c14.4531 -11.7373 22.6582 -22.5498 24.4512 -32.4932zM251.692 261.447c-64.2246 64.2246 -96.3916 103.673 -96.3916 118.126c0 19.0176 34.3945 65.9639 103.129 141.056l9.56348 -10.8672l-90.958 -124.755c70.582 -49.7715 111.279 -92.6973 122.146 -128.885
c-20.2764 -14.292 -18.6836 -19.4111 -22.8799 -19.4111c-6.23145 0 -16.7627 13.4756 -24.6094 24.7363zM605.853 256.122c10.8672 36.1875 51.4561 79.1133 122.038 128.885l-90.8486 124.755l9.4541 10.8672c68.7344 -75.0918 103.129 -122.038 103.129 -141.056
c0 -14.4531 -32.0576 -53.9014 -96.2832 -118.126c-12.5596 -18.0244 -20.208 -24.7363 -24.6094 -24.7363c-4.19531 0 -2.60645 5.12109 -22.8799 19.4111zM505.312 439.211c0 -18.2441 24.5439 -58.1826 24.5439 -100.663c0 -17.0713 -7.68848 -26.0205 -23.1123 -26.8945
c-20.8105 0 -31.1885 7.28125 -31.1885 21.7344c18.0938 0 27.168 5.43359 27.168 16.3008s-6.84668 16.3008 -20.4307 16.3008c0 25.3203 -9.88867 37.9268 -29.7754 37.9268c-19.8877 0 -29.8848 -12.6064 -29.8848 -37.9268
c-13.584 0 -20.3223 -5.43359 -20.3223 -16.3008s8.96582 -16.3008 27.0596 -16.3008c0 -14.4531 -10.3779 -21.7344 -31.1885 -21.7344c-15.4238 0.874023 -23.1123 9.82324 -23.1123 26.8945c0 42.5889 24.6504 82.6797 24.6504 100.626
c0 6.3877 -4.20312 9.62305 -12.4053 9.62305c-9.01953 0 -15.8115 -3.64062 -20.3213 -10.8672l6.8457 -10.8672l-12.2793 -23.1465v39.4473l-71.9414 81.3955c-36.207 33.5566 -54.2607 66.5957 -54.2607 99.2695c0 2.26953 7.0752 63.9834 17.6387 226.31
c-38.9043 17.1709 -78.1895 28.0918 -118.018 32.6016c-44.3379 1.79297 -67.4307 9.07422 -69.2236 21.7344h195.392c2.23633 0.110352 4.4043 0.166016 6.50391 0.166016c31.8574 0 47.832 -12.7627 47.832 -38.2012c0 -14.4531 -5.43359 -27.0586 -16.3008 -37.9258
c22.6035 -76.8857 33.9053 -125.299 33.9053 -145.186c0 -14.4531 -9.4541 -36.2422 -28.4717 -65.2031c37.9805 -18.0938 78.624 -55.2051 122.038 -111.279h51.6191c43.4141 56.0742 84.166 93.1855 122.146 111.279c-19.8867 28.9609 -29.8848 50.75 -29.8848 65.2031
c0 19.8867 11.791 68.2998 35.3184 145.186c-10.8672 10.8672 -16.3008 23.4727 -16.3008 37.9258c0 25.4385 15.8789 38.2012 47.7256 38.2012c2.09766 0 4.26562 -0.0556641 6.50195 -0.166016h195.392c-1.79297 -12.6602 -24.8857 -19.9414 -69.2236 -21.7344
c-39.8281 -4.50977 -79.1133 -15.4307 -118.018 -32.6016c10.5635 -162.326 17.6387 -224.04 17.6387 -226.31c0 -32.6738 -18.0537 -65.7129 -54.2607 -99.2695l-71.9414 -81.3955v-39.4473l-12.1709 23.1465l6.7373 10.8672
c-4.50977 7.22656 -11.3018 10.8672 -20.3213 10.8672c-8.18555 0 -12.2988 -3.22266 -12.2988 -9.58594zM295.052 318.5c-20.8105 27.1133 -47 52.9775 -78.6777 77.374l71.9404 93.5664l42.0557 -52.9238v-28.4717c-14.4531 -28.9609 -26.2979 -58.791 -35.3184 -89.5449z
M608.569 318.5c-8.15039 30.7539 -19.5605 60.584 -34.0137 89.5449v28.4717l42.0557 52.9238l71.9404 -93.5664c-31.6777 -24.3965 -58.248 -50.2607 -79.9824 -77.374zM424.156 348.125c0 2.37598 -1.8418 5.13574 -5.54492 8.30078
c1.3584 -2.7168 2.03711 -4.9043 2.03711 -6.58105c0 -4.01465 -4.13379 -4.19727 -4.88672 -4.19727c-2.03223 0 -4.27441 0.917969 -6.71289 2.7373c2.42285 -4.21582 5.06152 -6.40039 7.87695 -6.40039c2.63672 0 7.23047 2.56934 7.23047 6.14062zM488 341.984
c2.81543 0 5.4541 2.18457 7.87695 6.40039c-2.43848 -1.81934 -4.63184 -2.7373 -6.63184 -2.7373c-0.68457 0 -4.86035 0.165039 -4.86035 4.19727c0 1.67676 0.679688 3.86426 2.03809 6.58105c-3.70312 -3.16504 -5.54492 -5.9248 -5.54492 -8.30078
c0 -3.5 4.5 -6.14062 7.12207 -6.14062zM437.521 349.688h6.84668v5.43359c-1.81348 -0.231445 -3.54785 -0.347656 -5.20117 -0.347656c-4.93262 0 -9.13477 1.0293 -12.5127 3.06445c0.923828 -5.43359 4.50977 -8.15039 10.8672 -8.15039zM460.668 349.688h6.7373
c6.35742 0 9.94336 2.7168 10.8672 8.15039c-3.37793 -2.03516 -7.51855 -3.06445 -12.4209 -3.06445c-1.64258 0 -3.37012 0.116211 -5.18359 0.347656v-5.43359zM438.028 360c1.16016 0 2.36816 0.605469 3.62207 1.85938c0 4.125 -1.5 6.25 -4.54199 6.25
c-0.438477 0 -4.2666 -0.0683594 -4.2666 -2.44727c0 -1.61426 2.47461 -5.66211 5.18652 -5.66211zM472.121 365.718c0 2.31543 -3.70898 2.3916 -4.19434 2.3916c-3.04199 0 -4.54199 -2.125 -4.54199 -6.25c1.25391 -1.25391 2.36816 -1.85938 3.51465 -1.85938
c2.73145 0 5.22168 4.12012 5.22168 5.71777zM437.521 383.594l14.9971 6.84668l14.8877 -6.84668v4.12988l-14.8877 6.7373l-14.9971 -6.7373v-4.12988zM452.518 408.045c13.584 0.923828 20.3213 8.15039 20.3213 21.7344c0 11.7363 -6.7373 17.6045 -20.3213 17.6045
s-20.4307 -5.86816 -20.4307 -17.6045c0 -13.584 6.84668 -20.8105 20.4307 -21.7344z" />
</svg>
