<?xml version="1.0" standalone="no"?>
<!DOCTYPE svg PUBLIC "-//W3C//DTD SVG 1.1//EN" "http://www.w3.org/Graphics/SVG/1.1/DTD/svg11.dtd" >
<svg xmlns="http://www.w3.org/2000/svg" xmlns:xlink="http://www.w3.org/1999/xlink" version="1.1" viewBox="-10 0 690 1000">
   <path fill="currentColor"
d="M411.58 -75.0146c11.0293 0 16.7734 14.5488 16.7734 19.0049c0 11.0264 -15.584 12.4473 -15.584 22.5791c0 0.8125 0 0.8125 12.4707 51.6855c-9.23633 2.93457 -16.1377 6.84668 -20.9736 11.7363c15.7031 2.44531 27.3857 8.80273 35.1016 19.2354
c0 -8.05469 6.03809 -11.9336 10.0107 -11.9336c1.33691 0 8.57227 0.813477 8.57227 8.78223c0 3.85742 -2.33691 7.28027 -7.06445 10.2148l42.4912 51.4014l-12.3887 3.47754c26.8301 40.2441 30.5771 68.6445 30.5771 109.622
c0 9.31836 -0.448242 17.0889 -1.34473 23.2832h-9.78027c0.597656 21.2451 0.978516 39.8281 0.978516 55.749c4.43652 12.9893 6.64648 29.665 6.64648 50.0088c0 17.5234 -1.63965 37.7695 -4.9082 60.7275c1.55859 1.55859 5.66406 30.9951 6.19434 43.3594
c3.31348 3.31348 4.96973 7.54102 4.96973 12.6777c0 8.5918 -4.63184 19.7295 -13.8809 33.3994c10.0518 0 20.4307 -2.44531 31.0801 -7.17285c1.62598 3.91406 2.43457 7.86133 2.43457 11.8057c0 3.17383 -0.523438 6.34473 -1.56543 9.49414
c-8.91406 -1.86035 -17.6904 -2.79102 -26.2734 -2.79102c-2.19434 0 -4.37695 0.0605469 -6.54492 0.182617l4.45508 43.3604h-15.9746l3.58594 -44.3379c-3.05273 -0.294922 -5.99707 -0.44043 -8.83301 -0.44043c-8.67188 0 -16.333 1.36523 -23.0078 4.02637
c-1.65527 -3.98633 -2.49805 -8.00684 -2.49805 -12.0234c0 -3.10059 0.501953 -6.19922 1.52051 -9.27637c10.0518 4.72754 20.4297 7.17285 31.0801 7.17285c-9.58398 -14.8652 -14.416 -25.6816 -14.416 -32.4492c0 -0.75293 0.0595703 -1.45605 0.179688 -2.1084
c-0.998047 1.99609 -5.19922 3.27832 -6.16602 3.27832c-1.2998 0 -1.93555 -0.967773 -1.93555 -2.95898c0 -0.620117 4.01172 -28.7666 19.6211 -58.7852c-1.42676 -56.4326 -11.8506 -68.1084 -11.8506 -99.5859c0 -5.72363 0.398438 -11.2178 1.2002 -16.4746
c-4.12891 -16.5186 -7.00879 -32.0586 -8.80176 -46.8379h-7.93359c-17.3643 31.1055 -18.9863 52.832 -18.9863 66.3086c0 38.7861 16.2695 39.2295 16.2695 81.4844c0 17.1162 -4.94434 38.959 -14.9961 65.5293c-0.94043 34.2354 -1.41504 63.7676 -1.41504 88.5859
c0 91.8682 6.03223 71.4746 6.03223 136.145c0 19.499 -0.671875 42.0342 -2.00879 67.5957h-3.58691v42.4912c1.79688 8.54102 2.69922 14.9268 2.69922 19.2188c0 3.625 -0.644531 5.75586 -1.93848 6.42773h197.674v30.1016h-49.6631v46.9463h49.6631v30.1025h-599.541
v-30.1025h50.4238v-46.9463h-50.4238v-30.1016h76.1787c-5.88867 -5.38574 -9.03809 -21.6826 -9.03809 -26.2129c0 -18.0908 8.93848 -23.5703 13.4941 -25.1885v-509.127c-7.6748 -1.11035 -10.9688 -15.8135 -10.9688 -20.6318
c0 -4.16992 1.53418 -7.05273 4.66504 -8.60059c-5.50586 -3.15137 -8.25879 -5.91699 -8.25879 -8.2793c0 -1.18164 0.688477 -2.26172 2.06445 -3.24023h12.498v-74.4395c-1.45605 -11.5107 -3.80664 -17.2227 -6.99316 -17.2227
c-5.19922 0 -17.709 19.499 -19.6318 22.5469c-5.86816 21.5791 -14.1758 32.4307 -24.9512 32.4307c-2.19434 0 -4.49023 -0.450195 -6.88965 -1.35059c14.7793 -31.8945 24.5059 -53.5742 29.2324 -65.0938c13.1182 -31.9648 31.9375 -31.2217 51.293 -77.4824
c5.14746 4.1709 7.7334 8.96875 7.7334 14.3779c0 12.2881 -12.3145 20.2705 -24.5771 49.3027c7.70508 12.6729 11.5801 25.582 11.5801 38.7725c0 0.948242 -0.0205078 1.89844 -0.0605469 2.84961v74.4395c9.4541 0.597656 19.8867 4.72754 31.0801 12.3887
c28.3633 11.1934 53.0859 18.6367 74.3311 22.1689c11.1934 -18.9092 26.2988 -40.1543 45.207 -63.79c12.6396 -21.2598 26.6689 -31.8652 42.0889 -31.8652c0.422852 0 0.84668 0.00878906 1.27148 0.0244141l30.9717 -6.19434v-6.30273
c-19.5371 0 -29.3047 -3.55566 -29.3047 -10.7666c0 -1.29199 0.313477 -2.70215 0.941406 -4.23047c-2.69043 -1.3291 -4.02637 -2.76465 -4.02637 -4.2959c0 -1.15918 0.765625 -2.37305 2.28711 -3.63672c-2.08496 -1.66016 -3.12695 -2.99121 -3.12695 -3.93457
c0 -1.26367 0.775391 -0.145508 3.99609 -4.97656c-8.48828 -0.953125 -8.8623 -5.7959 -8.8623 -6.6416c0 -2.47656 3.87402 -10.543 11.5791 -24.3301c-0.0488281 -0.53418 -0.0732422 -1.09277 -0.0732422 -1.67383c0 -6.50977 3.0752 -15.957 9.31055 -28.4277
c6.57422 -13.2041 20.7021 -19.9414 42.0557 -20.3223v-54.1182c0 -14.792 0 -49.8008 24.4834 -49.8008zM387.097 38.6855c-16.5723 0.325195 -27.2764 4.61816 -31.8408 13.1484h31.8408v-13.1484zM397.638 39.1201c-0.43457 1.03223 -0.760742 2.17285 -0.760742 3.04199
v9.67188h34.5576c-7.87793 -7.38965 -19.2891 -11.5186 -33.7969 -12.7139zM381.772 87.2617h1.84668c0 -9.45508 3.58691 -14.1279 10.6504 -14.1279s10.541 3.26074 10.541 9.78027c0 16.3408 -14.127 25.1328 -14.127 47.8154v113.345h22.1689v-99.2168h7.93262v4.45508
c51.6016 0 67.2676 15.1641 67.2676 33.5801c0 15.3223 -5.65039 26.0264 -16.8438 31.9492l-7.06348 18.583h32.8184c0.896484 -7.66113 1.34473 -16.0293 1.34473 -25.1035c0 -34.4648 0 -54.8701 -55.3545 -136.057l-24.7773 67.2676l-17.7129 -6.19434l37.165 -72.5928
h-40.752v8.80273h-9.78027v-8.80273h-35.4268l-2.6084 4.45605c30.3555 0 31.8242 13.7598 32.7109 22.0605zM352.289 70.1807c-4.84375 0 -4.84375 0 -6.81348 3.82227c1.08398 -0.12207 2.16406 -0.182617 3.23828 -0.182617c4.20215 0 8.32031 0.930664 12.3018 2.79102
c4.99902 2.33691 9.29199 4.12988 12.8232 5.3252v2.7168c-12.0596 -4.19727 -20.0068 -6.29492 -23.9209 -6.29492c-5.47852 0 -9.67969 1.94727 -18.5693 25.7471c6.36426 0 7.94531 2.53125 7.94531 5.50684c0 1.68359 -0.568359 3.68262 -1.75098 6.0127
l12.3887 0.869141v4.45508c-8.09375 1.99316 -9.78125 2.4082 -9.78125 8.80273c0 3.53125 5.65137 5.3252 16.8447 5.3252h13.3662c-0.0410156 1.1748 -0.0615234 2.31543 -0.0615234 3.42188c0 15.001 3.78027 23.6338 11.4727 25.8105v-36.2969
c0 -11.4023 15.418 -37.9004 15.418 -46.376c0 -2.34961 -2.04297 -3.03516 -2.91211 -3.03516c-4.66992 0 -4.66992 6.4668 -4.66992 8.74121c0 1.30566 0.0683594 2.76367 0.205078 4.37402h-12.3887c-2.13965 -18.9688 -15.6182 -21.5361 -25.1357 -21.5361z
M340.15 90.8477h-0.869141v-2.7168h1.84766c2.35938 0 2.1123 -7.93359 10.541 -7.93359c4.12988 0 8.63965 2.6084 13.3672 7.93359h8.80176v2.7168l-8.80176 -0.869141c-5.3252 2.33594 -9.45508 3.47656 -12.3887 3.47656c-7.2168 0 -10.2441 -2.60742 -12.498 -2.60742z
M349.062 84.6533c-3.08203 0 -3.6875 4.45508 -5.32422 4.45508c2.33594 1.19531 4.99902 2.73926 7.93262 2.73926c3.53223 0 7.11816 -1.54395 10.6504 -2.73926c-3.53223 -2.93359 -5.86914 -4.45508 -7.06445 -4.45508
c0.597656 0.597656 0.870117 1.41211 0.870117 2.6084c0 2.33594 -1.52148 3.58594 -4.45605 3.58594c-2.93359 0 -4.34668 -1.25 -4.34668 -3.58594c0 -1.19629 0.542969 -2.01074 1.73828 -2.6084zM364.059 156.376l-24.7773 5.3252l3.58594 14.9971
c10.6504 20.6475 23.582 31.0801 38.9053 31.0801v-36.4053c-10.6504 -2.33594 -16.5186 -7.33496 -17.7139 -14.9971zM428.618 156.803c-2.73242 0 -5.30469 0.199219 -7.83301 0.443359v50.5322c0.820312 0.0419922 1.62598 0.0625 2.41504 0.0625
c21.9531 0 26.5879 -13.0518 38.3369 -46.1396c-15.0859 -3.9082 -25.6445 -4.89844 -32.9189 -4.89844zM141.064 817.86h129.211v-8.80273h15.8652c51.9453 -15.3223 77.918 -35.8066 77.918 -61.1816c4.18359 -44.3564 4.51953 -121.73 4.51953 -125.984
c0 -116.337 -21.458 -89.1436 -23.1025 -176.884c0 -64.9424 11.5195 -63.2715 11.5195 -128.341c0 -25.9727 -3.58594 -43.6855 -10.6504 -53.1406c-17.1152 0 -26.7871 -7.11816 -29.124 -21.2998l14.9971 -23.0381
c-2.40527 -11.9229 -5.36328 -17.8408 -8.87598 -17.8408c-4.30859 0 -25.0605 35.7988 -72.6279 86.9561c-31.2969 -8.25879 -61.9424 -21.5713 -92.0449 -39.8828c-7.66113 4.72754 -14.7793 7.71582 -21.2988 8.91113v509.127
c8.85645 2.93359 13.3662 10.6494 13.3662 23.0381c0.0751953 0.591797 0.112305 1.2207 0.112305 1.8877c0 6.2793 -4.96973 21.8057 -9.78418 26.4756zM349.932 202.453l24.7764 61.0732h45.208l22.1689 -52.2705c-1.79297 2.93359 -8.91113 4.99902 -21.2998 6.19434
v34.5576h-39.0127v-34.5576c-15.3232 -1.19531 -25.9189 -6.14062 -31.8408 -14.9971zM430.441 689.339c0 -37.1523 -6.53906 -36.9424 -6.53906 -138.684c0 -144.271 15.1367 -98.377 17.2041 -159.657c0 -41.5244 -15.1436 -38.3779 -16.7354 -82.373
c0 -14.1816 1.68457 -25.3203 5.2168 -33.5791h-61.0742c4.12988 16.5176 6.19434 32.4922 6.19434 47.8154c0 34.7275 -12.167 68.3418 -12.167 123.021c0 82.374 22.8174 71.3965 22.8174 172.782c0 49.0107 -1.52148 87.0459 -4.45605 114.214h46.0771
c2.30762 -14.5137 3.46191 -29.0273 3.46191 -43.54zM504.233 462.812c-0.698242 0 -2.86816 3.16406 -5.54492 3.16406c-1.66895 0 -2.08984 -1.26367 -3.88086 -1.26367c-2.66895 0 -3.26953 2.83398 -5.82324 2.83398c-2.11523 0 -3.61035 -1.96289 -4.05176 -1.96289
c-0.154297 0 -0.232422 0.155273 -0.232422 0.463867c0 2.06055 3.43652 10.9766 10.416 26.7764c6.2627 -17 9.46484 -26.7354 9.46484 -29.3115c0 -0.668945 -0.213867 -0.700195 -0.347656 -0.700195zM396.008 749.723v32.7109
c4.72754 -1.79297 7.06348 -5.86816 7.06348 -12.3887v-20.3223h-7.06348zM129.437 776.239c-6.52051 0 -10.0518 4.40137 -10.6494 13.2578c0 4.29199 2.28223 14.2354 6.19434 28.3633h8.04102c3.91211 -14.1279 6.19434 -24.0713 6.19434 -28.3633
c-0.597656 -8.85645 -3.85742 -13.2578 -9.78027 -13.2578zM133.893 847.962v46.9463h411.756v-46.9463h-411.756z" />
</svg>
