<?xml version="1.0" standalone="no"?>
<!DOCTYPE svg PUBLIC "-//W3C//DTD SVG 1.1//EN" "http://www.w3.org/Graphics/SVG/1.1/DTD/svg11.dtd" >
<svg xmlns="http://www.w3.org/2000/svg" xmlns:xlink="http://www.w3.org/1999/xlink" version="1.1" viewBox="-10 0 546 1000">
   <path fill="currentColor"
d="M109.658 287.202c25.4502 0 117.433 44.5186 118.561 45.0986c17.5508 -28.2002 37.2744 -56.4551 59.2266 -84.6553c2.49902 -18.7998 16.8984 -31.8945 43.251 -39.4473l19.7783 0.869141c-4.40137 -10.6494 -6.84668 -19.7236 -7.49902 -27.2764h-10.4316
c-10.9004 0 -16.3506 -4.4668 -16.3506 -13.4365c0 -1.3584 0.125 -2.82031 0.375 -4.38574c0.358398 0 0.538086 -0.0576172 0.538086 -0.169922c0 -1.06738 -3.67676 -0.668945 -3.67676 -3.09082c0 -0.970703 0.447266 -2.08301 1.29199 -3.36816
c-1.90234 0 -2.82617 -0.597656 -2.82617 -1.84766l0.978516 -4.67285c-4.99902 0 -7.60742 -1.30371 -7.60742 -3.80371c0 -4.40039 2.82617 -11.9531 8.47656 -22.6035c-0.357422 -1.43164 -0.537109 -3.0957 -0.537109 -4.99219
c0 -0.674805 1.15137 -42.5469 32.7041 -59.0156l-1.08691 -5.54199h-3.80371c-1.875 -0.950195 -2.81152 -1.9834 -2.81152 -3.08984c0 -1.10742 0.936523 -2.28906 2.81152 -3.53906h8.47656c-42.4639 -16.9844 -29.0947 -62.748 -55.5312 -98.3477
c-8.15039 -10.9756 -13.4746 -19.2344 -15.9746 -24.8857c6.24902 1.90137 14.8887 8.58496 25.8643 20.2129c9.88867 10.4326 19.0713 30.9717 27.7109 60.5303c-0.542969 -2.93457 -0.869141 -6.03125 -0.869141 -9.2373c0 -18.2783 10.6025 -54.5527 56.4004 -54.5527
c44.5762 0 57.4873 34.3477 57.4873 54.5527c0 2.8252 -0.326172 5.43359 -0.760742 8.04199c8.04199 -28.8525 16.8984 -49.0107 26.625 -59.335c10.9756 -11.6279 19.6143 -18.3115 25.8633 -20.2129c-9.16113 20.7188 -23.8916 26.2715 -33.9053 70.5283
c-3.47461 15.3545 -9.37109 41.416 -37.6006 52.7051h8.47656c1.5752 1.25 2.36328 2.43164 2.36328 3.53906c0 1.10645 -0.788086 2.13965 -2.36328 3.08984h-3.80371l-1.73828 8.58496c17.1182 13.4746 35.6436 33.0166 35.6436 166.376l0.870117 36.623l5.65039 12.2793
c5.6709 31.8535 8.56738 64.4668 8.56738 97.8809c0 3.4082 -0.0302734 6.82422 -0.0908203 10.248c4.75977 13.8955 7.15234 31.7617 7.15234 53.5742c0 18.5303 -1.72754 39.9082 -5.19629 64.1172c0.132812 0.400391 8.36719 26.1182 8.36719 41.2949
c0 11.7334 -8.57227 23.7598 -10.3232 40.5342c-0.514648 1.97363 -1.68457 4.9873 -4.02734 4.9873c-0.828125 0 -1.64844 -0.447266 -2.49316 -1.29199c0 0.651367 -0.706055 0.977539 -1.95605 0.977539s-2.17285 -0.326172 -2.8252 -0.977539
c0 0.651367 -0.597656 0.977539 -1.84766 0.977539c-0.652344 0 -1.5752 -0.597656 -2.8252 -1.84766c0.1875 0.359375 0.280273 0.665039 0.280273 0.917969c0 0.625977 -0.570312 0.929688 -1.69336 0.929688c-1.5752 0 -2.39062 -1.52148 -2.39062 -4.67285
c2.49902 -10.0518 4.89062 -17.9307 7.06348 -23.582c1.7002 -4.41992 2.60254 -10.5693 2.60254 -18.4473c0 -2.26855 -0.0996094 -10.2979 -1.50684 -10.2979c-0.0878906 0 -2.01953 0.765625 -2.01953 8.55371c0 2.19336 0.163086 4.54297 0.489258 7.04297
c0 0.53125 -0.0419922 15.2686 -4.73633 15.2686c-1.93164 0 -2.63574 -2.32129 -2.63574 -4.52734c0 -1.4082 0.24707 -3.1084 0.743164 -5.09082c-3.1123 -23.8535 -3.1123 -23.8535 -3.1123 -24.3232c0 -7.95215 2.9209 -18.0391 8.76367 -30.2295
c-1.56055 -60.0635 -13.4355 -72.2285 -13.4355 -106.091c0 -5.94336 0.422852 -11.6562 1.26367 -17.1426c-7.55273 -32.6016 -11.6279 -58.6826 -12.2793 -78.1357l-9.3457 18.8008l-3.80371 32.9277c2.75977 38.7422 20.1182 60.7451 20.1182 85.8164
c0 14.415 -2.93848 32.2617 -8.81641 53.5c-5.07324 49.3369 -7.62109 91.4492 -7.62109 126.356c0 33.5215 2.05762 36.8037 2.05762 73.8086c0 100.833 -13.0439 181.332 -13.0439 183.169c0 26.9678 5.60449 19.417 5.60449 33.7959
c0 10.3574 -6.96777 16.168 -20.9023 17.4482h-193.762c-1.86719 -7.58008 -1.86719 -7.58008 -1.86719 -7.88379c0 -18.4805 82.1436 -15.5801 107.278 -57.9717c13.6592 -30.8711 20.8115 -186.863 20.8115 -201.098c0 -24.4648 -19.1025 -113.688 -19.1025 -128.723
c0 -28.9277 7.22656 -97.1143 21.7646 -204.518c0 -13.6318 -12.0527 4.08789 -21.626 -26.2988c5.87793 -8.15039 8.81641 -15.5088 8.81641 -22.0361c0 -2.52441 -0.439453 -4.92383 -1.31836 -7.19629c-26.9502 36.3506 -56.4541 69.332 -88.458 98.7822
c-32.0039 -10.0518 -65.7471 -27.2764 -101.5 -51.7275c-8.80176 6.90039 -17.2783 11.9541 -25.4287 15.1055v592.586h-19.7783v-592.586c-9.24609 0 -13.1494 -16.1475 -13.1494 -20.9824c0 -4.43457 1.88379 -7.45312 5.65137 -9.11914
c-6.14453 -3.69434 -9.22461 -6.99316 -9.22461 -9.88281c0 -1.53125 0.864258 -2.94629 2.5957 -4.24512h14.127v-75.3096c-12.5518 -33.2529 -23.8535 -54.2266 -33.9053 -63.0293c-4.91602 2.6709 -8.78516 4.0459 -11.625 4.0459
c-1.31445 0 -4.34961 -0.317383 -4.34961 -3.24902c0 -0.699219 9.5752 -35.5713 60.2041 -35.5713c51.2012 0 59.4199 34.6465 59.4199 35.3379c0 1.07715 -0.44043 3.48242 -4.37598 3.48242c-2.73828 0 -6.36328 -1.375 -10.8154 -4.0459
c-10.6494 8.80273 -22.2227 29.7764 -34.7744 63.0293v75.3096zM342.976 -4.47168c-0.0449219 0.874023 -0.0683594 1.73828 -0.0683594 2.59082c0 24.6318 20.6074 40.6602 44.1895 40.6602c25.0107 0 44.2295 -17.584 44.2295 -43.251
c0 -17.6777 -11.8271 -42.2734 -44.2295 -42.2734c-32.3369 0 -44.1211 24.6748 -44.1211 42.2734zM378.034 53.7988c29.4482 0 39.502 3.14355 42.8594 4.97559l1.08691 -5.86816h-77.1572l1.41309 7.28125c11.1787 -5.77051 23.5479 -6.38867 31.7979 -6.38867z
M381.555 66.1641c-6.90137 0 -13.1494 0.597656 -18.6914 1.84766h37.5996c-5.70508 -1.25 -11.9531 -1.84766 -18.9082 -1.84766zM401.794 118.907c0 11.5635 -2.71973 20.3477 -8.06836 26.2617v121.277h55.5312v-36.623c0 -146.975 -23.7197 -154.994 -44.9902 -160.942
h-44.3379c-14.3984 4.12988 -23.9072 12.8779 -28.2549 26.4072c3.57227 -0.361328 6.99902 -0.541992 10.2803 -0.541992c13.9883 0 25.3232 3.28613 33.9492 9.8877c4.38086 -1.1377 8.20215 -1.70508 11.4668 -1.70508c14.4189 0 14.4238 11.1367 14.4238 15.9785z
M326.893 111.263c2.49902 -0.651367 5.3252 -0.977539 8.47656 -0.977539c3.74902 0 8.25879 1.30371 13.2578 3.80371h9.3457v3.80273h-9.3457c-5.65137 -1.90137 -10.1064 -2.8252 -13.2578 -2.8252c-1.90234 0 -5.3252 1.19531 -10.3242 3.69531
c-6.90039 14.3984 -10.3232 22.9297 -10.3232 25.4287c4.81934 1.4668 7.2793 3.67773 7.2793 6.63184c0 0.875977 -0.21582 1.81641 -0.650391 2.82227h11.1934c1.90137 0 2.8252 1.52148 2.8252 4.67285c-4.99902 0.652344 -8.0957 3.69531 -9.3457 9.34668
c0.652344 3.74902 3.69434 5.65039 9.3457 5.65039h16.083c2.5 13.8018 6.19434 25.7012 11.1934 35.7529h18.9092v-60.2041c-1.25 1.90234 -3.47754 2.8252 -6.62891 2.8252c-4.40137 0 -6.62891 -2.11914 -6.62891 -6.51953c0 -6.72949 4.70508 -7.11621 4.70508 -15.5479
c0 -4.18359 -1.03516 -6.97754 -1.03516 -11.0742c0 -2.24219 0.37793 -3.72461 1.11133 -4.45801c-9.21484 -9.2168 -22.874 -10.2256 -30.8467 -10.2256c-14.0518 0 -14.1768 0.722656 -15.3389 7.39941zM377.067 122.104c0 2.08984 0.55957 2.63672 0.55957 5.59863
c0 4.17188 -1.23535 9.65918 -3.67969 16.4873c11.3018 -1.25 17.877 -9.40039 19.7783 -24.4512c-0.479492 -5.05566 -2.62598 -7.60938 -6.49219 -7.60938c-6.98633 0 -10.166 5.96387 -10.166 9.97461zM334.132 117.278c4.00977 0 7.89941 0.832031 11.6699 2.46094
h12.1709v4.67285h-14.127c-1.90234 4.99902 -5.3252 7.49902 -10.3242 7.49902c-0.97168 0.168945 -1.92188 0.253906 -2.85156 0.253906c-2.6543 0 -5.1377 -0.693359 -7.47168 -2.10156c1.95898 -12.7852 7.4834 -12.7852 10.9336 -12.7852zM337.858 124.675
c0 1.47656 -0.513672 2.8916 -1.51172 4.41016c2.5 -1.24902 4.72754 -3.74902 6.62891 -7.49805c-2.49902 -0.652344 -5.32422 -0.869141 -8.47559 -0.869141c2.72363 0 3.3584 2.04883 3.3584 3.95703zM328.849 121.587c-1.90137 1.90137 -2.8252 4.12988 -2.8252 6.62891
l3.98438 1.5752c-1.43652 -0.655273 -2.13672 -1.61523 -2.13672 -2.98828c0 -1.5752 0.325195 -3.31445 0.977539 -5.21582zM100.204 131.041c-13.1494 0 -24.3975 2.5 -33.7969 7.49902c12.5508 15.7021 23.7441 37.0566 33.7969 64.0068
c10.0518 -26.9502 21.3535 -48.3047 33.9053 -64.0068c-9.40039 -4.99902 -20.7559 -7.49902 -33.9053 -7.49902zM324.176 223.194c12.2529 10.4717 18.375 22.9209 18.375 37.3379c0 10.6445 -3.33691 22.3613 -10.0068 35.1465c0 6.30078 3.94043 9.43066 11.7812 9.43066
c0.74707 0 1.52832 -0.0283203 2.3457 -0.0849609h75.3096l10.3232 -22.4951h-50.749v-59.335h-57.3789zM427.145 442.087c0 -36.0215 -17.6953 -43.5312 -17.6953 -101.891c0 -3.79102 0.0839844 -7.6543 0.250977 -11.5898h-47.9238
c-15.0508 85.3066 -23.2012 149.857 -24.4512 193.761c0 32.6797 17.9727 72.6318 17.9727 153.23c0 40.5225 -3.50195 90.7285 -10.4746 150.615h59.2266c6.44238 -55.8604 9.6709 -103.998 9.6709 -144.412c0 -22.6406 -1.0127 -42.8574 -3.04199 -60.6504
c1.90137 -25.1035 2.93359 -51.293 3.25977 -78.5703c0.717773 -60.0527 13.2061 -72.7441 13.2061 -100.493zM362.646 839.362c-7.80566 19.8076 -11.6777 35.0449 -11.6777 45.7412c0 2.18457 0.162109 4.17969 0.484375 5.98633
c24.8516 -5.95605 34.5596 -22.0088 34.5596 -38.8008c0 -4.07422 -0.543945 -8.3877 -1.63184 -12.9268h-21.7344z" />
</svg>
