<?xml version="1.0" standalone="no"?>
<!DOCTYPE svg PUBLIC "-//W3C//DTD SVG 1.1//EN" "http://www.w3.org/Graphics/SVG/1.1/DTD/svg11.dtd" >
<svg xmlns="http://www.w3.org/2000/svg" xmlns:xlink="http://www.w3.org/1999/xlink" version="1.1" viewBox="-10 0 875 1000">
   <path fill="currentColor"
d="M606.45 710.176c-43.3975 17.3594 -85.0049 43.7773 -124.77 79.2012l5.4248 3.25488c41.9873 -35.4238 82.8359 -61.8418 122.6 -79.2012zM420.925 673.288l-34.1758 16.0566c14.6465 -4.77344 26.0391 -10.0898 34.1758 -16.0566zM743.153 666.778
c-15.8936 37.5938 -43.0186 56.417 -81.3711 56.417l-42.3135 -6.50977c-95.333 40.0205 -184.439 135.109 -184.439 143.214c0 20.2344 9.76465 36.1826 29.293 47.7373c30.3789 0 121.46 -35.043 273.407 -105.239l15.1885 -1.08496
c10.1445 0 15.1895 21.3193 15.1895 64.0117c0 21.6992 -9.76465 32.5488 -29.293 32.5488c-12.3145 0 -18.4443 1.79004 -18.4443 5.4248v6.50879h63.0352c4.53027 -4.89844 6.7998 -12.4727 6.7998 -22.707c0 -9.37109 -1.90332 -20.9736 -5.71484 -34.7949
c0 -21.6982 5.80469 -51.6973 17.3594 -90.0508c0 -6.50879 -3.95996 -10.8486 -11.9346 -13.0186c-23.8691 10.1436 -81.4795 22.0781 -172.615 35.8027c-46.3271 10.1445 -86.7959 31.084 -121.514 62.9268h-2.16992l-5.4248 -8.67969
c37.5938 -34.7178 75.5664 -55.7119 113.92 -62.9268c84.625 -15.1895 144.025 -27.8291 178.039 -37.9727c16.6797 -13.917 24.9951 -38.1514 24.9951 -72.751c0 -1.40918 -0.0410156 -2.83594 -0.0410156 -4.28027
c-0.000976562 -0.000976562 -61.9512 5.42383 -61.9512 5.42383zM649.849 675.458c-3.37305 0.325195 -6.45996 0.487305 -9.26172 0.487305c-9.8125 0 -16.1201 -1.9873 -18.9473 -5.91211c2.875 -7.21484 7.21484 -10.958 13.0195 -10.958
c7.21484 1.46484 12.3145 6.99805 15.1895 16.3828zM802.935 624.356l-61.9502 17.3594l1.08496 14.1045l63.0352 -5.4248zM799.68 613.507l-58.6953 16.2744v3.25488l59.7803 -16.2744zM400.311 611.337c5.16602 11.5879 7.71094 23.7344 7.71094 36.4785
c0 1.57422 -0.0390625 3.15723 -0.116211 4.75c3.63477 -7.21484 9.05957 -13.7246 16.2744 -19.5293c-6.50977 -6.50977 -12.3145 -15.5693 -17.3594 -27.124zM360.269 590.002c0 6.9209 5.02734 13.6729 15.0889 20.25c18.8232 -7.21484 31.083 -14.8096 36.8877 -22.7832
c0 -14.0869 -2.68164 -28.377 -14.6777 -28.377c-11.0166 0 -37.2988 16.0723 -37.2988 30.9102zM355.828 557.09l-8.67969 4.33984c1.22852 0.927734 2.52734 1.38965 3.89551 1.38965c1.83203 0 3.78809 -0.828125 5.86914 -2.47461zM449.134 564.685
c-7.97461 15.1895 -17.7393 26.418 -29.2939 33.6338c5.04492 8.67871 11.5547 16.2734 19.5293 22.7832c12.3135 -8.67969 23.8682 -14.1045 34.7178 -16.2744c42.6934 -34.7178 82.0762 -60.7568 118.261 -78.1162c-44.8643 12.3145 -92.5469 24.9541 -143.214 37.9736z
M436.114 541.9c-12.0498 -3.51855 -21.9951 -5.23047 -29.8555 -5.23047c-3.28711 0 -6.20898 0.298828 -8.76855 0.890625c1.08496 3.52637 2.06152 6.07617 2.82031 7.59473c13.0195 0.705078 20.6143 12.6396 22.7842 35.8037
c9.38477 -9.38477 15.8945 -18.0645 19.5293 -26.0391c49.6299 -15.9668 117.125 -31.8604 142.128 -40.1426c-5.8457 -5.8457 -8.74707 -12.4492 -8.74707 -19.832c0 -2.68848 0.384766 -5.48047 1.15234 -8.37695c-20.9941 5.04492 -67.9717 23.4893 -141.043 55.332z
M592.347 476.804c-3.0498 5.87109 -4.57617 11.1748 -4.57617 15.9072c0 9.83008 6.58301 17.1963 19.7646 22.0664c13.7246 -27.5039 26.7441 -50.2881 39.0586 -68.3516c-15.8945 15.8945 -34.0127 26.0381 -54.2471 30.3779zM730.135 659.075
c0.972656 -11.5234 1.44238 -24.792 1.44238 -39.8213c0 -7.61133 -0.120117 -15.6738 -0.357422 -24.1904l7.59473 5.4248l1.08496 20.6133l56.5254 -15.1895c-32.7158 -98.3008 -25.9053 -181.407 -41.9697 -181.407c-5.4502 0 -13.1816 7.14648 -18.8955 13.2412
l-90.0508 118.259c-1.46484 5.04492 -18.4443 17.7393 -50.9922 37.9736c-1.53809 8.50391 -2.31543 18.918 -2.31543 31.1924c0 44.3936 1.17285 80.6875 62.709 80.6875c35.2715 0 60.3633 -15.6279 75.2246 -46.7832zM620.554 520.202
c0 2.875 -8.5166 8.67871 -25.4961 17.3584s-53.3252 33.2539 -109.037 73.7764c-63.4482 22.1143 -70.251 38.5771 -78.1162 57.6113c5.04492 0 9.76465 -3.90625 14.1045 -11.501c7.21582 -12.6289 43.4766 -25.9385 45.8887 -25.9385
c6.66309 0 9.20117 11.9502 9.20117 13.6201c0 2.31152 -0.998047 4.06445 -3.0127 5.2666l-26.0381 9.87305c-18.5635 24.8291 -48.8672 35.0654 -66.1826 39.0576l7.59473 16.2744c28.209 -4.33984 47.9004 -11.9346 59.1299 -22.7842
c27.2793 -26.3545 26.9336 -49.3877 43.9404 -68.46c52.0771 -18.0645 88.5859 -34.3389 109.58 -48.8223c20.9932 -14.4844 32.5479 -23.8691 34.7178 -28.209c20.2344 -31.084 54.2471 -77.3564 101.985 -138.873c8.9707 0 13.4658 -4.61426 13.4658 -13.832
c0 -7.11426 -2.67773 -16.9707 -8.04102 -29.5654c-23.4551 9.3916 -48.79 19.5352 -123.685 155.147zM661.783 421.472c15.8945 -23.8691 31.8428 -41.2285 47.7373 -52.0771c-11.5547 0 -24.248 -7.97461 -37.9727 -23.8682
c-98.6953 57.7129 -109.141 90.6934 -109.141 102.088c0 13.4922 15.2422 18.5312 24.8711 18.5312c27.1416 -0.000976562 73.8906 -44.0596 74.5049 -44.6738zM658.528 340.101c-1.95312 -1.31836 -4.21484 -1.97754 -6.90234 -1.97754
c-3.61523 0 -22.0127 2.63184 -26.7305 21.5068zM384.036 549.495c-8.52539 -29.3799 -16.7725 -94.4248 -44.4814 -159.487c-13.0195 -28.208 -30.3789 -42.6924 -52.0771 -43.3975l-12.043 -27.124l-4.33984 1.08496l13.0186 27.124
c-7.62109 8.7627 -11.4268 19.2217 -11.4268 31.377c0 53.3232 85.1875 150.592 100.501 178.019c0.000976562 -0.000976562 10.8486 -7.5957 10.8486 -7.5957zM668.293 302.128c17.7012 50.9209 32.0303 53.7197 39.0684 53.7197
c12.4941 0 22.2725 -6.35059 29.2832 -19.002c-8.67969 -21.6992 -21.3193 -43.3975 -37.9736 -65.0967c-2.16992 7.97461 -12.3135 18.0645 -30.3779 30.3789zM637.865 294.674c26.0264 0 46.5996 -3.99121 54.2959 -34.8594l-6.50977 -9.76465
c25.9863 0 27.6445 -26.5186 27.6445 -26.5752c0 -3.53809 -1.79199 -11.2793 -9.2002 -12.4824c-7.21484 0.705078 -11.2295 7.59473 -11.9346 20.6133l-15.1885 -15.1885v3.25488h-15.1895c-10.6748 -4.66113 -23.418 -9.56152 -30.3145 -9.56152
c-6.61426 0 -10.7188 3.94141 -11.999 5.22168v6.50977c3.63477 -5.04492 7.97461 -7.59473 13.0195 -7.59473c6.50977 0 14.8096 2.875 24.9541 8.67969h19.5293v6.50879h-19.5293c-15.7344 6.87109 -22.3066 8.18262 -25.5547 8.18262
c-4.47168 0 -9.68262 -2.01855 -15.6738 -6.0127c-17.9082 21.2676 -17.9082 21.2676 -17.9082 22.5801c0 3.41504 6.28223 3.63477 6.90137 3.63477c3.12305 0 4.99414 -1.48438 5.58203 -4.51562c2.5498 0.625 3.8623 1.84766 3.8623 3.62891
c0 3.6416 -3.30469 4.86914 -3.8623 5.05078l-1.08496 7.59473c1.20605 -0.486328 2.84961 -0.727539 4.92871 -0.727539c4.18457 0 10.1367 0.976562 17.8555 2.89746v1.08496c-12.5986 3.14941 -20.3711 5.90137 -20.3711 13.9297c0 1.89062 0 7.91016 25.7471 7.91016z
M622.724 204.482c0.705078 -0.705078 4.33984 -1.08496 10.8496 -1.08496s17.7402 3.63477 33.6348 10.8496h7.59473c-7.97461 -10.1445 -24.249 -15.1895 -48.8232 -15.1895c-0.000976562 0 -3.25586 5.4248 -3.25586 5.4248zM696.508 161.259
c-3.43848 0 -68.3584 0.352539 -68.3584 26.9492c25.334 0 44.4834 6.88965 57.502 20.6143h2.16992c1.46484 -5.04492 6.88965 -7.59473 16.2744 -7.59473c13.0195 0 19.5293 7.59473 19.5293 22.7842c0 14.4834 -6.12988 25.333 -18.4443 32.5479
c39.7637 52.0771 63.0352 113.92 69.5449 185.526h24.9541c-4.01172 -228.754 -27.0566 -280.827 -103.172 -280.827zM656.358 134.938v14.1025h70.5215v-14.1025h-70.5215zM769.192 24.2725l4.33984 1.08496c7.21484 -5.04492 12.9648 -10.3066 16.9258 -15.7314
c3.50098 -4.7959 10.2666 -7.17578 20.2969 -7.17578c1.31543 0 2.68652 0.0410156 4.11426 0.123047v-2.16992c-17.3594 -13.7236 -37.377 -21.6982 -59.7812 -23.8682l-1.08496 2.16992c8.72949 6.71094 13.0938 13.2803 13.0938 19.709
c0 0.0683594 -0.337891 4.42285 -0.337891 6.82129c0 5.6416 0.803711 11.9873 2.43359 19.0371zM614.045 23.1875c1.62988 -6.52051 2.43359 -12.5195 2.43359 -18.0215c0 -3.83301 -0.34375 -5.2168 -0.34375 -6.86914c0 -6.3916 3.99023 -12.9219 12.0146 -19.5918
v-2.16992c-22.4043 2.16992 -42.6924 10.1445 -60.7568 23.8682l1.08496 2.16992c2.48047 -0.294922 4.78223 -0.442383 6.90723 -0.442383c19.7549 0 12.127 9.18457 34.3203 23.2266zM692.161 -67.9482c-12.6396 0 -25.333 1.79102 -37.9727 5.4248v2.16992
c13.0195 3.63477 20.6143 9.22266 22.7842 16.8174c2.16895 7.59375 6.12988 15.7314 11.9336 24.4111h5.4248c6.50977 -8.67969 10.6865 -16.8174 12.4775 -24.4111c1.79004 -7.59473 9.60156 -13.1826 23.3262 -16.8174v-2.16992
c-12.6396 -3.63379 -25.334 -5.4248 -37.9736 -5.4248zM418.755 860.983c0.705078 -10.1445 16.6543 -30.3779 47.7373 -60.7568l-13.0186 -10.8496c49.2021 -40.5225 95.8008 -70.9014 139.958 -91.1357c-10.4854 -20.9697 -15.752 -39.1533 -15.752 -54.4033
c0 -0.402344 0.259766 -22.9717 2.73242 -40.0957c-23.8691 11.5547 -52.0771 23.1641 -84.626 34.7188l1.08496 1.08496c-30.0459 60.2334 -46.375 78.8945 -111.75 86.9043c-9.47852 -10.7969 -14.1729 -20.9775 -14.1729 -30.543
c0 -0.671875 0.0234375 -1.33984 0.0693359 -2.00586c4.33984 -1.13867 8.24512 -2.38672 12.1514 -3.58008c-6.13281 0 -8.6543 -12.7891 -8.6543 -13.7148c0 -3.0127 0 -3.0127 17.1162 -10.9131c0.0869141 -2.21777 0.129883 -4.40918 0.129883 -6.57617
c0 -15.4814 -2.21289 -29.6494 -6.63965 -42.3555l-10.8486 2.16992c-13.9072 0 -24.9541 -22.7451 -24.9541 -32.4395c0 -7.55859 4.33984 -13.7432 13.0195 -18.5527c-5.48438 2.44531 -10.1318 3.66797 -13.9453 3.66797c-8.72559 0 -11.083 -6.7041 -11.083 -7.70508
c0 -3.56445 4.36523 -8.35254 13.0938 -14.4072c-37.0049 -51.2363 -56.2031 -77.8174 -73.8848 -108.494c-2.2168 1.09766 -4.48145 1.65039 -6.7959 1.65039c-9.60938 0 -10.4141 -6.99512 -21.1582 -6.99512c-6.62402 0 -15.3877 2.50488 -26.293 7.51465
l-14.1045 26.0381l5.4248 5.4248l-28.209 -5.4248l-4.33984 29.2939l-27.124 -1.08496l1.08496 29.293l-28.208 4.33984l3.25488 30.3789l-28.209 5.4248l7.59473 29.2939l-26.0391 9.76367l13.0195 27.124l-22.7832 15.1895l15.1885 26.1475l-23.8682 15.1885
l18.4434 22.7842l-20.6133 19.5293l24.9531 21.6992l-22.7832 21.6982l23.8682 21.6992l-22.7832 21.6992l27.123 21.6982l-23.8682 20.6143l24.9521 21.6992l-22.7832 22.7832l23.8691 19.5293h-27.123l-20.6143 -18.4443l22.7842 -22.7832l-24.9541 -21.6992
l21.6992 -20.6143l-23.8691 -21.6982l22.7842 -21.6992l-24.9541 -20.6143l23.8691 -22.7832l-24.9541 -21.6992l21.6992 -21.6992l-20.6143 -24.9541l27.123 -18.4434l-18.4434 -22.8926l26.0391 -18.4443l-15.1895 -28.208l30.377 -13.0195l-9.76465 -30.3789
l31.4648 -6.50977l-6.50977 -30.3779l32.5479 -4.33984l-3.25488 -32.5488h32.5488l4.33984 -31.4629l30.3789 5.42383l11.9346 -23.8682c14.3516 -11.3477 28.2227 -17.0215 41.5801 -17.0215c2.79883 0 5.57422 0.249023 8.32715 0.74707
c-4.78418 -11.1709 -7.17383 -21.9834 -7.17383 -32.4414c0 -13.2588 3.84082 -25.9492 11.5137 -38.0801l-8.67969 -18.4443c-32.1318 14.918 -32.1318 14.918 -33.5 14.918c-5.84668 0 -9.45605 -10.2871 -9.45605 -13.4102c0 -2.60156 1.2959 -4.5459 3.89844 -5.84766
c88.9854 -39.5 88.9854 -39.5 90.1396 -39.5c5.33984 0 9.3418 9.39258 9.3418 12.8604c0 2.42383 -1.2959 4.0625 -3.89844 4.94141l-30.3779 14.1035l7.59473 18.4443c15.4082 1.80273 57.1123 6.68164 89.5078 149.181c4.61133 20.1797 8.24512 35.207 11.1748 46.001
c3.15332 -0.708984 6.87891 -1.06738 11.1885 -1.06738c7.55176 0 16.8955 1.10059 28.0869 3.3457c65.0967 -28.208 110.283 -46.2725 135.617 -54.2471c-3.63477 -1.46484 -9.05957 -3.95996 -16.2744 -7.59473c-5.76074 4.63477 -10.1729 6.95215 -13.1807 6.95215
c-0.0869141 0 -6.34863 -0.174805 -6.34863 -5.86719c0 -2.875 3.63477 -7.21484 10.8496 -13.0195c0 -3.22852 1.71191 -33.4561 62.9268 -83.5391l6.50977 -23.8691c5.04492 -18.0645 21.6992 -27.124 49.9082 -27.124c-2.875 -2.875 -5.04492 -7.59473 -6.50977 -14.1045
c-3.74805 0.584961 -7.67871 0.875977 -11.7832 0.875977c-6.17285 0 -12.7412 -0.657227 -19.6807 -1.96094c-9.38477 20.2344 -24.9531 47.7383 -46.6523 82.4561c-3.95605 1.48633 -7.36523 2.22754 -10.2256 2.22754c-10.6855 0 -10.832 -10.7861 -10.832 -11.375
c0 -6.28809 5.94629 -9.77148 17.8027 -10.3809l32.5479 -67.2666c-2.61621 -10.4668 -5.5166 -4.8418 -5.5166 -12.166c0 -2.2041 0.750977 -4.65723 2.26172 -7.36328c-2.89258 -0.976562 -4.33887 -2.41113 -4.33887 -4.33594
c0 -0.961914 0.361328 -2.04688 1.08496 -3.25879c-2.0957 -1.58105 -3.1543 -3.07617 -3.1543 -4.46387c0 -1.55078 1.41016 -2.18848 1.41016 -4.94141c0 -0.814453 -0.142578 -1.65918 -0.425781 -2.5293c-0.496094 0.0693359 -0.979492 0.104492 -1.44824 0.104492
c-4.29883 0 -7.44531 -2.91504 -9.40137 -8.78418c2.16992 -5.80469 9.05859 -14.8096 20.6133 -27.123c1.41113 -41.2822 13.0195 -65.5859 34.7197 -73.0176v-31.2461h19.5293l-58.5879 -94.3906c-6.50879 -4.33984 -12.0967 -9.22168 -16.8164 -14.6465
c-4.17285 -4.7959 -11.0156 -7.17578 -20.5303 -7.17578c-1.24805 0 -2.54102 0.0410156 -3.88086 0.123047l-4.33984 -8.67871c21.6982 -17.3594 45.9473 -26.4189 72.6914 -27.124l4.33984 8.67969c-9.77832 6.27441 -14.668 13.0527 -14.668 20.3359
c0 0.920898 0.137695 2.43262 0.137695 5.53125c0 6.08594 -0.582031 12.2822 -1.74512 18.6152l60.7568 99.8154h1.08496v-138.873c-5.04492 -7.97461 -9.05859 -16.1113 -11.9336 -24.4111c-2.87598 -8.30078 -11.2295 -14.2676 -24.9541 -17.9023v-10.8496
c15.5693 -4.71875 31.084 -7.05176 46.4355 -7.05176c15.3525 0 30.5957 2.33301 45.7852 7.05176v10.8496c-13.7246 3.63477 -22.0791 9.60156 -24.9541 17.9023c-2.875 8.2998 -6.88965 16.4365 -11.9346 24.4111v138.873h2.16992l59.6719 -99.8154
c-1.16211 -6.33301 -1.74414 -12.5283 -1.74414 -18.6143c0 -2.2334 0.137695 -5.47656 0.137695 -5.53223c0 -7.2832 -4.88965 -14.0615 -14.667 -20.3359l4.33984 -9.76465c27.5029 1.46484 51.8057 10.8496 72.7998 28.209l-4.33984 8.67871
c-1.33984 -0.0820312 -2.63281 -0.123047 -3.88086 -0.123047c-9.51465 0 -16.3584 2.37988 -20.5303 7.17578c-4.71973 5.4248 -10.3076 10.6865 -16.8174 15.7314l-58.6953 94.3906h19.5293v30.9209c29.1855 11.9902 76.2656 28.752 76.2656 279.327
c0 7.59961 -0.0703125 15.2451 -0.210938 22.9375h-29.2939c1.61719 104.532 39.1357 136.196 39.1357 201.433c0 25.8242 -5.45312 52.3896 -16.3516 79.6787c6.50977 8.67969 9.76465 17.3594 9.76465 26.0381c-10.8496 36.8887 -16.2744 67.6465 -16.2744 92.2207
l5.4248 37.9736c-2.875 18.8232 -6.88965 28.208 -11.9346 28.208h-89.0742v-17.3594c0 -13.0186 9.38477 -19.5283 28.209 -19.5283c13.0195 -2.875 19.5283 -9.05957 19.5283 -18.4443c0.117188 -4.80176 0.175781 -9.31445 0.175781 -13.5381
c0 -21.2129 -1.48438 -35.1445 -4.51465 -41.7939c-7.21582 1.46484 -61.083 26.3643 -161.656 74.8613c-59.8984 21.7852 -101.18 32.6787 -123.932 32.6787c-40.8994 -0.000976562 -45.3203 -57.9766 -45.3203 -58.7188zM640.219 224.192
c0 -0.762695 -0.579102 -1.76758 -1.73828 -2.66895c3.62207 0.953125 7.05762 2.52051 10.2832 4.6582c-6.8623 2.16992 -12.2871 3.25391 -16.2676 3.25391s-6.5166 -1.08398 -7.60156 -3.25391c2.27246 -2.87207 4.78125 -4.59277 7.52832 -5.18848
c-2.04785 1.43359 -3.07617 3.16895 -3.07617 4.32617c0 1.45117 2.01465 3.45508 4.33301 3.45508c2.65039 0 6.53906 -2.82422 6.53906 -4.58203z" />
</svg>
