<?xml version="1.0" standalone="no"?>
<!DOCTYPE svg PUBLIC "-//W3C//DTD SVG 1.1//EN" "http://www.w3.org/Graphics/SVG/1.1/DTD/svg11.dtd" >
<svg xmlns="http://www.w3.org/2000/svg" xmlns:xlink="http://www.w3.org/1999/xlink" version="1.1" viewBox="-10 0 523 1000">
   <path fill="currentColor"
d="M101.523 118.034c-33.915 13.3008 -34.4092 68.3506 -44.7178 68.3506c-2.25586 0 -3.71094 -3.93262 -4.32715 -11.8184c10.2197 -34.5762 20.2725 -68.5889 43.2939 -86.4805c13.7324 -14.959 29.0166 -31.6084 39.6318 -31.6084
c3.18652 0 4.78418 1.35742 4.78418 4.08789c0 10.8662 -23.4326 22.7285 -32.8057 41.626c13.8887 0.542969 20.833 11.9902 20.833 34.1797l0.759766 93.0996c21.9678 1.33789 93.1738 35.3574 94.0752 35.8066c13.8896 -22.1895 29.3516 -44.3242 46.5498 -66.5146
c2.22461 -15.5166 13.8887 -25.8242 34.9395 -30.8154h19.9648c-4.44824 -4.99121 -7.43262 -11.3389 -9.11426 -19.0977c-9.19824 0 -14.6221 2.05664 -18.3555 2.05664c-8.75391 0 -8.84277 -8.76172 -8.84277 -8.88672c0 -1.06836 0.208984 -2.11816 0.614258 -3.15234
c-2.73828 0 -4.11719 -1.12012 -4.11719 -3.32227c0 -0.939453 0.25 -2.0752 0.75293 -3.40527c-1.7207 -1.0459 -2.58105 -1.96582 -2.58105 -2.77344c0 -1.29199 2.01855 -1.50293 2.01855 -2.77051c0 -0.65625 -0.650391 -1.31738 -1.93262 -1.94336
c-3.41895 0 -5.09277 -1.28809 -5.09277 -3.8291c0 -2.82617 6.60938 -7.56738 12.5791 -38.5967c3.14746 -14.8115 10.0918 -25.2822 20.6172 -31.6836l-1.51953 -7.37891h-4.12305c-1.38379 -1.1123 -2.07617 -2.15625 -2.07617 -3.13281
s0.692383 -1.88574 2.07617 -2.72656h8.35449c-38.1465 -15.3369 -27.1641 -57.6113 -49.5869 -89.8438c-6.94531 -9.98242 -11.4482 -17.4697 -13.6719 -22.4609c5.5332 1.68164 13.0205 7.97559 22.4609 18.7715c8.93262 10.2178 17.332 29.7139 25.2422 58.582
c-0.775391 -3.7627 -1.1543 -7.91211 -1.1543 -12.4668c0 -17.3682 9.69434 -49.0449 49.9131 -49.0449c39.8594 0 49.9131 30.873 49.9131 49.0449c0 4.06055 -0.300781 7.7998 -0.916016 11.2305c7.36523 -28.1895 15.6211 -47.2754 24.6797 -57.3457
c9.71094 -10.7959 17.3613 -17.0898 22.8945 -18.7715c-8.40332 18.8535 -21.8594 23.3418 -30.8154 64.0195c-2.99902 13.6211 -8.51367 38.666 -32.4443 48.2852h7.4873c1.1123 0.84082 1.66895 1.75 1.66895 2.72656s-0.556641 2.02051 -1.66895 3.13281h-4.12305
l-1.73633 8.57227c15.1924 9.05859 36.6758 38.5352 36.6758 132.812v38.3027h-3.36426c4.49316 25.4434 6.7002 51.3271 6.7002 77.6904c0 2.92383 -0.0263672 5.85449 -0.0810547 8.79004c4.07617 11.585 6.10938 26.5469 6.10938 44.874
c0 14.1162 -1.20605 30.2285 -3.61328 48.333c4.34863 15.7129 5.85938 25.585 5.85938 33.3115c0 4.78223 -8.98438 36.0654 -11.2559 36.0654c-0.637695 0 -1.35156 -0.386719 -2.09082 -1.12598c0 0.541992 -0.542969 0.868164 -1.62793 0.868164h-3.36328
c-1.08496 0 -1.95312 -0.651367 -2.49609 -1.73633c0 1.08496 -0.541992 1.73633 -1.62695 1.73633c-1.08594 0 -1.62793 -1.13965 -1.62793 -3.36426c2.22461 -8.30078 4.23145 -14.6484 6.18457 -19.0967c1.51367 -3.44824 2.24512 -8.19922 2.24512 -14.3037
c0 -2.6084 -0.208984 -8.63574 -2.1416 -8.63574c-0.15625 0 -0.537109 0.444336 -0.537109 2.10547c-0.271484 1.38379 -0.407227 2.98438 -0.407227 4.79492s0.135742 3.83203 0.407227 6.05664c0 1.04199 -0.0976562 11.7549 -4.12695 11.7549
c-1.85254 0 -2.31055 -2.07324 -2.31055 -3.48926c0 -1.13672 0.235352 -2.51758 0.686523 -4.14258c0 -7.56445 -2.02734 -15.1572 -2.02734 -19.6816c0 -6.29297 2.05078 -14.4531 6.15039 -24.4805c-1.29883 -46.5547 -10.333 -56.7412 -10.333 -82.6396
c0 -5.14062 0.407227 -10.0391 1.21875 -14.6914c-6.07617 -26.042 -9.44043 -46.875 -9.98242 -62.3916l-7.4873 15.8418l-2.49609 25.8252c2.44043 31.2441 15.3984 48.0537 15.3984 69.5537c0 17.7656 -13.0225 63.5518 -13.0225 141.448
c0 27.0918 1.91406 29.7354 1.91406 61.7656c0 79.1074 -9.96777 139.792 -9.96777 141.208c0 21.6836 4.3584 17.1836 4.3584 28.0615c0 7.24609 -4.01855 11.8418 -12.0264 13.7998h39.0625c2.22363 -4.99121 8.68066 -7.70312 19.2051 -8.24609
c9.9834 0.542969 16.6562 3.25488 19.9658 8.24609c18.2832 0 27.4521 12.8047 27.4521 38.3037v147.243h-44.9219v-136.393c0 -3.90625 -1.13965 -5.85938 -3.36426 -5.85938c-44.8818 33.957 -58.8955 44.5596 -79.3184 55.2295
c10.6016 5.17285 40.2559 23.6455 40.2559 36.3506c-0.455078 9.7832 -4.84082 14.6436 -13.127 14.6436c-10.9033 0 -22.791 -11.8271 -33.748 -47.7383c-4.82812 2.44141 -9.49414 4.71973 -13.9971 6.83594c14.4375 10.752 34.3662 30.251 34.3662 41.0557
c0 0.205078 -0.748047 15.3867 -13.4229 15.3867c-16.291 0 -24.041 -24.1602 -27.4541 -53.4043c-4.93652 2.16992 -9.71094 4.12305 -14.3223 5.85938c9.36816 10.834 26.4932 32.2432 26.4932 43.9932c0 3.83691 -4.26074 14.3428 -13.4717 14.3428
c-14.0645 0 -20.4004 -11.8369 -20.4004 -50.958l0.326172 -4.77441c-4.88281 1.68262 -9.54883 3.09277 -13.998 4.23242c4.80469 7.08105 17.7949 30.502 17.7949 43.1406c0 7.91309 -7.3623 15.1221 -13.8555 15.1221c-16.2881 0 -16.2881 -19.168 -16.2881 -24.6826
c0 -0.318359 0.333984 -18.6436 3.45117 -31.627c-4.77441 0.921875 -9.27734 1.41016 -13.4551 1.62695c0.782227 1.95605 10.0127 25.3438 10.0127 40.1377c0 16.5459 -14.5029 17.5342 -14.7324 17.5342s-14.7324 -0.988281 -14.7324 -17.5342
c0 -12.9561 7.25781 -33.4775 10.1211 -40.2461c-4.23242 -0.325195 -8.68066 -0.921875 -13.5635 -1.95312c2.17285 9.00195 3.55957 23.9893 3.55957 32.0615c0 11.4727 -2.86328 25.0791 -16.4434 25.0791c-6.6709 0 -13.7305 -7.84082 -13.7305 -15.2676
c0 -2.34473 0.419922 -5.09766 1.22363 -8.23535c-1.09766 4.1377 -4.33496 16.3438 -17.4736 16.3438c-9.70703 0 -12.9092 -12.0723 -12.9092 -14.8535c0 -10.4043 13.9678 -29.4434 27.1279 -43.6992c-4.8291 -1.84473 -9.875 -3.90625 -15.083 -6.18555
c-6.53906 35.4297 -10.8506 54.3174 -28.0244 54.3174c-12.0059 0 -12.7578 -15.1836 -12.7578 -15.3838c0 -9.40527 15.6016 -26.6982 35.5742 -41.3203c-5.09961 -2.33301 -10.3086 -4.88281 -15.7334 -7.5957c-11.833 33.2207 -19.2158 49.7871 -33.3301 49.7871
c-12.3301 0 -13.6709 -11.5332 -13.6709 -16.5518c0 -10.7559 25.1025 -27.5381 41.792 -35.7314c-6.23926 -3.2002 -12.6406 -6.67285 -19.3135 -10.416l-61.5234 -44.9219c-1.68262 0.541992 -2.49609 2.82129 -2.49609 6.72754v135.524h-44.9219v-146.375
c0 -26.042 9.16895 -39.1719 27.4521 -39.1719c3.90625 -5.5332 10.5254 -8.57129 19.9658 -9.11426c9.43945 0.542969 16.0586 3.58105 19.9648 9.11426h5.85938v-471.68c-7.27344 0 -10.9258 -13.0088 -10.9258 -17.0771c0 -3.27832 1.38086 -5.60156 4.19824 -7.01074
c-4.68945 -2.8916 -7.04199 -5.43848 -7.04199 -7.62793c0 -1.17871 0.683594 -2.25391 2.05078 -3.22266h11.7188v-93.9678c-0.542969 -12.207 -4.50293 -18.3369 -11.7188 -18.3369zM307.851 -8.7373c0 23.5352 19.207 36.9277 39.1152 36.9277
c19.0664 0 39.1709 -13.7402 39.1709 -39.1709c0 -15.1064 -10.1025 -38.1953 -39.1709 -38.1953c-23.1875 0 -39.1152 15.6641 -39.1152 40.4385zM316.259 43.1641l0.541992 4.44922c7.26172 -3.08691 15.4746 -3.47461 27.0332 -3.47461
c12.9316 0 23.6816 0.904297 32.4287 4.66797l1.51953 -5.64258h-61.5234zM302.044 76.3672c4.71777 -0.610352 8.92969 -0.914062 12.6328 -0.914062c24.749 0 18.29 14.3301 27.4531 14.3301c0.241211 0 0.478516 -0.0234375 0.712891 -0.0693359
c0 -6.07715 3.85254 -9.11523 11.6104 -9.11523c9.44043 0 14.2148 7.4873 14.2148 22.4609c0 6.07715 -3.30957 13.5635 -9.9834 22.4609v88.2168h50.6729v-29.1885c0 -52.1377 -7.16113 -90.0605 -21.5928 -113.933c-11.7646 -13.8408 -31.8848 -16.71 -46.5498 -16.71
c-25.7842 0 -35.7578 11.0293 -39.1709 22.4609zM294.55 122.259c0 1.08398 -0.519531 2.16113 -1.62012 3.26172l0.868164 4.12402l1.62793 -1.62793c6.1582 1.45117 9.22266 2.67188 9.22266 3.64551c0 1.68164 -8.96484 1.32227 -8.96484 6.06055
c0 3.63672 3.83105 4.10449 5.79883 4.10449c3.6875 0 6.51855 -1.27832 12.749 -1.27832c2.69238 0 5.28223 0.271484 7.77832 0.814453c4.44824 12.749 9.43945 21.5928 14.9736 26.584h12.4785v-43.2949c6.67285 -8.30078 9.98242 -15.5156 9.98242 -21.5928
c0 -8.89746 -1.68164 -13.3457 -4.99121 -13.3457c-3.90625 0 -5.75098 4.44824 -5.75098 13.3457c-26.7461 -10.4658 -13.7588 -19.3398 -36.0068 -19.3398c-4.6377 0 -9.93262 0.584961 -13.1465 1.00293l-2.49609 7.48633
c2.3252 -1.86914 5.69434 -2.7998 10.0947 -2.7998c6.07422 0 14.1123 1.77246 24.085 5.2959v3.36328c-7.95508 -2.90234 -14.7598 -4.35645 -20.4248 -4.35645c-6.19531 0 -11.0283 1.73926 -14.5146 5.22461l-9.22266 20.7246
c1.5498 -0.430664 2.85254 -0.647461 3.91016 -0.647461c3.16699 0 3.56934 2.15234 3.56934 3.24512zM307.035 96.4414c3.90625 0 8.89844 1.03027 14.9746 3.25488h9.22266v4.23145h-9.22266c-8.04785 4.02441 -14.5762 4.53027 -17.3545 4.53027
c-1.05078 0 -2.06836 -0.135742 -3.04492 -0.407227h-6.18457l-0.868164 -4.12305l3.36328 -1.73633c2.30957 0 0.755859 -4.38086 9.11426 -5.75zM304.54 99.6963c-2.07031 2.06641 -3.69043 4.99121 -4.99121 4.99121c3.55664 0.868164 3.55664 0.868164 8.35449 0.868164
c3.30957 0 7.16211 -1.13965 11.6104 -3.36426c-5.5332 -1.68164 -8.89746 -2.49512 -9.98242 -2.49512c0.542969 0 1.19336 0.651367 1.73633 1.73633c0 1.68164 -1.26758 3.12305 -3.36426 3.12305c-2.93652 0 -3.58008 -0.681641 -4.12305 -2.36426
c0 -1.08496 0.216797 -1.95312 0.759766 -2.49512zM298.789 179.558c10.3223 8.08105 15.4844 17.9258 15.4844 29.5547c0 8.35742 -2.66602 17.6357 -7.99707 27.8447c0 5.04004 2.9248 7.56055 8.89648 7.56055c0.585938 0 1.20117 -0.0244141 1.8457 -0.0732422h60.7637
l8.35449 -21.5928h-36.6748v-43.2939h-50.6729zM310.487 259.22c0 -8.00781 -9.56543 -4.88086 -16.6895 -20.5264c4.68457 -6.24707 6.99023 -11.9326 6.99023 -17.0752c0 -2.18164 -0.415039 -4.26562 -1.23926 -6.25391
c-21.0508 28.8633 -44.3799 55.1221 -69.8789 78.9932c-25.499 -8.30078 -52.626 -21.8096 -81.4883 -40.6895c-6.07617 5.5332 -12.5332 9.38574 -19.2061 11.6094v471.68h78.2334v-5.75c-0.0117188 -0.107422 -0.0175781 -0.214844 -0.0175781 -0.322266
c0 -14.7236 64.9316 -12.1504 85.7383 -45.4678c10.7773 -21.5537 16.46 -156.089 16.46 -157.674c0 -19.8086 -15.6289 -94.0049 -15.6289 -103.093c0 -37.6846 16.7266 -163.769 16.7266 -165.431zM319.514 251.172h56.6406l-0.868164 1.62793h-54.9043zM381.386 353.794
c0 -28.8301 -13.8252 -35.2158 -13.8252 -80.958c0 -3.28711 0.0800781 -6.6377 0.239258 -10.0537h-39.0625c-11.665 67.6543 -18.1211 119.032 -19.2061 153.972c0 27.3145 14.6904 58.2275 14.6904 121.526c0 32.2773 -2.94434 72.4609 -8.83105 120.552h47.418
c5.19141 -43.3652 7.79395 -80.873 7.79395 -112.524c0 -18.9541 -0.933594 -35.8086 -2.80273 -50.5615c1.68164 -19.9648 2.82129 -40.9062 3.36328 -62.8252c1.2002 -48.459 10.2227 -57.7217 10.2227 -79.127zM330.364 669.574
c-6.37598 15.5176 -9.56348 27.6621 -9.56348 36.4365c0 1.90234 0.149414 3.64551 0.449219 5.23047c24.4941 -6.43848 27.25 -23.3594 27.25 -30.6494c0 -3.45215 -0.511719 -7.12793 -1.53418 -11.0176h-16.6016zM301.827 736.957h58.4854
c-8.95801 -3.40137 -16.9014 -5.19434 -23.792 -5.19434c-10.9561 0 -12.3369 4.3125 -34.6934 5.19434zM265.261 733.702c-8.46387 0 -17.5244 1.03125 -27.2354 3.25488h50.7812c-7.21582 -2.22363 -15.083 -3.25488 -23.5459 -3.25488zM87.418 735.33
c-9.9834 1.08496 -15.5166 6.94434 -16.6016 17.4697c0.541992 10.5244 6.07617 16.3838 16.6016 17.4697c11.0674 -1.08594 17.252 -6.94531 18.3369 -17.4697c-1.08496 -10.5254 -7.26953 -16.3848 -18.3369 -17.4697zM425.199 736.198
c-9.43945 1.08496 -14.9189 6.61816 -16.6016 16.6016c1.08594 10.5244 6.94531 16.6553 17.4697 18.3369c10.5254 -1.68164 16.5479 -7.8125 18.2295 -18.3369c-1.68164 -10.5254 -8.0293 -16.0596 -19.0977 -16.6016zM87.418 741.949
c6.07617 0 9.76562 3.41797 10.8506 10.0908c-1.08496 6.07617 -4.77441 9.65723 -10.8506 10.7422c-6.07715 -1.08496 -9.44043 -4.66602 -9.9834 -10.7422c0.542969 -6.67285 3.90625 -10.0908 9.9834 -10.0908zM426.067 741.949
c6.07715 0 9.44043 3.41797 9.9834 10.0908c-0.542969 6.67285 -3.90625 10.1992 -9.9834 10.7422c-6.07617 -0.542969 -9.43945 -4.06934 -9.98242 -10.7422c0.542969 -6.67285 3.90625 -10.0908 9.98242 -10.0908zM64.0889 746.181
c-8.30078 0 -13.292 8.84277 -14.9746 26.584v139.757h26.6934v-126.41c0 -4.44922 1.03027 -7.75879 3.25488 -9.98242c-9.98242 -3.90625 -15.1914 -11.665 -15.7334 -23.3291zM112.374 746.181l0.868164 6.61914c-0.542969 13.292 -6.99902 21.1045 -19.2061 23.3291
l59.1367 42.4258c16.0186 -12.584 24.0195 -27.9424 24.0195 -46.0596c0 -8.20605 -1.6416 -16.9785 -4.92285 -26.3145h-59.8955zM180.625 746.181c3.09375 10.1387 4.63965 19.5645 4.63965 28.2725c0 19.3887 -7.66504 35.2227 -22.9775 47.4648
c31.332 20.5352 62.7578 30.8027 94.252 30.8027s63.0566 -10.2676 94.6592 -30.8027c-16.0518 -11.8604 -24.1035 -27.5654 -24.1035 -47.0791c0 -8.78223 1.63086 -18.3359 4.89746 -28.6582h-151.367zM341.215 746.181
c-3.3418 9.50977 -5.01562 18.4336 -5.01562 26.7705c0 17.9189 7.73145 33.126 23.2451 45.6035l59.1367 -42.4258c-11.0684 -2.76758 -16.9277 -10.5801 -17.4697 -23.3291l1.62695 -6.61914h-61.5234zM450.156 746.181l1.62793 6.61914
c-1.08496 11.6641 -6.61914 19.4229 -16.6016 23.3291c1.68164 2.7666 2.49512 6.40137 2.49512 10.8506v125.542h26.584v-139.757c-1.08496 -17.7412 -5.80469 -26.584 -14.1055 -26.584zM87.418 747.049c-3.30957 0 -5.31738 1.68164 -5.85938 4.99121
c0.541992 3.30957 2.5498 5.20801 5.85938 5.75098c3.30859 -0.542969 5.31641 -2.44141 5.85938 -5.75098c-0.542969 -3.30957 -2.55078 -4.99121 -5.85938 -4.99121zM426.067 747.049c-3.30957 0 -5.31641 1.84473 -5.85938 5.75098
c0.542969 3.30957 2.5498 4.99121 5.85938 4.99121s5.20898 -1.68164 5.75098 -4.99121c-0.541992 -3.90625 -2.44141 -5.75098 -5.75098 -5.75098zM141.725 878.287c6.54004 0 7.6543 -2.48047 21.4307 -33.1484l-6.72754 4.99121
c-16.9541 10.2236 -21.4297 16.0566 -21.4297 21.3848c0 3.82129 2.8623 6.77246 6.72656 6.77246zM376.751 870.466c0 -5.99512 -6.34668 -11.9688 -22.2979 -21.0947l-5.75098 -4.23242c15.4404 31.9141 15.4404 31.9141 20.9824 31.9141
c2.61035 0 7.06641 -2.43066 7.06641 -6.58691zM169.384 892.198c7.83496 0 10.373 -10.9424 16.2324 -36.209c-23.2969 23.2969 -23.2969 23.2969 -23.2969 29.0137c0 4.79785 4.52832 7.19531 7.06445 7.19531zM351.083 884.631
c0 -3.75977 -2.18164 -9.44336 -18.2227 -22.7822l-5.85938 -5.85938l2.49512 7.4873c4.42285 21.2422 8.48242 28.7217 13.8047 28.7217c2.03613 0 7.78223 -2.40137 7.78223 -7.56738zM216.106 856.532l0.326172 6.07617
c-0.271484 13.4004 -1.35645 23.8721 -3.14746 31.6846c2.3584 -7.84375 8.90723 -22.4717 16.2764 -33.5293c-4.28613 -1.13867 -8.78906 -2.60352 -13.4551 -4.23145zM197.854 902.492c6.66895 0 6.94141 -2.34961 11.0918 -38.1475l-4.23145 6.61914
c-13.0967 15.75 -14.4736 21.4795 -14.4736 24.9473c0 6.44727 7.51172 6.58105 7.61328 6.58105zM315.468 902.133c1.13281 0 7.19336 -0.302734 7.19336 -6.79297c0 -6.36719 -1.86035 -8.89453 -18.1211 -30.9951v7.4873
c0.835938 20.499 3.63965 30.3008 10.9277 30.3008zM232.166 869.336c-12.9355 29.7461 -12.9355 29.7461 -12.9355 32.3193c0 6.49121 5.69336 7.70605 7.62402 7.70605c5.90918 0 7.4082 -6.06445 7.4082 -12.2188c0 -4.75781 -0.711914 -11.2871 -2.09668 -19.5605
v-8.24609zM285.763 909.361c1.92969 0 7.62402 -1.21484 7.62402 -7.70605c0 -4.56055 0 -4.56055 -12.0674 -32.3193c-2.02832 19.2627 -2.96484 19.2852 -2.96484 27.8066c0 9.74609 3.67676 12.2188 7.4082 12.2188zM256.363 911.762
c6.47656 0 7.5752 -5.26074 7.5752 -8.83008c0 -9.25977 -3.76855 -13.585 -7.5752 -31.0996c-3.96777 17.1074 -7.35254 21.3936 -7.35254 30.2939c0 9.04688 5.83398 9.63574 7.35254 9.63574z" />
</svg>
