<?xml version="1.0" standalone="no"?>
<!DOCTYPE svg PUBLIC "-//W3C//DTD SVG 1.1//EN" "http://www.w3.org/Graphics/SVG/1.1/DTD/svg11.dtd" >
<svg xmlns="http://www.w3.org/2000/svg" xmlns:xlink="http://www.w3.org/1999/xlink" version="1.1" viewBox="-10 0 698 1000">
   <path fill="currentColor"
d="M428.802 711.999c-43.4688 17.3877 -85.1445 43.8496 -124.973 79.3311l5.43359 3.25977c42.7627 -35.4814 84.0576 -61.9424 123.886 -79.3301zM242.973 675.051l-30.7539 14.4541c12.8232 -4.12988 23.2012 -8.91113 30.7539 -14.4541zM627.779 663.098
l-61.9434 4.34668c-15.2139 37.6543 -42.4902 56.8896 -81.6123 57.5957l-41.2949 -6.52051c-100.471 42.1758 -184.741 135.627 -184.741 143.446c0 20.2676 9.39941 36.2422 28.2539 47.8154c30.4287 0 121.767 -35.1006 273.961 -105.411l15.2148 -1.08691
c10.1602 0 15.2139 21.3545 15.2139 64.1162c0 21.7344 -9.40039 32.6016 -28.2549 32.6016c-13.041 0 -19.5605 1.79297 -19.5605 5.43359v5.43359h63.0293c5.09668 -4.71289 7.65332 -12.4131 7.65332 -23.0908c0 -9.01758 -1.82324 -20.1582 -5.48047 -33.418
c0 -21.7344 5.81445 -51.7822 17.3877 -90.1973c0 -6.52051 -3.9668 -10.8672 -11.9541 -13.041c-24.6133 9.40039 -82.6982 21.3545 -173.982 35.8613c-46.4033 9.40039 -86.9375 30.4287 -121.713 63.0303h-1.08594l-5.43359 -8.69434
c36.9482 -35.4814 74.9834 -56.5088 114.104 -63.0293c84.0576 -15.2139 143.175 -27.874 177.243 -38.0352c16.707 -13.9404 25.0361 -38.2139 25.0361 -72.8701c0 -1.41113 -0.0410156 -2.83984 -0.0410156 -4.28613zM458.143 659.729
c7.22656 1.4668 12.334 7.33496 15.2139 17.4961c-3.37891 0.326172 -6.48926 0.488281 -9.33203 0.488281c-9.95801 0 -16.6279 -1.99121 -20.0088 -5.92188c2.87988 -7.9873 7.60645 -12.0625 14.127 -12.0625zM625.605 624.953l-60.8555 18.4746l1.08594 14.127
l63.0303 -5.43359zM623.433 614.086l-59.7695 17.3877l1.08691 3.26074l59.7686 -17.3877zM229.933 607.566l-7.60742 4.34668c5.33008 10.6582 8.00879 22.0439 8.00879 34.1543c0 2.70605 -0.133789 5.44922 -0.401367 8.22754
c3.53125 -7.06348 9.18262 -13.8018 16.8438 -20.2129c-6.30273 -7.11816 -11.8994 -15.9746 -16.8438 -26.5156zM182.515 590.172c0 7.06152 5.30078 13.9482 15.9033 20.6543c18.0938 -6.52051 30.0479 -13.7471 35.8613 -21.7344
c0 -19.6172 -4.98047 -29.4268 -14.9502 -29.4268c-10.8291 0 -36.8145 15.8418 -36.8145 30.5068zM177.771 557.577l-7.60742 5.43359c0.817383 0.817383 1.78809 1.22754 2.91309 1.22754c1.86523 0 4.15527 -1.12988 6.86719 -3.40137zM414.674 528.235
c-44.9355 12.335 -92.6963 24.6143 -143.446 36.9492c-7.9873 15.9199 -17.3877 27.5479 -28.2549 34.7744c5.05371 7.9873 11.248 15.5947 18.4746 22.8213c12.334 -9.40039 23.9082 -14.834 34.7744 -16.3008c43.4688 -34.7754 82.9717 -60.8564 118.452 -78.2441z
M400.547 488.027c-21.0283 4.34668 -68.083 22.8213 -141.273 55.4229c-12.6807 -3.54199 -22.8799 -5.32227 -30.5967 -5.32227c-3.29395 0 -6.13477 0.324219 -8.52441 0.974609c1.24902 3.53223 2.33594 6.08594 3.25977 7.60742
c12.334 0.706055 19.9414 12.334 22.8213 34.7754c9.40039 -9.40039 15.9199 -17.7686 19.5605 -24.9951c50.7627 -16.9209 118.052 -31.8809 142.36 -41.2949c-6.13574 -5.10059 -9.21387 -11.1211 -9.21387 -18.042c0 -2.88574 0.535156 -5.92871 1.60645 -9.12598z
M469.01 446.732c-15.9199 16.6807 -33.6885 27.168 -53.249 31.5146c-3.38477 5.79199 -5.0752 11.0605 -5.0752 15.8057c0 9.49805 6.77344 16.9033 20.2891 22.2295c13.041 -27.5488 25.7012 -50.6953 38.0352 -69.5498zM477.344 706.588
c35.3311 0 60.5674 -15.6543 75.4521 -46.8594c1.63184 -12.5303 2.4375 -27.4814 2.4375 -44.9014c0 -5.77051 -0.0888672 -11.8135 -0.264648 -18.1279l6.52051 4.34668l2.17383 21.7344l56.5088 -15.2139c-32.915 -98.9043 -25.3105 -182.455 -43.1191 -182.461
c-4.50391 0 -10.7236 4.29395 -18.8232 12.9326l-89.2197 118.452c-2.17285 5.81445 -19.1807 18.4746 -51.0752 38.0352c-2.13965 9.80371 -3.20996 21.6914 -3.20996 35.6396c0 39.2275 0.44043 76.4229 62.6191 76.4229zM299.623 645.355
c0 2.875 -1.12988 4.76367 -3.40137 5.67969l-24.9941 10.9756c-25.4814 29.3174 -56.8359 36.8506 -66.2891 39.1211l6.51953 16.3008c28.9609 -4.34668 48.9023 -12.1162 59.7695 -23.3643c27.0693 -28.0156 28.1123 -51.585 44.5557 -68.0283
c51.4561 -18.8545 87.8604 -35.3184 109.215 -49.4453c21.3535 -14.127 33.1445 -23.3643 35.3184 -27.7109c20.2666 -31.1348 54.0635 -77.4834 101.173 -139.1c9.21875 0 13.8281 -4.86426 13.8281 -14.583c0 -7.06445 -2.43555 -16.6943 -7.30762 -28.8857
c-19.6504 7.2793 -52.373 19.4004 -123.994 155.4c-0.706055 2.17285 -9.40039 7.60645 -26.0811 16.3008c-16.6816 8.69336 -53.249 33.3076 -109.759 73.8965c-15.9199 5.81348 -31.1338 12.877 -45.6416 21.1904c-22.3584 12.8125 -24.6094 18.2588 -32.6016 37.6006
c5.05273 -0.706055 9.78027 -4.83594 14.127 -12.0625c7.34473 -12.2109 45.1328 -25.4824 46.9258 -25.4824c4.33984 0 8.6377 5.62109 8.6377 12.1963zM409.599 467.57c27.1875 0 74.0098 -44.1309 74.625 -44.7461c16.6816 -24.6143 33.0908 -42.3818 49.0107 -53.249
c-12.334 0 -25.1025 -7.9873 -38.1436 -23.9072c-35.585 21.0264 -110.403 69.292 -110.403 103.341c0 13.5137 15.2656 18.5615 24.9111 18.5615zM447.275 360.882l34.7754 -19.5615c-2.41797 -1.69727 -5.03125 -2.61621 -7.97754 -2.61621
c-5.28711 0 -20.8027 4.07812 -26.7979 22.1777zM195.157 557.577l11.9541 -6.52051c-8.95996 -23.9736 -16.583 -93.1807 -45.6416 -159.747c-13.041 -28.9609 -30.4287 -43.8486 -52.1631 -44.5557l-11.9531 -27.167l-3.26074 2.17285l11.9541 27.168
c-7.25977 8.80957 -10.8984 19.2256 -10.8984 31.2568c0 52.9844 84.0039 148.72 100.009 177.393zM522.259 271.771c-2.17285 8.69434 -12.334 18.8545 -30.4277 30.4287c17.4014 53.3496 32.708 54.3906 39.543 54.3906c12.4365 0 22.1748 -6.16113 29.0283 -18.5293
c-9.39941 -21.7344 -22.2227 -43.8486 -38.1436 -66.29zM442.929 216.349v6.52051c2.87988 -5.05371 7.22656 -7.60742 13.041 -7.60742c5.81348 0 14.127 2.87988 24.9941 8.69336h18.4736v6.52051h-18.4736c-11.5732 5.05371 -19.7236 7.60742 -24.4512 7.60742
s-10.7041 -2.17383 -17.9307 -6.52051c-17.5371 20.8252 -17.5371 20.8252 -17.5371 22.1006c0 5.05566 6.48828 5.2168 7.31543 5.2168c3.29785 0 5.26758 -1.84961 5.875 -5.58301c2.17285 0.706055 3.25977 2.17285 3.25977 4.34668s-1.4668 3.9668 -4.34668 5.43359
l-1.08691 6.52051c1.08105 -0.175781 2.38867 -0.263672 3.91992 -0.263672c4.62305 0 11.2939 0.804688 19.9883 2.43652v2.17383c-8.69434 2.17383 -14.834 4.34668 -18.4746 6.52051c-1.64844 2.89258 -2.47852 5.44727 -2.47852 7.64355
c0 1.63965 0.462891 3.0791 1.3916 4.31055c6.22168 1.64844 13.6367 2.47754 22.2344 2.47754c28.5781 0 48.3369 -4.30762 56.0098 -35.0791l-5.43359 -8.69434c23.3545 0 27.04 -24.7148 27.04 -27.4336c0 -9.5625 -7.28711 -11.3564 -9.65332 -11.6875
c-7.22656 0.706055 -11.2471 7.22656 -11.9531 19.5605l-15.2148 -15.2139v4.34668h-15.2139c-10.1934 -4.74023 -22.2422 -9.57715 -29.2832 -9.57715c-6.64648 0 -10.7695 3.98828 -12.0117 5.23047zM448.362 198.961l-2.12402 6.37207
c0.736328 -1.08691 9.99902 -1.50977 10.7324 -1.50977c6.64062 0 17.5527 3.48145 32.6865 10.3516h8.69434c-8.69434 -9.39941 -25.375 -14.5078 -49.9893 -15.2139zM450.536 188.094c25.374 0 44.9355 7.22656 58.6826 21.7344h2.17285
c0.707031 -5.81348 5.81445 -8.69336 15.2139 -8.69336c13.041 0 19.6699 7.60645 19.6699 22.8203c0 14.5078 -6.24902 25.375 -18.583 32.6016c39.8281 52.1631 63.5186 114.105 70.7451 185.829h24.9951c-5.29297 -227.796 -27.5996 -280.684 -105.228 -280.684
c-7.71582 0 -67.6689 0.822266 -67.6689 26.3916zM478.79 135.823v14.127h70.7451v-14.127h-70.7451zM590.17 4.19531c0 5.65625 0.582031 12.2305 1.74707 19.6963l4.34766 2.17285c7.9873 -5.81348 13.9639 -11.4102 17.9307 -16.8438
c3.50684 -4.80273 10.0273 -7.18652 19.4873 -7.18652c1.24219 0 2.53418 0.0410156 3.87695 0.123047l1.08691 -1.08691c-18.0938 -13.7471 -38.416 -21.7344 -60.8564 -23.9082l-1.08691 2.17383c9.03809 6.94824 13.6064 13.5947 13.6064 19.8926
c0 0.0488281 -0.139648 2.87695 -0.139648 4.9668zM438.508 -1.38867c0 -6.11426 4.37109 -12.5537 13.1143 -19.2754v-2.17383c-22.4404 2.17383 -42.7617 9.78027 -60.8555 22.8213l1.08691 2.17383c1.34277 -0.0820312 2.63477 -0.123047 3.87695 -0.123047
c9.45996 0 15.9805 2.38379 19.4873 7.18652c3.96582 5.43359 9.61719 11.0303 16.8438 16.8438l4.34668 -3.25977c1.63281 -6.53125 2.4375 -12.4492 2.4375 -17.7529c0 -3.64746 -0.337891 -4.97168 -0.337891 -6.44043zM514.652 -67.9365
c-12.6602 0 -25.375 1.62988 -38.0352 4.89062v2.17285c13.04 4.34766 20.6475 10.3242 22.8203 17.9316c2.17383 7.60645 6.14062 15.7568 11.9541 24.4502l6.52051 -1.08594c5.81348 -7.9873 9.78027 -15.7578 11.9541 -23.3643
c2.17285 -7.60742 9.88867 -13.584 22.9297 -17.9316v-2.17285c-12.6602 -3.26074 -25.4834 -4.89062 -38.1436 -4.89062zM444.538 -0.293945c0 0.922852 0.137695 2.4375 0.137695 5.54199c0 6.0957 -0.582031 12.3008 -1.74707 18.6436l60.8564 99.9775h2.17285v-139.1
c-5.81348 -7.9873 -9.94336 -16.1377 -12.4971 -24.4512s-10.7041 -14.29 -24.4512 -17.9307v-9.78027c15.2139 -5.05371 30.4277 -7.60742 45.6426 -7.60742c15.2139 0 30.5361 2.55371 45.75 7.60742v10.8672c-13.7471 2.87891 -21.8965 8.53027 -24.4512 16.8438
c-2.55371 8.31348 -6.46582 16.8438 -11.5186 25.5381v138.013l1.08691 1.08691l60.9639 -101.064c-1.85547 -6.82129 -2.7998 -13.4824 -2.7998 -20.0195c0 -1.42773 0.105469 -4.17969 0.105469 -4.22266c0 -7.27246 -4.56836 -14.0439 -13.6055 -20.3135
l3.25977 -8.69434c27.5479 1.46777 51.7822 10.8672 72.8096 28.2549l-4.34668 8.69434c-2.19043 -0.295898 -4.25488 -0.443359 -6.19336 -0.443359c-7.68164 0 -13.3965 2.32129 -17.1709 6.96289c-4.72754 5.81445 -10.3242 11.248 -16.8438 16.3008l-59.7695 94.5449
h19.5605v30.9707c27.5107 10.0732 77.209 29.2129 77.209 291.01c0 3.9043 -0.0175781 7.82031 -0.0517578 11.749h-30.4287c1.62793 103.47 40.1377 136.383 40.1377 202.113c0 25.5654 -5.41504 51.6963 -16.2295 78.3682c6.52051 9.40039 9.78027 18.4746 9.78027 27.168
c-11.5732 36.9482 -17.3877 67.377 -17.3877 91.2842l5.43359 38.0352c-2.17285 19.5605 -5.81348 29.3418 -10.8672 29.3418h-89.2188v-18.4746c0 -13.041 9.18262 -19.5605 27.2764 -19.5605c13.041 -2.87988 19.5605 -8.69434 19.5605 -17.3877
c0.117188 -4.80859 0.176758 -9.33887 0.176758 -13.5898c0 -21.3525 -1.4873 -35.6689 -4.52344 -42.9189c-25.9902 5.27539 -202.111 107.855 -284.382 107.855c-2.1084 0 -4.06836 -0.0898438 -5.87988 -0.271484c-30.2305 0 -41.2949 -49.0605 -41.2949 -58.6826
c0.706055 -10.1602 17.0068 -30.0469 48.9023 -59.7686l-14.1279 -10.8672c49.9893 -40.5889 96.7178 -71.0176 140.187 -91.2842c-10.1611 -22.4414 -15.2139 -41.5674 -15.2139 -57.1611c0 -15.5947 0.706055 -28.418 2.17383 -38.5791
c-23.9082 12.334 -51.7822 24.2881 -83.6777 35.8623c-11.5732 23.9072 -21.0273 41.0234 -28.2549 51.1836c-21.9014 19.7119 -33.0391 29.7373 -83.6768 36.9482c-8.87891 -10.1123 -13.3184 -19.9756 -13.3184 -29.5547c0 -1.38379 0.0927734 -2.76074 0.27832 -4.13281
c4.02051 -0.923828 7.55273 -2.01074 11.1924 -3.04297c-4.38379 -0.667969 -8.07324 -7.3916 -8.07324 -12.5166c0 -4.86719 0 -4.86719 17.5283 -11.6084c0 -18.0938 -2.55371 -34.8838 -7.60742 -50.0977l-9.78027 3.25977
c-13.7959 -1.21973 -25.8525 -24.0283 -25.8525 -33.8564c0 -7.21582 4.27637 -12.9512 12.8115 -17.2188c-5.49316 2.44922 -10.0898 3.67285 -13.7852 3.67285c-9.5498 0 -10.416 -8.35742 -10.416 -8.49121c0 -3.56934 4.10547 -8.48242 12.248 -14.7432
c-43.5508 -60.2998 -91.0137 -126.016 -91.0137 -170.86c0 -12.4512 3.16797 -23.959 9.50977 -34.5283l-7.60742 -17.3877c-32.5049 14.5703 -32.5049 14.5703 -34.0107 14.5703c-6.67188 0 -9.21484 -11.9668 -9.21484 -13.6416c0 -2.31543 1 -4.07129 3.01758 -5.27539
c89.0205 -39.5654 89.0205 -39.5654 90.5645 -39.5654c5.71387 0 9.55371 7.69922 9.55371 12.584c0 2.5918 -1.12891 4.33203 -3.40039 5.24707l-31.5146 14.127l8.69336 18.4746c24.6143 2.87988 43.8486 19.9414 57.5957 51.0752
c13.041 28.9609 23.5273 61.7803 31.5146 98.3477c4.23828 19.4521 7.87891 34.2324 10.8672 44.9902c2.2627 -0.311523 4.81641 -0.467773 7.66406 -0.467773c8.0918 0 18.5557 1.26465 31.458 3.83691c65.9639 -28.9609 111.552 -47.1094 136.926 -54.3359
c-4.34668 -1.4668 -10.1602 -4.34668 -17.3867 -8.69336c-5.90625 5.32812 -10.3975 8.00879 -13.4141 8.00879c-2.03516 0 -6.14746 -2.28516 -6.14746 -6.92285c0 -2.87891 3.64062 -6.90039 10.8672 -11.9531c0 -7.9873 5.43359 -20.2676 16.3008 -36.9482
c7.22656 -11.5742 23.2012 -27.5488 47.8154 -47.8154l6.52051 -22.8213c4.34668 -18.0938 21.0283 -27.168 49.9893 -27.168c-2.87988 -2.87988 -5.05371 -7.9873 -6.52051 -15.2139c-4.7002 1.08594 -9.68555 1.62988 -14.9424 1.62988
s-10.7852 -0.543945 -16.5723 -1.62988c-10.1611 20.2666 -25.7012 47.8154 -46.7285 82.5898c-4.1123 1.44922 -7.65625 2.17383 -10.6348 2.17383c-11.2432 0 -11.5439 -10.8447 -11.5439 -12.0029c0 -6.4873 5.95508 -9.73145 17.8311 -9.73145l32.6016 -68.4629
v-3.26074c-3.5752 -2.23828 -5.3623 -5.15527 -5.3623 -8.75c0 -2.25098 0.700195 -4.76758 2.10254 -7.55078c-2.89844 -0.470703 -4.34668 -1.59375 -4.34668 -3.36914c0 -0.886719 0.361328 -1.9375 1.08594 -3.15039
c-2.09863 -2.09863 -3.1582 -3.82324 -3.1582 -5.1709c0 -1.63672 2.07227 -2.33105 2.07227 -6.7832c-5.05371 0 -8.69434 -3.26074 -10.8672 -9.78027c2.17285 -5.81445 9.07422 -14.5078 20.6475 -26.0811c1.41309 -42.708 13.04 -67.2139 34.7744 -73.5713v-30.8623
h18.4746l-58.6826 -94.5449c-5.81445 -4.34668 -11.0303 -9.39941 -15.7578 -15.2139c-3.77441 -4.6416 -9.93848 -6.96289 -18.5488 -6.96289c-2.17383 0 -4.50293 0.147461 -6.98828 0.443359l-3.26074 -8.69434c21.0283 -17.3877 45.2617 -26.7871 72.8105 -28.2549
l3.25977 8.69434c-9.79492 6.28516 -14.6914 13.0752 -14.6914 20.3701zM456.901 229.813c-2.33008 0 -4.91992 -2.05762 -4.91992 -3.67969c0 -1.09277 0.96582 -2.75195 2.88281 -4.125c-2.76953 0.586914 -5.2998 2.31348 -7.58887 5.20703
c1.43945 2.17285 4.15625 3.25977 8.14355 3.25977s9.24414 -1.08691 15.7646 -3.25977c-2.82617 -2.23633 -6.27539 -3.84961 -10.3975 -4.79004c1.37695 0.978516 2.06152 2.1084 2.06152 2.96973c0 1.64941 -3.24512 4.41797 -5.94629 4.41797z" />
</svg>
