<?xml version="1.0" standalone="no"?>
<!DOCTYPE svg PUBLIC "-//W3C//DTD SVG 1.1//EN" "http://www.w3.org/Graphics/SVG/1.1/DTD/svg11.dtd" >
<svg xmlns="http://www.w3.org/2000/svg" xmlns:xlink="http://www.w3.org/1999/xlink" version="1.1" viewBox="-10 0 891 1000">
   <path fill="currentColor"
d="M716.902 844.003c19.7441 0 -4.80957 18.1826 51.8496 51.8418h-66.29l-8.91113 -42.5986c9.84961 -6.19531 17.583 -9.24316 23.3516 -9.24316zM699.938 530.94c0 39.4111 -3.74512 154.748 -40.0762 309.917l11.1934 54.9873h-315.056
c-23.7256 0 -48.499 -5.84473 -48.499 -32.8682c0 -22.2959 28.7725 -40.9297 86.2246 -55.8076l168.441 -48.25c15.7031 -122.038 31.46 -208.486 47.1631 -259.399v73.0273h59.4434c1.49414 -60.2793 8.17188 -90.4453 20.0869 -90.4453
c4.15918 0 11.0781 3.96777 11.0781 48.8389zM604.766 338.903c-18.0869 -11.5645 -29.124 -14.9385 -36.3496 -14.9385c-7.7041 0 -12.8242 3.82715 -15.2686 11.5693c1.60352 8.83691 7.29297 13.2588 17.085 13.2588c8.45117 0 19.959 -3.29395 34.5332 -9.88965z
M520.546 370.418c19.0732 -35.9961 26.8877 -29.9736 33.6875 -60.6387c30.7002 1.52148 56.9443 11.6279 78.6787 30.3193c6.24316 -6.24316 11.835 -9.35645 16.791 -9.35645c6.61816 0 13.7305 6.63965 13.7305 14.7021c0 28.8604 -43.249 23.9072 -51.9297 122.67
c-2.98828 -6.73828 -6.35742 -15.0518 -10.1064 -24.7773c-3.24023 -8.40527 -15.6504 -12.5908 -37.3359 -12.5908c-3.4082 0 -7.04688 0.103516 -10.9141 0.310547c-10.4873 0 -15.7578 -8.63965 -15.7578 -25.8633c2.81836 0.0820312 5.42188 0.123047 7.8125 0.123047
c13.3213 0 19.9941 -1.27246 19.9941 -3.83008c0 -3.04102 -13.2188 -10.2734 -20.6113 -10.2734c-2.9375 0 -5.33496 0.926758 -7.19531 2.78711v-14.6709zM683.556 341.321c0 -17.3984 -14.9746 -31.2324 -31.5352 -31.2324c-5.57227 0 -11.582 1.38379 -18.0215 4.14648
c-17.2246 -12.7148 -39.665 -21.3545 -67.377 -25.8643c10.1064 -16.3008 26.625 -24.3965 49.5547 -24.4512c22.0703 0 75.6221 6.08887 105.955 61.5078c12.7314 23.2627 19.0977 79.293 19.0977 167.986c0 33.9473 -0.932617 72.6797 -2.79785 116.19h-20.2129
l3.36914 -103.347c-1.23145 -24.8457 -9.75195 -46.624 -35.8428 -46.624c-21.8027 0 -34.2148 29.8311 -37.1846 89.332h-17.9307c0.760742 -83.0801 7.82422 -132.145 21.2998 -147.142c4.48535 -4.99219 31.626 -36.2002 31.626 -60.5029zM644.247 167.886
c4.60059 0 31.9092 0.987305 31.9092 24.4189c0 10.3955 -3.67578 30.0742 -31.5068 30.0742c-11.7559 0 -25.8643 -11.4561 -25.8643 -26.4307c0 -2.46484 0.598633 -28.0625 25.4619 -28.0625zM669.969 240.121c12.7949 -2.0459 33.2441 -10.6348 33.2441 -44.6436
c0 -15.8906 -6.19629 -29.4443 -18.6816 -40.6641l32.6016 -148.228c7.76172 -27.7412 19.7793 -32.4258 28.8477 -32.4258c0.349609 0 26.6973 0.238281 26.6973 22.501c0 8.71094 -4.05957 20.0312 -30.877 20.0312l-19.126 236.903
c-4.09961 1.71484 -7.8125 2.57715 -11.1338 2.57715c-12.2529 0 -4.33984 -7.16309 -41.5723 -16.0518zM631.817 -51.4629c11.2695 0 29.1729 4.35352 29.1729 32.0156c0 8.7793 0 8.7793 -36.0117 164.154c-26.7949 8.05859 -33.6543 39.415 -33.6543 50.002
c0 13.5947 6.7041 25.7256 20.1797 36.3926c-8.15137 -0.591797 -15.1045 -0.878906 -20.8662 -0.878906c-19.4121 0 -17.1738 3.05664 -23.668 3.05664c-4.78223 0 -10.8818 -1.86816 -18.2783 -5.54688l85.3076 -237.991
c-13.4238 -6.11328 -20.165 -13.5996 -20.165 -22.458c0 -0.259766 0.129883 -18.7461 17.9834 -18.7461zM299.61 295.03c-14.2373 0 -75.8662 5.97461 -75.8662 59.0811c0 29.7119 12.9541 62.8223 62.1797 81.4014c10.4863 5.97656 16.4092 15.7568 17.9307 29.2324
l17.9307 79.6562c-5.27344 0 -7.88379 1.26465 -7.88379 3.79492c0 0.15625 0.610352 7.77246 11.2529 10.876c-1.70117 -0.297852 -3.24414 -0.447266 -4.63086 -0.447266c-6.0957 0 -9.14355 2.88867 -9.14355 8.70996c0 8.77441 8.32812 26.0469 8.44922 26.2949
l-157.465 -235.601l-122.364 281.895l16.8438 14.5615l11.1934 -26.9502l14.6709 6.7373l-11.3018 26.9512l18.0391 7.82422l12.2803 -26.9512l12.3887 4.56445l-5.65137 29.124l21.4082 2.28223l48.25 -251.575l138.122 207.78
c-3.79785 0.428711 -5.69629 3.36035 -5.69629 8.78613c0 12.3613 9.61523 40.5088 28.1602 40.5088c7.72461 0 50.6699 -12.9365 59.4746 -15.6064c25.1475 10.5352 58.2988 15.7891 99.4785 15.7891c8.4375 0 28.5166 -1.58008 43.6406 -2.74316
c-2.81055 17.1738 -5.6123 35.6211 -8.36621 55.417l-205.498 59.5518c-35.5537 10.3027 -50.2822 38.6562 -50.2822 64.7354c0 15.0088 4.92578 57.0869 59.3018 64.3672h486.196v-22.4951c-44.9355 -26.1904 -70.582 -49.5 -76.9395 -70.0938
c-3.76172 -12.1836 -11.5361 -18.2812 -23.3008 -18.2812c-8.12012 0 -18.1416 2.90527 -30.0566 8.71875c16.4639 -70.3652 27.0049 -134.047 31.5146 -190.937h34.7744c3.49023 -54.2412 5.23633 -102.105 5.23633 -143.595c0 -109.67 -12.2002 -174.803 -36.6416 -195.46
c5.08301 -1.80273 10.6533 -2.70312 16.7031 -2.70312c20.1797 0 29.9043 8.17578 42.582 8.17578c15.9082 0 33.9277 -10.1191 54.0586 -30.25c-19.9395 -5.54785 -35.2402 -8.2998 -45.9443 -8.2998c-9.87012 0 -11.2676 2.32324 -18.9492 2.32324
c-14.0703 0 -17.1396 -10.6777 -22.4336 -10.6777c-0.669922 0 -1.12012 0.335938 -1.34863 1.00586l11.1934 -214.518c18.0332 -0.59082 36.5811 -8.98828 36.5811 -41.0322c0 -46.1279 -54.0146 -48.2109 -54.7441 -48.2109c-20.6201 0 -37.0049 14.0361 -49.2129 42.0791
l-33.6885 154.966l-10.1064 -2.17383c34.9141 -155.101 34.9141 -155.101 34.9141 -157.871c0 -18.5449 -2.7666 -60.832 -55.0381 -60.832c-40.9639 0 -46.4717 38.3789 -46.4717 45.9873c0 12.3301 6.47168 22.7549 19.4316 31.2256l-84.2197 217.778
c-15.1201 -4.85742 -27.3594 -7.28613 -36.8008 -7.28613c-8.91504 0 -9.64062 1.87988 -16.3887 1.87988c-9.60352 0 -22.2295 -4.14746 -37.7686 -12.5244c18.248 30.7139 36.7549 45.9951 55.3691 45.9951c1.46875 0 3.34863 -0.146484 7.13477 -0.146484
c40.25 0 23.834 16.2373 62.1416 20.332c-13.8643 22.5957 -20.7705 36.8945 -20.7705 42.7949c0 0.414062 0.0302734 0.50293 0.0302734 0.919922c0 14.915 -31.7002 46.7227 -31.7002 63.0898c0 16.7236 23.3887 -4.45801 23.3887 57.8633
c0 1.95898 -0.0244141 3.97754 -0.0722656 6.05469l-37.0566 81.9385c-7.31152 6.73535 -14.5518 10.0752 -21.6309 10.0752c-4.02051 0 -5.34473 -0.952148 -8.63574 -0.952148c-6.38867 0 -10.5684 4.10645 -12.4414 12.2852
c11.0322 8.99023 21.4932 13.4854 31.3896 13.4854c15.6445 0 29.8779 -11.2334 42.7246 -33.6982l43.7949 -71.9404c1.97656 -0.235352 3.84473 -0.353516 5.60547 -0.353516c14.2363 0 21.3887 7.7002 21.3887 22.9971c0 4.73047 -10.9756 30.0195 -25.4404 89.9238
l-148.695 13.2744c-17.2246 -13.4756 -39.2305 -24.0166 -66.1807 -31.5146l-19.127 -85.3076c-5.21582 -25.4287 -13.8008 -40.0449 -25.7549 -43.7939c-53.2041 -18.1748 -55.1777 -45.4727 -55.1777 -57.2598c0 -36.3477 38.9316 -39.5859 46.2529 -39.5859
c34.7812 0 30.9043 34.7695 58.2617 55.333c6.85059 5.03027 12.5723 7.52051 17.1777 7.52051c2.95605 0 5.45215 -1.02637 7.49121 -3.06543c-11.248 -18.6914 -17.9854 -28.7979 -20.2129 -30.3193c-8.05176 -35.2305 -27.7197 -52.8926 -59.2324 -52.8926z
M551.456 624.194c-36.9121 1.85645 -92.4297 7.41211 -130.779 12.3604c-20.2129 -7.49805 -35.5898 -15.3223 -46.0771 -23.582c20.2129 -2.22754 35.916 -5.59668 47.1631 -10.1064l132.964 5.01074z" />
</svg>
