<?xml version="1.0" standalone="no"?>
<!DOCTYPE svg PUBLIC "-//W3C//DTD SVG 1.1//EN" "http://www.w3.org/Graphics/SVG/1.1/DTD/svg11.dtd" >
<svg xmlns="http://www.w3.org/2000/svg" xmlns:xlink="http://www.w3.org/1999/xlink" version="1.1" viewBox="-10 0 678 1000">
   <path fill="currentColor"
d="M430.417 395.873c2.86523 33.1387 9.35254 73.251 19.4619 120.12h7.56836c-13.6777 -57.6816 -20.543 -97.793 -20.543 -120.12h-6.4873zM414.199 391.549l-7.56836 119.038h4.3252l7.56836 -117.957zM356.896 908.572
c16.3535 -1.0625 16.7969 -18.7656 16.7969 -26.9717c0 -13.6797 -2.38477 -24.5469 -7.06641 -32.6016c40.3828 -80.7646 60.5469 -145.203 60.5469 -193.532c-0.109375 -1.23828 -0.163086 -2.52734 -0.163086 -3.86621c0 -16.5977 8.37207 -40.8828 25.0303 -72.8984
c-17.2988 -80.0078 -25.9482 -141.365 -25.9482 -183.91l-5.40625 -1.08105l-1.08105 125.525h-22.7051l12.9746 -128.77l-2.16309 -1.08105c-7.94629 96.6045 -15.1367 146.069 -21.623 148.231h-5.40625c-3.55664 16.8555 -5.33594 34.6504 -5.33594 53.3994
c0 11.7383 0.697266 23.8506 2.0918 36.3389c-7.60254 18.1504 -11.418 38.2295 -11.418 60.209c0 5.05762 0.202148 10.2158 0.606445 15.4746c-25.9482 103.091 -40.0039 155.312 -42.166 156.772c-36.7607 10.1084 -68.2236 22.4346 -94.1719 36.8682h-37.8418
c-0.0458984 0.425781 -0.0693359 0.836914 -0.0693359 1.23438c0 5.66406 4.67871 8.49609 14.125 8.49609c27.3115 -3.99414 52.71 -5.99414 76.1836 -5.99414c27.3555 0 52.0986 2.71582 74.21 8.15625zM401.225 386.143l-24.8672 141.744h3.24414l23.7861 -139.582z
M391.494 382.898l-28.1104 143.906h3.24316l28.1113 -140.662zM553.664 437.101c0 -6.55078 -0.947266 -31.5312 -14.0469 -61.7695h-47.5723c-17.2988 11.5146 -30.2734 17.6768 -38.9229 18.3799c1.45996 45.4102 9.73047 88.3867 24.8672 128.77h-17.2988
c20.9209 85.792 38.2197 134.77 51.8975 147.041c18.415 36.832 32.4736 161.822 32.4736 163.489c0 20.8398 -8.99023 32.6885 -27.0684 35.4502c-49.2617 7.52441 -56.5596 30.7363 -97.3066 32.543c-0.0576172 0.59082 -0.0869141 1.15527 -0.0869141 1.69336
c0 5.42188 2.94043 8.13184 8.88086 8.13184c4.62012 0 55.8496 -15.9775 93.4443 -15.9775c32.2832 0 33.2402 13.1943 52.8086 13.1943c7.39941 0 17.5771 -2.91895 17.5771 -18.9795c0 -9.34961 -3.125 -22.3584 -9.36426 -38.9863
c1.21875 -20.6631 1.82812 -39.8975 1.82812 -57.7061c0 -66.707 -8.54688 -113.397 -25.6143 -140.151c-5.78516 -89.4141 -10.8125 -148.825 -15.1367 -178.396c5.75977 -10.959 8.64062 -23.2002 8.64062 -36.7266zM383.926 356.95l-1.08105 4.3252
c16.4365 21.2148 39.791 24.9219 57.0889 24.9219c21.5498 0 37.1182 -6.12988 46.7051 -18.4346h-2.16211c-12.6123 8.83301 -27.248 13.25 -43.9775 13.25c-18.6729 0 -39.3887 -4.94531 -56.5732 -24.0625zM506.101 347.22l-8.64941 16.2178h41.085l-1.08105 -16.2178
h-31.3545zM416.994 354.837c0 -3.8916 4.4707 -9.6748 13.4229 -17.3477c2.05469 6.14355 3.0791 11.0605 3.0791 14.749c0 5.54395 -2.31445 8.31641 -6.92773 8.31641c-0.537109 0 -9.57422 -0.270508 -9.57422 -5.71777zM214.071 285.052v20.1094
c13.5693 8.54199 25.4619 13.1367 35.6797 13.8398v-21.2998c-12.3799 -2.48633 -24.2734 -6.64941 -35.6797 -12.6494zM263.806 284.511v4.75684c3.60254 0.231445 6.94922 0.363281 9.91211 0.363281c3.97363 0 7.25781 -0.237305 9.5498 -0.794922v-1.08203
c-6.16309 -1.62109 -12.7041 -2.64844 -19.4619 -3.24316zM165.418 284.511v21.8398c5.05664 -0.976562 10.1016 -1.49023 15.1455 -1.49023c6.11914 0 12.2373 0.755859 18.3711 2.35547c-10.0342 -7.52539 -10.0342 -7.52539 -10.0342 -12.7529
c0 -2.71387 0.825195 -5.31348 2.46582 -7.79004c-2.86523 0.174805 -5.55273 0.262695 -8.06348 0.262695c-7.57812 0 -13.54 -0.800781 -17.8848 -2.4248zM119.792 283.97c-1.18945 0 -2.81152 0.163086 -4.1084 0.216797v7.13574
c8.59473 0 15.8926 -1.18945 21.623 -3.56836v-1.08105c-3.62207 -1.7832 -9.40625 -2.70312 -17.5146 -2.70312zM393.849 340.749c0 6.70605 2.44238 34.582 43.0557 34.582c27.4082 0 47.5723 -12.9746 60.5469 -38.9229h38.9229
c-1.13379 -4.73926 -1.70117 -9.75977 -1.70117 -15.0625c0 -11.6328 2.72949 -24.627 8.1875 -38.9971c-16.5957 24.4883 -40.0039 37.1387 -70.2773 37.8418h-70.2764c-5.63867 6.63281 -8.45801 13.4824 -8.45801 20.5586zM56.2178 282.349l-5.40625 15.1367
c20.1104 15.2441 37.0312 23.083 50.8164 23.6777v-22.3809c-16.3262 -2.64844 -31.4629 -8.05469 -45.4102 -16.4336zM101.628 276.186v2.16211c-2.4873 0.270508 -5.08203 0.378906 -7.56836 0.756836c2.54102 -1.18945 5.02734 -2.05371 7.56836 -2.91895z
M249.751 274.996v2.4873c-2.4873 0.162109 -4.97363 0.269531 -7.56836 0.540039c2.54004 -1.24316 5.02734 -2.1084 7.56836 -3.02734zM119.895 273.111c-1.4082 0 -2.81152 0.0517578 -4.21094 0.155273v4c3.24316 -0.108398 6.43262 -0.324219 9.73047 -0.324219
c10.8115 0 18.7588 4.70312 23.7861 14.0557c-10.2715 5.94629 -21.4072 9.02734 -33.5166 9.08203v20.3262c9.03613 -1.20508 19.2764 -3.7666 35.6787 -10.0547v-30.166c-23.1797 -7.07422 -23.1797 -7.07422 -31.4678 -7.07422zM214.071 271.536v4.3252
c12.7041 6.43262 24.543 10.3789 35.6797 12.001v-3.89258c-3.83887 0.0546875 -7.83887 0.216797 -11.8936 0.541016l-5.40625 -6.4873c0.432617 -2.16211 2.27051 -4.32422 5.19043 -6.4873h-23.5703zM187.915 276.218c9.70117 0 9.70117 0 12.1006 -3.59961v-1.08203
h-34.5977v1.83887c8.84766 2.84277 16.3799 2.84277 22.4971 2.84277zM86.4912 249.913v9.73047h192.451v-9.73047h-192.451zM373.114 244.507l-11.8936 32.4355l15.1367 -3.24316c-2.16211 -6.4873 -3.24316 -16.2178 -3.24316 -29.1924zM329.245 301.864
c22.2041 0 4.89453 7.15723 87.6621 7.15723c60.2686 0 83.5508 -0.0146484 105.411 -18.0234c62.0059 -78.6025 92.9824 -131.526 92.9824 -158.935c0 -11.5146 -5.78516 -18.7588 -17.2998 -21.624c-11.5146 25.9482 -31.3545 42.166 -59.4648 48.6533l-1.08105 14.0557
l14.0547 -9.73047l3.24414 3.24316c-33.1387 37.4629 -56.9248 73.1426 -71.3584 107.038c-73.3213 3.45312 -91.0146 15.5967 -125.226 15.5967c-29.5635 0 -60.2695 -15.4141 -81.7139 -17.7598h-12.6504v5.83887c22.6533 1.25977 32.1113 8.86523 34.7061 11.4609
c-9.89453 7.18652 -21.0449 10.6104 -33.3037 10.6104c-0.46582 0 -0.933594 -0.00488281 -1.40234 -0.0146484v18.9199c29.7246 -3.69727 41.9434 -16.4873 65.4395 -16.4873zM387.024 236.682c0 9.44824 0.774414 20.3438 2.30762 32.6924
c12.2715 -5.78418 23.083 -21.624 32.4355 -47.5723l9.73047 3.24316c-7.94629 24.4893 -15.5146 38.9229 -22.7051 43.248l68.1152 -6.4873c10.1094 -23.7861 21.2451 -43.2471 33.5166 -58.3838l-28.1104 7.56836v-51.8975
c-78.2246 0 -89.9756 -53.1211 -93.9434 -53.1211c-6.42188 0 -23.4014 21.5898 -32.5557 33.6602c-11.5146 25.9482 -23.4082 70.6016 -35.6797 134.067l27.0303 4.32422c17.2988 -36.7598 30.6514 -73.1426 40.0039 -109.2l12.9736 4.3252
c-8.15234 24.5469 -13.1191 44.1416 -13.1191 63.5332zM538.536 100.709v45.4102c20.1641 -2.86523 36.3818 -16.5967 48.6533 -41.0859zM442.311 98.5459c-15.8398 0 -28.8145 1.08203 -38.9229 3.24414c8.64941 27.4082 34.9219 42.166 78.9268 44.3291v-41.0859
c-3.02441 1.75781 -6.62305 2.63672 -10.7949 2.63672c-7.75977 0 -17.502 -3.04102 -29.209 -9.12402zM428.255 66.1104c-3.47363 1.29883 -7.5918 1.9541 -12.3535 1.9541c-3.16602 0 -6.61621 -0.289062 -10.3516 -0.87207
c-2.05469 5.56738 -6.97363 14.3252 -13.2988 24.543c8.37988 -2.5957 17.5156 -4.00098 27.3545 -4.00098h18.3799c-4.32422 -5.78418 -7.56836 -12.9746 -9.73047 -21.624zM482.314 13.1328l-10.8125 11.8926c-2.86523 20.9209 -11.8926 32.8145 -27.0293 35.6797
c1.45996 11.5146 5.02734 20.9209 10.8115 28.1104c5.40625 2.51367 10.3662 3.77051 14.873 3.77051c4.50781 0 8.56152 -1.25684 12.1572 -3.77051v-75.6826zM400.144 -14.9785v5.40625c2.86523 -5.02734 6.86621 -7.56836 11.8936 -7.56836
c5.78418 0 13.3525 2.86523 22.7051 8.64941h17.2988v5.40625h-17.2988c-10.8125 4.32422 -18.2188 6.48633 -22.165 6.48633s-9.18945 -1.7832 -15.6768 -5.40527c-15.7188 19.0859 -15.7188 19.0859 -15.7188 20.4473c0 3.44141 6.12891 3.51367 6.2002 3.51367
c2.85547 0 4.60742 -1.47852 5.19336 -4.5c2.16309 0.703125 3.24414 2 3.24414 3.78418s-1.45996 3.40625 -4.3252 4.86523v5.40625c0.712891 -0.174805 1.67383 -0.262695 2.88086 -0.262695c3.64551 0 9.54004 0.800781 17.6621 2.4248v1.08105
c-14.8662 4.0459 -18.3672 6.95508 -18.3672 12.1641c0 6.70215 16.7334 6.70215 22.6514 6.70215c23.9111 0 42.208 -3.11816 43.2881 -30.7588c20.6191 -11.9844 24.6514 -27.2305 24.6514 -31.8525c0 -8.50879 -7.00098 -10.0811 -8.43359 -10.3135
c-6.4873 0.702148 -10.1094 6.48633 -10.8115 17.2988l-12.9746 -12.9746v3.24414h-14.0557c-8.57617 -3.66895 -20.7451 -8.44727 -26.5889 -8.44727c-4.70898 0 -8.48242 2.43359 -11.2529 5.20312zM405.55 -30.1152l-2.16211 5.40625
c1.20117 -1.20312 9.98047 -1.65332 10.7168 -1.65332c5.91016 0 15.6426 3.08887 29.2871 9.22168h6.4873c-7.19043 -8.64941 -22.0029 -12.9746 -44.3291 -12.9746zM181.636 185.041c0 23.084 -3.94629 40.707 -11.8936 52.9785h30.2734
c-7.18945 -12.2715 -10.8115 -29.8945 -10.8115 -52.9785c0 -46.2305 24.1504 -96.2324 25.9482 -158.935c0 -23.7861 -9.35254 -39.3008 -28.1104 -46.4912v-22.7041h-3.24414v22.7041c-18.7588 7.19043 -28.1104 22.7051 -28.1104 46.4912
c1.79883 62.7471 25.9482 112.666 25.9482 158.935zM410.956 -39.8457c20.9209 0 37.1387 6.1084 48.6533 18.3799h2.16211c1.45996 -4.32422 6.1084 -6.4873 14.0557 -6.4873c12.9746 0 19.4609 6.4873 19.4609 19.4619v204.345
c20.1641 -7.19043 30.2734 -15.5156 30.2734 -24.8672v-83.252h32.4355c-8.46484 -93.4805 -21.1162 -152.473 -90.5762 -152.473c-21.9912 0 -53.5781 3.74219 -56.4648 24.8926zM249.751 328.623c-24.835 -1.56543 -8.75293 -4.69531 -35.6797 -7.56836v365.767h1.08105
c6.4873 9.35156 9.73047 18.7578 9.73047 28.1104c0 17.2988 -5.02734 25.9492 -15.1367 25.9492c3.26953 -7.86719 4.90723 -14.7617 4.90723 -20.6885c0 -7.10645 -2.35352 -12.8203 -7.06934 -17.1533c-4.71582 4.33301 -7.06934 10.0469 -7.06934 17.1533
c0 5.92676 1.6377 12.8213 4.90723 20.6885c-9.35254 0 -14.4336 -8.65039 -15.1367 -25.9492c0 -9.35254 3.24316 -18.7588 9.73047 -28.1104v-367.172c-10.9199 -1.24316 -20.5967 -2.54102 -28.1104 -3.78418c-2.2168 0.918945 -4.3252 1.56738 -6.4873 2.37891v369.658
c7.18945 8.64941 10.8115 18.002 10.8115 28.1104c0 16.5967 -5.02734 24.8682 -15.1367 24.8682c2.92188 -7.47461 4.38477 -14.0615 4.38477 -19.7695c0 -6.96582 -2.17871 -12.624 -6.54688 -16.9912c-4.71582 4.33301 -7.06934 9.93457 -7.06934 16.8242
c0 5.74707 1.6377 12.3887 4.90723 19.9365c-9.35254 0 -14.4336 -8.27148 -15.1367 -24.8682c0 -10.1084 3.24316 -19.4609 9.73047 -28.1104v-364.685c-13.082 4.05371 -24.9209 6.37891 -35.6787 7.24316v357.441h1.08105c6.4873 8.64941 9.73047 18.002 9.73047 28.1104
c0 16.5967 -5.02734 24.8682 -15.1367 24.8682c3.26953 -7.54785 4.90723 -14.1904 4.90723 -19.9365c0 -6.88965 -2.35352 -12.4922 -7.06934 -16.8242c-4.71582 4.33301 -7.06934 9.93555 -7.06934 16.8252c0 5.74609 1.63672 12.3877 4.90625 19.9355
c-9.35156 0 -14.4336 -8.27148 -15.1357 -24.8682c0 -10.1084 3.24316 -19.4609 9.73047 -28.1104v-357.225c-17.5693 -1.67578 -38.1123 -11.2441 -61.6279 -28.8682c0.703125 -13.6768 5.02734 -23.7861 12.9746 -30.2734
c17.2988 10.8125 33.5166 17.1377 48.6533 18.9209v-5.18945c-4.1084 0.432617 -8.27148 0.756836 -12.9746 1.40527l-6.4873 -6.4873c1.08105 -2.75684 4.5957 -5.67578 9.29883 -8.64941h-16.8672v-33.5166h78.9268c6.55859 -12.0098 14.7705 -31.5732 14.7705 -54.3018
c0 -45.5312 -25.582 -96.2393 -25.582 -157.611c-15.3662 -2.14648 -0.0683594 -12.3135 -32.4355 -19.4609v-9.73047c2.52832 -0.244141 4.9668 -0.365234 7.31445 -0.365234c11.7051 0 21.1602 3.02539 28.3643 9.01465
c0.703125 -13.6777 9.35254 -24.8672 25.9492 -33.5176v-15.1357h-32.4355c-4.3252 0 -6.4873 -2.54102 -6.4873 -7.56836c0 -5.02832 2.16211 -7.56836 6.4873 -7.56836h90.8193c4.3252 0 6.4873 2.54004 6.4873 7.56836c0 5.02734 -2.16211 7.56836 -6.4873 7.56836
h-31.3545v15.1357c19.4619 10.1094 29.1924 28.1113 29.1924 54.0596c0 61.9092 -26.5117 115.614 -26.5117 161.213c0 10.4209 1.85742 28.6475 18.9434 50.7002h70.3848v26.5977c4.91992 1.24316 10.2178 2.75684 16.2188 4.75684
c10.8115 -60.5469 22.7041 -105.254 35.6787 -134.067c6.81152 -13.082 15.1904 -23.2451 25.084 -30.9219c-0.30957 -0.274414 -3.26172 -3.01465 -3.26172 -8.0127c0 -5.75879 5.31543 -8.6377 16.0195 -8.6377l9.73047 -27.0293
c-2.69727 -10.791 -4.62695 -3.70215 -4.62695 -10.3223c0 -2.02441 0.820312 -4.35059 2.46484 -6.97754c-3.24121 -1.09375 -4.87305 -2.58203 -4.87305 -4.46484c0 -0.629883 0.182617 -1.30371 0.547852 -2.02148
c-1.44141 -1.44238 -2.16211 -2.71484 -2.16211 -3.83594c0 -1.6377 1.50586 -1.94434 1.50586 -4.55176c0 -0.75 -0.142578 -1.55664 -0.424805 -2.4248c-4.32422 0 -7.56836 -2.54004 -9.73047 -7.56836c2.16211 -5.02734 8.27051 -12.9736 18.3799 -23.7861
c3.79785 -50.665 20.2803 -69.7676 79.3477 -69.7676c71.1758 0 89.9268 43.1299 100.13 163.831c38.2197 0.703125 57.3027 14.4346 57.3027 41.085c-0.702148 30.9766 -19.8398 71.6836 -57.3027 122.175c-11.1172 24.9375 -16.6885 49.5254 -16.6885 73.7617
c0 42.6797 20.8438 79.0625 20.8438 116.716c0 7.40918 -2.54883 26.6289 -9.56152 31.2744c4.3252 28.8135 8.27148 83.9541 11.8936 165.422c17.5859 28.541 26.3555 76.9766 26.3555 145.281c0 21.3506 -0.857422 44.6426 -2.56934 69.875
c6.23926 7.93848 9.34668 18.1426 9.34668 30.5342c0 3.38965 -0.232422 6.94336 -0.697266 10.6592c0 7.74805 -9.66602 29.4482 -29.875 29.4482c-20.9424 0 -19.8779 -11.3896 -61.043 -11.3896c-22.5996 0 -53.2012 3.35059 -91.8027 10.0518
c-15.9561 0 -23.9561 -10.4404 -23.9561 -31.2783c0 -1.75391 0.0566406 -3.58105 0.169922 -5.48145h20.542c23.9824 0 47.4648 -24.1611 84.874 -30.9219c12.7363 -2.30273 19.125 -8.86719 19.125 -19.7334c0 -1.70117 -21.2246 -147.98 -33.7217 -166.772
c-9.35254 -10.1084 -16.3799 -22.002 -21.083 -35.6787s-8.81152 -24.8672 -12.4336 -33.5166c-11.1211 17.9326 -16.6807 33.998 -16.6807 48.1963c0 2.36719 0.154297 4.68164 0.462891 6.94434c0 51.1943 -19.8398 115.687 -59.4658 193.532l6.4873 32.4355
c0 28.8145 -10.1094 43.3564 -30.2734 43.3564c-29.7871 -6.73535 -54.5576 -10.0879 -74.2812 -10.0879c-29.5332 0 -39.6914 9.13574 -84.9404 9.13574c-2.81445 0 -5.63867 -0.0439453 -8.4707 -0.129883c-15.8389 0 -23.7861 -13.082 -23.7861 -39.0303h36.7607
c33.501 0 35.4717 -16.7803 81.7383 -27.5703c16.9199 -3.94629 25.4072 -8.4873 25.4072 -13.5146l36.7607 -142.718c-2.24805 -9.2334 -3.37305 -18.2988 -3.37305 -27.1934c0 -16.7764 4.00293 -32.9443 12.0225 -48.4893
c-2.20117 -12.3066 -3.30371 -25.0273 -3.30371 -38.1621c0 -16.8691 1.81934 -34.4219 5.46582 -52.6582h-8.64941c19.2217 -89.3574 28.8672 -142.214 28.8672 -158.396c0 -7.37793 -6.45117 -13.7842 -6.45117 -29.3291c0 -8.33203 2.26172 -16.0752 6.77637 -23.2139
c-22.5986 -5.53027 -40.9629 -8.2998 -55.1055 -8.2998c-27.7793 0 -28.751 11.8916 -62.8525 13.4893v359.279c7.19043 8.64941 10.8125 18.002 10.8125 28.1104c0 16.5967 -5.02734 24.8682 -15.1367 24.8682c2.92188 -7.47461 4.38477 -14.0605 4.38477 -19.7686
c0 -6.9668 -2.17969 -12.625 -6.54688 -16.9922c-4.7168 4.33301 -7.07031 9.93457 -7.07031 16.8242c0 5.74707 1.6377 12.3887 4.90723 19.9365c-9.35156 0 -14.4336 -8.27148 -15.1367 -24.8682c0 -10.1084 3.24414 -19.4609 9.73145 -28.1104v-359.279z
M412.965 -3.74414c-2.31836 0 -4.89648 -2.04785 -4.89648 -3.66113c0 -1.0918 0.970703 -2.75684 2.89648 -4.12695c-3.13867 0.62793 -5.29492 2.72266 -6.49609 6.28418c1.30078 1.64453 3.50488 2.46484 6.60254 2.46484c3.72266 0 8.73633 -1.18457 15.0215 -3.5459
c-2.85449 -2.85449 -6.14648 -4.56738 -9.875 -5.16504c1.77832 1.05371 2.66211 2.37793 2.66211 3.35449c0 1.63965 -3.22852 4.39551 -5.91504 4.39551z" />
</svg>
