<?xml version="1.0" standalone="no"?>
<!DOCTYPE svg PUBLIC "-//W3C//DTD SVG 1.1//EN" "http://www.w3.org/Graphics/SVG/1.1/DTD/svg11.dtd" >
<svg xmlns="http://www.w3.org/2000/svg" xmlns:xlink="http://www.w3.org/1999/xlink" version="1.1" viewBox="-10 0 1490 1000">
   <path fill="currentColor"
d="M298.309 478.116c-7.14941 0 -27.0293 0 -27.0293 -35.7061c0 -5.99805 1.16211 -11.9941 3.48535 -18.0059c-0.0742188 -1.74316 -0.112305 -3.45801 -0.112305 -5.14551c0 -36.1699 17.1318 -59.4932 51.3525 -69.833
c10.3008 -9.25488 18.5615 -17.2021 25.8301 -24.5752c-17.9268 -9.06836 -150.517 -79.0449 -275.653 -225.144c32.4707 -30.7969 51.7109 -54.1162 57.5146 -69.959l-56.2598 -63.6846c4.18262 -12.4971 11.2412 -19.9736 21.2285 -22.4834
c111.684 126.48 209.511 241.51 293.64 345.298c2.97949 -1.88281 5.90723 -3.81641 9.20215 -5.64648c36.0703 -20.3643 30.4424 -48.0596 47.998 -59.8154c-54.8047 -0.928711 -99.4834 -77.0488 -112.938 -99.9717c-25.4102 -43.292 -42.6123 -72.416 -51.7627 -87.4219
c0.703125 -14.667 6.9375 -22.0322 18.7666 -22.0322c2.25586 0 4.71387 0.267578 7.37695 0.803711c165.027 83.958 201.283 107.282 243.549 157.276c62.5996 -66.6172 99.5088 -81.1299 274.711 -138.558c2.09668 -0.301758 4.05664 -0.452148 5.87891 -0.452148
c12.0342 0 18.0771 6.56738 18.0771 19.6494c0 1.43457 -0.0722656 2.94824 -0.217773 4.54004c-11.6602 13.333 -33.0977 39.5293 -64.3125 78.6387c-55.2891 69.2725 -88.5322 92.418 -166.688 103.631c22.4844 21.6465 34.5088 48.5742 36.1826 80.626
c4.09473 78.458 83.5488 179.646 98.0889 192.936c38.5117 35.1992 87.6475 35.1992 103.257 35.1992c9.97461 0 21.1797 -0.34375 33.5234 -1.00391c-26.9229 -95.8076 -27.502 -236.025 -27.502 -238.426c0 -30.3779 2.40527 -68.9121 7.42383 -115.552
c15.1201 1.125 28.5898 1.68945 40.4131 1.68945c23.3389 0 40.2588 -2.19727 50.7744 -6.60449l8.78418 -83.6572c5.42188 -2.33398 10.5615 -3.50391 15.4287 -3.50391c5.59961 0 10.8389 1.54883 15.7334 4.65332c-17.5156 162.506 -35.3447 307.757 -53.6455 436.694
c108.098 -11.1123 108.098 -11.1123 130.869 -11.1123c53.2002 0 95.1113 8.46094 125.751 25.335c79.0986 43.5576 108.541 68.6084 109.836 68.6084c22.9717 0 34.4111 -49.6846 34.4111 -149.148c0 -24.3418 -4.05957 2.49805 -28.6934 -61.8887
c-20.3359 -77.5068 -20.3359 -77.5068 -20.3359 -79.9014c0 -13.3125 15.4873 -16.1348 19.7227 -16.1348c6.59863 0 10.5244 4.11816 11.8018 12.3789l19.9736 74.9775c6.74512 18.1201 12.9688 27.1797 18.6562 27.1797c5.55566 0 10.5996 -8.6416 15.1201 -25.9238
l18.7178 -74.9785c1.5332 -8.38086 6.88086 -12.5498 16.0859 -12.5498c5.27441 0 17.6777 4.52441 17.6777 17.9727c0 1.77246 0 1.77246 -20.0635 75.7246c-4.18359 24.9932 -13.752 42.5088 -28.7578 52.4951c-0.836914 116.546 -13.6992 186.871 -38.6914 211.027
c19.7119 54.9521 29.5674 100.043 29.5674 135.275c0 62.9893 -31.502 94.4707 -94.5068 94.4707h-504.457c-22.4834 0 -33.7773 -9.5166 -33.7773 -28.6533c0 -61.3398 25.2539 -72.6914 43.9463 -72.6914c39.5303 0 163.454 23.8115 248.679 23.8115
c27.8828 0 41.835 -3.70508 41.835 -11.1357c0 -4.52148 -37.6523 -59.7373 -49.8594 -59.7373c-1.56152 0 -2.7666 0.772461 -3.61426 2.31836c-17.4639 0.835938 -38.9014 10.667 -64.3125 29.3848c-12.9951 9.57324 -32.6797 14.3594 -59.0576 14.3594
c-65.4971 0 -118.328 -25.3682 -183.61 -25.3682c-29.3936 0 -51.5479 5.76074 -66.4473 17.2832c-27.4502 21.2275 -46.5869 43.8154 -57.4102 67.9727c-13.333 28.2861 -96.9385 42.4561 -250.974 42.4561h-308.488c3.34668 -70.7432 24.5742 -106.142 63.6846 -106.142
c39.1094 0 69.1221 3.81738 89.9326 11.2939l292.175 -37.4365c40.585 -28.7559 51.1641 -109.054 51.1641 -184.964c0 -139.322 -60.5781 -139.322 -81.3213 -139.322c-4.37305 0 -8.8916 0.28125 -13.5547 0.84375l-42.4561 17.4629
c-10.8232 0.836914 -16.209 5.38574 -16.209 13.7002c0.0283203 0.419922 0.0419922 0.833984 0.0419922 1.24023c0 11.6953 -11.625 17.9238 -34.9688 18.7324c0 12.4971 -7.05859 18.7188 -21.2285 18.7188c-0.463867 0.0234375 -0.920898 0.0351562 -1.37305 0.0351562
c-15.7373 0 -24.0605 -14.1807 -24.874 -42.4912c-0.924805 0.0439453 -1.82617 0.0664062 -2.7041 0.0664062zM539.542 197.063c-40.6816 -52.3682 -75.6201 -83.7158 -232.255 -169.825l-7.5293 3.76465c107.396 61.5928 181.537 118.637 222.32 171.08zM502.104 438.103
c60.9307 15.3115 67.3057 120.833 67.3057 164.335c0 108.561 -21.8008 165.993 -61.1357 205.328l-315.912 36.1816c-29.3604 -12.3066 -70.9316 -13.8193 -71.6611 -13.8193c-34.6475 0 -51.9707 15.1904 -51.9707 45.5283
c0 0.681641 0.00878906 1.37109 0.0263672 2.06836h3.66113c13.332 -24.9922 29.5928 -37.541 48.7305 -37.541v6.27441c-9.98633 2.50977 -17.9346 12.9658 -23.7383 31.2666h13.8037c0 -16.627 9.93457 -27.5029 29.9082 -32.5225v8.78418l-14.9541 23.7383
c66.1934 -2.90234 123.943 -4.35352 173.263 -4.35352s90.207 1.45117 122.677 4.35352c73.2529 -6.64062 120.78 -19.9736 142.427 -39.9463c15.0068 -14.1699 37.6982 -35.8164 68.0771 -64.9404c18.8447 -18.0664 47.3691 -27.1191 85.5967 -27.1191
c63.7852 0 117.295 24.249 185 24.249c66.375 0 63.8018 -31.4717 122.072 -40.8398c-11.9902 -33.6777 -17.9844 -61.5674 -17.9844 -83.6641c0 -42.0918 21.751 -63.1592 65.2402 -63.1592c70.5967 0 136.005 49.373 196.293 134.274l1.25488 21.2275
c-105.688 -115.235 -154.456 -123.034 -177.329 -123.034c-34.0156 0 -50.9746 14.7734 -50.9746 44.3164c0 26.7734 11.9033 76.0771 104.699 178.689c-0.96875 8.68848 -22.4629 13.0117 -64.4707 13.0117c-30.5469 0 -71.9404 -2.28613 -124.178 -6.84277
l-156.021 -21.2275c-15.0059 0 -24.1572 18.3525 -27.5029 55.0049h11.1885c0 -26.666 10.877 -39.9463 32.5225 -39.9463c-9.98633 9.14941 -14.9541 22.4824 -14.9541 39.9463h8.67969c0 -17.4639 13.752 -26.666 41.2021 -27.5029
c-15.0059 13.333 -22.4834 22.4834 -22.4834 27.5029h389.637c-37.4893 -56.626 -59.9727 -100.756 -67.4492 -132.389c19.1367 15.0059 35.8164 35.5547 49.9854 61.8027c18.4971 34.2617 48.0957 63.1924 80.1367 63.1924c13.6387 0 28.333 -4.59766 44.0947 -13.835
c12.4805 -7.31445 18.7305 -22.4297 18.7305 -45.3506c0 -26.7275 -8.49805 -64.0674 -25.5273 -112.03c-25.1982 -61.9131 -68.6426 -87.8008 -133.644 -115.552c-27.9258 -11.9238 -63.667 -17.8799 -107.222 -17.8799c-75.1562 0 -127.14 16.6895 -205.143 16.6895
c-30.6846 0 -54.7627 -3.12402 -72.252 -9.37207c-61.25 -21.8809 -73.752 -35.8857 -129.252 -129.879c-24.5742 -41.6191 -38.4824 -80.3633 -41.8291 -116.181c-3.3457 -35.8154 -16.7314 -63.2646 -40.0508 -82.4023c-7.47754 0 -11.1895 -5.80371 -11.1895 -17.4639
c19.1367 -8.3125 44.4961 -13.6982 76.1289 -16.208l-76.1289 -6.27441c57.4629 -57.4619 143.631 -108.65 258.503 -153.616l-6.27441 -6.27441c-167.379 65.3701 -202.138 84.7451 -261.013 146.191c-55.8398 44.7783 -93.0361 53.5166 -93.5918 53.6455
c-27.875 6.46387 -27.2002 43.9297 -62.4297 63.6846c-13.333 7.47754 -39.6328 29.96 -78.7432 67.4492c-19.166 4.81641 -28.7031 20.3701 -28.7031 46.6133c0 1.10547 0.0166016 2.22949 0.0507812 3.37207c-3.01172 5.99219 -4.51758 12.1162 -4.51758 18.3936
c0 4.18555 0.668945 8.43945 2.00781 12.7686c0 3.70508 1.3418 5.57715 4.03906 5.57715c0.558594 0 32.7441 -6.04785 41.9268 -37.9932c0.839844 -0.046875 1.66992 -0.0703125 2.49121 -0.0703125c13.8525 0 24.0518 6.66602 32.6914 20.043
c58.2988 -19.1367 101.592 -29.5938 129.878 -31.2676c28.2871 -1.67285 50.3516 -18.248 66.1943 -49.8809c0.459961 3.96289 0.689453 7.76953 0.689453 11.4219c0 45.2168 -33.1172 58.6826 -80.583 63.4521zM318.476 449.396l-3.76465 -3.76465
c13.333 -13.333 27.0322 -23.79 41.2021 -31.2676l1.25488 5.01953c-13.7529 9.14844 -25.7393 20.0645 -38.6924 30.0127zM315.967 48.4658c49.9326 93.2266 94.9512 142.794 134.897 148.598h41.2021c-44.2471 -51.1016 -57.2373 -61.0166 -176.1 -148.598z
M152.415 53.4863c-5.01855 10.8223 -17.4639 26.2471 -37.4365 46.2207c76.0234 84.1807 160.832 153.042 254.529 206.738c0.469727 -0.469727 0.836914 -0.992188 1.35938 -1.46387c-60.9141 -72.3115 -133.487 -155.917 -218.452 -251.495zM819.273 64.6748
c-124.022 67.9766 -141.028 78.2197 -193.564 123.709c40.0449 4.92676 40.0449 4.92676 41.1211 4.92676c40.5918 0 91.4395 -42.8789 152.443 -128.636zM959.086 219.547c-9.3291 2.67676 -23.9805 4.01562 -43.9531 4.01562
c-4.99023 0 -10.3125 -0.0839844 -15.9668 -0.250977c-2.83105 32.3428 -4.24219 64.416 -4.24219 96.2217c0 76.8916 8.24902 152.213 24.6338 225.965c1.15039 -0.104492 2.0918 -0.104492 3.24121 -0.208984c11.3467 -92.8604 23.4248 -200.936 36.2871 -325.742z
M483.393 270.811c4.34961 0 8.92188 0.401367 13.6934 1.23145c0.0742188 1.18848 0.112305 2.34961 0.112305 3.48242c0 23.5254 -16.0557 35.2471 -48.123 35.2471c-1.05957 0 -2.13574 -0.0126953 -3.22949 -0.0380859l-8.67969 10.0391l-7.53027 -5.01953
c8.38086 -8.37988 12.5498 -16.1016 12.5498 -23.085c0 -0.642578 -0.0351562 -1.27832 -0.105469 -1.9082c11.8555 -15.8271 27.3418 -19.9492 41.3125 -19.9492zM342.359 403.408c0 5.25488 -0.231445 15.917 -27.6484 17.2305v-8.7832
c10.5391 0 15.8672 -2.17871 15.8672 -6.5752c0 -0.227539 -0.0517578 -5.7002 -5.06348 -5.7002c-2.38086 0 -5.56934 1.19336 -9.54785 3.5957l-3.76562 -5.01953c8.99023 -7.25293 15.1328 -7.98633 18.2148 -7.98633c10.7334 0 11.9434 9.12207 11.9434 13.2383z
M325.933 488.047c0 0.837891 0.0244141 1.68848 0.0722656 2.55176l29.9082 -31.2686v17.4639c9.38965 -0.725586 14.1348 -8.61328 14.1348 -23.7295c0 -2.30859 -0.110352 -4.78613 -0.332031 -7.43262v-13.8037h-2.50879
c-2.33008 25.4756 -41.2744 21.4336 -41.2744 56.2188z" />
</svg>
