<?xml version="1.0" standalone="no"?>
<!DOCTYPE svg PUBLIC "-//W3C//DTD SVG 1.1//EN" "http://www.w3.org/Graphics/SVG/1.1/DTD/svg11.dtd" >
<svg xmlns="http://www.w3.org/2000/svg" xmlns:xlink="http://www.w3.org/1999/xlink" version="1.1" viewBox="-10 0 1212 1000">
   <path fill="currentColor"
d="M745.012 665.207c1.35352 0 109.356 -14.4834 133.75 -20.7861l22.5908 3.47559c-0.77832 8.15332 -1.15137 15.4941 -1.15137 22.0469c0 29.3193 7.46973 42.8643 19.5312 42.8643c3.86035 0 8.19238 -1.3877 12.8994 -4.09082
c-2.00977 -15.2051 -7.71191 -30.1934 -15.6396 -43.4434h1.7373c9.28613 12.5439 16.1279 23.6768 19.1152 31.2793c2.75098 7.00293 6.88379 10.5039 12.4414 10.5039c7.79199 0 9.07031 -5.35742 9.07031 -8.875c0 -12.1299 -31.1299 -62.4492 -70.168 -62.4492
l-137.281 17.377c-9.58789 0 -13.9189 1.87109 -13.9189 6.44043c0 4.91992 4.3916 5.65723 7.02344 5.65723zM1113.36 474.123c-19.6387 -37.2686 -85.1191 -79.9404 -197.386 -79.9404c-52.4131 0 -77.9473 7.06348 -175.658 7.06348
c-26.6367 0 -54.0049 -0.616211 -82.2412 -1.8457c-91.9375 0 -151.455 10.0469 -177.249 29.542c-25.7949 19.4951 -38.2305 52.3486 -38.2305 97.3125c-2.42285 8.74316 -3.51855 17.7256 -3.51855 26.7266c0 58.042 45.543 116.833 74.2744 116.833
c13.2383 0 22.9072 -12.4814 22.9072 -43.2686c0 -6.97949 -0.49707 -14.9014 -1.5625 -23.8311c1.60645 -0.960938 3.04785 -1.45605 4.30859 -1.45605c3.93652 0 6.11719 4.82812 6.11719 15.3584c3.14844 -0.109375 6.45898 -0.163086 9.92969 -0.163086
c38.0742 0 95.542 6.53711 172.532 19.2783l5.21289 5.21289l156.396 -24.3281h8.68848c-7.12402 -14.2051 -18.7207 -20.9648 -33.8857 -20.9648c-4.60254 0 -9.53516 0.623047 -14.7705 1.84961l-8.68945 -13.9014c86.2705 0.704102 145.988 98.1572 178.042 98.1572
c9.93457 0 17.2109 -9.36035 21.7979 -33.8613c1.70605 -45.085 59.1436 -78.3584 59.1436 -138.386c0 -21.9033 -10.8975 -40.5488 -33.0781 -54.5029l-1.7373 -8.68848c23.1338 7.92871 39.3701 17.2148 48.6562 27.8037zM329.639 305.563v6.9502
c-1.67969 -0.0351562 -3.32422 -0.0527344 -4.93359 -0.0527344c-25.4248 0 -41.835 4.40332 -47.1982 12.2168c5.59473 -5.29199 22.7354 -7.84082 26.7695 -7.84082c6.25293 0 12.625 1.85938 20.1494 6.10352h5.21289v6.95117
c-11.7656 7.22363 -24.7334 8.84277 -33.998 8.84277c-7.31445 0 -11.8252 -1.39258 -12.9209 -3.62988l-59.083 27.8037c0 -11.3721 52.1582 -32.2998 52.1582 -35.0254c0 -0.333984 -0.0791016 -0.771484 -0.0791016 -1.11035
c0 -0.140625 0.0136719 -0.264648 0.0527344 -0.356445v-13.9023c5.04297 -8.01758 20.4199 -9.41406 30.5176 -9.41406c8.87109 0 16.9639 1.14648 23.3525 2.46387zM388.722 402.876c24.6299 -22.8916 37.4209 -51.7637 37.4209 -86.123
c0 -5.33594 -0.308594 -10.8047 -0.928711 -16.4033l12.1641 3.47559c3.93652 8.22656 5.87109 17.6768 5.87109 28.498c0 40.3945 -17.1367 70.2969 -71.9053 101.832c-0.319336 -12.9736 -0.472656 -24.791 -0.472656 -35.4492
c0 -58.1387 2.81543 -77.9551 23.0635 -105.307l13.9023 3.47461c-12.124 23.251 -16.3662 41.8203 -19.1152 106.002zM274.031 303.825c-27.0977 11.2412 -46.7559 22.5908 -57.3447 36.4922l-46.9189 29.542l5.21289 8.68848l13.9023 -10.4268
c4.79004 -8.31055 11.1807 -9.02637 13.2383 -9.02637c5.25391 0 12.3955 3.98926 12.3955 10.3086c0 0.748047 -0.160156 9.94336 -8.06738 9.94336c-2.46973 0 -5.46777 -0.831055 -8.87793 -2.53613c-24.5068 13.6152 -24.5068 13.6152 -24.5068 20.1543
c0 3.44922 1.57227 12.8623 7.12891 12.8623c39.3076 -2.86816 51.5723 -23.582 65.7744 -23.582c6.05859 0 6.14258 4.99707 6.14258 5.07715c0 11.5049 -52.6943 24.7959 -63.2275 27.1934c10.1436 2.33594 18.7412 3.55957 25.7812 3.55957
c14.2881 0 18.3018 -6.29004 40.252 -7.03516c19.4424 -0.658203 37.3584 -15.5166 48.5342 -15.5166c8.23926 0 13.1045 6.3877 14.0244 18.9922c0.651367 84.6602 13.9014 146.676 41.7051 187.675c45.4375 67.0029 63.752 67.0029 76.8174 67.0029
c10.0225 0 17.0176 -2.92676 20.4961 -7.91992c-26.7021 -35.4238 -40.0693 -82.084 -40.0693 -140.132c0 -59.0928 0 -148.47 204.939 -148.47c-42.3545 -2.62012 -79.4346 -14.9189 -111.001 -36.3545c-106.531 -72.3438 -111.003 -75.3799 -146.965 -75.3799
c-31.2373 0 -89.3662 17.1553 -89.3662 38.8877zM334.852 133.527c0 30.9795 25.9941 38.9678 38.2305 38.9678c26.7568 0 38.2295 -22.0371 38.2295 -38.9678c-1.22949 -17.5244 -14.582 -36.4922 -38.2295 -36.4922c-22.2793 0 -38.2305 18.6982 -38.2305 36.4922z
M104.292 209.955c20.127 0 24.4395 -18.374 54.1523 -18.374c18.7939 0 30.3311 10.5352 57.4814 18.2979c10.4258 -5.79883 22.2764 -8.89844 35.334 -8.89844c9.31836 0 19.252 1.57812 29.7227 4.87988c14.499 -10.2627 25.5771 -16.6709 36.4922 -16.7256
l-45.1807 -15.6396l41.7051 -173.772c-15.7295 -5.43652 -23.7441 -15.5527 -23.7441 -30.8887c0 -42.126 33.8867 -43.834 39.3838 -43.834c21.8301 0 36.8184 5.86523 43.4434 19.1152c7.27637 -13.25 20.5264 -19.1152 41.7051 -19.1152
c39.377 0 41.1211 37.2354 41.1211 43.834c0 15.3369 -8.01465 25.4521 -23.7432 30.8887l41.7051 173.772l-45.1807 15.6396c10.6982 0.109375 17.4316 10.3184 30.1934 13.6846c9.96875 -3.14355 19.9287 -4.60449 29.4336 -4.60449
c14.4678 0 27.8809 3.38672 38.6631 9.38379c26.2832 -7.38574 40.1533 -13.5557 56.8604 -13.5557c7.24902 0 15.0322 1.16211 24.5957 3.88965c0.176758 -0.00292969 0.353516 -0.00488281 0.530273 -0.00488281c13.6504 0 24.3135 8.74609 36.8096 8.74609
c23.1123 0 25.666 -24.4893 45.3115 -24.4893c8.99414 0 13.6094 5.31152 13.6094 15.9121c0 3.41504 -0.479492 7.37891 -1.44531 11.8916c-17.5586 27.0215 -42.916 38.8447 -76.2969 38.8447c-15.6592 0 -33.083 -2.60156 -52.2949 -7.45703
c-27.2666 12.0605 -50.8428 20.9102 -69.6719 20.9102c-14.4287 0 -20.3721 -5.88379 -37.4092 -5.88379c-9.77539 0 -18.1084 2.49219 -24.9873 7.45508c4.32031 3.37305 103.497 80.1953 191.15 92.0996c90.1924 12.252 177.07 13.9238 215.084 13.9238
c38.3535 0 92.7949 -1.95312 93.7324 -1.95312c48.3037 0 96.7559 13.7432 144.731 41.8994c36.2529 21.2754 54.7441 64.8203 54.7441 130.135c0 27.0449 -3.16992 57.8213 -9.5625 92.2949c24.7676 67.7881 29.5811 103.445 29.5811 121.096
c0 22.7393 -7.41602 36.5195 -22.6299 42.251c-33.1416 0 -34.7744 -101.455 -34.7744 -121.492c0 -52.7139 11.751 -49.9355 11.751 -106.56c0 -10.2803 -0.451172 -21.1396 -1.30566 -32.6084c-27.8418 99.0918 -48.0811 76.5381 -48.0811 116.644
c0 14.5381 9.23145 53.6543 20.2773 53.6543c7.08496 0 10.9492 7.62793 10.9492 22.5771c0 3.1543 -0.171875 6.63574 -0.522461 10.4395c0.651367 64.8398 1.46582 97.748 3.47559 99.0508c6.73438 10.5537 10.1836 20.1084 10.1836 28.1045
c0 5.12988 -2.26758 20.7852 -20.0352 20.7852c-1.2832 0 -2.63281 -0.0771484 -4.05078 -0.232422c0.0400391 0.941406 0.0605469 1.86914 0.0605469 2.78418c0 13.877 -4.63965 24.8994 -13.9619 35.4453h-90.3623c14.5537 -23.1338 32.3115 -45.7236 52.1318 -69.5088
v-59.083c-5.97266 -37.6875 -27.5322 -67.8799 -62.5576 -90.3623c-1.98828 10.3857 -7.30957 18.7715 -16.7578 18.7715c-3.19824 0 -6.87012 -0.961914 -11.0459 -3.13184c0.00292969 0.0908203 0.00390625 0.181641 0.00390625 0.272461
c0 7.11035 -7.86719 13.5127 -15.4277 13.5127c-2.48242 0 -4.93164 -0.69043 -7.05859 -2.27246c-3.96387 20.5264 -7.92871 29.541 -24.4365 37.1436c-36.4902 16.8047 -53.8223 73.7441 -85.1494 100.789c-2.58496 20.126 -9.96289 30.2021 -21.877 30.2021
c-3.35547 0 -7.07031 -0.799805 -11.1396 -2.39844c0.189453 2.11914 0.291992 4.31641 0.291992 6.62891c0 5.62598 -0.605469 11.9316 -2.0293 19.4365h-99.0508c21.8301 -38.3389 38.8818 -57.0732 52.1318 -59.083
c0.169922 0.0214844 0.342773 0.03125 0.517578 0.03125c5.25781 0 12.9316 -9.4375 23.8105 -26.0967c63.3691 -56.9932 81.4795 -87.8994 93.8379 -175.511l-88.625 8.68848c-3.96387 11.8926 -7.38477 30.3018 -8.68848 52.1318
c-7.92871 -3.96387 -16.3994 -20.0381 -24.3281 -45.1807c-9.28613 -2.66113 -13.25 -8.52637 -13.9014 -19.1152c-9.01465 -4.50684 -78.7783 -20.9727 -147.742 -20.9727c-3.53418 0 -7 0.0410156 -10.3916 0.120117c14.9082 79.2832 50.4072 60.252 50.4072 119.735
c0 0.46582 -0.0214844 2.96582 -0.0214844 2.99512c0 48.6562 39.875 77.2549 39.875 103.649c0 8.79883 -5.97754 20.5967 -20.5723 20.5967c-1.16992 0 -2.3877 -0.0722656 -3.65527 -0.21875c0 15.8564 -5.70117 27.6406 -15.6396 38.2295h-90.3613
c14.5527 -23.1338 31.6045 -44.6377 52.1318 -67.7715c-1.30371 -28.4551 -5.97363 -51.6426 -13.9023 -69.5088c-20.5264 -7.27734 -34.4287 -26.501 -41.7051 -55.6074c-16.5088 -21.1787 -28.293 -34.7002 -38.2305 -39.9678
c-9.03711 1.11719 -61.5459 43.9404 -97.3125 88.624c-23.9561 14.373 -60.8213 36.4922 -60.8213 106.002c-3.64746 10.0801 -10.1621 15.2109 -19.3076 15.2109c-4.05859 0 -8.63477 -1.01074 -13.709 -3.04688c-3.3125 8.58008 -9.61133 16.7793 -20.8525 26.0654
h-85.1484c12.5439 -23.1338 36.2207 -47.1904 71.2461 -72.9844c3.96484 -10.5898 14.5 -22.6992 33.0176 -38.2305c48.709 -40.8516 32.0332 -66.665 55.6074 -92.0996c10.6885 -11.5332 27.2422 -39.0654 27.2422 -57.0635
c0 -3.05469 -0.387695 -6.02441 -1.17676 -8.96973c-49.5791 -52.8926 -74.7227 -129.081 -74.7227 -227.644l-19.1143 3.47559c2.30762 14.8789 3.46094 27.0029 3.46094 36.7305c0 25.9473 -8.8623 30.8252 -11.1006 30.8252
c-8.69141 0 -8.99707 -24.0439 -8.99707 -27.4219c0 -10.0537 1.00488 -22.8545 2.73438 -38.3955l-19.1152 3.47461v92.1006h-8.68848c-19.8213 -13.9023 -31.4424 -43.6611 -34.7549 -88.625c-4.61523 -2.66016 -13.0869 -6.625 -24.3281 -13.9014
c-5.16797 -9.72656 -7.08496 -19.9004 -7.08496 -28.9023c0 -1.40234 0.046875 -2.77539 0.134766 -4.11426c-3.68164 -9.56543 -5.65332 -17.1699 -5.65332 -22.8857c0 -8.91895 2.76953 -11.3105 29.9814 -25.7715c29.1064 -29.7588 52.7285 -47.2441 71.2471 -53.8691
c0.651367 -13.25 12.2725 -24.6543 34.7539 -31.2793c-2.35645 -2.35645 -6.14648 -3.5166 -11.4531 -3.5166c-15.8906 0 -25.6973 7.34082 -41.9795 7.34082c-18.8047 0 -42.3564 -7.80078 -68.9688 -19.5723c-18.248 4.66211 -34.7754 7.10352 -49.7041 7.10352
c-33.7598 0 -59.3379 -12.4863 -78.1279 -40.0117c-0.777344 -4.34277 -1.1748 -8.17773 -1.1748 -11.5049c0 -10.8574 4.23535 -16.2988 13.3389 -16.2988c18.9561 0 27.4102 27.7705 50.9531 27.7705zM414.42 -53.0781c-33.5859 0 -34.3867 26.2529 -34.3867 35.4229
v101.21c31.6885 3.9209 45.1807 34.3018 45.1807 49.9727c0 2.83691 -2.04883 51.1328 -52.1318 51.1328c-25.4092 0 -52.1318 -16.7676 -52.1318 -51.1328c0 -21.5205 14.7617 -46.6807 45.1807 -50.0205v-101.162c0 -31.666 -21.7295 -35.0986 -31.1504 -35.0986
c-9.91309 0 -22.8594 0.701172 -22.8594 16.6611c0 10.1475 7.88184 16.4961 24.4688 20.1758l-41.7061 178.986c26.0947 8.66016 52.9639 16.5459 78.1982 26.0654c26.0664 -8.6875 52.1318 -17.377 78.1982 -26.0654l-41.7061 -178.986
c16.5869 -3.67969 24.4688 -10.0283 24.4688 -20.1758c0 -14.1211 -10.834 -16.9854 -19.623 -16.9854z" />
</svg>
