<?xml version="1.0" standalone="no"?>
<!DOCTYPE svg PUBLIC "-//W3C//DTD SVG 1.1//EN" "http://www.w3.org/Graphics/SVG/1.1/DTD/svg11.dtd" >
<svg xmlns="http://www.w3.org/2000/svg" xmlns:xlink="http://www.w3.org/1999/xlink" version="1.1" viewBox="-10 0 1370 1000">
   <path fill="currentColor"
d="M138.811 103.878c-14.1025 3.1084 -38.2549 15.7734 -47.1357 24.6543c29.2695 50.0137 76.7861 132.882 142.494 248.604l20.3096 -12.9238c-54.3037 -119.958 -92.8057 -206.79 -115.668 -260.334zM102.427 73.9014l-14.0098 7.49414l10.752 22.4824l14.9873 -7.49414z
M439.873 64.2354c-12.3936 9.8584 -37.167 14.0049 -45.6807 14.0049c-9.55176 0 -15.3721 -3.22754 -17.5293 -9.66016c0 -9.0127 5.54395 -14.1367 18.6143 -14.1367c7.31543 0 35.1709 3.86816 44.5957 9.79199zM55.4434 68.9609
c0 4.30273 1.00195 8.44434 2.99707 12.4346l61.1465 -32.1475c-6.55566 -14.5986 -25.6631 -14.6387 -25.9609 -14.6387c-12.6299 0 -38.1826 10.4014 -38.1826 34.3516zM986.814 244.429c-77.5498 0 -158.077 52.3369 -260.977 52.3369
c-40.7275 0 -76.7314 -13.4131 -108.174 -40.1846c-43.7861 -37.2842 -80.9707 -76.1094 -123.161 -164.433c11.4033 -16.4004 17.1602 -30.0303 17.1602 -40.7285v-6.4082c0 -21.4502 -10.1006 -50.7197 -30.085 -87.8633h-2.06348
c15.6943 37.1436 23.5684 67.0654 23.5684 89.9268c0 7.875 -6.08203 18.5723 -18.2461 32.1484l-6.4082 -11.7295c10.5312 -4.72656 15.8008 -14.5469 15.8008 -29.4531c0 -14.3789 -4.90234 -33.4893 -14.7148 -57.3252c0 37.1445 -8.95996 55.7158 -26.8262 55.7158
c-44.2578 0 -69.2373 3.47559 -74.9395 10.6436c-8.82715 11.0986 -9.7041 11.332 -115.776 39.6426c-0.0849609 0.688477 -0.12793 1.38379 -0.12793 2.08496c0 5.10352 2.25195 10.5273 6.64453 16.1611c27.7158 -1.6084 50.1689 -9.62891 62.7061 -9.62891
c4.63281 0 6.95215 1.08496 6.95215 3.24707c0 13.5762 -63.3506 6.48438 -63.3506 18.3193c0 2.87988 2.68164 3.62207 8.38281 3.62207c18.9375 0 41.9521 -7.02344 65.8496 -7.02344c36.8848 0 40.2207 16.4746 76.9414 18.29
c56.4229 2.78906 22.5898 48.6133 59.4092 97.9648c4.36328 5.84863 6.54492 13.8213 6.54492 23.9131c0 37.9141 -37.6426 116.114 -45.6445 127.704c-31.9268 7.8418 -62.9189 11.7744 -92.9355 11.7744c-26.2197 0 -35.4111 -2.66406 -52.708 -2.66406
c-25.7607 0 -38.6826 6.625 -38.6826 19.9844c0 0.291016 0.00585938 0.583984 0.0185547 0.880859l229.271 -1.08594c23.0713 -32.5684 50.0176 -48.8984 80.8398 -48.8984c1.26172 0 119.536 6.23242 126.027 6.23242c44.8672 0 118.39 -24.6963 220.615 -74.0879
c-13.4854 18.7979 -20.2441 35.1738 -20.2441 49.1084c0 15.6104 9.19824 42.5859 69.5518 51.5713v2.17188c-32.8535 0.706055 -58.9199 1.08594 -78.1973 1.08594c-26.3271 0 -73.3057 -3.70996 -74.0479 -3.70996c-18.9971 0 -34.3193 5.48633 -45.9648 16.5264h293.568
c10.1445 -8.10938 15.2109 -16.0791 15.2109 -23.9375c0 -5.98242 -2.93555 -11.9014 -8.80273 -17.7686v-21.5039c17.1602 7.87402 25.6309 28.9434 25.6309 63.21h-0.977539c89.9824 270.651 154.984 433.129 194.952 487.434
c0.490234 -3.83203 0.734375 -8.04102 0.734375 -12.6279c0 -35.583 -14.7383 -93.8721 -44.1777 -174.83c-131.497 -361.612 -171.749 -465.809 -259.148 -465.809zM348.938 132.037c-25.5693 0 -41.8584 5.10254 -58.8926 5.10254
c-22.4268 0 -33.9209 -8.24512 -34.4814 -24.6816c-6.35547 -4.67773 -20.04 -15.9619 -20.04 -26.3906c0 -25.2598 98.8496 -21.252 134.73 -57.1289c9.28613 -9.28613 37.0898 -13.9023 83.5195 -13.9023c7.87402 -4.29004 11.8389 -15.748 11.8389 -34.3203v-53.5439
l15.9648 -2.17188c32.8545 48.5479 49.3086 89.2217 49.3086 122.075c0 11.9473 -0.977539 27.4238 -3.04102 46.2676c27.8574 47.7871 57.3447 88.2441 88.7324 121.424c31.4424 33.2344 68.9668 49.8516 112.519 49.8516c107.632 0 175.066 -52.2803 258.579 -52.2803
c89.9258 0 154.916 98.4229 275.99 436.318c37.6143 104.977 56.4277 180.058 56.4277 225.255c0 17.8877 -3.55664 51.1035 -29.9707 51.1035c-49.1709 0 -123.385 -163.39 -222.495 -489.773v32.9082h-839.867v-35.4062h839.107l-0.326172 -0.977539h-322.458v-26.8262
c6.2373 -18.6621 22.9971 -27.9941 50.2793 -27.9941c12.4336 0 24.9561 2.37012 47.0645 2.37012c17.7051 0 31.3613 -1.80273 40.915 -5.4375c-3.52539 -5.30371 -5.30664 -11.957 -5.30664 -19.9727c0 -4.9502 0.679688 -10.4189 2.04785 -16.4111
c-111.449 47.9473 -150.559 55.9678 -203.047 55.9678c-34.6113 0 -99.8643 -5.88281 -100.875 -5.88281c-19.6855 0 -41.6055 14.7285 -65.6719 44.1865h-279.558c-6.6709 -11.502 -9.98926 -23.5498 -9.98926 -36.0771c0 -2.25879 0.107422 -4.5332 0.323242 -6.82324
c-43.9639 -80.5527 -88.6875 -158.729 -148.901 -262.506c4.29004 -6.40723 9.66602 -11.7842 16.0742 -16.0742l-11.8389 -22.4814l-26.7178 12.9248c-5.91016 -11.8203 -8.88281 -22.6357 -8.88281 -32.4287c0 -34.2686 37.2041 -49.792 54.2988 -49.792
c13.5488 0 31.9209 6.64551 46.6846 36.1699l-25.7402 12.8164l10.752 22.4814c7.87402 -2.11719 15.3135 -3.25781 22.4814 -3.25781c49.0537 114.079 83.6084 193.084 127.507 275.321v-0.977539c22.8408 2.13379 43.5732 3.20215 62.2041 3.20215
c37.3145 0 66.1973 -4.28418 86.6973 -12.8682c25.3613 -47.8945 38.0156 -81.2578 38.0156 -100.034c0 -16.2715 -14.5205 -20.3154 -18.249 -64.9414c-1.79199 -21.4502 -9.28613 -33.0713 -22.4814 -34.8633c-36.8145 -4.99902 -33.9922 -19.5195 -73.2314 -19.5195z" />
</svg>
