<?xml version="1.0" standalone="no"?>
<!DOCTYPE svg PUBLIC "-//W3C//DTD SVG 1.1//EN" "http://www.w3.org/Graphics/SVG/1.1/DTD/svg11.dtd" >
<svg xmlns="http://www.w3.org/2000/svg" xmlns:xlink="http://www.w3.org/1999/xlink" version="1.1" viewBox="-10 0 878 1000">
   <path fill="currentColor"
d="M637.975 -75.0029c78.8545 0 124.298 43.1992 124.298 167.397c0 66.7783 -11.8379 207.879 -11.8379 288.713c0 162.878 13.6641 282.914 77.7354 543.853h-36.6016c-46.8359 -88.6191 -79.9346 -178.051 -99.376 -269.565
c-3.81445 13.3672 -5.72266 25.5439 -5.72266 36.5273c0 24.04 9.14258 42.3584 27.4443 54.9199l6.8418 101.658c0 50.9912 -7.60254 76.46 -22.8076 76.46h-115.45c-11.4043 0 -17.0518 -13.3047 -17.0518 -39.9678c1.52051 -24.3828 13.3047 -36.4922 35.4062 -36.4922
c12.1641 -0.760742 20.2012 -21.3418 24.0029 -61.6904c-15.9658 -25.1426 -34.2666 -39.207 -54.8477 -42.248c-25.9023 31.2246 -38.8818 65.8711 -38.8818 103.938c0 38.0664 -7.27637 63.5352 -21.7217 76.46h-148.467c-10.6914 0 -16.0371 -11.6943 -16.0371 -35.127
c0 -2.33301 0.336914 -41.333 36.6729 -41.333c23.7354 0 57.0186 -31.3799 57.0186 -73.0938c0 -19.8213 -12.1094 -69.292 -36.4922 -148.468c-25.9258 -34.0566 -38.9131 -69.6035 -38.9131 -106.54c0 -1.0498 0.00976562 -2.10156 0.03125 -3.1543
c-10.4844 3.21973 -20.9609 4.83008 -31.4365 4.83008c-19.2041 0 -38.4023 -5.41113 -57.6221 -16.2334c-4.56152 22.8623 -14.1191 48.2764 -28.5635 76.46h22.8076l-13.6846 96.0098h-17.1602c7.60254 60.9287 36.6553 142.331 86.8867 244.368h-56.042
c-35.0264 -102.037 -58.2139 -183.439 -69.6182 -244.368h-27.4775c-12.1641 60.9287 -37.3076 142.331 -75.374 244.368h-55.9336c53.3262 -102.037 83.7373 -183.439 91.3398 -244.368h-17.0518l-13.793 -96.0098h22.916
c-16.7256 -32.7451 -26.2832 -65.1104 -28.5645 -97.0957h-43.4424v-51.3721h48.0039c6.84277 -31.2246 35.4609 -48.7646 85.6924 -52.5664c41.1084 3.04102 67.3369 15.5859 78.7412 37.6875c15.6807 -6.58984 28.2852 -9.88086 37.8145 -9.88086
c23.6807 0 8.77832 15.1602 65.0371 35.0781c2.28125 -11.4043 5.32227 -22.1562 9.12305 -32.04c-7.73438 6.32812 -13.124 9.49805 -16.1553 9.49805c-1.94824 0 -2.92383 -1.30762 -2.92383 -3.92676c0 -6.28809 0.558594 -7.05859 11.042 -21.5361
c-0.0673828 -1.99609 -0.101562 -3.98926 -0.101562 -5.98047c0 -69.207 28.624 -104.724 123.48 -222.423c-3.57031 2.9209 -6.97168 4.37793 -10.2012 4.37793c-17.8232 0 5.76758 -19.2031 -71.5938 -19.2031c-15.0928 0 -23.0947 0.630859 -30.2783 0.630859
c-40.502 0 -60.8076 -14.79 -60.8076 -44.4443c0 -2.4375 0.136719 -4.97461 0.411133 -7.6123c-31.002 22.7373 -51.29 36.9385 -58.9238 36.9385c-7.93652 0 -11.8887 -8.09668 -11.8887 -24.3398c0 -36.3496 13.3252 -52.3223 48.8652 -52.3223
c6.98926 0 14.7051 0.679688 23.1426 2.03711c-5.86328 -4.69141 -8.81934 -10.8018 -8.81934 -18.2344c0 -4.68164 1.99512 -21.2344 15.0098 -31.5088c21.8662 -17.2627 17.0869 -40.3682 41.9941 -40.3682c16.9961 0 38.5596 13.6514 67.6807 13.6514
c41.375 0 30.9199 -36.6016 68.0078 -36.6016c15.2051 0 30.085 3.04102 44.5293 9.12305c14.1543 -26.6025 50.2666 -34.8701 89.6885 -34.8701zM639.626 -56.0986c-41.8682 0 -65.8164 8.36328 -71.8984 25.0889c13.1406 6.57129 22.7959 9.85645 28.9111 9.85645
c8.87598 0 8.85547 -18.3623 47.1143 -34.7275c-1.41211 -0.0546875 -2.71484 -0.217773 -4.12695 -0.217773zM640.82 126.581c81.5039 0 81.5039 72.4521 81.5039 99.4697c0 58.124 -16.6758 127.233 -16.6758 201.755c0 1.53516 4.9043 75.8691 5.44141 153.409
c0.860352 123.886 50.8955 255.273 96.4443 325.499c-61.499 -238.263 -77.3574 -360.976 -77.3574 -524.443c0 -84.6475 12.0928 -205.994 12.0928 -273.87c0 -44.5107 -6.28027 -82.0137 -18.6895 -112.584c-13.5215 -33.2881 -40.0762 -50.3945 -79.2842 -51.6973
c10.1963 13.2861 15.3008 26.5469 15.3008 39.8066c0 13.2949 -5.13184 26.5889 -15.4092 39.9111c-18.2861 -13.8232 -18.2861 -13.8232 -19.0479 -13.8232c-10.0166 0 -27.2881 13.584 -51.7646 40.6504c-25.1426 27.8037 -44.5293 67.1738 -58.2139 118.165
c-27.4238 31.2246 -47.5703 57.0742 -60.4951 77.6553h29.6504c78.8877 -110.379 118.712 -119.903 156.504 -119.903zM639.626 -37.8525c-12.1641 4.56152 -20.9619 11.8389 -26.2832 21.7217c6.08203 7.60254 14.8789 14.0107 26.2832 19.333
c3.80176 -6.46191 5.70215 -13.1143 5.70215 -19.957s-1.90039 -13.875 -5.70215 -21.0977zM373.92 -5.10059c-6.00195 0 -10.9355 2.75098 -14.7207 8.30273c-16.709 24.5078 -30.251 27.1631 -30.251 41.1348c0 2.98145 0.779297 6.03125 2.33887 9.15039
c15.9844 -3.8916 29.1084 -5.83398 39.3867 -5.83398c25.7529 0 21.8428 12.1523 42.0693 12.1523c11.542 0 15.3594 -4.44141 27.9717 -4.44141c9.30273 0 19.1143 2.64258 29.374 7.89746c15.585 7.9834 30.1924 14.9883 43.877 21.0703l-3.36621 17.1602
c-16.5078 -1.0293 -30.5752 -1.56152 -42.1875 -1.56152c-48.1914 0 -48.6602 10.2549 -72.8223 10.2549c-18.3242 0 -35.5205 -7.0127 -52.9912 -7.0127c-3.33789 0 -8.57715 0 -8.57715 7.38184c0 16.6729 10.5273 26.1934 58.1885 26.1934
c0.462891 0 40.79 -1.08301 46.3135 -1.08301c56.2246 0 45.8555 9.81348 55.5381 9.81348c4.84375 0 9.61328 -4.36914 14.2568 -13.1416c24.3828 -66.251 59.0283 -110.835 103.938 -133.696l-10.3184 -7.92871l-11.4033 4.56152
c-33.8486 -17.3809 -59.5371 -26.0703 -77.1172 -26.0703c-15.1025 0 -20.9707 6.68359 -23.3457 10.1045c-12.1641 17.541 -24.4365 26.1748 -36.6006 26.1748c-74.623 -3.1709 -67.1123 -10.583 -79.5518 -10.583zM512.88 -19.6055
c6.84277 0 21.3418 6.51562 43.4434 19.4404c-20.1104 8.77832 -40.7734 13.1973 -61.9307 13.1973c-4.49512 0 -9.0127 -0.199219 -13.5518 -0.598633c6.8418 -8.36328 12.2725 -15.9111 16.0742 -22.373c3.80078 -6.46289 9.12305 -9.66602 15.9648 -9.66602z
M366.693 56.9629l-12.5986 1.08594l3.47559 26.2832l6.84277 1.19434zM373.536 59.2441l1.08594 26.2822h9.23145l5.64746 -21.7207zM438.592 60.3301l-22.8076 9.12305l3.47559 12.5986h9.12305zM347.253 61.5244l-8.03711 3.36719l4.56152 14.8789l4.66992 1.19434z
M394.062 64.8916l1.19531 19.4404h4.56152l4.56152 -15.9648zM270.247 114.814c13.3506 0 26.7236 -26.9941 61.4834 -26.9941c15.2939 0 28.8838 3.98047 65.627 3.98047c9.43652 0 36.3311 -0.381836 85.7637 -3.99316l8.03711 -4.56152
c-10.752 -0.488281 -20.6895 -0.706055 -30.3018 -0.760742c6.78809 -1.46582 11.2412 -4.99512 13.1416 -10.752l-19.332 -5.64746l2.17188 16.3994c-48.4785 0 -53.8877 4.26465 -79.5889 4.26465c-26.6768 0 -43.6279 -8.24316 -76.7393 -8.24316
c-23.7139 0 -35.4736 6.5957 -35.4736 27.5469c0 5.84082 1.74414 8.76074 5.21094 8.76074zM492.354 85.5264c-6.08203 6.08301 -11.5127 9.88379 -16.0742 11.4043l14.8789 1.08594zM463.789 90.0889c-3.49219 0.670898 -3.17383 5.15234 -4.56152 7.92773
l7.92871 -1.08594zM373.536 93.4551l-6.84277 1.19531l-3.47559 5.64746l13.6846 3.47559zM414.59 93.4551l-3.36719 8.03711l13.6846 -1.19434l-3.36621 -6.84277h-6.95117zM388.415 95.7363c-4.29004 5.37598 -7.00488 8.41699 -8.25391 9.23145l11.6211 1.08594z
M419.26 405.27c43.3545 -30.9678 50.3818 -76.7432 175.837 -210.157l6.8418 6.84277c-111.786 139.17 -101.576 157.756 -167.908 213.632c-7.33105 13.9023 -11.8379 22.6992 -14.2275 27.4785c40.6836 -3.61719 69.7832 -15.1045 104.481 -19.4414
c12.1641 -1.52051 20.2012 -10.1543 24.002 -25.7402c3.80176 -15.585 12.9248 -49.3076 27.3691 -101.114c5.64648 -3.76367 10.1465 -5.64258 13.4844 -5.64258c4.75293 0 7.15137 3.80762 7.15137 11.3994c-36.0205 131.731 -39.5322 140.444 -66.251 141.082
c-42.2197 1.00488 -81.2578 19.335 -127.63 19.335c-12.8271 0 -25.1299 -1.2998 -36.9111 -3.91309c-62.9355 -13.958 -39.7129 -31.415 -63.8213 -31.415c-7.71094 0 -18.043 2.4707 -30.9941 7.41309l6.84277 12.4893
c9.99316 -5.19824 17.7656 -7.78711 23.3066 -7.78711c9.64844 0 9.79785 8.02832 9.79785 8.52637c0 2.83496 -2.20215 4.24219 -6.58398 4.24219c-7.62598 0 -5.94629 -2.67285 -10.5684 -2.67285c-3.74023 0 -7.13965 3.08984 -10.1963 9.2041l3.47559 5.64746
c6.81543 -3.60742 12.2412 -5.4043 16.2939 -5.4043c6.68164 0 7.92578 4.32812 7.92578 7.55078c0 3.95605 -1.84375 5.92188 -5.53125 5.92188c-1.68262 0 -3.74805 -0.40918 -6.19824 -1.22559c-5.32227 0 -10.209 4.99609 -14.7705 14.8789
c12.9121 11.3301 28.6641 17.0039 47.3076 17.0039c27.3848 0 34.0518 -10.4795 95.4512 -10.4795c49.9756 0 78.9014 6.29785 110.494 6.29785c42.0215 0 67.4707 -10.166 76.2637 -30.5254c22.0771 -51.1113 81.792 -246.881 81.792 -264.791
c0 -45.4082 -39.2852 -53.333 -66.7119 -53.333c-30.0811 0 -74.8594 38.123 -134.44 114.267h-25.1973c-34.8789 53.9248 -52.2715 95.375 -52.2715 124.445c0 5.8252 0.699219 11.1533 2.09473 15.9854zM436.312 264.839
c-29.7041 38.8271 -47.5703 78.3613 -53.6523 118.709h2.28027l66.251 -118.709h-14.8789zM681.875 906.714c6.04492 0 22.916 0 22.916 -58.2139l-4.56152 -91.4482c-21.9404 -13.3818 -32.8975 -35.1758 -32.8975 -65.3809c0 -26.3916 18.873 -112.637 18.873 -186.546
c0 -43.0674 -4.62695 -51.5303 -4.62695 -82.8389c0 -30.374 3.9502 -70.2871 11.8086 -119.76c-28.1836 90.6328 -50.2852 150.693 -66.251 180.397c-12.583 23.4131 -40.4492 35.1191 -83.5713 35.1191c-34.1631 0 -71.627 -8.65527 -118.418 -8.65527
c-19.3682 0 -32.7764 1.86133 -40.207 5.57617c-0.115234 2.05176 -0.172852 4.10449 -0.172852 6.1582c0 65.7832 59.0342 132.592 177.204 200.523c31.9854 9.12305 59.0293 28.1836 81.1309 57.1279c0 28.9434 -4.56152 52.1855 -13.6846 69.7266h9.12305v20.5264
c-21.2256 0 -31.8516 7.94922 -31.8516 23.875c0 4.08008 0.697266 8.68457 2.09277 13.8125h10.3174c0 -18.3008 4.56152 -27.3691 13.6846 -27.3691c5.73145 1.22754 8.59668 3.33789 8.59668 6.3291c0 6.84375 -10.6934 10.8818 -10.6934 13.9463
c0 2.11523 2.625 4.47949 7.85352 7.09375h43.335zM400.905 402.988c-6.08203 16.7256 -9.88379 30.5195 -11.4043 41.1631c1.90527 0.0576172 3.82324 0.0849609 5.75195 0.0849609c5.27246 0 10.6318 -0.201172 16.0781 -0.519531
c-1.52051 -0.489258 -2.93164 -0.869141 -4.66992 -1.84668zM132.281 474.765c0 24.9062 10.3574 60.7344 31.0977 107.536h42.249c20.5547 -45.0986 30.7979 -80.0078 30.7979 -104.773c0 -25.5342 -15.2109 -57.3789 -51.3252 -57.3789
c-50.373 0 -52.8193 45.7334 -52.8193 54.6162zM68.5635 446.432v26.2832h26.2832c-0.261719 -3.1377 -0.394531 -6.23633 -0.394531 -9.29297c0 -5.8291 0.483398 -11.5029 1.48145 -16.9902h-27.3701zM121.13 592.618l2.28125 6.84277h123.379l1.08594 -6.84277h-126.746z
M123.411 608.584l2.28027 8.03711h118.709l2.38965 -8.03711h-123.379zM125.691 626.938l1.08691 7.92871h115.342l1.19434 -7.92871h-117.623zM127.973 643.99l2.28125 8.03711h109.585l1.19531 -8.03711h-113.062zM477.474 906.714c8.80957 0 33.3311 0 33.3311 -52.6602
c0 -1.92578 -0.0683594 -3.77637 -0.205078 -5.55371c0 -38.0674 13.6299 -75.4287 41.0537 -111.976c-50.2314 -27.4238 -90.959 -56.3135 -122.185 -86.7783c20.6055 61.0293 30.8838 103.177 30.8838 126.59c0 0.835938 -0.0126953 1.64844 -0.0390625 2.4375
c0.0234375 0.900391 0.0341797 1.79492 0.0341797 2.68457c0 28.4258 -11.7969 50.8223 -35.4404 67.042v15.9648c-26.5684 0 -39.8379 9.25879 -39.8379 27.8066c0 4.31152 0.716797 9.12598 2.15137 14.4424h9.12305c0 -18.3008 4.56152 -27.3691 13.6846 -27.3691
c5.73145 1.22754 8.59668 3.33789 8.59668 6.3291c0 6.84277 -10.6934 10.8818 -10.6934 13.9463c0 2.11523 2.62402 4.47949 7.85254 7.09375h61.6895zM131.34 661.15v6.8418h106.219l1.19434 -6.8418h-107.413zM389.501 859.903
c-19.793 0 -29.6729 10.7129 -29.6729 32.1064c0 4.13965 0.370117 8.67871 1.10938 13.6172h12.5986c-1.05273 -4.57422 -1.5791 -8.90527 -1.5791 -12.9932c0 -13.625 5.84766 -24.543 17.5439 -32.7305zM611.062 860.989c-19.793 0 -29.6729 10.7129 -29.6729 32.1074
c0 4.13965 0.370117 8.67871 1.10938 13.6172h12.5986c-1.05273 -4.75 -1.5791 -9.21582 -1.5791 -13.3984c0 -13.9404 5.84766 -24.7236 17.5439 -32.3262z" />
</svg>
