<?xml version="1.0" standalone="no"?>
<!DOCTYPE svg PUBLIC "-//W3C//DTD SVG 1.1//EN" "http://www.w3.org/Graphics/SVG/1.1/DTD/svg11.dtd" >
<svg xmlns="http://www.w3.org/2000/svg" xmlns:xlink="http://www.w3.org/1999/xlink" version="1.1" viewBox="-10 0 628 1000">
   <path fill="currentColor"
d="M222.529 864.346c54.6289 0 108.622 -8.20801 165.462 -26.3154c6.74707 -7.3584 12.9131 -11.0381 18.501 -11.0381c9.30176 0 17.001 10.1982 23.1094 30.5938c12.3428 -25.4014 27.1943 -38.0557 44.6035 -38.0557c1.05664 0 2.12305 0.0458984 3.19922 0.139648
c30.2021 41.6641 50.3008 76.8096 60.0791 105.383c-63.9365 -5.79883 -130.495 -8.71777 -199.601 -8.71777c-54.1836 0 -233.836 3.13574 -236.197 3.13574c-11.6182 0 -20.6895 -0.203125 -27.2354 -0.610352c-20.751 -1.29102 -34.4502 -41.5781 -34.4502 -49.4443
c0 -26.7285 15.1416 -49.0312 45.4229 -66.9111c21.2393 -25.3145 80.8301 -74.3115 178.825 -146.993c1.97852 -87.2461 23.9775 -82.3535 23.9775 -145.914c0 -9.93066 -12.2432 -147.773 -12.3525 -149.268c-2.87891 -39.2197 -23.793 -60.8936 -63.0127 -64.9678
l-36.8301 15.9707c-10.5928 0.814453 -15.8613 4.94336 -15.8613 12.2764c0.0302734 0.420898 0.0449219 0.834961 0.0449219 1.24121c0 10.583 -10.2266 15.9238 -30.6826 15.9238c0 11.4082 -6.1377 17.0576 -18.3604 17.0576
c-0.47168 0.0244141 -0.936523 0.0371094 -1.39453 0.0371094c-14.6318 0 -22.3682 -12.6182 -23.1582 -37.9531c-0.916992 0.0478516 -1.80762 0.0722656 -2.67285 0.0722656c-7.67871 0 -23.3535 0 -23.3535 -31.1172c0 -5.59473 0.921875 -11.1943 2.77637 -16.7578
c-0.0791016 -1.66895 -0.119141 -3.30859 -0.119141 -4.91992c0 -31.4805 15.1406 -51.9414 45.4238 -61.2432c43.9043 -36.999 35.8867 -40.4561 68.0098 -58.7754c37.7451 -21.5283 28.1875 -50.1592 58.3408 -54.6475
c-2.57715 0.206055 -5.20703 0.310547 -7.89062 0.310547c-53.5449 0 -83.3428 -30.1523 -113.571 -71.2539c-26.1289 -35.5264 -44.4893 -59.6992 -55.082 -72.79c-0.0410156 -0.776367 -0.0615234 -1.53125 -0.0615234 -2.26465
c0 -12.5518 5.95996 -18.8271 17.9131 -18.8271c11.4268 0 133.355 50.5166 134.683 51.0771c39.5996 16.7305 76.1582 41.8271 109.62 75.2891c29.3877 -40.0352 64.3154 -67.5762 104.73 -82.6768c1.35742 -0.507812 125.389 -46.3906 137.324 -46.3906
c0.0917969 -0.000976562 0.182617 -0.000976562 0.273438 -0.000976562c10.2461 0 15.4023 5.16699 15.4023 15.4688c0 1.78711 -0.155273 3.72949 -0.46582 5.82617l-56.3857 70.4004c-46.085 57.6279 -74.5537 79.0234 -148.188 92.5625
c22.0537 18.7959 33.624 42.4795 34.874 71.0527c1.28125 29.3076 28.082 141.466 127.98 193.491c-30.8545 63.833 -46.2666 128.679 -46.2666 194.569c0 35.2646 4.41406 70.8281 13.2393 106.696c-26.1279 41.6641 -58.1777 69.042 -96.1484 82.1328
c-117.665 40.5693 -261.049 64.2852 -261.049 89.6094c0 14.2451 39.7969 17.5361 76.5742 17.5361zM95.2207 306.464c0.494141 0 27.2783 -5.02734 36.5059 -34.3506c0.773438 -0.0478516 1.53809 -0.0722656 2.29395 -0.0722656c12.041 0 20.8721 6.11426 28.5381 18.4326
c52.2568 -17.166 91.1514 -26.5088 116.465 -28.1387s44.3799 -16.3506 57.4717 -44.1084c0.490234 3.77246 0.736328 7.39551 0.736328 10.8701c0 35.5264 -24.5225 51.3174 -66.791 58.9863c23.6846 20.4248 36.2871 48.7266 37.916 85.0674
c1.62988 36.3408 3.74902 83.5996 6.19336 141.561l52.582 -71.0518l7.3877 41.6094c-43.2939 53.8867 -68.9873 111.902 -77.1357 173.937c-44.9766 31.9961 -159.85 117.618 -159.85 135.013c0 2.60547 2.21777 3.90625 6.65625 3.90625
c12.2803 0 85.8545 -20.2246 188.067 -50.1582c83.6328 -24.4922 125.487 -63.46 125.487 -117.021c0 -19.0527 -5.55957 -29.8223 -5.55957 -65.5957c0 -53.3418 14.1357 -113.906 42.3838 -181.769c-60.5527 -31.2529 -108.31 -143.168 -113.313 -197.838
c-2.87891 -31.4521 -14.9385 -55.7334 -36.1777 -72.8984c-6.51855 0 -9.77832 -5.26953 -9.77832 -15.8623c17.166 -6.51855 40.0889 -11.0273 68.6621 -13.4717l-68.6621 -6.19238c51.4424 -51.4424 128.253 -96.6914 230.322 -135.911l-6.19336 -4.88965
c-145.928 55.3936 -179.163 73.8428 -231.407 128.633c-34.9346 39.2803 -83.5674 47.5352 -84.5244 47.6943c-25.2627 4.20898 -22.5479 38.9746 -55.1895 56.3848c-12.2227 6.51855 -35.9609 26.6172 -71.0527 60.0791c-16.3809 4.66602 -24.5 18.1865 -24.5 40.7041
c0 1.07812 0.0185547 2.17676 0.0556641 3.2959c-2.94922 5.40723 -4.43555 11.0117 -4.43555 16.7539c0 0.255859 0.0273438 16.4023 6.8457 16.4023zM102.589 294.167l-2.49902 -3.69336c11.4072 -11.4072 23.3037 -20.4248 35.5254 -26.9434l2.49902 4.88867
c-13.8213 6.60254 -23.5537 17.2949 -35.5254 25.748zM76.8398 -61.0928l-4.88867 3.69336c101.255 44.1094 172.307 87.8379 213.156 131.132l14.667 -6.19238c-42.7568 -45.1279 -75.7422 -67.6953 -222.935 -128.633zM549.651 -46.3174
c-108.621 59.0625 -125.553 69.0068 -172.633 108.968c35.9053 3.74512 35.9053 3.74512 37.6719 3.74512c35.5625 0 80.5996 -37.5537 134.961 -112.713zM86.6182 -42.624c53.8867 77.5713 98.9189 116.736 134.825 117.552l36.7207 -3.69434
c-46.7578 -42.5156 -62.5088 -51.5674 -171.546 -113.857zM251.241 135.264c10.6475 0 10.6475 1.21777 10.6475 2.73926c0 22.5098 -14.584 33.7637 -43.6162 33.7637c-0.991211 0 -1.99805 -0.0126953 -3.02246 -0.0390625l-7.27832 8.58301l-6.19336 -4.99805
c7.41992 -6.67773 11.1914 -12.9941 11.1914 -18.9922c0 -0.588867 -0.0361328 -1.1748 -0.109375 -1.75781c9.43555 -12.8203 22.2598 -19.2988 38.3809 -19.2988zM124.312 252.367c0 6.94727 -2.02148 16.0518 -24.2227 16.0518l-1.19531 -6.08398
c9.49316 -0.729492 14.3184 -2.90039 14.3184 -6.58789c0 -0.0683594 -0.0410156 -4.89551 -4.71191 -4.89551c-2.12207 0 -4.93066 0.966797 -8.41113 2.90039l-3.58496 -4.88867c6.0498 -4.73145 11.5908 -7.10254 16.6465 -7.10254
c8.87109 0 11.1611 5.21777 11.1611 10.6064zM109.9 328.487c0 0.789062 0.0253906 1.58887 0.0761719 2.40137l25.6387 -26.9434l1.30371 14.7754c8.20898 0 12.2715 -7.92676 12.2715 -23.6963c0 -3.60352 0 -3.60352 -1.29785 -15.5234h-2.39062
c0 20.3682 -35.6016 18.8926 -35.6016 48.9863z" />
</svg>
