<?xml version="1.0" standalone="no"?>
<!DOCTYPE svg PUBLIC "-//W3C//DTD SVG 1.1//EN" "http://www.w3.org/Graphics/SVG/1.1/DTD/svg11.dtd" >
<svg xmlns="http://www.w3.org/2000/svg" xmlns:xlink="http://www.w3.org/1999/xlink" version="1.1" viewBox="-10 0 1340 1000">
   <path fill="currentColor"
d="M352.635 435.118c0 -28.8564 -9.92188 -37.9814 -9.92188 -88.7324c0 -10.5537 0.90918 -29.5508 0.90918 -29.8496c0 -28.4102 -14.8828 -44.0459 -44.6934 -46.9053l-27.8125 11.8018c-7.48633 0.572266 -11.251 3.18262 -11.251 7.91504
c0 0.359375 0.0214844 0.731445 0.0654297 1.11621c0 7.85059 -8.05664 12.0068 -24.1172 12.624c0 8.41504 -4.66992 12.7256 -13.958 12.7256h-1.02637c-11.084 0 -16.9336 -9.3916 -17.5498 -28.1211c-0.666016 0.0517578 -1.28223 0.103516 -1.94922 0.103516
c-5.78027 0 -17.71 0 -17.71 -22.9326c0 -4.11914 0.703125 -8.23633 2.11133 -12.3711c-0.015625 -0.649414 -0.0234375 -1.29199 -0.0234375 -1.92969c0 -24.7959 11.7109 -40.4678 35.2236 -46.9209c11.1348 -9.64746 19.6533 -17.8066 25.5547 -24.4258
c5.90039 -6.62012 14.2139 -12.9824 25.041 -18.9863c28.166 -15.6191 21.3154 -35.6797 42.4873 -40.0244c-1.2832 0.0507812 -2.51465 0.103516 -3.79688 0.103516c-42.8691 0 -66.2148 -25.9727 -86.5146 -53.1621c-19.8076 -26.5293 -33.6104 -44.335 -41.667 -53.3652
c-0.03125 -0.582031 -0.0478516 -1.14648 -0.0478516 -1.69629c0 -9.24121 4.4834 -13.9043 13.4922 -13.9043c1.02637 0 2.05273 0.103516 3.18164 0.206055c118.406 41.8379 144.737 56.8691 181.958 93.1855c22.2695 -30.1211 48.6963 -50.749 79.3311 -61.5762
c1.03223 -0.365234 95.6094 -33.7646 104.166 -33.7646c7.7959 0 11.7412 3.8125 11.7412 11.4375c0 1.30859 -0.116211 2.73047 -0.349609 4.26465c-7.44043 9.03125 -21.6543 26.4258 -42.6934 52.0312c-36.085 43.9189 -57.9629 59.0078 -112.376 67.3242
c16.7285 14.4707 26.375 32.9951 28.8379 55.624c18.3711 59.3184 39.7168 106.219 95.4434 141.626l745.279 1.53906v51.6211l-48.8506 -0.101562l0.71875 162.664h48.1318v51.6211l-825.328 1.43652c-17.9951 7.9375 -39.0596 11.0322 -62.0879 11.0322
c-68.3789 0 -154.084 -27.2832 -228.244 -36.0732c-4.77344 0 -8.87793 0.256836 -12.3154 0.717773c-39.0762 5.45215 -43.1416 87.04 -43.1416 120.761c0 19.8906 1.55176 40.083 4.65625 60.583c4.32324 5.21191 6.48438 9.72363 6.48438 13.5361
c0 7.63379 -8.66602 12.4609 -25.9834 14.4805c15.4814 10.5635 23.1924 21.3418 23.1924 32.3037c0 2.19043 -0.307617 4.3877 -0.922852 6.59277c-34.6367 18.0615 -63.4238 28.9395 -86.3096 32.5322c22.2021 -80.9561 28.6348 -124.302 51.5195 -278.53
c2.76953 -18.6777 8.97949 -35.4072 18.5752 -50.1855c7.9541 -12.2637 22.2188 -18.3691 42.7949 -18.3691c25.5547 -0.770508 51.2119 -1.38672 76.8682 -1.95117c28.4785 0 64.2451 0.873047 107.245 2.66895c13.2422 -51.4375 15.6318 -60.7158 15.6318 -72.2998z
M209.849 277.841c0.369141 0 20.9336 -3.81055 27.8877 -25.3486c0.564453 -0.0517578 1.18066 -0.103516 1.74512 -0.103516c9.13379 0 15.5732 4.56738 21.3721 13.6494c39.6143 -12.6738 68.9658 -19.6523 88.1572 -20.833
c19.1914 -1.17969 33.7129 -12.0586 43.6162 -32.5322c0.59668 3.35547 0.895508 6.54492 0.895508 9.56836c0 21.0996 -13.8096 34.292 -50.9766 41.9502c16.2764 7.62793 24.377 23.1367 24.377 46.4131c0 0.25 -0.819336 18.2607 -0.819336 24.9961
c0 24.3672 2.93164 53.5967 8.87207 87.7656l41.7686 -40.6396l5.64551 27.0928c-35.2529 34.9443 -54.8037 77.4326 -58.498 127.463c-36.1709 -4.00098 -72.3779 -8.86426 -108.788 -8.86426c-0.633789 0 -62.7646 0.18457 -62.7646 8.22461
c0 9.87207 125.683 38.29 187.996 38.29c44.1758 0 66.1738 -10.2588 86.0811 -29.1318c28.082 -30.2695 41.167 -96.6777 41.167 -150.675c0 -33.4229 -5.0127 -62.0908 -14.5869 -74.4902c-30.4795 -40.2295 -61.3193 -78.6631 -66.502 -131.875
c-2.15527 -23.1943 -11.3398 -41.2051 -27.4014 -53.8799c-4.92578 0 -7.38965 -3.84863 -7.38965 -11.6992c12.9824 -4.82422 30.3779 -8.15918 52.0322 -9.95508l-52.0322 -4.51562c38.999 -37.9717 97.1367 -71.4277 174.467 -100.369l-4.61816 -3.5918
c-111.912 41.3047 -136.554 56.1719 -175.39 94.9297c-26.3096 28.7646 -62.9121 35.082 -63.6299 35.2012c-18.1055 2.99707 -17.6191 28.9121 -42.1787 41.667c-9.28809 4.82324 -26.8887 19.499 -52.8535 44.2324c-13.0107 3.43652 -19.5391 13.6377 -19.5391 30.334
c0 0.753906 0.0136719 1.52148 0.0400391 2.30176c-2.2168 3.97168 -3.3252 8.03613 -3.3252 12.2148c0 0.132812 0.0654297 12.21 5.17285 12.21zM215.39 268.707l-1.84766 -2.66895c8.67285 -8.41504 17.6016 -15.085 26.8887 -19.9092l1.84766 2.77148
c-9.53516 6.03027 -17.8994 13.2305 -26.8887 19.8066zM195.891 6.49414l-3.69434 2.77148c76.7139 32.5322 130.49 64.8086 161.433 96.7764l11.1865 -4.61719c-32.5225 -33.4238 -58.2705 -50.2881 -168.925 -94.9307zM554.163 17.373
c-86.583 45.874 -95.7393 51.2578 -130.85 80.46l26.8877 2.77051h1.6416c26.9395 0 61.1152 -27.7607 102.32 -83.2305zM204.307 20.1436c40.2295 57.2656 73.8906 86.1045 101.088 86.7207l27.8115 -3.5918c-35.6768 -30.5693 -48.7549 -38.4844 -128.899 -83.1289z
M327.973 151.507c2.56445 0 5.28516 0.205078 8.10742 0.615234c0.0585938 0.867188 0.0878906 1.71289 0.0878906 2.53711c0 15.8096 -10.752 23.7363 -32.2109 23.7363c-0.769531 0 -1.48828 -0.103516 -2.25781 -0.103516l-6.46582 6.36328l-4.7207 -3.5918
c5.65332 -4.95215 8.49902 -9.64941 8.49902 -14.0918c0 -0.436523 -0.0283203 -0.871094 -0.0830078 -1.30273c7.13184 -9.44141 16.8301 -14.1621 29.0439 -14.1621zM231.836 237.902c0 4.76367 -1.24707 11.8184 -18.2939 11.8184l-0.922852 -4.51562
c7.22461 -0.551758 10.8164 -2.13574 10.8164 -4.86133c0 -0.200195 -0.0517578 -3.55371 -3.53027 -3.55371c-1.59082 0 -3.69434 0.71875 -6.36328 2.1543l-2.76953 -3.69336c4.56641 -3.49023 8.87695 -5.13184 12.8271 -5.13184
c6.63867 0 8.23633 3.91309 8.23633 7.7832zM220.875 294.03c0 0.614258 0.0185547 1.23828 0.0566406 1.87305l19.499 -19.9092l0.923828 10.8779c6.26367 0 9.41504 -5.87793 9.41504 -17.5537c0 -2.61328 0 -2.61328 -1 -11.3877h-1.84668
c0 15.1523 -27.0479 12.501 -27.0479 36.0996zM544.926 380.16l0.923828 165.436l119.048 -0.205078l-2.15527 -164.922zM714.364 380.57l2.1543 164.717l127.053 -0.205078v-164.307zM895.193 380.879v164.101l125.924 -0.307617v-163.485zM1072.74 381.289v163.383
l117.508 -0.308594l-0.615234 -162.869z" />
</svg>
