<?xml version="1.0" standalone="no"?>
<!DOCTYPE svg PUBLIC "-//W3C//DTD SVG 1.1//EN" "http://www.w3.org/Graphics/SVG/1.1/DTD/svg11.dtd" >
<svg xmlns="http://www.w3.org/2000/svg" xmlns:xlink="http://www.w3.org/1999/xlink" version="1.1" viewBox="-10 0 818 1000">
   <path fill="currentColor"
d="M153.037 -75.0068c4.24414 0 19.0664 0.0185547 33.3438 11.75c14.4346 -3.4668 29.3477 -5.19824 44.75 -5.19824c18.6299 0 37.9746 2.53223 58.0527 7.58887c62.0381 15.625 85.4131 95.4639 85.4131 137.366c0 41.4756 -15.8721 86.71 -47.5947 135.726
c-17.8369 27.5605 -102.301 162.312 -102.301 242.664c0 15.8662 4.14258 26.5156 12.4287 31.9492c15.6338 10.252 38.377 15.3779 68.2275 15.3779c1.79199 0 3.60938 -0.0185547 5.45215 -0.0556641c48.4678 0 73.2988 -56.1826 74.5488 -168.44
c0 -112.91 38.3066 -169.311 114.865 -169.311c76.5596 0 114.758 56.4004 114.758 169.311c1.24902 42.708 4.67285 84.6006 10.1064 125.407c12.7217 95.54 59.2178 87.3555 77.917 130.927c-90.5771 0 -139.914 -30.9492 -148.228 -95.0654
s-13.2041 -117.909 -14.4531 -161.269c0 -73.3535 -13.3125 -109.976 -40.1006 -109.976c-26.7871 0 -40.208 36.6221 -40.208 109.976c0 171.592 -49.7178 256.334 -149.206 256.334c-102.694 0 -163.551 -12.8555 -182.351 -40.6211
c-16.5469 -24.4375 -24.8018 -53.3369 -24.8018 -86.8828c0 -15.9287 2.37402 -27.0156 2.37402 -95.665c0 -43.9854 -2.25 -150.28 -2.25 -151.799c0 -86.4141 12.1826 -151.462 36.6309 -195.102c-3.48145 0.536133 -6.9502 0.804688 -10.4062 0.804688
c-25.1689 0 -62.2949 -17.7676 -62.2949 -46.7725c0 -34.916 60.4248 -49.0244 85.3262 -49.0244zM768.1 591.055v333.948h-29.668v-104.325l-155.943 -196.043h-542.488v-33.5801h728.1zM129.99 2.32715c46.9658 0 54.332 -23.4219 110.882 -23.4219
c12.3906 0 24.5098 1.55859 36.3584 4.67578c2.60352 3.16895 3.9082 5.69336 3.9082 7.56934c0 2.27246 -1.91602 3.59277 -5.75586 3.94922c-3.00391 -0.0605469 -5.93945 -0.0898438 -8.80762 -0.0898438c-77.7148 0 -126.61 7.98145 -126.61 254.263
c0 2.29395 0.374023 137.31 1.42578 229.416c0.644531 56.4619 55.8926 83.666 165.639 83.666c1.25293 0 2.5127 -0.00292969 3.78027 -0.0107422c82.916 0 124.32 -75.5596 124.32 -228.623c0 -86.7197 21.7344 -130.406 65.0938 -131.058
c43.3604 0.651367 64.9863 44.3379 64.9863 131.058c2.55371 43.3594 6.30273 90.9033 11.084 142.577c4.78223 51.6729 35.4814 83.8398 92.2627 96.6084c-38.9043 -22.332 -61.291 -56.998 -67.377 -104.216c-6.08496 -47.2178 -9.83496 -92.2617 -11.084 -134.97
c0 -98.2393 -29.9395 -147.358 -89.8721 -147.358c-59.9316 0 -89.9795 49.1191 -89.9795 147.358c0 132.036 -33.0908 198.108 -99.4346 198.108c-82.916 0 -124.429 -18.2031 -124.429 -54.5537c0 -48.8779 37.7539 -174.108 120.082 -300.911
c20.5215 -31.6094 30.8037 -63.3877 30.8037 -95.3379c0 -28.5615 -12.1836 -100.106 -65.2529 -118.963c-17.8398 -6.33887 -37.4492 -9.51465 -58.8496 -9.51465c-14.1875 0 -29.1621 1.39551 -44.9316 4.19043c-7.55273 -5.97754 -16.0293 -8.91113 -25.3203 -8.91113
c-4.13379 0 -31.5088 0.975586 -48.3594 26.1895c8.82617 28.3096 25.334 28.3096 35.4375 28.3096zM131.483 -45.5674c13.7363 0 14.5273 10.8047 14.5273 13.293c0 5.25195 -3.72363 8.59961 -11.249 10.0957c5.46094 -5.46094 5.79102 -10.3643 5.79102 -11.4668
c0 -4.2627 -4.33203 -7.83496 -10.5137 -7.83496c-4.20117 0 -22.0703 3.10059 -22.0703 12.5029c0 7.63672 8.78223 13.3496 18.4209 13.3496c18.3652 0 44.2627 -10.0371 89.6582 -27.6328l2.8252 1.95605c-18.3213 10.7178 -62.4512 30.1953 -89.7656 30.1953
c-25.0898 0 -25.2471 -18.0166 -25.2471 -18.3281c0 -11.1719 19.0264 -16.1299 27.623 -16.1299zM118.238 -37.7197c2.91309 0 9.20898 2.71777 9.20898 7.97363c0 2.19824 -1.56152 8.68555 -7.41406 8.68555c-5.9375 0 -8.72363 -4.2998 -8.72363 -8.06934
c0 -2.90039 3.41113 -8.58984 6.92871 -8.58984zM634.107 624.635l104.324 144.424v-144.424h-104.324z" />
</svg>
