<?xml version="1.0" standalone="no"?>
<!DOCTYPE svg PUBLIC "-//W3C//DTD SVG 1.1//EN" "http://www.w3.org/Graphics/SVG/1.1/DTD/svg11.dtd" >
<svg xmlns="http://www.w3.org/2000/svg" xmlns:xlink="http://www.w3.org/1999/xlink" version="1.1" viewBox="-10 0 371 1000">
   <path fill="currentColor"
d="M115.092 225.368c-36.3203 -48.4766 -24.7959 -75.9609 -42.708 -75.9609c-0.810547 -0.0771484 -1.62695 -0.116211 -2.44824 -0.116211c-4.96094 0 -10.1211 1.41699 -15.4824 4.35352c0 -25.5918 7.66113 -40.6426 23.0381 -45.207
c-0.21582 -1.38574 -0.323242 -2.67773 -0.323242 -3.875c0 -7.6875 4.44531 -11.4873 13.2773 -11.4873c0.520508 0 1.05664 0.0136719 1.6084 0.0400391c7.9873 -11.3564 20.7021 -18.2568 38.3613 -20.5391c-2.28223 -1.68457 -5.97754 -4.50977 -11.085 -8.47656
c-8.53027 7.9873 -20.2129 11.9541 -34.9922 11.9541c-31.9248 0 -35.9443 -39.4531 -35.9443 -47.8398c0 -10.6816 2.55566 -21.4521 7.66797 -32.3604c-9.12891 0 -14.7793 -2.87988 -17.0615 -8.58496c2.28906 -9.16016 12.2051 -13.9502 18.501 -13.9502
c4.87598 0 8.15234 2.86621 19.8604 2.86621c5.7998 0 17.5205 2.33301 17.5205 21.1953c0 21.5537 -18.1719 36.0801 -18.1719 50.707c0 9.02539 8.30957 12.9902 15.1035 12.9902c5.44434 0 11.7949 -2.14746 19.04 -6.43164
c-10.2148 -14.7793 -15.4307 -30.917 -15.4307 -48.5762c0 -33.667 28.1904 -81.0693 87.0459 -81.0693c50.3428 0 88.7842 41.6543 88.7842 81.0693c-2.08203 23.9053 -8.62793 35.9297 -8.62793 40.1914c0 25.418 31.5615 71.4258 47.8584 86.085
c6.82617 8.75098 10.2559 15.7061 10.2559 20.8818c0 2.56934 -0.845703 4.7002 -2.54004 6.39453c-46.0771 -43.251 -71.126 -74.4404 -75.0918 -93.7842c-7.38965 5.70605 -13.9648 9.07422 -19.6699 10.2158c23.5645 8.49023 74.2227 39.5117 74.2227 149.314v102.368
l-68.2461 0.870117v596.39h-45.207v-596.39l-69.1152 -0.870117v-102.368zM115.961 5.19922c0 23.7588 19.3076 64.877 65.6377 64.877c48.1035 0 66.6162 -38.5039 66.6162 -63.1377c0 -37.1953 -34.0771 -64.877 -65.7461 -64.877
c-43.1729 0 -66.5078 35.4521 -66.5078 63.1377zM47.585 -13.6006c0.805664 2.7998 3.12793 4.21973 7.02246 4.21973c4.55371 0 7.51367 -1.71191 13.8018 -1.71191c4.17676 0 8.03418 0.853516 11.5596 2.59961c-14.2354 3.42285 -21.2988 17.0615 -21.2988 40.9697
c0 23.9072 11.4863 35.8613 32.5146 35.8613c-15.9404 -3.90137 -23.9277 -10.8008 -23.9277 -20.6807c0 -13.6748 19.2197 -35.498 19.2197 -51.9404c0 -1.30762 -0.291016 -11.75 -9.5498 -12.6865c-10.5 -1.05957 -16.4453 -3.41797 -19.5293 -3.41797
c-3.4209 0 -7.02441 1.13965 -9.8125 6.78711zM60.4883 -15.6348c0 1.1084 -3.90625 3.29785 -6.44434 3.29785c-1.21582 0 -2.24707 -0.420898 -3.08984 -1.26367c1.3125 -3.19922 3.74707 -3.51074 5.27344 -3.51074c1.11523 0 4.26074 0.381836 4.26074 1.47656z
M154.322 91.376c-63.5586 0 -56.6357 23.1094 -69.3916 23.1094c-0.474609 0 -0.960938 -0.0234375 -1.46191 -0.0712891c-0.0478516 0.400391 -0.0712891 0.822266 -0.0712891 1.2666c0 4.61621 2.58203 11.584 7.78711 20.9033h-14.4531
c13.0947 0 22.8203 8.85645 29.3408 26.5156c4.70703 12.749 20.0176 49.3896 40.4736 49.3896c0.246094 0 18.3936 -0.21875 18.3936 -16.3447c0 -5.99023 -2.37695 -13.5996 -7.13965 -22.8301c25.5117 -7.97852 38.2109 -21.291 38.2109 -39.8643
c0 -39.748 -33.7812 -42.0742 -41.6885 -42.0742zM203.008 93.9844c7.81738 14.3984 11.7227 27.4473 11.7227 39.1553c0 20.6768 -12.1807 37.1699 -36.5 49.5205c0 28.418 -13.6387 42.708 -40.9697 42.708v80.1992h138.23v-80.1992
c0 -89.7832 -37.9609 -131.384 -72.4834 -131.384zM118.461 105.938c10.8125 0.542969 16.5176 5.65039 17.0615 15.3223c-0.543945 11.3564 -6.24902 17.3877 -17.0615 17.9307c-10.8125 0 -16.5186 -5.97656 -17.0615 -17.9307
c0.542969 -9.67188 6.24902 -14.7793 17.0615 -15.3223z" />
</svg>
