<?xml version="1.0" standalone="no"?>
<!DOCTYPE svg PUBLIC "-//W3C//DTD SVG 1.1//EN" "http://www.w3.org/Graphics/SVG/1.1/DTD/svg11.dtd" >
<svg xmlns="http://www.w3.org/2000/svg" xmlns:xlink="http://www.w3.org/1999/xlink" version="1.1" viewBox="-10 0 1190 1000">
   <path fill="currentColor"
d="M348.646 327.197c0 28.6025 -11.5518 57.3281 -34.8379 86.2979c-23.2852 28.9697 -59.834 44.3105 -109.646 45.9609c-49.0156 -1.65039 -85.1367 -16.9912 -108.423 -45.9609c-23.2852 -28.9697 -34.959 -58.123 -34.959 -87.5205
c0 -72.1953 60.1582 -108.409 61.2402 -109.035v-47.7939h165.385v46.5723c10.8057 6.59082 61.2402 45.25 61.2402 111.479zM730.877 328.419c0 28.6035 -11.6738 57.084 -34.959 85.6875c-23.2861 28.6035 -59.2852 44.127 -108.302 46.5713
c-49.0166 -2.44434 -85.1377 -17.9678 -108.423 -46.5713c-23.2861 -28.6035 -34.959 -57.5117 -34.959 -86.9092c0 -64.3838 45.8818 -101.368 61.2402 -110.258v-46.5713h164.162v46.5713c9.42383 5.4541 61.2402 40.8516 61.2402 111.479zM1116.77 328.419
c0 28.6035 -11.6729 57.3291 -34.959 86.2988c-23.2852 28.9697 -59.4062 43.7383 -108.423 46.1826c-49.0166 -2.44434 -85.1377 -17.2129 -108.424 -46.1826c-23.2852 -28.9697 -34.8359 -57.6953 -34.8359 -86.2988c0 -64.3877 45.8877 -101.372 61.2393 -110.257
v-47.7939h164.163v46.5713c19.6699 11.3857 61.2393 50.8223 61.2393 111.479zM40 461.9h1100v338.104l-165.386 -106.59h-769.229l-165.385 106.59v-338.104zM152.702 189.926v20.9023h105.366v-20.9023h-105.366zM536.155 191.148v20.9023h105.244v-20.9023h-105.244z
M921.932 191.148v20.9023h105.366v-20.9023h-105.366zM204.162 432.563c67.3867 0 117.255 -48.8613 118.813 -106.589c0 -17.9688 -8.61719 -38.3818 -25.792 -61.2402c-17.1738 -22.8574 -48.0996 -34.3486 -93.0215 -34.3486
c-49.8105 0 -81.8975 11.4912 -96.1992 34.3486c-14.3018 22.8584 -21.3916 43.6992 -21.3916 62.4629c1.57617 56.7158 52.1279 105.366 117.591 105.366zM587.616 433.786c63.3369 0 117.591 -46.4902 117.591 -106.589c0 -17.9688 -8.43457 -38.5664 -25.1807 -61.8516
c-16.7461 -23.2861 -47.4883 -34.96 -92.4102 -34.96c-49.8105 0 -81.8984 11.6738 -96.1992 34.96c-14.3018 23.2852 -21.5137 44.3096 -21.5137 63.0732c1.56055 56.2129 51.877 105.367 117.713 105.367zM973.393 432.786c63.9316 0 117.591 -46.1328 117.591 -104.367
c0 -18.7637 -8.3125 -39.6045 -25.0586 -62.4619c-16.7461 -22.8584 -47.6104 -34.3486 -92.5322 -34.3486c-49.8115 0 -81.7764 11.4902 -96.0771 34.3486c-14.3018 22.8574 -21.5137 43.6982 -21.5137 62.4619c1.56055 56.1543 51.8281 104.367 117.591 104.367z
M84.127 517.029v194.722l121.258 -73.4639h769.229l120.036 73.4639v-194.722h-1010.52z" />
</svg>
