<?xml version="1.0" standalone="no"?>
<!DOCTYPE svg PUBLIC "-//W3C//DTD SVG 1.1//EN" "http://www.w3.org/Graphics/SVG/1.1/DTD/svg11.dtd" >
<svg xmlns="http://www.w3.org/2000/svg" xmlns:xlink="http://www.w3.org/1999/xlink" version="1.1" viewBox="-10 0 635 1000">
   <path fill="currentColor"
d="M544.562 685.674c0 -153.816 -77.7822 -255.157 -284.929 -291.84c-71.666 0 -130.05 31.4355 -175.15 96.3057c-29.6543 0 -44.4824 -37.9219 -44.4824 -115.767c0 -77.8438 14.8281 -116.767 44.4824 -116.767c45.1006 64.8701 105.955 97.3057 182.563 97.3057
c130.977 23.4775 222.722 74.7559 275.235 153.835c1.19434 -14.9277 1.79102 -29.418 1.79102 -43.4717c0 -220.773 -136.698 -278.042 -284.439 -304.975c-71.666 0.618164 -130.359 33.0537 -176.077 97.3057c-29.0371 0 -43.5557 -38.9219 -43.5557 -116.767
c0 -77.2266 14.5186 -115.84 43.5557 -115.84c45.7178 64.2529 106.573 96.3789 182.564 96.3789c254.902 45.4746 319.203 176.729 319.203 333.983c0 38.9131 -4.15332 81.4199 -12.46 127.522c8.20996 28.7334 12.3145 62.1973 12.3145 100.393
c0 42.2881 -5.03125 90.375 -15.0947 144.261l-37.0684 0.926758c-40.9131 -159.931 -181.692 -184.86 -273.382 -201.098c-71.666 0 -130.05 32.4355 -175.15 97.3057c-29.6543 0 -44.4824 -38.9229 -44.4824 -116.767s14.8281 -116.767 44.4824 -116.767
c45.1006 64.8701 105.955 97.3057 182.563 97.3057c130.977 23.4766 222.413 74.4453 274.31 152.908c2.13672 -19.3691 3.20605 -37.9287 3.20605 -55.6797zM83.5557 72.2627c-11.1211 0 -16.6807 22.8594 -16.6807 68.5771c0 46.3359 5.55957 69.5039 16.6807 69.5039
c40.1582 -43.8643 78.1543 -65.7969 113.987 -65.7969v-6.4873c-35.833 0 -73.8291 -21.9316 -113.987 -65.7969zM84.4824 305.796c-11.1201 0 -16.6816 22.8594 -16.6816 68.5771c0 45.7188 5.56152 68.5771 16.6816 68.5771
c39.54 -43.2471 77.5352 -64.8701 113.986 -64.8701v-6.4873c-36.4512 0 -74.4463 -21.9326 -113.986 -65.7969zM84.4824 539.329c-11.1201 0 -16.6816 22.8584 -16.6816 68.5771s5.56152 68.5771 16.6816 68.5771c39.54 -43.2471 77.5352 -64.8701 113.986 -64.8701
v-6.4873c-36.4512 0 -74.4463 -21.9326 -113.986 -65.7969z" />
</svg>
