<?xml version="1.0" standalone="no"?>
<!DOCTYPE svg PUBLIC "-//W3C//DTD SVG 1.1//EN" "http://www.w3.org/Graphics/SVG/1.1/DTD/svg11.dtd" >
<svg xmlns="http://www.w3.org/2000/svg" xmlns:xlink="http://www.w3.org/1999/xlink" version="1.1" viewBox="-10 0 1093 1000">
   <path fill="currentColor"
d="M679.974 -75.042c91.2148 0 159.966 72.9922 242.636 72.9922h97.8867c8.47461 0 12.7109 5.9209 12.7109 17.8164c0 11.8965 -4.23633 17.8174 -12.7109 17.8174h-61.0566v48.2373c55.9502 6.79004 83.9805 23.8477 83.9805 50.9531
c0 8.47461 -2.17285 15.21 -6.41016 20.3164c-45.7852 0 -32.4727 101.689 -71.1602 101.689h-1.30371v480.741c-85.6104 126.352 -227.226 189.581 -424.792 189.581c-206.04 0 -346.731 -63.2295 -422.184 -189.581v-479.438
c-38.6875 0 -25.375 -101.689 -71.1602 -101.689c-4.2373 -5.10645 -6.41016 -11.9502 -6.41016 -20.4248c0 -27.1064 26.6719 -43.6201 80.0693 -49.541v-50.8447h-60.9482c-9.34375 0 -14.0146 -5.9209 -14.0146 -17.8174c0 -11.8955 4.6709 -17.8164 14.0146 -17.8164
h97.8867c80.7969 0 150.249 -73.001 241.348 -73.001c8.51562 0 109.752 1.85547 141.398 89.5137c23.8936 -70.1475 97.8984 -89.5049 140.22 -89.5049zM391.866 -38.125c-86.999 0 -154.256 71.709 -236.162 71.709v50.8447
c56.8193 5.9209 85.2842 22.4346 85.2842 49.541c0 8.47461 -2.17285 15.3184 -6.41016 20.4248c-46.0156 0 -31.7354 101.689 -72.4639 101.689v479.438h356.021v-481.937c-40.4893 0 -27.251 -101.798 -71.1611 -101.798
c-4.2373 -5.10645 -6.41016 -11.8418 -6.41016 -20.3164c0 -27.1055 27.2158 -44.0537 81.4824 -50.8438c-3.29102 -31.0977 -22.1484 -118.752 -130.18 -118.752zM922.609 33.584c-81.8926 0 -149.177 -71.709 -236.162 -71.709
c-31.2305 0 -118.547 9.85449 -130.07 118.752c55.9502 6.79004 83.8711 23.7383 83.8711 50.8438c0 8.47461 -2.06348 15.21 -6.30078 20.3164c-44.0234 0 -30.7949 101.798 -71.2695 101.798v481.937h357.433v-480.741c-40.6074 0 -27.3115 -101.689 -71.2686 -101.689
c-4.2373 -5.10645 -6.41016 -11.8418 -6.41016 -20.3164c0 -27.1055 26.7803 -44.1631 80.1777 -50.9531v-48.2373zM472.396 128.973c53.6221 43.9287 19.9375 97.9141 68.5322 97.9141c47.4229 0 13.7002 -53.7617 67.5957 -97.9141
c-16.9473 -11.0273 -39.4912 -16.623 -67.4668 -16.623c-28.8438 0 -51.7129 5.5957 -68.6611 16.623zM874.264 128.973c53.9346 46.7002 19.9229 99.1084 68.7168 99.1084c49.4873 0 12.5127 -52.7041 68.6074 -99.1084
c-16.9482 -10.1582 -39.8174 -15.3193 -68.6621 -15.3193s-51.7139 5.16113 -68.6621 15.3193zM71.832 130.167c53.8896 46.665 19.873 99.2178 68.6074 99.2178c49.5195 0 12.7783 -52.9404 68.7168 -99.2178c-16.9482 -10.1572 -39.8174 -15.21 -68.6621 -15.21
s-51.7139 5.05273 -68.6621 15.21zM183.733 766.051c81.373 83.9258 200.5 126.351 357.324 127.22c148.568 -1.08691 265.196 -43.5117 349.72 -127.22h-707.044zM541.058 767.051l83.9805 61.3604l-83.9805 63.5557l-85.1748 -63.5557zM541.058 788.67l-54.6465 39.7412
l54.6465 41.9355l54.6475 -41.9355z" />
</svg>
