<?xml version="1.0" standalone="no"?>
<!DOCTYPE svg PUBLIC "-//W3C//DTD SVG 1.1//EN" "http://www.w3.org/Graphics/SVG/1.1/DTD/svg11.dtd" >
<svg xmlns="http://www.w3.org/2000/svg" xmlns:xlink="http://www.w3.org/1999/xlink" version="1.1" viewBox="-10 0 1240 1000">
   <path fill="currentColor"
d="M692.871 -21.1133c40.5303 12.4043 146.286 177.41 147.536 179.368c68.4453 47.2051 104.352 73.1162 107.665 77.7881c-0.457031 3.27441 -3.36914 4.9209 -8.73535 4.9209c-2.29102 0 -5.02832 -0.299805 -8.21289 -0.901367
c1.30371 2.00977 9.28906 7.93066 23.9014 17.9258l5.97461 8.04004l-59.7529 -32.9189l46.8252 52.7998c-11.3115 5.65527 -24.7549 12.1846 -67.793 14.9932c-27.2695 -26.5635 -59.8076 -59.21 -97.6699 -97.7783l-30.9629 -18.9033
c0 22.5977 1.68457 42.1533 4.99805 58.7754c0 3.31348 -2.28125 5.43164 -6.95312 6.08398l-30.9629 -20.9678l4.01953 55.8418c19.5078 19.5078 35.8516 9.18555 35.8516 22.9238h27.9209v-19.9902h30.9639v342.006c63.8271 -19.9365 114.346 -47.5312 151.556 -82.7861
c-55.665 -38.748 -55.665 -38.748 -55.665 -41.1064c0 -3.3877 4.17285 -8.78906 6.91992 -8.78906c1.08496 0 2.05371 0.701172 2.89746 2.09277l56.7168 38.8232c-0.000976562 -0.416016 13.8643 -11.2539 29.002 -29.9141l-63.8809 -43.7832
c-1.83789 -1.11426 -2.75684 -2.62988 -2.75684 -4.55566c0 -4.1084 3.69336 -8.67969 6.64453 -8.67969c1.19727 0 2.25879 0.753906 3.17383 2.2627l65.7285 44.8691c10.6465 -11.9502 19.6104 -23.249 26.9434 -33.8965l-69.748 -47.9111
c-1.65723 -1.00488 -2.48633 -2.26758 -2.48633 -3.77539c0 -2.35938 4.21582 -9.29004 7.08398 -9.29004c0.328125 0 0.328125 0 72.1035 50.0039c4.67188 -6.62695 9.07129 -13.96 13.0371 -21.9453c11.4199 -24.4854 22.8037 -36.6836 34.2109 -36.6836
c1.43359 0 17.8477 0.444336 17.8477 20.7959c0 5.43457 -0.209961 21.5195 -24.1377 65.7539l22.9238 15.8623c6.26074 -1.81738 12.2158 -2.72559 17.8643 -2.72559c31.6572 0 54.7393 31.9746 56.8809 62.5869c-7.00195 2.33398 -13.9385 3.5 -20.8018 3.5
c-17.7559 0 -54.9893 -10.3076 -61.9834 -52.3887l-21.9453 -14.8838c-6.62695 9.99512 -14.6123 21.5654 -23.9014 34.874l23.9014 16.9482c6.30957 -1.83105 12.3184 -2.74902 18.0195 -2.74902c31.2402 0 54.6416 30.9541 55.748 62.6104
c-6.63184 1.96973 -13.1904 2.9502 -19.6787 2.9502c-14.1885 0 -56.0605 -7.20117 -62.0195 -51.8389l-23.9014 -16.9482c-6.62793 10.6475 -14.7217 21.6201 -24.0107 32.9189l26.9434 18.9033c6.26074 -1.81738 12.2158 -2.72559 17.8643 -2.72559
c31.0918 0 54.8008 31.0566 55.9043 62.5879c-7.12305 2.37402 -14.1611 3.55664 -21.1191 3.55664c-12.4619 0 -54.5898 -6.11719 -60.5801 -52.4463l-27.9209 -18.9033c-43.1855 54.4844 -97.3975 90.9883 -162.529 109.62h-152.425
c187.773 -6.44824 267.786 -87.0967 299.961 -125.156c41.8818 -49.541 68.9883 -87.5107 81.2646 -114.074c9.28711 -20.0938 13.9424 -33.1934 13.9424 -39.2529c0 -3.36426 -1.47754 -3.87988 -2.38281 -3.87988c-4.28516 0 -12.4473 11.9082 -24.4873 35.6367
c-12.9834 25.585 -40.0352 61.2744 -81.2646 107.121c-93.334 103.786 -225.612 118.872 -306.704 118.872c-10.1943 0 -168.086 -0.834961 -267.036 -52.0566c-140.511 -72.7354 -165.882 -258.717 -168.069 -277.146l-12.9287 -6.95312
c11.3311 119.688 71.9434 241.069 171.003 300.069c76.2793 45.4307 191.663 55.0488 251.833 56.8203h-168.612c-56.8037 0 -156.387 -49.4805 -206.855 -148.079c-22.2715 -43.5117 -36.0693 -76.9189 -41.3926 -100.169
c-27.9209 -29.2246 -50.1924 -46.1729 -66.8145 -50.8438l-4.02051 36.9375c0 5.32422 -4.61719 8.25684 -13.9062 8.90918l-18.9033 -0.977539c-5.32324 -15.2646 -8.69141 -28.2471 -9.99512 -38.8945c-7.98535 -5.32324 -12.9824 -14.9385 -14.9922 -28.8984
c-3.93359 1.25781 -7.89551 1.88574 -11.8818 1.88574c-26.4307 0 -38.0459 -24.8096 -54.9336 -24.8096c-1.30371 0.652344 -3.63965 1.30371 -6.95312 1.95605c-1.18555 -0.291016 -1.77832 -0.786133 -1.77832 -1.48145c0 -1.78711 6.90234 -8.63965 17.043 -8.63965
c17.2139 0 20.2686 13.3955 43.6406 13.3955c6.43164 0 13.374 -1.09082 20.8379 -3.27441l14.9932 -16.9482c0.882812 -4.63281 1.32324 -9.07324 1.32324 -13.3291c0 -27.6904 -17.3125 -31.502 -17.3125 -51.5049c0 -8.19824 4.37695 -14.9502 7.29102 -14.9502
c0.834961 0 1.41895 0.665039 1.74512 1.99609c0 4.72949 -1.14648 6.14355 -1.14648 8.17773c0 16.9375 30.0986 23.5479 30.0986 62.8945c0 0.926758 -0.0185547 1.8623 -0.0537109 2.80469c4.67188 -9.28906 14.8838 -20.6963 30.8545 -34.0049
c3.66602 12.6299 5.5 22.6787 5.5 30.1543c0 7.47656 -1.83398 12.3789 -5.5 14.7148c13.9609 2.00977 26.291 8.69141 36.9385 19.9902l-4.99805 -32.9189c-8.1123 -10.6377 -12.1562 -23.5449 -12.1562 -38.7959c0 -4.76465 0.394531 -9.75781 1.18359 -14.9824
c-1.93359 -2.5957 -4.875 -3.90039 -8.80469 -3.90039c-9.58594 0 -15.3623 5.9248 -22.9189 5.9248c-11.0488 0 -24.4209 -9.95312 -40.0889 -29.9453l-8.9082 -9.99512c11.1035 -7.98242 22.4014 -11.9902 33.9248 -11.9902c16.4863 0 36.6348 11.1074 45.9902 11.1074
c0.342773 0 0.610352 -0.03125 0.805664 -0.0947266c-23.249 -38.5684 -69.4766 -77.7881 -138.627 -117.659c-5.53418 -4.69824 -8.29785 -8.18555 -8.29785 -10.4648c0 -2.15234 2.4668 -3.22754 7.39355 -3.22754c2.39844 0 5.37988 0.254883 8.94336 0.763672
c71.7588 32.5928 122.929 67.0869 153.512 103.645c-15.2646 -35.9062 -61.1113 -75.126 -137.541 -117.659c-6.53027 -5.59082 -9.80371 -9.43359 -9.80371 -11.5342c0 -1.26953 1.19336 -1.90332 3.58398 -1.90332c3.47754 0 144.241 36.7891 192.649 152.064
c21.9463 18.6328 35.8525 34.8203 41.8271 48.7803c-0.0263672 0.162109 -0.0400391 0.331055 -0.0400391 0.508789c0 10.4189 43.1738 40.9541 46.8652 50.3359c4.35254 11.0635 7.30859 18.9248 7.30859 23.3203c0 12.7012 -15.1699 22.8311 -27.2129 22.8311
c-1.3252 0 -2.6582 -0.101562 -3.99707 -0.303711c-49.4531 -17.5918 -64.4932 -10.1719 -77.7881 -21.8379c9.34473 91.7051 81.6123 206.213 157.531 244.229c37.21 18.6318 75.1807 29.9307 113.749 33.8965v-341.028l29.876 -0.977539v19.9902h17.9268
c-0.401367 -0.931641 -0.600586 -1.83105 -0.600586 -2.69727c0 -7.47363 16.0615 -11.5332 22.416 -11.5332c5.40234 0 6.55566 1.7002 9.20508 1.7002c4.28125 0 8.87695 -4.14258 13.8486 -12.458l17.9258 -62.7949
c-4.67188 -2.66211 -6.95312 -6.03027 -6.95312 -9.99512c0 -31.8867 -9.01758 -76.0498 -26.9434 -132.544c-17.9258 -20.5879 -26.9434 -42.9131 -26.9434 -66.8145l3.04199 -25.9658c-2.66211 -16.6221 -5.7041 -24.8789 -9.01758 -24.8789h-10.9727
c7.33301 -22.5977 25.6396 -33.8965 54.8643 -33.8965c62.4941 0 58.1982 53.8867 64.8594 53.8867zM632.031 -28.1748c19.9365 -3.31445 29.877 -10.2129 29.877 -20.8594c-7.98535 -7.98535 -21.8916 -12.0596 -41.8271 -12.0596v1.08594
c2.66211 3.31445 3.91113 5.92188 3.91113 7.93164c-1.30371 5.32324 -4.2373 7.93066 -8.90918 7.93066c-4.6709 -1.30371 -6.95312 -3.96582 -6.95312 -7.93066v-5.97559c-2.66113 1.30371 -6.0293 3.63965 -9.99414 6.95312
c7.98438 17.2744 11.9502 29.333 11.9502 35.9609c-1.83789 9.5791 -2.75586 18.1221 -2.75586 25.6484c0 6.0459 0.592773 11.4355 1.77832 16.1787c10.6465 -21.9463 24.2266 -36.2871 40.8496 -42.9141l3.04199 1.08691
c-19.2842 22.5967 -29.0078 39.5449 -29.0078 50.8438c0 13.9609 17.9805 35.2002 53.8867 63.7734c25.9111 17.2744 81.4814 46.1729 166.548 86.6963c-89.8252 -120.607 -146.741 -193.445 -167.525 -200.336l-6.95312 -19.9902
c-5.0752 6.31738 -12.3203 9.47461 -21.6445 9.47461c-0.344727 0 -16.2725 -0.0175781 -16.2725 -3.49902zM642.026 101.435c13.3086 47.2051 19.8818 82.1338 19.8818 104.731c8.63672 3.96582 17.0029 10.2666 24.9873 18.9043l10.9736 -7.93164
c-29.2246 -45.1953 -47.5312 -83.8174 -54.8643 -115.704h-0.978516zM662.886 124.358c4.37305 24.5869 45.9551 85.8271 46.9336 85.8271c7.33398 1.30371 16.1875 5.9209 26.835 13.9062c-0.869141 -7.53223 -1.30371 -16.8262 -1.30371 -27.8975
c0 -5.53809 0.108398 -11.5205 0.326172 -17.9492c-20.5879 -16.6221 -44.8701 -34.6025 -72.791 -53.8867zM706.777 133.376v1.95508c39.8721 24.6074 69.8027 44.8691 89.7383 60.8398c35.9062 38.5684 65.1855 67.8477 87.7832 87.7832l37.8076 -7.06152
c-41.8818 -45.1953 -63.4473 -67.793 -64.751 -67.793zM669.948 228.112l-15.9707 54.8643c7.98535 4.99805 15.876 7.49609 23.6768 7.49609c7.80273 0 15.5156 -2.49805 23.1475 -7.49609l-2.93262 -53.8867l-13.0371 11.9502l-12.9287 -12.9277h-1.95508z
M201.795 258.545c3.97852 0 7.12891 0.828125 9.46484 2.48535l4.99805 -9.99512c-0.519531 -0.263672 -38.9639 -17.6377 -55.5117 -17.6377c-5.19434 0 -9.27441 1.20703 -12.2812 3.62305c12.4785 16.4678 23.7686 24.7354 33.8369 24.7354
c5.30273 0 10.7969 -3.21094 19.4932 -3.21094zM333.917 349.683l1.95605 -3.91113c13.9229 10.5146 20.6914 11.1504 22.1211 11.1504c0.658203 0 1.28711 -0.0595703 1.88867 -0.177734c5.93848 0 6.61621 -9.04102 6.61621 -10.3232
c0 -4.7334 -2.56738 -9.94629 -7.70215 -15.6426c-2.11719 1.03711 -3.13477 2.14258 -3.13477 3.20801c0 2.91016 5.21973 4.03516 5.21973 6.67578c0 0.162109 -0.21582 3.36426 -2.50684 3.36426c-3.62988 0 -10.5908 -7.60742 -10.5908 -12.8135
c0 -2.48047 1.3584 -4.61719 4.05957 -6.40918l-39.8721 -34.874c-5.97559 -21.2939 -20.3164 -37.917 -42.9141 -49.8672c-1.69629 0.185547 -3.32227 0.27832 -4.87988 0.27832c-8.2334 0 -10.2646 -2.34277 -13.3721 -2.34277
c-2.44434 0.0546875 -3.58496 2.11914 -3.58496 6.08398c0 5.32324 -4.40039 9.61523 -13.0371 12.9287c-4.8916 8.18262 -7.30762 17.6396 -7.30762 28.46c0 11.6777 1.6416 29.1006 24.2559 36.834c39.0264 13.3457 23.7158 21.1562 51.3877 24.4443
c22.1855 2.63574 32.6025 9.23438 39.3477 9.23438c0.777344 0 1.16602 -0.0908203 1.16602 -0.274414c0 -0.745117 -4.68945 -1.59961 -9.11621 -6.02637zM291.566 275.701c6.59668 0 11.0801 4.74219 13.4521 14.2285c-11.9189 1.45801 -10.834 6.32129 -17.0771 6.32129
c-4.15234 0 -10.4629 -1.78711 -18.8838 -5.34375h-4.88867c13.6914 -13.6914 23.6562 -15.2061 27.3975 -15.2061zM184.317 310.789c-9.82617 8.1543 -9.82617 8.1543 -24.8799 38.8936l-11.9502 -7.93066c-9.28906 3.96484 -16.6221 10.9727 -21.9463 20.9678
c1.30371 14.6123 6.35645 25.2051 14.9932 31.832c1.30371 11.9502 3.31348 23.249 5.97559 33.8965c2.50195 0.758789 4.95801 1.13867 7.36719 1.13867c3.97168 0 7.81641 -1.03125 11.5361 -3.09473c0.652344 -11.9502 1.73828 -27.8662 3.04199 -47.8018
c25.9111 3.96484 48.835 17.5996 68.7705 40.8486l-10.9727 -42.9131c-24.9805 -34.7441 -51.0957 -25.3203 -51.0957 -33.4629c0 -5.26562 9.55078 -5.86719 9.55078 -25.2666c0 -2.22656 -0.130859 -4.5957 -0.390625 -7.10742zM570.214 336.754v298.114
c39.9844 6.14355 78.4482 9.21484 115.419 9.21484c34.9551 0 68.5752 -2.74609 100.888 -8.23633v-299.093h-216.307zM1134.13 506.562c-11.0479 0 -11.0479 4.41504 -11.0479 7.12207c0 16.4551 22.7607 32.6992 46.4482 32.6992
c1.91406 0 3.85449 -0.0927734 5.82422 -0.276367c-8.29199 -30.5537 -31.0176 -39.5449 -41.2246 -39.5449zM1103.27 554.365c-11.0547 0 -11.0547 4.41602 -11.0547 7.17383c0 16.8242 23.2471 31.7852 46.3008 31.7852c1.96582 0 3.95801 -0.0947266 5.97852 -0.283203
c-8.00195 -28.167 -30.2881 -38.6758 -41.2246 -38.6758zM1075.31 600.641c-2.86133 0 -11.8516 0.463867 -11.8516 6.28516c0 15.6055 21.5029 33.2168 46.3203 33.2168c1.90918 0 3.84766 -0.0927734 5.81738 -0.276367
c-7.93652 -29.2441 -29.71 -39.2256 -40.2861 -39.2256zM324.9 692.666h673.038c9.28906 0 13.9062 7.00781 13.9062 20.9678c0 13.9609 -4.61719 20.9678 -13.9062 20.9678h-180.454v148.515h180.454c9.28906 0 13.9062 7.00684 13.9062 20.9678
s-4.61719 20.9678 -13.9062 20.9678h-878.372v-41.9355c-0.00292969 -0.599609 -0.00488281 -1.19824 -0.00488281 -1.79492c0 -125.752 68.3936 -188.655 205.339 -188.655zM324.9 734.602c-0.69043 -0.00390625 -1.37988 -0.00585938 -2.06641 -0.00585938
c-104.982 0 -157.421 49.4883 -157.421 148.521h249.226v-148.515h-89.7383zM455.597 734.602v148.515h321.038v-148.515h-321.038z" />
</svg>
