<?xml version="1.0" standalone="no"?>
<!DOCTYPE svg PUBLIC "-//W3C//DTD SVG 1.1//EN" "http://www.w3.org/Graphics/SVG/1.1/DTD/svg11.dtd" >
<svg xmlns="http://www.w3.org/2000/svg" xmlns:xlink="http://www.w3.org/1999/xlink" version="1.1" viewBox="-10 0 1490 1000">
   <path fill="currentColor"
d="M1048.38 298.949c24.4141 0 27.4883 16.1318 27.4883 42.9395c0 5.61914 -0.21875 11.8311 -0.654297 18.6367h-12.2295v63.3789l42.3076 34.457c8.9043 -8.15918 43.4248 -43.9619 48.918 -52.3057c-37.4131 -9.37793 -72.3027 -54.248 -72.3027 -97.8359h58.917
c-3.30078 -5.63184 -4.94043 -11.7119 -4.94043 -18.2412c0 -3.76855 0.545898 -7.68652 1.63477 -11.7539c-21.1162 -7.7168 -20.8428 -56.6865 -36.6885 -56.6865c-0.908203 -0.151367 -1.83008 -0.227539 -2.76562 -0.227539
c-3.66406 0 -7.54883 1.16406 -11.6953 3.5332c0 -19.2949 6.65234 -30.7393 19.9971 -34.457c0.577148 -4.03809 2.24805 -6.03809 5.05078 -6.03809c0.810547 0 1.71582 0.167969 2.7168 0.500977c0 -0.401367 7.17871 -18.8027 33.3828 -22.3096
c-1.48633 -1.4873 -4.79199 -3.63574 -9.99805 -6.61133c-6.65234 5.9502 -16.3203 8.8418 -28.9209 8.8418c-27.8008 0 -30.1201 -30.5762 -30.1201 -37.0264c0 -8.57715 2.25098 -17.3584 6.73535 -26.3525c-8.13965 0 -12.8906 -2.14746 -14.3779 -6.61035
c2.00488 -10.0283 15.5391 -10.3877 15.7275 -10.3877c3.43066 0 6.20605 1.46387 16.499 1.46387c13.5537 0 14.8125 12.3486 14.8125 16.9375c0 17.6875 -16.3145 28.2207 -16.3145 39.6953c0 7.11816 7.35449 10.6885 13.4707 10.6885
c4.60352 0 9.86914 -1.7002 15.7949 -5.09961c-8.13867 -11.8574 -12.2295 -24.748 -12.2295 -38.8369c0 -27.041 22.4551 -63.4619 73.3779 -63.4619c43.7236 0 75.6074 31.9756 75.6074 63.4619c-1.42969 19.9531 -6.7041 27.1973 -6.7041 32.4639
c0 21.8887 25.1406 56.1191 40.0869 67.6025c5.93066 6.9248 8.91602 12.5234 8.91602 16.8076c0 2.13184 -0.739258 3.93848 -2.22266 5.4209c-39.291 -34.0859 -60.4033 -58.958 -63.3779 -74.5342c-5.94922 4.46289 -13.0146 7.4375 -21.1543 8.9248
c52.5596 15.5068 67.8408 60.9277 67.8408 142.292h53.3799c0 37.6006 -29.7021 94.7256 -90.0684 102.298c-10.7793 33.793 -74.7246 105.796 -75.6084 106.761l32.2266 24.459c2.21875 -2.21875 5.39355 -3.33008 9.52051 -3.33008
c18.3066 0 53.7725 19.4443 150.042 94.5547c46.3623 36.1748 69.5449 68.2529 69.5449 96.2627c0 3.56543 -0.375977 7.06445 -1.12695 10.498c-6.57715 2.34668 -13.6006 3.52051 -21.0703 3.52051c-27.9043 0 -62.0312 -16.3779 -102.381 -49.1328
c-103.713 -84.1924 -123.897 -110.34 -123.897 -124.453c0 -2.72559 0.892578 -4.98242 2.67676 -6.7666l-33.3008 -26.6904c-19.2939 18.5518 -38.5479 36.3174 -57.8418 53.3809l15.5342 11.0723c2.45312 -2.20605 5.79297 -3.30859 10.0137 -3.30859
c16.7461 0 46.7246 14.3096 149.549 94.5342c46.3633 36.1758 69.5449 67.9277 69.5449 95.3457c0 3.48926 -0.375 6.90918 -1.12598 10.2578c-6.59375 2.35254 -13.6357 3.5293 -21.125 3.5293c-27.8955 0 -62.0039 -16.3262 -102.327 -49.0596
c-107.733 -87.457 -123.897 -110.285 -123.897 -123.992c0 -2.83496 0.892578 -5.24414 2.67676 -7.22754l-17.7656 -14.46c-68.2129 58.5449 -147.126 97.8359 -236.823 117.833h299.127v81.2266h-920.766v-81.2266h312.513
c-106.76 -31.1523 -189.433 -75.9795 -247.978 -134.524c-89.9033 -89.9053 -137.488 -143.022 -148.985 -179.063c-61.748 -7.74512 -88.9941 -65.4844 -88.9941 -102.298h61.1475c-4.31445 -11.2969 -6.45703 -19.8555 -6.45703 -25.6914
c0 -2.21094 0.307617 -4.03027 0.920898 -5.46094c-22.7344 -7.61328 -22.3848 -55.5293 -36.6885 -55.5293c-1.05957 -0.151367 -2.11914 -0.227539 -3.17871 -0.227539c-4.14648 0 -8.29199 1.16406 -12.4385 3.5332c0 -19.9961 6.73438 -31.8955 20.0791 -35.6143
c0.517578 -3.61914 2.07324 -5.40137 4.72363 -5.40137c1.16113 0 2.53223 0.341797 4.11816 1.02148c-0.0839844 -0.166992 -0.125 -0.365234 -0.125 -0.59375c0 -0.405273 6.66211 -19.1992 33.5078 -22.79c-2.23145 -0.744141 -5.53613 -2.56152 -9.99805 -5.53711
c-6.65234 5.9502 -16.6504 8.8418 -29.9961 8.8418c-28.2197 0 -30.3691 -32.6904 -30.3691 -38.0166c0 -8.45703 1.99805 -16.917 5.98535 -25.3623c-8.13965 0 -12.9736 -2.14746 -14.4609 -6.61035c2.6748 -6.68457 9.30371 -11.1396 15.376 -11.1396
c4.22559 0 6.90234 2.21582 18.0078 2.21582c13.4971 0 14.8125 11.6631 14.8125 16.21c0 17.3125 -16.4531 28.7676 -16.4531 40.584c0 6.7627 7.27246 10.3389 13.2432 10.3389c4.78809 0 10.5 -1.99805 17.1611 -5.98535
c-8.88281 -11.1143 -13.3037 -23.6738 -13.3037 -37.7627c0 -27.0918 23.5068 -64.5352 74.4512 -64.5352c41.8789 0 75.6084 32.6191 75.6084 64.5352c-2.94336 20.5088 -7.85938 27.4932 -7.85938 32.2461c0 20.7607 26.1045 56.1914 41.2422 67.8203
c5.93066 6.9248 8.91602 12.5234 8.91602 16.8076c0 2.13184 -0.739258 3.93848 -2.22266 5.4209c-39.291 -34.8291 -60.8174 -60.0312 -64.5352 -75.6084c-5.9502 5.20605 -12.9326 8.51172 -21.0713 9.99902c59.8184 14.1201 67.7578 78.1191 67.7578 142.292h53.3799
c0 43.8086 -34.9014 88.4814 -72.2197 97.8359c16.4141 24.9189 148.181 174.4 271.28 207.984l36.6885 -384.733c-4.46191 0 -6.61035 -4.83398 -6.61035 -14.4609c0 -10.3701 1.81738 -15.5352 5.53613 -15.5352c0 -13.3447 -11.1553 -28.2188 -33.3828 -44.5381v-26.6904
c-5.55664 0.744141 -10.4219 1.11523 -14.5947 1.11523c-12.084 0 -26.5566 0 -26.5566 -52.2646c0 -5.20508 2.23145 -8.84082 6.69336 -11.0723c-8.13965 0 -12.2295 -2.64453 -12.2295 -7.84961c0 -13.3037 15.0439 -13.3037 24.459 -13.3037
c6.65234 0 11.8164 2.56152 15.5352 7.7666c9.62598 6.65234 14.46 12.9736 14.46 18.9238c0 15.834 -14.9316 33.9746 -14.9316 41.4688c0 2.98633 9.28418 2.98633 17.1631 2.98633c-1.31152 -7.60938 -1.9668 -14.584 -1.9668 -20.9229
c0 -31.6592 16.3496 -47.4844 49.041 -47.4844c16.2461 0 36.5273 3.90723 60.8428 11.7227l232.361 68.9141v26.6904c-21.4844 16.3193 -32.2275 31.1934 -32.2275 44.5381c3.71875 0 5.53711 5.16504 5.53711 15.5352c0 9.62695 -2.23145 14.4609 -6.69336 14.4609
l36.6885 389.195c23.7148 -8.13867 44.8281 -17.0635 63.3779 -26.6904v-106.761l-29.9941 -24.458l-7.76855 9.99805c-7.39551 -5.94922 -11.1543 -11.4854 -11.1543 -16.6914c0 -4.55469 -2.81641 -6.83301 -8.47559 -6.83301c-2.47852 0 -2.47852 0 -9.29004 7.99023
c-2.96289 -2.46875 -4.43262 -5.08301 -4.43262 -7.86719c0 -1.41016 0.376953 -2.8623 1.12695 -4.3623c-1.5918 -3.18457 -2.3916 -6.36914 -2.3916 -9.55371c0 -15.1172 18.3232 -25.7021 24.5078 -25.7021c9.3584 0 23.4629 9.14355 42.3369 27.4053l-6.69434 6.69336
l12.2295 9.99902v-92.2998h-16.6084c0 -20.9521 8.03027 -18.8809 8.03027 -23.1045c0 -2.51172 -3.08008 -5.54395 -9.18652 -9.12305l-9.99902 -1.07324c0 -5.20605 2.56152 -8.18164 7.76758 -8.9248c10.3242 -16.7041 18.2812 -18.1318 23.8301 -18.1318
c26.666 0 27.9648 21.8506 27.9648 43.4434c0 5.46387 -0.21582 11.4873 -0.646484 18.0703h-12.2285v106.761l77.8389 61.1475c5.94922 -4.46289 11.1553 -8.92383 15.6172 -13.3867v-73.377l-35.6143 -28.9209l-8.9248 9.99805
c-7.39551 -5.94922 -11.0723 -11.4863 -11.0723 -16.6914c0 -4.03809 -2.26172 -6.03711 -6.72754 -6.03711c-3.92676 0 -3.92676 0 -11.1211 7.19336c-2.96191 -2.46777 -4.43164 -5.08203 -4.43164 -7.86621c0 -1.41016 0.376953 -2.86328 1.12695 -4.36328
c-1.5918 -3.18457 -2.3916 -6.30957 -2.3916 -9.38184c0 -14.0225 18.5156 -25.4746 24.874 -25.4746c9.37891 0 23.4189 9.05957 42.0527 27.0898l-6.69336 6.61035l18.9229 15.6172v-51.1494h-16.6924c0 -19.5283 8.03027 -18.6436 8.03027 -22.7881
c0 -2.52148 -3.08008 -5.2959 -9.18652 -8.36426l-9.99805 -1.07324c0 -5.9502 2.56152 -9.33789 7.7666 -10.0811c10.4854 -15.6553 18.6436 -17.0381 24.3154 -17.0381zM491.668 117.81c0.474609 0 19.8291 -35.6953 19.8291 -43.1074
c0 -18.1523 -18.1611 -24.459 -23.3848 -24.459c-2.18945 0 -3.9248 0.578125 -5.4541 1.4873c0.579102 -0.165039 1.11523 -0.331055 2.14844 -0.331055c0.762695 -0.253906 1.41406 -0.382812 1.95605 -0.382812c1.92676 0 1.99609 1.72754 1.99609 1.97754
c0 2.3877 -4.82812 2.40332 -4.88184 2.40332c-1.64551 0 -2.45801 -0.582031 -2.45801 -1.7666c-0.0859375 -0.171875 -0.121094 -0.329102 -0.121094 -0.473633c0 -0.342773 0.195312 -0.616211 0.369141 -0.848633c-1.61133 1.28125 -2.80957 3.13965 -3.55273 5.70215
h4.46191c1.4873 0 6.65137 -0.331055 15.5342 -1.07422l1.15723 4.46191c-10.418 6.04492 -13.3867 7.76758 -13.3867 15.5342c1.18848 37.8857 3.41309 40.877 5.78711 40.877zM105.609 108.085c0 18.5264 14.9756 52.3066 55.6113 52.3066
c39.1016 0 56.6855 -30.6104 56.6855 -51.1494c0 -28.5303 -30.1855 -51.2314 -55.6113 -51.2314c-38.9473 0 -56.6855 29.165 -56.6855 50.0742zM1135.28 109.242c0 19.0742 17.8818 51.1494 55.6113 51.1494c44.7803 0 56.9473 -34.9121 57.8428 -50.0752
c0 -31.1309 -31.8379 -50.9902 -56.7676 -52.3057c-37.835 0 -55.5107 31.3213 -56.6865 51.2314zM541.802 106.299c0 6.49512 0.640625 13.7559 1.92188 21.7832h262.438l-196.829 -56.6846c-12.7734 -4.33887 -23.79 -6.45117 -32.9346 -6.45117
c-28.1992 0 -34.5967 20.7412 -34.5967 41.3525zM79.752 102.148c0 -13.0283 -24.1348 -13.8379 -24.415 -13.8379c-4.35059 0 -7.03516 3.01172 -8.57031 5.31445c0.542969 2.16895 2.55762 3.26172 6.05957 3.26172c3.77637 0 6.55859 -1.19531 12.5342 -1.19531
c3.25781 0 6.33984 0.40625 9.25391 1.23828c-14.8438 3.72461 -18.3555 19.9736 -18.3555 34.5176c0 18.5371 10.0137 27.7871 28.1973 27.7871c-13.6699 -3.55859 -21.5059 -9.28027 -21.5059 -17.1641c0 -10.8535 16.8018 -27.0713 16.8018 -39.9219zM1110.91 101.55
c0 -12.1211 -21.3271 -12.542 -24.2881 -12.542c-1.89062 0 -5.62793 0.450195 -9.17676 5.77344c0.979492 1.95801 3.01465 2.91406 6.09473 2.91406c4.35449 0 7.15234 -1.64355 12.667 -1.64355c3.36426 0 6.38379 0.68457 9.08496 2.03516
c-11.8574 2.97461 -17.8477 13.8818 -17.8477 32.8047s8.88184 28.3428 26.6895 28.3428c-13.6699 -3.0498 -20.5059 -8.51465 -20.5059 -16.4053c0 -10.8994 17.2822 -28.5576 17.2822 -41.2793zM57.0654 92.6592c0 -0.870117 -2.4834 -1.54492 -3.73438 -1.54492
c-1.89355 0 -2.70605 1.10059 -3.17578 2.51074c0.427734 0.855469 1.14258 1.28711 2.16797 1.28711c1.55566 0 4.74219 -1.2959 4.74219 -2.25293zM1088.9 92.6592c0 -0.856445 -2.4248 -1.54492 -3.78027 -1.54492c-2.29004 0 -3.57324 1.44043 -4.28613 2.51074
c0.855469 0.855469 1.88867 1.28711 3.10742 1.28711c1.93652 0 4.95898 -1.33398 4.95898 -2.25293zM540.418 139.237v7.76758h300.201v-7.76758h-300.201zM540.418 154.772c17.8076 11.1143 26.6904 25.9883 26.6904 44.5381h246.821
c0 -18.5498 8.88281 -33.4238 26.6895 -44.5381h-300.201zM128.994 174.77c-32.2588 0 -30.4951 10.4355 -42.3076 13.3857c-0.743164 3.71875 -3.30469 5.53613 -7.7666 5.53613c0 3.71875 2.97461 8.51172 8.92383 14.4609
c-2.8252 -0.948242 -5.18848 -1.41895 -7.08594 -1.41895c-2.57031 0 -4.28809 0.864258 -5.14355 2.5752c-1.4873 -1.18945 -2.73633 -1.78418 -3.74805 -1.78418c-1.51758 0 -2.49902 1.33789 -2.94531 4.01562h5.53613
c0.399414 -0.0263672 0.796875 -0.0400391 1.19238 -0.0400391c10.5908 0 19.5244 9.60156 26.6543 28.8789c2.17969 17.3672 6.04395 25.8057 14.1807 25.8057c1.78711 0 3.72559 -0.450195 5.81738 -1.34668c0 -22.5215 -9.30566 -26.5117 -12.2295 -27.7646
c28.3252 -4.84961 42.4541 -15.29 42.4541 -31.3916c0 -1.6416 -0.325195 -30.9121 -23.5322 -30.9121zM1116.36 189.229c0 3.09863 -1.49121 4.64844 -4.57031 4.64844c-0.616211 0 -1.2959 -0.0625 -2.04004 -0.186523c0 4.46289 2.89258 9.25488 8.8418 14.4609
c-3.14062 -0.948242 -5.68555 -1.41895 -7.63086 -1.41895c-2.63477 0 -4.1709 0.864258 -4.59863 2.5752c-1.4873 -1.18945 -2.78906 -1.78418 -3.91211 -1.78418c-1.68359 0 -2.96289 1.33789 -3.85547 4.01562h5.53613c11.1143 0 20.7822 9.54395 28.9219 28.8389
c0.75 12.7236 2.99316 25.9102 13.3584 25.9102c1.78223 0 3.63477 -0.486328 5.56445 -1.45117c0 -9.21875 -1.68359 -23.0264 -11.1553 -27.7646c28.335 -4.85156 42.5361 -15.1191 42.5361 -30.9033c0 -2.50293 -0.544922 -30.2441 -24.6885 -30.2441
c-31.0674 0 -29.0518 10.6514 -42.3076 13.3037zM128.994 308.22h112.297c0 -57.8428 -8.88281 -94.0771 -26.6895 -108.909c-17.8076 -14.832 -35.2432 -22.3105 -52.3066 -22.3105c4.46387 9.87012 6.69629 18.9219 6.69629 27.1562
c0 17.7568 -10.3809 31.708 -31.1553 41.8418c1.69922 7.45898 2.55371 13.6309 2.55371 18.5264c0 17.751 -9.69824 4.7793 -11.3955 43.6953zM1153.05 308.22h118.989c0 -57.8428 -9.00684 -93.9531 -27.1855 -108.413
c-18.1797 -14.4609 -35.8203 -21.6494 -52.8838 -21.6494c4.87207 9.9873 7.30957 19.1328 7.30957 27.4375c0 16.9785 -10.1914 30.4424 -30.6123 40.4033c1.03809 5.9541 1.55762 11.1738 1.55762 15.668c0 23.1201 -11.6484 11.6484 -17.1748 46.5537zM121.682 183.414
c7.83984 0 26.2891 0 26.2891 21.9746c0 11.1191 -10.7871 19.4033 -32.3633 24.9912v-1.07324c14.9541 -4.77051 22.415 -11.2744 22.415 -19.4502c0 -0.182617 -0.287109 -14.6914 -10.8291 -14.6914c-18.5576 0 -18.5576 18.6816 -18.5576 24.6514
c0 2.24609 0.0927734 4.66602 0.279297 7.25879l-2.23145 2.23145c-2.23047 -7.39551 -5.12305 -12.9736 -8.84082 -16.6924c1.11523 -1.11523 1.67285 -2.23047 1.67285 -3.34668c0 -1.11523 -0.557617 -2.23047 -1.67285 -3.34668
c-2.23145 0 -4.13184 -1.07324 -5.61914 -3.30469c-0.744141 0.37207 -1.28125 0.557617 -1.63281 0.557617s-0.516602 -0.185547 -0.516602 -0.557617c0 -2.23145 0.661133 -3.71875 2.14941 -4.46191c0 -14.7402 20.3936 -14.7402 29.458 -14.7402zM1178.8 205.324
c0 11.2031 -11.1943 19.9531 -33.5146 26.2129v-2.23047c15.2754 -4.87305 22.9141 -11.5547 22.9141 -19.9795c0 -0.506836 -0.09375 -14.1621 -10.1787 -14.1621c-16.6914 0 -19.6729 15.4658 -19.6729 26.5176c0 2.02832 0.0810547 4.18359 0.245117 6.4668
l-2.14844 1.15723c-1.4873 -6.65234 -4.46191 -12.2295 -8.92383 -16.6924c1.11523 -1.11523 1.67383 -2.23047 1.67383 -3.34668c0 -1.11523 -0.558594 -2.23047 -1.67383 -3.34668c-1.48828 0 -2.97461 -0.743164 -4.46289 -2.23047
c-1.4873 0 -2.23047 -0.331055 -2.23047 -1.07422c0 -1.4873 0.413086 -2.97461 1.15625 -4.46191c0 -13.1953 21.4492 -14.6885 31.1582 -14.6885c6.5498 0 25.6582 0 25.6582 21.8584zM102.304 189.229c-5.20508 0 -7.84863 2.97559 -7.84863 8.9248
c0 4.46191 2.64355 6.69336 7.84863 6.69336c5.9502 0 8.84277 -2.23145 8.84277 -6.69336c0 -5.94922 -2.89258 -8.9248 -8.84277 -8.9248zM1133.05 190.387c-5.20605 0 -7.76758 2.56152 -7.76758 7.76758c0 4.46191 2.56152 6.69336 7.76758 6.69336
c5.94922 0 8.92383 -2.23145 8.92383 -6.69336c0 -5.20605 -2.97461 -7.76758 -8.92383 -7.76758zM102.304 192.618c3.71875 0 5.53711 1.81738 5.53711 5.53613c0 2.23047 -1.81836 3.30566 -5.53711 3.30566c-2.97461 0 -4.46094 -1.0752 -4.46094 -3.30566
c0 -3.71875 1.48633 -5.53613 4.46094 -5.53613zM1133.05 192.618c2.97461 0 4.46191 1.81738 4.46191 5.53613c0 2.97461 -1.4873 4.46191 -4.46191 4.46191c-3.71875 0 -5.53613 -1.4873 -5.53613 -4.46191c0 -3.71875 1.81738 -5.53613 5.53613 -5.53613zM558.185 211.54
v5.53711h264.669v-5.53711h-264.669zM574.876 229.307l-36.6895 395.889l49.9922 12.2295l32.3096 -372.587h140.061l32.2266 372.587l51.1494 -12.2295l-37.7627 -395.889h-231.286zM639.328 284.918l-27.7637 355.812c26.2422 4.62402 53.0889 6.93066 80.541 6.93066
c25.2764 0 51.0654 -1.95508 77.3682 -5.85742l-28.9209 -356.886h-101.225zM275.748 333.836h-185.674c10.0586 50.1582 71.4736 54.4541 92.2178 54.4541c19.2285 0 83.3125 -3.8418 93.4561 -54.4541zM1119.75 333.836c11.9688 49.7471 71.332 54.4541 93.374 54.4541
c20.2363 0 82.2197 -4.16113 92.2998 -54.4541h-185.674zM174.524 412.749c4.46191 9.62695 13.3447 21.8564 26.6904 36.6885c133.45 174.931 297.268 262.438 491.494 262.438c200.878 0 368.042 -87.5078 501.492 -262.438
c13.3447 -14.832 22.2275 -27.0615 26.6904 -36.6885h-32.2266l-15.5352 17.8486c-143.077 167.536 -303.259 251.283 -480.421 251.283c-251.642 0 -408.606 -180.352 -485.875 -269.132h-32.3096zM1062.98 456.131v42.2246
c2.97559 -2.23145 11.1143 -9.62695 24.46 -22.2285zM950.686 499.512v81.1445c15.5752 -7.39551 34.127 -19.2109 55.6113 -35.5312zM1370.52 686.544c-5.42871 0 -12.7305 -5.31836 -162.928 -114.729c-0.297852 0.397461 -0.447266 0.90332 -0.447266 1.5166
c0 12.9512 48.1016 54.4463 109.934 102.434c42.7822 33.2021 75.623 49.8369 98.4902 49.8369c1.88867 0 3.70898 -0.114258 5.46094 -0.34082c-1.4873 -21.4844 -24.7891 -50.6533 -69.9893 -87.3418c-49.8906 -40.4961 -109.03 -85.582 -124.99 -85.582
c-0.821289 0 -1.40625 0.192383 -1.7666 0.553711c114.046 97.6445 147.033 125.887 147.033 132.818c0 0.345703 -0.201172 0.833984 -0.796875 0.833984zM1134.89 610.872c-1.31641 0 -2.27734 0.303711 -2.91016 0.936523
c138.617 118.68 147.988 126.703 147.988 131.853c0 0.1875 -0.0537109 0.334961 -0.160156 0.441406v1.15723c-0.133789 0.133789 -0.349609 0.201172 -0.647461 0.201172c-7.54102 0 -40.877 -24.7119 -163.872 -115.887
c-0.297852 0.49707 -0.447266 1.0957 -0.447266 1.79688c0 18.5293 82.9219 81.71 110.512 102.732c43.0889 32.8311 75.8301 49.2627 98.0957 49.2627c1.86035 0 3.64648 -0.114258 5.36035 -0.34375c-0.744141 -20.7412 -23.7988 -49.6211 -68.998 -86.6816
c-68.6152 -56.2607 -110.265 -85.4688 -124.921 -85.4688zM260.131 753.026v22.2275h854v-22.2275h-854z" />
</svg>
