<?xml version="1.0" standalone="no"?>
<!DOCTYPE svg PUBLIC "-//W3C//DTD SVG 1.1//EN" "http://www.w3.org/Graphics/SVG/1.1/DTD/svg11.dtd" >
<svg xmlns="http://www.w3.org/2000/svg" xmlns:xlink="http://www.w3.org/1999/xlink" version="1.1" viewBox="-10 0 1221 1000">
   <path fill="currentColor"
d="M894.981 434.098c0 47.0459 22.749 21.4932 22.749 104.622c0 16.6084 -1.24609 36.5596 -1.24609 36.9287c0 23.2939 7.49219 28.4697 7.49219 41.0449c0 5.49219 -1.96191 9.12207 -5.85449 10.8965h7.06152c20.8594 -7.3877 46.0645 -19.0674 75.6152 -35.2002
c-51.0625 -34.2773 -80.2871 -93.1064 -87.6748 -176.436l131.022 -63.5557c11.7285 -8.80566 17.5723 -26.0811 17.5723 -51.9082c0 -9.7002 -0.824219 -20.6064 -2.4707 -32.7236c5.77051 -1.18945 11.3828 -1.78418 16.835 -1.78418
c61.75 0 95.3613 82.2041 95.3613 117.182c0 20.3779 -7.81152 37.999 -23.4355 52.8887c-27.3184 -24.5234 -50.2598 -36.7383 -68.793 -36.7383c-3.79883 0 -7.41309 0.512695 -10.8418 1.53906l-70.6172 46.2812c0 49.0518 50.4102 97.5605 151.229 145.255
c-129.013 89.3584 -253.027 145.417 -371.991 168.286h223.804v43.3486h-92.6719v76.5928h93.7578v44.4346h-797.434v-44.4346h94.7354v-76.5928h-94.7354v-43.3486h231.843c-110.218 -16.7852 -234.831 -72.8447 -373.947 -168.286
c100.824 -47.3896 151.236 -95.584 151.236 -144.316c0 -0.3125 -0.00195312 -0.625977 -0.00585938 -0.938477l-70.6182 -46.2812c-3.42871 -1.02637 -7.04199 -1.53906 -10.8418 -1.53906c-18.5332 0 -41.4746 12.2148 -68.793 36.7383
c-15.5439 -14.8135 -23.3242 -32.3301 -23.3242 -52.5752c0 -35.6992 34.8447 -117.495 95.5215 -117.495c5.37598 0 10.8975 0.594727 16.5635 1.78418c-1.64648 12.1162 -2.4707 23.0225 -2.4707 32.7217c0 25.8281 5.84375 43.1035 17.5723 51.9102l131.022 63.5557
c-7.3877 83.3291 -36.6123 142.158 -87.6738 176.436c28.2471 16.1328 52.4199 27.8125 72.5723 35.2002h45.3047c-4.8252 -1.59766 -7.24414 -4.89746 -7.24414 -9.89941c0 -6.23633 5.52344 -14.8281 5.52344 -32.127c0 -0.09375 -6.52734 -60.8066 -6.52734 -115.858
c0 -10.0176 1.15527 -41.7627 1.15527 -42.1846c0 -59.0732 -16.4062 -108.897 -16.4062 -131.65c0 -19.5146 12.0664 -34.6533 13.5039 -61.3486l-2.06445 -23.249l-12.0596 -27.1611h-8.14844c-0.651367 4.02051 -8.03906 24.1191 -22.1621 60.4053
c3.07031 8.56836 4.60547 19.3945 4.60547 32.4365c0 0.102539 -0.112305 8.62793 -0.112305 10.2051c0 12.8428 0.844727 26.1992 2.56836 40.0352c18.3896 16.8994 11.2461 23.7539 18.1426 35.3086c0.893555 1.75 1.31641 3.38281 1.31641 4.86719
c0 2.47266 -0.696289 2.47266 -1.4834 2.47266c-4.38379 0 -6.78223 -11.3301 -10.9141 -17.4434c0 -0.892578 -0.352539 -1.31641 -1.07227 -1.31641c-0.535156 0 -3.92578 0.65625 -3.92578 3.38086c4.07422 24.1094 15.4404 28.4824 15.4404 35.0068
c0 0.829102 -0.412109 1.8916 -2.52441 1.8916c-0.566406 0 -0.856445 -0.194336 -0.856445 -0.612305c0 0.652344 -0.326172 1.30371 -0.977539 1.95605c-1.3584 0 -2.06445 -0.326172 -2.06445 -0.977539c0 0.651367 -0.326172 1.41211 -0.977539 2.06348
c-1.3584 0 -2.06445 -0.706055 -2.06445 -2.06348c-0.651367 2.00977 -2.00977 3.04199 -4.01953 3.04199c-1.75879 0 -19.459 -24.6885 -19.459 -38.2656c0 -1.16992 0.115234 -2.21582 0.337891 -3.12793c-0.222656 -2.53027 -0.337891 -4.94043 -0.337891 -7.23047
c0 -4.39648 0.422852 -8.35449 1.31543 -11.8906c-10.1348 -32.9131 -15.1572 -60.7607 -15.1572 -83.5459c0 -8.24707 10.1172 -67.6738 18.1992 -87.3477c5.37793 -13.0918 13.7979 -20.5879 25.2051 -22.5977c0 -47.8906 6.15527 -93.9043 28.2471 -104.84
l-2.06445 -8.14844h-2.93262c-1.00488 -0.678711 -1.50684 -1.34375 -1.50684 -2.00977c0 -0.665039 0.501953 -1.33008 1.50684 -2.00977h5.97461c-32.542 -13.8398 -22.1211 -50.7549 -41.2842 -78.5488c-6.0293 -8.74512 -10.1572 -15.4814 -12.167 -20.207
c19.4463 8.27051 32.2051 37.5752 40.0889 64.751c-0.489258 -2.60742 -0.760742 -5.32324 -0.760742 -8.25684c0 -13.5117 7.11523 -42.3711 43.3486 -42.3711c32.5088 0 42.3701 25.6787 42.3701 42.3711c0 4.67578 -0.424805 8.92773 -1.24902 12.8047
c7.05566 -27.8135 19.7305 -60.0186 41.5557 -69.2988c-7.36133 17.2998 -18.5693 21.4941 -26.1836 56.4941c-2.42188 11.1338 -7.25 33.334 -28.2471 42.2617h7.0625c1.33008 0.679688 1.99609 1.34473 1.99609 2.00977c0 0.666016 -0.666016 1.33105 -1.99609 2.00977
h-3.04199l-1.95605 7.06152c21.5742 13.2666 14.5088 40.1133 28.1387 59.5361c0.108398 0.558594 0.162109 1.06055 0.162109 1.50586c0 1.79492 -0.880859 2.67676 -2.6748 2.67676c-0.446289 0 -0.948242 -0.0546875 -1.50684 -0.163086
c-1.0791 0.729492 -1.61035 1.37988 -1.61035 1.98633c0 1.29492 1.99707 1.44238 1.99707 2.65625c0 0.911133 -1.16016 2.04297 -3.42871 3.39746c0.765625 1.53125 1.15234 2.77832 1.15234 3.73535c0 1.55762 -1.02344 2.34863 -3.1084 2.34863
c0.185547 0.385742 0.27832 0.849609 0.27832 1.39453c0 0.131836 -0.694336 9.84961 -8.76465 9.84961c-2.18262 0 -6.78906 -1.14062 -14.6543 -1.14062c-1.3584 4.72559 -4.12891 9.39746 -8.14844 14.124h18.1436c19.501 2.66113 31.9951 13.7432 37.373 33.2441
c12.1133 13.417 22.8691 28.1924 32.2666 44.3262c17.4912 -6.73633 35.9062 -12.4395 55.4072 -17.166c8.74609 -4.72559 16.8398 -7.06152 24.2275 -7.06152v-52.3652c-10.7559 -12.7656 -18.5234 -27.2148 -23.249 -43.3486
c-2.9209 1.93359 -5.2959 2.92188 -7.14746 2.92188c-0.956055 0 -3.02246 -0.262695 -3.02246 -2.53027c0 -0.473633 5.80469 -24.6182 40.4805 -24.6182c31.0879 0 41.4248 20.5088 41.4248 24.6934c0 0.813477 -0.331055 2.45508 -3.00879 2.45508
c-1.88281 0 -4.31543 -0.988281 -7.23535 -2.92188c-4.72656 16.1338 -12.3857 30.583 -23.1406 43.3486v48.3457l16.0791 3.04199c-1.3584 3.36816 -4.72656 6.73535 -10.1045 10.1035c1.54688 1.54688 2.3418 3.62598 2.3418 6.21484
c0 4.65234 -3.53516 14.7783 -8.31641 15.9482v406.214h83.6543c0 -10.7559 5.32324 -16.5684 16.0791 -17.6006c15.875 -1.52344 65.4805 -18.2607 71.5947 -44.8691c0.418945 -0.945312 22.0635 -53.6641 22.0635 -101.027
c0 -5.2041 -0.583984 -5.33984 -0.583984 -8.56543c0 -5.85254 2.25586 -12.9531 6.76758 -21.4297c30.2031 -161.142 30.2031 -161.142 30.2031 -196.643c0 -22.8691 -6.03027 -51.7676 -18.1436 -86.6963c-15.1289 1.33105 -30.1758 1.99609 -45.1338 1.99609
c-14.959 0 -29.8291 -0.665039 -44.6045 -1.99609c-13.418 -24.1729 -25.0967 -55.0273 -35.2002 -92.6719c-24.999 -9.34277 -21.835 -20.877 -33.2451 -28.79c-2.83301 -1.96582 -4.2832 -3.58496 -4.2832 -4.85742c0 -0.0380859 0.27832 -2.71582 2.65332 -2.71582
c2.53125 0 2.53125 0 16.7314 14.2002h3.04199c0.208008 -0.208008 0.310547 -0.487305 0.310547 -0.835938c0 -9.09668 -34.1953 -27.7578 -34.1953 -30.9971c0 -0.570312 0.679688 -1.52051 1.61816 -1.52051c-0.458984 -0.899414 -0.688477 -1.59961 -0.688477 -2.1084
c0 -0.688477 0.420898 -1.02539 1.26172 -1.02539c0.376953 0 0.837891 0.0673828 1.38281 0.201172c-0.386719 -0.758789 -0.580078 -1.41211 -0.580078 -1.95703c0 -1.36914 1.21387 -2.06348 3.62207 -2.06348c-0.326172 -1.00488 -0.489258 -1.76562 -0.489258 -2.27441
c0 -0.509766 0.163086 -0.767578 0.489258 -0.767578c0.678711 -0.325195 1.34375 -0.488281 2.00977 -0.488281c0.368164 0 26.1855 13.2217 31.2344 19.6094c5.93555 5.93555 8.27539 10.5957 24.2275 42.3711c13.417 17.4912 22.4346 31.5059 27.1602 42.2617
l-2.93359 -50.4102c-22.6846 -14.5537 -16.7549 -25.4971 -26.7256 -34.2227c-2.09473 -1.83301 -3.13379 -3.38281 -3.13379 -4.61328c0 -0.219727 0.819336 -3.26953 2.54492 -3.26953c6.26855 0 10.1816 17.3887 15.4658 17.3887
c0.509766 0 0.767578 -0.163086 0.767578 -0.488281c0.678711 0 1.01758 -0.339844 1.01758 -1.01172c0 -11.2295 -28.625 -31.457 -28.625 -35.4844c0 -1.05859 0.738281 -2.13379 1.92676 -2.13379c0.431641 0 0.916992 0.130859 1.45312 0.387695
c-0.458984 -0.899414 -0.688477 -1.6123 -0.688477 -2.1377c0 -0.727539 0.44043 -1.09375 1.32129 -1.09375c0.365234 0 0.806641 0.0634766 1.32324 0.189453c-0.330078 -0.647461 -0.494141 -1.19824 -0.494141 -1.65234c0 -1.0498 0.874023 -1.5791 2.57129 -1.5791
c0.585938 0 1.27051 0.0634766 2.05078 0.189453c-0.222656 -0.688477 -0.337891 -1.26172 -0.337891 -1.71875c0 -0.876953 0.422852 -1.32324 1.31543 -1.32324c3.76172 0 4.31934 4.51953 17.166 14.124c12.8428 9.59863 14.9619 14.6104 27.1602 57.4717
c11.4072 25.5303 18.7949 50.7354 22.1631 75.6143h32.2666c6.73633 -4.01953 11.7334 -6.08398 15.1016 -6.08398c0 -8.74512 6.46387 -17.165 19.2295 -25.2051c-6.73535 -17.4912 -13.2002 -26.1826 -19.2295 -26.1826
c-0.263672 -0.125977 -0.625 -0.189453 -1.08691 -0.189453c-1.91504 0 -5.54395 1.08691 -10.9727 3.23145c0 -16.1328 4.99805 -25.8564 15.1016 -29.2246c0 -1.60449 0.520508 -5.48633 5.56152 -5.48633c0.671875 0 1.17383 0.163086 1.5 0.489258
c-0.0605469 -0.126953 -0.0917969 -0.268555 -0.0917969 -0.425781c0 -1.5166 2.86426 -4.41699 8.6748 -8.7002c6.41016 -4.72656 24.0098 -7.3877 52.9092 -8.04004c12.7646 0 27.2148 7.98535 43.3477 24.1191c16.1338 16.1328 24.2275 58.5576 24.2275 127.111h-10.1035
c-10.7559 23.5205 -16.5137 46.6611 -17.166 69.5312c0.455078 -0.307617 0.859375 -0.461914 1.21387 -0.461914c1.20996 0 1.82812 1.80273 1.82812 5.45898v23.249c5.37793 13.418 8.04004 27.1611 8.04004 41.2842c2.66113 73.9316 4.72559 116.954 6.08398 129.067z
M320.372 -18.5059c-0.0576172 0.829102 -0.0859375 1.64551 -0.0859375 2.4502c0 17.6025 15.249 30.7939 33.3311 30.7939c19.0039 0 33.2441 -14.2373 33.2441 -33.2441c0 -17.5107 -11.5918 -33.3535 -33.2441 -33.3535c-32.127 0 -33.2451 29.2764 -33.2451 33.3535z
M837.51 24.8418c5.3291 8.58008 7.99805 16.9492 7.99805 25.1221c0 10.4043 -4.3252 20.4902 -12.9961 30.2861v68.5527l59.4277 -0.977539c0 -56.4395 -7.0625 -90.8789 -21.1855 -103.318c-14.124 -12.4395 -25.2051 -19.0127 -33.2441 -19.665zM327.434 27.7754
l0.978516 6.08398c7.3877 -4.01953 17.1104 -5.08398 29.2246 -5.08398c8.74512 0 16.2422 0.466797 22.2715 3.12891v-4.12891h-52.4746zM777.901 36.0967c-0.364258 0 -0.666992 -0.0576172 -0.90625 -0.172852c-0.517578 2.11719 -1.68945 3.13477 -3.48535 3.13477
c-0.462891 0 -0.966797 -0.0673828 -1.51172 -0.201172c0 4.72559 2.33594 9.39746 7.06152 14.123c-1.97949 -0.841797 -3.7207 -1.25488 -5.22363 -1.25488c-2.08496 0 -3.71191 0.794922 -4.87988 2.3418c-1.01367 -0.765625 -1.83887 -1.15332 -2.47168 -1.15332
c-1.02734 0 -1.54785 1.02344 -1.54785 3.1084h3.04199c22.6621 0 22.8711 50.0928 40.1201 50.0928c1.05566 0 2.12988 -0.217773 3.22754 -0.660156c0 -8.20703 -4.90039 -20.5938 -14.123 -25.2051c22.6055 -5.0293 33.9521 -14.1436 33.9521 -27.3877
c0 -1.64453 -0.325195 -25.0869 -18.8506 -25.0869c-26.5527 0 -27.5664 8.32129 -34.4033 8.32129zM823.532 50.542c0 10.7871 -8.13867 18.6328 -24.374 23.624v-0.977539c18.9365 -8.92676 19.0742 -14.3711 19.0742 -17.8359
c0 -6.63672 -6.35156 -13.4531 -14.5107 -13.4531c-11.5166 0 -11.5166 14.915 -11.5166 28.2471c0 0.651367 -0.706055 0.977539 -2.06348 0.977539c-2.00977 -8.74609 -4.07422 -14.0693 -6.08398 -16.0791c1.11914 -2.33301 1.5752 -4.51172 1.5752 -5.12988
c0 -1.5293 -1.16406 -3.18652 -3.53125 -4.97363c0 -6.73633 2.33594 -10.1045 7.06152 -10.1045c2.66211 0 4.61816 1.3584 5.97559 4.02051c0.458984 -0.899414 0.688477 -1.71777 0.688477 -2.45996c0 -1.45508 -0.881836 -2.61621 -2.64355 -3.51562
c2.80078 -0.290039 5.41113 -0.446289 7.81934 -0.446289c18.5078 0 22.5293 9.6875 22.5293 18.1064zM789.163 36.9014c-3.36719 0 -5.10547 2.06445 -5.10547 6.08398c0.651367 2.66211 2.44434 4.01953 5.10547 4.01953c3.36816 0 4.99805 -1.73828 4.99805 -5.10547
c0 -3.36816 -1.62988 -4.99805 -4.99805 -4.99805zM381.869 56.6475c2.73438 0 5.77539 0.154297 9.12012 0.461914c-3.36719 -12.7656 -14.5576 -19.2305 -33.3525 -19.2305c-18.1436 0 -31.1807 4.72656 -39.2197 14.124
c-10.7559 20.8594 -16.1885 53.7236 -16.1885 98.7559v25.2051h41.2842v-76.5928c-6.0293 -7.3877 -9.0166 -13.7432 -9.0166 -19.1211c0 -12.7656 4.39941 -19.1211 13.1455 -19.1211c6.0293 0 9.01758 2.66113 9.01758 8.03906c9.30176 0 1.31445 -12.5205 25.21 -12.5205
zM789.163 38.8574c2.01074 0 3.04199 1.03223 3.04199 3.04199s-1.03125 3.04199 -3.04199 3.04199c-2.00977 0 -3.04199 -1.03223 -3.04199 -3.04199s1.03223 -3.04199 3.04199 -3.04199zM362.742 136.744c12.3428 -14.5098 7.01562 -21.6133 17.4736 -21.6133
c5.85449 0 8.53613 1.25 11.5566 1.25c4.69434 0 5.32031 -2.98242 5.32031 -4.57324c0 -5.12012 -7.82617 -5.10645 -7.82617 -6.81738c0 -1.03613 2.93457 -2.21094 8.78516 -3.55566l0.977539 1.95605v-4.01953c-0.787109 -0.787109 -1.19043 -1.55469 -1.19043 -2.32617
c0 -1.05566 1.03223 -3.00977 3.31641 -3.00977c1.35254 0 2.21777 0.573242 3.05469 0.573242c0.424805 0 0.637695 -0.169922 0.637695 -0.507812c0 -0.382812 -0.273438 -0.981445 -0.821289 -1.79199l-7.06152 -17.0566
c-0.773438 -1.63184 -1.92383 -4.06055 -9.2959 -4.06055c-3.18457 0 -6.7832 0.666016 -10.8027 1.99707h-10.1035v-2.06445c27.2598 -2.6377 8.31641 -3.75195 21.6094 -3.75195c2.62012 0 4.83594 0.603516 6.6377 1.7959l-1.08691 -5.10547
c-6.19531 -0.820312 -10.207 -0.896484 -11.6221 -0.896484c-19.5479 0 -7.375 8.125 -30.6396 17.084c0 -7.3877 -1.73828 -11.082 -5.10645 -11.082c-2.66113 0 -4.01953 3.69434 -4.01953 11.082c0 4.72559 2.66211 10.7549 8.04004 18.1426v38.3516h12.167z
M395.01 80.25h3.04199v4.01953h-3.04199c-1.38477 0 -2.87793 0.692383 -4.40918 0.692383c-1.09375 0 -2.35156 -0.242188 -3.73926 -0.692383c-3.36816 0 -7.33301 -1.3584 -12.0596 -4.01953h-9.01758v-3.04199h9.01758
c5.37793 -2.00977 9.39746 -3.04199 12.0596 -3.04199c6.57324 1.6084 6.02148 6.08398 8.14844 6.08398zM546.239 82.2051c-7.3877 0 -14.4492 1.73828 -21.1855 5.10645c4.72656 20.8594 11.7881 34.2764 21.1855 40.3066
c10.1035 -6.03027 17.7627 -19.4473 23.1406 -40.3066c-6.0293 -3.36816 -13.7432 -5.10645 -23.1406 -5.10645zM788.077 96.3291c-8.74609 6.0293 -13.0371 11.7871 -13.0371 17.165h15.1016l3.04199 -4.99707c-2.66211 -5.37793 -4.45508 -9.50684 -5.10645 -12.168z
M350.575 146.739v37.3721h-31.1807l7.06152 21.0771h51.3877c6.73633 -1.3584 10.1035 -4.29102 10.1035 -9.01758c-4.54199 -8.80957 -6.81738 -16.834 -6.81738 -24.0771c0 -9.90918 4.25781 -18.3564 12.793 -25.3545h-43.3477zM782.102 162.927l3.04199 5.97461h94.7363
l1.95508 -5.97461h-99.7334zM786.121 175.964l1.95605 7.06152h85.7188l3.04199 -7.06152h-90.7168zM401.495 332.052c0 60.084 -13.7646 86.7861 -13.7646 115.593c0 9.20508 0.896484 25.8301 2.71582 49.9004c5.72363 75.7295 8.8623 81.9795 18.1436 91.2588
c16.9072 16.9072 67.0322 25.3311 67.0322 35.7441v3.04199h63.5557v-407.191c-4.72559 -1.3584 -10.1582 -3.69434 -16.1875 -7.06152c-24.8789 14.7754 -48.0205 25.8564 -69.5312 33.2441c-21.5107 -20.8594 -41.3926 -44 -59.5361 -69.5312
c-0.708008 1.60352 -1.06152 3.25293 -1.06152 4.9502c0 4.68359 2.7002 9.72559 8.12305 15.1484c-5.44141 16.3262 -15.1006 12.2568 -15.1006 24.2275c9.37012 71.0479 15.6113 48.1758 15.6113 110.676zM795.628 248.673c0 6.30078 -0.163086 11.9775 -0.489258 17.0293
l71.5957 -36.2861c1.35742 -20.1533 2.66113 -33.2988 4.01953 -39.3291h-78.5488c2.26172 16.8252 3.42285 43.1436 3.42285 58.5859zM327.434 211.272l0.978516 2.06445h48.4541v-2.06445h-49.4326zM319.996 298.208c0 21.3857 9.53711 22.8545 17.542 121.766
c-1.83887 13.5898 -2.75684 28.9727 -2.75684 46.1377c0 26.9531 2.2627 58.3027 6.77637 94.0117h38.3506c-4.72656 -40.6816 -7.10547 -74.8877 -7.10547 -102.584c0 -54.7363 12.1025 -82.8359 12.1025 -105.141c0.939453 -9.74316 1.41016 -19.124 1.41016 -28.1387
c0 -23.3027 -3.14258 -44.1689 -9.44922 -62.5771c-1.3584 -6.03027 -3.69434 -19.4473 -7.06152 -40.3066h-37.373c0.246094 3.41309 0.369141 6.76172 0.369141 10.0459c0 35.7139 -12.8047 41.8447 -12.8047 66.7861zM867.712 240.497l-65.5117 34.3311
c1.00488 1.33105 1.50684 3.00195 1.50684 5.01172s-0.501953 4.35938 -1.50684 7.04785l66.5977 -24.2275zM867.712 273.741l-69.5312 24.2275c10.1035 41.0127 29.9854 81.6992 59.5361 122.005h20.0986l-1.95508 -107.881
c0 -18.8594 -4.14453 -37.0518 -8.14844 -38.3516zM794.161 277.87l-1.95605 13.0371c5.37793 -2.00977 8.04004 -5.21484 8.04004 -9.56055c0 -2.9707 -0.993164 -4.49707 -2.89648 -4.49707c-1.00098 0 -1.81836 0.37207 -3.1875 1.02051zM66.5615 382.193
c0 6.62988 1.59961 12.1592 4.80273 16.5957c15.8545 -15.0107 32.1064 -22.5225 48.7432 -22.5225c10.1553 0 20.4531 2.79785 30.8916 8.39844l93.7578 51.3877c-5.37695 61.166 -48.3994 113.314 -129.066 156.337c150.523 103.481 313.922 155.141 489.977 155.141
s339.344 -51.6592 489.867 -155.141c-80.666 -43.0225 -123.58 -95.1709 -128.958 -156.337l93.7588 -51.3877c10.4385 -5.60059 20.7363 -8.39844 30.8906 -8.39844c16.6377 0 32.8896 7.51172 48.7441 22.5225c3.20215 -4.43652 4.80273 -9.96484 4.80273 -16.5947
c0 -23.2744 -28.8125 -86.2021 -59.2793 -86.2021c-0.34668 0 -0.693359 0.00683594 -1.04004 0.0214844c1.08301 6.15625 1.62402 12.0059 1.62402 17.5508c0 25.3242 -11.2959 44.2764 -33.8906 56.9775l-113.857 59.5361c8.04004 84.6865 46.7168 138.79 115.922 162.312
c-135.097 79.3086 -284.589 118.854 -448.584 118.854c-163.996 0 -313.487 -39.5459 -448.584 -118.854c69.2051 -23.5215 107.882 -77.625 115.921 -162.312l-113.966 -59.5361c-22.5674 -12.6865 -33.792 -31.6094 -33.792 -56.8896
c0 -5.57031 0.544922 -11.4502 1.63379 -17.6387c-0.34668 -0.0146484 -0.693359 -0.0214844 -1.04004 -0.0214844c-30.4658 0 -59.2783 62.9277 -59.2783 86.2012zM792.205 304.053l-23.249 115.921h79.6348c-29.5508 -42.3154 -48.3457 -80.9922 -56.3857 -115.921z
M792.927 489.429c0 35.3867 -44.1377 85.709 -44.1377 113.592c0 5.83301 1.46387 9.0459 1.46387 15.5801c0 4.34668 -0.835938 7.34277 -2.48242 8.98926h62.5781c0 -10.7559 2.9873 -16.0791 9.01758 -16.0791c6.0293 0 19.4473 -4.99805 40.3057 -15.1016
c13.9902 -3.34961 26.3047 -11.9805 26.3047 -34.1016c0 -15.7441 -10.0928 -46.0898 -30.3242 -90.9453c-6.73535 -6.73633 -10.4297 -16.46 -11.0811 -29.2256l-6.08398 -8.03906h-25.2051c-14.083 17.0225 -21.0879 32.2246 -21.0879 45.6406
c0 4.76758 0.732422 5.73926 0.732422 9.69043zM374.802 606.404c-1.35742 -12.7656 -3.69336 -24.4443 -7.06152 -35.2002h-11.0811c-1.7627 8.02148 -2.64453 14.3994 -2.64453 19.165c0 6.51172 0.0898438 12.6016 20.7871 16.0352zM874.339 624.113
c-7.3877 0 -13.96 1.14062 -19.6641 3.47656h44.3262c-9.07227 -2.33594 -17.2744 -3.47656 -24.6621 -3.47656zM702.685 625.091c-4.18262 0 -8.36621 0.814453 -12.3857 2.49902h25.2051c-4.3457 -1.68457 -8.63672 -2.49902 -12.8193 -2.49902zM355.464 625.634
c-4.88867 0 -9.56055 0.597656 -13.9062 1.95605h29.2246c-5.37793 -1.3584 -10.4297 -1.95605 -15.3184 -1.95605zM422.713 626.611c4.3457 0 8.85449 0.326172 13.5811 0.978516h-26.1836c4.02051 -0.652344 8.25684 -0.978516 12.6025 -0.978516zM895.959 638.671
h-584.604c118.694 44.1348 248.453 48.4541 294.312 48.4541c104.611 0 224.233 -25.8252 290.292 -48.4541zM222.594 778.819v9.12598h98.7559v107.773h-98.7559v11.1895h762.126v-11.1895h-98.8643v-107.773h97.7773v-9.12598h-761.039zM334.496 787.945h538.322v107.773
h-538.322v-107.773zM356.659 804.024v76.5928h497.038v-76.5928h-497.038z" />
</svg>
