<?xml version="1.0" standalone="no"?>
<!DOCTYPE svg PUBLIC "-//W3C//DTD SVG 1.1//EN" "http://www.w3.org/Graphics/SVG/1.1/DTD/svg11.dtd" >
<svg xmlns="http://www.w3.org/2000/svg" xmlns:xlink="http://www.w3.org/1999/xlink" version="1.1" viewBox="-10 0 1490 1000">
   <path fill="currentColor"
d="M708.144 321.021c-15.5293 0.5625 -43.7178 3.8418 -68.8984 7.22949l31.9688 32.0938zM312.637 141.732l22.1123 127.77c-84.2871 16.4131 -127.771 54.2539 -127.771 110.445c1.19629 38.6396 26.9561 64.626 76.1377 78.6455
c115.917 -115.916 267.109 -174.388 454.433 -174.388c188.464 0 340.911 58.4717 456.827 174.388c49.1816 -14.0195 73.7441 -40.0059 73.7441 -78.6455c0 -56.1914 -40.9756 -94.0322 -125.263 -110.445l22.1123 -127.77c182.594 32.7686 275.03 107.823 275.03 228.413
c0 85.6309 -31.4814 161.242 -169.486 235.821c-58.5283 31.6299 -119.792 56.0781 -184.189 73.6309h194.105v120.361h-1085.65v-120.361h196.499c-89.0264 -24.7246 -245.078 -85.2148 -311.96 -174.388c-26.3281 -35.1055 -39.3223 -80.0693 -39.3223 -135.064
c0 -120.59 91.1826 -195.645 272.637 -228.413zM280.723 190.856c-132.271 23.4238 -199.006 82.1221 -199.006 179.289c0 45.6484 9.06055 85.0283 29.5205 115.46c20.459 30.4326 81.7217 70.6104 181.795 120.361c100.074 49.752 247.848 73.6309 444.517 73.6309
c196.671 0 346.325 -23.8789 447.024 -73.6309c100.7 -49.751 161.338 -89.9287 181.797 -120.361c20.459 -30.4316 29.5205 -69.8115 29.5205 -115.46c0 -97.167 -64.2275 -155.865 -196.5 -179.289l-12.3096 54.0264c80.7539 12.8789 120.361 57.7871 120.361 135.064
c0 60.8652 -59.8389 112.668 -176.895 154.783s-247.847 61.4346 -392.999 61.4346c-144.011 0 -272.864 -19.3193 -390.49 -61.4346s-176.896 -93.918 -176.896 -154.783c0 -77.2773 39.6084 -122.186 120.361 -135.064zM776.872 323.528l36.8154 36.8154l29.5205 -31.9141
c-21.2568 -2.84961 -43.8818 -3.87598 -66.3359 -4.90137zM599.977 335.724l-49.124 46.7314l49.124 49.125l49.126 -49.125zM742.45 335.724l-46.6172 46.7314l46.6172 49.125l49.125 -49.125zM884.924 335.724l-46.6172 46.7314l46.6172 49.125l49.125 -49.125z
M541.051 348.033l-19.6055 4.90137l7.29492 7.40918zM946.358 350.541l9.80176 9.80273l4.90137 -4.90137zM487.024 365.244c-22.6816 9.17578 -42.9131 22.4541 -63.8281 34.4219l34.3076 31.9141l49.125 -49.125zM995.483 367.752l-14.7041 14.7031l46.6182 49.125
l29.5205 -29.5205c-20.3457 -11.7969 -39.3799 -25.1895 -61.4346 -34.3076zM528.74 404.566l-49.125 49.126l49.125 49.124l46.7314 -49.124zM671.214 404.566l-49.125 49.126l49.125 49.124l46.7314 -49.124zM813.688 404.566l-49.125 49.126l49.125 49.124
l49.125 -49.124zM956.16 404.566l-49.124 49.126l49.124 49.124l49.125 -49.124zM396.184 414.369c-19.3193 12.6514 -38.8672 26.4434 -56.5332 41.7158l46.7305 46.7314l46.6182 -49.124zM1086.32 416.877l-36.8154 36.8154l49.125 49.124l41.7158 -41.8301
c-17.4951 -15.3867 -34.877 -31.2871 -54.0254 -44.1094zM315.145 478.197c-0.855469 0.797852 -1.65332 1.65234 -2.50781 2.50781c2.39355 0.911133 5.01562 1.48145 7.4082 2.39258zM599.977 478.197l-49.124 49.125l19.7188 19.7178
c17.21 2.33691 34.0791 5.69922 51.5176 7.29492l27.0137 -27.0127zM742.45 478.197l-46.6172 49.125l31.9141 31.9141h31.9141l31.9141 -31.9141zM884.924 478.197l-46.6172 49.125l24.5059 24.6191l51.6318 -7.4082l19.6045 -17.2109zM1027.4 478.197l-46.6182 49.125
l4.90137 4.90137l78.5312 -17.0977zM671.214 547.04l-9.80176 9.80273h19.7178zM813.688 547.04l-9.80273 9.80273h17.2109zM233.991 718.92v44.2246h1007.12v-44.2246h-1007.12zM457.504 478.197l-39.209 39.3223c23.2236 6.41113 54.2686 12.501 81.6504 17.2988
l6.68359 -7.49609z" />
</svg>
