<?xml version="1.0" standalone="no"?>
<!DOCTYPE svg PUBLIC "-//W3C//DTD SVG 1.1//EN" "http://www.w3.org/Graphics/SVG/1.1/DTD/svg11.dtd" >
<svg xmlns="http://www.w3.org/2000/svg" xmlns:xlink="http://www.w3.org/1999/xlink" version="1.1" viewBox="-10 0 884 1000">
   <path fill="currentColor"
d="M100.147 342.7c-17.8184 0 -26.7275 8.96973 -26.7275 26.7881c0 18.6016 8.90918 27.873 26.7275 27.873c18.6016 0 27.8721 -9.27148 27.8721 -27.873c0 -17.8184 -9.27051 -26.7881 -27.8721 -26.7881zM448.279 342.7c-17.8193 0 -26.7891 9.33105 -26.7891 27.8721
c0 17.8184 8.96973 26.7891 26.7891 26.7891c18.541 0 27.8721 -8.9707 27.8721 -26.7891c0 -18.541 -9.33105 -27.8721 -27.8721 -27.8721zM100.147 298.815c46.4141 1.44434 70.373 24.9824 71.8184 70.6729c-1.44531 46.4141 -25.0439 70.373 -70.7344 71.7578
c-46.4131 -1.38477 -69.5898 -25.3438 -69.5898 -71.7578c0 -45.6904 22.8154 -69.2285 68.5059 -70.6729zM448.279 298.815c46.4131 1.44434 70.3125 25.3428 71.7568 71.7568c-1.44434 45.6914 -24.9824 69.2891 -70.6738 70.6738
c-46.4131 -1.38477 -69.6504 -24.9824 -69.6504 -70.6738c0 -46.4141 22.876 -70.3125 68.5674 -71.7568zM157.397 119.481c4.08691 135.672 85.8545 171.641 85.8545 300.353c0 28.4824 -3.39355 56.668 -6.93359 82.6943l69.5293 1.92676
c3.08594 -21.4639 4.64941 -42.2031 4.64941 -62.085c0 -158.453 -94.7539 -187.215 -153.1 -322.889zM420.407 559.056h-290.22l69.5898 159.647c7.88574 25.7051 25.3438 38.5273 52.4932 38.5273h47.1367c26.4268 0 43.5234 -12.5205 51.4092 -37.5039zM167.511 9.98047
c15.7119 0 12.5205 52.1318 32.2666 106.853c46.1729 69.5303 73.5029 102.881 111.729 164.524c38.9756 62.9561 43.3838 98.1553 43.3838 184.21c0 11.3721 -0.0771484 23.6318 -0.161133 36.9609l131.054 1.92676
c1.38477 -0.0605469 2.70898 -0.0605469 4.0332 -0.0605469c23.7188 0 35.5781 6.08008 35.5781 18.2402c-0.722656 10.7158 -13.9062 28.2344 -39.6113 52.4941c-16.4346 13.6055 -48.9424 79.6436 -97.4629 198.176c-8.6084 17.8184 -19.3232 26.7881 -32.1455 26.7881
h-161.755c-13.5449 0 -24.2607 -8.96973 -32.1465 -26.7881c-48.5205 -118.532 -81.0283 -184.57 -97.4619 -198.176c-26.4277 -22.8154 -39.6113 -40.334 -39.6113 -52.4941s11.8594 -18.2402 35.5771 -18.2402c1.32422 0 2.64941 0 4.03418 0.0605469h125.334
c2.77148 -36.2676 4.46191 -66.9492 4.46191 -93.2705c0 -34.8438 -2.96289 -62.043 -10.3008 -84.4365c-12.0615 -36.9199 -67.6924 -68.4072 -67.6924 -191.055c0 -7.74121 0.22168 -15.8457 0.69043 -24.3379c2.46777 -44.6074 34.4941 -101.375 50.2061 -101.375z" />
</svg>
