<?xml version="1.0" standalone="no"?>
<!DOCTYPE svg PUBLIC "-//W3C//DTD SVG 1.1//EN" "http://www.w3.org/Graphics/SVG/1.1/DTD/svg11.dtd" >
<svg xmlns="http://www.w3.org/2000/svg" xmlns:xlink="http://www.w3.org/1999/xlink" version="1.1" viewBox="-10 0 1490 1000">
   <path fill="currentColor"
d="M724.377 291.227c10.3877 0.734375 16.1582 1.99316 17.208 3.77734c1.04883 1.78418 2.51855 3.41016 4.30176 4.82715l56.3477 -30.6396c-11.5605 -3.40234 -10.5566 -27.0215 -37.7197 -27.0215c-25.3916 0 -33.6631 25.1172 -40.1377 49.0566zM763.895 309.296
c0 2.75977 -2.4502 6.41797 -7.30469 10.9961l5.87598 4.82715c25.0781 -25.8135 38.1943 -42.5488 39.2432 -50.0518l-49.4219 29.0654c1.52148 -0.427734 2.91309 -0.640625 4.1748 -0.640625c4.96484 0 7.43262 3.55078 7.43262 5.80371zM1249.23 411.581
c0 36.1123 28.5361 58.0254 59.5996 58.0254c38.2949 0 57.502 -32.4902 57.502 -58.0254c-1.02148 -20.4434 -13.7959 -55.5547 -57.502 -56.4521c-47.6006 0 -59.5996 36.6025 -59.5996 56.4521zM162.899 466.354c-3.50488 55.8027 -19.3398 41.7422 -19.3398 73.1523
c0 0.6875 0.0107422 1.38086 0.0322266 2.08203h43.5459c0.213867 -3.44336 0.321289 -6.85938 0.321289 -10.248c0 -26.9814 -4.13379 -40.7656 -24.5596 -64.9863zM1224.58 509.899c0 4.70605 -2.35254 7.05859 -7.05859 7.05859
c-0.645508 0 -1.33594 -0.0439453 -2.07031 -0.132812c0.367188 5.71875 4.04004 12.4336 11.2266 19.9365c-3.46973 -1.16406 -6.37598 -1.74707 -8.72559 -1.74707c-3.47852 0 -5.73926 1.27832 -6.80371 3.8457c-1.92188 -1.77148 -3.56934 -2.65332 -4.93945 -2.65332
c-1.95898 0 -3.35547 1.80078 -4.18848 5.38086h6.40039c0.380859 -0.0185547 0.759766 -0.0283203 1.13672 -0.0283203c14.5508 0 26.6602 13.8066 36.4277 41.3711c1.91113 17.2568 5.56543 35.208 19.1719 35.208c1.9541 0 3.99414 -0.438477 6.11621 -1.31641
c-1.58008 -33.8672 -10.4717 -37.6289 -15.5293 -39.7676c37.0752 -6.99512 55.5908 -21.5127 55.5908 -43.4697c0 -2.9502 -0.583984 -41.9434 -31.457 -41.9434c-41.9385 0 -38.7158 15.6494 -55.2979 18.2578zM96.002 493.356c17.0439 0 25.2559 14.7139 25.2559 24.9238
c0 13.1035 -10.5977 21.8486 -24.8818 21.8486c-22.8799 0 -23.1797 -20.8848 -23.1797 -21.9805c0 -11.373 6.2002 -24.792 22.8057 -24.792zM1217.02 668.868c-48.75 0 -76.1045 -10.2266 -153.616 -69.7783l-0.629883 173.553
c166.891 0 267.098 -15.3193 300.413 -45.749c32.9482 -30.4297 49.4219 -66.5781 49.4219 -108.497c-0.367188 -41.5518 -9.91602 -72.7158 -28.541 -93.4922s-38.6143 -31.1641 -60.124 -31.1641c5.70508 13.541 8.55664 25.9863 8.55664 37.332
c0 24.9639 -13.8057 44.6045 -41.4004 58.8887c2.73633 9.66113 4.11133 18.4355 4.11133 26.3301c0 43.3057 -42.1211 52.5771 -78.1914 52.5771zM1305.26 532.003c0 15.7344 -14.1973 27.8828 -42.5928 36.4473v-2.09863
c19.5576 -6.20117 29.3574 -14.9189 29.3574 -26.1514c0 -0.257812 -0.203125 -21.3779 -14.376 -21.3779c-23.8076 0 -23.8076 27.4766 -23.8076 37.4785c0 2.6377 0.0732422 5.42773 0.220703 8.37207l-3.77734 1.67871
c-2.51758 -9.65332 -6.0332 -17.3135 -10.7021 -22.6641c1.59961 -1.78418 2.40039 -3.47656 2.40039 -5.08301c0 -5.78223 -5.64941 -3.56055 -8.80078 -8.34863c-1.78418 0 -3.04395 -0.314453 -3.77734 -1.0498c0 -2.51758 0.681641 -4.61621 2.09863 -6.40039
c0 -8.23633 4.30176 -13.4834 12.9053 -15.6338c9.5166 -3.92383 19.6162 -5.15527 28.3281 -5.15527c7.48926 0 32.5234 0 32.5234 29.9863zM1245.98 510.425c-7.1875 0 -10.7021 3.9873 -10.7021 11.8564c0 6.82031 3.51465 10.1777 10.7021 10.1777
c6.82031 0 10.2832 -3.35742 10.2832 -10.1777c0 -7.86914 -3.46289 -11.8564 -10.2832 -11.8564zM1245.98 514.727c4.30176 0 6.50586 2.51758 6.50586 7.55469c0 3.93555 -2.2041 5.87598 -6.50586 5.87598s-6.40039 -1.94043 -6.40039 -5.87598
c0 -5.03711 2.09863 -7.55469 6.40039 -7.55469zM103.299 568.45l26.1279 85.6221c12.749 2.62402 27.4395 4.45996 43.7549 5.66602h31.6895l2.83301 -9.54883c-19.1201 -13.4404 -74.2441 -10.9902 -82.3691 -20.9854
c-2.62305 -3.22363 -3.97656 -9.47559 -3.97656 -18.7275c0 -2.04102 0.0654297 -4.22852 0.198242 -6.56055c42.3174 2.38477 73.8496 4.60547 96.5352 10.9131l13.6406 -46.3789h-128.434zM763.928 582.072c-1.14746 0 -2.33398 0.107422 -3.56055 0.333984
c-40.5352 7.87402 -32.1992 26.6133 -93.2822 54.7725h105.244c0.31543 -4.98438 4.25 -7.44922 12.1719 -7.44922c0 -38.5801 -10.127 -47.6572 -20.5732 -47.6572zM336.977 608.743v119.829l67.6797 -44.0703h631.886v-23.084h-631.886zM759.043 348.983
c0 3.56152 1.875 7.03711 5.62598 10.4473c26.377 8.82617 32.2764 40.0371 32.2764 66.1934c0 17.6416 -2.68945 23.3857 -2.68945 37.4375c0 35.9365 16.2793 52.0898 16.2793 71.8457c0 7.91895 -2.94727 13.5332 -8.82617 16.8594
c8.64062 1.00488 12.998 4.83887 12.998 11.4639c0 8.78418 -10.2695 24.5537 -10.2695 36.3838c0 12.4023 3.28418 19.0967 3.28418 26.207c0 4.24121 -0.978516 8.01562 -2.96973 11.3574h231.79v-91.8135c53.7236 38.2998 94.8555 66.4736 123.501 84.3643
c15.5088 10.0127 31.8379 15.0234 48.9785 15.0234c14.1143 0 28.7793 -3.39746 43.9893 -10.1973c-29.2822 -11.9531 -27.9199 -79.5361 -48.3721 -79.5361c-1.3623 -0.317383 -2.73145 -0.476562 -4.11035 -0.476562c-4.78027 0 -9.66309 1.91797 -14.6729 5.82715
c0 -27.5957 8.44727 -44.2275 25.2881 -49.9453c0.736328 -4.78613 2.79004 -7.16895 6.17871 -7.16895c1.44043 0 3.12305 0.430664 5.04883 1.29199c-0.224609 -0.399414 -0.336914 -0.864258 -0.336914 -1.39355c0 -3.40234 11.3525 -22.4951 37.377 -29.2451
c-26.582 -19.707 -30.5342 -47.5273 -30.5342 -62.3281c0 -28.1191 17.835 -76.2842 79.9561 -76.2842c61.7871 0 78.043 54.1016 78.4873 75.7598c0 38.0967 -27.2559 60.3389 -32.7373 64.4268c19.3594 6.08496 38.2461 18.834 56.8711 38.1934
c22.9482 23.8535 28.5459 68.0635 28.5459 105.53c0 49.584 -20.3037 92.1084 -60.7588 127.623c-40.8174 35.4658 -155.033 53.1992 -342.699 53.1992v-91.918h-631.886l-67.6797 52.1504h-24.6582v-61.2793c-5.74023 0.0214844 -11.3604 0.0322266 -16.8613 0.0322266
c-151.447 0 -194.919 -5.41602 -250.184 -39.2764c-3.52148 -3.00781 -5.27344 -8.99023 -5.27344 -17.9473c0 -25.0771 7.37695 -25.0771 10.5225 -25.0771c13.75 0 22.4609 16.7119 46.4805 27.3906l-31.2686 -102.517h57.502
c-0.0224609 -0.683594 -0.0341797 -1.36621 -0.0341797 -2.0498c0 -27.7158 14.2168 -28.1943 18.8154 -75.2832c1.78418 -18.625 18.5732 -39.7148 50.4717 -63.377c5.42871 -2.41699 9.48145 -3.6377 12.2246 -3.6377c1.04297 0 3.51465 0.185547 3.51465 1.94336
c0 4.69238 -22.7451 24.8145 -22.7451 46.6152c0 22.2832 23.165 13.4072 23.165 95.7891h23.6729c-14.877 -1.32129 -21.5889 -13.1191 -21.5889 -21.6982c0 -7.50977 4.40137 -25.4707 25.7568 -25.4707c12.2422 0 25.6992 7.4248 25.6992 20.2266
c0 0.367188 -0.438477 24.9971 -24.0381 26.9424h32.8262l-26.1279 82.4746c16.7891 6.40039 38.667 14.1133 67.4697 23.3994v-69.3584h22.5596l69.7783 59.0752h219.303c-7.47266 -3.44141 -8.18652 -8.97949 -8.18652 -10.9707
c0 -4.28125 3.07715 -10.4141 9.23633 -18.5146c19.3066 -36.5391 92.6387 -80.7275 113.848 -92.9668c-1.0752 -3.22656 -1.61328 -6.44043 -1.61328 -9.6543c0 -6.74414 1.99512 -8.95605 1.99512 -12.6064c0 -17.7529 -24.0986 -25.1836 -25.8809 -58.2041
c-1.3252 19.667 -3.58984 34.5176 -6.71387 44.4736c-8.35254 41.1494 -71.5771 51.0205 -94.542 77.333c-7.1875 7.87012 -17.208 13.1162 -30.1143 15.6348c-12.9062 2.88574 -24.3965 6.08594 -34.417 9.65332
c-0.544922 -0.712891 -0.816406 -1.46191 -0.816406 -2.24805c0 -11.3936 46.1562 -19.7666 46.1562 -31.0771c0 -1.7168 -1.12305 -3.3418 -3.36816 -4.86914c-10.5693 2.5791 -18.5459 9.8623 -24.2305 9.8623c-2.29395 0 -3.90625 -1.11621 -4.83496 -3.35645
c29.6367 -16.7705 25.5049 -25.4111 41.8984 -25.4111c2.67383 0 4.78223 0.444336 9.50098 0.444336c5.18066 0 9.56445 -0.631836 13.1328 -1.89551l50.4707 -39.7676c5.03613 -34.3652 9.18066 -62.0137 12.3818 -82.79
c0.734375 -22.5596 8.0791 -33.9443 22.0352 -34.3115c12.374 -0.651367 18.5605 -2.08594 18.5605 -4.41504c0 -0.985352 -2.2832 -3.30078 -2.2832 -9.0957c0 -1.17969 0.0996094 -2.41211 0.301758 -3.69727c-21.6074 -4.22461 -21.6074 -4.22461 -21.6074 -11.8818
c0 -2.2666 0.417969 -4.95117 1.25098 -8.05566c-6.07129 -0.709961 -9.11523 -2.33301 -9.11523 -4.86914c0 -1.25 0 -1.25 13.9414 -21.3633v-4.30176c-11.9443 -1.16895 -11.9443 -8.36328 -11.9443 -12.377c0 -4.30469 0.793945 -7.3291 2.29102 -9.13379
c-2.51758 0 -3.93457 -0.787109 -4.30176 -2.20312c0 -1.41699 0.681641 -2.09863 2.09863 -2.09863c1.85449 -0.189453 3.50684 -0.285156 4.95508 -0.285156c5.20996 0 7.96289 1.14355 7.96289 4.51855c0 4.03711 -4.29883 8.22266 -4.29883 12.0039
c0 1.75586 1.96582 3.18359 3.10156 3.18359c0.449219 0 2.23438 -0.413086 2.23438 -1.6875c5.9707 -24.3232 14.6592 -53.8691 46.7988 -57.502c0.738281 0 1.46973 -0.0439453 2.19629 -0.0439453c8.41797 0 16.0801 1.95996 22.9863 5.91992
c20.5273 13.335 10.1943 18.333 31.1641 25.8125c-9.42578 39.6602 -57.1465 71.0898 -57.1465 84.6191z" />
</svg>
