<?xml version="1.0" standalone="no"?>
<!DOCTYPE svg PUBLIC "-//W3C//DTD SVG 1.1//EN" "http://www.w3.org/Graphics/SVG/1.1/DTD/svg11.dtd" >
<svg xmlns="http://www.w3.org/2000/svg" xmlns:xlink="http://www.w3.org/1999/xlink" version="1.1" viewBox="-10 0 1190 1000">
   <path fill="currentColor"
d="M443.179 14.2891c0 56.7451 -47.0557 59.4082 -59.207 59.4082c-29.1406 0 -60.4082 -19.7646 -60.4082 -59.4082c0 -30.3232 26.7559 -59.0977 60.4082 -59.0977c46.165 0 59.207 37.7773 59.207 59.0977zM1051.08 439.769c20.9336 0 51.4502 3.58203 51.4502 24.4697
c0 14.5459 -18.8486 23.2578 -31.0479 23.2578c-1.23047 0 -2.46094 -0.0693359 -3.68945 -0.208984c11.6592 21.7793 17.5498 54.1025 17.5498 96.7666c0 0.761719 -1.16406 54.5059 -1.16406 76.2041c0 27.126 1.17676 46.5771 1.17676 47.0479
c0 17.9707 -5.41699 35.0166 -16.251 51.2178l38.5605 -33.4258c3.8623 -4.9502 8.33301 -7.41797 13.4287 -7.41797c5.40234 0 18.9014 4.14844 18.9014 15.7168c0 1.54004 -22.6279 98.4258 -118.409 98.4258c-53.1445 0 -91.2139 -4.31445 -114.372 -12.8896
c-43.499 11.4717 -90.3896 17.2461 -140.691 17.2461c-21.0693 0 -42.7363 -1.01367 -65.0029 -3.04492c-11.1416 0 -16.7129 5.57031 -16.7129 16.7129v45.0059h-188.98v-45.0059c0 -11.1426 -6.00879 -16.7129 -18.0244 -16.7129
c-22.2666 2.03125 -43.9238 3.04492 -64.9795 3.04492c-50.2695 0 -97.1064 -5.77441 -140.605 -17.2461c-23.1582 8.5752 -60.9004 12.8896 -113.17 12.8896c-97.2852 0 -119.052 -98 -119.052 -99.5518c0 -10.5723 12.7598 -14.5908 18.3994 -14.5908
c5.2959 0 10.1484 2.46777 14.5723 7.41797l32.1162 26.9805c-8.30176 -12.0449 -12.4727 -26.4951 -12.4727 -43.4971c0 -8.15527 1.22168 -13.9219 1.22168 -48.3232c0 -21.6953 -1.16406 -75.4482 -1.16406 -76.2109c0 -42.6602 5.8916 -74.9814 17.5498 -96.7598
c-1.22852 0.139648 -2.45312 0.208984 -3.67285 0.208984c-12.3857 0 -29.7539 -8.89551 -29.7539 -23.2578c0 -21.6553 32.126 -24.4697 48.8281 -24.4697c-9.99902 0 -39.7617 -15.1348 -39.7617 -51.4502c0 -27.8984 21.3428 -53.9639 53.9629 -53.9639
c36.4375 0 53.9639 28.4795 53.9639 53.9639c0 36.6211 -29.6963 51.5576 -38.1533 51.5576c18.9775 1.48926 50.252 8.20703 56.1777 35.9414c6.88184 -71.9873 17.5322 -141.845 32.1152 -209.518c-33.4268 0 -50.1396 -16.3857 -50.1396 -48.9385
c0 -31.7334 19.6631 -47.5176 59.0977 -47.5176c47.1357 0 70.6768 39.8164 70.6768 119.506c8.5752 -23.1592 15.0742 -48.3926 19.335 -75.8115v-69.3662c0 -25.7246 -16.7129 -38.5605 -50.1406 -38.5605c-4.9502 0 -7.41797 -1.60254 -7.41797 -4.79199
c0 -6.9209 13.4795 -24.8115 42.1553 -24.8115c10.2695 0 21.793 2.94922 34.6289 8.95801c6.88184 -6.88184 14.1465 -10.2686 21.8477 -10.2686c8.5752 0 15.9482 3.38672 21.9561 10.2686c13.71 -6.00879 25.6719 -8.95801 35.9395 -8.95801
c30.0947 0 41.04 19.3867 41.04 25.2441c0 2.90234 -2.08398 4.35938 -6.30273 4.35938c-34.3008 0 -51.4502 12.8359 -51.4502 38.5605v69.3662c4.25977 27.4189 11.0869 52.6523 20.5361 75.8115c0 -63.4131 13.7646 -121.637 41.1826 -174.781
c28.293 53.1445 42.3838 111.368 42.3838 174.781c8.57617 -23.1592 15.0752 -48.3926 19.3359 -75.8115v-69.3662c0 -25.7246 -16.7139 -38.5605 -50.1406 -38.5605c-4.9502 0 -7.41797 -1.60254 -7.41797 -4.79199c0 -6.83301 13.3389 -24.8115 42.0469 -24.8115
c9.44922 0 21.0283 2.94922 34.7373 8.95801c6.00781 -6.88184 13.2715 -10.2686 21.8477 -10.2686c8.5752 0 16.2764 3.38672 23.1582 10.2686c12.835 -6.00879 23.9775 -8.95801 33.4258 -8.95801c28.6768 0 42.1562 17.8896 42.1562 24.8105
c0 3.19043 -2.46777 4.79297 -7.41797 4.79297c-33.4268 0 -50.1396 12.8359 -50.1396 38.5605v69.3662c4.25977 27.4189 10.6504 52.6523 19.2256 75.8115c0 -63.4131 14.2002 -121.637 42.4932 -174.781c28.293 53.1445 42.3838 111.368 42.3838 174.781
c8.5752 -23.1592 14.9658 -48.3926 19.2256 -75.8115v-69.3662c0 -25.7246 -17.04 -38.5605 -51.3408 -38.5605c-4.25098 0 -6.37598 -1.47949 -6.37598 -4.42578c0 -5.86133 10.7656 -25.1777 42.3154 -25.1777c9.44824 0 21.0273 2.94922 34.7373 8.95801
c6.00781 -6.88184 13.2725 -10.2686 21.8467 -10.2686c7.70215 0 14.9658 3.38672 21.8486 10.2686c13.708 -6.00879 25.2871 -8.95801 34.7373 -8.95801c31.3018 0 42.0459 19.1133 42.0459 24.8115c0 3.18945 -2.46777 4.79199 -7.41797 4.79199
c-33.4268 0 -50.1406 12.8359 -50.1406 38.5605v69.3662c4.26074 27.4189 10.7598 52.6523 19.3359 75.8115c0 -79.6895 23.54 -119.506 70.6758 -119.506c39.4355 0 59.0977 15.7842 59.0977 47.5176c0 32.5527 -16.7129 48.9385 -50.1396 48.9385
c14.583 66.8535 25.3428 136.219 32.2246 208.206c4.8457 -16.9199 19.6914 -32.2295 56.4766 -34.7373c-16.9541 -1.72656 -41.0732 -18.3418 -41.0732 -51.4502c0 -26.1045 22.4785 -52.6523 55.2734 -52.6523c37.7314 0 52.6523 30.5469 52.6523 52.6523
c0 41.9072 -33.125 51.4502 -39.8711 51.4502zM529.257 14.2891c0 -28.71 23.5322 -59.0977 60.4092 -59.0977c46.0791 0 59.0967 37.8398 59.0967 59.0977c0 56.8037 -47.1338 59.4082 -59.0967 59.4082c-32.5059 0 -60.4092 -21.2588 -60.4092 -59.4082zM734.951 15.5996
c0 -31.8281 24.8818 -59.0967 60.4082 -59.0967c46.1055 0 59.0977 37.8701 59.0977 59.0967c0 27.6797 -15.1982 58.0977 -59.0977 58.0977c-33.6924 0 -60.4082 -22.7852 -60.4082 -58.0977zM341.587 14.2891c0 24.1592 18.1953 42.4932 42.3848 42.4932
c39.5576 0 41.1826 -35.2646 41.1826 -42.4932c0 -39.5195 -35.5859 -41.0732 -41.1826 -41.0732c-23.2568 0 -42.3848 16.1855 -42.3848 41.0732zM547.281 14.2891c0 24.1631 18.1973 42.4932 42.3848 42.4932c29.2627 0 41.1826 -22.1387 41.1826 -42.4932
c0 -17.8203 -11.2793 -41.0732 -41.1826 -41.0732c-23.2559 0 -42.3848 16.1836 -42.3848 41.0732zM752.976 15.5996c0 22.0586 14.1553 42.3848 42.3838 42.3848c30.1221 0 41.0732 -23.0781 41.0732 -42.3848c0 -20.2959 -11.9854 -42.3838 -41.0732 -42.3838
c-27.3525 0 -42.3838 19.6455 -42.3838 42.3838zM383.972 83.7637c-6.00879 0 -11.4697 3.38672 -16.6045 10.2686c5.13477 8.5752 7.64648 25.2881 7.64648 50.1396v69.3662h6.44531v-110.549h5.13379v110.549h7.75586v-69.3662
c0 -24.8516 2.51367 -41.5645 7.64746 -50.1396c-5.13379 -6.88184 -11.1426 -10.2686 -18.0244 -10.2686zM589.666 83.7637c-6.88184 0 -12.4531 3.38672 -16.7139 10.2686c4.26074 8.5752 6.44531 25.2881 6.44531 50.1396v69.3662h7.75586v-110.549h5.13477v110.549
h7.64551v-69.3662c0 -24.8516 2.62207 -41.5645 7.75586 -50.1396c-5.13379 -6.88184 -11.1416 -10.2686 -18.0234 -10.2686zM795.359 83.7637c-6.88184 0 -12.8896 3.38672 -18.0244 10.2686c5.13477 8.5752 7.75684 25.2881 7.75684 50.1396v69.3662h7.64648v-110.549
h5.13379v110.549h7.75684v-69.3662c0 -24.8516 2.18457 -41.5645 6.44434 -50.1396c-4.25977 -6.88184 -9.83203 -10.2686 -16.7139 -10.2686zM327.495 86.2764c-12.835 0 -22.7217 3.38672 -29.6035 10.2686c37.71 0 56.6152 15.1992 56.6152 45.5479
c0 0.685547 -0.00976562 1.37793 -0.0292969 2.0791v69.3662h5.13379v-69.3662c0 -33.4258 -14.583 -50.1396 -43.6953 -50.1396v-3.82324c30.8604 0 46.208 17.9697 46.208 53.9629v69.3662h5.24316v-69.3662c0 -38.5605 -13.3271 -57.8955 -39.8721 -57.8955z
M441.867 86.2764c-26.5439 0 -39.8711 19.335 -39.8711 57.8955v69.3662h3.93164v-69.3662c0 -35.9932 15.7852 -53.9629 47.5186 -53.9629v3.82324c-29.1113 0 -43.6953 16.7139 -43.6953 50.1396v69.3662h5.13477v-69.3662
c-0.0195312 -0.701172 -0.0292969 -1.39551 -0.0292969 -2.08105c0 -30.3477 18.9053 -45.5459 56.6143 -45.5459c-7.70117 -6.88184 -17.5879 -10.2686 -29.6035 -10.2686zM533.081 86.2764c-12.8359 0 -22.6123 3.38672 -29.4941 10.2686
c37.6875 0 56.585 15.8936 56.585 47.627v69.3662h3.82227v-69.3662c0 -33.4258 -14.582 -50.1396 -43.6943 -50.1396v-3.82324c31.7334 0 47.5186 17.9697 47.5186 53.9629v69.3662h5.13379v-69.3662c0 -38.5605 -13.3262 -57.8955 -39.8711 -57.8955zM646.25 86.2764
c-25.7246 0 -38.5605 19.335 -38.5605 57.8955v69.3662h3.82324v-69.3662c0.875 -35.9932 16.7686 -53.9629 47.6279 -53.9629v3.82324c-29.1113 0 -43.6943 16.7139 -43.6943 50.1396v69.3662h3.82324v-69.3662c0 -31.7334 18.8975 -47.627 56.584 -47.627
c-6.88184 -6.88184 -16.7676 -10.2686 -29.6035 -10.2686zM738.775 86.2764c-12.8359 0 -23.1045 3.38672 -30.8057 10.2686c38.5605 0 57.7861 15.8936 57.7861 47.627v69.3662h3.93359v-69.3662c0 -33.4258 -14.6934 -50.1396 -43.8047 -50.1396v-3.82324
c31.6787 0 47.6279 17.9697 47.6279 53.9629v69.3662h3.82227v-69.3662c0 -38.5605 -12.835 -57.8955 -38.5596 -57.8955zM851.945 86.2764c-26.5459 0 -39.8721 19.335 -39.8721 57.8955v69.3662h5.13477v-69.3662c0 -35.9932 15.7842 -53.9629 47.5186 -53.9629v3.82324
c-29.9863 0 -45.0068 16.7139 -45.0068 50.1396v69.3662h5.24316v-69.3662c0 -31.7334 18.7891 -47.627 56.4766 -47.627c-6.88184 -6.88184 -16.6592 -10.2686 -29.4941 -10.2686zM486.873 156.953c-15.4023 24.8516 -23.1582 63.8486 -23.1582 116.993v73.2988
c9.44922 30.8594 17.1504 86.5703 23.1582 167.133c6.00781 -80.5625 13.709 -136.273 23.1582 -167.133v-73.2988c0 -53.1445 -7.75488 -92.1416 -23.1582 -116.993zM692.567 156.953c-15.4023 24.8516 -23.1582 63.8486 -23.1582 116.993v73.2988
c9.44922 30.8594 17.1504 86.5703 23.1582 167.133c5.13477 -80.5625 13.2178 -136.273 24.3604 -167.133v-73.2988c0 -53.1445 -7.75586 -92.1416 -23.1582 -116.993h-1.20215zM252.887 185.245c-35.9609 0 -41.3086 19.4863 -41.3086 36.6855
c0 21.0908 16.1367 31.6357 48.4463 31.6357c2.27441 0 4.62793 -0.0517578 7.0625 -0.15625c-24.8506 104.54 -39.8711 243.764 -45.0059 417.724v84.8779c18.8438 -8.5752 35.5566 -13.3271 50.1406 -14.2012v-70.6768c0 -125.951 11.1416 -258.346 33.4268 -397.188
c0 -59.1514 -17.6416 -88.7012 -52.7617 -88.7012zM926.444 185.245c-35.1191 0 -52.6523 29.5498 -52.6523 88.7012c22.2852 138.842 33.4268 271.236 33.4268 397.188v70.6768l51.3418 15.5117v-87.499c-6.00781 -173.087 -21.3555 -311.873 -46.208 -416.413
c37.0215 0 55.5098 -10.6387 55.5098 -31.7803c0 -1.37793 -0.078125 -2.80078 -0.235352 -4.26855c0 -21.4102 -13.7637 -32.1162 -41.1826 -32.1162zM354.478 221.294l-1.31152 8.95703h61.7197v-8.95703h-60.4082zM560.172 221.294l-1.31152 8.95703h61.7197
l-1.31055 -8.95703h-59.0977zM765.756 221.294l-1.30957 8.95703h61.7188l-1.20215 -8.95703h-59.207zM351.855 239.209l-2.51172 7.75586h69.3652l-2.5127 -7.75586h-64.3408zM557.55 239.209l-2.62207 7.75586h69.4756l-2.62109 -7.75586h-64.2324zM763.244 239.209
l-2.62207 7.75586h69.4746l-2.62109 -7.75586h-64.2314zM348.032 255.922l-3.82324 7.75586h79.6338l-2.5127 -7.75586h-73.2979zM552.415 255.922l-2.62109 7.75586h79.7432l-2.62109 -7.75586h-74.501zM758.11 255.922l-2.62207 7.75586h79.7432l-2.62109 -7.75586h-74.5z
M477.807 739.298c0 -177.333 -9.02734 -341.06 -52.6523 -465.352h-82.2559c-38.3037 118.04 -51.4512 268.03 -51.4512 465.352c7.96191 -0.595703 15.6562 -0.894531 23.084 -0.894531c58.1504 0 70.2656 17.0361 100.829 17.0361
c23.6348 0 29.5605 -14.0449 62.4463 -16.1416zM683.501 734.164c0 -151.621 -10.3115 -333.438 -51.4512 -460.218h-83.457c-39.6807 113.053 -52.7617 284.475 -52.7617 464.041c5.59375 -0.431641 10.9785 -0.647461 16.1533 -0.647461
c36.0615 0 61.9668 10.4844 77.6816 31.4531c18.1787 -23.1338 47.9492 -34.6748 89.2607 -34.6748c1.50977 0 3.03418 0.0146484 4.57422 0.0458984zM887.885 739.298c0 -166.093 -8.53516 -337.138 -50.1406 -465.352h-84.7686
c-34.543 106.447 -50.3584 245.962 -50.3584 422.896c0 12.2617 0.0722656 24.7021 0.21875 37.3213c27.25 12.165 50.8711 18.2471 70.8623 18.2471c28.915 0 36.5732 -14.0078 91.1025 -14.0078c7.42773 0 15.1221 0.298828 23.084 0.894531zM101.265 388.318
c0 19.7295 14.9873 37.3584 38.5605 37.3584c36.2012 0 37.251 -33.4766 37.251 -37.3584c0 -36.6445 -30.8047 -38.5615 -37.251 -38.5615c-22.4453 0 -38.5605 16.1055 -38.5605 38.5615zM999.743 388.318c0 22.4512 16.1104 38.5605 38.5605 38.5605
c35.3965 0 37.25 -31.8809 37.25 -38.5605c0 -15.2168 -8.42871 -37.25 -37.25 -37.25c-23.4893 0 -38.5605 17.5518 -38.5605 37.25zM203.688 517.423c0 -25.0342 -8.14844 -64.2939 -59.2588 -64.2939c-6.73633 0 -13.8418 0.677734 -21.3174 2.04297
c-2.44238 -3.06641 -6.41895 -4.60059 -11.9277 -4.60059c-7.94922 0 -22.8096 3.69141 -22.8096 13.667c0 12.9941 17.2656 12.9941 22.96 12.9941c13.6426 0 22.2852 -11.7236 46.9443 -11.7236c4.6582 0 19.1309 0.447266 19.1309 6.01074
c0 1.12109 -0.985352 1.67578 -2.95605 1.67578c-39.4551 0 -64.2314 1.88574 -64.2314 132.396c0 46.2617 0.21875 83.5664 0.655273 111.858c0.436523 28.293 31.0225 42.3848 91.8682 42.3848v-16.7129c-47.1357 0 -70.6768 -9.0127 -70.6768 -26.9824
s7.75586 -46.3164 23.1582 -84.877c27.7344 -65.4023 48.4609 -76.4971 48.4609 -113.84zM1000.61 471.519c0 -5.52344 14.665 -6.00977 19.832 -6.00977c25.0703 0 34.7012 11.7236 46.5801 11.7236c22.624 0 22.624 -9.80371 22.624 -12.9941
c0 -9.58789 -12.5273 -13.667 -21.5244 -13.667c-5.68555 0 -10.0391 1.53418 -13.1055 4.60059c-7.47559 -1.36523 -14.5811 -2.04297 -21.3164 -2.04297c-51.1074 0 -59.2578 39.2549 -59.2578 64.2949c0 15.9941 4.79883 31.874 14.3779 47.6406
c42.2236 69.5059 57.1309 129.205 57.1309 151.075c0 17.9697 -23.1045 26.9824 -69.3662 26.9824v16.7129c59.9707 0 90.2305 -14.0918 90.667 -42.3848c0.4375 -28.292 0.545898 -65.5967 0.545898 -111.858c0 -127.223 -22.5693 -132.396 -64.2314 -132.396
c-1.9707 0 -2.95605 -0.555664 -2.95605 -1.67676zM106.426 453.193c5.42285 0 6.63672 3.47656 6.63672 6.59082c0 3.06348 -1.80566 4.92773 -5.35352 5.65527c3.23145 -3.22949 3.29492 -5.86523 3.29492 -6.06543c0 -1.52441 -1.38965 -3.34473 -4.42188 -3.34473
c-1.19531 0 -2.62305 0.240234 -4.22461 0.671875c5.66992 0.677734 5.77734 2.91504 5.77734 3.98926c0 0.0820312 -0.111328 6.06055 -5.55957 6.06055c-2.56641 0 -4.36914 -1.25684 -5.24316 -3.82422c0 -2.29395 1.25684 -4.20508 3.27734 -5.78906
c-3.48145 1.17676 -5.20215 2.83789 -5.20215 5.02148c0 4.19727 5.05859 6.12109 8.83008 6.12109c8.51953 0 19.7803 -4.25195 43.2354 -13.1084c-22.6885 11.3438 -31.5615 15.7793 -43.1074 15.7793c-10.6816 0 -11.127 -7.90723 -11.127 -9.22559
c0 -5.97363 8.70996 -8.53223 13.1875 -8.53223zM1085.76 461.685c0 0.446289 -0.148438 9.2666 -11.8613 9.2666c-11.7939 0 -20.5322 -4.36914 -43.3535 -15.7793h1.30957c23.0547 8.70508 34.7158 13.1084 42.8818 13.1084c5.00879 0 8.78906 -3.5625 8.78906 -6.58594
c0 -2.69336 -2.33789 -3.47461 -6.22754 -4.77539c2.18457 1.63867 3.38672 3.60449 3.38672 6.00781c0 2.56738 -1.47461 3.82422 -4.47852 3.82422c-6.07031 0 -6.15527 -5.46973 -6.15527 -5.77441c0 -3.32227 4.89062 -4.13086 6.0459 -4.27539
c-1.75977 -0.408203 -3.35742 -0.654297 -4.65625 -0.654297c-3.40918 0 -4.33008 2.06055 -4.33008 3.25293c0 2.75977 2.9834 5.81738 3.30566 6.13965c-3.54785 -0.727539 -5.35254 -2.59082 -5.35254 -5.6543c0 -5.38379 3.49805 -6.5918 6.6377 -6.5918
c3.85547 0 14.0586 2.38965 14.0586 8.49121zM206.68 568.341c-2.58984 7.84766 -55.916 87.2822 -55.916 136.24c0 10.8604 0 24.4482 51.9824 24.4482v-57.8955c0 -59.9717 1.36621 -94.2168 3.93359 -102.793zM465.025 649.287
c0 77.2178 -66.8389 80.9443 -79.7432 80.9443c-42.2656 0 -80.9453 -29.9346 -80.9453 -80.9443c0 -41.9912 34.627 -79.6348 80.9453 -79.6348c59.2793 0 79.7432 48.6543 79.7432 79.6348zM876.306 649.287c0 77.2773 -66.9326 80.9443 -79.6348 80.9443
c-42.2939 0 -81.0537 -29.8467 -81.0537 -80.9443c0 -42.0527 34.6689 -79.6348 81.0537 -79.6348c59.208 0 79.6348 48.7354 79.6348 79.6348zM670.61 650.597c0 39.7373 -23.2578 79.6348 -79.6338 79.6348c-42.9727 0 -80.9453 -30.7461 -80.9453 -79.6348
c0 -42.8662 35.3779 -79.7432 80.9453 -79.7432c57.6035 0 79.6338 45.2246 79.6338 79.7432zM973.963 570.854c1.69336 32.5537 2.62207 65.543 2.62207 98.9697v59.2061c51.7646 0 51.7646 -14.3594 51.7646 -24.4482c0 -32.0303 -30.1621 -91.293 -54.3867 -133.728z
M328.697 649.287c0 32.1738 23.2852 56.584 56.585 56.584c38.2744 0 55.2744 -27.8838 55.2744 -56.584c0 -25.9922 -16.0996 -55.2744 -55.2744 -55.2744c-34.2783 0 -56.585 25.7988 -56.585 55.2744zM738.775 649.287c0 31.6055 22.043 56.584 57.8955 56.584
c44.5107 0 55.2744 -34.1406 55.2744 -56.584c0 -20.1436 -10.2344 -55.2744 -55.2744 -55.2744c-36.9072 0 -57.8955 26.4424 -57.8955 55.2744zM533.081 650.597c0 30.8721 21.5928 56.5859 57.8955 56.5859c39.3057 0 53.9639 -29.3301 53.9639 -56.5859
c0 -24.542 -13.7998 -55.2734 -53.9639 -55.2734c-35.4443 0 -57.8955 23.5264 -57.8955 55.2734zM175.307 804.748c-20.4238 0 -42.9229 -5.54004 -67.5977 -16.6211c20.1934 7.55664 40.6328 11.3457 61.374 11.3457c37.9268 0 53.9316 -11.7471 88.2451 -11.7471
c42.54 0 55.6123 24.8711 85.5703 24.8711h19.2256c-53.1201 -26.9912 -88.1406 -40.5371 -105.165 -40.5371c-41.0547 0 -50.0322 18.5801 -97.9072 18.5801c-34.3008 0 -67.7275 -18.7891 -100.28 -56.4756h-2.5127v2.5127
c21.4102 50.5771 55.6572 75.9199 102.793 75.9199c48.0098 0 85.751 -3.87793 113.17 -11.5791c-10.7842 -2.39062 -21.8887 -3.59766 -33.3184 -3.59766c-31.0186 0 -40.6758 7.32812 -63.5967 7.32812zM935.402 771.414c-24.8516 0 -64.2314 13.7637 -118.194 41.1826
h19.2246c30.0166 0 42.8828 -24.8711 85.7637 -24.8711c34.5557 0 51.04 11.7471 88.9541 11.7471c20.7119 0 40.9014 -3.78906 60.5811 -11.3457c-24.0469 11.0811 -46.3408 16.6211 -66.8418 16.6211c-23.0195 0 -33.0244 -7.32812 -64.2402 -7.32812
c-11.5059 0 -22.6465 1.20703 -33.4307 3.59766c27.4189 7.70117 65.0518 11.5791 113.061 11.5791c47.1367 0 81.3828 -25.3428 102.793 -75.9199v-2.5127h-1.20117c-33.4268 37.6865 -66.8545 56.4756 -100.28 56.4756c-47.4023 0 -58.9014 -16.4443 -86.1885 -19.2256z
M878.927 756.012c-95.2334 0 -72.9355 34.6279 -177.402 34.6279c-38.5596 0 -57.8955 17.1504 -57.8955 51.4512v38.5605h23.1582v-38.5605c0 -19.7168 10.7061 -29.4941 32.1162 -29.4941c52.332 0 133.504 -54.2139 180.023 -56.585zM330.169 757.23
c-1.33301 0 -2.66113 0.0302734 -3.9834 0.0917969c82.2559 36.8672 133.651 55.2744 154.242 55.2744c22.2852 0 33.4277 9.77734 33.4277 29.4941v38.5605h23.1582v-38.5605c0 -34.3008 -19.7725 -51.4512 -59.207 -51.4512
c-98.9795 0 -95.248 -33.4092 -147.638 -33.4092zM513.855 757.322c-31.6797 0 -62.2109 4.20605 -91.3232 12.7803c0 3.44141 18.4062 5.13477 55.2744 5.13477c51.3965 0 77.1211 22.2842 77.1211 66.8535v38.5605h25.7812v-74.5
c-12.8359 -32.5527 -35.1201 -48.8291 -66.8535 -48.8291zM666.787 757.322c-32.5527 0 -55.2188 16.2764 -68.0547 48.8291v74.5h26.9814v-38.5605c0 -44.5693 25.2334 -66.8535 75.8105 -66.8535c36.8682 0 55.2744 -1.69336 55.2744 -5.13477
c-29.1113 -8.57422 -59.1523 -12.7803 -90.0117 -12.7803zM260.643 762.456c77.6016 6.84668 91.0361 50.1406 163.2 50.1406c-43.6426 -9.3252 -71.4385 -50.1406 -163.2 -50.1406zM918.689 762.456c-89.835 0 -119.64 40.833 -163.201 50.1406
c72.1641 0 85.5977 -43.2939 163.201 -50.1406z" />
</svg>
