<?xml version="1.0" standalone="no"?>
<!DOCTYPE svg PUBLIC "-//W3C//DTD SVG 1.1//EN" "http://www.w3.org/Graphics/SVG/1.1/DTD/svg11.dtd" >
<svg xmlns="http://www.w3.org/2000/svg" xmlns:xlink="http://www.w3.org/1999/xlink" version="1.1" viewBox="-10 0 1190 1000">
   <path fill="currentColor"
d="M375.939 666.589c-21.1787 31.666 -45.4062 83.1289 -45.4062 122.489c0 25.792 11.915 38.6396 35.6973 38.6396c23.4385 0 35.1094 -25.9883 35.1094 -77.8672c0 -20.8896 3.72559 -43.1025 10.8857 -66.5898c-12.7988 -4.11914 -24.9102 -9.70898 -36.2861 -16.6719z
M470.185 566.067c-25.8906 21.625 -47.8096 42.9062 -66.001 63.7461l23.8311 11.6699c10.7871 -23.9297 24.8115 -49.084 42.1699 -75.416zM930.621 524.878v127.589h80.3193v-127.589h-80.3193zM764.394 524.878v127.589h125.039v-127.589h-125.039zM639.354 524.878
v127.589h83.8506v-127.589h-83.8506zM529.418 524.878c-29.2734 44.4258 -51.3877 86.1543 -66.5889 125.234c9.16895 1.3252 18.584 2.35449 28.4404 2.35449h107.975v-127.589h-69.8262zM280.91 335.113c10.4443 132.296 41.8262 223.255 94.0479 272.83
c34.2754 -37.4141 71.9844 -65.8535 113.271 -85.0264c-92.3818 -4.70703 -159.657 -67.2754 -201.828 -187.804h-5.49121zM193.381 121.822c0.364258 0 21.4248 0.24707 34.2773 12.4443c-10.6602 6.37988 -30.252 10.9072 -36.7021 10.9072
c-7.67578 0 -11.5479 -3.63477 -11.5479 -10.9072c0 -10.4014 7.44141 -12.4443 13.9727 -12.4443zM288.721 111.531c0 -9.87012 -6.60254 -35.5693 -19.874 -77.1982v56.7832c0 4.70703 -2.99023 6.96191 -9.02148 6.96191c-50.8984 0 -81.2021 6.42383 -90.9111 19.124
c-34.71 43.8516 -96.4805 36.6738 -96.4805 49.0371c0 2.9707 2.5459 7.37988 7.62891 13.2373c54.0098 -3.45117 52.3457 -8.73242 61.3369 -8.73242c5.1582 0 6.52051 2.8125 6.52051 6.06641c0 4.13184 -2.80859 6.22754 -8.39648 6.22754
c-0.0449219 0 -3.12695 -0.108398 -4.54883 -0.108398c-2.11719 0 -49.6689 1.7168 -49.6689 10.3818c0 1.63086 0.696289 3.96973 13.4482 3.96973c24.8779 0 48.0889 -6.38867 79.9443 -6.38867c49.6826 0 60.8828 13.2559 92.4277 13.2559
c31.2314 0 72.5488 -17.8779 72.5488 -48.3066c0 -43.3926 -15.5156 -44.1318 -16.5742 -44.1318c-2.00977 15.7412 -9.61133 29.2256 -22.6543 40.6016l-9.02246 -6.96387c9.83594 -9.83496 13.3672 -33.3867 13.3672 -39.0479
c0 -17.3496 -10.6094 -45.4082 -31.9014 -84.0283h-3.04004c15.0527 47.8574 22.5557 77.3271 22.5557 88.3604c0 10.0518 -4.02148 19.2705 -12.0635 27.6553l-7.45215 -10.4932c7.79395 -3.69629 11.8311 -10.999 11.8311 -16.2627zM369.271 156.822
c0 65.541 -65.7939 73.751 -66.7852 73.8467c24.125 169.709 107.632 254.589 250.568 254.589h586.946v39.6201h-88.3604v127.589h88.3604v39.6201h-668.835c-7.50293 0 -14.7598 -0.441406 -21.8691 -1.17676c-7.35547 26.8711 -11.2783 52.4189 -11.2783 76.4941
c0 68.9434 -24.959 103.464 -74.8271 103.464c-49.8691 0 -74.8271 -25.5957 -74.8271 -76.7881c0 -49.3789 19.2705 -99.6885 57.3711 -150.93c-70.0713 -67.5215 -105.621 -204.917 -106.505 -412.481c-21.6406 -12.2646 -46.9541 -18.4248 -75.8867 -18.4248
c-28.0312 0 -40.792 5.1084 -62.1797 5.1084c-26.4814 0 -39.7334 -8.91602 -39.7334 -26.7939c-8.04102 -5.3457 -12.7002 -12.209 -14.0244 -20.5947c-4.9375 -6.26562 -7.40527 -11.4736 -7.40527 -15.623c0 -15.6338 22.9062 -6.30273 73.21 -26.0566
c56.1826 -20.6523 46.2236 -50.7021 93.8535 -50.7021v-83.9473c0 -9.70898 3.87402 -14.5146 11.5723 -14.5146c8.29004 0 30.9189 39.0332 36.5801 52.1729v-37.6582c0 -9.70898 2.20605 -14.5146 6.57031 -14.5146c10.6895 0 18.9277 4.80566 24.6152 14.5146
c27.8037 49.8682 41.6797 80.3682 41.6797 91.4014c0.827148 0 41.1895 2.28418 41.1895 71.7861zM225.599 63.2646c1.76465 5.00098 3.87305 10.4922 5.09961 14.3174h8.53125c-2.69629 -8.67871 -7.25684 -23.1445 -13.6309 -43.249v28.9316z" />
</svg>
