<?xml version="1.0" standalone="no"?>
<!DOCTYPE svg PUBLIC "-//W3C//DTD SVG 1.1//EN" "http://www.w3.org/Graphics/SVG/1.1/DTD/svg11.dtd" >
<svg xmlns="http://www.w3.org/2000/svg" xmlns:xlink="http://www.w3.org/1999/xlink" version="1.1" viewBox="-10 0 1051 1000">
   <path fill="currentColor"
d="M570.744 140.492c0 -31.833 81.9678 -58.0234 125.943 -58.0234c4.82227 0 30.585 0.973633 30.585 21.7861c0 3.29199 -0.868164 6.21875 -2.67578 8.7793c-12.6104 3.95801 -18.917 16.4248 -18.917 37.5498c0 0.141602 0.0732422 5.06055 0.0732422 5.11133
c0 20.3525 -6.96094 32.8018 -20.6963 37.3975c60.7119 143.338 64.0684 165.221 64.0684 196.9c0 9.44238 -0.929688 43.6357 -13.9912 58.375l6.08301 1.62891c5.9209 -1.84668 8.9082 -6.46289 8.9082 -13.9043v-400.944c-39.874 0 -25.4482 -63.9814 -62.2441 -63.9814
c-3.69336 -3.69336 -5.54004 -7.98438 -5.54004 -12.8184c0 -13.7412 10.4824 -22.6484 31.6104 -26.7227c20.748 -4.45312 37.1514 -6.62598 48.9912 -6.62598c11.8408 0 28.4062 2.17285 49.5342 6.62598c20.748 4.07422 31.0674 12.9814 31.0674 26.7227
c0 4.83398 -1.68359 9.125 -4.99609 12.8184c-36.4189 0 -22.3516 63.9814 -61.7012 63.9814v400.944c0 7.44141 2.9873 12.0576 8.90723 13.9043l5.54004 -1.62891c-8.2959 -10.6289 -13.415 -34.4121 -13.415 -59.4287c0 -32.7949 4.29492 -56.7598 62.624 -196.063
c-13.1074 -4.80957 -19.7861 -17.6426 -19.7861 -38.6484c0 -0.0390625 0.0302734 -3.46484 0.0302734 -3.5c0 -21.2129 -6.84766 -33.7266 -20.5449 -37.6934c-0.654297 -2.22363 -0.993164 -4.72363 -0.993164 -7.49902c0 -8.85059 3.9873 -23.0664 29.6055 -23.0664
c48.5557 0 126.164 27.4092 126.164 58.5664c0 3.54004 -1.08594 11.0596 -9.65039 15.3418c-2.2168 -0.612305 -4.41309 -0.918945 -6.58789 -0.918945c-28.7295 0 -33.5 46.5371 -63.627 46.5371c-2.48535 0 -5.00586 -0.360352 -7.5625 -1.08105
c-63.7031 156.323 -63.7031 156.452 -63.7031 194.131c0 10.4404 0.8125 21.1533 2.4375 32.1406c36.7158 -41.876 57.6807 -63.1123 62.8955 -63.873c7.44043 0.760742 18.6836 23.1377 33.8916 67.2402c4.83496 5.71582 24.6709 31.167 24.6709 63.9648
c0 11.2695 -3.39355 18.1113 -10.2236 20.5479c-0.892578 0 -38.3457 -1.66211 -38.3457 -80.6016c-2.60645 -5.9209 -7.22363 -16.5117 -13.9043 -31.7197c-6.2998 0 -16.7285 15.751 -31.1758 47.2529h14.4473l17.8154 145.778h135.133v34.4355h-251.364v294.815h-35.5215
v-91.791l-224.751 -203.024h-133.503l-31.7197 58.4414h-104.5l-32.2617 -58.4414c-1.04004 0.0146484 -2.07617 0.0224609 -3.10645 0.0224609c-109.511 0 -144.762 -87.6846 -144.762 -122.938c0 -29.9531 21.2656 -75.0098 58.2354 -75.0098
c14.9258 0 61.7803 11.5977 61.7803 52.5195c0 32.5264 -24.5469 54.3311 -24.5469 80.0039c0 20.6494 17.6416 30.9658 52.9424 30.9658v-420.497c0 -22.3232 6.35449 -42.7998 18.9014 -61.5918l-10.5371 -22.3779l-48.4482 -10.5361l-1.08594 -15.0996l41.1699 8.90723
l-7.82129 -15.5332l-47.2529 -11.0801l-1.62988 -15.6426l41.1699 9.99316l-7.82129 -16.6191l-47.2529 -9.99414l-1.08594 -15.6426l41.7129 9.45117l-8.36426 -16.6201l-47.2529 -10.6455l-1.73828 -14.9912l41.1699 9.99414l-7.82129 -15.5342l22.8115 -11.0801
l6.73535 15.5342l19.9873 -38.3457l10.5371 11.0801l-22.8115 44.5371l8.36426 15.5342l19.4443 -38.3457l10.6455 10.5371l-22.2686 44.5371l7.82129 15.5342l18.9004 -37.2598l10.5371 10.5371l-21.7256 43.4512l6.73535 17.1631l19.9873 -38.8887l10.5371 11.0801
l-22.1602 43.4512l5.97461 12.6006c22.0508 -20.2051 60.8857 -30.416 116.883 -30.416c54.6943 0 92.877 9.99414 115.037 29.7637l5.10547 -10.8623l-22.8115 -43.4512l12.2744 -12.166l18.3584 38.8887l7.71191 -16.0771l-22.1592 -43.4512l10.5361 -11.623
l19.9883 38.3457l7.82031 -15.5342l-22.8115 -44.5371l11.0801 -10.5371l19.4443 37.2598l6.73535 -14.9912l-21.7256 -43.9941l11.1885 -11.0801l19.4443 38.3457l7.16895 -16.6201l21.7256 11.0801l-8.36426 16.7285l42.9082 -10.1016l-2.28125 15.0986l-47.2529 10.5371
l-7.82129 15.5342l41.1699 -8.9082l-1.62988 16.1855l-47.3613 9.45117l-7.16895 16.0762l40.626 -8.90723l-1.19434 15.6426l-47.2529 11.0801l-7.71289 14.4473l41.0615 -7.71191l-1.62988 14.9902l-47.2529 10.5371l-10.1025 21.1816
c12.6016 18.793 19.0098 39.3779 19.0098 61.7012v420.497h168.481l16.7295 -145.778h14.4473c-14.8281 -31.502 -25.2559 -47.2529 -31.1768 -47.2529c-6.67969 15.208 -11.2969 25.7988 -13.9043 31.7197c-2.11035 78.292 -37.4521 80.6016 -38.3447 80.6016
c-7.24512 -2.58496 -10.8545 -10.126 -10.8545 -22.6504c0 -23.1953 12.665 -46.9219 25.3018 -61.8623c15.208 -44.1025 26.4502 -66.4795 33.8916 -67.2402c5.21387 0.760742 25.8535 21.9971 61.8096 63.873c2.35156 -12.4121 3.52539 -24.4541 3.52539 -36.125
c0 -21.4746 -3.97266 -41.6953 -11.8906 -60.6621c-12.2197 -29.2754 -29.4375 -72.4004 -51.7061 -129.484c-2.88965 0.84668 -5.71973 1.26855 -8.49121 1.26855c-30.6768 0 -34.5977 -46.7109 -64.3506 -46.7109c-2.20312 0 -4.42773 0.301758 -6.67383 0.905273
c-8.96387 -2.38965 -9.26953 -14.2744 -9.26953 -15.8848zM707.868 -44.3672c44.4775 29.6006 15.9814 62.2842 55.0742 62.2842c39.3359 0 11.334 -32.4521 56.1611 -62.2842c-14.4482 -6.68066 -33.1865 -10.1025 -56.1611 -10.1025
c-22.2686 0 -40.627 3.42188 -55.0742 10.1025zM445.424 115.968c-9.46094 -9.63281 -28.0596 -28.5693 -104.065 -28.5693c-22.1641 0 -79.6758 0 -105.694 29.7637l104.717 221.709zM595.548 136.933c44.916 13.1455 36.0352 44.9717 59.5273 44.9717
c23.9902 0 31.3027 -13.1484 31.3027 -29.1797c0 -5.12207 -0.489258 -6.71191 -0.489258 -10.6855c0 -12.5215 4.96191 -25.3398 14.8105 -38.4551c-3.30371 -0.507812 -6.84668 -0.874023 -10.627 -0.874023c-18.7441 0 -68.8818 10.9316 -94.5244 34.2227z
M838.975 151.069c0 22.4922 12.8174 30.835 31.835 30.835c23.5996 0 13.7109 -33.7559 59.5283 -44.9717c-24.2822 -22.834 -68.6924 -34.2178 -93.9629 -34.2178c-4.29102 0 -8.36426 0.326172 -12.2754 0.869141c10.1328 13.4932 15.1377 26.6729 15.1377 39.5371
c0 0.0791016 -0.262695 7.01465 -0.262695 7.94824zM460.74 142.255l-106.672 225.402l75.1699 159.14l11.7324 -52.25l6.62598 -2.82422v123.053l-94.5059 -77.9717l6.08301 -2.82422l47.2529 22.8115l-66.0459 -140.347l-66.9141 141.433l47.3613 -22.8115
l6.62598 2.82422l-93.4199 76.8857v-121.966l4.99707 2.82422l12.8184 51.1631l74.9531 -159.14l-105.804 -224.858c-5.70312 15.0986 -8.69043 33.1309 -8.69043 54.2051v398.771h257.014v-398.771c0 -21.291 -2.87891 -39.541 -8.58203 -54.749zM645.082 409.479
c-22.626 45.2432 -30.7344 61.459 -30.7344 85.0146c0 1.81445 0.0332031 3.67578 0.100586 5.58105c12.5244 -14.7832 18.8027 -28.3018 18.8027 -40.5908c0 -1.8877 -0.147461 -3.74609 -0.444336 -5.57617c3.31348 -14.4473 7.44141 -28.8955 12.2754 -43.3428v-1.08594z
M881.998 409.479v1.08594c4.83398 14.4473 8.85352 28.8955 12.167 43.3428c-0.388672 2.0498 -0.583008 4.13477 -0.583008 6.25781c0 12.1064 6.3252 25.3984 18.9404 39.9092c0.0673828 -1.90723 0.101562 -3.77051 0.101562 -5.58691
c0 -18.6709 -3.55957 -32.5596 -10.6377 -41.667c-7.76758 -17.0537 -14.4482 -31.502 -19.9883 -43.3418zM100.305 466.428c-15.6709 0 -29.0908 20.6338 -29.0908 36.9062c0 18.417 12.1904 42.3438 36.5957 71.8027
c-0.282227 -3.79395 -0.423828 -7.51562 -0.423828 -11.1641c0 -44.9941 19.748 -56.0684 19.748 -74.0488c0 -16.627 -18.9902 -23.4961 -26.8291 -23.4961zM700.047 473.896l-12.709 121.88h153.49l-13.9043 -121.88c-9.61328 18.1953 -20.041 27.2656 -31.1758 27.2656
c-10.7539 0 -21.3457 -9.07031 -31.7188 -27.2656c-10.374 18.1953 -20.9658 27.2656 -31.7197 27.2656c-11.1348 0 -21.8887 -9.07031 -32.2627 -27.2656zM219.044 630.211l16.0771 28.8945h74.5186l14.9902 -28.8945h-105.586zM715.689 630.211l-172.392 1.08594
l172.392 155.772v-156.858z" />
</svg>
