<?xml version="1.0" standalone="no"?>
<!DOCTYPE svg PUBLIC "-//W3C//DTD SVG 1.1//EN" "http://www.w3.org/Graphics/SVG/1.1/DTD/svg11.dtd" >
<svg xmlns="http://www.w3.org/2000/svg" xmlns:xlink="http://www.w3.org/1999/xlink" version="1.1" viewBox="-10 0 752 1000">
   <path fill="currentColor"
d="M108.979 -75l10.5371 11.7314l-8.36426 45.5156l15.0986 15.0986l8.25586 -44.5371l11.7324 11.7314l-8.36523 45.5156l16.7295 17.8145l9.4502 -44.4287l11.623 11.623l-9.4502 44.5381l14.9902 17.1631l9.55957 -43.8857l10.5371 9.99316l-9.45117 45.624
l30.0898 31.8281c-0.216797 -3.58496 -0.542969 -6.95215 -0.651367 -10.6455c0 -64.5254 32.9678 -96.7871 98.96 -96.7871c66.3711 0 99.6113 32.2617 99.6113 96.7871c-0.108398 3.2041 -0.43457 6.1377 -0.652344 9.2334l29.5469 -31.502l-9.4502 -44.5381
l10.5371 -11.623l9.4502 45.5156l16.1855 -17.1631l-8.90723 -44.5381l11.7314 -12.8174l7.71289 44.5371l17.8145 -17.8154l-9.4502 -44.4287l11.7314 -12.8174l9.45117 45.623l14.9902 -16.1855l-9.4502 -45.623l11.623 -10.5371l8.36426 44.5371l18.9014 -18.9014
l14.9902 13.9043l-18.9014 18.9014l45.624 7.16992l-11.623 11.7314l-44.5381 -7.27832l-14.9902 16.1855l44.4287 7.16992l-10.5371 11.7314l-45.623 -5.64844l-17.1641 17.2715l44.9727 6.19238l-11.623 12.709l-43.9951 -7.16895l-16.6191 16.0762l44.4287 8.36426
l-9.45117 10.5371l-45.623 -5.54004l-49.6436 52.5762c-9.19336 40.7217 -28.6963 61.4795 -28.6963 94.3848c0 12.21 3.92285 31.0703 12.0762 56.2812l102.437 108.193l-3.25879 -46.71l4.99609 -4.45312l33.0234 104.174c34.29 0.438477 167.721 4.10742 167.721 231.268
c0 73.8125 -15.9141 110.583 -47.7959 110.583c-14.8281 -1.46582 -27.8633 -4.18164 -38.9971 -8.25586c-5.21484 5.54004 -15.5879 8.25586 -31.1768 8.25586c-27.4277 0 -41.0605 -19.2266 -41.0605 -57.79v-102.327c0 -29.2744 -9.28809 -57.2461 -27.8086 -83.9688
v379.871h-86.7939v-403.227h-166.852l-44.5381 75.0625h-107.324l-43.3418 -75.0625h-19.4443v-74.5186h193.031c-12.71 -12.4375 -19.0098 -30.7959 -19.0098 -55.0742c0 -19.6064 2.82422 -39.9199 7.92969 -60.7227l-72.4551 76.7998l46.71 -6.62598l3.36816 4.4541
l-101.241 40.1689l35.0869 -103.064l4.45312 4.45312l-3.36719 46.71l101.132 -107.759c7.71289 -23.8975 11.7324 -42.5273 11.7324 -55.1826c0 -33.8652 -20.1562 -56.332 -28.5693 -97.4385l-48.1221 -51.0557l-45.624 5.54004l-10.5361 -10.5371l45.5146 -6.62598
l-16.0771 -17.8145l-44.5371 8.36426l-12.709 -12.8184l45.5146 -7.27832l-16.6201 -17.2715l-45.623 5.64844l-11.624 -11.7314l45.5156 -7.16992l-14.9912 -15.0986l-45.623 6.19141l-10.5371 -11.7314l45.624 -6.08301l-18.9014 -19.9883l15.5332 -13.9043
l17.2725 18.9014zM320.26 20.7012c-47.4707 0 -71.1514 23.3545 -71.1514 70.0645c0 14.9365 1.84668 29.4922 5.21387 43.7773l65.9375 69.6299l67.2402 -71.4766c3.3125 -13.6875 5.10547 -27.6455 5.10547 -41.9307c0 -46.71 -24.1699 -70.0645 -72.3457 -70.0645z
M271.051 181.688c7.16992 19.0098 10.8633 36.7705 10.8633 53.1182c0 3.42188 -0.271484 7.27832 -0.652344 11.0801l25.0928 -26.7217zM368.164 184.294l-33.457 35.4131l23.5723 24.9844c-0.326172 -3.36816 -0.652344 -6.84375 -0.652344 -9.88574
c0 -15.6416 3.58496 -32.4795 10.5371 -50.5117zM319.716 443.371c72.8896 0 72.8896 -31.5234 72.8896 -51.1641c0 -24.1152 -5.75781 -51.543 -17.2715 -82.3389c-3.53125 -9.17969 -6.30078 -17.707 -8.79883 -25.8535l-46.167 -49.0996l-46.9277 49.751
c-2.28125 7.92969 -4.94238 16.2939 -8.14648 25.2021c-10.7539 30.7959 -16.1855 58.2236 -16.1855 82.3389c0 20.3486 0.0429688 51.1641 70.6074 51.1641zM411.941 332.354c5.15918 20.5312 7.92969 40.5186 7.92969 59.8535c0 24.333 -6.46387 42.6367 -19.4443 55.0742
h131.222l-97.873 -40.083l4.45312 -4.4541l46.71 7.27832zM627.35 624.671v95.7012c0 31.8818 8.63574 47.7959 26.0703 47.7959c17.0547 0 25.6367 -32.6426 25.6367 -97.874c0 -166.836 -88.6484 -199.657 -163.484 -199.657h-174.131
c-6.62598 0.706055 -13.7412 1.08594 -21.1816 1.08594c-7.44141 0 -14.4482 -0.379883 -21.0742 -1.08594h-228.553v28.8945l444.939 -1.08594c82.5244 0 111.777 78.0625 111.777 126.226zM93.9883 521.8l33.8916 55.0742h73.4326l32.8047 -55.0742h-140.129z
M452.133 521.8v379.871h41.1699v-379.871h-41.1699zM531.648 521.8c23.3555 35.9561 35.0869 70.2285 35.0869 102.871v95.7012c0 31.8818 6.30078 47.7959 18.9014 47.7959c12.9805 0 19.4443 -15.9141 19.4443 -47.7959v-92.334
c0 -66.2705 -37.1387 -106.238 -73.4326 -106.238z" />
</svg>
