<?xml version="1.0" standalone="no"?>
<!DOCTYPE svg PUBLIC "-//W3C//DTD SVG 1.1//EN" "http://www.w3.org/Graphics/SVG/1.1/DTD/svg11.dtd" >
<svg xmlns="http://www.w3.org/2000/svg" xmlns:xlink="http://www.w3.org/1999/xlink" version="1.1" viewBox="-10 0 1190 1000">
   <path fill="currentColor"
d="M590.589 -74.8086c34.8564 0 54.8359 13.1934 60.0488 39.5254l56.2236 270.162h-233.739l56.876 -270.162c4.83203 -26.332 25.0283 -39.5254 60.5908 -39.5254zM1074.9 298.926c32.0889 0 65.1025 44.1875 65.1025 71.4277
c0 10.1074 -3.57324 19.6025 -10.7158 28.4902l-173.737 214.674c34.2578 0.216797 54.1846 13.3574 59.7217 39.418l57.877 271.898h-235.741l57.2256 -270.812c5.1582 -26.8223 24.9199 -40.2871 59.1797 -40.5039l-147.568 -182.424l76.7695 -39.3066l-175.149 -156.908
l224.013 -162.336c8.53711 -6.7041 17.5615 -10.0596 27.0625 -10.0596c27.8457 0 69.8135 35.7295 69.8135 66.8086c0 7.7832 -2.25 15.543 -6.74902 23.2783l-136.602 238.021l167.223 -85.6738c7.52637 -3.99609 14.9492 -5.99219 22.2754 -5.99219zM151.276 128.468
c0 -30.6475 41.5557 -65.9844 69.4482 -65.9844c9.56543 0 18.6904 3.35547 27.3838 10.0596l224.014 162.336l-174.606 156.908l76.7705 39.3066l-148.654 182.424c35.0186 0.216797 54.9443 13.6816 59.7227 40.5039l57.7676 270.812h-235.631l58.3105 -271.898
c4.39746 -26.0605 23.834 -39.2012 58.0928 -39.418l-172.001 -214.674c-7.92578 -9.23145 -11.8936 -19.1191 -11.8936 -29.667c0 -27.7998 33.6963 -70.251 65.3535 -70.251c7.33789 0 14.7109 1.99609 22.1172 5.99219l167.765 85.7812l-136.602 -238.129
c-4.90332 -8.00879 -7.35742 -16.043 -7.35742 -24.1025zM590.589 -44.8379c-17.8086 0 -28.0156 5.5918 -30.6201 16.7227l-50.6025 232.916h161.251l-50.0586 -232.916c-2.22559 -11.1309 -12.1621 -16.7227 -29.9697 -16.7227zM220.627 93.6895
c-14.3789 0 -37.8232 20.5439 -37.8232 35.3555c0 2.97266 0.811523 5.82031 2.43457 8.54102l118.467 207.943l119.553 -107.936l-192.957 -140.619c-2.93652 -2.18945 -6.14746 -3.28516 -9.67383 -3.28516zM997.209 129.894
c0 -14.6221 -23.3633 -36.2041 -37.3936 -36.2041c-3.44238 0 -6.65332 1.0957 -9.58984 3.28516l-193.935 140.619l120.64 107.936l118.357 -207.943c1.28125 -2.46094 1.9209 -5.02539 1.9209 -7.69238zM106.606 330.869c-16.3506 0 -34.873 24.9678 -34.873 38.7891
c0 3.83984 1.1709 7.27051 3.50684 10.291l149.522 186.225l102.288 -125.633l-212.394 -107.826c-2.60645 -1.19531 -5.2666 -1.8457 -7.92676 -1.8457h-0.124023zM1108 370.171c0 -14.1631 -19.1963 -39.3018 -34.3018 -39.3018h-0.115234
c-2.44336 0 -4.72363 0.650391 -7.05859 1.8457l-212.394 107.826l100.551 125.633l150.174 -186.225c2.09766 -2.88477 3.14453 -6.14551 3.14453 -9.77832zM224.763 645.117c-17.8076 0 -27.8525 5.10352 -30.0781 15.0938l-49.9492 232.916h161.141l-49.9492 -232.916
c-2.22559 -9.99023 -12.6494 -15.0938 -31.1641 -15.0938zM954.678 645.117c-17.8086 0 -27.7441 5.10352 -29.9697 15.0938l-51.1445 232.916h162.336l-50.6006 -232.916c-2.60645 -9.99023 -12.8135 -15.0938 -30.6211 -15.0938z" />
</svg>
