<?xml version="1.0" encoding="UTF-8" standalone="no"?>
<svg
   version="1.1"
   viewBox="-10 0 867 1000"
   id="svg4"
   sodipodi:docname="2F.svg"
   inkscape:version="1.1.1 (3bf5ae0d25, 2021-09-20)"
   xmlns:inkscape="http://www.inkscape.org/namespaces/inkscape"
   xmlns:sodipodi="http://sodipodi.sourceforge.net/DTD/sodipodi-0.dtd"
   xmlns="http://www.w3.org/2000/svg"
   xmlns:svg="http://www.w3.org/2000/svg">
  <defs
     id="defs8" />
  <sodipodi:namedview
     id="namedview6"
     pagecolor="#ffffff"
     bordercolor="#666666"
     borderopacity="1.0"
     inkscape:pageshadow="2"
     inkscape:pageopacity="0.0"
     inkscape:pagecheckerboard="0"
     showgrid="false"
     inkscape:zoom="0.719"
     inkscape:cx="433.24061"
     inkscape:cy="721.83588"
     inkscape:window-width="1680"
     inkscape:window-height="998"
     inkscape:window-x="-8"
     inkscape:window-y="-8"
     inkscape:window-maximized="1"
     inkscape:current-layer="svg4" />
  <path
     fill="currentColor"
     d="m 195,800 c -26,0 -46,-2.83333 -60,-8.5 C 121,785.83333 111.33333,776 106,762 100.66667,748 98,728 98,702 V 86 h 90 v 586 c 0,19.33333 3.16667,32.33333 9.5,39 6.33333,6.66667 19.16667,10 38.5,10 h 230.61892 c 19.33333,0 32.16666,-3.33333 38.5,-10 6.33333,-6.66667 9.5,-19.66667 9.5,-39 V 86 h 90 v 616 c 0,26 -2.66667,46 -8,60 -5.33334,14 -15,23.83333 -29,29.5 -14,5.66667 -34,8.5 -60,8.5 z"
     id="path2"
     sodipodi:nodetypes="ssssccssccssccsssss" />
  <path
     style="fill:none;stroke:#000000;stroke-width:90.0003;stroke-linecap:butt;stroke-linejoin:miter;stroke-miterlimit:4;stroke-dasharray:none;stroke-opacity:1"
     d="m 360.27078,774.54125 v 168.66267 c 0,70.26078 -41.33895,101.89868 -81.16694,100.94918 -42.89809,-1.0226 -66.44107,-25.469 -66.44107,-66.87304 0,-40.62209 26.42365,-88.0421 142.62136,-88.0421 h 171.31179"
     id="path1372"
     sodipodi:nodetypes="cssssc" />
</svg>
