<?xml version="1.0" standalone="no"?>
<!DOCTYPE svg PUBLIC "-//W3C//DTD SVG 1.1//EN" "http://www.w3.org/Graphics/SVG/1.1/DTD/svg11.dtd" >
<svg xmlns="http://www.w3.org/2000/svg" xmlns:xlink="http://www.w3.org/1999/xlink" version="1.1" viewBox="-10 0 1010 1000">
   <path fill="currentColor"
d="M291 280l35 47h333l36 -39l51 47c2 4.66699 2 9 0 13c0 2 -2.66699 3 -8 3l-17 8v94l6 111c0 28 -16.333 42 -49 42v-71h-344v48c0 24 -15.333 38.333 -46 43v-35c0 -18 1 -41.333 3 -70v-190c0 -9.33301 -5 -22.667 -15 -40zM93 634l38 46h239l35 -38l50 46
c2.66699 2.66699 4 5.66699 4 9c0 5.33301 -3.66699 9.66699 -11 13l-16 6v117l3 62c0 26.667 -15.333 41.333 -46 44v-58h-250v47c0 22 -17 36.333 -51 43c3.33301 -26.667 5.33301 -63.667 6 -111l2 -172c0 -14 -6.33301 -28.333 -19 -43zM562 634l39 46h237l35 -38l51 46
c2 4 3 7.33301 3 10c0 5.33301 -3 9 -9 11l-18 7v117l4 62c0 26.667 -15.333 41.333 -46 44v-58h-250v47c0 22 -17 36.333 -51 43c3.33301 -26.667 5.33301 -63.667 6 -111l2 -172c-2 -16 -8.33301 -30.333 -19 -43zM334 516h344v-168h-344v168zM139 869h250v-170h-250v170z
M608 869h250v-170h-250v170zM81 197h746l28 -44l68 52c10.5625 5.28125 4.72559 12 -12 12h-749c-15.333 0 -31.667 4 -49 12zM523 84c17.333 21.333 26 38.667 26 52s-8.66699 23 -26 29c-14.667 0 -23 -8.66699 -25 -26c-10.7832 -34.7461 -42.7471 -75.7188 -120 -115
l4 -13c66.667 17.333 113.667 41.667 141 73z" />
</svg>
