<?xml version="1.0" encoding="UTF-8" standalone="no"?>
<svg
   version="1.1"
   viewBox="-10 0 512 1000"
   id="svg1"
   sodipodi:docname="newAB4B.svg"
   inkscape:version="1.4 (86a8ad7, 2024-10-11)"
   xmlns:inkscape="http://www.inkscape.org/namespaces/inkscape"
   xmlns:sodipodi="http://sodipodi.sourceforge.net/DTD/sodipodi-0.dtd"
   xmlns="http://www.w3.org/2000/svg"
   xmlns:svg="http://www.w3.org/2000/svg">
  <defs
     id="defs1" />
  <sodipodi:namedview
     id="namedview1"
     pagecolor="#ffffff"
     bordercolor="#666666"
     borderopacity="1.0"
     inkscape:showpageshadow="2"
     inkscape:pageopacity="0.0"
     inkscape:pagecheckerboard="0"
     inkscape:deskcolor="#d1d1d1"
     inkscape:zoom="0.755"
     inkscape:cx="219.2053"
     inkscape:cy="650.99338"
     inkscape:window-width="1680"
     inkscape:window-height="998"
     inkscape:window-x="-8"
     inkscape:window-y="-8"
     inkscape:window-maximized="1"
     inkscape:current-layer="svg1" />
  <path
     fill="currentColor"
     d="m 206,286 c 67.1543,0 123.013,-12.3525 188,-32 v 71 h -94 c -17.9453,4.22266 -49.3799,9 -97,9 -50,0 -94.667,-9.33301 -134,-28 V 424 H 20 V 244 h 37 c 73.5146,39.9082 116.948,42 149,42 z"
     id="path1"
     sodipodi:nodetypes="scccscccccs" />
  <path
     fill="currentColor"
     d="m 300,325 h 94 C 271.33213,537.46698 222.9551,613.2342 222.9551,708.64238 c 0,26.53788 16.30954,53 51.98504,53 50.40785,0 93.73155,-24.93769 126.22517,-60.4106 l 18,29 c -52.1719,52.1719 -88.13085,94.4106 -192.22517,94.4106 -50.75072,0 -98.98504,-45.07936 -98.98504,-103 C 127.9551,589.19478 227.57534,426.9349 300,325 Z"
     id="path1-9"
     style="fill:#e66100"
     sodipodi:nodetypes="ccssccssc" />
</svg>
