<?xml version="1.0" encoding="UTF-8" standalone="no"?>
<svg
   version="1.1"
   viewBox="-10 0 16 16"
   id="svg4"
   sodipodi:docname="0870.svg"
   width="16"
   height="16"
   inkscape:version="1.2.2 (732a01da63, 2022-12-09)"
   inkscape:export-filename="D:\Projects\Unicodia\Bitmaps\Scripts\0870.png"
   inkscape:export-xdpi="96"
   inkscape:export-ydpi="96"
   xmlns:inkscape="http://www.inkscape.org/namespaces/inkscape"
   xmlns:sodipodi="http://sodipodi.sourceforge.net/DTD/sodipodi-0.dtd"
   xmlns="http://www.w3.org/2000/svg"
   xmlns:svg="http://www.w3.org/2000/svg">
  <defs
     id="defs8" />
  <sodipodi:namedview
     id="namedview6"
     pagecolor="#ffffff"
     bordercolor="#666666"
     borderopacity="1.0"
     inkscape:pageshadow="2"
     inkscape:pageopacity="0"
     inkscape:pagecheckerboard="0"
     showgrid="true"
     inkscape:snap-global="false"
     inkscape:zoom="35.128239"
     inkscape:cx="11.913492"
     inkscape:cy="8.4832035"
     inkscape:window-width="1680"
     inkscape:window-height="998"
     inkscape:window-x="-8"
     inkscape:window-y="-8"
     inkscape:window-maximized="1"
     inkscape:current-layer="svg4"
     inkscape:showpageshadow="2"
     inkscape:deskcolor="#ffffff">
    <inkscape:grid
       type="xygrid"
       id="grid825" />
  </sodipodi:namedview>
  <path
     style="fill:#f57900;stroke-width:1"
     d="m -1.9616559,11.803306 q 0,0.143927 -0.05657,0.555138 -0.05657,0.411219 -0.143926,0.935515 -0.087384,0.524296 -0.1953265,1.012616 -0.1079425,0.48832 -0.210744,0.812149 -0.1028085,0.323835 -0.1850507,0.323835 -0.25701,0 -0.25701,-0.246734 0,-0.06166 0.097667,-0.493455 0.09766,-0.431777 0.09766,-1.1 0,-0.421495 -0.087377,-1.259343 -0.087384,-0.837856 -0.2210336,-1.907014 Q -3.2570096,9.3668617 -3.4112115,8.2411614 -3.5654205,7.1154611 -3.6990634,6.1131208 -3.8327066,5.1107874 -3.9200903,4.4065822 q -0.087384,-0.7042055 -0.087384,-0.909815 0,-0.3392525 0.1028017,-0.8121481 0.1028084,-0.4728956 0.2467271,-0.9355153 0.143926,-0.4626126 0.2929935,-0.7864477 0.1490675,-0.32382825 0.2415857,-0.35467 0.061655,0.0925258 0.1130845,0.5242962 0.051415,0.431778 0.051415,0.6682293 v 0.8532658 z"
     id="path857" />
  <path
     style="fill:#f57900;stroke-width:1"
     d="m 0.16637776,7.4800365 q 0,0.6373874 -0.44205376,1.0794411 -0.44205386,0.4420538 -1.0794344,0.4420538 -0.6373873,0 -1.0794411,-0.4420538 -0.4420538,-0.4420537 -0.4420538,-1.0794411 0,-0.6065386 0.4420538,-1.0485925 0.4420538,-0.4420608 1.0794411,-0.4420608 0.63738054,0 1.0794344,0.4420608 0.44205376,0.4420539 0.44205376,1.0485925 z"
     id="path2"
     inkscape:export-filename="D:\Projects\Unicodia\Bitmaps\Scripts\0870.png"
     inkscape:export-xdpi="96"
     inkscape:export-ydpi="96" />
</svg>
