<?xml version="1.0" encoding="UTF-8" standalone="no"?>
<svg
   viewBox="0 0 36 36"
   version="1.1"
   id="svg5"
   sodipodi:docname="1f1ff-1f1f2.svg"
   inkscape:version="1.4-beta3 (01c8a1c, 2024-08-28, custom)"
   xmlns:inkscape="http://www.inkscape.org/namespaces/inkscape"
   xmlns:sodipodi="http://sodipodi.sourceforge.net/DTD/sodipodi-0.dtd"
   xmlns="http://www.w3.org/2000/svg"
   xmlns:svg="http://www.w3.org/2000/svg">
  <defs
     id="defs5" />
  <sodipodi:namedview
     id="namedview5"
     pagecolor="#ffffff"
     bordercolor="#666666"
     borderopacity="1.0"
     inkscape:showpageshadow="2"
     inkscape:pageopacity="0.0"
     inkscape:pagecheckerboard="0"
     inkscape:deskcolor="#d1d1d1"
     inkscape:zoom="30.523443"
     inkscape:cx="21.360631"
     inkscape:cy="21.409774"
     inkscape:window-width="1680"
     inkscape:window-height="998"
     inkscape:window-x="-8"
     inkscape:window-y="-8"
     inkscape:window-maximized="1"
     inkscape:current-layer="svg5" />
  <path
     d="M 32,5 H 4 C 1.79,5 0,6.79 0,9 v 18 c 0,2.21 1.79,4 4,4 H 21 L 36,15 V 9 C 36,6.79 34.21,5 32,5 Z"
     fill="#1a8a00"
     id="path1"
     sodipodi:nodetypes="sssssccss" />
  <path
     d="m 31,31 h 1 c 2.21,0 4,-1.79 4,-4 V 15 h -5 l -2,2 v 12 z"
     fill="#ef7d00"
     id="path2"
     sodipodi:nodetypes="cssccccc" />
  <path
     d="m 26,15 h 5 V 31 H 26 L 24,28 V 17 Z"
     fill="#141414"
     id="path3"
     sodipodi:nodetypes="ccccccc" />
  <path
     d="m 21,15 h 5 v 16 h -5 z"
     fill="#de200f"
     id="path4"
     sodipodi:nodetypes="ccccc" />
  <path
     d="m35.08 8.26c-.11-.02-.72.33-.72.33s.56-.65.43-.65-.87.35-.87.35.46-.56.3-.5-.98.43-1.6.7c.09-.15.07-.37 0-.37-.06 0-.43.24-1 .37-.56.13-1.41.61-1.78.54s-1.11 0-1.11 0-.22-.33-.04-.41c.17-.09.3.13.3.13s.3-.13.3-.31-.52-.21-.52-.21-.22-.28-.56-.28c-.91 0-.98.98-.98.98s-.37-.13-.72-.22-.95-.04-1.56-.41-1-.5-.26.28c-1.08-.37-1.65-1.11-1.8-.79s.41.7.41.7-.3-.09-.56-.33-.63-.39-.28.13c-.46-.13-.13.35-.13.35s-.37.11 0 .37 1.04.37 1.04.37-.3.22-.11.3.52.02.52.02-.26.22 0 .3.59 0 .59 0-.11.22.15.31c.26.1.67-.12.67-.12s-.2.13 0 .24.5-.12.5-.12-.17.29 0 .34c.17.04.46-.17.46-.17s-.17.28 0 .3.56-.2.56-.2-.24.3 0 .3.52-.15.52-.15-.07.24.13.33.48-.15.48-.15.07.46.02.72c-.04.26.28.07.28.07s-.04.39-.3.37-.52.33-.43.41c.09.09.43-.07.43-.07s-.02.48.11.44.35-.31.35-.31.13.35.22.3c.09-.04.13-.24.13-.35s.24-.15.24-.15.07.43.15.35c.09-.09.11-.37.24-.46s.09.5.22.46.07-.43.02-.56.26.11.24 0-.26-.33-.26-.33.3.11.22 0-.13-.39 0-.33.24-.19.24-.19.35.26.56.17c.22-.09-.28-.39-.28-.39s.76.26.93.22-.26-.33-.26-.33.48.11.56 0c.09-.11-.31-.2-.31-.2s.53.09.59 0c.07-.09-.15-.2-.15-.2s.87-.02 1.04-.33c.87.02 1.82-.67 1.91-.82s-.15-.15-.15-.15.52-.41.46-.48c-.07-.07-.35.09-.35.09s.67-.59.56-.61zm-6.44 3.73c-.28 0-.09-.15-.13-.3s.15-.02.13-.15 0-.76 0-.76c.22.22.33.5.3.72-.02.22.11.24.15.35s-.17.15-.45.15z"
     fill="#ef7d00"
     id="path5" />
</svg>
