<?xml version="1.0" encoding="UTF-8" standalone="no"?>
<!-- Created with Inkscape (http://www.inkscape.org/) -->

<svg
   width="16"
   height="16"
   viewBox="0 0 16 16"
   version="1.1"
   id="svg5"
   inkscape:version="1.2.2 (732a01da63, 2022-12-09)"
   sodipodi:docname="0100.svg"
   inkscape:export-filename="..\0100.png"
   inkscape:export-xdpi="96"
   inkscape:export-ydpi="96"
   xml:space="preserve"
   xmlns:inkscape="http://www.inkscape.org/namespaces/inkscape"
   xmlns:sodipodi="http://sodipodi.sourceforge.net/DTD/sodipodi-0.dtd"
   xmlns="http://www.w3.org/2000/svg"
   xmlns:svg="http://www.w3.org/2000/svg"><sodipodi:namedview
     id="namedview7"
     pagecolor="#ffffff"
     bordercolor="#666666"
     borderopacity="1.0"
     inkscape:pageshadow="2"
     inkscape:pageopacity="0"
     inkscape:pagecheckerboard="0"
     inkscape:document-units="px"
     showgrid="true"
     width="16mm"
     units="px"
     inkscape:zoom="45.254834"
     inkscape:cx="5.1817669"
     inkscape:cy="9.5459415"
     inkscape:window-width="1680"
     inkscape:window-height="998"
     inkscape:window-x="-8"
     inkscape:window-y="-8"
     inkscape:window-maximized="1"
     inkscape:current-layer="text987"
     showguides="true"
     inkscape:guide-bbox="true"
     inkscape:snap-bbox="true"
     inkscape:bbox-paths="true"
     inkscape:bbox-nodes="true"
     inkscape:snap-global="true"
     inkscape:showpageshadow="2"
     inkscape:deskcolor="#ffffff"><inkscape:grid
       type="xygrid"
       id="grid828"
       originx="0"
       originy="0" /></sodipodi:namedview><defs
     id="defs2" /><g
     inkscape:label="Layer 1"
     inkscape:groupmode="layer"
     id="layer1"><g
       aria-label="Ừ"
       id="text556"
       style="font-size:4.517px;line-height:1.25;font-family:Cambria;-inkscape-font-specification:Cambria;text-align:center;letter-spacing:0px;word-spacing:0px;text-anchor:middle;fill:#204a87;stroke-width:0.264583"><g
         aria-label="œ"
         transform="scale(0.96463001,1.0366669)"
         id="text987"
         style="font-size:19.9754px"><path
           fill="currentColor"
           d="m 14.759967,10.092035 0.594974,0.633982 c -0.941206,1.020972 -1.992848,1.814173 -3.735635,1.814173 -1.535215,0 -2.3287786,-0.602477 -3.0723849,-1.599592 H 8.4689005 C 7.469896,12.123621 6.5846009,12.54019 5.2014422,12.54019 c -1.9522846,0 -4.1647927,-0.854946 -4.1647927,-4.7305022 0,-1.1176191 0.2960715,-4.9158214 4.3208516,-4.9158214 1.5368337,0 2.4937229,0.5900383 3.2772109,1.6190998 H 8.722507 C 9.725802,3.3699601 10.6146,2.8938664 11.853416,2.8938664 c 3.29619,0 3.655912,2.8151212 3.696616,4.8231737 H 9.4052363 c 0,1.7126673 0.3782768,3.6429859 2.6429067,3.6429729 1.077751,10e-7 1.883713,-0.388919 2.711824,-1.267978 z M 5.308725,3.6644041 c -0.9258137,0 -2.4286482,0.5258649 -2.4286482,3.9404572 0,1.5566091 0.3203976,4.1647907 2.4676629,4.1647907 1.7600283,0 2.3896335,-1.8536147 2.3896335,-3.8916887 0,-1.531569 -0.3034135,-4.2135592 -2.4286482,-4.2135592 z m 8.407606,3.2430885 C 13.600096,4.76393 13.003225,3.6644041 11.765612,3.6644041 c -1.219435,0 -2.1430812,1.0663531 -2.3116039,3.2430885 z"
           id="path359"
           style="fill:#2f5e9d;fill-opacity:1;stroke-width:0.264583"
           sodipodi:nodetypes="ccsccsssccsccccssssscscc" /></g></g></g></svg>
