<?xml version="1.0" encoding="UTF-8" standalone="no"?>
<!-- Created with Inkscape (http://www.inkscape.org/) -->

<svg
   width="16"
   height="16"
   viewBox="0 0 16 16"
   version="1.1"
   id="svg5"
   inkscape:version="1.4.2 (f4327f4, 2025-05-13)"
   sodipodi:docname="1E00.svg"
   inkscape:export-filename="..\0100.png"
   inkscape:export-xdpi="96"
   inkscape:export-ydpi="96"
   xml:space="preserve"
   xmlns:inkscape="http://www.inkscape.org/namespaces/inkscape"
   xmlns:sodipodi="http://sodipodi.sourceforge.net/DTD/sodipodi-0.dtd"
   xmlns="http://www.w3.org/2000/svg"
   xmlns:svg="http://www.w3.org/2000/svg"><sodipodi:namedview
     id="namedview7"
     pagecolor="#ffffff"
     bordercolor="#666666"
     borderopacity="1.0"
     inkscape:pageshadow="2"
     inkscape:pageopacity="0"
     inkscape:pagecheckerboard="0"
     inkscape:document-units="px"
     showgrid="true"
     width="16mm"
     units="px"
     inkscape:zoom="32"
     inkscape:cx="2.296875"
     inkscape:cy="9.984375"
     inkscape:window-width="1680"
     inkscape:window-height="998"
     inkscape:window-x="-8"
     inkscape:window-y="-8"
     inkscape:window-maximized="1"
     inkscape:current-layer="layer1"
     showguides="true"
     inkscape:guide-bbox="true"
     inkscape:snap-bbox="true"
     inkscape:bbox-paths="true"
     inkscape:bbox-nodes="true"
     inkscape:snap-global="true"
     inkscape:showpageshadow="2"
     inkscape:deskcolor="#ffffff"><inkscape:grid
       type="xygrid"
       id="grid828"
       originx="0"
       originy="0"
       spacingy="1"
       spacingx="1"
       units="px" /></sodipodi:namedview><defs
     id="defs2" /><g
     inkscape:label="Layer 1"
     inkscape:groupmode="layer"
     id="layer1"><path
       d="M 6.4558244,0.68681614 8.4469995,2.7326941 7.9843198,3.186449 4.8199211,1.0848471 V 0.68681614 Z M 14.884854,4.3964623 c 0,2.6165662 -1.906832,2.8128431 -3.884854,2.8578605 V 11.115219 C 11,12.649024 10.64372,15 7.1663682,15 4.3705022,15 3.3905714,13.730512 3.3905714,11.23463 V 5.9965458 c 0,-1.2138664 -0.091416,-1.3826792 -0.9418838,-1.6000835 v -0.39007 h 3.4700979 v 0.39007 C 5.0822854,4.5979574 4.9603776,4.7848224 4.9603776,5.9965458 v 5.6361132 c 0,2.219539 1.0605692,2.666806 2.4208061,2.666806 2.2555631,0 2.2555631,-2.112116 2.2555631,-3.327537 V 5.9965458 c 0,-1.2298275 -0.1253845,-1.3874714 -0.9666696,-1.6000835 v -0.39007 h 3.1726618 v 0.39007 C 11.108885,4.6044254 11,4.7917642 11,5.9965458 v 0.7164551 c 1.72863,-0.060932 2.372884,-0.5374575 2.372884,-2.7066086 h 1.51197 z"
       style="fill:#c01c28"
       sodipodi:nodetypes="ccccccscssssccccsssssccccscccs"
       id="path548" /></g></svg>
