<?xml version="1.0" encoding="UTF-8" standalone="no"?>
<!-- Created with Inkscape (http://www.inkscape.org/) -->

<svg
   width="16"
   height="16"
   viewBox="0 0 16 16"
   version="1.1"
   id="svg5"
   inkscape:version="1.4 (86a8ad7, 2024-10-11)"
   sodipodi:docname="1F00.svg"
   inkscape:export-filename="..\0370.png"
   inkscape:export-xdpi="96"
   inkscape:export-ydpi="96"
   xml:space="preserve"
   xmlns:inkscape="http://www.inkscape.org/namespaces/inkscape"
   xmlns:sodipodi="http://sodipodi.sourceforge.net/DTD/sodipodi-0.dtd"
   xmlns="http://www.w3.org/2000/svg"
   xmlns:svg="http://www.w3.org/2000/svg"><sodipodi:namedview
     id="namedview7"
     pagecolor="#ffffff"
     bordercolor="#666666"
     borderopacity="1.0"
     inkscape:pageshadow="2"
     inkscape:pageopacity="0"
     inkscape:pagecheckerboard="0"
     inkscape:document-units="px"
     showgrid="true"
     width="16mm"
     units="px"
     inkscape:zoom="47.125"
     inkscape:cx="8.9230769"
     inkscape:cy="5.2095491"
     inkscape:window-width="1680"
     inkscape:window-height="998"
     inkscape:window-x="-8"
     inkscape:window-y="-8"
     inkscape:window-maximized="1"
     inkscape:current-layer="layer1"
     showguides="true"
     inkscape:guide-bbox="true"
     inkscape:snap-bbox="true"
     inkscape:bbox-paths="true"
     inkscape:bbox-nodes="true"
     inkscape:snap-global="true"
     inkscape:showpageshadow="2"
     inkscape:deskcolor="#ffffff"><inkscape:grid
       type="xygrid"
       id="grid828"
       originx="0"
       originy="0"
       spacingy="1"
       spacingx="1"
       units="px" /><sodipodi:guide
       position="10,6.8455736"
       orientation="0,-1"
       id="guide3"
       inkscape:locked="false" /><sodipodi:guide
       position="13.639471,7.1771079"
       orientation="0,-1"
       id="guide4"
       inkscape:locked="false" /><sodipodi:guide
       position="12.290852,11.190933"
       orientation="0,-1"
       id="guide5"
       inkscape:locked="false" /></sodipodi:namedview><defs
     id="defs2" /><g
     inkscape:label="Layer 1"
     inkscape:groupmode="layer"
     id="layer1"><path
       id="path1"
       style="fill:#c01c28;stroke-width:1"
       d="M 11,14.51778 C 10.854753,14.663026 10.121868,15 9.5256337,15 9.0443805,15 8.2826003,14.835528 8.2704044,13.823222 L 8.2547074,12 h 1.4905851 l -0.015697,1.713389 c 0,0.257114 0.072729,0.392259 0.3294985,0.392259 0.06584,0 0.512741,-0.04646 0.721227,-0.105648 z M 1.6666668,1 C 1.7409268,1 3,1.022096 3,2.5208333 3,4.2193188 1.4788209,4.7575 0.6875001,5 L 0.5208333,4.4583334 C 0.8462311,4.333923 1.7291666,3.9963165 1.7291666,3.2291666 1.7291666,2.5089312 0.6875001,2.9528604 0.6875001,1.8958332 0.6875001,1.6867874 0.7567345,1 1.6666668,1 Z M 5.7105643,4.8090672 C 5.7105643,6.6181344 6.372702,7.7680626 8,8.1544264 L 7.7842529,11 H 3.9537686 L 3.8458943,8.3486146 H 4.6472401 L 4.7551128,9.000099 c 0.1076923,0.698843 0.5541621,0.939347 1.463998,0.939347 H 7 L 7.09247,8.7756085 C 4.2628468,7.8228921 4,6.3758729 4,4.8090672 4,2.3088271 5.9999933,1 8.9999933,1 11.999993,1 14,2.2873524 14.00141,4.8223857 14.002051,5.975129 13.676599,7.8598944 10.90753,8.7756085 L 11,9.939446 h 0.782306 c 0.909625,0 1.356273,-0.240356 1.463996,-0.939347 L 13.354173,8.3486146 H 14.15552 L 14.047648,11 h -3.81649 L 10,8.1544264 C 10.942644,7.9306145 12.290852,6.87381 12.290852,4.8090673 12.290852,2.7443246 10.715372,1.8392339 9,1.8392339 7.2846276,1.8392339 5.7105643,3 5.7105643,4.8090672 Z"
       sodipodi:nodetypes="csccccsccssccssszccccccsccsssccscccccczsz" /></g></svg>
