<?xml version="1.0" encoding="UTF-8" standalone="no"?>
<!-- Created with Inkscape (http://www.inkscape.org/) -->

<svg
   width="16"
   height="16"
   viewBox="0 0 16 16"
   version="1.1"
   id="svg5"
   inkscape:version="1.4.2 (f4327f4, 2025-05-13)"
   sodipodi:docname="2C60.svg"
   inkscape:export-filename="..\0100.png"
   inkscape:export-xdpi="96"
   inkscape:export-ydpi="96"
   xml:space="preserve"
   xmlns:inkscape="http://www.inkscape.org/namespaces/inkscape"
   xmlns:sodipodi="http://sodipodi.sourceforge.net/DTD/sodipodi-0.dtd"
   xmlns="http://www.w3.org/2000/svg"
   xmlns:svg="http://www.w3.org/2000/svg"><sodipodi:namedview
     id="namedview7"
     pagecolor="#ffffff"
     bordercolor="#666666"
     borderopacity="1.0"
     inkscape:pageshadow="2"
     inkscape:pageopacity="0"
     inkscape:pagecheckerboard="0"
     inkscape:document-units="px"
     showgrid="true"
     width="16mm"
     units="px"
     inkscape:zoom="27.217265"
     inkscape:cx="8.5056305"
     inkscape:cy="10.489665"
     inkscape:window-width="1680"
     inkscape:window-height="998"
     inkscape:window-x="-8"
     inkscape:window-y="-8"
     inkscape:window-maximized="1"
     inkscape:current-layer="layer1"
     showguides="true"
     inkscape:guide-bbox="true"
     inkscape:snap-bbox="true"
     inkscape:bbox-paths="true"
     inkscape:bbox-nodes="true"
     inkscape:snap-global="true"
     inkscape:showpageshadow="2"
     inkscape:deskcolor="#ffffff"><inkscape:grid
       type="xygrid"
       id="grid828"
       originx="0"
       originy="0"
       spacingy="1"
       spacingx="1"
       units="px" /></sodipodi:namedview><defs
     id="defs2" /><g
     inkscape:label="Layer 1"
     inkscape:groupmode="layer"
     id="layer1"><path
       d="M 3,3.1306826 C 3,1.8714746 2.8841762,1.6497303 1.9243736,1.4176137 V 0.99999997 H 5.2064135 L 8.4332931,9.2926167 11.981941,0.99999997 h 3.107366 V 1.4176137 C 14.161703,1.6325962 14.013681,1.829801 14.013681,3.1306826 v 9.2471624 c 0,2.552038 -0.889417,3.622162 -3.070593,3.622162 -0.553282,0 -1.0762976,-0.05756 -1.590456,-0.170455 v -1.71307 h 0.900952 c 0.270703,0.935379 0.688804,1.107955 1.066434,1.107955 0.721753,0 1.011271,-0.436049 1.011271,-1.866477 V 7.238639 c 0,-0.3387702 0.0047,-3.2137515 0.137901,-4.4062519 H 12.312903 L 8.6723213,11.278412 H 7.6150816 L 4.2319142,2.6960232 H 4.0756264 c 0.1076906,1.2379439 0.1287077,4.64061 0.1287077,4.6875021 v 3.1193197 c 0,1.279492 0.1106883,1.479708 1.0756266,1.713068 v 0.417614 H 1.9243736 V 12.215913 C 2.8545054,11.986874 3,11.834188 3,10.502845 Z"
       id="path576"
       style="fill:#c01c28" /></g></svg>
