<?xml version="1.0" encoding="UTF-8" standalone="no"?>
<!-- Created with Inkscape (http://www.inkscape.org/) -->

<svg
   width="16"
   height="16"
   viewBox="0 0 16 16"
   version="1.1"
   id="svg5"
   inkscape:version="1.2.2 (732a01da63, 2022-12-09)"
   sodipodi:docname="A640.svg"
   inkscape:export-filename="..\0100.png"
   inkscape:export-xdpi="96"
   inkscape:export-ydpi="96"
   xml:space="preserve"
   xmlns:inkscape="http://www.inkscape.org/namespaces/inkscape"
   xmlns:sodipodi="http://sodipodi.sourceforge.net/DTD/sodipodi-0.dtd"
   xmlns="http://www.w3.org/2000/svg"
   xmlns:svg="http://www.w3.org/2000/svg"><sodipodi:namedview
     id="namedview7"
     pagecolor="#ffffff"
     bordercolor="#666666"
     borderopacity="1.0"
     inkscape:pageshadow="2"
     inkscape:pageopacity="0"
     inkscape:pagecheckerboard="0"
     inkscape:document-units="px"
     showgrid="true"
     width="16mm"
     units="px"
     inkscape:zoom="32"
     inkscape:cx="17.015625"
     inkscape:cy="8.875"
     inkscape:window-width="1680"
     inkscape:window-height="998"
     inkscape:window-x="-8"
     inkscape:window-y="-8"
     inkscape:window-maximized="1"
     inkscape:current-layer="text987"
     showguides="true"
     inkscape:guide-bbox="true"
     inkscape:snap-bbox="true"
     inkscape:bbox-paths="true"
     inkscape:bbox-nodes="true"
     inkscape:snap-global="true"
     inkscape:showpageshadow="2"
     inkscape:deskcolor="#ffffff"><inkscape:grid
       type="xygrid"
       id="grid828"
       originx="0"
       originy="0" /></sodipodi:namedview><defs
     id="defs2" /><g
     inkscape:label="Layer 1"
     inkscape:groupmode="layer"
     id="layer1"><g
       aria-label="Ừ"
       id="text556"
       style="font-size:4.517px;line-height:1.25;font-family:Cambria;-inkscape-font-specification:Cambria;text-align:center;letter-spacing:0px;word-spacing:0px;text-anchor:middle;fill:#204a87;stroke-width:0.264583"><g
         aria-label="œ"
         transform="scale(0.96463001,1.0366669)"
         id="text987"
         style="font-size:19.9754px"><rect
           style="fill:#7fffff;fill-opacity:1;stroke:none;stroke-width:4.4376;stroke-linejoin:bevel;stop-color:#000000"
           id="rect691"
           width="16.58667"
           height="15.43408"
           x="0"
           y="0" /><path
           d="m 9.7203604,6.7627782 c 3.1716316,0 4.7555166,1.3333451 4.7555166,4.5101628 v 1.040284 c 0,0.592641 0.155861,0.967786 0.467595,1.125399 0.311734,0.157615 0.69309,0.236423 1.144108,0.236423 v 0.794398 H 12.565713 V 10.609722 H 9.2030253 v 1.703503 c 0,0.907885 0.5438598,1.361827 1.6315987,1.361827 h 0.05968 v 0.794399 H 5.6612497 v -0.794399 h 0.059685 c 1.0877411,0 1.6316014,-0.422412 1.6316014,-1.267255 V 10.609722 H 3.9898482 v 3.859729 H 0.46798301 v -0.794399 c 0.4510164,0 0.83237509,-0.07881 1.14410919,-0.236423 0.3117341,-0.157616 0.4675896,-0.532757 0.4675896,-1.125399 v -1.040284 c 0,-3.6106741 2.2462569,-4.5101626 4.5963376,-4.5101626 L 2.7562142,1.9671288 V 0.96467256 H 13.819257 V 1.9671288 Z M 8.4867139,6.5547157 12.108068,1.9292702 H 4.9648427 Z M 12.466223,9.6640048 C 12.274465,8.3424563 11.241669,7.7157834 9.6606676,7.7157834 H 6.894907 c -1.5663111,0 -2.5990596,0.5613427 -2.8254536,1.948227 z"
           style="fill:#2f5e9d;stroke-width:0.264583"
           sodipodi:nodetypes="cssscccccssccccsscccccssscccccccccccsscc"
           id="path2724" /></g></g></g></svg>
