<?xml version="1.0" encoding="UTF-8" standalone="no"?>
<!-- Created with Inkscape (http://www.inkscape.org/) -->

<svg
   width="64"
   height="64"
   viewBox="0 0 64 64"
   version="1.1"
   id="svg1"
   inkscape:version="1.3.2 (091e20e, 2023-11-25, custom)"
   sodipodi:docname="fingerprint.svg"
   xml:space="preserve"
   xmlns:inkscape="http://www.inkscape.org/namespaces/inkscape"
   xmlns:sodipodi="http://sodipodi.sourceforge.net/DTD/sodipodi-0.dtd"
   xmlns="http://www.w3.org/2000/svg"
   xmlns:svg="http://www.w3.org/2000/svg"><sodipodi:namedview
     id="namedview1"
     pagecolor="#ffffff"
     bordercolor="#666666"
     borderopacity="1.0"
     inkscape:showpageshadow="2"
     inkscape:pageopacity="0.0"
     inkscape:pagecheckerboard="0"
     inkscape:deskcolor="#d1d1d1"
     inkscape:document-units="px"
     inkscape:zoom="7.8715825"
     inkscape:cx="49.418271"
     inkscape:cy="21.024997"
     inkscape:window-width="1680"
     inkscape:window-height="998"
     inkscape:window-x="-8"
     inkscape:window-y="-8"
     inkscape:window-maximized="1"
     inkscape:current-layer="layer1" /><defs
     id="defs1" /><g
     inkscape:label="Layer 1"
     inkscape:groupmode="layer"
     id="layer1"><path
       style="color:#000000;fill:none;stroke:#3584e4;stroke-width:3;stroke-linecap:round;stroke-dasharray:none"
       d="M 56.954819,48.750933 C 50.023008,46.824194 45.488602,45.138057 42.102582,42.931813 40.309246,41.763321 38.936588,40.50291 37.876915,39.126796 M 35.71875,35.169922 c -0.572225,-1.554934 -2.296643,-2.351559 -3.851563,-1.779297 -1.554933,0.572225 -2.351558,2.296643 -1.779296,3.851562 1.549197,4.211644 4.455145,7.712834 8.675781,10.462891 3.576519,2.330368 8.075143,4.21429 13.769992,5.959445"
       id="path1"
       sodipodi:nodetypes="csccccsc" /><path
       style="fill:none;stroke:#3584e4;stroke-width:3;stroke-linecap:round;stroke-linejoin:miter;stroke-dasharray:none;stroke-opacity:1"
       d="m 28.647353,57.993421 c 1.454154,-5.08954 2.354207,-9.648673 -0.170895,-13.707203 -1.48118,-2.380662 -3.194186,-4.264637 -3.379731,-6.289835 m 0.01113,-4.949452 c 1.018743,-3.007254 6.241368,-8.093186 11.992116,-4.772991 5.509392,3.18085 4.087425,12.400583 19.496011,14.60181"
       id="path2"
       sodipodi:nodetypes="csccsc" /><path
       style="fill:none;stroke:#3584e4;stroke-width:3;stroke-linecap:round;stroke-linejoin:miter;stroke-dasharray:none;stroke-opacity:1"
       d="m 23.266053,55.784629 c 1.167794,-4.132195 1.811916,-6.50945 -1.796606,-11.588111 -2.425419,-3.413552 -2.78474,-10.510147 -1.796606,-13.294887 1.948222,-4.78163 6.143472,-7.96761 10.991836,-9.298723 m 6.202833,0.388333 c 2.47295,0.792722 4.996425,3.215273 6.071383,4.957855 3.915948,6.348025 8.44405,8.983032 13.025397,10.150826"
       id="path3"
       sodipodi:nodetypes="cssccsc" /><path
       style="fill:none;stroke:#3584e4;stroke-width:3;stroke-linecap:round;stroke-linejoin:miter;stroke-dasharray:none;stroke-opacity:1"
       d="m 18.357172,50.625145 c 0.06352,-1.969109 -1.71503,-4.827493 -2.604305,-6.606043 -0.889274,-1.778549 -3.303016,-10.036098 -0.889273,-15.625828 m 2.841167,-4.728102 c 3.318002,-4.283171 8.574767,-8.200685 14.880808,-8.293422 5.785664,-0.08508 9.425459,2.085823 12.261821,5.202876 m 3.300489,4.07099 c 1.77855,2.794864 2.667824,3.938217 4.573413,5.20861"
       id="path4"
       sodipodi:nodetypes="csccsccc" /><path
       style="fill:none;stroke:#3584e4;stroke-width:3;stroke-linecap:round;stroke-linejoin:miter;stroke-dasharray:none;stroke-opacity:1"
       d="m 39.390596,58.524454 c 0.718642,0.583897 2.200843,1.572031 2.649994,1.706776"
       id="path5" /><path
       style="fill:none;stroke:#3584e4;stroke-width:3;stroke-linecap:round;stroke-linejoin:miter;stroke-dasharray:none;stroke-opacity:1"
       d="m 33.147388,60.590551 c 1.706776,-3.188976 0.456169,-5.940198 2.380504,-7.186425 2.721973,-1.762789 9.207608,3.503382 12.935566,4.087279"
       id="path6"
       sodipodi:nodetypes="csc" /><path
       style="fill:none;stroke:#3584e4;stroke-width:3;stroke-linecap:round;stroke-linejoin:miter;stroke-dasharray:none;stroke-opacity:1"
       d="M 9.1408962,31.124884 C 9.6264251,23.045159 14.693717,14.849985 23.430658,11.808163 m 6.116407,-1.9769798 c 3.629567,-0.3362164 7.358913,0.2499008 10.560851,1.8358608"
       id="path7"
       sodipodi:nodetypes="cccc" /><path
       style="fill:none;stroke:#3584e4;stroke-width:3;stroke-linecap:round;stroke-linejoin:miter;stroke-dasharray:none;stroke-opacity:1"
       d="M 8.2575518,16.388065 C 12.894484,8.8292284 20.707399,4.446374 31.696294,4.8910114"
       id="path8"
       sodipodi:nodetypes="cc" /></g></svg>
